<svg xmlns="http://www.w3.org/2000/svg" xml:space="preserve" x="0px" y="0px" style="enable-background:new 0 0 219.127 221.81" viewBox="0 0 219.127 221.81"><path d="m142.864 121.953.887-6.548a72.12 72.12 0 0 1-9.38 5.463c-7.408 3.582-12.842 9.232-16.632 14.516 4.392-4.074 10.304-8.106 17.823-10.22 2.693-.757 5.156-1.933 7.302-3.211zM118.472 138.974c5.502-3.53 12.819-7.123 21.043-8.31 3.941-.567 7.394-1.928 10.264-3.478l.715-6.983c-2.989 2.578-7.964 6.162-14.109 7.891-7.724 2.168-13.683 6.628-17.913 10.88zM78.599 134.173c-8.312-1.196-14.618-5.412-18.185-8.41l1.834 46.855c1.59 1.728 7.846 8.059 15.431 9.57 15.714 3.129 25.337 10.139 29.898 14.322l-.001-47.367c-2.578-2.406-14.52-12.882-28.977-14.97zm20.649 22.479c-.775.461-1.293.146-2.453-.349-.881-.376-1.977-.844-2.954-.925-.107-.014-1.641-.291-3.191-.291-1.555 0-2.357.285-2.589.551-.036.04-.101.116-.069.342l2.379 18.017c.035.27-.056.571-.234.776-.277.321-.519.599-4.836.599-4.485 0-4.759-.311-5.021-.612a1.024 1.024 0 0 1-.241-.782L81.99 156.3c.038-.298-.041-.429-.114-.511-.403-.458-1.761-.569-3.346-.228-.944.357-4.871 1.814-6.16 1.814-.29 0-.528-.06-.729-.182-.997-.694.266-5.26 1.104-7.921.298-.95.58-1.848 1.437-1.848.059.002.25.031.572.105 4.169.97 7.756 1.461 10.659 1.461l.336-.003c3.188-.042 6.581-.82 8.608-1.285 1.189-.275 1.778-.405 2.161-.405.479 0 .751.217.893.399.074.093.129.2.164.313 2.45 8.099 2.347 8.172 1.673 8.643zM145.172 152.024v-.416c0-1.17-.304-1.777-2.018-1.777h-.944v3.921h.912c1.602 0 2.05-.56 2.05-1.728zM79.106 130.664c8.224 1.187 15.558 4.779 21.078 8.308-4.249-4.252-10.225-8.709-17.946-10.879-6.145-1.729-11.122-5.313-14.11-7.891l.716 6.984c2.868 1.549 6.322 2.91 10.262 3.478zM83.06 125.164c7.511 2.112 13.432 6.136 17.837 10.206-3.811-5.283-9.255-10.929-16.647-14.502a72.326 72.326 0 0 1-9.379-5.463l.887 6.55c2.146 1.276 4.608 2.452 7.302 3.209zM105.251 119.328c0 2.272 1.845 4.122 4.11 4.122a4.121 4.121 0 0 0 0-8.241 4.12 4.12 0 0 0-4.11 4.119z" style="fill:#006179"/><path d="m111.126 149.142-.001 47.351c4.55-4.188 14.13-11.181 29.818-14.304 7.604-1.515 13.945-7.704 15.592-9.429l1.687-47.01c-3.564 2.999-9.877 7.223-18.2 8.422-14.456 2.089-26.332 12.565-28.896 14.97zm19.862-1.343h7.091v1.92h-4.882v3.17h4.163v1.984h-4.163v3.249h5.106v2.018h-7.315v-12.341zm-10.218.016h2.259l1.073 3.76 1.152 5.766 1.136-5.796 1.072-3.73h2.256l-3.312 12.326h-2.305l-3.331-12.326zm12.024 23.221c0 2.548-1.552 3.762-4.147 3.762-2.592 0-4.033-1.214-4.033-3.762v-8.659h2.21v8.546c0 1.17.512 1.922 1.823 1.922 1.312 0 1.937-.752 1.937-1.922v-8.546h2.21v8.659zm11.482 3.65h-2.212v-4.353l.258-3.522-2.447 4.964h-.498l-2.449-4.964.256 3.522v4.353h-2.208V162.36h2.129l2.513 5.458 2.528-5.458h2.131v12.326zm3.219-23.192v.641c0 1.827-.642 2.818-2.129 3.299l2.703 4.691h-2.576l-2.449-4.338h-.817v4.338h-2.209v-12.326h3.105c2.977 0 4.372 1.088 4.372 3.695z" style="fill:#006179"/><path d="M178.473 41.44 116.682 6.7c-4.056-2.28-10.691-2.28-14.744 0L40.146 41.44c-4.054 2.279-7.371 7.952-7.371 12.603v114.326c0 4.65 3.317 10.321 7.371 12.6l61.792 34.741c4.053 2.281 10.688 2.281 14.744 0l61.791-34.741c4.055-2.278 7.373-7.95 7.373-12.6V54.043c0-4.651-3.319-10.324-7.373-12.603zm-18.415 132.106a1.793 1.793 0 0 1-.439 1.105c-.322.368-7.998 9.027-17.982 11.018-21.284 4.237-30.091 15.768-30.339 16.189-.341.578-1.087 1.203-1.868 1.203-.78 0-1.592-.75-1.901-1.203-.31-.455-9.254-11.952-30.543-16.189-10.002-1.993-17.526-10.828-17.842-11.203a1.778 1.778 0 0 1-.415-1.072l-2.03-51.87a1.774 1.774 0 0 1 3.118-1.225c.038.044 2.128 2.411 5.766 4.903l-.902-8.813a1.525 1.525 0 0 1 .901-1.547 1.527 1.527 0 0 1 1.75.384c.036.043 2.149 2.394 5.621 4.894l-.99-7.313a1.269 1.269 0 0 1 2.042-1.163c.048.036 4.813 3.786 11.349 6.944 14.096 6.813 21.339 20.305 23.993 26.358 2.634-6.055 9.828-19.545 23.924-26.358 6.551-3.164 11.3-6.907 11.347-6.944a1.268 1.268 0 0 1 2.043 1.163l-.991 7.313c3.473-2.5 5.585-4.851 5.621-4.894a1.518 1.518 0 0 1 2.649 1.163l-.901 8.813c3.639-2.492 5.73-4.86 5.769-4.905a1.775 1.775 0 0 1 3.118 1.22l-1.868 52.029zm-85.48-83.047c5.081 0 6.367-2.131 6.367-5.987h7.008c0 8.579-4.066 12.188-13.375 12.188-9.299 0-13.053-3.609-13.053-11.688V69.111c0-8.289 3.614-11.686 13.053-11.686 9.46 0 13.375 3.452 13.375 12.144h-7.008c0-3.814-.919-5.95-6.367-5.95-5.088 0-6.045 2.136-6.045 5.844v15.194c0 3.711.957 5.842 6.045 5.842zm31.595-16.564 10.255-16.462h8.186l-12.756 19.563 13.934 19.562h-8.534l-11.03-15.692h-1.989v15.692h-6.96V63.726h-2.651v-6.253h9.663v16.462h1.882zm10.929 45.393c0 4.273-3.471 7.75-7.74 7.75-4.268 0-7.739-3.477-7.739-7.75 0-4.271 3.472-7.747 7.739-7.747 4.269 0 7.74 3.476 7.74 7.747zm27.729-28.625c4.17 0 6.15-2.383 6.15-6.1v-27.13h7.013v27.491c0 8.084-4.932 11.946-13.163 11.946-8.225 0-12.803-3.862-12.803-11.946V63.726h-2.649v-6.253H139.035v27.13c.002 3.716 1.636 6.1 5.796 6.1zm31.46 5.832h-4.839V60.57c0-3.045-2.329-7.026-4.985-8.521l-52.122-29.305c-2.683-1.509-7.385-1.509-10.066 0L52.154 52.05c-2.655 1.494-4.984 5.475-4.984 8.521v35.965h-4.84V60.57c0-4.793 3.274-10.39 7.453-12.74l52.124-29.304c4.152-2.335 10.658-2.334 14.809 0l52.123 29.304c4.179 2.35 7.453 7.946 7.453 12.74v35.965z" style="fill:#006179"/></svg>