<svg xmlns="http://www.w3.org/2000/svg" width="184.53653mm" height="184.49957mm" viewBox="0 0 184.53653 184.49957"><path d="M123.591 149.44a5.911 5.911 0 1 1-11.822 0 5.911 5.911 0 0 1 11.822 0" style="fill:#fff;fill-opacity:1;fill-rule:nonzero;stroke:none;stroke-width:.352778" transform="translate(-1712.855 -2199.97) scale(15.33935)"/><path d="M112.044 150.04c-.012-.084.021-.158.101-.221a.661.661 0 0 1 .33-.127.677.677 0 0 1 .354.027c.095.042.148.102.16.188a.218.218 0 0 1-.057.182.373.373 0 0 1-.199.113l-.01-.078a.237.237 0 0 0 .128-.078.159.159 0 0 0 .03-.128c-.008-.06-.048-.1-.121-.127a.566.566 0 0 0-.275-.015.582.582 0 0 0-.263.09c-.058.045-.082.1-.073.163.008.062.05.108.123.135l.036.011.069.007.082-.005h.01l-.026-.188.102-.015.039.263-.474.069-.008-.051.11-.036-.008-.003c-.094-.037-.146-.095-.159-.176M113.06 150.395l.011.044.012.045-.824.436-.022-.086.24-.125-.06-.234-.27.003-.01-.04-.012-.042zm-.532.078.047.185.367-.19zM112.315 151.077l-.028-.075.85-.31.017.046.016.047-.585.537.69-.252.028.074-.85.31-.016-.042-.016-.042.587-.547zM112.603 151.833c-.04-.075-.03-.155.026-.24a.68.68 0 0 1 .275-.224.663.663 0 0 1 .345-.083c.102.008.172.051.21.128.03.06.031.123.002.19a.374.374 0 0 1-.153.17l-.036-.07a.243.243 0 0 0 .098-.115.16.16 0 0 0-.01-.13c-.026-.054-.079-.082-.156-.083a.557.557 0 0 0-.265.07.553.553 0 0 0-.221.168c-.043.06-.049.12-.021.177.027.056.081.086.16.09h.037l.067-.014.076-.03.01-.005-.084-.17.092-.046.119.237-.429.214-.023-.047.094-.068h-.01c-.1-.007-.168-.045-.204-.118M112.862 152.26l-.021-.034-.022-.033.76-.49.028.042.026.041-.455.653.62-.396.021.033.02.033-.76.489-.025-.037-.023-.039.452-.661zM113.169 152.72l.707-.563.277.346-.043.035-.041.033-.226-.283-.217.172.207.258-.042.035-.043.033-.206-.258-.237.19.228.285-.041.035-.043.033zM114.103 153.273a.466.466 0 0 1-.231.14.203.203 0 0 1-.19-.06.197.197 0 0 1-.06-.19.47.47 0 0 1 .146-.23l.41-.401.058.058-.403.395a.368.368 0 0 0-.109.163.13.13 0 0 0 .035.13.13.13 0 0 0 .128.037.397.397 0 0 0 .165-.106l.403-.396.029.03.028.03zM114.037 153.656l-.06-.05.573-.7.037.031.039.032-.232.76.467-.567.06.05-.572.7-.036-.03-.035-.027.226-.769zM114.671 154.16c-.072-.045-.105-.12-.1-.221a.672.672 0 0 1 .12-.332.662.662 0 0 1 .256-.247c.092-.045.173-.044.246.003.055.035.088.09.098.161a.363.363 0 0 1-.044.225l-.066-.043a.25.25 0 0 0 .025-.149.153.153 0 0 0-.076-.106c-.05-.033-.11-.03-.177.007a.591.591 0 0 0-.191.196c-.064.1-.1.186-.104.26-.006.072.02.126.073.162.053.034.113.033.182-.004l.033-.02.05-.046.051-.067.006-.01-.16-.102.057-.086.223.143-.26.402-.043-.027.045-.108-.008.005c-.09.047-.168.049-.235.004M115.543 154.2l.015-.588.089.039-.024.473h.001l.34-.33.043.021.043.02-.433.402-.147.328-.039-.017-.037-.016zM115.77 154.691l.287-.858.42.14-.017.051-.017.051-.343-.114-.087.263.313.104-.016.052-.018.051-.313-.105-.095.288.347.116-.018.051-.016.052zM116.39 154.774a.646.646 0 0 1-.009-.355.652.652 0 0 1 .15-.322c.072-.074.15-.103.238-.085.086.018.147.076.182.174a.65.65 0 0 1 .01.355.665.665 0 0 1-.152.321c-.07.073-.15.102-.237.084-.085-.019-.146-.075-.182-.172m.376 0a.558.558 0 0 0 .112-.25.532.532 0 0 0-.003-.275c-.024-.074-.066-.118-.128-.13-.062-.013-.119.01-.171.068a.524.524 0 0 0-.112.25.537.537 0 0 0 .001.273c.025.074.068.118.13.13.06.014.118-.01.17-.067M117.065 155.004l-.04-.004-.04-.003.08-.901.099.008.237.76.065-.734.04.004.038.003-.08.903-.044-.004-.045-.004-.246-.764zM117.878 155.062c-.084.003-.155-.039-.21-.125a.689.689 0 0 1-.088-.342.66.66 0 0 1 .07-.349c.05-.09.119-.135.204-.138a.216.216 0 0 1 .174.078c.05.053.078.125.09.21l-.079.003a.24.24 0 0 0-.063-.137.159.159 0 0 0-.123-.044c-.06 0-.106.035-.14.106a.56.56 0 0 0-.047.27.568.568 0 0 0 .06.271c.037.064.088.094.153.093.062-.001.112-.038.149-.107l.015-.034.014-.068.004-.082v-.011l-.19.006-.003-.104.266-.008.013.48h-.05l-.024-.112-.004.008c-.047.088-.112.135-.191.136M118.171 154.118l.04-.006.207-.03c.076-.011.143.02.2.095.056.073.095.18.115.315.021.137.014.25-.02.337-.035.088-.091.138-.17.149l-.198.03-.041.006zm.199.78.148-.022c.058-.008.098-.045.122-.109a.565.565 0 0 0 .01-.262.597.597 0 0 0-.083-.248c-.04-.055-.087-.078-.144-.07l-.155.023zM118.944 154.799a.67.67 0 0 1-.17-.313.652.652 0 0 1-.01-.354c.029-.1.087-.16.17-.183.086-.024.167 0 .243.071.075.07.131.174.168.312a.641.641 0 0 1 .013.354c-.03.1-.087.16-.173.183-.085.024-.165 0-.24-.07m.333-.172a.537.537 0 0 0-.014-.273.537.537 0 0 0-.125-.243c-.057-.056-.115-.074-.175-.058-.061.016-.101.062-.12.138a.528.528 0 0 0 .013.274c.03.105.07.186.126.242.055.055.113.074.174.057.062-.016.101-.062.12-.137M119.653 154.695l-.038.016-.035.015-.34-.84.045-.017.047-.02.556.568-.275-.682.037-.014.036-.015.34.84-.043.016-.041.018-.566-.568zM120.404 154.377c-.075.04-.155.035-.243-.016a.68.68 0 0 1-.234-.265.68.68 0 0 1-.098-.342c.004-.103.044-.175.12-.216a.224.224 0 0 1 .19-.01.37.37 0 0 1 .175.147l-.069.038a.248.248 0 0 0-.118-.094.164.164 0 0 0-.131.016c-.051.03-.077.082-.076.159a.565.565 0 0 0 .081.262.583.583 0 0 0 .18.215c.061.038.12.042.177.012.054-.03.081-.085.083-.163l-.001-.038-.018-.066-.035-.076-.004-.008-.166.09-.05-.09.232-.128.231.42-.045.025-.072-.091v.01c-.001.1-.037.17-.109.21M121.11 153.466c.068.09.105.171.11.247a.199.199 0 0 1-.08.182.204.204 0 0 1-.196.037.486.486 0 0 1-.211-.174l-.35-.453.032-.026.033-.024.344.446a.37.37 0 0 0 .149.128.128.128 0 0 0 .132-.021.128.128 0 0 0 .053-.123.37.37 0 0 0-.087-.176l-.345-.447.033-.023.032-.026zM121.481 153.578l-.029.027-.027.028-.629-.65.035-.035.036-.034.729.318-.51-.53.027-.027.03-.027.628.651-.032.03-.033.031-.737-.314zM121.19 152.588l.027-.031.027-.03.675.603-.055.06zM121.268 152.511l.027-.035.03-.036.716.339v-.001l-.505-.614.03-.034.027-.036.579.73-.056.07zM122.365 152.564l-.767-.484.237-.375.046.029.047.029-.193.306.233.147.176-.278.046.029.045.027-.175.28.256.161.196-.308.091.058zM121.856 151.668l.02-.037.107-.217c.027-.056.069-.092.121-.103a.287.287 0 0 1 .186.037c.07.035.119.079.143.13l.014.038.014-.008c.046-.019.102-.012.17.02l.148.071.056.02.038-.008.018.008-.045.09-.056-.019a2.499 2.499 0 0 1-.095-.042l-.064-.03c-.051-.024-.091-.034-.12-.028-.03.004-.053.025-.07.06l-.087.174.35.174-.018.036-.02.037zm.404.107.09-.18c.016-.035.017-.065.003-.092a.211.211 0 0 0-.093-.076c-.047-.024-.086-.032-.116-.026-.029.007-.054.027-.072.063l-.087.176zM122.461 150.946a.22.22 0 0 0-.14-.004.13.13 0 0 0-.08.083c-.017.044-.017.08 0 .113a.162.162 0 0 0 .096.074l.081.006a.245.245 0 0 0 .083-.072l.072-.085a.232.232 0 0 1 .127-.083c.044-.01.1 0 .168.025.077.029.13.07.16.127.03.056.033.117.008.184a.225.225 0 0 1-.144.144.348.348 0 0 1-.233-.017l-.005-.003.027-.071a.235.235 0 0 0 .16.01.158.158 0 0 0 .093-.102c.018-.047.02-.087.004-.12-.015-.033-.045-.06-.092-.078-.042-.015-.075-.017-.1-.01-.026.008-.056.035-.09.076l-.073.086a.218.218 0 0 1-.113.08.237.237 0 0 1-.144-.018.328.328 0 0 1-.172-.127.194.194 0 0 1-.015-.177.196.196 0 0 1 .13-.125.332.332 0 0 1 .218.014zM122.268 150.68l-.01.038.866.26.01-.038.013-.04-.867-.26zM122.446 150.44l-.047.201-.052-.013-.053-.011.112-.48.052.012.054.013-.048.198.776.182-.01.04-.008.04zm0 0" style="fill:#211e1e;fill-opacity:1;fill-rule:nonzero;stroke:none;stroke-width:.352778" transform="translate(-1712.855 -2199.97) scale(15.33935)"/><path d="m122.967 150.034-.57.151.008-.047.007-.048.459-.113-.412-.231.007-.049.007-.047.508.302.357.048-.007.042-.006.041zm0 0" style="fill:#211e1e;fill-opacity:1;fill-rule:nonzero;stroke:none;stroke-width:.352778" transform="translate(-1712.855 -2199.97) scale(15.33935)"/><path d="M115.091 146.564v5.112l.037.214.167.158 2.357 1.336 2.273-1.224.26-.241.066-.251v-5.095zm0 0" style="fill:#fff;fill-opacity:1;fill-rule:nonzero;stroke:none;stroke-width:.352778" transform="translate(-1712.855 -2199.97) scale(15.33935)"/><path d="M122.994 148.882a.21.21 0 0 1-.208.212.21.21 0 0 1-.208-.212.21.21 0 0 1 .208-.213.21.21 0 0 1 .208.213M112.845 148.882a.21.21 0 0 1-.208.212.21.21 0 0 1-.208-.212.21.21 0 0 1 .208-.213.21.21 0 0 1 .208.213M112.663 147.69c-.034-.036-.048-.057-.043-.064.005-.007.027.01.064.044l.321.295c.05.041.085.06.106.048.022-.01.054-.006.098.011.043.017.06.04.05.072-.012.03-.038.037-.08.022a2.007 2.007 0 0 1-.104-.055c-.036-.02-.07-.01-.105.029l-.038.026.014-.045.003-.061-.055-.076zm.868-.46.022.025-.318.757-.03-.012.149-.352-.683-.288-.106.252-.03-.012.215-.507-.035-.05-.01-.02.024-.017.072-.033.024.02-.128.305.682.288.098-.23-.033-.045-.01-.025.021-.017zm-.843.582.033.039-.047.033-.056.008-.06.02-.04.004.028-.041.062-.054.073-.012zm-.194-.178.035.042c.005.022-.01.033-.042.033l-.06.006-.066.018h-.04l.034-.042.067-.048.069-.01zM114.42 145.968l-.014-.085-.027-.084-.126.125.01.004.075.026zm.372-.16-.038.08-.001.067a7.077 7.077 0 0 0-.122.04.46.46 0 0 1-.15.03.76.76 0 0 1-.149.384c-.042.051-.062.07-.06.058l.03-.062a.902.902 0 0 0 .09-.212.57.57 0 0 0 .027-.174l-.076-.023a.993.993 0 0 1-.106-.05c.005.035.011.086.014.153a.67.67 0 0 1-.023.211c-.008.039-.017.06-.025.063-.008.006-.008-.016 0-.064a.79.79 0 0 0-.001-.19.799.799 0 0 0-.063-.253l-.024-.042.035-.021c.058-.02.081-.022.067-.004l-.007.06.008.027.007.022.135-.135-.004-.047.077-.015c.043-.008.057-.004.043.012l-.018.06a1.053 1.053 0 0 1 .023.181.403.403 0 0 0 .152-.047.438.438 0 0 0 .153-.114zm-.49-.462.008.02-.18.183.078.079.034.018.058-.046.036-.048-.006-.045-.029-.047-.028-.046.047.03.03.028.03.004.028.011.007.047c0 .025-.024.058-.067.103a.34.34 0 0 1-.1.076l-.07-.03-.092-.092-.098.097c.02.03.035.075.047.135a.316.316 0 0 1-.016.186c-.01.04-.018.056-.024.047v-.055a.44.44 0 0 0-.004-.117.313.313 0 0 0-.055-.143l-.167.167-.024-.021.238-.239-.084-.084-.164.163-.025-.02.167-.166-.058-.057-.037-.034.037-.032c.048-.026.067-.032.058-.01l.014.05.033.035.11-.11-.01-.04v-.024l.03-.004.06-.001.012.02-.18.181.085.087.176-.178-.007-.05.003-.017.026-.006zm-.667.336.033.02-.008.045.041.107c.02.06.04.112.058.156a.488.488 0 0 1 .145.01.26.26 0 0 1 .136.082l.043.07a.128.128 0 0 1-.001.093l-.022.026-.035-.014-.026-.004-.036.01h-.037l.035-.033c.036-.022.052-.043.05-.062l-.025-.05a.354.354 0 0 0-.11-.07.338.338 0 0 0-.137-.033 1.923 1.923 0 0 0-.155-.277l-.11.109.645.646.041.035-.01.044-.027.018-.025-.032-.67-.671-.047-.04c-.012-.004 0-.011.036-.017l.05-.02.088-.088v-.053zM116.187 144.884a.591.591 0 0 1 .118-.004c.04.004.073.016.1.037l.013.06-.059.003a.595.595 0 0 0-.18-.069l-.025-.01zm.014-.079-.046-.104-.223.097.045.105zm-.058-.133-.043-.098-.223.098.042.096zm-.066.28c.045.01.059.02.04.03l-.036.026a1.194 1.194 0 0 1-.175.205l-.032.014.02-.04c.023-.03.045-.066.068-.105a.691.691 0 0 0 .058-.114l.003-.02.025-.002zm.01-.406-.04-.093-.223.097.04.091zm.046-.326-.006.03-.196.087-.031.144.124-.052.005-.047.064.011c.04.007.053.017.04.03l-.013.034.149.343.013.027-.027.032-.032.007-.012-.03-.222.096.007.017-.026.025-.028.007-.012-.036-.164-.38-.022-.036.033-.014h.044l.036-.014.003-.064-.01-.066-.197.086-.013-.028.391-.17.001-.044.006-.019.027.001zm-.471.459-.003.026-.226.099-.013-.028.145-.063.003-.037.008-.018h.029zm.063.114.029.025-.007.031.069.159v.048l-.032.055-.029-.01-.032-.02h-.05l-.038-.006.03-.021.068-.025.014-.007.003-.016-.065-.15-.143.06.144.335.007.014-.024.027-.032.008-.011-.03-.144-.328-.106.045-.012-.027.298-.128.01-.05zm-.282-.278c.058-.003.104-.006.14-.003.035 0 .066.01.09.028l.018.065c-.007.024-.028.028-.062.01a.71.71 0 0 0-.076-.037.422.422 0 0 0-.12-.032c-.008.058-.02.126-.039.199a.714.714 0 0 1-.075.201l-.035.037.008-.048c.015-.04.03-.106.048-.198a.761.761 0 0 0 .013-.23l-.005-.03.037-.01.028.004c.034.004.048.01.038.022zm.496-.324.01.02-.025.028-.034.008-.01-.02-.004-.01-.526.228.01.02-.02.026-.035.007-.013-.028-.056-.132-.015-.024.026-.019h.039c.034-.003.046.004.035.02l-.012.03.029.07.23-.1-.048-.112-.024-.03.03-.021.038-.004c.036-.004.047.003.036.018l-.014.034.038.09.24-.102-.038-.091-.018-.027.027-.018.042-.003.034.02-.01.031zM117.95 144.273l-.01-.118-.216.015.008.119zm-.01-.147-.008-.12-.217.015.007.12zm-.27.168-.008-.118-.217.015.008.118zm-.011-.149-.008-.12-.217.017.01.12zm.1.174a.617.617 0 0 0 .234.207.6.6 0 0 0 .291.09l-.078.038-.04.056a.943.943 0 0 1-.215-.128.711.711 0 0 1-.212-.234l.026.362.01.054-.036.029-.034-.012-.006-.072-.022-.306a1.245 1.245 0 0 1-.389.34c-.036.016-.056.021-.057.014l.036-.033c.06-.04.13-.096.204-.172a.809.809 0 0 0 .164-.223l-.18.012.008.055-.035.028-.036-.016-.001-.07-.022-.296-.01-.053c-.007-.018.006-.018.04 0l.044.02.204-.016-.008-.124-.455.034-.003-.034.455-.033-.006-.07-.017-.056c-.01-.016.008-.017.053-.01.042.01.059.019.048.027l-.018.047.003.058.325-.024.03-.05.018-.016.021.007.072.05-.011.03-.452.036.01.124.196-.014.037-.042.056.035.018.038-.022.027.018.251.008.04-.037.032-.035-.008v-.043zM120.02 145.379l-.071-.008-.065.01a.848.848 0 0 1-.134-.343c-.02-.125-.019-.254.001-.387a.931.931 0 0 1-.28.31c-.101.068-.24.094-.421.084-.035-.006-.051-.012-.048-.018l.052-.008a.916.916 0 0 0 .325-.077c.118-.05.224-.16.32-.333l-.417-.186.01-.03.42.187c.015-.022.034-.062.06-.123.028-.06.051-.122.072-.189l.02-.052.049.028c.06.052.075.075.044.069l-.058.027a2.066 2.066 0 0 1-.124.267l.322.144.06-.043.022-.01.016.028.04.093-.02.018-.432-.191a.872.872 0 0 0 .01.351.645.645 0 0 0 .229.375zM121.82 145.59c.005.048.003.067-.008.057l-.025-.01h-.033l-.038.001-.005.064-.037.025-.014-.035.01-.052a.61.61 0 0 1-.169-.026l-.015-.006.008.001.081.006h.1a.292.292 0 0 0-.007-.105l.012.004.016.041.017.047.043-.007.045-.013.013-.007zm-.303.224c.005.041.004.072-.006.09l-.05.033-.022-.033a.253.253 0 0 0 .024-.09l-.082-.011-.07-.016-.033-.014.035-.007c.015.003.04.004.074.006a.43.43 0 0 0 .079-.003l-.001-.048-.001-.036.004-.033.019.03.015.045.012.039.051-.008.04-.014.016-.008.012.02c.01.06.008.086-.007.075l-.03-.016h-.036zm.178.506-.035.034-.034-.027-.006-.021-.018-.01-.074-.025-.036-.016.036-.007.086-.01-.556-.65-.067.03-.066-.006-.013-.039.04-.03.061-.008.078-.034.038-.024c.013-.005.007.01-.016.046l-.016.02-.017.021.048.057.34-.293.015-.015.013.014.01.036.056.007.048.003.016-.004.01.02c.008.07.004.097-.012.08l-.033-.031-.085-.053-.008.007-.013.001-.067.058.032.037h.033l.013.003.007.018-.004.06-.013.008-.091-.105-.093.077.039.046h.03l.017.003.004.022-.003.052-.014.01-.095-.111-.113.096.4.467.108-.092-.095-.112.025-.019.094.109.098-.083-.094-.11.023-.02.095.11.094-.08-.098-.116.024-.02.09.107.054-.006.007.08-.02.016h-.035l-.33.283.038.044h.056zm-.243.154-.018.01-.296-.344-.123.104-.05.027-.053-.013-.018-.025.01-.019c.004-.02-.004-.054-.023-.103-.02-.049-.013-.05.02-.004.035.05.056.077.064.084l.025-.003.11-.094-.277-.322.023-.022.277.323.064-.055.016-.013c.006-.007.017.019.036.075l.058.014.054.005-.276-.322.025-.021.286.336.057.003v.077l-.025.013-.034-.026c-.021-.006-.049-.014-.083-.028a.47.47 0 0 1-.079-.033l-.013-.007-.01-.004-.036.032.207.242.06-.006.025.003.005.028zM122.898 147.995l-.022.007-.222-.576.029-.01.083.214.164-.063.02-.018.017.024c.012.075.01.106-.007.09l-.036-.023-.135.052.07.182.057.01.018.006-.003.028zm-.148-.152a.48.48 0 0 1-.02.148c-.014.039-.036.06-.065.06l-.03-.018.008-.04.038-.068.036-.087.003-.004.022-.053c.007-.011.01.01.008.062m-.084-.22-.02.02-.027-.02-.094-.05c-.034-.021-.062-.036-.08-.05l-.027-.027.033.006c.017.008.048.019.098.033.048.013.09.016.122.008zm-.484.69-.05-.046-.059-.018a.966.966 0 0 1 .08-.37.684.684 0 0 1-.179-.108.682.682 0 0 1-.114-.113c-.025-.033-.036-.052-.033-.058l.047.044c.031.033.08.072.143.112a.558.558 0 0 0 .164.078.705.705 0 0 1 .223-.182l-.065-.012-.059-.012-.034.004-.003-.033.033-.058.08.069.077.02.037-.01.026.019-.015.024-.028.003a.3.3 0 0 0-.128.079.379.379 0 0 0-.09.103.624.624 0 0 0 .138.014c.064.001.123 0 .18-.007h.008l.019-.009.007.035c-.011.08-.023.107-.039.086l-.026-.033a1.232 1.232 0 0 1-.313-.034.51.51 0 0 0-.042.19.752.752 0 0 0 .022.22zm.408-.882-.062-.159-.11.042c-.005.05-.012.092-.02.128-.006.036-.028.056-.067.06l-.033-.02.011-.044.048-.057.032-.056-.543.21-.044.017-.039-.026-.005-.033.036-.01.487-.186-.107-.011a.993.993 0 0 1-.118-.024l-.06-.022c-.013-.006.007-.007.061-.004a1.333 1.333 0 0 0 .442-.04l-.057-.152.03-.012.064.165.22-.084.026-.015.017.022c.008.072.004.1-.011.086l-.039-.02-.19.073.018.044.05.01.016.008v.03l-.03.07zm0 0" style="fill:#211e1e;fill-opacity:1;fill-rule:nonzero;stroke:none;stroke-width:.352778" transform="translate(-1712.855 -2199.97) scale(15.33935)"/><path d="M123.41 147.605a5.978 5.978 0 0 0-.858-1.685 5.635 5.635 0 0 0-1.359-1.36 5.813 5.813 0 0 0-1.686-.856 6.02 6.02 0 0 0-3.656 0 6.391 6.391 0 0 0-1.7.844 5.824 5.824 0 0 0-1.344 1.372 5.79 5.79 0 0 0-.858 1.685 6.024 6.024 0 0 0 0 3.656c.196.612.484 1.179.856 1.686.385.54.855 1.01 1.36 1.358a5.775 5.775 0 0 0 1.686.858 6.023 6.023 0 0 0 3.657 0 5.996 5.996 0 0 0 1.685-.858 6.135 6.135 0 0 0 1.359-1.358c.361-.49.657-1.072.857-1.686a6.023 6.023 0 0 0 0-3.656m-.572 4.478a5.86 5.86 0 0 1-1.41 1.77c-.599.505-1.266.874-1.984 1.1a5.608 5.608 0 0 1-2.254.255 5.578 5.578 0 0 1-2.158-.617 5.845 5.845 0 0 1-1.785-1.409 6.252 6.252 0 0 1-1.1-1.984 6.009 6.009 0 0 1-.255-2.24 5.906 5.906 0 0 1 .63-2.186 6.06 6.06 0 0 1 1.41-1.772c.57-.49 1.255-.87 1.984-1.1a5.97 5.97 0 0 1 2.24-.254c.759.068 1.511.286 2.173.63a5.819 5.819 0 0 1 1.77 1.408c.49.57.87 1.256 1.1 1.986a5.76 5.76 0 0 1 .269 2.24 5.933 5.933 0 0 1-.63 2.173" style="fill:#211e1e;fill-opacity:1;fill-rule:nonzero;stroke:none;stroke-width:.352778" transform="translate(-1712.855 -2199.97) scale(15.33935)"/><path d="M117.659 146.779h.406v.607h-.095v-.498h-.176v.498h-.094v-.498h-.176v.498h-.094v-.498h-.163v.498h-.093v-.607h.39v-.12h.095zM117.083 148.181c-.175.054-.35.148-.51.255a1.833 1.833 0 0 0-.403.404 1.754 1.754 0 0 0-.256 1.596c.054.189.149.362.256.511.106.159.254.294.403.415.32.227.683.335 1.06.335v-.08c-.27 0-.55-.066-.78-.187a1.588 1.588 0 0 1-.535-.418 1.986 1.986 0 0 1-.336-.59 1.71 1.71 0 0 1 .12-1.314c.094-.202.242-.377.417-.524a1.7 1.7 0 0 1 .59-.335c.173-.054.348-.08.523-.08v-.081c-.188 0-.362.027-.55.094m.55 3.515c.188 0 .375-.026.564-.08.174-.054.349-.147.496-.255.161-.107.295-.256.416-.402.335-.496.43-1.061.255-1.611a1.7 1.7 0 0 0-.671-.912 1.736 1.736 0 0 0-1.06-.35v.082c.282 0 .55.066.805.186.201.11.376.257.524.432.147.173.255.376.32.59a1.71 1.71 0 0 1-.105 1.313 1.58 1.58 0 0 1-.416.525 2.01 2.01 0 0 1-.592.336c-.175.052-.362.08-.536.066zm0 0" style="fill:#211e1e;fill-opacity:1;fill-rule:nonzero;stroke:none;stroke-width:.352778" transform="translate(-1712.855 -2199.97) scale(15.33935)"/><path d="M117.671 151.737h-.079a1.835 1.835 0 0 1-1.043-.343 2.064 2.064 0 0 1-.413-.426 1.72 1.72 0 0 1-.26-.521 1.795 1.795 0 0 1 .261-1.63c.11-.152.26-.302.412-.412.185-.124.36-.211.521-.26.171-.061.338-.092.522-.096h.079c.389.007.74.127 1.045.356.155.104.294.24.424.412.102.151.203.32.26.52.175.553.083 1.138-.259 1.645-.117.14-.256.299-.427.413a1.77 1.77 0 0 1-.507.26c-.18.05-.36.079-.536.082zm-1.185-.499c.037.032.074.065.111.094.295.208.63.32.995.326v-.003a1.75 1.75 0 0 1-.757-.193 1.545 1.545 0 0 1-.35-.224m1.186.341c.153.006.321-.016.486-.067.228-.085.417-.193.576-.328.185-.156.322-.328.407-.51.207-.4.244-.868.105-1.286a1.655 1.655 0 0 0-.314-.577 1.755 1.755 0 0 0-.512-.42 1.767 1.767 0 0 0-1.3-.105 1.675 1.675 0 0 0-.575.33 1.51 1.51 0 0 0-.407.508 1.675 1.675 0 0 0-.118 1.287c.085.227.193.417.328.576.146.174.332.317.523.406.21.11.47.178.722.184v-.003zm1.18-2.966a1.705 1.705 0 0 1 .467.751 1.74 1.74 0 0 1-.108 1.345l-.006.01c.225-.434.266-.898.122-1.358a1.746 1.746 0 0 0-.251-.499 1.641 1.641 0 0 0-.224-.25m-2.707.335a1.74 1.74 0 0 0-.279.869c.013-.258.08-.508.201-.728.022-.047.05-.095.078-.14m.529-.531-.079.052c-.144.105-.29.248-.394.394l-.03.046c.083-.126.191-.244.322-.354.06-.05.12-.097.18-.138m.999-.288a1.85 1.85 0 0 1 0-.001zm-.079-.001a1.733 1.733 0 0 0 0 .001zM115.714 147.185v.041a.418.418 0 0 0-.149.027c-.067.04-.053.081 0 .109a.415.415 0 0 0 .15.012v.054c-.108-.013-.23-.013-.243-.122 0-.04.013-.067.053-.095a.556.556 0 0 1 .19-.026m0-.391v.16c-.042.096-.136.164-.285.204l-.04-.04c.04-.014.082-.014.122-.04a.303.303 0 0 0 .188-.23h-.27v-.054zm0 .16v-.16h.053a.675.675 0 0 1-.054.16m0 .474v-.054h.014c.054 0 .107 0 .149-.012.067-.042.04-.082 0-.11a.363.363 0 0 0-.15-.026h-.013v-.04h.014c.095 0 .229 0 .242.12a.12.12 0 0 1-.053.096.615.615 0 0 1-.189.026zm.203-.674v.404h.053v-.122h.095v-.04h-.095v-.202l.014-.028zM116.47 147.185v.04c-.04 0-.067.014-.094.014-.082 0-.148.081-.054.107a.337.337 0 0 0 .149.028v.04c-.095 0-.243 0-.257-.107 0-.04.014-.068.068-.096a.615.615 0 0 1 .189-.026m0-.041h-.338v-.054h.338zm0-.269h-.257v.161h.257v-.04h-.203v-.08h.203zm-.257-.067h.257v-.042h-.257zm.257.282h.337v.054h-.337zm0 .324v-.04c.04 0 .067 0 .095-.012.08 0 .147-.082.067-.11a.502.502 0 0 0-.162-.027v-.04c.095 0 .242 0 .256.122 0 .027-.014.055-.068.08a.55.55 0 0 1-.188.027m0-.378h.27v-.04h-.27zm0-.228h.202v.067h-.202v.04h.256v-.149h-.256zM118.645 146.794v.054c-.041 0-.067 0-.095.027-.055.08-.04.175.095.189v.04c-.055 0-.095 0-.135-.04-.069-.081-.054-.163 0-.216.04-.04.08-.054.135-.054m0 .552c-.067-.026-.055-.066 0-.093v-.068l-.041.026c-.081.056-.081.11 0 .163l.041.014zm.134-.485v.175l-.012.028c-.028.026-.068.04-.122.04v-.04l.08-.028c.068-.08.054-.175-.08-.188v-.054c.04 0 .08.014.122.054zm0 .513a.302.302 0 0 1-.134-.028v.042c.04.026.08.026.134.026zm0-.149v-.054c-.068 0-.108 0-.134.014v.068c.04-.028.094-.042.134-.028m.19-.472v.108h-.123v.04h.123v.11h-.123v.04h.123v.12h.054v-.377l.014-.028zm-.19.283v-.175c.054.054.054.134 0 .175m0 .19c.067 0 .123 0 .149.027.081.027.014.109-.054.109a.218.218 0 0 1-.095.012v.04c.095 0 .149-.012.19-.04.068-.04.08-.107 0-.163-.055-.026-.109-.026-.19-.04zM119.51 147.171v.054h-.082c-.081.014-.163.095-.068.121a.353.353 0 0 0 .15.028v.041c-.082 0-.137 0-.19-.027-.108-.068-.067-.135 0-.177a.372.372 0 0 1 .19-.04m-.245-.405v.217h.217v.095h-.31v.04h.337v-.177h-.202v-.12h.202v-.055zm.244.65v-.042h.013l.081-.014c.081 0 .163-.08.068-.107-.027-.028-.08-.028-.15-.028h-.012v-.053h.013c.095.013.244.013.256.122 0 .04-.012.066-.066.094a.625.625 0 0 1-.19.027zm0-.595h.257v-.055h-.257zm0 .297h.35v-.04h-.324v-.095h.243v-.042h-.269zM116.55 151.763c-.026.054-.093.068-.147.041l-.014.04.108.04-.108.298.042.014.16-.42zM117.24 152.303v.054l-.054.014c-.068-.014-.108-.082-.094-.135l.054.013c-.014.028 0 .068.054.068zm-.013-.135c-.067-.014-.081-.081-.027-.189l.04-.027v-.054a.212.212 0 0 0-.094.095c-.028.026-.068.203.067.229h.027v-.054zm.013-.216c.027 0 .041 0 .081.041.014.04.014.094-.026.161l-.055.014v.054l.067-.041c0 .055-.026.082-.04.108l-.027.014v.054c.095-.028.109-.121.136-.203a.308.308 0 0 0-.014-.16c-.027-.056-.067-.096-.122-.096zM117.996 151.912c-.107.026-.121.161-.094.256a.419.419 0 0 0 .054.161l.08.028v-.04c-.026-.014-.066-.04-.066-.095-.014-.041.012-.108.054-.108h.012v-.067c-.026.012-.066.026-.094.081 0-.069-.013-.095.028-.149l.066-.027v-.054zm.04.04.055.054.04-.013c-.012-.067-.053-.081-.095-.095zm0 .405.041.014c.082-.014.108-.121.094-.19-.026-.094-.08-.134-.135-.134v.067c.095.014.095.108.055.19l-.055.013zM118.739 151.75c-.068.025-.095.094-.081.162l.053-.028c-.04-.081.095-.135.123-.04.026.028-.014.095-.055.108l.014.041c.095-.067.202.108.095.148-.054.013-.095-.013-.11-.054l-.053.027c.042.094.11.082.177.068.107-.041.12-.149 0-.243h-.042c.028-.027.042-.082.028-.122-.028-.068-.095-.082-.149-.068" style="fill:#211e1e;fill-opacity:1;fill-rule:nonzero;stroke:none;stroke-width:.352778" transform="translate(-1712.855 -2199.97) scale(15.33935)"/><path d="M115.025 146.482v5.2c0 .23.149.405.473.621.149.082.325.175.459.243.149.067.244.109.514.256.282.15.729.393 1.188.65v-.124.014c-.378-.216-.77-.431-1-.552-.228-.123-.323-.163-.486-.244-.161-.082-.404-.203-.566-.297a1.574 1.574 0 0 1-.326-.243c-.107-.108-.16-.203-.16-.324v-3.997h2.538v-.095h-2.539v-1.013h2.539v-.095zm2.634 6.97.013.012c.392-.23.797-.458 1.04-.58.243-.134.325-.176.5-.257.16-.081.419-.203.58-.31.176-.095.27-.176.339-.258.133-.133.175-.256.175-.377v-5.2h-2.647v.095h2.552v1.013h-2.552v.095h2.552v3.997c0 .107-.04.202-.162.324a1.535 1.535 0 0 1-.297.23 4.66 4.66 0 0 1-.445.228c-.135.07-.23.123-.5.257-.27.15-.716.379-1.148.608zm0 0" style="fill:#fff;fill-opacity:1;fill-rule:nonzero;stroke:none;stroke-width:.352778" transform="translate(-1712.855 -2199.97) scale(15.33935)"/><path d="M115.597 152.27c.16.094.401.215.566.298l.142.069c.095.048.188.09.342.173.208.11.597.323.995.552l.017.008.016-.008c.267-.15.535-.293.772-.42.142-.077.27-.144.37-.2.159-.078.257-.13.338-.171.057-.03.105-.057.159-.083.12-.055.297-.14.447-.23.116-.07.218-.15.304-.235.12-.122.17-.223.17-.347v-4.018h-5.138v4.018c0 .124.048.225.17.347.056.056.15.142.33.247m-.433-4.545h5.004v3.951c0 .105-.044.19-.152.3-.081.08-.179.156-.29.222a4.712 4.712 0 0 1-.441.228l-.162.084c-.08.041-.177.094-.337.172-.102.057-.229.124-.372.201-.23.123-.492.262-.756.41a39.287 39.287 0 0 0-.98-.543c-.155-.083-.251-.13-.344-.175-.044-.021-.088-.042-.146-.072a9.85 9.85 0 0 1-.557-.292 1.435 1.435 0 0 1-.315-.236c-.108-.107-.152-.194-.152-.299zm0 0" style="fill:#211e1e;fill-opacity:1;fill-rule:nonzero;stroke:none;stroke-width:.352778" transform="translate(-1712.855 -2199.97) scale(15.33935)"/><path d="M115.002 146.459v5.216c0 .233.136.416.488.65.128.07.314.17.46.243l.027.012c.134.06.23.105.483.244.282.148.747.407 1.196.659l.016.01.017-.011c.324-.189.766-.443 1.036-.578.244-.136.325-.176.496-.255l.073-.037c.156-.077.368-.18.506-.273a1.13 1.13 0 0 0 .345-.261.55.55 0 0 0 .184-.403v-5.216Zm5.26 5.216c0 .13-.051.24-.167.357a1.07 1.07 0 0 1-.33.25c-.137.09-.347.193-.501.268l-.073.038a6.03 6.03 0 0 0-.499.255c-.264.133-.697.38-1.02.57-.445-.247-.9-.502-1.18-.65-.254-.139-.352-.183-.487-.245l-.026-.01c-.144-.073-.33-.174-.454-.24-.328-.22-.456-.385-.456-.593v-5.148h5.193zm0 0" style="fill:#211e1e;fill-opacity:1;fill-rule:nonzero;stroke:none;stroke-width:.352778" transform="translate(-1712.855 -2199.97) scale(15.33935)"/><path d="M120.236 146.553h-5.14v1.077h5.14zm-.068 1.01h-5.004v-.941h5.004zm0 0" style="fill:#211e1e;fill-opacity:1;fill-rule:nonzero;stroke:none;stroke-width:.352778" transform="translate(-1712.855 -2199.97) scale(15.33935)"/><path d="M115.025 146.482v5.2c0 .23.149.405.473.621.149.082.325.175.459.243.149.067.244.109.514.256.282.15.729.393 1.188.65v-.124.014c-.378-.216-.77-.431-1-.552-.228-.123-.323-.163-.486-.244-.161-.082-.404-.203-.566-.297a1.574 1.574 0 0 1-.326-.243c-.107-.108-.16-.203-.16-.324v-3.997h2.538v-.095h-2.539v-1.013h2.539v-.095zm2.634 6.97.013.012c.392-.23.797-.458 1.04-.58.243-.134.325-.176.5-.257.16-.081.419-.203.58-.31.176-.095.27-.176.339-.258.133-.133.175-.256.175-.377v-5.2h-2.647v.095h2.552v1.013h-2.552v.095h2.552v3.997c0 .107-.04.202-.162.324a1.535 1.535 0 0 1-.297.23 4.66 4.66 0 0 1-.445.228c-.135.07-.23.123-.5.257-.27.15-.716.379-1.148.608zm0 0" style="fill:#211e1e;fill-opacity:1;fill-rule:nonzero;stroke:none;stroke-width:.352778" transform="translate(-1712.855 -2199.97) scale(15.33935)"/><path d="M120.21 147.685v3.997c0 .109-.04.202-.16.324a1.535 1.535 0 0 1-.298.23 4.66 4.66 0 0 1-.445.228c-.135.07-.23.123-.5.257-.27.15-.716.379-1.148.621a38.39 38.39 0 0 0-1-.552c-.228-.123-.323-.163-.486-.244a11.72 11.72 0 0 1-.566-.297 1.483 1.483 0 0 1-.324-.243c-.109-.108-.163-.203-.163-.324v-3.997zm-5.09-1.108h5.09v1.013h-5.09zm-.095-.095v5.2c0 .23.149.405.473.621.149.081.325.175.459.243.15.067.244.109.514.257.284.15.742.406 1.201.66.392-.228.797-.457 1.04-.578.243-.137.325-.177.5-.258.162-.081.419-.203.58-.31.176-.095.27-.176.337-.258.137-.133.177-.256.177-.377v-5.2zm0 0" style="fill:#211e1e;fill-opacity:1;fill-rule:nonzero;stroke:none;stroke-width:.352778" transform="translate(-1712.855 -2199.97) scale(15.33935)"/><path d="M114.987 146.444v5.238c0 .235.136.419.493.656.128.07.314.17.462.245l.023.01c.135.06.233.105.488.245.275.144.727.397 1.166.641l.053.03.02-.01c.325-.19.769-.446 1.039-.58.24-.134.322-.174.498-.257l.075-.036c.156-.077.37-.182.507-.274a1.11 1.11 0 0 0 .347-.265.549.549 0 0 0 .188-.405v-5.238zm5.279 5.238c0 .128-.05.237-.167.352-.074.09-.175.167-.33.25-.136.09-.347.196-.5.27l-.074.037c-.178.083-.26.124-.5.258-.266.132-.699.38-1.023.57l-.015-.009a55.688 55.688 0 0 0-1.168-.642c-.257-.14-.355-.185-.491-.247l-.023-.01a25.11 25.11 0 0 1-.455-.24c-.328-.219-.455-.383-.455-.59v-5.159h5.2zm0 0" style="fill:#211e1e;fill-opacity:1;fill-rule:nonzero;stroke:none;stroke-width:.352778" transform="translate(-1712.855 -2199.97) scale(15.33935)"/><path d="M120.25 146.537h-5.168v1.092h5.169zm-.078 1.013h-5.012v-.934h5.012zM115.586 152.283c.161.095.404.215.57.299.052.024.097.046.142.07.097.045.188.09.344.172.206.11.595.324.997.554l.02.01.019-.01c.27-.153.541-.298.78-.424.14-.075.266-.142.366-.197a14.517 14.517 0 0 0 .498-.257c.12-.053.296-.138.45-.231a1.58 1.58 0 0 0 .305-.235c.123-.124.174-.226.174-.352v-4.037h-5.17v4.037c0 .125.052.231.174.352.057.057.153.144.331.249m-.426-4.559h5.012v3.958c0 .103-.044.19-.151.296a1.498 1.498 0 0 1-.29.225c-.15.09-.324.173-.442.227a21.385 21.385 0 0 1-.5.258l-.368.197c-.233.124-.498.264-.762.413a40.368 40.368 0 0 0-.982-.544 11.654 11.654 0 0 0-.345-.174c-.045-.022-.089-.042-.148-.073-.158-.078-.4-.2-.558-.292-.17-.1-.262-.183-.316-.237-.107-.106-.15-.193-.15-.296zm0 0" style="fill:#211e1e;fill-opacity:1;fill-rule:nonzero;stroke:none;stroke-width:.352778" transform="translate(-1712.855 -2199.97) scale(15.33935)"/><path d="M117.672 145.078v.109a4.247 4.247 0 0 0-4.24 4.24c0 2.336 1.905 4.253 4.24 4.253v.095c-2.377 0-4.321-1.944-4.321-4.348 0-2.39 1.944-4.349 4.321-4.349m0 0c2.39 0 4.336 1.958 4.336 4.35a4.352 4.352 0 0 1-4.336 4.347v-.095c2.35-.014 4.254-1.917 4.254-4.253a4.25 4.25 0 0 0-4.254-4.24zm0 0" style="fill:#211e1e;fill-opacity:1;fill-rule:nonzero;stroke:none;stroke-width:.352778" transform="translate(-1712.855 -2199.97) scale(15.33935)"/><path d="M117.672 153.91c-2.457 0-4.455-2.012-4.455-4.483 0-2.472 1.998-4.483 4.455-4.483 2.464 0 4.47 2.011 4.47 4.483 0 2.471-2.006 4.483-4.47 4.483m0-8.544a4.066 4.066 0 0 0-4.06 4.061 4.072 4.072 0 0 0 4.06 4.074 4.078 4.078 0 0 0 4.074-4.074 4.072 4.072 0 0 0-4.074-4.06" style="fill:#211e1e;fill-opacity:1;fill-rule:nonzero;stroke:none;stroke-width:.352778" transform="translate(-1712.855 -2199.97) scale(15.33935)"/><path d="M116.483 152.803c-.269-.148-.364-.19-.513-.257a4.95 4.95 0 0 1-.458-.257c-.324-.216-.473-.39-.473-.607v-5.212h5.28v5.212c0 .121-.04.23-.176.379a1.714 1.714 0 0 1-.337.256c-.175.094-.418.229-.58.31-.177.08-.257.108-.5.244-.243.135-.649.35-1.054.566v.014a34.972 34.972 0 0 0-1.189-.648m1.19-7.616a4.247 4.247 0 0 0-4.24 4.24c0 2.336 1.904 4.253 4.24 4.253a4.262 4.262 0 0 0 4.253-4.253 4.25 4.25 0 0 0-4.254-4.24" style="fill:#14a151;fill-opacity:1;fill-rule:nonzero;stroke:none;stroke-width:.352778" transform="translate(-1712.855 -2199.97) scale(15.33935)"/><path d="m117.541 151.345-.075-.006c-.725-.05-1.292-.668-1.292-1.408 0-.313.102-.612.297-.865l.05-.066 1.02 1.026zm-1.006-2.126a1.272 1.272 0 0 0-.217.713c0 .639.468 1.176 1.08 1.258v-1.104zM117.73 151.345v-1.318l1.021-1.027.05.066c.194.254.296.553.296.866 0 .74-.566 1.358-1.291 1.408zm.144-1.259v1.104a1.273 1.273 0 0 0 .863-1.97zM117.631 149.856l-1.018-.998.053-.05c.262-.252.604-.39.964-.39s.704.138.966.393l.052.051zm-.812-.995.812.795.81-.792a1.244 1.244 0 0 0-1.622-.003" style="fill:#211e1e;fill-opacity:1;fill-rule:nonzero;stroke:none;stroke-width:.352778" transform="translate(-1712.855 -2199.97) scale(15.33935)"/></svg>