<svg xmlns="http://www.w3.org/2000/svg" width="170mm" height="170mm" viewBox="0 0 170 170"><defs><linearGradient id="b" x1="0" x2="1" y1="0" y2="0" gradientTransform="matrix(-.01578 -.00433 -.00433 .01578 410.774 410.767)" gradientUnits="userSpaceOnUse" spreadMethod="pad"><stop offset="0" style="stop-opacity:1;stop-color:#3ba3d2"/><stop offset="0.355835" style="stop-opacity:1;stop-color:#306fa4"/><stop offset="0.705521" style="stop-opacity:1;stop-color:#2b4e8c"/><stop offset="1" style="stop-opacity:1;stop-color:#20416b"/></linearGradient><linearGradient id="c" x1="0" x2="1" y1="0" y2="0" gradientTransform="scale(-20.24816 20.24816) rotate(-15.376 66.95 87.66)" gradientUnits="userSpaceOnUse" spreadMethod="pad"><stop offset="0" style="stop-opacity:1;stop-color:#3ba3d2"/><stop offset="0.355835" style="stop-opacity:1;stop-color:#306fa4"/><stop offset="0.705521" style="stop-opacity:1;stop-color:#2b4e8c"/><stop offset="1" style="stop-opacity:1;stop-color:#20416b"/></linearGradient><linearGradient id="d" x1="0" x2="1" y1="0" y2="0" gradientTransform="scale(-34.95672 34.95672) rotate(-77.176 1.422 13.745)" gradientUnits="userSpaceOnUse" spreadMethod="pad"><stop offset="0" style="stop-opacity:1;stop-color:#d1e39a"/><stop offset="0.355835" style="stop-opacity:1;stop-color:#a4cf57"/><stop offset="0.705521" style="stop-opacity:1;stop-color:#79ad36"/><stop offset="1" style="stop-opacity:1;stop-color:#4b892e"/></linearGradient><linearGradient id="e" x1="0" x2="1" y1="0" y2="0" gradientTransform="scale(-46.1322 46.1322) rotate(76.171 -10.15 -1.61)" gradientUnits="userSpaceOnUse" spreadMethod="pad"><stop offset="0" style="stop-opacity:1;stop-color:#d1e39a"/><stop offset="0.358978" style="stop-opacity:1;stop-color:#b1d355"/><stop offset="0.772583" style="stop-opacity:1;stop-color:#79ad36"/><stop offset="1" style="stop-opacity:1;stop-color:#458e34"/></linearGradient><radialGradient id="a" cx="0" cy="0" r="1" fx="-0.0128326" fy="0.0033416699" gradientTransform="matrix(62.1009 0 0 -62.1009 389.584 424.322)" gradientUnits="userSpaceOnUse" spreadMethod="pad"><stop offset="0" style="stop-opacity:1;stop-color:#34a3dc"/><stop offset="0.413254" style="stop-opacity:1;stop-color:#266fb7"/><stop offset="0.764801" style="stop-opacity:1;stop-color:#244ea2"/><stop offset="1" style="stop-opacity:1;stop-color:#01205f"/></radialGradient></defs><g transform="translate(-21.792 -70.981)"><circle cx="106.79246" cy="155.98114" r="85" style="fill:#f9f9f9;stroke:#fff;stroke-width:0"/><path d="M392.926 452.112c-8.925-7.78-10.8-15.567-10.8-22.388 0-9.969 9.276-18.659 22.023-19.454 1.525-.093 4.292.061 6.678.504-3.632.623-6.294 2.124-8.927 4.67-2.485 2.404-3.672 5.182-4.234 7.807-.708 3.294-.741 7.52 2.577 12.912 4.264 6.936 13.265 14.966 26.009 16.31 7.987.843 15.711-.642 22.98-5.067 0 0 .486-.414 1.161-.175.542.194.85.649.892 1.165.035.788-.559 1.221-.559 1.221-5.169 5.366-15.132 11.978-30.229 11.978-10.311 0-20.747-3.534-27.571-9.483" style="fill:url(#a);stroke:none" transform="matrix(1.07623 0 0 -1.07623 -344.265 612.093)"/><path d="m410.755 410.764.022.001-.022-.001" style="fill:url(#b);stroke:none" transform="matrix(1.07623 0 0 -1.07623 -344.265 612.093)"/><path d="M397.666 423.251c.562-2.625 1.749-5.403 4.234-7.807 2.63-2.546 5.293-4.043 8.922-4.668 11.201 2.242 15.365 9.726 15.365 9.726s.285.459.185.818c-.16.582-.585.751-1.099.761-.318.011-.697-.42-.697-.42s-3.417-4.318-10.239-5.253c-5.421-.743-12.708 1.266-16.987 8.931a16.85 16.85 0 0 1 .316-2.088" style="fill:url(#c);stroke:none" transform="matrix(1.07623 0 0 -1.07623 -344.265 612.093)"/><path d="M435.557 434.366c1.207-1.531 2.234-3.838 1.611-7.358-.38-2.153-2.059-6.28-3.595-9.307-3.696-7.315-7.631-11.648-11.427-15.001-3.784-3.34-7.3-5.806-12.481-8.253-5.022-2.374-10.316-3.594-13.417-4.107-.869-.145-1.336-.363-1.768-.978 0 0-.685-1.098-.094-2.306.389-.799.975-1.023 2.097-1.301 2.773-.47 5.477-.91 10.995-.836 10.322.136 22.592 4.021 31.559 11.184 9.062 7.004 16.174 16.986 19.363 29.168 0 0 .206.542.254.96.109 1.002-.09 2.024-1.101 2.766-1.17.855-2.409.511-3.28-.063-1.467-.908-2.505-.99-3.621-.974-2.614.041-4.319 1.744-4.319 1.744-1.909 1.784-2.516 2.425-5.401 4.197-2.37 1.453-6.028 3.154-10.952 3.645 2.419-.312 4.394-1.68 5.577-3.18" style="fill:url(#d);stroke:none" transform="matrix(1.07623 0 0 -1.07623 -344.265 612.093)"/><path d="M425.548 437.64c-3.959-.241-7.877-1.37-10.84-2.952-6.481-3.4-9.565-8.21-9.565-8.21s-.436-.415-.226-1.206c.145-.558.627-.971 1.196-.977.448-.006.766.079 1.059.358 3.111 3.006 8.246 5.438 13.355 5.289 2.757-.087 5.99-1.923 7.408-5.263 1.186-2.802.711-6.13.182-8.776-1.819-9.075-6.624-13.86-11.638-17.632 1.979 1.333 3.79 2.772 5.667 4.429 3.796 3.353 7.731 7.686 11.427 15.001 1.536 3.027 3.215 7.154 3.595 9.307.623 3.52-.404 5.827-1.611 7.358-1.149 1.455-3.051 2.781-5.38 3.142-1.128.1-1.956.185-3.044.185-.466 0-.98-.016-1.585-.053" style="fill:url(#e);stroke:none" transform="matrix(1.07623 0 0 -1.07623 -344.265 612.093)"/><path d="M0 0c-41.114 0-74.563-33.444-74.563-74.561 0-41.06 33.449-74.469 74.563-74.469 41.062 0 74.473 33.409 74.473 74.469C74.473-33.444 41.062 0 0 0m0-151.759c-42.618 0-77.291 34.633-77.291 77.198 0 42.62 34.673 77.29 77.291 77.29 42.57 0 77.2-34.67 77.2-77.29 0-42.565-34.63-77.198-77.2-77.198" style="fill:#244ea2;fill-opacity:1;fill-rule:nonzero;stroke:none" transform="matrix(1.07623 0 0 -1.07623 107.061 76.076)"/><path d="M0 0c-39.063 0-70.844-31.782-70.844-70.842 0-39.013 31.781-70.759 70.844-70.759 39.014 0 70.76 31.746 70.76 70.759C70.76-31.782 39.014 0 0 0m0-142.555c-39.591 0-71.798 32.17-71.798 71.713C-71.798-31.257-39.591.952 0 .952c39.544 0 71.712-32.209 71.712-71.794 0-39.543-32.168-71.713-71.712-71.713" style="fill:#244ea2;fill-opacity:1;fill-rule:nonzero;stroke:none" transform="matrix(1.07623 0 0 -1.07623 107.058 80.073)"/><path d="M0 0h.004c.005 0 .013 0 .023.007C.017 0 .006 0 0 0" style="fill:#244ea2;fill-opacity:1;fill-rule:nonzero;stroke:none" transform="matrix(1.07623 0 0 -1.07623 97.284 170.822)"/><path d="M0 0c-27.2 0-49.331-22.125-49.331-49.324 0-27.2 22.131-49.325 49.331-49.325 27.198 0 49.329 22.125 49.329 49.325C49.329-22.125 27.198 0 0 0m0-99.866c-27.87 0-50.54 22.673-50.54 50.542C-50.54-21.457-27.87 1.214 0 1.214c27.868 0 50.54-22.671 50.54-50.538 0-27.869-22.672-50.542-50.54-50.542" style="fill:#244ea2;fill-opacity:1;fill-rule:nonzero;stroke:none" transform="matrix(1.07623 0 0 -1.07623 107.012 103.185)"/><path d="M0 0h.004c.004 0 .011 0 .021.007C.015 0 .005 0 0 0" style="fill:#244ea2;fill-opacity:1;fill-rule:nonzero;stroke:none" transform="matrix(1.07623 0 0 -1.07623 97.878 169.935)"/><path d="M0 0c-25.543 0-46.324-20.778-46.324-46.318 0-25.542 20.781-46.323 46.324-46.323 25.541 0 46.323 20.781 46.323 46.323C46.323-20.778 25.541 0 0 0m0-93.78c-26.171 0-47.46 21.288-47.46 47.462C-47.46-20.15-26.171 1.14 0 1.14s47.457-21.29 47.457-47.458C47.457-72.492 26.171-93.78 0-93.78" style="fill:#244ea2;fill-opacity:1;fill-rule:nonzero;stroke:none" transform="matrix(1.07623 0 0 -1.07623 107.012 106.42)"/><path d="M0 0h.005c.006 0 .012 0 .021.005C.017 0 .007 0 0 0" style="fill:#244ea2;fill-opacity:1;fill-rule:nonzero;stroke:none" transform="matrix(1.07623 0 0 -1.07623 97.76 169.945)"/><path d="M0 0Z" style="fill:#244ea2;fill-opacity:1;fill-rule:nonzero;stroke:none" transform="matrix(1.07623 0 0 -1.07623 97.765 169.945)"/><path d="M0 0a14.76 14.76 0 0 1-1.729 2.922 10.667 10.667 0 0 1-1.647 1.769c-.399.34-.795.628-1.181.865.938.464 1.837 1.097 2.7 1.9.671.625 1.268 1.3 1.792 2.013.42.567.651.941.688 1.127.41-1.046 1.012-2.049 1.796-3.008a14.196 14.196 0 0 1 1.912-1.919c.538-.448.832-.672.891-.679-.068.007-.348-.155-.853-.473a13.206 13.206 0 0 1-2.026-1.595A14.552 14.552 0 0 1 0 0" style="fill:#3155a6;fill-opacity:1;fill-rule:nonzero;stroke:none" transform="matrix(1.07623 0 0 -1.07623 40.3 154.31)"/><path d="M0 0a13.023 13.023 0 0 1-2.027 1.595c-.499.318-.785.48-.849.473.058.007.352.231.889.679.721.603 1.357 1.24 1.911 1.919.787.959 1.386 1.962 1.795 3.008.041-.186.269-.56.691-1.127a14.165 14.165 0 0 1 1.792-2.013c.861-.803 1.761-1.436 2.697-1.9A9.86 9.86 0 0 1 5.72 1.77 11.036 11.036 0 0 1 4.07 0a14.896 14.896 0 0 1-1.726-2.922A14.627 14.627 0 0 1 0 0" style="fill:#3155a6;fill-opacity:1;fill-rule:nonzero;stroke:none" transform="matrix(1.07623 0 0 -1.07623 169.818 151.165)"/><path d="M0 0c-.14-.643-.514-1.145-1.144-1.53-.635-.389-1.276-.502-1.9-.331-.628.171-1.154.595-1.564 1.271-.419.684-.561 1.35-.426 1.986.132.627.521 1.15 1.161 1.537.63.388 1.247.495 1.883.326.628-.168 1.158-.606 1.575-1.287C-.005 1.298.135.638 0 0m.852 8.781-5.199-3.176-.748 1.23 4.142 2.533c.456.28.561.662.309 1.074-.252.416-.643.491-1.098.213l-8.237-5.033c-.447-.277-.652-.077-.776.128l-1.181 1.932 9.068 5.546-.781 1.283-10.913-6.666 2.171-3.557c.392-.634 1.118-1.227 2.397-.446l3.042 1.859.754-1.229-5.717-3.493.789-1.289 4.804 2.937a4.287 4.287 0 0 1-.599-1.169c-.352-1.074-.201-2.149.439-3.196.632-1.033 1.518-1.65 2.633-1.829 1.104-.179 2.263.096 3.446.82 1.172.715 1.945 1.62 2.29 2.684.345 1.077.201 2.144-.434 3.181-.636 1.044-1.524 1.663-2.64 1.847-.429.07-.871.066-1.312-.002l4.137 2.533c.455.275.569.658.313 1.074-.254.414-.644.489-1.099.211" style="fill:#3155a6;fill-opacity:1;fill-rule:nonzero;stroke:none" transform="matrix(1.07623 0 0 -1.07623 80.71 103.727)"/><path d="M0 0h-1.972v4.09h-2.139v-8.124c0-.47-.121-.833-.38-1.106-.256-.278-.7-.519-1.315-.719-.622-.207-1.415-.287-2.336-.242-.564.031-.951.122-1.156.269-.193.139-.283.376-.283.727v7.387h4.015v1.527h-6.155v-9.03c0-.815.273-1.426.81-1.823.525-.385 1.363-.585 2.499-.596h.091a8.58 8.58 0 0 1 3.051.553c.477.171.865.387 1.159.645v-4.647c0-.309.114-.551.334-.725.208-.159.458-.245.735-.245.291 0 .543.086.747.246.215.173.323.415.323.724v9.568H0V-11.1c0-.309.113-.552.334-.725.213-.16.458-.244.735-.244.292 0 .544.084.753.244.223.173.334.416.334.725V4.09H0Z" style="fill:#3155a6;fill-opacity:1;fill-rule:nonzero;stroke:none" transform="matrix(1.07623 0 0 -1.07623 109.842 87.33)"/><path d="m0 0-1.919 1.024-3.905-7.332a.86.86 0 0 1-.045-.785c.107-.246.289-.444.55-.579a1.18 1.18 0 0 1 .786-.132.872.872 0 0 1 .625.474l1.769 3.317L.036-5.174l.706 1.33-2.175 1.161z" style="fill:#3155a6;fill-opacity:1;fill-rule:nonzero;stroke:none" transform="matrix(1.07623 0 0 -1.07623 143.153 92.41)"/><path d="M0 0c.432.1.891.025 1.371-.227.474-.255.792-.593.938-1.001a1.418 1.418 0 0 0-.092-1.197c-.216-.403-.527-.647-.943-.75-.419-.099-.877-.025-1.355.229-.476.254-.799.593-.952 1.004-.156.407-.129.799.085 1.203.212.397.522.635.948.739m-2.848.275c-.418-.786-.44-1.605-.076-2.442.363-.824 1.086-1.528 2.143-2.094 1.056-.565 2.047-.768 2.929-.612.902.162 1.57.642 1.988 1.421.42.788.44 1.607.075 2.437a3.638 3.638 0 0 1-.336.585l2.42-1.289.718 1.343L3.52 1.492l.824 1.547-1.906 1.017-.824-1.55-3.386 1.806-.717-1.347L-.17 1.729a3.395 3.395 0 0 1-.69-.049c-.906-.157-1.573-.628-1.988-1.405" style="fill:#3155a6;fill-opacity:1;fill-rule:nonzero;stroke:none" transform="matrix(1.07623 0 0 -1.07623 131.432 91.327)"/><path d="m0 0-10.146 5.414-.711-1.335 8.808-4.695c.231-.124.228-.246.154-.389L-3.63-4.263c-.149-.273-.16-.54-.04-.8.115-.246.305-.435.559-.572.245-.131.501-.173.763-.131.276.048.489.207.635.481L.441-1.242C.713-.738.558-.297 0 0" style="fill:#3155a6;fill-opacity:1;fill-rule:nonzero;stroke:none" transform="matrix(1.07623 0 0 -1.07623 137.309 101.137)"/><path d="m0 0-2.572 3.362 6.271 4.794-1.322 1.728-6.27-4.79-1.291 1.69 6.267 4.794-1.321 1.728-6.268-4.793-1.563 2.048-1.212-.927 8.072-10.56c.446-.583.889-.385 1.11-.216C.299-.836.331-.431 0 0" style="fill:#3155a6;fill-opacity:1;fill-rule:nonzero;stroke:none" transform="matrix(1.07623 0 0 -1.07623 156.715 125.084)"/><path d="M0 0c-.279-.218-.732-.497-1.347-.843-.623-.352-1.08-.64-1.365-.856a.8.8 0 0 1-.323-.643 1.062 1.062 0 0 1 .229-.684c.299-.396.696-.511 1.139-.325 1.148.438 2.299 1.095 3.432 1.959l4.994 3.82-7.379 9.658-1.209-.924 6.057-7.93z" style="fill:#3155a6;fill-opacity:1;fill-rule:nonzero;stroke:none" transform="matrix(1.07623 0 0 -1.07623 160.24 118.879)"/><path d="m0 0-.756.67-4.823-7.132 1.299-.879L-.885-2.32C.833-3.94 1.289-6.59.469-10.199c-.115-.476.082-.731.27-.859.215-.147.642-.311 1.03.259.055.083.099.171.133.276.697 2.324.916 4.349.65 6.017C2.263-2.739 1.406-1.224 0 0" style="fill:#3155a6;fill-opacity:1;fill-rule:nonzero;stroke:none" transform="matrix(1.07623 0 0 -1.07623 47.668 114.484)"/><path d="m0 0-1.214-1.804 6.692-4.525a.851.851 0 0 1 .776-.123c.259.076.471.241.635.482.163.239.236.497.213.766a.868.868 0 0 1-.41.675L3.761-2.544 5.143-.506 3.894.338l-1.38-2.039z" style="fill:#3155a6;fill-opacity:1;fill-rule:nonzero;stroke:none" transform="matrix(1.07623 0 0 -1.07623 49.287 109.63)"/><path d="M0 0c-.136.632 0 1.264.42 1.881.416.617.934.967 1.581 1.076.645.103 1.304-.07 1.963-.517.655-.444 1.058-.99 1.198-1.625.146-.639.011-1.25-.406-1.865-.419-.617-.954-.984-1.592-1.087-.641-.106-1.299.063-1.954.504C.551-1.183.142-.634 0 0m2.023 4.842C.943 4.545.009 3.819-.764 2.68-1.537 1.535-1.866.387-1.74-.726c.13-1.122.709-2.036 1.723-2.723C.99-4.128 2.05-4.32 3.138-4.025c1.078.296 2.024 1.029 2.8 2.174.768 1.143 1.094 2.281.965 3.393-.13 1.125-.702 2.036-1.707 2.717-1.015.685-2.081.88-3.173.583" style="fill:#3155a6;fill-opacity:1;fill-rule:nonzero;stroke:none" transform="matrix(1.07623 0 0 -1.07623 54.587 121.907)"/><path d="M0 0c-.371.596-.956 1.79-1.226 3.125-.346 1.709-.175 3.102.545 4.248.673 1.072 1.905 1.853 3.435 2.163 3.213.634 5.711-1.218 6.388-4.562.253-1.245.195-2.272.064-2.783l-1.567.105c.143.606.186 1.318-.03 2.383-.437 2.159-2.019 3.416-4.374 2.94C.94 7.154-.139 5.468.286 3.368c.137-.675.324-1.137.478-1.355l2.534.513-.361 1.785 1.455.294.723-3.57Z" style="fill:#3155a6;fill-opacity:1;fill-rule:nonzero;stroke:none" transform="matrix(1.07623 0 0 -1.07623 39.845 175.611)"/><path d="M0 0c-.371.596-.956 1.79-1.226 3.125-.346 1.709-.175 3.102.545 4.248.673 1.072 1.905 1.853 3.435 2.163 3.213.634 5.711-1.218 6.388-4.562.253-1.245.195-2.272.064-2.783l-1.567.105c.143.606.186 1.318-.03 2.383-.437 2.159-2.019 3.416-4.374 2.94C.94 7.154-.139 5.468.286 3.368c.137-.675.324-1.137.478-1.355l2.534.513-.361 1.785 1.455.294.723-3.57Z" style="fill:none;stroke:#2f529c;stroke-width:.4;stroke-linecap:round;stroke-linejoin:round;stroke-miterlimit:10;stroke-dasharray:none;stroke-opacity:1" transform="matrix(1.07623 0 0 -1.07623 39.845 175.611)"/><path d="m0 0 2.067 1.682c.511.414 1.105.827 1.604 1.187l-.011.029c-.611-.076-1.342-.182-1.972-.249l-2.654-.186Zm-2.402 2.228-3.043-.241-.709 1.808 10.801.689.877-2.235-8.372-6.882-.743 1.894 2.379 1.935z" style="fill:#3155a6;fill-opacity:1;fill-rule:nonzero;stroke:none" transform="matrix(1.07623 0 0 -1.07623 46.747 182.536)"/><path d="m0 0 2.067 1.682c.511.414 1.105.827 1.604 1.187l-.011.029c-.611-.076-1.342-.182-1.972-.249l-2.654-.186Zm-2.402 2.228-3.043-.241-.709 1.808 10.801.689.877-2.235-8.372-6.882-.743 1.894 2.379 1.935z" style="fill:none;stroke:#2f529c;stroke-width:.4;stroke-linecap:round;stroke-linejoin:round;stroke-miterlimit:10;stroke-dasharray:none;stroke-opacity:1" transform="matrix(1.07623 0 0 -1.07623 46.747 182.536)"/><path d="m0 0 8.783 5.41 1.132-1.838-2.37-4.587a30.653 30.653 0 0 0-2.022-3.312l.016-.027C6.64-3.514 7.757-2.79 9.1-1.962l3.062 1.885.915-1.485-8.783-5.41-1.027 1.668L5.724-.626c.619 1.154 1.335 2.385 2.06 3.425l-.045.044A74.196 74.196 0 0 0 4.055.449L.915-1.486z" style="fill:#3155a6;fill-opacity:1;fill-rule:nonzero;stroke:none" transform="matrix(1.07623 0 0 -1.07623 45.126 190.333)"/><path d="m0 0 8.783 5.41 1.132-1.838-2.37-4.587a30.653 30.653 0 0 0-2.022-3.312l.016-.027C6.64-3.514 7.757-2.79 9.1-1.962l3.062 1.885.915-1.485-8.783-5.41-1.027 1.668L5.724-.626c.619 1.154 1.335 2.385 2.06 3.425l-.045.044A74.196 74.196 0 0 0 4.055.449L.915-1.486z" style="fill:none;stroke:#2f529c;stroke-width:.4;stroke-linecap:round;stroke-linejoin:round;stroke-miterlimit:10;stroke-dasharray:none;stroke-opacity:1" transform="matrix(1.07623 0 0 -1.07623 45.126 190.333)"/><path d="M0 0a10.179 10.179 0 0 0-2.649 2.062c-1.171 1.294-1.735 2.58-1.7 3.933.031 1.266.692 2.566 1.85 3.613 2.439 2.187 5.534 1.869 7.824-.662.853-.943 1.327-1.855 1.475-2.361l-1.401-.71c-.187.594-.513 1.229-1.242 2.035-1.479 1.634-3.481 1.908-5.263.296-1.737-1.571-1.805-3.573-.367-5.163.462-.51.859-.812 1.102-.922l1.919 1.736L.326 5.208l1.101.996 2.444-2.702Z" style="fill:#3155a6;fill-opacity:1;fill-rule:nonzero;stroke:none" transform="matrix(1.07623 0 0 -1.07623 58.48 207.267)"/><path d="M0 0a10.179 10.179 0 0 0-2.649 2.062c-1.171 1.294-1.735 2.58-1.7 3.933.031 1.266.692 2.566 1.85 3.613 2.439 2.187 5.534 1.869 7.824-.662.853-.943 1.327-1.855 1.475-2.361l-1.401-.71c-.187.594-.513 1.229-1.242 2.035-1.479 1.634-3.481 1.908-5.263.296-1.737-1.571-1.805-3.573-.367-5.163.462-.51.859-.812 1.102-.922l1.919 1.736L.326 5.208l1.101.996 2.444-2.702Z" style="fill:none;stroke:#2f529c;stroke-width:.4;stroke-linecap:round;stroke-linejoin:round;stroke-miterlimit:10;stroke-dasharray:none;stroke-opacity:1" transform="matrix(1.07623 0 0 -1.07623 58.48 207.267)"/><path d="M0 0c.18-.194.497-.434.801-.665C2.743-2.157 4.724-1.95 6.305.134c1.381 1.796 1.128 3.639-.75 5.063-.475.361-.832.574-1.089.692Zm3.79 8.111a21.116 21.116 0 0 0 2.519-1.642c1.536-1.165 2.344-2.277 2.619-3.484.315-1.256.053-2.614-1.001-4.004C6.808-2.494 5.485-3.2 4.169-3.315 2.788-3.439 1.197-2.828-.4-1.617A21.036 21.036 0 0 0-2.341.028Z" style="fill:#3155a6;fill-opacity:1;fill-rule:nonzero;stroke:none" transform="matrix(1.07623 0 0 -1.07623 63.42 210.147)"/><path d="M0 0c.18-.194.497-.434.801-.665C2.743-2.157 4.724-1.95 6.305.134c1.381 1.796 1.128 3.639-.75 5.063-.475.361-.832.574-1.089.692Zm3.79 8.111a21.116 21.116 0 0 0 2.519-1.642c1.536-1.165 2.344-2.277 2.619-3.484.315-1.256.053-2.614-1.001-4.004C6.808-2.494 5.485-3.2 4.169-3.315 2.788-3.439 1.197-2.828-.4-1.617A21.036 21.036 0 0 0-2.341.028Z" style="fill:none;stroke:#2f529c;stroke-width:.4;stroke-linecap:round;stroke-linejoin:round;stroke-miterlimit:10;stroke-dasharray:none;stroke-opacity:1" transform="matrix(1.07623 0 0 -1.07623 63.42 210.147)"/><path d="M0 0c-.933-1.895-.722-3.858.898-4.656 1.635-.804 3.305.267 4.258 2.203.859 1.745.805 3.818-.885 4.65C2.596 3.021.94 1.909 0 0m6.969-3.276C5.441-6.38 2.688-7.226.147-5.975-2.476-4.684-3.137-1.868-1.805.837c1.406 2.857 4.192 3.976 6.801 2.692C7.688 2.204 8.273-.626 6.969-3.276" style="fill:#3155a6;fill-opacity:1;fill-rule:nonzero;stroke:none" transform="matrix(1.07623 0 0 -1.07623 75.271 213.417)"/><path d="M0 0c-.933-1.895-.722-3.858.898-4.656 1.635-.804 3.305.267 4.258 2.203.859 1.745.805 3.818-.885 4.65C2.596 3.021.94 1.909 0 0Zm6.969-3.276C5.441-6.38 2.688-7.226.147-5.975-2.476-4.684-3.137-1.868-1.805.837c1.406 2.857 4.192 3.976 6.801 2.692C7.688 2.204 8.273-.626 6.969-3.276z" style="fill:none;stroke:#2f529c;stroke-width:.4;stroke-linecap:round;stroke-linejoin:round;stroke-miterlimit:10;stroke-dasharray:none;stroke-opacity:1" transform="matrix(1.07623 0 0 -1.07623 75.271 213.417)"/><path d="m0 0 2.746 9.945 2.081-.574 1.39-4.974A30.84 30.84 0 0 0 6.993.594l.029-.008c.234 1.365.559 2.657.978 4.176l.958 3.468 1.682-.465L7.894-2.18l-1.889.522-1.386 5.099c-.333 1.267-.648 2.657-.826 3.913l-.063.001a75.578 75.578 0 0 0-1.066-4.264L1.682-.464Z" style="fill:#3155a6;fill-opacity:1;fill-rule:nonzero;stroke:none" transform="matrix(1.07623 0 0 -1.07623 83.483 223.162)"/><path d="m0 0 2.746 9.945 2.081-.574 1.39-4.974A30.84 30.84 0 0 0 6.993.594l.029-.008c.234 1.365.559 2.657.978 4.176l.958 3.468 1.682-.465L7.894-2.18l-1.889.522-1.386 5.099c-.333 1.267-.648 2.657-.826 3.913l-.063.001a75.578 75.578 0 0 0-1.066-4.264L1.682-.464Z" style="fill:none;stroke:#2f529c;stroke-width:.4;stroke-linecap:round;stroke-linejoin:round;stroke-miterlimit:10;stroke-dasharray:none;stroke-opacity:1" transform="matrix(1.07623 0 0 -1.07623 83.483 223.162)"/><path d="M0 0a10.207 10.207 0 0 0-3.344-.269c-1.736.164-3.019.73-3.906 1.751-.833.954-1.223 2.358-1.076 3.911.322 3.258 2.817 5.112 6.212 4.792 1.264-.119 2.23-.471 2.68-.744L.013 7.972c-.539.312-1.207.56-2.288.661-2.193.207-3.853-.943-4.078-3.334-.22-2.329 1.082-3.85 3.213-4.051.685-.064 1.182-.019 1.435.065l.243 2.573-1.812.171.139 1.477 3.624-.341z" style="fill:#3155a6;fill-opacity:1;fill-rule:nonzero;stroke:none" transform="matrix(1.07623 0 0 -1.07623 104.736 226.526)"/><path d="M0 0a10.207 10.207 0 0 0-3.344-.269c-1.736.164-3.019.73-3.906 1.751-.833.954-1.223 2.358-1.076 3.911.322 3.258 2.817 5.112 6.212 4.792 1.264-.119 2.23-.471 2.68-.744L.013 7.972c-.539.312-1.207.56-2.288.661-2.193.207-3.853-.943-4.078-3.334-.22-2.329 1.082-3.85 3.213-4.051.685-.064 1.182-.019 1.435.065l.243 2.573-1.812.171.139 1.477 3.624-.341z" style="fill:none;stroke:#2f529c;stroke-width:.4;stroke-linecap:round;stroke-linejoin:round;stroke-miterlimit:10;stroke-dasharray:none;stroke-opacity:1" transform="matrix(1.07623 0 0 -1.07623 104.736 226.526)"/><path d="m0 0 .762-5.967c.256-2.004 1.209-2.824 2.468-2.662 1.352.172 2.039 1.201 1.783 3.205L4.251.542l1.867.239.746-5.845c.404-3.158-1.043-4.762-3.502-5.076-2.369-.302-4.071.823-4.481 4.041l-.748 5.861z" style="fill:#3155a6;fill-opacity:1;fill-rule:nonzero;stroke:none" transform="matrix(1.07623 0 0 -1.07623 113.015 215.611)"/><path d="m0 0 .762-5.967c.256-2.004 1.209-2.824 2.468-2.662 1.352.172 2.039 1.201 1.783 3.205L4.251.542l1.867.239.746-5.845c.404-3.158-1.043-4.762-3.502-5.076-2.369-.302-4.071.823-4.481 4.041l-.748 5.861z" style="fill:none;stroke:#2f529c;stroke-width:.4;stroke-linecap:round;stroke-linejoin:round;stroke-miterlimit:10;stroke-dasharray:none;stroke-opacity:1" transform="matrix(1.07623 0 0 -1.07623 113.015 215.611)"/><path d="m0 0-3.065 9.842 2.059.641 3.855-3.429a30.823 30.823 0 0 0 2.707-2.777l.029.009c-.541 1.274-.966 2.535-1.434 4.039l-1.068 3.431 1.664.519 3.066-9.842-1.87-.582-3.921 3.536C1.058 6.272.043 7.27-.785 8.229l-.054-.032A74.939 74.939 0 0 0 .568 4.038L1.664.518z" style="fill:#3155a6;fill-opacity:1;fill-rule:nonzero;stroke:none" transform="matrix(1.07623 0 0 -1.07623 124.827 224.97)"/><path d="m0 0-3.065 9.842 2.059.641 3.855-3.429a30.823 30.823 0 0 0 2.707-2.777l.029.009c-.541 1.274-.966 2.535-1.434 4.039l-1.068 3.431 1.664.519 3.066-9.842-1.87-.582-3.921 3.536C1.058 6.272.043 7.27-.785 8.229l-.054-.032A74.939 74.939 0 0 0 .568 4.038L1.664.518z" style="fill:none;stroke:#2f529c;stroke-width:.4;stroke-linecap:round;stroke-linejoin:round;stroke-miterlimit:10;stroke-dasharray:none;stroke-opacity:1" transform="matrix(1.07623 0 0 -1.07623 124.827 224.97)"/><path d="m0 0 4.289-9.379-1.712-.783-4.289 9.379z" style="fill:#3155a6;fill-opacity:1;fill-rule:nonzero;stroke:none" transform="matrix(1.07623 0 0 -1.07623 133.725 209.938)"/><path d="m0 0 4.289-9.379-1.712-.783-4.289 9.379z" style="fill:none;stroke:#2f529c;stroke-width:.4;stroke-linecap:round;stroke-linejoin:round;stroke-miterlimit:10;stroke-dasharray:none;stroke-opacity:1" transform="matrix(1.07623 0 0 -1.07623 133.725 209.938)"/><path d="m0 0-8.216 7.067 1.751 1.068 3.647-3.278C-1.802 3.954-.88 3.119-.005 2.183l.026.016c-.402 1.188-.728 2.459-1.042 3.737l-1.173 4.803 1.711 1.044 2.325-10.66z" style="fill:#3155a6;fill-opacity:1;fill-rule:nonzero;stroke:none" transform="matrix(1.07623 0 0 -1.07623 143.673 217.212)"/><path d="m0 0-8.216 7.067 1.751 1.068 3.647-3.278C-1.802 3.954-.88 3.119-.005 2.183l.026.016c-.402 1.188-.728 2.459-1.042 3.737l-1.173 4.803 1.711 1.044 2.325-10.66z" style="fill:none;stroke:#2f529c;stroke-width:.4;stroke-linecap:round;stroke-linejoin:round;stroke-miterlimit:10;stroke-dasharray:none;stroke-opacity:1" transform="matrix(1.07623 0 0 -1.07623 143.673 217.212)"/><path d="m0 0-2.973-2.504 1.952-2.317 3.324 2.799.996-1.182-4.764-4.012L-8.108.672l4.587 3.865.996-1.183L-5.674.703l1.716-2.036L-.985 1.17z" style="fill:#3155a6;fill-opacity:1;fill-rule:nonzero;stroke:none" transform="matrix(1.07623 0 0 -1.07623 152.55 204.593)"/><path d="m0 0-2.973-2.504 1.952-2.317 3.324 2.799.996-1.182-4.764-4.012L-8.108.672l4.587 3.865.996-1.183L-5.674.703l1.716-2.036L-.985 1.17z" style="fill:none;stroke:#2f529c;stroke-width:.4;stroke-linecap:round;stroke-linejoin:round;stroke-miterlimit:10;stroke-dasharray:none;stroke-opacity:1" transform="matrix(1.07623 0 0 -1.07623 152.55 204.593)"/><path d="m0 0 .739.836c.841.952.854 1.982.086 2.661-.837.739-1.754.509-2.564-.407-.396-.447-.615-.764-.702-.932Zm-4.64 1.611c.373.63.994 1.47 1.713 2.284.983 1.111 1.824 1.694 2.726 1.836.73.11 1.481-.126 2.146-.713.997-.882 1.076-2.156.679-3.112l.034-.031c.703.379 1.535.236 2.443-.239C6.286 1.037 7.362.453 7.792.338L6.516-1.106c-.331.088-1.133.451-2.279 1.095-1.211.663-1.845.592-2.578-.191l-.628-.71 3.174-2.807L2.97-5.117Z" style="fill:#3155a6;fill-opacity:1;fill-rule:nonzero;stroke:none" transform="matrix(1.07623 0 0 -1.07623 155.173 200.314)"/><path d="m0 0 .739.836c.841.952.854 1.982.086 2.661-.837.739-1.754.509-2.564-.407-.396-.447-.615-.764-.702-.932Zm-4.64 1.611c.373.63.994 1.47 1.713 2.284.983 1.111 1.824 1.694 2.726 1.836.73.11 1.481-.126 2.146-.713.997-.882 1.076-2.156.679-3.112l.034-.031c.703.379 1.535.236 2.443-.239C6.286 1.037 7.362.453 7.792.338L6.516-1.106c-.331.088-1.133.451-2.279 1.095-1.211.663-1.845.592-2.578-.191l-.628-.71 3.174-2.807L2.97-5.117Z" style="fill:none;stroke:#2f529c;stroke-width:.4;stroke-linecap:round;stroke-linejoin:round;stroke-miterlimit:10;stroke-dasharray:none;stroke-opacity:1" transform="matrix(1.07623 0 0 -1.07623 155.173 200.314)"/><path d="M0 0c.621.308 1.388.922 1.914 1.729.652 1 .546 1.874-.159 2.334-.653.426-1.322.241-2.431-.589-1.449-1.101-2.799-1.518-4.042-.707-1.423.928-1.718 2.802-.488 4.686.61.936 1.259 1.481 1.782 1.779l1.027-1.199a4.505 4.505 0 0 1-1.54-1.463c-.652-1-.402-1.766.111-2.1.666-.435 1.3-.136 2.501.725 1.542 1.132 2.766 1.356 4.01.545 1.397-.911 1.917-2.748.469-4.966C2.553-.148 1.678-.93 1.073-1.212Z" style="fill:#3155a6;fill-opacity:1;fill-rule:nonzero;stroke:none" transform="matrix(1.07623 0 0 -1.07623 163.39 196.402)"/><path d="M0 0c.621.308 1.388.922 1.914 1.729.652 1 .546 1.874-.159 2.334-.653.426-1.322.241-2.431-.589-1.449-1.101-2.799-1.518-4.042-.707-1.423.928-1.718 2.802-.488 4.686.61.936 1.259 1.481 1.782 1.779l1.027-1.199a4.505 4.505 0 0 1-1.54-1.463c-.652-1-.402-1.766.111-2.1.666-.435 1.3-.136 2.501.725 1.542 1.132 2.766 1.356 4.01.545 1.397-.911 1.917-2.748.469-4.966C2.553-.148 1.678-.93 1.073-1.212Z" style="fill:none;stroke:#2f529c;stroke-width:.4;stroke-linecap:round;stroke-linejoin:round;stroke-miterlimit:10;stroke-dasharray:none;stroke-opacity:1" transform="matrix(1.07623 0 0 -1.07623 163.39 196.402)"/><path d="m0 0 9.194-4.679-.853-1.678-9.195 4.679Z" style="fill:#3155a6;fill-opacity:1;fill-rule:nonzero;stroke:none" transform="matrix(1.07623 0 0 -1.07623 161.29 182.513)"/><path d="m0 0 9.194-4.679-.853-1.678-9.195 4.679Z" style="fill:none;stroke:#2f529c;stroke-width:.4;stroke-linecap:round;stroke-linejoin:round;stroke-miterlimit:10;stroke-dasharray:none;stroke-opacity:1" transform="matrix(1.07623 0 0 -1.07623 161.29 182.513)"/><path d="m0 0-1.04-2.748-1.475.558L.242 5.095l1.475-.558L.666 1.76l8.173-3.093-.667-1.76Z" style="fill:#3155a6;fill-opacity:1;fill-rule:nonzero;stroke:none" transform="matrix(1.07623 0 0 -1.07623 164.625 179.16)"/><path d="m0 0-1.04-2.748-1.475.558L.242 5.095l1.475-.558L.666 1.76l8.173-3.093-.667-1.76Z" style="fill:none;stroke:#2f529c;stroke-width:.4;stroke-linecap:round;stroke-linejoin:round;stroke-miterlimit:10;stroke-dasharray:none;stroke-opacity:1" transform="matrix(1.07623 0 0 -1.07623 164.625 179.16)"/><path d="m0 0-4.206.888-6.556-1.948.446 2.111 2.842.651c.822.187 1.444.321 2.193.46l.006.03c-.593.375-1.162.792-1.823 1.291l-2.334 1.759.44 2.081 5.13-4.585 4.251-.897z" style="fill:#3155a6;fill-opacity:1;fill-rule:nonzero;stroke:none" transform="matrix(1.07623 0 0 -1.07623 176.593 172.241)"/><path d="m0 0-4.206.888-6.556-1.948.446 2.111 2.842.651c.822.187 1.444.321 2.193.46l.006.03c-.593.375-1.162.792-1.823 1.291l-2.334 1.759.44 2.081 5.13-4.585 4.251-.897z" style="fill:none;stroke:#2f529c;stroke-width:.4;stroke-linecap:round;stroke-linejoin:round;stroke-miterlimit:10;stroke-dasharray:none;stroke-opacity:1" transform="matrix(1.07623 0 0 -1.07623 176.593 172.241)"/></g></svg>