<svg xmlns="http://www.w3.org/2000/svg" xml:space="preserve" width="800.01562" height="800" viewBox="0 0 800.01563 799.99999"><path d="M260.525 145.205c-165.663 0-300.02 134.33-300.02 300.006 0 165.645 134.357 299.994 300.02 299.994 165.633 0 299.993-134.35 299.993-299.994 0-165.676-134.36-300.006-299.993-300.006z" style="color:#000;font-style:normal;font-variant:normal;font-weight:400;font-stretch:normal;font-size:medium;font-family:sans-serif;font-variant-ligatures:normal;font-variant-position:normal;font-variant-caps:normal;font-variant-numeric:normal;font-variant-alternates:normal;font-variant-east-asian:normal;font-feature-settings:normal;text-indent:0;text-decoration:none;text-decoration-line:none;text-decoration-style:solid;text-decoration-color:#000;letter-spacing:normal;word-spacing:normal;text-transform:none;writing-mode:lr-tb;direction:ltr;text-orientation:mixed;dominant-baseline:auto;baseline-shift:baseline;text-anchor:start;clip-rule:nonzero;display:inline;overflow:visible;visibility:visible;opacity:1;color-interpolation:sRGB;vector-effect:none;fill:#595a5c;fill-opacity:1;fill-rule:nonzero;stroke:none;stroke-width:5.32102;stroke-linecap:butt;stroke-linejoin:miter;stroke-miterlimit:4;stroke-dasharray:none;stroke-dashoffset:0;stroke-opacity:1;color-rendering:auto;image-rendering:auto;shape-rendering:auto;text-rendering:auto;enable-background:accumulate;stop-color:#000;stop-opacity:1" transform="matrix(1.33333 0 0 -1.33333 52.659 993.607)"/><path d="M260.525 150.525c162.757 0 294.672 131.885 294.672 294.686 0 162.769-131.916 294.674-294.672 294.674-162.787 0-294.699-131.905-294.699-294.674 0-162.8 131.911-294.686 294.7-294.686z" style="color:#000;font-style:normal;font-variant:normal;font-weight:400;font-stretch:normal;font-size:medium;font-family:sans-serif;font-variant-ligatures:normal;font-variant-position:normal;font-variant-caps:normal;font-variant-numeric:normal;font-variant-alternates:normal;font-variant-east-asian:normal;font-feature-settings:normal;text-indent:0;text-decoration:none;text-decoration-line:none;text-decoration-style:solid;text-decoration-color:#000;letter-spacing:normal;word-spacing:normal;text-transform:none;writing-mode:lr-tb;direction:ltr;text-orientation:mixed;dominant-baseline:auto;baseline-shift:baseline;text-anchor:start;clip-rule:nonzero;display:inline;overflow:visible;visibility:visible;opacity:1;color-interpolation:sRGB;vector-effect:none;fill:#fff;fill-opacity:1;fill-rule:nonzero;stroke:none;stroke-width:5.32102;stroke-linecap:butt;stroke-linejoin:miter;stroke-miterlimit:4;stroke-dasharray:none;stroke-dashoffset:0;stroke-opacity:1;color-rendering:auto;image-rendering:auto;shape-rendering:auto;text-rendering:auto;enable-background:accumulate;stop-color:#000;stop-opacity:1" transform="matrix(1.33333 0 0 -1.33333 52.659 993.607)"/><path d="M0 0c-19.028 0-34.454-15.423-34.454-34.45 0-19.029 15.426-34.453 34.454-34.453 19.025 0 34.453 15.424 34.453 34.453C34.453-15.423 19.025 0 0 0Z" style="fill:none;stroke:#595a5c;stroke-width:.337;stroke-linecap:butt;stroke-linejoin:miter;stroke-miterlimit:4;stroke-dasharray:none;stroke-opacity:1" transform="matrix(8.416 0 0 -8.416 400.022 110.067)"/><path d="m0 0 .628-.41.001-.001A.224.224 0 0 0 .724-.57a.293.293 0 0 0-.046-.204L-2.188-5.15c-.225-.342-.653-.461-.954-.265l-3.627 2.374a.455.455 0 0 0-.185.305.532.532 0 0 0 .093.382l1.043 1.591.622-.407a.215.215 0 0 0 .097-.162.329.329 0 0 0-.045-.208l-.774-1.184c-.033-.05-.043-.09-.033-.141a.201.201 0 0 1 .073-.123l2.743-1.797z" style="fill:#595a5c;fill-opacity:1;fill-rule:nonzero;stroke:none" transform="matrix(8.416 0 0 -8.416 241.375 673.1)"/><path d="m0 0-3.704 2.427-.001.001a.406.406 0 0 0-.186.3c-.015.13.015.26.091.387l.735 1.122 2.303-1.508.367.561-2.195 1.439.042.615L.525 3.332a.263.263 0 0 0 .097-.166.275.275 0 0 0-.049-.206l-.802-1.225-2.303 1.508-.322-.491a.21.21 0 0 1-.033-.147.216.216 0 0 1 .075-.13L.286.446C.321.423.334.369.318.326A.644.644 0 0 0 .234.16.675.675 0 0 0 .12.023C.087-.009.032-.02 0 0" style="fill:#595a5c;fill-opacity:1;fill-rule:nonzero;stroke:none" transform="matrix(8.416 0 0 -8.416 226.466 696.639)"/><path d="m0 0-.043-.604 2.462-1.612.29.443z" style="fill:#595a5c;fill-opacity:1;fill-rule:nonzero;stroke:none" transform="matrix(8.416 0 0 -8.416 199.419 691.09)"/><path d="M0 0a.339.339 0 0 1 .073.098c.026.043.035.094 0 .128L-5.08 5.222l-.157-.597L-3.148 2.6l-.9-.928.719-.697.899.928L-.3-.161c.031-.03.085-.026.127.001a.467.467 0 0 1 .095.08z" style="fill:#595a5c;fill-opacity:1;fill-rule:nonzero;stroke:none" transform="matrix(8.416 0 0 -8.416 187.55 664.372)"/><path d="m0 0-.653-.673c-.207-.215-.43-.413-.653-.507l.621-.601c.201.018.552.224.755.432l.816.84c.051.054.08.121.084.194a.223.223 0 0 1-.068.178l-3.625 3.514-.149-.593Z" style="fill:#595a5c;fill-opacity:1;fill-rule:nonzero;stroke:none" transform="matrix(8.416 0 0 -8.416 186.326 640.382)"/><path d="m0 0-.157-.598 2.919-2.829-1.261-1.301.313-.303c.219-.213.595-.182.84.071l.829.856c.103.103.16.227.163.357a.453.453 0 0 1-.125.334z" style="fill:#595a5c;fill-opacity:1;fill-rule:nonzero;stroke:none" transform="matrix(8.416 0 0 -8.416 141.213 634.086)"/><path d="m0 0-.013-.003" style="fill:#595a5c;fill-opacity:1;fill-rule:nonzero;stroke:none" transform="matrix(8.416 0 0 -8.416 360.029 767.756)"/><path d="M0 0c.287.009.535.079.738.212.197.129.29.316.295.589-.019.263-.122.441-.326.565-.209.118-.46.178-.747.17a1.4 1.4 0 0 1-.738-.21c-.198-.133-.29-.316-.295-.58.018-.272.122-.454.325-.574C-.538.051-.287-.007 0 0m-.054 2.065a3.63 3.63 0 0 0 1.013-.11c.315-.082.576-.219.777-.407a1.02 1.02 0 0 0 .329-.723c0-.294-.1-.553-.291-.749a1.808 1.808 0 0 0-.75-.444A3.662 3.662 0 0 0 .015-.529a3.67 3.67 0 0 0-1.019.108c-.313.082-.572.22-.771.405-.2.185-.315.439-.33.731.001.296.098.544.291.739.189.2.443.35.753.449.307.098.645.153 1.007.162" style="fill:#595a5c;fill-opacity:1;fill-rule:nonzero;stroke:none" transform="matrix(8.416 0 0 -8.416 404.42 733.253)"/><path d="m0 0-4.248-.112a.443.443 0 0 0-.325.145.52.52 0 0 0-.143.365l-.033 1.254.743.02a.218.218 0 0 0 .173-.077.336.336 0 0 0 .082-.197l.02-.766c.002-.059.017-.099.053-.134a.2.2 0 0 1 .131-.061l3.164.082.03.001-.001.03-.028 1.092-1.447-.037-.309.521 1.742.045-.015.576-2.479-.064.024-.891-.99-.025-.023.889-1.196-.032-.316.529 4.965.131-.077 2.955.751.02h.001a.215.215 0 0 0 .167-.076.286.286 0 0 0 .078-.194L.632.761C.643.351.36.009 0 0" style="fill:#595a5c;fill-opacity:1;fill-rule:nonzero;stroke:none" transform="matrix(8.416 0 0 -8.416 430.242 767.805)"/><path d="M0 0c.013-.007.028-.012.043-.017.453-.159.856-.213 1.199-.159.351.055.573.234.701.557.105.332.042.608-.193.876-.24.267-.6.487-1.073.656-.474.168-.892.221-1.246.166-.352-.06-.576-.236-.7-.556-.106-.335-.045-.614.193-.879.232-.258.58-.469 1.034-.631l.021-.005zm-.189-.495c-.489.172-.908.38-1.249.618-.344.235-.595.502-.744.791a1.17 1.17 0 0 0-.054.95c.123.332.339.571.641.706.297.133.659.183 1.074.151a5.47 5.47 0 0 0 1.359-.313 5.94 5.94 0 0 0 .882-.388c.237-.128.445-.269.618-.421l.033-.029 1.245 3.522.702-.249a.228.228 0 0 0 .137-.133.301.301 0 0 0 .005-.209l-.343-.968.637-.224c.041-.015.066-.064.062-.111a.705.705 0 0 0-.042-.174.713.713 0 0 0-.077-.163c-.026-.044-.08-.068-.117-.055l-.64.226L2.885.049c-.122-.334-.338-.57-.64-.697-.298-.135-.661-.186-1.079-.154a5.342 5.342 0 0 0-1.355.307" style="fill:#595a5c;fill-opacity:1;fill-rule:nonzero;stroke:none" transform="matrix(8.416 0 0 -8.416 274.718 741.521)"/><path d="m0 0-.078.028-.015.005-.098.563.055-.02A5.24 5.24 0 0 1 1.335.268c.454-.025.863.048 1.217.211.328.152.585.385.783.714l.019.031-.035.012-2.436.861-.107.609 3.567-1.261a.257.257 0 0 0 .133-.14.287.287 0 0 0 .003-.208C4.291.646 4.028.305 3.694.077a2.582 2.582 0 0 0-1.132-.424 4.493 4.493 0 0 0-1.311.027A7.223 7.223 0 0 0 0 0" style="fill:#595a5c;fill-opacity:1;fill-rule:nonzero;stroke:none" transform="matrix(8.416 0 0 -8.416 257.928 709.181)"/><path d="m0 0-.36-.246-1.021 1.497-3.564-2.429-.553.274 3.814 2.599-2.196 3.224.613.419a.23.23 0 0 0 .191.032.295.295 0 0 0 .169-.12l.561-.826.018-.024.023.017.536.365c.036.024.091.016.124-.015a.73.73 0 0 0 .118-.137.74.74 0 0 0 .085-.16c.019-.046.008-.104-.025-.124l-.538-.367-.024-.017.015-.025L.1.836C.298.547.252.171 0 0" style="fill:#595a5c;fill-opacity:1;fill-rule:nonzero;stroke:none" transform="matrix(8.416 0 0 -8.416 622.775 694.33)"/><path d="M0 0a.865.865 0 0 1-.374-.621 1.091 1.091 0 0 1 .192-.723c.168-.237.368-.385.609-.453.244-.066.474-.026.709.125.232.167.356.369.384.62.025.251-.04.49-.203.727C1.163-.1.969.045.723.117.478.188.241.149.001.001Zm1.438-2.116c-.469-.307-.931-.44-1.371-.393a1.425 1.425 0 0 0-1.056.613 1.346 1.346 0 0 0-.222.564 1.522 1.522 0 0 0 0 .447l.011.068-.057-.038-.397-.271-.549.268L-.74.139l-.343.504.637.435a.21.21 0 0 0 .187.027.34.34 0 0 0 .176-.123L.101.711l1.288.877c.036.026.09.016.124-.015a.434.434 0 0 0 .084-.098l.03-.045.034-.048a.461.461 0 0 0 .057-.109c.017-.046.007-.098-.025-.119L1.262.86 1.205.821l.067-.014a1.422 1.422 0 0 0 .855-.579c.244-.37.307-.774.184-1.207-.117-.427-.411-.809-.873-1.137" style="fill:#595a5c;fill-opacity:1;fill-rule:nonzero;stroke:none" transform="matrix(8.416 0 0 -8.416 574.974 671.703)"/><path d="m0 0-.367-.161-1.547 3.484-.399-.176L-1.022.241c.141-.32.03-.681-.25-.805l-.367-.164-.262.589-2.66-1.179a.443.443 0 0 0-.355.007.56.56 0 0 0-.278.283L-7.16 3.4l2.448 1.086c.038.012.091-.007.121-.047a.664.664 0 0 0 .089-.153.746.746 0 0 0 .056-.172c.01-.05-.011-.103-.047-.119l-1.51-.671-.027-.011.012-.028 1.649-3.713a.197.197 0 0 1 .105-.107.194.194 0 0 1 .143-.01l2.007.892-2.06 4.64.646.286a.217.217 0 0 0 .191-.005.34.34 0 0 0 .147-.144l.646-1.457.398.176-.757 1.706.655.293a.222.222 0 0 0 .185-.007.287.287 0 0 0 .146-.147L.25.807C.393.485.28.125 0 0" style="fill:#595a5c;fill-opacity:1;fill-rule:nonzero;stroke:none" transform="matrix(8.416 0 0 -8.416 565.013 730.475)"/><path d="m0 0-.381.415.054.016c.419.121.8.297 1.129.521.335.225.59.49.757.79.155.281.205.573.151.894l-.005.031-.031-.007-2.04-.461-.415.459 5.574 1.258c.041.004.086-.025.108-.069a.41.41 0 0 0 .041-.117l.005-.026.007-.027.013-.054a.476.476 0 0 0 .013-.124c.001-.046-.026-.099-.067-.108l-2.066-.467-.031-.006.009-.03c.089-.314.26-.556.52-.742a2.337 2.337 0 0 1 1.019-.389 4.022 4.022 0 0 1 1.247.014l.056.01-.167-.539-.015-.002c-.681-.113-1.295-.121-1.827-.014-.499.098-.868.261-1.133.501l-.031.028-.015-.039c-.135-.329-.399-.635-.808-.939C1.236.452.68.195.016.005Z" style="fill:#595a5c;fill-opacity:1;fill-rule:nonzero;stroke:none" transform="matrix(8.416 0 0 -8.416 452.293 737.445)"/><path d="m0 0-.396-.089-.464 2.056-2.421-.547-.413.458L2.44 3.263c.04.004.085-.027.107-.071a.361.361 0 0 0 .042-.115l.008-.035v-.001l.004-.021.013-.05a.48.48 0 0 0 .014-.124c0-.051-.031-.1-.067-.108L.114 2.187.43.793C.512.428.319.073 0 0" style="fill:#595a5c;fill-opacity:1;fill-rule:nonzero;stroke:none" transform="matrix(8.416 0 0 -8.416 480.697 759.068)"/><path d="M0 0c.454-.07.86-.055 1.21.047.342.1.531.299.602.622.03.319-.092.562-.386.763-.303.2-.687.34-1.141.412-.453.07-.861.054-1.212-.047-.34-.103-.529-.297-.596-.61-.036-.33.087-.575.381-.774C-.838.209-.455.07 0 0m.356 2.302a5.665 5.665 0 0 0 1.301-.352c.396-.165.707-.376.929-.628.227-.251.323-.54.283-.867-.06-.32-.246-.58-.533-.749-.287-.172-.647-.275-1.069-.313a5.705 5.705 0 0 0-1.354.058 5.803 5.803 0 0 0-1.306.354c-.391.165-.701.375-.923.624a1.092 1.092 0 0 0-.282.877c.062.322.242.569.534.738.288.174.648.279 1.075.315.421.037.874.017 1.345-.057" style="fill:#595a5c;fill-opacity:1;fill-rule:nonzero;stroke:none" transform="matrix(8.416 0 0 -8.416 344.488 761.255)"/><path d="m0 0-5.023.779-.002.001a.401.401 0 0 0-.292.198.596.596 0 0 0-.079.393l.183 1.165 4.458-.691.079.511-4.332.674-.217.578 5.369-.836a.257.257 0 0 0 .157-.107.286.286 0 0 0 .041-.21l-.2-1.294-4.459.691-.068-.423a.214.214 0 0 1 .031-.148.21.21 0 0 1 .124-.089L.076.525C.119.518.152.475.155.429A.593.593 0 0 0 .147.241.654.654 0 0 0 .102.07C.083.026.038-.006 0 0" style="fill:#595a5c;fill-opacity:1;fill-rule:nonzero;stroke:none" transform="matrix(8.416 0 0 -8.416 371.454 739.829)"/><path d="m0 0-.217.571 6.209-.965c.044-.004.077-.049.081-.094a.486.486 0 0 0-.005-.129l-.01-.058-.008-.056a.571.571 0 0 0-.033-.125c-.018-.042-.064-.075-.107-.068Z" style="fill:#595a5c;fill-opacity:1;fill-rule:nonzero;stroke:none" transform="matrix(8.416 0 0 -8.416 322.15 740.84)"/><path d="m0 0-.005-.002-4.234-4.224-.584.157.914.91-1.751 1.755.534.533a.249.249 0 0 0 .175.055c.068 0 .138-.03.195-.082l1.553-1.556.63.628-1.75 1.755.527.527a.267.267 0 0 0 .183.061.291.291 0 0 0 .193-.089l1.549-1.555L-.374.367c.031.031.088.033.128.009A.435.435 0 0 0-.115.26l.044-.039A.451.451 0 0 0 .004.125C.029.086.027.028 0 0" style="fill:#595a5c;fill-opacity:1;fill-rule:nonzero;stroke:none" transform="matrix(8.416 0 0 -8.416 675.375 639.1)"/><path d="m0 0-.281-.278-.027.04a7.449 7.449 0 0 1-.507.665c-.191.224-.376.427-.555.608l-1.299 1.302-.021.02-.022-.021-3.033-3.024-.589.16 3.796 3.786c.048.049.111.07.18.065a.296.296 0 0 0 .191-.088l1.38-1.383C-.623 1.687-.04 1.1.124.759A.697.697 0 0 0 0 0" style="fill:#595a5c;fill-opacity:1;fill-rule:nonzero;stroke:none" transform="matrix(8.416 0 0 -8.416 659.53 636.009)"/><path d="m0 0-.609-.032-.117.196 1.807 1.204.112-.191C.741.714.454.313.331-.027.175-.462.192-.844.386-1.174c.148-.253.357-.435.629-.545.271-.11.592-.129.964-.054.371.073.835.273 1.395.6.543.319.937.62 1.18.905.244.287.383.567.417.839.034.274-.023.537-.171.79-.2.344-.46.548-.777.616-.316.065-.638.002-.966-.189l-.441-.258a.224.224 0 0 1-.118-.17c-.008-.072.021-.166.088-.279l.215-.369-.222-.13L1.51 2.41l.221.13.146-.247c.064-.11.131-.178.199-.2.07-.024.143-.012.221.034l1.791 1.048.114-.195a22.558 22.558 0 0 1-.673-.69c.346.005.644-.057.893-.184s.449-.32.599-.578A2.13 2.13 0 0 0 5.314.329a2.438 2.438 0 0 0-.421-1.245A3.246 3.246 0 0 0 3.801-1.92a3.234 3.234 0 0 0-1.416-.46 2.616 2.616 0 0 0-1.321.234c-.403.191-.699.448-.889.772a1.64 1.64 0 0 0-.209.588c-.031.207-.02.47.034.786" style="fill:#595a5c;fill-opacity:1;fill-rule:nonzero;stroke:none" transform="matrix(8.416 0 0 -8.416 84.791 572.281)"/><path d="m0 0 2.583.092-.686 1.647Zm-1.005-.311-.088.211 3.892 3.582c.157.145.192.322.106.53l-.06.144.254.107.774-1.862-.254-.105-.061.147c-.081.195-.161.322-.239.383a.17.17 0 0 1-.18.021.409.409 0 0 1-.113-.073l-.904-.829L2.89.101l.7.037c.186.01.327.036.423.075.11.047.185.135.224.263.039.128.022.284-.055.467l-.066.158.255.105.703-1.689L4.82-.59c-.075.181-.177.306-.305.376-.129.069-.33.1-.605.089z" style="fill:#595a5c;fill-opacity:1;fill-rule:nonzero;stroke:none" transform="matrix(8.416 0 0 -8.416 72.932 537.638)"/><path d="m0 0-.305 1.167 3.361 4.026-2.989-.78c-.3-.078-.506-.201-.618-.366-.102-.151-.126-.344-.07-.575l-.267-.071-.446 1.712.267.071c.045-.176.105-.299.179-.372a.663.663 0 0 1 .344-.153c.154-.027.313-.02.477.022l4.175 1.09.081-.31L.687 1.288l3.171.828c.288.074.484.197.589.369.107.171.125.399.056.682l.267.069.486-1.864-.267-.069a.77.77 0 0 1-.391.491.861.861 0 0 1-.622.056L.416.921.362.845C.262.701.206.604.194.551a.564.564 0 0 1 .015-.26L.267.069Z" style="fill:#595a5c;fill-opacity:1;fill-rule:nonzero;stroke:none" transform="matrix(8.416 0 0 -8.416 54.563 512.695)"/><path d="m0 0-.57.217-.026.227 2.139.368.025-.221C.968.352.543.102.291-.16c-.318-.333-.457-.69-.414-1.069.032-.292.15-.543.354-.754.204-.21.49-.358.858-.441.369-.084.876-.089 1.52-.016.625.07 1.107.186 1.446.349.339.162.579.362.721.598.143.235.197.499.164.79-.044.396-.198.688-.461.877-.262.189-.583.263-.959.221L3.013.337a.218.218 0 0 1-.177-.108c-.037-.062-.049-.159-.034-.29l.048-.424-.256-.029-.237 2.105.256.028.033-.285c.013-.126.047-.215.101-.263.054-.05.125-.068.215-.058l2.062.231.026-.224a22.842 22.842 0 0 1-.895-.358c.319-.137.566-.313.741-.53.176-.218.281-.475.314-.772a2.12 2.12 0 0 0-.218-1.214 2.428 2.428 0 0 0-.891-.967 3.252 3.252 0 0 0-1.405-.476 3.24 3.24 0 0 0-1.481.153 2.642 2.642 0 0 0-1.111.75c-.292.337-.459.693-.5 1.067-.025.213-.009.42.046.622.056.202.172.437.35.705" style="fill:#595a5c;fill-opacity:1;fill-rule:nonzero;stroke:none" transform="matrix(8.416 0 0 -8.416 42.112 430.334)"/><path d="m0 0 .035 1.205 4.356 2.921-3.088.091c-.311.009-.543-.051-.696-.179-.14-.116-.216-.294-.229-.532l-.275.008.051 1.768.276-.009c-.005-.179.017-.316.069-.407a.657.657 0 0 1 .287-.241c.14-.07.294-.108.463-.113l4.314-.126-.009-.322L1.02 1.043 4.297.947c.296-.009.519.055.669.189.15.135.231.347.245.638l.275-.007L5.43-.159l-.276.008a.778.778 0 0 1-.237.582.865.865 0 0 1-.583.228L.657.767.585.709C.448.6.367.521.341.474A.557.557 0 0 1 .282.22L.275-.008Z" style="fill:#595a5c;fill-opacity:1;fill-rule:nonzero;stroke:none" transform="matrix(8.416 0 0 -8.416 36.91 410.774)"/><path d="m0 0 .665 3.947 1.823-.21-.037-.225c-.585.006-1.008-.069-1.267-.224a.963.963 0 0 1-.468-.701L.551 1.61c-.013-.078 0-.14.039-.189.039-.048.105-.08.2-.096l1.908-.321.073.426a.691.691 0 0 1-.171.6c-.153.172-.411.295-.773.367l.039.233 2.482-.418-.039-.233c-.413.058-.72.03-.922-.084a.733.733 0 0 1-.366-.544L2.956.96 5.085.602c.077-.013.141.001.19.042.049.042.083.118.102.23l.13.771c.14.835-.353 1.415-1.481 1.736l.041.243 1.982-.421-.693-4.105-.271.046.058.339c.022.132.013.23-.028.292-.04.063-.107.102-.201.118L.669.607C.574.624.501.612.447.572.393.533.357.463.341.361L.272-.046Z" style="fill:#595a5c;fill-opacity:1;fill-rule:nonzero;stroke:none" transform="matrix(8.416 0 0 -8.416 39.54 356.522)"/><path d="m0 0 .702 2.225.263-.082-.142-.447c-.037-.12-.043-.21-.015-.271.027-.061.084-.105.17-.132L3.902.37c.306-.097.545-.144.717-.144.255.001.482.078.682.23.199.153.349.388.449.705.139.438.121.811-.05 1.117-.172.307-.462.525-.87.655l-2.378.749a2.174 2.174 0 0 1-.491.11.645.645 0 0 1-.291-.037.464.464 0 0 1-.196-.151 1.278 1.278 0 0 1-.167-.377l-.263.083.574 1.821.263-.083-.041-.13c-.065-.205-.053-.375.033-.512s.241-.241.466-.312l2.547-.804c.555-.175.934-.457 1.137-.846.23-.437.257-.932.083-1.484-.15-.478-.341-.83-.574-1.058a1.369 1.369 0 0 0-.816-.397c-.238-.028-.514.008-.829.107L.759.599A.25.25 0 0 1 .547.581C.485.545.438.476.407.375L.263-.083Z" style="fill:#595a5c;fill-opacity:1;fill-rule:nonzero;stroke:none" transform="matrix(8.416 0 0 -8.416 47.388 312.158)"/><path d="m0 0 .527 1.084 5.17.873L2.92 3.309c-.279.135-.516.176-.707.123-.176-.048-.319-.179-.428-.392l-.248.12.775 1.592.247-.121c-.08-.162-.114-.295-.105-.399a.653.653 0 0 1 .162-.338c.099-.123.225-.22.376-.294l3.881-1.888-.141-.289L1.358.532 4.306-.902c.266-.13.496-.164.687-.103.193.061.355.222.486.482l.249-.122-.844-1.732-.247.121a.775.775 0 0 1 .021.628.852.852 0 0 1-.436.447L.914.43.823.406C.654.362.548.324.505.292A.549.549 0 0 1 .347.085l-.1-.205z" style="fill:#595a5c;fill-opacity:1;fill-rule:nonzero;stroke:none" transform="matrix(8.416 0 0 -8.416 64.327 260.93)"/><path d="m0 0-.292.536.129.19L1.701-.386 1.576-.57C.965-.361.479-.275.118-.311c-.46-.045-.796-.226-1.011-.543a1.252 1.252 0 0 1-.22-.802c.017-.293.138-.59.365-.894.226-.303.607-.637 1.144-1 .52-.353.962-.578 1.326-.675.363-.096.674-.101.936-.015.261.088.474.252.639.495.224.329.297.651.221.966-.078.314-.273.578-.587.791l-.422.286a.221.221 0 0 1-.204.033c-.07-.023-.141-.09-.215-.198l-.239-.354-.213.144L2.826-.324l.213-.145-.161-.237c-.071-.106-.104-.194-.094-.266.009-.072.051-.133.125-.184l1.718-1.165-.127-.188c-.313.114-.618.218-.913.311.154-.311.226-.606.219-.886a1.454 1.454 0 0 0-.263-.789 2.129 2.129 0 0 0-.956-.781 2.427 2.427 0 0 0-1.306-.156c-.471.066-.93.25-1.376.552-.448.305-.79.664-1.025 1.08a2.623 2.623 0 0 0-.358 1.293c-.001.446.103.824.314 1.135.12.177.268.325.44.442.174.118.415.22.724.308" style="fill:#595a5c;fill-opacity:1;fill-rule:nonzero;stroke:none" transform="matrix(8.416 0 0 -8.416 108.428 190.249)"/><path d="m0 0 .886 1.062.431-.36L.432-.36Z" style="fill:#595a5c;fill-opacity:1;fill-rule:nonzero;stroke:none" transform="matrix(8.416 0 0 -8.416 139.881 190.89)"/><path d="m0 0 1.225 1.159.189-.199-.086-.082c-.129-.122-.2-.21-.216-.265-.015-.055-.001-.105.042-.152a.759.759 0 0 1 .182-.117l.062-.036 3.119-1.797-1.536 2.933c-.325.191-.528.288-.611.295-.082.006-.183-.049-.304-.162l-.222-.211-.191.2 1.532 1.45.189-.201-.159-.15c-.139-.132-.217-.228-.236-.292a.163.163 0 0 1 .041-.167.492.492 0 0 1 .113-.089L6.348.244 4.849 3.079a1.226 1.226 0 0 1-.201.286c-.112.119-.22.183-.324.191-.103.008-.205-.035-.305-.13l-.115-.108-.189.2 1.15 1.089.191-.199a.822.822 0 0 1-.167-.306.684.684 0 0 1 0-.312c.023-.112.091-.272.203-.48L7.257-.786 7.08-.953 3.491 1.146l1.941-3.662-.186-.175L.896-.168C.726-.07.594-.023.5-.029.407-.035.304-.093.189-.201Z" style="fill:#595a5c;fill-opacity:1;fill-rule:nonzero;stroke:none" transform="matrix(8.416 0 0 -8.416 130.463 155.829)"/><path d="M0 0c-.366-.251-.551-.618-.554-1.102-.003-.482.249-1.093.756-1.833.551-.801 1.047-1.276 1.49-1.422.444-.148.837-.104 1.181.132.24.165.404.379.49.644.087.265.08.585-.019.962-.1.377-.319.811-.656 1.305-.37.537-.709.921-1.016 1.153-.309.233-.607.357-.895.374A1.217 1.217 0 0 1 0 0m-.205.202C.146.443.543.569.986.581 1.43.593 1.861.48 2.279.243A3.278 3.278 0 0 0 3.365-.782c.307-.447.496-.909.568-1.389a2.485 2.485 0 0 0-.144-1.334 2.105 2.105 0 0 0-.764-.967 2.012 2.012 0 0 0-1.142-.35c-.429-.004-.857.116-1.285.361A3.35 3.35 0 0 0-.505-3.425a3.26 3.26 0 0 0-.56 1.369c-.072.473-.027.911.134 1.318.16.405.403.718.726.94" style="fill:#595a5c;fill-opacity:1;fill-rule:nonzero;stroke:none" transform="matrix(8.416 0 0 -8.416 195.975 101.905)"/><path d="m0 0 1.082.533 4.62-2.479L4.336.823c-.138.28-.299.456-.483.532-.168.07-.362.054-.579-.047l-.121.247 1.587.782.122-.246c-.163-.08-.272-.165-.328-.252a.648.648 0 0 1-.079-.367c.003-.157.042-.311.116-.462L6.48-2.861l-.288-.142L1.399-.412 2.85-3.354c.13-.265.292-.432.48-.501.19-.07.416-.042.679.083l.122-.249-1.728-.851-.122.247a.771.771 0 0 1 .403.482.858.858 0 0 1-.072.622L.985-.222.9-.185c-.161.07-.268.105-.322.106a.575.575 0 0 1-.251-.067L.122-.247Z" style="fill:#595a5c;fill-opacity:1;fill-rule:nonzero;stroke:none" transform="matrix(8.416 0 0 -8.416 220.45 84.145)"/><path d="m0 0 2.11.733.09-.259L1.9.37C1.782.328 1.706.275 1.672.212c-.035-.064-.037-.14-.006-.228l1.155-3.327c.09-.257.113-.509.068-.756a1.346 1.346 0 0 0-.338-.671 1.675 1.675 0 0 0-.696-.445c-.382-.133-.738-.121-1.065.036a1.276 1.276 0 0 0-.672.761c-.09.259-.1.486-.032.685a.587.587 0 0 0 .371.389.501.501 0 0 0 .414-.026.573.573 0 0 0 .275-.333.537.537 0 0 0 .001-.379.364.364 0 0 0-.219-.23.609.609 0 0 0-.174-.022.467.467 0 0 1-.126-.013.105.105 0 0 1-.07-.078c-.013-.041-.007-.094.015-.158.06-.174.197-.303.408-.389a.929.929 0 0 1 .673-.006.806.806 0 0 1 .531.522c.086.254.066.56-.059.918L.984-.252c-.031.09-.083.148-.155.173-.073.025-.178.015-.316-.034L.091-.26Z" style="fill:#595a5c;fill-opacity:1;fill-rule:nonzero;stroke:none" transform="matrix(8.416 0 0 -8.416 276.97 58.773)"/><path d="m0 0 2.281.487.058-.269-.457-.099C1.759.094 1.678.054 1.638 0c-.039-.053-.05-.124-.032-.213l.641-2.999c.067-.314.144-.546.229-.695a1.11 1.11 0 0 1 .537-.48c.231-.097.509-.112.834-.043.449.097.765.295.948.596.182.3.228.66.139 1.079L4.413-.316a2.217 2.217 0 0 1-.147.481.652.652 0 0 1-.175.235.503.503 0 0 1-.229.096c-.087.013-.223-.001-.411-.041l-.057.27 1.868.398.057-.269-.133-.029c-.21-.044-.353-.138-.43-.28-.076-.144-.09-.33-.041-.56l.557-2.611c.123-.57.064-1.039-.173-1.408-.268-.415-.685-.684-1.25-.805-.491-.104-.892-.111-1.204-.022-.313.09-.562.261-.749.514-.141.194-.247.451-.315.775L.896-.365a.258.258 0 0 1-.12.176c-.062.036-.145.042-.25.02L.058-.27Z" style="fill:#595a5c;fill-opacity:1;fill-rule:nonzero;stroke:none" transform="matrix(8.416 0 0 -8.416 302.022 50.053)"/><path d="m0 0 1.206.02 3.115-4.218-.05 3.089c-.004.31-.075.54-.209.686-.123.136-.304.203-.543.205l-.004.276 1.769.028.004-.275c-.181-.003-.315-.033-.403-.087a.664.664 0 0 1-.229-.298 1.107 1.107 0 0 1-.092-.469l.07-4.314-.322-.006L1.089-.971l.053-3.278c.004-.297.078-.517.219-.66.141-.144.358-.216.649-.216l.005-.275-1.926-.032-.005.276a.77.77 0 0 1 .569.263.86.86 0 0 1 .202.593L.796-.622l-.061.07C.619-.42.537-.343.489-.319a.551.551 0 0 1-.257.048L.005-.274Z" style="fill:#595a5c;fill-opacity:1;fill-rule:nonzero;stroke:none" transform="matrix(8.416 0 0 -8.416 372.958 37.766)"/><path d="m0 0-1.193-2.293 1.77-.216zm.227 1.026L.453.999l1.195-5.152c.048-.209.184-.326.408-.354l.156-.018-.033-.275-2.001.245.034.274.159-.02c.208-.025.358-.019.449.019a.17.17 0 0 1 .108.146.388.388 0 0 1-.008.134L.646-2.807l-1.984.244-.313-.628a1.404 1.404 0 0 1-.143-.405.388.388 0 0 1 .117-.325c.093-.098.238-.158.434-.183l.17-.02-.034-.273-1.818.221.034.274c.195-.024.354.004.478.081.124.076.249.237.375.481z" style="fill:#595a5c;fill-opacity:1;fill-rule:nonzero;stroke:none" transform="matrix(8.416 0 0 -8.416 441.962 47.678)"/><path d="m0 0 3.978-1.002-.406-2.015-.228.057c.144 1.209-.103 1.894-.74 2.055-.128.032-.222.03-.282-.005-.059-.036-.102-.109-.131-.218L1.132-5.337c-.023-.086-.015-.154.021-.207.036-.052.108-.092.213-.118l.494-.124-.067-.268-2.275.575.067.266.562-.141c.076-.019.138-.014.188.016.05.03.084.079.101.146l1.075 4.27c.022.091.014.165-.025.224s-.115.103-.227.132C.938-.486.631-.581.334-.853c-.244-.224-.478-.615-.7-1.171l-.241.06z" style="fill:#595a5c;fill-opacity:1;fill-rule:nonzero;stroke:none" transform="matrix(8.416 0 0 -8.416 472.306 44.177)"/><path d="m0 0 2.192-.786-.092-.26-.376.135c-.167.06-.282.075-.341.046-.061-.029-.116-.116-.168-.262L-.173-4.999c-.056-.155-.071-.259-.047-.312.033-.071.116-.13.252-.179l.421-.151L.36-5.9l-2.193.785.093.26.415-.149c.145-.052.248-.062.307-.032.06.031.118.123.173.277L.543-.886c.053.148.065.245.039.294-.041.074-.142.141-.303.198l-.372.134z" style="fill:#595a5c;fill-opacity:1;fill-rule:nonzero;stroke:none" transform="matrix(8.416 0 0 -8.416 513.12 55.223)"/><path d="M0 0c-.399.193-.81.171-1.23-.065-.421-.238-.828-.759-1.218-1.566-.424-.875-.589-1.541-.497-1.999.091-.458.325-.778.7-.96.263-.127.529-.162.803-.107.272.056.546.22.825.494.277.273.547.68.807 1.218.284.585.451 1.07.499 1.453.049.384.009.704-.119.962A1.217 1.217 0 0 1 0 0m.074.277c.383-.184.69-.467.92-.846.23-.38.346-.81.347-1.29a3.294 3.294 0 0 0-.352-1.453 3.306 3.306 0 0 0-.925-1.18c-.38-.3-.791-.479-1.229-.537a2.112 2.112 0 0 0-1.219.184 2 2 0 0 0-.871.82c-.216.369-.323.801-.323 1.295 0 .494.118.984.353 1.471.234.481.537.868.912 1.164.375.296.778.475 1.21.536.432.062.825.008 1.177-.164" style="fill:#595a5c;fill-opacity:1;fill-rule:nonzero;stroke:none" transform="matrix(8.416 0 0 -8.416 557.337 74.775)"/><path d="m0 0 .999-.675.136-5.242 1.729 2.56c.174.257.248.485.222.683-.023.182-.132.341-.327.479l.153.228 1.467-.991-.154-.229c-.15.103-.277.156-.381.161a.648.648 0 0 1-.358-.113 1.08 1.08 0 0 1-.343-.331L.727-7.046l-.267.18-.125 5.447L-1.5-4.136c-.166-.246-.232-.468-.199-.667.034-.198.17-.381.409-.548l-.154-.228-1.597 1.078.154.229a.768.768 0 0 1 .618-.11.852.852 0 0 1 .505.369L.296-.965l-.01.093c-.02.174-.043.284-.068.331a.563.563 0 0 1-.183.186l-.189.127z" style="fill:#595a5c;fill-opacity:1;fill-rule:nonzero;stroke:none" transform="matrix(8.416 0 0 -8.416 584.91 87.26)"/><path d="m0 0-2.292-1.195 1.328-1.192zm.773.713.17-.152-1.97-4.91c-.08-.198-.036-.372.131-.522l.118-.106-.185-.205-1.499 1.347.184.204.119-.106c.156-.14.282-.221.38-.242a.169.169 0 0 1 .172.058.45.45 0 0 1 .07.114l.459 1.137-1.487 1.335-.617-.335a1.383 1.383 0 0 1-.347-.25.389.389 0 0 1-.091-.334c.02-.133.103-.266.251-.397l.127-.115-.184-.205-1.362 1.223.184.205c.145-.131.292-.2.437-.207.146-.008.341.052.584.18z" style="fill:#595a5c;fill-opacity:1;fill-rule:nonzero;stroke:none" transform="matrix(8.416 0 0 -8.416 635.752 134.87)"/><path d="m0 0 1.537-1.769-.208-.181-.367.424c-.059.066-.12.099-.186.098-.065-.001-.139-.037-.22-.107L-2.68-4.347c-.078-.067-.115-.134-.112-.204.002-.068.057-.163.163-.285l.465-.535c.248-.285.553-.43.914-.434.361-.003.83.173 1.406.529l.157-.18-1.654-1.283-2.76 3.176.208.181.272-.312c.093-.107.179-.162.26-.168.081-.005.169.034.265.118L.106-.962c.069.059.105.123.109.19.004.066-.026.134-.086.205l-.337.386z" style="fill:#595a5c;fill-opacity:1;fill-rule:nonzero;stroke:none" transform="matrix(8.416 0 0 -8.416 662.167 148.834)"/><path d="m0 0 1.186-2.009-.238-.14-.237.403c-.064.107-.128.173-.19.193-.064.021-.135.008-.213-.038L-2.333-3.15c-.276-.163-.472-.308-.586-.437a1.088 1.088 0 0 1-.284-.661c-.021-.25.055-.519.223-.805.233-.395.522-.632.865-.71.343-.077.698-.008 1.067.211l2.149 1.268c.189.111.326.209.409.291a.666.666 0 0 1 .167.241.468.468 0 0 1 .018.247c-.014.087-.071.212-.169.376l.238.141.97-1.645-.237-.139-.069.117c-.11.184-.243.29-.404.317-.159.027-.339-.018-.543-.138L-.818-5.833c-.502-.296-.965-.391-1.39-.281-.48.122-.865.431-1.159.929-.255.432-.389.811-.404 1.135-.013.325.07.616.25.874.138.196.35.376.634.544L-.062-.965a.248.248 0 0 1 .128.169c.015.07-.005.151-.059.243l-.244.413z" style="fill:#595a5c;fill-opacity:1;fill-rule:nonzero;stroke:none" transform="matrix(8.416 0 0 -8.416 701.108 196.626)"/><path d="m0 0 .454-1.117-2.806-4.43L.51-4.384c.288.118.476.266.565.445.081.163.079.356-.006.58l.255.103.667-1.639-.256-.103c-.068.167-.143.282-.227.345-.083.062-.203.096-.36.104a1.063 1.063 0 0 1-.469-.083l-3.998-1.627-.121.298 2.927 4.595-3.036-1.236c-.275-.111-.454-.258-.536-.443-.083-.183-.071-.411.033-.683l-.255-.103-.725 1.784.255.105a.768.768 0 0 1 .452-.436.863.863 0 0 1 .625.025L-.292-.967l.043.082c.08.156.123.261.128.314a.545.545 0 0 1-.049.256l-.086.211z" style="fill:#595a5c;fill-opacity:1;fill-rule:nonzero;stroke:none" transform="matrix(8.416 0 0 -8.416 727.9 243.449)"/><path d="m0 0 .635-2.241-.265-.075-.109.384c-.048.171-.102.273-.16.304-.059.032-.163.027-.311-.015l-3.958-1.121c-.158-.044-.252-.091-.28-.143-.039-.068-.04-.17 0-.309l.122-.43-.266-.076-.635 2.243.265.074.121-.424c.042-.149.093-.238.152-.269.06-.03.168-.023.327.022l3.958 1.12c.15.043.238.09.261.139.038.076.033.197-.013.361l-.109.381z" style="fill:#595a5c;fill-opacity:1;fill-rule:nonzero;stroke:none" transform="matrix(8.416 0 0 -8.416 746.278 291.594)"/><path d="m0 0 .368-2.095-.271-.048-.064.363c-.026.151-.063.25-.112.297a.185.185 0 0 1-.169.052.65.65 0 0 1-.211-.098l-.07-.04-3.356-1.94 3.625-.559a.843.843 0 0 1 .252.009c.136.024.234.08.296.165a.41.41 0 0 1 .06.321l-.06.34.272.047.321-1.836L.61-5.07l-.026.147c-.02.113-.096.215-.229.306-.132.092-.337.159-.613.203l-4.745.753-.044.245L-.571-.819c.148.089.246.178.294.268a.54.54 0 0 1 .035.342l-.029.162z" style="fill:#595a5c;fill-opacity:1;fill-rule:nonzero;stroke:none" transform="matrix(8.416 0 0 -8.416 753.453 315.79)"/><path d="m0 0 .179-4-1.826-.178-.011.23c.573.117.971.278 1.191.485a.96.96 0 0 1 .311.783l-.044.989c-.004.08-.029.138-.078.177-.048.039-.12.057-.216.052l-1.934-.086.02-.432a.69.69 0 0 1 .293-.551c.185-.137.463-.202.833-.198l.01-.234-2.513-.113-.011.235c.415.03.709.122.883.278a.725.725 0 0 1 .243.608l-.018.395-2.158-.096c-.078-.004-.136-.031-.175-.082-.041-.05-.057-.133-.052-.246l.035-.781c.038-.847.642-1.309 1.811-1.387l.011-.245-2.025-.005-.186 4.159.276.013.014-.345c.006-.134.035-.228.088-.28.053-.052.127-.077.223-.073l4.3.194c.095.004.165.031.21.08.044.05.064.127.059.228l-.018.413z" style="fill:#595a5c;fill-opacity:1;fill-rule:nonzero;stroke:none" transform="matrix(8.416 0 0 -8.416 761.49 366.155)"/><path d="m0 0-.05-.596c-.033-.398.023-.718.165-.958.144-.239.422-.376.836-.41.285-.024.514 0 .687.071a.705.705 0 0 1 .368.307c.072.134.125.403.159.81.023.268.016.435-.019.502s-.101.104-.199.112zm2.616 1.328-.216-2.6c-.042-.504-.198-.884-.467-1.142-.27-.258-.605-.37-1.004-.336-.24.02-.449.093-.625.218a1.198 1.198 0 0 0-.408.513c-.093.218-.146.55-.158.999-.122-.316-.234-.531-.336-.646a1.011 1.011 0 0 0-.379-.264c-.151-.061-.455-.122-.909-.181-.326-.042-.55-.097-.674-.164-.094-.051-.145-.111-.151-.179-.006-.071.044-.141.15-.21.107-.069.299-.122.579-.159l-.019-.233c-.826.113-1.218.432-1.174.958a.704.704 0 0 0 .172.42.8.8 0 0 0 .421.241c.136.037.486.061 1.05.074.327.008.562.042.705.104a.807.807 0 0 1 .358.319c.096.149.154.333.171.55l.034.412-2.127.177C-2.48.207-2.546.19-2.586.15c-.051-.05-.081-.133-.091-.249l-.04-.484-.274.023.194 2.339.275-.022-.041-.494c-.009-.11.007-.191.049-.246A.246.246 0 0 1-2.33.925L1.997.564c.092-.007.164.013.215.061.051.049.08.126.089.233l.041.494z" style="fill:#595a5c;fill-opacity:1;fill-rule:nonzero;stroke:none" transform="matrix(8.416 0 0 -8.416 740.993 421.918)"/><path d="m0 0 .401-.396-.05-.245-1.943.382.046.221c.623.015 1.1.129 1.429.344.329.214.531.497.604.849a.997.997 0 0 1-.134.782.976.976 0 0 1-.637.425.93.93 0 0 1-.471-.014.83.83 0 0 1-.379-.254c-.109-.124-.251-.374-.423-.748C-1.8.822-2.01.462-2.188.269a1.322 1.322 0 0 0-.601-.394 1.492 1.492 0 0 0-.737-.019c-.48.1-.846.332-1.099.698-.253.365-.33.785-.232 1.26.106.511.376.917.808 1.221l-.418.481.051.241 2.061-.428-.05-.24c-.588.023-1.08-.093-1.476-.351-.396-.257-.637-.59-.722-.998-.068-.33-.019-.621.148-.873.167-.252.399-.409.699-.471a.86.86 0 0 1 .472.024.93.93 0 0 1 .401.305c.122.151.298.462.526.933.252.518.485.859.699 1.021.303.228.678.295 1.126.202.468-.097.822-.316 1.063-.654.24-.34.317-.726.227-1.159A1.537 1.537 0 0 0 .516.5 2.168 2.168 0 0 0 0 0" style="fill:#595a5c;fill-opacity:1;fill-rule:nonzero;stroke:none" transform="matrix(8.416 0 0 -8.416 749.919 481.81)"/><path d="m0 0-.686-2.227-.262.081.117.382c.053.17.062.285.03.343-.031.059-.121.11-.268.155l-3.932 1.21c-.157.049-.262.06-.313.033-.07-.036-.126-.123-.168-.259l-.132-.428-.263.081.685 2.227.263-.081-.13-.421c-.045-.149-.051-.252-.018-.31.034-.057.129-.11.286-.159l3.932-1.21c.149-.046.248-.055.295-.025.073.044.133.147.184.311l.116.378z" style="fill:#595a5c;fill-opacity:1;fill-rule:nonzero;stroke:none" transform="matrix(8.416 0 0 -8.416 749.54 497.383)"/><path d="m0 0-1.58-3.785-1.934.7.091.217c1.174-.322 1.888-.18 2.141.427.051.122.063.214.037.28-.026.063-.092.117-.195.161L-5.446-.327c-.081.034-.151.036-.208.009-.057-.029-.106-.094-.148-.194l-.196-.469-.255.105.904 2.165.255-.105-.223-.537c-.031-.07-.035-.133-.012-.187A.227.227 0 0 1-5.2.339l4.064-1.696c.085-.037.16-.039.225-.009.064.029.119.098.164.206.127.304.078.623-.147.956-.184.274-.536.563-1.054.866l.095.231z" style="fill:#595a5c;fill-opacity:1;fill-rule:nonzero;stroke:none" transform="matrix(8.416 0 0 -8.416 741.33 523.914)"/><path d="m0 0-1.098-1.922-.239.137.122.213c.101.177.152.301.153.372 0 .07-.026.12-.079.15a.317.317 0 0 1-.173.044l-2.496-.051 1.127-1.706a.572.572 0 0 1 .2-.184.405.405 0 0 1 .322-.051c.104.029.191.106.263.231l.117.204.239-.136-.956-1.673-.239.137c.109.191.159.362.15.514-.01.152-.085.335-.226.552l-1.414 2.153-1.492.854c-.078.045-.146.056-.204.034a.478.478 0 0 1-.213-.217l-.216-.376-.238.136 1.151 2.014.239-.137-.228-.396c-.06-.108-.084-.197-.07-.268a.255.255 0 0 1 .134-.17l1.451-.83 3.058.059a.604.604 0 0 1 .324.089c.085.057.181.177.292.361z" style="fill:#595a5c;fill-opacity:1;fill-rule:nonzero;stroke:none" transform="matrix(8.416 0 0 -8.416 725.493 561.408)"/><path d="M0 0v-4.517c0-.067.023-.119.071-.155a.434.434 0 0 1 .259-.077h.701v-.271h-2.604v.271h.598c.127 0 .219.03.281.09.059.059.09.138.09.237v3.412c0 .07-.028.128-.083.177a.317.317 0 0 1-.214.073h-.803v.249c.376.048.683.113.917.195.234.08.441.186.621.316z" style="fill:#595a5c;fill-opacity:1;fill-rule:nonzero;stroke:none" transform="matrix(8.416 0 0 -8.416 348.823 609.668)"/><path d="M0 0a.807.807 0 0 1-.666-.339C-.84-.564-.927-.903-.927-1.356c0-.416.087-.726.261-.928a.85.85 0 0 1 .682-.307c.277 0 .509.11.7.328.188.221.284.528.284.924 0 .41-.099.736-.296.978C.509-.12.274 0 0 0m1.015-2.254a1.652 1.652 0 0 0-.551-.534 1.404 1.404 0 0 0-.706-.18c-.362 0-.69.127-.985.379-.296.254-.444.627-.444 1.119 0 .481.163.889.489 1.227.328.334.718.504 1.172.504.498 0 .914-.207 1.248-.622.332-.416.5-.997.5-1.747 0-.623-.092-1.149-.277-1.577-.184-.429-.43-.747-.732-.956A1.776 1.776 0 0 0-.3-4.954c-.37 0-.657.082-.867.245-.208.162-.313.356-.313.583 0 .15.043.271.128.363a.436.436 0 0 0 .327.137.417.417 0 0 0 .425-.405c0-.079-.039-.168-.115-.264-.047-.059-.07-.112-.07-.157 0-.067.039-.125.119-.175.078-.049.208-.073.385-.073.25 0 .47.068.662.208.191.138.344.366.463.684.119.317.177.727.177 1.232z" style="fill:#595a5c;fill-opacity:1;fill-rule:nonzero;stroke:none" transform="matrix(8.416 0 0 -8.416 379.972 611.073)"/><path d="m0 0-1.748-2.448H0Zm.379.976h.234v-3.424h.834v-.308H.613v-.77c0-.068.029-.122.079-.164a.46.46 0 0 1 .269-.083h.308v-.271H-.74v.271h.373c.126 0 .219.028.276.081.06.052.091.129.091.23v.706h-2.049v.347z" style="fill:#595a5c;fill-opacity:1;fill-rule:nonzero;stroke:none" transform="matrix(8.416 0 0 -8.416 417.565 617.878)"/><path d="M0 0a.941.941 0 0 1-.739-.327c-.192-.219-.286-.526-.286-.922 0-.43.092-.758.276-.984a.879.879 0 0 1 .711-.34c.285 0 .513.107.685.322.175.215.262.534.262.963 0 .453-.08.781-.24.984C.509-.103.285 0 0 0m-1.077-.348c.187.251.385.43.594.539.207.109.435.163.682.163a1.36 1.36 0 0 0 1.009-.408c.273-.27.406-.613.406-1.029 0-.5-.16-.914-.478-1.244a1.6 1.6 0 0 0-1.193-.496c-.333 0-.63.089-.89.265-.26.179-.474.454-.638.831-.166.376-.248.816-.248 1.317 0 .544.101 1.036.304 1.477.202.442.461.772.777.993.314.22.642.332.985.332.352 0 .649-.097.898-.289.204-.159.306-.346.306-.565a.496.496 0 0 0-.135-.362.44.44 0 0 0-.332-.142.433.433 0 0 0-.308.119.372.372 0 0 0-.13.283c0 .073.03.155.087.247.054.084.079.15.079.198a.192.192 0 0 1-.097.167.66.66 0 0 1-.358.083c-.232 0-.447-.073-.639-.221-.195-.147-.356-.399-.492-.758a3.446 3.446 0 0 1-.201-1.208c0-.064.004-.162.012-.292" style="fill:#595a5c;fill-opacity:1;fill-rule:nonzero;stroke:none" transform="matrix(8.416 0 0 -8.416 450.678 629.007)"/><path d="M0 0c.781 0 1.416-.635 1.416-1.416 0-.779-.635-1.412-1.416-1.412h-12.893c-.04 0-.058.004-.063.004-5.005.067-9.06 4.154-9.06 9.176 0 5.014 4.041 9.095 9.026 9.175.002-.002.033.006.097.008H0a1.416 1.416 0 1 0 0-2.83h-12.832c-3.493-.008-6.346-2.859-6.352-6.352.006-3.496 2.859-6.346 6.351-6.349.02 0 .034-.002.043-.003H0Z" style="fill:#c2b59c;fill-opacity:1;fill-rule:nonzero;stroke:none" transform="matrix(8.416 0 0 -8.416 582.976 384.063)"/><path d="M0 0a1.418 1.418 0 1 0 0 2.834h12.834c3.492.003 6.341 2.853 6.348 6.346-.007 3.495-2.856 6.345-6.369 6.353h.007H0c-.783 0-1.416.639-1.418 1.418A1.42 1.42 0 0 0 0 18.368l12.889-.001c.072 0 .123-.012.132-.013 4.976-.103 8.992-4.174 8.993-9.174-.001-5.025-4.058-9.112-9.056-9.174 0 .003-.015-.005-.069-.006Z" style="fill:#28aae1;fill-opacity:1;fill-rule:nonzero;stroke:none" transform="matrix(8.416 0 0 -8.416 215.695 459.051)"/><path d="M0 0c.002.001-.004.014-.006.066v12.891a1.416 1.416 0 0 0 2.835 0V.1c.019-3.485 2.862-6.322 6.349-6.329 3.494.007 6.343 2.856 6.349 6.35.001.031.003.045.003.045v12.791a1.417 1.417 0 0 0 2.834 0h.001L18.364.066a1.367 1.367 0 0 0-.022-.244c-.162-4.925-4.205-8.882-9.163-8.883C4.151-9.06.062-5.004 0 0" style="fill:#a90056;fill-opacity:1;fill-rule:nonzero;stroke:none" transform="matrix(8.416 0 0 -8.416 321.224 275.822)"/><path d="M0 0v12.795a.174.174 0 0 0-.003.038c-.003 3.497-2.853 6.347-6.347 6.352-3.494-.005-6.347-2.855-6.35-6.352a.277.277 0 0 0-.004-.053V0a1.415 1.415 0 1 0-2.83 0v12.891c0 .068.009.107.009.105.089 4.986 4.17 9.018 9.175 9.02 5.021-.002 9.105-4.055 9.174-9.057v-.004a.452.452 0 0 0 .006-.064V0A1.416 1.416 0 1 0 0 0" style="fill:#fbb040;fill-opacity:1;fill-rule:nonzero;stroke:none" transform="matrix(8.416 0 0 -8.416 484.104 567.194)"/><path d="M0 0h-.014" style="fill:#595a5c;fill-opacity:1;fill-rule:nonzero;stroke:none" transform="matrix(8.416 0 0 -8.416 280.015 749.913)"/></svg>