<svg xmlns="http://www.w3.org/2000/svg" width="209.29437mm" height="175.82027mm" viewBox="0 0 209.29437 175.82027"><path d="M0 0c-30.613 0-55.434 19.791-55.434 44.195 0 24.415 24.821 44.202 55.434 44.202 30.618 0 55.436-19.787 55.436-44.202C55.436 19.791 30.618 0 0 0" style="fill:#fff;fill-opacity:1;fill-rule:nonzero;stroke:none" transform="matrix(1.45685 0 0 -1.45685 104.641 152.3)"/><path d="M0 0c-30.613 0-55.434 19.791-55.434 44.195 0 24.415 24.821 44.202 55.434 44.202 30.618 0 55.436-19.787 55.436-44.202C55.436 19.791 30.618 0 0 0m0 104.54c-39.666 0-71.827-27.016-71.827-60.345 0-33.32 32.161-60.34 71.827-60.34 39.671 0 71.835 27.02 71.835 60.34 0 33.329-32.164 60.345-71.835 60.345" style="fill:#423e41;fill-opacity:1;fill-rule:nonzero;stroke:none" transform="matrix(1.45685 0 0 -1.45685 104.641 152.3)"/><path d="M0 0a1.743 1.743 0 1 0-3.486 0A1.743 1.743 0 0 0 0 0" style="fill:#ebad23;fill-opacity:1;fill-rule:nonzero;stroke:none" transform="matrix(1.45685 0 0 -1.45685 30.73 131.468)"/><path d="M0 0a1.743 1.743 0 1 0-3.485 0A1.743 1.743 0 0 0 0 0" style="fill:#ebad23;fill-opacity:1;fill-rule:nonzero;stroke:none" transform="matrix(1.45685 0 0 -1.45685 184.484 131.468)"/><path d="m0 0-1.665-.351-.843 3.999 3.936.831c.487-.304.962-.792 1.425-1.465A5.916 5.916 0 0 0 3.787.871c.203-.962.162-1.846-.12-2.651-.284-.806-.791-1.474-1.521-2.004A6.53 6.53 0 0 0-.373-4.877c-1.029-.217-1.986-.209-2.87.023A4.294 4.294 0 0 0-5.455-3.48c-.452.52-.771 1.219-.956 2.096-.24 1.141-.171 2.087.209 2.837.379.749 1.003 1.312 1.872 1.687l.759-1.765c-.458-.231-.789-.556-.995-.972-.205-.417-.252-.892-.139-1.427.171-.811.583-1.397 1.236-1.76.654-.362 1.525-.428 2.612-.199 1.173.248 2.002.675 2.486 1.284.484.608.643 1.305.477 2.091a3.042 3.042 0 0 1-.492 1.117 4.04 4.04 0 0 1-.808.881l-1.254-.265Z" style="fill:#fff;fill-opacity:1;fill-rule:nonzero;stroke:none" transform="matrix(1.45685 0 0 -1.45685 15.587 99.437)"/><path d="m0 0-3.795-1.147L-.1-2.561Zm4.128 3.334-.08-2.062-2.324-.73-.146-3.751 2.262-.864-.078-2.01-9.949 4.048.078 2.004z" style="fill:#fff;fill-opacity:1;fill-rule:nonzero;stroke:none" transform="matrix(1.45685 0 0 -1.45685 14.075 83.393)"/><path d="m0 0-9.718 2.746.501 1.775 7.535 1.866-6.489 1.833.479 1.696L2.026 7.17l-.518-1.831-7.366-1.853L.479 1.695Z" style="fill:#fff;fill-opacity:1;fill-rule:nonzero;stroke:none" transform="matrix(1.45685 0 0 -1.45685 20.342 77.982)"/><path d="m0 0-1.487.827L.499 4.399l3.516-1.954c.168-.548.207-1.228.115-2.039a5.908 5.908 0 0 0-.699-2.232c-.478-.858-1.087-1.499-1.829-1.922C.859-4.171.039-4.343-.86-4.264a6.523 6.523 0 0 0-2.619.825c-.919.511-1.637 1.144-2.152 1.9A4.295 4.295 0 0 0-6.4.948c-.001.689.216 1.426.652 2.21.567 1.019 1.239 1.687 2.017 2.005.778.317 1.618.333 2.521.046l-.584-1.83c-.498.125-.961.098-1.39-.082-.428-.179-.774-.508-1.04-.986-.403-.724-.476-1.437-.22-2.139.257-.702.87-1.323 1.842-1.862 1.047-.583 1.954-.803 2.718-.661.765.142 1.342.564 1.732 1.266.193.347.313.735.36 1.166.048.431.037.829-.033 1.195l-1.12.622z" style="fill:#fff;fill-opacity:1;fill-rule:nonzero;stroke:none" transform="matrix(1.45685 0 0 -1.45685 22.372 57.474)"/><path d="m0 0-8.946 5.196 1.316 1.427 6.06-3.66-3.937 5.963 1.528 1.658 6.303-3.569-4.21 5.84 1.294 1.404 5.88-8.521-1.363-1.48L-2.895 8l4.289-6.488Z" style="fill:#fff;fill-opacity:1;fill-rule:nonzero;stroke:none" transform="matrix(1.45685 0 0 -1.45685 32.21 52.028)"/><path d="M0 0c.667-.929 1.372-1.489 2.115-1.682.743-.193 1.422-.069 2.036.372.614.441.947 1.041.999 1.799.053.759-.263 1.613-.946 2.564-.675.94-1.371 1.504-2.086 1.691-.716.187-1.39.053-2.026-.403-.634-.456-.978-1.057-1.03-1.804C-.991 1.789-.678.944 0 0m-1.547-1.196c-.6.836-.987 1.62-1.162 2.355a4.787 4.787 0 0 0-.098 1.634 3.67 3.67 0 0 0 .456 1.447c.32.558.79 1.059 1.411 1.506 1.124.807 2.293 1.078 3.506.813 1.213-.266 2.299-1.066 3.258-2.401.951-1.325 1.361-2.601 1.228-3.829C6.92-.9 6.293-1.917 5.173-2.722c-1.134-.815-2.303-1.09-3.507-.827-1.205.263-2.275 1.048-3.213 2.353" style="fill:#fff;fill-opacity:1;fill-rule:nonzero;stroke:none" transform="matrix(1.45685 0 0 -1.45685 40.302 33.851)"/><path d="m0 0-4.544 9.019 1.648.83 6.467-4.293-3.034 6.023 1.573.793 4.544-9.019-1.699-.856-6.345 4.177L1.573.793Z" style="fill:#fff;fill-opacity:1;fill-rule:nonzero;stroke:none" transform="matrix(1.45685 0 0 -1.45685 54.223 33.18)"/><path d="m0 0 1.742.638C2.013.019 2.351-.4 2.756-.62c.406-.22.888-.259 1.447-.118.592.149 1.005.396 1.237.741.232.345.303.698.212 1.059a.964.964 0 0 1-.338.543c-.168.131-.424.217-.769.257-.235.026-.762.045-1.58.057-1.051.015-1.824.163-2.319.446A2.716 2.716 0 0 0-.689 4.124a2.75 2.75 0 0 0 .042 1.499c.154.501.449.927.887 1.278.438.352 1.007.616 1.706.793 1.143.287 2.072.235 2.785-.158.714-.393 1.198-1.036 1.454-1.929l-1.817-.55c-.205.484-.465.803-.78.958-.314.155-.73.168-1.248.037-.534-.134-.923-.358-1.166-.67a.753.753 0 0 1-.138-.681.796.796 0 0 1 .423-.526c.285-.151.903-.227 1.854-.229.952-.002 1.673-.07 2.163-.204.49-.135.909-.383 1.257-.742.349-.36.6-.85.756-1.468a3.136 3.136 0 0 0-.037-1.686 2.75 2.75 0 0 0-.955-1.403c-.47-.371-1.101-.657-1.892-.856-1.151-.29-2.107-.227-2.869.19C.975-1.807.396-1.065 0 0" style="fill:#fff;fill-opacity:1;fill-rule:nonzero;stroke:none" transform="matrix(1.45685 0 0 -1.45685 72.1 20.175)"/><path d="m0 0-1.146 8.312-2.761-.381-.234 1.692 7.394 1.02.233-1.692-2.754-.38L1.878.259Z" style="fill:#fff;fill-opacity:1;fill-rule:nonzero;stroke:none" transform="matrix(1.45685 0 0 -1.45685 88.47 21.474)"/><path d="m0 0-1.441 3.693-1.12-3.795zm3.647-3.854-2.061-.082-.911 2.26-3.751-.149-.683-2.322-2.011-.08 3.256 10.236 2.004.079z" style="fill:#fff;fill-opacity:1;fill-rule:nonzero;stroke:none" transform="matrix(1.45685 0 0 -1.45685 101.634 14.492)"/><path d="m0 0 .474 8.377-2.782.157.096 1.706 7.452-.422-.097-1.705-2.776.157-.474-8.377Z" style="fill:#fff;fill-opacity:1;fill-rule:nonzero;stroke:none" transform="matrix(1.45685 0 0 -1.45685 109.156 20.387)"/><path d="m0 0 1.642 9.965 6.871-1.132-.278-1.686-5 .824-.364-2.209 4.652-.766-.276-1.679-4.652.766-.447-2.712L7.325.518l-.276-1.679Z" style="fill:#fff;fill-opacity:1;fill-rule:nonzero;stroke:none" transform="matrix(1.45685 0 0 -1.45685 116.778 20.885)"/><path d="m0 0 1.765-.694-2.002-5.09c-.319-.808-.502-1.34-.553-1.596a1.647 1.647 0 0 1 .176-1.139c.192-.345.535-.614 1.027-.808.501-.197.922-.236 1.263-.115.341.12.6.33.778.63.178.3.413.822.705 1.566l2.045 5.199 1.765-.694-1.942-4.936c-.443-1.129-.804-1.907-1.083-2.335-.279-.428-.609-.753-.992-.972a2.861 2.861 0 0 0-1.329-.362c-.505-.021-1.102.104-1.794.376-.835.328-1.427.681-1.776 1.058-.35.377-.585.78-.705 1.21-.12.43-.149.842-.085 1.236.096.584.351 1.402.764 2.453z" style="fill:#fff;fill-opacity:1;fill-rule:nonzero;stroke:none" transform="matrix(1.45685 0 0 -1.45685 142.18 11.525)"/><path d="m0 0 4.979 8.786 1.605-.91.019-7.762 3.325 5.867 1.533-.869-4.98-8.786-1.655.939-.047 7.596-3.247-5.73Z" style="fill:#fff;fill-opacity:1;fill-rule:nonzero;stroke:none" transform="matrix(1.45685 0 0 -1.45685 148.764 30.055)"/><path d="m0 0 5.845 8.236 1.546-1.098-5.844-8.236Z" style="fill:#fff;fill-opacity:1;fill-rule:nonzero;stroke:none" transform="matrix(1.45685 0 0 -1.45685 159.699 36.592)"/><path d="m0 0 4.125 9.81 1.548-1.354-3.135-7.19 6.653 4.109 1.514-1.325-9.182-5.383Z" style="fill:#fff;fill-opacity:1;fill-rule:nonzero;stroke:none" transform="matrix(1.45685 0 0 -1.45685 165.998 41.374)"/><path d="m0 0 7.8 6.415 4.423-5.378-1.32-1.085-3.218 3.913-1.73-1.422L8.95-1.199l-1.313-1.08-2.995 3.641L2.519-.384l3.333-4.052-1.315-1.081Z" style="fill:#fff;fill-opacity:1;fill-rule:nonzero;stroke:none" transform="matrix(1.45685 0 0 -1.45685 172.164 46.945)"/><path d="m0 0 .667-1.234c.434-.8.74-1.28.92-1.44a1.03 1.03 0 0 1 .629-.264c.238-.017.491.046.758.191.298.162.5.366.603.614.104.248.107.52.009.817-.053.146-.262.557-.628 1.233l-.704 1.302Zm-6.028-1.104L2.854 3.7 4.753.189c.477-.883.745-1.567.802-2.054.056-.486-.054-.96-.332-1.421-.278-.461-.679-.834-1.204-1.118-.667-.36-1.316-.475-1.948-.346-.631.129-1.199.526-1.704 1.19a4.465 4.465 0 0 0-.263-1.296c-.143-.381-.453-.958-.928-1.729l-1.188-1.947-1.078 1.995 1.28 2.251c.459.803.737 1.331.831 1.586.094.255.127.489.098.701-.029.213-.146.511-.354.894l-.183.338-3.708-2.005z" style="fill:#fff;fill-opacity:1;fill-rule:nonzero;stroke:none" transform="matrix(1.45685 0 0 -1.45685 188.38 54.542)"/><path d="m0 0 .698-1.719C.089-2.01-.318-2.363-.523-2.776c-.206-.412-.229-.896-.069-1.45.17-.586.431-.99.784-1.211.353-.22.708-.278 1.066-.175a.968.968 0 0 1 .531.358c.125.171.201.43.231.776.017.237.018.764.001 1.582-.022 1.051.1 1.829.365 2.333A2.716 2.716 0 0 0 4.098.832a2.73 2.73 0 0 0 1.5.01A2.598 2.598 0 0 0 6.906 0c.366-.425.651-.984.851-1.678.327-1.132.307-2.062-.061-2.788-.369-.727-.994-1.234-1.877-1.52l-.613 1.797c.477.222.786.493.931.812.143.32.141.736-.007 1.249-.152.529-.39.91-.71 1.142a.754.754 0 0 1-.686.114.795.795 0 0 1-.51-.44c-.141-.29-.196-.911-.164-1.862.031-.951-.012-1.674-.13-2.168a2.718 2.718 0 0 0-.698-1.283c-.347-.36-.828-.629-1.441-.806a3.137 3.137 0 0 0-1.687-.021 2.74 2.74 0 0 0-1.433.905c-.389.457-.695 1.077-.922 1.861-.33 1.141-.301 2.099.09 2.874C-1.771-1.037-1.051-.433 0 0" style="fill:#fff;fill-opacity:1;fill-rule:nonzero;stroke:none" transform="matrix(1.45685 0 0 -1.45685 189.917 65.585)"/><path d="m0 0 10.01 1.341.251-1.879L.252-1.879Z" style="fill:#fff;fill-opacity:1;fill-rule:nonzero;stroke:none" transform="matrix(1.45685 0 0 -1.45685 188.386 78.947)"/><path d="m0 0 8.389-.171.056 2.786 1.708-.035-.152-7.462-1.708.035.057 2.78-8.389.171z" style="fill:#fff;fill-opacity:1;fill-rule:nonzero;stroke:none" transform="matrix(1.45685 0 0 -1.45685 189.07 86.43)"/><path d="m0 0 4.154-.901 6.445 2.123-.471-2.173-4.373-1.313L9.2-5.227l-.463-2.135L3.74-2.745l-4.14.898Z" style="fill:#fff;fill-opacity:1;fill-rule:nonzero;stroke:none" transform="matrix(1.45685 0 0 -1.45685 188.107 97.588)"/><path d="m0 0-1.145-1.543-1.334.99 3.15 4.248 1.335-.989L.838 1.13 2.185.131l-.839-1.13Zm-7.064.489C-7.668.454-8.137.212-8.47-.237c-.333-.45-.431-.971-.295-1.567a2.338 2.338 0 0 1 .909-1.398 2.307 2.307 0 0 1 1.602-.463c.608.042 1.08.288 1.413.737.333.449.428.968.287 1.556A2.342 2.342 0 0 1-5.471.015a2.367 2.367 0 0 1-1.593.474m5.511 4.856-.451-.608c-1.07-1.442-2.477-2.043-4.221-1.805-1.289.17-2.676.772-4.161 1.806l.878 1.184c1.373-.962 2.584-1.467 3.633-1.515.91-.046 1.601.25 2.074.887l-3.834 2.844.822 1.108zM-2.997-1.18c.277-1.025.115-1.944-.487-2.755-.601-.811-1.436-1.236-2.502-1.276-.987-.043-1.903.249-2.747.875-.845.626-1.386 1.415-1.623 2.365-.255 1.009-.079 1.922.529 2.741.601.811 1.421 1.241 2.46 1.291.974.041 1.883-.251 2.727-.877C-3.795.558-3.248-.23-2.997-1.18" style="fill:#ebad23;fill-opacity:1;fill-rule:nonzero;stroke:none" transform="matrix(1.45685 0 0 -1.45685 50.354 146.305)"/><path d="m0 0 2.647 6.062 1.523-.665L.586-2.81l-1.523.665.39.893-2.59 1.131.547 1.252zm-4.408 7.83c-.451-.157-.765-.439-.942-.844-.17-.388-.161-.805.027-1.251.205-.454.537-.781.997-.982a1.8 1.8 0 0 1 1.359-.047c.463.162.78.437.949.825.177.405.166.828-.034 1.27-.2.442-.521.759-.964.952-.46.201-.924.226-1.392.077m3.774-.585c.427-.797.469-1.588.127-2.373-.326-.744-.927-1.21-1.804-1.397-.799-.173-1.593-.087-2.383.258-.842.368-1.475.905-1.9 1.612-.468.775-.539 1.534-.214 2.278.347.794.959 1.298 1.839 1.515.822.201 1.663.115 2.522-.26.816-.357 1.42-.901 1.813-1.633m-4.512-3.979-3.58 1.563.553 1.265 7.719-3.371-.552-1.265-2.63 1.148L-4.702.164l-1.51.66zm-3.236-.063 1.497-.654-1.18-2.702L.266-3.792l-.558-1.277-8.916 3.895c-.304.132-.499.301-.585.506-.092.217-.063.495.085.834z" style="fill:#ebad23;fill-opacity:1;fill-rule:nonzero;stroke:none" transform="matrix(1.45685 0 0 -1.45685 65.25 158.5)"/><path d="m0 0-.281-1.351L-8.889.438-9.55-2.74l8.609-1.79-.281-1.351-9.29 1.931c-.334.07-.56.195-.676.376-.127.182-.153.455-.077.817l1.015 4.887zm-5.544-4.969-.697-3.35 5.09-1.058-.286-1.378-11.766 2.446.286 1.377 5.09-1.058.697 3.351z" style="fill:#ebad23;fill-opacity:1;fill-rule:nonzero;stroke:none" transform="matrix(1.45685 0 0 -1.45685 90.45 154.992)"/><path d="m0 0 1.662-.022-.083-6.155-1.662.022zm-.106-8.928-7.343.099-.014-1.082 7.342-.099zm-8.946 2.366 1.634-.021-.013-.92 7.343-.099.012.919 1.648-.022-.05-3.679c-.004-.369-.098-.635-.28-.794-.154-.152-.396-.225-.728-.22l-8.635.116c-.332.004-.577.084-.735.24-.169.165-.25.432-.246.801zm4.744 5.253-5.212.071.019 1.366 6.874-.092-.047-3.477-5.213.07-.01-.798L.326-4.28.308-5.646l-8.891.12c-.332.005-.577.089-.736.254-.168.173-.249.444-.244.814l.032 2.435 5.213-.07z" style="fill:#ebad23;fill-opacity:1;fill-rule:nonzero;stroke:none" transform="matrix(1.45685 0 0 -1.45685 108.884 155.678)"/><path d="m0 0-1.285-.238L-.121-6.53l-1.509-.279-2.081 11.254 1.508.279.665-3.592 1.284.238-.664 3.591 1.551.288L2.714-6.005l-1.55-.287Zm-7.34-3.82 5.141.95.253-1.37-5.741-1.061c-.335-.062-.591-.055-.77.022-.23.095-.374.307-.435.635l-1.454 7.862 5.336.987.253-1.371-3.687-.681z" style="fill:#ebad23;fill-opacity:1;fill-rule:nonzero;stroke:none" transform="matrix(1.45685 0 0 -1.45685 130.404 160.042)"/><path d="m0 0 .851-2.079-1.539-.629-2.079 5.084 1.538.629.702-1.715 1.551.634.528-1.29Zm3.103-7.588-1.539-.629L.315-5.162-7.98-8.554l-.534 1.302L1.321-3.23ZM-8.475-2.354c-.192-.381-.214-.751-.068-1.11.14-.342.412-.582.815-.719a1.657 1.657 0 0 1 1.198.037c.385.158.675.427.867.808.201.383.231.747.092 1.089-.147.359-.427.605-.839.739a1.677 1.677 0 0 1-1.18-.044 1.694 1.694 0 0 1-.885-.8m3.371 1.816c.229-.111.43-.253.603-.425.185-.178.325-.384.421-.618.31-.759.265-1.509-.139-2.249-.379-.7-.971-1.215-1.778-1.545-.815-.333-1.611-.387-2.39-.159-.824.238-1.391.737-1.702 1.496a1.942 1.942 0 0 0-.144.73c.002.245.054.491.159.738l-.895-.366-.511 1.252 2.616 1.07L-9.279.4l1.657.678.414-1.015 2.473 1.011.511-1.252z" style="fill:#ebad23;fill-opacity:1;fill-rule:nonzero;stroke:none" transform="matrix(1.45685 0 0 -1.45685 151.935 149.54)"/><path d="m0 0 1.523 1.069-2.765 3.943 1.337.938L2.86 2.007l4.025 2.822.807-1.152-9.838-6.901-.808 1.152L-1.35-.946l-2.764 3.943 1.348.946zm5.129 2.706L.104 9.871l-7.072-4.959-.8 1.141 8.432 5.913L6.489 3.66Z" style="fill:#ebad23;fill-opacity:1;fill-rule:nonzero;stroke:none" transform="matrix(1.45685 0 0 -1.45685 165.022 152.033)"/><path d="M127.698 184.375h5.518v-15.89h-5.518zM134.789 184.375h5.518v-20.242h-5.518zM141.966 184.375h5.516v-15.89h-5.516z" style="fill:#388176;fill-opacity:1;fill-rule:nonzero;stroke:none;stroke-width:.352778" transform="translate(-463.61 -639.767) scale(4.12966)"/><path d="M0 0c18.874 0 36.014-2.124 48.674-5.609C37.623-.378 19.942 6.097 0 6.097c-19.938 0-37.618-6.475-48.653-11.706C-36.006-2.124-18.87 0 0 0" style="fill:#2c3d77;fill-opacity:1;fill-rule:nonzero;stroke:none" transform="matrix(1.45685 0 0 -1.45685 106.68 91.768)"/><path d="M0 0c15.296 0 29.166-2.136 39.418-5.609C30.478-.394 16.149 6.089 0 6.089c-16.141 0-30.466-6.483-39.414-11.698C-29.162-2.136-15.276 0 0 0" style="fill:#2c3d77;fill-opacity:1;fill-rule:nonzero;stroke:none" transform="matrix(1.45685 0 0 -1.45685 106.68 106.94)"/><path d="M0 0c0-.658-.243-1.141-.735-1.454-.491-.313-1.154-.471-1.982-.471-.309 0-.626.028-.946.089a9.27 9.27 0 0 0-.91.203V-.63c.329-.117.621-.211.889-.284a5.89 5.89 0 0 1 .496-.102 3.93 3.93 0 0 1 .552-.044c.195 0 .374.016.54.04.167.033.317.082.447.171a.886.886 0 0 1 .329.284.7.7 0 0 1 .142.455c0 .175-.04.325-.125.447-.09.126-.187.227-.309.313-.264.183-.54.341-.841.471-.203.098-.439.199-.682.325a5.261 5.261 0 0 0-.723.406c-.22.15-.406.333-.553.545a1.197 1.197 0 0 0-.219.702c0 .609.219 1.052.658 1.34.439.285 1.008.423 1.702.423.174 0 .353-.008.532-.033a12.22 12.22 0 0 0 1.3-.28v-.95a4.823 4.823 0 0 1-.918.3 4.222 4.222 0 0 1-.975.118c-.329 0-.605-.074-.824-.223a.715.715 0 0 1-.326-.63c0-.11.033-.211.098-.293a1.923 1.923 0 0 1 .581-.483c.126-.069.268-.142.422-.211.496-.219.873-.402 1.125-.54.256-.138.467-.268.634-.398A1.65 1.65 0 0 0-.178.727C-.069.54-.012.292 0 0" style="fill:#231f20;fill-opacity:1;fill-rule:nonzero;stroke:none" transform="matrix(1.45685 0 0 -1.45685 75.336 134.549)"/><path d="M131.33 188.147h-.408v-2.32h.408z" style="fill:#231f20;fill-opacity:1;fill-rule:nonzero;stroke:none;stroke-width:.352778" transform="translate(-463.61 -639.767) scale(4.12966)"/><path d="M0 0h-1.239l-2.778 4.894V0h-1.117v6.575h1.235l2.782-4.898v4.898H0Z" style="fill:#231f20;fill-opacity:1;fill-rule:nonzero;stroke:none" transform="matrix(1.45685 0 0 -1.45685 88.153 137.217)"/><path d="M0 0h-1.202c0 .28-.041.491-.118.625-.081.142-.178.26-.292.354a1.553 1.553 0 0 1-.431.186 1.886 1.886 0 0 1-.463.078c-.268 0-.528-.049-.772-.142a1.788 1.788 0 0 1-.661-.463 2.18 2.18 0 0 1-.467-.825 3.072 3.072 0 0 1-.171-1.011c0-.22.028-.476.097-.78.061-.309.175-.609.346-.902.178-.268.414-.503.71-.686.297-.183.682-.281 1.154-.281a3.3 3.3 0 0 1 .967.147c.296.097.653.251 1.056.455v-1.012c-.119-.048-.232-.101-.342-.15a2.978 2.978 0 0 0-.438-.142 6.315 6.315 0 0 0-1.458-.15c-.569 0-1.056.105-1.471.312-.418.203-.772.48-1.048.817-.28.341-.471.719-.58 1.121-.11.402-.167.82-.167 1.251 0 .426.061.84.183 1.23.118.394.321.744.593 1.04.268.288.609.54 1.023.735.411.199.894.293 1.446.293.329 0 .65-.045.951-.138.312-.102.577-.236.808-.411.223-.162.402-.37.54-.605C-.065.71 0 .394 0 0" style="fill:#231f20;fill-opacity:1;fill-rule:nonzero;stroke:none" transform="matrix(1.45685 0 0 -1.45685 98.265 130.525)"/><path d="M0 0h-4.273v6.575h4.188v-.873h-3.034V3.87h2.9v-.873h-2.9V.877H0Z" style="fill:#231f20;fill-opacity:1;fill-rule:nonzero;stroke:none" transform="matrix(1.45685 0 0 -1.45685 105.685 137.217)"/><path d="M0 0h-1.133v5.512l-1.353-.667V5.8l1.56.824H0Z" style="fill:#231f20;fill-opacity:1;fill-rule:nonzero;stroke:none" transform="matrix(1.45685 0 0 -1.45685 115.52 137.318)"/><path d="M0 0c0-.183.028-.366.081-.532.061-.171.138-.317.24-.43a.834.834 0 0 1 .349-.269 1.12 1.12 0 0 1 .439-.093c.134 0 .28.033.422.093.138.057.26.15.349.269.11.113.183.259.24.43.057.166.081.349.081.532 0 .182-.024.361-.081.536-.057.175-.13.321-.24.431a.825.825 0 0 1-.349.272 1.175 1.175 0 0 1-.422.089 1.19 1.19 0 0 1-.439-.089.825.825 0 0 1-.349-.272 1.212 1.212 0 0 1-.24-.431A1.843 1.843 0 0 1 0 0m3.212.84c.074-.19.134-.475.187-.844.045-.369.065-.821.065-1.357 0-.378-.028-.755-.085-1.117a3.456 3.456 0 0 0-.329-1.011 2.077 2.077 0 0 0-.735-.8c-.317-.203-.723-.305-1.223-.305a3 3 0 0 0-.909.13 2.075 2.075 0 0 0-.67.353 1.527 1.527 0 0 0-.39.525 1.654 1.654 0 0 0-.139.666H.256c0-.142.012-.268.036-.374a.686.686 0 0 1 .142-.264.748.748 0 0 1 .273-.175c.117-.044.255-.069.414-.069.191 0 .378.065.544.191.162.13.293.301.374.504.105.219.17.455.215.694.041.244.061.407.061.496v.236a1.133 1.133 0 0 0-.284-.199 1.849 1.849 0 0 0-.91-.248c-.394 0-.719.044-.987.146-.256.093-.492.24-.695.438a1.662 1.662 0 0 0-.434.695c-.094.28-.147.573-.147.865 0 .288.053.565.155.845.097.272.243.508.434.695.212.199.467.349.772.442.309.086.61.134.902.134.28 0 .577-.048.881-.142a1.74 1.74 0 0 0 .764-.442c.182-.196.329-.431.446-.708" style="fill:#231f20;fill-opacity:1;fill-rule:nonzero;stroke:none" transform="matrix(1.45685 0 0 -1.45685 119.745 130.715)"/><path d="M0 0c0-.183.025-.366.081-.532a1.26 1.26 0 0 1 .232-.43.846.846 0 0 1 .353-.269c.146-.06.289-.093.439-.093.138 0 .28.033.418.093.142.057.264.15.358.269.101.113.186.259.235.43a1.767 1.767 0 0 1 0 1.068 1.058 1.058 0 0 1-.235.431.857.857 0 0 1-.358.272c-.138.056-.28.089-.418.089-.15 0-.293-.033-.439-.089A.836.836 0 0 1 .313.967 1.202 1.202 0 0 1 .081.536 1.747 1.747 0 0 1 0 0m3.201.84c.089-.19.146-.475.191-.844.044-.369.065-.821.065-1.357 0-.378-.025-.755-.081-1.117a3.026 3.026 0 0 0-.334-1.011 1.972 1.972 0 0 0-.731-.8c-.317-.203-.723-.305-1.219-.305-.341 0-.645.045-.917.13a2.139 2.139 0 0 0-.666.353 1.42 1.42 0 0 0-.386.525 1.528 1.528 0 0 0-.134.666H.248c0-.142.016-.268.044-.374a.632.632 0 0 1 .411-.439c.118-.044.256-.069.41-.069.199 0 .382.065.548.191.167.13.293.301.382.504.089.219.163.455.207.694.045.244.061.407.061.496v.236a1.212 1.212 0 0 0-.284-.199 1.85 1.85 0 0 0-.914-.248c-.386 0-.719.044-.983.146a1.94 1.94 0 0 0-.694.438 1.625 1.625 0 0 0-.435.695 2.64 2.64 0 0 0-.142.865c0 .288.048.565.146.845.097.272.248.508.435.695.215.199.475.349.78.442.304.086.601.134.893.134.284 0 .581-.048.885-.142.309-.093.565-.24.76-.442.187-.196.333-.431.443-.708" style="fill:#231f20;fill-opacity:1;fill-rule:nonzero;stroke:none" transform="matrix(1.45685 0 0 -1.45685 127.526 130.715)"/><path d="M0 0c0 .313-.101.561-.309.748a1.107 1.107 0 0 1-.751.267c-.293 0-.536-.089-.739-.267C-2.002.561-2.104.313-2.104 0c0-.304.102-.556.305-.739.203-.183.446-.268.739-.268.3 0 .556.085.755.268C-.101-.556 0-.304 0 0m-1.06-4.106c.325 0 .597.101.816.304.228.208.338.476.338.821s-.11.621-.338.837a1.181 1.181 0 0 1-.816.316c-.321 0-.601-.109-.825-.316-.231-.216-.345-.492-.345-.837s.114-.613.338-.821a1.2 1.2 0 0 1 .832-.304M1.145 0c0-.239-.048-.463-.15-.682a1.546 1.546 0 0 0-.475-.573 1.01 1.01 0 0 0-.252-.158c.11-.057.219-.126.337-.216.207-.17.366-.381.484-.605.113-.223.166-.471.166-.747 0-.264-.048-.512-.142-.755a1.831 1.831 0 0 0-.455-.658 2.083 2.083 0 0 0-.804-.411 3.206 3.206 0 0 0-1.84 0 2.172 2.172 0 0 0-.804.411c-.207.19-.362.414-.451.658a2.08 2.08 0 0 0-.138.755c0 .276.052.524.167.747.105.224.267.435.483.605.11.09.223.159.337.216-.089.04-.183.089-.264.158A1.634 1.634 0 0 0-3.253 0c0 .248.052.475.154.695.106.219.252.418.443.58.191.175.443.301.739.394.292.086.577.135.857.135.276 0 .569-.049.861-.135.293-.093.54-.219.727-.394A1.72 1.72 0 0 0 .987.707c.11-.219.158-.455.158-.707" style="fill:#231f20;fill-opacity:1;fill-rule:nonzero;stroke:none" transform="matrix(1.45685 0 0 -1.45685 138.531 130.236)"/></svg>