<svg xmlns="http://www.w3.org/2000/svg" xml:space="preserve" width="399.41614" height="404.14774" viewBox="0 0 399.41613 404.14773"><path d="m285.508 277.262 1.195-2.95c-.642-.394-2.71-1.454-3.897-1.936 3.64-.62 6.459-2.734 8.616-8.058 3.476-8.58-.029-16.109-8.494-19.539-8.006-3.243-16.453-.333-20.131 8.745-3.29 8.12-.565 13.282 3.037 15.946l1.615-3.984c-2.148-2.074-3.637-5.443-1.496-10.729 2.763-6.817 9.01-8.479 15.1-6.01 6.435 2.606 9.673 8.154 6.957 14.858-2.297 5.668-6.474 7.722-11.836 5.55l-.804-.326 3.569-8.81-3.257-1.319-5.074 12.526zM269.633 301.116c-7.669-4.44-11.309-6.535-13.21-7.404l.004-.042c1.957-.412 7.181-1.845 14.442-4.058zm4.906-12.398 9.24-2.831.46-4.273-30.518 9.397-.539 5.012 27.767 16.2.486-4.52-8.414-4.852zM281.344 315.872l-28.954 4.725.798 4.894c10.118 5.048 23.55 12.442 26.793 13.588l.014.082c-3.8.326-8.4 1.12-13.09 1.885l-10.89 1.777.627 3.833 28.955-4.724-.753-4.61c-6.495-3.377-23.965-12.165-27.69-13.693l-.013-.081c3.786-.408 7.863-1.074 13.002-1.913l11.827-1.93zM299.415 373.633l-1.358-2.878c-.726.206-2.907 1.007-4.066 1.553 2.012-3.097 2.369-6.602-.082-11.797-3.951-8.373-11.862-10.901-20.123-7.003-7.812 3.686-11.4 11.869-7.22 20.727 3.74 7.924 9.38 9.42 13.782 8.578l-1.834-3.887c-2.98.172-6.466-1.016-8.9-6.174-3.14-6.654-.126-12.373 5.817-15.176 6.28-2.964 12.554-1.582 15.639 4.96 2.61 5.53 1.289 9.994-3.944 12.463l-.785.37-4.055-8.597-3.178 1.5 5.767 12.223zM298.814 387.015c3.332-1.449 6.793-1.102 10.54 3.253 3.772 4.384 3.536 7.532 1.468 9.31-2.192 1.886-4.59 1.824-10.52-3.104-6.867-5.702-10.34-5.493-13.379-2.879-3.916 3.368-2.96 8.98 1.218 13.833 6.225 7.235 11.47 5.666 13.942 3.976l-2.722-3.163c-1.939.85-4.752 1.635-8.795-3.063-2.749-3.195-3.43-6.206-1.208-8.119 1.817-1.563 3.757-1.652 8.97 2.695 8.277 6.833 11.856 5.988 14.957 3.32 3.54-3.046 4.153-8.479-1.615-15.182-5.337-6.202-10.882-6.882-15.632-4.103zM334.301 425.735l-14.387-10.147 5.86-8.309 15.872 11.195 1.552-3.204-18.812-13.267-16.91 23.98 18.541 13.076 2-2.837-15.13-10.67 5.003-7.094 14.387 10.148zM346.017 433.133c2.128-5.91 7.69-10.015 14.535-7.55 6.767 2.433 8.458 8.841 6.303 14.83-2.072 5.756-7.62 9.822-14.543 7.33-6.456-2.323-8.408-8.737-6.295-14.61m24.931 8.842c2.8-7.778-.08-16.37-9.337-19.702-8.906-3.205-16.764 1.171-19.688 9.3-2.758 7.66.58 16.33 9.447 19.52 8.828 3.178 16.808-1.418 19.578-9.118M399.317 459.623l-.63-16.643c-.291-7.723 4.172-10.001 8.59-10.168 5.41-.204 8.729 2.235 9.004 9.503l.628 16.642 4.13-.155-.626-16.602c-.361-9.54-5.461-13.152-13.39-12.852-7.888.298-12.821 4.372-12.475 13.499l.64 16.932zM428.193 428l9.366 27.803 4.7-1.583c3.337-10.804 8.453-25.26 9.056-28.647l.078-.026c.94 3.695 2.47 8.107 3.987 12.611l3.522 10.455 3.681-1.24-9.366-27.804-4.426 1.49c-2.277 6.96-8.11 25.626-9.014 29.55l-.078.025c-1.018-3.668-2.337-7.584-3.999-12.519l-3.826-11.356zM480.597 437.326l-14.975-25.223-3.587 2.13 14.974 25.223zM479.022 402.526l9.353 30.626 3.448-2.96-5.118-16.24c-1.885-6.004-2.886-8.629-3.524-10.26l.063-.054c1.286.802 4.308 2.293 8.956 4.728l15.989 7.783 3.386-2.907-29.01-13.756zM517.732 378.992l-10.315 14.27-8.24-5.958 11.381-15.742-3.187-1.589-13.487 18.657 23.783 17.191 13.292-18.389-2.813-2.033-10.848 15.005-7.034-5.085 10.315-14.268zM527.23 365.218l3.16-8.26c1.639-4.287 3.957-5.834 7.239-4.579 2.972 1.137 3.666 3.837 2.085 7.968l-3.22 8.415zm-3.167-1.21-11.812-4.52-1.462 3.821 27.408 10.486 5.007-13.087c2.142-5.598 1.042-10.355-3.822-12.216-3.32-1.27-6.31-.512-8.483 2.507.192-2.006-.214-4.994-5.04-6.839l-1.197-.459c-2.084-.797-4.401-1.683-5.44-2.435l-1.507 3.938c1.035.883 3.149 1.602 5.465 2.49l.888.338c4.053 1.551 4.722 3.622 2.876 8.446zM529.562 332.874c-3.329-1.46-5.426-4.234-4.779-9.943.652-5.75 3.121-7.716 5.832-7.41 2.875.329 4.46 2.13 4.875 9.83.486 8.916 3 11.322 6.985 11.774 5.133.583 8.6-3.932 9.32-10.298 1.076-9.487-3.64-12.268-6.56-12.933l-.472 4.149c1.943.843 4.432 2.374 3.733 8.535-.475 4.189-2.22 6.736-5.136 6.406-2.382-.271-3.766-1.635-4.12-8.413-.615-10.72-3.668-12.77-7.735-13.232-4.64-.526-9.043 2.717-10.04 11.506-.923 8.133 2.35 12.663 7.618 14.259zM551.529 295.484l-29.248 2.353.334 4.16 29.248-2.352zM545.01 277.059l2.652 10.88 3.413-.832-6.28-25.775-3.412.83 2.64 10.842-25.091 6.11.987 4.058zM512.087 259.87l10.081-4.786c.298-.14.484-.138.796-.057l21.04 3.65-2.127-4.483c-5.99-.954-14.592-2.5-17.38-2.686 1.62-2.37 5.897-9.844 8.926-15.125l-1.967-4.144-10.55 18.641c-.17.22-.249.346-.547.487l-10.045 4.768zM513.69 236.752l-.167-.254a134.849 134.849 0 0 0-11.53-15.095l-.202-.228 2.436-2.15.201.227a138.017 138.017 0 0 1 11.81 15.461l.166.253zM302.611 221.684a133.275 133.275 0 0 0-11.483 15.123l-.166.255-2.72-1.776.165-.255a136.424 136.424 0 0 1 11.765-15.492l.201-.228 2.44 2.145zM387.958 168.862l.662 15.864h12.406v3.315h-16.477l-.741-22.485h17.845v3.306zM404.594 166.763v-10.095h4.204v19.916h5.212v-19.916h4.16v33.959h-4.16v-10.881h-5.212v10.88h-4.204V170.07zM341.424 209.466l-3.185 2.676-14.078-16.56 3.185-2.677 5.646 6.707 4.496-3.778 2.133 2.538-4.497 3.78zM354.518 198.906s-6.514-8.46-18.162-13.52l1.723-3.309s10.081 3.701 16.59 10.986l-1.593-19.507 4.075-.035 1.598 23.338zM369.668 185.3l-6.385 2.445-1.203-3.172 6.467-2.475-8.039-20.407 3.807-1.444 12.21 31.477-3.889 1.476zM439.078 168.861l19.47 7.645 3.17-8.199 4.008 1.538-4.36 11.295-23.476-9.184zM453.358 201.635l-3.842-1.475 7.008-18.26 3.842 1.475-3.11 8.102 5.566 2.136-1.216 3.167-5.565-2.136zM484.944 214.947c.235-.299.526-.67.873-1.083a67.736 67.736 0 0 0 2.005-2.796 76.366 76.366 0 0 0 2.362-3.902 52.384 52.384 0 0 0 2.298-4.85l.127-.31.3.148c.653.319 1.112.567 1.489.807.476.196 1 .478 1.558.84l.204.132-.077.23a32.558 32.558 0 0 1-1.558 3.868 66.891 66.891 0 0 1-2.048 3.68 128.16 128.16 0 0 1-2.134 3.3c-.302.417-.593.809-.872 1.184-.386.52-.747 1.006-1.097 1.504-.341.405-.641.783-.908 1.12-.217.274-.412.52-.59.732l-.893 1.063-20.206-16.977 2.157-2.568 16.814 14.127.196-.249" style="fill:#662c91;fill-opacity:1;fill-rule:nonzero;stroke:none" transform="matrix(1.33333 0 0 -1.33333 -336.52 613.038)"/><path d="m494.832 196.35-6.175 7.35-3.084-2.59 6.176-7.35-4.674-3.926-6.176 7.35-3.083-2.591 6.175-7.35-5.68-4.772 2.158-2.568 26.054 21.89-2.157 2.568zM310.487 189.301c-3.189 2.68-4.274 6.068-2.492 8.19 1.782 2.12 5.307 1.635 8.496-1.045 3.19-2.68 4.274-6.068 2.492-8.189-1.782-2.12-5.307-1.636-8.496 1.044m8.07 9.604c-5.083 4.271-10.814 4.905-13.823 1.325-3.008-3.58-1.396-9.117 3.687-13.388 5.083-4.27 10.814-4.905 13.823-1.325 3.008 3.581 1.396 9.117-3.687 13.388M432.998 181.213c-.915 2.384.7 4.876 3.802 6.067 3.103 1.19 5.97.419 6.885-1.965s-.7-4.877-3.802-6.067c-3.102-1.191-5.97-.42-6.885 1.965m14.51 5.569c-.89 2.314-2.77 3.786-5.155 4.322l4.52 1.735-1.063 2.773-8.636-3.314-1.252 3.262-4.09-1.57 1.252-3.262-8.718-3.346 1.064-2.773 4.684 1.798c-1.413-1.994-1.827-4.346-.94-6.661 1.632-4.25 6.593-5.682 11.914-3.64 5.322 2.043 8.05 6.427 6.42 10.676M330.02 213.303l.167.658-7.64 6.42-7.287 6.124-2.133-2.538 10.978-9.225s-5.798-3.5-14.836-3.325l-.35-4.041s12.556-.688 21.1 5.927M484.666 380.66l-.258 1.889h.006-.006l-.006.049h-.183c-21.7 5.527-61 9.252-81.875 8.938-20.938.315-60.411-3.433-82.071-8.987l-.264-1.937c-.045-.33-4.404-33.376 3.48-71.805 4.643-22.626 12.554-42.693 23.515-59.647 13.694-21.18 32.19-37.507 54.982-48.533.06-.03.303-.14.303-.14s.4.188.49.232c22.749 11.025 41.216 27.337 54.892 48.49 10.96 16.953 18.872 37.02 23.515 59.647 7.884 38.428 3.525 71.476 3.48 71.805" style="fill:#662c91;fill-opacity:1;fill-rule:nonzero;stroke:none" transform="matrix(1.33333 0 0 -1.33333 -336.52 613.038)"/><path d="M398.722 353.392h8.097v1.501h-8.097zM413.278 358.005c-1.77.721-4.16.792-5.671.636-2.02-.21-3.534-1.085-4.753-1.938-.85.56-2.82 1.69-5.197 1.938-.434.045-.923.07-1.414.07-.944 0-2.752-.093-4.261-.708-.774-.315-2.552-1.039-3.824-.627l.01 17.557c1.49-.29 3.343.47 4.16.805l.118.048c1.645.67 3.93.657 5.02.543 1.952-.203 3.855-1.165 4.935-1.954l.457-.353.463.358c1.05.812 2.5 1.744 4.475 1.95 1.092.113 3.379.125 5.022-.544l.117-.048c.817-.336 2.666-1.096 4.16-.805l.01-17.557c-1.272-.41-3.05.313-3.827.63M371.548 333.944c-.143.92-.562 2.678-1.744 4.101-.766.78-1.392 1.422-3.408 2.562-.587.332-3.357 1.494-3.854 1.682.05.197.113.261.174.434.135.382.58 1.408.62 1.456.09.105.354.55.448.651 1.519 1.643 1.488 1.46 1.496 1.547a.497.497 0 0 1-.175.351c-.303.29-1.107.624-1.455.612a5.176 5.176 0 0 1-1.885-.43 4.576 4.576 0 0 0-.134.046c-.401.141-1.072.377-1.74.14-.974-.35-1.894-.896-2.687-1.39-.292.17-.612.298-.906.417l-.22.091c-.895.373-4.07 1.466-4.788 1.661-.856.233-1.871.327-3.015.277-4.324-.186-8.02-3.908-9.235-5.13-1.128-1.137-2.785-3.048-3.872-4.466l-.325-.402c0-.007-.282-.652-.28-.659l1.546.44c5.739 1.074 10.369.767 13.818.228.293-.045.524-.066.754-.093-2.497-1.756-6.23-4.818-6.742-5.25l-.142-.144.034-.18c.116-.62 4.957-2.71 5.867-3.022.7-.24 1-.263 1.19-.092.103.09.21.218.329.36.048.058.613.591.843.821l4.196 4.321s.7.73.84.655l.165-.09a15.482 15.482 0 0 0 1.883-1.26c3.214-2.52 5.56-4.955 7.72-8.078l1.714-2.935c1.01.64 1.895 2.245 2.532 4.447.604 2.093.756 4.28.438 6.321M466.822 341.69c-.298 2.791-2.918 4.744-6.087 4.537-1.48-.093-3.729-.77-5.357-1.613-1.627.843-3.876 1.52-5.356 1.613-.15.01-.299.014-.446.014-2.969 0-5.358-1.896-5.64-4.55-.325-3.032.703-6.368 2.818-9.154 2.112-2.782 5.13-4.78 8.28-5.477l.344-.074.345.074c3.15.698 6.167 2.695 8.28 5.477 2.115 2.786 3.143 6.122 2.82 9.154M422.095 289.072c-.044-.043-3.542 9.549-3.483 9.549h13.473c.076 0-9.99-9.55-9.99-9.55m-23.751 17.499c-.06 0 4.235 11.27 4.235 11.27s4.019-11.226 3.96-11.226zm47.004-5.771-5.932 5.893-23.733-.073-8.715 23.848h-8.993s-8.904-23.971-8.904-23.9l-27.821-.02c.429 0 .12-7.78.12-7.78l24.858-.064c-.023.023-15.85-40.398-17.546-43.186l8.714-3.262c1.972 3.98 18.028 46.473 18.028 46.473l14.004-.004c.036 0 5.633-16.285 5.633-16.285.258.209-13.523-12.886-13.523-12.886.5-.421 5.488-4.71 6.889-5.88l9.793 9.88c.044.043 7.076-19.702 7.065-21.182l8.865 2.63s-2.16 6.154-4.354 12.424c-2.28 6.506-4.597 13.137-4.585 13.148l19.134 19.197zM390.521 229.995c.664.091 1.236.29 1.721.86h.631v-6.158h-1.074v4.62h-1.278zM397.473 227.714c1.057 0 1.519.554 1.77.744-.142.82-.737 1.455-1.734 1.455-.836 0-1.507-.364-1.507-1.108 0-.636.552-1.09 1.47-1.09m-1.37-1.489c.026-.264.485-.735 1.314-.735.928 0 1.82.545 1.857 1.925a3.059 3.059 0 0 0-1.886-.61c-1.685 0-2.518.941-2.518 1.966 0 1.215.985 2.082 2.614 2.082 1.576 0 2.973-.94 2.973-3.057 0-1.439-.733-3.249-3.033-3.249-1.721 0-2.412 1.042-2.454 1.678zM407.186 229.764h-3.952l-.086-1.306c.338.207.903.438 1.729.438 1.55 0 2.633-.719 2.633-2.124 0-1.158-.724-2.223-2.812-2.223-2.504 0-2.76 1.512-2.76 1.835h1.158c0-.23.367-.893 1.619-.893 1.03 0 1.662.505 1.662 1.281 0 .752-.71 1.215-1.63 1.215-.994 0-1.403-.438-1.522-.57h-1.057l.102 3.29h4.916zM411.818 228.277c.862 0 1.543.18 1.543.826 0 .744-1.03.81-1.543.81-.509 0-1.533-.066-1.533-.81 0-.645.674-.826 1.533-.826m0-2.786c.948 0 1.645.23 1.645.959 0 .752-.802.917-1.645.917s-1.643-.165-1.643-.917c0-.728.698-.96 1.643-.96m-1.669 2.365v.017c-.597.24-.964.652-.964 1.322 0 .934.828 1.66 2.633 1.66 1.847 0 2.643-.801 2.643-1.66 0-.777-.496-1.141-.972-1.322v-.017c.4-.107 1.105-.612 1.105-1.504 0-1.297-1.233-1.802-2.776-1.802-1.543 0-2.776.505-2.776 1.802 0 .892.705 1.397 1.107 1.504M378.77 237.374l-2.318-2.71h-1.85l3.289 3.72-3.038 3.471h1.809l2.108-2.463 2.098 2.463h1.799l-3.048-3.472 3.268-3.72h-1.82zM388.523 238.66c.809 0 1.519.07 1.519 1 0 .92-.71.988-1.52.988h-2.937v-1.988zm-4.357 3.195h4.047c1.229 0 3.248 0 3.248-2.206 0-2.196-2.02-2.196-3.248-2.196h-2.628v-2.79h-1.42zM392.98 241.855h1.419v-7.192h-1.419zM396.348 241.855h6.645v-1.207h-4.319l1.456-2.36-1.456-2.418h4.44v-1.207h-6.636l2.101 3.585zM422.938 241.855h6.645v-1.207h-4.319l1.456-2.36-1.456-2.418h4.44v-1.207h-6.636l2.101 3.585zM407.37 240.649h-3.247v1.207h7.913v-1.207h-3.247v-5.985h-1.419zM420.011 238.284c0 1.731-1.249 2.542-2.908 2.542-1.659 0-2.908-.81-2.908-2.542 0-2.038 1.55-2.592 2.908-2.592 1.36 0 2.908.554 2.908 2.592m-2.908 3.75c3.198 0 4.327-1.86 4.327-3.829 0-1.494-.889-3.72-4.327-3.72-3.437 0-4.326 2.226-4.326 3.72 0 1.968 1.13 3.828 4.326 3.828" style="fill:#fff;fill-opacity:1;fill-rule:nonzero;stroke:none" transform="matrix(1.33333 0 0 -1.33333 -336.52 613.038)"/></svg>