<svg xmlns="http://www.w3.org/2000/svg" xml:space="preserve" width="622.70428" height="622.70428" viewBox="0 0 622.70429 622.70429"><defs><clipPath id="a" clipPathUnits="userSpaceOnUse"><path d="M0 623.62h510.24V0H0Z"/></clipPath></defs><g transform="matrix(1.48634 0 0 -1.48634 -49.188 767.85)"><circle cx="242.56898" cy="-307.12875" r="209.47589" style="fill:#f9f9f9;stroke:#fff;stroke-width:0" transform="scale(1 -1)"/><g clip-path="url(#a)" transform="matrix(1.88837 0 0 1.88837 -233.275 -576.636)"><path d="M0 0c0-44.632-36.153-80.813-80.75-80.813-44.595 0-80.746 36.181-80.746 80.813 0 44.63 36.151 80.813 80.746 80.813C-36.153 80.813 0 44.63 0 0" style="fill:#fff;fill-opacity:1;fill-rule:nonzero;stroke:none" transform="translate(332.667 468.356)"/><path d="M0 0h-.007c-43.33.003-78.444 35.401-78.444 79.068 0 43.66 35.114 79.051 78.444 79.054H0c43.32 0 78.44-35.391 78.44-79.054C78.44 35.401 43.32 0 0 0m.023 186.891h-.03c-59.759-.016-108.195-48.463-108.195-108.229 0-59.754 48.436-108.228 108.195-108.242h.03c59.773 0 108.224 48.481 108.224 108.242 0 59.776-48.451 108.229-108.224 108.229" style="fill:#181c62;fill-opacity:1;fill-rule:evenodd;stroke:none" transform="translate(251.753 389.533)"/><path d="M0 0c.684 1.778 1.393 3.122 2.143 4.037l.124.148c.72.807 1.358 1.114 1.927.9.53-.196.794-.836.789-1.901C4.966 1.98 4.615.443 3.9-1.438c-.199-.529-.366-.962-.516-1.354-.845-2.056-1.025-2.07-1.576-2.627-.02-.031-.039-.055-.058-.079-.035-.035-.069-.062-.105-.1C.96-6.382.335-6.684-.201-6.499c-.569.227-.873.86-.889 1.919C-1.073-3.432-.714-1.898 0 0m-3.072 1.168c-1.446-3.819-2.056-7.01-1.84-9.561.19-2.287.993-3.666 2.395-4.199l.158-.054c1.171-.354 2.46.054 3.864 1.23.171.142.341.296.513.461 1.881 1.809 3.548 4.607 4.98 8.404.34.894.632 1.756.879 2.582.804 2.685 1.127 5.016.964 6.979-.086.984-.279 1.802-.573 2.459-.398.881-.981 1.465-1.755 1.753-1.25.472-2.627.062-4.124-1.203a10.624 10.624 0 0 1-.486-.44C.617 8.331-.571 6.622-1.652 4.438a36.278 36.278 0 0 1-1.42-3.27" style="fill:#fff;fill-opacity:1;fill-rule:nonzero;stroke:none" transform="translate(167.708 497.57)"/><path d="m0 0 .374.967C.582.86.757.698.923.554c.073-.058.16-.103.233-.172.026-.017.031-.048.057-.066.672-.701 1.052-1.712 1.131-3.015.082-1.788-.372-4.146-1.369-7.117l1.632-.041 1.823-.042C6.101-5.622 6.677-1.825 6.198 1.503c-.37 2.586-1.332 4.501-2.886 5.739a7.16 7.16 0 0 1-2 1.113l-1.886.695-5.843-15.414 3.521-1.293Z" style="fill:#fff;fill-opacity:1;fill-rule:nonzero;stroke:none" transform="translate(155.8 496.84)"/><path d="m0 0 .613-.227 2.472 6.519L.302 7.32l-.766.282.006.01-.197.069 1.012 2.692-3.259 1.204-.008-.011-1.028-2.689-.177.08-2.507.921-1.176.433-2.473-6.522 3.348-1.235z" style="fill:#fff;fill-opacity:1;fill-rule:nonzero;stroke:none" transform="translate(166.153 504.401)"/><path d="m0 0 2.613 2.307L4.19 3.703l1.013.894.501.444-1.029 1.141-2.067 2.29-3.222 3.569-10.195 11.296-2.357-2.091L-1.488 8.314-4.83 5.356Z" style="fill:#fff;fill-opacity:1;fill-rule:nonzero;stroke:none" transform="translate(319.697 515.146)"/><path d="M0 0c.327.268.755.307 1.291.107L1.335.09c.527-.224 1.087-.648 1.686-1.256l.241-.251c.67-.774 1.102-1.444 1.272-2.039.172-.585.078-1.023-.231-1.308a.614.614 0 0 0-.071-.055c-.287-.203-.704-.198-1.235-.007l-.081.033c-.597.249-1.208.718-1.855 1.42C.372-2.61-.042-1.916-.203-1.274-.354-.683-.279-.255 0 0m2.025-8.258c.866-.65 1.706-1.144 2.528-1.482l.005-.001a6.273 6.273 0 0 1 1.454-.449c.908-.151 1.637.016 2.187.495.495.447.755 1.082.78 1.922a5.86 5.86 0 0 1-.371 1.998l1.775-1.982 2.477 2.195-3.916 4.35.893.783-4.84 5.354-.893-.784L.152 8.506l-.26-.232-1.009-.899-1.197-1.064 1.83-2.022c-.633.318-1.239.523-1.853.612a5.262 5.262 0 0 1-.278.033c-.782.048-1.422-.135-1.902-.554-.802-.72-.964-1.912-.458-3.574.557-1.86 1.839-3.894 3.856-6.124 1.077-1.193 2.126-2.175 3.144-2.94" style="fill:#fff;fill-opacity:1;fill-rule:nonzero;stroke:none" transform="translate(315.608 539.82)"/><path d="m0 0 1.031-1.142 3.81-4.218 2.66 2.355.007-.014.14.121 2.065-2.156 2.507 2.413-1.944 2.088 2.721 2.417-4.823 5.352L.504.447z" style="fill:#fff;fill-opacity:1;fill-rule:nonzero;stroke:none" transform="translate(321.926 526.743)"/><path d="m0 0 7.883-3.447-.871-1.907 6.162-2.702 4.234 9.287 1.422 3.121 2.293-1.012-2.516-5.535-3.114-6.846 6.23-2.733.137.298 4.578 10.042 4.203 9.217-6.229 2.733-1.226-2.666-.4-.87-2.304 1.009 1.503 3.283.118.253-.242.107-5.933 2.599-1.738-3.816L9.422-.057 3.438 2.574l4.61 10.086 4.098-1.795 1.072 2.328.344.746-.092.062-.633.279-9.482 4.15-6.289-13.778c-.41-.892-.374-1.73.126-2.527C-2.314 1.313-1.373.602 0 0" style="fill:#fff;fill-opacity:1;fill-rule:nonzero;stroke:none" transform="translate(275.164 549.722)"/><path d="M0 0c.211.614.694 1.317 1.436 2.104.333.351.65.648.956.894.363.291.711.506 1.04.647.578.221 1.025.188 1.331-.089l.053-.052c.25-.282.3-.703.146-1.259a2.867 2.867 0 0 0-.08-.243C4.658 1.429 4.228.805 3.593.132a8.5 8.5 0 0 0-1.04-.945 4.14 4.14 0 0 0-1.032-.585C.934-1.6.478-1.564.178-1.288-.131-1.006-.184-.576 0 0m-3.697-5.722c.876-.687 2.09-.762 3.637-.233.906.306 1.827.798 2.771 1.464a19.167 19.167 0 0 1 2.36 2.011A23.143 23.143 0 0 1 7.342.079c1.06 1.4 1.76 2.737 2.105 4.02.463 1.676.246 2.919-.641 3.735-.486.454-1.098.695-1.826.715-.587.017-1.254-.106-1.99-.373a7.92 7.92 0 0 1-.368-.141c-.775-.321-1.572-.775-2.389-1.361C1.279 5.985.299 5.115-.704 4.063-2.171 2.5-3.247 1.023-3.926-.372a9.224 9.224 0 0 1-.583-1.503c-.476-1.646-.249-2.88.637-3.699.058-.051.116-.103.175-.148" style="fill:#fff;fill-opacity:1;fill-rule:nonzero;stroke:none" transform="translate(173.307 531.168)"/><path d="m0 0 1.944-1.781-.013-.017 2.416-2.231-2.79-2.958-1.31 1.206-1.111 1.025-3.143-3.323-2.276-2.405-2.343-2.475-3.35-3.545 2.429-2.222 1.119 1.186 2.339 2.483 2.278 2.413 1.539 1.63L.217-13.3l.335.358 4.399 4.65 1.784 1.888.109.115.806-.729 4.808 5.092L6.303 3.73l-1.94 1.781L.117 9.41l-.496-.524-4.162-4.41-.162-.167.176-.16Z" style="fill:#fff;fill-opacity:1;fill-rule:nonzero;stroke:none" transform="translate(184.702 538.238)"/><path d="m0 0-2.561-2.706.007.035c-.395-.437-1.167-1.063-1.884-1.049a1.045 1.045 0 0 0-.502.14l-1.449 1.256-2.351-2.489-2.279-2.415-.197-.206.215-.199 2.477-2.276.031-.028c.711-.653 1.502-.887 2.375-.705.623.142 1.265.488 1.93 1.032.279.231.561.491.848.787L.215-5.058 2-3.17l8.89 9.409L8.224 8.69 1.785 1.884Z" style="fill:#fff;fill-opacity:1;fill-rule:nonzero;stroke:none" transform="translate(189.766 527.297)"/><path d="M0 0c.016 1.98 3.612 2.465 5.492 2.562.205.007.391.014.547.017l.232.001c3.428-.014 6.186-1.067 6.171-2.36-.033-1.805-2.994-2.371-4.947-2.527a21.66 21.66 0 0 0-.543-.034c-.319-.016-.59-.021-.785-.021C2.744-2.337-.024-1.279 0 0m-4.27-4.527c2.432-1.269 5.783-1.905 10.067-1.937.821-.004 1.61.017 2.365.06l.544.034c2.932.215 5.338.789 7.234 1.738 1.511.731 2.527 1.59 3.036 2.582.245.484.375 1.001.377 1.548.026 1.228-.58 2.31-1.806 3.249a9.637 9.637 0 0 1-1.503.93c-.496.249-1.048.458-1.623.65l2.659-.014 2.349-.012.071 4.784 2.964-.004.053 3.805-.007-.003-2.966.015.06 4.225-6.35.036-.82.003-.12-9.34-3.05.048c.557.67.825 1.187.997 2.086.092.494.14 1.107.151 1.858l.069 5.167-8.743.041-.553.004-8.157.037-.058-3.915 9.38-.038.556-.004.926-.003-.027-2.322a8.71 8.71 0 0 0-.068-1.048 6.892 6.892 0 0 0-.176-.68c-.372-1.138-1.084-2.05-2.231-2.785l.095 5.047-6.53.022-.04-2.664-2.65.015-.053-3.974 6.18-.026c-.898-.258-1.746-.553-2.495-.911C-6.06 2.84-7.148 1.691-7.433.328a3.72 3.72 0 0 1-.073-.691c-.013-.966.336-1.838 1.058-2.613.528-.566 1.253-1.084 2.178-1.551" style="fill:#fff;fill-opacity:1;fill-rule:nonzero;stroke:none" transform="translate(246.108 555.688)"/><path d="m0 0-.946-.404-.388-.165.045.045c-1.938-.81-2.65.005-2.864.363l-1.02 2.343-6.075-2.605 1.874-4.308c.399-.918 1.02-1.489 1.848-1.7.859-.207 1.888-.072 3.099.455l3.91 1.665.947.405 4.033 1.719 8.677 3.7-1.496 3.454-7.61-3.246z" style="fill:#fff;fill-opacity:1;fill-rule:nonzero;stroke:none" transform="translate(217.625 546.567)"/><path d="m0 0 3.685 1.571.484-1.104.635-1.446 6.078 2.584-3.214 7.377 2.52 1.068-1.496 3.445-2.532-1.067-1.564 3.607-2.04-.87-4.035-1.716-.01-.005.013-.035 3.655-8.383L.15 4.157C.095 5.2-.237 6.252-.646 7.208l-.195.444-1.326 3.022-.84 1.922-14.842-6.321 1.519-3.502 9.275 3.936c.531-1.222 1.224-2.475 1.43-3.806.191-1.047.175-2.601-.734-3.359l-1.978 4.571-5.536-2.348 1.32-3.017-2.296-.987 1.497-3.449L-.947-.402z" style="fill:#fff;fill-opacity:1;fill-rule:nonzero;stroke:none" transform="translate(217.022 552.063)"/><path d="m0 0-9.312 25.856 3.908 1.331.761-2.111 8.013 2.729 2.183-6.072-8.009-2.73.727-2.024 8.011 2.732 2.186-6.072-8.009-2.733.175-.481c.802-.159 1.747-.186 2.832-.087 1.208.121 2.436.39 3.68.815l5.817 1.985-6.176 17.157 3.903 1.334 8.637-23.986-8.311-2.836a22.261 22.261 0 0 0-4.365-1.012c-1.475-.185-2.679-.203-3.611-.047l.867-2.418Z" style="fill:#fff;fill-opacity:1;fill-rule:nonzero;stroke:none" transform="translate(334.163 484.198)"/><path d="M0 0a1.21 1.21 0 0 0-.256-.763c-.174-.207-.38-.323-.619-.323h-.004c-.239 0-.448.12-.623.323-.174.22-.255.478-.255.763v2.177c0 .309.081.557.265.781a.78.78 0 0 0 .613.316h.004c.239 0 .445-.11.619-.316.172-.21.256-.472.256-.781Zm0 4.363H-1.757c-.476 0-.89-.22-1.236-.649-.347-.423-.521-.936-.521-1.537V0a2.4 2.4 0 0 1 .521-1.537c.346-.429.76-.639 1.236-.639h.882c.51 0 .81.371.866 1.09v-1.09c0-.585-.165-1.104-.501-1.527a1.959 1.959 0 0 0-.369-.361 1.439 1.439 0 0 0-.878-.289h-.877v-1.089h1.316c.151 0 .295.01.439.034.657.114 1.233.474 1.73 1.083.598.76.906 1.643.906 2.709v3.793c0 .601-.167 1.114-.512 1.537-.354.429-.767.649-1.245.649" style="fill:#181c62;fill-opacity:1;fill-rule:nonzero;stroke:none" transform="translate(246.218 418.687)"/><path d="M0 0h-5.866v12.874A61.444 61.444 0 0 1 0 11.35c12.738-2.641 23.074-.695 23.074-.695s.297-4.122.267-10.655zm2.247-76.348c-.768.379-1.516.777-2.247 1.196-6.239 3.559-11.217 8.445-15.187 13.86a66.05 66.05 0 0 0-4.394 6.877 77.501 77.501 0 0 0-3.197 6.433c1.085.231 2.149.496 3.197.777 1.504.406 2.971.863 4.394 1.369C-9.504-43.822-4.438-41.084 0-38.039c12.672 8.7 20.274 19.923 22.778 24.004-1.417-19.272-6.142-45.503-20.531-62.313m-17.434-12.883a44.842 44.842 0 0 0-4.394-1.617 46.93 46.93 0 0 0-7.218-1.633 52.16 52.16 0 0 0-7.021-.543l-.66-.007-.346-.01h-.169c-2.019.01-3.965.114-5.846.312a50.439 50.439 0 0 0-5.988 1.008c-.281.065-.56.134-.84.203a45.195 45.195 0 0 0-7.128 2.435 44.263 44.263 0 0 0-7.603 4.267c.875.701 3.878 3.166 7.603 6.677a129.953 129.953 0 0 1 7.128 7.247c.282.313.563.622.84.939 2.122 2.401 4.183 4.958 5.988 7.575 2.878 4.181 5.097 8.503 5.846 12.567.058.316.111.633.15.945l-.036-.498c.177-1.399.545-2.833 1.061-4.287 1.426-4.013 4.007-8.163 7.021-12.09 2.264-2.95 4.774-5.769 7.218-8.31a138.817 138.817 0 0 1 4.394-4.353 136.647 136.647 0 0 1 7.596-6.698 46.138 46.138 0 0 0-7.596-4.129m-56.869 13.323c-2.617 3.153-4.903 6.619-6.905 10.298-8.618 15.826-11.914 35.573-13.09 50.986 1.388-2.331 5.71-9.042 13.09-15.97 6.006-5.639 14.041-11.415 24.164-15.077a64.047 64.047 0 0 1 7.128-2.115l.477-.113a57.864 57.864 0 0 0-.477-1.046c-1.913-4.143-4.258-8.296-7.128-12.171-4.401-5.945-10.037-11.23-17.259-14.792m-20.335 86.375s5.507-1.032 13.43-.568c4.064.241 8.763.87 13.681 2.242V1.121h-27.365c.008 5.787.254 9.346.254 9.346m58.571-26.483c-.388-.013-.779-.027-1.175-.031-.289-.003-.576-.007-.863-.007-1.722 0-3.393.076-4.983.217-2.167.196-4.185.513-5.988.929-.283.069-.565.134-.84.206-3.505.905-6.073 2.207-7.128 3.706-.345.492-.528 1.008-.528 1.53 0 .53.183 1.042.528 1.533 1.055 1.5 3.623 2.803 7.128 3.707.275.073.557.138.84.207 1.803.416 3.821.735 5.988.928 1.59.141 3.261.216 4.983.216.287 0 .574-.003.863-.01.396-.003.787-.013 1.175-.027 2.514-.089 4.886-.337 7.021-.718 2.927-.52 5.41-1.283 7.218-2.215 2.022-1.035 3.202-2.28 3.202-3.621 0-1.334-1.18-2.578-3.202-3.617-1.808-.928-4.291-1.695-7.218-2.218-2.135-.378-4.507-.625-7.021-.715m-26.262 29.873a53.535 53.535 0 0 1 5.285 2.355 51.373 51.373 0 0 1 7.968 5.058 50.736 50.736 0 0 1 5.988 5.436 53.918 53.918 0 0 1 3.919 4.666v-7.135h.79c-2.541-.289-4.433-1.417-4.433-2.754 0-1.526 2.477-2.778 5.57-2.819h.16c.348 0 .684.013 1.015.044 2.683.234 4.725 1.393 4.725 2.775 0 1.337-1.899 2.465-4.438 2.754h.993v7.516a53.385 53.385 0 0 1 5.741-6.564 51.086 51.086 0 0 1 7.218-5.828 52.406 52.406 0 0 1 4.394-2.62 53.17 53.17 0 0 1 3.813-1.828v-19.72h23.492C9.088-11.487 4.729-16.775 0-20.936c-5.028-4.425-10.476-7.571-15.187-9.747a66.683 66.683 0 0 0-4.394-1.857c-3.396-1.307-6.019-2.019-7.218-2.311a11.428 11.428 0 0 0-.578-.134c-2.146 7.73-2.873 13.846-3.049 15.586 1.248.12 2.46.275 3.627.471 2.674.447 5.111 1.083 7.218 1.874 1.697.637 3.179 1.368 4.394 2.177 2.363 1.571 3.729 3.424 3.729 5.411 0 1.991-1.366 3.844-3.729 5.409-1.215.811-2.697 1.544-4.394 2.177-2.107.787-4.544 1.423-7.218 1.87a54.17 54.17 0 0 1-8.196.718 58.367 58.367 0 0 1-5.846-.206 49.872 49.872 0 0 1-5.988-.873c-.283-.058-.563-.12-.84-.186-2.742-.636-5.161-1.482-7.128-2.489-3.411-1.754-5.458-3.985-5.458-6.42 0-2.43 2.047-4.665 5.458-6.415 1.967-1.012 4.386-1.861 7.128-2.497a50.07 50.07 0 0 1 6.828-1.059c.433-.038.868-.072 1.307-.1-.165-1.509-.544-4.411-1.307-8.169a103.896 103.896 0 0 0-1.804-7.485 31.587 31.587 0 0 0-5.024.983c-2.466.685-4.848 1.647-7.128 2.806-11.11 5.656-19.786 16.006-24.164 21.988-2.027 2.768-3.136 4.607-3.136 4.607h22.015zm25.237 9.252c.358 0 .699-.02 1.025-.062 1.547-.196 2.673-.821 2.673-1.564 0-.74-1.126-1.365-2.673-1.561a8.206 8.206 0 0 0-1.025-.062h-.15c-1.958.035-3.541.75-3.541 1.623 0 .88 1.583 1.589 3.541 1.623zm62.426-9.352S14.941 11.364 0 15.111c-4.937 1.235-10.12 3.143-15.187 6.028a56.392 56.392 0 0 0-4.394 2.778 55.258 55.258 0 0 0-7.218 6.052 58.075 58.075 0 0 0-7.021 8.504c-.221.327-.445.649-.66.982l-.365-.186-.15-.223a58.629 58.629 0 0 0-5.846-7.506 54.823 54.823 0 0 0-5.988-5.615c-.277-.226-.558-.45-.84-.667a54.964 54.964 0 0 0-7.128-4.683c-8.32-4.594-16.922-6.592-24.164-7.354-10.345-1.09-17.914.34-17.914.34s-4.005-55.034 17.914-87.798c5.945-8.888 13.805-16.133 24.164-20.201a49.47 49.47 0 0 1 7.128-2.183c.28-.065.557-.13.84-.189a54.954 54.954 0 0 1 5.988-.911 60.787 60.787 0 0 1 5.846-.285l.15-.007.365.028c.225 0 .437.017.66.021 2.433.024 4.775.188 7.021.477 2.517.32 4.928.78 7.218 1.406 1.516.413 2.975.897 4.394 1.435C-9.387-92.463-4.356-89.3 0-85.405c32.65 29.202 27.581 99.162 27.581 99.162" style="fill:#181c62;fill-opacity:1;fill-rule:nonzero;stroke:none" transform="translate(286.18 497.971)"/><path d="M0 0c0-.285-.091-.543-.254-.763-.183-.207-.378-.323-.623-.323h-.004c-.241 0-.446.12-.619.323-.165.22-.263.478-.263.763v2.177c0 .309.098.557.263.781.173.206.378.313.619.316h.004c.245 0 .44-.11.623-.316.163-.21.254-.472.254-.781Zm0 4.363h-1.763c-.1 0-.2-.007-.293-.027-.355-.072-.67-.282-.937-.622-.348-.423-.518-.936-.518-1.537V0c0-.584.17-1.103.518-1.537.276-.337.582-.539.937-.611.093-.018.193-.028.293-.028h.886c.517 0 .804.371.877 1.09v-1.09c0-.585-.178-1.104-.528-1.527a1.74 1.74 0 0 0-.353-.354 1.43 1.43 0 0 0-.882-.296h-.865v-1.089H-1.316c.147 0 .294.01.435.034.658.11 1.235.47 1.733 1.083.599.76.905 1.643.905 2.709v3.793c0 .601-.18 1.114-.521 1.537-.333.429-.751.649-1.236.649" style="fill:#181c62;fill-opacity:1;fill-rule:nonzero;stroke:none" transform="translate(253.242 418.687)"/><path d="M0 0h2.627l.008 1.089h-5.27v-4.363H.005A.743.743 0 0 0 .623-3.6c.174-.21.254-.454.254-.76v-2.173c0-.306-.08-.561-.254-.781-.166-.196-.379-.313-.618-.313H-.87c-.552 0-.849.361-.881 1.094h-.884c.138-1.451.726-2.183 1.765-2.183H.877c.48 0 .891.22 1.247.642.34.43.511.949.511 1.541v2.173c0 .619-.171 1.121-.511 1.54-.347.433-.76.643-1.247.643H-.87V0Z" style="fill:#181c62;fill-opacity:1;fill-rule:nonzero;stroke:none" transform="translate(259.382 421.96)"/><path d="m0 0-.84-.519-.474-.295v-1.098h.881v-7.619h1.75V.275H.441Z" style="fill:#181c62;fill-opacity:1;fill-rule:nonzero;stroke:none" transform="translate(239.352 422.775)"/><path d="M0 0v-3.964l-.882-.365-1.425 3.38zm0 13.128V3.009l-3.239-1.437-1.239 4.311 2.886 1.049-.437 1.526-3.014-.601-1.254 4.373Zm0 13.444v-8.651l-6.875-3.201-.69 4.48 6.97 2.85-7.247-1.062-.658 4.322zm7.024-37.963v-7.443c-.254.061-.49.151-.707.268a3.26 3.26 0 0 0-1.162 1.196 4.014 4.014 0 0 0-.588 2.046c-.015.725.126 1.368.415 1.928.285.55.668 1.004 1.127 1.373.236.182.542.398.915.632m0 14.276V-7.712L1.515-9.978.018-6.436l6.274 5.061L0-3.964V0Zm0 11.247v-3.848c-2.763-.409-4.807-.732-6.131-.99l.401-1.43a201.28 201.28 0 0 0 5.73 2.19V6.131L0 3.009v10.119zm0 13.488v-4.428l-4.521-.671 4.521-.649v-3.889l-5.055.849L0 17.921v8.651zm0-4.428v4.428l1.389.203.66-4.328zm0-5.209v3.889l2.351-.341.623-4.044zm3.809-27.132v-5.082l-1.496-.863c-.661-.395-1.072-.674-1.231-.877-.167-.213-.167-.426-.025-.677.167-.271.389-.388.682-.34.3.031.785.25 1.47.65l.6.346v-4.954l-2.331-1.347-1.427 2.399.849.966a3.44 3.44 0 0 0-.9.094v7.443c.368.244.802.505 1.309.798zm0 13.602v-5.728L8.76-3.022l2.073.853V-6.14L7.024-7.712V2.885Zm0 10.029V7.826L7.024 6.131v3.923l1.018.378-1.018-.148v3.848l3.754.533zm0-6.656v6.656l1.691-5.899zm0-9.101 4.072 3.428-1.43 3.39-2.642-1.09zm0-19.671 5.584 3.239-2.629 4.415-2.252-1.3.438-.736-1.141-.664zm5.896-.485v-8.616l-1.514-.956-3.586 4.126zm0 8.988-1.168-.687 1.168-1.943zm0 6.051v-4.428l-.318-.179-5.578-3.232v5.082l1.884 1.09c1.408.811 2.471 1.334 3.206 1.551a2.7 2.7 0 0 0 .806.116m0 4.237v-1.561L10.833-6.14v3.971l5.025 2.063zm0-1.561v1.561l.564-1.331zm0-11.357 1.083-1.815.635.357c1.211.708 2.067 1.344 2.581 1.939.502.588.768 1.383.8 2.373.026 1.004-.298 2.049-.951 3.153-.672 1.121-1.481 1.887-2.439 2.29-.618.261-1.187.384-1.709.384v-4.428c.58.32.97.482 1.167.502.229.024.413-.079.551-.309.158-.269.148-.503-.018-.688-.17-.196-.682-.539-1.521-1.028l-.179-.1zm6.453.532v-6.006l-1.278-1.269-4.092-4.064c1.463 1.108 3.254 2.372 5.37 3.789v-7.908l-1.245-1.228c.415.307.83.613 1.245.912v-4.99l-2.668-1.774-3.606 4.14c1.666 2.073 3.642 4.325 5.943 6.767-1.055-.678-3.093-1.963-6.122-3.875v8.616zm2.444-14.028v-5.113l-2.444-1.623v4.99c.813.595 1.63 1.175 2.444 1.746m0 8.094a188.357 188.357 0 0 1-2.444-1.616v-7.908l2.444 2.407zm0 3.408v-1.059l-2.444-2.421v6.006l.122.131zm0-1.059v1.059l.499-.571zm2.379-18.475v-7.323a6.233 6.233 0 0 0-1.294 1.589 3.9 3.9 0 0 0-.51 2.11c.02.74.228 1.396.607 1.991.245.385.646.932 1.197 1.633m0 9.662a182.93 182.93 0 0 1-2.379-1.63v-5.113l2.379 1.579zm0 7.135v-5.426l-1.443-1.437-.936-.925v7.117l1.898 1.221zm0-5.426a315.338 315.338 0 0 1 2.524 2.537l-2.524 2.889zm4.348-6.107a57.324 57.324 0 0 1-1.478-1.746l-1.841-2.235a57.538 57.538 0 0 1-1.029-1.283v-7.323c.111-.1.225-.2.346-.299.75-.596 1.51-.998 2.274-1.197a4.033 4.033 0 0 1 1.728-.127v5.109l-.177-.22c-.633-.767-1.069-1.231-1.301-1.385-.241-.155-.473-.131-.71.054-.23.179-.304.385-.213.619.075.227.428.723 1.053 1.479l1.348 1.643zm0 6.554v-4.429l-4.348-2.891v5.164c1.318.883 2.643 1.747 3.972 2.582zm0-4.429 2.438 1.623-2.438 2.806zm4.592-18.436v-2.355l-1.051.626zm0 12.801-4.592-5.591v-5.109c.156.024.313.058.468.103a3.919 3.919 0 0 1 1.818 1.021c.506.482 1.279 1.351 2.306 2.62zm0 5.57v-3.521c-.219-.169-.525-.498-.918-.973l-3.674-4.477v6.911c.368.42.67.743.913.977a4.04 4.04 0 0 0 1.829 1.031 3.896 3.896 0 0 0 1.85.052m1.863-15.311v-6.516l-1.863 1.101v2.355zm0 14.565v-9.524l-1.775-2.146-.088-.11v6.956l.172.202c.505.613.782 1.036.855 1.252.068.224 0 .433-.214.595-.181.145-.38.193-.592.127a.652.652 0 0 1-.221-.127v3.521c.117-.021.231-.052.35-.086a5.407 5.407 0 0 0 1.513-.66m0-9.524.072.089c1.103 1.354 1.848 2.314 2.227 2.913.377.594.579 1.257.609 1.993.045.733-.141 1.431-.521 2.122-.376.678-.921 1.31-1.631 1.874-.252.2-.504.375-.756.533zm0-11.557v6.516l5.879 9.658 3.182-1.881-1.814-7.767 3.957 6.505 3.184-1.877-8.782-14.461-3.34 1.977 2.002 7.739-3.997-6.57zm32.081-5.339-.139-.771c-.316-1.705-.486-2.908-.527-3.61a3.867 3.867 0 0 1 .438-2.035c.067-.141.144-.272.228-.399zm0 9.452v-2.132l-.455-1.283-2.513.853-4.475-12.729-4.201 1.431 4.486 12.728-2.489.857 1.123 3.19zm0-2.132v2.132l.678-.223zm.987-2.315v-12.838c-.395.289-.727.63-.987 1.018v6.815l.381 2.066c.223 1.255.429 2.238.606 2.939m4.198 3.508v-4.841l-1.366-7.502c-.172-.967-.242-1.579-.205-1.812.039-.238.205-.385.501-.434.298-.058.514.042.644.282.122.231.266.78.426 1.636v-4.851a7.68 7.68 0 0 0-1.571.117c-.912.162-1.685.45-2.352.87-.094.055-.185.124-.275.189v12.838c.059.224.112.42.162.585a3.832 3.832 0 0 0 1.087 1.761 3.985 3.985 0 0 0 1.944 1.021c.321.075.656.124 1.005.141m18.565-1.995-.503-11.256c-.06-1.272-.143-2.17-.248-2.675-.116-.516-.38-1.032-.822-1.561-.44-.53-1.009-.918-1.702-1.169-.686-.245-1.493-.358-2.418-.31-1.02.048-1.91.251-2.675.616-.765.368-1.33.832-1.693 1.375-.363.55-.568 1.128-.612 1.722-.038.589-.023 1.85.069 3.735l.445 9.978 4.435-.203-.564-12.619c-.036-.736-.012-1.21.062-1.413.066-.217.232-.313.481-.334.277-.006.458.09.55.317.097.22.155.756.198 1.585l.561 12.405zM76.074-65.452v4.851l.037.204 1.383 7.612c.14.777.19 1.285.14 1.506-.048.231-.202.379-.479.426a.604.604 0 0 1-.573-.178c-.149-.145-.306-.657-.463-1.499l-.045-.241v4.841a6.976 6.976 0 0 0 1.571-.121c.906-.151 1.681-.432 2.35-.859.669-.42 1.16-.949 1.492-1.606a4.01 4.01 0 0 0 .445-2.031c-.052-.713-.223-1.912-.536-3.615l-.512-2.836c-.304-1.671-.568-2.847-.767-3.527a3.986 3.986 0 0 0-1.093-1.765 4.131 4.131 0 0 0-1.943-1.024 5.051 5.051 0 0 0-1.007-.138m25.618 15.978v-2.953c-.202.055-.464.065-.78.041l.323-3.755c.171.014.324.038.457.069v-2.655c-.078-.003-.158-.003-.242-.013l.242-2.834v-4.772l-4.012-.341-1.449 16.8 3.143.262c.893.072 1.668.124 2.318.151m0-9.253c.475.015.778-.065.92-.24.166-.202.287-.757.362-1.647l.48-5.584 4.114.348-.379 4.421c-.119 1.355-.224 2.177-.32 2.479-.103.292-.316.598-.653.935-.329.33-.948.564-1.847.715.97.169 1.592.496 1.879.973.296.472.387 1.372.275 2.679-.128 1.43-.448 2.455-.973 3.078-.523.605-1.165.959-1.913 1.069-.431.051-1.078.062-1.945.027v-2.953a.907.907 0 0 0 .294-.12c.214-.148.335-.496.378-1.025l.083-.939c.064-.729 0-1.182-.179-1.327-.127-.103-.318-.179-.576-.234zm0-7.619v4.772l.409-4.738zm13.024 6.698v-4.886l-3.438-.667-3.283 16.535 4.372.856zm.532-2.675v-2.108l-.532-.103v4.886zm0 14.314v-3.658c-.373 1.192-.486 2.1-.351 2.757.066.313.18.616.351.901m0-16.422v2.108l.402-2.032zm11.075 10.309a3.627 3.627 0 0 1-.708.76c-.717.556-2.191 1.107-4.431 1.626-.775.189-1.28.381-1.512.619-.232.217-.439.601-.611 1.135-.13.412-.164.749-.098.99a.646.646 0 0 0 .484.488c.234.083.422.051.573-.069.147-.127.312-.457.484-1.021l.381-1.183 3.949 1.224-.206.626c-.403 1.279-.824 2.145-1.243 2.602-.424.465-1.086.74-1.964.85-.89.106-1.882-.007-2.976-.34-1.016-.313-1.825-.744-2.434-1.283a3.722 3.722 0 0 1-.763-.911v-3.658l.03-.104c.269-.845.606-1.509 1.005-1.994.408-.478.827-.822 1.262-1.028.446-.199 1.306-.492 2.572-.852 1.261-.358 2.078-.637 2.452-.854.352-.209.672-.78.979-1.729.13-.43.175-.77.099-1.031-.064-.268-.238-.448-.53-.53-.268-.089-.5-.065-.664.082-.167.131-.348.493-.536 1.118l-.63 1.949-3.939-1.22.335-1.052c.389-1.21.81-2.104 1.264-2.679.466-.577 1.165-.958 2.095-1.138.937-.171 1.977-.082 3.119.259.843.264 1.563.625 2.162 1.082zm0 10.617v-3.771l-1.556 2.981zm0-3.771 6.262-12 3.465 1.757-5.165 9.902 6.621-9.177 2.451 1.245-3.918 10.817 5.294-10.12 3.456 1.757-7.823 14.985-5.147-2.613 2.729-7.462L132-44.653a165.57 165.57 0 0 1-2.126 2.95l-3.551-1.802zm0-14.112v7.266c.417-.595.789-1.403 1.117-2.432.372-1.144.502-2.035.406-2.667-.11-.62-.489-1.242-1.148-1.857a13.76 13.76 0 0 0-.375-.31m32.829 22.662a.819.819 0 0 0-.221-.302c-.248-.248-.494-.303-.743-.193-.253.124-.651.485-1.221 1.073l-5.419 5.735c-.592.612-.933 1.056-1.044 1.31-.11.265-.028.506.248.756.232.214.458.269.674.2.215-.096.618-.46 1.204-1.076l2.029-2.146 3.249 2.992-1.113 1.179c-1.082 1.145-1.979 1.898-2.696 2.266-.707.358-1.553.444-2.524.227-.96-.207-1.928-.75-2.887-1.633-.709-.65-1.212-1.335-1.533-2.07-.321-.743-.44-1.448-.355-2.142.082-.688.308-1.296.669-1.792.354-.502.948-1.189 1.799-2.087l3.403-3.589c1.157-1.228 2.103-2.025 2.879-2.441.766-.42 1.623-.52 2.557-.286.347.086.695.213 1.045.385zm0 5.718v-5.332l-.009.017c-.098.25-.467.725-1.111 1.396l-1.456 1.547zm0 15.006v-3.532l-.025-.028c-.138-.178-.187-.374-.129-.566a.747.747 0 0 1 .154-.259v-5.81c-1.229 1.007-2.074 1.76-2.554 2.241a4.127 4.127 0 0 0-1.02 1.809c-.184.708-.159 1.437.052 2.18.228.736.638 1.486 1.262 2.217.577.699 1.222 1.221 1.917 1.583.112.058.228.116.343.165m0-24.358c.596.296 1.195.719 1.8 1.265.915.846 1.49 1.764 1.737 2.731.248.983.208 1.819-.123 2.52-.313.698-1.076 1.692-2.292 2.97l-.451.485-.671-.619v-5.332a.546.546 0 0 0 0-.386zm7.642 13.616v-4.312c-.092-.004-.185 0-.278.003a4.17 4.17 0 0 0-2.012.64c-.583.382-1.567 1.114-2.917 2.232l-2.253 1.836-.182.148v5.81c.176-.217.494-.509.951-.887l6.144-5.033c.202-.162.386-.31.547-.437m0 7.478-.888.729c-1.349 1.104-2.331 1.854-2.928 2.225a4.128 4.128 0 0 1-2.004.636 3.99 3.99 0 0 1-1.822-.326v-3.532a.525.525 0 0 0 .589.179c.217-.076.639-.358 1.261-.863l5.792-4.745zm0 8.578v-5.308l-5.243 3.521 2.501 3.631zm0 5.895v-.658l-.278.148zm0-26.263v4.312c.459-.358.772-.568.944-.63.221-.079.433-.013.626.224.2.217.213.454.064.691-.158.238-.61.664-1.394 1.297l-.24.199v5.697l1.367-1.117c1.315-1.076 2.231-1.888 2.726-2.389a4.12 4.12 0 0 0 1.031-1.81c.17-.701.16-1.423-.059-2.172-.221-.743-.639-1.486-1.252-2.225-.594-.691-1.228-1.21-1.922-1.571a4.08 4.08 0 0 0-1.891-.506m12.379 15.263-2.298 1.544-1.527-2.194-8.554 5.755v-5.308l8.893-5.972 3.486 5.04zm0 8.761v-4.965l-12.379 6.546v.658l1.828 3.349zm0 13.1v-7.245L170.467.196l2.712 6.812 3.2-1.249-1.097-2.719 3.017-1.173zm0 13.419v-4.311c-.571.131-.947.186-1.144.176-.259-.021-.429-.179-.502-.489-.068-.261-.022-.454.163-.598.177-.141.679-.316 1.483-.526V7.225c-1.284.343-2.22.663-2.811.966-.668.36-1.207.997-1.592 1.952-.387.939-.411 2.046-.091 3.312.332 1.234.853 2.193 1.583 2.884.735.691 1.491 1.07 2.278 1.138.193.017.405.021.633.01m0 9.827v-7.378l-2.546.336.983 7.249zm0-46.242v1.135l.537-.357zm1.937 9.916v-6.007l-1.937 1.022v4.965l1.492-.791zm0 12.74v-7.651l-1.937.746v7.245l.142.354zm0 7.522V6.729l-1.359.348-.578.148v4.514l.058-.017zm0 5.956v-4.511l-1.269.32c-.248.068-.47.12-.668.161v4.311c.544-.013 1.187-.109 1.937-.281m0 6.894v-4.418l-1.937.254v7.378l1.828-.24-.391-2.909zm1.239-31.785v-6.195l-.758-1.392-.481.253v6.007l.834 1.548zm0 7.981v-4.7l-1.239.481v7.651l1.239-.485-1.016-2.552zm0 10.642V6.413l-1.239.316v4.521zm0 5.972v-.436l-1.001-3.838-.238.059v4.511c.201-.045.41-.097.628-.151zm0 7.028v-4.422l-1.239.166V24.1Zm0-4.422v4.422l1.477-.196.37 2.713 3.231-.423-.37-2.709 3.71-.492.432 3.177 3.406-.44-1.025-7.537zm0-3.042.109.408-.109.028zm0-10.061v4.525l4.831-1.221c.741-.196 1.245-.268 1.503-.244.266.038.426.193.502.465.075.309 0 .553-.236.732-.241.168-.747.357-1.512.553l-1.965.496-.212-.84-2.525.65 1.296 4.951 8.887-2.245-.699-2.689-1.284-.086c.424-.426.723-.89.863-1.385.142-.506.142-1.055-.021-1.647a4.218 4.218 0 0 0-1.044-1.87c-.512-.52-1.07-.885-1.672-1.084a4.283 4.283 0 0 0-1.789-.175c-.594.069-1.459.237-2.599.519zm0-10.817v4.7l2.474-.952 1.185 2.99 3.193-1.244-2.81-7.062zm0-9.476v6.195l2.621-1.388z" style="fill:#fff;fill-opacity:1;fill-rule:evenodd;stroke:none" transform="translate(158.2 432.144)"/></g></g></svg>