<svg xmlns="http://www.w3.org/2000/svg" width="220mm" height="220mm" viewBox="0 0 220 220"><g transform="translate(15.473 -59.15)"><circle cx="94.527451" cy="169.15094" r="110" style="fill:#f9f9f9;stroke:#fff;stroke-width:0"/><path d="M0 0c0 56.809 46.211 103.028 103.02 103.028 56.808 0 103.023-46.219 103.023-103.028 0-56.799-46.215-103.018-103.023-103.018C46.211-103.018 0-56.799 0 0m-34.344 0c0 75.745 61.624 137.369 137.364 137.369 75.745 0 137.364-61.624 137.364-137.369 0-75.735-61.619-137.359-137.364-137.359C27.28-137.359-34.344-75.735-34.344 0m137.372-140.038C180.25-140.038 243.077-77.22 243.077 0c0 77.23-62.827 140.048-140.049 140.048C25.808 140.048-37.016 77.23-37.016 0c0-77.22 62.824-140.038 140.044-140.038" style="fill:#0f6cb1;fill-opacity:1;fill-rule:nonzero;stroke:none" transform="matrix(.75608 0 0 -.75608 16.67 168.377)"/><path d="M0 0h-121.21v-120.944h24.345c6.538 12.74 19.802 21.466 35.109 21.466 15.307 0 28.571-8.726 35.105-21.466H0Z" style="fill:#bf6a22;fill-opacity:1;fill-rule:nonzero;stroke:none" transform="matrix(.75608 0 0 -.75608 141.067 118.024)"/><path d="M0 0h-121.21v-120.944h24.345c6.538 12.74 19.802 21.466 35.109 21.466 15.307 0 28.571-8.726 35.105-21.466H0Z" style="fill:#fddf12;fill-opacity:1;fill-rule:nonzero;stroke:none" transform="matrix(.75608 0 0 -.75608 141.067 118.024)"/><path d="M0 0a3.911 3.911 0 0 1 3.909 3.91A3.903 3.903 0 0 1 0 7.812 3.899 3.899 0 0 1-3.906 3.91C-3.906 1.75-2.158 0 0 0" style="fill:#0f6cb1;fill-opacity:1;fill-rule:nonzero;stroke:none" transform="matrix(.75608 0 0 -.75608 4.266 154.252)"/><path d="M0 0a3.907 3.907 0 0 1 3.905 3.91A3.899 3.899 0 0 1 0 7.812 3.9 3.9 0 0 1-3.91 3.91C-3.91 1.75-2.162 0 0 0" style="fill:#0f6cb1;fill-opacity:1;fill-rule:nonzero;stroke:none" transform="matrix(.75608 0 0 -.75608 184.06 154.252)"/><path d="M0 0v-22.371h-2.908v19.797h-2.198V0Z" style="fill:#fddf12;fill-opacity:1;fill-rule:nonzero;stroke:none" transform="matrix(.75608 0 0 -.75608 75.171 215.487)"/><path d="m0 0 1.313 2.662c2.07 4.323 3.339 7.469 3.339 12.381 0 3.515-.324 7.619-4.829 7.619-4.507 0-4.771-4.166-4.771-7.654 0-2.672.383-6.503 3.85-6.503.979 0 1.608.264 2.262.888l.062-.061L-3.234 0Zm-.177 11.167c-1.788 0-1.757 2.98-1.757 4.289 0 1.283-.031 4.534 1.757 4.534 1.788 0 1.82-3.066 1.82-4.358 0-1.274.118-4.465-1.82-4.465" style="fill:#fddf12;fill-opacity:1;fill-rule:nonzero;stroke:none" transform="matrix(.75608 0 0 -.75608 87.113 232.402)"/><path d="m0 0 1.31 2.662c2.069 4.323 3.339 7.469 3.339 12.381 0 3.515-.325 7.619-4.829 7.619-4.507 0-4.772-4.166-4.772-7.654 0-2.672.382-6.503 3.845-6.503.984 0 1.612.264 2.268.888l.061-.061L-3.238 0Zm-.18 11.167c-1.788 0-1.762 2.98-1.762 4.289 0 1.283-.026 4.534 1.762 4.534s1.814-3.066 1.814-4.358c0-1.274.119-4.465-1.814-4.465" style="fill:#fddf12;fill-opacity:1;fill-rule:nonzero;stroke:none" transform="matrix(.75608 0 0 -.75608 100.035 232.402)"/><path d="M0 0c-5.347 0-5.079-7.935-5.079-11.477 0-3.541-.268-11.467 5.079-11.467 5.348 0 5.084 7.926 5.084 11.467C5.084-7.935 5.348 0 0 0m2.171-11.477c.026-4.675-.119-8.805-2.171-8.805-2.047 0-2.196 4.13-2.17 8.805-.026 4.667.123 8.805 2.17 8.805 2.052 0 2.197-4.138 2.171-8.805" style="fill:#fddf12;fill-opacity:1;fill-rule:nonzero;stroke:none" transform="matrix(.75608 0 0 -.75608 112.814 215.267)"/><path d="M0 0h-19.287v46.44h-37.851v14.744H0Z" style="fill:#0f6cb1;fill-opacity:1;fill-rule:nonzero;stroke:none" transform="matrix(.75608 0 0 -.75608 102.181 182.036)"/><path d="m0 0-3.199-4.389-2.482 1.806 3.199 4.393-6.193 4.508c-.272.197-.602.298-.988.303-.387.005-.714-.176-.977-.54l-.399-.545-1.364.992 3.557 4.882L16.248-6.863l-2.364-3.247zm-8.415-22.504c-.094-.017-.154 0-.175.044-.026.044-.019.11.016.198a22.416 22.416 0 0 1 1.626 5.554 13.266 13.266 0 0 1-.375 5.847C-7.73-9.508-8.398-8.19-9.325-6.902c-.927 1.287-2.19 2.518-3.79 3.682l-.083.056-6.493-8.918-2.457 1.788 8.84 12.139c.08.11.149.167.214.18.063.009.149-.026.257-.106l1.963-1.432C-8.89-.954-7.35-2.536-6.249-4.253c1.098-1.723 1.861-3.471 2.286-5.259.543-2.311.613-4.583.216-6.815-.4-2.227-1.026-4.196-1.885-5.908z" style="fill:#0f6cb1;fill-opacity:1;fill-rule:nonzero;stroke:none" transform="matrix(.75608 0 0 -.75608 24.476 108.975)"/><path d="m0 0-3.343-1.762-13.042 24.744c-.178.339-.416.585-.71.735-.295.149-.672.1-1.129-.138l-.327-.175-.787 1.494 4.864 2.566zm-16.599 11.085-4.149-2.189-1.415 2.689 4.15 2.188-3.447 6.538c-.178.334-.415.58-.71.729-.294.149-.671.106-1.129-.135l-.327-.176-.787 1.494 4.864 2.565L-5.074-2.676l-3.344-1.761zm-14.634 1.863-4.029-2.126-1.401 2.657 11.941 6.292 1.4-2.659-4.061-2.139 1.811-3.431c.734-1.393 1.547-2.575 2.436-3.542.892-.966 1.802-1.727 2.728-2.28.918-.531 1.826-.878 2.724-1.041a6.064 6.064 0 0 1 2.595.07c.11.031.185.027.219-.018.036-.048.036-.105-.004-.175l-.839-3.111c-.729-.259-1.964-.215-3.708.124-1.742.338-3.106.988-4.093 1.941-.126.141-.233.176-.327.114-.094-.061-.125-.176-.092-.333.231-1.353.013-2.835-.65-4.443-.666-1.612-1.352-2.666-2.055-3.162l-3.042 1.068a.642.642 0 0 1-.092.139c-.031.036-.012.084.057.145a6.236 6.236 0 0 1 1.522 2.175c.364.853.581 1.819.648 2.9.048 1.068-.079 2.233-.377 3.502-.299 1.266-.801 2.566-1.502 3.897z" style="fill:#0f6cb1;fill-opacity:1;fill-rule:nonzero;stroke:none" transform="matrix(.75608 0 0 -.75608 66.481 94.306)"/><path d="m0 0 2.564.075-.194 6.714c-.011.382-.117.707-.316.971-.199.263-.556.386-1.072.374L.609 8.12.56 9.807l5.567.163.898-31.032-3.847-.11L2.651-2.96.087-3.03l.528-18.217-3.844-.11-.288 9.917c-.622-.268-1.353-.457-2.193-.572-.841-.113-1.926-.188-3.251-.227l-5.769-.168c-1.349-.039-2.37.268-3.064.923-.695.655-1.061 1.705-1.102 3.141l-.352 12.109a1.495 1.495 0 0 1-.365.971c-.233.259-.575.386-1.024.374l-.674-.019-.051 1.684 14.033.408.088-3.036-7.926-.229.364-12.613c.008-.228.073-.396.201-.501a.652.652 0 0 1 .459-.159l6.443.19c.967.026 1.779.106 2.44.237.66.132 1.211.308 1.655.523l-.433 15.008c-.011.382-.116.703-.316.971-.198.264-.556.387-1.072.373l-.371-.013-.051 1.687 5.567.163z" style="fill:#0f6cb1;fill-opacity:1;fill-rule:nonzero;stroke:none" transform="matrix(.75608 0 0 -.75608 96.993 73.397)"/><path d="m0 0 3.993-1.815-1.396-3.071-3.994 1.815-3.489-7.68-3.686 1.673 6.24 13.735c.137.303.171.65.096 1.028-.075.382-.316.664-.725.848l-.615.281.698 1.534 5.53-2.509zm-20.219 4.85c-.429-.94-.532-1.902-.307-2.882.22-.976.753-1.656 1.592-2.038.839-.383 1.697-.343 2.571.109.874.457 1.524 1.155 1.952 2.096.437.962.548 1.929.332 2.89-.217.963-.747 1.636-1.587 2.018-.776.355-1.625.311-2.538-.124-.917-.44-1.586-1.129-2.015-2.069m-.965 4.811-3.378 1.533 1.241 2.738 6.913-3.142.585 1.292a.986.986 0 0 1 .04.777c-.095.255-.225.418-.389.493l-.491.223.601 1.319 5.191-2.355-1.605-3.537 6.973-3.167-1.241-2.733-3.443 1.563a6.662 6.662 0 0 0 .14-2.1 6.319 6.319 0 0 0-.557-2.082c-.791-1.744-2.128-2.931-4.011-3.572-1.885-.636-3.747-.541-5.591.299-1.843.839-3.144 2.175-3.901 4.016-.761 1.836-.743 3.628.048 5.368a6.31 6.31 0 0 0 1.202 1.788 6.638 6.638 0 0 0 1.673 1.279M-6.059-11.7a.665.665 0 0 0 .368-.373.662.662 0 0 0-.032-.524l-4.466-9.828-3.839 1.744 3.35 7.373c.045.101.054.188.026.264-.026.074-.092.136-.196.184L-26.36-5.813l1.255 2.763z" style="fill:#0f6cb1;fill-opacity:1;fill-rule:nonzero;stroke:none" transform="matrix(.75608 0 0 -.75608 143.33 83.749)"/><path d="M0 0c-1.771-1.498-3.283-2.618-4.535-3.361-1.254-.742-2.513-1.217-3.778-1.418l2.54-3.068c1.229.172 2.46.594 3.689 1.261 1.23.665 2.711 1.719 4.443 3.151l7.566 6.261c.103.088.157.161.162.223.007.067-.033.149-.118.251L-4.49 20.769l-2.34-1.938L4.766 4.821c.171-.207.253-.374.24-.502-.011-.127-.112-.268-.303-.425Zm-2.477 2.461-3.616 4.368-1.274-1.055.346-.417c.229-.278.321-.571.274-.888-.043-.317-.215-.593-.51-.84l-7.327-6.067-2.046 2.47 9.591 7.939-3.614 4.366-1.275-1.053.344-.418c.232-.277.323-.572.276-.887-.044-.317-.214-.594-.509-.84l-7.33-6.068-4.842 5.848-2.364-1.955 18.912-22.845 2.367 1.954-6.993 8.448z" style="fill:#0f6cb1;fill-opacity:1;fill-rule:nonzero;stroke:none" transform="matrix(.75608 0 0 -.75608 169.078 113.948)"/><path d="m0 0 .646-4.392-8.801-1.295 10.016-6.958.849-5.767-10.076 7.473-11.219-11.068-.845 5.739 8.356 7.955-2.496 1.829-7.145-1.052-.647 4.391z" style="fill:#0f6cb1;fill-opacity:1;fill-rule:nonzero;stroke:none" transform="matrix(.75608 0 0 -.75608 10.491 173.855)"/><path d="M0 0c1.621-.46 3.553-.221 5.797.717 2.234.934 3.759 2.141 4.575 3.62.816 1.479.88 3.043.19 4.692-.689 1.649-1.848 2.71-3.475 3.183-1.626.474-3.562.241-5.805-.696-2.243-.939-3.768-2.153-4.574-3.644-.806-1.49-.864-3.06-.174-4.709C-2.777 1.515-1.622.46 0 0m-1.939-3.867c-2.18.856-3.864 2.709-5.055 5.556-1.19 2.846-1.325 5.346-.404 7.499 1.057 2.813 3.374 4.967 6.951 6.462 3.649 1.527 6.809 1.662 9.482.41 2.179-.857 3.864-2.709 5.054-5.556 1.191-2.847 1.326-5.347.405-7.5C13.505.23 11.186-1.92 7.537-3.445 3.961-4.94.801-5.081-1.939-3.867" style="fill:#0f6cb1;fill-opacity:1;fill-rule:nonzero;stroke:none" transform="matrix(.75608 0 0 -.75608 6.848 208.035)"/><path d="m0 0-.406-.289c-1.339-.997-2.196-1.818-2.571-2.462-.375-.645-.27-1.377.315-2.199.579-.815 1.265-1.138 2.056-.97.469.099 1.13.45 1.982 1.056l12.305 8.755L16.297.215 4.05-8.498C2.554-9.563 1.189-10.153-.046-10.27c-2.089-.197-3.928.821-5.516 3.054-1.589 2.233-2.056 4.156-1.401 5.772.655 1.614 2.017 3.157 4.086 4.629l.406.289z" style="fill:#0f6cb1;fill-opacity:1;fill-rule:nonzero;stroke:none" transform="matrix(.75608 0 0 -.75608 16.486 220.567)"/><path d="m0 0-8.399 7.747-3.108-3.37 7.709-7.111-2.542-2.757-7.71 7.111-3.764-4.081 8.787-8.104-2.632-2.853-12.028 11.093 14.639 15.872L2.592 2.811z" style="fill:#0f6cb1;fill-opacity:1;fill-rule:nonzero;stroke:none" transform="matrix(.75608 0 0 -.75608 40.685 236.575)"/><path d="m0 0 4.254-1.711-4.95-12.303c-.553-1.376-.795-2.446-.725-3.211.054-1.326.929-2.33 2.627-3.012 1.688-.68 3.01-.56 3.968.359.579.503 1.146 1.442 1.7 2.818l4.949 12.303 4.254-1.711-4.953-12.312c-.857-2.129-1.854-3.655-2.992-4.575-2.105-1.68-4.889-1.824-8.353-.43-3.465 1.394-5.379 3.428-5.743 6.1-.183 1.453.154 3.244 1.011 5.372z" style="fill:#0f6cb1;fill-opacity:1;fill-rule:nonzero;stroke:none" transform="matrix(.75608 0 0 -.75608 57.661 244.04)"/><path d="m0 0 4.686-.646 6.436-16.083 2.054 14.915 4.165-.574-2.946-21.39-4.468.616L3.309-6.786l-2.09-15.177-4.165.573z" style="fill:#0f6cb1;fill-opacity:1;fill-rule:nonzero;stroke:none" transform="matrix(.75608 0 0 -.75608 76.65 250.729)"/><path d="m0 0-4.478-.2-.966 21.57 4.478.2z" style="fill:#0f6cb1;fill-opacity:1;fill-rule:nonzero;stroke:none" transform="matrix(.75608 0 0 -.75608 101.01 268.543)"/><path d="m0 0 4.576 1.018-2.497-22.675-4.161-.926-11.816 19.491 4.704 1.047 8.135-14.983z" style="fill:#0f6cb1;fill-opacity:1;fill-rule:nonzero;stroke:none" transform="matrix(.75608 0 0 -.75608 117.034 249.552)"/><path d="m0 0-10.284-4.978 1.998-4.127 9.44 4.57 1.634-3.376-9.44-4.569 2.419-4.998L6.525-12.27l1.692-3.494-14.727-7.129-9.409 19.434 14.253 6.9z" style="fill:#0f6cb1;fill-opacity:1;fill-rule:nonzero;stroke:none" transform="matrix(.75608 0 0 -.75608 138.195 244.02)"/><path d="m0 0 3.7-4.467 3.739 3.098C8.182-.754 8.664-.202 8.887.286c.394.861.206 1.757-.567 2.69-.835 1.007-1.713 1.421-2.635 1.24-.519-.101-1.136-.446-1.85-1.038Zm5.144 8.408c.83.244 1.67.287 2.518.128a6.738 6.738 0 0 0 1.995-.706c.629-.342 1.214-.839 1.756-1.493.654-.79 1.099-1.732 1.332-2.824.234-1.094.024-2.179-.633-3.255 1.023.327 1.929.34 2.719.036.79-.303 1.668-1.037 2.634-2.202l.925-1.117c.63-.76 1.087-1.249 1.372-1.47.447-.353.923-.491 1.427-.415l.345-.418-3.835-3.178c-.41.281-.731.517-.964.705-.476.391-.921.828-1.334 1.311l-1.302 1.526c-.893 1.049-1.661 1.604-2.307 1.666-.645.062-1.451-.309-2.418-1.11L5.98-7.219l5.403-6.52-3.396-2.813L-5.788.075l7.953 6.589c1.154.919 2.147 1.5 2.979 1.744" style="fill:#0f6cb1;fill-opacity:1;fill-rule:nonzero;stroke:none" transform="matrix(.75608 0 0 -.75608 147.216 237.694)"/><path d="M0 0c.873-.479 1.628-.701 2.264-.666 1.16.066 2.283.827 3.37 2.28.65.87 1.085 1.648 1.303 2.331.411 1.299.127 2.314-.85 3.045-.571.427-1.202.505-1.892.235-.682-.277-1.551-.875-2.605-1.796L-.221 3.864c-1.782-1.536-3.169-2.469-4.161-2.8-1.669-.57-3.351-.219-5.049 1.049-1.549 1.158-2.409 2.691-2.581 4.597-.172 1.906.569 3.964 2.22 6.173 1.379 1.845 3.039 3.056 4.978 3.637 1.941.58 3.853.214 5.738-1.097l-2.596-3.472c-1.089.713-2.176.801-3.261.263-.72-.361-1.402-.971-2.044-1.828-.714-.954-1.095-1.857-1.145-2.706-.051-.851.261-1.527.933-2.03.618-.461 1.29-.526 2.014-.193.473.208 1.284.796 2.434 1.762l2.984 2.5c1.308 1.095 2.472 1.779 3.492 2.052 1.584.421 3.147.057 4.687-1.095 1.58-1.181 2.435-2.773 2.566-4.776.131-2.002-.637-4.117-2.304-6.346-1.703-2.277-3.556-3.683-5.56-4.218-2.003-.535-3.904-.13-5.703 1.215Z" style="fill:#0f6cb1;fill-opacity:1;fill-rule:nonzero;stroke:none" transform="matrix(.75608 0 0 -.75608 168.258 228.84)"/><path d="m0 0-2.014-4.004-19.29 9.7L-19.29 9.7z" style="fill:#0f6cb1;fill-opacity:1;fill-rule:nonzero;stroke:none" transform="matrix(.75608 0 0 -.75608 184.436 212.504)"/><path d="m0 0 3.652-1.131-1.91-6.171 16.974-5.254-1.343-4.337L.399-11.64l-1.919-6.199-3.652 1.131z" style="fill:#0f6cb1;fill-opacity:1;fill-rule:nonzero;stroke:none" transform="matrix(.75608 0 0 -.75608 176.424 186.994)"/><path d="m0 0 .475 5.091 12.766-8.445 8.062-.75-.419-4.493-8.062.751-14.131-6.184.495 5.294 9.779 3.59z" style="fill:#0f6cb1;fill-opacity:1;fill-rule:nonzero;stroke:none" transform="matrix(.75608 0 0 -.75608 178.378 171.747)"/></g></svg>