<svg xmlns="http://www.w3.org/2000/svg" width="167.70233mm" height="146.03532mm" viewBox="0 0 167.70233 146.03532"><path d="m273.81 226.517.746-.537 1.651 2.289.571-3.893.992-.715-.672 4.225 4.618.84-1.088.785-4.158-.877 1.839 2.549-.745.539zM282.008 224.88c-.589-1.166-.512-2.563.755-3.193 1.259-.647 2.43.121 3.019 1.287.576 1.138.566 2.525-.755 3.193-1.321.666-2.443-.146-3.019-1.287zm-.87.439c.879 1.739 2.506 2.452 4.254 1.569 1.747-.883 2.138-2.615 1.259-4.354-.858-1.699-2.513-2.449-4.253-1.57-1.739.879-2.118 2.656-1.26 4.355zM288.477 218.421l1.197-.359 4.196 4.136.017-.006-1.483-4.949.881-.263 1.841 6.146-1.126.338-4.298-4.221-.017.006 1.514 5.053-.88.265zM299.234 219.696l-2.957-3.388 1.067-.133 2.258 2.615 1.49-3.09 1.067-.133-2.013 4.016.335 2.662-.911.115zM308.326 219.638l-2.554-.078 1.375-3.139zm-4.537 2.234.965.029.701-1.595 3.143.094.603 1.638 1.001.029-2.514-6.496-.965-.029zM313.478 216.077l1.225.252 1.73 5.631.018.004 1.043-5.059.901.186-1.296 6.283-1.153-.236-1.779-5.756-.019-.004-1.065 5.168-.899-.186zM326.16 221.032c-.31-.439-.71-.754-1.479-1.058-1.376-.545-2.687.093-3.214 1.427-.553 1.403.087 2.733 1.326 3.223.59.233.767.234.998.276l.717-1.813-1.257-.496.276-.701 2.113.834-1.227 3.103c-.368-.017-.993-.086-1.925-.453-1.89-.748-2.667-2.459-1.917-4.355.727-1.838 2.543-2.534 4.364-1.815.873.346 1.207.625 1.635.992zM335.653 229.935c-1.062 1.455-2.366 1.697-3.643.765-1.278-.931-1.444-2.248-.381-3.703l2.218-3.037.742.543-2.147 2.939c-.726.995-.913 1.905.044 2.604.958.699 1.769.244 2.495-.75l2.147-2.939.742.541zM340.759 229.413l.868.901-1.754 5.623.013.013 3.718-3.586.638.662-4.618 4.454-.817-.846 1.782-5.754-.013-.014-3.799 3.662-.636-.662zM346.474 235.866l.548.739-5.155 3.822-.548-.738zM344.872 245.167l-.565-1 4.396-5.262.506.897-3.908 4.478.009.018 5.881-.992.475.842zM352.697 246.54l1.309 3.348-.754.293-.973-2.49-1.748.681.887 2.27-.754.293-.886-2.268-1.969.768.973 2.492-.753.295-1.308-3.348zM354.463 254.282l.199.86c.191.824-.066 1.338-.631 1.468-.599.139-1.092-.275-1.29-1.127l-.176-.759zm-5.67.373.207.897 2.776-.645.124.537c.112.475.18.77-.365 1.188l-1.943 1.463.236 1.019 2.215-1.759c.34-.288.442-.452.485-.754l.019-.004c.293.695.961 1.135 1.723.957 1.495-.346 1.415-1.584 1.128-2.819l-.355-1.531zM355.801 263.749c.14-.484.199-.748.157-1.223-.046-.513-.284-1.101-.952-1.041-1.227.11-.696 2.831-2.802 3.02-1.364.123-1.999-.881-2.114-2.162-.04-.449.049-.901.148-1.334l.86.016c-.1.322-.235.888-.192 1.355.047.521.404 1.227 1.156 1.16 1.428-.129.788-2.84 2.774-3.017 1.136-.104 1.82.74 1.924 1.894.038.42.01.932-.106 1.385zM356.84 267.224l-.016.92-6.415-.108.016-.92zM355.67 272.855l.258-1.979.8.106-.632 4.867-.803-.104.258-1.978-5.561-.725.119-.912zM351.383 279.483l4.282-1.376-.298 1.035-3.295 1.039 2.246 2.59-.297 1.033-2.892-3.438-2.58-.744.256-.883zM278.142 305.878c-.975.283-1.994.254-3.057-.092l-.088-.767c.793.304 1.6.384 2.419.238.819-.145 1.424-.469 1.815-.971l-2.136-1.484.415-.598 2.948 2.047c-.57.801-1.342 1.342-2.316 1.627zm.74 3.379 1.41-2.029-1.24-.862.416-.597 1.239.861 1.325-1.908.677.469-3.15 4.537zm-4.678-.895 1.355-1.951.676.471-.939 1.351 3.739 2.598-.416.598zM287.473 314.968c-.368.027-.808-.063-1.322-.274-.508-.207-.886-.455-1.135-.74-.248-.285-.326-.543-.231-.773.098-.24.333-.369.705-.387.372-.016.812.08 1.321.287.513.211.892.453 1.136.729.243.273.316.531.218.771-.094.231-.325.36-.692.387zm3.676-3.082-.979-.401.329-.802.979.4.275-.674-.979-.4.384-.94-.762-.31-1.713 4.189.762.311.45-1.098.979.399zm-2.358 1.748c-.32-.445-.895-.84-1.724-1.178-.83-.34-1.515-.461-2.056-.367-.541.094-.896.348-1.064.758-.169.412-.092.84.231 1.281.322.439.898.83 1.727 1.168.829.34 1.513.465 2.052.377.54-.09.894-.34 1.062-.752.168-.412.092-.84-.228-1.287zm-.387-4.828c-.207-.477-.584-.828-1.129-1.051-.541-.221-1.055-.234-1.544-.041a1.763 1.763 0 0 0-1.024 1.004c-.194.476-.186.957.025 1.439.212.485.588.836 1.128 1.057.546.223 1.061.234 1.545.037a1.792 1.792 0 0 0 1.018-1.014 1.774 1.774 0 0 0-.019-1.431zm-1.344 1.742c-.266.131-.573.125-.92-.016-.343-.14-.566-.351-.669-.634a1.154 1.154 0 0 1 .023-.858c.116-.283.31-.49.581-.619.271-.129.578-.125.921.016.348.142.57.353.668.634.098.28.088.561-.027.846a1.176 1.176 0 0 1-.577.631zM297.107 316.47a6.065 6.065 0 0 1-.571-.028 17.774 17.774 0 0 1-1.064-.13l-1.43-.229.849-4.937 2.546.437-.126.734-1.744-.298-.591 3.443.924.15c.257.038.51.069.759.09.248.022.44.033.574.033zm2.606 2.295-.786-.135.671-3.904-.923-.16-.613 3.564-.786-.135 1.204-7.008.787.135-.458 2.666.922.158.488-2.836.786.135zM307.577 315.226c-.171.129-.437.201-.802.218-.363.016-.638-.029-.826-.14-.187-.11-.285-.258-.294-.442-.008-.185.075-.337.252-.459.177-.121.447-.189.812-.207.363-.015.635.026.816.127.182.102.276.246.285.43.008.186-.072.342-.243.473zm.205-3.934-2.417.111.032.668 2.415-.111zm1.136 1.119-4.581.211.03.668 4.582-.211zm2.608.834-1.03.049-.097-2.088-.813.037.223 4.852.814-.039-.093-2.008 1.03-.049zm-3.3 2.401c.334-.258.495-.567.478-.924-.016-.358-.2-.649-.552-.869-.351-.221-.84-.317-1.462-.289-.608.029-1.084.169-1.43.421-.348.254-.514.561-.496.918.015.358.209.651.578.875.369.227.851.327 1.445.299.624-.029 1.104-.172 1.439-.431zm2.426.879-5.351.246.031.683 4.513-.207.074 1.619.841-.039zM320.539 311.759c.125.832.205 1.572.242 2.221l-.778.209a89.564 89.564 0 0 0-.129-1.264 15.007 15.007 0 0 0-.341-2.049l-4.646 1.25-.192-.711 5.518-1.484c.092.386.201.998.326 1.828zm-5.088 5.432-.189-.704 1.64-.441-.679-2.529.802-.215.682 2.527 1.046-.281-.681-2.527.804-.217.681 2.527 2.704-.726.188.703zM326.262 310.103a.65.65 0 0 1 .388.349c.081.17.09.344.026.524a.662.662 0 0 1-.351.388.667.667 0 0 1-.522.026.66.66 0 0 1-.389-.352.648.648 0 0 1-.025-.521.658.658 0 0 1 .349-.391.659.659 0 0 1 .524-.023zM331.076 305.126l-.346 1.244-.744-.24.59-1.934.676-.451 3.549 5.307-.761.508zM335.872 302.704c-.456-.513-.619-1.248-.044-1.76.561-.498 1.332-.191 1.733.26.474.533.529 1.242-.039 1.746-.54.481-1.254.198-1.65-.246zm2.355 3.67c.237-.076.789-.432 1.118-.724 1.51-1.342.733-3.073-.415-4.366-.965-1.086-2.307-2.047-3.641-.863-.869.771-1.004 1.955-.13 2.939.759.856 1.849 1.049 2.773.231.396-.354.615-.768.658-1.367l.008-.02c.799.93 1.097 2.133.208 2.922a2.427 2.427 0 0 1-1.025.555zM340.496 298.228c-.519-.448-.781-1.155-.28-1.737.489-.568 1.296-.371 1.753.024.541.465.691 1.16.196 1.736-.472.547-1.218.365-1.669-.023zm2.826 3.322c.225-.109.725-.535 1.012-.869 1.316-1.533.313-3.143-.998-4.27-1.104-.947-2.563-1.719-3.725-.367-.758.881-.732 2.072.268 2.932.866.744 1.973.791 2.777-.147.346-.402.507-.842.469-1.441l.004-.022c.918.815 1.375 1.967.599 2.867a2.424 2.424 0 0 1-.94.688zM344.26 291.78l.175 1.28-.778.074-.227-2.008.441-.685 5.363 3.464-.496.768zM349.156 286.948a.67.67 0 0 1 .523.022.66.66 0 0 1 .353.387.656.656 0 0 1-.022.523.655.655 0 0 1-.387.353.662.662 0 0 1-.522-.021.658.658 0 0 1-.353-.387.656.656 0 0 1 .022-.523.66.66 0 0 1 .386-.354z" style="fill:#006743;stroke:none" transform="matrix(1.41337 0 0 1.41337 -336.646 -304.641)"/><path d="M322.565 244.831c-3.793 0-5.588.985-7.459 4.436l-4.521 8.326h-.137c-.763-3.264-2.134-6.453-4.238-8.477-3.161-3.035-7.307-4.285-12.2-4.285h-12.608c7.995 3.402 14.53 13.051 14.53 23.77 0 8.894-4.488 16.392-11.043 19.861 2.958 2.443 6.422 4.031 10.219 4.031 9.709 0 16.403-5.697 21.53-14.879 16.213-29.029 18.44-32.783 18.44-32.783z" style="fill:#85ba2a;stroke:none" transform="matrix(1.41337 0 0 1.41337 -336.646 -304.641)"/><path d="M273.025 268.989c0-8.992 4.556-16.738 11.11-20.248-2.958-2.47-6.491-3.908-10.289-3.908-8.265 0-15.287 6.811-17.823 16.287h-.217v-11.043c0-1.834-.023-2.935-.87-3.783-.846-.846-1.989-.869-3.822-.869h-12.928v47.594h12.928c1.833 0 2.976-.022 3.822-.871.847-.846.87-1.95.87-3.782v-11.634h.217c2.536 9.476 9.558 16.287 17.823 16.287h14.057v-.057c-8.187-3.434-14.878-13.162-14.878-23.973z" style="fill:#006743;stroke:none" transform="matrix(1.41337 0 0 1.41337 -336.646 -304.641)"/></svg>