<svg xmlns="http://www.w3.org/2000/svg" viewBox="0 0 125.26 85.959"><path d="M114.903 12.338v61.073l10.357 12.548V0l-10.357 12.338z" style="fill:#00a051"/><path d="m81.44 18.411 33.463-6.073L125.26 0 71.466 10.144l9.974 8.267z" style="fill:#f39800"/><path d="M81.44 26.461v-8.05l-9.974-8.267v16.317h9.974z" style="fill:#ea5504"/><path d="M143.233 183.361h7.725v10.727h.082l8.723-10.727h9.307L158.352 195.6l11.548 14.039h-9.844L151.04 197.7h-.082v11.935h-7.725ZM189.466 182.909c-10.635 0-18.32 3.8-18.32 13.7 0 9.94 8.933 13.477 16.66 13.477a46.909 46.909 0 0 0 11.214-1.2v-13.48h-7.479v9.04a7.4 7.4 0 0 1-2.738.448c-5.649 0-9.68-3.123-9.68-8.281 0-6.136 5.15-8.507 11.421-8.507a19.622 19.622 0 0 1 8.476 2.133v-5.887a35.277 35.277 0 0 0-9.554-1.443ZM232.409 199.663c0 7.189-5.152 10.426-12.714 10.426s-12.708-3.237-12.708-10.426v-16.3h7.723V198.5c0 3.462 1.039 6.4 4.985 6.4s4.985-2.935 4.985-6.4v-15.139h7.729Z" style="fill:#231815" transform="translate(-143.233 -153.286)"/><path d="M114.903 73.411 81.44 67.549v-7.086h-9.974v15.356l53.794 10.14-10.357-12.548z" style="fill:#004ea2"/></svg>