<svg xmlns="http://www.w3.org/2000/svg" xml:space="preserve" width="800" height="800" viewBox="0 0 799.99999 800"><path d="M218.019 200.97c0-165.428 134.578-300.005 300-300.005 165.427 0 300 134.577 300 300.004 0 165.405-134.573 299.996-300 299.996-165.422 0-300-134.591-300-299.996" style="fill:#62b92c;fill-opacity:1;fill-rule:nonzero;stroke:none;stroke-width:4.40012" transform="matrix(1.33333 0 0 -1.33333 -290.692 667.953)"/><path d="M310.5 200.97c0 114.424 93.098 207.517 207.519 207.517 114.42 0 207.51-93.093 207.51-207.518 0-114.42-93.09-207.5-207.51-207.5-114.42 0-207.518 93.08-207.518 207.5" style="fill:#fff;fill-opacity:1;fill-rule:nonzero;stroke:none;stroke-width:4.40012" transform="matrix(1.33333 0 0 -1.33333 -290.692 667.953)"/><path d="m0 0-3.201 1.959c-.143.064-.233.012-.29-.05l-.368-.602c-.02-.036-.078-.169.141-.303l2.283-1.4c.094-.055.139-.108.139-.161.001-.051-.034-.121-.095-.208a4.537 4.537 0 0 0-.916-.952 4.666 4.666 0 0 0-1.221-.66 5.896 5.896 0 0 0-1.542-.33 8.519 8.519 0 0 0-1.688.043c-.209.005-.181-.256-.181-.256l.012-.816s-.009-.177.249-.21c.745-.097 1.441-.121 2.075-.052.703.072 1.35.238 1.938.488A6 6 0 0 1-1.072-2.5c.474.416.899.908 1.283 1.459.157.229.216.425.18.59C.354-.287.224-.136 0 0" style="fill:#fff;fill-opacity:1;fill-rule:nonzero;stroke:none" transform="matrix(5.86682 0 0 -5.86682 240.067 664.155)"/><path d="m0 0-5.063-8.27 1.23-.754L1.229-.752z" style="fill:#fff;fill-opacity:1;fill-rule:nonzero;stroke:none" transform="matrix(5.86682 0 0 -5.86682 254.138 668.27)"/><path d="m0 0-1.339.535-3.597-9.009 1.342-.536 1.817 4.548 1.389-.556.389.976-1.39.554z" style="fill:#fff;fill-opacity:1;fill-rule:nonzero;stroke:none" transform="matrix(5.86682 0 0 -5.86682 310.509 694.074)"/><path d="m0 0-1.345.537L-2.438-2.2l-1.474.589c-.196.084-.297.007-.346-.077l-.247-.62c-.013-.034-.046-.177.193-.272l5.691-2.273.389.974-2.861 1.143z" style="fill:#fff;fill-opacity:1;fill-rule:nonzero;stroke:none" transform="matrix(5.86682 0 0 -5.86682 274.649 702.502)"/><path d="m0 0 3.01-1.201c.122-.049.2-.105.234-.166.037-.059.029-.154-.019-.276L1.922-4.905l1.343-.535 1.444 3.618c.122.306.145.563.072.775-.076.208-.272.379-.599.51L.399.972C.204 1.056.104.974.054.897L-.193.275C-.206.237-.24.096 0 0" style="fill:#fff;fill-opacity:1;fill-rule:nonzero;stroke:none" transform="matrix(5.86682 0 0 -5.86682 265.877 686.346)"/><path d="M0 0c-.361.031-.73.214-1.107.547-.379.335-.607.68-.684 1.039-.078.358-.008.662.208.905.231.261.53.377.899.345.367-.033.739-.215 1.116-.549.378-.334.601-.681.675-1.036A1.02 1.02 0 0 0 .869.32C.652.078.362-.033 0 0m2.39 1.138c-.06.326-.189.654-.396.992a4.293 4.293 0 0 1-.848.984c-.36.318-.72.56-1.082.725a3.043 3.043 0 0 1-1.038.28 2.2 2.2 0 0 1-.931-.142 2.01 2.01 0 0 1-.746-.528 1.946 1.946 0 0 1-.427-.799 2.053 2.053 0 0 1-.02-.931c.064-.325.198-.656.405-.996a4.42 4.42 0 0 1 .85-.986 4.35 4.35 0 0 1 1.08-.722c.36-.162.702-.252 1.03-.277.328-.02.632.025.917.141.286.111.534.285.742.519.207.236.349.504.43.805.081.298.092.609.034.935" style="fill:#fff;fill-opacity:1;fill-rule:nonzero;stroke:none" transform="matrix(5.86682 0 0 -5.86682 174.53 674.881)"/><path d="M0 0c.376.177.716.371 1.018.585a4.6 4.6 0 0 1 .778.675c.217.24.368.47.454.703a2.32 2.32 0 0 1 .661-.503 4.78 4.78 0 0 1 .927-.37A7.07 7.07 0 0 1 6.002.815l.223.958a8.324 8.324 0 0 0-1.156.102 5.734 5.734 0 0 0-1.116.293 2.906 2.906 0 0 0-.878.512 1.293 1.293 0 0 0-.413.683l-.088.517-1.475-.252.075-.441a1.203 1.203 0 0 0-.152-.807 2.731 2.731 0 0 0-.626-.752A4.915 4.915 0 0 0-.565.986 7.48 7.48 0 0 0-1.72.506l.579-.936c.389.113.77.258 1.141.43" style="fill:#fff;fill-opacity:1;fill-rule:nonzero;stroke:none" transform="matrix(5.86682 0 0 -5.86682 447.634 723.494)"/><path d="m0 0 3.929.671.12-.695-2.656-.453.177-1.038 5.008.855c.098.017.171.014.212-.011.042-.028.065-.08.079-.159l.063-.369-5.185-.885.289-1.704c.049-.283.167-.499.36-.646.19-.147.419-.2.687-.155l5.902 1.01-.177 1.035-5.145-.879a.344.344 0 0 0-.192.009c-.041.027-.07.083-.087.177l-.06.356 5.194.888-.336 1.964a.825.825 0 0 1-.232.465c-.12.116-.3.156-.536.115L5.472.219l-.118.695 3.927.671-.176 1.036-9.283-1.585Z" style="fill:#fff;fill-opacity:1;fill-rule:nonzero;stroke:none" transform="matrix(5.86682 0 0 -5.86682 436.222 735.354)"/><path d="m0 0-4.634-2.957c-.181-.11-.174-.235-.138-.319l.361-.569c.023-.032.116-.141.334-.002l3.931 2.509c.111.07.201.102.272.094.071-.01.141-.068.21-.177l1.177-1.847 1.218.779-1.382 2.17C1.171-.042.977.125.763.189.552.25.297.189 0 0" style="fill:#fff;fill-opacity:1;fill-rule:nonzero;stroke:none" transform="matrix(5.86682 0 0 -5.86682 599.06 684.15)"/><path d="M0 0a1.247 1.247 0 0 0-.011.426c.023.14.074.274.161.4.081.128.2.239.346.333.152.096.307.158.459.182a.964.964 0 0 0 .436-.022 1.143 1.143 0 0 0 .667-.512c.165-.257.228-.534.187-.825-.039-.289-.218-.533-.53-.733-.305-.192-.596-.246-.877-.163a1.16 1.16 0 0 0-.673.515A1.212 1.212 0 0 0 0 0m2.286-1.646c.33.212.598.449.801.714.206.265.345.535.419.811.075.277.092.554.045.835a2.078 2.078 0 0 1-.305.799c-.322.505-.771.81-1.342.922l.875.559-.563.883L.343 2.683l-.548.86-1.154-.736.547-.861L-2.533.848C-2.704.737-2.699.614-2.665.53l.36-.562c.022-.031.119-.142.336-.004l.715.456a2.026 2.026 0 0 1-.043-.833A2.07 2.07 0 0 1-.99-1.19a1.974 1.974 0 0 1 1.382-.918 2.44 2.44 0 0 1 .911.037c.323.073.648.213.983.425" style="fill:#fff;fill-opacity:1;fill-rule:nonzero;stroke:none" transform="matrix(5.86682 0 0 -5.86682 562.055 683.83)"/><path d="m0 0-1.219-.777 3.19-5 1.22.778-1.166 1.824 1.254.803-.568.888-1.253-.801z" style="fill:#fff;fill-opacity:1;fill-rule:nonzero;stroke:none" transform="matrix(5.86682 0 0 -5.86682 583.207 648.79)"/><path d="m0 0-2.1 2.325-1.057-.954 2.098-2.324-.778-.703-2.1 2.324-1.056-.954 2.098-2.324-1.367-1.237c-.166-.139-.134-.267-.084-.344l.446-.495c.028-.028.14-.122.332.05l6.783 6.124-.705.78Z" style="fill:#fff;fill-opacity:1;fill-rule:nonzero;stroke:none" transform="matrix(5.86682 0 0 -5.86682 641.291 651.528)"/><path d="M0 0c.075.123.169.233.281.321.111.089.242.15.39.183.149.039.307.042.478.011.18-.033.335-.092.464-.18a.953.953 0 0 0 .303-.31 1.08 1.08 0 0 0 .148-.396 1.338 1.338 0 0 0-.006-.433 1.185 1.185 0 0 0-.423-.731c-.223-.188-.52-.245-.888-.179-.351.065-.602.223-.753.475a1.15 1.15 0 0 0-.143.833c.025.143.076.278.149.406m.559-2.759c.388-.07.747-.078 1.076-.022.329.056.615.16.855.312.244.153.446.344.601.582.158.235.264.499.318.792a1.987 1.987 0 0 1-.36 1.59L4.072.31l.187 1.032-2.187.394.182 1.003-1.35.244-.179-1.002-2.009.362c-.201.036-.278-.058-.307-.142l-.119-.661c-.007-.034-.012-.184.239-.228l.835-.152A1.996 1.996 0 0 1-1.538-.2a1.984 1.984 0 0 1 .394-1.613c.18-.227.409-.425.695-.589a2.966 2.966 0 0 1 1.008-.357" style="fill:#fff;fill-opacity:1;fill-rule:nonzero;stroke:none" transform="matrix(5.86682 0 0 -5.86682 328.78 716.693)"/><path d="m0 0-1.422.255-1.054-5.836 1.422-.257.385 2.133L.796-3.97l.187 1.038-1.463.264z" style="fill:#fff;fill-opacity:1;fill-rule:nonzero;stroke:none" transform="matrix(5.86682 0 0 -5.86682 368.1 705.326)"/><path d="m0 0-5.406.976c-.211.041-.291-.055-.323-.143-.023-.062-.022-.118-.022-.118l-.098-.541c-.005-.036-.01-.184.242-.229l4.593-.829c.128-.023.214-.06.261-.115.045-.055.056-.146.033-.273l-.388-2.156 1.423-.256.456 2.533c.059.325.03.579-.084.773C.574-.191.345-.062 0 0" style="fill:#fff;fill-opacity:1;fill-rule:nonzero;stroke:none" transform="matrix(5.86682 0 0 -5.86682 355.73 742.052)"/><path d="m0 0 .006-9.698 1.445.001L1.444.002Z" style="fill:#fff;fill-opacity:1;fill-rule:nonzero;stroke:none" transform="matrix(5.86682 0 0 -5.86682 418.157 706.736)"/><path d="m0 0-3.753-.001c-.153-.021-.206-.111-.221-.194l.001-.708c.002-.039.025-.185.279-.184l2.675.002c.113 0 .18-.02.207-.065.026-.045.034-.121.026-.228a4.45 4.45 0 0 0-.284-1.288 4.509 4.509 0 0 0-.694-1.202 5.774 5.774 0 0 0-1.144-1.088 8.392 8.392 0 0 0-1.46-.845c-.183-.105-.021-.315-.021-.315l.436-.689s.087-.155.32-.049c.689.308 1.292.652 1.798 1.04A6.548 6.548 0 0 1-.439-4.383 5.97 5.97 0 0 1 .393-2.69c.185.602.294 1.244.33 1.915.016.276-.036.473-.153.595C.454-.06.263 0 0 0" style="fill:#fff;fill-opacity:1;fill-rule:nonzero;stroke:none" transform="matrix(5.86682 0 0 -5.86682 403.983 710.586)"/><path d="m0 0-.932-.357-1.306 3.4-1.246-.481 3.48-9.048 1.246.479-1.791 4.656.931.361 1.792-4.66 1.266.487-3.473 9.056-1.275-.492z" style="fill:#fff;fill-opacity:1;fill-rule:nonzero;stroke:none" transform="matrix(5.86682 0 0 -5.86682 537.132 700.651)"/><path d="M0 0c-.066.022-.122.093-.171.218L-1.495 3.66l2.222.855c.238.092.207.235.193.271l-.239.626c-.049.08-.146.16-.343.079L-3.223 4.12l1.76-4.566c.164-.429.359-.697.591-.799.232-.102.508-.092.831.032L3.195.031l-.378.983L.285.04C.161-.008.069-.022 0 0" style="fill:#fff;fill-opacity:1;fill-rule:nonzero;stroke:none" transform="matrix(5.86682 0 0 -5.86682 508.932 725.127)"/><path d="m0 0-.997-.855L.365-2.442l.846.806c.516.489.694.907.202 1.481C.949.385.546.467 0 0m5.342-2.654-.83-.712c-.062-.053-.133-.045-.191.01L3.27-2.255c-.478.505-.98.213-1.468-.182l-.854-.685 1.545-1.8a.126.126 0 0 0-.013-.185l-.824-.706a.125.125 0 0 0-.184.015l-4.052 4.72a.141.141 0 0 0 .014.198L-.436.946c.967.828 1.849 1.017 2.742-.024.6-.699.683-1.323-.031-2.108l.162-.187c.74.566 1.248.688 2.074-.2l.833-.895c.052-.06.054-.138-.002-.186" style="fill:#fff;fill-opacity:1;fill-rule:nonzero;stroke:none" transform="matrix(5.86682 0 0 -5.86682 177.927 134.182)"/><path d="M0 0c-.906-.625-1.779-.895-1.924-.93a.207.207 0 0 0-.223.08l-.01.015-.29.622c-.047.096-.02.157.034.194a.336.336 0 0 0 .065.034c.173.066 1.002.328 1.614.748.53.365.855.814.475 1.363-.393.571-.905.294-1.586-.025-.778-.366-1.866-.784-2.724.46-.889 1.287-.276 2.222.798 2.961a6.685 6.685 0 0 0 1.775.859c.107.032.189.014.244-.066l.005-.007.299-.648c.031-.075.017-.127-.043-.168a.396.396 0 0 0-.059-.03c-.449-.182-.969-.347-1.513-.722-.469-.323-.868-.737-.484-1.293.38-.55.929-.225 1.591.049l.122.052c.861.359 1.769.738 2.662-.556C1.696 1.733 1.021.703 0 0" style="fill:#fff;fill-opacity:1;fill-rule:nonzero;stroke:none" transform="matrix(5.86682 0 0 -5.86682 224.827 139.461)"/><path d="m0 0-.936-.548a.126.126 0 0 0-.178.048l-3.135 5.354c-.036.061-.016.123.043.168l.874.685.015.008c.063.037.122.001.153-.052L.046.18A.127.127 0 0 0 0 0" style="fill:#fff;fill-opacity:1;fill-rule:nonzero;stroke:none" transform="matrix(5.86682 0 0 -5.86682 247 124.823)"/><path d="m0 0-1.651-.813 2.333-4.75a.127.127 0 0 0-.059-.176l-.972-.479a.127.127 0 0 0-.175.061L-2.861-1.4l-1.652-.814a.127.127 0 0 0-.175.061l-.353.718a.132.132 0 0 0 .059.176L-.473.962a.132.132 0 0 0 .176-.06L.056.184C.09.113.066.033 0 0" style="fill:#fff;fill-opacity:1;fill-rule:nonzero;stroke:none" transform="matrix(5.86682 0 0 -5.86682 263.46 80.596)"/><path d="m0 0 .81-2.171c.027-.074-.008-.143-.084-.172L-.283-2.72c-.077-.028-.149.001-.177.075L-1.263-.49l-3.522 2.789c-.025.019-.033.044-.04.06-.028.074.013.155.065.175l1.194.445c.098.037.141.015.232-.063L-.99.858l.37 3.071c.014.127.035.163.126.197l1.116.416c.077.029.132-.025.153-.083.006-.017.016-.041.01-.071Z" style="fill:#fff;fill-opacity:1;fill-rule:nonzero;stroke:none" transform="matrix(5.86682 0 0 -5.86682 292.06 88.279)"/><path d="M0 0c-1.333-.28-1.335-1.062-1.008-2.607.327-1.547.645-2.261 1.977-1.98 1.333.28 1.343 1.063 1.015 2.609C1.658-.432 1.34.282 0 0m1.18-5.584c-2.346-.494-3.121.689-3.543 2.683C-2.786-.9-2.556.495-.209.988 2.145 1.483 2.92.3 3.343-1.702c.422-1.992.191-3.387-2.163-3.882" style="fill:#fff;fill-opacity:1;fill-rule:nonzero;stroke:none" transform="matrix(5.86682 0 0 -5.86682 331.22 58.097)"/><path d="m0 0-2.568-.276.206-1.929 2.308.248a.127.127 0 0 0 .145-.117l.085-.803a.125.125 0 0 0-.115-.144l-2.31-.249.24-2.251a.14.14 0 0 0-.123-.155l-1.061-.114a.142.142 0 0 0-.153.125L-4.004.506a.141.141 0 0 0 .123.154l3.768.405c.081.009.143-.038.151-.116L.124.146C.133.067.081.009 0 0" style="fill:#fff;fill-opacity:1;fill-rule:nonzero;stroke:none" transform="matrix(5.86682 0 0 -5.86682 379.106 52.178)"/><path d="M0 0c-1.1.027-1.965.321-2.102.377a.21.21 0 0 0-.133.197v.017l.131.674c.018.105.076.139.141.137a.484.484 0 0 0 .073-.01c.178-.049 1.003-.324 1.744-.342.644-.015 1.17.157 1.187.825.017.694-.561.77-1.299.911-.844.161-1.97.461-1.933 1.972.038 1.565 1.083 1.962 2.386 1.93a6.697 6.697 0 0 0 1.941-.346c.105-.038.161-.101.158-.197v-.009l-.14-.7c-.017-.08-.059-.114-.133-.112-.024.001-.065.01-.065.01-.47.118-.987.289-1.647.305-.571.013-1.135-.087-1.152-.764-.016-.668.618-.727 1.316-.894l.129-.029c.908-.216 1.865-.441 1.827-2.015C2.391.408 1.239-.03 0 0" style="fill:#fff;fill-opacity:1;fill-rule:nonzero;stroke:none" transform="matrix(5.86682 0 0 -5.86682 411.253 84.022)"/><path d="M0 0c-.007-.061-.047-.118-.174-.147-.304-.07-.925-.189-1.935-.067-2.063.249-2.674 1.304-2.394 3.622.281 2.326 1.125 3.196 3.187 2.947C-.305 6.233.27 5.961.548 5.821c.116-.058.139-.132.133-.193a.83.83 0 0 0-.016-.06l-.201-.647c-.026-.068-.069-.098-.143-.089-.024.003-.049.006-.071.017-.234.099-.847.332-1.453.405-1.359.164-1.743-.443-1.934-2.011C-3.325 1.683-3.1.966-1.741.802-1.135.729-.489.837-.24.86c0 0 .041.004.082-.001C-.086.85-.05.81-.043.73L0 .07S.003.026 0 0" style="fill:#fff;fill-opacity:1;fill-rule:nonzero;stroke:none" transform="matrix(5.86682 0 0 -5.86682 457.208 85.036)"/><path d="m0 0-1.063.209a.125.125 0 0 0-.103.154L.029 6.45c.014.069.071.103.144.097l1.108-.066.016-.002c.072-.015.093-.082.081-.142L.153.104A.126.126 0 0 0 0 0" style="fill:#fff;fill-opacity:1;fill-rule:nonzero;stroke:none" transform="matrix(5.86682 0 0 -5.86682 468.374 89.949)"/><path d="m0 0-3.843 1.06a.14.14 0 0 0-.095.172l1.65 5.987c.02.076.1.118.171.099l3.843-1.06a.126.126 0 0 0 .09-.161l-.212-.771c-.021-.076-.093-.12-.164-.101l-2.679.739-.413-1.499 2.561-.706A.127.127 0 0 0 1 3.597l-.215-.779a.125.125 0 0 0-.16-.092l-2.562.706-.462-1.677L.28 1.016C.358.995.399.928.379.852L.169.09C.147.014.079-.022 0 0" style="fill:#fff;fill-opacity:1;fill-rule:nonzero;stroke:none" transform="matrix(5.86682 0 0 -5.86682 499.582 97.924)"/><path d="m0 0-1.987.792c-.069.026-.107.108-.092.187l.377 5.516-.235.093-1.867-4.931a.126.126 0 0 0-.17-.074l-1.001.399a.126.126 0 0 0-.073.17l2.305 5.788c.025.066.109.099.178.072l2.04-.813c.075-.031.109-.1.105-.175l-.442-5.792.121-.048 1.98 5.151c.045.114.131.108.222.072l.895-.356c.098-.04.165-.094.116-.217L.178.071C.148-.002.075-.03 0 0" style="fill:#fff;fill-opacity:1;fill-rule:nonzero;stroke:none" transform="matrix(5.86682 0 0 -5.86682 535.11 111.457)"/><path d="M0 0c-.029-.055-.087-.093-.215-.075-.308.045-.931.158-1.83.637-1.832.977-2.02 2.182-.92 4.243 1.104 2.07 2.205 2.578 4.038 1.601.899-.478 1.335-.94 1.544-1.171.088-.096.083-.173.055-.228-.009-.015-.037-.05-.037-.05l-.422-.532c-.047-.054-.1-.066-.164-.031a.208.208 0 0 0-.061.042c-.183.176-.669.615-1.208.902-1.208.643-1.786.215-2.53-1.18-.74-1.387-.79-2.137.417-2.781C-.794 1.09-.154.958.087.889c0 0 .04-.011.075-.03C.228.824.247.774.225.697l-.2-.632S.012.023 0 0" style="fill:#fff;fill-opacity:1;fill-rule:nonzero;stroke:none" transform="matrix(5.86682 0 0 -5.86682 566.455 125.173)"/><path d="m0 0-3.32 2.208a.141.141 0 0 0-.038.194L.083 7.57c.045.066.133.08.193.04l3.321-2.209a.126.126 0 0 0 .036-.182l-.443-.665c-.044-.066-.126-.085-.187-.044L.688 6.05l-.861-1.294L2.04 3.284a.126.126 0 0 0 .035-.182l-.447-.673a.128.128 0 0 0-.182-.037L-.768 3.864l-.963-1.447L.585.877C.652.832.671.756.627.69L.188.033C.146-.033.067-.045 0 0" style="fill:#fff;fill-opacity:1;fill-rule:nonzero;stroke:none" transform="matrix(5.86682 0 0 -5.86682 588.977 142.994)"/><path d="M0 0c0 24.683 20.082 44.766 44.766 44.766 24.683 0 44.763-20.083 44.763-44.766 0-24.685-20.08-44.765-44.763-44.765C20.082-44.765 0-24.685 0 0m-.701 0c0-25.072 20.394-45.467 45.467-45.467 25.072 0 45.467 20.395 45.467 45.467 0 25.071-20.395 45.468-45.467 45.468C19.693 45.468-.701 25.071-.701 0" style="fill:#62b92c;fill-opacity:1;fill-rule:nonzero;stroke:none" transform="matrix(5.86682 0 0 -5.86682 137.369 399.994)"/><path d="m0 0-7.182-4.147-.004 23.523L0 23.599Zm-7.979 20.752-14.134 8.19 7.247 4.206 14.083-8.166zm-.792-14.767-7.269 4.194v4.072l7.269 4.202zm0-11.056-20.488-11.825v8.299L-8.771 3.232Zm-42.551 8.303 20.477-11.824v-8.302L-51.322-5.062zm-7.976 31.914 31.407 18.134 7.162-4.136-31.386-18.141zm6.393-39.293L-60.1 0v33.775l7.191-4.144zm32.968 43.501-23.325-13.458-7.265 4.188 30.59 17.685zM-51.318 5.987V28.71l7.263-4.195v-14.34zm20.473-4.354.004-8.395-19.68 11.367 7.259 4.199zm14.003 7.168 7.274-4.196L-29.256-6.76v8.384zm-6.068 10.322v8.442l13.342-7.731-7.268-4.205zm24.1 6.549h-.004l-15.649 9.078a.783.783 0 0 1-.796 0l-8.829-5.115c-.004 0-.008 0-.013-.004a.797.797 0 0 1-.393-.689V18.663c0-.283.148-.548.393-.687l6.467-3.721v-4.083l-12.41-7.175-12.423 7.176v14.348l23.717 13.691a.78.78 0 0 1 .402.68v10.252a.778.778 0 0 1-.107.396c-.028.047-.074.072-.113.108-.055.069-.1.14-.176.183h-.001l-.004.001-8.742 5.049a.775.775 0 0 1-.792 0l-32.989-19.04c-.003 0-.008 0-.014-.002a.782.782 0 0 1-.397-.691V-.46c0-.281.147-.545.397-.683l30.841-17.815a.808.808 0 0 1 .392-.107h.008c.139 0 .272.038.391.107L1.186-1.145a.798.798 0 0 1 .398.685v25.442c0 .003.002.003.002.007 0 .28-.149.545-.396.683" style="fill:#62b92c;fill-opacity:1;fill-rule:nonzero;stroke:none" transform="matrix(5.86682 0 0 -5.86682 576.292 505.38)"/><path d="m0 0-2.051 1.184v2.368L0 4.735l2.051-1.183V1.184Z" style="fill:#fff;fill-opacity:1;fill-rule:nonzero;stroke:none" transform="matrix(5.86682 0 0 -5.86682 133.032 621.426)"/><path d="m0 0-2.051 1.184v2.368L0 4.735l2.05-1.183V1.184Z" style="fill:#fff;fill-opacity:1;fill-rule:nonzero;stroke:none" transform="matrix(5.86682 0 0 -5.86682 672.16 621.426)"/><path d="m0 0-1.271 1.127-.696-.784L-.694-.784l-.634-.716L-2.6-.376l-.695-.786 1.272-1.126-.731-.822 1.083-.961L1.896-.039.813.919Z" style="fill:#fff;fill-opacity:1;fill-rule:nonzero;stroke:none" transform="matrix(5.86682 0 0 -5.86682 205.622 644.074)"/><path d="m0 0 .002-.003C.444.268.859.64.859.64c.015.016.034.037.054.052l.055.057c.147.144.216.305.202.483a.665.665 0 0 1-.233.455L-1.877 4.18c-.158.141-.277.101-.35.043l-.446-.502c-.023-.03-.102-.151.089-.32L-.562 1.61c.107-.095.113-.184.013-.262a2.78 2.78 0 0 0-.94-.52A3.87 3.87 0 0 0-2.651.643a4.987 4.987 0 0 0-1.304.153 6.923 6.923 0 0 0-1.161.415s-.193.1-.274-.185l-.216-.644S-5.652.2-5.438.111c.995-.477 1.943-.694 2.846-.728C-1.63-.649-.767-.445 0 0" style="fill:#fff;fill-opacity:1;fill-rule:nonzero;stroke:none" transform="matrix(5.86682 0 0 -5.86682 191.643 639.903)"/><path d="m0 0 3.794 3.425c.097.09.184.138.253.141.071.003.15-.043.236-.139L6.727.723l1.072.966L5.1 4.68c-.219.243-.444.377-.663.403-.222.027-.459-.076-.72-.31L-.697.789C-.858.647-.828.524-.78.449l.45-.5C-.303-.078-.19-.172 0 0" style="fill:#fff;fill-opacity:1;fill-rule:nonzero;stroke:none" transform="matrix(5.86682 0 0 -5.86682 600.189 646.137)"/><path d="M0 0c.085.027.135-.011.166-.068C.178-.09.188-.13.188-.13c.062-.226.172-.916.58-1.678.611-1.142 1.264-1.45 2.938-.557 1.667.889 1.793 1.566 1.196 2.68a4.773 4.773 0 0 1-.462.696L2.93.205l.329-.896c.023-.061.012-.133-.051-.165l-.666-.356c-.055-.029-.128-.004-.159.054L1.38.718a.125.125 0 0 0 .055.177l2.441 1.302c.411.22.644.269.971-.064.281-.284.709-.897.97-1.385 1.13-2.113.67-3.19-1.484-4.34C2.201-4.729.968-4.435-.043-2.545-.612-1.481-.745-.601-.768-.428c-.019.11.005.178.082.22a.562.562 0 0 0 .066.025z" style="fill:#fff;fill-opacity:1;fill-rule:nonzero;stroke:none" transform="matrix(5.86682 0 0 -5.86682 89.999 550.314)"/><path d="m0 0 2.151.866c.074.03.144-.004.174-.079l.403-.999c.031-.076.003-.149-.071-.178L.522-1.25l-2.698-3.594c-.018-.025-.043-.034-.059-.041-.074-.03-.155.008-.176.061l-.476 1.18c-.04.099-.02.143.057.235l1.998 2.396-3.082.29c-.127.011-.164.031-.2.122L-4.56.504c-.03.076.023.132.08.155a.116.116 0 0 0 .071.011z" style="fill:#fff;fill-opacity:1;fill-rule:nonzero;stroke:none" transform="matrix(5.86682 0 0 -5.86682 95.407 519.08)"/><path d="m0 0 1.112-3.828A.14.14 0 0 0 1.016-4L-4.95-5.737a.141.141 0 0 0-.174.094l-1.111 3.828c-.021.07.014.139.09.162l.768.223c.076.022.15-.015.171-.086l.775-2.669 1.494.435-.741 2.552c-.021.07.014.139.09.162l.776.226a.126.126 0 0 0 .163-.089l.741-2.552 1.671.487-.776 2.669c-.022.078.012.148.088.17l.76.221C-.089.118-.022.078 0 0" style="fill:#fff;fill-opacity:1;fill-rule:nonzero;stroke:none" transform="matrix(5.86682 0 0 -5.86682 96.599 476.042)"/><path d="M0 0c.237-1.34 1.018-1.368 2.575-1.093C4.132-.819 4.857-.525 4.62.815c-.237 1.34-1.02 1.376-2.577 1.102C.486 1.642-.239 1.349 0 0m5.624.992c.417-2.36-.792-3.095-2.799-3.449C.809-2.812-.578-2.535-.995-.175c-.419 2.367.789 3.102 2.806 3.457 2.006.354 3.394.077 3.813-2.29" style="fill:#fff;fill-opacity:1;fill-rule:nonzero;stroke:none" transform="matrix(5.86682 0 0 -5.86682 60.038 460.69)"/><path d="m0 0 .116-2.135c.004-.073-.054-.141-.132-.162l-5.163-1.97.013-.253 5.26.374a.126.126 0 0 0 .138-.124l.059-1.075a.127.127 0 0 0-.125-.137l-6.22-.336c-.071-.004-.135.058-.139.131l-.119 2.192c-.005.082.045.142.114.17l5.442 2.026-.007.13-5.507-.362c-.122-.007-.153.073-.158.171l-.052.962c-.006.106.016.189.147.196l6.194.334C-.06.136-.004.082 0 0" style="fill:#fff;fill-opacity:1;fill-rule:nonzero;stroke:none" transform="matrix(5.86682 0 0 -5.86682 87.14 401.372)"/><path d="M0 0c.087-.021.109-.08.105-.145C.104-.169.093-.21.093-.21c-.067-.224-.336-.869-.389-1.731-.08-1.293.314-1.897 2.209-2.012 1.886-.115 2.35.395 2.427 1.656.027.431-.027.835-.027.835l-1.711.104-.19-.936c-.013-.064-.06-.119-.13-.114l-.755.046c-.061.003-.11.064-.107.129l.132 2.122a.127.127 0 0 0 .139.122l2.765-.168c.464-.028.688-.107.793-.563.089-.389.131-1.134.097-1.687-.148-2.391-1.105-3.068-3.544-2.919-2.413.147-3.309 1.042-3.177 3.181C-1.3-.941-.95-.122-.878.037c.041.104.097.15.185.144.026-.002.069-.013.069-.013z" style="fill:#fff;fill-opacity:1;fill-rule:nonzero;stroke:none" transform="matrix(5.86682 0 0 -5.86682 57.562 363.695)"/><path d="M0 0c.084-.031.1-.092.089-.156C.084-.18.069-.219.069-.219c-.091-.215-.43-.826-.579-1.677-.223-1.276.101-1.92 1.97-2.246 1.86-.325 2.376.131 2.594 1.375.074.425.065.832.065.832l-1.686.295-.293-.909c-.02-.062-.073-.111-.142-.099l-.745.13c-.06.011-.102.076-.091.14l.367 2.095a.127.127 0 0 0 .152.106l2.725-.476c.458-.08.672-.184.725-.648.046-.397.005-1.142-.091-1.688-.412-2.36-1.438-2.925-3.843-2.505-2.38.415-3.169 1.405-2.8 3.516.207 1.188.646 1.963.735 2.113.053.098.113.137.2.122.026-.004.067-.02.067-.02z" style="fill:#fff;fill-opacity:1;fill-rule:nonzero;stroke:none" transform="matrix(5.86682 0 0 -5.86682 63.707 325.183)"/><path d="m0 0-.272-1.049a.126.126 0 0 0-.161-.094l-6 1.562c-.067.018-.098.077-.088.15l.132 1.102.004.016c.018.071.086.087.145.072l6.145-1.6A.126.126 0 0 0 0 0" style="fill:#fff;fill-opacity:1;fill-rule:nonzero;stroke:none" transform="matrix(5.86682 0 0 -5.86682 98.415 316.835)"/><path d="M0 0c-.622-1.578-1.565-2.196-3.144-1.575l-3.811 1.5c-.073.03-.088.088-.069.159l.256 1.082.006.015c.027.069.096.076.154.054L-2.585-.35c.736-.289 1.26-.232 1.64.731.346.88.087 1.324-.658 1.617l-3.925 1.545c-.074.029-.085.095-.067.166l.254 1.074.009.023c.024.061.096.076.153.054l3.942-1.552C.268 2.715.655 1.661 0 0" style="fill:#fff;fill-opacity:1;fill-rule:nonzero;stroke:none" transform="matrix(5.86682 0 0 -5.86682 109.982 284.078)"/><path d="m0 0-1.012-1.883c-.035-.064-.12-.093-.197-.07L-6.642-.945l-.12-.223 4.685-2.42a.127.127 0 0 0 .054-.178l-.51-.948a.127.127 0 0 0-.178-.053l-5.484 2.954c-.062.033-.085.12-.051.184L-7.208.305c.039.071.112.097.186.085l5.7-1.105.061.115-4.888 2.558c-.109.059-.093.143-.047.23l.456.848c.05.093.111.152.227.09L-.051.185C.019.147.038.072 0 0" style="fill:#fff;fill-opacity:1;fill-rule:nonzero;stroke:none" transform="matrix(5.86682 0 0 -5.86682 132.505 236.058)"/><path d="m0 0-.595-.907a.126.126 0 0 0-.181-.037L-5.958 2.46c-.059.039-.068.104-.035.17l.478 1.003.009.013c.04.062.11.056.161.022L-.038.182A.128.128 0 0 0 0 0" style="fill:#fff;fill-opacity:1;fill-rule:nonzero;stroke:none" transform="matrix(5.86682 0 0 -5.86682 140.87 223.671)"/><path d="M0 0c.053-.062.066-.144.021-.202L-1.222-1.81c-.045-.058-.123-.059-.2-.03L-7.387.505s-.025.01-.047.026c-.055.043-.081.125-.041.177l.699.903c.06.077.121.113.226.063L-1.489-.52l.2.259-3.435 4.297c-.07.096-.056.157.003.235l.684.884c.035.045.121.041.176-.002l.014-.011z" style="fill:#fff;fill-opacity:1;fill-rule:nonzero;stroke:none" transform="matrix(5.86682 0 0 -5.86682 157.163 200.086)"/><path d="m0 0-2.746-2.896a.14.14 0 0 0-.197-.003l-4.509 4.272a.14.14 0 0 0-.007.197l2.746 2.895c.05.054.128.058.186.004l.58-.55c.057-.054.062-.138.011-.191L-5.85 1.709-4.721.64l1.83 1.93a.128.128 0 0 0 .186.004l.587-.556a.127.127 0 0 0 .006-.185l-1.83-1.931 1.262-1.196L-.766.725c.057.059.134.064.192.01L0 .191C.058.137.057.059 0 0" style="fill:#fff;fill-opacity:1;fill-rule:nonzero;stroke:none" transform="matrix(5.86682 0 0 -5.86682 182.768 173.004)"/><path d="m0 0-.269.239L-2.15-.967l1.174-1.048zm-1.427-5.945c-.041-.046-.113-.041-.162.003l-.846.755c-.048.043-.062.126-.029.201l1 2.017-1.57 1.402-1.901-1.237a.161.161 0 0 0-.185.012l-.834.744c-.049.044-.068.12-.027.166.005.007.035.028.035.028L-.39 1.537c.053.035.137.031.179-.007L1.306.177a.163.163 0 0 0 .039-.176l-2.749-5.908s-.011-.025-.023-.038" style="fill:#fff;fill-opacity:1;fill-rule:nonzero;stroke:none" transform="matrix(5.86682 0 0 -5.86682 636.13 140.02)"/><path d="m0 0-1.419 1.595c-.049.055-.046.145.002.209l2.809 4.761-.167.189-3.878-3.573c-.06-.053-.136-.046-.185.009l-.715.804a.126.126 0 0 0 .012.185L1.11 8.322c.052.047.142.039.191-.015l1.457-1.638c.055-.061.053-.139.016-.204L-.217 1.487l.086-.097 4.077 3.718c.092.082.166.039.232-.034l.638-.719c.071-.079.106-.157.006-.245L.19-.016C.131-.068.055-.061 0 0" style="fill:#fff;fill-opacity:1;fill-rule:nonzero;stroke:none" transform="matrix(5.86682 0 0 -5.86682 650.435 201.192)"/><path d="m0 0-.675.971-3.68-2.56.674-.972c.647-.931 1.216-1.011 2.71.028C.531-1.489.651-.938 0 0m-4.428-3.258-1.451 2.09c-.042.06-.023.142.041.187l5.103 3.549c.065.045.147.034.19-.026L.906.452c1.192-1.715.778-2.828-1.086-4.124-1.869-1.3-3.056-1.301-4.248.414" style="fill:#fff;fill-opacity:1;fill-rule:nonzero;stroke:none" transform="matrix(5.86682 0 0 -5.86682 689.693 200.527)"/><path d="m0 0-.828 1.648-4.721-2.37a.129.129 0 0 0-.177.058l-.487.97a.127.127 0 0 0 .06.176l4.729 2.373-.828 1.649a.126.126 0 0 0 .06.176l.713.358a.132.132 0 0 0 .176-.058L.957.48A.13.13 0 0 0 .898.305L.184-.054C.113-.089.033-.066 0 0" style="fill:#fff;fill-opacity:1;fill-rule:nonzero;stroke:none" transform="matrix(5.86682 0 0 -5.86682 721.456 256.83)"/><path d="m0 0-1.44 3.716a.14.14 0 0 0 .082.18l5.793 2.233a.14.14 0 0 0 .18-.079l1.441-3.716a.125.125 0 0 0-.077-.168l-.746-.288c-.073-.028-.151.002-.177.071L4.052 4.54l-1.451-.559.961-2.477a.127.127 0 0 0-.077-.169l-.754-.291a.126.126 0 0 0-.169.075l-.96 2.477-1.623-.626L.983.379C1.013.303.983.231.91.203L.173-.082C.099-.11.029-.076 0 0" style="fill:#fff;fill-opacity:1;fill-rule:nonzero;stroke:none" transform="matrix(5.86682 0 0 -5.86682 703.208 297.132)"/><path d="M0 0c-.06-.017-.128-.001-.202.105-.18.255-.527.785-.797 1.767-.553 2.004.192 2.97 2.445 3.591 2.261.624 3.387.173 3.94-1.831.271-.982.236-1.617.213-1.928-.01-.13-.069-.18-.128-.196-.017-.005-.062-.008-.062-.008l-.676-.06c-.072-.003-.117.027-.136.098-.006.023-.013.047-.011.073.003.254-.015.909-.177 1.498-.363 1.321-1.072 1.447-2.597 1.026C.296 3.717-.282 3.237.082 1.917.245 1.327.589.771.705.549c0 0 .019-.037.03-.076C.755.402.731.354.659.317L.065.026S.025.007 0 0" style="fill:#fff;fill-opacity:1;fill-rule:nonzero;stroke:none" transform="matrix(5.86682 0 0 -5.86682 714.838 329.048)"/><path d="m0 0-.17 1.071c-.012.073.03.146.108.158l2.63.421-.421 2.651-2.63-.421a.128.128 0 0 0-.152.108l-.17 1.072a.127.127 0 0 0 .11.149l6.131.98c.068.012.119-.03.14-.101l.32-1.064.002-.016c.012-.072-.044-.114-.104-.124l-2.569-.411.421-2.651 2.422.387c.07.012.121-.038.142-.109l.321-1.064.002-.016c.01-.064-.044-.114-.105-.124L.15-.108A.126.126 0 0 0 0 0" style="fill:#fff;fill-opacity:1;fill-rule:nonzero;stroke:none" transform="matrix(5.86682 0 0 -5.86682 718.27 364.249)"/><path d="m0 0-.076 2.135c-.003.073.056.14.135.159l5.195 1.879-.009.253-5.261-.282a.125.125 0 0 0-.136.126L-.19 5.345a.125.125 0 0 0 .127.135l6.22.228c.07.002.134-.061.136-.134l.078-2.192c.004-.082-.047-.141-.117-.168L.779 1.285l.005-.131 5.508.267c.123.004.151-.076.155-.174l.035-.961C6.485.18 6.462.097 6.33.092L.137-.134C.057-.137.002-.082 0 0" style="fill:#fff;fill-opacity:1;fill-rule:nonzero;stroke:none" transform="matrix(5.86682 0 0 -5.86682 720.207 403.583)"/><path d="M0 0c.115 1.355-.633 1.582-2.21 1.713-1.577.132-2.352.034-2.467-1.322-.114-1.355.633-1.59 2.21-1.722C-.891-1.462-.115-1.364 0 0m-5.693.476c.203 2.387 1.559 2.788 3.591 2.618 2.041-.17 3.311-.792 3.11-3.178C.805-2.479-.553-2.88-2.593-2.71c-2.032.17-3.303.792-3.1 3.186" style="fill:#fff;fill-opacity:1;fill-rule:nonzero;stroke:none" transform="matrix(5.86682 0 0 -5.86682 751.466 429.062)"/><path d="m0 0 .716 3.797a.126.126 0 0 0 .153.104l6.098-1.153c.069-.013.103-.069.098-.143l-.057-1.109-.002-.016c-.014-.072-.08-.093-.141-.082l-5.286 1-.491-2.604c-.015-.08-.077-.126-.154-.111l-.83.156C.025-.146-.016-.08 0 0" style="fill:#fff;fill-opacity:1;fill-rule:nonzero;stroke:none" transform="matrix(5.86682 0 0 -5.86682 711.922 471.53)"/><path d="M0 0c.385 1.307-.302 1.68-1.817 2.128-1.517.448-2.295.507-2.68-.8C-4.882.021-4.198-.36-2.682-.808-1.166-1.255-.387-1.315 0 0m-5.475 1.617c.677 2.301 2.086 2.421 4.04 1.844C.528 2.882 1.646 2.016.969-.286c-.68-2.309-2.089-2.429-4.051-1.85-1.954.577-3.072 1.444-2.393 3.753" style="fill:#fff;fill-opacity:1;fill-rule:nonzero;stroke:none" transform="matrix(5.86682 0 0 -5.86682 738.49 498.352)"/><path d="M0 0c-.074.049-.076.112-.051.172.01.022.034.057.034.057.138.188.609.706.948 1.5.509 1.191.341 1.892-1.402 2.637-1.736.741-2.342.416-2.84-.745-.169-.397-.253-.796-.253-.796l1.574-.672.492.817c.034.057.097.092.161.064l.694-.296c.057-.024.082-.097.057-.157L-1.422.625a.126.126 0 0 0-.172-.068l-2.543 1.086c-.427.183-.612.333-.556.796.045.397.256 1.114.474 1.623.942 2.203 2.07 2.519 4.314 1.56 2.219-.949 2.76-2.093 1.919-4.063C1.539.45.935-.205.814-.33.74-.414.672-.438.592-.403.567-.393.53-.368.53-.368Z" style="fill:#fff;fill-opacity:1;fill-rule:nonzero;stroke:none" transform="matrix(5.86682 0 0 -5.86682 717.892 549.048)"/><path d="m0 0-2.022 1.132c-.069.038-.087.114-.047.185l.525.939c.04.071.113.095.183.057L.646 1.189l4.49.148c.031.002.053-.011.069-.02.069-.038.091-.125.063-.175L4.646.033c-.051-.093-.098-.104-.217-.102L1.31-.014l1.705-2.579c.072-.106.078-.147.031-.233l-.582-1.038c-.039-.071-.117-.065-.17-.035a.131.131 0 0 0-.054.048Z" style="fill:#fff;fill-opacity:1;fill-rule:nonzero;stroke:none" transform="matrix(5.86682 0 0 -5.86682 690.26 564.36)"/></svg>