<svg xmlns="http://www.w3.org/2000/svg" xml:space="preserve" width="818.20044" height="758.60645" viewBox="0 0 818.20043 758.60643"><defs><clipPath id="a" clipPathUnits="userSpaceOnUse"><path d="M0 841.89h595.276V0H0Z"/></clipPath></defs><g clip-path="url(#a)" transform="matrix(3.15129 0 0 -3.15129 -520.385 1733.98)"><path d="M0 0s11.381-10.333 41.29-10.333h144.557S200.787-8.807 211.413 0l23.813-43.797s-12.58-3.145-16.258-24.228v-133.224s-1.422-24.814-25.435-24.814h-53.921s-14.498 1.481-33.978-14.666c0 0-18.577 15.852-34.439 15.457H14.102s-21.619 1.322-21.619 25.904v129.554S-9.915-49.18-24.414-43.351z" style="fill:#231f20;fill-opacity:1;fill-rule:nonzero;stroke:none" transform="translate(189.548 550.245)"/><path d="M0 0s-1.63 17.3-13.622 24.776L4.029 58.27s12.807-8.289 41.221-8.289h137.327s18.966.52 27.658 8.145l18.218-33.866s-11.442-8.049-14.108-24.319h-82.537v-39.138L82-61.625V-.059z" style="fill:#fff;fill-opacity:1;fill-rule:nonzero;stroke:none" transform="translate(187.78 484.07)"/><path d="M0 0s-16.117-5.058-24.978-12.974c0 0-12.239 9.544-24.676 12.908v33.142L0 55.88Z" style="fill:#fff;fill-opacity:1;fill-rule:nonzero;stroke:none" transform="translate(319.135 328.893)"/><path d="m0 0 65.132 29.365V-1.892s-7.159 1.052-8.27.612l-49.218.048S2.219-1.535 0 0" style="fill:#fddd04;fill-opacity:1;fill-rule:nonzero;stroke:none" transform="translate(199.555 331.22)"/><path d="M0 0v70.5l-77.053-35.224v-56.843h57.73S-3.556-21.331 0 0" style="fill:#176fc1;fill-opacity:1;fill-rule:nonzero;stroke:none" transform="translate(401.683 350.66)"/><path d="m0 0-204.904-91.76s-6.457 3.394-8.012 14.377l-.022 31.814L0 47.789Z" style="fill:#fff;fill-opacity:1;fill-rule:nonzero;stroke:none" transform="translate(401.683 426.946)"/><path d="M0 0v91.358h76.175V33.905Z" style="fill:#fddd04;fill-opacity:1;fill-rule:nonzero;stroke:none" transform="translate(188.564 386.74)"/><path d="M0 0h-23.409v4.265c0 1.652-1.354 2.992-3.019 2.992h-3.289c-1.67 0-3.021-1.34-3.021-2.992V0H-55.926c-1.67 0-3.024-1.339-3.024-2.993v-22.82c0-1.652 1.354-2.994 3.024-2.994h3.283c1.671 0 3.023 1.342 3.023 2.994v16.576h8.217v-16.576c0-1.652 1.355-2.994 3.024-2.994h3.285c1.667 0 3.022 1.342 3.022 2.994v16.576h8.218v-16.576c0-1.652 1.352-2.994 3.022-2.994h3.285c1.669 0 3.023 1.342 3.023 2.994v16.576h8.218v-16.576c0-1.652 1.352-2.994 3.023-2.994H0c1.669 0 3.023 1.342 3.023 2.994v22.82C3.023-1.339 1.669 0 0 0" style="fill:#231f20;fill-opacity:1;fill-rule:nonzero;stroke:none" transform="translate(253.586 459.512)"/><path d="m0 0-75.083-.15v-32.401Z" style="fill:#176fc1;fill-opacity:1;fill-rule:nonzero;stroke:none" transform="translate(400.24 479.513)"/><path d="M0 0s-.887.287-1.22-.812c0 0 .478-28.032 7.68-37.325 0 0 .98-.717 1.316.163l5.109 9.454s.888 1.539 1.555.55c0 0 3.443-3.734 4.108-4.066 0 0 1.102-.946 1.667.447 0 0 7.67 7.249 10.445 19.233 0 0 3.104 10.994-5.115 18.251l-4.152-3.961s11.705-11.101 1.932-25.942c0 0-2.333-2.86-3.329.438 0 0-3.113 15.612-1.669 28.477 0 0-.124.761-.887.669l-5.084-1.301s-.757.3-1.025-1.13c0 0 .999-24.079 2.109-28.364 0 0-.889-1.101-1.554-1.649 0 0-2.221-2.753-3.108-.222 0 0-3.999 19.683-2.833 26.389 0 0 .299 1.359-.544 1.449z" style="fill:#231f20;fill-opacity:1;fill-rule:nonzero;stroke:none" transform="translate(209.102 386.88)"/><path d="M0 0s.121 3.559 2.375 1.615c0 0 3.063-3.069 3.097-4.281 0 0 .933-1.214.366-2.063 0 0-1.976-2.117-3.52-2.301 0 0-2.451.811-2.318 7.03m9.33-17.148 1.222 3.295c-6.443 0-8.662 3.409-8.662 3.409l7.661 7.368c.223.332.335.658.335.658L3.777 6.488c-.555.332-1.11-.221-1.11-.221-3.888-2.2-5.111-9.343-5.111-9.343C-3.996-16.495 8.801-17.538 8.801-17.538c.803.158.529.39.529.39" style="fill:#231f20;fill-opacity:1;fill-rule:nonzero;stroke:none" transform="translate(246.42 385.188)"/><path d="m0 0-12.214-18.47c-2.001-2.744-2.778 3.957-2.778 3.957C-15.213 12.429-1.997 6.819-1.997 6.819 2.002 3.74 0 0 0 0m6.555 7.369L4.777 6.6c-1.11-.879-2.443.439-2.443.439-.998.989-6.442 3.08-6.442 3.08C-13.325 13.087-19.765.332-19.765.332c-5.554-15.061 2.775-26.277 2.775-26.277l-2.334-4.067c-.223-1.212 1.113-.661 1.113-.661l2.332 3.737C-8.33-32.765-.665-29.68-.665-29.68c5.442 1.535 6.942 7.307 6.942 7.307l-2.83 2.806C2.779-25.065.226-26.936.226-26.936c-1.668-1.87-5-1.319-5-1.319-4.776-.108-7.552 5.938-7.552 5.938L7.111 7.039c.222.661-.556.33-.556.33" style="fill:#231f20;fill-opacity:1;fill-rule:nonzero;stroke:none" transform="translate(295.952 412.124)"/><path d="m0 0 2.776 3.628L5.995 0s.448-.77 1.56.22l2.439 1.76 2.887-3.297-2.777-2.202s-.884-1.21-2.997-.879v-18.029H1.886v19.348S.556.332 0 0" style="fill:#231f20;fill-opacity:1;fill-rule:nonzero;stroke:none" transform="translate(305.87 413.722)"/><path d="M0 0s-.774 3.958-.111 6.156c0 0 .332 1.649 1.781.881 0 0 2.665-2.092 3.329-3.409 0 0 .664-.772.337-1.541L2.002-.66S.337-1.759 0 0m1.222-3.52 8.555 6.926s.332.77-.447 1.32l-6.438 7.81s-.806 1.222-1.902.117l-4.762-5.616S-6.327 2.64-4.104-.992c0 0 5.105-9.565 9.936-11.82l5.331 3.081S2.665-6.82 1.222-3.52" style="fill:#231f20;fill-opacity:1;fill-rule:nonzero;stroke:none" transform="translate(325.057 413.42)"/><path d="M0 0s-.78 3.96-.116 6.159c0 0 .337 1.65 1.775.878 0 0 2.671-2.087 3.335-3.409 0 0 .669-.77.332-1.538L1.996-.66S.331-1.755 0 0m1.217-3.517 8.555 6.926s.332.77-.443 1.317l-6.442 7.809s-.807 1.226-1.903.118l-4.761-5.616s-2.556-4.395-.332-8.026c0 0 5.104-9.567 9.935-11.822l5.331 3.081S2.66-6.815 1.217-3.517" style="fill:#231f20;fill-opacity:1;fill-rule:nonzero;stroke:none" transform="translate(376.807 436.059)"/><path d="M0 0c-4.441 2.857-.332 11.105-.332 11.105 2.444 1.977 3.44.992 3.44.992L3.329.439C2.112-1.32 0 0 0 0m7.549-.438C7.218.55 8.55 16.273 8.55 16.273c.443 1.538-1.001 2.637-1.001 2.637-1.996 1.211-9.214 2.861-9.214 2.861l-1.67-3.298s4.889-.44 5.885-1.323c1.006-.877-.438-2.855-.438-2.855-2.554-.99-6.669-5.168-6.669-5.168C-8.888 2.199-2.776-3.521-2.776-3.521c1.111-1.868 3.44-.878 3.44-.878l3.219 2.31 3.113-3.187 2.555 2.197z" style="fill:#231f20;fill-opacity:1;fill-rule:nonzero;stroke:none" transform="translate(344.375 414.07)"/><path d="M0 0c-.236.737-1.217.216-1.217.216L-4.72-1.72c.037.3 0 .49 0 .49l-.717 2.938-4.267-4.352c-.727-.594-.616-1.746-.616-1.746v-.428l-4.172-2.305.005-2.014 4.167 2.305v-18.226c.111-1.653 3.556-2.861 3.556-2.861l3.772 2.861c-.775.33-1.776 1.758-1.776 1.758v19.542L-.59-1.449C.338-.771 0 0 0 0" style="fill:#231f20;fill-opacity:1;fill-rule:nonzero;stroke:none" transform="translate(370.13 442.428)"/><path d="M0 0a14.093 14.093 0 0 1-2.364-1.904v4.147h-6.234v-26.59h6.234v4.154A13.767 13.767 0 0 1 0-22.1c2.396-1.525 5.858-2.247 10.464-2.247h.681v6.239c-.493-.039-.989-.039-1.482-.039-5.896 0-9.525 2.589-9.525 7.116 0 4.488 3.629 7.075 9.525 7.075.493 0 .989 0 1.482-.04v6.239h-.681C5.858 2.243 2.396 1.521 0 0" style="fill:#231f20;fill-opacity:1;fill-rule:nonzero;stroke:none" transform="translate(212.219 520.148)"/><path d="M0 0c.49 0 .985 0 1.48-.04v6.239H.796c-4.605 0-8.061-.721-10.458-2.243a13.737 13.737 0 0 1-2.307-1.846v4.089h-6.232v-26.59h6.232v4.096a13.554 13.554 0 0 1 2.307-1.849c2.397-1.525 5.853-2.247 10.458-2.247h.684v6.239c-.495-.039-.99-.039-1.48-.039-5.895 0-9.524 2.589-9.524 7.116C-9.524-2.587-5.895 0 0 0" style="fill:#231f20;fill-opacity:1;fill-rule:nonzero;stroke:none" transform="translate(387.574 516.191)"/><path d="M0 0c-.658-.431-1.78-.645-3.366-.645h-2.339v5.792h2.439c1.628 0 2.745-.223 3.351-.664.605-.441.9-1.216.9-2.331C.985 1.146.659.428 0 0m-5.705 15.265h1.438c1.66 0 2.777-.204 3.351-.611.574-.408.858-1.118.858-2.129 0-.977-.305-1.662-.917-2.057-.616-.398-1.749-.595-3.392-.595h-1.338Zm7.486-7.037c1.565.458 2.702 1.135 3.414 2.027.716.89 1.075 2.095 1.075 3.611 0 1.2-.238 2.259-.717 3.173a5.415 5.415 0 0 1-2.071 2.194c-.794.474-1.743.806-2.849 1.001-1.107.194-3.045.294-5.821.294h-6.717v-26.63h6.917c2.802 0 4.814.102 6.048.306 1.232.205 2.27.553 3.108 1.039 1.027.591 1.817 1.427 2.376 2.507.553 1.079.832 2.329.832 3.75 0 1.975-.495 3.552-1.48 4.734-.991 1.183-2.361 1.848-4.115 1.994" style="fill:#231f20;fill-opacity:1;fill-rule:nonzero;stroke:none" transform="translate(337.067 501.798)"/><path d="M0 0c0-2.209-.949-3.386-2.662-3.386-1.712 0-2.701 1.177-2.701 3.386v8.33h-6.542V.722c0-4.946 1.902-8.14 5.934-9.739v-9.244H.611v9.205C4.606-7.496 6.582-4.262 6.582.722V8.33H0Z" style="fill:#231f20;fill-opacity:1;fill-rule:nonzero;stroke:none" transform="translate(237.066 514.025)"/><path d="M0 0c-3.766 0-6.886 3.197-6.886 7.191 0 4.036 3.081 7.153 6.886 7.153 3.804 0 6.847-3.117 6.847-7.153C6.847 3.16 3.768 0 0 0m0 20.885c-3.651 0-7.037-1.406-9.624-3.992-2.627-2.666-4.031-6.011-4.031-9.739 0-3.73 1.404-7.076 4.031-9.739C-7.037-5.173-3.651-6.618 0-6.618c3.652 0 7.076 1.408 9.662 4.033C12.251 0 13.62 3.462 13.62 7.154c0 3.688-1.369 7.113-3.958 9.7-2.586 2.625-6.01 4.031-9.662 4.031" style="fill:#231f20;fill-opacity:1;fill-rule:nonzero;stroke:none" transform="translate(258.301 501.925)"/><path d="M0 0h6.538C5.516-2.814 3.267-4.453.49-4.453c-3.917 0-6.961 3.083-6.961 7.191 0 4.222 3.158 7.378 7.193 7.378 2.012 0 3.878-.835 5.779-2.509l4.452 4.717C7.871 15.102 4.489 16.47.722 16.47c-3.883 0-7.381-1.444-9.97-4.069-2.625-2.627-4.03-6.012-4.03-9.7a13.71 13.71 0 0 1 3.996-9.74c2.584-2.625 6.008-4.032 9.811-4.032 5.098 0 9.513 2.814 11.757 7.457 1.138 2.321 1.596 5.057 1.596 8.406v1.103H0Z" style="fill:#231f20;fill-opacity:1;fill-rule:nonzero;stroke:none" transform="translate(309.567 506.378)"/><path d="M0 0c0-2.928-1.291-4.45-3.577-4.45-2.244 0-3.535 1.522-3.535 4.45v16.093h-6.585V.381c0-7.112 4.188-11.336 10.12-11.336 5.937 0 10.12 4.224 10.12 11.336v15.712H0Z" style="fill:#231f20;fill-opacity:1;fill-rule:nonzero;stroke:none" transform="translate(359.821 506.262)"/><path d="M0 0c0-1.105.116-3.617.456-7.496-.607 1.902-1.595 3.844-2.699 5.859l-3.502 6.315c-.896 1.659-1.687 2.834-2.701 3.511l-.195.122h-6.201v-26.604h.007v-.006h6.391l-.002 16.313c.689-1.529 7.343-13.499 7.343-13.499C.04-17.538.99-18.718 3.046-18.718c1.976 0 3.346 1.445 3.346 3.615V8.292H0Z" style="fill:#231f20;fill-opacity:1;fill-rule:nonzero;stroke:none" transform="translate(288.247 514.063)"/></g></svg>