<svg xmlns="http://www.w3.org/2000/svg" xml:space="preserve" width="721.16962" height="936.40405" viewBox="0 0 721.16961 936.40404"><defs><clipPath id="a" clipPathUnits="userSpaceOnUse"><path d="M0 841.89h1190.551V0H0Z"/></clipPath></defs><g clip-path="url(#a)" transform="matrix(1.69608 0 0 -1.69608 -648.93 1179.665)"><path d="M0 0h.041S-135.53 20.599-218.394 20.599C-293.735 20.599-425.156 0-425.156 0v-263.49c0-.348-.003-1.347.022-2.906v-.021c0-4.081.886-115.148 77.172-178.649l.179-.155c.622-.542 61.487-53.842 135.174-86.278 71.516 33.772 136.176 85.953 136.774 86.433C-1.711-383.367.039-276.767.039-266.956v139.745H0Z" style="fill:#0b1b34;fill-opacity:1;fill-rule:nonzero;stroke:none" transform="translate(807.762 674.924)"/><path d="M0 0v-157.866c0-.331-.003-1.257.026-2.716v-.014c0-3.806.821-107.473 72.021-166.743l.173-.147c.568-.498 57.381-50.25 126.161-80.519 66.744 31.514 127.091 80.22 127.655 80.666 69.177 57.589 70.81 157.081 70.81 166.236V0Z" style="fill:#fff;fill-opacity:1;fill-rule:nonzero;stroke:none" transform="translate(396.74 567.616)"/><path d="M0 0h16.39v-6.521h5.304V0h16.384v4.286H0Zm-41.854-3.366h-5.301v-9.891c0-1.224.375-2.212 1.127-2.965.741-.747 1.731-1.116 2.957-1.116h33.996v4.286h-32.779zm47.161 0H0v-9.891c0-1.224.369-2.212 1.122-2.965.743-.747 1.733-1.116 2.963-1.116h33.993v4.286H5.307Zm-46.646 6.682c2.247 1.055 3.978 3.044 5.206 5.971 1.013-2.525 2.811-4.394 5.402-5.613 2.59-1.228 4.081-1.735 9.923-1.529v4.283c-5.775-.405-7.061.29-9.312 2.092-2.244 1.798-3.368 4.371-3.368 7.696v1.939h8.369v4.286h-22.036v-4.286h8.372v-1.939c0-2.241-.79-4.497-2.354-6.779-1.565-2.28-2.751-3.279-6.018-3.009V2.145c2.447-.267 3.567.117 5.816 1.171M5.307 18.155h27.469V12.65H5.307ZM0 12.442c0-1.221.369-2.209 1.122-2.956.743-.753 1.733-1.119 2.963-1.119h33.993v14.074H0Zm-13.153 9.999h-8.976v-4.286h7.747V-.103h5.307v18.469c0 1.225-.369 2.212-1.128 2.953-.739.744-1.722 1.122-2.95 1.122m202.759-1.113c-.746.741-1.712 1.113-2.926 1.113h-36.372v-4.248h35.16v-30.922h-11.124V2.938h-5.254v-15.667h-7.174v15.77h-5.245v-15.77h-6.363v-4.243h40.41v35.37c0 1.21-.372 2.189-1.112 2.93m-58.183 0c-.74-.741-1.112-1.72-1.112-2.93V.105h5.252v18.088h5.661v4.248h-6.873c-1.208 0-2.19-.372-2.928-1.113m-25.963-5.405c1.069 1.04 2.348 1.561 3.832 1.561 1.478 0 2.755-.521 3.838-1.561 1.079-1.043 1.623-2.341 1.623-3.885 0-1.488-.544-2.771-1.623-3.844-1.083-1.087-2.36-1.62-3.838-1.62-1.484 0-2.763.533-3.832 1.62-1.084 1.073-1.617 2.356-1.617 3.844 0 1.544.533 2.842 1.617 3.885m-5.721-.61a9.611 9.611 0 0 1-.551-3.275c0-2.771.967-5.142 2.93-7.125 1.95-1.992 4.347-2.988 7.174-2.988 2.755 0 5.136.996 7.126 2.988 1.98 1.983 2.979 4.354 2.979 7.125 0 1.134-.19 2.25-.566 3.328-.36 1.084-1.084 2.022-2.158 2.827h5.445v4.248h-10.195v2.93h-5.255v-2.93H96.05v-4.142h5.859c-1.068-.946-1.793-1.937-2.17-2.986m-16.201 7.128H73.132V.105h-20.72v18.088h14.042v4.248H47.15V-.103c0-1.207.378-2.173 1.12-2.915.736-.75 1.714-1.122 2.924-1.122h21.938v-12.832h5.255v35.165h3.94v-35.165h5.259v35.37c0 1.21-.38 2.189-1.118 2.93-.737.741-1.711 1.113-2.93 1.113M131.522-4.14H96.657v-4.242h33.654v-8.59h5.252v8.786c0 1.222-.363 2.192-1.113 2.939-.745.738-1.711 1.107-2.928 1.107M-96.652-1.617h17.584V-4.14h-17.584v-4.242h35.17v-8.59h5.263v8.786c0 1.222-.378 2.192-1.115 2.939-.744.738-1.718 1.107-2.93 1.107h-13.547v2.523h17.592v4.245h-40.433zm-19.531-10.447c-.978-.985-2.147-1.471-3.486-1.471-1.414 0-2.593.486-3.533 1.471-.946.966-1.415 2.135-1.415 3.477 0 1.424.469 2.593 1.415 3.545.94.938 2.119 1.409 3.533 1.409 1.339 0 2.508-.471 3.486-1.409.973-.952 1.467-2.121 1.467-3.545 0-1.342-.494-2.511-1.467-3.477m-3.486 13.086c-2.701 0-4.969-.937-6.822-2.783-1.86-1.857-2.777-4.131-2.777-6.826 0-2.625.917-4.878 2.777-6.767 1.853-1.887 4.121-2.828 6.822-2.828 2.621 0 4.877.941 6.766 2.828 1.887 1.889 2.829 4.142 2.829 6.767 0 2.695-.942 4.969-2.829 6.826-1.889 1.846-4.145 2.783-6.766 2.783m-3.328 17.376c0 1.21-.374 2.189-1.115 2.93-.747.741-1.725 1.113-2.93 1.113h-19.103v-4.248h17.885c.263-3.969-1.143-6.849-4.242-8.645-3.1-1.776-7.648-2.502-13.643-2.159V3.144c9.293-.475 15.475.802 18.542 3.837 3.063 3.027 4.606 6.838 4.606 11.417m13.241 4.043h-8.593v-4.248h7.371v-3.632h-7.371v-4.254h7.371V2.124h5.253v16.274c0 1.21-.365 2.189-1.108 2.93-.745.741-1.718 1.113-2.923 1.113m48.274-12.53h-29.905v4.649h29.905zm0 8.895h-29.905v3.635h-5.265V9.703c0-1.213.375-2.182 1.116-2.927.736-.744 1.717-1.11 2.932-1.11h36.385v16.775h-5.263z" style="fill:#fff;fill-opacity:1;fill-rule:nonzero;stroke:none" transform="translate(574.028 631.94)"/><path d="M0 0v-.539h15.836v-6.533h6.4v6.533H38.62v5.367H-.549V-.539H0V0h.552v3.741h36.99V.545H21.146v-6.536h-4.208V.545H0V0h.552zm-41.854-3.366v.548h-5.843v-10.439c0-.668.103-1.292.317-1.851.205-.566.533-1.07.968-1.495a4.19 4.19 0 0 1 1.481-.966 5.313 5.313 0 0 1 1.86-.314h34.543v5.37h-32.778v9.695h-.548v-.548h-.54v-10.231h32.773v-3.199h-33.45c-.565 0-1.046.091-1.463.249a3.107 3.107 0 0 0-1.116.712 3.32 3.32 0 0 0-.717 1.11 4.175 4.175 0 0 0-.241 1.468v9.346h4.754v.545h-.54zm47.161 0v.548H-.549v-10.439c0-.668.112-1.292.318-1.851.213-.566.543-1.07.966-1.495.419-.427.928-.75 1.496-.966a5.24 5.24 0 0 1 1.854-.314H38.62v5.37H5.854v9.695h-.547v-.548h-.554v-10.231h32.789v-3.199H4.085c-.566 0-1.047.091-1.475.249a3.18 3.18 0 0 0-1.109.718c-.31.313-.552.688-.716 1.104-.155.431-.233.903-.233 1.468v9.346h4.755v.545h-.554Zm-46.646 6.682.227-.492c1.198.557 2.257 1.371 3.171 2.417.908 1.043 1.676 2.323 2.304 3.838l-.496.208-.51-.208c.536-1.315 1.282-2.484 2.232-3.46.944-.99 2.095-1.805 3.441-2.437.564-.261 1.071-.498 1.609-.709a12.414 12.414 0 0 1 2.603-.692c.997-.149 2.172-.222 3.698-.222.687 0 1.433.005 2.275.038l.526.023v5.391l-.578-.041a40.228 40.228 0 0 0-2.737-.115c-.87 0-1.573.041-2.175.135-.901.135-1.564.355-2.171.668-.612.32-1.178.736-1.863 1.28a8.09 8.09 0 0 0-2.363 3.074c-.521 1.204-.791 2.604-.797 4.204v1.391h8.363v5.379h-23.117v-5.379h8.364v-1.391a9.687 9.687 0 0 0-.556-3.196c-.377-1.079-.939-2.166-1.698-3.27-.34-.504-.659-.929-.984-1.289a4.798 4.798 0 0 0-.714-.683 3.676 3.676 0 0 0-1.204-.63c-.47-.146-1.011-.216-1.69-.216-.287 0-.595.011-.926.038l-.592.05V1.661l.491-.058a12.32 12.32 0 0 1 1.412-.088c.835 0 1.589.117 2.315.337.732.222 1.47.55 2.367.975l-.227.489-.236.496c-.882-.425-1.576-.718-2.215-.923a6.633 6.633 0 0 0-2.004-.279 9.648 9.648 0 0 0-1.298.074l-.063-.539h.547v4.283h-.547l-.044-.539c.368-.038.692-.05 1.02-.05.679 0 1.268.064 1.802.208a4.99 4.99 0 0 1 1.113.442c.517.287.967.659 1.381 1.099.41.445.796.952 1.198 1.544.806 1.172 1.413 2.349 1.821 3.524.41 1.187.624 2.379.624 3.56v2.487h-8.368v3.199h20.942v-3.199h-8.358v-2.487c0-1.717.281-3.27.875-4.632.597-1.38 1.5-2.534 2.686-3.492.466-.369.895-.703 1.345-.993a7.336 7.336 0 0 1 2.272-.999c.882-.229 1.926-.331 3.272-.331.802 0 1.738.041 2.807.12l-.041.539h-.542V2.145h.542l-.012.542a79.086 79.086 0 0 0-2.24-.039c-2.002 0-3.319.129-4.398.373-.54.125-1.027.281-1.515.465-.491.197-.971.419-1.527.68a10.584 10.584 0 0 0-3.124 2.203 9.647 9.647 0 0 0-2.01 3.117l-.499 1.228-.506-1.222c-.593-1.418-1.302-2.596-2.128-3.545-.825-.937-1.758-1.649-2.808-2.135ZM5.307 18.155v-.548h26.928v-4.406H5.854v4.954h-.547v-.548.548h-.554v-6.047h28.572v6.595H4.753v-.548ZM0 12.442h-.549c0-.665.112-1.283.318-1.842a4.108 4.108 0 0 1 .966-1.492c.419-.43.928-.758 1.496-.972.562-.217 1.181-.314 1.854-.314H38.62v15.164H-.549V12.442H.552v9.46h36.99V8.909H4.085c-.566 0-1.047.088-1.475.246a3.116 3.116 0 0 0-1.104.718 3.345 3.345 0 0 0-.721 1.102c-.155.427-.233.911-.233 1.467Zm-13.153 9.999v.545h-9.523v-5.379h7.745V-.65h6.403v19.016c0 .668-.1 1.28-.32 1.849a4.178 4.178 0 0 1-.968 1.491 4.184 4.184 0 0 1-1.488.961c-.557.223-1.185.319-1.849.319v-1.084c.56 0 1.042-.093 1.462-.249a3.248 3.248 0 0 0 1.109-.717c.322-.326.555-.692.71-1.117.167-.413.251-.896.251-1.453V.451h-4.214v18.252h-7.754v3.199h8.436zm202.759-1.113.399.393c-.436.41-.934.747-1.488.946-.547.223-1.175.319-1.837.319h-36.925v-5.332h35.161v-29.839h-10.02V3.48h-6.35v-15.665h-6.074V3.586h-6.342v-15.771h-6.375v-5.337h41.504v35.92a5.31 5.31 0 0 1-.305 1.837 4.234 4.234 0 0 1-.949 1.474l-.399-.381-.383-.387a2.95 2.95 0 0 0 .707-1.092c.152-.419.246-.903.246-1.451V-16.43h-39.332v3.15h6.367V2.496h4.169V-13.28h8.256V2.388h4.177V-13.28h12.196v32.018h-35.165v3.164h35.836c.551 0 1.035-.093 1.445-.246a3.128 3.128 0 0 0 1.102-.715zm-58.183 0-.384.381a4.017 4.017 0 0 1-.958-1.474c-.213-.562-.31-1.177-.31-1.837V-.439h6.346v18.093h5.649v5.332h-7.415c-.66 0-1.276-.096-1.829-.319a3.948 3.948 0 0 1-1.483-.958l.384-.381.385-.387a3.02 3.02 0 0 0 1.101.715c.415.153.893.246 1.442.246h6.336v-3.164h-5.668V.656h-4.169v17.742c0 .548.092 1.032.237 1.451.179.413.403.779.721 1.092zm-25.963-5.405.364-.399a4.802 4.802 0 0 0 1.605 1.067c.562.231 1.19.357 1.863.357.672 0 1.295-.126 1.857-.357a4.688 4.688 0 0 0 1.603-1.067 4.737 4.737 0 0 0 1.096-1.567c.228-.574.352-1.21.352-1.919 0-.683-.114-1.298-.352-1.863a5.105 5.105 0 0 0-1.099-1.597c-.503-.492-1.021-.855-1.6-1.096a4.594 4.594 0 0 0-1.857-.366 4.66 4.66 0 0 0-1.863.366c-.571.241-1.098.604-1.596 1.096-.492.495-.855 1.023-1.093 1.597-.241.565-.357 1.18-.357 1.863 0 .709.119 1.345.357 1.919a4.686 4.686 0 0 0 1.093 1.582l-.373.384-.383.39a5.94 5.94 0 0 1-1.35-1.94 6.071 6.071 0 0 1-.443-2.335c0-.811.155-1.582.443-2.288a6.13 6.13 0 0 1 1.336-1.945 5.973 5.973 0 0 1 1.95-1.327 5.668 5.668 0 0 1 2.279-.452 5.76 5.76 0 0 1 2.286.452 5.917 5.917 0 0 1 1.937 1.33 5.916 5.916 0 0 1 1.327 1.942 5.75 5.75 0 0 1 .454 2.288c0 .829-.15 1.62-.454 2.335a5.738 5.738 0 0 1-1.327 1.94 6.266 6.266 0 0 1-1.944 1.291 5.996 5.996 0 0 1-2.279.428c-.803 0-1.575-.14-2.279-.428a5.863 5.863 0 0 1-1.936-1.291zm-5.721-.61-.512.185a10.183 10.183 0 0 1-.596-3.46c0-1.447.269-2.809.782-4.069.517-1.254 1.296-2.406 2.318-3.443 1.019-1.04 2.168-1.834 3.436-2.361 1.269-.524 2.646-.788 4.125-.788 1.445 0 2.802.264 4.061.788 1.259.527 2.405 1.315 3.443 2.361 1.045 1.037 1.827 2.189 2.358 3.44.522 1.26.785 2.616.779 4.072 0 1.198-.184 2.37-.589 3.504a5.578 5.578 0 0 1-.893 1.673c-.401.515-.88.987-1.459 1.418l-.319-.44v-.539h5.997v5.332h-10.208v2.924h-6.339v-2.924H95.506v-5.235h6.403v.548l-.351.407a9.434 9.434 0 0 1-1.438-1.547 6.422 6.422 0 0 1-.893-1.661l.512-.185.519-.175c.161.466.409.923.741 1.385a8.57 8.57 0 0 0 1.271 1.363l1.093.958h-6.762v3.058h10.608v2.927h4.167v-2.927h10.204v-3.164h-6.542l1.304-.978a6.04 6.04 0 0 0 1.241-1.21 4.4 4.4 0 0 0 .741-1.362 9.573 9.573 0 0 0 .529-3.15c0-1.324-.238-2.534-.709-3.653-.47-1.114-1.167-2.145-2.111-3.094-.961-.949-1.985-1.652-3.099-2.121-1.12-.463-2.326-.697-3.642-.697-1.35 0-2.578.234-3.709.697-1.121.469-2.153 1.172-3.084 2.121-.929.949-1.62 1.978-2.08 3.094-.455 1.119-.684 2.329-.684 3.653 0 1.081.171 2.118.519 3.097zm-16.201 7.128v.545H72.59V.656H52.958v16.998h14.047v5.332H46.609V-.103c0-.659.102-1.274.314-1.831.222-.553.527-1.057.958-1.479.421-.416.92-.744 1.482-.958a5.259 5.259 0 0 1 1.831-.314H72.59v-12.837h6.345v35.176h2.845v-35.176h6.348v35.92c0 .66-.094 1.275-.313 1.837a4.087 4.087 0 0 1-.961 1.474 4 4 0 0 1-1.48.958c-.559.223-1.175.319-1.836.319v-1.084c.56 0 1.028-.093 1.45-.246a3.118 3.118 0 0 0 1.104-.715c.319-.313.549-.67.704-1.092.16-.419.243-.903.243-1.451V-16.43h-4.164v35.168h-5.032V-16.43h-4.172v12.841H51.194c-.546 0-1.029.082-1.444.246-.422.15-.774.384-1.094.709a2.876 2.876 0 0 0-.711 1.093 3.927 3.927 0 0 0-.246 1.438v22.005h18.216v-3.164H51.868V-.439h21.803v22.341h9.867zM131.522-4.14v.551H96.106v-5.338h33.665v-8.595h6.346v9.336c0 .674-.108 1.284-.32 1.84a3.896 3.896 0 0 1-.96 1.483 4.144 4.144 0 0 1-1.478.961 5.176 5.176 0 0 1-1.837.313v-1.096c.546 0 1.032-.079 1.451-.234a3.25 3.25 0 0 0 1.102-.718 2.94 2.94 0 0 0 .705-1.098c.161-.408.239-.891.239-1.451v-8.244h-4.169v8.593H97.208v3.155l34.314-.003zM-96.652-1.617v-.533h17.041v-1.439h-17.584v-5.338h35.172v-8.595h6.343v9.336c0 .674-.103 1.284-.311 1.84a4.173 4.173 0 0 1-.965 1.483 4.252 4.252 0 0 1-1.478.961 5.133 5.133 0 0 1-1.83.313h-13.003v1.439h17.587v5.32h-41.515v-5.32h.543v.533h.548v3.703h39.33v-3.149h-17.577v-3.622h14.087a4.14 4.14 0 0 0 1.443-.234 3.1 3.1 0 0 0 1.099-.718c.313-.316.546-.671.709-1.098.157-.408.239-.891.239-1.451v-8.244h-4.164v8.593h-35.166v3.152h17.58v3.622h-18.128v-.554h.548zm-19.531-10.447-.386.386c-.45-.451-.919-.776-1.431-.993a4.27 4.27 0 0 0-1.669-.316c-.646 0-1.226.102-1.74.316-.511.217-.98.542-1.401.982a4.334 4.334 0 0 0-.956 1.432 4.4 4.4 0 0 0-.317 1.67c0 .653.11 1.231.324 1.746.205.525.513.987.936 1.412a4.24 4.24 0 0 0 1.411.935c.517.214 1.097.319 1.743.319.608 0 1.165-.105 1.68-.319.519-.208.977-.519 1.428-.946.443-.425.762-.888.975-1.404.221-.518.328-1.09.328-1.743 0-.601-.107-1.157-.328-1.664a4.256 4.256 0 0 0-.983-1.427l.386-.386.384-.39a5.328 5.328 0 0 1 1.219 1.775c.271.651.414 1.354.414 2.092 0 .776-.143 1.491-.414 2.159a5.272 5.272 0 0 1-1.219 1.767 5.592 5.592 0 0 1-1.785 1.178 5.504 5.504 0 0 1-2.085.398c-.772 0-1.49-.135-2.149-.398a5.208 5.208 0 0 1-1.771-1.178c-.523-.522-.932-1.116-1.186-1.778a5.764 5.764 0 0 1-.397-2.148c0-.738.136-1.438.397-2.083.262-.65.663-1.239 1.18-1.781a5.208 5.208 0 0 1 1.771-1.219 5.58 5.58 0 0 1 2.155-.41c.735 0 1.441.135 2.089.41a5.37 5.37 0 0 1 1.781 1.216zm-3.486 13.086v.537c-1.411 0-2.73-.244-3.935-.73a9.926 9.926 0 0 1-3.273-2.209c-.972-.981-1.713-2.065-2.205-3.278-.491-1.207-.727-2.514-.727-3.929 0-1.371.236-2.666.727-3.867.492-1.204 1.233-2.3 2.2-3.284.976-.991 2.07-1.743 3.278-2.247 1.205-.495 2.521-.744 3.935-.744 1.384 0 2.682.249 3.87.744 1.2.506 2.301 1.256 3.281 2.241.994.99 1.741 2.086 2.236 3.287.517 1.195.759 2.499.759 3.87 0 1.415-.242 2.733-.759 3.932-.495 1.216-1.242 2.308-2.236 3.275-.987.976-2.081 1.711-3.281 2.209-1.201.486-2.486.73-3.87.73V.472c1.245 0 2.394-.217 3.456-.66 1.06-.43 2.031-1.086 2.938-1.962.892-.885 1.548-1.849 2-2.918.438-1.064.663-2.227.663-3.519 0-1.248-.225-2.388-.663-3.445a9.08 9.08 0 0 0-2.017-2.942c-.898-.89-1.865-1.561-2.921-1.998a8.896 8.896 0 0 0-3.456-.668c-1.279 0-2.454.226-3.521.668a8.992 8.992 0 0 0-2.91 1.998 9 9 0 0 0-1.968 2.939c-.44 1.055-.652 2.2-.652 3.448 0 1.292.212 2.455.652 3.524A8.717 8.717 0 0 0-126.1-2.15c.872.876 1.84 1.529 2.91 1.962 1.067.443 2.242.66 3.521.66zm-3.328 17.376h.54c0 .66-.102 1.275-.322 1.837a3.988 3.988 0 0 1-.952 1.474 3.92 3.92 0 0 1-1.484.958c-.554.223-1.169.319-1.827.319h-19.646v-5.332h18.428v.539l-.547-.038c.027-.301.03-.603.03-.896 0-1.67-.334-3.088-.996-4.28-.664-1.193-1.654-2.171-3.011-2.954-1.236-.709-2.736-1.256-4.519-1.623-1.756-.366-3.798-.55-6.096-.55-.865 0-1.774.023-2.716.079l-.573.029V2.622l.513-.029a70.299 70.299 0 0 1 3.616-.091c3.69 0 6.81.325 9.368 1.005 1.276.331 2.414.759 3.41 1.265.99.513 1.855 1.123 2.565 1.82 1.573 1.561 2.778 3.34 3.574 5.314.793 1.969 1.185 4.143 1.185 6.492h-1.092c0-2.226-.374-4.251-1.117-6.087-.726-1.832-1.838-3.472-3.331-4.949-.606-.615-1.368-1.145-2.282-1.617-1.367-.706-3.08-1.251-5.118-1.608-2.057-.364-4.443-.548-7.162-.548-1.129 0-2.318.029-3.559.094l-.027-.539h.54v4.245h-.54l-.03-.545a43.23 43.23 0 0 1 2.776-.088c2.357 0 4.464.19 6.326.574 1.861.384 3.482.967 4.846 1.752 1.498.864 2.637 1.989 3.401 3.36.771 1.38 1.143 2.995 1.138 4.817 0 .322-.008.641-.038.972l-.023.507h-17.856v3.164h18.563c.545 0 1.026-.093 1.44-.246a3.146 3.146 0 0 0 1.109-.715c.317-.313.541-.67.703-1.092.15-.419.241-.903.241-1.451zm13.241 4.043v.545h-9.137v-5.332h7.369v-2.549h-7.369V9.771h7.369V1.582h6.341v16.816c0 .66-.097 1.275-.317 1.837a4.13 4.13 0 0 1-.946 1.474c-.426.422-.918.759-1.494.958-.543.223-1.156.319-1.816.319v-1.084c.536 0 1.018-.093 1.441-.246.41-.164.779-.389 1.103-.715a3.07 3.07 0 0 0 .702-1.092c.155-.419.243-.903.243-1.451V2.672h-4.171v8.182h-7.376v3.159h7.376v4.725h-7.376v3.164h8.058zm48.274-12.53v.545h-29.363v3.557h28.822V9.911h.541v.545-.545h.544v5.194h-30.997V9.366h30.997v.545zm0 8.895v.539h-29.363v3.641h-6.35V9.703c0-.653.105-1.268.315-1.831a4.238 4.238 0 0 1 .956-1.485c.426-.422.92-.741 1.484-.958a5.226 5.226 0 0 1 1.836-.308h36.924v17.865h-6.343v-4.18h.541v.539-.539h.544v3.096h4.164V6.211h-35.83c-.557 0-1.036.079-1.458.246-.41.155-.775.387-1.085.7a3.19 3.19 0 0 0-.718 1.099 4.087 4.087 0 0 0-.239 1.447v12.199h4.169v-3.638h30.997v.542z" style="fill:#fff;fill-opacity:1;fill-rule:nonzero;stroke:none" transform="translate(574.028 631.94)"/><path d="M0 0v15.551h-3.076v2.906h6.491V0Z" style="fill:#0b1b34;fill-opacity:1;fill-rule:nonzero;stroke:none" transform="translate(570.415 232.978)"/><path d="M0 0c-.63.645-1.414.97-2.35.97-1.002 0-1.793-.308-2.374-.923-.598-.612-.897-1.453-.897-2.517 0-1.034.292-1.857.872-2.472.567-.613 1.349-.92 2.351-.92.968 0 1.775.325 2.423.969.628.63.943 1.398.943 2.3C.968-1.541.646-.677 0 0m-6.324-14.604 3.78 5.715h-.411c-1.631 0-3.036.63-4.215 1.89-1.18 1.242-1.768 2.728-1.768 4.456 0 .58.082 1.16.241 1.746A6.75 6.75 0 0 0-7.97.873c.567 1.066 1.342 1.89 2.326 2.47.97.583 2.06.873 3.271.873.872 0 1.702-.164 2.495-.484a6.564 6.564 0 0 0 2.107-1.453A6.863 6.863 0 0 0 3.633.144c.34-.791.508-1.58.508-2.371 0-1.066-.274-2.159-.823-3.269-.322-.712-.952-1.761-1.89-3.152l-3.972-5.956z" style="fill:#0b1b34;fill-opacity:1;fill-rule:nonzero;stroke:none" transform="translate(590.64 247.583)"/><path d="m0 0 6.879 15.284H-.533v3.173h10.949v-3.076L3.635 0Z" style="fill:#0b1b34;fill-opacity:1;fill-rule:nonzero;stroke:none" transform="translate(599.771 232.978)"/><path d="M0 0v2.959l6.297 6.138.145.17c.824.808 1.366 1.397 1.621 1.772.422.595.632 1.21.632 1.843 0 .808-.259 1.471-.775 1.989-.501.498-1.172.753-2.01.753-.873 0-1.544-.255-2.011-.753-.453-.533-.678-1.315-.678-2.35v-.703H0v.487c0 1.936.572 3.504 1.718 4.699 1.147 1.195 2.625 1.793 4.434 1.793 1.615 0 2.994-.586 4.141-1.749 1.145-1.163 1.722-2.546 1.722-4.149 0-.937-.229-1.834-.679-2.692-.422-.809-1.075-1.641-1.963-2.499L4.601 3.173h7.387V0Z" style="fill:#0b1b34;fill-opacity:1;fill-rule:nonzero;stroke:none" transform="translate(615.226 232.978)"/><path d="m0 0-1.557-4.4H1.54Zm-4.182-11.628h-2.937l5.877 15.823h2.484l5.879-15.823H4.103L2.525-7.245h-5.088z" style="fill:#fff;fill-opacity:1;fill-rule:nonzero;stroke:none" transform="translate(495.316 592.618)"/><path d="M0 0v15.823h2.763V2.804h4.693V0Z" style="fill:#fff;fill-opacity:1;fill-rule:nonzero;stroke:none" transform="translate(504.368 580.99)"/><path d="M514.289 596.813h2.763V580.99h-2.763z" style="fill:#fff;fill-opacity:1;fill-rule:nonzero;stroke:none"/><path d="M0 0c.025-.858.209-1.503.552-1.934.328-.413.788-.621 1.379-.621.632 0 1.126.194 1.479.58.356.39.533.929.533 1.621 0 .694-.177 1.198-.533 1.514-.262.252-.822.513-1.676.791a7.93 7.93 0 0 0-1.617.683c-.59.348-1.065.744-1.419 1.186a3.446 3.446 0 0 0-.632 1.184 4.926 4.926 0 0 0-.178 1.35c0 1.383.403 2.508 1.204 3.381.803.873 1.834 1.31 3.096 1.31 1.171 0 2.123-.401 2.861-1.204.761-.847 1.182-2.022 1.262-3.53H3.687c-.038.691-.198 1.204-.473 1.538-.262.316-.626.474-1.084.474-.513 0-.908-.158-1.185-.474-.276-.323-.413-.777-.413-1.371 0-.223.013-.402.039-.54.052-.155.131-.287.236-.395.172-.182.415-.34.731-.478.196-.082.526-.193.984-.334l.989-.331c.985-.386 1.746-.975 2.287-1.766.552-.774.829-1.702.829-2.78 0-1.509-.435-2.749-1.302-3.715-.869-.999-1.987-1.497-3.355-1.497-1.312 0-2.385.483-3.214 1.453C-2.098-2.921-2.527-1.62-2.527 0Z" style="fill:#fff;fill-opacity:1;fill-rule:nonzero;stroke:none" transform="translate(522.023 586.058)"/><path d="m0 0-5.641 15.823h2.937L.867 5.256l3.551 10.567h2.897L1.715 0Z" style="fill:#fff;fill-opacity:1;fill-rule:nonzero;stroke:none" transform="translate(542.457 580.99)"/><path d="M0 0a4.963 4.963 0 0 1 1.025-1.702 4.802 4.802 0 0 1 1.597-1.184 4.228 4.228 0 0 1 1.834-.416c1.408 0 2.578.519 3.511 1.559C8.9-.721 9.368.574 9.368 2.139c0 .665-.119 1.286-.356 1.869a5.118 5.118 0 0 1-1.007 1.64c-.512.595-1.044 1.023-1.596 1.287-.566.263-1.218.395-1.953.395a4.542 4.542 0 0 1-1.813-.354 4.37 4.37 0 0 1-1.5-1.099A5.24 5.24 0 0 1 .038 4.134a5.666 5.666 0 0 1-.375-2.036C-.337 1.351-.226.65 0 0m-2.565 5.273c.381.997.952 1.89 1.715 2.678.737.75 1.546 1.316 2.428 1.702.92.39 1.886.583 2.897.583 1.025 0 2-.193 2.92-.583A7.488 7.488 0 0 0 9.86 7.931a8.274 8.274 0 0 0 1.715-2.658 8.223 8.223 0 0 0 .614-3.155 8.954 8.954 0 0 0-.533-3.094 8.003 8.003 0 0 0-1.48-2.551C9.4-4.389 8.533-5.045 7.573-5.502a7.242 7.242 0 0 0-3.117-.686 7.047 7.047 0 0 0-3.116.707 7.975 7.975 0 0 0-2.584 2.015A8.415 8.415 0 0 0-2.665-.914a9.398 9.398 0 0 0-.492 3.032c0 1.108.198 2.159.592 3.155" style="fill:#fff;fill-opacity:1;fill-rule:nonzero;stroke:none" transform="translate(554.45 586.887)"/><path d="M0 0v15.823h2.763V2.804h4.693V0Z" style="fill:#fff;fill-opacity:1;fill-rule:nonzero;stroke:none" transform="translate(569.398 580.99)"/><path d="m0 0-1.557-4.4H1.54Zm-4.181-11.628h-2.938l5.878 15.823h2.485l5.877-15.823H4.103L2.525-7.245h-5.088z" style="fill:#fff;fill-opacity:1;fill-rule:nonzero;stroke:none" transform="translate(585.157 592.618)"/><path d="M0 0v13.081h-2.919v2.742H5.68v-2.742H2.742V0Z" style="fill:#fff;fill-opacity:1;fill-rule:nonzero;stroke:none" transform="translate(596.262 580.99)"/><path d="M0 0c.971 0 1.662.161 2.069.478.436.319.651.867.651 1.64 0 .803-.208 1.371-.63 1.702-.407.32-1.085.481-2.031.481h-1.243V0Zm-3.907-8.804V7.02h3.671c.881 0 1.531-.03 1.951-.085.644-.097 1.189-.29 1.638-.581.643-.375 1.156-.94 1.538-1.702a4.958 4.958 0 0 0 .591-2.387c0-1.453-.48-2.643-1.439-3.572-.975-.94-2.27-1.412-3.887-1.412h-1.34v-6.085z" style="fill:#fff;fill-opacity:1;fill-rule:nonzero;stroke:none" transform="translate(614.959 589.793)"/><path d="M0 0c-.407.319-1.085.48-2.031.48h-1.242v-4.3h1.183c.973 0 1.662.161 2.069.477.436.32.651.867.651 1.641C.63-.899.422-.331 0 0m2.505-4.441C1.9-5.273 1.065-5.874 0-6.249l4.477-6.375H1.025l-4.14 6.085h-.158v-6.085h-2.724V3.199h3.671c.881 0 1.531-.029 1.953-.085.643-.096 1.187-.29 1.636-.58.643-.375 1.156-.94 1.538-1.702a4.96 4.96 0 0 0 .592-2.388c0-1.107-.296-2.071-.888-2.885" style="fill:#fff;fill-opacity:1;fill-rule:nonzero;stroke:none" transform="translate(629.219 593.614)"/><path d="M0 0a5.01 5.01 0 0 1 1.025-1.702c.46-.513.994-.908 1.597-1.184a4.23 4.23 0 0 1 1.836-.416c1.406 0 2.576.519 3.511 1.559.931 1.022 1.4 2.317 1.4 3.882 0 .665-.12 1.286-.355 1.869a5.153 5.153 0 0 1-1.007 1.64c-.513.595-1.044 1.023-1.597 1.287-.566.263-1.217.395-1.952.395a4.555 4.555 0 0 1-1.815-.354 4.38 4.38 0 0 1-1.5-1.099A5.288 5.288 0 0 1 .038 4.134a5.666 5.666 0 0 1-.375-2.036C-.337 1.351-.224.65 0 0m-2.564 5.273c.381.997.953 1.89 1.714 2.678.739.75 1.546 1.316 2.428 1.702.92.39 1.887.583 2.899.583a7.4 7.4 0 0 0 2.919-.583c.909-.386 1.73-.961 2.465-1.722a8.328 8.328 0 0 0 1.716-2.658 8.259 8.259 0 0 0 .612-3.155 8.907 8.907 0 0 0-.533-3.094 7.964 7.964 0 0 0-1.479-2.551c-.776-.862-1.644-1.518-2.604-1.975a7.233 7.233 0 0 0-3.115-.686 7.04 7.04 0 0 0-3.116.707 7.943 7.943 0 0 0-2.584 2.015A8.394 8.394 0 0 0-2.663-.914a9.398 9.398 0 0 0-.492 3.032c0 1.108.196 2.159.591 3.155" style="fill:#fff;fill-opacity:1;fill-rule:nonzero;stroke:none" transform="translate(638.292 586.887)"/><path d="M0 0c.973 0 1.663.161 2.07.478.435.319.652.867.652 1.64 0 .803-.209 1.371-.63 1.702-.407.32-1.087.481-2.031.481h-1.245V0Zm-3.905-8.804V7.02h3.67c.88 0 1.53-.03 1.952-.085.643-.097 1.189-.29 1.637-.581.644-.375 1.157-.94 1.538-1.702a4.958 4.958 0 0 0 .591-2.387c0-1.453-.479-2.643-1.44-3.572-.973-.94-2.268-1.412-3.885-1.412h-1.342v-6.085z" style="fill:#fff;fill-opacity:1;fill-rule:nonzero;stroke:none" transform="translate(657.148 589.793)"/><path d="M0 0c-.407.319-1.085.48-2.03.48h-1.243v-4.3h1.183c.973 0 1.662.161 2.069.477.436.32.653.867.653 1.641C.632-.899.422-.331 0 0m2.505-4.441C1.9-5.273 1.066-5.874 0-6.249l4.477-6.375H1.025l-4.14 6.085h-.158v-6.085h-2.722V3.199h3.669c.881 0 1.531-.029 1.953-.085.643-.096 1.189-.29 1.636-.58.644-.375 1.157-.94 1.538-1.702a4.96 4.96 0 0 0 .592-2.388c0-1.107-.294-2.071-.888-2.885" style="fill:#fff;fill-opacity:1;fill-rule:nonzero;stroke:none" transform="translate(671.406 593.614)"/><path d="M677.737 596.813h2.762V580.99h-2.762zM683.695 596.813h2.761V580.99h-2.761z" style="fill:#fff;fill-opacity:1;fill-rule:nonzero;stroke:none"/><path d="M0 0c.026-.858.211-1.503.553-1.934.328-.413.789-.621 1.38-.621.63 0 1.125.194 1.479.58.356.39.533.929.533 1.621 0 .694-.177 1.198-.533 1.514-.263.252-.822.513-1.676.791a7.925 7.925 0 0 0-1.619.683c-.59.348-1.064.744-1.418 1.186a3.482 3.482 0 0 0-.633 1.184 4.928 4.928 0 0 0-.176 1.35c0 1.383.402 2.508 1.202 3.381.803.873 1.836 1.31 3.096 1.31 1.172 0 2.125-.401 2.862-1.204.762-.847 1.181-2.022 1.263-3.53H3.688c-.038.691-.197 1.204-.474 1.538-.262.316-.624.474-1.084.474-.513 0-.906-.158-1.184-.474-.275-.323-.414-.777-.414-1.371 0-.223.015-.402.039-.54a1.03 1.03 0 0 1 .238-.395c.17-.182.415-.34.729-.478.198-.082.527-.193.986-.334l.988-.331c.985-.386 1.747-.975 2.288-1.766.552-.774.827-1.702.827-2.78 0-1.509-.435-2.749-1.301-3.715-.868-.999-1.987-1.497-3.354-1.497-1.314 0-2.386.483-3.214 1.453C-2.098-2.921-2.525-1.62-2.525 0Z" style="fill:#fff;fill-opacity:1;fill-rule:nonzero;stroke:none" transform="translate(691.428 586.058)"/><path d="M581.479 341.348h-95.388v178.051h95.388zM707.001 341.348h-95.388v178.051h95.388z" style="fill:#0b1b34;fill-opacity:1;fill-rule:nonzero;stroke:none"/><path d="m0 0-87.738 18.791v-33.108l86.31-18.495 134.6 16.752v32.624z" style="fill:#a81f23;fill-opacity:1;fill-rule:nonzero;stroke:none" transform="translate(573.83 433.752)"/><path d="M486.091 330.898h220.91v-7.088h-220.91zM479.731 317.076h233.625v-7.09H479.731ZM473.367 303.257h246.358v-7.09H473.367Z" style="fill:#a81f23;fill-opacity:1;fill-rule:nonzero;stroke:none"/></g></svg>