<svg xmlns="http://www.w3.org/2000/svg" width="234.54738mm" height="233.59306mm" viewBox="0 0 234.54738 233.59306"><g style="stroke-width:.261906"><g style="stroke-width:.261906"><path d="M0 0c.281-.453 1.288.537 2.188.909.016.135.016.135.017.257.027.147.191.101.359.071.006.141.02.269.188.233.338-.205.201.238.557.295.158-.036.158-.036.329-.066-.077.532.702.761 1.115.829.751.121.93-.031 1.625.33.375.195.845.37 1.145.64.129.112 1.263 1.111 1.273 1.189.006.129.006.129.022.27.362.197.716.251.76.656 0 .135.174.103.335.059.015.14.031.269.037.41.346.056.382.333.41.601.36.196.561.562.768.926l-.159.168c.694 1.151.204 2.368-.673 3.381-.899 1.026-2.269 1.528-3.543 1.351C2.529 11.909-.983 1.683 0 0" style="fill:#c865b9;fill-opacity:1;fill-rule:nonzero;stroke:none;stroke-width:.261906" transform="matrix(1.34696 0 0 -1.34696 135.837 63.532)"/></g><g style="stroke-width:.261906"><path d="M0 0c-.546.583-.366 1.671-.759 2.323.175.448.026.707-.206 1.102.75.948.671 2.187 1.907 2.796 1.768.874 3.831-.792 4.359-1.716.227-.04.227-.04.455-.076.243-.4.379-.678.621-1.062.227-.049.227-.049.46-.086C9.69-.105 10.592-4.607 10.16-4.887c-.441-.292-1.201.186-1.287.142-.879.979-1.373.108-1.866.218C4.374-4.016 2.154-2.599.602-.311.424-.021.181-.18 0 0" style="fill:#f89c0e;fill-opacity:1;fill-rule:nonzero;stroke:none;stroke-width:.261906" transform="matrix(1.34696 0 0 -1.34696 88.014 56.125)"/></g><g style="stroke-width:.261906"><path d="M0 0c-2.033-1.156-1.435-3.751-2.335-4.366-.798-.571-1.681 2.034-2.401 2.682l-.313-.186c-2.048 3.212-2.026 8.718.376 12.549.615.373 1.243.814 2.142.647.709-.713 2.414-1.033 2.947-2.237C1.637 5.956.364 3.064 0 0" style="fill:#1ab3be;fill-opacity:1;fill-rule:nonzero;stroke:none;stroke-width:.261906" transform="matrix(1.34696 0 0 -1.34696 122.331 52.832)"/></g><g style="stroke-width:.261906"><path d="M0 0s21.611 11.095 28.928 38.418c3.565 12.551 3.041 23.401 1.351 32.06-1.689 8.657-.755 10.327.674 10.144 1.676-.214 16.099-4.056 29.268-50.861 0 0 6.415 41.663 35.681 50.861 16.997 3.518 24.425-10.415 22.286-27.594 0 0-1.126 22.184-18.348 16.503-17.22-5.682-36.018-37.741-22.062-51.806 5.741-5.277 14.522.134 19.475 6.762 4.952 6.628 8.555 8.791 14.182 5.95 0 0-13.958-32.601-40.747-30.57C50.201.678 39.733 31.79 39.173 34.495c0 0-9.232-31.246-39.173-34.495" style="fill:#254a9a;fill-opacity:1;fill-rule:nonzero;stroke:none;stroke-width:.261906" transform="matrix(1.34696 0 0 -1.34696 33.559 175.316)"/></g><g style="stroke-width:.261906"><path d="M0 0c.022-.186.148-.325.139-.525-.219-.293-.273-.164-.515-.239-.021-.218.095-.371.181-.542-.153-.284-.202-.234-.269-.469-.633.028-1.607.545-2.581.854-.281.089-.506.186-.754.277-.485.18-1.271.592-1.589.585-.621-.013-1.341-1.022-1.328-1.932.173-.586.811-1.168 1.657-1.56.684-.317 1.424-.434 2.053-.615.597-.167.818-.48.804-.911-.029-.139-.153-.069-.202-.164.174-.115.111-.526.107-.609-.093-.236-.287.034-.449.07.159-.287-.02-.336.124-.567-.634-.466-1.847.488-2.647.548-.301-.873-1.474-1.789-1.479-3.113.324-.091.619-.266.92-.339.888-.214 1.451-.401 1.827-1.1-.049-.312-.032-.594.301-.728-.198-.154.3-.509-.044-.506-.02-.091.181-.08.179-.161-.061-.142-.258.01-.381-.002.157-.302.228-.428.058-.876-.976-.564-2.168.56-3.255.96-1.08.4-2.207.692-3.265 1.061-.377.131-.815.38-1.24.504-.522.151-.959.147-1.323.534-.064.46-.723.798-.65 1.331.047.339.355.568.563.885.694-.015 1.229.687 1.943.378.274.133.432.52.791.468-.075-.232.042-.373-.032-.606.325-.45 1.085-.715 1.438-.48.525.349 1.046 2.108.863 2.862-.156.635-.721.995-.965 1.637-.23.607-.325 1.744-.105 2.555.125.459.324.925.467 1.396.045.146.166.291.17.46.011.493-.749.783-.634 1.373.136.704.744.874 1.203 1.076.163-.028.127-.15.262-.191.143-.037.154.217.222.346.17-.088.347-.225.506-.044.172-.06.148-.21.387-.238.354.166.958.405 1.394-.087.147-.046-.02-.239.075-.31 1.021-.79 2.745-1.507 4.115-1.848C-.21 1.21.099.831.16.178.145.039.016.14 0 0" style="fill:#231f20;fill-opacity:1;fill-rule:evenodd;stroke:none;stroke-width:.261906" transform="matrix(1.34696 0 0 -1.34696 88.605 210.042)"/></g><g style="stroke-width:.261906"><path d="M0 0c.23.184.477.207.752.278.306-.193.353-.524.684-.674-.021-.335.221-.665.454-.822.001-.548.454-.943.663-1.412.316-.706.49-1.578.832-2.36.139-.313.338-.671.504-1.045.107-.242.094-.521.179-.748.288-.747.807-1.406 1.142-2.175.214-.491.482-1.09.793-1.599.463-.755 1.122-1.485 1.346-2.086.105-.284-.05-.711.293-.894-.059-.183-.24-.145-.409-.178.031-.182.106-.38.207-.591-.298-.09-.105-.52-.459-.393.096-.241-.17-.34-.208-.528-.315-.052-.609.366-.86-.034-.503.622-1.355 1.065-1.784 2.09-.259.614-.387 1.299-.714 1.974C2.384-9.072 1.573-6.561.39-5.031c-.56-.188-1.465-.715-1.368-1.323.074-.46.516-.939.736-1.576.158-.457.242-.922.41-1.28.096-.2.282-.343.372-.519.9-1.745 1.523-3.647 2.217-5.205-.128-.056-.168-.235-.309-.183.015-.223.128-.416-.202-.429.251-.538-.238-.787-.305-1.201-.332-.166-.795.448-1.088.158-.571.609-.949 1.357-1.217 2.24-.13.427-.099.924-.248 1.35-.455 1.31-1.15 2.586-1.666 3.94-.794 2.075-2.557 3.942-2.357 5.972-.157.309-.143.553-.215.831.102.178.482.241.635.324.128-.164-.141-.171.002-.339.232.243.518.465.845.515.515-.242.83-.988 1.307-1.328.447-.006 1.146.212 1.388.604-.079.788-.168 1.58-.195 2.345.095.134.419.239.574.25C-.147.203-.104.026 0 0" style="fill:#231f20;fill-opacity:1;fill-rule:evenodd;stroke:none;stroke-width:.261906" transform="matrix(1.34696 0 0 -1.34696 171.673 196.096)"/></g><g style="stroke-width:.261906"><path d="M0 0c.753.077 1.153-.747 1.74-1.09-.009-.144-.282-.017-.31-.184.356-.254.081-.594.223-1.069C1.216-3.031-.245-3.1-.485-3.906c-.085-.286.006-.673-.036-1.036-.037-.31-.147-.568-.106-.871.084-.624.396-1.71.827-2.122.819.011 1.829.525 2.55 1.063.135.071-.012.252.097.334.994.507 1.211-.431 1.877-.738-.251-.087-.106-.416.049-.562-.197-.181-.221-.439-.09-.573-.451-.373-1.273-.549-1.862-.859-.467-.247-.751-.624-1.125-.879C1.329-10.4.4-10.846.063-10.86c-1.283-.054-2.434 3.029-2.639 4.391-.106.689.105 2.163-.939 2.265-.706 1.004-.147 1.672.244 2.342.105-.024.322-.019.385.118.173.216.137.51.26.745.44.283.879-.085 1.381.067C-.673-.757-.383-.444 0 0" style="fill:#231f20;fill-opacity:1;fill-rule:evenodd;stroke:none;stroke-width:.261906" transform="matrix(1.34696 0 0 -1.34696 162.877 200.71)"/></g><g style="stroke-width:.261906"><path d="M0 0c.608-.093 1.444-.328 1.814-.22.409.119.644.858.553 1.315-.451.585-1.441.654-2.236.733-1.579.156-3.238.245-4.542.034-.073-.302.045-.464.029-.725C-3.369.598-1.479.23 0 0m4.072-1.721c-.553.262-.755-.664-1.44-.6-.305.027-.546.386-.88.444-.343.059-.738.088-1.146.168-1.523.292-3.518.816-4.876.849-.273.005-.491-.135-.743-.161-.446-.05-.873.159-1.217-.003-.445.395-.786.84-.807 1.559-.062 1.956 1.087 4.768 1.484 6.448-.569.421-1.114.696-1.122 1.561-.006.517.292 1.11.245 1.675-.028.335-.245.558-.098.87.135.103.15-.055.257-.083.267.153.439.432.677.622.45-.161.659.187 1.073.247.537.079 1.144-.294 1.8-.307.369-.009.692.079 1.047.071.16.257.057.569-.022.769-1.473.513-2.335-.143-3.737.008-.324.202-.653.408-.652.771-.001.219.195.681.393.841.081.067.22 0 .321.044.073.031.118.178.214.239.126.076.287.052.329.087.31.252.328.564.601.722 1.719-.432 4.696-.512 4.833-2.373.036-.491-.065-1.239-.171-1.777-.023-.12-.04-.353-.19-.377.037-.169.216-.232.206-.435-.287-.245-.541-.703-.967-.761-1.053-.139-2.482.713-3.338.265-.326-.622-.198-1.177.372-1.451.8-.384 3.223-.773 4.093-.645.273.04.486.179.62.226.358-.29.901-.293 1.276-.504-.184-.297.149-.453.074-.73-.043-.158-.247-.222-.455-.339-.469-.263-.534-.278-1.191-.141-1.218.255-3.232.303-4.164.475-.236-.125-.278-.508-.205-.781-.095-.081-.408-.172-.423-.434-.046-.76 3.201-1.175 4.274-1.255.729-.054 1.717-.441 2.125.049-.029.816.688 1.029 1.22 1.263a4.13 4.13 0 0 0-.306 2.522c.235 1.149.12 2.804.265 3.967.124.994.609 1.758 1.332 2.013.421.15.875-.152 1.296-.37.121-.355.344-.634.386-1.048-.131-2.036-1.026-3.998-.733-6.242-.125-.171-.139-.383-.248-.459-.234.061-.331.053-.503.254-.072-.33-.009-.556.067-.776-.06-.204-.144.157-.245.171-.084-.153-.235-.094-.309.047-.113-.084.078-.452-.114-.48.702-.994-.12-3.261-.131-4.89-.003-.4.087-.923.008-1.172-.099-.313-.466-.466-.467-.741-.062.028.008.038.012.088" style="fill:#231f20;fill-opacity:1;fill-rule:evenodd;stroke:none;stroke-width:.261906" transform="matrix(1.34696 0 0 -1.34696 100.011 229.943)"/></g><g style="stroke-width:.261906"><path d="M0 0c-.168-.081-.143-.191-.297-.276.36-.193.157-.459.118-.686-.745-.387-1.719-.92-2.013-1.7-.142-.381.15-.741-.187-1.024.004-.177.21-.189.201-.348-.417-.341-.361-.779-.902-1.108-.379-.087-.83.186-1.27.451-.378.227-.847.446-1.124.776-.242.291-.369.684-.606 1.05-.782 1.22-2.122 2.343-2.773 3.547-.276.515-.334 1.156-.446 1.662.36.31.519.845 1.024.864.567-.045 1.11-.255 1.577-.943C-5.654 2.308-5.17-.339-4.125-.71c.36-.126 1.137.207 1.523.565.242.227.348.617.78.741C-1.072.811-.611.313 0 0" style="fill:#231f20;fill-opacity:1;fill-rule:evenodd;stroke:none;stroke-width:.261906" transform="matrix(1.34696 0 0 -1.34696 198.177 189.04)"/></g><g style="stroke-width:.261906"><path d="M0 0c-.562.292-1.168.285-1.666.987C-1.553.118-.647-.167 0 0m2.595.911c.065-.272-.078-.367.233-.546.045-.176-.11-.324-.138-.489 1.048.665 1.969 1.699 3.133 2.358.087.081.156.037.215-.064.145.074.025.187.136.266 1.149.51 1.988 1.647 3.257 1.288.046-.013.635-.234.692-.266.233-.133.282-.352.528-.495.319-1.414 1.881-2.104 2.383-3.391-.155-.051-.308-.069-.463-.12.242-.241.193-.435.253-.644-.181-.279-.347-.523-.552-.682-.136-.105-.344-.174-.501-.146-.341.061-1.098.499-1.436.823-.34.332-.521.812-.799 1.238-.242.374-.629.907-.924 1.035-.424.183-1.775-.636-2.517-1.241-.517-.423-1.055-.895-1.484-1.367-.272-.301-.477-.656-.748-.938-.179-.183-.348-.254-.44-.378-.153-.208-.164-.559-.41-.798-.402-.391-1.881-.887-2.187-.336-.083.148.093.159.068.435-.012.105-.151.221-.151.279.004.273.17.5.266.693-.075.191-.078.372-.262.58.256.637 1.024.97 1.628 1.473C1.568-.532.92-1.061.061-1.061c-.371-.001-.81-.025-1.202.056-1.606.337-1.772 2.517-1.418 3.659-.32.107-1.183-.067-1.182.404.005.487.424 1.44.456 1.939.302.325.519.665.448 1.047-.375.35-.999.359-1.285.77-.248.353.022.747-.042 1.186.515 1.509 3.139.551 3.146-.895 0-.381-.317-.666-.766-.84-.287-.111-.767-.09-.594-.547.651-.124 1.741.711 2.055 1.344.498-.059 1.351.021 1.677-.704.111-.245-.043-.498.118-.686.208-.241.7-.25 1.074-.483.436-.27 1.058-.775 1.314-1.412.245-.609-.064-1.267-.171-1.949-.588-.041-.539-.668-1.174-.809-.25.239-.48.612-.731.845.044.527.202 1.114-.235 1.597C.814 4.274-.596 3.037-.62 2.2c-.219.291-.22-.498-.026-.794.295-.446.743-.401.976-.5.494.188.919.603 1.413.486.263-.292.566-.327.852-.481" style="fill:#231f20;fill-opacity:1;fill-rule:evenodd;stroke:none;stroke-width:.261906" transform="matrix(1.34696 0 0 -1.34696 183.725 201.302)"/></g><g style="stroke-width:.261906"><path d="M0 0c-.109-.006-.215-.017-.261-.074-.028-.19.113-.163.124-.3-.712-.617-2.486.141-2.851-.954.257-.605-.184-.621-.189-1.098-.166-.059-.17.091-.281.102-.037-.159-.103-.108-.204-.158.058-.178.211-.237.27-.416-.087-.084-.25.058-.369.091-.146-.469-.51-.54-.948-.735-.528.072-.644.544-.933 1.104-.171.33-.37.465-.377.944-.023 1.772-.804 4.155.009 5.427.526.689 1.855.745 2.449.145.068-.622.27-1.214.246-1.765-.006-.206-.151-.395-.111-.596.171-.862 1.392-.301 2.082-.167.313-.213.723-.306 1.044-.508.114-.178.159-.441.294-.594C-.215.266.013.141 0 0" style="fill:#231f20;fill-opacity:1;fill-rule:evenodd;stroke:none;stroke-width:.261906" transform="matrix(1.34696 0 0 -1.34696 137.362 217.127)"/></g><g style="stroke-width:.261906"><path d="M0 0c.063-.199-.061-.508-.101-.686.036-.195.227.092.271-.013.06-.061.076-.174.159-.206-.016-.169-.155-.02-.212-.114.016-.058.193-.061.009-.088.326-.699-.2-2.179.782-2.513.479-.163 2.231-.044 2.818.054.45.074.898.261 1.298.416.381-.165.748-.246.919-.566.09-.168-.191-.038-.164-.154.349-.256.362-.541.545-.835-.107-.076-.353-.043-.384-.178-.022-.196.143-.158.168-.295.027-.154-.132-.164-.146-.285-.711-.317-1.437-.022-2.066.033-1.591.137-2.818-.82-4.294-.894-1.749.601-2.159 3.075-2.215 5.262.098.218.214.42.43.542.051.21-.092.413-.06.532C-1.65-.188-.819.011 0 0" style="fill:#231f20;fill-opacity:1;fill-rule:evenodd;stroke:none;stroke-width:.261906" transform="matrix(1.34696 0 0 -1.34696 118.458 212.942)"/></g><g style="stroke-width:.261906"><path d="M0 0c-.27.174-.999.124-1.625.084-2.122-.138-4.432-.59-5.225-1.763.032-.349-.089-.737.078-1.067 1.426-.15 3.142.178 4.673.309 1.178.101 2.144.053 2.616.657C.57-1.163.493-.32 0 0m-1.178 2.467c.15-.166.115-.315.138-.433.206.012-.04.381.082.459.989-.039 1.787.038 2.374-.358.358-.244.691-.7.761-1.17.06-.408-.048-.798.23-1.23.058-.166-.091-.168-.101-.278.06-.059.182-.04.196-.158.166-.822.564-1.662.311-2.341-.167.012-.181-.097-.348-.084-.11-.148-.173-.525-.411-.72-.054-.043-.226-.05-.344-.13-.196-.13-.223-.298-.452-.365-.344-.101-.949-.055-1.428-.075-.474-.016-.938.029-1.387-.022-1.202-.138-2.715-.107-3.86-.351-.467-.1-.846-.354-1.214-.364-.48-.012-.847.34-1.292.301.039-.177-.414-.428-.623-.429-.174-.001-.605.296-.725.455-.625.83-.537 2.672-.509 4.068.026 1.331.617 2.171.981 2.802.399.112.631.238 1.008.206.47-.041.951-.454 1.354-.473.333-.018 1.789.283 2.42.41.722.146 1.866.173 2.839.28" style="fill:#231f20;fill-opacity:1;fill-rule:evenodd;stroke:none;stroke-width:.261906" transform="matrix(1.34696 0 0 -1.34696 130.576 226.48)"/></g><g style="stroke-width:.261906"><path d="M0 0c-.1.525.465.778.404 1.273-.14 1.147-1.292 1.229-2.254.914-.831-.274-1.204-1.208-.946-1.89.357-.931 1.234-.846 2.39-.486.141-.09.157-.382.413-.376-.132.181.044.212.194.257C.138-.198.063-.11 0 0m-2.932-1.078c-.804.351-.951 1.733-.822 2.356-.535-.671-.055-2.389.822-2.356m1.498 8.688c-.598-.368-1.437-.52-1.349-1.274.491-.141 1.135.03 1.773.195.633-.188 1.174-.563 1.431-1.529C.23 4.801.366 4.444.22 4.223.928 3.755 1.591 3.2 2.133 2.39 1.539 4.994-.233 7.871.179 10.156c.148.149.319.289.403.47.828.381 1.439-.297 1.859-1.002.472-.479 1.728-.184 2.122.409-.149.761-.071 1.41-.072 2.098.874.467 2.074.708 2.035-.421.603-.473.663-1.366.863-2.201.282-1.165.815-2.33 1.006-3.424.216-.201.26-.464.378-.812.654-1.922 1.833-4.009 2.588-5.658-.244.013-.156-.06-.423-.005.088-.33.28-.439.473-.544-.089-.18-.272.061-.423-.004-.032-.205.019-.561.11-.718-.353-.026-.265-.419-.589-.346.211-.367-.142-.255-.105-.511-.874.088-2.05 1.212-2.413 2.321-.12.366-.071.782-.173 1.167-.105.402-.335.885-.482 1.249-.675 1.681-1.277 3.511-1.972 4.974-.268.145-.648.059-.946.141-.778-.405-1.34-.923-1.2-1.834.056-.368.254-.774.41-1.178.283-.727.449-1.558.832-1.976.248-.855.376-1.826.824-2.497-.029-.844.389-1.385.749-2.144a1.807 1.807 0 0 0-.364-.174c.357-.779-.141-1.146-.314-1.669-.201-.075-.276.108-.507-.035C3.045-3.155 3.282-.325 2.37 1.716c.264-1.13-.563-1.735-.952-2.549-.698-.12-.917-.523-1.4-.584-.062-.165.183-.156.189-.406-.197-.316-.58-.477-1.163-.594-1.561-.314-3.188-.116-3.85 1.299-.037.077-.064.17-.089.251-.484 1.628.674 2.895 1.113 4.117-.533.386-1.083 1.025-.814 1.793.293.196.393.487.482.783.442.318.912.823.827 1.278-.142.766-1.319.746-1.351 1.842.2.236.248.518.47.683.868.643 1.889.098 2.361-.545-.118-.362.294-.503.378-.812.072-.263-.13-.368-.005-.662" style="fill:#231f20;fill-opacity:1;fill-rule:evenodd;stroke:none;stroke-width:.261906" transform="matrix(1.34696 0 0 -1.34696 145.629 222.79)"/></g><g style="stroke-width:.261906"><path d="M0 0c.072-.085-.019-.195-.049-.296C-.193-.223-.081-.109 0 0" style="fill:#231f20;fill-opacity:1;fill-rule:evenodd;stroke:none;stroke-width:.261906" transform="matrix(1.34696 0 0 -1.34696 49.057 200.931)"/></g><g style="stroke-width:.261906"><path d="M0 0c1.042-1.042 2.193-1.591 3.192-2.431.277.229.423.498.452.774C2.798-.967.83 1.093 0 0m5.654.352c.192.003.402-.119.561.089C6.652.148 7.279.07 7.467-.414c.1-.346-.286-.769-.393-1.146-.08-.167-.207-.041-.282-.236a.634.634 0 0 1 .033-.411c-.101-.1-.221-.08-.318-.208-.51-.858-1.413-1.966-2.027-2.715-.027-.066.088-.014.047-.087-.343-.328-.692-1.02-1.003-1.531-.037-.112.082-.2.112-.302-.278-.12-.281-.438-.223-.61-.164-.117-.052.097-.217.156-.048-.091-.073-.18-.021-.256-.185-.049-.006.229-.112.302-.108 0-.06-.242-.136-.343-.117 0-.254.122-.338-.085-.042.079-.043.165-.102.24-.046-.275-.28-.162-.324-.37-.118.15-.067.329-.142.488-.028-.147-.155-.182-.271-.299-.131.086-.03.208-.112.301-.15-.169-.126-.187-.282-.236-.208.142-.226.283-.343.361.08.487.148.784.362 1.333.197.504.789 1.395.668 1.828-.136.485-1.028 1.068-1.671 1.49-1.073.707-1.899 1.235-2.874 1.428C-3.121-1.77-3.744-2-4.146-2.827c-.119.143-.201.06-.295.049-.18.1-.178.228-.371.325-.134.044-.231-.153-.354-.185-.103.079-.074.181-.074.276-.091.031-.147-.152-.24-.101-.158.07-.083.177-.075.275-.121-.041-.251-.032-.374-.06-.38.549-.118 1.15.481 1.799.89.964 2.44 1.117 3.393 1.941.21.182.483.524.613.766-.221.744-1.258.532-1.796.865-.38.235-.413.558-.754.933.092.207-.018.38-.088.561.568.908 1.284.892 1.962 1.108.427-.34 1.189.181 1.533-.013.149-.084.18-.354.265-.468C.2 4.551.973 4.23 1.171 3.279c.058-.273-.074-.774.106-1.069.337-.549 1.188-.788 1.72-1.193.648-.495 1.135-.818 1.96-1.095.289-.03.547.103.697.43" style="fill:#231f20;fill-opacity:1;fill-rule:evenodd;stroke:none;stroke-width:.261906" transform="matrix(1.34696 0 0 -1.34696 44.9 190.417)"/></g><g style="stroke-width:.261906"><path d="m0 0 .107-.078a1.703 1.703 0 0 1-.038-.358C.665-1.887.972-4.077-.099-5.82c-.727-1.185-1.985-1.743-3.073-1.349-.821.562-.826 1.252-1.286 1.871.18.288.435.084.61.383.42-.23 1.02-.043 1.487.077.773.927.549 1.893-.388 2.649-.259-.105-.596.274-.838.059l-.289.209c-1.153.293-2.274-1.518-.821-2.267.061-.225.184-.439.296-.655-.317-.501-.191-.658-.466-1.095-.13.053-.103.132-.19.193.018-.357-.29-.055-.287-.396-.177.103-.316-.025-.482.02-.976 1.051-1.949 1.981-2.088 3.114C-8.2-.672-5.249.715-3.458.474c.093.022.187.04.276.075.39-.245.682.129 1.012.257.024.172.131.169.235.325.173-.139.461-.187.543-.394-.106-.08-.254.117-.369.101.177-.25 1.157-.507.713-1.068.125-.122.267.072.323-.235.104-.064.225.193.259-.023.137.274.311.318.466.488" style="fill:#231f20;fill-opacity:1;fill-rule:evenodd;stroke:none;stroke-width:.261906" transform="matrix(1.34696 0 0 -1.34696 45.026 196.372)"/></g><g style="stroke-width:.261906"><path d="M0 0c-.284-.641-.231-1.033-.414-1.581-.495-.294-1.245-.753-1.212-1.493C-1.585-3.982.145-4.406.928-4.55c.431-.505.76-1.047.705-1.723-.218-.135-.22-.207-.173-.461-.192-.055-.261.22-.403.292-.022-.263.124-.468.211-.694-.49.089-.934-.225-1.497.076-.419.227-.708.65-1.109.88-.778.447-1.787.095-2.644.776-1.409 1.472.651 4.11 1.66 6.025.272.021.48.216.713.35C-1.154.563-.291.483 0 0" style="fill:#231f20;fill-opacity:1;fill-rule:evenodd;stroke:none;stroke-width:.261906" transform="matrix(1.34696 0 0 -1.34696 59.949 195.298)"/></g><g style="stroke-width:.261906"><path d="M0 0c.141-.492.921-.335 1.366-.756.242-.438.524-.862.64-1.345-.152-.17-.211-.376-.349-.622-.175.146-.244-.003-.4.093-.362-.516-.936.322-1.502.474-.514.138-1.176-.037-1.301-.958-.204.073-.095.257-.284.336-.173.083-.249-.115-.397-.106-.067-.146.007-.242-.034-.379-.399.58-.778-.058-1.352-.141-.747 1.195.254 2.72.851 4.138.415.986.964 1.787 1.637 2.378.84.275 2.257-.328 1.935-1.326C.619 1.197.292.74 0 0" style="fill:#231f20;fill-opacity:1;fill-rule:evenodd;stroke:none;stroke-width:.261906" transform="matrix(1.34696 0 0 -1.34696 69.859 204.192)"/></g><g style="stroke-width:.261906"><path d="M0 0c.037.325.146.862.003 1.136-.245.47-1.54 1.053-2.313 1.359-.546.215-1.227.564-1.863.649-.339.044-.814.031-1.178.022-.715-.021-1.397-.227-1.578-1.023C-5.824 1.093-3.862.515-2.306-.375c.581-.331 1.219-.822 1.886-.808.285.317.374.76.42 1.183m-9.143 1.033c-.207-.025-.199-.183-.294-.404-.255.34-.243-.067-.518.052-.707.305-.216 1.497-.015 2.232C-8.646 4.627-7.349 6.42-5.484 6.59c.154-.288.564-.353.847-.605.149-.13.188-.348.326-.452.238-.177.591-.203.882-.325 1.065-.443 2.416-.996 3.613-1.639 1.063-.568 1.909-1.119 2.122-1.86-.09-1.036-.621-2.257-.964-3.343-.075-.235-.075-.525-.208-.739-.397-.643-1.221-.442-1.558-1.083-.382-.119-.784.008-.943.405-.185.083-.312.002-.479.033C-3.329-1.657-5.559-.833-7.592-.059c-.625.238-1.128.663-1.551 1.092" style="fill:#231f20;fill-opacity:1;fill-rule:evenodd;stroke:none;stroke-width:.261906" transform="matrix(1.34696 0 0 -1.34696 62.943 213.453)"/></g><g style="stroke-width:.261906"><path d="M0 0a2.236 2.236 0 1 0-4.472 0A2.236 2.236 0 0 0 0 0" style="fill:#231f20;fill-opacity:1;fill-rule:evenodd;stroke:none;stroke-width:.261906" transform="matrix(1.34696 0 0 -1.34696 208.858 180.932)"/></g><g style="stroke-width:.261906"><path d="M0 0a2.236 2.236 0 1 0-4.472 0A2.236 2.236 0 0 0 0 0" style="fill:#231f20;fill-opacity:1;fill-rule:evenodd;stroke:none;stroke-width:.261906" transform="matrix(1.34696 0 0 -1.34696 30.222 180.932)"/></g><g style="stroke-width:.261906"><path d="m0 0 7.797 3.529c1.26.57 2.654 1.524 1.844 3.311-.229.507-.819 1.173-1.76 1.213-.772.01-1.679-.365-2.317-.654l-7.398-3.348-.621 1.37 7.861 3.558c1.148.52 2.429.83 3.58.454 1.37-.439 1.929-1.46 2.293-2.264.243-.536.612-1.859-.224-3.153-.68-1.043-1.597-1.566-2.649-2.042L.688-1.519Z" style="fill:#231f20;fill-opacity:1;fill-rule:nonzero;stroke:none;stroke-width:.261906" transform="matrix(1.34696 0 0 -1.34696 11.704 168.089)"/></g><g style="stroke-width:.261906"><path d="m0 0-.575 2.045 7.008 5.583c.017.005 1.085.797 1.097.818.197.14 1.081.745 1.266.865-.009.031-.001.067-.01.099-.085.044-.102.039-.27-.009-.186-.051-1.01-.351-1.179-.398-.766-.25-1.406-.429-1.827-.547l-7.311-2.053-.372 1.321 12.365 3.472.566-2.013L3.67 3.56a34.255 34.255 0 0 0-2.367-1.666c-.012-.021.001-.068-.011-.089.11-.07.127-.066.211-.042.354.099 2.185.698 2.269.722l8.221 2.308.372-1.321z" style="fill:#231f20;fill-opacity:1;fill-rule:nonzero;stroke:none;stroke-width:.261906" transform="matrix(1.34696 0 0 -1.34696 5.965 154.151)"/></g><g style="stroke-width:.261906"><path d="m0 0-.152 1.002-10.417-1.58.152-1.002-1.159-.176-.568 3.733 1.16.176.16-1.05 10.416 1.58-.159 1.05 1.124.17L1.125.17z" style="fill:#231f20;fill-opacity:1;fill-rule:nonzero;stroke:none;stroke-width:.261906" transform="matrix(1.34696 0 0 -1.34696 17.446 135.045)"/></g><g style="stroke-width:.261906"><path d="m0 0 12.964-3.404.061-1.797L.321-9.544.262-7.795l10.059 3.353c.052.018.102.068.101.117-.002.05-.074.113-.109.128L.055-1.618Z" style="fill:#231f20;fill-opacity:1;fill-rule:nonzero;stroke:none;stroke-width:.261906" transform="matrix(1.34696 0 0 -1.34696 0 114.781)"/></g><g style="stroke-width:.261906"><path d="m0 0 .828 7.41 1.566-.174-.638-5.704 3.705-.413.471 4.209 1.618-.18L7.083.971l4.262-.474.668 5.98 1.618-.181-.863-7.718z" style="fill:#231f20;fill-opacity:1;fill-rule:nonzero;stroke:none;stroke-width:.261906" transform="matrix(1.34696 0 0 -1.34696 .35 108.784)"/></g><g style="stroke-width:.261906"><path d="m0 0 4.112-1.086c.251.88.552 2.019.576 2.655.014.673-.078 1.763-1.465 2.129C1.768 4.083.882 3.336.422 1.597Zm-1.882-1.228.945 3.573c.857 3.24 3.139 3.382 4.409 3.047 2.335-.618 2.58-2.222 2.66-3.359l6.539 1.52-.502-1.897L5.925.363l-.472-1.786 5.516-1.458-.43-1.628z" style="fill:#231f20;fill-opacity:1;fill-rule:nonzero;stroke:none;stroke-width:.261906" transform="matrix(1.34696 0 0 -1.34696 5.36 90.11)"/></g><g style="stroke-width:.261906"><path d="M0 0c-1.312-.048-2.321-.189-2.862-1.469-.286-.678-.294-1.864.85-2.348 1.064-.451 1.871.202 2.201.488L2.182-1.58c.352.294 1.179.903 2.246 1.001.332.02.885.07 1.755-.298 1.111-.471 1.871-1.236 2.216-2.217.456-1.258.075-2.162-.173-2.749-.287-.678-.987-1.66-2.004-2.135-.928-.441-1.638-.46-2.31-.478l-.327 1.701c1.084-.086 2.573.154 3.203 1.645.394.934.208 2.202-1.081 2.748-.548.232-1.323.329-2.377-.592L1.552-4.509C.943-5.051.01-5.597-.797-5.663c-.354-.028-.962.016-1.784.364-1.788.757-2.447 2.705-1.715 4.437.713 1.687 2.124 2.509 4.022 2.505z" style="fill:#231f20;fill-opacity:1;fill-rule:nonzero;stroke:none;stroke-width:.261906" transform="matrix(1.34696 0 0 -1.34696 14.747 70.494)"/></g><g style="stroke-width:.261906"><path d="m0 0 .497.884-9.186 5.162-.497-.883-1.022.574 1.85 3.292 1.023-.574-.521-.927L1.33 2.366l.521.926.991-.557L.992-.557Z" style="fill:#231f20;fill-opacity:1;fill-rule:nonzero;stroke:none;stroke-width:.261906" transform="matrix(1.34696 0 0 -1.34696 27.606 69.854)"/></g><g style="stroke-width:.261906"><path d="m0 0 1.321-.949L-.71-3.777l9.106-6.543-1.001-1.394-9.106 6.544-2.041-2.842-1.322.95z" style="fill:#231f20;fill-opacity:1;fill-rule:nonzero;stroke:none;stroke-width:.261906" transform="matrix(1.34696 0 0 -1.34696 25.524 44.185)"/></g><g style="stroke-width:.261906"><path d="m0 0 3.656-3.497-1.219-1.275-3.593 3.436-8.503 2.481 1.355 1.417 5.545-1.8c.073-.025.843-.308.867-.309l.193-.026.079.083c-.059.192-.402.972-.46 1.14l-2.002 5.353 1.186 1.24z" style="fill:#231f20;fill-opacity:1;fill-rule:nonzero;stroke:none;stroke-width:.261906" transform="matrix(1.34696 0 0 -1.34696 41.076 42.607)"/></g><g style="stroke-width:.261906"><path d="M0 0c-.855-.574-.954-1.568-.565-2.762.24-.767.766-1.784 1.518-2.903.908-1.35 2.998-4.079 4.735-2.913 1.411.947.908 2.866-.908 5.568C3.833-1.601 1.777 1.193 0 0m3.822.669c.933-.744 1.855-1.938 2.353-2.679 1.709-2.542 3.115-6.068.429-7.872-2.442-1.639-5.132.37-7.046 3.217-1.094 1.627-1.846 3.273-1.931 4.629C-2.502-.057-1.619.768-.887 1.26c1.682 1.13 3.443.414 4.709-.591" style="fill:#231f20;fill-opacity:1;fill-rule:nonzero;stroke:none;stroke-width:.261906" transform="matrix(1.34696 0 0 -1.34696 53.075 21.423)"/></g><g style="stroke-width:.261906"><path d="m0 0 6.628 3.255.718-1.46L2.258-.704l1.714-3.485 3.666 1.8.718-1.46L4.69-5.65l2.517-5.119-1.54-.755z" style="fill:#231f20;fill-opacity:1;fill-rule:nonzero;stroke:none;stroke-width:.261906" transform="matrix(1.34696 0 0 -1.34696 61.73 13.995)"/></g><g style="stroke-width:.261906"><path d="M0 0c-.312.519-1.043 1.727-2.361 1.407-.413-.101-1.563-.56-1.623-2.735-.037-1.161.372-2.844.385-2.895.327-1.343.78-2.583 1.513-3.521.901-1.149 1.871-.985 2.205-.904a2.22 2.22 0 0 1 1.426 1.12c.434.916.304 1.587.133 2.427l-2.256-.548-.384 1.581 3.796.922 1.46-6-.572-.139-.555.693c-.222.288-.362.38-.458.357a.37.37 0 0 1-.185-.135 3.775 3.775 0 0 0-.192-.317c-.248-.366-.848-1.286-2.087-1.587-.477-.116-1.541-.374-2.844.695-1.443 1.162-2.273 3.462-2.611 4.856-.352 1.445-.596 3.348-.18 4.818.528 1.91 1.89 2.601 2.574 2.767C-.831 3.345.728 2.193 1.426.707z" style="fill:#231f20;fill-opacity:1;fill-rule:nonzero;stroke:none;stroke-width:.261906" transform="matrix(1.34696 0 0 -1.34696 92.879 7.041)"/></g><g style="stroke-width:.261906"><path d="m0 0 .459-5.036-1.758-.16-.451 4.949-4.783 7.454 1.954.178 2.999-4.999c.039-.066.433-.786.451-.802L-1 1.438l.113.01c.082.183.336.997.404 1.161l2.007 5.348 1.71.155z" style="fill:#231f20;fill-opacity:1;fill-rule:nonzero;stroke:none;stroke-width:.261906" transform="matrix(1.34696 0 0 -1.34696 108.743 10.927)"/></g><g style="stroke-width:.261906"><path d="m0 0 7.445-.404-.085-1.572-5.731.31-.201-3.721 4.228-.229-.088-1.625-4.196.228-.231-4.281 6.007-.326-.087-1.624-7.755.42z" style="fill:#231f20;fill-opacity:1;fill-rule:nonzero;stroke:none;stroke-width:.261906" transform="matrix(1.34696 0 0 -1.34696 118.955 .03)"/></g><g style="stroke-width:.261906"><path d="M0 0c-1.01.199-1.785-.433-2.355-1.551-.374-.711-.723-1.802-.983-3.123-.315-1.597-.771-5.003 1.282-5.407 1.668-.328 2.672 1.382 3.302 4.575C1.574-3.841 2.101-.414 0 0m3.175-2.23c.133-1.186-.062-2.681-.235-3.556-.593-3.005-2.097-6.489-5.272-5.863-2.887.568-3.364 3.89-2.7 7.254C-4.653-2.472-4.019-.778-3.118.24-1.808 1.729-.6 1.688.266 1.517 2.254 1.125 2.992-.625 3.175-2.23" style="fill:#231f20;fill-opacity:1;fill-rule:nonzero;stroke:none;stroke-width:.261906" transform="matrix(1.34696 0 0 -1.34696 139.7 4.11)"/></g><g style="stroke-width:.261906"><path d="m0 0 2.001-.712.514-8.953c-.006-.016.025-1.346.034-1.368a75.75 75.75 0 0 0-.024-1.533c.031-.011.056-.038.086-.05.085.044.091.061.15.226.064.182.296 1.028.354 1.193.239.77.462 1.396.608 1.809l2.543 7.159 1.293-.46-4.301-12.108-1.97.701-.5 9.041a34.74 34.74 0 0 0 .005 2.896c-.009.022-.055.038-.064.06-.122-.049-.128-.066-.157-.148-.123-.347-.691-2.189-.72-2.271l-2.86-8.049-1.293.46z" style="fill:#231f20;fill-opacity:1;fill-rule:nonzero;stroke:none;stroke-width:.261906" transform="matrix(1.34696 0 0 -1.34696 151.424 5.038)"/></g><g style="stroke-width:.261906"><path d="M0 0c.116.594.383 1.981-.81 2.625-.374.203-1.535.631-3.036-.944C-4.651.843-5.475-.682-5.5-.728c-.657-1.216-1.151-2.44-1.235-3.628-.1-1.457.729-1.985 1.03-2.148a2.217 2.217 0 0 1 1.809-.123c.936.39 1.289.975 1.725 1.714L-4.212-3.81l.773 1.432 3.436-1.856-2.936-5.435-.518.279.052.887c.029.362-.013.524-.099.571a.373.373 0 0 1-.229.024c-.091-.03-.249-.084-.355-.107-.429-.106-1.491-.387-2.612.219-.431.233-1.394.753-1.645 2.42-.293 1.829.633 4.093 1.315 5.356.707 1.309 1.8 2.886 3.093 3.699 1.671 1.066 3.146.667 3.764.333 1.797-.971 2.182-2.87 1.705-4.442z" style="fill:#231f20;fill-opacity:1;fill-rule:nonzero;stroke:none;stroke-width:.261906" transform="matrix(1.34696 0 0 -1.34696 172.903 19.054)"/></g><g style="stroke-width:.261906"><path d="m0 0 1.694-1.281-2.209-8.69a43.663 43.663 0 0 1-.38-1.315 68.757 68.757 0 0 0-.485-1.454c.026-.02.042-.054.068-.073.094.016.104.03.21.169.117.154.592.892.698 1.031.46.662.861 1.193 1.125 1.542l4.582 6.059 1.095-.828-7.751-10.248-1.668 1.262 2.249 8.769c.292 1.118.774 2.487.878 2.76-.002.024-.042.053-.044.077-.131-.01-.142-.025-.194-.094-.222-.294-1.318-1.879-1.371-1.949l-5.153-6.813-1.094.828z" style="fill:#231f20;fill-opacity:1;fill-rule:nonzero;stroke:none;stroke-width:.261906" transform="matrix(1.34696 0 0 -1.34696 183.53 20.496)"/></g><g style="stroke-width:.261906"><path d="m0 0 3.369 5.925c.013.036.027.072-.007.107s-.084.01-.12-.002l-5.921-3.276Zm-.736-1.377-3.306 3.398L-6.485.692l-1.219 1.254L4.204 8.129l1.31-1.348L-.865-5.085l-1.22 1.254z" style="fill:#231f20;fill-opacity:1;fill-rule:nonzero;stroke:none;stroke-width:.261906" transform="matrix(1.34696 0 0 -1.34696 194.585 45.523)"/></g><g style="stroke-width:.261906"><path d="m0 0 8.013 9.033c.034.043.058.1.021.154-.037.054-.141.082-.227.022l-9.604-6.595-.768 1.118 10.584 7.269 1.417-2.062-6.774-7.746c-.069-.087-.084-.157-.047-.211A.197.197 0 0 1 2.87.92l9.613 3.586 1.435-2.088L3.334-4.851l-.768 1.119 9.545 6.555c.087.06.093.143.065.184-.036.054-.102.088-.193.065L.778-1.132Z" style="fill:#231f20;fill-opacity:1;fill-rule:nonzero;stroke:none;stroke-width:.261906" transform="matrix(1.34696 0 0 -1.34696 199.061 60.01)"/></g><g style="stroke-width:.261906"><path d="m0 0 .752-1.987-6.497-6.181c-.016-.006-1.01-.89-1.021-.911a73.54 73.54 0 0 0-1.186-.973c.012-.031.007-.067.019-.098.088-.036.105-.03.268.032.181.068.976.439 1.14.501.741.315 1.363.551 1.773.706l7.106 2.688.485-1.284-12.017-4.547-.74 1.957 6.572 6.227a34.86 34.86 0 0 0 2.213 1.869c.01.021-.007.067.004.088-.117.061-.133.055-.215.024-.344-.13-2.116-.888-2.198-.919l-7.99-3.023-.486 1.284z" style="fill:#231f20;fill-opacity:1;fill-rule:nonzero;stroke:none;stroke-width:.261906" transform="matrix(1.34696 0 0 -1.34696 224.915 70.73)"/></g><g style="stroke-width:.261906"><path d="m0 0 6.012 3.208c.03.022.062.046.051.094-.01.048-.064.053-.102.062l-6.753.394Zm-1.357-.771-.978 4.637-2.775.182-.361 1.712L7.895 4.624l.388-1.839-11.73-6.62-.361 1.711z" style="fill:#231f20;fill-opacity:1;fill-rule:nonzero;stroke:none;stroke-width:.261906" transform="matrix(1.34696 0 0 -1.34696 220.919 97.8)"/></g><g style="stroke-width:.261906"><path d="m0 0 11.605 3.356c.052.018.103.053.101.118-.003.066-.076.145-.181.14L-.121 3.167l-.052 1.355 12.835.493.096-2.498-9.87-2.93c-.104-.036-.154-.087-.152-.152a.199.199 0 0 1 .182-.19l10.045-2.099.098-2.531L.226-5.878.173-4.523l11.577.445c.104.004.154.071.152.12-.002.065-.039.129-.128.159L.053-1.372Z" style="fill:#231f20;fill-opacity:1;fill-rule:nonzero;stroke:none;stroke-width:.261906" transform="matrix(1.34696 0 0 -1.34696 216.955 112.403)"/></g><g style="stroke-width:.261906"><path d="m0 0-.226-1.651-5.338.728-.58-4.242 5.339-.728-.226-1.651-12.723 1.735.226 1.652 5.859-.8.579 4.242-5.859.799.226 1.652z" style="fill:#231f20;fill-opacity:1;fill-rule:nonzero;stroke:none;stroke-width:.261906" transform="matrix(1.34696 0 0 -1.34696 233.973 128.12)"/></g><g style="stroke-width:.261906"><path d="m0 0 6.812-.048c.038.006.076.011.09.058.014.047-.032.078-.061.103l-5.747 3.57zm-1.561-.03 1.35 4.544-2.352 1.485.499 1.676L9.141.299l-.535-1.802-13.463-.224.498 1.677Z" style="fill:#231f20;fill-opacity:1;fill-rule:nonzero;stroke:none;stroke-width:.261906" transform="matrix(1.34696 0 0 -1.34696 217.597 149.74)"/></g><g style="stroke-width:.261906"><path d="m0 0-3.152-6.756-1.427.666 2.427 5.2L-5.529.687-7.32-3.151l-1.474.689 1.776 3.807-3.884 1.813-2.543-5.452-1.475.688 3.283 7.038z" style="fill:#231f20;fill-opacity:1;fill-rule:nonzero;stroke:none;stroke-width:.261906" transform="matrix(1.34696 0 0 -1.34696 225.406 162.453)"/></g></g></svg>