<svg xmlns="http://www.w3.org/2000/svg" xml:space="preserve" width="499.7189" height="500.00003" viewBox="0 0 499.7189 500.00004"><path d="M155.544 311.262C69.627 311.262 0 241.595 0 155.631 0 69.668 69.627 0 155.544 0c85.913 0 155.543 69.668 155.543 155.631 0 85.964-69.63 155.631-155.543 155.631z" style="fill:#db1f26;fill-opacity:1;fill-rule:nonzero;stroke:none;stroke-width:.1" transform="matrix(1.60636 0 0 -1.60636 0 500)"/><path d="M155.544 5.298c-83.066 0-150.25 67.221-150.25 150.333s67.184 150.537 150.25 150.537c83.063 0 150.251-67.425 150.251-150.537 0-83.112-67.188-150.333-150.251-150.333" style="fill:#fff;fill-opacity:1;fill-rule:nonzero;stroke:none;stroke-width:.1" transform="matrix(1.60636 0 0 -1.60636 0 500)"/><path d="M97.52 141.371a57.485 57.485 0 0 0-1.832 14.464c0 18.537 8.551 35.037 21.58 45.833-2.443 2.242-7.737 5.094-14.659.408-1.016-.612-2.443-.816-3.665-.408-.203.204-9.365 3.871-16.285-3.055-2.85-2.851-3.87-4.889-4.886-6.723-1.426-3.259-3.055-5.704-7.534-8.147 2.24-4.684 2.035-7.539 1.425-11.204-.408-2.037-.815-4.277-.204-8.15 1.63-9.777 10.995-12.22 11.402-12.22 1.222-.204 2.24-1.224 2.85-2.445 2.85-7.537 8.55-8.557 11.808-8.353zm118.288-21.388c2.239 8.353-2.243 12.425-5.092 14.055-8.144-20.777-27.892-35.852-51.1-37.684.815-3.055 3.46-8.353 11.605-8.557 1.425 0 2.442-.815 3.054-1.833.203-.408 5.496-8.759 15.268-7.13 3.868.612 5.903 1.63 7.738 2.648 3.257 1.63 5.903 2.854 10.993 2.04.813 5.089 2.85 7.33 5.291 9.777 1.629 1.63 3.258 3.258 5.092 6.722 4.479 8.758-1.834 16.294-2.036 16.498-1.018 1.019-1.221 2.242-.813 3.464zM99.964 133.632c-2.852-1.63-6.923-5.909-4.683-13.853.406-1.018 0-2.445-.815-3.464-.203-.203-6.515-7.536-2.036-16.498 1.833-3.463 3.462-5.094 4.886-6.518 2.648-2.649 4.478-4.89 5.497-9.982 4.887.815 7.738-.408 10.995-2.039 1.831-1.018 3.867-2.036 7.737-2.648 9.77-1.425 14.861 6.722 15.064 7.13.613 1.02 1.833 1.833 3.055 1.833 8.348.408 10.993 5.502 11.807 8.76-23.412 1.629-43.16 16.499-51.507 37.279zm108.106 22.203c0 29.131-23.617 52.76-52.729 52.76-29.113 0-52.935-23.629-52.935-52.76 0-29.129 23.822-52.759 52.935-52.759 29.112 0 52.729 23.63 52.729 52.759zm-43.365 38.704 1.427 4.684 2.849-4.074h4.682l-2.85-3.665 1.425-4.686-4.477 1.631-3.872-2.853v4.89l-3.867 2.85zm-20.563-46.445h22.6c.813 0 1.425-.611 1.425-1.425v-1.63c0-.815-.612-1.629-1.425-1.629h-22.6c-.814 0-1.424.814-1.424 1.629v1.63c0 .814.61 1.425 1.424 1.425zm-.204 5.297v1.629c0 .815.816 1.426 1.628 1.426h19.749c.817 0 1.629-.611 1.629-1.426v-1.629c0-.816-.812-1.63-1.629-1.63h-19.749c-.812 0-1.628.814-1.628 1.63zm24.025 6.723h-25.042c-.815 0-1.628.813-1.628 1.629v1.629c0 .813.813 1.426 1.628 1.426h25.042c.812 0 1.629-.613 1.629-1.426v-1.629c0-.816-.817-1.629-1.629-1.629zm-25.857-20.372h26.669c.817 0 1.427-.611 1.427-1.426v-1.629c0-.816-.61-1.631-1.427-1.631h-26.669c-.813 0-1.425.815-1.425 1.631v1.629c0 .815.612 1.426 1.425 1.426zm25.857 33.407c.812 0 1.629-.61 1.629-1.425v-1.63c0-.815-.817-1.629-1.629-1.629h-25.042c-.815 0-1.628.814-1.628 1.629v1.63c0 .815.813 1.425 1.628 1.425zm-25.653 22 2.849 4.074 1.427-4.684 4.682-1.223-3.869-2.85v-4.89l-3.867 2.853-4.48-1.631 1.426 4.686-2.851 3.665zm-5.292-65.184c0 .814.813 1.426 1.628 1.426h33.592c.814 0 1.629-.612 1.629-1.426v-1.629c0-.817-.815-1.63-1.629-1.63h-33.592c-.815 0-1.628.813-1.628 1.63zm-2.241-8.352c0 .814.612 1.425 1.425 1.425h38.479c.815 0 1.425-.611 1.425-1.425v-1.63c0-.816-.61-1.629-1.425-1.629h-38.479c-.813 0-1.425.813-1.425 1.629zm-13.844 29.332-3.868 2.855-4.48-1.631 1.426 4.685-2.851 3.666h4.683l2.849 4.074 1.427-4.684 4.684-1.223-3.87-2.852zm7.329 21.188-3.867 2.85-4.683-1.63 1.629 4.482-3.054 3.871h4.887l2.645 4.072 1.629-4.683 4.683-1.427-4.072-2.852zm49.473-60.501c0-.817-.61-1.631-1.426-1.631h-41.736c-.813 0-1.425.814-1.425 1.631v1.424c0 1.019.612 1.631 1.425 1.631h41.736c.816 0 1.426-.612 1.426-1.631zm1.427 68.036 4.681 1.427 1.629 4.683 2.646-4.072h4.887l-3.054-3.871 1.629-4.482-4.683 1.63-3.869-2.85.204 4.683zm7.328-20.981 4.682 1.223 1.425 4.684 2.849-4.074h4.685l-2.85-3.666 1.423-4.685-4.478 1.631-3.869-2.855v4.89zm-31.149 56.834c11.603 0 22.597-3.464 31.76-9.372 1.221 3.058 2.442 9.168-4.277 14.462-1.016.816-1.425 2.04-1.425 3.261.205.408.815 10.184-7.939 14.667-3.462 1.833-5.699 2.038-7.942 2.444-3.663.408-6.512 1.224-10.177 4.685-3.666-3.461-6.516-4.277-9.978-4.685-2.238-.406-4.478-.611-7.94-2.444-8.754-4.483-8.143-14.259-8.143-14.667.204-1.221-.204-2.445-1.221-3.261-6.718-5.294-5.497-11.202-4.276-14.258 9.161 5.704 19.952 9.168 31.558 9.168zm.203 51.538c-61.485 0-111.366-49.91-111.366-111.224 0-61.52 49.88-111.427 111.366-111.427 61.484 0 111.161 49.907 111.161 111.427 0 61.314-49.677 111.224-111.161 111.224zm94.059-82.91c-.205-.202-.408-.406-.408-.814-3.257-4.888-3.053-6.315-2.443-9.369.408-2.242.814-5.501 0-10.594-1.831-11.816-10.994-16.295-15.064-17.723-2.85-6.111-6.923-9.166-11.2-10.593 2.648-3.665 4.073-8.554 2.85-15.073 2.445-3.668 7.331-12.835 1.835-23.426-2.241-4.482-4.685-6.925-6.313-8.556-2.239-2.037-3.257-3.055-3.666-9.167v-.813l-.202-.204-.202-.408-.204-.408V76.8l-.407-.204-.205-.205-.203-.204-.406-.204-.204-.204s-.204-.204-.408-.204c-.408-.204-1.019-.204-1.425-.204-.204 0-.612 0-.814.204-5.701 1.427-7.126.816-9.773-.61-2.037-1.222-5.089-2.65-9.975-3.46-11.81-1.836-18.935 5.497-21.582 8.96-6.718.814-10.994 3.872-13.64 7.537-2.648-3.665-6.923-6.925-13.641-7.74-2.647-3.462-9.772-10.797-21.582-8.962-5.089.812-7.938 2.239-9.974 3.463-2.85 1.424-4.074 2.037-9.978.608-1.425-.406-3.053.204-3.866 1.225l-.204.406-.204.204c-.203.408-.203 1.018-.407 1.425-.204 6.112-1.222 7.13-3.46 9.371-1.833 1.631-4.074 3.87-6.312 8.353-5.498 10.592-.612 19.758 1.83 23.425-1.424 6.519.205 11.408 2.852 15.075-4.276 1.425-8.551 4.481-11.197 10.592-4.074 1.427-13.438 5.907-15.27 17.723-.815 5.093-.203 8.351.205 10.593.405 3.054.813 4.685-2.444 9.573-.408.612-.613 1.427-.613 2.241v.61c0 .204.205.409.205.612.408 1.018 1.223 1.631 2.036 2.037 5.7 2.241 6.312 3.464 7.736 6.314 1.018 2.039 2.443 5.094 6.109 8.761 8.347 8.351 18.527 6.519 22.6 5.297 5.903 3.257 11.195 3.257 15.472 2.036 0 4.482 1.628 9.368 6.513 13.852 0 4.483 1.425 14.667 12.217 19.963 4.479 2.443 7.736 2.851 10.179 3.259 2.85.406 4.479.61 8.144 5.296h.204c0 .204.202.408.406.612h.204c0 .202.204.202.408.409h.203l.408.202h.406l.408.202h.611l.202-.202c.612 0 1.222-.202 1.832-.611.204-.204.408-.612.612-.816 3.666-4.482 5.294-4.686 8.144-5.092 2.443-.408 5.7-.816 10.179-3.259 10.586-5.296 12.012-15.48 12.215-19.963 4.885-4.484 6.514-9.37 6.514-13.852 4.277 1.427 9.571 1.427 15.474-1.834 4.274 1.224 14.253 3.055 22.802-5.499 3.665-3.667 5.091-6.519 6.106-8.761 1.225-2.647 2.037-4.073 7.535-6.11.203-.204.611-.204.815-.408.814-.407 1.22-1.221 1.425-2.036v-.205l.204-.408v-.406c0-.406 0-1.019-.204-1.427zm-16.491 7.741c-1.019 2.039-1.832 4.074-4.681 6.723-7.128 7.13-16.086 3.463-16.494 3.259-1.017-.408-2.442-.408-3.46.408-7.33 4.686-12.623 1.426-15.066-.612 13.03-10.998 21.379-27.5 21.379-45.833 0-4.89-.611-9.779-1.629-14.26 3.257-.204 9.162.408 12.214 8.354.408 1.22 1.427 2.036 2.647 2.442.409 0 9.977 2.241 11.606 12.223.406 3.871.2 5.908-.204 8.149-.611 3.665-.817 6.517 1.425 11-4.479 2.443-6.108 4.888-7.737 8.147" style="fill:#db1f26;fill-opacity:1;fill-rule:nonzero;stroke:none;stroke-width:.1" transform="matrix(1.60636 0 0 -1.60636 0 500)"/><path d="m62.299 82.909-5.293-12.833 5.293.202 6.312 5.296 3.053-3.867L50.897 54.39l-3.053 3.667 8.957 7.74-14.657-.813-3.87 4.48 13.64.612 6.72 17.314 3.665-4.481M43.568 91.872l9.57 5.5 2.442-4.277-9.57-5.502-10.178-14.461-2.647 4.685 7.126 9.369-11.808-1.425-2.648 4.685 17.713 1.426M45.807 114.075c1.833-4.889-.405-10.186-5.7-12.019l-16.695-6.11-1.628 4.684 16.49 5.908c2.85 1.018 4.073 3.26 3.258 5.908-1.017 2.444-3.258 3.463-6.311 2.444l-16.49-6.111-1.63 4.686 16.695 5.906c5.293 2.038 10.382-.61 12.01-5.296M39.09 141.371l-14.864-12.427 16.492 2.447.814-4.685-26.875-4.279-.609 4.482 14.861 12.222-16.287-2.444-.815 4.888 26.671 4.074.612-4.278M36.035 165.816c2.239-2.037 2.851-4.481 2.851-7.129-.204-2.852-1.222-5.092-3.258-6.722-2.85-2.445-6.108-2.241-10.79-2.036-4.683.203-8.145.203-10.79 2.85-1.833 1.833-2.646 4.075-2.646 6.927.202 5.704 4.478 8.556 8.957 9.167l-.204-5.094c-2.442-.407-3.87-1.832-4.071-4.277 0-1.427.61-2.445 1.425-3.259 1.018-1.019 2.239-1.223 7.532-1.427 5.09-.204 6.516 0 7.533.815 1.018.815 1.63 1.833 1.63 3.26 0 1.425-.408 2.648-1.426 3.463-1.019.815-2.037 1.221-3.462 1.221H28.3l-.203-4.481h-4.48l.407 9.575h3.868c3.868-.204 6.312-1.02 8.145-2.853M31.759 183.539l-1.018-4.888 9.977-2.039-1.22-4.888-26.266 5.907 2.037 9.575c1.221 5.093 5.7 7.333 10.18 6.314 4.479-1.018 7.533-4.889 6.31-9.981zm-11.808 2.239-1.017-4.48 7.125-1.426 1.02 4.481c.405 2.037-.612 3.871-2.853 4.278-2.034.408-3.867-.611-4.275-2.853M47.844 207.17c1.017-2.447 1.22-4.89.203-7.539-1.22-2.647-3.054-4.074-5.496-5.092-3.461-1.223-6.515.204-10.792 2.037-4.275 1.629-7.533 3.055-8.958 6.314-1.221 2.445-1.221 4.89-.204 7.539 1.224 2.647 3.055 4.276 5.499 5.092 3.46 1.222 6.515 0 10.79-1.833 4.274-1.835 7.532-3.055 8.958-6.518zm-18.324 3.665c-1.017-.202-2.036-1.018-2.442-2.24-.611-1.223-.611-2.446 0-3.464.61-1.425 1.831-2.036 6.514-4.074 4.886-2.037 6.108-2.241 7.533-1.834 1.019.204 2.036 1.02 2.443 2.241.61 1.426.408 2.65 0 3.464-.611 1.425-1.832 2.242-6.515 4.279-4.886 1.831-6.108 2.238-7.533 1.628M59.245 225.909c.61-2.648.407-4.89-1.222-7.333-1.629-2.444-3.664-3.667-6.31-4.075-3.666-.611-6.311 1.224-10.384 3.871-3.868 2.445-6.718 4.279-7.533 7.945-.61 2.445-.408 4.89 1.22 7.333 1.63 2.443 3.666 3.667 6.313 4.075 3.664.611 6.31-1.224 10.384-3.871 3.867-2.647 6.717-4.482 7.532-7.945zm-17.305 6.926c-1.222 0-2.24-.61-3.054-1.834-.612-1.018-.815-2.443-.408-3.463.408-1.424 1.222-2.24 5.7-5.092 4.277-2.85 5.498-3.464 6.923-3.258 1.22.202 2.24.815 3.054 1.831.611 1.224.815 2.445.408 3.464-.408 1.426-1.222 2.444-5.702 5.296-4.275 2.854-5.496 3.259-6.921 3.056M75.327 239.964l-13.232 3.668.612-5.093 5.904-5.704-3.462-3.463-19.342 18.537 3.257 3.669 8.552-8.151-2.444 14.464 4.277 4.482 2.035-13.65L79.4 244.04l-4.074-4.076M98.944 257.077l-17.305 8.961 8.756-14.259-4.277-2.443-14.046 23.018 3.664 2.239 17.1-8.961-8.548 14.26 4.07 2.444 14.251-23.019-3.665-2.24M120.119 266.446l-3.054 3.872-8.347-3.259.204-4.89-4.683-1.833-1.019 28.519 3.665 1.424 18.119-22.204zm-12.217 15.686.612-10.389 5.7 2.24-6.312 8.149M131.927 292.114l4.275-22-4.887-.815-4.274 21.796-6.516-1.223-.813 4.686 17.711 3.463 1.019-4.686-6.515-1.221M145.363 271.336l-2.035 27.093 4.885.203 2.037-26.889-4.887-.407M169.998 273.983c-1.831-1.833-4.072-2.647-6.922-2.445-2.849 0-5.09 1.225-6.719 3.261-2.238 2.851-2.034 6.314-1.832 11 .204 4.684.408 7.944 3.054 10.591 2.037 1.835 4.276 2.65 7.126 2.446 2.85 0 4.887-1.222 6.516-3.259 2.442-2.852 2.239-6.314 1.831-11.001-.203-4.481-.406-7.942-3.054-10.593zm-2.645 18.539c-.611 1.016-1.629 1.629-3.056 1.629-1.221.203-2.442-.408-3.258-1.224-1.017-1.017-1.221-2.24-1.628-7.536-.203-5.093 0-6.314.816-7.537.61-1.018 1.833-1.629 3.053-1.629 1.425-.205 2.444.409 3.258 1.221 1.017 1.018 1.425 2.242 1.629 7.538.406 5.091.202 6.519-.814 7.538M190.561 266.854l-5.7 18.741-4.07-16.094-4.685 1.223 6.516 26.074 4.275-1.017 5.7-18.538 4.072 16.092 4.683-1.221-6.718-26.278-4.073 1.018M211.937 258.093l.612 4.89-8.144 3.871-3.258-3.665-4.682 2.239 19.749 20.575 3.461-1.834-3.054-28.315zm2.853 19.761-7.128-7.536 5.703-2.651 1.425 10.187M217.843 254.836l15.676 22 4.072-2.853-13.03-18.333 9.366-6.52-2.647-3.868-13.437 9.574M244.106 232.225c-3.461 3.868-3.461 9.37.815 13.239l13.232 11.816 3.258-3.667-13.03-11.61c-2.239-2.039-2.646-4.686-.815-6.723 1.832-1.834 4.278-2.038 6.719.204l13.03 11.611 3.258-3.668-13.234-11.814c-4.275-3.87-9.773-3.259-13.233.612M260.393 209.207l9.162 17.11-14.251-8.353-2.444 4.279 23.21 13.648 2.24-3.87-9.162-16.908 14.249 8.351 2.446-4.276-23.21-13.649-2.24 3.668M264.058 201.26l25.043 10.185 1.832-4.479-24.838-10.186-2.037 4.48M270.165 183.743l-1.017 3.463 23.82 15.278 1.424-4.889-15.676-9.575 18.324-.204 1.425-4.889-28.3.816M272.608 173.966l26.875 2.85 1.629-16.5-4.684-.61-1.221 11.61-6.311-.612 1.017-9.777-4.681-.611-1.018 9.982-6.516-.612 1.221-11.815-4.682-.407-1.629 16.502M273.221 140.761l11.197 4.074.204 3.463-10.791.814.406 4.888 27.077-2.035-.814-9.778c-.406-5.092-4.274-7.945-8.753-7.537-3.867.204-6.108 2.648-6.923 5.092l-12.011-4.686zm22.596 2.037.409 4.685-7.125.611-.409-4.684c-.202-2.243 1.221-3.668 3.258-3.872 2.238-.203 3.665 1.223 3.867 3.26M270.165 125.685c1.019 3.667 2.648 6.317 5.905 7.947l2.445-3.871c-2.037-1.019-3.055-3.055-3.666-5.296-.816-2.852 0-4.686 2.037-5.094 1.015-.406 1.83-.204 2.441.204.611.204 1.018.816 1.425 1.834l1.221 2.852c.816 2.037 2.037 3.462 3.462 4.279 1.426.812 3.257.812 5.498.404 4.682-1.221 7.124-5.294 5.903-10.59-1.019-3.464-2.444-5.502-5.089-7.131l-2.442 3.872c1.829 1.017 2.645 2.851 3.052 4.48.611 2.648-.61 4.277-2.444 4.686-.608.204-1.423.204-2.033-.205-.612-.406-1.225-1.018-1.629-2.035l-1.019-2.854c-1.018-2.037-2.037-3.258-3.259-4.072-1.628-1.02-3.663-1.02-6.107-.408-5.089 1.222-6.922 5.907-5.701 10.998M266.907 113.669l25.043-9.983-1.832-4.48-25.042 9.777 1.831 4.686M278.515 85.76l-19.751 10.594 2.444 4.276 19.544-10.59 3.258 5.906 4.072-2.24-8.552-15.89-4.07 2.241 3.055 5.704M257.135 73.945l-8.754 6.723 2.85 4.074 8.959-6.72 17.305-3.669-3.258-4.277-11.604 2.852 5.903-10.39-3.258-4.276-8.143 15.683M134.167 19.556l-2.444-9.37-4.072 1.02 2.036 7.943-19.136 5.094 1.017 3.46 9.365-2.648.815 2.853-10.994 2.852.814 3.258 26.263-6.924-.813-3.055-11.199 2.85-.815-2.85 7.94-2.039s1.629-.408 1.223-2.444M115.232 35.445l21.581-5.702 2.851 10.998-4.071 1.02-.613-2.241-15.064 3.868.609 2.243-4.071 1.018-2.24-9.167s-.61-1.629 1.018-2.037zm18.935.817-.407-2.04-15.27 3.872.611 2.24 15.066-4.072M146.992 15.685h9.57v3.464h-8.145V35.24h7.533v3.667h-11.604V18.333s-.204-2.648 2.646-2.648M166.334 30.76h-3.868v8.352h-4.072V14.87h4.072v12.224h3.868V14.87h4.07v24.242h-4.07V30.76M230.262 39.316l-5.089 9.166-3.666-2.035 5.295-9.169-4.074-2.443-5.291 9.166-3.463-2.037 5.091-9.166-4.683-2.65 1.832-3.054 24.635 14.055-1.833 3.055-8.754-4.888" style="fill:#db1f26;fill-opacity:1;fill-rule:nonzero;stroke:none;stroke-width:.1" transform="matrix(1.60636 0 0 -1.60636 0 500)"/><path d="m228.431 58.262 6.31-11.002-3.665-2.038-5.701 9.983-17.713-9.983-1.833 3.058 19.344 10.998s2.037 1.223 3.258-1.016M202.37 27.298l-20.971-5.502 1.017-3.259 18.53 4.685 2.034-7.537 3.868 1.223-2.24 9.37c-.61 1.63-2.238 1.02-2.238 1.02zm-1.629 13.035-1.831 6.927-3.87-1.017 4.479-17.521 4.072 1.021-1.832 7.129 3.46 1.017-.814 3.26zm-18.729-2.851c-2.85-1.833-4.479-4.888-3.666-7.739 1.018-3.668 5.091-5.704 9.162-4.688 4.072 1.02 6.718 4.89 5.699 8.557-.812 2.854-3.868 4.89-7.327 4.89l-.206.814 6.108 1.629-.814 3.463-6.107-1.628-.61 2.036-3.868-1.02.61-2.036-5.701-1.427.814-3.461 5.906 1.63.202-1.02zm2.849-2.647c2.036.61 4.071-.408 4.478-2.24.408-1.835-.813-3.668-2.646-4.077-2.036-.61-4.071.409-4.479 2.242-.406 1.834.814 3.667 2.647 4.075M101.998 26.483c1.833 3.87-.813 8.962-6.106 11.406-5.294 2.444-10.995 1.223-12.624-2.444-1.833-3.667 1.02-8.76 6.107-11.202 5.295-2.447 10.994-1.427 12.623 2.24zm-11.197.611c-3.054 1.424-4.885 4.481-3.868 6.518 1.018 2.037 4.48 2.65 7.533 1.223 2.646-1.223 5.09-4.075 3.87-6.52-1.224-2.444-4.887-2.444-7.535-1.22M100.369 53.372l-11.4 5.296-1.424-2.852 8.55-4.073c-.203-.408-.814-1.021-1.63-2.038-4.682-4.889-11.603-2.854-11.603-2.854l-1.426-2.85c14.456-4.481 19.341 7.944 19.341 7.944.612 1.02-.408 1.427-.408 1.427zm7.942-3.261-1.426-2.85-5.7 2.647-1.63-3.057 5.905-2.85-1.018-2.24-6.107 2.851-1.426-3.259 5.904-2.65-1.628-3.868 3.868-1.63 7.126 15.075-3.868 1.83" style="fill:#db1f26;fill-opacity:1;fill-rule:nonzero;stroke:none;stroke-width:.1" transform="matrix(1.60636 0 0 -1.60636 0 500)"/></svg>