<svg xmlns="http://www.w3.org/2000/svg" width="339.89322mm" height="339.89484mm" viewBox="0 0 339.89322 339.89484"><defs><radialGradient id="a" cx="0" cy="0" r="1" fx="0" fy="0" gradientTransform="scale(-206.96682) rotate(-45 -2.97 3.278)" gradientUnits="userSpaceOnUse" spreadMethod="pad"><stop offset="0" style="stop-opacity:1;stop-color:#008fd4"/><stop offset="0.5" style="stop-opacity:1;stop-color:#0071bc"/><stop offset="1" style="stop-opacity:1;stop-color:#004085"/></radialGradient><radialGradient id="b" cx="0" cy="0" r="1" fx="0" fy="0" gradientTransform="matrix(122.40129 -122.40128 122.40129 122.40129 542.625 365.866)" gradientUnits="userSpaceOnUse" spreadMethod="pad"><stop offset="0" style="stop-opacity:1;stop-color:#008fd4"/><stop offset="0.5" style="stop-opacity:1;stop-color:#0071bc"/><stop offset="1" style="stop-opacity:1;stop-color:#002a64"/></radialGradient><radialGradient id="c" cx="0" cy="0" r="1" fx="0" fy="0" gradientTransform="scale(-206.85944) rotate(-45 -2.973 3.279)" gradientUnits="userSpaceOnUse" spreadMethod="pad"><stop offset="0" style="stop-opacity:1;stop-color:#008fd4"/><stop offset="0.5" style="stop-opacity:1;stop-color:#0071bc"/><stop offset="1" style="stop-opacity:1;stop-color:#004085"/></radialGradient><radialGradient id="d" cx="0" cy="0" r="1" fx="0" fy="0" gradientTransform="scale(130.73316) rotate(-45 5.447 -3.746)" gradientUnits="userSpaceOnUse" spreadMethod="pad"><stop offset="0" style="stop-opacity:1;stop-color:#fff"/><stop offset="0.25" style="stop-opacity:1;stop-color:#fff"/><stop offset="1" style="stop-opacity:1;stop-color:#939598"/></radialGradient><linearGradient id="f" x1="0" x2="1" y1="0" y2="0" gradientTransform="translate(548.188 270.765) scale(90.0137)" gradientUnits="userSpaceOnUse" spreadMethod="pad"><stop offset="0" style="stop-opacity:1;stop-color:#ba006f"/><stop offset="0.21558751" style="stop-opacity:1;stop-color:#ba006f"/><stop offset="0.5" style="stop-opacity:1;stop-color:#ec008c"/><stop offset="0.71558751" style="stop-opacity:1;stop-color:#ec008c"/><stop offset="1" style="stop-opacity:1;stop-color:#ba006f"/></linearGradient><linearGradient id="h" x1="0" x2="1" y1="0" y2="0" gradientTransform="matrix(40.28207 -91.76685 91.76686 40.28207 571.5 369.577)" gradientUnits="userSpaceOnUse" spreadMethod="pad"><stop offset="0" style="stop-opacity:1;stop-color:#0071bc"/><stop offset="0.43117502" style="stop-opacity:1;stop-color:#0071bc"/><stop offset="1" style="stop-opacity:1;stop-color:#004085"/></linearGradient><linearGradient id="j" x1="0" x2="1" y1="0" y2="0" gradientTransform="matrix(-34.3345 0 0 -34.3345 593.094 335.108)" gradientUnits="userSpaceOnUse" spreadMethod="pad"><stop offset="0" style="stop-opacity:1;stop-color:#008fd4"/><stop offset="1" style="stop-opacity:1;stop-color:#004085"/></linearGradient><linearGradient id="k" x1="0" x2="1" y1="0" y2="0" gradientTransform="matrix(34.0563 0 0 34.0563 593.39 335.17)" gradientUnits="userSpaceOnUse" spreadMethod="pad"><stop offset="0" style="stop-opacity:1;stop-color:#008fd4"/><stop offset="1" style="stop-opacity:1;stop-color:#004085"/></linearGradient><clipPath id="e" clipPathUnits="userSpaceOnUse"><path d="M0 .001h793.7V481.89H0Z"/></clipPath><clipPath id="g" clipPathUnits="userSpaceOnUse"><path d="M0 .001h793.7V481.89H0Z"/></clipPath><clipPath id="i" clipPathUnits="userSpaceOnUse"><path d="M0 .001h793.7V481.89H0Z"/></clipPath><clipPath id="l" clipPathUnits="userSpaceOnUse"><path d="M0 .001h793.7V481.89H0Z"/></clipPath></defs><g style="stroke-width:.216533"><g style="stroke-width:.216533"><path d="M488.906 315.092c0-57.612 46.701-104.314 104.311-104.314 57.614 0 104.314 46.702 104.314 104.314 0 57.61-46.7 104.312-104.314 104.312-57.61 0-104.311-46.702-104.311-104.312" style="fill:url(#a);stroke:none;stroke-width:.216533" transform="matrix(1.6292 0 0 -1.6292 -796.529 683.296)"/></g><g style="stroke-width:.216533"><path d="M491.449 315.092c0-56.205 45.563-101.768 101.768-101.768 56.206 0 101.768 45.563 101.768 101.768 0 56.206-45.562 101.768-101.768 101.768-56.205 0-101.768-45.562-101.768-101.768" style="fill:url(#b);stroke:none;stroke-width:.216533" transform="matrix(1.6292 0 0 -1.6292 -796.529 683.296)"/></g><g style="stroke-width:.216533"><path d="M519.438 315.017c0-40.748 33.031-73.782 73.779-73.782 40.752 0 73.783 33.034 73.783 73.782 0 40.75-33.031 73.782-73.783 73.782-40.748 0-73.779-33.032-73.779-73.782" style="fill:url(#c);stroke:none;stroke-width:.216533" transform="matrix(1.6292 0 0 -1.6292 -796.529 683.296)"/></g><g style="stroke-width:.216533"><path d="M521.978 315.017c0-39.344 31.897-71.238 71.239-71.238 39.345 0 71.238 31.894 71.238 71.238s-31.893 71.238-71.238 71.238c-39.342 0-71.239-31.894-71.239-71.238" style="fill:url(#d);stroke:none;stroke-width:.216533" transform="matrix(1.6292 0 0 -1.6292 -796.529 683.296)"/></g><g clip-path="url(#e)" style="stroke-width:.216533" transform="matrix(1.6292 0 0 -1.6292 -796.529 683.296)"><g style="stroke-width:.216533"><path d="M0 0a2.023 2.023 0 0 1-2.04 2.013c-1.108 0-2.028-.907-2.028-2.013 0-1.133.92-2.013 2.028-2.013C-.902-2.013 0-1.133 0 0" style="fill:#002a64;fill-opacity:1;fill-rule:nonzero;stroke:none;stroke-width:.216533" transform="translate(525.463 261.043)"/></g><g style="stroke-width:.216533"><path d="M0 0a2.024 2.024 0 0 1-2.04 2.012c-1.108 0-2.026-.908-2.026-2.012 0-1.133.918-2.013 2.026-2.013C-.903-2.013 0-1.133 0 0" style="fill:#002a64;fill-opacity:1;fill-rule:nonzero;stroke:none;stroke-width:.216533" transform="translate(668.09 261.043)"/></g><g style="stroke-width:.216533"><path d="m0 0-.59-11.748c-.149-3.017.762-4.051 2.817-4.154 2.003-.101 3.039.836 3.188 3.851l.591 11.75 3.515-.177-.589-11.748c-.243-4.788-3.244-6.512-6.84-6.331-3.619.183-6.424 2.197-6.184 6.984l.59 11.751z" style="fill:#002a64;fill-opacity:1;fill-rule:nonzero;stroke:none;stroke-width:.216533" transform="translate(596.021 410.262)"/></g><g style="stroke-width:.216533"><path d="m0 0 3.896-1.231 1.744-15.2.048-.015 4.208 13.32 2.978-.942-5.361-16.97-3.919 1.239L1.843-4.694l-.052.017-4.184-13.233-2.968.94z" style="fill:#002a64;fill-opacity:1;fill-rule:nonzero;stroke:none;stroke-width:.216533" transform="translate(616.945 408.112)"/></g><g style="stroke-width:.216533"><path d="m0 0 2.998-1.697-8.784-15.524-3.001 1.696z" style="fill:#002a64;fill-opacity:1;fill-rule:nonzero;stroke:none;stroke-width:.216533" transform="translate(639.581 399.407)"/></g><g style="stroke-width:.216533"><path d="m0 0 3.107-2.066-4.47-13.598.049-.033 10.91 9.314 2.966-1.976-14.706-11.713-3.042 2.021z" style="fill:#002a64;fill-opacity:1;fill-rule:nonzero;stroke:none;stroke-width:.216533" transform="translate(649.509 392.099)"/></g><g style="stroke-width:.216533"><path d="m0 0 6.277-7.557-1.993-1.654-4.086 4.92-3.628-3.012 3.862-4.654-1.994-1.654-3.859 4.653-4.023-3.341 4.257-5.129-1.993-1.654-6.448 7.767z" style="fill:#002a64;fill-opacity:1;fill-rule:nonzero;stroke:none;stroke-width:.216533" transform="translate(668.28 376.457)"/></g><g style="stroke-width:.216533"><path d="M0 0c.841-1.625 2.21-2.308 3.814-1.478 1.81.936 1.739 2.172.851 3.891l-.644 1.243-4.664-2.413Zm4.664 7.855 2.69-5.201C8.882-.3 8.659-2.959 5.76-4.461 3.701-5.523 1.613-4.875.381-3.157L.31-3.194c.233-.665.321-1.5-.879-2.786l-4.898-5.286-1.682 3.249 4.291 4.3c1.034 1.05 1.034 2.049.453 3.169l-.358.694-6.791-3.513-1.577 3.05z" style="fill:#002a64;fill-opacity:1;fill-rule:nonzero;stroke:none;stroke-width:.216533" transform="translate(675.686 350.309)"/></g><g style="stroke-width:.216533"><path d="M0 0a8.415 8.415 0 0 1-.239-4.293C.094-5.829 1.189-7.017 3.01-6.624c1.297.278 1.698 1.194 2.216 3.081l.547 1.985C6.356.54 7.518 2.08 9.854 2.583c3.245.699 5.545-1.761 6.233-4.964.437-2.023.249-3.552.206-4.132l-2.808-.437c.132.91.348 2.139.001 3.757-.379 1.747-1.447 2.46-2.698 2.19-1.347-.291-1.661-1.356-1.999-2.547l-.651-2.282c-.714-2.508-1.624-3.822-4.172-4.371-3.685-.794-6.044 1.589-6.83 5.229-.414 1.914-.476 3.455-.134 4.527z" style="fill:#002a64;fill-opacity:1;fill-rule:nonzero;stroke:none;stroke-width:.216533" transform="translate(674.517 332.597)"/></g><g style="stroke-width:.216533"><path d="m0 0-.112-3.439-17.84.587.113 3.438z" style="fill:#002a64;fill-opacity:1;fill-rule:nonzero;stroke:none;stroke-width:.216533" transform="translate(690.888 311.778)"/></g><g style="stroke-width:.216533"><path d="m0 0 1.214 3.995 2.48-.752L.278-8.014l-2.48.754 1.205 3.966-14.498 4.398.999 3.294z" style="fill:#002a64;fill-opacity:1;fill-rule:nonzero;stroke:none;stroke-width:.216533" transform="translate(685.595 293.335)"/></g><g style="stroke-width:.216533"><path d="m0 0 12.029-.371-1.816-3.241-8.016.289 4.538-6.498-1.819-3.245-6.669 10.091L-7.933.49l1.69 3.008z" style="fill:#002a64;fill-opacity:1;fill-rule:nonzero;stroke:none;stroke-width:.216533" transform="translate(672.337 279.117)"/></g><g style="stroke-width:.216533"><path d="m0 0-2.585-1.24 4.818-10.026 2.584 1.241-2.229 4.637 2.058.989-.944 1.958-2.053-.987z" style="fill:#002a64;fill-opacity:1;fill-rule:nonzero;stroke:none;stroke-width:.216533" transform="translate(629.361 244.782)"/></g><g style="stroke-width:.216533"><path d="M0 0c1.126.543 2.654-.296 3.412-1.875.758-1.577.46-3.295-.667-3.837-1.13-.542-2.653.3-3.411 1.877C-1.426-2.256-1.131-.541 0 0m3.62-7.532A5.186 5.186 0 0 1 6.043-.611a5.137 5.137 0 0 1-2.452 2.435l1.593.764-.127.266-.06.125-.744 1.544-3.935-1.89-.441.918-2.573-1.237.44-.918-3.937-1.891.929-1.935 1.591.765a5.16 5.16 0 0 1 .37-3.438A5.189 5.189 0 0 1 3.62-7.532" style="fill:#002a64;fill-opacity:1;fill-rule:nonzero;stroke:none;stroke-width:.216533" transform="translate(620.992 237.877)"/></g><g style="stroke-width:.216533"><path d="m0 0 11.297 5.426L13.68.465l2.5 1.2-3.329 6.928L-.946 1.966z" style="fill:#002a64;fill-opacity:1;fill-rule:nonzero;stroke:none;stroke-width:.216533" transform="translate(622.05 224.656)"/></g><g style="stroke-width:.216533"><path d="M0 0h-.005v-4.646h-1.851v4.635h-2.872v-9.711h-6.302v7.531h4.427v2.18h-7.349V-12.44h9.224v-8.055h2.872v13.579h1.851v-13.579H2.86V-.011H0Z" style="fill:#002a64;fill-opacity:1;fill-rule:nonzero;stroke:none;stroke-width:.216533" transform="translate(600.214 236.932)"/></g><g style="stroke-width:.216533"><path d="m0 0-5.511 6.521-2.042-1.726 5.512-6.52-1.624-1.374-.001.004-.01-.008-5.509 6.518-2.041-1.726 5.51-6.517-.042-.034.003-.004-2.284-1.93 1.31-1.547L5.813 2.261 4.505 3.808Z" style="fill:#002a64;fill-opacity:1;fill-rule:nonzero;stroke:none;stroke-width:.216533" transform="translate(658.723 244.464)"/></g><g style="stroke-width:.216533"><path d="m0 0 2.087 1.764-8.786 10.392-10.578-8.945 1.312-1.555 8.494 7.182z" style="fill:#002a64;fill-opacity:1;fill-rule:nonzero;stroke:none;stroke-width:.216533" transform="translate(658.25 247.352)"/></g><g style="stroke-width:.216533"><path d="M0 0c-1.32 1.156-1.426 3.084-.234 4.318 1.183 1.231 3.21 1.297 4.528.143 1.314-1.154 1.425-3.089.237-4.319C3.342-1.093 1.316-1.152 0 0m7.787 1.883C7.574 3.367 6.842 4.652 5.6 5.742 4.344 6.843 2.93 7.433 1.371 7.503c-1.557.072-2.811-.384-3.756-1.364-.947-.984-1.317-2.212-1.107-3.686.205-1.474.941-2.767 2.199-3.869 1.243-1.088 2.651-1.67 4.217-1.75 1.563-.081 2.821.371 3.77 1.354.943.982 1.308 2.216 1.093 3.695" style="fill:#002a64;fill-opacity:1;fill-rule:nonzero;stroke:none;stroke-width:.216533" transform="translate(530.904 241.928)"/></g><g style="stroke-width:.216533"><path d="M0 0c.75-.487 1.704-.954 2.869-1.404a12.363 12.363 0 0 1 3.945-.785 10.66 10.66 0 0 1 3.745.521c.391.128.776.299 1.152.493l3.074-2.692-1.137-1.181-2.959 2.59-1.348-1.4 2.957-2.592L9.73-9.117l2.132-1.867 7.771 8.068-2.134 1.867-1.359-1.413-2.775 2.429c.219.19.436.389.647.606.272.284.705.818.705.818l-7.254 6.35-.408-.425-.981-1.019-.104-.108 4.986-4.364c-.538-.598-3.149-2.907-8.282-1.033-.641.236-1.307.545-2.017.932Z" style="fill:#002a64;fill-opacity:1;fill-rule:nonzero;stroke:none;stroke-width:.216533" transform="translate(528.975 254.505)"/></g><g style="stroke-width:.216533"><path d="m0 0 11.254-5.149L9.16-9.726l2.497-1.143 2.991 6.541L.902 1.966Z" style="fill:#002a64;fill-opacity:1;fill-rule:nonzero;stroke:none;stroke-width:.216533" transform="translate(552.844 231.827)"/></g><g style="stroke-width:.216533"><path d="m0 0 .711 1.551 8.492-3.887-.711-1.552Zm4.432-4.367 5.804-2.657 3.33 7.272-2.632 1.205-.868-1.901-8.489 3.886.868 1.899-2.631 1.205-3.328-7.271 5.802-2.656-.7-1.528-6.693 3.064-.872-1.9L9.559-10.86l.871 1.9-6.699 3.065z" style="fill:#002a64;fill-opacity:1;fill-rule:nonzero;stroke:none;stroke-width:.216533" transform="translate(559.377 239.151)"/></g><g style="stroke-width:.216533"><path d="m0 0-1.422 3.127 6.851 3.112-.036.072-9.058 1.752-1.63 3.583L4.954 9.322l5.701 10.129 1.72-3.784-5.27-8.579.033-.071 7.6 3.45 1.42-3.125z" style="fill:#002a64;fill-opacity:1;fill-rule:nonzero;stroke:none;stroke-width:.216533" transform="translate(510.48 267.819)"/></g><g style="stroke-width:.216533"><path d="m0 0-9.082-7.836-.855 3.612L-3.859.963l-7.709 1.709-.856 3.606L-.726 3.364l6.873 1.628.794-3.348z" style="fill:#002a64;fill-opacity:1;fill-rule:nonzero;stroke:none;stroke-width:.216533" transform="translate(512.66 294.412)"/></g><g style="stroke-width:.216533"><path d="m0 0 11.732-.415c3.012-.106 4.032.82 4.104 2.871.071 2.002-.879 3.02-3.891 3.127L.212 6l.124 3.505 11.734-.416c4.784-.168 6.545-3.13 6.416-6.727-.129-3.616-2.095-6.447-6.878-6.278L-.124-3.5Z" style="fill:#002a64;fill-opacity:1;fill-rule:nonzero;stroke:none;stroke-width:.216533" transform="translate(498.709 313.093)"/></g><g style="stroke-width:.216533"><path d="m0 0 1.209 3.835 14.924 1.726.013.046-13.082 4.12.918 2.92 16.67-5.249-1.211-3.849L4.61 1.825l-.018-.054 13.001-4.095-.921-2.924Z" style="fill:#002a64;fill-opacity:1;fill-rule:nonzero;stroke:none;stroke-width:.216533" transform="translate(500.684 334.601)"/></g><g style="stroke-width:.216533"><path d="m0 0 2.986 5.067L10.745.496c-.075-1.048-.527-2.644-1.727-4.683C6.061-9.208 1.256-9.976-3.146-7.383-7.547-4.791-9.204-.219-6.244 4.804c1.055 1.794 2.272 2.979 2.883 3.43l2.349-1.594c-1.078-.61-2.19-1.638-3.039-3.075-1.796-3.051-.374-6.084 2.703-7.897 3.339-1.967 6.4-1.628 8.125 1.305.397.673.623 1.349.703 1.825L3.489 1.149 2.087-1.23Z" style="fill:#002a64;fill-opacity:1;fill-rule:nonzero;stroke:none;stroke-width:.216533" transform="translate(518.746 359.735)"/></g><g style="stroke-width:.216533"><path d="m0 0 1.217 1.458C2.4 2.875 2.238 4.333.973 5.39c-1.188.991-2.634 1.079-3.985-.536l-1.149-1.378Zm-5.989 5.001 1.135 1.357c1.075 1.288.791 2.816-.314 3.74-1.149.96-2.548.668-3.596-.587l-1.081-1.29zm-7.806 2.202 3.496 4.183c2.472 2.962 4.647 3.431 6.942 1.515 2.158-1.802 1.603-3.775 1.154-4.987l.035-.03c1.152.904 3.23 1.883 5.498-.012 2.477-2.069 2.232-5.094.109-7.635l-3.65-4.372z" style="fill:#002a64;fill-opacity:1;fill-rule:nonzero;stroke:none;stroke-width:.216533" transform="translate(535.71 369.457)"/></g><g style="stroke-width:.216533"><path d="M0 0c1.843 1.151 2.388 3.563-.198 7.703-2.583 4.136-4.987 4.7-6.829 3.55-1.843-1.15-2.39-3.56.193-7.698C-4.25-.581-1.843-1.15 0 0m-8.349 13.369c3.293 2.057 7.78 1.615 11.157-3.791C6.187 4.167 4.612-.056 1.319-2.112-1.977-4.169-6.456-3.73-9.836 1.681c-3.378 5.405-1.808 9.631 1.487 11.688" style="fill:#002a64;fill-opacity:1;fill-rule:nonzero;stroke:none;stroke-width:.216533" transform="translate(551.534 382.562)"/></g><g style="stroke-width:.216533"><path d="m0 0 3.213 1.272L6.006-5.78l.074.03 2.219 9.038 3.687 1.461L9.134-5.456l9.925-6.242-3.895-1.545-8.383 5.732-.076-.031 3.098-7.823-3.213-1.273Z" style="fill:#002a64;fill-opacity:1;fill-rule:nonzero;stroke:none;stroke-width:.216533" transform="translate(558.564 402.825)"/></g><g style="stroke-width:.216533"><path d="M0 0a2.024 2.024 0 0 1-2.04 2.013c-1.11 0-2.03-.907-2.03-2.013 0-1.131.92-2.013 2.03-2.013C-.904-2.013 0-1.131 0 0" style="fill:#fff;fill-opacity:1;fill-rule:nonzero;stroke:none;stroke-width:.216533" transform="translate(523.938 262.06)"/></g><g style="stroke-width:.216533"><path d="M0 0a2.023 2.023 0 0 1-2.042 2.012c-1.108 0-2.026-.907-2.026-2.012 0-1.131.918-2.013 2.026-2.013C-.902-2.013 0-1.131 0 0" style="fill:#fff;fill-opacity:1;fill-rule:nonzero;stroke:none;stroke-width:.216533" transform="translate(666.565 262.06)"/></g><g style="stroke-width:.216533"><path d="m0 0-.59-11.748c-.15-3.017.76-4.051 2.817-4.155 2.004-.1 3.039.837 3.189 3.854l.588 11.75L9.52-.477l-.59-11.749c-.242-4.788-3.242-6.512-6.838-6.33-3.621.182-6.426 2.197-6.185 6.985L-3.504.178z" style="fill:#fff;fill-opacity:1;fill-rule:nonzero;stroke:none;stroke-width:.216533" transform="translate(594.496 411.279)"/></g><g style="stroke-width:.216533"><path d="m0 0 3.896-1.233 1.743-15.199.047-.015 4.21 13.319 2.978-.941-5.363-16.97-3.919 1.238-1.75 15.105-.051.018-4.184-13.233-2.972.94z" style="fill:#fff;fill-opacity:1;fill-rule:nonzero;stroke:none;stroke-width:.216533" transform="translate(615.42 409.13)"/></g><g style="stroke-width:.216533"><path d="m0 0 2.998-1.697-8.785-15.524-3 1.696z" style="fill:#fff;fill-opacity:1;fill-rule:nonzero;stroke:none;stroke-width:.216533" transform="translate(638.055 400.424)"/></g><g style="stroke-width:.216533"><path d="m0 0 3.106-2.067-4.468-13.595.049-.033L9.596-6.381l2.967-1.978-14.709-11.713-3.041 2.023z" style="fill:#fff;fill-opacity:1;fill-rule:nonzero;stroke:none;stroke-width:.216533" transform="translate(647.981 393.116)"/></g><g style="stroke-width:.216533"><path d="m0 0 6.275-7.557-1.992-1.655L.199-4.293l-3.628-3.012 3.86-4.653-1.992-1.654-3.86 4.652-4.023-3.339 4.256-5.131-1.992-1.653-6.448 7.767z" style="fill:#fff;fill-opacity:1;fill-rule:nonzero;stroke:none;stroke-width:.216533" transform="translate(666.754 377.475)"/></g><g style="stroke-width:.216533"><path d="M0 0c.841-1.625 2.208-2.309 3.813-1.478 1.812.936 1.74 2.172.85 3.89l-.642 1.243-4.665-2.412Zm4.662 7.855 2.692-5.2C8.882-.301 8.659-2.959 5.76-4.46 3.699-5.524 1.613-4.875.379-3.157l-.068-.037c.231-.666.319-1.5-.882-2.786l-4.898-5.286-1.681 3.248 4.29 4.302c1.035 1.049 1.035 2.048.456 3.169l-.361.693-6.791-3.514-1.577 3.051z" style="fill:#fff;fill-opacity:1;fill-rule:nonzero;stroke:none;stroke-width:.216533" transform="translate(674.16 351.326)"/></g><g style="stroke-width:.216533"><path d="M0 0a8.398 8.398 0 0 1-.237-4.293c.331-1.535 1.429-2.724 3.248-2.331 1.297.278 1.697 1.194 2.215 3.082l.548 1.984C6.357.541 7.519 2.08 9.855 2.583c3.244.7 5.545-1.76 6.234-4.962.438-2.025.248-3.552.206-4.134l-2.81-.437c.132.911.349 2.14.003 3.758-.379 1.746-1.446 2.459-2.699 2.189C9.441-1.294 9.127-2.359 8.79-3.55l-.652-2.282c-.713-2.508-1.621-3.822-4.171-4.371-3.686-.794-6.045 1.588-6.831 5.229-.412 1.916-.475 3.457-.132 4.528z" style="fill:#fff;fill-opacity:1;fill-rule:nonzero;stroke:none;stroke-width:.216533" transform="translate(672.99 333.614)"/></g><g style="stroke-width:.216533"><path d="m0 0-.111-3.438-17.839.588.111 3.436z" style="fill:#fff;fill-opacity:1;fill-rule:nonzero;stroke:none;stroke-width:.216533" transform="translate(689.361 312.795)"/></g><g style="stroke-width:.216533"><path d="m0 0 1.215 3.996 2.481-.753L.279-8.014l-2.478.754 1.202 3.966-14.496 4.398 1 3.295z" style="fill:#fff;fill-opacity:1;fill-rule:nonzero;stroke:none;stroke-width:.216533" transform="translate(684.067 294.353)"/></g><g style="stroke-width:.216533"><path d="m0 0 12.029-.37-1.815-3.242-8.017.289 4.538-6.498-1.818-3.244L-1.75-2.974-7.93.491l1.688 3.007Z" style="fill:#fff;fill-opacity:1;fill-rule:nonzero;stroke:none;stroke-width:.216533" transform="translate(670.81 280.134)"/></g><g style="stroke-width:.216533"><path d="m0 0-2.583-1.239 4.818-10.027 2.582 1.241-2.228 4.637 2.057.988-.942 1.96-2.055-.987Z" style="fill:#fff;fill-opacity:1;fill-rule:nonzero;stroke:none;stroke-width:.216533" transform="translate(627.834 245.8)"/></g><g style="stroke-width:.216533"><path d="M0 0c1.127.542 2.655-.298 3.413-1.877.758-1.576.459-3.294-.668-3.835-1.128-.543-2.653.299-3.41 1.875C-1.425-2.257-1.128-.542 0 0m3.619-7.534a5.185 5.185 0 0 1-.026 9.357l1.591.765-.126.266-.06.125-.743 1.543L.32 2.631l-.441.919-2.574-1.237.441-.918-3.937-1.892.927-1.934 1.592.765a5.176 5.176 0 0 1 .369-3.438 5.189 5.189 0 0 1 6.922-2.43" style="fill:#fff;fill-opacity:1;fill-rule:nonzero;stroke:none;stroke-width:.216533" transform="translate(619.465 238.895)"/></g><g style="stroke-width:.216533"><path d="m0 0 11.298 5.427L13.68.466l2.5 1.201-3.328 6.927L-.945 1.966Z" style="fill:#fff;fill-opacity:1;fill-rule:nonzero;stroke:none;stroke-width:.216533" transform="translate(620.523 225.673)"/></g><g style="stroke-width:.216533"><path d="M0 0h-.006v-4.646h-1.853V-.01h-2.87v-9.711h-6.304v7.531h4.429v2.18h-7.35v-12.43h9.225v-8.056h2.87v13.581h1.853v-13.581h2.865V-.01H0Z" style="fill:#fff;fill-opacity:1;fill-rule:nonzero;stroke:none;stroke-width:.216533" transform="translate(598.69 237.948)"/></g><g style="stroke-width:.216533"><path d="m0 0-5.511 6.52-2.042-1.727 5.512-6.519L-3.664-3.1l-.002.005-.01-.009-5.509 6.518-2.042-1.726 5.51-6.518-.04-.034.002-.004-2.284-1.929 1.31-1.546L5.813 2.259 4.506 3.807Z" style="fill:#fff;fill-opacity:1;fill-rule:nonzero;stroke:none;stroke-width:.216533" transform="translate(657.196 245.482)"/></g><g style="stroke-width:.216533"><path d="m0 0 2.087 1.764-8.786 10.392-10.579-8.945 1.313-1.555 8.493 7.182z" style="fill:#fff;fill-opacity:1;fill-rule:nonzero;stroke:none;stroke-width:.216533" transform="translate(656.724 248.37)"/></g><g style="stroke-width:.216533"><path d="M0 0c-1.321 1.157-1.427 3.085-.236 4.319 1.184 1.23 3.211 1.296 4.53.142 1.314-1.152 1.424-3.087.238-4.318C3.342-1.092 1.316-1.151 0 0m7.788 1.884C7.574 3.368 6.842 4.653 5.6 5.742 4.343 6.845 2.931 7.433 1.372 7.504c-1.559.071-2.812-.384-3.756-1.365-.948-.984-1.318-2.211-1.107-3.687.205-1.472.941-2.766 2.199-3.867 1.242-1.089 2.65-1.671 4.217-1.751 1.561-.079 2.82.372 3.769 1.355.944.982 1.308 2.216 1.094 3.695" style="fill:#fff;fill-opacity:1;fill-rule:nonzero;stroke:none;stroke-width:.216533" transform="translate(529.378 242.944)"/></g><g style="stroke-width:.216533"><path d="M0 0c.752-.488 1.705-.955 2.869-1.405 1.23-.467 2.545-.73 3.947-.785 1.247-.054 2.493.12 3.745.521.391.128.776.299 1.15.494l3.076-2.694L13.65-5.05l-2.959 2.591-1.349-1.402 2.957-2.59L9.73-9.118l2.133-1.869 7.77 8.071L17.5-1.05l-1.359-1.413-2.774 2.427c.219.193.435.391.645.608.273.284.705.818.705.818L7.465 7.74l-.409-.426-.981-1.018-.104-.108 4.986-4.364C10.418 1.225 7.809-1.083 2.674.79c-.64.236-1.305.547-2.016.932Z" style="fill:#fff;fill-opacity:1;fill-rule:nonzero;stroke:none;stroke-width:.216533" transform="translate(527.447 255.523)"/></g><g style="stroke-width:.216533"><path d="m0 0 11.252-5.149-2.094-4.576 2.498-1.143 2.992 6.54L.9 1.966Z" style="fill:#ec008c;fill-opacity:1;fill-rule:nonzero;stroke:none;stroke-width:.216533" transform="translate(551.318 232.845)"/></g><g style="stroke-width:.216533"><path d="m0 0 .71 1.553 8.491-3.887-.711-1.552Zm4.431-4.365 5.805-2.659L13.564.249l-2.63 1.205-.868-1.901-8.49 3.885.869 1.9-2.632 1.205-3.329-7.271 5.802-2.656-.699-1.528-6.694 3.064-.872-1.9 15.538-7.111.869 1.899L3.73-5.894z" style="fill:#ec008c;fill-opacity:1;fill-rule:nonzero;stroke:none;stroke-width:.216533" transform="translate(557.852 240.168)"/></g><g style="stroke-width:.216533"><path d="m0 0-1.421 3.126 6.849 3.113-.034.073-9.059 1.751-1.629 3.584L4.954 9.321l5.702 10.131 1.72-3.785-5.272-8.58.036-.07 7.597 3.45 1.42-3.126z" style="fill:#fff;fill-opacity:1;fill-rule:nonzero;stroke:none;stroke-width:.216533" transform="translate(508.954 268.836)"/></g><g style="stroke-width:.216533"><path d="m0 0-9.081-7.836-.856 3.612L-3.858.963l-7.711 1.711-.856 3.606 11.7-2.916 6.872 1.629.793-3.349z" style="fill:#fff;fill-opacity:1;fill-rule:nonzero;stroke:none;stroke-width:.216533" transform="translate(511.134 295.43)"/></g><g style="stroke-width:.216533"><path d="m0 0 11.732-.415c3.013-.107 4.033.818 4.105 2.87.07 2.001-.879 3.021-3.891 3.128L.212 5.999l.125 3.505 11.732-.416c4.784-.169 6.545-3.13 6.418-6.727-.13-3.616-2.097-6.449-6.879-6.279l-11.732.416z" style="fill:#fff;fill-opacity:1;fill-rule:nonzero;stroke:none;stroke-width:.216533" transform="translate(497.183 314.111)"/></g><g style="stroke-width:.216533"><path d="m0 0 1.207 3.837 14.926 1.725.013.045L3.063 9.728l.917 2.919 16.672-5.249-1.213-3.849-14.83-1.724-.017-.054 13-4.095-.921-2.923z" style="fill:#fff;fill-opacity:1;fill-rule:nonzero;stroke:none;stroke-width:.216533" transform="translate(499.158 335.618)"/></g><g style="stroke-width:.216533"><path d="m0 0 2.986 5.067L10.744.496c-.075-1.048-.527-2.645-1.726-4.682C6.059-9.209 1.255-9.975-3.146-7.382c-4.403 2.591-6.059 7.164-3.1 12.186 1.055 1.794 2.273 2.979 2.885 3.43l2.347-1.594c-1.076-.61-2.189-1.638-3.037-3.075-1.795-3.05-.375-6.084 2.703-7.897C1.988-6.298 5.05-5.959 6.777-3.028c.397.674.623 1.35.703 1.825L3.488 1.15 2.086-1.23Z" style="fill:#fff;fill-opacity:1;fill-rule:nonzero;stroke:none;stroke-width:.216533" transform="translate(517.22 360.753)"/></g><g style="stroke-width:.216533"><path d="m0 0 1.218 1.457c1.184 1.417 1.02 2.876-.245 3.932-1.187.992-2.634 1.08-3.982-.534l-1.152-1.38zm-5.988 5.001 1.134 1.357c1.075 1.288.793 2.816-.312 3.741-1.15.96-2.549.667-3.597-.588L-9.844 8.22Zm-7.805 2.203 3.494 4.182c2.473 2.962 4.648 3.431 6.944 1.514 2.156-1.802 1.603-3.774 1.152-4.987l.036-.029c1.153.903 3.23 1.883 5.499-.012C5.807 5.804 5.563 2.777 3.44.237L-.211-4.135z" style="fill:#ec008c;fill-opacity:1;fill-rule:nonzero;stroke:none;stroke-width:.216533" transform="translate(534.184 370.475)"/></g><g style="stroke-width:.216533"><path d="M0 0c1.844 1.152 2.388 3.563-.197 7.703-2.584 4.136-4.987 4.702-6.83 3.55-1.844-1.15-2.389-3.559.195-7.698C-4.25-.581-1.844-1.15 0 0m-8.349 13.37c3.292 2.056 7.779 1.615 11.156-3.792C6.186 4.167 4.613-.056 1.319-2.112-1.977-4.169-6.457-3.73-9.836 1.681c-3.377 5.405-1.808 9.631 1.487 11.689" style="fill:#ec008c;fill-opacity:1;fill-rule:nonzero;stroke:none;stroke-width:.216533" transform="translate(550.008 383.579)"/></g><g style="stroke-width:.216533"><path d="m0 0 3.214 1.271 2.794-7.052.073.03 2.22 9.039 3.685 1.461L9.134-5.457l9.925-6.241-3.895-1.547-8.383 5.732-.076-.029 3.1-7.825-3.213-1.272z" style="fill:#ec008c;fill-opacity:1;fill-rule:nonzero;stroke:none;stroke-width:.216533" transform="translate(557.037 403.844)"/></g><g style="stroke-width:.216533"><path d="m0 0 2.945 3.355s-8.356 6.788-13.343 20.6l-7.673-9.865S-14.781.984-6.352-5.137z" style="fill:#ec008c;fill-opacity:1;fill-rule:nonzero;stroke:none;stroke-width:.216533" transform="translate(562.95 280.188)"/></g><g style="stroke-width:.216533"><path d="m0 0-2.944 3.355s8.355 6.788 13.342 20.6l7.677-9.865S14.782.984 6.354-5.137z" style="fill:#ec008c;fill-opacity:1;fill-rule:nonzero;stroke:none;stroke-width:.216533" transform="translate(623.483 280.188)"/></g><g style="stroke-width:.216533"><path d="m0 0 8.971-4.005L6.025-7.36l-6.351-5.138Z" style="fill:#8c0051;fill-opacity:1;fill-rule:nonzero;stroke:none;stroke-width:.216533" transform="translate(556.924 287.549)"/></g><g style="stroke-width:.216533"><path d="m0 0-8.97-4.005 2.945-3.355 6.353-5.138z" style="fill:#8c0051;fill-opacity:1;fill-rule:nonzero;stroke:none;stroke-width:.216533" transform="translate(629.509 287.549)"/></g></g><g style="stroke-width:.216533"><path d="M593.217 267.791c-25.298.415-36.293 19.758-36.293 19.758l-8.713-9.727s13.73-23.215 45.006-23.905c31.275.69 45.006 23.905 45.006 23.905l-8.714 9.727s-10.997-19.343-36.292-19.758" style="fill:url(#f);stroke:none;stroke-width:.216533" transform="matrix(1.6292 0 0 -1.6292 -796.529 683.296)"/></g><g clip-path="url(#g)" style="stroke-width:.216533" transform="matrix(1.6292 0 0 -1.6292 -796.529 683.296)"><g style="stroke-width:.216533"><path d="M0 0c.716-.717 1.076-1.076 1.801-1.787A452.927 452.927 0 0 0-.63-6.337c.007-.004.008-.006.013-.011a394.234 394.234 0 0 1 4.062 2.952c.728-.711 1.092-1.065 1.826-1.77a420.462 420.462 0 0 0-4.873-5.647c-.471.457-.703.686-1.169 1.144a413.364 413.364 0 0 1 3.707 4.271l-.012.012a379.71 379.71 0 0 0-4.713-3.288c-.377.371-.565.559-.943.93A591.416 591.416 0 0 1-.006-2.511c-.006.005-.007.01-.015.015A386.583 386.583 0 0 0-3.74-6.741c-.462.459-.693.688-1.155 1.15A386.73 386.73 0 0 1 0 0" style="fill:#fff;fill-opacity:1;fill-rule:nonzero;stroke:none;stroke-width:.216533" transform="translate(560.115 278.873)"/></g><g style="stroke-width:.216533"><path d="m0 0 1.235-.854C1.55.21 1.708.742 2.019 1.804c-.008.005-.01.008-.017.011A603.996 603.996 0 0 0 0 0m2.389 4.077c.572-.395.858-.592 1.436-.985C3.072-.034 2.69-1.597 1.919-4.721c-.597.407-.894.613-1.493 1.024L.804-2.32a200.6 200.6 0 0 0-1.905 1.318 140.23 140.23 0 0 0-1.065-.907L-3.622-.892a382.054 382.054 0 0 1 6.011 4.969" style="fill:#fff;fill-opacity:1;fill-rule:nonzero;stroke:none;stroke-width:.216533" transform="translate(565.03 268.262)"/></g><g style="stroke-width:.216533"><path d="m0 0 1.57-.781.159-5.272.019-.01c.762 1.705 1.141 2.56 1.891 4.266.578-.282.87-.42 1.451-.702a582.618 582.618 0 0 0-3.067-6.936c-.642.31-.96.465-1.6.779C.369-6.526.344-5.459.293-3.33l-.015.009a719.25 719.25 0 0 0-1.946-4.306c-.584.291-.876.435-1.457.728A654.397 654.397 0 0 1 0 0" style="fill:#fff;fill-opacity:1;fill-rule:nonzero;stroke:none;stroke-width:.216533" transform="translate(570.93 269.984)"/></g><g style="stroke-width:.216533"><path d="M0 0a2.452 2.452 0 0 1 .101-.773c.073-.239.189-.444.351-.613.163-.17.373-.289.634-.354.257-.066.498-.06.717.014.218.072.416.199.582.375.172.181.311.393.426.645A4.024 4.024 0 0 1 3.188.937a2.62 2.62 0 0 1-.104.774c-.072.235-.188.44-.35.613a1.334 1.334 0 0 1-.63.349 1.248 1.248 0 0 1-.711-.015 1.383 1.383 0 0 1-.58-.377 2.52 2.52 0 0 1-.427-.639A4.113 4.113 0 0 1 0 0m-.99 2.727c.248.433.552.789.904 1.075.354.284.748.471 1.186.571.433.097.902.087 1.386-.035a3.049 3.049 0 0 0 1.252-.629c.344-.293.617-.656.809-1.07.192-.424.307-.889.342-1.39A5.371 5.371 0 0 0 4.76-.319a5.148 5.148 0 0 0-.555-1.463 3.756 3.756 0 0 0-.904-1.079 2.91 2.91 0 0 0-1.197-.58A3.089 3.089 0 0 0 .697-3.4a3.057 3.057 0 0 0-1.267.631c-.35.3-.619.66-.81 1.085-.188.42-.299.886-.325 1.389a5.383 5.383 0 0 0 .144 1.563c.129.54.32 1.029.571 1.459" style="fill:#fff;fill-opacity:1;fill-rule:nonzero;stroke:none;stroke-width:.216533" transform="translate(579.611 261.403)"/></g><g style="stroke-width:.216533"><path d="M0 0c1.916-.231 2.877-.341 4.801-.554-.067-.632-.098-.949-.161-1.585-1.247.138-1.87.21-3.115.356-.068-.621-.099-.93-.167-1.553 1.08-.127 1.621-.189 2.701-.31-.064-.615-.094-.92-.157-1.534-1.084.121-1.627.184-2.709.313-.128-1.171-.191-1.756-.322-2.927l-1.719.208C-.504-4.551-.336-3.034 0 0" style="fill:#fff;fill-opacity:1;fill-rule:nonzero;stroke:none;stroke-width:.216533" transform="translate(585.729 264.772)"/></g><g style="stroke-width:.216533"><path d="M0 0c1.003.097 1.503.146 2.507.248.635-1.984.957-2.975 1.605-4.954.006 0 .011 0 .018.002.261 2.074.389 3.112.642 5.189 1 .104 1.499.157 2.502.269.307-3.038.461-4.558.778-7.598-.649-.07-.971-.107-1.619-.175-.235 2.309-.349 3.463-.578 5.77-.006-.001-.012-.001-.02-.004-.319-2.368-.484-3.551-.812-5.917a112.65 112.65 0 0 0-1.316-.137 794.9 794.9 0 0 0-1.925 5.634l-.015-.002c.209-2.31.314-3.464.531-5.773-.647-.066-.973-.097-1.625-.159C.4-4.564.264-3.045 0 0" style="fill:#fff;fill-opacity:1;fill-rule:nonzero;stroke:none;stroke-width:.216533" transform="translate(593.552 263.976)"/></g><g style="stroke-width:.216533"><path d="M0 0c.664.157.998.234 1.664.394.646-2.979.977-4.468 1.639-7.446-.675-.161-1.014-.241-1.688-.403A992.252 992.252 0 0 0 0 0" style="fill:#fff;fill-opacity:1;fill-rule:nonzero;stroke:none;stroke-width:.216533" transform="translate(601.55 265.035)"/></g><g style="stroke-width:.216533"><path d="M0 0c.146-.404.346-.66.602-.764.252-.101.57-.092.938.031.276.092.492.234.649.423.159.191.202.41.12.663-.073.237-.235.374-.485.423C1.582.822 1.2.841.708.819A24.18 24.18 0 0 0 .181.798a5.417 5.417 0 0 0-.789.048c-.239.034-.47.103-.692.206a1.807 1.807 0 0 0-.596.45c-.17.2-.305.463-.402.779a2.24 2.24 0 0 0-.076 1.072c.061.333.186.63.376.89.189.261.426.486.697.67.277.185.567.329.871.433.317.108.643.172.965.182.322.009.635-.047.926-.156.295-.112.564-.297.792-.543.233-.249.409-.576.532-.965-.646-.226-.971-.339-1.621-.561-.096.312-.266.505-.502.574-.232.069-.492.055-.773-.04a1.098 1.098 0 0 1-.504-.334c-.125-.15-.153-.333-.088-.549.057-.199.203-.317.435-.354.224-.037.585-.037 1.045-.014.244.012.459.02.623.024.282.006.549-.017.788-.047.235-.03.466-.1.684-.203.218-.106.419-.258.59-.459.173-.197.308-.452.405-.763.141-.44.188-.845.139-1.209a2.177 2.177 0 0 0-.365-.969 2.754 2.754 0 0 0-.737-.709 4.303 4.303 0 0 0-1.002-.48A3.882 3.882 0 0 0 .81-2.438a2.61 2.61 0 0 0-1.017.174c-.32.124-.607.33-.854.614-.243.284-.437.65-.575 1.1.655.217.982.328 1.636.55" style="fill:#fff;fill-opacity:1;fill-rule:nonzero;stroke:none;stroke-width:.216533" transform="translate(606.807 261.2)"/></g><g style="stroke-width:.216533"><path d="M0 0c.189-.379.417-.61.68-.68.265-.07.578-.028.927.147.261.129.457.295.594.503.13.205.151.43.041.668a.574.574 0 0 1-.523.363A5.103 5.103 0 0 1 .605.906 7.233 7.233 0 0 0-.7.769a2.498 2.498 0 0 0-.706.118 1.74 1.74 0 0 0-.637.378c-.195.177-.359.42-.488.721a2.183 2.183 0 0 0 .075 1.986c.159.28.366.532.616.752.248.216.52.397.815.539.3.146.614.244.933.293.318.05.629.036.934-.038a2.07 2.07 0 0 0 .842-.447c.256-.218.469-.512.634-.888-.615-.302-.924-.454-1.543-.754-.129.295-.316.465-.557.505A1.275 1.275 0 0 1-.543 3.8a1.125 1.125 0 0 1-.465-.393c-.105-.165-.116-.353-.025-.561.082-.19.242-.286.473-.298.232-.01.581.038 1.037.119.241.045.447.074.61.097.288.041.549.057.788.054.231-.001.469-.04.697-.116.23-.077.442-.207.634-.381.192-.177.358-.414.491-.71.188-.42.278-.814.27-1.187a2.118 2.118 0 0 0-.25-1.004 2.769 2.769 0 0 0-.648-.794 4.351 4.351 0 0 0-.93-.602 3.87 3.87 0 0 0-1.063-.341 2.552 2.552 0 0 0-1.023.046c-.33.082-.637.25-.913.505-.277.25-.51.589-.695 1.019C-.934-.449-.619-.3 0 0" style="fill:#fff;fill-opacity:1;fill-rule:nonzero;stroke:none;stroke-width:.216533" transform="translate(612.688 263.453)"/></g><g style="stroke-width:.216533"><path d="m0 0 1.472.879a556.607 556.607 0 0 1 3.597-6.634c-.591-.358-.888-.535-1.482-.891A480.777 480.777 0 0 0 0 0" style="fill:#fff;fill-opacity:1;fill-rule:nonzero;stroke:none;stroke-width:.216533" transform="translate(614.661 270.114)"/></g><g style="stroke-width:.216533"><path d="M0 0c.193-.185.4-.33.615-.431.217-.102.439-.146.665-.131.229.016.453.104.662.262.213.157.368.35.457.565.091.223.128.458.113.706a2.595 2.595 0 0 1-.181.758 3.795 3.795 0 0 1-.389.743c-.159.24-.335.456-.527.639a2.288 2.288 0 0 1-.612.433 1.236 1.236 0 0 1-1.319-.126 1.37 1.37 0 0 1-.458-.566 1.572 1.572 0 0 1-.114-.703c.017-.252.072-.503.174-.762A3.868 3.868 0 0 1 0 0m-2.583 1.03a4.03 4.03 0 0 0-.166 1.422c.032.467.158.902.376 1.309.217.407.528.766.934 1.064.406.296.83.485 1.261.56a2.68 2.68 0 0 0 1.283-.084A3.506 3.506 0 0 0 2.3 4.646a5.112 5.112 0 0 0 1.02-1.14c.304-.454.531-.921.677-1.403.148-.478.208-.955.183-1.418a3.15 3.15 0 0 0-.361-1.311 3.166 3.166 0 0 0-.938-1.073 2.986 2.986 0 0 0-1.276-.575 2.746 2.746 0 0 0-1.298.081c-.43.133-.831.355-1.211.665a5.08 5.08 0 0 0-1.02 1.15c-.299.458-.519.93-.659 1.408" style="fill:#fff;fill-opacity:1;fill-rule:nonzero;stroke:none;stroke-width:.216533" transform="translate(620.666 268.475)"/></g><g style="stroke-width:.216533"><path d="m0 0 1.279 1.221A373.152 373.152 0 0 1 5.888-.676c.002.005.006.008.014.012a382.238 382.238 0 0 0-2.958 3.491c.462.452.696.676 1.158 1.129a394.894 394.894 0 0 1 4.826-5.644L7.659-2.934a426.688 426.688 0 0 0-4.675 1.92l-.012-.01a367.633 367.633 0 0 1 3.01-3.534L4.807-5.69A398.6 398.6 0 0 0 0 0" style="fill:#fff;fill-opacity:1;fill-rule:nonzero;stroke:none;stroke-width:.216533" transform="translate(622.28 275.445)"/></g></g><g style="stroke-width:.216533"><path d="M551.781 362.254v-36.372c0-41.248 37.641-53.866 41.436-55.85 3.793 1.984 41.436 14.602 41.436 55.85v36.372s-13.018 7.905-41.436 7.905c-28.422 0-41.436-7.905-41.436-7.905" style="fill:url(#h);stroke:none;stroke-width:.216533" transform="matrix(1.6292 0 0 -1.6292 -796.529 683.296)"/></g><g clip-path="url(#i)" style="stroke-width:.216533" transform="matrix(1.6292 0 0 -1.6292 -796.529 683.296)"><g style="stroke-width:.216533"><path d="M0 0c-4.076 1.772-13.632 5.92-22.246 14.219-10.678 10.285-16.092 23.284-16.092 38.63v34.864c3.752 1.804 16.402 6.927 38.947 6.927 22.536 0 35.191-5.119 38.951-6.927V52.849c0-15.345-5.414-28.345-16.093-38.63C14.85 5.92 5.295 1.772 1.219 0l-.61-.265C.423-.185.223-.095 0 0" style="fill:#fff;fill-opacity:1;fill-rule:nonzero;stroke:none;stroke-width:.216533" transform="translate(592.607 273.033)"/></g></g><g style="stroke-width:.216533"><path d="m558.689 344.557 3.385-3.619 21.483-.927-19.244-1.471 1.791-1.914 19.191-.594-17.418-1.301 2.239-2.397 16.915-.283-15.598-1.128 1.883-2.013h13.524l-5.966-3.191h5.03l3.711 3.191h1.117l-3.268-3.191h4.014l1.739 3.353v10.143l-5.63 5.342z" style="fill:url(#j);stroke:none;stroke-width:.216533" transform="matrix(1.6292 0 0 -1.6292 -796.529 683.296)"/></g><g style="stroke-width:.216533"><path d="m598.846 344.557-5.629-5.342v-10.143l1.74-3.353h4.015l-3.27 3.191h1.115l3.712-3.191h5.035l-5.97 3.191h13.522l1.885 2.013-15.597 1.128 16.917.283 2.238 2.397-17.419 1.301 19.193.594 1.79 1.914-19.25 1.471 21.489.927 3.385 3.619z" style="fill:url(#k);stroke:none;stroke-width:.216533" transform="matrix(1.6292 0 0 -1.6292 -796.529 683.296)"/></g><path d="M593.217 323.977h-20.203v-1.981h20.203z" style="fill:#b2b4b6;fill-opacity:1;fill-rule:nonzero;stroke:none;stroke-width:.216533" transform="matrix(1.6292 0 0 -1.6292 -796.529 683.296)"/><path d="M593.217 323.977h20.42v-1.981h-20.42z" style="fill:#6d6f71;fill-opacity:1;fill-rule:nonzero;stroke:none;stroke-width:.216533" transform="matrix(1.6292 0 0 -1.6292 -796.529 683.296)"/><g style="stroke-width:.216533"><path d="m0 0-4.368 4.533h-8.714L0 8.302Z" style="fill:#ec008c;fill-opacity:1;fill-rule:nonzero;stroke:none;stroke-width:.216533" transform="matrix(1.6292 0 0 -1.6292 169.944 125.786)"/></g><g style="stroke-width:.216533"><path d="m0 0 4.369 4.533h8.717L0 8.302Z" style="fill:#b10069;fill-opacity:1;fill-rule:nonzero;stroke:none;stroke-width:.216533" transform="matrix(1.6292 0 0 -1.6292 169.944 125.786)"/></g><g style="stroke-width:.216533"><path d="m0 0 15.094 4.96v2.3L-5.809 0Z" style="fill:#ec008c;fill-opacity:1;fill-rule:nonzero;stroke:none;stroke-width:.216533" transform="matrix(1.6292 0 0 -1.6292 145.353 116.362)"/></g><g style="stroke-width:.216533"><path d="m0 0-15.095 4.96v2.3L5.811 0Z" style="fill:#b10069;fill-opacity:1;fill-rule:nonzero;stroke:none;stroke-width:.216533" transform="matrix(1.6292 0 0 -1.6292 194.536 116.362)"/></g><g style="stroke-width:.216533"><path d="M0 0h.053l4.895 7.695h4.2L3.929-.537l5.81-10.977H5.381L1.425-3.631 0-5.812v-5.702h-3.875V7.695H0Z" style="fill:#004085;fill-opacity:1;fill-rule:nonzero;stroke:none;stroke-width:.216533" transform="matrix(1.6292 0 0 -1.6292 142.685 184.738)"/></g><g clip-path="url(#l)" style="stroke-width:.216533" transform="matrix(1.6292 0 0 -1.6292 -796.529 683.296)"><g style="stroke-width:.216533"><path d="M0 0c.932 0 1.686.207 2.26.618.575.413.861 1.175.861 2.287 0 .556-.076 1.018-.226 1.388-.157.367-.36.663-.622.886-.257.224-.57.383-.929.472a4.87 4.87 0 0 1-1.182.136h-1.667V0Zm-.402 8.476c1.074 0 1.861.191 2.354.578.492.387.738 1.035.738 1.951 0 .915-.223 1.56-.672 1.935-.448.377-1.157.567-2.125.567h-1.398V8.476Zm1.506 7.882c.79 0 1.52-.081 2.191-.24.674-.161 1.252-.431 1.734-.811.487-.373.866-.876 1.133-1.504.269-.629.402-1.399.402-2.314 0-1.041-.242-1.933-.726-2.677-.484-.746-1.209-1.251-2.179-1.52v-.055c1.077-.144 1.931-.601 2.556-1.372.629-.771.939-1.803.939-3.094 0-.754-.094-1.471-.293-2.153a4.394 4.394 0 0 0-1.009-1.79c-.475-.51-1.094-.917-1.856-1.223-.764-.304-1.707-.456-2.838-.456h-6.537v19.209z" style="fill:#004085;fill-opacity:1;fill-rule:nonzero;stroke:none;stroke-width:.216533" transform="translate(593.074 297.35)"/></g><g style="stroke-width:.216533"><path d="M0 0c0-.484.03-.927.096-1.33.06-.406.177-.755.347-1.05.172-.295.406-.529.703-.698.292-.172.667-.257 1.116-.257.465 0 .842.085 1.13.257.286.169.514.403.687.698.17.295.281.644.347 1.05.065.403.095.846.095 1.33v13.399h3.875V0c0-1.22-.173-2.227-.511-3.027-.344-.8-.8-1.431-1.375-1.895a4.611 4.611 0 0 0-1.96-.943 10.666 10.666 0 0 0-2.288-.242c-.791 0-1.552.071-2.287.215a4.596 4.596 0 0 0-1.965.874c-.574.441-1.033 1.065-1.373 1.87-.338.807-.511 1.857-.511 3.148v13.399H0Z" style="fill:#004085;fill-opacity:1;fill-rule:nonzero;stroke:none;stroke-width:.216533" transform="translate(605.65 300.309)"/></g></g></g></svg>