<svg xmlns="http://www.w3.org/2000/svg" width="230mm" height="230mm" viewBox="0 0 230 230"><g transform="translate(50.247 -41.997)"><circle cx="64.752991" cy="156.99744" r="115" style="fill:#fff;stroke:#fff;stroke-width:0"/><path d="M0 0c-1.89 1.878-7.298 7.232-8.086 8.042-.684.708-1.191.317-1.306.197-.48-.491-9.306-9.353-9.306-9.353l1.573-1.545 8.28 8.32 7.275-7.259z" style="fill:#927946;fill-opacity:1;fill-rule:nonzero;stroke:none" transform="matrix(.8963 0 0 -.8963 141.28 226.12)"/><path d="m0 0 .382.387 1.589-1.579-12.44-12.438-1.573 1.525 2.629 2.634-5.633 5.592 1.64 1.654 5.615-5.612 1.999 1.983-5.646 5.602 1.803 1.791 5.621-5.583 1.318 1.337z" style="fill:#927946;fill-opacity:1;fill-rule:nonzero;stroke:none" transform="matrix(.8963 0 0 -.8963 142.518 226.02)"/><path d="M0 0c0 67.098 54.591 121.692 121.68 121.692 67.114 0 121.694-54.594 121.694-121.692 0-67.089-54.58-121.68-121.694-121.68C54.591-121.68 0-67.089 0 0m-2.026 0c0-68.209 55.501-123.722 123.706-123.722 68.227 0 123.73 55.513 123.73 123.722 0 68.229-55.503 123.722-123.73 123.722C53.475 123.722-2.026 68.229-2.026 0" style="fill:#927946;fill-opacity:1;fill-rule:nonzero;stroke:none" transform="matrix(.8963 0 0 -.8963 -44.938 156.906)"/><path d="M0 0c0 53.71 43.695 97.408 97.403 97.408 53.722 0 97.416-43.698 97.416-97.408 0-53.715-43.694-97.403-97.416-97.403C43.695-97.403 0-53.715 0 0m-1.997 0c0-54.802 44.602-99.401 99.4-99.401 54.815 0 99.402 44.599 99.402 99.401 0 54.803-44.587 99.408-99.402 99.408-54.798 0-99.4-44.605-99.4-99.408" style="fill:#927946;fill-opacity:1;fill-rule:nonzero;stroke:none" transform="matrix(.8963 0 0 -.8963 -23.179 156.906)"/><path d="M0 0c0-8.396 6.79-15.173 15.17-15.173 8.374 0 15.167 6.777 15.167 15.173 0 8.368-6.793 15.139-15.167 15.139C6.79 15.139 0 8.368 0 0" style="fill:#231f20;fill-opacity:1;fill-rule:nonzero;stroke:none" transform="matrix(.8963 0 0 -.8963 50.79 183.267)"/><path d="M0 0h-18.895v-8.065H-.192v-6.138h-18.703v-9.31C-9.031-25.101-1.522-33.659-1.522-43.96c0-11.437-9.281-20.728-20.726-20.728-11.448 0-20.721 9.291-20.721 20.728 0 10.35 7.588 18.916 17.489 20.475v38.189h-21.303v6.838H-18.895V6.146H0Zm31.691 33.316H-75.803s-.448-49.279 1.338-65.463c3.041-27.129 52.404-53.458 52.404-53.458S27.31-59.276 30.326-32.147c1.822 16.184 1.365 65.463 1.365 65.463" style="fill:#231f20;fill-opacity:1;fill-rule:nonzero;stroke:none" transform="matrix(.8963 0 0 -.8963 84.065 143.533)"/><path d="M0 0c2.02.262 1.401 2.826 2.408 4.114 2.71 1.824 4.611 5.28 5.856 8.225-.124.851-.925 1.485-1.674 1.536-2.695-1.793-3.525-4.536-5.286-6.804-.652 2.833-3.484 5.567-4.451 8.667-2.169.896-1.389-1.797-2.027-2.6C-5.803 7.628.196 5.313 0 0" style="fill:#231f20;fill-opacity:1;fill-rule:nonzero;stroke:none" transform="matrix(.8963 0 0 -.8963 -3.836 149.4)"/><path d="M0 0c3.436 4.1 5.915 8.93 5.871 13.921-.559.967-1.702.817-2.554.417C-.13 10.255-.154 4.82 0 0" style="fill:#231f20;fill-opacity:1;fill-rule:nonzero;stroke:none" transform="matrix(.8963 0 0 -.8963 -2.3 138.698)"/><path d="M0 0c-.103 5.254 8.042 9.355 4.752 14.517-1.99-1.561-4.29-4.194-4.713-6.746-2.252 2.799-3.411 7.348-7.287 9.052C-9.896 9.74-1.515 6.099 0 0" style="fill:#231f20;fill-opacity:1;fill-rule:nonzero;stroke:none" transform="matrix(.8963 0 0 -.8963 -3.844 160.814)"/><path d="M0 0c2.021-4.439 9.458-6.571 8.27-12.163.304-.243.808-.627 1.217-.403.418 2.523-1.257 5.379.938 7.572-.551 2.274 1.799 3.297 1.348 5.732 1.888 1.408 1.436 4.87 1.518 7.658-.225.697-.537 2-1.645 1.547-1.617-3.43-4.054-7.531-3.533-11.563-.379-.484-.804-.693-1.238-.607C3.019.516 2.333 4.677-1.774 7.101-2.961 4.888-1.439 2.154 0 0" style="fill:#231f20;fill-opacity:1;fill-rule:nonzero;stroke:none" transform="matrix(.8963 0 0 -.8963 -9.09 165.143)"/><path d="M0 0c3.479-.867 6.66-4.139 7.346-7.275l1.194-.141c-.651 2.858-1.974 6.475.317 9.115.379 5.176 2.472 9.55-.373 13.583-2.186-.132-.41-2.544-1.587-3.714-3.004-2.869-.599-6.827-1.855-9.744l-.704-.261C.586 5.791-3.072 10.47-7.468 12.833-7.929 7.221-4.188 2.992 0 0" style="fill:#231f20;fill-opacity:1;fill-rule:nonzero;stroke:none" transform="matrix(.8963 0 0 -.8963 -3.888 182.49)"/><path d="M0 0c4.383-1.057 8.943-3.566 12.165-7.119.643 1.842-1.687 2.883-2.186 4.567-1.54 6.381 2.313 13.032-.913 18.936L7.6 17.513c-2.975-5.51-3.689-12.475.07-18.002-2.287.718-3.287 4.11-6.114 5.527-3.748 1.866-7.365 4.942-10.82 6.836C-9.895 6.359-4.56 2.204 0 0" style="fill:#231f20;fill-opacity:1;fill-rule:nonzero;stroke:none" transform="matrix(.8963 0 0 -.8963 1.023 195.392)"/><path d="M0 0c4.572-11.876 17.175-5.026 25.083-11.946-.531 1.987-2.666 2.591-3.533 4.842.092 2.784-1.967 5.174-.728 8.098-2.086 3.686-.693 10.174-5.354 11.192.548-6.653-1.299-13.05 3.3-18.171-3.178 1.937-6.937 3.813-10.511 4.243C5.439-1.373 3.162.401.611 1.102z" style="fill:#231f20;fill-opacity:1;fill-rule:nonzero;stroke:none" transform="matrix(.8963 0 0 -.8963 -.151 200.79)"/><path d="M0 0c7.354-4.942 16.341 2.937 23.567-2.164C23.345-.439 20.165.48 19.485 2.29 16.637 8.674 16.157 17.112 9.27 20.638c-1.261-1.609 1.194-2.467.525-4.042-.57-6.067 3.637-10.36 7.518-14.419C10.608 4.272 2.854 5.34-4.132 6.081-4.533 3.528-1.686 1.846 0 0" style="fill:#231f20;fill-opacity:1;fill-rule:nonzero;stroke:none" transform="matrix(.8963 0 0 -.8963 13.349 217.346)"/><path d="M0 0c2.075-2.657 5.004-4.938 7.308-6.983C.557-4.612-6.7-8.601-13.852-7.746c-1.026-2.313 2.377-2.616 3.567-3.776 5.441-1.377 11.38-.783 16.014 1.846 2.604.335 5.761 2.044 8.063-.02l1.446.19c-.705 2.118-4.005 1.527-5.232 3.31C5.807-.871 4.16 6.395-3.377 9.41-3.559 6.142-1.397 2.888 0 0" style="fill:#231f20;fill-opacity:1;fill-rule:nonzero;stroke:none" transform="matrix(.8963 0 0 -.8963 34.727 215.983)"/><path d="M0 0c2.338-5.714 7.583-10.335 12.762-13.042-4.092-1.244-8.649-1.09-11.911-4.285-1.782-.96-5.324-.813-5.185-2.985 7.304-3.342 14.848.677 19.957 5.578l5.191.645C12.712-11.435 9.625-2.021.748.959Z" style="fill:#231f20;fill-opacity:1;fill-rule:nonzero;stroke:none" transform="matrix(.8963 0 0 -.8963 42.827 213.644)"/><path d="M0 0c-2.021.262-1.408 2.826-2.415 4.114-2.699 1.824-4.618 5.28-5.859 8.225.114.851.925 1.485 1.65 1.536 2.727-1.793 3.534-4.536 5.312-6.804.641 2.833 3.488 5.567 4.448 8.667 2.168.896 1.4-1.797 2.033-2.6C5.796 7.628-.214 5.313 0 0" style="fill:#927946;fill-opacity:1;fill-rule:nonzero;stroke:none" transform="matrix(.8963 0 0 -.8963 132.186 149.4)"/><path d="M0 0c-3.441 4.1-5.906 8.93-5.868 13.921.555.967 1.693.817 2.534.417C.111 10.255.166 4.82 0 0" style="fill:#927946;fill-opacity:1;fill-rule:nonzero;stroke:none" transform="matrix(.8963 0 0 -.8963 130.64 138.698)"/><path d="M0 0c.062 5.254-8.058 9.355-4.782 14.517 1.999-1.561 4.32-4.194 4.719-6.746 2.278 2.799 3.417 7.348 7.299 9.052C9.861 9.74 1.489 6.099 0 0" style="fill:#927946;fill-opacity:1;fill-rule:nonzero;stroke:none" transform="matrix(.8963 0 0 -.8963 132.198 160.814)"/><path d="M0 0c-2.007-4.439-9.461-6.571-8.252-12.163-.32-.243-.829-.627-1.243-.403-.387 2.523 1.27 5.379-.94 7.572.59 2.274-1.771 3.297-1.325 5.732-1.87 1.408-1.445 4.87-1.521 7.658.221.697.526 2 1.657 1.547 1.617-3.43 4.029-7.531 3.511-11.563.389-.484.795-.693 1.253-.607C-2.992.516-2.329 4.677 1.768 7.101 2.968 4.888 1.45 2.154 0 0" style="fill:#927946;fill-opacity:1;fill-rule:nonzero;stroke:none" transform="matrix(.8963 0 0 -.8963 137.418 165.143)"/><path d="M0 0c-3.473-.867-6.668-4.139-7.351-7.275l-1.201-.141C-7.9-4.558-6.55-.941-8.867 1.699c-.374 5.176-2.463 9.55.389 13.583 2.19-.132.409-2.544 1.584-3.714 3.009-2.869.623-6.827 1.859-9.744l.701-.261c3.732 4.228 7.418 8.907 11.811 11.27C7.946 7.221 4.193 2.992 0 0" style="fill:#927946;fill-opacity:1;fill-rule:nonzero;stroke:none" transform="matrix(.8963 0 0 -.8963 132.226 182.49)"/><path d="M0 0c-4.366-1.057-8.939-3.566-12.17-7.119-.631 1.842 1.681 2.883 2.186 4.567 1.533 6.381-2.308 13.032.925 18.936l1.434 1.129c2.982-5.51 3.722-12.475-.046-18.002 2.281.718 3.305 4.11 6.111 5.527C2.181 6.904 5.8 9.98 9.259 11.874 9.883 6.359 4.542 2.204 0 0" style="fill:#927946;fill-opacity:1;fill-rule:nonzero;stroke:none" transform="matrix(.8963 0 0 -.8963 127.324 195.392)"/><path d="M0 0c-4.567-11.876-17.183-5.026-25.094-11.946.552 1.987 2.68 2.591 3.545 4.842-.088 2.784 1.974 5.174.714 8.098 2.101 3.686.701 10.174 5.374 11.192-.544-6.653 1.283-13.05-3.308-18.171 3.188 1.937 6.909 3.813 10.491 4.243 2.827.369 5.103 2.143 7.685 2.844z" style="fill:#927946;fill-opacity:1;fill-rule:nonzero;stroke:none" transform="matrix(.8963 0 0 -.8963 128.49 200.79)"/><path d="M0 0c-7.364-4.942-16.329 2.937-23.556-2.164.206 1.725 3.402 2.644 4.071 4.454 2.859 6.384 3.326 14.822 10.202 18.348 1.259-1.609-1.174-2.467-.498-4.042.56-6.067-3.659-10.36-7.532-14.419C-10.604 4.272-2.854 5.34 4.123 6.081 4.542 3.528 1.699 1.846 0 0" style="fill:#231f20;fill-opacity:1;fill-rule:nonzero;stroke:none" transform="matrix(.8963 0 0 -.8963 114.992 217.346)"/><path d="M0 0c-2.118-2.657-5.018-4.938-7.335-6.983 6.76 2.371 14.018-1.618 21.152-.763 1.037-2.313-2.375-2.616-3.551-3.776-5.447-1.377-11.384-.783-16.02 1.846-2.603.335-5.753 2.044-8.072-.02l-1.443.19c.724 2.118 4.013 1.527 5.248 3.31C-5.813-.871-4.197 6.395 3.373 9.41 3.563 6.142 1.382 2.888 0 0" style="fill:#231f20;fill-opacity:1;fill-rule:nonzero;stroke:none" transform="matrix(.8963 0 0 -.8963 93.628 215.983)"/><path d="M0 0c-2.326-5.714-7.588-10.335-12.781-13.042 4.099-1.244 8.668-1.09 11.926-4.285 1.79-.96 5.306-.813 5.192-2.985-7.298-3.342-14.849.677-19.955 5.578l-5.189.645C-12.714-11.435-9.628-2.021-.757.959z" style="fill:#231f20;fill-opacity:1;fill-rule:nonzero;stroke:none" transform="matrix(.8963 0 0 -.8963 85.514 213.644)"/><path d="M0 0v13.637h-8.23V0h-49.574v-17.054h8.233v9.695h24.245v-9.695h7.351v9.695H9.731v-9.695h7.363v9.695h25.105v-9.695h7.367V0Z" style="fill:#231f20;fill-opacity:1;fill-rule:nonzero;stroke:none" transform="matrix(.8963 0 0 -.8963 68.26 93.5)"/><path d="m0 0 .005-.487 2.473.023L2.4 9.142l-2.481-.043.06-6.979-11.578-.099-.012 1.222 7.716.068-.046 5.377-10.169-.091.017-2.12 7.718.067.01-1.192-7.715-.073.006-.855-.001-.007.005-.002.025-2.904c.004-.574.131-.99.386-1.253.243-.247.607-.373 1.098-.369zm.051-5.639-10.839-.093-.011 1.385 10.838.095zM-.008-2.22l-10.808-.023-.012 1.023-2.383-.023.048-5.741v-.006c.008-.475.356-.851.784-.851l14.159.122h.002c.432.002.775.393.768.871l.001.002-.046 5.743-2.497-.02" style="fill:#927946;fill-opacity:1;fill-rule:nonzero;stroke:none" transform="matrix(.8963 0 0 -.8963 69.644 256.947)"/><path d="m0 0-2.44 4.965.396.195c.905.445 1.757.73 2.558.859.746.113 1.521.059 2.323-.161 1.807-.493 3.132-1.604 3.981-3.324.825-1.683.927-3.421.301-5.216-.631-1.794-1.804-3.113-3.509-3.953-1.747-.858-3.524-.977-5.337-.36-1.819.618-3.159 1.802-4.019 3.551a6.735 6.735 0 0 0-.722 2.909c0 .965.246 2.037.737 3.214l1.872-.683c-.826-1.632-.891-3.155-.195-4.574.624-1.269 1.587-2.118 2.888-2.55 1.284-.435 2.577-.335 3.874.303 1.339.656 2.206 1.684 2.6 3.069.363 1.289.288 2.462-.228 3.512-.439.891-1.133 1.543-2.084 1.962-.955.409-1.876.45-2.762.117L1.708.839Z" style="fill:#927946;fill-opacity:1;fill-rule:nonzero;stroke:none" transform="matrix(.8963 0 0 -.8963 -25.245 199.615)"/><path d="m0 0-6.074-6.334-.655 2.229L-2.451.331l-5.994 1.43-.652 2.231L-.56 1.919l5.553 1.627.564-1.921z" style="fill:#927946;fill-opacity:1;fill-rule:nonzero;stroke:none" transform="matrix(.8963 0 0 -.8963 -29.72 185.19)"/><path d="m0 0 .73-5.318 3.201.439L3.224.283l1.88.26.712-5.162 4.421.609-.734 5.315 1.885.261 1.002-7.302L-.882-7.561-1.886-.258z" style="fill:#927946;fill-opacity:1;fill-rule:nonzero;stroke:none" transform="matrix(.8963 0 0 -.8963 -38.561 167.292)"/><path d="M0 0c1.474-.052 2.706.405 3.691 1.369.983.951 1.497 2.078 1.54 3.367.05 1.401-.394 2.605-1.329 3.598-.947.999-2.125 1.521-3.531 1.571-1.424.045-2.634-.389-3.627-1.308-1.002-.914-1.527-2.068-1.572-3.467-.047-1.387.396-2.58 1.33-3.571C-2.573.57-1.407.052 0 0m-.093-2.039c-1.88.063-3.474.81-4.779 2.236-1.303 1.421-1.922 3.096-1.856 5.028.064 1.903.802 3.517 2.209 4.834 1.411 1.319 3.072 1.95 4.983 1.887 1.92-.068 3.528-.813 4.823-2.231C6.583 8.287 7.2 6.601 7.133 4.646 7.073 2.919 6.425 1.39 5.18.055 3.808-1.412 2.05-2.111-.093-2.039" style="fill:#927946;fill-opacity:1;fill-rule:nonzero;stroke:none" transform="matrix(.8963 0 0 -.8963 -34.877 157.624)"/><path d="m0 0-13.912 3.263 12.157 7.182-9.055 2.13.456 1.948 13.835-3.249L-8.67 4.091.457 1.946Z" style="fill:#927946;fill-opacity:1;fill-rule:nonzero;stroke:none" transform="matrix(.8963 0 0 -.8963 -27.507 140.52)"/><path d="m0 0 2.273 5.042.403-.179c.918-.417 1.681-.891 2.294-1.425a5.694 5.694 0 0 0 1.355-1.895c.765-1.709.756-3.439-.033-5.189-.77-1.706-2.045-2.889-3.83-3.554-1.783-.652-3.547-.589-5.282.192-1.773.799-2.995 2.095-3.676 3.888-.682 1.794-.622 3.579.178 5.355A6.805 6.805 0 0 0-4.53 4.646c.746.615 1.725 1.109 2.946 1.479l.665-1.877c-1.784-.403-3.001-1.322-3.65-2.761-.582-1.29-.624-2.575-.128-3.852.481-1.269 1.381-2.199 2.7-2.797 1.36-.613 2.701-.629 4.022-.049 1.227.543 2.08 1.348 2.562 2.412.407.905.469 1.856.185 2.853-.292 1.001-.847 1.736-1.667 2.207L1.733-.785Z" style="fill:#927946;fill-opacity:1;fill-rule:nonzero;stroke:none" transform="matrix(.8963 0 0 -.8963 -25.926 115.168)"/><path d="m0 0 .701 1.037c.511.76.738 1.419.68 1.973a1.852 1.852 0 0 1-.84 1.385 1.884 1.884 0 0 1-1.568.273c-.558-.135-1.141-.653-1.751-1.554l-.573-.851Zm-4.749 3.207.356.525c.421.622.589 1.174.512 1.649-.082.48-.392.901-.931 1.261-.521.356-1.02.475-1.491.359-.472-.112-.9-.454-1.281-1.022l-.4-.591zM.457-2.722l-11.106 7.497 1.124 1.661c.503.744.957 1.294 1.368 1.661a3.18 3.18 0 0 0 1.346.729 3.533 3.533 0 0 0 1.555.029 3.863 3.863 0 0 0 1.484-.59c.796-.539 1.264-1.3 1.406-2.277.6.448 1.263.679 1.999.679.733.009 1.43-.209 2.091-.656.869-.584 1.396-1.386 1.58-2.404.12-.62.099-1.204-.068-1.762-.201-.596-.557-1.275-1.067-2.03Z" style="fill:#927946;fill-opacity:1;fill-rule:nonzero;stroke:none" transform="matrix(.8963 0 0 -.8963 -15.127 105.005)"/><path d="m0 0 5.871-5.521c.837-.788 1.58-1.224 2.225-1.317.946-.114 1.769.203 2.471.946.707.751.972 1.593.799 2.532-.117.627-.6 1.342-1.451 2.141L4.046 4.305l1.371 1.454 6.281-5.906c1.028-.966 1.574-2.084 1.637-3.351.065-1.415-.397-2.65-1.382-3.698-.988-1.047-2.186-1.579-3.602-1.597-1.265-.019-2.413.461-3.442 1.43l-6.28 5.902z" style="fill:#927946;fill-opacity:1;fill-rule:nonzero;stroke:none" transform="matrix(.8963 0 0 -.8963 -14.064 86.69)"/><path d="m0 0 .926 7.404 2.148 1.629L1.919.542 11.2-1.621 9.043-3.254l-7.439 1.83-.081-.581 3.35-4.417-1.596-1.209L-4.82 3.045l1.593 1.209Z" style="fill:#927946;fill-opacity:1;fill-rule:nonzero;stroke:none" transform="matrix(.8963 0 0 -.8963 2.087 78.049)"/><path d="m0 0 .67.364c1.645.894 2.126 1.967 1.441 3.225-.659 1.215-1.836 1.362-3.532.444l-.593-.322Zm.901-1.657 2.59-4.77-1.759-.955-6.394 11.777 2.013 1.091c.986.534 1.766.87 2.346 1.006.583.138 1.17.12 1.763-.05 1.036-.296 1.827-.947 2.374-1.952.584-1.082.69-2.132.306-3.159C3.76.308 2.955-.539 1.726-1.206Z" style="fill:#927946;fill-opacity:1;fill-rule:nonzero;stroke:none" transform="matrix(.8963 0 0 -.8963 15.813 69.7)"/><path d="m0 0 .603.221c1.805.661 2.459 1.675 1.958 3.05C2.09 4.557.977 4.881-.781 4.24l-.679-.249Zm2.891-.58L8.75-4.518l-2.326-.85L.947-1.535l-.344-.124 1.88-5.149-1.88-.683-4.597 12.582 2.223.812c1.66.605 2.972.732 3.938.378 1.067-.4 1.81-1.169 2.227-2.31.324-.894.349-1.749.072-2.582C4.188.561 3.663-.096 2.891-.58" style="fill:#927946;fill-opacity:1;fill-rule:nonzero;stroke:none" transform="matrix(.8963 0 0 -.8963 28.566 63.802)"/><path d="M0 0c.255-1.453.954-2.566 2.097-3.331 1.138-.765 2.344-1.037 3.615-.815 1.382.245 2.466.926 3.247 2.046.785 1.136 1.052 2.392.809 3.779-.246 1.404-.923 2.494-2.028 3.281-1.1.788-2.339 1.064-3.716.824-1.368-.242-2.442-.923-3.218-2.041C.024 2.634-.241 1.385 0 0m-2.015-.331c-.324 1.854.077 3.567 1.202 5.138C.309 6.375 1.821 7.329 3.724 7.66c1.878.33 3.607-.059 5.183-1.168 1.585-1.106 2.544-2.6 2.876-4.483.332-1.896-.064-3.62-1.189-5.177C9.467-4.734 7.94-5.684 6.018-6.024c-1.704-.297-3.334.023-4.896.964-1.72 1.041-2.766 2.618-3.137 4.729" style="fill:#927946;fill-opacity:1;fill-rule:nonzero;stroke:none" transform="matrix(.8963 0 0 -.8963 42.584 59.973)"/><path d="m0 0 3.646-9.301L7.455-.046l2.214-.016-6.097-14.371L-2.212.012Z" style="fill:#927946;fill-opacity:1;fill-rule:nonzero;stroke:none" transform="matrix(.8963 0 0 -.8963 61.545 51.71)"/><path d="m0 0-1.844-13.272-1.982.276L-1.982.276z" style="fill:#927946;fill-opacity:1;fill-rule:nonzero;stroke:none" transform="matrix(.8963 0 0 -.8963 79.58 52.846)"/><path d="m0 0 4.723 13.486L10.572.633l3.077 8.784 1.89-.664L10.843-4.66 4.986 8.185 1.889-.664Z" style="fill:#927946;fill-opacity:1;fill-rule:nonzero;stroke:none" transform="matrix(.8963 0 0 -.8963 89.875 67.181)"/><path d="m0 0-1.182-2.078C-1.716-.652-2.522.371-3.609.989c-1.196.678-2.449.824-3.754.429-1.311-.386-2.318-1.196-3.02-2.432-.692-1.22-.868-2.482-.52-3.79.346-1.308 1.119-2.301 2.316-2.983.617-.353 1.198-.547 1.746-.593a5.42 5.42 0 0 1 .982-.023c.355.028.742.077 1.169.157l-1.208-2.121c-1.331 0-2.548.308-3.652.94-1.665.948-2.754 2.333-3.27 4.164-.507 1.837-.29 3.586.652 5.238.841 1.483 2.084 2.523 3.725 3.128 2.017.734 3.979.559 5.894-.53C-1.503 1.98-.653 1.12 0 0" style="fill:#927946;fill-opacity:1;fill-rule:nonzero;stroke:none" transform="matrix(.8963 0 0 -.8963 119.764 68.295)"/><path d="m0 0-8.116-10.661-1.592 1.213 8.114 10.663z" style="fill:#927946;fill-opacity:1;fill-rule:nonzero;stroke:none" transform="matrix(.8963 0 0 -.8963 128.402 73.682)"/><path d="m0 0 1.826 4.621-4.695-1.738Zm-.766-1.926L-4.81 2.136-8.164.9l-1.538 1.542L5.055 7.789-.516-6.78l-1.562 1.564Z" style="fill:#927946;fill-opacity:1;fill-rule:nonzero;stroke:none" transform="matrix(.8963 0 0 -.8963 134.606 89.16)"/><path d="m0 0-9.26-6.811 2.33-3.17-1.533-1.128-3.516 4.787 10.793 7.933z" style="fill:#927946;fill-opacity:1;fill-rule:nonzero;stroke:none" transform="matrix(.8963 0 0 -.8963 148.582 94.312)"/><path d="m0 0-2.114-1.118c.317 1.487.181 2.784-.403 3.89-.642 1.21-1.625 2.004-2.939 2.374-1.311.38-2.596.233-3.85-.433-1.24-.653-2.068-1.629-2.475-2.919-.407-1.29-.29-2.543.355-3.758.333-.627.718-1.105 1.157-1.437.23-.195.504-.371.814-.543.317-.172.67-.337 1.068-.498l-2.154-1.145c-1.125.712-1.982 1.631-2.578 2.756-.896 1.69-1.071 3.444-.525 5.266.557 1.824 1.678 3.179 3.359 4.071 1.51.798 3.115 1.014 4.824.64 2.093-.459 3.66-1.663 4.691-3.609C-.209 2.476.049 1.296 0 0" style="fill:#927946;fill-opacity:1;fill-rule:nonzero;stroke:none" transform="matrix(.8963 0 0 -.8963 158.574 112.036)"/><path d="M0 0c-1.412-.437-2.422-1.274-3.033-2.506-.617-1.226-.734-2.457-.346-3.692.418-1.341 1.232-2.325 2.443-2.958 1.223-.632 2.506-.736 3.85-.317 1.36.425 2.358 1.236 2.994 2.432.641 1.195.754 2.454.342 3.791C5.833-1.919 5.023-.944 3.811-.317 2.61.314 1.339.418 0 0m-.588 1.957c1.799.562 3.548.38 5.249-.537C6.358.509 7.499-.867 8.071-2.709c.569-1.82.403-3.585-.491-5.295-.892-1.711-2.253-2.852-4.082-3.422-1.833-.574-3.599-.403-5.286.512-1.697.918-2.834 2.308-3.417 4.174-.511 1.65-.402 3.311.331 4.979.81 1.84 2.239 3.077 4.286 3.718" style="fill:#927946;fill-opacity:1;fill-rule:nonzero;stroke:none" transform="matrix(.8963 0 0 -.8963 157.32 122.888)"/><path d="m0 0-11.385-1.597.55-3.9-1.886-.262-.825 5.882L-.28 1.983z" style="fill:#927946;fill-opacity:1;fill-rule:nonzero;stroke:none" transform="matrix(.8963 0 0 -.8963 168.03 141.668)"/><path d="m0 0-11.492-.19.061-3.933-1.902-.032-.096 5.936 13.397.222z" style="fill:#927946;fill-opacity:1;fill-rule:nonzero;stroke:none" transform="matrix(.8963 0 0 -.8963 169.084 154.724)"/><path d="m0 0 .637 5.332-3.21.382-.615-5.175-1.892.226.619 5.173-4.43.529-.635-5.328-1.888.223.871 7.319L2.764 7.097 1.888-.222Z" style="fill:#927946;fill-opacity:1;fill-rule:nonzero;stroke:none" transform="matrix(.8963 0 0 -.8963 166.254 172.501)"/><path d="m0 0-1.57-5.304-.426.124c-.966.287-1.785.657-2.462 1.102a5.671 5.671 0 0 0-1.601 1.697c-.988 1.587-1.21 3.307-.666 5.144C-6.191 4.56-5.087 5.904-3.41 6.8c1.685.889 3.436 1.059 5.262.521 1.864-.552 3.253-1.671 4.166-3.354.916-1.686 1.099-3.467.547-5.336a6.832 6.832 0 0 0-1.447-2.627c-.658-.709-1.563-1.328-2.719-1.858l-.915 1.769C3.2-3.448 4.282-2.372 4.729-.862c.403 1.362.273 2.638-.393 3.836-.648 1.194-1.665 1.996-3.051 2.407-1.431.421-2.763.261-3.991-.491-1.146-.703-1.881-1.616-2.213-2.736-.28-.952-.218-1.903.203-2.853.418-.953 1.069-1.607 1.945-1.96l.952 3.198z" style="fill:#927946;fill-opacity:1;fill-rule:nonzero;stroke:none" transform="matrix(.8963 0 0 -.8963 159.024 185.707)"/><path d="m0 0 2.369 4.816-2.898 1.425-2.302-4.678-1.707.84 2.298 4.678-4.001 1.969-2.367-4.816-1.706.838 3.253 6.616L4.96 5.769 1.706-.844Z" style="fill:#927946;fill-opacity:1;fill-rule:nonzero;stroke:none" transform="matrix(.8963 0 0 -.8963 155.275 205.345)"/><path d="m0 0-2.44 4.965.396.195c.905.445 1.757.73 2.558.859.746.113 1.521.059 2.323-.161 1.807-.493 3.132-1.604 3.981-3.324.825-1.683.927-3.421.301-5.216-.631-1.794-1.804-3.113-3.509-3.953-1.747-.858-3.524-.977-5.337-.36-1.819.618-3.159 1.802-4.019 3.551a6.735 6.735 0 0 0-.722 2.909c0 .965.246 2.037.737 3.214l1.872-.683c-.826-1.632-.891-3.155-.195-4.574.624-1.269 1.587-2.118 2.888-2.55 1.284-.435 2.577-.335 3.874.303 1.339.656 2.206 1.684 2.6 3.069.363 1.289.288 2.462-.228 3.512-.439.891-1.133 1.543-2.084 1.962-.955.409-1.876.45-2.762.117L1.708.839Z" style="fill:#927946;fill-opacity:1;fill-rule:nonzero;stroke:none" transform="matrix(.8963 0 0 -.8963 -25.245 199.615)"/><path d="m0 0-6.074-6.334-.655 2.229L-2.451.331l-5.994 1.43-.652 2.231L-.56 1.919l5.553 1.627.564-1.921z" style="fill:#927946;fill-opacity:1;fill-rule:nonzero;stroke:none" transform="matrix(.8963 0 0 -.8963 -29.72 185.19)"/><path d="m0 0 .73-5.318 3.201.439L3.224.283l1.88.26.712-5.162 4.421.609-.734 5.315 1.885.261 1.002-7.302L-.882-7.561-1.886-.258z" style="fill:#927946;fill-opacity:1;fill-rule:nonzero;stroke:none" transform="matrix(.8963 0 0 -.8963 -38.561 167.292)"/><path d="M0 0c1.474-.052 2.706.405 3.691 1.369.983.951 1.497 2.078 1.54 3.367.05 1.401-.394 2.605-1.329 3.598-.947.999-2.125 1.521-3.531 1.571-1.424.045-2.634-.389-3.627-1.308-1.002-.914-1.527-2.068-1.572-3.467-.047-1.387.396-2.58 1.33-3.571C-2.573.57-1.407.052 0 0m-.093-2.039c-1.88.063-3.474.81-4.779 2.236-1.303 1.421-1.922 3.096-1.856 5.028.064 1.903.802 3.517 2.209 4.834 1.411 1.319 3.072 1.95 4.983 1.887 1.92-.068 3.528-.813 4.823-2.231C6.583 8.287 7.2 6.601 7.133 4.646 7.073 2.919 6.425 1.39 5.18.055 3.808-1.412 2.05-2.111-.093-2.039" style="fill:#927946;fill-opacity:1;fill-rule:nonzero;stroke:none" transform="matrix(.8963 0 0 -.8963 -34.877 157.624)"/><path d="m0 0-13.912 3.263 12.157 7.182-9.055 2.13.456 1.948 13.835-3.249L-8.67 4.091.457 1.946Z" style="fill:#927946;fill-opacity:1;fill-rule:nonzero;stroke:none" transform="matrix(.8963 0 0 -.8963 -27.507 140.52)"/><path d="m0 0 2.273 5.042.403-.179c.918-.417 1.681-.891 2.294-1.425a5.694 5.694 0 0 0 1.355-1.895c.765-1.709.756-3.439-.033-5.189-.77-1.706-2.045-2.889-3.83-3.554-1.783-.652-3.547-.589-5.282.192-1.773.799-2.995 2.095-3.676 3.888-.682 1.794-.622 3.579.178 5.355A6.805 6.805 0 0 0-4.53 4.646c.746.615 1.725 1.109 2.946 1.479l.665-1.877c-1.784-.403-3.001-1.322-3.65-2.761-.582-1.29-.624-2.575-.128-3.852.481-1.269 1.381-2.199 2.7-2.797 1.36-.613 2.701-.629 4.022-.049 1.227.543 2.08 1.348 2.562 2.412.407.905.469 1.856.185 2.853-.292 1.001-.847 1.736-1.667 2.207L1.733-.785Z" style="fill:#927946;fill-opacity:1;fill-rule:nonzero;stroke:none" transform="matrix(.8963 0 0 -.8963 -25.926 115.168)"/><path d="m0 0 .701 1.037c.511.76.738 1.419.68 1.973a1.852 1.852 0 0 1-.84 1.385 1.884 1.884 0 0 1-1.568.273c-.558-.135-1.141-.653-1.751-1.554l-.573-.851Zm-4.749 3.207.356.525c.421.622.589 1.174.512 1.649-.082.48-.392.901-.931 1.261-.521.356-1.02.475-1.491.359-.472-.112-.9-.454-1.281-1.022l-.4-.591zM.457-2.722l-11.106 7.497 1.124 1.661c.503.744.957 1.294 1.368 1.661a3.18 3.18 0 0 0 1.346.729 3.533 3.533 0 0 0 1.555.029 3.863 3.863 0 0 0 1.484-.59c.796-.539 1.264-1.3 1.406-2.277.6.448 1.263.679 1.999.679.733.009 1.43-.209 2.091-.656.869-.584 1.396-1.386 1.58-2.404.12-.62.099-1.204-.068-1.762-.201-.596-.557-1.275-1.067-2.03Z" style="fill:#927946;fill-opacity:1;fill-rule:nonzero;stroke:none" transform="matrix(.8963 0 0 -.8963 -15.127 105.005)"/><path d="m0 0 5.871-5.521c.837-.788 1.58-1.224 2.225-1.317.946-.114 1.769.203 2.471.946.707.751.972 1.593.799 2.532-.117.627-.6 1.342-1.451 2.141L4.046 4.305l1.371 1.454 6.281-5.906c1.028-.966 1.574-2.084 1.637-3.351.065-1.415-.397-2.65-1.382-3.698-.988-1.047-2.186-1.579-3.602-1.597-1.265-.019-2.413.461-3.442 1.43l-6.28 5.902z" style="fill:#927946;fill-opacity:1;fill-rule:nonzero;stroke:none" transform="matrix(.8963 0 0 -.8963 -14.064 86.69)"/><path d="m0 0 .926 7.404 2.148 1.629L1.919.542 11.2-1.621 9.043-3.254l-7.439 1.83-.081-.581 3.35-4.417-1.596-1.209L-4.82 3.045l1.593 1.209Z" style="fill:#927946;fill-opacity:1;fill-rule:nonzero;stroke:none" transform="matrix(.8963 0 0 -.8963 2.087 78.049)"/><path d="m0 0 .67.364c1.645.894 2.126 1.967 1.441 3.225-.659 1.215-1.836 1.362-3.532.444l-.593-.322Zm.901-1.657 2.59-4.77-1.759-.955-6.394 11.777 2.013 1.091c.986.534 1.766.87 2.346 1.006.583.138 1.17.12 1.763-.05 1.036-.296 1.827-.947 2.374-1.952.584-1.082.69-2.132.306-3.159C3.76.308 2.955-.539 1.726-1.206Z" style="fill:#927946;fill-opacity:1;fill-rule:nonzero;stroke:none" transform="matrix(.8963 0 0 -.8963 15.813 69.7)"/><path d="m0 0 .603.221c1.805.661 2.459 1.675 1.958 3.05C2.09 4.557.977 4.881-.781 4.24l-.679-.249Zm2.891-.58L8.75-4.518l-2.326-.85L.947-1.535l-.344-.124 1.88-5.149-1.88-.683-4.597 12.582 2.223.812c1.66.605 2.972.732 3.938.378 1.067-.4 1.81-1.169 2.227-2.31.324-.894.349-1.749.072-2.582C4.188.561 3.663-.096 2.891-.58" style="fill:#927946;fill-opacity:1;fill-rule:nonzero;stroke:none" transform="matrix(.8963 0 0 -.8963 28.566 63.802)"/><path d="M0 0c.255-1.453.954-2.566 2.097-3.331 1.138-.765 2.344-1.037 3.615-.815 1.382.245 2.466.926 3.247 2.046.785 1.136 1.052 2.392.809 3.779-.246 1.404-.923 2.494-2.028 3.281-1.1.788-2.339 1.064-3.716.824-1.368-.242-2.442-.923-3.218-2.041C.024 2.634-.241 1.385 0 0m-2.015-.331c-.324 1.854.077 3.567 1.202 5.138C.309 6.375 1.821 7.329 3.724 7.66c1.878.33 3.607-.059 5.183-1.168 1.585-1.106 2.544-2.6 2.876-4.483.332-1.896-.064-3.62-1.189-5.177C9.467-4.734 7.94-5.684 6.018-6.024c-1.704-.297-3.334.023-4.896.964-1.72 1.041-2.766 2.618-3.137 4.729" style="fill:#927946;fill-opacity:1;fill-rule:nonzero;stroke:none" transform="matrix(.8963 0 0 -.8963 42.584 59.973)"/><path d="m0 0 3.646-9.301L7.455-.046l2.214-.016-6.097-14.371L-2.212.012Z" style="fill:#927946;fill-opacity:1;fill-rule:nonzero;stroke:none" transform="matrix(.8963 0 0 -.8963 61.545 51.71)"/><path d="m0 0-1.844-13.272-1.982.276L-1.982.276z" style="fill:#927946;fill-opacity:1;fill-rule:nonzero;stroke:none" transform="matrix(.8963 0 0 -.8963 79.58 52.846)"/><path d="m0 0 4.723 13.486L10.572.633l3.077 8.784 1.89-.664L10.843-4.66 4.986 8.185 1.889-.664Z" style="fill:#927946;fill-opacity:1;fill-rule:nonzero;stroke:none" transform="matrix(.8963 0 0 -.8963 89.875 67.181)"/><path d="m0 0-1.182-2.078C-1.716-.652-2.522.371-3.609.989c-1.196.678-2.449.824-3.754.429-1.311-.386-2.318-1.196-3.02-2.432-.692-1.22-.868-2.482-.52-3.79.346-1.308 1.119-2.301 2.316-2.983.617-.353 1.198-.547 1.746-.593a5.42 5.42 0 0 1 .982-.023c.355.028.742.077 1.169.157l-1.208-2.121c-1.331 0-2.548.308-3.652.94-1.665.948-2.754 2.333-3.27 4.164-.507 1.837-.29 3.586.652 5.238.841 1.483 2.084 2.523 3.725 3.128 2.017.734 3.979.559 5.894-.53C-1.503 1.98-.653 1.12 0 0" style="fill:#927946;fill-opacity:1;fill-rule:nonzero;stroke:none" transform="matrix(.8963 0 0 -.8963 119.764 68.295)"/><path d="m0 0-8.116-10.661-1.592 1.213 8.114 10.663z" style="fill:#927946;fill-opacity:1;fill-rule:nonzero;stroke:none" transform="matrix(.8963 0 0 -.8963 128.402 73.682)"/><path d="m0 0 1.826 4.621-4.695-1.738Zm-.766-1.926L-4.81 2.136-8.164.9l-1.538 1.542L5.055 7.789-.516-6.78l-1.562 1.564Z" style="fill:#927946;fill-opacity:1;fill-rule:nonzero;stroke:none" transform="matrix(.8963 0 0 -.8963 134.606 89.16)"/><path d="m0 0-9.26-6.811 2.33-3.17-1.533-1.128-3.516 4.787 10.793 7.933z" style="fill:#927946;fill-opacity:1;fill-rule:nonzero;stroke:none" transform="matrix(.8963 0 0 -.8963 148.582 94.312)"/><path d="m0 0-2.114-1.118c.317 1.487.181 2.784-.403 3.89-.642 1.21-1.625 2.004-2.939 2.374-1.311.38-2.596.233-3.85-.433-1.24-.653-2.068-1.629-2.475-2.919-.407-1.29-.29-2.543.355-3.758.333-.627.718-1.105 1.157-1.437.23-.195.504-.371.814-.543.317-.172.67-.337 1.068-.498l-2.154-1.145c-1.125.712-1.982 1.631-2.578 2.756-.896 1.69-1.071 3.444-.525 5.266.557 1.824 1.678 3.179 3.359 4.071 1.51.798 3.115 1.014 4.824.64 2.093-.459 3.66-1.663 4.691-3.609C-.209 2.476.049 1.296 0 0" style="fill:#927946;fill-opacity:1;fill-rule:nonzero;stroke:none" transform="matrix(.8963 0 0 -.8963 158.574 112.036)"/><path d="M0 0c-1.412-.437-2.422-1.274-3.033-2.506-.617-1.226-.734-2.457-.346-3.692.418-1.341 1.232-2.325 2.443-2.958 1.223-.632 2.506-.736 3.85-.317 1.36.425 2.358 1.236 2.994 2.432.641 1.195.754 2.454.342 3.791C5.833-1.919 5.023-.944 3.811-.317 2.61.314 1.339.418 0 0m-.588 1.957c1.799.562 3.548.38 5.249-.537C6.358.509 7.499-.867 8.071-2.709c.569-1.82.403-3.585-.491-5.295-.892-1.711-2.253-2.852-4.082-3.422-1.833-.574-3.599-.403-5.286.512-1.697.918-2.834 2.308-3.417 4.174-.511 1.65-.402 3.311.331 4.979.81 1.84 2.239 3.077 4.286 3.718" style="fill:#927946;fill-opacity:1;fill-rule:nonzero;stroke:none" transform="matrix(.8963 0 0 -.8963 157.32 122.888)"/><path d="m0 0-11.385-1.597.55-3.9-1.886-.262-.825 5.882L-.28 1.983z" style="fill:#927946;fill-opacity:1;fill-rule:nonzero;stroke:none" transform="matrix(.8963 0 0 -.8963 168.03 141.668)"/><path d="m0 0-11.492-.19.061-3.933-1.902-.032-.096 5.936 13.397.222z" style="fill:#927946;fill-opacity:1;fill-rule:nonzero;stroke:none" transform="matrix(.8963 0 0 -.8963 169.084 154.724)"/><path d="m0 0 .637 5.332-3.21.382-.615-5.175-1.892.226.619 5.173-4.43.529-.635-5.328-1.888.223.871 7.319L2.764 7.097 1.888-.222Z" style="fill:#927946;fill-opacity:1;fill-rule:nonzero;stroke:none" transform="matrix(.8963 0 0 -.8963 166.254 172.501)"/><path d="m0 0-1.57-5.304-.426.124c-.966.287-1.785.657-2.462 1.102a5.671 5.671 0 0 0-1.601 1.697c-.988 1.587-1.21 3.307-.666 5.144C-6.191 4.56-5.087 5.904-3.41 6.8c1.685.889 3.436 1.059 5.262.521 1.864-.552 3.253-1.671 4.166-3.354.916-1.686 1.099-3.467.547-5.336a6.832 6.832 0 0 0-1.447-2.627c-.658-.709-1.563-1.328-2.719-1.858l-.915 1.769C3.2-3.448 4.282-2.372 4.729-.862c.403 1.362.273 2.638-.393 3.836-.648 1.194-1.665 1.996-3.051 2.407-1.431.421-2.763.261-3.991-.491-1.146-.703-1.881-1.616-2.213-2.736-.28-.952-.218-1.903.203-2.853.418-.953 1.069-1.607 1.945-1.96l.952 3.198z" style="fill:#927946;fill-opacity:1;fill-rule:nonzero;stroke:none" transform="matrix(.8963 0 0 -.8963 159.024 185.707)"/><path d="m0 0 2.369 4.816-2.898 1.425-2.302-4.678-1.707.84 2.298 4.678-4.001 1.969-2.367-4.816-1.706.838 3.253 6.616L4.96 5.769 1.706-.844Z" style="fill:#927946;fill-opacity:1;fill-rule:nonzero;stroke:none" transform="matrix(.8963 0 0 -.8963 155.275 205.345)"/><path d="M0 0c-.524.903.398 2.421 1.777 3.231 1.38.808 2.923.733 3.452-.171.526-.897-.161-2.284-1.542-3.097C2.308-.837.53-.896 0 0m7.493 4.44c-.475.801-1.239 1.296-2.152 1.484l1.631.955L5.87 8.757 1.622 6.264l-.6 1.027-2.652-1.552.603-1.026-4.036-2.36L-3.964.475l1.676.983c-.279-.888-.228-1.8.248-2.603 1.129-1.926 4.165-1.928 6.671-.462C7.134-.141 8.618 2.512 7.493 4.44" style="fill:#927946;fill-opacity:1;fill-rule:nonzero;stroke:none" transform="matrix(.8963 0 0 -.8963 108.414 242.431)"/><path d="m0 0-1.421 2.435-2.156-1.281 4.736-8.092 2.158 1.263-2.28 3.91 1.635.964L1.644.962z" style="fill:#927946;fill-opacity:1;fill-rule:nonzero;stroke:none" transform="matrix(.8963 0 0 -.8963 117.583 234.574)"/><path d="m0 0-11.582-6.787 1.096-1.862L-.181-2.616l2.263-3.856 2.277 1.333S1.9-.935 1.574-.38C1.248.177.527.313 0 0" style="fill:#927946;fill-opacity:1;fill-rule:nonzero;stroke:none" transform="matrix(.8963 0 0 -.8963 119.987 240.744)"/><path d="M0 0c-1.909 1.856-2.646 4.2-1.64 5.232 1.009 1.034 3.369.367 5.279-1.487C5.547 1.89 6.283-.459 5.277-1.489 4.272-2.521 1.909-1.855 0 0m15.94 5.056-1.8 1.756-.477-.493-2.587 2.515L9.63 7.353l2.587-2.52-.641-.655-2.589 2.511-1.483-1.524 2.59-2.513L7.905.401c-.314 1.541-1.296 3.243-2.878 4.774-2.91 2.831-6.462 3.7-8.445 1.763-1.935-1.892-.919-5.562 1.995-8.395C1.489-4.286 5.083-5.259 7.014-3.27c.785.808 1.099 1.899.979 3.107l1.478-1.439ZM9.503 9.367c.281.212.769.887.176 1.464-.592.574-7.168 6.974-7.168 6.974l-1.429-1.471 5.72-5.558C3.01 8.853-1.472 14.08-1.472 14.08l-1.399-1.439s6.75-7.473 12.374-3.274" style="fill:#927946;fill-opacity:1;fill-rule:nonzero;stroke:none" transform="matrix(.8963 0 0 -.8963 -7.997 233.475)"/><path d="M0 0c0 67.098 54.591 121.692 121.68 121.692 67.114 0 121.694-54.594 121.694-121.692 0-67.089-54.58-121.68-121.694-121.68C54.591-121.68 0-67.089 0 0m-2.026 0c0-68.209 55.501-123.722 123.706-123.722 68.227 0 123.73 55.513 123.73 123.722 0 68.229-55.503 123.722-123.73 123.722C53.475 123.722-2.026 68.229-2.026 0" style="fill:#927946;fill-opacity:1;fill-rule:nonzero;stroke:none" transform="matrix(.8963 0 0 -.8963 -44.938 156.906)"/><path d="M0 0c0 53.71 43.695 97.408 97.403 97.408 53.722 0 97.416-43.698 97.416-97.408 0-53.715-43.694-97.403-97.416-97.403C43.695-97.403 0-53.715 0 0m-1.997 0c0-54.802 44.602-99.401 99.4-99.401 54.815 0 99.402 44.599 99.402 99.401 0 54.803-44.587 99.408-99.402 99.408-54.798 0-99.4-44.605-99.4-99.408" style="fill:#927946;fill-opacity:1;fill-rule:nonzero;stroke:none" transform="matrix(.8963 0 0 -.8963 -23.179 156.906)"/><path d="M0 0c0-8.396 6.79-15.173 15.17-15.173 8.374 0 15.167 6.777 15.167 15.173 0 8.368-6.793 15.139-15.167 15.139C6.79 15.139 0 8.368 0 0" style="fill:#2e4790;fill-opacity:1;fill-rule:nonzero;stroke:none" transform="matrix(.8963 0 0 -.8963 50.79 183.267)"/><path d="M0 0h-18.895v-8.065H-.192v-6.138h-18.703v-9.31C-9.031-25.101-1.522-33.659-1.522-43.96c0-11.437-9.281-20.728-20.726-20.728-11.448 0-20.721 9.291-20.721 20.728 0 10.35 7.588 18.916 17.489 20.475v38.189h-21.303v6.838H-18.895V6.146H0Zm31.691 33.316H-75.803s-.448-49.279 1.338-65.463c3.041-27.129 52.404-53.458 52.404-53.458S27.31-59.276 30.326-32.147c1.822 16.184 1.365 65.463 1.365 65.463" style="fill:#2e4790;fill-opacity:1;fill-rule:nonzero;stroke:none" transform="matrix(.8963 0 0 -.8963 84.065 143.533)"/><path d="M0 0c2.02.262 1.401 2.826 2.408 4.114 2.71 1.824 4.611 5.28 5.856 8.225-.124.851-.925 1.485-1.674 1.536-2.695-1.793-3.525-4.536-5.286-6.804-.652 2.833-3.484 5.567-4.451 8.667-2.169.896-1.389-1.797-2.027-2.6C-5.803 7.628.196 5.313 0 0" style="fill:#927946;fill-opacity:1;fill-rule:nonzero;stroke:none" transform="matrix(.8963 0 0 -.8963 -3.836 149.4)"/><path d="M0 0c3.436 4.1 5.915 8.93 5.871 13.921-.559.967-1.702.817-2.554.417C-.13 10.255-.154 4.82 0 0" style="fill:#927946;fill-opacity:1;fill-rule:nonzero;stroke:none" transform="matrix(.8963 0 0 -.8963 -2.3 138.698)"/><path d="M0 0c-.103 5.254 8.042 9.355 4.752 14.517-1.99-1.561-4.29-4.194-4.713-6.746-2.252 2.799-3.411 7.348-7.287 9.052C-9.896 9.74-1.515 6.099 0 0" style="fill:#927946;fill-opacity:1;fill-rule:nonzero;stroke:none" transform="matrix(.8963 0 0 -.8963 -3.844 160.814)"/><path d="M0 0c2.021-4.439 9.458-6.571 8.27-12.163.304-.243.808-.627 1.217-.403.418 2.523-1.257 5.379.938 7.572-.551 2.274 1.799 3.297 1.348 5.732 1.888 1.408 1.436 4.87 1.518 7.658-.225.697-.537 2-1.645 1.547-1.617-3.43-4.054-7.531-3.533-11.563-.379-.484-.804-.693-1.238-.607C3.019.516 2.333 4.677-1.774 7.101-2.961 4.888-1.439 2.154 0 0" style="fill:#927946;fill-opacity:1;fill-rule:nonzero;stroke:none" transform="matrix(.8963 0 0 -.8963 -9.09 165.143)"/><path d="M0 0c3.479-.867 6.66-4.139 7.346-7.275l1.194-.141c-.651 2.858-1.974 6.475.317 9.115.379 5.176 2.472 9.55-.373 13.583-2.186-.132-.41-2.544-1.587-3.714-3.004-2.869-.599-6.827-1.855-9.744l-.704-.261C.586 5.791-3.072 10.47-7.468 12.833-7.929 7.221-4.188 2.992 0 0" style="fill:#927946;fill-opacity:1;fill-rule:nonzero;stroke:none" transform="matrix(.8963 0 0 -.8963 -3.888 182.49)"/><path d="M0 0c4.383-1.057 8.943-3.566 12.165-7.119.643 1.842-1.687 2.883-2.186 4.567-1.54 6.381 2.313 13.032-.913 18.936L7.6 17.513c-2.975-5.51-3.689-12.475.07-18.002-2.287.718-3.287 4.11-6.114 5.527-3.748 1.866-7.365 4.942-10.82 6.836C-9.895 6.359-4.56 2.204 0 0" style="fill:#927946;fill-opacity:1;fill-rule:nonzero;stroke:none" transform="matrix(.8963 0 0 -.8963 1.023 195.392)"/><path d="M0 0c4.572-11.876 17.175-5.026 25.083-11.946-.531 1.987-2.666 2.591-3.533 4.842.092 2.784-1.967 5.174-.728 8.098-2.086 3.686-.693 10.174-5.354 11.192.548-6.653-1.299-13.05 3.3-18.171-3.178 1.937-6.937 3.813-10.511 4.243C5.439-1.373 3.162.401.611 1.102z" style="fill:#927946;fill-opacity:1;fill-rule:nonzero;stroke:none" transform="matrix(.8963 0 0 -.8963 -.151 200.79)"/><path d="M0 0c7.354-4.942 16.341 2.937 23.567-2.164C23.345-.439 20.165.48 19.485 2.29 16.637 8.674 16.157 17.112 9.27 20.638c-1.261-1.609 1.194-2.467.525-4.042-.57-6.067 3.637-10.36 7.518-14.419C10.608 4.272 2.854 5.34-4.132 6.081-4.533 3.528-1.686 1.846 0 0" style="fill:#927946;fill-opacity:1;fill-rule:nonzero;stroke:none" transform="matrix(.8963 0 0 -.8963 13.349 217.346)"/><path d="M0 0c2.075-2.657 5.004-4.938 7.308-6.983C.557-4.612-6.7-8.601-13.852-7.746c-1.026-2.313 2.377-2.616 3.567-3.776 5.441-1.377 11.38-.783 16.014 1.846 2.604.335 5.761 2.044 8.063-.02l1.446.19c-.705 2.118-4.005 1.527-5.232 3.31C5.807-.871 4.16 6.395-3.377 9.41-3.559 6.142-1.397 2.888 0 0" style="fill:#927946;fill-opacity:1;fill-rule:nonzero;stroke:none" transform="matrix(.8963 0 0 -.8963 34.727 215.983)"/><path d="M0 0c2.338-5.714 7.583-10.335 12.762-13.042-4.092-1.244-8.649-1.09-11.911-4.285-1.782-.96-5.324-.813-5.185-2.985 7.304-3.342 14.848.677 19.957 5.578l5.191.645C12.712-11.435 9.625-2.021.748.959Z" style="fill:#927946;fill-opacity:1;fill-rule:nonzero;stroke:none" transform="matrix(.8963 0 0 -.8963 42.827 213.644)"/><path d="M0 0c-2.021.262-1.408 2.826-2.415 4.114-2.699 1.824-4.618 5.28-5.859 8.225.114.851.925 1.485 1.65 1.536 2.727-1.793 3.534-4.536 5.312-6.804.641 2.833 3.488 5.567 4.448 8.667 2.168.896 1.4-1.797 2.033-2.6C5.796 7.628-.214 5.313 0 0" style="fill:#927946;fill-opacity:1;fill-rule:nonzero;stroke:none" transform="matrix(.8963 0 0 -.8963 132.186 149.4)"/><path d="M0 0c-3.441 4.1-5.906 8.93-5.868 13.921.555.967 1.693.817 2.534.417C.111 10.255.166 4.82 0 0" style="fill:#927946;fill-opacity:1;fill-rule:nonzero;stroke:none" transform="matrix(.8963 0 0 -.8963 130.64 138.698)"/><path d="M0 0c.062 5.254-8.058 9.355-4.782 14.517 1.999-1.561 4.32-4.194 4.719-6.746 2.278 2.799 3.417 7.348 7.299 9.052C9.861 9.74 1.489 6.099 0 0" style="fill:#927946;fill-opacity:1;fill-rule:nonzero;stroke:none" transform="matrix(.8963 0 0 -.8963 132.198 160.814)"/><path d="M0 0c-2.007-4.439-9.461-6.571-8.252-12.163-.32-.243-.829-.627-1.243-.403-.387 2.523 1.27 5.379-.94 7.572.59 2.274-1.771 3.297-1.325 5.732-1.87 1.408-1.445 4.87-1.521 7.658.221.697.526 2 1.657 1.547 1.617-3.43 4.029-7.531 3.511-11.563.389-.484.795-.693 1.253-.607C-2.992.516-2.329 4.677 1.768 7.101 2.968 4.888 1.45 2.154 0 0" style="fill:#927946;fill-opacity:1;fill-rule:nonzero;stroke:none" transform="matrix(.8963 0 0 -.8963 137.418 165.143)"/><path d="M0 0c-3.473-.867-6.668-4.139-7.351-7.275l-1.201-.141C-7.9-4.558-6.55-.941-8.867 1.699c-.374 5.176-2.463 9.55.389 13.583 2.19-.132.409-2.544 1.584-3.714 3.009-2.869.623-6.827 1.859-9.744l.701-.261c3.732 4.228 7.418 8.907 11.811 11.27C7.946 7.221 4.193 2.992 0 0" style="fill:#927946;fill-opacity:1;fill-rule:nonzero;stroke:none" transform="matrix(.8963 0 0 -.8963 132.226 182.49)"/><path d="M0 0c-4.366-1.057-8.939-3.566-12.17-7.119-.631 1.842 1.681 2.883 2.186 4.567 1.533 6.381-2.308 13.032.925 18.936l1.434 1.129c2.982-5.51 3.722-12.475-.046-18.002 2.281.718 3.305 4.11 6.111 5.527C2.181 6.904 5.8 9.98 9.259 11.874 9.883 6.359 4.542 2.204 0 0" style="fill:#927946;fill-opacity:1;fill-rule:nonzero;stroke:none" transform="matrix(.8963 0 0 -.8963 127.324 195.392)"/><path d="M0 0c-4.567-11.876-17.183-5.026-25.094-11.946.552 1.987 2.68 2.591 3.545 4.842-.088 2.784 1.974 5.174.714 8.098 2.101 3.686.701 10.174 5.374 11.192-.544-6.653 1.283-13.05-3.308-18.171 3.188 1.937 6.909 3.813 10.491 4.243 2.827.369 5.103 2.143 7.685 2.844z" style="fill:#927946;fill-opacity:1;fill-rule:nonzero;stroke:none" transform="matrix(.8963 0 0 -.8963 128.49 200.79)"/><path d="M0 0c-7.364-4.942-16.329 2.937-23.556-2.164.206 1.725 3.402 2.644 4.071 4.454 2.859 6.384 3.326 14.822 10.202 18.348 1.259-1.609-1.174-2.467-.498-4.042.56-6.067-3.659-10.36-7.532-14.419C-10.604 4.272-2.854 5.34 4.123 6.081 4.542 3.528 1.699 1.846 0 0" style="fill:#927946;fill-opacity:1;fill-rule:nonzero;stroke:none" transform="matrix(.8963 0 0 -.8963 114.992 217.346)"/><path d="M0 0c-2.118-2.657-5.018-4.938-7.335-6.983 6.76 2.371 14.018-1.618 21.152-.763 1.037-2.313-2.375-2.616-3.551-3.776-5.447-1.377-11.384-.783-16.02 1.846-2.603.335-5.753 2.044-8.072-.02l-1.443.19c.724 2.118 4.013 1.527 5.248 3.31C-5.813-.871-4.197 6.395 3.373 9.41 3.563 6.142 1.382 2.888 0 0" style="fill:#927946;fill-opacity:1;fill-rule:nonzero;stroke:none" transform="matrix(.8963 0 0 -.8963 93.628 215.983)"/><path d="M0 0c-2.326-5.714-7.588-10.335-12.781-13.042 4.099-1.244 8.668-1.09 11.926-4.285 1.79-.96 5.306-.813 5.192-2.985-7.298-3.342-14.849.677-19.955 5.578l-5.189.645C-12.714-11.435-9.628-2.021-.757.959z" style="fill:#927946;fill-opacity:1;fill-rule:nonzero;stroke:none" transform="matrix(.8963 0 0 -.8963 85.514 213.644)"/><path d="M0 0v13.637h-8.23V0h-49.574v-17.054h8.233v9.695h24.245v-9.695h7.351v9.695H9.731v-9.695h7.363v9.695h25.105v-9.695h7.367V0Z" style="fill:#927946;fill-opacity:1;fill-rule:nonzero;stroke:none" transform="matrix(.8963 0 0 -.8963 68.26 93.5)"/><path d="m0 0 .933 3.956 7.346-1.738.497 2.116-14.733 3.48 1.228 5.209 14.74-3.48.497 2.114-16.301 3.861a.903.903 0 0 1-1.086-.671l-1.835-7.691a.903.903 0 0 1 .671-1.084l6.43-1.516L-2.55.6l-8.32 1.967-.485-2.069L7.83-4.035l.493 2.069Z" style="fill:#927946;fill-opacity:1;fill-rule:nonzero;stroke:none" transform="matrix(.8963 0 0 -.8963 39.799 258.806)"/><path d="m0 0 .933 3.956 7.346-1.738.497 2.116-14.733 3.48 1.228 5.209 14.74-3.48.497 2.114-16.301 3.861a.903.903 0 0 1-1.086-.671l-1.835-7.691a.903.903 0 0 1 .671-1.084l6.43-1.516L-2.55.6l-8.32 1.967-.485-2.069L7.83-4.035l.493 2.069Z" style="fill:#927946;fill-opacity:1;fill-rule:nonzero;stroke:none" transform="matrix(.8963 0 0 -.8963 39.799 258.806)"/><path d="m0 0 1.043 1.826-17.155 9.787-1.043-1.828 7.402-4.219-.666-1.167-6.52 3.723-1.025-1.804 13.222-7.545-1.71-2.991 2.135-1.209 2.302 4.029.004.003v.005a.861.861 0 0 1-.32 1.173h-.002l-5.886 3.36.668 1.166zm-10.457 13.958L.392 7.766l-.687-1.199-10.849 6.187Zm-3.184-2.191L.087 3.928a.875.875 0 0 1 1.182.322l2.819 4.938-2.18 1.244-.489-.86-10.846 6.191.489.856-2.208 1.262-2.819-4.932.004-.005a.861.861 0 0 1 .32-1.177" style="fill:#927946;fill-opacity:1;fill-rule:nonzero;stroke:none" transform="matrix(.8963 0 0 -.8963 23.073 249.611)"/><path d="m0 0 .831-2.915-1.252-.366-.866 2.926-2.427-.718 2.582-8.884-7.473-2.163-1.756 6.055 6.643 1.924-.577 2.007-8.333-2.41c-.505-.15-.69-.675-.57-1.086l2.397-8.276c.099-.346.612-.864 1.019-.747l9.24 2.673 1.407-4.838 2.434.711L.158-5.282l1.257.358 3.136-10.822 2.447.715L2.444.706z" style="fill:#927946;fill-opacity:1;fill-rule:nonzero;stroke:none" transform="matrix(.8963 0 0 -.8963 93.503 244.273)"/></g></svg>