<svg xmlns="http://www.w3.org/2000/svg" width="178.3181mm" height="178.3181mm" viewBox="0 0 178.3181 178.3181"><g transform="translate(-31.233 -63.352)"><circle cx="120.39199" cy="152.5106" r="89.15905" style="fill:#fff;stroke-width:.999998"/><g style="stroke-width:.261471"><g style="stroke-width:.261471"><path d="M0 0c0 34.952 28.435 63.388 63.387 63.388 34.951 0 63.386-28.436 63.386-63.388 0-34.951-28.435-63.386-63.386-63.386C28.435-63.386 0-34.951 0 0m-1.5 0c0-35.778 29.108-64.886 64.887-64.886 35.778 0 64.886 29.108 64.886 64.886 0 35.779-29.108 64.888-64.886 64.888C27.608 64.888-1.5 35.779-1.5 0" style="fill:#918f90;fill-opacity:1;fill-rule:nonzero;stroke:none;stroke-width:.261471" transform="matrix(1.3492 0 0 -1.3492 34.932 152.34)"/></g><g style="stroke-width:.261471"><path d="M0 0c0 34.035 27.689 61.724 61.724 61.724 34.034 0 61.722-27.689 61.722-61.724S95.758-61.724 61.724-61.724C27.689-61.724 0-34.035 0 0m-.804 0c0-34.478 28.05-62.528 62.528-62.528 34.477 0 62.526 28.05 62.526 62.528 0 34.478-28.049 62.528-62.526 62.528C27.246 62.528-.804 34.478-.804 0" style="fill:#918f90;fill-opacity:1;fill-rule:nonzero;stroke:none;stroke-width:.261471" transform="matrix(1.3492 0 0 -1.3492 37.175 152.338)"/></g><g style="stroke-width:.261471"><path d="M0 0c-.376-.291-.58-.663-.61-1.117-.032-.454.121-.854.454-1.201a1.728 1.728 0 0 1 1.165-.554c.459-.032.868.101 1.228.392.377.298.581.675.612 1.129.03.455-.122.852-.455 1.189a1.72 1.72 0 0 1-1.166.545A1.756 1.756 0 0 1 0 0m3.446.794c.637-.616.926-1.356.868-2.227-.059-.87-.446-1.571-1.161-2.101-.661-.493-1.418-.714-2.273-.655-.849.056-1.561.376-2.135.953-.605.609-.879 1.355-.819 2.234.058.871.428 1.566 1.11 2.094.649.486 1.395.702 2.244.644.854-.058 1.576-.373 2.166-.942M1.374 6.129l-.043-.649C1.228 3.945.558 2.855-.685 2.211c-.913-.482-2.066-.699-3.451-.651l.098 1.43c1.066-.01 2.003.089 2.712.544.613.393.895.836.979 1.389l-3.549.239.088 1.316z" style="fill:#7b7979;fill-opacity:1;fill-rule:nonzero;stroke:none;stroke-width:.261471" transform="matrix(1.3492 0 0 -1.3492 115.41 225.928)"/></g><g style="stroke-width:.261471"><path d="m0 0-.087-1.285s1.36-.09 1.474-.099l-.039-.579-1.473.1-.088-1.283 1.475-.099-.098-1.443 1.455-.097.311 4.588z" style="fill:#7b7979;fill-opacity:1;fill-rule:nonzero;stroke:none;stroke-width:.261471" transform="matrix(1.3492 0 0 -1.3492 118.118 217.716)"/></g><g style="stroke-width:.261471"><path d="m0 0-5.26-.794.261-1.739 5.262.794zm-6.899.288 8.131 1.227.654-4.344-7.37-1.111c-.256-.04-.457-.002-.595.111-.15.115-.25.33-.297.637zm-1.202 5.246 1.442.217.433-2.872 5.649.851-.433 2.871 2.722.41.195-1.301-1.279-.193.521-3.457-1.441-.215-.088.583-6.345-.957c-.265-.04-.463-.003-.595.112-.142.119-.236.338-.284.659Z" style="fill:#7b7979;fill-opacity:1;fill-rule:nonzero;stroke:none;stroke-width:.261471" transform="matrix(1.3492 0 0 -1.3492 135.138 225.233)"/></g><g style="stroke-width:.261471"><path d="m0 0 .479-1.23-6.304-2.452.622-1.6L1.1-2.832l.478-1.229-2.954-1.149.559-1.436 3.472 1.353.477-1.226-8.683-3.377-.475 1.226 3.849 1.497-.556 1.435-2.646-1.029c-.243-.094-.445-.104-.605-.024-.163.078-.3.264-.416.56l-1.263 3.249z" style="fill:#7b7979;fill-opacity:1;fill-rule:nonzero;stroke:none;stroke-width:.261471" transform="matrix(1.3492 0 0 -1.3492 149.797 211.158)"/></g><g style="stroke-width:.261471"><path d="m0 0-4.41-2.98.48-.713L.481-.712zm-6.692-2.206 1.206.814.399-.588L-.677.999l-.399.591 1.197.809 2.26-3.345-6.176-4.173c-.215-.145-.411-.197-.586-.158-.185.041-.366.193-.543.455zm.44 5.802-3.332-2.251-.656.97 4.56 3.081 1.666-2.464-3.33-2.25.383-.568L-2.247 3.3l-2.051 3.031 1.21.817L-.18 2.845l-1.208-.816-.204.301-5.305-3.586c-.216-.145-.415-.194-.593-.148-.189.049-.373.205-.549.467L-9.208.789l3.333 2.251z" style="fill:#7b7979;fill-opacity:1;fill-rule:nonzero;stroke:none;stroke-width:.261471" transform="matrix(1.3492 0 0 -1.3492 166.028 213.192)"/></g><g style="stroke-width:.261471"><path d="m0 0 .943-.895S1.881.096 1.961.178l4.082-3.871 1.003 1.056-5.067 4.809L-.047.045Z" style="fill:#7b7979;fill-opacity:1;fill-rule:nonzero;stroke:none;stroke-width:.261471" transform="matrix(1.3492 0 0 -1.3492 169.217 196.314)"/></g><g style="stroke-width:.261471"><path d="m0 0-3.496-3.687.955-.906 2.407 2.538.127-.125c1.5-1.424 1.665-3.687.339-5.149l1.039-.982c1.954 2.062 1.781 5.326-.344 7.34z" style="fill:#7b7979;fill-opacity:1;fill-rule:nonzero;stroke:none;stroke-width:.261471" transform="matrix(1.3492 0 0 -1.3492 168.521 196.928)"/></g><g style="stroke-width:.261471"><path d="M0 0s4.133-1.38 4.254-1.418c-.04-.115-1.176-3.519-1.214-3.634-.117.037-2.888.962-3.003 1l.917 2.747-1.25.418-1.386-4.153 4.748-1.582c.288-.097.524-.077.704.06.138.102.251.287.341.562l1.391 4.165 1.121-.373.433 1.293L1.685.877l.268.807L7.331-.11l.462 1.384-6.63 2.212Z" style="fill:#7b7979;fill-opacity:1;fill-rule:nonzero;stroke:none;stroke-width:.261471" transform="matrix(1.3492 0 0 -1.3492 183.04 171.396)"/></g><g style="stroke-width:.261471"><path d="M0 0a1.165 1.165 0 0 0-.826.451 1.201 1.201 0 0 0-.267.887c.031.314.18.584.44.804.269.227.565.321.901.286.315-.032.588-.188.801-.46A1.169 1.169 0 0 0 .877.277 1.166 1.166 0 0 0 0 0m-.846 4.303-1.31.134-.223-2.192-.996.102-.148-1.449.996-.101-.236-2.301 1.311-.135.071.704c.17-.135.34-.244.503-.323a2.12 2.12 0 0 1 .683-.187c.768-.08 1.437.133 1.994.631.521.469.823 1.07.896 1.782a2.593 2.593 0 0 1-.522 1.893c-.445.584-1.06.92-1.827.998a1.942 1.942 0 0 1-.707-.058 2.65 2.65 0 0 1-.558-.211Z" style="fill:#7b7979;fill-opacity:1;fill-rule:nonzero;stroke:none;stroke-width:.261471" transform="matrix(1.3492 0 0 -1.3492 188.577 162.992)"/></g><g style="stroke-width:.261471"><path d="m0 0 1.312-.134s.699 6.84.71 6.962L4.8 6.545l.148 1.45-4.09.418z" style="fill:#7b7979;fill-opacity:1;fill-rule:nonzero;stroke:none;stroke-width:.261471" transform="matrix(1.3492 0 0 -1.3492 192.576 165.136)"/></g><g style="stroke-width:.261471"><path d="m0 0 .148 1.452s-3.322.338-3.445.352l.138 1.342-1.31.133-.293-2.792z" style="fill:#7b7979;fill-opacity:1;fill-rule:nonzero;stroke:none;stroke-width:.261471" transform="matrix(1.3492 0 0 -1.3492 192.309 155.617)"/></g><g style="stroke-width:.261471"><path d="M0 0c.1-.453.031-.878-.202-1.274a1.725 1.725 0 0 0-1.016-.793c-.459-.143-.886-.1-1.277.131-.393.231-.633.581-.726 1.048-.091.456-.019.877.21 1.269a1.73 1.73 0 0 0 1.008.799c.453.145.877.104 1.268-.127C-.343.821-.099.469 0 0m-2.384 2.547c-.774-.27-1.379-.776-1.813-1.513-.433-.731-.575-1.499-.43-2.293.164-.846.62-1.491 1.372-1.932.76-.447 1.549-.538 2.365-.27.774.254 1.377.747 1.811 1.481.433.738.576 1.515.433 2.326-.153.877-.609 1.539-1.36 1.978-.751.446-1.544.518-2.378.223" style="fill:#7b7979;fill-opacity:1;fill-rule:nonzero;stroke:none;stroke-width:.261471" transform="matrix(1.3492 0 0 -1.3492 187.84 189.21)"/></g><g style="stroke-width:.261471"><path d="m0 0 .739 1.255-2.828 1.668.686 1.162-1.137.67-1.424-2.42z" style="fill:#7b7979;fill-opacity:1;fill-rule:nonzero;stroke:none;stroke-width:.261471" transform="matrix(1.3492 0 0 -1.3492 183.553 186.193)"/></g><g style="stroke-width:.261471"><path d="M0 0c-.441-.59-.809-.832-1.508-.991-.338-.077-.848.003-1.295.198l1.069 1.814-1.114.656-1.121-1.904-.801.471-.736-1.252.799-.471-1.122-1.905 1.112-.655s.999 1.693 1.071 1.812c.384-.296.705-.703.799-1.035.201-.689.167-1.129-.135-1.799l-.022-.055 1.192-.702.033.056c.251.443.416.94.49 1.477.096.676-.186 1.445-.505 1.931.581-.041 1.39.084 1.935.495.432.327.789.713 1.052 1.145l.036.057L.036.045z" style="fill:#7b7979;fill-opacity:1;fill-rule:nonzero;stroke:none;stroke-width:.261471" transform="matrix(1.3492 0 0 -1.3492 181.07 186.964)"/></g><g style="stroke-width:.261471"><path d="m0 0 1.587-.518L2.912.496 2.91-1.172l1.372-.947-1.587-.513-.477-1.598-.978 1.351-1.669-.041.984 1.349Z" style="fill:#7b7979;fill-opacity:1;fill-rule:nonzero;stroke:none;stroke-width:.261471" transform="matrix(1.3492 0 0 -1.3492 95.854 218.644)"/></g><g style="stroke-width:.261471"><path d="M0 0c-2.034-2.022-2.43-5.123-.951-7.206 1.578-2.233 4.924-2.768 7.59-.865C9.593-5.946 10.229-1.975 7.92.391 5.803 2.559 2.23 2.223 0 0" style="fill:#1c63ab;fill-opacity:1;fill-rule:nonzero;stroke:none;stroke-width:.261471" transform="matrix(1.3492 0 0 -1.3492 140.148 126.263)"/></g><g style="stroke-width:.261471"><path d="M0 0c-.32-.464-.82-.698-1.055-1.213-.093-.208-.17-.408-.288-.619-.098-.177-.19-.649-.113-.745.415-.236.757.622.97.906C-.132-1.198.535-.658.586-.043.434.06.141.032 0 0m-35.346 49.078c.227.71.611 1.098.611 1.098.555.468-.07-.45.395-.239l.215.256c.641.388.933 1.351 1.734 1.37.207.18.086.344.296.526.459-.091.679.453 1.091.598.203.392.799.593.807.902.349-.029.162.548.548.566.055-.029.48.243.787.465.106.074.302.039.324.122-.005.843.993.095 1.102.89.198.296.256.658.644.945.438-.101.383.387.868.286.189.081.649.288.945.505.296.217.653.259.686.382.055.196.826.362.4.53-.177.073.081.164-.126.089-.093-.121-.315-.04-.515-.114-.32-.115-.55-.371-.547-.246.083.311-.091.162-.091.162a9.424 9.424 0 0 1-1.122-.553c-.509-.303-1.103-.451-1.216-.872-.421.222-.926-.515-1.269-.767-.267-.189-.684-.091-.938-.265-.822-.549-1.537-.902-2.357-1.621-.197-.181-.081-.533-.26-.707-.18-.176-.627-.015-1.009-.166-.188-.075-.495-.639-.7-.752-.48-.048-1.275-.989-1.915-1.667l-.965-1.212c-.313-.725 1.425-.837 1.577-.511m14.627-23.696c1.973-1.164 9.396-3.528 16.744-2.384-1.209-2.935-4.193-6.727-7.56-9.013-5.867-3.982-14.174-3.38-18.178.938-2.029 2.305-3.469 5.441-3.328 9.139.018.433-.197.886-.229 1.334-.086 1.287.334.841.185 2.218-.052.219-.046.549-.05.627-.004.269.492.575.319 1.213-.103.378.189.252.279.309.349.226-.33 1.045-.24 1.459.085.384.342-.034.545.303.269.454.66 1.87.82 2.392.101.744.695 1.164.853 1.791.1.389-.011.759.149 1.067.103.212.5.048.591.275.197.449.288 1.091.511 1.543.152.303.431.407.594.711.061.107-.103.209-.034.351.25.514.828 1.018.828 1.018.098.166.196.333.299.499.201.311.113.847.096.863.402.623.8.339 1.243.952.036.028.477.707.516.731.22.288.336 1.105.524 1.457.409.537.681.937.894.99.235.059.325-.024.752.34.091.101.188.203.313.299.268.218.754.787.957 1.138.135.235.019.278.078.424.219.297.66.332.904.641-.01.056.317.453.239.439.349.441.423.449.802.843-.027.523.895.114.988.523.348.59-.108.684.46 1.015.351.258.698.358 1.148.543.44.183.743.236.762.412-.145.286.334.414.515.432.385.147.311.809.746.869.475.215.937.709 1.418.641.244.596 1.151.277 1.438.882.515.187.934 1.143 1.603 1.457.843.391 1.658.569 1.633.796-.033.173.836-.001 1.154.264.096.125.266.492.153.529-.132.023.035.161.07.167.272.027.389-.338.681-.309.021-.017 1.869.708 1.8.998.004.255.92.339 1.093.145.162-.15.299.182.573.311.326.154.623.219.632.269.036.19 1.459.291 1.525.461.065.162 1.212.005 1.212.005.743.23.024.437-.143.678-.454.148-1.053.067-1.477.415-.515-.264-.394.494-.919.152-.227.004-.529-.189-.617 0-.336-.225-.652-.029-.838-.194-.371-.409-.47-.182-.577-.2-.05.071-.431-.022-.574-.135-.109-.088-.239-.021-.147.051.317.249.136.273.136.273-.228.085-.615-.024-.907-.104-.254-.135-.627-.014-.871-.118-.056-.026-.027-.047-.077-.105-.019-.018-.472-.16-.487-.143.029.108-.165.015-.165.021 0 .016-.382-.113-.513-.139-.166-.033-.367-.111-.379-.091-.121.037-.637-.157-.898-.297-.065-.034.07-.096.006-.127a3.586 3.586 0 0 0-.289-.137c-.305-.126-.616-.068-.628-.133-.07-.074-.232-.097-.465-.052-.644-.385-.892-.204-1.601-.442-.121-.016-.363-.174-.061-.169.098-.157-.382-.216-.526-.289-.708.056-1.541-1.153-1.927-.911-.013 0-.13.24-.138.238-.153.068-.824-.648-1.4-.949-.192-.104-.189-.412-.419-.477-.189-.059-.591.057-.738-.133-.064-.08-.072-.096-.17-.115-.127-.028-.092-.033-.17-.158-.044-.068-.105-.137-.156-.209-.039-.06-.014-.076-.082-.099-.068-.03-.498-.144-.57-.217a.837.837 0 0 0-.244-.164c-.098-.04-.168-.065-.254-.13-.03-.019-.097-.089-.125-.097-.067-.027-.104-.031-.164-.07-.045-.026-.565-.588-.706-.676-.11-.062-.061-.318-.184-.332-.146-.022-.235.003-.352-.13-.096-.108-.115-.282-.196-.399-.082-.113-.137-.038-.253-.049-.266-.018-.319-.26-.507-.422-.097-.085-.418.05-.537.025-.687-.145-.896-.864-1.041-.939-.285-.149-.475-.772-.846-.563.023.09 0 .176.083.192.014.194-.227.205-.304.092-.099-.148-.128-.364-.237-.51-.08-.108-.197-.188-.277-.305-.081-.12-.121-.25-.266-.299-.141-.041-.282.08-.425.043-.084-.017-.162-.078-.24-.132-.255-.185-.474-.424-.726-.613-.077-.054-.162-.092-.24-.14-.043-.025-.077-.066-.123-.012-.036.042-.028.116-.024.171.006.107.055.196.092.289.081.193.137.496.292.623.063.055.071.148.155.172.1.027.121.178.227.146.174-.049.232.055.385.143.121.073.232.099.277.273.057.187.096.2.195.346.047.072.108.088.155.174.093.189.192.224.38.274.074.017.098.105.171.115.084.014.12-.032.185.046.159.186.226.252.258.455.044.273.082.311.252.317.183.005.48.178.658.027.067.096.14.071.209.166.15.218.334.328.551.481.201.142.152.323.367.419.024.01.128.042.147.062.069.074.364.114.404.216.059.137.108.28.236.329.105.04.3-.032.412-.021.116.024.232.045.348.071.046.007.14.004.181.033.073.049.138.186.21.247a.404.404 0 0 0 .13.077c.09.039.109.096.175.161.249.225.608.162.845.386.151.15.34.16.471.328.106.135.202.328.347.425.072.045.149.064.217.123.118.106.142.235.297.235.121.003.239-.048.356.012.146.083.251.388.417.459.736.336 1.488.802 1.77.951.037.13.33.387.487.288.37.032.767.235.862.242.358.013.768.207.769.652.357.252.333-.184.639-.086.136.502.477.191.725.311.396.496.124-.207.533.247.397-.072.745.298.818.232.349.405.135-.081.633.245.299.367.433.399.433.399-.429.236-1.928-.026-2.373-.138-.395-.267-.649-.314-1.35-.399-.795-.096-.993-.2-1.258-.367-.079-.382-.297-.02-.582-.192-.203.033-.883-.432-.913-.176-.326-.338-.6-.152-.778-.767-.339-.242-.156.222-.366.252-.447-.223-.534-.195-.923-.51-.382.041-.654-.682-1.059-.629.191-.536-.397-.285-.561-.492-.558.022-.913-.326-1.412-.488-.142-.094-.274-.768-.527-.879-.101-.006-.482-.051-.319.279-.049.199-.305.058-.445.086-.426-.927-1.957-1.262-2.287-1.714 0 0-.073-.192-.317-.192-.231.027-.892-.306-.675-.386.289.063.149-.194.149-.194-.017-.018-.034-.067-.046-.148-.357-.206-.904-.868-1.281-.856-.195-.028.066-.329-.33-.614-.27-.192-1.176-.347-1.442-.513-.017-.014-.234-.151-.318-.304-.173-.329-.047-.342-.21-.501-.321-.315-.867-.54-.92-.587-.264-.219-.4-.101-.4-.101-.478-.047-.563-.787-1.652-1.94-.097-.107-.257-.472-.363-.577-.213-.232-.451-.004-.667-.235-1.171-1.249-2.299-2.576-2.393-2.738-.042-.018.091-.366.056-.328.148-.809-2.367-3.203-2.487-3.474-.679.04-.548-.663-.978-.955-.136-.419-.383-.983-.84-1.266-.014-.598-.076-.829-.687-1.384-.034-.425-1.029-1.7-1.139-2.134-.734-1.754-1.262-2.631-1.486-3.22-.07-.19-.258-.489-.418-.452-.27.066-.395.505-.256.864.153.388 1.175 2.457 1.454 3.139.101.257.316.507.355.654.074.289.001.371-.092.371a.319.319 0 0 1-.186-.084c-.077-.126-.138-.362-.201-.455-.485-.745-.508-.412-.563-.218-.058.163.18.347.304.62.113.26.253.549.403.822.336.622.781.756.878.738.478-.013-.053 1.096.56 1.295.26.006.209.258.421.483.092.08.636.778 1.255 1.783.167.267.247.795.434 1.054.234.321.75.418.99.684.578.628.094 1.841.556 2.093.161.329.153.713-.125.686-.2-.072-.409.613.492.824.421.239-.283.351-.502.321-.667.058-1.044-.823-1.792-1.524-.369-.31-.447-.111-.72-.288a.948.948 0 0 1-.304-.479c-.146-.309-.984-1.488-1.244-1.652-.26-.166-.394-.369-.637-.689-.287-.374-.459-.853-.537-1.234.061-.127-.611-.984-.754-.916-.127.183-.351-.273-.508-.448-.214-.247-.282-.736-.444-.974-.149-.228-.364-.745-.047-.675.363-.002-.019-.662-.2-.843-.119-.165-.324.107-.472.004-.257-.177-.499-.657-.743-1.189-.122-.193-.046-.329.018-.411.059-.061-.184-.528-.252-.66-.311-.648-.857-.401-1.284-1.282-.344-.601-.504-1.232-.696-1.831a1.052 1.052 0 0 1-.223-.329c-2.182-5.89-3.292-11.765-2.409-19.258 1.032-8.766 7.673-16.97 20.208-18.201C-17.185-5.018-7.71 3.192-3.537 9.402-4.1 5.95-8.098-.748-10.225-3.507c-.238-.312-.071-.664-.386-1.177-.255-.421-.875-1.186-1.109-1.622-.162-.308-.469-.504-.569-.808-.119-.358-.248-.211-.502-.523-.676-.828-1.3-2.101-2.056-2.835-.221-.218-.362-.442-.533-.695-.155-.225-.361-.406-.563-.602-.168-.164-.434-.825-.317-1.073.066-.153.986.57.975.312.027-.051.028-.098.015-.162-.397-.544-1.368-1.145-1.99-1.746-.324-.311-.603-.661-.894-1.007-.121-.143-1.139-1.098-.43-.98.236.041.495.269.691.408.186.127.368.229.547.341.366.228.711.445 1.068.713.224.171.407.264.687.327.364.084.531.348.825.6.23.199.146.279.349.51.073.082.142.197.229.259.126.091.178.055.322.098.5.148.808.819 1.213 1.115.238.18.219.065.43.264.2.191.598.683.772.902.185.234.836.247.974.498.109.202.122.282.272.475.404.518.584.623 1.077.978.151.108.239.401.384.46.383.163.223-.717.11-.877-.114-.163-.413-.131-.505-.313-.118-.227 0-.234-.16-.438-.177-.233-.303-.489-.498-.693-.247-.263-.641-.449-.901-.699-.238-.225-.495-.397-.734-.623-.257-.242-.441-.547-.668-.836-.158-.199-.257-.428.063-.428.27 0 .584.282.801.467.494.433 1.021.781 1.559 1.136.29.186.501.53.716.786.248.289.252.535.531.801.481.454.833 1.027 1.369 1.458.206.165.377.303.561.488.163.167.331.302.488.479.246.279.74.292.944.598.271.401 1.305 1.024 1.281 1.598.191.287.282.492.697.69.33.154 1.518 1.209 1.621 1.564.088.295-.131.656-.418.427-.177-.137-.041-.045-.229-.191-.077-.086-.89-.229-1.135-.544-.266-.343-.516-.849-.792-1.185-.176-.219-.348-.279-.527-.442-.254-.347-.432-.508-.625-.911-.193-.411-.758-.288-1.116-.556-.093-.072-.187-.13-.279-.198-.086-.05-.194-.105-.26-.152-.154-.113-.209-.548-.427-.44-.216.182-.055.596.035.605.266.024.314.453.482.613.084.083.158.1.305.166.156.073.068.371.389.453.138.007.332.062.41.137.079.071-.1.157-.015.237.232.221.13-.007.292.269.164.281.354.428.56.663.07.078.106.189.196.264.127.104.246.116.369.23.347.318 1.75 1.662 1.932 2.091.121.286-.087.467-.061.768.028.275.697.229.754.494.113.2.402.082.506.22.099.14.124.403.204.579.22.496.855.52.944 1.032.083.484.501.815.665 1.299.081.232.194.27.355.429.103.102.285.384.403.389.078-.014.123-.149.116-.231-.02-.251-.362-.674-.509-.926-.203-.334-.2-.511-.323-.943C.687 1.179.693.79.69.667c.279-.135.783.504.851.668.14.34.848.318 1.011.644.177.356.319.762.522 1.118.212.377 1.859 2.156 1.776 2.853-.116.237.595.844.664 1.025.134.372.518 1.212.756 1.749 2.553 5.623 4.959 13.67 4.935 21.552-.068 1.406-.266 5.598-5.922 2.414-4.428-2.488-7.243-3.433-12.11-4.291-6.476-1.143-12.163-.931-13.443-1.06-1.289-.125-1.488-.436-1.51-.762-.04-.562 1.061-1.195 1.061-1.195" style="fill:#1c63ab;fill-opacity:1;fill-rule:nonzero;stroke:none;stroke-width:.261471" transform="matrix(1.3492 0 0 -1.3492 136.638 187.645)"/></g><g style="stroke-width:.261471"><path d="M0 0c1.277-1.649 3.975-4.191 6.14-5.165 3.101-1.394 4.909-1.63 8.027-1.39 2.174.163 3.631.539 5.91-.187.267-.1.185.158.137.25-1.542 3.141-4.819 5.871-7.549 7.216-4.078 2.01-8.571 1.095-12.801.929C-1.076 1.616-.837 1.078 0 0" style="fill:#66c76b;fill-opacity:1;fill-rule:nonzero;stroke:none;stroke-width:.261471" transform="matrix(1.3492 0 0 -1.3492 162.47 132.727)"/></g><g style="stroke-width:.261471"><path d="M0 0c2.056-.42 5.661-.528 8.059.334 4.51 1.374 6.467 5.212 10.717 5.745.205-.005-.002.166-.101.233C13.481 9.979 2.824 8.639-1.354 1.105-1.544.767-1.71.359 0 0" style="fill:#66c76b;fill-opacity:1;fill-rule:nonzero;stroke:none;stroke-width:.261471" transform="matrix(1.3492 0 0 -1.3492 163.041 125.37)"/></g><g style="stroke-width:.261471"><path d="M0 0c.123 2.515-1.146 3.609-1.084 6.84.052 2.694 1.48 4.225 2.722 5.492 1.125 1.153 2.25 2.23 2.863 4.636.055.26.182-.006.227-.127C7.155 10.63 5.79 6.366 3.036 2.566 2.153 1.347-.044-.891 0 0" style="fill:#66c76b;fill-opacity:1;fill-rule:nonzero;stroke:none;stroke-width:.261471" transform="matrix(1.3492 0 0 -1.3492 157.52 119.17)"/></g><g style="stroke-width:.261471"><path d="M0 0c.244-1.534 3.101-3.712 3.676-5.626.77-2.566-.08-4.64-.503-5.978 0 0-.128-.457-.471-.287C-2.191-9.442-2.425-4.056-.192-.003c0 0 .165.346.192.003" style="fill:#66c76b;fill-opacity:1;fill-rule:nonzero;stroke:none;stroke-width:.261471" transform="matrix(1.3492 0 0 -1.3492 146.618 101.299)"/></g><g style="stroke-width:.261471"><path d="M0 0c8.459-6.062 3.152-11.311 4.047-14.407.058-.185-.172-.12-.264-.071C-3.354-10.615.819-4.013-.94-.045c0 0-.473 1.037.94.045" style="fill:#66c76b;fill-opacity:1;fill-rule:nonzero;stroke:none;stroke-width:.261471" transform="matrix(1.3492 0 0 -1.3492 159.722 137.31)"/></g><text style="font-variant:normal;font-weight:400;font-stretch:condensed;font-size:8.92034px;font-family:&quot;Myriad Pro&quot;;writing-mode:lr-tb;fill:#918f90;fill-opacity:1;fill-rule:nonzero;stroke:none;stroke-width:.261471" transform="matrix(-.99267 -.89126 .90945 -1.01292 76.38 201.717)"><tspan x="0" y="0" style="stroke-width:.261471">U</tspan></text><text style="font-variant:normal;font-weight:400;font-stretch:condensed;font-size:8.9206px;font-family:&quot;Myriad Pro&quot;;writing-mode:lr-tb;fill:#918f90;fill-opacity:1;fill-rule:nonzero;stroke:none;stroke-width:.261471" transform="matrix(-.8898 -.99391 1.0142 -.90797 70.657 196.537)"><tspan x="0" y="0" style="stroke-width:.261471">n</tspan></text><text style="font-variant:normal;font-weight:400;font-stretch:condensed;font-size:8.93311px;font-family:&quot;Myriad Pro&quot;;writing-mode:lr-tb;fill:#918f90;fill-opacity:1;fill-rule:nonzero;stroke:none;stroke-width:.261471" transform="matrix(-.81576 -1.05316 1.07465 -.83242 66.306 191.575)"><tspan x="0" y="0" style="stroke-width:.261471">i</tspan></text><text style="font-variant:normal;font-weight:400;font-stretch:condensed;font-size:8.94407px;font-family:&quot;Myriad Pro&quot;;writing-mode:lr-tb;fill:#918f90;fill-opacity:1;fill-rule:nonzero;stroke:none;stroke-width:.261471" transform="matrix(-.74566 -1.10194 1.12443 -.76088 64.572 189.414)"><tspan x="0" y="0" style="stroke-width:.261471">v</tspan></text><text style="font-variant:normal;font-weight:400;font-stretch:condensed;font-size:8.9579px;font-family:&quot;Myriad Pro&quot;;writing-mode:lr-tb;fill:#918f90;fill-opacity:1;fill-rule:nonzero;stroke:none;stroke-width:.261471" transform="matrix(-.64693 -1.16032 1.184 -.66013 61.423 184.778)"><tspan x="0" y="0" style="stroke-width:.261471">e</tspan></text><text style="font-variant:normal;font-weight:400;font-stretch:condensed;font-size:8.96865px;font-family:&quot;Myriad Pro&quot;;writing-mode:lr-tb;fill:#918f90;fill-opacity:1;fill-rule:nonzero;stroke:none;stroke-width:.261471" transform="matrix(-.55852 -1.2036 1.22817 -.56991 58.55 179.548)"><tspan x="0" y="0" style="stroke-width:.261471">r</tspan></text><text style="font-variant:normal;font-weight:400;font-stretch:condensed;font-size:8.97699px;font-family:&quot;Myriad Pro&quot;;writing-mode:lr-tb;fill:#918f90;fill-opacity:1;fill-rule:nonzero;stroke:none;stroke-width:.261471" transform="matrix(-.47884 -1.23614 1.26137 -.48861 56.89 176)"><tspan x="0" y="0" style="stroke-width:.261471">s</tspan></text><text style="font-variant:normal;font-weight:400;font-stretch:condensed;font-size:8.98326px;font-family:&quot;Myriad Pro&quot;;writing-mode:lr-tb;fill:#918f90;fill-opacity:1;fill-rule:nonzero;stroke:none;stroke-width:.261471" transform="matrix(-.40874 -1.26009 1.2858 -.4171 55.22 171.615)"><tspan x="0" y="0" style="stroke-width:.261471">i</tspan></text><text style="font-variant:normal;font-weight:400;font-stretch:condensed;font-size:8.98821px;font-family:&quot;Myriad Pro&quot;;writing-mode:lr-tb;fill:#918f90;fill-opacity:1;fill-rule:nonzero;stroke:none;stroke-width:.261471" transform="matrix(-.3442 -1.27847 1.30456 -.35122 54.342 168.953)"><tspan x="0" y="0" style="stroke-width:.261471">t</tspan></text><text style="font-variant:normal;font-weight:400;font-stretch:condensed;font-size:8.99395px;font-family:&quot;Myriad Pro&quot;;writing-mode:lr-tb;fill:#918f90;fill-opacity:1;fill-rule:nonzero;stroke:none;stroke-width:.261471" transform="matrix(-.24968 -1.29938 1.3259 -.25478 53.263 165.054)"><tspan x="0" y="0" style="stroke-width:.261471">y</tspan></text><text style="font-variant:normal;font-weight:400;font-stretch:condensed;font-size:8.99958px;font-family:&quot;Myriad Pro&quot;;writing-mode:lr-tb;fill:#918f90;fill-opacity:1;fill-rule:nonzero;stroke:none;stroke-width:.261471" transform="matrix(-.08012 -1.31988 1.34682 -.08175 51.862 157.058)"><tspan x="0" y="0" style="stroke-width:.261471">o</tspan></text><text style="font-variant:normal;font-weight:400;font-stretch:condensed;font-size:9.0002px;font-family:&quot;Myriad Pro&quot;;writing-mode:lr-tb;fill:#918f90;fill-opacity:1;fill-rule:nonzero;stroke:none;stroke-width:.261471" transform="matrix(.02009 -1.32207 1.34905 .0205 51.525 150.525)"><tspan x="0" y="0" style="stroke-width:.261471">f</tspan></text><text style="font-variant:normal;font-weight:400;font-stretch:condensed;font-size:8.99685px;font-family:&quot;Myriad Pro&quot;;writing-mode:lr-tb;fill:#918f90;fill-opacity:1;fill-rule:nonzero;stroke:none;stroke-width:.261471" transform="matrix(.1818 -1.31016 1.3369 .1855 51.64 144.544)"><tspan x="0" y="0" style="stroke-width:.261471">G</tspan></text><text style="font-variant:normal;font-weight:400;font-stretch:condensed;font-size:8.99025px;font-family:&quot;Myriad Pro&quot;;writing-mode:lr-tb;fill:#918f90;fill-opacity:1;fill-rule:nonzero;stroke:none;stroke-width:.261471" transform="matrix(.31317 -1.2861 1.31235 .31957 52.747 136.938)"><tspan x="0" y="0" style="stroke-width:.261471">y</tspan></text><text style="font-variant:normal;font-weight:400;font-stretch:condensed;font-size:8.98207px;font-family:&quot;Myriad Pro&quot;;writing-mode:lr-tb;fill:#918f90;fill-opacity:1;fill-rule:nonzero;stroke:none;stroke-width:.261471" transform="matrix(.42323 -1.25548 1.2811 .43187 54.043 131.574)"><tspan x="0" y="0" style="stroke-width:.261471">e</tspan></text><text style="font-variant:normal;font-weight:400;font-stretch:condensed;font-size:8.97073px;font-family:&quot;Myriad Pro&quot;;writing-mode:lr-tb;fill:#918f90;fill-opacity:1;fill-rule:nonzero;stroke:none;stroke-width:.261471" transform="matrix(.53979 -1.21178 1.23652 .5508 55.94 125.907)"><tspan x="0" y="0" style="stroke-width:.261471">o</tspan></text><text style="font-variant:normal;font-weight:400;font-stretch:condensed;font-size:8.95671px;font-family:&quot;Myriad Pro&quot;;writing-mode:lr-tb;fill:#918f90;fill-opacity:1;fill-rule:nonzero;stroke:none;stroke-width:.261471" transform="matrix(.65604 -1.1554 1.17897 .66943 58.594 119.943)"><tspan x="0" y="0" style="stroke-width:.261471">n</tspan></text><text style="font-variant:normal;font-weight:400;font-stretch:condensed;font-size:8.9406px;font-family:&quot;Myriad Pro&quot;;writing-mode:lr-tb;fill:#918f90;fill-opacity:1;fill-rule:nonzero;stroke:none;stroke-width:.261471" transform="matrix(.76883 -1.08653 1.10872 .78452 61.85 114.205)"><tspan x="0" y="0" style="stroke-width:.261471">g</tspan></text><text style="font-variant:normal;font-weight:400;font-stretch:condensed;font-size:8.92327px;font-family:&quot;Myriad Pro&quot;;writing-mode:lr-tb;fill:#918f90;fill-opacity:1;fill-rule:nonzero;stroke:none;stroke-width:.261471" transform="matrix(.87459 -1.0068 1.02735 .89243 65.653 108.828)"><tspan x="0" y="0" style="stroke-width:.261471">n</tspan></text><text style="font-variant:normal;font-weight:400;font-stretch:condensed;font-size:8.91498px;font-family:&quot;Myriad Pro&quot;;writing-mode:lr-tb;fill:#918f90;fill-opacity:1;fill-rule:nonzero;stroke:none;stroke-width:.261471" transform="matrix(.96597 -.92129 .9401 .98569 70 103.853)"><tspan x="0" y="0" style="stroke-width:.261471">a</tspan></text><text style="font-variant:normal;font-weight:400;font-stretch:condensed;font-size:8.93594px;font-family:&quot;Myriad Pro&quot;;writing-mode:lr-tb;fill:#918f90;fill-opacity:1;fill-rule:nonzero;stroke:none;stroke-width:.261471" transform="matrix(1.06574 -.79857 .81487 1.0875 74.068 99.802)"><tspan x="0" y="0" style="stroke-width:.261471">m</tspan></text><text style="font-variant:normal;font-weight:400;font-stretch:condensed;font-size:8.96337px;font-family:&quot;Myriad Pro&quot;;writing-mode:lr-tb;fill:#918f90;fill-opacity:1;fill-rule:nonzero;stroke:none;stroke-width:.261471" transform="matrix(1.18256 -.6035 .6158 1.2067 84.232 92.58)"><tspan x="0" y="0" style="stroke-width:.261471">G</tspan></text><text style="font-variant:normal;font-weight:400;font-stretch:condensed;font-size:8.97706px;font-family:&quot;Myriad Pro&quot;;writing-mode:lr-tb;fill:#918f90;fill-opacity:1;fill-rule:nonzero;stroke:none;stroke-width:.261471" transform="matrix(1.23667 -.47744 .4872 1.2619 91.162 89.099)"><tspan x="0" y="0" style="stroke-width:.261471">e</tspan></text><text style="font-variant:normal;font-weight:400;font-stretch:condensed;font-size:8.98707px;font-family:&quot;Myriad Pro&quot;;writing-mode:lr-tb;fill:#918f90;fill-opacity:1;fill-rule:nonzero;stroke:none;stroke-width:.261471" transform="matrix(1.27443 -.35948 .36682 1.30043 96.713 86.94)"><tspan x="0" y="0" style="stroke-width:.261471">o</tspan></text><text style="font-variant:normal;font-weight:400;font-stretch:condensed;font-size:8.99419px;font-family:&quot;Myriad Pro&quot;;writing-mode:lr-tb;fill:#918f90;fill-opacity:1;fill-rule:nonzero;stroke:none;stroke-width:.261471" transform="matrix(1.30036 -.24432 .24931 1.3269 103.02 85.19)"><tspan x="0" y="0" style="stroke-width:.261471">c</tspan></text><text style="font-variant:normal;font-weight:400;font-stretch:condensed;font-size:8.99866px;font-family:&quot;Myriad Pro&quot;;writing-mode:lr-tb;fill:#918f90;fill-opacity:1;fill-rule:nonzero;stroke:none;stroke-width:.261471" transform="matrix(1.31636 -.12684 .12942 1.34323 108.25 84.178)"><tspan x="0" y="0" style="stroke-width:.261471">h</tspan></text><text style="font-variant:normal;font-weight:400;font-stretch:condensed;font-size:9.00023px;font-family:&quot;Myriad Pro&quot;;writing-mode:lr-tb;fill:#918f90;fill-opacity:1;fill-rule:nonzero;stroke:none;stroke-width:.261471" transform="matrix(1.32222 -.00352 .0036 1.3492 114.84 83.564)"><tspan x="0" y="0" style="stroke-width:.261471">a</tspan></text><text style="font-variant:normal;font-weight:400;font-stretch:condensed;font-size:8.99881px;font-family:&quot;Myriad Pro&quot;;writing-mode:lr-tb;fill:#918f90;fill-opacity:1;fill-rule:nonzero;stroke:none;stroke-width:.261471" transform="matrix(1.31697 .12008 -.12254 1.34385 120.58 83.528)"><tspan x="0" y="0" style="stroke-width:.261471">n</tspan></text><text style="font-variant:normal;font-weight:400;font-stretch:condensed;font-size:8.99379px;font-family:&quot;Myriad Pro&quot;;writing-mode:lr-tb;fill:#918f90;fill-opacity:1;fill-rule:nonzero;stroke:none;stroke-width:.261471" transform="matrix(1.29892 .25218 -.25732 1.32543 127.166 84.127)"><tspan x="0" y="0" style="stroke-width:.261471">g</tspan></text></g></g></svg>