<svg xmlns="http://www.w3.org/2000/svg" width="198.14554mm" height="172.78966mm" viewBox="0 0 198.14554 172.78966"><path d="M0 0c-1.732 0-3.402.756-4.355 1.973l-11.088 14.49c-1.235 1.65-1.232 3.814.005 5.391l11.084 13.88c.993 1.262 2.603 2.021 4.31 2.021a5.788 5.788 0 0 0 2.843-.744c1.283-.726 2.131-1.847 2.388-3.159.244-1.23-.071-2.482-.888-3.521L-4.5 19.459 4.308 7.414c.813-1.041 1.124-2.301.879-3.545C4.926 2.563 4.059 1.408 2.799.695A5.798 5.798 0 0 0 0 0" style="fill:#e11837;fill-opacity:1;fill-rule:nonzero;stroke:none" transform="matrix(1.82953 0 0 -1.82953 57.437 69.074)"/><path d="M0 0c-2.938 0-5.324 2.107-5.324 4.698v28.359c0 2.589 2.386 4.697 5.324 4.697 2.901 0 5.264-2.108 5.264-4.697V4.698C5.264 2.107 2.901 0 0 0" style="fill:#e11837;fill-opacity:1;fill-rule:nonzero;stroke:none" transform="matrix(1.82953 0 0 -1.82953 11.874 69.074)"/><path d="M0 0c-2.935 0-5.322 2.107-5.322 4.698v28.359c0 2.589 2.387 4.697 5.322 4.697 2.903 0 5.266-2.108 5.266-4.697V4.698C5.266 2.107 2.903 0 0 0" style="fill:#e11837;fill-opacity:1;fill-rule:nonzero;stroke:none" transform="matrix(1.82953 0 0 -1.82953 98.45 69.074)"/><path d="M0 0c-2.938 0-5.327 2.133-5.327 4.75v15.786c0 2.618 2.389 4.749 5.327 4.749 2.902 0 5.265-2.131 5.265-4.749V4.75C5.265 2.133 2.902 0 0 0" style="fill:#e11837;fill-opacity:1;fill-rule:nonzero;stroke:none" transform="matrix(1.82953 0 0 -1.82953 152.678 69.045)"/><path d="M0 0h-20.043c-2.933 0-5.32 2.107-5.32 4.701 0 2.619 2.387 4.748 5.32 4.748H0c2.951 0 5.262-2.086 5.262-4.748C5.262 2.107 2.901 0 0 0" style="fill:#e11837;fill-opacity:1;fill-rule:nonzero;stroke:none" transform="matrix(1.82953 0 0 -1.82953 171.008 17.29)"/><path d="M0 0a5.541 5.541 0 0 0-5.537 5.535A5.54 5.54 0 0 0 0 11.07a5.54 5.54 0 0 0 5.535-5.535A5.541 5.541 0 0 0 0 0" style="fill:#e11837;fill-opacity:1;fill-rule:nonzero;stroke:none" transform="matrix(1.82953 0 0 -1.82953 185.819 69.045)"/><path d="M0 0a2.036 2.036 0 0 1-.689-1.557c0-.613.23-1.127.689-1.541.474-.423 1.046-.636 1.719-.636.66 0 1.22.219 1.679.655.463.425.691.933.691 1.522 0 .615-.235 1.134-.708 1.557a2.388 2.388 0 0 1-1.68.656A2.42 2.42 0 0 1 0 0m-1.112-4.282c-.827.755-1.24 1.645-1.24 2.673 0 1.085.407 2.01 1.221 2.779a4.058 4.058 0 0 0 2.85 1.115c1.086 0 2.035-.379 2.847-1.135.827-.765 1.242-1.685 1.242-2.759 0-1.028-.418-1.918-1.257-2.673-.815-.755-1.754-1.133-2.815-1.133-1.075 0-2.023.378-2.848 1.133m5.769 7.594c0 .118-.011.194-.035.229-.024.023-.077.035-.159.035H.833v1.576h3.63c.082 0 .135.012.159.035.024.024.035.06.035.106v1.028c0 .105-.019.176-.053.212-.026.024-.07.034-.141.034H.833v.054C.149 5.488-.825 4.469-2.088 3.561c-1.108-.792-2.379-1.454-3.805-1.985l-.974 1.434c1.71.59 3.114 1.304 4.213 2.142 1.261.956 2.083 2.052 2.46 3.291a.3.3 0 0 1-.052.178.263.263 0 0 1-.195.07h-5.293v1.56H.658c.54 0 .859-.255.953-.763.072-.377.025-.826-.14-1.345h2.992c.082 0 .135.011.159.037.024.023.035.07.035.14v2.549h1.787V2.09H4.657Z" style="fill:#e11837;fill-opacity:1;fill-rule:nonzero;stroke:none" transform="matrix(1.82953 0 0 -1.82953 12.563 99.708)"/><path d="M0 0c-.014-.035-.019-.135-.019-.303v-3.396h-1.752v8.885h1.752V1.93c0-.131.01-.215.037-.25.033-.045.116-.071.247-.071h2.176V.035H.23C.1.035.022.022 0 0m-1.719-6.002a.192.192 0 0 1-.141.055h-6.318c-.096 0-.162-.02-.196-.055-.036-.045-.051-.117-.051-.212v-2.725c0-.095.015-.16.051-.194.034-.049.094-.071.177-.071h6.355c.034 0 .071.028.106.087.048.047.07.107.07.178v2.725c0 .095-.017.167-.053.212m-7.186-4.742c-.402 0-.714.135-.937.406-.213.236-.32.543-.32.92v3.807c0 .377.101.672.303.884.212.213.501.32.866.32h7.911c.343 0 .62-.118.833-.356.214-.212.317-.487.317-.831v-3.875c0-.344-.092-.633-.281-.869-.213-.271-.504-.406-.869-.406zm-1.346 7.609c-.435 0-.777.15-1.024.444-.227.271-.338.619-.338 1.045v6.373h1.736V-1.24c0-.106.018-.176.053-.213.035-.047.105-.07.211-.07h2.514c.662 0 1.328.029 1.999.089.651.045 1.352.123 2.108.23l.246-1.505a33.468 33.468 0 0 0-2.192-.301 21.962 21.962 0 0 0-2.161-.125Z" style="fill:#e11837;fill-opacity:1;fill-rule:nonzero;stroke:none" transform="matrix(1.82953 0 0 -1.82953 52.177 89.31)"/><path d="M0 0c0 .131-.017.208-.053.231-.01.024-.058.037-.141.037h-3.452v1.574h3.452c.071 0 .125.017.159.054.024.022.035.065.035.124v3.22h1.79v-8.602H0Zm-4.302-5.629c-.469-.423-.706-.942-.706-1.557 0-.601.237-1.115.706-1.541a2.565 2.565 0 0 1 1.738-.636c.636 0 1.19.219 1.662.655.473.425.708.933.708 1.522 0 .602-.241 1.122-.727 1.557a2.36 2.36 0 0 1-1.661.656c-.674 0-1.245-.218-1.72-.656m1.738 2.285c1.084 0 2.035-.379 2.849-1.135.826-.765 1.238-1.685 1.238-2.759 0-1.028-.419-1.918-1.255-2.673-.828-.755-1.771-1.133-2.832-1.133-1.077 0-2.025.378-2.852 1.133-.837.755-1.256 1.645-1.256 2.673 0 1.004.354 1.877 1.062 2.619a4.202 4.202 0 0 0 2.547 1.275A7.346 7.346 0 0 0-5.008-1.91 8.406 8.406 0 0 0-6.283-.123a9.765 9.765 0 0 0-1.771-2.143 10.768 10.768 0 0 0-2.512-1.662l-1.062 1.38c1.417.484 2.507 1.174 3.274 2.071a4.78 4.78 0 0 1 1.167 3.186v.105c0 .108-.041.178-.122.214a.64.64 0 0 1-.23.035h-3.027v1.559h8.301V3.063h-2.813a.624.624 0 0 1-.248-.035c-.05-.036-.071-.106-.071-.214v-.086c0-1.169.299-2.148.904-2.939.59-.791 1.508-1.422 2.759-1.894l-1.008-1.239z" style="fill:#e11837;fill-opacity:1;fill-rule:nonzero;stroke:none" transform="matrix(1.82953 0 0 -1.82953 79.241 89.41)"/><path d="M0 0c-.025.023-.082.036-.178.036h-6.911c-.119 0-.19-.013-.213-.036-.034-.023-.052-.088-.052-.195v-1.7c0-.105.018-.175.052-.21.048-.036.123-.053.23-.053h6.878c.07 0 .123.021.157.07.049.046.069.109.069.193v1.629C.032-.111.021-.023 0 0m-2.802-3.752v-2.302c0-.082.012-.147.036-.194.036-.035.088-.054.16-.054h5.709v-1.592h-13.419v1.592h5.566c.071 0 .118.019.143.054.025.035.035.101.035.194v2.302h-3.172c-.437 0-.768.13-.99.388-.214.237-.319.555-.319.957v6.761h1.699V1.859c0-.095.018-.16.052-.195.023-.025.094-.035.213-.035h6.911c.081 0 .137.017.158.053.036.023.052.093.052.213v2.459h1.719v-6.69c0-.401-.106-.727-.318-.974-.223-.295-.537-.442-.938-.442Z" style="fill:#e11837;fill-opacity:1;fill-rule:nonzero;stroke:none" transform="matrix(1.82953 0 0 -1.82953 106.411 88.598)"/><path d="M0 0c0 .081-.017.134-.052.158-.011.012-.03.018-.052.018h-1.417a.263.263 0 0 1-.143-.035c-.023-.034-.035-.101-.035-.195v-8.71h-1.627v4.261a30.562 30.562 0 0 0-1.894-.194 18.956 18.956 0 0 0-1.77-.088h-2.426c-.448 0-.803.14-1.063.424-.247.271-.372.613-.372 1.027v7.705c0 .378.115.673.339.887.225.199.523.299.903.299h4.619V3.928h-4.054c-.06 0-.094-.01-.105-.033V-2.91c0-.117.011-.189.034-.211.035-.036.112-.054.232-.054h1.893c.565 0 1.161.024 1.786.071.556.036 1.181.088 1.878.159V6.23h1.627V1.893c0-.06.012-.099.035-.123.024-.026.071-.036.143-.036h1.417c.034 0 .063.018.087.053.013.011.017.029.017.053v4.514h1.647V-9.012H0Z" style="fill:#e11837;fill-opacity:1;fill-rule:nonzero;stroke:none" transform="matrix(1.82953 0 0 -1.82953 136.143 91.447)"/><path d="M0 0c-.024-.035-.036-.135-.036-.303v-3.658h-1.735v9.147h1.735V1.93c0-.119.023-.201.071-.25.035-.045.112-.071.229-.071h2.175V.035H.23C.1.035.022.022 0 0m-9.135.5a1.701 1.701 0 0 1-.548-1.293c0-.508.189-.934.566-1.275.365-.319.821-.477 1.363-.477.519 0 .956.164 1.31.494.378.342.569.764.569 1.258 0 .531-.191.967-.569 1.309-.366.331-.813.496-1.345.496-.531 0-.981-.17-1.346-.512m-1.149 4.527h5.113V3.379h-5.113zm8.513-12.125c0 .153-.029.253-.086.301-.062.046-.162.07-.303.07h-8.635v1.629h9.484c.424 0 .749-.131.972-.39.202-.237.303-.567.303-.991v-4.248h-1.735zm-10.602 9.721h9.149V1.012h-1.663c.19-.258.33-.537.427-.832.115-.319.175-.655.175-1.008 0-.968-.354-1.764-1.061-2.389-.66-.603-1.464-.904-2.408-.904-.957 0-1.777.307-2.459.921-.733.637-1.1 1.438-1.1 2.407 0 .354.048.684.143.99.094.308.234.578.424.815h-1.627z" style="fill:#e11837;fill-opacity:1;fill-rule:nonzero;stroke:none" transform="matrix(1.82953 0 0 -1.82953 166.194 89.31)"/><path d="M0 0c0 .142-.017.236-.052.283-.036.046-.094.071-.177.071h-9.29v1.577H.585c.329 0 .606-.132.832-.391.224-.247.336-.53.336-.851v-6.512H0Zm-10.642-8.504h3.004c.072 0 .125.019.161.053.035.035.053.095.053.178v4.945h1.717v-4.945c0-.083.017-.143.054-.178.022-.034.075-.053.159-.053h1.663c.07 0 .125.019.16.053.035.035.053.095.053.178v4.945h1.698v-4.945c0-.083.012-.143.037-.178.034-.034.1-.053.195-.053h4.952v-1.594h-13.906z" style="fill:#e11837;fill-opacity:1;fill-rule:nonzero;stroke:none" transform="matrix(1.82953 0 0 -1.82953 192.174 84.486)"/><path d="m0 0-1.744 2.621a.62.62 0 0 0 0 .658L0 5.901a.59.59 0 0 0 .825.167.59.59 0 0 0 .165-.826L-.53 2.955.99.667a.598.598 0 0 0-.165-.833A.607.607 0 0 0 0 0m-3.308.333v5.243a.598.598 0 0 0 1.195 0V.333a.598.598 0 0 0-1.195 0" style="fill:#6d6f71;fill-opacity:1;fill-rule:nonzero;stroke:none" transform="matrix(1.82953 0 0 -1.82953 12.304 133.747)"/><path d="m0 0-1.519-2.695V-4.91a.6.6 0 0 0-.601-.593.596.596 0 0 0-.593.593v2.215L-4.195.009a.592.592 0 0 0 1.036.575l1.047-1.9 1.075 1.9A.595.595 0 1 0 0 0" style="fill:#6d6f71;fill-opacity:1;fill-rule:nonzero;stroke:none" transform="matrix(1.82953 0 0 -1.82953 24.236 124.103)"/><path d="M0 0v3.584a.6.6 0 0 0 .602.593.596.596 0 0 0 .593-.593V0c0-.584.482-1.066 1.065-1.066.594 0 1.076.482 1.076 1.066v3.584c0 .325.257.593.591.593a.6.6 0 0 0 .594-.593V0c0-1.242-1.01-2.26-2.261-2.26A2.268 2.268 0 0 0 0 0" style="fill:#6d6f71;fill-opacity:1;fill-rule:nonzero;stroke:none" transform="matrix(1.82953 0 0 -1.82953 26.794 130.103)"/><path d="m0 0-2.047 3.4V.307a.599.599 0 0 0-.595-.593.588.588 0 0 0-.589.593v5.224c0 .258.174.5.432.566a.59.59 0 0 0 .666-.261l2.049-3.389v3.084a.597.597 0 0 0 1.195 0V.307c0-.268-.185-.5-.435-.575C.62-.286.564-.286.51-.286A.59.59 0 0 0 0 0" style="fill:#6d6f71;fill-opacity:1;fill-rule:nonzero;stroke:none" transform="matrix(1.82953 0 0 -1.82953 43.469 133.647)"/><path d="M0 0v1.898a2.263 2.263 0 0 0 2.262 2.26c1.212 0 2.055-.711 2.249-1.916a.608.608 0 0 0-.5-.686.598.598 0 0 0-.677.501c-.102.611-.455.908-1.072.908a1.068 1.068 0 0 1-1.076-1.067V0a1.073 1.073 0 0 1 2.14-.074h-.91a.596.596 0 0 0-.591.601c0 .326.267.594.591.594h1.501A.599.599 0 0 0 4.52.527V0a2.268 2.268 0 0 0-2.258-2.261A2.264 2.264 0 0 0 0 0" style="fill:#6d6f71;fill-opacity:1;fill-rule:nonzero;stroke:none" transform="matrix(1.82953 0 0 -1.82953 48.043 130.052)"/><path d="m0 0-2.047 3.4V.307a.591.591 0 1 0-1.185 0v5.224c0 .258.176.5.435.566a.599.599 0 0 0 .669-.261l2.044-3.389v3.084a.598.598 0 0 0 1.198 0V.307c0-.268-.188-.5-.436-.575C.622-.286.565-.286.51-.286A.594.594 0 0 0 0 0" style="fill:#6d6f71;fill-opacity:1;fill-rule:nonzero;stroke:none" transform="matrix(1.82953 0 0 -1.82953 64.648 133.647)"/><path d="M0 0a.477.477 0 0 0-.165-.028c-.26 0-.49.167-.575.426l-.39 1.297h-.177a.599.599 0 0 0-.599.602c0 .268.186.49.432.564l-.839 2.797a.594.594 0 1 0 1.137.344L.399.74A.587.587 0 0 0 0 0m-1.944 2.916L-2.75.389a.605.605 0 0 0-.576-.417.38.38 0 0 0-.174.037.6.6 0 0 0-.39.751l.815 2.518a.601.601 0 0 0 .751.39.607.607 0 0 0 .38-.752" style="fill:#6d6f71;fill-opacity:1;fill-rule:nonzero;stroke:none" transform="matrix(1.82953 0 0 -1.82953 76.476 134.119)"/><path d="M0 0v3.113l-.491-.806a.618.618 0 0 0-.511-.287.628.628 0 0 0-.512.296l-.452.76V0a.597.597 0 0 0-1.196 0v5.244c0 .259.186.499.446.572a.607.607 0 0 0 .667-.276l1.054-1.769L.081 5.549c.138.23.416.334.667.259a.582.582 0 0 0 .435-.564V0A.59.59 0 1 0 0 0" style="fill:#6d6f71;fill-opacity:1;fill-rule:nonzero;stroke:none" transform="matrix(1.82953 0 0 -1.82953 85.682 133.086)"/><path d="M0 0v1.891a2.264 2.264 0 0 0 2.262 2.258 2.256 2.256 0 0 0 2.259-2.258.598.598 0 0 0-1.197 0c0 .591-.469 1.074-1.062 1.074a1.074 1.074 0 0 1-1.067-1.074V0c0-.592.481-1.074 1.067-1.074.593 0 1.062.482 1.062 1.074a.598.598 0 0 0 1.197 0 2.258 2.258 0 0 0-2.259-2.261A2.267 2.267 0 0 0 0 0" style="fill:#6d6f71;fill-opacity:1;fill-rule:nonzero;stroke:none" transform="matrix(1.82953 0 0 -1.82953 96.179 130.052)"/><path d="M0 0v-.436a2.26 2.26 0 1 0-4.521 0V0a.6.6 0 0 0 .601.594A.599.599 0 0 0-3.328 0v-.436c0-.591.481-1.074 1.065-1.074.594 0 1.076.483 1.076 1.074V0c0 .322.257.594.593.594A.601.601 0 0 0 0 0m-4.521 1.529c0 1.25 1.017 2.185 2.258 2.185C-1.011 3.714 0 2.779 0 1.529A.598.598 0 0 0-.594.936a.589.589 0 0 0-.593.593c0 .592-.482 1-1.076 1-.584 0-1.065-.408-1.065-1a.595.595 0 0 0-1.193 0" style="fill:#6d6f71;fill-opacity:1;fill-rule:nonzero;stroke:none" transform="matrix(1.82953 0 0 -1.82953 114.924 129.256)"/><path d="M0 0a.6.6 0 0 0-.595-.603h-2.278A.602.602 0 0 0-3.467 0v5.197a.6.6 0 0 0 .594.601.6.6 0 0 0 .604-.601V.592h1.674A.598.598 0 0 0 0 0" style="fill:#6d6f71;fill-opacity:1;fill-rule:nonzero;stroke:none" transform="matrix(1.82953 0 0 -1.82953 124.683 133.068)"/><path d="M0 0a.598.598 0 0 0-.591-.603H-2.87A.6.6 0 0 0-3.464 0v5.197a.598.598 0 1 0 1.195 0V.592h1.678A.595.595 0 0 0 0 0" style="fill:#6d6f71;fill-opacity:1;fill-rule:nonzero;stroke:none" transform="matrix(1.82953 0 0 -1.82953 133.754 133.068)"/><path d="M0 0a.591.591 0 0 0-.593-.593h-2.9A.599.599 0 0 0-4.094 0v5.215c0 .334.268.593.601.593h2.9A.585.585 0 0 0 0 5.215a.59.59 0 0 0-.593-.592H-2.9V3.214h1.16c.33 0 .591-.269.591-.602a.592.592 0 0 0-.591-.592H-2.9V.602h2.307A.592.592 0 0 0 0 0" style="fill:#6d6f71;fill-opacity:1;fill-rule:nonzero;stroke:none" transform="matrix(1.82953 0 0 -1.82953 143.879 133.086)"/><path d="M0 0v1.898a2.264 2.264 0 0 0 2.261 2.26c1.214 0 2.053-.711 2.25-1.916a.612.612 0 0 0-.502-.686.598.598 0 0 0-.676.501c-.102.611-.452.908-1.072.908a1.069 1.069 0 0 1-1.076-1.067V0c0-.584.482-1.065 1.076-1.065.564 0 1.026.434 1.064.991h-.908a.598.598 0 0 0 0 1.195h1.5a.6.6 0 0 0 .604-.594V0a2.271 2.271 0 0 0-2.26-2.261A2.265 2.265 0 0 0 0 0" style="fill:#6d6f71;fill-opacity:1;fill-rule:nonzero;stroke:none" transform="matrix(1.82953 0 0 -1.82953 146.607 130.052)"/><path d="M0 0a.59.59 0 0 0-.591-.593h-2.9A.6.6 0 0 0-4.095 0v5.215c0 .334.27.593.604.593h2.9A.584.584 0 0 0 0 5.215a.59.59 0 0 0-.591-.592h-2.308V3.214h1.16a.593.593 0 0 0 .591-.602.59.59 0 0 0-.591-.592h-1.16V.602h2.308A.592.592 0 0 0 0 0" style="fill:#6d6f71;fill-opacity:1;fill-rule:nonzero;stroke:none" transform="matrix(1.82953 0 0 -1.82953 165.06 133.086)"/><path d="M0 0v-.436a2.26 2.26 0 0 0-4.522 0V0c0 .322.268.594.602.594A.601.601 0 0 0-3.327 0v-.436c0-.591.481-1.074 1.063-1.074.594 0 1.076.483 1.076 1.074V0A.594.594 0 0 0 0 0m-4.522 1.529c0 1.25 1.018 2.185 2.258 2.185C-1.012 3.714 0 2.779 0 1.529A.596.596 0 0 0-.594.936a.59.59 0 0 0-.594.593c0 .592-.482 1-1.076 1-.582 0-1.063-.408-1.063-1a.598.598 0 0 0-1.195 0" style="fill:#6d6f71;fill-opacity:1;fill-rule:nonzero;stroke:none" transform="matrix(1.82953 0 0 -1.82953 181.345 129.256)"/><path d="M0 0a.597.597 0 0 0-.592-.592H-2.9v-1.445h1.158c.326 0 .594-.26.594-.593a.596.596 0 0 0-.594-.593H-2.9v-1.992a.6.6 0 0 0-.603-.593.595.595 0 0 0-.59.593V0c0 .334.266.593.59.593h2.911A.59.59 0 0 0 0 0" style="fill:#6d6f71;fill-opacity:1;fill-rule:nonzero;stroke:none" transform="matrix(1.82953 0 0 -1.82953 191.73 123.546)"/><path d="M0 0v5.197a.6.6 0 0 0 .601.602.599.599 0 0 0 .593-.602V0a.598.598 0 0 0-.593-.602A.6.6 0 0 0 0 0" style="fill:#6d6f71;fill-opacity:1;fill-rule:nonzero;stroke:none" transform="matrix(1.82953 0 0 -1.82953 6.239 152.436)"/><path d="m0 0-2.047 3.399V.305a.598.598 0 0 0-.594-.592.587.587 0 0 0-.59.592v5.226c0 .259.173.499.434.565a.59.59 0 0 0 .666-.26l2.047-3.391v3.086a.598.598 0 0 0 1.195 0V.305a.604.604 0 0 0-.436-.573C.621-.287.565-.287.507-.287A.585.585 0 0 0 0 0" style="fill:#6d6f71;fill-opacity:1;fill-rule:nonzero;stroke:none" transform="matrix(1.82953 0 0 -1.82953 17.821 153.011)"/><path d="M0 0a.6.6 0 0 0-.595-.593h-2.306v-1.445h1.159a.59.59 0 0 0 .593-.592.6.6 0 0 0-.593-.594h-1.159v-1.992a.599.599 0 0 0-1.196 0V0c0 .335.271.593.594.593h2.908A.592.592 0 0 0 0 0" style="fill:#6d6f71;fill-opacity:1;fill-rule:nonzero;stroke:none" transform="matrix(1.82953 0 0 -1.82953 30.348 142.911)"/><path d="M0 0v-.435a2.257 2.257 0 0 0-2.261-2.259 2.263 2.263 0 0 0-2.26 2.259V0a.597.597 0 0 0 1.195 0v-.435c0-.592.482-1.073 1.065-1.073.594 0 1.075.481 1.075 1.073V0c0 .325.258.594.595.594A.597.597 0 0 0 0 0m-4.521 1.529c0 1.25 1.021 2.186 2.26 2.186C-1.011 3.715 0 2.779 0 1.529A.596.596 0 0 0-.591.936a.59.59 0 0 0-.595.593c0 .594-.481 1-1.075 1-.583 0-1.065-.406-1.065-1a.596.596 0 0 0-1.195 0" style="fill:#6d6f71;fill-opacity:1;fill-rule:nonzero;stroke:none" transform="matrix(1.82953 0 0 -1.82953 40.128 148.623)"/><path d="M0 0a.593.593 0 0 0-.141-.834.513.513 0 0 0-.34-.111.587.587 0 0 0-.482.24l-1.568 2.121a.586.586 0 0 0-.043.611.588.588 0 0 0 .528.334.964.964 0 1 1 0 1.927.599.599 0 0 0-.595.593c0 .332.27.594.595.594a2.152 2.152 0 0 0 .989-4.067zm-3.456 4.279V2.352a.594.594 0 0 0 .537-.592.61.61 0 0 0-.537-.594v-1.52a.592.592 0 0 0-.601-.591.589.589 0 0 0-.591.591v5.227c0 .324.268.592.591.592h.536a.594.594 0 0 0 .065-1.186" style="fill:#6d6f71;fill-opacity:1;fill-rule:nonzero;stroke:none" transform="matrix(1.82953 0 0 -1.82953 50.837 151.807)"/><path d="M0 0v3.112l-.493-.805a.607.607 0 0 0-.509-.286.613.613 0 0 0-.509.296l-.455.759V0a.596.596 0 0 0-1.193 0v5.244c0 .26.184.5.443.574a.61.61 0 0 0 .668-.278l1.054-1.769 1.075 1.78c.141.23.419.332.669.258a.583.583 0 0 0 .436-.565V0A.592.592 0 1 0 0 0" style="fill:#6d6f71;fill-opacity:1;fill-rule:nonzero;stroke:none" transform="matrix(1.82953 0 0 -1.82953 59.024 152.454)"/><path d="M0 0a.55.55 0 0 0-.167-.027.603.603 0 0 0-.574.425l-.388 1.297h-.176a.595.595 0 0 0-.167 1.168l-.844 2.797a.596.596 0 0 0 .398.741.593.593 0 0 0 .74-.398L.398.742A.589.589 0 0 0 0 0m-1.945 2.918L-2.754.39a.598.598 0 0 0-.571-.417A.389.389 0 0 0-3.5.01a.596.596 0 0 0-.391.75l.816 2.519a.6.6 0 0 0 .751.389.603.603 0 0 0 .379-.75" style="fill:#6d6f71;fill-opacity:1;fill-rule:nonzero;stroke:none" transform="matrix(1.82953 0 0 -1.82953 71.001 153.486)"/><path d="M0 0a.59.59 0 0 0-.59-.594h-.982v-4.613a.591.591 0 0 0-.594-.592.592.592 0 0 0-.602.592v4.613h-.972A.601.601 0 0 0-4.343 0c0 .333.271.602.603.602h3.15C-.257.602 0 .333 0 0" style="fill:#6d6f71;fill-opacity:1;fill-rule:nonzero;stroke:none" transform="matrix(1.82953 0 0 -1.82953 80.835 142.927)"/><path d="M0 0v5.197a.599.599 0 1 0 1.197 0V0A.598.598 0 1 0 0 0" style="fill:#6d6f71;fill-opacity:1;fill-rule:nonzero;stroke:none" transform="matrix(1.82953 0 0 -1.82953 83.495 152.436)"/><path d="M0 0v-.435a2.257 2.257 0 0 0-2.26-2.259A2.262 2.262 0 0 0-4.521-.435V0a.598.598 0 0 0 1.197 0v-.435c0-.592.48-1.073 1.064-1.073.594 0 1.075.481 1.075 1.073V0a.59.59 0 0 0 .592.594A.6.6 0 0 0 0 0m-4.521 1.529c0 1.25 1.019 2.186 2.261 2.186 1.249 0 2.26-.936 2.26-2.186A.598.598 0 0 0-.593.936a.59.59 0 0 0-.592.593c0 .594-.481 1-1.075 1-.584 0-1.064-.406-1.064-1a.597.597 0 0 0-.593-.593.601.601 0 0 0-.604.593" style="fill:#6d6f71;fill-opacity:1;fill-rule:nonzero;stroke:none" transform="matrix(1.82953 0 0 -1.82953 97.638 148.623)"/><path d="m0 0-2.045 3.399V.305a.595.595 0 0 0-.593-.592.59.59 0 0 0-.593.592v5.226c0 .259.175.499.436.565a.59.59 0 0 0 .664-.26l2.05-3.391v3.086a.596.596 0 0 0 1.192 0V.305a.605.605 0 0 0-.433-.573C.623-.287.567-.287.51-.287A.593.593 0 0 0 0 0" style="fill:#6d6f71;fill-opacity:1;fill-rule:nonzero;stroke:none" transform="matrix(1.82953 0 0 -1.82953 106.091 153.011)"/><path d="M0 0a.597.597 0 0 0-.594-.687.6.6 0 0 0-.539.334c-.037.083-.08.175-.119.267C-1.74.943-2.41 2.333-2.529 2.537c0 .01 0 .01-.01.018a1.267 1.267 0 0 1-.289-.825c0-.554.362-1.045.873-1.183a.598.598 0 0 0 .416-.734.601.601 0 0 0-.572-.444.51.51 0 0 0-.159.027C-3.299-.325-4.021.639-4.021 1.73c0 .75.334 1.446.889 1.9a2.15 2.15 0 0 0-.175.804c0 .734.581 1.336 1.297 1.336.37 0 .714-.158.961-.436a.588.588 0 0 0-.045-.842.61.61 0 0 0-.843.046c-.01.018-.036.036-.073.036-.056 0-.111-.064-.111-.14 0-.155.221-.59.406-.924.075-.121.149-.251.223-.389.121-.205.555-1.113.917-1.871.066.148.093.314.093.48 0 .334.269.603.603.603.322 0 .59-.269.59-.603C.711 1.064.451.443 0 0" style="fill:#6d6f71;fill-opacity:1;fill-rule:nonzero;stroke:none" transform="matrix(1.82953 0 0 -1.82953 122.282 152.382)"/><path d="M0 0a.593.593 0 0 0-.594-.593h-.982v-4.613a.59.59 0 0 0-.591-.592.593.593 0 0 0-.603.592v4.613h-.973A.6.6 0 0 0-4.344 0a.6.6 0 0 0 .601.603h3.149A.594.594 0 0 0 0 0" style="fill:#6d6f71;fill-opacity:1;fill-rule:nonzero;stroke:none" transform="matrix(1.82953 0 0 -1.82953 14.186 162.164)"/><path d="M0 0a.591.591 0 0 0-.592-.592h-2.9A.6.6 0 0 0-4.095 0v5.215c0 .336.27.594.603.594h2.9A.585.585 0 0 0 0 5.215a.592.592 0 0 0-.592-.592h-2.305V3.215h1.158c.33 0 .592-.27.592-.603a.593.593 0 0 0-.592-.592h-1.158V.604h2.305A.595.595 0 0 0 0 0" style="fill:#6d6f71;fill-opacity:1;fill-rule:nonzero;stroke:none" transform="matrix(1.82953 0 0 -1.82953 24.2 171.689)"/><path d="M0 0v1.891A2.262 2.262 0 0 0 2.26 4.15a2.256 2.256 0 0 0 2.261-2.259.597.597 0 0 0-1.195 0A1.07 1.07 0 0 1 2.26 2.965a1.075 1.075 0 0 1-1.065-1.074V0c0-.593.483-1.073 1.065-1.073.592 0 1.066.48 1.066 1.073a.599.599 0 0 0 1.195 0c0-1.25-1.009-2.26-2.261-2.26A2.263 2.263 0 0 0 0 0" style="fill:#6d6f71;fill-opacity:1;fill-rule:nonzero;stroke:none" transform="matrix(1.82953 0 0 -1.82953 26.388 168.655)"/><path d="M0 0v-5.227a.593.593 0 0 0-.594-.591.584.584 0 0 0-.593.591V0c0 .324.26.591.593.591A.599.599 0 0 0 0 0m-1.437-2.846a.598.598 0 0 0-.601-.592h-.861v-1.789a.593.593 0 0 0-.603-.591.59.59 0 0 0-.594.591V0a.599.599 0 0 0 1.197 0v-2.244h.861a.6.6 0 0 0 .601-.602" style="fill:#6d6f71;fill-opacity:1;fill-rule:nonzero;stroke:none" transform="matrix(1.82953 0 0 -1.82953 44.845 162.127)"/><path d="m0 0-2.047 3.398V.305a.596.596 0 0 0-.594-.592.587.587 0 0 0-.589.592v5.226a.58.58 0 0 0 .433.563.591.591 0 0 0 .666-.259l2.048-3.39v3.086a.598.598 0 0 0 1.195 0V.305c0-.268-.186-.5-.436-.575C.619-.287.565-.287.508-.287A.589.589 0 0 0 0 0" style="fill:#6d6f71;fill-opacity:1;fill-rule:nonzero;stroke:none" transform="matrix(1.82953 0 0 -1.82953 54.596 172.246)"/><path d="M0 0v-.436c0-1.25-1.01-2.259-2.26-2.259A2.264 2.264 0 0 0-4.52-.436V0a.596.596 0 0 0 1.194 0v-.436c0-.592.483-1.073 1.066-1.073.594 0 1.076.481 1.076 1.073V0A.591.591 0 1 0 0 0m-4.52 1.527c0 1.252 1.021 2.188 2.26 2.188 1.25 0 2.26-.936 2.26-2.188A.595.595 0 0 0-.593.936a.59.59 0 0 0-.591.591c0 .594-.482 1.002-1.076 1.002-.583 0-1.066-.408-1.066-1.002a.597.597 0 0 0-1.194 0" style="fill:#6d6f71;fill-opacity:1;fill-rule:nonzero;stroke:none" transform="matrix(1.82953 0 0 -1.82953 67.32 167.858)"/><path d="M0 0a.6.6 0 0 0-.595-.602h-2.279a.598.598 0 0 0-.59.602v5.196a.6.6 0 0 0 .59.603.602.602 0 0 0 .605-.603V.594h1.674A.598.598 0 0 0 0 0" style="fill:#6d6f71;fill-opacity:1;fill-rule:nonzero;stroke:none" transform="matrix(1.82953 0 0 -1.82953 76.577 171.67)"/><path d="M0 0v-.436a2.259 2.259 0 0 0-2.263-2.259A2.263 2.263 0 0 0-4.522-.436V0a.598.598 0 0 0 1.196 0v-.436c0-.592.48-1.073 1.063-1.073.594 0 1.076.481 1.076 1.073V0c0 .324.26.593.594.593A.599.599 0 0 0 0 0m-4.522 1.527c0 1.252 1.02 2.188 2.259 2.188C-1.012 3.715 0 2.779 0 1.527A.597.597 0 0 0-.593.936a.59.59 0 0 0-.594.591c0 .594-.482 1.002-1.076 1.002-.583 0-1.063-.408-1.063-1.002a.599.599 0 0 0-1.196 0" style="fill:#6d6f71;fill-opacity:1;fill-rule:nonzero;stroke:none" transform="matrix(1.82953 0 0 -1.82953 86.063 167.858)"/><path d="M0 0v1.899a2.264 2.264 0 0 0 2.262 2.26c1.212 0 2.055-.712 2.253-1.917a.613.613 0 0 0-.504-.685.595.595 0 0 0-.675.5c-.103.611-.455.908-1.074.908a1.067 1.067 0 0 1-1.075-1.066V0a1.072 1.072 0 0 1 2.139-.073h-.907a.597.597 0 0 0 0 1.195H3.92a.599.599 0 0 0 .601-.593V0a2.27 2.27 0 0 0-2.259-2.26A2.265 2.265 0 0 0 0 0" style="fill:#6d6f71;fill-opacity:1;fill-rule:nonzero;stroke:none" transform="matrix(1.82953 0 0 -1.82953 88.498 168.655)"/><path d="m0 0-1.52-2.696V-4.91a.597.597 0 0 0-1.195 0v2.214L-4.196.008a.592.592 0 0 0 .231.806.59.59 0 0 0 .806-.23l1.046-1.898L-1.037.584a.59.59 0 0 0 .806.23A.605.605 0 0 0 0 0" style="fill:#6d6f71;fill-opacity:1;fill-rule:nonzero;stroke:none" transform="matrix(1.82953 0 0 -1.82953 106.634 162.705)"/></svg>