<svg xmlns="http://www.w3.org/2000/svg" width="141.3094mm" height="173.44418mm" viewBox="0 0 141.3094 173.44418"><path d="M76.594 179.807c-2.578 0-5.127-.798-7.17-2.25-.26-.184-.529-.38-.81-.58a69.129 69.129 0 0 1-4.587-3.617 55.776 55.776 0 0 1-4.605-4.42c-6.039-6.557-9.105-13.555-9.105-20.806v-23.256c0-1.55.638-3.783 3.703-5.597 1.47-.862 3.433-1.602 5.845-2.21 4.506-1.126 10.448-1.746 16.717-1.746 6.275 0 12.211.62 16.723 1.745 2.417.609 4.375 1.35 5.839 2.205 3.071 1.82 3.708 4.053 3.708 5.603v23.256c0 7.251-3.065 14.25-9.116 20.805l-.126.144a54.532 54.532 0 0 1-4.283 4.122l-.207.172a70.415 70.415 0 0 1-4.575 3.605c-.27.195-.551.403-.85.603-2.01 1.43-4.535 2.222-7.101 2.222" style="fill:#fff;fill-opacity:1;fill-rule:nonzero;stroke:none;stroke-width:1.46967" transform="translate(-135.344 -310.203) scale(2.68981)"/><path d="M87.725 120.056v11.143c5.488.792 9.507 2.158 10.741 3.766.04.057.104.091.178.091.12 0 .224-.103.224-.223v-9.95c0-2.06-4.483-3.863-11.143-4.827M65.445 148.134v-28.078c-6.66.964-11.143 2.767-11.143 4.828v23.25c0 6.24 2.704 12.303 8.06 18.101 2.29-1.136 6.097-3.186 9.851-5.878-3.892-3.709-6.768-7.928-6.768-12.223" style="fill:#0c9c9c;fill-opacity:1;fill-rule:nonzero;stroke:none;stroke-width:1.46967" transform="translate(-135.344 -310.203) scale(2.68981)"/><path d="M87.725 136.767c-3.278-.476-7.084-.746-11.143-.746-1.923 0-3.783.063-5.569.178v11.137a87.116 87.116 0 0 1 5.569-.172c4.059 0 7.865.35 11.143.97 0 6.149-5.884 11.959-11.137 15.92-.253.19-.511.379-.764.563-3.324 2.422-6.688 4.368-9.214 5.706a66.706 66.706 0 0 0 4.346 3.427c.264.19.534.38.798.569a8.335 8.335 0 0 0 4.828 1.538 8.308 8.308 0 0 0 4.84-1.544l.786-.563a66.48 66.48 0 0 0 4.34-3.415c8.175-7.022 12.32-14.473 12.32-22.2v-6.545c0-2.061-4.483-3.858-11.143-4.823" style="fill:#0061a6;fill-opacity:1;fill-rule:nonzero;stroke:none;stroke-width:1.46967" transform="translate(-135.344 -310.203) scale(2.68981)"/></svg>