<svg xmlns="http://www.w3.org/2000/svg" viewBox="0 0 95.763 95.754"><path d="M48.102.216C21.779.216.438 21.555.438 47.877s21.341 47.661 47.664 47.661 47.661-21.34 47.661-47.661S74.421.216 48.102.216m0 94.165c-25.684 0-46.506-20.819-46.506-46.504S22.418 1.373 48.102 1.373s46.506 20.821 46.506 46.504-20.823 46.504-46.506 46.504" style="fill:#006dbb"/><path d="M41.939 4.593h6.148v1.311h-4.714l-.005 3.612s-.064.256.318.256l5.528-.009V4.594h1.434v2.237h.931V4.594h1.442V14.72h-1.445V8.172h-.921v6.545h-1.439v-3.645l-6.549.008s-.738.066-.738-.734l.011-5.754ZM12.449 21.657l4.398-4.749s2.661 2.025 1.645 5.572c0 0-.183 1.298-1.922 2.992l-.949-.881s1.267-1.221 1.562-2.646c0 0 .44-1.855-.571-2.891l-3.22 3.48-.942-.877ZM17.551 16.147l2.4-2.593 4.124 3.814-.979 1.057-1.683-1.56-1.424 1.538-.961-.885 1.415-1.532-.528-.495-1.418 1.534-.946-.878zM20.188 19.808a3.132 3.132 0 0 0 4.599 4.253 3.128 3.128 0 0 0-.173-4.422 3.127 3.127 0 0 0-4.426.17m3.551 3.263a1.707 1.707 0 0 1-2.414.092 1.706 1.706 0 0 1-.091-2.414 1.706 1.706 0 1 1 2.504 2.322" style="fill:#006dbb"/><path d="M35.233 5.739h1.443v5.612h-1.443z" style="fill:#006dbb" transform="rotate(-23.568 35.955 8.546)"/><path d="m39.068 13.909.46 1.058-7.488 3.267s-.763.314-1.082-.409l-.981-2.249 1.32-.577.691 1.578s.092.229.369.114l6.654-2.907.057.124ZM27.376 14.556c.3.68 1.146.314 1.146.314l5.247-2.289-2.254-5.162-6.089 2.66 1.95 4.477Zm-.138-3.873 3.453-1.507 1.228 2.81-3.454 1.509-1.227-2.811ZM58.911 4.726l2.888 1.355.374-.793 1.246.585-.373.791 2.911 1.365-.551 1.17-7.049-3.308.554-1.165zM67.576 8.777l2.241 1.054-.576 1.228-.935-.438-1.823 3.875-1.305-.612 2.398-5.107zM57.995 11.928l7.945 3.727-1.379 2.938-1.297-.612.82-1.749-6.648-3.12.559-1.19v.006z" style="fill:#006dbb"/><path d="M62.423 6.378a3.115 3.115 0 0 0-4.145 1.496 3.12 3.12 0 0 0 1.495 4.149 3.121 3.121 0 0 0 4.148-1.499 3.117 3.117 0 0 0-1.497-4.146m-2.098 4.476a1.821 1.821 0 0 1-.873-2.424 1.827 1.827 0 0 1 2.426-.881 1.825 1.825 0 0 1-1.553 3.304M81.044 20.084l.247-.254-7.058-6.849-.943.971 6.014 5.835-2.978 3.065 1.049 1.016 3.669-3.784zM73.331 23.544l1.778-1.833-1.05-1.019-1.777 1.835-1.419-1.376 1.783-1.835-1.053-1.02-1.779 1.836-1.618-1.572-.943.972L75 27.049l.943-.968-2.612-2.537zM47.876 18.181c-16.399 0-29.69 13.292-29.69 29.69s13.291 29.698 29.69 29.698 29.691-13.294 29.691-29.698-13.29-29.69-29.691-29.69m0 58.234c-15.764 0-28.541-12.776-28.541-28.544s12.777-28.538 28.541-28.538 28.539 12.778 28.539 28.538-12.776 28.544-28.539 28.544" style="fill:#006dbb"/><path d="M47.876 0C21.436 0 0 21.435 0 47.873s21.436 47.881 47.876 47.881 47.873-21.438 47.873-47.881S74.318 0 47.876 0m-.225 94.588c-25.677 0-46.486-20.917-46.486-46.715S21.974 1.16 47.651 1.16s46.487 20.917 46.487 46.713-20.814 46.715-46.487 46.715" style="fill:#006dbb"/><path d="M65.47 41.462c0-9.831-7.976-17.812-17.814-17.812s-17.812 7.981-17.812 17.812c0 2.322.448 4.531 1.256 6.564-.003.005-.006.005-.01.01a17.835 17.835 0 0 0 10.149 10.08c0-.012.011-.021.021-.031a17.716 17.716 0 0 0 12.667.047c.01.013.015.025.029.03A17.837 17.837 0 0 0 64.33 47.776q-.002-.012-.012-.016a17.668 17.668 0 0 0 1.151-6.298m-1.58 5.949a8.105 8.105 0 0 1-2.831-6.153 8.103 8.103 0 0 1 2.706-6.05 17.112 17.112 0 0 1 1.171 6.253c0 2.089-.367 4.096-1.047 5.949m-1.972-12.378-13.412 5.732 5.517-13.662s.625 6.764 7.895 7.93m-7.904 20.805L48.54 42.32l13.551 5.784s-6.776.494-8.079 7.733m-.414-30.606a8.094 8.094 0 0 1-12.25.143 17.25 17.25 0 0 1 12.251-.143M33.37 47.96l13.479-5.576-5.68 13.6s-.54-6.778-7.799-8.024m7.765-20.727 5.627 13.457-13.623-5.632s6.771-.563 7.996-7.824M30.371 41.462c0-2.071.366-4.056 1.038-5.894a8.102 8.102 0 0 1 2.771 6.1 8.083 8.083 0 0 1-2.654 5.992 17.198 17.198 0 0 1-1.155-6.198m17.284 17.283c-2.118 0-4.152-.388-6.027-1.084a8.115 8.115 0 0 1 5.951-2.599 8.084 8.084 0 0 1 5.984 2.648 17.299 17.299 0 0 1-5.907 1.034" style="fill:#006dbb"/><path d="M69.807 41.698c-.088-.031-1.616-.559-3.027.12-.835.411-1.451 1.141-1.815 2.186l-.009.022-.005.034c-.01.051-1.035 5.599-6.079 14.32v.01l-.02.026-.008.036c-.02.077-.551 1.87.333 3.238.507.789 1.365 1.265 2.544 1.42l.244.03.101-.22 2.467-5.635c2.616 1.403 2.458 4.136 2.452 4.257-.374 3.818-3.478 4.092-3.61 4.099-2.622.157-5.311-1.637-5.342-1.655l-.017-.011-.012-.008c-4.924-2.545-9.763-2.175-9.961-2.157-7.108.158-10.11 2.545-10.362 2.751-2.821 1.9-4.934 1.452-5.278 1.354l-.02-.016-.09-.012c-2.911-.373-3.531-3.285-3.559-3.407-.474-3.042 1.351-4.451 2.54-5.041l2.464 5.644.118.265.283-.086c.031-.008 3.109-1.009 2.757-3.862v.046c0-.035-.019-.764-.524-1.5-4.767-8.424-6.161-14.259-6.174-14.309l-.01-.047-.021-.039c-1.58-2.987-4.689-1.874-4.718-1.865l-.031.014-.025.01c-2.964 1.743-2.295 4.033-2.267 4.128-.003-.004 4.971 17.123 4.971 17.123l.086-.028c.278.893 1.269 3.226 3.976 3.592.236.077 2.639.773 5.894-1.426l.015-.011.015-.015c.032-.028 2.96-2.452 9.991-2.61.063-.01 4.87-.371 9.615 2.073.229.161 2.944 1.925 5.73 1.757.035-.004 2.923-.245 3.922-3.265l.043.008 4.728-16.958c.003-.046.679-3.066-2.307-4.38M34.208 62.534l-2.333-5.349c.159-.057.274-.097.33-.11 1.5-.081 2.611.211 3.307.858.118.115.209.227.292.339.053.093.103.178.15.27l.014-.008c.249.451.269.84.269.901v.012l.004.034c.234 1.873-1.369 2.768-2.035 3.051M25.697 42.29c.271-.101 2.605-.807 3.874 1.537.133.539 1.467 5.655 5.445 13.024-.762-.341-1.718-.492-2.875-.421h-.03l-.022.006c-.044.009-3.44.853-4.004 4.138L23.75 45.653c-.026-.082-.525-1.903 1.948-3.362m35.867 20.135c-.852-.158-1.478-.523-1.839-1.089-.67-1.02-.335-2.424-.27-2.663 1.351-2.415 3.654-1.925 4.48-1.658l-2.371 5.41Zm9.91-16.512c.004-.006-2.658 9.524-3.987 14.296-.262-1.157-.987-2.754-2.977-3.674-.029-.012-2.065-.907-3.895.058 3.955-7.349 4.882-11.918 4.972-12.392 1.02-2.887 3.857-1.942 3.978-1.905 2.458 1.089 1.936 3.513 1.909 3.617" style="fill:#006dbb"/><path d="m25.379 48.711 2.71-.936s.802 1.895-.19 3.321c0 0-.381.615-1.385.885l-.258-.757s.726-.148 1.175-.83c0 0 .468-.764.217-1.631l-2.005.701-.264-.754ZM28.516 47.63l1.414-.495 1.136 3.266-.577.198-.467-1.33-.846.296-.264-.765.839-.285-.145-.423-.837.288-.253-.75zM29.04 50.326c-.702.243-.98 1.257-.636 2.263.351 1.008 1.202 1.624 1.898 1.381.7-.242.984-1.258.635-2.257-.356-1.012-1.205-1.63-1.897-1.387m.977 2.805c-.378.134-.842-.209-1.032-.754-.192-.552-.034-1.104.339-1.235.384-.131.848.208 1.037.758.194.544.041 1.098-.344 1.231" style="fill:#006dbb"/><path d="M67.553 49.711h3.465v.615h-3.465z" style="fill:#006dbb" transform="rotate(-72.476 69.285 50.018)"/><path d="m68.421 53.735-.214.683-3.328-1.059s-.307-.202-.183-.584l.453-1.446.591.187-.322 1.015s-.048.144.07.183l2.959.936-.026.085ZM64.593 49.878a.41.41 0 0 0 .24.555l2.451.774 1.051-3.307-2.826-.901-.915 2.879Zm1.253-1.941 1.655.524-.571 1.804-1.661-.524.578-1.804ZM12.461 31.136c.638 0 1.148-.517 1.148-1.154s-.51-1.15-1.148-1.15-1.152.51-1.152 1.15.514 1.154 1.152 1.154M82.695 31.377c.636 0 1.154-.516 1.154-1.147 0-.636-.518-1.156-1.154-1.156s-1.151.52-1.151 1.156a1.15 1.15 0 0 0 1.151 1.147M55.394 67.274l-6.28.013-.004-2.078h-1.602l.009 2.082-6.524.007-.798.005v.797l.008 5.165h1.598l-.007-4.365 3.204-.008.003 4.367 1.604-.003-.013-4.364 3.366-.007.004 4.371 1.601-.005-.005-4.366 3.038-.008.006 4.363 1.602-.003-.011-5.164v-.799h-.799zM13.783 52.331l.413.225-.01-.472-.027-1.254-.003-.164-.144-.074-3.37-1.831 3.286-1.992.135-.088-.006-.154-.028-1.257-.006-.192.304-1.37.025-.116-.06-.093-2.548-3.894 3.061.681.265.058.061-.267.24-1.07.059-.258-.268-.067L6.6 36.789l-.263-.057-.063.268-.234 1.069-.057.261.263.06 3.465.762.097.176-4.432 2.21-.114.059-.031.127-.319 1.442-.121.567.508-.267 5.359-2.766 2.826 4.426-4.693 2.851-3.739.087-.27.014.006.267.023 1.094.004.272.277-.007 3.736-.083 4.955 2.71zM15.595 59.817l.257-.074-.066-.26-.299-1.055-.074-.262-.264.074-4.983 1.401c-.918.252-1.633.243-2.128-.03-.362-.204-.612-.557-.757-1.079-.338-1.194.284-1.995 1.893-2.447l4.985-1.392.257-.073-.074-.267-.294-1.053-.074-.26-.264.066-5.338 1.505c-2.118.597-3.16 2.337-2.6 4.344.265.941.81 1.671 1.575 2.101.824.464 1.851.552 2.905.261l5.343-1.503ZM20.59 67.335l-.146-.229-.585-.921-.151-.234-.226.149-4.587 2.852 1.45-8.041.165-.662-.574.369-7.376 4.618-.236.142.148.229.583.924.148.228.227-.143 4.564-2.837-1.443 8.046-.165.661.575-.365 7.398-4.635.231-.151zM23.278 77.355l.226-.259.181-.211-.211-.178-2.64-2.26-.207-.176-.175.206-.655.758-.174.208.21.178 1.478 1.269c-.929.755-2.454.605-3.279-.096-1.27-1.084-1.372-3.213-.228-4.553 1.2-1.395 3.215-1.579 4.585-.399.725.623 1.148 1.659 1.069 2.654l-.025.306.313-.017 1.061-.056.249-.017.005-.245c.055-1.442-.583-2.866-1.703-3.829a4.747 4.747 0 0 0-3.522-1.13 4.852 4.852 0 0 0-3.3 1.69 4.941 4.941 0 0 0-1.147 3.551 4.617 4.617 0 0 0 1.582 3.172c1.953 1.667 4.601 1.427 6.305-.568M31.989 78.168l-5.132 2.854.773-5.957.151-.861-.615.623-6.195 6.045-.232.233.276.182.839.709.191.127.155-.162 3.218-3.141-.541 4.746-.1.606.519-.336 4.098-2.162-1.512 4.045-.09.213.19.119.988.466.271.177.132-.305 3.014-7.884.336-.81-.734.473zM34.151 78.783l-.259-.101-.098.256-3.129 8.185-.096.258.252.097 1.023.389.253.099.098-.254 3.128-8.187.098-.257-.254-.097-1.016-.388zM43.543 81.421l.055-.27-.261-.057-1.068-.228-.267-.06-.057.267-1.237 5.26-4.143-6.555-.355-.584-.149.666-2.404 8.39-.055.257.263.065 1.102.396.27.058.056-.271 1.541-5.438 4.265 6.705.36.582.139-.668 1.945-8.515zM53.945 81.342l-.033-.275-.269.033-1.085.124-.271.031.033.27.587 5.139c.115.952-.008 1.656-.358 2.096-.259.327-.648.521-1.186.586-1.231.137-1.925-.596-2.115-2.258l-.596-5.139-.028-.273-.271.033-1.089.123-.267.039.029.261.643 5.513c.25 2.185 1.808 3.492 3.875 3.262.976-.115 1.776-.539 2.328-1.229.584-.741.835-1.746.71-2.832l-.635-5.503ZM62.17 78.203l-.252.099-1.028.379-.254.093.099.262 1.84 5.063-7.569-3.075-.614-.296.24.639 2.992 8.175.092.255.257-.092 1.025-.384.249-.097-.091-.256-1.828-5.051 7.571 3.08.612.297-.242-.638-3.003-8.2-.096-.253zM62.976 77.806l-.232.14.145.236 4.645 7.435.138.232.234-.144.926-.583.232-.144-.142-.231-4.645-7.434-.145-.231-.229.146-.927.578zM81.778 72.073l-.216-.172-.171.209-2.106 2.597-2.152-1.742 2.04-2.516.178-.212-.212-.173-.783-.631-.205-.168-.175.211-2.042 2.516-1.479-1.203 2.106-2.598.169-.211-.206-.172-.782-.63-.212-.168-.171.212-2.965 3.655-.168.211.209.168 6.809 5.529.21.168.169-.218 2.966-3.647.173-.214-.211-.169-.773-.632zM74.084 81.712l-9.377-4.725 1.428-1.083 5.764 2.907-1.286-6.318 1.411-1.077 2.06 10.296zM82.746 63.074c.228.623.254 1.383.083 2.274l4.921-1.204-.964 1.906-4.736 1.066-.182.363 3.335 1.694-.754 1.489-8.422-4.27 1.162-2.288c.288-.561.516-.975.683-1.238.262-.378.538-.675.83-.88a2.507 2.507 0 0 1 1.382-.543 2.5 2.5 0 0 1 1.442.262c.592.297.999.76 1.22 1.37m-3.182.14c-.365.211-.717.637-1.05 1.294L78 65.524l2.636 1.333.486-.961c.343-.681.494-1.23.45-1.643-.029-.432-.277-.762-.73-.991-.48-.247-.908-.263-1.278-.047M86.243 61.295c.48.128.893.08 1.242-.118.346-.208.585-.539.727-1.008.138-.499.127-.938-.052-1.317-.173-.369-.484-.622-.917-.749-.456-.132-.842-.087-1.143.15-.211.168-.507.546-.866 1.14a6.68 6.68 0 0 1-.719 1.02 3.795 3.795 0 0 1-.959.779c-.239.136-.5.212-.769.23a2.306 2.306 0 0 1-.801-.094c-.787-.232-1.341-.685-1.664-1.369-.33-.671-.365-1.443-.11-2.317.234-.808.639-1.402 1.217-1.766.589-.364 1.288-.46 2.098-.286l-.441 1.509c-.387-.082-.721-.029-1 .147-.271.171-.468.436-.57.804-.124.411-.104.776.048 1.087.154.301.423.504.801.622.145.036.272.057.375.057a.689.689 0 0 0 .361-.117c.152-.099.303-.261.455-.479.093-.12.24-.341.429-.657l.415-.687c.42-.613.896-1.034 1.434-1.26.54-.248 1.12-.285 1.727-.102.87.248 1.493.749 1.871 1.483.376.747.423 1.594.147 2.547-.261.89-.731 1.547-1.424 1.957-.694.427-1.477.512-2.339.258l.429-1.465ZM90.747 55.466l-9.383-1.035.184-1.687 9.384 1.026-.185 1.696zM91.207 49.952l-8.061-.034-.006 2.245-1.379-.008.022-6.096 1.377.01-.008 2.183 8.061.028-.006 1.672zM90.39 39.223l.277 1.672-3.429.567-5.338 4.281-.302-1.866 3.975-3.027-4.731-1.546-.31-1.864 6.518 2.331 3.34-.548z" style="fill:#006dbb"/></svg>