<svg xmlns="http://www.w3.org/2000/svg" width="201.24562mm" height="226.86235mm" viewBox="0 0 201.24562 226.86235"><defs><clipPath id="a" clipPathUnits="userSpaceOnUse"><path d="M74.332 232.684c-3.096 0-5.809.107-7.838.223 1.555-4.431 6.604-18.724 3.506-34.011-7.678-37.902 31.879-50.371 35.445-52.226 3.567 1.855 43.123 14.324 35.446 52.226-3.098 15.287 1.951 29.58 3.508 34.011a138.865 138.865 0 0 0-7.84-.223c-10.367 0-23.813 1.997-31.114 7.616-7.301-5.619-20.746-7.616-31.113-7.616"/></clipPath><clipPath id="b" clipPathUnits="userSpaceOnUse"><path d="M62.334 240.304h86.246v-93.63H62.334Z"/></clipPath><clipPath id="c" clipPathUnits="userSpaceOnUse"><path d="M62.334 240.304h86.246v-93.63H62.334Z"/></clipPath><clipPath id="e" clipPathUnits="userSpaceOnUse"><path d="M0 288h214V0H0Z"/></clipPath><radialGradient id="d" cx="0" cy="0" r="1" fx="0" fy="0" gradientTransform="matrix(53.49652 0 0 -53.49652 97.657 210.284)" gradientUnits="userSpaceOnUse" spreadMethod="pad"><stop offset="0" style="stop-opacity:1;stop-color:#176fc0"/><stop offset="1" style="stop-opacity:1;stop-color:#172e59"/></radialGradient></defs><path d="M156.283 207.411c-8.823-.138-12.656-6.613-12.656-6.613l-3.04 3.256s4.789 7.771 15.696 8.002c10.907-.23 15.696-8.002 15.696-8.002l-3.04-3.256s-3.834 6.475-12.656 6.613" style="fill:#ed1639;fill-opacity:1;fill-rule:nonzero;stroke:none;stroke-width:.352778" transform="translate(-812.58 -1014.429) scale(5.84326)"/><path d="M170.184 194.64c-.796 2.97-1.878 4.948-3.647 7.067 1.688-.629 2.33-1.452 2.341-1.47l2.43 2.575c1.08-1.746 1.736-3.91 1.838-4.991z" style="fill:#ed1639;fill-opacity:1;fill-rule:nonzero;stroke:none;stroke-width:.352778" transform="translate(-812.58 -1014.429) scale(5.84326)"/><path d="m144.741 204.002.668.55-.726 1.581.004.004 1.326-1.087.667.55-1.538 2.001-.426-.351 1.167-1.52-.005-.002-1.533 1.218-.346-.286.802-1.82-.005-.004-1.167 1.518-.425-.35zM146.671 207.427l.438.258.214-.904-.005-.004zm.734-1.414.51.301-.499 2.65-.524-.31.1-.47-.673-.397-.34.327-.518-.304zM148.65 206.733l.55.234.136 1.76.006.003.578-1.458.503.214-.937 2.367-.55-.234-.13-1.778-.006-.003-.584 1.476-.504-.215zM151.713 209.474a.82.82 0 0 0 .042.258.488.488 0 0 0 .125.2.43.43 0 0 0 .216.112.427.427 0 0 0 .24-.012.477.477 0 0 0 .192-.132.824.824 0 0 0 .139-.22 1.322 1.322 0 0 0 .111-.553.815.815 0 0 0-.042-.258.447.447 0 0 0-.34-.312.426.426 0 0 0-.24.012.47.47 0 0 0-.193.133.811.811 0 0 0-.138.219 1.265 1.265 0 0 0-.084.27 1.28 1.28 0 0 0-.028.283m-.364-.9c.079-.148.177-.271.294-.37a.97.97 0 0 1 .867-.207c.166.037.31.1.43.197.12.096.215.215.283.352.069.14.11.294.127.462.015.168.005.343-.031.526a1.807 1.807 0 0 1-.175.494c-.08.147-.178.27-.295.37a.961.961 0 0 1-.396.205.994.994 0 0 1-.47 0 1.016 1.016 0 0 1-.715-.548 1.336 1.336 0 0 1-.126-.461 1.787 1.787 0 0 1 .032-.525c.037-.183.095-.348.175-.496M153.75 208.288l1.63.159-.049.53-1.054-.102-.047.52.91.09-.045.514-.912-.09-.088.982-.577-.057zM156.404 208.519l.848-.085.54 1.66.006-.001.222-1.736.85-.085.236 2.546-.541.054-.18-1.933h-.007l-.284 1.98-.44.044-.645-1.887-.007.001.18 1.933-.54.054zM159.117 208.173l.566-.125.514 2.501-.566.126zM160.873 209.487c.046.136.111.222.197.26a.46.46 0 0 0 .315-.003.47.47 0 0 0 .223-.136.224.224 0 0 0 .046-.22.195.195 0 0 0-.16-.146 1.789 1.789 0 0 0-.377-.024c-.082.003-.14.003-.177.003a2.075 2.075 0 0 1-.267-.022.866.866 0 0 1-.23-.073.614.614 0 0 1-.198-.155.72.72 0 0 1-.133-.263.733.733 0 0 1-.02-.36.733.733 0 0 1 .133-.295.937.937 0 0 1 .24-.22 1.197 1.197 0 0 1 .629-.192c.11 0 .215.02.314.06.1.04.188.104.264.189a.836.836 0 0 1 .173.328l-.554.173c-.03-.106-.087-.171-.166-.197a.434.434 0 0 0-.262.008.374.374 0 0 0-.174.108c-.044.05-.055.11-.035.184.02.066.068.107.147.121.076.015.195.018.354.012l.21-.002c.098.002.187.01.266.023.08.013.156.038.23.074.073.038.138.09.195.16.056.068.1.154.13.26a.917.917 0 0 1 .034.406.702.702 0 0 1-.132.32.904.904 0 0 1-.253.23 1.48 1.48 0 0 1-.708.21.867.867 0 0 1-.339-.064.717.717 0 0 1-.282-.212 1.007 1.007 0 0 1-.187-.372zM162.877 208.79c.059.129.133.208.222.235a.452.452 0 0 0 .314-.037.485.485 0 0 0 .206-.161.221.221 0 0 0 .024-.223.195.195 0 0 0-.174-.128 1.859 1.859 0 0 0-.378.018c-.08.013-.139.02-.176.021-.098.01-.187.013-.267.008a.827.827 0 0 1-.237-.046.602.602 0 0 1-.212-.133.723.723 0 0 1-.16-.247.744.744 0 0 1-.057-.354.737.737 0 0 1 .102-.31.96.96 0 0 1 .217-.245c.087-.07.182-.127.283-.171a1.14 1.14 0 0 1 .322-.088.81.81 0 0 1 .318.024.7.7 0 0 1 .283.16.805.805 0 0 1 .205.305l-.533.233c-.041-.1-.103-.16-.185-.176a.423.423 0 0 0-.26.036.367.367 0 0 0-.162.126c-.039.055-.044.117-.015.188.026.065.078.098.158.104.078.006.196-.003.352-.027l.21-.025c.098-.01.186-.012.267-.008.08.004.159.02.235.049a.595.595 0 0 1 .211.136.704.704 0 0 1 .157.244.945.945 0 0 1 .076.401.72.72 0 0 1-.099.333.926.926 0 0 1-.228.256c-.094.073-.2.136-.321.188a1.293 1.293 0 0 1-.361.101.878.878 0 0 1-.344-.028.717.717 0 0 1-.302-.179.985.985 0 0 1-.224-.348zM163.626 206.586l.515-.274 1.128 2.274-.516.275zM165.653 207.226c.062.066.13.118.202.156a.433.433 0 0 0 .453-.019.446.446 0 0 0 .166-.181.505.505 0 0 0 .051-.233.825.825 0 0 0-.048-.258 1.306 1.306 0 0 0-.288-.48.787.787 0 0 0-.203-.155.452.452 0 0 0-.224-.056.424.424 0 0 0-.23.075.454.454 0 0 0-.216.414.82.82 0 0 0 .047.258 1.306 1.306 0 0 0 .29.48m-.866-.389a1.348 1.348 0 0 1-.036-.477c.018-.156.068-.3.148-.432a1.08 1.08 0 0 1 .339-.34c.144-.093.292-.149.443-.166a.95.95 0 0 1 .44.05c.141.052.276.132.4.242.123.11.233.245.328.402.096.158.164.318.205.482.04.163.052.324.034.478a1.03 1.03 0 0 1-.148.431 1.08 1.08 0 0 1-.338.34 1.03 1.03 0 0 1-.442.167.951.951 0 0 1-.44-.05 1.247 1.247 0 0 1-.4-.243 1.809 1.809 0 0 1-.533-.884M166.325 204.926l.465-.384 1.551.734.005-.005-.948-1.232.425-.352 1.54 2-.465.384-1.563-.748-.005.004.96 1.247-.426.351z" style="fill:#f8f8f8;fill-opacity:1;fill-rule:nonzero;stroke:none;stroke-width:.352778" transform="translate(-812.58 -1014.429) scale(5.84326)"/><path d="m145.752 202.77.634-.598c-.748-.227-1.565-.637-2.028-.906.372.45.983 1.097 1.394 1.504M168.208 201.266c-.463.27-1.28.679-2.028.906l.635.599a24.714 24.714 0 0 0 1.393-1.505M169.946 194.346s-.291-.36-.491-.369c-.087 0-.273-.055-.438.332-.187.437.193.873.194.873l.361.435zM143.355 195.182c.001 0 .38-.436.195-.873-.165-.387-.352-.332-.438-.332-.2.008-.492.369-.492.369l.374 1.27z" style="fill:#ed1639;fill-opacity:1;fill-rule:nonzero;stroke:none;stroke-width:.352778" transform="translate(-812.58 -1014.429) scale(5.84326)"/><path d="M143.688 200.237c.012.019.653.841 2.342 1.47-1.77-2.12-2.852-4.096-3.648-7.068l-2.962 3.181c.101 1.08.76 3.246 1.838 4.992z" style="fill:#ed1639;fill-opacity:1;fill-rule:nonzero;stroke:none;stroke-width:.352778" transform="translate(-812.58 -1014.429) scale(5.84326)"/><path d="m171.308 202.812-2.43-2.575c-.011.018-.653.841-2.341 1.47 1.769-2.12 2.85-4.097 3.647-7.067l2.962 3.18c-.102 1.08-.759 3.246-1.838 4.992m.67 1.242s-4.788 7.771-15.695 8.002c-10.907-.23-15.696-8.002-15.696-8.002l3.04-3.256s3.833 6.475 12.656 6.613c8.822-.138 12.656-6.613 12.656-6.613zm-32.558-6.233 2.962-3.181c.796 2.97 1.878 4.948 3.648 7.067-1.689-.629-2.33-1.452-2.342-1.47l-2.43 2.575c-1.078-1.746-1.737-3.911-1.838-4.991m3.691-3.844c.087 0 .274-.055.438.332.187.437-.193.873-.194.873l-.362.434-.373-1.27s.291-.36.491-.369m2.64 8.793a24.411 24.411 0 0 1-1.393-1.504c.463.269 1.28.679 2.028.906zm20.429-.598c.748-.227 1.565-.637 2.028-.906-.371.45-.983 1.097-1.393 1.504zm3.03-6.99s-.38-.436-.193-.873c.165-.387.351-.332.437-.332.2.008.492.369.492.369l-.374 1.27zm1.014-.98-.268-.285c-.212-.213-.382-.235-.452-.235-.393-.022-.64.3-.73.507-.26.668.179 1.194.25 1.27.03.037.211.262.433.488-.722 2.278-1.986 4.32-3.683 6.02l-.176.179.925.864a15.034 15.034 0 0 1-20.48 0l.926-.864-.177-.179c-1.696-1.7-2.96-3.742-3.683-6.02.222-.226.403-.45.434-.487.07-.077.51-.603.249-1.27-.09-.208-.337-.53-.73-.508-.07 0-.24.022-.452.235l-.268.285-3.28 3.5s.395 3.016 1.93 5.368l-.883.945.107.16c3.3 4.939 9.756 8.256 16.067 8.256s12.768-3.317 16.067-8.256l.107-.16-.884-.945c1.536-2.352 1.93-5.368 1.93-5.368z" style="fill:#d3d2d2;fill-opacity:1;fill-rule:nonzero;stroke:none;stroke-width:.352778" transform="translate(-812.58 -1014.429) scale(5.84326)"/><path d="m168.9 200.206.08.086-.077-.092c-.001.001-.002.005-.004.006" style="fill:#d3d2d2;fill-opacity:1;fill-rule:nonzero;stroke:none;stroke-width:.352778" transform="translate(-812.58 -1014.429) scale(5.84326)"/><path d="m168.894 200.2-.054.08a.547.547 0 0 0 .06-.074zM143.668 200.206a.51.51 0 0 0 .059.074l-.054-.08z" style="fill:#d3d2d2;fill-opacity:1;fill-rule:nonzero;stroke:none;stroke-width:.352778" transform="translate(-812.58 -1014.429) scale(5.84326)"/><g clip-path="url(#a)" transform="matrix(2.06137 0 0 -2.06137 -116.738 495.348)"><g clip-path="url(#b)"><g clip-path="url(#c)"><path d="M62.334 240.304h86.246v-93.63H62.334Z" style="fill:url(#d);stroke:none"/></g></g></g><g clip-path="url(#e)" transform="matrix(2.06137 0 0 -2.06137 -116.738 495.348)"><path d="M105.445 240.3c-7.3-5.619-20.746-7.616-31.112-7.616-3.097 0-5.81.108-7.839.223 1.555-4.431 6.603-18.724 3.506-34.011-7.678-37.902 31.879-50.371 35.445-52.226 3.567 1.855 43.123 14.324 35.446 52.226-3.098 15.287 1.95 29.58 3.507 34.011a139.75 139.75 0 0 0-7.839-.223c-10.368 0-23.813 1.997-31.114 7.616m0-2.6c9.905-6.601 26.188-7.132 31.114-7.132 1.605 0 3.222.028 4.839.084-2.074-6.416-5.283-18.836-2.582-32.176 2.823-13.926-.711-25.863-10.492-35.472-7.965-7.825-17.789-11.899-21.983-13.641-.341-.141-.636-.266-.896-.373l-.896.373c-4.194 1.742-14.016 5.816-21.981 13.641-9.785 9.609-13.316 21.546-10.494 35.472 2.701 13.34-.508 25.76-2.58 32.176a139.93 139.93 0 0 1 4.839-.084c4.924 0 21.21.531 31.112 7.132" style="fill:#d3d2d2;fill-opacity:1;fill-rule:nonzero;stroke:none"/><path d="m106.27 192.308-.493.455s-.11.135.107.123c0 0 .305 0 .533-.084a.66.66 0 0 0 .136-.066s.161.041.052-.272l-.052-.177s-.019-.221-.261 0zm11.761-2.818s-.025.244-.164.392c0 0-.406.572-1.763.19 0 0-.668-.313-.627.15 0 0-.012.287.531.19 0 0 .84-.094 1.154.166 0 0 .268.009.176-.192 0 0-.055-.191.26.068 0 0 .148.393-.327.489 0 0-.164.679-1.494.365 0 0-.312-.107-.656-.42l-.16-.137c-.463.014-1.171-1.181-1.171-1.181-.417-.571-.811-.707-.811-.707l-4.131-1.207c-.448-.137-.612.107-.612.107l-.599.557c-.16.15.327.095.327.095.45-.041.503.231.503.231.49.844-.014.691-.014.691a148.17 148.17 0 0 0-1.792-.201c-.475.027-.286.582-.286.582.23.572.488.938.488.938.91.843 2.133-.528 2.133-.528.543.869.572 1.629.572 1.629.039.883-1.821.979-1.821.979v.271c.017.283-.485.442-1.108.531-.991.145-2.289.108-2.289.108s.067.707-.612.855c0 0-.815.123-.679-.826h-.121s-.272.772-1.195.664c0 0-.912-.123-.856-.965 0 0 .108-.529.651-.529 0 0-1.115-.348-1.675-1.404a2.574 2.574 0 0 1-.131-.295s-.354-1.955-1.537-2.133c0 0 .384-.516 1.47.055 0 0 .244-1.155-.883-2.76 0 0-.137-.283.309 0 0 0 .613.396.938.994 0 0 .845-1.127-.202-3.18 0 0-.272-.517.271-.136 0 0 .693.531.897 1.576 0 0 .123.203.191-.041 0 0 .395-1.371.162-3.328 0 0-.013-.299.233 0 0 0 .474.515.637 2.064 0 0 .053.233.15-.066 0 0 .57-.858.432-2.744 0 0 0-.899-.827-1.494 0 0-2.228-1.061-3.057-2.528 0 0-.803-.721-1.807-.883 0 0-1.766-.339-1.332 2.159 0 0 .666 2.908 1.264 4.089 0 0 1.02 2.473.898 4.674 0 0-.098 2.065-2.065 2.242 0 0-.776.245-1.645-.857 0 0-.407-.828.257-1.588l-.095-.041s-.203.244-.841.19c0 0-1.129-.217-.678-1.536 0 0 .133-.353.433-.543 0 0 .827-.625 1.02-.923 0 0 .446-.571.446-1.25 0 0 1.456 1.222 1.645 3.138 0 0 .206 1.032-.882 1.319 0 0-.505.066-.748-.395 0 0-.815 1.109.707 1.59 0 0 2.008.219 1.616-3.426 0 0-.175-1.33-.707-2.703 0 0-1.071-2.715-1.304-3.586 0 0-.83-3.369 1.507-3.424 0 0 1.088-.148 2.133.856 0 0 .396-1.1.312-2.526 0 0-.353-1.63-2.295-.298 0 0-1.153.869-2.487 2.119 0 0-.146.082-.146-.192 0 0-.453-3.366-.138-5.636 0 0-2.527-.869-.395-2.99 0 0-.092.396-.053.584 0 0 .041.137.205.082 0 0 .691-.422 1.288.474 0 0-.038-.841.937-1.029 0 0 .423-.098-.269-.504 0 0 1.019-.353 1.519.869 0 0 .409-.095.723.162 0 0 .245-.136-.246-.746 0 0 .828.026 1.034 1.506 0 0 .065.994-.857 1.198 0 0 .107.787-1.033.978 0 0-.666.109-1.467-.475 0 0 .084 1.045.75 2.01 0 0 .444-.638 2.226-1.195 0 0-.192-.951.651-1.414 0 0-.229 1.17.517 1.236 0 0-.22-1.115.745-1.521 0 0-.312 1.195.449 1.562 0 0 2.379 1.059 1.47 3.248 0 0-1.007 1.683-1.455 2.226 0 0 1.645.219 4.145-.189 0 0 1.588-.028 1.914-2.58 0 0 .176-1.181-1.564-2.16 0 0 2.283-1.863 5.384-1.982 0 0-1.116-1.784.623-2.299 0 0 .815-.164 1.399.324 0 0-.774-.135-.448.301 0 0 .463.244.515.842 0 0 .096.191.383 0 0 0 1.125-.42 1.739.732 0 0 .326.232.148-.623 0 0 .965.23.285 1.684 0 0-.176.312-.584.435 0 0 .774.151.734.828 0 0 .028.326.313-.326 0 0 .814.816-.504 1.533 0 0-.869.668-1.982-.336 0 0-.532.814-1.698.08 0 0-.707-.625-.462-1.697 0 0 .15-.463-.368-.027 0 0-1.658.789-2.16 1.263 0 0 .91.624 1.223 1.195 0 0 .991-.489 1.576.409 0 0-.732-.096-.871.554 0 0 1.008.057 1.275.953 0 0-1.179-.506-1.72.678 0 0-.817 3.152-5.477 2.094 0 0-1.141-.192-.124.49 0 0 3.997 1.383 4.948 3.408 0 0 2.457-1.426 3.315-1.795 0 0 .855-.529 2.185.723 0 0 .559.584.924.203 0 0 .123-.576.436-.539 0 0 .039-.154-.313-.275 0 0 .57-.483.734.275 0 0 .461.254.094.945 0 0-.162.45-1.385.369 0 0-.462-.015-.205.354 0 0 .192.162.721-.057 0 0 1.074-.556 1.373-.189 0 0 .203 0 .082-.34 0 0 .865.367.039.83 0 0-.011.516-.908.625 0 0-.572.027-1.033-.082 0 0-.897-.164-.613.19 0 0 .205.339.585.148 0 0 .815-.162.977.219 0 0 .367.162.424-.11 0 0 .107-.203.148.233 0 0-.068.324-.488.297 0 0-.084.49-1.236.3 0 0-.285.04-.803-.544 0 0-.189-.299-.422-.434 0 0-.422-.164-.422-.422 0 0-.595-.408-1.058-.176 0 0-1.914 1.862-2.2 2.242 0 0-.125.204.039.272 0 0 1.93.99 2.772 1.672 0 0 .34.121.394 0 0 0 .475-.328.829-.041 0 0 .216.121.298-.028 0 0 .776-.625 1.483-.056 0 0 .625.084.527.666 0 0 0 .191-.217-.082l-.148-.026s-.094.489-.748.188c0 0-.518-.418-.505.275 0 0 .058.407.437.516 0 0 .246.066.531.338 0 0 .324.137.488-.053 0 0 .203-.408.803-.353 0 0 .121-.014-.041-.163 0 0-.137-.218.189-.084 0 0 .477.247.19.614 0 0-.055.746-1.209.636 0 0-.828-.111-.461.239 0 0 .232.25.625.09 0 0 .773-.381 1.073-.274 0 0 .142-.012.064-.189 0 0 .099-.258.302.164 0 0 .137.217 0 .34M90.744 222.578h-4.721v-19.795h4.721zM98.293 202.781l-3.26 10.896s2.725 8.188 2.955 8.901h-4.322c-.123-.391-2.701-8.893-2.832-9.332.131-.49 2.518-10.041 2.627-10.465zM111.219 204.957c.166.578.248 1.785.248 3.587v7.144c0 1.899-.059 3.194-.162 3.821a3.539 3.539 0 0 1-.823 1.658c-.443.5-1.077.859-1.927 1.068-.877.225-2.598.343-5.137.343H99.74V202.78h6.407c1.254 0 2.189.061 2.792.193.588.129 1.091.359 1.475.685.381.317.65.733.805 1.299m-4.482 3.987c0-1.898-.164-2.426-.305-2.652-.234-.395-.785-.587-1.676-.587h-.303v13.953h.303c.647 0 1.086-.076 1.336-.205a1.17 1.17 0 0 0 .559-.789l.086-1.818zM123.813 204.232c.478.623.755 1.223.851 1.791.09.619.139 1.691.139 3.219v13.334h-4.719v-14.717c0-1.404-.085-1.836-.166-2.025-.123-.393-.451-.61-.893-.61-.425 0-.72.205-.855.553-.066.195-.156.58-.156 1.814v14.985h-4.719v-11.762c0-2.289.023-3.797.119-4.5.078-.66.33-1.303.764-1.912.42-.598 1.076-1.108 1.967-1.475.878-.392 1.923-.578 3.093-.578 1.057 0 1.983.164 2.752.471.75.324 1.377.808 1.823 1.412" style="fill:#fff;fill-opacity:1;fill-rule:nonzero;stroke:none"/></g></svg>