<svg xmlns="http://www.w3.org/2000/svg" width="240mm" height="240mm" viewBox="0 0 240 240"><path d="M130.06 203.605c0 22.998-18.644 41.645-41.645 41.645-23 0-41.644-18.647-41.644-41.645 0-23 18.645-41.645 41.644-41.645 23.001 0 41.645 18.645 41.645 41.645z" style="fill:#960a2c;fill-opacity:1;fill-rule:nonzero;stroke:none;stroke-width:.352778" transform="matrix(2.75736 0 0 2.75731 -123.793 -441.4)"/><path d="M118.86 203.605c0 16.814-13.63 30.445-30.445 30.445-16.813 0-30.441-13.63-30.441-30.445 0-16.813 13.628-30.443 30.44-30.443 16.816 0 30.445 13.63 30.445 30.443z" style="fill:#fff;fill-opacity:1;fill-rule:nonzero;stroke:none;stroke-width:.352778" transform="matrix(2.75736 0 0 2.75731 -123.793 -441.4)"/><path d="M88.415 160.083c-23.997 0-43.52 19.524-43.52 43.522 0 23.997 19.523 43.52 43.52 43.52 23.997 0 43.52-19.523 43.52-43.52 0-23.998-19.523-43.522-43.52-43.522zm42.535 43.522c0 23.453-19.081 42.534-42.535 42.534-23.454 0-42.534-19.08-42.534-42.534 0-23.455 19.08-42.537 42.534-42.537s42.535 19.082 42.535 42.537z" style="fill:#960a2c;fill-opacity:1;fill-rule:nonzero;stroke:none;stroke-width:.352778" transform="matrix(2.75736 0 0 2.75731 -123.793 -441.4)"/><path d="m77.825 209.064 1.248-28.097 1.362 33.184 1.116-36.963 1.511 39.92 1.269-41.357 1.48 42.764 1.276-43.232 1.283 43.656 1.192-43.656 1.381 43.232 1.375-42.764 1.385 41.358 1.368-39.92 1.246 36.962 1.256-33.184 1.482 28.097.89-16.795h10.49l-.003 15.364c0 8.91-5.127 14.54-5.127 14.54-6.968 8.6-16.873 8.09-16.873 8.09-10.155.102-15.915-7.123-15.915-7.123-6.378-6.787-6.097-15.51-6.097-15.51l-.027-15.361H76.83l.995 16.795z" style="fill:#960a2c;fill-opacity:1;fill-rule:nonzero;stroke:none;stroke-width:.352778" transform="matrix(2.75736 0 0 2.75731 -123.793 -441.4)"/><path d="m52.34 203.764.002-.042c-.308-.292-1.546-1.548-1.828-1.797-.275-.242-.483-.432-.627-.434-.093-.001-.152.031-.171.115-.018.076-.035.11-.086.109-.059-.001-.076-.043-.074-.137.003-.177.037-.641.04-.87.005-.261-.012-.726-.008-.988.002-.085.02-.143.08-.142.058 0 .074.043.073.127-.002.118.028.33.084.492.097.264.27.554.618.924.249.266 1.494 1.563 1.793 1.856.403-.298 2.214-1.922 2.532-2.246.361-.366.748-.74.933-1.193.106-.252.134-.42.136-.52.001-.06.019-.11.069-.11.06.001.084.044.081.204l-.012.735c-.005.254-.007.406-.027.583-.05.456-.24.68-.568 1.038-.336.366-2.316 1.996-2.564 2.17l-.128.09-.001.043.769.013c.776.013 1.444.025 1.808.006.237-.013.424-.086.462-.297.018-.117.039-.303.04-.413.002-.067.027-.11.07-.108.06 0 .083.069.081.161-.007.473-.042 1.005-.046 1.216-.003.195.013.727.007 1.065-.002.11-.028.169-.088.167-.041 0-.066-.034-.065-.136a1.4 1.4 0 0 0-.028-.305c-.03-.169-.216-.214-.46-.253-.355-.048-1.022-.059-1.8-.072l-1.486-.027c-1.284-.022-1.52-.026-1.791-.014-.288.012-.424.078-.488.355-.018.067-.03.211-.031.329-.002.093-.02.144-.079.142-.059 0-.074-.06-.073-.187.008-.447.043-.979.047-1.182.003-.202-.013-.735-.008-1.022.002-.119.02-.177.079-.176.059 0 .075.051.074.119-.002.085.006.135.02.237.04.23.182.299.477.32.27.023.507.026 1.791.049l.372.006zM54.387 196.797c-.446-.096-.646-.052-.908.005-.145.03-2.2.748-2.69.946-.35.141-.6.305-.725.442a.856.856 0 0 0-.182.324c-.013.066-.043.12-.1.108-.05-.01-.063-.073-.041-.173.031-.148.188-.763.247-1.036.037-.173.084-.517.164-.889.017-.083.05-.119.1-.108.05.01.046.07.052.201a.154.154 0 0 0 .125.148c.066.014.174-.006.302-.04.272-.063 2.51-.795 2.77-.877-.181-.125-1.776-1.554-2.008-1.724a1.112 1.112 0 0 0-.405-.208c-.083-.017-.181-.004-.244.13-.032.07-.065.141-.114.13-.058-.012-.066-.056-.045-.156.059-.272.14-.531.191-.77.04-.183.13-.734.164-.89.02-.091.048-.145.098-.135.057.012.068.083.05.174a.913.913 0 0 0 .02.385c.046.191.125.304.31.533.273.343 1.968 1.914 2.291 2.139.272.187.528.242.8.3l.677.145c.133.027.48.102.832.15.244.036.441 0 .527-.242.04-.111.096-.29.121-.406.02-.09.053-.126.094-.118.058.013.069.084.046.192-.111.52-.247 1.036-.294 1.259-.044.207-.13.732-.196 1.038-.024.115-.055.178-.122.164-.04-.009-.057-.056-.038-.146.025-.116.03-.219.03-.297.002-.171-.165-.285-.4-.353-.342-.099-.69-.173-.822-.2l-.678-.145zM54.025 191.235c-1.175-.518-1.391-.614-1.645-.707-.27-.1-.42-.093-.588.138a1.744 1.744 0 0 0-.156.29c-.037.086-.073.126-.127.102-.054-.024-.046-.084.005-.201.18-.41.419-.887.52-1.118.083-.186.275-.683.397-.961.051-.116.09-.164.145-.14.054.024.049.077.015.155-.038.084-.05.135-.075.234-.054.226.05.346.314.48.24.125.457.22 1.632.739l1.082.477c1.12.494 1.691.479 2.168.236.44-.222.627-.564.743-.827.15-.34.226-.805.053-1.25-.238-.614-.923-.944-1.72-1.295l-.966-.426c-1.175-.518-1.391-.613-1.645-.707-.27-.1-.421-.094-.588.138a1.603 1.603 0 0 0-.145.268c-.038.085-.074.125-.128.1-.055-.024-.046-.084.002-.192.174-.395.412-.871.415-.879.041-.093.233-.59.366-.892.048-.108.087-.155.141-.131.054.024.05.077.008.17-.038.084-.05.134-.076.234-.053.226.051.345.315.48.24.125.457.22 1.632.739l.827.364c.858.38 1.733.866 2.003 1.761.23.757.069 1.35-.153 1.854-.18.409-.53 1.141-1.29 1.48-.53.237-1.23.28-2.352-.215l-1.128-.498zM60.43 184.778c.535.386.776.432.926.333.127-.083.231-.206.313-.313.056-.074.1-.104.141-.074.053.042.021.112-.05.206-.333.437-.558.69-.656.818-.046.061-.266.392-.532.741-.067.088-.12.143-.18.097-.04-.03-.023-.08.028-.148.067-.087.152-.214.197-.328.08-.216-.095-.391-.675-.843l-3.934-3.091c-.134-.102-.213-.194-.161-.262.056-.074.19-.068.397-.09.15-.014 2.023-.201 3.745-.44.805-.11 2.464-.28 2.659-.312l.025-.034-3.069-2.231c-.415-.305-.589-.342-.779-.232-.117.07-.24.231-.312.326-.06.08-.102.092-.142.061-.054-.041-.004-.12.072-.22.267-.35.532-.657.64-.799.056-.074.23-.344.482-.674.066-.087.124-.15.178-.108.04.03.03.086-.032.167-.05.067-.092.12-.133.217-.09.229.01.39.382.684l4.185 3.303c.148.113.188.186.142.246-.056.074-.192.099-.322.116-.726.117-2.262.307-3.487.478-1.284.18-2.692.286-2.912.31l-.015.02 2.88 2.076zM69.94 175.992c.142.178.146.196.104.306-.249.567-.837 1.157-1.352 1.57-1.617 1.293-3.66 1.673-5.117-.148-.844-1.055-.889-2.231-.579-3.075.327-.89.877-1.406 1.432-1.85.455-.363 1.099-.75 1.252-.828.16-.085.422-.23.579-.344.084-.057.119-.041.156.005.058.073.16.294.819 1.119.085.105.092.154.039.196-.047.037-.087.015-.136-.032-.14-.137-.342-.321-.662-.368-.366-.054-1.137.066-1.882.662-.363.29-.824.702-.98 1.454-.12.606.038 1.29.687 2.102 1.136 1.418 2.89 1.757 4.281.644.172-.138.403-.323.503-.522.062-.125.02-.232-.07-.345l-.497-.62c-.264-.33-.464-.58-.63-.772-.185-.22-.33-.278-.584-.15-.063.03-.18.112-.273.186-.06.048-.11.067-.141.027-.042-.053-.006-.103.086-.177.343-.275.774-.587.972-.746.204-.163.538-.463.756-.637.086-.069.142-.092.185-.04.031.04.002.085-.044.121a1.325 1.325 0 0 0-.162.163c-.152.175-.128.34.05.577.152.203.363.467.628.796l.58.726zM70.686 171.718c-.608-1.131-.72-1.34-.863-1.569-.152-.246-.294-.332-.478-.281a1.22 1.22 0 0 0-.283.114c-.075.04-.127.05-.16-.01-.024-.045.028-.092.147-.156.283-.151.764-.381.98-.498.186-.1.612-.358.895-.51.097-.052.165-.069.189-.025.031.06-.005.099-.08.139-.074.04-.13.08-.21.142-.182.145-.173.304-.047.573.113.245.224.453.833 1.585l.704 1.31c.388.721.704 1.31.906 1.613.13.19.255.295.494.205a3.45 3.45 0 0 0 .395-.175c.082-.044.131-.041.151-.004.028.052-.02.107-.1.15-.492.265-.973.495-1.174.602-.171.092-.628.367-.925.527-.097.052-.16.058-.19.006-.02-.037-.001-.075.088-.124a1.4 1.4 0 0 0 .252-.173c.132-.11.11-.26.016-.488-.132-.333-.448-.92-.836-1.642l-.704-1.31zM76.325 170.766c.37 1.016.57 1.564.789 1.646.178.07.405.05 1.024-.176.42-.153.727-.274.848-.56.057-.138.071-.395.032-.552-.018-.074-.019-.127.044-.151.056-.02.078.017.113.112.032.088.193.703.213.956.016.192-.009.247-.421.397-.572.208-.99.343-1.35.465-.364.114-.652.21-.978.33-.087.031-.261.095-.45.172-.182.067-.383.158-.541.216-.103.037-.168.033-.188-.022-.014-.04.009-.075.104-.11.119-.043.209-.093.274-.136.147-.089.123-.278.071-.52-.082-.348-.31-.975-.576-1.705l-.51-1.397c-.44-1.207-.52-1.429-.629-1.677-.114-.265-.224-.368-.506-.329a1.286 1.286 0 0 0-.27.072c-.088.032-.142.034-.162-.022-.02-.056.03-.092.149-.135.373-.136.881-.294 1.096-.373.19-.07.761-.304 1.07-.417.112-.04.173-.045.194.01.02.056-.022.09-.118.124a2.295 2.295 0 0 0-.3.136c-.2.119-.215.276-.129.56.076.26.158.482.598 1.69l.509 1.396zM83.291 167.39c-.092-1.28-.109-1.516-.145-1.784-.038-.286-.115-.415-.397-.454a1.715 1.715 0 0 0-.33-.002c-.093.007-.145-.007-.149-.066-.004-.059.053-.08.18-.09.446-.031.979-.045 1.232-.062.202-.015.732-.078 1.035-.1.126-.01.186.004.19.062.005.06-.044.08-.129.086a1.283 1.283 0 0 0-.242.043c-.225.058-.282.206-.277.502.002.271.019.508.11 1.788l.086 1.18c.087 1.222.369 1.718.806 2.026.401.285.791.29 1.078.27.37-.027.818-.177 1.13-.539.43-.497.401-1.256.34-2.125l-.077-1.053c-.092-1.282-.109-1.517-.145-1.785-.037-.286-.114-.416-.397-.455a1.733 1.733 0 0 0-.305-.003c-.093.007-.145-.006-.149-.066-.004-.058.054-.08.172-.089.43-.03.962-.043.97-.044.102-.007.63-.07.96-.094.118-.008.178.004.182.063.004.06-.045.08-.146.087a1.329 1.329 0 0 0-.243.042c-.224.059-.281.207-.277.503.003.271.02.507.111 1.788l.065.902c.067.935.046 1.936-.618 2.594-.561.557-1.162.694-1.71.733-.446.032-1.257.064-1.912-.448-.458-.356-.823-.956-.91-2.179l-.089-1.23zM92.004 170.013c-.092.653-.02.888.137.974.133.074.29.11.423.131.092.016.139.04.13.091-.011.066-.089.07-.205.051-.542-.09-.871-.172-1.03-.199-.075-.012-.47-.053-.903-.126-.109-.018-.183-.04-.17-.114.009-.05.061-.058.145-.044.108.018.26.035.381.021.229-.03.303-.267.433-.99l.904-4.92c.027-.167.072-.279.156-.264.09.014.148.136.264.31.082.124 1.12 1.695 2.134 3.108.47.662 1.395 2.051 1.513 2.208l.042.007.546-3.756c.077-.509.028-.68-.157-.797-.117-.071-.317-.104-.434-.124-.1-.017-.13-.048-.12-.097.01-.067.104-.06.228-.039.434.073.83.165 1.005.195.091.015.412.044.82.112.109.018.19.04.18.107-.01.05-.063.066-.163.05-.083-.014-.15-.026-.254-.017-.245.027-.341.19-.428.656l-.975 5.242c-.03.184-.076.253-.151.24-.092-.015-.176-.124-.253-.23-.44-.589-1.324-1.86-2.046-2.864-.757-1.052-1.507-2.249-1.63-2.432l-.025-.004-.497 3.515zM100.701 169.199c.446-1.204.528-1.426.606-1.686.083-.275.054-.439-.105-.543a1.182 1.182 0 0 0-.274-.138c-.08-.028-.121-.062-.097-.126.018-.048.086-.04.214.007.3.112.79.32 1.02.405.199.073.675.222.976.334.104.038.16.078.143.125-.023.063-.077.062-.156.032a1.53 1.53 0 0 0-.246-.064c-.23-.04-.342.072-.46.343-.11.248-.192.47-.638 1.674l-.516 1.395c-.284.769-.516 1.395-.61 1.747-.055.223-.053.386.173.505.105.058.274.138.392.182.088.032.119.07.104.11-.02.056-.093.056-.18.024-.523-.194-1.014-.402-1.227-.481-.182-.068-.69-.229-1.008-.346-.102-.038-.15-.082-.13-.138.016-.04.056-.052.151-.016.12.044.22.063.297.074.171.027.268-.09.377-.311.163-.319.394-.945.678-1.713l.516-1.395zM105.112 169.2c.06-.5-.02-.652-.244-.874-.094-.092-.212-.159-.27-.192-.066-.037-.076-.072-.052-.116.033-.059.119-.02.23.042.39.22.796.478 1.054.623.184.104.55.281.918.489.088.05.16.11.132.161-.029.052-.082.041-.147.004-.119-.066-.233-.12-.317-.11a.204.204 0 0 0-.16.113c-.054.096-.105.34-.15.662l-.618 4.055.03.017c.772-.631 3.065-2.462 3.515-2.848.09-.075.182-.169.22-.235a.162.162 0 0 0-.017-.194 1.15 1.15 0 0 0-.274-.203c-.066-.037-.121-.078-.092-.13.034-.058.108-.036.248.044.368.207.665.403.76.457.125.07.484.244.705.368.095.054.146.102.117.153-.029.052-.081.042-.155 0-.074-.041-.228-.128-.41-.114-.134.012-.315.074-.779.434-.677.53-1.1.815-2.007 1.496-1.077.81-1.876 1.417-2.245 1.693-.431.32-.542.413-.645.354-.096-.054-.082-.181-.026-.606l.68-5.543zM110.926 174.76c.82-.987.97-1.17 1.13-1.389.17-.231.205-.378.029-.602a1.754 1.754 0 0 0-.237-.23c-.072-.06-.1-.105-.062-.15.037-.046.094-.02.191.06.175.145.359.309.521.443.164.147.308.278.4.354a167.11 167.11 0 0 0 1.63 1.342c.134.09.248.163.311.193.039.02.093.034.126.06.033.027.017.06-.01.091-.037.046-.135.097-.403.38-.06.06-.31.335-.388.402-.034.027-.08.055-.125.018-.045-.038-.031-.082.017-.14a.912.912 0 0 0 .156-.267c.051-.154.051-.286-.242-.595-.1-.105-.772-.685-.901-.793-.033-.027-.062-.018-.1.028l-1.365 1.645c-.038.045-.053.076-.014.108.143.12.89.74 1.051.851.167.117.28.178.393.162.088-.015.141-.026.174.002.026.02.035.05.004.089-.032.04-.145.121-.446.431-.114.125-.35.37-.388.414-.043.053-.102.124-.16.075-.046-.038-.037-.074-.01-.107.047-.07.117-.155.167-.256.076-.157.066-.33-.153-.555a26.874 26.874 0 0 0-.907-.786c-.033-.027-.06-.007-.093.033l-.427.513c-.183.22-.686.814-.836 1.008-.36.46-.337.643.327 1.193.169.14.442.367.676.43.233.062.425-.01.691-.239.073-.06.108-.075.153-.038.052.044.008.095-.045.16a6.7 6.7 0 0 1-.683.652c-.186.131-.245.082-.492-.123-.487-.404-.835-.714-1.109-.952a18.12 18.12 0 0 0-.66-.581c-.07-.06-.214-.179-.375-.302-.15-.124-.33-.251-.46-.36-.084-.07-.113-.126-.076-.172.027-.032.07-.03.148.034.098.081.186.133.255.169.152.082.303-.034.485-.2.26-.247.686-.76 1.183-1.36l.95-1.143zM115.684 180.182c-.07.06-.086.094-.068.155.068.174.21.385.345.548.216.26.313.322.494.37.305.076.76.015 1.294-.427.923-.767.681-1.6.363-1.982-.135-.163-.24-.275-.313-.324-.05-.034-.087-.026-.139.018l-1.976 1.641zm-.123-1.194c.987-.82 1.169-.972 1.366-1.157.21-.197.272-.336.139-.588a1.73 1.73 0 0 0-.192-.27c-.059-.071-.079-.12-.033-.159.046-.037.096-.003.177.095.286.344.607.77.72.906.184.22.614.7.782.9.34.41.662.877.714 1.428.027.285-.088.82-.524 1.182-.48.4-1.09.565-2.168.351-.247 1.183-.453 2.112-.537 2.83-.074.678.101.982.163 1.096.046.082.088.146.131.198.044.052.046.094.013.121-.052.043-.102.008-.168-.07l-.512-.617c-.303-.364-.405-.553-.455-.798-.082-.404.018-.904.216-1.683.141-.557.335-1.224.362-1.389.012-.065-.014-.11-.052-.155l-.456-.576c-.028-.033-.057-.041-.095-.01l-.092.076c-.604.503-1.118.93-1.363 1.188-.173.176-.284.335-.147.55.068.11.174.262.238.341.044.052.046.094.013.12-.046.039-.103.01-.173-.075-.313-.377-.693-.874-.774-.971-.102-.124-.463-.517-.678-.777-.07-.085-.089-.146-.043-.184.033-.027.073-.017.138.06.081.098.16.166.22.214.134.108.305.021.514-.11.3-.194.814-.62 1.412-1.117l1.143-.95zM116.266 186.206c-.016-.147.008-.19.17-.282.404-.23.861-.452.983-.51.114-.056.207-.08.241-.021.037.066-.024.11-.083.144a1.777 1.777 0 0 0-.337.279c-.451.47-.404 1.017-.145 1.472.377.661 1.009.73 1.397.508.36-.205.635-.507.766-1.388l.073-.488c.171-1.168.526-1.739 1.121-2.077.808-.46 1.773-.115 2.353.906.272.477.374.828.431 1.048.023.074.022.124-.03.152-.095.055-.324.147-.897.473-.162.092-.233.102-.267.044-.029-.051.004-.098.09-.148.067-.038.274-.204.377-.467.077-.19.176-.528-.096-1.006-.309-.543-.813-.693-1.253-.443-.338.192-.499.508-.615 1.38l-.037.294c-.163 1.268-.49 1.873-1.187 2.27a1.701 1.701 0 0 1-1.67.036c-.445-.233-.745-.607-.966-.996-.243-.426-.38-.785-.42-1.18zM122.382 189.777c1.194-.473 1.414-.56 1.66-.676.26-.12.363-.252.333-.44a1.206 1.206 0 0 0-.08-.296c-.031-.078-.035-.132.029-.157.047-.018.087.038.137.164.119.299.29.802.38 1.03.079.197.285.65.404.95.04.101.05.17.004.19-.062.024-.097-.017-.128-.095a1.439 1.439 0 0 0-.117-.227c-.123-.196-.282-.206-.563-.113-.257.084-.478.171-1.671.644l-1.383.547c-.762.302-1.382.548-1.708.713-.203.108-.322.219-.26.467.028.116.08.294.127.412.034.087.026.135-.013.151-.055.022-.104-.032-.138-.118-.205-.518-.378-1.023-.461-1.234-.072-.182-.291-.667-.417-.982-.04-.101-.038-.166.017-.187.04-.016.076.006.113.1.046.118.1.206.143.27.094.145.246.14.483.073.346-.09.966-.338 1.728-.639l1.383-.547zM126.084 194.83l-.309-1.222c-.123-.474-.209-.663-.418-.745a1.025 1.025 0 0 0-.32-.076c-.07-.001-.108-.019-.12-.068-.012-.058.025-.084.116-.104.132-.03.917-.042.987-.04.113 0 .168.014.179.065.014.065-.05.166-.02.376.029.244.082.561.144.834l.732 3.264c.06.264.125.44.17.56.052.117.083.18.09.213.013.058-.034.077-.158.105-.173.04-.747.142-.962.19-.084.01-.138.004-.149-.045-.015-.066.023-.091.145-.127l.089-.028c.21-.065.391-.34.243-1.077l-.208-1.044-3.38.758c-.759.17-1.41.316-1.755.436-.225.077-.396.167-.373.422.01.12.034.304.061.428.02.09.005.137-.036.146-.058.013-.098-.047-.118-.138-.122-.544-.214-1.07-.265-1.3-.043-.19-.184-.703-.258-1.033-.024-.107-.012-.17.045-.183.042-.009.074.018.096.117.028.123.066.219.1.29.07.157.262.166.506.137.356-.037 1.007-.183 1.766-.353l3.38-.759zM123.365 202.044c.456-.016.639-.108.88-.226.132-.063 1.95-1.261 2.378-1.572.305-.222.508-.441.596-.605a.862.862 0 0 0 .097-.359c-.004-.067.012-.126.072-.13.05 0 .078.057.082.159.006.152.004.786.012 1.065.006.177.044.522.058.902.004.085-.021.128-.072.13-.05.001-.061-.057-.1-.183a.153.153 0 0 0-.156-.113c-.067.002-.167.049-.283.112-.25.127-2.242 1.381-2.474 1.525.206.078 2.102 1.075 2.367 1.184.19.077.334.107.444.102.084-.003.176-.04.204-.184.015-.077.029-.153.08-.155.059-.003.077.039.08.14.01.28-.005.55.005.795.007.186.052.742.057.903.004.092-.011.152-.062.154-.06.002-.086-.064-.09-.157a.924.924 0 0 0-.114-.369c-.091-.174-.196-.263-.43-.44-.348-.267-2.374-1.379-2.743-1.518-.308-.115-.57-.106-.849-.096l-.692.025c-.135.005-.49.017-.844.055-.244.026-.427.109-.452.363a3.674 3.674 0 0 0-.019.423c.004.094-.02.136-.062.138-.06.001-.087-.065-.091-.175-.019-.532-.013-1.064-.021-1.292-.007-.212-.052-.742-.063-1.055-.004-.118.01-.186.078-.189.042-.001.07.04.072.133.005.118.025.22.044.294.04.168.229.237.474.245.356.013.71 0 .846-.005l.692-.024zM56.312 219.61l.396.724c.46.845 1.128 1.124 1.665.832.653-.357.609-1.048.168-1.855a4.31 4.31 0 0 0-.436-.681l-1.793.98zm-2.67 1.455c.061.17.178.404.333.689.451.826 1.14 1.44 1.95.998.76-.415.678-1.312.203-2.184l-.361-.662-2.125 1.159zm4.515-3.5c.256.313.607.837.913 1.397.436.8.592 1.38.521 1.92-.039.439-.265.812-.702 1.051-.537.293-1.224.155-1.795-.38l-.016.01c.188.66.126 1.587-.7 2.039-.48.26-.959.248-1.402.085-.59-.238-1.137-.846-1.688-1.856a11.67 11.67 0 0 1-.61-1.276l5.48-2.99zM60.355 227.026 58.7 224.84l-1.823 1.382 1.843 2.435-.548.414-2.392-3.16 5.058-3.831 2.3 3.036-.55.415-1.748-2.31-1.599 1.21 1.654 2.185-.54.41zM60.458 231.468l1.88-1.928.956-4.17.74.722-.51 1.948c-.141.533-.26.956-.412 1.426l.015.015c.431-.158.893-.287 1.423-.44l1.95-.546.74.723-4.237.958-1.886 1.935-.659-.643zM65.8 232.117c-.773 1.115-.794 2.577.384 3.394 1.186.822 2.538.305 3.36-.88.718-1.036.867-2.537-.38-3.4-1.238-.859-2.57-.26-3.364.886zm4.555 3.032c-1.245 1.795-3.117 1.907-4.595.881-1.53-1.06-1.865-2.873-.77-4.452 1.147-1.656 3.041-1.946 4.59-.873 1.581 1.096 1.848 2.897.775 4.444zM70.034 238.601l2.554-5.81.91.4.777 3.849c.18.891.284 1.667.329 2.397h.023c.264-.81.555-1.525.953-2.43l1.068-2.43.786.345-2.553 5.809-.843-.37-.753-3.849c-.167-.845-.306-1.698-.356-2.47l-.032-.004c-.274.753-.562 1.46-.986 2.425l-1.09 2.483-.787-.345zM77.92 240.989c.217.086.542.168.89.245 1.898.422 3.142-.304 3.514-1.977.335-1.458-.378-2.591-2.257-3.01a5.725 5.725 0 0 0-1.06-.148l-1.087 4.89zm.33-5.676c.557.047 1.213.135 1.917.292 1.277.284 2.127.752 2.617 1.391.5.642.698 1.438.476 2.44-.225 1.011-.757 1.761-1.527 2.188-.772.436-1.903.513-3.24.216a16.386 16.386 0 0 1-1.598-.433l1.355-6.094zM87.913 237.393l-2.144-.01.002-.695 5.22.02-.002.697-2.155-.009-.023 5.65-.92-.005.022-5.648zM92.157 236.54l.428 2.62 3.366-.55-.429-2.62.91-.148 1.022 6.263-.908.148-.48-2.936-3.366.55.48 2.936-.898.147-1.023-6.263.898-.147zM101.99 237.537l-2.595.879.734 2.167 2.893-.98.22.65-3.755 1.272-2.035-6.01 3.606-1.222.22.652-2.744.93.643 1.899 2.596-.88.217.643zM104.023 232.89l.782-.465 2.885 4.868 2.592-1.536.35.592-3.374 2-3.235-5.46zM108.796 229.783l3.797 5.084-.729.545-3.796-5.085.728-.544zM116.526 227.461c-.667-.585-1.468-1.288-2.023-1.851l-.022.023c.36.693.724 1.464 1.09 2.326l1.315 3.05-.485.49-2.95-1.312c-.873-.39-1.654-.765-2.33-1.153l-.014.015c.548.57 1.268 1.356 1.9 2.069l1.804 2.045-.61.618-4.17-4.809.817-.826 3.029 1.301c.761.34 1.426.659 2.02.996l.022-.023c-.33-.577-.65-1.245-.999-2.03l-1.301-3.05.816-.826 4.823 4.146-.625.633-2.107-1.832zM115.726 222.57l5.136 3.727-.535.736-5.135-3.727.534-.737zM117.82 220.603l-1.059 1.865-.606-.344 2.58-4.539.605.344-1.064 1.874 4.911 2.792-.455.8-4.911-2.792zM53.121 212.434a.995.995 0 0 1-.992-.997.99.99 0 0 1 1-.995.996.996 0 1 1-.007 1.991zM123.848 212.434a.995.995 0 0 1-.993-.997.99.99 0 0 1 1-.995.997.997 0 1 1-.007 1.992zM86.638 224.973c-.046-.01-.096-.018-.151-.032-.484-.12-1.484-1.024-1.484-1.024-.307-.263-1.803-1.715-2.168-2.12a112.24 112.24 0 0 1 1.72-1.547c.268-.236.794-.542 1.002-.653.084-.05.214-.083.285-.099v-.117h-2.053l-.002.007v.074h.001c.125 0 .311.101.311.222a.198.198 0 0 1-.03.102c-.044.1-.18.248-.337.414l-.037.038c-.14.147-.625.602-1.054 1l-.59.553v-.219c0-1.12-.004-1.322.017-1.554v-.008c.006-.254.268-.465.508-.528v-.1h-2.313v.084c.004 0 .008-.004.011-.004.233 0 .518.145.603.348.01.023.017.054.025.083.004.014.006.029.008.042.003.021.004.041.006.065 0 .006.003.015.003.025.016.229.016.44.016 1.548v1.294c0 .671 0 1.254-.042 1.56a.858.858 0 0 1-.066.254c-.065.153-.289.267-.458.3v.075h2.298v-.076c-.237-.007-.522-.176-.567-.401a.807.807 0 0 1-.025-.144c-.024-.312-.024-.897-.024-1.568v-.55l.024.03c.17.209 1.872 1.914 2.238 2.204.362.29.602.505 1.06.505h1.265v-.082zM96.325 219.381h-2.04v.08c.231.006.514.153.597.357.01.02.02.047.023.075.011.043.017.085.017.134v.005c.016.229.016.443.016 1.54v.918c0 .777-.035 1.4-.453 1.78-.384.342-.888.38-1.087.38-.294 0-.64-.035-.985-.287-.369-.27-.613-.676-.613-1.761v-1.03c0-1.12 0-1.32.015-1.554l.001-.01v-.003c0-.008.004-.017.004-.028 0-.015.003-.034.004-.048.004-.02.005-.038.01-.056a.495.495 0 0 1 .025-.078c.067-.166.298-.29.477-.33v-.084h-2.372v.084l.008-.004c.225 0 .503.135.59.325a.522.522 0 0 1 .055.231c.016.234.016.435.016 1.555v1.073c0 .946.238 1.581.75 1.994.64.522 1.488.522 1.85.522.483 0 1.115-.062 1.737-.542.702-.542.8-1.408.8-2.261v-.786c0-1.12 0-1.321.016-1.555.002-.034.005-.062.009-.092.003-.012.003-.021.007-.034a.32.32 0 0 1 .057-.144c.078-.144.302-.246.466-.278v-.088zM89.27 224.98c-.239-.007-.52-.176-.569-.402a1.134 1.134 0 0 1-.023-.144c-.025-.312-.027-4.184-.007-4.416v-.008c.006-.254.267-.465.507-.528v-.1h-2.155v.11c.156.053.395.167.456.318.011.023.02.054.026.083l.007.042.007.064c0 .006.004.016.004.026v.002c.015.281.015 4.095-.026 4.4a.852.852 0 0 1-.068.254c-.064.153-.289.267-.457.3v.075h2.298v-.076z" style="fill:#fff;fill-opacity:1;fill-rule:nonzero;stroke:none;stroke-width:.352778" transform="matrix(2.75736 0 0 2.75731 -123.793 -441.4)"/></svg>