<svg xmlns="http://www.w3.org/2000/svg" width="525.04462pt" height="525pt" fill-rule="evenodd" viewBox="0 0 525.04462 524.99999"><path d="M262.473 0C117.526 0 0 117.537 0 262.498 0 407.47 117.526 525 262.473 525c145.016 0 262.572-117.53 262.572-262.502C525.045 117.537 407.489 0 262.473 0Z" style="fill:#747471;stroke:none;stroke-width:4.95951"/><path d="M262.493 458.022c-107.964 0-195.516-87.535-195.516-195.529 0-107.978 87.552-195.528 195.516-195.528 108.003 0 195.569 87.55 195.569 195.528 0 107.994-87.566 195.529-195.569 195.529z" style="fill:#fff;stroke:none;stroke-width:4.95951"/><path d="M196.467 378.838v-7.687h14.78v45.3h-8.833v-37.613zM242.487 377.157c4.448 0 7.21 4.384 7.21 8.47 0 4.088-2.762 8.477-7.21 8.477-4.444 0-7.147-4.39-7.147-8.476 0-4.087 2.703-8.47 7.147-8.47zm-1.741 41.219 12.017-17.845c2.946-4.384 5.53-9.735 5.53-15.141 0-9.136-6.914-15.444-15.86-15.444-9.315 0-15.985 6.67-15.985 16.044 0 7.811 5.167 15.022 13.46 15.022 1.264 0 2.524-.243 3.546-.664l.119.124-9.314 13.157zM282.143 401.37h-9.676l9.557-18.023h.119zm8.292 0v-31.062h-8.05l-20.184 34.186v3.967h19.942v7.99h8.292v-7.99h4.806v-7.092zM316.21 410.445c-4.444 0-7.211-4.384-7.211-8.411 0-4.087 2.767-8.47 7.21-8.47 4.45 0 7.152 4.383 7.152 8.47 0 4.027-2.703 8.411-7.151 8.411zm1.745-41.159-12.021 17.845c-2.946 4.389-5.525 9.735-5.525 15.141 0 9.076 6.908 15.384 15.86 15.384 9.314 0 15.985-6.67 15.985-15.984 0-7.811-5.163-15.022-13.455-15.022-1.265 0-2.53.183-3.546.605l-.124-.124 9.318-13.158z" style="fill:#747471;stroke:none;stroke-width:4.95951"/><path d="M89.84 143.706v13.598h2.651V144.78h3.898v1.444h1.075v-2.518zM100.983 143.706v13.598h2.651V144.78h3.897v1.444h1.075v-2.518zM134.411 143.706v13.598h2.65V144.78h3.897v1.444h1.072v-2.518zM145.552 143.706v13.598h2.65V144.78h3.898v1.444h1.074v-2.518zM112.124 137.79v19.514h2.653v-18.441h3.896v1.446h1.076v-2.519zM123.269 137.79v19.514h2.65v-18.441h3.896v1.446h1.076v-2.519z" style="fill:#8a3055;stroke:none" transform="matrix(4.9595 0 0 4.9595 -336.283 -474.142)"/><path d="m377.048 159.623 1.984 13.674 14.075-11.1.461.437-11.129 14.085 13.713 2.013v.57l-13.609 2.093 11.025 14.006-.461.427-13.971-11.065-2.088 13.644h-.57l-2.009-13.674-14.095 11.095-.436-.427 11.07-14.09-13.644-2.008v-.57l13.524-2.119-10.95-13.98.436-.437 13.976 11.015 2.024-13.589z" style="fill:#f69f13;stroke:none;stroke-width:4.95951"/><path d="m36.382 363.315 4.48.724s-1.72 2.753-.784 4.667c1.385 2.847 7.488 1.711 16.762-2.807 9.275-4.513 14.09-8.917 12.801-11.575-.605-1.24-2.577-.74-2.577-.74l-13.299 6.473-2.165-4.454 14.844-7.221c3.44.466 6.103 1.389 7.338 3.923 2.436 5.01-.678 11.65-14.593 18.42-13.914 6.774-20.971 5.311-23.499.119-1.749-3.586.692-7.529.692-7.529zM64.353 330.721l1.69 4.727-15.804 5.649s-11.072 9.884-20.734 14.724l-1.758-4.92c6.78-3.084 15.353-9.948 15.353-9.948s-10.955.193-18.162 2.112l-1.758-4.92c10.52-2.45 25.374-1.775 25.374-1.775zM52.922 306.99l4.475-1.101 2.926 11.962-40.078 9.82-2.848-11.625 4.475-1.096 1.67 6.814 12.826-3.144-1.424-5.812 4.475-1.097 1.424 5.813 13.828-3.387zM34.843 296.456c-10.23 1.359-16.293 1.12-16.613-1.265-.32-2.385 5.477-4.195 15.706-5.554 10.23-1.354 16.225-1.111 16.545 1.274.315 2.386-5.414 4.186-15.638 5.545zm-21.456-.62c.678 5.113 6.819 7.975 22.158 5.937 15.343-2.034 20.525-6.403 19.842-11.511-.678-5.119-6.814-7.98-22.157-5.942-15.34 2.033-20.521 6.403-19.843 11.516zM28.658 269.124l24.41-.287.058 4.607-41.27.486-.034-3.234 24.304-9.433-24.415.283-.049-4.602 41.26-.486.04 3.233zM17.406 227.702l3.415 2.996s-2.92 1.413-3.143 3.536c-.34 3.144 5.429 5.42 15.687 6.527 10.258 1.1 16.68-.08 17-3.016.145-1.368-1.792-1.993-1.792-1.993l-14.704-1.577.528-4.925 16.414 1.765c2.663 2.222 4.436 4.42 4.136 7.221-.6 5.54-6.766 9.513-22.153 7.856-15.388-1.651-20.59-6.64-19.974-12.384.426-3.967 4.586-6.006 4.586-6.006zM57.79 217.719l-1.008 4.92-40.427-8.288 1.008-4.92zM37.903 196.854l23.32 7.226-1.365 4.404-39.415-12.22.96-3.085 26.027-1.507-23.325-7.231 1.366-4.404 39.419 12.22-.959 3.085zM54.419 155.492l21.518 11.54-2.18 4.063-36.367-19.506 1.525-2.852 25.844 3.482-21.514-11.541 2.175-4.062 36.368 19.506-1.53 2.847zM77.148 135.798c-5.874-5.64-10.529-10.504-10.529-10.504s6.156 2.727 13.455 6.338zm7.09-2.078a196.553 196.553 0 0 1 9.169 5.014l2.925-4.166c-12.761-7.201-30.987-14.879-38.111-17.532l-2.218 3.154c4.916 5.803 18.317 20.349 29.418 29.911l2.964-4.22a205.834 205.834 0 0 1-7.827-6.929zM101.975 127.863l-27.8-23.895-3.41 3.962-3.487-3.005L77.274 93.3l3.492 3-3.361 3.913 27.796 23.9zM117.047 111.72l-3.57 3.526-29.006-29.35 3.57-3.527zM114.568 86.188c-6.515-8-9.493-13.292-7.629-14.81 1.865-1.522 6.447 2.466 12.966 10.465 6.509 8 9.449 13.237 7.584 14.76-1.87 1.517-6.403-2.416-12.921-10.415zm-10.714-18.593c-4 3.253-3.216 9.983 6.558 21.98 9.774 11.997 16.205 14.12 20.206 10.866 3.995-3.258 3.216-9.988-6.558-21.985-9.774-11.997-16.206-14.12-20.206-10.861zM134.628 66.583l13.019 20.651-3.894 2.46L121.74 54.79l2.737-1.726 20.758 15.776-13.023-20.656 3.898-2.46 22.008 34.91-2.732 1.726zM164.102 60.671c-2.326-7.806-3.968-14.333-3.968-14.333s4.002 5.411 8.565 12.156zm7.19 1.691c1.935 2.966 3.84 6.021 5.501 8.883l4.602-2.177c-7.548-12.558-19.604-28.23-24.498-34.057l-3.482 1.646c1.41 7.48 5.89 26.737 10.826 40.54l4.656-2.213c-1.16-3.1-2.316-6.507-3.382-9.884zM198.441 58.018l1.533 4.344-11.481 4.052-13.733-38.912 4.671-1.652 12.2 34.568zM232.761 42.966c1.33 7.801-.55 12.726-5.634 13.589-5.088.868-8.426-3.17-9.755-10.96l-4.93-28.953 4.875-.834 4.935 28.953c.7 4.067 1.716 7.588 4.086 7.186 2.376-.406 2.242-4.081 1.543-8.148l-4.935-28.95 4.88-.832zM246.767 29.099l1.225 24.386-4.603.228-2.068-41.215 3.229-.16 10.355 23.927-1.22-24.387 4.603-.23 2.063 41.217-3.229.159zM274.862 53.366l-5.014-.228 1.905-41.226 5.009.232zM306.727 15.484c-3.447 14.17-9.959 32.838-12.89 39.86l-3.818-.54c-.883-7.553-1.994-27.292-1.404-41.868l5.103.72c-.734 12.676-.173 29.91-.173 29.91s5.361-16.401 8.148-28.792zM321.368 56.495l-1.126 4.469-11.938-2.99 10.028-40.03 11.61 2.909-1.12 4.472-6.805-1.711-3.208 12.81 5.802 1.458-1.12 4.469-5.808-1.453-3.457 13.807zM339.653 44.468l5.079-14.035.714.258c2.197.798 1.92 4.79.704 8.158-1.334 3.685-4.364 6.393-5.787 5.877zm1.994-20.05-14.055 38.797 4.657 1.687 5.837-16.104c1.394 5.63.645 13.55-.273 18.117l4.786 1.736c1.453-5.837 1.493-14.234.065-19.58 0 0 5.822-1.33 8.401-8.441 2.624-7.246.218-12.721-3.73-14.15zM366.147 42.37c-3.189 6.631.09 20.429-3.457 27.804-2.122 4.399-6.6 5.599-10.251 3.838-3.467-1.666-4.32-7.191-4.32-7.191l4.206-2.405s-.03 4.185 2.202 5.262c1.488.714 3.075-.045 3.824-1.597 2.45-5.079-.536-19.491 3.461-27.798 2.088-4.335 6.274-6.06 9.75-4.39 3.284 1.583 3.621 5.947 3.621 5.947l-3.903 2.395s-.109-3.263-1.532-3.947c-1.612-.774-2.763.347-3.601 2.083zM370.943 83.212l-4.33-2.55 20.96-35.554 4.319 2.554zM381.13 89.798l21.127-29.96-4.27-3.01 2.653-3.77 12.533 8.843-2.653 3.764-4.216-2.97-21.127 29.955zM401.533 105.768l-3.799-3.288 10.995-12.682s4.796-14.045 10.827-23.012l3.953 3.422c-4.4 6.021-8.496 16.213-8.496 16.213s9.458-5.55 14.79-10.762l3.947 3.422c-7.96 7.3-21.232 14.005-21.232 14.005zM440.103 116.099c8.05-6.443 13.366-9.379 14.869-7.5 1.507 1.88-2.52 6.423-10.574 12.87-8.054 6.448-13.311 9.34-14.819 7.46-1.508-1.88 2.465-6.378 10.524-12.83zm18.683-10.554c-3.224-4.027-9.96-3.303-22.04 6.368-12.077 9.67-14.259 16.083-11.03 20.11 3.218 4.028 9.953 3.309 22.035-6.362 12.081-9.676 14.258-16.09 11.035-20.116zM436.364 145.484 471.1 123.2l6.09 9.492-3.883 2.49-3.412-5.327-11.407 7.316 3.234 5.033-3.884 2.49-3.223-5.034-15.578 9.989zM461.766 183.707l-4.225 1.83-4.9-11.293 37.86-16.416 4.762 10.98-4.23 1.83-2.788-6.432-12.116 5.252 2.38 5.49-4.23 1.83-2.375-5.49-13.069 5.664zM496.051 186.687l.184.59c1.046 3.353-3.154 6.75-13.009 9.815-9.85 3.065-15.236 2.654-16.277-.694l-.184-.59zm4.573-3.15-.987-3.148-39.398 12.26.982 3.154c2.49 8.01 8.828 11.01 23.602 6.412 14.774-4.602 18.29-10.662 15.801-18.677zM481.58 229.369c-7.777 1.448-12.727-.357-13.679-5.426-.942-5.074 3.045-8.476 10.817-9.924l28.87-5.386.907 4.87-28.87 5.381c-4.061.76-7.568 1.835-7.121 4.201.436 2.366 4.111 2.172 8.168 1.414l28.874-5.387.908 4.87zM510.33 252.262l-3.7-2.406s1.994-.982 1.815-3.312c-.188-2.54-6.289-3.869-16.58-3.085-10.285.788-16.048 3.02-15.855 5.56.159 2.122 2.638 2.97 2.638 2.97l-3.635 2.966s-3.66-1.93-3.943-5.565c-.421-5.55 4.955-10.102 20.384-11.278 15.434-1.175 21.465 2.847 21.861 8.06.293 3.838-2.985 6.09-2.985 6.09zM482.373 266.719c-3.486-.6-7.052-1.136-10.34-1.518l.178-5.158c14.521 1.935 33.69 6.78 40.985 8.952l-.129 3.849c-7.419 1.676-26.875 5.222-41.496 6.174l.169-5.088c3.313-.164 6.894-.456 10.42-.818zm4.419 5.862a388.037 388.037 0 0 0 14.725-2.053s-6.562-1.528-14.561-3.036zM470.52 287.727l36.343 4.796.68-5.183 4.567.6-2.003 15.206-4.573-.6.68-5.118-36.344-4.79zM466.73 309.485l1.057-4.905 40.336 8.723-1.062 4.91zM482.745 329.526c9.82 3.15 15.206 5.961 14.472 8.253-.74 2.29-6.75 1.448-16.575-1.702-9.825-3.149-15.141-5.936-14.407-8.227.739-2.297 6.685-1.473 16.51 1.676zm19.119 9.74c1.577-4.91-2.748-10.122-17.482-14.848-14.735-4.722-21.282-2.996-22.864 1.919-1.572 4.91 2.753 10.122 17.488 14.849 14.734 4.726 21.286 2.995 22.858-1.92zM476.61 356.917l-22.169-10.231 1.93-4.181 37.468 17.294-1.354 2.936-26.007-1.93 22.174 10.232-1.934 4.186-37.465-17.294 1.354-2.936zM134.28 462.981c.251 1.553-.117 3.04-1.1 4.469-.983 1.428-2.243 2.296-3.783 2.614-1.54.317-2.944.034-4.218-.839-1.274-.877-2.025-2.088-2.262-3.63-.242-1.542.136-3.025 1.119-4.454.983-1.428 2.238-2.306 3.763-2.628 1.53-.327 2.926-.05 4.2.828 1.273.878 2.029 2.088 2.28 3.64zm-8.176-9.17c-2.954.397-5.221 1.746-6.82 4.052-1.588 2.311-2.043 4.915-1.365 7.816.678 2.902 2.305 5.238 4.872 7.008 2.567 1.77 5.328 2.46 8.282 2.068 2.955-.397 5.221-1.75 6.82-4.057 1.588-2.306 2.043-4.915 1.365-7.816-.678-2.896-2.305-5.237-4.872-7.008-2.567-1.77-5.328-2.46-8.282-2.063zm7.933-12.25a15.054 15.054 0 0 1-5.12 1.93c-2.077.401-4.276.426-6.596.069-2.32-.357-4.606-1.096-6.853-2.227-.116-.045-.203-.045-.252-.005-.048.045-.077.124-.077.238l.382 4.112c1.725.882 3.9 1.636 6.534 2.266 2.63.625 5.376.779 8.243.456 2.558-.263 5.047-1.021 7.483-2.271 2.431-1.255 4.567-3.214 6.413-5.887l1.583-2.296a.504.504 0 0 0 .092-.338c-.014-.124-.082-.228-.213-.317l-16.423-11.327-2.412 3.5 11.478 7.921-.32.462a12.662 12.662 0 0 1-3.942 3.714zm10.437.943-2.28 3.308 6.145 4.24-2.31 3.348-6.146-4.24-2.281 3.307 6.15 4.24-3.36 4.866 4.674 3.219 14.117-20.473-7.003-4.83-1.346 1.943.785.54c.513.358.78.81.784 1.35.01.54-.116 1.007-.388 1.398l-1.394 2.024zM166.17 456.172c1.681-.833 3.303-.913 4.865-.238 1.562.68 2.609 1.914 3.16 3.71.545 1.8.416 3.625-.383 5.475-.808 1.85-2.048 3.194-3.73 4.027-1.685.833-3.302.913-4.87.238-1.562-.674-2.613-1.914-3.164-3.71-.54-1.8-.411-3.625.392-5.475.804-1.85 2.044-3.194 3.73-4.027zm29.692 4.533-7.81-3.377-.943 2.167.873.377c.575.248.922.64 1.036 1.17.114.53.08 1.012-.109 1.443l-10.648 24.605 5.208 2.251zm-38.984 13.777-.94 2.168.868.377c.576.253.934.61 1.074 1.08.141.477.103.958-.11 1.449l-2.684 6.204c-.523 1.215-.62 2.227-.29 3.046.338.813 1.094 1.477 2.285 1.993l22.122 9.572 1.692-3.903-19.655-8.506c-.203-.089-.332-.213-.402-.381-.064-.164-.05-.348.035-.551l3.943-9.11zm.296-7.647c1.225 3 3.342 5.153 6.347 6.452 3.01 1.305 6.026 1.374 9.056.213 3.026-1.165 5.173-3.203 6.433-6.13 1.27-2.916 1.29-5.881.064-8.882-1.225-3.005-3.342-5.158-6.348-6.457-3.015-1.305-6.026-1.374-9.056-.209-3.025 1.161-5.174 3.204-6.433 6.125-1.27 2.922-1.289 5.882-.063 8.888zM226.795 476.139c.07-.337.06-.58-.04-.73-.094-.153-.327-.267-.694-.346l-24.917-5.357.893-4.16 31.066 6.68c.184.04.298.1.347.173.05.075.05.204.01.387l-2.891 13.45c-.665 3.085-1.379 5.52-2.157 7.326-.774 1.795-1.761 3.328-2.971 4.582l-5.456-1.175c1.22-1.314 2.197-2.931 2.927-4.836.734-1.904 1.428-4.443 2.083-7.627zm-10.336 24.857 15.023 3.234-.903 4.205-40.628-8.738.907-4.211 10.4 2.242 2.802-13.034c.12-.526.06-.982-.163-1.369-.223-.382-.58-.63-1.076-.739l-.734-.153.48-2.267 7.767 1.666-3.665 17.056 4.384.947 2.807-13.033c.11-.526.055-.977-.163-1.364-.223-.387-.586-.635-1.076-.739l-.744-.164.49-2.261 7.762 1.671zM262.364 475.47c.977 1.086 1.453 2.42 1.424 3.997-.03 1.542-.546 2.851-1.558 3.918-1.011 1.071-2.241 1.592-3.69 1.567-1.453-.025-2.668-.59-3.635-1.691-.977-1.106-1.453-2.43-1.423-3.978.03-1.572.545-2.886 1.557-3.943 1.017-1.056 2.247-1.567 3.695-1.542 1.453.025 2.663.585 3.63 1.671zm-11.332-3.25c-2.197 1.9-3.313 4.221-3.363 6.964-.05 2.743.987 5.098 3.11 7.077 2.133 1.974 4.687 2.99 7.682 3.04 2.99.055 5.59-.867 7.777-2.772 2.197-1.9 3.313-4.22 3.362-6.963.05-2.738-.987-5.098-3.114-7.072-2.128-1.98-4.682-2.99-7.678-3.045-2.99-.05-5.589.872-7.776 2.772zm28.105 24.347.075-4.255-41.596-.73-.079 4.256 11.347.198-.069 4.112-6.289-.11-.074 4.256 25.1.441c.159 0 .278.045.352.124.08.08.12.199.114.358l-.163 9.214 5.911.104.233-13.47c.005-.158-.034-.277-.114-.357-.074-.08-.193-.124-.352-.124l-5.812-.104.074-4.111zm-24.648 3.68.07-4.111 7.562.134-.07 4.111zM310.972 479.422l3.542-.625-1.642-9.264c-.1-.526-.312-.952-.64-1.28-.332-.327-.853-.426-1.562-.297l-.51.089-.417-2.33 7.682-1.36 7.593 42.826-5.307.942-4.458-25.14-3.537.63 4.459 25.135-5.312.942-2.425-13.688c-.808.5-1.785.907-2.926 1.24-1.14.332-2.628.66-4.459.982l-7.964 1.408c-1.86.332-3.338.114-4.434-.65-1.096-.763-1.815-2.142-2.173-4.13l-2.955-16.71c-.095-.53-.333-.952-.71-1.269-.372-.317-.877-.422-1.497-.312l-.928.168-.411-2.33 19.361-3.428.74 4.186-10.936 1.94 3.085 17.412c.054.307.183.526.381.65a.915.915 0 0 0 .67.119l8.892-1.572c1.334-.239 2.445-.516 3.333-.829.888-.317 1.617-.674 2.192-1.061l-3.675-20.716c-.094-.53-.307-.952-.635-1.28-.332-.327-.853-.426-1.562-.297l-.51.09-.417-2.332 7.677-1.359zM332.303 470.445c.452-1.349 1.24-2.236 2.351-2.673 1.21-.466 2.4-.337 3.576.387 1.18.724 2.038 1.776 2.574 3.154.53 1.354.595 2.688.193 4.013-.396 1.324-1.2 2.216-2.4 2.683-1.21.47-2.41.337-3.6-.397-1.206-.734-2.064-1.776-2.594-3.125-.526-1.349-.56-2.698-.1-4.042zm-6.025 3.23a9.053 9.053 0 0 0 .62 2.955c.967 2.5 2.747 4.265 5.336 5.302 2.584 1.041 5.202 1.046 7.846.015 2.643-1.027 4.563-2.798 5.763-5.312 1.2-2.515 1.319-5.024.347-7.519a8.858 8.858 0 0 0-1.542-2.594 9.394 9.394 0 0 0-2.242-1.919l4.935-1.92-1.528-3.922-9.998 3.893-1.974-5.064-7.45 2.902.74 1.894.704-.277c.233-.09.526-.06.873.094.347.153.595.416.744.798l.719 1.85-9.91 3.859 1.528 3.923c3.259-1.27 4.875-1.9 4.846-1.885a9.383 9.383 0 0 0-.357 2.926zm9.269 13.44 1.537 3.962 22.254-8.664c.143-.055.267-.065.372-.015.099.044.178.139.238.283l4.116 10.573 5.505-2.142-5.485-14.1c-.11-.263-.273-.442-.496-.54-.223-.1-.466-.1-.73.004zm18.24-36.532-7.93 3.09.859 2.201.882-.342c.586-.233 1.106-.193 1.558.1.456.297.768.669.937 1.105l7.672 19.695 5.287-2.059-4.285-11.015 5.724-2.231-1.716-4.405-5.729 2.232zM387.21 439.602c-.188-.292-.367-.456-.54-.496-.174-.04-.422.045-.744.248l-21.495 13.684-2.286-3.591 26.8-17.056c.165-.104.284-.144.373-.124.084.02.183.11.282.268l7.39 11.605c1.691 2.658 2.897 4.9 3.606 6.725.714 1.825 1.08 3.61 1.11 5.347L397 459.207c-.06-1.79-.5-3.62-1.32-5.495-.813-1.87-2.107-4.166-3.873-6.889zm10.107 24.952 12.96-8.253 2.306 3.63-35.054 22.313-2.306-3.625 8.967-5.714-7.157-11.248c-.288-.451-.645-.734-1.076-.858-.432-.114-.853-.04-1.285.233l-.63.402-1.25-1.95 6.701-4.264 9.369 14.715 3.789-2.41-7.162-11.249c-.283-.451-.65-.734-1.076-.858-.427-.114-.858-.04-1.28.233l-.64.402-1.244-1.95 6.7-4.27zM97.325 410.495c0 4.687-3.792 8.5-8.495 8.5-4.693 0-8.49-3.813-8.49-8.5a8.482 8.482 0 0 1 8.49-8.486 8.48 8.48 0 0 1 8.495 8.486zM444.725 410.495c0 4.687-3.808 8.5-8.495 8.5-4.707 0-8.496-3.813-8.496-8.5a8.478 8.478 0 0 1 8.496-8.486c4.687 0 8.495 3.794 8.495 8.486z" style="fill:#fff;stroke:none;stroke-width:4.95951"/></svg>