<svg xmlns="http://www.w3.org/2000/svg" width="297.51019pt" height="375pt" viewBox="0 0 297.51018 374.99999"><g fill="#ba292e"><path d="M336.657 638.68c-1.161 1.888-.283 4.044.594 5.93 0 .291.837.83 1.417 1.383v.802c-1.686.532-3.442-1.085-4.589-2.184-.297-.525-1.742-.525-2.62-.249-2.01.54-1.416 2.965-3.144 4.036-1.175.553-2.309 1.355-2.89 2.17-2.59 2.164-5.169 3.525-7.477 5.944-.878 1.092-1.148 2.46-2.336 3-1.39.532-2.281 1.348-3.442 2.184-.297.532-.878.788-1.445 1.071-1.755 1.9-4.333 2.716-6.628 3.242-2.592.843-5.494.546-8.086-.526-.27-.262-.553-.815-.27-1.057.553 0 1.417 0 2.011-.588.284-.255-.283-.822-.283-1.07-.878 0-1.458 0-1.728-.54-.58-1.078.553-2.426 1.417-2.426 3.2-.573 6.075-.83 8.95-2.46 1.148-.83 3.442-.263 4.9 1.375.284.256 1.459.256 2.026 0 1.728-1.638 2.875-3.532 4.347-5.44.567-.801.836-2.985 0-3.524-2.62-1.078-5.792-.263-8.68 1.106-1.445.808-3.443.255-5.184.255.27-.546-.284-.822.27-1.361 1.174-1.355 2.888-1.88 4.36-2.689 1.998-1.354 5.184-.808 7.762-.27 2.592.81 5.48 1.079 8.059.27 1.188-.539 2.902-1.354 3.455-3.248h.609v-.532c.552 0 1.133 0 1.416-.56.298-1.078-.283-1.617-1.416-1.894-.298 0-.609-.795-.298-1.34.58-.81 2.309-.277 2.606-.81.567-.829 1.444-.829 1.444-1.368.553-2.433.284-4.88-2.038-6.503-.298-.284 0-1.1 0-1.355 1.714-.54 3.172.539 4.616 1.355 1.134.808 2.012 1.866 2.62 3.262.539 1.057 0 2.702.539 3.78h.85c-.283.256.594.256.297.574-.58.518-2.01 0-2.01.256" style="stroke-width:6.91147" transform="translate(-127.173 -479.493) scale(1.00347)"/><path d="M282.19 654.906c2.888-2.716 6.358-4.88 10.097-6.227 4.306-1.348 8.37-2.972 12.675-4.859 2.012-.815 4.334-1.907 6.048-3.538.283-.242.58-.788.864-1.362.311 0 .878 0 1.161-.228 1.728-1.113 2.308-3.29 4.036-3.808 2.012-.816 4.9 0 5.467 2.419 2.903.546 2.309-2.42 1.756-4.064 0-.809-.325-1.624-.325-2.426 2.039 0 5.48 0 5.48 2.426 0 .83.298 1.894-.283 2.716-1.133 1.078-2.025 2.17-3.158 3.255-.567.284-1.445.284-2.039 0 0-.29-.567-.518-.27-.787h-1.727c.297 1.07-.581 2.149-1.148 2.958-.566.262-1.741.262-1.741 0-.581-.809 0-2.17-.298-3.256h-1.403c-.891.567-1.769.795-2.322 1.631-.836 1.887-2.592 2.965-4.05 4.064-.864.795-1.714 1.355-3.172 1.887-.311 0-.58.546-.864.816-4.914 1.085-9.22 3.227-13.54 5.405-1.444.801-2.875 1.354-4.32 2.446-.566.816-1.714.816-2.578 1.327-.85.809-1.458 1.908-2.619 2.46-.58.256-1.458.256-2.025.256-.283 2.73-.283 5.993 2.889 6.497 3.159.567 5.778 1.092 8.37 2.73 2.578 1.631 6.033 3.532 4.32 7.03-.312.559-1.176-.291-2.012-.83-.58-.788 0-2.157-.58-2.433-3.187-2.682-7.776-2.682-11.826-3.767-1.161-.518-2.322-1.085-2.578-1.914-.878-3.774-1.189-8.121 1.714-10.824M283.336 700.661c.581 1.894 2.606 3.54 4.32 4.603 3.767 2.454 7.506-.248 11.231.546.85.27 1.77.56 2.323 1.092v1.086c1.16 1.638 2.889 2.978 4.305 4.36.878.505 1.459 1.072 2.323 1.604 1.458.83 1.458 2.986 2.308 4.576.283.304 2.025.539 2.89.304v-1.079c-.284-.573-1.445-.815-1.743-1.368-.566-1.057-1.416-2.15-2.322-3.241-.822-1.072-1.444-2.178-2.294-3.263-1.162-1.34-.567-3.241-1.417-4.617-.609-.808-2.012-1.354-2.592-2.142-.297-.816.283-2.163-.297-2.993-1.445-1.078-2.634-3.794-4.037-2.71-.864.52-.297 2.71-.297 4.065-.878-.27-1.742.539-2.294-.27-.581-1.624.27-3.794-1.148-4.589-2.025-1.106-4.9-2.433-3.47-4.34.298-.54 2.026 0 3.173-.27 1.161-.532 2.295-1.603 2.592-2.433.864-2.433-.595-5.695 1.147-7.333 1.445-1.617 2.025-4.07 1.147-5.964-.11-.25-1.147-.263-1.43 0-1.459 2.73 0 5.964-2.592 8.68-.567.277 0 1.652-.567 2.461-1.444 1.071-3.766 1.334-4.333 2.695-.85 1.894-3.726 1.362-4.9 2.164-3.173 1.624-2.903 5.404-2.026 8.376m3.456-1.07c1.756-.257 3.47-.257 4.9.248.298 0 0 1.12 0 1.645 0 .539.595.539.298 1.071 1.16-.249 2.039.816 1.16 1.355-.58.815-1.727-.263-2.591-.788-.864-.816-3.159.249-4.023-.816-.594-.532-.85-2.177.256-2.716m-1.43-4.34c.58-.809 2.038 0 3.186-.277 0 .816.297 1.97-.892 2.184-1.43.263-3.456-.29-2.294-1.907M317.07 725.836c-1.161-.255-2.011.305-2.848.823-1.188.553-2.93 0-4.077.553-1.175.532-2.62.27-3.173 1.652-.58 1.61 0 3.497-1.147 5.128-.297.263-1.175 0-1.444 0-1.134-2.73-.284-5.695.877-7.851 1.417-2.717 5.17-.305 7.492-1.922.58-.256 0-1.887.58-2.17 1.432-.795 2.282.283 2.012 1.631.864.283 2.039 0 2.592.54.567.269-.864.829-.864 1.616M288.83 776.512c-.594 1.597.284 5.135 2.295 4.07 1.742-1.112.864-3.524 2.025-5.418.878-1.638 3.145-2.716 5.184-3.276 1.403-.525 2.591-.802 4.036-1.34 1.417-.533 2.592 0 4.022-.284 0 1.368.864 2.737 2.04 3.546 2.294 1.078 4.9.808 7.478.511.297 0 .297-.795.297-1.32-3.726.525-8.059-3.276-5.778-6.538 0-.27 1.16 0 1.444-.512.297-.532.297-1.354 0-1.658-.283-.242-1.147-.242-1.444 0-1.134 1.658-3.456 3-4.603 1.9-.864-.497-.864-2.688 0-3.227.566-.546 2.605 0 3.144-.546.581-.27 0-1.632.581-2.433.325-.27 1.458-.27 2.039 0 1.742 1.617 2.875 3.78 4.32 5.709 2.025 1.886 5.21 1.32 7.789.767.27 0-.58-.512-.864-.767-3.753-.56-6.034-2.73-8.37-5.17-1.43-1.908-1.43-4.61-1.984-6.767-.31-1.375 0-2.709 0-4.057-.608-2.716-2.052-4.61-2.605-7.326-.325-1.88-1.445-3.255-3.2-4.582-.484-.4-.284.553-.567.27 0 1.368-.283 2.709.283 4.036.864.802.864 1.624.864 2.716h-4.886c-.58 4.886-1.161 9.759.297 14.632 0 .27 1.12 0 1.714-.567.27-.263 1.134-.263 1.445 0v.836c-.864-.27-1.728.525-2.04.809-1.416 1.624-.835 3.525-.835 5.425.836 0 1.43.802 1.7 1.341v1.078c-2.592.553-5.17 0-7.762.553-4.022.802-6.628 4.078-8.059 7.589m14.957-23.036a8.531 8.531 0 0 1 2.039-1.34c.85-.54 2.363-.609 3.144 0 1.459 1.064-.27 2.702-1.444 3.234-1.134.836-4.575.297-3.74-1.894" style="stroke-width:6.91147" transform="translate(-127.173 -479.493) scale(1.00347)"/><path d="M321.106 780.029c1.161.552 2.592.552 3.74 0 1.16-.284 2.024-1.915 3.186-2.73.863-.242 2.01-.242 2.889.29 1.416 1.085 2.86.822 4.022.27.85-.27 1.714-1.632 2.875-1.88 4.617-.816 9.234.532 13.554-1.093 1.741-.552 3.455-1.886 5.17-2.709 1.727-.815 2.605-2.453 3.738-3.525 2.337-2.19 3.753-5.411 4.915-8.404.58-1.915.297-3.788 1.147-5.674.878-2.98.31-5.944.878-9.206.58-3.816.297-7.306.297-10.845 0-2.992-.297-5.943-1.175-8.943-.567-2.143-1.147-4.617-2.875-6.51-.311-.526-.311-1.32-.553-1.894-.297-.526.242-1.065-.595-1.32-.255-.09-.85-3.007-1.741-3.781-1.7-3.006-3.428-5.17-4.887-8.149-.566-.815-1.458-1.624-2.308-2.44-.878-1.375-1.43-2.971-2.578-4.333-.58-.815-.58-1.907-2.025-2.184v-.456c-.906-.429-6.29-5.488-3.74-3.573-1.119-.864-2.308-2.965-3.158-4.596-1.458-2.184-3.214-4.362-3.794-7.064-.837-2.71 0-5.958 2.633-7.312 5.48-2.689 10.367-6.483 16.981-7.05.567 0 1.175-.788 1.728-1.34 1.431-.568 2.309-1.348 3.726-2.164 1.769-1.071 2.336-3.255 4.064-3.808 1.16-.526 2.619-1.078 4.05-1.078.58 0 1.43-.263 2.01-.263.581-.242 1.148-.83 1.445-1.362.298-1.078 0-2.177 0-3.234h-.58c.283-.553-.284-1.624.283-1.624 1.459-.298 2.04-1.908 2.309-2.717 1.16-2.716-1.148-6.234 0-8.383 1.16-2.177 4.036-3.808 3.2-6.51 0 0 1.997-1.093 1.997-1.908.58-1.334.297-2.689 1.147-4.03 1.445-1.907 2.862-3.276 4.617-5.17.58-.546 1.43-.815 1.43-1.354.581-1.355.865-2.972 0-4.078-.58-.249-2.01-.809-2.308-.525-.877 1.63-.27 3.525-1.444 5.142-1.147 1.078-1.742 2.71-3.145 3.241-1.458.526-2.903 0-4.333.29-1.756.547-3.173 1.618-4.617 2.696-.58.525-.58 1.638-.27 1.638 1.714.54 4.306-.283 5.156.54.878.794.595 2.971 0 4.595-.27 1.092-2.025 1.625-2.889 2.689-.553.836 0 1.928-.553 2.481-1.444 1.071-3.172 1.604-4.036-.27-.85-1.92-.85-4.637-2.889-5.978-1.147-.276-2.308-.276-3.47-1.092-2.591-1.63-.297-4.32 1.445-5.681.567-.525 2.025 0 3.2-.27.567-.255.567-.801 1.134-1.112 1.16-.235 2.591.31 3.47-.235.85-.29 1.7-1.362 2.563-1.638 2.903-.512 5.212-2.15 8.087-1.625.594-2.163.864-4.589-.27-6.483-.878-1.375-4.022-2.44-4.022-2.44-.892 2.15.836 4.604 0 6.498-.311.539-2.04 1.078-2.62.262-.85-1.34-2.039-1.894-2.889-2.972-.566-.276-1.728-.276-2.308 0-.27.249-.27 1.078 0 1.355 1.742 1.078 2.308 2.695 1.458 4.326-.297 1.079-1.728 1.079-2.889.567-.58-.304-1.147-1.113-1.714-1.382-1.458-.54-4.05-.816-4.333 1.078-.878 3-3.781 4.907-5.765 7.043-.608.283-.877 1.631 0 1.631 3.74 1.348 6.048 4.34 8.923 6.773v.823c1.742 1.085 1.175 3.234 1.445 4.865h.594c.58.823.27 1.887.27 2.98-2.012 0-4.037 1.36-2.89 3.248.581 1.092 1.459 2.163 2.323 3.241 0 .277.567 1.085.297 1.348-.594.283-1.458 0-2.039-.532-.878-.284-2.308-.284-2.605.27-.864.815-.553 2.425-.864 3.8-.298.263-.567.526-.864.816-1.403.263-2.89.822-4.037 1.327-.877.574-2.28 0-3.455.283v1.085c-2.281 2.157-5.17.27-6.628-1.61-.27-.567-.864 0-1.12-.263 0 .788.256 2.98-1.175 2.433 0 0 .27-.808 0-1.354-.58-.816-1.161-1.079-2.309-.816.581 2.433-2.01 3.504-3.47 2.433-1.983-1.071-1.713-3.808-2.307-5.978-.298-1.058-1.715-1.61-2.012-1.058-1.728 2.965-.58 6.213.297 9.2-.594 0-1.147 0-1.458-.27-.567-2.157-2.605-3.263-3.725-4.894-.608-1.07 0-2.15-.284-3.227-.58-1.645-2.889-1.908-3.752-1.092-1.459 1.34-.298 3.801-.595 5.95.297 0 .595 0 .595.298v.808c1.416 2.426 4.305 3.767 5.467 6.241 1.444 2.433-2.295 2.433-3.456 1.604-3.47-2.447-6.925-5.688-11.542-4.59-.553 0-.553 1.894 0 2.143 1.472 1.638 3.766 1.9 6.061 2.447v.83c-2.025.262-4.05-.305-5.48.51-2.876 1.348-5.184 2.986-8.073 3.512-2.578.539-5.495.27-7.492 1.9-.567.27-.567 1.901.27 1.901 3.469.532 7.505 1.368 10.11-.553 1.445-1.078 2.903-2.419 4.604-2.979 2.605-1.064 5.197-.795 7.803-.27.27 0 .566.83.27 1.093-1.729 1.078-4.037.546-5.468 1.63-1.133.816-2.322 1.611-3.455 2.447-2.89 1.625-6.062 1.086-8.95 2.696-.27.539-.865 1.61-.581 1.61 4.63.567 8.95-.49 13.27-1.88 1.728-.27 3.455-.801 4.616-2.426.298-.27 1.134-.27 1.728 0v1.086c-.594 0-1.16.539-1.728.539-1.16.532-2.038 1.34-3.172 2.19-2.322 1.328-5.183 1.328-7.492 2.98 2.039.241 4.334.808 6.331 0 1.742-.837 3.483-1.404 5.197-.837v.836c-2.025.81-4.036 1.341-5.764 2.689 2.309.809 4.603.276 6.926 0v1.078c0 1.092-1.459 1.362-2.025 2.17h-.85c-.595.816-1.19 1.079-1.742 1.625-2.309 1.064-4.914 0-7.209.815a8.566 8.566 0 0 0-4.022 3.753c-.311.574-.311 1.638 0 1.894.85.567 2.038.567 2.875.276.553-.532.85-1.596 1.741-1.873 2.876-.546 1.417 2.723 1.148 4.32h.836c2.889-5.15 7.79-7.824 13-10.54 2.848-1.348 6.034-1.9 9.22-1.348.567.27 1.148 1.348.27 1.617-1.134.277-2.606.54-3.456 1.086-2.025 1.873-3.186 3.78-5.75 5.39-.864.567-1.147 1.348-1.472 2.198.11-.27 1.741.27 2.322 0 2.308-2.197 4.333-4.326 6.925-5.992.297-.235 1.161-.235 1.43 0 1.162 1.666 0 3.27-1.713 3.795-4.064 1.07-6.061 4.07-8.1 7.05-1.12 1.63-2.012 3.255-3.726 4.353-1.16.802-2.578.802-3.766 1.632v.801a10.245 10.245 0 0 0 7.816-2.716c1.715-1.348 2.578-3.234 3.712-5.163 1.458-1.61 3.794-2.695 6.075-2.419.311 2.696-2.903 4.348-4.617 6.234-.58.533 0 .809-.297 1.348.594 0 1.43.283 2.011 0 2.053-1.348 2.606-4.07 5.509-4.61 2.294-.553 4.603-1.078 6.911-1.078 1.417 4.057-5.48 1.617-7.803 3.248-3.725 2.723-6.33 5.972-8.923 9.497-.58.525-1.174 1.603-1.444 2.695-.283.525-.85.816-1.134 1.327v.816c-1.741 2.44-4.347 5.432-7.492 3.269-.594-.284-1.755-1.61-2.025-1.085-.877.801-.297 1.873.27 2.985-3.753.802-8.315.802-9.787 4.044-1.741 4.084-2.605 9.199-.27 13.284 1.134-2.413.27-5.398 1.742-7.838.54-1.362 1.687-2.965 3.159-4.07 3.442-2.185 6.911-3.788 10.353-4.887 1.714-.533 4.05 0 4.9-1.341.865-1.376-.297-3.262.554-4.092 2.308-3.504 5.48-6.192 8.964-8.632 2.025-1.341 4.05-2.177 6.33-2.703 2.026-.546 4.023-.276 6.076 0 .85 0 1.714 1.362 1.133 1.632-1.133 1.07-2.861.787-4.32 1.07-1.458.533-2.591.816-4.05 1.625-2.578 1.071-4.036 3.504-6.047 5.674-.27.54-.553 1.618-.27 2.164.27.262 1.148.262 1.431 0 1.445-1.915 2.606-3.809 4.886-5.129 2.903-1.638 6.062-2.433 9.531-1.893.298.255.567 1.085.298 1.32-4.037 1.368-7.803 2.46-11.543 5.156-.283 0-.864.546-1.43.27-.297 1.616-3.173 2.162-2.295 4.042.553.837 1.7.837 2.578.567 2.592-1.631 3.767-4.88 6.628-5.695 1.417-.553 3.145-.263 4.887-.263 0 .526.297 1.348-.284 1.625-3.455.262-6.344 2.702-8.059 5.425 1.445 0 3.173.54 4.604-.27 1.741-.822 2.889-3.269 5.466-2.453v1.064c-2.875 2.993-6.614 4.617-10.65 6.518-.311 0 .27 1.092 0 1.361-2.875 1.618-6.331.553-9.234 1.618-1.714.836-3.456 1.099-5.183 2.211-1.175.788-2.04 1.597-2.592 2.689-.892 1.873-1.728 3.774-2.309 5.944-.594 2.433-1.16 4.886-.297 7.312.878 2.163.878 4.582 2.903 6.227h.864c.256-3.518-.608-7.05.256-10.581 1.458-4.575 4.333-9.172 10.111-10.526.311-.277.58-.816.864-.816.85 0 1.445-.539 2.308-.539 3.187 0 6.062-.546 9.234.29 2.564.788 5.17.526 8.087 1.065 1.092.276 2.578 1.894 1.7 2.135-6.614 1.915-13.85-.78-20.479 1.362-2.011.822-4.32 1.624-5.197 3.539-.837 1.603-2.295 2.965-2.862 4.603-.283 1.63-.283 2.979 0 4.603h1.148c0-2.972 1.714-5.433 3.186-7.859.864-1.347 2.875-.815 4.617-1.347 2.294-.823 4.603-.277 6.911-.277 1.148 0 1.742.532 2.295.809 2.889.815 6.358.276 9.234 1.071v.574c.297 0 .539 0 .539.249.31 1.064-.54 2.177-1.687 1.347-2.039-1.347-4.32-1.071-6.642-1.347 0 .539-.27 1.064 0 1.347 2.592 1.645 3.726 3.809 4.603 5.986.85 1.88.595 4.312 0 6.206-.283 1.085-2.578 2.184-3.158 1.348-1.714-2.979 1.147-7.022-1.445-10.008-.27-.56-1.997-.56-1.997-.283-.878 2.985.553 6.248-.325 8.674-.836 1.9-4.278 1.354-6.034 2.453-1.147.512.27 1.604 1.161 2.689.298.539-.31 1.638 0 1.9 1.445.823 3.456 1.355 4.037.533 1.444-1.894 3.456-3.263 5.75-2.71v1.092c-.567.27-1.444.546-2.011.823-4.603 4.603-11.528 3.248-17.59 4.07-.567.263-1.714 1.086-2.592 1.887-.594 1.092-2.591 1.092-3.442.277-1.444-.83-2.633-2.474-4.347-2.986 0 1.085.297 2.44-.297 2.986-1.43 1.61-4.306 1.61-5.75 2.951-.567.297-.567 1.631-.284 1.915m38.919-44.953c-2.875 1.901-6.048.526-8.937.809 1.148-1.88 3.47-2.412 5.453-3.518.311-.29.878-.836 1.161-1.106 1.728-.27 3.767-.539 4.617.27 1.445 1.389-.974 2.66-2.294 3.545" style="stroke-width:6.91147" transform="translate(-127.173 -479.493) scale(1.00347)"/><path d="M348.78 694.513v-.318c.2.297.172.359 0 .318M356.541 631.89c.311-.276-.27-.545-.27-.794-1.146-.567-2.294-1.645-1.713-3.006.981-2.364-2.053-3.504-3.47-2.426-2.011 1.603-4.036 3.248-5.764 5.149-.297.532-.864 1.078-1.147 1.859-.595-.242-.892.31-1.161.31 0 .526-.284 1.349 0 1.902 1.727 1.32 4.305 1.61 5.764 3.538v1.072c-2.89.794-5.764-.277-8.64.546-.58 0-.58 1.333-.297 1.333 1.728.837 5.481 0 4.9 2.737 0 .505-.566 1.065-.283 1.604 2.011 1.368 4.887 1.887 6.628.809 2.295-1.348 2.025-4.61 1.148-7.03-.284-1.07-1.728-1.928-2.295-2.999-.297-.29-.864-.29-1.161-.54-.85-.822-.85-2.183-1.728-2.971-.58-.823-.311-1.638 0-2.17.878-1.362 3.172-1.624 4.32-.816 2.605 1.617 3.753 4.071 5.48 5.958 1.148 1.078.298 2.467-.58 3.539-1.147 1.078.878 4.057-.58 4.872-1.998.809-1.998 3.497-3.456 4.603-1.148 1.078-3.456.249-5.184.781 0 .297-.311.816.27 1.106 2.025.256 4.05.546 6.06.256 1.743-.546 2.026-2.143 3.16-3.249 1.458-1.873 4.616 0 6.627-1.34 3.173-2.696 1.756-7.03 1.162-10.568-.298-.284-2.267-.553-3.47-1.341-1.43-1.106-2.592-2.184-4.32-2.723m2.89 6.787c0-1.728 1.147-2.184 2.308-1.368.325.255.58 1.638.325 1.907-.595.54-1.784.54-2.634.277zm-9.49 3.532c1.43 1.34-.864 2.405-.594 4.043-.864-.54-1.715 0-2.606-.263-.54-.553-.27-1.375-.27-1.88.27-.829.85-1.389 1.459-2.197.297-.27 1.417 0 2.01.297M360.024 649.493c.256-.815 1.714-.276 2.889-.276 0 .276.042.532 0 .83-.297 1.064-.297 2.149-.85 2.964-1.783 3.249-6.372 1.61-9.828 1.894v-.822c2.889-.802 6.642-1.348 7.789-4.59M321.97 741.55c-1.458 1.624-1.147 3.822-2.294 5.709h-.892c.608-3.525-.836-7.569 1.728-10.817 2.606-3.283 7.222-4.368 11.556-3.525.27 0 1.576.11 1.12.553-.85.781-1.728 1.313-3.145 1.604-1.148 0-2.309 1.07-3.173 1.907v.816c-2.025 1.078-3.752 2.156-4.9 3.753M302.06 777.059c-2.578 0-.85 3.525-1.431 5.121.878 0 2.322 0 2.62-.532.85-1.348.85-2.716 2.01-3.539.567-.255 1.418-.255 1.998 0 .27.297 0 1.085 0 1.638-.283 0-.58 0-.58.284-.284 1.092 0 2.412.58 2.695 2.039 1.106 3.47-1.887 5.495-2.979 1.714-1.078 4.05-.553 6.033 0-1.133 0-2.294.553-2.875 1.376-1.147.788-2.578 1.603-3.158 2.965-.284.248-.878.801-1.459.801-2.322 0-4.9.526-7.194-.553v-.787c-2.309-1.106-5.765.787-6.629-1.369-.877-2.15-.283-4.88 1.417-6.2.595-.552 3.484-.815 3.173 1.079" style="stroke-width:6.91147" transform="translate(-127.173 -479.493) scale(1.00347)"/><path fill-rule="evenodd" d="M252.289 493.121a63.09 63.09 0 0 1 9.938-4.195c-28.219 4.03-51.829 21.274-63.46 44.786h20.381c8.412-23.353 22.532-34.95 33.14-40.59" style="stroke-width:6.91147" transform="translate(-127.173 -479.493) scale(1.00347)"/><path fill-rule="evenodd" d="M269.014 490.415c-10.99 2.232-34.129 10.795-46.21 43.3h21.522c3.09-22.428 17.05-36.9 24.688-43.3M287.723 488.924c3.014.981 6.4 2.315 9.939 4.195 10.65 5.647 24.743 17.244 33.147 40.591h20.39c-11.64-23.512-35.25-40.757-63.476-44.786" style="stroke-width:6.91147" transform="translate(-127.173 -479.493) scale(1.00347)"/><path d="M273.253 491.3c-6.373 5.01-22.069 19.42-25.435 42.415h25.435z" style="stroke-width:6.91147" transform="translate(-127.173 -479.493) scale(1.00347)"/><path fill-rule="evenodd" d="M276.708 491.3v42.415h25.448c-3.393-22.995-19.075-37.405-25.448-42.416" style="stroke-width:6.91147" transform="translate(-127.173 -479.493) scale(1.00347)"/><path fill-rule="evenodd" d="M280.947 490.415c7.679 6.4 21.612 20.872 24.702 43.3h21.467c-12.033-32.505-35.18-41.068-46.169-43.3M252.289 637.554c3.58 1.9 6.925 3.255 9.938 4.223-28.219-4.057-51.829-21.315-63.46-44.828h20.381c8.412 23.368 22.532 34.958 33.14 40.605" style="stroke-width:6.91147" transform="translate(-127.173 -479.493) scale(1.00347)"/><path fill-rule="evenodd" d="M269.014 640.274c-10.99-2.233-34.129-10.768-46.21-43.328h21.522c3.09 22.441 17.05 36.928 24.688 43.328M287.723 641.778a59.412 59.412 0 0 0 9.939-4.222c10.65-5.654 24.743-17.238 33.147-40.605h20.39c-11.64 23.513-35.25 40.77-63.476 44.827" style="stroke-width:6.91147" transform="translate(-127.173 -479.493) scale(1.00347)"/><path d="M273.253 639.362c-6.373-4.997-22.069-19.421-25.435-42.415h25.435z" style="stroke-width:6.91147" transform="translate(-127.173 -479.493) scale(1.00347)"/><path fill-rule="evenodd" d="M276.708 639.362v-42.415h25.448c-3.393 22.994-19.075 37.418-25.448 42.415" style="stroke-width:6.91147" transform="translate(-127.173 -479.493) scale(1.00347)"/><path fill-rule="evenodd" d="M280.947 640.274c7.679-6.4 21.612-20.887 24.702-43.328h21.467c-12.033 32.56-35.18 41.095-46.169 43.328" style="stroke-width:6.91147" transform="translate(-127.173 -479.493) scale(1.00347)"/><path d="M258.81 751.087h-2.959V734.27c0-1.113-.028-1.88-.055-2.288-.035-.587-.132-1.064-.304-1.396-.166-.262-.464-.49-.83-.635-.36-.125-.891-.173-1.576-.173h-.463v-2.55c1.085-.305 1.99-.9 2.758-1.673.691-.678 1.334-1.645 1.914-2.82h1.514zM264.95 746.53c.38 1.12 1.065 1.666 2.081 1.666.822 0 1.444-.532 1.86-1.596.269-.712.42-1.59.42-2.64v-4.762c-.283.905-.621 1.569-1.091 1.949-.463.394-1.134.629-2.012.629-1.755 0-2.971-.809-3.704-2.33-.553-1.188-.809-2.965-.809-5.3v-2.212c0-3.193.325-5.55 1.002-7.036.823-1.804 2.143-2.696 4.064-2.696 1.251 0 2.281.242 3.035.664.732.4 1.271 1.016 1.624 1.88.331.753.553 1.762.67 3.027.083.905.138 2.274.138 4.05v9.725c0 1.997-.041 3.38-.096 4.236-.111 1.334-.298 2.412-.581 3.2-.366.892-.892 1.555-1.576 1.956-.774.519-1.797.733-3.055.733-1.824 0-3.13-.698-4.008-2.115-.837-1.362-1.258-3.338-1.217-6.013h2.958c-.013 1.32.083 2.343.298 2.986m.055-9.296c.387.663 1.05 1.023 1.983 1.023.692 0 1.23-.443 1.714-1.286.408-.808.609-1.728.609-2.778v-4.576c0-1.334-.18-2.391-.498-3.027-.408-.712-.988-1.078-1.825-1.078-.905 0-1.54.456-1.983 1.327-.242.663-.38 1.507-.38 2.557v5.343c0 1.113.138 1.97.38 2.495M284.227 736.083c.339.456.553.947.72 1.569.13.552.2 1.271.241 2.163.042.539.048 1.5.048 2.889v.145c0 3.041-.414 5.267-1.209 6.628-.85 1.43-2.295 2.184-4.202 2.184-1.984 0-3.387-.788-4.237-2.288-.78-1.444-1.189-3.704-1.189-6.828l-.027-.408c0-1.887.096-3.262.297-4.091.27-1.314.96-2.35 1.907-3.055-.677-.408-1.16-1.079-1.527-1.998-.283-.905-.422-2.06-.422-3.504 0-2.467.408-4.292 1.286-5.48.85-1.183 2.17-1.805 3.912-1.805 1.755 0 3.04.56 3.877 1.673.864 1.203 1.265 3.138 1.265 5.806 0 1.493-.118 2.564-.346 3.248-.27.677-.864 1.369-1.714 2.06.567.338 1.01.705 1.32 1.092m-2.73-9.517c-.428-.602-.995-.933-1.727-.933-.754 0-1.32.338-1.728.974-.387.58-.588 1.327-.588 2.302v2.156c0 .843.2 1.507.588 2.004.394.54.974.795 1.728.795.76 0 1.313-.256 1.727-.753.408-.505.636-1.3.636-2.281v-1.921c0-.975-.228-1.749-.636-2.343m.18 11.59c-.463-.643-1.044-.954-1.852-.954-.809 0-1.43.311-1.86.92-.449.6-.677 1.465-.677 2.598v3.656c0 1.21.2 2.122.609 2.744.428.65 1.022.996 1.824.996.823 0 1.43-.346 1.873-.996.498-.622.733-1.576.733-2.757v-3.643c0-1.085-.221-1.956-.65-2.564M297.106 736.083c.324.456.539.947.69 1.569.132.552.215 1.271.256 2.163.028.539.056 1.5.056 2.889v.145c0 3.041-.422 5.267-1.23 6.628-.864 1.43-2.24 2.184-4.203 2.184-1.983 0-3.345-.788-4.181-2.288-.836-1.444-1.217-3.704-1.217-6.828l-.027-.408c0-1.887.097-3.262.297-4.091.283-1.314.947-2.35 1.908-3.055-.678-.408-1.19-1.079-1.514-1.998-.297-.905-.463-2.06-.463-3.504 0-2.467.421-4.292 1.327-5.48.836-1.183 2.142-1.805 3.87-1.805 1.797 0 3.069.56 3.891 1.673.864 1.203 1.265 3.138 1.265 5.806 0 1.493-.117 2.564-.36 3.248-.269.677-.85 1.369-1.713 2.06.567.338 1.023.705 1.348 1.092m-2.73-9.517c-.457-.602-1.023-.933-1.728-.933-.74 0-1.293.338-1.735.974-.38.58-.594 1.327-.594 2.302v2.156c0 .843.214 1.507.594 2.004.442.54.981.795 1.735.795.76 0 1.327-.256 1.728-.753.421-.505.635-1.3.635-2.281v-1.921c0-.975-.214-1.749-.635-2.343m.165 11.59c-.435-.643-1.036-.954-1.838-.954-.809 0-1.43.311-1.873.92-.45.6-.664 1.465-.664 2.598v3.656c0 1.21.187 2.122.581 2.744.456.65 1.064.996 1.866.996.795 0 1.43-.346 1.887-.996.456-.622.691-1.576.691-2.757v-3.643c0-1.085-.221-1.956-.65-2.564M213.304 638.68c1.133 1.888.27 4.044-.58 5.93 0 .291-.865.83-1.459 1.383v.802c1.742.532 3.456-1.085 4.63-2.184.27-.525 1.715-.525 2.593-.249 1.997.54 1.444 2.965 3.172 4.036 1.147.553 2.295 1.355 2.875 2.17 2.578 2.164 5.198 3.525 7.492 5.944.892 1.092 1.147 2.46 2.322 3 1.431.532 2.295 1.348 3.484 2.184.255.532.836.788 1.403 1.071 1.77 1.9 4.32 2.716 6.614 3.242 2.606.843 5.48.546 8.073-.526.283-.262.58-.815.283-1.057-.553 0-1.417 0-1.984-.588-.283-.255.27-.822.27-1.07.85 0 1.43 0 1.714-.54.594-1.078-.553-2.426-1.417-2.426-3.172-.573-6.061-.83-8.923-2.46-1.174-.83-3.497-.263-4.9 1.375-.297.256-1.472.256-2.039 0-1.7-1.638-2.889-3.532-4.292-5.44-.608-.801-.864-2.985 0-3.524 2.592-1.078 5.765-.263 8.626 1.106 1.43.808 3.456.255 5.211.255-.31-.546.256-.822-.31-1.361-1.19-1.355-2.904-1.88-4.307-2.689-2.052-1.354-5.211-.808-7.817-.27-2.578.81-5.453 1.079-8.058.27-1.162-.539-2.876-1.354-3.47-3.248h-.567v-.532c-.566 0-1.133 0-1.458-.56-.297-1.078.325-1.617 1.458-1.894.297 0 .567-.795.297-1.34-.58-.81-2.308-.277-2.619-.81-.54-.829-1.43-.829-1.43-1.368-.581-2.433-.298-4.88 1.997-6.503.297-.284 0-1.1 0-1.355-1.7-.54-3.159.539-4.576 1.355-1.175.808-2.038 1.866-2.605 3.262-.567 1.057 0 2.702-.567 3.78h-.878c.297.256-.539.256-.297.574.594.518 2.039 0 2.039.256" style="stroke-width:6.91147" transform="translate(-127.173 -479.493) scale(1.00347)"/><path d="M267.799 654.906c-2.917-2.716-6.359-4.88-10.084-6.227-4.375-1.348-8.384-2.972-12.745-4.859-1.983-.815-4.292-1.907-6.006-3.538-.297-.242-.567-.788-.878-1.362-.255 0-.877 0-1.16-.228-1.7-1.113-2.31-3.29-4.01-3.808-2.024-.816-4.9 0-5.522 2.419-2.861.546-2.28-2.42-1.727-4.064 0-.809.31-1.624.31-2.426-2.025 0-5.494 0-5.494 2.426 0 .83-.283 1.894.325 2.716 1.133 1.078 1.997 2.17 3.144 3.255.581.284 1.417.284 2.026 0 0-.29.566-.518.27-.787h1.768c-.31 1.07.567 2.149 1.148 2.958.566.262 1.728.262 1.728 0 .566-.809 0-2.17.283-3.256h1.458c.85.567 1.714.795 2.281 1.631.864 1.887 2.578 2.965 4.05 4.064.85.795 1.714 1.355 3.145 1.887.297 0 .58.546.878.816 4.9 1.085 9.233 3.227 13.54 5.405 1.471.801 2.902 1.354 4.319 2.446.594.816 1.742.816 2.606 1.327.85.809 1.43 1.908 2.605 2.46.567.256 1.43.256 1.998.256.283 2.73.283 5.993-2.876 6.497-3.172.567-5.75 1.092-8.356 2.73-2.619 1.631-6.061 3.532-4.333 7.03.297.559 1.161-.291 2.011-.83.567-.788 0-2.157.567-2.433 3.186-2.682 7.79-2.682 11.84-3.767 1.147-.518 2.308-1.085 2.591-1.914.864-3.774 1.161-8.121-1.7-10.824M264.627 692.285c-1.161-.802-4.022-.277-4.914-2.164-.58-1.347-2.889-1.624-4.333-2.695-.581-.809 0-2.191-.581-2.454-2.578-2.723-1.147-5.957-2.578-8.687-.297-.27-1.361-.242-1.458 0-.837 1.893-.297 4.34 1.16 5.964 1.729 1.638.298 4.907 1.12 7.326.298.83 1.459 1.908 2.648 2.433 1.133.277 2.875-.262 3.158.277 1.445 1.9-1.417 3.234-3.47 4.34-1.458.781-.58 2.958-1.174 4.603-.553.795-1.417 0-2.281.256 0-1.355.567-3.525-.311-4.078-1.43-1.071-2.578 1.645-4.036 2.723-.567.83 0 2.177-.284 2.98-.567.822-2.011 1.34-2.578 2.162-.85 1.376-.283 3.27-1.458 4.61-.85 1.085-1.403 2.191-2.253 3.256-.92 1.099-1.77 2.177-2.336 3.234-.27.567-1.445.809-1.742 1.382v1.065c.905.249 2.592 0 2.875-.277.878-1.603.878-3.76 2.309-4.589.877-.532 1.458-1.099 2.322-1.603 1.417-1.383 3.145-2.723 4.306-4.368v-1.079c.594-.525 1.444-.822 2.308-1.092 3.753-.815 7.52 1.908 11.245-.539 1.742-1.07 3.767-2.716 4.334-4.61.863-2.972 1.174-6.752-1.998-8.376m-1.161 10.021c-.878 1.065-3.172 0-4.036.802-.864.54-1.998 1.617-2.606.823-.878-.56 0-1.625 1.161-1.376-.283-.532.27-.532.27-1.071 0-.525-.27-1.645 0-1.645 1.458-.505 3.186-.505 4.914-.256 1.133.546.864 2.191.297 2.723m-1.175-5.156c-1.147-.214-.85-1.361-.85-2.177 1.147.277 2.592-.532 3.186.277 1.134 1.617-.864 2.156-2.336 1.9M232.918 725.836c1.12-.255 1.997.305 2.861.823 1.148.553 2.89 0 4.037.553 1.188.532 2.591.27 3.172 1.652.58 1.61 0 3.497 1.147 5.128.298.263 1.148 0 1.445 0 1.147-2.73.283-5.695-.864-7.851-1.458-2.717-5.198-.305-7.506-1.922-.567-.256 0-1.887-.567-2.17-1.417-.795-2.294.283-2.025 1.631-.864.283-1.983 0-2.578.54-.58.269.878.829.878 1.616M253.045 768.926c-2.578-.553-5.156 0-7.762-.553v-1.078c.298-.54.878-1.348 1.728-1.348 0-1.894.567-3.794-.85-5.425-.297-.277-1.189-1.072-2.025-.802v-.836c.297-.263 1.147-.263 1.445 0 .58.566 1.714.836 1.714.566 1.444-4.872.877-9.738.283-14.631h-4.886c0-1.092 0-1.908.877-2.723.567-1.314.297-2.682.297-4.037-.297.29-.096-.67-.608-.262-1.714 1.34-2.889 2.702-3.172 4.575-.567 2.723-1.998 4.61-2.592 7.34 0 1.34.339 2.668 0 4.05-.567 2.143-.567 4.859-1.997 6.76-2.323 2.44-4.603 4.589-8.384 5.17-.27.255-1.133.773-.864.773 2.633.553 5.778 1.134 7.79-.774 1.458-1.921 2.605-4.098 4.36-5.695.567-.276 1.687-.276 1.97 0 .636.788 0 2.157.636 2.426.54.54 2.564 0 3.131.54.836.545.836 2.73 0 3.24-1.147 1.093-3.456-.255-4.617-1.907-.283-.242-1.12-.242-1.43 0-.256.304-.256 1.12 0 1.652.31.518 1.43.256 1.43.518 2.336 3.256-2.025 7.064-5.764 6.539 0 .525 0 1.327.283 1.327 2.606.283 5.198.553 7.506-.512 1.148-.815 2.025-2.198 2.025-3.56 1.403.284 2.592-.248 4.009.284 1.458.532 2.606.823 4.036 1.348 2.04.553 4.334 1.638 5.211 3.269 1.162 1.9.284 4.306 2.026 5.426 1.997 1.064 2.875-2.475 2.308-4.071-1.445-3.511-4.05-6.794-8.114-7.59m-10.637-13.546c-1.147-.539-2.889-2.177-1.403-3.248.781-.608 2.253-.54 3.131 0 .58.249 1.445.802 2.025 1.348.85 2.177-2.592 2.73-3.753 1.9" style="stroke-width:6.91147" transform="translate(-127.173 -479.493) scale(1.00347)"/><path d="M228.585 778.111c-1.473-1.334-4.348-1.334-5.778-2.95-.581-.547-.284-1.902-.284-2.98-1.714.512-2.903 2.15-4.306 2.98-.919.815-2.916.815-3.497-.277-.85-.802-1.983-1.625-2.578-1.88-6.047-.823-12.959.525-17.603-4.078-.567-.276-1.417-.553-1.998-.822v-1.086c2.295-.56 4.32.816 5.75 2.703.595.822 2.62.29 4.05-.546.298-.249-.283-1.341 0-1.88.878-1.106 2.31-2.163 1.162-2.696-1.728-1.092-5.211-.546-6.09-2.453-.85-2.426.595-5.681-.255-8.667 0-.277-1.77-.277-2.025.283-2.592 2.98.256 7.022-1.43 10.008-.581.83-2.903-.263-3.187-1.355-.58-1.893-.864-4.32 0-6.206.864-2.17 2.025-4.327 4.617-5.979.256-.283 0-.815 0-1.347-2.295.276-4.617 0-6.642 1.347-1.12.823-2.025-.283-1.714-1.347 0-.256.297-.256.594-.256v-.574c2.876-.78 6.331-.255 9.193-1.07.594-.277 1.16-.81 2.322-.81 2.322 0 4.617-.552 6.925.277 1.714.532 3.726 0 4.59 1.348 1.458 2.432 3.172 4.886 3.172 7.872h1.147c.297-1.631.297-2.986 0-4.617-.553-1.638-1.983-3-2.861-4.603-.864-1.9-3.186-2.73-5.198-3.553-6.614-2.121-13.823.553-20.437-1.347-.891-.235.553-1.86 1.7-2.122 2.876-.553 5.481-.311 8.073-1.085 3.186-.83 6.061-.284 9.234-.284.864 0 1.43.533 2.294.533.284 0 .595.525.85.836 5.792 1.348 8.654 5.93 10.112 10.52.864 3.53 0 7.056.283 10.574h.85c2.04-1.638 2.04-4.057 2.903-6.22.85-2.42.284-4.887-.297-7.32-.567-2.163-1.417-4.085-2.295-5.937-.58-1.106-1.444-1.928-2.633-2.702-1.686-1.106-3.428-1.362-5.156-2.198-2.916-1.071-6.33 0-9.206-1.624-.297-.27.283-1.362 0-1.362-4.05-1.894-7.803-3.525-10.678-6.497v-1.085c2.578-.815 3.739 1.638 5.467 2.454 1.458.83 3.186.27 4.617.27-1.728-2.724-4.617-5.163-8.06-5.433-.58-.263-.31-1.085-.31-1.617 1.728 0 3.442-.27 4.914.276 2.889.809 4.05 4.05 6.614 5.688.892.27 2.025.27 2.62-.553.864-1.9-2.025-2.446-2.309-4.057-.58.263-1.16-.27-1.43-.27-3.767-2.674-7.52-3.794-11.543-5.134-.297-.263 0-1.106.284-1.348 3.442-.54 6.642.242 9.517 1.9 2.308 1.314 3.456 3.228 4.886 5.115.284.27 1.148.27 1.459 0 .242-.532 0-1.617-.311-2.156-2.012-2.17-3.442-4.617-6.034-5.682-1.43-.794-2.592-1.078-4.036-1.61-1.445-.276-3.214 0-4.32-1.071-.58-.277.256-1.638 1.106-1.638 2.025-.277 4.05-.546 6.116 0 2.267.518 4.306 1.361 6.304 2.709 3.455 2.433 6.628 5.121 8.95 8.632.85.816-.297 2.71.54 4.085.918 1.348 3.185.816 4.927 1.348 3.442 1.092 6.925 2.695 10.409 4.88 1.403 1.112 2.591 2.709 3.144 4.077 1.431 2.433.58 5.405 1.714 7.83 2.323-4.056 1.473-9.198-.283-13.276-1.43-3.249-6.047-3.249-9.814-4.043.622-1.113 1.189-2.191.31-2.993-.31-.532-1.458.802-2.038 1.085-3.145 2.17-5.737-.83-7.45-3.262v-.802c-.326-.532-.92-.822-1.19-1.32-.269-1.12-.85-2.19-1.416-2.723-2.606-3.518-5.212-6.773-8.95-9.496-2.281-1.632-9.248.815-7.776-3.242 2.322 0 4.617.525 6.925 1.064 2.862.546 3.415 3.276 5.453 4.617.595.284 1.473 0 2.04 0-.298-.532.269-.808-.298-1.34-1.742-1.894-4.886-3.546-4.63-6.235 2.335-.283 4.63.816 6.06 2.42 1.176 1.92 2.026 3.814 3.781 5.155 1.984 1.915 4.86 2.972 7.762 2.717v-.802c-1.161-.83-2.606-.83-3.753-1.631-1.742-1.092-2.606-2.723-3.74-4.355-2.024-2.978-4.05-5.971-8.086-7.042-1.727-.533-2.875-2.136-1.727-3.795.31-.235 1.188-.235 1.472 0 2.592 1.659 4.575 3.795 6.884 5.986.58.255 2.211-.263 2.322 0-.27-.83-.58-1.625-1.459-2.191-2.591-1.61-3.725-3.518-5.75-5.377-.878-.56-2.28-.837-3.47-1.106-.863-.27-.297-1.341.312-1.618 3.158-.546 6.317 0 9.233 1.348 5.156 2.723 10.07 5.391 12.946 10.54h.863c-.283-1.596-1.7-4.866 1.162-4.32.85.277 1.16 1.348 1.727 1.894.864.277 2.012.277 2.89-.29.283-.256.283-1.327 0-1.9a8.745 8.745 0 0 0-4.05-3.747c-2.295-.801-4.873.25-7.21-.801-.566-.56-1.174-.837-1.727-1.645h-.864c-.58-.802-2.011-1.079-2.011-2.164v-1.07c2.294.248 4.603.794 6.939 0-1.77-1.363-3.767-1.895-5.806-2.696v-.844c1.742-.566 3.47 0 5.211.844 2.04.801 4.348.241 6.331 0-2.294-1.66-5.17-1.66-7.506-3.007-1.133-.822-1.997-1.631-3.158-2.177-.58 0-1.147-.532-1.728-.532v-1.085c.58-.27 1.444-.27 1.728 0 1.161 1.617 2.889 2.163 4.63 2.433 4.334 1.361 8.626 2.453 13.27 1.873.256 0-.31-1.072-.594-1.604-2.861-1.617-6.034-1.085-8.936-2.702-1.161-.837-2.295-1.624-3.442-2.44-1.486-1.092-3.767-.553-5.509-1.638-.297-.263 0-1.092.297-1.092 2.578-.525 5.212-.788 7.79.27 1.728.56 3.158 1.907 4.617 2.985 2.591 1.915 6.614 1.078 10.083.56.85 0 .85-1.638.298-1.914-2.025-1.632-4.914-1.362-7.492-1.901-2.89-.525-5.212-2.156-8.073-3.511-1.445-.816-3.497-.242-5.522-.512v-.829c2.336-.539 4.658-.795 6.089-2.44.566-.255.566-2.142 0-2.142-4.617-1.106-8.087 2.142-11.529 4.582-1.16.83-4.914.83-3.47-1.61 1.148-2.468 4.023-3.802 5.482-6.248v-.795c0-.297.283-.297.58-.297-.297-2.15.85-4.61-.58-5.944-.864-.823-3.173-.553-3.726 1.085-.325 1.078.27 2.156-.325 3.235-1.133 1.624-3.172 2.716-3.725 4.886-.297.276-.864.276-1.43.276.836-2.992 1.983-6.24.27-9.199-.27-.553-1.743 0-2.012 1.05-.595 2.171-.284 4.908-2.322 5.98-1.417 1.077-4.023 0-3.442-2.44-1.134-.25-1.728 0-2.295.822-.297.546 0 1.34 0 1.34-1.43.554-1.161-1.623-1.161-2.411-.27.248-.864-.304-1.161.248-1.43 1.887-4.32 3.802-6.642 1.618v-1.078c-1.134-.284-2.592.283-3.456-.284-1.147-.504-2.592-1.064-4.05-1.334-.242-.29-.553-.553-.822-.815-.311-1.376 0-2.98-.864-3.802-.325-.553-1.756-.553-2.606-.27-.58.54-1.472.823-2.025.54-.283-.27.297-1.064.297-1.355.864-1.05 1.728-2.163 2.28-3.227 1.176-1.88-.863-3.256-2.86-3.256 0-1.092-.298-2.163.283-2.985h.553c.283-1.618-.256-3.781 1.472-4.866v-.823c2.875-2.432 5.197-5.418 8.937-6.766.85 0 .58-1.355 0-1.638-2.026-2.136-4.887-4.057-5.778-7.029-.284-1.9-2.89-1.631-4.348-1.092-.539.283-1.12 1.092-1.714 1.376-1.133.511-2.578.511-2.861-.56-.878-1.625-.27-3.242 1.417-4.327.31-.276.31-1.106 0-1.355-.553-.29-1.687-.29-2.295 0-.864 1.079-2.025 1.625-2.889 2.972-.553.816-2.308.263-2.606-.248-.85-1.894.864-4.348 0-6.511 0 0-3.172 1.071-4.022 2.44-1.147 1.893-.892 4.32-.297 6.496 2.875-.539 5.183 1.093 8.1 1.604.85.29 1.714 1.355 2.592 1.659.864.518 2.308 0 3.456.235.58.283.58.836 1.12 1.085 1.188.283 2.605-.249 3.2.283 1.727 1.369 4.05 4.05 1.458 5.688-1.19.816-2.336.816-3.47 1.085-2.025 1.341-2.025 4.064-2.903 5.993-.85 1.859-2.578 1.327-4.036.255-.567-.573 0-1.645-.567-2.474-.85-1.078-2.578-1.603-2.875-2.695-.608-1.625-.892-3.802 0-4.597.85-.822 3.442 0 5.184-.539.297 0 .297-1.105-.284-1.63-1.458-1.086-2.875-2.17-4.603-2.69-1.472-.303-2.903.236-4.347-.303-1.445-.533-2.025-2.15-3.186-3.242-1.134-1.631-.567-3.51-1.431-5.156-.297-.27-1.742.29-2.308.54-.878 1.105-.553 2.722 0 4.077 0 .54.864.822 1.458 1.355 1.714 1.893 3.172 3.248 4.59 5.17.877 1.347.58 2.695 1.16 4.029 0 .822 2.011 1.907 2.011 1.907-.85 2.696 2.053 4.34 3.187 6.511 1.16 2.163-1.134 5.674 0 8.384.283.808.877 2.426 2.308 2.702.608 0 0 1.113.311 1.638h-.608c0 1.057-.297 2.163 0 3.242.297.525.905 1.112 1.458 1.354.58 0 1.445.249 2.025.249 1.431 0 2.875.567 4.009 1.092 1.728.56 2.322 2.737 4.05 3.808 1.458.816 2.308 1.604 3.74 2.17.594.553 1.174 1.334 1.74 1.334 6.629.567 11.515 4.361 16.969 7.07 2.633 1.335 3.51 4.59 2.633 7.292-.595 2.71-2.322 4.88-3.74 7.07-.863 1.618-2.052 3.733-3.172 4.597 2.523-1.921-2.82 3.145-3.739 3.566v.463c-1.444.277-1.444 1.362-2.025 2.184-1.175 1.355-1.77 2.972-2.62 4.327-.863.822-1.727 1.638-2.28 2.426-1.445 2.992-3.172 5.163-4.914 8.162-.878.781-1.445 3.691-1.728 3.78-.864.243-.27.796-.567 1.349-.297.552-.297 1.34-.608 1.866-1.686 1.914-2.28 4.36-2.875 6.51-.864 3-1.147 5.958-1.147 8.944 0 3.538-.27 7.029.283 10.837.58 3.269 0 6.234.864 9.22.864 1.887.594 3.76 1.189 5.667 1.133 3 2.591 6.214 4.872 8.405 1.148 1.07 2.04 2.709 3.753 3.531 1.728.823 3.456 2.15 5.198 2.703 4.333 1.63 8.922.276 13.54 1.092 1.16.255 2.024 1.617 2.874 1.88 1.161.553 2.592.815 4.064-.263.85-.532 1.998-.532 2.862-.29 1.133.808 2.01 2.44 3.172 2.723 1.133.553 2.592.553 3.767 0 .27-.284.27-1.617-.297-1.915m-40.944-46.576c.85-.809 2.875-.54 4.617-.27.283.27.864.809 1.147 1.1 1.984 1.112 4.32 1.624 5.48 3.538-2.888-.297-6.047 1.078-8.95-.83-1.333-.877-3.71-2.156-2.294-3.538" style="stroke-width:6.91147" transform="translate(-127.173 -479.493) scale(1.00347)"/><path d="M201.209 694.513v-.318c-.2.297-.16.359 0 .318M189.087 634.604c-1.161.795-3.186 1.064-3.47 1.348-.566 3.538-2.025 7.865 1.148 10.574 2.039 1.348 5.197-.539 6.642 1.348 1.133 1.078 1.43 2.695 3.158 3.241 2.039.29 4.064 0 6.075-.255.595-.29.297-.816.297-1.113-1.727-.532-4.05.297-5.225-.795-1.416-1.078-1.416-3.78-3.428-4.589-1.458-.816.553-3.794-.594-4.873-.864-1.064-1.728-2.453-.567-3.538 1.714-1.88 2.875-4.34 5.481-5.958 1.161-.802 3.456-.54 4.333.816.298.532.567 1.347 0 2.184-.877.78-.877 2.135-1.727 2.958-.298.249-.878.249-1.162.539-.608 1.078-2.025 1.935-2.336 3-.85 2.425-1.147 5.68 1.175 7.035 1.742 1.078 4.617.56 6.615-.822.31-.532-.27-1.092-.27-1.618-.58-2.716 3.145-1.88 4.914-2.716.256 0 .256-1.334-.283-1.334-2.903-.822-5.764.242-8.653-.546v-1.064c1.43-1.935 4.022-2.225 5.75-3.546.297-.552 0-1.382 0-1.886-.311 0-.567-.56-1.147-.318-.311-.795-.864-1.334-1.162-1.866-1.714-1.894-3.739-3.546-5.764-5.15-1.472-1.085-4.492.07-3.497 2.433.608 1.362-.553 2.433-1.7 3 0 .249-.567.518-.283.788-1.715.553-2.89 1.617-4.32 2.723m1.43 4.886c-.863.263-2.025.263-2.591-.276-.284-.27 0-1.645.31-1.9 1.134-.823 2.282-.36 2.282 1.368zm11.543 2.426c.58.809 1.175 1.369 1.444 2.17 0 .526.27 1.348-.27 1.901-.89.27-1.727-.283-2.605.27.283-1.645-2.025-2.71-.58-4.05.58-.29 1.741-.56 2.01-.29M189.937 649.493c-.283-.815-1.7-.276-2.861-.276 0 .276-.083.532 0 .83.297 1.064.297 2.149.85 2.964 1.728 3.249 6.358 1.61 9.786 1.894v-.822c-2.875-.802-6.6-1.348-7.775-4.59M228.018 741.55c1.43 1.624 1.133 3.822 2.308 5.709h.85c-.58-3.525.85-7.569-1.728-10.817-2.605-3.283-7.208-4.368-11.556-3.525-.283 0-1.603.11-1.133.553.85.781 1.728 1.313 3.172 1.604 1.148 0 2.309 1.07 3.173 1.907v.816c2.011 1.078 3.739 2.156 4.914 3.753M247.888 777.059c2.578 0 .85 3.525 1.445 5.121-.878 0-2.322 0-2.606-.532-.864-1.348-.864-2.716-2.011-3.539-.58-.255-1.458-.255-2.025 0-.284.297 0 1.085 0 1.638.297 0 .567 0 .567.284.31 1.092 0 2.412-.567 2.695-2.011 1.106-3.456-1.887-5.481-2.979-1.714-1.078-4.022-.553-6.034 0 1.148 0 2.309.553 2.862 1.376 1.188.788 2.605 1.603 3.172 2.965.283.248.878.801 1.458.801 2.336 0 4.9.526 7.195-.553v-.787c2.309-1.106 5.75.787 6.628-1.369.85-2.15.297-4.88-1.444-6.2-.58-.552-3.47-.815-3.159 1.079" style="stroke-width:6.91147" transform="translate(-127.173 -479.493) scale(1.00347)"/><path d="M210.037 567.94c-3.062 0-5.55 2.211-5.55 4.927 0 2.71 2.488 4.928 5.55 4.928 3.048 0 5.536-2.218 5.536-4.928 0-2.716-2.488-4.928-5.536-4.928m142.376 225.397-2.972.712 1.01 3.829 2.999-.705c1.555-.373 2.294-1.286 1.942-2.557-.325-1.293-1.375-1.618-2.979-1.279m-45.871-229.682c1.216 0 2.294-.421 3.227-1.244.968-.795 1.445-1.742 1.445-2.813 0-1.147-.477-2.115-1.445-2.93-.933-.816-2.01-1.203-3.227-1.203-1.244 0-2.336.387-3.297 1.203-.94.815-1.403 1.783-1.403 2.93 0 1.071.463 2.018 1.403 2.813.96.823 2.053 1.244 3.297 1.244m-105.538 229.51c-3.643-1.017-5.198 1.596-5.993 4.077-.808 2.495-.995 5.509 2.62 6.51 3.642 1.024 5.239-1.603 6.006-4.098.795-2.467.988-5.474-2.633-6.49m221.422-166.829-18.598-34.923-.581-1.12-1.306.097c-25.704 2.087-34.412-7.976-35.898-10.029a83.038 83.038 0 0 0 1.403-15.108c0-23.347-9.69-45.277-27.239-61.789-17.575-16.518-40.943-25.627-65.804-25.627-51.297 0-93.035 39.222-93.035 87.416 0 5.46.567 10.9 1.631 16.214-3.055 3.27-12.503 10.747-34.951 8.923l-1.334-.097-.594 1.12-18.6 34.923-.787 1.507 1.5.843c1.527.926 36.948 22.38 19.518 77.45-.74 1.673-8.329 19.103-8.716 40.176-.504 28.987 13.174 50.717 39.506 62.833.72.338 17.528 8.293 49.016 11.556.961.165 32.699 5.591 45.464 27.5l.228.235c.595 1.085 1.203 2.15 1.728 3.104a262.74 262.74 0 0 0 1.742-3.104l.193-.235c12.835-21.909 44.53-27.335 45.478-27.5 31.53-3.263 48.352-11.218 49.03-11.556 26.346-12.116 39.996-33.846 39.492-62.833-.373-21.073-7.962-38.503-8.702-40.176-17.403-55.07 17.977-76.524 19.463-77.45l1.541-.843zM298.2 572.888v-4.092h25.918v11.985H319.5v-7.893zm-2.309-17.424v-4.078h8.1v-2.543h5.101v2.543h8.086v4.078h-2.73c.491.553.85 1.189 1.113 1.845.311.678.443 1.39.443 2.136 0 2.398-.92 4.368-2.834 5.93-1.797 1.48-3.967 2.212-6.518 2.212-2.585 0-4.81-.733-6.67-2.212-1.962-1.562-2.916-3.532-2.916-5.93 0-.746.118-1.458.415-2.136.235-.656.663-1.292 1.244-1.845zm23.61 11.342v-16.422h4.617v5.433h4.603v4.057h-4.603v6.932zm9.033 9.863h6.932v-11.937h4.714v11.937h3.048v-11.937h4.7v11.937h4.589v-22.186h-21.702v-4.099h23.92s2.281.11 2.55 1.818v24.467h2.917v4.112h-31.668Zm-117.46-70.898c16.905-15.917 39.395-24.647 63.33-24.647 23.927 0 46.43 8.73 63.336 24.647 9.89 9.261 17.071 20.368 21.419 32.428H189.627c4.375-12.06 11.584-23.167 21.447-32.428m74.167 48.712v26.298h-4.603v-9.925h-17.079c-1.092.104-1.5 0-2.156-.4-.58-.395-.892-1.1-.892-2.074v-17.998h16.67v4.099h-12.15v12.309h15.607v-16.408h9.206s1.672-.235 2.35 1.5l-.028 28.897h-4.617v-26.298Zm-60.614 16.373v-4.064h31.682v4.064h-13.526v9.925h-4.665v-9.925zm22.462-11.466c1.839.698 4.603 1.126 8.294 1.25v4.092c-3.228-.117-5.902-.373-8.052-.857-3.303-.774-5.584-2.032-6.856-3.808-1.251 1.776-3.546 3.034-6.974 3.808-2.135.484-4.782.74-7.94.857v-4.091c3.683-.104 6.427-.519 8.314-1.251 2.377-.968 3.054-2.834 3.13-4.907h-11.459v-4.099h29.837v4.099h-11.438c.055 2.073.76 3.94 3.144 4.907m-36.582 1.265V556.5h5.066v-2.018h-5.066v-4.099h9.669v22.829l-.028.656c-.566 4.5-4.886 8.031-10.111 8.031-5.62 0-10.194-4.05-10.194-9.033 0-5.004 4.575-9.04 10.194-9.04 1.928 0 3.753.45 5.536 1.424v-4.596zm-22.027-6.172v-4.099h19.746v2.253c0 5.308-2.267 9.2-6.773 11.701-3.352 1.853-5.48 2.751-10.789 2.917l-2.184-4.237c4.928-.124 8.68-1.05 11.245-2.806 2.184-1.486 3.304-3.393 3.304-5.73zm-36.651 151.534c8.991-29.478 2.902-49.625-3.87-61.402-5.89-10.187-13.153-15.93-16.174-18.046l17.237-32.449c19.843 1.32 30.155-4.216 34.952-8.342.629 2.357 1.348 4.7 2.128 6.994-3.898 2.364-14.106 7.223-31.737 7.368h-1.21l-.532.974-12.55 23.175-.733 1.368 1.271.933c.339.242 34.247 25.469 21.384 72.792-.594 1.596-7.153 20.81-9.413 35.863-2.046-8.77-1.293-22.58-.753-29.228m11.853 65.873c-1.797-2.689-4.576-2.875-7.651-1.071-3.097 1.831-4.12 4.243-2.309 6.918.809 1.237 1.48 1.942 2.17 2.688l2.862-1.693-1.825-2.778 2.26-1.327 3.87 5.84-6.8 3.988c-1.016-.843-1.894-1.79-2.73-2.848-.526-.636-1.065-1.306-2.309-3.172-1.873-2.827-2.764-7.672 2.647-10.851 5.426-3.186 9.663-.304 11.543 2.509 2.737 4.112 3.241 7.347.027 9.275l-2.19-3.255c1.74-.989 1.527-2.53.435-4.223m2.93 21.315-3.04-2.184 3.185-3.94 1.839-11.514 3.573 2.564-1.59 7.602 7.479-3.358 3.144 2.26-11.39 4.651zm22.49 3.145-7.05-2.751-1.63 3.711 7.775 3.027-1.03 2.33-11.321-4.424 6.165-13.94 11.072 4.32-1.05 2.322-7.493-2.93-1.458 3.261 7.043 2.751zm7.83 9.634c-5.66-1.562-7.208-5.557-5.833-9.821 1.32-4.285 4.956-6.829 10.623-5.218 5.668 1.562 7.195 5.55 5.847 9.82-1.382 4.272-4.955 6.816-10.636 5.22m21.204 4.56-4.16-13.622-.09.028-2.703 12.24-3.51-.684 3.282-14.79 5.57 1.077 4.065 12.952.069-.034 2.564-11.59 3.525.69-3.283 14.784zm17.846 4.078c-.85-.165-1.742-.318-3.995-.94-3.387-.905-7.506-3.967-5.75-9.724 1.796-5.771 7-6.296 10.408-5.377 4.962 1.361 7.637 3.47 6.573 6.911l-3.891-1.05c.566-1.852-.657-2.868-2.696-3.414-3.241-.885-5.44.711-6.427 3.987-1.037 3.29-.083 5.73 3.172 6.615 1.458.394 2.495.518 3.525.622l.954-3.069-3.387-.905.76-2.405 7.015 1.914-2.239 7.243c-1.334 0-2.689-.138-4.022-.408m9.35 3.657c-4.098-1.687-4.319-4.12-3.317-7.002l3.539 1.472c-.45.989-.933 2.675.767 3.387 1.873.76 2.73-1.057 3.283-2.025l4.278-9.185 3.511 1.444-4.299 9.255c-1.617 3.393-4.776 3.863-7.761 2.654m22.179 5.646c-2.426 3.318-6.38 3.117-9.96.823-3.6-2.281-5.239-5.71-2.82-9.02l5.668-7.844 3.158 2.039-4.9 6.794c-1.548 2.108-2.806 4.119.27 6.102 3.13 1.99 4.63.146 6.158-1.956l4.941-6.8 3.159 2.06zm7.464-17.451c-.643-.622-1.32-1.196-1.956-1.783v.013c-16.048-14.223-70.248-22.794-70.248-22.794-44.06-3.38-46.176-41.226-46.245-46.845 2.336-14.86 9.054-34.378 9.179-34.627l.014-.069.013-.062c7.098-25.96.553-45.38-6.158-57.117-5.778-10.077-12.579-16.262-15.323-18.543l11.3-20.866c16.498-.262 27.149-4.92 31.821-7.713a85.953 85.953 0 0 0 15.357 24.937l2.661-2.067c-6.953-7.893-12.205-16.892-15.71-26.464.063.076.118.138.118.138h169.29a82.8 82.8 0 0 1-14.902 25.428l2.717 2.032a85.31 85.31 0 0 0 14.534-23.99c4.265 2.564 14.542 7.25 32.968 7.7l11.321 20.865c-2.778 2.28-9.538 8.466-15.343 18.543-6.711 11.736-13.257 31.157-6.172 57.117l.013.062.028.07c.11.248 6.787 19.766 9.192 34.626-.083 5.619-2.225 43.466-46.244 46.845 0 0-54.228 8.57-70.29 22.794v-.013c-.622.587-1.272 1.16-1.935 1.783m18.336 18.073c-3.483 2.191-7.388 2.316-9.787-1.009l-5.619-7.83 3.083-1.97 4.9 6.828c1.507 2.101 3.02 3.947 6.034 2.046 3.034-1.935 1.742-3.919.242-6.04l-4.873-6.815 3.09-1.942 5.619 7.858c2.384 3.31.808 6.663-2.689 8.874m15.765-7.976-11.3-9.067-.014.055 5.01 11.445-3.185 1.251-6.034-13.843 5.038-1.943 10.81 8.536.014-.069-4.77-10.81 3.187-1.25 6.089 13.836zm6.898-2.218-4.686-14.3 3.525-1.002 4.686 14.293zm13.878-3.504-3.864.912-9.931-13.09 3.884-.899 7.32 10.443.04-.013 1.376-12.462 3.525-.808zm6.428-1.403-3.394-14.611 11.204-2.33.573 2.454-7.63 1.562.78 3.421 7.182-1.465.553 2.42-7.167 1.485.919 3.891 7.9-1.603.58 2.426zm22.227-4.686c-.615-1.21-1.134-2.481-1.631-3.767-.297-.774-.823-1.832-2.011-1.583l-3.781.878 1.527 5.826-3.566.864-3.801-14.514 7.043-1.658c2.875-.643 5.992-.526 6.8 2.425.491 1.894-.6 3.47-2.55 4.327l.042.035c2.792-.38 3.2 1.092 4.008 3.02.408.905 1.002 2.557 1.894 3.228zm11.37-3.103c-3.67 1.32-6.78 1.022-8.087-2.523l3.47-1.265c.525 1.597 1.97 2.246 3.78 1.603 1.375-.476 3.02-1.513 2.426-3.006-.684-1.624-3.007-.933-4.534-.733-2.426.332-5.847.546-6.856-1.935-1.3-3.172 1.472-5.82 4.762-7.001 3.124-1.134 6.13-.519 7.278 2.28l-3.276 1.19c-.76-1.362-1.922-1.756-3.58-1.148-1.245.463-2.309 1.514-1.798 2.73.636 1.493 2.24 1.113 3.74.892 2.66-.325 6.51-1.023 7.657 1.776 1.403 3.442-1.54 5.91-4.983 7.14m8.723-3.995-7.9-12.994 3.2-1.693 7.9 12.986zm20.706-17.327-4.188-2.938-8.68-1.258.054.063-3.808 3.2 8.888 9.261-2.771 2.322-8.84-9.275-3.794 3.2-1.783-1.825 8.763-7.402-.069-.02 2.606-3.214 7.948 1.458-3.642-6.829 2.253-2.833 5.107 10.388 4.154 2.95zm2.696-135.72c-6.773 11.776-12.904 31.923-3.87 61.4.538 6.65 1.306 20.459-.747 29.23-2.28-15.054-8.854-34.268-9.434-35.864-12.849-47.323 21.031-72.55 21.398-72.792l1.278-.933-.753-1.368-12.51-23.175-.532-.974h-1.237c-15.862 0-26.754-4.596-32.67-8.017a87.14 87.14 0 0 0 2.121-7.202c4.347 4.154 14.673 10.609 35.891 9.199l17.251 32.45c-3.061 2.114-10.284 7.858-16.186 18.045" style="stroke-width:6.91147" transform="translate(-127.173 -479.493) scale(1.00347)"/></g></svg>