<svg xmlns="http://www.w3.org/2000/svg" width="183.28877mm" height="150.1561mm" viewBox="0 0 183.28877 150.1561"><g style="fill:#00397f;fill-opacity:1"><g style="fill:#00397f;fill-opacity:1"><path d="M0 0c5.356 6.551 13.167 10.774 22.575 10.79l2.194 22.857H16.63V20.505H6.747v13.142H4.895V20.283h-9.997v13.364h-1.91V20.505h-9.879v13.142h-8.089l2.125-22.857c.074 0 .149.014.23.014C-13.193 10.804-5.362 6.565 0 0" style="fill:#00397f;fill-opacity:1;fill-rule:nonzero;stroke:none" transform="matrix(2.06159 0 0 -2.06159 89.865 112.786)"/></g><g style="fill:#00397f;fill-opacity:1"><path d="m0 0-9.879-9.717v-8.214H0Z" style="fill:#00397f;fill-opacity:1;fill-rule:nonzero;stroke:none" transform="matrix(2.06159 0 0 -2.06159 75.41 6.452)"/></g><g style="fill:#00397f;fill-opacity:1"><path d="m0 0-9.883 9.717V-8.214H0Z" style="fill:#00397f;fill-opacity:1;fill-rule:nonzero;stroke:none" transform="matrix(2.06159 0 0 -2.06159 124.149 26.484)"/></g><path d="M112.252 183.285h-3.526v7.43h3.526z" style="fill:#00397f;fill-opacity:1;fill-rule:nonzero;stroke:none;stroke-width:.352778" transform="matrix(5.84388 0 0 5.84388 -556.034 -1071.094)"/><g style="fill:#00397f;fill-opacity:1"><path d="m0 0-.142-1.416-3.501.328 3.265-2.737-.164-1.715-3.694 3.297-4.4-2.506.159 1.705 3.78 2.061-3.546.338.135 1.43z" style="fill:#00397f;fill-opacity:1;fill-rule:nonzero;stroke:none" transform="matrix(2.06159 0 0 -2.06159 17.804 45.901)"/></g><g style="fill:#00397f;fill-opacity:1"><path d="m0 0 4.93 2.926.116-1.573L1.447-.623l3.849-1.393.13-1.575-5.317 2.15-2.992-.22-.106 1.432z" style="fill:#00397f;fill-opacity:1;fill-rule:nonzero;stroke:none" transform="matrix(2.06159 0 0 -2.06159 6.49 63.569)"/></g><g style="fill:#00397f;fill-opacity:1"><path d="m0 0-4.906-1.276c-.367-.092-.742-.171-1.031-.42-.355-.308-.528-.736-.412-1.172.097-.368.408-.682.802-.794.417-.118.814-.007 1.234.105L.596-2.276l.359-1.393-4.906-1.273c-.782-.208-1.526-.336-2.268-.011-.737.325-1.345.956-1.544 1.717-.187.712.023 1.562.461 2.175.502.707 1.214.958 2.029 1.17L-.36 1.394z" style="fill:#00397f;fill-opacity:1;fill-rule:nonzero;stroke:none" transform="matrix(2.06159 0 0 -2.06159 18.72 74.97)"/></g><g style="fill:#00397f;fill-opacity:1"><path d="m0 0 .696-1.447-3.936-5.499 5.343 2.591.628-1.29-7.324-3.54-.684 1.429 3.908 5.506-5.33-2.586-.626 1.296z" style="fill:#00397f;fill-opacity:1;fill-rule:nonzero;stroke:none" transform="matrix(2.06159 0 0 -2.06159 21.522 85.084)"/></g><g style="fill:#00397f;fill-opacity:1"><path d="M0 0c.24.775.063 1.66-.416 2.262a2.687 2.687 0 0 1-1.669.968 2.932 2.932 0 0 1-2.155-.569A2.96 2.96 0 0 1-5.264.895c-.128-.776.069-1.557.528-2.134.57-.713 1.61-1.082 2.553-.864L-4.192.435l1.122.879L.057-2.644l-.144-.112a4.132 4.132 0 0 0-5.824.642c-1.385 1.746-1.135 4.376.735 5.857C-3.299 5.241-.65 4.905.736 3.168 1.7 1.937 1.932.089 1.069-1.356Z" style="fill:#00397f;fill-opacity:1;fill-rule:nonzero;stroke:none" transform="matrix(2.06159 0 0 -2.06159 31.867 111.246)"/></g><g style="fill:#00397f;fill-opacity:1"><path d="m0 0 1.151-.894-2.427-5.32 4.547 3.668.823-.651L1.63-8.488 6.206-4.84l1.16-.903-6.791-5.02-.899.697 2.323 5.012L-2.326-8.5l-.906.706z" style="fill:#00397f;fill-opacity:1;fill-rule:nonzero;stroke:none" transform="matrix(2.06159 0 0 -2.06159 38.217 111.551)"/></g><g style="fill:#00397f;fill-opacity:1"><path d="M0 0c-2.038.907-4.447-.073-5.421-2.23-.964-2.153-.059-4.607 1.957-5.508 1.992-.907 4.442.053 5.402 2.198C2.906-3.382 2.041-.913 0 0m-.591-1.342C.717-1.928 1.272-3.53.646-4.926.024-6.299-1.587-6.979-2.871-6.408c-1.292.575-1.846 2.234-1.225 3.612.632 1.406 2.183 2.054 3.505 1.454" style="fill:#00397f;fill-opacity:1;fill-rule:nonzero;stroke:none" transform="matrix(2.06159 0 0 -2.06159 61.14 126.36)"/></g><g style="fill:#00397f;fill-opacity:1"><path d="M0 0c-2.192.415-4.32-1.11-4.758-3.433-.432-2.319 1.014-4.485 3.185-4.898 2.168-.41 4.321 1.085 4.754 3.401C3.618-2.618 2.191-.412 0 0m-.267-1.435c1.425-.273 2.322-1.689 2.038-3.195C1.496-6.116.095-7.165-1.301-6.895c-1.387.266-2.317 1.745-2.033 3.233.281 1.491 1.644 2.497 3.067 2.227" style="fill:#00397f;fill-opacity:1;fill-rule:nonzero;stroke:none" transform="matrix(2.06159 0 0 -2.06159 77.7 131.601)"/></g><g style="fill:#00397f;fill-opacity:1"><path d="m0 0 1.605.052 3.416-5.841L4.839.145l1.433.056.264-8.139-1.596-.05-3.441 5.815.199-5.911-1.445-.049Z" style="fill:#00397f;fill-opacity:1;fill-rule:nonzero;stroke:none" transform="matrix(2.06159 0 0 -2.06159 87.65 133.39)"/></g><g style="fill:#00397f;fill-opacity:1"><path d="m0 0 1.702-4.772c.135-.36.242-.725.516-.99.343-.316.772-.453 1.204-.3.347.119.642.46.72.863.084.427-.07.817-.209 1.225L2.218.797l1.351.485 1.716-4.777c.265-.755.471-1.489.205-2.255-.262-.766-.837-1.422-1.572-1.689-.695-.247-1.556-.114-2.203.267C.952-6.738.646-6.053.357-5.256L-1.357-.477z" style="fill:#00397f;fill-opacity:1;fill-rule:nonzero;stroke:none" transform="matrix(2.06159 0 0 -2.06159 114.668 129.707)"/></g><g style="fill:#00397f;fill-opacity:1"><path d="m0 0 1.383.825L7.207-2.61 4.156 2.483l1.23.737 4.178-6.967-1.367-.821-5.825 3.407 3.032-5.086-1.234-.732Z" style="fill:#00397f;fill-opacity:1;fill-rule:nonzero;stroke:none" transform="matrix(2.06159 0 0 -2.06159 124.497 126.017)"/></g><g style="fill:#00397f;fill-opacity:1"><path d="m0 0 1.107.902 5.143-6.3-1.111-.907Z" style="fill:#00397f;fill-opacity:1;fill-rule:nonzero;stroke:none" transform="matrix(2.06159 0 0 -2.06159 137.803 117.38)"/></g><g style="fill:#00397f;fill-opacity:1"><path d="m0 0 1.014 1.106 5.957-2.657-3.114 5.729 1.018 1.108 3.932-7.724-.799-.872Z" style="fill:#00397f;fill-opacity:1;fill-rule:nonzero;stroke:none" transform="matrix(2.06159 0 0 -2.06159 141.675 114.629)"/></g><g style="fill:#00397f;fill-opacity:1"><path d="m0 0 2.264 3.498L3.495 2.7 2.003.421 3.585-.593l1.419 2.187L6.23.797 4.812-1.399l1.58-1.01L7.861-.128 9.094-.92 6.827-4.41Z" style="fill:#00397f;fill-opacity:1;fill-rule:nonzero;stroke:none" transform="matrix(2.06159 0 0 -2.06159 152.32 102.51)"/></g><g style="fill:#00397f;fill-opacity:1"><path d="m0 0 .589 1.31-2.854 1.266 3.675.597.719 1.618-3.605-.699c.109.529.084 1.052-.147 1.569-.249.524-.823 1.066-1.37 1.312-.695.3-1.521.3-2.193-.016-.71-.334-1.026-.943-1.343-1.605l-.902-2.055Zm-3.315 3.043-2.197.974.324.728c.146.366.306.675.681.87.3.161.684.154 1.008.007.313-.137.541-.375.66-.682.147-.37.005-.844-.154-1.18z" style="fill:#00397f;fill-opacity:1;fill-rule:nonzero;stroke:none" transform="matrix(2.06159 0 0 -2.06159 173.535 99.907)"/></g><g style="fill:#00397f;fill-opacity:1"><path d="M0 0c.614-.161 1.118.223 1.267.786A1.013 1.013 0 0 1 .53 2.021c-.862.233-1.299-.395-1.67-.963-.305-.442-.568-.835-1.074-1.103a2.438 2.438 0 0 0-1.661-.184C-5.158.119-5.844 1.379-5.524 2.57c.3 1.158 1.582 1.937 2.812 1.605l-.382-1.443c-.493.112-.931-.174-1.04-.609-.118-.46.157-.858.634-.959.575-.175.926.284 1.206.682.333.483.627.939 1.117 1.266.586.425 1.234.527 1.994.319C2.22 3.05 3.013 1.663 2.661.335 2.317-.936.979-1.812-.391-1.442Z" style="fill:#00397f;fill-opacity:1;fill-rule:nonzero;stroke:none" transform="matrix(2.06159 0 0 -2.06159 175.12 82.94)"/></g><g style="fill:#00397f;fill-opacity:1"><path d="m0 0 .193 1.417L8.244.268l-.207-1.42Z" style="fill:#00397f;fill-opacity:1;fill-rule:nonzero;stroke:none" transform="matrix(2.06159 0 0 -2.06159 165.572 70.708)"/></g><g style="fill:#00397f;fill-opacity:1"><path d="m0 0-.045-1.418-1.458.064.17 4.296 1.459-.06-.062-1.444 6.665-.268-.053-1.431Z" style="fill:#00397f;fill-opacity:1;fill-rule:nonzero;stroke:none" transform="matrix(2.06159 0 0 -2.06159 169.416 63.058)"/></g><g style="fill:#00397f;fill-opacity:1"><path d="m0 0-4.826-3.087-.165 1.58L-1.458.574l-3.903 1.27-.171 1.567L-.15 1.432l2.977.329.158-1.425z" style="fill:#00397f;fill-opacity:1;fill-rule:nonzero;stroke:none" transform="matrix(2.06159 0 0 -2.06159 176.752 50.388)"/></g></g></svg>