<svg xmlns="http://www.w3.org/2000/svg" width="174.1299mm" height="173.79019mm" viewBox="0 0 174.1299 173.79019"><path d="m0 0-.571.947L2.55 2.83l-.009.016-4.033-.385-.567.948 4.183.346 2.601 3.912.641-1.064-2.527-3.577.022-.013 3.424 2.065.572-.948Z" style="fill:#727272;fill-opacity:1;fill-rule:nonzero;stroke:none" transform="matrix(1.98656 0 0 -1.98656 14.298 134.494)"/><path d="m0 0-.354 1.046 2.889 1.982-.01.017-3.542-.017-.311.934 4.965.027 3.117 1.035.347-1.042-3.115-1.046Z" style="fill:#727272;fill-opacity:1;fill-rule:nonzero;stroke:none" transform="matrix(1.98656 0 0 -1.98656 5.691 117.874)"/><path d="M0 0c.936.094 1.9-.182 2.052-1.681.147-1.507-.755-1.959-1.676-2.061l-6.175-.621-.098 1.108 6.352.626c.534.066.798.29.732.864-.051.561-.349.734-.88.679l-6.366-.636-.099 1.097z" style="fill:#727272;fill-opacity:1;fill-rule:nonzero;stroke:none" transform="matrix(1.98656 0 0 -1.98656 12.233 90.235)"/><path d="m0 0 .193 1.513 6.755.506.006.018-6.608.797.127 1.036 7.952-.969-.192-1.579L1.285.833v-.01L8.065 0l-.112-.968Z" style="fill:#727272;fill-opacity:1;fill-rule:nonzero;stroke:none" transform="matrix(1.98656 0 0 -1.98656 .084 79.662)"/><path d="m0 0-.395.138c-.529.193-.951.053-1.091-.354-.171-.489.178-.883.981-1.179l3.802-1.352c.604-.212 1.097-.062 1.256.364.095.3.142.548.158.698l-2.217.787-.245-.69-.869.312L1.998.47 5.791-.898a9.56 9.56 0 0 0-.432-1.789c-.47-1.327-1.331-1.494-2.497-1.082l-3.805 1.37c-1.422.495-1.833 1.141-1.354 2.48.401 1.115 1.015 1.551 1.981 1.206l.687-.245Z" style="fill:#727272;fill-opacity:1;fill-rule:nonzero;stroke:none" transform="matrix(1.98656 0 0 -1.98656 9.473 57.036)"/><path d="m0 0 .732.833.48-.429c.409-.346.795-.421 1.081-.083.389.442.178.822-.215 1.155-.506.444-.695.571-2.321.444-.998-.072-1.868-.106-2.687.617-.991.858-1.016 1.693-.221 2.602.388.457.823.65 1.182.692.261.027.552-.058.977-.43l.574-.485-.688-.796-.475.417c-.348.306-.663.33-.945 0-.3-.338-.25-.668.214-1.078.417-.353.739-.482 2.215-.421 1.563.086 1.991-.023 2.715-.653.948-.811 1.169-1.661.305-2.659C2.256-1.04 1.474-1.281.718-.633Z" style="fill:#727272;fill-opacity:1;fill-rule:nonzero;stroke:none" transform="matrix(1.98656 0 0 -1.98656 27.473 39.33)"/><path d="M0 0c.566-.761.831-1.723-.376-2.621-1.224-.915-2.077-.386-2.633.359l-3.706 4.97.889.663 3.82-5.116c.319-.437.651-.541 1.11-.192.453.341.442.68.126 1.115l-3.828 5.115.892.659z" style="fill:#727272;fill-opacity:1;fill-rule:nonzero;stroke:none" transform="matrix(1.98656 0 0 -1.98656 45.294 24.166)"/><path d="m0 0 1.401.622 3.892-5.546.024.01-2.695 6.078.947.413 3.257-7.308-1.464-.642-3.977 5.71-.013-.021 2.776-6.24-.89-.39z" style="fill:#727272;fill-opacity:1;fill-rule:nonzero;stroke:none" transform="matrix(1.98656 0 0 -1.98656 48.135 8.305)"/><path d="m0 0-.077.41c-.113.552-.447.842-.878.757-.496-.106-.654-.608-.492-1.443l.777-3.963c.128-.635.511-.972.955-.89.302.066.546.155.682.215L.514-2.608l-.72-.135-.18.915 1.809.349.773-3.94c-.407-.194-1.135-.435-1.755-.553-1.383-.278-1.976.37-2.215 1.581l-.781 3.976c-.29 1.469.041 2.157 1.451 2.428C.063 2.241.745 1.934.942.934l.147-.715Z" style="fill:#727272;fill-opacity:1;fill-rule:nonzero;stroke:none" transform="matrix(1.98656 0 0 -1.98656 72.448 4.733)"/><path d="M0 0c-.161-.912-.697-1.772-2.177-1.505-1.494.274-1.684 1.263-1.52 2.183l1.115 6.095 1.102-.198L-2.64.302c-.097-.544.054-.852.615-.96.56-.09.806.142.906.674L.026 6.297l1.091-.205Z" style="fill:#727272;fill-opacity:1;fill-rule:nonzero;stroke:none" transform="matrix(1.98656 0 0 -1.98656 104.279 13.455)"/><path d="m0 0 1.398-.626-1.512-6.603.018-.014 2.709 6.08.953-.428L.307-8.91l-1.459.663L.432-1.48l-.019.004-2.784-6.234-.891.398z" style="fill:#727272;fill-opacity:1;fill-rule:nonzero;stroke:none" transform="matrix(1.98656 0 0 -1.98656 119.003 5.186)"/><path d="m0 0 .905-.645-4.674-6.499-.895.64z" style="fill:#727272;fill-opacity:1;fill-rule:nonzero;stroke:none" transform="matrix(1.98656 0 0 -1.98656 136.941 14.91)"/><path d="m0 0 .75-.817-3.888-5.169.018-.02 5.456 3.475.746-.816-6.978-4.239-.873.944z" style="fill:#727272;fill-opacity:1;fill-rule:nonzero;stroke:none" transform="matrix(1.98656 0 0 -1.98656 147.983 23.887)"/><path d="m0 0 1.511-2.612-.806-.459-.958 1.648-2.161-1.252.895-1.563-.808-.454-.904 1.547-2.338-1.347.955-1.658-.81-.457-1.512 2.606z" style="fill:#727272;fill-opacity:1;fill-rule:nonzero;stroke:none" transform="matrix(1.98656 0 0 -1.98656 161.26 40.585)"/><path d="m0 0-.511 1.63-7.645-2.391.331-1.053 3.329 1.045.114-.365c.209-.701.067-.881-.651-1.116l-1.736-.536c-.305-.089-.486-.169-.643-.332l.307-1.003c.303.168.688.286.962.371l1.662.52c.717.223 1.006.573.862 1.321l.016.011c.538-.784 1.029-.784 2.051-.463C.123-1.835.493-1.542 0 0m-1.926-1.31c-1.139-.367-1.329-.299-1.6.544l-.085.27 2.538.793.154-.502c.211-.658.129-.76-1.007-1.105" style="fill:#727272;fill-opacity:1;fill-rule:nonzero;stroke:none" transform="matrix(1.98656 0 0 -1.98656 170.24 60.274)"/><path d="m0 0 .087-1.107-.644-.041c-.537-.049-.847-.27-.816-.713.043-.579.452-.7.98-.66.662.049.878.101 1.935 1.34C2.199-.428 2.792.212 3.88.292c1.297.099 1.91-.469 2.006-1.673.042-.597-.128-1.039-.354-1.324-.154-.193-.427-.358-.986-.405l-.756-.05-.078 1.031.639.06c.454.025.692.236.666.67-.034.453-.308.644-.924.597-.543-.046-.867-.182-1.852-1.279C1.202-3.25.822-3.479-.134-3.552c-1.248-.09-2.005.345-2.112 1.667-.071 1.006.3 1.74 1.307 1.816z" style="fill:#727272;fill-opacity:1;fill-rule:nonzero;stroke:none" transform="matrix(1.98656 0 0 -1.98656 162.424 77.069)"/><path d="m0 0-.128-1.103-7.952.929.125 1.094Z" style="fill:#727272;fill-opacity:1;fill-rule:nonzero;stroke:none" transform="matrix(1.98656 0 0 -1.98656 173.76 95.48)"/><path d="m0 0-1.148-3.592-.89.292.4 1.258L-8.372.106l.338 1.065 6.742-2.157L-.89.28z" style="fill:#727272;fill-opacity:1;fill-rule:nonzero;stroke:none" transform="matrix(1.98656 0 0 -1.98656 171.245 109.36)"/><path d="m0 0-.565-.955-3.39.895-.008-.02 2.325-2.679-.496-.836L-5.413.144l-2.815 1.674.575.958 2.82-1.674z" style="fill:#727272;fill-opacity:1;fill-rule:nonzero;stroke:none" transform="matrix(1.98656 0 0 -1.98656 164.12 127.352)"/><path d="m0 0 .895-.675-.399-.513C.184-1.623.138-2 .494-2.272c.463-.359.823-.119 1.135.294.409.535.512.739.281 2.332-.139 1.002-.222 1.874.43 2.738.787 1.045 1.618 1.139 2.581.397.479-.353.701-.775.77-1.132.046-.256-.02-.552-.361-1.001L4.88.75l-.833.63.383.501c.267.36.28.69-.07.953-.36.271-.679.196-1.057-.299-.321-.436-.434-.771-.263-2.241.189-1.547.119-1.982-.465-2.748-.753-1.004-1.579-1.277-2.63-.484-.817.606-1.108 1.376-.506 2.172z" style="fill:#727272;fill-opacity:1;fill-rule:nonzero;stroke:none" transform="matrix(1.98656 0 0 -1.98656 34.312 150.327)"/><path d="m0 0 .971-.538-3.877-6.994-.982.536z" style="fill:#727272;fill-opacity:1;fill-rule:nonzero;stroke:none" transform="matrix(1.98656 0 0 -1.98656 51.349 148.344)"/><path d="m0 0 1.433-.535L.327-7.226l.015-.009L2.677-.998l.976-.368L.852-8.853l-1.493.559L.518-1.452.5-1.44l-2.393-6.391-.914.339Z" style="fill:#727272;fill-opacity:1;fill-rule:nonzero;stroke:none" transform="matrix(1.98656 0 0 -1.98656 58.305 151.958)"/><path d="M0 0c.207 1.103.75 2.005 2.232 1.733C3.309 1.529 3.707.898 3.542.011l-.141-.794-1.024.198.104.541c.087.504-.032.852-.486.942-.568.103-.751-.287-.935-1.226L.359-4.19c-.178-.929.086-1.145.434-1.207.402-.089.717.157.836.802l.112.557 1.019-.193-.161-.871c-.159-.836-.61-1.401-1.873-1.172-1.37.259-1.684 1.066-1.463 2.295z" style="fill:#727272;fill-opacity:1;fill-rule:nonzero;stroke:none" transform="matrix(1.98656 0 0 -1.98656 69.934 160.018)"/><path d="m0 0 3.019-.084-.026-.935-1.908.055-.058-2.502 1.799-.044-.03-.937-1.8.048-.068-2.709 1.91-.044-.021-.928L-.2-8Z" style="fill:#727272;fill-opacity:1;fill-rule:nonzero;stroke:none" transform="matrix(1.98656 0 0 -1.98656 82.53 157.739)"/><path d="M0 0h-.017c-.19-.341-.374-.566-.751-.934L-.902.103c.219.211.721 1.038.815 1.404l.925.13 1.063-7.932L.87-6.434Z" style="fill:#727272;fill-opacity:1;fill-rule:nonzero;stroke:none" transform="matrix(1.98656 0 0 -1.98656 96.552 160.24)"/><path d="m0 0-1.291 4.127c-.419 1.355-.963 1.63-2.072 1.286-1.375-.433-1.53-1.041-1.108-2.411l.409-1.302C-3.724.608-3.259-.075-2.279.235c.45.136.708.353.853.752l.017.005.442-1.406c.192-.601.151-1.002-.293-1.138-.42-.129-.639.044-.826.645l-.123.375-.991-.31.212-.679c.266-.836.87-1.2 1.988-.855C.137-2.014.429-1.371 0 0m-2.118 1.195c-.463-.152-.659.122-.789.53l-.559 1.769c-.187.6-.295.959.278 1.132.593.193.73-.263.885-.763l.482-1.525c.211-.675.113-1.021-.297-1.143" style="fill:#727272;fill-opacity:1;fill-rule:nonzero;stroke:none" transform="matrix(1.98656 0 0 -1.98656 115.356 165.146)"/><path d="m0 0 .929.466.324-.623c.205-.408.496-.557.9-.364.576.297.272.894.061 1.306l-.78 1.519c-.255.501-.571.568-.873.405C.229 2.548.145 2.18.385 1.692l.15-.281-.928-.472-2.196 4.286L.177 6.642l.397-.762-1.845-.944 1.118-2.182h.022c.07.508.308.741.65.92.527.263 1.263.24 1.727-.671L3.294.974C3.736.105 3.6-.67 2.48-1.235 1.504-1.748.773-1.52.399-.778Z" style="fill:#727272;fill-opacity:1;fill-rule:nonzero;stroke:none" transform="matrix(1.98656 0 0 -1.98656 122.042 161.843)"/><path d="m0 0 .842.626.419-.569c.267-.365.58-.467.931-.197.53.386.132.921-.147 1.291L1.02 2.519c-.336.463-.667.463-.937.262-.294-.226-.321-.601.009-1.036l.19-.257-.834-.632-2.884 3.869 2.483 1.858.52-.693-1.651-1.241L-.62 2.692l.018.015c-.018.5.175.771.495 1.01.466.345 1.201.445 1.807-.37l1.368-1.82c.591-.789.591-1.578-.421-2.324-.876-.663-1.638-.56-2.13.105Z" style="fill:#727272;fill-opacity:1;fill-rule:nonzero;stroke:none" transform="matrix(1.98656 0 0 -1.98656 134.288 154.896)"/><path d="m0 0-9.539-9.307L0-18.612h-18.854V0Z" style="fill:#d80010;fill-opacity:1;fill-rule:nonzero;stroke:none" transform="matrix(1.98656 0 0 -1.98656 127.571 36.75)"/><path d="M0 0s6.373 2.748 11.592 5.006c5.22 2.259 8.549 7.264 8.549 13.711V34.82H1.529V22.379c2.561 1.107 6.701 4.959 7.608 5.842l.115-.115c-.899-.924-4.876-5.2-5.902-7.75 2.527-1.077 8.364-1.29 9.653-1.306v-.163c-1.289-.018-7.126-.228-9.653-1.306 1.026-2.55 5.002-6.826 5.902-7.749l-.116-.115c-.922.9-5.199 4.876-7.748 5.902C.31 13.089.097 7.256.08 5.966h-.158c-.017 1.29-.228 7.123-1.306 9.653-2.55-1.026-6.825-5.002-7.748-5.902l-.117.115c.901.923 4.875 5.199 5.903 7.749-2.529 1.078-8.365 1.288-9.653 1.306v.163c1.288.016 7.124.229 9.651 1.306-1.026 2.55-5.002 6.826-5.901 7.75l.115.115c.907-.883 5.048-4.735 7.612-5.842V34.82h-18.616V18.717c0-6.447 3.33-11.452 8.549-13.711C-6.369 2.748.003 0 .003 0" style="fill:#f8b500;fill-opacity:1;fill-rule:nonzero;stroke:none" transform="matrix(1.98656 0 0 -1.98656 87.079 148.336)"/><path d="M106.219 145.85h6.567v-6.567h-6.567Z" style="fill:#004ea2;fill-opacity:1;fill-rule:nonzero;stroke:none;stroke-width:.352778" transform="matrix(5.6312 0 0 5.6312 -551.067 -747.585)"/></svg>