<svg xmlns="http://www.w3.org/2000/svg" xml:space="preserve" width="1014.9478" height="900" viewBox="0 0 1014.9477 899.99999"><path d="M-7.446 756.778v-607.5h685.09v607.5h-90.049v-28.032c0-36.627-29.796-66.426-66.427-66.426-36.628 0-66.423 29.799-66.423 66.426v28.032h-18.428v-28.032c0-46.786 38.065-84.847 84.85-84.847 46.787 0 84.85 38.06 84.85 84.847v10.441h53.201V166.87H10.98v572.318h54.048c-.693-3.282-.846-7.275-.846-10.441 0-46.786 38.061-84.847 84.852-84.847 46.782 0 84.848 38.06 84.848 84.847v1.176h-86.025v-17.59h65.317c-7.009-29.61-33.958-50.012-64.14-50.012-36.632 0-66.426 29.799-66.426 66.426 0 9.144 1.84 18.018 5.477 26.384l.718 1.648zm263.306-.001V647.16h18.423v109.615zm28.396 0L393.873 647.16h16.29v109.616h-18.421v-81.428l-81.431 81.428zM170.052 583.695c-13.66 0-23.737-10.718-23.737-24.184 0-13.527 10.078-24.245 23.737-24.245 11.802.129 21.692 8.357 23.033 20.607 0 0 .319 4.468.061 6.063H170.32v-7.34h14.533c-1.655-7.912-9.378-11.42-14.8-11.614-8.934 0-16.144 7.212-16.144 16.529 0 9.252 7.21 16.461 16.144 16.461 6.119 0 10.078-3.355 12.024-5.566l5.57 5.514c-2.976 3.34-8.611 7.775-17.594 7.775zm225.62-13.34a14.982 14.982 0 0 1-1.074-.063c-3.383-.383-7.466-1.85-9.444-5.744-1.531-3.698-.766-7.912 1.34-10.273.572-.64 1.66-1.659 3.062-2.489 1.083-.765 2.747-1.595 4.209-1.978l2.107-.7c4.532-1.148 5.292-1.725 5.872-2.361.443-.512.513-.512.126-1.148-.25-.512-.508-.705-1.591-1.277-.77-.383-1.471-.576-2.108-.576-2.3-.189-3.443.064-5.55 1.341-1.47.959-2.047 2.231-2.49 3.061l-7.02-3.573c.319-.7 1.784-4.02 5.297-6.251 3.319-1.978 6.57-2.807 10.336-2.489 1.595.129 3.641.7 5.232 1.465 2.176 1.213 3.762 2.49 4.914 4.533 2.038 4.02.765 7.976-1.277 10.212-1.406 1.53-3.766 3.125-9.57 4.72l-2.041.637c-.766.193-1.468.576-2.366 1.152-.826.443-.954.636-1.144.954-.447.382-.576.572-.19 1.66.573.83 1.596 1.088 3.062 1.213 1.72.193 3.573-.001 5.361-1.214.955-.636 1.339-1.087 1.782-1.788l6.77 4.084c-.77 1.277-2.174 3.001-4.216 4.339-3.127 2.068-6.738 2.62-9.389 2.554zm-25.73-.636v-5.361c-2.682 4.149-7.21 5.168-10.026 5.168-8.93 0-16.015-7.274-16.015-16.909 0-9.76 7.085-17.04 16.015-17.04 2.872 0 7.022 1.278 10.026 5.427v-4.21c-.068-6.638-6.577-9.253-10.404-9.253-2.36 0-6.126 1.084-8.362 4.528l-6.441-4.338c3.126-4.656 8.87-7.594 14.803-7.594 9.382 0 17.99 6.252 18.058 17.611v31.971zm147.608 0v-5.361c-2.682 4.149-7.21 5.168-10.026 5.168-8.93 0-16.016-7.274-16.016-16.909 0-9.76 7.086-17.04 16.016-17.04 2.872 0 7.021 1.278 10.026 5.427v-4.21c-.068-6.638-6.574-9.253-10.4-9.253-2.365 0-6.132 1.084-8.367 4.528l-6.44-4.338c3.126-4.656 8.869-7.594 14.806-7.594 9.377 0 17.986 6.252 18.055 17.611v31.971zm-231.59-.064c-8.998 0-16.015-7.851-16.015-17.04 0-9.188 7.017-17.034 16.015-17.034 9.064 0 16.015 7.846 16.015 17.035 0 9.188-6.951 17.04-16.015 17.04zm-37.006-.002c-9.127 0-16.277-7.781-16.277-17.038 0-9.188 7.15-16.97 16.277-16.97 9.7 0 14.038 7.91 14.038 7.91l-6.702 2.938s-2.49-3.702-7.275-3.702c-3.956 0-7.975 2.743-8.93 6.892h24.567s.959 6.186-1.47 10.846c-.129.318-4.407 9.124-14.228 9.124zm58.32-.188v-33.63h7.59v18.187c-.12 4.531 3.512 7.976 8.108 7.976 5.551 0 8.04-3.384 8.04-7.976v-18.187h7.594v19.335c0 9.764-7.085 14.296-14.871 14.296-2.997 0-7.014-1.278-8.87-4.726v4.726zm132.57 0v-5.427c-2.683 3.573-6.381 5.233-10.027 5.233-8.926 0-16.012-7.787-16.012-16.975 0-9.123 7.086-16.97 16.012-16.97 3.646 0 7.344 1.656 10.027 5.293v-4.784h7.653v33.63zm15.043 0v-33.63h7.585v18.187c-.125 4.531 3.508 7.976 8.108 7.976 5.551 0 8.04-3.384 8.04-7.976v-18.187h7.593v19.335c0 9.764-7.085 14.296-14.872 14.296-2.997 0-7.016-1.278-8.869-4.726v4.726zm-258.437 0 13.083-34.462-5.744-15.12h7.916l19.27 49.581h-8.23l-9.063-24.568-9.062 24.568zm89.51-7.084c4.85 0 8.999-4.215 8.999-9.765 0-5.616-4.149-9.825-8.999-9.825-4.85 0-8.998 4.21-8.998 9.825 0 5.55 4.149 9.765 8.998 9.765zm-37.006-.002c3.505 0 6.828-2.231 8.548-6.191H240.02c1.66 3.895 5.422 6.19 8.934 6.19zm111.542-.192c4.721 0 8.867-4.145 8.867-9.507 0-5.55-4.146-9.7-8.867-9.7-4.725 0-8.808 4.15-8.808 9.7 0 5.362 4.083 9.507 8.808 9.507zm147.608 0c4.721 0 8.867-4.145 8.867-9.507 0-5.55-4.146-9.7-8.867-9.7-4.725 0-8.81 4.15-8.81 9.7 0 5.362 4.085 9.507 8.81 9.507zm-77.646-.126c4.721 0 8.934-4.214 8.998-9.765-.064-5.55-4.277-9.698-8.998-9.698-4.781 0-8.995 4.147-8.995 9.698 0 5.55 4.214 9.765 8.995 9.765zm-103.18-68.04v-7.787h7.787v7.786zm128.5-1.153v-48.941h7.593v48.941zm-246.277-1.34v-47.474h7.786v36.88l26.033-36.88h9.958v47.475h-7.658v-36.817L219.2 491.53zm94.042-1.82v-10.976h-5.808v-7.4h5.808v-16.655c0-5.805 5.043-10.912 10.59-10.912 3.005 0 5.551 1.341 7.594 3.254l-5.491 5.745c-.89-.895-1.209-1.088-2.103-1.088-1.72 0-2.679.959-2.679 3v16.657h8.871v7.4h-8.87v10.976zm23.923-11.707v-34.074h7.47V478zm29.561-.064c-8.999 0-16.02-7.85-16.02-17.038s7.021-17.036 16.02-17.036c9.067 0 16.017 7.848 16.017 17.036 0 9.188-6.95 17.038-16.017 17.038zm21.496-.188v-33.63h7.584v18.186c-.124 4.531 3.513 7.975 8.109 7.975 5.55 0 8.04-3.383 8.04-7.975v-18.187h7.592v19.335c0 9.764-7.085 14.296-14.871 14.296-2.997 0-7.013-1.278-8.87-4.726v4.726zm-93.088-.004v-5.421c-2.682 3.573-6.381 5.228-10.023 5.228-8.93 0-16.015-7.782-16.015-16.97 0-9.128 7.085-16.975 16.015-16.975 3.642 0 7.34 1.66 10.023 5.298v-4.786h7.656v33.626zm155.75 0v-5.421c-2.683 3.573-6.385 5.228-10.027 5.228-8.926 0-16.01-7.782-16.01-16.97 0-9.128 7.084-16.975 16.01-16.975 3.642 0 7.344 1.66 10.026 5.298v-4.786h7.653v33.626zm-84.158-7.082c4.85 0 9-4.213 9-9.764 0-5.615-4.15-9.826-9-9.826s-8.998 4.21-8.998 9.826c0 5.55 4.148 9.764 8.998 9.764zm-80.974-.32c4.72 0 8.935-4.21 9-9.761-.065-5.551-4.28-9.7-9-9.7-4.781 0-8.998 4.149-8.998 9.7 0 5.55 4.217 9.76 8.998 9.76zm155.746 0c4.72 0 8.934-4.21 8.998-9.761-.064-5.551-4.277-9.7-8.998-9.7-4.781 0-8.994 4.149-8.994 9.7 0 5.55 4.213 9.76 8.994 9.76zm-159.199-63.7v-7.786h7.782v7.787zm138.458 0v-7.786h7.786v7.787zm-222.307-2.494v-28.586c0-10.719 8.551-19.332 19.077-19.332 9.957 0 19.021 8.613 19.021 19.332v28.586h-7.727v-28.393c0-6.7-5.296-11.743-11.294-11.743-6.377 0-11.355 5.044-11.355 11.743v28.393zm241.308-1.817v-10.975h-5.805v-7.401h5.805V367.3c0-5.808 5.042-10.911 10.593-10.911 3 0 5.551 1.34 7.594 3.254l-5.491 5.744c-.89-.894-1.209-1.087-2.103-1.087-1.724 0-2.679.958-2.679 3v16.656h8.867v7.4h-8.867v10.976zm-71.03-10.848V356.39h7.593v18.057c0 4.403 3.955 9.764 10.021 9.764v7.274c-2.936 0-7.79-1.848-10.021-6.061v6.061zm32.068-.223a14.88 14.88 0 0 1-1.073-.064c-3.383-.383-7.468-1.849-9.446-5.74-1.53-3.702-.766-7.915 1.341-10.275.572-.64 1.66-1.66 3.061-2.49 1.088-.766 2.748-1.595 4.214-1.978l2.103-.701c4.536-1.148 5.296-1.724 5.876-2.364.44-.508.509-.507.122-1.144-.25-.511-.508-.705-1.592-1.277-.765-.383-1.47-.575-2.106-.575-2.3-.19-3.444.064-5.551 1.34-1.47.96-2.046 2.232-2.489 3.062l-7.017-3.573c.319-.701 1.78-4.02 5.292-6.252 3.32-1.978 6.575-2.81 10.34-2.488 1.592.128 3.638.7 5.229 1.465 2.175 1.212 3.763 2.489 4.915 4.53a9.01 9.01 0 0 1-1.274 10.212c-1.41 1.531-3.765 3.126-9.574 4.721l-2.042.637c-.765.193-1.471.576-2.361 1.152-.83.443-.959.637-1.148.955-.447.383-.575.572-.189 1.66.576.83 1.595 1.083 3.062 1.212 1.72.193 3.573 0 5.361-1.212.955-.637 1.341-1.088 1.785-1.789l6.766 4.085c-.766 1.277-2.174 2.997-4.212 4.338-3.13 2.065-6.742 2.619-9.393 2.552zm59.22-.012 13.083-34.46-5.742-15.122h7.914l19.27 49.582h-8.233l-9.059-24.567-9.068 24.567zm-177.532-.625V356.55h7.468v34.074zm138.466 0V356.55h7.468v34.074zm-74.138-.064c-9.128 0-16.278-7.783-16.278-17.04 0-9.188 7.15-16.97 16.278-16.97 9.7 0 14.036 7.911 14.036 7.911l-6.702 2.937s-2.485-3.702-7.275-3.702c-3.955 0-7.975 2.743-8.93 6.892h24.567s.955 6.188-1.47 10.848c-.129.318-4.402 9.124-14.226 9.124zm-102.928-.188v-33.63h7.59v18.186c-.122 4.531 3.512 7.975 8.108 7.975 5.55 0 8.04-3.383 8.04-7.975V356.74h7.592v19.335c0 9.764-7.085 14.296-14.872 14.296-2.996 0-7.012-1.281-8.869-4.726v4.726zm51.043-.001 14.167-33.63h6.702l14.485 33.63h-8.358l-9.317-23.677-9.317 23.677zm51.885-7.085c3.508 0 6.827-2.233 8.547-6.193h-17.482c1.66 3.896 5.422 6.193 8.935 6.193zm129.33-77.164v-9.397H448.6v-9.043h9.688l-.483-.411c-3.84-3.25-5.87-7.88-5.87-13.386 0-10.759 8.008-17.989 19.931-17.989 11.927 0 19.935 7.23 19.935 17.99 0 5.506-2.03 10.138-5.873 13.385l-.483.41h9.692v9.044h-17.845v9.397zm-56.114-6.493v-81.613h10.843v47.378h7.896v-47.378h10.844v81.612h-10.844v-25.196h-7.896v25.196zm-287.38-.002v-9.414h-12.422v-9.043h12.421v-7.83h-12.421v-9.044h12.421v-9.542h10.845v44.873zm71.524 0v-44.873h10.844v18.848h12.418v9.038h-12.418v16.987zm306.672 0V256.07h10.844v17.53h12.418v9.04H511.99v16.986zm-153.537-.001V256.94h10.839v42.685zm23.195-1.142v-50.252h31.43v9.043h-20.591v32.164h20.592v9.044zm-72.565-.001v-8.604h25.41v-7.505h-25.41V257.22h36.253v8.604h-25.41v7.943h25.41v24.716zm-226.801-.674v-9.047h21.872v-6.9c0-2.695 0-8.991-22.44-20.057l4.5-8.249c14.312 6.518 28.877 14.965 28.877 28.16v16.093zm89.089-.004v-9.922c0-8.395-.86-11.391-20.033-23.858l5.438-8.374c8.37 5.438 15.102 9.961 19.3 14.416l.147.162.17-.141 16.897-14.357 6.89 8.056-18.616 15.815.042.137c.62 2.392.925 5.054.925 8.144v9.922zm66.701 0v-9.019h40.566v-20.195h-48.715v-9.019h25.977v-11.386h-17.828v-9.019h42.545v-21.151h10.848v30.17h-24.722v11.386h32.87v9.02h-10.131v29.212zm306.9-1.081v-8.613h47.579v-37.027h10.845v45.638zm-62.26-13.13c5.518 0 9.223-3.767 9.223-9.37s-3.705-9.369-9.224-9.369c-5.514 0-9.223 3.766-9.223 9.37 0 5.602 3.709 9.368 9.223 9.368zm68.748-14.39V239.81h-15.42v-9.043h74.137v9.043h-27.737v29.393h-10.848V239.81h-9.284v29.393zm-432.096-16.867c-16.713 0-26.88-6.786-26.88-17.944s10.167-17.945 26.88-17.945c16.716 0 26.883 6.787 26.883 17.945 0 11.158-10.167 17.944-26.883 17.944zm71.525 0c-16.713 0-26.884-6.786-26.884-17.944s10.171-17.945 26.884-17.945c16.712 0 26.884 6.787 26.884 17.945 0 11.158-10.172 17.944-26.884 17.944zm133.304-.433v-33.888h45.103v33.888h-10.843v-9.808h-23.412v9.808zm151.181-2.837v-8.611h36.616v-22.44h10.844v31.051zm-356.01-5.793c9.933 0 15.98-3.359 15.98-8.881 0-5.523-6.047-8.883-15.98-8.883-9.93 0-15.977 3.36-15.977 8.883 0 5.522 6.048 8.88 15.977 8.88zm71.525 0c9.933 0 15.98-3.359 15.98-8.881 0-5.523-6.047-8.883-15.98-8.883-9.93 0-15.975 3.36-15.975 8.883 0 5.522 6.046 8.88 15.975 8.88zm144.152-9.126h23.412v-8.189h-23.412z" style="color:#000;font-style:normal;font-variant:normal;font-weight:400;font-stretch:normal;font-size:medium;font-family:sans-serif;font-variant-ligatures:normal;font-variant-position:normal;font-variant-caps:normal;font-variant-numeric:normal;font-variant-alternates:normal;font-variant-east-asian:normal;font-feature-settings:normal;text-indent:0;text-decoration:none;text-decoration-line:none;text-decoration-style:solid;text-decoration-color:#000;letter-spacing:normal;word-spacing:normal;text-transform:none;writing-mode:lr-tb;direction:ltr;text-orientation:mixed;dominant-baseline:auto;baseline-shift:baseline;text-anchor:start;clip-rule:nonzero;display:inline;overflow:visible;visibility:visible;color-interpolation:sRGB;vector-effect:none;fill:#0098d8;fill-opacity:1;fill-rule:nonzero;stroke:none;stroke-width:7.59375;stroke-linecap:round;stroke-linejoin:round;stroke-miterlimit:4;stroke-dasharray:none;stroke-dashoffset:0;stroke-opacity:1;color-rendering:auto;image-rendering:auto;shape-rendering:auto;text-rendering:auto;enable-background:accumulate;stop-color:#000" transform="matrix(1.48148 0 0 -1.48148 11.031 1121.152)"/></svg>