<svg xmlns="http://www.w3.org/2000/svg" xml:space="preserve" width="500.02869" height="500.00003" viewBox="0 0 500.02869 500.00003"><path d="m478.154-108.367-.072 9.043c1.172.01 2.342.03 3.514.066l.273-9.039c-1.238-.037-2.476-.06-3.715-.07zm-7.396.074c-1.241.035-2.478.083-3.711.145l.45 9.03a161.65 161.65 0 0 1 3.513-.136zm18.5.354-.6 9.023c1.166.077 2.335.168 3.508.271l.793-9.007a173.168 173.168 0 0 0-3.701-.287zm-29.6.298c-1.232.109-2.462.229-3.69.362l.975 8.99c1.17-.127 2.337-.241 3.506-.344zm40.67.782-1.146 8.97c1.17.15 2.333.307 3.488.479l1.334-8.944c-1.23-.183-2.455-.35-3.676-.505zm-51.707.523c-1.223.18-2.446.374-3.67.582l1.518 8.914c1.152-.196 2.308-.38 3.47-.55zm62.682 1.209-1.662 8.889c1.149.215 2.297.444 3.447.685l1.86-8.85c-1.21-.253-2.425-.496-3.645-.724zm-73.623.748c-1.217.254-2.425.52-3.623.797l2.027 8.812c1.15-.264 2.297-.52 3.44-.757zm84.49 1.639-2.205 8.77c1.144.287 2.28.582 3.406.89l2.389-8.72c-1.2-.33-2.397-.64-3.59-.94zm-95.3.968c-1.195.325-2.386.662-3.575 1.014l2.564 8.672c1.123-.332 2.252-.653 3.383-.96zm105.99 2.057-2.708 8.627c1.113.35 2.227.715 3.344 1.092l2.893-8.567a172.88 172.88 0 0 0-3.53-1.152zm-116.631 1.192c-1.165.394-2.333.8-3.502 1.224l3.08 8.502a169.5 169.5 0 0 1 3.324-1.162zm127.13 2.47-3.222 8.45c1.095.417 2.187.847 3.271 1.289l3.41-8.375a167.909 167.909 0 0 0-3.459-1.364zm-137.543 1.405a175.05 175.05 0 0 0-3.423 1.43l3.566 8.308c1.085-.466 2.167-.92 3.248-1.358zm147.811 2.878-3.732 8.237c1.074.487 2.14.98 3.19 1.484l3.907-8.154a174.069 174.069 0 0 0-3.365-1.567zm-157.982 1.612c-1.12.533-2.232 1.079-3.336 1.635l4.064 8.076a159.932 159.932 0 0 1 3.158-1.547zm167.966 3.273-4.209 8.002c1.04.546 2.073 1.104 3.1 1.672l4.375-7.914a177.57 177.57 0 0 0-3.266-1.76zm-177.853 1.817c-1.081.596-2.16 1.206-3.233 1.83l4.541 7.818c1.011-.587 2.034-1.164 3.063-1.732zm187.527 3.65-4.668 7.744c.999.602 1.996 1.22 2.994 1.852l4.83-7.645c-1.039-.656-2.09-1.309-3.156-1.951zM376.19-79.4a175.9 175.9 0 0 0-3.115 2.015l4.998 7.535c.972-.644 1.958-1.282 2.955-1.914zm206.432 4.015-5.119 7.453a163.26 163.26 0 0 1 2.879 2.026l5.277-7.342a172.095 172.095 0 0 0-3.037-2.137zM366.98-73.18c-1.001.72-1.999 1.45-2.99 2.196l5.43 7.23c.936-.703 1.883-1.398 2.839-2.086zm224.607 4.37-5.553 7.136c.925.72 1.842 1.451 2.752 2.192l5.707-7.016c-.96-.78-1.928-1.552-2.906-2.313zm-233.432 2.382c-.964.782-1.915 1.572-2.855 2.367l5.842 6.903c.9-.762 1.802-1.512 2.71-2.248zm241.994 4.711-5.968 6.793c.883.776 1.757 1.559 2.619 2.35l6.113-6.664a171.342 171.342 0 0 0-2.764-2.479zm-250.406 2.551c-.919.839-1.82 1.684-2.71 2.531l6.234 6.549a168.81 168.81 0 0 1 2.574-2.402zm258.533 5.033-6.359 6.428c.838.829 1.664 1.661 2.477 2.5l6.496-6.291c-.865-.893-1.738-1.77-2.614-2.637zM341.771-51.42a173.59 173.59 0 0 0-2.558 2.69l6.613 6.166a164.61 164.61 0 0 1 2.426-2.55zm274.172 5.338-6.73 6.037c.789.88 1.566 1.76 2.326 2.645l6.856-5.897a178.02 178.02 0 0 0-2.452-2.785zM334.27-43.217c-.811.939-1.61 1.884-2.397 2.836l6.969 5.762c.748-.906 1.504-1.8 2.27-2.686zm288.851 5.62-7.074 5.632c.734.921 1.458 1.847 2.168 2.777l7.187-5.486c-.752-.986-1.513-1.96-2.28-2.924zm-295.857 3.011c-.752.982-1.495 1.974-2.227 2.975l7.299 5.336c.691-.946 1.394-1.883 2.107-2.815zm302.52 5.879-7.39 5.215c.675.955 1.34 1.923 2 2.9l7.495-5.06c-.69-1.02-1.39-2.04-2.106-3.055zm-309.007 3.152a172.443 172.443 0 0 0-2.045 3.1l7.604 4.894c.632-.981 1.279-1.96 1.937-2.937zm315.133 6.121-7.681 4.772c.615.99 1.223 1.996 1.824 3.012l7.779-4.61a174.246 174.246 0 0 0-1.922-3.174zm-321.072 3.28a178.43 178.43 0 0 0-1.858 3.213l7.881 4.433c.572-1.016 1.161-2.031 1.762-3.049zm326.64 6.343-7.95 4.305a160.342 160.342 0 0 1 1.64 3.111l8.043-4.13c-.565-1.1-1.142-2.195-1.732-3.286zM309.472-6.426a177.779 177.779 0 0 0-1.664 3.317l8.125 3.97a168.692 168.692 0 0 1 1.578-3.148zM646.469.13l-8.198 3.818c.497 1.066.982 2.134 1.452 3.203l8.279-3.638a169.45 169.45 0 0 0-1.533-3.383ZM304.687 3.607a171.076 171.076 0 0 0-1.462 3.414l8.345 3.477c.453-1.087.915-2.165 1.387-3.232zm346.17 6.74-8.412 3.315c.433 1.098.855 2.194 1.26 3.29l8.479-3.14a178 178 0 0 0-1.327-3.464zM300.51 13.915a167.81 167.81 0 0 0-1.258 3.498l8.543 2.963c.383-1.105.78-2.208 1.19-3.309zM654.625 20.8l-8.592 2.824c.365 1.108.717 2.228 1.06 3.356l8.651-2.64c-.36-1.177-.73-2.358-1.119-3.54zm-357.672 3.656a178.75 178.75 0 0 0-1.045 3.56l8.705 2.45c.317-1.124.65-2.252.992-3.381zm360.81 7.014-8.743 2.299c.298 1.136.583 2.273.855 3.41l8.795-2.104c-.289-1.207-.592-2.41-.906-3.605zm-363.726 3.707a168.794 168.794 0 0 0-.832 3.62l8.834 1.933c.251-1.15.513-2.293.787-3.428zm366.223 7.127-8.865 1.775c.23 1.146.444 2.3.652 3.461l8.902-1.592a180.467 180.467 0 0 0-.69-3.644zm-368.498 3.763a174.11 174.11 0 0 0-.614 3.66l8.934 1.395c.18-1.153.376-2.31.582-3.47zm370.343 7.202-8.955 1.242c.162 1.163.31 2.327.446 3.488l8.982-1.045a167.849 167.849 0 0 0-.473-3.685zm-371.962 3.789a167.85 167.85 0 0 0-.397 3.695l9 .867c.113-1.169.237-2.335.375-3.496zm373.156 7.257-9.014.72c.093 1.164.172 2.334.24 3.509l9.028-.523a171.787 171.787 0 0 0-.254-3.706zm-374.125 3.819a182.985 182.985 0 0 0-.18 3.703l9.037.346c.045-1.178.1-2.35.168-3.52zM663.84 75.42l-9.041.18c.023 1.173.035 2.35.035 3.527l9.043-.002c0-1.233-.013-2.468-.037-3.705zm-365.942 3.82-9.043.004c.001 1.233.013 2.47.04 3.71l9.04-.192c-.024-1.17-.036-2.344-.037-3.522zm356.807 6.739c-.044 1.174-.1 2.348-.168 3.521l9.027.52c.071-1.234.13-2.467.176-3.702zm-356.49 3.843-9.027.526c.071 1.233.156 2.47.255 3.707l9.012-.725a159.767 159.767 0 0 1-.24-3.508zm355.78 6.717a160.77 160.77 0 0 1-.374 3.498l8.98 1.063c.147-1.234.277-2.465.395-3.694zm-354.847 3.828-8.98 1.049c.144 1.235.303 2.462.473 3.684l8.957-1.245a161.566 161.566 0 0 1-.45-3.488zm353.516 6.674c-.18 1.153-.374 2.31-.58 3.469l8.902 1.582c.216-1.214.42-2.434.612-3.662zm-351.96 3.783-8.9 1.596c.218 1.212.447 2.427.692 3.646l8.863-1.783c-.23-1.144-.448-2.298-.656-3.459zm350.009 6.608a162.765 162.765 0 0 1-.785 3.43l8.789 2.12c.292-1.209.567-2.415.83-3.619zm-347.83 3.754-8.793 2.107c.29 1.21.592 2.41.906 3.602l8.746-2.3c-.3-1.138-.587-2.275-.86-3.41zm345.262 6.515a165.78 165.78 0 0 1-.99 3.377l8.654 2.627a174.69 174.69 0 0 0 1.043-3.562zm-342.475 3.682-8.649 2.64c.36 1.18.733 2.361 1.122 3.541l8.59-2.828a160.26 160.26 0 0 1-1.063-3.353zm339.299 6.406c-.384 1.108-.78 2.21-1.188 3.309l8.477 3.15c.432-1.161.85-2.328 1.256-3.498zm-335.906 3.613-8.475 3.153c.43 1.158.875 2.312 1.33 3.463l8.406-3.329c-.432-1.09-.852-2.186-1.261-3.287zm332.136 6.264c-.454 1.09-.913 2.17-1.385 3.236l8.272 3.655c.503-1.139.988-2.277 1.46-3.412zm-328.146 3.541-8.278 3.64a172.331 172.331 0 0 0 1.536 3.383l8.195-3.82a163.185 163.185 0 0 1-1.453-3.203zm323.789 6.106a168.579 168.579 0 0 1-1.576 3.148l8.045 4.129a177.658 177.658 0 0 0 1.66-3.319zm-319.227 3.437-8.045 4.13a168.958 168.958 0 0 0 1.735 3.286l7.95-4.307a159.897 159.897 0 0 1-1.64-3.109zm314.303 5.93a165.306 165.306 0 0 1-1.758 3.049l7.787 4.595c.626-1.06 1.244-2.13 1.854-3.215zm-309.184 3.324-7.779 4.607c.629 1.062 1.27 2.121 1.926 3.176l7.678-4.775a162.417 162.417 0 0 1-1.825-3.008zm303.715 5.732a161.67 161.67 0 0 1-1.935 2.938l7.498 5.055a170.61 170.61 0 0 0 2.043-3.102zm-298.053 3.201-7.49 5.069c.689 1.018 1.391 2.037 2.11 3.053l7.38-5.223c-.673-.952-1.338-1.92-2-2.899zm292.06 5.516c-.693.948-1.395 1.886-2.106 2.817l7.181 5.494c.753-.985 1.495-1.976 2.225-2.975zm-285.876 3.074-7.182 5.496c.75.98 1.512 1.956 2.286 2.924l7.064-5.644a169.32 169.32 0 0 1-2.168-2.776zm279.377 5.274c-.75.907-1.506 1.805-2.27 2.69l6.844 5.907c.812-.94 1.61-1.885 2.395-2.836zm-272.695 2.94-6.852 5.902c.81.94 1.63 1.867 2.453 2.783l6.727-6.043a169.882 169.882 0 0 1-2.328-2.643zm265.715 5.009a167.99 167.99 0 0 1-2.426 2.553l6.484 6.302c.867-.892 1.716-1.79 2.555-2.689zm-258.563 2.791-6.494 6.293c.866.893 1.74 1.772 2.613 2.637l6.36-6.428c-.84-.83-1.667-1.665-2.479-2.502zm251.125 4.736c-.854.815-1.712 1.618-2.574 2.407l6.103 6.671a179.03 179.03 0 0 0 2.71-2.533zm-243.527 2.63-6.112 6.665c.916.84 1.838 1.666 2.764 2.479l5.967-6.795a164.17 164.17 0 0 1-2.62-2.35zm235.654 4.45c-.894.759-1.797 1.509-2.709 2.25l5.705 7.014c.958-.78 1.911-1.568 2.856-2.37zm-227.639 2.455-5.705 7.014a171.04 171.04 0 0 0 2.908 2.313l5.551-7.139a161.9 161.9 0 0 1-2.754-2.188zm219.364 4.147a169.88 169.88 0 0 1-2.836 2.086l5.289 7.334c.996-.719 1.992-1.449 2.986-2.197zm-210.953 2.271-5.278 7.342c1.004.722 2.017 1.435 3.04 2.137l5.116-7.455a161.665 161.665 0 0 1-2.878-2.024zm202.306 3.827c-.972.646-1.958 1.283-2.953 1.914l4.842 7.638c1.04-.66 2.08-1.331 3.115-2.02zm-193.533 2.084-4.83 7.644a173.26 173.26 0 0 0 3.16 1.951l4.664-7.746c-1-.602-1.997-1.22-2.994-1.85zm184.543 3.492a160.23 160.23 0 0 1-3.059 1.734l4.373 7.914c1.083-.598 2.16-1.209 3.23-1.832zm-175.436 1.888-4.363 7.92c1.078.594 2.165 1.183 3.266 1.76l4.197-8.01c-1.034-.542-2.066-1.1-3.1-1.67zm166.133 3.143c-1.051.53-2.104 1.047-3.158 1.549l3.89 8.164a170.454 170.454 0 0 0 3.335-1.637zm-156.713 1.691-3.9 8.159a178.33 178.33 0 0 0 3.365 1.562l3.729-8.236a169.346 169.346 0 0 1-3.194-1.485zm147.13 2.78c-1.085.466-2.169.92-3.25 1.36l3.4 8.378c1.151-.467 2.291-.945 3.421-1.432zm-137.448 1.482-3.406 8.377c1.15.468 2.303.92 3.457 1.36l3.222-8.45a159.76 159.76 0 0 1-3.273-1.287zm127.601 2.41c-1.096.398-2.204.785-3.322 1.164l2.905 8.563c1.165-.395 2.334-.802 3.503-1.227zm-117.687 1.266-2.89 8.566c1.168.395 2.346.781 3.533 1.153l2.7-8.63a160.679 160.679 0 0 1-3.343-1.089zm107.639 2.03c-1.125.333-2.252.655-3.381.962l2.373 8.725c1.197-.326 2.39-.666 3.576-1.018zm-97.514 1.048-2.38 8.723c1.197.327 2.395.638 3.589.937l2.2-8.771c-1.144-.287-2.281-.581-3.409-.889zm87.285 1.643a170.33 170.33 0 0 1-3.44.757l1.858 8.85c1.212-.254 2.419-.52 3.621-.799zm-76.998.824-1.855 8.85c1.212.254 2.426.495 3.644.722l1.658-8.889c-1.15-.214-2.3-.442-3.447-.683zm66.62 1.25c-1.155.197-2.312.381-3.471.553l1.322 8.945c1.225-.181 2.448-.376 3.67-.584zm-56.206.601-1.322 8.944c1.227.181 2.45.348 3.672.504l1.142-8.969c-1.169-.149-2.334-.307-3.492-.479zm45.729.854a173.42 173.42 0 0 1-3.508.348l.805 9.005c1.226-.109 2.456-.23 3.689-.365zm-35.22.375-.79 9.008c1.23.108 2.464.203 3.703.285l.594-9.024a160.802 160.802 0 0 1-3.506-.269zm24.673.459c-1.176.059-2.35.105-3.518.139l.258 9.039c1.241-.036 2.478-.085 3.709-.147zm-14.104.148-.267 9.04c1.24.036 2.478.058 3.715.068l.068-9.041a159.337 159.337 0 0 1-3.516-.067z" style="color:#000;font-style:normal;font-variant:normal;font-weight:400;font-stretch:normal;font-size:medium;font-family:sans-serif;font-variant-ligatures:normal;font-variant-position:normal;font-variant-caps:normal;font-variant-numeric:normal;font-variant-alternates:normal;font-variant-east-asian:normal;font-feature-settings:normal;text-indent:0;text-decoration:none;text-decoration-line:none;text-decoration-style:solid;text-decoration-color:#000;letter-spacing:normal;word-spacing:normal;text-transform:none;writing-mode:lr-tb;direction:ltr;text-orientation:mixed;dominant-baseline:auto;baseline-shift:baseline;text-anchor:start;clip-rule:nonzero;display:inline;overflow:visible;visibility:visible;opacity:1;color-interpolation:sRGB;vector-effect:none;fill:#ce212b;fill-opacity:1;fill-rule:nonzero;stroke:none;stroke-width:9.04226;stroke-linecap:butt;stroke-linejoin:miter;stroke-miterlimit:4;stroke-dasharray:3.61581,7.23435,3.61581,7.23435;stroke-dashoffset:0;stroke-opacity:1;color-rendering:auto;image-rendering:auto;shape-rendering:auto;text-rendering:auto;enable-background:accumulate;stop-color:#000;stop-opacity:1" transform="matrix(1.33333 0 0 -1.33333 -385.14 355.51)"/><path d="M649.765 79.126c0-95.216-77.189-172.404-172.404-172.404-95.21 0-172.398 77.188-172.398 172.404 0 95.207 77.188 172.393 172.398 172.393 95.215 0 172.404-77.186 172.404-172.393" style="fill:#ce212b;fill-opacity:1;fill-rule:nonzero;stroke:none;stroke-width:2.73098" transform="matrix(1.33333 0 0 -1.33333 -385.14 355.51)"/><path d="m324.57 116.871 1.83-.38-1.655-8.26.626-.129c2.105-.437 4.538-.07 7.308 1.087 2.922 1.24 5.183 2.985 6.789 5.238l1.338-1.608c-1.136-1.519-2.71-2.87-4.72-4.059-2.148-1.286-4.298-2.072-6.45-2.356 1.852-1.202 3.526-2.89 5.025-5.055 1.393-2.038 2.273-3.92 2.641-5.65l-1.849-.93c-.166 1.014-.551 2.142-1.15 3.382a20.44 20.44 0 0 1-2.329 3.56c-.98 1.208-2.048 2.21-3.2 3.013-1.249.893-2.491 1.467-3.734 1.726l-.63.126-1.675-8.313-1.824.374z" style="fill:#fff;fill-opacity:1;fill-rule:nonzero;stroke:none;stroke-width:2.73098" transform="matrix(1.33333 0 0 -1.33333 -385.14 355.51)"/><path d="m324.57 116.871 1.83-.38-1.655-8.26.626-.129c2.105-.437 4.538-.07 7.308 1.087 2.922 1.24 5.183 2.985 6.789 5.238l1.338-1.608c-1.136-1.519-2.71-2.87-4.72-4.059-2.148-1.286-4.298-2.072-6.45-2.356 1.852-1.202 3.526-2.89 5.025-5.055 1.393-2.038 2.273-3.92 2.641-5.65l-1.849-.93c-.166 1.014-.551 2.142-1.15 3.382a20.44 20.44 0 0 1-2.329 3.56c-.98 1.208-2.048 2.21-3.2 3.013-1.249.893-2.491 1.467-3.734 1.726l-.63.126-1.675-8.313-1.824.374z" style="fill:none;stroke:#fff;stroke-width:2.73098;stroke-linecap:butt;stroke-linejoin:miter;stroke-miterlimit:4;stroke-dasharray:none;stroke-opacity:1" transform="matrix(1.33333 0 0 -1.33333 -385.14 355.51)"/><path d="m335.067 128.438-10.006 3.545.415 1.215c.09.279.2.418.312.413.068.008.19-.058.355-.21.087-.077.155-.137.21-.173.09-.052.18-.087.254-.117l24.035-8.51-.516-1.496-13.43 4.76-2.445-7.07-1.628.575z" style="fill:#fff;fill-opacity:1;fill-rule:nonzero;stroke:none;stroke-width:2.73098" transform="matrix(1.33333 0 0 -1.33333 -385.14 355.51)"/><path d="m335.067 128.438-10.006 3.545.415 1.215c.09.279.2.418.312.413.068.008.19-.058.355-.21.087-.077.155-.137.21-.173.09-.052.18-.087.254-.117l24.035-8.51-.516-1.496-13.43 4.76-2.445-7.07-1.628.575z" style="fill:none;stroke:#fff;stroke-width:2.73098;stroke-linecap:butt;stroke-linejoin:miter;stroke-miterlimit:4;stroke-dasharray:none;stroke-opacity:1" transform="matrix(1.33333 0 0 -1.33333 -385.14 355.51)"/><path d="M337.516 144.923c.715-1.595 1.985-2.882 3.812-3.851 1.789-.953 3.537-1.27 5.235-.959 1.866.358 3.264 1.45 4.209 3.27.931 1.802 1.019 3.582.248 5.338-.701 1.606-1.947 2.887-3.736 3.837-1.81.962-3.58 1.29-5.314.967-1.898-.336-3.318-1.4-4.252-3.203-.948-1.825-1.013-3.624-.202-5.4m3.867 10.482c2.187.418 4.432.022 6.715-1.196 2.24-1.188 3.805-2.81 4.69-4.864 1.002-2.25.9-4.542-.31-6.874-1.21-2.351-3.02-3.747-5.418-4.184-2.162-.412-4.366-.022-6.611 1.17-2.278 1.209-3.878 2.845-4.796 4.893-.986 2.237-.868 4.53.347 6.88 1.213 2.334 3.004 3.724 5.383 4.175" style="fill:#fff;fill-opacity:1;fill-rule:nonzero;stroke:none;stroke-width:2.73098" transform="matrix(1.33333 0 0 -1.33333 -385.14 355.51)"/><path d="M337.516 144.923c.715-1.595 1.985-2.882 3.812-3.851 1.789-.953 3.537-1.27 5.235-.959 1.866.358 3.264 1.45 4.209 3.27.931 1.802 1.019 3.582.248 5.338-.701 1.606-1.947 2.887-3.736 3.837-1.81.962-3.58 1.29-5.314.967-1.898-.336-3.318-1.4-4.252-3.203-.948-1.825-1.013-3.624-.202-5.4zm3.867 10.481c2.187.418 4.432.022 6.715-1.196 2.24-1.188 3.805-2.81 4.69-4.864 1.002-2.25.9-4.542-.31-6.874-1.21-2.351-3.02-3.747-5.418-4.184-2.162-.412-4.366-.022-6.611 1.17-2.278 1.209-3.878 2.845-4.796 4.893-.986 2.237-.868 4.53.347 6.88 1.213 2.334 3.004 3.724 5.383 4.175z" style="fill:none;stroke:#fff;stroke-width:2.73098;stroke-linecap:butt;stroke-linejoin:miter;stroke-miterlimit:4;stroke-dasharray:none;stroke-opacity:1" transform="matrix(1.33333 0 0 -1.33333 -385.14 355.51)"/><path d="M349.693 165.986c.464-1.69 1.527-3.151 3.19-4.397 1.628-1.218 3.302-1.805 5.025-1.758 1.898.068 3.446.923 4.65 2.578 1.194 1.641 1.552 3.386 1.052 5.235-.453 1.701-1.488 3.165-3.116 4.38-1.641 1.227-3.345 1.82-5.099 1.773-1.936-.033-3.498-.871-4.689-2.513-1.204-1.65-1.545-3.419-1.013-5.298m5.4 9.76c2.233.075 4.383-.666 6.458-2.217 2.037-1.526 3.335-3.375 3.9-5.54.655-2.38.213-4.627-1.336-6.74-1.556-2.137-3.555-3.232-5.989-3.297-2.203-.074-4.32.653-6.352 2.174-2.075 1.55-3.408 3.413-4.006 5.579-.636 2.368-.178 4.613 1.382 6.746 1.545 2.119 3.525 3.217 5.942 3.296" style="fill:#fff;fill-opacity:1;fill-rule:nonzero;stroke:none;stroke-width:2.73098" transform="matrix(1.33333 0 0 -1.33333 -385.14 355.51)"/><path d="M349.693 165.986c.464-1.69 1.527-3.151 3.19-4.397 1.628-1.218 3.302-1.805 5.025-1.758 1.898.068 3.446.923 4.65 2.578 1.194 1.641 1.552 3.386 1.052 5.235-.453 1.701-1.488 3.165-3.116 4.38-1.641 1.227-3.345 1.82-5.099 1.773-1.936-.033-3.498-.871-4.689-2.513-1.204-1.65-1.545-3.419-1.013-5.298zm5.4 9.76c2.233.075 4.383-.666 6.458-2.217 2.037-1.526 3.335-3.375 3.9-5.54.655-2.38.213-4.627-1.336-6.74-1.556-2.137-3.555-3.232-5.989-3.297-2.203-.074-4.32.653-6.352 2.174-2.075 1.55-3.408 3.413-4.006 5.579-.636 2.368-.178 4.613 1.382 6.746 1.545 2.119 3.525 3.217 5.942 3.296z" style="fill:none;stroke:#fff;stroke-width:2.73098;stroke-linecap:butt;stroke-linejoin:miter;stroke-miterlimit:4;stroke-dasharray:none;stroke-opacity:1" transform="matrix(1.33333 0 0 -1.33333 -385.14 355.51)"/><path d="m380.14 187.973 1.226-1.218-14.608-15.152-1.235 1.221z" style="fill:#fff;fill-opacity:1;fill-rule:nonzero;stroke:none;stroke-width:2.73098" transform="matrix(1.33333 0 0 -1.33333 -385.14 355.51)"/><path d="m380.14 187.973 1.226-1.218-14.608-15.152-1.235 1.221z" style="fill:none;stroke:#fff;stroke-width:2.73098;stroke-linecap:butt;stroke-linejoin:miter;stroke-miterlimit:4;stroke-dasharray:none;stroke-opacity:1" transform="matrix(1.33333 0 0 -1.33333 -385.14 355.51)"/><path d="M378.849 206.098c.079-.05.155-.175.213-.396a1.412 1.412 0 0 1 .235-.538l15.55-20.024-1.23-.978-16.454 21.195 1.115.642c.284.118.47.153.57.099" style="fill:#fff;fill-opacity:1;fill-rule:nonzero;stroke:none;stroke-width:2.73098" transform="matrix(1.33333 0 0 -1.33333 -385.14 355.51)"/><path d="M378.849 206.098c.079-.05.155-.175.213-.396a1.412 1.412 0 0 1 .235-.538l15.55-20.024-1.23-.978-16.454 21.195 1.115.642c.284.118.47.153.57.099z" style="fill:none;stroke:#fff;stroke-width:2.73098;stroke-linecap:butt;stroke-linejoin:miter;stroke-miterlimit:4;stroke-dasharray:none;stroke-opacity:1" transform="matrix(1.33333 0 0 -1.33333 -385.14 355.51)"/><path d="M399.219 197.43c.805.694 1.45 1.704 1.925 3.034.448 1.234.71 2.633.795 4.198a19.03 19.03 0 0 1-.287 4.407c-.257 1.459-.66 2.685-1.223 3.668l-.863 1.513 1.237.54c.284.167.464.217.543.137.06-.038.093-.177.096-.418.01-.142.016-.248.016-.319.028-.11.066-.208.118-.3l.407-.716c1.103-1.936 2.815-3.63 5.131-5.082 2.56-1.6 4.91-2.207 7.046-1.841l.303-2.051c-2.116-.016-4.208.453-6.278 1.412a17.627 17.627 0 0 0-4.848 3.416c.399-2.182.448-4.347.153-6.494-.393-2.673-1.289-4.785-2.698-6.338z" style="fill:#fff;fill-opacity:1;fill-rule:nonzero;stroke:none;stroke-width:2.73098" transform="matrix(1.33333 0 0 -1.33333 -385.14 355.51)"/><path d="M399.219 197.43c.805.694 1.45 1.704 1.925 3.034.448 1.234.71 2.633.795 4.198a19.03 19.03 0 0 1-.287 4.407c-.257 1.459-.66 2.685-1.223 3.668l-.863 1.513 1.237.54c.284.167.464.217.543.137.06-.038.093-.177.096-.418.01-.142.016-.248.016-.319.028-.11.066-.208.118-.3l.407-.716c1.103-1.936 2.815-3.63 5.131-5.082 2.56-1.6 4.91-2.207 7.046-1.841l.303-2.051c-2.116-.016-4.208.453-6.278 1.412a17.627 17.627 0 0 0-4.848 3.416c.399-2.182.448-4.347.153-6.494-.393-2.673-1.289-4.785-2.698-6.338z" style="fill:none;stroke:#fff;stroke-width:2.73098;stroke-linecap:butt;stroke-linejoin:miter;stroke-miterlimit:4;stroke-dasharray:none;stroke-opacity:1" transform="matrix(1.33333 0 0 -1.33333 -385.14 355.51)"/><path d="M416.362 228.452c.074-.057.11-.205.096-.437 0-.134.01-.238.016-.303.022-.129.05-.24.09-.339l3.884-9.515 5.44 2.278.652-1.608-5.432-2.278 5.16-12.62-1.445-.606-10.157 24.857.945.396c.388.164.639.224.751.175" style="fill:#fff;fill-opacity:1;fill-rule:nonzero;stroke:none;stroke-width:2.73098" transform="matrix(1.33333 0 0 -1.33333 -385.14 355.51)"/><path d="M416.362 228.452c.074-.057.11-.205.096-.437 0-.134.01-.238.016-.303.022-.129.05-.24.09-.339l3.884-9.515 5.44 2.278.652-1.608-5.432-2.278 5.16-12.62-1.445-.606-10.157 24.857.945.396c.388.164.639.224.751.175z" style="fill:none;stroke:#fff;stroke-width:2.73098;stroke-linecap:butt;stroke-linejoin:miter;stroke-miterlimit:4;stroke-dasharray:none;stroke-opacity:1" transform="matrix(1.33333 0 0 -1.33333 -385.14 355.51)"/><path d="m445.277 231.76 2.03-7.716-12.612-3.4 1.409-5.36 13.084 3.53.442-1.685-14.594-3.938-2.294 8.726 12.614 3.405-1.147 4.345-12.608-3.405-.448 1.685z" style="fill:#fff;fill-opacity:1;fill-rule:nonzero;stroke:none;stroke-width:2.73098" transform="matrix(1.33333 0 0 -1.33333 -385.14 355.51)"/><path d="m445.277 231.76 2.03-7.716-12.612-3.4 1.409-5.36 13.084 3.53.442-1.685-14.594-3.938-2.294 8.726 12.614 3.405-1.147 4.345-12.608-3.405-.448 1.685z" style="fill:none;stroke:#fff;stroke-width:2.73098;stroke-linecap:butt;stroke-linejoin:miter;stroke-miterlimit:4;stroke-dasharray:none;stroke-opacity:1" transform="matrix(1.33333 0 0 -1.33333 -385.14 355.51)"/><path d="M457.844 239.67c.057-.074.057-.227-.016-.448-.038-.132-.052-.233-.063-.293a1.512 1.512 0 0 1-.005-.352l1.294-10.217 5.837.76.218-1.73-5.836-.756 1.729-13.542-1.552-.205-3.391 26.679 1.018.136c.42.052.672.041.768-.033" style="fill:#fff;fill-opacity:1;fill-rule:nonzero;stroke:none;stroke-width:2.73098" transform="matrix(1.33333 0 0 -1.33333 -385.14 355.51)"/><path d="M457.844 239.67c.057-.074.057-.227-.016-.448-.038-.132-.052-.233-.063-.293a1.512 1.512 0 0 1-.005-.352l1.294-10.217 5.837.76.218-1.73-5.836-.756 1.729-13.542-1.552-.205-3.391 26.679 1.018.136c.42.052.672.041.768-.033z" style="fill:none;stroke:#fff;stroke-width:2.73098;stroke-linecap:butt;stroke-linejoin:miter;stroke-miterlimit:4;stroke-dasharray:none;stroke-opacity:1" transform="matrix(1.33333 0 0 -1.33333 -385.14 355.51)"/><path d="M476.94 234.597c-1.082-1.36-1.644-3.09-1.68-5.181-.033-2.046.47-3.769 1.508-5.167 1.152-1.524 2.747-2.3 4.782-2.338 2.004-.03 3.61.691 4.814 2.174 1.1 1.363 1.672 3.064 1.702 5.11.032 2.07-.476 3.818-1.535 5.238-1.153 1.576-2.731 2.381-4.744 2.411-2.026.036-3.643-.713-4.847-2.247m10.98 1.218c1.358-1.795 2.014-4.001 1.97-6.612-.041-2.564-.773-4.706-2.185-6.431-1.526-1.92-3.597-2.86-6.194-2.816-2.619.038-4.661 1.049-6.128 3.023-1.338 1.772-1.985 3.938-1.942 6.503.041 2.613.762 4.79 2.155 6.54 1.53 1.898 3.605 2.827 6.224 2.783 2.597-.046 4.632-1.04 6.1-2.99" style="fill:#fff;fill-opacity:1;fill-rule:nonzero;stroke:none;stroke-width:2.73098" transform="matrix(1.33333 0 0 -1.33333 -385.14 355.51)"/><path d="M476.94 234.597c-1.082-1.36-1.644-3.09-1.68-5.181-.033-2.046.47-3.769 1.508-5.167 1.152-1.524 2.747-2.3 4.782-2.338 2.004-.03 3.61.691 4.814 2.174 1.1 1.363 1.672 3.064 1.702 5.11.032 2.07-.476 3.818-1.535 5.238-1.153 1.576-2.731 2.381-4.744 2.411-2.026.036-3.643-.713-4.847-2.247zm10.98 1.218c1.358-1.795 2.014-4.001 1.97-6.612-.041-2.564-.773-4.706-2.185-6.431-1.526-1.92-3.597-2.86-6.194-2.816-2.619.038-4.661 1.049-6.128 3.023-1.338 1.772-1.985 3.938-1.942 6.503.041 2.613.762 4.79 2.155 6.54 1.53 1.898 3.605 2.827 6.224 2.783 2.597-.046 4.632-1.04 6.1-2.99z" style="fill:none;stroke:#fff;stroke-width:2.73098;stroke-linecap:butt;stroke-linejoin:miter;stroke-miterlimit:4;stroke-dasharray:none;stroke-opacity:1" transform="matrix(1.33333 0 0 -1.33333 -385.14 355.51)"/><path d="m513.91 231.578-.285-1.718-7.578 1.289-.096-.595c-.33-1.978.074-4.242 1.22-6.79 1.222-2.698 2.877-4.757 4.982-6.182l-1.428-1.303c-1.42 1.016-2.693 2.439-3.84 4.288-1.237 1.963-2.024 3.954-2.349 5.956-1.035-1.773-2.518-3.39-4.448-4.861-1.808-1.36-3.499-2.24-5.066-2.638l-.902 1.695c.918.186 1.937.58 3.04 1.183a18.15 18.15 0 0 1 3.176 2.289 14.61 14.61 0 0 1 2.644 3.083c.778 1.193 1.259 2.373 1.453 3.54l.098.594-7.628 1.306.29 1.718z" style="fill:#fff;fill-opacity:1;fill-rule:nonzero;stroke:none;stroke-width:2.73098" transform="matrix(1.33333 0 0 -1.33333 -385.14 355.51)"/><path d="m513.91 231.578-.285-1.718-7.578 1.289-.096-.595c-.33-1.978.074-4.242 1.22-6.79 1.222-2.698 2.877-4.757 4.982-6.182l-1.428-1.303c-1.42 1.016-2.693 2.439-3.84 4.288-1.237 1.963-2.024 3.954-2.349 5.956-1.035-1.773-2.518-3.39-4.448-4.861-1.808-1.36-3.499-2.24-5.066-2.638l-.902 1.695c.918.186 1.937.58 3.04 1.183a18.15 18.15 0 0 1 3.176 2.289 14.61 14.61 0 0 1 2.644 3.083c.778 1.193 1.259 2.373 1.453 3.54l.098.594-7.628 1.306.29 1.718z" style="fill:none;stroke:#fff;stroke-width:2.73098;stroke-linecap:butt;stroke-linejoin:miter;stroke-miterlimit:4;stroke-dasharray:none;stroke-opacity:1" transform="matrix(1.33333 0 0 -1.33333 -385.14 355.51)"/><path d="M528.22 233.196c.005-.09-.063-.229-.197-.401a1.184 1.184 0 0 1-.166-.216 1.065 1.065 0 0 1-.145-.29l-7.412-24.338-1.488.467 7.846 25.762 1.158-.56c.254-.167.388-.312.404-.424" style="fill:#fff;fill-opacity:1;fill-rule:nonzero;stroke:none;stroke-width:2.73098" transform="matrix(1.33333 0 0 -1.33333 -385.14 355.51)"/><path d="M528.22 233.196c.005-.09-.063-.229-.197-.401a1.184 1.184 0 0 1-.166-.216 1.065 1.065 0 0 1-.145-.29l-7.412-24.338-1.488.467 7.846 25.762 1.158-.56c.254-.167.388-.312.404-.424z" style="fill:none;stroke:#fff;stroke-width:2.73098;stroke-linecap:butt;stroke-linejoin:miter;stroke-miterlimit:4;stroke-dasharray:none;stroke-opacity:1" transform="matrix(1.33333 0 0 -1.33333 -385.14 355.51)"/><path d="M541.096 224.148c.011-.058-.068-.164-.235-.306-.079-.093-.139-.153-.169-.186a.863.863 0 0 1-.177-.254l-5.703-12.306 13.42-6.38-.789-1.712-14.955 7.11 6.94 14.979 1.155-.547c.311-.153.486-.286.513-.398" style="fill:#fff;fill-opacity:1;fill-rule:nonzero;stroke:none;stroke-width:2.73098" transform="matrix(1.33333 0 0 -1.33333 -385.14 355.51)"/><path d="M541.096 224.148c.011-.058-.068-.164-.235-.306-.079-.093-.139-.153-.169-.186a.863.863 0 0 1-.177-.254l-5.703-12.306 13.42-6.38-.789-1.712-14.955 7.11 6.94 14.979 1.155-.547c.311-.153.486-.286.513-.398z" style="fill:none;stroke:#fff;stroke-width:2.73098;stroke-linecap:butt;stroke-linejoin:miter;stroke-miterlimit:4;stroke-dasharray:none;stroke-opacity:1" transform="matrix(1.33333 0 0 -1.33333 -385.14 355.51)"/><path d="m574.641 204.868-4.773-7.174-11.724 8.015-3.313-4.984 12.156-8.307-1.041-1.565-13.562 9.269 5.402 8.108 11.724-8.01 2.684 4.042-11.72 8.004 1.045 1.57z" style="fill:#fff;fill-opacity:1;fill-rule:nonzero;stroke:none;stroke-width:2.73098" transform="matrix(1.33333 0 0 -1.33333 -385.14 355.51)"/><path d="m574.641 204.868-4.773-7.174-11.724 8.015-3.313-4.984 12.156-8.307-1.041-1.565-13.562 9.269 5.402 8.108 11.724-8.01 2.684 4.042-11.72 8.004 1.045 1.57z" style="fill:none;stroke:#fff;stroke-width:2.73098;stroke-linecap:butt;stroke-linejoin:miter;stroke-miterlimit:4;stroke-dasharray:none;stroke-opacity:1" transform="matrix(1.33333 0 0 -1.33333 -385.14 355.51)"/><path d="M588.403 198.305c-.033-.085-.15-.175-.347-.284a1.62 1.62 0 0 1-.24-.12 1.047 1.047 0 0 1-.246-.208l-16.716-19.027-1.17 1.046 17.703 20.141.825-.991c.158-.26.224-.445.19-.557" style="fill:#fff;fill-opacity:1;fill-rule:nonzero;stroke:none;stroke-width:2.73098" transform="matrix(1.33333 0 0 -1.33333 -385.14 355.51)"/><path d="M588.403 198.305c-.033-.085-.15-.175-.347-.284a1.62 1.62 0 0 1-.24-.12 1.047 1.047 0 0 1-.246-.208l-16.716-19.027-1.17 1.046 17.703 20.141.825-.991c.158-.26.224-.445.19-.557z" style="fill:none;stroke:#fff;stroke-width:2.73098;stroke-linecap:butt;stroke-linejoin:miter;stroke-miterlimit:4;stroke-dasharray:none;stroke-opacity:1" transform="matrix(1.33333 0 0 -1.33333 -385.14 355.51)"/><path d="m606.095 176.436-1.275-1.076-5.495 6.693 1.276 1.07zm-.778-7.101-1.354-1.141-5.345 6.505-.437-.372c-1.617-1.362-2.545-3.403-2.791-6.112-.251-2.553.145-4.981 1.174-7.272l-2.064-.066c-.768 1.797-1.104 3.81-1.003 6.055.123 2.24.656 4.21 1.584 5.901-1.84-.652-4.011-.78-6.502-.401-2.321.393-4.113 1.076-5.383 2.045l.443 2.087c.726-.6 1.66-1.125 2.802-1.579a14.208 14.208 0 0 1 3.643-.898c1.37-.172 2.646-.126 3.823.123 1.292.251 2.362.737 3.212 1.453l.415.355-5.356 6.519 1.355 1.141z" style="fill:#fff;fill-opacity:1;fill-rule:nonzero;stroke:none;stroke-width:2.73098" transform="matrix(1.33333 0 0 -1.33333 -385.14 355.51)"/><path d="m606.095 176.436-1.275-1.076-5.495 6.693 1.276 1.07zm-.778-7.101-1.354-1.141-5.345 6.505-.437-.372c-1.617-1.362-2.545-3.403-2.791-6.112-.251-2.553.145-4.981 1.174-7.272l-2.064-.066c-.768 1.797-1.104 3.81-1.003 6.055.123 2.24.656 4.21 1.584 5.901-1.84-.652-4.011-.78-6.502-.401-2.321.393-4.113 1.076-5.383 2.045l.443 2.087c.726-.6 1.66-1.125 2.802-1.579a14.208 14.208 0 0 1 3.643-.898c1.37-.172 2.646-.126 3.823.123 1.292.251 2.362.737 3.212 1.453l.415.355-5.356 6.519 1.355 1.141z" style="fill:none;stroke:#fff;stroke-width:2.73098;stroke-linecap:butt;stroke-linejoin:miter;stroke-miterlimit:4;stroke-dasharray:none;stroke-opacity:1" transform="matrix(1.33333 0 0 -1.33333 -385.14 355.51)"/><path d="M617.75 163.277c-.044-.088-.18-.148-.41-.172-.128-.025-.223-.052-.289-.069a1.746 1.746 0 0 1-.32-.144l-8.613-5.468 3.119-5.044-1.456-.928-3.121 5.05-11.421-7.252-.83 1.339 22.503 14.283.546-.877c.224-.366.32-.606.292-.718" style="fill:#fff;fill-opacity:1;fill-rule:nonzero;stroke:none;stroke-width:2.73098" transform="matrix(1.33333 0 0 -1.33333 -385.14 355.51)"/><path d="M617.75 163.277c-.044-.088-.18-.148-.41-.172-.128-.025-.223-.052-.289-.069a1.746 1.746 0 0 1-.32-.144l-8.613-5.468 3.119-5.044-1.456-.928-3.121 5.05-11.421-7.252-.83 1.339 22.503 14.283.546-.877c.224-.366.32-.606.292-.718z" style="fill:none;stroke:#fff;stroke-width:2.73098;stroke-linecap:butt;stroke-linejoin:miter;stroke-miterlimit:4;stroke-dasharray:none;stroke-opacity:1" transform="matrix(1.33333 0 0 -1.33333 -385.14 355.51)"/><path d="M621.185 143.578c-1.668.432-3.457.23-5.35-.617-1.851-.816-3.184-1.996-4.006-3.536-.885-1.696-.923-3.485-.107-5.367.809-1.868 2.122-3.048 3.958-3.53 1.682-.449 3.446-.269 5.298.553 1.87.833 3.222 2.032 4.063 3.6.929 1.718.992 3.501.183 5.372-.816 1.881-2.16 3.061-4.039 3.525m5.675-9.604c-1.051-1.997-2.758-3.518-5.115-4.564-2.324-1.03-4.544-1.253-6.683-.674-2.362.611-4.069 2.122-5.11 4.536-1.056 2.425-.999 4.727.159 6.898 1.03 1.975 2.706 3.468 5.025 4.498 2.362 1.049 4.62 1.3 6.776.74 2.34-.617 4.03-2.138 5.087-4.571 1.04-2.412.997-4.698-.139-6.863" style="fill:#fff;fill-opacity:1;fill-rule:nonzero;stroke:none;stroke-width:2.73098" transform="matrix(1.33333 0 0 -1.33333 -385.14 355.51)"/><path d="M621.185 143.578c-1.668.432-3.457.23-5.35-.617-1.851-.816-3.184-1.996-4.006-3.536-.885-1.696-.923-3.485-.107-5.367.809-1.868 2.122-3.048 3.958-3.53 1.682-.449 3.446-.269 5.298.553 1.87.833 3.222 2.032 4.063 3.6.929 1.718.992 3.501.183 5.372-.816 1.881-2.16 3.061-4.039 3.525zm5.675-9.604c-1.051-1.997-2.758-3.518-5.115-4.564-2.324-1.03-4.544-1.253-6.683-.674-2.362.611-4.069 2.122-5.11 4.536-1.056 2.425-.999 4.727.16 6.898 1.029 1.975 2.705 3.468 5.024 4.498 2.362 1.049 4.62 1.3 6.776.74 2.34-.617 4.03-2.138 5.087-4.571 1.04-2.412.997-4.698-.139-6.863z" style="fill:none;stroke:#fff;stroke-width:2.73098;stroke-linecap:butt;stroke-linejoin:miter;stroke-miterlimit:4;stroke-dasharray:none;stroke-opacity:1" transform="matrix(1.33333 0 0 -1.33333 -385.14 355.51)"/><path d="m635.379 108.85-1.797-.5-2.199 8.132-.617-.17c-2.073-.573-4.088-2.006-6.038-4.309-2.06-2.433-3.307-5.03-3.741-7.772l-1.91.828c.342 1.87 1.142 3.796 2.412 5.778 1.35 2.125 2.917 3.81 4.722 5.044-2.198.23-4.443.97-6.748 2.22-2.144 1.18-3.772 2.461-4.864 3.843l1.237 1.674c.595-.833 1.44-1.663 2.529-2.49a19.59 19.59 0 0 1 3.662-2.122c1.415-.631 2.813-1.04 4.192-1.227 1.516-.229 2.881-.177 4.108.164l.62.172-2.21 8.185 1.8.494z" style="fill:#fff;fill-opacity:1;fill-rule:nonzero;stroke:none;stroke-width:2.73098" transform="matrix(1.33333 0 0 -1.33333 -385.14 355.51)"/><path d="m635.379 108.85-1.797-.5-2.199 8.132-.617-.17c-2.073-.573-4.088-2.006-6.038-4.309-2.06-2.433-3.307-5.03-3.741-7.772l-1.91.828c.342 1.87 1.142 3.796 2.412 5.778 1.35 2.125 2.917 3.81 4.722 5.044-2.198.23-4.443.97-6.748 2.22-2.144 1.18-3.772 2.461-4.864 3.843l1.237 1.674c.595-.833 1.44-1.663 2.529-2.49a19.59 19.59 0 0 1 3.662-2.122c1.415-.631 2.813-1.04 4.192-1.227 1.516-.229 2.881-.177 4.108.164l.62.172-2.21 8.185 1.8.494z" style="fill:none;stroke:#fff;stroke-width:2.73098;stroke-linecap:butt;stroke-linejoin:miter;stroke-miterlimit:4;stroke-dasharray:none;stroke-opacity:1" transform="matrix(1.33333 0 0 -1.33333 -385.14 355.51)"/><path d="m623.319 95.512 11.904 1.589.156-1.147c.049-.38.024-.598-.074-.66-.06-.04-.205-.034-.442.016-.107.035-.2.057-.262.062a.998.998 0 0 1-.29.017l-10.79-1.445 1.243-9.528-1.707-.227-2.693 20.673 1.707.23z" style="fill:#fff;fill-opacity:1;fill-rule:nonzero;stroke:none;stroke-width:2.73098" transform="matrix(1.33333 0 0 -1.33333 -385.14 355.51)"/><path d="m623.319 95.512 11.904 1.589.156-1.147c.049-.38.024-.598-.074-.66-.06-.04-.205-.034-.442.016-.107.035-.2.057-.262.062a.998.998 0 0 1-.29.017l-10.79-1.445 1.243-9.528-1.707-.227-2.693 20.673 1.707.23z" style="fill:none;stroke:#fff;stroke-width:2.73098;stroke-linecap:butt;stroke-linejoin:miter;stroke-miterlimit:4;stroke-dasharray:none;stroke-opacity:1" transform="matrix(1.33333 0 0 -1.33333 -385.14 355.51)"/><path d="M606.325 79.34c0-70.72-57.334-128.042-128.058-128.042C407.54-48.702 350.2 8.62 350.2 79.339c0 70.713 57.34 128.045 128.067 128.045 70.724 0 128.058-57.332 128.058-128.045" style="fill:#fff;fill-opacity:1;fill-rule:nonzero;stroke:none;stroke-width:2.73098" transform="matrix(1.33333 0 0 -1.33333 -385.14 355.51)"/><path d="M605.12 78.944c0-70.396-57.067-127.454-127.466-127.454-70.386 0-127.455 57.058-127.455 127.454 0 70.391 57.07 127.463 127.455 127.463 70.399 0 127.465-57.072 127.465-127.463" style="fill:#fff;fill-opacity:1;fill-rule:nonzero;stroke:none;stroke-width:2.73098" transform="matrix(1.33333 0 0 -1.33333 -385.14 355.51)"/><path d="M477.094 9.785c15.2-.202 31.25.844 43.93 2.657 48.89 6.991 49.254 19.666 49.254 19.666 4.517 15.675-32.024 16.631-34.552 17.527 10.992-3.894 13.414-4.987 15.066-5.757 16.829-7.696-11.524-15.498-11.524-15.498-14.778-3.895-39.862-6.473-62.09-6.295h.637c-22.227-.178-47.303 2.4-62.094 6.295 0 0-28.35 7.802-11.514 15.498 1.652.77 4.075 1.863 15.062 5.757-2.53-.896-39.07-1.852-34.547-17.527 0 0 .352-12.675 49.253-19.666 12.669-1.813 28.727-2.86 43.92-2.657z" style="fill:#003876;fill-opacity:1;fill-rule:nonzero;stroke:none;stroke-width:2.73098" transform="matrix(1.33333 0 0 -1.33333 -385.14 355.51)"/><path d="M480.183 90.162c-8.72 0-15.799-7.068-15.799-15.788 0-8.723 7.079-15.804 15.799-15.804 8.736 0 15.793 7.081 15.793 15.804 0 8.72-7.057 15.788-15.793 15.788m6.682 14.272c13.085-3.425 22.76-15.33 22.76-29.506 0-16.833-13.627-30.467-30.477-30.467-16.829 0-30.475 13.634-30.475 30.467 0 14.147 9.624 26.01 22.678 29.47v42.235h-27.37v14.796h42.906z" style="fill:#ed2224;fill-opacity:1;fill-rule:nonzero;stroke:none;stroke-width:2.73098" transform="matrix(1.33333 0 0 -1.33333 -385.14 355.51)"/><path d="M335.622 75.781c0-3.452-2.854-6.273-6.38-6.273-3.492 0-6.34 2.821-6.34 6.273 0 3.499 2.848 6.317 6.34 6.317 3.526 0 6.38-2.818 6.38-6.317M636.237 60.446c0-3.462-2.853-6.278-6.363-6.278-3.504 0-6.352 2.816-6.352 6.278 0 3.493 2.848 6.317 6.352 6.317 3.51 0 6.363-2.824 6.363-6.317M337.116 52.19l1.03-4.269-8.707-2.095.016-.06c.866-.237 1.677-.521 2.483-.803l7.584-2.722 1.286-5.307-9.908 4.277-9.706-9.334-1.21 5 7.366 6.735-2.466 1.117-6.426-1.554-1.03 4.268z" style="fill:#fff;fill-opacity:1;fill-rule:nonzero;stroke:none;stroke-width:2.73098" transform="matrix(1.33333 0 0 -1.33333 -385.14 355.51)"/><path d="m323.445 25.67 7.794 2.826 9.135 9.905 1.734-4.79-3.905-3.515c-1.171-1.07-2.043-1.857-3.124-2.742l.016-.052c1.338.017 2.597-.022 4.154-.076l5.249-.197 1.696-4.678-13.303 2.037-7.941-2.873zM348.386 18.02l-10.37-5.26c-3.132-1.59-4.123-3.558-3.115-5.557 1.051-2.076 3.132-2.453 6.344-.828l10.37 5.26 1.993-3.946-10.124-5.143c-5.574-2.82-9.607-1.439-11.915 3.13-2.231 4.413-.989 8.275 4.746 11.18l10.078 5.11zM337.948-5.513 354.69 5.859l2.906-4.277-3.85-7.538c-1.11-2.16-2.554-4.511-3.936-6.546l.027-.046c2.068 1.723 4.277 3.329 6.811 5.05l4.87 3.307 2.288-3.365-16.743-11.377-2.614 3.845 4.108 7.852c1.136 2.176 2.559 4.732 4 6.827l-.07.101c-2.15-1.641-4.474-3.296-7.21-5.148l-5.042-3.422zM361.582-34.338c-1.264.7-3.476 2.204-5.191 4.14-2.376 2.672-3.4 5.228-3.27 7.751.151 2.504 1.467 4.998 3.693 6.964 5.052 4.443 11.074 3.447 15.335-1.36 1.68-1.892 2.591-3.69 2.892-4.703l-3.384-1.756c-.33 1.142-.926 2.357-2.357 3.968-2.447 2.759-5.915 3.463-9.217.533-3.146-2.788-3.269-6.32-.852-9.04.656-.737 1.284-1.264 1.625-1.425l3.19 2.83-2.005 2.26 2.671 2.368 4.845-5.462zM374.997-35.196l-2.075-2.215-5.552 5.213 2.075 2.207zM387.073-31.196l-13.03-15.507-3.383 2.843 13.032 15.507zM377.275-49.523l11.596 16.598 4.246-2.965-.917-8.417c-.268-2.423-.784-5.132-1.35-7.521l.047-.03c1.32 2.335 2.813 4.629 4.566 7.141l3.373 4.82 3.337-2.33-11.601-16.598-3.812 2.67 1.04 8.803c.287 2.441.713 5.333 1.31 7.813l-.095.066c-1.43-2.3-3.02-4.673-4.913-7.382l-3.493-5zM401.411-65.03l4.288 20.328 4.3-1.994-2.151-8.171a311.022 311.022 0 0 0-1.925-6.923l.054-.027c1.21 1.854 2.657 3.867 4.165 5.948l4.978 6.794 4.272-1.98-2.16-8.411c-.604-2.33-1.221-4.427-1.904-6.593l.052-.027c1.212 1.92 2.603 3.889 3.995 5.932l4.924 6.816 4.086-1.898-13.1-16.235-4.354 2.02 2.16 8.598c.52 2.018 1.019 3.867 1.786 6.065l-.057.022c-1.275-1.92-2.373-3.531-3.654-5.192l-5.35-7.114zM429.515-65.84c-1.12-3.829-.174-7.013 2.674-7.851 2.879-.833 5.35 1.515 6.453 5.295 1.03 3.517.309 6.983-2.619 7.832-2.908.847-5.404-1.493-6.508-5.276m13.666-3.722c-1.873-6.407-6.704-9.154-12.232-7.543-5.557 1.617-7.578 6.928-5.956 12.491 1.701 5.825 6.603 9.122 12.128 7.516 5.782-1.685 7.633-7.073 6.06-12.464M461.733-74.982c.24 2.422.554 5.344.955 8.26l-.06.012a128.5 128.5 0 0 0-3.252-7.467l-3.441-7.499-3.43.475-1.014 8.016c-.308 2.471-.554 5.41-.682 8.097l-.058.005c-.459-2.698-1-5.77-1.458-8.25l-1.418-7.57-4.069.56L447.8-60.46l5.852-.806.986-6.953c.317-2.406.552-4.99.664-7.398l.112-.016c.836 2.25 1.865 4.803 2.837 6.945l2.96 6.39 5.766-.795-1.712-20.2-4.269.586zM481.281-74.833l-7.212.112-.08-4.807 8.054-.122-.062-3.761-12.478.205.338 20.247 12.068-.194-.057-3.755-7.655.123-.068-4.208 7.215-.112zM485.778-83.266l-2.103 20.141 5.143.538 4.822-6.956c1.382-1.999 2.77-4.388 3.906-6.565l.057.005c-.538 2.636-.91 5.345-1.232 8.39l-.609 5.852 4.05.432 2.1-20.141-4.623-.486-4.976 7.33c-1.382 2.032-2.955 4.495-4.13 6.759l-.117-.01c.426-2.68.784-5.512 1.126-8.797l.633-6.066zM506.991-59.3c-.325-3.035-.991-6.167-1.873-8.636l-2.576-.767c.364 2.698.555 5.675.448 8.346zM512.042-74.726c1.292-.303 3.247-.432 5.072.057 1.969.524 2.785 1.65 2.438 2.925-.325 1.22-1.414 1.674-3.905 1.876-3.455.317-6.022 1.56-6.78 4.397-.9 3.332 1.149 6.587 5.587 7.78 2.16.582 3.823.56 5.093.317v-3.804a8.836 8.836 0 0 1-4.181-.123c-1.857-.497-2.513-1.638-2.245-2.624.33-1.248 1.518-1.521 4.244-1.814 3.687-.38 5.719-1.761 6.459-4.511.876-3.28-.79-6.71-5.984-8.114-2.166-.576-4.465-.543-5.691-.224zM530.178-52.686l4.661-10.657c1.41-3.222 3.318-4.326 5.372-3.43 2.133.929 2.636 2.982 1.188 6.284l-4.662 10.662 4.056 1.77 4.55-10.41c2.507-5.73.9-9.682-3.794-11.725-4.533-1.98-8.32-.513-10.896 5.386l-4.528 10.355zM553.087-64.458l-10.416 17.36 4.435 2.663 7.303-4.266c2.097-1.234 4.364-2.812 6.316-4.306l.047.027c-1.598 2.16-3.08 4.46-4.662 7.084l-3.029 5.05 3.488 2.097 10.424-17.355-3.99-2.395-7.606 4.539c-2.108 1.253-4.577 2.82-6.592 4.377l-.101-.057c1.513-2.242 3.034-4.662 4.735-7.488l3.135-5.233zM562.058-34.567l11.938-16.342-3.573-2.605-11.94 16.344zM580.86-45.47l-18.002 11.197 3.67 3.185 7.41-4.919c2.094-1.398 4.052-2.725 6.054-4.331l.069.057a90.797 90.797 0 0 0-3.346 6.574l-3.774 8.176 3.556 3.084 8.274-19.63zM593.262-21.355l-4.913-5.287 3.52-3.269 5.484 5.91 2.753-2.548-8.496-9.154-14.824 13.761 8.215 8.854 2.744-2.554-5.205-5.606 3.083-2.86 4.908 5.288zM596.046-13.503l1.052 1.393c1.324 1.77 1.193 3.498-.224 4.566-1.467 1.098-2.966.699-4.187-.929-.653-.86-.967-1.387-1.09-1.696zm-9.613 1.712c.67 1.292 1.784 3.067 3.212 4.981 1.745 2.327 3.329 3.682 5.085 4.113 1.483.374 3.018.022 4.511-1.098 2.043-1.532 2.396-4.017 1.888-5.746l.076-.051c1.273.75 2.788.56 4.572-.162 2.223-.9 4.686-2.026 5.535-2.193l-2.72-3.626c-.655.128-2.25.704-4.577 1.761-2.378 1.093-3.413.817-4.539-.636l-.783-1.046 6.374-4.78-2.641-3.509zM608.917-6.846c1.142.677 2.635 1.947 3.605 3.574 1.046 1.743.85 3.114-.287 3.796-1.084.648-2.182.219-4.113-1.37-2.698-2.188-5.404-3.073-7.93-1.563-2.966 1.77-3.761 5.536-1.41 9.48 1.153 1.925 2.357 3.066 3.447 3.771l2.64-2.725a8.967 8.967 0 0 1-2.919-3.01c-.98-1.65-.66-2.917.219-3.446 1.111-.661 2.15-.03 4.315 1.655 2.908 2.299 5.33 2.709 7.778 1.248 2.916-1.746 4.112-5.372 1.349-9.988-1.147-1.93-2.821-3.498-3.93-4.12zM604.709 17.476l18.12-9.048-1.98-3.951-18.115 9.047ZM610.864 21.775l-1.994-4.902-3.564 1.45 5.675 13.945 3.564-1.445-2.018-4.957 15.198-6.188-1.666-4.091z" style="fill:#fff;fill-opacity:1;fill-rule:nonzero;stroke:none;stroke-width:2.73098" transform="matrix(1.33333 0 0 -1.33333 -385.14 355.51)"/><path d="m632.024 32.102-7.97 2.267-13.19-2.693 1.393 4.897 5.222.57c1.578.186 2.742.309 4.137.399l.017.055c-1.093.762-2.095 1.529-3.319 2.485l-4.137 3.228 1.36 4.782 9.58-9.436 8.117-2.302z" style="fill:#fff;fill-opacity:1;fill-rule:nonzero;stroke:none;stroke-width:2.73098" transform="matrix(1.33333 0 0 -1.33333 -385.14 355.51)"/></svg>