<svg xmlns="http://www.w3.org/2000/svg" xml:space="preserve" width="800" height="389.504" viewBox="0 0 800.00001 389.50399"><defs><clipPath id="a" clipPathUnits="userSpaceOnUse"><path d="M0 841.89h595.28V0H0Z"/></clipPath></defs><g clip-path="url(#a)" transform="matrix(2.15793 0 0 -2.15793 -261.33 1101.165)"><path d="m0 0-29.191-33.294v13.129H-38.766l-.052-.06-.047.06h-16.398c-5.448 6.458-6.399 7.645-7.37 8.759-1.199 1.424-1.833 3.419-1.579 5.243.259 1.758.922 3.04 2.482 4.949l16.873 20.343a5.777 5.777 0 0 1-.141-1.214c0-2.342 2.396-4.846 4.484-7.333 0 0 10.593-12.619 10.832-12.909 1.22-1.45 2.186-2.622 2.051-4.828l17.977 20.572c4.752-1.434 8.435-2.529 9.654-2.835Zm-38.439-20.208h.116l-.069-.051zm6.683-16.541c0-2.224-5.328-3.7-5.824-8.894-.509-5.161-3.817-40.32-3.817-40.32-.134-1.037-.984-2.641-2.851-2.641-1.849 0-2.919 1.129-3.192 2.641 0 0-3.376 35.083-3.837 40.32-.404 5.203-5.804 6.67-5.804 8.894v14.182H-31.756zM-74.75-81.61c-3.938 1.578-7.159 3.699-7.793 6.568-.135.374-.188.731-.116 1.01v8.395l24.593 25.044c1.886-1.349 3.279-2.377 3.546-4.567.021-.05.04-.212.04-.212s.726-5.517 1.575-14.003zm80.2 96.301c-1.014.262-50.106 12.781-50.429 12.858-.354-.077-49.442-12.596-50.46-12.858v-17.56c5.823-2.775 9.079-8.614 9.079-11.737v-61.072c0-6.287 6.4-10.973 19.027-13.961 3.817-.883 16.397-4.244 22.354-9.998 5.926 5.754 18.5 9.115 22.322 9.998C-10.044-86.651-3.63-81.965-3.63-75.678v61.072c0 3.114 3.26 8.962 9.08 11.737z" style="fill:#024ea2;fill-opacity:1;fill-rule:nonzero;stroke:none" transform="translate(350.925 474.61)"/><path d="m0 0-2.786-2.961-.34-.417-.341.417-13.799 16.446c-2.204 2.622-1.963 5.577-.508 7.376 1.137 1.426 2.871 3.591 2.871 3.591-.75-1.224-.938-3.124.148-4.423.783-.967 14.567-17.254 14.567-17.254C.494 2.028.576.721 0 0m2.866 2.97c.135 2.207-.831 3.379-2.051 4.829-.239.289-10.832 12.908-10.832 12.908-2.087 2.488-4.484 4.991-4.484 7.334 0 .407.054.806.141 1.214L-31.233 8.911c-1.56-1.908-2.223-3.191-2.482-4.948-.254-1.824.38-3.82 1.579-5.243.971-1.115 1.922-2.302 7.37-8.76h5.552c-3.362 3.998-7.25 8.666-8.455 10.066-2.21 2.63-1.951 5.584-.525 7.391a553.53 553.53 0 0 1 2.883 3.565c-.732-1.213-.914-3.106.152-4.396.697-.866 11.494-13.629 14.053-16.626h2.738l-.289.356S-20.271 4.134-22.476 6.747c-2.189 2.622-1.949 5.593-.508 7.384a365.03 365.03 0 0 0 2.885 3.59c-.749-1.231-.935-3.106.135-4.422.797-.959 14.581-17.254 14.581-17.254.677-.755.764-2.054.188-2.767l-2.786-2.962-.287-.356h9.574v-13.128l29.191 33.293v10.582c-1.219.307-4.902 1.401-9.654 2.835z" style="fill:#fff;fill-opacity:1;fill-rule:nonzero;stroke:none" transform="translate(320.428 464.484)"/><path d="m0 0 .053.06h-.1z" style="fill:#fff;fill-opacity:1;fill-rule:nonzero;stroke:none" transform="translate(312.106 454.385)"/><path d="M0 0c-1.086 1.298-.898 3.199-.148 4.422 0 0-1.734-2.164-2.872-3.59-1.455-1.799-1.695-4.754.509-7.376 2.208-2.63 13.799-16.447 13.799-16.447l.341-.416.34.416 2.786 2.962c.576.721.494 2.028-.189 2.775C14.566-17.254.783-.967 0 0" style="fill:#e13a3e;fill-opacity:1;fill-rule:nonzero;stroke:none" transform="translate(305.673 484.514)"/><path d="M0 0c.576.713.489 2.012-.187 2.768 0 0-13.785 16.294-14.581 17.253-1.071 1.316-.884 3.191-.135 4.422 0 0-1.748-2.147-2.886-3.59-1.44-1.791-1.681-4.762.509-7.384 2.205-2.613 13.818-16.43 13.818-16.43l.289-.357h.1l.287.357z" style="fill:#e13a3e;fill-opacity:1;fill-rule:nonzero;stroke:none" transform="translate(315.232 457.762)"/><path d="M0 0s-1.715-2.139-2.883-3.565c-1.426-1.807-1.684-4.762.526-7.391 1.205-1.4 5.092-6.068 8.455-10.066h8.107C11.646-18.026.85-5.262.152-4.397-.913-3.106-.731-1.214 0 0" style="fill:#e13a3e;fill-opacity:1;fill-rule:nonzero;stroke:none" transform="translate(295.116 475.467)"/><path d="m0 0 .048-.05.068.05Z" style="fill:#e13a3e;fill-opacity:1;fill-rule:nonzero;stroke:none" transform="translate(312.485 454.401)"/><path d="M0 0c0-1.043-.662-1.74-1.389-2.487-.973-.993-3.072-2.13-3.263-4.278-.371-4.115-3.207-40.863-3.328-42.144l-.048-.69c-.105-1.119-.201-2.052-.883-2.052-.696 0-.917.644-1.07 2.052l-.068.69c-.115 1.281-2.953 37.97-3.308 42.144-.188 2.148-2.309 3.285-3.26 4.278-.73.747-1.412 1.444-1.412 2.487v8.928H0Zm-10.779 12.424h-10.898V-1.758c0-2.223 5.401-3.691 5.804-8.893.461-5.237 3.837-40.321 3.837-40.321.273-1.511 1.344-2.64 3.192-2.64 1.867 0 2.717 1.603 2.852 2.64 0 0 3.307 35.16 3.816 40.321.496 5.194 5.824 6.67 5.824 8.893v14.182H-7.245Z" style="fill:#fff;fill-opacity:1;fill-rule:nonzero;stroke:none" transform="translate(315.52 439.618)"/><path d="M0 0c0-1.043.683-1.74 1.412-2.487.951-.993 3.072-2.13 3.26-4.278.355-4.174 3.193-40.863 3.308-42.144l.068-.69c.153-1.408.374-2.052 1.07-2.052.683 0 .778.933.883 2.052l.048.69c.121 1.281 2.958 38.029 3.328 42.144.191 2.148 2.29 3.285 3.264 4.278.726.747 1.388 1.444 1.388 2.487v8.928H0Z" style="fill:#e13a3e;fill-opacity:1;fill-rule:nonzero;stroke:none" transform="translate(297.491 439.618)"/><path d="M0 0c-.268 2.19-1.66 3.217-3.547 4.566l-24.592-25.044v-8.394c-.073-.279-.019-.637.116-1.01.633-2.869 3.854-4.99 7.793-6.568L1.614-14.216C.766-5.729.039-.212.039-.212S.021-.05 0 0" style="fill:#fff;fill-opacity:1;fill-rule:nonzero;stroke:none" transform="translate(296.405 429.45)"/><path d="m0 0-29.191-33.294v13.129H-38.766l-.052-.06-.047.06h-16.398c-5.448 6.458-6.399 7.645-7.37 8.759-1.199 1.424-1.833 3.419-1.579 5.243.259 1.758.922 3.04 2.482 4.949l16.873 20.343a5.764 5.764 0 0 1-.141-1.206c0-2.35 2.396-4.854 4.484-7.341 0 0 10.593-12.619 10.832-12.909 1.22-1.45 2.186-2.622 2.051-4.828l17.977 20.572c4.752-1.434 8.435-2.529 9.654-2.835Z" style="fill:#fff;fill-opacity:1;fill-rule:nonzero;stroke:none" transform="translate(350.925 474.61)"/><path d="M0 0s-1.733-2.165-2.871-3.59c-1.455-1.791-1.695-4.755.509-7.377 2.208-2.63 13.798-16.446 13.798-16.446l.341-.417.34.417 2.786 2.961c.576.722.494 2.028-.188 2.776 0 0-13.783 16.295-14.58 17.254C-.937-3.114-.75-1.223 0 0" style="fill:#e13a3e;fill-opacity:1;fill-rule:nonzero;stroke:none" transform="translate(305.524 488.936)"/><path d="M0 0c.576.713.476 2.012-.187 2.768 0 0-13.785 16.294-14.581 17.262-1.071 1.307-.884 3.182-.135 4.413 0 0-1.748-2.147-2.886-3.59-1.44-1.791-1.681-4.762.509-7.384 2.205-2.613 13.818-16.43 13.818-16.43l.289-.357h.1l.287.357z" style="fill:#e13a3e;fill-opacity:1;fill-rule:nonzero;stroke:none" transform="translate(315.232 457.762)"/><path d="M0 0s-1.715-2.139-2.883-3.565c-1.426-1.807-1.684-4.762.526-7.391 1.205-1.4 5.092-6.068 8.455-10.066h8.094C11.646-18.026.85-5.262.152-4.397-.913-3.106-.731-1.214 0 0" style="fill:#e13a3e;fill-opacity:1;fill-rule:nonzero;stroke:none" transform="translate(295.116 475.467)"/><path d="m0 0-6.789-.017 1.935 3.37H0Zm0 11.085v-5.73l-3.716-.016 1.512 2.665c0 2.054-1.306 1.74-1.306 1.74h-8.215l-1.393-2.098 7.822.018-8.502-15.116-1.83-.772h4.138l3.568 6.23L0-2.002v-8.673l2.65-.009v22.32l-3.783-.017z" style="fill:#fff;fill-opacity:1;fill-rule:nonzero;stroke:none" transform="translate(282.147 446.687)"/><path d="m0 0 1.152-.534v-21.769h2.65V.017z" style="fill:#fff;fill-opacity:1;fill-rule:nonzero;stroke:none" transform="translate(285.902 458.306)"/><path d="m0 0 .018 2.563h3.769V-.009zm-2.9-1.214h-9.05v4.702l9.064-.017Zm5.464 8.666 1.239-.603V4.736l-3.785.007v.986h-16.112l1.262-.67v-8.403L0-3.386v1.205l3.787-.017v-1.791l2.9-.016.02 11.457z" style="fill:#fff;fill-opacity:1;fill-rule:nonzero;stroke:none" transform="translate(336.925 430.766)"/><path d="M0 0c-.373-1.747-2.65-2.503-5.055-1.655-2.43.848-4.043 2.961-3.67 4.727.39 1.765 2.647 2.495 5.062 1.672C-1.258 3.879.395 1.765 0 0m-4.398 7.265c-4.426.008-8.008-2.555-8.008-5.721 0-3.164 3.562-5.744 7.994-5.762C0-4.227 3.602-1.655 3.602 1.503c.013 3.165-3.588 5.745-8 5.762" style="fill:#fff;fill-opacity:1;fill-rule:nonzero;stroke:none" transform="translate(338.384 418.927)"/><path d="m0 0 .187.178c.869.832 2.191 2.052 4.312 1.969l.528-.018-.475.281c-2.699 1.705-5.517 0-6.367-.79C-3.106.415-5.718-2.716-5.718-8.402c0-1.197.12-2.495.354-3.905 1.005-5.38 3.242-8.673 7.793-11.397.999-.603 2.123-1.044 3.328-1.512 3.442-1.323 6.996-2.698 6.996-8.095 0-.824-.072-1.749-.241-2.784l-.087-.383.294.238c1.713 1.469 2.832 4.253 2.626 6.451-.505 5.143-4.868 6.788-8.724 8.232l-1.628.629c-4.11 1.636-6.827 5.006-7.658 9.505C-3.97-4.311-.951-.884 0 0" style="fill:#024ea2;fill-opacity:1;fill-rule:nonzero;stroke:none" transform="translate(209.874 467.532)"/><path d="M0 0c-.167-.084-.302-.254-.235-.45.101-.229.408-.237.408-.237l4.445-.187s.222-.034.327.11c.062.119.029.204-.038.324-.289.635-.643 1.815-.456 2.291C4.566 2.19 1.718.841 0 0" style="fill:#024ea2;fill-opacity:1;fill-rule:nonzero;stroke:none" transform="translate(219.073 468.15)"/><path d="M0 0c1.209.468 2.328.909 3.327 1.512 4.532 2.723 6.794 6.017 7.773 11.397.259 1.409.359 2.708.359 3.904 0 5.687-2.615 8.818-3.889 10.023-.849.79-3.663 2.495-6.38.79l-.457-.281.525.018c2.102.083 3.432-1.137 4.31-1.969l.188-.178c.951-.884 3.956-4.311 2.665-11.424C7.59 9.294 4.854 5.924.768 4.288l-1.627-.629c-3.875-1.444-8.215-3.09-8.73-8.232-.221-2.199.904-4.983 2.612-6.451l.288-.238-.063.383a15.204 15.204 0 0 0-.254 2.783C-7.006-2.698-3.463-1.323 0 0" style="fill:#024ea2;fill-opacity:1;fill-rule:nonzero;stroke:none" transform="translate(397.315 442.316)"/><path d="M0 0c.087-.144.308-.11.308-.11l4.46.187s.288.007.393.236c.082.197-.053.366-.221.451-1.732.84-4.565 2.19-4.451 1.85C.663 2.139.308.959.015.323-.034.204-.087.119 0 0" style="fill:#024ea2;fill-opacity:1;fill-rule:nonzero;stroke:none" transform="translate(388.932 467.387)"/><path d="M0 0c-2.799 2.606-10.136 9.599-15.959 15.081v4.634c.139.577 1.209 2.579 3.092 4.014.119.102.268.179.408.272.542-.832 1.104-1.986 1.104-3.115v-.483c0-.306-.019-.603-.019-.875 0-.985.033-1.936.763-2.784.85-1.017 8.863-5.72 13.002-8.113C1.494 6.331.475 3.599 0 0m-4.432-18.247s-7.586-.875-10.149-1.189c-.355-.067-.851-.254-1.358-.518V8.461C-10.236 3.054-2.986-3.861-.154-6.493 0-8.394.289-10.464.797-12.755a3993.178 3993.178 0 0 0-5.229-5.492m-10.351-22.024s2.732 2.938 3.683 3.997c.302.339.864.425.864.425 2.309.213 11.234.992 11.75 1.045.575.041 1.545.067 2.744 1.069 1.465 1.256 6.214 5.677 6.367 5.855a56.144 56.144 0 0 1 1.613-1.017c1.68-1.01 3.328-1.911 5.143-2.717.456-.203.984-.414 1.507-.627l-.71-2.088c-.02 0-.02.01-.02.01-.81-2.285-2.256-6.53-2.592-7.606-.375-1.17-.716-2.308-.595-3.031.268-1.279.849-1.715.849-1.715h-1.921c-6.841 0-8.315-10.904-8.315-12.551h9.439C-8.762-72.013-35.913-79.353-64.755-79.53c-28.855.177-55.997 7.517-79.777 20.308h9.42c0 1.647-1.479 12.551-8.301 12.551h-1.936s.596.436.851 1.715c.134.723-.222 1.861-.577 3.031-.34 1.076-1.8 5.321-2.597 7.606l-.02-.01-.71 2.088c.509.213 1.052.424 1.508.627 1.805.806 3.451 1.707 5.132 2.717.543.332 1.085.662 1.628 1.017.134-.178 4.887-4.599 6.347-5.855 1.205-1.002 2.189-1.028 2.765-1.069.49-.053 9.42-.832 11.731-1.045 0 0 .575-.086.883-.425.931-1.059 3.682-3.997 3.682-3.997.355-.433.764-.755 1.153-1.025.033-1.631.254-3.183.696-4.66 2.295-7.834 10.389-13.445 24.189-16.719-.068.008 6.346-1.783 6.346-1.783 3.276-1.07 6.18-2.301 8.556-3.666 2.968-1.578 5.329-3.233 6.843-4.795 0 0-.039.059-.039.066.207-.246.494-.515.955-1.007l1.239-1.223.033.033.034-.033 1.225 1.223c.456.492.744.761.945 1.007a.578.578 0 0 0-.033-.066c1.526 1.562 3.888 3.217 6.842 4.795 2.396 1.365 5.295 2.596 8.57 3.666 0 0 6.414 1.791 6.332 1.783 13.799 3.274 21.899 8.885 24.19 16.719.437 1.477.677 3.029.691 4.66.407.27.802.592 1.176 1.025m34.742-6.933c-.951.73-.965 1.078-.27 3.394.241.739.543 1.664.866 2.641l2.563 7.398c.321-.109.663-.211.999-.33.32-.109.649-.228.969-.339.034-.016.049-.016.101-.034.121-.05.254-.109.389-.152a26.012 26.012 0 0 0 2.415-1.07 28.372 28.372 0 0 0 2.56-1.434 3.92 3.92 0 0 1 .273-.178c.356-.238.697-.502 1.032-.756.207-.144.408-.271.615-.433l.187-.16c.082-.094.207-.196.287-.299 0 0-.018 0-.018-.006.225-.197.408-.443.614-.654l-1.752-1.444c-.015.018-.029.034-.029.051-1.431-1.213-5.838-4.906-6.117-5.025.26-.262 1.124-1.203 1.124-1.203 1.287-1.19 2.899-3.93 2.899-6.688 0-.357-.033-.73-.08-1.096l-.02-.093H10.322l.049.152c.696 2.988 2.885 4.855 5.248 4.855h2.659s4.874.043 5.517.043c-.322.237-2.311 1.706-3.836 2.86m14.514 1.519c0-.017.014.026.052.086l1.663 1.246c1.103-1.978 2.376-3.716 3.514-5.251 2.496-3.381 4.498-6.104 4.498-9.94 0-1.74-.427-3.717-1.391-6.102 0 0-4.092-6.755-4.125-6.859-2.564-.262-5.739-1.51-7.893-3.555-.543-.55-1.038-1.093-1.461-1.687a4.405 4.405 0 0 1-.287-.4L18.01-59.222h16.291s.293 4.303-.356 7.325c-.677 3.064-1.868 4.429-1.868 4.429.072.028 1.312.967 2.396 1.783m-7.754-38.072c-28.063-14.828-59.551-22.744-91.474-22.916-31.928.172-63.434 8.088-91.493 22.916-.322.17-.657.33-.979.51l.61 1.061 11.182 19.222c24.732-13.121 52.54-20.107 80.68-20.275 28.146.168 55.93 7.154 80.657 20.275l11.187-19.222.629-1.061c-.341-.18-.682-.34-.999-.51m-185.271 5.61c-.1.134-.187.271-.307.4-.422.594-.917 1.137-1.46 1.687-2.141 2.045-5.329 3.293-7.873 3.555-.054.104-4.145 6.859-4.145 6.859-.97 2.385-1.392 4.362-1.392 6.102 0 3.836 2.022 6.559 4.518 9.94 1.133 1.535 2.405 3.273 3.51 5.251l1.666-1.246c.015-.06.048-.103.048-.086 1.09-.816 2.329-1.755 2.396-1.783 0 0-1.205-1.365-1.886-4.429-.645-3.022-.337-7.325-.337-7.325H-147.539zm-3.908 39.191c.092.103.206.205.293.299l.187.16c.182.162.408.289.59.433.361.254.697.518 1.052.756.087.059.192.118.274.178.85.543 1.718 1.026 2.549 1.434.85.424 1.662.773 2.425 1.07.134.043.268.102.389.152.033.018.067.018.086.034.322.111.663.23.966.339.359.119.695.221 1.003.33l2.579-7.398a82.53 82.53 0 0 0 .849-2.641c.71-2.316.677-2.664-.275-3.394-1.526-1.154-3.495-2.623-3.811-2.86.643 0 5.512-.043 5.512-.043h2.65c2.358 0 4.546-1.867 5.258-4.855l.037-.152h-19.252l-.015.093c-.033.366-.067.739-.067 1.096 0 2.758 1.595 5.498 2.905 6.688 0 0 .849.941 1.119 1.203-.288.119-4.687 3.812-6.112 5.025-.015-.017-.034-.033-.053-.051l-1.742 1.444c.215.211.407.457.604.654zm47.513 19.52a2268.87 2268.87 0 0 1-10.131 1.189s-3.533 3.701-5.248 5.492c.51 2.291.798 4.361.952 6.262 2.832 2.632 10.083 9.547 15.801 14.954v-28.415c-.524.264-.999.451-1.374.518m-3.975 36.18c.73.848.782 1.799.782 2.784 0 .272-.014.569-.014.875l-.02.288v.195c0 1.129.563 2.283 1.119 3.115.12-.093.274-.17.409-.272 1.886-1.435 2.938-3.437 3.073-4.014v-4.634C-119.378 9.599-126.725 2.606-129.528 0c-.461 3.599-1.494 6.331-2.377 8.631 4.144 2.393 12.137 7.096 12.983 8.113m-.082 8.25-.206.059.153-.042c.019 0 .034-.009.053-.017m108.686.059-.192-.059c.02.008.02.017.038.017zm-110.131 28.559 55.488 14.257.206.052.183-.052 55.488-14.257V27.675l-2.016-.619c-4.653-1.426-6.976-6.204-6.976-7.146v-60.987c0-.381-.034-.754-.053-1.129-.63-8.682-8.402-14.877-23.205-18.391l-6.414-1.799c-3.529-1.146-6.555-2.445-9.046-3.861-3.141-1.674-5.67-3.463-7.317-5.185l-.61-.629-.034.025-.033-.025-.63.629c-1.646 1.722-4.176 3.511-7.316 5.185-2.477 1.416-5.513 2.715-9.045 3.861l-6.42 1.799c-14.783 3.514-22.557 9.709-23.186 18.391-.028.375-.067.748-.067 1.129V19.91c0 .942-2.323 5.72-6.956 7.146l-2.041.619zM117.564-26.36C102.93-15.675 75.648 8.987 72.413 12.23l-4.759 4.387-2.699 2.444c-3.562 3.089-8.891 2.741-11.93-.78l-.898-1.07c-2.107-2.503-5.67-6.772-11.359-11.711.22.526.426 1.086.629 1.636.306.799.541 1.512.681 1.962.917 3.022 1.34 6.484 1.34 9.343a25.6 25.6 0 0 1-.206 3.261c-1.494 9.801-6.194 13.485-8.144 14.605-2.717 1.578-5.315 1.876-7.691.899l-1.834.34c-3.309 0-6.18-.73-8.672-2.181l-5.536-.357s-.811-.042-1.372-.067c-.576-.026-1.475-.356-2.123-.968-1.031-.976-1.105-3.14-1.105-3.14l.021-2.173a3.11 3.11 0 0 1 .555-1.698s-.267-1.501-.287-1.518l-.082-.611c-.186-1.434-.389-3.065-.389-4.439 0-1.689.337-2.809 1.013-3.564a15.187 15.187 0 0 1-.931-.994 19.953 19.953 0 0 1-2.29-3.106c-5.891 2.852-11.047 6.424-11.2 6.587v.567l.013.602c0 1.987-.609 3.769-1.613 5.144l1.514.467v29.171L-64.23 69.991l-.525.136-.548-.136-57.283-14.723V26.097l1.527-.467c-1.018-1.375-1.627-3.157-1.627-5.144l.033-.602v-.567c-.173-.163-5.315-3.735-11.22-6.587a19.884 19.884 0 0 1-2.291 3.106 14.51 14.51 0 0 1-.917.994c.677.755 1.018 1.875 1.018 3.564 0 1.374-.221 3.005-.403 4.439l-.091.611c-.015.017-.288 1.518-.288 1.518.273.391.561.968.561 1.698l.015 2.173s-.048 2.164-1.085 3.14c-.658.612-1.561.942-2.123.968-.576.025-1.392.067-1.392.067l-5.512.357c-2.516 1.451-5.381 2.181-8.675 2.181l-1.835-.34c-2.39.977-4.988.679-7.701-.899-1.939-1.12-6.64-4.804-8.133-14.605a25.584 25.584 0 0 1-.207-3.261c0-2.859.428-6.321 1.344-9.343.135-.45.37-1.163.677-1.962.188-.55.409-1.11.63-1.636-5.69 4.939-9.267 9.208-11.375 11.711l-.883 1.07c-3.039 3.521-8.368 3.869-11.931.78l-2.698-2.444-4.754-4.387c-3.254-3.243-30.521-27.905-45.146-38.59a155.96 155.96 0 0 0-3.059-2.19c1.105-.646 3.073-1.494 5.925-.662.542.137 1.594.68 2.276 1.02.47.246 3.226 2.316 4.735 3.47 16.035 12.773 35.509 30.586 38.342 33.387l4.58 4.259 2.65 2.369c1.883 1.656 4.48 1.18 5.738-.296l.865-1.028c2.703-3.199 7.706-8.708 16.309-15.421 5.517-4.319 10.631-5.991 10.631-5.991s-2.123 2.325-4.399 5.873c-1.767 2.689-3.6 6.085-4.667 9.658-1.799 5.491-1.747 10.779-1.526 13.171.625 6.688 3.596 9.727 5.973 11.118 1.867 1.078 3.461 1.232 4.887.5l.595-.304.048.042c.664.281 1.499.484 2.243.484 1.766-.026 4.446-.239 7.063-1.867l.374-.246c.067-.017.389-.044.389-.044l5.362-.398s.664-.034 1.005-.398c.22-.239.389-.815.34-1.122-.038-.347-.48-.94-.527-1.169-.053-.23.066-1.546.114-1.817-1.186.33-3.428.576-4.306-.297-.307-.314-.423-.73-.327-1.239.12-.62.749-2.327 2.041-2.775.878-.306 1.919.075 3.034 1.05.14-2.035.173-4.098.173-4.098l-.033-.092c-.937-.086-2.82.135-4.225.5l-.12-.22c1.425-1.282 4.19-4.379 5.482-6.145-1.987 1.188-4.244 2.096-6.573 2.512-2.29.433-7.024 1.281-7.802 3.115-.124.296-.346.805-.346 1.4 0 .51.14 1.06.663 1.596l.225.22-.307.007c-1.07.036-1.867-.329-2.395-1.093-.49-.706-.658-1.612-.658-2.394 0-.423.048-.805.115-1.111 1.004-3.292 5.536-4.1 9.963-4.923 4.599-.832 8.489-3.361 10.183-6.527-4.239 3.582-10.212 4.779-15.051 5.704l-.442.093c-3.919.757-6.894 3.056-7.773 6.009a6.92 6.92 0 0 0-.275 1.951c0 2.284 1.004 5.077 4.058 6.689l.408.229-.461.034c-1.997.162-3.697-.586-4.883-2.156-1.176-1.554-1.68-3.701-1.68-5.601 0-.823.096-1.621.288-2.283 1.153-4.142 4.733-7.087 9.808-8.079 8.504-1.647 15.581-3.905 17.501-9.82 1.134-3.513-.24-7.426-.24-7.426-.288.288-1.527 1.545-1.68 1.715l-.015.007c.101-4.777 1.748-7.086 2.613-8.071 1.152-1.315 7.096-7.893 7.096-7.893.067-.051 8.844-1.025 12.104-1.408.336-.051.696-.203 1.066-.407v-9.122l-1.019 1.05v-.008l-1.828 1.995c-.26.38-.682.433-.937.441-2.55.322-12.713 1.451-12.713 1.451s-5.772 5.059-8.322 7.443c-2.953 2.741-5.55 3.098-7.533 2.759-1.934-.34-3.293-1.553-3.293-1.553s2.564.135 4.786-2.038c1.225-1.212 1.186-1.248 1.666-1.755-2.006-1.358-3.84-2.141-5.823-2.87-.428-.152-.865-.304-1.305-.466-1.024-.348-2.075-.703-3.228-1.137l-1.032-.383-1.546-.568a45.876 45.876 0 0 1-1.953-.824 30.907 30.907 0 0 1-6.094-3.649c0 .137-.048.256-.067.391a15.411 15.411 0 0 1-.326 1.816 20.8 20.8 0 0 1-.37 1.289 10.08 10.08 0 0 1-.342.959c-.086.246-.153.535-.273.772l-.201.418-.035-.467c-.187-1.367-.662-3.496-1.478-5.951-.115-.338-.235-.678-.355-1.026a38.87 38.87 0 0 0-2.377-5.236 29.75 29.75 0 0 0-.865-1.537c-.373-.584-.729-1.17-1.118-1.748l-1.051-1.451-.24-.33c-3.63-4.916-7.739-10.458-4.005-20.36l.136-.357.253-.406 5.878-9.491h2.404c1.868 0 3.241-.552 4.225-1.672.735-.814 1.206-2.004 1.494-3.419h-13.372c-.682 0-1.104.535-1.377 1.043-5.057 8.496-8.432 14.302-9.824 16.769-.307.586-.461 1.123-.461 1.639l.068.586c.273 1.308 1.665 2.496 2.155 2.664.172-.77.816-1.508.816-1.508s-.95 8.545-1.033 16.453c-.037 2.445.49 6.129.861 8.369l.307 1.07-.442-.382c-.048-.026-.168-.153-.168-.153l-.495-.484c-3.053-3.166-13.356-13.561-14.576-14.623-1.599-1.459-3.179-2.233-4.571-2.233H-234.7c-.71 0-1.272.629-1.272 1.385 0 .754.562 1.365 1.272 1.365h30.128c.749 0 1.82.586 2.944 1.588l3.869 3.938c5.238 5.398 14.053 14.853 29.378 30.264.035.05.069.085.102.11l.614.655 2.56 2.697c-4.077 2.938-9.574 7.393-16.959 14.063l-2.102 1.927c-4.212 3.861-5.892 4.235-10.559-.365-3.274-3.243-27.938-26.378-42.572-37.087-.591-.442-1.186-.866-1.748-1.282 1.09-.644 3.039-1.349 5.757-.568.543.143 1.579.678 2.256 1.025.681.34 7.759 6.248 7.759 6.248v-.017c13.626 11.168 28.957 25.487 31.602 28.142 1.277 1.231 2.036 1.893 2.396 2.02.389-.162 1.339-1.002 2.17-1.781l1.446-1.316c-5.537-5.62-25.241-25.069-37.888-35.28h.039c1.133-.586 3.308-1.537 6.122-.273.546.246 1.565.841 2.294 1.394.37.262 6.314 5.838 8.556 7.756 10.149 9.148 20.516 19.393 24.376 23.287 1.167-1.061 2.32-2.054 3.442-3.021l-.186-.169c-4.077-4.15-16.464-16.218-26.801-25.445-.02-.033-.039-.058-.053-.094 1.186-.515 3.596-1.187 6.319.213.523.264 1.541 1.002 2.203 1.451.289.18 1.392 1.165 2.546 2.182 7.672 7.18 15.891 15.124 18.892 18.17l.662.662c1.205-.992 2.377-1.918 3.477-2.809a45902.48 45902.48 0 0 0-13.44-13.63l-.086-.094a1185.785 1185.785 0 0 1-6.788-7.086c-1.22-1.281-2.444-2.545-3.616-3.76-4.432-4.615-8.047-8.367-8.59-8.877l-.811-.593-28.673.015c-2.905 0-5.516-2.461-5.516-5.558 0-3.088 1.478-5.287 4.888-5.287h29.076c2.343 0 5.43.585 7.773 2.656.019.017.917.951.917.951s6.265 6.025 6.775 6.553c-.034-.282-.067-.612-.067-.612v-.281c.019-3.529.182-4.506.489-7.035-1.2-.959-3.001-2.647-3.616-5.246a8.709 8.709 0 0 1-.201-1.746c0-1.401.389-2.793 1.1-4.118 2.636-4.736 10.836-18.974 11.441-19.833.73-.959 2.108-1.417 3.141-1.417h19.42c27.871-14.767 59.598-23.212 93.288-23.39 33.677.178 65.417 8.623 93.27 23.39h19.417c1.036 0 2.429.458 3.139 1.417.615.859 8.816 15.097 11.442 19.833.733 1.325 1.104 2.717 1.104 4.118 0 .578-.067 1.162-.207 1.746-.59 2.599-2.387 4.287-3.596 5.246.288 2.529.475 3.506.495 7.035v.281s-.053.33-.086.612c.508-.528 6.789-6.553 6.789-6.553s.896-.934.896-.951c2.364-2.071 5.45-2.656 7.776-2.656h29.075c3.432 0 4.906 2.199 4.906 5.287 0 3.097-2.631 5.558-5.53 5.558l-28.668-.015-.817.593c-.528.51-4.158 4.262-8.589 8.877-1.153 1.215-2.377 2.479-3.596 3.76-2.31 2.41-4.654 4.855-6.809 7.086l-.082.094-13.429 13.63c1.085.891 2.257 1.817 3.462 2.809l.676-.662c3.012-3.046 11.206-10.99 18.899-18.17 1.152-1.017 2.252-2.002 2.54-2.182.648-.449 1.68-1.187 2.214-1.451 2.712-1.4 5.123-.728 6.294-.213-.02.036-.034.061-.034.094-10.352 9.227-22.743 21.295-26.82 25.445l-.173.169a195.7 195.7 0 0 1 3.452 3.021c3.831-3.894 14.207-14.139 24.371-23.287 2.238-1.918 8.163-7.494 8.538-7.756.749-.553 1.766-1.148 2.293-1.394 2.833-1.264 4.99-.313 6.127.273h.034C81.372-25.077 61.682-5.628 56.131-.008l1.461 1.316c.83.779 1.765 1.619 2.154 1.781.356-.127 1.139-.789 2.391-2.02 2.666-2.655 17.996-16.974 31.627-28.142v.017s7.076-5.908 7.74-6.248c.695-.347 1.713-.882 2.271-1.025 2.717-.781 4.652-.076 5.756.568-.576.416-1.157.84-1.748 1.282C93.135-21.77 68.471 1.365 65.197 4.608c-4.652 4.6-6.353 4.226-10.558.365l-2.108-1.927c-7.366-6.67-12.883-11.125-16.954-14.063l2.564-2.697.61-.655c.033-.025.067-.06.116-.11 15.315-15.411 24.14-24.866 29.388-30.264l3.85-3.938c1.119-1.002 2.19-1.588 2.954-1.588h30.108c.73 0 1.291-.611 1.291-1.365 0-.756-.561-1.385-1.291-1.385H75.059c-1.412 0-2.973.774-4.581 2.233-1.21 1.062-11.528 11.457-14.568 14.623l-.489.484s-.134.127-.192.153l-.423.382.289-1.07c.393-2.24.916-5.924.868-8.369-.086-7.908-1.022-16.453-1.022-16.453s.633.738.802 1.508c.508-.168 1.882-1.356 2.169-2.664l.068-.586c0-.516-.153-1.053-.456-1.639-1.393-2.467-4.772-8.273-9.829-16.769-.287-.508-.695-1.043-1.392-1.043H32.945c.27 1.415.764 2.605 1.494 3.419.965 1.12 2.358 1.672 4.211 1.672h2.411l5.885 9.491.259.406.135.357c3.717 9.902-.374 15.444-4.008 20.36l-.236.33-1.051 1.451a30.088 30.088 0 0 0-1.123 1.748c-.303.51-.596 1.027-.884 1.537a39.798 39.798 0 0 0-2.357 5.236c-.136.348-.236.688-.356 1.026-.831 2.455-1.305 4.584-1.479 5.951l-.048.467-.206-.418c-.102-.237-.168-.526-.269-.772-.12-.314-.24-.627-.341-.959-.134-.431-.273-.865-.375-1.289a16.741 16.741 0 0 1-.322-1.816c-.018-.135-.047-.254-.066-.391a31.081 31.081 0 0 1-6.094 3.649 32.38 32.38 0 0 1-1.953.824l-1.541.568-1.024.383c-1.171.434-2.222.789-3.221 1.137-.441.162-.883.314-1.306.466-2.006.729-3.841 1.512-5.838 2.87.47.507.456.543 1.675 1.755 2.224 2.173 4.788 2.038 4.788 2.038s-1.359 1.213-3.308 1.553c-1.969.339-4.586-.018-7.52-2.759C6.314-24.323.561-29.382.561-29.382s-10.168-1.129-12.732-1.451c-.235-.008-.678-.061-.931-.441l-1.821-1.995-.013.008-1.003-1.05v9.122c.354.204.713.356 1.07.407 3.26.383 12.017 1.357 12.099 1.408 0 0 5.944 6.578 7.1 7.893.859.985 2.492 3.294 2.594 8.071l-.015-.007c-.153-.17-1.392-1.427-1.68-1.715 0 0-1.377 3.913-.221 7.426 1.901 5.915 8.977 8.173 17.481 9.82 5.089.992 8.675 3.937 9.827 8.079.188.662.289 1.46.289 2.283 0 1.9-.508 4.047-1.695 5.601-1.19 1.57-2.871 2.318-4.873 2.156l-.476-.034.423-.229c3.059-1.612 4.042-4.405 4.042-6.689 0-.713-.1-1.383-.273-1.951-.883-2.953-3.85-5.252-7.773-6.009l-.422-.093c-4.855-.925-10.818-2.122-15.057-5.704 1.7 3.166 5.569 5.695 10.184 6.527 4.413.823 8.958 1.631 9.948 4.923.086.306.134.688.134 1.111 0 .782-.173 1.688-.662 2.394-.544.764-1.339 1.129-2.396 1.093l-.317-.007.215-.22c.529-.536.682-1.086.682-1.596 0-.595-.221-1.104-.355-1.4-.768-1.834-5.502-2.682-7.792-3.115-2.343-.416-4.581-1.324-6.587-2.512 1.291 1.766 4.076 4.863 5.497 6.145l-.116.22c-1.424-.365-3.293-.586-4.244-.5l-.018.092s.018 2.063.172 4.098c1.124-.975 2.136-1.356 3.019-1.05 1.293.448 1.917 2.155 2.037 2.775.106.509 0 .925-.322 1.239-.883.873-3.121.627-4.293.297.034.271.168 1.587.121 1.817-.053.229-.494.822-.543 1.169-.037.307.135.883.35 1.122.346.364.99.398.99.398l5.377.398s.307.027.394.044l.37.246c2.616 1.628 5.281 1.841 7.062 1.867.749 0 1.561-.203 2.223-.484l.073-.042.594.304c1.422.732 3.002.578 4.869-.5 2.377-1.391 5.363-4.43 5.978-11.118.215-2.392.288-7.68-1.517-13.171-1.065-3.573-2.919-6.969-4.663-9.658-2.294-3.548-4.398-5.873-4.398-5.873s5.109 1.672 10.607 5.991c8.603 6.713 13.611 12.222 16.314 15.421l.865 1.028c1.272 1.476 3.87 1.952 5.756.296l2.646-2.369 4.565-4.259c2.838-2.801 22.302-20.614 38.358-33.387 1.517-1.154 4.244-3.224 4.739-3.47.677-.34 1.714-.883 2.257-1.02 2.851-.832 4.824.016 5.925.662-.986.696-1.988 1.416-3.035 2.19" style="fill:#024ea2;fill-opacity:1;fill-rule:nonzero;stroke:none" transform="translate(371.23 440.161)"/><path d="m0 0-2.457 1.115-5.72-3.765 2.385 5.277-1.882.855-6.172-13.658 1.884-.855 2.165 4.795 1.377.865-.068-7.236 2.292-1.038-.01 9.682z" style="fill:#024ea2;fill-opacity:1;fill-rule:nonzero;stroke:none" transform="translate(236.86 366.736)"/><path d="m0 0 .924 2.379-4.555 1.769 1.257 3.233 4.937-1.918.925 2.379-6.864 2.666-5.43-13.971L-1.86-6.16l.925 2.379-5.018 1.949 1.398 3.602z" style="fill:#024ea2;fill-opacity:1;fill-rule:nonzero;stroke:none" transform="translate(241.112 355.906)"/><path d="m0 0-4.856-14.17 1.956-.67L1.956-.668Z" style="fill:#024ea2;fill-opacity:1;fill-rule:nonzero;stroke:none" transform="translate(246.524 363.107)"/><path d="m0 0 .782 10.561-2.404.703-4.202-14.373 1.95-.569 2.288 7.836-.627-8.322L-.4-4.695l3.957 7.363L1.262-5.18l1.947-.572L7.411 8.621l-2.395.699Z" style="fill:#024ea2;fill-opacity:1;fill-rule:nonzero;stroke:none" transform="translate(252.113 350.443)"/><path d="m0 0-3.555-5.332-.857 6.355-2.278.532 1.469-9.532-1.358-5.878 2.015-.467 1.357 5.877L2.29-.531z" style="fill:#024ea2;fill-opacity:1;fill-rule:nonzero;stroke:none" transform="translate(267.136 357.287)"/><path d="M0 0c-.349-1.986-1.128-3.082-2.19-3.082-.102 0-.203.01-.301.027-1.168.209-1.596 1.539-1.204 3.75l1.616 9.172-2.037.362-1.71-9.696c-.579-3.289.54-5.681 2.854-6.094.229-.039.452-.058.667-.058 2.106 0 3.754 1.926 4.301 5.025L3.662 8.85l-2.038.359Z" style="fill:#024ea2;fill-opacity:1;fill-rule:nonzero;stroke:none" transform="translate(274.568 346.332)"/><path d="m0 0-2.562 10.006-2.139.264-1.828-14.858 2.015-.252 1.178 9.574L-.703-5.315l2.062-.257L3.187 9.289l-2.014.25Z" style="fill:#024ea2;fill-opacity:1;fill-rule:nonzero;stroke:none" transform="translate(284.85 344.623)"/><path d="m0 0 2.776-.191C2.636-1.602 2.3-2.51 1.685-3.182c-.631-.687-1.2-.672-1.54-.636-2.098.146-2.337 3.101-2.167 5.552.24 3.528 1.55 5.108 2.847 5.108h.003C2.03 6.76 2.743 5.807 2.896 4.086l.031-.365 2-.141-.007.467c-.047 3.486-2.031 5.209-3.853 5.336-3.193.203-4.931-3.733-5.184-7.405-.095-1.39-.273-3.982 1.047-6.279.445-.801 1.237-1.879 2.969-1.998.069-.006.139-.01.209-.01.954 0 1.869.446 2.585 1.229l.091-1.045 1.58-.111.577 8.392-4.769.33z" style="fill:#024ea2;fill-opacity:1;fill-rule:nonzero;stroke:none" transform="translate(293.27 344.42)"/><path d="M0 0v-.004Zm1.803 14.936.125-9.356c.017-1.422-.253-2.461-.785-3.008-.291-.297-.659-.449-1.112-.455-1.173 0-1.834 1.229-1.863 3.459l-.125 9.315-2.067-.026.13-9.845C-3.85 1.707-2.321-.435 0-.435h.046c.977.013 1.808.361 2.468 1.039.986 1.011 1.513 2.705 1.485 4.767l-.128 9.59z" style="fill:#024ea2;fill-opacity:1;fill-rule:nonzero;stroke:none" transform="translate(309.192 338.043)"/><path d="m0 0 .548-9.598-4.31 9.381-2.149-.125.856-14.943 2.026.115-.551 9.631 4.387-9.41 2.074.119L2.023.115z" style="fill:#024ea2;fill-opacity:1;fill-rule:nonzero;stroke:none" transform="translate(321.02 353.38)"/><path d="m0 0 1.398-14.914 2.058.193L2.055.195Z" style="fill:#024ea2;fill-opacity:1;fill-rule:nonzero;stroke:none" transform="translate(325.304 353.726)"/><path d="m0 0-3.55 10.07-2.212-.289L-.39-4.627l1.95.252 1.487 15.309-2.228-.293Z" style="fill:#024ea2;fill-opacity:1;fill-rule:nonzero;stroke:none" transform="translate(334.508 344.238)"/><path d="m0 0-.692 3.799 4.805.871-.457 2.508-4.807-.869-.62 3.412 5.209.943-.459 2.512-7.241-1.311 2.687-14.742 7.326 1.324L5.295.959z" style="fill:#024ea2;fill-opacity:1;fill-rule:nonzero;stroke:none" transform="translate(343.106 343.535)"/><path d="m0 0-2.308-.543-.901 3.83 2.514.59c.131.031.238.045.34.045.568 0 .988-.555 1.246-1.652C1.351.316.472.109 0 0m5.312-6.435c-.275.148-.364.267-.55 1.007l-.657 2.469C3.698-1.412 3.209-.84 2.66-.535c.403.758.639 1.764.235 3.478-.67 2.85-2.2 3.448-3.365 3.448-.283 0-.579-.037-.88-.108l-4.441-1.045 3.428-14.572 2.012.473-1.385 5.89 2.427.573c.834.193 1.26-.272 1.61-1.764.006-.023.607-2.522 1.045-3.475l.146-.32 2.203.518-.215.912z" style="fill:#024ea2;fill-opacity:1;fill-rule:nonzero;stroke:none" transform="translate(353.763 351.851)"/><path d="m0 0-2.697.17c-.433.033-.868.193-1.137 1.115-.227.776-.199 1.385.078 1.807.235.355.614.527.89.607 1.012.289 1.925-.385 2.4-1.851l.128-.401 1.913.561-.138.422c-.309.943-1.248 3.81-3.915 3.81-.385 0-.795-.062-1.218-.187-2.04-.598-2.83-2.789-2.013-5.584.534-1.83 1.619-2.854 3.141-2.965l1.936-.127c1.439-.107 1.8-.369 2.146-1.555.451-1.545-.45-2.16-1.284-2.404-1.196-.354-2.24.424-2.754 2.187l-.121.415-1.912-.563.121-.412c.354-1.205.842-2.451 2.018-3.391.5-.404 1.144-.812 2.135-.812.383 0 .795.062 1.223.189.971.283 1.763.883 2.232 1.69.601 1.037.674 2.353.218 3.918C2.621-.732 1.125-.084 0 0" style="fill:#024ea2;fill-opacity:1;fill-rule:nonzero;stroke:none" transform="translate(364.392 354.676)"/><path d="m0 0 4.773-14.201 1.957.662L1.957.66Z" style="fill:#024ea2;fill-opacity:1;fill-rule:nonzero;stroke:none" transform="translate(366.567 362.17)"/><path d="m0 0-.905 2.385-7.584-2.887.905-2.387 2.825 1.077 4.41-11.616 1.931.735-4.408 11.617z" style="fill:#024ea2;fill-opacity:1;fill-rule:nonzero;stroke:none" transform="translate(378.394 363.754)"/><path d="m0 0-.351 9.637-2.15-.949.355-6.407-4.492 4.576-2.136-.945L-1.89-.836.55-6.357l1.888.836Z" style="fill:#024ea2;fill-opacity:1;fill-rule:nonzero;stroke:none" transform="translate(386.5 360.313)"/></g></svg>