<svg xmlns="http://www.w3.org/2000/svg" width="196.72345mm" height="196.72345mm" viewBox="0 0 196.72345 196.72345"><g transform="translate(-3.629 -61.673)"><circle cx="101.99073" cy="160.0345" r="98.361725" style="fill:#f9f9f9;stroke:#fff;stroke-width:0"/><path d="M0 0a5.956 5.956 0 0 1-5.955-5.955A5.96 5.96 0 0 1 0-11.918a5.96 5.96 0 0 1 5.957 5.963A5.958 5.958 0 0 1 0 0" style="fill:#9d9d9e;fill-opacity:1;fill-rule:nonzero;stroke:none" transform="matrix(.80063 0 0 -.80063 180.525 182.218)"/><path d="M0 0c-46.885.246-85.092-37.563-85.336-84.453-.246-46.88 37.563-85.086 84.443-85.332 46.887-.244 85.096 37.559 85.34 84.44C84.695-38.451 46.887-.244 0 0" style="fill:#9d9d9e;fill-opacity:1;fill-rule:nonzero;stroke:none" transform="matrix(.80063 0 0 -.80063 101.946 91.43)"/><path d="M0 0c-66.803.348-121.24-53.523-121.594-120.316-.349-66.818 53.522-121.244 120.326-121.588 66.805-.357 121.241 53.504 121.584 120.315C120.672-54.791 66.797-.35 0 0m-1.262-240.806c-66.193.348-119.572 54.279-119.232 120.48C-120.139-54.139-66.201-.756-.012-1.102c66.2-.347 119.576-54.287 119.235-120.48-.348-66.203-54.291-119.568-120.485-119.224" style="fill:#9d9d9e;fill-opacity:1;fill-rule:nonzero;stroke:none" transform="matrix(.80063 0 0 -.80063 102.094 62.558)"/><path d="M0 0a5.957 5.957 0 1 1 .004-11.91A5.957 5.957 0 0 1 0 0" style="fill:#9d9d9e;fill-opacity:1;fill-rule:nonzero;stroke:none" transform="matrix(.80063 0 0 -.80063 22.356 182.22)"/><path d="m0 0-1.807.24c-8.144 1.09-15.746-1.722-22.136-8.088.084.623.15 1.252.15 1.885 0 2.147-.453 4.426-1.299 6.787 2.401-.867 5.69-1.599 9.797-.926C-5.361 1.529-1.068 7.479-.887 7.731l2.707 3.836-4.674.875c-.574.107-4.769 1.277-6.912 2.25-1.923.875-4.195 1.183-6.894.949 2.086 2.22 3.455 4.759 4.09 7.741.172.819.259 1.637.259 2.434 0 6.533-5.642 10.785-8.976 12.267l-3.578 1.588-.541-3.361c-.053 1.496-.221 2.606-.346 2.92l-1.133 2.83-2.814-1.158c-.457-.19-4.233-1.819-7.856-4.926-.732 2.844-3.004 4.674-5.99 4.674-.945 0-1.809-.254-2.611-.619-.977 6.533-4.035 10.98-4.787 11.552l-1.168.893-.346-.092-1.076-.283c-3.805-.994-9.848-7.426-11.488-14.582-2.133 4.356-5.657 7.746-10.944 10.531l-3.002 1.584-1.217-3.17c-.181-.478-1.779-4.816-1.779-10.103 0-3.006.524-5.742 1.555-8.137.224-.517.504-1.045.814-1.58-1.892 1.465-3.787 3.127-5.156 4.877l-.078.096c-2.358 2.771-3.258 5.043-3.641 6.011-.269.682-2.066 4.268-2.271 4.674l-.614 1.227-2.755-4.86c-.639-1.009-2.118-3.734-2.856-7.402-.797.358-1.652.606-2.582.606-3.443 0-5.885-2.426-6.189-5.967-.5.232-1 .467-1 .467-.002.002-3.149 1.232-3.149 1.232l-.865-3.268c-.039-.146-.977-3.711-.977-8.374 0-4.857 1.016-9.065 2.95-12.568-.838.914-1.627 1.81-2.284 2.646 0 .002-.158.197-.158.197l-.183.17c-2.184 2.35-2.584 5.1-2.588 5.13l-.276 1.988-3.451-5.473c-.105-.201-1.844-3.653-1.844-8.377 0-3.338.846-6.512 2.516-9.436 1.938-3.39 4.742-5.617 8.598-7.023-2.991-1.602-5.094-4.069-6.139-7.475-.762-2.482-1.152-4.855-1.152-7.049 0-2.324.435-4.367 1.289-6.076l2.261-4.513 2.917 4.15c.005.012.888 1.225 2.833 2.48 0 0-.06-.019-.097-.027.228.105.672.355 1.871 1.051-.004-.004.709.418 1.48.877-1.119-2.965-1.863-6.192-1.863-8.42 0-.863.108-1.502.33-1.953a3.09 3.09 0 0 1 3.252-1.715c13.049 1.988 18.137 8.941 21.504 13.547 1.443 1.972 2.381 3.183 3.293 3.662-2.5-2.295-4.961-5.451-5.469-9.32l-.113-1.77c0-1.744.285-2.838.59-3.994l.301-1.195c.213-.94.259-2.03.259-2.797 0-.567-.025-.957-.025-.965l-.076-1.115a18.55 18.55 0 0 0-2.391.029c-.98.082-2.144.35-3.076.564-1.721.397-2.584.596-2.922-.173-.615-1.415 1.445-4.852 2.008-5.499.246-.302 6.553-7.851 20.08-7.904 3.482 0 6.365.779 8.828 2.32 1.967-1.232 5.147-2.589 9.795-2.589 13.522.052 19.883 7.652 20.15 7.976 2.852 3.276 2.411 4.278 2.245 4.655-.573 1.308-2.823 1.457-6.016.4-1.516-.502-4.518-.436-7.527.894-3.625 1.602-6.369 4.198-6.993 6.614l-.044.172c-.041.138-.098.39-.153.599 1.024-.83 2.135-1.558 3.428-2.051 3.682-1.406 6.869-1.953 8.621-2.002 1.24-.029 3.941-.998 4.873-1.369l1.213-.478-.885 5.174c-.41 1.437-1.062 2.929-1.847 4.351 5.171-2.508 10.15-2.722 10.39-2.728l1.57-.057.944 1.262c.437.58.66 1.342.66 2.267 0 1.86-.9 4.19-1.912 6.227 1.295-.492 2.797-.981 4.332-1.451 1.486-.457 3.121-.955 4.129-1.366 1.045-.423 2.26-1.13 3.33-1.757 1.492-.871 2.672-1.561 3.517-1.643l.698.24c.879.803.904 4.883.904 5.346 0 1.881-.48 6.723-4.959 10.986-1.027.981-2.18 1.752-3.406 2.44a36.467 36.467 0 0 1 5.551 2.611C.238-11.682.92-6.182.92-3.988c0 1.084-.154 1.886-.297 2.275zm-78.477-4.445c-.47-.01-1.746.244-2.181.138.359 1.131.693 2.325.836 3.578 0 0 .013.276.027.495.758-.787 2.76-1.891 3.613-2.557-.765-.203-2.754-.184-2.754-.184s.42-1.398.459-1.47m-4.255 16.104c.166-.034.334-.076.498-.102a8.916 8.916 0 0 1-.411-.078c-.033.068-.046.098-.087.18m9.078-27.331c-.383.168-.485.211-.772.342.133.154.281.287.393.461.125-.272.24-.531.379-.803m-19.108 25.85c-.076.379-.134.781-.23 1.143-.496 2.808-1.795 5.431-3.793 7.835.486.238.924.537 1.33.902.879-1.547 1.992-2.975 3.449-4.188l1.449-1.051c-.845-1.135-1.597-2.713-2.205-4.641m5.797-31.463a23.612 23.612 0 0 1-4.457-.783c.633.382 1.137.492 1.588.588.793.169 1.795.226 2.869.195m6.856-27.725 3.349 1.426c.617.359 4.781 2.916 6.987 6.336-.032-.125-.061-.303-.092-.414a58.98 58.98 0 0 0-.047-.172c-.651-2.52-3.373-5.158-6.943-6.736-1.036-.457-2.54-.739-4.161-.825l.907.385M-53.1 9.813c0 1.484.297 3.258.868 5.291.576-2.098 1.296-5.023 1.296-7.373l-.002-.225a37.139 37.139 0 0 1-2.152 2.118c-.006.082-.01.189-.01.189m-7.24-33.627c-.18-.235-.357-.491-.531-.743-.373.434-.736.871-1.152 1.297.728-.156 1.287-.33 1.683-.554m4.586 16.841c.416-1.216.647-2.422.647-3.672 0-.636-.061-1.312-.157-2.013a16.575 16.575 0 0 1-4.742 6.15c1.815.082 3.32-.06 4.252-.465m17.563 9.655c1.396 1.066 2.99 2.027 4.402 1.922.246-.02.523-.079.844-.176-.918-.817-2.084-2.053-3.219-3.627a5.828 5.828 0 0 1-2.027 1.881m-6.491 24.671a6.478 6.478 0 0 1 1.061-.102 94.038 94.038 0 0 1-.264-.857 11.68 11.68 0 0 1-.797.959m4.592-37.185c-.338-4.279-.988-5.893-1.344-6.475-.05-.072-.263-.277-.92-.693.143 1.359.241 2.705.241 4.006 0 1.086-.096 2.146-.194 3.199.358-.057.7-.172 1.069-.172.402 0 .771.135 1.156.203-.002-.007-.008-.068-.008-.068M-43.279-28c.779.029 1.373-.066 1.552-.195.239-.174.52-.553.788-.965a15.55 15.55 0 0 1-2.639.803c.142.17.224.271.299.357" style="fill:#fff;fill-opacity:1;fill-rule:nonzero;stroke:none" transform="matrix(.80063 0 0 -.80063 148.409 149.872)"/><path d="M0 0c0-2.498 1.445-3.689 3.23-3.689 1.788 0 3.235 1.191 3.235 3.689 0 2.496-1.447 3.689-3.235 3.689C1.445 3.689 0 2.496 0 0" style="fill:#9d9d9e;fill-opacity:1;fill-rule:nonzero;stroke:none" transform="matrix(.80063 0 0 -.80063 112.806 152.483)"/><path d="M0 0c0 2.494-1.447 3.689-3.234 3.689S-6.471 2.494-6.471 0c0-2.498 1.45-3.688 3.237-3.688C-1.447-3.688 0-2.498 0 0" style="fill:#9d9d9e;fill-opacity:1;fill-rule:nonzero;stroke:none" transform="matrix(.80063 0 0 -.80063 87.652 158.541)"/><path d="M0 0c1.785 0 3.232 1.189 3.232 3.688 0 2.496-1.447 3.689-3.232 3.689-1.789 0-3.238-1.193-3.238-3.689C-3.238 1.189-1.789 0 0 0" style="fill:#9d9d9e;fill-opacity:1;fill-rule:nonzero;stroke:none" transform="matrix(.80063 0 0 -.80063 68.708 132.674)"/><path d="M0 0c1.787 0 3.234 1.189 3.234 3.689 0 2.495-1.447 3.69-3.234 3.69s-3.232-1.195-3.232-3.69C-3.232 1.189-1.787 0 0 0" style="fill:#9d9d9e;fill-opacity:1;fill-rule:nonzero;stroke:none" transform="matrix(.80063 0 0 -.80063 113.545 125.645)"/><path d="M0 0c-9.068 1.215-16.082-3.107-21.109-8.791-.805-.912-2.205-2.186-3.6-3.023-4.377-2.625-8.674-3.758-10.395-4.305.249 1.609 5.506 3.189 8.006 5.947 3.764 4.147 2.893 10.602-.164 16.25 0 0-6.912-4.369-7.613-13.394-.137-1.717-.5-5.733-1.783-7.819-1.221-2.002-6.031-3.443-7.738-5.375.871 3.121 2.914 11.471-.114 19.787-.426 1.166-1.365 2.157.526 3.403 3.338 2.197 7.707 8.045 12.63 7.676 4.536-.34 8.989-6.172 17.782-4.735 8.795 1.441 12.429 6.596 12.429 6.596-.533.076-5.162 1.342-7.658 2.481-2.506 1.136-6.392 1.119-12.232-.848-5.834-1.969-8.487-1.969-9.549-1.742-1.063.23 1.561 1.387 1.561 1.387 7.564 2.828 14.119 5.757 15.71 13.262 1.592 7.504-6.992 11.319-6.992 11.319s-2.842-17.766-13.722-24.732c-2.286-1.465-6.621-4.832-10.274-6.512 1.272 8.364 9.791 7.258 16.016 21.33 2.926 6.615 1.937 12.699 1.937 12.699s-10.638-4.385-12.463-12.613c-.47-2.752-.984-4.332-1.552-7.178-.612-3.07-2.368-8.339-3.836-9.857 0 0-.494-.048.066 1.854.565 1.916 2.178 5.797 2.115 7.796-.16 4.978-2.722 7.808-4.359 8.541 0 0-2.463-3.418-1.484-8.016.312-1.485 2.263-7.04 2.142-11.296-.133-2.778-1.664-4.399-2.097-4.686-.782-.386-2.278 2.451-6.024 5.569.135.088-1.332 5.262 4.424 16.608 6.812 13.426-1.147 24.352-1.147 24.352-3.07-.807-9.091-7.582-9.658-14.209-.765-8.967 2.737-15.654 3.565-20.059.328-1.774.648-5.008.648-5.008-.758.25-4.699 3.441-4.982 4.267-3.965 11.474 1.226 23.089-14.17 31.206 0 0-3.367-8.785-.274-15.965 2.59-6.013 12.123-12.009 11.526-14.803l-9.215 5.469c-2.42 1.448-8.408 5.25-11.795 9.579-3.535 4.152-4.201 7.357-4.418 7.42 0 0-7.336-11.577 1.467-18.893 8.554-7.116 18.476-1.728 24.701-6.405 7.037-5.29 9.199-9.382 11.795-14.104-1.361.164-2.6 0-5.631 3.681-2.711 3.287-7.689 6.604-12.346 7.472-3.156.587-10.548-.288-10.548-.288C-75.424.74-65.6-1.889-61.936-1.178c3.959.768 8.645.852 10.893-.972 2.6-5.944.369-12.473-2.1-17.434-1.384.424-1.255 5.109-2.4 7.922-4.312 10.605-17.619 9.406-17.619 9.406s1.494-2.697 2.885-5.851c1.388-3.153 2.558-8.045 9.347-9.133 3.194-.51 5.516-1.01 6.606-4.03-2.883-2.664-3.985-6.41-3.994-6.705-.024.784-4.309 10.411-22.36 15.077-6.131 3.533-.597 9.38.069 15.257.705 6.145-4.541 14.268-4.541 14.268-2.055-1.162-4.215-8.766-3.827-14.07.385-5.309 4.143-12.629 4.143-12.629-2.119 1.801-5.869 7.105-7.059 11.049-1.101 3.66-.857 8.861-1.822 12.408-1.424 8.823-11.914 12.931-11.914 12.931s-2.924-11.062 1.949-19.24c3.037-5.094 6.479-6.217 9.856-9.338 2.312-2.138 6.906-7.502 9.183-10.859-2.502.814-1.472-.231-8.699 4.051-5.461 3.238-13.762 10.763-17.879 15.994-.959.867-1.554 1.777-1.636 2.447 0 0-3.715-7.273.636-14.887 5.002-8.752 16.17-6.648 24.055-8.236 0 0-5.219-.615-9.463-1.068-4.248-.455-9.924-1.248-11.869-7.575-2.025-6.599-.504-9.982-.047-10.89 0 0 1.1 1.633 3.678 3.299 2.578 1.668 7.17 3.308 10.504 8.312 3.334 5.006 5.453 5.537 7.109 5.891 4.088.865 12.051-.184 14.9-4.813-.091-.017-.705-.142-3.996-.82-2.547-.527-11.099 1.646-17.345-4.275-4.18-3.965-5.69-14.137-5.024-14.034 19.178 2.922 18.908 17.071 25.836 17.489.768.045 3.121.867 5.529-2.424-.003-.006-7.777-4.371-8.586-10.547-.486-3.703 1.151-6.373.936-6.992 0 0 5.375 3.178 6.588 6.631 1.478 4.222 1.508 9.951 1.508 9.951 6.072-4.879 3.26-13.676 3.119-14.229-1.815-7.05-13.141-12.134-18.174-9.47-.232-.006-.346-.2-.137-.436 0 0 5.571-6.822 17.813-6.867 5.484 0 7.75 2.187 8.857 3 .344-.332 3.414-3.272 9.758-3.272 12.246.045 17.815 6.868 17.815 6.868.207.242.095.431-.141.437-5.027-2.662-16.918 2.42-18.733 9.471-.056.22-1.353 4.135-.328 8.148.096.377.461 2.483.907 2.717.267.141.441-.859.947-1.996.053-.348.625-4.647 5.697-6.58 5.393-2.059 9.143-1.658 9.832-2.25 0 0-3.849 13.375-16.109 11.787-.153.078.666 1.273.652 1.383.404.594.766 1.103 1.098 1.552a.081.081 0 0 0 .019.018l-.015-.014c1.929 2.633 2.66 3.018 2.66 3.018s2.933.547 4.625-.678c1.418-1.031 2.306-3.24 3.019-4.168 5.495-7.166 15.612-7.51 15.612-7.51.605.807-1.705 6.348-3.465 8.747-3.709 5.064-7.893 4.793-10.149 4.906-2.365.119-4.347-.404-5.625-.402-1.724.003-2.277.511-2.277.511 2.275 2.278 9.361 3.758 11.041 3.549 2.742-.342 6.297-5.047 11.842-7.486 2.371-1.041 6.969-2.18 9.387-3.157 3.234-1.31 3.994-2.322 3.994-2.322.398-.127 1.297 5.742-3.713 10.516-5.719 5.441-13.164 3.914-17.434 3.914-1.504 0-5.203-.275-5.203-.275 8.221 4.386 13.014-.958 25.346 6.203C1.344-6.088 0 0 0 0" style="fill:#9d9d9e;fill-opacity:1;fill-rule:nonzero;stroke:none" transform="matrix(.80063 0 0 -.80063 146.64 152.072)"/><path d="m0 0 2.99-1.141 7.213 18.912-2.988 1.139Z" style="fill:#9d9d9e;fill-opacity:1;fill-rule:nonzero;stroke:none" transform="matrix(.80063 0 0 -.80063 78.735 247.072)"/><path d="m0 0-1.488.568c.218.348.412.721.566 1.125.111.297.195.6.262.903l1.441-.549Zm-7.754 1.365A2.746 2.746 0 0 0-9.34 4.904a2.749 2.749 0 0 0 3.541 1.588 2.75 2.75 0 0 0 1.586-3.543 2.747 2.747 0 0 0-3.541-1.584m9.598 3.471-2.66 1.016a6.256 6.256 0 0 1-3.727 3.931c-3.228 1.233-6.85-.392-8.084-3.623-1.23-3.228.389-6.855 3.617-8.086 1.711-.654 3.531-.492 5.051.264l2.902-1.108-3.457-9.054 2.991-1.141L5.701 5.961 2.707 7.104z" style="fill:#9d9d9e;fill-opacity:1;fill-rule:nonzero;stroke:none" transform="matrix(.80063 0 0 -.80063 78.818 236.262)"/><path d="m0 0 5.387-4.693 2.349 2.574-7.771 6.58-7.709-6.643 2.363-2.511z" style="fill:#9d9d9e;fill-opacity:1;fill-rule:nonzero;stroke:none" transform="matrix(.80063 0 0 -.80063 101.337 234.617)"/><path d="M0 0h8.299v-1.467H.945v-2.574h14.713v-1.234H.945v-6.405h18.59v2.567H4.732v1.265h14.715v6.381h-7.363V0h8.299v2.625H0Z" style="fill:#9d9d9e;fill-opacity:1;fill-rule:nonzero;stroke:none" transform="matrix(.80063 0 0 -.80063 93.175 240.82)"/><path d="m0 0 5.75 1.963-1.059 3.103-9.275-3.164L-.768-9.281l9.389 3.203-1.043 3.055-5.861-2z" style="fill:#9d9d9e;fill-opacity:1;fill-rule:nonzero;stroke:none" transform="matrix(.80063 0 0 -.80063 119.724 235.422)"/><path d="m0 0-1.455-.494-1.307 3.832-3.021-1.031L.75-16.838l3.02 1.029L-.396-3.598l1.457.496 4.164-12.209 3.009 1.026L1.699 4.861l-3.006-1.027Z" style="fill:#9d9d9e;fill-opacity:1;fill-rule:nonzero;stroke:none" transform="matrix(.80063 0 0 -.80063 129.349 232.79)"/><path d="m0 0 3.107-2.154L4.814.311l4.27-2.957 1.795 2.591L-.949 8.137l-1.797-2.592 4.453-3.08z" style="fill:#9d9d9e;fill-opacity:1;fill-rule:nonzero;stroke:none" transform="matrix(.80063 0 0 -.80063 49.046 227.96)"/><path d="m0 0-2.949 2.043-3.344-4.83L9.41-13.664l1.867 2.695-12.754 8.834z" style="fill:#9d9d9e;fill-opacity:1;fill-rule:nonzero;stroke:none" transform="matrix(.80063 0 0 -.80063 48.732 226.76)"/><path d="m0 0 3.113-2.156 8.213 11.859-3.111 2.156-2.106-3.041-1.843 1.278-1.87-2.698L4.24 6.121Z" style="fill:#9d9d9e;fill-opacity:1;fill-rule:nonzero;stroke:none" transform="matrix(.80063 0 0 -.80063 55.86 232.592)"/><path d="M0 0a2.209 2.209 0 0 0 .555-3.072 2.216 2.216 0 0 0-3.069-.557 2.203 2.203 0 0 0-.558 3.068A2.198 2.198 0 0 0 0 0m-4.49-6.482a5.677 5.677 0 0 1 7.894 1.439 5.667 5.667 0 0 1-1.431 7.891A5.67 5.67 0 0 1-5.934 1.42C-7.717-1.15-7.078-4.687-4.49-6.482" style="fill:#9d9d9e;fill-opacity:1;fill-rule:nonzero;stroke:none" transform="matrix(.80063 0 0 -.80063 57.05 219.066)"/><path d="m0 0-2.447 3.227L-5.473.934 1.543-8.32 4.57-6.027 1.979-2.609l2.095 1.588L2.096 1.59Z" style="fill:#9d9d9e;fill-opacity:1;fill-rule:nonzero;stroke:none" transform="matrix(.80063 0 0 -.80063 150.18 220.431)"/><path d="m0 0 11.424 8.656 2.41-3.176 3.027 2.295-4.392 5.795L-1.98 2.613Z" style="fill:#9d9d9e;fill-opacity:1;fill-rule:nonzero;stroke:none" transform="matrix(.80063 0 0 -.80063 144.51 236.986)"/><path d="M0 0c-1-.76-2.428-.562-3.184.434a2.273 2.273 0 0 0 .44 3.185 2.256 2.256 0 0 0 3.178-.447A2.257 2.257 0 0 0 0 0m-5.854-1.67a5.672 5.672 0 0 1 7.95-1.092 5.686 5.686 0 0 1 1.101 7.955 5.59 5.59 0 0 1-1.89 1.586l1.519 1.153L.83 10.561l-4.072-3.088-1.315 1.73L-7.58 6.91l1.31-1.728-4.087-3.104 1.992-2.631L-6.873.578A5.62 5.62 0 0 1-5.854-1.67" style="fill:#9d9d9e;fill-opacity:1;fill-rule:nonzero;stroke:none" transform="matrix(.80063 0 0 -.80063 144.314 228.849)"/><path d="m0 0 2.014-2.48 15.742 12.761-2.012 2.483z" style="fill:#9d9d9e;fill-opacity:1;fill-rule:nonzero;stroke:none" transform="matrix(.80063 0 0 -.80063 33.099 218.863)"/><path d="m0 0-1.93 2.385 1.537 1.242 1.93-2.381zm5.918 4.797-1.951-1.58-1.93 2.377 1.949 1.58-6.463 7.976-2.527-2.045L-.875 8.01l-8.432-6.84 2.332-2.879L-4.344.424l1.93-2.381-7.414-6.014 2.014-2.478L7.928 2.313z" style="fill:#9d9d9e;fill-opacity:1;fill-rule:nonzero;stroke:none" transform="matrix(.80063 0 0 -.80063 38.642 209.616)"/><path d="m0 0-2.33-2.734-7.682 6.533-8.947-10.516-2.73 2.326 11.275 13.254z" style="fill:#9d9d9e;fill-opacity:1;fill-rule:nonzero;stroke:none" transform="matrix(.80063 0 0 -.80063 171.973 208.886)"/><path d="m0 0-12.85-15.1-2.558 2.182 2.803 3.293-3.217 2.738 2.338 2.748 3.216-2.738 1.428 1.676-3.217 2.738L-9.729.273l3.221-2.736 3.947 4.641z" style="fill:#9d9d9e;fill-opacity:1;fill-rule:nonzero;stroke:none" transform="matrix(.80063 0 0 -.80063 176.128 211.106)"/><path d="M0 0c0-.17.029-.32.076-.443.151-.407.604-.491.988-.491.34 0 .856.116.856.614 0 .347-.289.441-1.449.769-1.063.303-2.278.596-2.278 1.951 0 1.553 1.327 2.221 2.711 2.221 1.459 0 2.75-.557 2.805-2.193H1.752c.037.254-.076.422-.246.537-.168.121-.404.17-.611.17-.282 0-.745-.076-.745-.453.039-.481 1-.584 1.95-.846.951-.266 1.892-.707 1.892-1.94 0-1.751-1.609-2.316-3.107-2.316-.762 0-2.936.274-2.953 2.42Z" style="fill:#fff;fill-opacity:1;fill-rule:nonzero;stroke:none" transform="matrix(.80063 0 0 -.80063 74.125 212.387)"/><path d="M390.123 234.153h2.07v-6.721h-2.07z" style="fill:#fff;fill-opacity:1;fill-rule:nonzero;stroke:none" transform="matrix(.80063 0 0 -.80063 -233.53 396.286)"/><path d="M0 0h2.119l1.957-3.596h.018V0h1.959v-6.721H4.037l-2.06 3.67h-.018v-3.67H0Z" style="fill:#fff;fill-opacity:1;fill-rule:nonzero;stroke:none" transform="matrix(.80063 0 0 -.80063 82.316 208.816)"/><path d="M0 0c-.037.244-.227.988-1.082.988-.969 0-1.279-.941-1.279-1.843 0-.907.31-1.846 1.279-1.846.697 0 .971.49 1.092 1.121h2.035c0-1.356-1.102-2.797-3.068-2.797-2.178 0-3.411 1.535-3.411 3.522 0 2.117 1.338 3.519 3.411 3.519C.818 2.654 1.836 1.684 2.016 0Z" style="fill:#fff;fill-opacity:1;fill-rule:nonzero;stroke:none" transform="matrix(.80063 0 0 -.80063 92.402 210.82)"/><path d="M0 0h5.566v-1.723H2.072v-.836h3.174V-4.16H2.072v-.838h3.596v-1.723H0Z" style="fill:#fff;fill-opacity:1;fill-rule:nonzero;stroke:none" transform="matrix(.80063 0 0 -.80063 95.714 208.816)"/><path d="M0 0h-1.535v1.355c.951-.021 1.892.338 1.949 1.42h1.543v-6.55H0Z" style="fill:#fff;fill-opacity:1;fill-rule:nonzero;stroke:none" transform="matrix(.80063 0 0 -.80063 107.176 211.174)"/><path d="M0 0c0-.508.453-.885.943-.885.508 0 .942.35.942.875 0 .52-.405.916-.924.916C.463.906 0 .52 0 0m.059-2.512a.577.577 0 0 1 .291-.347 1 1 0 0 1 .451-.094c.847 0 1.074.779 1.178 1.316l-.02.018c-.414-.356-.912-.516-1.467-.516-1.281 0-2.222.733-2.222 2.08 0 1.592 1.271 2.448 2.757 2.448 1.92 0 2.76-1.469 2.76-3.118 0-2.078-.98-3.586-2.986-3.586-1.215 0-2.26.508-2.465 1.799z" style="fill:#fff;fill-opacity:1;fill-rule:nonzero;stroke:none" transform="matrix(.80063 0 0 -.80063 112.786 210.806)"/><path d="M0 0c0-.508.451-.885.941-.885.508 0 .942.35.942.875 0 .52-.404.916-.924.916C.461.906 0 .52 0 0m.057-2.512a.574.574 0 0 1 .293-.347.987.987 0 0 1 .449-.094c.849 0 1.074.779 1.178 1.316l-.018.018c-.416-.356-.914-.516-1.471-.516-1.279 0-2.22.733-2.22 2.08 0 1.592 1.271 2.448 2.757 2.448 1.92 0 2.758-1.469 2.758-3.118 0-2.078-.978-3.586-2.984-3.586-1.213 0-2.258.508-2.465 1.799z" style="fill:#fff;fill-opacity:1;fill-rule:nonzero;stroke:none" transform="matrix(.80063 0 0 -.80063 118.804 210.806)"/><path d="M0 0c.01.773.32 1.338.818 1.713.5.367 1.178.547 1.912.547 1.901 0 2.534-1.131 2.534-1.686 0-1.375-.868-1.375-.868-1.402v-.018c0-.076 1.073-.076 1.073-1.537 0-.797-.602-2.06-2.748-2.06-2.948 0-2.957 2.072-2.908 2.56H1.6c-.008-.347.076-.611.254-.781.181-.217.453-.293.783-.293.537 0 .875.199.875.734 0 .577-.444.68-.875.68-.274 0-.407-.027-.547-.049v1.281c.14-.009.293-.037.547-.037.394 0 .892.084.892.592 0 .414-.47.574-.857.574-.508 0-.92-.271-.902-.818Z" style="fill:#fff;fill-opacity:1;fill-rule:nonzero;stroke:none" transform="matrix(.80063 0 0 -.80063 123.533 210.7)"/><path d="m0 0-.119 2.658 5.014.227-5.225 4.5-.149 3.318 4.987-4.51 7.086 5.508.148-3.336-5.273-3.883 1.609-1.457 3.895.174.119-2.658z" style="fill:#9d9d9e;fill-opacity:1;fill-rule:nonzero;stroke:none" transform="matrix(.80063 0 0 -.80063 14.139 168.041)"/><path d="m0 0 .234 3.127-4.543-1.191-.002-.034Zm-7.385.805.203 2.722L5.227 7.141 5.02 4.385l-2.756-.713-.336-4.514 2.617-1.146-.201-2.69Z" style="fill:#9d9d9e;fill-opacity:1;fill-rule:nonzero;stroke:none" transform="matrix(.80063 0 0 -.80063 19.95 155.383)"/><path d="m0 0-8.063-3.082.53 2.953 5.205 1.941-4.209 3.615.525 2.92 6.549-5.74 4.57-.82-.468-2.619z" style="fill:#9d9d9e;fill-opacity:1;fill-rule:nonzero;stroke:none" transform="matrix(.80063 0 0 -.80063 20.874 146.92)"/><path d="m0 0-.818-2.515-8.471.603-.01-.032 7.209-4.471-.836-2.564-12.502.706.824 2.53 8.428-.733.012.034-7.184 4.551.774 2.37 8.57-.619.012.034-7.317 4.469.809 2.483z" style="fill:#9d9d9e;fill-opacity:1;fill-rule:nonzero;stroke:none" transform="matrix(.80063 0 0 -.80063 28.522 132.692)"/><path d="M0 0a4.002 4.002 0 0 1 1.422-.053 2.84 2.84 0 0 1 1.269.514c.383.276.704.672.961 1.188.256.516.379 1.013.364 1.495a2.828 2.828 0 0 1-.354 1.321 4.073 4.073 0 0 1-.896 1.091 6.045 6.045 0 0 1-1.276.842 6.546 6.546 0 0 1-1.496.537c-.5.109-.98.134-1.439.073a2.83 2.83 0 0 1-1.278-.511c-.39-.279-.715-.677-.972-1.192-.256-.516-.377-1.015-.364-1.495.014-.48.135-.922.362-1.326.228-.404.539-.772.927-1.105a6.518 6.518 0 0 1 1.329-.87A6.114 6.114 0 0 1 0 0m-4.691-.391a6.047 6.047 0 0 0-1.305 1.965 5.28 5.28 0 0 0-.375 2.288c.041.807.266 1.62.674 2.439.408.82.92 1.489 1.539 2.009a5.378 5.378 0 0 0 2.056 1.088 5.901 5.901 0 0 0 2.354.146 7.742 7.742 0 0 0 2.424-.763 7.365 7.365 0 0 0 2.015-1.448 5.823 5.823 0 0 0 1.274-1.95A5.422 5.422 0 0 0 6.33 3.09c-.043-.806-.268-1.618-.676-2.438-.406-.82-.92-1.49-1.539-2.008a5.37 5.37 0 0 0-2.037-1.088 5.883 5.883 0 0 0-2.322-.16 7.292 7.292 0 0 0-2.383.731A7.554 7.554 0 0 0-4.691-.391" style="fill:#9d9d9e;fill-opacity:1;fill-rule:nonzero;stroke:none" transform="matrix(.80063 0 0 -.80063 27.33 126.4)"/><path d="m0 0 1.471 2.198 9.558-.323.02.028-6.746 4.52 1.386 2.071 10.057-6.736-1.482-2.212-9.535.326-.018-.027 6.732-4.51-1.386-2.071z" style="fill:#9d9d9e;fill-opacity:1;fill-rule:nonzero;stroke:none" transform="matrix(.80063 0 0 -.80063 26.337 115.143)"/><path d="M0 0c1.16-1.109 1.727-2.271 1.699-3.486-.027-1.216-.611-2.42-1.75-3.614-1.14-1.194-2.312-1.833-3.517-1.916-1.205-.085-2.393.431-3.561 1.547l-5.445 5.199 1.838 1.925 5.443-5.198a5.2 5.2 0 0 1 .801-.636c.263-.164.547-.267.847-.302.299-.039.618.015.95.159.332.143.674.4 1.025.767.639.67.94 1.283.899 1.838-.041.555-.397 1.151-1.067 1.791l-5.445 5.198 1.838 1.925z" style="fill:#9d9d9e;fill-opacity:1;fill-rule:nonzero;stroke:none" transform="matrix(.80063 0 0 -.80063 45.259 101.163)"/><path d="m0 0 2.051 1.668 9.045-3.109.025.022-5.127 6.298 1.934 1.573 7.64-9.389-2.064-1.679-9.02 3.107-.025-.021 5.115-6.286-1.933-1.572Z" style="fill:#9d9d9e;fill-opacity:1;fill-rule:nonzero;stroke:none" transform="matrix(.80063 0 0 -.80063 42.927 95.131)"/><path d="m0 0 2.203 1.492L8.988-8.532l-2.203-1.492Z" style="fill:#9d9d9e;fill-opacity:1;fill-rule:nonzero;stroke:none" transform="matrix(.80063 0 0 -.80063 51.384 88.564)"/><path d="m0 0-2.611-1.482-9.395 8.586 2.389 1.357 6.545-6.071.029.015-1.826 8.749 2.389 1.356z" style="fill:#9d9d9e;fill-opacity:1;fill-rule:nonzero;stroke:none" transform="matrix(.80063 0 0 -.80063 63.883 92.207)"/><path d="m0 0 8.313 3.584.886-2.054L3.33-1.001l1.025-2.381L9.742-1.06l.821-1.899-5.387-2.322L6.35-8.006l5.994 2.584.886-2.055-8.439-3.637z" style="fill:#9d9d9e;fill-opacity:1;fill-rule:nonzero;stroke:none" transform="matrix(.80063 0 0 -.80063 63.37 81.515)"/><path d="m0 0 2.793.833c.586.174.984.438 1.197.791.213.352.235.814.063 1.389-.164.552-.432.915-.801 1.089-.371.17-.848.17-1.434-.003l-2.793-.835Zm-4.117 4.485 6.254 1.866c.509.152 1 .211 1.47.173a3.192 3.192 0 0 0 2.274-1.188c.271-.338.474-.728.607-1.172.209-.705.239-1.347.088-1.928-.15-.583-.504-1.09-1.056-1.527l.009-.033C6.148.695 6.658.503 7.057.097c.396-.407.72-.951.97-1.63.014-.044.059-.172.133-.385.197-.543.385-1 .561-1.373.175-.372.381-.653.613-.843l-2.551-.76a2.822 2.822 0 0 0-.426.687c-.121.269-.263.622-.429 1.057a16.44 16.44 0 0 1-.379.913c-.274.601-.594.996-.963 1.18-.367.186-.865.185-1.494-.003L.541-1.821l1.354-4.533-2.551-.76z" style="fill:#9d9d9e;fill-opacity:1;fill-rule:nonzero;stroke:none" transform="matrix(.80063 0 0 -.80063 75.586 81.402)"/><path d="M0 0c.131-.746.477-1.257 1.035-1.53.559-.277 1.223-.347 1.99-.211.256.046.512.113.764.203.254.091.492.213.711.366.221.153.385.34.496.561.109.219.141.473.09.763-.047.268-.16.481-.336.638-.178.159-.4.28-.668.365a4.756 4.756 0 0 1-.857.186c-.305.038-.713.07-1.223.095-.338.032-.606.054-.803.066-.549.053-1.037.12-1.465.208a4.522 4.522 0 0 0-1.201.417 2.78 2.78 0 0 0-.951.813c-.262.35-.441.792-.535 1.328-.102.587-.068 1.133.101 1.634.17.501.444.94.819 1.315a4.87 4.87 0 0 0 1.318.928 5.944 5.944 0 0 0 1.588.51 7.526 7.526 0 0 0 1.865.105 4.541 4.541 0 0 0 1.641-.418 3.4 3.4 0 0 0 1.254-1.019c.344-.445.572-1.001.689-1.67l-2.537-.445c-.15.662-.459 1.09-.922 1.284-.465.195-1.049.23-1.75.107-.49-.087-.892-.273-1.209-.558-.318-.285-.435-.656-.357-1.112.041-.233.119-.412.232-.534.114-.126.291-.22.532-.287.242-.067.556-.123.943-.17a47.859 47.859 0 0 1 1.889-.168c.033.006.125 0 .279-.02a.285.285 0 0 1 .101.001c.418-.029.805-.077 1.163-.141a4.957 4.957 0 0 0 1.15-.374c.41-.185.775-.472 1.096-.857.32-.387.533-.88.638-1.48.2-1.136-.072-2.132-.816-2.993-.744-.859-1.902-1.427-3.471-1.702a7.414 7.414 0 0 0-1.972-.088 4.948 4.948 0 0 0-1.756.492 3.768 3.768 0 0 0-1.354 1.14c-.367.491-.613 1.093-.74 1.806z" style="fill:#9d9d9e;fill-opacity:1;fill-rule:nonzero;stroke:none" transform="matrix(.80063 0 0 -.80063 85.089 81.074)"/><path d="m0 0 2.652.237L3.725-11.82l-2.653-.236Z" style="fill:#9d9d9e;fill-opacity:1;fill-rule:nonzero;stroke:none" transform="matrix(.80063 0 0 -.80063 91.852 73.506)"/><path d="m0 0-3.627-.068-.043 2.236 9.916.186.043-2.237L2.662.049l.186-9.865-2.662-.05Z" style="fill:#9d9d9e;fill-opacity:1;fill-rule:nonzero;stroke:none" transform="matrix(.80063 0 0 -.80063 98.538 74.844)"/><path d="m0 0-3.779 7.763 2.99-.27 2.391-5.014 3.232 4.507 2.955-.266L2.645-.305l-.416-4.628-2.653.24z" style="fill:#9d9d9e;fill-opacity:1;fill-rule:nonzero;stroke:none" transform="matrix(.80063 0 0 -.80063 107.423 79.166)"/><path d="M0 0a4.064 4.064 0 0 1 .23-1.404c.159-.44.411-.82.758-1.141.348-.319.799-.556 1.356-.704.556-.148 1.07-.168 1.537-.059.469.11.877.313 1.224.613.35.298.647.663.889 1.095.246.433.436.906.572 1.419.143.535.217 1.059.227 1.572.008.511-.064.987-.217 1.426a2.82 2.82 0 0 1-.756 1.149c-.349.327-.804.564-1.361.714-.557.148-1.068.169-1.537.058a2.829 2.829 0 0 1-1.227-.619 4.146 4.146 0 0 1-.898-1.13 6.514 6.514 0 0 1-.586-1.475A6.043 6.043 0 0 1 0 0m-1.32 4.52A6.05 6.05 0 0 0 .344 6.189a5.263 5.263 0 0 0 2.168.826c.799.121 1.638.062 2.523-.173.885-.237 1.643-.605 2.276-1.107a5.351 5.351 0 0 0 1.476-1.797A5.856 5.856 0 0 0 9.4 1.66a7.798 7.798 0 0 0-.261-2.526 7.42 7.42 0 0 0-1.018-2.265 5.808 5.808 0 0 0-1.654-1.638 5.438 5.438 0 0 0-2.174-.815c-.799-.12-1.641-.062-2.525.173-.885.236-1.643.605-2.276 1.106A5.39 5.39 0 0 0-1.98-2.524a5.894 5.894 0 0 0-.622 2.245 7.305 7.305 0 0 0 .241 2.478c.23.863.578 1.636 1.041 2.321" style="fill:#9d9d9e;fill-opacity:1;fill-rule:nonzero;stroke:none" transform="matrix(.80063 0 0 -.80063 119.619 81.202)"/><path d="m0 0 7.91-3.141-.824-2.079-5.438 2.157L.617-5.662l4.711-1.87-.764-1.923-4.71 1.871-1.846-4.649-2.473.983z" style="fill:#9d9d9e;fill-opacity:1;fill-rule:nonzero;stroke:none" transform="matrix(.80063 0 0 -.80063 130.38 78)"/><path d="m0 0 2.699-1.595.946 4.601-.03.016zm3.994 6.265 2.35-1.388L4.088-7.848 1.707-6.443l.584 2.787-3.898 2.302-2.19-1.838-2.32 1.37z" style="fill:#9d9d9e;fill-opacity:1;fill-rule:nonzero;stroke:none" transform="matrix(.80063 0 0 -.80063 141.313 89.582)"/><path d="m0 0 2.318-1.771c.485-.371.932-.539 1.342-.502.412.035.799.29 1.162.766.35.458.487.887.408 1.288-.078.401-.359.786-.845 1.156L2.068 2.708Zm1.207 5.967 5.188-3.962A4.023 4.023 0 0 0 7.4.919a3.191 3.191 0 0 0 .375-2.538 3.411 3.411 0 0 0-.589-1.179c-.448-.585-.95-.988-1.508-1.208-.561-.22-1.178-.233-1.858-.042l-.021-.027c.381-.489.523-1.015.43-1.575-.094-.561-.344-1.143-.747-1.746a16.08 16.08 0 0 1-1.013-1.593c-.198-.361-.305-.692-.321-.991L.033-8.366c.057.241.158.49.305.748.146.259.348.581.601.97.235.361.407.642.516.843.326.576.455 1.067.389 1.474-.067.406-.36.808-.881 1.206L-1.152-1.51l-2.871-3.76-2.116 1.616z" style="fill:#9d9d9e;fill-opacity:1;fill-rule:nonzero;stroke:none" transform="matrix(.80063 0 0 -.80063 149.934 93.289)"/><path d="m0 0-2.625 2.504 1.545 1.619 7.178-6.845-1.545-1.619-2.625 2.504-6.811-7.141-1.926 1.837Z" style="fill:#9d9d9e;fill-opacity:1;fill-rule:nonzero;stroke:none" transform="matrix(.80063 0 0 -.80063 159.346 97.716)"/><path d="M0 0c.047.312-.02.586-.197.818-.18.235-.414.375-.707.423a1.016 1.016 0 0 1-.803-.208 1.61 1.61 0 0 1-.52-.643 5.479 5.479 0 0 1-.289-.979 2.212 2.212 0 0 0-.054-.233c.468-.168.861-.259 1.177-.274.319-.013.633.099.948.339.252.193.4.445.445.757m-4.916-1.719a3.769 3.769 0 0 1-1.389.464 1.64 1.64 0 0 1-1.23-.331c-.35-.268-.543-.633-.582-1.096a1.757 1.757 0 0 1 .365-1.246c.248-.323.541-.558.881-.704.338-.145.74-.234 1.203-.264zm-1.26-5.165a4.99 4.99 0 0 0-1.808.581 4.633 4.633 0 0 0-1.405 1.252c-.33.43-.574.886-.736 1.369a3.663 3.663 0 0 0-.197 1.416c.07 1.007.549 1.851 1.437 2.529a3.063 3.063 0 0 0 2.108.65C-6.002.866-5.225.641-4.449.238c.144.594.31 1.084.5 1.47.187.386.47.724.847 1.012a2.5 2.5 0 0 0 1.045.477c.371.071.748.063 1.127-.024a3.22 3.22 0 0 0 1.069-.464c.334-.222.623-.494.871-.817.582-.763.865-1.548.845-2.351-.017-.805-.396-1.487-1.132-2.05-.53-.405-1.108-.606-1.737-.602-.629.003-1.285.164-1.968.481l-.575-2.403c.453.076.924.252 1.412.525l1.266-1.657a5.919 5.919 0 0 0-1.504-.67 5.46 5.46 0 0 0-1.576-.212l-.785-3.693-1.791 2.344z" style="fill:#9d9d9e;fill-opacity:1;fill-rule:nonzero;stroke:none" transform="matrix(.80063 0 0 -.80063 169.5 108.446)"/><path d="m0 0 1.104-2.102c.189-.36.423-.668.705-.922a2.54 2.54 0 0 1 1-.556c.386-.116.826-.138 1.316-.066.492.074 1.023.26 1.594.56 1.15.605 1.904 1.301 2.263 2.088.358.788.243 1.744-.345 2.864l-.883 1.681Zm7.498 6.944 2.428-4.623c.762-1.45.924-2.862.49-4.232-.436-1.372-1.514-2.51-3.234-3.414-.791-.415-1.567-.695-2.327-.838a5.475 5.475 0 0 0-2.199.013 4.58 4.58 0 0 0-1.937.936c-.586.471-1.09 1.107-1.51 1.906l-2.428 4.623z" style="fill:#9d9d9e;fill-opacity:1;fill-rule:nonzero;stroke:none" transform="matrix(.80063 0 0 -.80063 170.475 121.643)"/><path d="m0 0 3.229-8.458-2.09-.799-2.28 5.972-2.423-.925 2.091-5.479-1.933-.739-2.09 5.481-2.772-1.059 2.327-6.097-2.09-.798-3.278 8.585z" style="fill:#9d9d9e;fill-opacity:1;fill-rule:nonzero;stroke:none" transform="matrix(.80063 0 0 -.80063 181.388 125.87)"/><path d="M0 0c-.732-.189-1.215-.575-1.443-1.153-.229-.579-.246-1.247-.049-2.001.064-.252.152-.501.263-.747.11-.245.25-.471.422-.678.17-.207.37-.358.598-.448.229-.093.484-.103.77-.029.261.068.464.198.609.387.142.189.246.42.309.693.064.273.103.564.117.871.013.308.011.715-.004 1.224.004.341.006.61.002.807.008.551.037 1.043.088 1.476.05.435.158.845.32 1.231.162.388.406.725.734 1.014.328.29.754.502 1.28.64.58.15 1.125.161 1.638.031.512-.13.971-.367 1.375-.712a4.792 4.792 0 0 0 1.032-1.238c.283-.48.494-.995.636-1.542.166-.634.25-1.252.254-1.851a4.592 4.592 0 0 0-.283-1.668 3.42 3.42 0 0 0-.916-1.333c-.416-.377-.951-.651-1.609-.822l-.647 2.494c.647.204 1.049.545 1.205 1.024.156.477.145 1.061-.035 1.751-.125.481-.342.868-.652 1.162-.311.293-.688.381-1.137.265-.231-.06-.402-.151-.516-.275C4.246.451 4.166.267 4.119.02a6.738 6.738 0 0 1-.094-.953c-.015-.389-.019-1.021-.015-1.896.01-.032.01-.125.004-.278a.324.324 0 0 1 .007-.104c.004-.419-.011-.809-.046-1.168a4.976 4.976 0 0 0-.282-1.177 3.109 3.109 0 0 0-.765-1.163c-.36-.347-.832-.599-1.424-.754-1.115-.289-2.133-.099-3.049.575-.916.671-1.574 1.78-1.975 3.322a7.368 7.368 0 0 0-.246 1.959c.008.639.125 1.236.348 1.79a3.798 3.798 0 0 0 1.027 1.441c.461.406 1.043.699 1.743.881z" style="fill:#9d9d9e;fill-opacity:1;fill-rule:nonzero;stroke:none" transform="matrix(.80063 0 0 -.80063 178.766 137.904)"/><path d="m0 0 .461-2.622-11.92-2.099-.463 2.621z" style="fill:#9d9d9e;fill-opacity:1;fill-rule:nonzero;stroke:none" transform="matrix(.80063 0 0 -.80063 186.841 144.015)"/><path d="M0 0c-.611.391-1.076.861-1.389 1.412a4.258 4.258 0 0 0-.552 1.756c-.079.912.011 1.752.269 2.516A5.435 5.435 0 0 0-.5 7.674 5.92 5.92 0 0 0 1.4 9.02a7.349 7.349 0 0 0 2.414.617 7.563 7.563 0 0 0 2.536-.192 6.04 6.04 0 0 0 2.136-.998 5.237 5.237 0 0 0 1.512-1.758c.385-.709.617-1.521.695-2.433a5.767 5.767 0 0 0-.13-1.83A5.233 5.233 0 0 0 9.871.773 4.386 4.386 0 0 0 8.627-.49a4.612 4.612 0 0 0-1.752-.703L6.658 1.34c.639.203 1.115.547 1.424 1.033.311.484.438 1.049.383 1.691-.051.575-.205 1.063-.467 1.465a2.803 2.803 0 0 1-1 .944 4.103 4.103 0 0 1-1.367.461 6.472 6.472 0 0 1-3.082-.266 4.023 4.023 0 0 1-1.242-.693 2.829 2.829 0 0 1-.817-1.1C.307 4.439.24 3.934.289 3.359c.074-.855.354-1.509.842-1.961C1.617.947 2.287.719 3.137.713l-.229 2.668 1.977.172.435-5.069-6.519-.562-.145 1.691Z" style="fill:#9d9d9e;fill-opacity:1;fill-rule:nonzero;stroke:none" transform="matrix(.80063 0 0 -.80063 179.717 156.318)"/><path d="m0 0-.107-2.643-8.319-4.72v-.033l8.114-.329-.102-2.49-12.094.488.108 2.661 8.3 4.705v.033l-8.095.326.099 2.49z" style="fill:#9d9d9e;fill-opacity:1;fill-rule:nonzero;stroke:none" transform="matrix(.80063 0 0 -.80063 188.458 159.79)"/></g></svg>