<svg xmlns="http://www.w3.org/2000/svg" width="525pt" height="525pt" fill-rule="evenodd" viewBox="0 0 525 524.99999"><path d="M442.512 34.038c144.392 0 262.511 118.028 262.511 262.318 0 144.273-118.12 262.318-262.511 262.318-144.387 0-262.489-118.045-262.489-262.318 0-144.29 118.102-262.318 262.489-262.318z" style="fill:#815033;stroke:none;stroke-width:5.67689" transform="translate(-180.023 -34.038)"/><path d="M442.512 38.626c141.86 0 257.935 115.957 257.935 257.73 0 141.741-116.075 257.72-257.935 257.72-141.855 0-257.902-115.979-257.902-257.72 0-141.773 116.047-257.73 257.902-257.73z" style="fill:#fff;stroke:none;stroke-width:5.67689" transform="translate(-180.023 -34.038)"/><path d="m194.679 58.714-.01.008-.05.07-1.462 3.557c-.063-.143-.533-.495-2.224-1.674-.199-.038-.224-.044-1.43 1.285-.022.293 1.762 1.128 3.263 1.786-.137-.069-.242.15-.818 1.569-.008.01-.122.178-.803 1.189l-.001.016c0 .272.17.328.97.493.196-.043.207-.043 3.344-6.904.027.036 1.014-1.359 1.014-1.372-.007-.025-.428-.816-.428-.816-.212-.125-.279-.1-1.365.793zM208.738 43.13c-.039.01-.066.024-1.28.939.144-.2.272-.585.305-.68.002-.1-.019-.211-.534-2.45-.13-.162-.148-.183-1.597.067h-.014l-.079.037-3.155 2.588c.017-.016-1.419.529-1.419.752 0 .089 0 .153.695.69.166.049.189.055 1.35-.72l2.737-2.007c.03.207.258.705 1.08 2.364-.184-.027-.764.41-3.795 2.701-.005.004-1.319.654-1.319.654l-.014.131c0 .189.136.341.604.768.269.06 3.535-2.233 3.568-2.255-.113.166.118.591 1.188 2.4l.667 1.423c.072.08.16.108.398.045.118-.102.125-.109.505-2.274-.003-.107-.004-.111-1.187-2.111l-.089-.147c0-.004-.11-.277-.139-.353.056.035.316-.142 1.496-.968l1.495-.619c.08-.056.107-.075.122-.938-.112-.253-.216-.257-1.589-.038z" style="fill:#815033;stroke:none" transform="matrix(5.6769 0 0 5.67688 -1021.973 -193.228)"/><path d="M193.534 60.735c.044.009.223-.09.223-.09.085-.139.04-.434-.265-1.648-.039-.09-.041-.094-3.132-2.62-.189-.054-.212-.058-1.316.888l-.01.01-.048.073-1.597 4.15c-.008.006-.119.164-.74 1.032l-.105.146v.018c0 .286.179.333.948.434.173-.04.191-.046.8-1.305.002-.005 1.408-3.2 1.551-3.529.016.152.615.542 3.691 2.441zM228.919 35.66c-.136.07-.19.11-.23 1.925l-.888.186c-.002 0-.477.02-.645.03.053-.047.124-.205.253-.705-.035-.181-.04-.203-1.049-.708-.091-.028-.094-.028-3.242.472 0 0-.164.027-.177.027-.035-.005-.247-.025-1.058-.107-.245.107-.24.266-.129.905.09.116.616.168 3.861-.052-.042.045-.079.261-.122 1.006-.035-.04-.366-.026-2.033.116l-1.385-.158c-.236.1-.252.105-.024 4.218.145.214.155.232 5.808-1.154.101-.057.136-.13.097-.6-.133-.197-.152-.204-4.253.258.027-.02.049-.067.051-.126l-.025-1.607c.036.046.496.046 3.063-.106.137-.077.225-.33.312-.797.034.026.18.047.66.052l1.057-.101c-.07.008-.107.207-.13.935-.059-.014-.274.009-.886.117l-1.77.13c-.116.046-.162.093-.157.738.116.194.129.216 1.945.085l1.025-.091c-.103.036-.137.39-.163 1.726l-.131 2.684c.001.021.327.213.327.213.126-.026.173-.043 1.608-2.815.013-.045.018-.07.02-4.546l.017-.172.126-1.652c-.083-.204-.094-.232-1.733-.327zM251.973 43.521c-.243-.025-.259-.023-1.874 2.689h.001c0-.058-.212-.106-.25-.112a6.685 6.685 0 0 0-.394-.192c.008-.008.177-.242.439-.657l1.046-1.501.001-.03c0-.21-.14-.332-1.306-1.126-.083-.008-.159-.007-.713.837a.128.128 0 0 0 .01-.05c0-.169-.444-.434-3.007-1.767l-1.055-.769c-.323-.004-.838 1.066-.898 1.196l-1.847 3.102v.026c0 .183.107.347.715 1.173.083.077.083.077 3.687.776 0 0 .202.04.272.051-.113.014-.302.272-.416.437l-1.388 2.017v.003c0 .05.177.354.177.354.121.04.17.05 2.705-1.39.061-.05.061-.05 1.01-1.645l.109-.184c.026.038.115.108.369.246.008.007.21.088.245.102-.052.04-.274.386-1.223 1.982l-1.49 2.235-.002.004c0 .052.182.352.182.352.12.039.171.05 2.826-1.593.053-.049.059-.05 2.347-3.9l1.044-1.5c.03-.22.033-.246-1.322-1.166zm-4.96 3.021c0-.073-.398-.292-2.969-1.15.159-.148.5-.69 1.737-2.763.098.042 2.679 1.198 2.679 1.198.005 0 .428-.177.446-.187-.135.034-1.806 2.764-1.893 2.902zM261.96 61.88c.011.005.443-.01.443-.01.009 0 .402-.085.402-.085.097-.065.116-.073.27-.961l-.027-.816.576.4c.039.02.463.015.492 0 .094-.063.122-.08.146-1.05-.003-.033-.014-.06-.129-.197.154.072.639.311.639.311.25-.027.3-.134.475-.961-.011-.156-.796-.808-.952-.909 0-.009-.822-1.469-.822-1.469-.252-.127-.363-.029-.69.424l-.014.015-.023.056.004.123c.004.023 1.021 1.826 1.276 2.28-.197-.231-.558-.64-1.251-1.42 0-.006-.889-1.623-.889-1.623 0-.012-.116-.54-.116-.54-.028-.05-.06-.093-.487-.074l-.058.002-.084.129-.029.915c.002.028.003.043.909 1.704-.006-.013.072.09.142.18-.253-.247-.615-.547-.615-.547-.667-.48-1.255-.776-1.738-.888-.045 0-.069 0-.629.513-.01.008-.412.512-.412.512.305.79.78 1.52 1.486 2.363.644.758 1.219 1.303 1.705 1.623zm-1.05-3.139 1.198.613c-.002 0 .399.277.526.365a.135.135 0 0 1 .038.025l-.038-.025c-.08-.033-.15.11-.286.595l-.183.338a.082.082 0 0 1-.024.046l.024-.046c0-.004.003-.006.003-.012 0-.11-.185-.338-.715-.933-.01-.017-.13-.22-.589-.985l.046.02z" style="fill:#815033;stroke:none" transform="matrix(5.6769 0 0 5.67688 -1021.973 -193.228)"/><path d="M266.593 60.542c-.199-.147-.204-.15-3.883 1.862.005 0-.695.302-.695.302l-.666.279.002-.017c0-.244-2.046-2.958-2.067-2.987l-.534-1.314c-.25-.167-.38-.055-.892.53l-.014.021-.029.058.004.136c.011.03.723 1.18.723 1.18-.009.015 1.846 2.748 2.117 3.15-.122-.076-.602.126-2.57 1.01-.093.296.017.432.87 1.168.13.06.139.064 3.042-.685l.045-.012.057-.057.003-.138-.133-1.4c0-.005-.082-.126-.133-.207.139.184.861.442 1.502.654.059.009.138-.02.755-.339 0 .01.019.165.019.165 0 .006.354 1.127.354 1.127.133.154.192.164 1.285-.047.098-.053.127-.174.127-.174.004-.137-.098-.33-.654-1.132.01.034-.238-.5-.24-.508.022.046 1.076-.507 1.076-.507l1.069-.437c.075-.06.096-.162.096-.162.001-.127-.058-.304-.636-1.519zM244.694 113.554c-.451-.148-.919-.103-1.389.133-1.128.568-1.344 1.885-.561 3.441.423.841 1.062 1.456 1.75 1.683.459.152.923.12 1.344-.092.426-.214.72-.556.872-1.021.229-.69.117-1.569-.307-2.41-.455-.902-1.061-1.518-1.709-1.734zM226.253 117.647c-1.263-.008-2.056 1.068-2.069 2.807-.009 1.396.684 2.815 2.029 2.826.476.004.894-.169 1.243-.511.517-.512.818-1.345.824-2.288.008-1.009-.252-1.832-.73-2.316-.334-.339-.77-.514-1.297-.518zM206.637 112.262l-.679-.414c-.08.13-1.02 1.673-1.102 1.804l1.05.638c.36.221.715.299 1.026.221.261-.063.485-.236.646-.502a.89.89 0 0 0 .147-.474c0-.529-.556-.947-1.088-1.273zM192.534 95.878c-.529-1.146-1.839-1.408-3.421-.68-1.269.584-2.261 1.815-1.699 3.035.562 1.22 2.142 1.269 3.412.685.602-.279 2.502-1.315 1.708-3.04z" style="fill:#815033;stroke:none" transform="matrix(5.6769 0 0 5.67688 -1021.973 -193.228)"/><path d="M260.751 80.605c0 18.89-15.469 34.344-34.375 34.344-18.905 0-34.373-15.453-34.373-34.344h-11.576c0 25.252 20.675 45.913 45.949 45.913 25.273 0 45.952-20.661 45.952-45.913zm-75.89 13.621-.715-2.811 1.033-.262.13.509 1.532-1.894-.652-.394c-.063.018-1.227.312-1.374.35l.136.532-1.032.262-.649-2.55 1.032-.26.16.627c.16-.041 4.752-1.21 4.912-1.247l-.157-.62.948-.242.084-.022.646 2.543-1.032.26-.135-.532c-.143.036-1.828.466-2.172.552.32.175 2.394 1.3 2.683 1.46l-.126-.496 1.033-.26.655 2.573-1.032.263-.159-.625-2.592-1.454c-.087.11-2.233 2.776-2.286 2.84l.162.635zm3.485 6.251c-.837-.312-1.491-.934-1.891-1.802a3.537 3.537 0 0 1-.34-1.485c0-.38.067-.751.201-1.116.347-.935 1.103-1.694 2.19-2.195 1.068-.49 2.17-.571 3.103-.226.837.31 1.489.926 1.884 1.783.864 1.876.018 3.854-2.057 4.806-1.082.5-2.151.579-3.09.235zm6.58 7.039c-.128.097-1.766 1.305-1.766 1.305l-.634-.855.416-.306c-.751-.159-1.345-.556-1.89-1.295-.445-.6-.674-1.266-.674-1.945 0-.152.011-.303.034-.456.148-.986.757-1.9 1.763-2.643.905-.67 1.935-.959 2.901-.814.882.133 1.653.614 2.23 1.395.409.553.611 1.144.611 1.799 0 .052-.005.104-.008.155l.342-.254.633.857-1.971 1.456-.634-.856.07-.05.021-.015c.33-.32.497-.761.497-1.218 0-.416-.136-.846-.409-1.214-.32-.435-.736-.691-1.235-.765-.668-.101-1.466.148-2.19.683-1.327.981-1.765 2.327-1.065 3.275.648.874 1.35 1.124 2.261.818l-.422-.57.856-.633 1.56 2.107-.857.633-.44-.594zm1.909 5.318c-.655-.597-.983-1.251-.983-1.944 0-.726.361-1.497 1.082-2.285 0 0 2.058-2.257 2.169-2.375-.096-.09-.473-.432-.473-.432l.654-.716.057-.065 1.946 1.774-.712.778-.406-.37-2.362 2.59c-.382.42-.582.85-.582 1.254l.001.054c.016.359.194.695.526.997.338.31.695.457 1.06.441.423-.021.853-.259 1.248-.692l2.363-2.59-.412-.375.711-.779 1.673 1.523-.712.78-.479-.435-2.169 2.376c-1.388 1.52-2.879 1.695-4.2.491zm12.004 1.881c-.536.879-1.334 1.213-2.304.994l-.05 2.394c.071.045.554.337.554.337l-.555.909-1.417-.865.132-3.376-.898-.547-.983 1.61.47.288-.556.908-2.239-1.367.554-.908s.436.266.547.332l2.639-4.322-.545-.334.509-.835.045-.071 2.458 1.496c1.1.67 1.715 1.334 1.883 2.03.107.442.025.887-.244 1.327zm3.29 6.951-2.875-1.112.385-.992.772.297c.057-.144.629-1.625.646-1.667l-.689-3.779-.439-.17.352-.911.031-.08 2.456.946-.384.992s-.338-.131-.495-.189l.399 2.475c.196-.151 1.806-1.385 2.013-1.542-.157-.063-.49-.192-.49-.192l.383-.993 2.153.831-.384.995s-.37-.144-.439-.169c-.075.053-3.099 2.273-3.138 2.301l-.645 1.667c.13.049.773.298.773.298zm9.642-3.027-1.045-.202.172-.893-2.279-.438c-.03.149-.325 1.678-.352 1.827l2.069.399-.202 1.044s-1.913-.369-2.07-.398l-.405 2.102c.154.027 2.303.442 2.457.472l.191-.988 1.045.199-.392 2.036-5.539-1.067.202-1.046.628.121.959-4.973-.629-.12.186-.962.016-.084 5.362 1.033zm4.434 5.696c-.954-.007-1.789-.346-2.413-.978-.702-.709-1.068-1.718-1.06-2.913.017-2.281 1.467-3.866 3.529-3.853 2.065.016 3.497 1.621 3.481 3.902-.016 2.276-1.471 3.857-3.537 3.842zm12.146-1.61c-.923.253-1.857.148-2.629-.292-.866-.493-1.493-1.376-1.814-2.551-.289-1.06-.172-2.127.33-3.005a3.377 3.377 0 0 1 2.048-1.606 2.724 2.724 0 0 1 2.008.196l-.118-.431.943-.259.085-.023.652 2.39-1.026.281-.023-.082-.022-.084c-.388-.856-1.236-1.248-2.163-.996-.48.133-.87.438-1.124.886-.361.629-.437 1.513-.204 2.364.43 1.567 1.598 2.463 2.842 2.175.558-.13 1.061-.484 1.344-.945.237-.385.308-.816.205-1.245l-.02-.082.992-.271.022.084c.472 1.836-.875 3.099-2.328 3.496zm7.961-3.062c-.852.428-1.75.506-2.593.227-.949-.312-1.735-1.042-2.272-2.112-1.027-2.038-.457-4.107 1.384-5.032.85-.429 1.749-.506 2.598-.226.941.312 1.751 1.062 2.279 2.112 1.024 2.034.45 4.102-1.396 5.031zm4.256-2.691-.635-.853s.41-.302.513-.381l-3.023-4.065-.513.38-.635-.854 2.108-1.566.07-.05.635.853s-.409.304-.514.38l3.023 4.066a446.26 446.26 0 0 0 1.611-1.195l-.655-.88.855-.636 1.29 1.737zm5.332-4.107-.759-.749.45-.455c-.118-.115-3.489-3.443-3.607-3.56l-.449.457-.759-.748 1.847-1.868.061-.06.757.746-.45.455 3.607 3.559c.108-.11 1.302-1.317 1.41-1.428l-.782-.771.748-.757 1.541 1.519zm4.677-4.891-.867-.62.372-.519c-.135-.094-3.992-2.846-4.126-2.942l-.371.521-.868-.62 3.121-4.37.051-.07 1.608 1.145-.619.867-.74-.528-1.349 1.888 1.516 1.081 1.225-1.713.867.617s-1.133 1.584-1.225 1.715c.126.088 1.617 1.153 1.743 1.242l1.453-2.036-.821-.586.618-.866 1.688 1.206zm6.565-11.11s-.301-.142-.465-.217c.08.267.13.53.13.796 0 .47-.122.95-.369 1.48-.387.829-1.011 1.419-1.807 1.707-.938.341-2.033.244-3.166-.285-1.02-.476-1.765-1.243-2.1-2.162a3.19 3.19 0 0 1-.193-1.095c0-.505.118-1.021.355-1.527a2.942 2.942 0 0 1 1.438-1.458l-.394-.183.414-.886.037-.08 2.222 1.036-.45.964-.078-.035s-.022-.01-.023-.012c-.834-.261-1.772.205-2.181 1.083-.228.489-.256.976-.083 1.45.23.635.83 1.217 1.646 1.597.867.404 1.748.498 2.416.254.441-.16.778-.466.972-.882.184-.397.278-.752.278-1.08 0-.486-.217-.905-.638-1.296l-.3.644-.965-.45 1.108-2.376.966.451-.312.668 1.991.928zm.047-3.068.161-.62-4.906-1.276-.16.62-1.032-.269 1.354-5.198.021-.083 1.912.497-.268 1.029-.881-.228-.584 2.246 1.802.468c.039-.154.531-2.04.531-2.04l1.03.27-.53 2.038 2.072.54c.039-.154.59-2.267.629-2.422-.14-.035-.976-.252-.976-.252l.269-1.03 2.007.522-1.42 5.454z" style="fill:#815033;stroke:none" transform="matrix(5.6769 0 0 5.67688 -1021.973 -193.228)"/><path d="M349.984 85.582c-145.412 0-264.345 118.864-264.345 264.176 0 145.3 118.933 264.187 264.345 264.187 145.42 0 264.385-118.888 264.385-264.187 0-145.312-118.965-264.176-264.385-264.176zm0 6.117c142.06 0 258.278 116.118 258.278 258.059 0 141.94-116.219 258.064-258.278 258.064-142.036 0-258.222-116.124-258.222-258.064 0-141.941 116.186-258.059 258.222-258.059z" style="fill:#815033;stroke:none;stroke-width:7.56919" transform="rotate(.009) scale(.75)"/><path d="M226.018 51.317c-6.497 0-11.765 5.264-11.765 11.757 0 6.492 5.268 11.756 11.765 11.756 6.497 0 11.765-5.264 11.765-11.756 0-6.493-5.268-11.757-11.765-11.757zm-5.495 15.76-2.326-3.597-.558.919v2.678h-1.685v-8.369h1.685v3.234l2.34-3.234h2.072l-2.849 3.596 3.321 4.773zm8.317-5.281h-1.709v-.872c0-.405-.068-.69-.206-.861-.226-.282-.69-.424-1.393-.424-.477 0-.853.144-1.128.437a1.13 1.13 0 0 0-.339.811v4.033c0 .371.133.675.4.908.274.242.635.365 1.079.365.5 0 .876-.129 1.126-.389.227-.226.34-.548.34-.968V63.83h-1.248v-1.113h2.958v4.36h-1.552l-.206-.41a3.612 3.612 0 0 1-.824.41c-.332.12-.699.18-1.104.18-1.066 0-1.802-.281-2.206-.846-.315-.451-.472-1.187-.472-2.206v-2.483c0-1.047.177-1.807.533-2.276.469-.598 1.325-.895 2.569-.895 1.172 0 2.038.252 2.595.761.525.486.787 1.196.787 2.131zm6.76 1.296c.201.13.351.274.448.435.089.148.145.32.169.523.017.137.025.355.025.652v2.375h-1.721V64.11c0-.227-.016-.375-.049-.446a.478.478 0 0 0-.279-.306c-.161-.072-.416-.125-.764-.155a23.463 23.463 0 0 0-1.502-.036v3.911h-1.709v-8.369h2.606c1.147 0 1.983.088 2.509.265.605.21.909.567.909 1.066v1.14c0 .475-.086.812-.255 1.004-.21.266-.631.445-1.26.533.363.114.654.24.873.375z" style="fill:#815033;stroke:none" transform="matrix(5.6769 0 0 5.67688 -1021.973 -193.228)"/><path d="M234.121 59.834c-.154-.04-.413-.064-.776-.072h-1.418v2.373h.194c.653 0 1.09-.003 1.308-.011.332-.017.57-.041.716-.073.145-.033.242-.097.291-.194.048-.064.072-.182.072-.35v-1.104c0-.179-.024-.301-.072-.375-.049-.088-.154-.153-.315-.194zM228.038 99.752c-.631 0-.917.513-.917.993 0 .482.286 1.001.917 1.001.63 0 .917-.519.917-1.001 0-.48-.287-.993-.917-.993zM222.852 99.752c-.631 0-.918.513-.918.993 0 .482.287 1.001.918 1.001.629 0 .917-.519.917-1.001 0-.48-.288-.993-.917-.993z" style="fill:#815033;stroke:none" transform="matrix(5.6769 0 0 5.67688 -1021.973 -193.228)"/><path d="M241.278 56.301v11.102c-1.808 1.724-3.459 4.354-3.092 8.087-1.276.474-2.615 1.194-3.961 2.257-.465-1.836-1.644-2.976-1.709-3.036l-.31-.293-.392.164c-2.994 1.26-4.941 3.035-5.791 5.265-.748 1.964-.443 3.783-.149 4.795-1.066.151-2.18.506-3.336 1.06.274-1.045.445-2.228.477-3.567l.016-.644-.647-.024c-.235-.007-5.781-.145-8.796 3.402a7.38 7.38 0 0 0-.904 1.341 14.934 14.934 0 0 1-1.452-6.44V56.3c-8.101 5.028-13.497 13.998-13.497 24.23 0 4.225.923 8.234 2.575 11.843-.061.14-.121.285-.176.435l-.008.023-.144.496c-.494 1.685-1.171 3.994.325 6.985l.147.294.323.058c.129.023 2.407.39 4.499-.832 5.211 5.655 12.681 9.197 20.98 9.197 15.751 0 28.521-12.759 28.521-28.5 0-10.23-5.397-19.2-13.499-24.229zM227.25 80.296c.681-1.776 2.251-3.221 4.649-4.317.432.537 1.207 1.713 1.207 3.26 0 .081-.002.165-.005.247-.102 1.862-1.307 3.712-3.576 5.5a7.323 7.323 0 0 0-.443-.148 7.375 7.375 0 0 0-1.863-.277 6.794 6.794 0 0 1-.354-2.147c0-.648.098-1.375.385-2.118zm-5.243 7.16c2.51-1.458 4.762-1.92 6.693-1.368 1.743.497 2.797 1.716 3.241 2.344-1.248 1.214-5.757 4.908-10.92.675.329-.48.628-1.017.89-1.606a.417.417 0 0 0 .096-.044zm-7.428-1.736c2.043-2.41 5.623-2.851 7.096-2.931-.518 7.986-6.549 9.3-8.454 9.515a12.62 12.62 0 0 1-.177-1.94c0-1.884.514-3.442 1.535-4.644zm-7.321 11.368-.569-.646-.469.724c-1.478 2.283-3.982 2.318-4.881 2.249-.459-1.023-.636-1.951-.636-2.79 0-1.115.282-2.079.532-2.93l.128-.445c1.261-3.375 4.244-4.387 5.493-4.667.316 1.341.484 2.611.484 3.787 0 .68-.053 1.328-.159 1.947l-.223 1.307 1.172-.62c5.259-2.778 8.966.643 10.055 1.86-1.534 1.8-3.27 2.753-5.172 2.81-2.682.078-4.878-1.588-5.755-2.586zm12.261 7.658h-1.203v-3.94h-1.218v-1.042h.115c.567 0 1.235-.227 1.25-.874l.002-.115h1.054zm5.344-1.364c-.377.963-1.118 1.515-2.035 1.515-1.072 0-1.979-.771-2.066-1.755l-.011-.129h1.109l.018.095a.899.899 0 0 0 .903.754c.829 0 1.079-.888 1.106-1.433a1.827 1.827 0 0 1-1.151.412c-1.125 0-2.005-.901-2.005-2.053 0-1.202.898-2.11 2.09-2.11.965 0 1.775.621 2.113 1.618.167.492.192 1.095.192 1.408 0 .312-.026 1.098-.263 1.678zm5.187 0c-.378.963-1.119 1.515-2.035 1.515-1.072 0-1.98-.771-2.066-1.755l-.011-.129h1.109l.017.095a.9.9 0 0 0 .904.754c.828 0 1.078-.888 1.105-1.433a1.827 1.827 0 0 1-1.151.412c-1.125 0-2.004-.901-2.004-2.053 0-1.202.898-2.11 2.088-2.11.966 0 1.777.621 2.116 1.618.166.494.19 1.095.19 1.408 0 .312-.024 1.098-.262 1.678zm3.22 1.409c-1.123 0-1.959-.718-2.081-1.79l-.015-.128h1.192l.016.095c.068.435.434.738.888.738.625 0 .911-.539.911-1.04 0-.574-.387-.973-.941-.973a.905.905 0 0 0-.719.336l-.035.045h-1.194l.499-3.209h3.369v1.103h-2.339l-.146.883c.261-.095.533-.155.803-.155 1.103 0 1.936.867 1.936 2.015 0 1.206-.902 2.08-2.144 2.08zm-7.014-10.01c-3.165 0-6.097-.98-8.517-2.649.853-.49 1.71-1.14 2.478-1.996 6.927 5.658 12.982-1.123 13.042-1.194l.293-.334-.206-.395c-.041-.08-.825-1.548-2.526-2.602 1.186-1.002 2.084-2.04 2.684-3.101.785.527 2.913 1.49 6.895.312.156-.037.315-.074.477-.115.04-.01.078-.024.118-.036-1.353 6.902-7.436 12.11-14.738 12.11zm14.384-13.403c-.192.064-.378.123-.561.176-3.407.76-5.501-.047-6.014-.285a6.236 6.236 0 0 0 .347-1.977c4.815-4.218 9.608-3.397 11.29-2.915-.42 1.09-1.788 3.888-5.062 5zm2.822-6.685a12.977 12.977 0 0 0-4.001.394 9.275 9.275 0 0 1-.022-.642c0-5.1 4.368-7.563 5.863-8.26.328.606.836 1.774.836 3.224 0 1.57-.6 3.459-2.676 5.284z" style="fill:#815033;stroke:none" transform="matrix(5.6769 0 0 5.67688 -1021.973 -193.228)"/></svg>