<svg xmlns="http://www.w3.org/2000/svg" xml:space="preserve" width="800.04132" height="800" viewBox="0 0 800.04133 799.99999"><path d="M0 0c0-37.006-29.997-66.997-66.999-66.997-37.001 0-66.998 29.991-66.998 66.997 0 36.998 29.997 66.993 66.998 66.993C-29.997 66.993 0 36.998 0 0" style="fill:#880827;fill-opacity:1;fill-rule:nonzero;stroke:none" transform="matrix(5.9045 0 0 -5.9045 795.613 399.99)"/><path d="M0 0c-36.529 0-66.248-29.717-66.248-66.243 0-36.529 29.719-66.247 66.248-66.247 36.53 0 66.249 29.718 66.249 66.247C66.249-29.717 36.53 0 0 0m0-133.99c-37.356 0-67.748 30.391-67.748 67.747C-67.748-28.89-37.356 1.5 0 1.5c37.356 0 67.749-30.39 67.749-67.743 0-37.356-30.393-67.747-67.749-67.747" style="fill:#cec1af;fill-opacity:1;fill-rule:nonzero;stroke:none" transform="matrix(5.9045 0 0 -5.9045 400.018 8.857)"/><path d="M0 0c0-23.347-18.928-42.271-42.269-42.271-23.343 0-42.267 18.924-42.267 42.271 0 23.345 18.924 42.267 42.267 42.267C-18.928 42.267 0 23.345 0 0" style="fill:#d1c3b0;fill-opacity:1;fill-rule:nonzero;stroke:none" transform="matrix(5.9045 0 0 -5.9045 649.592 399.99)"/><path d="M0 0c.139.167.32.045.468 0 .144-.041.148-.323.229-.462.046-.099.321-.381.348-.469.223-1.028 0-2.373-.462-3.151-.13-.239-.344-.368-.496-.372-.193-.021-.256.266-.323.372-.292.414-.072 1.397 0 1.855.074.591-.386 1.547-.09 1.977 0 0 .317.25.326.25" style="fill:#880827;fill-opacity:1;fill-rule:nonzero;stroke:none" transform="matrix(5.9045 0 0 -5.9045 375.486 353.318)"/><path d="M0 0c.248.07.613-.056.761 0l.338.131c.386.252.77.178 1.166.141.196-.024.779-.272.975-.286.308-.033 1.779-.192 3.343-.414-.016.003.83.107.622.341.129-.151-.028.128-.345.24l-.111.119c.012.013-.269.232.232.405-.187-.059.335.074.432.186.209.219-.091.45-.091.45-.739.249-1.57-.223-2.681-.113-.546.051-1.323.362-2.093.238C1.706 1.289.477.813-.112.354c0 0-.281-.485.112-.354" style="fill:#880827;fill-opacity:1;fill-rule:nonzero;stroke:none" transform="matrix(5.9045 0 0 -5.9045 292.956 359.707)"/><path d="M0 0c.758.046.791-.737.805-.657-.084-.56-1.454-.609-1.784-1.042-.959-1.253-.558-2.447-2.826-2.572 0 0-.456.106-.28.292.145.15.691.295.895.423.291.166.27.636.463.93.039.068.296.162.356.221.641.864.71 1.73 1.834 2.244.045.023.455.146.537.161" style="fill:#880827;fill-opacity:1;fill-rule:nonzero;stroke:none" transform="matrix(5.9045 0 0 -5.9045 348.172 323.992)"/><path d="M0 0c.26.149.513 0 .685-.15.099-.072.93-2.059.966-2.252.103-.727.188-2.393-.012-2.926-.275-.746-.96-1.32-.812-2.642.078-.777.423-1.384.749-2.06.039-.114.377-.773.399-.911.124-.714-.263-1.632-.324-2.209-.174-1.433.399-2.738.172-4.101-.099-.591-.29-.884-.609-1.255l-.26-.217c-.069-.14-.2-.188-.329-.291l-.157-.162c-.245-.054-.269-.199-.365-.211-.617-.134-.741.226-.705.139-.621 1.758.423 3.803-.108 5.499-.127.391-.586.774-.646 1.188-.211 1.522 1.208 2.324 1.186 3.344 0 .728-.957 1.673-1.171 2.393-.272.841-.453 2.447-.082 3.498.088.257.417.683.508 1.026.175.654.443 1.194.537 1.625.033.14.118.324.188.453.02.048.148.201.19.222" style="fill:#880827;fill-opacity:1;fill-rule:nonzero;stroke:none" transform="matrix(5.9045 0 0 -5.9045 391.017 304.156)"/><path d="M0 0c1.029.12 1.488-.288 1.009-1.162l-.2-.184c-.084-.037-.356-.389-.416-.441-.49-.365-.961-.591-1.341-1.054-.13-.154-.23-.549-.393-.683-.257-.187-1.241-.622-1.485-.664-1.241-.198-2.936 1.042-3.116 1.754-.161.618 0 1.216.268 1.355.413.21 1.522.101 1.897.139.96.071 1.56.018 2.295.275.443.142.95.601 1.482.665" style="fill:#880827;fill-opacity:1;fill-rule:nonzero;stroke:none" transform="matrix(5.9045 0 0 -5.9045 497.973 282.747)"/><path d="M0 0s.573-.247 1.099-.118c.368.091 1.05.405 1.395.463.205.052.503-.055.703 0 .568.176 1.613 1.282.36 1.403-.451.042-1.803-.465-2.226-.586C.908 1.056.646.988.296.803.202.745-.284.352-.224.417c0 0-.32-.267.224-.417" style="fill:#880827;fill-opacity:1;fill-rule:nonzero;stroke:none" transform="matrix(5.9045 0 0 -5.9045 466.79 280.29)"/><path d="M0 0c-.363.05-.363.664-1.284.466C-1.924.328-2.1-.61-3.035-.587l-.462.228c-.407.096-.697-.042-1.054.126C-6.194.539-3.276 4.48-2.335 4.43c.052 0 .535-.177.596-.231.295-.254.295-1.354.567-1.756.211-.279.54-.255.824-.463C-.049 1.758.513.978.579.575.579.575.736-.101 0 0" style="fill:#880827;fill-opacity:1;fill-rule:nonzero;stroke:none" transform="matrix(5.9045 0 0 -5.9045 414.035 292.682)"/><path d="M0 0c.024.024.024.024 0 0" style="fill:#79151f;fill-opacity:1;fill-rule:nonzero;stroke:none" transform="matrix(5.9045 0 0 -5.9045 503.606 480.784)"/><path d="M0 0c0 .021 0 .022 0 0" style="fill:#79151f;fill-opacity:1;fill-rule:nonzero;stroke:none" transform="matrix(5.9045 0 0 -5.9045 580.912 276.087)"/><path d="M0 0v-.003Z" style="fill:#79151f;fill-opacity:1;fill-rule:nonzero;stroke:none" transform="matrix(5.9045 0 0 -5.9045 503.606 480.784)"/><path d="M0 0c0-.006.003-.013.003-.021 0-.002.006-.002.006-.007C.003-.016.003-.006 0 0" style="fill:#79151f;fill-opacity:1;fill-rule:nonzero;stroke:none" transform="matrix(5.9045 0 0 -5.9045 580.912 276.087)"/><path d="m0 0 .027.061C-.006-.001-.012-.012 0 0" style="fill:#79151f;fill-opacity:1;fill-rule:nonzero;stroke:none" transform="matrix(5.9045 0 0 -5.9045 493.994 269.531)"/><path d="M0 0c-.003.007-.018.007-.024.007C0-.01.003-.01 0 0" style="fill:#79151f;fill-opacity:1;fill-rule:nonzero;stroke:none" transform="matrix(5.9045 0 0 -5.9045 452.097 387.12)"/><path d="M0 0c-.652-.15-.71 1.246-2.28.701-.085-.027-.524-.433-.562-.5-.181-.417-.084-1.477-.293-1.579 0 0-.61-.149-.491.62.189 1.23.425 1.459 1.047 1.976.081.068.311.236.435.266.739.17 2.107-.113 2.352-.49C.418.684-.028-.009 0 0m7.392 6.154c-.641-.355-2.024-.904-2.317-1.517-.162-.322-.162-.601-.292-.992-.018-.042-.191-.11-.241-.228-.678 0-1.275.043-1.864-.113-.459-.13-1.117-.623-1.631-.708-1.035-.179-1.83.281-2.798.117-.436-.078-.71-.523-1.063-.701-.306-.149-.432-.149-.665-.363l-.22-.246a3.672 3.672 0 0 0-.206-.444c-.211-.32-.296-.64-.347-.984-.051-.329-.241-1.126-.417-1.454-.084-.162-.522-.519-.582-.664-.037-.1-.136-.202 0-.348-.155.165-.124-.159.715-.206.924-.017 2.938.597 2.938.597l.967.521c.19.147.936.708 1.099.905.706.875 2.588 4.057 4.049 3.221l.266-.187c.35-.587-.091-2.263-.354-2.649L4.1-.682c-.259-.086-.45-.761-.483-1.081-.06-.499.081-.951.121-1.235.075-.605.138-1.368-.236-2.112-.081-.142-.293-.403-.235-.807.069-.457.718-.794.812-1.174.058-.19.224-.221 0-.581-.124-.198-.658-.537-.812-.7-.211-.217-.024-.552.111-.684.405-.366.737-.409 1.051-.833.447-.572.42-1.069 1.404-1.163.773-.077 1.864-.117 1.404.939l-.235.389c-.272.685-.752 1.301-.818 2.052-.091.958.679 1.44.356 2.215-.263.592-1.425.523-1.519 1.293-.054.431.386 1.341.468 1.754.088.557-.06.915.121 1.394.115.342.625.73.685 1.162.106.769-.485 1.257-.229 2.096.13.435.806.389 1.057.702.323.439.148 1.032.341 1.643.024.068.19.434.221.495-.018.026.135.78.135.78-.103.474-.392.281-.428.292" style="fill:#880827;fill-opacity:1;fill-rule:nonzero;stroke:none" transform="matrix(5.9045 0 0 -5.9045 328.634 330.762)"/><path d="M0 0c.619.375 1.213.779 1.775 1.19.257-.299.535-.58.855-.844C2.301.258 1.277.13 0 0m-2.521 2.121c1.21.335 2.276.681 2.723.941.166.01.317.01.483.023.07-.325.193-.649.387-.972.039-.073.082-.13.121-.187-.731-.016-2.205.078-3.714.195m11.688-4.38c.921.213 1.193-.021 1.628-1.067.332-.618 1.012-1.439 1.274-1.822-1.056-.125-2.742 1.317-3.211 2.109-.301.387.155.697.309.78m2.081 3.328c-.042-.018-.049-.026.015.004-.003 0-.009-.004-.015-.004.172.076.927.432 1.126.504.794.281 1.22-.143 1.954.266.169.104.365.385.525.516.136.125.393.111.556.231.405.268 1.162 1.138 1.685 1.233.299.056.296-.022.449-.037 0-.03.224.045.166-.403-.138-.864 1.894.01 3.226-.307.905-.218 1.79-.521 1.555-1.108.03.063-.266-.182-.336-.223-.624-.451-1.111.041-1.425.09-.546.064-.936-.102-1.491-.031 0 .007-.671.221-.671.221-.422.019-1.032-.196-1.356-.221-.616-.048-.909.166-1.46.11-.27-.033-.702-.383-.898-.453-.181-.065-.386-.13-.564-.183-.124-.031-.427-.201-.565-.262-.556-.276-.888-.276-1.573-.459l-.399-.101c-.855-.116-.773.472-.504.617m12.021-4.581c.44-.659 1.049-1.045 1.011-2.468-.042-.351.073-.419.368-.391.26.077.115 1.712.91 1.608.679-.1.217-1.038.555-2.096.124-.378.885-1.726.682-4.046-.021-.596-1.162-1.375-1.808-.92-.531.324-.531.716-.837 3.168-.129 1.449-1.896 1.947-2.642 2.604-.752.552-.326.825-.462 1.828-.429 1.454-2.12 2.13-1.555 3.097.178.241.348.467.885.263.027-.716 1.745-1.274 2.893-2.647m-.272-10.153c-.338.297-2.856 2.958-2.228 4.187.694-.689 2.618-2.461 3.303-2.632.193-.508.163-1.898-1.075-1.555m-3.017.006c-.407 0-3.006 2.185-2.615 3.545.77-.57 2.498-1.773 2.715-1.752.233-.141.417-1.64-.1-1.793M13.561-1.86c-.229.253-.037.749.386.959.78.369 1.102-.059 1.272-.258.755-1.18 1.736-2.697 2.465-3.308-.678-.064-3.187.703-4.123 2.607m46.896 27.282c-.111.571-1.66.53-2.286 1.289-.235.303-.06.47 0 .697.176.666 1.592.27 1.921.862.133.248.182.98.097 1.082-.888 1.087-2.763.569-4.085 1.099-.638.261-1.429.791-2.103 1.038-.838.324-1.488.372-2.328.707-.192.082-.564.355-.769.436-.933.377-1.673.453-2.606.849-.112.04-.392.206-.516.251-.375.165-.492.183-.889.328-1.445.524-3.278.985-5.368.856-.918-.048-1.972.117-3.382-.279-.489-.126-1.172-.551-1.634-.693-.319-.093-.596-.155-.89-.284-.405-.158-.77-.4-1.323-.53-1.606-.36-3.744.033-5.369-.238-1.407-.225-2.221-1.115-3.382-1.513-.356-.119-.498-.081-.848-.205-.202-.07-.682-.196-.846-.292-.483-.25-.797-.323-1.343-.547-.272-.126-.598-.378-.864-.499-.393-.194-.414-.249-.737-.484l-.261-.192s-.572-.497-.639-.586c-.229-.239-.443-.564-.639-.811-.596-.693-1.486-1.556-2.223-2.098-.272-.189-.456-.146-.695-.352-.278-.215-.522-.442-.79-.643-.611-.438-1.223-.731-1.894-1.102l-.434-.284c-.571-.376-.547-.526-1.136-.899-.389-.264-.555-.66-.912-.967-.233-.18-.504-.748-.658-.991-.737-1.071-1.008-2.654-1.531-3.986-.157-.378-1.431-2.214-1.749-2.325l-.235-.227c-.175-.154-.175-.199-.344-.357-.378-.332-.755-.529-1.048-.939-.236-.317-.375-.685-.592-1.04-.332-.552-.885-1.157-1.163-1.754-.111-.222-.19-.441-.271-.654-.03-.034-.052-.07-.061-.07-.141-.181-.386-.935-.386-.935-.26-.602-.879-.938-1.691-2.095-.954-.072-4.234.758-6.462 1.819.498-.558 3.004-2.241 5.933-2.56-.196-.288-.211-.582-.561-.672-1.175-.293-3.213.349-5.952 1.307.157-.382 2.573-1.794 6.136-2.012-.531-.62-5.423-.469-9.249.576-.151-.401 4.78-1.498 7.489-1.459-.462-.242-1.682-.514-2.461-.798-1.235.142-2.962.354-3.295.48.078-.247 1.299-.584 2.311-.816-.973-.347-2.413-.546-2.969-.667.408-.106 1.969.149 3.611.539 1.438-.271 3.636-.559 4.85-.505C.628 1.125-.51.393-1.411-.131c-2.297-.218-4.8-.413-5.335-.481.302-.04 2.316-.074 4.466-.021-1.314-.771-2.711-1.57-3.385-1.875.997.252 2.772.935 4.596 1.907 1.806.069 3.499.212 4.203.47-.244-.53-1.7-3.042-3.061-3.633.585.102 2.469.631 3.611 3.487.408-.177.866-.28 1.4-.314.303-.447 1.013-1.612 2.359-1.678.278-.786 2.775-4.856 6.284-3.267-1.015.546-1.628 1.121-2.129 2.744 1.561.1 5.686-2.162 6.923-7.046-.978.325-2.197.889-2.327 1.382-.266-1.13-.443-2.589 2.056-5.107.048-.538.042-1.187.154-1.793.414-.429.891-.751 1.332-1.13.033-.702-.067-1.68 1.794-2.227.637-.523 2.669-1.08 2.965-1.428.607-.199 1.506-.238 2.165-.199 0 0 .882.149 1.117.487.441.026 1.045.04 3.744 2.919.564.673 0 4.4.133 5.303.269.655.384 1.262.743 2.069 0 0 .368.796 1.057 1.119.048.019.088.019.144.035 1.556.352 3.584-1.105 4.545-1.506.345-.148.528-.072.815-.238.136-.076.327-.394.468-.471.344-.194.675-.139 1.054-.344.556-.311 1.694-1.956 2.679-1.761.307.072.552.77.815.942.459.285 1.103.259 1.516.581.472.367.279.784.346 1.291 0 .019.221.255.24.352.232.025.736 0 1.053.105.039.017.175.171.23.228.199.208.055.434 0 .603-.069.19-.547.411-.694.57-.354.35-.952.859-1.175 1.284-.106.21.027.256-.121.478-.151.241-.562.493-.689.805-.446 1.005-.268 3.233-.471 3.545-.177.299-.411.262-.591.54-.39.619.093 2.594.127 3.383.033.629-.586.237-.586.237-.508-1.257-.456-1.816-.577-3.62-.024-.159-.239-1.117-.239-1.288-.006-.629.36-1.694.112-2.447-.081-.249-.589-.717-1.281-.702-.262 0-1.57.34-1.866.466-.054.032-.332.346-.35.356-.652.516-.788.029-.815-.223-.024-.275.084-.323.142-.474.021-.151.284-.707.257-.759-.009-.052-.236-.667-1.45.052-.915.554-1.817 2.076-1.86 2.336-.13.588.049 1.026.166 1.227.456.413.994-.16 1.45-.405.114-.061.395-.259.537-.287.269-.045.695.053.758.053 1.773.103 3.603-.541 3.916.646.193.751-.534 1.15-.667 1.458-.166.378-.081.405-.175.823-.015.028-.135.303-.163.337-.184.308-.052.581-.233.931-.184.373-.709.606-.93.932-.299.433-.299.972-.706 1.29-.596.486-2.986 1.199-3.265 1.751-.453.886.106 2.506-.117 3.611-.118.648-.33 1.001-.721 1.403a.615.615 0 0 0-.173.597c.102.389.311.282.425 1.154.074.476-.042 1.015 0 1.513.003.084.234.843.246.933.105 1.302-.067 2.664-.348 3.608-.142.458-.565.855-.706 1.289-.124.367.023.579-.124.941-.115.319-.523.542-.686.804-.315.463-.223 1.256-.71 1.523-.353.197-.483-.077-.455 0-.117-.426-.096-.842.109-1.398.09-.238.525-.582.597-.818.088-.433-.072-.955 0-1.404l.221-.469c.185-1.174-.456-2.726-.927-3.375-.332-.439-1.34-.987-1.401-1.634-.045-.406.117-.418.221-.585.15-.217.63-.493.706-.699.051-.152.112-.122.172-.272l.057-.317c.081-.818-.981-1.003-.465-1.982.148-.285.65-.285.927-.459.532-.335 1.54-1.28 1.634-2.094.045-.353-.006-2.23-.106-2.455-.245-.521-1.555-.724-1.407-1.753.166-1.125 3.128-.804 3.959-1.396.395-.275.48-.874.601-1.411.066-.29-.227-.389-.357-.453-.313-.182-.538-.043-.936-.13-.96-.194-2.493-.623-2.899-1.393-.507-.895.088-2.122-.124-3.143-.214-.932-.912-2.059-1.413-2.813-.307-.453-.702-.905-.847-1.546-.342-1.377-.104-3-.204-4.616l-.021-.017s.06-.836-.504-1.446c-.64-.701-2.859-2.779-4.438-2.779-.58.02-.822.212-1.459.673-.402.036-1.322.26-1.86.814-.166.293-1.906 2.057-.812 2.564 1.029.474 2.693-.557 3.464-1.055.314 0 2.564-.117 4.951 3.022-.112 1.637-.244 3.739-.425 4.123-.245.803-1.607 2.224-1.898 3.076-.18.69-.503 2.043-.292 2.985-.09 1.046-.752 1.276-1.026 2.124a2.148 2.148 0 0 1-.212.449c-.084.308-.142.58-.329.861-.416.633-.821.771-1.202 1.392-.395.643-.326 1.445-.936 1.868-.335.225-.785.244-1.162.459-.272.166-.616.562-.933.7-.366.166-.471.215-.843.38-.184.086-.513.237-.676.322-.16.089-.326.012-.465.124-.45.378-.127.725-.351 1.389-.018.08-.193.085-.235.232-.187.055-.513.351-.767.174-.35-.257-.447-.185-.661-.718-.127-.352-.366-1.387-.603-1.639-.21-.253-.475-.597-.807-.833-.309-.156-.58-.142-.58-.142l-.873-.126-.431-.669s-.478.068-.731.068c-.07-.165-.646-.61-.824-.761-.741-.436-1.193-.126-1.245.028-.033.141-.269.435.233.733 1.706.476 3.805 2.767 3.98 3.264-.218-.332-3.76-2.289-4.412-2.551.703 1.668 5.04 4.108 5.304 4.4-1.11-.167-4.803-2.402-5.449-3.388-.613-.998-1.335-.718-2.017-.684-.662.017-.607-.697-.634-1.132-.012-.427-.336-1.293-.061-1.445.453-.392 1.646 1.189 2.027.339.205-.948-2.247-.905-2.225-1.673C8.11.529 10.49.393 10.931-.037c-.764-.564-2.642-.741-3.198-.77a4.264 4.264 0 0 0-.84.016c-.31.051-.715.337-1.074.921-.676 1.234.471 2.08.486 2.397.03.327-.127.149-.148.668-.018.519.558.61.709.716.164.113-.042.259-.004.758.304 1.138 2.151 2.441 1.677 2.813-.429.224-1.325-.764-1.673-1.218C5.595 4.625 4.11 5.137 3.602 5.119c-1.117-.065-.921 1.166-.136 1.083.903.184.837 1.435 1.477 1.306.211-.908-.803-1.037-.332-1.244.646-.254.71.595.917.947.191.358 1.103 1.134.997 1.334-.262.096-.93-.389-1.234-.624-.741 1.845 1.12 3.251 1.213 3.795.607.967 4.022 2.201 4.086 3.661l.093.083s.064.04.166-.132h.009c.021-.089.039-.186.066-.285.007-.119-.008-.225-.008-.225l.018.141c.027-.232.015-.427.027-.378v-.219c.03-.135.202-.202.229-.22.073.018.26.08.438.279.024.031.227.221.227.267.326.236.387.271.619.598.582.852-.544 2.107-.232 3.259.214.763.926 1.671.926 1.671.196.431-.112.431-.112.431-.447.082-.761-.4-.694-.335-.577-.546-.752-.809-1.172-1.535 0 0-.35-.317-.452.119-.204.722.619 2.142.872 2.328.48.324.966.466 1.567.712.302.127.755.616 1.054.696.148.05.308.078.462 0 0 0 .23-.168.118-.696 0 0-.227-.63-.148-.863.051-.157.03-.303.386-.303.84-.018 2.706.177 3.259.468.124.051.247.236.356.345.175.178.13.438 0 .462l-.356.118c.274.04-1.579.057-1.281.108-.326-.051.438.865.348 1.297-.037.212-.401.296-.468.46-.036.104-.233.261 0 .351l.268.113c.094.068.19.178.316.238.584.271 1.638.136 2.1 0 .048-.027.803-.238 1.055-.935.062-.197.113-.417.228-.588.354-.485 1.38-.655 1.984-.084.121.11.266.381.356.546.598 1.375-.289 2.311-1.408 2.688-.45.163-1.185.207-1.75.354-.399.112-.158.446-.045.547l.172.15c.22.331.914.622 1.169.7.618.234 1.222.466 2.095.106.13-.038.474-.306.574-.337.661-.163.909-.216 1.524.105.248.122.209.156.23.23.22.621-.214 1.038-.202.973-.131.841 2.27-.198 2.645.332.353.481.12 1.394.585 1.743.055.03.33.223.351.229.447.098.836-.088 1.196-.229l.377-.18c.755-.312 1.413-.477 1.824-1.099.257-.404.208-.994.455-1.407.11-.175.36-.293.487-.466.105-.127.314-.213.453-.295.218-.135.299-.188.58-.28.208-.082.501-.393.706-.471.707-.291 1.561-.251 2.328-.234.459.02.728-.25 1.163-.117.22.076.157.469.021.635-.278.357-.493.266-.952.531-.177.113-.407.473-.588.576-.529.349-1.304.4-1.624.942a1.093 1.093 0 0 0-.113.336l-.133.25c-.642 1.305-.847 2.083-.229 2.329.387.15 1.232.062 1.644.233.092.051.274.314.343.349.927.444 2.666.959 3.62.468.29-.137 0-.88.109-1.164a.953.953 0 0 1 .513-.419c2.009-.535 4.01-.451 5.478-1.145.876-.409 1.549-1.055 2.337-1.741.679-.602-.126-1.282.571-1.485-.476-.065-.879-.12-.963.127-.024.063-.166.28-.236.344-.519.498-1.136 1.268-1.856 1.518-.378.137-.541.016-.943.122l-.468.159c-.507.139-.546.095-1.045.197-.214.04-.718.312-.936.336-.993.146-1.546-.252-2.452 0-.419.126-.954.786-1.292.965-.419.234-.806.315-1.278.469-.19.052-.286.052-.425-.02-.263-.154-.172-.381-.039-.575.075-.101.142-.279.232-.333.329-.238.985-.238 1.166-.583.516-1.016-.242-1.373-.348-1.679-.053-.183-.199-.326 0-.576.106-.13.341-.293.471-.344.478-.2.846-.125 1.29-.353.311-.166.64-.736 1.045-.823.939-.198 1.156.491 1.63.596.677.151 1.097-.209 1.869 0 .257.069.402.37.58.455.447.241.888.27 1.171.125 0 0 .3-.139-.12-.353-.244-.13-.447-.13-.697-.259-.169-.089-.318-.329-.345-.368a1.584 1.584 0 0 1-.133-.42.62.62 0 0 1 .238-.24c.813-.283 1.644.243 2.341.351.516.083 1.96 0 2.376-.318 0 0 .387-.077.136-.779-.157-.417-.817-.724-1.072-1.083-.145-.2-.305-.585-.458-.78-.245-.318-.29-.31-.538-.602l-.172-.247c-.097-.299-1.289-1.31-1.513-1.647-.133-.201-.196-.412-.338-.629-.212-.305-.369-.352-.474-.541-.344-.491-1.015-1.489-1.568-1.739-.247-.106-.595.011-.938.077-.232.062-.487.497-.692.589-.815.37-1.724.268-2.446.698-.359.216-.688.846-.945 1.169-.166.219-.323.608-.577.709-.422.144-1.434.009-1.63-.351-.387-.736.619-2.624.7-3.395.06-.658-.241-.959 0-1.506.115-.283.55-.36.695-.584.631-.995.078-2.404.235-3.732.054-.418.302-.927.227-1.526-.094-.931-1.293-1.735-.812-3.143.018-.063.246-.228.262-.246.185-.09.475-.047.673.007.387.134.768.915 1.172 1.166.043.044.175.11.251.11.039.084.154.09.211.12.182.13.245.133.348.35.166.378.108.754.235 1.292.118.443.531 1.235.586 1.751.141 1.423-.894 4.222-.154 4.678.287.178.568.515 1.06.592.214.05.92-.167 1.223-.16 0-.007-.006-.011-.006-.011-.384-.894 1.02-3.227.908-4.515-.274-3.136-2.318-4.868-4.088-6.543-.205-.199-.027-.425.12-.582.351-.332 1.2-.184 1.643-.113.638.13.928.419 1.392.58.179.069.39-.041.583 0 .48.132.894.786 1.17 1.179 0 0 .567.617.687-.198l.016-.047c0-.758-.136-1.585 0-2.325.132-.875 1.736-3.504 2.566-3.623 1.938-.285-.047 2.159-.127 2.33-.317.746-.628 2.061-.583 3.033.01.36.306 1.081.348 1.41.02.169-.067.554 0 .692.154.311 1.186.413 1.407.822.057.118-.03.328 0 .459.048.281.247.802.471 1.044.138.177.337.271.58 0 .202-.222.25-.748.582-1.122l.293-.318c.341-.218.903.075.756.041.355.102.313.468.467.596.025.023.23.11.23.11.839.87-1.033 1.652-1.051 2.455-.016.895.199 1.928-.112 2.917-.073.244-.532.593-.585.815-.128.562.166 1.152.232 1.512.132.748-.124 1.891.12 2.223.142.179.363.312.816.235.296-.056.492-.539.697-.704.768-.61 1.652-.956 2.921-.812.156.008.286.24.313.313.084.232.07.53-.078.732-.462.617-2.238 1.091-2.333 1.393-.071.23-.351.536-.044.692-.166-.104 1.097.031 1.553.131.595.129.637.718 1.051.926.579.306 1.43.042 1.76.587.188.349.042.85.226 1.17.23.414.921.496 1.28.824.109.093.055.454.036.57" style="fill:#880827;fill-opacity:1;fill-rule:nonzero;stroke:none" transform="matrix(5.9045 0 0 -5.9045 223.976 426.312)"/><path d="M0 0c.006 0 .012.003.015.003C-.049-.031-.042-.023 0 0" style="fill:#d5c7a7;fill-opacity:1;fill-rule:nonzero;stroke:none" transform="matrix(5.9045 0 0 -5.9045 290.39 419.98)"/><path d="M0 0c-.106 0-.224-.008-.333-.008a3.51 3.51 0 0 0-.332-.017c-.051 0-.063 0-.1.037-.018.063 0 .112.049.154C-.384.462.332 1.07.975 1.769c.568.636.897 1.243.882 1.904-.037.61-.417 1.01-.997.996-.58-.016-.86-.386-1.029-.652-.031-.065-.064-.065-.097-.049l-.136.06c-.012.017-.03.035 0 .114.136.294.568 1.162 1.727 1.162.812 0 1.525-.604 1.525-1.406 0-.666-.317-1.273-1.143-2.065C1.174 1.335.677.96.398.714H1.92c.547 0 .764.31.946.593.051.073.069.089.147.045.088-.033.112-.065.088-.124l-.568-1.34c-.03-.06-.012-.077-.115-.077-.081 0-.081.017-.115.077-.051.094-.202.112-.498.112Z" style="fill:#880827;fill-opacity:1;fill-rule:nonzero;stroke:none" transform="matrix(5.9045 0 0 -5.9045 350.331 603.567)"/><path d="M0 0c-.2-.547-.263-1.4-.263-2.025 0-.744.052-1.3.199-1.661.182-.463.414-.619.694-.619.267 0 .496.121.629.529.136.372.185.962.185 2.084C1.444-.47 1.163.496.612.496.317.496.133.325 0 0m2.421-1.849c0-1.774-.645-2.766-1.791-2.766-1.424 0-1.889 1.521-1.889 2.465C-1.259-.389-.548.804.612.804c1.411 0 1.809-1.489 1.809-2.653" style="fill:#880827;fill-opacity:1;fill-rule:nonzero;stroke:none" transform="matrix(5.9045 0 0 -5.9045 378.57 577.01)"/><path d="M0 0c-.199-.547-.266-1.4-.266-2.025 0-.744.049-1.3.201-1.661.18-.463.413-.619.69-.619.27 0 .503.121.635.529.133.372.18.962.18 2.084C1.44-.47 1.16.496.613.496.314.496.133.325 0 0m2.419-1.849c0-1.774-.647-2.766-1.794-2.766-1.425 0-1.887 1.521-1.887 2.465C-1.262-.389-.546.804.613.804c1.41 0 1.806-1.489 1.806-2.653" style="fill:#880827;fill-opacity:1;fill-rule:nonzero;stroke:none" transform="matrix(5.9045 0 0 -5.9045 402.584 577.01)"/><path d="M0 0c0 .23-.049.404-.199.404-.082 0-.199-.017-.35-.062l-.496-.14c-.03-.017-.066-.017-.083.019l-.064.151c-.019.032 0 .06.047.093l1.909.938c.048.018.096.04.147.04.049 0 .068-.028.068-.122C.979 1.258.948.047.948-.957v-.327c0-.264.012-1.737.012-1.843 0-.4.033-.447.498-.447h.296c.07 0 .085-.027.085-.057v-.193c0-.044-.015-.062-.085-.062-.064 0-1.19.026-1.322.026-.166 0-1.329-.026-1.377-.026-.042 0-.067.018-.067.053v.202c0 .049.033.057.094.057h.323c.497 0 .562.015.576.428C0-2.929 0-1.747 0-1.531Z" style="fill:#880827;fill-opacity:1;fill-rule:nonzero;stroke:none" transform="matrix(5.9045 0 0 -5.9045 428.047 580.774)"/><path d="m0 0 .981-2.822-1.142-.4-2.418 6.942 1.148.398.978-2.82 7.93 2.758.449-1.298z" style="fill:#d1c3b0;fill-opacity:1;fill-rule:nonzero;stroke:none" transform="matrix(5.9045 0 0 -5.9045 70.485 518.38)"/><path d="m0 0-.241 1.355 3.957.698-.797 4.527-3.958-.696-.238 1.354 9.458 1.666.24-1.352-4.306-.761.794-4.528 4.309.763.239-1.354Z" style="fill:#d1c3b0;fill-opacity:1;fill-rule:nonzero;stroke:none" transform="matrix(5.9045 0 0 -5.9045 51.875 483.384)"/><path d="m0 0-.083 5.378 1.213.017.062-4.006 2.801.045-.051 3.646 1.209.02.057-3.645 3.161.047-.06 4.003 1.211.016.082-5.378Z" style="fill:#d1c3b0;fill-opacity:1;fill-rule:nonzero;stroke:none" transform="matrix(5.9045 0 0 -5.9045 42.98 420.488)"/><path d="M0 0a3.89 3.89 0 0 1-.909-1.842c-.425-2.173.857-3.925 2.974-4.34 2.217-.437 3.998.867 4.385 2.827.13.674.133 1.616-.057 2.144l1.322-.178c.16-.774.027-1.663-.081-2.214-.587-2.985-2.89-4.591-5.892-4.003-2.898.572-4.416 3.055-3.851 5.933.144.728.393 1.421.822 2.037z" style="fill:#d1c3b0;fill-opacity:1;fill-rule:nonzero;stroke:none" transform="matrix(5.9045 0 0 -5.9045 62.73 311.716)"/><path d="m0 0-6.54-1.582.559 1.513 5.033 1.182-3.068 4.118.556 1.507L.48 1.29 4.246-.105l-.477-1.29z" style="fill:#d1c3b0;fill-opacity:1;fill-rule:nonzero;stroke:none" transform="matrix(5.9045 0 0 -5.9045 94.305 291.667)"/><path d="m0 0 .507.897c.61 1.079.933 2.177-.193 2.813-1.293.735-2.117-.301-2.699-1.332l-.442-.777Zm-3.808 2.155.375.659c.658 1.163 1.105 2.203-.127 2.903-.996.564-1.731-.146-2.123-.842l-.712-1.255Zm-4.245.826 1.28 2.26c.981 1.738 2.223 2.615 3.769 1.743 1.15-.654 1.346-1.648 1.011-2.852l.024-.01c.737 1.079 1.936 1.464 3.111.799 1.793-1.018 1.385-2.745.422-4.446L.305-1.753Z" style="fill:#d1c3b0;fill-opacity:1;fill-rule:nonzero;stroke:none" transform="matrix(5.9045 0 0 -5.9045 127.342 258.293)"/><path d="m0 0 3.3 4.248.957-.743L1.799.342l2.217-1.721L6.253 1.5 7.21.761 4.973-2.121l2.5-1.942L9.931-.899l.957-.746-3.3-4.248z" style="fill:#d1c3b0;fill-opacity:1;fill-rule:nonzero;stroke:none" transform="matrix(5.9045 0 0 -5.9045 108.123 193.857)"/><path d="m0 0 .842.812c.942.904 1.094 1.859.456 2.519-.601.627-1.458.566-2.37-.311l-.954-.919Zm-3.856 2.021 1.698 1.63c1.366 1.318 2.895 2.367 4.489.713.809-.844.758-2.038.087-2.948l.019-.021c.422.175.715.17 1.343-.044L7.742-.15 6.609-1.234 3.24.141c-.953.381-1.284.065-1.806-.439L.839-.873l2.956-3.072-.99-.955Z" style="fill:#d1c3b0;fill-opacity:1;fill-rule:nonzero;stroke:none" transform="matrix(5.9045 0 0 -5.9045 161.486 168.215)"/><path d="M0 0c1.374-2.321.936-4.256-1.099-5.46-2.035-1.205-3.947-.657-5.318 1.664l-2.865 4.841 1.183.699 2.772-4.685c.943-1.59 2.084-2.38 3.612-1.479 1.528.904 1.377 2.29.441 3.872l-2.778 4.691 1.187.701z" style="fill:#d1c3b0;fill-opacity:1;fill-rule:nonzero;stroke:none" transform="matrix(5.9045 0 0 -5.9045 253.267 111.188)"/><path d="m0 0 1.758.646 6.645-5.795.025.01-2.67 7.255 1.293.477 3.315-9.011-1.651-.61L1.908-1.12l-.027-.009 2.73-7.409-1.296-.477z" style="fill:#d1c3b0;fill-opacity:1;fill-rule:nonzero;stroke:none" transform="matrix(5.9045 0 0 -5.9045 254.712 73.824)"/><path d="m0 0 1.341.31 2.171-9.522-1.341-.313Z" style="fill:#d1c3b0;fill-opacity:1;fill-rule:nonzero;stroke:none" transform="matrix(5.9045 0 0 -5.9045 313.69 53.51)"/><path d="m0 0-1.709-.189-4.665 9.142 1.531.167 3.874-8.01.027.002 2.089 8.68 1.435.159z" style="fill:#d1c3b0;fill-opacity:1;fill-rule:nonzero;stroke:none" transform="matrix(5.9045 0 0 -5.9045 369.567 102.418)"/><path d="m0 0 5.375-.21-.045-1.209-4.004.156-.106-2.803 3.641-.146-.048-1.207-3.644.142-.124-3.162 4.001-.158-.049-1.211-5.374.214Z" style="fill:#d1c3b0;fill-opacity:1;fill-rule:nonzero;stroke:none" transform="matrix(5.9045 0 0 -5.9045 397.504 44.094)"/><path d="m0 0 1.147-.213c1.287-.239 2.151.187 2.32 1.092.16.854-.39 1.515-1.637 1.748l-1.296.239Zm-.598 4.31 2.311-.429c1.869-.348 3.614-.982 3.194-3.238-.218-1.151-1.218-1.805-2.352-1.791l-.006-.028c.392-.238.558-.479.746-1.117l1.087-4.094-1.54.287-.84 3.546c-.247.996-.694 1.078-1.413 1.211l-.812.151-.779-4.193-1.353.252z" style="fill:#d1c3b0;fill-opacity:1;fill-rule:nonzero;stroke:none" transform="matrix(5.9045 0 0 -5.9045 449.422 72.544)"/><path d="M0 0c-.577.482-.906.722-1.582.947-.729.244-1.679.274-1.996-.679-.586-1.746 3.464-2.654 2.46-5.654-.652-1.946-2.409-2.211-4.236-1.603-.64.218-1.205.608-1.739 1.003l.537 1.174c.384-.334 1.078-.856 1.745-1.08.744-.251 1.924-.177 2.284.89.682 2.035-3.422 2.783-2.477 5.613.544 1.618 2.111 2.054 3.75 1.503a6.415 6.415 0 0 0 1.84-.975z" style="fill:#d1c3b0;fill-opacity:1;fill-rule:nonzero;stroke:none" transform="matrix(5.9045 0 0 -5.9045 520.455 74.804)"/><path d="m0 0 1.26-.559-3.899-8.779-1.256.558Z" style="fill:#d1c3b0;fill-opacity:1;fill-rule:nonzero;stroke:none" transform="matrix(5.9045 0 0 -5.9045 538.814 73.218)"/><path d="m0 0-2.588 1.482.601 1.053 6.375-3.657-.604-1.047L1.196-.684l-4.171-7.28-1.195.681z" style="fill:#d1c3b0;fill-opacity:1;fill-rule:nonzero;stroke:none" transform="matrix(5.9045 0 0 -5.9045 567.754 95.44)"/><path d="m0 0 .538 6.708 1.256-1.004L1.356.555l4.865 1.63 1.262-1.002L1.076-.861-1.427-4l-1.078.855Z" style="fill:#d1c3b0;fill-opacity:1;fill-rule:nonzero;stroke:none" transform="matrix(5.9045 0 0 -5.9045 595.99 144.983)"/><path d="M0 0c1.347-1.759 3.389-1.395 4.907-.232C6.459.95 7.269 2.887 5.973 4.563c-1.277 1.689-3.355 1.416-4.909.232C-.453 3.637-1.344 1.76 0 0m6.937 5.298C8.706 2.979 8.057.337 5.795-1.394 3.476-3.164.818-3.065-.964-.733-2.737 1.595-2.141 4.183.178 5.956c2.264 1.727 4.985 1.657 6.759-.658" style="fill:#d1c3b0;fill-opacity:1;fill-rule:nonzero;stroke:none" transform="matrix(5.9045 0 0 -5.9045 640.799 214.915)"/><path d="m0 0 2.418-4.495-1.067-.574-1.766 3.287-2.474-1.332L-1.2-6.252l-1.07-.571-1.684 3.138-3.854-2.073-.649 1.214z" style="fill:#d1c3b0;fill-opacity:1;fill-rule:nonzero;stroke:none" transform="matrix(5.9045 0 0 -5.9045 705.264 219.937)"/><path d="m0 0 .384-1.321-4.059-1.171 5.197-2.767.507-1.759-5.613 3.076-3.515-6.081-.559 1.927 3.337 5.417-4.524-1.303-.38 1.317z" style="fill:#d1c3b0;fill-opacity:1;fill-rule:nonzero;stroke:none" transform="matrix(5.9045 0 0 -5.9045 734.579 282.557)"/><path d="M0 0c.221-2.201 2.146-2.965 4.049-2.778C5.993-2.586 7.7-1.366 7.474.741c-.197 2.112-2.109 2.971-4.049 2.776C1.522 3.331-.217 2.203 0 0m8.682.859c.283-2.9-1.653-4.808-4.488-5.088C1.29-4.517-.915-3.034-1.208-.121c-.287 2.918 1.585 4.803 4.487 5.09 2.835.282 5.113-1.204 5.403-4.11" style="fill:#d1c3b0;fill-opacity:1;fill-rule:nonzero;stroke:none" transform="matrix(5.9045 0 0 -5.9045 701.845 369.475)"/><path d="m0 0-.082-1.166c-.097-1.305.424-2.113 1.34-2.181.868-.063 1.463.554 1.556 1.818l.097 1.315zm4.219 1.072-.173-2.347c-.136-1.892-.569-3.697-2.865-3.529-1.165.083-1.923 1.01-2.035 2.136h-.031c-.193-.41-.413-.601-1.027-.862l-3.945-1.531.114 1.566 3.43 1.223c.96.357.992.807 1.048 1.536l.061.826-4.256.311.101 1.37z" style="fill:#d1c3b0;fill-opacity:1;fill-rule:nonzero;stroke:none" transform="matrix(5.9045 0 0 -5.9045 729.32 414.503)"/><path d="m0 0-1.166-5.252-1.184.261.871 3.911-2.742.607-.792-3.559-1.176.26.784 3.559-3.086.688-.869-3.913-1.181.26 1.162 5.255z" style="fill:#d1c3b0;fill-opacity:1;fill-rule:nonzero;stroke:none" transform="matrix(5.9045 0 0 -5.9045 748.683 462.644)"/><path d="m0 0-3.718 3.537-1.413-3.553zm1.453.145L.918-1.196l-10.424-.219.553 1.392 2.611.015L-4.6 4.364l-1.892 1.803.45 1.341z" style="fill:#d1c3b0;fill-opacity:1;fill-rule:nonzero;stroke:none" transform="matrix(5.9045 0 0 -5.9045 721.709 528.533)"/><path d="M0 0a2.542 2.542 0 0 0-2.536-2.541A2.546 2.546 0 0 0-5.079 0a2.545 2.545 0 0 0 2.543 2.545A2.541 2.541 0 0 0 0 0" style="fill:#d1c3b0;fill-opacity:1;fill-rule:nonzero;stroke:none" transform="matrix(5.9045 0 0 -5.9045 139 577.378)"/><path d="M0 0a2.542 2.542 0 0 0-2.539-2.541 2.543 2.543 0 0 0 0 5.086A2.542 2.542 0 0 0 0 0" style="fill:#d1c3b0;fill-opacity:1;fill-rule:nonzero;stroke:none" transform="matrix(5.9045 0 0 -5.9045 687.689 577.378)"/><path d="m0 0-6.44-3.863.746-1.242S.547-1.359.677-1.279l1.388-2.318 1.445.868L1.377.826 1.308.787Z" style="fill:#d1c3b0;fill-opacity:1;fill-rule:nonzero;stroke:none" transform="matrix(5.9045 0 0 -5.9045 586.811 681.381)"/><path d="M0 0a1.423 1.423 0 0 0-1.465 2.441A1.42 1.42 0 0 0 .48 1.949 1.422 1.422 0 0 0 0 0m.706-1.178c1.417.85 1.909 2.64 1.103 3.985A2.558 2.558 0 0 1 .646 3.824c.191.11.874.524.874.524L.81 5.533s-2.235-1.341-2.359-1.417c-.072.116-.547.911-.547.911l-.072-.038-1.338-.802s.478-.796.547-.916c-.127-.079-2.41-1.443-2.41-1.443l.716-1.184s.752.451.945.565a2.505 2.505 0 0 1 .344-1.507c.792-1.325 2.654-1.725 4.07-.88" style="fill:#d1c3b0;fill-opacity:1;fill-rule:nonzero;stroke:none" transform="matrix(5.9045 0 0 -5.9045 557.877 684.466)"/><path d="m0 0-.067-.038-1.374-.828 3.074-5.125 1.444.863S2.032-3.383 1.953-3.257l.96.575-.767 1.284s-.849-.507-.959-.579C1.113-1.851 0 0 0 0" style="fill:#d1c3b0;fill-opacity:1;fill-rule:nonzero;stroke:none" transform="matrix(5.9045 0 0 -5.9045 574.8 643.066)"/><path d="m0 0 1.19 1.273.601.647.051.059-.058.052-6.027 5.636-.999-1.069 4.871-4.555L-2.204.082c-.022-.027-2.304-2.434-3.231-2.718-.061.065-1.446 1.357-1.552 1.451l2.591 2.77-1.172 1.096-2.591-2.769-2.618 2.446-1.005-1.069 7.702-7.197 1.003 1.07s-1.018.95-1.157 1.077C-3.856-3.549-2.506-2.677 0 0" style="fill:#d1c3b0;fill-opacity:1;fill-rule:nonzero;stroke:none" transform="matrix(5.9045 0 0 -5.9045 201.92 646.496)"/><path d="M0 0c-.169.354-.931 1.734-3.576 4.479l-.862.899-.9.949-.058.06-.054-.056-5.952-5.738 1.018-1.056s4.695 4.523 4.801 4.627c.105-.104 1.821-1.884 1.821-1.884.508-.531 2.412-2.634 2.573-3.426-.055-.055-.508-.49-.596-.578L-4.388.973-5.54-.137s2.493-2.593 2.602-2.698c-.099-.094-.783-.749-.873-.841-.105.106-2.603 2.697-2.603 2.697l-1.155-1.11 2.605-2.701c-.109-.098-1.479-1.426-1.479-1.426l1.017-1.05L2.162.049 1.144 1.103S.159.151 0 0" style="fill:#d1c3b0;fill-opacity:1;fill-rule:nonzero;stroke:none" transform="matrix(5.9045 0 0 -5.9045 655.687 638.124)"/><path d="M0 0s-.931-1.504-1.002-1.623c-.126.075-1.519.936-1.519.936l-.733-1.181 1.521-.939-.849-1.368-1.516.94-.731-1.183s1.399-.86 1.519-.937c-.069-.112-.528-.862-.565-.914-.848-.2-2.101.619-2.116.624 0 0-3.047 1.883-3.177 1.966.076.121 1.38 2.233 1.456 2.358l2.887-1.784 2.696 4.365-4.414 2.729-.74-1.2S-4.363.983-4.233.906l-1.184-1.92L-8.371.813S-8.38.801-8.385.79c-.01.007-.023.011-.023.011l-2.293-3.706c-.571-1.027.292-1.705.297-1.711l3.489-2.155c1.165-.721 1.926-.86 2.179-.896-.156-.243-.874-1.416-.874-1.416l1.431-.885 5.61 9.084-.066.038z" style="fill:#d1c3b0;fill-opacity:1;fill-rule:nonzero;stroke:none" transform="matrix(5.9045 0 0 -5.9045 259.902 664.85)"/><path d="m0 0 1.213-3.621L.201-3.96C.156-3.816-1.01-.338-1.01-.338l-1.461-.491 2.325-6.94C-.659-8.409-1.824-8.77-1.84-8.77c0 0-1.718-.576-1.856-.624-.052.145-1.939 5.785-1.984 5.924.139.05 2.401.804 2.401.804l-.448 1.339-3.985-1.335 2.46-7.355c.402-1.151 1.507-.915 1.52-.915.017.007 1.089.337 2.165.756 1.053.41 1.597.779 1.88 1.037.067-.206.598-1.785.598-1.785l1.459.49L.676-5.373c.121.042.887.297 1.009.337l1.693-5.062 1.459.489L1.458.483l-.075-.02Z" style="fill:#d1c3b0;fill-opacity:1;fill-rule:nonzero;stroke:none" transform="matrix(5.9045 0 0 -5.9045 510.704 677.057)"/><path d="m0 0 .018-.159-2.73-.306-.434 3.844 2.728.309zm.8 7.887-1.67-.191.323-2.847-2.732-.309-.321 2.852-1.675-.195.912-8.037a.772.772 0 0 1 .118-.352c.06-.104.155-.204.266-.29a1.049 1.049 0 0 1 .808-.217l4.988.567-.559 5.005 1.511.174.721-6.373 1.67.19L3.965 8.436l-1.67-.189.344-3.038-1.519-.171Z" style="fill:#d1c3b0;fill-opacity:1;fill-rule:nonzero;stroke:none" transform="matrix(5.9045 0 0 -5.9045 433.288 742.883)"/><path d="m0 0-1.67.174-1.136-10.579 1.673-.181z" style="fill:#d1c3b0;fill-opacity:1;fill-rule:nonzero;stroke:none" transform="matrix(5.9045 0 0 -5.9045 391.98 698.685)"/><path d="M0 0c-.939.099-1.392 1.628-1.187 3.511.203 1.892.97 3.286 1.909 3.184.936-.101 1.389-1.624 1.187-3.518C1.707 1.293.939-.101 0 0m.852 7.897c-1.972.218-3.467-1.684-3.739-4.202-.268-2.51.789-4.687 2.757-4.898 1.972-.21 3.467 1.69 3.735 4.201.269 2.519-.785 4.69-2.753 4.899" style="fill:#d1c3b0;fill-opacity:1;fill-rule:nonzero;stroke:none" transform="matrix(5.9045 0 0 -5.9045 352.165 742.784)"/><path d="m0 0-1.598.53-3.339-10.104 1.598-.53 2.081 6.309 1.074-.351.366 1.108-1.07.354z" style="fill:#d1c3b0;fill-opacity:1;fill-rule:nonzero;stroke:none" transform="matrix(5.9045 0 0 -5.9045 327.097 690.348)"/><path d="M0 0a3.839 3.839 0 0 0-.432 1.913c.014.404.081.708.118.83.006.024.009.045.018.054v.008L.996 6.717l-1.543.512-1.288-3.895v.004l-.01-.027c-.003-.016-.012-.035-.018-.057a4 4 0 0 0-.761-1.181 3.996 3.996 0 0 0-1.123-.837c-.48-.23-1.072-.401-1.83-.437l.097-1.563c.966.047 1.772.211 2.448.54a5.45 5.45 0 0 1 1.12.732A5.54 5.54 0 0 1-1.45-.746c.351-.664.894-1.278 1.646-1.889l1.009 1.192C.616-.96.245-.469 0 0" style="fill:#d1c3b0;fill-opacity:1;fill-rule:nonzero;stroke:none" transform="matrix(5.9045 0 0 -5.9045 291.529 721.507)"/><path d="M0 0c-24.156 0-43.805-19.651-43.805-43.805S-24.156-87.608 0-87.608c24.15 0 43.802 19.649 43.802 43.803C43.802-19.651 24.15 0 0 0m0-89.05c-24.951 0-45.248 20.295-45.248 45.245 0 24.95 20.297 45.243 45.248 45.243 24.947 0 45.242-20.293 45.242-45.243C45.242-68.755 24.947-89.05 0-89.05" style="fill:#d1c3b0;fill-opacity:1;fill-rule:nonzero;stroke:none" transform="matrix(5.9045 0 0 -5.9045 399.822 141.35)"/></svg>