<svg xmlns="http://www.w3.org/2000/svg" xml:space="preserve" width="626.58429" height="626.56885" viewBox="0 0 626.58429 626.56884"><defs><clipPath id="a" clipPathUnits="userSpaceOnUse"><path d="M0 841.89h595.276V0H0Z"/></clipPath></defs><g clip-path="url(#a)" transform="matrix(3.86535 0 0 -3.86535 -838.583 2034.87)"><path d="M0 0c-31.994 0-57.931 25.94-57.931 57.933 0 31.994 25.937 57.925 57.931 57.925 31.995 0 57.926-25.931 57.926-57.925C57.926 25.94 31.995 0 0 0m0 134.886c-42.498 0-76.951-34.458-76.951-76.953 0-42.497 34.453-76.942 76.951-76.942 42.5 0 76.952 34.445 76.952 76.942 0 42.495-34.452 76.953-76.952 76.953" style="fill:#104c98;fill-opacity:1;fill-rule:nonzero;stroke:none" transform="translate(297.998 387.454)"/><path d="M0 0a3.715 3.715 0 1 0-7.43 0 3.705 3.705 0 0 0 3.712 3.704A3.71 3.71 0 0 0 0 0" style="fill:#fff;fill-opacity:1;fill-rule:nonzero;stroke:none" transform="translate(235.223 433.27)"/><path d="M0 0a3.715 3.715 0 0 0-7.429 0 3.708 3.708 0 0 0 3.712 3.704A3.705 3.705 0 0 0 0 0" style="fill:#fff;fill-opacity:1;fill-rule:nonzero;stroke:none" transform="translate(367.827 433.27)"/><path d="M0 0c0 30.239 24.606 54.841 54.837 54.841 30.243 0 54.836-24.602 54.836-54.841 0-30.235-24.593-54.829-54.836-54.829C24.606-54.829 0-30.235 0 0m-1.272 0c0-30.936 25.169-56.105 56.109-56.105 30.938 0 56.105 25.169 56.105 56.105 0 30.937-25.167 56.109-56.105 56.109C23.897 56.109-1.272 30.937-1.272 0" style="fill:#104c98;fill-opacity:1;fill-rule:nonzero;stroke:none" transform="translate(243.164 445.387)"/><path d="M0 0c0 43.511 35.401 78.918 78.917 78.918S157.83 43.511 157.83 0c0-43.51-35.397-78.912-78.913-78.912S0-43.51 0 0m-2.135 0c0-44.685 36.357-81.047 81.052-81.047 44.693 0 81.051 36.362 81.051 81.047 0 44.694-36.358 81.052-81.051 81.052C34.222 81.052-2.135 44.694-2.135 0" style="fill:#104c98;fill-opacity:1;fill-rule:nonzero;stroke:none" transform="translate(219.084 445.387)"/><path d="m0 0 2.79-5.106 7.282 1.234-1.025-2.265-5.392-.736.79-1.121 3.133-1.41-.841-1.884-9.825 4.421.847 1.887L1.55-6.685l-2.587 4.371z" style="fill:#fff;fill-opacity:1;fill-rule:nonzero;stroke:none" transform="translate(232.492 478.382)"/><path d="M0 0c-.343.237-.719.31-1.112.231-.462-.089-.856-.371-1.192-.863-.346-.509-.469-.995-.368-1.47.084-.38.285-.686.621-.909l4.169-2.842c.379-.262.777-.372 1.181-.343.523.041.962.316 1.329.841.38.563.484 1.085.314 1.562-.128.368-.399.687-.809.975zm4.942-.853c.865-.608 1.418-1.224 1.653-1.854.353-.981.079-2.128-.824-3.446-.916-1.336-1.889-2.017-2.912-2.035-.662-.028-1.439.262-2.336.872l-3.285 2.249c-.839.563-1.368 1.154-1.578 1.785-.353.964-.067 2.109.845 3.448.898 1.313 1.86 1.994 2.895 2.036.669.025 1.423-.245 2.249-.808z" style="fill:#fff;fill-opacity:1;fill-rule:nonzero;stroke:none" transform="translate(240.61 486.262)"/><path d="m0 0-1.5-1.544-.692.677c-.308.293-.576.441-.803.433-.308-.006-.687-.241-1.132-.699-.478-.492-.726-.901-.726-1.238 0-.239.17-.517.488-.833.165-.16.288-.265.377-.317a.839.839 0 0 1 .423-.106c.169.003.399.05.688.142.239.079.616.211 1.132.404l.697.258c.726.276 1.236.452 1.536.542.45.135.826.198 1.126.194.337-.007.651-.083.963-.243.31-.162.647-.43 1.035-.811.732-.711 1.051-1.451.963-2.208-.083-.793-.628-1.693-1.629-2.72C1.961-9.08 1.108-9.631.397-9.736c-.585-.081-1.157.141-1.706.687L-2.35-8.034-.857-6.51l.835-.817c.322-.317.607-.47.843-.47.335-.006.739.235 1.205.711.492.503.736.94.74 1.319 0 .296-.148.6-.446.893-.371.363-.781.547-1.228.551-.529 0-1.404-.222-2.613-.654-1.186-.417-2.009-.64-2.442-.654-.637-.016-1.224.253-1.794.81-.65.629-.926 1.321-.829 2.067.106.76.591 1.589 1.46 2.478.895.912 1.679 1.497 2.352 1.751.594.241 1.071.184 1.423-.156z" style="fill:#fff;fill-opacity:1;fill-rule:nonzero;stroke:none" transform="translate(250.3 496.573)"/><path d="m0 0 6.583-8.528-1.708-1.315-6.579 8.526Z" style="fill:#fff;fill-opacity:1;fill-rule:nonzero;stroke:none" transform="translate(253.922 503.693)"/><path d="m0 0 5.326-9.357-2.601-1.486-6.214 5.868 4.04-7.108-1.825-1.033-5.33 9.357 2.462 1.398 6.349-5.821-4.063 7.124z" style="fill:#fff;fill-opacity:1;fill-rule:nonzero;stroke:none" transform="translate(264.83 510.548)"/><path d="m0 0 1.553-7.14c.124-.606.198-1.072.215-1.413.019-.496-.047-.914-.206-1.268-.188-.391-.509-.728-.969-1.003-.499-.322-1.186-.575-2.056-.762-.88-.188-1.618-.249-2.211-.172-.541.069-.981.237-1.324.513-.307.246-.541.607-.721 1.071-.136.314-.263.778-.394 1.37l-1.552 7.14 2.105.458 1.701-7.843c.119-.55.283-.894.488-1.046.29-.2.825-.218 1.593-.052.745.162 1.201.39 1.363.693.127.216.14.597.017 1.157L-2.101-.454z" style="fill:#fff;fill-opacity:1;fill-rule:nonzero;stroke:none" transform="translate(285.877 517.348)"/><path d="m0 0 .355-10.757-2.994-.099-2.775 8.094.275-8.176-2.103-.068-.346 10.763 2.824.093 2.9-8.115-.27 8.2z" style="fill:#fff;fill-opacity:1;fill-rule:nonzero;stroke:none" transform="translate(299.04 518.272)"/><path d="m0 0-1.149-10.704-2.144.227L-2.143.229z" style="fill:#fff;fill-opacity:1;fill-rule:nonzero;stroke:none" transform="translate(306.438 517.663)"/><path d="m0 0-5.291-9.756-3.428.883.162 11.088 2.063-.539-.119-9.477.332.626c.62 1.137 1.091 1.994 1.385 2.557.534.977 1.009 1.875 1.44 2.691l1.32 2.481z" style="fill:#fff;fill-opacity:1;fill-rule:nonzero;stroke:none" transform="translate(319.986 514.798)"/><path d="m0 0 5.244-2.354-.576-1.293-3.329 1.491L.064-4.998 3.183-6.4l-.551-1.225-3.12 1.395-1.408-3.165 3.433-1.536-.585-1.297-5.351 2.397z" style="fill:#fff;fill-opacity:1;fill-rule:nonzero;stroke:none" transform="translate(324.691 513.02)"/><path d="m0 0 .292-.192c.656-.434 1.088-.716 1.317-.846.328-.206.581-.352.757-.415.175-.054.317-.054.426 0 .096.053.201.168.32.351L3.908.102c.124.191.19.34.19.451.002.114-.066.247-.202.401-.137.142-.386.344-.746.594-.241.17-.739.509-1.47.995Zm.669 4.829 2.698-1.777c1.202-.789 2.006-1.451 2.411-1.992.475-.628.534-1.222.168-1.779l-.798-1.212c-.337-.515-.658-.815-.967-.922-.4-.136-.959-.034-1.668.306.298-.375.499-.709.622-.999a1.59 1.59 0 0 0 .147-.779 1.629 1.629 0 0 0-.202-.684 7.983 7.983 0 0 0-.437-.715L2.529-5.9.969-8.263-.816-7.092l2.07 3.143.041.053c.15.233.243.403.267.522.047.163.02.327-.083.503-.117.184-.346.413-.681.683-.34.285-.847.646-1.522 1.09l-2.773-4.221-1.761 1.147z" style="fill:#fff;fill-opacity:1;fill-rule:nonzero;stroke:none" transform="translate(333.96 503.35)"/><path d="m0 0-1.558 1.483.662.693c.296.312.443.588.42.819-.015.306-.253.674-.716 1.116-.499.468-.914.709-1.245.705-.241-.008-.513-.176-.829-.502a3.705 3.705 0 0 1-.318-.379.892.892 0 0 1-.091-.43c0-.166.057-.393.158-.683.078-.239.215-.615.421-1.124l.272-.693c.286-.725.469-1.228.561-1.524.132-.451.207-.822.207-1.128a2.213 2.213 0 0 0-.222-.967c-.159-.306-.418-.655-.799-1.045-.694-.74-1.429-1.076-2.186-1.009-.797.085-1.709.609-2.758 1.596-1.017.967-1.588 1.809-1.694 2.525-.098.582.119 1.157.647 1.71l1.005 1.058L-6.518.756l-.8-.851c-.31-.328-.464-.61-.452-.853.004-.333.24-.728.728-1.192.51-.48.952-.715 1.321-.715.306 0 .606.152.895.462.351.377.537.788.533 1.228-.012.537-.241 1.404-.699 2.608-.436 1.181-.664 1.994-.694 2.433-.023.632.234 1.228.781 1.804.622.666 1.305.95 2.057.867.763-.098 1.592-.568 2.496-1.431.926-.877 1.532-1.647 1.795-2.305.244-.604.197-1.084-.139-1.437Z" style="fill:#fff;fill-opacity:1;fill-rule:nonzero;stroke:none" transform="translate(348.166 493.305)"/><path d="m0 0-8.411-6.725-1.346 1.68 8.411 6.731z" style="fill:#fff;fill-opacity:1;fill-rule:nonzero;stroke:none" transform="translate(355.35 489.81)"/><path d="m0 0-1.203-.729-1.491 2.447-8.008-4.861-1.118 1.838 8.012 4.869L-5.041 5.6l1.193.728z" style="fill:#fff;fill-opacity:1;fill-rule:nonzero;stroke:none" transform="translate(361.991 479.792)"/><path d="m0 0-7.569.195-3.546-1.433-.777 1.933 3.544 1.432 5.362 5.279.808-2.008c-.474-.411-1.013-.887-1.627-1.428-.362-.311-.863-.738-1.483-1.279L-6.3 1.816l5.49.192Z" style="fill:#fff;fill-opacity:1;fill-rule:nonzero;stroke:none" transform="translate(366.898 468.601)"/><path d="M0 0v-33.232l7.318.807v27.072z" style="fill:#00aeef;fill-opacity:1;fill-rule:nonzero;stroke:none" transform="translate(277.396 491.597)"/><path d="M0 0v13.227c-5.437-2.341-7.059-3.687-7.059-3.704 0-17.863 8.647-25.984 16.126-30.348C9.067-20.825 0-12.42 0 0" style="fill:#00aeef;fill-opacity:1;fill-rule:nonzero;stroke:none" transform="translate(284.455 417.969)"/><path d="m0 0 35.531-26.94-.28 8.815L.041 8.822z" style="fill:#00aeef;fill-opacity:1;fill-rule:nonzero;stroke:none" transform="translate(278.225 481.958)"/><path d="M0 0c0 .371-.117.658-.345.856-.267.248-.701.365-1.289.365-.597 0-1.025-.143-1.28-.451C-3.117.528-3.22.155-3.22-.349v-1.248c0-.535.103-.92.306-1.159.249-.284.693-.433 1.321-.433.608 0 1.034.149 1.275.433.213.239.318.583.318 1.045v.17h-.846v-.38c0-.244-.068-.422-.204-.547-.131-.122-.313-.186-.559-.186-.233 0-.423.068-.559.19a.641.641 0 0 0-.209.49v1.961c0 .215.071.377.209.494.131.123.317.182.559.182.259 0 .454-.056.586-.165A.413.413 0 0 0-.846.151V-.39H0Z" style="fill:#231f20;fill-opacity:1;fill-rule:nonzero;stroke:none" transform="translate(273.656 448.8)"/><path d="M0 0a.54.54 0 0 1-.176.414c-.129.127-.318.193-.553.193-.248 0-.439-.066-.576-.201A.58.58 0 0 1-1.464 0v-1.985c0-.182.052-.333.155-.458.125-.166.322-.247.58-.247.271 0 .466.081.594.247.093.117.135.276.135.482Zm.849-1.795c-.01-.426-.091-.733-.241-.952-.255-.329-.696-.499-1.342-.499-.647 0-1.097.17-1.334.499-.161.21-.236.526-.236.952v1.562c-.006.403.075.705.236.916.237.324.687.482 1.334.482.646 0 1.084-.158 1.342-.482C.762.47.849.165.849-.233Z" style="fill:#231f20;fill-opacity:1;fill-rule:nonzero;stroke:none" transform="translate(276.822 448.856)"/><path d="M0 0h.136c.317 0 .529.004.635.009.158.008.269.015.34.032.081.02.125.048.152.093a.388.388 0 0 1 .031.175v.569a.498.498 0 0 1-.035.194c-.024.036-.083.065-.164.087a1.337 1.337 0 0 1-.377.037A27.03 27.03 0 0 1 0 1.202Zm-.844 1.736H.458c.578 0 .994-.042 1.253-.139.292-.097.446-.278.446-.543V.48c0-.237-.043-.415-.125-.512-.104-.134-.315-.219-.631-.268.186-.056.332-.117.434-.186a.637.637 0 0 0 .222-.219.809.809 0 0 0 .088-.275c.005-.065.012-.175.012-.332V-2.516h-.863V-1.005c0 .114-.007.187-.029.228-.018.068-.065.116-.14.153a1.163 1.163 0 0 1-.376.077A11.39 11.39 0 0 1 0-.526v-1.99h-.844z" style="fill:#231f20;fill-opacity:1;fill-rule:nonzero;stroke:none" transform="translate(279.369 448.208)"/><path d="M0 0h.86L.437 1.817Zm1.067 2.571 1.056-4.253h-.845l-.276 1.09H-.145l-.268-1.09h-.856l1.066 4.253z" style="fill:#231f20;fill-opacity:1;fill-rule:nonzero;stroke:none" transform="translate(283.483 447.373)"/><path d="M0 0v-4.252h-.845v3.565l-.831-3.565h-.838L-3.37-.687v-3.565h-.843V0h1.512l.227-1.08.367-2.131.62 3.211z" style="fill:#231f20;fill-opacity:1;fill-rule:nonzero;stroke:none" transform="translate(290.576 449.944)"/><path d="M0 0c.406 0 .681.008.823.028.205.013.352.045.435.086a.314.314 0 0 1 .178.226c.027.09.033.236.033.446v1.757c0 .172-.006.294-.033.364a.3.3 0 0 1-.18.179 1.376 1.376 0 0 1-.439.073A80.14 80.14 0 0 1 0 3.161Zm-.838 3.689H.675c.634 0 1.075-.064 1.311-.198.213-.124.328-.348.328-.689V.486c0-.372-.115-.648-.353-.798-.24-.158-.668-.235-1.302-.235H-.838z" style="fill:#231f20;fill-opacity:1;fill-rule:nonzero;stroke:none" transform="translate(294.78 446.255)"/><path d="M0 0h2.31v-.553H.84v-1.232h1.381v-.527H.84v-1.377h1.516v-.56H0Z" style="fill:#231f20;fill-opacity:1;fill-rule:nonzero;stroke:none" transform="translate(298.045 449.944)"/><path d="M0 0a.537.537 0 0 1-.168.414c-.136.127-.318.193-.559.193-.252 0-.44-.066-.576-.201A.567.567 0 0 1-1.467 0v-1.985c0-.182.053-.333.158-.458.13-.166.319-.247.582-.247.271 0 .47.081.598.247.085.117.129.276.129.482Zm.841-1.795c-.006-.426-.074-.733-.238-.952-.244-.329-.684-.499-1.336-.499-.651 0-1.096.17-1.337.499-.157.21-.238.526-.238.952v1.562c0 .403.078.705.238.916.241.324.686.482 1.337.482.64 0 1.088-.158 1.336-.482C.767.47.841.165.841-.233Z" style="fill:#231f20;fill-opacity:1;fill-rule:nonzero;stroke:none" transform="translate(303.448 448.856)"/><path d="M0 0c0 .371-.117.658-.345.856-.267.248-.701.365-1.289.365-.597 0-1.025-.143-1.28-.451C-3.117.528-3.22.155-3.22-.349v-1.248c0-.535.103-.92.306-1.159.249-.284.693-.433 1.321-.433.608 0 1.034.149 1.275.433.213.239.318.583.318 1.045v.17h-.846v-.38c0-.244-.068-.422-.204-.547-.131-.122-.313-.186-.559-.186-.233 0-.423.068-.559.19a.641.641 0 0 0-.209.49v1.961c0 .215.071.377.209.494.131.123.317.182.559.182.259 0 .454-.056.586-.165A.413.413 0 0 0-.846.151V-.39H0Z" style="fill:#104c98;fill-opacity:1;fill-rule:nonzero;stroke:none" transform="translate(273.656 448.8)"/><path d="M0 0a.54.54 0 0 1-.176.414c-.129.127-.318.193-.553.193-.248 0-.439-.066-.576-.201A.58.58 0 0 1-1.464 0v-1.985c0-.182.052-.333.155-.458.125-.166.322-.247.58-.247.271 0 .466.081.594.247.093.117.135.276.135.482Zm.849-1.795c-.01-.426-.091-.733-.241-.952-.255-.329-.696-.499-1.342-.499-.647 0-1.097.17-1.334.499-.161.21-.236.526-.236.952v1.562c-.006.403.075.705.236.916.237.324.687.482 1.334.482.646 0 1.084-.158 1.342-.482C.762.47.849.165.849-.233Z" style="fill:#104c98;fill-opacity:1;fill-rule:nonzero;stroke:none" transform="translate(276.822 448.856)"/><path d="M0 0h.136c.317 0 .529.004.635.009.158.008.269.015.34.032.081.02.125.048.152.093a.388.388 0 0 1 .031.175v.569a.498.498 0 0 1-.035.194c-.024.036-.083.065-.164.087a1.337 1.337 0 0 1-.377.037A27.03 27.03 0 0 1 0 1.202Zm-.844 1.736H.458c.578 0 .994-.042 1.253-.139.292-.097.446-.278.446-.543V.48c0-.237-.043-.415-.125-.512-.104-.134-.315-.219-.631-.268.186-.056.332-.117.434-.186a.637.637 0 0 0 .222-.219.809.809 0 0 0 .088-.275c.005-.065.012-.175.012-.332V-2.516h-.863V-1.005c0 .114-.007.187-.029.228-.018.068-.065.116-.14.153a1.163 1.163 0 0 1-.376.077A11.39 11.39 0 0 1 0-.526v-1.99h-.844z" style="fill:#104c98;fill-opacity:1;fill-rule:nonzero;stroke:none" transform="translate(279.369 448.208)"/><path d="M0 0h.86L.437 1.817Zm1.067 2.571 1.056-4.253h-.845l-.276 1.09H-.145l-.268-1.09h-.856l1.066 4.253z" style="fill:#104c98;fill-opacity:1;fill-rule:nonzero;stroke:none" transform="translate(283.483 447.373)"/><path d="M0 0v-4.252h-.845v3.565l-.831-3.565h-.838L-3.37-.687v-3.565h-.843V0h1.512l.227-1.08.367-2.131.62 3.211z" style="fill:#104c98;fill-opacity:1;fill-rule:nonzero;stroke:none" transform="translate(290.576 449.944)"/><path d="M0 0c.406 0 .681.008.823.028.205.013.352.045.435.086a.314.314 0 0 1 .178.226c.027.09.033.236.033.446v1.757c0 .172-.006.294-.033.364a.3.3 0 0 1-.18.179 1.376 1.376 0 0 1-.439.073A80.14 80.14 0 0 1 0 3.161Zm-.838 3.689H.675c.634 0 1.075-.064 1.311-.198.213-.124.328-.348.328-.689V.486c0-.372-.115-.648-.353-.798-.24-.158-.668-.235-1.302-.235H-.838z" style="fill:#104c98;fill-opacity:1;fill-rule:nonzero;stroke:none" transform="translate(294.78 446.255)"/><path d="M0 0h2.31v-.553H.84v-1.232h1.381v-.527H.84v-1.377h1.516v-.56H0Z" style="fill:#104c98;fill-opacity:1;fill-rule:nonzero;stroke:none" transform="translate(298.045 449.944)"/><path d="M0 0a.537.537 0 0 1-.168.414c-.136.127-.318.193-.559.193-.252 0-.44-.066-.576-.201A.567.567 0 0 1-1.467 0v-1.985c0-.182.053-.333.158-.458.13-.166.319-.247.582-.247.271 0 .47.081.598.247.085.117.129.276.129.482Zm.841-1.795c-.006-.426-.074-.733-.238-.952-.244-.329-.684-.499-1.336-.499-.651 0-1.096.17-1.337.499-.157.21-.238.526-.238.952v1.562c0 .403.078.705.238.916.241.324.686.482 1.337.482.64 0 1.088-.158 1.336-.482C.767.47.841.165.841-.233Z" style="fill:#104c98;fill-opacity:1;fill-rule:nonzero;stroke:none" transform="translate(303.448 448.856)"/><path d="M0 0v-6.727s-14.973 4.109-29.79-6.436L-53.506 4.855s10.391 13.822 33.179 13.358l7.295-6.311s-15.049 4.287-28.709-6.577l12.697-9.71S-17.461 3.274 0 0" style="fill:#104c98;fill-opacity:1;fill-rule:nonzero;stroke:none" transform="translate(304.39 442.178)"/><path d="M0 0s5.354 4.271 14.288 5.394L-.742 17.105s5.598 1.457 9.951-.662L29.164 1.28S14.352 2.658 0-6.937z" style="fill:#104c98;fill-opacity:1;fill-rule:nonzero;stroke:none" transform="translate(316.53 442.389)"/><path d="M0 0v-36.777l7.295-4.415v26.067l15.492-11.886v-59.381c0-4.179-1.763-8.66-7.388-6.792-5.627 1.868-8.104 8.449-8.104 11.743v19.322S3.483-62.658 0-64.287v-14.662c0-5.976 1.625-14.843 10.765-19.982 8.467-4.765 14.881-1.09 16.785 1.492 2.112 2.881 2.457 6.257 2.457 8.777v65.515z" style="fill:#104c98;fill-opacity:1;fill-rule:nonzero;stroke:none" transform="translate(284.064 495.272)"/><path d="m0 0-.017.017L5.58 5.682l-.006.012.27.271a.937.937 0 0 1-.025 1.151l-5.69 5.613-.986-1.001L4.158 6.78l-5.444-5.515-1.765 1.75L.56 6.679-.697 7.914l-3.608-3.659-2.413 2.371-.979-.989 7.304-7.181.976.989z" style="fill:#fff;fill-opacity:1;fill-rule:nonzero;stroke:none" transform="translate(251.185 391.073)"/><path d="M0 0c-.809-.341-1.68-.085-1.953.56-.27.639.164 1.438.978 1.774.8.333 1.676.085 1.936-.56C1.24 1.131.805.336 0 0m-3.528-.105c.551-1.346 2.374-1.865 4.056-1.16 1.67.702 2.584 2.36 2.023 3.701C2.234 3.177 1.55 3.659.714 3.83l1.071.449-.469 1.119-2.236-.936-.284.681-1.627-.677.288-.69-2.308-.963.47-1.112 1.141.479c-.464-.717-.6-1.543-.288-2.285" style="fill:#fff;fill-opacity:1;fill-rule:nonzero;stroke:none" transform="translate(322.124 382.86)"/><path d="m0 0-7.318-3.06.494-1.195 6.56 2.748L.847-4.178l1.632.685L1.212-.486A.923.923 0 0 1 0 0" style="fill:#fff;fill-opacity:1;fill-rule:nonzero;stroke:none" transform="translate(327.893 382.973)"/><path d="m0 0-1.042 2.496-1.625-.684 2.515-5.999 1.625.682-.965 2.297 1.106.466L1.116.462z" style="fill:#fff;fill-opacity:1;fill-rule:nonzero;stroke:none" transform="translate(326.99 387.544)"/><path d="m0 0-5.736 5.727a.927.927 0 0 1-1.298-.021 27.652 27.652 0 0 1-.407-.406L-12.627.105l.986-.993 4.988 4.981.002.024 5.383-5.374-.973-.992-3.59 3.599L-7.077.098l3.594-3.583-.984-.981L-8.058-.88l-1.248-1.244 3.597-3.59-.921-.916 1.063-1.065L1.644-.479.577.584z" style="fill:#fff;fill-opacity:1;fill-rule:nonzero;stroke:none" transform="translate(351.43 397.918)"/><path d="M0 0v-4.547h-1.304V0h-1.765v-8.847h-3.133v7.352h2.04v1.271h-3.801V-9.28a.944.944 0 0 1 .81-.835h4.084v-1.337h1.765v5.597H0v-5.597h1.759V0Z" style="fill:#fff;fill-opacity:1;fill-rule:nonzero;stroke:none" transform="translate(301.24 383.42)"/><path d="m0 0-1.631.705-3.315-7.666 1.639-.705z" style="fill:#fff;fill-opacity:1;fill-rule:nonzero;stroke:none" transform="translate(279.446 386.263)"/><path d="m0 0 .966 2.229-1.64.702L-1.787.345a.952.952 0 0 1 .466-1.199l7.438-3.21.517 1.2z" style="fill:#fff;fill-opacity:1;fill-rule:nonzero;stroke:none" transform="translate(268.783 379.65)"/><path d="M0 0c-.342 1.187-.189 2.37.481 4.016l-.794.343-.029.013-.79.349c-.743-1.629-1.493-2.549-2.597-3.105-.742-.372-1.569-.639-2.419-.502l.334-1.555c.253 0 .512.015.78.044 1.299.149 2.273.364 3.191 1.251-.015-1.276.497-2.135 1.272-3.188.166-.207.334-.406.511-.588l1.353.818C.616-1.573.242-.795 0 0" style="fill:#fff;fill-opacity:1;fill-rule:nonzero;stroke:none" transform="translate(273.639 384.262)"/></g></svg>