<svg xmlns="http://www.w3.org/2000/svg" xml:space="preserve" width="698.6558" height="707.18726" viewBox="47.635624 269.4047 698.6558 707.18726"><path d="M261.58 207.026v25.803h-5.128v3.892h9.798v-29.695h-4.67zM279.398 206.691l6.326 9.508h-1.618c-2.615 0-4.853.984-6.697 2.957-1.84 1.955-2.768 4.33-2.768 7.122 0 .921.115 1.842.358 2.768.261.952.652 1.842 1.183 2.691.947 1.727 2.178 3.047 3.677 3.954 1.51.896 3.247 1.34 5.238 1.34 1.366 0 2.658-.254 3.91-.774a10.693 10.693 0 0 0 3.338-2.273 10.859 10.859 0 0 0 2.216-3.395c.522-1.238.782-2.483.782-3.765 0-1.7-.428-3.459-1.303-5.294-.53-1.096-1.56-2.811-3.092-5.102v-.072l-6.454-9.665h-5.096m9.97 24.087c-1.167 1.189-2.577 1.797-4.247 1.797-1.756 0-3.201-.57-4.3-1.687-1.136-1.131-1.708-2.642-1.708-4.508 0-1.839.537-3.313 1.633-4.43 1.074-1.13 2.494-1.708 4.252-1.708 1.751 0 3.203.604 4.37 1.796 1.161 1.162 1.741 2.527 1.741 4.112 0 1.881-.58 3.405-1.742 4.628zM304.901 216.37c0-1.669.47-3.026 1.409-4.068.964-1.03 2.195-1.556 3.706-1.556 1.563 0 2.856.547 3.885 1.632 1.028 1.027 1.55 2.323 1.55 3.885 0 1.801-.533 3.173-1.613 4.132-1.055.958-2.565 1.428-4.545 1.428h-.565c-.242 0-.452-.038-.642-.09v4.463c.19-.046.38-.046.559-.046.14-.03.298-.036.47-.036 1.466 0 2.559.305 3.293.915.732.577 1.113 1.446 1.113 2.576 0 1.01-.319 1.828-.946 2.47-.603.609-1.379.907-2.299.907-1.06 0-1.896-.28-2.493-.875-.61-.61-.917-1.5-.917-2.687h-4.308c.084 2.459.844 4.388 2.298 5.814 1.402 1.38 3.23 2.078 5.529 2.078 2.08 0 3.845-.73 5.28-2.21 1.436-1.479 2.14-3.238 2.14-5.268 0-1.03-.185-1.955-.553-2.762-.393-.876-1.042-1.757-1.93-2.652 1.516-.947 2.679-2.083 3.466-3.397.75-1.307 1.143-2.805 1.143-4.513 0-2.805-.94-5.179-2.813-7.128-1.858-1.968-4.13-2.958-6.854-2.958-2.99 0-5.34.876-7.052 2.628-1.772 1.763-2.654 4.201-2.654 7.318h4.343zM327.269 220.223c.725 1.245 1.942 2.343 3.63 3.288-.963.953-1.688 1.918-2.14 2.883a6.705 6.705 0 0 0-.665 2.931c0 2.222.761 4.103 2.299 5.65 1.546 1.561 3.439 2.337 5.68 2.337 2.259 0 4.176-.762 5.743-2.286 1.537-1.562 2.325-3.48 2.325-5.745 0-1.06-.242-2.03-.725-2.926-.462-.953-1.198-1.891-2.209-2.844 1.665-.863 2.877-1.916 3.632-3.16.7-1.143 1.053-2.528 1.053-4.126 0-2.792-.979-5.13-2.913-7.008-1.924-1.854-4.267-2.793-7.026-2.793-2.585 0-4.826.94-6.742 2.793-1.954 1.903-2.921 4.177-2.921 6.817 0 1.65.33 3.059.979 4.189m6.246 6.36c.628-.73 1.505-1.078 2.602-1.078 1.136 0 2.019.329 2.647.99.629.673.947 1.586.947 2.78 0 1.13-.345 2.044-1.03 2.767-.659.66-1.497.978-2.526.978-1.047 0-1.912-.336-2.562-1.028-.675-.673-1.03-1.562-1.03-2.641 0-1.156.316-2.082.952-2.768m-1.397-14.295c1.04-1.016 2.355-1.542 3.929-1.542 1.683 0 3.028.54 4.057 1.588.99.99 1.493 2.215 1.493 3.637 0 1.554-.477 2.798-1.404 3.745-1.01 1.002-2.343 1.505-4.02 1.505-1.756 0-3.154-.49-4.145-1.467-.97-.914-1.445-2.152-1.445-3.707 0-1.474.506-2.723 1.535-3.759zM169.517 405.133l-17.329 45.22 71.848 30.014 72.28-35.5v-178.37l-45.649-24.083-24.937 48.61s19.866-5.498 32.125 12.25c-.004 0 8.02 6.761 8.02 27.479v58.74s.857 35.93-44.378 36.349c0 0-30.005.421-51.98-20.71zM432.827 405.133l17.33 45.22-71.842 30.014-72.273-35.5v-178.37l45.639-24.083 24.933 48.61s-19.867-5.498-32.119 12.25c0 0-8.022 6.761-8.022 27.479v58.74s-.85 35.93 44.369 36.349c0 0 30.012.421 51.985-20.71z" style="fill:#fff;fill-opacity:1;fill-rule:nonzero;stroke:none" transform="matrix(1.33333 0 0 -1.33333 0 1122.52)"/><path d="M556.743 371.358c0-142.883-115.84-258.725-258.743-258.725-142.83 0-258.673 115.842-258.673 258.725 0 142.866 115.843 258.715 258.673 258.715 142.902 0 258.743-115.85 258.743-258.715z" style="fill:#196d87;fill-opacity:1;fill-rule:nonzero;stroke:none" transform="matrix(1.33333 0 0 -1.33333 0 1122.52)"/><path d="M550.777 371.358c0-139.582-113.151-252.713-252.777-252.713-139.514 0-252.71 113.13-252.71 252.713 0 139.578 113.196 252.704 252.71 252.704 139.626 0 252.777-113.125 252.777-252.704z" style="fill:#fff;fill-opacity:1;fill-rule:nonzero;stroke:none" transform="matrix(1.33333 0 0 -1.33333 0 1122.52)"/><path d="M492.278 373.538c0-107.193-86.845-194.054-194.005-194.054-107.13 0-193.97 86.86-193.97 194.054 0 107.115 86.84 193.958 193.97 193.958 107.16 0 194.005-86.843 194.005-193.958z" style="fill:#149257;fill-opacity:1;fill-rule:nonzero;stroke:none" transform="matrix(1.33333 0 0 -1.33333 0 1122.52)"/><path d="M91.745 281.4c5.255 2.552 10.162 3.403 14.693 2.552 4.412-.838 7.681-3.161 9.684-6.963a12.057 12.057 0 0 0 1.421-6.265c-.078-2.183-.643-4.392-1.754-6.69a20.722 20.722 0 0 0-3.828-5.307c-1.717-1.625-3.653-2.957-5.808-4.152-2.224-1.205-4.64-2.03-7.013-2.41-2.413-.394-4.771-.357-7.053.178-2.297.443-4.214 1.244-5.84 2.405-1.622 1.2-2.957 2.734-4.027 4.716-1.361 2.627-1.822 5.407-1.361 8.276.558 2.818 2.011 5.638 4.322 8.38l2.758-5.072c-.914-1.606-1.384-3.212-1.47-4.716-.04-1.523.318-2.997 1.12-4.469.62-1.262 1.486-2.215 2.581-3.022a10.153 10.153 0 0 1 4.005-1.6c1.58-.353 3.257-.38 4.965-.14 1.688.319 3.294.935 4.852 1.74 1.58.844 3.025 1.853 4.227 3.079a12.484 12.484 0 0 1 2.768 3.917c.638 1.459.926 2.889.926 4.406.048 1.516-.269 2.855-.907 4.049-.98 1.827-2.431 3.16-4.234 3.871-2.047.889-4.446 1.09-7.415.8l4.707-8.861-4.924-2.616-7.395 13.914zM82.531 285.07c-2.428 0-4.786.444-7.008 1.331-2.183.801-3.964 1.874-5.325 3.252a13.763 13.763 0 0 0-3.094 4.982c-.696 2.012-.909 3.969-.696 5.973.34 1.994 1.095 4.005 2.281 5.96 1.242 2.025 2.842 3.764 4.711 5.218 1.875 1.505 4.117 2.674 6.525 3.51 2.403.8 4.9 1.244 7.23 1.314 2.186.069 4.462-.222 6.455-.875 2.457-.832 4.444-1.949 6.04-3.46 1.65-1.498 2.784-3.345 3.527-5.37.752-2.119.887-4.252.482-6.43-.467-2.14-1.333-4.234-2.831-6.367-1.314-1.712-2.828-3.3-4.692-4.632-1.888-1.296-4.032-2.338-6.346-3.157a24.75 24.75 0 0 0-7.259-1.25m10.486 8.145a12.972 12.972 0 0 1 3.326 3.472c.883 1.383 1.368 2.743 1.657 4.232.314 1.468.136 2.806-.29 4.14-.983 2.844-2.979 4.856-6.093 5.922-3.189 1.117-6.53 1.067-10.179-.203-1.538-.56-3.033-1.27-4.159-2.184-1.274-1.003-2.362-2.132-3.213-3.364-1.015-1.575-1.618-3.072-1.84-4.417-.226-1.404-.086-2.793.422-4.303a8.306 8.306 0 0 1 2.072-3.404c.978-1.028 2.196-1.803 3.673-2.297a14.672 14.672 0 0 1 4.897-.838c1.736.056 3.408.355 5.008.907 1.736.579 3.361 1.365 4.72 2.337zM96.955 324.558 60.87 317.95l-.803 4.646 23.508 18.56-26.088-4.749-.778 4.49 36.019 6.594.816-4.254-24.15-18.902 26.673 4.824.888-4.601zM72.352 381.901c5.837 0 10.579-1.412 14.25-4.18 3.673-2.717 5.543-6.234 5.723-10.49.048-2.221-.488-4.315-1.545-6.296-.927-1.865-2.482-3.65-4.513-5.256-1.714-1.296-3.602-2.267-5.811-3.047-2.156-.648-4.552-1.003-7.056-1.142a24.761 24.761 0 0 0-7.25.94 17.718 17.718 0 0 0-6.28 3.249c-1.872 1.428-3.295 3.008-4.243 4.787-.85 1.738-1.412 3.738-1.46 5.896-.148 3.028.717 5.745 2.408 8.131 1.74 2.285 4.226 4.157 7.595 5.587l.112-5.771a10.262 10.262 0 0 1-3.32-3.643c-.713-1.276-.955-2.788-.936-4.412.041-1.428.355-2.716.936-3.898.714-1.244 1.644-2.272 2.892-3.185a15.591 15.591 0 0 1 4.455-2.293c1.622-.482 3.25-.666 5.03-.614 1.848.063 3.577.405 5.187.863 1.65.545 3.05 1.339 4.227 2.379 1.182 1.023 2.136 2.19 2.787 3.562a8.193 8.193 0 0 1 1.015 4.011c-.127 2.047-.815 3.875-2.136 5.411-1.418 1.578-3.494 2.819-6.318 3.899l.292-10.072-5.565-.176-.476 15.76zM85.162 400.251c1.536-.313 2.825-.85 3.802-1.473 1.333-.983 2.359-2.008 3.009-3.294.682-1.338.914-2.734.816-4.315-.267-2.34-1.242-4.166-3.044-5.44-1.758-1.242-4.168-1.724-7.008-1.466l.416 4.566c1.384 0 2.387.244 3.095.713.777.47 1.143 1.242 1.2 2.245.164 1.6-.423 2.74-1.87 3.368-1.025.514-3.152.9-6.363 1.225l-23.242 2.182.515 4.584 23.778-2.231c2.062-.18 3.741-.396 4.896-.664zM58.55 416.508l22.756-4.6c3.008-.533 5.122-.666 6.493-.26 1.524.445 2.476 1.689 2.834 3.602.315 1.823-.07 3.209-1.31 4.209-1.045.914-3.075 1.65-6.071 2.203l-22.788 4.539.98 4.659 22.623-4.593c2.18-.419 3.852-.84 4.986-1.269 1.51-.578 2.784-1.2 3.736-2 1.459-1.336 2.497-2.58 3.04-3.942.567-1.336.656-2.872.371-4.558-.371-1.876-1.114-3.387-2.165-4.636-1.081-1.242-2.513-2.266-4.379-2.894-1.358-.398-2.869-.531-4.494-.446-1.095.119-2.63.359-4.896.803l-22.668 4.546.952 4.637zM102.15 440.41l-33.962 13.747 1.804 4.33 29.74 3.117-24.497 9.908 1.707 4.284 33.99-13.818-1.624-3.99-30.57-3.028 25.19-10.238-1.777-4.313zM114.008 468.125l-2.364-4.3-25.967 28.405 2.262 3.923 37.558-8.09-2.467-4.469-10.78 2.4-5.588-9.791 7.346-8.078m-20.62 22.258 9.286-9.87 3.88 6.822-13.166 3.048zM129.566 493.255l-25.263 18.373-3.606-4.932-4.354 3.123 9.902 13.54 4.262-3.115-3.49-4.855 25.313-18.394-2.764-3.74zM138.291 504.646l-28.088 23.511 3.002 3.612 28.148-23.508-3.062-3.615zM126.56 531.15a18.272 18.272 0 0 0-1.776 6.941c-.2 2.199 0 4.275.644 6.192.676 1.815 1.767 3.47 3.234 4.919a14.242 14.242 0 0 0 5.07 3.133c1.914.532 4.047.713 6.365.451 2.339-.23 4.61-.895 6.7-2.035 2.183-1.047 4.119-2.564 5.975-4.409 1.802-1.847 3.21-3.843 4.222-5.944 1.046-1.996 1.739-4.139 2.003-6.23.2-2.561.1-4.805-.556-6.97-.688-2.088-1.765-3.894-3.338-5.424-1.62-1.58-3.47-2.627-5.658-3.189-2.133-.514-4.38-.58-6.924-.175-2.154.403-4.139 1.13-6.182 2.273-2.008 1.177-3.875 2.675-5.542 4.427-1.812 1.848-3.233 3.828-4.238 6.04m11.823-6.015a11.724 11.724 0 0 1 4.548-1.555 13.054 13.054 0 0 1 4.517.264c1.397.444 2.622 1.117 3.606 2.076 2.177 2.062 3.116 4.786 2.754 8.077-.281 3.284-1.825 6.293-4.471 9.058a12.892 12.892 0 0 1-3.845 2.871c-1.338.756-2.9 1.226-4.343 1.429-1.804.267-3.41.241-4.809-.184-1.352-.383-2.5-1.11-3.678-2.232a8.53 8.53 0 0 1-2.2-3.29c-.536-1.359-.666-2.78-.536-4.314.18-1.627.599-3.209 1.354-4.836.828-1.514 1.743-2.873 2.942-4.11 1.292-1.34 2.654-2.412 4.161-3.254zM168.444 534.93l-21.331 29.802 3.803 2.744 26.846-13.313-15.417 21.502 3.706 2.667 21.328-29.818-3.494-2.504-27.4 13.742 15.806-22.045-3.847-2.777zM193.237 552.001l-4.275-2.297-6.81 37.875 3.982 2.091 27.448-26.865-4.507-2.412-7.773 7.748-10.007-5.298L193.237 552m-5.633 29.85 2.669-13.216 6.882 3.647-9.551 9.568zM215.736 563.401l-13.475 33.995 4.342 1.738 11.482-28.859 8.992 3.568 2.003-5.148-13.344-5.294zM241.35 610.31l4.96-22.718c.622-2.93 1.351-4.96 2.296-5.983.995-1.2 2.505-1.616 4.477-1.18 1.729.397 2.887 1.342 3.291 2.853.422 1.333.24 3.52-.404 6.43l-4.944 22.73 4.588.984 4.916-22.622c.47-2.092.721-3.762.826-5.028.134-1.63.024-3.046-.356-4.255-.529-1.797-1.356-3.269-2.354-4.339-1.01-1.073-2.38-1.78-4.012-2.183-1.917-.378-3.608-.36-5.125.18-1.688.486-3.068 1.422-4.4 2.844-.935 1.073-1.623 2.387-2.247 3.964-.338.936-.69 2.536-1.158 4.764l-4.944 22.546 4.59 1.013zM268.012 578.493l-3.317 36.488 4.738.397 16.301-25.1-2.292 26.347 4.447.4 3.345-36.462-4.275-.395-16.714 25.724 2.448-27.018-4.681-.381zM297.111 580.41l.24 36.574h4.681l-.205-36.574h-4.716zM315.717 579.67l-7.878 37.447 4.854-.406 5.32-27.174 10.105 25.802 4.85-.447-14.42-35.478-2.831.257zM331.725 577.892l7.186 35.845 15.52-3.079-1.06-5.23-10.92 2.159-2.045-10.058 10.984-2.104-.99-5.243-11.046 2.158-1.935-10.005 10.93-2.167-1.059-5.354-15.565 3.078zM372.31 587.284c-1.776-1.375-3.94-2.196-6.569-2.428l4.335-16.935-5.604 1.736-3.878 16.408-1.105.289-4.318-13.844-4.34 1.333 10.745 35.009 6.793-2.116c1.668-.483 2.888-.927 3.713-1.307a8.842 8.842 0 0 0 2.652-2.153c.985-1.256 1.537-2.763 1.81-4.615a12.402 12.402 0 0 0-.615-5.536 11.703 11.703 0 0 0-3.618-5.84m-.965 11.609c-.679 1.13-2.059 1.968-3.929 2.6l-2.945.931-3.383-10.929 2.806-.866c2.092-.623 3.579-.69 4.81-.134 1.174.575 2.037 1.755 2.69 3.65.631 1.955.56 3.559-.05 4.748zM378.975 575.931c-.697-1.777-.9-3.285-.57-4.608.328-1.288 1.077-2.183 2.296-2.688 1.315-.59 2.553-.53 3.777.127 1.2.582 2.128 1.739 2.863 3.38.75 1.701.888 3.13.386 4.262-.258.826-1.12 1.888-2.595 3.32a14.058 14.058 0 0 0-2.299 2.611c-.78 1.214-1.286 2.417-1.58 3.664-.16.841-.16 1.828-.064 2.863.162.964.515 1.942.896 2.996 1.195 2.944 2.952 4.96 5.155 6.16 2.12 1.196 4.318 1.332 6.678.333 2.145-.955 3.503-2.463 4.099-4.627.61-2.203.382-4.809-.754-7.815l-3.943 1.683c.469 1.432.598 2.657.241 3.723-.19 1.025-.85 1.742-1.769 2.158-1.124.444-2.14.403-3.148-.136-.953-.531-1.848-1.59-2.356-2.978-.24-.533-.4-.984-.425-1.377a2.268 2.268 0 0 1 .025-1.39c.16-.53.489-1.104.983-1.683.331-.364.82-.888 1.576-1.602l1.63-1.644c1.441-1.479 2.355-3.303 2.577-5.3.298-2.024-.062-4.193-1.03-6.44-1.414-3.252-3.292-5.544-5.672-6.918-2.354-1.432-4.826-1.566-7.281-.49-2.4 1.013-3.872 2.806-4.603 5.342-.602 2.603-.361 5.568 1.074 8.718l3.833-1.644zM390.58 558.694l16.717 32.596 4.146-2.13-16.739-32.596-4.125 2.13zM403.274 551.78l16.198 26.783-5.269 3.208 2.78 4.536 14.323-8.68-2.757-4.567-5.14 3.096-16.137-26.738-3.998 2.362zM424.157 537.707l-3.745 2.825 8.063 10.825 6.523 24.044 4.093-3.12-5.121-17.582 15.362 9.902 4.138-3.132-21.454-13.225-7.859-10.537zM461.994 539.535c2.254.959 4.59 1.45 6.99 1.494 2.234.137 4.342-.17 6.168-.875 1.855-.707 3.473-1.837 4.818-3.358 1.38-1.555 2.368-3.314 2.941-5.255.5-1.915.614-4.044.24-6.367-.311-2.312-1.097-4.538-2.254-6.655-1.174-2.118-2.667-3.98-4.626-5.716-1.962-1.781-3.936-3.115-6.062-4.053a19.923 19.923 0 0 0-6.343-1.806c-2.555-.128-4.887.114-6.963.831a13.696 13.696 0 0 0-5.351 3.558 11.935 11.935 0 0 0-2.87 5.722c-.507 2.135-.507 4.47.072 7.01.443 2.07 1.276 4.092 2.45 6.006 1.226 1.968 2.804 3.79 4.626 5.433 1.919 1.698 3.961 3.075 6.164 4.03m-6.467-11.593c-.877-1.47-1.359-2.98-1.658-4.542-.26-1.539-.247-3.075.16-4.5.342-1.446.964-2.694 1.853-3.697 2.017-2.263 4.62-3.292 7.984-3.047 3.32.175 6.399 1.577 9.286 4.177 1.157 1.082 2.21 2.319 2.992 3.663.826 1.446 1.294 2.824 1.502 4.388.337 1.752.337 3.384 0 4.758-.333 1.36-1.039 2.603-2.062 3.78-.85 1.034-1.941 1.78-3.249 2.32a9.169 9.169 0 0 1-4.26.63c-1.606-.076-3.242-.409-4.855-1.17a13.993 13.993 0 0 1-4.24-2.796c-1.41-1.2-2.501-2.542-3.453-3.964zM494.386 518.07l8.62-12.329-4.366-3.053-5.98 8.575-8.418-5.896 5.872-8.525-4.272-3.01-5.942 8.551-12.935-8.994-2.673 3.738 30.094 20.944zM481.183 470.728l32.885 16.001 6.926-14.243-4.748-2.336-4.93 10.06-9.224-4.496 4.919-10.042-4.754-2.31-4.889 9.993-9.19-4.427 4.963-10.042-4.989-2.434-6.97 14.276zM489.581 453.317l34.55 12.152 3.249-9.165c1.472-4.263 1.04-8.278-1.205-12.027-2.343-3.731-6.044-6.538-11.235-8.314-2.896-1.028-5.789-1.473-8.557-1.328a18.12 18.12 0 0 0-7.453 2.121c-1.764 1.025-3.14 2.275-4.189 3.748-.888 1.15-1.6 2.774-2.316 4.8l-2.844 8.013m8.195-7.258c1.091-3.077 3.027-5.117 5.852-6.094 2.755-.979 5.972-.822 9.706.444 3.929 1.356 6.588 3.314 8.104 5.963 1.624 2.625 1.74 5.669.483 9.128l-1.333 3.917-24.463-8.576 1.651-4.782zM535.347 429.41l-22.704-4.854c-2.933-.603-4.914-1.361-6.058-2.265-1.154-1.026-1.535-2.533-1.154-4.505.4-1.758 1.315-2.843 2.842-3.316 1.327-.377 3.48-.216 6.444.426l22.723 4.804 1.024-4.582-22.635-4.856c-2.096-.412-3.835-.711-5.054-.756-1.624-.083-3.046 0-4.29.342-1.818.592-3.277 1.394-4.33 2.425-1.09 1.023-1.776 2.333-2.132 4.018-.38 1.901-.356 3.573.152 5.107.47 1.644 1.512 3.07 2.856 4.358a11.935 11.935 0 0 0 4.006 2.221c.985.369 2.488.718 4.689 1.21l22.662 4.805.959-4.583zM507.17 380.97c-1.993 2.13-3.08 4.717-3.315 7.767-.163 2.208.236 4.337 1.195 6.278.938 1.982 2.361 3.805 4.292 5.504a20.45 20.45 0 0 0 5.598 3.288 26.27 26.27 0 0 0 6.98 1.468c2.61.204 4.99 0 7.333-.58 2.4-.578 4.563-1.597 6.52-2.935 1.802-1.337 3.312-2.845 4.41-4.447.933-1.829 1.53-3.698 1.714-5.707.215-3.018-.514-5.877-2.113-8.301-1.6-2.471-4.101-4.476-7.454-5.95l-.404 5.345c1.623 1.114 2.665 2.41 3.407 3.81.616 1.43.91 3.032.77 4.747-.154 1.314-.546 2.623-1.207 3.758a8.386 8.386 0 0 1-3.035 3.088 12.439 12.439 0 0 1-4.527 2.01c-1.629.444-3.355.551-5.045.444-1.833-.134-3.617-.53-5.167-1.178-1.536-.6-2.963-1.467-4.126-2.514-1.166-1.021-1.98-2.275-2.57-3.628-.679-1.402-.958-2.735-.826-4.027a9.793 9.793 0 0 1 1.504-4.458c.94-1.248 2.077-2.312 3.645-3.16l.432-5.581c-3.427 1.127-6.03 2.818-8.01 4.96zM505.366 369.257l.286 4.897 35.806-14.07-.298-4.493-37.305-9.28.332 5.134 10.65 2.52.749 11.286-10.22 4.006m28.388-10.86-12.695 4.715-.515-7.788 13.21 3.072zM502.468 339.822l30.861-5.382.97 6.056 5.257-.94-2.843-16.553-5.258.927 1.048 5.98-30.816 5.388.78 4.524zM499.667 325.807l35.552-8.885-1.135-4.564-35.534 8.886 1.117 4.563zM521.91 307.107c1.821-1.573 3.389-3.383 4.557-5.432 1.18-1.956 1.89-3.922 2.068-5.88.216-1.997 0-3.91-.685-5.825-.685-1.968-1.733-3.694-3.244-5.078-1.428-1.332-3.274-2.45-5.465-3.212-2.278-.8-4.513-1.13-6.995-1.105-2.399.014-4.735.458-7.21 1.333-2.468.935-4.583 2.095-6.386 3.518a19.579 19.579 0 0 0-4.602 4.716c-1.289 2.183-2.14 4.36-2.495 6.505-.293 2.176-.158 4.342.622 6.36.75 2.159 2.005 3.898 3.714 5.345 1.618 1.384 3.676 2.45 6.164 3.206 2.031.539 4.24.8 6.5.667 2.322-.178 4.594-.737 7.019-1.563a26.644 26.644 0 0 0 6.437-3.555m-13.316.178c-1.716.135-3.301-.075-4.761-.539-1.475-.552-2.85-1.289-3.942-2.304-1.144-.945-1.936-2.056-2.406-3.344-1.005-2.895-.668-5.695 1.085-8.513 1.707-2.805 4.437-4.888 8.016-6.228 1.498-.506 3.125-.843 4.596-.881 1.664-.05 3.2.191 4.648.684 1.751.51 3.16 1.296 4.206 2.222 1.092.915 1.874 2.165 2.395 3.588.503 1.333.633 2.627.513 3.967-.145 1.416-.654 2.766-1.505 4.106-.825 1.365-1.828 2.61-3.274 3.727a16.446 16.446 0 0 1-4.43 2.45c-1.74.646-3.453.99-5.141 1.065zM485.842 285.31l32.196-17.474-2.209-4.118-29.923.29 23.245-12.593-2.23-4.056-32.188 17.45 2.132 3.807 30.546-.353-23.798 12.928 2.229 4.12zM173.425 187.959l-3.183-3.904-7.838 6.437c.262-1.683.245-3.327-.132-4.952-.29-1.783-1.043-3.32-2.152-4.696-2.566-3.122-5.951-4.698-10.116-4.698-3.808-.039-7.3 1.258-10.413 3.757-3.16 2.63-5.135 5.873-5.858 9.7-.822 4.011.106 7.616 2.63 10.726 1.153 1.34 2.467 2.395 4.067 3.123 1.447.674 3.113 1.024 4.859 1.024l-7.393 6.104 3.252 3.913 11.624-9.606 4.406 5.295 4.317-3.6-4.317-5.306 10.209-8.423 7.04 8.55-25.267 20.661 3.176 3.852 29.631-24.284-10.17-12.333 1.628-1.34m-26.197 11.419c-2.499-.15-4.523-1.175-6.04-3.048-1.536-1.776-2.063-3.922-1.735-6.42.294-2.46 1.399-4.485 3.313-5.996 1.83-1.521 3.988-2.158 6.394-1.985 2.56.056 4.564 1.046 6.032 2.874 1.605 1.868 2.134 4.05 1.802 6.584-.38 2.43-1.448 4.367-3.323 5.934-1.79 1.503-3.977 2.223-6.443 2.057zM207.751 181.985c-1.088-2.366-.53-4.755 1.664-7.21 1.79-1.852 4.637-3.955 8.915-6.13l-2.276-4.507c-3.673 2.012-6.588 3.833-8.792 5.61-3.338 2.768-5.25 5.548-5.747 8.238-2.428-1.28-5.769-1.394-10.17-.354-2.719.683-5.944 1.852-9.618 3.522l2.22 4.489c4.344-1.957 7.717-3.11 10.29-3.329 3.263-.329 5.497.706 6.795 3.024l-13.824 6.88 2.28 4.52 34.34-17.012-2.254-4.543-13.823 6.802m-22.086-29.553 6 12.022-15.924 7.883 2.292 4.585 36.913-18.389-2.253-4.514-16.024 7.947-5.95-12.072-5.054 2.538zM263.097 134.626l-1.253-4.905-40.096 9.394 1.169 4.977 6.537-1.542 3.983 16.877 5.502-1.32-3.963-16.899 6.23-1.472 3.97 16.859 5.455-1.217-3.962-16.904 7.5-1.796 6.634 28.137L232 171.627l1.111 4.85 34.413-8.073-7.771-33.02 3.344-.758zM292.163 162.98c-1.533-1.308-2.31-2.931-2.335-4.81 0-1.823.756-3.396 2.335-4.708 1.403-1.321 3.169-2.025 5.21-2.025 1.853 0 3.47.638 4.856 1.934 1.566 1.403 2.334 2.965 2.334 4.736 0 1.897-.768 3.53-2.278 4.836-1.398 1.295-2.997 1.91-4.862 1.91-2.003 0-3.784-.577-5.26-1.874m11.448-22.74.065 5.477-12.604.039-.012-5.47 12.551-.047m12.796-.07v-14.599l-5.744.013.027 9.553-32.51.12v5.066l7.214-.037v5.489l-8.72.026.072 4.984 10.632-.039c-1.09 1.117-1.94 2.247-2.47 3.478-.67 1.37-.913 2.843-.913 4.311 0 3.345 1.383 6.08 4.097 8.167 2.599 2.02 5.799 3.047 9.346 3.047 3.405-.038 6.395-1.027 8.884-3.083 2.762-2.146 4.127-4.882 4.127-8.214 0-1.626-.389-3.01-1.03-4.367a9.255 9.255 0 0 0-2.537-3.384l11.068-.025-.05-5.053-8.596.095-.062-5.478 7.165-.07zM336.973 142.772l16.98 3.827-5.953 26.22 5.14 1.15 2.92-12.778 4.33.99-2.826 12.824 5.264 1.14 9.077-40.14-5.275-1.245-5.096 22.528-4.344-.985 5.028-22.52-5.091-1.162-2.113 9.09-18.921-4.278c-1.232-.274-2.052-.274-2.655 0-.84.311-1.377 1.04-1.625 2.226l-6.322 28.096 18.167 4.1 1.047-4.915-12.561-2.886 4.829-21.282zM393.226 182.532c.832-.356 1.517-.776 2.208-1.422.718-.584 1.18-1.296 1.632-2.119 1.282-2.678 1.333-5.357.127-8.036-1.04-2.55-3.002-4.476-5.674-5.789-2.718-1.296-5.471-1.6-8.239-.89-2.83.673-4.946 2.388-6.254 4.99-.373.838-.576 1.69-.755 2.59a8.1 8.1 0 0 0 .382 2.665l-2.971-1.435-2.134 4.368 8.773 4.228-1.79 3.517 5.547 2.76 1.74-3.599 8.212 3.955 2.122-4.317-2.926-1.466m-11.077-7.013c-.602-1.335-.602-2.642.04-3.892.577-1.258 1.6-2.057 3.077-2.501 1.34-.406 2.78-.356 4.093.368 1.283.61 2.16 1.574 2.711 2.983.61 1.46.61 2.706 0 3.859-.551 1.296-1.604 2.146-3.014 2.515-1.498.431-2.768.317-4.133-.324-1.325-.674-2.214-1.605-2.774-3.008m28.514 9.774 3.54-7.307-5.159-2.511-8.55 17.81 5.073 2.469 2.963-5.967 5.14 2.545 2.204-4.544-5.21-2.495m12.89-26.584-5.166-2.442-5.206 10.663-27.58-13.457-2.272 4.614 32.83 15.882 7.394-15.26zM465.378 199.188l3.142-3.922-32.03-25.962-3.231 3.94 5.256 4.26L427.57 191l4.4 3.554 10.855-13.508 5.032 4.044-10.88 13.488 4.343 3.498 10.906-13.438 6.003 4.824-18.116 22.458-23.003-18.598-3.173 3.865 27.484 22.249 21.265-26.394 2.69 2.146z" style="fill:#231f20;fill-opacity:1;fill-rule:nonzero;stroke:none" transform="matrix(1.33333 0 0 -1.33333 0 1122.52)"/><path d="M260.041 209.648v26.063h-5.182v3.924h9.903v-29.987h-4.72zM278.05 209.331l6.389 9.578h-1.675c-2.61 0-4.847 1.004-6.782 3.029-1.841 1.916-2.718 4.308-2.718 7.147 0 .926.133 1.84.334 2.823a8.935 8.935 0 0 0 1.2 2.711c.959 1.738 2.208 3.072 3.722 4.013 1.535.869 3.274 1.313 5.293 1.313 1.391 0 2.638-.285 3.94-.78 1.255-.515 2.36-1.308 3.346-2.272 1.024-1.03 1.757-2.14 2.27-3.416.54-1.308.804-2.552.804-3.847 0-1.713-.422-3.51-1.317-5.338-.53-1.161-1.622-2.845-3.132-5.147v-.078l-6.507-9.736h-5.166m10.04 24.331c-1.132 1.186-2.564 1.77-4.234 1.77-1.797 0-3.245-.572-4.403-1.606-1.14-1.225-1.731-2.722-1.731-4.64 0-1.84.53-3.314 1.658-4.443 1.097-1.18 2.545-1.758 4.347-1.758 1.783 0 3.231.59 4.364 1.846 1.188 1.162 1.805 2.515 1.805 4.14 0 1.866-.617 3.471-1.805 4.691zM303.771 219.081c0-1.688.526-3.093 1.485-4.113.915-1.049 2.158-1.535 3.745-1.535 1.53 0 2.87.486 3.883 1.6 1.055 1.065 1.594 2.36 1.594 3.966 0 1.802-.616 3.153-1.65 4.132-1.053 1.01-2.623 1.434-4.597 1.434h-.595c-.222 0-.374 0-.615-.044v4.488c.24-.038.393-.038.595-.038.16 0 .294-.065.47-.065 1.435 0 2.577.28 3.275.928.75.61 1.13 1.498 1.13 2.608 0 1.035-.311 1.847-.912 2.501-.675.616-1.41.92-2.363.92-1.027 0-1.915-.304-2.45-.908-.66-.602-.99-1.478-.99-2.696h-4.329c.076 2.494.838 4.454 2.298 5.877 1.396 1.397 3.276 2.096 5.63 2.096 2.114 0 3.898-.731 5.314-2.23 1.472-1.503 2.21-3.249 2.21-5.337 0-.997-.218-1.98-.618-2.806-.406-.85-1.048-1.7-2-2.667 1.532-.982 2.782-2.05 3.607-3.433.723-1.294 1.155-2.76 1.155-4.538 0-2.825-1.004-5.218-2.882-7.173-1.935-2.007-4.166-2.983-6.945-2.983-3.045 0-5.383.9-7.07 2.628-1.854 1.822-2.705 4.251-2.705 7.388h4.33zM326.38 222.959c.787 1.295 1.935 2.342 3.682 3.357-.921.94-1.747 1.899-2.171 2.87-.426.985-.666 1.96-.666 2.97 0 2.197.754 4.177 2.297 5.701 1.582 1.599 3.511 2.374 5.783 2.374 2.248 0 4.26-.775 5.77-2.335 1.607-1.539 2.406-3.41 2.406-5.764 0-1.068-.293-2.044-.789-2.96a9.035 9.035 0 0 0-2.221-2.856c1.726-.914 2.894-1.955 3.715-3.261.677-1.08 1.046-2.457 1.046-4.1 0-2.807-1.022-5.193-2.97-7.085-1.942-1.866-4.255-2.806-7.065-2.806-2.647 0-4.92.94-6.882 2.806-1.934 1.961-2.842 4.182-2.842 6.881 0 1.676.286 3.097.908 4.208m6.372 6.417c.566-.697 1.51-1.078 2.575-1.078 1.183 0 2.034.355 2.679 1.022.598.646.94 1.568.94 2.793 0 1.134-.342 2.062-.99 2.779-.666.685-1.534 1.022-2.602 1.022-1.022 0-1.891-.355-2.526-1.054-.724-.685-1.08-1.574-1.08-2.691 0-1.105.262-2.081 1.004-2.793m-1.43-14.408c1.05-1.049 2.337-1.535 3.982-1.535 1.632 0 3.008.486 4.038 1.6 1.04.955 1.484 2.219 1.484 3.654 0 1.575-.444 2.832-1.333 3.778-1.053.982-2.425 1.555-4.139 1.555-1.695 0-3.136-.528-4.1-1.512-1.055-.926-1.53-2.183-1.53-3.74 0-1.484.507-2.78 1.598-3.8zM166.28 408.483l-17.525 45.704 72.57 30.347 73.061-35.887V268.483l-46.112-24.373-25.27 49.104s20.144-5.517 32.518 12.384c0 0 8.083 6.817 8.083 27.77v59.317s.895 36.346-44.793 36.724c-.004 0-30.32.445-52.533-20.926zM432.23 408.483l17.5 45.704-72.53 30.347-73.012-35.887V268.483l46.11-24.373 25.147 49.104s-20.033-5.517-32.382 12.384c0 0-8.133 6.817-8.133 27.77v59.317c-.006 0-.889 36.346 44.808 36.724 0 0 30.326.445 52.492-20.926z" style="fill:#fff;fill-opacity:1;fill-rule:nonzero;stroke:none" transform="matrix(1.33333 0 0 -1.33333 0 1122.52)"/></svg>