<svg xmlns="http://www.w3.org/2000/svg" xml:space="preserve" width="410.07465" height="410.07733" viewBox="0 0 410.07464 410.07732"><defs><clipPath id="a" clipPathUnits="userSpaceOnUse"><path d="M0 858.897h612.288V0H0Z"/></clipPath></defs><g transform="matrix(1.33333 0 0 -1.33333 -202.88 778.803)"><ellipse cx="305.99069" cy="-429.48367" rx="151.08943" ry="151.80588" style="fill:#fff;stroke-width:.75" transform="scale(1 -1)"/><g clip-path="url(#a)"><path d="M222.445 462.08h167.24v-6.369h-167.24zm127.447-59.99v48.974h2.081v-9.191l9.305 8.566s4.027-7.703 7.101-4.139c0 0 1.351-3.07-3.568-6.132l-.089-35.016s.089-5.416 5.243-3.794l-4.778-9.047s-4.764-.611-6.828 8.569c0 0-7.49-5.039-10.435-8.964 0 0-8.501 8.077-14.928 3.073 0 0-.248 6.243 7.59 9.317l-.124 15.168s-3.557 2.324-5.015-2.217c0 0-.982.496-1.339 4.408 0 0-.132 7.363 6.354 6.02v10.508s-3.171 10.042-10.544.251c0 0-1.704 12.484 9.066 12.264 0 0 7.739.716 8.196-10.658l-.118-36.739s2.325-.133 2.83-1.221m-58.662 13.944s-1.48-.855-1.48 5.024c0 0 .172 5.523 5.296 4.775v16.791s-3.68 3.173-6.869-4.801c0 0-1.71-.11-.861 6.25 0 0 1.97 6.991 7.73 6.635 0 0 8.686 2.805 15.665-19.837 0 0 1.427-6.137 8.815-1.728v11.025s-3.047.119-3.643 1.223c0 0-1.516 2.324-3.812.602 0 0 1.327 2.826 6.237 8.715 0 0 5.429-5.395 10.4-.875 0 0 2.692-5.76-6.593-9.546v-47.976s-5.644-1.741-12.273 20.541c0 0-6.477 5.166-12.355.239l-.37-9.29s5.654.244 8.964-3.672l.825 1.103 1.486-1.496-5.755-7.924s-7.348 7.692-16.29 1.462c0 0 .618 8.329 8.578 9.904v14.964s-3.299.861-3.695-2.108m-37.446 26.826s-3.801.113-5.886 1.213c0 0-.852 1-5.976-1.1 0 0 1.207 9.319 9.428 8.203 0 0 6.603-2.683 9.295-1.083 0 0-.994-7.002-6.861-7.233m15.07-41.98.846.59 1.471-1.206s-5.397-6.513-6.006-8.348c0 0-1.607.501-2.698 1.835 0 0-5.499 5.161-18.477-.233 0 0 9.913 18.482 24.864 7.362m-19.98 18.221s-1.332 2.198-5.121-2.188c0 0-3.568 10.655 5.008 10.147l.385 3.917s.837 6.481 7.694 8.821c0 0-1.361-2.949-1.207-4.783l-.255-22.163s-1.715-10.02-8.332-9.541c0 0 3.07 2.085 1.828 15.79m16.543 8.69 11.129 23.273c-.243-2.323 4.33-2.698 4.33-2.698 1.603-.491 2.911 1.238 2.911 1.238 1.104-5.04-4.165-9.078-4.165-9.078-1.278-2.333-5.999.243-5.999.243l-4.902-12.593c4.177-.886 6.142-11.757 6.142-11.757 3.037-11.515 5.123-13.108 5.123-13.108 1.354-2.819 4.789-1.574 4.789-1.574-2.577-2.966-5.29-9.32-5.29-9.32-6.477-1.847-8.915 13.715-8.915 13.715-1.716 10.159-5.153 14.926-5.153 14.926-.844-15.662-7.976-13.208-7.976-13.208 3.671 1.349 1.61 29.133 1.61 29.133 1.334 11.51 8.061 11.51 8.061 11.51-3.669-2.079-1.695-20.702-1.695-20.702m117.156-46.513H229.292v7.094h153.281zm-41.366 88.55h-71.016l35.579 33.801zm24.623 0h-12.567l-47.64 45.397-47.528-45.732H246.19l59.757 57.953zm-5.478 46.306c-15.77 10.279-34.585 16.29-54.816 16.29-49.103 0-89.949-35.235-98.687-81.798a100.699 100.699 0 0 1-1.754-18.643c0-21.738 6.922-41.844 18.657-58.284l163.628.091c11.701 16.422 18.595 36.49 18.595 58.193 0 35.239-18.157 66.22-45.623 84.151" style="fill:#033885;fill-opacity:1;fill-rule:nonzero;stroke:none"/><path d="m0 0-14.373 13.877L-28.406-.168Z" style="fill:#033885;fill-opacity:1;fill-rule:nonzero;stroke:none" transform="translate(320.143 478.162)"/><path d="M0 0c-6.24 22.998-11.404 24.853-11.404 24.853l.13-25.604C-7.343 2.687 0 0 0 0" style="fill:#033885;fill-opacity:1;fill-rule:nonzero;stroke:none" transform="translate(308.392 416.913)"/><path d="M0 0c-3.183-2.084-7.229-.5-7.229-.5C-4.417-13.347 0-19.58 0-19.58Z" style="fill:#033885;fill-opacity:1;fill-rule:nonzero;stroke:none" transform="translate(319.526 426.078)"/><path d="M0 0v9.677c-1.606 1.103-2.69 2.804-2.69 2.804l-3.431-2.923V.855C-4.902-1.467 0 0 0 0" style="fill:#033885;fill-opacity:1;fill-rule:nonzero;stroke:none" transform="translate(358.22 430.61)"/><path d="m0 0-.14 11.136s-2.807-1.356-6.247-.134V0S-3.938 1.443 0 0" style="fill:#033885;fill-opacity:1;fill-rule:nonzero;stroke:none" transform="translate(358.36 416.913)"/><path d="m0 0 .195 10.589c-2.151 2.069-6.51.068-6.51.068l.34-14.194C-5.975-4.651 0 0 0 0" style="fill:#033885;fill-opacity:1;fill-rule:nonzero;stroke:none" transform="translate(358.073 403.8)"/><path d="M0 0c.915 0 1.652.262 2.213.798.561.536.847 1.188.847 1.973 0 .755-.277 1.405-.829 1.948-.554.543-1.296.817-2.231.817-.936 0-1.678-.274-2.234-.817-.552-.543-.827-1.193-.827-1.948 0-.785.28-1.437.842-1.973C-1.651.262-.916 0 0 0" style="fill:#033885;fill-opacity:1;fill-rule:nonzero;stroke:none" transform="translate(330.738 352.347)"/><path d="M0 0c-.375.37-.792.66-1.274.869a3.58 3.58 0 0 1-1.53.328c-.544 0-1.05-.106-1.529-.328A4.14 4.14 0 0 1-5.602 0a4.184 4.184 0 0 1-.838-1.274 3.486 3.486 0 0 1-.331-1.527c0-.529.106-1.026.331-1.498.205-.483.489-.909.838-1.304a4.644 4.644 0 0 1 1.269-.846 3.788 3.788 0 0 1 1.529-.317c.538 0 1.057.109 1.53.317A4.64 4.64 0 0 1 0-5.603c.349.395.627.821.841 1.304.219.472.325.969.325 1.498 0 .55-.106 1.055-.325 1.527A4.365 4.365 0 0 1 0 0" style="fill:#033885;fill-opacity:1;fill-rule:nonzero;stroke:none" transform="translate(300.938 356.66)"/><path d="M0 0c-1.187 0-2.147-.332-2.873-.984-.729-.669-1.092-1.471-1.092-2.424 0-.955.363-1.767 1.092-2.425.726-.66 1.686-.986 2.873-.986 1.186 0 2.145.326 2.871.986.73.658 1.096 1.47 1.096 2.425 0 .953-.366 1.755-1.096 2.424C2.145-.332 1.186 0 0 0" style="fill:#033885;fill-opacity:1;fill-rule:nonzero;stroke:none" transform="translate(330.738 349.688)"/><path d="M0 0v8.338L-5.545 0Z" style="fill:#033885;fill-opacity:1;fill-rule:nonzero;stroke:none" transform="translate(315.165 346.802)"/><path d="M0 0c-1.385-1.168-3.104-1.748-5.158-1.748-2.064 0-3.79.58-5.159 1.748-1.404 1.186-2.099 2.659-2.099 4.435 0 .833.199 1.63.611 2.393a6.57 6.57 0 0 0 1.658 1.979c.23.171.487.339.755.494a6.903 6.903 0 0 0-1.545 1.844 4.27 4.27 0 0 0-.576 2.15c0 1.519.599 2.808 1.8 3.878 1.243 1.09 2.757 1.636 4.555 1.636 1.786 0 3.308-.546 4.545-1.636 1.21-1.07 1.805-2.359 1.805-3.878 0-.754-.188-1.472-.578-2.15A6.81 6.81 0 0 0-.935 9.301c.277-.155.528-.323.758-.494a6.332 6.332 0 0 0 1.662-1.979 4.98 4.98 0 0 0 .619-2.393C2.104 2.659 1.396 1.186 0 0m-14.839 2.156h-2.63v-3.552h-3.262v3.552h-9.218v2.516l9.39 13.786h3.09V4.957h2.63zm-16.622 6.387-4.697-9.939h-3.557l3.356 6.969a6.462 6.462 0 0 0-1.403-.272c-2.079 0-3.819.663-5.215 1.992-1.381 1.337-2.074 2.919-2.074 4.752 0 1.865.693 3.452 2.074 4.782 1.414 1.32 3.163 1.982 5.215 1.982 2.06 0 3.798-.662 5.224-1.982 1.382-1.33 2.066-2.917 2.066-4.782 0-.958-.326-2.119-.989-3.502m-17.717-9.939h-3.325V14.32l-3.612-2.746-1.807 2.394 5.919 4.49h2.825zm-57.417 26.254C-88.173 3.399-60.874-10.31-30.369-10.31h.009c.038 0 .074.007.109.007.388.009.61.018.689.029A100.136 100.136 0 0 1-3.729-6.706C15.884-1.332 33.083 9.842 45.947 24.858z" style="fill:#033885;fill-opacity:1;fill-rule:nonzero;stroke:none" transform="translate(335.897 341.845)"/><path d="m0 0-3.577 1.298 7.275 12.293-1.787 4.226L-6.96 2.56l-13.644 4.957-.229.084 1.708-4.044.02-.047L-4.2-1.782l-10.651-4.503-.094-.045 1.405-3.323L9.33.024l.094.038L8.02 3.388Z" style="fill:#00a755;fill-opacity:1;fill-rule:nonzero;stroke:none" transform="translate(197.607 381.67)"/><path d="M0 0c-.207.918-.258 1.809-.134 2.653.118.837.426 1.618.926 2.309.5.691 1.214 1.325 2.137 1.873.928.543 2.103.968 3.49 1.287l2.908.66c1.071.24 2.059.364 2.937.364.264 0 .524-.013.767-.036 1.073-.088 1.988-.34 2.733-.757a5.307 5.307 0 0 0 1.834-1.694 7.23 7.23 0 0 0 1.021-2.457c.207-.918.255-1.802.136-2.653a5.273 5.273 0 0 0-.932-2.312c-.497-.702-1.216-1.325-2.138-1.87-.921-.538-2.096-.972-3.489-1.29l-2.905-.653c-1.079-.248-2.064-.368-2.952-.368-.257 0-.512.008-.76.031-1.065.093-1.986.354-2.73.771a5.143 5.143 0 0 0-1.828 1.689C.55-1.753.204-.924 0 0m4.904-8.538c.452-.054.927-.08 1.412-.08 1.049 0 2.197.133 3.398.403l3.648.819c1.795.409 3.319 1.011 4.529 1.792 1.213.775 2.186 1.724 2.882 2.796A8.655 8.655 0 0 1 22.086.784c.16 1.297.08 2.695-.252 4.147-.322 1.431-.852 2.721-1.559 3.839a8.664 8.664 0 0 1-2.724 2.699c-1.092.665-2.373 1.093-3.808 1.285-1.431.173-3.065.061-4.847-.341l-3.648-.82c-1.767-.4-3.278-1.004-4.488-1.778-1.21-.775-2.186-1.724-2.882-2.8a8.697 8.697 0 0 1-1.325-3.609c-.169-1.311-.098-2.694.228-4.139.323-1.432.849-2.722 1.573-3.826A8.55 8.55 0 0 1 1.1-7.244c1.097-.681 2.381-1.112 3.804-1.294" style="fill:#00a755;fill-opacity:1;fill-rule:nonzero;stroke:none" transform="translate(176.243 403.39)"/><path d="m0 0-.082 3.267v.106l-19.797-.492c.541.239 1.047.492 1.521.749.65.348 1.176.632 1.597.882l16.357 10 .046.033-.098 3.964v.115l-24.815-.613-.105-.002.078-3.259v-.107l19.832.484a21.275 21.275 0 0 1-1.539-.748 17.34 17.34 0 0 1-1.541-.879L-24.974 3.497l-.049-.031.097-3.972v-.101l24.823.602z" style="fill:#00a755;fill-opacity:1;fill-rule:nonzero;stroke:none" transform="translate(195.243 420.728)"/><path d="M0 0c.757-1.038 1.781-1.917 3.042-2.624 1.254-.695 2.792-1.204 4.573-1.502l3.689-.622a16.732 16.732 0 0 1 2.754-.246c.734 0 1.449.063 2.107.184 1.416.264 2.677.772 3.732 1.517 1.06.746 1.936 1.743 2.595 2.962.66 1.219 1.133 2.656 1.403 4.284.26 1.517.331 3.07.215 4.597-.118 1.523-.467 2.908-1.03 4.117l-.023.054L11.44 14.67l-.103.021-1.488-8.869-.016-.097 3.077-.518.911 5.407 6.695-1.13c.19-.671.299-1.431.331-2.241a12.991 12.991 0 0 0-.186-2.643C20.303 2.452 19.368.829 17.88-.23c-1.482-1.051-3.639-1.352-6.417-.886l-2.81.471C5.878-.18 3.932.766 2.861 2.163c-1.073 1.393-1.438 3.15-1.091 5.23.2 1.139.537 2.197 1.022 3.133.498.944 1.25 1.881 2.247 2.787l.088.079-2.503 2.261-.071.064-.071-.064a11.71 11.71 0 0 1-2.609-3.421c-.636-1.265-1.086-2.706-1.352-4.292-.264-1.562-.272-3.029-.032-4.354C-1.269 2.245-.763 1.042 0 0" style="fill:#00a755;fill-opacity:1;fill-rule:nonzero;stroke:none" transform="translate(173.184 448.445)"/><path d="M0 0c.473-.748.512-1.728.115-2.904-.253-.741-.588-1.376-1.003-1.897-.407-.526-1.008-1.042-1.771-1.544l-.098-.068 2.098-2.479.05-.067.074.044A7.457 7.457 0 0 1 1.86-6.727c.652.911 1.127 1.796 1.412 2.651.332.973.527 1.916.592 2.825.055.911-.078 1.786-.402 2.576-.329.799-.877 1.528-1.639 2.172-.761.654-1.805 1.201-3.109 1.645l-16.982 5.754-.103.035-1.121-3.319-.033-.095 16.404-5.558C-1.532 1.417-.479.758 0 0" style="fill:#00a755;fill-opacity:1;fill-rule:nonzero;stroke:none" transform="translate(197.335 470.712)"/><path d="M0 0c-.961.977-2.29 1.917-3.943 2.796l-13.082 6.963-.092.044-1.692-3.18L-6.002-.189c1.227-.652 2.215-1.314 2.948-1.959.741-.645 1.263-1.319 1.568-2.008.296-.693.397-1.423.296-2.172-.097-.757-.372-1.582-.828-2.429-.455-.854-.979-1.538-1.55-2.044a3.95 3.95 0 0 0-1.968-.955c-.742-.142-1.588-.086-2.541.162-.94.252-2.041.704-3.265 1.358L-24.06-3.47l-.094.047-1.696-3.183 13.176-7.009c1.657-.884 3.18-1.454 4.523-1.7a9.585 9.585 0 0 1 1.77-.174c.68 0 1.328.088 1.935.244 1.103.312 2.099.894 2.972 1.74.858.84 1.652 1.923 2.337 3.222.693 1.29 1.152 2.544 1.365 3.737.212 1.197.138 2.348-.229 3.437C1.639-2.035.961-.985 0 0" style="fill:#00a755;fill-opacity:1;fill-rule:nonzero;stroke:none" transform="translate(207.4 495.012)"/><path d="m0 0-2.218-2.381-.071-.083 14.537-13.499a32.77 32.77 0 0 1-1.625.539 25.99 25.99 0 0 1-1.722.455l-18.74 4.298-.059.012-2.701-2.907-.071-.074L5.521-30.538l.076-.073 2.219 2.392.071.074L-6.617-14.67a25.433 25.433 0 0 1 1.605-.524c.64-.186 1.231-.349 1.758-.482l18.694-4.262.059-.018 2.707 2.914.067.082L.083-.071z" style="fill:#00a755;fill-opacity:1;fill-rule:nonzero;stroke:none" transform="translate(212.715 532.164)"/><path d="m0 0-5.738-4.188-1.687 5.777a42.29 42.29 0 0 1-.402 1.34l-.062.186c-.095.314-.19.613-.287.893a17.25 17.25 0 0 1-.379 1.107c-.115.317-.237.675-.388 1.104.367-.285.672-.509.926-.693l.941-.686c.31-.228.63-.449.959-.671zm-10.017 10.688-2.777-2.029 7.2-25.607 2.923 2.13.06.048-2.176 7.402 7.521 5.499L9.059-6.17l.064-.039 3.065 2.233-22.143 14.621z" style="fill:#00a755;fill-opacity:1;fill-rule:nonzero;stroke:none" transform="translate(237.37 533.063)"/><path d="m0 0 .1.047-1.372 2.69-.051.094-16.556-8.425-.101-.047 1.373-2.695.046-.092 6.727 3.423L0-24.343l.05-.101 3.121 1.591.095.044-9.89 19.434z" style="fill:#00a755;fill-opacity:1;fill-rule:nonzero;stroke:none" transform="translate(254.086 555.484)"/><path d="m0 0-3.376-1.263 8.638-23.266.042-.101 3.376 1.258L.041-.108Z" style="fill:#00a755;fill-opacity:1;fill-rule:nonzero;stroke:none" transform="translate(260.385 560.962)"/><path d="M0 0c-.097-1.068-.351-1.984-.771-2.727a5.2 5.2 0 0 0-1.69-1.826 7.353 7.353 0 0 0-2.457-1.023 7.495 7.495 0 0 0-2.658-.122 5.169 5.169 0 0 0-2.307.923c-.692.495-1.323 1.217-1.861 2.142-.547.929-.976 2.107-1.287 3.494l-.657 2.911c-.307 1.387-.413 2.63-.324 3.709.091 1.063.348 1.979.769 2.728.41.749.981 1.361 1.692 1.828.707.471 1.538.814 2.461 1.022a8.05 8.05 0 0 0 1.698.191c.319 0 .639-.021.955-.071a5.173 5.173 0 0 0 2.305-.923c.704-.496 1.325-1.218 1.866-2.142.542-.931.971-2.108 1.288-3.497l.65-2.904C-.018 2.326.092 1.081 0 0m2.489 7.783c-.397 1.773-.992 3.286-1.773 4.497-.778 1.213-1.716 2.186-2.795 2.882a8.596 8.596 0 0 1-3.603 1.325c-1.305.18-2.701.11-4.136-.216-1.432-.319-2.719-.844-3.836-1.565a8.783 8.783 0 0 1-2.69-2.742c-.671-1.092-1.107-2.373-1.299-3.805-.18-1.429-.074-3.05.32-4.813l.82-3.651c.407-1.793.999-3.31 1.777-4.523.776-1.215 1.716-2.186 2.799-2.884a8.48 8.48 0 0 1 3.582-1.32c.444-.055.902-.082 1.365-.082.887 0 1.824.107 2.783.32 1.431.327 2.728.842 3.834 1.553a8.607 8.607 0 0 1 2.701 2.727c.674 1.089 1.109 2.37 1.299 3.804.183 1.429.071 3.063-.329 4.846z" style="fill:#00a755;fill-opacity:1;fill-rule:nonzero;stroke:none" transform="translate(285.908 549.606)"/><path d="m0 0-3.365-.08.468-19.823c-.252.535-.5 1.049-.743 1.529-.329.622-.618 1.145-.885 1.547L-14.509-.391l-.032.057-3.968-.102h-.109l.585-24.819v-.106l3.361.08-.461 19.793c.248-.537.497-1.041.748-1.523a39.43 39.43 0 0 1 .876-1.589l9.985-16.371.032-.047 3.967.089h.11L.007-.106Z" style="fill:#00a755;fill-opacity:1;fill-rule:nonzero;stroke:none" transform="translate(312.12 568.986)"/><path d="m0 0-7.001 1.194 2.957 5.225c.261.462.491.873.678 1.222l.536 1.012c.164.296.333.641.527 1.04.145.303.32.657.515 1.049.055-.454.101-.829.146-1.152.06-.402.116-.787.172-1.153.054-.385.112-.764.189-1.151zm.66 14.634-3.388.574-13.23-22.9-.08-.126 3.642-.622 3.778 6.727 9.183-1.55 1.343-7.535.016-.071 3.736-.632L.672 14.56z" style="fill:#00a755;fill-opacity:1;fill-rule:nonzero;stroke:none" transform="translate(329.944 551.967)"/><path d="m0 0 .042.098-3.406 1.198-8.269-23.406-.029-.098L2.79-27.313l.097-.036 1.047 2.944-11.159 3.94z" style="fill:#00a755;fill-opacity:1;fill-rule:nonzero;stroke:none" transform="translate(348.414 561.995)"/><path d="m0 0 8.144 12.49-3.021 1.97-7.925-12.144C-3.553 1.163-4.3.23-5.011-.45c-.712-.677-1.429-1.141-2.143-1.382a4.076 4.076 0 0 0-2.185-.103c-.754.164-1.543.515-2.345 1.042-.811.526-1.452 1.109-1.901 1.724a4.027 4.027 0 0 0-.785 2.044c-.064.752.069 1.601.403 2.518.333.934.887 1.988 1.641 3.138l7.92 12.15-3.023 1.97-8.144-12.495c-1.031-1.568-1.734-3.035-2.099-4.357-.372-1.329-.456-2.562-.253-3.693.2-1.124.69-2.168 1.459-3.118.758-.931 1.769-1.81 2.996-2.618 1.228-.799 2.438-1.361 3.604-1.686a6.948 6.948 0 0 1 1.898-.263c.513 0 1.035.056 1.541.183 1.108.264 2.216.843 3.28 1.716C-2.088-2.81-1.028-1.573 0 0" style="fill:#00a755;fill-opacity:1;fill-rule:nonzero;stroke:none" transform="translate(379.898 529.212)"/><path d="m0 0-2.413 2.346-13.838-14.209c.217.544.41 1.086.578 1.6.213.657.379 1.237.49 1.719l4.741 18.634.017.058-2.923 2.84L-30.66-4.805l-.075-.07 2.406-2.353 13.82 14.191a32.2 32.2 0 0 1-.572-1.589 63.227 63.227 0 0 1-.521-1.754L-20.3-14.961l-.011-.064 2.921-2.84L-.073-.083z" style="fill:#00a755;fill-opacity:1;fill-rule:nonzero;stroke:none" transform="translate(407.566 523.77)"/><path d="m0 0-2.163 2.746-.061.082-19.521-15.347-.084-.062 2.163-2.758.066-.079L-.082-.068z" style="fill:#00a755;fill-opacity:1;fill-rule:nonzero;stroke:none" transform="translate(414.098 515.415)"/><path d="m0 0-1.87 3.135-.035.069-21.096-4.121L-9.31 15.474l.053.053-2.02 3.379-16.613-20.67-.048-.059 1.668-2.801.042-.065L-.15-.03z" style="fill:#00a755;fill-opacity:1;fill-rule:nonzero;stroke:none" transform="translate(428.544 492.926)"/><path d="m0 0-4.304 11.466 7.568 2.833 3.965-10.56 2.925 1.103-3.961 10.552 6.997 2.624 4.206-11.232 2.934 1.091L14.85 22.5l-23.351-8.757L-2.93-1.098Z" style="fill:#00a755;fill-opacity:1;fill-rule:nonzero;stroke:none" transform="translate(415.91 465.119)"/><path d="M0 0c-.527-.884-1.381-1.444-2.54-1.66l-.672-.126c-1.156-.216-2.16.005-2.989.65C-7.03-.488-7.628.778-7.974 2.63l-.842 4.547 8.255 1.538.902-4.89C.651 2.177.534.887 0 0m-22.021 4.834.019-.113 10.144 1.887 1.076-5.786-9.272-6.233-.057-.035.686-3.677.027-.163 9.932 6.86c.761-1.174 1.74-2.026 2.91-2.53 1.202-.52 2.516-.647 3.901-.395l.878.172C-.803-5 .075-4.656.826-4.15a6.158 6.158 0 0 1 1.842 1.917c.472.769.784 1.685.941 2.733.161 1.036.127 2.186-.103 3.422L1.87 12.724l-.022.106-24.517-4.559Z" style="fill:#00a755;fill-opacity:1;fill-rule:nonzero;stroke:none" transform="translate(436.358 453.182)"/><path d="M0 0c-.403 1.062-.92 1.958-1.558 2.666-.647.704-1.372 1.233-2.176 1.567a6.169 6.169 0 0 1-2.407.485l-.713-.011c-1.13-.021-2.097-.251-2.864-.696a5.705 5.705 0 0 1-1.932-1.793c-.505-.744-.917-1.638-1.241-2.653a35.651 35.651 0 0 1-.825-3.28c-.187-1.007-.407-1.859-.655-2.532-.246-.678-.524-1.243-.831-1.676-.3-.416-.654-.724-1.042-.898a3.375 3.375 0 0 0-1.39-.294l-.604-.014c-.92 0-1.736.423-2.418 1.242-.702.85-1.077 2.148-1.104 3.879a7.919 7.919 0 0 0 .177 1.716 13.2 13.2 0 0 0 .525 1.857c.233.624.508 1.234.812 1.82.304.589.629 1.118.959 1.579l.062.098-2.98 1.769-.054-.071c-.817-1.045-1.498-2.322-2.034-3.816-.538-1.494-.798-3.142-.767-4.899.022-1.266.184-2.446.488-3.535.31-1.097.766-2.041 1.372-2.807a6.397 6.397 0 0 1 2.205-1.829c.822-.427 1.806-.633 2.896-.633l.767.009c.849.015 1.644.161 2.357.44.723.276 1.372.747 1.942 1.376.563.637 1.073 1.477 1.503 2.506.427 1.024.806 2.323 1.13 3.861.186.922.39 1.741.585 2.437.204.695.445 1.29.731 1.776.284.458.614.822.997 1.073.377.245.847.376 1.401.388l.592.009c.924 0 1.724-.445 2.387-1.307.688-.895 1.046-2.122 1.067-3.646.019-1.118-.101-2.16-.354-3.091-.252-.932-.68-1.858-1.285-2.766l-.049-.104 2.762-1.621.088-.053.048.083A12.507 12.507 0 0 1 .14-7.905c.35 1.252.509 2.645.49 4.16C.603-2.325.393-1.059 0 0" style="fill:#00a755;fill-opacity:1;fill-rule:nonzero;stroke:none" transform="translate(441.776 437.713)"/><path d="m0 0-.39-3.486-.013-.1L24.265-6.35l.11-.008.391 3.477.01.104L.103-.012z" style="fill:#00a755;fill-opacity:1;fill-rule:nonzero;stroke:none" transform="translate(416.606 422.117)"/><path d="m0 0-21.148 4.867-.098.024-.787-3.406-.024-.106 21.25-4.894-1.667-7.24-.017-.106 3.041-.702L4.721 6.551l.021.106-3.045.698z" style="fill:#00a755;fill-opacity:1;fill-rule:nonzero;stroke:none" transform="translate(435.924 404.683)"/><path d="m0 0-.1.033-1.347-3.229-.035-.098 9.247-3.847 10.384-13.447.112-.141 1.524 3.651.023.054-8.164 10.165 13.03 1.529 1.543 3.703L9.156-3.816z" style="fill:#00a755;fill-opacity:1;fill-rule:nonzero;stroke:none" transform="translate(409.393 391.768)"/><path d="M0 0a3.029 3.029 0 1 0-6.056 0 3.024 3.024 0 0 0 3.03 3.021A3.021 3.021 0 0 0 0 0" style="fill:#00a755;fill-opacity:1;fill-rule:nonzero;stroke:none" transform="translate(202.893 364.608)"/><path d="M0 0a3.03 3.03 0 0 0-6.06 0 3.022 3.022 0 0 0 3.028 3.021A3.025 3.025 0 0 0 0 0" style="fill:#00a755;fill-opacity:1;fill-rule:nonzero;stroke:none" transform="translate(416.66 364.608)"/><path d="M0 0c-81.949 0-148.62 66.669-148.62 148.623 0 81.953 66.671 148.623 148.62 148.623 81.951 0 148.62-66.67 148.62-148.623C148.62 66.669 81.951 0 0 0m0 302.405c-84.792 0-153.779-68.987-153.779-153.782C-153.779 63.831-84.792-5.153 0-5.153s153.777 68.984 153.777 153.776c0 84.795-68.985 153.782-153.777 153.782" style="fill:#033885;fill-opacity:1;fill-rule:nonzero;stroke:none" transform="translate(305.938 281.697)"/><path d="m0 0 .018-.009 6.073 6.485v.008c1.139 1.355.92 3.143-.374 4.38l-4.105 3.833 3.866 4.127 7.606-7.098 2.119 2.258-1.078 1.006 6.184 6.619c1.454 1.619 1.354 3.008-.205 4.501-.832.781-1.675 1.575-2.527 2.341l-10.676 9.99-2.142-2.295 13.023-12.187-6.178-6.61-14.107 13.192-2.118-2.263 7.484-6.999L-1 17.145l-6.577 6.151-2.218-2.358L3.345 8.639l-5.871-6.276Z" style="fill:#00a755;fill-opacity:1;fill-rule:nonzero;stroke:none" transform="translate(214.931 322.593)"/><path d="m0 0-11.241 6.582 2.126 3.612L2.127 3.621zm-14.483 8.594c-.672-1.299-.273-2.447.958-3.475.526-.438.715-.598 1.219-.922L1.833-4.087 8.008 6.458 4.863 8.299 3.564 6.09l-11.235 6.582 1.346 2.291-1.624.949a5.267 5.267 0 0 1-.53.315l-1.138.673Z" style="fill:#00a755;fill-opacity:1;fill-rule:nonzero;stroke:none" transform="translate(244.114 307.036)"/><path d="m0 0-.936-1.587 3.122-1.84 9.606 16.422-3.113 1.821-7.04-12.017-12.931 7.572 1.695 2.879 9.073-5.316 3.378 5.77c.882 1.671.583 3.043-.911 4.073l-8.893 5.208c-.064.042-.133.077-.197.113l-.716.419-1.663-2.836 8.984-5.268-1.65-2.81-8.978 5.254-1.515-2.571-.157-.265-1.686-2.89c-.855-1.725-.489-3.148 1.058-4.242" style="fill:#00a755;fill-opacity:1;fill-rule:nonzero;stroke:none" transform="translate(250.986 318.702)"/><path d="m0 0 2.654 9.252s.882 3.067-2.861 4.246c-3.742 1.18-16.746 4.801-16.746 4.801l-.894-3.116 16.868-4.845-2.669-9.297-6.886 1.975 1.571 5.474-3.559 1.01-1.568-5.465-7.984 2.289-.885-3.099L.754-3.574l.888 3.102z" style="fill:#00a755;fill-opacity:1;fill-rule:nonzero;stroke:none" transform="translate(285.228 311.2)"/><path d="M0 0c-5.958 1.711-11.712-.056-12.828-3.962-1.118-3.9 2.811-8.453 8.775-10.172 5.97-1.711 11.708.075 12.835 3.964C9.898-6.267 5.972-1.711 0 0m-3.237-11.302c-3.967 1.132-6.635 3.958-5.967 6.3.672 2.347 4.432 3.317 8.396 2.179 3.973-1.13 6.639-3.962 5.967-6.307-.675-2.338-4.432-3.311-8.396-2.172" style="fill:#00a755;fill-opacity:1;fill-rule:nonzero;stroke:none" transform="translate(273.348 308.33)"/><path d="M0 0h-24.625v-3.273h10.351v-11.293h3.743v11.293H0Z" style="fill:#00a755;fill-opacity:1;fill-rule:nonzero;stroke:none" transform="translate(318.67 304.938)"/><path d="M0 0h9.075v3.223h-21.594V0h8.812c.036-1.396-.485-6.684-9.531-8.415l1.103-3.096s6.861 1.461 10.18 5.341c0 0 3.575-4.201 10.975-5.522l.917 3.215S-.293-6.697 0 0" style="fill:#00a755;fill-opacity:1;fill-rule:nonzero;stroke:none" transform="translate(308.036 319.66)"/><path d="m0 0 3.386-12.208-2.278-.641L-2.289-.638l-3.464-.968L.353-23.548l-8.861-2.458-5.285 19.001 6.462 1.797-.838 2.952-9.839-2.743 5.994-21.53s.88-3.424 3.728-2.564l9.449 2.619 1.559-5.606 3.465.959-4.179 15.023 2.287.648 4.184-15.03 3.461.97L3.466.958z" style="fill:#00a755;fill-opacity:1;fill-rule:nonzero;stroke:none" transform="translate(341.958 328.541)"/><path d="m0 0-2.486-1.407-4.007 7.045-3.185-1.804L.519-14.13l3.191 1.8-4.504 7.929 2.491 1.422z" style="fill:#00a755;fill-opacity:1;fill-rule:nonzero;stroke:none" transform="translate(376.016 338.022)"/><path d="m0 0-1.432 2.518L-4.614.705l1.44-2.526-5.781-3.272 1.573-2.769L7.34.483 5.762 3.271Z" style="fill:#00a755;fill-opacity:1;fill-rule:nonzero;stroke:none" transform="translate(360.028 335.797)"/><path d="M0 0c-3.801-2.156-5.359-6.558-3.498-9.839 1.869-3.278 6.449-4.2 10.243-2.046 3.794 2.143 5.353 6.549 3.49 9.828C8.37 1.23 3.787 2.147 0 0m5.38-9.47C3.281-10.661.691-10.043-.413-8.095c-1.11 1.954-.315 4.5 1.78 5.682 2.09 1.194 4.678.576 5.79-1.385 1.107-1.948.306-4.485-1.777-5.672" style="fill:#00a755;fill-opacity:1;fill-rule:nonzero;stroke:none" transform="translate(360.379 331.438)"/><path d="m0 0 1.538-2.717 15.256 8.652 4.1-7.211L24.2.594l-4.117 7.242s-1.39 2.874-4.415 1.072z" style="fill:#00a755;fill-opacity:1;fill-rule:nonzero;stroke:none" transform="translate(361.734 314.243)"/><path d="m0 0 2.347-2.392L14.596 9.659l12.456-12.66 2.491 2.455-12.798 13.023s-1.897 2.235-4.178-.107z" style="fill:#00a755;fill-opacity:1;fill-rule:nonzero;stroke:none" transform="translate(377.252 346.417)"/><path d="m0 0-9.875 10.037-2.487-2.438 9.888-10.043-2.676-2.633-9.88 10.039-2.489-2.436L-7.626-7.52l-3.017-2.966 2.066-2.099L7.686 3.41 5.61 5.516Z" style="fill:#00a755;fill-opacity:1;fill-rule:nonzero;stroke:none" transform="translate(404.528 338.348)"/></g></g></svg>