<svg xmlns="http://www.w3.org/2000/svg" width="234.05673mm" height="234.04039mm" viewBox="0 0 234.05673 234.04039"><path d="m562.144 711.23 5.853-.343 5.852-.344 5.853-.69 5.508-1.032 5.852-1.376 5.51-1.721 5.163-1.721 5.508-2.065 5.164-2.41 4.82-2.41 4.82-2.753 4.82-3.098 4.475-3.442 4.475-3.443 4.132-3.442 4.133-3.786 3.786-4.13 3.441-4.131 3.443-4.475 3.442-4.474 3.098-4.82 2.756-4.818 2.41-4.82 2.408-5.163 2.067-5.507 1.72-5.163 1.722-5.507 1.376-5.852 1.034-5.507.688-5.852.345-5.851.343-5.852-.343-6.196-.345-5.851-.688-5.852-1.034-5.507-1.376-5.508-1.722-5.507-1.72-5.508-2.067-5.163-2.408-5.162-2.41-5.163-2.756-4.82-3.098-4.475-3.442-4.82-3.443-4.13-3.442-4.474-3.786-3.785-4.133-3.787-4.132-3.788-4.475-3.441-4.475-3.442-4.82-2.754-4.819-2.753-4.82-2.754-5.164-2.41-5.508-2.065-5.164-1.72-5.509-1.722-5.852-1.032-5.508-1.033-5.853-.69-5.852-.687h-12.049l-5.852.688-5.51.689-5.852 1.033-5.507 1.032-5.508 1.722-5.51 1.72-5.163 2.065-5.164 2.41-5.163 2.754-4.821 2.753-4.475 2.754-4.82 3.442-4.13 3.44-4.475 3.789-3.788 3.787-3.787 3.785-3.786 4.475-3.444 4.13-3.097 4.819-3.098 4.475-2.755 4.82-2.754 5.163-2.41 5.162-2.066 5.163-1.723 5.508-1.376 5.507-1.377 5.508-1.034 5.507-.688 5.852-.689 5.85v12.049l.69 5.85.688 5.853 1.033 5.507 1.377 5.852 1.376 5.507 1.723 5.163 2.065 5.507 2.41 5.164 2.754 4.819 2.755 4.819 3.098 4.819 3.097 4.474 3.444 4.475 3.786 4.13 3.787 4.13 3.788 3.787 4.475 3.442 4.13 3.443 4.82 3.442 4.475 3.098 4.822 2.753 5.163 2.41 5.164 2.41 5.164 2.065 5.509 1.72 5.509 1.722 5.507 1.376 5.852 1.033 5.51.689 5.852.344z" style="fill:#231f20;fill-opacity:1;fill-rule:nonzero;stroke:none" transform="matrix(1.00546 0 0 -1.00546 -448.186 715.513)"/><path d="m562.144 711.23 5.853-.343 5.852-.344 5.853-.69 5.508-1.032 5.852-1.376 5.51-1.721 5.163-1.721 5.508-2.065 5.164-2.41 4.82-2.41 4.82-2.753 4.82-3.098 4.475-3.442 4.475-3.443 4.132-3.442 4.133-3.786 3.786-4.13 3.441-4.131 3.443-4.475 3.442-4.474 3.098-4.82 2.756-4.818 2.41-4.82 2.408-5.163 2.067-5.507 1.72-5.163 1.722-5.507 1.376-5.852 1.034-5.507.688-5.852.345-5.851.343-5.852-.343-6.196-.345-5.851-.688-5.852-1.034-5.507-1.376-5.508-1.722-5.507-1.72-5.508-2.067-5.163-2.408-5.162-2.41-5.163-2.756-4.82-3.098-4.475-3.442-4.82-3.443-4.13-3.442-4.474-3.786-3.785-4.133-3.787-4.132-3.788-4.475-3.441-4.475-3.442-4.82-2.754-4.819-2.753-4.82-2.754-5.164-2.41-5.508-2.065-5.164-1.72-5.509-1.722-5.852-1.032-5.508-1.033-5.853-.69-5.852-.687h-12.049l-5.852.688-5.51.689-5.852 1.033-5.507 1.032-5.508 1.722-5.51 1.72-5.163 2.065-5.164 2.41-5.163 2.754-4.821 2.753-4.475 2.754-4.82 3.442-4.13 3.44-4.475 3.789-3.788 3.787-3.787 3.785-3.786 4.475-3.444 4.13-3.097 4.819-3.098 4.475-2.755 4.82-2.754 5.163-2.41 5.162-2.066 5.163-1.723 5.508-1.376 5.507-1.377 5.508-1.034 5.507-.688 5.852-.689 5.85v12.049l.69 5.85.688 5.853 1.033 5.507 1.377 5.852 1.376 5.507 1.723 5.163 2.065 5.507 2.41 5.164 2.754 4.819 2.755 4.819 3.098 4.819 3.097 4.474 3.444 4.475 3.786 4.13 3.787 4.13 3.788 3.787 4.475 3.442 4.13 3.443 4.82 3.442 4.475 3.098 4.822 2.753 5.163 2.41 5.164 2.41 5.164 2.065 5.509 1.72 5.509 1.722 5.507 1.376 5.852 1.033 5.51.689 5.852.344 6.196.344" style="fill:none;stroke:#231f20;stroke-width:.75;stroke-linecap:square;stroke-linejoin:miter;stroke-miterlimit:10;stroke-dasharray:none;stroke-opacity:1" transform="matrix(1.00546 0 0 -1.00546 -448.186 715.513)"/><path d="m562.144 708.133 5.853-.344 5.51-.344 5.85-.688 5.51-1.033 5.508-1.377 5.164-1.377 5.164-1.721 5.165-2.066 5.162-2.41 4.821-2.408 4.818-2.754 4.475-2.753 4.477-3.442 4.13-3.1 4.132-3.785 3.787-3.786 3.788-3.786 3.785-4.131 3.1-4.131 3.442-4.474 2.756-4.475 2.751-4.82 2.41-4.817 2.41-5.165 2.066-5.162 1.721-5.163 1.377-5.508 1.377-5.163 1.033-5.507.69-5.852.344-5.507.343-5.852-.343-5.851-.345-5.852-.689-5.507-1.033-5.508-1.377-5.507-1.377-5.507-1.72-5.163-2.067-5.164-2.41-4.82-2.41-4.818-2.752-4.818-2.756-4.476-3.442-4.474-3.099-4.474-3.785-4.132-3.788-3.786-3.787-3.786-4.132-3.442-4.13-3.442-4.477-3.098-4.475-3.098-4.818-2.753-4.82-2.41-5.163-2.066-5.166-2.065-5.164-2.064-5.164-1.377-5.508-1.377-5.509-1.034-5.85-.688-5.51-.344h-11.706l-5.852.344-5.506.688-5.51 1.034-5.507 1.377-5.508 1.377-5.164 2.064-5.164 2.065-4.82 2.066-4.821 2.41-4.818 2.753-4.476 3.098-4.476 3.098-4.476 3.442-4.131 3.442-3.787 3.786-3.786 3.786-3.444 4.132-3.442 4.474-3.1 4.474-3.096 4.476-2.755 4.818-2.41 4.819-2.064 4.819-2.067 5.164-1.72 5.163-1.722 5.507-1.378 5.507-.688 5.508-1.033 5.507-.343 5.852v11.703l.343 5.507 1.033 5.852.688 5.507 1.378 5.163 1.722 5.508 1.72 5.163 2.067 5.162 2.065 5.165 2.409 4.818 2.755 4.819 3.097 4.475 3.099 4.474 3.442 4.13 3.444 4.132 3.786 3.786 3.787 3.786 4.13 3.786 4.477 3.099 4.476 3.442 4.476 2.753 4.818 2.754 4.82 2.409 4.82 2.409 5.165 2.066 5.164 1.72 5.508 1.378 5.507 1.377 5.51 1.033 5.507.688 5.852.344z" style="fill:#fff;fill-opacity:1;fill-rule:nonzero;stroke:none" transform="matrix(1.00546 0 0 -1.00546 -448.186 715.513)"/><path d="m562.144 708.133 5.853-.344 5.51-.344 5.85-.688 5.51-1.033 5.508-1.377 5.164-1.377 5.164-1.721 5.165-2.066 5.162-2.41 4.821-2.408 4.818-2.754 4.475-2.753 4.477-3.442 4.13-3.1 4.132-3.785 3.787-3.786 3.788-3.786 3.785-4.131 3.1-4.131 3.442-4.474 2.756-4.475 2.751-4.82 2.41-4.817 2.41-5.165 2.066-5.162 1.721-5.163 1.377-5.508 1.377-5.163 1.033-5.507.69-5.852.344-5.507.343-5.852-.343-5.851-.345-5.852-.689-5.507-1.033-5.508-1.377-5.507-1.377-5.507-1.72-5.163-2.067-5.164-2.41-4.82-2.41-4.818-2.752-4.818-2.756-4.476-3.442-4.474-3.099-4.474-3.785-4.132-3.788-3.786-3.787-3.786-4.132-3.442-4.13-3.442-4.477-3.098-4.475-3.098-4.818-2.753-4.82-2.41-5.163-2.066-5.166-2.065-5.164-2.064-5.164-1.377-5.508-1.377-5.509-1.034-5.85-.688-5.51-.344h-11.706l-5.852.344-5.506.688-5.51 1.034-5.507 1.377-5.508 1.377-5.164 2.064-5.164 2.065-4.82 2.066-4.821 2.41-4.818 2.753-4.476 3.098-4.476 3.098-4.476 3.442-4.131 3.442-3.787 3.786-3.786 3.786-3.444 4.132-3.442 4.474-3.1 4.474-3.096 4.476-2.755 4.818-2.41 4.819-2.064 4.819-2.067 5.164-1.72 5.163-1.722 5.507-1.378 5.507-.688 5.508-1.033 5.507-.343 5.852v11.703l.343 5.507 1.033 5.852.688 5.507 1.378 5.163 1.722 5.508 1.72 5.163 2.067 5.162 2.065 5.165 2.409 4.818 2.755 4.819 3.097 4.475 3.099 4.474 3.442 4.13 3.444 4.132 3.786 3.786 3.787 3.786 4.13 3.786 4.477 3.099 4.476 3.442 4.476 2.753 4.818 2.754 4.82 2.409 4.82 2.409 5.165 2.066 5.164 1.72 5.508 1.378 5.507 1.377 5.51 1.033 5.507.688 5.852.344 5.853.344" style="fill:none;stroke:#231f20;stroke-width:.75;stroke-linecap:square;stroke-linejoin:miter;stroke-miterlimit:10;stroke-dasharray:none;stroke-opacity:1" transform="matrix(1.00546 0 0 -1.00546 -448.186 715.513)"/><path d="M562.144 676.466h4.131l4.132-.344 4.13-.69 3.787-.687 4.133-.688 3.786-1.377 3.786-1.033 3.787-1.722 3.444-1.376 3.442-2.065 3.443-1.721 3.442-2.066 3.098-2.41 3.1-2.408 3.098-2.41 2.755-2.754 2.753-3.098 2.41-2.753 2.41-3.098 2.41-3.098 2.065-3.442 1.722-3.442 2.065-3.442 1.377-3.443 1.721-3.786 1.033-3.786 1.377-3.786.69-4.131.687-3.786.69-4.131.344-4.13v-8.261l-.345-4.131-.689-4.13-.688-4.131-.689-3.786-1.377-3.786-1.033-3.787-1.72-3.786-1.378-3.787-2.065-3.441-1.722-3.443-2.065-3.098-2.41-3.442-2.41-3.097-2.41-2.755-2.753-2.753-2.755-2.754-3.099-2.754-3.099-2.41-3.098-2.064-3.442-2.066-3.443-2.065-3.442-1.72-3.444-1.721-3.787-1.377-3.786-1.377-3.786-1.034-4.133-1.032-3.787-.688-4.13-.345-4.132-.343-4.13-.346-4.13.346-4.131.343-4.133.345-4.13.688-3.788 1.032-3.787 1.034-3.787 1.377-3.786 1.377-3.787 1.72-3.442 1.72-3.443 2.066-3.098 2.066-3.443 2.064-2.755 2.41-3.097 2.754-2.756 2.754-2.754 2.753-2.753 2.755-2.41 3.097-2.066 3.442-2.066 3.098-2.064 3.443-1.723 3.44-1.72 3.788-1.377 3.786-1.378 3.787-1.032 3.786-1.034 3.786-.69 4.13-.342 4.13-.345 4.132-.343 4.13.343 4.13.345 4.13.343 4.132.689 3.786 1.034 4.13 1.032 3.787 1.378 3.786 1.377 3.786 1.72 3.443 1.723 3.442 2.064 3.442 2.066 3.442 2.066 3.098 2.41 3.098 2.753 2.753 2.754 3.098 2.756 2.754 3.097 2.41 2.755 2.409 3.443 2.409 3.098 2.066 3.443 1.72 3.442 2.066 3.788 1.376 3.786 1.722 3.786 1.033 3.786 1.377 3.788.688 4.13.688 4.133.689 4.131.344z" style="fill:#231f20;fill-opacity:1;fill-rule:nonzero;stroke:none" transform="matrix(1.00546 0 0 -1.00546 -448.186 715.513)"/><path d="M562.144 676.466h4.131l4.132-.344 4.13-.69 3.787-.687 4.133-.688 3.786-1.377 3.786-1.033 3.787-1.722 3.444-1.376 3.442-2.065 3.443-1.721 3.442-2.066 3.098-2.41 3.1-2.408 3.098-2.41 2.755-2.754 2.753-3.098 2.41-2.753 2.41-3.098 2.41-3.098 2.065-3.442 1.722-3.442 2.065-3.442 1.377-3.443 1.721-3.786 1.033-3.786 1.377-3.786.69-4.131.687-3.786.69-4.131.344-4.13v-8.261l-.345-4.131-.689-4.13-.688-4.131-.689-3.786-1.377-3.786-1.033-3.787-1.72-3.786-1.378-3.787-2.065-3.441-1.722-3.443-2.065-3.098-2.41-3.442-2.41-3.097-2.41-2.755-2.753-2.753-2.755-2.754-3.099-2.754-3.099-2.41-3.098-2.064-3.442-2.066-3.443-2.065-3.442-1.72-3.444-1.721-3.787-1.377-3.786-1.377-3.786-1.034-4.133-1.032-3.787-.688-4.13-.345-4.132-.343-4.13-.346-4.13.346-4.131.343-4.133.345-4.13.688-3.788 1.032-3.787 1.034-3.787 1.377-3.786 1.377-3.787 1.72-3.442 1.72-3.443 2.066-3.098 2.066-3.443 2.064-2.755 2.41-3.097 2.754-2.756 2.754-2.754 2.753-2.753 2.755-2.41 3.097-2.066 3.442-2.066 3.098-2.064 3.443-1.723 3.44-1.72 3.788-1.377 3.786-1.378 3.787-1.032 3.786-1.034 3.786-.69 4.13-.342 4.13-.345 4.132-.343 4.13.343 4.13.345 4.13.343 4.132.689 3.786 1.034 4.13 1.032 3.787 1.378 3.786 1.377 3.786 1.72 3.443 1.723 3.442 2.064 3.442 2.066 3.442 2.066 3.098 2.41 3.098 2.753 2.753 2.754 3.098 2.756 2.754 3.097 2.41 2.755 2.409 3.443 2.409 3.098 2.066 3.443 1.72 3.442 2.066 3.788 1.376 3.786 1.722 3.786 1.033 3.786 1.377 3.788.688 4.13.688 4.133.689 4.131.344h4.13" style="fill:none;stroke:#231f20;stroke-width:.75;stroke-linecap:square;stroke-linejoin:miter;stroke-miterlimit:10;stroke-dasharray:none;stroke-opacity:1" transform="matrix(1.00546 0 0 -1.00546 -448.186 715.513)"/><path d="M562.144 673.368h3.788l4.13-.343 3.787-.345 3.787-.69 3.788-1.032 3.787-1.033 3.789-1.376 3.44-1.376 3.444-1.378 3.442-1.721 3.444-2.065 3.098-2.065 3.098-2.066 2.754-2.41 3.098-2.41 2.41-2.753 2.753-2.41 2.41-3.096 2.41-2.755 2.065-3.098 2.066-3.098 2.067-3.441 1.721-3.442 1.377-3.443 1.376-3.442 1.377-3.786 1.033-3.786 1.033-3.787.688-3.786.344-3.785.345-4.132V591.1l-.345-4.13-.344-3.787-.688-3.786-1.033-3.786-1.033-3.786-1.377-3.443-1.376-3.786-1.377-3.442-1.72-3.441-2.067-3.1-2.066-3.097-2.065-3.098-2.41-3.097-2.412-2.753-2.753-2.755-2.41-2.753-3.098-2.41-2.754-2.41-3.098-2.064-3.097-2.066-3.444-1.722-3.442-1.72-3.444-1.722-3.44-1.376-3.79-1.377-3.786-1.033-3.787-.688-3.787-.69-3.787-.687-4.13-.344H558.014l-3.787.344-4.131.688-3.787.689-3.79.688-3.786 1.033-3.443 1.377-3.787 1.376-3.443 1.722-3.44 1.72-3.1 1.722-3.098 2.066-3.097 2.064-3.1 2.41-2.754 2.41-2.754 2.753-2.755 2.755-2.409 2.753-2.065 3.097-2.41 3.098-2.066 3.098-1.722 3.099-1.722 3.44-1.72 3.443-1.377 3.786-1.377 3.443-1.034 3.786-.688 3.786-.688 3.786-.688 3.787v4.13l-.346 4.132.346 3.785v4.132l.688 3.785.688 3.786.688 3.787 1.034 3.786 1.377 3.786 1.377 3.442 1.72 3.443 1.722 3.442 1.722 3.44 2.066 3.099 2.41 3.098 2.065 2.755 2.41 3.097 2.754 2.409 2.754 2.754 2.754 2.41 3.1 2.409 3.097 2.066 3.098 2.065 3.1 2.065 3.44 1.72 3.443 1.379 3.787 1.376 3.443 1.376 3.786 1.033 3.79 1.033 3.787.689 4.13.345 3.787.343z" style="fill:#fff;fill-opacity:1;fill-rule:nonzero;stroke:none" transform="matrix(1.00546 0 0 -1.00546 -448.186 715.513)"/><path d="M562.144 673.368h3.788l4.13-.343 3.787-.345 3.787-.69 3.788-1.032 3.787-1.033 3.789-1.376 3.44-1.376 3.444-1.378 3.442-1.721 3.444-2.065 3.098-2.065 3.098-2.066 2.754-2.41 3.098-2.41 2.41-2.753 2.753-2.41 2.41-3.096 2.41-2.755 2.065-3.098 2.066-3.098 2.067-3.441 1.721-3.442 1.377-3.443 1.376-3.442 1.377-3.786 1.033-3.786 1.033-3.787.688-3.786.344-3.785.345-4.132V591.1l-.345-4.13-.344-3.787-.688-3.786-1.033-3.786-1.033-3.786-1.377-3.443-1.376-3.786-1.377-3.442-1.72-3.441-2.067-3.1-2.066-3.097-2.065-3.098-2.41-3.097-2.412-2.753-2.753-2.755-2.41-2.753-3.098-2.41-2.754-2.41-3.098-2.064-3.097-2.066-3.444-1.722-3.442-1.72-3.444-1.722-3.44-1.376-3.79-1.377-3.786-1.033-3.787-.688-3.787-.69-3.787-.687-4.13-.344H558.014l-3.787.344-4.131.688-3.787.689-3.79.688-3.786 1.033-3.443 1.377-3.787 1.376-3.443 1.722-3.44 1.72-3.1 1.722-3.098 2.066-3.097 2.064-3.1 2.41-2.754 2.41-2.754 2.753-2.755 2.755-2.409 2.753-2.065 3.097-2.41 3.098-2.066 3.098-1.722 3.099-1.722 3.44-1.72 3.443-1.377 3.786-1.377 3.443-1.034 3.786-.688 3.786-.688 3.786-.688 3.787v4.13l-.346 4.132.346 3.785v4.132l.688 3.785.688 3.786.688 3.787 1.034 3.786 1.377 3.786 1.377 3.442 1.72 3.443 1.722 3.442 1.722 3.44 2.066 3.099 2.41 3.098 2.065 2.755 2.41 3.097 2.754 2.409 2.754 2.754 2.754 2.41 3.1 2.409 3.097 2.066 3.098 2.065 3.1 2.065 3.44 1.72 3.443 1.379 3.787 1.376 3.443 1.376 3.786 1.033 3.79 1.033 3.787.689 4.13.345 3.787.343h4.13" style="fill:none;stroke:#231f20;stroke-width:.75;stroke-linecap:square;stroke-linejoin:miter;stroke-miterlimit:10;stroke-dasharray:none;stroke-opacity:1" transform="matrix(1.00546 0 0 -1.00546 -448.186 715.513)"/><path d="m561.8 545.666-7.572 5.85-7.92 5.509-3.786 2.753-3.786 2.754-3.788 3.098-3.442 3.098-3.443 3.786-2.754 3.786-3.098 4.475-2.41 4.819-1.721 5.508-1.721 6.195-1.034 6.885-.688 7.572v41.305l4.475-1.376 4.132-1.377 3.786-.69 3.788-.343 3.442-.344 3.443.344 3.098.344 2.754.344 5.508 1.722 4.476 2.065 4.13 2.065 4.132 1.72 3.787-1.72 4.132-2.065 4.818-2.065 5.165-1.722 3.099-.344 2.754-.344 3.443-.344 3.44.344 3.789.344 3.787.689 4.474 1.377 4.132 1.376v-41.305l-.344-7.572-1.378-6.885-1.377-6.195-2.064-5.508-2.41-4.82-2.755-4.474-3.098-3.786-3.443-3.786-3.443-3.098-3.787-3.098-3.786-2.754-3.788-2.753-7.917-5.508z" style="fill:#231f20;fill-opacity:1;fill-rule:nonzero;stroke:none" transform="matrix(1.00546 0 0 -1.00546 -448.186 715.513)"/><path d="m561.8 545.666-7.572 5.85-7.92 5.509-3.786 2.753-3.786 2.754-3.788 3.098-3.442 3.098-3.443 3.786-2.754 3.786-3.098 4.475-2.41 4.819-1.721 5.508-1.721 6.195-1.034 6.885-.688 7.572v41.305l4.475-1.376 4.132-1.377 3.786-.69 3.788-.343 3.442-.344 3.443.344 3.098.344 2.754.344 5.508 1.722 4.476 2.065 4.13 2.065 4.132 1.72 3.787-1.72 4.132-2.065 4.818-2.065 5.165-1.722 3.099-.344 2.754-.344 3.443-.344 3.44.344 3.789.344 3.787.689 4.474 1.377 4.132 1.376v-41.305l-.344-7.572-1.378-6.885-1.377-6.195-2.064-5.508-2.41-4.82-2.755-4.474-3.098-3.786-3.443-3.786-3.443-3.098-3.787-3.098-3.786-2.754-3.788-2.753-7.917-5.508-7.23-5.851" style="fill:none;stroke:#231f20;stroke-width:.75;stroke-linecap:square;stroke-linejoin:miter;stroke-miterlimit:10;stroke-dasharray:none;stroke-opacity:1" transform="matrix(1.00546 0 0 -1.00546 -448.186 715.513)"/><path d="m561.8 551.517 6.886 5.508 7.23 5.163 3.441 2.409 3.788 2.753 3.099 3.099 3.443 3.098 2.753 3.442 2.755 3.786 2.409 4.13 2.067 4.475 1.72 5.163 1.379 5.852.688 6.196.343 6.884v33.733l-3.786-1.033-3.443-.688-3.443-.688-3.1-.345h-5.85l-2.755.345-2.41.343-4.818 1.033-4.476 1.72-4.132 2.066-3.787 2.065-4.131-2.065-4.131-2.065-4.132-1.721-4.82-1.033-2.753-.343-2.754-.345h-5.852l-3.1.345-3.441.688-3.443.688-3.788 1.033v-33.733l.345-6.884.688-6.196 1.377-5.852 1.722-5.163 2.065-4.474 2.41-4.131 2.755-3.786 3.098-3.442 3.098-3.098 3.443-3.1 3.443-2.752 3.443-2.41 7.229-5.162z" style="fill:#fff;fill-opacity:1;fill-rule:nonzero;stroke:none" transform="matrix(1.00546 0 0 -1.00546 -448.186 715.513)"/><path d="m561.8 551.517 6.886 5.508 7.23 5.163 3.441 2.409 3.788 2.753 3.099 3.099 3.443 3.098 2.753 3.442 2.755 3.786 2.409 4.13 2.067 4.475 1.72 5.163 1.379 5.852.688 6.196.343 6.884v33.733l-3.786-1.033-3.443-.688-3.443-.688-3.1-.345h-5.85l-2.755.345-2.41.343-4.818 1.033-4.476 1.72-4.132 2.066-3.787 2.065-4.131-2.065-4.131-2.065-4.132-1.721-4.82-1.033-2.753-.343-2.754-.345h-5.852l-3.1.345-3.441.688-3.443.688-3.788 1.033v-33.733l.345-6.884.688-6.196 1.377-5.852 1.722-5.163 2.065-4.474 2.41-4.131 2.755-3.786 3.098-3.442 3.098-3.098 3.443-3.1 3.443-2.752 3.443-2.41 7.229-5.162 7.229-5.508" style="fill:none;stroke:#231f20;stroke-width:.75;stroke-linecap:square;stroke-linejoin:miter;stroke-miterlimit:10;stroke-dasharray:none;stroke-opacity:1" transform="matrix(1.00546 0 0 -1.00546 -448.186 715.513)"/><path d="m561.8 555.303 1.722 1.723 2.066 1.377 1.722 1.375 2.065 1.377 1.722 1.377 2.064 1.033 1.722 1.377 1.377 1.377v34.42h23.066v1.377l.345 1.034v1.377l.344 1.376v5.163l.344 12.39h-24.1v18.589l-1.721.689-2.064.343-1.722.689-1.721 1.033-1.721.688-2.066.688-1.722 1.033-1.721 1.032-2.065-1.032-1.722-1.033-1.721-.688-2.065-.688-1.722-1.033-1.721-.69-1.722-.342-2.065-.69v-18.587h-23.754v-15.144l.344-1.034v-2.752l.344-1.377v-1.034l.345-1.376h22.72v-34.421l1.722-1.377 1.722-1.377 1.72-1.033 2.067-1.377 1.72-1.377 2.066-1.375 1.722-1.377z" style="fill:#231f20;fill-opacity:1;fill-rule:nonzero;stroke:none" transform="matrix(1.00546 0 0 -1.00546 -448.186 715.513)"/><path d="m561.8 555.303 1.722 1.723 2.066 1.377 1.722 1.375 2.065 1.377 1.722 1.377 2.064 1.033 1.722 1.377 1.377 1.377v34.42h23.066v1.377l.345 1.034v1.377l.344 1.376v5.163l.344 12.39h-24.1v18.589l-1.721.689-2.064.343-1.722.689-1.721 1.033-1.721.688-2.066.688-1.722 1.033-1.721 1.032-2.065-1.032-1.722-1.033-1.721-.688-2.065-.688-1.722-1.033-1.721-.69-1.722-.342-2.065-.69v-18.587h-23.754v-15.144l.344-1.034v-2.752l.344-1.377v-1.034l.345-1.376h22.72v-34.421l1.722-1.377 1.722-1.377 1.72-1.033 2.067-1.377 1.72-1.377 2.066-1.375 1.722-1.377 2.065-1.723" style="fill:none;stroke:#231f20;stroke-width:.75;stroke-linecap:square;stroke-linejoin:miter;stroke-miterlimit:10;stroke-dasharray:none;stroke-opacity:1" transform="matrix(1.00546 0 0 -1.00546 -448.186 715.513)"/><path d="M524.965 597.297h18.246V574.58l-.69-.345h-4.475l-1.032.345-1.377 1.72-1.721 2.41-2.066 2.409-1.721 3.098-1.722 3.099-1.377 3.097-1.377 3.442z" style="fill:#231f20;fill-opacity:1;fill-rule:nonzero;stroke:none" transform="matrix(1.00546 0 0 -1.00546 -448.186 715.513)"/><path d="M524.965 597.297h18.246V574.58l-.69-.345h-4.475l-1.032.345-1.377 1.72-1.721 2.41-2.066 2.409-1.721 3.098-1.722 3.099-1.377 3.097-1.377 3.442-.688 3.442" style="fill:none;stroke:#231f20;stroke-width:.75;stroke-linecap:square;stroke-linejoin:miter;stroke-miterlimit:10;stroke-dasharray:none;stroke-opacity:1" transform="matrix(1.00546 0 0 -1.00546 -448.186 715.513)"/><path d="M598.293 597.297h-18.246V574.58l.688-.345H585.556l.687.345 1.722 1.72 1.721 2.41 1.72 2.409 2.067 3.098 1.377 3.099 1.721 3.097 1.032 3.442z" style="fill:#231f20;fill-opacity:1;fill-rule:nonzero;stroke:none" transform="matrix(1.00546 0 0 -1.00546 -448.186 715.513)"/><path d="M598.293 597.297h-18.246V574.58l.688-.345H585.556l.687.345 1.722 1.72 1.721 2.41 1.72 2.409 2.067 3.098 1.377 3.099 1.721 3.097 1.032 3.442.69 3.442" style="fill:none;stroke:#231f20;stroke-width:.75;stroke-linecap:square;stroke-linejoin:miter;stroke-miterlimit:10;stroke-dasharray:none;stroke-opacity:1" transform="matrix(1.00546 0 0 -1.00546 -448.186 715.513)"/><path d="m522.899 643.078 2.41-.688 2.409-.69 2.41-.344h11.016l2.754.345v-14.457h-21z" style="fill:#231f20;fill-opacity:1;fill-rule:nonzero;stroke:none" transform="matrix(1.00546 0 0 -1.00546 -448.186 715.513)"/><path d="m522.899 643.078 2.41-.688 2.409-.69 2.41-.344h11.016l2.754.345v-14.457h-21v15.834" style="fill:none;stroke:#231f20;stroke-width:.75;stroke-linecap:square;stroke-linejoin:miter;stroke-miterlimit:10;stroke-dasharray:none;stroke-opacity:1" transform="matrix(1.00546 0 0 -1.00546 -448.186 715.513)"/><path d="m600.359 643.078-2.066-.688-2.41-.69-2.755-.344h-11.016l-2.41.345v-14.457h20.656z" style="fill:#231f20;fill-opacity:1;fill-rule:nonzero;stroke:none" transform="matrix(1.00546 0 0 -1.00546 -448.186 715.513)"/><path d="m600.359 643.078-2.066-.688-2.41-.69-2.755-.344h-11.016l-2.41.345v-14.457h20.656v15.834" style="fill:none;stroke:#231f20;stroke-width:.75;stroke-linecap:square;stroke-linejoin:miter;stroke-miterlimit:10;stroke-dasharray:none;stroke-opacity:1" transform="matrix(1.00546 0 0 -1.00546 -448.186 715.513)"/><path d="M561.8 564.253h4.132l2.065-.344 2.755-.69 2.409-.343 2.756-.688 2.753-.344 2.754-.344h5.853l2.065.344h2.065l2.067.344 2.065.688 2.065.344v-4.13h32.707l-4.476 6.196 5.164 6.196h-19.624v7.572h-6.541l-2.755-1.377-2.408-1.032-2.755-.69-3.1-.687-2.753-.344-3.097-.344-2.755-.345h-2.754l-2.754.345-2.41.344-2.41.688-2.41.344-2.41.689-2.41.344-3.097.344h-5.853l-2.755-.344-2.753-.344-2.41-.69-2.41-.343-2.41-.688-2.41-.344-2.41-.345h-2.754l-3.098.345-2.755.344-3.098.344-2.753.688-2.755.689-2.754 1.032-2.41 1.377h-6.885v-7.572h-19.28l4.82-6.196-4.475-6.196h32.705v4.13l2.066-.344 2.066-.688 2.065-.344h2.066l2.065-.344H542.178l2.754.344 2.41.344 2.754.688 2.754.344 2.41.689 2.41.344h2.066z" style="fill:#231f20;fill-opacity:1;fill-rule:nonzero;stroke:none" transform="matrix(1.00546 0 0 -1.00546 -448.186 715.513)"/><path d="M561.8 564.253h4.132l2.065-.344 2.755-.69 2.409-.343 2.756-.688 2.753-.344 2.754-.344h5.853l2.065.344h2.065l2.067.344 2.065.688 2.065.344v-4.13h32.707l-4.476 6.196 5.164 6.196h-19.624v7.572h-6.541l-2.755-1.377-2.408-1.032-2.755-.69-3.1-.687-2.753-.344-3.097-.344-2.755-.345h-2.754l-2.754.345-2.41.344-2.41.688-2.41.344-2.41.689-2.41.344-3.097.344h-5.853l-2.755-.344-2.753-.344-2.41-.69-2.41-.343-2.41-.688-2.41-.344-2.41-.345h-2.754l-3.098.345-2.755.344-3.098.344-2.753.688-2.755.689-2.754 1.032-2.41 1.377h-6.885v-7.572h-19.28l4.82-6.196-4.475-6.196h32.705v4.13l2.066-.344 2.066-.688 2.065-.344h2.066l2.065-.344H542.178l2.754.344 2.41.344 2.754.688 2.754.344 2.41.689 2.41.344h4.131" style="fill:none;stroke:#231f20;stroke-width:.75;stroke-linecap:square;stroke-linejoin:miter;stroke-miterlimit:10;stroke-dasharray:none;stroke-opacity:1" transform="matrix(1.00546 0 0 -1.00546 -448.186 715.513)"/><path d="M561.8 565.286h4.477l2.409-.344 2.41-.69 2.753-.343 2.754-.688 3.444-.345 3.787-.343h4.82l2.408.343 2.411.345 2.41.688 2.41.689 2.065 1.032 2.066 1.032h7.918v11.36h-5.165l-2.753-1.377-2.754-1.032-2.755-.69-2.754-.687-2.755-.345-2.752-.344-3.099-.344h-3.442l-3.099.344-2.41.689-2.409.344-2.066.688-2.067.345-2.409.343-2.755.345h-6.54l-2.41-.345-2.41-.343-2.066-.345-2.41-.688-2.065-.344-2.754-.69-3.098-.343h-3.443l-2.755.344-3.098.344-2.754.345-2.754.688-2.41.689-2.754 1.032-3.098 1.377h-5.163v-11.36h7.918l2.066-1.032 2.409-1.032 2.41-.69 2.066-.687 2.41-.345 2.409-.343h5.165l3.442.343 3.443.345 3.098.688 2.754.344 2.41.689 2.41.344h2.064z" style="fill:#fff;fill-opacity:1;fill-rule:nonzero;stroke:none" transform="matrix(1.00546 0 0 -1.00546 -448.186 715.513)"/><path d="M561.8 565.286h4.477l2.409-.344 2.41-.69 2.753-.343 2.754-.688 3.444-.345 3.787-.343h4.82l2.408.343 2.411.345 2.41.688 2.41.689 2.065 1.032 2.066 1.032h7.918v11.36h-5.165l-2.753-1.377-2.754-1.032-2.755-.69-2.754-.687-2.755-.345-2.752-.344-3.099-.344h-3.442l-3.099.344-2.41.689-2.409.344-2.066.688-2.067.345-2.409.343-2.755.345h-6.54l-2.41-.345-2.41-.343-2.066-.345-2.41-.688-2.065-.344-2.754-.69-3.098-.343h-3.443l-2.755.344-3.098.344-2.754.345-2.754.688-2.41.689-2.754 1.032-3.098 1.377h-5.163v-11.36h7.918l2.066-1.032 2.409-1.032 2.41-.69 2.066-.687 2.41-.345 2.409-.343h5.165l3.442.343 3.443.345 3.098.688 2.754.344 2.41.689 2.41.344h4.474" style="fill:none;stroke:#231f20;stroke-width:.75;stroke-linecap:square;stroke-linejoin:miter;stroke-miterlimit:10;stroke-dasharray:none;stroke-opacity:1" transform="matrix(1.00546 0 0 -1.00546 -448.186 715.513)"/><path d="M511.882 570.794v-5.164l13.083-5.852h-30.296l3.788 5.508-4.476 5.508z" style="fill:#fff;fill-opacity:1;fill-rule:nonzero;stroke:none" transform="matrix(1.00546 0 0 -1.00546 -448.186 715.513)"/><path d="M511.882 570.794v-5.164l13.083-5.852h-30.296l3.788 5.508-4.476 5.508h17.9" style="fill:none;stroke:#231f20;stroke-width:.75;stroke-linecap:square;stroke-linejoin:miter;stroke-miterlimit:10;stroke-dasharray:none;stroke-opacity:1" transform="matrix(1.00546 0 0 -1.00546 -448.186 715.513)"/><path d="M611.375 570.794v-5.164l-13.082-5.852h30.296l-3.787 5.508 4.475 5.508z" style="fill:#fff;fill-opacity:1;fill-rule:nonzero;stroke:none" transform="matrix(1.00546 0 0 -1.00546 -448.186 715.513)"/><path d="M611.375 570.794v-5.164l-13.082-5.852h30.296l-3.787 5.508 4.475 5.508h-17.902" style="fill:none;stroke:#231f20;stroke-width:.75;stroke-linecap:square;stroke-linejoin:miter;stroke-miterlimit:10;stroke-dasharray:none;stroke-opacity:1" transform="matrix(1.00546 0 0 -1.00546 -448.186 715.513)"/><path d="M514.292 565.63h5.853l.688-.344.688-.344.689-.345.688-.344h.345l.69-.344.687-.344h.343v-2.754z" style="fill:#fff;fill-opacity:1;fill-rule:nonzero;stroke:none" transform="matrix(1.00546 0 0 -1.00546 -448.186 715.513)"/><path d="M514.292 565.63h5.853l.688-.344.688-.344.689-.345.688-.344h.345l.69-.344.687-.344h.343v-2.754l-10.672 4.819" style="fill:none;stroke:#231f20;stroke-width:.75;stroke-linecap:square;stroke-linejoin:miter;stroke-miterlimit:10;stroke-dasharray:none;stroke-opacity:1" transform="matrix(1.00546 0 0 -1.00546 -448.186 715.513)"/><path d="M609.31 565.63h-6.198l-.687-.344-.69-.344-.345-.345-.688-.344h-.688l-.689-.344-.344-.344h-.689v-2.754z" style="fill:#fff;fill-opacity:1;fill-rule:nonzero;stroke:none" transform="matrix(1.00546 0 0 -1.00546 -448.186 715.513)"/><path d="M609.31 565.63h-6.198l-.687-.344-.69-.344-.345-.345-.688-.344h-.688l-.689-.344-.344-.344h-.689v-2.754l11.017 4.819" style="fill:none;stroke:#231f20;stroke-width:.75;stroke-linecap:square;stroke-linejoin:miter;stroke-miterlimit:10;stroke-dasharray:none;stroke-opacity:1" transform="matrix(1.00546 0 0 -1.00546 -448.186 715.513)"/><path d="M551.472 525.7h-1.72v7.23h-2.41v1.377h1.377l.344.345h.344v.343h.345v.689h.344v.344h1.377zM558.702 532.585v1.033h-.345v.344h-.343v.345h-1.377l-.345-.345h-.343v-2.409l.343-.345v-.343H558.014v.343h.343v.345h.345v.688zm2.066-1.72V528.8l-.344-.345v-.688l-.345-.344v-.345l-.344-.343-.345-.345h-.344l-.344-.344-.345-.345h-2.409l-.346.345h-.343l-.345.344-.343.345-.344.343v.689h-.344v.344h2.065v-.344h.343v-.344h.346v-.345h.688l.343.345h.346v.344h.343v.344l.345.344v1.722-.346h-.345v-.343h-.343l-.346-.344H555.948l-.346.344h-.343l-.345.343-.343.346v.343h-.344v.345l-.344.343v2.754l.344.345v.345l.344.343h.343v.345h.345l.343.344h.346l.343.344h2.067l.344-.344.344-.344h.344l.345-.345.344-.688.345-.345v-.689l.344-.343V531.208zM565.587 533.962l-2.41-4.474h2.41V533.618zm3.098-5.851h-1.033v-2.41h-2.065v2.41H561.8v1.72l3.443 6.197h2.41v-6.54h1.032zM576.604 529.144v-1.033h-.344v-.688l-.343-.345v-.343h-.346l-.343-.345-.345-.344h-.345l-.343-.345h-2.41l-.346.345h-.342l-.345.344h-.344v.345l-.346.343v.345h-.343v1.032h2.065v-.688h.345v-.344h.344v-.345H573.508v.345h.688v.688h.343V529.832l-.343.345v.343h-.345v.345H572.13v-.345h-.345v-.343h-1.722l.689 5.507h5.508v-1.377h-4.13l-.345-2.41.345.344h.688v.344h1.377l.343-.344h.345l.345-.344h.343l.346-.344v-.345l.343-.343v-.345l.344-.343v-.689zM600.702 568.728h-.687v-.344H598.637v-1.033l.344-.344H600.015l.343.344h.344V568.04zm1.376-2.41h-.688l-.343.345v.344h-.345v-.344h-.687v-.344H598.637v.344h-.345l-.344.344V568.384l.344.344h.345v.343H600.358l.344.345V570.45h-1.721v-.345l-.344-.344h-.689v.344h.344v.689h.689v.344h1.722l.345-.344h.343v-.689h.345v-3.098h.343zm-4.818 0h-.688v4.82h.688zm0 5.509h-.688v.688h.688zm-1.033-1.377h-.689v-.345h-.345l-.343-.344V566.319h-.689v4.819h.69v-1.033.345l.342.344.345.344h.689zm-3.443-1.722v1.033h-.345v.344h-.342v.345h-1.379v-.345h-.344V569.07h-.345v-.687h.345v-1.033h.344l.344-.344h1.035v.344h.342v.343l.345.346v.344zm.69 0V567.694l-.346-.343v-.344h-.344v-.344h-.345l-.342-.344h-1.379v.344h-.344l-.345.344-.343.344v.343l-.345.346v1.376l.345.345v.344l.343.345.345.344h.344v.344h1.379l.342-.344h.345v-.344h.344v-.345l.346-.344v-.69zm-4.476-2.41h-.689v6.197h.69zm-1.379 0h-.343l-.344 1.033v-.344h-.343v-.344h-.689v-.344H584.178l-.345.344h-.344l-.345.344h-.343v.344l-.345.343v.69h-.344v2.066l.344.344v.688h.345v.345l.343.343.345.345h.344l.345.344h1.721l.344-.344h.345v-.345h.344l.345-.343.343-.345v-.688h-.688v.344h-.343v.344h-.345v.345h-.344l-.344.343h-1.035l-.343-.343h-.345v-.345h-.344v-.344l-.345-.344V568.04l.345-.346.344-.343h.345v-.344h1.721v.344h.344l.345.343v.346h.344v1.031h-1.721v.69h2.409zm-19.967 2.753v.69h-.343v.689h-.344v.344h-1.378l-.344-.344v-.345l-.345-.344V568.384h.345v-.69h.688v-.343h.689v.343h.344l.345.346v.344l.344.344zm.69 0v-.687l-.344-.344v-.346l-.346-.343-.343-.344h-.689v-.344h-.689v.344h-.688l-.345.344-.343.343v.346h-.345v2.065l.345.345v.344l.343.344h.345v.344h2.066v-.344h.343l.345-.344v-.689h.344v-.689zm-5.508.345V570.45h-.345v.344H561.111l-.345-.344v-.345h-.344v-.689zm-2.41-.345V568.04h.344v-.346h.345l.344-.343h.688v.343h.689v.69h.688v-.69l-.344-.343-.344-.344h-.689v-.344h-.688l-.344.344h-.69v.344h-.344v.343l-.345.346v2.065l.345.345v.344l.344.344h.344v.344h1.722l.345-.344h.344v-.344h.344v-1.033l.345-.345v-.345zm-2.066 1.034v1.033h-.344v.689h-.345v.343h-.689v.345h-2.065v-4.821h2.41v.346h.344l.344.344v.344l.344.343v.69zm.689 0V568.384l-.345-.344-.345-.346v-.343h-.688v-.344h-3.442v6.196h3.098v-.344h.688v-.344h.344v-.345h.345v-.343l.344-.345v-1.032zm-24.788-3.786h-.688v4.819h.688zm0 5.508h-.688v.688h.688zm-1.033-5.508h-1.033v6.196h1.033zm-2.066 2.409v1.033h-.344v.344h-.344v.345H529.095v-.345h-.345v-.689h-.344v-1.376h.344V567.35h.345l.344-.344h1.033v.344h.344v.343l.344.346v.344zm.69 0V567.694l-.345-.343v-.344h-.345v-.344h-.344l-.344-.344H529.095l-.345.344h-.344v.344l-.344.344v.343h-.344V569.76h.344v.344l.344.345v.344h.344l.345.344H530.472l.344-.344h.344v-.344h.345v-.345l.344-.344v-.69zm-4.477-.688v-.346l-.344-.343v-.344h-.344l-.345-.344h-.344v-.344h-2.065l-.344.344h-.344v.344h-.345l-.344.344v1.033h-.345 1.034v-.69h.344v-.343h.344v-.344H525.652v.344h.688V568.728h-.344v.343h-.689l-1.376.345h-.344v.345h-.689v.344l-.344.345v1.032l.344.345v.343h.345v.345h.688v.344H525.652l.344-.344h.344l.345-.345v-.343h.344v-1.033h-.689v.688h-.344v.345h-.344v.343H523.931v-.343h-.344v-.345l-.344-.344v-.344h.344v-.344h.344v-.345h.344l1.721-.344h.344l.345-.345h.344v-.688h.344v-.344z" style="fill:#231f20;fill-opacity:1;fill-rule:nonzero;stroke:none" transform="matrix(1.00546 0 0 -1.00546 -448.186 715.513)"/><path d="M566.275 591.79h1.032v-1.721h-1.032zm0-3.442h1.032v-1.721h-1.032zm-3.098 0h1.033v-1.721h-1.033zm0 3.442h1.033v-1.721h-1.033zm-4.13-8.95h1.722V589.38H559.046zm-5.164 7.229h2.755v-1.033h-.346v.345H554.226V584.217l-.345-.344v-.688l-.344-.345v-.688h.344v-.344H555.26v-.344.688l.344.688v1.033h.345-.344v-.345l.344.345V588.693h.344v.343h.346v-8.605h1.72v9.638h2.41v1.72h-6.885zm.345 3.442h6.197v1.72h-6.197zm9.983-.344h-2.754v-8.605h2.754v-4.475h2.065v4.475h3.099v8.605h-3.1v2.409h.346v.345h-.688.343-2.065zm-3.098 41.994h-3.1.344v.344h.69v.344h.688v.344h.345v.344h-.345v.345l-.344.344v.344h-.344v.688h-.344v.345l-.345.343v.345h-.344v.344h-.344v.344h-.344v.344H556.636l-.346-.344h-.344l-.344-.344h-.344v-.344h-.344v-.345h.344v-.343h.344v-.345h.344v-.344l.344-.344.346-.344v-.344l.343-.345v-.344.344-.344l.345-.344v-.688h.344-3.787v-2.41h5.164v-1.032l-.344-.344V629.998l-.345-.345v-.688l-.344-.344-.344-.344-.689-.344-.343-.344-.346-.346-.344-.344h-.344l-.344-.344h-.688v-.344h-.689l-.344-.344.344-.344h.345l.344-.345v-.344h.344l.344-.344v-.344l.344-.345.688.345.69.344.688.344.344.344.69.345.343.688.688.344.345.688.344.346.345.688v.688l.344.688v.689l.344.688v1.721h1.377v-7.573l.344-.344.344-.344h.689l.345-.344h4.476v.344h.689l.343.344.345.344v.689l.344.344v.688l.345.69h-.689l-.345.344h-.343l-.345.344h-.344v.344l-.345-.344V626.899h-.344v-.344H565.588v.344h-.344v5.852h5.508v2.41h-4.131l.344.344.688 1.032v.345l.345.344v.344l.344.344v.344h.344v.345h.345l.344.343v.345h-.344l-.345.344h-.688l-.345.344h-.688v.344h-.689v-.344l-.343-.688-.345-.688v-.345l-.344-.344v-.344l-.345-.344v-.344h-.343v-.345h-.345v-.344l1.722-1.032h-2.066v5.507h.344v.344H561.111z" style="fill:#fff;fill-opacity:1;fill-rule:nonzero;stroke:none" transform="matrix(1.00546 0 0 -1.00546 -448.186 715.513)"/><path d="m647.867 659.6 11.016-17.21-13.083-7.917-1.72 2.753 11.36 6.885-9.295 14.456z" style="fill:#231f20;fill-opacity:1;fill-rule:nonzero;stroke:none" transform="matrix(1.00546 0 0 -1.00546 -448.186 715.513)"/><path d="m647.867 659.6 11.016-17.21-13.083-7.917-1.72 2.753 11.36 6.885-9.295 14.456 1.722 1.033" style="fill:none;stroke:#231f20;stroke-width:.75;stroke-linecap:square;stroke-linejoin:miter;stroke-miterlimit:10;stroke-dasharray:none;stroke-opacity:1" transform="matrix(1.00546 0 0 -1.00546 -448.186 715.513)"/><path d="m630.31 650.306 13.77-21.341 1.72 1.033-5.506 8.949 5.852 3.787-2.065 2.753-5.853-3.442-2.066 3.098 6.197 3.442-2.065 3.098-5.854-3.786-2.41 3.786z" style="fill:#231f20;fill-opacity:1;fill-rule:nonzero;stroke:none" transform="matrix(1.00546 0 0 -1.00546 -448.186 715.513)"/><path d="m630.31 650.306 13.77-21.341 1.72 1.033-5.506 8.949 5.852 3.787-2.065 2.753-5.853-3.442-2.066 3.098 6.197 3.442-2.065 3.098-5.854-3.786-2.41 3.786-1.72-1.377" style="fill:none;stroke:#231f20;stroke-width:.75;stroke-linecap:square;stroke-linejoin:miter;stroke-miterlimit:10;stroke-dasharray:none;stroke-opacity:1" transform="matrix(1.00546 0 0 -1.00546 -448.186 715.513)"/><path d="m504.652 673.024 3.1 2.065 3.441-5.508 11.017 7.573 1.377-1.721-14.115-9.638z" style="fill:#231f20;fill-opacity:1;fill-rule:nonzero;stroke:none" transform="matrix(1.00546 0 0 -1.00546 -448.186 715.513)"/><path d="m504.652 673.024 3.1 2.065 3.441-5.508 11.017 7.573 1.377-1.721-14.115-9.638-4.82 7.229" style="fill:none;stroke:#231f20;stroke-width:.75;stroke-linecap:square;stroke-linejoin:miter;stroke-miterlimit:10;stroke-dasharray:none;stroke-opacity:1" transform="matrix(1.00546 0 0 -1.00546 -448.186 715.513)"/><path d="m516.702 679.219 2.753 2.065-7.573 11.704-3.097-2.065z" style="fill:#231f20;fill-opacity:1;fill-rule:nonzero;stroke:none" transform="matrix(1.00546 0 0 -1.00546 -448.186 715.513)"/><path d="m516.702 679.219 2.753 2.065-7.573 11.704-3.097-2.065 7.918-11.704" style="fill:none;stroke:#231f20;stroke-width:.75;stroke-linecap:square;stroke-linejoin:miter;stroke-miterlimit:10;stroke-dasharray:none;stroke-opacity:1" transform="matrix(1.00546 0 0 -1.00546 -448.186 715.513)"/><path d="m497.767 672.336 3.442 2.065-.689 8.605 7.23-4.13 3.442 2.065-9.295 5.507-5.163-3.442z" style="fill:#231f20;fill-opacity:1;fill-rule:nonzero;stroke:none" transform="matrix(1.00546 0 0 -1.00546 -448.186 715.513)"/><path d="m497.767 672.336 3.442 2.065-.689 8.605 7.23-4.13 3.442 2.065-9.295 5.507-5.163-3.442 1.033-10.67" style="fill:none;stroke:#231f20;stroke-width:.75;stroke-linecap:square;stroke-linejoin:miter;stroke-miterlimit:10;stroke-dasharray:none;stroke-opacity:1" transform="matrix(1.00546 0 0 -1.00546 -448.186 715.513)"/><path d="M554.227 703.315h-10.329v-14.113h10.33v2.065h-6.885v9.983h6.885z" style="fill:#231f20;fill-opacity:1;fill-rule:nonzero;stroke:none" transform="matrix(1.00546 0 0 -1.00546 -448.186 715.513)"/><path d="M554.227 703.315h-10.329v-14.113h10.33v2.065h-6.885v9.983h6.885v2.065" style="fill:none;stroke:#231f20;stroke-width:.75;stroke-linecap:square;stroke-linejoin:miter;stroke-miterlimit:10;stroke-dasharray:none;stroke-opacity:1" transform="matrix(1.00546 0 0 -1.00546 -448.186 715.513)"/><path d="M557.326 703.315h3.443v-6.541h2.753v6.54h3.443v-21.341h-3.443v13.079h-2.753v-13.08h-3.443z" style="fill:#231f20;fill-opacity:1;fill-rule:nonzero;stroke:none" transform="matrix(1.00546 0 0 -1.00546 -448.186 715.513)"/><path d="M557.326 703.315h3.443v-6.541h2.753v6.54h3.443v-21.341h-3.443v13.079h-2.753v-13.08h-3.443v21.343" style="fill:none;stroke:#231f20;stroke-width:.75;stroke-linecap:square;stroke-linejoin:miter;stroke-miterlimit:10;stroke-dasharray:none;stroke-opacity:1" transform="matrix(1.00546 0 0 -1.00546 -448.186 715.513)"/><path d="m619.293 687.137 3.099-1.721-2.066-3.787 2.754-1.377-1.033-1.721-2.408 1.377-2.411-4.475-3.443 1.722z" style="fill:#231f20;fill-opacity:1;fill-rule:nonzero;stroke:none" transform="matrix(1.00546 0 0 -1.00546 -448.186 715.513)"/><path d="m619.293 687.137 3.099-1.721-2.066-3.787 2.754-1.377-1.033-1.721-2.408 1.377-2.411-4.475-3.443 1.722 5.508 9.982" style="fill:none;stroke:#231f20;stroke-width:.75;stroke-linecap:square;stroke-linejoin:miter;stroke-miterlimit:10;stroke-dasharray:none;stroke-opacity:1" transform="matrix(1.00546 0 0 -1.00546 -448.186 715.513)"/><path d="m600.702 682.317 15.837-8.26-4.132-7.23-3.098 1.722 3.099 5.164-12.737 6.883z" style="fill:#231f20;fill-opacity:1;fill-rule:nonzero;stroke:none" transform="matrix(1.00546 0 0 -1.00546 -448.186 715.513)"/><path d="m600.702 682.317 15.837-8.26-4.132-7.23-3.098 1.722 3.099 5.164-12.737 6.883 1.032 1.72" style="fill:none;stroke:#231f20;stroke-width:.75;stroke-linecap:square;stroke-linejoin:miter;stroke-miterlimit:10;stroke-dasharray:none;stroke-opacity:1" transform="matrix(1.00546 0 0 -1.00546 -448.186 715.513)"/><path d="M613.096 687.137V685.76l-.344-.344v-.345l-.345-.344-.688-1.033-.689-.688-.688-.69-1.033-.343-1.034-.344h-1.033l-1.032.344-1.033.344-1.032.689-.688.688-.688 1.033-.345.689-.347 1.033v1.376l.347 1.033.345 1.032v.345h.342l.346.344v.344l.343.344h.345v.344h.343l-2.753 1.72.69 1.722 5.85-3.098 1.034 2.066 3.098-1.721-1.033-1.721 5.51-3.098-.69-1.721z" style="fill:#231f20;fill-opacity:1;fill-rule:nonzero;stroke:none" transform="matrix(1.00546 0 0 -1.00546 -448.186 715.513)"/><path d="M613.096 687.137V685.76l-.344-.344v-.345l-.345-.344-.688-1.033-.689-.688-.688-.69-1.033-.343-1.034-.344h-1.033l-1.032.344-1.033.344-1.032.689-.688.688-.688 1.033-.345.689-.347 1.033v1.376l.347 1.033.345 1.032v.345h.342l.346.344v.344l.343.344h.345v.344h.343l-2.753 1.72.69 1.722 5.85-3.098 1.034 2.066 3.098-1.721-1.033-1.721 5.51-3.098-.69-1.721-3.098 1.377" style="fill:none;stroke:#231f20;stroke-width:.75;stroke-linecap:square;stroke-linejoin:miter;stroke-miterlimit:10;stroke-dasharray:none;stroke-opacity:1" transform="matrix(1.00546 0 0 -1.00546 -448.186 715.513)"/><path d="m608.966 689.89.688-.344.344-.344.345-.69v-.343l.343-.69v-.687l-.343-.344v-.688l-.345-.345-.344-.688-.688-.345h-1.033l-.69-.344-.345.344h-.688l-.343.345-.69.688-.344.345v.688l-.345.344v.688l.345.689v.344l.344.689.69.344.344.344h.688l.345.345H608.62z" style="fill:#fff;fill-opacity:1;fill-rule:nonzero;stroke:none" transform="matrix(1.00546 0 0 -1.00546 -448.186 715.513)"/><path d="m608.966 689.89.688-.344.344-.344.345-.69v-.343l.343-.69v-.687l-.343-.344v-.688l-.345-.345-.344-.688-.688-.345h-1.033l-.69-.344-.345.344h-.688l-.343.345-.69.688-.344.345v.688l-.345.344v.688l.345.689v.344l.344.689.69.344.344.344h.688l.345.345H608.62l.345-.345" style="fill:none;stroke:#231f20;stroke-width:.75;stroke-linecap:square;stroke-linejoin:miter;stroke-miterlimit:10;stroke-dasharray:none;stroke-opacity:1" transform="matrix(1.00546 0 0 -1.00546 -448.186 715.513)"/><path d="m461.964 638.258 7.23 12.393 7.574-4.476 1.032 2.065 1.722-1.031-8.951-15.491-1.723 1.034 2.066 3.785-3.098 1.72 1.721 3.1 3.1-1.723 2.064 3.443-5.853 3.443-5.163-8.95z" style="fill:#231f20;fill-opacity:1;fill-rule:nonzero;stroke:none" transform="matrix(1.00546 0 0 -1.00546 -448.186 715.513)"/><path d="m461.964 638.258 7.23 12.393 7.574-4.476 1.032 2.065 1.722-1.031-8.951-15.491-1.723 1.034 2.066 3.785-3.098 1.72 1.721 3.1 3.1-1.723 2.064 3.443-5.853 3.443-5.163-8.95-1.722.688" style="fill:none;stroke:#231f20;stroke-width:.75;stroke-linecap:square;stroke-linejoin:miter;stroke-miterlimit:10;stroke-dasharray:none;stroke-opacity:1" transform="matrix(1.00546 0 0 -1.00546 -448.186 715.513)"/><path d="m471.603 655.125 1.723 2.754 3.097-1.721 1.378 2.409 2.409-1.376-1.378-2.41 4.477-2.41-2.067-3.098z" style="fill:#231f20;fill-opacity:1;fill-rule:nonzero;stroke:none" transform="matrix(1.00546 0 0 -1.00546 -448.186 715.513)"/><path d="m471.603 655.125 1.723 2.754 3.097-1.721 1.378 2.409 2.409-1.376-1.378-2.41 4.477-2.41-2.067-3.098-9.64 5.852" style="fill:none;stroke:#231f20;stroke-width:.75;stroke-linecap:square;stroke-linejoin:miter;stroke-miterlimit:10;stroke-dasharray:none;stroke-opacity:1" transform="matrix(1.00546 0 0 -1.00546 -448.186 715.513)"/><path d="m480.555 645.83.688 1.034.688.688 1.034.688 1.032.345 1.376.344 1.034-.344h1.032l1.032-.69 1.034-.687 1.032-.69.345-1.031.344-1.033.344-1.032v-1.378l-.344-1.032-.344-1.033-.689-1.033-1.032-.688-1.033-.688-1.033-.344-1.034-.345h-1.032l-1.377.345-1.032.688-1.034.688-.688.689-.688 1.032-.344 1.033v2.41l.344 1.033z" style="fill:#231f20;fill-opacity:1;fill-rule:nonzero;stroke:none" transform="matrix(1.00546 0 0 -1.00546 -448.186 715.513)"/><path d="m480.555 645.83.688 1.034.688.688 1.034.688 1.032.345 1.376.344 1.034-.344h1.032l1.032-.69 1.034-.687 1.032-.69.345-1.031.344-1.033.344-1.032v-1.378l-.344-1.032-.344-1.033-.689-1.033-1.032-.688-1.033-.688-1.033-.344-1.034-.345h-1.032l-1.377.345-1.032.688-1.034.688-.688.689-.688 1.032-.344 1.033v2.41l.344 1.033.344 1.032" style="fill:none;stroke:#231f20;stroke-width:.75;stroke-linecap:square;stroke-linejoin:miter;stroke-miterlimit:10;stroke-dasharray:none;stroke-opacity:1" transform="matrix(1.00546 0 0 -1.00546 -448.186 715.513)"/><path d="m482.964 644.454.344.345.69.343.343.345.688.344H486.75l.344-.344.689-.345.344-.343.344-.688V642.044l-.344-.688-.344-.344-.344-.69h-.345l-.688-.343H484.686l-.688.344-.346.344-.344.345-.344.689-.344.343v1.379l.344.343z" style="fill:#fff;fill-opacity:1;fill-rule:nonzero;stroke:none" transform="matrix(1.00546 0 0 -1.00546 -448.186 715.513)"/><path d="m482.964 644.454.344.345.69.343.343.345.688.344H486.75l.344-.344.689-.345.344-.343.344-.688V642.044l-.344-.688-.344-.344-.344-.69h-.345l-.688-.343H484.686l-.688.344-.346.344-.344.345-.344.689-.344.343v1.379l.344.343v.688" style="fill:none;stroke:#231f20;stroke-width:.75;stroke-linecap:square;stroke-linejoin:miter;stroke-miterlimit:10;stroke-dasharray:none;stroke-opacity:1" transform="matrix(1.00546 0 0 -1.00546 -448.186 715.513)"/><path d="m652.686 578.71 6.542-7.917 4.82-2.065-.688-3.098-5.165 2.065-9.296-2.41 1.034 3.787 6.542 1.033-4.821 5.163zm-2.41-16.178-1.72-4.13 9.638-6.196-1.376-3.098-9.638 6.195-2.067-4.13-2.065 1.377 5.163 11.359zm2.41-20.997-1.72-2.41-11.017 9.294 1.722 2.41zm-6.885-2.753.345-.688.345-.345.344-.688.345-.69v-2.409l-.345-.69v-.687l-.344-.344-.345-.344v-.69l-.345-.342-.344-.345-.344-.69-.689-.686-.344-.344-.688-.345-.689-.344-.345-.344h-.688l-.345-.344h-.688l-.344.344h-.689l-.344.344-.345.344h-.344l-.344.345 1.721 2.408h.345v-.343h.688v-.345h.689l.344.345h.689v.343l.344.345.345.344.343.344.345.344v.345l.344.343v.345l.346.344v1.378l-.345.344-.344.344v.344h-1.033l-.344-.344h-.345v-.344h-.689v-.344l-.345-.345-1.377-1.033-.344-.344-.344-.345h-.345l-.344-.343-.344-.345h-.344l-.345-.344h-1.722l-.343.344h-.345l-.344.345-.687.343v.345l-.346.344-.343.345v.345l-.346.343v.689l-.342.688v1.033l.342.689v.688l.346.343.343.689.346.688.342.688.69.69.344.344.343.345.69.343.344.344.688.345h2.066l.344-.345h.345l.344-.344h.344l.344-.343-1.72-2.411h-.345l-.345.344h-1.377l-.344-.344h-.344v-.344l-.344-.344-.345-.345-.345-.343v-.344l-.343-.344v-2.066h.343v-.344h.345l.345-.344h.688v.344h.344l.345.344 2.754 2.41h.344l.344.344.345.343h.344l.344.345h.345l.344.344h1.033l.344-.344h.345l.343-.345.344-.343zm-15.49-9.638h-.345v.344h-.344l-.345.343H628.242v-.343h-.688v-.344l-2.754-2.754 2.41-3.097 2.41 2.408.344.345.345.344v.345l.343.343V528.455h-.343v.345zm8.26-6.197-2.41-2.408h-.344v.344h-.343v.345l-.345.343-.344.345v.343h-.345v.346h-.343v.342l-.346.346-.343.343-.346.345-.342.343h-.691l-.343-.343h-.345l-.344-.345v-.343l-2.409-2.065 3.441-4.821-2.064-2.065-8.95 12.048 5.508 5.163.344.344.345.344.688.344.344.345h2.067l.343-.345h.344l.344-.344.345-.344.343-.344.346-.345v-.343l.345-.345v-.343l.342-.346v-2.064l-.342-.344v-.345H634.44l.345-.343.344-.345.345-.344v-.345l.343-.343.345-.345.345-.344.344-.345v-.343l.344-.345h.344v-.343h.689zm-11.705-11.013-8.95-6.198-6.886 13.425 8.608 6.197 1.031-2.411-6.196-4.474 1.721-2.754 5.508 3.787 1.377-2.41-5.852-3.785 2.065-3.787 6.197 4.818zm-18.246 6.539 1.722-16.867-2.41-1.376-9.984 12.048 2.754 1.72 6.885-9.638h.345l-1.722 12.392zm-8.606-21.34-2.754-1.034-4.132 15.146 2.755 1.033zm-5.853-2.754-2.754-.69-7.573 9.639 2.066-11.014-2.755-.69-2.753 15.49 3.098 1.033 7.229-9.638-2.065 10.67 2.409.689zm-15.146 2.408v-2.064l-.345-.69v-.687l-.345-.344v-.345l-.345-.688-.344-.344-.344-.345-.689-.343h-.344l-.689-.345-.343-.345H571.438l-.342.345h-.689l-.345.345-.343.343-.345.345v.344h-.344v.345h-.345v.688l-.344.344V494.723l-.344.345-.688 10.668 2.753.345 1.034-10.325V494.379l.342-.345.346-.344v-.344h.345l.344-.344h2.064l.345.344h.345v.344h.343v.344h.346V495.068l.343.343v.688l-1.032 10.67 2.753.345zm-21-7.228-2.755.344-4.475 12.048-1.034-11.36-2.752.346 1.375 15.833 3.1-.343 4.475-11.704 1.032 11.013 2.41-.343zm-14.46 1.72-2.753.69 2.408 15.489 2.754-.344zm-6.54 1.378-2.755.689 1.72 6.884-5.163 1.72-1.721-7.227-2.755 1.033 3.444 15.489 2.754-1.033-1.377-5.852 5.164-1.376 1.377 5.85 2.754-.687zm-12.74 8.949v-.688l-.343-.688-.689-.344-.345-.69-.344-.343h-.688l-.346-.344h-2.064l-.346.344h-1.031l-.344.344-.69.344-.687.345-.69.688-.342.344-.346.688-.343.345-.345.689-.343.344V506.426l.343.344 2.41-1.377v-.343l-.344-.345v-.688h.345V503.328l.343-.344.346-.344v-.345h.343l.345-.344h.343l.345-.345h.343l.346-.343h1.376l.345.343h.343v.689h.346v1.376h-.346v.346l-.343.343v.345h-.345l-.343.345-.345.343-1.377 1.034-.345.343-.343.344-.345.344-.343.345-.346.344v.344h-.343v.344l-.345.345v1.032l-.344.345v.688l.344.344v1.033l.345.343.343.346v.342l.346.346.343.343v.345l.345.343h.343l.345.345h2.753l.689-.345.688-.343.688-.345.69-.343.344-.346.343-.342.345-.69.343-.343.346-.69.343-.343V508.147l-.343-.69-2.41 1.378v2.066l-.344.344-.345.344-.344.345-.345.344H521.52v.344H519.8l-.343-.344-.346-.344v-.689h-.343v-.344h.343v-.689l.346-.344v-.344h.343l2.755-2.41.344-.344.345-.343.343-.346v-.345h.346l.343-.343v-.688l.345-.345v-2.409zm-15.148 2.065-1.72 1.034.688 2.065-.345-.343H507.061l-.343-.346h-1.378l-.343.346H504.308l-.345.343h-.343l-.345.344-.343.344-.689.689-.346.344-.343.689-.345.344-.343.688v.689l-.346.688v3.098l.346.688v1.032l.343.689.345 1.033.69.689.341.688.347.344.688.689.343.344.688.688.346.345h.688l.688.343h.688l.69.346.687-.346h.69l.688-.343.688-.345.688-.343.346-.345.688-.69.343-.343.345-.69.345-.342.343-.69.346-.688v-.688l.343-.345v-2.408l-.343-.688v-.346l-2.41 1.722v2.065l-.346.344v.344l-.342.344v.345l-.346.344h-.343v.345l-.345.343h-1.032l-.346.345h-1.031l-.346-.345h-.343l-.345-.343-.344-.345-.344-.344-.688-.345-.346-.344v-.688l-.343-.688-.345-.345-.343-.69-.345-.687v-3.097l.345-.344v-.344l.343-.345.345-.344.343-.344.346-.344h.343l.345-.345h.344l.344-.344h.688l.346.344h.343l.345.345h.343l.346.344.343.344.345.344-2.754 1.722 1.377 2.408 4.82-3.441zm-14.114 9.982-2.065 2.066 1.72 12.736h-.343l-5.853-8.95-2.065 2.066 8.261 12.39 2.411-2.064-1.378-12.391v-.345l5.853 8.95 2.067-2.065zM484.34 532.93l2.755 5.508-5.164-2.754zm-.689-8.261-2.066 2.754 1.378 2.754-3.443 4.475-2.41-1.38-2.066 2.412 13.083 6.54 2.065-2.754zm.346 22.718-13.428-4.475-1.377 2.754.69 1.032.687.689 1.033 1.032.69.689.345.688.689.344.343.689.345.344.343.344.345.344.343.345.346.344.689.344.343.344.345.688.343.345-.688-.345h-.343l-.345-.344h-.344l-.346-.344-.688-.344h-.343l-.345-.344h-.343l-.346-.344h-.688l-1.032-.345-1.378-.688-1.378-.69-1.72-.687-1.377 2.754 9.638 12.047 1.723-3.097-1.033-1.033-.69-1.033-1.031-.688-.688-1.033-.346-.688-.688-.344-.344-.69-.688-.343v-.345l-.345-.344-.345-.344h-.343v-.344l-.345-.345-.343-.344h-.346v-.344l.689.344.345.344h.343l.345.345h.688l.345.344.689.344.689.344h.688l1.03.689.69.344 1.034.345 1.032.344 1.032.344 1.378-2.754-.69-1.033-1.032-1.032-.688-1.033-.69-.688-.687-.69-.688-.687-.344-.344-.346-.344-.343-.345-.345-.344v-.344l-.343-.344h-.345l-.343-.344v-.345l-.346-.344h.346v.344h.343l.345.345h.688l.343.344h.346l.689.344.688.344h.689l.688.344 1.033.345 1.032.688 1.033.344 1.378.344zm-21.689 13.08-1.034 4.13 4.476 6.885-1.722 1.032-4.474-1.721-1.035 3.098 13.083 4.819.69-3.098-5.165-2.065 6.886-3.786 1.031-4.131-6.884 4.13zM464.717 607.279l1.033-.343h.69l.688-.345.688-.688.689-.688.344-.688.345-.69V602.117l-.345-1.031-.344-.69-.69-.687-.688-.346-.688-.688h-.689l-1.033-.345-.688.345h-1.033l-.689.688-.689.346-.344.688-.344.689-.344 1.03V603.839l.344.689.344.688.344.688.69.688.688.345h1.033z" style="fill:#231f20;fill-opacity:1;fill-rule:nonzero;stroke:none" transform="matrix(1.00546 0 0 -1.00546 -448.186 715.513)"/><path d="m464.717 607.279 1.033-.343h.69l.688-.345.688-.688.689-.688.344-.688.345-.69V602.117l-.345-1.031-.344-.69-.69-.687-.688-.346-.688-.688h-.689l-1.033-.345-.688.345h-1.033l-.689.688-.689.346-.344.688-.344.689-.344 1.03V603.839l.344.689.344.688.344.688.69.688.688.345h1.033l.688.343" style="fill:none;stroke:#231f20;stroke-width:.75;stroke-linecap:square;stroke-linejoin:miter;stroke-miterlimit:10;stroke-dasharray:none;stroke-opacity:1" transform="matrix(1.00546 0 0 -1.00546 -448.186 715.513)"/><path d="m658.884 607.279.689-.343h1.032l.688-.345.688-.688.346-.688.688-.688v-.69l.345-1.033-.345-.688v-1.031l-.688-.69-.346-.687-.688-.346-.688-.688h-1.032l-.69-.345-1.032.345h-.689l-.688.688-.69.346-.688.688-.344.689v1.03l-.345.689.345 1.034v.689l.344.688.688.688.69.688.688.345h.69z" style="fill:#231f20;fill-opacity:1;fill-rule:nonzero;stroke:none" transform="matrix(1.00546 0 0 -1.00546 -448.186 715.513)"/><path d="m658.884 607.279.689-.343h1.032l.688-.345.688-.688.346-.688.688-.688v-.69l.345-1.033-.345-.688v-1.031l-.688-.69-.346-.687-.688-.346-.688-.688h-1.032l-.69-.345-1.032.345h-.689l-.688.688-.69.346-.688.688-.344.689v1.03l-.345.689.345 1.034v.689l.344.688.688.688.69.688.688.345h.69l1.032.343" style="fill:none;stroke:#231f20;stroke-width:.75;stroke-linecap:square;stroke-linejoin:miter;stroke-miterlimit:10;stroke-dasharray:none;stroke-opacity:1" transform="matrix(1.00546 0 0 -1.00546 -448.186 715.513)"/><path d="m529.784 620.36.688-.688.344-.69.69-1.032.344-.69.688-1.03.345-1.034.689-1.031.343-1.034.345-.688.343-.688.346-1.034.343-.69.344-1.03.343-1.034.346-.688.343-1.033V605.215l-.343-.688h-.346l-.688-.346h-.343l-.689.346-.688 1.032v.344l-.344.687v.689l-.345.688-.345.689-.343.688v.345l-.345.343-.688-.343-.689-.688-.345-.345-.343-.69-.346-.687-.343-.69v-.343l-.345-.687-.343-.69-.689-.342h-1.032l-.344.343-.345.689v.687l.345 1.033.344.688.345.689.688 1.033.343.689.689.688.688.689.689.343.344.689v.689l-.345.689-.343.688-.346.688-.343.689-.345.688-.343.689-.689.688V619.672l.344.343.346.345h1.031z" style="fill:#fff;fill-opacity:1;fill-rule:nonzero;stroke:none" transform="matrix(1.00546 0 0 -1.00546 -448.186 715.513)"/><path d="m529.784 620.36.688-.688.344-.69.69-1.032.344-.69.688-1.03.345-1.034.689-1.031.343-1.034.345-.688.343-.688.346-1.034.343-.69.344-1.03.343-1.034.346-.688.343-1.033V605.215l-.343-.688h-.346l-.688-.346h-.343l-.689.346-.688 1.032v.344l-.344.687v.689l-.345.688-.345.689-.343.688v.345l-.345.343-.688-.343-.689-.688-.345-.345-.343-.69-.346-.687-.343-.69v-.343l-.345-.687-.343-.69-.689-.342h-1.032l-.344.343-.345.689v.687l.345 1.033.344.688.345.689.688 1.033.343.689.689.688.688.689.689.343.344.689v.689l-.345.689-.343.688-.346.688-.343.689-.345.688-.343.689-.689.688V619.672l.344.343.346.345H529.784" style="fill:none;stroke:#fff;stroke-width:.75;stroke-linecap:square;stroke-linejoin:miter;stroke-miterlimit:10;stroke-dasharray:none;stroke-opacity:1" transform="matrix(1.00546 0 0 -1.00546 -448.186 715.513)"/><path d="m545.62 618.295.688.344h1.034l.688-.344h1.031l.69-.688.688-.346.688-.688.346-1.032v-1.033l.343-1.377-.343-1.722v-1.72l-.689-1.376-.688-1.377-1.035-1.033-1.03-1.032-1.033-.345h-1.034l-1.032.345-1.034.344-.689.688-.689.687-.688 1.377-.343 1.034v1.72l.343 1.722.345 1.376.343 1.377.69 1.034.688 1.03 1.034.69z" style="fill:#fff;fill-opacity:1;fill-rule:nonzero;stroke:none" transform="matrix(1.00546 0 0 -1.00546 -448.186 715.513)"/><path d="m545.62 618.295.688.344h1.034l.688-.344h1.031l.69-.688.688-.346.688-.688.346-1.032v-1.033l.343-1.377-.343-1.722v-1.72l-.689-1.376-.688-1.377-1.035-1.033-1.03-1.032-1.033-.345h-1.034l-1.032.345-1.034.344-.689.688-.689.687-.688 1.377-.343 1.034v1.72l.343 1.722.345 1.376.343 1.377.69 1.034.688 1.03 1.034.69.688.345" style="fill:none;stroke:#fff;stroke-width:.75;stroke-linecap:square;stroke-linejoin:miter;stroke-miterlimit:10;stroke-dasharray:none;stroke-opacity:1" transform="matrix(1.00546 0 0 -1.00546 -448.186 715.513)"/><path d="M546.308 615.54H548.031l.343-.343.345-.344.344-.688v-3.099l-.344-.344v-.69l-.345-.687v-.688l-.343-.345-.345-.344h-.344l-.688-.344h-.689l-.345.344-.689.344v.345l-.344.688-.344 1.032v1.033l.344 1.033.344.688.344 1.034.345.688z" style="fill:#231f20;fill-opacity:1;fill-rule:nonzero;stroke:none" transform="matrix(1.00546 0 0 -1.00546 -448.186 715.513)"/><path d="M546.308 615.54H548.031l.343-.343.345-.344.344-.688v-3.099l-.344-.344v-.69l-.345-.687v-.688l-.343-.345-.345-.344h-.344l-.688-.344h-.689l-.345.344-.689.344v.345l-.344.688-.344 1.032v1.033l.344 1.033.344.688.344 1.034.345.688.688.688" style="fill:none;stroke:#231f20;stroke-width:.75;stroke-linecap:square;stroke-linejoin:miter;stroke-miterlimit:10;stroke-dasharray:none;stroke-opacity:1" transform="matrix(1.00546 0 0 -1.00546 -448.186 715.513)"/><path d="m576.604 618.295.689.344h.688l1.034-.344h.688l1.032-.688.689-.346.345-.688.688-1.032v-4.132l-.344-1.72-.345-1.376-.689-1.377-1.033-1.033-1.032-1.032-1.034-.345h-1.033l-1.03.345-1.035.344-.688.688-.688.687-.689 1.377-.344 1.034v3.442l.687 1.376.346 1.377.688 1.034.688 1.03 1.034.69z" style="fill:#fff;fill-opacity:1;fill-rule:nonzero;stroke:none" transform="matrix(1.00546 0 0 -1.00546 -448.186 715.513)"/><path d="m576.604 618.295.689.344h.688l1.034-.344h.688l1.032-.688.689-.346.345-.688.688-1.032v-4.132l-.344-1.72-.345-1.376-.689-1.377-1.033-1.033-1.032-1.032-1.034-.345h-1.033l-1.03.345-1.035.344-.688.688-.688.687-.689 1.377-.344 1.034v3.442l.687 1.376.346 1.377.688 1.034.688 1.03 1.034.69.687.345" style="fill:none;stroke:#fff;stroke-width:.75;stroke-linecap:square;stroke-linejoin:miter;stroke-miterlimit:10;stroke-dasharray:none;stroke-opacity:1" transform="matrix(1.00546 0 0 -1.00546 -448.186 715.513)"/><path d="M577.293 615.54h1.722l.343-.343.345-.344.344-.688v-3.099l-.344-.344v-.69l-.345-.687v-.688l-.343-.345-.345-.344h-.345l-.688-.344h-.689l-.688.344-.343.344-.346.345-.343.688v2.065l.343 1.033.346.688.343 1.034.344.688z" style="fill:#231f20;fill-opacity:1;fill-rule:nonzero;stroke:none" transform="matrix(1.00546 0 0 -1.00546 -448.186 715.513)"/><path d="M577.293 615.54h1.722l.343-.343.345-.344.344-.688v-3.099l-.344-.344v-.69l-.345-.687v-.688l-.343-.345-.345-.344h-.345l-.688-.344h-.689l-.688.344-.343.344-.346.345-.343.688v2.065l.343 1.033.346.688.343 1.034.344.688.689.688" style="fill:none;stroke:#231f20;stroke-width:.75;stroke-linecap:square;stroke-linejoin:miter;stroke-miterlimit:10;stroke-dasharray:none;stroke-opacity:1" transform="matrix(1.00546 0 0 -1.00546 -448.186 715.513)"/><path d="m557.326 614.508-.344-.343-.344.343h-.346l-.344.345h-.346v1.031l.346.689h.69l.687.345.688.343h2.755l.688-.343h.344l.69-.345.343-.343.344-.346.69-.343v-.688l.343-.688v-1.033l.688.344.345.344.344.345.345.688v1.031l.343.689V617.95l.345.688h1.032l.345-.343.344-.345.344-.343v-2.066l-.343-1.033-.344-1.032-.346-.69-.343-1.031-.345-.69-.689-.687-.688-.69-.344-.687-.345-.688-.343-1.034-.345-1.033v-1.031l-.343-.688v-1.034l-.346-.69-.344-.687-.344-.343h-.344l-.345-.345-.688.345-.344.343V603.493l.344 1.034v1.03l.344 1.379.344 1.03.345 1.035v2.754l-.345.688v.689l-.688.688-.344.688-.688.345h-2.066z" style="fill:#fff;fill-opacity:1;fill-rule:nonzero;stroke:none" transform="matrix(1.00546 0 0 -1.00546 -448.186 715.513)"/><path d="m557.326 614.508-.344-.343-.344.343h-.346l-.344.345h-.346v1.031l.346.689h.69l.687.345.688.343h2.755l.688-.343h.344l.69-.345.343-.343.344-.346.69-.343v-.688l.343-.688v-1.033l.688.344.345.344.344.345.345.688v1.031l.343.689V617.95l.345.688h1.032l.345-.343.344-.345.344-.343v-2.066l-.343-1.033-.344-1.032-.346-.69-.343-1.031-.345-.69-.689-.687-.688-.69-.344-.687-.345-.688-.343-1.034-.345-1.033v-1.031l-.343-.688v-1.034l-.346-.69-.344-.687-.344-.343h-.344l-.345-.345-.688.345-.344.343V603.493l.344 1.034v1.03l.344 1.379.344 1.03.345 1.035v2.754l-.345.688v.689l-.688.688-.344.688-.688.345h-2.066l-1.033-.345" style="fill:none;stroke:#fff;stroke-width:.75;stroke-linecap:square;stroke-linejoin:miter;stroke-miterlimit:10;stroke-dasharray:none;stroke-opacity:1" transform="matrix(1.00546 0 0 -1.00546 -448.186 715.513)"/><path d="m595.538 615.54.345-.343h1.721l.345.344V616.918l-.688.688-.69.689-.687.344-1.033.688h-1.034l-.688.344h-2.066l-1.033-.344-.688-.688-.688-.344-.688-.69-.346-1.031v-.69l-.343-.687.343-1.032.346-1.034.343-.688.69-.344.688-.69.688-.343.688-.69.344-.687.345-.688v-.69l-.345-.343-.344-.688-.344-.344h-.344l-.688-.346H587.619l-.342-.343v-1.032l.343-.344.689-.345H591.063l.689.345.688.344.689.344.345.344.688.344.344.689v1.032l.345.689-.345.688v.688l-.344.689-.688.688-.69.689-1.032.689-.69.688-.343.343-.344.69v1.376l.344.689.688.688H593.474l.688-.344h.344l.688-.69z" style="fill:#fff;fill-opacity:1;fill-rule:nonzero;stroke:none" transform="matrix(1.00546 0 0 -1.00546 -448.186 715.513)"/><path d="m595.538 615.54.345-.343h1.721l.345.344V616.918l-.688.688-.69.689-.687.344-1.033.688h-1.034l-.688.344h-2.066l-1.033-.344-.688-.688-.688-.344-.688-.69-.346-1.031v-.69l-.343-.687.343-1.032.346-1.034.343-.688.69-.344.688-.69.688-.343.688-.69.344-.687.345-.688v-.69l-.345-.343-.344-.688-.344-.344h-.344l-.688-.346H587.619l-.342-.343v-1.032l.343-.344.689-.345H591.063l.689.345.688.344.689.344.345.344.688.344.344.689v1.032l.345.689-.345.688v.688l-.344.689-.688.688-.69.689-1.032.689-.69.688-.343.343-.344.69v1.376l.344.689.688.688H593.474l.688-.344h.344l.688-.69.345-.687" style="fill:none;stroke:#fff;stroke-width:.75;stroke-linecap:square;stroke-linejoin:miter;stroke-miterlimit:10;stroke-dasharray:none;stroke-opacity:1" transform="matrix(1.00546 0 0 -1.00546 -448.186 715.513)"/></svg>