<svg xmlns="http://www.w3.org/2000/svg" width="201.04518mm" height="198.16119mm" viewBox="0 0 201.04518 198.16119"><path d="m0 0-.259.351h-11.65v3.287h-5.529V.351h-11.323L-29.022 0v-8.812l.261-.349h2.472l.326.349v5.176h5.465v-5.176l.391-.349h2.342l.327.349v5.176h5.855v-5.176l.326-.349h2.474l.259.349v5.176h5.465v-5.176l.39-.349h2.41L0-8.812Z" style="fill:#2e3092;fill-opacity:1;fill-rule:evenodd;stroke:none" transform="matrix(2.21897 0 0 -2.21897 132.442 73.254)"/><path d="M0 0v1.118h5.855v2.657H0v.63h5.855v2.658h-8.914v-9.232h8.914V0Z" style="fill:#2e3092;fill-opacity:1;fill-rule:evenodd;stroke:none" transform="matrix(2.21897 0 0 -2.21897 74.831 111.737)"/><path d="M0 0v1.118h-5.724v2.657H0v.63h-5.724v2.658h8.783v-9.232h-8.783V0Z" style="fill:#2e3092;fill-opacity:1;fill-rule:evenodd;stroke:none" transform="matrix(2.21897 0 0 -2.21897 125.654 111.737)"/><path d="m0 0-.326-.42L-1.368.7l-.845-1.399-.456.279 1.042 1.538-1.042.631.326.488.975-.768 1.042.768L0 1.818-.978.91Zm2.733 5.524H.716l-2.084-1.538-2.34 1.538h-1.759V3.986l1.759-1.398L-5.467.7l1.433-1.468-1.433-1.401 1.759-1.889 2.34 1.889L.716-4.058l2.017 1.889L1.104-.768 2.733.7.716 2.588l2.017 1.398Z" style="fill:#2e3092;fill-opacity:1;fill-rule:evenodd;stroke:none" transform="matrix(2.21897 0 0 -2.21897 103.565 108.324)"/><path d="M0 0v.698h-2.798v2.658h9.954V.698H4.425V0h4.813v3.356h2.801v-6.293H4.425v-4.127h-7.223v3.007H0v1.12h-7.484v6.293h2.669V0Z" style="fill:#2e3092;fill-opacity:1;fill-rule:evenodd;stroke:none" transform="matrix(2.21897 0 0 -2.21897 95.336 134.549)"/><path d="M124.965 206.835H76.349v4.335h48.616z" style="fill:#2e3092;fill-opacity:1;fill-rule:evenodd;stroke:none;stroke-width:1.67514" transform="matrix(1.32465 0 0 1.32465 -33.092 -154.952)"/><path d="M0 0v-7.342h3.059V0h22.904v-7.342h3.059V0Z" style="fill:#2e3092;fill-opacity:1;fill-rule:evenodd;stroke:none" transform="matrix(2.21897 0 0 -2.21897 68.043 124.774)"/><path d="m0 0 1.903-3.268L0-6.535l-1.908 3.267Z" style="fill:#2e3092;fill-opacity:1;fill-rule:evenodd;stroke:none" transform="matrix(2.21897 0 0 -2.21897 100.43 40.076)"/><path d="m0 0 1.903-3.268L0-6.535l-1.908 3.267Z" style="fill:none;stroke:#231f20;stroke-width:.216;stroke-linecap:butt;stroke-linejoin:miter;stroke-miterlimit:22.926;stroke-dasharray:none;stroke-opacity:1" transform="matrix(2.21897 0 0 -2.21897 100.43 40.076)"/><path d="M0 0v41.53h.002c.002.832.322 1.591.832 2.138.523.561 1.25.912 2.058.914v.003H12.496l.003 2.371v.412l.341.232 7.274 4.935.44.298.435-.298 7.234-4.966.333-.229.007-.405.031-2.35h9.7v-.003a2.813 2.813 0 0 0 2.064-.917 3.131 3.131 0 0 0 .828-2.13h.004V0h-1.562V41.535h.005c0 .417-.159.796-.415 1.07-.241.26-.572.423-.924.423v-.003H27.061l-.012.77-.035 2.717-6.467 4.44-6.493-4.408-.003-2.738v-.781H2.892v.003a1.267 1.267 0 0 1-.919-.421 1.573 1.573 0 0 1-.415-1.077h.002V0Z" style="fill:#2e3092;fill-opacity:1;fill-rule:nonzero;stroke:none" transform="matrix(2.21897 0 0 -2.21897 54.823 150.101)"/><path d="M0 0V38.785h.002c0 .747.288 1.43.75 1.924a2.54 2.54 0 0 0 1.859.827l.002.002h30.752v-.002a2.543 2.543 0 0 0 1.867-.83c.46-.492.746-1.173.746-1.918h.004V0h-1.56V38.788h.003c0 .334-.128.638-.333.858a1 1 0 0 1-.727.336v-.003H2.613v.003a1.006 1.006 0 0 1-.723-.334 1.268 1.268 0 0 1-.332-.863h.002V0Z" style="fill:#2e3092;fill-opacity:1;fill-rule:nonzero;stroke:none" transform="matrix(2.21897 0 0 -2.21897 60.6 150.101)"/><path d="m0 0 1.466-.306L.442.946Zm-2.45-1.143.699 1.492.713-.141.757 1.613-.5.603.676 1.445L3.341-.484l-.69-1.47zM-.006 4.2l1.352 4.463 4.579-1.79L4.592 2.49l-1.187.465.859 2.824-.584.229-.739-2.438-1.008.396.738 2.438-.609.237-.881-2.906Zm4.793 6.038a.43.43 0 0 1 .283.032c.085.04.147.111.185.209a.765.765 0 0 1 .04.134c.014.054.025.125.038.219l.132.935-.933.167-.129-.928a5 5 0 0 1-.031-.268.525.525 0 0 1 .158-.388.56.56 0 0 1 .257-.112M1.384 9.064l.236 1.692c.101.015.179.022.237.017.053-.003.181-.017.384-.044.399-.056.682-.031.847.072.165.097.273.312.317.644l.096.676-1.649.295.226 1.627 4.782-.859-.366-2.611a5.67 5.67 0 0 0-.174-.821 2.483 2.483 0 0 0-.248-.587 1.511 1.511 0 0 0-.576-.54 1.219 1.219 0 0 0-.747-.083c-.277.05-.505.17-.686.357-.173.188-.296.445-.37.768-.136-.281-.33-.467-.582-.554-.252-.089-.605-.093-1.056-.019-.189.028-.328.04-.412.033a.673.673 0 0 1-.259-.063m3.199 7.133c.4.017.719.131.954.343.236.219.347.494.338.83a.994.994 0 0 1-.388.792c-.25.198-.567.29-.959.275-.411-.017-.736-.131-.978-.344a1.023 1.023 0 0 1-.337-.829c.012-.34.139-.607.389-.801.252-.192.578-.281.981-.266m.052-1.67c-.765-.031-1.388.197-1.868.683-.473.493-.723 1.159-.75 1.999-.011.366.023.707.101 1.017.078.305.201.586.372.838.23.334.513.586.842.759.328.173.718.268 1.167.286.743.029 1.35-.205 1.821-.704.477-.491.727-1.154.752-1.988.026-.846-.183-1.53-.628-2.052-.444-.53-1.046-.809-1.809-.838m-2.486 5.918-.377 2.023 1.624 1.782-.555.379-1.41-.34-.302 1.61 4.733 1.142.304-1.611-1.527-.367 1.823-1.228.384-2.047-2.264 1.592ZM.877 26.572l-.426 1.489 1.332.491.426-1.489zM.27 28.765l-1.758 4.277 4.389 2.322 1.727-4.203-1.138-.602-1.114 2.71-.56-.297.96-2.336-.966-.511-.96 2.336-.584-.309 1.142-2.785Zm-1.892 4.64-.549.922.348.384c-.297.066-.54.17-.734.312-.194.145-.375.364-.547.655-.368.619-.482 1.27-.341 1.956.143.684.507 1.251 1.091 1.699.312.24.638.407.979.502.337.099.672.122.996.064.323-.054.613-.177.875-.363.252-.191.477-.454.678-.791.344-.578.495-1.141.457-1.685-.038-.555-.263-1.056-.68-1.505l-.788 1.324a.904.904 0 0 1 .181.536c.004.189-.047.375-.154.556-.165.277-.391.42-.674.428-.288.011-.6-.114-.944-.374-.348-.268-.571-.562-.663-.886a1.14 1.14 0 0 1 .123-.947c.072-.118.161-.223.268-.315a.853.853 0 0 1 .31-.169.416.416 0 0 1 .149-.015c.047.01.108.026.179.049l-.348.587.884.679 1.131-1.901zM-4.5 38.186l-2.783 3.506 3.597 3.677 2.733-3.447-.932-.952-1.761 2.222-.46-.468 1.52-1.916-.792-.811-1.522 1.915-.48-.49 1.812-2.282zm-2.993 3.794-2.769 2.637 3.113 4.208 1.111-1.058-2.305-3.118 1.655-1.577zm-2.972 2.927-2.997 2.293 2.709 4.554 1.2-.921-2.004-3.372 1.795-1.373zm-3.408 5.803c.183.406.25.779.199 1.114-.054.341-.21.585-.473.738a.76.76 0 0 1-.801 0c-.273-.151-.498-.424-.677-.82-.187-.416-.254-.795-.209-1.137.051-.336.208-.583.478-.736a.754.754 0 0 1 .803-.004c.272.157.497.44.68.845m1.314-.759c-.348-.773-.825-1.28-1.432-1.521-.612-.232-1.243-.158-1.904.223a3.036 3.036 0 0 0-.736.593 2.63 2.63 0 0 0-.466.777 2.914 2.914 0 0 0-.176 1.202c.026.41.142.844.348 1.299.337.753.812 1.242 1.424 1.467.608.233 1.24.161 1.896-.219.663-.383 1.089-.922 1.279-1.616.189-.697.114-1.432-.233-2.205m-5.163 2.219c-.281-.601-.67-1.005-1.165-1.212-.502-.212-1.035-.195-1.6.052a2.49 2.49 0 0 0-1.388 1.478c-.258.69-.254 1.429.014 2.22.257.763.683 1.307 1.274 1.631.585.322 1.196.343 1.832.065.375-.162.69-.404.946-.72a2.533 2.533 0 0 0 .578-1.628 3.27 3.27 0 0 0-.101-.592l-1.327.579c.055.253.035.472-.051.657a.848.848 0 0 1-.449.417.736.736 0 0 1-.341.069.696.696 0 0 1-.313-.119 1.611 1.611 0 0 1-.404-.407 2.662 2.662 0 0 1-.29-.606c-.143-.426-.174-.797-.096-1.115a.897.897 0 0 1 .534-.655c.207-.09.395-.096.562-.015.17.085.305.251.415.497zm-8.16.876-1.433.258.297 2.14-1.455.261-.299-2.14-1.431.258.755 5.427 1.435-.258-.261-1.88 1.452-.261.263 1.878 1.435-.257zm-4.466 4.943-1.376.082-.188-4.063-1.45.085.187 4.064-1.39.083.067 1.424 4.217-.251zm-4.726-3.892-3.613-.071-.084 5.493 1.45.028.065-4.068 2.16.043zm-6.214 1.471-.668 1.514-.265-1.682zm2.278-1.534-1.47-.265-.329.733-1.59-.286-.123-.814-1.426-.256.99 5.741 1.449.259zm-5.288-.969-3.999-1.3-1.332 5.281 3.927 1.277.346-1.368-2.533-.824.17-.674 2.184.711.293-1.165-2.183-.71.176-.705 2.603.849zm-4.254-1.485-1.354-.591-.683 2.023-1.377-.598.683-2.023-1.354-.592-1.734 5.129 1.354.592.6-1.778 1.377.601-.602 1.775 1.356.591zm-7-3.531-.812-.622-.339.396a2.667 2.667 0 0 0-.272-.835 2.31 2.31 0 0 0-.578-.621c-.545-.417-1.12-.546-1.723-.386-.602.161-1.102.574-1.497 1.239a3.648 3.648 0 0 0-.442 1.112 3.13 3.13 0 0 0-.058 1.128c.049.37.156.7.319.991.17.288.402.547.699.773.508.389 1.004.564 1.484.52.488-.043.93-.301 1.327-.773l-1.167-.894a.709.709 0 0 1-.473.207.76.76 0 0 1-.489-.178.94.94 0 0 1-.379-.766c-.009-.326.1-.681.33-1.069.237-.396.496-.647.781-.753.286-.111.567-.064.835.143.105.079.196.179.277.3.075.118.125.235.149.353a.733.733 0 0 1 .014.169c-.01.053-.025.121-.045.205l-.518-.396-.596 1.004 1.674 1.281zm-4.166-3.287-1.095-1.118-2.765.987 1.669-2.106-1.078-1.104-3.238 4.084 1.089 1.114 2.79-1.007-1.692 2.13 1.08 1.102zm-6.19-4.062-1.379.646.772-1.468zm2.607.538-.958-1.293-.674.308-1.035-1.401.379-.705-.926-1.256-2.572 5.07.943 1.276zm-7.518-1.863 1.729-3.532 1.507-1.028-.75-1.412-1.506 1.027-3.546.095.83 1.568 2.039-.239-1.142 1.932zm.308-11.081-.255-1.075-.482.045c.15-.294.242-.574.275-.833.029-.26.004-.559-.076-.899-.172-.72-.531-1.246-1.078-1.574-.546-.328-1.163-.388-1.845-.181-.364.112-.69.282-.978.512a2.684 2.684 0 0 0-.694.807 2.715 2.715 0 0 0-.332.987 3.28 3.28 0 0 0 .08 1.103c.159.674.431 1.174.821 1.499.393.329.875.463 1.447.403l-.364-1.544a.694.694 0 0 1-.476-.196.972.972 0 0 1-.265-.498c-.078-.325-.025-.61.156-.859.181-.253.469-.441.868-.561.404-.124.748-.119 1.024.012.282.131.462.374.547.727.031.14.042.284.034.435a1.04 1.04 0 0 1-.09.376.507.507 0 0 1-.087.138 1.61 1.61 0 0 1-.154.123l-.16-.684-1.031.313.522 2.213zm-1.377-5.606-.127-1.666-2.615-1.418 2.487-.248-.127-1.64-4.822.478.128 1.657 2.646 1.424-2.517.25.127 1.641zm-1.973-7.759-1.396-.594 1.448-.476zm1.585 2.412.078-1.686-.678-.296.084-1.828.701-.22.076-1.636-4.927 1.719-.076 1.662zm-4.269-7.529 5.019-.034.377-1.592-2.848-1.53 3.131.328.377-1.597-4.32-2.928-.37 1.561 2.637 1.622-2.972-.2-.33 1.4 2.657 1.542-2.997-.11zm6.737-6.183.459-.983-.381-.343c.288-.098.522-.232.703-.395.176-.167.337-.408.484-.717.308-.66.361-1.32.156-1.985-.203-.665-.618-1.183-1.24-1.562a2.78 2.78 0 0 0-1.02-.379 2.137 2.137 0 0 0-1.83.517 2.845 2.845 0 0 0-.605.866c-.29.616-.388 1.194-.299 1.732.087.544.36 1.017.815 1.414l.66-1.41a.875.875 0 0 1-.23-.509 1.064 1.064 0 0 1 .105-.573c.138-.297.35-.464.632-.507.285-.044.607.043.97.262.373.224.618.49.743.802.125.311.114.632-.038.955-.06.128-.136.244-.234.344a.863.863 0 0 1-.294.208.385.385 0 0 1-.148.031 1.892 1.892 0 0 1-.183-.027l.292-.627-.943-.569-.946 2.022z" style="fill:#2e3092;fill-opacity:1;fill-rule:evenodd;stroke:none" transform="matrix(2.21897 0 0 -2.21897 178.18 139.847)"/><path d="M0 0a44.514 44.514 0 0 1 10.606 7.71c8.196 8.038 13.297 19.23 13.297 31.575v.005h.002c-.002 12.185-4.973 23.251-12.991 31.269-8.02 8.017-19.081 12.988-31.265 12.989v-.001h-.011v.001c-12.186 0-23.251-4.973-31.271-12.992-8.015-8.016-12.987-19.079-12.99-31.263h.003v-.015h-.003a43.986 43.986 0 0 1 6.63-23.247A44.702 44.702 0 0 1-41.003.154l4.666 9.14a34.865 34.865 0 0 0-8.106 5.878c-6.474 6.29-10.506 15.08-10.506 24.782v.005c.002 9.526 3.887 18.174 10.151 24.437 6.263 6.263 14.908 10.147 24.432 10.148v.002h.011v-.002c9.526 0 18.175-3.886 24.438-10.15 6.262-6.262 10.147-14.908 10.147-24.432h.002v-.014h-.002a34.316 34.316 0 0 0-5.262-18.296A34.918 34.918 0 0 0-4.412 9.278Zm.159-1.084L.034-1.16l-.492-.292-.245.515-4.86 10.227-.216.455.453.23A33.903 33.903 0 0 1 8.091 22.203a34.215 34.215 0 0 1 1.741 3.14 33.26 33.26 0 0 1 3.362 14.605v.014c0 9.234-3.771 17.62-9.844 23.697-6.081 6.078-14.467 9.85-23.705 9.85v-.003h-.011v.003c-9.234-.002-17.62-3.771-23.696-9.848-6.081-6.078-9.85-14.466-9.852-23.702h.002v-.005c0-9.412 3.912-17.938 10.191-24.037a33.716 33.716 0 0 1 8.31-5.931v-.003l.005-.002.468-.234-.236-.464-5.139-10.068-.237-.464-.466.238a45.716 45.716 0 0 0-17.859 16.495 44.985 44.985 0 0 0-6.783 23.794h-.002v.015h.002c.002 12.472 5.088 23.796 13.291 31.999 8.202 8.204 19.527 13.291 32.005 13.292v.002h.011v-.002c12.472-.002 23.796-5.087 31.999-13.289 8.205-8.204 13.29-19.53 13.293-32.005h.002v-.005c0-12.633-5.219-24.087-13.612-32.316a45.53 45.53 0 0 0-5.239-4.418A45.133 45.133 0 0 0 .226-1.046v-.003z" style="fill:#2e3092;fill-opacity:1;fill-rule:nonzero;stroke:none" transform="matrix(2.21897 0 0 -2.21897 145.697 187.694)"/><path d="m0 0-.007.003A31.412 31.412 0 0 0-4.135 2.49a31.865 31.865 0 0 0-3.684 3.067c-5.902 5.721-9.579 13.725-9.579 22.559v.005h.002c0 8.659 3.532 16.522 9.225 22.215 5.692 5.692 13.551 9.222 22.209 9.224v.002h.011v-.002c8.66 0 16.522-3.532 22.214-9.227 5.693-5.691 9.223-13.551 9.225-22.209h.002v-.014h-.002a31.211 31.211 0 0 0-4.796-16.651A31.716 31.716 0 0 0 28.092 0l-.465.929A30.678 30.678 0 0 1 39.815 12.01c.572.91 1.101 1.863 1.581 2.847a30.14 30.14 0 0 1 3.057 13.253h-.003v.014h.003c-.003 8.368-3.417 15.967-8.924 21.474-5.507 5.51-13.11 8.926-21.48 8.926v-.002h-.011v.002c-8.366-.002-15.966-3.416-21.473-8.923-5.51-5.51-8.926-13.111-8.926-21.48h.002v-.005c0-8.544 3.555-16.285 9.263-21.814A30.714 30.714 0 0 1 .458.929h.004z" style="fill:#2e3092;fill-opacity:1;fill-rule:nonzero;stroke:none" transform="matrix(2.21897 0 0 -2.21897 69.355 161.426)"/><path d="M0 0c-1.731-.02-3.477-.367-5.226-.979l-6.826-13.556c3.719 1.134 8.564 1.493 12.77.868a22.17 22.17 0 0 0 2.812-.599c.5-.142.989-.302 1.452-.481V-.879C3.318-.256 1.658.021 0 0m-6.047.382c1.999.732 4.009 1.149 6.029 1.174A15.265 15.265 0 0 0 6.061.369a.775.775 0 0 0 .481-.719v-15.585a.781.781 0 0 0-1.162-.677l-.011.004c-.685.33-1.449.611-2.267.845a20.84 20.84 0 0 1-2.609.554c-4.697.698-10.209.113-13.808-1.441a.786.786 0 0 0-1.027.408.78.78 0 0 0 .023.66L-6.474 0a.762.762 0 0 0 .427.38z" style="fill:#2e3092;fill-opacity:1;fill-rule:nonzero;stroke:none" transform="matrix(2.21897 0 0 -2.21897 87.736 161.075)"/><path d="M0 0c2.02-.024 4.03-.441 6.029-1.174v-.002a.765.765 0 0 0 .427-.38l7.83-15.554a.769.769 0 0 0 .036-.688.782.782 0 0 0-1.022-.408c-3.602 1.555-9.113 2.14-13.811 1.441a20.872 20.872 0 0 1-2.611-.553 14.011 14.011 0 0 1-2.255-.841.78.78 0 0 0-1.184.669v15.585h.003a.776.776 0 0 0 .48.718A15.244 15.244 0 0 0 0 0m5.206-2.535c-1.747.612-3.492.96-5.224.979A13.543 13.543 0 0 1-5-2.437v-13.866c.466.179.952.339 1.452.482.888.255 1.835.451 2.812.598 4.206.625 9.05.266 12.768-.868z" style="fill:#2e3092;fill-opacity:1;fill-rule:nonzero;stroke:none" transform="matrix(2.21897 0 0 -2.21897 113.349 157.623)"/></svg>