<svg xmlns="http://www.w3.org/2000/svg" width="157.04218mm" height="153.04163mm" viewBox="0 0 157.04218 153.04163"><path d="M0 0s-2.501 12.676 11.304 15.713c0 0 6.15-.798 16.343 7.464 0 0 8.983 9.85 18.146 2.159 9.166-7.692 15.935-8.662 18.971-9.232 3.039-.571 12.42-2.041 11.558-14.415-.378-5.41 1.96-14.622 5.386-19.939 0 0 5.875-9.853-4.124-16.41 0 0-8.811-6.459-11.973-13.797 0 0-.967-6.769-7.203-9.55 0 0-4.376-3.135-11.218-.047 0 0-8.239 1.814-15.444.113-7.204-1.699-13.814-4.654-19.349 6.44 0 0-5.689 12.41-12.657 15.435 0 0-11.482 7.061-3.924 18.471 0 0 4.187 5.822 4.184 17.595" style="fill:#f90;fill-opacity:1;fill-rule:nonzero;stroke:none" transform="matrix(1.74138 0 0 -1.74138 11.771 49.233)"/><path d="M0 0c20.135 0 36.458 16.32 36.458 36.459 0 20.134-16.323 36.457-36.458 36.457-20.132 0-36.453-16.323-36.453-36.457C-36.453 16.32-20.132 0 0 0" style="fill:#fff;fill-opacity:1;fill-rule:nonzero;stroke:none" transform="matrix(1.74138 0 0 -1.74138 79.58 142.535)"/><path d="M0 0c20.135 0 36.458 16.32 36.458 36.459 0 20.134-16.323 36.457-36.458 36.457-20.132 0-36.453-16.323-36.453-36.457C-36.453 16.32-20.132 0 0 0Z" style="fill:none;stroke:#f90;stroke-width:.5;stroke-linecap:butt;stroke-linejoin:miter;stroke-miterlimit:4;stroke-dasharray:none;stroke-opacity:1" transform="matrix(1.74138 0 0 -1.74138 79.58 142.535)"/><path d="M0 0c13.487-3.945 27.619 3.789 31.559 17.277 3.943 13.491-3.791 27.621-17.282 31.564-13.484 3.944-27.615-3.795-31.559-17.28C-21.225 18.07-13.487 3.943 0 0Z" style="fill:none;stroke:#000;stroke-width:.084;stroke-linecap:butt;stroke-linejoin:miter;stroke-miterlimit:4;stroke-dasharray:none;stroke-opacity:1" transform="matrix(1.74138 0 0 -1.74138 66.398 121.724)"/><path d="M0 0c0 6.564 2.558 12.734 7.2 17.376 4.661 4.661 10.863 7.229 17.462 7.229s12.8-2.568 17.46-7.229C46.769 12.734 49.325 6.564 49.325 0c0-13.561-11.064-24.6-24.663-24.6A24.552 24.552 0 0 0 7.2-17.373C2.558-12.73 0-6.555 0 0m24.662-25.822c6.928 0 13.436 2.693 18.33 7.582 4.873 4.877 7.56 11.355 7.56 18.24 0 6.893-2.687 13.371-7.56 18.246-4.894 4.891-11.402 7.587-18.33 7.587-14.274 0-25.89-11.587-25.89-25.833 0-6.885 2.687-13.363 7.561-18.24 4.893-4.889 11.404-7.582 18.329-7.582" style="fill:#f90;fill-opacity:1;fill-rule:nonzero;stroke:none" transform="matrix(1.74138 0 0 -1.74138 35.886 79.206)"/><path d="m0 0 .026.038" style="fill:#000;fill-opacity:1;fill-rule:nonzero;stroke:none" transform="matrix(1.74138 0 0 -1.74138 113.666 32.951)"/><path d="m0 0-.02-.026" style="fill:#000;fill-opacity:1;fill-rule:nonzero;stroke:none" transform="matrix(1.74138 0 0 -1.74138 112.032 31.74)"/><path d="m0 0-1.574 1.586L-3.157.012l1.572-1.584Z" style="fill:#f90;fill-opacity:1;fill-rule:nonzero;stroke:none" transform="matrix(1.74138 0 0 -1.74138 29.258 63.972)"/><path d="m0 0-1.583-1.576L-.009-3.16l1.586 1.576z" style="fill:#f90;fill-opacity:1;fill-rule:nonzero;stroke:none" transform="matrix(1.74138 0 0 -1.74138 131.008 60.983)"/><path d="m0 0 2.836 4.047L4.71 2.734s.235-.716.038-1.164c0 0-.098-.174-.192-.14L2.547 2.834.752.268S.177-.352 0 0" style="fill:#f90;fill-opacity:1;fill-rule:nonzero;stroke:none" transform="matrix(1.74138 0 0 -1.74138 26.109 51.586)"/><path d="m0 0 .364-.258c.131-.133.251.289.251.289C.747.398.552.979.552.979l-.881.669.472.674-.466.323-.472-.67-1.428 1.005-.822-1.171.167-.118s.111.209.251.149L-.44.309" style="fill:#f90;fill-opacity:1;fill-rule:nonzero;stroke:none" transform="matrix(1.74138 0 0 -1.74138 36.184 46.947)"/><path d="M0 0c.054-.277-.257-1.078-.257-1.078L-1.439-2.77l-.679.477-.715.502-.827-1.174.169-.117s.109.209.249.148l1.133-.793-.901-1.287s.251-.261.835.383L-.1-1.672s.629.84.549 1.381" style="fill:#f90;fill-opacity:1;fill-rule:nonzero;stroke:none" transform="matrix(1.74138 0 0 -1.74138 35.402 46.403)"/><path d="M0 0c-.544-.775-1.428-1.094-1.975-.711-.541.381-.543 1.32 0 2.098.541.775 1.429 1.095 1.972.711C.541 1.717.541.777 0 0m.781 3.219c-.698.49-2.054-.244-3.031-1.641-.978-1.392-1.204-2.922-.506-3.408.695-.49 2.055.242 3.034 1.637.975 1.396 1.199 2.922.503 3.412" style="fill:#f90;fill-opacity:1;fill-rule:nonzero;stroke:none" transform="matrix(1.74138 0 0 -1.74138 39.025 53.117)"/><path d="M0 0c.012-.122.197-.052.197-.052.61.279.767.816.767.816l-1.35 5.078-.263.977-1.383-.369.06-.23s.221.087.284-.046l.229-.854-1.256-.334.142-.527 1.291.344.052-.198.166-.619.062-.25-1.285-.343.135-.512 1.291.346.59-2.182z" style="fill:#f90;fill-opacity:1;fill-rule:nonzero;stroke:none" transform="matrix(1.74138 0 0 -1.74138 65.8 33.206)"/><path d="M0 0c-.656-.173-1.388.432-1.631 1.355-.252.923.077 1.815.735 1.989.653.174 1.382-.432 1.631-1.355C.979 1.066.652.176 0 0m1.98 2.322C1.677 3.456.343 4.084-.999 3.724c-1.342-.36-2.184-1.57-1.883-2.703C-2.576-.112-1.245-.739.1-.38c1.342.362 2.186 1.569 1.88 2.702" style="fill:#f90;fill-opacity:1;fill-rule:nonzero;stroke:none" transform="matrix(1.74138 0 0 -1.74138 58.87 30.258)"/><path d="m0 0 .271.383-1.178.82-.126-.18s.212-.109.151-.25L-.964.659" style="fill:#f90;fill-opacity:1;fill-rule:nonzero;stroke:none" transform="matrix(1.74138 0 0 -1.74138 113.572 33.084)"/><path d="m0 0 3.772-2.64-.275-.399L.252-.771S-.357-.27 0 0" style="fill:#f90;fill-opacity:1;fill-rule:nonzero;stroke:none" transform="matrix(1.74138 0 0 -1.74138 109.679 30.21)"/><path d="m0 0-1.92-2.746-.284-.404c-.137-.127.287-.246.287-.246.369-.131.979.019.979.019l.721 1.029.669-.468.318.449-.673.471L1.15-.395-.023.428l-.123-.18S.058.138 0 0" style="fill:#f90;fill-opacity:1;fill-rule:nonzero;stroke:none" transform="matrix(1.74138 0 0 -1.74138 117.324 35.438)"/><path d="m0 0 4.836-3.389-.996-1.425s-.729-.403-1.333.21l1.036 1.481L.066-.689S-.401-.077 0 0" style="fill:#f90;fill-opacity:1;fill-rule:nonzero;stroke:none" transform="matrix(1.74138 0 0 -1.74138 106.33 36.75)"/><path d="M0 0c-.466-.672-1.15-.85-1.611-.527-.455.321-.524 1.022-.055 1.695.473.672 1.154.852 1.615.529C.409 1.375.472.672 0 0m.255 2.063c-.942.662-2.178.521-2.756-.309-.584-.831-.287-2.039.655-2.698.942-.66 2.175-.523 2.756.309.584.83.289 2.037-.655 2.698" style="fill:#f90;fill-opacity:1;fill-rule:nonzero;stroke:none" transform="matrix(1.74138 0 0 -1.74138 112.415 36.125)"/><path d="M0 0c-.02-.119.161-.099.161-.099.655.109.981.589.981.589l-.003 3.979h.79v.564h-.77v1.714H-.274v-.236s.234.028.269-.118v-.606Z" style="fill:#f90;fill-opacity:1;fill-rule:nonzero;stroke:none" transform="matrix(1.74138 0 0 -1.74138 82.186 31.356)"/><path d="M0 0c-.664-.224-.303.183-.303.183C.126.362 2.095 3.058 1.92 3.73H.621s-.415-.116-.635.539h4.948v-.502H2.942s-.037-.698-.163-.971c0 0 2.564-1.258 2.338-2.252 0 0-.226-.82-.845-.388 0 0-.246 1.615-1.708 2.251C2.564 2.407 1.6.535 0 0" style="fill:#f90;fill-opacity:1;fill-rule:nonzero;stroke:none" transform="matrix(1.74138 0 0 -1.74138 72.394 27.549)"/><path d="m0 0 1.356-1.619c.089-.055.244.099.244.099.483.551.363 1.079.363 1.079L.646 1.129l2.43 2.037-.328.391-4.571-3.834-1.259-1.055s.217-.377 1.013.148L-.275.323z" style="fill:#f90;fill-opacity:1;fill-rule:nonzero;stroke:none" transform="matrix(1.74138 0 0 -1.74138 46.226 39.254)"/><path d="M0 0c-.513-.623-.358-.139-.358-.139.317.423.89 3.553.438 3.762l-1.417-1.189s-.52-.442-.881-.132l4.971 4.171.283-.336-2.035-1.711s.229-.342.229-.578c0 0 3.28 1.277 3.5.595 0 0 .146-.591-.606-.845 0 0-1.311.684-2.922-.115 0 0 .034-1.977-1.202-3.483" style="fill:#f90;fill-opacity:1;fill-rule:nonzero;stroke:none" transform="matrix(1.74138 0 0 -1.74138 41.547 40.342)"/><path d="m0 0-1.194-2.554s-.317-.594.261-.866l2.149-1.002s.53-.146.856-.058L.936-6.918s.781-.525 1.25.141l1.508 3.232.461-.217-1.861-3.99s.882-.613 1.449.248l2.521 5.415-1.317.616-.094-.192s.229-.113.126-.328l-.604-1.305-.463.214.733 1.572-1.24.576-.1-.214s.295-.097.192-.313L2.32-3.99s-.56-.08-.8.051l-1.652.77L1.047-.641l1.932-.902.209.488L.163.355-.124.49-.229.261l.077-.037S.037.083 0 0" style="fill:#f90;fill-opacity:1;fill-rule:nonzero;stroke:none" transform="matrix(1.74138 0 0 -1.74138 93.788 22.187)"/><path d="m0 0 3.603-5.141L.177-7.502s-.601-.197-1.073.215c0 0-.177.197-.068.32l3.411 2.391-2.458 3.515S-.609-.121 0 0" style="fill:#f90;fill-opacity:1;fill-rule:nonzero;stroke:none" transform="matrix(1.74138 0 0 -1.74138 125.7 42.866)"/><path d="m0 0 1.113.779-.824 1.172-.191-.137s.157-.173.051-.283L-.626.984-2.289-.178l.678-.953z" style="fill:#f90;fill-opacity:1;fill-rule:nonzero;stroke:none" transform="matrix(1.74138 0 0 -1.74138 124.395 51.913)"/><path d="m0 0 .02.008.421.295L-2.85 5l-.939 1.342s-.584-.113.058-1.02l1.344-1.92z" style="fill:#f90;fill-opacity:1;fill-rule:nonzero;stroke:none" transform="matrix(1.74138 0 0 -1.74138 123.722 58.324)"/><path d="m0 0 1.01.707-.767 1.094-.195-.135s.149-.162.049-.27L-.584.92-2.227-.229l.642-.88z" style="fill:#f90;fill-opacity:1;fill-rule:nonzero;stroke:none" transform="matrix(1.74138 0 0 -1.74138 122.422 49.24)"/><path d="m0 0-.04-.605 1.571-.106.647-.773-2.375-1.45-.052-.779 2.816 1.758 1.697-2.037.057.875L2.287-.762 4.47-.908l.04.605z" style="fill:#f90;fill-opacity:1;fill-rule:nonzero;stroke:none" transform="matrix(1.74138 0 0 -1.74138 22.146 72.42)"/><path d="m0 0-4.384-1.621.063-.643 3.832-.681-3.629-1.412.063-.643 4.616-.742-.066.668-3.748.49L.312-3.195l-.063.646-3.777.67L.066-.66z" style="fill:#f90;fill-opacity:1;fill-rule:nonzero;stroke:none" transform="matrix(1.74138 0 0 -1.74138 29.452 78.873)"/><path d="m0 0 1.757 1.176-2.115.195zm2.323 1.664L2.501.98l-3.967-2.724-.168.652 1.19.797-.446 1.723-1.431.127-.16.627z" style="fill:#f90;fill-opacity:1;fill-rule:nonzero;stroke:none" transform="matrix(1.74138 0 0 -1.74138 27.09 93.75)"/><path d="m0 0 .22-.525L3.606.879 1.102-2.648l.26-.625 4.176 1.734-.221.523L1.94-2.418l2.507 3.5-.272.652Z" style="fill:#f90;fill-opacity:1;fill-rule:nonzero;stroke:none" transform="matrix(1.74138 0 0 -1.74138 25.022 98.123)"/><path d="M0 0c.029-.5-.183-.947-.632-1.332l-.321.527c.238.231.364.477.372.752.009.268-.077.551-.254.846-.215.35-.527.561-.939.641-.412.074-.884-.045-1.416-.366-.458-.281-.773-.607-.939-.978-.169-.373-.118-.779.151-1.229.209-.34.481-.564.822-.668.338-.095.738-.009 1.196.256l-.73 1.205.429.264 1.028-1.693-2.075-1.26-.206.338.426.433c-.3.053-.529.127-.686.213-.267.149-.504.391-.716.744-.272.45-.358.926-.257 1.43.16.578.563 1.065 1.213 1.455.647.395 1.268.533 1.86.416.564-.101 1.005-.42 1.322-.937C-.137.695-.02.348 0 0" style="fill:#f90;fill-opacity:1;fill-rule:nonzero;stroke:none" transform="matrix(1.74138 0 0 -1.74138 37.65 106.33)"/><path d="m0 0-.378.475-2.358-1.881c-.298-.239-.521-.375-.667-.412-.237-.065-.457.033-.661.291-.146.173-.203.351-.171.515.028.166.14.321.334.481l.255.201-.355.445-.255-.201c-.366-.291-.546-.59-.54-.893.005-.3.114-.584.323-.849.367-.455.764-.645 1.196-.572.235.048.501.185.801.423z" style="fill:#f90;fill-opacity:1;fill-rule:nonzero;stroke:none" transform="matrix(1.74138 0 0 -1.74138 41.756 111.439)"/><path d="m0 0-1.943-1.988c-.229-.235-.375-.475-.438-.715-.097-.361.011-.693.32-.996.373-.364.75-.487 1.131-.362.206.065.424.215.65.448l1.943 1.992.44-.436L.332-3.869c-.386-.397-.738-.649-1.056-.764-.578-.197-1.139-.027-1.686.504-.544.533-.724 1.09-.54 1.672.102.32.348.678.735 1.076L-.443.43z" style="fill:#f90;fill-opacity:1;fill-rule:nonzero;stroke:none" transform="matrix(1.74138 0 0 -1.74138 43.256 113.098)"/><path d="m0 0-1.188-3.6L1.62-.986l.555-.336-1.033-3.686 2.644 2.707.575-.355L.996-5.898l-.549.332 1.05 3.752-2.851-2.657-.552.34L-.566.344z" style="fill:#f90;fill-opacity:1;fill-rule:nonzero;stroke:none" transform="matrix(1.74138 0 0 -1.74138 50.153 119.282)"/><path d="M0 0c.366.27.641.641.824 1.109.192.498.218.942.074 1.352-.14.398-.437.689-.89.869-.437.17-.852.162-1.244-.033-.395-.19-.704-.578-.933-1.162-.181-.469-.215-.905-.103-1.321.111-.41.435-.722.967-.927C-.801-.309-.366-.275 0 0m1.542 2.494c.135-.484.089-1.017-.137-1.596C1.159.27.795-.195.312-.49-.252-.83-.881-.869-1.577-.598-2.224-.346-2.65.068-2.853.641c-.172.545-.132 1.127.114 1.763.22.567.552 1 .996 1.297.564.377 1.205.428 1.914.156.745-.293 1.203-.744 1.371-1.363" style="fill:#f90;fill-opacity:1;fill-rule:nonzero;stroke:none" transform="matrix(1.74138 0 0 -1.74138 60.873 131.57)"/><path d="m0 0 .847-.178.484-4.011L3.4-.715l.844-.18-.933-4.423-.561.115.553 2.611c.017.094.054.238.105.451.052.205.1.428.152.664L1.482-4.934l-.598.125-.495 4-.028-.132c-.023-.108-.052-.274-.092-.498-.04-.225-.072-.387-.091-.491l-.553-2.613-.561.121z" style="fill:#f90;fill-opacity:1;fill-rule:nonzero;stroke:none" transform="matrix(1.74138 0 0 -1.74138 65.337 126.655)"/><path d="m0 0 3.336-.191.032.537L.635.504.721 2.02l2.492-.137.029.535-2.49.137.078 1.377 2.695-.159.032.551-3.303.186Z" style="fill:#f90;fill-opacity:1;fill-rule:nonzero;stroke:none" transform="matrix(1.74138 0 0 -1.74138 73.271 136.124)"/><path d="m0 0 .707.057L3.28-3.391 2.967.25l.57.047.386-4.504-.675-.055L.644-.807l.312-3.652-.57-.051Z" style="fill:#f90;fill-opacity:1;fill-rule:nonzero;stroke:none" transform="matrix(1.74138 0 0 -1.74138 80.278 128.58)"/><path d="m0 0 .224-1.797-.344-.064-.418 1.765Z" style="fill:#f90;fill-opacity:1;fill-rule:nonzero;stroke:none" transform="matrix(1.74138 0 0 -1.74138 88.32 127.625)"/><path d="M0 0c.083-.248.194-.436.335-.566.266-.241.632-.299 1.104-.172.209.058.395.142.55.254.301.213.409.478.323.802-.065.239-.183.387-.354.453-.172.061-.421.09-.748.079L.607.832C.214.814-.074.844-.254.906c-.318.11-.524.344-.622.711-.105.391-.062.746.129 1.072.195.323.532.549 1.011.676.443.121.846.112 1.215-.025.37-.135.619-.447.75-.934l-.552-.148c-.092.226-.2.388-.326.492-.232.184-.552.217-.962.109-.329-.095-.546-.23-.652-.418a.748.748 0 0 1-.078-.572c.061-.213.187-.349.387-.402.129-.033.403-.045.827-.033l.624.023c.303.002.546-.029.732-.107.321-.127.536-.393.642-.78.131-.482.057-.877-.229-1.177-.284-.303-.65-.512-1.102-.635-.524-.147-.974-.121-1.348.082-.372.199-.621.533-.744 1.008z" style="fill:#f90;fill-opacity:1;fill-rule:nonzero;stroke:none" transform="matrix(1.74138 0 0 -1.74138 91.4 132.471)"/><path d="m0 0 1.127-2.27c.249-.5.504-.847.773-1.05.487-.366 1.071-.377 1.754-.039.684.338 1.028.808 1.031 1.421.003.334-.121.752-.367 1.25L3.191 1.586l-.555-.279 1.236-2.489c.146-.293.214-.545.209-.763-.009-.399-.249-.717-.716-.948-.389-.189-.738-.181-1.047.032-.206.136-.38.353-.526.646L.555.275z" style="fill:#f90;fill-opacity:1;fill-rule:nonzero;stroke:none" transform="matrix(1.74138 0 0 -1.74138 98.422 124.683)"/><path d="m0 0 .584.4L4.53-1.311 2.447 1.695l.469.326 2.576-3.718-.555-.383L.956-.377l2.089-3.018-.469-.322Z" style="fill:#f90;fill-opacity:1;fill-rule:nonzero;stroke:none" transform="matrix(1.74138 0 0 -1.74138 104.81 121.424)"/><path d="m0 0 .46.396-2.936 3.436-.461-.391Z" style="fill:#f90;fill-opacity:1;fill-rule:nonzero;stroke:none" transform="matrix(1.74138 0 0 -1.74138 116.093 122.89)"/><path d="m0 0 3.674-1.738-1.871 3.603.478.498 2.097-4.336-.452-.472L-.472-.484Z" style="fill:#f90;fill-opacity:1;fill-rule:nonzero;stroke:none" transform="matrix(1.74138 0 0 -1.74138 113.218 114.98)"/><path d="m0 0 1.978 2.695-.436.317L-.074.809l-1.228.898L.174 3.723l-.435.314-1.476-2.012-1.107.817 1.596 2.174-.443.326-1.955-2.67Z" style="fill:#f90;fill-opacity:1;fill-rule:nonzero;stroke:none" transform="matrix(1.74138 0 0 -1.74138 123.802 115.129)"/><path d="M0 0c.132.246.186.469.163.664-.022.197-.166.367-.429.51-.283.148-.529.148-.738.006a1.119 1.119 0 0 1-.312-.393l-.687-1.285 1.354-.721zm-2.762-.777.965 1.808c.16.297.338.522.529.67.367.272.779.291 1.237.045.24-.129.409-.279.506-.463.1-.178.149-.387.146-.615a.88.88 0 0 0 .438.219c.146.029.337-.018.572-.133l.541-.262c.155-.074.275-.123.361-.146.146-.033.257-.022.337.045l.092-.047-.352-.658a.371.371 0 0 0-.16.017c-.06.018-.172.061-.335.131l-.673.332C1.176.295.95.295.767.164.667.092.558-.055.443-.268l-.637-1.195 1.705-.912-.286-.533Z" style="fill:#f90;fill-opacity:1;fill-rule:nonzero;stroke:none" transform="matrix(1.74138 0 0 -1.74138 126.164 103.684)"/><path d="M0 0c.461-.178.878-.17 1.253.021.378.19.659.543.845 1.055.16.438.2.858.117 1.268-.083.402-.361.695-.833.867-.378.135-.715.115-1.01-.074-.169-.11-.335-.289-.501-.539l-.346-.524c-.235-.351-.4-.568-.504-.654-.157-.135-.34-.162-.549-.086a.722.722 0 0 0-.424.395c-.091.189-.08.447.037.773.144.391.358.635.642.721.154.045.352.037.589-.018l.198.539c-.472.174-.873.149-1.197-.076-.326-.223-.566-.549-.721-.979-.171-.462-.18-.869-.029-1.212.152-.344.421-.586.802-.727.355-.127.667-.102.939.094.154.117.343.336.557.666l.332.504c.183.269.347.461.495.564.149.106.341.111.576.026.312-.112.469-.358.469-.723 0-.195-.037-.391-.112-.6C1.459.828 1.202.561.85.479.661.439.443.457.195.535Z" style="fill:#f90;fill-opacity:1;fill-rule:nonzero;stroke:none" transform="matrix(1.74138 0 0 -1.74138 129.533 100.783)"/><path d="m0 0 .154.588-4.369 1.156-.155-.584Z" style="fill:#f90;fill-opacity:1;fill-rule:nonzero;stroke:none" transform="matrix(1.74138 0 0 -1.74138 134.471 94.113)"/><path d="m0 0 .529-.09-.258-1.498 3.927-.676-.106-.613-3.926.676-.258-1.502-.529.094Z" style="fill:#f90;fill-opacity:1;fill-rule:nonzero;stroke:none" transform="matrix(1.74138 0 0 -1.74138 128.462 84.192)"/><path d="m0 0 .028.705 2.224 1.211L.135 3.301l.025.703 2.63-1.809 1.82-.074-.023-.607-1.822.074Z" style="fill:#f90;fill-opacity:1;fill-rule:nonzero;stroke:none" transform="matrix(1.74138 0 0 -1.74138 128.457 84.406)"/><path d="m0 0 9.312 5.49Z" style="fill:#fff;fill-opacity:1;fill-rule:nonzero;stroke:none" transform="matrix(1.74138 0 0 -1.74138 74.845 81.845)"/><path d="m0 0 9.312 5.49Z" style="fill:none;stroke:#fff;stroke-width:.168;stroke-linecap:butt;stroke-linejoin:miter;stroke-miterlimit:4;stroke-dasharray:none;stroke-opacity:1" transform="matrix(1.74138 0 0 -1.74138 74.845 81.845)"/><path d="m0 0-.644 4.257s-6.785 4.588-14.068.66c0 0-8.428 3.842-13.584-.414l-3.93-20.948 2.902-3.469s2.827 4.443 7.163 4.041c0 0-6.236-5.672-7.406-10.088 0 0-.859-4.111 6.324-1.047 7.18 3.074 10.74 6.018 17.064 10.928 0 0 3.683 0 5.77-3.809l2.945 3.198-1.105 7.548S6.007-4.639 7.017-.857c.489 1.841-.801 2.455-2.518 2.271C4.499 1.414 2.006.918 0 0" style="fill:#f90;fill-opacity:1;fill-rule:nonzero;stroke:none" transform="matrix(1.74138 0 0 -1.74138 103.545 63.105)"/><path d="M0 0c0 .002-8.511 5.975-16.855-1.234l3.68 19.648s4.827 4.416 13.258 0c0 0 4.502 4.171 13.501-.084l1.638-10.228.429.552-.612 3.621s3.548.711 1.842-2.699c0 0-1.722-3.806-8.167-9.273C2.272-5.156-2.701-8.291-6.381-9.639c-3.681-1.349-5.343-.365-3.99 2.147 1.349 2.519 3.495 4.91 4.233 5.467 0 0 1.903-.493 2.641-1.536 0 0 .982-1.779 4.052-1.412 0 0 5.338 3.559 9.018 7.182 0 0-5.95.561-9.573-2.209" style="fill:#fff;fill-opacity:1;fill-rule:nonzero;stroke:none" transform="matrix(1.74138 0 0 -1.74138 77.925 87.896)"/><path d="m0 0 3.025 3.111S4.138-.492.609-2.576L.324-.285z" style="fill:#f90;fill-opacity:1;fill-rule:nonzero;stroke:none" transform="matrix(1.74138 0 0 -1.74138 84.194 68.482)"/><path d="M0 0s6.808 1.77 9.201-4.77Z" style="fill:#f90;fill-opacity:1;fill-rule:nonzero;stroke:none" transform="matrix(1.74138 0 0 -1.74138 60.838 72.098)"/><path d="m0 0 9.198-4.766S2.083-7.506 0 0" style="fill:#f90;fill-opacity:1;fill-rule:nonzero;stroke:none" transform="matrix(1.74138 0 0 -1.74138 60.174 73.448)"/><path d="M0 0s-6.808 1.77-9.2-4.77Z" style="fill:#f90;fill-opacity:1;fill-rule:nonzero;stroke:none" transform="matrix(1.74138 0 0 -1.74138 95.018 72.159)"/><path d="m0 0-9.2-4.764S-2.086-7.506 0 0" style="fill:#f90;fill-opacity:1;fill-rule:nonzero;stroke:none" transform="matrix(1.74138 0 0 -1.74138 95.68 73.51)"/><path d="M0 0s-.344 3.42 2.063 4.597V-.021l-2.65-1.52-3.254 3.285S-1.282 2.309 0 0" style="fill:#f90;fill-opacity:1;fill-rule:nonzero;stroke:none" transform="matrix(1.74138 0 0 -1.74138 73.526 65.085)"/><path d="M0 0s.429 3.078-1.98 4.55V-.068L.724-1.627l3.211 3.273S.77 2.053 0 0" style="fill:#f90;fill-opacity:1;fill-rule:nonzero;stroke:none" transform="matrix(1.74138 0 0 -1.74138 81.863 64.935)"/><path d="m0 0-3.177 3.26S-4.267-.268-.739-2.352l.287 1.86z" style="fill:#f90;fill-opacity:1;fill-rule:nonzero;stroke:none" transform="matrix(1.74138 0 0 -1.74138 71.368 68.622)"/><path d="M0 0v.781h.967V.014h1.9s.681-.032.785-.768v-2.531h-.951v2.318h-.738v-2.318H.999v2.318H.014v-2.318h-.967v2.318h-.721v-2.318h-.979v2.531s.092.662.827.754z" style="fill:#f90;fill-opacity:1;fill-rule:nonzero;stroke:none" transform="matrix(1.74138 0 0 -1.74138 76.909 67.935)"/><path d="M0 0s-2.003-2.057-3.437-3.328c0 0 2.393-.817 4.175-2.412z" style="fill:#fff;fill-opacity:1;fill-rule:nonzero;stroke:none" transform="matrix(1.74138 0 0 -1.74138 105.393 79.614)"/></svg>