<svg xmlns="http://www.w3.org/2000/svg" width="190.42596mm" height="190.42377mm" viewBox="0 0 190.42596 190.42377"><path d="M53.559 8.01c0 19.573-15.867 35.439-35.438 35.439-19.574 0-35.44-15.866-35.44-35.44 0-19.571 15.866-35.437 35.44-35.437 19.571 0 35.438 15.866 35.438 35.438" style="fill:#a6a385;fill-opacity:1;fill-rule:nonzero;stroke:none;stroke-width:.0818709" transform="matrix(2.6867 0 0 2.6867 46.53 73.69)"/><path d="M49.194 8.719a.688.688 0 0 1-1.377 0 .688.688 0 0 1 1.377 0M-11.417 8.719a.687.687 0 1 1-1.375-.003.687.687 0 0 1 1.375.003M-12.634 1.026a1.069 1.069 0 0 0-.398.647.69.69 0 0 0 .073.514c.171.27.52.398 1.021.498.476.095.8.073 1.002-.061a.764.764 0 0 0 .292-.488.812.812 0 0 0-.005-.395l-.762-.152-.102.51-.564-.022.257-1.294 1.596.316c.134.384.157.777.077 1.17-.098.502-.334.84-.735 1.041-.362.182-.74.222-1.24.123-.707-.14-1.161-.47-1.38-1a1.4 1.4 0 0 1-.076-.858c.081-.404.283-.744.595-.987l.35.438M-12.221-3.122l1.355.243c.642.115 1.107.26 1.107.26a11.812 11.812 0 0 1-.94-.578l-1.156-.808.286-.695 1.529.292c.32.063.89.21.89.21-.095-.05-.693-.413-.974-.606l-1.092-.75.276-.668 2.862 2.075-.285.693-1.399-.249c-.462-.079-.887-.203-.978-.229 0 0 .421.238.846.523l1.181.798-.296.72-3.489-.56.277-.671M-8.688-10.029l3.45.974-.405.614-.807-.241-.549.837.546.643-.392.6-2.249-2.806zm1.67 1.176s-.361-.103-.677-.221c-.15-.057-.58-.216-.58-.216l.462.496c.17.188.28.313.429.497l.367-.556M-5.695-13.82l1.438.46c.383.123.735.272.96.39-.21-.164-.544-.445-.72-.602l-1.024-.945.448-.474 2.483 2.335-.491.521-1.35-.468c-.443-.154-.934-.332-1.132-.43.222.174.517.445.728.636l1.076.985-.455.482-2.483-2.336.522-.554M.088-17.877a1.08 1.08 0 0 0-.73.209c-.16.12-.265.268-.293.429-.054.313.118.647.419 1.056.289.391.542.594.782.63a.758.758 0 0 0 .543-.162.835.835 0 0 0 .264-.297l-.46-.625-.42.309-.402-.398 1.062-.783.966 1.312a2.194 2.194 0 0 1-.731.916c-.411.303-.815.393-1.245.271-.39-.108-.696-.334-1-.744-.426-.58-.539-1.13-.346-1.67.103-.283.266-.493.526-.685.33-.244.709-.358 1.105-.327l-.04.559M3.418-20.747l1.274 2.432c.206.39.234.476.267.613.107.415-.112.83-.333 1.077l-.446-.165c.106-.177.173-.4.162-.55-.01-.133-.061-.26-.232-.586L2.8-20.424l.618-.323M7.158-22.378l.73 2.12c.066.2.125.309.186.365.123.12.305.145.518.072.283-.097.416-.298.362-.544a2.1 2.1 0 0 0-.09-.29l-.708-2.065.658-.226.745 2.17c.106.306.122.368.124.523.004.283-.19.745-.886.984-.492.169-.905.145-1.183-.077-.165-.13-.242-.247-.348-.56l-.77-2.245.662-.227M15.146-24.16l.17 2.236c.015.21.044.33.088.401.09.147.258.216.483.2.297-.022.477-.183.487-.435a1.842 1.842 0 0 0-.012-.304L16.2-24.24l.694-.052.173 2.289c.023.321.023.388-.014.537-.069.276-.374.672-1.106.727-.52.04-.913-.089-1.126-.372-.126-.168-.17-.301-.195-.63l-.178-2.367.699-.053M21.094-24.15l.503 1.423c.133.38.225.75.267 1.001.004-.266.027-.701.047-.937l.133-1.386.648.068-.362 3.39-.71-.077-.444-1.358c-.144-.446-.3-.945-.338-1.162-.007.28-.044.682-.07.965l-.135 1.45-.66-.07.364-3.389.757.081M26.71-23.118l-.871 3.294-.694-.18.873-3.297.691.183M30.202-21.942l-.183 1.855c-.02.157-.042.356-.091.605.125-.175.318-.402.45-.548l1.199-1.32.663.285-2.45 2.685-.572-.248.295-3.611.689.297M36.484-18.568l-.378.422-.98-.632-.426.664.819.528-.302.47-.813-.523-.493.768 1.083.697-.318.495-1.67-1.076 1.846-2.866 1.632 1.053M39.225-15.698l.18.165c.124.111.215.223.253.297.08.153.043.319-.1.474a.46.46 0 0 1-.328.163c-.126 0-.24-.065-.457-.263l-.17-.156zm-.126-.86-2.3 2.516.496.453.959-1.05c.031.034.045.06.06.095.055.122.019.314-.146.996-.063.267-.086.372-.14.628l.595.546s.27-1.217.29-1.53a.603.603 0 0 0-.01-.2c.319.276.852.193 1.197-.183.405-.441.382-1.006-.063-1.414l-.938-.857M43.6-10.613c-.04-.359-.124-.587-.278-.79-.17-.22-.42-.277-.602-.137-.138.11-.152.236-.04.51l.161.395c.22.536.121.995-.278 1.304-.548.421-1.25.256-1.767-.415a2.433 2.433 0 0 1-.466-1.11l.58-.123c.063.354.145.637.354.908.24.312.493.376.734.19.174-.135.196-.33.078-.623l-.149-.36c-.132-.327-.157-.575-.067-.797a.989.989 0 0 1 .323-.43c.494-.38 1.141-.247 1.582.324.253.33.41.742.421 1.112l-.586.042M46.454-7.444l-2.976 1.661-.349-.624 2.976-1.663.35.626M48.686-2.421l-.572.1-.291-.76-2.651 1.022-.25-.649 2.649-1.022-.3-.78.532-.204.883 2.293M49.623.975l-.827.613a2.933 2.933 0 0 1-.393.255c.104.02.282.053.454.092l1.012.245.16.794-2.182-.667-1.375.279-.143-.702 1.375-.28L49.46.167l.164.808M-10.64 15.393c.13-.255.16-.498.105-.752a.695.695 0 0 0-.274-.44c-.265-.179-.637-.156-1.135-.046-.474.105-.764.255-.893.46a.757.757 0 0 0-.072.562.798.798 0 0 0 .166.36l.757-.166-.114-.51.528-.206.284 1.288-1.589.351a2.194 2.194 0 0 1-.542-1.04c-.11-.497-.029-.902.258-1.246.255-.313.586-.502 1.084-.613.703-.156 1.252-.036 1.668.36.216.209.343.441.413.757.088.402.04.795-.149 1.143l-.494-.262M-9.089 17.913l-1.13.785c-.536.369-.97.595-.97.595.13-.037.6-.167 1.076-.251l1.39-.245.286.694-1.29.872c-.271.18-.779.48-.779.48.103-.033.783-.197 1.12-.26l1.303-.236.274.666-3.492.55-.287-.694 1.168-.81c.381-.269.771-.482.853-.527 0 0-.467.129-.968.225l-1.401.27-.297-.721 2.867-2.064.277.671M-6.214 23.682l-2.343 2.71-.387-.624.563-.632-.527-.85-.815.222-.375-.61 3.494-.845zm-1.772 1.014s.247-.283.487-.52c.115-.11.44-.433.44-.433l-.644.208c-.24.074-.403.121-.634.178l.351.567M-4.144 26.55l-.615 1.38c-.166.366-.353.7-.495.91.185-.191.502-.492.68-.646l1.05-.916.423.497-2.598 2.209-.462-.546.614-1.29c.202-.423.435-.89.555-1.075-.198.2-.502.463-.715.651l-1.097.958-.429-.505 2.597-2.206.492.579M.016 31.115A1.627 1.627 0 0 0-.55 30.11a1.415 1.415 0 0 0-.786-.355c-.568-.07-1.08.165-1.549.712-.333.388-.483.736-.5 1.141-.023.446.155.82.544 1.152.304.26.658.436 1.058.506l1.059-1.236-1.001-.859-.297.481.395.34-.506.587a.796.796 0 0 1-.347-.188c-.168-.143-.265-.317-.281-.494-.02-.241.122-.534.44-.903.33-.386.615-.627.933-.645a.697.697 0 0 1 .484.19c.198.169.317.381.368.663l.552-.088M2.566 32.478l-1.504 2.299c-.241.37-.303.435-.407.53-.309.296-.78.306-1.1.235l-.074-.47c.206.008.433-.045.557-.127.112-.073.2-.18.4-.488l1.545-2.36.583.38M5.055 33.9l-.976 2.017c-.09.19-.126.31-.122.393.004.171.112.315.316.414.27.131.506.082.641-.132.04-.062.063-.106.141-.27l.95-1.964.626.303-.997 2.066c-.142.292-.174.347-.28.46-.198.203-.66.394-1.324.074-.469-.226-.743-.534-.786-.887-.025-.208.003-.346.146-.643l1.034-2.136.631.305M13.682 37.53l-.332 1.997.388.065-.088.528-1.533-.254.087-.529.523.087.207-1.254a2.843 2.843 0 0 1-.627.185l-.107-.375 1.046-.523.436.072M15.88 40.965c.533-.12 1.169-.596 1.33-1.003a.834.834 0 0 1-.4.078c-.597-.021-1.037-.507-1.014-1.13.024-.661.54-1.129 1.226-1.103.73.025 1.153.545 1.124 1.378-.023.657-.302 1.197-.863 1.628-.307.24-.707.456-1.06.566zm1.561-1.982c.016-.412-.158-.662-.45-.673-.28-.01-.47.228-.484.606-.013.353.174.59.474.602.16.005.266-.04.4-.168.038-.116.056-.224.06-.367M21.198 38.854c.238.052.443.119.578.187a.385.385 0 0 1 .224.331c.027.248-.158.442-.451.474-.336.037-.572-.135-.606-.441a.577.577 0 0 1 .255-.551zm.68-.406c.37-.144.588-.458.55-.791-.054-.497-.555-.797-1.213-.725-.698.077-1.13.494-1.072 1.03.017.17.09.331.198.452.1.112.25.21.366.231a.886.886 0 0 0-.485.888c.035.322.21.564.516.707.23.109.463.133.791.097.176-.02.353-.058.505-.115.46-.17.741-.575.692-1.018a.709.709 0 0 0-.272-.503 1.505 1.505 0 0 0-.576-.253zm-.52-.21c-.093-.028-.128-.039-.21-.07-.227-.084-.32-.182-.338-.337-.025-.22.139-.387.408-.416.288-.03.457.078.482.303.03.258-.185.42-.342.52M26.265 38.085c.124.48.096.822-.227.905-.242.063-.464-.031-.637-.701-.124-.48-.096-.821.226-.905.244-.062.465.031.638.701zm-.757-1.166c-.668.173-1 .8-.8 1.564.197.765.757 1.152 1.45.973.67-.173 1-.8.801-1.565-.197-.765-.758-1.151-1.45-.972M34.439 31.93l.897 1.27-.104-1.83.689-.487.022 1.919 2.044.794-.737.522-1.871-.857 1.025 1.454-.573.404-1.966-2.784.574-.405M38.911 28.826a.62.62 0 0 1 .73-.12c.176.093.373.248.622.494.615.612.73 1.01.395 1.349a.68.68 0 0 1-.37.205c-.25.041-.58-.148-.998-.563-.292-.291-.465-.54-.54-.778a.6.6 0 0 1 .161-.587zm-.367-.381c-.181.182-.315.401-.38.619-.155.538.065 1.15.588 1.67.353.352.753.563 1.173.612.424.055.76-.08 1.123-.447.2-.2.304-.367.369-.592.158-.543-.067-1.138-.612-1.681-.758-.753-1.622-.825-2.261-.181M41.923 24.416c.342-.497.899-.594 1.39-.255.42.29.575.807.344 1.16a.643.643 0 0 1 .198-.036c.312-.02 1.555.078 1.555.078l-.459.666c-.261-.018-.37-.028-.643-.055-.696-.069-.892-.08-1.006-.01a.334.334 0 0 0-.085.073l1.17.808-.382.553L41.2 25.46zm.869 1.327.132-.188c.168-.243.215-.365.2-.489a.469.469 0 0 0-.207-.303c-.174-.12-.342-.136-.483-.036a1.232 1.232 0 0 0-.26.292l-.14.202.758.522M44.638 19.478l.47.317-.496 1.056.716.336.413-.884.507.236-.41.876.826.388.547-1.17.533.25-.842 1.798-3.087-1.444.823-1.76M45.96 15.546l3.582-.115-.199.709-.843.014-.27.964.715.45-.191.689-2.992-1.998zm1.947.616s-.375.011-.712-.006c-.159-.009-.617-.03-.617-.03l.59.332c.219.128.362.214.56.346l.18-.642" style="fill:#0f4a2a;fill-opacity:1;fill-rule:nonzero;stroke:none;stroke-width:.0818709" transform="matrix(2.6867 0 0 2.6867 46.53 73.69)"/><path d="M44.025 8.01c0 14.308-11.598 25.905-25.904 25.905-14.308 0-25.906-11.597-25.906-25.905 0-14.306 11.598-25.904 25.906-25.904 14.306 0 25.904 11.598 25.904 25.904" style="fill:#fff;fill-opacity:1;fill-rule:nonzero;stroke:none;stroke-width:.0818709" transform="matrix(2.6867 0 0 2.6867 46.53 73.69)"/><path d="M9.67 3.26s2.433-1.797 4.8-2.298c0 0 .07-.017.095.008.023.023.54.575 1.477-.05.94-.624 1.3-.745 1.573-.682.274.064.85.6.85.6s.23.235.469.235c.237 0 .648-.02.666-.02.018 0 .056-.004.093.008.038.012 1.289.256 1.411.256.122 0 1.224.201 1.653.307 0 0 .136.036.213.196 0 0 .817 1.672 2.968 1.964V-8.69H9.67V3.26" style="fill:#74c0ec;fill-opacity:1;fill-rule:nonzero;stroke:none;stroke-width:.0818709" transform="matrix(2.6867 0 0 2.6867 46.53 73.69)"/><path d="M9.67 4.52s2.31-1.847 5.053-2.502c0 0 .061-.013.082.01.023.022.471.584 1.435-.016.965-.6 1.17-.709 1.41-.729.242-.02.594.18.878.463 0 0 .36.424.749.394.388-.031.48-.027.48-.027s.22-.008.332.023c.114.03 1.173.207 1.173.207s.492.147 1.546.264c0 0 .225.003.361.24 0 0 .925 1.628 2.77 1.962v19.149H9.668V4.52" style="fill:#8ec039;fill-opacity:1;fill-rule:nonzero;stroke:none;stroke-width:.0818709" transform="matrix(2.6867 0 0 2.6867 46.53 73.69)"/><path d="M3.758 16.276h.456v.847a.636.636 0 0 1-.367.114.636.636 0 0 1-.533-.269c-.116-.182-.176-.49-.176-.899 0-.354.021-.565.136-.852.109-.268.296-.38.533-.38.191 0 .347.065.53.225l.166-.26a.938.938 0 0 0-.702-.298.84.84 0 0 0-.625.255c-.283.28-.428.693-.428 1.288 0 .487.09.84.288 1.115.191.268.455.402.786.402.262 0 .532-.086.735-.237v-1.392H3.7l.059.34M7.12 14.544l-.264 1.506c-.052.304-.12.787-.143.957l-.022-.004c-.011-.13-.067-.547-.129-.878l-.284-1.581h-.4l-.29 1.573c-.06.34-.108.69-.137.903h-.02c-.026-.186-.059-.51-.134-.943l-.274-1.533h-.376l.588 2.985h.429l.267-1.516c.054-.307.108-.692.125-.844l.023.005c.018.181.057.493.126.856l.273 1.499h.427l.576-2.985H7.12M8.054 14.54l-.814 2.98h.36l.217-.842h.862l.22.843h.389l-.8-2.982Zm-.15 1.793c.042-.143.306-1.211.343-1.38h.02c.033.175.293 1.242.336 1.38h-.699M10.715 16.005c0 .328.03.797.038.885l-.023.009a6.757 6.757 0 0 0-.245-.714l-.692-1.641h-.405v2.977h.35l-.014-1.564c-.003-.277-.01-.575-.03-.83l.024-.005c.046.174.175.51.301.817l.653 1.582h.37v-2.977h-.334l.007 1.46M12.34 16.276h.46v.847a.65.65 0 0 1-.369.114.64.64 0 0 1-.534-.269c-.115-.182-.177-.49-.177-.899 0-.354.022-.565.137-.852.109-.268.296-.38.535-.38.191 0 .344.065.529.225l.166-.26a.943.943 0 0 0-.703-.298.84.84 0 0 0-.624.255c-.285.28-.429.693-.429 1.288 0 .487.09.84.288 1.115a.918.918 0 0 0 .787.402c.263 0 .533-.086.734-.237v-1.392h-.856l.056.34M13.504 17.024c0 .32-.019.454-.06.557a.756.756 0 0 1-.285.32l.161.23a.903.903 0 0 0 .411-.369c.093-.168.124-.341.124-.768v-2.45h-.35v2.48M15.612 16.527c0 .236-.027.398-.088.493-.079.124-.218.194-.405.194-.2 0-.324-.073-.392-.17-.073-.099-.09-.362-.09-.579v-1.921h-.35v2.077c0 .313.013.395.078.532.127.272.376.415.75.415.383 0 .588-.163.714-.35.112-.163.131-.255.131-.63v-2.044h-.348v1.983M18.486 16.527c0 .236-.028.398-.09.493-.08.124-.217.194-.405.194-.198 0-.324-.073-.392-.17-.073-.099-.09-.362-.09-.579v-1.921h-.35v2.077c0 .313.013.395.079.532.126.272.376.415.75.415.382 0 .588-.163.715-.35.11-.163.129-.255.129-.63v-2.044h-.346v1.983M20.6 16.005c0 .328.031.797.038.885l-.022.009a6.394 6.394 0 0 0-.245-.714l-.693-1.641h-.402v2.977h.348l-.013-1.564a15.543 15.543 0 0 0-.03-.83l.022-.005c.046.174.176.51.302.817l.654 1.582h.371v-2.977h-.336l.007 1.46M21.376 17.52h.354v-2.976h-.354v2.977M23.002 16.32c-.042.163-.073.276-.1.397-.028.107-.04.164-.051.225h-.022c-.008-.06-.023-.13-.039-.225a6.673 6.673 0 0 0-.095-.393l-.476-1.78h-.38l.827 2.985h.341l.843-2.985h-.362l-.486 1.776M24.332 16.142h.797v-.35h-.8v-.907h.954l.048-.341h-1.352v2.977h1.392v-.359h-1.04v-1.02M26.644 16.465c-.044-.068-.103-.162-.217-.275.414.017.662-.354.662-.817a.9.9 0 0 0-.218-.614c-.12-.134-.294-.215-.587-.215h-.697v2.977h.345v-1.318c.106.004.16.047.224.133.178.238.239.364.43.744.1.203.133.271.204.44h.423c-.052-.095-.252-.483-.361-.686a6.703 6.703 0 0 0-.208-.369zm-.712-.544v-1.036h.26c.13 0 .23.022.303.055.137.066.231.23.231.437a.621.621 0 0 1-.122.403c-.086.098-.21.141-.43.141h-.242M28.345 15.815l-.292-.104c-.267-.096-.369-.217-.369-.429 0-.276.175-.45.451-.45.207 0 .36.065.592.234l.154-.294a1.176 1.176 0 0 0-.76-.281c-.49 0-.821.351-.821.864 0 .425.212.64.587.77l.26.09c.276.096.41.264.41.507 0 .319-.212.518-.536.518-.248 0-.455-.087-.67-.246l-.138.32c.242.176.515.262.8.262.652 0 .937-.508.937-.925 0-.461-.274-.72-.605-.836M29.199 17.52h.354v-2.976h-.354v2.977M32.714 14.544l-.419 1.02c-.053.134-.1.258-.145.38a4.009 4.009 0 0 0-.135-.385l-.411-1.015H29.76v.345h.646v2.632h.343v-2.632h.58l.635 1.439v1.193h.36v-1.185l.793-1.792h-.404M19.576 7.472v1.312h-.731V7.472h-.923v3.33h-1.738V8.43h1.055v-.815h-1.982v3.26c.002.301.093.811.783.81h1.904v1.214l.898-.001V9.638l.734.002v3.335h.923V7.472h-.923M7.96 7.471h-.927v2.612a2.048 2.048 0 0 0-.793-.256V8.409c.007-.648-.427-.804-.76-.794H2.642v.81h2.68v1.39H4.19v-.88h-.91v.882h-.682v.791h1.8a1.581 1.581 0 0 0-.277.844c-.05.991.828 1.798 1.905 1.798.974 0 1.955-.682 1.928-2.075l.003-1.538h.728v-.854H7.96Zm-1.938 4.903c-.55.003-1.065-.425-1.06-.881.005-.537.503-.907 1.055-.896.604.01 1.013.437 1.016.896.003.481-.462.879-1.01.881M26.607 7.463h-.921v3.518h-3.859v.85h3.86l.003 1.257h.918l-.001-3.451h.725v-.853h-.725V7.463" style="fill:#231f20;fill-opacity:1;fill-rule:nonzero;stroke:none;stroke-width:.0818709" transform="matrix(2.6867 0 0 2.6867 46.53 73.69)"/><path d="M25.13 7.57h-1.48v-.408h-.91v.407h-1.48v.78h.482c-.204.227-.35.508-.35.791 0 .878.81 1.595 1.8 1.598h.005c.992-.003 1.8-.72 1.8-1.598 0-.283-.143-.564-.348-.792h.481zM23.2 9.947c-.495 0-.898-.356-.898-.792 0-.435.403-.79.897-.792.493.002.895.357.895.792 0 .436-.402.792-.895.792M31.815 11.205h1.035V8.54c-.015-.468-.108-.916-.941-.924h-4.135v.947h4.04v2.643" style="fill:#231f20;fill-opacity:1;fill-rule:nonzero;stroke:none;stroke-width:.0818709" transform="matrix(2.6867 0 0 2.6867 46.53 73.69)"/><path d="M31.074 11.742v-2.16l-.952-.001v2.161h-.772v-2.16h-.95v2.16h-.8v.903h5.429v-.903h-1.955M14.45 9.575s-1.25-.203-2.081-1.096h2.021v-.862H9.176v.862h2.023c-.836.893-2.082 1.096-2.082 1.096v.794s1.428-.08 2.666-1.221c1.238 1.142 2.666 1.221 2.666 1.221v-.794M14.45 10.76H9.113v.88h2.17v1.448h.992V11.64h2.173v-.88" style="fill:#231f20;fill-opacity:1;fill-rule:nonzero;stroke:none;stroke-width:.0818709" transform="matrix(2.6867 0 0 2.6867 46.53 73.69)"/></svg>