<svg xmlns="http://www.w3.org/2000/svg" xml:space="preserve" width="508.53067" height="633.42865" viewBox="0 0 508.53067 633.42865"><path d="m320.1 351.777-46.179 46.837H46.548L.37 351.777s46.633-21.447 46.633-110.072c0-49.396-20.34-53.755-20.34-100.246 0-46.492 31.776-83.233 75.455-101.184 43.679-17.95 58.117-39.92 58.117-39.92s14.438 21.97 58.114 39.92c43.683 17.95 75.459 54.692 75.459 101.184 0 46.491-20.34 50.85-20.34 100.246 0 88.625 46.633 110.072 46.633 110.072" style="fill:#918f90;fill-opacity:1;fill-rule:nonzero;stroke:none;stroke-width:.1" transform="matrix(1.5905 0 0 -1.5905 -.587 633.994)"/><path d="M144.973 381.518v-59.091H44.199S23.85 351.777 18.37 353.34l31.307 28.178h95.295M174.32 381.518v-59.091h99.209s20.346 30.133 25.823 31.699l-31.305 27.392H174.32M144.973 285.459H58.287S71.701 235.895 44.2 170.981c-10.23-24.142-5.247-70.617 28.955-97.807 19.264-15.318 46.491-20.34 71.819-39.164v251.449M174.32 285.459h86.684s-13.411-49.564 14.092-114.478c10.226-24.142 5.243-70.617-28.955-97.807-19.268-15.318-46.493-20.34-71.821-39.164v251.449" style="fill:#ed1c24;fill-opacity:1;fill-rule:nonzero;stroke:none;stroke-width:.1" transform="matrix(1.5905 0 0 -1.5905 -.587 633.994)"/><path d="M106.124 227.296s30.907 4.197 20.783 30.459c0 0-27.713-2.1-25.581-27.309l.987-.647a179.497 179.497 0 0 1-2.778-5.769c-2.233 7.531-7.812 14.844-21.393 12.784 0 0-4.128-23.961 14.444-29.98a193.324 193.324 0 0 1-3.58-11.257c-3.12 6.723-9.289 12.773-21.502 8.817 0 0-.344-22.998 17.593-25.825-1.16-6.594-1.935-13.508-2.13-20.567-3.07 6.617-9.36 12.491-22.256 9.881 0 0-2.44-26.237 21.45-28.252l1.41 1.515a377.768 377.768 0 0 1 2.1-19.221c-4.618 6.605-13.008 13.002-26.708 5.561 0 0 5.522-25.158 29.009-19.903 2.809-15.033 7.105-30.265 13.555-37.79l8.686 5.788s-6.314 10.357-12.017 22.417l.564-.363s29.308 3.983 19.705 28.864c0 0-21.603-1.635-24.126-19.75-3.076 7.576-5.304 15.028-5.11 20.368l1.932-1.271s29.307 3.984 19.708 28.87c0 0-14.915-1.135-21.408-11.912-.181 6.242-.27 13.563.1 18.285l2.914-2.082s29.426 1.327 21.679 24.777c0 0-15.853.154-22.791-10.079.888 6.288 2.182 14.559 3.422 19.522l3.947-2.808s31.14 1.782 22.715 26.946c0 0-12.542-.031-20.627-7.213.091 1.033.301 4.279-.144 8.178.968 3.822 2.06 7.516 3.238 10.419l2.21-1.453M227.548 110.659v14.239h14.772v20.754h-14.772v5.404h16.498v20.765h-16.498v6.913h20.192v20.754h-20.192v10.25h23.649v23.651h-23.649v14.591h-6.032v-14.591h-21.64v-23.651h21.64v-10.25h-18.689v-20.754h18.689v-6.913h-15.999v-20.765h15.999v-5.404h-15.273v-20.754h15.273v-14.239h-27.764V79.894l47.383 1.543 15.18 29.222h-28.767" style="fill:#918f90;fill-opacity:1;fill-rule:nonzero;stroke:none;stroke-width:.1" transform="matrix(1.5905 0 0 -1.5905 -.587 633.994)"/></svg>