<svg xmlns="http://www.w3.org/2000/svg" xml:space="preserve" width="450" height="450.00003" viewBox="0 0 450 450.00002"><defs><clipPath id="a" clipPathUnits="userSpaceOnUse"><path d="M0 841.89h595.28V0H0Z"/></clipPath></defs><g clip-path="url(#a)" style="stroke-width:1.02132" transform="matrix(1.20836 0 0 -1.41044 -134.655 906.141)"><g style="stroke-width:1.02132"><path d="M0 0c.471-.204.682-.676.504-1.091M-55.924-205.09c-.66-.462-1.455-.801-2.385-1.017-.931-.215-1.9-.325-2.908-.325-.748 0-1.5.057-2.258.168-.755.112-1.455.266-2.097.459-.176.043-.297.1-.366.167-.07.068-.097.168-.08.302l.237 1.676c.015.134.068.223.156.267.086.045.252.031.494-.044.453-.12.904-.235 1.358-.346a7.807 7.807 0 0 1 1.382-.212c.364-.03.739-.053 1.121-.067.383-.016.76-.004 1.135.033.373.037.731.104 1.069.201.339.098.656.234.953.414.834.491 1.252 1.236 1.252 2.234 0 .343-.092.674-.274.994-.183.321-.467.604-.847.85-.383.245-.875.439-1.475.58-.6.142-1.316.213-2.152.213h-1.303c-.141 0-.231.019-.276.056-.042.037-.064.115-.064.235v1.653c0 .134.022.216.064.245.045.03.135.045.276.045h1.25c.383 0 .844.048 1.383.145.539.098 1.06.258 1.566.48a4.47 4.47 0 0 1 1.291.85c.356.342.533.76.533 1.252 0 .387-.113.722-.338 1.005a2.543 2.543 0 0 1-.875.692c-.355.18-.742.31-1.16.392a6.106 6.106 0 0 1-1.174.123c-.244 0-.525-.023-.847-.067a18.086 18.086 0 0 1-2.959-.67c-.209-.076-.358-.094-.444-.057-.087.037-.148.123-.183.258l-.235 1.631a.246.246 0 0 0 .026.246c.053.074.174.14.365.2.766.238 1.514.425 2.242.559.733.134 1.463.202 2.192.202.783 0 1.552-.083 2.308-.246a6.778 6.778 0 0 0 2.008-.76 4.29 4.29 0 0 0 1.422-1.341c.365-.552.549-1.207.549-1.967 0-.401-.084-.804-.248-1.206a4.483 4.483 0 0 0-.692-1.141 5.05 5.05 0 0 0-1.068-.959 6.246 6.246 0 0 0-1.357-.694c1.148-.431 2.017-.979 2.607-1.641.592-.664.889-1.405.889-2.224 0-.79-.18-1.513-.535-2.167a4.88 4.88 0 0 0-1.528-1.676m-25.455-1.185c-.331 0-.496.096-.496.289v1.267c0 .119.039.239.117.357.079.118.17.237.274.355l3.964 4.026c1.444 1.475 2.513 2.706 3.209 3.69.695.984 1.043 1.789 1.043 2.414 0 .717-.257 1.307-.769 1.769-.514.462-1.143.693-1.892.693a8.385 8.385 0 0 1-2.073-.257c-.67-.172-1.395-.451-2.178-.838a.766.766 0 0 0-.418-.1c-.138.006-.225.078-.26.212l-.365 1.698c-.035.074-.026.149.026.223.052.075.166.157.339.247.661.296 1.417.566 2.269.804a9.252 9.252 0 0 0 2.504.358 8.44 8.44 0 0 0 2.31-.302 5.386 5.386 0 0 0 1.824-.893 4.192 4.192 0 0 0 1.213-1.484c.297-.596.443-1.28.443-2.054 0-.67-.174-1.352-.519-2.046a12.11 12.11 0 0 0-1.307-2.034 23.13 23.13 0 0 0-1.668-1.9 482.072 482.072 0 0 0-1.617-1.644 190.38 190.38 0 0 0-1.214-1.262c-.425-.44-.856-.869-1.29-1.287h7.642c.243 0 .366-.119.366-.356v-1.565c0-.252-.123-.38-.366-.38zm-9.886 14.994c-1.043 0-1.895-.313-2.556-.938-.661-.627-.991-1.475-.991-2.549 0-1.027.291-1.838.874-2.435.582-.596 1.404-.893 2.465-.893 1.13 0 2.017.293 2.66.883.644.587.965 1.336.965 2.245 0 .506-.087.984-.261 1.431a3.758 3.758 0 0 1-.717 1.172 3.342 3.342 0 0 1-1.082.793 3.194 3.194 0 0 1-1.357.291m-2.269-15.151c-.504 0-1.065.038-1.682.113a9.616 9.616 0 0 0-1.526.29c-.157.045-.226.142-.209.291l.078 1.787c.035.209.174.268.418.18a6.238 6.238 0 0 1 1.448-.291 19.298 19.298 0 0 1 1.682-.068c.904 0 1.674.13 2.308.392.635.259 1.17.621 1.604 1.084a5.172 5.172 0 0 1 1.031 1.631c.251.625.439 1.295.561 2.01a2.947 2.947 0 0 0-.639-.524 5.12 5.12 0 0 0-.888-.447 7.106 7.106 0 0 0-1.004-.313 4.427 4.427 0 0 0-1.017-.123c-.939 0-1.796.131-2.569.391a5.838 5.838 0 0 0-1.996 1.117 4.99 4.99 0 0 0-1.291 1.744c-.304.677-.456 1.439-.456 2.289 0 .818.147 1.583.443 2.291a5.234 5.234 0 0 0 1.292 1.844c.564.52 1.247.93 2.048 1.228.799.298 1.695.448 2.686.448 2.051 0 3.629-.661 4.733-1.979 1.104-1.318 1.657-3.37 1.657-6.156a14 14 0 0 0-.443-3.564c-.297-1.124-.788-2.104-1.474-2.938-.687-.834-1.587-1.497-2.7-1.988-1.113-.493-2.478-.739-4.095-.739m-13.98.18c-.244 0-.365.097-.365.291v13.238l-1.931-1.44a.656.656 0 0 0-.299-.112c-.113-.015-.205.007-.274.066l-1.174 1.207a.268.268 0 0 0-.065.213c.008.082.056.16.143.234l3.991 3.151a.59.59 0 0 0 .183.09.697.697 0 0 0 .208.044h1.382c.296 0 .474-.027.535-.078.061-.052.091-.228.091-.525v-16.088c0-.194-.113-.291-.339-.291zm121.828-7.719 1.543 1.006c.172.112.33.09.473-.07l3.93-4.428 2.082 1.358-3.93 4.427c-.142.159-.127.295.047.408l1.543 1.005c.174.114.332.091.473-.069l3.931-4.428 5.821 3.791c.06.041.15.057.265.048.113-.009.195-.039.242-.093l.934-1.05c.047-.054.061-.129.039-.227-.021-.098-.062-.166-.125-.206l-15.971-10.405a.347.347 0 0 0-.275-.054.39.39 0 0 0-.215.111l-.933 1.051a.274.274 0 0 0-.075.216c.008.08.055.148.143.205l3.939 2.567-3.929 4.428c-.143.159-.125.296.048.409m6.434 10.502a69.81 69.81 0 0 0 3.33-4.014c.947-1.244 1.684-2.315 2.207-3.214a.772.772 0 0 0 .084-.31c.006-.104-.045-.184-.154-.238l-1.61-.898c-.109-.054-.195-.06-.261-.019a.493.493 0 0 0-.174.213c-.264.449-.594.953-.994 1.515-.399.56-.822 1.125-1.272 1.698-.449.57-.904 1.129-1.367 1.673a113.02 113.02 0 0 1-1.275 1.469c-.133.149-.254.215-.369.199-.114-.015-.256-.079-.43-.192l-9.389-6.116a.453.453 0 0 0-.236-.067c-.096-.002-.166.023-.213.076l-1.018 1.146c-.056.065-.07.132-.035.204.033.073.08.129.143.17l10.785 7.026c.396.257.783.367 1.16.328.377-.039.74-.256 1.088-.649m-22.625-19.148a.34.34 0 0 0-.184-.162l-2.851-1.153 2.172-3.945c.092-.169.047-.291-.137-.364L-4.758-229c-.181-.074-.324-.021-.424.16l-5.795 10.534c-.086.158-.039.273.145.347l1.881.759c.183.074.318.032.404-.124l2.68-4.869 2.851 1.151c.084.034.17.043.258.026.086-.016.145-.054.178-.115l.707-1.285c.033-.061.033-.128-.004-.201m2.471-11.578a.317.317 0 0 0-.178-.172l-1.797-.725a.382.382 0 0 0-.265-.009c-.094.03-.157.074-.19.134l-1.713 3.113c-.072.133-.15.206-.234.215-.084.012-.196-.011-.336-.069l-9.551-3.856a.412.412 0 0 0-.236-.018c-.086.017-.147.056-.18.115l-.687 1.25a.195.195 0 0 0 .002.21.318.318 0 0 0 .166.145l10.964 4.427c.536.216.959.269 1.27.159.31-.111.592-.396.844-.854l2.121-3.856c.033-.059.033-.129 0-.209m-15.414 7.06c-.662-.268-1.133-.625-1.414-1.069-.28-.445-.305-.879-.073-1.301.12-.218.286-.393.498-.529.213-.136.457-.228.735-.278.277-.051.578-.059.904-.024.324.035.649.119.973.25.662.267 1.127.633 1.398 1.096.27.463.289.906.057 1.328-.233.422-.635.683-1.207.785-.572.1-1.196.014-1.871-.258m-.868 1.574a7.506 7.506 0 0 0 1.92.499 6.088 6.088 0 0 0 1.803-.036 4.273 4.273 0 0 0 1.494-.558c.444-.272.787-.63 1.032-1.076a2.45 2.45 0 0 0 .318-1.376 3.02 3.02 0 0 0-.451-1.366 4.66 4.66 0 0 0-1.108-1.221 6.711 6.711 0 0 0-1.683-.956 7.23 7.23 0 0 0-1.899-.491 5.93 5.93 0 0 0-1.785.054 4.393 4.393 0 0 0-1.506.575c-.443.278-.789.64-1.035 1.087a2.386 2.386 0 0 0-.312 1.365c.035.465.185.913.449 1.344.262.43.629.833 1.103 1.209a6.68 6.68 0 0 0 1.66.947m1.309 4.123c-.027-.091-.098-.162-.209-.207l-5.516-2.226a.46.46 0 0 0-.24-.008.316.316 0 0 0-.236.17l-.566 1.031a.226.226 0 0 0 .005.246.395.395 0 0 0 .161.155l5.515 2.226a.45.45 0 0 0 .303.012c.103-.032.176-.084.215-.156l.549-.996a.316.316 0 0 0 .019-.247m3.981-1.18a.312.312 0 0 0-.178-.171l-11.197-4.522a.412.412 0 0 0-.284-.003c-.103.032-.175.084-.214.156l-.559 1.014c-.031.06-.027.139.012.238a.352.352 0 0 0 .189.197l11.178 4.513a.368.368 0 0 0 .271-.001.357.357 0 0 0 .203-.16l.569-1.033a.254.254 0 0 0 .01-.228m-29.186-5.29c-.045.168.039.274.25.316l1.957.391c.195.039.318-.026.363-.194l4.897-17.988c.045-.168-.031-.272-.227-.311l-1.98-.396c-.197-.039-.319.026-.365.194l-2.508 9.218-2.116-.423 2.307-8.477c.049-.182-.023-.293-.221-.332l-1.865-.371c-.213-.043-.344.026-.392.209l-4.598 16.895c-.047.169.035.275.248.318l1.865.372c.198.04.321-.026.365-.195l1.784-6.547 2.115.422zm-2.238-13.453a1.275 1.275 0 0 0-.219-.167 16.647 16.647 0 0 0-1.703-.659 40.27 40.27 0 0 0-2.106-.636 51.41 51.41 0 0 0-2.211-.556c-.738-.168-1.4-.289-1.988-.365-.553-.083-.996-.055-1.33.084-.334.139-.56.435-.685.89l-2.508 9.217c-.123.455-.1.795.07 1.022.17.224.543.395 1.119.51l6.598 1.318c.211.043.344-.027.392-.209l.366-1.345c.047-.169-.037-.274-.248-.317l-5.075-1.012c-.287-.059-.402-.197-.341-.418l1.935-7.113c.057-.208.135-.333.235-.375.099-.041.296-.047.591-.015.328.025.75.095 1.262.21.512.116 1.053.256 1.625.418a46.16 46.16 0 0 1 1.684.511c.55.179 1.027.348 1.431.512.1.046.198.067.297.059.098-.008.176-.06.235-.159l.595-1.134c.063-.111.055-.202-.021-.271m-38.709-3.544 4.6.078-.049 2.14-4.6-.079zm2.067 10.602a11.818 11.818 0 0 1-1.89-.172 7.902 7.902 0 0 1-1.496-.406c-.424-.168-.754-.363-.991-.588-.236-.223-.352-.455-.347-.695.008-.254.132-.486.38-.694.246-.21.584-.387 1.016-.534a8.341 8.341 0 0 1 1.516-.335 12.955 12.955 0 0 1 1.893-.097c.67.012 1.297.065 1.878.162a7.629 7.629 0 0 1 1.497.387c.418.16.744.348.981.566.236.218.351.453.345.707-.006.24-.131.468-.379.684-.246.214-.581.4-1.005.552a7.613 7.613 0 0 1-1.514.356c-.588.083-1.215.119-1.884.107m7.443-1.594c.025-1.054-.598-1.915-1.868-2.583-1.268-.67-3.087-1.024-5.453-1.065-1.184-.019-2.238.046-3.158.197-.923.151-1.703.378-2.341.68-.638.303-1.129.668-1.474 1.097a2.295 2.295 0 0 0-.536 1.422c-.011.506.145.972.471 1.399.325.425.799.797 1.422 1.114.624.318 1.392.568 2.308.75.914.183 1.962.283 3.147.304 1.181.02 2.234-.046 3.158-.196.921-.152 1.702-.375 2.339-.671.639-.297 1.125-.652 1.463-1.066.336-.415.51-.876.522-1.382m.064-15.3a.345.345 0 0 0-.221-.094l-2.009-.034a.361.361 0 0 0-.246.086c-.072.059-.109.122-.11.188l-.094 4.022c-.003.133-.035.219-.099.258-.063.039-.181.057-.351.054l-11.466-.195a.362.362 0 0 0-.225.076c-.071.052-.108.111-.109.178l-.033 1.421a.193.193 0 0 0 .101.181.438.438 0 0 0 .22.064l2.429.042-.05 2.139-5.23-.087c-.218-.004-.33.093-.334.294l-.03 1.281a.282.282 0 0 0 .089.212c.06.059.138.091.231.093l20.342.346a.353.353 0 0 0 .234-.096c.08-.065.121-.131.121-.198l.031-1.28c.002-.08-.037-.15-.113-.213a.38.38 0 0 0-.23-.094l-5.232-.089.05-2.14.746.012c.592.01 1-.085 1.223-.289.222-.203.34-.558.351-1.064l.114-4.882c.002-.067-.032-.132-.1-.192m-33.037 17.135a60.8 60.8 0 0 0-1.258-4.807c-.446-1.435-.884-2.619-1.313-3.555a.928.928 0 0 0-.212-.26.323.323 0 0 0-.311-.061l-1.856.425c-.119.033-.183.084-.192.153a.438.438 0 0 0 .069.253c.214.469.431 1.017.65 1.646.22.629.428 1.279.624 1.946.195.668.374 1.332.537 1.99.162.659.303 1.258.422 1.795.041.183.017.306-.072.369-.09.062-.242.11-.456.145l-11.587 1.89a.413.413 0 0 0-.214.106c-.066.058-.092.12-.078.186l.315 1.415c.017.079.068.131.154.158a.499.499 0 0 0 .242.022l13.309-2.17c.49-.08.843-.254 1.061-.52.218-.266.274-.642.166-1.126m-13.419-2.925 1.905-.312c.214-.034.3-.15.256-.347l-1.215-5.463 2.571-.42 1.214 5.465c.044.196.172.277.387.242l1.904-.311c.214-.034.299-.15.256-.346l-1.215-5.466 7.182-1.17a.391.391 0 0 0 .22-.138c.069-.079.096-.152.082-.218l-.288-1.297c-.015-.066-.072-.125-.17-.175a.425.425 0 0 0-.263-.061l-19.71 3.216c-.108.017-.184.063-.231.14a.276.276 0 0 0-.048.211l.288 1.296c.018.08.063.143.138.192.074.05.165.065.272.048l4.864-.793 1.215 5.465c.044.196.173.277.386.242m-35.566 9.714a.528.528 0 0 0-.327.16c-.076.086-.11.17-.102.255l.05 1.285c.007.084.068.155.182.216a.64.64 0 0 0 .298.087 52.39 52.39 0 0 1 3.297-.355 40.546 40.546 0 0 1 3.108-.125c.98 0 1.884.043 2.712.127.827.085 1.545.213 2.154.384.212.053.342.111.39.174.047.062-.051.137-.295.225l-7.876 2.848c-.187.068-.24.181-.162.341l.618 1.254c.073.147.202.188.389.12l10.114-3.658c.559-.202.97-.441 1.231-.715.261-.277.332-.537.211-.784-.097-.196-.267-.377-.509-.544a6.484 6.484 0 0 0-.635-.388c-1.024-.499-2.264-.855-3.72-1.066a58.505 58.505 0 0 1 2.199-1.685c.392-.287.785-.56 1.182-.819.396-.259.773-.49 1.13-.691a.406.406 0 0 0 .169-.224c.024-.088-.01-.173-.101-.256l-1.062-.919c-.198-.161-.395-.184-.591-.069-.395.23-.827.509-1.299.839-.471.329-.954.688-1.447 1.076-.493.389-.986.795-1.478 1.219-.493.424-.96.84-1.402 1.245a39.231 39.231 0 0 0-4.236.023 48.184 48.184 0 0 0-4.192.42m14.867-9.243a.38.38 0 0 0-.261-.015l-8.112 2.933-2.925-5.935c-.085-.172-.228-.222-.428-.151l-1.872.678c-.202.072-.26.195-.175.367l2.925 5.937-8.156 2.948a.262.262 0 0 0-.17.171.277.277 0 0 0 .005.216l.59 1.197a.328.328 0 0 0 .182.162c.084.035.17.037.256.006l18.743-6.777a.307.307 0 0 0 .17-.17c.041-.088.048-.162.017-.223l-.591-1.199c-.03-.062-.096-.109-.198-.145m-28.875 16.661a.368.368 0 0 0-.236.043l-2.508 1.5-2.528-3.101c-.116-.142-.257-.163-.423-.065l-1.704 1.02c-.166.099-.191.22-.075.362l7.408 9.089c.116.144.257.164.423.066l1.704-1.02c.166-.1.191-.221.075-.363l-3.597-4.413 2.509-1.501a.306.306 0 0 0 .135-.166c.026-.073.017-.137-.028-.192l-.949-1.164a.287.287 0 0 0-.206-.095m-3.286 8.359a26.804 26.804 0 0 0-1.684-1.873 17.961 17.961 0 0 0-1.773-1.6.886.886 0 0 0-.337-.152c-.129-.029-.233-.011-.313.054l-1.4 1.007c-.157.111-.132.259.075.444a17.048 17.048 0 0 1 1.499 1.385c.245.252.474.493.689.722.216.23.386.421.511.573.125.154.16.28.106.376-.054.097-.17.2-.348.306l-6.033 3.609a.359.359 0 0 0-.145.172c-.033.077-.027.141.018.197l.923 1.131a.27.27 0 0 0 .223.099.449.449 0 0 0 .238-.057l7.431-4.444c.408-.245.646-.529.714-.854.067-.326-.064-.691-.394-1.095m-9.336-8.449a9.496 9.496 0 0 1-1.706.826 6.594 6.594 0 0 1-1.414.344c-.417.046-.774.029-1.07-.055-.296-.083-.511-.207-.645-.371-.133-.164-.195-.379-.184-.647.01-.265.113-.558.308-.88.195-.319.483-.659.865-1.017.382-.359.88-.722 1.493-1.088a9.616 9.616 0 0 1 1.715-.831 6.252 6.252 0 0 1 1.414-.345c.412-.043.765-.022 1.061.061.295.083.51.207.644.372.134.163.195.379.185.644-.011.268-.11.559-.299.875-.189.317-.477.656-.865 1.018-.389.363-.889.727-1.502 1.094m-5.175 9.099a50.34 50.34 0 0 1 1.716-1.076c.587-.349 1.187-.709 1.8-1.076l2.447 3.002c.125.154.276.178.455.07l1.628-.973c.178-.108.206-.238.081-.39l-2.407-2.954a86.304 86.304 0 0 1 2.75-1.486c.907-.47 1.782-.9 2.624-1.289a.46.46 0 0 0 .188-.136c.051-.065.053-.139.003-.223l-.72-1.058a.342.342 0 0 0-.224-.17.438.438 0 0 0-.246.013c-.953.439-1.936.922-2.951 1.447a144.738 144.738 0 0 0-5.877 3.223 66.024 66.024 0 0 0-2.524 1.534.254.254 0 0 0-.132.189.273.273 0 0 0 .064.218l.856 1.049c.133.164.29.194.469.086m9.949-14.078a2.956 2.956 0 0 0-1.306-.903c-.541-.196-1.17-.277-1.888-.236-.719.039-1.508.206-2.369.501-.861.295-1.77.73-2.727 1.302-.958.573-1.748 1.155-2.368 1.745-.62.591-1.075 1.168-1.365 1.732-.291.564-.421 1.097-.391 1.6.03.503.21.957.54 1.362.321.393.751.688 1.292.886.541.197 1.167.274 1.881.229.714-.044 1.504-.212 2.369-.501.865-.29 1.777-.722 2.735-1.295.957-.572 1.744-1.156 2.36-1.752.615-.597 1.071-1.174 1.365-1.732.295-.56.427-1.09.398-1.593a2.302 2.302 0 0 0-.526-1.345m231.999 60.441a.505.505 0 0 0 .213.208c.08.032.221.054.422.064l16.285.697-12.529 5.539c-.155.068-.242.133-.266.193-.021.059.006.156.086.288l.994 1.649a.46.46 0 0 0 .213.207c.078.033.193.015.348-.054l16.713-7.388c.185-.081.289-.16.31-.238.022-.077-.01-.188-.098-.333l-1.099-1.828a.536.536 0 0 0-.203-.211c-.071-.037-.213-.057-.432-.062l-16.262-.706 12.506-5.528c.155-.069.242-.133.266-.194.021-.059-.006-.156-.086-.289l-.992-1.647c-.08-.132-.153-.205-.219-.218-.068-.012-.178.016-.332.084l-16.713 7.388c-.185.082-.291.158-.316.228-.026.071.004.179.091.323zm26.678 14.85c.34.813.422 1.575.246 2.285a4.5 4.5 0 0 1-1.024 1.928c-.507.574-1.146 1.078-1.918 1.512-.769.434-1.572.778-2.406 1.034-.836.255-1.711.425-2.627.507a9.034 9.034 0 0 1-2.615-.125 5.947 5.947 0 0 1-2.23-.93c-.661-.454-1.161-1.088-1.5-1.902-.338-.814-.422-1.576-.247-2.285.174-.71.522-1.35 1.042-1.921.517-.57 1.162-1.072 1.933-1.506a12.08 12.08 0 0 1 2.406-1.033c.821-.252 1.682-.42 2.588-.508a8.86 8.86 0 0 1 2.596.118 6.178 6.178 0 0 1 2.244.927c.668.452 1.172 1.085 1.512 1.899m-16.154-1.01c-.67.917-1.045 1.89-1.124 2.918-.078 1.029.114 2.098.577 3.206.513 1.234 1.214 2.217 2.103 2.95a7.802 7.802 0 0 0 3.012 1.546c1.121.297 2.324.403 3.609.318a17.097 17.097 0 0 0 3.893-.729 15.353 15.353 0 0 0 3.496-1.545c1.055-.639 1.902-1.381 2.547-2.227A6.075 6.075 0 0 0 87-147.042c.156-1.043-.021-2.176-.531-3.396-.496-1.192-1.196-2.149-2.096-2.87a8.43 8.43 0 0 0-3.043-1.548c-1.127-.311-2.332-.433-3.615-.365a15.243 15.243 0 0 0-3.83.711c-1.436.455-2.67 1-3.709 1.634-1.037.634-1.865 1.378-2.488 2.233m3.878 17.056.584 1.971c.057.188.194.258.413.21l18.404-4.004c.219-.048.301-.166.246-.353l-.584-1.971c-.057-.187-.193-.258-.412-.21l-18.404 4.005c-.219.047-.301.165-.247.352m19.215 7.187-16.365 2.461c-.205.031-.289.135-.254.311l.401 1.959c.037.175.158.248.363.217l16.365-2.461.875 4.269a.256.256 0 0 0 .129.174.377.377 0 0 0 .26.04l2.054-.309a.32.32 0 0 0 .204-.11.23.23 0 0 0 .05-.201L92.6-131.097a.264.264 0 0 0-.129-.174.348.348 0 0 0-.235-.044l-2.054.309c-.223.033-.317.138-.282.314zm-6.498 20.106-.441-5.416 8.248 2.216zm-8.353-7.855a.45.45 0 0 0 .058.22c.03.043.106.084.231.121l4.814 1.325.592 7.266-4.551 1.885c-.119.038-.191.079-.213.125a.466.466 0 0 0-.021.226l.168 2.05c.021.268.15.35.385.246l18.439-7.644c.135-.052.215-.091.238-.115.024-.023.032-.109.018-.259l-.168-2.073c-.012-.133-.031-.214-.061-.242-.027-.028-.113-.061-.255-.097l-19.499-5.374c-.25-.059-.363.037-.341.289zm1.207 16.351a14.89 14.89 0 0 0-.485 1.545c-.158.604-.261 1.308-.31 2.111-.076 1.265.097 2.425.521 3.48a7.326 7.326 0 0 0 1.91 2.736c.852.769 1.889 1.382 3.116 1.839 1.226.457 2.603.719 4.131.787 1.511.067 2.904-.069 4.177-.408 1.276-.339 2.381-.853 3.319-1.542a7.816 7.816 0 0 0 2.244-2.553c.556-1.012.875-2.157.951-3.437.041-.669.041-1.326.002-1.969a7.692 7.692 0 0 0-.299-1.759c-.043-.164-.101-.264-.178-.298-.076-.033-.203-.046-.377-.039l-1.929-.041c-.278-.012-.42.02-.424.094-.004.075.021.202.082.384.332 1.133.461 2.302.389 3.507-.057.923-.288 1.736-.696 2.442a5.35 5.35 0 0 1-1.648 1.761c-.69.47-1.498.814-2.426 1.034-.928.221-1.937.306-3.031.258-1.078-.048-2.063-.234-2.957-.557-.897-.322-1.662-.755-2.299-1.298a5.564 5.564 0 0 1-1.465-1.9c-.34-.723-.484-1.516-.432-2.379.047-.774.125-1.431.237-1.97.111-.54.275-1.035.494-1.488.1-.189.131-.316.101-.376-.031-.061-.107-.095-.228-.1l-1.846-.17c-.189-.024-.328-.019-.418.014-.09.034-.164.131-.226.292m-.889 18.756a6.078 6.078 0 0 0-1.49 1.646 6.5 6.5 0 0 0-.82 2.112c-.315 1.526-.088 2.921.675 4.186.498.831 1.207 1.487 2.123 1.966.918.479 2.018.815 3.303 1.009l12.098 1.829c.086.012.176 0 .273-.039.096-.038.151-.094.166-.167l.404-1.959c.016-.073-.007-.141-.064-.203a.365.365 0 0 0-.215-.111l-12.15-1.836c-1.336-.202-2.371-.668-3.102-1.399-.732-.731-.978-1.683-.736-2.857.248-1.203.851-2.038 1.814-2.506.961-.467 2.125-.597 3.496-.39l12.151 1.836a.393.393 0 0 0 .246-.042c.078-.041.127-.098.141-.172l.404-1.958c.015-.073-.016-.142-.09-.207a.488.488 0 0 0-.24-.116l-12.1-1.828c-1.267-.191-2.433-.19-3.496.005-1.064.195-1.996.595-2.791 1.201m8.484 21.804c.979 1.261 1.1 2.902.362 4.921l-.606 1.663-13.468-3.607.349-.96a8.398 8.398 0 0 1 1.211-2.228 6.012 6.012 0 0 1 1.858-1.61c.796-.488 1.703-.787 2.718-.898 1.016-.11 2.137-.001 3.365.328.997.266 1.846.595 2.549.987.705.392 1.26.86 1.662 1.404m-11.683-4.158a7.5 7.5 0 0 0-1.42 1.047c-.441.413-.852.872-1.229 1.38a13.654 13.654 0 0 0-1.81 3.354l-.949 2.602c-.088.242-.11.397-.061.464.049.068.197.135.445.201l17.551 4.701c.317.084.512.11.588.075.076-.033.164-.186.262-.456l1.324-3.626c1.012-2.772.852-5.078-.482-6.918-.579-.81-1.342-1.503-2.289-2.076-.948-.574-2.168-1.061-3.663-1.461-1.543-.413-3.031-.558-4.459-.433-1.431.124-2.699.506-3.808 1.146m-11.68 21.02c-.142.272-.199.446-.172.522.028.075.217.18.565.313l16.652 6.36c.318.121.516.169.598.142.08-.026.187-.169.322-.427l3.77-7.245c.078-.15.095-.248.054-.297-.041-.049-.133-.1-.275-.155l-1.764-.673c-.158-.061-.277-.081-.353-.062-.077.02-.147.09-.211.213l-2.879 5.531-4.86-1.856 2.741-5.265c.107-.204.033-.355-.223-.452l-1.785-.683c-.272-.103-.459-.052-.565.152l-2.74 5.265-5.431-2.074 3.005-5.776c.098-.19.014-.337-.255-.44l-1.788-.683c-.254-.097-.431-.05-.531.14zm3.557 23.934-4.535-2.512 3.513-4.653c.121-.163.096-.293-.08-.39l-1.773-.982c-.176-.098-.324-.064-.447.098l-3.512 4.653-7.031-3.895c-.219-.121-.395-.094-.528.081l-1.16 1.539c-.143.188-.103.342.115.463l15.793 8.748c.16.089.285.123.375.101a.449.449 0 0 0 .246-.183l5.055-6.699a.228.228 0 0 0 .045-.201.266.266 0 0 0-.137-.169l-1.752-.971c-.205-.113-.363-.095-.478.055zM54.191-3.4c-.64.667-1.361 1.119-2.162 1.355-.8.237-1.619.316-2.457.237a8.596 8.596 0 0 1-2.498-.632 11.59 11.59 0 0 1-2.273-1.239 10.454 10.454 0 0 1-1.858-1.67c-.554-.631-.961-1.293-1.218-1.986a4.097 4.097 0 0 1-.213-2.117c.115-.719.492-1.412 1.134-2.079.641-.668 1.36-1.12 2.163-1.356a6.26 6.26 0 0 1 2.457-.221 8.957 8.957 0 0 1 2.502.648 11.71 11.71 0 0 1 2.271 1.238c.672.473 1.283 1.02 1.836 1.641.553.62.957 1.277 1.217 1.97a4.21 4.21 0 0 1 .224 2.124c-.111.724-.486 1.42-1.125 2.087m-7.287-12.393c-1.261-.021-2.429.203-3.5.674-1.07.471-2.041 1.16-2.914 2.069-.972 1.013-1.597 2.033-1.875 3.062-.277 1.029-.277 2.031 0 3.009.278.977.789 1.915 1.535 2.816.745.901 1.655 1.729 2.729 2.487A14.979 14.979 0 0 0 46.223.1c1.181.446 2.361.689 3.539.728a8.913 8.913 0 0 0 3.455-.575c1.125-.422 2.17-1.134 3.129-2.135.939-.978 1.537-1.983 1.799-3.016a5.94 5.94 0 0 0-.014-3.031c-.268-.988-.764-1.936-1.49-2.844-.729-.907-1.621-1.724-2.68-2.451-1.193-.821-2.373-1.45-3.541-1.886a10.433 10.433 0 0 0-3.516-.683M21.711 4.325c-.135-.138-.281-.148-.441-.033l-1.776 1.281c-.16.115-.172.241-.037.378l5.072 5.162 1.903 11.099c.052.215.185.246.398.093l2.016-1.454c.133-.096.185-.192.158-.289l-1.447-8.343 9.371 2.63c.105.04.226.011.359-.084l2.016-1.454c.213-.153.199-.271-.039-.352L26.766 9.47Zm-4.318 20.767-9.27-11.814c-.115-.148-.26-.172-.434-.072l-1.925 1.109c-.174.1-.203.224-.086.373L14.947 26.5l-4.201 2.418a.267.267 0 0 0-.133.171c-.015.073.004.146.063.221l1.164 1.483a.349.349 0 0 0 .435.073l10.868-6.258a.264.264 0 0 0 .132-.171.232.232 0 0 0-.048-.201l-1.165-1.483c-.125-.162-.275-.191-.449-.092ZM-2.191 18.55l-2.063 1.006c-.197.096-.238.228-.127.396L5.01 34.091c.111.168.265.204.463.109l2.062-1.006c.195-.095.238-.228.127-.396l-9.391-14.139c-.111-.168-.265-.204-.462-.109m-7.264 4.803c-.617-.211-1.316-.319-2.098-.323a7.348 7.348 0 0 0-2.277.344 9.79 9.79 0 0 0-1.262.512 17.141 17.141 0 0 0-2.338 1.357c-.312.217-.529.391-.648.523-.184.19-.285.318-.307.384-.021.066.026.167.137.302l.992 1.427c.076.101.152.153.231.155.078.001.183-.067.32-.205a8.98 8.98 0 0 1 .672-.558 11.695 11.695 0 0 1 2.256-1.323c.423-.189.828-.32 1.211-.393.507-.091.945-.116 1.314-.076.369.04.693.13.973.272.281.143.521.325.722.548.2.223.375.47.524.74.142.255.142.683.004 1.284-.139.601-.471 1.229-.992 1.886a34.757 34.757 0 0 0-1.6 2.17c-.432.645-.752 1.241-.959 1.787-.207.546-.303 1.063-.283 1.549.019.487.162.973.429 1.457a4.284 4.284 0 0 0 1.291 1.418 5.712 5.712 0 0 0 1.864.863 6.936 6.936 0 0 0 2.217.2 7.575 7.575 0 0 0 2.388-.561c.817-.332 1.465-.649 1.944-.949.476-.302.871-.59 1.181-.864.143-.124.217-.224.223-.3.006-.077-.033-.156-.117-.238l-1.022-1.168c-.113-.135-.221-.216-.32-.24-.1-.025-.223.023-.365.148a10.85 10.85 0 0 1-.672.507c-.25.176-.512.345-.787.506-.278.162-.549.305-.817.43a4.508 4.508 0 0 1-.754.281c-.947.236-1.699.241-2.258.015-.558-.227-.994-.623-1.306-1.189-.186-.336-.19-.793-.006-1.369.18-.577.551-1.226 1.113-1.949.707-.914 1.268-1.701 1.682-2.363.412-.663.701-1.254.865-1.774.164-.52.217-.999.158-1.436a3.744 3.744 0 0 0-.457-1.323c-.656-1.185-1.677-2.006-3.066-2.464m-16.688 20.305-2.064-5.04 2.02-.606c1.083-.325 2.027-.384 2.83-.175.804.208 1.396.777 1.775 1.704.328.802.326 1.485-.004 2.05-.332.565-.916.973-1.752 1.224zm1.588-15.844a1.597 1.597 0 0 0-.369.146.478.478 0 0 0-.16.249l-1.213 7.374-2.807.842-2.527-6.178c-.074-.183-.219-.243-.432-.179l-2.191.658c-.197.059-.258.18-.184.363l6.292 15.372c.027.071.08.122.158.154a.347.347 0 0 0 .24.011l4.973-1.493c1.82-.547 3.109-1.36 3.865-2.44.756-1.079.806-2.42.15-4.023-.42-1.026-1.037-1.816-1.853-2.367-.815-.553-1.756-.874-2.826-.963l1.367-7.941c.051-.235-.088-.304-.416-.206zm-25.119 6.271c-.338.068-.535.134-.59.198-.052.065-.037.257.051.575l4.141 15.211c.078.29.154.455.228.494.073.039.27.026.592-.038l9.018-1.802c.185-.036.289-.084.308-.142.02-.058.012-.151-.023-.282l-.438-1.61c-.039-.146-.092-.238-.156-.279-.064-.041-.174-.046-.326-.015l-6.883 1.375-1.209-4.439 6.553-1.31c.254-.05.349-.192.287-.424l-.443-1.632c-.069-.246-.229-.344-.483-.294L-45.6 40.98l-1.351-4.96 7.189-1.437c.237-.047.321-.194.254-.441l-.443-1.632c-.065-.232-.215-.324-.451-.277zm-11.65 1.671a.757.757 0 0 0-.266-.006l-2.252.229a.68.68 0 0 0-.254.059c-.049.027-.092.103-.127.227l-4.834 16.894c-.019.107-.009.184.034.233.041.048.181.06.423.035l2.229-.226a.787.787 0 0 0 .279-.062c.049-.028.084-.095.104-.202l3.73-13.483 7.356 12.358c.066.098.127.156.181.172a.826.826 0 0 0 .289.005l2.229-.226c.224-.023.353-.063.39-.118.036-.057.03-.135-.019-.235l-9.309-15.458c-.068-.113-.13-.179-.183-.196m-13.367.944-2.373.071c-.225.006-.334.106-.327.299l.654 16.258c.008.193.124.287.35.28l2.372-.069c.226-.007.335-.107.327-.301l-.654-16.258c-.008-.193-.124-.286-.349-.28m-11.019.134a.59.59 0 0 0-.317.053c-.072.041-.164.134-.278.278l-8.927 11.688.749-12.06c.009-.149-.011-.247-.06-.294-.05-.047-.161-.075-.334-.082l-2.163-.099a.586.586 0 0 0-.316.053c-.073.041-.113.136-.123.285l-.998 16.088c-.011.178.017.295.083.351.066.055.195.087.386.095l2.396.11a.694.694 0 0 0 .316-.042c.071-.034.165-.131.279-.29l8.925-11.665-.746 12.038c-.01.149.01.247.059.294.05.047.161.074.335.082l2.162.099c.174.008.283-.01.33-.052.045-.043.074-.139.083-.287l.998-16.088c.011-.179-.012-.295-.069-.35-.058-.055-.182-.087-.373-.096zm-20.052-.582a6.791 6.791 0 0 0-1.913-1.288 9.525 9.525 0 0 0-2.46-.714c-1.779-.277-3.409-.093-4.89.554-.975.423-1.743 1.025-2.308 1.808-.564.783-.963 1.723-1.197 2.823l-2.206 10.353a.34.34 0 0 0 .044.234.26.26 0 0 0 .194.144l2.284.357a.324.324 0 0 0 .237-.054.3.3 0 0 0 .132-.184l2.214-10.397c.244-1.143.794-2.027 1.652-2.649.857-.624 1.97-.828 3.338-.614 1.403.219 2.374.742 2.914 1.568.54.827.685 1.826.435 2.998l-2.214 10.398a.26.26 0 0 0 .048.212.283.283 0 0 0 .199.122l2.284.357a.293.293 0 0 0 .241-.076.38.38 0 0 0 .137-.205l2.205-10.354c.231-1.085.236-2.083.015-2.996-.221-.913-.683-1.712-1.385-2.397m-33.166-8.528a.35.35 0 0 0-.239.008.278.278 0 0 0-.162.153l-6.463 15.343a.224.224 0 0 0 .011.206.287.287 0 0 0 .177.137l2.208.683a.35.35 0 0 0 .239-.009.283.283 0 0 0 .162-.152l5.64-13.389 6.355 1.965c.195.06.332 0 .409-.182l.708-1.682a.225.225 0 0 0-.011-.205.29.29 0 0 0-.177-.138zm-18.471.097 5.693 2.387-6.373 5.003zm12.121-2.256a.693.693 0 0 0-.251-.068c-.059 0-.138.038-.239.111l-3.75 2.906-7.638-3.203.378-4.32c.022-.106.015-.179-.02-.22a.633.633 0 0 0-.217-.128l-2.155-.904c-.282-.117-.429-.063-.442.163l-1.519 17.5c-.014.126-.015.204-.003.235.012.03.095.077.252.143l2.179.913c.14.059.232.085.274.078.043-.007.118-.054.227-.141l15.2-11.762c.185-.155.145-.288-.121-.399zm-19.724-8.955a.569.569 0 0 0-.304-.092c-.087.004-.222.044-.405.12l-14.598 6.219 7.761-10.082c.096-.125.136-.218.121-.28-.014-.061-.094-.134-.24-.215l-1.807-1.022a.578.578 0 0 0-.304-.091c-.087.004-.179.069-.274.193l-10.353 13.45c-.115.149-.16.262-.136.338.025.076.117.16.277.25l2.003 1.132a.676.676 0 0 0 .298.101c.082.001.219-.042.412-.13l14.583-6.201-7.746 10.064c-.096.124-.137.218-.122.28.015.062.095.133.24.216l1.807 1.021c.145.082.25.114.316.098.064-.018.145-.088.241-.212l10.353-13.45c.114-.149.163-.259.146-.332-.017-.072-.106-.154-.266-.244zm-31.743-1.751c-.762-.566-1.27-1.195-1.524-1.887a4.138 4.138 0 0 1-.211-2.11c.114-.715.382-1.422.805-2.123a9.727 9.727 0 0 1 1.506-1.913 10.867 10.867 0 0 1 1.999-1.547 8.374 8.374 0 0 1 2.35-.989 6.411 6.411 0 0 1 2.476-.126c.836.118 1.635.46 2.396 1.026.762.567 1.27 1.196 1.524 1.888.254.693.319 1.396.193 2.111-.126.715-.4 1.423-.824 2.125a9.748 9.748 0 0 1-1.506 1.913 11.034 11.034 0 0 1-1.963 1.528 8.16 8.16 0 0 1-2.331.989 6.599 6.599 0 0 1-2.486.134c-.841-.112-1.642-.452-2.404-1.019m14.656-5.908a5.442 5.442 0 0 0-.693-3.014c-.52-.93-1.3-1.781-2.336-2.552-1.156-.859-2.33-1.422-3.523-1.688a8.723 8.723 0 0 0-3.51-.08 10.489 10.489 0 0 0-3.328 1.239 14.471 14.471 0 0 0-2.975 2.271 12.359 12.359 0 0 0-2.162 2.815c-.552.999-.867 2.003-.944 3.012-.077 1.007.116 1.999.578 2.974.463.975 1.265 1.888 2.408 2.738 1.116.829 2.273 1.369 3.47 1.619a9.335 9.335 0 0 0 3.538.07c1.16-.202 2.28-.602 3.358-1.2a12.907 12.907 0 0 0 2.932-2.229c.99-1 1.755-1.994 2.297-2.983.54-.988.837-1.985.89-2.992m-13.153-13.228-1.639-1.47c-.157-.14-.317-.144-.48-.01l-13.728 11.238c-.164.134-.167.271-.011.411l1.64 1.47c.156.14.316.143.479.01l13.729-11.238c.163-.134.167-.271.01-.411m-20.86 1.837 12.83-9.045c.161-.114.175-.239.043-.377l-1.476-1.536c-.132-.138-.279-.15-.44-.037l-12.83 9.045-3.215-3.347a.316.316 0 0 0-.211-.097.368.368 0 0 0-.249.074l-1.612 1.136a.248.248 0 0 0-.113.182.237.237 0 0 0 .07.196l8.321 8.661c.055.058.125.09.211.097a.338.338 0 0 0 .229-.06l1.611-1.136c.175-.123.196-.254.063-.392zm-5.892-20.227 3.499 4.528-8.452 1.55zm11.787 3.312a.551.551 0 0 0-.177-.168c-.051-.025-.141-.028-.271-.008l-4.952.879-4.693-6.074 2.878-3.562c.082-.082.12-.148.113-.198a.514.514 0 0 0-.112-.205l-1.324-1.713c-.173-.224-.332-.241-.478-.051l-11.651 14.432c-.087.103-.134.17-.141.201-.008.031.036.108.132.233l1.34 1.733c.086.111.149.173.19.186.041.012.135.004.279-.024l20.059-3.551c.251-.053.295-.186.132-.397zm-11.719-16.275a.469.469 0 0 0-.208-.211c-.078-.034-.218-.058-.42-.073l-16.265-.967 12.651-5.329c.156-.065.246-.129.27-.188.024-.06-.002-.157-.08-.29l-.955-1.665a.47.47 0 0 0-.208-.211c-.078-.034-.194-.018-.35.048l-16.877 7.109c-.187.079-.292.157-.316.233-.024.076.006.188.091.336l1.059 1.844a.538.538 0 0 0 .196.216c.069.037.213.06.432.068l16.241.976-12.627 5.32c-.157.065-.247.128-.27.188-.024.06.002.157.079.29l.956 1.665c.076.133.147.207.214.221.065.013.177-.013.332-.078l16.876-7.109c.188-.079.295-.154.323-.223.027-.07-.001-.179-.085-.326zm-12.111-22.575a5.108 5.108 0 0 0 .516-2.036 6.26 6.26 0 0 0-.325-2.207c-.485-1.493-1.391-2.669-2.717-3.528a6.248 6.248 0 0 0-2.907-.987c-1.068-.093-2.231.01-3.487.31l-11.835 2.824a.456.456 0 0 0-.226.136c-.067.069-.09.14-.066.213l.623 1.915a.256.256 0 0 0 .159.159.403.403 0 0 0 .251.022l11.885-2.837c1.307-.312 2.474-.273 3.503.115 1.029.389 1.73 1.157 2.103 2.305.383 1.176.259 2.154-.373 2.931-.632.777-1.618 1.325-2.958 1.645l-11.885 2.836a.346.346 0 0 0-.202.13.216.216 0 0 0-.041.206l.623 1.916c.023.072.085.123.186.153.1.03.191.036.275.016l11.834-2.824c1.241-.296 2.291-.729 3.153-1.298.862-.569 1.499-1.274 1.911-2.115m-4.696-15.543c.482-.404.785-.911.908-1.519a4.564 4.564 0 0 0-.002-1.837 20.306 20.306 0 0 0-.177-.767 4.284 4.284 0 0 0-.226-.692c-.145-.281-.338-.403-.578-.367l-1.901.284-.206.03c-.068.011-.116.033-.145.067a.136.136 0 0 0-.029.118.863.863 0 0 0 .096.212c.115.195.208.427.278.696.069.27.122.492.158.668.093.455-.035.848-.382 1.18-.347.331-1.052.576-2.114.735l-13.799 2.059a.29.29 0 0 0-.201.121.264.264 0 0 0-.05.211l.399 1.959a.295.295 0 0 0 .13.185c.073.05.151.068.237.055l13.67-2.039a14.3 14.3 0 0 0 2.264-.52c.704-.226 1.26-.505 1.67-.839m-1.078-9.47c.136-.276.244-.612.326-1.005.082-.393.148-.818.198-1.277a14.869 14.869 0 0 0 .044-2.723c-.099-1.234-.416-2.361-.951-3.382a7.733 7.733 0 0 0-2.194-2.593c-.927-.707-2.042-1.239-3.343-1.595-1.301-.357-2.758-.488-4.372-.393-1.474.086-2.815.367-4.024.84-1.208.475-2.234 1.11-3.077 1.906a7.603 7.603 0 0 0-1.892 2.821c-.418 1.085-.575 2.288-.468 3.611.07.892.191 1.683.359 2.376.169.692.391 1.343.666 1.954.065.16.13.254.193.28a.295.295 0 0 0 .197.01l2.19-.397c.121-.022.204-.064.251-.127.048-.062.03-.173-.052-.332a11.972 11.972 0 0 1-.719-1.951 11.577 11.577 0 0 1-.33-1.997c-.07-.892.042-1.712.34-2.461a5.266 5.266 0 0 1 1.36-1.961c.609-.559 1.352-1.009 2.231-1.352.879-.343 1.874-.547 2.984-.612 1.197-.07 2.271.013 3.222.247.951.236 1.765.599 2.441 1.089a5.287 5.287 0 0 1 1.582 1.8c.379.709.604 1.502.673 2.379.054.669.066 1.25.035 1.745-.03.494-.104.864-.225 1.111l-5.23.307-.294-3.678a.273.273 0 0 0-.108-.207.337.337 0 0 0-.227-.065l-2.082.122a.357.357 0 0 0-.253.116c-.063.071-.093.143-.087.218l.457 5.706c.018.224.073.362.164.417.092.054.267.074.528.058l8.587-.504c.26-.015.456-.072.587-.169.132-.097.236-.208.313-.332m-.24-20.502c.009-.119-.011-.21-.058-.272-.048-.062-.156-.142-.323-.241l-13.555-7.762 14.07.76c.174.008.289-.007.344-.049.055-.042.088-.138.099-.286l.136-1.851c.009-.119-.011-.21-.058-.272-.048-.062-.159-.098-.332-.107l-18.769-1.013c-.209-.011-.344.011-.41.068-.065.056-.104.165-.115.329l-.151 2.052c-.009.119.006.209.045.271.039.062.151.142.335.242l13.529 7.76-14.044-.758c-.173-.009-.288.007-.343.049-.056.041-.089.136-.099.286l-.137 1.85c-.01.149.009.244.058.283.049.041.161.066.334.074l18.769 1.014c.208.01.345-.009.41-.057.064-.049.102-.155.114-.318zm-4.137-24.877-1.199 5.332-7.304-3.959zm5.715 9.431a.477.477 0 0 0 .012-.226c-.017-.048-.08-.104-.189-.168l-4.255-2.339 1.609-7.154 4.965-.819c.126-.009.206-.034.242-.074a.483.483 0 0 0 .088-.213l.454-2.018c.06-.263-.041-.371-.299-.323l-20.112 3.326a1.069 1.069 0 0 0-.266.059c-.03.017-.062.099-.095.246l-.459 2.04c-.03.133-.034.214-.016.248.019.034.093.084.219.15l17.231 9.488c.222.113.362.044.417-.204zm4.409-17.611a.586.586 0 0 0 .129-.221l.803-2.009c.045-.113.064-.194.055-.243-.007-.05-.071-.108-.192-.175l-12.622-7.62 15.426.601c.143.01.234.002.273-.026.038-.029.083-.105.133-.233l.803-2.007a.557.557 0 0 0 .056-.245c-.008-.048-.072-.107-.193-.173l-16.209-9.735c-.103-.063-.19-.088-.259-.076-.068.011-.139.108-.213.292l-.7 1.754a.464.464 0 0 0-.048.223c.008.049.064.105.168.167l12.517 7.589-15.287-.655c-.126-.006-.212.012-.257.055a.595.595 0 0 0-.125.211l-.794 1.988a.544.544 0 0 0-.051.232c.005.057.059.116.163.178l12.538 7.502-15.307-.567c-.127-.007-.211.009-.253.043a.516.516 0 0 0-.121.201l-.701 1.755c-.073.183-.086.298-.041.342.047.046.134.07.26.077l19.772.812c.143.011.235-.002.277-.037m8.416-20.371c.285-.174.583-.409.896-.706a17.268 17.268 0 0 0 2.67-3.289c.677-1.091 1.103-2.193 1.278-3.301a6.52 6.52 0 0 0-.266-3.195c-.352-1.019-.971-1.975-1.856-2.867-.885-.89-2.042-1.662-3.47-2.31-1.306-.594-2.618-.963-3.937-1.106a10.89 10.89 0 0 0-3.787.226 9.66 9.66 0 0 0-3.345 1.54c-1.024.732-1.898 1.683-2.624 2.855a16.433 16.433 0 0 0-1.158 2.18 11.19 11.19 0 0 0-.639 1.961c-.043.166-.046.273-.009.324a.26.26 0 0 0 .161.099l2.105.653a.444.444 0 0 0 .292.006c.078-.031.132-.134.16-.307.153-.722.35-1.384.592-1.982.243-.598.56-1.213.951-1.844a6.552 6.552 0 0 1 1.805-1.937 6.66 6.66 0 0 1 2.363-1.05 8.117 8.117 0 0 1 2.728-.14c.958.108 1.928.384 2.911.83 1.06.483 1.922 1.039 2.584 1.668.663.631 1.131 1.307 1.402 2.029.272.722.349 1.469.234 2.245-.115.772-.413 1.548-.893 2.324a14.598 14.598 0 0 1-1.046 1.498c-.33.407-.622.687-.876.841l-4.631-2.105 2.017-3.256c.049-.08.061-.154.035-.224a.27.27 0 0 0-.153-.158l-1.843-.838a.387.387 0 0 0-.286-.016.359.359 0 0 0-.208.146l-3.129 5.052c-.122.198-.161.34-.117.428.044.088.181.184.412.288l7.603 3.456c.231.105.431.146.604.123.171-.024.328-.07.47-.141m259.929 48.761h-78.449l-36.359-53.941c-4.924-6.311-4.211-12.619 8.402-12.619H39.08c-27.404-31.662-71.338-52.224-120.772-52.224-74.153 0-135.929 46.255-148.087 106.852h146.652c5.438.111 5.002-1.348 3.068-3.955l-35.234-50.873h15.708s33.724 48.256 37.189 53.832c5.49 8.085 4.566 13.597-8.813 12.513h-160.262c-.32 3.416-.488 6.868-.488 10.353 0 70.989 67.413 128.73 150.267 128.73 82.848 0 150.266-57.741 150.266-128.73 0-23.372-7.31-45.307-20.076-64.219H-60.568c-5.598 0-1.737 5.184-1.737 5.184l25.979 36.913h63.137zm-268.877 9.938c0-72.217 68.605-131 152.904-131 84.331 0 152.926 58.783 152.926 131 0 72.239-68.595 131.02-152.926 131.02-84.299 0-152.904-58.781-152.904-131.02m-30.643.164c0 86.702 82.342 157.24 183.547 157.24 101.176 0 183.505-70.538 183.505-157.24 0-86.677-82.329-157.219-183.505-157.219-101.205 0-183.547 70.542-183.547 157.219m-2.67 0c0-87.95 83.53-159.52 186.217-159.52 102.674 0 186.19 71.57 186.19 159.52 0 87.971-83.516 159.53-186.19 159.53-102.687 0-186.217-71.559-186.217-159.53" style="fill:#00a650;fill-opacity:1;fill-rule:nonzero;stroke:none;stroke-width:1.02132" transform="translate(379.346 581.209)"/></g><g style="stroke-width:1.02132"><path d="M0 0c-1.295-.203-2.865.383-2.865 1.548-.205.969.461 1.735 1.57 1.938 1.295.181 2.399-.203 3.481-.969C1.764 1.548 1.545 0 0 0m2.43-7.944c-.463-1.353-.463-2.899-1.11-4.061-2.615 0-5.031 2.131-5.48 4.254-.231 1.161.449 1.749 1.295 2.527 2.197.971 5.051-.778 5.295-2.72m-10.135 26.54c2.435-5.428 9.469-.598 12.314-3.667-2.845-1.57-7.474-1.175-10.519-.405-1.539.766-3.738 2.514-1.795 4.072m1.129-20.728c-19.758 15.661-40.412 31.943-57.963 50.145C-43.916 34.46-20.41 19.939-5.91.383Zm-2.649-6.579c-1.089-1.725-3.724-1.725-5.488-1.163-1.742.78-1.09 3.103-.639 4.256 1.532 2.323 3.069-.768 5.268-.192 1.295-.576.859-1.749.859-2.901M-41.719 5.033c.668 1.75 3.969 1.75 6.174 2.122 4.602-1.153 11.16.383 13.809-3.669-7.233.373-14.27-1.353-19.983 1.547m-34.904 40.465c-1.102.596-2.402.596-3.52.967 1.528 1.548 5.059.973 7 .385 13.207-5.798 61.182-52.059 70.176-62.52-12.719 7.561-62.021 51.677-73.656 61.168m-26.565-2.709c1.105 2.515 4.161 3.676 6.377 5.224-1.33 1.558-4.401.767-6.377 1.558a5972.706 5972.706 0 0 1 38.649 6.768c7.211 1.548 20.424 6.975 25.23-2.12 3.764-5.439 4.393-11.803 4.868-18.212-1.77-1.547-4.413 0-6.379.778-10.75 6.398-19.981 20.141-34.264 15.491-9.236-3.496-18.451-6.972-28.104-9.487m-27.877-22.263c-.894 0-2.65-.396-2.65.767 1.115 4.853 7.461 4.853 11.198 7.177l19.974 8.315c-8.124-6.013-18.657-11.598-28.522-16.259m20.856 21.89c-.458 1.534 1.522 2.111 2.42 3.082 1.082.213 2.608 0 2.404-1.177.871-1.724-1.534-1.905-2.404-2.492-.898.18-1.997-.393-2.42.587m14.035 19.148c1.32.384 3.52 0 2.865-1.738.233-1.546-1.775-1.737-2.646-2.505-1.084.181-3.52-.598-3.52 1.153-.637 2.312 2.436 1.738 3.301 3.09m7.68-.778c3.07 1.162 6.801 1.748 10.123 1.557 5.228 2.72 12.295 4.074 18.203 2.134-8.775-7.936-23.494-4.651-34.227-9.083.42 1.927 3.463 4.625 5.901 5.392m48.084 14.736 2.197-1.75c0-4.829 2.668-9.092 1.772-13.946.23 4.854-6.373 9.873-3.969 15.696m11.879-30.024-1.989-6.388c-1.761 1.546-2.416 4.647-2.185 7.74.871 2.518 4.391.396 4.174-1.352m-4.405 21.506c3.967-4.096 6.602-9.683 6.141-15.291-5.242 1.545-5.242 7.73-6.584 12.188zm7.245-34.485c1.306-.178.447-1.534.666-2.515-.219-.373-.666-.193-.893-.193-.621.778-.621 2.134.227 2.708m1.093 29.429c1.77-1.162 3.303-3.079 2.862-5.609-1.977.202-2.418 2.326-3.289 3.68zm12.983-47.616c-5.072-.578-3.531 6.194-8.795 6.779-1.981 1.932-1.981 4.842-1.326 7.359.672 1.161 2.203.767 3.068.383 1.547-2.133 1.342-5.03 2.865-7.176zm-6.604 38.342c1.764-1.174.893-3.498 1.975-5.056 1.098-3.297 9.232-2.707 5.039-6.182-1.975-.78-4.598.393-6.354-.78 0-3.871 5.045-5.023 6.551-7.74 2.662-.397 6.182.958 7.938-1.354-.641-3.486-7.475-2.709-5.276-7.356-.443-.983-1.968-.77-2.662-.383-4.344 4.05-5.679 9.87-10.517 13.346-1.75 4.447-.866 10.077-.649 14.917 1.11.588 2.43.588 3.955.588m-1.101 9.86c1.761-1.343 5.3-2.322 4.834-4.829-.227-.586-.866-.779-1.758-.779-.877 1.943-4.166 2.9-3.076 5.608m4.174 3.68h-1.098l-.211 2.91c.424-.766 1.969-1.929 1.309-2.91m2.197-15.097c2.174.383 4.16-1.546 4.828-3.104-.43-1.343-3.084-1.548-4.596-.575-.463.958-1.769 2.706-.232 3.679M-2.186 39.11c.245 2.133-3.505 3.306-1.783 5.801 4.199.958 4.834-2.495 5.289-5.022.225-2.313-1.09-4.47-3.724-4.842-2.616-.405-5.045.192-6.821 1.547v1.556c2.416.181 5.725-.769 7.039.96m.442 13.935c1.308 0 1.744-1.928 1.076-2.901-.871-1.171-2.607-1.544-3.914-.968-.893 1.556 1.307 3.306 2.838 3.869m-27.66-65.625c-1.116-.384-1.973.383-1.77 1.151-.863 1.938 2.438 2.132 2.438 3.678 1.941.192.422-1.93 1.3-2.685-.205-1.186-.462-2.348-1.968-2.144m-9.244-1.569c-.866 0-1.762-.181-2.172.587 0 2.719 3.506 1.94 5.691 2.133.885-2.315-1.312-3.282-3.519-2.72m-34.495 39.516c-.205.382-.627.382-1.043.382-1.334 3.104 3.711 1.93 4.577.971.449-1.941-2.186-1.727-3.534-1.353m-4.787-5.237c-1.328-.191-2.422.396-3.525.587 1.967.394 4.396 3.284 7.012 1.353.463-2.323-2.411-1.161-3.487-1.94m-10.564-8.109c-.41.368-1.076.944-.41 1.338 1.525.17 2.84.588 4.379.588.666-1.926-2.205-2.718-3.969-1.926m-2.18-6.4h-5.5c-.865 1.354.885 2.324 2.434 2.515l3.066-.386zm-5.281-7.165c-.856-.397-.856.573-1.305.956-.215 1.165.884 2.337 1.764 2.506.412-.958.875-2.685-.459-3.462m-24.568 70.274c-.894.213-1.994-.372-2.442.586-.628 2.326 2.856 2.899 3.951 1.355.462-.972-.664-1.547-1.509-1.941m-23.721-17.998c-1.1 0-2.198.191-2.198.981-.437 1.919 2.198 1.726 3.069 1.332 0-.959.202-2.122-.871-2.313m-3.519-7.765c-.215-.765-1.318-.958-2.203-.765-.65 1.185-.419 3.102 1.087 3.667 1.783.225 1.565-1.919 1.116-2.902m-7.026 1.944c-.664-.181-1.994 0-1.535.958-.229 1.749 1.97 2.144 3.492 2.144 0-1.343-1.085-2.144-1.957-3.102m-1.764-9.672h-1.099c-.439.959-.874 2.709.228 3.488 1.535 0 3.07.19 3.507-1.151.435-1.761-.872-2.72-2.636-2.337m-1.538-6.206c-2.175-.563-3.506.971-4.602 2.337l.436 1.149c1.535-.382 3.07-.765 4.166-2.11zm-5.26-4.827c-.662-.205-1.327 0-1.749.573l.653 1.556c.652-.382 1.318 0 1.754-.586.214-.562 0-1.162-.658-1.543m-4.182 4.048c-.869.216-2.417-.575-2.836.599-.453 1.736 2.199 4.638 3.939 2.132 0-.981.231-2.132-1.103-2.731m3.52 12.604c1.102 1.931 6.154 2.899 4.172-.595-.881-1.346-2.416-1.346-3.726-1.153-.664.372-.446 1.153-.446 1.748m1.32 9.286c.664 1.74 3.288.973 4.602.588-.435-1.161-2.631-1.364-3.734-1.161zm13.18-23.424c.218-1.353-.453-2.133-1.767-2.313-1.321-.406-2.637.586-2.637 1.546-.872 2.686 3.532 2.301 4.404.767M5.936 46.85c2.615-.18 2.41-2.708 2.839-4.434 0-.98-1.533-1.941-2.404-2.527-1.545-.407-2.641.586-3.287 1.547.449 2.119.449 4.433 2.852 5.414m1.089-13.359H4.199c-.469 1.556 1.969 1.748 2.826 1.151zM21.777 2.133C15.379 4.05 10.775 10.067 3.084 9.682c-.654 2.516 2.621 2.516 3.941 3.677 0 2.699 4.391 3.296 3.514 5.813-5.93-.983-9.435 3.08-15.121 2.505-7.033 6.577 8.312.969 7.447 7.176 1.744 1.151 4.61 0 6.36 1.151.884 3.689 5.494 2.515 7.896 4.456 1.539 4.267-4.812 1.738-7.012 3.296.219 4.253 1.737 9.682-1.334 12.976C5.5 52.482 5.27 47.833 2.186 48.6-.859 50.349.449 54.028-.436 56.723c-3.275 2.518-6.373-.948-10.109-.565-2.84-.201-1.539 2.903-2.172 4.628.203 1.162 1.102 2.911 2.838 2.709 2.174-.587 2.867-2.517 3.508-4.052 1.101 2.313 1.351 6.002-.205 8.125-6.809-1.929-2.649 5.629-7.91 6.204-5.502 1.356-3.073-5.797-7.039-7.75-2.86 0-5.911-.383-7.879 1.546-1.973 7.165-5.95 13.753-11.647 19.566-1.558 3.079-6.14 5.021-5.271 8.902-.666 2.313-7.467 3.87-7.051-.383 6.834-7.538 8.822-17.038 11.227-26.337 1.095-1.748 2.632-5.223 0-6.782l-15.815 5.237c-19.559 6.385-42.588 6.001-64.556 6.206-6.154-3.498-14.048-.205-19.987-3.893-1.103-1.545-1.536-4.639.231-5.991 6.808-3.498 6.14 5.223 12.281 3.678 1.321-.203 1.743-1.354 1.536-2.326-1.536-3.497-5.475-5.233-9.211-6.002-5.94-2.72-9.212 3.679-14.483 2.505v-2.122c0-3.103 3.95-1.737 6.143-2.505 0-1.163-.208-2.133-1.089-2.728-7.921-.374-15.597-1.335-22.636-4.075.664-3.272 5.937-1.342 7.475-4.053-2.625-3.078-3.288-6.78-4.827-10.267-4.629-2.889-8.79-6.961-7.461-12.58-.434-1.941-4.196-1.941-3.081-4.446l2.647-.214c2.827-.362 4.61 1.376 5.709 3.294 3.276.971 3.49-2.709 4.823-3.656l2.19 2.515c2.852.959 4.833-1.748 6.368-3.486 1.767 4.052 5.709-.97 9.01.564-1.535 3.701-1.099 8.146-1.767 12.22-1.088 2.11-3.955 1.728-5.925 3.082-.218 2.516 3.955 1.365 4.186 3.294 4.582 2.697 5.913 6.972 5.705 11.815 1.073 2.9 6.577.768 9.432 1.918 5.719 1.758 1.087 9.308 5.923 11.046 1.971 6.591 11.21 2.529 13.385 9.107 10.324 1.953 21.545.192 32.278.192 1.969-.779 5.047-1.547 4.404-4.255-.666-.79-1.531-1.163-2.635-.969-4.377-.396-9.441-.576-13.191 1.365-2.391 1.151-5.264.191-7.459-.396-3.737-5.044-10.532-4.265-14.705-7.739 1.975-1.75 5.031-2.146 6.375-4.085-4.186-1.345-8.141 1.374-12.72.61-.895-.61-2.865-.995-2.457-2.349 4.187-4.842-4.578-4.072-3.479-8.518.64-1.344 2.175-.77 3.479-.77 6.372 2.337 9.905 9.108 17.571 9.288l.69 5.235c4.601 5.034 3.953-2.505 7.01-3.496-2.635-3.861-7.908-5.213-10.555-8.69 0-2.707-1.958-6.612 1.779-7.944l-2.199-2.517c-7.028-2.142-13.833-4.468-20.641-7.163-6.808-2.135-2.634-8.531-3.955-12.976C-148.414 3.859-126.254.383-124.924-9.491c2.843-3.293 4.401-8.709 10.083-9.092-1.304 4.636-5.682 8.314-8.34 12.389-2.201 4.458-2.637 9.297-7.011 12.761l-1.1-3.464c-.885.18-1.974-.394-2.423.564-1.75 2.335-4.183 5.054-2.186 7.764l4.172-3.103-.23 5.201c10.977 13.191 29.67 15.504 42.389 27.714 4.377 2.312 9.646.959 14.716.959 4.604-1.727 3.936-6.195 6.795-9.093 1.983-2.7 8.584-1.547 7.026-6.197-5.043 1.342-9.885 3.86-15.59 1.941-5.936-.383-2.635-8.914-10.107-6.207-2.635-.756-2.174-3.283-2.405-5.223-.435-2.899-3.941-2.133-5.949-2.494-7.205-4.478-5.695-14.352-3.943-20.739 4.173 1.365 8.095 4.839 10.994 8.327 2.187 1.929.437 5.428 3.508 7.165.666 6.376 9.857 5.427 13.171 10.844 7.694-.396 19.098 4.061 23.93-2.901 2.41-2.696 7.91-1.749 8.776-5.604-5.903-2.136-13.813-.59-19.981-2.339-8.346-2.527-12.506-10.833-18.225-15.876-1.761-2.73-10.314-.767-6.808-5.235C-74.186-11.251-68.506-1.151-59.051 0c13.813 5.621 27.422-2.706 40.832-.971 0-2.12.225-5.031-2.191-6.78-1.764-.779-3.744.192-4.615 1.557-3.289 2.132-5.918-.961-9.416-.961-7.073-.214-8.373-8.336-14.084-10.853l.666-.575c7.685 1.523 20.218-2.913 23.705 6.206 2.199.372 5.486.755 7.033-1.57C-9.648-11.251-3.5-15.672 2.43-18.2c1.769.779 2.84 2.336 3.506 3.69 1.968 4.434-1.532 8.316-3.75 11.993 6.16 2.133 13.847.973 20.205 2.314.435.586 0 1.751-.614 2.336" style="fill:#1aaf6a;fill-opacity:1;fill-rule:nonzero;stroke:none;stroke-width:1.02132" transform="translate(402.719 497.237)"/></g><g style="stroke-width:1.02132"><path d="M0 0c-1.767 1.365-.656 3.282 0 4.647 1.086.383 1.763-.573 1.958-1.161C2.189 1.951 1.958-.384 0 0m-2.869 18.379c.898-.957 3.301.599 3.523-1.33 0-.767-.436-1.364-1.093-1.749l-2.849.587zm-3.952-5.978c1.998 2.899 4.85 0 7.039 0 2.631.372 2.199 2.706 2.199 4.446 0 4.455-5.705 3.881-9.238 3.295-3.279-2.72-2.42-7.741-1.981-11.622C-3.955 4.852-5.698-.972.654-3.873c1.304-1.352 3.503-.585 4.605.567 1.763 3.508 0 7.953-3.301 10.843-2.842 1.749-8.115.983-8.779 4.864" style="fill:#1aaf6a;fill-opacity:1;fill-rule:nonzero;stroke:none;stroke-width:1.02132" transform="translate(239.808 491.619)"/></g><g style="stroke-width:1.02132"><path d="M0 0c-1.548-.405-1.548-1.963-1.318-3.125 1.1-1.919 3.942-1.535 6.376-1.535 1.75.182 3.298 1.752 3.07 3.261C5.691.565 2.855-.981 0 0" style="fill:#1aaf6a;fill-opacity:1;fill-rule:nonzero;stroke:none;stroke-width:1.02132" transform="translate(248.148 512.165)"/></g></g></svg>