<svg xmlns="http://www.w3.org/2000/svg" viewBox="0 0 175.414 175.414"><path d="M46.808 126.679h18.319V49.934H46.808Zm11.419-68.385a10.4 10.4 0 0 1 4.373.845l-.566 1.933a8.313 8.313 0 0 0-3.866-.792c-4.239 0-7.012 2.779-7.012 7.383 0 4.66 2.637 7.412 6.729 7.412a7.154 7.154 0 0 0 3.007-.489v-5.478h-3.523V67.2h5.751v8.829a15.11 15.11 0 0 1-5.389 1.008 8.7 8.7 0 0 1-6.522-2.427 9.678 9.678 0 0 1-2.441-6.831c0-5.479 3.604-9.485 9.459-9.485Z" style="fill:#dc2715"/><path d="M68.1 126.679h18.322V49.934H68.1Zm8.475-48.392h2.382v18.359h-2.378ZM89.4 126.679h18.305V49.934H89.4Zm9.366-15.761c-2.976-1.093-4.821-2.669-4.821-5.232 0-2.859 2.354-4.985 5.9-4.985a8.192 8.192 0 0 1 4.012.9l-.655 1.936a6.713 6.713 0 0 0-3.439-.866c-2.486 0-3.436 1.5-3.436 2.75 0 1.715 1.11 2.557 3.626 3.539 3.089 1.225 4.631 2.7 4.631 5.394 0 2.836-2.058 5.307-6.36 5.307a9.375 9.375 0 0 1-4.666-1.2l.631-1.986a7.94 7.94 0 0 0 4.19 1.2c2.418 0 3.822-1.256 3.822-3.131.006-1.694-.965-2.702-3.431-3.626ZM110.7 49.934v76.745h18.314V49.934Zm16.127 30.371h-5.579v16.341h-2.388V80.305h-5.55v-2.018h13.512Z" style="fill:#4f5b54"/><path d="M174.914 87.707A87.207 87.207 0 1 1 87.7.5a87.207 87.207 0 0 1 87.214 87.207Z" style="fill:none;stroke:#878785"/><path d="M152.871 87.707A65.167 65.167 0 1 1 87.7 22.541a65.167 65.167 0 0 1 65.171 65.166Z" style="fill:none;stroke:#878785;stroke-width:.5px"/><path d="m24.8 35.83 3.86 3.132.351-.434 1.527 1.238-6.01 7.392-1.52-1.236 1.49-1.837-1.236-1.005 1.411-1.74 1.237 1 1.332-1.64-2.335-1.9-3.888 4.8-1.519-1.244Zm4.986-2.344 1.114-1.372 1.521 1.235-1.113 1.375 2 1.625-1.515 1.866-5.282-4.294 1.512-1.863Zm2.994 6.229a3.32 3.32 0 0 1 2.511.755 3.363 3.363 0 0 1-1.769 5.968 3.285 3.285 0 0 1-2.473-.746 3.371 3.371 0 0 1-1.266-2.292 3.385 3.385 0 0 1 2.994-3.686Zm-.851 3.485a1.206 1.206 0 0 0 .467.832 1.164 1.164 0 0 0 .88.262 1.186 1.186 0 0 0 .84-.445 1.114 1.114 0 0 0 .241-.889 1.2 1.2 0 0 0-1.346-1.091 1.125 1.125 0 0 0-.8.429 1.19 1.19 0 0 0-.282.902ZM45.4 18.151l1.19 1.757-3.218 2.185 5.822-.185-.375 2.285-4.474.02-1.407 4.013-2.449-.391 2.157-5.25-3 2.036-1.19-1.757Zm7.3 4.458 1.163 1.714-5.571 3.777 1.38 2.037-1.854 1.263-1.381-2.04-5.569 3.777-1.168-1.714ZM64.492 9.862l2.024 6.524-2.141.663-1.443-4.649-5.889 1.829-.582-1.876ZM60.43 19.6l-1.007-3.246 2.143-.664 1.009 3.245 4.855-1.506.582 1.874-9.112 2.825-.58-1.873Zm9.9-7.672 1.689-.523.583 1.872-1.69.525 2.141 6.923-2.292.712-3.823-12.332 2.293-.712ZM79.806 8.686l-.015-2.107 3.171-.021L82.953 5l2.247-.014.008 1.559 3.154-.021.015 2.106-1.209.008c.072.212.13.424.179.635a3.7 3.7 0 0 1 .073.71 3.253 3.253 0 0 1-.965 2.375 3.254 3.254 0 0 1-4.711.032 3.264 3.264 0 0 1-.979-2.366 4.753 4.753 0 0 1 .045-.708 3.451 3.451 0 0 1 .207-.64Zm13.526 5.729.031 4.528-2.248.016-.015-2.567-10.741.07-.012-1.962ZM83.246 9.193a1.1 1.1 0 0 0-.345.835 1.145 1.145 0 0 0 .357.829 1.128 1.128 0 0 0 .862.366 1.092 1.092 0 0 0 .817-.376 1.138 1.138 0 0 0 .348-.834 1.162 1.162 0 0 0-.354-.83 1.134 1.134 0 0 0-.83-.349 1.165 1.165 0 0 0-.855.359Zm10.048-.441 1.771-.013.013 1.963-1.772.012.019 2.565-2.242.015-.046-6.794 2.246-.013ZM111.488 10.031l-1.932 6.514-2.151-.637 1.373-4.633-5.361-1.588.558-1.881Zm3.957 1.171 2.15.639L114.1 23.5l-2.151-.635ZM136.763 28.089l-1.08 1.638-5.619-3.7-.588.891L134.16 30l-2.379 3.6-9.364-6.172-.386.594 9.406 6.2-1.011 1.528-11.278-7.43 2.409-3.652 9.361 6.174.358-.547-9.359-6.174 1-1.529 4.684 3.087.585-.889-5.62-3.7 1.085-1.638Zm-3.6-3.652-.7-4.09-4.034.965-.748-2.144 5.884-1.316.76.5 1.128 5.9ZM140.11 38.6l7.416 8.883-1.508 1.257-8.853-10.6 2.88-2.406 1.439 1.722Zm7.792 1.752-1.493 1.248-2.336-2.8-1.328 1.11-1.44-1.722 1.332-1.112-2.335-2.8 1.491-1.246Zm3.153-5.764a3.376 3.376 0 0 1-3.679 3.074 3.3 3.3 0 0 1-3.043-3.645 3.42 3.42 0 0 1 3.682-3.074 3.337 3.337 0 0 1 3.04 3.645Zm-3.23-1.523a1.239 1.239 0 0 0-.905.3 1.176 1.176 0 0 0-.428.813 1.2 1.2 0 0 0 .277.911 1.265 1.265 0 0 0 1.722.16 1.223 1.223 0 0 0 .447-.85 1.165 1.165 0 0 0-.281-.886 1.212 1.212 0 0 0-.832-.447Zm7.166 8.187-5.228 4.362-1.437-1.72 1.981-1.655-1.562-1.869 1.508-1.259 1.559 1.87 1.738-1.452ZM18 97.386 17.068 97a2.783 2.783 0 0 0 .491-1.656 2.441 2.441 0 0 0-1.012-1.923 3.554 3.554 0 0 0-2.376-.569 3.32 3.32 0 0 0-2.172.86 2.4 2.4 0 0 0-.71 2 1.966 1.966 0 0 0 .617 1.38l1.865-.126-.073-1.1.932-.064.145 2.184-3.484.232a3.234 3.234 0 0 1-.677-1.172 5.469 5.469 0 0 1-.329-1.5 3.249 3.249 0 0 1 .945-2.677 4.4 4.4 0 0 1 2.911-1.154 4.27 4.27 0 0 1 3.066.848 3.647 3.647 0 0 1 1.343 2.747 2.963 2.963 0 0 1-.55 2.076ZM11.741 105.818l-.05-.276 3.6-2.409-4.227-.952-.053-.277 5.5-3.15.2 1.084-3.556 1.944 4.07.829.053.277-3.493 2.275 4.028.609.188 1.012ZM14.2 112.152a2.291 2.291 0 0 1-1.281-1.617 1.638 1.638 0 0 1 .152-1.289 1.674 1.674 0 0 1 1.055-.829 1.87 1.87 0 0 1 1.666.33 3.118 3.118 0 0 1 1.141 1.741 2.322 2.322 0 0 1 .063.758q1.363-.393 1.01-1.617a2.073 2.073 0 0 0-.9-1.3l.7-.658a2.525 2.525 0 0 1 .619.671 3.176 3.176 0 0 1 .441.913 2.511 2.511 0 0 1-.046 1.936 2.526 2.526 0 0 1-1.611 1.066l-2.018.579a1.077 1.077 0 0 0-.859.734l-.5.146a1.924 1.924 0 0 1-.085-.963 1.022 1.022 0 0 1 .453-.601Zm2.092-.7a3.361 3.361 0 0 0-.081-.7 2 2 0 0 0-.746-1.128 1.208 1.208 0 0 0-1.063-.216c-.587.17-.777.6-.58 1.3a1.787 1.787 0 0 0 1.107 1.139ZM15.723 118.566l3.185-1.206a2.251 2.251 0 0 0 1.122-.727 1.092 1.092 0 0 0 .015-1.011 1.535 1.535 0 0 0-.461-.62 1.657 1.657 0 0 0-.7-.372l-4.064 1.539-.366-.959 5.474-2.073.249.661-.587.571a1.792 1.792 0 0 1 1.4 1.256q.68 1.791-1.511 2.618l-3.388 1.284ZM15.31 121.8l.985.155a3.116 3.116 0 0 0 .178 1.769 2.2 2.2 0 0 0 .7.9.7.7 0 0 0 .72.109c.426-.2.494-.613.2-1.232a4.135 4.135 0 0 0-.346-.538 4.04 4.04 0 0 1-.385-.608c-.353-.75-.253-1.261.308-1.527a.66.66 0 0 1 .593.039 1.816 1.816 0 0 1 .614.506 2.231 2.231 0 0 1 2.962-2.065 2.191 2.191 0 0 1 1.231 1.163 2.247 2.247 0 0 1 .258 1.373l.78.207-.284.884-.693-.361a2.172 2.172 0 0 1-1.059.944 2.136 2.136 0 0 1-1.584.141 2.167 2.167 0 0 1-1.246-1.013l-.449-.737a1.829 1.829 0 0 0-.273-.315c-.135-.125-.247-.163-.339-.118-.134.06-.12.253.034.576a5.086 5.086 0 0 0 .378.629 5.668 5.668 0 0 1 .385.632 2.017 2.017 0 0 1 .206 1.393 1.427 1.427 0 0 1-.822.926 1.518 1.518 0 0 1-1.485-.1 3.178 3.178 0 0 1-1.235-1.444 3.951 3.951 0 0 1-.334-1.169 3.443 3.443 0 0 1 .002-1.119Zm7.021-.905a1.114 1.114 0 0 0-.725-.627 1.354 1.354 0 0 0-1 .092 1.572 1.572 0 0 0-.781.734 1.1 1.1 0 0 0 .019.98 1.038 1.038 0 0 0 .723.609 1.629 1.629 0 0 0 1.067-.162 1.368 1.368 0 0 0 .7-.705 1.072 1.072 0 0 0-.003-.916ZM17.177 127.232l.816-.456a2.427 2.427 0 0 0 1 1.124 1.308 1.308 0 0 0 1.127-.176l4.311-2.422-.566-1.009.765-.431 1.068 1.907-5.063 2.841a2.132 2.132 0 0 1-1.894.251 3.489 3.489 0 0 1-1.564-1.629Zm10.138-3.132a.63.63 0 0 1 .06.491.646.646 0 0 1-1.244-.351.655.655 0 0 1 .8-.448.624.624 0 0 1 .384.308ZM27.144 128.161l-3.11 2.057q-1.13.746-.481 1.731a1.626 1.626 0 0 0 .769.624 1.4 1.4 0 0 0 .881.1l3.427-2.265.566.857-4.88 3.228-.569-.859.674-.446a1.609 1.609 0 0 1-.914-.237 2.141 2.141 0 0 1-.809-.7 1.9 1.9 0 0 1-.352-1.531 2.248 2.248 0 0 1 1.026-1.3l3.205-2.117ZM27.776 138.955l6.13-5.139.7.831-6.13 5.137ZM32.3 143.977l2.461-2.349a2.22 2.22 0 0 0 .75-1.106 1.1 1.1 0 0 0-.378-.94 1.556 1.556 0 0 0-.667-.39 1.64 1.64 0 0 0-.79-.069l-3.145 3-.709-.745 4.231-4.041.489.514-.319.755a1.794 1.794 0 0 1 1.78.61q1.319 1.385-.373 3l-2.619 2.5ZM34.335 145.507l.932-.481a2.864 2.864 0 0 0 .662 1.355c.475.43.9.445 1.255.047.258-.286.253-.739-.022-1.361a7.969 7.969 0 0 1-.384-1.016 2.22 2.22 0 0 1-.062-.578 1.551 1.551 0 0 1 .109-.521 1.41 1.41 0 0 1 .283-.449 1.337 1.337 0 0 1 1.142-.483 2.178 2.178 0 0 1 1.284.615 4.4 4.4 0 0 1 .92 1.378l-.863.514a2 2 0 0 0-.591-1.191 1.081 1.081 0 0 0-.582-.289.522.522 0 0 0-.483.156.927.927 0 0 0-.1 1.063l.326.749a2.664 2.664 0 0 1 .261 1.2 1.584 1.584 0 0 1-.444.95 1.492 1.492 0 0 1-1.234.545 2.367 2.367 0 0 1-1.43-.695 3.471 3.471 0 0 1-.979-1.508ZM41.449 145.536l-.527-.42.515-.642.525.421.767-.957 1.051.334-1.015 1.267 1.249 1.007-.51.639-1.255-1.006-1.818 2.265a1.705 1.705 0 0 0-.462.972.941.941 0 0 0 .426.741 1.86 1.86 0 0 0 .77.355l-.459.811a5.726 5.726 0 0 1-1.2-.753 1.521 1.521 0 0 1-.586-1.131 1.849 1.849 0 0 1 .447-1.312ZM42.126 152.425l2.919-4.026-.65-.472.516-.71 1.485 1.076-3.436 4.735Zm5.19-6.213a.622.622 0 0 1 .257.423.6.6 0 0 1-.112.477.63.63 0 0 1-.421.258.644.644 0 0 1-.74-.535.62.62 0 0 1 .118-.481.629.629 0 0 1 .419-.259.618.618 0 0 1 .479.117ZM47.573 150.119l-.565-.371.453-.687.563.37.674-1.025 1.077.229-.889 1.365 1.341.882-.452.687-1.341-.884-1.6 2.428a1.726 1.726 0 0 0-.368 1.012.973.973 0 0 0 .5.7 1.848 1.848 0 0 0 .8.278l-.374.854a5.689 5.689 0 0 1-1.268-.634 1.509 1.509 0 0 1-.689-1.072 1.839 1.839 0 0 1 .316-1.351ZM52.267 152.121l-1.852 3.237q-.675 1.176.351 1.761a1.621 1.621 0 0 0 .966.213 1.38 1.38 0 0 0 .831-.312l2.04-3.562.892.509-2.9 5.079-.893-.51.4-.7a1.614 1.614 0 0 1-.923.2 2.159 2.159 0 0 1-1.04-.263 1.908 1.908 0 0 1-1-1.212 2.228 2.228 0 0 1 .333-1.614l1.91-3.332ZM56.729 155.524l-.61-.282.349-.748.608.283.518-1.111 1.1.068-.683 1.477 1.458.677-.348.744-1.455-.678-1.225 2.635a1.737 1.737 0 0 0-.216 1.054.958.958 0 0 0 .592.619 1.866 1.866 0 0 0 .83.158l-.249.9a5.51 5.51 0 0 1-1.344-.445 1.535 1.535 0 0 1-.841-.957 1.854 1.854 0 0 1 .121-1.381ZM64.36 160.981l-3.96-1.444a2.1 2.1 0 0 0-.011 1.671 1.754 1.754 0 0 0 1.034.889 2.2 2.2 0 0 0 1.566.034l.153.852a1.993 1.993 0 0 1-.831.133 4.037 4.037 0 0 1-1.378-.262 2.58 2.58 0 0 1-1.5-1.342 2.936 2.936 0 0 1-.042-2.38 3.147 3.147 0 0 1 1.618-1.882 2.536 2.536 0 0 1 2.016-.1 2.656 2.656 0 0 1 1.6 1.331 2.435 2.435 0 0 1 .027 1.928 2.279 2.279 0 0 1-.292.572ZM62.776 158a1.633 1.633 0 0 0-2.084.852l3.038 1.106a1.488 1.488 0 0 0-.01-1.125 1.522 1.522 0 0 0-.944-.833ZM68.7 162.135a3.2 3.2 0 0 1 1.2-1.973 2.422 2.422 0 0 1 2.053-.388 2.456 2.456 0 0 1 1.726 1.215 3.9 3.9 0 0 1-1.009 4.339 2.7 2.7 0 0 1-3.782-.869 3.341 3.341 0 0 1-.188-2.324Zm1.059.24q-.487 2.156 1.032 2.5a1.32 1.32 0 0 0 1.247-.323 2.792 2.792 0 0 0 .765-1.486q.484-2.127-1.035-2.473a1.335 1.335 0 0 0-1.24.313 2.667 2.667 0 0 0-.768 1.469ZM78.815 159.669a1.85 1.85 0 0 0-.56-.2 1 1 0 0 0-.831.231 1.365 1.365 0 0 0-.446.847 2.275 2.275 0 0 0-.027.3l1.178.189-.138.868-1.182-.189-.785 4.909-1.016-.162.789-4.911-.85-.134.139-.87.84.138a2.591 2.591 0 0 1 .821-1.646 1.826 1.826 0 0 1 1.542-.4 3.212 3.212 0 0 1 .933.317ZM82.293 167.025l.445-.99a2.6 2.6 0 0 0 .739.412 2.644 2.644 0 0 0 .806.189 1.491 1.491 0 0 0 1.044-.295 1.149 1.149 0 0 0 .427-.868 1.363 1.363 0 0 0-.176-.756 2.632 2.632 0 0 0-1.042-.8l-.628-.332a2.549 2.549 0 0 1-1.093-.961 2.33 2.33 0 0 1-.261-1.274 1.931 1.931 0 0 1 .7-1.448 2.277 2.277 0 0 1 1.649-.511 2.919 2.919 0 0 1 1.816.524l-.369.934a2.5 2.5 0 0 0-.649-.336 2.731 2.731 0 0 0-.822-.188 1.192 1.192 0 0 0-.888.272 1.105 1.105 0 0 0-.358.793 1.333 1.333 0 0 0 .087.561 1.1 1.1 0 0 0 .3.433 4.786 4.786 0 0 0 .813.516l.639.34a2.607 2.607 0 0 1 1.1.981 2.549 2.549 0 0 1 .264 1.381 1.95 1.95 0 0 1-.8 1.489 2.837 2.837 0 0 1-1.958.532 3.2 3.2 0 0 1-1.785-.598ZM92.635 162.131l-.5.743a1.567 1.567 0 0 0-.571-.278 2.578 2.578 0 0 0-.8-.118 1.679 1.679 0 0 0-1.341.631 2.431 2.431 0 0 0-.458 1.635 2.184 2.184 0 0 0 .551 1.55 1.837 1.837 0 0 0 1.423.5 2.335 2.335 0 0 0 1.394-.581l.434.867a3.7 3.7 0 0 1-2.052.6 2.624 2.624 0 0 1-2-.751 2.975 2.975 0 0 1-.836-2.154 3.109 3.109 0 0 1 .753-2.269 3.142 3.142 0 0 1 3.2-.744 2.8 2.8 0 0 1 .803.369ZM94.713 167.336l-.441-4.952-.8.07-.077-.874 1.824-.163.52 5.828Zm-.172-8.091a.652.652 0 0 1 .7.581.637.637 0 0 1-.147.472.644.644 0 0 1-1.139-.359.634.634 0 0 1 .582-.694ZM102.15 163.5l-4.162.655a2.088 2.088 0 0 0 .8 1.471 1.775 1.775 0 0 0 1.338.276 2.209 2.209 0 0 0 1.384-.728l.549.669a1.957 1.957 0 0 1-.665.52 4.039 4.039 0 0 1-1.329.439 2.583 2.583 0 0 1-1.96-.451 2.912 2.912 0 0 1-1.19-2.06 3.135 3.135 0 0 1 .5-2.434 2.555 2.555 0 0 1 1.715-1.058 2.653 2.653 0 0 1 2.046.39 2.426 2.426 0 0 1 .958 1.67 2.323 2.323 0 0 1 .016.641Zm-2.831-1.842a1.6 1.6 0 0 0-1.078.624 1.634 1.634 0 0 0-.334 1.13l3.194-.5a1.49 1.49 0 0 0-.552-.979 1.514 1.514 0 0 0-1.23-.275ZM107.683 165.075l-.826-3.3a2.318 2.318 0 0 0-.589-1.2 1.11 1.11 0 0 0-1.007-.134 1.55 1.55 0 0 0-.668.387 1.638 1.638 0 0 0-.451.653l1.058 4.219-.993.25-1.421-5.674.685-.173.5.652a1.777 1.777 0 0 1 1.408-1.244q1.857-.465 2.425 1.8l.879 3.516ZM113.005 157.732l-.255.86a1.528 1.528 0 0 0-.63-.095 2.555 2.555 0 0 0-.8.127 1.694 1.694 0 0 0-1.088 1 2.413 2.413 0 0 0 .051 1.7 2.2 2.2 0 0 0 .986 1.318 1.856 1.856 0 0 0 1.51.051 2.309 2.309 0 0 0 1.155-.968l.676.7a3.733 3.733 0 0 1-1.782 1.182 2.634 2.634 0 0 1-2.129-.121 2.988 2.988 0 0 1-1.443-1.807 3.1 3.1 0 0 1 .046-2.388 3.129 3.129 0 0 1 2.833-1.667 2.9 2.9 0 0 1 .87.108ZM119.554 157.709l-3.866 1.688a2.12 2.12 0 0 0 1.144 1.22 1.758 1.758 0 0 0 1.363-.07 2.217 2.217 0 0 0 1.158-1.057l.7.51a1.979 1.979 0 0 1-.51.67 4.021 4.021 0 0 1-1.18.759 2.57 2.57 0 0 1-2.011.064 2.943 2.943 0 0 1-1.67-1.695 3.146 3.146 0 0 1-.13-2.479 2.559 2.559 0 0 1 1.395-1.461 2.66 2.66 0 0 1 2.077-.139 2.425 2.425 0 0 1 1.35 1.375 2.291 2.291 0 0 1 .18.615Zm-3.21-1.068a1.638 1.638 0 0 0-.919 2.056l2.963-1.293a1.493 1.493 0 0 0-.782-.808 1.536 1.536 0 0 0-1.262.045ZM127.8 155.614a2.293 2.293 0 0 1-1.239 1.651 1.654 1.654 0 0 1-1.286.182 1.689 1.689 0 0 1-1.069-.812 1.852 1.852 0 0 1-.1-1.693 3.112 3.112 0 0 1 1.4-1.546 2.146 2.146 0 0 1 .714-.253c-.484-.816-1.093-1-1.819-.57a2.077 2.077 0 0 0-1.034 1.2l-.817-.512a2.556 2.556 0 0 1 .492-.769 3.171 3.171 0 0 1 .771-.657 2.084 2.084 0 0 1 3.324.839l1.074 1.8a1.066 1.066 0 0 0 .929.645l.268.451a1.927 1.927 0 0 1-.908.327 1.034 1.034 0 0 1-.7-.283Zm-1.209-1.844a3.589 3.589 0 0 0-.656.256 1.99 1.99 0 0 0-.9 1.009 1.2 1.2 0 0 0 .058 1.082c.314.524.778.6 1.4.232a1.778 1.778 0 0 0 .822-1.36ZM133.6 152.558l-1.956-2.785a2.252 2.252 0 0 0-.98-.91 1.108 1.108 0 0 0-.985.234 1.559 1.559 0 0 0-.486.6 1.591 1.591 0 0 0-.187.768l2.5 3.56-.842.59-3.356-4.791.579-.406.7.429a1.777 1.777 0 0 1 .87-1.665q1.566-1.1 2.907.815l2.081 2.969ZM138.825 148.493l-.276-.335a2.1 2.1 0 0 1-.876 1.412 2.24 2.24 0 0 1-1.879.512 3.1 3.1 0 0 1-1.856-1.2 3.363 3.363 0 0 1-.808-2.243 2.363 2.363 0 0 1 .866-1.905 1.986 1.986 0 0 1 1.337-.536l-1.706-2.1.8-.647 5.2 6.4Zm-2.834-3.488a1.241 1.241 0 0 0-1.212.221 1.68 1.68 0 0 0-.657 1.341 2.432 2.432 0 0 0 .6 1.56c.9 1.1 1.838 1.242 2.837.432a1.447 1.447 0 0 0 .36-.5.866.866 0 0 0 .129-.528ZM140.5 137.162l5.2 4.695-.727.8-5.2-4.694-1.7 1.887-.734-.663 4.206-4.661.734.662ZM148.185 134.345l-2.6 3.321a2.11 2.11 0 0 0 1.588.529 1.751 1.751 0 0 0 1.166-.71 2.2 2.2 0 0 0 .514-1.478l.859.117a1.956 1.956 0 0 1-.131.831 4.085 4.085 0 0 1-.673 1.229 2.587 2.587 0 0 1-1.742 1.01 2.952 2.952 0 0 1-2.276-.694 3.137 3.137 0 0 1-1.289-2.124 2.548 2.548 0 0 1 .532-1.948 2.666 2.666 0 0 1 1.759-1.108 2.429 2.429 0 0 1 1.843.569 2.487 2.487 0 0 1 .45.456Zm-3.327.582a1.586 1.586 0 0 0-.362 1.194 1.628 1.628 0 0 0 .523 1.056l1.993-2.549a1.5 1.5 0 0 0-1.07-.339 1.521 1.521 0 0 0-1.084.638ZM149.338 128.019l.323.834a1.588 1.588 0 0 0-.554.311 2.4 2.4 0 0 0-.555.588 1.675 1.675 0 0 0-.253 1.457 2.421 2.421 0 0 0 1.077 1.316 2.185 2.185 0 0 0 1.584.439 1.85 1.85 0 0 0 1.228-.88 2.359 2.359 0 0 0 .326-1.475l.958.141a3.71 3.71 0 0 1-.692 2.027 2.615 2.615 0 0 1-1.759 1.2 2.994 2.994 0 0 1-2.246-.551 3.094 3.094 0 0 1-1.421-1.917 2.961 2.961 0 0 1 .522-2.332 3.039 3.039 0 0 1 .7-.72 2.829 2.829 0 0 1 .762-.438ZM156.317 126.626l-3.214-1.788a1.517 1.517 0 0 0-1.061-.215 1.13 1.13 0 0 0-.771.611 1.482 1.482 0 0 0-.175.773 1.74 1.74 0 0 0 .168.759l3.8 2.113-.5.9-7.2-4 .5-.9 2.654 1.474a1.5 1.5 0 0 1-.145-.845 2.17 2.17 0 0 1 .274-.939 1.816 1.816 0 0 1 1.243-.976 2.483 2.483 0 0 1 1.716.35l3.216 1.789ZM159.16 120.735l-3.1-1.4a2.272 2.272 0 0 0-1.308-.283 1.11 1.11 0 0 0-.728.7 1.53 1.53 0 0 0-.111.766 1.609 1.609 0 0 0 .234.758l3.96 1.787-.425.939-5.33-2.409.29-.644.821.012a1.79 1.79 0 0 1-.1-1.877q.789-1.743 2.92-.782l3.3 1.492ZM157.411 117.364a3.194 3.194 0 0 1-1.82-1.416 2.417 2.417 0 0 1-.148-2.087 2.442 2.442 0 0 1 1.406-1.57 3.9 3.9 0 0 1 4.194 1.5 2.7 2.7 0 0 1-1.3 3.658 3.335 3.335 0 0 1-2.332-.085Zm.361-1.021q2.087.735 2.606-.737a1.326 1.326 0 0 0-.178-1.276 2.772 2.772 0 0 0-1.386-.931q-2.058-.727-2.577.743a1.334 1.334 0 0 0 .17 1.267 2.656 2.656 0 0 0 1.365.934ZM160.761 111.438l-6.347-1.786.279-.991 6.172 1.735a.983.983 0 0 0 .783-.058.934.934 0 0 0 .451-.6l.9.254c-.363 1.279-1.106 1.761-2.238 1.446ZM160.345 108.214a3.205 3.205 0 0 1-1.992-1.165 2.694 2.694 0 0 1 .765-3.791 3.881 3.881 0 0 1 4.359.936 2.708 2.708 0 0 1-.808 3.8 3.35 3.35 0 0 1-2.324.22Zm.223-1.06q2.166.456 2.488-1.074a1.313 1.313 0 0 0-.345-1.244 2.8 2.8 0 0 0-1.5-.738q-2.136-.448-2.457 1.074a1.325 1.325 0 0 0 .336 1.234 2.664 2.664 0 0 0 1.478.748ZM166.114 102.542l-.748-.662a3.105 3.105 0 0 0 .8-1.585 2.172 2.172 0 0 0-.1-1.136.706.706 0 0 0-.545-.48q-.7-.085-.831.935a3.927 3.927 0 0 0 0 .638 4.146 4.146 0 0 1-.006.723q-.157 1.236-1.079 1.12a.662.662 0 0 1-.48-.354 1.842 1.842 0 0 1-.244-.757 2.231 2.231 0 0 1-3.606.146 2.183 2.183 0 0 1-.413-1.644 2.24 2.24 0 0 1 .523-1.294l-.547-.593.716-.594.39.678a2.152 2.152 0 0 1 1.4-.225 2.122 2.122 0 0 1 1.412.736 2.153 2.153 0 0 1 .5 1.522l-.019.863a1.7 1.7 0 0 0 .061.413c.043.176.118.27.222.281.144.019.237-.147.281-.5a5.234 5.234 0 0 0 .017-.733 6.044 6.044 0 0 1 .019-.742 2.015 2.015 0 0 1 .575-1.284 1.428 1.428 0 0 1 1.19-.336 1.5 1.5 0 0 1 1.2.881 3.184 3.184 0 0 1 .26 1.881 3.9 3.9 0 0 1-.347 1.163 3.48 3.48 0 0 1-.601.939Zm-6.4-3.016a1.121 1.121 0 0 0 .27.92 1.38 1.38 0 0 0 .888.455 1.544 1.544 0 0 0 1.054-.2 1.081 1.081 0 0 0 .515-.831 1.037 1.037 0 0 0-.284-.906 1.605 1.605 0 0 0-.985-.436 1.383 1.383 0 0 0-.972.216 1.055 1.055 0 0 0-.49.782ZM166.325 93.954a1.8 1.8 0 0 1 .889.889 2.83 2.83 0 0 1 .3 1.452l-.935-.043a1.949 1.949 0 0 0-.25-1.122.863.863 0 0 0-.717-.5 2.7 2.7 0 0 0-.954.124c-.316.095-.708.223-1.174.381l-4.139 1.384.049-1.065 4.6-1.483-4.442-1.745.049-1.065ZM23 54.152a2.849 2.849 0 1 1-2.847-2.852A2.849 2.849 0 0 1 23 54.152ZM158.576 54.152a2.85 2.85 0 1 1-2.849-2.849 2.852 2.852 0 0 1 2.849 2.849Z" style="fill:#878785"/></svg>