<svg xmlns="http://www.w3.org/2000/svg" width="222.28302mm" height="222.28302mm" viewBox="0 0 222.28302 222.28302"><g transform="translate(29.264 -41.094)"><circle cx="81.877365" cy="152.23584" r="111.14151" style="fill:#f9f9f9;stroke:#fff;stroke-width:0"/><path d="m0 0 2.349-.628.394 1.462L4.491.365c.092-.529.02-1.122-.118-1.643-.495-1.849-1.88-2.847-3.961-2.287-2.352.629-3.247 2.595-2.591 5.048.322 1.211.882 2.354 1.574 3.395l-2.698.472a21.672 21.672 0 0 1-1.565-4.101c-1.068-3.981.286-7.259 4-8.254 3.729-.999 6.543 1.169 7.479 4.677.567 2.119.788 3.947.999 5.477L1.295 4.838Z" style="fill:#0060a9;fill-opacity:1;fill-rule:nonzero;stroke:none" transform="matrix(1.42346 0 0 -1.42346 -6.31 126.058)"/><path d="M0 0c1.841 2.866 2.156 5.477-.2 6.993l-6.609 4.251-1.979-3.072 5.56-3.573c1.405-.904 1.984-1.836 1.092-3.225-.896-1.39-1.98-1.25-3.386-.348l-5.557 3.575-1.979-3.069 6.612-4.252C-4.089-4.239-1.845-2.867 0 0" style="fill:#0060a9;fill-opacity:1;fill-rule:nonzero;stroke:none" transform="matrix(1.42346 0 0 -1.42346 13.207 106.71)"/><path d="m0 0-5.087 6.549.025.022 6.931-5.119L4.325 3.36l-3.204 8.036.029.025 5.1-6.569 2.389 1.857-7.114 9.162-3.78-2.934L.568 5.902l-.027-.021-6.037 4.537-3.817-2.966 7.116-9.16z" style="fill:#0060a9;fill-opacity:1;fill-rule:nonzero;stroke:none" transform="matrix(1.42346 0 0 -1.42346 27.244 89.477)"/><path d="m0 0-4.043 10.874-3.419-1.272 4.038-10.875Z" style="fill:#0060a9;fill-opacity:1;fill-rule:nonzero;stroke:none" transform="matrix(1.42346 0 0 -1.42346 56.109 72.835)"/><path d="M0 0c-40.066 0-72.547 32.481-72.547 72.547 0 40.065 32.481 72.543 72.547 72.543 40.063 0 72.542-32.478 72.542-72.543C72.542 32.481 40.063 0 0 0m0 148.146c-41.753 0-75.6-33.849-75.6-75.599 0-41.754 33.847-75.6 75.6-75.6 41.749 0 75.6 33.846 75.6 75.6 0 41.75-33.851 75.599-75.6 75.599" style="fill:#0060a9;fill-opacity:1;fill-rule:nonzero;stroke:none" transform="matrix(1.42346 0 0 -1.42346 82.189 254.57)"/><path d="M0 0c-18.775-.704-35.114-10.888-44.367-25.913h29.4z" style="fill:#0060a9;fill-opacity:1;fill-rule:nonzero;stroke:none" transform="matrix(1.42346 0 0 -1.42346 79.25 73.806)"/><path d="m0 0 14.952-25.903h29.006C34.771-10.988 18.599-.832 0 0" style="fill:#0060a9;fill-opacity:1;fill-rule:nonzero;stroke:none" transform="matrix(1.42346 0 0 -1.42346 85.71 73.82)"/><path d="m0 0 14.578-25.246A54.237 54.237 0 0 1 20.696-.167c0 9.12-2.25 17.706-6.21 25.255z" style="fill:#0060a9;fill-opacity:1;fill-rule:nonzero;stroke:none" transform="matrix(1.42346 0 0 -1.42346 130.297 151.062)"/><path d="M0 0c9.245-15.266 25.78-25.617 44.773-26.258L29.614 0Z" style="fill:#0060a9;fill-opacity:1;fill-rule:nonzero;stroke:none" transform="matrix(1.42346 0 0 -1.42346 15.792 191.422)"/><path d="M0 0c18.825.774 35.188 11.089 44.37 26.25H15.15Z" style="fill:#0060a9;fill-opacity:1;fill-rule:nonzero;stroke:none" transform="matrix(1.42346 0 0 -1.42346 85.428 228.788)"/><path d="m0 0-14.698 25.456A54.21 54.21 0 0 1-21.095-.167a54.19 54.19 0 0 1 6.306-25.443z" style="fill:#0060a9;fill-opacity:1;fill-rule:nonzero;stroke:none" transform="matrix(1.42346 0 0 -1.42346 34.648 151.062)"/><path d="m0 0 4.451-7.707H-4.45Zm-21.064-47.55h6.437v35.786h5.889V-47.55h5.774v35.786h5.825V-47.55h5.804v35.786h5.893V-47.55h6.469V2.903h-42.091z" style="fill:#0060a9;fill-opacity:1;fill-rule:nonzero;stroke:none" transform="matrix(1.42346 0 0 -1.42346 82.21 119.995)"/><path d="m0 0-1.352-1.621 9.775-8.132-3.64-4.36-10.42 8.663-1.337-1.6 5.836-4.875-2.012-2.41 1.883-1.571 2.013 2.409 5.499-4.592 1.336 1.6-.948.79 5 5.983z" style="fill:#0060a9;fill-opacity:1;fill-rule:nonzero;stroke:none" transform="matrix(1.42346 0 0 -1.42346 21.56 207.737)"/><path d="m0 0-4.516 1.677 1.961 5.283 4.516-1.675Zm-4.1 9.757L-7.511.566l9.056-3.361 3.412 9.191Z" style="fill:#0060a9;fill-opacity:1;fill-rule:nonzero;stroke:none" transform="matrix(1.42346 0 0 -1.42346 49.769 238.802)"/><path d="m0 0 2.27-.841 4.584 12.345-2.27.842z" style="fill:#0060a9;fill-opacity:1;fill-rule:nonzero;stroke:none" transform="matrix(1.42346 0 0 -1.42346 54.562 248.597)"/><path d="M0 0h-1.431v3.211h-2.146v-7.929h-7V.909h5.154v2.096h-7.576v-9.843h9.422v-3.171h2.146v8.055H0v-8.055h2.145v13.22H0Z" style="fill:#0060a9;fill-opacity:1;fill-rule:nonzero;stroke:none" transform="matrix(1.42346 0 0 -1.42346 90.215 237.904)"/><path d="M0 0c.148.324.394.551.738.679.32.121.642.105.968-.042a1.233 1.233 0 0 0 .623-1.672 1.193 1.193 0 0 0-.696-.684 1.241 1.241 0 0 0-1.009.047 1.224 1.224 0 0 0-.668.702C-.168-.636-.153-.314 0 0m-.342-3.725c.897-.428 1.812-.467 2.75-.117a3.364 3.364 0 0 1 1.984 1.884c.41.901.441 1.822.102 2.737-.209.56-.511.997-.925 1.37l1.574.573-.664 1.78L.988 3.199l-.53 1.424-2.114-.789.532-1.423-3.529-1.316.665-1.78 1.603.615a3.335 3.335 0 0 1 .193-1.646 3.496 3.496 0 0 1 1.85-2.009" style="fill:#0060a9;fill-opacity:1;fill-rule:nonzero;stroke:none" transform="matrix(1.42346 0 0 -1.42346 105.328 234.691)"/><path d="m0 0-.683 1.829-1.796-.671-1.03 2.76-2.268-.846 2.789-7.474-12.091-4.513.731-1.952 12.089 4.511 1.104-2.955 2.267.847-2.907 7.793z" style="fill:#0060a9;fill-opacity:1;fill-rule:nonzero;stroke:none" transform="matrix(1.42346 0 0 -1.42346 124.053 230.826)"/><path d="m0 0-7.23 8.533L-17.25.044l1.287-1.518 8.244 6.988 5.941-7.011-2.004-1.699-3.887 4.585-1.685-1.427 3.881-4.583-1.314-1.112-3.882 4.58-1.693-1.433 3.871-4.571-2.081-1.762 1.253-1.48L2.838-.099 1.603 1.359z" style="fill:#0060a9;fill-opacity:1;fill-rule:nonzero;stroke:none" transform="matrix(1.42346 0 0 -1.42346 150.042 221.195)"/><path d="m0 0 1.611-.026-.132-8.078c-.011-.722.208-1.316.657-1.789.449-.472 1.049-.713 1.801-.725.794-.013 1.424.203 1.888.646.463.444.701 1.053.714 1.826l.13 8.038L8.28-.134l-.133-8.208c-.02-1.192-.406-2.117-1.161-2.774-.755-.655-1.774-.973-3.057-.952-1.321.02-2.333.364-3.037 1.032C.189-10.37-.153-9.425-.133-8.2z" style="fill:#0060a9;fill-opacity:1;fill-rule:nonzero;stroke:none" transform="matrix(1.42346 0 0 -1.42346 76.722 51.601)"/><path d="m0 0-4.358 9.625-1.6-8.314-1.503.289 2.23 11.59.633-.122L-.31 3.933l1.542 8.012 1.503-.288L.475-.091z" style="fill:#0060a9;fill-opacity:1;fill-rule:nonzero;stroke:none" transform="matrix(1.42346 0 0 -1.42346 102.74 71.172)"/><path d="m0 0 3.809 11.169 1.524-.519L1.525-.52Z" style="fill:#0060a9;fill-opacity:1;fill-rule:nonzero;stroke:none" transform="matrix(1.42346 0 0 -1.42346 107.688 72.528)"/><path d="m0 0-.729.361L.642 13.034l1.603-.795-1.139-9.135 6.479 6.488 1.552-.768Z" style="fill:#0060a9;fill-opacity:1;fill-rule:nonzero;stroke:none" transform="matrix(1.42346 0 0 -1.42346 119.236 77.549)"/><path d="m0 0-1.922-2.656 3.16-2.285-.802-1.11-3.16 2.284-2.492-3.446 4.334-3.135-.849-1.174-5.64 4.078L-.457 2.12l5.712-4.13-.849-1.175z" style="fill:#0060a9;fill-opacity:1;fill-rule:nonzero;stroke:none" transform="matrix(1.42346 0 0 -1.42346 137.257 70.853)"/><path d="m0 0-2.723-2.698c.234-.313.48-.598.737-.858.681-.686 1.286-1.076 1.817-1.17.531-.093 1.082.141 1.65.705.469.464.64.968.514 1.507-.127.54-.55 1.172-1.267 1.896A10.12 10.12 0 0 1 0 0m-3.933-10.736 1.383 5.804c-.254.257-.636.679-1.146 1.27l-3.655-3.624-1.134 1.145 8.381 8.308c.042-.042.351-.326.925-.848.575-.523.988-.91 1.236-1.162 1.997-2.013 2.194-3.814.592-5.404a3.2 3.2 0 0 0-1.904-.922c-.743-.093-1.387.032-1.932.377l-1.446-6.254z" style="fill:#0060a9;fill-opacity:1;fill-rule:nonzero;stroke:none" transform="matrix(1.42346 0 0 -1.42346 149.36 80.68)"/><path d="m0 0 1.546.39a4.09 4.09 0 0 1 .209-1.235c.142-.45.318-.82.525-1.107.367-.508.801-.819 1.303-.926.501-.11.968-.01 1.4.302.323.233.559.533.713.905.152.373.143 1.022-.029 1.949l-.196 1.031c-.166.873-.134 1.591.098 2.151.232.562.642 1.053 1.23 1.477.715.515 1.49.688 2.325.521.834-.166 1.537-.645 2.108-1.439.763-1.06 1.122-1.918 1.075-2.581l-1.415-.434c.001.266-.068.62-.208 1.062-.141.442-.32.815-.539 1.121-.32.444-.699.704-1.135.775-.437.072-.853-.032-1.249-.319a1.932 1.932 0 0 1-.568-.618 1.704 1.704 0 0 1-.229-.744c-.017-.261.035-.732.155-1.413l.192-1.053c.161-.877.122-1.602-.118-2.174-.239-.573-.689-1.098-1.352-1.574-.718-.517-1.537-.669-2.453-.452-.918.216-1.724.807-2.421 1.776C.354-1.76.032-.89 0 0" style="fill:#0060a9;fill-opacity:1;fill-rule:nonzero;stroke:none" transform="matrix(1.42346 0 0 -1.42346 147.097 98.656)"/><path d="m0 0 10.312 5.74.784-1.41L.783-1.408Z" style="fill:#0060a9;fill-opacity:1;fill-rule:nonzero;stroke:none" transform="matrix(1.42346 0 0 -1.42346 153.81 110.022)"/><path d="m0 0-9.623-3.815-.593 1.497 9.622 3.815-1.384 3.49 1.349.535 3.423-8.635-1.349-.533z" style="fill:#0060a9;fill-opacity:1;fill-rule:nonzero;stroke:none" transform="matrix(1.42346 0 0 -1.42346 173.037 116.232)"/><path d="m0 0-5.172-1.085-.33 1.576 5.171 1.086 5.597 5.061.34-1.624-4.441-3.937L6.814-.741l.342-1.624Z" style="fill:#0060a9;fill-opacity:1;fill-rule:nonzero;stroke:none" transform="matrix(1.42346 0 0 -1.42346 170.589 133.69)"/></g></svg>