<svg xmlns="http://www.w3.org/2000/svg" width="233.4595mm" height="233.43094mm" viewBox="0 0 233.4595 233.43094"><path d="M0 0c-178.906 0-323.929-144.995-323.929-323.895 0-178.911 145.023-323.906 323.929-323.906 178.882 0 323.918 144.995 323.918 323.906C323.918-144.995 178.882 0 0 0" style="fill:#87b9c2;fill-opacity:1;fill-rule:nonzero;stroke:none" transform="matrix(.35278 0 0 -.35278 116.732 2.45)"/><path d="M0 0v2.955c-180.533 0-326.885-146.316-326.885-326.85 0-180.556 146.34-326.861 326.885-326.873 180.521.012 326.875 146.317 326.875 326.873C326.875-143.361 180.521 2.955 0 2.955V-2.967c88.634 0 168.848-35.908 226.958-94 58.074-58.079 93.98-138.289 93.992-226.928-.012-88.651-35.918-168.859-93.992-226.951C168.848-608.927 88.634-644.833 0-644.833c-88.646 0-168.871 35.906-226.957 93.987-58.088 58.092-93.994 138.3-94.005 226.951.011 88.639 35.917 168.849 94.005 226.928 58.086 58.092 138.311 94 226.957 94z" style="fill:#068c69;fill-opacity:1;fill-rule:nonzero;stroke:none" transform="matrix(.35278 0 0 -.35278 116.732 2.45)"/><path d="M0 0c0-134.275 108.88-243.11 243.151-243.11 134.246 0 243.105 108.835 243.105 243.11 0 134.275-108.859 243.123-243.105 243.123C108.88 243.123 0 134.275 0 0" style="fill:#fff;fill-opacity:1;fill-rule:nonzero;stroke:none" transform="matrix(.35278 0 0 -.35278 30.956 116.713)"/><path d="M0 0h-2.496c0-135.667 109.996-245.63 245.647-245.63 135.627 0 245.611 109.963 245.611 245.63 0 135.656-109.984 245.629-245.611 245.629C107.5 245.629-2.496 135.656-2.496 0h5.003c0 66.454 26.935 126.593 70.49 170.136 43.549 43.543 103.705 70.479 170.154 70.479 66.436 0 126.569-26.936 170.107-70.479C456.823 126.593 483.748 66.454 483.748 0c0-66.465-26.925-126.593-70.49-170.135-43.538-43.544-103.671-70.468-170.107-70.468-66.449 0-126.605 26.924-170.154 70.468C29.442-126.593 2.507-66.465 2.507 0Z" style="fill:#139044;fill-opacity:1;fill-rule:nonzero;stroke:none" transform="matrix(.35278 0 0 -.35278 30.956 116.713)"/><path d="M0 0h6.888S8.775-.218 9.01-1.023l2.899-.243.857-.608 2.921-.425.621-.84 1.461-.207 1.04-.633 1.261-.426s.62-.196.62-1.012l.425-1.082.823-.608.224-.829 1.191-1.023.121-4.866 1.126-1.46v-23.6l-.408-1.057v-9.41l.294-.436v-13.779l-1.087-.62-.196-6.084-.414-1.047-.851-.415-1.248-.85-.62-.806-1.261-.425-.816-.644h-4.814l-.849 1.484-.835.62-1.886.828-3.53.208-1.674.424-5.865.22-1.26 1.242-.638 1.265-3.141.208-1.052 1.045s-1.662.196-1.662 1.048l-1.472 1.472-.822 1.425-.426 2.933s-.421.852-.421 2.105l.225 7.521v2.945l.374 1.772.035 2.621-.292 1.575-.117 3.843.622 1.069v13.181l.402.62v6.256l.42.852v1.886l-.61.622v3.564l.414 1.887 1.035.805.213 1.046.834 1.07.627 1.035 1.047.839.213.852 3.346.196.846.851 1.023.609z" style="fill:#ebb719;fill-opacity:1;fill-rule:nonzero;stroke:none" transform="matrix(.35278 0 0 -.35278 114.013 43.852)"/><path d="m0 0 6.911 9.098.966 1.426.753.461L11 12.088l.621 1.864.805 1.115 1.236.954 1.425.461 5.321 5.648.788 1.414 1.109.322.788.46.616.943 1.116.632.753.472.472 1.253.471.933.787.609.805.793 1.237 1.104.483 1.092.926.633 1.099.943 2.517 2.187.955.483.627.941 1.564.772 3.123-.149.915-.782.816-.782 4.049.309 1.448-.138.776-1.115.782-.311.789-1.576 1.259-.482 1.081-1.082 1.427-.471.638-.932.789-.322.447-.793.81-.322.144-1.542v-1.725l1.249-.334.137-1.402.978-.15.305-1.093v-1.103l-.8-.622-.317-2.369-.47-1.702-.611-.805-.941-1.254-.794-1.885-.926-.622-1.249-1.092-.816-1.105-.126-2.047-3.934-3.29-.483-1.092-.638-1.576-1.092-1.115L45.508 0 39.89-5.785l-.805-2.047-.505-1.564-1.398-2.668-1.087-1.127-1.259-1.081-.754-1.082-1.143-1.103-1.226-.632-3.157-.633-1.081-.622-1.564-.309-.782-.794-1.702-.15-1.593-.794-4.865-.161-1.105-.621-.942-.471-2.37-.149-.931-.461-4.072.138-.943.783-.92.942-1.258.322-.635 1.266-.782 1.081-.483 1.103-1.396.783-.638 1.104L0-12.846l-.284 1.702-.636.943-.788 1.725v4.877l.788 1.265.636.932z" style="fill:#ebb719;fill-opacity:1;fill-rule:nonzero;stroke:none" transform="matrix(.35278 0 0 -.35278 135.566 67.15)"/><path d="M0 0s3.778 3.139 4.641 3.634l1.45.862 4.261 4.243 3.002 1.449 3.922 3.163 1.31.864 2.565.62.742.346 1.087.977 2.306 1.208s.627 1.219 1.576 1.219l2.944.482.966 1.001 2.674.473 1.45 1.206 2.805.61s3.416 2.324 4.261 2.576l3.755 1.209 3.169.953 1.214 1.611h4.968l1.851-.875s3.158-2.805 4.866-6.451l.73-3.268s.718-2.552 1.576-3.426L67 11.536s.362-.611.362-1.439c0 0 .39-4.404-.586-4.877 0 0-4.744-4.025-6.326-4.623L58.012-1.83s-2.07-1.357-4.261-1.713c0 0-.845-.967-1.956-1.093 0 0-1.695-.104-2.673-.978 0 0-1.943-2.553-5.348-3.887l-9.691-8.51s-.874-.715-1.729-.828l-2.065-.863s-1.093-2.197-2.434-2.312l-1.344-.851H5.855S0-19.944-.852-15.688c0 0-.338 1.702-.712 2.68 0 0-.638 5.577 0 6.796l.712 4.991z" style="fill:#ebb719;fill-opacity:1;fill-rule:nonzero;stroke:none" transform="matrix(.35278 0 0 -.35278 154.501 87.042)"/><path d="M0 0h19.553l1.103.483h21.059S42.054 0 42.917 0h9.482s.714-.345 1.472-1.231c0 0 3.026.886 4.485-1.449 0 0 1.461-.23 1.589-2.898l.109-3.186 1.223-1.437v-2.312l.508-.989s1.304.484 1.081-4.14l.483-.852s.862-.598.708-1.564c0 0 .246-3.657-1.071-4.278 0 0-1.111-.116-1.201-1.069l-.157-3.049s-.717-2.668-5.088-3.887l-2.904-.598s-.886-.644-1.852-.737l-6.677.093s-1.828-.368-2.673-.484c0 0-7.068-.229-8.281.277 0 0-1.473 0-2.438-.76H18.23l-2.07-.712s-5.125-.115-8.529.598H.955l-6.551 3.151s-6.348 1.84-9.504 7.061l-.846 1.967v13.606s-1.213 2.944 6.429 6.441c0 0 .886.966 2.708.966C-6.809-1.472-2.473 0 0 0" style="fill:#ebb719;fill-opacity:1;fill-rule:nonzero;stroke:none" transform="matrix(.35278 0 0 -.35278 165.318 109.869)"/><path d="M0 0h3.415s.472 1.173 1.38 1.173l1.823.437s.461.92 1.589.92l5.255-.46s3.202-1.369 8.452-6.843c0 0 4.336-3.428 6.383-10.501l5.021-18.471 6.63-19.643s2.059-3.888.236-8.224c0 0-2.731-2.737-4.111-2.967 0 0-2.755.45-3.439-.678 0 0 .461-2.048-.673-2.979l-5.262-.449-2.052-1.818-7.073.22s-2.053 1.367-2.266 2.277c0 0-3.888-.679-5.049 1.827 0 0-3.405 5.235-5.021 13.71 0 0-4.778 14.136-5.013 17.792 0 0-4.797 14.412-5.723 16.447 0 0-1.582 0-.885 11.398 0 0 .213 2.301 1.598 2.76 0 0 2.065.231 2.49 2.059 0 0 .465 1.806 2.295 2.013" style="fill:#ebb719;fill-opacity:1;fill-rule:nonzero;stroke:none" transform="matrix(.35278 0 0 -.35278 83.263 51.954)"/><path d="M0 0s-.461 2.439 2.518 3.841c0 0 3.417 2.52 10.271-.884 0 0 5.48-.461 7.986-3.658l5.488-.461s2.058 0 6.618-3.622c0 0 5.71-2.3 8.459-4.577 0 0 5.924-2.072 8.441-6.418 0 0 .858-.461 1.755-.368 0 0 4.204.114 6.63-1.772 0 0 8.741-3.864 13.486-9.821 0 0 1.132-2.99.896-4.314 0 0 1.237-1.024 1.237-1.793 0 0 .868-4.301-1.685-4.634 0 0-2.203-1.335-2.852-3.338l-.351-7.279-.99-1.322-2.427-3.323-1-1.209-6.855.323s-5.641 4.519-6.192 5.312c0 0-1.099.874-2.335.874h-7.516l-1.553 1.22L19.575-35.71s-6.407 3.76-10.293 4.428c0 0-1.427.552-2.745 1.219 0 0-9.516 7.406-13.284 13.709 0 0-.557.207-.884 1.311l-.121 4.887.886 1.209s0 2.231.988 2.863c0 0 4.9 3.738 5.878 6.084" style="fill:#ebb719;fill-opacity:1;fill-rule:nonzero;stroke:none" transform="matrix(.35278 0 0 -.35278 56.523 75.698)"/><path d="M0 0v4.635s.236 1.002 1.122 1.564l.644.863s-.213 2.094 1.875 2.45l1.023.667s1.743.667 4.065.667l1.668.53s.886.782 5.526.678l1.887.655s.868.667 2.869.667h15.935l1.415-.781s4.215 0 5.216.437c0 0 .12.344.987.437h10.846s.335.574 1.571.574h8.725l.884-.448 1.001-.345 6.935-.103 1.898-.852s2.214-.919 2.449-3.45V-.126l.437-1.887s.564-.642.662-1.436l.655-3.623s.569-.783 1.334-.885c0 0 .644 0 .644-1.542v-3.014s-.212-1.196-1.093-1.414l-3.875-3.22s-.224-1.115-1-1.322h-9.046s-.351-.334-1.116-.45H52.871l-.886.322-2.542.231-.66-.437-1.121-.886H14.813s-3.081 1.22-3.857 1.874c0 0-1.899 0-2.877.783 0 0-2.755 0-4.214 1.011 0 0-2.743 1.956-3.112 3.728L.437-9.971l-.54 1.232-.109 2.748-.449 1.104-.104 3.323S-.212-.792 0 0" style="fill:#ebb719;fill-opacity:1;fill-rule:nonzero;stroke:none" transform="matrix(.35278 0 0 -.35278 46.377 115.724)"/><path d="m0 0 5.97-5.946s1.557-.62 2.506-.62c0 0 2.179-.322 3.135-.955 0 0 2.19-.92 3.761-.92 0 0 1.258 0 2.213 1.553 0 0 1.473.288 2.732 1.69.775.84.775 1.611 1.023 2.394 0 0 3.438 4.703 4.406 6.576l2.799 4.395s1.876.943 1.876 2.806c0 0 2.852 3.773 4.1 5.038 0 0 3.461 4.082 4.698 5.014 0 0 4.393 4.716 5.653 5.359 0 0 3.439 2.174 4.686 3.428 0 0 1.887 2.507 3.158 2.817 0 0 1.868 0 4.059 2.22 0 0 2.214.622 4.727 1.242 0 0 3.744 1.243 5.331 2.818 0 0 4.394 1.254 6.901 1.575l7.199 1.243s2.238-.333 3.767.321c0 0 .955.931 2.214.931l14.734-.308s1.247-.623 2.471-.944c0 0 6.619-.333 7.88-.944 0 0 3.133-1.24 6.267-1.564 0 0 5.027-4.059 9.731-3.748 0 0 .608 0 3.139-1.898 0 0 8.471-6.268 9.39-6.888 0 0 3.484-4.717 6.608-5.028 0 0 1.259-3.771 1.892-5.014 0 0 3.439-2.518 4.687-4.084 0 0 4.087-7.544 4.727-8.787l1.88-6.255s.943-2.232 2.191-2.553l7.21.321 3.331 1.208s.672.678 1.449.588c0 0 6.216-.07 7.021.62 0 0 5.608 3.473 6.102 4.669 0 0 .454.77.454 1.794l-.541 2.311-.315 4.958s-.092.827-1.122 1.438c0 0 0 2.381-1.789 5.692 0 0-.08 1.714-1.116 3.923 0 0-4.675 10.856-10.224 15.699 0 0-7.234 9.568-10.81 11.868 0 0-1.036 2.29-3.25 2.806l-2.922 1.37-3.491 1.702s-2.62.851-4.002.955c0 0-.845.414-.695 2.115 0 0 .426 3.843-2.553 3.935l-4.002.401s-.76 2.313-2.652 2.91l-2.012.782-5.918 4.416s-5.888 2.404-7.665 2.888c0 0-3.674.541-6.912.701 0 0-2.473.185-5.63 1.611 0 0-.413 1.046-7.855.517l-1.093.599s-1.605 1.298-3.416 1.298H87.949s-1.011-.092-1.978-.943l-2.035-1.046s-.415-.759-1.967-.586h-6.055l-2.128-.852-2.985-.069s-.926-.091-1.714-.885l-1.254-.149s-.775-.196-1.655-.922l-1.001-1.034s.08-.196-.84-.253h-8.454s-6.911-.426-16.63-7.936c0 0-9.822-4.417-17.239-12.789 0 0-10.485-9.891-15.406-19.608 0 0-3.934-5.372-4.642-9.237 0 0-1.966-5.106-2.805-6.567 0 0-.68-.931-.766-2.553 0 0-1.012-.334-1.092-2.461 0 0 0-2.151.08-3.255l.259-5.36S-1.282.323 0 0" style="fill:#ebb719;fill-opacity:1;fill-rule:nonzero;stroke:none" transform="matrix(.35278 0 0 -.35278 84.387 105.941)"/><path d="m0 0 8.372.127C8.977 0 10.27 0 12.307-1.161c0 0 6.089-4.577 7.9-7.545l1.449-1.425s1.178-.599 1.795-2.174l.691-1.782s2.639-3.106 3.219-4.785c0 0 2.058-3.715 2.306-6.947l.955-1.058s.954-1.346.954-3.956V-41.23l-.954-1.426s-.874-3.589-2.042-4.911l-.609-1.414s-.104-1.22-1.19-2.164l-2.639-3.6s-.474-1.529-.691-2.38l-1.685-1.426-4.774-3.566s-.855-2.76-3.587-2.909l-2.525-1.047s-.61-.254-1.438-.379c0 0-1.07-.944-2.139-.828H4.192s-1.19.113-1.921.953c0 0-1.069.817-1.903.817 0 0-2.368-.678-4.301-.563 0 0-3.226-.483-4.301-.483 0 0-2.635.104-3.589.84 0 0-4.077 1.414-5.125 2.38 0 0-5.98 3.715-8.74 8.719 0 0-1.191 2.404-2.859 3.588 0 0-2.524 2.048-2.391 4.543 0 0-1.082 2.978-1.685 5.014 0 0-.822 1.07-.966 2.863 0 0-.954 1.554-.954 4.084l-.236 8.12s.604 3.588 1.448 4.059c0 0 .237 2.162 1.311 3.359 0 0 4.163 6.336 5.601 7.521 0 0 4.923 6.212 7.436 7.534l2.507 1.323s.823 1.31 2.145 1.448l4.296.093s1.898-.231 2.755.241c0 0-.127 1.07 7.28.827" style="fill:#1b9242;fill-opacity:1;fill-rule:nonzero;stroke:none" transform="matrix(.35278 0 0 -.35278 116.87 102.846)"/><path d="m0 0 3.722.162s1.11 1.448 2.484 2.3l.437.242c1.564.769 3.122 1.955 6.831 0 0 0 2.542-3.117 3.71-5.463 0 0 2.921-6.993 4.663-9.133 0 0 1.167-.976 3.123-6.428 0 0 5.865-11.513 11.116-16.205 0 0 9.172-10.34 17.349-15.815 0 0 8.385-5.439 15.411-7.395 0 0 12.663-4.29 20.662-3.519 0 0 13.261-.587 17.747 1.564 0 0 5.261 1.369 7.206 2.346 0 0 6.244 4.279 11.345 6.808 0 0 9.714 7.626 13.433 9.949 0 0 9.73 9.764 11.887 13.836 0 0 6.631 8.787 8.596 11.339 0 0 2.134 3.29 3.887 5.464 0 0 5.441 7.211 7.206 8.568 0 0 5.28 3.68 5.842 4.67 0 0 .789 1.749 2.543 1.749 0 0 2.72.218 3.721-1.37 0 0 3.886-.574 5.244-.196 0 0 2.732.989 3.123-1.344 0 0-.782-1.738 1.184-2.727 0 0 1.346-.988 1.167-3.312 0 0 1.168-.782.967-2.737 0 0 .575-1.564-1.179-3.911 0 0-.374-2.726-.184-4.277 0 0 1.161-.967 1.161-4.877 0 0 .777-6.062-1.754-5.659 0 0-2.144-1.15-2.144-2.53 0 0-1.755-5.267-3.33-5.267 0 0-1.347-1.254-1.536-2.6 0 0-2.351-3.656-3.72-4.819 0 0-1.541-3.98-3.664-5.312 0 0-2.956-1.324-2.386-4.441 0 0 .8-1.713-1.534-2.921 0 0-4.118-2.934-5.477-5.06 0 0-2.316-4.083-5.25-6.234 0 0-1.167-1.38-1.954-2.358 0 0-2.732-3.508-6.246-4.095l-2.598-1.081s-2.662-1.036-4.584-1.656c0 0-.327-1.609-2.11-1.805 0 0-1.42-1.668-3.365-1.863l-3.76-1.841s-4.463-5.969-9.914-7.74c0 0-1.53-.172-1.53-1.933 0 0 .742-1.357 2.117-1.747 0 0 2.358-1.174 3.726-2.738l3.893-3.518s2.536-.598 3.887-4.083c0 0-.172-2.738 1.19-3.531 0 0 1.731-1.139 3.509-3.497 0 0 5.457-3.118 8.562-10.121 0 0 6.257-10.731 7.424-13.284 0 0 3.128-6.221 3.283-7.785 0 0 .991-2.14 1.79-3.13 0 0 4.663-6.234 5.267-8.764 0 0 2.14-2.726 1.754-9.937 0 0 .212-1.183 2.145-2.161 0 0 1.753-.161 1.351-4.474 0 0 1.553-1.945 1.754-5.083 0 0 .805-2.91.805-4.486 0 0 .788-1.334.374-4.474 0 0 1.346-2.944-1.944-5.073 0 0-1.362-2.312-4.099-1.942 0 0-2.14-1.955-3.922-1.955 0 0-2.905-.577-5.061-.381l-7.211-.196s-2.543.38-4.297 1.944c0 0-4.077 3.324-4.462 4.888 0 0-4.686 4.267-5.468 9.167 0 0-2.916 6.809-3.307 10.132 0 0-1.191 2.324-2.53 4.268 0 0-1.569 1.966-2.169 3.91 0 0-5.243 8.568-6.831 10.316 0 0-6.205 11.329-7.776 13.065 0 0-2.908 3.703-4.886 5.648 0 0-4.285 3.738-5.666 4.899 0 0-3.685 3.324-5.641 4.463 0 0-4.686 2.736-9.723 2.358 0 0-5.292.195-9.178-.599 0 0-2.755 0-4.486-1.334 0 0-.989-2.566-3.72-3.703 0 0-4.474-5.487-8.178-6.648 0 0-1.753-1.173-2.353-3.106 0 0-.953-3.323-3.494-5.657 0 0 .787-3.521-3.515-4.694 0 0-2.542-5.267-5.071-7.199 0 0-1.358-5.29-3.912-6.026 0 0-5.439-7.637-7.572-10.375 0 0-3.325-6.394-6.844-8.567 0 0-2.72-3.715-6.228-3.715 0 0-.989-.391-1.966-1.542 0 0-3.122-3.106-5.855-3.703l-4.077-3.129s-1.375-.794-5.272-.391c0 0-1.955-2.529-3.313-2.322 0 0-1.565-.404-3.147.965l-5.629.379s-1.576.782-2.719 2.151l-3.71 4.302s-.788.575-.978 3.117l.19 7.797s.414.793 1.542 2.335c0 0 3.91 6.44 6.078 8.569 0 0 2.145 3.519 3.112 4.301 0 0 1.362 4.473 3.696 6.809 0 0 .978 3.726 6.252 6.647 0 0 2.323 2.531 2.91 3.692 0 0 .2 4.509 5.065 7.027 0 0 .989.978 1.398 2.151 0 0 1.558 2.921 4.29 4.877 0 0 .374 1.345 1.742 3.496 0 0 1.932 5.451 6.417 9.569 0 0 1.955 1.334 2.922 3.496 0 0 4.29 6.246 6.831 5.474 0 0 2.52 7.614 7.8 8.57 0 0 3.898 1.747.977 3.115l-5.268 2.934s-7.205 2.553-8.764 4.278c0 0-5.06 3.497-6.63 4.865 0 0-4.285 2.162-5.262 3.496 0 0-9.765 8.235-14.849 14.285 0 0-9.131 8.729-10.322 13.617 0 0-3.496 4.486-4.485 5.646 0 0-1.168.99-1.168 3.717 0 0-3.105 4.472-3.317 6.037-.179 1.564-.38 0-.38 0l.201 5.451s-1.552 1.761-1.765 3.118l-.38 11.12s1.357 3.325 2.145 4.291c0 0 .978 1.576.978 2.553 0 0-.978 5.257 3.875 4.692" style="fill:#1b9242;fill-opacity:1;fill-rule:nonzero;stroke:none" transform="matrix(.35278 0 0 -.35278 85.145 115.565)"/><path d="M0 0c-181.086 0-327.885-146.778-327.885-327.84 0-181.085 146.799-327.863 327.885-327.863 181.062 0 327.874 146.778 327.874 327.863C327.874-146.778 181.062 0 0 0" style="fill:#87b9c2;fill-opacity:1;fill-rule:nonzero;stroke:none" transform="matrix(.35278 0 0 -.35278 116.732 1.059)"/><path d="M0 0v3.001c-182.747 0-330.893-148.111-330.893-330.841 0-182.742 148.146-330.853 330.893-330.853 182.712 0 330.882 148.111 330.882 330.853C330.882-145.11 182.712 3.001 0 3.001v-5.992c89.72 0 170.913-36.355 229.712-95.149 58.792-58.793 95.16-139.981 95.16-229.7 0-89.732-36.368-170.918-95.16-229.712C170.913-616.346 89.72-652.689 0-652.689c-89.732 0-170.935 36.343-229.735 95.137-58.794 58.794-95.149 139.98-95.149 229.712 0 89.719 36.355 170.907 95.149 229.7C-170.935-39.346-89.732-2.991 0-2.991z" style="fill:#068c69;fill-opacity:1;fill-rule:nonzero;stroke:none" transform="matrix(.35278 0 0 -.35278 116.732 1.059)"/><path d="M0 0c0-134.275 108.88-243.11 243.151-243.11 134.246 0 243.105 108.835 243.105 243.11 0 134.275-108.859 243.123-243.105 243.123C108.88 243.123 0 134.275 0 0" style="fill:#fff;fill-opacity:1;fill-rule:nonzero;stroke:none" transform="matrix(.35278 0 0 -.35278 30.956 116.713)"/><path d="M0 0h-2.496c0-135.667 109.996-245.63 245.647-245.63 135.627 0 245.611 109.963 245.611 245.63 0 135.656-109.984 245.629-245.611 245.629C107.5 245.629-2.496 135.656-2.496 0h5.003c0 66.454 26.935 126.593 70.49 170.136 43.549 43.543 103.705 70.479 170.154 70.479 66.436 0 126.569-26.936 170.107-70.479C456.823 126.593 483.748 66.454 483.748 0c0-66.465-26.925-126.593-70.49-170.135-43.538-43.544-103.671-70.468-170.107-70.468-66.449 0-126.605 26.924-170.154 70.468C29.442-126.593 2.507-66.465 2.507 0Z" style="fill:#139044;fill-opacity:1;fill-rule:nonzero;stroke:none" transform="matrix(.35278 0 0 -.35278 30.956 116.713)"/><path d="m0 0-16.297-10.028-3.899 6.314 11.455 7.027-15.837 25.763 4.852 2.99 7.938-12.904 5.336 3.289-9.12 14.836 4.853 2.99L5.325 14.205l.8.035 1.799.436c.898.322 1.639.633 2.203.966.568.322 1.248.736 2.04 1.22l6.218 3.818L2.852 45.936l4.847 2.991 19.432-31.582-6.171-3.796c-.845-.517-1.989-1.197-3.363-2.024a35.204 35.204 0 0 0-3.762-1.978c-1.449-.644-2.575-1.058-3.381-1.266a40.028 40.028 0 0 1-1.283-.333l2.214-3.623-4.847-2.99-9.109 14.791-5.331-3.29z" style="fill:#fff;fill-opacity:1;fill-rule:nonzero;stroke:none" transform="matrix(.35278 0 0 -.35278 33.402 177.261)"/><path d="m0 0-35.096-39.034-5.088 4.576L-5.101 4.578zm-27.555-5.911-4.246 3.807 3.82 4.244 4.237-3.819 11.438 12.732 5.09-4.578-35.073-39.023-5.1 4.578 6.014 6.694-5.935-.541c.024.034-.046.425-.213 1.207-.16.771-.304 1.84-.431 3.186-.19 2.519-.12 4.795.242 6.866.356 2.071.558 3.186.57 3.335-.144-.091-1.369-.437-3.629-1.045-2.271-.599-4.428-.886-6.465-.886-.999.011-1.988.034-2.909.069-.943.045-1.449.08-1.541.103l.034 6.28c.047 0 .69-.035 1.893-.092 1.225-.081 2.921.057 5.089.378 4.721.69 8.429 2.416 11.144 5.153 2.72 2.727 4.405 4.451 5.05 5.176l8.682 9.661-4.899 4.405 3.813 4.244 15.261-13.721-3.812-4.243-4.854 4.358-8.55-9.511c-.587-.668-2.133-2.508-4.607-5.544-2.483-3.036-3.835-6.97-4.082-11.8-.075-1.863-.047-3.358.103-4.485.144-1.128.248-1.875.333-2.232z" style="fill:#fff;fill-opacity:1;fill-rule:nonzero;stroke:none" transform="matrix(.35278 0 0 -.35278 62.04 190.26)"/><path d="m0 0-2.462-5.13-4.912 2.336-13.483-28.316-6.701 3.185 22.566 47.384 6.699-3.197-6.618-13.904zm-32.141-19.379c-.942 1.253-1.92 3.254-2.956 5.992-.73 1.99-1.258 3.841-1.551 5.554-.323 1.713-.473 2.635-.536 2.738-.046-.011-.655-.38-1.812-1.07-1.144-.69-3.168-1.541-6.078-2.542-2.271-.839-4.283-1.299-6.027-1.414-1.765-.092-2.697-.162-2.816-.195l-.237 6.291c.156.022 1.322.253 3.502.712 2.174.461 4.118 1.151 5.837 2.07 2.922 1.542 5.147 3.175 6.642 4.9 1.525 1.725 2.921 3.968 4.243 6.762l8.363 17.564 6.688-3.187-8.386-17.619c-.615-1.3-1.368-3.335-2.247-6.132-.874-2.758-.805-6.059.212-9.81.742-2.85 1.53-4.99 2.328-6.451.8-1.46 1.215-2.242 1.261-2.357l-5.026-3.773c-.013.046-.483.701-1.404 1.967" style="fill:#fff;fill-opacity:1;fill-rule:nonzero;stroke:none" transform="matrix(.35278 0 0 -.35278 83.389 208.26)"/><path d="m0 0-7.327 1.139L.718 52.986l7.326-1.127zm-25.5 45.349c-1.799-2.91-3.109-6.97-3.921-12.181-.81-5.232-.81-9.533.035-12.926.839-3.405 1.978-5.186 3.404-5.371 1.426-.172 3.053 1.184 4.877 4.083 1.812 2.91 3.156 7.004 4.002 12.295.863 5.221.851 9.488-.058 12.812-.885 3.324-2.069 5.095-3.519 5.325-1.381.219-2.979-1.138-4.82-4.037m13.24-25.981c-1.416-3.083-3.158-5.543-5.183-7.372-1.356-1.242-2.828-2.14-4.416-2.703a10.303 10.303 0 0 0-5.055-.437c-1.868.288-3.519 1.012-4.945 2.174-1.426 1.161-2.623 2.668-3.555 4.531-1.178 2.324-1.955 5.095-2.321 8.316-.351 3.207-.248 6.727.366 10.522.473 3.083 1.191 5.889 2.169 8.42.959 2.518 2.105 4.726 3.422 6.625 1.673 2.254 3.547 3.933 5.595 5.014 2.053 1.104 4.215 1.472 6.516 1.127 2.339-.334 4.335-1.334 5.991-3.025 1.627-1.691 2.888-3.864 3.762-6.521.678-2.185 1.103-4.646 1.236-7.337.138-2.691-.041-5.579-.518-8.674-.615-4.001-1.638-7.566-3.064-10.66" style="fill:#fff;fill-opacity:1;fill-rule:nonzero;stroke:none" transform="matrix(.35278 0 0 -.35278 107.124 226.74)"/><path d="m0 0-11.376-1.519 2.554-19.286 11.375 1.517zm12.743 7.441-2.18 16.388 7.35.99 6.9-52.031-7.338-.967-3.978 29.962L7.279.966l3.284-24.888-26.004-3.451-6.079 45.798 7.362.978 2.042-15.332L-.754 5.589-2.779 20.92l7.287.966L6.526 6.612z" style="fill:#fff;fill-opacity:1;fill-rule:nonzero;stroke:none" transform="matrix(.35278 0 0 -.35278 129.423 215.449)"/><path d="m0 0-9.88-4.439L4.169-35.723l5.089 2.3c.777.345 1.622.736 2.588 1.197.944.449 1.818.942 2.605 1.472.919.644 1.576 1.184 2.012 1.609l.708.668L.834 7.889l6.774 3.037 7.02-15.619 3.635 1.645-7.026 15.606 6.83 3.06 21.502-47.856-6.814-3.059L20.587-8.258l-3.641-1.633 12.169-27.051-6.762-3.036-2.778 6.176-1.035-.862-1.955-1.313c-.817-.459-1.651-.908-2.548-1.379a53.28 53.28 0 0 0-2.991-1.449L-.225-43.866-18.914-2.255l16.567 7.453z" style="fill:#fff;fill-opacity:1;fill-rule:nonzero;stroke:none" transform="matrix(.35278 0 0 -.35278 153.885 203.09)"/><path d="m0 0 4.145 3.553L7.866-.77 3.744-4.336l9.291-10.787-5.629-4.843-19.7 22.899 5.605 4.854zm14.698-17.056 12.858-14.928-5.618-4.843L12.8-26.21l-22.962-19.771-3.727 4.335zm-37.206-4.048c-.304-1.863.346-3.738 1.967-5.636 1.649-1.92 3.427-2.864 5.348-2.84 1.886.022 3.485.586 4.773 1.689 1.305 1.128 2.139 2.646 2.484 4.59.351 1.91-.299 3.83-1.944 5.739-1.628 1.897-3.404 2.807-5.313 2.738-1.933-.07-3.542-.667-4.854-1.796-1.328-1.126-2.14-2.621-2.461-4.484m-9.363-3.348-3.72 4.337 7.586 6.521-2.239 2.599 6.102 5.245 2.237-2.599 7.723 6.67 3.721-4.336-3.519-3.013c1.886.047 3.617-.162 5.239-.61 1.603-.449 3.098-1.484 4.48-3.07 2.386-2.783 3.353-6.073 2.812-9.846-.518-3.748-2.296-6.946-5.338-9.569-3.001-2.599-6.405-3.84-10.161-3.773-3.778.058-6.866 1.497-9.269 4.292-1.375 1.587-2.203 3.289-2.438 5.071-.26 1.795-.248 3.429.045 4.9z" style="fill:#fff;fill-opacity:1;fill-rule:nonzero;stroke:none" transform="matrix(.35278 0 0 -.35278 182.822 185.08)"/><path d="m0 0 3.721 5.739L23.848-7.246l2.506 3.888L6.228 9.626l3.709 5.751L30.065 2.392l2.266 3.521-.83 1.195-1.61 1.886a84.045 84.045 0 0 1-3.995 3.29 65.11 65.11 0 0 1-4.677 3.289L.869 28.707-14.273 5.222l-4.796 3.082L.103 38.022l19.823-12.788c2.259-1.472 4.37-2.819 6.314-4.072 1.92-1.243 3.64-2.483 5.124-3.691 1.587-1.278 2.823-2.416 3.732-3.429.909-1.011 1.392-1.54 1.471-1.575l2.474 3.818 4.796-3.093-21.979-34.021-4.767 3.095 3.047 4.726z" style="fill:#fff;fill-opacity:1;fill-rule:nonzero;stroke:none" transform="matrix(.35278 0 0 -.35278 196.162 175.565)"/><path d="M0 0c.036-.023.778-1.185 2.25-3.497 1.472-2.311 1.799-5.152.965-8.534-.919-3.795-3.789-6.843-8.597-9.166-4.819-2.312-10.61-2.438-17.406-.367-6.17 1.885-10.754 5.025-13.744 9.396-2.978 4.358-3.807 8.764-2.45 13.226 1.472 4.738 4.336 7.797 8.597 9.189 4.261 1.379 7.889 1.806 10.868 1.242l-1.869-6.129c-1.259.367-3.392.31-6.435-.219-3.012-.495-5.013-2.381-6.026-5.658-.885-2.887-.247-5.718 1.967-8.455 2.179-2.736 5.877-4.899 11.081-6.486 5.078-1.541 9.27-1.771 12.611-.702 3.37 1.071 5.481 3.048 6.35 5.878 1 3.3.321 6.096-2.037 8.36-2.381 2.278-4.543 3.738-6.498 4.361l-2.122-6.878-5.112 1.564 3.933 12.858L6.902 3.714 5.574-.656z" style="fill:#fff;fill-opacity:1;fill-rule:nonzero;stroke:none" transform="matrix(.35278 0 0 -.35278 26.56 84.161)"/><path d="m0 0 25.354-11.857c2.461-1.14 4.809-1.484 7.068-1.036 2.261.471 4.025 2.013 5.279 4.669 1.213 2.623 1.271 4.934.15 6.936-1.104 2.012-2.876 3.6-5.337 4.738L7.159 15.319l2.766 5.911 23.687-11.074c4.63-2.164 7.787-5.073 9.465-8.719 1.697-3.633 1.525-7.648-.495-11.961-2.011-4.313-4.967-7.004-8.833-8.052-3.858-1.046-8.136-.493-12.789 1.692L-2.719-5.797Z" style="fill:#fff;fill-opacity:1;fill-rule:nonzero;stroke:none" transform="matrix(.35278 0 0 -.35278 17.32 72.679)"/><path d="m0 0 17.017-11.122-7.443 25.798 4.037 6.176 6.293-22.095 29.114-.436-3.853-5.889-23.428.161 2.311-8.303 11.082-7.234-3.507-5.372L-3.507-5.36z" style="fill:#fff;fill-opacity:1;fill-rule:nonzero;stroke:none" transform="matrix(.35278 0 0 -.35278 24.07 59.647)"/><path d="m0 0 4.135 4.911 21.634-18.195c1.506-1.255 2.742-2.543 3.708-3.876a11.498 11.498 0 0 0 1.967-4.428c.403-1.702.414-3.542.058-5.475-.339-1.978-1.375-3.968-3.082-6.015-1.708-2.025-3.496-3.392-5.394-4.129-1.887-.736-3.698-1.127-5.429-1.138-1.287 0-2.709.414-4.267 1.218-1.53.817-2.634 1.484-3.261 2.014l-4.26 3.599 4.14 4.924 4.077-3.464c1.674-1.402 3.439-2.104 5.302-2.08 1.869 0 3.519.85 4.969 2.575 1.472 1.714 2 3.509 1.696 5.372-.345 1.84-1.357 3.461-3.013 4.865z" style="fill:#fff;fill-opacity:1;fill-rule:nonzero;stroke:none" transform="matrix(.35278 0 0 -.35278 35.106 44.704)"/><path d="m0 0 3.619-3.935-15.43-14.191 8.384-9.109L10.53-14.422l3.617-3.958L.214-31.193l9.114-9.89 15.757 14.48 3.652-3.98-20.479-18.85-28.406 30.892z" style="fill:#fff;fill-opacity:1;fill-rule:nonzero;stroke:none" transform="matrix(.35278 0 0 -.35278 46.47 33.485)"/><path d="M0 0c-2.518 1.679-5.226 1.679-8.146-.024-3.113-1.839-4.573-4.601-4.371-8.281.211-3.692 1.46-7.464 3.731-11.362 2.674-4.578 5.584-7.648 8.729-9.224 3.128-1.587 6.074-1.564 8.793.022 3.548 2.095 4.94 4.911 4.1 8.442-.834 3.543-1.305 5.43-1.403 5.681l5.549 3.245c1.426-3.245 1.967-7.085 1.662-11.501-.316-4.395-2.72-7.914-7.223-10.546-4.428-2.589-9.04-2.749-13.904-.519-4.866 2.254-8.799 5.97-11.841 11.156-2.955 5.026-4.216 10.213-3.789 15.572.437 5.372 2.851 9.328 7.217 11.892 4.359 2.554 8.602 2.877 12.686.944 4.099-1.933 7.033-4.129 8.763-6.59L5.067-4.301C4.193-3.128 2.498-1.68 0 0" style="fill:#fff;fill-opacity:1;fill-rule:nonzero;stroke:none" transform="matrix(.35278 0 0 -.35278 65.217 24.242)"/><path d="m0 0 16.573-15.377.858 22.623 6.866 2.864-2.341-30.076 5.802-13.939-5.924-2.461-5.795 13.939L-6.923-2.875z" style="fill:#fff;fill-opacity:1;fill-rule:nonzero;stroke:none" transform="matrix(.35278 0 0 -.35278 71.444 17.832)"/><path d="m0 0 11.409 2.92c1.415.37 2.536 1.335 3.324 2.922.8 1.588.955 3.301.483 5.153-.483 1.863-1.448 3.29-2.875 4.29-1.438 1-2.899 1.322-4.331.955l-11.426-2.922Zm-4.606 18.011 10.202 2.621c1.425.369 2.426 1.265 3.059 2.727.605 1.46.706 2.954.305 4.531-.375 1.449-1.173 2.726-2.45 3.853-1.237 1.104-2.588 1.483-4.003 1.128l-10.259-2.645Zm6.89 20.311c1.368.368 3.582.206 6.607-.426 3.03-.633 5.1-3.059 6.181-7.28.92-3.635.765-6.269-.483-7.89-1.248-1.622-1.932-2.473-2.012-2.577-.023-.045 1.191-.344 3.663-.897 2.473-.551 4.204-2.771 5.192-6.671 1.272-4.944.628-8.545-1.966-10.81-2.565-2.277-4.498-3.578-5.768-3.899L-4.854-6.877l-10.442 40.691Z" style="fill:#fff;fill-opacity:1;fill-rule:nonzero;stroke:none" transform="matrix(.35278 0 0 -.35278 89.18 24.98)"/><path d="m0 0 .638-5.313-20.823-2.461 1.46-12.307 18.792 2.22.629-5.313-18.811-2.209 1.593-13.375 21.243 2.495.627-5.371-27.644-3.255-4.899 41.693z" style="fill:#fff;fill-opacity:1;fill-rule:nonzero;stroke:none" transform="matrix(.35278 0 0 -.35278 107.729 8.549)"/><path d="m0 0 10.753-.162c1.305-.023 2.518.622 3.599 1.955 1.088 1.312 1.651 3.061 1.686 5.235.04 2.104-.471 3.828-1.518 5.198-1.047 1.368-2.248 2.069-3.604 2.081L.212 14.48Zm-.08-5.406-.248-16.779-6.434.08.626 42.024 15.049-.23c3.451-.045 6.597-.874 9.425-2.483 2.824-1.589 4.25-4.9 4.25-9.936.022-3.131-.73-5.43-2.226-6.902-1.507-1.472-2.932-2.622-4.301-3.428 1.225-.506 2.265-1.472 3.088-2.898.822-1.414 1.317-2.829 1.53-4.221.178-1.127.248-2.104.213-2.933-.035-.827-.069-2.299-.092-4.394 0-.483.102-1.265.351-2.31.259-1.071.54-1.956.874-2.715l-6.373.092c0 .08-.189.598-.603 1.519-.398.908-.575 2.023-.563 3.288.011 1.207.034 2.174.046 2.876 0 .713-.012 1.644-.07 2.817-.011 1.427-.483 2.864-1.426 4.255-.942 1.404-1.886 2.117-2.811 2.117z" style="fill:#fff;fill-opacity:1;fill-rule:nonzero;stroke:none" transform="matrix(.35278 0 0 -.35278 114.131 15.34)"/><path d="m0 0-6.302-27.282c-.598-2.634-.448-5.014.46-7.118.931-2.128 2.819-3.508 5.665-4.164 2.805-.656 5.088-.23 6.831 1.276 1.731 1.518 2.898 3.589 3.519 6.212l6.292 27.292 6.372-1.472-5.889-25.476c-1.156-4.969-3.335-8.671-6.538-11.086-3.238-2.416-7.16-3.082-11.812-2.014-4.653 1.07-7.89 3.382-9.713 6.947-1.841 3.554-2.179 7.856-1.041 12.87l5.888 25.464z" style="fill:#fff;fill-opacity:1;fill-rule:nonzero;stroke:none" transform="matrix(.35278 0 0 -.35278 136.582 10.456)"/><path d="m0 0 4.089-36.021L15.522-5.888l6.066-2.3L6.654-47.477-.551-44.74-4.663-8.58l-11.483-30.249-5.993 2.289L-7.233 2.749z" style="fill:#fff;fill-opacity:1;fill-rule:nonzero;stroke:none" transform="matrix(.35278 0 0 -.35278 151.057 14.44)"/><path d="m0 0-18.621-37.667-5.745 2.842 18.61 37.677z" style="fill:#fff;fill-opacity:1;fill-rule:nonzero;stroke:none" transform="matrix(.35278 0 0 -.35278 163.854 19.926)"/><path d="m0 0 5.429-3.404-33.825-28.351-5.349 3.336 10.495 42.888 5.406-3.346-8.539-33.584z" style="fill:#fff;fill-opacity:1;fill-rule:nonzero;stroke:none" transform="matrix(.35278 0 0 -.35278 175.34 26.584)"/><path d="m0 0-3.429-4.117L-19.49 9.386l-7.952-9.511 14.485-12.158-3.45-4.117-14.487 12.168-8.664-10.306 16.394-13.743-3.48-4.152-21.311 17.895 27.004 32.135z" style="fill:#fff;fill-opacity:1;fill-rule:nonzero;stroke:none" transform="matrix(.35278 0 0 -.35278 187.902 36.447)"/><path d="m0 0 7.269-7.925c.879-.966 2.173-1.402 3.858-1.287 1.72.114 3.369.908 4.998 2.368 1.552 1.427 2.46 2.99 2.742 4.693.259 1.702-.058 3.036-.966 4.048l-7.228 7.891zm-4.003-3.634-12.392-11.329-4.331 4.728 31.008 28.372L20.431 7.039c2.347-2.542 3.887-5.395 4.664-8.558.782-3.139-.655-6.475-4.319-9.914-2.248-2.15-4.427-3.196-6.527-3.117-2.115.081-3.932.335-5.451.783.472-1.254.472-2.657 0-4.232-.471-1.576-1.143-2.911-2.001-4.014-.706-.909-1.381-1.621-2.001-2.152-.615-.55-1.686-1.541-3.255-2.966-.361-.324-.834-.956-1.437-1.841-.587-.92-1.059-1.736-1.375-2.495l-4.312 4.693c.051.045.293.54.672 1.46.414.92 1.07 1.817 2.025 2.691.873.794 1.592 1.449 2.12 1.933a53.295 53.295 0 0 1 2.003 1.977c1.012 1.013 1.719 2.323 2.11 3.957.362 1.656.247 2.829-.391 3.496z" style="fill:#fff;fill-opacity:1;fill-rule:nonzero;stroke:none" transform="matrix(.35278 0 0 -.35278 187.31 45.726)"/><path d="M0 0c.622 1.966.115 4.128-1.519 6.464-1.569 2.242-3.243 3.577-5.054 3.968-1.777.403-3.485-.081-5.1-1.415-1.495-1.276-1.967-3.037-1.439-5.28a140.707 140.707 0 0 1 1.887-7.187c1.035-3.531 1.615-6.774 1.696-9.708.11-2.921-1.449-5.497-4.652-7.74-3.168-2.22-6.532-2.829-10.058-1.829-3.519 1.001-6.594 3.348-9.194 7.085-3.054 4.382-4.066 8.316-3.077 11.848 1.012 3.506 2.956 6.405 5.821 8.671l3.695-5.326c-1.897-1.138-3.122-2.851-3.662-5.141-.516-2.299.057-4.658 1.765-7.095 1.72-2.486 3.686-3.888 5.9-4.187 2.203-.299 3.945.092 5.257 1.184 1.869 1.576 2.575 3.439 2.105 5.556-.473 2.116-.88 3.944-1.238 5.497a328.583 328.583 0 0 1-2.426 9.777c-.954 3.68.247 6.693 3.606 9.039 3.415 2.369 6.751 3.083 9.988 2.115 3.249-.988 6.061-3.185 8.466-6.635C5.273 6.083 6.361 2.622 6.079-.736 5.756-4.06 4.014-7.004.788-9.569l-3.755 5.394C-1.616-3.358-.627-1.967 0 0" style="fill:#fff;fill-opacity:1;fill-rule:nonzero;stroke:none" transform="matrix(.35278 0 0 -.35278 202.569 57.314)"/><path d="m0 0-36.59-20.656-3.158 5.589 36.59 20.656z" style="fill:#fff;fill-opacity:1;fill-rule:nonzero;stroke:none" transform="matrix(.35278 0 0 -.35278 209.154 63.647)"/><path d="m0 0-4.795 10.614 4.887 2.209 12.26-27.235-4.888-2.184L2.675-5.925l-33.4-15.02-2.663 5.913z" style="fill:#fff;fill-opacity:1;fill-rule:nonzero;stroke:none" transform="matrix(.35278 0 0 -.35278 210.9 71.255)"/><path d="m0 0-17.068-14.848 22.416-3.243 2.104-7.142-29.639 5.521-14.502-4.279-1.812 6.152 14.474 4.291L-2.134 7.187z" style="fill:#fff;fill-opacity:1;fill-rule:nonzero;stroke:none" transform="matrix(.35278 0 0 -.35278 217.224 82.011)"/><path d="M0 0h6.888S8.775-.218 9.01-1.023l2.899-.243.857-.608 2.921-.425.621-.84 1.461-.207 1.04-.633 1.261-.426s.62-.196.62-1.012l.425-1.082.823-.608.224-.829 1.191-1.023.121-4.866 1.126-1.46v-23.6l-.408-1.057v-9.41l.294-.436v-13.779l-1.087-.62-.196-6.084-.414-1.047-.851-.415-1.248-.85-.62-.806-1.261-.425-.816-.644h-4.814l-.849 1.484-.835.62-1.886.828-3.53.208-1.674.424-5.865.22-1.26 1.242-.638 1.265-3.141.208-1.052 1.045s-1.662.196-1.662 1.048l-1.472 1.472-.822 1.425-.426 2.933s-.421.852-.421 2.105l.225 7.521v2.945l.374 1.772.035 2.621-.292 1.575-.117 3.843.622 1.069v13.181l.402.62v6.256l.42.852v1.886l-.61.622v3.564l.414 1.887 1.035.805.213 1.046.834 1.07.627 1.035 1.047.839.213.852 3.346.196.846.851 1.023.609z" style="fill:#ebb719;fill-opacity:1;fill-rule:nonzero;stroke:none" transform="matrix(.35278 0 0 -.35278 114.013 43.852)"/><path d="m0 0 6.911 9.098.966 1.426.753.461L11 12.088l.621 1.864.805 1.115 1.236.954 1.425.461 5.321 5.648.788 1.414 1.109.322.788.46.616.943 1.116.632.753.472.472 1.253.471.933.787.609.805.793 1.237 1.104.483 1.092.926.633 1.099.943 2.517 2.187.955.483.627.941 1.564.772 3.123-.149.915-.782.816-.782 4.049.309 1.448-.138.776-1.115.782-.311.789-1.576 1.259-.482 1.081-1.082 1.427-.471.638-.932.789-.322.447-.793.81-.322.144-1.542v-1.725l1.249-.334.137-1.402.978-.15.305-1.093v-1.103l-.8-.622-.317-2.369-.47-1.702-.611-.805-.941-1.254-.794-1.885-.926-.622-1.249-1.092-.816-1.105-.126-2.047-3.934-3.29-.483-1.092-.638-1.576-1.092-1.115L45.508 0 39.89-5.785l-.805-2.047-.505-1.564-1.398-2.668-1.087-1.127-1.259-1.081-.754-1.082-1.143-1.103-1.226-.632-3.157-.633-1.081-.622-1.564-.309-.782-.794-1.702-.15-1.593-.794-4.865-.161-1.105-.621-.942-.471-2.37-.149-.931-.461-4.072.138-.943.783-.92.942-1.258.322-.635 1.266-.782 1.081-.483 1.103-1.396.783-.638 1.104L0-12.846l-.284 1.702-.636.943-.788 1.725v4.877l.788 1.265.636.932z" style="fill:#ebb719;fill-opacity:1;fill-rule:nonzero;stroke:none" transform="matrix(.35278 0 0 -.35278 135.566 67.15)"/><path d="M0 0s3.778 3.139 4.641 3.634l1.45.862 4.261 4.243 3.002 1.449 3.922 3.163 1.31.864 2.565.62.742.346 1.087.977 2.306 1.208s.627 1.219 1.576 1.219l2.944.482.966 1.001 2.674.473 1.45 1.206 2.805.61s3.416 2.324 4.261 2.576l3.755 1.209 3.169.953 1.214 1.611h4.968l1.851-.875s3.158-2.805 4.866-6.451l.73-3.268s.718-2.552 1.576-3.426L67 11.536s.362-.611.362-1.439c0 0 .39-4.404-.586-4.877 0 0-4.744-4.025-6.326-4.623L58.012-1.83s-2.07-1.357-4.261-1.713c0 0-.845-.967-1.956-1.093 0 0-1.695-.104-2.673-.978 0 0-1.943-2.553-5.348-3.887l-9.691-8.51s-.874-.715-1.729-.828l-2.065-.863s-1.093-2.197-2.434-2.312l-1.344-.851H5.855S0-19.944-.852-15.688c0 0-.338 1.702-.712 2.68 0 0-.638 5.577 0 6.796l.712 4.991z" style="fill:#ebb719;fill-opacity:1;fill-rule:nonzero;stroke:none" transform="matrix(.35278 0 0 -.35278 154.501 87.042)"/><path d="M0 0h19.553l1.103.483h21.059S42.054 0 42.917 0h9.482s.714-.345 1.472-1.231c0 0 3.026.886 4.485-1.449 0 0 1.461-.23 1.589-2.898l.109-3.186 1.223-1.437v-2.312l.508-.989s1.304.484 1.081-4.14l.483-.852s.862-.598.708-1.564c0 0 .246-3.657-1.071-4.278 0 0-1.111-.116-1.201-1.069l-.157-3.049s-.717-2.668-5.088-3.887l-2.904-.598s-.886-.644-1.852-.737l-6.677.093s-1.828-.368-2.673-.484c0 0-7.068-.229-8.281.277 0 0-1.473 0-2.438-.76H18.23l-2.07-.712s-5.125-.115-8.529.598H.955l-6.551 3.151s-6.348 1.84-9.504 7.061l-.846 1.967v13.606s-1.213 2.944 6.429 6.441c0 0 .886.966 2.708.966C-6.809-1.472-2.473 0 0 0" style="fill:#ebb719;fill-opacity:1;fill-rule:nonzero;stroke:none" transform="matrix(.35278 0 0 -.35278 165.318 109.869)"/><path d="M0 0h3.415s.472 1.173 1.38 1.173l1.823.437s.461.92 1.589.92l5.255-.46s3.202-1.369 8.452-6.843c0 0 4.336-3.428 6.383-10.501l5.021-18.471 6.63-19.643s2.059-3.888.236-8.224c0 0-2.731-2.737-4.111-2.967 0 0-2.755.45-3.439-.678 0 0 .461-2.048-.673-2.979l-5.262-.449-2.052-1.818-7.073.22s-2.053 1.367-2.266 2.277c0 0-3.888-.679-5.049 1.827 0 0-3.405 5.235-5.021 13.71 0 0-4.778 14.136-5.013 17.792 0 0-4.797 14.412-5.723 16.447 0 0-1.582 0-.885 11.398 0 0 .213 2.301 1.598 2.76 0 0 2.065.231 2.49 2.059 0 0 .465 1.806 2.295 2.013" style="fill:#ebb719;fill-opacity:1;fill-rule:nonzero;stroke:none" transform="matrix(.35278 0 0 -.35278 83.263 51.954)"/><path d="M0 0s-.461 2.439 2.518 3.841c0 0 3.417 2.52 10.271-.884 0 0 5.48-.461 7.986-3.658l5.488-.461s2.058 0 6.618-3.622c0 0 5.71-2.3 8.459-4.577 0 0 5.924-2.072 8.441-6.418 0 0 .858-.461 1.755-.368 0 0 4.204.114 6.63-1.772 0 0 8.741-3.864 13.486-9.821 0 0 1.132-2.99.896-4.314 0 0 1.237-1.024 1.237-1.793 0 0 .868-4.301-1.685-4.634 0 0-2.203-1.335-2.852-3.338l-.351-7.279-.99-1.322-2.427-3.323-1-1.209-6.855.323s-5.641 4.519-6.192 5.312c0 0-1.099.874-2.335.874h-7.516l-1.553 1.22L19.575-35.71s-6.407 3.76-10.293 4.428c0 0-1.427.552-2.745 1.219 0 0-9.516 7.406-13.284 13.709 0 0-.557.207-.884 1.311l-.121 4.887.886 1.209s0 2.231.988 2.863c0 0 4.9 3.738 5.878 6.084" style="fill:#ebb719;fill-opacity:1;fill-rule:nonzero;stroke:none" transform="matrix(.35278 0 0 -.35278 56.523 75.698)"/><path d="M0 0v4.635s.236 1.002 1.122 1.564l.644.863s-.213 2.094 1.875 2.45l1.023.667s1.743.667 4.065.667l1.668.53s.886.782 5.526.678l1.887.655s.868.667 2.869.667h15.935l1.415-.781s4.215 0 5.216.437c0 0 .12.344.987.437h10.846s.335.574 1.571.574h8.725l.884-.448 1.001-.345 6.935-.103 1.898-.852s2.214-.919 2.449-3.45V-.126l.437-1.887s.564-.642.662-1.436l.655-3.623s.569-.783 1.334-.885c0 0 .644 0 .644-1.542v-3.014s-.212-1.196-1.093-1.414l-3.875-3.22s-.224-1.115-1-1.322h-9.046s-.351-.334-1.116-.45H52.871l-.886.322-2.542.231-.66-.437-1.121-.886H14.813s-3.081 1.22-3.857 1.874c0 0-1.899 0-2.877.783 0 0-2.755 0-4.214 1.011 0 0-2.743 1.956-3.112 3.728L.437-9.971l-.54 1.232-.109 2.748-.449 1.104-.104 3.323S-.212-.792 0 0" style="fill:#ebb719;fill-opacity:1;fill-rule:nonzero;stroke:none" transform="matrix(.35278 0 0 -.35278 46.377 115.724)"/><path d="m0 0 5.97-5.946s1.557-.62 2.506-.62c0 0 2.179-.322 3.135-.955 0 0 2.19-.92 3.761-.92 0 0 1.258 0 2.213 1.553 0 0 1.473.288 2.732 1.69.775.84.775 1.611 1.023 2.394 0 0 3.438 4.703 4.406 6.576l2.799 4.395s1.876.943 1.876 2.806c0 0 2.852 3.773 4.1 5.038 0 0 3.461 4.082 4.698 5.014 0 0 4.393 4.716 5.653 5.359 0 0 3.439 2.174 4.686 3.428 0 0 1.887 2.507 3.158 2.817 0 0 1.868 0 4.059 2.22 0 0 2.214.622 4.727 1.242 0 0 3.744 1.243 5.331 2.818 0 0 4.394 1.254 6.901 1.575l7.199 1.243s2.238-.333 3.767.321c0 0 .955.931 2.214.931l14.734-.308s1.247-.623 2.471-.944c0 0 6.619-.333 7.88-.944 0 0 3.133-1.24 6.267-1.564 0 0 5.027-4.059 9.731-3.748 0 0 .608 0 3.139-1.898 0 0 8.471-6.268 9.39-6.888 0 0 3.484-4.717 6.608-5.028 0 0 1.259-3.771 1.892-5.014 0 0 3.439-2.518 4.687-4.084 0 0 4.087-7.544 4.727-8.787l1.88-6.255s.943-2.232 2.191-2.553l7.21.321 3.331 1.208s.672.678 1.449.588c0 0 6.216-.07 7.021.62 0 0 5.608 3.473 6.102 4.669 0 0 .454.77.454 1.794l-.541 2.311-.315 4.958s-.092.827-1.122 1.438c0 0 0 2.381-1.789 5.692 0 0-.08 1.714-1.116 3.923 0 0-4.675 10.856-10.224 15.699 0 0-7.234 9.568-10.81 11.868 0 0-1.036 2.29-3.25 2.806l-2.922 1.37-3.491 1.702s-2.62.851-4.002.955c0 0-.845.414-.695 2.115 0 0 .426 3.843-2.553 3.935l-4.002.401s-.76 2.313-2.652 2.91l-2.012.782-5.918 4.416s-5.888 2.404-7.665 2.888c0 0-3.674.541-6.912.701 0 0-2.473.185-5.63 1.611 0 0-.413 1.046-7.855.517l-1.093.599s-1.605 1.298-3.416 1.298H87.949s-1.011-.092-1.978-.943l-2.035-1.046s-.415-.759-1.967-.586h-6.055l-2.128-.852-2.985-.069s-.926-.091-1.714-.885l-1.254-.149s-.775-.196-1.655-.922l-1.001-1.034s.08-.196-.84-.253h-8.454s-6.911-.426-16.63-7.936c0 0-9.822-4.417-17.239-12.789 0 0-10.485-9.891-15.406-19.608 0 0-3.934-5.372-4.642-9.237 0 0-1.966-5.106-2.805-6.567 0 0-.68-.931-.766-2.553 0 0-1.012-.334-1.092-2.461 0 0 0-2.151.08-3.255l.259-5.36S-1.282.323 0 0" style="fill:#ebb719;fill-opacity:1;fill-rule:nonzero;stroke:none" transform="matrix(.35278 0 0 -.35278 84.387 105.941)"/><path d="m0 0 8.372.127C8.977 0 10.27 0 12.307-1.161c0 0 6.089-4.577 7.9-7.545l1.449-1.425s1.178-.599 1.795-2.174l.691-1.782s2.639-3.106 3.219-4.785c0 0 2.058-3.715 2.306-6.947l.955-1.058s.954-1.346.954-3.956V-41.23l-.954-1.426s-.874-3.589-2.042-4.911l-.609-1.414s-.104-1.22-1.19-2.164l-2.639-3.6s-.474-1.529-.691-2.38l-1.685-1.426-4.774-3.566s-.855-2.76-3.587-2.909l-2.525-1.047s-.61-.254-1.438-.379c0 0-1.07-.944-2.139-.828H4.192s-1.19.113-1.921.953c0 0-1.069.817-1.903.817 0 0-2.368-.678-4.301-.563 0 0-3.226-.483-4.301-.483 0 0-2.635.104-3.589.84 0 0-4.077 1.414-5.125 2.38 0 0-5.98 3.715-8.74 8.719 0 0-1.191 2.404-2.859 3.588 0 0-2.524 2.048-2.391 4.543 0 0-1.082 2.978-1.685 5.014 0 0-.822 1.07-.966 2.863 0 0-.954 1.554-.954 4.084l-.236 8.12s.604 3.588 1.448 4.059c0 0 .237 2.162 1.311 3.359 0 0 4.163 6.336 5.601 7.521 0 0 4.923 6.212 7.436 7.534l2.507 1.323s.823 1.31 2.145 1.448l4.296.093s1.898-.231 2.755.241c0 0-.127 1.07 7.28.827" style="fill:#1b9242;fill-opacity:1;fill-rule:nonzero;stroke:none" transform="matrix(.35278 0 0 -.35278 116.87 102.846)"/><path d="m0 0 3.722.162s1.11 1.448 2.484 2.3l.437.242c1.564.769 3.122 1.955 6.831 0 0 0 2.542-3.117 3.71-5.463 0 0 2.921-6.993 4.663-9.133 0 0 1.167-.976 3.123-6.428 0 0 5.865-11.513 11.116-16.205 0 0 9.172-10.34 17.349-15.815 0 0 8.385-5.439 15.411-7.395 0 0 12.663-4.29 20.662-3.519 0 0 13.261-.587 17.747 1.564 0 0 5.261 1.369 7.206 2.346 0 0 6.244 4.279 11.345 6.808 0 0 9.714 7.626 13.433 9.949 0 0 9.73 9.764 11.887 13.836 0 0 6.631 8.787 8.596 11.339 0 0 2.134 3.29 3.887 5.464 0 0 5.441 7.211 7.206 8.568 0 0 5.28 3.68 5.842 4.67 0 0 .789 1.749 2.543 1.749 0 0 2.72.218 3.721-1.37 0 0 3.886-.574 5.244-.196 0 0 2.732.989 3.123-1.344 0 0-.782-1.738 1.184-2.727 0 0 1.346-.988 1.167-3.312 0 0 1.168-.782.967-2.737 0 0 .575-1.564-1.179-3.911 0 0-.374-2.726-.184-4.277 0 0 1.161-.967 1.161-4.877 0 0 .777-6.062-1.754-5.659 0 0-2.144-1.15-2.144-2.53 0 0-1.755-5.267-3.33-5.267 0 0-1.347-1.254-1.536-2.6 0 0-2.351-3.656-3.72-4.819 0 0-1.541-3.98-3.664-5.312 0 0-2.956-1.324-2.386-4.441 0 0 .8-1.713-1.534-2.921 0 0-4.118-2.934-5.477-5.06 0 0-2.316-4.083-5.25-6.234 0 0-1.167-1.38-1.954-2.358 0 0-2.732-3.508-6.246-4.095l-2.598-1.081s-2.662-1.036-4.584-1.656c0 0-.327-1.609-2.11-1.805 0 0-1.42-1.668-3.365-1.863l-3.76-1.841s-4.463-5.969-9.914-7.74c0 0-1.53-.172-1.53-1.933 0 0 .742-1.357 2.117-1.747 0 0 2.358-1.174 3.726-2.738l3.893-3.518s2.536-.598 3.887-4.083c0 0-.172-2.738 1.19-3.531 0 0 1.731-1.139 3.509-3.497 0 0 5.457-3.118 8.562-10.121 0 0 6.257-10.731 7.424-13.284 0 0 3.128-6.221 3.283-7.785 0 0 .991-2.14 1.79-3.13 0 0 4.663-6.234 5.267-8.764 0 0 2.14-2.726 1.754-9.937 0 0 .212-1.183 2.145-2.161 0 0 1.753-.161 1.351-4.474 0 0 1.553-1.945 1.754-5.083 0 0 .805-2.91.805-4.486 0 0 .788-1.334.374-4.474 0 0 1.346-2.944-1.944-5.073 0 0-1.362-2.312-4.099-1.942 0 0-2.14-1.955-3.922-1.955 0 0-2.905-.577-5.061-.381l-7.211-.196s-2.543.38-4.297 1.944c0 0-4.077 3.324-4.462 4.888 0 0-4.686 4.267-5.468 9.167 0 0-2.916 6.809-3.307 10.132 0 0-1.191 2.324-2.53 4.268 0 0-1.569 1.966-2.169 3.91 0 0-5.243 8.568-6.831 10.316 0 0-6.205 11.329-7.776 13.065 0 0-2.908 3.703-4.886 5.648 0 0-4.285 3.738-5.666 4.899 0 0-3.685 3.324-5.641 4.463 0 0-4.686 2.736-9.723 2.358 0 0-5.292.195-9.178-.599 0 0-2.755 0-4.486-1.334 0 0-.989-2.566-3.72-3.703 0 0-4.474-5.487-8.178-6.648 0 0-1.753-1.173-2.353-3.106 0 0-.953-3.323-3.494-5.657 0 0 .787-3.521-3.515-4.694 0 0-2.542-5.267-5.071-7.199 0 0-1.358-5.29-3.912-6.026 0 0-5.439-7.637-7.572-10.375 0 0-3.325-6.394-6.844-8.567 0 0-2.72-3.715-6.228-3.715 0 0-.989-.391-1.966-1.542 0 0-3.122-3.106-5.855-3.703l-4.077-3.129s-1.375-.794-5.272-.391c0 0-1.955-2.529-3.313-2.322 0 0-1.565-.404-3.147.965l-5.629.379s-1.576.782-2.719 2.151l-3.71 4.302s-.788.575-.978 3.117l.19 7.797s.414.793 1.542 2.335c0 0 3.91 6.44 6.078 8.569 0 0 2.145 3.519 3.112 4.301 0 0 1.362 4.473 3.696 6.809 0 0 .978 3.726 6.252 6.647 0 0 2.323 2.531 2.91 3.692 0 0 .2 4.509 5.065 7.027 0 0 .989.978 1.398 2.151 0 0 1.558 2.921 4.29 4.877 0 0 .374 1.345 1.742 3.496 0 0 1.932 5.451 6.417 9.569 0 0 1.955 1.334 2.922 3.496 0 0 4.29 6.246 6.831 5.474 0 0 2.52 7.614 7.8 8.57 0 0 3.898 1.747.977 3.115l-5.268 2.934s-7.205 2.553-8.764 4.278c0 0-5.06 3.497-6.63 4.865 0 0-4.285 2.162-5.262 3.496 0 0-9.765 8.235-14.849 14.285 0 0-9.131 8.729-10.322 13.617 0 0-3.496 4.486-4.485 5.646 0 0-1.168.99-1.168 3.717 0 0-3.105 4.472-3.317 6.037-.179 1.564-.38 0-.38 0l.201 5.451s-1.552 1.761-1.765 3.118l-.38 11.12s1.357 3.325 2.145 4.291c0 0 .978 1.576.978 2.553 0 0-.978 5.257 3.875 4.692" style="fill:#1b9242;fill-opacity:1;fill-rule:nonzero;stroke:none" transform="matrix(.35278 0 0 -.35278 85.145 115.565)"/><path d="M0 0a7.191 7.191 0 0 1 7.194 7.199c0 3.969-3.215 7.177-7.194 7.177-3.957 0-7.147-3.208-7.147-7.177C-7.147 3.221-3.957 0 0 0" style="fill:#fff;fill-opacity:1;fill-rule:nonzero;stroke:none" transform="matrix(.35278 0 0 -.35278 214.757 134.156)"/><path d="M0 0a7.193 7.193 0 0 1 7.195 7.201A7.19 7.19 0 0 1 0 14.388c-3.956 0-7.159-3.22-7.159-7.187C-7.159 3.221-3.956 0 0 0" style="fill:#fff;fill-opacity:1;fill-rule:nonzero;stroke:none" transform="matrix(.35278 0 0 -.35278 16.767 134.473)"/><path d="M0 0a7.158 7.158 0 0 1 7.195 7.177A7.175 7.175 0 0 1 0 14.366c-3.956 0-7.171-3.221-7.171-7.189A7.167 7.167 0 0 1 0 0" style="fill:#fff;fill-opacity:1;fill-rule:nonzero;stroke:none" transform="matrix(.35278 0 0 -.35278 157.873 129.502)"/><path d="M0 0v-2.794h-13.911V.31c.977 1.403 2.099 2.76 3.347 4.117.708.805 1.732 1.841 3.049 3.129 1.472 1.449 2.448 2.495 2.909 3.105.765 1.013 1.168 1.955 1.168 2.83 0 1.081-.249 1.863-.767 2.322-.483.483-1.368.713-2.604.713-1.115 0-1.944-.252-2.438-.758-.449-.483-.666-1.242-.666-2.243v-2.058h-3.998v.84c0 2.241.483 3.921 1.45 5.048 1.121 1.288 2.932 1.933 5.416 1.933 2.393 0 4.302-.531 5.654-1.587C-.081 16.687.563 15.33.563 13.617c0-1.392-.419-2.679-1.271-3.876-.516-.806-1.685-2.047-3.485-3.76a401.002 401.002 0 0 1-2.616-2.578A70.796 70.796 0 0 1-9.891 0Z" style="fill:#1b9242;fill-opacity:1;fill-rule:nonzero;stroke:none" transform="matrix(.35278 0 0 -.35278 110.76 181.509)"/><path d="M0 0c0 1.023-.177 1.737-.518 2.163-.437.541-1.201.792-2.282.792-1.156 0-2.007-.251-2.502-.792-.419-.45-.633-1.185-.633-2.163v-11.26c0-.944.214-1.656.633-2.139.495-.551 1.346-.817 2.502-.817 1.081 0 1.845.266 2.282.817.341.438.518 1.15.518 2.139zm4.026-11.26c0-2.012-.472-3.439-1.398-4.279-1.052-.885-2.853-1.333-5.457-1.333-2.519 0-4.33.517-5.487 1.54-1.114 1.002-1.649 2.578-1.649 4.774V-.242c0 2.116.436 3.6 1.333 4.428 1.001.931 2.859 1.392 5.533 1.392 2.708 0 4.583-.461 5.653-1.38.977-.817 1.472-2.22 1.472-4.175z" style="fill:#1b9242;fill-opacity:1;fill-rule:nonzero;stroke:none" transform="matrix(.35278 0 0 -.35278 115.55 176.697)"/><path d="M0 0c0 1.023-.178 1.737-.517 2.163-.427.541-1.203.792-2.284.792-1.156 0-1.995-.251-2.49-.792-.431-.45-.632-1.185-.632-2.163v-11.26c0-.944.201-1.656.632-2.139.495-.551 1.334-.817 2.49-.817 1.081 0 1.857.266 2.284.817.339.438.517 1.15.517 2.139zm4.037-11.26c0-2.012-.483-3.439-1.41-4.279-1.04-.885-2.851-1.333-5.428-1.333-2.535 0-4.359.517-5.515 1.54-1.115 1.002-1.65 2.578-1.65 4.774V-.242c0 2.116.437 3.6 1.335 4.428 1.023.931 2.857 1.392 5.554 1.392 2.686 0 4.56-.461 5.63-1.38.989-.817 1.484-2.22 1.484-4.175z" style="fill:#1b9242;fill-opacity:1;fill-rule:nonzero;stroke:none" transform="matrix(.35278 0 0 -.35278 121.678 176.697)"/><path d="M0 0c.247-.541.351-1.668.351-3.427v-.358c0-2.391-.472-4.095-1.449-5.106-1.071-1.196-3.048-1.794-5.912-1.794-1.674 0-3.024.172-4.037.472-.988.298-1.743.724-2.26 1.322-.472.528-.816 1.22-.988 2.07-.156.69-.214 1.588-.214 2.76v1.69h3.992V-5.21c0-1.001.201-1.68.586-2.082.472-.471 1.38-.702 2.771-.702 1.261 0 2.157.413 2.733 1.22.413.632.62 1.414.62 2.416v1.494c0 1.252-.461 2.092-1.398 2.507-.752.334-2.248.506-4.513.506v2.759h.38c2.236 0 3.673.093 4.261.3.839.323 1.27 1.035 1.27 2.186v1.231c0 .781-.27 1.391-.799 1.827-.563.461-1.403.69-2.45.69-1.34 0-2.271-.229-2.813-.69-.436-.391-.648-.988-.648-1.806V4.875h-3.992v1.853c0 1.955.563 3.335 1.686 4.082 1.035.69 2.777 1.024 5.26 1.024 2.934 0 4.947-.426 6.091-1.265 1.093-.84 1.65-2.323 1.65-4.485 0-1.173-.167-2.048-.506-2.623-.357-.69-1.075-1.288-2.122-1.771C-1.167 1.322-.355.759 0 0" style="fill:#1b9242;fill-opacity:1;fill-rule:nonzero;stroke:none" transform="matrix(.35278 0 0 -.35278 129.273 178.88)"/></svg>