<svg xmlns="http://www.w3.org/2000/svg" width="101.17926mm" height="101.17926mm" viewBox="0 0 101.17926 101.17926"><g transform="matrix(1.06557 0 0 1.06557 -87.047 -101.942)"><circle cx="129.16682" cy="143.14532" r="47.476406" style="fill:#f9f9f9;fill-opacity:1;stroke:#132b61;stroke-width:3.13892e-05;stroke-opacity:1"/><path d="M168.918 154.535c3.385 0 6.136 2.79 6.136 6.174 0 3.383-2.75 6.174-6.136 6.174-3.427 0-6.177-2.791-6.177-6.174 0-3.383 2.75-6.174 6.177-6.174z" style="fill:none;stroke:#132b61;stroke-width:.169333;stroke-linecap:butt;stroke-linejoin:miter;stroke-miterlimit:10;stroke-dasharray:none;stroke-opacity:1" transform="matrix(7.0446 0 0 7.0446 -1060.883 -989.183)"/><path d="M168.918 154.197v-.127c3.681 0 6.643 2.96 6.643 6.639 0 3.679-2.962 6.639-6.643 6.639a6.625 6.625 0 0 1-6.642-6.64 6.625 6.625 0 0 1 6.642-6.638v.253a6.574 6.574 0 0 0-4.57 1.861 6.39 6.39 0 0 0-1.86 4.525c0 1.776.719 3.383 1.86 4.524a6.573 6.573 0 0 0 4.57 1.861c1.777 0 3.343-.719 4.528-1.86a6.389 6.389 0 0 0 1.861-4.525 6.39 6.39 0 0 0-1.861-4.525c-1.185-1.142-2.75-1.86-4.528-1.86z" style="fill:#132b61;fill-opacity:1;fill-rule:nonzero;stroke:none;stroke-width:.352778" transform="matrix(7.0446 0 0 7.0446 -1060.883 -989.183)"/><path d="M168.918 156.565c2.285 0 4.105 1.86 4.105 4.144 0 2.24-1.82 4.144-4.105 4.144-2.284 0-4.146-1.903-4.146-4.144a4.152 4.152 0 0 1 4.146-4.144z" style="fill:none;stroke:#132b61;stroke-width:.169333;stroke-linecap:butt;stroke-linejoin:miter;stroke-miterlimit:10;stroke-dasharray:none;stroke-opacity:1" transform="matrix(7.0446 0 0 7.0446 -1060.883 -989.183)"/><path d="M168.918 156.269a4.44 4.44 0 1 1 0 8.88 4.44 4.44 0 1 1 0-8.88z" style="fill:none;stroke:#132b61;stroke-width:.169333;stroke-linecap:butt;stroke-linejoin:miter;stroke-miterlimit:10;stroke-dasharray:none;stroke-opacity:1" transform="matrix(7.0446 0 0 7.0446 -1060.883 -989.183)"/><path d="M165.83 158.933v3.552h.423v-.677l.17-.507.338 1.184h.465l-.55-1.903.508-1.65h-.466l-.465 1.438v-1.437zm1.692 2.96v.592h.339v-.592zm1.481-3.003c-.212 0-.423.127-.592.466-.17.296-.254.718-.254 1.31 0 .593.085 1.015.254 1.354.127.338.338.507.592.507.212 0 .423-.127.592-.338.127-.254.17-.55.17-.888h-.424c0 .211-.042.38-.126.507-.042.085-.127.17-.212.17-.127 0-.212-.127-.296-.381-.042-.212-.127-.55-.127-.93s.084-.72.127-.889c.085-.21.17-.338.296-.338.085 0 .17.042.212.127 0 .085.042.211.084.338h.466c-.043-.338-.127-.592-.254-.76a.603.603 0 0 0-.508-.255zm1.1 3.003v.592h.254v-.592zm.635-2.96v3.552h.465v-1.945l.466 1.945h.507v-3.552h-.465v2.072l-.466-2.072zM164.899 157.453l-.212-.127-.169.338-.38-.211-.085.169.296.254-.212.296.17.084.254-.296.338.212.085-.17-.297-.211zm1.693-.846-.847-.211c.043-.085.043-.17.085-.339v-.338l-.17.169c-.042.127-.042.212-.084.338 0 .085-.042.17-.042.296l-.254-.38-.212.127.677.93.212-.085-.296-.38.042-.127.677.17zm.55-1.48-.17.084.254.677v.17c0 .084-.042.126-.127.168h-.211c-.043-.042-.085-.126-.127-.169l-.254-.676-.212.084.297.719c.042.127.126.212.21.212a.468.468 0 0 0 .34 0c.169-.043.21-.127.296-.212.042-.127.084-.211 0-.338zm1.65.888-.17-1.142h-.211l.085.761-.043.043-.507-.72-.254.043.169 1.142.211-.042-.126-.804h.042l.508.719zm1.057-.55c-.084 0-.127-.042-.211-.042-.043-.042-.085-.042-.127-.085a.091.091 0 0 1-.085-.084c-.042 0-.042-.043-.042-.085l.084-.084h.127c.085 0 .17 0 .17.084 0 .042.042.085 0 .127l.253.042c0-.084-.042-.169-.042-.253-.084-.127-.211-.212-.338-.212-.127 0-.254 0-.339.042-.084.085-.084.17-.126.212 0 .084 0 .127.042.211 0 .085.084.127.169.127 0 .042.085.085.127.085.085.042.085.084.17.084.041 0 .041.043.084.085v.085c-.042.042-.042.042-.127.084-.042.042-.042.042-.127 0-.085 0-.127-.042-.17-.042-.042-.085-.084-.17-.084-.212h-.211c0 .085 0 .212.084.296.085.085.212.17.339.17a.45.45 0 0 0 .338-.043c.085-.042.17-.127.17-.211v-.212c-.043-.042-.085-.127-.127-.169zm1.27 1.1-.043-1.269-.169-.085-.846.93.211.085.212-.211.423.211v.212zm-.212-.592-.296-.127.296-.339zm1.142 1.226.72-.93-.17-.127-.507.634h.042l.085-.888-.212-.169-.72.973.212.084.466-.592h.042l-.169.888zm1.439 1.1.17-.127-.212-.296.296-.212-.085-.17-.338.213-.212-.381-.169.169.212.296-.339.212.127.21.338-.21zM163.545 159.778a.32.32 0 0 1-.17-.084v-.212c.043-.084.085-.126.212-.169.085-.042.17-.042.297 0 .127.043.21.085.253.17.085.084.085.126.043.253-.043.042-.043.085-.085.127-.084.042-.127.042-.17.042l-.126.254c.127 0 .212-.042.338-.085.127-.042.212-.126.254-.296.085-.169.043-.296-.042-.422a.617.617 0 0 0-.38-.254c-.212-.085-.382-.085-.509 0-.126.042-.253.169-.253.296a.395.395 0 0 0 0 .38c.084.127.169.17.253.254zm.677 1.058a.714.714 0 0 0-.127-.423.854.854 0 0 0-.465-.127.761.761 0 0 0-.466.127c-.169.084-.169.211-.211.38 0 .127.042.296.169.381.127.085.254.127.465.169.17 0 .339-.084.466-.127.084-.127.169-.253.169-.38zm-1.015-.043c0-.084 0-.169.084-.21.085-.043.212-.086.296-.043.17 0 .254 0 .339.042.042.084.085.127.085.254 0 .042-.043.127-.127.211-.085.042-.17.042-.297.042-.127 0-.211 0-.296-.084-.084-.042-.127-.127-.084-.212zm0 1.692.211-.042-.127-.55.973-.212-.042-.211-1.227.254zm.465 1.1.212-.043-.254-.55.93-.38-.084-.212-1.1.466zm.804 1.014.17-.126-.424-.466.254-.169.38.423.17-.127-.38-.423.21-.169.424.465.127-.126-.508-.635-.93.677zm1.1.93.423-.465-.423-.338-.127.17.212.168-.17.085c-.042 0-.127 0-.211-.085-.085-.042-.127-.127-.085-.211 0-.084.043-.212.085-.254.084-.126.169-.169.296-.169.085-.042.17 0 .254.042.042.043.085.085.085.17v.126l.169.17c.042-.085.084-.17.084-.297 0-.126-.084-.253-.211-.338a.853.853 0 0 0-.466-.127.67.67 0 0 0-.38.254.542.542 0 0 0-.17.423c0 .17.085.296.212.38.042.043.127.043.127.085h.169l-.042.085zm1.227.593.085-.17-.593-.296.127-.253.55.253.085-.169-.508-.254.085-.21.592.21.085-.169-.804-.338-.508 1.057zm1.65-.889c-.17 0-.339.043-.423.17-.127.084-.17.211-.211.38a.85.85 0 0 0 .127.465c.084.085.21.17.38.212.17 0 .338-.042.423-.127.127-.127.17-.254.212-.423a.85.85 0 0 0-.127-.465.819.819 0 0 0-.38-.212zm-.127 1.015c-.042 0-.17-.042-.212-.126-.042-.085-.042-.17-.042-.297 0-.126.042-.21.127-.253.042-.085.127-.127.254-.127.042 0 .17.084.211.127.043.084.043.211.043.296a.609.609 0 0 1-.085.296.61.61 0 0 1-.296.084zm1.692-.845v-.212l-.846.127.17 1.1h.211l-.085-.466.55-.084-.042-.212-.508.085-.084-.254zm2.031.169-.592-.973-.17.085.382.719-.804-.508-.254.127.592.973.212-.085-.38-.677.803.466zm.339-1.691-.17.126.508.55c.043.085.043.085.043.17.042.041 0 .126-.043.168-.127.085-.169.127-.253.085l-.127-.127-.508-.55-.17.17.55.55c.043.126.17.168.297.168a.675.675 0 0 0 .338-.126.367.367 0 0 0 .17-.296.609.609 0 0 0-.085-.296zm1.692-.297h-.592c.042-.042.042-.126 0-.211-.042-.042-.085-.127-.127-.17-.127-.041-.211-.041-.338-.041-.085 0-.17.084-.254.169l-.254.38.973.677.127-.17-.381-.295.127-.085h.55zm-.888.085-.127.17-.254-.17.17-.17c0-.084.042-.084.084-.126h.127c.042.042.042.085.084.17 0 0-.042.084-.084.126zm.719-1.269a.331.331 0 0 0-.169.17c-.042 0-.042.042-.085.084-.042.042-.042.085-.084.085-.043.042-.043.042-.085 0a.091.091 0 0 1-.085-.085c-.042-.042-.042-.084 0-.127.043-.084.085-.127.127-.127h.17l.042-.211c-.042 0-.17-.042-.254 0-.127.042-.212.127-.296.254-.042.127-.042.253 0 .338.042.085.127.169.169.169.085 0 .17.042.212 0 .084 0 .127-.042.211-.084.042-.085.084-.085.127-.127 0-.085.042-.127.085-.17.042 0 .084 0 .084-.042.043 0 .085 0 .085.043.042 0 .085 0 .085.084.042.042.042.085 0 .127-.043.085-.085.169-.17.169h-.17l-.083.212c.084.042.211.042.338 0 .127-.043.212-.17.296-.296v-.296c-.042-.127-.127-.17-.169-.212-.085-.042-.17-.042-.212-.042-.084 0-.169.042-.169.084zm.762-.55-1.185-.211-.042.212 1.227.169zm.084-1.395-1.227.042v.212l.847-.043v.043l-.847.423v.253l1.27-.042v-.211l-.847.042v-.042l.804-.423zm-.338-1.437-.635.21.17.466.169-.042-.043-.254h.17c.042.042.127.085.127.17.042.084.042.21-.043.253-.042.084-.127.127-.254.127-.127.042-.211.084-.338.042-.042-.042-.127-.085-.17-.212a.128.128 0 0 1 0-.169l.128-.127-.085-.21c-.085.041-.127.126-.212.21-.042.085-.042.254-.042.381.085.17.17.296.296.338.17.043.296.043.466 0 .211-.042.338-.127.423-.253.084-.127.127-.296.042-.423 0-.085-.042-.127-.084-.127a43.268 43.268 0 0 1-.127-.127l.084-.042z" style="fill:#132b61;fill-opacity:1;fill-rule:nonzero;stroke:none;stroke-width:.352778" transform="matrix(7.0446 0 0 7.0446 -1060.883 -989.183)"/></g></svg>