<svg xmlns="http://www.w3.org/2000/svg" width="209.99997mm" height="210mm" viewBox="0 0 209.99997 210"><path d="M193.837 715.08c-22.216 0-40.223-18.008-40.223-40.221 0-22.213 18.007-40.221 40.223-40.221 22.215 0 40.222 18.008 40.222 40.22 0 22.214-18.007 40.223-40.222 40.223" style="fill:#7fbfd4;fill-opacity:1;fill-rule:nonzero;stroke:none" transform="matrix(2.58448 0 0 -2.58456 -395.966 1849.211)"/><path d="M193.837 715.08c-22.216 0-40.223-18.008-40.223-40.221 0-22.213 18.007-40.221 40.223-40.221 22.215 0 40.222 18.008 40.222 40.22 0 22.214-18.007 40.223-40.222 40.223z" style="fill:none;stroke:#0daa90;stroke-width:.80901;stroke-linecap:butt;stroke-linejoin:miter;stroke-miterlimit:4;stroke-dasharray:none;stroke-opacity:1" transform="matrix(2.58448 0 0 -2.58456 -395.966 1849.211)"/><path d="M163.647 674.859c0-16.673 13.518-30.189 30.19-30.189 16.675 0 30.188 13.516 30.188 30.189 0 16.673-13.513 30.19-30.188 30.19-16.672 0-30.19-13.517-30.19-30.19" style="fill:#fff;fill-opacity:1;fill-rule:nonzero;stroke:none" transform="matrix(2.58448 0 0 -2.58456 -395.966 1849.211)"/><path d="M163.647 674.859c0-16.673 13.518-30.189 30.19-30.189 16.675 0 30.188 13.516 30.188 30.189 0 16.673-13.513 30.19-30.188 30.19-16.672 0-30.19-13.517-30.19-30.19z" style="fill:none;stroke:#0daa60;stroke-width:.68401;stroke-linecap:butt;stroke-linejoin:miter;stroke-miterlimit:4;stroke-dasharray:none;stroke-opacity:1" transform="matrix(2.58448 0 0 -2.58456 -395.966 1849.211)"/><path d="M192.88 700.508h.858s.233-.027.26-.13l.363-.027s.076-.027.106-.077l.362-.053s.05-.025.078-.105l.18-.023s.13 0 .13-.08l.158-.051s.076-.027.076-.129l.052-.13.104-.079.026-.105.146-.124.02-.604.139-.18v-2.935l-.055-.13v-1.167l.038-.054v-1.712l-.133-.079-.026-.755-.05-.127-.105-.054s-.078-.077-.156-.103c0 0-.076-.026-.076-.104l-.157-.051-.103-.076h-.598s-.104.1-.104.18c0 0-.052.077-.105.077 0 0-.209.052-.232.105l-.443.026-.206.05-.728.027-.155.154-.08.157-.389.027-.13.131s-.206.025-.206.128c0 0-.183.104-.183.181 0 0-.104.106-.104.182l-.05.365s-.054.104-.054.26l.026.935v.364s-.029.195.049.22l.004.323-.038.2-.015.477s.053.051.078.128v1.636l.05.08v.78l.054.103v.234l-.078.077v.442l.053.233.129.104.026.13.104.131.078.128.13.104.024.106.417.025.105.104.128.078.208.052zM200.469 692.308l.859 1.128.117.177.096.057.292.137.078.233.097.136.158.117.174.059.662.702.098.174.136.04.097.058.077.117.139.077.094.059.06.156.059.116.096.078.099.097.156.137.058.137.116.079.137.115.312.273.118.06.075.115.196.099.391-.022.115-.096.098-.097.506.04.174-.02.098-.137.098-.039.098-.195.156-.058.136-.136.178-.06.076-.116.095-.04.059-.095.1-.041.018-.194v-.215l.155-.038.02-.175.116-.02.04-.137v-.135l-.098-.076-.04-.295-.055-.213-.079-.098-.116-.157-.098-.233-.117-.08-.156-.134-.098-.137-.019-.253-.488-.408-.057-.136-.078-.197-.138-.136-.097-.155-.701-.72-.096-.254-.058-.195-.177-.331-.135-.136-.157-.137-.096-.136-.137-.135-.156-.08-.39-.077-.137-.077-.195-.04-.097-.099-.214-.018-.194-.097-.605-.021-.136-.077-.117-.058-.293-.02-.116-.058-.507.018-.115.1-.117.116-.156.037-.077.159-.098.135-.061.136-.174.099-.077.135-.06.235-.038.213-.078.117-.097.214v.605l.097.155.078.117.038.175zM207.134 685.304s.467.392.574.451c0 0 .15.046.18.105 0 0 .436.47.528.528 0 0 .304.168.377.18 0 0 .438.32.485.397 0 0 .12.102.164.102 0 0 .258.077.318.077 0 0 .048 0 .093.046 0 0 .057.105.135.123 0 0 .257.088.285.149 0 0 .076.15.197.15 0 0 .301.016.363.061 0 0 .06.123.12.123 0 0 .288.027.333.058 0 0 .106.152.181.152 0 0 .287.03.347.075 0 0 .423.288.529.319 0 0 .38.149.468.149 0 0 .361.059.392.12 0 0 .076.183.153.198 0 0 .555.046.62 0 0 0 .193-.06.224-.107 0 0 .391-.348.603-.8 0 0 .092-.316.092-.407 0 0 .09-.317.197-.424 0 0 .285-.377.362-.391 0 0 .044-.077.044-.182 0 0 .046-.542-.075-.603 0 0-.589-.5-.785-.575l-.301-.3s-.257-.169-.529-.214c0 0-.107-.12-.24-.134 0 0-.212-.015-.335-.122 0 0-.242-.317-.665-.484l-1.205-1.056s-.107-.09-.213-.103c0 0-.227-.048-.257-.107 0 0-.136-.274-.304-.29 0 0-.074-.103-.164-.103h-2.566s-.725.36-.832.89c0 0-.043.21-.092.33 0 0-.074.696 0 .848 0 0 .018.544.092.619l.107.152zM210.94 677.27h2.427s.077.03.14.06h2.613s.043-.06.149-.06h1.176s.093-.044.184-.15c0 0 .378.106.556-.182 0 0 .184-.032.198-.363l.013-.393s.138-.09.155-.18v-.287s-.017-.046.061-.122c0 0 .164.06.133-.512 0 0 0-.08.061-.108 0 0 .106-.074.09-.197 0 0 .029-.451-.137-.526 0 0-.134-.016-.147-.136l-.017-.38s-.092-.333-.635-.483l-.363-.073s-.104-.078-.226-.093l-.83.015s-.227-.045-.333-.06c0 0-.875-.03-1.028.031 0 0-.18 0-.3-.09h-1.677s-.212-.092-.258-.092c0 0-.634-.012-1.055.075h-.831s-.725.318-.814.393c0 0-.789.227-1.179.877 0 0-.106.18-.106.243v1.69s-.15.363.8.8c0 0 .105.121.334.121 0 0 .542.182.845.182M182.057 697.657h.424s.06.142.172.142l.226.057s.058.112.197.112l.653-.055s.398-.17 1.05-.852c0 0 .538-.426.794-1.302l.623-2.295.821-2.44s.256-.48.03-1.022c0 0-.34-.338-.51-.367 0 0-.34.056-.427-.086 0 0 .057-.252-.084-.367l-.653-.057s-.17-.226-.254-.226l-.88.03s-.254.169-.28.282c0 0-.485-.086-.627.226 0 0-.425.651-.625 1.7 0 0-.593 1.76-.621 2.21 0 0-.596 1.789-.71 2.045 0 0-.198 0-.113 1.416 0 0 .028.284.197.339 0 0 .257.03.315.256 0 0 .057.226.282.254M172.644 689.297s-.055.303.314.48c0 0 .425.311 1.275-.113 0 0 .68-.058.994-.453l.68-.056s.254 0 .82-.453c0 0 .71-.284 1.05-.568 0 0 .735-.256 1.047-.794 0 0 .11-.062.221-.049 0 0 .522.017.824-.217 0 0 1.086-.48 1.676-1.22 0 0 .137-.374.11-.537 0 0 .15-.125.15-.22 0 0 .111-.538-.206-.58 0 0-.275-.163-.355-.411l-.043-.904s-.054-.152-.124-.166l-.301-.413s-.056-.136-.123-.151l-.852.043s-.7.561-.768.658c0 0-.139.108-.29.108h-.934s-.122.072-.191.151l-2.543 1.43s-.795.468-1.277.549c0 0-.175.07-.342.152 0 0-1.182.921-1.65 1.703 0 0-.066.025-.108.165l-.015.604s.042.083.111.151c0 0 0 .276.123.357 0 0 .608.46.727.754M169.075 675.207v.577s.027.124.137.192c0 0 .04.028.083.11 0 0-.029.26.232.304 0 0 .055.012.125.082 0 0 .219.08.507.08 0 0 .137 0 .208.068 0 0 .108.098.685.086 0 0 .151.026.234.082 0 0 .109.08.357.08h1.98s.107-.096.175-.096c0 0 .523 0 .647.055 0 0 .012.042.122.056h1.348s.04.069.192.069h1.084l.109-.057s.056-.04.126-.04l.863-.013s.152-.015.234-.11c0 0 .274-.112.3-.425v-1.115s0-.178.058-.231c0 0 .07-.083.083-.18 0 0 .013-.372.081-.451 0 0 .069-.098.165-.113 0 0 .081 0 .081-.19v-.372s-.025-.152-.136-.178l-.483-.399s-.026-.138-.122-.164h-1.124s-.043-.04-.139-.056h-1.646s-.071 0-.11.043l-.317.028-.083-.055s-.056-.11-.138-.11h-4.078s-.384.15-.481.233c0 0-.233 0-.355.096 0 0-.345 0-.524.125 0 0-.343.244-.386.466l-.04.288s-.069.082-.069.15l-.013.343s-.057.07-.057.137l-.011.412s.068.095.096.193M182.454 678.652l.739-.739s.195-.077.312-.077c0 0 .272-.04.39-.117 0 0 .271-.117.466-.117 0 0 .159 0 .274.194 0 0 .184.035.341.208.095.105.095.201.127.298 0 0 .427.585.545.819l.351.545s.232.118.232.35c0 0 .352.466.507.623 0 0 .43.507.585.625 0 0 .545.584.702.66 0 0 .43.273.583.43 0 0 .235.312.39.351 0 0 .233 0 .505.273 0 0 .272.077.584.155 0 0 .468.156.663.351 0 0 .545.155.858.194l.895.156s.273-.04.468.039c0 0 .117.117.275.117l1.829-.039s.155-.078.31-.117c0 0 .82-.04.976-.117 0 0 .388-.157.778-.193 0 0 .624-.508 1.208-.47 0 0 .076 0 .39-.234 0 0 1.05-.779 1.169-.856 0 0 .429-.585.816-.624 0 0 .158-.468.236-.623 0 0 .427-.312.583-.506 0 0 .506-.937.584-1.09l.235-.78s.117-.273.273-.314l.894.04s.341.086.414.15c0 0 .086.084.181.072 0 0 .774-.007.87.075 0 0 .7.435.76.583 0 0 .055.095.055.222 0 0-.065.2-.065.285l-.042.615s-.012.104-.137.179c0 0 0 .298-.223.711 0 0-.01.212-.139.486 0 0-.58 1.348-1.27 1.951 0 0-.9 1.185-1.344 1.472 0 0-.128.284-.402.348 0 0-.318.118-.362.169 0 0-.393.158-.432.212 0 0-.328.106-.5.117 0 0-.104.053-.083.264 0 0 .052.476-.319.487l-.497.05s-.095.29-.328.363l-.252.097-.734.548s-.732.298-.951.36c0 0-.457.064-.857.086 0 0-.307.021-.701.2 0 0-.052.129-.976.066 0 0-.06 0-.135.072 0 0-.2.16-.423.16h-1.261s-.125-.01-.246-.117c0 0-.22-.043-.252-.128 0 0-.054-.094-.243-.075h-.754s-.188-.05-.264-.103l-.37-.01s-.117-.013-.212-.108l-.16-.021s-.094-.021-.2-.115c0 0-.104-.065-.127-.128 0 0 .01-.021-.104-.032h-1.05s-.859-.052-2.065-.985c0 0-1.217-.55-2.138-1.587 0 0-1.303-1.231-1.916-2.436 0 0-.49-.668-.573-1.145 0 0-.246-.635-.349-.815 0 0-.086-.117-.098-.319 0 0-.126-.04-.135-.306 0 0 0-.263.01-.402l.031-.667s.132-.28.294-.316" style="fill:#f3b212;fill-opacity:1;fill-rule:nonzero;stroke:none" transform="matrix(2.58448 0 0 -2.58456 -395.966 1849.211)"/><path d="m193.888 679.741 1.037.015c.077-.015.239-.015.491-.162 0 0 .755-.564.98-.935 0 0 .118-.135.178-.178 0 0 .147-.073.222-.268 0 0 .028-.177.09-.222 0 0 .325-.386.4-.593 0 0 .254-.46.282-.863 0 0 .046-.102.12-.133 0 0 .117-.165.117-.488v-1.292s-.042-.104-.117-.179c0 0-.106-.445-.254-.61 0 0-.074-.116-.074-.176 0 0-.015-.15-.15-.267l-.324-.446s-.062-.193-.09-.297c0 0-.147-.132-.207-.177 0 0-.504-.431-.593-.446 0 0-.104-.339-.447-.356 0 0-.237-.06-.31-.133 0 0-.075-.031-.18-.045 0 0-.134-.117-.267-.103h-.385s-.149.014-.237.117c0 0-.134.103-.236.103 0 0-.297-.087-.535-.072 0 0-.401-.06-.534-.06 0 0-.328.015-.447.104 0 0-.504.178-.637.296 0 0-.742.46-1.083 1.084 0 0-.15.297-.358.447 0 0-.312.251-.296.561 0 0-.133.373-.208.625 0 0-.103.134-.12.356 0 0-.117.194-.117.506l-.03 1.008s.073.444.177.505c0 0 .03.266.165.416 0 0 .518.786.696.936 0 0 .61.77.92.933l.311.165s.106.162.266.177l.538.014s.235-.03.343.03c0 0-.016.132.903.103" style="fill:#06a84e;fill-opacity:1;fill-rule:nonzero;stroke:none" transform="matrix(2.58448 0 0 -2.58456 -395.966 1849.211)"/><path d="m182.721 675.262.461.024s.138.178.309.284a.41.41 0 0 0 .054.03c.194.096.39.243.849 0 0 0 .313-.386.459-.68 0 0 .363-.869.58-1.136 0 0 .145-.12.388-.799 0 0 .727-1.429 1.38-2.009 0 0 1.138-1.285 2.155-1.961 0 0 1.041-.677 1.912-.92 0 0 1.575-.532 2.567-.438 0 0 1.646-.071 2.204.197 0 0 .653.167.895.29 0 0 .776.533 1.404.847 0 0 1.21.943 1.67 1.233 0 0 1.212 1.21 1.478 1.72 0 0 .823 1.09 1.065 1.404 0 0 .268.412.485.678 0 0 .676.897.895 1.064 0 0 .654.46.726.582 0 0 .096.219.315.219 0 0 .339.023.462-.17 0 0 .484-.072.652-.025 0 0 .34.123.386-.169 0 0-.097-.217.147-.338 0 0 .168-.122.147-.413 0 0 .144-.095.12-.337 0 0 .072-.196-.147-.484 0 0-.048-.34-.023-.535 0 0 .145-.12.145-.604 0 0 .097-.751-.217-.702 0 0-.268-.145-.268-.315 0 0-.219-.655-.411-.655 0 0-.17-.155-.194-.323 0 0-.292-.451-.46-.597 0 0-.193-.492-.457-.662 0 0-.366-.16-.293-.547 0 0 .096-.216-.194-.363 0 0-.509-.364-.679-.63 0 0-.288-.507-.652-.774 0 0-.145-.171-.243-.291 0 0-.34-.436-.774-.509l-.325-.135s-.33-.131-.57-.202c0 0-.04-.204-.257-.228 0 0-.18-.21-.423-.233l-.466-.225s-.55-.743-1.23-.962c0 0-.192-.024-.192-.24 0 0 .096-.172.265-.22 0 0 .291-.145.462-.339l.485-.436s.314-.075.484-.51c0 0-.026-.337.144-.435 0 0 .22-.143.436-.434 0 0 .678-.387 1.067-1.259 0 0 .773-1.333.92-1.647 0 0 .386-.775.41-.967 0 0 .122-.267.218-.39 0 0 .582-.773.654-1.088 0 0 .266-.338.217-1.235 0 0 .025-.146.267-.267 0 0 .217-.023.171-.556 0 0 .192-.243.216-.63 0 0 .098-.363.098-.557 0 0 .093-.168.048-.557 0 0 .168-.365-.243-.63 0 0-.17-.289-.508-.241 0 0-.267-.242-.484-.242 0 0-.364-.074-.63-.048l-.895-.026s-.315.049-.533.242c0 0-.51.414-.558.607 0 0-.58.533-.677 1.138 0 0-.364.848-.41 1.258 0 0-.147.291-.316.534 0 0-.193.242-.267.484 0 0-.652 1.063-.849 1.282 0 0-.772 1.404-.966 1.621 0 0-.363.46-.606.702 0 0-.531.461-.7.605 0 0-.462.415-.704.558 0 0-.58.34-1.21.29 0 0-.654.026-1.138-.071 0 0-.339 0-.557-.169 0 0-.122-.316-.462-.46 0 0-.555-.677-1.015-.824 0 0-.218-.144-.293-.386 0 0-.117-.414-.434-.705 0 0 .096-.434-.435-.58 0 0-.316-.653-.63-.894 0 0-.169-.656-.484-.75 0 0-.679-.946-.945-1.285 0 0-.411-.797-.846-1.066 0 0-.34-.458-.775-.458 0 0-.121-.051-.242-.194 0 0-.388-.387-.728-.463l-.507-.385s-.17-.099-.655-.05c0 0-.241-.314-.41-.289 0 0-.193-.05-.39.122l-.7.047s-.195.096-.338.265l-.46.534s-.098.071-.122.387l.024.97s.048.098.195.29c0 0 .482.799.75 1.066 0 0 .265.434.385.533 0 0 .17.556.463.844 0 0 .12.461.773.826 0 0 .29.314.363.46 0 0 .024.556.629.87 0 0 .122.123.172.267 0 0 .193.363.532.608 0 0 .047.166.218.433 0 0 .24.678.8 1.186 0 0 .24.17.359.436 0 0 .535.774.85.678 0 0 .316.944.968 1.067 0 0 .485.216.121.385l-.653.364s-.897.317-1.09.533c0 0-.629.434-.821.605 0 0-.534.267-.657.435 0 0-1.21 1.017-1.84 1.768 0 0-1.136 1.088-1.283 1.696 0 0-.435.556-.557.701 0 0-.145.123-.145.46 0 0-.388.557-.412.75-.022.194-.047 0-.047 0l.025.678s-.194.22-.22.388l-.048 1.377s.17.413.268.536c0 0 .12.194.12.315 0 0-.12.653.483.581" style="fill:#06a84e;fill-opacity:1;fill-rule:nonzero;stroke:none" transform="matrix(2.58448 0 0 -2.58456 -395.966 1849.211)"/><path d="M190.047 653.675h.171v-2.046h-.194v1.506h-.488v.156h.11c.17 0 .285.047.346.135a.455.455 0 0 1 .055.249" style="fill:#06a84e;fill-opacity:1;fill-rule:nonzero;stroke:none" transform="matrix(2.58448 0 0 -2.58456 -395.966 1849.211)"/><path d="M190.047 653.675h.171v-2.046h-.194v1.506h-.488v.156h.11c.17 0 .285.047.346.135a.455.455 0 0 1 .055.249z" style="fill:none;stroke:#06a84e;stroke-width:.209;stroke-linecap:butt;stroke-linejoin:miter;stroke-miterlimit:4;stroke-dasharray:none;stroke-opacity:1" transform="matrix(2.58448 0 0 -2.58456 -395.966 1849.211)"/><path d="M192.06 651.642a.896.896 0 0 1 .29-.051c.24 0 .448.1.619.298.179.208.271.485.271.823 0 .33-.088.583-.265.766a.737.737 0 0 1-.543.226.711.711 0 0 1-.49-.176.622.622 0 0 1-.213-.491c0-.191.065-.343.195-.455a.652.652 0 0 1 .451-.154c.148 0 .288.039.418.117.065.04.144.101.234.19 0-.124-.011-.23-.03-.313a1.057 1.057 0 0 0-.143-.346.696.696 0 0 0-.285-.255.54.54 0 0 0-.226-.05.646.646 0 0 0-.281.072c-.057.028-.118.07-.188.124v-.238c.07-.039.13-.07.186-.087m.666 1.054a.701.701 0 0 0-.338-.085.425.425 0 0 0-.444.436.46.46 0 0 0 .486.471c.13 0 .245-.045.353-.14a.717.717 0 0 0 .222-.433.986.986 0 0 0-.28-.249" style="fill:#06a84e;fill-opacity:1;fill-rule:nonzero;stroke:none" transform="matrix(2.58448 0 0 -2.58456 -395.966 1849.211)"/><path d="M192.06 651.642a.896.896 0 0 1 .29-.051c.24 0 .448.1.619.298.179.208.271.485.271.823 0 .33-.088.583-.265.766a.737.737 0 0 1-.543.226.711.711 0 0 1-.49-.176.622.622 0 0 1-.213-.491c0-.191.065-.343.195-.455a.652.652 0 0 1 .451-.154c.148 0 .288.039.418.117.065.04.144.101.234.19 0-.124-.011-.23-.03-.313a1.057 1.057 0 0 0-.143-.346.696.696 0 0 0-.285-.255.54.54 0 0 0-.226-.05.646.646 0 0 0-.281.072c-.057.028-.118.07-.188.124v-.238c.07-.039.13-.07.186-.087m.666 1.054a.701.701 0 0 0-.338-.085.425.425 0 0 0-.444.436.46.46 0 0 0 .486.471c.13 0 .245-.045.353-.14a.717.717 0 0 0 .222-.433.986.986 0 0 0-.28-.249z" style="fill:none;stroke:#06a84e;stroke-width:.209;stroke-linecap:butt;stroke-linejoin:miter;stroke-miterlimit:4;stroke-dasharray:none;stroke-opacity:1" transform="matrix(2.58448 0 0 -2.58456 -395.966 1849.211)"/><path d="M195.19 652.696a.705.705 0 0 0-.34-.085.426.426 0 0 0-.321.125.425.425 0 0 0-.122.311.465.465 0 0 0 .485.471.52.52 0 0 0 .353-.14.724.724 0 0 0 .226-.433.998.998 0 0 0-.281-.249m-.668-1.054a.92.92 0 0 1 .294-.051c.24 0 .444.1.615.298.182.208.273.486.273.823 0 .33-.09.583-.267.766a.726.726 0 0 1-.54.226.71.71 0 0 1-.49-.176.62.62 0 0 1-.214-.491c0-.191.065-.343.194-.455a.654.654 0 0 1 .45-.154c.151 0 .29.039.418.117.066.04.146.102.234.19 0-.124-.01-.23-.027-.313a.993.993 0 0 0-.146-.346.67.67 0 0 0-.285-.255.538.538 0 0 0-.224-.05.646.646 0 0 0-.282.072c-.056.028-.118.07-.187.124v-.238a1.22 1.22 0 0 1 .184-.087" style="fill:#06a84e;fill-opacity:1;fill-rule:nonzero;stroke:none" transform="matrix(2.58448 0 0 -2.58456 -395.966 1849.211)"/><path d="M195.19 652.696a.705.705 0 0 0-.34-.085.426.426 0 0 0-.321.125.425.425 0 0 0-.122.311.465.465 0 0 0 .485.471.52.52 0 0 0 .353-.14.724.724 0 0 0 .226-.433.998.998 0 0 0-.281-.249m-.668-1.054a.92.92 0 0 1 .294-.051c.24 0 .444.1.615.298.182.208.273.486.273.823 0 .33-.09.583-.267.766a.726.726 0 0 1-.54.226.71.71 0 0 1-.49-.176.62.62 0 0 1-.214-.491c0-.191.065-.343.194-.455a.654.654 0 0 1 .45-.154c.151 0 .29.039.418.117.066.04.146.102.234.19 0-.124-.01-.23-.027-.313a.993.993 0 0 0-.146-.346.67.67 0 0 0-.285-.255.538.538 0 0 0-.224-.05.646.646 0 0 0-.282.072c-.056.028-.118.07-.187.124v-.238a1.22 1.22 0 0 1 .184-.087z" style="fill:none;stroke:#06a84e;stroke-width:.209;stroke-linecap:butt;stroke-linejoin:miter;stroke-miterlimit:4;stroke-dasharray:none;stroke-opacity:1" transform="matrix(2.58448 0 0 -2.58456 -395.966 1849.211)"/><path d="M196.649 652.401v-.18h.992v-.594h.193v.594h.374v.18h-.374v1.267h-.193l-.992-1.267m.213 0 .779 1.01v-1.01z" style="fill:#06a84e;fill-opacity:1;fill-rule:nonzero;stroke:none" transform="matrix(2.58448 0 0 -2.58456 -395.966 1849.211)"/><path d="M196.649 652.401v-.18h.992v-.594h.193v.594h.374v.18h-.374v1.267h-.193l-.992-1.267m.213 0 .779 1.01v-1.01z" style="fill:none;stroke:#06a84e;stroke-width:.209;stroke-linecap:butt;stroke-linejoin:miter;stroke-miterlimit:4;stroke-dasharray:none;stroke-opacity:1" transform="matrix(2.58448 0 0 -2.58456 -395.966 1849.211)"/><path d="M193.837 715.08c-22.216 0-40.223-18.008-40.223-40.221 0-22.213 18.007-40.221 40.223-40.221 22.215 0 40.222 18.008 40.222 40.22 0 22.214-18.007 40.223-40.222 40.223" style="fill:#7fbfd4;fill-opacity:1;fill-rule:nonzero;stroke:none" transform="matrix(2.58448 0 0 -2.58456 -395.966 1849.211)"/><path d="M193.837 715.08c-22.216 0-40.223-18.008-40.223-40.221 0-22.213 18.007-40.221 40.223-40.221 22.215 0 40.222 18.008 40.222 40.22 0 22.214-18.007 40.223-40.222 40.223z" style="fill:none;stroke:#0daa90;stroke-width:.80901;stroke-linecap:butt;stroke-linejoin:miter;stroke-miterlimit:4;stroke-dasharray:none;stroke-opacity:1" transform="matrix(2.58448 0 0 -2.58456 -395.966 1849.211)"/><path d="M163.647 674.859c0-16.673 13.518-30.189 30.19-30.189 16.675 0 30.188 13.516 30.188 30.189 0 16.673-13.513 30.19-30.188 30.19-16.672 0-30.19-13.517-30.19-30.19" style="fill:#fff;fill-opacity:1;fill-rule:nonzero;stroke:none" transform="matrix(2.58448 0 0 -2.58456 -395.966 1849.211)"/><path d="M163.647 674.859c0-16.673 13.518-30.189 30.19-30.189 16.675 0 30.188 13.516 30.188 30.189 0 16.673-13.513 30.19-30.188 30.19-16.672 0-30.19-13.517-30.19-30.19z" style="fill:none;stroke:#0daa60;stroke-width:.68401;stroke-linecap:butt;stroke-linejoin:miter;stroke-miterlimit:4;stroke-dasharray:none;stroke-opacity:1" transform="matrix(2.58448 0 0 -2.58456 -395.966 1849.211)"/><path d="M192.88 700.508h.858s.233-.027.26-.13l.363-.027s.076-.027.106-.077l.362-.053s.05-.025.078-.105l.18-.023s.13 0 .13-.08l.158-.051s.076-.027.076-.129l.052-.13.104-.079.026-.105.146-.124.02-.604.139-.18v-2.935l-.055-.13v-1.167l.038-.054v-1.712l-.133-.079-.026-.755-.05-.127-.105-.054s-.078-.077-.156-.103c0 0-.076-.026-.076-.104l-.157-.051-.103-.076h-.598s-.104.1-.104.18c0 0-.052.077-.105.077 0 0-.209.052-.232.105l-.443.026-.206.05-.728.027-.155.154-.08.157-.389.027-.13.131s-.206.025-.206.128c0 0-.183.104-.183.181 0 0-.104.106-.104.182l-.05.365s-.054.104-.054.26l.026.935v.364s-.029.195.049.22l.004.323-.038.2-.015.477s.053.051.078.128v1.636l.05.08v.78l.054.103v.234l-.078.077v.442l.053.233.129.104.026.13.104.131.078.128.13.104.024.106.417.025.105.104.128.078.208.052zM200.469 692.308l.859 1.128.117.177.096.057.292.137.078.233.097.136.158.117.174.059.662.702.098.174.136.04.097.058.077.117.139.077.094.059.06.156.059.116.096.078.099.097.156.137.058.137.116.079.137.115.312.273.118.06.075.115.196.099.391-.022.115-.096.098-.097.506.04.174-.02.098-.137.098-.039.098-.195.156-.058.136-.136.178-.06.076-.116.095-.04.059-.095.1-.041.018-.194v-.215l.155-.038.02-.175.116-.02.04-.137v-.135l-.098-.076-.04-.295-.055-.213-.079-.098-.116-.157-.098-.233-.117-.08-.156-.134-.098-.137-.019-.253-.488-.408-.057-.136-.078-.197-.138-.136-.097-.155-.701-.72-.096-.254-.058-.195-.177-.331-.135-.136-.157-.137-.096-.136-.137-.135-.156-.08-.39-.077-.137-.077-.195-.04-.097-.099-.214-.018-.194-.097-.605-.021-.136-.077-.117-.058-.293-.02-.116-.058-.507.018-.115.1-.117.116-.156.037-.077.159-.098.135-.061.136-.174.099-.077.135-.06.235-.038.213-.078.117-.097.214v.605l.097.155.078.117.038.175zM207.134 685.304s.467.392.574.451c0 0 .15.046.18.105 0 0 .436.47.528.528 0 0 .304.168.377.18 0 0 .438.32.485.397 0 0 .12.102.164.102 0 0 .258.077.318.077 0 0 .048 0 .093.046 0 0 .057.105.135.123 0 0 .257.088.285.149 0 0 .076.15.197.15 0 0 .301.016.363.061 0 0 .06.123.12.123 0 0 .288.027.333.058 0 0 .106.152.181.152 0 0 .287.03.347.075 0 0 .423.288.529.319 0 0 .38.149.468.149 0 0 .361.059.392.12 0 0 .076.183.153.198 0 0 .555.046.62 0 0 0 .193-.06.224-.107 0 0 .391-.348.603-.8 0 0 .092-.316.092-.407 0 0 .09-.317.197-.424 0 0 .285-.377.362-.391 0 0 .044-.077.044-.182 0 0 .046-.542-.075-.603 0 0-.589-.5-.785-.575l-.301-.3s-.257-.169-.529-.214c0 0-.107-.12-.24-.134 0 0-.212-.015-.335-.122 0 0-.242-.317-.665-.484l-1.205-1.056s-.107-.09-.213-.103c0 0-.227-.048-.257-.107 0 0-.136-.274-.304-.29 0 0-.074-.103-.164-.103h-2.566s-.725.36-.832.89c0 0-.043.21-.092.33 0 0-.074.696 0 .848 0 0 .018.544.092.619l.107.152zM210.94 677.27h2.427s.077.03.14.06h2.613s.043-.06.149-.06h1.176s.093-.044.184-.15c0 0 .378.106.556-.182 0 0 .184-.032.198-.363l.013-.393s.138-.09.155-.18v-.287s-.017-.046.061-.122c0 0 .164.06.133-.512 0 0 0-.08.061-.108 0 0 .106-.074.09-.197 0 0 .029-.451-.137-.526 0 0-.134-.016-.147-.136l-.017-.38s-.092-.333-.635-.483l-.363-.073s-.104-.078-.226-.093l-.83.015s-.227-.045-.333-.06c0 0-.875-.03-1.028.031 0 0-.18 0-.3-.09h-1.677s-.212-.092-.258-.092c0 0-.634-.012-1.055.075h-.831s-.725.318-.814.393c0 0-.789.227-1.179.877 0 0-.106.18-.106.243v1.69s-.15.363.8.8c0 0 .105.121.334.121 0 0 .542.182.845.182M182.057 697.657h.424s.06.142.172.142l.226.057s.058.112.197.112l.653-.055s.398-.17 1.05-.852c0 0 .538-.426.794-1.302l.623-2.295.821-2.44s.256-.48.03-1.022c0 0-.34-.338-.51-.367 0 0-.34.056-.427-.086 0 0 .057-.252-.084-.367l-.653-.057s-.17-.226-.254-.226l-.88.03s-.254.169-.28.282c0 0-.485-.086-.627.226 0 0-.425.651-.625 1.7 0 0-.593 1.76-.621 2.21 0 0-.596 1.789-.71 2.045 0 0-.198 0-.113 1.416 0 0 .028.284.197.339 0 0 .257.03.315.256 0 0 .057.226.282.254M172.644 689.297s-.055.303.314.48c0 0 .425.311 1.275-.113 0 0 .68-.058.994-.453l.68-.056s.254 0 .82-.453c0 0 .71-.284 1.05-.568 0 0 .735-.256 1.047-.794 0 0 .11-.062.221-.049 0 0 .522.017.824-.217 0 0 1.086-.48 1.676-1.22 0 0 .137-.374.11-.537 0 0 .15-.125.15-.22 0 0 .111-.538-.206-.58 0 0-.275-.163-.355-.411l-.043-.904s-.054-.152-.124-.166l-.301-.413s-.056-.136-.123-.151l-.852.043s-.7.561-.768.658c0 0-.139.108-.29.108h-.934s-.122.072-.191.151l-2.543 1.43s-.795.468-1.277.549c0 0-.175.07-.342.152 0 0-1.182.921-1.65 1.703 0 0-.066.025-.108.165l-.015.604s.042.083.111.151c0 0 0 .276.123.357 0 0 .608.46.727.754M169.075 675.207v.577s.027.124.137.192c0 0 .04.028.083.11 0 0-.029.26.232.304 0 0 .055.012.125.082 0 0 .219.08.507.08 0 0 .137 0 .208.068 0 0 .108.098.685.086 0 0 .151.026.234.082 0 0 .109.08.357.08h1.98s.107-.096.175-.096c0 0 .523 0 .647.055 0 0 .012.042.122.056h1.348s.04.069.192.069h1.084l.109-.057s.056-.04.126-.04l.863-.013s.152-.015.234-.11c0 0 .274-.112.3-.425v-1.115s0-.178.058-.231c0 0 .07-.083.083-.18 0 0 .013-.372.081-.451 0 0 .069-.098.165-.113 0 0 .081 0 .081-.19v-.372s-.025-.152-.136-.178l-.483-.399s-.026-.138-.122-.164h-1.124s-.043-.04-.139-.056h-1.646s-.071 0-.11.043l-.317.028-.083-.055s-.056-.11-.138-.11h-4.078s-.384.15-.481.233c0 0-.233 0-.355.096 0 0-.345 0-.524.125 0 0-.343.244-.386.466l-.04.288s-.069.082-.069.15l-.013.343s-.057.07-.057.137l-.011.412s.068.095.096.193M182.454 678.652l.739-.739s.195-.077.312-.077c0 0 .272-.04.39-.117 0 0 .271-.117.466-.117 0 0 .159 0 .274.194 0 0 .184.035.341.208.095.105.095.201.127.298 0 0 .427.585.545.819l.351.545s.232.118.232.35c0 0 .352.466.507.623 0 0 .43.507.585.625 0 0 .545.584.702.66 0 0 .43.273.583.43 0 0 .235.312.39.351 0 0 .233 0 .505.273 0 0 .272.077.584.155 0 0 .468.156.663.351 0 0 .545.155.858.194l.895.156s.273-.04.468.039c0 0 .117.117.275.117l1.829-.039s.155-.078.31-.117c0 0 .82-.04.976-.117 0 0 .388-.157.778-.193 0 0 .624-.508 1.208-.47 0 0 .076 0 .39-.234 0 0 1.05-.779 1.169-.856 0 0 .429-.585.816-.624 0 0 .158-.468.236-.623 0 0 .427-.312.583-.506 0 0 .506-.937.584-1.09l.235-.78s.117-.273.273-.314l.894.04s.341.086.414.15c0 0 .086.084.181.072 0 0 .774-.007.87.075 0 0 .7.435.76.583 0 0 .055.095.055.222 0 0-.065.2-.065.285l-.042.615s-.012.104-.137.179c0 0 0 .298-.223.711 0 0-.01.212-.139.486 0 0-.58 1.348-1.27 1.951 0 0-.9 1.185-1.344 1.472 0 0-.128.284-.402.348 0 0-.318.118-.362.169 0 0-.393.158-.432.212 0 0-.328.106-.5.117 0 0-.104.053-.083.264 0 0 .052.476-.319.487l-.497.05s-.095.29-.328.363l-.252.097-.734.548s-.732.298-.951.36c0 0-.457.064-.857.086 0 0-.307.021-.701.2 0 0-.052.129-.976.066 0 0-.06 0-.135.072 0 0-.2.16-.423.16h-1.261s-.125-.01-.246-.117c0 0-.22-.043-.252-.128 0 0-.054-.094-.243-.075h-.754s-.188-.05-.264-.103l-.37-.01s-.117-.013-.212-.108l-.16-.021s-.094-.021-.2-.115c0 0-.104-.065-.127-.128 0 0 .01-.021-.104-.032h-1.05s-.859-.052-2.065-.985c0 0-1.217-.55-2.138-1.587 0 0-1.303-1.231-1.916-2.436 0 0-.49-.668-.573-1.145 0 0-.246-.635-.349-.815 0 0-.086-.117-.098-.319 0 0-.126-.04-.135-.306 0 0 0-.263.01-.402l.031-.667s.132-.28.294-.316" style="fill:#f3b212;fill-opacity:1;fill-rule:nonzero;stroke:none" transform="matrix(2.58448 0 0 -2.58456 -395.966 1849.211)"/><path d="m193.888 679.741 1.037.015c.077-.015.239-.015.491-.162 0 0 .755-.564.98-.935 0 0 .118-.135.178-.178 0 0 .147-.073.222-.268 0 0 .028-.177.09-.222 0 0 .325-.386.4-.593 0 0 .254-.46.282-.863 0 0 .046-.102.12-.133 0 0 .117-.165.117-.488v-1.292s-.042-.104-.117-.179c0 0-.106-.445-.254-.61 0 0-.074-.116-.074-.176 0 0-.015-.15-.15-.267l-.324-.446s-.062-.193-.09-.297c0 0-.147-.132-.207-.177 0 0-.504-.431-.593-.446 0 0-.104-.339-.447-.356 0 0-.237-.06-.31-.133 0 0-.075-.031-.18-.045 0 0-.134-.117-.267-.103h-.385s-.149.014-.237.117c0 0-.134.103-.236.103 0 0-.297-.087-.535-.072 0 0-.401-.06-.534-.06 0 0-.328.015-.447.104 0 0-.504.178-.637.296 0 0-.742.46-1.083 1.084 0 0-.15.297-.358.447 0 0-.312.251-.296.561 0 0-.133.373-.208.625 0 0-.103.134-.12.356 0 0-.117.194-.117.506l-.03 1.008s.073.444.177.505c0 0 .03.266.165.416 0 0 .518.786.696.936 0 0 .61.77.92.933l.311.165s.106.162.266.177l.538.014s.235-.03.343.03c0 0-.016.132.903.103" style="fill:#06a84e;fill-opacity:1;fill-rule:nonzero;stroke:none" transform="matrix(2.58448 0 0 -2.58456 -395.966 1849.211)"/><path d="m182.721 675.262.461.024s.138.178.309.284a.41.41 0 0 0 .054.03c.194.096.39.243.849 0 0 0 .313-.386.459-.68 0 0 .363-.869.58-1.136 0 0 .145-.12.388-.799 0 0 .727-1.429 1.38-2.009 0 0 1.138-1.285 2.155-1.961 0 0 1.041-.677 1.912-.92 0 0 1.575-.532 2.567-.438 0 0 1.646-.071 2.204.197 0 0 .653.167.895.29 0 0 .776.533 1.404.847 0 0 1.21.943 1.67 1.233 0 0 1.212 1.21 1.478 1.72 0 0 .823 1.09 1.065 1.404 0 0 .268.412.485.678 0 0 .676.897.895 1.064 0 0 .654.46.726.582 0 0 .096.219.315.219 0 0 .339.023.462-.17 0 0 .484-.072.652-.025 0 0 .34.123.386-.169 0 0-.097-.217.147-.338 0 0 .168-.122.147-.413 0 0 .144-.095.12-.337 0 0 .072-.196-.147-.484 0 0-.048-.34-.023-.535 0 0 .145-.12.145-.604 0 0 .097-.751-.217-.702 0 0-.268-.145-.268-.315 0 0-.219-.655-.411-.655 0 0-.17-.155-.194-.323 0 0-.292-.451-.46-.597 0 0-.193-.492-.457-.662 0 0-.366-.16-.293-.547 0 0 .096-.216-.194-.363 0 0-.509-.364-.679-.63 0 0-.288-.507-.652-.774 0 0-.145-.171-.243-.291 0 0-.34-.436-.774-.509l-.325-.135s-.33-.131-.57-.202c0 0-.04-.204-.257-.228 0 0-.18-.21-.423-.233l-.466-.225s-.55-.743-1.23-.962c0 0-.192-.024-.192-.24 0 0 .096-.172.265-.22 0 0 .291-.145.462-.339l.485-.436s.314-.075.484-.51c0 0-.026-.337.144-.435 0 0 .22-.143.436-.434 0 0 .678-.387 1.067-1.259 0 0 .773-1.333.92-1.647 0 0 .386-.775.41-.967 0 0 .122-.267.218-.39 0 0 .582-.773.654-1.088 0 0 .266-.338.217-1.235 0 0 .025-.146.267-.267 0 0 .217-.023.171-.556 0 0 .192-.243.216-.63 0 0 .098-.363.098-.557 0 0 .093-.168.048-.557 0 0 .168-.365-.243-.63 0 0-.17-.289-.508-.241 0 0-.267-.242-.484-.242 0 0-.364-.074-.63-.048l-.895-.026s-.315.049-.533.242c0 0-.51.414-.558.607 0 0-.58.533-.677 1.138 0 0-.364.848-.41 1.258 0 0-.147.291-.316.534 0 0-.193.242-.267.484 0 0-.652 1.063-.849 1.282 0 0-.772 1.404-.966 1.621 0 0-.363.46-.606.702 0 0-.531.461-.7.605 0 0-.462.415-.704.558 0 0-.58.34-1.21.29 0 0-.654.026-1.138-.071 0 0-.339 0-.557-.169 0 0-.122-.316-.462-.46 0 0-.555-.677-1.015-.824 0 0-.218-.144-.293-.386 0 0-.117-.414-.434-.705 0 0 .096-.434-.435-.58 0 0-.316-.653-.63-.894 0 0-.169-.656-.484-.75 0 0-.679-.946-.945-1.285 0 0-.411-.797-.846-1.066 0 0-.34-.458-.775-.458 0 0-.121-.051-.242-.194 0 0-.388-.387-.728-.463l-.507-.385s-.17-.099-.655-.05c0 0-.241-.314-.41-.289 0 0-.193-.05-.39.122l-.7.047s-.195.096-.338.265l-.46.534s-.098.071-.122.387l.024.97s.048.098.195.29c0 0 .482.799.75 1.066 0 0 .265.434.385.533 0 0 .17.556.463.844 0 0 .12.461.773.826 0 0 .29.314.363.46 0 0 .024.556.629.87 0 0 .122.123.172.267 0 0 .193.363.532.608 0 0 .047.166.218.433 0 0 .24.678.8 1.186 0 0 .24.17.359.436 0 0 .535.774.85.678 0 0 .316.944.968 1.067 0 0 .485.216.121.385l-.653.364s-.897.317-1.09.533c0 0-.629.434-.821.605 0 0-.534.267-.657.435 0 0-1.21 1.017-1.84 1.768 0 0-1.136 1.088-1.283 1.696 0 0-.435.556-.557.701 0 0-.145.123-.145.46 0 0-.388.557-.412.75-.022.194-.047 0-.047 0l.025.678s-.194.22-.22.388l-.048 1.377s.17.413.268.536c0 0 .12.194.12.315 0 0-.12.653.483.581" style="fill:#06a84e;fill-opacity:1;fill-rule:nonzero;stroke:none" transform="matrix(2.58448 0 0 -2.58456 -395.966 1849.211)"/><path d="M190.047 653.675h.171v-2.046h-.194v1.506h-.488v.156h.11c.17 0 .285.047.346.135a.455.455 0 0 1 .055.249" style="fill:#06a84e;fill-opacity:1;fill-rule:nonzero;stroke:none" transform="matrix(2.58448 0 0 -2.58456 -395.966 1849.211)"/><path d="M190.047 653.675h.171v-2.046h-.194v1.506h-.488v.156h.11c.17 0 .285.047.346.135a.455.455 0 0 1 .055.249z" style="fill:none;stroke:#06a84e;stroke-width:.209;stroke-linecap:butt;stroke-linejoin:miter;stroke-miterlimit:4;stroke-dasharray:none;stroke-opacity:1" transform="matrix(2.58448 0 0 -2.58456 -395.966 1849.211)"/><path d="M192.06 651.642a.896.896 0 0 1 .29-.051c.24 0 .448.1.619.298.179.208.271.485.271.823 0 .33-.088.583-.265.766a.737.737 0 0 1-.543.226.711.711 0 0 1-.49-.176.622.622 0 0 1-.213-.491c0-.191.065-.343.195-.455a.652.652 0 0 1 .451-.154c.148 0 .288.039.418.117.065.04.144.101.234.19 0-.124-.011-.23-.03-.313a1.057 1.057 0 0 0-.143-.346.696.696 0 0 0-.285-.255.54.54 0 0 0-.226-.05.646.646 0 0 0-.281.072c-.057.028-.118.07-.188.124v-.238c.07-.039.13-.07.186-.087m.666 1.054a.701.701 0 0 0-.338-.085.425.425 0 0 0-.444.436.46.46 0 0 0 .486.471c.13 0 .245-.045.353-.14a.717.717 0 0 0 .222-.433.986.986 0 0 0-.28-.249" style="fill:#06a84e;fill-opacity:1;fill-rule:nonzero;stroke:none" transform="matrix(2.58448 0 0 -2.58456 -395.966 1849.211)"/><path d="M192.06 651.642a.896.896 0 0 1 .29-.051c.24 0 .448.1.619.298.179.208.271.485.271.823 0 .33-.088.583-.265.766a.737.737 0 0 1-.543.226.711.711 0 0 1-.49-.176.622.622 0 0 1-.213-.491c0-.191.065-.343.195-.455a.652.652 0 0 1 .451-.154c.148 0 .288.039.418.117.065.04.144.101.234.19 0-.124-.011-.23-.03-.313a1.057 1.057 0 0 0-.143-.346.696.696 0 0 0-.285-.255.54.54 0 0 0-.226-.05.646.646 0 0 0-.281.072c-.057.028-.118.07-.188.124v-.238c.07-.039.13-.07.186-.087m.666 1.054a.701.701 0 0 0-.338-.085.425.425 0 0 0-.444.436.46.46 0 0 0 .486.471c.13 0 .245-.045.353-.14a.717.717 0 0 0 .222-.433.986.986 0 0 0-.28-.249z" style="fill:none;stroke:#06a84e;stroke-width:.209;stroke-linecap:butt;stroke-linejoin:miter;stroke-miterlimit:4;stroke-dasharray:none;stroke-opacity:1" transform="matrix(2.58448 0 0 -2.58456 -395.966 1849.211)"/><path d="M195.19 652.696a.705.705 0 0 0-.34-.085.426.426 0 0 0-.321.125.425.425 0 0 0-.122.311.465.465 0 0 0 .485.471.52.52 0 0 0 .353-.14.724.724 0 0 0 .226-.433.998.998 0 0 0-.281-.249m-.668-1.054a.92.92 0 0 1 .294-.051c.24 0 .444.1.615.298.182.208.273.486.273.823 0 .33-.09.583-.267.766a.726.726 0 0 1-.54.226.71.71 0 0 1-.49-.176.62.62 0 0 1-.214-.491c0-.191.065-.343.194-.455a.654.654 0 0 1 .45-.154c.151 0 .29.039.418.117.066.04.146.102.234.19 0-.124-.01-.23-.027-.313a.993.993 0 0 0-.146-.346.67.67 0 0 0-.285-.255.538.538 0 0 0-.224-.05.646.646 0 0 0-.282.072c-.056.028-.118.07-.187.124v-.238a1.22 1.22 0 0 1 .184-.087" style="fill:#06a84e;fill-opacity:1;fill-rule:nonzero;stroke:none" transform="matrix(2.58448 0 0 -2.58456 -395.966 1849.211)"/><path d="M195.19 652.696a.705.705 0 0 0-.34-.085.426.426 0 0 0-.321.125.425.425 0 0 0-.122.311.465.465 0 0 0 .485.471.52.52 0 0 0 .353-.14.724.724 0 0 0 .226-.433.998.998 0 0 0-.281-.249m-.668-1.054a.92.92 0 0 1 .294-.051c.24 0 .444.1.615.298.182.208.273.486.273.823 0 .33-.09.583-.267.766a.726.726 0 0 1-.54.226.71.71 0 0 1-.49-.176.62.62 0 0 1-.214-.491c0-.191.065-.343.194-.455a.654.654 0 0 1 .45-.154c.151 0 .29.039.418.117.066.04.146.102.234.19 0-.124-.01-.23-.027-.313a.993.993 0 0 0-.146-.346.67.67 0 0 0-.285-.255.538.538 0 0 0-.224-.05.646.646 0 0 0-.282.072c-.056.028-.118.07-.187.124v-.238a1.22 1.22 0 0 1 .184-.087z" style="fill:none;stroke:#06a84e;stroke-width:.209;stroke-linecap:butt;stroke-linejoin:miter;stroke-miterlimit:4;stroke-dasharray:none;stroke-opacity:1" transform="matrix(2.58448 0 0 -2.58456 -395.966 1849.211)"/><path d="M196.649 652.401v-.18h.992v-.594h.193v.594h.374v.18h-.374v1.267h-.193l-.992-1.267m.213 0 .779 1.01v-1.01z" style="fill:#06a84e;fill-opacity:1;fill-rule:nonzero;stroke:none" transform="matrix(2.58448 0 0 -2.58456 -395.966 1849.211)"/><path d="M196.649 652.401v-.18h.992v-.594h.193v.594h.374v.18h-.374v1.267h-.193l-.992-1.267m.213 0 .779 1.01v-1.01z" style="fill:none;stroke:#06a84e;stroke-width:.209;stroke-linecap:butt;stroke-linejoin:miter;stroke-miterlimit:4;stroke-dasharray:none;stroke-opacity:1" transform="matrix(2.58448 0 0 -2.58456 -395.966 1849.211)"/><path d="M226.617 661.651a.892.892 0 1 1 0 1.784.892.892 0 0 1 0-1.784M160.904 661.796a.892.892 0 1 1 .005 1.783.892.892 0 0 1-.005-1.783M167.403 647.13c-.28.246-.3.505-.06.772l.696.784c.13.147.09.318-.126.51l.202.227.952-.847-.987-1.111c-.053-.06-.049-.118.015-.174l2.74-2.438-.386-.433-3.046 2.71m3.702.827-1.092-1.226-.682.606 1.09 1.228-2.094 1.862.381.429 3.37-2.996c.197.057.409.204.635.438-.018-.022.157.176.524.588.065.073.056.146-.025.218l-2.882 2.564.386.435 3.598-3.199c.028-.025.028-.052.003-.08l-.799-.9c-.314-.352-.584-.56-.812-.624l.71-.63-.381-.429-1.93 1.716zM184.158 642.243l-.613-1.418-.76.33 1.142 2.639c.082.19-.009.342-.272.456l.12.28 1.157-.5-.516-1.19.858-.371-.258-.598-.858.372m-3.79-1.612c-.113-.256-.12-.494-.026-.716a.865.865 0 0 1 .459-.437.828.828 0 0 1 .636-.028c.228.076.397.24.509.496.108.25.112.488.013.712a.846.846 0 0 1-.458.436.858.858 0 0 1-.632.036c-.224-.078-.392-.245-.502-.5m-.773.335c.18.416.484.674.914.776.386.095.79.051 1.216-.135.424-.181.733-.447.928-.794.22-.382.24-.782.06-1.197a1.295 1.295 0 0 0-.917-.784c-.387-.094-.792-.05-1.216.134-.425.183-.735.449-.929.796a1.288 1.288 0 0 0-.056 1.204m2.21.917c-.219.125-.43.343-.635.653-.233.342-.354.667-.365.976 0 .032-.015.053-.04.063-.03.018-.058.016-.083-.01-.232-.203-.552-.34-.958-.41-.366-.063-.67-.055-.913.025l-.241.62c-.008.02 0 .024.021.014.304-.13.665-.128 1.084.009.519.177.9.534 1.144 1.072l-1.131.49.228.526 3.137-1.36-.227-.525-1.144.495c-.228-.54-.23-1.058-.003-1.558.184-.404.431-.673.74-.806.011-.006.01-.015-.006-.028l-.608-.246zM195.406 636.62v3.696h-.58v-3.696h-.786v2.018c-.236-.09-.63-.135-1.182-.135h-1.232c-.562 0-.843.276-.843.829v2.456c0 .198-.143.297-.431.297v.305h2.959v-.58h-1.692v-2.57c0-.104.052-.156.155-.156h1.374c.382 0 .68.045.892.135v3.05c0 .199-.123.297-.369.297v.311h1.155v-1.98h.58v1.372c0 .199-.123.297-.367.297v.31h1.152v-6.256zM208.492 643.965l.667-1.57-.761-.324-1.188 2.794c-.081.192-.254.23-.52.118l-.12.28 1.161.493.51-1.198.86.365.25-.593-.859-.365m-3.953-1.827c.099-.234.246-.391.44-.474a.653.653 0 0 1 .52.006.675.675 0 0 1 .371.384c.074.182.062.39-.036.62-.102.238-.247.397-.434.476a.63.63 0 0 1-.514-.002.664.664 0 0 1-.371-.373c-.081-.198-.074-.409.024-.636m4.842-2.472-.634 1.492c-.022.051-.061.066-.118.042l-3.323-1.413-.226.536 4.084 1.735c.078.032.133.012.166-.061l.845-1.994-.794-.337m-3.373 3.988c.286-.153.488-.366.602-.635.169-.396.153-.774-.048-1.136-.174-.326-.457-.572-.848-.738-.386-.164-.76-.197-1.12-.099-.4.108-.682.36-.85.754a1.278 1.278 0 0 0-.035.877l-.75-.318-.223.527 1.491.634-.118.281c-.06.14-.18.17-.363.092l-.1.236 1.089.461.306-.724 1.5.639.224-.53-.757-.32zM219.525 649.238l-.605-.535c-.05.277-.18.571-.391.882a8.395 8.395 0 0 1-.614.76l-.82.928c-.066.075-.14.076-.222.003l-2.891-2.552-.379.428 3.607 3.186c.029.026.054.026.075.002l1.317-1.492c.553-.627.86-1.163.923-1.61m-3.042-4.416-.384.435 1.214 1.073-1.288 1.46c-.121.137-.274.126-.459-.037l-.2.227.88.778 1.672-1.893.536.472-1.288 1.46c-.122.139-.273.127-.454-.034l-.2.23.874.773 1.673-1.895 1.756 1.551.386-.434-4.718-4.166zM161.343 675.617l-4.91.341.053.758 2.408-.168-2.283 1.964.063.92 2.304-2.063 2.608 1.753-.065-.945-2.508-1.637 2.383-.165-.053-.758zM157.017 681.458l3.062-.613c.399-.08.69-.082.873-.007.209.087.345.289.41.606.058.294.007.518-.154.672-.14.138-.41.249-.809.327l-3.061.613.15.753 3.049-.61c.283-.058.504-.117.665-.18.202-.08.368-.183.5-.307a1.63 1.63 0 0 0 .381-.618c.072-.22.08-.466.025-.74a1.906 1.906 0 0 0-.32-.772 1.436 1.436 0 0 0-.61-.485 1.381 1.381 0 0 0-.615-.104 5.643 5.643 0 0 0-.648.102l-3.048.61.15.752zM162.577 683.888l-4.642 1.634.254.722 4.117.992-3.353 1.179.248.702 4.642-1.634-.236-.672-4.214-.99 3.439-1.21zM164.345 690.866c.173-.121.305-.255.398-.404.111-.198.17-.408.174-.63a1.456 1.456 0 0 0-.161-.688c-.176-.351-.418-.58-.724-.685-.306-.105-.633-.07-.98.104l.333.666c.175-.063.32-.074.437-.035.123.041.221.136.296.283.12.239.109.439-.03.6-.1.124-.343.283-.734.479l-2.797 1.4.34.68 2.88-1.442c.25-.125.44-.234.568-.328M163.583 695.091l1.089-1.506.717 1.073-1.806.433m2.425-3.395-.45-.675-3.024 4.338.406.61 5.156-1.142-.464-.698-1.466.34-1.024-1.534zM168.51 695.31l-3.65 3.303.515.568 4.182-.677-2.635 2.386.502.555 3.648-3.304-.479-.529-4.273.713 2.703-2.448zM174.066 703.902c.462-.635.66-1.29.593-1.963-.066-.66-.373-1.209-.924-1.646a2.352 2.352 0 0 0-.937-.462 2.616 2.616 0 0 0-1.046-.03 2.548 2.548 0 0 0-.862.326c-.27.17-.507.385-.714.644-.215.271-.37.566-.464.887-.09.324-.115.659-.073 1.005.035.34.133.65.292.927.157.27.378.519.661.744.387.308.8.486 1.24.535.443.046.888-.043 1.335-.268l-.732-.582a1.5 1.5 0 0 1-.741.004 1.704 1.704 0 0 1-.663-.334 1.782 1.782 0 0 1-.428-.493 1.568 1.568 0 0 1-.187-.625 1.779 1.779 0 0 1 .377-1.315c.155-.194.332-.354.528-.474.204-.123.417-.198.641-.227a1.87 1.87 0 0 1 .69.049c.227.058.428.155.602.294.266.212.446.466.538.763.098.312.1.666.006 1.065l-1.281-1.019-.467.59 2.016 1.605zM176.888 708.284l1.362-2.809c.176-.365.35-.599.52-.7.196-.114.44-.1.729.04.27.131.418.307.442.527.027.197-.049.478-.227.844l-1.362 2.81.69.333 1.356-2.798a3.97 3.97 0 0 0 .258-.638 1.51 1.51 0 0 0 .057-.583 1.61 1.61 0 0 0-.26-.679 1.439 1.439 0 0 0-.573-.467 1.917 1.917 0 0 0-.808-.21 1.444 1.444 0 0 0-.755.194c-.175.1-.326.242-.454.427a6.143 6.143 0 0 0-.31.578l-1.356 2.797.69.334zM182.177 705.32l-1.505 4.685.728.234 3.279-2.68-1.087 3.384.708.228 1.505-4.687-.678-.218-3.336 2.758 1.115-3.471zM186.863 706.683l-1.011 4.816.748.158 1.012-4.817zM190.049 707.225l-2.387 4.682.799.091 1.664-3.408.854 3.693.793.091-1.268-5.098-.455-.051zM192.934 707.46l-.013 4.916 2.6.006.002-.713-1.834-.005.005-1.382 1.832.005.001-.705-1.832-.005.004-1.379 1.832.005.003-.739-2.6-.006zM198.834 711.163c-.142.14-.378.23-.707.267l-.506.06-.18-1.528.48-.056c.343-.04.599-.01.768.088.18.098.283.278.314.543.033.277-.024.486-.169.626m.533-1.52c-.233-.227-.552-.383-.957-.468l1.242-2.162-.956.112-1.156 2.1-.183.02-.227-1.936-.75.088.575 4.89 1.15-.136c.283-.032.492-.067.629-.1.2-.055.366-.133.499-.237.195-.136.34-.327.434-.57.1-.237.134-.486.103-.752a1.368 1.368 0 0 0-.403-.848M201.03 708.203c-.05-.253-.028-.464.067-.635a.67.67 0 0 1 .46-.33c.23-.053.43-.026.598.082.168.109.28.277.334.507.056.243.03.437-.079.584-.078.104-.255.236-.526.399a2.55 2.55 0 0 0-.468.325 1.768 1.768 0 0 0-.363.46.999.999 0 0 0-.11.391c-.01.132.002.27.036.415.098.417.3.724.607.921.3.198.652.25 1.051.157.37-.086.64-.271.81-.554.171-.287.22-.643.147-1.07l-.688.161c.035.204.008.373-.076.51a.554.554 0 0 1-.369.261.614.614 0 0 1-.494-.073c-.134-.093-.225-.24-.271-.44a.758.758 0 0 1-.026-.196.352.352 0 0 1 .059-.181.763.763 0 0 1 .218-.214c.057-.044.158-.108.305-.192l.313-.187c.284-.188.479-.416.587-.683.116-.27.137-.566.06-.889-.107-.459-.326-.801-.657-1.03-.335-.225-.72-.288-1.154-.185-.408.095-.709.311-.902.647-.199.342-.244.74-.138 1.195l.669-.156zM203.627 706.004l1.511 4.683.732-.236-1.512-4.684zM206.009 705.164l1.599 3.886-.932.383.273.665 2.537-1.043-.273-.664-.907.373-1.599-3.887zM209.954 703.276l-.672.368.872 1.59.168 3.452.746-.408-.183-2.527 2.014 1.523.747-.409-2.843-2.04zM216.563 698.753c-.439.065-.846.259-1.22.582-.272.237-.48.515-.62.833a2.606 2.606 0 0 0-.224 1.028c0 .313.054.615.164.907.119.296.286.57.504.82.226.26.486.465.783.614.298.151.624.24.978.26.336.022.652-.015.95-.112.302-.105.58-.268.833-.489.379-.328.634-.707.764-1.136.13-.437.12-.896-.027-1.38l-.669.578a1.56 1.56 0 0 1-.117.753 1.82 1.82 0 0 1-.47.607 1.75 1.75 0 0 1-.562.33 1.495 1.495 0 0 1-.65.07 1.719 1.719 0 0 1-.684-.187 1.85 1.85 0 0 1-.542-.426 1.959 1.959 0 0 1-.364-.612 1.635 1.635 0 0 1-.108-.67c.014-.231.07-.454.169-.666.098-.213.231-.393.4-.538.203-.178.424-.3.66-.365.235-.065.473-.073.718-.024l.691-.601a2.511 2.511 0 0 0-1.357-.176M219.607 697.825a1.631 1.631 0 0 1-.218-.642 1.902 1.902 0 0 1 .055-.69c.061-.225.162-.426.303-.597a1.653 1.653 0 0 1 1.192-.632c.481-.04.924.104 1.326.433a1.701 1.701 0 0 1 .607 1.119c.039.263.028.502-.03.719a1.75 1.75 0 0 1-.333.615c-.144.175-.309.316-.497.421a1.526 1.526 0 0 1-.633.186c-.234.026-.469.002-.7-.074a1.808 1.808 0 0 1-.605-.325 2.037 2.037 0 0 1-.467-.533m.858 1.622c.323.095.659.122 1.008.08.332-.035.636-.124.913-.27.276-.152.52-.358.733-.62a2.57 2.57 0 0 0 .467-.85c.09-.305.12-.628.089-.968a2.493 2.493 0 0 0-.92-1.73 2.65 2.65 0 0 0-.857-.481 2.442 2.442 0 0 0-.92-.126c-.372.029-.71.12-1.015.271a2.456 2.456 0 0 0-.813.654c-.232.284-.39.595-.474.933a2.62 2.62 0 0 0-.043 1.046c.053.308.158.596.315.866.167.271.38.512.636.722.267.218.56.375.88.473M221.271 692.713l4.198 2.56.398-.652-3.564-2.175.825-1.352-.633-.386zM222.877 689.982l4.425 2.14.333-.69-3.759-1.819.69-1.426-.665-.32zM224.21 687.117l4.62 1.68.889-2.443-.672-.244-.626 1.723-1.298-.473.626-1.722-.663-.242-.628 1.723-1.289-.47.627-1.722-.697-.253zM228.851 679.635c-.775-.128-1.449-.008-2.02.352-.56.356-.912.877-1.056 1.564-.075.36-.073.708.009 1.046.077.333.225.65.443.95.188.248.415.455.678.623.273.164.572.28.896.349.338.07.671.075 1 .015.331-.065.641-.195.932-.388.287-.184.52-.41.695-.677.171-.263.295-.57.369-.926.1-.482.075-.93-.079-1.346-.157-.417-.437-.774-.837-1.073l-.192.917c.171.2.284.42.336.659.055.23.053.477-.002.742a1.73 1.73 0 0 1-.246.604 1.582 1.582 0 0 1-.476.448 1.69 1.69 0 0 1-.656.264 1.755 1.755 0 0 1-.687-.01 2.032 2.032 0 0 1-.662-.26 1.61 1.61 0 0 1-.49-.47 1.902 1.902 0 0 1-.268-.637 1.597 1.597 0 0 1-.007-.671c.07-.333.218-.607.441-.824.235-.228.551-.388.95-.483l-.336 1.602.736.153.53-2.524zM226.421 678.212l4.905.321.17-2.592-.71-.046-.12 1.829-1.379-.091.12-1.829-.706-.046-.12 1.829-1.371-.09.12-1.828-.739-.049-.17 2.592z" style="fill:#fff;fill-opacity:1;fill-rule:nonzero;stroke:none" transform="matrix(2.58448 0 0 -2.58456 -395.966 1849.211)"/></svg>