<svg xmlns="http://www.w3.org/2000/svg" xml:space="preserve" width="699.99817" height="700" viewBox="0 0 699.99816 700"><path d="M489.926-33.842c-144.742 0-262.5 117.759-262.5 262.501 0 144.742 117.758 262.5 262.5 262.5 144.744 0 262.5-117.758 262.5-262.5 0-144.742-117.756-262.5-262.5-262.5" style="fill:#293d9b;fill-opacity:1;fill-rule:nonzero;stroke:none;stroke-width:1.35646" transform="matrix(1.33333 0 0 -1.33333 -303.236 654.878)"/><path d="M489.926 483.931c-140.757 0-255.273-114.514-255.273-255.272 0-140.758 114.516-255.273 255.273-255.273C630.685-26.614 745.2 87.9 745.2 228.659c0 140.758-114.515 255.272-255.274 255.272" style="fill:#fff;fill-opacity:1;fill-rule:nonzero;stroke:none;stroke-width:1.35646" transform="matrix(1.33333 0 0 -1.33333 -303.236 654.878)"/><path d="m0 0 .897 1.26L3.776-.792l-6.225-8.741 2.235-1.592 5.33 7.481 8.587-6.117-2.417-3.394-5.683 4.048-10.657-14.964-2.904 2.07 5.328 7.481-2.237 1.593-6.207-8.716-2.881 2.052L-2.418-3.393-7.816.452l-10.603-14.887-2.906 2.069L-9.404 4.372c.342.48.735.769 1.179.865.444.097.897-.018 1.36-.347z" style="fill:#293d9b;fill-opacity:1;fill-rule:nonzero;stroke:none" transform="matrix(1.80861 0 0 -1.80861 112.267 155.98)"/><path d="m0 0-10.056-7.426 1.426-1.929L1.424-1.93Zm6.839-2.247L-8.37-13.479c-.526-.389-1.008-.548-1.449-.483-.442.067-.825.32-1.15.76l-5.869 7.948 3.352 2.474 1.35-1.826 10.054 7.425-2.063 2.793-14.929-11.028c-1.117-.824-2.052-.729-2.801.287L-25.758.126l8.887 6.563-.937 1.271-8.913-6.582-2.061 2.793 12.263 9.058 5.006-6.78-8.886-6.563.957-1.296 13.254 9.79-6.414 8.683 3.352 2.475z" style="fill:#293d9b;fill-opacity:1;fill-rule:nonzero;stroke:none" transform="matrix(1.80861 0 0 -1.80861 191.955 109.92)"/><path d="m0 0 17.512 5.754 1.104-3.359L-.877-4.008c-.58-.191-1.103-.197-1.572-.019-.468.179-.795.548-.978 1.108l-2.522 7.676 3.958 1.302zm13.599 17.16 1.469.483 1.114-3.389-9.837-3.231 1.853-5.637-3.959-1.301-1.852 5.638-10.525-3.459-1.113 3.389L9.64 15.86l-2.353 7.167-17.364-5.704-1.114 3.388 19.283 6.336c.64.209 1.181.249 1.622.117.443-.131.769-.517.978-1.157z" style="fill:#293d9b;fill-opacity:1;fill-rule:nonzero;stroke:none" transform="matrix(1.80861 0 0 -1.80861 249.737 85.261)"/><path d="m0 0 3.818-.062-.057-3.63-3.82.063-.294-18.149-19.346.315c-.401.005-.761.191-1.081.554-.321.363-.476.838-.466 1.428l.13 8.015 4.198-.067-.104-6.439 12.466-.202.383 23.671 4.261-.069zm-16.167-.243-6.486-8.671-3.49 2.834 8.602 10.721c.151.186.312.363.483.528.149.124.303.242.463.356a.82.82 0 0 0 .492.165c.252-.004.503-.108.752-.312.251-.203.499-.465.747-.786l8.376-10.994-3.547-2.721z" style="fill:#293d9b;fill-opacity:1;fill-rule:nonzero;stroke:none" transform="matrix(1.80861 0 0 -1.80861 372.13 34.753)"/><path d="m0 0 3.958-1.299-8.442-25.734-3.958 1.299 5.381 16.406-2.01.659-5.382-16.406-3.869 1.271 2.933 8.936-12.807 4.202c-1.44.473-1.937 1.389-1.491 2.749l4.517 13.765 12.536-4.112-1.101-3.359-8.577 2.813-2.982-9.087 11.007-3.611L-5.88 1.928-2.01.659-3.959-5.28l2.01-.659z" style="fill:#293d9b;fill-opacity:1;fill-rule:nonzero;stroke:none" transform="matrix(1.80861 0 0 -1.80861 467.173 45.822)"/><path d="M0 0c.407-.3.836-.505 1.29-.618a3.503 3.503 0 0 1 2.579.332c.398.218.733.513 1.007.886a3.358 3.358 0 0 1 .637 2.59 3.613 3.613 0 0 1-1.445 2.321c-.83.612-1.688.84-2.576.685-.886-.157-1.629-.641-2.229-1.454-.562-.762-.796-1.584-.7-2.465C-1.343 1.396-.862.637 0 0m-2.419 10.808 2.043 2.768L4.729 9.81l1.35 1.828 3.353-2.475-1.351-1.828 5.208-3.842L11.245.725 9.314 2.149A6.162 6.162 0 0 0 9.021.13a6.458 6.458 0 0 0-.969-1.873 5.8 5.8 0 0 0-1.917-1.666 6.835 6.835 0 0 0-2.501-.783c-.902-.107-1.834-.033-2.798.221-.964.253-1.885.706-2.765 1.355-.865.637-1.55 1.373-2.06 2.206-.51.834-.842 1.686-.994 2.559a6.813 6.813 0 0 0 .035 2.601 5.872 5.872 0 0 0 1.037 2.334 6.492 6.492 0 0 0 1.493 1.467 6.102 6.102 0 0 0 1.853.888zM17.585-4.346l3.201-2.362-2.1-2.844-3.2 2.361L4.278-22.379.925-19.904l4.367 5.917L-8.701-3.66l2.117 2.87L7.41-11.117 17.194 2.14l3.353-2.473z" style="fill:#293d9b;fill-opacity:1;fill-rule:nonzero;stroke:none" transform="matrix(1.80861 0 0 -1.80861 523.316 100.119)"/><path d="m0 0 1.118-1.568-2.93-2.089-14.86 20.845 2.931 2.089 2.766-3.88 8.02 5.716 2.382-3.341-8.019-5.717 1.887-2.647 8.019 5.716 2.381-3.341-8.018-5.717 1.905-2.673 13.956 9.949L1.187 27.864l2.904 2.071 11.543-16.194c.416-.582.603-1.1.565-1.553-.038-.455-.348-.889-.931-1.305z" style="fill:#293d9b;fill-opacity:1;fill-rule:nonzero;stroke:none" transform="matrix(1.80861 0 0 -1.80861 595.185 199.96)"/><path d="m0 0 17.687-.289-.037-2.254-7.765.126-.001-.072 7.664-6.301-.042-2.548-7.88 6.549-9.813-6.627.048 2.891 9.337 6.046.001.074-9.236.151z" style="fill:#293d9b;fill-opacity:1;fill-rule:nonzero;stroke:none" transform="matrix(1.80861 0 0 -1.80861 31.348 337.805)"/><path d="m0 0 .279-2.237-11.235-1.398c-3.843-.479-4.671-1.766-4.407-3.882.263-2.116 1.381-3.163 5.223-2.684L1.095-8.803l.279-2.237-11.138-1.387c-4.863-.605-7.009.956-7.472 4.677-.463 3.72 1.235 5.759 6.097 6.365z" style="fill:#293d9b;fill-opacity:1;fill-rule:nonzero;stroke:none" transform="matrix(1.80861 0 0 -1.80861 64.164 376.06)"/><path d="m0 0-17.061-4.707-.821 2.978L-4.948 9.086l-.013.047-14.792-4.081-.534 1.938 17.059 4.706.849-3.072-12.772-10.667.013-.048L-.536 1.938z" style="fill:#293d9b;fill-opacity:1;fill-rule:nonzero;stroke:none" transform="matrix(1.80861 0 0 -1.80861 76.433 437.28)"/><path d="m0 0-.472-.205c-2.202-.96-2.292-2.656-1.714-3.982.715-1.64 1.959-2.595 3.892-1.753 3.595 1.565.018 8.671 4.896 10.794 2.876 1.253 5.295-.125 6.48-2.845 1.292-2.966.578-5.256-2.784-6.56l-.94 2.157c1.785.752 2.708 1.823 1.857 3.778-.538 1.236-1.716 2.22-3.469 1.457-3.573-1.556.115-8.612-5.031-10.855-3.414-1.488-5.545.391-6.71 3.066-2.13 4.767 1.534 6.364 3.103 6.993z" style="fill:#293d9b;fill-opacity:1;fill-rule:nonzero;stroke:none" transform="matrix(1.80861 0 0 -1.80861 64.102 468.494)"/><path d="m0 0-.026.042-9.496-2.554 2.95-4.831zm1.062 2.257L2.556-.191-9.543-14.327l-1.315 2.155 2.932 3.284-3.563 5.835-4.286-1.067-1.187 1.946z" style="fill:#293d9b;fill-opacity:1;fill-rule:nonzero;stroke:none" transform="matrix(1.80861 0 0 -1.80861 101.651 501.124)"/><path d="m0 0-13.622-11.292-1.97 2.376 7.353 15.17-.031.037L-20.082-3.5l-1.281 1.548L-7.742 9.34l2.034-2.452-7.266-14.969.032-.037 11.661 9.666z" style="fill:#293d9b;fill-opacity:1;fill-rule:nonzero;stroke:none" transform="matrix(1.80861 0 0 -1.80861 136.12 541.607)"/><path d="m0 0-10.603-14.168-2.474 1.851 3.6 16.469-.038.03-9.193-12.285-1.609 1.204L-9.714 7.269l2.55-1.908-3.56-16.255.038-.029 9.075 12.128z" style="fill:#293d9b;fill-opacity:1;fill-rule:nonzero;stroke:none" transform="matrix(1.80861 0 0 -1.80861 187.27 586.689)"/><path d="m0 0-.043.022-6.94-6.968 4.975-2.704zm-.212 2.486 2.52-1.37-3.388-18.299-2.218 1.204.893 4.314L-8.414-8.4l-3.177-3.073-2.002 1.089z" style="fill:#293d9b;fill-opacity:1;fill-rule:nonzero;stroke:none" transform="matrix(1.80861 0 0 -1.80861 211.384 605.677)"/><path d="m0 0-.719-1.824-4.333 1.709-5.77-14.641-2.099.825L-7.15.71l-4.333 1.709.719 1.824z" style="fill:#293d9b;fill-opacity:1;fill-rule:nonzero;stroke:none" transform="matrix(1.80861 0 0 -1.80861 254.669 621.032)"/><path d="m0 0-2.174.595L2.5 17.656l2.175-.595Z" style="fill:#293d9b;fill-opacity:1;fill-rule:nonzero;stroke:none" transform="matrix(1.80861 0 0 -1.80861 267.754 658.367)"/><path d="m0 0 .896 5.912c.555 3.658-1.947 4.161-2.65 4.268-.703.107-3.241.367-3.795-3.292L-6.445.977c-.579-3.829.387-4.967 2.496-5.286C-1.841-4.629-.58-3.829 0 0m-8.708 1.418.871 5.743c.528 3.489 2.658 5.447 6.366 4.884 3.707-.561 5.162-3.061 4.634-6.551L2.292-.248C1.558-5.095-.525-6.737-4.232-6.176c-3.706.563-5.21 2.749-4.476 7.594" style="fill:#293d9b;fill-opacity:1;fill-rule:nonzero;stroke:none" transform="matrix(1.80861 0 0 -1.80861 309.478 654.968)"/><path d="m0 0-.289-17.686-3.087.05-6.73 15.449-.05.001-.25-15.335-2.01.034.291 17.685 3.184-.051 6.635-15.252h.05L-2.009.033z" style="fill:#293d9b;fill-opacity:1;fill-rule:nonzero;stroke:none" transform="matrix(1.80861 0 0 -1.80861 359.18 637.288)"/><path d="m0 0-.049-.007-1.458-9.723 5.608.772zm-1.644 1.876 2.841.391 8.115-16.742-2.501-.344-1.835 4.003-6.775-.932-.735-4.356-2.258-.31z" style="fill:#293d9b;fill-opacity:1;fill-rule:nonzero;stroke:none" transform="matrix(1.80861 0 0 -1.80861 389.795 638.192)"/><path d="m0 0-4.643 17.076 2.176.591L1.661 2.483 7.93 4.187l.513-1.892Z" style="fill:#293d9b;fill-opacity:1;fill-rule:nonzero;stroke:none" transform="matrix(1.80861 0 0 -1.80861 427.878 659.627)"/><path d="m0 0 2.002 1.035L7.203-9.018c1.778-3.438 3.274-3.768 5.167-2.788 1.893.979 2.486 2.389.708 5.828L7.876 4.075 9.878 5.11l5.156-9.966c2.253-4.352 1.531-6.903-1.798-8.626-3.329-1.722-5.829-.836-8.08 3.516z" style="fill:#293d9b;fill-opacity:1;fill-rule:nonzero;stroke:none" transform="matrix(1.80861 0 0 -1.80861 472.93 609.793)"/><path d="m0 0 10.313-14.377-2.508-1.8-14.617 8.395-.041-.03 8.942-12.465-1.632-1.171L-9.857-7.071l2.588 1.857 14.424-8.292.04.028-8.827 12.306z" style="fill:#293d9b;fill-opacity:1;fill-rule:nonzero;stroke:none" transform="matrix(1.80861 0 0 -1.80861 526.124 577.091)"/><path d="m0 0-1.661-1.523-11.951 13.044 1.661 1.522z" style="fill:#293d9b;fill-opacity:1;fill-rule:nonzero;stroke:none" transform="matrix(1.80861 0 0 -1.80861 567.08 583.978)"/><path d="m0 0-1.773-2.032-16.699 7.771 1.611 1.846L-2.477.404l.032.036-9.004 13.351 1.513 1.736z" style="fill:#293d9b;fill-opacity:1;fill-rule:nonzero;stroke:none" transform="matrix(1.80861 0 0 -1.80861 592.114 557.973)"/><path d="m0 0-14.699 9.847 5.075 7.574 1.627-1.091-3.818-5.7 4.722-3.166 3.548 5.295 1.627-1.092-3.546-5.293 5.09-3.409 3.901 5.822 1.628-1.092z" style="fill:#293d9b;fill-opacity:1;fill-rule:nonzero;stroke:none" transform="matrix(1.80861 0 0 -1.80861 611.201 533.605)"/><path d="m0 0 1.507 3.027c.722 1.449-.18 2.773-1.562 3.462-1.14.568-2.697.631-3.473-.927l-1.518-3.049Zm1.755-.873 7.283-3.628-1.005-2.018-15.839 7.888 2.72 5.462c1.398 2.808 3.864 2.812 5.838 1.83 1.865-.929 2.778-2.67 2.179-4.7l.044-.021c1.192 1.679 2.133 2.031 5.369.557.691-.318 3.279-1.331 4.42-1.517L11.714.875c-1.38-.025-3.376 1.134-5.57 2.007-2.007.807-2.872-.706-3.208-1.387Z" style="fill:#293d9b;fill-opacity:1;fill-rule:nonzero;stroke:none" transform="matrix(1.80861 0 0 -1.80861 617.442 488.116)"/><path d="m0 0 .488-.167c2.275-.773 3.483.42 3.949 1.791.577 1.692.298 3.237-1.696 3.917C-.973 6.804-3.114-.857-8.149.857c-2.971 1.011-3.83 3.66-2.874 6.468C-9.98 10.388-7.912 11.6-4.547 10.3l-.759-2.227c-1.826.646-3.229.476-3.916-1.543-.434-1.276-.228-2.796 1.582-3.413 3.691-1.256 5.716 6.445 11.031 4.636 3.526-1.2 3.834-4.024 2.894-6.785C4.649-3.991.867-2.704-.718-2.112Z" style="fill:#293d9b;fill-opacity:1;fill-rule:nonzero;stroke:none" transform="matrix(1.80861 0 0 -1.80861 641.324 455.233)"/><path d="m0 0-.483-2.202-17.286 3.791.485 2.203z" style="fill:#293d9b;fill-opacity:1;fill-rule:nonzero;stroke:none" transform="matrix(1.80861 0 0 -1.80861 662.162 416.68)"/><path d="m0 0 1.95-.209-.499-4.63 15.641-1.686-.242-2.241L1.209-7.08l-.498-4.629-1.949.21z" style="fill:#293d9b;fill-opacity:1;fill-rule:nonzero;stroke:none" transform="matrix(1.80861 0 0 -1.80861 636.549 370.935)"/><path d="m0 0-.037 2.277L10.991-2.37l6.738.11.037-2.253-6.738-.111L.156-9.554.115-7.032l8.492 3.594z" style="fill:#293d9b;fill-opacity:1;fill-rule:nonzero;stroke:none" transform="matrix(1.80861 0 0 -1.80861 636.969 339.152)"/><path d="M0 0a4.482 4.482 0 1 0 8.964 0A4.482 4.482 0 0 0 0 0" style="fill:#293d9b;fill-opacity:1;fill-rule:nonzero;stroke:none" transform="matrix(1.80861 0 0 -1.80861 630.324 262.963)"/><path d="M0 0a4.482 4.482 0 1 0 8.964 0A4.482 4.482 0 0 0 0 0" style="fill:#293d9b;fill-opacity:1;fill-rule:nonzero;stroke:none" transform="matrix(1.80861 0 0 -1.80861 52.263 262.963)"/><path d="M0 0c-79.295 0-143.808-64.512-143.808-143.809 0-79.295 64.513-143.807 143.808-143.807 79.295 0 143.807 64.512 143.807 143.807C143.807-64.512 79.295 0 0 0m0-289.745c-80.471 0-145.938 65.466-145.938 145.936C-145.938-63.338-80.471 2.129 0 2.129c80.471 0 145.938-65.467 145.938-145.938 0-80.47-65.467-145.936-145.938-145.936" style="fill:#293d9b;fill-opacity:1;fill-rule:nonzero;stroke:none" transform="matrix(1.80861 0 0 -1.80861 350 89.906)"/><path d="m0 0-30.638 29.832V0h-12.175v61.097h12.175V31.892L-.645 61.097h16.528l-31.444-29.653L16.771 0Z" style="fill:#293d9b;fill-opacity:1;fill-rule:nonzero;stroke:none" transform="matrix(1.80861 0 0 -1.80861 195.53 437.006)"/><path d="M0 0c-1.29 0-2.486.224-3.588.672-1.101.448-2.137 1.179-3.103 2.195l-40.073 41.926V1.344h-11.367v56.797c0 1.911.604 3.328 1.813 4.255 1.21.925 2.782 1.389 4.717 1.389 1.397 0 2.552-.21 3.467-.627.913-.419 1.665-.956 2.258-1.613l40.394-43.269v44.165H6.127V5.644c0-2.031-.564-3.48-1.691-4.345C3.306.434 1.827 0 0 0" style="fill:#293d9b;fill-opacity:1;fill-rule:nonzero;stroke:none" transform="matrix(1.80861 0 0 -1.80861 448.803 439.437)"/><path d="M0 0c14.921 12.538 55.435 30.895 128.017 30.895 73.265 0 113.872-18.495 128.438-30.863v20.455c0 1.561-.692 3.039-1.887 3.89-19.896 14.155-60.334 27.26-126.551 27.26-65.72 0-106.061-13.168-126.115-27.315C.697 23.473 0 21.988 0 20.42Z" style="fill:#f68712;fill-opacity:1;fill-rule:nonzero;stroke:none" transform="matrix(1.80861 0 0 -1.80861 117.972 324.46)"/><path d="M0 0v10.287c0 6.945-5.591 12.576-12.488 12.576h-31.338c-2.703 0-4.894 2.206-4.894 4.928v6.047c0 2.722 2.191 4.929 4.894 4.929H0v9.767h-48.72c-6.897 0-12.488-5.631-12.488-12.576V25.671c0-6.945 5.591-12.575 12.488-12.575h31.338c2.703 0 4.894-2.207 4.894-4.929V2.12c0-2.722-2.191-4.929-4.894-4.929h-43.826v-9.766h48.72C-5.591-12.575 0-6.945 0 0" style="fill:#293d9b;fill-opacity:1;fill-rule:nonzero;stroke:none" transform="matrix(1.80861 0 0 -1.80861 336.563 414.262)"/><path d="M0 0v-44.547c0-2.722-2.191-4.929-4.894-4.929h-27.882c-2.703 0-4.895 2.207-4.895 4.929V0h-12.487v-48.522c0-6.945 5.591-12.575 12.487-12.575H0c6.897 0 12.488 5.63 12.488 12.575V0Z" style="fill:#293d9b;fill-opacity:1;fill-rule:nonzero;stroke:none" transform="matrix(1.80861 0 0 -1.80861 559.44 326.505)"/></svg>