<svg xmlns="http://www.w3.org/2000/svg" xml:space="preserve" width="835" height="835" viewBox="0 0 835.00002 835"><g style="fill:#0ff"><path d="M0 0a3.391 3.391 0 0 1 3.394 3.395A3.39 3.39 0 0 1 0 6.786a3.39 3.39 0 0 1-3.394-3.391A3.391 3.391 0 0 1 0 0" style="fill:#fff;fill-opacity:1;fill-rule:nonzero;stroke:none" transform="matrix(123.0112 0 0 -123.04745 417.5 835)"/></g><path d="M0 0c-45.751 0-82.973-37.22-82.973-82.97 0-45.753 37.222-82.975 82.973-82.975 45.752 0 82.974 37.222 82.974 82.975C82.974-37.22 45.752 0 0 0m0-169.692c-47.817 0-86.72 38.903-86.72 86.722C-86.72-35.154-47.817 3.747 0 3.747c47.818 0 86.721-38.901 86.721-86.717 0-47.819-38.903-86.722-86.721-86.722" style="fill:#0000c8;fill-opacity:1;fill-rule:nonzero;stroke:none" transform="matrix(4.71453 0 0 -4.71453 414.171 23.878)"/><path d="M0 0c-29.533 0-53.559-24.365-53.559-54.315S-29.533-108.63 0-108.63c29.533 0 53.56 24.365 53.56 54.315S29.533 0 0 0m0-112.377c-31.599 0-57.306 26.047-57.306 58.062S-31.599 3.747 0 3.747c31.599 0 57.307-26.047 57.307-58.062S31.599-112.377 0-112.377" style="fill:#0000c8;fill-opacity:1;fill-rule:nonzero;stroke:none" transform="matrix(4.71453 0 0 -4.71453 414.171 158.974)"/><path d="M0 0c-14.887 5.559-19.001 18.064-20.102 23.509H1.602V7.663S1.512 4.161 0 0m-17.448-15.93s-6.927-1.083-9.093-4.761h-.738c-2.163 3.678-9.091 4.761-9.091 4.761-4.826 1.16-9.903 5.522-11.995 7.479 3.548 1.77 16.409 8.756 21.293 19.285C-22.091.091-8.798-6.964-5.566-8.559c-2.159-2-7.142-6.229-11.882-7.371M-53.859.112c-1.474 4.11-1.559 7.551-1.559 7.551v15.846h21.377C-35.137 18.101-39.208 5.725-53.859.112M1.602 50.093V33.46h-23.874v11.677h-9.954V33.46h-23.192v16.633zm-63.889 6.871V4.703s.266-10.94 7.464-18.667c0 0 8.267-8.532 15.999-10.398 0 0 8.533-1.332 11.2-5.867h.907c2.666 4.535 11.198 5.867 11.198 5.867C-7.786-22.496.48-13.964.48-13.964 7.681-6.237 7.948 4.703 7.948 4.703v52.261z" style="fill:#0000c8;fill-opacity:1;fill-rule:nonzero;stroke:none" transform="matrix(4.71453 0 0 -4.71453 546.416 505.096)"/><path d="m0 0-3.365.063-.191-10.083-.011-.549 10.035-.192.056 2.975-6.669.127.089 4.671 6.67-.129.056 2.991z" style="fill:#0000c8;fill-opacity:1;fill-rule:nonzero;stroke:none" transform="matrix(4.71453 0 0 -4.71453 386.715 42.39)"/><path d="m0 0-.066-3.454-1.423.027.067 3.456-3.376.064-.348-18.409 3.375-.061.232 12.325 1.422-.027-.233-12.325 3.374-.065.351 18.406z" style="fill:#0000c8;fill-opacity:1;fill-rule:nonzero;stroke:none" transform="matrix(4.71453 0 0 -4.71453 454.326 43.586)"/><path d="m0 0 4.388 2.229-1.665 3.279-4.389-2.235-1.988 3.92L.731 9.425l-1.663 3.278-4.389-2.229-1.719 3.376-2.648-1.347L.002-6.566 2.648-5.21Z" style="fill:#0000c8;fill-opacity:1;fill-rule:nonzero;stroke:none" transform="matrix(4.71453 0 0 -4.71453 700.706 308.214)"/><path d="m0 0 1.533-3.007L7.591.066l.002-.005 2.654 1.342-9.101 17.903L-1.5 17.96 6.062 3.086Z" style="fill:#0000c8;fill-opacity:1;fill-rule:nonzero;stroke:none" transform="matrix(4.71453 0 0 -4.71453 722.52 306.087)"/><path d="m0 0 2.606-1.422 10.312 18.903-2.609 1.43z" style="fill:#0000c8;fill-opacity:1;fill-rule:nonzero;stroke:none" transform="matrix(4.71453 0 0 -4.71453 85.952 313.881)"/><path d="m0 0-9.92-18.184 2.61-1.427L1-4.374l3.225-1.758 1.616 2.961L.154-.063l-.007-.01Z" style="fill:#0000c8;fill-opacity:1;fill-rule:nonzero;stroke:none" transform="matrix(4.71453 0 0 -4.71453 150.694 236.11)"/><path d="m0 0 1.618 2.961-5.689 3.105-.006-.012-.088.053-9.922-18.189 2.609-1.426 8.307 15.235z" style="fill:#0000c8;fill-opacity:1;fill-rule:nonzero;stroke:none" transform="matrix(4.71453 0 0 -4.71453 122.147 238.594)"/><path d="M0 0c.556-.819.278-1.973-.616-2.578-.891-.603-2.062-.432-2.617.39-.554.822-.278 1.976.616 2.576C-1.724.988-.552.817 0 0m3.286 10.764-7.281-4.917-.839 1.241 6.783 4.581L.48 13.842l-14.344-9.686-.692 1.025 14.344 9.688-1.467 2.171-17.17-11.591 1.47-2.176.027.018.691-1.027-.025-.015L-15.22.073l.024.02.059-.081 2.797 1.885-.056.083 4.408 2.977.838-1.24-7.35-4.966 1.468-2.171 8.005 5.41C-6.62.356-6.987-2.093-5.764-3.893c1.415-2.098 4.419-2.542 6.71-.995 2.292 1.549 3.001 4.5 1.585 6.596C1.31 3.512-1.093 4.093-3.2 3.222l7.954 5.371z" style="fill:#0000c8;fill-opacity:1;fill-rule:nonzero;stroke:none" transform="matrix(4.71453 0 0 -4.71453 263.044 151.82)"/><path d="m0 0 13.65-9.629-2.702-3.825 2.758-1.947 2.7 3.822h.002l1.712 2.43L1.717 2.43Z" style="fill:#0000c8;fill-opacity:1;fill-rule:nonzero;stroke:none" transform="matrix(4.71453 0 0 -4.71453 546.563 133.054)"/><path d="m0 0 1.303 1.841-2.758 1.95-5.313-7.53 2.761-1.949 2.297 3.256L.11-3.717l1.716 2.429z" style="fill:#0000c8;fill-opacity:1;fill-rule:nonzero;stroke:none" transform="matrix(4.71453 0 0 -4.71453 655.085 143.424)"/><path d="M0 0c-.916.651-1.178 1.854-.584 2.69.593.845 1.815 1 2.731.352.915-.644 1.177-1.849.585-2.693C2.141-.485.917-.644 0 0m-3.181 4.525C-4.697 2.376-4.02-.712-1.668-2.368c2.346-1.659 5.481-1.259 7 .89.41.588.661 1.239.759 1.915L7.289-.41l1.514 2.139-3.527 2.488 1.005 1.432-3.003 2.12-1.005-1.43-3.735 2.637-1.512-2.144 1.346-.944a4.466 4.466 0 0 1-1.553-1.363" style="fill:#0000c8;fill-opacity:1;fill-rule:nonzero;stroke:none" transform="matrix(4.71453 0 0 -4.71453 588.077 122.508)"/><path d="M0 0a3.391 3.391 0 0 1 3.394 3.395A3.39 3.39 0 0 1 0 6.786a3.39 3.39 0 0 1-3.394-3.391A3.391 3.391 0 0 1 0 0" style="fill:#0000c8;fill-opacity:1;fill-rule:nonzero;stroke:none" transform="matrix(4.71453 0 0 -4.71453 748.57 389.572)"/><path d="M0 0a3.39 3.39 0 0 1 3.393 3.395A3.39 3.39 0 0 1 0 6.786a3.39 3.39 0 0 1-3.394-3.391A3.39 3.39 0 0 1 0 0" style="fill:#0000c8;fill-opacity:1;fill-rule:nonzero;stroke:none" transform="matrix(4.71453 0 0 -4.71453 86.079 389.572)"/><path d="m0 0 19.118 2.242 1.042-8.881-3.179-.371-.694 5.927-4.607-.541.648-5.525-3.18-.372L8.5-1.995.346-2.956Z" style="fill:#0000c8;fill-opacity:1;fill-rule:nonzero;stroke:none" transform="matrix(4.71453 0 0 -4.71453 35.078 434.18)"/><path d="m0 0 7.394 4.031-.01.042-8.455-.26Zm-9.332 6.33 19.887.363.951-3.396-17.238-9.824-.807 2.882 3.659 2.054L-4.357 3.7l-4.209-.107Z" style="fill:#0000c8;fill-opacity:1;fill-rule:nonzero;stroke:none" transform="matrix(4.71453 0 0 -4.71453 84.444 511.662)"/><path d="m0 0 1.082-2.251c.591-1.166 1.74-1.461 3.279-.722C5.896-2.23 6.21-1.226 5.668-.041L4.583 2.218Zm-9.872-4.759-1.292 2.682L6.173 6.287 8.734.977c1.008-2.159 1.108-4.823-2.424-6.52-2.257-1.088-4.254-.752-5.453.565l-.048-.024c.68-2.203-1.073-3.049-3.367-4.439-1.044-.649-3.036-1.743-3.754-2.705l-1.425 2.961c1.427.963 2.929 1.836 4.432 2.709.927.533 2.167 1.345 1.788 2.249l-1.366 2.839z" style="fill:#0000c8;fill-opacity:1;fill-rule:nonzero;stroke:none" transform="matrix(4.71453 0 0 -4.71453 113.954 544.222)"/><path d="m0 0 5.907-7.162L3.439-9.2-.576-4.327l-3.479-2.866 3.76-4.559-2.467-2.039-3.761 4.566-3.972-3.274 4.152-5.034-2.469-2.038-6.041 7.326z" style="fill:#0000c8;fill-opacity:1;fill-rule:nonzero;stroke:none" transform="matrix(4.71453 0 0 -4.71453 181.806 582.983)"/><path d="m0 0 3.66 7.587-.033.026-6.722-5.127Zm-11.271-.282L4.677 11.587l2.755-2.205L-.856-8.634-3.19-6.756l1.774 3.796L-5.698.475l-3.359-2.529Z" style="fill:#0000c8;fill-opacity:1;fill-rule:nonzero;stroke:none" transform="matrix(4.71453 0 0 -4.71453 200.095 682.182)"/><path d="M0 0c.777 1.793.543 2.982-.743 3.631-.975.491-2.329.286-3.088-1.217-.939-1.858.154-2.673 1.032-3.566 1.547-1.619 3.947-3.756 2.2-7.205-2.156-4.254-5.573-4.375-8.226-3.039-2.825 1.429-4.057 3.966-1.78 8.247L-7.9-4.513c-1.065-1.853-.93-3.54.457-4.239 1.061-.537 2.695-.79 3.622 1.044 1.025 2.02-.668 3.047-1.535 3.966C-6.785-2.271-8.594.014-7.054 3.059-5.067 6.985-1.585 7.405.95 6.122c2.395-1.215 3.345-3.967 1.603-7.408z" style="fill:#0000c8;fill-opacity:1;fill-rule:nonzero;stroke:none" transform="matrix(4.71453 0 0 -4.71453 266.972 691.283)"/><path d="m0 0 10.5-3.966-1.134-2.993-3.857 1.456-5.692-15.008-2.781 1.051 5.69 15.014-3.86 1.461z" style="fill:#0000c8;fill-opacity:1;fill-rule:nonzero;stroke:none" transform="matrix(4.71453 0 0 -4.71453 294.612 678.936)"/><path d="m0 0-1.185-11.996c-.503-5.098-3.385-7.306-6.728-6.969-3.341.327-5.735 3.059-5.232 8.154l1.185 11.997L-9 .893l-1.025-10.406c-.322-3.236-.497-6.193 2.405-6.478 2.904-.293 3.312 2.643 3.632 5.881L-2.96.293Z" style="fill:#0000c8;fill-opacity:1;fill-rule:nonzero;stroke:none" transform="matrix(4.71453 0 0 -4.71453 429.293 708.397)"/><path d="m0 0-8.747 14.472-.027-.059 3.388-15.576-2.719-.595-4.088 18.805 4.312.937L.495 4.31l.026.061-3.206 14.74 2.719.588L4.127.893Z" style="fill:#0000c8;fill-opacity:1;fill-rule:nonzero;stroke:none" transform="matrix(4.71453 0 0 -4.71453 492.438 787.066)"/><path d="m0 0-2.808-.976-6.33 18.185 2.811.976z" style="fill:#0000c8;fill-opacity:1;fill-rule:nonzero;stroke:none" transform="matrix(4.71453 0 0 -4.71453 540.357 773.83)"/><path d="m0 0 2.907 1.442 9.967-11.989.031.016L9.43 4.674l2.629 1.307 3.966-19.52-2.908-1.441z" style="fill:#0000c8;fill-opacity:1;fill-rule:nonzero;stroke:none" transform="matrix(4.71453 0 0 -4.71453 514.873 687.15)"/><path d="m0 0 7.405 5.605L9.34 3.054 4.303-.757l2.719-3.59 4.712 3.564 1.93-2.549L8.95-6.898l3.108-4.103 5.202 3.937 1.931-2.546-7.576-5.735z" style="fill:#0000c8;fill-opacity:1;fill-rule:nonzero;stroke:none" transform="matrix(4.71453 0 0 -4.71453 574.187 657.5)"/><path d="m0 0 1.657 1.858c.847.993.68 2.166-.595 3.3-1.272 1.137-2.323 1.039-3.208.085L-3.803 3.38Zm8.185-7.286L6.21-9.506-8.169 3.29l3.915 4.396c1.6 1.755 4.018 2.868 6.942.263C4.56 6.28 5.019 4.31 4.26 2.7l.04-.034c1.78 1.471 3.232.178 5.389-1.41 1.004-.715 2.773-2.135 3.94-2.43L11.448-3.62c-1.44.944-2.822 1.998-4.208 3.054C6.396.08 5.171.914 4.479.22L2.391-2.13Z" style="fill:#0000c8;fill-opacity:1;fill-rule:nonzero;stroke:none" transform="matrix(4.71453 0 0 -4.71453 651.337 643.664)"/><path d="M0 0c-1.741.874-2.946.705-3.668-.541-.549-.946-.415-2.308 1.036-3.151 1.803-1.039 2.681 0 3.625.834C2.695-1.409 4.97.864 8.313-1.072c4.129-2.391 4.059-5.806 2.568-8.379-1.586-2.737-4.189-3.824-8.339-1.313l1.521 2.62c1.788-1.164 3.474-1.125 4.253.219.598 1.032.948 2.648-.828 3.677-1.961 1.134-3.09-.495-4.056-1.313C1.886-6.902-.505-8.578-3.456-6.868c-3.806 2.2-4.027 5.697-2.603 8.156 1.347 2.327 4.147 3.118 7.494 1.183z" style="fill:#0000c8;fill-opacity:1;fill-rule:nonzero;stroke:none" transform="matrix(4.71453 0 0 -4.71453 688.146 570.29)"/><path d="m0 0-1.149-2.746-17.757 7.43 1.146 2.746z" style="fill:#0000c8;fill-opacity:1;fill-rule:nonzero;stroke:none" transform="matrix(4.71453 0 0 -4.71453 761.24 564.778)"/><path d="m0 0 3.209 10.764 3.065-.915-1.178-3.955 15.381-4.587-.849-2.849L4.247 3.044 3.066-.913Z" style="fill:#0000c8;fill-opacity:1;fill-rule:nonzero;stroke:none" transform="matrix(4.71453 0 0 -4.71453 681.12 527.463)"/><path d="m0 0-13.538-2.549.554 3.432 9.167 1.42-8.25 4.283.484 3.015L.471 2.937l6.214-.998L6.214-1Z" style="fill:#0000c8;fill-opacity:1;fill-rule:nonzero;stroke:none" transform="matrix(4.71453 0 0 -4.71453 759.656 462.583)"/></svg>