<svg xmlns="http://www.w3.org/2000/svg" width="606.76898" height="606.78955" x="0px" y="0px" viewBox="0 0 606.76898 606.78955"><path fill="none" d="M-7.744-3.31h623.463v617.192H-7.744z" style="fill:#020723;fill-opacity:0"/><defs><radialGradient id="b" cx="0" cy="0" r="1" fx="0" fy="0" gradientTransform="matrix(8.90035 0 0 -8.90035 262.756 637.064)" gradientUnits="userSpaceOnUse" spreadMethod="pad"><stop offset="0" style="stop-opacity:1;stop-color:#d6f2fc"/><stop offset="0.44382" style="stop-opacity:1;stop-color:#3ab7ee"/><stop offset="0.820225" style="stop-opacity:1;stop-color:#085689"/><stop offset="1" style="stop-opacity:1;stop-color:#085689"/></radialGradient><clipPath id="a" clipPathUnits="userSpaceOnUse"><path d="M0 840h592V0H0Z"/></clipPath></defs><path d="M293.147-630.298a29.208 29.266 0 0 1-29.208 29.266 29.208 29.266 0 0 1-29.207-29.266 29.208 29.266 0 0 1 29.207-29.267 29.208 29.266 0 0 1 29.208 29.267z" style="fill:#fff;stroke-width:.75" transform="translate(-2409.312 6777.238) scale(10.27099)"/><g clip-path="url(#a)" transform="matrix(10.27099 0 0 -10.27099 -2409.312 6777.238)"><path d="M0 0c0 9.302 7.568 16.864 16.866 16.864 9.301 0 16.866-7.562 16.866-16.864 0-9.3-7.565-16.865-16.866-16.865C7.568-16.865 0-9.3 0 0m-.485 0c0-9.568 7.784-17.351 17.351-17.351 9.572 0 17.353 7.783 17.353 17.351 0 9.571-7.781 17.354-17.353 17.354C7.299 17.354-.485 9.571-.485 0" style="fill:#7b7979;fill-opacity:1;fill-rule:nonzero;stroke:none" transform="translate(247.246 630.304)"/><path d="M0 0c0 15.879 12.92 28.801 28.801 28.801 15.88 0 28.803-12.922 28.803-28.801 0-15.88-12.923-28.801-28.803-28.801C12.92-28.801 0-15.88 0 0m-.737 0c0-16.287 13.254-29.539 29.538-29.539C45.09-29.539 58.339-16.287 58.339 0c0 16.288-13.249 29.539-29.538 29.539C12.517 29.539-.737 16.288-.737 0" style="fill:#7b7979;fill-opacity:1;fill-rule:nonzero;stroke:none" transform="translate(235.311 630.304)"/><path d="M0 0s-.012-.577-.076-.771c-.086-.247-.278-.349-.523-.349-.159 0-.572.141-.572.549v4.077H.238v.255h-1.409v2.643h-1.962c-.03-2.376-.79-2.61-1.228-2.643h-9.118v-.006h-.021v-.222h.021v-.027h1.4a31.754 31.754 0 0 0-1.626-1.21l-1.569-1.044v4.92h1.068v.207h-4.107v-.207h1.012v-7.619h-1.012v-.222h3.799v.222h-.76V.982l.408.258 1.896-2.687h-.883v-.222h4.096v.222h-.878l-2.746 3.675 1.708 1.278h3.531v-4.953h-1.013v-.222h4.053v.222h-1.014v4.953h2.923V-.411c0-1.171 1.275-1.451 1.759-1.451.317 0 1.366-.049 1.651 1.056C.272-.605.275 0 .275 0Z" style="fill:#231f20;fill-opacity:1;fill-rule:nonzero;stroke:none" transform="translate(273.11 620.126)"/><path d="M0 0c.661 0 1.188.526 1.188 1.188 0 .66-.527 1.188-1.188 1.188a1.185 1.185 0 0 1-1.192-1.188C-1.192.526-.662 0 0 0" style="fill:#231f20;fill-opacity:1;fill-rule:nonzero;stroke:none" transform="translate(265.983 624.154)"/><path d="M0 0a.343.343 0 0 1 .172-.305.393.393 0 0 1 .361-.015c.144.064.306.215.469.467L.23.621C.102.41.001.181 0 0" style="fill:#706d6e;fill-opacity:1;fill-rule:nonzero;stroke:none" transform="translate(251.505 610.327)"/><path d="m0 0 .557-.815 1.366.938-.554.815Z" style="fill:#706d6e;fill-opacity:1;fill-rule:nonzero;stroke:none" transform="translate(250.02 647.357)"/><path d="M0 0c.121.178.172.354.065.542a.401.401 0 0 1-.24.213c-.094.029-.206.015-.33-.05-.2-.108-.29-.286-.351-.44l.412-.763c.175.155.345.326.444.498" style="fill:#706d6e;fill-opacity:1;fill-rule:nonzero;stroke:none" transform="translate(274.872 610.493)"/><path d="M0 0c0-10.18-8.249-18.432-18.432-18.432-10.181 0-18.434 8.252-18.434 18.432 0 10.184 8.253 18.437 18.434 18.437C-8.249 18.437 0 10.184 0 0m-18.432 27.405c-15.109 0-27.401-12.293-27.401-27.405 0-15.11 12.292-27.403 27.401-27.403S8.968-15.11 8.968 0c0 15.112-12.291 27.405-27.4 27.405" style="fill:#7b7979;fill-opacity:1;fill-rule:nonzero;stroke:none" transform="translate(282.545 630.304)"/><path d="M0 0h7.327v-7.341Z" style="fill:#085689;fill-opacity:1;fill-rule:nonzero;stroke:none" transform="translate(264.05 643.571)"/></g><path d="M256.711 636.23a7.34 7.34 0 1 1 14.68 0 7.341 7.341 0 1 1-14.68 0" style="fill:url(#b);stroke:none" transform="matrix(10.27099 0 0 -10.27099 -2409.312 6777.238)"/><path d="m0 0-.389.903-.099.228c-.108.136-.29.117-.379.098L-3.336.163l.194-.45 2.174.939.389-.902-2.527-1.092.194-.45L.583-.283.39.167z" style="fill:#fff;fill-opacity:1;fill-rule:nonzero;stroke:none" transform="matrix(10.27099 0 0 -10.27099 220.809 77.052)"/><path d="m0 0-1.594-.688-.392.907 1.593.688zm-2.76.417-.066-.028a.076.076 0 0 1-.039-.1.07.07 0 0 1 .077-.041V.245s.072.005.123-.044l.101-.233.391-.905h-.001l.101-.232c.101-.128.268-.121.361-.103l.312.135 1.594.688.578.251L.578.25l-.391.906L0 1.591l-.007.015Z" style="fill:#fff;fill-opacity:1;fill-rule:nonzero;stroke:none" transform="matrix(10.27099 0 0 -10.27099 224.043 100.798)"/><path d="M0 0c-.487-.103-.97.238-1.081.761-.111.523.193 1.031.68 1.134.485.104.968-.238 1.079-.762C.79.611.485.102 0 0m.632-1.462L.404-.39c.667.282 1.069.969.924 1.661-.169.791-.99 1.287-1.833 1.108-.843-.178-1.392-.965-1.225-1.756.147-.69.793-1.158 1.517-1.144l.191-.896c.004-.063-.009-.18-.145-.214l-1.193-.252.101-.481 1.374.291.619.132 1.373.291-.103.479z" style="fill:#fff;fill-opacity:1;fill-rule:nonzero;stroke:none" transform="matrix(10.27099 0 0 -10.27099 253.543 72.407)"/><path d="M0 0c0-.434-.426-.784-.952-.784-.527 0-.953.35-.953.784 0 .434.426.783.953.783C-.426.783 0 .434 0 0m.909 1.631H.515v1.304c-.036.184-.222.245-.314.262h-2.608v-.489h2.29V1.631h-.597v.711h-.671v-.711h-1.424v-.488H-1.6C-2.178.951-2.582.512-2.582 0c0-.687.729-1.245 1.63-1.245C-.054-1.245.677-.687.677 0c0 .512-.405.951-.983 1.143H.909z" style="fill:#fff;fill-opacity:1;fill-rule:nonzero;stroke:none" transform="matrix(10.27099 0 0 -10.27099 310.388 80.437)"/><path d="m0 0-.027.01-.075.03a.074.074 0 0 1-.097-.041.078.078 0 0 1 .024-.086v-.001s.063-.057.054-.137l-.483-1.203-.299.12.578 1.439-.558.223-.028.013-.073.029a.076.076 0 0 1-.098-.042.07.07 0 0 1 .024-.085V.267s.059-.056.053-.134L-2.016-2.38l-1.173.473.919 2.291.916-.367.182.453-.916.369-.339.137-.246.097-1.181-2.942c-.048-.197.12-.329.198-.377l.284-.116.985-.395-.005-.007s.166-.084.12-.257l-.191-.474.585-.235.792 1.97.3-.12-.853-2.121.585-.235L.559-.224z" style="fill:#fff;fill-opacity:1;fill-rule:nonzero;stroke:none" transform="matrix(10.27099 0 0 -10.27099 412.376 72.407)"/><path d="m0 0 2.342 2.229.12.116-.003-.002c.17.162.083.354.035.434l-.233.245L.58 4.786.227 4.45l1.678-1.765L-.434.458-.69.725.774 2.12l-.408.427-1.357-1.292c-.051-.028-.132-.052-.211.009l-.186.194L.077 2.852l-.407.427-1.336-1.271c-.048-.035-.143-.081-.237-.009l-.313.329-.354-.338L-.136-.566l.353.338z" style="fill:#fff;fill-opacity:1;fill-rule:nonzero;stroke:none" transform="matrix(10.27099 0 0 -10.27099 469.047 160.474)"/><path d="m0 0 .304 1.533-.592.117-.025.005-.083.016a.072.072 0 0 1-.086-.057.077.077 0 0 1 .039-.082s.074-.046.078-.129h.001l-.475-2.405a.238.238 0 0 0-.25-.177l-.187.036.472 2.399.044.216c.003.213-.218.306-.286.331l-1.966.388-.094-.481 1.685-.332-.474-2.398-.617.121.288 1.459-.618.123-.288-1.46-.57.113-.094-.481L-.978-1.7l-.173-.886.618-.122.44 2.227.405-.078.094.477z" style="fill:#fff;fill-opacity:1;fill-rule:nonzero;stroke:none" transform="matrix(10.27099 0 0 -10.27099 364.984 72.804)"/><path d="M0 0c-.316.202-.393.649-.169 1 .223.35.66.471.978.269.317-.202.392-.649.169-.999C.755-.081.316-.201 0 0m2.306-.316.584.917-.491.313-.042.026-.15.096-.013.008-.818.522.177.28-.544.347-.021.014-.072.044a.073.073 0 0 1-.103-.021.08.08 0 0 1 .007-.089V2.14s.054-.07.029-.148h.004l-.044-.065-.777.496-.263-.414.38-.241a1.072 1.072 0 0 1-.831-.478C-1.015.768-.807.039-.215-.337c.591-.378 1.338-.259 1.671.263.184.286.201.638.083.957l.405-.261.194.303c.018-.042.069-.163.054-.247L.976-1.23-1.142.118l-.262-.411L.532-1.529c.03-.025.126-.126.085-.264l-.568-.89.534-.338.662 1.041.046.072.043.065.173.273.537.842.342-.218.26.411z" style="fill:#fff;fill-opacity:1;fill-rule:nonzero;stroke:none" transform="matrix(10.27099 0 0 -10.27099 430.942 104.996)"/><path d="m0 0-.281.4-1.395-.978-.191.274 1.355.95-.281.402h-.002l-.161.228.001.003-.178.251c-.124.063-.266.017-.338-.016L-3.064.396l.28-.403 1.31.921.161-.23-1.353-.95.04-.059.242-.343.193-.272.155-.224c.125-.09.286-.044.367-.01z" style="fill:#fff;fill-opacity:1;fill-rule:nonzero;stroke:none" transform="matrix(10.27099 0 0 -10.27099 173.21 108.441)"/><path d="m0 0-1.372-.963-.251.358L-.25.358zm-2.13 3.038v-.002l-.048-.033a.074.074 0 0 1-.019-.104.077.077 0 0 1 .085-.028s.05.012.101-.006l1.008-1.434.067-.097.404-.574-1.374-.965-.32.455-.476-.336-.002.001-.09-.062a.077.077 0 0 1-.019-.104.075.075 0 0 1 .086-.027V-.28s.01.003.028.004a.082.082 0 0 1 .06-.006h.001a.076.076 0 0 0 .02-.006l.902-1.288c.096-.06.207-.048.29-.023l.277.194.059.041L.283-.4l.172.12.344.244-1.216 1.733-.07.098-1.125 1.606z" style="fill:#fff;fill-opacity:1;fill-rule:nonzero;stroke:none" transform="matrix(10.27099 0 0 -10.27099 185.623 120.126)"/><path d="m0 0-.354.34-.293-.304-.71.681-.181.176c-.151.083-.313-.005-.387-.057L-3.868-1.18l.351-.34L-1.796.264l.709-.684L-3-2.407l.353-.339 1.055 1.094.255-.248-.869-.9.354-.341 1.764 1.832 1.001-.965.439.456L.182-.69C-.024-.574-.25-.776-.25-.776l.002.007-.191-.199-.432-.449-.257.248z" style="fill:#fff;fill-opacity:1;fill-rule:nonzero;stroke:none" transform="matrix(10.27099 0 0 -10.27099 146.268 126.747)"/><path d="M0 0a.543.543 0 1 0 1.085-.001A.543.543 0 0 0 0 0" style="fill:#fff;fill-opacity:1;fill-rule:nonzero;stroke:none" transform="matrix(10.27099 0 0 -10.27099 99.282 176.331)"/><path d="M0 0a.544.544 0 1 0 1.087 0A.544.544 0 0 0 0 0" style="fill:#fff;fill-opacity:1;fill-rule:nonzero;stroke:none" transform="matrix(10.27099 0 0 -10.27099 495.327 170.764)"/><path d="m0 0-1.925-.613c-.273-.088-.467-.177-.589-.268a.565.565 0 0 1-.184-.247l-.092.035.67 1.744.091-.036c-.033-.113-.043-.191-.03-.233a.122.122 0 0 1 .071-.083c.07-.027.229 0 .479.078l1.26.399-.055.162-.915.351c-.174.066-.288.098-.339.095a.263.263 0 0 1-.152-.071.64.64 0 0 1-.149-.252l-.092.035.648 1.69.092-.036-.043-.11c-.038-.097-.05-.182-.038-.254a.231.231 0 0 1 .081-.145c.032-.033.132-.082.3-.146l2.203-.846c.172-.065.283-.098.333-.096a.263.263 0 0 1 .154.067.482.482 0 0 1 .136.205l.041.111.091-.034-.639-1.668-.091.035c.042.114.06.206.05.278a.263.263 0 0 1-.078.146c-.033.036-.135.086-.304.15l-1.042.4.529-1.628c.073-.226.153-.356.236-.388.062-.024.125-.007.189.05.031.028.078.115.138.255l.091-.034L.625-2.21l-.09.036c.035.12.05.22.041.299-.007.081-.063.277-.165.592z" style="fill:#fff;fill-opacity:1;fill-rule:nonzero;stroke:none" transform="matrix(10.27099 0 0 -10.27099 88.499 222.601)"/><path d="m0 0-1.895.396c-.186.04-.304.046-.356.021-.054-.024-.098-.089-.132-.192l-.093.02.207.986.322-.066c-.113.143-.188.28-.228.409a.824.824 0 0 0-.013.408.584.584 0 0 0 .202.337.62.62 0 0 0 .339.153c.119.012.319-.01.6-.068l.959-.201c.184-.038.301-.046.354-.021.05.024.094.088.131.191l.096-.019-.206-.986-1.655.345a1.346 1.346 0 0 1-.34.045.223.223 0 0 1-.129-.053.206.206 0 0 1-.066-.115.317.317 0 0 1 .015-.178c.029-.079.103-.181.22-.305L-.375.835C-.19.797-.073.79-.021.814c.051.025.096.088.132.192l.097-.02z" style="fill:#fff;fill-opacity:1;fill-rule:nonzero;stroke:none" transform="matrix(10.27099 0 0 -10.27099 79.126 267.551)"/><path d="m0 0-.326.017c.141-.143.238-.274.292-.392a.828.828 0 0 0 .072-.384.703.703 0 0 0-.133-.394.694.694 0 0 0-.348-.232c.15-.148.258-.289.322-.422a.852.852 0 0 0 .087-.411.663.663 0 0 0-.138-.402.62.62 0 0 0-.309-.198c-.123-.033-.317-.044-.58-.03l-1.012.05c-.191.008-.309-.003-.359-.035-.046-.033-.079-.104-.099-.21l-.095.003.063 1.277.094-.005c.004-.102.039-.176.107-.228.045-.034.154-.055.324-.064l1.063-.051c.221-.012.36-.01.421.006.061.014.107.04.138.077.03.036.047.08.049.132a.38.38 0 0 1-.072.232 1.027 1.027 0 0 1-.238.248l-1.325.064c-.179.009-.292 0-.339-.027-.067-.038-.107-.114-.12-.228l-.095.004.062 1.279.095-.004a.292.292 0 0 1 .045-.164.21.21 0 0 1 .107-.085c.041-.015.136-.027.28-.034l1.063-.052c.222-.01.363-.008.422.006a.252.252 0 0 1 .135.082.22.22 0 0 1 .054.132.355.355 0 0 1-.046.196A1.1 1.1 0 0 1-.605.03l-1.328.066c-.174.007-.291-.004-.347-.037-.056-.03-.094-.101-.11-.209l-.095.004.063 1.274.095-.005c.006-.104.035-.181.09-.227.036-.032.15-.051.341-.062L-.501.766C-.314.757-.197.769-.15.8c.048.033.081.104.1.212l.099-.005Z" style="fill:#fff;fill-opacity:1;fill-rule:nonzero;stroke:none" transform="matrix(10.27099 0 0 -10.27099 77.13 283.74)"/><path d="M0 0a.31.31 0 0 1-.127.218C-.203.274-.34.301-.542.297a9.052 9.052 0 0 1-.833-.069 3.626 3.626 0 0 1-.521-.099.505.505 0 0 1-.269-.158.287.287 0 0 1-.07-.226.29.29 0 0 1 .087-.189.458.458 0 0 1 .266-.108c.171-.015.508.008 1.016.068.297.036.5.076.606.122a.499.499 0 0 1 .227.176c.031.05.042.113.033.186m.187.033a1.174 1.174 0 0 0-.095-.616 1.07 1.07 0 0 0-.421-.474 1.526 1.526 0 0 0-.649-.223c-.35-.041-.652.012-.908.161-.309.181-.486.458-.531.835-.043.369.051.669.288.9.235.23.525.366.864.406.354.042.673-.023.958-.196.286-.173.45-.437.494-.793" style="fill:#fff;fill-opacity:1;fill-rule:nonzero;stroke:none" transform="matrix(10.27099 0 0 -10.27099 76.709 330.642)"/><path d="m0 0-1.393-.332a1.44 1.44 0 0 0 .382-.293.77.77 0 0 0 .168-.321.631.631 0 0 0-.288-.702c-.108-.064-.3-.129-.574-.194l-.94-.222c-.183-.044-.293-.089-.331-.134-.037-.045-.049-.121-.037-.23l-.092-.021-.29 1.22.094.021a.277.277 0 0 1 .147-.167c.052-.021.164-.01.338.031l1.074.255c.199.048.322.084.368.112a.244.244 0 0 1 .101.106.211.211 0 0 1 .013.136.348.348 0 0 1-.119.183.911.911 0 0 1-.299.153l-1.288-.307c-.174-.04-.278-.079-.315-.115-.05-.047-.069-.122-.059-.226l-.094-.023-.29 1.221.094.022c.034-.099.084-.163.148-.193.046-.021.16-.008.343.034l2.446.583c.181.044.292.086.328.131.036.043.049.121.038.23l.095.023z" style="fill:#fff;fill-opacity:1;fill-rule:nonzero;stroke:none" transform="matrix(10.27099 0 0 -10.27099 93.283 352.899)"/><path d="m0 0-1.269-2.544 1.398.65c.195.093.314.182.358.27.056.12.04.269-.046.449l.089.04.5-1.074-.09-.041a.894.894 0 0 1-.196.245.321.321 0 0 1-.188.047 1.033 1.033 0 0 1-.343-.112l-2.709-1.262-.038.081L-.85.209l-2.068-.962c-.186-.087-.294-.188-.32-.305a.524.524 0 0 1 .039-.339l.036-.077-.089-.041-.537 1.153.089.041c.085-.178.18-.285.283-.322.105-.038.245-.015.417.065L-.705.491l.054.111a.675.675 0 0 1 .084.261.563.563 0 0 1-.059.249l.089.042z" style="fill:#fff;fill-opacity:1;fill-rule:nonzero;stroke:none" transform="matrix(10.27099 0 0 -10.27099 106.333 393.622)"/><path d="m0 0 .688.46a1.55 1.55 0 0 1-.599.174.492.492 0 0 1-.297-.075.308.308 0 0 1-.13-.192c-.016-.062 0-.128.044-.193C-.245.1-.148.043 0 0m-.161-.107c-.39.103-.65.254-.783.454a.472.472 0 0 0-.08.369c.024.13.095.233.21.311a.683.683 0 0 0 .559.08C-.039 1.055.324.874.835.559l.207.138c.155.105.248.179.278.222a.346.346 0 0 1-.022.357.47.47 0 0 1-.219.191c-.052.021-.097.019-.132-.004-.03-.021-.054-.067-.072-.137a.346.346 0 0 0-.126-.207.296.296 0 0 0-.239-.042.358.358 0 0 0-.217.158.422.422 0 0 0-.071.29.311.311 0 0 0 .134.224.554.554 0 0 0 .386.076.937.937 0 0 0 .455-.202c.151-.116.281-.253.389-.415.131-.195.192-.376.185-.546A.687.687 0 0 0 1.65.261c-.048-.062-.182-.167-.404-.315L.447-.588a1.054 1.054 0 0 1-.169-.129.126.126 0 0 1-.032-.069.103.103 0 0 1 .016-.063C.287-.887.341-.907.421-.91l-.008-.102a.972.972 0 0 0-.39.07.589.589 0 0 0-.252.217.51.51 0 0 0-.102.33.454.454 0 0 0 .17.288" style="fill:#fff;fill-opacity:1;fill-rule:nonzero;stroke:none" transform="matrix(10.27099 0 0 -10.27099 99.568 445.548)"/><path d="m0 0-.693-.582.376-.449-.199-.169-.379.45-1.168-.982a1.149 1.149 0 0 1-.2-.193.187.187 0 0 1-.03-.117.162.162 0 0 1 .029-.097c.073-.088.211-.114.41-.082l.006-.097c-.351-.108-.63-.04-.835.206a.626.626 0 0 0-.067.737c.035.051.155.164.357.333l1.023.859-.207.247.07.06A3.41 3.41 0 0 1-.762.008c.231-.01.467.01.705.058z" style="fill:#fff;fill-opacity:1;fill-rule:nonzero;stroke:none" transform="matrix(10.27099 0 0 -10.27099 137.171 447.053)"/><path d="M0 0a.394.394 0 0 0 .118-.293.39.39 0 0 0-.122-.288.391.391 0 0 0-.29-.117.405.405 0 0 0-.288.122.4.4 0 0 0-.119.288.398.398 0 0 0 .123.289.4.4 0 0 0 .289.119A.4.4 0 0 0 0 0m-.593-1.107-1.395-1.379c-.123-.123-.19-.215-.194-.278-.007-.063.03-.139.108-.228l-.069-.067-.939.95.067.067c.082-.075.161-.111.241-.106.053.002.142.066.266.19L-1.48-.942c.123.122.189.215.195.277.006.063-.03.139-.106.226l.069.07z" style="fill:#fff;fill-opacity:1;fill-rule:nonzero;stroke:none" transform="matrix(10.27099 0 0 -10.27099 148.52 454.831)"/><path d="M0 0a.303.303 0 0 1-.242.067C-.335.056-.453-.022-.596-.165a8.541 8.541 0 0 1-.55-.627 3.338 3.338 0 0 1-.307-.434.531.531 0 0 1-.084-.298.296.296 0 0 1 .106-.214.293.293 0 0 1 .197-.074.45.45 0 0 1 .266.107c.131.108.36.358.682.754.189.233.306.403.351.511a.463.463 0 0 1 .039.283A.272.272 0 0 1 0 0m.111.151a1.14 1.14 0 0 0 .36-.507C.544-.559.554-.77.499-.99a1.572 1.572 0 0 0-.314-.613c-.222-.271-.476-.442-.762-.513-.347-.086-.669-.009-.963.231-.288.236-.428.517-.419.847.009.33.123.627.34.894.224.274.5.449.825.524.326.074.627-.002.905-.229" style="fill:#fff;fill-opacity:1;fill-rule:nonzero;stroke:none" transform="matrix(10.27099 0 0 -10.27099 154.383 478.343)"/><path d="m0 0-.173-.269c.18.046.337.064.469.053a.788.788 0 0 0 .365-.127.599.599 0 0 0 .262-.329.642.642 0 0 0-.004-.395c-.03-.1-.124-.268-.28-.508l-.526-.808c-.102-.159-.152-.268-.15-.325.005-.058.049-.123.133-.194L.044-2.98l-1.049.682.051.08c.084-.04.163-.044.233-.011.047.021.119.105.215.25l.599.924c.111.169.175.281.19.334a.234.234 0 0 1-.001.146.189.189 0 0 1-.081.106C.074-.386-.104-.4-.33-.511l-.724-1.111c-.102-.155-.152-.263-.15-.322.002-.06.038-.121.11-.182l-.051-.081-1.049.683.051.08c.094-.048.173-.061.243-.038.045.017.12.105.224.264l.762 1.172c.103.156.151.262.148.32-.004.058-.048.122-.131.193l.053.083z" style="fill:#fff;fill-opacity:1;fill-rule:nonzero;stroke:none" transform="matrix(10.27099 0 0 -10.27099 175.778 492.606)"/><path d="m0 0 .377.737A1.574 1.574 0 0 1-.229.598.49.49 0 0 1-.453.387a.305.305 0 0 1-.02-.23.245.245 0 0 1 .131-.148C-.263-.032-.148-.034 0 0m-.089-.171C-.478-.27-.78-.266-.994-.156a.482.482 0 0 0-.249.284.461.461 0 0 0 .035.374c.085.168.235.282.448.343.214.059.619.076 1.219.051l.115.221c.084.166.129.275.133.327a.3.3 0 0 1-.044.166.357.357 0 0 1-.145.135.48.48 0 0 1-.286.061c-.057-.007-.093-.031-.114-.067-.015-.033-.015-.086.004-.157.024-.098.022-.178-.011-.24a.288.288 0 0 0-.187-.153.357.357 0 0 0-.266.034.413.413 0 0 0-.203.216.314.314 0 0 0 .008.262.556.556 0 0 0 .301.255c.141.056.306.07.496.044.186-.027.368-.085.54-.175.209-.106.351-.235.428-.387a.688.688 0 0 0 .088-.408C1.305.952 1.237.795 1.117.558L.678-.297a.942.942 0 0 1-.086-.195C.586-.522.587-.548.598-.568a.096.096 0 0 1 .044-.047c.04-.021.099-.013.17.023l.042-.092a.976.976 0 0 0-.375-.128.595.595 0 0 0-.326.067.517.517 0 0 0-.25.24.46.46 0 0 0 .008.334" style="fill:#fff;fill-opacity:1;fill-rule:nonzero;stroke:none" transform="matrix(10.27099 0 0 -10.27099 196.07 527.19)"/><path d="m0 0-1.175-2.841c-.066-.162-.091-.273-.072-.333.02-.061.082-.117.188-.168l-.037-.088-1.234.51.037.088c.102-.039.19-.04.262-.004.047.023.103.116.17.277L-.88-.191c.064.158.088.27.068.329-.018.061-.08.117-.184.169l.037.089z" style="fill:#fff;fill-opacity:1;fill-rule:nonzero;stroke:none" transform="matrix(10.27099 0 0 -10.27099 230.567 508.618)"/><path d="m0 0-.026-.095-1.817.465.025.095.114-.029a.514.514 0 0 1 .259-.009.247.247 0 0 1 .133.097c.029.036.066.143.111.317l.586 2.284c.044.179.063.292.055.342a.26.26 0 0 1-.083.146.473.473 0 0 1-.219.108l-.116.03.025.096 1.817-.466-.023-.094-.115.028a.5.5 0 0 1-.258.01.256.256 0 0 1-.138-.097c-.028-.036-.066-.141-.111-.315L-.366.626C-.411.448-.43.335-.421.285A.263.263 0 0 1-.335.14.455.455 0 0 1-.116.03Z" style="fill:#fff;fill-opacity:1;fill-rule:nonzero;stroke:none" transform="matrix(10.27099 0 0 -10.27099 255.738 553.724)"/><path d="m0 0-.038-.318c.142.121.275.205.398.254a.772.772 0 0 0 .384.048.6.6 0 0 0 .381-.179.65.65 0 0 0 .171-.355c.017-.104.007-.297-.027-.582l-.115-.955c-.023-.19-.019-.309.009-.361.028-.05.096-.087.203-.113l-.012-.094-1.242.15.012.094c.094.001.165.031.213.092.033.04.06.147.081.319L.55-.906c.025.201.031.33.022.383a.224.224 0 0 1-.067.132.196.196 0 0 1-.118.059C.235-.314.083-.406-.072-.605L-.23-1.921c-.022-.184-.02-.303.008-.355.029-.053.088-.091.18-.116l-.012-.094-1.242.15.012.094c.105-.002.181.022.232.074.035.034.064.147.086.335l.167 1.387c.022.186.019.304-.011.354-.027.05-.095.087-.202.115L-1 .12Z" style="fill:#fff;fill-opacity:1;fill-rule:nonzero;stroke:none" transform="matrix(10.27099 0 0 -10.27099 274.28 532.029)"/><path d="m0 0 .045-.844-.09-.001c-.111.25-.223.421-.337.512a.56.56 0 0 1-.347.137.268.268 0 0 1-.186-.075.226.226 0 0 1-.076-.167.221.221 0 0 1 .055-.139c.057-.071.215-.194.475-.368.26-.175.432-.323.515-.445a.719.719 0 0 0 .125-.41.871.871 0 0 0-.101-.406.727.727 0 0 0-.29-.306.835.835 0 0 0-.414-.108c-.119 0-.277.035-.476.108a.38.38 0 0 1-.109.029c-.058 0-.104-.044-.143-.133l-.088-.001-.046.889.09.001c.08-.233.19-.407.329-.523.14-.114.27-.172.393-.172.085 0 .155.027.207.079a.253.253 0 0 1 .082.189.323.323 0 0 1-.082.22 1.918 1.918 0 0 1-.355.278c-.272.187-.447.329-.528.427a.764.764 0 0 0 .018.996c.131.155.32.233.569.234a.83.83 0 0 0 .389-.096.278.278 0 0 1 .117-.038c.031 0 .057.006.077.02a.543.543 0 0 1 .093.112z" style="fill:#fff;fill-opacity:1;fill-rule:nonzero;stroke:none" transform="matrix(10.27099 0 0 -10.27099 310.047 532.982)"/><path d="m0 0 .066-.902.588.044.018-.263-.585-.044.115-1.522c.011-.142.024-.233.04-.274a.198.198 0 0 1 .077-.094.158.158 0 0 1 .096-.033c.113.01.216.106.304.288l.084-.053c-.117-.349-.337-.536-.656-.559a.62.62 0 0 0-.635.376c-.024.059-.042.22-.063.485l-.1 1.331-.324-.024-.005.093c.209.172.385.351.529.535.141.185.264.387.364.609z" style="fill:#fff;fill-opacity:1;fill-rule:nonzero;stroke:none" transform="matrix(10.27099 0 0 -10.27099 324.662 523.468)"/><path d="M0 0a.39.39 0 0 0 .306-.079.396.396 0 0 0 .159-.27.4.4 0 0 0-.079-.301.403.403 0 0 0-.27-.16.396.396 0 0 0-.303.078A.41.41 0 0 0 0 0m.536-1.134.276-1.942c.025-.173.06-.28.109-.323.046-.042.129-.058.247-.049l.012-.094-1.324-.187-.013.094c.108.019.185.061.229.128.029.046.032.155.007.327l-.203 1.431c-.026.173-.061.28-.109.322-.046.042-.127.059-.244.05l-.014.097z" style="fill:#fff;fill-opacity:1;fill-rule:nonzero;stroke:none" transform="matrix(10.27099 0 0 -10.27099 337.711 518.945)"/><path d="m0 0 .193-.883.573.125.055-.257-.572-.125.323-1.49c.031-.141.058-.229.079-.267a.196.196 0 0 1 .09-.083c.038-.018.071-.024.098-.018.112.024.2.133.262.325l.091-.039c-.067-.362-.259-.577-.573-.645a.616.616 0 0 0-.416.044.557.557 0 0 0-.265.241c-.03.054-.074.211-.13.469l-.284 1.306-.315-.068-.021.09a3.5 3.5 0 0 1 .451.605c.115.201.208.419.275.652z" style="fill:#fff;fill-opacity:1;fill-rule:nonzero;stroke:none" transform="matrix(10.27099 0 0 -10.27099 356.267 518.574)"/><path d="m0 0 .625-1.833c.061-.18.116-.285.165-.318.048-.033.124-.038.231-.015l.031-.09-.954-.325-.108.313a1.239 1.239 0 0 0-.236-.406.8.8 0 0 0-.344-.218.574.574 0 0 0-.392.001.629.629 0 0 0-.304.213c-.073.097-.154.28-.247.55l-.318.931c-.059.176-.112.281-.161.313-.047.032-.125.037-.233.016l-.03.092.954.326.546-1.601c.055-.167.099-.272.131-.314a.21.21 0 0 1 .246-.083c.06.021.109.055.146.104.053.065.104.18.152.344L-.527-.747c-.061.177-.114.282-.161.314-.047.033-.125.037-.233.016l-.032.091z" style="fill:#fff;fill-opacity:1;fill-rule:nonzero;stroke:none" transform="matrix(10.27099 0 0 -10.27099 389.216 518.238)"/><path d="m0 0 .389-.819.53.252.112-.236L.5-1.055l.651-1.381c.061-.128.107-.209.137-.242a.208.208 0 0 1 .107-.06.153.153 0 0 1 .099.005c.104.05.164.174.183.376l.096-.019c.016-.367-.122-.62-.412-.756a.597.597 0 0 0-.415-.051.568.568 0 0 0-.312.174c-.042.047-.12.19-.233.429l-.572 1.209-.291-.138-.039.084c.134.236.232.466.3.69.069.222.109.455.123.698z" style="fill:#fff;fill-opacity:1;fill-rule:nonzero;stroke:none" transform="matrix(10.27099 0 0 -10.27099 399.367 503.268)"/><path d="M0 0c-.143.245-.255.407-.333.483A.483.483 0 0 1-.579.62.223.223 0 0 1-.73.586C-.812.54-.854.464-.858.356c-.012-.187.05-.4.188-.636l.046-.081zm.651.172L-.523-.507c.178-.276.384-.456.617-.541a.551.551 0 0 1 .49.029c.092.054.16.126.206.221.044.094.071.233.079.415l.109-.006c.02-.302-.012-.545-.095-.724a.949.949 0 0 0-.403-.43c-.316-.185-.628-.202-.932-.05-.246.119-.453.326-.621.617-.207.357-.277.697-.205 1.02.071.324.235.561.496.711.215.125.455.145.718.06C.198.73.437.516.651.172" style="fill:#fff;fill-opacity:1;fill-rule:nonzero;stroke:none" transform="matrix(10.27099 0 0 -10.27099 428.385 509.406)"/><path d="M0 0a.32.32 0 0 1-.134-.215c-.013-.093.028-.226.124-.405.096-.174.246-.41.447-.704.106-.155.217-.294.331-.414a.503.503 0 0 1 .264-.166.301.301 0 0 1 .36.208.441.441 0 0 1-.028.285c-.067.159-.243.449-.531.868-.172.247-.301.407-.392.481a.477.477 0 0 1-.26.118A.287.287 0 0 1 0 0m-.115.148c.177.123.374.19.59.204C.691.365.895.314 1.09.2c.195-.115.362-.272.499-.473.199-.289.293-.581.279-.876-.016-.357-.181-.645-.492-.859-.308-.211-.617-.265-.931-.164-.312.1-.567.294-.762.577a1.472 1.472 0 0 0-.272.939c.021.333.178.602.474.804" style="fill:#fff;fill-opacity:1;fill-rule:nonzero;stroke:none" transform="matrix(10.27099 0 0 -10.27099 453.992 482.58)"/><path d="m0 0 1.232-1.195c.121-.116.206-.177.262-.18.085-.005.18.049.282.163l.069-.068L.829-2.325l-.068.065a.52.52 0 0 1 .136.197.203.203 0 0 1-.002.138.898.898 0 0 1-.173.203L-.511-.527-.76-.785l-.187.181.251.258-.13.127-.094.085a.825.825 0 0 0-.26.643c.009.25.121.491.344.719.15.155.291.243.423.261.131.02.232-.006.303-.074a.277.277 0 0 0 .081-.214.38.38 0 0 0-.118-.247.325.325 0 0 0-.204-.107C-.423.841-.479.858-.522.9a.51.51 0 0 0-.057.079c-.018.024-.035.047-.055.066-.026.025-.053.038-.081.035a.147.147 0 0 1-.1-.047.16.16 0 0 1-.044-.136c.006-.054.044-.114.111-.179L-.413.4l.226-.22.254.263.187-.181Z" style="fill:#fff;fill-opacity:1;fill-rule:nonzero;stroke:none" transform="matrix(10.27099 0 0 -10.27099 474.644 466.537)"/><path d="m0 0 .814-.526-.05-.081c-.219.075-.388.109-.507.105a.721.721 0 0 1-.351-.112c-.063-.039-.14-.129-.23-.27l-.146-.224 2.325-1.5c.155-.1.257-.154.308-.162a.265.265 0 0 1 .163.035c.062.031.121.09.176.176l.064.1.081-.054-1.018-1.578-.081.052.064.101a.518.518 0 0 1 .09.242.247.247 0 0 1-.048.158c-.026.041-.114.109-.265.206L-.937-1.83l-.139-.219c-.131-.202-.184-.378-.157-.525.037-.206.155-.399.356-.576l-.056-.085-.815.527z" style="fill:#fff;fill-opacity:1;fill-rule:nonzero;stroke:none" transform="matrix(10.27099 0 0 -10.27099 493.752 416.1)"/><path d="M0 0c-.254.129-.435.205-.542.226A.482.482 0 0 1-.823.208a.222.222 0 0 1-.108-.11c-.044-.081-.038-.169.016-.261.092-.165.259-.31.503-.435l.081-.042Zm.455.498L-.166-.71c.298-.137.568-.177.812-.123a.558.558 0 0 1 .396.29.508.508 0 0 1 .052.297 1.136 1.136 0 0 1-.156.393L1.031.2c.181-.244.286-.465.313-.662a.952.952 0 0 0-.107-.578c-.168-.327-.42-.509-.758-.548-.271-.031-.558.032-.857.186-.366.19-.607.439-.722.749-.116.31-.104.599.033.865a.85.85 0 0 0 .573.439c.267.07.583.019.949-.153" style="fill:#fff;fill-opacity:1;fill-rule:nonzero;stroke:none" transform="matrix(10.27099 0 0 -10.27099 517.955 414.937)"/><path d="m0 0 .091.053C.25-.137.347-.332.38-.533a1.03 1.03 0 0 0-.059-.575.961.961 0 0 0-.641-.594 1.4 1.4 0 0 0-.944.062c-.312.125-.552.32-.723.582A1.038 1.038 0 0 0-2.08-.052c.096.237.231.401.407.493.176.091.337.108.485.049A.326.326 0 0 0-.999.314a.324.324 0 0 0-.006-.255.356.356 0 0 0-.191-.202c-.091-.036-.221-.03-.39.021-.106.033-.189.038-.245.016a.181.181 0 0 1-.114-.107c-.033-.079-.017-.162.044-.251.091-.136.266-.257.528-.362a1.99 1.99 0 0 1 .66-.147c.226-.01.41.024.554.105a.54.54 0 0 1 .234.275.515.515 0 0 1 .036.251A1.115 1.115 0 0 1 0 0" style="fill:#fff;fill-opacity:1;fill-rule:nonzero;stroke:none" transform="matrix(10.27099 0 0 -10.27099 538.417 389.945)"/><path d="m0 0 1.378-.386a1.496 1.496 0 0 0-.19.441.726.726 0 0 0 .008.362c.043.151.12.267.236.349a.628.628 0 0 0 .357.128c.125.002.324-.034.594-.111l.932-.259c.18-.051.299-.066.353-.045.056.022.102.084.145.184l.091-.026-.338-1.208-.092.025a.293.293 0 0 1-.048.22c-.037.042-.139.088-.312.136L2.052.107c-.198.056-.323.082-.377.08a.228.228 0 0 1-.139-.043.221.221 0 0 1-.077-.113.339.339 0 0 1 .015-.218.947.947 0 0 1 .187-.279l1.277-.356c.17-.046.28-.064.33-.051.065.017.121.072.162.17l.091-.027-.338-1.207-.091.026c.018.103.006.183-.037.241-.03.039-.135.084-.318.135L.316-.858c-.178.049-.295.065-.348.044-.054-.02-.103-.082-.146-.183l-.093.026z" style="fill:#fff;fill-opacity:1;fill-rule:nonzero;stroke:none" transform="matrix(10.27099 0 0 -10.27099 513.943 366.856)"/><path d="m0 0 .316-.042A1.44 1.44 0 0 0 .067.36a.795.795 0 0 0-.044.385c.02.159.083.285.185.379a.652.652 0 0 0 .357.165c.103.016.297.003.581-.033l.956-.126c.187-.025.306-.023.358.006.05.027.09.094.117.201l.094-.014-.165-1.24-.094.013c0 .094-.029.166-.09.214-.039.035-.145.062-.318.086L.912.539C.711.566.582.574.528.566A.233.233 0 0 1 .395.501a.2.2 0 0 1-.06-.118C.316.232.405.078.604-.08l1.314-.173c.184-.025.302-.023.354.006.055.026.094.086.118.177l.095-.013-.165-1.239-.093.011c.003.106-.022.184-.072.234-.034.035-.146.065-.334.09L.436-.805C.249-.78.131-.782.083-.81c-.052-.027-.091-.094-.118-.202l-.097.013z" style="fill:#fff;fill-opacity:1;fill-rule:nonzero;stroke:none" transform="matrix(10.27099 0 0 -10.27099 531.516 340.396)"/><path d="M0 0c0-.09.034-.167.104-.23.068-.065.202-.106.401-.124.201-.02.479-.026.838-.023.187.002.363.015.527.042a.5.5 0 0 1 .285.127.282.282 0 0 1 .096.218.3.3 0 0 1-.066.197.458.458 0 0 1-.254.136C1.763.376 1.424.391.913.387.614.384.408.365.297.332A.478.478 0 0 1 .053.18.265.265 0 0 1 0 0m-.189-.012c-.001.215.051.416.162.602.11.186.266.328.47.427.204.098.427.148.67.15.352.002.646-.085.883-.26.29-.213.436-.509.437-.888.004-.373-.124-.661-.383-.864a1.458 1.458 0 0 0-.905-.31 1.476 1.476 0 0 0-.931.301c-.265.203-.4.484-.403.842" style="fill:#fff;fill-opacity:1;fill-rule:nonzero;stroke:none" transform="matrix(10.27099 0 0 -10.27099 534.746 308.746)"/><path d="m0 0 3.062.294c.173.017.282.047.326.091.047.046.066.129.061.246l.096.009.128-1.329-.096-.01c-.014.109-.052.187-.119.234-.044.03-.151.038-.325.021L.582-.688C.411-.705.302-.735.258-.78.213-.825.193-.906.196-1.022L.1-1.032Z" style="fill:#fff;fill-opacity:1;fill-rule:nonzero;stroke:none" transform="matrix(10.27099 0 0 -10.27099 520.693 284.668)"/><path d="M0 0a.303.303 0 0 1 .141-.21c.078-.052.216-.07.417-.057.201.016.477.054.829.115.184.032.357.076.514.128.12.041.206.098.259.171a.304.304 0 0 1-.04.415.44.44 0 0 1-.272.092C1.678.66 1.34.619.839.532.543.48.344.428.239.375A.471.471 0 0 1 .024.187.275.275 0 0 1 0 0m-.184-.043c-.037.213-.015.418.06.621.079.201.21.367.394.497.185.13.397.215.637.258.347.061.651.023.914-.111.32-.161.512-.43.577-.803.065-.367-.015-.672-.238-.916a1.443 1.443 0 0 0-.841-.454 1.462 1.462 0 0 0-.966.144c-.296.157-.474.411-.537.764" style="fill:#fff;fill-opacity:1;fill-rule:nonzero;stroke:none" transform="matrix(10.27099 0 0 -10.27099 530.764 266.383)"/><path d="M0 0c.05-.172.097-.282.143-.33.08-.082.165-.11.254-.085.086.025.151.097.194.217.042.121.024.319-.056.594C.47.633.385.81.282.927c-.099.117-.208.159-.321.127A.165.165 0 0 1-.136.985.385.385 0 0 1-.181.748C-.173.65-.112.4 0 0m-2.686-.6c.028-.099.101-.168.22-.208.118-.039.334-.015.645.074.255.071.419.155.492.248.077.094.1.187.074.279-.028.102-.099.173-.213.215-.112.041-.303.023-.572-.054-.303-.086-.5-.184-.588-.291A.269.269 0 0 1-2.686-.6m-.183.424-.228.801.28.08.129-.456a.976.976 0 0 0 .177.238.722.722 0 0 0 .272.141.735.735 0 0 0 .48-.015.984.984 0 0 0 .403-.301c.116-.142.192-.275.227-.401.004-.011.028-.113.074-.309a.28.28 0 0 1 .131-.171.25.25 0 0 1 .201-.027c.06.018.104.054.129.114.028.057.025.138-.005.244L-.73.201c-.101.356-.131.611-.091.768a.56.56 0 0 0 .42.43.662.662 0 0 0 .43-.021.805.805 0 0 0 .361-.274C.535.908.647.668.729.383.79.17.824-.031.834-.219.843-.408.818-.55.769-.647a.341.341 0 0 0-.202-.181.306.306 0 0 0-.235.028C.253-.759.17-.665.083-.517.038-.77-.083-.923-.277-.978a.557.557 0 0 0-.378.038c-.137.059-.273.174-.41.346-.019-.251-.081-.446-.187-.587a.792.792 0 0 0-.43-.286c-.231-.067-.459-.029-.685.113-.224.142-.378.362-.462.661-.045.158-.06.329-.04.517" style="fill:#fff;fill-opacity:1;fill-rule:nonzero;stroke:none" transform="matrix(10.27099 0 0 -10.27099 552.138 234.05)"/><path d="m0 0-1.387-1.442c-.21-.217-.332-.364-.369-.441a.466.466 0 0 1-.043-.243l-.09-.039-.505 1.215.091.037c.035-.077.074-.127.116-.148a.14.14 0 0 1 .121-.008c.061.027.167.118.316.275l.731.763-.802-.021c-.286-.007-.477-.03-.573-.07a.199.199 0 0 1-.12-.119c-.019-.055-.007-.134.029-.236l-.09-.038-.319.765.092.037A.316.316 0 0 1-2.64.14c.07-.025.273-.035.606-.025l1.965.052C.423.178.733.165.864.125a.558.558 0 0 0 .382-.338.508.508 0 0 0 .021-.377.401.401 0 0 0-.228-.242.35.35 0 0 0-.269-.01.297.297 0 0 0-.183.175.288.288 0 0 0-.004.23c.031.071.101.129.21.176.061.028.099.052.111.073a.073.073 0 0 1 .003.066C.89-.083.851-.05.783-.025.688.011.502.023.219.009Z" style="fill:#fff;fill-opacity:1;fill-rule:nonzero;stroke:none" transform="matrix(10.27099 0 0 -10.27099 539.23 204.697)"/></svg>