<svg xmlns="http://www.w3.org/2000/svg" width="198.56508mm" height="198.56842mm" viewBox="0 0 198.56508 198.56842"><g style="fill:#07361b;fill-opacity:1"><path d="m0 0 .636-.414.595.489-.198-.758.645-.445-.769-.016-.217-.728-.261.712-.732-.017.565.465Z" style="fill:#07361b;fill-opacity:1;fill-rule:nonzero;stroke:none" transform="matrix(6.62144 0 0 -6.62144 30.82 117.76)"/></g><g style="fill:#07361b;fill-opacity:1"><path d="M0 0c-.003.008-.003.016-.001.02C0 .026.003.029.011.029l.073.014C.101.044.11.035.12.017a.879.879 0 0 0 .062-.289.686.686 0 0 0-.157-.534.633.633 0 0 0-.213-.16.943.943 0 0 0-.29-.068.713.713 0 0 0-.534.151.692.692 0 0 0-.238.498.749.749 0 0 0-.005.081c-.002.023-.002.047-.002.071l.006.068.009.073c.003.019.013.028.033.028l.075.002c.019 0 .025-.009.019-.027a.83.83 0 0 1-.019-.288.565.565 0 0 1 .203-.408.625.625 0 0 1 .443-.11c.089.006.17.024.24.054.069.029.131.07.181.123a.542.542 0 0 1 .131.437 1.285 1.285 0 0 1-.024.155A.456.456 0 0 1 0 0" style="fill:#07361b;fill-opacity:1;fill-rule:nonzero;stroke:none" transform="matrix(6.62144 0 0 -6.62144 35.01 101.62)"/></g><g style="fill:#07361b;fill-opacity:1"><path d="M0 0c.018-.001.025-.011.025-.027L.019-.111C.018-.129.009-.138-.01-.137l-.63.041-.047-.71.632-.041c.019 0 .026-.009.025-.028l-.006-.082c0-.019-.011-.027-.027-.026L-1.4-.896c-.019.001-.027.01-.027.029l.008.083c0 .018.01.026.027.026l.589-.039.045.709-.589.039c-.016.001-.025.01-.023.028l.005.083c0 .018.011.027.03.025z" style="fill:#07361b;fill-opacity:1;fill-rule:nonzero;stroke:none" transform="matrix(6.62144 0 0 -6.62144 36.136 92.29)"/></g><g style="fill:#07361b;fill-opacity:1"><path d="M0 0a.364.364 0 0 1-.136.01.182.182 0 0 1-.099-.04.252.252 0 0 1-.074-.097.806.806 0 0 1-.046-.162l-.042-.189.548-.115.04.194c.011.048.014.097.011.142a.332.332 0 0 1-.031.12.271.271 0 0 1-.067.089A.249.249 0 0 1 0 0m.982.023c.006 0 .013 0 .018-.004.005-.002.006-.009.005-.015l-.02-.097C.98-.111.97-.123.95-.128L.64-.206.446-.257A4.183 4.183 0 0 1 .32-.292a.667.667 0 0 0-.006-.08C.312-.395.306-.426.3-.463L.267-.618l.556-.115c.016-.006.025-.016.02-.032L.826-.85C.823-.865.811-.871.795-.869L-.483-.6a.472.472 0 0 0-.032.007l-.015.009c-.003.007-.003.012-.003.02a.51.51 0 0 0 .006.031l.074.347a.474.474 0 0 0 .065.173A.401.401 0 0 0-.281.1a.33.33 0 0 0 .139.048.475.475 0 0 0 .17-.01.289.289 0 0 0 .101-.04A.4.4 0 0 0 .21.025a.494.494 0 0 0 .097-.193Z" style="fill:#07361b;fill-opacity:1;fill-rule:nonzero;stroke:none" transform="matrix(6.62144 0 0 -6.62144 31.338 83.502)"/></g><g style="fill:#07361b;fill-opacity:1"><path d="m0 0-.026-.087c-.007-.017-.017-.022-.035-.017l-1.275.401c-.016.005-.022.015-.016.032l.027.085c.005.018.015.022.033.018L-.018.031C-.001.026.004.015 0 0" style="fill:#07361b;fill-opacity:1;fill-rule:nonzero;stroke:none" transform="matrix(6.62144 0 0 -6.62144 38.955 80.508)"/></g><g style="fill:#07361b;fill-opacity:1"><path d="M0 0c-.014-.016-.027-.018-.041-.008l-.076.04c-.01.005-.015.013-.016.019-.001.005.001.012.009.016a.69.69 0 0 1 .1.103c.027.036.05.083.073.136a.33.33 0 0 1 .016.236.263.263 0 0 1-.162.161.178.178 0 0 1-.117.003.457.457 0 0 1-.141-.069A4.163 4.163 0 0 1-.49.534C-.539.494-.59.458-.641.427A.618.618 0 0 0-.802.355a.254.254 0 0 0-.162.014.336.336 0 0 0-.132.094.374.374 0 0 0-.067.139.464.464 0 0 0-.01.159.653.653 0 0 0 .099.277.67.67 0 0 0 .074.103c.014.013.025.016.039.005l.063-.041c.016-.011.017-.022.003-.036a.3.3 0 0 1-.07-.082.551.551 0 0 1-.056-.112.4.4 0 0 1-.032-.114.294.294 0 0 1 .004-.107.315.315 0 0 1 .046-.089.207.207 0 0 1 .09-.062.145.145 0 0 1 .097-.006.694.694 0 0 1 .208.114c.033.026.063.047.091.07l.115.083a.45.45 0 0 0 .116.062.339.339 0 0 0 .254.005.378.378 0 0 0 .14-.099.397.397 0 0 0 .075-.144.487.487 0 0 0-.026-.335.936.936 0 0 0-.066-.131C.067.084.035.045 0 0" style="fill:#07361b;fill-opacity:1;fill-rule:nonzero;stroke:none" transform="matrix(6.62144 0 0 -6.62144 39.744 77.747)"/></g><g style="fill:#07361b;fill-opacity:1"><path d="m0 0 1.088-.612c.015-.009.018-.021.01-.034l-.043-.077c-.008-.016-.02-.018-.034-.009l-1.087.611-.19-.338c-.009-.015-.02-.017-.036-.008l-.056.031c-.014.008-.018.02-.009.036l.448.798c.009.015.02.018.036.01L.183.376C.199.367.201.355.193.34Z" style="fill:#07361b;fill-opacity:1;fill-rule:nonzero;stroke:none" transform="matrix(6.62144 0 0 -6.62144 36.893 64.4)"/></g><g style="fill:#07361b;fill-opacity:1"><path d="m0 0-.051-.075c-.011-.014-.023-.017-.037-.007l-1.101.757c-.015.011-.017.021-.007.037l.05.073c.009.016.023.018.038.008L-.006.036C.009.026.009.015 0 0" style="fill:#07361b;fill-opacity:1;fill-rule:nonzero;stroke:none" transform="matrix(6.62144 0 0 -6.62144 47.167 63.922)"/></g><g style="fill:#07361b;fill-opacity:1"><path d="M0 0c-.134.047-.264.091-.392.138-.128.047-.257.091-.391.136l.193-.369c.063-.12.126-.244.192-.368zm.566-.054C.582-.06.585-.068.575-.082L.516-.151a.061.061 0 0 0-.015-.013C.495-.166.486-.165.473-.161L.12-.042l-.459-.536.087-.165c.027-.054.057-.108.087-.164.006-.012.008-.021.006-.026a.05.05 0 0 0-.009-.018l-.059-.068c-.01-.011-.021-.011-.03.005L-.918.279c-.01.016-.006.029.004.04l.073.087c.012.013.025.018.04.011z" style="fill:#07361b;fill-opacity:1;fill-rule:nonzero;stroke:none" transform="matrix(6.62144 0 0 -6.62144 49.877 55.283)"/></g><g style="fill:#07361b;fill-opacity:1"><path d="m0 0-.062-.055C-.077-.066-.09-.064-.1-.052l-.859.995c-.018.02-.024.033-.024.039 0 .007.011.02.031.037l.063.054c.014.01.024.018.029.018.006.002.015 0 .027-.005L.497.63l-.792.919c-.013.013-.013.025.001.038l.064.054c.012.01.024.01.037-.002L.665.643C.681.623.689.61.689.604c0-.006-.01-.019-.03-.037L.572.492C.565.486.559.482.555.482a.074.074 0 0 0-.027.003L-.774.938.003.037C.016.025.014.013 0 0" style="fill:#07361b;fill-opacity:1;fill-rule:nonzero;stroke:none" transform="matrix(6.62144 0 0 -6.62144 55.729 53.932)"/></g><g style="fill:#07361b;fill-opacity:1"><path d="M0 0c.005.006.011.01.018.011C.024.012.03.01.033.002L.069-.06c.01-.012.009-.028-.005-.042a.886.886 0 0 0-.097-.087 1.353 1.353 0 0 0-.141-.086.69.69 0 0 0-.552-.074.575.575 0 0 0-.233.132.822.822 0 0 0-.18.236.71.71 0 0 0-.079.549c.053.179.171.32.358.419.026.014.05.029.072.038.022.01.045.02.065.031.024.006.044.015.065.023.022.007.045.015.07.02.019.006.032-.001.042-.019l.03-.067C-.509.996-.515.987-.531.985A.613.613 0 0 1-.67.947 1.499 1.499 0 0 1-.803.885a.546.546 0 0 1-.291-.35.612.612 0 0 1 .076-.449.74.74 0 0 1 .149-.198.558.558 0 0 1 .185-.117c.143-.05.293-.031.454.057.044.026.088.054.13.084.044.03.078.059.1.088" style="fill:#07361b;fill-opacity:1;fill-rule:nonzero;stroke:none" transform="matrix(6.62144 0 0 -6.62144 71.274 42.196)"/></g><g style="fill:#07361b;fill-opacity:1"><path d="M0 0a.808.808 0 0 1-.247.354.49.49 0 0 1-.195.08A.433.433 0 0 1-.651.41a.393.393 0 0 1-.18-.117A.442.442 0 0 1-.93.106.688.688 0 0 1-.946-.1a.834.834 0 0 1 .149-.421.506.506 0 0 1 .342-.23.411.411 0 0 1 .21.021.44.44 0 0 1 .277.304.66.66 0 0 1 .015.206A.848.848 0 0 1 0 0m.129.048c.072-.21.083-.392.03-.543-.057-.164-.18-.278-.364-.346a.564.564 0 0 0-.503.036c-.141.086-.247.233-.319.44a.95.95 0 0 0-.061.278.727.727 0 0 0 .027.245.59.59 0 0 0 .368.364.628.628 0 0 0 .27.036.602.602 0 0 0 .245-.084.845.845 0 0 0 .307-.426" style="fill:#07361b;fill-opacity:1;fill-rule:nonzero;stroke:none" transform="matrix(6.62144 0 0 -6.62144 79.02 35.245)"/></g><g style="fill:#07361b;fill-opacity:1"><path d="M0 0c.017.003.027-.003.031-.021l.013-.065C.049-.102.041-.113.024-.115l-.593-.127C-.587-.244-.601-.247-.61-.247a.023.023 0 0 0-.021.003c-.007.002-.012.009-.013.018a.872.872 0 0 1-.009.04l-.266 1.264c-.004.017.002.027.02.032l.085.017c.017.004.028-.004.031-.022l.258-1.216z" style="fill:#07361b;fill-opacity:1;fill-rule:nonzero;stroke:none" transform="matrix(6.62144 0 0 -6.62144 88.131 37.022)"/></g><g style="fill:#07361b;fill-opacity:1"><path d="M0 0c.02.003.028-.006.03-.024l.006-.065C.039-.106.03-.115.012-.117l-.603-.062a.342.342 0 0 1-.043-.005c-.009 0-.015.004-.018.006-.007.004-.009.013-.011.023l-.005.04L-.8 1.17c0 .017.007.027.025.028l.086.009c.017.002.026-.006.029-.023l.125-1.238z" style="fill:#07361b;fill-opacity:1;fill-rule:nonzero;stroke:none" transform="matrix(6.62144 0 0 -6.62144 94.81 36.272)"/></g><g style="fill:#07361b;fill-opacity:1"><path d="M0 0c-.027 0-.043.003-.047.008-.003.004-.007.018-.007.045l.023 1.295c.001.021.002.037.007.041.003.005.018.007.044.007l.649-.012c.018 0 .026-.01.026-.027l-.001-.066c0-.018-.008-.026-.026-.026l-.564.01L.098.778.632.771c.017 0 .026-.01.025-.028L.655.677C.655.659.646.65.63.65L.095.659.085.118.672.109C.688.109.697.101.697.081L.695.016c0-.018-.008-.027-.026-.027z" style="fill:#07361b;fill-opacity:1;fill-rule:nonzero;stroke:none" transform="matrix(6.62144 0 0 -6.62144 97.487 36.977)"/></g><g style="fill:#07361b;fill-opacity:1"><path d="M0 0c.026-.005.04-.009.045-.015.003-.004.003-.02-.002-.045l-.091-.588a.069.069 0 0 0-.017-.033.1.1 0 0 0-.031-.018 1.13 1.13 0 0 0-.401-.007.915.915 0 0 0-.276.091.637.637 0 0 0-.204.172.683.683 0 0 0-.117.558.773.773 0 0 0 .093.279.663.663 0 0 0 .423.314.817.817 0 0 0 .305.005c.07-.01.129-.023.18-.036A.81.81 0 0 0 .063.612C.082.605.088.591.081.572L.062.504C.057.49.046.486.031.492a.83.83 0 0 1-.322.106.664.664 0 0 1-.245-.007.574.574 0 0 1-.202-.092.531.531 0 0 1-.143-.171.726.726 0 0 1-.075-.495.534.534 0 0 1 .252-.349.718.718 0 0 1 .225-.074.634.634 0 0 1 .302.004l.076.482-.373.058c-.017.003-.024.014-.023.031l.011.066c.004.014.013.023.03.019z" style="fill:#07361b;fill-opacity:1;fill-rule:nonzero;stroke:none" transform="matrix(6.62144 0 0 -6.62144 112.548 33.363)"/></g><g style="fill:#07361b;fill-opacity:1"><path d="M0 0c-.023.009-.038.014-.04.021-.003.004 0 .021.008.045l.384 1.235c.007.022.011.037.018.038.005.004.019.002.041-.005l.623-.194c.017-.006.023-.017.017-.033l-.02-.064c-.005-.015-.015-.022-.032-.015l-.538.165L.312.721.824.562C.841.558.847.548.842.53L.821.464C.816.448.805.442.79.447l-.513.16-.16-.516.56-.176C.694-.09.7-.1.694-.116l-.02-.066C.668-.199.657-.202.642-.199Z" style="fill:#07361b;fill-opacity:1;fill-rule:nonzero;stroke:none" transform="matrix(6.62144 0 0 -6.62144 115.425 39.24)"/></g><g style="fill:#07361b;fill-opacity:1"><path d="M0 0a.744.744 0 0 1 .103.415.444.444 0 0 1-.067.2.404.404 0 0 1-.156.144.413.413 0 0 1-.41.012.742.742 0 0 1-.302-.302A.919.919 0 0 1-.917.26a.722.722 0 0 1-.02-.208.532.532 0 0 1 .068-.2.426.426 0 0 1 .155-.146.42.42 0 0 1 .203-.06.48.48 0 0 1 .206.048c.06.031.117.072.167.123A.915.915 0 0 1 0 0m.12-.068C.007-.263-.122-.387-.272-.447-.433-.513-.6-.494-.771-.396a.553.553 0 0 0-.302.403c-.028.162.014.339.121.528.052.09.107.167.171.228.064.06.132.107.206.141A.573.573 0 0 0-.06.861.592.592 0 0 0 .144.683.592.592 0 0 0 .239.442.741.741 0 0 0 .223.19.921.921 0 0 0 .12-.068" style="fill:#07361b;fill-opacity:1;fill-rule:nonzero;stroke:none" transform="matrix(6.62144 0 0 -6.62144 134.52 42.622)"/></g><g style="fill:#07361b;fill-opacity:1"><path d="M0 0c-.01-.013-.023-.015-.037-.004l-.068.052C-.119.059-.121.071-.11.085l.793 1.041c.016.021.027.032.035.033.006.001.018-.007.042-.023l.498-.38c.013-.011.014-.023.005-.037l-.039-.05C1.213.653 1.201.652 1.187.663L.756.99.455.596.864.284C.878.271.881.26.869.247L.828.191C.818.179.806.178.793.187L.381.5Z" style="fill:#07361b;fill-opacity:1;fill-rule:nonzero;stroke:none" transform="matrix(6.62144 0 0 -6.62144 135.897 49.005)"/></g><g style="fill:#07361b;fill-opacity:1"><path d="m0 0-.056.064c-.01.014-.01.025.002.037l.988.868c.018.016.033.025.038.025.007 0 .017-.01.035-.028l.056-.068a.076.076 0 0 0 .02-.027.044.044 0 0 0-.005-.025L.635-.49l.912.803c.012.012.023.01.036-.003l.054-.062c.011-.013.011-.025-.001-.037L.649-.657C.63-.675.616-.683.61-.681c-.006 0-.017.01-.036.029l-.075.087a.038.038 0 0 0-.012.017c-.002.006 0 .015.005.025L.932.785.037-.002C.024-.014.011-.013 0 0" style="fill:#07361b;fill-opacity:1;fill-rule:nonzero;stroke:none" transform="matrix(6.62144 0 0 -6.62144 144 56.286)"/></g><g style="fill:#07361b;fill-opacity:1"><path d="M0 0a.401.401 0 0 1-.187-.229.353.353 0 0 1 .051-.293.35.35 0 0 1 .248-.174.29.29 0 0 1 .14.007.534.534 0 0 1 .145.067l.744.477c.014.01.026.006.036-.008l.047-.072c.008-.015.006-.028-.009-.037L.474-.738a.622.622 0 0 0-.228-.091.428.428 0 0 0-.214.016.53.53 0 0 0-.265.225.537.537 0 0 0-.094.336c.011.146.095.268.252.369l.742.476c.016.01.027.005.036-.009L.75.513C.76.497.758.485.742.477Z" style="fill:#07361b;fill-opacity:1;fill-rule:nonzero;stroke:none" transform="matrix(6.62144 0 0 -6.62144 152.91 62.15)"/></g><g style="fill:#07361b;fill-opacity:1"><path d="M0 0a.517.517 0 0 1 .115.072.202.202 0 0 1 .057.093.269.269 0 0 1 0 .12.849.849 0 0 1-.057.16l-.08.177-.511-.233.084-.18a.472.472 0 0 1 .075-.12.35.35 0 0 1 .095-.08A.255.255 0 0 1 0 0m-.778-.601a.035.035 0 0 0-.016-.006c-.007 0-.012.004-.016.009l-.039.09c-.008.017-.005.033.006.048.083.101.153.183.204.248l.125.154.082.104a1.077 1.077 0 0 0-.044.066c-.009.024-.023.05-.041.084l-.064.143-.518-.235c-.016-.006-.029-.002-.035.013l-.035.078c-.007.014-.005.026.013.034L.032.771c.012.006.023.008.03.011.006.004.012.004.019.003C.085.781.09.778.093.771A.158.158 0 0 0 .107.742L.255.42A.54.54 0 0 0 .304.238a.364.364 0 0 0-.02-.149.34.34 0 0 0-.085-.125.528.528 0 0 0-.141-.091.286.286 0 0 0-.105-.027c-.036-.003-.072.003-.108.009a.491.491 0 0 0-.194.097z" style="fill:#07361b;fill-opacity:1;fill-rule:nonzero;stroke:none" transform="matrix(6.62144 0 0 -6.62144 162.513 72.813)"/></g><g style="fill:#07361b;fill-opacity:1"><path d="M0 0c0 .022.009.033.025.034l.084.018C.12.054.127.05.134.046.138.042.14.036.136.026a.55.55 0 0 1 .022-.291.323.323 0 0 1 .137-.191.267.267 0 0 1 .228-.022.166.166 0 0 1 .092.073.486.486 0 0 1 .065.143l.038.166c.01.062.027.122.048.181A.51.51 0 0 0 .842.24a.254.254 0 0 0 .132.095c.058.018.112.02.163.012a.358.358 0 0 0 .139-.063.473.473 0 0 0 .111-.116.717.717 0 0 0 .102-.274.853.853 0 0 0 .008-.128c0-.019-.008-.03-.026-.031l-.073-.008c-.02-.002-.03.007-.025.026a.376.376 0 0 1 0 .106.694.694 0 0 1-.079.233.306.306 0 0 1-.071.076.24.24 0 0 1-.089.041A.225.225 0 0 1 1.023.2.164.164 0 0 1 .945.143.455.455 0 0 1 .892.04a.854.854 0 0 1-.036-.118C.848-.12.841-.157.832-.192.821-.238.811-.283.797-.327a.465.465 0 0 0-.126-.226.318.318 0 0 0-.116-.066.369.369 0 0 0-.32.049.453.453 0 0 0-.117.118.59.59 0 0 0-.078.157A.865.865 0 0 0 0 0" style="fill:#07361b;fill-opacity:1;fill-rule:nonzero;stroke:none" transform="matrix(6.62144 0 0 -6.62144 157.999 78.808)"/></g><g style="fill:#07361b;fill-opacity:1"><path d="m0 0-.021.086C-.022.104-.017.115 0 .12l1.307.281c.017.003.029-.005.031-.021l.018-.088c.005-.019-.001-.028-.018-.031L.032-.021C.013-.024.003-.018 0 0" style="fill:#07361b;fill-opacity:1;fill-rule:nonzero;stroke:none" transform="matrix(6.62144 0 0 -6.62144 160.075 86.858)"/></g><g style="fill:#07361b;fill-opacity:1"><path d="m0 0-.009.082c-.002.019.005.027.025.031l1.305.136c.027.003.042.003.046-.001.005-.004.009-.019.012-.045l.01-.087a.081.081 0 0 0-.002-.033.06.06 0 0 0-.02-.019L.233-.769l1.209.129c.017.001.027-.006.029-.023l.008-.082c.001-.018-.005-.027-.024-.028L.15-.911C.123-.916.106-.916.103-.91a.097.097 0 0 0-.011.044L.08-.751c-.002.01-.002.017.001.022.001.004.008.009.019.017l1.112.813L.028-.026C.013-.027.004-.019 0 0" style="fill:#07361b;fill-opacity:1;fill-rule:nonzero;stroke:none" transform="matrix(6.62144 0 0 -6.62144 160.76 90.401)"/></g><g style="fill:#07361b;fill-opacity:1"><path d="M0 0c-.002-.026-.003-.042-.009-.046-.005-.003-.019-.007-.047-.003L-.65-.02a.05.05 0 0 0-.035.015c-.008.009-.016.018-.02.027a1.084 1.084 0 0 0-.05.398c.007.103.027.2.064.285a.614.614 0 0 0 .384.358c.09.032.194.042.307.038a.775.775 0 0 0 .287-.067A.63.63 0 0 0 .645.65.85.85 0 0 0 .682.346 1.397 1.397 0 0 0 .663.163.901.901 0 0 0 .617 0C.611-.02.597-.026.578-.02l-.069.012C.493-.005.488.005.493.021a.678.678 0 0 1 .052.16C.554.23.56.287.563.354a.552.552 0 0 1-.144.43.521.521 0 0 1-.183.128.794.794 0 0 1-.502.023.522.522 0 0 1-.319-.29.646.646 0 0 1-.051-.23C-.644.274-.632.176-.6.115l.487-.023.019.374c.001.017.01.027.028.026L0 .489C.017.486.024.478.024.461Z" style="fill:#07361b;fill-opacity:1;fill-rule:nonzero;stroke:none" transform="matrix(6.62144 0 0 -6.62144 166.095 106.56)"/></g><g style="fill:#07361b;fill-opacity:1"><path d="m0 0-.23.723H-1l.634.459-.214.754.604-.475.628.424-.248-.716.574-.452H.247Z" style="fill:#07361b;fill-opacity:1;fill-rule:nonzero;stroke:none" transform="matrix(6.62144 0 0 -6.62144 162.584 128.792)"/></g><g style="fill:#07361b;fill-opacity:1"><path d="M0 0c-.021.01-.027.025-.02.045l.547 1.367-.229-.08a.041.041 0 0 0-.031 0c-.011.002-.018.006-.022.016l-.054.166a.026.026 0 0 0 .001.023c.008.01.013.016.025.02l.483.185c.004.002.011.002.02.002.009 0 .016 0 .021-.002l.121-.049c.028-.011.041-.021.045-.027.003-.008-.001-.029-.012-.059L.226-.055C.219-.074.205-.08.184-.072Z" style="fill:#07361b;fill-opacity:1;fill-rule:nonzero;stroke:none" transform="matrix(6.62144 0 0 -6.62144 62.201 186.047)"/></g><g style="fill:#07361b;fill-opacity:1"><path d="M0 0a.295.295 0 0 1-.253-.074.4.4 0 0 1-.131-.268c-.013-.113.001-.207.049-.277A.294.294 0 0 1-.113-.75a.334.334 0 0 1 .263.066c.07.059.111.135.122.237a.47.47 0 0 1-.055.301.306.306 0 0 1-.092.097A.228.228 0 0 1 0 0m-.426-1.645a.779.779 0 0 0-.158.034.645.645 0 0 0-.14.049c-.014.005-.018.017-.016.037l.033.195c.006.019.02.025.043.014a.582.582 0 0 1 .131-.049c.049-.012.1-.022.16-.03a.537.537 0 0 1 .224.018c.064.02.12.055.166.1a.591.591 0 0 1 .12.168c.033.066.06.138.081.214a.3.3 0 0 0-.066-.05.56.56 0 0 0-.191-.059.237.237 0 0 0-.099-.002.617.617 0 0 0-.41.221.546.546 0 0 0-.098.209.686.686 0 0 0-.009.258.668.668 0 0 0 .22.435.629.629 0 0 0 .211.112.605.605 0 0 0 .26.015.514.514 0 0 0 .42-.275c.087-.158.109-.391.073-.698a1.915 1.915 0 0 0-.093-.388.87.87 0 0 0-.181-.307.663.663 0 0 0-.282-.187.828.828 0 0 0-.399-.034" style="fill:#07361b;fill-opacity:1;fill-rule:nonzero;stroke:none" transform="matrix(6.62144 0 0 -6.62144 88.053 181.47)"/></g><g style="fill:#07361b;fill-opacity:1"><path d="M0 0a.33.33 0 0 1-.3-.389.437.437 0 0 1 .045-.154.384.384 0 0 1 .197-.197.32.32 0 0 1 .362.117c.052.08.072.178.056.293a.4.4 0 0 1-.116.262A.296.296 0 0 1 0 0m.101-1a.522.522 0 0 0-.476.16c-.123.135-.204.354-.243.66a1.87 1.87 0 0 0-.008.401.906.906 0 0 0 .099.341.68.68 0 0 0 .228.252.804.804 0 0 0 .377.131A1.014 1.014 0 0 0 .389.937C.403.936.41.926.41.908L.429.709C.429.687.416.678.391.686A.437.437 0 0 1 .25.699C.201.699.149.695.09.689A.516.516 0 0 1-.123.617.42.42 0 0 1-.26.479.638.638 0 0 1-.333.287a1.274 1.274 0 0 1-.026-.23c.012.021.03.045.053.066.022.023.049.041.077.061a.603.603 0 0 0 .185.072.602.602 0 0 0 .453-.111.606.606 0 0 0 .147-.178.713.713 0 0 0 .075-.248.83.83 0 0 0-.008-.26.598.598 0 0 0-.275-.379A.665.665 0 0 0 .101-1" style="fill:#07361b;fill-opacity:1;fill-rule:nonzero;stroke:none" transform="matrix(6.62144 0 0 -6.62144 111.1 185.917)"/></g><g style="fill:#07361b;fill-opacity:1"><path d="M0 0a.133.133 0 0 0-.008-.033c-.005-.008-.015-.012-.03-.018l-.186-.078c-.024-.01-.039-.012-.047-.01-.01.006-.013.018-.015.035l.013 1.719-.738-.297a.042.042 0 0 0-.055.026l-.065.16c-.01.025-.001.043.025.053l.985.394c.024.01.042.014.049.012.009-.004.014-.016.022-.031l.056-.141a.068.068 0 0 0 .002-.043Z" style="fill:#07361b;fill-opacity:1;fill-rule:nonzero;stroke:none" transform="matrix(6.62144 0 0 -6.62144 135.193 186.19)"/></g><g style="fill:#07361b;fill-opacity:1"><path d="M0 0a.049.049 0 0 0 0-.024c-.006-.01-.012-.017-.021-.019l-.197-.078a.036.036 0 0 0-.025.002.054.054 0 0 0-.021.018l-.452 1.166c-.004.007-.001.016.001.024.004.009.01.016.02.017l.198.078c.019.009.035.002.042-.018zm.401-.884a.041.041 0 0 0-.017-.015l-1.183-.46c-.06-.024-.108-.025-.142-.01-.038.017-.065.052-.084.105l-.179.459c-.023.058-.025.102-.008.133.019.031.056.058.112.081l1.138.445c.011.002.019.002.027-.003.009-.005.015-.01.018-.018l.061-.155c.007-.019 0-.034-.021-.041l-1-.39a.081.081 0 0 1-.027-.02c-.004-.009-.004-.019.003-.038l.099-.255c.007-.016.014-.028.021-.03.01-.003.019 0 .034.006L.29-.686c.013.005.022.007.028.005.008-.001.015-.008.021-.02l.058-.153a.053.053 0 0 0 .004-.03M-1.204.509c-.003.012-.008.02-.016.022-.005.003-.012 0-.024-.003L-1.673.36c-.012-.004-.017-.007-.02-.013-.002-.004-.001-.013.003-.025l.201-.514c.006-.018.01-.024.014-.028.006-.001.014 0 .026.007l.429.167a.042.042 0 0 1 .021.013c.004.004.002.015-.005.029zm.498-.631c-.015-.032-.051-.059-.108-.081l-.669-.261c-.063-.025-.112-.029-.145-.016-.032.014-.059.048-.081.108l-.267.68c-.022.057-.025.101-.009.131.014.032.048.058.105.081l.68.265c.059.022.102.028.135.017.03-.014.057-.048.082-.109L-.72.015c.025-.06.028-.105.014-.137" style="fill:#07361b;fill-opacity:1;fill-rule:nonzero;stroke:none" transform="matrix(6.62144 0 0 -6.62144 74.197 15.341)"/></g><g style="fill:#07361b;fill-opacity:1"><path d="M0 0a1.098 1.098 0 0 1-.187.051c-.059.012-.112.016-.158.012A.293.293 0 0 1-.459.035.115.115 0 0 1-.521-.03a.133.133 0 0 1 .003-.09.276.276 0 0 1 .07-.098.627.627 0 0 1 .125-.095c.051-.031.11-.058.176-.085.064-.023.127-.039.186-.05.06-.011.11-.013.157-.011a.426.426 0 0 1 .113.031.12.12 0 0 1 .062.066.123.123 0 0 1-.004.09.32.32 0 0 1-.067.095.538.538 0 0 1-.125.095C.125-.052.066-.024 0 0m-.224-.604a1.575 1.575 0 0 0-.285.138A1 1 0 0 0-.708-.3a.53.53 0 0 0-.097.182.314.314 0 0 0 .124.334.45.45 0 0 0 .197.073c.076.012.161.01.256-.003a1.46 1.46 0 0 0 .304-.08C.186.166.28.12.361.068a.817.817 0 0 0 .196-.166.423.423 0 0 0 .096-.18.29.29 0 0 0-.009-.184.31.31 0 0 0-.113-.149.49.49 0 0 0-.194-.076.871.871 0 0 0-.255.001 1.824 1.824 0 0 0-.306.082m.14-.958c.009.024.003.041-.019.048l-.808.3c-.012.004-.022.004-.027 0-.006-.005-.01-.013-.015-.023l-.089-.241a.044.044 0 0 1-.005-.027.056.056 0 0 1 .024-.013l.808-.3c.014-.004.023-.008.028-.004.005.001.01.008.016.021zm.051-.529c-.039-.014-.086-.011-.144.011l-1.047.389c-.067.023-.109.052-.123.085-.014.032-.011.078.011.135l.155.423c.021.059.053.092.089.109.038.01.087.008.144-.014L.099-1.34c.067-.027.109-.056.124-.087.015-.031.01-.076-.01-.138l-.157-.421c-.022-.058-.051-.093-.089-.105m.685.754a.058.058 0 0 0-.026-.001l-1.973.731a.037.037 0 0 0-.019.018.032.032 0 0 0 0 .027l.055.15c.009.023.025.031.045.022l1.972-.731c.009-.001.014-.008.02-.018a.039.039 0 0 0 .001-.028l-.056-.15c0-.008-.007-.013-.019-.02" style="fill:#07361b;fill-opacity:1;fill-rule:nonzero;stroke:none" transform="matrix(6.62144 0 0 -6.62144 130.433 10.401)"/></g><g style="fill:#07361b;fill-opacity:1"><path d="m0 0-.319.852L-.46.8C-.485.789-.493.771-.482.741l.287-.764c.01-.031.031-.039.055-.031zm-.262-.355c-.036.014-.066.056-.092.122l-.142.382L-.707.07l.32-.854c.004-.008.004-.017-.001-.027-.003-.007-.009-.015-.016-.017l-.15-.058c-.007-.003-.017-.001-.027.002-.011.007-.018.012-.021.021l-.74 1.967c-.006.009-.004.018.001.027a.033.033 0 0 0 .02.017l.149.056c.022.01.036.001.043-.019l.323-.854.21.079-.143.382c-.026.067-.032.118-.017.15.014.034.051.06.11.084l.611.229c.007.005.014.002.022-.001a.03.03 0 0 0 .015-.018l.077-.198a.096.096 0 0 0 0-.024.032.032 0 0 0-.017-.019L-.116.927l.32-.85.183.069A.055.055 0 0 0 .409.145C.418.141.422.136.426.127l.076-.2C.505-.081.503-.09.501-.098.497-.105.492-.112.483-.115l-.618-.232c-.051-.019-.094-.022-.127-.008m-1.032.353a.855.855 0 0 1-.182.321c-.066.062-.127.082-.179.064-.053-.022-.085-.077-.094-.167a.825.825 0 0 1 .071-.362.884.884 0 0 1 .185-.32c.066-.06.127-.082.179-.06.054.018.085.073.094.164a.818.818 0 0 1-.074.36m.078-.784c-.123-.046-.24-.022-.356.078-.115.096-.212.26-.3.489-.087.227-.12.417-.097.565.02.149.094.247.219.295.121.045.239.019.354-.078.116-.097.215-.26.3-.489.089-.23.121-.419.098-.568-.023-.15-.094-.245-.218-.292" style="fill:#07361b;fill-opacity:1;fill-rule:nonzero;stroke:none" transform="matrix(6.62144 0 0 -6.62144 186.353 70.796)"/></g><g style="fill:#07361b;fill-opacity:1"><path d="M0 0c-.011.039 0 .066.033.08l.14.067C.202.161.226.149.239.115c.053-.132.119-.253.2-.365.083-.109.178-.211.286-.3.046-.04.094-.073.142-.108a2.116 2.116 0 0 1 .505-.248.034.034 0 0 0 .019-.018c.005-.011.006-.02.002-.027l-.082-.198a.025.025 0 0 0-.019-.015.028.028 0 0 0-.028 0 3.52 3.52 0 0 0-.252.104 4.858 4.858 0 0 0-.218.119c-.076.012-.156.017-.239.012a1.713 1.713 0 0 1-.481-.1 1.623 1.623 0 0 1-.195-.092c-.027-.019-.052-.01-.072.021l-.078.14c-.008.011-.011.023-.008.038a.059.059 0 0 0 .029.034c.043.028.094.05.152.076.057.026.118.047.181.065.063.018.126.033.189.045.065.011.124.018.18.019a2.072 2.072 0 0 0-.38.518A1.2 1.2 0 0 0 0 0m-.092-2.069a.028.028 0 0 0-.001.022l.118.308-1.073.411c-.019.009-.025.021-.017.04l.076.201c.008.019.021.026.041.018l2.084-.798c.019-.007.025-.023.017-.041l-.077-.2c-.006-.019-.02-.028-.04-.018l-.795.304-.117-.308C.12-2.137.117-2.143.108-2.148a.04.04 0 0 0-.024-.003l-.158.061c-.009.003-.015.012-.018.021" style="fill:#07361b;fill-opacity:1;fill-rule:nonzero;stroke:none" transform="matrix(6.62144 0 0 -6.62144 179.144 122.52)"/></g><g style="fill:#07361b;fill-opacity:1"><path d="M0 0c.008-.003.014-.011.017-.02l.472-1.171c.028-.068.033-.118.018-.151-.014-.033-.051-.06-.11-.085l-.473-.19a.039.039 0 0 0-.028.001c-.009.004-.016.008-.019.016l-.079.194a.033.033 0 0 0 .001.029.03.03 0 0 0 .019.019l.384.155c.015.005.024.013.025.02.001.007 0 .02-.006.034l-.42 1.042a.041.041 0 0 0 0 .027c.003.009.009.017.016.02l.16.063C-.016.007-.008.007 0 0m-.126-1.931a.086.086 0 0 0 .022-.033c.005-.015.002-.03-.011-.046l-.083-.109a.038.038 0 0 0-.034-.022.056.056 0 0 0-.042.016 1.782 1.782 0 0 1-.756.398.957.957 0 0 1-.232.026.094.094 0 0 1-.042-.009c-.009-.005-.009-.019.001-.045l.223-.551a.037.037 0 0 0 0-.029.046.046 0 0 0-.02-.016l-.151-.059c-.02-.009-.035-.001-.046.02l-.284.709a.263.263 0 0 0-.023.162c.011.04.043.068.094.08.019.002.036.007.055.008.018.004.034.004.05.005.063.006.131.005.202-.001.072-.01.145-.021.22-.04.019.04.038.081.052.128a2.384 2.384 0 0 1 .079.281l.021.121c.004.038.022.053.06.047l.143-.028c.032-.003.046-.025.042-.062a1.43 1.43 0 0 0-.057-.268 1.532 1.532 0 0 0-.05-.154 1.488 1.488 0 0 0-.058-.144 2.014 2.014 0 0 0 .625-.385M-.565-.295c.018.006.033.001.04-.017l.081-.2c.007-.018.002-.035-.021-.041l-1.465-.593c-.019-.006-.035-.001-.042.019l-.081.199c-.008.02-.002.032.019.04z" style="fill:#07361b;fill-opacity:1;fill-rule:nonzero;stroke:none" transform="matrix(6.62144 0 0 -6.62144 21.535 124.51)"/></g><g style="fill:#07361b;fill-opacity:1"><path d="M0 0c.02-.006.025-.02.019-.04l-.072-.203C-.061-.262-.075-.27-.094-.262l-2.1.752c-.021.007-.027.021-.021.039l.075.204c.005.02.019.028.038.018zm-.741-.213A.066.066 0 0 0-.736-.25a1.85 1.85 0 0 0-.028-.162A2.822 2.822 0 0 0-.805-.6C-.821-.666-.84-.732-.859-.8a2.382 2.382 0 0 0-.059-.191c-.02-.062-.038-.118-.057-.168a1.187 1.187 0 0 0-.049-.124c-.031-.067-.061-.107-.094-.124-.031-.016-.076-.015-.132.006l-.548.197c-.055.018-.089.045-.104.081-.015.034-.012.08.007.132l.195.542c.003.012.003.02.002.027-.002.006-.011.012-.026.018l-.319.113c-.012.005-.02.006-.025.005-.006-.002-.012-.009-.019-.026l-.234-.653c-.002-.01-.008-.015-.017-.02a.028.028 0 0 0-.023-.004l-.158.057c-.007.002-.012.008-.015.018-.004.009-.004.016 0 .022l.283.794c.023.065.05.103.082.114.03.009.072.005.127-.016l.508-.18c.056-.021.091-.047.103-.077.015-.031.01-.077-.012-.136l-.192-.54c-.008-.021-.003-.035.02-.042l.359-.129c.017-.006.028-.006.036-.001.007.002.016.012.022.029.025.065.052.136.077.211.022.074.046.15.066.225.022.078.041.151.058.227.015.072.027.142.037.209a.046.046 0 0 0 .015.03c.009.009.02.011.035.009l.145-.028c.013-.002.021-.008.024-.02" style="fill:#07361b;fill-opacity:1;fill-rule:nonzero;stroke:none" transform="matrix(6.62144 0 0 -6.62144 24.671 70.214)"/></g><g style="fill:#07361b;fill-opacity:1"><path d="M0 0h-1.022v-1.023h-3.482V0h-1.025v3.478h1.025V4.5h3.482V3.478H0Zm1.293 3.478c-.483.24-.338.795-.338.795.338.812 1.18.365 1.18.365.64-.304.293-1.191.293-1.191h.937v2.73h-.967v-.561c-.379.387-1.116.468-1.116.468H-6.25c-2.387-.593-2.641-2.47-2.641-2.47C-9.467.802-6.819.003-6.819.003c.478-.245.337-.795.337-.795-.337-.818-1.182-.371-1.182-.371-.642.309-.298 1.196-.298 1.196h-.928v-2.732h.962v.553c.385-.38 1.115-.465 1.115-.465H.726c2.385.593 2.639 2.475 2.639 2.475.578 2.808-2.072 3.614-2.072 3.614" style="fill:#07361b;fill-opacity:1;fill-rule:nonzero;stroke:none" transform="matrix(6.62144 0 0 -6.62144 117.578 110.79)"/></g><g style="fill:#07361b;fill-opacity:1"><path d="M0 0c-4.886 0-8.861-3.976-8.861-8.861 0-4.888 3.975-8.864 8.861-8.864 4.888 0 8.863 3.976 8.863 8.864C8.863-3.976 4.888 0 0 0m0-17.893c-4.978 0-9.027 4.052-9.027 9.032C-9.027-3.884-4.978.165 0 .165c4.98 0 9.028-4.049 9.028-9.026 0-4.98-4.048-9.032-9.028-9.032" style="fill:#07361b;fill-opacity:1;fill-rule:nonzero;stroke:none" transform="matrix(6.62144 0 0 -6.62144 99.279 40.599)"/></g><g style="fill:#07361b;fill-opacity:1"><path d="m0 0 2.171-2.171a14.751 14.751 0 0 1 4.1 10.235c0 3.833-1.455 7.463-4.1 10.233L0 16.127a11.7 11.7 0 0 0 3.204-8.063C3.204 5.051 2.068 2.192 0 0m2.174-2.408L-.23-.003l.055.06a11.532 11.532 0 0 1 3.213 8.007 11.54 11.54 0 0 1-3.213 8.008l-.055.059 2.404 2.402.059-.059a14.92 14.92 0 0 0 4.204-10.41c0-3.906-1.493-7.602-4.204-10.411Z" style="fill:#07361b;fill-opacity:1;fill-rule:nonzero;stroke:none" transform="matrix(6.62144 0 0 -6.62144 155.943 152.671)"/></g><g style="fill:#07361b;fill-opacity:1"><path d="M0 0a14.748 14.748 0 0 1-4.099-10.233c0-3.834 1.455-7.464 4.099-10.236l2.17 2.171a11.709 11.709 0 0 0-3.204 8.065c0 3.008 1.138 5.871 3.204 8.062zm-.001-20.706-.061.061a14.916 14.916 0 0 0-4.203 10.412c0 3.903 1.492 7.601 4.203 10.409l.061.062 2.404-2.405-.057-.059a11.54 11.54 0 0 1-3.213-8.007c0-2.996 1.14-5.841 3.213-8.01l.057-.058z" style="fill:#07361b;fill-opacity:1;fill-rule:nonzero;stroke:none" transform="matrix(6.62144 0 0 -6.62144 28.24 31.513)"/></g><g style="fill:#07361b;fill-opacity:1"><path d="M0 0a14.749 14.749 0 0 1 10.234-4.098c3.834 0 7.466 1.453 10.235 4.098L18.3 2.172a11.71 11.71 0 0 0-8.066-3.203 11.698 11.698 0 0 0-8.062 3.203zm10.234-4.266c-3.902 0-7.6 1.495-10.409 4.205l-.06.059 2.404 2.406.058-.058a11.546 11.546 0 0 1 8.007-3.213c2.995 0 5.839 1.142 8.009 3.213l.058.058 2.406-2.406-.062-.059a14.92 14.92 0 0 0-10.411-4.205" style="fill:#07361b;fill-opacity:1;fill-rule:nonzero;stroke:none" transform="matrix(6.62144 0 0 -6.62144 31.513 170.321)"/></g><g style="fill:#07361b;fill-opacity:1"><path d="M0 0c3.011 0 5.873-1.138 8.065-3.203l2.169 2.169A14.75 14.75 0 0 1 0 3.065a14.757 14.757 0 0 1-10.234-4.099l2.171-2.169A11.71 11.71 0 0 0 0 0m-8.065-3.435-2.405 2.404.061.058A14.917 14.917 0 0 0 0 3.231c3.906 0 7.602-1.493 10.412-4.205l.061-.057-2.407-2.404-.057.054A11.54 11.54 0 0 1 0-.167c-2.995 0-5.839-1.14-8.008-3.214z" style="fill:#07361b;fill-opacity:1;fill-rule:nonzero;stroke:none" transform="matrix(6.62144 0 0 -6.62144 99.279 21.394)"/></g><g style="fill:#07361b;fill-opacity:1"><path d="m0 0-.163.58c.93.287 1.272 1.047 1.395 1.487H-.081v.604h1.98l-.025-.328C1.869 2.269 1.71.527 0 0" style="fill:#07361b;fill-opacity:1;fill-rule:nonzero;stroke:none" transform="matrix(6.62144 0 0 -6.62144 90.569 101.983)"/></g><path d="M-.898 130.25h-1.82v-8.715h1.82z" style="fill:#07361b;fill-opacity:1;fill-rule:nonzero;stroke:none;stroke-width:2.92571" transform="translate(110.398 -190.76) scale(2.26319)"/><path d="M.823 126.514h-2.627v-1.87H.823z" style="fill:#07361b;fill-opacity:1;fill-rule:nonzero;stroke:none;stroke-width:2.92571" transform="translate(110.398 -190.76) scale(2.26319)"/><g style="fill:#07361b;fill-opacity:1"><path d="M0 0h-2.771v1.178h.583V.704H0Z" style="fill:#07361b;fill-opacity:1;fill-rule:nonzero;stroke:none" transform="matrix(6.62144 0 0 -6.62144 109.062 110.718)"/></g></svg>