<svg xmlns="http://www.w3.org/2000/svg" width="167.38635mm" height="167.38853mm" viewBox="0 0 167.38635 167.38853"><path d="M52.575 165.224c0 12.25-9.93 22.18-22.18 22.18-12.249 0-22.18-9.93-22.18-22.18s9.931-22.18 22.18-22.18c12.25 0 22.18 9.93 22.18 22.18" style="fill:#fff;fill-opacity:1;fill-rule:nonzero;stroke:none;stroke-width:.352778" transform="translate(-10.308 -433.006) scale(3.0959)"/><path d="M30.363 184.92c-9.953 0-18.022-8.068-18.022-18.022 0-9.954 8.069-18.022 18.022-18.022 9.954 0 18.022 8.068 18.022 18.022 0 9.954-8.068 18.023-18.022 18.023m0-45.057c-14.93 0-27.034 12.104-27.034 27.034s12.104 27.034 27.034 27.034 27.034-12.104 27.034-27.034-12.104-27.034-27.034-27.034" style="fill:#57444e;fill-opacity:1;fill-rule:nonzero;stroke:none;stroke-width:.352778" transform="translate(-10.308 -433.006) scale(3.0959)"/><path d="M37.645 180.546a.348.348 0 0 1-.241.082.366.366 0 0 1-.235-.079.244.244 0 0 1-.09-.194.24.24 0 0 1 .084-.194.36.36 0 0 1 .246-.078c.1 0 .18.025.239.082a.24.24 0 0 1 .084.193.235.235 0 0 1-.088.188m-.385-1.025a.216.216 0 0 1 .153-.057c.06 0 .11.02.151.054.04.038.06.086.06.147 0 .064-.02.11-.058.143-.035.037-.088.053-.156.053a.211.211 0 0 1-.153-.055.19.19 0 0 1-.057-.147c0-.057.02-.102.06-.138m.453.443a.507.507 0 0 0 .131-.149.276.276 0 0 0 .042-.15.378.378 0 0 0-.138-.303.504.504 0 0 0-.34-.12.498.498 0 0 0-.339.124.376.376 0 0 0-.097.448c.028.052.07.101.127.15a.555.555 0 0 0-.217.173.399.399 0 0 0-.058.22c0 .136.058.255.174.355a.603.603 0 0 0 .402.144.62.62 0 0 0 .418-.144.467.467 0 0 0 .174-.368.39.39 0 0 0-.063-.215.553.553 0 0 0-.216-.165M32.453 179.483h.306v1.353h.276v-1.554h-.582zM34.639 180.028a.392.392 0 0 1-.258.092.363.363 0 0 1-.253-.09.29.29 0 0 1-.096-.229c0-.097.034-.175.102-.234a.359.359 0 0 1 .252-.087.37.37 0 0 1 .253.09.312.312 0 0 1 .102.242.28.28 0 0 1-.102.216m.176-.624a.646.646 0 0 0-.198-.118.65.65 0 0 0-.231-.044.653.653 0 0 0-.31.072.571.571 0 0 0-.22.207.588.588 0 0 0-.07.14.584.584 0 0 0-.02.147c0 .144.054.269.164.371.11.104.24.154.396.154h.099l-.378.498h.304l.38-.508c.093-.121.153-.212.183-.268a.592.592 0 0 0 .079-.277.487.487 0 0 0-.046-.197.592.592 0 0 0-.132-.177M35.398 179.5h.764l-.675 1.334h.293l.65-1.32v-.235h-1.032zM23.616 180.133a.651.651 0 0 0-.215-.07 1.65 1.65 0 0 1-.201-.043.658.658 0 0 1-.13-.05c-.04-.02-.057-.056-.056-.111 0-.036.022-.07.061-.104.037-.037.104-.055.203-.055.12 0 .201.028.24.075.04.048.059.09.053.126h.239c.006-.092-.037-.183-.123-.279-.084-.092-.217-.139-.395-.139a.58.58 0 0 0-.377.115c-.093.077-.142.163-.146.26a.259.259 0 0 0 .07.21.452.452 0 0 0 .197.12c.055.02.123.034.2.047.078.015.15.035.22.064.046.022.086.05.11.077.027.024.038.056.03.094a.173.173 0 0 1-.092.126.411.411 0 0 1-.205.04c-.105 0-.187-.021-.244-.07a.279.279 0 0 1-.098-.182h-.24a.54.54 0 0 0 .127.298c.082.117.236.174.464.174a.626.626 0 0 0 .378-.115.379.379 0 0 0 .17-.292c.003-.084-.017-.149-.066-.196a.707.707 0 0 0-.174-.12M24.069 180.807h.233v-1.293h-.233zM24.069 179.26h.233v-.24h-.233zM25.347 179.483a.539.539 0 0 0-.302.045.938.938 0 0 0-.203.14v-.142h-.234v1.28h.234v-.723c0-.1.037-.187.104-.26a.351.351 0 0 1 .254-.108c.1 0 .172.028.224.08a.364.364 0 0 1 .073.24v.77h.235v-.866a.552.552 0 0 0-.086-.28c-.06-.102-.162-.16-.299-.176M26.575 179.687c.11 0 .19.027.246.082a.455.455 0 0 1 .096.165h.263a.592.592 0 0 0-.605-.459.608.608 0 0 0-.477.193.718.718 0 0 0-.176.497c0 .201.059.364.176.495.117.129.276.193.477.193a.586.586 0 0 0 .605-.456h-.265a.343.343 0 0 1-.34.247.344.344 0 0 1-.284-.136.528.528 0 0 1-.105-.343c0-.142.034-.257.105-.344a.347.347 0 0 1 .284-.134M27.55 180.045c.016-.119.053-.211.12-.27a.38.38 0 0 1 .263-.088c.111 0 .202.033.269.098a.383.383 0 0 1 .11.26zm.844-.386a.657.657 0 0 0-.461-.184.61.61 0 0 0-.475.192.71.71 0 0 0-.18.496c0 .2.064.364.185.497a.634.634 0 0 0 .473.193c.187 0 .326-.045.418-.135a.707.707 0 0 0 .179-.279h-.274a.31.31 0 0 1-.099.135c-.051.047-.127.07-.227.07a.4.4 0 0 1-.387-.402h1.035c.005-.268-.056-.462-.187-.583" style="fill:#57444e;fill-opacity:1;fill-rule:nonzero;stroke:none;stroke-width:.352778" transform="translate(-10.308 -433.006) scale(3.0959)"/><path d="M42.86 171.894c-.515.95-2.094 1.154-3.583.975a8.531 8.531 0 0 1-.71-.115 8.7 8.7 0 0 1 .005.706c-.053 1.555-.531 3.19-1.58 3.56-1.631.575-4.031-2.13-4.606-3.765a3.147 3.147 0 0 1 2.24-4.102 3.09 3.09 0 0 1 .685-.081c.027-.228.077-.455.155-.676a3.148 3.148 0 0 1 .25-.537c.115-.203.253-.392.408-.555a3.135 3.135 0 0 1-.394-.564 3.11 3.11 0 0 1-.35-1.032 3.097 3.097 0 0 1 .14-1.517c.09-.265.22-.515.375-.742-.272.059-.547.082-.826.073a3.15 3.15 0 0 1-1.85-.717 3.148 3.148 0 0 1-1.11-2.853 3.192 3.192 0 0 1-1.05.443c-.216.046-.44.076-.671.076-.163 0-.325-.016-.48-.041a3.006 3.006 0 0 1-.53-.13 3.223 3.223 0 0 1-.71-.348c.035.26.04.524.007.784a3.127 3.127 0 0 1-1.116 2.07 3.143 3.143 0 0 1-1.849.716 3.335 3.335 0 0 1-.829-.073c.16.227.287.477.378.742.169.474.22.992.139 1.52a3.395 3.395 0 0 1-.03.174 3.204 3.204 0 0 1-.319.855c-.03.051-.055.101-.085.148a3.304 3.304 0 0 1-.307.416c.153.163.289.352.406.555.016.025.028.05.043.075.083.15.15.304.206.462.077.22.126.448.155.676a3.135 3.135 0 0 1 1.006.175 3.149 3.149 0 0 1 1.92 4.008c-.573 1.636-2.974 4.34-4.607 3.766-1.05-.371-1.525-2.006-1.58-3.561-.01-.24-.01-.476.004-.706a8.492 8.492 0 0 1-.709.115c-1.49.18-3.07-.026-3.585-.975-.557-1.03.29-2.676 1.37-3.89.158-.18.323-.348.486-.504a8.125 8.125 0 0 1-.6-.4c-1.132-.82-2.044-1.917-1.836-2.901.308-1.444 2.94-2.17 4.758-2.133.317.006.61.035.863.09.01 0 .017.004.026.006a6.003 6.003 0 0 1-.459-.777c-.804-1.604-1.287-4.017-.214-4.903.942-.78 2.834-.18 4.25.716.261.162.502.334.719.51a3.395 3.395 0 0 1 .011-.874c.222-1.806 1.553-4.594 3.131-4.594 1.578 0 2.858 2.788 3.07 4.594.02.173.03.34.03.492 0 .13-.007.256-.021.381.217-.175.457-.347.715-.51 1.42-.894 3.31-1.496 4.254-.715 1.073.886.588 3.299-.214 4.903-.146.29-.303.553-.46.777.006-.002.016-.006.027-.006.249-.055.545-.084.86-.09 1.82-.038 4.452.689 4.761 2.133.207.984-.705 2.08-1.837 2.901a7.912 7.912 0 0 1-.603.4c.166.156.331.323.49.504 1.08 1.214 1.927 2.86 1.367 3.89m-8.16-6.204a.05.05 0 0 1 .002.01l-2.04-.072c-1.719 0-1.562-1.78-1.562-1.78l-.077-2.762.056-.009c.125-.025.25-.052.374-.088a3.81 3.81 0 0 0 1.338 2.33c.6.5 1.305.783 2.024.859-.136.48-.178.99-.114 1.512m-6.587-.063-2.038.073.002-.006a3.888 3.888 0 0 0-.114-1.516 3.768 3.768 0 0 0 2.021-.858 3.804 3.804 0 0 0 1.34-2.33c.14.041.282.074.428.098l-.077 2.76s.157 1.78-1.562 1.78m15.994-1.606c-.357-1.681-2.99-2.607-5.074-2.66.81-1.864 1.1-4.4-.152-5.437-1.107-.918-3.138-.423-4.746.499-.362-2.115-1.903-4.875-3.748-4.875-1.845 0-3.383 2.76-3.748 4.875-1.61-.922-3.64-1.417-4.745-.499-1.25 1.038-.964 3.573-.15 5.437-2.087.053-4.721.979-5.076 2.66-.26 1.228.745 2.582 2.04 3.576-1.221 1.408-2.105 3.328-1.414 4.6.64 1.18 2.477 1.52 4.213 1.355.088 1.792.716 3.652 2.017 4.113 1.996.7 4.816-2.157 5.517-4.157a3.848 3.848 0 0 0-2.345-4.897 4.062 4.062 0 0 0-.67-.169 3.727 3.727 0 0 0-.332-.83c-.056-.11-.124-.216-.19-.32a3.513 3.513 0 0 0 .215-.392l2.394.083s1.538-.073 1.538 1.428l-.283 12.445h2.038l-.282-12.445c0-1.5 1.537-1.428 1.537-1.428l2.392-.083c.004.005.005.01.008.016.064.13.135.256.211.377-.067.103-.132.209-.191.32a3.761 3.761 0 0 0-.332.83c-.225.037-.45.091-.67.168a3.845 3.845 0 0 0-2.342 4.898c.7 2 3.518 4.856 5.515 4.156 1.3-.46 1.93-2.32 2.019-4.113 1.73.166 3.57-.174 4.212-1.354.691-1.272-.193-3.193-1.412-4.6 1.292-.995 2.299-2.349 2.036-3.576" style="fill:#57444e;fill-opacity:1;fill-rule:nonzero;stroke:none;stroke-width:.352778" transform="translate(-10.308 -433.006) scale(3.0959)"/><path d="M40.728 168.447a6.075 6.075 0 0 0-.53-.518 3.832 3.832 0 0 0-.673-.486 2.076 2.076 0 0 0-.193-.095c.3-.101.626-.257.952-.443a6.697 6.697 0 0 0 1.128-.803c.726-.642 1.12-1.299 1.028-1.724-.089-.42-.716-.863-1.64-1.149-.928-.29-2.07-.384-2.78-.233h-.006a2.215 2.215 0 0 0-1.378.938 2.293 2.293 0 0 0-.344 1.76l.01.037c.033.154.082.3.147.44.098.21.22.398.369.566.039.045.08.084.123.124.203.197.439.358.698.467a2.25 2.25 0 0 0-.828.56c-.131.144-.254.298-.35.478l-.039.084a2.291 2.291 0 0 0-.22.74c-.04.335-.004.67.1.985a2.216 2.216 0 0 0-.964-.201 2.11 2.11 0 0 0-.67.109c-.021.005-.044.01-.064.018a2.27 2.27 0 0 0-1.399 2.882c.24.689.917 1.618 1.645 2.263.728.638 1.43.945 1.837.802.407-.142.761-.823.93-1.778.056-.323.088-.666.095-1.011.007-.251 0-.5-.018-.74a4.483 4.483 0 0 0-.186-.995c.27.125.6.232.962.313.233.057.48.1.729.13.297.033.597.052.885.049.967-.014 1.694-.257 1.9-.636.206-.381.018-1.125-.499-1.946a6.953 6.953 0 0 0-.756-.987M36.976 161.819c.045-.053.089-.111.131-.173.415-.59.794-1.54.947-2.409.173-.953.073-1.716-.259-1.991-.333-.273-1.097-.232-1.998.12a7.07 7.07 0 0 0-1.723.98c-.241.19-.45.385-.604.572-.294.358-.46.783-.501 1.22-.063.722.22 1.47.824 1.969a2.272 2.272 0 0 0 1.929.473 2.226 2.226 0 0 0 1.254-.761M27.305 158.918a3.764 3.764 0 0 0-.602-.571 7.024 7.024 0 0 0-1.72-.981c-.902-.352-1.669-.393-2-.12-.332.275-.432 1.038-.261 1.991.156.868.536 1.819.948 2.41.046.06.09.119.132.172.33.403.776.658 1.254.761a2.286 2.286 0 0 0 2.75-2.443 2.201 2.201 0 0 0-.501-1.22M24.577 169.19a2.217 2.217 0 0 0-.18-.653l-.042-.087c-.013-.028-.023-.056-.04-.085a2.359 2.359 0 0 0-.346-.477 2.272 2.272 0 0 0-.828-.56c.26-.11.497-.272.7-.472.04-.039.082-.076.117-.119a2.27 2.27 0 0 0 .528-1.043 2.287 2.287 0 0 0-.343-1.76 2.228 2.228 0 0 0-1.38-.938h-.003c-.71-.15-1.853-.058-2.78.233-.925.285-1.554.73-1.641 1.149-.09.425.302 1.082 1.027 1.724a7.287 7.287 0 0 0 1.127.803c.326.186.655.338.953.443-.065.029-.128.059-.191.095a3.637 3.637 0 0 0-.674.486 6.924 6.924 0 0 0-1.288 1.505c-.516.82-.707 1.565-.5 1.946.206.38.934.621 1.902.636.288.003.585-.016.885-.05.248-.03.495-.072.728-.13.361-.08.69-.187.96-.312a4.27 4.27 0 0 0-.18.995 7.235 7.235 0 0 0 .071 1.751c.168.955.525 1.636.932 1.778.408.143 1.11-.164 1.835-.802.73-.645 1.409-1.574 1.647-2.263.412-1.175-.217-2.465-1.398-2.882-.02-.009-.044-.013-.065-.019a2.119 2.119 0 0 0-.667-.109 2.207 2.207 0 0 0-.965.202c.105-.315.14-.65.1-.984M30.388 153.26c-.429 0-.991.524-1.466 1.37-.475.848-.807 1.952-.807 2.68a2.256 2.256 0 0 0 1.093 1.923c.222.136.464.233.723.285a2.244 2.244 0 0 0 1.105-.048c.188-.057.366-.136.532-.237a2.244 2.244 0 0 0 1.094-1.924c0-.727-.332-1.831-.807-2.679-.475-.846-1.036-1.37-1.467-1.37" style="fill:#9e0044;fill-opacity:1;fill-rule:nonzero;stroke:none;stroke-width:.352778" transform="translate(-10.308 -433.006) scale(3.0959)"/><path d="M54.284 166.823a1.518 1.518 0 1 1-3.037.001 1.518 1.518 0 0 1 3.037 0M9.296 166.823a1.519 1.519 0 1 1-3.038.001 1.519 1.519 0 0 1 3.038 0M10.659 178.191l.023.048.048-.024 2.423-1.225.048-.024-.024-.047-.305-.602-.023-.047-.048.024-2.423 1.224-.048.025.025.048zM8.718 174.37l-.01.025.016.023c.541.838 1.206 1.327 1.98 1.455.794.13 1.494-.244 1.523-.26l.093-.047.048-.024-.025-.047-1.255-2.484-.025-.048-.047.024-.422.214-.048.024.024.048.892 1.763-.016.007c-.05.028-1.202.617-2.453-1.154l-.057-.082-.037.094zM8.697 178.349l-1.002-1.982c-.005-.01-.02-.039-.02-.048.002-.001.007-.01.035-.022l.77-.39 1.026 2.032zm-.095-3.43-1.802.911 1.76 3.482 1.802-.91zM18.69 184.893l-.031.043-.28.385-.032.043.043.032.686.5-.915 1.255-.031.044.043.031.544.397.043.031.031-.042 2.14-2.934.03-.044-.042-.03-.543-.398-.044-.031-.031.043-.881 1.208-.687-.5z" style="fill:#fff;fill-opacity:1;fill-rule:nonzero;stroke:none;stroke-width:.352778" transform="translate(-10.308 -433.006) scale(3.0959)"/><path d="m15.584 184.384.005.027.024.012c.03.014.694.318 1.631-.056-.07 1.008.424 1.546.446 1.57l.018.02.028-.005.544-.066.093-.012-.059-.074c-.776-.982-.24-1.849-.164-1.96l.05-.069.832.607.043.03.031-.042.278-.38.03-.043-.042-.032-.832-.607.268-.365.03-.043-.044-.032-.59-.43-.043-.032-.031.043-.266.365-.83-.604-.043-.031-.032.042-.278.38-.03.044.042.031.828.603-.04.053c-.033.045-.692.922-1.927.459l-.089-.034.018.093zM15.677 186.403c-.023-.017-.027-.039-.01-.062l.808-1.108-.643-.47-.887 1.216-.014.022h-.002l-.271.373 3.288 2.4.341-.467zM52.162 174.95l.05.02.02-.048.27-.635.022-.05-.05-.02-2.88-1.233-.049-.02-.021.049-1.528 3.575-.021.05.048.02.502.214.049.021.02-.049 1.237-2.89zm1.715-.463-.506-.217-.048-.02-.021.048-.673 1.572-1.788-.766-.048-.02-.022.048-.258.603-.021.049.05.02 1.788.766-.186.437-1.79-.765-.048-.02-.022.048-.258.603-.02.049.049.021 1.788.765-.388.908-.02.049.049.02.504.217.049.021.021-.05 1.847-4.317.02-.048zM45.444 184.805l-.032-.042-.043.031-3.311 2.459-.043.032.031.043.281.379.033.042.042-.032 2.705-2.009.795 1.072.033.042.042-.031.564-.42.042-.03-.032-.044zm-3.765.891c-.197-.266-.167-.625.069-.8.235-.175.587-.1.785.167.198.266.168.624-.068.8-.235.174-.588.1-.786-.167m1.136.638c.586-.435.745-1.218.355-1.744a1.125 1.125 0 0 0-.784-.44l.58-.43.042-.03-.03-.044-.28-.375-.031-.042-.043.032-1.017.754-.271-.365-.033-.043-.043.031-.577.43-.043.031.032.043.272.366-1.015.753-.043.032.03.043.28.374.032.044.042-.033.58-.43c-.055.307.005.622.194.877.39.527 1.185.6 1.77.165m1.73-1.433.032.044.043-.032.54-.401.042-.031-.032-.044-.67-.904.567-.422.042-.031-.032-.044-.312-.421-.032-.044-.043.033-.568.422-.599-.807-.032-.043-.042.031-.54.401-.044.032.032.043zM31.785 188.355h-.365v-1.613h-.746v3.12h-1.995c-.048 0-.073-.024-.073-.073v-2.157h1.582v-.58H27.82v3.39h2.854v1.495h.746v-3.005h.365v3.005h.745v-5.195h-.745zM21.786 147.966l-.05-.093-.095.05-1.553.844-.642-1.183 1.379-.749.094-.051-.051-.094-.221-.406-.052-.094-.093.051-1.378.748-.55-1.013 1.468-.798.094-.051-.05-.094-.225-.412-.05-.094-.095.051-2.058 1.118-.095.052.051.093 2.064 3.803.052.094.094-.051 2.143-1.164.094-.05-.05-.095zM53.214 159.181l.042.1.099-.042.438-.183.099-.041-.041-.099-1.235-2.956-.04-.1-.099.042-.438.183-.1.042.042.098.465 1.116-3.456 1.442-.098.041.041.1.217.52.042.1.098-.042 3.457-1.442zM28.886 142.272l-.014-.106-.106.014-.522.07-.106.014.014.106.24 1.8c.06.45.12.854.198 1.264a14.844 14.844 0 0 0-.68-.88l-1.656-1.988-.039-.045-.058.008-.611.081-.106.015.014.105.572 4.29.015.105.106-.014.522-.07.106-.013-.015-.107-.244-1.832c-.069-.51-.127-.922-.193-1.313.197.28.437.589.735.948l1.652 1.994.038.046.058-.007.56-.075.106-.014-.013-.107zM16.638 146.43l-.066-.084-.084.066-.445.348-.084.066.066.084 1.049 1.342-1.48 1.157-1.049-1.34-.066-.086-.084.067-.445.348-.084.065.066.085 2.665 3.408.066.084.085-.066.444-.348.085-.066-.066-.084-1.184-1.514 1.48-1.157 1.184 1.513.066.084.083-.066.446-.347.084-.066-.066-.085zM52.394 155.564l-.05-.095-.257-.503-.05-.095-.095.05-3.846 1.98-.095.05.048.094.259.503.049.094.094-.048 3.848-1.981zM7.614 157.452l-.1-.04-.038.1-.21.525-.04.1.1.039 4.022 1.596.1.04.04-.1.207-.525.04-.1-.1-.039zM24.392 146.657a1.101 1.101 0 0 1-.663.57c-.791.268-1.472-.376-1.733-1.151-.27-.8-.167-1.735.673-2.02.83-.28 1.482.404 1.737 1.157.18.535.175 1.06-.014 1.444m-1.912-3.243c-.534.18-.942.53-1.179 1.01-.27.547-.29 1.229-.057 1.92.226.67.642 1.182 1.17 1.443.466.23.987.257 1.518.079.995-.337 1.762-1.375 1.234-2.937-.44-1.3-1.52-1.91-2.686-1.515M54.783 162.781l-.142-.612-.016-.063-.062-.016-1.305-.334-.222-.056c-.184-.047-.362-.09-.534-.127.135-.107.265-.215.402-.327l.195-.16 1.026-.868.05-.042-.016-.063-.146-.625-.042-.177-.134.121-2.092 1.888-1.76.412-.105.024.025.104.128.55.025.104.104-.024 1.765-.413 2.722.831.177.054zM46.524 150.974l1.007-.942c.067.051.178.144.327.304.22.236.333.47.326.677-.006.16-.082.31-.228.447a.66.66 0 0 1-.477.19c-.218-.008-.439-.124-.638-.337zm.719 1.272c.456.164.935.073 1.287-.257.265-.247.412-.572.402-.89-.006-.393-.205-.786-.625-1.235a5.85 5.85 0 0 0-.819-.732l-.07-.05-.064.059-3.115 2.91-.078.073.072.078.382.408.073.078.08-.073 1.29-1.206.286.306c.299.345.292.618-.028 1.078-.357.513-.535.803-.577.943l-.018.058.042.045.395.423.118.126.06-.162c.063-.169.324-.566.633-1.028.234-.355.322-.668.274-.952M48.962 156.068c.539-.36.68-.861.49-1.731-.14-.628-.1-.887.169-1.068a.493.493 0 0 1 .373-.074c.173.034.336.159.472.36.186.278.258.563.265.736l.005.135.13-.035.464-.126.084-.023-.005-.086c-.009-.135-.06-.498-.37-.96-.264-.392-.618-.648-1-.723a1.184 1.184 0 0 0-.905.185c-.498.335-.639.907-.431 1.75.153.644.033.875-.21 1.038-.33.22-.69.104-.97-.311a1.78 1.78 0 0 1-.302-.926l-.002-.14-.135.04-.471.137-.078.023.001.08c.001.32.165.786.399 1.134.294.439.66.712 1.06.791a1.28 1.28 0 0 0 .967-.206M44.328 151.345l-.084-.066-1.392-1.088.828-1.061 1.236.966.085.065.066-.084.284-.364.066-.084-.084-.066-1.237-.966.71-.909 1.317 1.03.085.065.065-.084.289-.37.067-.084-.085-.066-1.847-1.442-.084-.066-.066.084-2.664 3.41-.065.084.084.066 1.922 1.502.084.066.066-.084.288-.37zM39.069 143.699l-.103-.031-.504-.15-.103-.031-.03.102-.52 1.741c-.13.435-.24.828-.337 1.234-.06-.31-.143-.656-.259-1.082l-.696-2.493-.017-.056-.056-.017-.59-.177-.104-.03-.03.102-1.236 4.147-.031.102.103.03.504.151.103.03.03-.102.529-1.771c.147-.494.262-.892.362-1.276.066.335.157.715.281 1.165l.69 2.497.016.057.056.017.541.162.103.03.03-.103 1.237-4.146zM34.867 142.639l.012-.107-.106-.012-.562-.064-.106-.012-.012.106-.292 2.551c-.055.473-.201.807-.433.992-.171.135-.39.19-.651.159-.578-.066-.845-.55-.751-1.361l.292-2.551.013-.106-.107-.013-.561-.064-.107-.012-.012.106-.29 2.532c-.194 1.69.811 2.062 1.426 2.133.507.058.948-.05 1.277-.31.375-.3.605-.788.682-1.454zM40.577 144.34l-.098-.042-.519-.225-.098-.043-.042.099-1.721 3.97-.044.098.099.042.518.225.099.042.042-.098 1.721-3.97zM44.29 146.388l-.132-.075-.519-.296-.066-.037-.057.05-1.695 1.495a20.05 20.05 0 0 0-.963.885c.105-.404.201-.83.3-1.267l.47-2.186.016-.077-.068-.039-.53-.302-.129-.073-.03.145-.909 4.461-.016.077.067.037.536.306.066.037.057-.048 3.487-2.994zM11.817 158.67l.049.028.027-.048.345-.593.028-.048-.048-.028-2.765-1.607 3.345.645.04.007.019-.034.348-.599.02-.033-.026-.03-2.217-2.588 2.765 1.607.049.028.027-.047.345-.593.028-.048-.048-.029-3.825-2.223-.048-.028-.028.049-.512.881-.02.034.026.03 2.342 2.739-3.536-.685-.04-.007-.019.034-.515.887-.028.048.047.028zM12.495 152.932c1.065 1.085 2.136 1.206 3.018.341.38-.373.597-.815.693-1.046l.014-.034-.026-.026-.463-.472-.068-.068-.024.092-.006.02c-.04.147-.16.592-.488.912-.552.543-1.227.393-2.062-.458-.498-.508-.987-1.218-.478-1.717.376-.37.673-.169.913.076l.04.04.04-.039.594-.584.039-.039-.038-.04c-.453-.46-1.227-.67-2.039.127-.827.813-.707 1.848.34 2.915M10.929 160.26l-.026-.01-2.104-.778-.053-.02-.019.052-.548 1.486-.02.051.053.02.499.184.052.02.02-.053.269-.73 1.248.462c.031.082.047.283-.07.599-.233.632-.87.747-1.943.35-1.096-.404-1.491-.836-1.284-1.4.15-.404.518-.432.813-.324l.053.02.018-.052.29-.782.019-.052-.053-.019c-.782-.29-1.4.061-1.743.987-.42 1.14.09 1.958 1.561 2.502 1.398.516 2.445.149 2.872-1.008.243-.656.174-1.255.104-1.48z" style="fill:#fff;fill-opacity:1;fill-rule:nonzero;stroke:none;stroke-width:.352778" transform="translate(-10.308 -433.006) scale(3.0959)"/></svg>