<svg xmlns="http://www.w3.org/2000/svg" width="186.32848mm" height="186.32848mm" viewBox="0 0 186.32848 186.32848"><g transform="translate(-31.234 -120.677) scale(1.14008)"><circle cx="109.11332" cy="187.56618" r="81.71711" style="fill:#fff;stroke:#fff;stroke-width:0"/><path d="M0 0c-2.322-.013-6.085-.751-6.124-.762l-.636-.124.598-2.986c-2.705-.566-5.787-1.88-5.923-1.935l-.394-.171-.017-8.868c.002.022-.008-.342-.008-.342-.002-.978.121-3.572 1.279-6.546 1.321-3.389 4.297-7.894 10.982-10.096l.054-.017.097-.014h.196l.093.03c6.693 2.176 9.688 6.669 11.021 10.055 1.171 2.969 1.301 5.567 1.302 6.544l-.005.367.017 8.839-.39.172c-.139.057-3.224 1.382-5.918 1.958l.608 2.985-.637.125c-.037.011-3.802.765-6.117.783l-.001.001Zm.002-.718.072.003-.002-.003c2.139-.018 5.556-.682 5.915-.754-.113-.548-.608-2.982-.608-2.982l.357-.067c2.618-.497 5.786-1.846 6.078-1.974l-.016-8.381.007-.355c-.002-.935-.129-3.428-1.253-6.285-1.276-3.236-4.146-7.538-10.562-9.631l-.026.002c-6.407 2.116-9.258 6.429-10.522 9.672-1.113 2.863-1.231 5.347-1.229 6.283l.009.316.015 8.426c.229.094 3.466 1.461 6.088 1.95l.356.064-.596 2.984c.362.071 3.771.723 5.917.732" style="fill:#2056ae;fill-opacity:1;fill-rule:nonzero;stroke:none" transform="matrix(3.14032 0 0 -3.14032 108.153 135.638)"/><path d="M0 0h-.006c-1.569-.005-3.877-.374-5.111-.591L-5.3-.623l.598-2.986-.885-.163c-2.08-.385-4.57-1.345-5.543-1.74l-.111-.042-.018-8.07-.007-.327c-.001-.908.113-3.303 1.194-6.078 1.201-3.085 3.908-7.203 9.983-9.284l.057-.017.057.016c6.083 2.059 8.808 6.166 10.02 9.246 1.094 2.772 1.216 5.183 1.218 6.089l-.007.344.015 8.038-.111.046c-.963.394-3.431 1.357-5.535 1.757 0 0-.637.122-.886.166.063.316.608 2.985.608 2.985l-.179.032C3.939-.389 1.64-.011.056 0H.003Zm-.003-.358h.058C1.54-.369 3.673-.71 4.922-.932c-.063-.319-.604-2.978-.604-2.978l1.242-.235c2.002-.382 4.339-1.281 5.353-1.694l-.014-7.799.004-.343c-.001-.882-.121-3.243-1.189-5.954-1.183-3.003-3.832-6.994-9.745-9.016-5.901 2.043-8.539 6.046-9.709 9.054-1.058 2.716-1.169 5.062-1.167 5.943l.006.327c0 .003.013 6.861.016 7.829 1.028.411 3.385 1.307 5.361 1.676l1.245.228-.598 2.982c1.257.216 3.398.548 4.874.554" style="fill:#2056ae;fill-opacity:1;fill-rule:nonzero;stroke:none" transform="matrix(3.14032 0 0 -3.14032 108.187 139.565)"/><path d="m0 0-1.764.004.01 4.872-4.873.009-.009-4.873-1.762.005.02 10.835 1.763-.004-.009-4.472 4.873-.01.009 4.473 1.763-.003z" style="fill:#2056ae;fill-opacity:1;fill-rule:nonzero;stroke:none" transform="matrix(3.14032 0 0 -3.14032 133.742 193.824)"/><path d="m0 0-.005-1.777c-1.453-.842-2.181-2.044-2.186-3.601-.001-1.122.397-2.081 1.2-2.874.798-.791 1.749-1.19 2.849-1.191 1.122-.002 2.085.387 2.888 1.166.803.779 1.205 1.737 1.208 2.882a3.889 3.889 0 0 1-.637 2.18A4.058 4.058 0 0 1 3.78-1.801L3.784-.02a5.985 5.985 0 0 0 2.743-2.116 5.42 5.42 0 0 0 1.044-3.262C7.569-6.97 7.009-8.305 5.899-9.41c-1.116-1.105-2.463-1.654-4.045-1.651-1.558.002-2.896.559-4.011 1.674-1.115 1.113-1.669 2.45-1.666 4.01a5.394 5.394 0 0 0 1.054 3.235C-2.067-1.17-1.143-.457 0 0" style="fill:#2056ae;fill-opacity:1;fill-rule:nonzero;stroke:none" transform="matrix(3.14032 0 0 -3.14032 104.27 184.253)"/><path d="m0 0 3.276-.007.002 1.639-3.276.006Zm-.093-2.382a4.03 4.03 0 0 0-1.28.307 4.477 4.477 0 0 0-1.335.867A3.612 3.612 0 0 0-3.549.061a4.278 4.278 0 0 0-.274 1.542c.001.519.106 1.011.311 1.482.218.5.524.929.925 1.294.358.355.777.626 1.259.818.471.173.974.258 1.505.258.635-.003 1.202-.113 1.705-.333a3.53 3.53 0 0 0 1.349-1.019h.052l.005 2.317c-.859.481-1.849.726-2.968.727-.851.002-1.618-.121-2.306-.368A5.533 5.533 0 0 1-3.877 5.59a5.675 5.675 0 0 1-1.337-1.822 5.313 5.313 0 0 1-.45-2.156A5.895 5.895 0 0 1-5.299-.47a5.555 5.555 0 0 1 1.102-1.741 6.057 6.057 0 0 1 1.964-1.383 5.447 5.447 0 0 1 1.172-.373 6.088 6.088 0 0 0 .968 1.585" style="fill:#2056ae;fill-opacity:1;fill-rule:nonzero;stroke:none" transform="matrix(3.14032 0 0 -3.14032 94.966 181.174)"/><path d="M0 0c-.03.152-.102.251-.216.297C-.33.343-.45.321-.579.231a.815.815 0 0 1-.297-.386.802.802 0 0 1-.051-.48c.033-.154.105-.253.218-.298.114-.046.236-.023.362.066.126.09.222.218.289.384A.844.844 0 0 1 0 0" style="fill:#2056ae;fill-opacity:1;fill-rule:nonzero;stroke:none" transform="matrix(3.14032 0 0 -3.14032 84.587 247.119)"/><path d="M0 0c.354-.15.662-.126.929.069.265.193.465.448.597.764.133.318.176.639.127.964-.047.326-.248.563-.601.711-.354.149-.663.125-.929-.069a1.788 1.788 0 0 1-.599-.765A1.799 1.799 0 0 1-.603.71C-.555.385-.354.148 0 0" style="fill:#2056ae;fill-opacity:1;fill-rule:nonzero;stroke:none" transform="matrix(3.14032 0 0 -3.14032 131.631 126.542)"/><path d="M0 0c.113.049.189.154.22.312A.828.828 0 0 1 .157.8a.788.788 0 0 1-.312.376c-.135.084-.261.1-.374.052-.112-.049-.184-.151-.219-.307A.787.787 0 0 1-.69.433.8.8 0 0 1-.373.055C-.234-.029-.109-.048 0 0" style="fill:#2056ae;fill-opacity:1;fill-rule:nonzero;stroke:none" transform="matrix(3.14032 0 0 -3.14032 128.709 252.83)"/><path d="m0 0 .632.803-1.337 1.049-.631-.805Z" style="fill:#2056ae;fill-opacity:1;fill-rule:nonzero;stroke:none" transform="matrix(3.14032 0 0 -3.14032 65.442 247.29)"/><path d="m0 0-1.119 1.18-.005-.002-.01-.004.14-1.623z" style="fill:#2056ae;fill-opacity:1;fill-rule:nonzero;stroke:none" transform="matrix(3.14032 0 0 -3.14032 81.607 125.255)"/><path d="m0 0-.887-.295.57-1.708-.485-.161-.569 1.707-.989-.331.626-1.878-.512-.172-.825 2.472L.315.764l.813-2.438-.512-.17zm-1.074-16.303a.834.834 0 1 0 .002 1.67.834.834 0 0 0-.002-1.67m-20.74-9.885c-10.133.02-18.33 8.251-18.31 18.383.019 10.132 8.249 18.331 18.381 18.312C-11.61 10.487-3.411 2.256-3.43-7.876c-.021-10.132-8.25-18.331-18.384-18.312m12.676-2.118-.271.355.602.461-1.191 1.547.591.457 1.191-1.548.305.235-1.19 1.548.592.456 1.191-1.548 1.27.977.273-.352zm-2.199 3.436 2.719 2.093 1.115-1.452c.199-.256.352-.498.458-.72.106-.224.171-.425.19-.6l-.541-.418c-.025.193-.1.39-.226.589a11.47 11.47 0 0 1-.521.731l-.804 1.044-2.115-1.625zm-1.544-5.59-.5 1.156-2.46-1.061-.177.405 3.184 1.378.677-1.566zm-.082 2.173-.723-.314-1.115 2.577.725.314.394-.91.723.313.178-.414-.723-.313zm-3.916-.513a.923.923 0 0 0-.08.444c.011.152.051.297.124.435l-.529-.231-.174.397.917.397-.229.53.724.313.229-.53.915.397.172-.397-.53-.23c.154-.039.289-.108.408-.205a.998.998 0 0 0 .248-1.202 1.215 1.215 0 0 0-.657-.634 1.227 1.227 0 0 0-.91-.044c-.303.102-.512.288-.628.56m-3.297-3.462-.748.006.022 3.076-.465.003-.024-3.076-.745.006.012 1.902a.995.995 0 0 0-.251-.119 1.286 1.286 0 0 0-.369-.046l-.992.008a.554.554 0 0 0-.397.143.5.5 0 0 0-.143.375l.018 2.405 1.757-.014-.003-.449-.98.007-.016-2.02.79-.005a1.62 1.62 0 0 1 .349.03c.098.021.178.044.241.07l.018 2.546.747-.006-.009-1.313.466-.004.01 1.313.748-.005zm-8.009.93-.69.277 1.146 2.855-.303.122-1.144-2.856-.689.276 1.799 4.488.688-.278-.488-1.218.302-.121.489 1.218.688-.275zm-2.243 2.88a1.143 1.143 0 0 0-.632.603 1.033 1.033 0 0 0 .319 1.282c.158.11.331.176.521.197l-.533.214.164.406.709-.285.216.536.72-.29-.215-.535.715-.287-.163-.407-.531.214c.122-.145.202-.312.24-.502a1.031 1.031 0 0 0-.652-1.147 1.137 1.137 0 0 0-.878.001m-3.484 2.221-.619.485 1.586 2.023.619-.487zm-1.788 3.972.274.348 1.86-1.46-.241-.307c-.412-.524-.923-.786-1.536-.784-.613 0-1.129.161-1.546.478l-.156.51c.444-.296.895-.433 1.349-.412.456.023.842.235 1.158.64l.036.045zm.391-5.754-2.146 1.683a.543.543 0 0 0-.223.361.505.505 0 0 0 .116.39l.861 1.099 2.577-2.022zM-40.399-.28l-.418.093c.1-.232.149-.439.142-.62a1.385 1.385 0 0 0-.145-.569c-.226-.482-.572-.782-1.034-.898a2.006 2.006 0 0 0-1.386.149 2.014 2.014 0 0 0-.998.974c-.204.432-.194.888.035 1.371.166.353.404.617.714.793.309.177.657.202 1.043.07l-.261-.552a.71.71 0 0 1-.615-.055 1.073 1.073 0 0 1-.419-.473c-.165-.348-.154-.658.027-.932.184-.273.43-.484.741-.63.311-.147.628-.201.954-.168.326.035.572.224.737.569.14.288.167.548.081.778-.088.232-.267.413-.541.544l-.403-.859-.431.205.648 1.373 1.701-.802zm-1.828-16.027a.834.834 0 1 0 .007 1.667.834.834 0 0 0-.007-1.667m-.092 20.152 3.104-1.765-.308-.543-3.104 1.765zm1.609 2.575 2.747-1.109.007.008-1.462 2.569.576.652 2.677-2.361-.393-.446-2.066 1.822-.007-.008 1.412-2.565-.34-.387-2.722 1.081-.007-.008 2.068-1.823-.394-.446-2.678 2.361zm3.785 3.86.85-1.138 1.302.973-.851 1.137.501.376 2.138-2.861-.501-.374-.965 1.29-1.3-.973.966-1.29-.503-.375-2.136 2.86zm5.349 3.285 2.721-2.691-.611-.275-.695.724-1.299-.585.082-1-.588-.265-.217 3.819zm5.61 1.782.124-.526-1.892-.449.215-.909 1.752.415.118-.496-1.751-.416.241-1.016 1.927.456.124-.526-2.535-.6-.825 3.473zm6.17-1.441c.085.503.309.912.668 1.226.361.314.804.425 1.329.333.398-.067.721-.229.966-.487s.354-.581.325-.967l-.615.104a1.046 1.046 0 0 1-.202.551c-.117.154-.301.253-.558.298-.379.063-.674-.03-.888-.279a1.772 1.772 0 0 1-.407-.883 1.76 1.76 0 0 1 .094-.967c.121-.305.37-.49.749-.554.272-.047.499.008.68.161.182.153.306.355.371.609l.603-.103c-.095-.416-.3-.733-.621-.951-.319-.219-.691-.291-1.119-.219-.526.088-.908.34-1.146.754-.238.413-.314.871-.229 1.374m4.171-.713c.197.47.505.818.928 1.04.421.222.879.23 1.371.023.493-.207.81-.54.946-.995.134-.457.104-.92-.094-1.391a2.006 2.006 0 0 0-.927-1.039c-.42-.223-.877-.232-1.372-.023-.493.206-.807.538-.944.994-.137.458-.107.921.092 1.391m5.433-.497-1.556-2.599 1.558-.932-.277-.463-2.093 1.253 1.832 3.063zm2.828-1.82.477-.402-1.953-2.317 1.388-1.171-.348-.412-1.865 1.572Zm4.633-4.71-.418-.342-1.233 1.504-.722-.593 1.14-1.393-.392-.323-1.142 1.393-.809-.663 1.256-1.531-.419-.343-1.651 2.015 2.76 2.263zm.719-1.707c.467-.1.823-.386 1.068-.86.18-.346.246-.696.198-1.05-.047-.353-.239-.643-.576-.87l-.28.541c.196.136.305.31.328.524.023.212-.019.418-.123.619-.176.341-.429.522-.756.542a1.773 1.773 0 0 1-.95-.205 1.76 1.76 0 0 1-.713-.656c-.169-.28-.169-.59.006-.933.144-.285.335-.465.569-.534.238-.072.49-.038.761.098l-.438.843.422.219.699-1.349-1.669-.866-.183.355.329.278a1.507 1.507 0 0 0-.581.262 1.393 1.393 0 0 0-.362.459c-.246.474-.275.93-.088 1.368a2 2 0 0 0 .959 1.011c.453.235.914.303 1.38.204m-19.634 12.886c-14.002.028-25.374-11.303-25.401-25.302-.026-14.003 11.302-25.375 25.303-25.402C-7.742-33.386 3.63-22.058 3.657-8.057 3.684 5.945-7.644 17.317-21.646 17.345" style="fill:#2056ae;fill-opacity:1;fill-rule:nonzero;stroke:none" transform="matrix(3.14032 0 0 -3.14032 177.403 161.96)"/></g></svg>