<svg xmlns="http://www.w3.org/2000/svg" width="190.76395mm" height="190.76962mm" viewBox="0 0 190.76395 190.76962"><defs><clipPath id="a" clipPathUnits="userSpaceOnUse"><path d="M0 0h702.992v878.74H0Z"/></clipPath><clipPath id="b" clipPathUnits="userSpaceOnUse"><path d="M0 0h702.992v878.74H0Z"/></clipPath><clipPath id="c" clipPathUnits="userSpaceOnUse"><path d="M0 0h702.992v878.74H0Z"/></clipPath></defs><g clip-path="url(#a)" transform="matrix(.56772 0 0 -.56772 -104.169 396.565)"><path d="M0 0c-92.795 0-168.024-75.229-168.024-168.023 0-92.786 75.229-168.005 168.024-168.005 92.776 0 167.994 75.219 167.994 168.005C167.994-75.229 92.776 0 0 0" style="fill:#fff;fill-opacity:1;fill-rule:nonzero;stroke:none" transform="translate(351.51 698.522)"/><path d="M0 0c-88.434 0-160.085-71.682-160.085-160.104 0-88.395 71.651-160.076 160.085-160.076 88.413 0 160.085 71.681 160.085 160.076C160.085-71.682 88.413 0 0 0m0-312.183c-83.992 0-152.118 68.086-152.118 152.079C-152.118-76.113-83.992-7.997 0-7.997c83.992 0 152.058-68.116 152.058-152.107 0-83.993-68.066-152.079-152.058-152.079" style="fill:#880827;fill-opacity:1;fill-rule:nonzero;stroke:none" transform="translate(351.51 690.603)"/><path d="M0 0c-75.611 0-136.898-61.287-136.898-136.888 0-75.563 61.287-136.861 136.898-136.861 75.582 0 136.859 61.298 136.859 136.861C136.859-61.287 75.582 0 0 0m112.7-77.744 7.918-17.685-.323-.815-9.894-4.431-.796.236-.167.344.256.825c2.299 1.268 4.127 2.731 5.403 4.441 1.396 1.877 1.69 3.557.993 5.129l-.069.206-14.364-6.425c-2.653-1.179-2.476-2.516-2.004-3.518l1.011-2.289-.324-.805-.53-.227-.806.295-5.933 13.136.324.845.56.236.785-.295 1.003-2.279c.451-.953 1.101-1.396 2.014-1.336.57 0 1.237.166 1.974.52l14.345 6.445-.187.393c-.736 1.611-2.241 2.427-4.706 2.564-.345 0-.679.01-1.032 0-.943-.019-2.053-.176-3.203-.432-.52-.137-1.316-.393-2.338-.756l-.796.353-.147.344.295.816 9.933 4.48zm-16.888-59.144c0-52.917-42.886-95.803-95.812-95.803-52.907 0-95.832 42.886-95.832 95.803 0 52.925 42.925 95.811 95.832 95.811 52.926 0 95.812-42.886 95.812-95.811m7.987 70.59-.226.383.206.855.491.305.826-.236 5.305-8.96-.216-.845-.491-.275-.835.186-.246.423c-.413.697-.884 1.071-1.513 1.179h-.039c-.806.01-1.562-.265-2.476-.816l-10.699-6.327c-1.013-.589-1.661-1.199-1.906-1.827-.226-.57-.128-1.179.295-1.887l.215-.392-.215-.855-.511-.295-.836.196-5.305 8.97.226.855.52.305.806-.207.275-.393c.403-.707.894-1.08 1.504-1.208h.029c.835 0 1.592.265 2.486.796l.756.452.658.393.512.285.697.393.796.491.855.511 5.168 3.065 1.699 1.003c.462.343.835.658 1.081.933.205.245.364.491.422.756.167.57.07 1.13-.314 1.788m-16.212 0c-.175.57-.451 1.307-.785 2.26l-.433 1.159c-.697 1.897-1.11 3.183-1.306 3.989-.226.924-.354 1.661-.334 2.299 0 .658.137 1.366.403 2.054.324.982.944 1.837 1.798 2.535.972.815 2.073 1.335 3.222 1.532.393.079.776.088 1.13.088.795 0 1.601-.157 2.387-.451 1.13-.462 2.084-1.189 2.929-2.172 1.217-1.503 1.965-3.468 2.21-5.885.108-.963.265-1.149.265-1.179.02-.01.069-.098.246-.098.215 0 .57.069 1.189.383l.726-.157.286-.305-.089-.884-5.678-4.676-.806.078-.295.314-.02.747c.993 1.444 1.651 2.712 2.034 3.773a7.59 7.59 0 0 1 .266 2.279 8.972 8.972 0 0 1-.462 2.378 8.108 8.108 0 0 1-1.239 2.132c-.353.432-.756.756-1.189.953-.353.186-.804.275-1.237.275a4.588 4.588 0 0 1-1.14-.177 3.227 3.227 0 0 1-.864-.491c-.452-.373-.738-.816-.806-1.336-.049-.246-.049-.56-.02-.924.03-.403.128-.845.315-1.424.227-.57.53-1.346.933-2.339.098-.285.148-.442.187-.511l.255-.629.363-.913c.59-1.573.993-2.781 1.131-3.606.176-.884.137-1.798-.059-2.692-.099-.678-.384-1.326-.777-1.955a5.727 5.727 0 0 0-1.522-1.719 6.885 6.885 0 0 0-2.103-1.238 6.848 6.848 0 0 0-2.377-.501h-.315c-.943 0-1.858.196-2.682.599a7.918 7.918 0 0 0-2.526 2.063c-.529.629-.923 1.317-1.247 1.984a15.16 15.16 0 0 0-.756 2.742 13.21 13.21 0 0 1-.384 1.434c-.088.295-.225.492-.363.698a1.349 1.349 0 0 1-.914.472h-.078c-.532 0-.914-.108-1.327-.364l-.776.157-.265.305.079.844 7.604 6.318.875-.059.274-.334-.04-.825a10.16 10.16 0 0 1-2.515-4.068 11.025 11.025 0 0 1-.382-2.957c0-1.081.157-2.083.442-3.006.266-.914.649-1.65 1.159-2.26a3.66 3.66 0 0 1 1.494-1.12 3.444 3.444 0 0 1 1.208-.275c.167 0 .324.019.481.039.542.069 1.051.324 1.513.708.512.432.827.923.954 1.551.068.295.087.59.059.974a15.74 15.74 0 0 1-.306 1.414M68.783-29.71l.884.118 9.954-8.076c1.384-1.15 2.367-2.172 2.975-3.134.698-.983.993-2.034.954-3.135a6.364 6.364 0 0 0-.412-1.935 5.64 5.64 0 0 0-.993-1.749c-1.081-1.356-2.485-2.024-4.234-2.024-.904.03-1.631.236-2.506.58-.825.324-1.592.727-2.319 1.199-.314.196-.668.422-1.06.736l.118-.481c.196-.56.392-1.071.628-1.562.246-.472.531-1.012.934-1.562l.107-.472-.196-.815-.255-1.169-.207-1.012a29.05 29.05 0 0 1-.422-2.466c-.078-.708-.098-1.219-.069-1.543.098-.462.453-.973 1.082-1.484l.353-.265.098-.864-.374-.492-.873-.088-4.816 3.91-.215.589 2.102 11.358-2.141 1.759-3.38-4.205c-.718-.884-1.12-1.7-1.12-2.368-.01-.599.294-1.139.894-1.68l.413-.295.058-.854-.343-.472-.865-.099-8.135 6.574-.079.874.355.442.864.098.383-.285c.472-.393.963-.599 1.414-.599.148 0 .246 0 .393.039.648.167 1.366.688 2.083 1.612l7.851 9.687c.717.883 1.12 1.7 1.159 2.387.009.57-.295 1.12-.963 1.661l-.314.265-.128.874zM47.12-18.254l.806.245 15.631-8.056.264-.816L60-34.24l-.836-.245-.313.128-.295.727c.373 1.405.608 2.476.727 3.193.078.687.097 1.415.048 2.151-.079.786-.304 1.445-.618 1.926-.541.796-1.395 1.503-2.545 2.073l-2.338 1.238-4.087-7.929.226-.137a2.223 2.223 0 0 1 1.091-.285c.608 0 1.307.246 2.024.766.618.423 1.266 1.051 1.856 1.818.295.363.648.874 1.061 1.572l.855.216.353-.196.256-.845-6.445-12.439-.815-.265-.364.177-.315.776c.276.698.512 1.366.698 2.014.167.599.276 1.12.345 1.543.029.402.029.835 0 1.267-.089 1.12-.6 1.926-1.583 2.417l-.069.029-3.832-7.417 1.887-.983c.678-.344 1.297-.57 1.886-.737a5.324 5.324 0 0 1 1.297-.167h.354c.551.05 1.11.197 1.71.384.963.363 1.896.982 2.82 1.847.52.52 1.189 1.267 1.984 2.22l.747.177.373-.246.285-.796-4.058-7.82-.835-.265-15.956 8.272-.284.786.245.531.835.275.394-.197c.412-.216.786-.334 1.149-.334.924 0 1.759.727 2.485 2.162l5.738 11.062c.521 1.032.748 1.906.639 2.575-.118.559-.53 1.061-1.268 1.444l-.392.196-.256.816zm-21.861 6.189.787.423 9.245-2.81.383-.737-.138-.54-.767-.423-1.13.354c-.175.029-.303.078-.461.078-.157 0-.295-.049-.432-.098-.216-.108-.373-.324-.462-.658-.138-.403-.186-.933-.158-1.562l.542-11.8 5.776 8.047c.482.707.815 1.267.963 1.817.217.698.217 1.268.03 1.749-.197.481-.551.796-1.081 1.012l-.363.727.175.55.728.413 6.387-1.916.442-.757-.186-.54-.67-.412h-.421c-.365.019-.738-.06-1.121-.187-.511-.216-1.041-.56-1.561-1.071-.59-.55-1.249-1.326-1.946-2.299L29.975-36.46l-.599-.226-.452.089-.482.569-.913 19.149c-.098 1.965-.58 3.105-1.474 3.331l-.54.186-.413.757zM7.761-30.781l.679.501.451-.05a1.99 1.99 0 0 1 .413-.038c.629 0 1.12.186 1.474.53.442.432.776 1.258.913 2.437l.167 1.12.06.481.128.894.058.462.079.59.176 1.364.511 3.725.55 4.165c.05.57 0 1.052-.059 1.454-.039.295-.137.58-.324.816-.323.452-.835.737-1.601.825l-.441.059-.541.717.058.551.708.52 10.325-1.395.521-.687-.068-.57-.687-.521-.462.069c-.158.01-.306.029-.453.029-.59.03-1.071-.167-1.424-.501-.443-.472-.747-1.277-.925-2.465L16.378-28.03c-.128-1.159-.05-2.044.284-2.604.305-.54.846-.855 1.631-.953l.482-.059.521-.717-.069-.57-.698-.56-10.336 1.415-.53.678zM-15.955-9.638l6.631.206.492-.206L1.994-23.216l-.225 7.378c-.07 1.052-.227 1.975-.501 2.732-.295.707-.688 1.248-1.15 1.601-.266.197-.511.324-.728.383-.196.069-.54.138-1.139.158l-.609.599-.011.589.62.629 8.175.265.637-.599.011-.559-.747-.639c-.992-.02-1.709-.443-2.181-1.258-.53-.894-.747-2.22-.688-3.989l.511-15.268-.609-.629-.393-.029-.491.236-13.765 17.085.383-10.905c.029-1.15.167-2.084.403-2.771.197-.609.55-1.061.962-1.385.354-.246.767-.402 1.278-.472.325-.069.757-.088 1.365-.097l.581-.6.019-.58-.6-.609-8.625-.275-.619.579-.01.57.521.619c.815.089 1.414.275 1.886.56.452.314.737.747.943 1.287.206.6.295 1.366.265 2.289l-.412 12.075c-.01.649-.128 1.199-.344 1.641a2.257 2.257 0 0 1-.944.904 2.772 2.772 0 0 1-1.247.285l-1.052.579-.019.57zm-27.903-6.573 11.112 2.938.727-.462.147-.531-.432-.756-1.267-.314c-.787-.227-1.288-.6-1.533-1.179-.256-.6-.246-1.494.059-2.633l2.76-10.474c.295-1.11.728-2.004 1.318-2.662.608-.649 1.257-1.091 2.072-1.307a4.067 4.067 0 0 1 1.091-.147c.511-.04 1.08.049 1.64.196.885.256 1.66.619 2.358 1.15.679.52 1.12 1.09 1.425 1.778.52 1.287.501 3.016-.02 5.021l-1.965 7.407c-.56 2.162-1.424 3.518-2.515 4.009-.314.108-.6.187-.884.216-.315 0-.766-.069-1.336-.196l-.708.422-.148.551.433.775 7.732 2.014.757-.422.137-.56-.382-.707a3.665 3.665 0 0 1-.895-.462 2.683 2.683 0 0 1-.57-.668c-.265-.452-.402-1.012-.462-1.68-.039-.708.08-1.484.315-2.378l2.181-8.292c.608-2.289.569-4.235-.118-5.777-.354-.835-.845-1.513-1.414-2.004-1.15-.953-2.634-1.7-4.373-2.152-1.228-.324-2.358-.472-3.38-.452h-.314c-1.208.039-2.24.305-3.125.737-1.699.855-2.857 2.446-3.438 4.686l-2.711 10.208c-.698 2.624-1.937 2.653-2.338 2.653-.246.02-.531-.029-.817-.098l-.668-.177-.746.422-.128.561zm-27.057-15.867a9.226 9.226 0 0 0 3.379 4.303c1.376.934 2.829 1.513 4.333 1.71.314.049.629.078.963.078 1.198.059 2.407-.117 3.625-.501a13.103 13.103 0 0 0 3.684-1.906c1.111-.874 2.103-1.886 2.888-3.035 1.199-1.709 1.937-3.616 2.162-5.591.246-2.004.019-3.9-.706-5.659-.738-1.768-1.887-3.232-3.489-4.303a9.533 9.533 0 0 0-3.921-1.582c-.412-.108-.874-.147-1.365-.147a8.613 8.613 0 0 0-2.819.304c-1.444.315-2.78.943-4.048 1.808a12.402 12.402 0 0 0-3.232 3.252c-1.17 1.69-1.907 3.586-2.133 5.61-.225 1.975-.03 3.891.679 5.659m-21.743-15.69 7.221 6.759c.423.403.914.845 1.454 1.278.57.451 1.082.815 1.533 1.149.492.354.914.599 1.277.796 1.012.53 2.034.806 3.027.786.265-.02.549-.02.834-.069 1.278-.255 2.427-.914 3.449-1.994.697-.747 1.208-1.562 1.503-2.407.275-.855.374-1.739.227-2.624-.148-.884-.482-1.778-1.033-2.692-.53-.874-1.237-1.729-2.103-2.564l-2.868-2.672 3.066-3.282c.893-.982 1.728-1.464 2.456-1.464.53 0 1.021.216 1.562.688l.589.57.855-.039.403-.413-.049-.865-7.958-7.437-.866.029-.381.423.028.855.442.383c.777.786 1.464 1.926-.53 4.058l-8.528 9.078c-.894.962-1.7 1.424-2.436 1.444-.531.029-1.042-.226-1.533-.688l-.422-.383-.865.02-.363.422zm-15.337-21.192.61.265 15.473-3.674-9.117 12.998v.668l3.666 5.374.835.177.49-.334.147-.835-.342-.492c-.454-.697-.59-1.277-.384-1.866.186-.649.776-1.317 1.748-1.955l10.288-6.996c.893-.609 1.66-.913 2.309-.913.755.01 1.286.383 1.758 1.041l.334.481.854.197.482-.354.167-.845-6.003-8.832-.864-.167-.462.334-.159.845.394.589c.442.678.569 1.287.374 1.886-.177.62-.786 1.288-1.739 1.936l-9.364 6.327 9.894-13.882.011-.698-.257-.334-.638-.266-16.604 3.97 8.743-5.924c.728-.501 1.406-.816 2.055-.943a3.5 3.5 0 0 1 .56-.04c.373-.029.727.02 1.032.167.509.217.982.6 1.394 1.15l.835.167.501-.354.148-.864-4.382-6.406-.825-.157-.511.305-.05 1.011c.492.708.581 1.425.354 2.201-.304.825-.972 1.592-1.993 2.28l-9.787 6.67c-.923.6-1.69.904-2.338.924-.746-.029-1.258-.384-1.739-1.071l-.324-.491-.855-.157-.442.343-.167.816zm-6.473-11.191.824.315.52-.216.287-.796-.159-.433c-.323-.746-.363-1.385-.048-1.906.304-.599 1.011-1.129 2.102-1.591l11.406-4.951c.777-.354 1.445-.521 2.006-.561.206 0 .402.04.579.069.598.157 1.06.589 1.347 1.336l.195.432.815.325.521-.236.344-.816-4.146-9.559-.826-.315-.549.246-.315.806.196.432c.326.776.326 1.395.05 1.926-.334.589-1.013 1.12-2.093 1.571l-.884.364-.619.285-.796.334-.472.217-.668.293-1.14.492-4.813 2.103-2.457 1.061a5.22 5.22 0 0 1-1.424.334.19.19 0 0 0-.069.01c-.382 0-.599-.04-.796-.099-.52-.196-.943-.599-1.258-1.306l-.167-.442-.815-.305-.511.216-.315.825zm-7.448-35.114c-.472 0-.855-.049-1.209-.196-.579-.246-.934-.757-1.15-1.582l-.098-.442-.727-.462-.52.108-.472.767 2.467 10.158.756.443.511-.118.452-.757-.099-.452c-.196-.776-.089-1.395.286-1.886.402-.531 1.208-.933 2.328-1.218l7.614-1.838-5.256 8.243c-.472.727-.757 1.061-.944 1.199-.255.197-.52.344-.903.413-.167.039-.354.088-.511.088-.344 0-.678-.108-.953-.304-.451-.305-.746-.786-.924-1.474l-.069-.383-.726-.442-.521.118-.473.755 2.262 9.384.775.452.53-.128.384-.973c-.178-.756.059-2.417 2.348-5.944l2.25-3.606 10.404 2.437c1.082.226 1.925.6 2.476 1.002.501.403.835.904.973 1.552l.128.295.716.442.561-.108.452-.737-2.398-9.913-.727-.452-.59.138-.441.727.138.53c.225.963.088 1.376 0 1.523-.05.108-.138.197-.384.266h-.295c-.226 0-.501-.089-.933-.158l-7.408-1.699 2.427-3.812 2.132-.531c.53-.108 1.002-.196 1.444-.216.471 0 .865.078 1.189.216.57.285.923.776 1.149 1.562l.098.462.737.462.57-.157.443-.728-2.427-10.139-.756-.452-.571.128-.471.766.118.443c.196.795.097 1.395-.266 1.906-.412.52-1.218.933-2.357 1.188l-12.095 2.938a5.552 5.552 0 0 1-1.444.196m4.126-71.377c-.865 1.592-1.16 3.341-.952 5.247.215 1.857.913 3.625 2.072 5.276 1.179 1.65 2.712 2.957 4.52 3.959 1.1.58 2.24 1.002 3.527 1.258.717.167 1.494.265 2.23.294.511.01 1.031.01 1.542-.029a11.96 11.96 0 0 0 3.528-.825c1.729-.669 3.036-1.828 3.919-3.459a8.35 8.35 0 0 0 .649-1.67c.138-.57.188-1.14.157-1.719a9.966 9.966 0 0 0-.353-1.897c-.158-.746-.118-.933-.118-.972 0 0 .314-.394 2.446-.452l.54-.285.167-.383-.186-.826-8.94-5.157-.865.235-.158.344.148.786c.608.462 1.051.835 1.404 1.189.334.295.668.639 1.002 1.052.993 1.139 1.75 2.229 2.261 3.33.549 1.061.825 2.073.894 3.036.049.894-.098 1.709-.492 2.387-.432.855-1.061 1.336-1.886 1.543a3.566 3.566 0 0 1-1.208.127c-.678-.029-1.455-.167-2.349-.432-1.494-.422-3.349-1.238-5.511-2.378a39.589 39.589 0 0 1-3.194-1.925c-.874-.58-1.6-1.189-2.121-1.71-.502-.541-.864-1.061-1.11-1.582a4.02 4.02 0 0 1-.375-1.866 4.438 4.438 0 0 1 .532-1.896c.294-.58.717-1.091 1.188-1.533a5.569 5.569 0 0 1 1.68-1.032c.649-.255 1.366-.432 2.181-.55.453-.029.895-.049 1.336-.029.197 0 .354.019.55.029.6.059 1.396.226 2.32.472l.736-.295.197-.403-.393-.845c-.943-.285-1.72-.452-2.388-.54a5.611 5.611 0 0 0-.923-.059 9.212 9.212 0 0 0-1.287 0c-3.213.226-5.531 1.641-6.917 4.185m19.473-28.777-.501-.353-.835.206-3.389 5.197-.011.619 5.492 10.169-1.482 2.319-4.511-2.928c-.982-.668-1.591-1.287-1.808-1.906-.196-.59-.078-1.189.344-1.896l.256-.423-.177-.845-.491-.314-.845.177-5.67 8.763.188.845.481.315.845-.177.265-.354c.452-.717.953-1.051 1.563-1.11.717-.039 1.542.236 2.465.865l10.445 6.779c.991.648 1.61 1.297 1.827 1.896.177.589.078 1.208-.374 1.886l-.235.374.176.845.453.324.844-.197 6.996-10.719c.963-1.513 1.621-2.839 1.915-3.89.295-1.169.256-2.26-.078-3.282a5.94 5.94 0 0 0-1.002-1.719 5.757 5.757 0 0 0-1.484-1.356c-.992-.658-2.044-.953-3.134-.904-.56.02-1.14.138-1.729.334-.609.256-1.248.678-1.994 1.277-.707.6-1.357 1.209-1.897 1.867-.195.266-.432.6-.737 1.012-.01-.157-.01-.344-.01-.481 0-.59.01-1.169.118-1.7.05-.54.197-1.11.394-1.739l-.06-.501-.442-.727-.599-1.081-.156-.265-.306-.57a23.739 23.739 0 0 1-1.199-2.22 9.688 9.688 0 0 1-.549-1.425c-.03-.481.137-1.061.569-1.739l.256-.422zm12.773-15.808-12.528 12.92v.835l.384.422h.933l.295-.323c.461-.482.953-.747 1.464-.757.756-.039 1.612.422 2.554 1.365l8.941 8.676c.854.815 1.336 1.523 1.424 2.21.079.57-.156 1.189-.746 1.779l-.294.304v.855l.411.412.855-.019 12.242-12.615v-.865l-5.954-5.767-.844.02-.276.255-.078.737c.824 1.248 1.395 2.191 1.719 2.859.295.609.53 1.306.728 1.995.156.795.166 1.463.028 2.004-.255.963-.855 1.886-1.729 2.81l-1.866 1.886-6.397-6.199.187-.187c.462-.5 1.003-.727 1.699-.757.414-.019.875.059 1.406.177a8.888 8.888 0 0 1 2.328 1.17c.384.235.894.608 1.533 1.119l.835-.019.285-.325v-.874l-10.06-9.756-.885.039-.265.266-.049.815c.471.59.904 1.169 1.267 1.7.354.52.639.982.806 1.376.177.373.315.755.442 1.218.265 1.051.03 1.984-.747 2.76l-.048.05-5.974-5.797 1.464-1.523a9.132 9.132 0 0 1 1.572-1.307 5.29 5.29 0 0 1 1.503-.697 5.18 5.18 0 0 1 1.208-.167h.511c1.052.029 2.162.314 3.282.864.638.315 1.532.786 2.583 1.455l.776-.089.295-.305-.009-.864-6.347-6.161zm19.688-14.03-.825-.127-7.693 5.777-.138.855.364.481.854.118 1.013-.747c.462-.354.717-.432.874-.432.108 0 .286 0 .511.285.138.186.284.462.432.805.138.393.364 1.091.727 2.162l.088.373.128.354.119.403-4.912 3.674-1.002-.707c-.423-.256-.757-.6-1.072-1.002-.216-.275-.383-.639-.491-1.081-.089-.373-.089-.678 0-.963.058-.275.138-.393.177-.442.019-.049.157-.177.392-.423l.089-.835-.324-.472-.885-.127-5.345 4.078-.126.854.323.452.796.197c.384-.217.708-.335.934-.393h.068c.344-.03.648 0 .982.058 1.09.138 2.624.885 4.56 2.182l13.449 9.117.728-.01.334-.255.206-.659-5.934-18.961c-.157-.501-.226-1.002-.285-1.405 0-.364.068-.658.187-.894.098-.256.314-.482.589-.689l.344-.264.117-.875zm20.819 11.918-.225.147-6.917-14.138c-.581-1.159-.728-2.082-.492-2.781.158-.52.54-.893 1.179-1.217l2.24-1.081.295-.825-.266-.531-.806-.295-12.988 6.357-.275.825.275.531.836.285 2.17-1.101c.355-.157.649-.255.963-.294.375-.02 1.505-.167 2.643 2.191l6.937 14.118-.423.196a3.252 3.252 0 0 1-1.276.364c-1.21.147-2.545-.354-3.96-1.405-1.022-.747-2.014-1.769-3.006-3.036-.276-.442-.738-1.11-1.346-2.083l-.777-.226-.363.167-.285.835 4.765 9.756.825.276 17.399-8.509.287-.835-4.777-9.736-.785-.295-.314.128-.354.796c.983 2.446 1.405 4.755 1.316 6.887-.137 2.299-.943 3.792-2.495 4.529m19.09-7.173-.777-.353-.462.118a2.473 2.473 0 0 1-.637.157c-.493.069-.905 0-1.278-.226-.52-.373-.993-1.12-1.376-2.259l-4.007-11.8c-.375-1.091-.462-1.975-.266-2.604.216-.569.667-.982 1.473-1.238l.443-.167.373-.746-.217-.58-.757-.393-9.883 3.36-.353.776.196.541.776.383.432-.128c.237-.088.423-.118.639-.157.481-.068.895.029 1.297.255.54.344 1.012 1.12 1.385 2.221l.511 1.532.108.325.334.972.245.727.423 1.15 1.562 4.697.963 2.829c.138.56.207 1.061.236 1.444 0 .305-.059.58-.196.825-.217.541-.668.924-1.396 1.16l-.431.147-.404.756.217.56.766.384 9.864-3.351.354-.776zm22.017-3.615-.599-.481a3.288 3.288 0 0 1-1.474-.354c-.501-.275-.982-.706-1.444-1.267a16.983 16.983 0 0 1-1.612-2.535l-8.075-14.875-.571-.344-.392.059-.56.472-3.361 18.893c-.324 1.945-.953 3.016-1.857 3.144l-.569.098-.511.708.108.55.698.511 9.53-1.582.481-.707-.079-.541-.688-.521-1.169.187c-.431.039-.678 0-.854-.118-.265-.137-.354-.364-.412-.717-.06-.393-.041-.933.039-1.562l2.043-11.633 4.707 8.725c.382.697.657 1.346.736 1.896.157.737.049 1.316-.206 1.758-.246.443-.639.707-1.198.836l-.473.697.118.57.689.491 6.601-1.071.491-.707zm20.524-20.239-18-.874-.629.58-.039.54.571.668.452.049c1.109.069 2.367.491 2.22 3.429L.58-247.575c-.06 1.199-.286 2.053-.728 2.544-.343.423-.835.61-1.503.62h-.314l-.442-.01-.649.569-.03.58.571.629 17.557.864.657-.589.414-8.282-.59-.649h-.374l-.618.433c-.384 1.395-.708 2.456-.982 3.163a9.507 9.507 0 0 1-1.032 1.868c-.471.637-.963 1.099-1.475 1.384-.697.324-1.552.511-2.474.531a5.72 5.72 0 0 1-.807 0l-2.613-.148.413-8.911h.255c1.061.049 1.887.698 2.466 1.975.344.707.56 1.552.688 2.515.078.472.138 1.071.177 1.896l.559.6.443.019.648-.589.668-14.01-.579-.629-.403-.02-.668.501c-.117.747-.275 1.444-.383 2.083-.188.619-.334 1.12-.511 1.523-.186.354-.402.747-.639 1.12-.551.806-1.307 1.248-2.24 1.257h-.383l.383-8.321 2.103.098c.746.02 1.415.148 2.043.295a5.42 5.42 0 0 1 1.503.697c.452.325.885.698 1.268 1.189.668.806 1.179 1.818 1.532 3.007.187.737.384 1.69.61 2.898l.56.511.471.019.599-.589.424-8.783zm40.724 12.448-9.963-3.841-.767.344-.254.56.382.795.659.246c.766.295 1.219.727 1.375 1.307.197.648.1 1.523-.323 2.603l-4.068 10.513.196-17.026-.412-.59-.373-.128-.668.157-11.397 12.694 3.831-9.844c.315-.816.688-1.475 1.14-1.926.433-.413.874-.707 1.385-.806.216-.049.441-.068.639-.068a4.1 4.1 0 0 1 1.139.216l.786-.374.217-.54-.354-.796-7.251-2.8-.796.354-.226.57.511.854c.825.315 1.317.816 1.542 1.612.256.825.148 1.847-.303 2.996l-4.294 11.063c-.402 1.1-.903 1.837-1.474 2.161-.285.187-.58.236-.934.236-.274 0-.629-.049-.982-.196l-.55-.207-.786.354-.197.511.335.796 6.455 2.476.677-.148 10.631-11.829-.148 15.867.404.58 6.11 2.368.776-.364.206-.52-.353-.806-.55-.197c-.786-.314-1.248-.737-1.435-1.326-.177-.629-.049-1.513.373-2.613l4.48-11.603c.423-1.091.895-1.818 1.475-2.152.285-.177.609-.275.953-.275.295.01.618.078.972.236l.551.196.815-.354.196-.54zm15.003 9.049-8.745-5.659-.846.186-.303.502.157.864.413.226c.677.442 1.03.973 1.08 1.582.069.638-.245 1.483-.865 2.486l-.883 1.355-.295.462-.472.708-.914 1.414-2.917 4.481-1.563 2.407a8.464 8.464 0 0 1-.962 1.051c-.266.206-.512.334-.796.393a1.94 1.94 0 0 1-.491.088c-.384-.02-.827-.177-1.288-.462l-.363-.255-.855.167-.304.462.176.855 8.763 5.678.816-.186.305-.472-.167-.845-.403-.255c-.678-.443-1.052-.963-1.11-1.562-.049-.659.256-1.484.914-2.486l6.749-10.434c.659-1.002 1.318-1.582 1.916-1.818.197-.059.404-.108.61-.108.392.02.824.167 1.237.452l.404.275.835-.186.343-.492zm18.785 15.838-.266-.285-.55-.158-21.507 4.078 7.349-8.057c.786-.854 1.483-1.493 2.083-1.807.511-.335 1.061-.492 1.532-.462.522.01.963.186 1.366.462.325.167.669.442 1.13.796l.796-.06.413-.442-.058-.835-6.387-5.816-.825.059-.423.403.04.845c.53.56.892 1.109 1.051 1.631a2.636 2.636 0 0 1-.109 1.572c-.255.599-.687 1.247-1.316 1.915l-8.115 8.951c-.453.471-.894.815-1.347.982-.284.089-.55.157-.845.157-.147-.009-.274-.009-.431-.068-.443-.089-.866-.325-1.317-.708l-1.021-.098-.384.413.029.835 4.923 4.499.521.138 17.045-3.291-4.982 5.453c-.706.766-1.404 1.365-2.111 1.778-.629.314-1.208.462-1.768.462-.491-.04-.757-.078-.992-.187-.149-.089-.462-.246-.963-.609l-.845.068-.373.423.048.865 6.043 5.521.854-.029.403-.423-.137-.982c-.748-.659-1.022-1.415-.865-2.358.167-1.022.873-2.211 2.053-3.478l10.326-11.289zm15.601 20.956c-.304-1.346-.894-2.662-1.728-3.871l-6.771-9.589-.834-.177-.482.334-.157.855.353.481c.453.698.61 1.307.443 1.886-.217.659-.796 1.317-1.778 1.985l-10.18 7.143c-.932.668-1.728.963-2.406.963-.649-.03-1.179-.354-1.651-1.042l-.334-.501-.854-.137-.453.324-.147.845 6.298 8.98c1.041 1.532 2.25 2.721 3.528 3.478 1.316.835 2.819 1.277 4.43 1.326.196.01.383.01.608.01 1.161.029 2.359-.157 3.538-.482a12.422 12.422 0 0 0 3.812-1.827c1.278-.914 2.338-1.965 3.154-3.134a10.963 10.963 0 0 0 1.631-3.802 10 10 0 0 0-.02-4.048m11.043 18.981a8.295 8.295 0 0 0-1.247-2.004c-.511-.56-1.21-1.169-2.143-1.837-.52-.423-.894-.757-1.12-.993a2.195 2.195 0 0 1-.421-.609c-.188-.363-.208-.717-.05-1.07.148-.384.413-.757.914-1.081l.206-.776-.157-.364-.806-.314-9.03 4.136-.274.776.157.403.757.334a9.86 9.86 0 0 1 3.566-.56 7.8 7.8 0 0 1 1.179.089c.924.137 1.886.471 2.84.922.962.472 1.797 1.032 2.504 1.691.709.638 1.229 1.297 1.553 2.004.265.629.413 1.228.384 1.837a3.06 3.06 0 0 1-.521 1.621 3.39 3.39 0 0 1-1.336 1.101 3.17 3.17 0 0 1-1.21.245c-.196 0-.412-.059-.578-.088a2.511 2.511 0 0 1-.885-.364 9.772 9.772 0 0 1-1.159-.894c-.433-.383-.992-.963-1.69-1.68l-.865-.913c-1.434-1.435-2.397-2.398-3.026-2.918-.736-.58-1.365-1.022-1.955-1.297-.57-.275-1.228-.442-2.004-.521-.127-.01-.314-.01-.472-.01-.874-.02-1.729.157-2.584.511a7.172 7.172 0 0 0-2.81 2.289 6.422 6.422 0 0 0-1.149 3.301c-.109 1.209.157 2.428.687 3.586.767 1.73 2.241 3.282 4.314 4.54.825.53.963.716.963.727.147.363-.551.952-.894 1.208l-.167.717.157.383.815.305 6.672-3.036.314-.815-.186-.393-.649-.335a23.762 23.762 0 0 1-3.272.256c-.364-.01-.708-.049-1.002-.079-.737-.108-1.485-.373-2.181-.746a7.227 7.227 0 0 1-1.936-1.474c-.579-.59-1.032-1.287-1.385-2.004a3.508 3.508 0 0 1-.353-1.474c0-.471.117-.914.353-1.356.167-.275.364-.58.648-.854.246-.256.512-.433.766-.58.354-.147.688-.226 1.051-.207.167 0 .326.03.512.06.265.078.531.186.826.383.334.226.726.53 1.149.943.422.422.991 1.041 1.709 1.837.206.187.344.315.393.383l.452.511.657.727c1.102 1.199 2.054 2.093 2.771 2.613.718.531 1.524.885 2.427 1.101.404.108.855.167 1.278.167.274 0 .54 0 .825-.02.757-.069 1.523-.294 2.24-.619a8.713 8.713 0 0 0 2.014-1.375c.6-.59 1.11-1.218 1.464-1.906.501-.963.747-1.965.728-2.997 0-1.021-.256-2.063-.728-3.144m6.828 65.885-.697.433a5.956 5.956 0 0 1-.589 1.277 3.536 3.536 0 0 1-.855.972c-.295.295-.737.6-1.258.875-.55.314-1.179.589-1.818.835l-7.554 2.839-4.923-.845c-1.149-.167-1.965-.53-2.447-1.022-.382-.46-.541-1.06-.382-1.866l.186-1.091-.501-.717-.629-.098-.687.491-1.975 11.624.491.677.608.098.709-.491.186-1.14c.167-.786.462-1.326 1.002-1.621a2.981 2.981 0 0 1 1.336-.304c.384 0 .806.039 1.307.127l4.383.747 7.653 6.258c.933.747 1.531 1.415 1.826 1.985.247.57.315 1.287.178 2.073l-.059.295.52.697.551.109.727-.511 1.778-10.405-.512-.727-.54-.089-.697.462-.196 1.209c-.05.344-.167.619-.325.727-.087.088-.215.108-.374.128-.313-.04-.431-.089-.52-.167-.216-.069-.589-.403-1.208-.875l-5.679-4.598 5.777-2.191c.6-.245 1.14-.363 1.533-.383.128 0 .236.02.324.049.501.049.865.295 1.12.658.236.354.315.787.236 1.307l-.187 1.071.521.717.54.079.708-.491 1.435-8.381-.512-.707z" style="fill:#880827;fill-opacity:1;fill-rule:nonzero;stroke:none" transform="translate(351.51 667.387)"/><path d="M0 0c.413-.265.875-.363 1.345-.413.158 0 .315 0 .492.03.707.088 1.514.403 2.368 1.002 1.228.786 1.925 1.661 2.17 2.613.167.934-.097 2.034-.883 3.194L3.223 9.923-3.97 5.266l2.241-3.429C-1.179.973-.581.364 0 0" style="fill:#880827;fill-opacity:1;fill-rule:nonzero;stroke:none" transform="translate(257.92 465.831)"/><path d="M0 0c1.062 1.022 1.563 1.995 1.563 2.987-.039 1.002-.61 2.161-1.759 3.35-1.189 1.267-2.339 1.935-3.419 1.935-.089.01-.197.01-.295 0a2.347 2.347 0 0 1-1.18-.392c-.451-.246-.923-.59-1.464-1.091L-8.409 5.06l6.455-6.887Z" style="fill:#880827;fill-opacity:1;fill-rule:nonzero;stroke:none" transform="translate(274.081 618.509)"/></g><path d="m0 0 3.89-2.928 2.27 7.113Z" style="fill:#880827;fill-opacity:1;fill-rule:nonzero;stroke:none" transform="matrix(.56772 0 0 -.56772 54.093 148.362)"/><g clip-path="url(#b)" transform="matrix(.56772 0 0 -.56772 -104.169 396.565)"><path d="M0 0c.775-.658 1.542-1.042 2.21-1.179.207-.069.443-.098.639-.098.413 0 .806.098 1.218.304.64.246 1.307.825 1.945 1.631 1.847 2.26 1.652 4.156-.579 5.944L2.181 9.216l-5.345-6.642Z" style="fill:#880827;fill-opacity:1;fill-rule:nonzero;stroke:none" transform="translate(423.693 622.41)"/><path d="M0 0c.481-.943 1.022-1.935 1.739-2.967A20.05 20.05 0 0 1 4.402-6.16c.923-.874 1.798-1.552 2.711-2.004.866-.442 1.67-.659 2.408-.669h.029c.855.04 1.445.227 1.985.61.825.579 1.336 1.365 1.552 2.417.196 1.071.029 2.387-.472 3.851-.511 1.542-1.375 3.183-2.564 4.962-.825 1.129-1.641 2.141-2.526 2.976-.884.875-1.757 1.523-2.603 1.976-.844.451-1.631.736-2.407.785h-.471c-.246 0-.452-.03-.688-.059-.374-.118-.688-.245-.962-.433-.511-.353-.924-.775-1.229-1.335-.284-.56-.443-1.11-.443-1.759a8.955 8.955 0 0 1 .266-2.417C-.795 1.857-.471.953 0 0" style="fill:#880827;fill-opacity:1;fill-rule:nonzero;stroke:none" transform="translate(284.859 630.063)"/><path d="M0 0a22.733 22.733 0 0 1-2.74 1.68c-.965.452-1.789.757-2.575.924a7.424 7.424 0 0 1-2.014.275h-.196c-.54-.05-1.082-.158-1.523-.364-.472-.206-.904-.511-1.318-.894-.451-.423-.903-.963-1.385-1.641l-1.365-1.965L2.437-12.9l1.493 2.132c.472.737.835 1.356 1.121 1.896.196.521.334 1.022.353 1.533.03.471-.058.963-.236 1.464C4.569-3.93 2.839-1.985 0 0" style="fill:#880827;fill-opacity:1;fill-rule:nonzero;stroke:none" transform="translate(450.22 468.062)"/><path d="M0 0c-47.346 2.623-87.863-33.679-90.457-81.055-.56-10.217.678-20.131 3.488-29.395.01-.079.01-.138.059-.207 4.558-14.639 29.533-22.165 64.451-17.428 44.801 6.061 89.022 29.925 98.837 53.328 2.112 5.04 2.436 9.638 1.228 13.725a.399.399 0 0 0-.068.197C67.35-27.254 37.079-2.014 0 0" style="fill:#880827;fill-opacity:1;fill-rule:nonzero;stroke:none" transform="translate(356.315 616.289)"/><path d="M0 0c-23.963-2.928-43.67-.256-56.365 6.416 14-24.494 39.702-41.628 69.972-43.279 47.356-2.594 87.873 33.68 90.496 81.064a84.34 84.34 0 0 1-.068 10.346C90.241 29.376 45.587 5.6 0 0" style="fill:#880827;fill-opacity:1;fill-rule:nonzero;stroke:none" transform="translate(333.07 481.561)"/><path d="M0 0c0-8.469-7.053-14.295-16.721-14.295-9.963 0-16.693 6.405-16.693 14.266l.08 28.207h11.425V1.906c0-4.431 2.063-5.374 5.188-5.374 3.174 0 5.442 1.002 5.442 5.374l-.058 26.272H0Z" style="fill:#fff;fill-opacity:1;fill-rule:nonzero;stroke:none" transform="translate(329.65 525.773)"/></g><path d="m0 0-12.842 15.857-.599-.491V.069h-11.446v41.726h11.446V30.29l10.67 11.544h14.069L-4.245 23.422 14.079 0Z" style="fill:#fff;fill-opacity:1;fill-rule:nonzero;stroke:none" transform="matrix(.56772 0 0 -.56772 100.182 105.698)"/><g clip-path="url(#c)" transform="matrix(.56772 0 0 -.56772 -104.169 396.565)"><path d="M0 0h-17.203v-41.923h11.486v13.274H0c7.801 0 15.484 5.895 15.484 13.529C15.484-5.433 7.801 0 0 0m-.54-17.646h-5.158v6.514H-.54c2.092 0 4.372-.815 4.372-3.134 0-2.81-2.28-3.38-4.372-3.38" style="fill:#fff;fill-opacity:1;fill-rule:nonzero;stroke:none" transform="translate(391.271 554.284)"/></g></svg>