<svg xmlns="http://www.w3.org/2000/svg" width="166.1442mm" height="167.07436mm" viewBox="0 0 166.1442 167.07436"><path d="M0 0c-.38 0-.527.143-.617.249-.175.197-.208.41-.208.652h.259c0-.467.301-.606.563-.606.2 0 .539.066.539.437 0 .269-.1.357-.44.455l-.419.124c-.134.039-.434.155-.434.603 0 .404.204.798.702.798.715 0 .786-.539.796-.821H.485c-.017.397-.279.521-.508.521-.172 0-.469-.059-.469-.451 0-.217.123-.291.243-.326l.587-.169c.265-.079.465-.279.465-.687C.803.167.352 0 0 0m.531-4.424h-1.51v2.584H.51v-.309H-.703v-.792h1.12v-.309h-1.12v-.864H.531ZM-2.003 0c-.383 0-.529.143-.621.249-.173.197-.208.41-.208.652h.26c0-.467.302-.606.566-.606.199 0 .534.066.534.437 0 .269-.099.357-.435.455l-.421.124c-.134.039-.435.155-.435.603 0 .404.209.798.703.798.714 0 .786-.539.798-.821h-.259c-.016.397-.278.521-.509.521-.173 0-.466-.059-.466-.451 0-.217.123-.291.242-.326l.587-.169c.266-.079.463-.279.463-.687 0-.612-.45-.779-.799-.779m.435-4.427h-.277v1.209h-1.067v-1.209h-.279v2.587h.279v-1.07h1.067v1.07h.277zM-3.203.06h-1.508v2.591h1.488v-.313h-1.178v-.789h1.086v-.313h-1.086V.374h1.198zm-.346-2.209h-.693v-2.278h-.275v2.278h-.693v.309h1.661zm-1.513-7.463h-1.054v3.341h1.07c.685 0 1.108-.663 1.108-1.627 0-.748-.257-1.714-1.124-1.714M-6.2-17.606s-3.113-2.107-3.345-2.222c-.233-.117-4.21-2.649-4.594-2.881-.384-.233-1.231-.658-2.229-1.047-1-.383-1.173-.191-1.482-.135-.307.058-3.092 1.22-3.67 1.452-.577.234-4.709 1.874-5.075 2.011-.365.135-.442-.04-.442-.04s-.212-.326-.423-.541c-.211-.213-.211-.289-.634-.251-.423.038-1.941.987-2.037 1.12-.096.135.056.504.229.716.174.213.27.292.253.482-.022.196-.695.216-.944.273-.25.059-.27.154-.443.369-.171.211-.152 1.719-.057 2.588s.79.949.962 1.005c.173.059 2.365.793 3.248 1.064.884.271 2.441.824 2.441.824.436.157.5.127.768.013.271-.116 1.128-.309 1.526-.309.398 0 .962-.012.962.389 0 .396-1.039.344-1.039.344-1.676.08-2.164.623-2.524.84-.36.217-.769.979-1.423.939-.654-.038-1.613-2.177-3.64-2.113-2.025.066-3.141 2.075-3.55 2.978-.411.9-.742 3.12-.78 3.919-.039.797.228 2.306.295 2.498.064.194.23.812.357.824.128.015.103-.323.103-.323.064-1.675.655-3.89.655-3.89.422-1.34 1.869-1.959 2.575-1.909.702.052 1.306.491 1.744 1.393.434.903.228 2.731.228 2.731-.318 1.769-.728 2.5-.919 2.953-.195.452.113.462.306.425.191-.039.998-.03 1.346.014.41.051 1.126.236 1.492.391.365.153.442-.057.326-.444-.115-.386-.231-1.429-.231-1.429-.173-1.623.076-2.38.54-3.288.459-.907 1.769-1.142 2.305-1.005.539.135 1.077.698 1.442 1.953.366 1.255-.172 2.782-.232 3.016-.057.232.135.194.29.075.152-.115.751-.713 1.366-2.51.613-1.801.189-3.364-.116-4.37-.308-1.005-.77-1.297-1.191-1.411-.426-.117-.768.195-.922.271-.157.077-.789.891-1.02 1.14-.231.25-.481.077-.638-.019-.151-.099-.42-.406-.592-.697-.174-.289.057-.483.057-.483s.481-.504.923-.831c.44-.33 1.21-.096 1.537-.096.325 0 .596-.192.886-.426.288-.232.363-.25.479-.232.114.021 1.537.408 1.903.504.364.097 1.307.425 2.347.386 1.037-.038 2.787-.598 3.362-.754.576-.154 5.497-1.837 5.749-1.934.25-.093 1.228-.271 1.25-.618.016-.348-.502-.675-.599-.755-.096-.076-1.921-1.196-1.921-1.196l-6.673-3.983c-.901-.602-2.323.02-2.496.075-.33.109-2.633 1.141-2.633 1.141s-3.902 1.607-6.208 2.534c-2.307.926-2.925.869-3.212.638-.288-.23-.307-.929-.288-1.684.019-.752.115-.886.71-1.293.598-.408.771-.173.905-.078.134.095.364.599.655 1.163.286.556.518.556 1.017.42.135-.035 5.613-2.259 7.477-3.013 1.865-.751 2.211-.814 2.981-.849a2.746 2.746 0 0 1 1.459.326c.135.078 5.768 3.443 5.863 3.499.097.058 2.326 1.468 2.557 1.219.23-.254-.25-.504-.25-.504l-7.458-5.026c-1.594-.87-2.288-.909-3.499-.966-1.21-.057-2.343.368-2.343.368s-4.597 1.873-4.808 1.954c-.211.076-.308.27-.23.402.078.136.385.021.385.021s5.15-1.992 5.438-2.106c.291-.115.712-.271.808-.078.098.192-.46.446-.46.446s-6.055 2.357-6.574 2.57c-.518.211-.711-.289-.673-.87.038-.58.518-.563.518-.563s4.442-1.95 4.787-2.087c.346-.134 2.69-1.14 3.845-1.1 1.153.037 2.116.715 2.287.812.174.097 2.613 1.604 2.613 1.604l5.269 3.344s1.172.871 1.324.639c.154-.232-.633-.716-.633-.716M-30.94 2.866c1.46 2.664 5.14 5.501 5.14 5.501s.679.489.87.607c.193.114.809.489 1.27.605.461.117.18-.142.18-.142-.245-.091-1.411-1.097-1.411-1.097-.396-.615-.487-1.004-.139-1.054.287-.045.898.489 1.281.786.384.295 2.357 1.544 2.753 1.766.399.218 2.014 1.031 3.103 1.467 1.088.439 4.022 1.356 4.022 1.356.91.271.552-.077.499-.13-.05-.051-.358-.272-.715-.604-.358-.337-.795-1.111-.923-1.639-.128-.527.115-.45.397-.282.282.165.921.721 1.59 1.39.666.672 1.408 2.063 1.793 2.876.385.81.425 1.352.425 1.352.255.477.344.193.255-.282-.089-.479-.796-2.1-1.09-2.693-.295-.596-1.27-1.856-2.294-2.658a4.981 4.981 0 0 0-2.729-1.055c-.641-.04-.333.282.024.401.361.114.912.527 1.155.913.244.386.653 1.352.936 1.712.281.363-.785-.112-2.922-.925-2.139-.813-5.089-2.658-5.383-2.864-.295-.203-3.459-2.755-4.026-3.245-.562-.492-1.471-1.599-1.766-2.115-.294-.515-.538-.463-.179.454.359.914 1.256 1.8 1.538 1.995.282.194-.218.423-.487.592-.27.168-.744-.512-.744-.512-.628-.826-2.396-3.519-3.076-5.336-.342-.917-.331-.504-.331-.504s-.346.929.984 3.364m14.878-1.122c-1.217-.826-2.203-2.709-2.526-3.519-.317-.81-.703-1.481-.716-1.081-.01.397.09.99.552 2.098.461 1.111 1.908 2.525 1.908 2.525s1.001.763 1.104.829c.102.06.627.45.806.232.179-.221.092-.26-1.128-1.084m2.21-8.015h.393v-2.94h1.299v-.401h-1.692zm-.037 4.431h.277v-1.623c0-.563.271-.719.519-.719.254 0 .539.15.539.709v1.633h.275v-1.673c0-.531-.262-.979-.822-.979-.553 0-.788.448-.788.929zm1.34 3.42v1.071h.276V.06h-.276v1.208h-1.067V.06h-.276v2.591h.276V1.58Zm2.934 14.289c.193.023.356-.424.333-1.352-.026-.929-.204-1.471-.642-2.823-.434-1.355-.895-1.987-1.804-3.106-.912-1.123-2.231-1.872-3-2.28-.768-.417-.32-.607.155-.71.472-.103 1.099.168 1.497.374.399.206 1.295.913 1.489 1.043.191.129.076-.218-.092-.478-.166-.256-.947-.852-1.231-1.042-.28-.195-2.369-1.536-2.728-1.716a21.036 21.036 0 0 1-1.641-.978c-.295-.205-1.205-1.291-1.37-1.533-.167-.246-.527-.644-.77-.762-.231-.109-.216.104-.088.398.126.3.997 1.267.997 1.267.936 1.082 2.525 1.853 3.156 2.2.626.349.306.608.306.608-1.307.706-3.625-1.276-3.665-1.303-.039-.026-.693-.593-.794-.397-.102.191.574.887.908 1.146.334.257 1.398 1.108 3.449 2.138 2.051 1.033 2.5 1.689 3.357 2.694.857 1.004 1.126 1.78 1.537 2.823.41 1.042.5 2.823.5 2.976 0 .156-.051.786.141.813M-8.107.374V.06h-1.312v2.591h.297V.374Zm.262 2.277h.309V.06h-.309zm-1.011-8.922h1.222c.433 0 .866-.192.866-.898 0-.493-.197-.676-.37-.802.151-.078.301-.16.317-.628l.02-.604c.003-.185.024-.256.134-.337v-.072h-.437c-.05.206-.063.714-.063.836 0 .274-.043.598-.467.598h-.869v-1.434h-.353zm-1.741.079c.989 0 1.29-1.034 1.29-1.75 0-.72-.301-1.756-1.29-1.756-.987 0-1.287 1.036-1.287 1.756 0 .716.3 1.75 1.287 1.75m-1.21 7.546c0 .558.23 1.358.998 1.358.763 0 .996-.8.996-1.358C-9.813.8-10.046 0-10.809 0c-.768 0-.998.8-.998 1.354m.293-3.194 1.023-2.088h.009v2.088h.266v-2.584h-.31l-1.043 2.086h-.004v-2.086h-.267v2.584zm1.632-.309v.309h1.659v-.309h-.692v-2.278h-.276v2.278zm3.706-.984c0-.555-.234-1.359-.999-1.359-.766 0-1 .804-1 1.359 0 .558.234 1.358 1 1.358.765 0 .999-.8.999-1.358m-.68 5.784h.327l1.024-2.09h.006v2.09h.267V.06h-.31l-1.04 2.091h-.006V.06h-.268zm-11.05 15.542c-12.351 0-22.363-10.068-22.363-22.49 0-12.42 10.012-22.487 22.363-22.487 12.35 0 22.363 10.067 22.363 22.487 0 12.422-10.013 22.49-22.363 22.49" style="fill:#b01419;fill-opacity:1;fill-rule:nonzero;stroke:none" transform="matrix(2.60549 0 0 -2.60549 129.728 73.447)"/><path d="M0 0c17.294 0 31.316 14.105 31.316 31.495C31.316 48.888 17.294 62.99 0 62.99c-17.293 0-31.317-14.102-31.317-31.495C-31.317 14.105-17.293 0 0 0Z" style="fill:none;stroke:#b01419;stroke-width:1.134;stroke-linecap:butt;stroke-linejoin:miter;stroke-miterlimit:4;stroke-dasharray:none;stroke-opacity:1" transform="matrix(2.60549 0 0 -2.60549 83.073 165.597)"/><path d="M0 0c0 .516-.299.556-.475.556h-.893v-1.13h.831C-.275-.574 0-.491 0 0" style="fill:#b01419;fill-opacity:1;fill-rule:nonzero;stroke:none" transform="matrix(2.60549 0 0 -2.60549 111.138 92.25)"/><path d="M0 0c.575 0 .922.568.922 1.352 0 .784-.347 1.353-.922 1.353-.575 0-.921-.569-.921-1.353S-.575 0 0 0" style="fill:#b01419;fill-opacity:1;fill-rule:nonzero;stroke:none" transform="matrix(2.60549 0 0 -2.60549 102.118 97.661)"/><path d="M0 0h-.665v-2.566h.691c.463 0 .765.46.765 1.303C.791-.421.485 0 0 0" style="fill:#b01419;fill-opacity:1;fill-rule:nonzero;stroke:none" transform="matrix(2.60549 0 0 -2.60549 116.454 90.801)"/><path d="M0 0c.444 0 .712.44.712 1.046 0 .608-.268 1.051-.712 1.051-.447 0-.715-.443-.715-1.051C-.715.44-.447 0 0 0" style="fill:#b01419;fill-opacity:1;fill-rule:nonzero;stroke:none" transform="matrix(2.60549 0 0 -2.60549 101.565 72.645)"/><path d="M0 0c.447 0 .715.44.715 1.049 0 .606-.268 1.049-.715 1.049-.447 0-.714-.443-.714-1.049C-.714.44-.447 0 0 0" style="fill:#b01419;fill-opacity:1;fill-rule:nonzero;stroke:none" transform="matrix(2.60549 0 0 -2.60549 111.033 84.342)"/><path d="m0 0 .633.963.174.022S.826.888.943.772C1.058.657 3.401-.907 3.401-.907s.157-.041.211 0c.059.035 1.097 2.085 1.175 2.28.077.193.306.752.306.752l.828-.369-1.385-2.76c-.135-.271-.845-1.491-.845-1.491Z" style="fill:#b01419;fill-opacity:1;fill-rule:nonzero;stroke:none" transform="matrix(2.60549 0 0 -2.60549 15.862 49.007)"/><path d="m0 0 5.403-3.559.615.97L3.52-.966l.519.868-.616.446-.597-.851S1.117.598 1.042.713C.963.831.865 1.002.81.984.751.967.674.946.616.849.561.752 0 0 0 0" style="fill:#b01419;fill-opacity:1;fill-rule:nonzero;stroke:none" transform="matrix(2.60549 0 0 -2.60549 21.968 37.167)"/><path d="m0 0 .941.504s.288.017.308-.038c.018-.059-.02-.271.018-.386.04-.118.346-1.276 1.768-1.721 0 0 .673-.289 1.693-.407L4.38-3.091s-1.921.368-2.44.852c0 0-.056-1.899-.499-2.551H.304s.522.963.501 1.911C.787-1.93.653-1.099 0 0" style="fill:#b01419;fill-opacity:1;fill-rule:nonzero;stroke:none" transform="matrix(2.60549 0 0 -2.60549 37.452 22.167)"/><path d="m0 0 .925.501s.305.06.305-.059c0-.114.058-.327.098-.404.038-.077 1.056-1.817 1.056-1.817l.826.465.404-.64-.846-.521 1.461-2.493-.977-.6z" style="fill:#b01419;fill-opacity:1;fill-rule:nonzero;stroke:none" transform="matrix(2.60549 0 0 -2.60549 44.958 17.023)"/><path d="m0 0 1.04.215s.211-.059.211-.176c0-.115-.039-.328 0-.501.038-.175.863-3.596.863-3.596L1.02-4.29Z" style="fill:#b01419;fill-opacity:1;fill-rule:nonzero;stroke:none" transform="matrix(2.60549 0 0 -2.60549 72.903 7.005)"/><path d="m0 0 2.846.657.422-1.993-1.711-.385.155-.674s1.596.423 1.94.656l.308-.754S1.616-3.344.845-3.46L.309-1.315l1.749.425-.135.541L.174-.734Z" style="fill:#b01419;fill-opacity:1;fill-rule:nonzero;stroke:none" transform="matrix(2.60549 0 0 -2.60549 59.533 11.233)"/><path d="m0 0 .751.195-.384 1.564 1.036.195s.174-.059.155-.156c-.019-.098 0-.386.039-.522.039-.135.673-2.899.673-2.899l-1.039-.251L.903-.58l-.71-.152Z" style="fill:#b01419;fill-opacity:1;fill-rule:nonzero;stroke:none" transform="matrix(2.60549 0 0 -2.60549 68.046 12.848)"/><path d="M0 0s.134-.521-.365-1.064c-.499-.541-1.076-1.024-2.019-1.179l.885-.656s.944.368 1.499.851c.558.481.73.793.789.945 0 0 .557-.388 1.017-.483A5.256 5.256 0 0 1 3.46-1.7l.5.966s-.633-.118-1.19-.08c-.559.043-1.062.098-1.366.427 0 0-.134.098-.115.426z" style="fill:#b01419;fill-opacity:1;fill-rule:nonzero;stroke:none" transform="matrix(2.60549 0 0 -2.60549 69.8 18.435)"/><path d="m0 0-.749-4.487s1.998-.425 3.381-.328l.039.793s-.826-.038-2.056.173l.458 2.904 1.598-.234.116.752z" style="fill:#b01419;fill-opacity:1;fill-rule:nonzero;stroke:none" transform="matrix(2.60549 0 0 -2.60549 89.436 8.21)"/><path d="m0 0-.942-5.954 1.058-.233.443 2.593.673-.097-.463-2.806 1.134-.211s.923 5.588.943 5.684c.019.096.038.253.096.326.059.08.097.195-.058.253-.154.056-1.056.251-1.056.251l-.48-2.725-.655.076.27 1.857s.131.368.151.406c.022.039.098.25-.056.309C.905-.211 0 0 0 0" style="fill:#b01419;fill-opacity:1;fill-rule:nonzero;stroke:none" transform="matrix(2.60549 0 0 -2.60549 98.898 8.663)"/><path d="M0 0c-.23-.156-.309-.197-.883.233-.673.501-.365.792-.365.792.229.212.633-.021.922-.25C-.038.542.233.156 0 0m0 1.297s-1.324 1.217-2.112.559C-2.901 1.2-1.673 0-1.345-.211c0 0 1.382-1.221 2.171-.6 0 0 1.02.676-.826 2.108" style="fill:#b01419;fill-opacity:1;fill-rule:nonzero;stroke:none" transform="matrix(2.60549 0 0 -2.60549 120.484 25.337)"/><path d="m0 0-.458-.501 1.997-1.546.422.501z" style="fill:#b01419;fill-opacity:1;fill-rule:nonzero;stroke:none" transform="matrix(2.60549 0 0 -2.60549 120.735 15.818)"/><path d="m0 0-.444-.504 3.77-2.918.421.54z" style="fill:#b01419;fill-opacity:1;fill-rule:nonzero;stroke:none" transform="matrix(2.60549 0 0 -2.60549 116.881 16.115)"/><path d="m0 0-2.478-3.327.943-.733.785 1.042.79-.541.423.58-.75.581.981 1.297.25.173s.021.056-.076.153S0 0 0 0" style="fill:#b01419;fill-opacity:1;fill-rule:nonzero;stroke:none" transform="matrix(2.60549 0 0 -2.60549 129.346 21.706)"/><path d="m0 0-.481-.581 3.653-2.743-.694-.908.943-.716L4.575-3.48Z" style="fill:#b01419;fill-opacity:1;fill-rule:nonzero;stroke:none" transform="matrix(2.60549 0 0 -2.60549 112.974 23.977)"/><path d="m0 0-.614-.327L2.23-4.561S.96-5.527-.306-5.973l.613-1.004s1.732.54 3.288 1.817z" style="fill:#b01419;fill-opacity:1;fill-rule:nonzero;stroke:none" transform="matrix(2.60549 0 0 -2.60549 138.714 33.85)"/><path d="m0 0-1.982-1.332-.901 1.255-.595-.444L.807-6.688l.634.348-1.556 2.301 1.537 1.081s.174.041.308.076c.134.042.155.157.096.255-.058.093-.615.945-.615.945L-.827-3.055l-.422.737 1.307.928s.27.174.404.192c.134.02.308 0 .114.349C.384-.5 0 0 0 0" style="fill:#b01419;fill-opacity:1;fill-rule:nonzero;stroke:none" transform="matrix(2.60549 0 0 -2.60549 136.211 38.988)"/><path d="M0 0c.741 0 1.346.607 1.346 1.352A1.35 1.35 0 0 1 0 2.705a1.35 1.35 0 0 1-1.348-1.353A1.35 1.35 0 0 1 0 0" style="fill:#b01419;fill-opacity:1;fill-rule:nonzero;stroke:none" transform="matrix(2.60549 0 0 -2.60549 147.583 68.198)"/><path d="M0 0a1.35 1.35 0 0 1 1.345 1.352c0 .749-.602 1.353-1.345 1.353A1.352 1.352 0 0 1 0 0" style="fill:#b01419;fill-opacity:1;fill-rule:nonzero;stroke:none" transform="matrix(2.60549 0 0 -2.60549 17.267 68.198)"/><path d="m0 0 .027.833L4.436.69l-.027-.832-1.794.059 1.744-1.582-.034-1.077-1.753 1.688-2.66-1.642.035 1.071L1.921-.45l-.43.403z" style="fill:#b01419;fill-opacity:1;fill-rule:nonzero;stroke:none" transform="matrix(2.60549 0 0 -2.60549 8.58 79.714)"/><path d="M0 0c-2.054-.28-2.118-1.695-2.047-2.215.071-.524.506-1.868 2.558-1.589 2.053.279 2.118 1.691 2.048 2.216C2.488-1.067 2.052.279 0 0m.109-.827c1.225.164 1.614-.422 1.677-.868.06-.444-.161-1.115-1.387-1.284-1.225-.165-1.613.421-1.673.866-.059.448.16 1.117 1.383 1.286" style="fill:#b01419;fill-opacity:1;fill-rule:nonzero;stroke:none" transform="matrix(2.60549 0 0 -2.60549 14.219 87.958)"/><path d="m0 0 .234-.781 1.655.499.246-.825c.177-.594-.037-.693-.615-.867-.436-.132-.645-.231-.828-.342L.956-3.2l.111.033c.021.191.176.239.792.424.787.239.868.448.927.806.255-.331.717-.426 1.184-.288.365.114 1.138.549.834 1.565l-.577 1.936Zm2.6-.069 1.131.34.297-.993c.14-.471-.161-.659-.387-.727-.418-.127-.635.029-.761.441Z" style="fill:#b01419;fill-opacity:1;fill-rule:nonzero;stroke:none" transform="matrix(2.60549 0 0 -2.60549 10.452 101.14)"/><path d="m0 0-.906 1.912-.839-.4.833-1.755-.705-.339-.832 1.76-1.034-.497.946-1.996-.704-.336-1.296 2.736 3.985 1.907L.704.341z" style="fill:#b01419;fill-opacity:1;fill-rule:nonzero;stroke:none" transform="matrix(2.60549 0 0 -2.60549 25.69 115.03)"/><path d="m0 0 .81-1.229-.618-.72.5-.757L3.596.922l-.528.802L-1.394.458l.484-.733Zm2.495.78L2.5.771 1.32-.611.758.237Z" style="fill:#b01419;fill-opacity:1;fill-rule:nonzero;stroke:none" transform="matrix(2.60549 0 0 -2.60549 21.693 122.25)"/><path d="m0 0 .55-.548-3.103-3.155-.589.591L-2.083.281l-.008.009-2.212-2.252-.549.549 3.101 3.154.622-.617-1.04-3.31.008-.008z" style="fill:#b01419;fill-opacity:1;fill-rule:nonzero;stroke:none" transform="matrix(2.60549 0 0 -2.60549 40.157 130.76)"/><path d="m0 0 1.195-.854-.319-.895.736-.521 1.411 4.43-.778.557-3.71-2.794.713-.509Zm2.047 1.629.009-.004-.608-1.718L.62.495Z" style="fill:#b01419;fill-opacity:1;fill-rule:nonzero;stroke:none" transform="matrix(2.60549 0 0 -2.60549 39.008 141.746)"/><path d="m0 0-2.721 1.507.378.686L.831 3.71l-1.75.97.377.687 2.661-1.474-.35-.64-3.225-1.552L.376.688Z" style="fill:#b01419;fill-opacity:1;fill-rule:nonzero;stroke:none" transform="matrix(2.60549 0 0 -2.60549 51.31 152.21)"/><path d="m0 0 1.372-.526-.087-.945.843-.322.26 4.648-.893.342-2.893-3.642.818-.312Zm1.573 2.095.012-.004L1.424.274.479.636Z" style="fill:#b01419;fill-opacity:1;fill-rule:nonzero;stroke:none" transform="matrix(2.60549 0 0 -2.60549 56.344 151.876)"/><path d="m0 0 .797-.173.361 1.704.838-.185c.6-.129.585-.365.456-.957-.093-.447-.107-.677-.097-.895l.898-.192.024.115c-.158.11-.124.265.009.898.173.812.027.983-.257 1.208.415.063.718.427.821.905.08.375.07 1.265-.964 1.489l-1.963.424Zm1.314 2.256.247 1.161 1.011-.213c.475-.103.497-.464.447-.693-.091-.428-.333-.549-.754-.458Z" style="fill:#b01419;fill-opacity:1;fill-rule:nonzero;stroke:none" transform="matrix(2.60549 0 0 -2.60549 64.039 156.969)"/><path d="m0 0-2.098.162-.072-.928 1.928-.15-.059-.784-1.931.151-.087-1.147 2.194-.17-.06-.784-3.005.236.339 4.426L.06.784z" style="fill:#b01419;fill-opacity:1;fill-rule:nonzero;stroke:none" transform="matrix(2.60549 0 0 -2.60549 83.441 150.036)"/><path d="m0 0 .771.068.377-4.423-.825-.07-1.884 3.014h-.011l.268-3.154-.771-.066-.379 4.419.873.077L.251-3.08h.01z" style="fill:#b01419;fill-opacity:1;fill-rule:nonzero;stroke:none" transform="matrix(2.60549 0 0 -2.60549 90.901 147.426)"/><path d="m0 0-2.047-.506.222-.908 1.881.465.186-.763-1.882-.461.276-1.116 2.137.525.187-.763-2.929-.723L-3.023.06l2.836.702z" style="fill:#b01419;fill-opacity:1;fill-rule:nonzero;stroke:none" transform="matrix(2.60549 0 0 -2.60549 101.956 147.159)"/><path d="M0 0c.543-1.031.219-1.768-.667-2.242-.322-.172-.847-.341-1.364-.119-.317.141-.558.419-.775.808l-1.367 2.599.748.401 1.338-2.549c.289-.546.7-.637 1.042-.454.501.269.563.651.315 1.125l-1.36 2.585.746.396z" style="fill:#b01419;fill-opacity:1;fill-rule:nonzero;stroke:none" transform="matrix(2.60549 0 0 -2.60549 120.144 144.89)"/><path d="m0 0 .623.462 2.618-3.573-.669-.494-3.171 1.581-.009-.006 1.866-2.549-.624-.463-2.617 3.573.704.525 3.095-1.552.007.008z" style="fill:#b01419;fill-opacity:1;fill-rule:nonzero;stroke:none" transform="matrix(2.60549 0 0 -2.60549 122.822 133.621)"/><path d="m0 0-.606-.57-3.009 3.247.607.572z" style="fill:#b01419;fill-opacity:1;fill-rule:nonzero;stroke:none" transform="matrix(2.60549 0 0 -2.60549 134.574 138.45)"/><path d="m0 0 .572.647 2.414-3.953-.524-.6-4.195 1.93.593.673 3.067-1.583.01.01z" style="fill:#b01419;fill-opacity:1;fill-rule:nonzero;stroke:none" transform="matrix(2.60549 0 0 -2.60549 131.868 124.385)"/><path d="m0 0-1.164-1.771.773-.514L.679-.659l.649-.434L.262-2.715l.954-.635 1.213 1.845.653-.43-1.664-2.531-3.682 2.449L-.654.431z" style="fill:#b01419;fill-opacity:1;fill-rule:nonzero;stroke:none" transform="matrix(2.60549 0 0 -2.60549 139.572 116.85)"/><path d="m0 0 .341.742-1.567.731.359.781c.259.56.486.494 1.032.238.413-.194.634-.259.846-.296l.385.836-.105.05c-.141-.13-.285-.063-.872.211-.746.346-.945.243-1.227.013.031.421-.255.798-.696 1.005-.344.161-1.213.351-1.656-.612l-.844-1.834Zm-1.902 1.786-1.07.5.435.944c.204.444.558.383.768.287.395-.188.458-.449.276-.842z" style="fill:#b01419;fill-opacity:1;fill-rule:nonzero;stroke:none" transform="matrix(2.60549 0 0 -2.60549 149 119.397)"/><path d="M0 0c.237-.069.715-.104.932.592.118.377.149.827-.296.968-.328.105-.508-.155-.738-.525L-.334.659C-.686.093-1.023-.454-1.951-.163c-.468.15-1.225.641-.839 1.877.367 1.168 1.307 1.214 1.825 1.058l-.237-.767c-.195.039-.661.115-.879-.58-.094-.3-.083-.701.299-.821.328-.103.475.117.566.265l.541.848c.302.476.686.881 1.442.64C2.035 1.959 1.783.754 1.679.42 1.244-.97.285-.93-.236-.764Z" style="fill:#b01419;fill-opacity:1;fill-rule:nonzero;stroke:none" transform="matrix(2.60549 0 0 -2.60549 150.646 106.68)"/><path d="m0 0-.15-.823-4.339.812.151.819z" style="fill:#b01419;fill-opacity:1;fill-rule:nonzero;stroke:none" transform="matrix(2.60549 0 0 -2.60549 156.69 97.171)"/><path d="m0 0-.077-.832-3.617.345-.113-1.205-.776.076.304 3.231.775-.072-.111-1.198z" style="fill:#b01419;fill-opacity:1;fill-rule:nonzero;stroke:none" transform="matrix(2.60549 0 0 -2.60549 157.547 89.499)"/><path d="m0 0 .042-.837-1.663-.082-2.676-1.515-.05.985 1.876.921-1.958.692-.046.946L-1.65-.086z" style="fill:#b01419;fill-opacity:1;fill-rule:nonzero;stroke:none" transform="matrix(2.60549 0 0 -2.60549 157.77 78.278)"/></svg>