<svg xmlns="http://www.w3.org/2000/svg" width="160.22264mm" height="213.70967mm" viewBox="0 0 160.22264 213.70967"><path d="M0 0c-1.499-.379-12.554-3.696-12.554-18.819 0-1.209.075-2.496.228-3.855v-103.701c-.043-.326-.122-1.049-.122-2.188 0-8.485 4.636-38.518 64.612-70.809 1.208-.794 19.396-12.306 34.672-.007 1.499.732 16.551 8.125 31.51 20.643 20.931 17.53 32.189 37.091 32.546 56.589v100.126c.159.6.489 2.117.489 4.155 0 4.88-1.944 12.555-12.996 16.895-1.013.538-15.668 8.205-39.877 12.245C75.903 15.06 40.482 16.154 0 0" style="fill:#0071bc;fill-opacity:1;fill-rule:nonzero;stroke:none" transform="matrix(.97735 0 0 -.97735 12.27 13.328)"/><path d="m0 0-.071.054-.085.044c-35.126 18.897-50.323 36.878-56.89 48.629-7.046 12.617-5.891 20.909-5.871 20.988l.012.133.009.132V173.9l-.018.107c-1.914 16.506 9.268 19.046 9.741 19.144l.15.026.15.062c39.727 15.89 74.486 14.831 96.65 11.152 24.05-3.996 38.877-11.865 39.031-11.945l.088-.053.102-.036c14.037-5.452 10.67-16.665 10.521-17.142l-.085-.257V74.364C92.615 29.58 31.81.423 31.192.141l-.191-.097-.162-.132C17.08-11.372.693-.469 0 0" style="fill:#024ea2;fill-opacity:1;fill-rule:nonzero;stroke:none" transform="matrix(.97735 0 0 -.97735 64.968 205.296)"/><path d="M0 0s-4.194-27.455-25.549-27.845c0 0-57.589-.759-15.263 15.643 0 0 5.346-8.011 9.538-8.391 0 0 6.483 1.518.762 5.339 0 0-10.675 6.484 3.433 3.423 0 0 20.976-4.191 11.443 3.061 0 0-29.366 0-23.645 4.57 0 0 .759 32.793 65.595 30.507 0 0-20.595-4.948-26.314-26.307m-28.72 27.799c-.169.018-.266.035-.266.035.081-.017.181-.026.266-.035 1.8-.193 12.365-.185 20.705 25.206 0 0 12.203-16.393 18.691-22.117 0 0-28.148-4.88-39.396-3.089M40.379-.874c-19.932 3.899 3.025 7.366 3.025 7.366 23.833 17.769-19.922 24.263-19.922 24.263 5.197 26.855 8.664 31.187 8.664 31.187 10.397 7.8-.431 5.197-.431 5.197-8.233 1.305-12.998-26.856-12.998-26.856C22.182 26.424.954 56.313.954 56.313c-12.558 17.319-47.645 9.096-47.645 9.096-18.198-.872-3.905-20.794-3.905-20.794-.816 13.295 2.245 13.295 2.245 13.295 15.432 12.793 32.687 3.044 32.687 3.044 6.092-2.029-5.28-19.895-5.28-19.895-9.135-16.233-21.112-11.16-21.112-11.16-9.14 2.232-21.928-4.058-21.928-4.058-6.494-2.038-3.251-4.473-3.251-4.473h9.749c3.652.607 7.512 2.232 7.512 2.232l23.754-.814c-27.411-11.37-16.448-32.28-16.448-32.28-9.948-.202-14.62-4.259-14.62-4.259-11.166-14.825 7.111-17.462 7.111-17.462 33.292-3.864 40.196 3.653 40.196 3.653C1.188-23.089 8.294-1.571 8.294-1.571c5.885 21.112 21.933 24.563 21.933 24.563l.2 1.622c11.367 0 12.578-7.304 12.578-7.304C44.026 8.99 29.001 6.556 29.001 6.556c-10.552-1.421-.405-7.72-.405-7.72 14.012-1.829 13.602-9.344 13.602-9.344 1.618-20.097-25.782-18.678-25.782-18.678-8.122.608-9.142 3.857-9.142 3.857 4.88-1.421 5.083.202 5.083.202 3.247 4.879-2.647 5.488-2.647 5.488-12.783-.813-5.881-9.751-5.881-9.751 28.625-7.71 37.762 2.64 37.762 2.64C63.52-11.32 40.379-.874 40.379-.874" style="fill:#fff;fill-opacity:1;fill-rule:nonzero;stroke:none" transform="matrix(.97735 0 0 -.97735 88.52 111.998)"/><path d="M0 0h16.824v-5.47c0-.494-.141-.846-.432-1.077-.238-.185-.615-.264-1.131-.264H1.557c-.525 0-.915.079-1.152.264C.136-6.316 0-5.964 0-5.47Zm13.67-2.232H3.131v-2.355H13.67ZM-1.064 8.523h3.19V3.979h11.509v4.57h3.189V5.973h2.575V3.715h-2.575V.821h-3.189v.908H.475c-.533 0-.912.089-1.151.274-.261.221-.388.582-.388 1.077z" style="fill:#fff;fill-opacity:1;fill-rule:nonzero;stroke:none" transform="matrix(.97735 0 0 -.97735 30.236 30.436)"/><path d="M0 0v4.887h-8.007v2.249h19.206V4.887H3.175V0Zm-4.196 10.781H7.37v1.297H-4.196Zm14.729-.874c0-.511-.14-.882-.41-1.094-.239-.177-.618-.264-1.13-.264H-5.846c-.51 0-.891.087-1.129.264-.252.212-.38.583-.38 1.094v5.585h3.159v-1.403H7.371v1.403h3.162z" style="fill:#fff;fill-opacity:1;fill-rule:nonzero;stroke:none" transform="matrix(.97735 0 0 -.97735 57.324 37.222)"/><path d="M0 0h7.345v9.82h2.973V5.047h1.305V9.82h3.049V-5.628h-3.049v8.363h-1.305v-8.363H7.345v3.37h-9.021c-.525 0-.919.098-1.156.283-.26.22-.383.581-.383 1.076V9.82h9.016V7.562H0Z" style="fill:#fff;fill-opacity:1;fill-rule:nonzero;stroke:none" transform="matrix(.97735 0 0 -.97735 74.19 31.678)"/><path d="M0 0h-3.183v4.35h-13.658V6.6H0Zm0 10.772V7.808h-3.183v7.631H0v-2.417h2.573v-2.25zm-13.512 1.509c-.422-.318-.634-.705-.634-1.156 0-.44.212-.821.634-1.128.403-.318.909-.477 1.505-.477.579 0 1.077.159 1.501.477.423.307.635.688.635 1.128 0 .451-.212.838-.635 1.156-.424.3-.922.441-1.501.441-.596 0-1.102-.141-1.505-.441m6.063.458c.211-.238.37-.485.47-.74.133-.291.209-.574.209-.855 0-1.122-.542-2.048-1.627-2.781-1.01-.678-2.207-1.013-3.591-1.013-1.398 0-2.617.335-3.639 1.013-1.107.733-1.656 1.659-1.656 2.781 0 .281.053.564.164.829.119.274.278.528.494.766h-1.31v2.109h4.243v1.421h3.393v-1.421h4.187v-2.109z" style="fill:#fff;fill-opacity:1;fill-rule:nonzero;stroke:none" transform="matrix(.97735 0 0 -.97735 109.447 37.18)"/><path d="M0 0v-2.259h-19.219V0h3.03v6.361h3.155V0h2.285v6.361h3.158V0h2.867v10.112h-13.362v2.258h16.542V0Z" style="fill:#fff;fill-opacity:1;fill-rule:nonzero;stroke:none" transform="matrix(.97735 0 0 -.97735 131.03 34.17)"/><path d="M0 0c-.865.089-1.521.282-1.976.564-.631.396-.772.874-.419 1.447.344.556 1.508 1.739 3.502 3.547l2.828 2.709c.882.864 1.385 1.394 1.5 1.588.132.212.177.476.124.802 1.159.134 2.034.017 2.615-.344.504-.298.472-1.252-.084-2.848-1.243-3.583-2.029-6.326-2.369-8.25C6.736.274 7.754 1.333 8.77 2.391c1.438 1.553 2.396 2.71 2.858 3.477.26.422.384.89.38 1.428.777-.026 1.414-.202 1.913-.503.663-.415.843-.873.522-1.396-.212-.35-.569-.747-1.063-1.213l-1.235-1.13c-.419-.399-1.69-1.624-3.799-3.689a62.138 62.138 0 0 0-1.072-1.042c-.44-.423-.763-.81-.961-1.138a2.403 2.403 0 0 1-.213-.52c-1.036-.069-1.8.053-2.315.361-.498.31-.698.927-.614 1.845.102.909.79 3.653 2.083 8.213C2.462 4.288.843 2.524.393 1.81.048 1.226-.084.626 0 0" style="fill:#fff;fill-opacity:1;fill-rule:nonzero;stroke:none" transform="matrix(.97735 0 0 -.97735 21.66 154.413)"/><path d="m0 0-.515-1.129c-.507-1.104-.49-1.792.044-2.064.392-.204.899-.291 1.508-.265-.122.749.159 1.782.831 3.097l1.357 2.673c.097.184.239.449.428.811.198.362.345.636.437.82.299.584.252.971-.136 1.173-.204.108-.474.196-.818.276l-.841.176C1.285 4.825.517 4.288-.008 3.954A252.45 252.45 0 0 0-5.214.329c-.22-.143-.366-.293-.436-.443-.123-.23-.022-.433.291-.581.287-.152.705-.266 1.244-.345.021.059.048.133.084.193.149.3.463.653.922 1.06.353.27.71.546 1.058.827zm2.343 4.49-.239-.494c-.026-.053-.044-.104-.075-.148a15.327 15.327 0 0 0-.426-.795c-.244-.45-.416-.758-.504-.935L.83 1.579.477.875l-1.695.854A65.963 65.963 0 0 0 2.343 4.49" style="fill:#fff;fill-opacity:1;fill-rule:nonzero;stroke:none" transform="matrix(.97735 0 0 -.97735 33.89 158.44)"/><path d="M0 0c-1.549-2.173-2.439-3.521-2.678-4.078a2.544 2.544 0 0 1-.176-.855 2.985 2.985 0 0 0-1.213.212c-.477.202-.636.485-.49.828.093.23.671.989 1.72 2.267.208.266.808 1.06 1.782 2.402.186.254.376.511.566.767.224.309.386.583.489.827.093.203.11.435.066.699.622.079 1.152.035 1.584-.151.318-.14.441-.441.339-.908a211.226 211.226 0 0 1-.944-5.338C2.25-2.506 3.428-1.721 4.561-.99 5.559-.318 6.109.147 6.215.404c.032.069.053.168.072.291A3.973 3.973 0 0 0 7.578.388c.442-.187.601-.425.482-.706a3.088 3.088 0 0 0-.353-.531L7.3-1.368c-2.064-2.789-3.296-4.66-3.691-5.605a1.252 1.252 0 0 1-.107-.616c-.493-.035-.925.027-1.297.187-.44.192-.583.466-.423.838.12.28.498.89 1.137 1.817L4.94-1.792C2.36-3.486.912-4.564.586-5.021c-.432-.044-.75-.038-.957.053-.233.106-.318.396-.26.881.053.494.154 1.139.287 1.942C-.164-1.156-.052-.441 0 0" style="fill:#fff;fill-opacity:1;fill-rule:nonzero;stroke:none" transform="matrix(.97735 0 0 -.97735 40.147 158.275)"/><path d="M0 0c.272-.051.591-.079.957-.096.564-.468.719-1.068.462-1.791A2.286 2.286 0 0 0 .563-3.06c-.391-.284-.797-.352-1.216-.203-.284.098-.596.274-.959.538zm5.227 1.925c.343.997-.238 1.763-1.765 2.294-1.297.449-2.408.582-3.331.396a1.215 1.215 0 0 0-.044-.689c-.321-.934-1.518-2.99-3.573-6.157a1.936 1.936 0 0 1-.269-.521c-.111-.308.048-.529.48-.679.085-.035.209-.051.377-.079.167-.018.29-.046.36-.069.102-.027.243-.1.443-.196.189-.096.339-.158.441-.194 1.105-.387 2.138-.405 3.105-.059.962.342 1.574.907 1.843 1.674.31.9-.061 1.729-1.107 2.497 1.676.177 2.677.758 3.04 1.782M2.898 3.416c.534-.185.697-.573.49-1.183C2.981 1.068 2.019.619.506.874l1.572 2.701c.298-.019.572-.061.82-.159" style="fill:#fff;fill-opacity:1;fill-rule:nonzero;stroke:none" transform="matrix(.97735 0 0 -.97735 48.753 163.391)"/><path d="M0 0c.595.159 1.15.167 1.662.018.433-.122.6-.336.517-.644-.057-.204-.287-.654-.684-1.341L-.278-5.435c-.305-.592-.504-1.049-.588-1.35-.163-.573-.021-.936.42-1.059.459-.123 1.054.088 1.787.644l2.161 4.253c.317.619.539 1.128.653 1.552.032.097.056.24.079.425.454.044.873.006 1.262-.099.546-.166.772-.421.665-.793a3.093 3.093 0 0 0-.344-.714C4.393-4.941 3.519-6.68 3.202-7.8a1.95 1.95 0 0 1 .106-1.384c-.816-.371-1.447-.486-1.906-.363-.455.133-.627.522-.517 1.185-.753-.584-1.531-.751-2.32-.532-1.2.345-1.605 1.201-1.217 2.568.173.59.61 1.527 1.319 2.797C-.623-2.25-.177-1.315-.014-.707.061-.468.061-.22 0 0" style="fill:#fff;fill-opacity:1;fill-rule:nonzero;stroke:none" transform="matrix(.97735 0 0 -.97735 54.962 160.794)"/><path d="M0 0c.817.38 1.61.528 2.396.44.648-.06.945-.334.895-.8-.03-.311-.243-1.006-.64-2.1L.961-7.924C.674-8.865.508-9.58.455-10.04c-.092-.882.203-1.359.869-1.422.702-.078 1.509.381 2.417 1.378L5.81-3.388c.303.98.489 1.783.552 2.409.022.168.022.37.016.634.636.177 1.258.24 1.85.177.829-.09 1.221-.414 1.155-.979-.031-.292-.133-.68-.318-1.13-1.468-3.766-2.288-6.509-2.474-8.214-.07-.722.106-1.374.529-1.985-1.093-.732-1.989-1.066-2.682-.997-.697.08-1.045.61-1.05 1.58-.952-1.012-2.025-1.463-3.224-1.34-1.827.185-2.629 1.322-2.417 3.396.101.909.498 2.374 1.209 4.403C-.335-3.414.062-1.95.164-1.042.198-.661.142-.308 0 0" style="fill:#fff;fill-opacity:1;fill-rule:nonzero;stroke:none" transform="matrix(.97735 0 0 -.97735 72.107 160.432)"/><path d="M0 0c-.622-.282-1.143-.424-1.565-.424-.584.009-.865.275-.865.812 0 .512.303 1.774.912 3.804l.79 2.982c.252.934.372 1.499.375 1.685 0 .193-.083.388-.246.591.723.555 1.359.837 1.893.829.465 0 .828-.655 1.106-1.95.622-2.921 1.204-5.091 1.752-6.52.26 1.129.507 2.25.762 3.379.335 1.631.503 2.796.513 3.511.003.379-.107.751-.323 1.112.538.3 1.037.45 1.487.442.609-.01.916-.248.916-.726 0-.324-.078-.74-.228-1.251l-.365-1.261c-.124-.451-.477-1.783-1.056-4.04-.092-.382-.194-.75-.295-1.131-.124-.476-.182-.865-.185-1.163 0-.107.025-.247.075-.443-.672-.467-1.24-.696-1.699-.689-.466 0-.851.338-1.155.99-.315.651-.962 2.779-1.945 6.37C-.097 3.891-.464 2.047-.468 1.387-.468.848-.313.388 0 0" style="fill:#fff;fill-opacity:1;fill-rule:nonzero;stroke:none" transform="matrix(.97735 0 0 -.97735 82.006 173.376)"/><path d="M0 0a3.925 3.925 0 0 1-1.077-.309l-.027.284c-.053.838.419 1.297 1.42 1.376l1.412.097c.273.036.572.08.9.124.265.027.515.096.754.202l.017-.168C3.457.751 3.038.265 2.12.151L1.11-7.825c.424.027.777.106 1.082.247.022-.15.035-.255.039-.326.057-.776-.314-1.191-1.102-1.253L.532-9.2l-1.214-.107c-.617-.043-1.153-.132-1.608-.274-.07.998.352 1.527 1.279 1.59z" style="fill:#fff;fill-opacity:1;fill-rule:nonzero;stroke:none" transform="matrix(.97735 0 0 -.97735 91.17 164.426)"/><path d="M0 0c-.385-.301-.76-.468-1.133-.521-.338-.042-.588.133-.753.53-.153.405-.342 1.05-.559 1.948A72.678 72.678 0 0 1-3.689 6.52c-.454 1.481-.904 2.389-1.35 2.733.63.593 1.209.928 1.731.998a.983.983 0 0 0 .868-.282c.237-.245.503-.997.798-2.232.228-.998.582-2.478 1.049-4.445 1.615 3.492 2.56 6.077 2.833 7.764 1.095.131 1.676-.074 1.746-.611.036-.22-.484-1.42-1.56-3.589C.702 3.054-.119.783-.003.052-.003.036 0 .018 0 0" style="fill:#fff;fill-opacity:1;fill-rule:nonzero;stroke:none" transform="matrix(.97735 0 0 -.97735 99.01 172.573)"/><path d="M0 0c.65.593 1.52 1.018 2.622 1.264.123.024.326.071.605.141.286.053.502.106.662.139.716.169 1.447.417 2.191.752C6.09 1.192 5.616.529 4.659.31 4.446.256 4.09.195 3.596.098c-.373-.071-.68-.132-.911-.185-.049-.008-.094-.017-.141-.026L2.64-3.28l.506.124a7.844 7.844 0 0 1 2.229.864c.158-1.13-.416-1.837-1.717-2.146-.101-.015-.261-.052-.481-.095-.214-.043-.383-.08-.498-.106.04-1.421.093-2.488.156-3.202.519.009.995.07 1.419.168.873.192 1.651.52 2.33.951l.026-.114c.274-1.19-.663-2.04-2.811-2.522a8.407 8.407 0 0 0-.753-.143c-.34-.053-.596-.106-.765-.14a2.146 2.146 0 0 1-.325-.132 1.5 1.5 0 0 0-.341-.131c-.543-.126-.85 0-.934.378-.071.282-.088.661-.078 1.137L.645-7.25c0 3.528-.094 5.717-.299 6.588A1.61 1.61 0 0 1 0 0" style="fill:#fff;fill-opacity:1;fill-rule:nonzero;stroke:none" transform="matrix(.97735 0 0 -.97735 102.604 162.09)"/><path d="M0 0c-.389 1.209-1.501 1.519-3.326.936C-4.842.459-6.033-.229-6.903-1.13a1.5 1.5 0 0 0 .382-.624c.417-1.299.732-3.892.945-7.745.026-.442.08-.788.159-1.045.122-.369.432-.476.943-.308.428.133.896.423 1.39.866a1.326 1.326 0 0 0-.291.503c-.15.466-.273 1.076-.361 1.807l-.196 1.819c.324.168.567.298.719.386.923-1.489 1.673-2.54 2.237-3.148.575-.616 1.17-.82 1.8-.627.758.247 1.192.822 1.31 1.729-1.002-.017-1.915.52-2.725 1.607L-1.77-4.304C-.162-2.771.427-1.333 0 0m-4.513-.75c.356.221.665.381.935.459.804.266 1.329.009 1.571-.749.497-1.555-.191-2.761-2.06-3.619z" style="fill:#fff;fill-opacity:1;fill-rule:nonzero;stroke:none" transform="matrix(.97735 0 0 -.97735 115.743 159.355)"/><path d="M0 0c.463-.971 1.204-1.244 2.227-.82 1.14.474 1.497 1.227 1.069 2.257-.203.494-.65.858-1.327 1.061-.622.149-1.238.308-1.858.456-.691.249-1.165.663-1.417 1.273-.427 1.024-.388 2.028.106 3.035.5.996 1.293 1.719 2.387 2.177 1.276.53 2.031.503 2.263-.051.158-.39.031-.893-.38-1.508-.625.493-1.336.582-2.138.247-.976-.407-1.288-1.032-.937-1.88.085-.204.238-.379.474-.52.228-.142 1.155-.434 2.775-.858.739-.299 1.248-.776 1.525-1.437.428-1.039.353-2.126-.234-3.246-.583-1.12-1.437-1.905-2.566-2.375a4.325 4.325 0 0 0-1.707-.35c-.579.008-.936.175-1.074.518C-1.046-1.457-.775-.785 0 0" style="fill:#fff;fill-opacity:1;fill-rule:nonzero;stroke:none" transform="matrix(.97735 0 0 -.97735 119.036 164.623)"/><path d="M0 0a3.718 3.718 0 0 1-.888-.689l-.127.248c-.372.758-.106 1.358.799 1.817l1.27.619c.238.132.499.291.79.449.232.133.442.291.623.477l.079-.15c.375-.776.162-1.386-.642-1.834l2.069-7.773c.386.185.68.404.907.643.078-.133.134-.219.161-.283.341-.706.16-1.225-.546-1.578l-.533-.273-1.091-.549c-.56-.272-1.022-.555-1.394-.864-.436.89-.242 1.546.591 1.96Z" style="fill:#fff;fill-opacity:1;fill-rule:nonzero;stroke:none" transform="matrix(.97735 0 0 -.97735 124.392 155.06)"/><path d="m0 0-.207-.114c-.513-.283-.94-.717-1.283-1.299-.187.194-.323.36-.411.519-.453.815-.297 1.431.467 1.863.157.088.389.203.702.352.314.161.547.267.694.354l1.745.988a6.721 6.721 0 0 1 1.682 1.298l.106-.186c.008-.019.023-.036.026-.045.193-.351.259-.732.189-1.157-.062-.413-.265-.712-.587-.907-.123-.062-.33-.159-.63-.3a8.583 8.583 0 0 1-.52-.256c-.044-.026-.08-.043-.112-.062l1.972-6.061c.265-.801.507-1.402.73-1.8.09-.167.228-.317.396-.44-.415-.547-.83-.937-1.235-1.166-.497-.271-.841-.246-1.041.099-.138.246-.296.705-.478 1.358a48.909 48.909 0 0 1-.409 1.464Z" style="fill:#fff;fill-opacity:1;fill-rule:nonzero;stroke:none" transform="matrix(.97735 0 0 -.97735 129.107 152.705)"/><path d="M0 0c-2.342 2.647-4.182 3.908-5.526 3.776.171 1.192.603 2.021 1.279 2.471.506.327 1.041.345 1.605.053.56-.309 1.659-1.385 3.291-3.229-.286 4.128.137 6.564 1.282 7.331.53.353 1.16.291 1.872-.184-.556-.654-.944-1.544-1.16-2.692-.247-1.253-.393-2.813-.447-4.641-.042-1.824.658-3.828 2.096-6.007a1.75 1.75 0 0 1 .557-.529c-.478-.735-.967-1.253-1.447-1.572-.6-.397-1.041-.386-1.316.027-.18.283-.366.679-.551 1.2A52.819 52.819 0 0 1 0 0" style="fill:#fff;fill-opacity:1;fill-rule:nonzero;stroke:none" transform="matrix(.97735 0 0 -.97735 136.325 151.672)"/><path d="M0 0a.706.706 0 0 0-.036-.31c-.092-.281-.305-.562-.63-.827a10.87 10.87 0 0 0-.948-.705l-2.66-4.677c-.551-.715-1.218-1.377-1.99-2.003a16.102 16.102 0 0 0-2.497-1.641c-.177-.062-.281-.019-.326.141l2.329 2.462a46.38 46.38 0 0 0 1.729 2.937c.578.883 1.38 2.046 2.413 3.466A12.968 12.968 0 0 0-4.61-1.79a9.42 9.42 0 0 0-1.994-.212l.255.537c1.06 0 2.047.106 2.961.344.905.222 1.827.636 2.763 1.219.211.106.342.167.383.167C-.151.265-.07.178 0 0" style="fill:#fff;fill-opacity:1;fill-rule:nonzero;stroke:none" transform="matrix(.97735 0 0 -.97735 67.981 182.024)"/><path d="M0 0c.076.158.154.388.255.669.37 1.103.392 2.056.058 2.858-.335.794-1.134 1.192-2.405 1.192a15.974 15.974 0 0 1-2.382-.414c-.722-.185-1.609-.548-2.646-1.077a12.755 12.755 0 0 1-3.017-2.188c-.967-.935-1.601-1.862-1.91-2.763a3.94 3.94 0 0 1-.208-1.314c.013-.43.133-.812.358-1.147.718-.619 1.608-.926 2.678-.926.715 0 1.451.124 2.232.388.766.248 1.561.618 2.367 1.113l-1.782-1.827-3.713-2.752-3.313-1.934-.018-.201c.393.105.745.22 1.059.317.308.098.604.237.887.415a28.302 28.302 0 0 1 6.268 3.9C-3.286-4.113-1.663-2.444-.367-.689c.172.308.286.538.367.689m-1.532.951-.11-.334a7.576 7.576 0 0 0-1.711-2.814c-.797-.84-1.584-1.36-2.374-1.555a49.802 49.802 0 0 0-1.68-.404 4.9 4.9 0 0 0-.877-.097c-.46 0-.887.107-1.262.317-.375.203-.6.433-.68.662-.075.228-.109.539-.089.927.019.378.099.775.23 1.172.428 1.28 1.227 2.417 2.404 3.398 1.174.987 2.507 1.473 4.002 1.473.732 0 1.314-.204 1.738-.627.427-.423.609-.926.543-1.526a3.054 3.054 0 0 0-.134-.592" style="fill:#fff;fill-opacity:1;fill-rule:nonzero;stroke:none" transform="matrix(.97735 0 0 -.97735 78.532 185.695)"/><path d="M0 0c.075.158.158.388.255.669.367 1.103.388 2.056.058 2.858-.335.794-1.134 1.192-2.4 1.192a16.206 16.206 0 0 1-2.395-.414c-.712-.185-1.601-.548-2.639-1.077a12.942 12.942 0 0 1-3.022-2.188c-.969-.935-1.601-1.862-1.901-2.763a3.768 3.768 0 0 1-.207-1.314c.006-.43.129-.812.344-1.147.733-.619 1.623-.926 2.686-.926.715 0 1.457.124 2.228.388.777.248 1.566.618 2.379 1.113l-1.782-1.827-3.724-2.752-3.308-1.934-.017-.201c.391.105.744.22 1.058.317.311.098.607.237.887.415a28.382 28.382 0 0 1 6.266 3.9C-3.291-4.113-1.673-2.444-.366-.689-.2-.381-.075-.151 0 0m-1.531.951-.115-.334a7.552 7.552 0 0 0-1.712-2.814c-.79-.84-1.58-1.36-2.373-1.555a43.988 43.988 0 0 0-1.686-.404 4.699 4.699 0 0 0-.868-.097c-.468 0-.887.107-1.262.317-.37.203-.604.433-.674.662-.084.228-.114.539-.093.927.012.378.093.775.224 1.172.433 1.28 1.227 2.417 2.404 3.398 1.179.987 2.514 1.473 4.002 1.473.737 0 1.323-.204 1.742-.627.424-.423.605-.926.543-1.526a3.704 3.704 0 0 0-.132-.592" style="fill:#fff;fill-opacity:1;fill-rule:nonzero;stroke:none" transform="matrix(.97735 0 0 -.97735 90.574 185.695)"/><path d="M0 0c.079.158.162.388.255.669.37 1.103.391 2.056.058 2.858-.333.794-1.139 1.192-2.396 1.192a15.952 15.952 0 0 1-2.39-.414c-.721-.185-1.598-.548-2.647-1.077a12.813 12.813 0 0 1-3.012-2.188c-.972-.935-1.606-1.862-1.908-2.763a3.8 3.8 0 0 1-.212-1.314c.014-.43.139-.812.355-1.147.722-.619 1.622-.926 2.681-.926.711 0 1.452.124 2.227.388.768.248 1.567.618 2.374 1.113l-1.777-1.827-3.72-2.752-3.308-1.934-.022-.201c.394.105.741.22 1.053.317.315.098.61.237.891.415a28.401 28.401 0 0 1 6.269 3.9C-3.288-4.113-1.664-2.444-.366-.689c.172.308.294.538.366.689m-1.531.951-.106-.334a7.658 7.658 0 0 0-1.712-2.814c-.79-.84-1.582-1.36-2.373-1.555a43.543 43.543 0 0 0-1.692-.404 4.77 4.77 0 0 0-.863-.097c-.467 0-.891.107-1.263.317-.377.203-.602.433-.679.662-.078.228-.109.539-.095.927.022.378.095.775.229 1.172.437 1.28 1.234 2.417 2.409 3.398 1.177.987 2.506 1.473 3.992 1.473.737 0 1.318-.204 1.746-.627.427-.423.61-.926.539-1.526a2.996 2.996 0 0 0-.132-.592" style="fill:#fff;fill-opacity:1;fill-rule:nonzero;stroke:none" transform="matrix(.97735 0 0 -.97735 102.611 185.695)"/></svg>