<svg xmlns="http://www.w3.org/2000/svg" width="117.50134mm" height="144.28197mm" viewBox="0 0 117.50134 144.28197"><path d="M0 0h-6.12v4.026h-2.034V-.329s-.027-.468.469-.817c.456-.317 1.158-.289 1.158-.289H0Z" style="fill:#004896;fill-opacity:1;fill-rule:nonzero;stroke:none" transform="matrix(1.31382 0 0 -1.31382 10.786 133.078)"/><path d="M32.07 111.943h2.259v.933H32.07zm-.718-.505v1.47s-.025.162.233.345c.207.145.479.128.479.128h2.322s.234.016.475-.152c.199-.142.185-.352.185-.352v-1.44z" style="fill:#004896;fill-opacity:1;fill-rule:nonzero;stroke:none;stroke-width:.352778" transform="translate(-115.162 -278.004) scale(3.7242)"/><path d="M0 0h-2.137v2.319h-2.035v-6.406h2.035v2.652H0Z" style="fill:#004896;fill-opacity:1;fill-rule:nonzero;stroke:none" transform="matrix(1.31382 0 0 -1.31382 18.508 130.428)"/><path d="M0 0v-1.43h8.46v-5.35h2.037V0Z" style="fill:#004896;fill-opacity:1;fill-rule:nonzero;stroke:none" transform="matrix(1.31382 0 0 -1.31382 99.98 128.174)"/><path d="M0 0h-5.306v3.946H-7.34V0h-1.778v3.946h-2.037V0h-2.912v-1.435H0Z" style="fill:#004896;fill-opacity:1;fill-rule:nonzero;stroke:none" transform="matrix(1.31382 0 0 -1.31382 116.107 139.798)"/><path d="M0 0v-1.432h8.811v-4.216h2.039V.003Z" style="fill:#004896;fill-opacity:1;fill-rule:nonzero;stroke:none" transform="matrix(1.31382 0 0 -1.31382 80.517 136.861)"/><path d="M0 0h-2.145v2.218h-2.036v-6.547h2.036v2.894H0Z" style="fill:#004896;fill-opacity:1;fill-rule:nonzero;stroke:none" transform="matrix(1.31382 0 0 -1.31382 97.93 130.287)"/><path d="M0 0c-1.091 0-1.983.562-1.983 1.259 0 .689.892 1.255 1.983 1.255 1.096 0 1.977-.566 1.977-1.255C1.977.562 1.096 0 0 0m4.57 4.734H1.061v.856H-.972v-.856h-3.617V3.305h1.843c-.771-.511-1.26-1.23-1.26-2.035 0-1.548 1.788-2.801 3.986-2.801 2.204 0 3.992 1.253 3.992 2.801 0 .805-.489 1.524-1.259 2.035H4.57Z" style="fill:#004896;fill-opacity:1;fill-rule:nonzero;stroke:none" transform="matrix(1.31382 0 0 -1.31382 84.003 134.215)"/><path d="M0 0v-2.797h-2.798v-1.43H0v-8.626h2.031V0Z" style="fill:#004896;fill-opacity:1;fill-rule:nonzero;stroke:none" transform="matrix(1.31382 0 0 -1.31382 32.899 127.381)"/><path d="M0 0c2.002-2.852 4.639-3.206 4.639-3.206v1.412C.437-.311 1.066 5.83 1.066 5.83h-2.132S-.44-.311-4.639-1.794v-1.412S-2.002-2.852 0 0" style="fill:#004896;fill-opacity:1;fill-rule:nonzero;stroke:none" transform="matrix(1.31382 0 0 -1.31382 23.938 135.422)"/><path d="M0 0v1.435h-14.422V0h6.194v-.587h-4.701v-1.437h9.411v-.681h-9.411v-2.209s-.054-.583.556-1.016c.632-.446 1.382-.403 1.382-.403h9.542v1.437h-9.448v.756h9.417v3.553h-4.717V0Z" style="fill:#004896;fill-opacity:1;fill-rule:nonzero;stroke:none" transform="matrix(1.31382 0 0 -1.31382 56.818 135.96)"/><path d="M0 0c-1.962 0-3.554-.692-3.554-1.538 0-.853 1.592-1.543 3.554-1.543 1.963 0 3.555.69 3.555 1.543C3.555-.692 1.963 0 0 0m5.636-1.538c0-1.605-2.526-2.9-5.634-2.9-3.113 0-5.637 1.295-5.637 2.9 0 1.597 2.524 2.896 5.637 2.896 3.108 0 5.634-1.299 5.634-2.896" style="fill:#004896;fill-opacity:1;fill-rule:nonzero;stroke:none" transform="matrix(1.31382 0 0 -1.31382 47.348 128.001)"/><path d="M0 0v-4.154h-.986V0h-1.929v-12.851h1.929v7.26H0v-7.26h1.934V0Z" style="fill:#004896;fill-opacity:1;fill-rule:nonzero;stroke:none" transform="matrix(1.31382 0 0 -1.31382 73.022 127.381)"/><path d="M0 0v1.435h-6.358v-7.774s-.062-.432.469-.804c.419-.296 1.127-.258 1.127-.258h4.78v1.434h-4.341V0Z" style="fill:#004896;fill-opacity:1;fill-rule:nonzero;stroke:none" transform="matrix(1.31382 0 0 -1.31382 67.655 129.664)"/><path d="M0 0h-24.586v24.586h8.417V8.395h7.752v16.191H0Z" style="fill:#5ac5c4;fill-opacity:1;fill-rule:nonzero;stroke:none" transform="matrix(1.31382 0 0 -1.31382 74.772 111.673)"/><path d="M0 0v7.742h16.192v8.416H-8.389V-8.427H7.816v-7.742H-8.38v-8.415h24.586V0Z" style="fill:#00a2b3;fill-opacity:1;fill-rule:nonzero;stroke:none" transform="matrix(1.31382 0 0 -1.31382 11.022 79.366)"/><path d="M0 0h-24.584v-24.587h8.418v16.198h7.751v-16.198H0Z" style="fill:#004896;fill-opacity:1;fill-rule:nonzero;stroke:none" transform="matrix(1.31382 0 0 -1.31382 53.526 36.891)"/><path d="m0 0 .576.845L4.865-.797l.004.005-3.695 2.514.427.63L7.28-1.517l-.566-.835L2.485-.763 2.48-.769l3.628-2.474-.426-.623Z" style="fill:#00a2b3;fill-opacity:1;fill-rule:nonzero;stroke:none" transform="matrix(1.31382 0 0 -1.31382 7.865 27.724)"/><path d="m0 0-1.155 1.64.723.712 1.596-1.206.658.643C-.051 3.144-1.986 4.517-3.814 5.886l-.739-.727c1.312-1.944 2.646-3.9 3.876-5.822zm-2.021 2.809-1.138 1.642.007.005 1.592-1.193z" style="fill:#00a2b3;fill-opacity:1;fill-rule:nonzero;stroke:none" transform="matrix(1.31382 0 0 -1.31382 22.02 24.345)"/><path d="m0 0 2.733-3.37.007.003L.815.53l.952.612 3.726-5.771-.604-.39L2.221-.882l-.004-.002 2.19-4.447-.62-.401-3.128 3.83-.007-.002 2.663-4.134-.554-.355L-.963-.619Z" style="fill:#00a2b3;fill-opacity:1;fill-rule:nonzero;stroke:none" transform="matrix(1.31382 0 0 -1.31382 25.327 9.978)"/><path d="M0 0c.3-.171.616-.257.836-.166.132.05.338.189.159.638-.324.815-1.556 1.077-2.205 2.705-.298.748-.425 1.747.276 2.029.232.09.497.108.753.088L.51 3.817c-.258.13-.506.176-.695.1-.121-.048-.286-.259-.153-.592.375-.94 1.521-.991 2.186-2.657.344-.861.435-1.842-.277-2.13-.259-.099-.558-.099-.854-.084Z" style="fill:#00a2b3;fill-opacity:1;fill-rule:nonzero;stroke:none" transform="matrix(1.31382 0 0 -1.31382 37.276 11.044)"/><path d="m0 0 .292-1.447-1.13-.226.246-1.222 1.342.268.289-1.443-2.187-.442-1.353 6.739 2.189.441.287-1.446-1.339-.27.237-1.182z" style="fill:#00a2b3;fill-opacity:1;fill-rule:nonzero;stroke:none" transform="matrix(1.31382 0 0 -1.31382 48.218 4.538)"/><path d="M0 0c.977.005 1.642 1.287 1.63 3.572C1.621 5.849.95 7.127-.028 7.119c-.977-.002-1.639-1.283-1.63-3.56C-1.649 1.271-.975-.001 0 0m-.023 5.615c.524.004.783-.996.79-2.057.002-1.062-.248-2.053-.772-2.053-.524-.002-.786.984-.788 2.046-.002 1.063.246 2.063.77 2.064" style="fill:#00a2b3;fill-opacity:1;fill-rule:nonzero;stroke:none" transform="matrix(1.31382 0 0 -1.31382 57.895 9.353)"/><path d="m0 0-.758-3.841c-.192-.971-.197-1.567.186-1.644.385-.076.608.477.8 1.449l.76 3.84.85-.168-.904-4.568C.612-6.559-.073-7.118-.864-6.96c-.79.155-1.211.934-.888 2.562L-.847.168z" style="fill:#00a2b3;fill-opacity:1;fill-rule:nonzero;stroke:none" transform="matrix(1.31382 0 0 -1.31382 68.986 1.16)"/><path d="m0 0 .799-.325-2.017-5.004 1.177-.476-.551-1.366-1.98.797z" style="fill:#00a2b3;fill-opacity:1;fill-rule:nonzero;stroke:none" transform="matrix(1.31382 0 0 -1.31382 79.159 4.003)"/><path d="m0 0-2.375-3.111c-.599-.786-.87-1.321-.556-1.558.314-.237.756.162 1.357.944L.802-.611l.685-.524-2.824-3.701c-1.006-1.318-1.865-1.52-2.505-1.029-.644.493-.679 1.371.33 2.689L-.686.526z" style="fill:#00a2b3;fill-opacity:1;fill-rule:nonzero;stroke:none" transform="matrix(1.31382 0 0 -1.31382 93.571 11.931)"/><path d="m0 0 .676-.767-2.666-3.742.006-.007 3.359 2.95.504-.57-5.167-4.532-.668.758 2.599 3.696-.007.007-3.297-2.894-.504.572z" style="fill:#00a2b3;fill-opacity:1;fill-rule:nonzero;stroke:none" transform="matrix(1.31382 0 0 -1.31382 101.545 19.032)"/><path d="m0 0 .447-.741-5.892-3.54-.442.745z" style="fill:#00a2b3;fill-opacity:1;fill-rule:nonzero;stroke:none" transform="matrix(1.31382 0 0 -1.31382 108.722 28.494)"/><path d="M0 0c.542.282 4.222 2.426 6.028 3.468l.319-.832L1.803.129l5.093 1.083.319-.839C5.81.129 1.781-.652.355-.923Z" style="fill:#00a2b3;fill-opacity:1;fill-rule:nonzero;stroke:none" transform="matrix(1.31382 0 0 -1.31382 104.836 40.777)"/><path d="m0 0-1.452-.258-.201 1.132-1.228-.216.242-1.349L-4.09-.95l-.391 2.203 6.765 1.199.392-2.198-1.453-.257-.234 1.347L-.2 1.131Z" style="fill:#00a2b3;fill-opacity:1;fill-rule:nonzero;stroke:none" transform="matrix(1.31382 0 0 -1.31382 113.315 50.977)"/><path d="m0 0-.018-1.461c-.009-.728-.745-.999-2.104-.982-.811.009-1.396.238-1.731.621-1.034-.191-2.118-.376-3.047-.565l.011.929c1.3.176 2.612.346 3.86.566a.595.595 0 0 1-.057-.215c0-.239.224-.504.895-.507.727-.007.734.256.734.382l.007.426-5.432.061.011.832z" style="fill:#00a2b3;fill-opacity:1;fill-rule:nonzero;stroke:none" transform="matrix(1.31382 0 0 -1.31382 117.501 58.808)"/><path d="M0 0c-.306-.162-.549-.378-.595-.615-.025-.137-.022-.384.452-.478.858-.17 1.749.718 3.468.379.786-.156 1.699-.592 1.55-1.336-.047-.244-.177-.474-.33-.679l-1.617.226c.249.141.422.327.463.525.025.131-.062.381-.419.452-.986.197-1.656-.741-3.414-.392-.911.18-1.785.64-1.637 1.392.052.27.218.523.394.763z" style="fill:#00a2b3;fill-opacity:1;fill-rule:nonzero;stroke:none" transform="matrix(1.31382 0 0 -1.31382 110.09 68.6)"/><path d="m0 0-.307-.812-6.428 2.426.306.81z" style="fill:#00a2b3;fill-opacity:1;fill-rule:nonzero;stroke:none" transform="matrix(1.31382 0 0 -1.31382 113.875 80.026)"/><path d="m0 0-1.301-2.223-1.272.743.43.737-4.659 2.724.437.747L-1.706.006l.433.738z" style="fill:#00a2b3;fill-opacity:1;fill-rule:nonzero;stroke:none" transform="matrix(1.31382 0 0 -1.31382 110.26 88.051)"/><path d="m0 0 3.746-1.913-.619-.719-2.189 1.23L2.46-3.408l-.611-.714L-.676-.559l-2 1.714.56.658z" style="fill:#00a2b3;fill-opacity:1;fill-rule:nonzero;stroke:none" transform="matrix(1.31382 0 0 -1.31382 99.46 94.341)"/></svg>