<svg xmlns="http://www.w3.org/2000/svg" xml:space="preserve" width="399.99045" height="400" viewBox="0 0 399.99045 399.99999"><path d="m0 0-2.213 3.448h23.721v6.593H4.933a3.715 3.715 0 0 0-3.7 3.699v12.937h6.154c.995 0 1.855-.869 1.855-1.856v-9.483c0-.989.863-1.85 1.852-1.85h38.808c.557 0 .674-.68.674-1.727 0-1.044-.117-1.72-.674-1.72h-20.39V3.448h21.502c.551 0 .679-.675.679-1.728 0-1.042-.128-1.72-.679-1.72H25.51c-8.69 0-15.222-2.898-15.222-9.372 0-6.467 6.532-9.361 15.222-9.361 8.681 0 15.217 2.894 15.217 9.361 0 2.898-1.359 5.054-3.573 6.598h9.737c1.293-1.728 2.031-3.821 2.031-6.218 0-9.067-10.108-13.189-23.412-13.189-13.304 0-23.415 4.122-23.415 13.189 0 4.057 2.034 7.02 5.479 8.992z" style="fill:#005bab;fill-opacity:1;fill-rule:nonzero;stroke:none" transform="matrix(4.77886 0 0 -4.77886 496.646 214.304)"/><path d="M0 0c-2.594-3.444-7.578-5.721-13.926-5.721-9.548 0-15.951 5.168-15.951 11.519 0 3.14 1.599 6.101 4.426 8.19h-5.6l-2.217 3.455h15.22v3.88h6.157c.988 0 1.842-.864 1.842-1.851v-2.029H3.635c.559 0 .679-.678.679-1.726 0-1.049-.12-1.729-.679-1.729h-17.561c-4.87 0-8.129-3.756-8.129-8.19 0-4.437 3.022-8.261 8.129-8.261 5.18 0 8.137 3.824 8.137 8.261 0 1.97-.676 4.005-1.971 5.481h18.848v9.12h6.162c.986 0 1.848-.861 1.848-1.849v-44.97h-41.897a3.702 3.702 0 0 0-3.693 3.688v15.467h6.167c.981 0 1.845-.859 1.845-1.847v-3.514h29.568V0Zm-18.48-16.071v-5.547c0-.867.488-1.356 1.351-1.356h28.217v6.903zM2.029 5.798c0-.801-.117-1.6-.305-2.338h9.364v4.366H1.791c.179-.677.238-1.352.238-2.028" style="fill:#005bab;fill-opacity:1;fill-rule:nonzero;stroke:none" transform="matrix(4.77886 0 0 -4.77886 933.566 183.727)"/><path d="M0 0v-3.85h-18.409v-26.115c0-.637.235-1.196.72-1.681.487-.487 1.053-.721 1.691-.721H1.565v-3.851h-23.341c-1.528 0-2.875.421-4.037 1.264-1.159.844-1.736 2.021-1.736 3.542V0Zm18.046 1.327H27.2v-44.762h-9.154v26.108h-4.318V-40.43H4.571V1.327h9.157v-14.804h4.318z" style="fill:#005bab;fill-opacity:1;fill-rule:nonzero;stroke:none" transform="matrix(4.77886 0 0 -4.77886 1205.247 91.659)"/><path d="M0 0c2.001-1.435 3.015-3.067 3.015-4.899 0-2.385-1.703-4.415-5.092-6.09-3.408-1.673-7.507-2.501-12.305-2.501-4.795 0-8.868.828-12.233 2.501-3.351 1.675-5.032 3.705-5.032 6.09 0 1.832.965 3.464 2.89 4.899 1.926 1.437 4.41 2.432 7.457 2.986h-10.347v3.852h12.76v3.01h9.142v-3.01h12.76V2.986H-7.701C-4.577 2.432-2.005 1.437 0 0m17.329-18.91c1.123 0 2.042-.423 2.77-1.266a4.442 4.442 0 0 0 1.08-2.948v-13.242H12.03v11.195c0 .726-.092 1.306-.296 1.738-.202.45-.745.671-1.626.671h-38.025v3.852zm-37.441 17.5c-1.59-.915-2.393-2.061-2.393-3.426 0-1.285.803-2.406 2.393-3.368 1.59-.956 3.51-1.445 5.73-1.445 2.313 0 4.262.489 5.858 1.445 1.589.962 2.387 2.083 2.387 3.368 0 1.365-.798 2.511-2.387 3.426-1.596.932-3.545 1.388-5.858 1.388-2.22 0-4.14-.456-5.73-1.388m40.81 10.298V1.42h7.944v-3.849h-7.944v-12.625h-9.146V8.888Z" style="fill:#005bab;fill-opacity:1;fill-rule:nonzero;stroke:none" transform="matrix(4.77886 0 0 -4.77886 1542.81 127.78)"/><path d="M0 0h9.143v-19.379h16.841v-3.85h-55.947v3.85h10.105V0h9.145v-19.379H0Zm19.613 18.286c1.119 0 2.045-.423 2.763-1.264.728-.843 1.087-1.824 1.087-2.948v-25.631H14.32v23.582c0 .723-.108 1.31-.302 1.742-.198.448-.74.665-1.629.665h-39.235v3.854z" style="fill:#005bab;fill-opacity:1;fill-rule:nonzero;stroke:none" transform="matrix(4.77886 0 0 -4.77886 1846.449 172.13)"/><path d="M0 0c0-22.575-18.301-40.878-40.871-40.878-22.572 0-40.876 18.303-40.876 40.878 0 22.568 18.304 40.869 40.876 40.869C-18.301 40.869 0 22.568 0 0" style="fill:#005bab;fill-opacity:1;fill-rule:nonzero;stroke:none" transform="matrix(4.77886 0 0 -4.77886 395.32 199.986)"/><path d="M0 0c0-23.117-18.733-41.854-41.849-41.854C-64.962-41.854-83.7-23.117-83.7 0c0 23.109 18.738 41.848 41.851 41.848C-18.733 41.848 0 23.109 0 0" style="fill:#005bab;fill-opacity:1;fill-rule:nonzero;stroke:none" transform="matrix(4.77886 0 0 -4.77886 399.99 199.986)"/><path d="M0 0c0-21.72-17.604-39.322-39.318-39.322-21.719 0-39.323 17.602-39.323 39.322 0 21.714 17.604 39.316 39.323 39.316C-17.604 39.316 0 21.714 0 0" style="fill:#005bab;fill-opacity:1;fill-rule:nonzero;stroke:none" transform="matrix(4.77886 0 0 -4.77886 387.898 199.986)"/><path d="M0 0c-21.393 0-38.789-17.395-38.789-38.781 0-21.392 17.396-38.79 38.789-38.79 21.389 0 38.785 17.398 38.785 38.79C38.785-17.395 21.389 0 0 0m0-78.641c-21.977 0-39.853 17.88-39.853 39.86C-39.853-16.809-21.977 1.073 0 1.073s39.855-17.882 39.855-39.854c0-21.98-17.878-39.86-39.855-39.86" style="fill:#fff;fill-opacity:1;fill-rule:nonzero;stroke:none" transform="matrix(4.77886 0 0 -4.77886 200.002 14.656)"/><path d="M0 0c0-15.216-12.329-27.541-27.541-27.541-15.207 0-27.547 12.325-27.547 27.541 0 15.203 12.34 27.53 27.547 27.53C-12.329 27.53 0 15.203 0 0" style="fill:#005bab;fill-opacity:1;fill-rule:nonzero;stroke:none" transform="matrix(4.77886 0 0 -4.77886 330.889 200.714)"/><path d="M0 0c0-15.144-12.277-27.418-27.416-27.418-15.139 0-27.418 12.274-27.418 27.418 0 15.134 12.279 27.407 27.418 27.407S0 15.134 0 0" style="fill:none;stroke:#fff;stroke-width:.483;stroke-linecap:butt;stroke-linejoin:miter;stroke-miterlimit:10;stroke-dasharray:none;stroke-opacity:1" transform="matrix(4.77886 0 0 -4.77886 330.291 200.714)"/><path d="m0 0 4.726 9.308 8.944 3.522V5.621L8.745 3.735a14.307 14.307 0 0 0 4.989-10.869c0-7.922-6.423-14.347-14.344-14.347h.031c-7.927 0-14.348 6.425-14.348 14.347 0 4.34 1.932 8.24 4.989 10.869l-4.927 1.886v7.209l8.941-3.555L-1.195 0a7.161 7.161 0 0 1-6.546-7.134 7.16 7.16 0 0 1 7.162-7.165H-.61a7.167 7.167 0 0 1 7.162 7.165C6.552-3.391 3.667-.311 0 0" style="fill:#fff;fill-opacity:1;fill-rule:nonzero;stroke:none" transform="matrix(4.77886 0 0 -4.77886 203.866 187.656)"/><path d="m0 0-6.953 13.829L0 9.664l6.963 4.165Z" style="fill:#fff;fill-opacity:1;fill-rule:nonzero;stroke:none" transform="matrix(4.77886 0 0 -4.77886 201 185.575)"/><path d="m0 0-1.034.791 3.576 4.666-.96.744.622.803L4.191 5.47Z" style="fill:#fff;fill-opacity:1;fill-rule:nonzero;stroke:none" transform="matrix(4.77886 0 0 -4.77886 98.437 344.154)"/><path d="M0 0c.326-.062.613 0 .863.181.239.176.393.447.463.797.061.349.018.653-.144.908-.154.256-.398.412-.725.467-.322.06-.609 0-.857-.188-.252-.185-.405-.45-.463-.791-.073-.342-.016-.65.15-.897C-.555.214-.312.061 0 0m-.652-3.331-1.369.244 1.96 2.037a1.794 1.794 0 0 0-.294 0 1.029 1.029 0 0 0-.242.031c-.549.096-.981.402-1.288.911-.314.515-.41 1.077-.293 1.689.119.669.46 1.192 1.004 1.583a2.382 2.382 0 0 0 1.854.399 2.357 2.357 0 0 0 1.556-.998c.383-.546.518-1.128.407-1.747a3.135 3.135 0 0 0-.367-.944c-.181-.307-.534-.723-1.033-1.25Z" style="fill:#fff;fill-opacity:1;fill-rule:nonzero;stroke:none" transform="matrix(4.77886 0 0 -4.77886 166.13 355.826)"/><path d="M0 0c.069-.354.22-.629.473-.82.247-.189.526-.266.831-.213.326.062.578.221.736.478.172.254.227.555.17.899-.064.351-.22.611-.465.801-.25.182-.524.245-.834.194A1.087 1.087 0 0 1 .175.87C0 .613-.054.333 0 0m.351 4.693 1.373.238L.601 2.347a2.156 2.156 0 0 0 .513.158c.553.098 1.072-.036 1.533-.415.463-.371.746-.878.864-1.519a2.103 2.103 0 0 0 0-.717 2.969 2.969 0 0 0-.221-.741 2.32 2.32 0 0 0-.693-.905 2.51 2.51 0 0 0-1.081-.449 2.362 2.362 0 0 0-1.81.396 2.267 2.267 0 0 0-.988 1.518c-.055.318-.045.663.023 1.012.073.359.246.862.521 1.503z" style="fill:#fff;fill-opacity:1;fill-rule:nonzero;stroke:none" transform="matrix(4.77886 0 0 -4.77886 228.288 361.244)"/><path d="m0 0-3.849-2.449-.693 1.081.859 3.322c.079.317.11.599.102.843a1.392 1.392 0 0 1-.178.619.902.902 0 0 1-.553.411.837.837 0 0 1-.671-.128c-.229-.146-.368-.336-.393-.566-.036-.234.025-.486.203-.754l.07-.115-1.152-.732-.031.042c-.361.583-.481 1.164-.369 1.752.123.59.451 1.055.991 1.394.55.35 1.122.468 1.7.347a2.045 2.045 0 0 0 1.363-.935c.17-.275.272-.582.293-.934.026-.353-.021-.76-.146-1.21l-.69-2.513 2.473 1.577z" style="fill:#fff;fill-opacity:1;fill-rule:nonzero;stroke:none" transform="matrix(4.77886 0 0 -4.77886 312.552 339.58)"/><path d="m0 0-.586-.204.813 3.512-.979.223-.564-2.455a.564.564 0 0 0-.68-.416l-1.916.432.214.925c.034.141.19.234.333.201l1.416-.317c.135-.042.291.06.332.206l1.33 5.748c.015.085.118.085.271.049.161-.043.25-.081.239-.165L-.48 4.72l.978-.23.736 3.193c.019.078.129.073.277.041.153-.036.259-.079.241-.16L.869 3.783C.58 2.495.777 1.426 1.736 1.202c.963-.224 1.614.651 1.914 1.933.297 1.289.086 2.364-.871 2.577-.425.104-.791-.023-1.099-.296l.339 1.438c.294.132.631.165.991.089 1.338-.313 1.605-1.942 1.148-3.924C3.699 1.051 2.746-.309 1.402 0 .801.141.43.543.258 1.12Z" style="fill:#fff;fill-opacity:1;fill-rule:nonzero;stroke:none" transform="matrix(4.77886 0 0 -4.77886 41.777 183.274)"/><path d="M0 0c.066-.655-.242-1.43-.939-2.092-1.056-1.001-2.304-1.096-2.967-.396-.332.346-.464.84-.367 1.367l-.62-.583-.604.149L-3.82.033l-.411.434.684.637c.105.102.297.102.395-.009l.216-.222 1.51 1.425c.063.058.15 0 .25-.118.115-.116.172-.201.108-.263L-3.002.087c-.545-.51-.508-1.268-.045-1.754.468-.495 1.205-.604 1.762-.062.568.542.496 1.268.035 1.762-.203.213-.49.368-.789.399l.889.844L.042 2.4l-.954 1.011.683.648c.103.099.288.087.394-.018L4.863-.92.246-5.304a.56.56 0 0 0-.797.021l-1.612 1.707.669.644a.298.298 0 0 0 .402-.008l.369-.391L2.541-.232 1.215 1.156zm-.365-3.712.583-.613c.091-.094.2-.101.296-.007l3.105 2.951-.713.759zM-.387.851c.088-.09.158-.194.219-.296l1.029.986-.462.48-1.028-.975A.991.991 0 0 0-.387.851" style="fill:#fff;fill-opacity:1;fill-rule:nonzero;stroke:none" transform="matrix(4.77886 0 0 -4.77886 99.123 74.424)"/><path d="M0 0v-.59h-2.807v-3.965c0-.097.041-.183.114-.256a.36.36 0 0 1 .257-.114H.238v-.581h-3.552c-.237 0-.44.064-.612.188a.632.632 0 0 0-.269.545V0Zm2.745.198h1.396v-6.805H2.745v3.974h-.661v-3.512H.694V.198h1.39v-2.247h.661z" style="fill:#fff;fill-opacity:1;fill-rule:nonzero;stroke:none" transform="matrix(4.77886 0 0 -4.77886 197.24 27.153)"/><path d="M0 0c.09-.365.041-.651-.136-.864-.235-.273-.634-.347-1.188-.197-.561.145-1.118.457-1.672.928-.553.483-.942.985-1.157 1.51-.225.525-.214.924.022 1.202.182.213.455.297.818.274.362-.023.745-.154 1.153-.396l-1.187 1.032.385.44 1.47-1.26.289.34 1.061-.908-.305-.341L1.028.487.646.044l-1.23 1.065C-.281.733-.088.363 0 0m.127-3.904a.535.535 0 0 0 .191-.417.726.726 0 0 0-.168-.446l-1.318-1.527-1.058.907 1.117 1.292a.602.602 0 0 1 .134.23c.026.072-.015.149-.115.245L-5.473.142l.379.453zm-2.581 5.741c-.274.051-.482 0-.618-.159-.128-.151-.151-.361-.061-.627.086-.268.266-.517.518-.734.267-.23.545-.368.82-.418.279-.045.481.005.614.153.128.156.156.367.066.631-.098.267-.278.509-.541.743-.257.22-.528.357-.798.411M3.27-1.035l-.744-.861.919-.787-.382-.437-.917.781-1.25-1.45-1.056.91L2.215-.12z" style="fill:#fff;fill-opacity:1;fill-rule:nonzero;stroke:none" transform="matrix(4.77886 0 0 -4.77886 309.71 70.774)"/><path d="m0 0 .271-1.375-2.891-.569.503-2.51-.583-.117-1.648 8.344.574.122.297-1.513 2.894.579.275-1.37-2.895-.576.315-1.59zm3.31-2.391a.518.518 0 0 0-.108-.45.624.624 0 0 0-.406-.248l-3.82-.759-.276 1.369 3.527.69c.1.022.188.055.245.102.06.043.081.128.056.259L1.366 4.423l.572.113Z" style="fill:#fff;fill-opacity:1;fill-rule:nonzero;stroke:none" transform="matrix(4.77886 0 0 -4.77886 358.157 165.46)"/><path d="M0 0a1.56 1.56 0 0 0-1.544-1.556A1.55 1.55 0 0 0-3.098 0 1.548 1.548 0 1 0 0 0" style="fill:#fff;fill-opacity:1;fill-rule:nonzero;stroke:none" transform="matrix(4.77886 0 0 -4.77886 352.897 261.556)"/><path d="M0 0a1.55 1.55 0 0 0-1.548-1.556c-.857 0-1.547.699-1.547 1.556A1.548 1.548 0 1 0 0 0" style="fill:#fff;fill-opacity:1;fill-rule:nonzero;stroke:none" transform="matrix(4.77886 0 0 -4.77886 60.076 261.556)"/></svg>