<svg xmlns="http://www.w3.org/2000/svg" width="150.90775mm" height="150.92215mm" viewBox="0 0 150.90775 150.92215"><path d="M0 0c-5.723-.002-10.362-4.64-10.362-10.362 0-5.724 4.639-10.363 10.362-10.363 5.722 0 10.361 4.639 10.361 10.363C10.361-4.64 5.722 0 0 0" style="fill:#fff;fill-opacity:1;fill-rule:nonzero;stroke:none" transform="matrix(7.20186 0 0 -7.20186 75.455 .833)"/><path d="M0 0c0 5.649 4.596 10.245 10.246 10.246 5.65 0 10.245-4.597 10.245-10.246s-4.596-10.246-10.245-10.247C4.596-10.247 0-5.65 0 0m10.246 10.478C4.469 10.476-.231 5.776-.231 0c0-5.777 4.7-10.478 10.477-10.478 5.776 0 10.477 4.702 10.477 10.478s-4.701 10.478-10.477 10.478" style="fill:#231f20;fill-opacity:1;fill-rule:nonzero;stroke:none" transform="matrix(7.20186 0 0 -7.20186 1.664 75.461)"/><path d="M0 0a7.646 7.646 0 0 0 2.254 5.447 7.65 7.65 0 0 0 5.449 2.257c4.248 0 7.705-3.456 7.705-7.704 0-4.249-3.457-7.704-7.705-7.704S0-4.249 0 0m2.09 5.61A7.875 7.875 0 0 1-.231 0c0-4.376 3.559-7.936 7.934-7.936 4.376 0 7.935 3.56 7.935 7.936 0 4.376-3.56 7.935-7.935 7.935A7.884 7.884 0 0 1 2.09 5.61" style="fill:#231f20;fill-opacity:1;fill-rule:nonzero;stroke:none" transform="matrix(7.20186 0 0 -7.20186 19.978 75.461)"/><path d="M0 0c-.003-.183-.073-.315-.205-.393a.69.69 0 0 0-.372-.076.708.708 0 0 0-.394.112c-.125.087-.184.223-.176.405l.006.102.015.111c.002.014.017.025.03.025L-.021.254c.016-.002.03-.016.03-.032zm-1.337.67c-.002-.024-.025-.78-.025-.78a.71.71 0 0 1 .18-.527l.023-.021c.138-.133.336-.205.584-.213.279-.009.488.066.623.228.1.114.15.251.158.405l.023.859-1.566.049" style="fill:#231f20;fill-opacity:1;fill-rule:nonzero;stroke:none" transform="matrix(7.20186 0 0 -7.20186 14.161 74.891)"/><path d="M0 0c.004-.014-.002-.024-.014-.031l-.521-.34a.03.03 0 0 0-.029-.003c-.007.005-.015.012-.017.021l-.093.436a.031.031 0 0 0 .009.028c.005.007.015.01.024.01l.618-.098A.026.026 0 0 0 0 0m.288.187c-.017.002-1.632.254-1.662.26.005-.028.044-.206.048-.22L-.898.16l.011-.021.135-.626A.035.035 0 0 0-.765-.52l-.354-.228c.004-.016.075-.34.078-.367.028.017 1.398.91 1.412.918C.365-.183.289.174.288.187" style="fill:#231f20;fill-opacity:1;fill-rule:nonzero;stroke:none" transform="matrix(7.20186 0 0 -7.20186 14.463 86.524)"/><path d="M0 0v-.001.024l.017.016.415.167C.444.209.455.209.463.201L.471.192s.187-.471.197-.493c.016.009.154.063.168.07-.02.055-.193.489-.193.489v.021l.015.017.371.147c.012.005.022.004.03-.004l.01-.008s.234-.583.24-.605c.018.008.177.07.197.076l-.393.981C1.094.873-.324.309-.344.3l.203-.515S.058-.708.064-.73c.02.007.178.072.197.08L0 0" style="fill:#231f20;fill-opacity:1;fill-rule:nonzero;stroke:none" transform="matrix(7.20186 0 0 -7.20186 10.09 99.352)"/><path d="M0 0c-.018-.013-.424-.275-.424-.275-.011-.006-.025-.007-.035.002l-.007.005-.001.002c-.104.164-.14.322-.101.467.035.144.137.271.3.377a.692.692 0 0 0 .416.127.44.44 0 0 0 .226-.082.562.562 0 0 0 .165-.179C.586.376.622.301.654.221L.716.015l.207.133a2.901 2.901 0 0 1-.258.493C.588.761.496.857.396.928a.78.78 0 0 1-.253.115c-.205.052-.42.007-.635-.135C-.712.77-.84.592-.879.382c-.038-.203.016-.419.154-.638.112-.17.233-.31.364-.426l.566.366C.193-.298.014-.018 0 0" style="fill:#231f20;fill-opacity:1;fill-rule:nonzero;stroke:none" transform="matrix(7.20186 0 0 -7.20186 19.584 110.731)"/><path d="m0 0 .761.658a44.9 44.9 0 0 1-.209.241C.507.857-.169.271-.169.271-.29.17-.388.116-.474.109A.253.253 0 0 0-.649.16l-.065.059C-.792.311-.817.401-.787.49c.031.082.108.18.233.287 0 0 .674.585.693.6-.015.017-.232.269-.248.285l-.759-.659c-.154-.134-.23-.285-.225-.45.007-.151.078-.307.213-.463.057-.063.111-.116.168-.157a.557.557 0 0 1 .27-.11C-.301-.19-.152-.131 0 0" style="fill:#231f20;fill-opacity:1;fill-rule:nonzero;stroke:none" transform="matrix(7.20186 0 0 -7.20186 28.396 123.588)"/><path d="m0 0 .531.852C.515.864.28 1.01.262 1.021L-.242.209C-.328.078-.408-.005-.488-.037-.568-.068-.657-.059-.75 0-.851.062-.9.143-.896.234c.001.09.046.203.136.346l.485.776c-.02.011-.301.187-.319.199-.058-.094-.527-.846-.533-.852-.105-.176-.135-.342-.082-.498.053-.141.162-.267.34-.379.183-.113.35-.156.5-.125.137.028.262.129.369.299" style="fill:#231f20;fill-opacity:1;fill-rule:nonzero;stroke:none" transform="matrix(7.20186 0 0 -7.20186 43.707 134.363)"/><path d="m0 0-.371-.874C-.379-.885-.4-.916-.414-.911c-.012.002-.015.043-.015.043S-.686.274-.687.286C-.696.292-.963.403-.98.409l-.303-.722-.305-.724c.019-.009.229-.097.245-.105.023.058.37.874.37.874.006.012.024.04.038.039.013 0 .019-.043.019-.043s.256-1.147.261-1.157c.009-.005.269-.115.291-.124L.242-.104C.226-.095.014-.007 0 0" style="fill:#231f20;fill-opacity:1;fill-rule:nonzero;stroke:none" transform="matrix(7.20186 0 0 -7.20186 56.38 132.148)"/><path d="M0 0c-.007-.021-.188-.763-.188-.763s-.184-.741-.192-.762l.367-.09c.004.022.371 1.502.378 1.524L0 0" style="fill:#231f20;fill-opacity:1;fill-rule:nonzero;stroke:none" transform="matrix(7.20186 0 0 -7.20186 60.017 133.547)"/><path d="M0 0c-.038-.078-.522-1.128-.522-1.128-.003-.012-.015-.018-.029-.017l-.009-.001-.019.023S-.888.064-.895.079c-.012.001-.362.034-.395.036.008-.031.422-1.599.428-1.615l.392-.035c.004.014.68 1.484.693 1.514C.2-.02.013-.002 0 0" style="fill:#231f20;fill-opacity:1;fill-rule:nonzero;stroke:none" transform="matrix(7.20186 0 0 -7.20186 73.647 135.306)"/><path d="M0 0a1244.8 1244.8 0 0 0-.525-.051l-.02.005v.002l-.012.022-.039.395a.03.03 0 0 0 .027.032l.645.063-.019.209C.035.675-.971.577-.994.576c.004-.022.077-.782.077-.782l.075-.781L.26-.882c0 .02-.017.192-.02.21C.18-.679-.457-.74-.457-.74s-.014.002-.022.007H-.48l-.012.021-.041.444c-.004.019.008.033.026.035l.523.049C.016-.165 0-.019 0 0" style="fill:#231f20;fill-opacity:1;fill-rule:nonzero;stroke:none" transform="matrix(7.20186 0 0 -7.20186 83.866 139.617)"/><path d="m0 0-.143-.035-.023.002-.012.017-.119.452.005.023.017.014.129.033c.097.025.171.025.224-.003C.125.48.158.434.174.367A.344.344 0 0 0 .166.154.24.24 0 0 0 0 0m.516.238c.029.092.035.18.009.27a.346.346 0 0 1-.204.248.443.443 0 0 1-.294.012L-.693.58c.006-.021.391-1.496.396-1.52.024.004.315.083.338.087l-.159.601.005.023.018.016.149.038.02-.003.006-.003.496-.53.436.113-.653.564C.352-.029.35-.021.348-.012c.002.01.004.018.011.025a.516.516 0 0 1 .157.225" style="fill:#231f20;fill-opacity:1;fill-rule:nonzero;stroke:none" transform="matrix(7.20186 0 0 -7.20186 91.743 138.358)"/><path d="M0 0a3.405 3.405 0 0 1-.416.029.693.693 0 0 0-.187.03c-.051.019-.086.046-.104.082-.025.052-.018.108.021.164A.34.34 0 0 0-.566.4c.058.03.127.052.198.071l.182.033a6.277 6.277 0 0 1-.108.217L-.509.65l-.21-.092a.681.681 0 0 1-.296-.259.368.368 0 0 1-.006-.369.453.453 0 0 1 .319-.239c.04-.007.175-.019.403-.035.158-.009.252-.05.289-.123.035-.07.027-.137-.023-.201a.387.387 0 0 0-.154-.119A.987.987 0 0 0-.4-.865s-.166-.027-.192-.03c.011-.025.106-.214.113-.231l.227.081.218.1c.218.108.353.241.395.394.03.1.021.201-.031.303a.45.45 0 0 1-.262.227A.59.59 0 0 1 0 0" style="fill:#231f20;fill-opacity:1;fill-rule:nonzero;stroke:none" transform="matrix(7.20186 0 0 -7.20186 105.303 133.8)"/><path d="M0 0c.014-.02.803-1.325.814-1.344.02.012.306.184.323.196L.322.193C.306.184.021.011 0 0" style="fill:#231f20;fill-opacity:1;fill-rule:nonzero;stroke:none" transform="matrix(7.20186 0 0 -7.20186 106.02 127.16)"/><path d="M0 0s.056-.066.067-.081l.431.358c.009.006.018.009.03.004L.539.275s.836-1.007.849-1.026c.016.015.274.229.288.241L.83.512.824.535l.01.02s.416.342.432.357c-.012.014-.124.15-.139.165C1.111 1.062-.051.098-.068.082L0 0" style="fill:#231f20;fill-opacity:1;fill-rule:nonzero;stroke:none" transform="matrix(7.20186 0 0 -7.20186 110.747 125.374)"/><path d="M0 0a.03.03 0 0 0-.002-.03C-.009-.038-.021-.043-.03-.041c0 0-.708.097-.72.097a36.65 36.65 0 0 1-.248-.313C-.797-.286.018-.401.047-.408l.515-.405c.013.017.221.279.231.296C.631-.39.277-.11.27-.101l-.379.975A5.066 5.066 0 0 1-.263.679L0 0" style="fill:#231f20;fill-opacity:1;fill-rule:nonzero;stroke:none" transform="matrix(7.20186 0 0 -7.20186 126.993 114.509)"/><path d="m0 0 .007-.003.086.166.018.015.02-.001L1.27-.4l.15.299L.069.582-.127.066 0 0" style="fill:#231f20;fill-opacity:1;fill-rule:nonzero;stroke:none" transform="matrix(7.20186 0 0 -7.20186 130.382 103.262)"/><path d="M0 0a.357.357 0 0 0 .173-.124.216.216 0 0 0 .037-.209.207.207 0 0 0-.167-.146.408.408 0 0 0-.218.018.363.363 0 0 0-.18.123c-.046.058-.053.125-.027.205a.216.216 0 0 0 .164.147A.401.401 0 0 0 0 0m-.554-.094c-.059-.181-.05-.34.036-.48a.502.502 0 0 1 .275-.225.43.43 0 0 1 .348.021.451.451 0 0 1 .226.268.455.455 0 0 1 .024.19.274.274 0 0 1-.059.168L.21-.049.339-.09a.69.69 0 0 0 .283-.178.374.374 0 0 0 .089-.398.92.92 0 0 0-.088-.185L.517-.982l.195-.067c.078.127.141.258.185.387.075.222.055.413-.059.584a.887.887 0 0 1-.473.342C.146.338-.048.345-.21.281a.564.564 0 0 1-.344-.375" style="fill:#231f20;fill-opacity:1;fill-rule:nonzero;stroke:none" transform="matrix(7.20186 0 0 -7.20186 136.691 91.686)"/><path d="M0 0a.865.865 0 0 1-.191-.419l-.014-.078-.012-.018-.021-.006-.248.086c-.014.006-.024.02-.019.034l.12.662-.246.045-.074-.414-.091-.493c.022-.002.711-.127.732-.13l.007.081a.772.772 0 0 0 .119.323.281.281 0 0 0 .299.119.273.273 0 0 0 .18-.11.269.269 0 0 0 .038-.206.773.773 0 0 0-.063-.2l-.071-.13.194-.036.074.181.048.188c.034.194.014.355-.058.477A.41.41 0 0 1 .436.15C.428.151.418.152.407.155.248.185.113.134 0 0" style="fill:#231f20;fill-opacity:1;fill-rule:nonzero;stroke:none" transform="matrix(7.20186 0 0 -7.20186 140.257 81.51)"/><path d="M0 0c.068-.035.105-.096.113-.18a.22.22 0 0 0-.088-.203.391.391 0 0 0-.203-.074.377.377 0 0 0-.215.042.217.217 0 0 0-.113.175.217.217 0 0 0 .092.205.44.44 0 0 0 .205.069A.365.365 0 0 0 0 0m-.592.211a.424.424 0 0 1-.098-.33.522.522 0 0 1 .055-.193.365.365 0 0 1 .117-.125c.039-.024.081-.042.081-.042L-.445-.49a.355.355 0 0 0-.078-.024.685.685 0 0 0-.331.045.376.376 0 0 0-.25.325.785.785 0 0 0 .006.205l.041.163a8.8 8.8 0 0 1-.207-.019 2.122 2.122 0 0 1-.006-.428c.024-.238.122-.412.299-.519a.954.954 0 0 1 .57-.104c.229.022.408.096.53.217a.566.566 0 0 1 .156.484C.266.05.193.184.057.278a.493.493 0 0 1-.339.093.433.433 0 0 1-.31-.16" style="fill:#231f20;fill-opacity:1;fill-rule:nonzero;stroke:none" transform="matrix(7.20186 0 0 -7.20186 144.519 71.206)"/><path d="M0 0a.342.342 0 0 1 .682-.053A.342.342 0 0 1 0 0" style="fill:#231f20;fill-opacity:1;fill-rule:nonzero;stroke:none" transform="matrix(7.20186 0 0 -7.20186 10.793 54.791)"/><path d="M0 0a.34.34 0 0 0-.313-.366.345.345 0 0 0-.369.314.345.345 0 0 0 .317.365A.338.338 0 0 0 0 0" style="fill:#231f20;fill-opacity:1;fill-rule:nonzero;stroke:none" transform="matrix(7.20186 0 0 -7.20186 140.102 54.797)"/><path d="m0 0-.127-.176-.43.313-.193-.266.833-.605a.594.594 0 0 0-.038-.104 1.044 1.044 0 0 0-.081-.135l-.269-.367-.66.481.318.438-.148.107-.512-.705.788-.572a.19.19 0 0 1 .161-.037.27.27 0 0 1 .149.11l.312.43a.568.568 0 0 1 .107.262l.622-.451.162.222s-.061.11-.202.211l-.774.563.128.175 1.006-.732.163.225s-.063.109-.202.211l-1.349.98L-.43.312Z" style="fill:#231f20;fill-opacity:1;fill-rule:nonzero;stroke:none" transform="matrix(7.20186 0 0 -7.20186 22.918 31.525)"/><path d="M0 0a.436.436 0 0 1-.014.147.675.675 0 0 1-.058.168L-.35.858-1.796.122l.081-.16L-.562.55l.199-.393C-.337.109-.314.06-.295.01a.521.521 0 0 0 .037-.14l-1.269-.648.08-.162.73.372.37-.723.245.125s-.005.128-.083.279l-.238.467.521.267.129.065A.422.422 0 0 1 .35.005L.279.144Z" style="fill:#231f20;fill-opacity:1;fill-rule:nonzero;stroke:none" transform="matrix(7.20186 0 0 -7.20186 50.304 15.047)"/><path d="M0 0h-.216v.531h-.327v-1.03a.735.735 0 0 0-.263-.042h-.455v.816l.54.001v.183h-.87v-.974c0-.065.022-.116.065-.154a.267.267 0 0 1 .178-.055l.529.001a.556.556 0 0 1 .162.02c.044.014.081.03.114.049v-.771h.274s.053.116.053.287v.958H0v-1.245h.276s.054.116.054.287V.531H0Z" style="fill:#231f20;fill-opacity:1;fill-rule:nonzero;stroke:none" transform="matrix(7.20186 0 0 -7.20186 79.998 7.205)"/><path d="m0 0 1.016-.518-.233-.454.266-.136s.099.079.178.231l.181.359L.08.158Zm1.741.135.241.474-.291.151-.528-1.037.292-.149.203.399.131-.067c.081-.041.148-.044.148-.044L2.008 0ZM.471.389a.438.438 0 0 0 .05.269c.043.09.114.16.188.196.059.027.115.029.16.006A.175.175 0 0 0 .956.728.435.435 0 0 0 .91.46C.824.293.668.201.561.257.515.279.484.326.471.389M.906.06a.48.48 0 0 1 .289.671l.266-.135.08.156-.43.219.072.144-.289.15-.076-.146-.428.22-.081-.155.263-.134A.487.487 0 0 1 .223.795.488.488 0 0 1 .196.42.573.573 0 0 1 .48.099.563.563 0 0 1 .906.06" style="fill:#231f20;fill-opacity:1;fill-rule:nonzero;stroke:none" transform="matrix(7.20186 0 0 -7.20186 98.622 17.966)"/><path d="M0 0a3.785 3.785 0 0 0-.305-.201.54.54 0 0 0-.242-.076l.172-.237a.785.785 0 0 1 .248.061c.094.038.193.097.301.175L.77.154l-.898 1.233-.145-.106L.43.313Z" style="fill:#231f20;fill-opacity:1;fill-rule:nonzero;stroke:none" transform="matrix(7.20186 0 0 -7.20186 131.339 38.882)"/><path d="m0 0-.162.221-.164.23-.045.062.635.462-.192.265-.634-.462-.086.113-.03.044.637.461-.193.266-.639-.463-.2.278-.147-.106.428-.586.497-.683.086-.118c0-.003.002-.005.002-.005.053-.069.107-.1.107-.1l.123.09z" style="fill:#231f20;fill-opacity:1;fill-rule:nonzero;stroke:none" transform="matrix(7.20186 0 0 -7.20186 128.934 44.579)"/><path d="M0 0c.037-.003.108.028.109.083.01.42.233 2.197 2.438 4.152C3.82 5.358 4.704 6.341 4.965 8.212c.014.113-.008.162-.137.169-.43.019-1.519.159-2.457.874.022-1.063-.448-2.337-1.064-3.263C-.842 3.11-4.856 3.254-4.856 3.254l.006-.016c.047-.042.098-.077.141-.12C-3.352 1.777-1.752.219 0 0" style="fill:#d3d70f;fill-opacity:1;fill-rule:nonzero;stroke:none" transform="matrix(7.20186 0 0 -7.20186 90.576 124.748)"/><path d="M0 0c-.63.433-1.162 1.096-1.643 1.695-1.023 1.36-2.465 2.682-3.865 2.975-.119.027-.211-.017-.24-.111a8.173 8.173 0 0 0-1.268-2.381c-.229-.291-.841-1.059-1.308-1.492-1.757-1.62-2.655-2.718-3.21-4.161-.044-.099-.019-.191.077-.213a9.1 9.1 0 0 0 2.995-1.38c.302-.213 1.234-.933 1.234-.933s4.154-.632 6.519 2.274C-.064-2.816.239-1.307 0 0" style="fill:#66c430;fill-opacity:1;fill-rule:nonzero;stroke:none" transform="matrix(7.20186 0 0 -7.20186 107.652 58.096)"/><path d="M0 0a.094.094 0 0 1-.092-.083c-.036-.482-.37-3.679-1.383-6.81-.017-.053-.002-.099.063-.099 1.091-.013 6.693-.149 6.682 3.806C5.258-.281 1.178.009 0 0" style="fill:#128070;fill-opacity:1;fill-rule:nonzero;stroke:none" transform="matrix(7.20186 0 0 -7.20186 57.549 43.678)"/></svg>