<svg xmlns="http://www.w3.org/2000/svg" width="194.03111mm" height="195.14384mm" viewBox="0 0 194.03111 195.14384"><path d="M277.742 264.704h31.617v-72.742h-78.85v31.541h47.233zM388.057 264.704c.011-.631.015-1.263.015-1.898v-39.303h-31.488v39.137c0 .689-.008 1.379-.025 2.064z" style="fill:#00a75d;stroke:none" transform="matrix(.6232 0 0 .6232 -86.484 -69.664)"/><path d="M356.559 264.704c-.946 39.242-28.803 70.715-63.026 70.715-34.822 0-63.021-32.586-63.021-72.779v-39.137H199v39.303c0 57.004 42.323 103.213 94.536 103.213 51.632 0 93.594-45.187 94.521-101.315z" style="fill:#0085c7;stroke:none" transform="matrix(.6232 0 0 .6232 -86.484 -69.664)"/><path d="m166.442 349.824-2.1-3.442c-.934-1.53-2.001-4.191 3.066-7.284 2.821-1.721 6.359-2.535 8.138.381l2.13 3.489zm16.341-5.151-4.536-7.433c-3.457-5.665-9.652-3.884-13.333-1.638-3.25 1.984-7.445 6.183-3.915 11.967l4.624 7.577zM156.237 328.611l-.023-.05 6.259-5.503 2.078 4.684zm11.942-1.253-3.009-6.782 3.266-2.858-1.85-4.172-15.505 14.626 1.963 4.429 21.284-1.598-1.794-4.045zM146.294 302.817l2.989 10.241 4.059-1.185-2.746-9.408 3.413-.996 2.746 9.408 5-1.46-3.123-10.698 3.413-.996 4.276 14.649-19.298 5.633-4.143-14.192zM149.506 288.102l-1.214-8.311 10.722-1.567.405 2.77-2.433.78c1.373.875 3.396 2.135 3.927 5.765.7 4.793-2.099 9.645-9.082 10.665-5.43.794-10.996-1.477-11.949-8.186-.89-6.096 2.719-9.085 5.43-9.707l.607 4.156c-.775.113-3.063 1.891-2.633 4.827.433 2.965 2.884 5.408 7.982 4.663 5.43-.793 6.41-3.965 5.997-6.79-.134-.915-.939-3.91-5.082-4.182l.676 4.627zM151.848 259.718c5.292-.013 7.568 3.173 7.581 8.241.005 1.848-.436 4.593-2.419 6.39-1.229 1.095-2.852 1.519-4.868 1.581l-13.328.034-.011-4.284 13.048-.033c2.8-.008 4.027-1.635 4.023-3.595-.008-2.884-1.411-4.056-3.847-4.05l-13.244.034-.011-4.283zM142.206 234.654l.717-3.854 19.765 3.679-.769 4.129-15.595 5.442-.01.055 14.093 2.624-.717 3.853-19.765-3.679.81-4.349 15.224-5.283.01-.055zM151.096 219.558l.017-.053 8.332.162-1.627 4.858zm9.659 7.132 2.356-7.037 4.338.095 1.449-4.328-21.313.335-1.537 4.594 16.788 13.179 1.405-4.195zM172.201 208.838l-1.762 3.812-15.021-6.942-2.549 5.516-3.228-1.492 6.86-14.844 3.228 1.492-2.549 5.516zM177.461 198.977l-2.072 3.653-17.487-9.917 2.072-3.653zM172.284 188.089c-4.596-3.249-3.897-6.664-2.587-8.516 1.309-1.852 4.295-3.65 8.89-.401 4.596 3.249 3.896 6.663 2.587 8.515-1.309 1.852-4.295 3.651-8.89.402zm-2.425 3.429c7.705 5.447 12.683.394 14.219-1.778 1.535-2.173 4.639-8.551-3.066-13.998-7.705-5.446-12.684-.393-14.219 1.779-1.536 2.172-4.639 8.55 3.066 13.997zM184.307 157.483l2.696-2.847 14.596 13.825-2.889 3.049-16.049-3.902-.039.041 10.408 9.858-2.695 2.847-14.596-13.826 3.042-3.211 15.652 3.833.039-.041zM199.941 149.641l.044-.035 6.916 4.648-3.999 3.204zm4.257 11.227 5.791-4.638 3.596 2.429 3.563-2.853-18.097-11.264-3.781 3.028 6.973 20.173 3.453-2.765zM219.95 149.965l8.529-5.213 1.898 3.106-12.112 7.404-10.485-17.154 3.583-2.19zM250.15 131.816c1.92 4.931-.231 8.202-4.953 10.042-1.722.67-4.442 1.249-6.833.046-1.465-.751-2.445-2.112-3.229-3.97l-4.837-12.42 3.992-1.554 4.735 12.158c1.016 2.609 2.976 3.168 4.803 2.456 2.687-1.046 3.275-2.778 2.391-5.048l-4.806-12.34 3.991-1.555zM262.485 115.214l3.815-.902 4.63 19.564-4.088.966-11.284-12.061-.055.013 3.302 13.951-3.815.903-4.63-19.564 4.305-1.019 10.99 11.786.054-.013zM277.482 133.141l-4.16.579-2.772-19.912 4.16-.579zM290.732 112.003l4.363-.22-5.812 20.423-3.999.201-7.779-19.738 4.503-.227 5.072 14.996.056-.002zM313.312 116.583l-10.637-.8-.317 4.216 9.773.734-.267 3.547-9.772-.735-.391 5.193 11.113.836-.267 3.546-15.217-1.144 1.507-20.048 14.742 1.109zM320.82 123.231l1.109-5.261 5.123 1.08c2.411.508 2.553 2.141 2.334 3.182-.409 1.945-1.607 2.465-3.744 2.015zm-6.349 10.165 4.028.849 1.622-7.699 4.247.895c3.041.641 2.986 1.717 2.42 4.402-.427 2.027-.477 3.076-.398 4.065l4.548.958.109-.52c-.808-.514-.657-1.226-.051-4.103.774-3.671.025-4.459-1.442-5.512 2.084-.248 3.572-1.879 4.028-4.044.358-1.699.214-5.764-5.02-6.867l-9.945-2.096zM337.634 132.659c-.349 1.064-.533 3.257 2.923 4.485 1.874.665 4.117.957 4.829-1.048.525-1.478-.759-2.38-2.596-3.567l-1.862-1.196c-2.808-1.8-5.52-3.536-4.039-7.704.75-2.111 3.206-5.429 9.353-3.245 5.805 2.062 6.012 6.414 5.214 8.745l-3.8-1.349c.195-.882.59-3-2.866-4.227-1.504-.534-3.495-.618-4.105 1.097-.524 1.478.578 2.226 1.303 2.691l4.215 2.775c2.361 1.552 4.361 3.451 3.151 6.854-2.024 5.7-8.006 4.139-9.669 3.549-6.913-2.456-6.685-6.862-5.851-9.21zM352.505 145.268l-3.819-1.751 8.383-18.273 3.818 1.751zM362.42 150.522l-3.659-2.062 8.125-14.416-5.293-2.983 1.746-3.098 14.245 8.028-1.746 3.098-5.293-2.983zM376.178 159.732l-3.383-2.491 4.499-6.11 1.829-14.196 3.991 2.939-1.82 9.508 8.382-4.677 3.833 2.821-12.865 6.14zM396.974 164.46c4.12-3.834 7.319-2.451 8.864-.79 1.545 1.66 2.694 4.951-1.427 8.784-4.12 3.834-7.319 2.45-8.864.79-1.545-1.66-2.694-4.951 1.427-8.784zm-2.862-3.076c-6.908 6.428-2.98 12.335-1.169 14.282 1.813 1.948 7.421 6.291 14.329-.137 6.909-6.427 2.981-12.334 1.169-14.281-1.811-1.948-7.42-6.291-14.329.136zM403.359 187.384l-2.431-3.424 16.392-11.64 8.283 11.666-2.899 2.059-5.851-8.242-3.7 2.626 5.123 7.215-2.899 2.058-5.123-7.214zM434.576 208.822l-4.603-9.623-3.815 1.825 4.23 8.84-3.208 1.535-4.23-8.841-4.697 2.248 4.808 10.052-3.207 1.535-6.585-13.765 18.134-8.677 6.381 13.337zM437.655 216.984l1.242 3.837c.55 1.705.968 4.542-4.68 6.369-3.144 1.017-6.774.984-7.825-2.266l-1.258-3.89zm-17.091 1.203 2.679 8.285c2.043 6.314 8.483 6.026 12.585 4.699 3.623-1.172 8.681-4.279 6.596-10.726L439.692 212ZM435.842 250.666c-5.212.916-7.998-1.836-8.875-6.827-.32-1.82-.354-4.601 1.294-6.71 1.024-1.288 2.551-1.983 4.527-2.387l13.127-2.306.741 4.219-12.85 2.258c-2.758.485-3.691 2.297-3.352 4.228.499 2.84 2.082 3.756 4.481 3.335l13.044-2.292.742 4.219zM443.162 266.791c1.191-.38 3.434-1.106 3.308-4.576-.073-2.014-1.525-4.931-7.205-4.724-3.61.132-6.804 1.677-6.674 5.231.085 2.322 1.459 3.897 3.939 4.311l.154 4.197c-4.396-.68-7.55-3.423-7.734-8.459-.195-5.345 3.276-9.31 10.214-9.563 7.024-.256 10.753 3.67 10.942 8.847.219 6.016-3.833 8.601-6.791 8.933zM444.374 282.645l-.006.056-8.16 1.686.511-5.098zm-10.999-4.816-.739 7.383-4.252.868-.455 4.541 20.71-5.044.483-4.82-19.289-9.136-.441 4.402zM426.17 297.778l.873-4.108 16.186 3.437 1.262-5.944 3.479.738-3.396 15.996-3.478-.738 1.261-5.944zM423.227 308.559l1.211-4.021 19.25 5.797-1.211 4.022zM430.685 318.035c5.2 2.154 5.271 5.639 4.403 7.734-.868 2.095-3.384 4.508-8.583 2.354s-5.271-5.639-4.402-7.734c.868-2.095 3.382-4.509 8.582-2.354zm1.608-3.881c-8.718-3.611-12.458 2.416-13.476 4.873-1.018 2.458-2.637 9.364 6.08 12.976s12.457-2.415 13.476-4.873c1.018-2.457 2.637-9.363-6.08-12.976zM425.688 350.548l-2.005 3.369-17.276-10.283 2.149-3.609 16.514.283.029-.049-12.319-7.332 2.005-3.368 17.275 10.282-2.262 3.802-16.112-.304-.029.048zM212.819 375.222l-5.097 5.899-2.626-2.269 5.097-5.901-3.026-2.615-15.278 17.676 3.028 2.617 8.149-9.43 2.626 2.269-8.15 9.431 3.027 2.617 15.277-17.679z" style="fill:#2c2c2b;stroke:none" transform="matrix(.6232 0 0 .6232 -86.484 -69.664)"/><path d="m195.665 360.398-.044-.04L183 374.961l.045.039 12.829 11.088 1.999-2.315-9.846-8.509 8.607-9.96 5.532 4.781 2.015-2.329zM334.464 395.936l1.884 7.567-3.368.835-1.882-7.564-3.884.967 5.596 22.472 3.882-.966-2.962-11.897 3.367-.838 2.963 11.899 3.881-.967-5.594-22.475z" style="fill:#2c2c2b;stroke:none" transform="matrix(.6232 0 0 .6232 -86.484 -69.664)"/><path d="m312.465 401.413-.059.013 4.662 18.731.06-.014 16.058-3.998-.739-2.969-12.234 3.045-3.18-12.773 7.096-1.766-.744-2.986zM231.795 406.049l3.535 1.872 7.885-14.907-22.389-11.844-1.466 2.771 18.854 9.974z" style="fill:#2c2c2b;stroke:none" transform="matrix(.6232 0 0 .6232 -86.484 -69.664)"/><path d="m236.65 407.686-24.096-12.746-1.43 2.703 9.862 5.215-1.895 3.584 3.537 1.871 1.895-3.582 10.697 5.656zM266.151 417.1l3.883.961 4.18-16.892-24.618-6.092-.733 2.961 20.736 5.131z" style="fill:#2c2c2b;stroke:none" transform="matrix(.6232 0 0 .6232 -86.484 -69.664)"/><path d="m262.236 414.727 1.531-6.185-3.881-.961-1.531 6.187-5.475-1.357 1.541-6.225-3.885-.961-1.539 6.227-4.212-1.043-.734 2.967 26.521 6.562.734-2.967zM398.742 378.002l2.997-2.651-11.396-12.883-18.996 16.807 2.02 2.282 16-14.153z" style="fill:#2c2c2b;stroke:none" transform="matrix(.6232 0 0 .6232 -86.484 -69.664)"/><path d="m395.004 379.758-4.221-4.772-2.995 2.649 4.221 4.773-4.527 4.007-4.25-4.805-2.998 2.652 4.25 4.803-3.249 2.875 2.026 2.289 20.463-18.102-2.027-2.289zM293.847 410.717c3.45 0 6.243-2.65 6.243-5.92 0-3.269-2.793-5.919-6.243-5.919-3.446 0-6.24 2.65-6.24 5.919 0 3.27 2.794 5.92 6.24 5.92zm0-8.683a2.763 2.763 0 1 1 .004 5.524 2.763 2.763 0 0 1-.004-5.524zM307.377 414.817v-2.992h-27.312v2.992h6.165v2.998h-5.122v3.059h21.042v4.037h4.198v-7.096h-5.198v-2.998zm-10.227 2.998h-6.915v-2.998h6.915zM348.996 399.311c1.63 3.012 5.35 3.981 8.408 2.324 3.061-1.658 4.299-5.31 2.67-8.318-.589-1.09-1.957-2.082-3.093-2.549l2.909-1.572-1.479-2.731-5.476 2.963-.726-1.34-3.518 1.907.727 1.34-5.598 3.031 1.478 2.728 3.238-1.754c-.313 1.282-.129 2.883.46 3.971zm4.079-5.672a2.895 2.895 0 1 1 2.76 5.09 2.895 2.895 0 0 1-2.76-5.09zM372.686 395.448l-21.334 11.549 1.455 2.689 17.816-9.646 2.265 4.179 3.516-1.904zM367.815 386.444l-2.374-4.386-3.52 1.905 6.269 11.581 3.519-1.907-2.417-4.465 2.705-1.464-1.476-2.729z" style="fill:#2c2c2b;stroke:none" transform="matrix(.6232 0 0 .6232 -86.484 -69.664)"/></svg>