<svg xmlns="http://www.w3.org/2000/svg" width="230.49178mm" height="230.49178mm" viewBox="0 0 230.49178 230.49178"><g transform="translate(-6.353 -23.5) scale(1.11501)"><circle cx="109.05576" cy="124.43481" r="103.35848" style="fill:#f9f9f9;stroke:#fff;stroke-width:0"/><path d="M0 0v-25.186h13.986v.017h.004V0H5.591v-19.64h2.76v16.879h2.873v-19.656H2.767V0Z" style="fill:#940922;fill-opacity:1;fill-rule:nonzero;stroke:none" transform="matrix(1.50173 0 0 -1.50173 124.43 94.177)"/><path d="M0 0v-2.769h8.454v8.432H-5.553v-14.02h11.24v-8.397h-8.455v2.787h5.649v2.797h-8.434v-8.352H8.454v13.926H-2.768v8.498h8.453V0Z" style="fill:#940922;fill-opacity:1;fill-rule:nonzero;stroke:none" transform="matrix(1.50173 0 0 -1.50173 106.862 102.681)"/><path d="M0 0h-5.649v19.656h2.89V2.864H.007v19.553h-14.082V2.864h2.765v16.792h2.894V0h-5.659v-2.769H0Z" style="fill:#940922;fill-opacity:1;fill-rule:nonzero;stroke:none" transform="matrix(1.50173 0 0 -1.50173 94.29 127.841)"/><path d="M101.808 153.631H84.984v.977h16.824zM103.022 155.566H83.77v.974h19.25z" style="fill:#940922;fill-opacity:1;fill-rule:nonzero;stroke:none;stroke-width:.352778" transform="matrix(4.25686 0 0 4.25686 -288.613 -516.893)"/><path d="M0 0c1.201 2.595 3.801 4.395 6.814 4.395 3.008 0 5.61-1.8 6.814-4.395.398-.847.638-1.78.694-2.763h16.334V0H16.943c-1.356 4.339-5.386 7.495-10.129 7.495-4.75 0-8.778-3.156-10.13-7.495h-13.717v-2.763H-.692C-.635-1.78-.389-.847 0 0" style="fill:#940922;fill-opacity:1;fill-rule:nonzero;stroke:none" transform="matrix(1.50173 0 0 -1.50173 98.732 85.136)"/><path d="M0 0c0 1.088-.931 2.019-1.863 2.019-.922 0-1.852-.931-1.852-2.019 0-1.067.93-1.993 1.852-1.993C-.931-1.993 0-1.067 0 0" style="fill:#940922;fill-opacity:1;fill-rule:nonzero;stroke:none" transform="matrix(1.50173 0 0 -1.50173 108.044 198.939)"/><path d="m0 0-.01-.021c.424-.306.946-.649 1.369-.982l1.772-1.406.807 2.093-2.254.137C1.125-.144.516-.063 0 0" style="fill:#940922;fill-opacity:1;fill-rule:nonzero;stroke:none" transform="matrix(1.50173 0 0 -1.50173 32.462 95.113)"/><path d="M0 0c.738.59.688 1.393.035 2.205-.314.396-.546.624-.673.723l-2.165-1.719.592-.745C-1.539-.376-.682-.541 0 0" style="fill:#940922;fill-opacity:1;fill-rule:nonzero;stroke:none" transform="matrix(1.50173 0 0 -1.50173 173.056 76.545)"/><path d="M0 0c-.714-.599-.827-1.909-.128-2.741.69-.819 1.994-.932 2.707-.335.71.595.827 1.905.14 2.721C2.022.479.709.593 0 0" style="fill:#940922;fill-opacity:1;fill-rule:nonzero;stroke:none" transform="matrix(1.50173 0 0 -1.50173 156.54 176.842)"/><path d="m0 0 1.733 3.052-3.779 2.147.94 1.659 3.781-2.144.841 1.474-3.783 2.148L.68 10l3.781-2.149 2.683 4.726 1.476-.842L1.479-.838Zm-3.419-10.732L-5.13-8.695l-5.985-5.029-1.061 1.26 7.559 6.348 2.766-3.296zm-13.269.821c-.575.684-.799 1.551-.735 2.401l-1.465-1.226-1.06 1.26 2.82 2.367-.894 1.058 1.681 1.409.891-1.061 2.752 2.313 1.06-1.264-1.449-1.216c.858-.075 1.692-.434 2.265-1.12 1.282-1.53 1.041-3.862-.611-5.243-1.646-1.388-3.973-1.208-5.255.322m-3.041-12.865-3.462 6.808-1.63-.828 3.283-6.447-1.713-.876-5.945 11.666 1.724.874 1.811-3.561 1.625.827-1.922 3.784 1.776.902 6.236-12.242zm-9.67-.78-2.025-1.052-3.919 7.701 5.088 2.593.79-1.546-3.298-1.681 2.372-4.65.446.205c.906.423 2.403 1.382 3.314 2.182l.726-1.424c-.908-.891-2.545-1.842-3.494-2.328m-9.78 2.324h-2.207v-3.417h-2.038v9.271h2.038v-4.138h2.207zm-2.207-8.565h-2.051v2.658h-7.82v1.646h9.871zm-11.687 9.161c0 .892.384 1.698.98 2.312h-1.909v1.647h3.679v1.381h2.186v-1.381h3.597v-1.647h-1.893c.614-.614 1.015-1.42 1.015-2.312 0-2.002-1.686-3.632-3.843-3.632-2.148 0-3.812 1.63-3.812 3.632m-6.199.743-.68-1.562-2.025.874-2.514-5.823-1.856.801 5.386 12.45 1.852-.798-2.188-5.068zm-15.497.814.641 1.492 2.483-1.067 1.606 3.713 1.849-.796-1.585-3.67a87.986 87.986 0 0 1 4.763-1.653l-.632-1.466c-1.334.365-4.476 1.474-6.576 2.362zm-3.881 5.086-4.126 4.326-3.6-3.434-1.488 1.559 3.603 3.438-4.199 4.399 1.206 1.148 6.13-6.43c1.396.823 3.191 2.167 3.966 2.954l-4.801 5.037 1.24 1.183 6.277-6.58c-1.278-1.223-3.646-2.99-5.29-4.051l2.289-2.399zM-95.924-.826l-.925 1.769 6.761 3.556-.849 1.615-6.402-3.369-.901 1.703 11.59 6.098.895-1.707-3.536-1.86.853-1.612 3.755 1.971.923-1.766zm4.735 17.466 2.664-5.059-1.542-.806-1.716 3.271-4.622-2.431.214-.442c.432-.899 1.41-2.383 2.224-3.285l-1.414-.747c-.903.893-1.88 2.52-2.374 3.465l-1.078 2.009zm-8.018 11.696c0 .675.55 1.227 1.221 1.227.68 0 1.232-.552 1.232-1.227a1.227 1.227 0 1 0-2.453 0m-1.208 10.972-1.299.333 1.637 6.399 1.295-.333-.622-2.438 7.178-1.841-.398-1.543-7.176 1.837zm1.886 10.713 9.161-.506-7.567 4.154 2.442 4.463 1.148-.631-1.674-3.062 1.977-1.086 1.59 2.889 1.14-.626-1.589-2.889 2.252-1.236 1.775 3.231 1.147-.632-2.544-4.628-.08.044-.617-1.591-2.593.157-1.004-2.59 2.04-1.598-.599-1.535-7.141 5.772zm7.405 13.055c.639.865 1.316 1.412 1.715 1.617l.821-1.046c-.457-.255-.936-.631-1.483-1.37-1.111-1.504-1.005-3.211.631-4.425 1.601-1.189 3.267-.907 4.347.552.352.469.533.849.584 1.072l-1.758 1.304-.922-1.238-1.009.749 1.838 2.48 3.555-2.636a8.605 8.605 0 0 0-1.274-2.544c-.883-1.19-1.858-1.87-2.988-2.066-1.057-.186-2.248.149-3.306.935-2.225 1.667-2.481 4.293-.751 6.616m4.009 4.559 3.563-3.648c1.199-1.227 2.263-1.293 3.035-.54.827.808.765 1.857-.434 3.078l-3.568 3.651 1.143 1.114 3.493-3.572c1.888-1.931 1.729-3.755.224-5.224-1.444-1.417-3.174-1.524-5.096.442l-3.502 3.585zm8.841 7.622c.784.538 1.467.761 1.966.838l.429-1.281a3.8 3.8 0 0 1-1.675-.659c-.838-.574-.886-1.258-.59-1.683.383-.555.981-.522 2.192-.22 1.585.385 2.617.17 3.324-.855.807-1.164.619-2.76-1.226-4.04-.769-.529-1.708-.867-2.264-.906l-.455 1.294a4.412 4.412 0 0 1 2.057.75c.832.574 1.025 1.296.62 1.88-.376.545-.958.613-2.097.319-1.485-.415-2.682-.298-3.393.725-.818 1.185-.453 2.75 1.112 3.838m6.858 4.007c.932.485 1.685.645 2.05.645l.289-1.285a4.266 4.266 0 0 1-1.678-.491c-1.575-.822-2.202-2.406-1.226-4.269.886-1.703 2.442-2.271 4.154-1.376.564.294 1.105.72 1.398 1.079l.81-.994c-.245-.338-.889-.906-1.831-1.397-2.463-1.283-4.764-.52-5.994 1.84-1.33 2.553-.341 5.014 2.028 6.248m4.329 1.753 3.299-8.097-1.473-.602-3.308 8.093zm6.103 2.047.395-1.249-3.331-1.046.681-2.154 3.141.989.391-1.238-3.147-.988.772-2.45 3.513 1.106.394-1.253-5.035-1.582-2.623 8.339zm3.674.798 2.823-3.345a25.449 25.449 0 0 0 1.944-2.66l.022.017c-.302 1.12-.501 2.232-.712 3.554l-.489 3.01 1.459.233 1.395-8.635-1.643-.264-2.869 3.442c-.703.863-1.433 1.821-2.016 2.727l-.046-.018c.246-1.107.448-2.245.68-3.664l.496-3.091-1.458-.232-1.39 8.631zm11.141 1.12c1.049.017 1.793-.179 2.124-.34l-.319-1.28a4.318 4.318 0 0 1-1.72.31c-1.777-.03-3.043-1.167-3.012-3.269.034-1.92 1.17-3.123 3.105-3.09.635.009 1.307.152 1.734.338l.28-1.255c-.374-.187-1.206-.406-2.266-.424-2.78-.048-4.494 1.667-4.538 4.324-.042 2.881 1.936 4.639 4.612 4.686m3.658-.258 5.054-.604-.161-1.302-3.463.414-.269-2.244 3.269-.389-.15-1.292-3.273.396-.305-2.554 3.658-.44-.155-1.299-5.242.63zm6.961-6.037 1.432 4.801 1.53-.459-1.462-4.883c-.483-1.645-.027-2.604 1.004-2.912 1.106-.332 1.994.231 2.483 1.871l1.456 4.888 1.529-.455-1.433-4.787c-.765-2.584-2.438-3.331-4.45-2.732-1.938.576-2.874 2.032-2.089 4.668m10.987 1.557.446-4.352c.102-1.124.142-2.262.102-3.288h.03c.382 1.096.845 2.128 1.414 3.336l1.294 2.758 1.336-.629-3.714-7.913-1.502.709-.43 4.457c-.098 1.105-.166 2.313-.127 3.387l-.051.011a64.848 64.848 0 0 0-1.505-3.411l-1.329-2.829-1.339.631 3.724 7.91zm7.387-3.916-4.536-7.474-1.362.827 4.539 7.473zm2.042-1.305-1.42-3.905c-.389-1.088-.764-2.088-1.215-3.062l.022-.017c.809.695 1.705 1.355 2.609 2.007l3.41 2.442 1.365-1.016-7.659-5.205-1.459 1.093 2.955 8.704zm9.204-7.893-.915-.941-2.504 2.435-1.572-1.617 2.359-2.3-.904-.928-2.358 2.299-1.793-1.844 2.638-2.57-.913-.939-3.784 3.686 6.094 6.268zm2.707-3.12c.785-.983 1.151-1.773 1.132-2.546-.014-.626-.324-1.22-.914-1.69-.879-.702-1.96-.579-2.697-.106l-.032-.024c.215-.644-.031-1.32-.557-2.005-.678-.905-1.325-1.715-1.486-2.058l-1.014 1.282c.118.264.544.876 1.247 1.74.738.914.77 1.455.224 2.18l-.503.632-2.813-2.236-.982 1.236 6.74 5.363c.472-.403 1.081-1.046 1.655-1.768m4.586-6.492c.492-.812.672-1.508.717-2.01l-1.308-.351a3.775 3.775 0 0 1-.548 1.714c-.526.865-1.203.959-1.647.69-.574-.349-.58-.942-.352-2.17.287-1.601.005-2.618-1.062-3.263-1.213-.731-2.792-.444-3.953 1.476-.484.801-.759 1.757-.761 2.315l1.32.373a4.411 4.411 0 0 1 .61-2.098c.53-.866 1.235-1.108 1.848-.739.561.343.671.92.444 2.074-.323 1.504-.126 2.697.938 3.339 1.234.744 2.767.28 3.754-1.35m2.247-4.454-7.835-3.893-.706 1.431 7.828 3.891zm2.756-6.598-1.245-.492-.927 2.339-6.888-2.732-.589 1.482 6.893 2.734-.922 2.315 1.242.492ZM4.408 27.107a1.227 1.227 0 1 0 .005 2.457 1.227 1.227 0 0 0-.005-2.457M-5.354 5.984l-1.474.84 4.835 8.521c2.106-1.196 4.89-2.999 6.723-4.383l-.979-1.723C2.172 10.461.184 11.79-1.524 12.722zm-5.761-4.355 2.657-3.167 1.698 1.42 1.101-1.317-1.697-1.419 2.202-2.617L-6.71-6.78-12.673.324zm-51.802-14.795c-.65-1.554-2.329-4.78-3.398-6.188l-1.883.809c.912 1.138 2.193 3.447 2.652 4.643l-4.715 2.037.683 1.573zm-24.48 42.146c0 22.401 18.212 40.619 40.613 40.619 22.39 0 40.615-18.218 40.615-40.619 0-22.391-18.225-40.614-40.615-40.614-22.401 0-40.613 18.223-40.613 40.614M7.034 44.025l-1.929-1.542A48.143 48.143 0 0 0 3.6 41.32l.004-.024a21.382 21.382 0 0 0 1.869-.314l2.43-.485.432-1.75-5.611 1.612-3.573-.881-.388 1.549 3.541.873 4.295 3.903zm-53.818 47.114c-34.273 0-62.159-27.878-62.159-62.159 0-34.272 27.886-62.154 62.159-62.154 34.271 0 62.158 27.882 62.158 62.154 0 34.281-27.887 62.159-62.158 62.159" style="fill:#940922;fill-opacity:1;fill-rule:nonzero;stroke:none" transform="matrix(1.50173 0 0 -1.50173 179.222 168.05)"/><path d="M0 0h-.021l.017-.009z" style="fill:#940922;fill-opacity:1;fill-rule:nonzero;stroke:none" transform="matrix(1.50173 0 0 -1.50173 45.048 93.693)"/><path d="M0 0c-11.733-11.725-27.913-18.987-45.768-18.987-17.856 0-34.036 7.262-45.768 18.987-11.727 11.729-18.989 27.916-18.989 45.767 0 17.857 7.262 34.043 18.989 45.77 11.732 11.725 27.911 18.986 45.768 18.986 17.855 0 34.035-7.261 45.768-18.986 11.726-11.727 18.986-27.913 18.986-45.77C18.986 27.916 11.726 11.729 0 0m-45.768 112.424c-36.755-.003-66.655-29.896-66.658-66.657.003-36.753 29.903-66.652 66.658-66.656 36.758.004 66.655 29.903 66.655 66.656 0 36.761-29.902 66.654-66.655 66.657" style="fill:#940922;fill-opacity:1;fill-rule:nonzero;stroke:none" transform="matrix(1.50173 0 0 -1.50173 177.696 193.259)"/><path d="M0 0c-.806.304-1.147.48-1.147.872 0 .311.294.599.902.599.595 0 1.046-.175 1.283-.294l.316 1.12c-.367.173-.872.314-1.587.314-1.449 0-2.338-.799-2.338-1.856 0-.901.677-1.47 1.715-1.835.737-.262 1.035-.481 1.035-.864 0-.41-.342-.674-.985-.674-.6 0-1.186.19-1.551.388l-.29-1.151c.351-.195 1.049-.388 1.757-.388 1.702 0 2.494.881 2.494 1.922C1.604-.975 1.097-.404 0 0" style="fill:#940922;fill-opacity:1;fill-rule:nonzero;stroke:none" transform="matrix(1.50173 0 0 -1.50173 80.428 161.1)"/><path d="M87.579 160.567h.493v-1.585h-.493z" style="fill:#940922;fill-opacity:1;fill-rule:nonzero;stroke:none;stroke-width:.352778" transform="matrix(4.25686 0 0 4.25686 -288.613 -516.893)"/><path d="M0 0c-.447 0-.738-.305-.738-.7 0-.384.284-.698.726-.698h.008c.462 0 .748.314.748.698C.729-.305.458 0 0 0" style="fill:#940922;fill-opacity:1;fill-rule:nonzero;stroke:none" transform="matrix(1.50173 0 0 -1.50173 85.254 156.943)"/><path d="M0 0c-.749 0-1.2-.431-1.385-.725h-.026l-.068.623H-2.69c.02-.406.036-.874.036-1.43v-3.064h1.394v2.597c0 .122.012.252.047.343.103.258.33.526.721.526.507 0 .705-.393.705-.976v-2.49h1.396v2.656C1.609-.615.919 0 0 0" style="fill:#940922;fill-opacity:1;fill-rule:nonzero;stroke:none" transform="matrix(1.50173 0 0 -1.50173 91.968 159.72)"/><path d="M0 0c.363 0 .61-.063.773-.138L.998.903a3.288 3.288 0 0 1-1.065.173c-1.67 0-2.572-1.076-2.572-2.381 0-1.406.926-2.299 2.376-2.299.536 0 1.005.092 1.257.211l-.166 1.03a2.051 2.051 0 0 0-.807-.145c-.678 0-1.228.431-1.228 1.258C-1.215-.523-.738 0 0 0" style="fill:#940922;fill-opacity:1;fill-rule:nonzero;stroke:none" transform="matrix(1.50173 0 0 -1.50173 99.65 161.347)"/><path d="M0 0c.038.368.275.909.874.909.635 0 .777-.569.777-.909Zm.949 1.837c-1.555 0-2.271-1.254-2.271-2.4 0-1.407.868-2.288 2.394-2.288.61 0 1.168.092 1.632.283l-.185.951a3.669 3.669 0 0 0-1.242-.193c-.655 0-1.223.274-1.268.853h2.898c.012.1.045.314.045.554 0 1.11-.554 2.24-2.003 2.24" style="fill:#940922;fill-opacity:1;fill-rule:nonzero;stroke:none" transform="matrix(1.50173 0 0 -1.50173 103.746 162.478)"/><path d="m0 0 .231-1.045 1.14.541h.017v-4.733h1.351V.736H1.591Z" style="fill:#940922;fill-opacity:1;fill-rule:nonzero;stroke:none" transform="matrix(1.50173 0 0 -1.50173 112.552 158.756)"/><path d="M0 0c-.141-.212-.394-.388-.792-.388-.56 0-.846.443-.846.959 0 .623.35 1.048.818 1.048h.007c.637 0 .886-.625.877-1.261A.758.758 0 0 0 0 0m-.771 2.638c-1.318 0-2.251-.985-2.251-2.15 0-1.167.84-1.864 1.851-1.864.556 0 .94.152 1.215.428l.02-.006A1.805 1.805 0 0 0-.69-2.058c-.323-.223-.759-.351-1.188-.368a2.8 2.8 0 0 0-.604 0v-1.095c.153-.008.401-.014.633 0 .936.037 1.729.312 2.296.837.646.599 1.034 1.496 1.034 2.748 0 1.397-.723 2.574-2.252 2.574" style="fill:#940922;fill-opacity:1;fill-rule:nonzero;stroke:none" transform="matrix(1.50173 0 0 -1.50173 123.999 161.458)"/><path d="M0 0h-.005c-.634 0-.937.572-.964 1.206 0 .164.018.275.063.355.13.296.44.527.821.527.593 0 .89-.481.89-1.032C.805.451.486 0 0 0m.371 3.08c-.552 0-.973-.178-1.269-.471h-.028c.156.689.71 1.334 1.952 1.427.219.019.379.027.539.019v1.077a3.49 3.49 0 0 1-.561-.012c-.933-.047-1.711-.331-2.296-.873-.655-.606-1.065-1.544-1.065-2.668 0-1.425.78-2.605 2.377-2.605 1.289 0 2.199.969 2.199 2.159 0 1.241-.844 1.947-1.848 1.947" style="fill:#940922;fill-opacity:1;fill-rule:nonzero;stroke:none" transform="matrix(1.50173 0 0 -1.50173 130.658 165.226)"/><path d="M0 0h-.01c-.532 0-.862.658-.855 2.036 0 1.352.33 2.023.855 2.023.557 0 .841-.699.841-2.023C.831.678.54 0 0 0m.008 5.114c-1.544 0-2.274-1.361-2.274-3.096.016-1.693.697-3.077 2.237-3.077h.013c1.499 0 2.247 1.275 2.247 3.115 0 1.633-.633 3.058-2.223 3.058" style="fill:#940922;fill-opacity:1;fill-rule:nonzero;stroke:none" transform="matrix(1.50173 0 0 -1.50173 138.214 165.177)"/></g></svg>