<svg xmlns="http://www.w3.org/2000/svg" width="221.38571mm" height="221.38571mm" viewBox="0 0 221.38571 221.38571"><path d="M715.854 296.656c0-66.528-53.941-120.464-120.475-120.464-66.544 0-120.47 53.936-120.47 120.464 0 66.545 53.926 120.481 120.47 120.481 66.534 0 120.475-53.936 120.475-120.481" style="fill:#fff;fill-opacity:1;fill-rule:nonzero;stroke:none" transform="matrix(.91185 0 0 -.91185 -432.207 381.207)"/><path d="M618.896 220.12c.409-.041 1.22.305 1.22.912.103 4.717 2.583 24.618 27.305 46.48 14.232 12.592 24.13 23.592 27.045 44.523.158 1.278-.103 1.811-1.542 1.885-4.788.228-16.988 1.801-27.493 9.773.25-11.877-5.019-26.138-11.92-36.494-24.073-32.248-69-30.654-69-30.654l.082-.191c.526-.45 1.088-.852 1.572-1.348 15.202-14.997 33.104-32.437 52.731-34.886" style="fill:#dcd421;fill-opacity:1;fill-rule:nonzero;stroke:none" transform="matrix(.91185 0 0 -.91185 -432.207 381.207)"/><path d="M645.431 323.693c-7.08 4.85-13.028 12.278-18.409 18.981-11.449 15.23-27.58 30.025-43.246 33.293-1.363.32-2.379-.19-2.695-1.233-1.338-4.148-5.605-15.652-14.181-26.652-2.567-3.264-9.443-11.861-14.68-16.68-19.658-18.152-29.695-30.453-35.933-46.597-.479-1.086-.193-2.131.878-2.366 4.687-1.13 18.908-5.164 33.533-15.462 3.395-2.395 13.813-10.432 13.813-10.432s46.494-7.082 72.956 25.476c7.254 10.167 10.638 27.071 7.964 41.672" style="fill:#72bf44;fill-opacity:1;fill-rule:nonzero;stroke:none" transform="matrix(.91185 0 0 -.91185 -432.207 381.207)"/><path d="M626.518 310.467c-.103 32.496-45.789 35.742-58.975 35.658a1.056 1.056 0 0 1-1.03-.957c-.409-5.383-4.151-41.141-15.483-76.207-.205-.592-.015-1.1.699-1.1 12.231-.16 74.926-1.681 74.789 42.606" style="fill:#00806e;fill-opacity:1;fill-rule:nonzero;stroke:none" transform="matrix(.91185 0 0 -.91185 -432.207 381.207)"/><path d="M505.365 296.67c0 49.621 40.38 89.993 90.014 89.993 49.625 0 89.998-40.372 89.998-89.993 0-49.631-40.373-90.008-89.998-90.008-49.634 0-90.014 40.377-90.014 90.008m-1.842 0c0-50.647 41.206-91.85 91.856-91.85 50.641 0 91.84 41.203 91.84 91.85 0 50.638-41.199 91.834-91.84 91.834-50.65 0-91.856-41.196-91.856-91.834" style="fill:#414142;fill-opacity:1;fill-rule:nonzero;stroke:none" transform="matrix(.91185 0 0 -.91185 -432.207 381.207)"/><path d="M475.83 296.67c0 65.918 53.629 119.546 119.549 119.546 65.923 0 119.555-53.628 119.555-119.546 0-65.924-53.632-119.557-119.555-119.557-65.92 0-119.549 53.633-119.549 119.557m-1.842 0c0-66.94 54.455-121.399 121.391-121.399 66.938 0 121.396 54.459 121.396 121.399 0 66.934-54.458 121.388-121.396 121.388-66.936 0-121.391-54.454-121.391-121.388" style="fill:#414142;fill-opacity:1;fill-rule:nonzero;stroke:none" transform="matrix(.91185 0 0 -.91185 -432.207 381.207)"/><path d="M543.511 206.655c-.097-.072-.225-.056-.342 0-.103.076-.174.188-.158.321 0 0 .168 8.295.168 8.457-.113.056-3.594 2.22-3.956 2.435-.077-2.379-.306-11.939-.332-12.285h-.031s-3.848-6.27-4.006-6.488c.218-.127 3.542-2.174 3.746-2.287a632.001 632.001 0 0 0 4.114 6.625s10.363 5.472 10.74 5.677c-.321.203-2.307 1.45-2.424 1.494-.133-.06-7.519-3.949-7.519-3.949M526.717 205.644c-.726.347-1.441.72-2.104 1.158-.699.408-1.352.883-2.006 1.388-2.537 2.047-4.206 4.354-4.987 6.907-.786 2.572-.235 5.037 1.649 7.4 1.919 2.363 4.155 3.553 6.748 3.584 2.598 0 5.238-1.047 7.881-3.18.608-.474 1.128-.97 1.623-1.49.481-.512.94-1.047 1.379-1.639.072-.117.159-.22.246-.337.085-.112.163-.229.25-.346l-2.237-2.236a10.501 10.501 0 0 1-1.235 1.96 13.257 13.257 0 0 1-1.679 1.653c-1.629 1.306-3.267 1.904-4.952 1.797-1.669-.082-3.063-.852-4.216-2.276-1.164-1.451-1.629-3.062-1.379-4.83.24-1.756 1.231-3.338 2.971-4.701.102-.086.205-.172.317-.25a1.38 1.38 0 0 1 .29-.213 10.57 10.57 0 0 1 1.629-.971c.567-.291 1.128-.556 1.71-.74zM581.05 193.194c-.668.102-6.024 1.057-6.024 1.057s-.127.057-.218.117v.016l-.087.275.816 4.553c.046.189.215.338.403.307 0 0 7.167-1.276 7.443-1.317.031.215.378 2.184.409 2.404-.266.045-11.797 2.077-12.088 2.133-.026-.275-1.567-8.994-1.567-8.994s-1.537-8.748-1.577-9.008c.259-.041 12.429-2.189 12.689-2.236.046.219.394 2.195.424 2.41-.709.117-8.055 1.402-8.055 1.402s-.133.077-.189.133c0 0-.015.016-.04.032l-.057.25.914 5.128c.03.211.23.307.403.291 0 0 5.789-1.015 6.039-1.056.026.215.332 1.9.362 2.103M494.536 269.34c-.142.652-1.362 5.951-1.362 5.951s0 .143.014.229l.011.027.235.162 4.507 1.045c.179.043.383-.072.409-.264 0 0 1.654-7.095 1.71-7.34.204.061 2.179.51 2.378.567-.055.248-2.725 11.678-2.782 11.941-.245-.076-8.877-2.09-8.877-2.09s-8.662-2.004-8.927-2.047c.091-.259 2.894-12.316 2.935-12.576.219.071 2.159.504 2.394.567-.189.693-1.859 7.947-1.859 7.947s0 .146.032.25v.012l.229.162 5.079 1.189c.174.039.362-.072.424-.279 0 0 1.317-5.701 1.389-5.943.204.043 1.868.433 2.061.49M593.797 191.581l-1.695.016-.26.117-.071.246.055 5.41.103.25.244.098 1.553-.016c1.189-.012 2.001-.262 2.526-.721.444-.423.664-1.015.653-1.826a4.015 4.015 0 0 0-.786-2.369c-.607-.812-1.393-1.23-2.322-1.205m6.503 1.063c.638.927.96 1.929.97 3 .031 1.435-.45 2.527-1.511 3.41-.867.67-1.955 1.031-3.246 1.041 0 0-8.413.123-8.673.123 0-.25-.251-17.977-.251-18.252.251-.016 3.767-.057 4.033-.057 0 .694.103 7.213.103 7.213l.101.244.245.098 1.797-.012.204-.086.062-.06s3.853-7.356 3.915-7.498c.158 0 4.788-.063 5.253-.063-.291.395-5.6 8.33-5.6 8.33-.031.088-.056.19-.031.307a.38.38 0 0 0 .204.215 5.953 5.953 0 0 1 2.425 2.047M559.055 199.243c.03-.015.101-.041.158-.056a1.27 1.27 0 0 0 .163-.057 4.912 4.912 0 0 1 2.088-.25c.679.072 1.158.506 1.449 1.307.291.869.19 1.562-.291 2.103-.479.535-1.143.971-1.944 1.275l-1.859.711-1.521-4.349zm-2.67-7.732c.087-.026.204-.073.291-.098a.82.82 0 0 1 .291-.092c.811-.244 1.607-.332 2.409-.23.781.117 1.317.607 1.648 1.521.323.959.22 1.772-.377 2.41a5.64 5.64 0 0 1-2.144 1.481h-.03l-.041.014-2.047.781-1.787-5.088zm-.302 16.888 5.814-2.24c.128-.056.291-.111.419-.158.148-.057.306-.127.455-.205a9.788 9.788 0 0 0 3.435-2.475c.914-1.062 1.118-2.394.536-4.017-.419-1.178-1.031-1.95-1.884-2.323-.827-.377-1.847-.464-3.047-.265 1.174-.602 2.032-1.434 2.568-2.465.535-1.041.597-2.205.132-3.451-.265-.826-.74-1.494-1.378-2.047-.638-.535-1.44-.883-2.338-1a6.048 6.048 0 0 0-2.685.174c-.868.26-1.741.551-2.624.898l-5.482 2.104zM498.044 312.021c-.363-2.125-1.348-3.542-3.002-4.222-1.159-.508-2.639-.611-4.38-.32-1.889.32-3.369.943-4.4 1.888-1.271 1.184-1.736 2.854-1.404 4.93l.25 1.174.332 1.252c.056.172.23.291.393.244l12.328-2c.189-.047.337-.221.306-.41zm-14.432 9.749c-.06-.276-1.48-8.954-1.48-8.954-.393-2.449.041-4.582 1.307-6.353l.219-.275c1.389-1.756 3.564-2.872 6.453-3.35 3.16-.524 5.687.043 7.514 1.697 1.307 1.162 2.088 2.653 2.394 4.426 0 0 1.583 9.602 1.613 9.863-.296.041-17.775 2.903-18.02 2.946M495.292 293.424a.402.402 0 0 0-.188-.35l-6.535-3.178c-.096-.042-.199-.027-.316.028a.39.39 0 0 0-.199.262l-.44 5.164c0 .119.047.232.144.306a.376.376 0 0 0 .321.073l6.938-2.004a.326.326 0 0 0 .275-.301m3.584 1.754c-.179.045-18.443 5.263-18.816 5.369.041-.334.229-2.44.229-2.598.174-.056 4.829-1.394 4.829-1.394l.144-.26.642-7.414a.328.328 0 0 0-.204-.35s-4.221-2.056-4.41-2.144c.016-.176.362-4.016.408-4.338.332.174 17.392 8.486 17.581 8.57-.031.178-.388 4.385-.403 4.559M497.972 253.471c-.214-.104-5.334-2.438-5.334-2.438-.149-.058-.307-.027-.393.074l-.087.071v.025c-.944 2.078-1.072 3.951-.393 5.547.684 1.605 2.062 2.887 4.119 3.828 1.843.824 3.512 1.074 5.023.752.899-.213 1.736-.668 2.466-1.334.622-.59 1.148-1.391 1.593-2.336.392-.853.699-1.781.888-2.767 0 0 .332-2.163.362-2.483.286.131 2.435 1.102 2.639 1.176-.464 1.9-1.159 3.947-2.133 6.121-.695 1.523-1.568 2.787-2.599 3.773a9.538 9.538 0 0 1-2.726 1.756c-2.261.928-4.813.78-7.554-.465-2.732-1.246-4.529-3.062-5.33-5.414-.781-2.289-.551-4.843.7-7.597.97-2.133 2.134-3.977 3.45-5.496.179.07 6.892 3.115 7.126 3.215-.087.234-1.685 3.771-1.817 3.992M508.855 231.132s9.632 6.119 9.868 6.265c-.149.204-1.874 2.899-2.001 3.116-.628-.391-9.378-5.959-9.378-5.975-1.536-.969-2.781-1.424-3.767-1.348-.73.041-1.393.348-1.945.883l-.638.799c-.73 1.16-.857 2.26-.362 3.234.474.899 1.552 1.873 3.144 2.915 0 0 8.775 5.555 9.01 5.702-.128.218-2.216 3.48-2.353 3.701-1.114-.727-9.863-6.284-9.863-6.284-2.016-1.276-3.129-2.899-3.348-4.786-.189-1.753.362-3.656 1.654-5.685.535-.813 1.071-1.523 1.669-2.104.913-.9 1.884-1.464 2.93-1.728 1.592-.391 3.41.047 5.38 1.295M630.065 193.413s-2.766 11.098-2.828 11.358c-.229-.061-3.348-.842-3.568-.899.163-.693 2.67-10.779 2.67-10.795.439-1.771.465-3.078.092-4.002a2.961 2.961 0 0 0-1.455-1.556l-.97-.348c-1.368-.346-2.409-.111-3.18.67-.694.74-1.276 2.06-1.757 3.93 0 0-2.51 10.07-2.567 10.33-.234-.055-3.972-1.004-4.236-1.061a6529.3 6529.3 0 0 0 2.817-11.326c.577-2.307 1.74-3.904 3.481-4.701 1.593-.741 3.599-.828 5.921-.235.946.235 1.797.526 2.523.918 1.133.576 1.97 1.323 2.552 2.215.904 1.379 1.062 3.236.505 5.502M641.688 211.499c.291-.664 4.498-10.066 4.498-10.066.041-.143.107-.577 0-.653-.128-.072-.491.203-.491.203s-11.765 6.875-11.893 6.952c-.138-.045-3.17-1.44-3.354-1.526.087-.234 3.757-8.314 3.757-8.314s3.624-8.096 3.773-8.324a169.27 169.27 0 0 1 2.812 1.279c-.321.664-4.527 10.06-4.527 10.06-.041.149-.144.528-.027.629.087.102.536-.174.536-.174s11.792-6.88 11.91-6.951c.087.045 3.109 1.408 3.339 1.51-.103.23-7.413 16.404-7.53 16.656-.235-.119-2.629-1.189-2.803-1.281M647.146 214.866c.148-.213 4.987-7.644 4.987-7.644s4.864-7.412 4.992-7.647l3.676 2.393c-.133.22-9.858 15.062-10 15.293a814.34 814.34 0 0 0-3.655-2.395M664.195 229.038c.363-.91 5.483-13.328 5.483-13.328a.323.323 0 0 0-.087-.408l-.071-.073-.323.016s-12.583 6.758-12.735 6.834c-.149-.101-3.196-2.848-3.451-3.094.332-.172 16.988-9.064 17.141-9.15.148.117 3.267 2.93 3.415 3.057-.107.179-7.284 17.558-7.432 17.89-.22-.174-1.813-1.623-1.94-1.744M680.372 236.54c-.409-.551-3.701-4.859-3.701-4.859s-.117-.102-.22-.131v-.016l-.291.074-3.66 2.813a.352.352 0 0 0-.081.496s4.435 5.771 4.584 5.992a241.13 241.13 0 0 0-1.945 1.477c-.168-.203-7.285-9.53-7.443-9.737.204-.158 7.275-5.537 7.275-5.537s7.048-5.394 7.248-5.558c.163.234 7.662 10.025 7.836 10.244-.19.127-1.772 1.363-1.96 1.48-.424-.582-4.947-6.488-4.947-6.488s-.118-.086-.219-.129h-.016l-.27.055-4.125 3.168c-.153.111-.184.347-.082.506 0 0 3.583 4.654 3.727 4.859-.179.117-1.542 1.16-1.71 1.291M687.696 247.115l-.826-1.492-.22-.176-.245.03-4.772 2.552-.158.217.025.264.725 1.377c.551 1.025 1.148 1.638 1.801 1.884.552.204 1.215.118 1.9-.261.796-.418 1.378-1 1.725-1.768.464-.916.48-1.801.045-2.627m2.048 6.268c-.541.986-1.266 1.74-2.211 2.23-1.276.686-2.46.774-3.741.237-1.001-.465-1.828-1.278-2.436-2.395 0 0-3.96-7.428-4.062-7.662.188-.111 15.829-8.513 16.059-8.61.132.214 1.817 3.318 1.929 3.535l-6.37 3.422-.169.205.026.263.842 1.578.173.162.072.027s8.3.016 8.474.031c.056.127 2.235 4.205 2.465 4.614-.495-.061-9.964-1.124-9.964-1.124a.449.449 0 0 0-.291.092c-.071.088-.117.174-.102.287a6.137 6.137 0 0 1-.694 3.108M696.211 268.527c-.525-.347-1.71-1.449-3.553-3.291-.642-.638-1.22-1.088-1.756-1.363-.536-.279-1.015-.363-1.464-.221-.669.19-1.087.686-1.236 1.452-.112.566-.056 1.175.117 1.8.22.725.552 1.479.97 2.246 0 0 1.017 1.551 1.18 1.803-.307.098-2.512.736-2.741.795-.124-.291-1.093-2.393-1.093-2.393l-.867-2.537c-.496-1.697-.541-3.224-.119-4.572.496-1.51 1.481-2.465 3.094-2.947 1.522-.445 3.058-.17 4.538.832.394.242 1.568 1.32 3.512 3.16 1.322 1.26 2.41 1.74 3.318 1.48.888-.261 1.399-.857 1.542-1.787.113-.638.04-1.404-.205-2.248a10.528 10.528 0 0 0-1.015-2.437s-1.103-1.623-1.276-1.883c.306-.09 2.685-.787 2.873-.844.22.496 1.114 2.584 1.114 2.569l.857 2.64c.812 2.729.725 4.932-.22 6.487-.637 1.041-1.561 1.767-2.838 2.127-1.363.394-2.7.251-3.992-.434a3.303 3.303 0 0 1-.74-.434M689.06 276.291c.229-.061 17.627-3.645 17.891-3.701.041.246.812 4.049.868 4.277-.26.063-17.641 3.643-17.907 3.686-.025-.229-.811-4.02-.852-4.262M691.944 284.254s1.016-.074 1.22-.074c.062.681.362 6.5.362 6.5a.388.388 0 0 0 .189.275l.148.057 15.478-.883c0 .244.219 4.135.25 4.369-.276.014-15.437.867-15.437.867l-.25.117-.087.247s.368 6.251.393 6.511c-.234 0-2.266.131-2.496.131 0-.264-1-17.801-1-18.06.188-.016 1.23-.057 1.23-.057M697.4 314.996a.369.369 0 0 0 .22-.277c0-.131-.041-.264-.133-.321 0 0-6.503-5.162-6.64-5.252.025-.142.591-4.205.663-4.611 1.888 1.465 9.372 7.369 9.653 7.557h.025s7.295 1.015 7.56 1.056c-.03.25-.587 4.092-.612 4.327-2.394-.35-7.585-1.059-7.749-1.043 0 0-10.822 4.48-11.225 4.656.056-.377.378-2.697.403-2.846a3546.6 3546.6 0 0 0 7.835-3.246M691.061 346.633c-1.521-.899-2.829-1.596-3.9-2.074-1.062-.479-2.088-.698-3.048-.653l1.813-3.062c.883-.059 1.944.088 3.118.439 1.134.36 2.425.94 3.818 1.766l7.76 4.541-9.444 16.029-1.914-1.127 7.382-12.568z" style="fill:#414142;fill-opacity:1;fill-rule:nonzero;stroke:none" transform="matrix(.91185 0 0 -.91185 -432.207 381.207)"/><path d="m686.114 337.42-1.715 2.861-1.766 3.002-.439.797 8.259 4.875-2.047 3.453-8.239-4.877L679.3 349l-.337.563 8.269 4.861-2.021 3.453-8.28-4.875-2.133 3.609-1.884-1.097 4.482-7.635 5.237-8.877.898-1.527c0-.026.031-.055.046-.084.547-.879 1.159-1.319 1.159-1.319l1.614.944zM655.66 376.184l10.245-9.389-4.18-4.594 2.669-2.471s1.409.612 2.828 2.165l3.313 3.613-13.38 12.285zm20.94-4.092 4.394 4.789-2.96 2.715-9.592-10.45 2.96-2.712 3.686 4.019 1.317-1.203c.832-.74 1.588-1.002 1.588-1.002l1.276 1.379zm-14.105 7.137c.087.986.612 2.076 1.449 2.99.813.914 1.859 1.527 2.844 1.695.771.135 1.45-.029 1.914-.45.454-.418.685-1.084.598-1.857-.071-1.002-.598-2.087-1.435-2.986-1.556-1.68-3.67-2.234-4.758-1.246-.469.404-.683 1.088-.612 1.854m4.032-5.293c1.645.044 3.105.71 4.166 1.855a5.866 5.866 0 0 1 1.511 4.326 7.82 7.82 0 0 1-.076.766l2.67-2.451 1.439 1.566-4.34 3.977 1.348 1.465-2.945 2.7-1.362-1.47-4.314 3.976-1.46-1.564 2.67-2.427c-1.828.148-3.655-.462-4.962-1.853-1.047-1.146-1.583-2.7-1.512-4.31.087-1.785.914-3.451 2.293-4.715 1.348-1.248 3.073-1.916 4.874-1.841M609.524 399.556l-5.294.796.638 4.366 5.31-.796zm8.811 5.352-3.864.579.857 5.642-3.961.598-.873-5.645-5.278.801.842 5.64-3.977.595-1.77-11.837c-.113-.768.055-1.421.525-1.973.465-.525 1.143-.854 2.058-1l10.27-1.555.975 6.572 3.859-.579-2.246-15.03 3.317-.492s.843 1.304 1.164 3.366l3.002 20.152-3.946.591zM584.904 413.396l3.528-23.617 3.339.505s.402 1.48.112 3.543l-3.002 20.164zm-5.957-12.128c-.525-1.118-1.219-1.74-2.124-1.873-.924-.143-1.765.245-2.608 1.133-.826.898-1.317 2.103-1.567 3.583-.204 1.509-.072 2.828.45 3.959.52 1.115 1.219 1.753 2.118 1.888.898.13 1.771-.263 2.608-1.176.848-.916 1.364-2.118 1.568-3.583.234-1.496.076-2.803-.445-3.931m1.634 9.341a8.893 8.893 0 0 1-2.649 1.189 7.51 7.51 0 0 1-3.007.148c-1.041-.163-2.001-.495-2.844-1.016a7.946 7.946 0 0 1-2.159-1.916 7.08 7.08 0 0 1-1.291-2.57 7.378 7.378 0 0 1-.144-2.9 6.89 6.89 0 0 1 1.011-2.758 6.325 6.325 0 0 1 1.961-2.075 7.505 7.505 0 0 1 2.623-1.174c.96-.245 1.976-.288 3.018-.146a7.986 7.986 0 0 1 2.817 1.003c.883.523 1.608 1.147 2.205 1.914a7.489 7.489 0 0 1 1.292 2.542c.25.94.321 1.925.158 2.941-.128 1-.49 1.918-1.031 2.728a7.824 7.824 0 0 1-1.96 2.09M556.268 400.485l-2.783 5.859-3.614-1.725 10.301-21.542 3.032 1.449s0 1.552-.929 3.451l-5.033 10.535 1.593.78c1.016.478 1.536 1.088 1.536 1.088l-.811 1.684zm-7.025-8.313c-.664.317-1.271.741-1.852 1.215 0 0-1.726 1.205-3.252 4.4l-1.506 3.144-3.66-1.751 1.526-3.138c1.522-3.191 1.378-5.293 1.378-5.293a8.691 8.691 0 0 0-.25-2.221 7.678 7.678 0 0 0-1.041-2.623c-.495-.812-.873-1.28-1.583-1.772l2.292-.885s3.222 2.335 4.095 7.271c4.379-2.437 8.222-1.379 8.222-1.379l.726 2.32c-.797-.232-1.425-.216-2.363-.12a8.858 8.858 0 0 0-2.732.832M530.561 380.117c-.087.434-.277.985-.654 1.681a8.794 8.794 0 0 1-1.251 1.785l-5.033 5.499-14.62-13.391 1.491-1.611 11.649 10.666 3.629-3.951c.45-.506.883-1.014 1.291-1.537.378-.52.669-1.029.883-1.535l-12.838-11.739 1.511-1.64 7.351 6.761 6.692-7.306 2.512 2.258s-.495 1.482-1.904 3.035l-4.339 4.711 5.253 4.804 1.306 1.219c.843.738 1.159 1.494 1.159 1.494l-1.276 1.394zM504.123 359.488l-1.348-2.279-5.584 3.295-2.032-3.453 10.822-6.381a7.434 7.434 0 0 0-.357-1.322c-.179-.51-.454-1.077-.816-1.7l-2.829-4.802-8.585 5.062 3.348 5.701-1.899 1.133-5.396-9.156 10.209-6.031c.695-.41 1.348-.494 2.001-.262.669.228 1.221.725 1.716 1.508l3.277 5.586c.377.654.638 1.261.771 1.812.142.551.214 1.045.214 1.496l8.086-4.777 1.71 2.92s-.888 1.262-2.701 2.334l-10.055 5.933 1.337 2.262 13.089-7.713 1.694 2.901s-.883 1.275-2.68 2.334l-17.545 10.343-2.042-3.449zM649.963 392.981l-2.384 1.136 2.787 5.857-3.629 1.728-5.422-11.347a7.814 7.814 0 0 0-1.306.248c-.541.135-1.149.35-1.797.653l-5.008 2.407 4.294 9.008 5.978-2.852.954 2.001-9.587 4.583-5.125-10.724c-.347-.71-.377-1.378-.086-2.016.28-.638.842-1.159 1.653-1.534l5.845-2.79c.669-.331 1.307-.548 1.894-.632a5.483 5.483 0 0 1 1.475-.062l-4.032-8.489 3.047-1.449s1.174 1 2.092 2.885l5.029 10.55 2.369-1.134-6.56-13.707 3.073-1.467s1.179 1.016 2.078 2.889l8.78 18.38-3.614 1.74z" style="fill:#414142;fill-opacity:1;fill-rule:nonzero;stroke:none" transform="matrix(.91185 0 0 -.91185 -432.207 381.207)"/></svg>