<svg xmlns="http://www.w3.org/2000/svg" width="210mm" height="210mm" viewBox="0 0 210 210"><g transform="translate(-22.12 -75.22)"><circle cx="127.11974" cy="180.22089" r="105" style="fill:#f9f9f9;stroke:#fff;stroke-width:0"/><path d="M0 0c0-41.255 33.563-74.821 74.814-74.821 41.254 0 74.803 33.566 74.803 74.821 0 41.251-33.549 74.802-74.803 74.802C33.563 74.802 0 41.251 0 0m-3.457 0c0 43.157 35.115 78.272 78.271 78.272 43.159 0 78.276-35.115 78.276-78.272 0-43.159-35.117-78.28-78.276-78.28C31.658-78.28-3.457-43.159-3.457 0" style="fill:#201f5e;fill-opacity:1;fill-rule:nonzero;stroke:none" transform="matrix(.87692 0 0 -.87694 61.894 180.394)"/><path d="M0 0c0-62.333 50.724-113.044 113.051-113.044C175.383-113.044 226.09-62.333 226.09 0c0 62.329-50.707 113.037-113.039 113.037C50.724 113.037 0 62.329 0 0m-3.841 0c0 64.45 52.445 116.873 116.892 116.873 64.451 0 116.881-52.423 116.881-116.873 0-64.452-52.43-116.894-116.881-116.894C48.604-116.894-3.841-64.452-3.841 0" style="fill:#201f5e;fill-opacity:1;fill-rule:nonzero;stroke:none" transform="matrix(.87692 0 0 -.87694 28.364 180.394)"/><path d="M0 0v8.445h-2.688V-.683s-.144-2.984-3.083-2.984c-2.795 0-3.317 2.872-3.317 2.872V8.42h-2.316V-.795s-.494-2.872-3.319-2.872c-2.938 0-3.058 2.984-3.058 2.984v9.128h-2.687V0s-.051-3.172-3.2-3.203c-3.387 0-3.506 3.535-3.506 3.535v11.45c0 3.501 3.363 3.531 3.363 3.531h10.116v2.445c0 3.074 2.629 3.129 3.46 3.054.805.075 3.462.02 3.462-3.054v-2.445H3.344s3.364-.03 3.364-3.531V.332s-.12-3.535-3.501-3.535C.031-3.172 0 0 0 0" style="fill:#201f5e;fill-opacity:1;fill-rule:nonzero;stroke:none" transform="matrix(.87692 0 0 -.87694 136.477 167.673)"/><path d="M0 0v8.447h-2.688V-.684S-2.832-3.67-5.771-3.67c-2.795 0-3.317 2.875-3.317 2.875V8.42h-2.316V-.795s-.494-2.875-3.319-2.875c-2.938 0-3.058 2.986-3.058 2.986v9.131h-2.687V0s-.051-3.172-3.2-3.203c-3.387 0-3.506 3.535-3.506 3.535v11.451c0 3.504 3.363 3.53 3.363 3.53h10.116v2.443c0 3.078 2.629 3.131 3.46 3.056.805.075 3.462.022 3.462-3.056v-2.443H3.344s3.364-.026 3.364-3.53V.332s-.12-3.535-3.501-3.535C.031-3.172 0 0 0 0" style="fill:#201f5e;fill-opacity:1;fill-rule:nonzero;stroke:none" transform="matrix(.87692 0 0 -.87694 136.477 217.216)"/><path d="M0 0c-2.346 5.281-4.547 5.545-4.547 5.545-7.037 3.693-9.125 10.707-9.125 10.707-3.932 7.398-3.319 18.34-3.319 18.34 4.173 28.2 15.875 50.115 15.875 50.115C4.929 98.495 2.35 95.685 4.052 99.258c1.734 3.554 1.92-4.475 1.425-9.079-.502-4.618 0-4.949 0-4.949 2.298-4.263.66-6.726.66-6.726s-.491.166-3.458-13.68C-.283 51.012 1.043 49.524.877 44.257.714 39 4.504 30.613 9.435 38.502c4.928 7.892 5.424 15.14 6.25 20.901.832 5.759.665 9.544.173 13.648-.502 4.121-.502 5.619-.663 9.053-.174 3.457 2.294 7.58 4.592 10.71 2.324 3.129 5.118 10.361 5.118 10.361 1.257-11.716-2.251-29.907-2.251-29.907-3.577-11.709-.856-22.414-.856-22.414 2.727-18.223-.113-24.883-.113-24.883-2.895-8.721-3.202-16.733-3.202-16.733-1.374-20.215 15.382-38.543 15.382-38.543C10.71-21.918 0 0 0 0" style="fill:#201f5e;fill-opacity:1;fill-rule:nonzero;stroke:none" transform="matrix(.87692 0 0 -.87694 90.182 216.144)"/><path d="M0 0s-.334 8.012-3.201 16.732c0 0-2.845 6.661-.122 24.883 0 0 2.707 10.705-.878 22.414 0 0-3.475 18.192-2.224 29.908 0 0 2.799-7.232 5.095-10.361 2.301-3.131 4.789-7.254 4.625-10.71-.17-3.434-.17-4.932-.665-9.053-.5-4.104-.671-7.889.16-13.648.835-5.762 1.308-13.01 6.259-20.901 4.927-7.889 8.725.498 8.556 5.755-.16 5.267 1.137 6.754-1.826 20.567-2.959 13.846-3.434 13.68-3.434 13.68s-1.661 2.463.638 6.726c0 0 .496.33 0 4.948-.466 4.605-.308 12.633 1.425 9.08 1.729-3.574-.857-.763 5.162-14.551 0 0 11.709-21.915 15.905-50.115 0 0 .612-10.942-3.344-18.34 0 0-2.083-7.014-9.098-10.707 0 0-2.234-.264-4.554-5.545 0 0-10.712-21.918-33.883-29.305 0 0 16.755 18.328 15.404 38.543" style="fill:#201f5e;fill-opacity:1;fill-rule:nonzero;stroke:none" transform="matrix(.87692 0 0 -.87694 148.615 208.043)"/><path d="M0 0s-2.585.236-2.585 3.436c0 3.199 2.324 3.46 2.324 3.46h11.516v9.834H-.118s-2.583.145-2.583 3.466c0 3.315 2.701 3.69 2.701 3.69h29.433s2.698-.375 2.698-3.69c0-3.321-2.583-3.466-2.583-3.466H18.152V6.896h11.517s2.347-.261 2.347-3.46C32.016.236 29.433 0 29.433 0H0" style="fill:#201f5e;fill-opacity:1;fill-rule:nonzero;stroke:none" transform="matrix(.87692 0 0 -.87694 114.597 196.91)"/><path d="M0 0a2.373 2.373 0 0 0 2.377 2.376c1.3 0 2.355-1.061 2.355-2.376a2.35 2.35 0 0 0-2.355-2.36A2.358 2.358 0 0 0 0 0" style="fill:#201f5e;fill-opacity:1;fill-rule:nonzero;stroke:none" transform="matrix(.87692 0 0 -.87694 208.752 172.557)"/><path d="M0 0a2.37 2.37 0 1 0 4.738 0 2.368 2.368 0 0 0-2.363-2.358A2.368 2.368 0 0 0 0 0" style="fill:#201f5e;fill-opacity:1;fill-rule:nonzero;stroke:none" transform="matrix(.87692 0 0 -.87694 42.568 172.468)"/><path d="M0 0c.905.039 1.711.162 2.419.369.706.205 1.299.537 1.783.994.484.453.843 1.053 1.081 1.807.237.756.332 1.691.287 2.812l-.115 2.8-11.776-.475.113-2.801c.047-1.119.217-2.039.52-2.766.3-.728.716-1.301 1.244-1.719.531-.417 1.17-.703 1.916-.849C-1.781.021-.936-.033 0 0m.084-2.074c-5.18-.211-7.871 2.293-8.082 7.511l-.196 4.876 15.357.619.195-4.873C7.568.84 5.146-1.873.084-2.074" style="fill:#201f5e;fill-opacity:1;fill-rule:nonzero;stroke:none" transform="matrix(.87692 0 0 -.87694 43.76 188.514)"/><path d="m0 0 6.529 3.922L-.937 5.25Zm-5.392-5.676-.393 2.219 4.294 2.586-1.138 6.391-4.905.865-.364 2.051L8.266 5.32l.384-2.158Z" style="fill:#201f5e;fill-opacity:1;fill-rule:nonzero;stroke:none" transform="matrix(.87692 0 0 -.87694 43.94 198.22)"/><path d="m0 0-3.47 10.965L11.186 15.6l3.362-10.631-1.707-.543-2.737 8.65-4.519-1.428L8.15 3.549 6.437 3.01l-2.558 8.095-5.016-1.58L1.704.539Z" style="fill:#201f5e;fill-opacity:1;fill-rule:nonzero;stroke:none" transform="matrix(.87692 0 0 -.87694 42.496 213.399)"/><path d="M0 0c-.482.996-.746 1.977-.797 2.959A6.659 6.659 0 0 0-.359 5.75c.343.889.877 1.701 1.602 2.445.732.741 1.633 1.373 2.71 1.897 1.084.523 2.147.84 3.184.939 1.036.11 2.009.02 2.912-.258a6.432 6.432 0 0 0 2.441-1.382c.723-.647 1.324-1.457 1.798-2.438a8.886 8.886 0 0 0 .788-2.428 6.77 6.77 0 0 0 .008-2.285 5.122 5.122 0 0 0-.773-1.953 4.831 4.831 0 0 0-1.545-1.467L11.86.695c.867.508 1.377 1.258 1.527 2.225.148.969-.068 2.053-.642 3.244-.342.703-.78 1.287-1.308 1.746a4.577 4.577 0 0 1-1.806.977c-.676.193-1.418.234-2.222.133-.806-.102-1.655-.368-2.542-.795-.881-.428-1.609-.924-2.191-1.493-.579-.568-1.009-1.175-1.292-1.828a4.57 4.57 0 0 1-.38-2.029A5.22 5.22 0 0 1 1.553.771c.958-1.98 2.311-3.138 4.06-3.484l2.133 1.031-1.763 3.639 1.615.783 2.641-5.461-7.022-3.4-.647 1.338 1.223 1.185C2.229-3.197.967-2 0 0" style="fill:#201f5e;fill-opacity:1;fill-rule:nonzero;stroke:none" transform="matrix(.87692 0 0 -.87694 45.522 220.524)"/><path d="M0 0c-.54.787-.917 1.512-1.136 2.164-.217.65-.317 1.258-.302 1.813.016.556.136 1.068.354 1.535.221.465.497.89.835 1.273.337.385.716.746 1.138 1.078.419.332.839.639 1.257.928l7.311 5.008 1.179-1.715-7.305-5.002c-.848-.582-1.49-1.125-1.924-1.635C.968 4.939.7 4.443.597 3.961a2.635 2.635 0 0 1 .097-1.453c.168-.483.431-.981.785-1.502.364-.527.737-.957 1.127-1.289a2.504 2.504 0 0 1 1.313-.598c.488-.064 1.048.014 1.678.236.633.221 1.37.62 2.208 1.194l7.303 5 1.173-1.713-7.309-5.008c-.873-.594-1.704-1.057-2.494-1.383-.793-.322-1.553-.461-2.285-.404-.735.047-1.447.307-2.141.775C1.362-1.717.675-.982 0 0" style="fill:#201f5e;fill-opacity:1;fill-rule:nonzero;stroke:none" transform="matrix(.87692 0 0 -.87694 52.29 232.191)"/><path d="m0 0-3.841 3.33-8.892-10.266-1.574 1.364 8.895 10.265-3.819 3.303 1.172 1.354 9.233-7.998z" style="fill:#201f5e;fill-opacity:1;fill-rule:nonzero;stroke:none" transform="matrix(.87692 0 0 -.87694 79.785 243.934)"/><path d="m0 0-9.536 6.426 8.581 12.748 9.251-6.231-1-1.484-7.526 5.066-2.647-3.931 7.046-4.74-.999-1.489-7.046 4.742-2.936-4.359 7.815-5.26Z" style="fill:#201f5e;fill-opacity:1;fill-rule:nonzero;stroke:none" transform="matrix(.87692 0 0 -.87694 81.055 259.063)"/><path d="m0 0-1.869.918c.185.453.265.904.239 1.35-.028.447-.146.88-.35 1.287a4.14 4.14 0 0 1-.875 1.136 5.55 5.55 0 0 1-1.319.897c-.694.34-1.379.523-2.059.558a4.316 4.316 0 0 1-1.958-.367c-.624-.281-1.214-.713-1.767-1.304-.558-.59-1.055-1.334-1.491-2.229-.439-.891-.723-1.738-.849-2.533-.124-.795-.107-1.524.048-2.193.154-.668.449-1.26.886-1.78.434-.521.991-.949 1.674-1.287 1.082-.527 2.087-.697 3.007-.496.922.203 1.67.773 2.243 1.719l1.867-.914c-.425-.696-.928-1.258-1.505-1.686a5.073 5.073 0 0 0-1.891-.865 5.716 5.716 0 0 0-2.162-.063 7.99 7.99 0 0 0-2.287.733c-.987.488-1.788 1.09-2.413 1.808a6.386 6.386 0 0 0-1.311 2.424c-.254.889-.311 1.848-.179 2.879.137 1.028.467 2.082 1 3.162.529 1.082 1.164 1.992 1.9 2.723.736.738 1.534 1.271 2.394 1.619a6.26 6.26 0 0 0 2.715.443c.953-.044 1.916-.308 2.892-.791A7.526 7.526 0 0 0-1.501 5.82 6.205 6.205 0 0 0-.216 4.084a5.4 5.4 0 0 0 .531-1.998A5.03 5.03 0 0 0 0 0" style="fill:#201f5e;fill-opacity:1;fill-rule:nonzero;stroke:none" transform="matrix(.87692 0 0 -.87694 96.71 256.38)"/><path d="m0 0-1.982.633L.254 7.564l-7.533 2.43-2.237-6.93-1.979.641 4.72 14.625 1.98-.637-1.934-5.992L.805 9.27l1.933 5.992 1.979-.641z" style="fill:#201f5e;fill-opacity:1;fill-rule:nonzero;stroke:none" transform="matrix(.87692 0 0 -.87694 104.32 268.733)"/><path d="m0 0-2.051.346-5.89 13.302-2.03-11.957-1.936.327 2.571 15.154 2.052-.346L-1.4 3.508.631 15.482l1.938-.332Z" style="fill:#201f5e;fill-opacity:1;fill-rule:nonzero;stroke:none" transform="matrix(.87692 0 0 -.87694 117.051 271.071)"/><path d="m0 0-2.077.166L-.838 15.49l2.072-.172Z" style="fill:#201f5e;fill-opacity:1;fill-rule:nonzero;stroke:none" transform="matrix(.87692 0 0 -.87694 120.603 271.244)"/><path d="m0 0-2.079-.012c-.035.489-.166.93-.392 1.319a3.204 3.204 0 0 1-.885.998 4.094 4.094 0 0 1-1.29.623 5.403 5.403 0 0 1-1.58.213c-.77-.002-1.468-.143-2.093-.418a4.36 4.36 0 0 1-1.585-1.202c-.437-.527-.771-1.177-1.001-1.957-.236-.769-.348-1.662-.343-2.658.007-.996.13-1.877.374-2.648.242-.766.584-1.41 1.02-1.942a4.24 4.24 0 0 1 1.587-1.195c.617-.277 1.311-.408 2.071-.398 1.207.004 2.175.3 2.916.888.736.59 1.146 1.436 1.237 2.545l2.082.01c-.07-.814-.272-1.539-.599-2.176a4.963 4.963 0 0 0-1.307-1.621 5.789 5.789 0 0 0-1.902-1.015c-.73-.241-1.52-.362-2.376-.374-1.098-.001-2.089.18-2.969.547a6.351 6.351 0 0 0-2.254 1.58c-.623.69-1.1 1.52-1.437 2.497-.341.986-.517 2.08-.524 3.285-.007 1.203.156 2.299.488 3.279.332.99.807 1.824 1.419 2.516a6.258 6.258 0 0 0 2.234 1.607c.875.381 1.855.578 2.946.584a7.504 7.504 0 0 0 2.307-.332 6.186 6.186 0 0 0 1.922-.982A5.352 5.352 0 0 0-.647 2.012C-.296 1.408-.077.738 0 0" style="fill:#201f5e;fill-opacity:1;fill-rule:nonzero;stroke:none" transform="matrix(.87692 0 0 -.87694 133.419 262.009)"/><path d="m0 0-3.695 6.668L-5.283-.75Zm5.48-5.588L3.248-5.9.814-1.514l-6.421-.914-1.041-4.877-2.059-.291 3.674 16.047 2.175.303Z" style="fill:#201f5e;fill-opacity:1;fill-rule:nonzero;stroke:none" transform="matrix(.87692 0 0 -.87694 141.317 264.789)"/><path d="m0 0-9.277-2.441-3.905 14.863 2.012.529L-7.719-.178l7.263 1.905z" style="fill:#201f5e;fill-opacity:1;fill-rule:nonzero;stroke:none" transform="matrix(.87692 0 0 -.87694 154.606 267.325)"/><path d="M0 0c-.832-.465-1.582-.777-2.251-.932-.675-.16-1.285-.205-1.836-.138a3.74 3.74 0 0 0-1.495.49c-.444.262-.841.58-1.197.949a8.589 8.589 0 0 0-.969 1.229 22.6 22.6 0 0 0-.81 1.338l-4.326 7.73 1.814 1.022 4.325-7.731c.498-.893.982-1.586 1.449-2.062.465-.479.936-.795 1.411-.944A2.583 2.583 0 0 1-2.434.92c.497.121 1.017.34 1.57.646A6.705 6.705 0 0 1 .521 2.568c.364.356.6.772.714 1.256.111.483.08 1.047-.083 1.696-.161.648-.492 1.412-.99 2.302l-4.321 7.721 1.817 1.021 4.325-7.738c.515-.92.9-1.789 1.148-2.607.25-.815.317-1.586.2-2.313-.116-.724-.437-1.41-.968-2.056C1.833 1.201 1.045.586 0 0" style="fill:#201f5e;fill-opacity:1;fill-rule:nonzero;stroke:none" transform="matrix(.87692 0 0 -.87694 171.202 260.22)"/><path d="m0 0-1.655-1.268-13.743 4.764 7.364-9.641-1.563-1.187-9.331 12.207 1.651 1.262 13.756-4.77-7.375 9.647 1.564 1.195z" style="fill:#201f5e;fill-opacity:1;fill-rule:nonzero;stroke:none" transform="matrix(.87692 0 0 -.87694 186.096 249.745)"/><path d="m0 0-1.537-1.406-10.359 11.359 1.537 1.399z" style="fill:#201f5e;fill-opacity:1;fill-rule:nonzero;stroke:none" transform="matrix(.87692 0 0 -.87694 188.638 247.274)"/><path d="m0 0 7.149-14.875-1.433-1.537-15.333 6.099 1.458 1.563 12.981-5.4-6.28 12.582z" style="fill:#201f5e;fill-opacity:1;fill-rule:nonzero;stroke:none" transform="matrix(.87692 0 0 -.87694 187.556 229)"/><path d="m0 0-6.703-9.342-12.491 8.955 6.503 9.067 1.454-1.045-5.288-7.373 3.848-2.762 4.953 6.902 1.454-1.043-4.95-6.902 4.273-3.064 5.489 7.648z" style="fill:#201f5e;fill-opacity:1;fill-rule:nonzero;stroke:none" transform="matrix(.87692 0 0 -.87694 203.646 229.432)"/><path d="m0 0 2.133 4.029c.586 1.112.838 2.016.746 2.707-.09.686-.574 1.264-1.454 1.729-1.545.812-2.829.254-3.853-1.684L-4.699 2.48Zm12.431 5.59-1.026-1.944-4.298.704a3.887 3.887 0 0 1-1.119.004 3.679 3.679 0 0 1-1.041-.313 3.666 3.666 0 0 1-.908-.627 3.396 3.396 0 0 1-.685-.908L1.583-.838l5.828-3.074-.973-1.838-13.59 7.178 3.186 6.029c.196.367.391.717.582 1.045.189.322.391.619.61.881.217.262.456.498.717.703.258.205.557.377.894.512.576.22 1.18.291 1.817.226a4.871 4.871 0 0 0 1.778-.543 4.495 4.495 0 0 0 1.211-.904c.334-.352.589-.74.766-1.162.175-.422.274-.875.287-1.363a5.352 5.352 0 0 0-.172-1.506c.769.761 1.956 1.045 3.554.843Z" style="fill:#201f5e;fill-opacity:1;fill-rule:nonzero;stroke:none" transform="matrix(.87692 0 0 -.87694 198.91 222.922)"/><path d="M0 0c-.365-1.02-.811-1.861-1.327-2.535-.514-.678-1.079-1.192-1.696-1.543a4.627 4.627 0 0 0-1.973-.59 5.554 5.554 0 0 0-2.126.293l.669 1.85c.571-.153 1.099-.186 1.586-.094.488.094.932.275 1.337.556.405.282.753.639 1.056 1.077.304.441.551.939.754 1.496.194.529.314 1.037.362 1.515.042.477.011.913-.089 1.301-.1.387-.273.729-.512 1.008a2.205 2.205 0 0 1-.933.637c-.397.144-.762.189-1.092.134-.33-.05-.662-.224-.996-.501-.335-.284-.689-.68-1.062-1.196a33.77 33.77 0 0 1-1.282-1.916A13.734 13.734 0 0 0-8.707-.359c-.452-.506-.899-.885-1.35-1.147a3.056 3.056 0 0 0-1.387-.441c-.475-.03-.981.056-1.512.25a3.637 3.637 0 0 0-1.452.951 4.018 4.018 0 0 0-.884 1.504c-.193.574-.275 1.217-.244 1.92.034.701.185 1.431.466 2.201.293.801.662 1.508 1.103 2.1.444.601.941 1.078 1.49 1.419a4.155 4.155 0 0 0 1.776.635c.638.078 1.3.006 1.982-.224l-.69-1.895c-1.843.455-3.161-.402-3.949-2.576-.386-1.061-.486-1.947-.288-2.668.196-.715.634-1.197 1.319-1.445a1.84 1.84 0 0 1 .843-.121c.262.031.52.138.779.335.259.192.534.471.824.846.288.373.615.852.975 1.442.371.593.721 1.121 1.046 1.58.323.453.626.847.898 1.175.273.317.571.604.901.86.331.258.687.459 1.072.605.383.147.794.225 1.233.235.444.007.903-.077 1.389-.25A4.06 4.06 0 0 0-.77 5.895c.433-.459.752-1 .961-1.612.21-.613.3-1.287.273-2.017A7.338 7.338 0 0 0 0 0" style="fill:#201f5e;fill-opacity:1;fill-rule:nonzero;stroke:none" transform="matrix(.87692 0 0 -.87694 212.334 211.775)"/><path d="m0 0-.549-2.006-14.822 4.053.548 2.01z" style="fill:#201f5e;fill-opacity:1;fill-rule:nonzero;stroke:none" transform="matrix(.87692 0 0 -.87694 214.488 204.175)"/><path d="m0 0-.973-4.984 13.327-2.602-.396-2.039-13.329 2.6-.965-4.957-1.757.341L-1.759.35z" style="fill:#201f5e;fill-opacity:1;fill-rule:nonzero;stroke:none" transform="matrix(.87692 0 0 -.87694 205.127 190.95)"/><path d="m0 0 8.412-6.556 6.502-.465-.146-2.076-6.5.463-9.251-5.314.169 2.422 7.36 4.052-6.717 5.049z" style="fill:#201f5e;fill-opacity:1;fill-rule:nonzero;stroke:none" transform="matrix(.87692 0 0 -.87694 204.22 180.49)"/><path d="m0 0-.526-1.565L11.835-5.72l-1.186-3.52-22.795 7.666 1.18 3.519 7.049-2.37.525 1.569-7.046 2.368 1.216 3.621L13.58-.535l-1.218-3.619zm-.616-15.107 3.144 9.345 3.326-1.121-3.808-11.312c-.208-.624-.492-1.034-.857-1.228-.418-.191-1.002-.163-1.751.087l-15.769 5.301 3.578 10.65 3.326-1.118-2.306-6.868z" style="fill:#201f5e;fill-opacity:1;fill-rule:nonzero;stroke:none" transform="matrix(.87692 0 0 -.87694 50.498 147.472)"/><path d="m0 0-7.279 6.609-6.588-7.263-2.597 2.361L-.136 19.695l2.598-2.357-7.08-7.803 7.28-6.605zm-3.273 15.607-5.714 5.187-12.325-13.577-2.599 2.36 14.985 16.506 8.313-7.542z" style="fill:#201f5e;fill-opacity:1;fill-rule:nonzero;stroke:none" transform="matrix(.87692 0 0 -.87694 73.017 133.232)"/><path d="M0 0c-.491-1.211-.472-2.399.053-3.568.516-1.153 1.388-1.945 2.622-2.386 1.221-.419 2.415-.366 3.584.16 1.152.513 1.974 1.369 2.47 2.565.505 1.217.5 2.401-.015 3.555-.525 1.166-1.412 1.963-2.658 2.396-1.214.401-2.397.346-3.547-.173C1.34 2.024.5 1.176 0 0m7.6 5.941c2.448-.549 4.128-1.831 5.036-3.855.971-2.16.914-4.348-.169-6.565-1.009-2.064-2.577-3.568-4.699-4.525-2.196-.983-4.398-1.172-6.611-.56-2.355.668-4.023 2.086-4.994 4.243-.91 2.028-.764 4.13.439 6.317 1.096 2 2.667 3.455 4.704 4.37 1.987.894 4.085 1.085 6.294.575m-6.148.13 10.789 4.853 1.44-3.2-22.158-9.96L-9.915.965l7.757 3.49-1.363 3.029 3.61 1.622zm6.967.783-3.164 7.037-16.725-7.516-1.438 3.201 20.331 9.142 4.603-10.241Z" style="fill:#201f5e;fill-opacity:1;fill-rule:nonzero;stroke:none" transform="matrix(.87692 0 0 -.87694 91.897 107.563)"/><path d="m0 0-.039 3.83 3.96.033L4.03-7.81.073-7.852.034-3.507l-5.86-.061-.035 3.513zm.172-14.76-13.141-.125.02-1.855 13.14.125zM-14.526.307c-.634-.569-.949-1.279-.94-2.124.006-.828.332-1.521.979-2.08a3.21 3.21 0 0 1 2.182-.801c.807.011 1.519.29 2.134.843.653.568.973 1.267.967 2.095-.006.85-.343 1.551-1.007 2.108a3.185 3.185 0 0 1-2.152.769 3.228 3.228 0 0 1-2.163-.81m-2.414-9.918 3.92.035.022-1.971 13.139.125-.018 1.967 3.955.041.081-8.527c.006-.809-.166-1.377-.52-1.703-.299-.3-.769-.46-1.407-.463l-17.124-.164c-.661-.005-1.139.132-1.442.414-.343.336-.518.899-.527 1.686zm9.395 12.672C-6.033 1.808-5.268.217-5.249-1.722c.017-1.881-.718-3.465-2.204-4.758-1.379-1.203-2.986-1.809-4.824-1.829-1.857-.015-3.494.564-4.91 1.739-1.495 1.258-2.25 2.836-2.269 4.72-.018 1.916.708 3.523 2.178 4.821 1.375 1.177 3.001 1.779 4.876 1.794 1.858.019 3.478-.549 4.857-1.704" style="fill:#201f5e;fill-opacity:1;fill-rule:nonzero;stroke:none" transform="matrix(.87692 0 0 -.87694 133.125 90.286)"/><path d="m0 0-1.518.649-5.113-11.997-3.42 1.456 9.433 22.128 3.417-1.456-2.915-6.838 1.518-.651 2.917 6.841 3.513-1.498-9.434-22.129L-5.115-12Zm-15.016 1.802 9.072-3.865-1.376-3.232-10.983 4.686c-.605.255-.988.569-1.153.949-.161.433-.088 1.012.222 1.737l6.527 15.306 10.329-4.402-1.375-3.229-6.66 2.843z" style="fill:#201f5e;fill-opacity:1;fill-rule:nonzero;stroke:none" transform="matrix(.87692 0 0 -.87694 166.381 105.85)"/><path d="m0 0-3.342-3.146-2.715 2.878 8.64 8.149 2.712-2.879-2.745-2.59L4.753.076 2.199-2.331Zm-9.836 13.854a2.35 2.35 0 0 1-1.855-.663c-.492-.462-.733-1.052-.728-1.771-.022-.721.226-1.349.743-1.899.491-.517 1.101-.794 1.831-.833.715-.047 1.32.161 1.813.623.52.492.776 1.095.77 1.81a2.722 2.722 0 0 1-.766 1.84c-.515.551-1.119.848-1.808.893m5.719-4.98a4.583 4.583 0 0 0-.439-1.228 3.796 3.796 0 0 0-.806-1.111c-1.256-1.187-2.767-1.68-4.525-1.478-1.643.181-3.06.9-4.243 2.156-1.202 1.27-1.85 2.74-1.95 4.404-.107 1.782.472 3.268 1.725 4.453.327.309.695.565 1.099.766.402.174.832.295 1.284.361l-1.118 1.185 2.395 2.261 3.63-3.842 1.599 1.508 2.902-3.079-1.597-1.511 3.58-3.795-2.399-2.261zm-8.086-20.375-2.714 2.878L-10-3.986-21.674 8.391l2.553 2.406L-4.732-4.455z" style="fill:#201f5e;fill-opacity:1;fill-rule:nonzero;stroke:none" transform="matrix(.87692 0 0 -.87694 197.59 127.753)"/><path d="m0 0 16.84 6.03-5.612 15.674 3.303 1.182 6.948-19.395L1.334-3.721Zm-1.474 10.436.942-2.626 9.308 3.336 1.332-3.726L.801 4.089l3.192-8.913L.687-6.005-7.384 16.53l3.306 1.18 1.272-3.551 9.308 3.334 1.333-3.722z" style="fill:#201f5e;fill-opacity:1;fill-rule:nonzero;stroke:none" transform="matrix(.87692 0 0 -.87694 199.627 160.14)"/></g></svg>