<svg xmlns="http://www.w3.org/2000/svg" xml:space="preserve" width="315.15622" height="306.8631" viewBox="0 0 315.15622 306.8631"><defs><clipPath id="a" clipPathUnits="userSpaceOnUse"><path d="M0 257.269h269.479V0H0Z"/></clipPath></defs><g clip-path="url(#a)" transform="matrix(1.36965 0 0 -1.36965 -27.93 330.742)"><path d="M0 0s-1.868-.493.789 5.605l2.851 5.706.785-5.706.69-5.41zm-4.621 11.999s-.591-6.591-3.541-10.917c-2.95-4.329-7.277-9.148-9.638-10.819-2.361-1.673-1.474-1.868-.886 5.606 0 0 2.558 17.112 1.673 17.899 0 0 .295 9.145-.098 9.343 0 0-1.179 3.146 6.392-.492 0 0 7.179-2.461 6.098-10.62m15.44-21.538c-.493 1.671-.788 5.997-.788 5.997-.197.983.394 2.557.394 2.557l-.394.787c.394 4.524 0 11.211 0 11.211-.687 9.145-2.656 10.522-2.459 11.41.199.884 1.674 4.819 1.674 4.819l.588.589-.521.296c-3.393 3.055-3.564.169-3.564.169-.508-3.56-1.355-2.204-1.355-2.204-4.243 2.376-2.715-1.187-2.715-1.187l1.357-3.392-2.885-5.768c.17 3.392-1.016 6.615-1.016 6.615-2.204 3.732-3.562 6.277-9.668 8.822-6.105 2.544-14.587-1.019-14.587-1.019s-6.275-2.545-10.347-4.58c-4.07-2.035-4.07-3.561-4.07-3.561-.691-3.252 2.362-1.864 2.362-1.864-.096.886.887 1.181 2.165 1.869 1.279.69 7.277 2.262 7.277 2.262 6.588.985 6.001 0 6.001-.294 0-.295-1.968-11.014-1.968-11.014-.592-3.737-4.819-25.767-4.819-25.767l-1.452-1.12-3.467-2.518c0-2.459 2.46-4.425 2.46-4.425s6.226.633 11.737 4.261c3.223 2.117 5.768 3.31 5.768 3.31 0-5.014 5.114-4.032 5.114-4.032l5.213 12.095c4.917-2.162 8.85.787 8.85.787s.886-3.047.984-9.44c.1-6.392 4.525-3.343 4.525-3.343l1.671 1.181z" style="fill:#6f3a96;fill-opacity:1;fill-rule:nonzero;stroke:none" transform="translate(88.145 109.899)"/><path d="m0 0 .612 11.704c-.122 2.846-.875 2.093-1.714 2.458-.523.227-1.714.393-1.714.393-.978 3.443.246 3.146.246 3.146.368-.394 4.528.492 4.528.492 4.162.983 7.834.688 7.834.688 7.833 1.082 4.772-4.326 4.772-4.326-1.222-.886-1.957-1.28-3.915-1.868-1.958-.592-7.099.294-7.099.294C4.039 11.407 4.407 0 4.407 0 5.997.195 9.67-.295 9.67-.295c3.548-.886 5.507-2.754 5.507-2.754 2.081-1.966-2.57-5.114-2.57-5.114-2.448-.688-5.141.196-5.141.196-1.958.787-3.793 1.475-3.916.688-.122-.787-2.204-12.684-2.204-12.684 3.427-.492 7.466-1.968 7.466-1.968 3.428-.787 1.837-4.229 1.837-4.229-.979-3.441-5.753-2.755-5.753-2.755l-7.712 1.574-2.569 6.491 1.346.197.858 3.342 2.079 10.819S-.74-2.492 0 0" style="fill:#6f3a96;fill-opacity:1;fill-rule:nonzero;stroke:none" transform="translate(102.815 120.123)"/><path d="m0 0 .59.884.688 7.375c.296 4.524 1.769 12.194 1.769 12.194.297 2.361 1.575 1.967 2.165-.391.589-2.361.589-8.066.589-8.066 1.378 2.46 5.312 8.949 5.312 8.949 1.278 3.149 2.95 1.968 2.95 1.968 1.475-.787 1.178-2.46 1.178-2.46l-.488-2.163-2.165-8.262c-1.181-5.209-5.998-11.8-5.998-11.8 3.637-3.443 6.687-13.374 6.687-13.374 2.36-6.196 1.768-10.917 1.768-10.917-1.67-4.916-4.523-1.476-4.523-1.476-1.377 1.379-3.539 11.212-3.539 11.212C4.72-5.215 4.524-8.36 4.524-8.36l.098-3.245.491-10.818c-.491-5.212-3.147-3.837-3.147-3.837-3.342 1.869-2.852 3.54-2.852 3.54l.345 9.12S-.532-10.427 0 0" style="fill:#6f3a96;fill-opacity:1;fill-rule:nonzero;stroke:none" transform="translate(115.486 118.16)"/><path d="M0 0s-3.836 5.825-3.836 6.849c-.002 1.021 2.166 8.583 2.166 8.583s3.633-2.963 5.798-9.3c0 0 5.41 7.257 7.081 11.037l1.476 2.043s-.689 1.021.591.512c0 0 3.932-.92 2.457-1.941 0 0-7.33-16.069-8.212-16.477 0 0-.155 0-.836-1.613 0 0-.688-22.07-.294-22.99 0 0 1.279-4.397-.394-5.826 0 0-4.915-3.065-4.819 3.882C1.277-18.29 2.359-5.21 2.359-5.21" style="fill:#6f3a96;fill-opacity:1;fill-rule:nonzero;stroke:none" transform="translate(131.91 120.852)"/><path d="m0 0-.396-6.492c-.096-10.226-.903-10.144-.903-10.144" style="fill:#6f3a96;fill-opacity:1;fill-rule:nonzero;stroke:none" transform="translate(143.023 114.619)"/><path d="M0 0s.985 10.526 1.673 11.999l2.556 4.84.788-.611s10.129 1.673 9.736.099c0 0-1.671-1.279-3.049-3.344 0 0-1.084-1.967-5.308-1.279 0 0-1.773-9.736-1.184-13.08 0 0 4.723.394 8.557-2.557 0 0 2.066-5.506-1.575-6.588-3.638-1.082-6.784.589-7.079.688 0 0 .097-7.867-.589-11.014 0 0-.984-1.871 2.26-1.474 0 0 8.556-.1 4.818-6.294 0 0-.798-2.093-9.509.018 0 0 .926.131-1.603-.511 0 0-2.066-1.28-2.752 2.064" style="fill:#6f3a96;fill-opacity:1;fill-rule:nonzero;stroke:none" transform="translate(143.414 121.796)"/><path d="M0 0s1.558 3.604 1.654-.389c0 0-2.043-13.244-1.361-17.237 0 0-.584-15.871.584-18.987l.681-2.629s2.725-.584 3.409 10.419c0 0 1.361 11.88 2.045 14.802 0 0 2.334 12.464 1.848 12.853 0 0 1.169 3.408 2.63-.196 0 0 1.559-11.489.488-18.014l.292-8.861s0-14.12-3.702-15.775c-3.698-1.655-5.064-3.019-10.907-.682 0 0-3.931 2.307-3.017 13.829 0 0 1.948 18.791 2.336 21.713 0 0 1.364 6.914 3.02 9.154" style="fill:#6f3a96;fill-opacity:1;fill-rule:nonzero;stroke:none" transform="translate(161.626 137.213)"/><path d="M0 0s-.099 10.809 2.432 1.265c0 0 2.242-11.878 1.366-21.129l3.698-7.499 1.367 7.207s.096 11.588.485 14.702L11.686 4.87s2.532 1.361 4.188-4.578c0 0-.392-10.711.289-13.34l-.097-22.008-.487-4.09s-1.069-8.764-5.746-5.162c0 0-3.018 3.508-3.602 10.226l-1.752 3.214s-1.168 3.991-.584-4.09c0 0 .195-5.551-1.362-7.305-1.56-1.75-5.553-2.531-6.914 3.798l1.653 15.093z" style="fill:#6f3a96;fill-opacity:1;fill-rule:nonzero;stroke:none" transform="translate(176.72 134)"/><path d="m0 0-2.729-9.616S-4.288-14.56-5.258-7.19c0 0-.488 5.843-.196 7.371 0 0-1.069 2.965 4.186 1.439 0 0 2.436.717 1.268-1.62m5.842 6.224C-.193 10.605.193 7.585.193 7.585l-.29-.485c-3.409-1.948-5.257-.292-5.257-.292-1.368 3.894-.295 7.887-.295 7.887.195 4.382 3.505 8.278 3.505 8.278 3.8 3.602 3.508-3.701 3.508-3.701-.683-8.471 2.045-6.134 2.431-6.038.392.097 1.072 5.939 1.072 5.939-.193 3.508-2.238 6.038-2.238 6.038l.097 1.169c-5.16 4.285-8.571.78-8.571.78-8.372-6.427-8.471-15.287-8.471-15.287s-.488-14.413-.194-18.21c.293-3.798 5.648-9.447 5.648-9.447 7.399-7.499 9.055-.195 9.055-.195v-3.504c1.56-5.161 4.578-.487 4.578-.487l.487 5.745C4.964-9.063 6.33 1.743 6.33 1.743c.777 4.577-.488 4.481-.488 4.481" style="fill:#6f3a96;fill-opacity:1;fill-rule:nonzero;stroke:none" transform="translate(207.2 109.47)"/><path d="M0 0s1.252.222 12.616.321c0 0 69.266-.048 83.528 0 14.77.051 68.428.659 80.291-.659 0 0 35.559 6.6 44.719-5.946 9.159-12.547-19.402-1.316-33.408-.659 0 0-61.432 2.641-72.206 3.302 0 0-57.123-.661-74.363-.661 0 0-51.901-5.956-47.589 1.97C-6.412-2.332-4.891 0 0 0" style="fill:#6f3a96;fill-opacity:1;fill-rule:nonzero;stroke:none" transform="translate(27.058 154.074)"/><path d="M0 0s-5.923 36.319 9.707-.662Z" style="fill:#6f3a96;fill-opacity:1;fill-rule:nonzero;stroke:none" transform="translate(65.63 153.159)"/><path d="M0 0c4.811.615 18.464.973 18.464.973C32.999.34 81.366 3.964 81.366 3.964c28.023 0 37.725-14.531 36.11-1.98-1.622 12.544-141.184 1.98-141.184 1.98C-22.633-4.621-8.083-.662-8.083-.662S-2.663-.341 0 0" style="fill:#6f3a96;fill-opacity:1;fill-rule:nonzero;stroke:none" transform="translate(86.018 162.318)"/><path d="m0 0 8.08 22.442s4.316 2.101 4.858-7.01c0 0-3.243-8.416-1.618-13.324z" style="fill:#6f3a96;fill-opacity:1;fill-rule:nonzero;stroke:none" transform="translate(190.018 151.751)"/><path d="M0 0s-2.698 10.569-.537 12.549c0 0 3.231-4.621 9.156-12.549C14.553-7.923 0 0 0 0" style="fill:#6f3a96;fill-opacity:1;fill-rule:nonzero;stroke:none" transform="translate(76.856 168.26)"/><path d="M0 0s37.181 7.923 63.587 3.3c0 0 44.726 0 47.42 3.305l1.615 3.3s.54 4.621 4.853-4.625l-4.853-12.544h-8.618l2.152 5.285s-4.306 3.961-21.017 3.297C68.436.659 52.272 1.982 40.41-.659c0 0-33.403-1.985-33.941-3.962C5.928-6.605 0 0 0 0" style="fill:#6f3a96;fill-opacity:1;fill-rule:nonzero;stroke:none" transform="translate(73.622 176.847)"/><path d="M0 0s-14.011 9.908-6.474 17.833l1.62-3.302s14.015-1.982 22.638 1.982c0 0 32.869 0 38.796-1.323 0 0 13.474 1.982 15.624 3.303l4.311 3.302s4.313-1.984-.535-11.226c0 0-3.235-2.641-2.161-7.925h-7.544s0 4.623 1.616 5.284c1.62.659 2.163 3.3-7.544 3.3 0 0-29.633.662-37.177 1.321 0 0-14.548-1.321-17.25-3.962 0 0-11.312 2.641-6.998-2.644l2.687-3.961Z" style="fill:#6f3a96;fill-opacity:1;fill-rule:nonzero;stroke:none" transform="translate(95.18 178.165)"/><path d="m0 0 1.542 9.493L6.192.946Zm15.324 3.957c-5.391 3.3-11.856 9.905-11.856 9.905C.235 22.445.772 19.806.772 19.806L-7.309 7.257-14.313 9.9c-29.637 5.944 7.004-21.133 7.004-21.133C-4.616-15.193.235-5.292.235-5.292l10.772.664C27.178-13.872 27.178 9.236 27.178 9.236c8.084 32.36-11.854-5.279-11.854-5.279" style="fill:#6f3a96;fill-opacity:1;fill-rule:nonzero;stroke:none" transform="translate(121.885 209.87)"/><path d="M0 0s5.396 5.283 4.314 12.547c0 0 3.771-.662 3.232-7.264 0 0 2.692-1.98-7.546-5.283" style="fill:#6f3a96;fill-opacity:1;fill-rule:nonzero;stroke:none" transform="translate(133.093 228.933)"/><path d="M0 0s-1.614 1.321-1.073 3.964c0 0-3.238 3.959-3.771-2.643 0 0 2.157-5.942 4.844-1.321" style="fill:#6f3a96;fill-opacity:1;fill-rule:nonzero;stroke:none" transform="translate(111.341 227.694)"/><path d="M0 0c12.26.065 24.642.792 36.913.017 4.663.058 9.314.116 13.9-.563 1.554.336 3.063.266 4.637-.202a12.77 12.77 0 0 0 4.804-.244c.296.031.466.057.466.057 12.899-1.974 44.612-1.318 44.612-1.318 5.91-.656 54.826 1.976 54.826 1.976 16.663 7.249-2.15 6.588-2.15 6.588C144.034 4.333 26.86 8.286 26.86 8.286s-32.398.765-40.043-2.762C-20.826 1.997-3.87-.233 0 0" style="fill:#6f3a96;fill-opacity:1;fill-rule:nonzero;stroke:none" transform="translate(58.752 73.669)"/><path d="M0 0s5.333 5.224 4.261 12.404c0 0 3.73-.652 3.197-7.18 0 0 2.665-1.96-7.458-5.224" style="fill:#6f3a96;fill-opacity:1;fill-rule:nonzero;stroke:none" transform="translate(133.856 227.832)"/><path d="M0 0s-1.598 1.306-1.063 3.921c0 0-3.198 3.915-3.73-2.615 0 0 2.13-5.876 4.793-1.306" style="fill:#6f3a96;fill-opacity:1;fill-rule:nonzero;stroke:none" transform="translate(112.346 226.606)"/><path d="M0 0v8.92c0 .507-.139.943-.418 1.301-.279.359-.797.534-1.553.534h-.543v2.244h8.135V-28.23H0v24.199h-3.745V-28.23h-5.621v13.173c-.919-.33-1.995-.552-3.229-.672-1.231-.121-2.819-.178-4.756-.178h-8.431c-1.97 0-3.45.446-4.436 1.345-.987.894-1.479 2.3-1.479 4.21V5.737c0 .509-.164.943-.492 1.302-.329.357-.822.539-1.48.539h-.985v2.238h20.507V5.783h-11.585v-16.762c0-.297.091-.523.272-.671.179-.149.401-.224.666-.224h9.415c1.413 0 2.605.075 3.572.224.971.148 1.784.358 2.441.628V8.92c0 .507-.139.943-.418 1.301-.28.359-.799.534-1.552.534h-.543v2.244h8.134V0Z" style="fill:#6f3a96;fill-opacity:1;fill-rule:nonzero;stroke:none" transform="translate(55.28 46.157)"/><path d="M0 0c0 .445-.166.879-.495 1.3-.329.416-.821.623-1.477.623h-.987v2.244h8.874v-23.573H0v5.599h-7.791v3.809H0v3.857h-7.791v3.811H0Zm-4.413-23.799c-1.134 1.076-2.507 1.613-4.116 1.613-1.61 0-2.975-.537-4.093-1.613-1.117-1.076-1.676-2.433-1.676-4.078 0-1.642.559-3.004 1.676-4.074 1.118-1.078 2.483-1.617 4.093-1.617 1.609 0 2.982.539 4.116 1.617 1.134 1.07 1.701 2.432 1.701 4.074 0 1.645-.567 3.002-1.701 4.078m-12.448 2.752c2.301 1.902 5.079 2.851 8.332 2.851 3.254 0 6.029-.949 8.331-2.851 2.301-1.892 3.45-4.171 3.45-6.83 0-2.656-1.149-4.937-3.45-6.834-2.302-1.896-5.077-2.844-8.331-2.844-3.253 0-6.031.948-8.332 2.844-2.302 1.897-3.451 4.178-3.451 6.834 0 2.659 1.149 4.938 3.451 6.83m.74 19.388h-14.541v4.031h20.803c.163 0 .287-.046.367-.134a.453.453 0 0 0 .125-.315v-2.64c0-6.517-2.612-11.32-7.838-14.41-5.227-3.094-9.744-4.848-13.557-5.265l-2.759 3.003c-.069.09-.092.165-.075.223.016.062.089.103.223.135 4.861.628 8.954 2.308 12.272 5.044 3.32 2.729 4.98 5.995 4.98 9.79z" style="fill:#6f3a96;fill-opacity:1;fill-rule:nonzero;stroke:none" transform="translate(101.177 54.99)"/><path d="M0 0v8.92c0 .507-.138.943-.416 1.301-.282.359-.8.534-1.557.534h-.542v2.244h8.136V-28.23H0v24.199h-3.744V-28.23h-5.621v13.173c-.92-.33-1.998-.552-3.23-.672-1.231-.121-2.817-.178-4.755-.178h-8.431c-1.973 0-3.45.446-4.436 1.345-.987.894-1.481 2.3-1.481 4.21V5.737c0 .509-.165.943-.491 1.302-.331.357-.821.539-1.479.539h-.987v2.238h20.509V5.783h-11.585v-16.762c0-.297.09-.523.271-.671.179-.149.401-.224.666-.224h9.416c1.411 0 2.603.075 3.572.224.97.148 1.783.358 2.441.628V8.92c0 .507-.141.943-.42 1.301-.28.359-.797.534-1.551.534h-.543v2.244h8.135V0Z" style="fill:#6f3a96;fill-opacity:1;fill-rule:nonzero;stroke:none" transform="translate(148.942 46.157)"/><path d="M0 0v-4.481h-6.409v-11.202h-5.916V4.351c0 .445-.162.878-.491 1.299-.328.416-.822.623-1.479.623h-.986v2.245h8.872V0Zm-34.801-1.633c-.955-1.03-1.431-2.235-1.431-3.61 0-1.373.444-2.588 1.332-3.653.887-1.059 2.004-1.591 3.351-1.591 1.348 0 2.465.515 3.354 1.548.884 1.033 1.33 2.233 1.33 3.608 0 1.402-.435 2.629-1.306 3.673-.871 1.048-1.981 1.567-3.326 1.567-1.253 0-2.353-.514-3.304-1.542m27.407-15.844c.297 0 .534-.081.715-.245a.84.84 0 0 0 .27-.65v-14.34h-6.162v10.756c0 .148-.039.258-.122.332-.08.075-.204.114-.37.114h-24.894v4.033zm-34.483 15.06A8.69 8.69 0 0 0-40.422.044h-5.423v3.989h11.092v1.884c0 .389-.14.709-.419.965-.28.252-.552.381-.814.381h-.787v1.925h8.331V4.033h11.188V.044h-5.52a8.667 8.667 0 0 0 1.455-2.461c.342-.896.516-1.84.516-2.826 0-2.541-1.057-4.712-3.179-6.519-2.119-1.809-4.658-2.712-7.618-2.712-2.957 0-5.494.903-7.614 2.712-2.12 1.807-3.18 3.978-3.18 6.519 0 .986.173 1.93.517 2.826" style="fill:#6f3a96;fill-opacity:1;fill-rule:nonzero;stroke:none" transform="translate(205.929 50.639)"/><path d="M0 0c0 .324-.067.553-.198.672-.13.119-.395.178-.786.178h-26.573v4.033H5.571c.196 0 .327-.032.394-.088.064-.061.098-.18.098-.357V-8.604c0-2.99-.199-5.396-.59-7.216-.396-1.825-1.071-3.438-2.021-4.84h-5.819c.954 1.461 1.586 3.149 1.898 5.062C-.156-13.686 0-11.19 0-8.113Zm10.942-25.098v-4.079h-43.33v4.079h11.091v12.637c0 .508-.154.921-.468 1.232-.313.313-.731.472-1.256.472h-.789v2.197h8.281v-16.538h4.683v12.637c0 .508-.156.921-.468 1.232-.314.313-.73.472-1.257.472h-.788v2.197h8.28v-16.538z" style="fill:#6f3a96;fill-opacity:1;fill-rule:nonzero;stroke:none" transform="translate(239.55 51.583)"/></g></svg>