<svg xmlns="http://www.w3.org/2000/svg" xmlns:xlink="http://www.w3.org/1999/xlink" viewBox="0 0 174.414 174.414"><defs><linearGradient id="a" x1="-254.404" x2="-254.404" y1="149.74" y2="210.015" gradientTransform="matrix(.521 0 0 .52 190.501 -12.667)" gradientUnits="userSpaceOnUse"><stop offset="0" stop-color="#0082cd"/><stop offset="0.078" stop-color="#0099dc"/><stop offset="0.162" stop-color="#00aae6"/><stop offset="0.254" stop-color="#00b4ec"/><stop offset="0.371" stop-color="#00b7ee"/><stop offset="0.468" stop-color="#00b1e9"/><stop offset="0.593" stop-color="#00a1dd"/><stop offset="0.733" stop-color="#0087c7"/><stop offset="0.883" stop-color="#0063aa"/><stop offset="1" stop-color="#00418e"/></linearGradient><linearGradient xlink:href="#a" id="c" x1="1863.67" x2="1897.797" y1="3964.842" y2="4009.469" gradientTransform="matrix(.122 0 -.033 .111 -4.277 -370.588)"/><linearGradient xlink:href="#a" id="d" x1="-114.829" x2="-114.829" y1="149.739" y2="210.016"/><linearGradient xlink:href="#a" id="e" x1="-282.749" x2="-282.749" y1="149.739" y2="210.016"/><linearGradient xlink:href="#a" id="f" x1="-229.084" x2="-229.084" y1="149.737" y2="210.017"/><linearGradient xlink:href="#a" id="g" x1="-192.867" x2="-192.867" y1="149.738" y2="210.016"/><linearGradient id="b" x1="1683.64" x2="1683.64" y1="4560.165" y2="4384.726" gradientTransform="matrix(.122 0 0 .122 -125.824 -453.129)" gradientUnits="userSpaceOnUse"><stop offset="0.1" stop-color="#e5e5e6"/><stop offset="0.321" stop-color="#e2e2e3"/><stop offset="0.499" stop-color="#d8d8d9"/><stop offset="0.661" stop-color="#c7c7c8"/><stop offset="0.814" stop-color="#b0b0b0"/><stop offset="0.96" stop-color="#929292"/><stop offset="1" stop-color="#888"/></linearGradient><linearGradient xlink:href="#b" id="h" x1="1854.526" x2="1854.526" y1="4560.165" y2="4384.726"/><linearGradient xlink:href="#a" id="i" x1="-155.477" x2="-155.477" y1="149.739" y2="210.016"/><linearGradient xlink:href="#b" id="j" x1="2012.879" x2="2012.879" y1="4560.166" y2="4384.726"/></defs><path d="M66.934 88.357h-.013s-1.308 4.484-1.339 4.585h4.7s-.625 4.016-5.923 4.016c-.991 0-6.339.213-5.094-6.347.51-2.689 1.483-6.852-.262-9.789-.02-.038-1.3-3.3-8.343-3.311H40.2l-1.33 4.509h9.7c7.549 0 6.03 5.036 5.724 7.065-.617 4.081-2.977 12.364 8.846 12.47a14.814 14.814 0 0 0 9.26-2.942 9.9 9.9 0 0 0 3.364-5.221l1.484-5.033Z" style="fill:url(#a)"/><path d="M91.867 71.817a4.934 4.934 0 0 1 4.526-3.246A2.46 2.46 0 0 1 99 71.817a4.936 4.936 0 0 1-4.525 3.243 2.46 2.46 0 0 1-2.608-3.243Z" style="fill-rule:evenodd;fill:url(#c)"/><path d="m124.209 77.467-1.361 4.621h6c-.053.173-4.453 15.077-4.453 15.077-.084.276-.83 3.435-3.3 2.862a3.379 3.379 0 0 1-1.839-1.255l.032.072a5.071 5.071 0 0 0 4.8 2.607c2.84 0 5.537-1.919 6.7-5.841l3.989-13.521h6.048l1.364-4.621Z" style="fill:url(#d)"/><path d="M43.2 96.35c-.868-.018-1.866-.018-2.611-.016L44.053 84.6h-5.945l-4.793 16.257h8.623a33.291 33.291 0 0 0 5.2-.265A16.782 16.782 0 0 0 53.29 98.4a10.016 10.016 0 0 1-.524-6.614s-1.504 4.721-9.566 4.564Z" style="fill:url(#e)"/><path d="M71 76.367a18.419 18.419 0 0 0-10.964 3.6 8.609 8.609 0 0 1 1.178 4.468 13.173 13.173 0 0 1-.151 2.1c1.965-5.672 8.956-7.491 10.521-7.765 8.043-1.403 10.116 2.33 10.862 3.786-1.823-4.715-7.586-6.189-11.446-6.189Z" style="fill:url(#f)"/><path d="M93.031 77.1a7.969 7.969 0 0 0-5.248 5.523L83.5 97.142c-.281.937-.735 2.736-1.691 2.593a2.27 2.27 0 0 1-1.635-1.274A3.881 3.881 0 0 0 84.2 101.3c3.659-.032 4.993-3.363 5.684-5.71l4.29-14.522c.5-1.7 2.414-4 4.478-3.228a2.79 2.79 0 0 1 1.365 1.485s-1.24-4.055-6.986-2.225Z" style="fill:url(#g)"/><path d="M80.169 98.461c.074.122.145.234.215.341a2.12 2.12 0 0 0 1.42.933c.956.143 1.41-1.656 1.691-2.593l1.168-3.949-1.49-8.014a14.837 14.837 0 0 0-.559-2.208 6.145 6.145 0 0 0-.231-.556c.021.046.044.093.063.141-.693-1.356-2.543-4.685-9.3-4 1.618.787 3.528 2.51 4.256 6.322 0 0 1.931 11.272 2.765 13.585Z" style="fill:url(#b)"/><path d="M104.757 99.927a6.529 6.529 0 0 1-1.269-2.878s-2.757-15.021-3.035-16.334a7.747 7.747 0 0 0-.434-1.4 2.79 2.79 0 0 0-1.365-1.485c-1.666-.62-3.23.754-4.039 2.2.262 1.412 2.8 15.079 2.947 15.846a7.811 7.811 0 0 0 .842 2.762c1.925 2.267 4.748 1.817 6.353 1.289Z" style="fill:url(#h)"/><path d="M115.2 76.767h.008a24.206 24.206 0 0 0-2.62.095 11.594 11.594 0 0 0-6.763 2.933c-.254.26-3.9 3.791-1.869 7.673a64.575 64.575 0 0 0 4.008 5.591 3.342 3.342 0 0 1 .59 3.594 6.583 6.583 0 0 1-2.614 2.786c-.477.268-4.89 2.357-7.555-.809 0 0 1.11 3.066 5.371 3.066 5.845 0 9.265-3.173 10.678-5.658a5.148 5.148 0 0 0 .188-5.147 45.949 45.949 0 0 0-4.012-5.791 3.139 3.139 0 0 1-.682-3.293 6.368 6.368 0 0 1 2.936-3.283h-.006c5.843-3.151 7.874 1.364 7.874 1.364-.913-2.931-4.497-3.126-5.532-3.121Z" style="fill:url(#i)"/><path d="M121.1 100.026c1.767.411 2.651-1.1 3.041-2.083.086-.236.162-.477.234-.718 0 0-2.147-13.758-3.645-17.34-.077-.164-1.987-4.107-7.215-1.682 1.09.679 1.9 2.033 2.477 4.63l2.612 14.01a7.128 7.128 0 0 0 .668 1.941 3.383 3.383 0 0 0 1.828 1.242Z" style="fill:url(#j)"/><path d="M174.414 87.2A87.207 87.207 0 1 1 87.206 0a87.212 87.212 0 0 1 87.208 87.2ZM87.206 2.38a84.823 84.823 0 1 0 84.838 84.82A84.82 84.82 0 0 0 87.206 2.38Z" style="fill:#9ea3a6"/><path d="M3.969 87.2A83.234 83.234 0 1 0 87.206 3.969 83.336 83.336 0 0 0 3.969 87.2Zm1.628 0a81.605 81.605 0 1 1 81.609 81.611A81.7 81.7 0 0 1 5.6 87.2Z" style="fill:#9ea3a6"/><path d="M31.247 87.2a55.962 55.962 0 1 0 55.959-55.956A56.014 56.014 0 0 0 31.247 87.2Zm1.753 0a54.216 54.216 0 1 1 54.206 54.23A54.262 54.262 0 0 1 33 87.2ZM21.8 62.777a1.913 1.913 0 0 1 1.09 1.03 1.857 1.857 0 0 1 .05 1.493 1.945 1.945 0 0 1-1.025 1.1 1.9 1.9 0 0 1-1.492.03 1.833 1.833 0 0 1-1.09-1.018 1.95 1.95 0 0 1 2.467-2.635ZM153.549 68.534a1.959 1.959 0 0 1-2.491-1.215 1.9 1.9 0 0 1 .09-1.49 1.955 1.955 0 0 1 1.126-.993 1.926 1.926 0 0 1 1.492.092 1.982 1.982 0 0 1 .9 2.616 1.875 1.875 0 0 1-1.117.99ZM22.338 81.36l-.105 1.052a2.2 2.2 0 0 1-2.561 2.056 2.111 2.111 0 0 1-2.115-2.633l.087-.94Zm-5.392-1.446-.182 1.856c-.209 2.06.752 3.447 2.854 3.656a3.087 3.087 0 0 0 3.416-3.026l.183-1.855ZM18.124 89.6a1.154 1.154 0 0 1-1.188-1.294.8.8 0 0 1 .756-.848c.808.011.872 1.147.867 1.606 0 .187-.026.361-.026.544Zm1.8-2.452a2.187 2.187 0 0 1 .458 1.339c-.015.85-.426 1.138-1.211 1.128.015-.332.021-.569.025-.9.009-.885-.343-2.146-1.5-2.161-1 0-1.448.682-1.454 1.676a1.7 1.7 0 0 0 .7 1.433v.019h-.6l-.013.791a7.116 7.116 0 0 1 .907-.023l1.9.019c1.261.01 1.922-.508 1.935-1.833a2.9 2.9 0 0 0-.42-1.521ZM16.808 95.8a3.647 3.647 0 0 1-.392-1.434 2.2 2.2 0 0 1 2.328-2.544 2.143 2.143 0 0 1 2.468 2c.109 1.532-.979 2.1-2.456 2.2l-.223-3.279A1.508 1.508 0 0 0 17.1 94.36a2.729 2.729 0 0 0 .556 1.387Zm2.511-.72a1.161 1.161 0 0 0 1.209-1.228 1.276 1.276 0 0 0-1.367-1.149ZM17.773 99.489c-.114-.782.565-1.38 1.42-1.508.772-.111 1.759.166 1.889 1.01.13.9-.614 1.457-1.567 1.6a1.44 1.44 0 0 1-1.742-1.102Zm4.193 1.592-.106-.777-.678.1-.008-.016a1.522 1.522 0 0 0 .567-1.62 2.206 2.206 0 0 0-2.728-1.668 2.006 2.006 0 0 0-1.947 2.275A1.938 1.938 0 0 0 18 100.8v.008l-.44.077a1.4 1.4 0 0 1-1.78-1.185 3.445 3.445 0 0 1 .164-1.7l-.788.018a4.638 4.638 0 0 0-.071 1.685c.238 1.634 1.142 2.237 2.533 2.029ZM18.7 107.575l-.183-.807.711-.165v-.019a1.636 1.636 0 0 1-1.162-1.274c-.279-1.158.317-1.849 1.528-2.132l2.656-.623.2.82-2.317.551c-1.05.244-1.5.593-1.373 1.321.222.942 1.075 1.193 2.167.933l2.073-.492.192.833ZM27.5 114.53a4.715 4.715 0 0 0-.363-1.846 3.146 3.146 0 0 0-4.2-1.973 3.108 3.108 0 0 0-1.9 4.274 5.956 5.956 0 0 0 .944 1.7l3.063-1.157-.784-2.092-.7.257.477 1.246-1.792.675a3.293 3.293 0 0 1-.465-.9 2.469 2.469 0 0 1 4.631-1.708 2.939 2.939 0 0 1 .213 1.769ZM21.353 118.76a1.252 1.252 0 0 0 .107.394c.327.684 1.38.45 1.46.42a2.611 2.611 0 0 0 .373-.357l3.2-3.273.4.842-2.9 2.761v.018l3.984-.51.38.776-4.985.5c-.932.085-2 .232-2.476-.776a2.285 2.285 0 0 1-.192-.544ZM26.727 125.906a3.569 3.569 0 0 1-.982-1.111 2.2 2.2 0 0 1 .969-3.305 2.135 2.135 0 0 1 3.1.7c.764 1.328.042 2.325-1.24 3.06l-1.642-2.847a1.508 1.508 0 0 0-.578 2.078 2.837 2.837 0 0 0 1.106 1Zm1.941-1.755a1.157 1.157 0 0 0 .545-1.627 1.262 1.262 0 0 0-1.732-.432ZM29.814 126.816a1.465 1.465 0 1 1 1.635 2.375 1.465 1.465 0 1 1-1.635-2.375Zm-.512-.74a2.348 2.348 0 1 0 2.668 3.861 2.347 2.347 0 1 0-2.668-3.861ZM34.585 129.58l.528.637-.568.464.012.015a1.649 1.649 0 0 1 1.607.628c.754.918.526 1.8-.428 2.587l-2.107 1.741-.547-.652 1.836-1.522c.833-.68 1.095-1.19.657-1.794-.617-.752-1.493-.589-2.351.121l-1.649 1.356-.542-.66ZM36.69 137.923a1.443 1.443 0 0 1 .265-2.054c.565-.544 1.529-.888 2.124-.281.628.651.354 1.538-.333 2.212a1.432 1.432 0 0 1-2.056.123Zm4.34-1.164-.554-.572-.487.486-.011-.013a1.523 1.523 0 0 0-.491-1.634 2.215 2.215 0 0 0-3.191.226 2.024 2.024 0 0 0-.246 3 1.92 1.92 0 0 0 1.584.606l.015.018-.321.313a1.392 1.392 0 0 1-2.128.084 3.465 3.465 0 0 1-.866-1.486l-.627.487a4.709 4.709 0 0 0 .929 1.4c1.159 1.189 2.233 1.138 3.239.164ZM39.118 141.276l.61.528.425-.5.013.023a1.836 1.836 0 0 0 .7 1.594c1.053.908 2.3.359 3.127-.59a2.054 2.054 0 0 0 .016-3.064 1.627 1.627 0 0 0-1.644-.438l-.011-.008 1.835-2.121-.647-.554Zm4.149.513c-.461.566-1.419 1.084-2.106.487a1.772 1.772 0 0 1 2.256-2.605c.697.603.397 1.5-.15 2.118ZM46.975 147.5l-.661-.486.423-.591h-.013a1.668 1.668 0 0 1-1.714-.21c-.962-.705-.956-1.615-.23-2.617l1.608-2.211.687.5-1.407 1.929c-.629.876-.746 1.432-.169 1.905.779.571 1.589.195 2.24-.707L49 143.279l.686.5ZM52.072 142.753l.726.441-2.105 3.448 2.559-.636.981.6-2.891.632.73 3.443-1.039-.644-.533-3.077-1.231 2.017-.732-.438ZM58.443 146.87l.808.4-2.744 5.677-.8-.4ZM59.948 149.493l.761.309-.274.674.013.015a1.693 1.693 0 0 1 1.718-.214c1.1.454 1.31 1.345.843 2.484l-1.036 2.54-.782-.329.9-2.2c.406-1 .387-1.573-.285-1.9-.9-.357-1.592.194-2.007 1.232l-.8 1.977-.8-.326ZM63.386 155.639a2.549 2.549 0 0 0 1.115.635 1.454 1.454 0 0 0 1.985-.857c.45-1.4-1.531-1.769-1.234-2.656.123-.361.541-.415.944-.279a2.335 2.335 0 0 1 .779.5l.3-.681a3.459 3.459 0 0 0-.938-.506 1.425 1.425 0 0 0-1.994.842c-.4 1.221 1.517 1.777 1.255 2.579-.155.469-.662.472-1.03.354a2.244 2.244 0 0 1-.9-.641ZM70.749 153.907l-1.182-.315-.648 2.428a.731.731 0 0 0 .469.987 1.254 1.254 0 0 0 .607 0l-.2.688a2.966 2.966 0 0 1-.733-.067 1.235 1.235 0 0 1-1.018-1.661l.7-2.59-1-.275.179-.661 1 .266.282-1.031.888-.043-.346 1.292 1.17.317ZM73.449 151.769l-.934-.2-.2.937.939.2Zm-2.292 6.243.827.188.99-4.493-.825-.187ZM76.979 154.438l-1.2-.2.221-1.318-.881.118-.177 1.059-1.028-.177-.119.674 1.03.177-.456 2.651a1.235 1.235 0 0 0 1.177 1.555 2.861 2.861 0 0 0 .73 0l.121-.712a1.01 1.01 0 0 1-.595.057.717.717 0 0 1-.561-.929l.424-2.478 1.2.2ZM81.694 159.6l-.816-.085.077-.729h-.019a1.668 1.668 0 0 1-1.588.686c-1.179-.116-1.643-.905-1.522-2.135l.268-2.725.85.081-.24 2.379c-.106 1.064.072 1.61.805 1.729.97.095 1.478-.637 1.59-1.752l.2-2.12.846.086ZM86.085 155.835l-1.219-.037-.073 2.521a.736.736 0 0 0 .69.84.987.987 0 0 0 .58-.142l-.019.724a2.587 2.587 0 0 1-.723.1c-.877-.028-1.405-.457-1.383-1.379l.082-2.694-1.042-.033.03-.682 1.024.035.036-1.069.861-.244-.043 1.336 1.222.04ZM87.9 157a1.277 1.277 0 0 1 1.191-1.334 1.166 1.166 0 0 1 1.2 1.248Zm3 1.6a2.78 2.78 0 0 1-1.405.51 1.5 1.5 0 0 1-1.569-1.473l3.283-.124c-.052-1.484-.586-2.582-2.124-2.525a2.148 2.148 0 0 0-2.079 2.411 2.218 2.218 0 0 0 2.483 2.405 3.585 3.585 0 0 0 1.439-.353ZM95.846 156.813a1.46 1.46 0 1 1 2.839-.455 1.462 1.462 0 1 1-2.839.455Zm-.893.143a2.342 2.342 0 1 0 4.623-.737 2.342 2.342 0 1 0-4.623.737ZM101.005 154.235l-1.052.241-.161-.67 1.06-.242-.1-.417c-.249-1.1-.128-1.869 1.1-2.142a2.391 2.391 0 0 1 .559-.074l.121.677a1.145 1.145 0 0 0-.407.033c-.716.158-.7.64-.561 1.252l.119.484 1.187-.275.154.667-1.2.278.883 3.813-.832.193ZM108.832 150.48a2.8 2.8 0 0 0-1.214.13c-.473.163-.978.529-.764 1.151.38 1.144 2.863.011 3.531 1.982.42 1.276-.389 2.108-1.585 2.515a4.159 4.159 0 0 1-1.3.169l-.19-.828a3.858 3.858 0 0 0 1.338-.127 1.123 1.123 0 0 0 .842-1.375c-.449-1.328-2.893-.1-3.521-1.947a1.77 1.77 0 0 1 1.365-2.273 4.105 4.105 0 0 1 1.35-.221ZM113.4 149.534a3.293 3.293 0 0 0-1.021.228 2.282 2.282 0 0 0-1.252 3.126 2.333 2.333 0 0 0 3.089 1.332 2.474 2.474 0 0 0 .915-.582l-.341-.679a1.749 1.749 0 0 1-.751.588 1.548 1.548 0 0 1-2.073-1 1.58 1.58 0 0 1 .712-2.157 2.311 2.311 0 0 1 .931-.169ZM114.408 146.773l-.864.415.407.868.871-.416Zm2.01 6.347.768-.359-1.977-4.168-.764.368ZM118.1 149.236a1.272 1.272 0 0 1 .465-1.72 1.169 1.169 0 0 1 1.62.571Zm3.388.082a2.59 2.59 0 0 1-1.023 1.089 1.51 1.51 0 0 1-2.065-.617l2.882-1.577c-.711-1.3-1.681-2.045-3.031-1.3a2.14 2.14 0 0 0-.774 3.079 2.212 2.212 0 0 0 3.293 1.042 3.713 3.713 0 0 0 1.127-.961ZM121.1 145.406l.681-.456.408.608.018-.006a1.637 1.637 0 0 1 .785-1.533c1-.661 1.853-.336 2.535.7l1.512 2.281-.708.464-1.315-1.991c-.6-.888-1.072-1.2-1.719-.829-.808.531-.74 1.417-.125 2.356l1.18 1.777-.712.464ZM128.5 141.088a2.621 2.621 0 0 0-.851.4 1.591 1.591 0 0 0-.12 2.278 1.568 1.568 0 0 0 2.276.426 1.831 1.831 0 0 0 .559-.764l.5.559a2.571 2.571 0 0 1-.718.805 2.326 2.326 0 0 1-3.334-.48 2.273 2.273 0 0 1 .383-3.343 3.22 3.22 0 0 1 .932-.479ZM134.494 140.7a3.633 3.633 0 0 1-.887 1.185 2.21 2.21 0 0 1-3.448-.274 2.146 2.146 0 0 1 .065-3.176c1.152-1.016 2.262-.511 3.253.594l-2.465 2.183a1.515 1.515 0 0 0 2.162.14 2.693 2.693 0 0 0 .748-1.286Zm-2.115-1.544a1.169 1.169 0 0 0-1.711-.2 1.275 1.275 0 0 0-.071 1.781ZM137.326 135.644a1.46 1.46 0 0 1-.361-1.481l2.332.018a1.506 1.506 0 0 1-.309 1.271 1.154 1.154 0 0 1-1.662.192Zm.879-3.6a3.151 3.151 0 0 1 .909 1.3h-1.949a2.007 2.007 0 0 0-.338-2.117 1.4 1.4 0 0 0-2.1.251 1.447 1.447 0 0 0 .034 2.207 2.2 2.2 0 0 0 1.513.445 1.9 1.9 0 0 0 .469 2.275 1.785 1.785 0 0 0 2.659-.375 2.246 2.246 0 0 0 .651-1.835l.792.015.743-.857-1.671.017a4.172 4.172 0 0 0-1.154-1.964Zm-2.871 1.007a.733.733 0 0 1-.116-1.1.676.676 0 0 1 1.077-.057 1.442 1.442 0 0 1 .211 1.441 1.661 1.661 0 0 1-1.172-.283ZM140.255 125.766l-1.087 1.633-.664-.443 2.679-4.01.659.435-1.082 1.634 4.582 3.056-.5.751ZM148.286 122.828a3.507 3.507 0 0 1-.468 1.4 2.208 2.208 0 0 1-3.354.833 2.142 2.142 0 0 1-.942-3.035c.765-1.336 1.991-1.206 3.261-.465l-1.637 2.85a1.513 1.513 0 0 0 2.092-.55 2.7 2.7 0 0 0 .313-1.465Zm-2.5-.8a1.157 1.157 0 0 0-1.68.35 1.271 1.271 0 0 0 .495 1.71ZM147.141 116.952a2.422 2.422 0 0 0-.58.732 1.58 1.58 0 0 0 .906 2.091 1.564 1.564 0 0 0 2.225-.627 1.779 1.779 0 0 0 .156-.938l.718.279a2.643 2.643 0 0 1-.3 1.037 2.334 2.334 0 0 1-3.195 1.067 2.275 2.275 0 0 1-1.148-3.169 3.1 3.1 0 0 1 .616-.847ZM151.2 117.269l.314-.791-1.983-.786c-1.035-.414-1.6-1.1-1.246-2 .321-.674.9-.7 1.893-.308l2.215.885.315-.79-2.546-1.01c-1.153-.458-2.036-.232-2.476.876a1.683 1.683 0 0 0 .167 1.656l-.008.016-2.624-1.046-.322.79ZM153.335 111.688l.238-.8-2.035-.624c-1.073-.319-1.69-.961-1.412-1.888.258-.7.826-.767 1.855-.457l2.284.69.247-.81-2.62-.8c-1.191-.357-2.049-.058-2.39 1.085a1.67 1.67 0 0 0 .358 1.689v.018l-.7-.217-.247.787ZM152.845 104.894a1.465 1.465 0 1 1 1.99-1.053 1.536 1.536 0 0 1-1.99 1.053Zm-.182.891a2.347 2.347 0 1 0 .977-4.589 2.347 2.347 0 1 0-.977 4.589ZM149.407 99.108l.117-.851 6.713.988-.119.844ZM154.258 96.564a1.464 1.464 0 1 1 .242-2.864c.818.073 1.682.59 1.6 1.575a1.538 1.538 0 0 1-1.842 1.289Zm-.067.91a2.348 2.348 0 1 0 .38-4.679 2.348 2.348 0 1 0-.38 4.679Z" style="fill:#9ea3a6"/><path d="M156.229 89.523c0 .793-.761 1.29-1.624 1.29-.783 0-1.71-.425-1.714-1.287 0-.9.818-1.343 1.774-1.343a1.433 1.433 0 0 1 1.564 1.34Zm-3.92-2.194v.8h.68v.007a1.542 1.542 0 0 0-.789 1.528 2.212 2.212 0 0 0 2.455 2.056 2.043 2.043 0 0 0 2.269-1.977 1.952 1.952 0 0 0-.724-1.543v-.024h.446a1.4 1.4 0 0 1 1.588 1.424 3.465 3.465 0 0 1-.415 1.661l.791.095a4.773 4.773 0 0 0 .306-1.654c0-1.651-.8-2.379-2.209-2.379ZM158.779 85.7a2.661 2.661 0 0 0 .02-.579c-.091-1.121-1.137-1.377-2.036-1.618l-4.831-1.313.067.857 3.9.953v.02l-3.7 1.536.074.93 4.16-1.9a2.668 2.668 0 0 1 .475-.207c.091 0 1.158.163 1.21.92a1.083 1.083 0 0 1-.036.4ZM31.051 45.552l-.73 1.067c-3.335-2.272-4.934-3.359-5.058-3.446-.045.065-.966 1.423-1.01 1.485l9.869 6.727-2.022 2.968a1.738 1.738 0 0 1-1.108.863 1.891 1.891 0 0 1-1.457-.378l-6.747-4.6 2.193-3.22-1.271-.866-3.2 4.7 8.259 5.622a3.138 3.138 0 0 0 4.351-.821l3.311-4.869c-1.528-1.041-.1-.068-4.791-3.271l.728-1.069 4.8 3.271c.044-.065.969-1.421 1.01-1.484L27 40.621c-.041.063-.966 1.419-1.01 1.484ZM151.974 48.3l-2.1-3.483a2.346 2.346 0 1 0-4.018 2.424l2.1 3.479a2.346 2.346 0 1 0 4.019-2.42Zm-2.668 1.607-2.1-3.482a.771.771 0 1 1 1.319-.8l2.1 3.482a.772.772 0 1 1-1.322.8ZM141.834 51.122l1.056 1.757 2.419-1.459 1.624 2.694c.064-.043 1.305-.79 1.368-.827-.041-.066-4.516-7.491-4.56-7.561-.061.036-1.3.785-1.367.827.045.067 1.877 3.114 1.877 3.114l-2.417 1.455Z" style="fill:#9ea3a6"/><path d="m154.314 51.436-.014-.036-7.51 4.528c-.155-.256-1.027-1.7-1.112-1.845-.062.036-1.28.772-1.346.812.036.056.977 1.617 1.116 1.843l-1.385.836-3.921-6.5a1.011 1.011 0 0 1 .468-1.423s1.577-.949 1.756-1.058c-.037-.062-.864-1.436-.905-1.5-.068.043-1.805 1.087-1.805 1.087a2.672 2.672 0 0 0-.887 3.664l4.869 8.08s11.519-6.943 11.588-6.983c-.044-.068-.873-1.441-.912-1.505ZM65.657 19.412l8.924-2.179a1.455 1.455 0 0 0 1.081-1.733s-.844-3.454-.862-3.53c-.071.017-1.659.406-1.733.423l.279 1.145-8.321 2.034s-.262-1.077-.28-1.145l-1.712.418c.017.076.845 3.464.845 3.464v.015l.007.017a1.462 1.462 0 0 0 1.772 1.071Zm-.06-1.591-.183-.753 8.3-2.031.195.8-8.3 2.03ZM64.7 22.373l5.16-1.26.251 1.032-5.011 1.227c.017.074.351 1.456.369 1.526l10.083-2.465.5 2.049.259 1.071 1.731-.423-.867-3.545a1.029 1.029 0 0 0-1.287-.85l-4.041.987-.247-1.032 5.2-1.272c-.019-.071-.36-1.466-.378-1.536-.076.016-12.015 2.936-12.091 2.954.014.072.355 1.464.369 1.537ZM106.4 16.973l-3.9-1.157a2.213 2.213 0 1 0-1.25 4.234l3.9 1.157a2.213 2.213 0 1 0 1.254-4.234Zm-.809 2.725-3.895-1.154a.738.738 0 0 1-.579-.837.74.74 0 0 1 .936-.386l3.9 1.157a.74.74 0 0 1 .577.833.745.745 0 0 1-.942.389ZM109.431 15.613c-.08-.025-3.442-1.019-3.442-1.019s.309-1.035.328-1.107l-1.832-.542-.325 1.106s-3.27-.969-3.349-.991c-.02.07-.424 1.43-.443 1.5l8.617 2.552c.023-.07.423-1.428.446-1.499ZM112.761 15.4c-.138-.042-1.545-.456-1.686-.5-.021.075-2.167 7.319-2.189 7.4l1.686.5.743-2.5 1.879.558c.021-.071.421-1.424.441-1.5l-1.878-.557s.984-3.327 1.004-3.401ZM109.269 23.523l-10.624-3.147c-.02.072-.425 1.438-.446 1.509l9.914 2.936-.908 3.063c.072.021 1.641.484 1.71.506l1.031-3.48a1.031 1.031 0 0 0-.677-1.387ZM138.339 33.722h.04l.007.049a7.867 7.867 0 0 0 2.7 5.742c.05-.048.937-.937.987-.987-2.788-2.933-1.56-5.265-1.422-5.526-.039-.039-1.5-1.5-1.547-1.544-.26.136-2.659 1.294-5.591-1.495-.049.049-.939.936-.986.987a8.055 8.055 0 0 0 5.812 2.774ZM130.779 32.465l3.728 3.73-.782.782-3.625-3.629-1.032 1.034c.055.057 6.842 6.845 6.842 6.845.176.19.233.425.12.537a.453.453 0 0 1-.595-.066s-6.786-6.791-6.84-6.844c-.049.051-.759.758-.759.758a2.639 2.639 0 0 0 .04 3.746l6.679 6.683c.052-.054 1.055-1.054 1.111-1.112l-6.976-6.975a.451.451 0 0 1 .014-.525c.117-.116.349-.063.535.117l6.9 6.911 1.739-1.736-.009.006a1.034 1.034 0 0 0 .059-1.546l-2.8-2.8.782-.782s3.638 3.643 3.7 3.7c.049-.051 1-1.008 1.059-1.059-.055-.054-8.765-8.773-8.824-8.829-.058.046-1.012 1.003-1.066 1.054ZM54.9 18.38c.036.067.915 1.679.931 1.706l-1.5.817a1.516 1.516 0 0 0-.925-.777h-.005a2.055 2.055 0 0 0-1.405.3l-.349.19c-2.284 1.245-5.691 3.1-5.735 3.126.033.064.733 1.351.733 1.351.061-.033 4.969-2.707 5.91-3.221a.154.154 0 0 1 .216.1c.2.757.645 3.764-4.3 6.461l.753 1.377c4.477-2.653 5.512-5.3 5.456-7.271L56.6 21.5l.5.927-2.247 1.224.729 1.338 2.243-1.226.916 1.678a2.927 2.927 0 0 0-1.327.358L52 28.746a2.862 2.862 0 0 0-1.279 3.868l.145.263a2.825 2.825 0 0 0 3.917.974s5.411-2.942 5.417-2.951a2.829 2.829 0 0 0 1.367-3.853S56.6 17.921 56.4 17.562c-.128.072-1.354.738-1.5.818Zm5.1 9.486c.4.743-.041 1.387-.809 1.8l-4.841 2.642c-.755.413-1.547.443-1.95-.3-.015-.025-.1-.189-.115-.21-.406-.75.018-1.44.777-1.855l4.845-2.636c.764-.418 1.574-.4 1.982.348.011.023.1.185.111.211ZM121.491 34.964l1.534.852 6.557-11.829a556.74 556.74 0 0 0-1.535-.851ZM123.854 21.28l-.048-.029L119.738 19l-.942-.522-.76 1.373 4.88 2.7a.727.727 0 0 1 .241.267.59.59 0 0 1-.1.473l-.932 1.68a7.475 7.475 0 0 1-3.5 3.525 5.871 5.871 0 0 1-2.423.39 12.452 12.452 0 0 1-1.572-.191c-.157-.031-.307-.055-.462-.094-.037-.01-.069-.012-.105-.024-.245-.055-.5-.122-.76-.2l-.814 1.468a26.881 26.881 0 0 0 2.819.578 8.009 8.009 0 0 0 3.926-.395 8.67 8.67 0 0 0 4.4-4.176l1.132-2.037a1.653 1.653 0 0 0 .187-1.394 2.29 2.29 0 0 0-1.099-1.141ZM93.777 11.335l-1.752-.011-.076 11.967-1.112-.007h-.473l.01-1.627c.006-1.083.016-2.875.036-5.84l.014-2.33a1.652 1.652 0 0 0-.5-1.313 2.318 2.318 0 0 0-1.521-.474h-1.098s-1.994-.015-3.608-.025l-1.076-.008c-.542 0-.912-.005-.936-.006 0 .074-.007 1.5-.011 1.573l4.811.032 1.723.01a.675.675 0 0 1 .323.117.6.6 0 0 1 .143.46l-.006.936-.017.487c-.006 1.125-.051 7.964-.051 7.964v.037l-2.75-.018s.035-5.732.039-5.809c-.073 0-1.586-.01-1.66-.012l-.039 5.811-2.59-.025-.01 1.552 12.1.077.04-5.813 1.958.012.012-1.6c-.3 0-.057 0-1.958-.012-.001-.002.035-6.025.035-6.105ZM41.278 28.964a1.641 1.641 0 0 0-1.266-.616 2.305 2.305 0 0 0-1.429.692l-.037.037-.771.711-2.643 2.451-.788.731a4347.283 4347.283 0 0 0-2.905 2.689c.049.055.987 1.067 1.038 1.12l5.874-5.44 1.11-1.039a.634.634 0 0 1 .337-.144c.152-.018.309.122.413.236l2.452 2.648-7.591 7.032c.05.057 1.034 1.121 1.084 1.173l3.649-3.377 3.948 4.262c.054-.052 1.279-1.185 1.333-1.237-.05-.057-3.946-4.262-3.946-4.262s3.838-3.558 3.9-3.61c-.04-.034-3.762-4.057-3.762-4.057Z" style="fill:#9ea3a6"/></svg>