<svg xmlns="http://www.w3.org/2000/svg" width="149.19145mm" height="152.20551mm" viewBox="0 0 149.19145 152.20551"><path d="M0 0c9.947-17.862 25.563-29.155 43.197-39.144 12.733 5.72 24 13.432 32.839 23.596C85.43-4.725 93.928 7.8 96.234 23.657c2.037 13.832 2.143 29.805 3.196 47.435-4.747 1.699-9.045 4.227-12.403 8-3.476 3.887-5.683 8.991-6.433 15.066-11.787 1.689-24.602 2.564-37.365 2.564-12.44 0-24.889-.837-36.292-2.574-1.093-5.582-3.08-10.59-6.339-14.705-3.159-4.004-7.52-6.955-12.773-8.625C-11.326 41.726-9.867 17.541 0 0" style="fill:#2a2f70;fill-opacity:1;fill-rule:nonzero;stroke:none" transform="matrix(.77013 0 0 -.77013 41.15 100.655)"/><path d="M0 0c-12.422-.002-24.809-.844-36.192-2.58-1.093-5.578-3.079-10.594-6.339-14.699-3.158-4.013-7.52-6.961-12.773-8.619.849-29.095 2.308-53.278 12.175-70.828C-33.182-114.571-17.605-125.86 0-135.818z" style="fill:#06a788;fill-opacity:1;fill-rule:nonzero;stroke:none" transform="matrix(.77013 0 0 -.77013 74.364 26.155)"/><path d="M0 0a2.418 2.418 0 1 0-4.838 0 2.42 2.42 0 0 0 2.415 2.423A2.428 2.428 0 0 0 0 0" style="fill:#fff;fill-opacity:1;fill-rule:nonzero;stroke:none" transform="matrix(.77013 0 0 -.77013 56.733 55.298)"/><path d="M0 0a2.425 2.425 0 0 0-2.414-2.427A2.42 2.42 0 0 0-4.831 0a2.423 2.423 0 0 0 2.417 2.423A2.428 2.428 0 0 0 0 0" style="fill:#fff;fill-opacity:1;fill-rule:nonzero;stroke:none" transform="matrix(.77013 0 0 -.77013 66.47 55.298)"/><path d="M0 0a2.426 2.426 0 0 0-2.418-2.427A2.42 2.42 0 0 0-4.831 0a2.422 2.422 0 0 0 2.413 2.423A2.428 2.428 0 0 0 0 0" style="fill:#fff;fill-opacity:1;fill-rule:nonzero;stroke:none" transform="matrix(.77013 0 0 -.77013 76.214 55.298)"/><path d="M0 0a2.423 2.423 0 0 0-2.418-2.427A2.426 2.426 0 0 0-4.836 0a2.429 2.429 0 0 0 2.418 2.423A2.425 2.425 0 0 0 0 0" style="fill:#fff;fill-opacity:1;fill-rule:nonzero;stroke:none" transform="matrix(.77013 0 0 -.77013 85.955 55.298)"/><path d="M0 0c0-1.34-1.08-2.427-2.406-2.427A2.419 2.419 0 0 0-4.828 0a2.421 2.421 0 0 0 2.422 2.423C-1.08 2.423 0 1.331 0 0" style="fill:#fff;fill-opacity:1;fill-rule:nonzero;stroke:none" transform="matrix(.77013 0 0 -.77013 95.7 55.298)"/><path d="m0 0 .252-.057c.613-.158.873-.29.973-.381a.875.875 0 0 0 .289-.479c.038-.143.08-.524.08-1.329v-4.135h-6.151v4.135c0 .812.049 1.186.098 1.329.074.206.167.364.314.479.103.091.364.223.965.381l.249.057v1.472h-8.561V.027l.243-.084.819-.275c.168-.084.291-.187.356-.322.084-.116.136-.312.152-.551l.038-1.033v-11.529l-.038-1.028a1.407 1.407 0 0 0-.16-.564.932.932 0 0 0-.348-.305l-1.037-.339-.025-.239v-1.211h8.561v1.45l-.936.287-.373.223c0 .012-.184.309-.184.309l-.102.58-.031.837v5.043h6.151v-5.043c0-.895-.049-1.266-.088-1.417a.694.694 0 0 0-.248-.391c-.053-.053-.281-.183-1.006-.341L0-15.975v-1.478h8.519v1.478l-.253.059c-.602.118-.854.265-.953.358a.849.849 0 0 0-.308.46c-.038.156-.086.516-.086 1.331v11.521l.028 1.034.16.539c.046.12.145.219.294.307.113.073.359.185.865.309L8.519 0v1.472H0Zm20.829 1.472V0l.257-.057c.652-.164.889-.309.977-.372a.856.856 0 0 0 .275-.471c.053-.16.087-.526.087-1.317v-8.543c0-1.255-.103-2.214-.294-2.834a2.554 2.554 0 0 0-.938-1.376c-.453-.309-1.153-.473-2.093-.473-.694 0-1.266.091-1.704.305a2.227 2.227 0 0 0-.965.829c-.237.384-.397.845-.503 1.379a11.072 11.072 0 0 0-.145 1.872v8.82l.063 1.092.166.509c.06.111.172.214.332.29.16.107.429.197.815.29l.259.057v1.472H8.854V.027l.263-.084.813-.275a.736.736 0 0 0 .342-.322c.081-.116.134-.312.161-.551l.026-1.033v-8.652c0-1.23.16-2.257.473-3.058a5.155 5.155 0 0 1 1.466-2.055c.643-.565 1.497-.969 2.526-1.251 1.004-.273 2.254-.405 3.705-.405.982 0 1.896.054 2.693.201a7.867 7.867 0 0 1 2.198.699 5.135 5.135 0 0 1 1.685 1.316c.453.545.791 1.213 1.002 1.996.203.774.302 1.744.302 2.865v8.365l.046 1.029c.03.233.091.418.166.559a.914.914 0 0 0 .342.305l1.023.341.024.246v1.209zm-38.511-13.203c-.328-.931-.783-1.687-1.403-2.267-.351-.341-.801-.61-1.323-.816-.701-.274-1.604-.4-2.669-.4 0 0-.687.021-1.039.03V-.77c.352.009 1.005.017 1.005.017 1.237 0 2.302-.251 3.179-.744.866-.501 1.553-1.281 2.034-2.337.495-1.07.747-2.442.747-4.076 0-1.508-.183-2.799-.531-3.821m4.363 9.84a7.273 7.273 0 0 1-2.22 1.868c-.894.519-1.94.902-3.088 1.139-1.144.23-2.582.356-4.268.356h-8.156V.027l.246-.084.823-.275a.864.864 0 0 0 .357-.322c.077-.116.123-.312.142-.551l.034-1.033v-11.529l-.041-1.028a1.25 1.25 0 0 0-.158-.564.894.894 0 0 0-.346-.305l-1.039-.339-.018-.239v-1.211h7.16c1.629 0 2.998.084 4.08.241 1.247.187 2.385.53 3.365.993a8.177 8.177 0 0 1 2.503 1.809c.761.826 1.332 1.813 1.73 2.978.363 1.114.549 2.414.549 3.846 0 1.178-.13 2.24-.404 3.18a7.207 7.207 0 0 1-1.251 2.515" style="fill:#fff;fill-opacity:1;fill-rule:nonzero;stroke:none" transform="matrix(.77013 0 0 -.77013 75.97 38.057)"/><path d="M0 0c5.369 4.574 5.72 7.617 7.794 3.993 2.048-2.582 2.38-1.846 3.272-2.515.013.013.019.019.019.022-1.147 1.251-1.838 3.034-1.667 5.318.209 2.837 1.497 5.405 3.006 7.378 2.605 3.43 6.484 5.949 10.901 7.724a63.457 63.457 0 0 1 3.122 9.817 56.69 56.69 0 0 1-6.051-2.494c-.88-.414-3.245-1.664-4.19-1.243-1.153.482-1.472 2.063-.31 3.731.741 1.055 3.051 1.747 4.508 2.461 3.805 1.882 6.075 5.018 7.776 8.695.068.619.123 1.248.186 1.87-2.462-3.142-5.471-6.609-9.741-7.827-1.477-.434-2.918-.528-4.23-.835-1.67-.377-2.666-1.214-3.405-1.628-2.105-1.222-5.408-3.973-4.031-7.167.543-1.27 2.35-2.894 4.156-3.083 3.344-.337 5.268 3.179 8.465 1.45-2.07-2.898-4.392-5.431-8.731-5.669-2.06-.118-3.779.389-5.528.271-3.46-.216-7.3-1.907-7.3-5.598 0-1.74 1.23-2.875 1.571-4.513.522-2.604-1.079-4.541-2.543-5.868-1.276-1.152-2.627-2.221-4.016-2.734.992 2.254 1.644 3.912 1.434 6.827-.594 8.235-14.303 7.777-20.205 4.591-1.984-1.086-4.18-2.724-4.912-4.858-.179-.484-.233-1.102-.125-1.506.22-.968 1.437-1.193 1.558-2.391.16-1.401-1.467-1.636-2.523-1.222-2.162.836-2.506 4.801-1.43 6.83.725 1.363 2.097 2.508 3.473 3.342 3.002 1.754 6.578 2.757 10.242 3.405 2.052.376 4.076.469 6.074.759 10.232 1.47 14.559 7.921 18.438 15.624 4.445 8.868 13.906 13.003 23.72 16.446 0 .055 0 .12.006.176-7.334-.369-13.371-1.932-18.469-5.423-3.543-2.421-6.074-6.2-9.773-8.602-.83-.54-2.863-2.109-4.564-1.43-1.805.707.301 3.88 1.018 4.435 1.579 1.207 3.878 1.332 5.384 2.659 1.252 1.085 1.926 2.357 2.678 3.889-2.857-.699-5.676-2.52-9.561-2.104-.689.061-1.81.45-2.051 1.079-.398 1.018.256 2.2 1.154 2.456 1.749.516 3.205-.479 4.714-.603 4.885-.425 7.444 2.589 9.358 5.111-2.345-.936-4.335-2.341-7.931-2.183-1.489.063-2.772.729-4.027 1.021-1.098.268-3.561.219-3.744 1.305-.116.675.56 1.48 1.09 1.707 1.228.49 3.554-.147 4.774-.276 5.472-.575 10.032.388 12.157 3.477-2.338-.656-4.918-.946-7.844-.677-2.459.218-5.072 1.129-7.451 1.295-2.275.15-4.332-.166-6.07-.561-2.234-.478-8.68-2.823-8.992.305-.111 1.001 1.99 1.869 2.582 2.104 1.159.432 3.153.855 4.629 1.149-5.739.526-10.044-.517-14.044-2.311-1.868-.831-3.298-1.493-5.224-2.625-.789-.439-1.453-.936-2.558-1.44-.699-.309-2.723-1.241-3.276-.473-.378.523.141 1.556.545 2.054.675.825 1.277 1.033 2.586 1.661 0 0 2.169 1.079 4.029 1.683 3.655 1.188 3.856 3.914 3.6 4.315-.167.244-.518.77-2.169-1.127-.671-.765-1.285-1.053-1.937-1.205-2.173-.48-1.917-.717-4.439-1.786 1.884 1.612 5.152 4.003 4.744 7.809-.15 1.254-.622 2.634-1.713 3.071-.361-.724.024-1.603 0-2.457-.026-.923-.468-1.844-.895-2.595-1.243-2.172-3.433-3.998-5.376-5.723-2.14-1.884-4.184-3.698-4.859-6.346-.202-.825-.175-1.807-.542-2.4-.841-1.346-3.804-1.327-4.117-3.108-.111-.582.141-1.357.774-1.527.611-.206 1.357.17 1.845.538.671.531.908 1.521 1.498 2.122.946.951 3.007 1.079 3.948 1.842.541.426.728 1.086 1.305 1.233-.227-2.238-3.967-2.69-3.277-5.053.232-.718 1.167-.663 1.849-.411 1.076.396.996 2.253 1.632 3.212.667.981 2.297.814 3.356 1.152.675.219 1.064.7 1.701.828-.224-1.274-1.27-1.749-2.212-2.304-.965-.499-.816-.991-.816-.991.084-1.123.48-1.322.286-2.168-.561-2.694-6.742-.082-7.817-2.202-.267-.526.569-1.07.335-2.055-.26-1.037-.88-1.652-1.681-1.974-2.28-.902-4.519.548-4.743 2.702.587-.746.953-1.129 1.681-1.262.533-.08 1.266.107 1.721.621.457.519.357 1.598.898 2.191.771.827 1.702.669 2.925.953-.782.036-1.471.311-2.249.267-1.736-.095-3.81-1.668-5.316-.537-.449.316-.599.703-.561 1.296.13 1.853 3.383 2.816 3.962 3.95-.873-.392-1.819-.812-2.809-1.29-1.446-.742-3.227-1.341-3.539-2.937-.27-1.343.915-2.432.88-3.347-.019-.668-.842-1.287-1.365-1.781-1.556-1.447-3.328-3.384-5.459-3.941-2.285-.605-4.146 1.687-5.93.259-.601.584-1.404.685-1.304 1.848.121 1.222 1.688 2.003 2.733 2.6 3.462 1.93 6.849 4.38 6.971 8.936-1.281-4.057-4.755-6.246-8.054-8.261-1.402-.844-2.924-1.817-3.344-3.275-.507-1.713.622-2.406 1.221-3.413.197-.357.309-.78.473-.957.611-.656 2.1-.786 2.733-1.362.523-.466.624-1.313 1.099-1.708 2.228-1.921 6.947-.269 9 .683 1.713.782 2.881 2.734 4.225 3.378 1.425.698 3.581-.253 3.972-1.813.265-1.046-.288-2.091-1.084-2.248-.625-.122-1.368.145-1.984.208-1.932.139-3.216-.353-4.515-.883-1.013-.423-1.886-1.103-2.791-1.233-.89-.126-1.676.227-2.324.13-.797-.103-1.452-.738-1.432-1.425.025-.669.689-1.073 1.238-1.437.468-.322 1.365-.723 1.365-1.3-.02-1.232-2.239-.835-2.731-1.762 3.486-.563 5.143 1.653 7.287 2.448-.187-1.034-.957-1.741-1.639-2.248-.162-.139-.687-.271-.473-.563 1.624.424 2.776 1.362 4.042 2.266.957.718 1.754 1.631 2.719 2.324 1.937 1.357 4.65 2.001 7.717 2.389 3.043.373 5.365 1.052 7.436 2.661 1.796 1.377 3.88 3.569 3.756 6.41-.118 2.898-3.367 2.524-5.121 1.565.968 2.233 3.938 2.055 6.284 2.738 2.338.683 4.194 2.019 5.598 3.268-.935-2.124-2.59-3.407-4.309-4.767-.374-.308-1.365-1.014-1.228-1.841.122-.864 1.483-1.108 2.39-.749.907.345.963 1.098 1.77 1.157 1.056.053 2.025-.754 2.326-1.371-2.04-.715-5.72-1.548-5.804-4.705.111-1.308 3.413-.691 5.247.032 2.471.994 3.039 2.221 4.309 3.523-.416-5.738-1.838-7.281-7.973-8.025-2.616-.308-5.593-.232-8.236-.651-7.661-1.221-13.549-4.145-17.461-9.07-1.252-1.573-2.375-3.518-2.865-6.015-.479-2.372-.502-5.283.28-7.91-1.304.785-4.419 1.469-5.686 2.322-.884.596-1.452 1.214-2.143 1.905-.51.493-1.91 1.143-1.922 1.847-.007.909 1.431 1.599 2.06 2.046.43.312.895.592 1.147.884 1.171 1.371.9 3.573.275 5.11-.431-1.631-1.269-2.968-2.322-3.819-1.171-.953-2.982-1.241-4.424-1.499-1.373-.253-3.691-.187-4.991-1.02-.308-.202-.587-.49-.839-.831.11-.193.192-.397.299-.581.926-1.663 1.94-3.194 2.957-4.75.58.531 1.153.969 1.76 1.041 1.006.122 2.053-.61 2.984-1.161 3.642-2.146 6.987-4.173 10.036-6.69.753-.617 1.354-1.426 2.117-2.052 1.491-1.212 4.964-3.402 7.443-2.185 1.125.565 2.272 2.033 2.398 3.62.18 2.409-.918 4.743-1.173 6.756-.317 2.564-.028 4.942.755 6.967 2.222 5.752 7.915 8.046 15.149 8.671 2.555.223 5.285.133 7.855.133 5.735 0 12.758.057 14.942 3.341-.703-2.162-2.508-3.058-4.43-3.739-4.113-1.489-9.682-1.424-14.885-1.634-7.59-.349-13.664-3.363-15.154-9.641C-40.5 5.417-38.2.98-35.558-1.438c1.339-1.233 3.011-2.143 5.259-2.453 4.653-.649 9.466.839 12.347 2.803 1.452.984 3.138 2.524 3.138 4.636 0 .902-.383 1.869-.754 2.319-.5.617-3.334 1.66-3.94.127-.18-.41-.158-1.269.264-1.563.389-.29.937.114 1.082-.141-.096-1.525-1.967-1.665-2.871-1.359-2.238.789-.934 4.162.076 4.981 1.018.822 3.699 1.772 6.143.822 1.731-.686 3.146-2.505 3.146-4.783-.02-5.381-5.239-8.052-9.869-9.089-9.544-2.124-16.894.635-16.894.635-3.681 1.302-6.919-1.001-8.804-3.489-1.181-1.562-2.611-2.982-4.089-4.324a138.499 138.499 0 0 1 3.953-3.183c1.219.784 2.449 1.557 3.555 2.321 2.304 1.601 3.898 4.118 7.103 4.295 3.84.238 4.473.078 10.588.181 0 0 15.273-.533 26.125 8.702" style="fill:#fff;fill-opacity:1;fill-rule:nonzero;stroke:none" transform="matrix(.77013 0 0 -.77013 95.37 110.387)"/><path d="M0 0c-2.244-.818-3.52-2.006-3.829-3.562-.173-.865.008-2.032.546-3.502l.472-1.298L7.832-4.473l-.538 1.474C6.779-1.594 6.145-.624 5.383-.084 4.113.822 2.322.849 0 0m-1.305 3.203c3.307 1.209 5.96.936 7.966-.812C7.793 1.407 8.758-.168 9.547-2.33l1.589-4.349-15.049-5.498-1.648 4.505c-.789 2.164-1.078 3.969-.863 5.415.357 2.524 2.063 4.345 5.119 5.46" style="fill:#a8a7a7;fill-opacity:1;fill-rule:nonzero;stroke:none" transform="matrix(.77013 0 0 -.77013 9.34 95.603)"/><path d="m0 0-7.428-3.489L.684-4.98Zm4.977 5.817.48-3.506L2.224.747l.803-5.893 3.537-.658.453-3.3-16.639 3.413-.536 3.921z" style="fill:#a8a7a7;fill-opacity:1;fill-rule:nonzero;stroke:none" transform="matrix(.77013 0 0 -.77013 8.382 81.86)"/><path d="m0 0-.605-10.181-15.997.951.6 10.036L-13.6.661l-.408-6.878 4.265-.254.391 6.545 2.402-.143-.389-6.545 4.538-.271.417 7.026z" style="fill:#a8a7a7;fill-opacity:1;fill-rule:nonzero;stroke:none" transform="matrix(.77013 0 0 -.77013 12.786 66.828)"/><path d="M0 0a38.037 38.037 0 0 0-.955-4.881c-.535-2.04-1.323-3.537-2.367-4.49-1.686-1.52-4.108-1.866-7.269-1.039-5.347 1.403-7.261 5.007-5.739 10.818.384 1.456.746 2.589 1.088 3.395l2.187-.575-.679-2.593c-.479-1.823-.579-3.268-.296-4.34.46-1.721 1.856-2.89 4.194-3.504 2.242-.585 3.928-.377 5.057.626.659.59 1.168 1.568 1.525 2.932l.309 1.176-4.557 1.196.797 3.037z" style="fill:#a8a7a7;fill-opacity:1;fill-rule:nonzero;stroke:none" transform="matrix(.77013 0 0 -.77013 15.534 54.383)"/><path d="M0 0c1.598-.805 2.646-1.922 3.148-3.344.536-1.489.372-3.087-.49-4.797-.885-1.758-2.048-2.871-3.489-3.34-1.44-.473-2.97-.3-4.591.516l-9.338 4.698 1.442 2.862 9.466-4.765C-1.83-9.186-.377-8.814.508-7.054c.891 1.769.346 3.153-1.641 4.152l-9.521 4.793L-9.26 4.66z" style="fill:#a8a7a7;fill-opacity:1;fill-rule:nonzero;stroke:none" transform="matrix(.77013 0 0 -.77013 17.32 40.591)"/><path d="m0 0-2.234-2.24-4.867 4.852-4.614-4.627 4.861-4.851-2.232-2.24-11.342 11.317 2.235 2.239 4.772-4.763 4.616 4.626-4.774 4.762 2.234 2.24z" style="fill:#a8a7a7;fill-opacity:1;fill-rule:nonzero;stroke:none" transform="matrix(.77013 0 0 -.77013 34.101 27.289)"/><path d="m0 0-6.285 5.277 2.051-7.986zm7.369-2.074L4.388-3.981 1.613-1.703-3.398-4.91l.888-3.485-2.806-1.795-3.888 16.535 3.335 2.133Z" style="fill:#a8a7a7;fill-opacity:1;fill-rule:nonzero;stroke:none" transform="matrix(.77013 0 0 -.77013 40.28 17.646)"/><path d="m0 0-5.067 6.457.366-8.239zm6.784-3.542L3.475-4.799 1.227-1.997l-5.562-2.11.152-3.592-3.115-1.18-.41 16.979 3.704 1.403z" style="fill:#a8a7a7;fill-opacity:1;fill-rule:nonzero;stroke:none" transform="matrix(.77013 0 0 -.77013 52.795 11.794)"/><path d="m0 0-4.248-.625a343 343 0 0 0-2.936 4.144c-1.971 2.857-3.127 4.614-3.462 5.271-.745 1.401-1.225 2.417-1.444 3.048l-.287-.042c.354-1.557.602-2.832.746-3.828l1.393-9.469-2.612-.386-2.326 15.854 4.289.63 2.959-4.287a313.904 313.904 0 0 0 3.42-5.129c.801-1.518 1.289-2.534 1.465-3.046l.268.04a29.43 29.43 0 0 0-.79 3.8l-1.392 9.493 2.631.386z" style="fill:#a8a7a7;fill-opacity:1;fill-rule:nonzero;stroke:none" transform="matrix(.77013 0 0 -.77013 70.611 12.457)"/><path d="m0 0-5.802-9.598-.389-6.062-3.178.203.389 6.063-4.545 10.26 3.447-.221 2.875-7.529.084-.006L-3.348.214z" style="fill:#a8a7a7;fill-opacity:1;fill-rule:nonzero;stroke:none" transform="matrix(.77013 0 0 -.77013 84.66 .667)"/><path d="M0 0c-.639-1.67-1.641-2.826-3.01-3.468-1.426-.679-3.031-.677-4.82.008-1.838.703-3.062 1.748-3.676 3.134-.613 1.387-.595 2.928.054 4.622l3.741 9.76 2.988-1.147-3.789-9.897C-9.32.9-8.806-.507-6.968-1.213c1.853-.709 3.177-.026 3.97 2.047L.814 10.79l2.895-1.109Z" style="fill:#a8a7a7;fill-opacity:1;fill-rule:nonzero;stroke:none" transform="matrix(.77013 0 0 -.77013 102.806 14.241)"/><path d="m0 0-3.583 2.368c.202 1.874.394 3.556.572 5.043.437 3.445.747 5.524.935 6.236.381 1.542.701 2.618.957 3.235l-.244.161c-.775-1.396-1.436-2.514-1.991-3.354l-5.277-7.984-2.201 1.454 8.834 13.368 3.616-2.392-.651-5.166a346.389 346.389 0 0 0-.874-6.103c-.415-1.667-.728-2.75-.939-3.245l.23-.149c.507 1.05 1.155 2.17 1.94 3.36l5.293 8.001 2.219-1.466z" style="fill:#a8a7a7;fill-opacity:1;fill-rule:nonzero;stroke:none" transform="matrix(.77013 0 0 -.77013 113.188 25.631)"/><path d="m0 0-2.309 2.16 10.94 11.707 2.312-2.16z" style="fill:#a8a7a7;fill-opacity:1;fill-rule:nonzero;stroke:none" transform="matrix(.77013 0 0 -.77013 118.05 30.127)"/><path d="m0 0-15.607-6.063-2.883 3.676 9.624 13.693 2.12-2.702-8.364-11.296.128-.166 12.937 5.464z" style="fill:#a8a7a7;fill-opacity:1;fill-rule:nonzero;stroke:none" transform="matrix(.77013 0 0 -.77013 136.724 33.057)"/><path d="m0 0-4.648 9.077 14.264 7.3 4.58-8.945-2.142-1.1-3.143 6.133-3.802-1.946 2.988-5.834-2.145-1.097-2.986 5.834-4.047-2.07 3.209-6.266Z" style="fill:#a8a7a7;fill-opacity:1;fill-rule:nonzero;stroke:none" transform="matrix(.77013 0 0 -.77013 131.937 50.106)"/><path d="M0 0c.951.276 1.488.837 1.607 1.685.077.545-.039 1.348-.345 2.406L.643 6.246l-5.075-1.462.948-3.28C-2.504.116-1.341-.385 0 0m-9.741-6.885-.982 3.404 4.772 4.993-.755 2.617-5.735-1.654-.872 3.018 15.397 4.44 1.398-4.85c.569-1.972.797-3.491.684-4.555C3.963-1.291 2.901-2.475.981-3.028c-1.918-.553-3.733.099-5.447 1.96z" style="fill:#a8a7a7;fill-opacity:1;fill-rule:nonzero;stroke:none" transform="matrix(.77013 0 0 -.77013 143.494 57.606)"/><path d="M0 0c-2.696-.246-4.236 1.747-4.622 5.973-.152 1.695-.164 3.07-.036 4.12l2.211.199.41-4.504c.164-1.809.766-2.665 1.808-2.572.668.061 1.295.637 1.883 1.728a82.631 82.631 0 0 0 2.315 3.952c.883 1.397 2.013 2.16 3.386 2.284 2.616.238 4.107-1.674 4.477-5.735.121-1.363.131-2.623.026-3.782L9.627 1.46l-.369 4.088c-.072.766-.188 1.323-.344 1.674-.263.578-.699.839-1.31.784-.558-.05-1.149-.645-1.774-1.779-.53-.961-1.269-2.246-2.216-3.861C2.695.923 1.49.133 0 0" style="fill:#a8a7a7;fill-opacity:1;fill-rule:nonzero;stroke:none" transform="matrix(.77013 0 0 -.77013 139.986 72.962)"/><path d="m0 0 .16 3.159 16.004-.816-.16-3.159Z" style="fill:#a8a7a7;fill-opacity:1;fill-rule:nonzero;stroke:none" transform="matrix(.77013 0 0 -.77013 136.743 79.167)"/><path d="m0 0 .927 4.685-13.354 2.642.617 3.123L1.544 7.806l.924 4.665 2.363-.469L2.36-.467Z" style="fill:#a8a7a7;fill-opacity:1;fill-rule:nonzero;stroke:none" transform="matrix(.77013 0 0 -.77013 145.045 93.634)"/><path d="m0 0-7.306 8.505-5.635 2.264 1.185 2.953 5.637-2.262 11.168 1.114-1.287-3.207-8.051-.38-.035-.076 5.575-5.802Z" style="fill:#a8a7a7;fill-opacity:1;fill-rule:nonzero;stroke:none" transform="matrix(.77013 0 0 -.77013 141.93 107.304)"/><path d="m0 0-12.529-14.473-1.663 1.439 2.426 2.803-4.939 4.278 2.002 2.311 4.937-4.276 1.11 1.281-4.938 4.278 2.002 2.311 4.938-4.274 4.992 5.761zm-11.852 7.27 6.3-6.258-1.973-2.28-5.717 4.949c-.379.328-.712.328-.996 0l-6.701-7.741-1.665 1.438 8.488 9.802c.728.846 1.487.875 2.264.09" style="fill:#a8a7a7;fill-opacity:1;fill-rule:nonzero;stroke:none" transform="matrix(.77013 0 0 -.77013 135.836 118.013)"/><path d="m0 0-2.732-1.756 2.368-3.683-2.835-1.823-6.185 9.618 2.834 1.825L-3.92.093l2.73 1.755zm1.022-7.436 2.791-5.002-2.589-1.667-2.355 3.665c-.242.375-.54.451-.893.225l-8.016-5.154-1.188 1.849 10.29 6.616c.82.529 1.476.351 1.96-.532m-11.434 1.362c-.357.553-.793.896-1.314 1.037-.522.139-1.027.047-1.521-.269-.508-.326-.801-.751-.885-1.277-.084-.528.05-1.07.404-1.623.359-.549.793-.896 1.307-1.037.516-.143 1.025-.051 1.53.273.493.316.785.741.874 1.271.091.531-.043 1.074-.395 1.625m2.004 4.354-1.407-.907c.802-.347 1.474-.936 2.009-1.769.748-1.164.957-2.329.625-3.495-.328-1.165-1.149-2.172-2.465-3.018-1.313-.845-2.576-1.178-3.777-.996-1.205.179-2.179.853-2.928 2.014-.536.833-.789 1.691-.759 2.574l-1.514-.973-1.189 1.85 3.735 2.4-1.314 2.044 2.837 1.825 1.312-2.044L-9.596.129z" style="fill:#a8a7a7;fill-opacity:1;fill-rule:nonzero;stroke:none" transform="matrix(.77013 0 0 -.77013 118.076 127.462)"/><path d="m0 0-2.853-.845L-6.2 10.442l-2.047-.608L-4.965-1.23l-2.753-.816-1.857 6.265c-.263-.53-.885-1.07-1.857-1.62-.873-.493-1.971-.935-3.297-1.328a16 16 0 0 0-1.612-.39c-.7-.134-1.255-.036-1.659.295-.345.277-.627.789-.851 1.541l-3.212 10.841 6.784 2.015.626-2.109-3.752-1.115 2.439-8.233c.123-.415.37-.589.744-.522 1.346.223 2.517.6 3.512 1.129.643.335 1.057.684 1.239 1.046.183.358.181.86-.009 1.502l-2.736 9.238 2.749.816 1.598-5.383 2.048.609-1.596 5.382 2.85.845z" style="fill:#a8a7a7;fill-opacity:1;fill-rule:nonzero;stroke:none" transform="matrix(.77013 0 0 -.77013 103.16 147.092)"/><path d="M0 0c-.004.923-.24 1.659-.711 2.208-.472.549-1.082.822-1.835.82-.753-.006-1.362-.282-1.83-.837-.468-.553-.696-1.291-.692-2.212.005-.936.24-1.676.709-2.219.472-.542 1.084-.812 1.838-.806.755.003 1.365.276 1.831.823C-.226-1.678.006-.934 0 0m3.268.015c.007-1.691-.508-3.027-1.541-4.019C.689-4.991-.723-5.491-2.51-5.497c-1.788-.009-3.207.477-4.259 1.457-1.052.98-1.581 2.315-1.586 4.004-.008 1.689.509 3.026 1.552 4.006 1.041.984 2.457 1.479 4.244 1.487 1.788.007 3.205-.475 4.25-1.449C2.733 3.035 3.26 1.705 3.268.015m5.421-14.009-3.371-.015-.022 5.298c-.667-.7-2.074-1.14-4.225-1.315-.656-.061-2.172-.094-4.546-.105l-5.445-.023-.011 2.198 5.426.025c3.185.013 5.265.084 6.242.213 1.701.219 2.552.914 2.546 2.086L5.232 5.573l3.373.015Z" style="fill:#a8a7a7;fill-opacity:1;fill-rule:nonzero;stroke:none" transform="matrix(.77013 0 0 -.77013 74.626 141.417)"/><path d="m0 0-3.119.904-1.708-5.896-3.237.938 3.919 13.541 3.242-.938-1.606-5.533L.61 2.112Zm-11.222 4.471c.202.697.191 1.308-.035 1.832-.228.522-.629.869-1.206 1.037-.577.166-1.1.088-1.571-.233-.471-.322-.809-.831-1.01-1.528-.209-.712-.197-1.328.031-1.852.226-.522.626-.869 1.205-1.037.561-.162 1.084-.084 1.561.236.476.321.819.835 1.025 1.545m4.645 1.576-1.692.491c.319-.908.327-1.882.026-2.929-.408-1.411-1.183-2.389-2.314-2.938-1.133-.553-2.43-.618-3.895-.192-1.46.423-2.527 1.172-3.195 2.245-.67 1.074-.805 2.315-.395 3.722.304 1.049.832 1.867 1.585 2.465l-1.788.517.609 2.113 4.268-1.236.674 2.335 3.238-.938-.676-2.335 4.164-1.207zm.949-16.213-11.689 3.384c-1.004.29-1.375.9-1.104 1.826l1.342 4.647 3.242-.938-.984-3.401c-.1-.334.049-.557.436-.669l9.374-2.718z" style="fill:#a8a7a7;fill-opacity:1;fill-rule:nonzero;stroke:none" transform="matrix(.77013 0 0 -.77013 63.302 142.794)"/><path d="m0 0-6.955 4.398-4.222-6.672-2.852 1.803 4.22 6.675-6.371 4.028 1.163 1.842 11.081-7.008 3.428 5.414c.254.403.192.723-.187.961l-8.301 5.253 1.175 1.859 10.727-6.784c.956-.606 1.097-1.35.426-2.228l-4.609-6.155 2.441-1.544Z" style="fill:#a8a7a7;fill-opacity:1;fill-rule:nonzero;stroke:none" transform="matrix(.77013 0 0 -.77013 42.664 138.98)"/><path d="m0 0-1.963 2.235L6.883 10l-1.41 1.607-8.672-7.616-1.893 2.156 4.909 4.313c-.59.019-1.341.353-2.249 1.006-.812.588-1.673 1.402-2.589 2.439-.393.451-.737.885-1.026 1.298-.42.584-.56 1.125-.43 1.632.108.427.455.9 1.041 1.417l8.5 7.462 4.671-5.321-1.653-1.451-2.585 2.944-6.452-5.667c-.324-.285-.377-.583-.162-.894.769-1.129 1.599-2.034 2.496-2.715.576-.442 1.064-.672 1.471-.69.404-.017.857.198 1.363.641l7.236 6.356 1.894-2.156-4.218-3.704 1.41-1.604 4.217 3.703 1.963-2.233z" style="fill:#a8a7a7;fill-opacity:1;fill-rule:nonzero;stroke:none" transform="matrix(.77013 0 0 -.77013 20.941 130.996)"/></svg>