<svg xmlns="http://www.w3.org/2000/svg" width="153.8101mm" height="158.2235mm" viewBox="0 0 153.8101 158.2235"><path d="M31.756 343.281h1.433c2.108 0 2.882.689 2.882 3.1v2.097c0 2.096-.74 2.87-2.322 2.87h-1.993v-8.067zm-1.515 9.216h3.657c1.515 0 2.602-.474 3.194-1.579.478-.876.528-2.943.528-3.273 0-2.21-.231-3.488-.724-4.175-.643-.892-1.846-1.337-3.92-1.337H30.24v10.364zM45.357 351.275h-.034l-1.861-5.525h3.805l-1.91 5.525zm-.923 1.222h1.927l3.87-10.364h-1.696l-.856 2.469h-4.595l-.89-2.47h-1.532l3.772 10.365zM53.29 342.133v10.364h6.127v-1.148h-4.611v-3.331h4.282v-1.149h-4.282v-3.588h4.71v-1.148h-6.225zM68.703 349.726c0 1.22-.577 1.88-2.108 1.88-.477 0-2.19-.072-2.19-2.238v-3.503c0-2.267.757-2.843 2.19-2.843 1.087 0 1.812.26 2.126.46v3.101H66.53v1.148h3.704v-5.038c-.97-.46-2.108-.775-3.64-.775-2.52 0-3.738 1.134-3.738 4.005v3.401c0 2.068 1.219 3.388 3.739 3.388 2.57 0 3.788-.817 3.69-2.986h-1.582zM74.496 352.497h1.516v-6.632c0-2.267.79-2.843 2.223-2.843 1.433 0 2.223.576 2.223 2.843v6.632h1.516v-6.574c0-2.871-1.22-4.005-3.74-4.005-2.519 0-3.738 1.134-3.738 4.005v6.574zM94.814 350.501h-.033l-1.136-4.479h2.371l-1.202 4.479zm-4.792-8.368 3.293 10.364h3.278l3.228-10.364h-2.619l-.659 2.297H93.15l-.675-2.297h-2.453zM104.906 348.018h1.104c.987 0 1.268.862 1.268 1.522 0 .99-.478 1.363-1.268 1.363h-1.104v-2.885zm0-5.885h-2.487v10.363h4.595c1.697 0 2.784-.947 2.784-2.712 0-1.32-.594-2.312-2.208-2.54v-.03c.544-.057 2.158-.172 2.158-2.038 0-.66.05-2.612.28-3.043h-2.438c-.33.63-.263 1.336-.263 2.01 0 1.233.132 2.28-1.778 2.28h-.643v-4.29zM120.187 352.497v-1.724h-2.768v-8.64h-2.486v8.64h-2.767v1.724h8.02zM126.045 341.96c-3.079 0-3.656 1.58-3.524 3.374h2.487c0-.991.05-1.823 1.416-1.823.842 0 1.251.473 1.251 1.176 0 1.867-5.005 1.982-5.005 5.068 0 1.622.89 2.915 3.92 2.915 2.42 0 3.622-.948 3.457-3.116h-2.42c0 .775-.148 1.565-1.152 1.565-.808 0-1.286-.389-1.286-1.106 0-1.966 5.007-1.793 5.007-5.053 0-2.685-2.257-3-4.15-3M138.837 352.497h1.516v-6.632c0-2.267.79-2.843 2.223-2.843 1.432 0 2.223.576 2.223 2.843v6.632h1.515v-6.574c0-2.871-1.219-4.005-3.738-4.005-2.52 0-3.739 1.134-3.739 4.005v6.574zM158.663 352.497v-10.364h-2.075l-4.694 8.986h-.033v-8.986h-1.35v10.364h2.14l4.628-8.871h.033v8.871h1.351zM164.603 342.133h-1.515v10.364h1.515v-10.364zM173.083 342.133h-1.81l-3.442 10.364h1.646l2.718-9.115h.033l2.784 9.115h1.547l-3.476-10.364zM179.585 342.133v10.364h6.126v-1.148h-4.61v-3.331h4.28v-1.149h-4.28v-3.588h4.71v-1.148h-6.226zM190.78 348.047h2.274c1.087 0 1.614.818 1.614 1.723 0 .747-.428 1.579-1.596 1.579h-2.291v-3.302zm0-1.147v-4.767h-1.514v10.364h4.1c2.11 0 2.85-1.293 2.85-2.583 0-1.22-.774-2.154-2.172-2.37v-.028c1.366-.187 1.86-.59 1.944-2.671.015-.444.18-2.066.41-2.712h-1.581c-.428.718-.33 2.067-.462 3.445-.115 1.264-1.283 1.322-1.795 1.322h-1.78zM201.088 345.219v-.301c0-1.407 1.021-1.853 1.994-1.853 1.201 0 2.124.446 2.124 1.68 0 2.297-5.338 2.04-5.338 5.153 0 1.84 1.5 2.814 3.493 2.814 2.173 0 3.393-.919 3.294-3.03h-1.58c.015 1.135-.397 1.881-1.828 1.881-.908 0-1.83-.402-1.83-1.521 0-2.282 5.337-1.952 5.337-5.24 0-2.18-1.729-2.884-3.69-2.884-3.506-.028-3.506 2.31-3.475 3.3h1.5zM212.284 342.133h-1.516v10.364h1.516v-10.364zM223.3 352.497v-1.148h-3.128v-9.216h-1.516v9.216h-3.129v1.148h7.772zM231.563 352.497h1.535l-3.245-6.417v-3.947h-1.517v3.947l-3.193 6.417h1.694l2.324-5.01 2.402 5.01z" style="fill:#7d7b7b;fill-opacity:1;fill-rule:nonzero;stroke:none" transform="matrix(.74633 0 0 -.74633 -21.42 413.407)"/><path d="M109.215 381.77v-21.804h3.619v21.805h-3.619zM95.232 379.01c2.28 0 4.134-3.551 4.134-7.915 0-4.366-1.854-7.915-4.134-7.915-2.28 0-4.133 3.549-4.133 7.915 0 4.364 1.854 7.915 4.133 7.915m9.178-4.591v-6.541h-1.602a13.69 13.69 0 0 1-.028 6.541h1.63zm0 7.352v-4.737h-2.605c-1.489 2.892-3.944 4.616-6.573 4.616-4.388 0-7.958-4.735-7.958-10.555 0-5.824 3.57-10.558 7.958-10.558 2.667 0 5.143 1.765 6.628 4.725h2.55v-5.296h3.617v21.805h-3.617zM50.722 374.92h-2.229v6.85h-3.619v-15.034H32.619c.013.112 1.411 12.355 1.42 12.443h8.008v2.614h-.044l-11.448-.023-1.855-16.342h.028c.061-.74.603-1.315 1.26-1.315l.132.008h14.754v-4.213h3.62v12.397h2.228v-12.397h3.62v21.863h-3.62v-6.85zM83.204 380.497h-.03c-.072.662-.547 1.191-1.15 1.264l-.14.01-.138-.01-23.175.002v-2.617h20.586c-.007-.106-.517-8.297-.524-8.388h-20.84v-2.615H68.78v-8.353H72.4v8.353h11.696v2.615H82.59c.008.107.615 9.74.615 9.74M203.395 368.139h-24.417v-2.617h20.84v-5.627h3.577V368.139zM170.178 374.92h-2.227v6.85h-3.622v-15.034h-12.254l1.42 12.443h8.009v2.614H150.112v-.023h-.1l-1.805-15.894a39.984 39.984 0 0 1-.044-.39l-.007-.058h.03c.057-.74.601-1.315 1.256-1.315l.136.008h14.75v-4.155h3.623v12.339h2.227v-12.339h3.62v21.805h-3.62v-6.85zM203.395 381.77h-3.632v-12.795h3.632v5.42h2.955v2.615h-2.955v4.76zM232.552 364.305l.632 16.197-.024-.003c-.075.664-.55 1.19-1.151 1.262l-.14.01-.137-.01-22.998.002v-2.618h20.44l-.578-14.84h-3.553v9.775h-3.618v-9.775h-4.818v9.53h-3.618v-9.53h-4.916v-2.615h26.716v2.615h-2.237zM117.631 374.073v-2.616h10.983v-1.244h-10.227v-2.617h20.964v-1.245h-20.964v-5.126c0-.424.11-.756.324-.984.35-.374.85-.339.87-.339.042-.005 19.426 0 23.312 0h.045v2.616h-20.416c0 .092.022 1.208.022 1.297h20.395v6.398h-10.707v1.244h11.694v2.616h-26.295zM118.183 375.124c6.684.153 10.237 1.712 11.993 3.263.173.152.342.315.504.483a8.12 8.12 0 0 1 .505-.483c1.755-1.551 5.313-3.11 11.998-3.263l.74 2.696-.22-.016c-.073-.004-7.023-.284-10.002 4.295l-.05.076h-5.942l-.047-.076c-2.977-4.58-9.929-4.3-9.998-4.295l-.222.016.74-2.696zM187.574 371.37c-3.26 0-5.908 1.534-5.908 3.42 0 1.885 2.648 3.418 5.908 3.418 3.256 0 5.91-1.533 5.91-3.418 0-1.886-2.654-3.42-5.91-3.42m-9.75 3.42c0-3.179 4.373-5.763 9.75-5.763 5.375 0 9.75 2.584 9.75 5.763 0 1.299-.754 2.565-2.12 3.58h2.025v2.615h-7.764v1.536h-3.62v-1.536h-7.928v-2.615h2.028c-1.365-1.015-2.121-2.281-2.121-3.58" style="fill:#231f20;fill-opacity:1;fill-rule:evenodd;stroke:none" transform="matrix(.74633 0 0 -.74633 -21.42 413.407)"/><path d="M122.19 493.99c0-7.102-3.729-20.982-6.093-35.53-1.486-9.185-4.273-21.763-1.96-33.598.817-4.186 2.347-8.08 5.103-11.64 7.155-9.225 17.38-14.083 26.03-15.956 31.706-8.903 50.854 6.602 56.596 11.99 14.509 13.604 16.324 32.067 17.474 36.117 1.085 3.799 11.067 68.033 11.067 68.033h-55.124s21.473-47.303 17.584-80.998c-3.287-28.489-18.714-38.282-31.595-34.503l.039.045s-15.156 3.372-9.225 32.197c1.518 7.39 13.889 83.259 13.889 83.259H112.712c8.796-6.095 9.477-12.306 9.477-19.415z" style="fill:#1da7e7;fill-opacity:1;fill-rule:evenodd;stroke:none" transform="matrix(.74633 0 0 -.74633 -21.42 413.407)"/><path d="M138.216 454.488c0 7.106 3.727 20.985 6.085 35.536 1.486 9.183 4.263 21.77 1.958 33.592-.821 4.19-2.351 8.088-5.097 11.648-7.151 9.22-17.377 14.082-26.031 15.952-31.724 8.909-50.872-6.598-56.615-11.986-14.51-13.605-16.32-32.07-17.477-36.118-1.079-3.795-11.063-68.03-11.063-68.03h55.12s-21.47 47.296-17.581 80.999c3.285 28.485 18.721 38.278 31.592 34.496l-.032-.05s15.162-3.361 9.228-32.193c-1.52-7.386-13.892-83.251-13.892-83.251h53.263c-8.773 6.09-9.458 12.306-9.458 19.405z" style="fill:#ee1a97;fill-opacity:1;fill-rule:nonzero;stroke:none" transform="matrix(.74633 0 0 -.74633 -21.42 413.407)"/></svg>