<svg xmlns="http://www.w3.org/2000/svg" width="189.33354mm" height="189.33185mm" viewBox="0 0 189.33354 189.33185"><path d="M99.06 109.584c0 15.852-12.85 28.703-28.701 28.703-15.852 0-28.702-12.85-28.702-28.703 0-15.85 12.85-28.701 28.702-28.701 15.851 0 28.7 12.85 28.7 28.701z" style="fill:#996549;fill-opacity:1;fill-rule:nonzero;stroke:none;stroke-width:.352778" transform="translate(-132.745 -259.532) scale(3.23218)"/><path d="M42.245 109.584c0-15.502 12.61-28.114 28.114-28.114 15.502 0 28.113 12.612 28.113 28.114 0 15.503-12.61 28.116-28.113 28.116s-28.114-12.613-28.114-28.116zm-1.175 0c0 16.151 13.139 29.29 29.289 29.29 16.149 0 29.288-13.139 29.288-29.29 0-16.15-13.139-29.288-29.288-29.288-16.15 0-29.29 13.138-29.29 29.288z" style="fill:#231f20;fill-opacity:1;fill-rule:nonzero;stroke:none;stroke-width:.352778" transform="translate(-132.745 -259.532) scale(3.23218)"/><path d="M88.955 109.499c0 10.256-8.315 18.572-18.573 18.572-10.258 0-18.572-8.316-18.572-18.572 0-10.258 8.314-18.574 18.572-18.574s18.573 8.316 18.573 18.574z" style="fill:#fff;fill-opacity:1;fill-rule:nonzero;stroke:none;stroke-width:.352778" transform="translate(-132.745 -259.532) scale(3.23218)"/><path d="M52.377 109.499c0-9.928 8.077-18.006 18.005-18.006 9.928 0 18.005 8.078 18.005 18.006 0 9.927-8.077 18.004-18.005 18.004-9.928 0-18.005-8.077-18.005-18.004zm-1.135 0c0 10.554 8.587 19.14 19.14 19.14 10.554 0 19.14-8.586 19.14-19.14 0-10.555-8.586-19.142-19.14-19.142-10.553 0-19.14 8.587-19.14 19.142z" style="fill:#231f20;fill-opacity:1;fill-rule:nonzero;stroke:none;stroke-width:.352778" transform="translate(-132.745 -259.532) scale(3.23218)"/><path d="m63.072 107.953-.364-3.03-3.592 11.716h7.194l2.539-8.28c-3.16-.695-5.747-.41-5.777-.406zM69.805 105.24l1.702-5.549h-7.194l-1.541 5.024c.548-.055 3.49-.3 7.033.526zM78.593 109.981l3.154-10.29h-7.193l-1.964 6.406c1.976.77 4.114 1.982 6.003 3.884zM71.634 109.216l-2.276 7.423h7.193l.92-3.001c-1.471-1.965-3.421-3.444-5.837-4.422z" style="fill:#a80350;fill-opacity:1;fill-rule:nonzero;stroke:none;stroke-width:.352778" transform="translate(-132.745 -259.532) scale(3.23218)"/><path d="M65.717 120.714v4.053h-1.013v-2.17c0-.312-.007-.5-.022-.564a.209.209 0 0 0-.125-.144c-.067-.032-.217-.049-.451-.049h-.1v-.474c.49-.106.86-.323 1.114-.652h.597zM68.145 122.432c0 .17.022.277.065.318.045.04.09.06.137.06.07 0 .12-.025.153-.077.033-.051.048-.152.048-.301v-.74c0-.179-.015-.297-.046-.353-.03-.056-.081-.083-.153-.083-.043 0-.088.022-.135.065-.046.042-.069.158-.069.347v.764zm-1.011 1.263h1.011c0 .188.004.307.007.356.006.049.025.09.062.124.035.033.083.05.145.05a.178.178 0 0 0 .128-.048.191.191 0 0 0 .055-.122c.005-.05.006-.152.006-.303v-.647a.523.523 0 0 1-.224.245.793.793 0 0 1-.373.08.827.827 0 0 1-.49-.15.654.654 0 0 1-.27-.36c-.039-.141-.057-.332-.057-.57v-.324c0-.284.011-.495.033-.633a.825.825 0 0 1 .174-.385.915.915 0 0 1 .389-.275c.164-.064.356-.097.575-.097.27 0 .492.038.666.113a.904.904 0 0 1 .402.324c.095.14.15.29.165.443.015.156.022.456.022.901v.564c0 .481-.006.804-.02.967a.927.927 0 0 1-.174.462.937.937 0 0 1-.416.326 1.574 1.574 0 0 1-.609.11c-.284 0-.518-.046-.699-.138a.826.826 0 0 1-.39-.386 1.451 1.451 0 0 1-.118-.627zM72.716 120.714v.884l-.645 3.169h-1.005l.72-3.324h-1.003v-.729h1.933zM75.638 120.714v4.053h-1.012v-2.17c0-.312-.007-.5-.023-.564a.21.21 0 0 0-.123-.144c-.068-.032-.219-.049-.452-.049h-.1v-.474c.489-.106.86-.323 1.114-.652h.597zM48.35 119.882l.297.617c.121-.057.46-.222.582-.28l-.297-.617.939-.452s.254.526.318.662l.624-.3c-.075-.153-.639-1.325-.712-1.476l-3.824 1.84c.073.155.669 1.391.743 1.546l.623-.3-.351-.73 1.057-.51zM52.543 122.468c-.008-.232-.1-.476-.272-.721-.173-.248-.376-.408-.6-.478-.227-.069-.42-.072-.58-.007-.175.071-.434.228-.773.466l-1.076.755-.531.41a1.042 1.042 0 0 0-.243.347.927.927 0 0 0-.067.452c.014.166.07.32.165.454a.759.759 0 0 0 .274.238c.247.132.508.124.508.124l-.21.29.296.422 1.78-1.25-.622-.885c-.098.069-.29.205-.39.273.036.049.127.18.127.18l-.51.358c-.313.213-.4.217-.4.217a.263.263 0 0 1-.285-.112c-.066-.094-.068-.196-.006-.287 0 0 .026-.06.326-.28l1.738-1.22c.26-.182.35-.219.4-.23a.237.237 0 0 1 .25.109c.067.096.07.203.003.29 0 0-.104.14-.642.495l.517.737.075-.053c.287-.201.489-.381.6-.534.106-.143.154-.333.148-.56zM58.935 129.953l-.459-.26.781-1.38-.787-.445c-.092.164-1.993 3.528-2.086 3.69.13.075.656.372.787.445l.916-1.622.46.26-.918 1.621.787.445 2.085-3.69-.785-.445-.781 1.38zM62.059 132.238l.641.235.223-.606-.642-.235.358-.979.689.254.237-.649c-.16-.057-1.379-.505-1.537-.563-.065.177-1.394 3.806-1.457 3.982l1.606.588.238-.648-.76-.279.404-1.1zM69.697 131.304c-.15-.006-.754-.028-.902-.035-.008.188-.157 4.05-.163 4.239l1.572.06.027-.69c-.144-.007-.67-.025-.67-.025l.136-3.549zM71.333 132.01l.651-.06.323 3.542.901-.082-.323-3.543.65-.06-.063-.688c-.176.017-2.026.185-2.202.203l.063.688zM76.701 132.052l-.51.135-.408-1.535-.874.232c.048.181 1.042 3.924 1.088 4.103l.876-.231-.479-1.803.51-.136.478 1.804c.145-.039.73-.194.875-.231l-1.09-4.106-.874.232.408 1.536zM82.205 128.015c-.229-.005-.478.07-.742.226-.191.112-.344.25-.45.404a.957.957 0 0 0-.11.92l.334.627.661 1.12c.215.366.407.625.568.77a.78.78 0 0 0 .55.2c.225 0 .47-.078.733-.234.25-.147.426-.329.525-.542.098-.212.13-.407.09-.58-.043-.189-.18-.48-.407-.865l-.038-.063c-.128.077-.65.384-.78.461l.235.395c.175.297.206.402.217.455.018.113-.03.209-.137.27-.15.088-.255.031-.305-.011 0 0-.082-.057-.268-.373-.061-.104-.978-1.659-1.052-1.782-.21-.353-.205-.427-.205-.427-.015-.066-.013-.19.143-.28.14-.084.237-.035.287-.001.1.064.27.373.27.373l.342.579.78-.46a36.751 36.751 0 0 0-.163-.278c-.205-.347-.383-.588-.531-.715a.839.839 0 0 0-.547-.188zM86.943 128.198c.276.329.314.42.315.42a.236.236 0 0 1-.067.289c-.088.074-.189.085-.28.03 0 0-.063-.023-.357-.363a647.901 647.901 0 0 0-1.344-1.575c-.212-.247-.25-.335-.257-.392a.25.25 0 0 1 .088-.228.237.237 0 0 1 .27-.031c.118.067.309.302.309.302s1.147 1.34 1.323 1.548zm-1.257-2.539a.92.92 0 0 0-.503.016 1.392 1.392 0 0 0-.502.287c-.17.145-.295.302-.372.468a.904.904 0 0 0-.087.492c.019.169.076.324.17.463l.586.732.493.576c.55.64.638.699.638.7.123.114.27.191.435.234a.915.915 0 0 0 .504-.015c.174-.054.343-.153.504-.29.169-.142.292-.299.37-.466a.913.913 0 0 0 .085-.492.989.989 0 0 0-.171-.462l-.585-.73-.491-.578-.64-.699a.991.991 0 0 0-.434-.235zM87.356 123.386l-.586.689L90 126.823l1.021-1.198-.526-.448-.435.51s-2.558-2.178-2.703-2.3zM89.156 120.915l-.486.764 3.579 2.277.845-1.33-.583-.37-.36.566-2.995-1.907zM92.754 119.21l.28-.625-.588-.265-.281.624-.951-.43.302-.669-.63-.284-.673 1.495 3.87 1.742.704-1.563-.63-.283-.333.738-1.07-.48zM95.942 111.65l-1.165-.116s.053-.534.066-.68l-.64-.064c-.016.146-.068.68-.068.68l-1.036-.103.073-.73c-.138-.014-.549-.054-.686-.069l-.162 1.628 4.215.42.17-1.702-.687-.069c-.014.154-.08.805-.08.805zM45.54 112.34c-.412.048-.535.027-.594.003-.11-.043-.173-.159-.195-.353l-.012-.101 3.1-.354.012.099c.022.195-.014.322-.11.387-.053.038-.167.086-.581.134l-1.62.185zm2.814.38a.658.658 0 0 0 .105-.3l-.023-.569-.146-1.275c-.186.02-2.08.238-2.266.259l-1.941.222.147 1.277.106.558a.646.646 0 0 0 .169.269c.07.066.164.107.281.123.129.02.388.006.773-.037l1.324-.154.22-.023.243-.03c.387-.043.643-.089.764-.136a.517.517 0 0 0 .244-.183zM46.358 115.985l1.953-.344.055.189-1.823.777-.185-.622zm2.616-1.201-4.217.682.249.841.784-.14.178.598-.732.313.25.84 3.905-1.735-.417-1.4zM65.244 133.638l.598-1.889.195.038-.157 1.975-.636-.124zm.148-2.874-1.35 4.052.86.168.24-.759.614.12-.064.792.86.168.271-4.262-1.43-.28zM55.658 125.737l-.639-.64c-.133.135-2.28 2.282-2.28 2.284-.225.228-.314.263-.314.263a.215.215 0 0 1-.2-.006c-.003-.002-.007-.005-.011-.006 0-.002-.004-.002-.004-.003-.004-.002-.007-.006-.01-.01l-.004-.001a.57.57 0 0 1-.116-.117l-.004-.002a.045.045 0 0 1-.008-.011l-.003-.003c-.004-.003-.004-.008-.007-.012a.21.21 0 0 1-.006-.2l2.542-2.595c-.105-.106-.533-.533-.638-.64-.13.132-1.784 1.786-1.786 1.789-.356.351-.67.707-.67.707a.878.878 0 0 0-.175.391.93.93 0 0 0 .061.496c.07.185.191.363.359.531.168.167.345.288.53.358a.935.935 0 0 0 .496.06.885.885 0 0 0 .392-.175s.354-.313.707-.671l1.785-1.787zM92.027 114.317c-.173.157-.3.381-.377.674-.08.292-.071.551.02.769.092.218.216.37.368.45.167.087.455.186.856.293l1.275.34.657.143c.14.017.281.005.423-.037a.928.928 0 0 0 .39-.24.912.912 0 0 0 .243-.42.77.77 0 0 0 .005-.364c-.058-.275-.233-.47-.233-.47s.27-.02.36-.024l.133-.501c-.17-.045-1.938-.516-2.108-.56l-.279 1.046.46.123.057-.212.604.162c.365.102.425.164.425.164a.26.26 0 0 1 .097.292c-.03.111-.106.18-.215.19 0 0-.063.02-.425-.07l-2.058-.548c-.309-.08-.394-.128-.435-.16-.078-.062-.107-.153-.078-.26.03-.115.11-.185.22-.19 0 0 .173-.01.795.174l.233-.87-.09-.025c-.34-.091-.607-.13-.798-.117-.176.012-.354.095-.525.248z" style="fill:#231f20;fill-opacity:1;fill-rule:nonzero;stroke:none;stroke-width:.352778" transform="translate(-132.745 -259.532) scale(3.23218)"/><path d="M60.52 88.137c-.044-.115-.375-.977-.42-1.091l2.629-1.013.42 1.091-2.629 1.013zm2.304.911c-.042-.113-.313-.816-.356-.929l1.674-.646-1.312-3.408-.044.015-.68.263.417 1.085-2.627 1.012-.419-1.086-.726.28 1.312 3.41 1.68-.647.358.93-2.325.895.234.616 5.38-2.072-.234-.616s-2.191.845-2.332.898zM47.464 97.043l1.338.543-.297.728c-.76-.308-1.337-.544-1.337-.544l-.293.718 2.64 1.073-1.018 2.5-2.022-.822.71-1.748-.609-.247-1.004 2.466 3.24 1.32 1.31-3.22 1.679.682.291-.718-2.978-1.212.297-.728 2.983 1.213.291-.718-4.927-2.004-.294.718zM82.897 86.495l-.732 1.243c-.207-.12-.479-.28-.679-.398.417-.707.732-1.245.732-1.245l-.668-.392-1.442 2.457-2.328-1.368 1.107-1.883 1.626.957.334-.569-2.298-1.349-1.772 3.018 2.998 1.76-.918 1.563.669.393 1.628-2.775.678.4-1.631 2.776.667.39 2.696-4.585-.667-.393zM89.775 95.341l.5-.43-.656-.763 1.184-1.016-.507-.59-3.059 2.626-2.07-2.412-.499.43 2.068 2.409h.004l-1.316 1.129.505.59 1.813-1.558 1.377-1.181.657.766z" style="fill:#fff;fill-opacity:1;fill-rule:nonzero;stroke:none;stroke-width:.352778" transform="translate(-132.745 -259.532) scale(3.23218)"/><path d="M86.392 91.025a.959.959 0 1 1 1.248 1.456.959.959 0 0 1-1.248-1.456zm1.713 1.995c.404-.346.6-.843.58-1.336l.674.785.5-.43-1.09-1.271.441-.379-.508-.59-.44.378-1.096-1.277-.502.43.674.785a1.67 1.67 0 1 0 .766 2.905zM55.92 91.439l-2.049-2.115-3.023 2.932.458.474 2.466-2.392 1.591 1.643-.371.36-.477.462-.667.649-.478.461-.967.937.459.474 1.771-1.718 1.193 1.229.556-.54-1.19-1.23 1.908-1.851-.459-.474-.72.699zM69.822 86.887l-.776-.007-.024 2.393 4.006.039.008-.658-3.232-.033.018-1.734zM72.21 82.86l-.013 1.269-1.273-.011c.235-.659.224-1.205.224-1.205l-3.099-.03-.006.658 2.144.02.042.001c-.209 1.793-2.482 2.224-2.482 2.224l.447.523c1.233-.221 2.007-.853 2.402-1.535l1.595.015-.024 2.454.774.009.043-4.385-.774-.007zM91.92 103.68l3.238-1.579v.001l.61-.297-1.972-4.049-.61.298 1.622 3.33-3.24 1.578-.387-.796 1.499-.73-.35-.718-1.499.73-.33-.679 1.498-.73-.35-.718-1.499.73-.48-.984-.61.298 2.603 5.34.61-.298-.354-.728z" style="fill:#fff;fill-opacity:1;fill-rule:nonzero;stroke:none;stroke-width:.352778" transform="translate(-132.745 -259.532) scale(3.23218)"/></svg>