<svg xmlns="http://www.w3.org/2000/svg" id="_레이어_1" viewBox="0 0 327.3 329.72"><defs><style>.cls-1{fill:#052372;stroke-width:0}</style></defs><path d="M163.65 329.72C73.41 329.72 0 255.76 0 164.86S73.41 0 163.65 0 327.3 73.96 327.3 164.86s-73.41 164.86-163.65 164.86Zm0-324.99C76 4.74 4.7 76.57 4.7 164.86S76 324.98 163.65 324.98 322.6 253.15 322.6 164.86 251.29 4.74 163.65 4.74Z" class="cls-1"/><path d="M163.65 322.11c-86.07 0-156.09-70.54-156.09-157.25S77.58 7.62 163.65 7.62s156.09 70.54 156.09 157.25-70.02 157.25-156.09 157.25Zm0-312.52C78.66 9.58 9.51 79.24 9.51 164.86s69.15 155.28 154.14 155.28 154.14-69.66 154.14-155.28S248.64 9.58 163.65 9.58Z" class="cls-1"/><path d="M118.94 225.07h3.45l-1.75-4.74-1.7 4.74zM201.17 219.07c-1.03-.02-1.03.29-1.02 1.44v2.87h.92c.98 0 2.43-.29 2.42-2.07 0-1.75-.99-2.22-2.32-2.22ZM224.82 219.04c-1.04.03-1.06.31-1.04 1.46v2.88h.88c1.06 0 2.52-.3 2.52-2.09-.01-1.74-1.02-2.22-2.35-2.25ZM131.25 219.04c-1.11 0-1.1.31-1.1 1.46v2.88h.93c1-.01 2.47-.3 2.47-2.07 0-1.77-.99-2.26-2.29-2.26Z" class="cls-1"/><path d="M163.94 50.6c-39.61 28.72-92.69 110.97-97.5 175.92 22.34 13.7 71.35 19.33 97.51 19.36 26.18 0 75.12-5.67 97.45-19.36-4.78-64.93-57.9-147.21-97.46-175.92ZM98.61 229.13l-1.17-3.33h-4.1l-1.19 3.33h-.95l3.11-8.77c.08-.23.32-.82.34-.97-.01-.61-.64-.61-1.29-.71v-.4l3.01.01 3.9 10.81-1.67.02Zm14.99 0h-1.58l-.03-9.58-3.38 9.57h-1.1l-3.31-9.49h-.07v9.49h-1l.03-8.77c-.03-1.46-.21-1.39-1.58-1.67l-.02-.4 3.6-.02 3.15 8.89 3.14-8.89h2.17l-.02 10.85Zm10.26 0-1.15-3.34h-4.09l-1.15 3.34h-1.05l3.22-8.74c.05-.28.24-.83.24-.99 0-.62-.57-.61-1.22-.72l.02-.38h2.99l3.95 10.83h-1.76Zm10.08 0-2.77-5.03h-1.02v5.03h-1.77l.02-8.64c0-1.59-.05-1.59-1.5-1.81l.03-.4h3.87c1.2 0 4.54.01 4.55 2.92-.02 1.84-1.23 2.45-2.46 2.64l2.91 5.29h-1.85Zm11.27-.02-6.38.02v-8.64c-.01-1.59-.06-1.59-1.49-1.81v-.4l7.61.02.06 2.38h-.45c0-1.28-.74-1.62-1.74-1.63h-1.24c-.78.03-.98.11-.99.84v3.2h1.92c1.08-.01 1.17-.71 1.29-1.21h.45v3.4h-.47c.02-.92-.31-1.43-1.28-1.44h-1.91v3.59c0 .91.19.95.97.95h1.81c.86-.03 1.28-.33 1.4-1.57h.45l-.02 2.29Zm38.75.2c-1.21.03-2.45-.32-2.76-.45v-1.29c.49.29 1.73.97 3.04.98.99-.01 2.02-.42 2.01-1.87 0-2.61-5.25-2.39-5.25-5.78 0-1.74 1.37-2.76 3.61-2.76 1.12 0 2.12.2 2.57.29v1.18c-.44-.22-1.62-.7-2.84-.7-.89-.02-1.53.47-1.53 1.55 0 2.47 5.14 2.22 5.14 5.64 0 2.35-1.79 3.21-4 3.2Zm12.16-.18h-6.33v-8.64c0-1.57-.09-1.57-1.51-1.81v-.4l7.6.02.08 2.38-.47.02c0-1.29-.7-1.62-1.72-1.62l-1.28-.02c-.77 0-1 .12-.99.86v3.17h1.94c1.12 0 1.26-.71 1.34-1.19h.44v3.39h-.44c0-.92-.36-1.43-1.33-1.43h-1.94v3.58c0 .91.23.95.99.92h1.78c.93.02 1.31-.32 1.48-1.54h.36v2.31Zm7.81-.02-2.85-5h-.94v5.02h-1.76v-8.64c0-1.59-.04-1.59-1.52-1.81v-.4h3.92c1.21 0 4.55.01 4.52 2.92 0 1.84-1.2 2.46-2.49 2.63l2.96 5.3-1.84-.02Zm7.84.02-1.39-.02-3.12-8.75c-.5-1.47-.65-1.46-1.93-1.68v-.38l3.1-.01 3.13 8.82h.03l3-8.81h1.07l-3.89 10.83Zm7.43 0h-1.81v-8.69c0-1.34-.01-1.39-1.54-1.55l-.02-.37 3.36-.37v10.98Zm8.35 0-2.8-5.03-.98-.02-.02 5.04h-1.76v-8.64q-.02-1.59-1.53-1.81v-.38h3.94c1.21-.01 4.53-.01 4.53 2.91 0 1.83-1.23 2.45-2.47 2.64l2.93 5.29h-1.86Zm9.96 0-6.33-.02v-8.61c0-1.6-.07-1.58-1.52-1.82l-.02-.38 7.62-.02.03 2.39h-.41c0-1.28-.68-1.63-1.73-1.63h-1.26c-.77.03-1 .11-.97.85l-.04 3.19 2 .02c1.04-.02 1.19-.73 1.26-1.22h.45v3.4h-.45c0-.89-.35-1.42-1.28-1.41h-1.95l-.03 3.57c.03.91.24.95 1.01.95h1.75c.96-.01 1.39-.33 1.46-1.57h.43l-.02 2.31Zm-61.07-61.27c1.12.53 24.19 11.61 24.19 11.61.03.06.05.11.05.15v.06c-.03.07-.09.14-.16.11 0 0-25.69-9.19-26.85-9.54.82.92 32.95 36.88 32.95 36.88.03.06.03.09.03.14 0 0 0 .07-.03.09 0 .06-.12.1-.2.02 0 0-35.78-32.37-36.67-33.21.43 1.16 9.51 27.07 9.51 27.07s0 .14-.04.16c-.16 0-.22-.02-.28-.07 0 0-11.03-23.33-11.54-24.42-.04 1.25-3.29 65.63-3.29 65.63 0 .09-.11.12-.17.12-.03 0-.17-.03-.17-.12 0 0-3.25-64.38-3.3-65.62-.53 1.14-11.54 24.41-11.54 24.41-.07.06-.14.08-.2.06-.05 0-.1-.1-.08-.14s9.01-25.91 9.47-27.07c-.89.83-36.62 33.2-36.62 33.2-.14.07-.16.07-.24.02-.05-.03-.05-.09-.05-.1 0-.03 0-.09.05-.16 0 0 32.14-35.95 32.98-36.86-1.15.35-26.87 9.53-26.87 9.53-.05.03-.14-.03-.2-.11v-.06c0-.06 0-.1.06-.15 0 0 23.09-11.06 24.2-11.61-1.31-.05-65.65-3.34-65.65-3.34-.06 0-.14-.1-.14-.17 0-.09.09-.14.13-.14 0 0 64.35-3.29 65.64-3.36-1.09-.51-24.19-11.62-24.19-11.62-.05-.03-.05-.07-.05-.13v-.09c.04-.06.13-.12.19-.09 0 0 25.69 9.13 26.86 9.52-.81-.87-32.95-36.88-32.95-36.88-.08-.03-.08-.06-.05-.13 0-.02 0-.05.05-.09.08-.11.13-.11.23 0 0 0 35.73 32.39 36.64 33.17-.48-1.11-9.5-27.02-9.5-27.02v-.03s.03-.12.08-.16c.08 0 .14 0 .21.12 0 0 10.78 22.76 11.27 23.92.12-1.35 3.57-93.75 3.57-93.75 0-.1.12-.22.17-.22.08 0 .19.11.16.2 0 0 3.45 92.43 3.54 93.75.51-1.15 11.3-23.93 11.3-23.93.06-.1.11-.1.27-.1.04.04.04.09.04.16v.06s-9.09 25.9-9.53 27.01c.92-.8 36.66-33.18 36.66-33.18.08-.09.23-.02.23 0 .03.04.03.08.03.09 0 .07 0 .09-.03.11 0 0-32.14 36.01-32.96 36.9 1.18-.4 26.84-9.53 26.84-9.53.11-.03.16.04.2.09v.03c0 .12-.04.17-.05.19 0 0-23.1 11.1-24.2 11.62 1.24.07 65.6 3.36 65.6 3.36.11-.02.18.04.18.11 0 .09-.07.21-.17.19 0 0-64.34 3.29-65.61 3.36Z" class="cls-1"/><path d="m93.62 225.06 3.52.01-1.84-4.74-1.68 4.73zM68.75 259.92c.8 4.28 3.11 8.4 6.81 11.51 3.65 3.04 8.1 4.6 12.46 4.61-.83-4.29-3.1-8.46-6.8-11.51a19.162 19.162 0 0 0-12.48-4.61ZM154.24 299.39c-1.81-5.14-5.02-9.82-9.68-13.33-4.69-3.49-10-5.33-15.36-5.65 1.76 5.13 5.01 9.79 9.67 13.33 2.38 1.74 4.88 3.08 7.52 4.02-2.8-.14-5.7.14-8.5.86a28.145 28.145 0 0 0-14.03 8.5 27.983 27.983 0 0 0 16.35.76c5.6-1.43 10.45-4.47 14.02-8.49Z" class="cls-1"/><path d="M130.32 295.42c-.82-5.38-3.22-10.54-7.1-14.83a28.685 28.685 0 0 0-14.18-8.33c.79 5.39 3.23 10.57 7.18 14.86 1.97 2.14 4.24 3.93 6.66 5.33-2.7-.63-5.52-.92-8.52-.72-5.77.4-11 2.53-15.29 5.84 4.68 2.71 10.16 4.12 15.94 3.71a27.81 27.81 0 0 0 15.3-5.84v-.02Z" class="cls-1"/><path d="M107.55 287.28c.11-5.47-1.29-10.96-4.41-15.89-3.12-4.91-7.51-8.58-12.42-10.74a28.253 28.253 0 0 0 4.4 15.87c1.58 2.47 3.48 4.63 5.62 6.45-2.6-1.16-5.33-1.93-8.23-2.22-5.78-.69-11.37.51-16.16 2.99 4.18 3.51 9.29 5.89 15.05 6.51 5.79.66 11.33-.49 16.14-2.97ZM259.15 259.91c-.82 4.29-3.13 8.41-6.79 11.49-3.65 3.07-8.12 4.62-12.44 4.66.81-4.31 3.1-8.48 6.76-11.55 3.64-3.1 8.13-4.61 12.47-4.61ZM173.62 299.39c1.84-5.13 5-9.82 9.71-13.33a28.102 28.102 0 0 1 15.4-5.66 28.513 28.513 0 0 1-9.66 13.33 30.348 30.348 0 0 1-7.56 4.03c2.82-.14 5.64.12 8.49.85 5.61 1.41 10.39 4.49 14.04 8.52-5.06 1.82-10.74 2.16-16.37.75a28.189 28.189 0 0 1-14.05-8.49Z" class="cls-1"/><path d="M197.5 295.42c.88-5.37 3.27-10.53 7.2-14.83 3.98-4.27 8.87-7.04 14.09-8.33-.8 5.39-3.22 10.57-7.15 14.86-1.96 2.16-4.23 3.91-6.61 5.33 2.66-.63 5.54-.92 8.46-.71 5.81.4 11.05 2.52 15.33 5.83-4.71 2.71-10.2 4.15-15.96 3.71-5.79-.38-11.07-2.53-15.37-5.85Z" class="cls-1"/><path d="M220.32 287.26a28.52 28.52 0 0 1 4.43-15.87c3.11-4.91 7.49-8.58 12.43-10.77.15 5.45-1.3 10.94-4.45 15.9-1.54 2.45-3.46 4.63-5.55 6.45 2.55-1.18 5.31-1.93 8.22-2.2 5.73-.71 11.28.49 16.14 2.98-4.19 3.49-9.29 5.87-15.05 6.49-5.79.65-11.33-.49-16.15-2.98ZM167.84 299.74c0 2.19-1.74 3.91-3.9 3.91s-3.92-1.74-3.92-3.92c0-2.17 1.74-3.93 3.92-3.93 2.17 0 3.87 1.77 3.9 3.94ZM241.17 58.61c-2.17 3.55-4.68 7.04-10.72 3.37-4.7-2.85-5.1-6.13-2.66-10.14l5.15-8.62c1.35-2.28 1.27-2.34-1.12-4.27l.4-.6 5.92 2.84-6.61 11.12c-1.86 3.05-3.8 6.27 0 8.63 4.11 2.45 5.89-.52 7.48-3.24l6.9-11.43 1.88 1.17-6.64 11.17ZM255.58 59.79c2.03-2.18 1.61-2.34.08-4.64l.47-.48 4.74 4.61-4.79 19.17.04.06 11.82-12.29 1.42 1.38-14.61 15.2-2.14-2.16 4.97-20.04-.09-.03-12.33 12.83-1.42-1.4 11.85-12.23ZM274.52 80.09c2.09-1.64 2.05-1.73.47-4.34l.52-.45 4.63 4.78-16.79 13.27-2.09-2.73L274.5 80.1ZM283.81 93.9c2.03-2.26 1.87-2.52 1.09-4.95l.63-.32 2.89 5.37-12.09 13.65v.03l17.89-2.95.99 1.77-22.11 3.4-1.28-2.43L283.8 93.9ZM295.89 120.62c2.93-.99 2.91-1.09 2.53-3.99l.66-.19 4.36 14.39-4.39 1.51-.22-.89c2.39-.75 2.61-2.17 2.02-4.19l-.71-2.3c-.44-1.53-.69-1.92-2.15-1.44l-5.92 1.87 1.11 3.56c.63 2.09 2 1.86 3.02 1.83l.28.81-6.27 1.9-.23-.81c1.6-.51 2.37-1.45 1.78-3.24l-1.07-3.67-6.66 2.05c-1.67.53-1.59.94-1.15 2.49l1.01 3.29c.54 1.67 1.38 2.32 3.73 1.75l.27.88-4.36 1.28-3.59-12.01 15.97-4.88ZM302.29 150.79c2.24-.25 2.81-.23 3 1.87.19 2.63-.55 4.65-3.94 4.93-3.45.24-4.25-2.54-4.46-4.55l-.15-1.78 5.55-.47Zm-16.93-2.02.29 3.46 9.67-.82.16 1.9-9.19 6.35.26 3.63 9.76-6.63c.63 2.45 2.03 4.69 5.57 4.34 5.55-.46 5.02-6.89 4.78-9.29l-.61-7.69-.73.05c-.22 2.99-.2 3.01-3.27 3.3l-16.69 1.41ZM303.58 187.42c.47-.83 1.69-3.08 1.92-5.46.16-1.67-.64-3.13-2.71-3.37-4.73-.49-5.36 9.73-12.02 9.05-4.42-.5-5.76-4.18-5.26-8.49.24-2.42 1.15-4.78 1.33-5.42l2.54.3c-.68.87-2.22 3.27-2.48 5.74-.23 1.97.4 4.02 3.2 4.29 5.05.54 5.62-9.69 12.18-8.96 3.42.37 5.1 3.17 4.64 7.57-.25 2.16-.85 4.18-1.08 4.97l-2.26-.23ZM299.02 200.31c2.51.65 2.55.61 3.78-2.2l.63.14-1.01 6.57-20.56-5.66.88-3.37 16.28 4.52ZM294.64 221.68l.93-1.96c1-2.26.6-3.24-1.4-4.39l.37-.81 4.05 2.04-6.7 14.64-4.22-1.84.38-.84c2.17 1.01 3.26.43 4.28-1.81l.91-1.88-17.77-8.2 1.45-3.2 17.73 8.26ZM273.24 241.21l9.79.63c2.15.15 2.58-.49 3.66-1.65l.58.43-3.32 4.81-10.56-.92 4.44 9.83-1.13 1.66-5.39-11.94-8.07-5.67 1.97-2.79 8.04 5.62ZM60.78 98.34c-.21.77-1.01 3.39-2.8 5.91-3.67 5.27-8.45 4.9-14.09.82-4.75-3.38-7.68-7.63-3.66-13.3 2.84-4.04 5.7-4.35 7.9-3.19l-2.2 3.11c-.93-.51-2.99-1.18-4.65 1.16-2.46 3.5 1.31 7.06 3.95 8.93 2.86 2.04 8.65 5.76 12.14.83 1.57-2.28 1.8-4.39 1.78-5.41l1.63 1.13ZM58.7 74.09l9.19 3.39-4.52 5.2-4.67-8.58Zm7.49 17.5 1.23-1.47-3.31-6.09 5.27-6.02 6.41 2.59 2.14-2.48-20.79-8.18-3.89 4.46.55.42c.92-.84 1.7-1.69 2.66-.85.16.18.72 1.12 1.06 1.58l8.69 16.04ZM74.57 54.89l-1.7 1.38c-1.89 1.53-1.97 2.57-.74 4.51l-.69.58-2.68-3.7 12.53-9.96 2.93 3.57-.69.57c-1.46-1.87-2.69-1.82-4.61-.36l-1.67 1.31 12.08 15.45-2.7 2.17-12.08-15.52ZM94.31 44.14c-1.13-2.23-1.42-2.47-4.1-1.36l-.32-.67 5.54-3.55 4.31 8.68 7.57-3.79-4.19-8.46 3.11-1.53 9.38 18.95-3.1 1.56-4.5-9.2-7.63 3.86 4.58 9.11-3.1 1.59-7.56-15.18ZM125.03 37.43c-.95-4.14-1.83-9.35 2.85-10.52 4.63-1.08 6.17 4.1 7.09 8.11.96 3.93 2.01 9.18-2.7 10.28-4.62 1.1-6.31-4.11-7.24-7.86Zm7.55 9.29c6.36-1.48 7.27-6.01 5.73-12.5-1.51-6.57-4.43-10.25-10.76-8.74-6.57 1.59-7.42 6.17-5.84 12.76 1.56 6.56 4.48 10.05 10.87 8.47ZM150.72 25.7c-.14-2.65-.21-2.65-3.28-2.94l-.03-.67 6.5-1.12.99 17.71q.12 2.32 2.19 2.2l2.71-.11c1.92-.14 3.7-.39 3.51-3.28l.87-.05.13 4.56-12.64.71-.93-17.01ZM175.54 25.74c.22-2.62.11-2.69-2.83-3.34l.06-.66 6.53-.14-1.78 21.41-3.41-.31 1.43-16.95ZM202.14 47.11c-.82.12-3.47.25-6.47-.63-6.19-1.72-7.41-6.33-5.55-13.11 1.52-5.61 4.51-9.8 11.16-7.98 4.7 1.33 5.98 3.87 5.62 6.39l-3.63-1.01c.16-.99.09-3.25-2.68-4.01-4.1-1.16-6.12 3.68-6.97 6.82-.92 3.34-2.44 10.13 3.4 11.78 2.61.69 4.71.12 5.67-.19l-.55 1.94ZM51.49 249.16c-1.25.87-1.83.37-2.91-1.13-3.33-4.88-.82-7.39 3.74-10.58 5.17-3.64 8.11-4.13 11.39.49 1.2 1.81.49 2.31-.5 3l-11.73 8.22Zm16.56-7.41-2.61-3.84c-3.5-5-7.02-8.94-15.16-3.26-7.18 5.09-6.06 9.61-2.72 14.51l4.94 7.13.62-.38c-1.28-2.66-1.34-2.75 1.21-4.52l13.74-9.64ZM36.61 221.13l7.01-6.87 2.68 6.43-9.68.43Zm18.89.87-.77-1.76-6.9.34-3.04-7.34 5.02-4.71-1.24-3.02-16.37 15.28 2.26 5.43.68-.26c-.33-1.27-.81-2.32.36-2.82.22-.07 1.37-.18 1.89-.22L55.5 222ZM29.23 199.86c-2.98.63-2.94.74-2.85 3.68l-.64.14-3.08-14.74 4.47-1.02.24.83c-2.48.55-2.87 1.96-2.43 3.97l.55 2.4c.3 1.58.47 1.92 1.92 1.64l6.09-1.32-.76-3.71c-.45-2.13-1.88-2.03-2.86-2.03l-.22-.86 6.44-1.36.15.85c-1.66.35-2.51 1.27-2.13 3.09l.8 3.71 6.81-1.41c1.72-.4 1.72-.76 1.42-2.33l-.75-3.41c-.36-1.74-1.14-2.48-3.57-2.16l-.19-.82 4.44-.83 2.61 12.24-16.47 3.46ZM41.32 158.16c.35 1.38.92 4.38.64 7.18-.64 6.8-5.1 8.58-11.96 7.98-6.09-.6-10.24-2.91-9.65-9.8.44-4.64 2.75-6.47 5.2-6.49l-.3 3.75c-1.16 0-3.23.66-3.46 3.34-.44 4.46 4.77 5.39 8.8 5.74 5.1.46 9.53-.43 10.01-5.34.07-1.16-.02-2.02-.35-2.96l-6.25-.55c-2.8-.26-2.77.13-3.52 2.78h-.72l.59-6.59 10.96.97ZM37.86 130.77c4.03.89 8.17 2.19 6.63 9.11-1.13 5.39-4.14 6.82-8.62 5.82l-9.78-2.11c-2.53-.6-2.63-.52-3.67 2.39l-.65-.12.68-6.61 12.61 2.74c3.47.77 7.13 1.56 8.08-2.81 1.06-4.72-2.38-5.45-5.47-6.11l-12.92-2.83.48-2.22 12.63 2.76Z" class="cls-1"/></svg>