<svg xmlns="http://www.w3.org/2000/svg" width="172.15591mm" height="172.15327mm" viewBox="0 0 172.15591 172.15327"><path d="M241.737 173.717c0 12.808-10.383 23.19-23.19 23.19-12.807 0-23.19-10.382-23.19-23.19 0-12.808 10.383-23.19 23.19-23.19 12.807 0 23.19 10.382 23.19 23.19" style="fill:#393b7f;fill-opacity:1;fill-rule:nonzero;stroke:none;stroke-width:.352778" transform="matrix(3.71182 0 0 3.71182 -725.13 -558.73)"/><path d="M234.511 173.738c0 8.79-7.125 15.914-15.914 15.914s-15.915-7.124-15.915-15.914 7.126-15.914 15.915-15.914c8.789 0 15.914 7.124 15.914 15.914" style="fill:#fff;fill-opacity:1;fill-rule:nonzero;stroke:none;stroke-width:.352778" transform="matrix(3.71182 0 0 3.71182 -725.13 -558.73)"/><path d="M210.188 180.386h16.892v-3.61h3.611v-6.062h-3.611v-3.61h-16.892v3.61h-3.61v6.061h3.61zm18.052 1.16h-19.212v-3.61h-3.611v-8.383h3.61v-3.61h19.213v3.61h3.61v8.383h-3.61z" style="fill:#393b7f;fill-opacity:1;fill-rule:nonzero;stroke:none;stroke-width:.352778" transform="matrix(3.71182 0 0 3.71182 -725.13 -558.73)"/><path d="M227.055 176.75h-8.421v-1.161h7.26v-1.264h-15.682v-3.586h8.422v1.161h-7.26v1.265h15.681z" style="fill:#393b7f;fill-opacity:1;fill-rule:nonzero;stroke:none;stroke-width:.352778" transform="matrix(3.71182 0 0 3.71182 -725.13 -558.73)"/><path d="m201.612 160.562-.677.72 2.6 2.442 1.035-1.102-3.124-2.936.585-.623 1.606 1.51.439-.467-1.607-1.51.585-.622 4.046 3.802-.586.623-1.976-1.858-.438.466 1.976 1.859-.585.622-.472-.443-1.117 1.19c-.175.185-.348.28-.523.286-.157.005-.318-.07-.484-.226l-2.986-2.806 1.26-1.342zM209.737 158.198c-.143.182-.185.326-.123.432.062.107.207.142.436.107.258-.038.567-.161.925-.37.35-.202.605-.405.762-.608.147-.183.19-.328.129-.434-.063-.106-.21-.141-.441-.105-.253.04-.554.16-.903.363-.36.21-.621.414-.785.615m2.027-1.681c.415-.006.698.121.848.382.146.252.115.557-.096.915-.232.398-.641.766-1.227 1.106-.589.34-1.113.514-1.574.519-.411.003-.69-.122-.837-.376-.15-.26-.121-.568.086-.923.231-.396.642-.766 1.231-1.108.586-.34 1.108-.51 1.569-.515m-1.048-3.016-3.095 1.795.379.654 3.14-1.821.31.535-1.548.897.237.41 1.748-1.014.312.539-4.323 2.508-.313-.54 1.843-1.068-.237-.41-.984.57c-.206.121-.393.16-.559.119-.153-.041-.279-.148-.38-.321l-.674-1.163 3.834-2.224zM217.578 152.153l-.987.012.042 3.566 1.513-.019-.051-4.287.854-.01.026 2.204.64-.007-.026-2.204.854-.01.066 5.55-.854.011-.032-2.712-.64.008.032 2.712-.854.009-.007-.646-1.633.02c-.254.003-.444-.057-.567-.178-.115-.11-.172-.279-.175-.507l-.048-4.096 1.84-.022zM230.176 154.416l-.591 1.17.52.263-.287.566-.52-.263-.545 1.076-.762-.387 1.423-2.81zm-3.937-.337a.53.53 0 0 0-.357.285.569.569 0 0 0-.02.462c.071.192.217.342.436.454.22.112.43.14.63.085a.56.56 0 0 0 .37-.284.52.52 0 0 0 .007-.461c-.076-.182-.226-.33-.45-.442-.223-.114-.428-.145-.616-.099m.684-.941.161-.319.762.386-.161.32 1.05.53-.266.526-.782-.397c.282.252.438.515.466.793.025.254-.06.497-.254.732-.186.195-.435.309-.748.34-.355.035-.728-.046-1.119-.244-.395-.2-.682-.456-.861-.765-.155-.274-.209-.538-.162-.794.07-.297.212-.512.43-.643.24-.142.544-.173.914-.093l-.777-.395.266-.524zm1.663 4.419-.915 1.807-.762-.385.634-1.251-3.075-1.556.283-.557zM237.044 161.012l-1.536 1.449a8.655 8.655 0 0 1-.93.764c-.32.228-.64.423-.964.585l-.566-.6c.285-.142.56-.304.827-.487.28-.196.56-.425.836-.686l1.251-1.18-2.454-2.603.496-.467zm-3.492 3.641-3.389-3.594.446-.42.431.458 1.822-1.718.586.62-1.822 1.72.46.486 1.821-1.718.587.62-1.823 1.72 1.326 1.406z" style="fill:#fff;fill-opacity:1;fill-rule:nonzero;stroke:none;stroke-width:.352778" transform="matrix(3.71182 0 0 3.71182 -725.13 -558.73)"/><path d="M224.641 157.892a.06.06 0 0 0 0 .01l.003.001c0-.01 0-.005-.003-.01M224.248 158.09c-.017 0-.007-.006-.017.005l.014.008.003-.015" style="fill:#28294a;fill-opacity:1;fill-rule:nonzero;stroke:none;stroke-width:.352778" transform="matrix(3.71182 0 0 3.71182 -725.13 -558.73)"/><path d="m197.69 174.03.048.792c.018.304.175.522.47.654.243.116.554.162.932.14.525-.032.881-.16 1.07-.383.12-.144.174-.34.16-.59l-.047-.772zm3.275-1.002.103 1.722c.035.583-.162 1.024-.592 1.324-.32.22-.727.346-1.224.376-.543.032-1.005-.049-1.39-.245-.501-.254-.768-.666-.803-1.24l-.101-1.697zM199.21 178.826l.289.977 1.381-.926-.004-.015zm-1.6-.05-.244-.826 4.252.224.267.903-3.454 2.478-.25-.846.722-.484-.42-1.419zM203.4 183.766l-1.045-1.785-.733.43.957 1.635-.605.354-.958-1.635-.9.527 1.088 1.861-.61.357-1.494-2.554 3.463-2.028 1.452 2.478zM202.646 186.91l.555.568c.212.218.473.28.783.187.259-.072.524-.24.795-.505.376-.367.563-.696.56-.988-.004-.19-.092-.372-.266-.55l-.54-.554zm1.82-2.9 1.205 1.234c.408.418.548.88.418 1.389-.096.375-.322.737-.679 1.086-.388.379-.792.62-1.211.724-.545.135-1.017-.002-1.417-.412l-1.189-1.217zM206.412 190.335c.06.254.207.454.442.599a.93.93 0 0 0 .73.126c.33-.076.628-.326.89-.75.264-.427.357-.807.278-1.14a.934.934 0 0 0-.438-.597.937.937 0 0 0-.733-.128c-.331.08-.63.335-.894.76-.26.425-.354.802-.275 1.13m1.137-2.668c.395-.029.776.07 1.142.297.363.223.619.519.77.886.233.565.135 1.195-.294 1.888-.426.688-.944 1.055-1.553 1.1-.4.029-.78-.067-1.14-.29a1.863 1.863 0 0 1-.772-.893c-.23-.563-.132-1.19.293-1.877.43-.694.948-1.065 1.554-1.11M213.424 190.502l.705.28-1.484 3.731-.753-.299-.418-3.242-.014-.005-1.057 2.655-.709-.281 1.484-3.732.805.32.401 3.174.004.003zM216.624 192.995l1.63.207-.268 2.12-.726-.093.063-.5c-.017.14-.134.26-.35.36-.242.114-.53.15-.865.107-.502-.063-.895-.29-1.18-.681-.307-.425-.42-.963-.336-1.617.075-.589.287-1.055.637-1.396.396-.386.904-.54 1.524-.462.542.069.954.277 1.237.626.222.283.327.594.315.933l-.812-.103a.378.378 0 0 0-.036-.175.971.971 0 0 0-.129-.238 1.033 1.033 0 0 0-.246-.222.988.988 0 0 0-.376-.125 1.007 1.007 0 0 0-.819.232c-.256.222-.413.57-.474 1.044-.061.489.012.86.22 1.118.17.207.416.33.738.372.207.026.398.006.576-.061.288-.109.455-.331.497-.67l-.903-.116zM223.869 191.953c-.086-.183-.177-.313-.275-.392-.175-.142-.403-.188-.685-.137a.85.85 0 0 0-.583.377c-.18.276-.223.66-.134 1.154.07.383.2.68.391.892a.833.833 0 0 0 .815.274.804.804 0 0 0 .51-.29c.12-.155.184-.357.192-.608l.81-.147c-.009.466-.125.85-.347 1.15-.243.329-.594.535-1.054.618-.53.097-.985-.002-1.361-.299-.397-.309-.654-.796-.774-1.458-.12-.654-.043-1.198.23-1.628.255-.408.641-.658 1.159-.752.52-.094.965-.01 1.332.253.296.217.49.499.585.846zM227.312 192.566a.94.94 0 0 0 .744-.027.933.933 0 0 0 .516-.53c.126-.317.087-.703-.114-1.159-.202-.459-.463-.751-.784-.875a.934.934 0 0 0-.738.024.94.94 0 0 0-.521.532c-.12.32-.08.707.122 1.167.202.455.46.744.775.868m-1.555-2.449c.198-.342.496-.6.889-.774.391-.172.78-.216 1.167-.134.597.129 1.061.566 1.39 1.313.327.74.336 1.374.028 1.901a1.852 1.852 0 0 1-.883.776 1.86 1.86 0 0 1-1.174.132c-.594-.13-1.055-.565-1.382-1.305-.33-.747-.34-1.382-.036-1.909M231.618 190.038l1.53-1.187.446.574-2.177 1.69-2.461-3.172.647-.502zM234.657 187.201l1.214-1.507.566.455-1.727 2.146-3.127-2.518.513-.637zM235.532 180.774l-.894 1.866.767.366.818-1.71.633.305-.818 1.71.942.45.93-1.945.639.306-1.279 2.67-3.62-1.735 1.24-2.59zM237.389 178.298l.364-1.603 2.083.474-.162.713-.49-.11c.137.03.244.158.322.383.09.252.098.542.023.87-.112.494-.376.863-.793 1.108-.452.265-1 .324-1.642.178-.578-.132-1.02-.388-1.327-.769-.346-.433-.45-.953-.312-1.561.121-.534.37-.924.744-1.171.304-.194.623-.268.96-.224l-.182.8a.37.37 0 0 0-.177.017.954.954 0 0 0-.25.106 1.043 1.043 0 0 0-.245.223.983.983 0 0 0-.162.362c-.07.313-.02.593.151.838.197.276.528.467.995.572.479.11.857.073 1.133-.11.223-.149.37-.38.442-.698a1.194 1.194 0 0 0-.005-.578c-.08-.299-.286-.485-.619-.561l-.202.889zM236.834 172.613l-.095 2.067.85.039.087-1.893.7.032-.087 1.893 1.044.047.1-2.153.705.033-.136 2.956-4.01-.184.131-2.87z" style="fill:#fff;fill-opacity:1;fill-rule:nonzero;stroke:none;stroke-width:.352778" transform="matrix(3.71182 0 0 3.71182 -725.13 -558.73)"/><path d="M213.58 183.228h.84v2.95h-.557v-2.423h-.608zM216.996 184.48a.347.347 0 0 0 .262-.113.402.402 0 0 0 .107-.283.4.4 0 0 0-.111-.288.358.358 0 0 0-.528 0 .392.392 0 0 0-.113.286c0 .114.036.208.11.285a.366.366 0 0 0 .273.113m-.07 1.773-.478-.237.518-1.004a.864.864 0 0 1-.64-.269.915.915 0 0 1-.262-.667c0-.258.09-.476.27-.654a.888.888 0 0 1 .65-.268c.266 0 .488.094.665.277a.893.893 0 0 1 .224.912 2.67 2.67 0 0 1-.19.424zM218.976 183.228h1.935v.295l-1.332 2.73-.474-.23 1.108-2.268h-1.237zM222.796 183.688c-.095 0-.18.03-.253.091-.073.061-.129.166-.167.314a2.757 2.757 0 0 0-.058.653c0 .372.044.63.132.772.09.143.205.214.346.214.136 0 .244-.067.324-.203.097-.163.146-.436.146-.818 0-.388-.044-.656-.131-.802-.087-.148-.2-.221-.339-.221m-.789-.132a.89.89 0 0 1 .776-.402c.215 0 .401.053.556.16a.998.998 0 0 1 .361.483c.085.218.128.52.128.907 0 .391-.044.697-.13.915-.086.219-.202.378-.348.48a.94.94 0 0 1-.551.154.977.977 0 0 1-.56-.154 1.005 1.005 0 0 1-.355-.47c-.085-.21-.128-.508-.128-.897 0-.54.084-.933.251-1.176" style="fill:#393b7f;fill-opacity:1;fill-rule:nonzero;stroke:none;stroke-width:.352778" transform="matrix(3.71182 0 0 3.71182 -725.13 -558.73)"/><path d="M213.255 183.755h.608v2.424h.558v-2.951h-.842ZM217.688 184.767c.099-.191.162-.332.19-.423a.98.98 0 0 0 .04-.274.896.896 0 0 0-.265-.639.886.886 0 0 0-.665-.277.889.889 0 0 0-.65.268.886.886 0 0 0-.272.653c0 .267.088.49.264.668.176.179.389.269.64.269l-.517 1.004.477.237zm-.962-.4a.394.394 0 0 1-.11-.285.39.39 0 0 1 .114-.287.358.358 0 0 1 .527.001.397.397 0 0 1 .113.288.398.398 0 0 1-.108.282.347.347 0 0 1-.262.115.367.367 0 0 1-.274-.115M218.984 183.755h1.238l-1.109 2.268.475.23 1.33-2.73v-.295h-1.934zM222.018 183.556c-.166.243-.25.636-.25 1.176 0 .389.042.688.129.897.085.21.203.367.355.47a.975.975 0 0 0 .559.154.945.945 0 0 0 .553-.154c.145-.102.26-.262.347-.48.086-.218.129-.522.129-.914 0-.388-.042-.69-.127-.907a.997.997 0 0 0-.362-.485.961.961 0 0 0-.556-.159.894.894 0 0 0-.777.402m1.13.353c.086.146.13.414.13.802 0 .382-.048.655-.146.818-.08.136-.187.203-.324.203-.141 0-.256-.071-.345-.214-.089-.142-.133-.4-.133-.772 0-.287.02-.505.058-.653.039-.148.094-.253.168-.314a.382.382 0 0 1 .252-.091c.139 0 .252.073.34.221" style="fill:#393b7f;fill-opacity:1;fill-rule:nonzero;stroke:none;stroke-width:.352778" transform="matrix(3.71182 0 0 3.71182 -725.13 -558.73)"/></svg>