<svg xmlns="http://www.w3.org/2000/svg" width="244.71327mm" height="244.71327mm" viewBox="0 0 244.71327 244.71327"><g transform="matrix(1.26374 0 0 1.26374 -18.098 -88.128)"><circle cx="111.14149" cy="166.55658" r="96.820747" style="fill:#f9f9f9;stroke:#fff;stroke-width:0"/><path d="M0 0h-29.139v7.756h4.741l-.01-4.564h7.434v4.564h4.786V3.192h7.459v4.564H0Zm2.241 13H-9.653s-3.248-.236-4.937 2.329v-1.991s1.644-1.62 4.588-1.62H1.677c1.673 0 3.617 0 3.617-3.602V0H1.34v9.08h-7.388V4.525h-4.821V9.08h-7.424V4.525h-4.766V9.08h-7.407V0h-3.99v8.116c0 3.602 1.928 3.602 3.622 3.602h11.649c2.958 0 4.595 1.62 4.595 1.62v1.991C-16.275 12.764-19.535 13-19.535 13l-11.895-.02c-4.392 0-4.34-3.87-4.34-4.29v-30.493c0 .042.008.077.025.111.192 11.553 9.588 20.809 21.155 20.809 11.518 0 20.865-9.169 21.131-20.645a.965.965 0 0 0 .045-.275V8.69c0 .431.058 4.31-4.345 4.31" style="fill:#f15a22;fill-opacity:1;fill-rule:nonzero;stroke:none" transform="matrix(1.92155 0 0 -1.92155 138.558 144.268)"/><path d="M0 0h-6.324c-.088-7.864-6.494-14.23-14.4-14.23-7.911 0-14.311 6.366-14.4 14.23h-6.795l.343.163h-.456v-.225c0-11.683 9.459-21.176 21.159-21.176 11.682 0 21.15 9.493 21.15 21.176 0 .082 0 .153-.009.225h-.41z" style="fill:#f15a22;fill-opacity:1;fill-rule:nonzero;stroke:none" transform="matrix(1.92155 0 0 -1.92155 150.631 186.475)"/><path d="M0 0a7.091 7.091 0 0 0 7.089-7.021h7.316C14.405.953 7.962 7.396 0 7.396c-7.965 0-14.404-6.443-14.404-14.417h7.284C-7.022-3.122-3.898 0 0 0" style="fill:#f15a22;fill-opacity:1;fill-rule:nonzero;stroke:none" transform="matrix(1.92155 0 0 -1.92155 110.81 172.672)"/><path d="M0 0a7.082 7.082 0 0 1 7.087 7.059H-7.119C-7.091 3.145-3.907 0 0 0" style="fill:#f15a22;fill-opacity:1;fill-rule:nonzero;stroke:none" transform="matrix(1.92155 0 0 -1.92155 110.81 200.039)"/><path d="M0 0v2.862h-1.026v.513c.158 0 .301 0 .437.021.133.061.264.091.372.15.108.085.172.136.232.24a.437.437 0 0 1 .118.295h.578V0Z" style="fill:#f15a22;fill-opacity:1;fill-rule:nonzero;stroke:none" transform="matrix(1.92155 0 0 -1.92155 99.052 112.959)"/><path d="M0 0a.987.987 0 0 1 .216.605.96.96 0 0 1-.216.617 1.04 1.04 0 0 1-.687.235.963.963 0 0 1-.641-.235.828.828 0 0 1-.239-.617c0-.224.085-.432.239-.605a.982.982 0 0 1 .641-.226c.278 0 .508.081.687.226m.361 1.703c.265-.216.47-.481.578-.76.134-.287.186-.634.186-1.088-.037-.43-.089-.809-.222-1.086C.761-1.54.58-1.796.305-1.99c-.28-.184-.607-.267-1.001-.267-.452 0-.811.123-1.097.37-.284.236-.463.502-.482.8h.644a.978.978 0 0 1 .303-.432c.149-.132.365-.215.641-.215.268 0 .447.052.58.194.132.103.215.267.303.411.047.143.109.289.119.379.01.135.01.259.01.35-.129-.103-.3-.175-.482-.278A1.352 1.352 0 0 0-.81-.791c-.457.01-.821.166-1.083.431-.301.298-.424.626-.424.965 0 .401.148.719.461.975.314.276.689.399 1.169.399.421 0 .77-.072 1.048-.276" style="fill:#f15a22;fill-opacity:1;fill-rule:nonzero;stroke:none" transform="matrix(1.92155 0 0 -1.92155 107.535 108.781)"/><path d="M0 0c.154.131.214.256.214.41 0 .183-.06.318-.214.451-.148.112-.374.165-.63.165-.313 0-.531-.053-.662-.174A.507.507 0 0 1-1.508.41c0-.154.056-.279.216-.41.131-.083.349-.155.662-.155.256 0 .482.072.63.155m.117-1.96c.196.144.278.328.278.502a.51.51 0 0 1-.278.483c-.193.164-.429.237-.747.237-.339 0-.577-.073-.771-.237-.184-.103-.266-.278-.266-.483 0-.174.082-.358.266-.502.194-.143.432-.206.771-.206.318 0 .554.063.747.206m.82 1.055a.857.857 0 0 0 .216-.553c0-.348-.19-.645-.527-.88A2.062 2.062 0 0 0-.63-2.73c-.503 0-.913.125-1.277.392-.339.235-.531.532-.531.88 0 .187.072.38.215.553.135.197.316.329.567.464-.18.122-.348.265-.447.4a.878.878 0 0 0-.143.493c0 .318.135.574.46.78.312.244.688.339 1.156.339.426 0 .809-.095 1.133-.339.313-.206.488-.462.488-.78C.991.286.928.131.816-.041a1.33 1.33 0 0 0-.432-.39c.242-.135.411-.277.553-.474" style="fill:#f15a22;fill-opacity:1;fill-rule:nonzero;stroke:none" transform="matrix(1.92155 0 0 -1.92155 114.704 107.953)"/><path d="M0 0c.135.287.232.666.232 1.097 0 .452-.097.802-.232 1.099-.18.318-.42.452-.768.452a.731.731 0 0 1-.704-.452c-.165-.297-.252-.647-.252-1.099 0-.431.087-.81.252-1.097.15-.297.401-.451.704-.451.348 0 .588.154.768.451m.579 2.604c.294-.398.446-.891.446-1.507C1.025.482.873-.02.579-.409.268-.811-.2-1.016-.768-1.016c-.554 0-.98.205-1.295.607-.286.389-.444.891-.444 1.506 0 .616.158 1.109.444 1.507.315.391.741.597 1.295.597.568 0 1.036-.206 1.347-.597" style="fill:#f15a22;fill-opacity:1;fill-rule:nonzero;stroke:none" transform="matrix(1.92155 0 0 -1.92155 121.998 111.147)"/><path d="M0 0c-26.354 0-47.708 21.362-47.708 47.708 0 26.327 21.354 47.696 47.708 47.696 26.349 0 47.699-21.369 47.699-47.696C47.699 21.362 26.349 0 0 0m0 96.308c-26.861 0-48.625-21.751-48.625-48.6C-48.625 20.852-26.861-.932 0-.932c26.853 0 48.615 21.784 48.615 48.64 0 26.849-21.762 48.6-48.615 48.6" style="fill:#6d6f71;fill-opacity:1;fill-rule:nonzero;stroke:none" transform="matrix(1.92155 0 0 -1.92155 110.528 257.569)"/><path d="m0 0-1.092-.296.726-1.299.83.762c.211.196.473.427.785.696.313.268.623.533.93.792a89.92 89.92 0 0 0-1.165-.37A16.808 16.808 0 0 0 0 0" style="fill:#6d6f71;fill-opacity:1;fill-rule:nonzero;stroke:none" transform="matrix(1.92155 0 0 -1.92155 42.616 202.947)"/><path d="M0 0c.553.192.995.367 1.323.521.327.155.572.305.73.452.156.148.242.301.252.462.009.163-.024.351-.1.569l-.293.846-5.193-1.806.294-.844a1.45 1.45 0 0 1 .274-.507c.108-.12.27-.19.484-.207.214-.017.5.015.853.098A14.5 14.5 0 0 1 0 0" style="fill:#6d6f71;fill-opacity:1;fill-rule:nonzero;stroke:none" transform="matrix(1.92155 0 0 -1.92155 38.266 193.529)"/><path d="M0 0a2.01 2.01 0 0 1-.485.44.828.828 0 0 1-.43.128.755.755 0 0 1-.388-.111 2.645 2.645 0 0 1-.382-.274l-.441-.373 1.594-1.884.44.372c.134.111.243.222.336.33a.76.76 0 0 1 .173.364.815.815 0 0 1-.055.446C.301-.399.18-.212 0 0" style="fill:#6d6f71;fill-opacity:1;fill-rule:nonzero;stroke:none" transform="matrix(1.92155 0 0 -1.92155 160.466 221.667)"/><path d="m0 0-.67.594-3.652-4.111.67-.595c.173-.152.336-.256.488-.309.152-.052.328-.033.522.056.197.092.429.258.698.502.267.245.599.59.997 1.036.388.439.69.806.9 1.101.21.296.35.546.415.75.067.206.065.381-.005.527A1.5 1.5 0 0 1 0 0" style="fill:#6d6f71;fill-opacity:1;fill-rule:nonzero;stroke:none" transform="matrix(1.92155 0 0 -1.92155 62.717 219.894)"/><path d="m0 0-3.047.99-4.889-.566.429 1.319 2.386.194c.207.014.414.023.623.026.208.002.41-.002.609-.016a16.23 16.23 0 0 0-.499.359c-.167.124-.329.254-.489.386l-1.808 1.576.415 1.274 3.633-3.335 3.034-.986Zm-2.566-6.012-5.887 2.943-.742-1.485-.981.49L-8.118.055l.982-.49-.737-1.472 5.887-2.943zm-2.803-4.677-6.393 4.256.721 1.081 6.392-4.254zm-3.202-4.342a3.859 3.859 0 0 0-.428-.43 1.988 1.988 0 0 0-.371-.254 1.547 1.547 0 0 0-.357-.152l-.875.755c.125.043.251.101.375.172a2.371 2.371 0 0 1 .686.554c.1.116.185.239.253.371.069.131.115.264.134.398.02.136.01.265-.03.388a.761.761 0 0 1-.234.335c-.219.188-.433.285-.64.295a3.615 3.615 0 0 1-.638-.032l-1.098-.123a6.714 6.714 0 0 0-.435-.045 2.628 2.628 0 0 0-1.083.16 1.793 1.793 0 0 0-.551.333c-.284.245-.491.5-.616.766-.126.267-.19.539-.193.814a1.99 1.99 0 0 0 .157.806c.113.261.264.504.458.73a2.9 2.9 0 0 0 .42.41c.136.107.252.188.35.242.111.07.218.119.317.146l.866-.743a2.844 2.844 0 0 1-.659-.388 2.192 2.192 0 0 1-.323-.31c-.252-.292-.363-.554-.335-.787.026-.235.151-.445.37-.632a.805.805 0 0 1 .547-.215c.197 0 .392.009.582.022l1.068.111c.236.025.449.044.639.059a2.043 2.043 0 0 0 1.058-.186c.163-.077.33-.19.507-.341.496-.427.754-.93.778-1.508.023-.579-.21-1.152-.699-1.721m-3.827-3.677-2.986 1.426-.429-.362 1.949-2.305-.993-.838-4.958 5.862 1.532 1.298c.255.215.518.388.788.517.272.126.546.19.826.188.278-.004.56-.078.841-.224.282-.147.565-.39.851-.729.391-.462.605-.896.639-1.301a2.083 2.083 0 0 0-.218-1.14l3.301-1.423zm-8.398-5.922-3.909 6.609 3.242 1.917.559-.944-2.125-1.256 1.067-1.802 1.726 1.021.55-.931-1.726-1.022 1.183-2 2.124 1.258.551-.932zm-5.408-2.438-4.698 6.401 1.262.498 2.282-3.227c.173-.231.367-.522.578-.875.21-.35.415-.698.613-1.044l-.245 1.19c-.079.403-.137.748-.168 1.036l-.55 3.912 1.235.485.939-7.885zm-5.461-1.666-1.87 7.448 1.259.317 1.87-7.448zm-5.122-.897-1.671 3.694c-.121.259-.255.57-.396.933l-.427 1.088c.121-.626.218-1.318.293-2.074l.378-3.82-1.193-.119-.756 7.642 1.623.162 1.657-3.696c.122-.259.254-.569.396-.933.142-.363.279-.72.41-1.076-.048.305-.099.633-.148.987-.049.352-.092.711-.128 1.075l-.377 3.82 1.206.12.757-7.643zm-39.567 43.924c0 19.001 15.392 34.371 34.375 34.371 18.964 0 34.383-15.37 34.383-34.371 0-18.993-15.419-34.4-34.383-34.4-18.983 0-34.375 15.407-34.375 34.4m33.108-41.886c-.08-.891-.326-1.514-.739-1.868-.414-.354-1.029-.495-1.842-.422-.816.071-1.398.32-1.746.741-.349.424-.482 1.08-.404 1.971l.474 5.292 1.293-.117-.484-5.42c-.044-.488.021-.826.192-1.008.173-.186.431-.292.776-.325.335-.03.603.033.805.182.202.151.325.471.369.96l.485 5.421 1.292-.116zm-11.457-.528-1.457.551-.696 4.029-1.248-3.292-1.215.46 2.721 7.181 1.215-.46-1.208-3.185 3.07 2.478 1.363-.516-3.476-2.696zm-8.15 3.97c-.528-.139-1.141.005-1.841.428-.701.421-1.116.898-1.244 1.431-.128.533.039 1.181.501 1.948l2.742 4.549 1.112-.671-2.809-4.66c-.254-.42-.344-.749-.27-.993.074-.239.259-.449.556-.629.289-.174.557-.238.803-.189.249.047.499.281.753.7l2.809 4.662 1.112-.672-2.742-4.548c-.461-.768-.956-1.218-1.482-1.356m-5.199 5.404c-.369-.322-.72-.54-1.053-.655a1.606 1.606 0 0 0-1.007-.023c-.335.099-.697.317-1.077.656l-1.682 1.495 5.097 5.743 1.683-1.496c.382-.339.642-.67.78-.991.139-.324.168-.658.09-1.007-.078-.349-.253-.725-.526-1.126a13.67 13.67 0 0 0-1.079-1.357 13.748 13.748 0 0 0-1.226-1.239m-6.262 4.578-.846-.675-2.347 2.945 6.004 4.785 2.348-2.945-.858-.684-1.539 1.93-1.636-1.304 1.25-1.569-.845-.674-1.251 1.568-1.818-1.449zm-5.464 5.706 1.245 1.174-.93 1.664-1.646-.458-.642 1.146 7.689 1.983.655-1.171-5.716-5.51zm-3.18 7.066c-.245.251-.452.618-.618 1.099l-.739 2.127 7.252 2.52.74-2.127c.167-.483.231-.897.195-1.246a1.62 1.62 0 0 0-.412-.924c-.239-.265-.575-.506-1.01-.724a13.778 13.778 0 0 0-1.605-.658c-.636-.22-1.194-.38-1.673-.482-.481-.099-.894-.118-1.24-.056-.348.062-.646.22-.89.471m.643 17.814a2.17 2.17 0 0 0 2.169-2.156 2.165 2.165 0 0 0-4.328 0 2.17 2.17 0 0 0 2.159 2.156m2.306 11.587c.167-.079.29-.037.363.123l1.355 2.903-3.781 1.762.477 1.026 2.245-1.047.437.94-2.243 1.047.486 1.044 7.165-3.341-.488-1.044-3.958 1.846-.438-.941 3.887-1.812-.479-1.023-2.371 1.105-1.352-2.905c-.206-.437-.442-.722-.705-.852-.266-.131-.626-.09-1.086.125l-3.03 1.412 1.565 3.353.939-.439-1.077-2.308zm14.299 24.167.548-.879-2.57-1.607 1.143-1.826c.097-.157.222-.189.373-.094l4.015 2.51-.372.597-2.053-1.283-.55.878 2.053 1.285-1.055 1.689.977.611 2.936-4.701-.977-.611-.409.655-4.016-2.509c-.412-.258-.764-.368-1.058-.334-.294.035-.575.267-.843.696l-1.691 2.708zm7.761-6.523-.977-.61-1.521 2.432-4.244-2.651-.55.879 5.222 3.263zm12.447 12.11h3.699V56.72h-2.546v-2.304c0-.184.088-.277.265-.277h3.203v4.171h1.13v-2.477h1.037v2.477h1.153v-7.904h-1.153v4.366h-1.037v-4.287h-1.13v2.617h-3.203c-.484 0-.841.092-1.072.276-.23.185-.346.53-.346 1.038zm23.127-9.895 5.045-3.532-2.24-3.199-.945.66 1.646 2.352-4.101 2.87zm.694 2.373c.051.273.158.527.321.759.255.365.588.611.996.739l-.653.455.582.832 1.633-1.145.615.879.963-.675-.614-.877 1.643-1.151-.582-.831-.67.469c.026-.432-.09-.83-.345-1.193a1.905 1.905 0 0 0-.604-.562 2.147 2.147 0 0 0-.766-.28 2.12 2.12 0 0 0-.827.024c-.282.06-.544.175-.789.348a2.184 2.184 0 0 0-.903 2.209m7.727-.941-1.15-1.64 1.295-.907-.594-.849-1.295.906-1.435-2.051-.944.663 3.18 4.541zm5.674-16.592.752-1.86 2.31.933.424-1.046-2.31-.934.335-.835 2.311.934.422-1.047-2.309-.933 1.217-3.013-.962-.389-3.152 7.8zm5.623.909 2.215-5.481-4.379-1.768-.431 1.07 3.416 1.379-1.782 4.412zM.472 14.261a2.17 2.17 0 0 0-2.159-2.162 2.142 2.142 0 0 0-2.144 2.162c0 1.17.936 2.156 2.144 2.156a2.176 2.176 0 0 0 2.159-2.156m-42.451 46.283c-25.557 0-46.243-20.715-46.243-46.251 0-25.556 20.686-46.26 46.243-46.26 25.549 0 46.253 20.704 46.253 46.26 0 25.536-20.704 46.251-46.253 46.251" style="fill:#6d6f71;fill-opacity:1;fill-rule:nonzero;stroke:none" transform="matrix(1.92155 0 0 -1.92155 191.192 193.36)"/><path d="M0 0c.286.053.521.212.707.476.185.265.254.542.208.831a.983.983 0 0 1-.427.686.97.97 0 0 1-.789.16 1.128 1.128 0 0 1-.701-.48c-.186-.265-.256-.538-.211-.824A.986.986 0 0 1-.787.172C-.548.006-.287-.053 0 0" style="fill:#6d6f71;fill-opacity:1;fill-rule:nonzero;stroke:none" transform="matrix(1.92155 0 0 -1.92155 153.87 99.842)"/></g></svg>