<svg xmlns="http://www.w3.org/2000/svg" width="189.23471mm" height="189.23471mm" viewBox="0 0 189.23471 189.23471"><g transform="translate(-27.18 -100.515) scale(1.1648)"><circle cx="104.56509" cy="167.52426" r="81.23056" style="fill:#f9f9f9;stroke:#fff;stroke-width:0"/><path d="M0 0c0 .769-.625 1.397-1.396 1.397h-60.527A1.397 1.397 0 0 1-63.315 0v-1.267c0-.772.624-1.398 1.392-1.398h60.527C-.625-2.665 0-2.039 0-1.267z" style="fill:#00a5da;fill-opacity:1;fill-rule:nonzero;stroke:none" transform="matrix(1.18605 0 0 -1.18605 141.892 155.65)"/><path d="m0 0-9.566 10-9.455-9.838L-28.464 10-39.905-1.939a1.386 1.386 0 0 1 .037-1.954l.991-.945a1.384 1.384 0 0 1 1.95.04l8.463 8.841 8.43-8.794c.219-.229.498-.36.789-.406l.024-.003c.063-.004.131-.014.2-.014.067 0 .133.01.2.014l.021.003c.29.046.571.177.792.406l8.442 8.794 8.531-8.932c.275-.292.674-.419 1.056-.419.42 0 .819.216 1.034.439l8.523 8.912 8.461-8.841a1.385 1.385 0 0 1 1.951-.04l.987.945c.55.526.57 1.401.043 1.954L9.578 10Z" style="fill:#00a5da;fill-opacity:1;fill-rule:nonzero;stroke:none" transform="matrix(1.18605 0 0 -1.18605 115.544 174.678)"/><path d="M0 0h1.375c.773 0 1.398.622 1.398 1.389v6.585c0 .768-.625 1.392-1.398 1.392H0a1.394 1.394 0 0 1-1.395-1.392V1.389C-1.395.622-.771 0 0 0" style="fill:#00a5da;fill-opacity:1;fill-rule:nonzero;stroke:none" transform="matrix(1.18605 0 0 -1.18605 80.781 149.994)"/><path d="M0 0c0 .768-.621 1.393-1.391 1.393h-1.38c-.77 0-1.393-.625-1.393-1.393v-6.584c0-.768.623-1.39 1.393-1.39h1.38c.77 0 1.391.622 1.391 1.39z" style="fill:#00a5da;fill-opacity:1;fill-rule:nonzero;stroke:none" transform="matrix(1.18605 0 0 -1.18605 106.801 140.537)"/><path d="M0 0h1.377A1.39 1.39 0 0 1 2.77 1.389v6.585c0 .768-.622 1.392-1.393 1.392H0c-.77 0-1.395-.624-1.395-1.392V1.389C-1.395.622-.77 0 0 0" style="fill:#00a5da;fill-opacity:1;fill-rule:nonzero;stroke:none" transform="matrix(1.18605 0 0 -1.18605 126.274 149.994)"/><path d="M0 0c.77 0 1.391.623 1.391 1.392v10.746c0 .769-.621 1.394-1.391 1.394h-1.381a1.393 1.393 0 0 1-1.392-1.394V1.392C-2.773.623-2.15 0-1.381 0Z" style="fill:#00a5da;fill-opacity:1;fill-rule:nonzero;stroke:none" transform="matrix(1.18605 0 0 -1.18605 105.152 198.46)"/><path d="M0 0c.771 0 1.393.623 1.393 1.392v10.746c0 .769-.622 1.394-1.393 1.394h-1.377a1.395 1.395 0 0 1-1.394-1.394V1.392C-2.771.623-2.146 0-1.377 0Z" style="fill:#00a5da;fill-opacity:1;fill-rule:nonzero;stroke:none" transform="matrix(1.18605 0 0 -1.18605 127.907 198.46)"/><path d="M0 0c-21.539 0-39.063 17.524-39.063 39.064 0 21.545 17.524 39.074 39.063 39.074 21.543 0 39.07-17.529 39.07-39.074C39.07 17.524 21.543 0 0 0m0 81.825c-23.574 0-42.752-19.182-42.752-42.761C-42.752 15.491-23.574-3.687 0-3.687c23.577 0 42.759 19.178 42.759 42.751 0 23.579-19.182 42.761-42.759 42.761" style="fill:#00a5da;fill-opacity:1;fill-rule:nonzero;stroke:none" transform="matrix(1.18605 0 0 -1.18605 104.339 213.376)"/><path d="M0 0c-33.99 0-61.643 27.654-61.643 61.645 0 33.994 27.653 61.65 61.643 61.65 33.992 0 61.648-27.656 61.648-61.65C61.648 27.654 33.992 0 0 0m0 127.03c-36.049 0-65.377-29.332-65.377-65.385 0-36.05 29.328-65.379 65.377-65.379 36.052 0 65.382 29.329 65.382 65.379 0 36.053-29.33 65.385-65.382 65.385" style="fill:#00a5da;fill-opacity:1;fill-rule:nonzero;stroke:none" transform="matrix(1.18605 0 0 -1.18605 104.656 239.674)"/><path d="M0 0c-.178.114-.211.217-.096.395l.541.835c.116.178.227.202.405.087l.793-.515c.181-.114.207-.228.089-.403l-.541-.836C1.08-.615.973-.63.795-.515Z" style="fill:#00a5da;fill-opacity:1;fill-rule:nonzero;stroke:none" transform="matrix(1.18605 0 0 -1.18605 154.915 202.422)"/><path d="M0 0c.177.114.285.1.399-.076l.543-.835c.115-.177.092-.289-.084-.407l-.795-.515c-.177-.118-.291-.093-.406.085l-.544.833c-.113.176-.082.281.094.395Z" style="fill:#00a5da;fill-opacity:1;fill-rule:nonzero;stroke:none" transform="matrix(1.18605 0 0 -1.18605 53.33 200.861)"/><path d="m0 0 5.115 1.538-.361 1.2c-.231.761-.647 1.137-1.21.968L.111 2.674c-.56-.168-.703-.712-.473-1.473Zm6.754.634c.054-.179-.027-.265-.219-.322L-.512-1.806c-.201-.061-.311-.021-.373.181L-1.618.821c-.611 2.031.063 3.006 1.006 3.288L3.357 5.3c.946.285 2.039-.155 2.652-2.185Z" style="fill:#00a5da;fill-opacity:1;fill-rule:nonzero;stroke:none" transform="matrix(1.18605 0 0 -1.18605 42.91 186.537)"/><path d="M0 0c-.457-.21-1.925-.567-2.074-.599C-1.921-.601-.431-.62.075-.7l1.348-.236L1.242.543Zm-3.687-.251c-.025.208.056.323.246.406l7.057 3.059c.182.083.292.025.319-.172l.127-1.048c.025-.196-.069-.289-.25-.37l-1.368-.582.265-2.162 1.468-.233c.193-.036.307-.105.333-.314l.116-.942c.026-.208-.071-.289-.266-.254l-7.589 1.276c-.203.033-.307.115-.333.324z" style="fill:#00a5da;fill-opacity:1;fill-rule:nonzero;stroke:none" transform="matrix(1.18605 0 0 -1.18605 42.988 173.664)"/><path d="M0 0c-.008-.21-.104-.276-.314-.27l-7.341.29c-.211.008-.3.083-.293.293l.157 3.997c.005.198.083.289.293.281l.734-.029c.21-.009.289-.105.283-.302l-.107-2.701 1.893-.076.097 2.501c.009.21.084.301.295.296l.701-.029c.2-.009.278-.105.269-.314l-.1-2.503 2.177-.084.109 2.815c.008.211.082.29.292.282l.736-.028c.21-.009.291-.093.283-.305Z" style="fill:#00a5da;fill-opacity:1;fill-rule:nonzero;stroke:none" transform="matrix(1.18605 0 0 -1.18605 47.6 166.54)"/><path d="m0 0 .499 2.564c.037.195.121.273.33.234l.725-.139c.207-.042.269-.15.23-.345l-.75-3.873c-.033-.172-.152-.223-.345-.183L-6.529-.344c-.204.039-.286.128-.245.333L-6.579.99c.038.207.144.259.35.218z" style="fill:#00a5da;fill-opacity:1;fill-rule:nonzero;stroke:none" transform="matrix(1.18605 0 0 -1.18605 47.063 155.906)"/><path d="M0 0c.2-.065.269-.158.203-.361l-.314-.968c-.069-.201-.179-.237-.377-.172L-7.478.772c-.2.066-.266.161-.204.362l.317.969c.066.2.177.236.377.172z" style="fill:#00a5da;fill-opacity:1;fill-rule:nonzero;stroke:none" transform="matrix(1.18605 0 0 -1.18605 50.382 147.97)"/><path d="M0 0c.177-.09.229-.195.134-.383l-.439-.868c-.094-.186-.21-.207-.387-.117L-4.659.641c.028-.026.568-.536.797-.783l1.54-1.777c.13-.159.176-.3.087-.477l-.375-.742c-.09-.176-.243-.216-.432-.203l-2.545.177c-.273.006-.816.126-.896.152l3.947-1.999c.178-.088.229-.194.135-.382l-.42-.825c-.095-.188-.209-.208-.388-.118l-6.573 3.331c-.179.089-.232.195-.137.381l.419.827c.066.134.146.16.262.156l4.452-.25c.345-.017.863-.109.863-.109s-.34.342-.587.635l-2.887 3.407c-.075.089-.067.178-.004.304l.439.867c.094.187.211.207.388.119z" style="fill:#00a5da;fill-opacity:1;fill-rule:nonzero;stroke:none" transform="matrix(1.18605 0 0 -1.18605 55.407 136.894)"/><path d="M0 0c.4-.427.944-.317 1.515.221.569.538.729 1.087.327 1.513l-3.813 4.05c-.142.155-.154.272-.002.416l.743.697c.154.143.258.117.403-.036l4.005-4.257c.674-.717.779-1.886-.763-3.337C.871-2.186-.293-2.01-.968-1.295l-4.003 4.256c-.144.152-.15.278.004.421l.744.699c.141.137.268.124.411-.029z" style="fill:#00a5da;fill-opacity:1;fill-rule:nonzero;stroke:none" transform="matrix(1.18605 0 0 -1.18605 62.722 124.363)"/><path d="M0 0c.106-.168.099-.285-.077-.398l-.776-.503c-.129-.083-.199-.085-.304-.028l-4.002 2.024a5.735 5.735 0 0 0-.908.542l2.537-3.919c.109-.168.1-.285-.078-.4l-.776-.502c-.175-.112-.287-.074-.394.093L-8.783 3.1c-.111.168-.099.285.078.399l.776.502c.106.07.185.08.268.035l4.17-2.112c.351-.177.779-.473.779-.473l-2.542 3.932c-.107.167-.1.283.077.398l.776.502c.175.114.286.074.394-.094z" style="fill:#00a5da;fill-opacity:1;fill-rule:nonzero;stroke:none" transform="matrix(1.18605 0 0 -1.18605 76.214 116.708)"/><path d="M0 0c.09-.192.064-.305-.127-.393l-.924-.431c-.189-.086-.293-.031-.382.157l-3.088 6.671c-.088.189-.066.305.126.394l.922.428c.194.087.295.032.384-.158z" style="fill:#00a5da;fill-opacity:1;fill-rule:nonzero;stroke:none" transform="matrix(1.18605 0 0 -1.18605 81.293 114.227)"/><path d="M0 0c-.198-.062-.319 0-.434.171l-4.294 6.386c-.111.159-.076.283.125.343l1.061.332c.189.06.302-.016.412-.177l2.274-3.458c.356-.551.775-1.536.775-1.536S-.265 3.12-.283 3.763l-.111 4.15c0 .196.049.321.25.384l.971.306c.19.058.287-.022.29-.219L1.243.696C1.247.49 1.175.37.971.305Z" style="fill:#00a5da;fill-opacity:1;fill-rule:nonzero;stroke:none" transform="matrix(1.18605 0 0 -1.18605 87.011 112.425)"/><path d="M0 0c-.206-.032-.29.05-.321.262l-1.046 7.276c-.029.212.027.313.235.345l3.966.569c.197.028.299-.027.33-.237l.106-.732c.029-.207-.051-.302-.25-.331L.342 6.768.61 4.891l2.482.355c.209.03.312-.026.342-.235l.101-.696c.029-.196-.053-.29-.262-.32L.792 3.64l.312-2.158 2.792.402c.209.029.301-.028.331-.237L4.33.916c.029-.207-.037-.3-.248-.331Z" style="fill:#00a5da;fill-opacity:1;fill-rule:nonzero;stroke:none" transform="matrix(1.18605 0 0 -1.18605 94.271 110.543)"/><path d="m0 0-.053-2.307 1.158-.026c.784-.019 1.272.263 1.284.848l.015.55c.012.585-.459.889-1.244.908Zm-.082-3.617-.064-2.727c-.004-.211-.077-.303-.29-.298l-1.017.025c-.209.003-.277.1-.272.308l.172 7.352c.006.21.076.303.287.296l2.457-.055c2.12-.051 2.811-.992 2.788-1.975l-.026-1.111c-.017-.69-.385-1.337-1.326-1.655l1.195-2.979c.076-.189-.066-.303-.279-.297l-1.029.022c-.162.003-.207.122-.284.314l-1.084 2.75-.07.003z" style="fill:#00a5da;fill-opacity:1;fill-rule:nonzero;stroke:none" transform="matrix(1.18605 0 0 -1.18605 104.765 101.744)"/><path d="M0 0c.111.562-.213.902-.951 1.049-.744.149-1.174-.039-1.289-.602l-.035-.172c-.079-.402.177-.61.347-.714l1.86-1.112C.654-1.982 1.127-2.623.953-3.476l-.178-.882C.586-5.323-.27-6.094-2.33-5.684c-2.041.407-2.563 1.457-2.367 2.42l.144.722c.039.208.141.281.332.243l.969-.193c.205-.04.256-.146.215-.351l-.106-.518c-.109-.563.274-.914 1.055-1.07.766-.154 1.266.022 1.379.586l.076.365c.094.471-.33.747-.808 1.045l-1.645 1.022c-.51.316-.887.998-.752 1.689l.135.678c.193.964.971 1.751 2.982 1.35 2.01-.4 2.473-1.436 2.278-2.4l-.092-.471c-.039-.194-.137-.271-.344-.229l-.967.192c-.195.04-.244.144-.205.339z" style="fill:#00a5da;fill-opacity:1;fill-rule:nonzero;stroke:none" transform="matrix(1.18605 0 0 -1.18605 118.398 104.108)"/><path d="M0 0c-.066-.199-.164-.266-.363-.196l-.961.331c-.201.068-.237.182-.17.379L.904 7.462c.069.199.166.263.366.195l.962-.331c.2-.069.235-.181.166-.379Z" style="fill:#00a5da;fill-opacity:1;fill-rule:nonzero;stroke:none" transform="matrix(1.18605 0 0 -1.18605 124.027 112.704)"/><path d="M0 0c.178-.087.232-.19.141-.38l-.329-.664c-.087-.189-.208-.222-.386-.134l-1.494.733-2.793-5.702c-.092-.188-.202-.244-.387-.15l-.914.447c-.19.094-.221.214-.129.403l2.789 5.7-1.494.73c-.19.093-.223.204-.135.393l.328.663c.092.19.198.215.385.123z" style="fill:#00a5da;fill-opacity:1;fill-rule:nonzero;stroke:none" transform="matrix(1.18605 0 0 -1.18605 136.36 108.264)"/><path d="M0 0c-.047-.193-.176-.575-.189-.62.037.031.341.287.525.386l2.545 1.477c.152.092.285.157.447.045l.824-.579c.162-.114.192-.26.006-.36L-.305-2.17l-1.574-2.253c-.115-.164-.226-.2-.4-.081l-.836.585c-.168.121-.184.245-.071.408l1.471 2.099.936 5.217c.031.192.166.24.328.124L.5 3.266c.162-.113.162-.255.119-.438Z" style="fill:#00a5da;fill-opacity:1;fill-rule:nonzero;stroke:none" transform="matrix(1.18605 0 0 -1.18605 140.47 115)"/><path d="M0 0c-.787-.587-1.906-.635-3.174 1.063-1.267 1.699-.904 2.759-.117 3.348L.178 7.004c.791.591 1.91.637 3.181-1.062 1.266-1.698.905-2.76.114-3.349l-.448-.334c-.17-.128-.275-.119-.396.039l-.584.78c-.123.168-.107.284.06.407l.225.171c.475.35.459.853-.012 1.483-.468.63-.939.771-1.41.421l-3.021-2.256c-.471-.352-.467-.846.006-1.474.466-.63.947-.782 1.416-.431l.361.266c.166.125.279.108.404-.06L.656.826C.775.666.754.561.584.435Z" style="fill:#00a5da;fill-opacity:1;fill-rule:nonzero;stroke:none" transform="matrix(1.18605 0 0 -1.18605 153.875 133.899)"/><path d="M0 0c.52.265.566.827.209 1.527-.354.699-.826.984-1.348.72L-4.504.543c-.523-.264-.572-.814-.219-1.514.356-.7.832-.997 1.356-.733zm-1.609 3.795c.879.446 2.031.214 2.99-1.676.957-1.893.461-2.958-.418-3.402l-3.867-1.959c-.877-.444-2.032-.215-2.991 1.679-.957 1.891-.459 2.956.42 3.402z" style="fill:#00a5da;fill-opacity:1;fill-rule:nonzero;stroke:none" transform="matrix(1.18605 0 0 -1.18605 162.19 139.016)"/><path d="m0 0 .787-2.486c.063-.188.024-.299-.176-.364l-.707-.225c-.201-.061-.302.003-.363.192L-1.654.875c-.053.167.025.266.215.327l7.005 2.221c.202.066.311.028.377-.171l.307-.971c.064-.201-.002-.297-.207-.359Z" style="fill:#00a5da;fill-opacity:1;fill-rule:nonzero;stroke:none" transform="matrix(1.18605 0 0 -1.18605 160.141 148.473)"/><path d="m0 0 .418-2.579c.031-.196-.022-.3-.23-.334l-.731-.118c-.207-.035-.305.047-.332.243l-.633 3.895c-.031.174.067.26.262.293l7.262 1.175c.207.033.31-.022.345-.229l.16-1.007c.036-.209-.046-.293-.251-.326Z" style="fill:#00a5da;fill-opacity:1;fill-rule:nonzero;stroke:none" transform="matrix(1.18605 0 0 -1.18605 162.198 156.82)"/><path d="M0 0c-.002.209.09.282.299.282L7.65.353c.209.002.305-.068.305-.278l.037-4.001c.002-.199-.066-.294-.275-.294l-.737-.01c-.209-.001-.292.092-.294.291l-.03 2.703-1.896-.018.027-2.502c0-.214-.066-.306-.277-.308l-.703-.008c-.202-.003-.286.091-.286.302l-.025 2.504-2.174-.022.03-2.82c0-.211-.071-.293-.28-.293l-.738-.008C.125-4.41.041-4.33.041-4.12Z" style="fill:#00a5da;fill-opacity:1;fill-rule:nonzero;stroke:none" transform="matrix(1.18605 0 0 -1.18605 161.445 163.834)"/><path d="M0 0c-.031-.196-.115-.278-.324-.247l-2.057.328C-3.352.232-4.172 1-3.838 3.097c.328 2.091 1.342 2.574 2.313 2.42l4.279-.676c.975-.153 1.787-.92 1.457-3.015-.33-2.095-1.342-2.574-2.313-2.42l-.462.072c-.198.031-.278.115-.247.312l.149.96c.035.208.139.274.336.244l.185-.029c.58-.092.93.265 1.053 1.042.125.777-.103 1.214-.683 1.306l-3.725.588c-.574.09-.928-.258-1.053-1.034-.119-.775.108-1.225.674-1.315l.771-.121.182 1.133c.031.209.115.292.324.258l.739-.117c.207-.031.261-.137.23-.343Z" style="fill:#00a5da;fill-opacity:1;fill-rule:nonzero;stroke:none" transform="matrix(1.18605 0 0 -1.18605 165.214 179.069)"/><path d="M0 0c.068.2.178.238.379.172L7.354-2.14c.195-.065.263-.161.195-.36L6.293-6.299c-.061-.189-.158-.257-.359-.19l-.702.234c-.197.064-.246.179-.183.367L5.9-3.32l-1.798.595-.789-2.377c-.067-.2-.163-.268-.36-.2l-.67.219c-.187.063-.238.179-.172.378L2.9-2.33l-2.064.685-.889-2.675c-.066-.199-.154-.255-.355-.188l-.701.231c-.202.067-.252.17-.188.37z" style="fill:#00a5da;fill-opacity:1;fill-rule:nonzero;stroke:none" transform="matrix(1.18605 0 0 -1.18605 159.3 182.245)"/><path d="M0 0c.354.434.23.88-.34 1.342-.579.471-1.039.505-1.394.069l-.112-.13C-2.1.967-1.971.672-1.87.501l1.098-1.814c.432-.705.543-1.476.003-2.136l-.555-.683c-.61-.747-1.706-1.023-3.298.276-1.585 1.287-1.557 2.436-.946 3.182l.458.561c.13.159.25.18.399.058l.75-.61c.158-.129.153-.246.023-.406l-.325-.4c-.354-.438-.185-.916.421-1.409.596-.487 1.111-.565 1.465-.127l.23.284c.298.366.059.798-.217 1.275L-3.323.19c-.296.51-.311 1.274.126 1.807l.426.524c.61.75 1.644 1.076 3.203-.193 1.556-1.269 1.481-2.379.871-3.124l-.296-.365c-.123-.152-.243-.174-.403-.042l-.748.608c-.152.123-.146.238-.024.391z" style="fill:#00a5da;fill-opacity:1;fill-rule:nonzero;stroke:none" transform="matrix(1.18605 0 0 -1.18605 67.874 213.669)"/><path d="M0 0c-.107-.177-.213-.22-.391-.111l-.853.517c-.175.107-.187.221-.083.397l3.735 6.162c.11.176.215.219.393.109l.853-.516c.175-.106.187-.222.078-.398Z" style="fill:#00a5da;fill-opacity:1;fill-rule:nonzero;stroke:none" transform="matrix(1.18605 0 0 -1.18605 70.97 223.645)"/><path d="M0 0c-.076-.181-.174-.237-.366-.158l-.833.353c-.141.057-.178.112-.19.229l-.566 4.361c-.089.595-.066.997-.066 1.035l-1.777-4.221c-.076-.178-.174-.237-.364-.156l-.835.352c-.19.08-.218.189-.144.371l2.809 6.662c.076.181.176.237.363.159l.836-.355c.117-.048.166-.105.178-.197l.589-4.544c.052-.385.049-.893.049-.893l1.782 4.231c.076.179.173.237.366.157l.836-.353c.188-.078.216-.191.141-.37Z" style="fill:#00a5da;fill-opacity:1;fill-rule:nonzero;stroke:none" transform="matrix(1.18605 0 0 -1.18605 81.786 228.829)"/><path d="M0 0c-.21-.942-1.012-1.689-3.039-1.235C-5.061-.78-5.47.239-5.258 1.179l.932 4.139c.208.939 1.01 1.686 3.036 1.233C.734 6.098 1.14 5.079.929 4.139L.809 3.6c-.045-.2-.131-.263-.321-.22l-.927.207c-.202.044-.262.14-.216.341l.057.271c.126.558-.201.926-.954 1.094-.749.167-1.189-.026-1.317-.585l-.806-3.603c-.126-.559.192-.925.94-1.091.75-.167 1.204.021 1.33.583l.097.423c.043.203.14.264.339.219l.928-.208C.153.987.202.893.157.692Z" style="fill:#00a5da;fill-opacity:1;fill-rule:nonzero;stroke:none" transform="matrix(1.18605 0 0 -1.18605 93.557 230.126)"/><path d="M0 0c-.207.012-.271.109-.258.314l.414 7.194c.012.206.086.294.293.283l3.918-.228c.194-.012.283-.084.272-.29l-.043-.722c-.014-.206-.11-.282-.303-.271l-2.648.156-.106-1.858 2.449-.14c.207-.01.295-.084.283-.291l-.037-.688c-.011-.198-.109-.271-.316-.259l-2.451.143-.123-2.132 2.76-.162c.207-.01.285-.083.271-.288L4.334.038c-.014-.204-.098-.28-.305-.267Z" style="fill:#00a5da;fill-opacity:1;fill-rule:nonzero;stroke:none" transform="matrix(1.18605 0 0 -1.18605 98.515 232.85)"/><path d="M0 0c.121.048.273.044.324-.216l1.215-6.203 1.477.289c.205.042.297-.012.334-.213l.14-.71c.041-.202-.023-.296-.226-.338l-4.526-.885c-.191-.039-.299.022-.336.223l-.14.711c-.039.2.035.288.23.326l1.531.301-.974 4.951-1.467-.566c-.174-.072-.299-.013-.336.177l-.146.744c-.039.19.058.291.232.362z" style="fill:#00a5da;fill-opacity:1;fill-rule:nonzero;stroke:none" transform="matrix(1.18605 0 0 -1.18605 116.415 222.529)"/><path d="M0 0c-.199.527-.6.68-1.287.419C-1.996.149-2.203-.239-2-.773l.238-.623c.205-.533.614-.675 1.319-.402.687.259.89.631.687 1.157zm2.875-3.222c.33-.868.115-1.943-1.752-2.655-1.861-.71-2.705-.039-3.037.829l-.106.278c-.074.192-.029.295.165.37l.89.339c.18.069.276.019.348-.174l.027-.076c.194-.502.567-.679 1.274-.41.697.266.871.651.681 1.155L.867-2.272c-.191-.293-.543-.573-1.066-.773-1.627-.622-2.567.004-2.912.902l-.393 1.04c-.342.9-.101 1.965 1.777 2.678 1.862.712 2.745.077 3.088-.825z" style="fill:#00a5da;fill-opacity:1;fill-rule:nonzero;stroke:none" transform="matrix(1.18605 0 0 -1.18605 127.038 221.858)"/><path d="M0 0c.166.1.281.087.385-.09l.357-.603a.544.544 0 0 0 .069-.228l.818-6.834c.019-.174.012-.337-.166-.444l-.969-.572c-.176-.105-.293-.067-.316.158l-.787 6.759-3.03-1.793c-.17-.098-.291-.075-.396.1l-.369.623c-.104.178-.061.282.107.384z" style="fill:#00a5da;fill-opacity:1;fill-rule:nonzero;stroke:none" transform="matrix(1.18605 0 0 -1.18605 136.404 214.313)"/><path d="M0 0c.148.125.266.13.395-.028l.447-.54a.527.527 0 0 0 .103-.214L2.83-7.401c.047-.169.065-.332-.094-.465l-.867-.718c-.156-.131-.279-.112-.336.107l-1.842 6.55-2.711-2.248c-.152-.123-.275-.12-.406.037l-.463.557c-.129.16-.103.269.045.395z" style="fill:#00a5da;fill-opacity:1;fill-rule:nonzero;stroke:none" transform="matrix(1.18605 0 0 -1.18605 144.403 208.44)"/></g></svg>