<svg xmlns="http://www.w3.org/2000/svg" width="197.99998mm" height="197.99998mm" viewBox="0 0 197.99998 197.99998"><defs><clipPath id="a"><path d="M380.207 151.586H456V228h-75.793zm0 0"/></clipPath></defs><g transform="translate(-32.066 -57.906)"><circle cx="131.06606" cy="156.90565" r="98.999992" style="fill:#f9f9f9;stroke:none;stroke-width:2.82403e-05"/><path d="M109.175 138.243a8.943 8.943 0 1 0-8.942 8.942 8.942 8.942 0 0 0 8.942-8.942" style="fill:#fddc02;fill-opacity:1;fill-rule:nonzero;stroke:none;stroke-width:.352778" transform="matrix(7.26635 0 0 7.26635 -597.663 -847.496)"/><path d="M105.875 138.243a5.642 5.642 0 1 0-11.285-.002 5.642 5.642 0 0 0 11.285.002" style="fill:#fff;fill-opacity:1;fill-rule:nonzero;stroke:none;stroke-width:.352778" transform="matrix(7.26635 0 0 7.26635 -597.663 -847.496)"/><path d="M92.3 146.014s-.532-.786-.093-1.79c0 0 .503 1.193.094 1.79M92.867 146.617s-.306-.964.19-1.601c0 0 .375 1.225-.19 1.601M93.785 147.441s-.495-.8-.07-1.6c0 0 .658 1.106.07 1.6" style="fill:#211e1e;fill-opacity:1;fill-rule:nonzero;stroke:none;stroke-width:.352778" transform="matrix(7.26635 0 0 7.26635 -597.663 -847.496)"/><path d="M92.3 146.014s-.305-.55-1.858-.48c0 0 1.295.888 1.859.48M92.844 146.712s-.99-.4-1.673 0c0 0 1.578.683 1.673 0M93.715 147.441s-.99-.164-1.531.306c0 0 1.484.425 1.53-.306" style="fill:#211e1e;fill-opacity:1;fill-rule:nonzero;stroke:none;stroke-width:.352778" transform="matrix(7.26635 0 0 7.26635 -597.663 -847.496)"/><path d="M92.3 146.014s1.014 1.686 2.568 2.064l.166-.212s-1.296.047-2.708-2.003l-.025.15M108.125 146.154s.535-.785.094-1.788c0 0-.502 1.192-.094 1.788M107.56 146.76s.306-.967-.188-1.602c0 0-.377 1.224.188 1.601M106.642 147.583s.495-.8.07-1.601c0 0-.658 1.107-.07 1.601" style="fill:#211e1e;fill-opacity:1;fill-rule:nonzero;stroke:none;stroke-width:.352778" transform="matrix(7.26635 0 0 7.26635 -597.663 -847.496)"/><path d="M108.125 146.154s.306-.55 1.86-.478c0 0-1.295.886-1.86.478M107.583 146.853s.99-.4 1.673 0c0 0-1.579.683-1.673 0M106.712 147.583s.99-.165 1.531.306c0 0-1.484.425-1.53-.306" style="fill:#211e1e;fill-opacity:1;fill-rule:nonzero;stroke:none;stroke-width:.352778" transform="matrix(7.26635 0 0 7.26635 -597.663 -847.496)"/><path d="M108.125 146.154s-1.012 1.688-2.566 2.065l-.165-.213s1.295.049 2.707-2l.024.148M90.855 142.533a.466.466 0 0 0-.081-.138c-.045-.043-.105-.052-.176-.028l-1.336.462c-.069.025-.109.066-.118.127a.465.465 0 0 0 .02.163l-.07.024-.286-.828c-.116-.335-.116-.62.002-.857.106-.216.297-.372.57-.467a.925.925 0 0 1 .706.026c.254.114.435.327.542.637l.296.855zm-.3-.675c.018-.027.018-.07-.004-.129a.544.544 0 0 0-.306-.337c-.149-.064-.385-.04-.707.071-.19.067-.345.15-.463.254-.19.167-.248.357-.174.57.024.07.055.112.093.123.024.007.064.001.12-.018l1.33-.461a.238.238 0 0 0 .111-.073M90.204 140.643a.218.218 0 0 0-.118-.151 1.25 1.25 0 0 0-.255-.081l-1.64-.414-.013-.08 1.403-.842c.158-.095.259-.162.303-.205.044-.041.06-.094.048-.158l.073-.011.13.919-.073.01a.644.644 0 0 0-.05-.18c-.017-.027-.048-.037-.098-.03a.373.373 0 0 0-.098.036c-.026.014-.056.03-.092.052l-.163.097.09.637.231.05c.078.014.133.02.166.014.041-.006.066-.037.077-.093a.496.496 0 0 0-.003-.15l.073-.01.08.581zm-.75-.98-.619.365.004.022.692.165-.077-.551M90.01 138.683l-.072-.004a.422.422 0 0 0-.027-.177c-.027-.055-.08-.084-.162-.088l-1.388-.063c-.083-.003-.14.022-.17.075a.433.433 0 0 0-.042.171l-.073-.003.074-1.652.578.026-.004.072c-.186.027-.315.084-.386.168-.072.084-.113.241-.123.47-.004.088.001.145.02.17.016.023.052.037.107.04l.663.03c.01-.164-.015-.276-.073-.338-.058-.06-.168-.11-.328-.149l.002-.071.965.044-.004.071c-.163.014-.28.051-.35.11-.069.061-.108.173-.114.337l.693.032c.06.003.102-.011.125-.042.024-.03.037-.093.041-.19a.847.847 0 0 0-.085-.453c-.066-.119-.194-.226-.386-.326l.004-.078.591.14-.075 1.678M89.465 136.664l.016-.082c.22 0 .388-.04.503-.12a.493.493 0 0 0 .215-.314c.028-.126.014-.222-.04-.289a.332.332 0 0 0-.19-.124.278.278 0 0 0-.223.04 1.028 1.028 0 0 0-.183.194l-.128.16c-.129.16-.243.267-.346.321a.499.499 0 0 1-.349.041.614.614 0 0 1-.353-.227c-.098-.121-.125-.282-.084-.482a.981.981 0 0 1 .11-.286c.051-.088.079-.139.082-.152.007-.03.003-.054-.013-.07a.22.22 0 0 0-.064-.043l.018-.083.61.13-.017.077a.87.87 0 0 0-.407.117.444.444 0 0 0-.226.304.314.314 0 0 0 .03.239c.04.064.096.104.17.12.09.019.162.008.216-.034a1.81 1.81 0 0 0 .268-.293l.15-.186a.823.823 0 0 1 .202-.189.544.544 0 0 1 .419-.072.602.602 0 0 1 .365.251c.102.137.128.327.076.57a.961.961 0 0 1-.137.326l-.033.05-.016.034c-.004.011-.009.022-.01.029-.005.029-.001.05.014.065.014.015.036.03.066.044l-.018.081-.693-.147M90.328 135.338a.364.364 0 0 0 .031-.161c-.007-.06-.048-.106-.124-.138l-1.286-.528c-.074-.03-.133-.029-.177.004a.464.464 0 0 0-.1.144l-.067-.03.368-.895.067.029a.477.477 0 0 0-.035.173c.007.062.048.108.124.14l.55.226.259-.633-.55-.225c-.075-.031-.137-.028-.182.008a.46.46 0 0 0-.1.152l-.068-.028.372-.904.067.028a.438.438 0 0 0-.031.174c.005.059.046.103.12.133l1.287.53c.077.031.14.026.188-.016a.395.395 0 0 0 .091-.14l.07.027-.373.904-.067-.027a.446.446 0 0 0 .035-.175c-.006-.06-.048-.108-.124-.138l-.611-.252-.26.63.612.253c.078.032.14.028.19-.015a.435.435 0 0 0 .093-.146l.067.029-.368.895-.068-.028M91.187 133.369a.47.47 0 0 0 .067-.166c.004-.064-.03-.118-.102-.162l-1.187-.722c-.072-.044-.134-.05-.186-.018a.488.488 0 0 0-.121.138l-.062-.039.52-.854.063.037a.494.494 0 0 0-.07.174c-.005.062.028.115.101.16l1.187.721c.067.042.125.05.17.027a.397.397 0 0 0 .14-.152l.063.039-.52.854-.063-.037M91.708 132.448c.066-.082.094-.147.084-.195-.008-.047-.04-.094-.097-.142l-1.042-.87c-.131.004-.21.008-.236.014a.148.148 0 0 0-.078.043l-.057-.047.387-.466 1.552.012.008-.01-.646-.54c-.074-.063-.14-.093-.193-.093-.055 0-.12.04-.194.116l-.057-.047.397-.476.057.047a.403.403 0 0 0-.07.178c-.002.039.031.087.099.142l1.299 1.084-.051.061-1.986-.015-.014.015.863.72a.359.359 0 0 0 .167.092c.07.008.145-.032.223-.12l.057.048-.415.497-.057-.048M93.206 128.373l.043.061c-.088.068-.14.124-.153.17-.012.048.012.115.076.205l.552.783c.084.118.164.2.237.245.137.084.277.074.422-.028.18-.126.254-.28.222-.457a.85.85 0 0 0-.164-.343l-.506-.716c-.059-.082-.114-.13-.168-.139-.054-.01-.128.014-.222.07l-.042-.059.516-.366.042.06a.426.426 0 0 0-.112.159c-.008.037.014.093.066.17l.53.746c.14.2.2.387.181.562-.02.177-.132.337-.337.483-.27.189-.509.24-.722.149a.765.765 0 0 1-.312-.275l-.554-.782c-.062-.089-.112-.135-.151-.142-.04-.005-.104.015-.192.064l-.043-.06.791-.56M95.113 129.308c.096-.046.15-.093.162-.138a.258.258 0 0 0-.026-.17l-.556-1.24a2.316 2.316 0 0 0-.218-.09.147.147 0 0 0-.09.003l-.03-.067.553-.248 1.39.69.012-.006-.345-.769c-.04-.088-.084-.145-.134-.167-.048-.023-.122-.018-.223.018l-.03-.067.564-.252.03.066a.436.436 0 0 0-.14.128c-.019.036-.009.092.025.172l.694 1.544-.073.033-1.778-.885-.018.008.459 1.024c.036.081.073.132.11.156.06.038.143.035.252-.008l.03.067-.59.265-.03-.068M96.952 128.525a.437.437 0 0 0 .161-.076c.047-.044.06-.106.037-.187l-.372-1.34c-.023-.08-.065-.126-.125-.139a.486.486 0 0 0-.182.018l-.02-.072.965-.268.02.071a.512.512 0 0 0-.17.079c-.046.043-.058.105-.034.186l.372 1.338c.022.077.057.123.107.136a.411.411 0 0 0 .205-.015l.02.07-.965.27-.02-.071M98.683 126.243l.01.073a.747.747 0 0 0-.196.051c-.028.015-.04.045-.035.092a.253.253 0 0 0 .028.08l.58.997h-.002l.257-1.01c.005-.021.01-.045.013-.067a.305.305 0 0 0 .006-.09c-.007-.053-.026-.085-.06-.094a.7.7 0 0 0-.2-.007l-.007-.073.605-.075.01.073a.265.265 0 0 0-.15.08.474.474 0 0 0-.08.186l-.443 1.75-.076.01-.94-1.613a.481.481 0 0 0-.109-.137.236.236 0 0 0-.153-.036l-.008-.073.95-.117M99.93 128.048l.005-.073a.4.4 0 0 0 .178-.022c.055-.026.085-.08.09-.161l.086-1.386c.004-.083-.019-.14-.073-.173a.44.44 0 0 0-.17-.044l.005-.073 1.65.102-.035.576-.073-.004c-.024-.186-.079-.315-.162-.388-.082-.073-.238-.117-.468-.131-.087-.005-.143 0-.168.016-.025.017-.039.053-.043.106l-.041.663c.164.013.277-.01.339-.067.06-.058.113-.166.153-.327l.073.005-.06.963-.073-.004c-.01-.164-.045-.282-.104-.352-.058-.07-.17-.11-.334-.12l-.043.691c-.004.061.01.104.04.127.03.024.093.039.19.046a.84.84 0 0 0 .453-.08c.12-.064.23-.189.332-.38l.078.006-.15.588-1.676-.104M101.768 128.084c.095.02.163.018.205-.005.042-.02.076-.084.102-.187l.312-1.227c.027-.107.025-.182-.007-.224-.022-.03-.079-.06-.171-.091l.02-.072.892.227c.186.047.33.105.436.174.202.135.277.304.224.51a.455.455 0 0 1-.244.317.585.585 0 0 1-.28.062l.323.923a.104.104 0 0 0 .037.055c.015.011.035.02.06.029l-.017.066-.568-.145-.355-1.014-.073-.018-.138.542c-.025.098-.025.168-.001.21.023.042.083.078.179.105l-.018.072-.936-.238zm1.328-.686c.091-.03.159-.131.203-.306a.625.625 0 0 0 .02-.267c-.024-.119-.104-.196-.242-.23-.074-.02-.125-.023-.153-.01-.027.012-.047.04-.058.082l-.179.708c.182.043.318.051.41.023M103.985 128.074l.075.035c-.046.214-.042.386.012.517.054.13.142.222.262.277.117.052.215.059.292.02a.333.333 0 0 0 .16-.16.28.28 0 0 0 .008-.225 1.03 1.03 0 0 0-.152-.221l-.13-.16c-.129-.158-.209-.293-.24-.405a.5.5 0 0 1 .033-.349.615.615 0 0 1 .296-.297c.14-.07.303-.064.49.02.096.043.18.098.256.167.075.07.12.106.132.112.029.012.052.014.07 0a.216.216 0 0 0 .057-.052l.077.035-.255.569-.073-.032a.862.862 0 0 0-.028-.424.447.447 0 0 0-.25-.285.312.312 0 0 0-.239-.02.247.247 0 0 0-.154.142c-.039.082-.042.155-.013.217.028.063.105.17.232.325l.149.185a.812.812 0 0 1 .142.237.541.541 0 0 1-.017.424.609.609 0 0 1-.322.305c-.156.071-.348.056-.575-.046a1.003 1.003 0 0 1-.29-.203l-.04-.042a.78.78 0 0 0-.031-.024c-.01-.007-.02-.01-.026-.015-.028-.012-.05-.012-.066 0a.26.26 0 0 0-.057.054l-.076-.033.291-.648M105.09 129.242c.07.04.124.062.163.066.065.004.12-.03.164-.1l.725-1.187c.043-.07.048-.134.016-.186a.46.46 0 0 0-.136-.122l.039-.062.853.521-.038.064a.559.559 0 0 0-.173-.07c-.062-.005-.116.028-.16.101l-.725 1.185c-.041.068-.05.126-.026.171a.397.397 0 0 0 .151.14l-.038.063-.855-.522.039-.062M107.214 128.353l1.328 1.095-.365.448-.063-.052c.11-.178.14-.335.088-.472a.715.715 0 0 0-.205-.256l-.962 1.166c-.068.081-.098.147-.092.197.007.05.055.112.144.186l-.045.057-.79-.652.046-.057c.088.073.157.108.208.104.05-.003.11-.044.176-.126l.962-1.164a.728.728 0 0 0-.29-.155c-.152-.03-.301.03-.446.177l-.063-.053.369-.443M109.464 130.47l-.056.048a1.024 1.024 0 0 0-.14-.131c-.024-.017-.049-.014-.072.004-.01.01-.02.02-.028.034-.008.014-.022.04-.041.08l-.284.732h.001l.583-.084a.869.869 0 0 0 .127-.025.422.422 0 0 0 .147-.06c.039-.031.053-.068.039-.11a.66.66 0 0 0-.094-.154l.057-.048.403.483-.056.047a.694.694 0 0 0-.094-.065c-.036-.015-.074-.02-.117-.015l-1.034.152-.405.337c-.084.07-.125.13-.125.178 0 .05.032.115.095.195l-.057.046-.638-.763.057-.048c.07.081.13.124.178.128.048.007.113-.025.193-.092l.323-.27.395-1.01a.306.306 0 0 0 .018-.183.23.23 0 0 0-.046-.095l.057-.047.614.736M109.03 132.973c.036.07.07.116.1.138.05.039.112.04.188.004l1.258-.587c.075-.034.115-.081.119-.14a.434.434 0 0 0-.043-.171l.068-.032.41.88-.067.032c-.048-.085-.094-.138-.134-.157-.041-.02-.11-.006-.21.041l-.553.26.821.29c.058.021.097.033.119.036.022.004.045 0 .069-.01.033-.016.046-.04.042-.075a.984.984 0 0 0-.06-.185l.067-.032.35.753-.066.031a.71.71 0 0 0-.27-.28 6.084 6.084 0 0 0-.704-.28l-.618 1.247c-.012.027-.018.05-.013.07 0 .02.01.048.023.085l-.066.03-.408-.872.067-.03c.038.077.065.13.085.156.019.025.04.033.064.022a.098.098 0 0 0 .036-.035.521.521 0 0 0 .047-.081l.372-.743-.096-.033-.51.237c-.075.035-.113.084-.117.148a.408.408 0 0 0 .042.164l-.067.03-.41-.88.065-.031M111.909 136.26a.977.977 0 0 1-.652.453.978.978 0 0 1-.785-.12.992.992 0 0 1-.434-.639.984.984 0 0 1 .747-1.218c.292-.068.552-.032.784.109a.983.983 0 0 1 .45.65.988.988 0 0 1-.11.765zm-1.306.016c.144.011.323-.008.54-.057.296-.07.51-.166.64-.29.129-.122.177-.26.141-.412-.048-.21-.207-.326-.477-.347-.142-.01-.32.01-.533.058a1.878 1.878 0 0 0-.511.184c-.229.135-.32.308-.27.519.048.209.204.325.47.345M110.397 136.978c.008.096.028.161.06.196.034.034.103.05.209.048l1.266-.035c.11-.003.18-.026.214-.069.02-.027.034-.09.04-.188l.074-.001.025.922c.005.191-.01.345-.048.465-.074.232-.218.35-.429.356a.46.46 0 0 1-.373-.149.592.592 0 0 1-.135-.254l-.8.563a.122.122 0 0 0-.043.052.169.169 0 0 0-.011.065l-.07.003-.015-.587.88-.618-.003-.075-.56.015c-.1.003-.168.02-.202.055-.035.034-.051.102-.053.203h-.073l-.026-.964zm1.023 1.091c.05.08.168.117.35.112a.624.624 0 0 0 .26-.052c.11-.057.162-.156.157-.297-.003-.077-.012-.127-.033-.15-.019-.023-.05-.034-.095-.033l-.73.02c.008.187.037.32.09.4M110.371 138.954l.073.011a.435.435 0 0 0 .004.18c.022.057.073.091.153.104l1.371.219c.083.014.142-.005.18-.055a.464.464 0 0 0 .059-.165l.073.01-.26 1.635-.57-.091.011-.072c.187-.007.321-.048.402-.124.08-.074.14-.226.175-.453.014-.087.014-.143 0-.17-.014-.026-.049-.044-.101-.052l-.656-.105c-.029.162-.017.276.034.343.051.068.155.129.31.185l-.01.072-.954-.153.01-.07c.165.003.285-.018.36-.07.076-.053.127-.16.153-.322l-.684-.109c-.061-.01-.104 0-.13.026-.028.028-.048.09-.063.185a.84.84 0 0 0 .034.459c.052.125.167.248.346.367l-.012.08-.572-.209.264-1.656M110.159 140.785a.217.217 0 0 0 .032.19c.024.036.088.1.187.19l1.26 1.13-.027.077-1.633.09a2.171 2.171 0 0 0-.363.04.17.17 0 0 0-.118.119l-.07-.025.316-.872.069.025a.683.683 0 0 0-.04.18c0 .032.026.057.071.073a.363.363 0 0 0 .105.014c.029 0 .063 0 .105-.003l.19-.011.218-.604c-.094-.078-.155-.13-.184-.151a.538.538 0 0 0-.139-.091c-.038-.014-.076.001-.113.047a.577.577 0 0 0-.065.134l-.069-.025.198-.551zm.205 1.217.717-.034.008-.022-.536-.468-.19.524M91.233 138.226c0 4.97 4.043 9.013 9.012 9.013 4.97 0 9.011-4.043 9.011-9.013 0-4.969-4.042-9.012-9.01-9.012-4.97 0-9.013 4.043-9.013 9.012zm.045 0c0-4.944 4.023-8.966 8.967-8.966 4.945 0 8.967 4.022 8.967 8.966 0 4.945-4.022 8.967-8.967 8.967-4.944 0-8.967-4.022-8.967-8.967" style="fill:#211e1e;fill-opacity:1;fill-rule:nonzero;stroke:none;stroke-width:.352778" transform="matrix(7.26635 0 0 7.26635 -597.663 -847.496)"/><path d="M90.763 138.226c0 5.229 4.254 9.483 9.482 9.483 5.229 0 9.483-4.254 9.483-9.483 0-5.228-4.254-9.482-9.483-9.482-5.228 0-9.482 4.254-9.482 9.482zm.045 0c0-5.203 4.234-9.436 9.437-9.436 5.204 0 9.437 4.233 9.437 9.436 0 5.204-4.233 9.437-9.437 9.437-5.203 0-9.437-4.233-9.437-9.437" style="fill:#211e1e;fill-opacity:1;fill-rule:nonzero;stroke:none;stroke-width:.352778" transform="matrix(7.26635 0 0 7.26635 -597.663 -847.496)"/><path d="M100.128 138.226a.117.117 0 1 0 .234 0 .118.118 0 0 0-.117-.118.118.118 0 0 0-.117.118zm.044 0c0-.038.033-.073.073-.073.04 0 .072.034.072.073 0 .04-.032.072-.072.072a.072.072 0 0 1-.073-.072M100.218 129.237h.045v-.464h-.045zM100.53 129.242h.046l.017-.462-.046-.003-.016.464M100.845 129.257l.045.003.033-.463-.045-.003-.033.463M101.158 129.284l.044.004.048-.461-.044-.006-.048.463M101.469 129.322l.044.006.065-.46-.046-.007-.063.46M101.779 129.37l.044.007.08-.458-.044-.008-.08.46M102.086 129.428l.044.01.097-.455-.044-.01-.097.455M102.392 129.498l.044.01.112-.45-.044-.01-.112.45M102.695 129.578l.043.014.128-.448-.042-.013-.129.447M102.996 129.669l.043.014.144-.441-.044-.016-.143.443M103.292 129.77l.043.016.158-.437-.041-.015-.16.437M103.586 129.881l.041.018.175-.431-.041-.017-.175.43M103.875 130.004l.041.018.19-.425-.04-.018-.191.425M104.16 130.135l.04.02.204-.417-.041-.021-.203.418M104.439 130.278l.04.02.219-.41-.04-.02-.22.41M104.714 130.428l.039.022.233-.402-.04-.022-.232.402M104.984 130.59l.038.023.246-.394-.038-.025-.246.395M105.248 130.759l.037.025.26-.385-.037-.026-.26.386M105.505 130.938l.036.026.274-.375-.037-.027-.273.376M105.756 131.125l.036.03.285-.367-.036-.03-.285.367M106 131.322l.036.03.297-.356-.034-.03-.3.356M106.238 131.528l.033.03.312-.346-.034-.03-.31.346M106.469 131.741l.031.03.323-.333-.033-.032-.322.335M106.69 131.962l.032.033.334-.323-.032-.033-.334.323M106.905 132.19l.03.034.345-.31-.03-.035-.345.312M107.11 132.428l.031.034.356-.299-.03-.034-.356.299M107.31 132.67l.027.036.366-.287-.027-.035-.367.286M107.5 132.92l.025.037.377-.273-.027-.037-.376.273M107.68 133.177l.025.037.384-.26-.025-.037-.384.26M107.85 133.44l.025.038.395-.247-.025-.039-.394.247M108.013 133.708l.024.038.4-.231-.021-.04-.403.233M108.166 133.982l.022.04.41-.22-.021-.038-.41.218M108.31 134.26l.019.042.417-.204-.019-.042-.417.204M108.443 134.544l.018.042.425-.19-.02-.04-.423.188M108.566 134.834l.018.041.43-.174-.017-.042-.431.175M108.68 135.126l.015.043.436-.16-.015-.043-.436.16M108.782 135.422l.014.043.442-.144-.013-.044-.443.145M108.875 135.721l.012.044.448-.128-.014-.044-.446.128M108.957 136.024l.011.044.45-.113-.01-.044-.45.113M109.029 136.329l.01.044.455-.097-.01-.044-.455.097M109.09 136.638l.008.044.457-.08-.008-.044-.457.08M109.14 136.946l.006.046.459-.065-.006-.046-.46.065M109.18 137.259l.003.044.463-.048-.005-.046-.462.05M109.207 137.57l.004.046.463-.033-.004-.044-.463.031M109.225 137.883v.046l.465-.017-.001-.045-.464.016M109.23 138.197v.046l.466-.001v-.044h-.466M109.225 138.556l.464.016.001-.045-.464-.017-.001.046M109.207 138.869l.464.033.003-.046-.463-.032-.004.045M109.18 139.181l.46.05.006-.045-.462-.05-.005.045M109.14 139.493l.46.065.006-.044-.46-.065-.005.044M109.09 139.803l.46.08.007-.044-.458-.08-.008.044M109.03 140.11l.455.097.01-.044-.455-.097-.01.044M108.959 140.416l.452.112.01-.044-.451-.112-.011.044M108.877 140.72l.447.126.012-.043-.446-.128-.013.044M108.785 141.018l.442.144.014-.043-.442-.143-.014.042M108.682 141.316l.436.157.016-.041-.436-.159-.016.043M108.569 141.607l.431.175.016-.043-.43-.174-.017.042M108.446 141.896l.424.189.018-.041-.424-.19-.018.042M108.312 142.18l.418.204.02-.041-.417-.203-.02.04M108.17 142.458l.411.22.02-.04-.41-.218-.02.038M108.017 142.733l.403.232.022-.04-.402-.231-.022.039M107.855 143.003l.394.245.023-.039-.394-.246-.023.04M107.684 143.265l.386.259.025-.038-.386-.259-.025.038M107.502 143.522l.378.272.026-.036-.376-.273-.028.037M107.315 143.772l.366.285.026-.036-.365-.285-.027.036M107.116 144.014l.356.3.029-.035-.356-.3-.029.035M106.91 144.251l.345.31.03-.033-.345-.31-.03.033M106.696 144.48l.333.324.032-.033-.335-.324-.03.033M106.473 144.702l.323.333.034-.031-.324-.334-.033.032M106.243 144.915l.31.345.035-.03-.312-.345-.033.03M106.005 145.12l.3.356.034-.029-.299-.355-.035.029M105.762 145.316l.288.367.034-.028-.287-.366-.035.027M105.51 145.505l.275.375.036-.026-.274-.375-.036.026M105.253 145.684l.262.385.037-.025-.262-.384-.037.024M104.99 145.855l.247.393.038-.023-.247-.393-.038.023M104.721 146.015l.233.402.039-.022-.233-.402-.039.022M104.446 146.168l.219.41.04-.021-.218-.411-.041.022M104.166 146.31l.205.418.04-.021-.204-.418-.041.021M103.882 146.44l.19.425.041-.018-.19-.424-.041.018M103.593 146.564l.175.43.042-.017-.176-.431-.041.018M103.299 146.675l.16.437.043-.017-.16-.435-.043.015M103.003 146.777l.144.441.045-.014-.147-.442-.042.015M102.702 146.867l.13.448.044-.013-.13-.448-.044.013M102.4 146.948l.112.45.044-.01-.113-.451-.044.011M102.093 147.018l.098.455.044-.01-.098-.455-.044.01M101.786 147.076l.081.46.044-.009-.081-.457-.044.007M101.476 147.126l.066.46.044-.007-.066-.46-.044.007M101.164 147.163l.05.462.046-.004-.051-.463-.045.006M100.852 147.19l.034.464.044-.003-.033-.465-.045.003M100.539 147.206l.018.464h.044l-.017-.467-.045.003M100.225 147.21v.466h.046v-.466h-.046M99.897 147.669h.045l.015-.464h-.045l-.015.464M99.567 147.65l.046.005.03-.465-.044-.003-.032.463M99.238 147.622l.045.004.047-.462-.045-.005-.047.463M98.911 147.58l.044.006.064-.46-.044-.006-.064.46M98.585 147.528l.045.008.079-.457-.044-.008-.08.457M98.26 147.465l.046.01.095-.455-.044-.01-.096.455M97.941 147.39l.043.011.112-.452-.045-.01-.11.451M97.621 147.304l.045.013.126-.448-.044-.012-.127.447M97.307 147.207l.043.014.142-.442-.044-.014-.14.442M96.994 147.1l.043.015.159-.437-.043-.015-.159.437M96.687 146.98l.042.018.173-.433-.043-.017-.172.432M96.384 146.85l.041.018.188-.424-.042-.018-.187.424M96.085 146.711l.04.02.204-.418-.041-.02-.203.418M95.791 146.56l.04.023.217-.412-.04-.02-.217.41M95.503 146.4l.039.022.232-.403-.039-.023-.232.404M95.221 146.23l.037.023.247-.394-.039-.023-.245.394M94.944 146.05l.039.024.257-.386-.037-.026-.259.388M94.675 145.86l.036.027.273-.378-.037-.026-.272.378M94.41 145.66l.036.028.286-.366-.035-.029-.286.368M94.156 145.453l.034.029.298-.357-.035-.03-.297.358M93.906 145.235l.033.03.312-.345-.035-.03-.31.345M93.667 145.01l.031.032.323-.336-.033-.032-.321.336M93.432 144.776l.032.033.333-.325-.03-.032-.335.324M93.208 144.535l.03.033.344-.311-.028-.033-.346.311M92.993 144.286l.029.034.355-.299-.03-.036-.354.3M92.785 144.03l.029.034.365-.287-.028-.036-.366.288M92.588 143.765l.026.037.376-.276-.028-.037-.374.276M92.399 143.495l.026.037.383-.262-.025-.037-.384.262M92.22 143.218l.024.038.393-.248-.023-.038-.394.248M92.05 142.935l.024.039.4-.234-.023-.04-.4.235M91.89 142.646l.022.04.41-.22-.021-.04-.41.22M91.741 142.352l.021.04.416-.205-.02-.041-.417.206M91.602 142.052l.018.041.426-.19-.02-.041-.424.19M91.474 141.747l.017.043.43-.175-.017-.043-.43.175M91.357 141.44l.015.041.436-.16-.016-.042-.435.161M91.25 141.129l.015.042.44-.146-.013-.043-.443.147M91.153 140.812l.014.044.446-.13-.012-.044-.448.13M91.069 140.493l.01.044.453-.114-.012-.044-.451.114M90.996 140.17l.01.045.453-.098-.01-.043-.453.097M90.933 139.848l.008.044.459-.082-.009-.044-.458.082M90.883 139.522l.005.045.46-.067-.005-.044-.46.066M90.843 139.194l.004.045.463-.05-.005-.045-.462.05M90.814 138.866l.004.045.464-.034-.004-.046-.464.035M90.797 138.536l.003.046.465-.02-.003-.043-.465.017M90.793 138.206v.045h.465v-.046h-.465M90.797 137.922l.466.014.002-.044-.466-.016-.002.046M90.814 137.593l.464.03.003-.046-.464-.03-.003.046M90.842 137.263l.463.047.004-.044-.463-.047-.004.044M90.882 136.937l.46.062.005-.045-.46-.063-.005.046M90.933 136.609l.457.08.008-.045-.459-.08-.006.045M90.993 136.286l.456.095.009-.044-.455-.096-.01.045M91.068 135.964l.45.111.011-.044-.45-.11-.011.043M91.152 135.645l.447.127.013-.044-.448-.127-.012.044M91.248 135.328l.442.144.014-.043-.444-.143-.012.042M91.354 135.017l.437.157.015-.043-.437-.157-.015.043M91.471 134.708l.432.174.016-.043-.431-.172-.017.041M91.6 134.405l.424.188.018-.042-.425-.187-.018.041M91.737 134.106l.42.203.018-.042-.418-.202-.02.041M91.886 133.811l.412.218.02-.041-.411-.217-.02.04M92.046 133.522l.402.231.024-.04-.404-.23-.022.039M92.214 133.24l.396.245.024-.039-.395-.245-.025.038M92.393 132.96l.386.26.026-.037-.387-.26-.025.038M92.582 132.69l.376.274.028-.038-.378-.272-.026.037M92.78 132.426l.367.286.028-.036-.368-.286-.028.036M92.987 132.17l.357.298.029-.035-.357-.298-.029.035M93.202 131.92l.347.31.03-.034-.347-.31-.03.035M93.427 131.678l.335.322.031-.033-.335-.32-.031.031M93.658 131.444l.325.335.032-.032-.324-.335-.033.032M93.9 131.22l.312.344.033-.03-.313-.345-.033.03M94.149 131.001l.299.356.034-.03-.3-.355-.033.03M94.404 130.793l.288.367.036-.03-.288-.366-.036.03M94.666 130.593l.275.377.037-.027-.275-.376-.037.026M94.937 130.403l.26.386.04-.026-.263-.385-.037.025M95.213 130.223l.248.394.037-.024-.247-.394-.038.024M95.494 130.052l.235.404.039-.024-.234-.402-.04.022M95.783 129.89l.22.411.04-.02-.22-.411-.04.02M96.077 129.742l.205.417.04-.02-.205-.418-.04.02M96.376 129.601l.19.423.041-.018-.19-.424-.041.02M96.679 129.472l.175.43.041-.017-.175-.431-.041.018M96.986 129.352l.16.437.043-.016-.16-.436-.043.015M97.298 129.243l.144.442.044-.013-.146-.443-.042.014M97.612 129.147l.13.446.043-.012-.13-.447-.043.013M97.932 129.06l.113.45.044-.01-.113-.452-.044.011M98.253 128.985l.097.455.045-.01-.098-.455-.044.01M98.576 128.92l.083.46.044-.009-.082-.457-.045.007M98.902 128.868l.066.46.044-.005-.065-.461-.045.007M99.23 128.827l.05.463.045-.004-.051-.463-.044.004M99.558 128.798l.034.463.046-.003-.035-.463-.045.003M99.887 128.78l.018.464h.045l-.019-.466-.044.003" style="fill:#211e1e;fill-opacity:1;fill-rule:nonzero;stroke:none;stroke-width:.352778" transform="matrix(7.26635 0 0 7.26635 -597.663 -847.496)"/><g clip-path="url(#a)" transform="matrix(2.5634 0 0 2.5634 -940.62 -328.42)"><path d="M380.207 189.328c0 20.813 16.93 37.742 37.742 37.742 20.809 0 37.742-16.93 37.742-37.742 0-20.808-16.933-37.742-37.742-37.742-20.812 0-37.742 16.934-37.742 37.742zm.297 0c0-20.644 16.797-37.441 37.445-37.441 20.649 0 37.442 16.797 37.442 37.441 0 20.649-16.793 37.445-37.442 37.445-20.648 0-37.445-16.796-37.445-37.445" style="fill:#eb1923;fill-opacity:1;fill-rule:nonzero;stroke:none"/></g><path d="M87.468 138.226c0 7.046 5.731 12.779 12.777 12.779 7.045 0 12.777-5.733 12.777-12.779 0-7.044-5.732-12.777-12.777-12.777-7.046 0-12.777 5.733-12.777 12.777zm.105 0c0-6.986 5.684-12.672 12.672-12.672 6.987 0 12.673 5.686 12.673 12.672 0 6.988-5.686 12.674-12.673 12.674-6.988 0-12.672-5.686-12.672-12.674" style="fill:#211e1e;fill-opacity:1;fill-rule:nonzero;stroke:none;stroke-width:.352778" transform="matrix(7.26635 0 0 7.26635 -597.663 -847.496)"/><path d="m97.835 139.553.372-.895.325.872zm.962.684-.103.001c-.106.006-.18.027-.226.069a.223.223 0 0 0-.07.164c-.002.066.019.12.061.158.043.04.117.058.224.053l.562-.017c.109-.004.186-.027.231-.069a.233.233 0 0 0 .07-.162.232.232 0 0 0-.083-.18c-.028-.024-.097-.037-.206-.033l-.809-2.159-.91.03c-.11.004-.188.027-.232.07a.223.223 0 0 0-.072.162c0 .066.02.12.064.158.042.039.118.058.228.054l.283-.01-.735 1.767c-.108.003-.186.026-.23.069a.217.217 0 0 0-.07.162.191.191 0 0 0 .062.159c.043.038.119.056.227.053l.563-.019c.106-.003.182-.026.227-.067a.225.225 0 0 0 .07-.164.192.192 0 0 0-.063-.157c-.043-.04-.117-.058-.223-.054l-.104.003.115-.276 1.048-.034.101.268M102.487 140.642l1.016-.014s.262-.44-.083-.494h-.534s.707-.208.63-1.333c-.068-1.016-.905-1.14-1.344-1.098 0 0-1.223 0-1.167 1.305 0 0-.028.727.644 1.18 0 0-.59-.082-.617.056-.027.136-.069.48.412.426 0 0 .619.136.673-.304 0 0 .137-.452-.123-.522-.262-.067-.522-.37-.522-.933 0-.562.485-.86.893-.796.438.069.67.206.67.851s-.355.81-.548.92c0 0-.233.358 0 .756M97.233 135.677h-.488c.012-.07.159-.548.391-.493.131.033.156.235.097.493zm-.431.646c.504.123.855-1.079.351-1.201-.502-.123-.859 1.079-.351 1.201zm.417-.592c-.032.128-.186.583-.4.53-.139-.034-.158-.253-.09-.53h.49M97.558 136.106c0-.11.109-.197.278-.211-.135-.015-.246-.076-.246-.19 0-.255.64-.28.704-.049.023.08-.134.116-.142 0-.011-.13-.418-.154-.418.051 0 .127.162.164.27.159.04-.001.094-.004.094.032 0 .045-.143.023-.143.023-.156.001-.252.079-.252.18 0 .235.49.247.474.047-.01-.122.173-.106.143 0-.08.283-.762.25-.762-.042M98.957 135.58c.336.083.13.775-.204.692-.34-.082-.132-.773.204-.691zm-.218.743c.52.127.752-.665.234-.792-.52-.13-.758.667-.234.792M99.957 136.113c-.053-.16-.041-.455-.041-.455s-.26.355-.323.526c-.035.1-.099.171-.168.15-.09-.024.017-.197.073-.28.123-.177.411-.498.411-.5.003-.005.023-.155-.056-.221-.067-.054-.118-.053-.16-.083-.033-.02-.04-.076-.007-.104.048-.045.21-.048.282.144.058.154.028.253.026.288-.004.06-.024.296.057.456.073.143.147.231.091.278-.079.066-.138-.056-.185-.2M100.831 135.58c.336.083.13.775-.203.692-.34-.082-.133-.773.203-.691zm-.218.743c.52.127.754-.665.234-.792-.519-.13-.757.667-.234.792M101.915 135.845c-.15.168-.165.189-.238.328-.047.088-.06.16-.09.237-.04.11-.104.167-.177.135-.05-.02-.032-.114.013-.182.04-.063.162-.233.158-.252 0 0 .07-.44-.138-.5-.146-.043-.193.157-.233.13-.039-.028.05-.239.245-.224.269.018.215.48.217.478 0 0 .066-.08.15-.197.114-.16.178-.34.282-.264.075.053-.073.183-.189.311M102.39 136.336c-.163-.028-.156-.167-.15-.212.015-.085.112-.377.129-.433.034-.115.05-.193.143-.172.07.015.058.092.02.172a7.46 7.46 0 0 0-.142.33c-.03.072-.091.18.042.2.113.016.161-.082.189-.024.02.042-.128.158-.23.139M103.401 135.603c.222.077-.084.752-.347.634-.211-.093.132-.712.347-.634zm.354-.06c-.054-.026-.08.042-.094.078a3.128 3.128 0 0 1-.104.184s.022-.186-.11-.25c-.353-.169-.814.545-.477.738.186.105.4-.08.421-.114.007.026.02.058.05.09.055.045.183.074.229.006.045-.071-.14-.012-.159-.135-.014-.1.054-.19.115-.284.078-.12.219-.268.13-.312M102.67 135.377a.1.1 0 1 1-.201 0 .1.1 0 0 1 .101-.101c.055 0 .1.046.1.1M92.334 137.576l.033-.248a.25.25 0 0 1 .092-.18.22.22 0 0 1 .167-.046.236.236 0 0 1 .171.106c.043.06.06.14.047.233l-.028.198zm.765-.105a.488.488 0 0 0-.01-.21.533.533 0 0 0-.09-.17.488.488 0 0 0-.132-.13.564.564 0 0 0-.206-.069.498.498 0 0 0-.363.08.442.442 0 0 0-.187.324l-.065.49c-.007.054 0 .093.02.118.02.025.049.041.087.047a.136.136 0 0 0 .098-.022c.026-.018.043-.055.05-.109l.004-.035 1.005.136-.005.033c-.008.055-.001.093.02.118.02.026.05.04.088.046a.14.14 0 0 0 .096-.021c.028-.02.044-.055.051-.109l.061-.459c.007-.055.001-.094-.02-.12a.136.136 0 0 0-.089-.044.123.123 0 0 0-.096.02c-.027.019-.043.056-.05.11l-.029.213-.264-.034.026-.203M92.698 135.915l.966.3.065-.206c.015-.052.038-.084.067-.098a.126.126 0 0 1 .1-.005.14.14 0 0 1 .08.06c.014.028.014.068 0 .12l-.192.617c-.017.05-.04.085-.07.098a.12.12 0 0 1-.097.004.131.131 0 0 1-.08-.058c-.017-.03-.017-.07 0-.12l.065-.207-.968-.3-.064.205c-.017.052-.038.085-.067.1a.13.13 0 0 1-.099.004.128.128 0 0 1-.08-.06c-.015-.027-.015-.067 0-.12l.192-.616c.016-.052.037-.084.067-.099a.134.134 0 0 1 .1-.004.14.14 0 0 1 .08.06c.015.028.015.068 0 .12l-.065.206M93.684 135.145l.337.174.252-.49-.126-.063c-.056-.029-.092-.06-.107-.088a.096.096 0 0 1 0-.087.089.089 0 0 1 .072-.05c.031-.006.077.007.133.035l.354.183-.463.897c-.026.049-.055.076-.084.086a.137.137 0 0 1-.099-.014.13.13 0 0 1-.067-.072c-.011-.03-.003-.07.02-.118l.017-.03-.9-.466-.017.032c-.023.048-.05.077-.082.085a.133.133 0 0 1-.098-.014.133.133 0 0 1-.069-.072c-.01-.03-.004-.07.022-.118l.444-.856.347.178c.055.03.091.06.106.088a.092.092 0 0 1-.001.087.089.089 0 0 1-.07.051c-.032.004-.076-.007-.134-.036l-.119-.062-.231.448.336.175.087-.17c-.058-.028-.09-.053-.1-.072-.019-.04-.021-.075-.008-.104a.097.097 0 0 1 .07-.05c.034-.003.078.009.134.038l.23.12c.056.027.089.052.098.07.02.04.024.073.009.102-.016.028-.045.045-.089.052-.022.006-.06-.008-.117-.037l-.087.168M94.074 133.337l.801.622.088-.115c.033-.044.066-.066.098-.069.033-.004.063.008.095.03.03.025.048.052.053.085.005.031-.009.069-.042.111l-.307.396c-.033.044-.066.067-.098.07a.13.13 0 0 1-.094-.032.127.127 0 0 1-.053-.082c-.006-.032.008-.07.04-.113l.09-.113-.8-.62-.143.183.191.15c.051.04.081.075.088.106.01.033.006.062-.015.087a.09.09 0 0 1-.078.036c-.033-.001-.073-.02-.124-.06l-.396-.308.677-.874.395.308c.051.038.08.074.09.106.008.03.004.059-.017.085a.09.09 0 0 1-.078.036c-.033 0-.075-.02-.124-.06l-.193-.15-.144.185M95.279 132.91l-.212-.499.47.266zm.642-.018-.039.036c-.04.034-.059.067-.06.1 0 .032.012.064.038.091a.13.13 0 0 0 .087.049c.032.003.068-.014.108-.049l.208-.187c.041-.036.062-.07.062-.103.001-.032-.013-.062-.039-.091a.148.148 0 0 0-.102-.05c-.022 0-.052.017-.092.051l-1.169-.659-.339.304c-.04.035-.06.071-.06.103a.125.125 0 0 0 .037.09.13.13 0 0 0 .087.05c.031.002.069-.015.109-.05l.104-.096.42.984c-.04.038-.061.07-.061.104a.128.128 0 0 0 .035.09.139.139 0 0 0 .089.049c.031.003.067-.014.108-.05l.209-.187c.04-.036.06-.069.06-.102.002-.032-.012-.062-.038-.091a.125.125 0 0 0-.086-.047c-.033-.004-.069.012-.107.047l-.039.034-.066-.152.391-.35.145.082M96.554 132.663a.195.195 0 0 1-.013.068.073.073 0 0 1-.03.031.096.096 0 0 1-.087.008c-.03-.012-.062-.044-.095-.095l-.092-.148c-.033-.054-.049-.096-.046-.129a.095.095 0 0 1 .046-.075.09.09 0 0 1 .067-.014c.024.006.048.02.076.047.027.027.05.044.065.05a.376.376 0 0 0 .3-.046.348.348 0 0 0 .157-.195.158.158 0 0 0-.087-.194.209.209 0 0 0-.115-.01c-.03.003-.094.023-.188.056a.871.871 0 0 1-.274.06.393.393 0 0 1-.204-.056.467.467 0 0 1-.161-.159.465.465 0 0 1-.064-.343.438.438 0 0 1 .21-.296.513.513 0 0 1 .142-.062.392.392 0 0 1 .144-.011c.005-.044.02-.073.045-.088a.095.095 0 0 1 .086-.008c.03.012.064.044.095.096l.104.164c.033.053.048.097.045.128a.092.092 0 0 1-.045.076.094.094 0 0 1-.073.013c-.02-.004-.046-.023-.075-.056a.263.263 0 0 0-.074-.062.232.232 0 0 0-.119-.019.313.313 0 0 0-.139.047.256.256 0 0 0-.12.153c-.015.06-.01.112.016.152a.165.165 0 0 0 .073.063c.031.016.067.022.107.016.026-.003.092-.022.2-.057a1.02 1.02 0 0 1 .259-.062.37.37 0 0 1 .204.045.473.473 0 0 1 .174.17c.068.108.09.216.068.32a.507.507 0 0 1-.242.33.572.572 0 0 1-.16.07.652.652 0 0 1-.18.022M98.181 131.193l.083.37.534-.12-.03-.138c-.014-.062-.015-.108-.001-.138a.096.096 0 0 1 .152-.035c.024.022.042.064.057.126l.087.388-.985.22c-.053.013-.093.009-.119-.01a.12.12 0 0 1-.052-.083.124.124 0 0 1 .01-.098c.017-.028.052-.048.104-.06l.035-.007-.22-.987-.035.007c-.053.012-.093.008-.119-.01a.123.123 0 0 1-.052-.084c-.01-.037-.007-.07.01-.098.017-.029.052-.048.105-.06l.942-.209.084.38c.014.063.015.108.003.139a.096.096 0 0 1-.068.056.09.09 0 0 1-.084-.022.253.253 0 0 1-.058-.127l-.029-.13-.493.11.083.369.184-.042c-.014-.062-.016-.103-.007-.12.018-.043.043-.067.073-.074a.092.092 0 0 1 .084.022c.025.022.043.065.058.127l.055.25c.014.063.017.104.009.124-.017.04-.042.064-.072.07-.032.007-.063-.004-.098-.033-.016-.014-.033-.051-.047-.113l-.183.04M99.811 130.327l.053 1.012.144-.008c.054-.003.093.008.116.029a.131.131 0 0 1 .037.092.137.137 0 0 1-.027.095c-.021.025-.058.039-.113.042l-.5.026c-.056.003-.094-.007-.116-.03a.132.132 0 0 1-.039-.092.136.136 0 0 1 .029-.095c.02-.024.058-.038.113-.04l.143-.008-.052-1.011-.233.012.012.243c.003.063-.004.11-.023.136a.09.09 0 0 1-.076.044.091.091 0 0 1-.078-.036c-.021-.025-.032-.07-.036-.133l-.025-.5 1.104-.057.025.5c.004.063-.003.108-.022.137a.093.093 0 0 1-.075.044.096.096 0 0 1-.08-.036.26.26 0 0 1-.035-.134l-.013-.244-.233.013M101.497 131.018l.264-.473.079.536zm.406.497-.05-.008c-.052-.01-.092-.006-.118.014a.13.13 0 0 0-.048.086.139.139 0 0 0 .014.099c.017.026.053.044.104.053l.276.051c.054.011.094.005.118-.013a.139.139 0 0 0 .051-.086.157.157 0 0 0-.024-.113c-.011-.018-.045-.03-.098-.041l-.193-1.327-.447-.083c-.053-.01-.093-.004-.12.015a.127.127 0 0 0-.048.086.123.123 0 0 0 .015.098c.017.027.053.045.107.055l.137.026-.522.933c-.052-.01-.092-.006-.117.014a.131.131 0 0 0-.05.086.126.126 0 0 0 .014.097c.018.028.054.047.108.056l.275.051c.053.01.091.005.116-.015a.125.125 0 0 0 .05-.085.128.128 0 0 0-.016-.098c-.016-.027-.052-.045-.103-.055l-.05-.01.08-.145.516.095.023.164M103.572 130.803a.195.195 0 0 1 .058-.03.094.094 0 0 1 .055.004.099.099 0 0 1 .058.063.235.235 0 0 1-.02.135l-.08.204c-.021.058-.046.095-.075.114a.094.094 0 0 1-.086.008.085.085 0 0 1-.053-.052.232.232 0 0 1 .004-.113.175.175 0 0 0 0-.088.307.307 0 0 0-.08-.128.39.39 0 0 0-.132-.087.326.326 0 0 0-.184-.018.446.446 0 0 0-.193.102.553.553 0 0 0-.156.23l-.06.157a.453.453 0 0 0-.008.332c.04.105.122.18.248.23a.47.47 0 0 0 .202.036.312.312 0 0 0 .13-.045.259.259 0 0 1 .067-.03.09.09 0 0 1 .046.005c.026.01.045.03.056.063a.146.146 0 0 1-.004.097.19.19 0 0 1-.081.09.435.435 0 0 1-.204.07.658.658 0 0 1-.303-.045.588.588 0 0 1-.397-.513.736.736 0 0 1 .047-.363l.063-.163a.925.925 0 0 1 .21-.323c.09-.091.19-.148.299-.174a.506.506 0 0 1 .307.018.583.583 0 0 1 .154.087.493.493 0 0 1 .112.126M104.042 131.94l.423-.34-.13.527zm.187.613-.044-.028c-.044-.028-.081-.04-.113-.031a.132.132 0 0 0-.077.062.126.126 0 0 0-.024.095c.007.032.032.062.076.09l.236.152c.047.03.084.04.116.032a.132.132 0 0 0 .078-.06.15.15 0 0 0 .02-.114c-.004-.02-.03-.045-.075-.074l.323-1.302-.382-.246c-.047-.028-.086-.04-.117-.031a.127.127 0 0 0-.079.06.125.125 0 0 0-.02.097c.003.032.03.062.077.09l.117.077-.835.667c-.046-.03-.084-.04-.116-.032a.135.135 0 0 0-.077.06.135.135 0 0 0-.024.097c.007.032.032.063.078.092l.237.15c.044.03.08.04.113.032a.133.133 0 0 0 .078-.06.133.133 0 0 0 .022-.097c-.005-.032-.03-.062-.076-.09l-.042-.028.13-.105.44.282-.04.163" style="fill:#211e1e;fill-opacity:1;fill-rule:nonzero;stroke:none;stroke-width:.352778" transform="matrix(7.26635 0 0 7.26635 -597.663 -847.496)"/><path d="m105.485 132.265.162.157c.057.054.088.11.1.171a.446.446 0 0 1-.038.238.57.57 0 0 1-.121.18l-.085.09a.552.552 0 0 1-.192.137.392.392 0 0 1-.196.016c-.052-.008-.109-.044-.17-.103l-.163-.16zm-.964.525a.12.12 0 0 0-.088.046.122.122 0 0 0-.041.09c-.001.03.018.065.056.104l.315.302c.08.078.158.126.237.148a.62.62 0 0 0 .416-.05.844.844 0 0 0 .234-.175l.085-.09a.828.828 0 0 0 .14-.18.874.874 0 0 0 .077-.188.871.871 0 0 0 .034-.174.427.427 0 0 0-.034-.198.495.495 0 0 0-.117-.178l-.324-.315c-.039-.039-.075-.057-.106-.054a.127.127 0 0 0-.09.043.14.14 0 0 0-.041.09c0 .034.02.068.058.105l-.705.728c-.038-.037-.074-.055-.106-.054M105.983 133.766l-.31.215.313.452.116-.08c.052-.037.095-.055.128-.054a.09.09 0 0 1 .076.041.088.088 0 0 1 .01.087c-.01.03-.04.064-.093.1l-.328.227-.574-.83c-.03-.044-.043-.083-.036-.114a.137.137 0 0 1 .058-.081.133.133 0 0 1 .096-.025c.03.006.062.029.094.074l.02.028.832-.576-.02-.03c-.031-.045-.044-.082-.036-.114a.126.126 0 0 1 .058-.08.133.133 0 0 1 .095-.026c.032.004.064.03.094.073l.549.794-.32.223c-.053.036-.097.054-.128.053a.087.087 0 0 1-.076-.04.092.092 0 0 1-.012-.087c.01-.032.04-.065.095-.1l.11-.077-.288-.414-.31.215.107.154c.053-.036.09-.054.11-.051.046 0 .078.014.096.04.018.028.02.055.01.085-.01.032-.042.065-.094.1l-.213.148c-.052.036-.09.054-.11.054-.044 0-.074-.014-.092-.041-.018-.025-.02-.06-.007-.102.007-.02.036-.05.09-.086l-.11-.155M106.994 134.645l-.7.326.033.068c.023.05.028.088.016.119a.137.137 0 0 1-.07.068.133.133 0 0 1-.098.01c-.032-.01-.058-.04-.081-.088l-.123-.262c-.022-.05-.027-.09-.015-.118a.14.14 0 0 1 .07-.07.138.138 0 0 1 .1-.008c.03.008.057.038.08.088l.916-.427c-.022-.05-.028-.09-.015-.12a.132.132 0 0 1 .07-.07.135.135 0 0 1 .099-.01c.03.01.057.04.08.089l.112.238-.582.597.83-.065.11.239c.022.05.029.09.016.118a.14.14 0 0 1-.07.07.135.135 0 0 1-.1.01c-.03-.01-.056-.04-.08-.09l-.917.43c.024.048.03.088.017.118a.142.142 0 0 1-.07.069.143.143 0 0 1-.1.01c-.03-.01-.058-.04-.081-.088l-.123-.265c-.022-.05-.027-.09-.016-.118a.138.138 0 0 1 .071-.07.131.131 0 0 1 .098-.01c.032.01.058.04.08.087l.033.073.7-.325-.71.055-.078-.168.497-.51M107.886 136.318l-.975.27.058.208c.015.054.014.092-.004.12-.015.027-.043.045-.082.056a.13.13 0 0 1-.097-.007c-.028-.015-.05-.048-.065-.1l-.172-.623c-.014-.052-.013-.091.003-.119a.144.144 0 0 1 .08-.057.137.137 0 0 1 .1.007c.029.015.05.05.065.101l.058.209.975-.27-.057-.21c-.014-.051-.013-.092.003-.12a.14.14 0 0 1 .082-.056.13.13 0 0 1 .098.007c.029.015.051.048.065.102l.172.621c.015.053.014.092-.003.12a.133.133 0 0 1-.081.056.129.129 0 0 1-.1-.007c-.028-.015-.049-.048-.064-.1l-.058-.208M107.519 137.53l.53.118-.492.228zm-.359.532-.006-.05c-.005-.053-.022-.089-.048-.11a.145.145 0 0 0-.096-.022.124.124 0 0 0-.089.045c-.022.023-.029.062-.023.115l.03.279c.007.053.022.09.05.109.025.019.056.027.095.023a.156.156 0 0 0 .1-.057c.013-.015.018-.05.012-.104l1.215-.568-.05-.452c-.007-.054-.022-.091-.048-.11a.132.132 0 0 0-.096-.022.132.132 0 0 0-.09.042c-.022.025-.029.065-.022.119l.015.14-1.043-.231c-.007-.054-.023-.091-.05-.109a.125.125 0 0 0-.095-.023c-.04.006-.068.019-.09.044-.021.023-.028.063-.021.117l.03.278c.006.053.022.089.047.108.026.02.06.027.096.022a.13.13 0 0 0 .09-.041c.022-.027.029-.064.023-.118l-.007-.05.163.035.058.521-.15.07M93.234 140.113l-.434-.22-.427.232.075-.48-.354-.334.481-.077.208-.44.222.433.482.063-.343.345.09.478M108.026 139.967l-.436-.22-.426.232.075-.48-.353-.334.48-.077.208-.44.222.431.482.065-.342.343.09.48" style="fill:#211e1e;fill-opacity:1;fill-rule:nonzero;stroke:none;stroke-width:.352778" transform="matrix(7.26635 0 0 7.26635 -597.663 -847.496)"/><path d="M94.347 138.3a5.912 5.912 0 0 0 5.905 5.906 5.911 5.911 0 0 0 5.905-5.905 5.91 5.91 0 0 0-5.905-5.904 5.912 5.912 0 0 0-5.905 5.904zm.302 0a5.61 5.61 0 0 1 5.603-5.602 5.61 5.61 0 0 1 5.603 5.603 5.61 5.61 0 0 1-5.603 5.603 5.61 5.61 0 0 1-5.603-5.603" style="fill:#176ebf;fill-opacity:1;fill-rule:nonzero;stroke:none;stroke-width:.352778" transform="matrix(7.26635 0 0 7.26635 -597.663 -847.496)"/><path d="M100.08 133.773c-1.673 1.926-3.768.598-3.856.54a.154.154 0 0 0-.136-.015.15.15 0 0 0-.091.102c-1.816 6.866 2.51 8.623 3.395 8.906.521.165.744.619.747.624a.15.15 0 0 0 .284-.036c.055-.27.484-.54.646-.623 2.98-1.097 3.68-3.6 3.68-5.713 0-1.855-.54-3.408-.552-3.44a.149.149 0 0 0-.097-.093.147.147 0 0 0-.133.022c-.835.608-1.61.843-2.3.7-.886-.185-1.339-.944-1.343-.95a.148.148 0 0 0-.116-.075.157.157 0 0 0-.128.05zm.095.336c.198.263.668.772 1.426.931.73.153 1.529-.069 2.372-.639.14.457.49 1.73.49 3.175 0 .106-.004.212-.008.32-.094 2.567-1.272 4.283-3.503 5.098a.044.044 0 0 0-.015.007c-.058.03-.466.244-.684.56a1.6 1.6 0 0 0-.77-.542c-.694-.222-3.624-1.404-3.624-5.548 0-.813.118-1.746.383-2.804.573.298 2.405 1.04 3.933-.558" style="fill:#176ebf;fill-opacity:1;fill-rule:nonzero;stroke:none;stroke-width:.352778" transform="matrix(7.26635 0 0 7.26635 -597.663 -847.496)"/><path d="M100.017 136.6v3.16c-.053.742-.308 1.297-.757 1.639-.748.57-1.807.365-1.818.362a.15.15 0 0 0-.176.119.15.15 0 0 0 .117.177c.048.01 1.199.235 2.058-.417.372-.283.622-.69.762-1.202.158.415.438.934.937 1.291.51.363 1.138.477 1.868.34a.15.15 0 0 0-.056-.296c-.645.12-1.196.024-1.635-.289-.803-.57-.99-1.681-.999-1.738V136.6a.151.151 0 1 0-.301 0" style="fill:#176ebf;fill-opacity:1;fill-rule:nonzero;stroke:none;stroke-width:.352778" transform="matrix(7.26635 0 0 7.26635 -597.663 -847.496)"/><path d="M95.746 137.107a.15.15 0 0 0-.15.152c0 .083.066.15.15.15h8.811a.15.15 0 0 0 0-.302h-8.811" style="fill:#176ebf;fill-opacity:1;fill-rule:nonzero;stroke:none;stroke-width:.352778" transform="matrix(7.26635 0 0 7.26635 -597.663 -847.496)"/><path d="m93.097 142.78.547-.407a.555.555 0 0 1-.226-.192l-.29-.391c-.098-.132-.086-.28.036-.37l.731-.542c.084-.064.068-.211.064-.26l.627.845-.264.195c.01-.036.032-.119-.008-.173l-.198-.267-.725.538.222.297a.673.673 0 0 0 .2.195l.796-.59c.068-.051.052-.193.043-.244l.79 1.064c-.046-.024-.18-.083-.249-.032l-1.51 1.122c-.067.05-.05.197-.04.248l-.79-1.067c.045.025.177.08.244.03zm1.917-.814c-.047-.012-.127-.031-.173.004l-.34.253.12.162.34-.252c.05-.036.055-.117.053-.167zm-.697.393-.988.733c-.047.035-.054.117-.054.166.046.016.126.034.175-.003l.988-.732-.121-.164M96.28 144.41c-.17.118-.505.125-.719.024l-.096-.257a.73.73 0 0 0 .898-.325l.095-.162c.04-.069-.024-.197-.05-.238l.637.373c-.045 0-.188.006-.228.075l-.095.162a.729.729 0 0 0 .157.944l-.272.04c-.195-.135-.348-.43-.328-.636zm-.759.787.168-.287c.045-.076.021-.174.016-.204l.493.29s-.109.043-.156.12l-.179.308.936.548c.076.044.18.02.212.011l-.165.283-1.21-.71c-.138-.08-.195-.223-.115-.36zm1.636.37c-.044.076-.01.18.001.212l-.537-.314c.035-.007.138-.03.182-.106l.659-1.123c.042-.073-.028-.197-.055-.241l.649.38c-.053-.004-.197-.004-.242.07l-.657 1.122M100.434 146.663v-.681a.578.578 0 0 1-.29.068h-.486c-.165 0-.275-.098-.275-.25v-.91c0-.107-.13-.181-.171-.208h1.051v.328c-.023-.027-.077-.095-.143-.095h-.334v.902h.371c.127 0 .216-.021.277-.046v-.99c0-.085-.124-.158-.17-.18h1.323c-.045.022-.172.095-.172.18v1.882c0 .084.13.157.175.18h-1.327c.047-.023.171-.096.171-.18zm.49-2.023c-.04.03-.101.083-.101.14v.423h.204v-.423c0-.06-.062-.113-.104-.14zm-.101.794v1.229c0 .059.062.113.1.142.042-.027.104-.08.104-.142v-1.23h-.204M103.686 144.02c.135.018.258.09.331.202.36.568-.66 1.213-1.018.647a.448.448 0 0 1-.044-.385l-.094.06c-.06.038-.09.136-.09.136l-.157-.247.41-.262-.063-.1c-.037-.058-.135-.058-.182-.06l.56-.354c-.022.046-.069.132-.03.193l.063.1.412-.261.157.248s-.1-.015-.161.023zm1.227 1.123-.214-.335-.969.617c-.058.036-.077.13-.085.16l-.17-.27 1.447-.92.337.529c.047.074.155.09.191.095l-.523.333c.005-.031.034-.132-.014-.21zm-1.225-.713c-.207-.325-.568-.093-.361.23.205.324.569.097.36-.23zm.833-.668.337.53-.346.22-.607-.955c-.045-.072-.188-.065-.24-.065l.633-.401c-.023.044-.092.175-.047.247l.146.231.2-.128c.063-.04.098-.126.098-.126l.179.283s-.091-.003-.153.036l-.2.128M106.584 143.154c.033-.007.155-.029.197-.096l.104-.157-.597-.388c-.073-.048-.178-.02-.21-.01l.637-.98c.004.031.02.14.094.188l.597.387.33-.51c.047-.071.015-.187.005-.221l.291.188-1.162 1.786zm.736-1.166c-.083-.183-.244-.297-.525-.48l-.495-.32-.636.981c-.036.056-.018.14-.01.17l-.265-.17.94-1.446.711.462c.25.163.41.33.481.495zm-.816.192.597.387.09-.138-.597-.387c-.052-.034-.121-.033-.18-.018.012.06.038.122.09.156M95.738 148.806l-.015-.008a.345.345 0 0 1-.173-.199.316.316 0 0 1 .015-.258.34.34 0 0 1 .465-.148.338.338 0 0 1 .172.197.318.318 0 0 1-.018.257.346.346 0 0 1-.194.173.3.3 0 0 1-.252-.014M104.498 148.8a.36.36 0 0 0-.036-.258.318.318 0 0 0-.205-.158.348.348 0 0 0-.26.034.34.34 0 0 0-.134.47c.045.079.114.131.206.155a.34.34 0 0 0 .26-.032l.017-.01a.301.301 0 0 0 .152-.201M96.858 149.821c.148.03.244.03.295.001.051-.027.088-.092.114-.195l.251-1.023a.316.316 0 0 0 .011-.15c-.01-.032-.036-.051-.078-.06a.529.529 0 0 0-.115 0 4.844 4.844 0 0 0-.135.014l.015-.06.794-.14.05.012-.371 1.51c-.023.098-.023.165.001.207.025.041.108.077.247.104l-.014.062-1.08-.22.015-.062M98.51 150.215c.162-.02.297-.059.407-.118a.901.901 0 0 0 .423-.518l-.015-.01c-.042.01-.073.016-.098.02a.668.668 0 0 1-.149.006.526.526 0 0 1-.375-.168.525.525 0 0 1-.125-.409.602.602 0 0 1 .223-.452.655.655 0 0 1 .46-.146c.199.01.357.09.474.238.118.15.169.338.152.57-.025.347-.19.618-.496.812a1.625 1.625 0 0 1-.886.246zm.815-.741c.029-.006.047-.012.053-.02a.323.323 0 0 0 .024-.093 3.153 3.153 0 0 0 .037-.445 1.238 1.238 0 0 0-.008-.185.463.463 0 0 0-.039-.144.164.164 0 0 0-.14-.094.16.16 0 0 0-.157.085.635.635 0 0 0-.067.273c-.015.204-.006.36.027.464.033.105.097.162.193.166.023 0 .048 0 .077-.007M100.294 150.038a.179.179 0 0 1 .126-.06c.07-.007.168.026.295.094.127.067.222.1.288.094a.285.285 0 0 0 .193-.093.26.26 0 0 0 .066-.21.298.298 0 0 0-.117-.211.714.714 0 0 0-.23-.123 1.217 1.217 0 0 0-.3-.055 4.703 4.703 0 0 0-.34 0l.195-.958.945-.081-.095.355-.812.07-.045.224c.227-.012.415.001.562.044.274.079.426.25.45.51a.564.564 0 0 1-.194.49.944.944 0 0 1-.578.235.653.653 0 0 1-.31-.04c-.086-.039-.131-.092-.138-.164a.154.154 0 0 1 .038-.121M103.149 149.624l-.047-.282-.215.04-.197-1.216-.232.03-.628 1.333.056.34.73-.12.078.377.322-.066-.062-.397zm-1.185-.103.459-.944.13.858-.59.086" style="fill:#211e1e;fill-opacity:1;fill-rule:nonzero;stroke:none;stroke-width:.352778" transform="matrix(7.26635 0 0 7.26635 -597.663 -847.496)"/></g></svg>