<svg xmlns="http://www.w3.org/2000/svg" width="203.14041mm" height="203.14684mm" viewBox="0 0 203.14041 203.14684"><path d="M0 0c0-87.37-70.824-158.2-158.195-158.2-87.363 0-158.194 70.83-158.194 158.2 0 87.373 70.831 158.199 158.194 158.199C-70.824 158.199 0 87.373 0 0" style="fill:#fff;fill-opacity:1;fill-rule:nonzero;stroke:none" transform="matrix(.64206 0 0 -.64206 203.14 101.573)"/><path d="M0 0c-85.528 0-154.889-69.326-154.889-154.871 0-85.537 69.361-154.857 154.889-154.857 85.538 0 154.885 69.32 154.885 154.857C154.885-69.326 85.538 0 0 0" style="fill:#185632;fill-opacity:1;fill-rule:nonzero;stroke:none" transform="matrix(.64206 0 0 -.64206 101.518 2.017)"/><path d="M0 0c-83.506 0-151.194 67.699-151.194 151.194 0 83.532 67.688 151.23 151.194 151.23 83.532 0 151.243-67.698 151.243-151.23C151.243 67.699 83.532 0 0 0" style="fill:#fff;fill-opacity:1;fill-rule:nonzero;stroke:none" transform="matrix(.64206 0 0 -.64206 101.498 198.412)"/><path d="M0 0c-81.005 0-146.68-65.672-146.68-146.669 0-81 65.675-146.645 146.68-146.645 80.975 0 146.669 65.645 146.669 146.645C146.669-65.672 80.975 0 0 0" style="fill:#185632;fill-opacity:1;fill-rule:nonzero;stroke:none" transform="matrix(.64206 0 0 -.64206 101.243 7.094)"/><path d="M0 0c-81.005 0-146.68-65.672-146.68-146.669 0-81 65.675-146.645 146.68-146.645 80.975 0 146.669 65.645 146.669 146.645C146.669-65.672 80.975 0 0 0Z" style="fill:none;stroke:#185632;stroke-width:4.136;stroke-linecap:butt;stroke-linejoin:miter;stroke-miterlimit:4;stroke-dasharray:none;stroke-opacity:1" transform="matrix(.64206 0 0 -.64206 101.243 7.094)"/><path d="M0 0c-60.482 0-109.479 49.005-109.479 109.482 0 60.479 48.997 109.487 109.479 109.487 60.449 0 109.488-49.008 109.488-109.487C109.488 49.005 60.449 0 0 0" style="fill:#fff;fill-opacity:1;fill-rule:nonzero;stroke:none" transform="matrix(.64206 0 0 -.64206 101.6 172.735)"/><path d="M0 0c-57.951 0-104.935-46.965-104.935-104.937 0-57.953 46.984-104.932 104.935-104.932 57.941 0 104.937 46.979 104.937 104.932C104.937-46.965 57.941 0 0 0" style="fill:#185632;fill-opacity:1;fill-rule:nonzero;stroke:none" transform="matrix(.64206 0 0 -.64206 101.395 34.814)"/><path d="M0 0c-56.233 0-101.812-45.564-101.812-101.812 0-56.237 45.579-101.823 101.812-101.823 56.224 0 101.809 45.586 101.809 101.823C101.809-45.564 56.224 0 0 0" style="fill:#fff;fill-opacity:1;fill-rule:nonzero;stroke:none" transform="matrix(.64206 0 0 -.64206 101.414 36.881)"/><path d="M0 0c-29.139-32.614-74.664-11.515-74.664-11.515v-86.026c0-49.088 74.394-84.274 74.394-84.274h-.181s74.392 35.186 74.392 84.274v86.026S27.463-32.529 0 0" style="fill:#185632;fill-opacity:1;fill-rule:nonzero;stroke:none" transform="matrix(.64206 0 0 -.64206 101.551 50.72)"/><path d="M0 0s5.216-2.291 8.599 4.519c0 0-6.306 1.06-8.599-3.413 0 0-1.385-.889-2.756-.167C-.675 5.222.368 8.155.368 8.155l.243.731v-.05s8.242 3.773 5.687 13.088c0 0-9.03-3.748-6.516-12.286l-.408-1.235a121.048 121.048 0 0 0-3.049-6.171c-.344.138-.925.698-.925 2.855 0 0 4.132 3.018-1.09 9.317 0 0-2.898-6.762.119-9.182 0 0 .337-4.064 1.415-3.932a90.012 90.012 0 0 0-4.597-7.512c-.089 1.026-.196 2.37-.196 2.37 3.259 5.57-1.699 9.565-1.699 9.565-2.769-4.365.727-9.808.727-9.808l.65-2.874a64.027 64.027 0 0 0-5.445-6.742c-.325.356-.83 1.172-.71 2.831 0 0 4.428 1.94-.889 9.455 0 0-4.244-6.821-.13-9.662 0 0 .33-2.937 1.115-3.263-2.681-2.783-5.328-4.938-7.901-6.624-.185.488-.38 1.266 0 2.128 0 0 4.25 3.256.372 9.555 0 0-4.96-5.117-1.576-9.555 0 0-.151-1.737.297-2.696-3.337-2.07-6.488-3.286-9.238-3.956-.103.269-.297 1.046-.191 1.908 0 0 5.789 3.283 1.812 10.18 0 0-4.97-3.75-2.672-9.802 0 0-.336-1.8-.101-2.555-5.367-1.158-8.9-.351-9.375-.235v.041l-.071-.019c-.018 0-.101.019-.101.019v-.041c-.479-.116-4.01-.923-9.38.235.235.755-.118 2.555-.118 2.555 2.305 6.052-2.643 9.802-2.643 9.802-3.989-6.897 1.794-10.18 1.794-10.18.114-.862-.104-1.639-.184-1.908-2.755.67-5.888 1.886-9.221 3.956.428.959.285 2.696.285 2.696 3.372 4.438-1.593 9.555-1.593 9.555-3.864-6.299.367-9.555.367-9.555.379-.862.185-1.64 0-2.128-2.537 1.686-5.204 3.841-7.887 6.624.776.326 1.12 3.263 1.12 3.263 4.123 2.841-.131 9.662-.131 9.662-5.333-7.515-.901-9.455-.901-9.455.119-1.659-.391-2.475-.7-2.831-1.807 1.943-3.632 4.182-5.457 6.742l.652 2.874s3.514 5.443.729 9.808c0 0-4.955-3.995-1.696-9.565 0 0-.083-1.344-.2-2.37a97.837 97.837 0 0 0-4.6 7.512c1.085-.132 1.405 3.932 1.405 3.932 3.054 2.42.136 9.182.136 9.182-5.197-6.299-1.114-9.317-1.114-9.317 0-2.157-.55-2.717-.907-2.855a105.245 105.245 0 0 0-3.035 6.171l-.417 1.235c2.499 8.538-6.527 12.286-6.527 12.286-2.518-9.315 5.714-13.088 5.714-13.088v.05l.237-.731s1.041-2.933 3.123-7.216c-1.394-.722-2.769.167-2.769.167-2.305 4.473-8.58 3.413-8.58 3.413C-93.177-2.291-87.993 0-87.993 0c1.44-.839 2.769-.352 3.284-.109a90.27 90.27 0 0 1 4.51-7.943c-1.103-.111-3.017.159-3.017.159-5.056 4.041-9.724-.353-9.724-.353 3.951-3.33 9.825-.618 9.825-.618l3.282.225c1.642-2.512 3.503-5.072 5.607-7.513-.232-.299-1.031-.945-2.862-.892 0 0-2.151 4.331-9.389-1.404 0 0 6.981-3.876 9.671.376 0 0 2.852.492 3.166 1.238 2.201-2.454 4.621-4.759 7.284-6.756-.363-.319-1.001-.781-1.904-.781 0 0-4.67 2.589-8.923-3.454 0 0 6.62-2.545 9.387 2.363 0 0 1.624.477 2.345 1.253 2.947-2.072 6.171-3.69 9.697-4.689-.267-.29-.694-.751-1.346-1.1 0 0-6.015 2.829-9.327-4.41 0 0 5.933-1.858 9.522 3.492 0 0 2.348 1.103 2.299 1.728 3.296-.785 6.828-.925 10.632-.376 3.765-.549 7.301-.409 10.586.376-.029-.625 2.305-1.728 2.305-1.728 3.608-5.35 9.505-3.492 9.505-3.492-3.29 7.239-9.32 4.41-9.32 4.41a5.338 5.338 0 0 0-1.34 1.1c3.537.999 6.76 2.617 9.698 4.689.75-.776 2.338-1.253 2.338-1.253 2.79-4.908 9.416-2.363 9.416-2.363-4.271 6.043-8.954 3.454-8.954 3.454-.9 0-1.528.462-1.891.781 2.66 1.997 5.089 4.302 7.295 6.756.31-.746 3.153-1.238 3.153-1.238 2.719-4.252 9.679-.376 9.679-.376-7.249 5.735-9.402 1.404-9.402 1.404-1.812-.053-2.594.593-2.867.892 2.116 2.441 3.982 5.001 5.618 7.513l3.297-.225s5.869-2.712 9.801.618c0 0-4.63 4.394-9.725.353 0 0-1.903-.27-3.01-.159A94.97 94.97 0 0 1-3.268-.109C-2.772-.352-1.403-.839 0 0" style="fill:#fff;fill-opacity:1;fill-rule:nonzero;stroke:none" transform="matrix(.64206 0 0 -.64206 130.169 125.417)"/><path d="M0 0a6.643 6.643 0 0 1 6.662 6.647A6.645 6.645 0 0 1 0 13.306c-3.68 0-6.679-2.964-6.679-6.659C-6.679 2.965-3.68 0 0 0" style="fill:#fff;fill-opacity:1;fill-rule:nonzero;stroke:none" transform="matrix(.64206 0 0 -.64206 101.784 72.74)"/><path d="M0 0c-.4 1.637-1.856 2.854-3.593 2.854H-22.17C-23.974 1.393-26.25.563-28.72.563c-2.478 0-4.764.83-6.554 2.291h-18.585A3.662 3.662 0 0 1-57.254.563s-.291-.679-.273-1.7v-26.309c0-2.066 1.682-3.713 3.763-3.713a3.71 3.71 0 0 1 3.726 3.713v22.92h9.204v-22.92c0-2.066 1.69-3.713 3.771-3.713 2.063 0 3.745 1.647 3.745 3.713v22.92h9.186v-22.92c0-2.066 1.695-3.713 3.751-3.713 2.061 0 3.757 1.647 3.757 3.713v22.92h9.193v-22.92c0-2.066 1.663-3.713 3.744-3.713 2.092 0 3.751 1.647 3.751 3.713v26.309C.146-.924 0 0 0 0" style="fill:#fff;fill-opacity:1;fill-rule:nonzero;stroke:none" transform="matrix(.64206 0 0 -.64206 120.223 75.639)"/><path d="M0 0a3.706 3.706 0 0 1-3.715 3.719h-50.812A3.7 3.7 0 0 1-58.253 0c0-2.034 1.652-3.688 3.726-3.688h50.812C-1.665-3.688 0-2.034 0 0" style="fill:#fff;fill-opacity:1;fill-rule:nonzero;stroke:none" transform="matrix(.64206 0 0 -.64206 120.48 103.514)"/><path d="m0 0-9.415-.032v6.386h7.976c2.051 0 3.715 1.666 3.715 3.744a3.698 3.698 0 0 1-3.715 3.713H-52.25c-2.074 0-3.727-1.636-3.727-3.713a3.72 3.72 0 0 1 3.727-3.744h9.435V-.032L-52.25 0a3.697 3.697 0 0 1-3.727-3.717 3.712 3.712 0 0 1 3.727-3.712h16.334V6.354h19.603V-7.429H0c2.058 0 3.732 1.666 3.732 3.712A3.711 3.711 0 0 1 0 0" style="fill:#fff;fill-opacity:1;fill-rule:nonzero;stroke:none" transform="matrix(.64206 0 0 -.64206 119.02 118.016)"/><path d="M0 0c1.706 0 3.094 1.376 3.094 3.065 0 1.719-1.388 3.069-3.094 3.069a3.052 3.052 0 0 1-3.072-3.069A3.067 3.067 0 0 1 0 0" style="fill:#fff;fill-opacity:1;fill-rule:nonzero;stroke:none" transform="matrix(.64206 0 0 -.64206 178.572 72.026)"/><path d="M0 0c1.688 0 3.063 1.377 3.063 3.102 0 1.665-1.375 3.092-3.063 3.092-1.701 0-3.087-1.427-3.087-3.092A3.09 3.09 0 0 1 0 0" style="fill:#fff;fill-opacity:1;fill-rule:nonzero;stroke:none" transform="matrix(.64206 0 0 -.64206 24.386 71.758)"/><path d="M0 0c-3.83.802-4.202-1.039-4.202-1.039l-1.08-5.138c-.762-3.659-.444-6.392.984-8.204 1.422-1.828 4.411-3.213 8.965-4.175 4.488-.933 7.73-.854 9.721.247 1.997 1.099 3.444 3.834 4.362 8.171l.86 4.102s.343 1.846-3.124 2.572zm-.25-6.193 14.496-3.038c1.99-.419 1.669-1.46 1.669-1.46-.283-1.367-1.16-2.161-2.601-2.397-1.457-.234-3.976.024-7.584.777-4.528.95-7.137 1.771-7.817 2.462-.687.686-.896 1.712-.604 3.066 0 0 .077 1.089 2.441.59" style="fill:#fff;fill-opacity:1;fill-rule:nonzero;stroke:none" transform="matrix(.64206 0 0 -.64206 15.598 77.725)"/><path d="m0 0-.013-1.628C-.047-3.684 4.843-3.82 4.843-3.82l5.143-.03c3.063-.006 3.034-1.507 3.034-1.507l-.017-1.882c.027-1.451-3.361-1.497-3.361-1.497l-5.102.03c-4.611.016-4.605-2.037-4.605-2.037l-.018-2.103c-.042-1.906 4.694-1.965 4.694-1.965l13.251-.076c2.305-.014 3.988.651 5.072 2 1.074 1.348 1.618 3.513 1.635 6.512.013 2.784-.551 4.907-1.67 6.369-1.132 1.475-2.773 2.204-4.938 2.215l-12.883.08C.199 2.318 0 0 0 0m18.911-3.905c1.025 0 1.743-.189 2.151-.533.408-.359.617-1.012.61-1.965-.007-.867-.226-1.478-.64-1.849-.427-.363-1.139-.545-2.147-.534 0 0-2.642.08-2.642 1.203l.018 2.431c.017 1.195 2.65 1.247 2.65 1.247" style="fill:#fff;fill-opacity:1;fill-rule:nonzero;stroke:none" transform="matrix(.64206 0 0 -.64206 10.038 94.06)"/><path d="m0 0-4.125-.442C-5.566-.587-6.572-1-7.123-1.68c-.557-.682-.753-1.771-.594-3.287l.398-3.747c.095-.849-1.097-.96-1.097-.96s-1.559-.152-1.612.627l-.657 6.21c-.273 2.565.035 4.561.918 5.975.89 1.409 2.376 2.221 4.457 2.438L6.448 6.82c2.488.267 4.219-.121 5.167-1.167.955-1.035 1.593-3.087 1.914-6.153l.569-5.294s.071-.641-1.197-.829c0 0-1.439-.122-1.523.596l-.38 3.642c-.142 1.34-.467 2.242-1.007 2.683-.522.449-1.363.618-2.537.489 0 0-2.097-.221-1.99-1.301l.568-5.399c.088-.805-1.368-.962-1.368-.962s-1.737-.252-1.867.663L2.223-.82S2.194.239 0 0" style="fill:#fff;fill-opacity:1;fill-rule:nonzero;stroke:none" transform="matrix(.64206 0 0 -.64206 17.089 110.248)"/><path d="M0 0c-6.882-2.236-9.227 2.765-9.227 2.765-.885 1.61-1.138 2.892-1.138 2.892s-.665 2.44.177 3.612c0 0 1.334 1.733-.77 2.682-1.671.727-2.429 3.054-2.429 3.054l-.671 2.098s-.971 5.569 4.332 7.285L4.046 28.77s3.367 1.193 3.965-.792l.634-2.01s.469-1.822-3.076-2.943l-14.063-4.469s-2.442-.819-1.681-3.167c.431-1.402 3.08-.602 3.08-.602l13.814 4.387s3.71 1.208 4.344-.805l.647-2c.621-1.836-2.792-2.902-2.792-2.902l-14.34-4.57s-2.444-.8-1.69-3.151c.508-1.553 3.045-.629 3.045-.629L9.718 9.509s3.845 1.179 4.351-.523l.787-2.515c.547-1.545-3.069-2.725-3.069-2.725L0 0" style="fill:#fff;fill-opacity:1;fill-rule:nonzero;stroke:none" transform="matrix(.64206 0 0 -.64206 21.979 135.48)"/><path d="M0 0c-4.265-2.494-6.743-4.823-7.466-6.983-.699-2.158-.303-4.526 1.209-7.097 1.511-2.583 3.391-4.1 5.635-4.544 2.222-.453 5.477.583 9.738 3.086 4.302 2.525 6.785 4.848 7.461 6.994.675 2.143.237 4.516-1.275 7.108-1.541 2.619-3.33 4.174-5.382 4.692C7.871 3.767 4.563 2.678 0 0m3.195-5.455C5.731-3.968 7.741-2.936 9.21-2.36c1.476.578 2.531.312 3.172-.789.644-1.098.354-2.174-.884-3.204C10.277-7.38 8.409-8.618 5.91-10.09c-2.816-1.652-4.908-2.711-6.265-3.18-1.357-.47-2.364-.17-2.987.903-.658 1.122-.361 2.179.877 3.181 1.233.996 3.125 2.248 5.66 3.731" style="fill:#fff;fill-opacity:1;fill-rule:nonzero;stroke:none" transform="matrix(.64206 0 0 -.64206 26.041 137.546)"/><path d="m0 0 13.428 10.786c2.602 2.067 3.626.688 3.626.688l1.718-2.135c.257-.263.037-.831.037-.831-.463-.661.011-.739.011-.739.551-.208 1.108-.533 1.672-.988.64-.515 1.244-1.145 1.849-1.887 1.216-1.516 1.836-2.969 1.836-4.359.013-1.391-.585-2.564-1.771-3.527l-12.207-9.802s-2.923-2.378-3.994-1.074l-1.672 2.079s-1.209 1.312 1.759 3.695l12.132 9.746c.574.454.848.988.823 1.601-.018.61-.368 1.316-1.024 2.138 0 0-.588.926-2.312-.44L3.731-4.83S.775-7.16-.256-5.832L-1.952-3.72S-2.917-2.355 0 0" style="fill:#fff;fill-opacity:1;fill-rule:nonzero;stroke:none" transform="matrix(.64206 0 0 -.64206 28.786 152.936)"/><path d="m0 0 4.143-.26c1.452-.087 2.509.143 3.176.722.652.578 1.026 1.621 1.14 3.142l.23 3.751c.052.86 1.246.768 1.246.768s1.564-.123 1.479-.888l-.403-6.228c-.165-2.575-.798-4.494-1.907-5.728-1.116-1.248-2.71-1.806-4.8-1.675l-11.812.761c-2.499.162-4.117.843-4.883 2.029-.764 1.18-1.059 3.307-.859 6.39l.337 5.306s.026.652 1.324.617c0 0 1.445-.118 1.391-.833l-.225-3.667c-.095-1.345.083-2.287.521-2.813.439-.529 1.251-.84 2.43-.909 0 0 2.11-.127 2.18.947l.346 5.422c.052.803 1.504.724 1.504.724s1.753-.056 1.743-.986L-2.055 1.2S-2.198.139 0 0" style="fill:#fff;fill-opacity:1;fill-rule:nonzero;stroke:none" transform="matrix(.64206 0 0 -.64206 186.166 107.846)"/><path d="m0 0 4.046.905c1.424.31 2.372.838 2.846 1.579.48.731.555 1.842.218 3.333l-.818 3.672c-.189.832.984 1.073.984 1.073s1.535.335 1.666-.428l1.344-6.09c.569-2.523.488-4.541-.229-6.044-.714-1.505-2.092-2.486-4.143-2.942L-5.629-7.51c-2.442-.55-4.191-.349-5.27.575-1.063.922-1.933 2.887-2.595 5.897L-14.65 4.16s-.16.625 1.078.955c0 0 1.423.296 1.594-.417l.789-3.573c.29-1.323.728-2.164 1.298-2.556.574-.391 1.433-.448 2.588-.193 0 0 2.052.462 1.826 1.511l-1.179 5.317c-.185.775 1.244 1.105 1.244 1.105s1.701.439 1.938-.454L-2.301.569S-2.146-.481 0 0" style="fill:#fff;fill-opacity:1;fill-rule:nonzero;stroke:none" transform="matrix(.64206 0 0 -.64206 184.025 83.09)"/><path d="M0 0c1.81 2.219 2.531.949 2.531.949.244-.412.433-.79.591-1.153a5.523 5.523 0 0 0 .294-3.135c-.202-1.055-.823-2.288-1.889-3.705C.339-8.63-.93-9.693-2.281-10.22c-1.344-.525-2.866-.567-4.568-.119-1.007.264-2.11.718-3.299 1.351-1.185.642-2.455 1.47-3.812 2.488-1.79 1.333-3.212 2.615-4.272 3.871-1.051 1.257-1.737 2.476-2.062 3.649-.304 1.097-.304 2.218 0 3.363.301 1.149.899 2.327 1.801 3.529.799 1.075 1.628 1.901 2.47 2.499.855.6 1.732.965 2.626 1.096a5.743 5.743 0 0 0 2.477-.238s2.756-.466.565-4.003c-1.448-2.855-2.783-1.739-2.783-1.739-.525.33-.976.565-1.333.658-.537.157-1.041-.06-1.504-.669-.443-.614-.309-1.396.438-2.348.747-.966 2.537-2.498 5.381-4.621 2.843-2.122 4.911-3.438 6.206-3.93 1.284-.498 2.24-.332 2.845.463.326.45.49.835.49 1.182 0 .264-.189.609-.58 1.062 0 0-.965.637 1.195 2.676" style="fill:#fff;fill-opacity:1;fill-rule:nonzero;stroke:none" transform="matrix(.64206 0 0 -.64206 174.572 152.402)"/><path d="M0 0c-2.025-.594-3.755-2.222-5.184-4.894-1.416-2.646-1.76-5.034-1.007-7.149.762-2.12 3.336-4.351 7.732-6.709 4.351-2.324 7.639-3.219 9.849-2.692 2.224.53 4.049 2.118 5.459 4.75 1.405 2.642 1.713 5.015.92 7.151-.791 2.122-3.362 4.358-7.719 6.679C5.377-.361 2.028.591 0 0m12.875-11.942c1.273-.953 1.604-2.006.985-3.15-.58-1.097-1.576-1.424-2.937-1.024-1.381.425-3.508 1.405-6.395 2.944C1.974-11.806.06-10.633-1.201-9.653c-1.262.982-1.606 2.028-1.007 3.157.603 1.125 1.658 1.436 3.147.913 1.487-.516 3.538-1.465 6.114-2.846 2.595-1.394 4.545-2.571 5.822-3.513" style="fill:#fff;fill-opacity:1;fill-rule:nonzero;stroke:none" transform="matrix(.64206 0 0 -.64206 172.502 133.572)"/><path d="m0 0-2.527-6.497c-.866-2.193-1.985-3.687-3.382-4.475-1.395-.793-2.971-.85-4.715-.169l-13.368 5.223c-3.864 1.494-3.082 3.443-3.082 3.443l.72 1.864c.771 2.069 4.875.268 4.875.268l12.93-5.043c1.235-.479 2.174-.527 2.78-.12.628.405 1.133 1.117 1.525 2.122l1.724 4.418s.195.646 1.411.182C-1.109 1.216.188.681 0 0" style="fill:#fff;fill-opacity:1;fill-rule:nonzero;stroke:none" transform="matrix(.64206 0 0 -.64206 190.25 126.356)"/><path d="m0 0-1.505-6.803c-.511-2.302-1.399-3.957-2.653-4.948-1.258-.994-2.805-1.294-4.626-.888l-14.021 3.105c-4.034.886-3.566 2.924-3.566 2.924l.427 1.956c.437 2.169 4.775 1.014 4.775 1.014l13.56-2.996c1.283-.288 2.205-.177 2.761.317.551.488.938 1.273 1.167 2.327L-2.65.632s.096.66 1.363.404C-1.287 1.036.072.704 0 0" style="fill:#fff;fill-opacity:1;fill-rule:nonzero;stroke:none" transform="matrix(.64206 0 0 -.64206 192.517 114.528)"/><path d="m0 0 .042-1.147c.064-.719-1.835-.816-1.835-.816-1.442-.035-1.548.668-1.548.668l-.221 6.011S-3.645 6.228-.04 6.349l1.652.06C7.73 6.458 9.16 4.047 9.16 4.047c.891-1.217 1.381-2.976 1.478-5.272.107-3.23-.759-5.576-2.595-7.001-1.842-1.458-5.05-2.253-9.606-2.425-4.375-.153-7.568.417-9.577 1.714-2.021 1.297-3.082 3.501-3.195 6.611-.088 2.455.533 4.672 1.5 5.669 0 0 3.917 3.782 5.219-.022C-6.591.675-10.051-.682-10.051-.682c-.907-.399-.928-.973-.907-1.584.031-1.006.706-1.64 1.994-1.88 1.296-.242 3.672-.309 7.151-.186 3.757.136 6.223.426 7.438.852 1.21.438 1.79 1.168 1.754 2.218C7.36-.501 7.058.072 6.502.461c-.558.398-1.269.577-2.152.548L1.654.916C-.006.844 0 0 0 0" style="fill:#fff;fill-opacity:1;fill-rule:nonzero;stroke:none" transform="matrix(.64206 0 0 -.64206 186.17 93.48)"/><path d="m0 0-.204-4.367C-.285-5.89-.027-7.008.6-7.7c.617-.662 1.749-1.073 3.354-1.145l3.989-.197c.9-.029.829-1.274.829-1.274s-.1-1.65-.918-1.568l-6.619.323c-2.733.128-4.765.763-6.109 1.913-1.334 1.161-1.951 2.839-1.844 5.031l.609 12.431c.124 2.619.819 4.353 2.063 5.157 1.249.844 3.497 1.187 6.762 1.031l5.654-.278s.685-.033.668-1.387c0 0-.094-1.52-.864-1.484l-3.894.19c-1.415.066-2.406-.113-2.974-.604C.754 9.954.458 9.123.394 7.866c0 0-.114-2.194 1.031-2.275l5.766-.285c.842-.016.776-1.566.776-1.566s-.03-1.854-1.004-1.828l-5.728.276S.103 2.324 0 0" style="fill:#fff;fill-opacity:1;fill-rule:nonzero;stroke:none" transform="matrix(.64206 0 0 -.64206 97.848 186.34)"/><path d="M0 0a2.61 2.61 0 0 1 .751-.966c.523-.343 1.205-.452 2.054-.295.844.17 1.48.499 1.894.99.392.512.516 1.098.386 1.83-.142.727-.45 1.387-.943 1.899-.493.533-1.173 1.041-2.056 1.528-.469.255-1.533.744-3.198 1.509-1.672.767-2.664 1.225-2.961 1.351-1.314.688-2.338 1.451-3.07 2.283a6.528 6.528 0 0 0-1.422 2.936c-.359 1.898.107 3.551 1.422 4.991 1.294 1.442 3.155 2.394 5.573 2.861 2.442.479 4.462.268 6.08-.558 0 0 5.886-3.68.082-4.705-3.347-.583-3.449.476-3.449.476a2.21 2.21 0 0 1-.58.727c-.445.367-1.073.503-1.85.35-.669-.131-1.143-.427-1.422-.836-.278-.42-.372-.9-.255-1.506.083-.46.345-.883.77-1.266.418-.39 1.139-.792 2.19-1.289.135-.046 1.076-.451 2.809-1.194 1.734-.747 2.975-1.349 3.732-1.747 1.321-.741 2.31-1.529 2.975-2.385.664-.89 1.115-1.901 1.339-3.102.457-2.352.042-4.272-1.232-5.741-1.27-1.495-3.373-2.512-6.265-3.069-2.618-.512-4.777-.352-6.459.433 0 0-5.291 3.812.255 4.836C-.142.915 0 0 0 0" style="fill:#fff;fill-opacity:1;fill-rule:nonzero;stroke:none" transform="matrix(.64206 0 0 -.64206 124.575 187.194)"/><path d="m0 0-5.074-15.871s-1.522-4.444-3.714-3.71l-1.842.59s-2.042.634-.647 4.97L-6.222 1.8s1.393 4.274 3.205 3.647l2.408-.768C1.345 4.096 0 0 0 0" style="fill:#fff;fill-opacity:1;fill-rule:nonzero;stroke:none" transform="matrix(.64206 0 0 -.64206 78.68 177.11)"/><path d="m0 0 6.501-15.335s1.744-4.368-.408-5.245l-1.774-.75s-1.947-.851-3.733 3.352L-5.895-2.693s-1.727 4.15.052 4.861l2.322.985C-1.666 3.988 0 0 0 0" style="fill:#fff;fill-opacity:1;fill-rule:nonzero;stroke:none" transform="matrix(.64206 0 0 -.64206 134.803 172.696)"/><path d="m0 0 8.374 16.061c1.629 3.111 3.225 2.192 3.225 2.192l2.564-1.333c.373-.148.398-.795.398-.795-.154-.83.331-.697.331-.697.624.029 1.305-.062 2.041-.254.846-.228 1.712-.591 2.6-1.051 1.837-.952 3.047-2.102 3.652-3.443.61-1.34.533-2.735-.214-4.161L15.372-8.084s-1.818-3.535-3.407-2.726L9.452-9.495s-1.742.747.113 4.31L17.14 9.348c.36.691.382 1.292.105 1.869-.279.606-.912 1.148-1.902 1.66 0 0-.979.641-2.051-1.407L5.701-3.106S3.823-6.6 2.256-5.755L-.279-4.416S-1.82-3.506 0 0" style="fill:#fff;fill-opacity:1;fill-rule:nonzero;stroke:none" transform="matrix(.64206 0 0 -.64206 57.14 179.82)"/><path d="m0 0-11.036-14.368c-2.137-2.778-3.548-1.59-3.548-1.59l-2.3 1.755c-.325.205-.261.859-.261.859.308.785-.196.74-.196.74-.621.074-1.28.282-1.962.607-.8.371-1.575.873-2.389 1.492-1.623 1.251-2.636 2.596-2.992 4.011-.366 1.437-.047 2.792.937 4.067l10.02 13.057s2.414 3.163 3.824 2.089l2.258-1.724s1.582-1.044-.866-4.236l-9.986-12.986c-.475-.614-.598-1.211-.42-1.817.166-.647.693-1.286 1.571-1.966 0 0 .852-.804 2.268 1.022L-5.056 4.048s2.449 3.118 3.834 2.006L1.06 4.308S2.412 3.138 0 0" style="fill:#fff;fill-opacity:1;fill-rule:nonzero;stroke:none" transform="matrix(.64206 0 0 -.64206 60.355 169.216)"/><path d="M0 0c.918-.199 1.031-2.022.255-4.063l-6.406-16.872c-.777-2.032-2.164-3.546-3.077-3.358l-6.482 1.361c-.919.192-1.571 2.133-1.464 4.32l.995 17.982c.125 2.186.966 3.818 1.89 3.622l2.1-.442c.917-.182 1.568-2.133 1.449-4.32l-.758-14.24c-.11-2.184.487-2.155 1.204-.188 0 0 1.066 2.753 1.588 4.155a399.3 399.3 0 0 1 1.12 2.942c.765 2.058 1.902 5.124 2.548 6.822C-4.409-.577-3.134.653-2.221.469z" style="fill:#fff;fill-opacity:1;fill-rule:nonzero;stroke:none" transform="matrix(.64206 0 0 -.64206 91.468 177.193)"/><path d="m0 0 .876-.68C2.39-1.823 2.66-2.037 3.335-2.532c1.927-1.416 2.418-.929 1.275 1.238l-2.22 4.94c-.832 1.836-.909 3.814-.18 4.398l1.377 1.113c.726.595 1.911-.386 2.612-2.16l3.816-9.646c.699-1.782 2.47-4.715 3.927-6.514l.446-.539c1.458-1.807 2.057-3.756 1.321-4.353l-2.208-1.771c-.724-.599-2.513.391-3.967 2.19l-.436.553c-1.467 1.801-3.973 4.148-5.556 5.248L-4.941-2.08C-6.542-.985-7.258.384-6.531.976l1.904 1.547C-3.746 3.23 0 0 0 0" style="fill:#fff;fill-opacity:1;fill-rule:nonzero;stroke:none" transform="matrix(.64206 0 0 -.64206 150.96 163.693)"/><path d="M0 0c.8.487 1.851.248 2.336-.55.476-.786.212-1.834-.587-2.323l-1.244-.76c-.809-.491-.474-2.507.728-4.485l7.243-11.885c1.212-1.974 1.546-3.986.735-4.476l-2.56-1.568c-.788-.483-2.448.725-3.645 2.703l-7.241 11.888C-5.443-9.48-7.081-8.268-7.881-8.748l-.828-.506c-.801-.494-1.855-.25-2.335.544a1.705 1.705 0 0 0 .575 2.33z" style="fill:#fff;fill-opacity:1;fill-rule:nonzero;stroke:none" transform="matrix(.64206 0 0 -.64206 143.797 164.693)"/><path d="M0 0c.189-1.981.328-3.595.653-3.564l.297.005c1.325.138 1.468.156 1.896.217.667.105 1.148.217 1.439.349.296.146.446.447.558.618.047.071.07.84.07.84-.029.483-.196 1.801-.386 3.677-.054.549-.14.931-.265 1.122-.132.258-.368.422-.724.505-.33.079-.883.102-1.631.054C.776 3.733.456 3.592.456 3.592-.486 3.496-.2 1.994 0 0m-6.402 2.041c-.234 2.304.352 4.262 1.276 4.354l5.993.59c2.477.247 4.242.365 5.296.561 2.341.449 3.736-1.776 3.736-1.776.496-1.437.865-3.514 1.053-5.43.141-1.445.079-2.503-.208-3.136-.372-.829-.834-1.408-2.127-1.82.8-.277 1.442-.605 1.932-.966a3.824 3.824 0 0 0 1.075-1.262c.223-.42.396-.942.508-1.582l.07-.385c.105-.896.197-1.727.208-1.859.012-.144.177-1.772.362-3.626.172-1.849-.439-3.441-1.368-3.536l-3.136-.305c-.942-.092-1.891 1.713-2.109 4.011l-.059.585a853.612 853.612 0 0 0-.428 4.323c-.071.676-.147 1.122-.25 1.372a1.468 1.468 0 0 1-.668.864c-.367.174-.913.24-1.653.303-.358.037-1.714-.388-1.714-.388-.912-.078-.54-1.576-.306-3.878l.36-3.649c.224-2.299-.351-4.257-1.279-4.349l-2.751-.271c-.932-.088-1.88 1.711-2.111 4.013z" style="fill:#fff;fill-opacity:1;fill-rule:nonzero;stroke:none" transform="matrix(.64206 0 0 -.64206 110.07 181.14)"/><path d="m0 0-1.43-1.829c-1.614-2.052-4.609-2.422-6.665-.817l-8.701 6.814c-2.059 1.615-2.428 4.616-.813 6.668l.437.558c1.608 2.053 2.485 4.084 1.945 4.511-.533.423-2.29-.925-3.896-2.975l-3.795-4.848c-1.602-2.062-1.393-5.25.664-6.865L-9.06-9.117c2.058-1.607 4.518-1.912 5.495-.684A1582.454 1582.454 0 0 0 1.111-3.82l1.426 1.834C4.132.068 5.263 1.906 4.178 2.75 3.116 3.593 1.604 2.056 0 0" style="fill:#fff;fill-opacity:1;fill-rule:nonzero;stroke:none" transform="matrix(.64206 0 0 -.64206 40.754 55.902)"/><path d="M0 0c-.941-1.186-1.042-2.226-.479-2.787.622-.609.869-1.447.484-1.946-.38-.484-1.8-.31-2.407-.072-.808.341-1.738-.453-2.304-1.194-.866-1.161.063-3.387 2.12-5.001l13.26-10.369c2.045-1.613 4.464-2 5.353-.86.892 1.136-.059 3.39-2.115 4.996l-8.951 6.998C2.902-8.623 1.53-6.906 1.922-6.415c.381.49 2.378-.42 4.435-2.037l8.997-7.042c2.064-1.614 4.506-1.957 5.437-.776.92 1.183-.005 3.474-2.056 5.078L5.41-.776C3.365.832.921 1.187 0 0" style="fill:#fff;fill-opacity:1;fill-rule:nonzero;stroke:none" transform="matrix(.64206 0 0 -.64206 35.387 38.702)"/><path d="m0 0-2.307-.026c-2.616-.037-4.77 2.072-4.808 4.683l-.13 11.049c-.03 2.613 2.078 4.781 4.678 4.802l.729.011c2.603.033 4.736.617 4.726 1.294-.01.688-2.145 1.221-4.767 1.181l-6.146-.067c-2.612-.03-4.982-2.201-4.943-4.802l.204-16.765c.032-2.614 1.329-4.731 2.893-4.718 1.569.022 2.856.042 2.856.042l4.747.06 2.319.029c2.606.032 4.737.372 4.725 1.735C4.762-.132 2.62.026 0 0" style="fill:#fff;fill-opacity:1;fill-rule:nonzero;stroke:none" transform="matrix(.64206 0 0 -.64206 100.306 25.367)"/><path d="M0 0c-1.512-.009-2.387-.578-2.475-1.373-.087-.853-.585-1.572-1.198-1.588-.623-.007-1.383 1.206-1.566 1.828-.252.852-1.443 1.08-2.379 1.048-1.45-.045-2.599-2.164-2.569-4.781l.201-16.829c.029-2.604 1.249-4.742 2.691-4.712 1.441.016 2.599 2.167 2.562 4.775l-.144 11.365c-.028 2.614.462 4.755 1.087 4.769.616-.003 1.155-2.132 1.174-4.741l.145-11.439c.025-2.61 1.288-4.732 2.798-4.713 1.49.014 2.701 2.168 2.671 4.781L2.786-4.704C2.763-2.091 1.504.031 0 0" style="fill:#fff;fill-opacity:1;fill-rule:nonzero;stroke:none" transform="matrix(.64206 0 0 -.64206 110.365 10.421)"/><path d="m0 0-17.473 9.661c-2.286 1.264-4.44 1.78-4.798 1.145-.35-.634 1.23-2.181 3.518-3.44L-6.249.452C-3.966-.81-2.67-2.873-3.372-4.144c-.692-1.264-.154-2.909 1.22-3.679 1.373-.748 3.332.151 4.364 2.022C3.242-3.943 2.285-1.258 0 0" style="fill:#fff;fill-opacity:1;fill-rule:nonzero;stroke:none" transform="matrix(.64206 0 0 -.64206 142.4 35.62)"/><path d="M0 0c-.927.519-1.359 1.511-.972 2.21.385.709-.404 1.899-1.757 2.634-1.347.752-3.492-.508-4.748-2.786l-4.051-7.333c-1.272-2.294-1.195-4.767.149-5.515 1.37-.746 3.505.514 4.765 2.797l1.358 2.473c1.276 2.287 3.071 3.74 3.99 3.226.94-.521 1.979-.424 2.331.218C1.41-1.454.939-.509 0 0" style="fill:#fff;fill-opacity:1;fill-rule:nonzero;stroke:none" transform="matrix(.64206 0 0 -.64206 151.065 28.699)"/><path d="M0 0c-1.727.962-2.353 3.128-1.394 4.842a3.547 3.547 0 0 0 4.838 1.393c1.721-.943 2.342-3.115 1.391-4.837A3.567 3.567 0 0 0 0 0m13.1 2.901c.347.638-.794 1.937-2.533 2.903-1.731.954-2.858 2.275-2.502 2.926.352.644-.529 1.824-1.962 2.619-1.449.803-2.915.917-3.272.267-.359-.64-2.112-.359-3.912.621-1.786.989-3.54 1.288-3.889.649-.304-.546.851-1.781 2.649-2.925-1.992-.514-3.698-1.706-4.694-3.501-2.121-3.844-.225-8.971 4.259-11.44 4.474-2.468 9.82-1.362 11.943 2.484 1.01 1.81 1.105 3.922.465 5.887 1.723-.761 3.161-.988 3.448-.49" style="fill:#fff;fill-opacity:1;fill-rule:nonzero;stroke:none" transform="matrix(.64206 0 0 -.64206 135.734 26.204)"/><path d="m0 0-15.078-8.694c-2.271-1.318-4.796-1.2-5.626.237-.83 1.449-2.59 1.998-3.906 1.243-1.332-.766-1.394-3.133-.164-5.276 1.232-2.131 3.331-3.261 4.639-2.497 1.322.76 4.249 2.446 6.52 3.757L1.469-2.526C3.729-1.217 5.25.419 4.847 1.104 4.445 1.808 2.27 1.31 0 0" style="fill:#fff;fill-opacity:1;fill-rule:nonzero;stroke:none" transform="matrix(.64206 0 0 -.64206 73.429 30.617)"/><path d="M0 0c-2.048-1.179-4.667-.482-5.838 1.561a4.283 4.283 0 0 0 1.558 5.84 4.28 4.28 0 0 0 5.842-1.573A4.262 4.262 0 0 0 0 0m6.699 4.156c.392 1.927.138 3.915-.854 5.656-2.395 4.146-8.153 5.3-12.862 2.578-4.716-2.716-6.589-8.283-4.205-12.423 1.004-1.746 2.614-2.95 4.488-3.569-1.927-1.226-3.163-2.625-2.803-3.244.389-.675 2.556-.156 4.823 1.146l1.502.866C-.946-3.53 1.252-3.073 1.672-3.822c.441-.75 1.879-.732 3.189.027 1.325.768 2.055 2.005 1.616 2.751-.428.745.607 2.153 2.274 3.124 1.696.967 2.754 2.324 2.364 3.004-.37.628-2.309.214-4.416-.928" style="fill:#fff;fill-opacity:1;fill-rule:nonzero;stroke:none" transform="matrix(.64206 0 0 -.64206 60.748 29.311)"/><path d="M0 0c-.949-.55-1.221-1.958-.831-3.527.371-1.243.66-1.758.848-2.099.052-.079 5.336-9.181 5.371-9.247-1.886-1.118-2.862-2.423-2.468-3.095.38-.639 2.096-.357 3.911.624l-.034.058c1.32-2.277 3.49-3.504 4.81-2.738 1.331.771 1.343 3.268.018 5.538L4.815-2.735C3.487-.457 1.324.769 0 0" style="fill:#fff;fill-opacity:1;fill-rule:nonzero;stroke:none" transform="matrix(.64206 0 0 -.64206 66.883 16.793)"/><path d="M0 0c-1.892-1.614-2.502-4.027-1.36-5.366 1.14-1.338 3.683-1.063 5.65.614l9.121 7.779c1.966 1.675 2.141 4.732.446 6.717L2.151 23.474c-1.694 1.987-3.601 3.165-4.24 2.623-.639-.546.225-2.616 1.921-4.602l7.604-8.918c1.692-1.985 1.932-4.588.531-5.785Z" style="fill:#fff;fill-opacity:1;fill-rule:nonzero;stroke:none" transform="matrix(.64206 0 0 -.64206 167.717 55.61)"/><path d="M0 0c-.617-.523-1.598-.391-3.093 1.364l-16.226 19.028c-1.214 1.424-1.431 2.326-.635 3.006.816.694 1.91.019 3.005-1.261 1.104-1.294 1.765-1.95 3.823-.383.09.069 1.821 1.541 1.917 1.623 1.264 1.077 3.05 1.078 4.057-.105 1.009-1.183.583-2.779-.68-3.857-.102-.088-1.841-1.57-1.94-1.66-1.101-.98-1.485-2.294-.826-3.069l.397-.462c.998-1.172 2.124-.689 3.293.243.093.073 1.821 1.544 1.912 1.622 1.263 1.078 3.049 1.08 4.058-.102 1.011-1.185.586-2.781-.679-3.859-.094-.079-1.82-1.555-1.902-1.635-1.793-1.714.035-4.148 2.606-7.162C.203 2.022.612.524 0 0" style="fill:#fff;fill-opacity:1;fill-rule:nonzero;stroke:none" transform="matrix(.64206 0 0 -.64206 167.123 62.51)"/></svg>