<svg xmlns="http://www.w3.org/2000/svg" width="267.25201mm" height="238.53174mm" viewBox="0 0 267.25201 238.53174"><path d="M0 0h.727v-2.539h2.421V0h.725v-6.07h-.725v2.765H.727V-6.07H0Z" style="fill:#666565;fill-opacity:1;fill-rule:nonzero;stroke:none" transform="matrix(1.90091 0 0 -1.90091 0 226.795)"/><path d="M0 0h2.836v-.766H.727v-1.773h1.921v-.766H.727v-2h2.109v-.765H0Z" style="fill:#666565;fill-opacity:1;fill-rule:nonzero;stroke:none" transform="matrix(1.90091 0 0 -1.90091 11.056 226.795)"/><path d="m0 0-1.008-3.01h2.016zm-.355.816h.761l2.139-6.07h-.791L1.24-3.723h-2.48l-.516-1.531h-.76z" style="fill:#666565;fill-opacity:1;fill-rule:nonzero;stroke:none" transform="matrix(1.90091 0 0 -1.90091 23.48 228.347)"/><path d="M0 0h.725v-5.305h2.117v-.765H0Z" style="fill:#666565;fill-opacity:1;fill-rule:nonzero;stroke:none" transform="matrix(1.90091 0 0 -1.90091 30.8 226.795)"/><path d="M0 0h-1.574v.766h3.873V0H.725v-5.305H0Z" style="fill:#666565;fill-opacity:1;fill-rule:nonzero;stroke:none" transform="matrix(1.90091 0 0 -1.90091 39.967 228.25)"/><path d="M0 0h.725v-2.539h2.421V0h.727v-6.07h-.727v2.765H.725V-6.07H0Z" style="fill:#666565;fill-opacity:1;fill-rule:nonzero;stroke:none" transform="matrix(1.90091 0 0 -1.90091 46.888 226.795)"/><path d="M140.65 212.352h.256v2.141h-.256z" style="fill:#666565;fill-opacity:1;fill-rule:nonzero;stroke:none;stroke-width:.352778" transform="matrix(5.3884 0 0 5.3884 -695.07 -917.443)"/><path d="M0 0h.986l2.235-4.887h.013V0h.725v-6.07h-.928L.74-1.078H.727V-6.07H0Z" style="fill:#666565;fill-opacity:1;fill-rule:nonzero;stroke:none" transform="matrix(1.90091 0 0 -1.90091 67.731 226.795)"/><path d="M0 0c-.371.176-.574.254-.951.254-.406 0-.885-.174-.885-.809 0-1.166 2.176-.896 2.176-2.896 0-1.295-.834-1.809-1.85-1.809-.355 0-.703.121-1.037.252l.074.809c.246-.121.682-.295 1.051-.295.414 0 .994.277.994.99 0 1.358-2.176.983-2.176 2.869 0 1.08.711 1.653 1.624 1.653.334 0 .732-.069 1.082-.217z" style="fill:#666565;fill-opacity:1;fill-rule:nonzero;stroke:none" transform="matrix(1.90091 0 0 -1.90091 83.172 228.533)"/><path d="M0 0h-1.574v.766h3.871V0H.725v-5.305H0Z" style="fill:#666565;fill-opacity:1;fill-rule:nonzero;stroke:none" transform="matrix(1.90091 0 0 -1.90091 88.715 228.25)"/><path d="M146.73 212.352h.255v2.141h-.256z" style="fill:#666565;fill-opacity:1;fill-rule:nonzero;stroke:none;stroke-width:.352778" transform="matrix(5.3884 0 0 5.3884 -695.07 -917.443)"/><path d="M0 0h-1.572v.766h3.871V0H.725v-5.305H0Z" style="fill:#666565;fill-opacity:1;fill-rule:nonzero;stroke:none" transform="matrix(1.90091 0 0 -1.90091 102.415 228.25)"/><path d="M0 0c0-1.705-.719-2.617-1.965-2.617-1.248 0-1.965.912-1.965 2.617v3.557h.725V.113c0-1.166.305-1.965 1.24-1.965.936 0 1.24.799 1.24 1.965v3.444H0Z" style="fill:#666565;fill-opacity:1;fill-rule:nonzero;stroke:none" transform="matrix(1.90091 0 0 -1.90091 116.754 233.556)"/><path d="M0 0h-1.574v.766h3.873V0H.725v-5.305H0Z" style="fill:#666565;fill-opacity:1;fill-rule:nonzero;stroke:none" transform="matrix(1.90091 0 0 -1.90091 122.241 228.25)"/><path d="M0 0h2.836v-.766H.725v-1.773h1.921v-.766H.725v-2h2.111v-.765H0Z" style="fill:#666565;fill-opacity:1;fill-rule:nonzero;stroke:none" transform="matrix(1.90091 0 0 -1.90091 129.162 226.795)"/><path d="M0 0c1.168 0 1.668 1.164 1.668 2.373 0 1.234-.551 2.383-1.668 2.375-1.115.008-1.668-1.141-1.668-2.375C-1.668 1.164-1.166 0 0 0m0 5.512c1.537 0 2.438-1.338 2.438-3.139C2.438.529 1.545-.766 0-.766c-1.545 0-2.436 1.295-2.436 3.139 0 1.801.899 3.139 2.436 3.139" style="fill:#666565;fill-opacity:1;fill-rule:nonzero;stroke:none" transform="matrix(1.90091 0 0 -1.90091 146.93 237.076)"/><path d="M0 0h2.689v-.766H.725v-1.773h1.879v-.766H.725V-6.07H0Z" style="fill:#666565;fill-opacity:1;fill-rule:nonzero;stroke:none" transform="matrix(1.90091 0 0 -1.90091 154.542 226.795)"/><path d="M0 0h-1.574v.766h3.873V0H.725v-5.305H0Z" style="fill:#666565;fill-opacity:1;fill-rule:nonzero;stroke:none" transform="matrix(1.90091 0 0 -1.90091 169.47 228.25)"/><path d="M0 0h2.836v-.766H.725v-1.773h1.921v-.766H.725v-2h2.111v-.765H0Z" style="fill:#666565;fill-opacity:1;fill-rule:nonzero;stroke:none" transform="matrix(1.90091 0 0 -1.90091 176.391 226.795)"/><path d="M0 0c-.32.227-.676.34-1.045.34-1.168 0-1.943-1.01-1.943-2.375 0-1.426.855-2.373 1.908-2.373.361 0 .848.111 1.101.295l.043-.844c-.384-.191-.855-.217-1.152-.217-1.603 0-2.668 1.235-2.668 3.164 0 1.871 1.131 3.114 2.676 3.114.391 0 .775-.069 1.139-.26z" style="fill:#666565;fill-opacity:1;fill-rule:nonzero;stroke:none" transform="matrix(1.90091 0 0 -1.90091 191.736 228.696)"/><path d="M0 0h.725v-2.539h2.421V0h.725v-6.07h-.725v2.765H.725V-6.07H0Z" style="fill:#666565;fill-opacity:1;fill-rule:nonzero;stroke:none" transform="matrix(1.90091 0 0 -1.90091 194.687 226.795)"/><path d="M0 0h.986l2.235-4.887h.013V0h.725v-6.07h-.928L.74-1.078H.727V-6.07H0Z" style="fill:#666565;fill-opacity:1;fill-rule:nonzero;stroke:none" transform="matrix(1.90091 0 0 -1.90091 205.659 226.795)"/><path d="M0 0c1.166 0 1.668 1.164 1.668 2.373 0 1.234-.553 2.383-1.668 2.375-1.117.008-1.668-1.141-1.668-2.375C-1.668 1.164-1.168 0 0 0m0 5.512c1.537 0 2.436-1.338 2.436-3.139C2.436.529 1.543-.766 0-.766c-1.545 0-2.438 1.295-2.438 3.139 0 1.801.901 3.139 2.438 3.139" style="fill:#666565;fill-opacity:1;fill-rule:nonzero;stroke:none" transform="matrix(1.90091 0 0 -1.90091 220.866 237.076)"/><path d="M0 0h.725v-5.305h2.117v-.765H0Z" style="fill:#666565;fill-opacity:1;fill-rule:nonzero;stroke:none" transform="matrix(1.90091 0 0 -1.90091 228.544 226.795)"/><path d="M0 0c1.168 0 1.668 1.164 1.668 2.373 0 1.234-.551 2.383-1.668 2.375-1.117.008-1.668-1.141-1.668-2.375C-1.668 1.164-1.168 0 0 0m0 5.512c1.537 0 2.438-1.338 2.438-3.139C2.438.529 1.545-.766 0-.766c-1.545 0-2.436 1.295-2.436 3.139 0 1.801.899 3.139 2.436 3.139" style="fill:#666565;fill-opacity:1;fill-rule:nonzero;stroke:none" transform="matrix(1.90091 0 0 -1.90091 240.688 237.076)"/><path d="M0 0c-.355.277-.74.418-1.393.418-1.168 0-1.943-1.018-1.943-2.375 0-1.426.856-2.373 1.908-2.373.5 0 .631.06.811.103v1.844h-1.065v.713H.109v-3.156c-.275-.113-.754-.27-1.545-.27-1.603 0-2.668 1.235-2.668 3.164 0 1.871 1.131 3.114 2.676 3.114.739 0 1.065-.129 1.487-.303z" style="fill:#666565;fill-opacity:1;fill-rule:nonzero;stroke:none" transform="matrix(1.90091 0 0 -1.90091 255.687 228.845)"/><path d="m0 0-1.98 3.531h.849L.377.809 1.85 3.531h.847L.725 0v-2.539H0Z" style="fill:#666565;fill-opacity:1;fill-rule:nonzero;stroke:none" transform="matrix(1.90091 0 0 -1.90091 262.125 233.508)"/><path d="M0 0h-.994v4.18h-2.867v-20.035h2.867v13.556H0v-13.556h2.869V4.18H0Z" style="fill:#666565;fill-opacity:1;fill-rule:nonzero;stroke:none" transform="matrix(1.90091 0 0 -1.90091 25.993 186.323)"/><path d="M0 0v8.605h5.689v2.298h-8.558v-13.2h8.558V0Z" style="fill:#666565;fill-opacity:1;fill-rule:nonzero;stroke:none" transform="matrix(1.90091 0 0 -1.90091 5.51 199.102)"/><path d="M0 0h2.117v-8.127h2.869V6.375H2.117V2.297H0Z" style="fill:#666565;fill-opacity:1;fill-rule:nonzero;stroke:none" transform="matrix(1.90091 0 0 -1.90091 62.619 190.496)"/><path d="M0 0h-2.869v-7.646h13.795v2.31H0Z" style="fill:#666565;fill-opacity:1;fill-rule:nonzero;stroke:none" transform="matrix(1.90091 0 0 -1.90091 51.347 201.927)"/><path d="m0 0 2.232 1.287-5.064 7.768H.807v2.297h-11.508V9.055h3.846l-5.065-7.77L-9.672.027l4.828 7.446z" style="fill:#666565;fill-opacity:1;fill-rule:nonzero;stroke:none" transform="matrix(1.90091 0 0 -1.90091 61.126 199.956)"/><path d="M145.215 205.633h3.076v1.112h-3.076zm2.056 1.923h2.032v-4.206h-1.012v1.473h-3.076v-1.473h-1.012v4.206h2.048v1.6h-2.4v.81h5.821v-.81h-2.4z" style="fill:#666565;fill-opacity:1;fill-rule:nonzero;stroke:none;stroke-width:.352778" transform="matrix(5.3884 0 0 5.3884 -695.07 -917.443)"/><path d="M0 0h-2.891v-7.646h13.799v2.314H0Z" style="fill:#666565;fill-opacity:1;fill-rule:nonzero;stroke:none" transform="matrix(1.90091 0 0 -1.90091 126.088 201.927)"/><path d="M0 0h2.869v4.613h2.809V-3.43h2.869v14.481H5.678V6.91H2.869v4.141H-7.953V8.754H0Z" style="fill:#666565;fill-opacity:1;fill-rule:nonzero;stroke:none" transform="matrix(1.90091 0 0 -1.90091 130.573 199.384)"/><path d="M0 0h-.992v4.081h-2.869v-20.036h2.869v13.656H0v-13.656h2.871V4.081H0Z" style="fill:#666565;fill-opacity:1;fill-rule:nonzero;stroke:none" transform="matrix(1.90091 0 0 -1.90091 181.533 186.134)"/><path d="M0 0v8.605h5.691v2.298h-8.56v-13.2h8.564V0Z" style="fill:#666565;fill-opacity:1;fill-rule:nonzero;stroke:none" transform="matrix(1.90091 0 0 -1.90091 161.05 199.102)"/><path d="M0 0c0 .693.232 1.283.689 1.756.502.545 1.198.82 2.071.82.873 0 1.57-.275 2.072-.822.457-.486.688-1.092.688-1.799 0-.693-.225-1.285-.665-1.756-.517-.545-1.214-.822-2.072-.822-.873 0-1.578.277-2.094.822C.232-1.314 0-.709 0 0m6.746-3.572c.877.926 1.322 2.08 1.322 3.435 0 1.557-.568 2.83-1.693 3.787h2.242v2.299H4.205v1.28H1.338v-1.28h-4.457V3.65h2.242c-1.109-.941-1.672-2.207-1.672-3.765 0-1.354.453-2.516 1.346-3.455.971-1.034 2.312-1.555 3.986-1.555 1.66 0 2.992.521 3.963 1.553" style="fill:#666565;fill-opacity:1;fill-rule:nonzero;stroke:none" transform="matrix(1.90091 0 0 -1.90091 200.646 191.25)"/><path d="M0 0h-2.869v-11.715H0v5.302h1.943v2.297H0Z" style="fill:#666565;fill-opacity:1;fill-rule:nonzero;stroke:none" transform="matrix(1.90091 0 0 -1.90091 226.049 178.332)"/><path d="M0 0h10.908v-5.143h2.869v7.442H0Z" style="fill:#666565;fill-opacity:1;fill-rule:nonzero;stroke:none" transform="matrix(1.90091 0 0 -1.90091 199.86 206.687)"/><path d="M0 0v8.113h-2.869V0h-1.656v8.113h-2.893V0h-2.922v-2.299H6.164V0Z" style="fill:#666565;fill-opacity:1;fill-rule:nonzero;stroke:none" transform="matrix(1.90091 0 0 -1.90091 255.245 209.572)"/><path d="M0 0h-14.229v-2.297h11.36V-15.25H0Z" style="fill:#666565;fill-opacity:1;fill-rule:nonzero;stroke:none" transform="matrix(1.90091 0 0 -1.90091 263.892 178.291)"/><path d="M0 0c3.98-15.918 15.68-28.777 30.896-34.361 15.206 5.58 26.897 18.423 30.885 34.326L30.895 12.5Z" style="fill:#fff;fill-opacity:1;fill-rule:nonzero;stroke:none" transform="matrix(1.90091 0 0 -1.90091 74.897 83.394)"/><path d="M0 0c.449 2.68.689 5.432.689 8.238v28.581h-64.748V8.238c0-2.795.239-5.535.684-8.203l31.691 12.821z" style="fill:#fff;fill-opacity:1;fill-rule:nonzero;stroke:none" transform="matrix(1.90091 0 0 -1.90091 193.856 76.214)"/><path d="M0 0c-15.217 5.584-26.916 18.443-30.896 34.361l30.894 12.5 30.887-12.535C26.896 18.424 15.205 5.58 0 0m-32.375 74.958h64.748V46.377c0-2.807-.24-5.559-.689-8.238L0 50.995l-31.691-12.821a49.72 49.72 0 0 0-.684 8.203zm-3.273 3.274V46.809c0-22.67 14.294-42.899 35.568-50.704L0-3.924l.08.029C21.354 3.91 35.646 24.139 35.646 46.809v31.423z" style="fill:#002952;fill-opacity:1;fill-rule:nonzero;stroke:none" transform="matrix(1.90091 0 0 -1.90091 133.628 148.712)"/><path d="M154.931 172.998h-1.644v1.213h1.644zM153.287 178.749h1.644v-3.747h-1.644z" style="fill:#002952;fill-opacity:1;fill-rule:nonzero;stroke:none;stroke-width:.352778" transform="matrix(5.3884 0 0 5.3884 -695.07 -917.443)"/><path d="M0 0h-7.512v5.809h-4.662v-16.301h4.662v7.051H0v-7.051h4.662V5.809H0Z" style="fill:#002952;fill-opacity:1;fill-rule:nonzero;stroke:none" transform="matrix(1.90091 0 0 -1.90091 106.96 25.782)"/><path d="M0 0v-3.441h5.516v-12.86h4.66v12.86h5.607V0Z" style="fill:#002952;fill-opacity:1;fill-rule:nonzero;stroke:none" transform="matrix(1.90091 0 0 -1.90091 153.718 14.74)"/><path d="M0 0c-.217.012-.578.018-.953.018-.399 0-.76-.006-.977-.018-.074.018-.109.066-.119.137-.014.076.002.17.063.213l.283.031c.232.019.269.023.269.529v2.088c0 .428-.027.455-.232.486l-.277.037a.203.203 0 0 0-.106.168c-.002.03-.004.129.059.18.25.047.521.11.799.19.148.046.285.105.382.146.108.045.147.061.176.061a.157.157 0 0 0 .153-.123 15.05 15.05 0 0 1-.016-.776V.91c0-.506.035-.51.269-.529l.248-.02C.115.307.131.213.119.139.109.068.074.018.025.002L.014-.002Z" style="fill:#002952;fill-opacity:1;fill-rule:nonzero;stroke:none" transform="matrix(1.90091 0 0 -1.90091 124.246 136.913)"/><path d="M0 0c-.053.021-.092.076-.102.145-.009.072.014.144.061.181C1.043.615 1.727 1.59 1.727 2.824c0 .539-.153 1.342-.573 1.342-.246 0-.379-.35-.379-.678 0-.47.174-1.008.555-1.08.072-.012.106-.012.156-.012a.195.195 0 0 0 .106-.21c-.133-.168-.401-.26-.668-.26-.617 0-1.1.529-1.1 1.205 0 .836.61 1.467 1.414 1.467.891 0 1.512-.703 1.512-1.709 0-.748-.305-1.455-.857-1.991C1.393.412.576.014.029-.006L.014-.008Z" style="fill:#002952;fill-opacity:1;fill-rule:nonzero;stroke:none" transform="matrix(1.90091 0 0 -1.90091 126.808 137.592)"/><path d="M0 0c-.127 0-.311.092-.326.266l1.601 2.953c.121.226.192.377.192.472 0 .028-.067.032-.106.032H.076c-.326 0-.361-.032-.488-.276a.17.17 0 0 0-.139-.066c-.076 0-.168.041-.195.121.082.297.152.615.201.85l.045.203.061-.004c.199-.012.343-.02.722-.02h1.162c.43 0 .803.008.868.02.111-.026.146-.113.134-.182-.15-.246-.334-.57-.607-1.074L.08.012.047.006Z" style="fill:#002952;fill-opacity:1;fill-rule:nonzero;stroke:none" transform="matrix(1.90091 0 0 -1.90091 135.065 137.637)"/><path d="M0 0c-.127 0-.311.092-.326.266l1.601 2.953c.121.226.192.377.192.472 0 .028-.067.032-.106.032H.076c-.326 0-.361-.032-.488-.276a.17.17 0 0 0-.139-.066c-.076 0-.168.041-.195.121.082.297.152.615.201.85l.045.203.061-.004c.199-.012.343-.02.722-.02h1.162c.43 0 .803.008.868.02.111-.026.146-.113.134-.182-.15-.246-.334-.57-.607-1.074L.08.012.047.006Z" style="fill:#002952;fill-opacity:1;fill-rule:nonzero;stroke:none" transform="matrix(1.90091 0 0 -1.90091 142.438 137.637)"/><path d="M0 0a4.344 4.344 0 0 0-3.439 1.65h-12.065v14.813h1.455V3.107h11.385l.213-.336C-1.924 1.947-1.008 1.455 0 1.455c1.006 0 1.922.492 2.449 1.316l.215.336h11.383v13.356h1.455V1.65H3.438A4.343 4.343 0 0 0 0 0" style="fill:#002952;fill-opacity:1;fill-rule:nonzero;stroke:none" transform="matrix(1.90091 0 0 -1.90091 133.628 125.21)"/><path d="M0 0h-1.594c-.728 0-1.431.197-1.98.559-1.141.75-2.582 1.164-4.055 1.164-1.547 0-2.988-.465-4.064-1.305-1.063.83-2.526 1.307-4.043 1.311-1.493 0-2.944-.415-4.086-1.165-.547-.361-1.25-.558-1.981-.558h-1.593V12.25h1.593c.918 0 1.813.256 2.52.721 1.047.687 2.351 1.002 3.564 1.002 2.059-.004 3.049-.827 4.024-1.553.972.73 1.955 1.549 4.037 1.553 1.197 0 2.498-.315 3.545-1.002.707-.465 1.601-.721 2.519-.721H0Zm-11.697 17.504a4.965 4.965 0 0 0 4.34-2.561c-1.741.069-3.284-.464-4.34-1.297-1.061.829-2.592 1.364-4.34 1.299a4.966 4.966 0 0 0 4.34 2.559m10.103-4.272c-.726 0-1.429.198-1.976.557L.033 14.85a.237.237 0 0 1-.082.464l-6.334-.396-.029.062 5.113 3.772a.24.24 0 0 1 .065.311.238.238 0 0 1-.301.097l-5.93-2.588 3.578 5.391a.237.237 0 0 1-.361.303l-4.688-4.459 1.52 6.289a.24.24 0 0 1-.15.279.238.238 0 0 1-.293-.117l-2.879-5.795-.725 6.43a.235.235 0 0 1-.234.211.24.24 0 0 1-.237-.211l-.724-6.43-2.879 5.795a.238.238 0 0 1-.443-.162l1.519-6.289-4.687 4.459a.238.238 0 0 1-.362-.303l3.578-5.391-5.929 2.588a.236.236 0 0 1-.299-.097.238.238 0 0 1 .064-.311l5.114-3.772-.032-.062-6.334.396a.236.236 0 0 1-.248-.195.238.238 0 0 1 .166-.269l3.604-1.061c-.547-.359-1.248-.557-1.977-.557h-2.576V-.977h2.576c.92 0 1.815.256 2.52.721.984.647 2.244 1.002 3.564 1.002 2.047-.004 3.051-.846 4.057-1.557C-10.688-.037-9.717.74-7.629.74c1.283 0 2.533-.355 3.516-1.002.707-.465 1.601-.72 2.519-.72H.982v14.214z" style="fill:#002952;fill-opacity:1;fill-rule:nonzero;stroke:none" transform="matrix(1.90091 0 0 -1.90091 155.864 115.038)"/><path d="M0 0a32.62 32.62 0 0 1-.967.012h-.562c-.194 0-.403-.004-.662-.012-.038.021-.047.066-.049.098 0 .037.01.066.027.08l.166.025c.172.026.201.041.201.459v1.645c0 .408-.025.437-.201.463l-.123.017c-.029.018-.043.053-.041.092.002.041.018.074.045.088.227-.006.436-.012.637-.012s.41.006.619.014c.029-.018.041-.051.041-.092 0-.039-.012-.072-.031-.088l-.116-.019c-.179-.03-.203-.057-.203-.463V.76c0-.227.022-.35.069-.412.052-.073.127-.104.425-.104.383 0 .495.02.735.518a.086.086 0 0 0 .072.033.13.13 0 0 0 .111-.059 2.83 2.83 0 0 0-.179-.73L.01-.002Z" style="fill:#002952;fill-opacity:1;fill-rule:nonzero;stroke:none" transform="matrix(1.90091 0 0 -1.90091 128.928 100.12)"/><path d="M0 0c-.379 0-.639.078-.84.252-.215.186-.314.506-.314 1.008v1.105c0 .405-.024.424-.205.463l-.104.022c-.029.023-.039.064-.037.097.004.037.018.065.041.078.209-.005.418-.011.619-.011.205 0 .41.006.611.013.03-.017.04-.05.04-.088 0-.039-.01-.072-.03-.085l-.107-.022c-.18-.033-.201-.061-.201-.467V1.344c0-.52.05-1.073.677-1.073.455 0 .686.366.686 1.086v.536c0 .418-.022.703-.061.802-.037.088-.127.112-.234.133l-.113.022c-.047.046-.035.142-.006.173.236-.003.398-.009.57-.009.156 0 .311.006.469.013.041-.033.051-.131.012-.173l-.082-.022c-.106-.025-.182-.049-.217-.137-.041-.099-.063-.384-.063-.802v-.497c0-.392-.033-.794-.271-1.074C.658.117.352 0 0 0" style="fill:#002952;fill-opacity:1;fill-rule:nonzero;stroke:none" transform="matrix(1.90091 0 0 -1.90091 133.071 100.231)"/><path d="M0 0a18.263 18.263 0 0 1-1.359 0c-.034.014-.049.061-.051.102 0 .039.012.066.031.078l.119.015c.141.018.143.047.143.047 0 .033-.016.072-.119.254-.061.113-.364.611-.428.697-.09-.173-.305-.515-.467-.841a.305.305 0 0 1-.037-.114c0-.011.025-.033.123-.043l.109-.013C-1.9.154-1.895.105-1.9.068-1.906.033-1.922.008-1.945 0c-.19.008-.405.012-.58.012-.137 0-.315-.004-.44-.012-.037.018-.051.059-.053.09-.002.037.008.066.028.08l.103.016c.246.035.338.166.477.365.121.168.34.494.519.777.039.059.057.11.057.129 0 .008-.002.043-.064.135-.051.078-.118.185-.192.303-.129.21-.283.457-.408.646-.096.145-.182.199-.365.232l-.071.014a.119.119 0 0 0-.039.106c.004.033.018.06.039.074a17.803 17.803 0 0 1 1.297.002c.028-.01.041-.031.049-.063a.15.15 0 0 0-.019-.115l-.102-.021c-.104-.02-.131-.043-.131-.053 0-.035.014-.071.065-.166.113-.207.24-.41.369-.608l.123.227c.094.146.181.281.269.437.043.079.043.106.043.127-.002.004-.021.024-.072.032l-.135.021c-.031.027-.037.076-.033.111.006.034.022.059.043.069.137-.006.293-.012.488-.012.201 0 .352.006.487.014.025-.012.039-.031.047-.061a.162.162 0 0 0-.02-.115l-.143-.023a.351.351 0 0 1-.23-.108 7.644 7.644 0 0 1-.623-.797.48.48 0 0 1-.082-.142.31.31 0 0 1 .056-.129c.315-.514.52-.844.67-1.084.149-.237.252-.289.403-.311L.014.182A.125.125 0 0 0 .047.084C.043.047.029.018.008.002L.004-.002Z" style="fill:#002952;fill-opacity:1;fill-rule:nonzero;stroke:none" transform="matrix(1.90091 0 0 -1.90091 142.624 100.12)"/><path d="M0 0a.224.224 0 0 0-.115.029c-.119.387-.391 1.012-.631 1.563-.104.24-.201.463-.274.638.004-.281-.005-.453-.009-.683a86.135 86.135 0 0 1-.008-.994c0-.213.021-.27.18-.295L-.693.23C-.666.211-.656.176-.66.133-.664.094-.678.064-.695.051c-.164.008-.344.012-.502.012a8.32 8.32 0 0 1-.475-.014c-.033.01-.053.041-.057.082-.003.035.004.082.034.099l.08.014c.203.037.215.053.24.328.018.184.035.489.055.832l.011.188c.016.297.03.654.03.892 0 .243-.088.305-.248.336l-.094.018c-.035.033-.039.092-.029.131.007.027.021.045.041.051a8.154 8.154 0 0 1 .941 0c.016-.241.119-.467.26-.778l.363-.812c.037-.088.168-.34.227-.45.029.106.095.243.209.502l.213.487c.205.461.294.664.386 1.039l.461-.002c.139 0 .332.004.483.014a.087.087 0 0 0 .048-.065.152.152 0 0 0-.025-.113l-.129-.028c-.17-.029-.246-.08-.246-.304 0-.903.01-1.375.035-1.942.008-.211.028-.298.176-.318l.135-.02c.035-.031.041-.087.033-.125-.006-.027-.02-.046-.039-.054A13.863 13.863 0 0 1 .719.049C.686.063.668.092.664.129c-.006.043.008.082.033.1L.828.25c.182.023.182.064.182.334l-.008 1.148v.504l-.125-.33A32.301 32.301 0 0 1 .098.041.145.145 0 0 0 0 0" style="fill:#002952;fill-opacity:1;fill-rule:nonzero;stroke:none" transform="matrix(1.90091 0 0 -1.90091 120.363 108.611)"/><path d="M0 0c-.379 0-.637.076-.84.25-.215.188-.314.508-.314 1.01v1.103c0 .407-.024.426-.203.465l-.106.022c-.029.021-.037.064-.035.097.002.037.018.065.041.078.207-.007.418-.011.619-.011.205 0 .41.004.611.013.028-.017.039-.05.039-.089 0-.04-.011-.071-.031-.086l-.105-.02c-.174-.033-.203-.051-.203-.469V1.344C-.527.824-.475.27.15.27c.455 0 .688.367.688 1.087v.534c0 .42-.024.705-.063.804-.035.088-.127.112-.232.133L.43 2.85c-.047.046-.037.142-.008.173.236-.005.4-.009.572-.009.154 0 .309.004.469.013.039-.035.051-.132.012-.173l-.084-.022c-.104-.025-.18-.051-.217-.137-.039-.099-.061-.384-.061-.804v-.495c0-.392-.033-.794-.273-1.074C.658.117.352 0 0 0" style="fill:#002952;fill-opacity:1;fill-rule:nonzero;stroke:none" transform="matrix(1.90091 0 0 -1.90091 128.412 108.626)"/><path d="M0 0c-.008 0-.008 0-.045.057-.055.08-.164.248-.307.431L-1.43 1.893c-.175.228-.283.367-.343.421.002-.037.002-.111.002-.271v-.857c0-.416.021-.702.06-.805.037-.088.133-.115.232-.131l.118-.02c.048-.044.037-.146.009-.177-.238.006-.406.01-.572.01a7.41 7.41 0 0 1-.469-.014c-.041.035-.052.137-.011.178l.078.017c.113.024.189.053.221.137.039.101.058.371.058.805v1.121c0 .248-.006.314-.029.371-.028.058-.072.119-.229.142l-.117.018c-.033.033-.035.094-.023.133.007.025.021.043.039.049.201-.01.41-.014.582-.014.142 0 .263.004.351.014.055-.202.311-.522.668-.967l.455-.567c.147-.185.25-.314.334-.402-.005.037-.005.111-.005.189v.61c0 .416-.024.701-.063.805-.037.089-.135.117-.232.132l-.114.018c-.049.045-.037.146-.008.178.237-.006.401-.01.573-.01.154 0 .304.004.469.014.039-.036.05-.137.009-.178l-.082-.018c-.121-.019-.185-.06-.217-.136-.039-.104-.062-.389-.062-.805V.828c0-.287 0-.566.01-.711C.227.051.105 0 0 0" style="fill:#002952;fill-opacity:1;fill-rule:nonzero;stroke:none" transform="matrix(1.90091 0 0 -1.90091 137.137 108.611)"/><path d="M0 0c-.127 0-.189-.027-.207-.053-.025-.033-.027-.133-.027-.248v-1.613c0-.227.005-.393.08-.484.07-.082.183-.123.338-.123.707 0 .959.654.959 1.265C1.143-.445.736 0 0 0m.02-2.754a4.1 4.1 0 0 0-.317.016 3.71 3.71 0 0 1-.24.011c-.201 0-.416-.003-.654-.013-.034.023-.041.068-.039.101 0 .018.005.063.031.078l.135.026c.179.029.203.056.203.459v1.564c0 .428-.012.491-.19.512l-.08.008c-.037.019-.049.08-.039.125.008.035.025.055.049.058.334.02.674.039 1.125.039.402 0 .723-.048.98-.146.524-.197.862-.707.862-1.295 0-.596-.276-1.082-.758-1.332C.816-2.688.477-2.754.02-2.754" style="fill:#002952;fill-opacity:1;fill-rule:nonzero;stroke:none" transform="matrix(1.90091 0 0 -1.90091 141.996 103.31)"/><path d="M0 0a14.126 14.126 0 0 1-1.266 0c-.029.018-.039.051-.039.092-.002.039.01.072.03.088l.123.025c.183.033.207.053.207.467v1.627c0 .414-.024.433-.207.467l-.118.023c-.025.018-.035.049-.035.09-.002.041.01.074.03.088.236-.006.445-.01.646-.01.197 0 .406.004.633.014.027-.018.039-.051.039-.092s-.012-.072-.029-.088l-.125-.025c-.184-.034-.207-.053-.207-.467V.672c0-.414.023-.434.207-.467L.006.182C.039.16.041.115.041.098.041.064.033.021.008.004L.004 0Z" style="fill:#002952;fill-opacity:1;fill-rule:nonzero;stroke:none" transform="matrix(1.90091 0 0 -1.90091 149.597 108.518)"/></svg>