<svg xmlns="http://www.w3.org/2000/svg" width="597.01117pt" height="600pt" viewBox="0 0 597.01117 600"><path d="M0 299.992C0 465.418 133.912 600 298.526 600c164.58 0 298.485-134.582 298.485-300.008S463.107 0 298.526 0C133.912 0 0 134.566 0 299.992Z" style="fill:#763996;fill-opacity:1;stroke-width:7.97003"/><path d="M7.858 299.992C7.858 138.926 138.248 7.89 298.526 7.89c160.237 0 290.627 131.036 290.627 292.102 0 161.066-130.39 292.102-290.627 292.102-160.278 0-290.668-131.036-290.668-292.102" style="fill:#fff;stroke-width:7.97003"/><path d="M399.098 38.904c-7.12-.032-12.572 4.58-16.334 13.836-2.997 7.535-4.528 16.685-4.57 27.47-.043 10.925 1.371 20.033 4.251 27.302 3.56 9.139 8.99 13.728 16.332 13.76 7.11.031 12.488-4.44 16.112-13.42 3.007-7.322 4.525-16.473 4.568-27.471.043-10.924-1.402-20.126-4.346-27.608-3.623-9.224-8.968-13.837-16.013-13.869zm-32.934 2.657-5.643.755 4.422 33.188-22.125 2.943-4.431-33.177-5.494.722 10.445 78.266 5.494-.723-4.973-37.299 22.125-2.955 4.973 37.301 5.654-.754zm64.578.16-10.031 78.318 28.416 3.635 1.01-7.79-22.932-2.933 9.031-70.53zm-31.699 4.877c4.91.02 8.608 2.933 11.084 8.746 2.465 5.749 3.677 14.07 3.635 24.984-.053 11.116-1.392 19.467-4.05 25.057-2.581 5.377-6.227 8.056-10.935 8.035-4.994-.021-8.713-2.689-11.19-8.024-2.603-5.525-3.9-13.931-3.847-25.185.043-10.914 1.361-19.223 3.944-24.951 2.582-5.792 6.375-8.673 11.359-8.662zm68.191.586-15.79 77.277 5.42 1.103 15.802-77.277zm-143.14.328-34.155 8.853 1.965 7.598 14.262-3.688 17.8 68.735 5.366-1.383-17.81-68.744 14.548-3.762zm173.22 6.08c-4.566.139-8.916 2.603-13.044 7.385-5.197 5.961-9.555 14.866-13.083 26.736-3.953 13.262-5.035 24.006-3.271 32.252 1.466 7.152 4.76 11.477 9.861 13.008 3.837 1.137 7.513.659 10.998-1.424 5.707-3.38 10.765-10.712 15.217-22.008l-5.472-1.627c-2.997 7.47-6.28 12.625-9.797 15.473-2.827 2.253-5.621 2.965-8.416 2.136-4.368-1.296-6.814-5.303-7.334-12.02-.553-6.428.659-14.61 3.613-24.536 2.922-9.787 6.63-17.193 11.137-22.188 4.123-4.612 8.13-6.344 12.04-5.175 2.657.786 4.537 2.539 5.674 5.26 1.552 3.56 1.66 8.672.417 15.366l5.343 1.594c1.85-7.662 2.168-13.952.967-18.851-1.445-5.569-4.844-9.15-10.21-10.744-1.571-.47-3.117-.684-4.64-.637zM268.293 64.355l-4.836 1.903 13.147 79.594 5.6-2.2-4.21-23.74 16.016-6.3 13.176 20.21 5.494-2.156zm278.006 7.94-24.57 48.086c-3.805 7.45-5.714 13.612-5.727 18.5.085 5.76 2.752 9.978 8.033 12.678 5.229 2.667 10.17 2.455 14.856-.637 4.378-2.816 8.523-8.034 12.423-15.664l24.463-47.906-5.07-2.592-24.664 48.277c-3.018 5.909-6.079 9.765-9.182 11.604-2.869 1.636-5.918 1.626-9.17-.032-3.39-1.732-5.207-4.176-5.462-7.322-.277-3.252 1.03-7.705 3.91-13.369l25.09-49.106Zm-275.69 5.334 19.17 29.201-13.209 5.207zm-38.953 3.49c-2.47-.045-4.93.605-7.379 1.95-5.76 3.177-8.29 8.959-7.6 17.343.596 7.885 3.88 17.257 9.874 28.096 6.673 12.104 13.56 20.426 20.67 24.953 6.142 3.964 11.528 4.664 16.193 2.103 3.507-1.944 5.749-4.887 6.727-8.851 1.583-6.419-.095-15.187-5.026-26.281l-4.984 2.754c3.199 7.396 4.58 13.336 4.144 17.841-.371 3.603-1.837 6.1-4.377 7.502-3.995 2.2-8.577 1.137-13.72-3.199-4.952-4.123-9.946-10.722-14.951-19.797-4.931-8.958-7.6-16.79-7.993-23.506-.393-6.174 1.191-10.245 4.762-12.21 2.412-1.34 4.996-1.456 7.727-.362 3.613 1.403 7.353 4.9 11.232 10.5l4.899-2.7c-4.156-6.694-8.418-11.338-12.764-13.91-2.487-1.44-4.964-2.18-7.434-2.226zM587.03 93.846l-44.61 65.045 4.57 3.134 35.515-51.804-17.354 64.26 4.942 3.4 44.61-65.057-4.686-3.219-34.537 50.348L592.3 97.46zm-404.314 17.236-4.41 3.613 38.638 47.256-55.257-33.664-4.954 4.049 49.948 61.06 4.28-3.507-39.765-48.627 56.81 34.675 4.645-3.794zm440.967 9.234-50.063 60.965 4.283 3.518 50.063-60.965zm10.806 8.47-44.642 69.157 3.869 3.752 67.713-46.8-4.08-3.975-54.825 37.81 36.069-55.982zm-490.273 20.913a18.825 18.825 0 0 0-1.217.002c-4.101.14-7.5 1.662-10.195 4.567-4.857 5.217-5.154 12.337-.914 21.38 3.506 7.312 9.2 14.633 17.107 21.987 8.002 7.439 15.654 12.572 22.943 15.388 9.14 3.582 16.196 2.69 21.18-2.677 4.846-5.207 5.208-12.2 1.074-20.957-3.347-7.163-9.044-14.494-17.1-21.975-8.012-7.439-15.758-12.616-23.25-15.527-3.534-1.371-6.744-2.1-9.628-2.188zm253.818 4.664c-135.001 0-244.435 109.975-244.435 245.625 0 135.671 109.434 245.637 244.435 245.637 134.96 0 244.395-109.966 244.395-245.637 0-135.65-109.435-245.625-244.395-245.625zm-251.814 1.762c1.863-.009 3.909.385 6.136 1.182 5.909 2.082 12.836 6.833 20.838 14.261 8.14 7.567 13.36 14.219 15.676 19.957 2.19 5.548 1.689 10.043-1.51 13.496-3.4 3.645-7.884 4.58-13.484 2.784-5.834-1.839-12.869-6.578-21.115-14.25-8.002-7.428-13.232-14.027-15.676-19.819-2.508-5.823-2.06-10.563 1.34-14.218 2.092-2.245 4.69-3.378 7.795-3.393zm521.181 5.54-61.347 49.753 19.945 24.59 6.09-4.942-16.451-20.285 22.603-18.332 14.889 18.352 6.1-4.951-14.89-18.352 20.446-16.578 16.26 20.04 6.1-4.95zM112.834 179.58l-18.129 25.578 64.451 45.664 18.3-25.834-6.397-4.537-15.112 21.317-23.74-16.832 13.666-19.278-6.408-4.549-13.666 19.29-21.477-15.22 14.92-21.06zm581.611 16.578-67.107 41.817 2.932 4.707 29.744-18.534 7.322 11.766c1.275 2.04 1.265 4.123-.031 6.227-1.19 1.87-3.657 4.059-7.387 6.556-3.783 2.434-7.13 4.59-10.01 6.471-4.027 2.837-6.673 4.9-7.98 6.207l3.719 5.973 2.55-1.584c.287-1.244.83-2.275 1.616-3.082.542-.585 1.743-1.53 3.603-2.858l.266-.16 11.007-7.226c4.134-2.657 6.93-5.017 8.407-7.079.797-1.222 1.382-2.847 1.754-4.877 1.69.882 3.878 1.052 6.566.51 3.23-.722 7.164-2.538 11.818-5.44 7.014-4.367 11.285-8.725 12.815-13.093 1.126-3.305.607-6.715-1.582-10.232zm-317.984 2.424v101.037H222.906c31.338-55.12 87.712-94.002 153.555-101.037zm43.125 0c65.811 7.035 122.184 45.916 153.533 101.037H419.586zm271.129 6.44 7.332 11.753c1.233 1.988 1.425 4.016.596 6.088-1.105 2.55-3.847 5.186-8.204 7.907-4.771 2.975-8.597 4.304-11.498 3.996-2.242-.309-4.124-1.69-5.654-4.145l-6.621-10.615zM88.34 216.124l-2.72 4.826 55.003 30.977c2.89 1.626 4.751 3.114 5.58 4.453 1.127 1.668 1.062 3.612-.203 5.844-1.19 2.114-2.613 3.178-4.281 3.199-1.68.01-4.23-.957-7.662-2.89l-6.143-3.456-2.72 4.826 7.492 4.229c2.224 1.252 4.25 2.182 6.101 2.826l-10.342 23.87-26.705-11.563 9.395-21.69-7.205-3.123-9.395 21.69-24.154-10.47 10.254-23.685-7.194-3.125-12.476 28.768 72.474 31.412 12.594-29.055-6.195-2.685c1.925.57 3.64.798 5.13.656 3.22-.319 5.846-2.275 7.876-5.877 1.902-3.358 2.275-6.386 1.148-9.074-1.445-3.422-5.283-6.898-11.553-10.426zm624.406 24.445c-3.48.095-7.36 1.135-11.648 3.112-5.516 2.55-9.279 5.472-11.266 8.756-1.307 2.274-2.508 6.524-3.592 12.751l-.232 1.254c-.553 3.23-1.127 5.78-1.711 7.65-.648 2.062-1.382 3.69-2.19 4.901-.84 1.158-1.934 2.156-3.295 3.006-1.02.776-2.561 1.636-4.623 2.604-4.335 1.997-7.777 2.551-10.306 1.67-2.221-.649-4.08-2.637-5.621-5.963-1.615-3.518-1.52-6.61.297-9.266 1.944-2.89 6.078-5.793 12.412-8.715l-2.338-5.078c-7.843 3.624-13.273 7.459-16.27 11.508-3.283 4.559-3.676 9.533-1.19 14.931 2.211 4.772 5.44 7.65 9.702 8.627 4.474.957 10.106-.136 16.896-3.271 6.153-2.837 10.308-6.058 12.465-9.639 1.51-2.508 2.796-7.132 3.89-13.869.872-5.717 1.955-9.531 3.294-11.434 1.2-1.849 3.656-3.623 7.365-5.334 3.454-1.594 6.439-2.06 8.957-1.402 2.36.659 4.07 2.146 5.154 4.473 1.244 2.699.947 5.536-.87 8.512-1.765 2.932-4.645 5.335-8.672 7.195l2.35 5.08c5.77-2.816 9.967-5.857 12.581-9.12 3.55-4.526 4.102-9.466 1.637-14.79-2.062-4.463-5.324-7.1-9.83-7.928a17.456 17.456 0 0 0-3.346-.22zm22.08 33.875-74.111 27.024 1.902 5.207 74.112-27.024zm4.846 12.477-7.567 2.103 3.932 14.176-68.404 18.979 1.478 5.345 68.414-18.978 4.018 14.484 7.566-2.105zM52.676 297.049l-1.455 4.974 71.008 38.288 1.68-5.77-21.362-11.191 4.814-16.514 24.05 1.924 1.657-5.674zm11.902 6.281 34.846 2.7-3.975 13.632zm685.69 22.484-43.58 23.327-31.85 4.953.851 5.472 32.262-5.005 48.194 9.095-.958-6.152-38.83-6.897 34.844-18.755zm-684.63 5.676c-4.779.112-8.924.749-12.431 1.912-6.727 2.243-10.53 6.249-11.422 12.051l-2.498 16.037 78.053 12.114 2.539-16.354c.988-6.397-2.347-11.764-9.998-16.1-6.493-3.719-15.835-6.524-28.002-8.416-6.047-.94-11.461-1.355-16.24-1.244zm2.118 5.672c3.847.021 8.283.422 13.305 1.203 11.136 1.732 19.213 3.996 24.24 6.801 5.239 2.827 7.523 6.323 6.875 10.479l-1.723 11.126-62.537-9.703 1.69-10.828c.616-3.942 3.4-6.61 8.384-8.002 2.662-.738 5.919-1.097 9.766-1.076zm136.797 5.815H376.46v110.115l-122.77 88.306c-35.408-36.513-57.246-86.385-57.246-141.41 0-19.797 2.837-38.935 8.108-57.011zm215.033 0h171.887c5.27 18.076 8.097 37.214 8.097 57.011 0 57.926-24.176 110.157-62.953 147.075L419.586 445.067ZM75.344 400.225c-8.257 0-14.994 6.747-14.994 15.068 0 8.331 6.737 15.068 14.994 15.068 8.3 0 15.015-6.737 15.015-15.068 0-8.32-6.716-15.068-15.015-15.068zm642.894 0c-8.3 0-15.006 6.747-15.006 15.068 0 8.331 6.707 15.068 15.006 15.068 8.278 0 14.994-6.737 14.994-15.068 0-8.32-6.716-15.068-14.994-15.068zM100.912 468.49l-27.14 10.893-3.231 9.287 12.37 29.266 6.735 1.998-10.593-25.047 4.058-9.842 21.201-8.512 12.954 6.291 7.257 17.153 5.569.234-9.5-22.424zm593.055 1.807-14.166 7.119-.998 2.922-17.014 49.818c-.531 1.626.34 3.347 2.008 3.889l.33.096c1.636.531 3.41-.34 3.963-1.944l17.46-51.19 4.73-2.368 27.68 8.978c3.327.818 6.038-2.953 6.038-2.953 1.169-4.25-2.87-5.549-2.87-5.549zm44.203 11.31c-1.193.098-2.258.858-2.664 2.014l-7.3 21.477-25.716-8.342c-1.626-.531-3.412.34-3.986 1.955l-.914 2.752c-.574 1.605.33 3.337 1.967 3.879l25.695 8.322-6.6 19.371-25.695-8.33c-1.647-.52-3.432.34-3.963 1.934l-.957 2.773c-.542 1.605.34 3.348 1.986 3.879l25.696 8.32-2.805 8.225a2.949 2.949 0 0 0 1.955 3.74c1.573.542 3.315-.317 3.836-1.869l22.572-66.205c.542-1.552-.309-3.22-1.892-3.762a3.23 3.23 0 0 0-1.215-.133zm-335.598 6.01 98.934 86.215c-30.233 18.225-65.642 28.723-103.473 28.723-40.509 0-78.233-11.998-109.826-32.688zm-271.39 19.324a3.138 3.138 0 0 0-1.217.24l-60.201 24.176c-1.605.638-2.37 2.434-1.711 3.997l.904 2.103c.648 1.583 2.477 2.317 4.092 1.68l38.096-15.293c.903.595 1.595 1.36 1.988 2.306.531 1.254.467 2.626-.043 3.996l-37.47 15.06c-1.606.647-2.37 2.443-1.7 4.005l.88 2.103a3.171 3.171 0 0 0 4.102 1.668l60.192-24.185c1.604-.638 2.38-2.434 1.72-3.975l-.892-2.125c-.67-1.583-2.508-2.306-4.102-1.68l-9.83 3.965c-1.36-.627-2.402-1.573-2.933-2.816-.404-.956-.457-1.988-.245-3.008l10.436-4.197c1.615-.648 2.37-2.433 1.711-4.006l-.902-2.105a3.133 3.133 0 0 0-2.875-1.909zm510.447 51.014a3.103 3.103 0 0 0-2.113 1.084l-2.891 3.379c-1.095 1.307-.904 3.21.414 4.305l29.701 24.09c1.329 1.094 3.305.893 4.432-.393l2.88-3.37a3.012 3.012 0 0 0-.425-4.314l-14.686-11.955 5.717-6.705a2.776 2.776 0 0 0-.351-3.963c-1.212-.967-3.05-.808-4.059.371l-5.748 6.727-10.574-8.555a3.206 3.206 0 0 0-2.297-.7zm-482.065.756c-.598-.043-1.307.139-2.044.828 0 0-1.902 1.042.021 4.188l7.078 8.298.742.862-5.386 4.357-22.04-.361s-4.74.372-3.974 5.42c0 0 .668 4.621 4.738 5.27l17.004-.223s6.938-1.934 11.104 6.525c0 0 3.964 4.942-1.817 12.072l-12.72 10.297s-3.157 2.805.17 7.002c0 0 2.157 3.422 6.195 1.637l15.867-14.324 2.656-12.252-4.793-10.405s2.932-3.357 7.024-.03l10.191 11.954 3.604-2.902-31.934-37.447s-.689-.695-1.686-.766zm474.932 9.43a2.714 2.714 0 0 0-1.824.93l-12.582 14.718-1.733-1.402a3.21 3.21 0 0 0-4.431.402l-4.973 5.824c-1.105 1.297-.913 3.23.404 4.315l1.743 1.392-13.03 15.291a2.605 2.605 0 0 0 .342 3.71c1.148.924 2.869.776 3.815-.35l34.59-40.532c.945-1.105.806-2.763-.352-3.709a2.723 2.723 0 0 0-1.969-.59zm12.633 15.193c-7.255.135-16.622 5.32-24.084 14.059-10.404 12.157-13.145 26.598-6.195 32.252 6.97 5.642 21.04.36 31.412-11.786 10.393-12.178 13.145-26.609 6.174-32.273-1.952-1.584-4.468-2.305-7.307-2.252zm-525.902 4.92a3.522 3.522 0 0 0-1.358.424l-9.756 7.896.948 16.385 35.662 41.88 6.664-2.624-33.57-39.393-2.073-10.447 7.545-6.11c2.89-2.018.754-4.091.754-4.091l-2.264-2.678c-.797-1.11-1.774-1.315-2.552-1.242zm522.693 3.715c1.544.027 2.903.451 3.969 1.32 4.272 3.464 2.254 12.689-4.494 20.606-6.77 7.927-15.717 11.54-19.989 8.066-4.272-3.454-2.264-12.698 4.516-20.615 5.06-5.946 11.364-9.458 15.998-9.377zm44.478 1.83-15.79 3.146-35.962 42.135a2.589 2.589 0 0 0 .34 3.697 2.747 2.747 0 0 0 3.805-.34l30.35-35.544 4.57-5.454c4.017-3.591 6.896-1.412 6.896-1.412l8.575 6.95c3.315 2.677 6.578-.606 6.578-.606 2.816-2.742-1.072-5.865-1.072-5.865zm-502.697 7.752a2.934 2.934 0 0 0-2.072.623 2.713 2.713 0 0 0-.361 3.879l5.42 6.343-23.624 19.096c-1.328 1.084-1.466 3.062-.318 4.4l2.795 3.262c1.137 1.36 3.156 1.573 4.484.51l32.243-26.121c1.35-1.084 1.486-3.049.328-4.398l-2.774-3.262c-1.147-1.371-3.176-1.584-4.494-.5l-4.314 3.484-5.41-6.344a2.768 2.768 0 0 0-1.903-.972zm37.928 30.015c-3.018 2.423-2.125 4.55-2.125 4.55l23.398 12.06 4.784 13.74-9.704 17.875-10.54 1.86-25.526-13.145c-2.38-1.233-3.656 1.094-3.656 1.094-2.498 3.347-.383 5.11-.383 5.11l28.969 14.92 16.185-1.593 12.104-22.273-6.93-20.489zm345.883 1.86c-.457.03-.913.158-1.334.394l-2.04 1.106c-1.498.829-2.052 2.71-1.19 4.197l5.218 9.022c-.489 1.381-1.307 2.496-2.55 3.166-.893.499-1.924.692-2.997.607l-5.549-9.576c-.84-1.488-2.761-2.018-4.28-1.168l-2.042 1.115c-1.509.829-2.05 2.7-1.21 4.166l31.942 55.3c.861 1.478 2.795 2 4.293 1.17l2.041-1.136c1.52-.818 2.062-2.668 1.211-4.156l-20.232-34.994c.5-.946 1.2-1.7 2.125-2.2 1.2-.669 2.614-.785 4.049-.466l19.926 34.43c.828 1.476 2.75 2.009 4.28 1.148l2.03-1.096c1.52-.84 2.042-2.719 1.213-4.185l-31.934-55.282a3.211 3.211 0 0 0-2.97-1.562zm-25.053 13.773-21.709 11.903-7.068 20.189 14.41 24.92 9.851 1.988 28.29-15.525 1.21-6.77-24.24 13.315-10.478-2.73-11.252-19.48 4.824-13.304 16.598-9.098zM275.668 658.57c-1.06.062-2.059.645-2.582 1.635l-30.404 56.004c-.83 1.488-.234 3.346 1.297 4.133l3.74 1.933a3.2 3.2 0 0 0 4.252-1.285l20.318-37.469 7.629 3.932c1.53.787 3.433.202 4.24-1.275l.713-1.328c.808-1.499.222-3.337-1.308-4.145l-7.598-3.932 6.408-11.796c.786-1.499.213-3.336-1.328-4.133l-3.719-1.924a3.237 3.237 0 0 0-1.658-.35zm202.156 15.262c-.209.005-.42.033-.63.082l-2.35.488c-1.711.372-2.764 2.02-2.403 3.657l7.737 33.888c.404 1.647 2.093 2.688 3.761 2.326l2.35-.51c1.71-.371 2.774-2.007 2.402-3.654l-7.748-33.888c-.316-1.432-1.656-2.427-3.119-2.389zm-148.8.295-13.73 5.738-2.019 10.063s-2.114 4.39 3.496 6.95l23.922 4.548-1.34 6.63-27.736-5.302-1.094 5.463 68.489 13.082 1.074-5.463-27.746-5.303 1.338-6.619 27.736 5.303.828-4.03-51.965-9.923s-3.484-.957-2.134-4.58c0 0-.129-2.423 4.898-1.446l50.754 9.68.754-3.74-51.934-9.914s-3.847-.745-2.965-3.56c0 0 .925-3.104 7.057-1.638l48.713 9.309.871-4.324zm123.367 5.951-40.627 8.82c-.978 5.218 3.984 4.41 3.984 4.41l35.717-7.788c4.793.807 6.62 6.47 6.62 6.47 1.287 4.453-1.265 5.016-1.265 5.016l-35.504 7.715c-6.875.69-5.43 4.867-5.43 4.867l1.999 8.756c1.509 11.02 11.603 8.002 11.603 8.002l43.475-9.426-.967-4.26-37.545 8.15c-6.514 1.159-7.619-2.55-7.619-2.55l-.924-4.018c-.956-4.272 3.54-5.77 3.54-5.77l35.769-7.779c3.092-.658 3.57-4.453 3.57-4.453l-2.137-9.265zm-141.389 33.315-1.158 5.748 57.552 10.988-1.55 7.78-58.287-11.128-2.125 10.639 5.695 7.363 59.914 11.446 1.445-7.194-54.601-10.435 1.213-6.038 55.013 10.522 3.432-16.97zm168.475 8.425-56.62 12.041 1.309 5.77 55.035-11.965 5.77 4.016 2.136 9.267s.414 3.072 4.707 2.934c0 0 3.965-.352 3.965-5.07l-1.976-7.48z" style="fill:#763996;fill-opacity:1;stroke-width:10.6267" transform="scale(.75)"/></svg>