<svg xmlns="http://www.w3.org/2000/svg" width="185.54716mm" height="185.54716mm" viewBox="0 0 185.54716 185.54716"><g transform="translate(-9.962 -100.62)"><circle cx="102.73584" cy="193.39281" r="92.773582" style="fill:#fff;fill-opacity:1;stroke:#fff;stroke-width:0"/><g style="fill:#0067b6;fill-opacity:1"><path d="m189.862 179.602-3.744 1.445v1.415l3.744-1.802v-1.058M192 181.078h-.996l-4.886 2.81v1.152l5.883-3.794v-.168" style="fill:#0067b6;fill-opacity:1;fill-rule:nonzero;stroke:none;stroke-width:.0352778" transform="matrix(6.12627 0 0 6.12667 -1079.443 -913.555)"/><path d="M194.195 177.004v.284l5.364-1.586v.16l-5.364 2.067v.646l5.352-2.58v.172l-5.056 2.907h.87l4.204-2.709.01.176-3.46 2.533h.213v2.004h-2.133v4.588h-2.194v-3.572l-5.88 4.313c.148-.03 4.498-.89 6.928.771 0 0 3.802-2.068 6.79-.846l.072-11.506s-4.1-.039-6.862.999c0 0-4.022-1.475-6.931-.999V179.676l5.883-1.745v-.929l2.194.002" style="fill:#0067b6;fill-opacity:1;fill-rule:nonzero;stroke:none;stroke-width:.0352778" transform="matrix(6.12627 0 0 6.12667 -1079.443 -913.555)"/><path d="m192 178.78-.766.294H192z" style="fill:#0067b6;fill-opacity:1;fill-rule:nonzero;stroke:none;stroke-width:.0352778" transform="matrix(6.12627 0 0 6.12667 -1079.443 -913.555)"/><path d="M178.503 180.57c0 8.004 6.513 14.51 14.515 14.51 8.003 0 14.516-6.506 14.516-14.51 0-8.006-6.513-14.519-14.516-14.519-8.002 0-14.515 6.513-14.515 14.518zm.146 0c0-7.924 6.447-14.365 14.37-14.365 7.922 0 14.369 6.44 14.369 14.364 0 7.92-6.447 14.364-14.37 14.364-7.922 0-14.369-6.445-14.369-14.364" style="fill:#0067b6;fill-opacity:1;fill-rule:nonzero;stroke:none;stroke-width:.0352778" transform="matrix(6.12627 0 0 6.12667 -1079.443 -913.555)"/><path d="M182.7 180.57c0 5.685 4.633 10.313 10.318 10.313 5.687 0 10.318-4.628 10.318-10.314 0-5.691-4.631-10.317-10.318-10.317-5.685 0-10.317 4.626-10.317 10.317zm.15 0c0-5.606 4.562-10.17 10.168-10.17 5.607 0 10.17 4.564 10.17 10.17 0 5.605-4.563 10.162-10.17 10.162-5.606 0-10.169-4.557-10.169-10.163" style="fill:#0067b6;fill-opacity:1;fill-rule:nonzero;stroke:none;stroke-width:.0352778" transform="matrix(6.12627 0 0 6.12667 -1079.443 -913.555)"/><path d="m184.86 173.422-1.652-1.137-.104.15 1.62 1.111-.242.347-2.222-1.527.238-.348.34.234.105-.15-.343-.236.241-.348 2.263 1.549zm-2.113 1.125c-.082.121-.205.14-.311.065l-1.169-.804.889-1.294.258.18-.652.949.78.534c.025.013.06.009.081-.019l.616-.9.265.188-.757 1.101M186.975 170.503l-.753-1.022c-.02-.028-.05-.035-.084-.008l-.225.16-.186-.25.302-.218-.15-.203.116-.117c.113-.075.242-.07.318.032l1.004 1.372zm-1.916-.242c.246.507.186.948-.351 1.292l-.19-.257c.439-.272.313-.735.102-1.049l-.506.366-.188-.25 1.574-1.15.185.252-.502.367c.353.438.69.513 1.03.227l.187.258c-.524.42-.927.35-1.34-.056zm.756 2.024c-.114.084-.237.07-.31-.033l-.432-.59.345-.247.333.46c.018.026.057.026.081.007l1.74-1.275.191.256-1.948 1.422M190.204 169.3l-.515-1.84.408-.111.52 1.836zm-1.509-.95c.022.49-.272.96-.818 1.087l-.094-.334c.59-.164.58-.807.499-1.244l.55-.154c.134.406.485.982 1.051.835l.087.311c-.578.173-1.008-.04-1.275-.5zm-.19 2.218c-.132.039-.234-.026-.273-.146l-.2-.701.407-.114.157.55c.009.034.033.044.072.034l2.143-.603.085.309-2.39.671M193.032 168.037c-.025.523-.914.519-.904-.022.008-.519.92-.507.904.022zm1.501-.47.006-.315-.46-.003c-.17-.005-.27.089-.278.242l-.015 1.289.423.002.018-1.163c0-.035.021-.059.061-.056zm-.961.057.006-.316-.78-.008v-.208l-.42-.004-.001.204-.778-.01-.008.305.323.005a.555.555 0 0 0-.178.427c.014.89 1.626.92 1.677.028a.592.592 0 0 0-.162-.432zm.693 2.317.015-.85c0-.139-.077-.209-.235-.215l-2.26-.031-.002.307 2.005.033c.045 0 .065.02.065.053l-.013.695.426.009M197.263 170.671l.574-1.92-.174-.055-.557 1.88-.406-.114.768-2.59.404.12-.12.396.176.049.114-.396.413.125-.779 2.627zm-1.722-1.666c-.137-.041-.194-.15-.16-.27l.406-1.362 1.5.447-.084.298-1.101-.328-.27.906c-.01.034.01.066.042.073l1.043.309-.089.309-1.287-.382M200.492 170.343c-.308.418-1.04-.094-.72-.536.295-.418 1.042.112.72.536zm1.508.47.182-.253-.375-.27c-.134-.097-.272-.081-.36.045l-.753 1.045.348.248.68-.947c.02-.029.045-.03.077-.013zm-.817-.508.181-.249-.632-.454.118-.168-.344-.242-.119.167-.638-.455-.177.248.266.193a.552.552 0 0 0-.395.243c-.492.741.815 1.684 1.365.973a.57.57 0 0 0 .11-.44zm-.754 2.303.496-.687c.08-.116.057-.217-.07-.308l-1.838-1.322-.184.253 1.638 1.175c.034.025.035.05.014.078l-.404.563.348.248M202.84 174.335l1.255-.893c.032-.023.034-.05.007-.086l-1.06-1.49.259-.18 1.205 1.698c.077.11.067.233-.037.307l-1.381.988zm-1.638-1.467.263-.185.349.492.726-.52.248.347-.727.525.243.334.726-.522.245.343-.73.52.529.75-.26.183-1.612-2.267M190.798 189.35v-.14h.132v-.94h-.132v-.14h.33v1.08h.133v.14h-.463M192.477 188.52a.373.373 0 0 1-.026.14c-.02.05-.04.087-.059.122l-.34.569h-.218l.273-.452a.151.151 0 0 1-.038.008c-.017.003-.03.003-.041.003a.445.445 0 0 1-.325-.111.38.38 0 0 1-.128-.296.39.39 0 0 1 .134-.301.457.457 0 0 1 .319-.12c.127 0 .23.04.318.12.09.08.13.185.13.319zm-.202-.022a.332.332 0 0 0-.068-.206.228.228 0 0 0-.179-.082.239.239 0 0 0-.18.08.324.324 0 0 0-.066.208c0 .079.022.149.065.204.047.055.107.08.181.08a.215.215 0 0 0 .18-.08.333.333 0 0 0 .067-.204M193.689 188.982a.406.406 0 0 1-.039.181.397.397 0 0 1-.106.13.423.423 0 0 1-.143.081.498.498 0 0 1-.162.024.48.48 0 0 1-.311-.104.407.407 0 0 1-.099-.12.25.25 0 0 1-.038-.133v-.024c0-.002.003-.002.007-.002h.193c.004 0 .01 0 .01.002v.024c0 .02.004.044.016.073.015.024.028.05.046.073a.44.44 0 0 0 .08.06.191.191 0 0 0 .096.022.249.249 0 0 0 .106-.023.31.31 0 0 0 .122-.154.337.337 0 0 0-.007-.22.23.23 0 0 0-.059-.094.248.248 0 0 0-.08-.05.221.221 0 0 0-.112-.025.46.46 0 0 0-.146.017 1.153 1.153 0 0 0-.12.05c-.044.023-.07.032-.086.016a.061.061 0 0 1-.01-.047l.089-.61h.676v.14h-.52l-.053.344a.458.458 0 0 1 .233-.04c.09.004.16.027.224.067a.45.45 0 0 1 .138.146c.04.063.055.093.055.093v.103M194.735 189.054v.153h.12v.144h-.446v-.144h.128v-.153h-.554v-.098l.616-.86h.136v.811h.198v.147zm-.198-.61-.334.463h.334zM181.957 176.952c0 .44-.349.797-.774.797a.787.787 0 0 1-.773-.797c0-.44.348-.795.773-.795.425 0 .774.354.774.795M205.63 176.952c0 .44-.343.797-.765.797a.79.79 0 0 1-.779-.797c0-.44.35-.795.779-.795.422 0 .765.354.765.795M180.922 182.352c-.268.044-.497.018-.696-.084a.642.642 0 0 1-.346-.492l-.083-.53 1.836-.302.084.531a.628.628 0 0 1-.17.577c-.154.158-.361.258-.625.3zm-.04-.227a.859.859 0 0 0 .472-.21c.125-.11.17-.256.14-.443l-.05-.288-1.4.229.05.285c.027.187.122.315.273.38.15.063.322.082.516.047M180.322 183.864l.412-.26-.185-.775-.487-.049-.05-.21 1.956.197.06.244-1.655 1.064zm1.429-.914-.965-.1.147.622zM180.428 184.234l1.77-.57.337 1.068-.211.07-.274-.87-.539.173.265.826-.208.069-.268-.832-.601.198.282.88-.21.067-.343-1.079M181.57 186.111c-.148.06-.279.064-.394.012a.441.441 0 0 1-.24-.255.442.442 0 0 1 .004-.345c.044-.118.14-.206.292-.266l.153-.055.074.187-.107.046c-.112.048-.182.104-.209.165a.25.25 0 0 0-.006.185c.025.062.07.108.136.139.064.027.149.022.265-.025l1.267-.505.075.192-1.31.525M181.295 186.605l1.668-.82.492 1.007-.198.098-.401-.818-.505.247.38.781-.196.098-.381-.78-.57.28.408.831-.196.095-.501-1.019M183.493 188.595c-.25.162-.49.235-.71.217a.642.642 0 0 1-.517-.312.623.623 0 0 1-.06-.6c.075-.207.239-.39.493-.55.247-.158.478-.225.7-.21.22.014.391.12.51.31a.642.642 0 0 1 .07.6c-.079.207-.241.392-.486.545zm-.128-.191c.191-.12.324-.26.388-.409a.419.419 0 0 0-.025-.427.425.425 0 0 0-.375-.205c-.166-.003-.347.057-.537.178a1.022 1.022 0 0 0-.393.413.437.437 0 0 0 .028.429c.084.132.209.199.375.203.166.002.348-.057.54-.182M183.584 190.168l.623-1.568-1.135.961-.134-.157 1.42-1.203.16.19-.618 1.57 1.134-.959.133.156-1.42 1.2-.163-.19M186.246 190.381l-.988 1.304-.169-.123.988-1.306-.42-.322.135-.178 1.017.772-.133.177-.43-.324M186.848 192.675l.417-.756-.714-.397-.418.758-.182-.1.898-1.627.182.098-.374.676.717.395.374-.673.184.1-.901 1.628-.183-.102M187.44 192.96l.661-1.742 1.044.402-.079.205-.85-.325-.202.53.814.31-.077.204-.814-.309-.223.591.863.332-.079.205-1.059-.404M190.425 192.882c-.067.291-.188.508-.36.647a.631.631 0 0 1-.587.142.645.645 0 0 1-.466-.385c-.086-.204-.096-.45-.029-.737.068-.286.185-.502.354-.643a.633.633 0 0 1 .586-.135.637.637 0 0 1 .465.382c.092.2.102.448.037.73zm-.223-.052c.046-.22.046-.404-.01-.56a.433.433 0 0 0-.317-.288.436.436 0 0 0-.415.113.976.976 0 0 0-.255.504c-.055.222-.052.412.002.568a.438.438 0 0 0 .322.291.43.43 0 0 0 .41-.119c.122-.115.207-.283.263-.509M190.567 193.834l.217-1.846.204.026-.19 1.626.857.104-.026.213-1.062-.123M193.206 193.08c-.007.296-.08.53-.22.705a.625.625 0 0 1-.543.254.636.636 0 0 1-.534-.28c-.129-.183-.189-.422-.181-.717.008-.291.081-.53.216-.7a.648.648 0 0 1 .547-.254.644.644 0 0 1 .534.281c.129.18.189.417.18.711zm-.231-.004c.008-.228-.032-.414-.12-.553a.426.426 0 0 0-.37-.216.427.427 0 0 0-.38.194 1.02 1.02 0 0 0-.154.542c-.005.23.035.419.125.558a.422.422 0 0 0 .373.219.43.43 0 0 0 .377-.198c.097-.136.144-.319.149-.546M194.713 193.901l-.018-.256a.735.735 0 0 1-.173.227.507.507 0 0 1-.296.12.63.63 0 0 1-.557-.221c-.146-.17-.231-.402-.257-.695-.024-.294.024-.532.139-.718a.635.635 0 0 1 .519-.311c.208-.015.374.036.498.164a.855.855 0 0 1 .234.368l-.236.02a.728.728 0 0 0-.159-.241c-.075-.074-.18-.106-.322-.095a.432.432 0 0 0-.364.239c-.075.145-.102.332-.084.554.02.225.077.406.176.54a.43.43 0 0 0 .397.18.424.424 0 0 0 .336-.2.637.637 0 0 0 .105-.406l-.475.035-.018-.21.689-.058.076.948-.21.016M195.252 193.823l-.294-1.835.202-.037.3 1.837-.208.035M196.996 192.839a.99.99 0 0 1-.096.464c-.072.164-.213.273-.419.321a.639.639 0 0 1-.589-.13c-.17-.14-.289-.357-.36-.643-.072-.285-.064-.53.02-.733a.641.641 0 0 1 .462-.384c.207-.053.38-.025.52.08a.935.935 0 0 1 .29.325l-.232.053a.718.718 0 0 0-.193-.21c-.083-.06-.197-.07-.333-.039a.43.43 0 0 0-.317.29c-.052.152-.052.34 0 .564.057.224.147.394.268.506.122.113.259.15.412.11.133-.033.223-.098.271-.201a.647.647 0 0 0 .068-.317l.228-.056M198.512 192.894l-.318-.373-.738.287.015.49-.2.08-.074-1.964.24-.094 1.277 1.493zm-1.1-1.29.033.97.593-.233zM198.918 192.7l-.884-1.639.183-.096.777 1.44.76-.406.105.19-.941.51M201.447 190.27a.675.675 0 0 1 .159.431c0 .164-.076.31-.229.438-.152.129-.308.181-.473.152a.661.661 0 0 1-.398-.23l-.832-.987.162-.135.815.967c.055.066.135.12.242.158.111.04.223.01.345-.092.119-.101.165-.209.144-.321a.539.539 0 0 0-.11-.267l-.816-.97.157-.133.834.988M202.785 189.673l-1.63-.412 1.097.998-.14.155-1.374-1.25.166-.187 1.634.411-1.096-.998.141-.154 1.375 1.249-.173.188M203.174 189.193l-1.469-1.136.126-.166 1.473 1.138-.13.164M203.931 188.136l-.142.211-1.9-.493.127-.187 1.603.415-1.004-1.324.125-.187 1.191 1.565M204.395 187.394l-1.638-.88.531-.986.192.109-.43.8.497.266.413-.767.195.102-.412.767.56.302.437-.817.194.101-.539 1.003M205.463 185.205l-.9.114-.136.32.706.31-.081.192-1.706-.745.262-.595a.534.534 0 0 1 .29-.3.493.493 0 0 1 .417.014c.12.05.208.13.263.235a.62.62 0 0 1 .067.332l.918-.116zm-1.235-.487c-.1-.042-.186-.046-.256-.012a.373.373 0 0 0-.158.169l-.182.42.586.256.173-.406a.306.306 0 0 0 .016-.235c-.021-.087-.081-.146-.18-.192M205.558 183.592c.13.069.226.165.29.291.07.138.07.293 0 .475-.07.202-.191.327-.365.376a.846.846 0 0 1-.496-.005l.077-.214c.146.045.272.047.37 0a.372.372 0 0 0 .211-.237c.04-.114.044-.209.005-.288a.44.44 0 0 0-.175-.181.241.241 0 0 0-.176-.032.428.428 0 0 0-.161.092.48.48 0 0 0-.138.195.727.727 0 0 1-.404.379c-.085.03-.189.017-.311-.027a.584.584 0 0 1-.29-.26c-.077-.128-.085-.28-.023-.456.075-.212.197-.33.363-.359a.851.851 0 0 1 .402.01l-.074.21a.458.458 0 0 0-.287-.01c-.093.03-.16.105-.2.222-.038.108-.035.2.01.274.046.075.104.121.177.147.08.031.14.031.193.004.05-.03.093-.06.125-.1a.776.776 0 0 0 .13-.192.883.883 0 0 1 .178-.227.522.522 0 0 1 .57-.087M206.044 183.54l-1.778-.538.06-.198 1.779.54-.06.197M204.761 182.052l1.588.409-.053.204-1.588-.408-.13.516-.216-.056.315-1.238.219.053-.135.52" style="fill:#0067b6;fill-opacity:1;fill-rule:nonzero;stroke:none;stroke-width:.0352778" transform="matrix(6.12627 0 0 6.12667 -1079.443 -913.555)"/><path d="m205.89 180.965.752.14-.04.206-.754-.137-1.182.388.042-.246.913-.292-.745-.604.043-.243.97.788" style="fill:#0067b6;fill-opacity:1;fill-rule:nonzero;stroke:none;stroke-width:.0352778" transform="matrix(6.12627 0 0 6.12667 -1079.443 -913.555)"/></g></g></svg>