<svg xmlns="http://www.w3.org/2000/svg" width="220mm" height="220mm" viewBox="0 0 220 220"><g transform="translate(6.226 -44.737)"><circle cx="103.77359" cy="154.73669" r="110" style="fill:#fff;stroke:#fff;stroke-width:0"/><path d="M0 0c0-1.202.986-2.169 2.206-2.169 1.224 0 2.205.967 2.205 2.169 0 1.198-.981 2.174-2.205 2.174C.986 2.174 0 1.198 0 0" style="fill:#181c62;fill-opacity:1;fill-rule:nonzero;stroke:none" transform="matrix(1.30775 0 0 -1.30775 188.982 133.707)"/><path d="M0 0c-44.354 0-80.432-36.096-80.432-80.459 0-44.371 36.078-80.462 80.432-80.462 44.353 0 80.435 36.091 80.435 80.462C80.435-36.096 44.353 0 0 0m0-162.29c-45.115 0-81.826 36.707-81.826 81.831C-81.826-35.345-45.115 1.363 0 1.363c45.117 0 81.826-36.708 81.826-81.822 0-45.124-36.709-81.831-81.826-81.831" style="fill:#181c62;fill-opacity:1;fill-rule:nonzero;stroke:none" transform="matrix(1.30775 0 0 -1.30775 103.67 50.123)"/><path d="M0 0c-30.531 0-55.37-24.846-55.37-55.387 0-30.546 24.839-55.399 55.37-55.399 30.535 0 55.372 24.853 55.372 55.399C55.372-24.846 30.535 0 0 0m0-112.146c-31.3 0-56.761 25.46-56.761 56.759C-56.761-24.095-31.3 1.368 0 1.368c31.296 0 56.761-25.463 56.761-56.755 0-31.299-25.465-56.759-56.761-56.759" style="fill:#181c62;fill-opacity:1;fill-rule:nonzero;stroke:none" transform="matrix(1.30775 0 0 -1.30775 103.67 82.91)"/><path d="M0 0c0-1.195.993-2.169 2.21-2.169 1.225 0 2.207.974 2.207 2.169 0 1.202-.982 2.178-2.207 2.178C.993 2.178 0 1.202 0 0" style="fill:#181c62;fill-opacity:1;fill-rule:nonzero;stroke:none" transform="matrix(1.30775 0 0 -1.30775 12.8 133.71)"/><path d="M0 0c5.34 9.571 13.287 17.547 22.896 23.021H0Z" style="fill:#181c62;fill-opacity:1;fill-rule:nonzero;stroke:none" transform="matrix(1.30775 0 0 -1.30775 106.788 211.252)"/><path d="M0 0c-5.352 9.571-13.289 17.547-22.899 23.021H0Z" style="fill:#181c62;fill-opacity:1;fill-rule:nonzero;stroke:none" transform="matrix(1.30775 0 0 -1.30775 100.564 211.252)"/><path d="M0 0c-10.272 2.159-23.895 3.35-38.377 3.35-14.484 0-28.114-1.191-38.38-3.35-11.242-2.366-16.939-5.549-16.939-9.445 0-3.897 5.697-7.073 16.939-9.443 10.266-2.16 23.896-3.348 38.38-3.348 14.482 0 28.105 1.188 38.377 3.348 11.241 2.37 16.938 5.546 16.938 9.443C16.938-5.549 11.241-2.366 0 0m-38.377-19.324c-32.432 0-52.346 5.755-52.346 9.879 0 4.125 19.914 9.878 52.346 9.878 32.43 0 52.341-5.753 52.341-9.878 0-4.124-19.911-9.879-52.341-9.879" style="fill:#181c62;fill-opacity:1;fill-rule:nonzero;stroke:none" transform="matrix(1.30775 0 0 -1.30775 153.86 161.003)"/><path d="M0 0v-67.59h24.558C13.207-46.671 4.837-23.965 0 0" style="fill:#181c62;fill-opacity:1;fill-rule:nonzero;stroke:none" transform="matrix(1.30775 0 0 -1.30775 106.788 87.831)"/><path d="M0 0v-67.59h-24.56C-13.217-46.671-4.845-23.965 0 0" style="fill:#181c62;fill-opacity:1;fill-rule:nonzero;stroke:none" transform="matrix(1.30775 0 0 -1.30775 100.564 87.831)"/><path d="M0 0c-.102 0-.161.076-.174.221-.008.146.051.217.174.217.549 0 .879.038.988.114.107.072.167.267.167.578v4.047c0 .306-.015.515-.03.622-.013.105-.184.164-.503.169l-.643.021c-.086.006-.136.076-.147.212-.012.131.045.202.147.208.485.034.843.086 1.079.16.238.073.449.238.63.491.058.056.195.087.414.096.221.009.332-.022.332-.096V1.13c0-.311.053-.506.156-.578.103-.076.422-.114.953-.114a.18.18 0 0 0 .145-.064.262.262 0 0 0 .047-.146.313.313 0 0 0-.047-.152A.175.175 0 0 0 3.543 0Z" style="fill:#181c62;fill-opacity:1;fill-rule:nonzero;stroke:none" transform="matrix(1.30775 0 0 -1.30775 88.029 222.82)"/><path d="M0 0c.157.314.234.7.234 1.147 0 .453-.077.837-.234 1.149-.157.316-.413.471-.773.471-.333 0-.585-.155-.753-.471-.17-.312-.256-.696-.256-1.149 0-.454.086-.841.256-1.152.168-.318.42-.47.753-.47.36 0 .616.158.773.475m.953 2.379A4.224 4.224 0 0 0 1.55.162c0-.465-.054-.947-.165-1.447a5.007 5.007 0 0 0-.5-1.356 2.73 2.73 0 0 0-.908-.972 2.308 2.308 0 0 0-1.259-.359c-.313 0-.652.096-1.024.292-.37.19-.552.512-.552.96 0 .154.06.297.182.427a.66.66 0 0 0 .439.216.669.669 0 0 0 .506-.138.508.508 0 0 0 .212-.426.53.53 0 0 0-.018-.161.645.645 0 0 0-.049-.108.539.539 0 0 0-.058-.09c-.024-.033-.035-.081-.035-.148 0-.102.035-.18.106-.241a.363.363 0 0 1 .252-.092c.298 0 .557.096.777.286.222.189.387.453.497.79.091.296.165.601.207.904.04.302.068.626.074.974a2.094 2.094 0 0 0-.541-.435c-.216-.121-.489-.183-.823-.183-.536 0-.989.206-1.358.616-.37.408-.552.898-.552 1.466 0 .676.198 1.251.594 1.72.396.476.92.711 1.571.711.824 0 1.429-.329 1.828-.989" style="fill:#181c62;fill-opacity:1;fill-rule:nonzero;stroke:none" transform="matrix(1.30775 0 0 -1.30775 99.8 217.862)"/><path d="m0 0-1.967-2.823H0Zm1.197-3.424v-.703c0-.254.037-.421.104-.503.068-.078.279-.119.632-.119.149 0 .22-.078.218-.224-.002-.149-.075-.225-.21-.225H-.753c-.124 0-.186.076-.189.225-.006.146.058.224.189.224.397 0 .622.041.673.119.054.074.08.243.08.503v.703h-2.444c-.025 0-.055.049-.092.156a.85.85 0 0 0-.039.452.39.39 0 0 0 .07.193L.568 1.831c.078.109.202.156.373.149.172-.013.256-.055.256-.126v-4.677h.887a.183.183 0 0 0 .166-.091.35.35 0 0 0 .059-.203.38.38 0 0 0-.059-.205.172.172 0 0 0-.166-.102z" style="fill:#181c62;fill-opacity:1;fill-rule:nonzero;stroke:none" transform="matrix(1.30775 0 0 -1.30775 107.861 216.022)"/><path d="M0 0c.167.585.248 1.318.248 2.202 0 .904-.081 1.644-.248 2.225-.173.584-.461.871-.866.871-.414 0-.708-.287-.872-.871-.169-.581-.249-1.321-.249-2.225 0-.884.08-1.617.253-2.202.17-.577.456-.871.868-.871.405 0 .693.294.866.871m.92 4.735c.441-.75.664-1.597.664-2.533 0-.931-.224-1.776-.667-2.529C.47-1.075-.123-1.453-.866-1.453c-.757 0-1.357.378-1.788 1.126-.44.753-.659 1.598-.659 2.529 0 .936.219 1.783.659 2.533.431.751 1.031 1.126 1.788 1.126.751 0 1.347-.375 1.786-1.126" style="fill:#181c62;fill-opacity:1;fill-rule:nonzero;stroke:none" transform="matrix(1.30775 0 0 -1.30775 117.467 221.132)"/><path d="m0 0 .513 1.228-3.27 1.311.41 1.766 14.351-5.753-.693-1.653L1.925.663 1.409-.564l9.386-3.762-.693-1.65L-3.966-.337l.409 1.764zm-6.393-6.616 2.197 5.235 1.411-.566-1.504-3.584L1.91-8.013l2.271 5.414 1.413-.569-2.513-5.98c-.274-.658-.736-.894-1.384-.71Z" style="fill:#181c62;fill-opacity:1;fill-rule:nonzero;stroke:none" transform="matrix(1.30775 0 0 -1.30775 20.625 113.416)"/><path d="m0 0-1.211-1.419L-5.41 2-6.776.399-8 1.394l1.366 1.6-2.761 2.247.975 1.615zm3.689-2.36-5.771-6.771c-.456-.535-.957-.627-1.489-.265l-3.235 2.63 1.218 1.429 2.756-2.243L2.27-1.592zM-10.542-.997c.083.045.161.089.243.123.393.183.782.341 1.169.48 1.026.353 1.898.478 2.618.376.495-.081 1.19-.364 2.096-.852l.134-.106-1.257-1.476-.133.106c-.906.74-2.278.638-4.118-.307l1.394-3.154-1.283-1.506-2.773 6.242-1.776-2.085-1.225.998 5.058 5.932 1.224-.995L-11.17.431z" style="fill:#181c62;fill-opacity:1;fill-rule:nonzero;stroke:none" transform="matrix(1.30775 0 0 -1.30775 44.566 94.165)"/><path d="m0 0-4.492 6.405-4.819-3.23-.901 1.287 6.385 4.279 5.395-7.694zm3.7.811-8.331-5.582-.901 1.288L-3.615-2.2-5.95 1.128l1.395 1.294 2.505-3.574 4.844 3.249-5.392 7.693 1.392 1.297L.929 8.042l1.355.908.901-1.283-1.357-.907 5.738-8.18-1.568-1.051Z" style="fill:#181c62;fill-opacity:1;fill-rule:nonzero;stroke:none" transform="matrix(1.30775 0 0 -1.30775 57.407 83.031)"/><path d="m0 0 1.567.533.526-1.471-1.569-.533 1.104-3.1-1.786-.61-2.757 7.736 1.686.893zm1.967-5.516 1.904-5.357-1.785-.607L.705-7.595l-7.434-2.531-.525 1.473zm-9.458 3.841a2.408 2.408 0 0 1-.95-.609c-.58-.584-.729-1.261-.451-2.043.121-.342.327-.632.63-.868.635-.493 1.345-.599 2.136-.313.377.126.691.324.965.595.552.595.709 1.267.443 2.008-.117.331-.332.617-.632.866-.621.518-1.329.641-2.141.364m2.56 1.428c.03-.013.059-.027.095-.04.905-.456 1.507-1.108 1.805-1.948A3.25 3.25 0 0 0-2.933-4.1c-.332-1.416-1.232-2.375-2.693-2.87a4.208 4.208 0 0 0-2.068-.183c-1.505.238-2.491 1.011-2.957 2.324-.311.863-.234 1.768.246 2.721l-1.448-.497-.525 1.474 3.292 1.122-.29.811 1.687.896.391-1.099 3.294 1.122.523-1.474z" style="fill:#181c62;fill-opacity:1;fill-rule:nonzero;stroke:none" transform="matrix(1.30775 0 0 -1.30775 83.52 62.958)"/><path d="M0 0h-1.891v14.86L0 15.162Zm-3.843 4.976h-1.89v8.14h-5.834v1.558h7.724z" style="fill:#181c62;fill-opacity:1;fill-rule:nonzero;stroke:none" transform="matrix(1.30775 0 0 -1.30775 109.29 75.288)"/><path d="m0 0 9.64-2.89-1.112-3.545L.666-4.076.42-4.852 8.347-7.23l-.149-1.478-8.954 2.686c-.661.2-.906.617-.742 1.248l.82 2.622 7.86-2.358.243.762-7.86 2.359zm7.07 5.301c.096-.054.204-.117.294-.18 2.185-1.267 3.481-3.01 3.893-5.221L9.309.485C8.74 1.963 7.419 3.233 5.35 4.293L2.384 2.562l-2.2.659 6.6 3.864 2.202-.659zM6.009-.862l-.403-1.282-1.81.546.399 1.28-4.992 1.502.458 1.453L11.446-.898l-.46-1.455z" style="fill:#181c62;fill-opacity:1;fill-rule:nonzero;stroke:none" transform="matrix(1.30775 0 0 -1.30775 121.868 68.951)"/><path d="m0 0 1.147-.704 1.875 2.929 1.713-.691-8.236-12.852-1.545.947L.342-1.97l-1.153.705-5.386-8.404-1.551.952L.326 3.878l1.712-.695zm-5.588 7.278 4.901-3.005-.806-1.259-3.362 2.055L-8.41-.482l5.075-3.11-.806-1.262-5.609 3.436c-.617.375-.776.86-.48 1.454z" style="fill:#181c62;fill-opacity:1;fill-rule:nonzero;stroke:none" transform="matrix(1.30775 0 0 -1.30775 156.57 76.578)"/><path d="m0 0 1.069-1.238-1.22-1.004-1.069 1.239-2.569-2.111-1.224 1.423 6.411 5.272 1.463-1.227zm-4.571-3.758-4.444-3.649-1.221 1.419 3.219 2.65-5.065 5.886 1.224 1.002zm.303 10.005a2.32 2.32 0 0 1-.922.65c-.763.325-1.463.217-2.111-.314a1.833 1.833 0 0 1-.605-.884c-.248-.753-.097-1.439.46-2.067a2.54 2.54 0 0 1 .913-.665c.765-.293 1.456-.188 2.07.314.277.224.479.518.603.888.278.743.144 1.432-.408 2.078m2.276-1.828c-.005-.032-.005-.064-.009-.094-.11-.993-.515-1.777-1.211-2.352a3.5 3.5 0 0 0-1.749-.752c-1.472-.201-2.704.273-3.706 1.437a4.02 4.02 0 0 0-.91 1.827c-.306 1.458.083 2.633 1.171 3.527.712.59 1.604.843 2.686.742l-.989 1.149 1.219 1.004 2.244-2.608.673.553 1.456-1.221-.913-.75L.217 4.273l-1.22-1.002z" style="fill:#181c62;fill-opacity:1;fill-rule:nonzero;stroke:none" transform="matrix(1.30775 0 0 -1.30775 178.607 96.566)"/><path d="m0 0 7.621 3.198-3.157 7.19 1.461.616 3.912-8.898L.749-1.709Zm-2.578 6.295 4.079 1.709 1.026-1.581-4.357-1.829.591-1.349 4.078 1.707 1.029-1.585-4.359-1.83 1.806-4.104-1.34-.895-4.84 11.02 1.462.615z" style="fill:#181c62;fill-opacity:1;fill-rule:nonzero;stroke:none" transform="matrix(1.30775 0 0 -1.30775 182.211 121.395)"/><path d="M0 0c-1.008.1-1.352-.062-1.414-.682-.131-1.333 1.466-2.285 3.937-2.53 1.378-.137 2.574.027 3.247.491.56.318.843.778.899 1.352.034.34-.039.535-.129.621-.116.086-.317.132-.764.176zm7.251-1.523c-.11-1.119-.534-1.919-1.477-2.404-.71-.359-1.78-.579-3.129-.445-1.744.172-2.96.705-3.711 1.469-.765.721-1.047 1.649-.938 2.747l.213 2.166.53-.053c.022-.729.088-.822 1.286-.94L5.536.47C6.732.352 6.831.417 6.97 1.06l.531-.053Z" style="fill:#181c62;fill-opacity:1;fill-rule:nonzero;stroke:none" transform="matrix(1.30775 0 0 -1.30775 10.821 144.486)"/><path d="M0 0c-1.008.1-1.352-.062-1.414-.682-.131-1.333 1.466-2.285 3.937-2.53 1.378-.137 2.574.027 3.247.491.56.318.843.778.899 1.352.034.34-.039.535-.129.621-.116.086-.317.132-.764.176zm7.251-1.523c-.11-1.119-.534-1.919-1.477-2.404-.71-.359-1.78-.579-3.129-.445-1.744.172-2.96.705-3.711 1.469-.765.721-1.047 1.649-.938 2.747l.213 2.166.53-.053c.022-.729.088-.822 1.286-.94L5.536.47C6.732.352 6.831.417 6.97 1.06l.531-.053Z" style="fill:none;stroke:#181c62;stroke-width:.365;stroke-linecap:butt;stroke-linejoin:miter;stroke-miterlimit:10;stroke-dasharray:none;stroke-opacity:1" transform="matrix(1.30775 0 0 -1.30775 10.821 144.486)"/><path d="m0 0 .001.028c-1.116.265-2.239.519-3.325.779l-.014-1.475zm-7.219-.702.532-.006c.118-.529.239-.587.833-.476.458.101 1.112.23 1.753.371l.017 1.77c-.455.115-.963.234-1.54.341-.767.156-.919.115-1.048-.527l-.533.006.02 1.998.532-.005c.117-.586.222-.702 1.437-1.01L2.167-.115l.164-.42c-2.432-.515-5.13-1.062-7.555-1.601-1.235-.26-1.373-.377-1.486-.961l-.532.008z" style="fill:#181c62;fill-opacity:1;fill-rule:nonzero;stroke:none" transform="matrix(1.30775 0 0 -1.30775 17.062 154.133)"/><path d="m0 0 .001.028c-1.116.265-2.239.519-3.325.779l-.014-1.475zm-7.219-.702.532-.006c.118-.529.239-.587.833-.476.458.101 1.112.23 1.753.371l.017 1.77c-.455.115-.963.234-1.54.341-.767.156-.919.115-1.048-.527l-.533.006.02 1.998.532-.005c.117-.586.222-.702 1.437-1.01L2.167-.115l.164-.42c-2.432-.515-5.13-1.062-7.555-1.601-1.235-.26-1.373-.377-1.486-.961l-.532.008z" style="fill:none;stroke:#181c62;stroke-width:.365;stroke-linecap:butt;stroke-linejoin:miter;stroke-miterlimit:10;stroke-dasharray:none;stroke-opacity:1" transform="matrix(1.30775 0 0 -1.30775 17.062 154.133)"/><path d="M0 0c-.558.012-1.944.093-2.368.143l-.326 4.417.531.039c.163-.75.244-.83 1.428-.745l5.516.399c1.213.088 1.283.18 1.311.833l.531.039.301-4.095C6.66 1.001 5.637.889 4.814.788l-.1.343c.54.121.904.252 1.174.4.252.134.361.389.321.929l-.04.544c-.022.309-.055.341-.526.305l-3.041-.22.05-.691c.056-.749.153-.828 1.141-.876l.024-.335L.942.979l-.025.335c1.038.195 1.092.285 1.037 1.034l-.051.692-2.532-.184c-.668-.049-.991-.134-1.123-.31-.124-.161-.131-.477-.104-.855.038-.523.151-.809.522-.977C-1.027.569-.561.451.073.349Z" style="fill:#181c62;fill-opacity:1;fill-rule:nonzero;stroke:none" transform="matrix(1.30775 0 0 -1.30775 11.183 165.384)"/><path d="M0 0c-.558.012-1.944.093-2.368.143l-.326 4.417.531.039c.163-.75.244-.83 1.428-.745l5.516.399c1.213.088 1.283.18 1.311.833l.531.039.301-4.095C6.66 1.001 5.637.889 4.814.788l-.1.343c.54.121.904.252 1.174.4.252.134.361.389.321.929l-.04.544c-.022.309-.055.341-.526.305l-3.041-.22.05-.691c.056-.749.153-.828 1.141-.876l.024-.335L.942.979l-.025.335c1.038.195 1.092.285 1.037 1.034l-.051.692-2.532-.184c-.668-.049-.991-.134-1.123-.31-.124-.161-.131-.477-.104-.855.038-.523.151-.809.522-.977C-1.027.569-.561.451.073.349Z" style="fill:none;stroke:#181c62;stroke-width:.365;stroke-linecap:butt;stroke-linejoin:miter;stroke-miterlimit:10;stroke-dasharray:none;stroke-opacity:1" transform="matrix(1.30775 0 0 -1.30775 11.183 165.384)"/><path d="M0 0c-.164.645-.278.697-1.455.538l-5.008-.677c-1.757-.238-3-.257-4.024.334-.485.246-.766.554-.942.851l.53.22C-10.454.808-9.852.621-9.003.64c.722.016 1.561.11 2.684.261l4.73.641c1.176.158 1.271.252 1.253.956l.528.07L.529.072z" style="fill:#181c62;fill-opacity:1;fill-rule:nonzero;stroke:none" transform="matrix(1.30775 0 0 -1.30775 20.139 168.529)"/><path d="M0 0c-.164.645-.278.697-1.455.538l-5.008-.677c-1.757-.238-3-.257-4.024.334-.485.246-.766.554-.942.851l.53.22C-10.454.808-9.852.621-9.003.64c.722.016 1.561.11 2.684.261l4.73.641c1.176.158 1.271.252 1.253.956l.528.07L.529.072z" style="fill:none;stroke:#181c62;stroke-width:.365;stroke-linecap:butt;stroke-linejoin:miter;stroke-miterlimit:10;stroke-dasharray:none;stroke-opacity:1" transform="matrix(1.30775 0 0 -1.30775 20.139 168.529)"/><path d="M0 0a40.163 40.163 0 0 0-2.367-.152l-.868 4.351.523.106c.254-.727.344-.798 1.509-.565l5.426 1.084c1.194.238 1.251.336 1.197.991l.524.105.804-4.035c-.261-.061-1.261-.3-2.066-.505l-.142.331c.52.185.867.363 1.117.543.231.163.31.431.203.963l-.108.538c-.06.304-.095.33-.559.238l-2.991-.597.135-.682c.148-.738.254-.804 1.24-.729l.066-.331-2.829-.565-.065.331c1.005.323 1.049.419.903 1.157l-.136.682-2.493-.497c-.657-.131-.966-.257-1.075-.449-.104-.175-.072-.489.003-.864.102-.512.248-.784.636-.905C-1.088.438-.61.379.029.356Z" style="fill:#181c62;fill-opacity:1;fill-rule:nonzero;stroke:none" transform="matrix(1.30775 0 0 -1.30775 13.11 176.714)"/><path d="M0 0a40.163 40.163 0 0 0-2.367-.152l-.868 4.351.523.106c.254-.727.344-.798 1.509-.565l5.426 1.084c1.194.238 1.251.336 1.197.991l.524.105.804-4.035c-.261-.061-1.261-.3-2.066-.505l-.142.331c.52.185.867.363 1.117.543.231.163.31.431.203.963l-.108.538c-.06.304-.095.33-.559.238l-2.991-.597.135-.682c.148-.738.254-.804 1.24-.729l.066-.331-2.829-.565-.065.331c1.005.323 1.049.419.903 1.157l-.136.682-2.493-.497c-.657-.131-.966-.257-1.075-.449-.104-.175-.072-.489.003-.864.102-.512.248-.784.636-.905C-1.088.438-.61.379.029.356Z" style="fill:none;stroke:#181c62;stroke-width:.365;stroke-linecap:butt;stroke-linejoin:miter;stroke-miterlimit:10;stroke-dasharray:none;stroke-opacity:1" transform="matrix(1.30775 0 0 -1.30775 13.11 176.714)"/><path d="M0 0c-.253.864-1.887 1.165-4.284.464-2.424-.705-4.146-1.977-3.821-3.081.245-.841 1.708-1.177 4.25-.435C-1.071-2.239.296-1.008.002-.009zm.629-.01c.433-1.473-1.004-3.256-3.773-4.064-2.994-.875-5.149-.119-5.607 1.442-.469 1.598 1.15 3.349 3.824 4.129C-2.517 2.201.087 1.844.626 0Z" style="fill:#181c62;fill-opacity:1;fill-rule:nonzero;stroke:none" transform="matrix(1.30775 0 0 -1.30775 22.653 178.961)"/><path d="M0 0c-.253.864-1.887 1.165-4.284.464-2.424-.705-4.146-1.977-3.821-3.081.245-.841 1.708-1.177 4.25-.435C-1.071-2.239.296-1.008.002-.009zm.629-.01c.433-1.473-1.004-3.256-3.773-4.064-2.994-.875-5.149-.119-5.607 1.442-.469 1.598 1.15 3.349 3.824 4.129C-2.517 2.201.087 1.844.626 0Z" style="fill:none;stroke:#181c62;stroke-width:.365;stroke-linecap:butt;stroke-linejoin:miter;stroke-miterlimit:10;stroke-dasharray:none;stroke-opacity:1" transform="matrix(1.30775 0 0 -1.30775 22.653 178.961)"/><path d="M0 0c-.223.434-.488.539-1.034.37C-1.458.24-2.09.018-3.263-.454l-5.328-2.138-.159.391 5.357 6.016-.006.019-3.093-1.241a33.075 33.075 0 0 1-2.135-.928c-.579-.275-.704-.534-.519-1.121L-9.64.346l-.815 2.033.494.199c.228-.445.505-.565 1.085-.374.438.135 1.086.354 2.215.809l2.846 1.141c.896.359 1.056.433 1.313.71.255.282.275.521.189.896l.48.193.566-1.406-4.896-5.638.012-.025 2.717 1.091c1.172.47 1.779.755 2.164.94.513.256.626.523.454 1.114l.481.194L.479.194z" style="fill:#181c62;fill-opacity:1;fill-rule:nonzero;stroke:none" transform="matrix(1.30775 0 0 -1.30775 26.735 190.646)"/><path d="M0 0c-.223.434-.488.539-1.034.37C-1.458.24-2.09.018-3.263-.454l-5.328-2.138-.159.391 5.357 6.016-.006.019-3.093-1.241a33.075 33.075 0 0 1-2.135-.928c-.579-.275-.704-.534-.519-1.121L-9.64.346l-.815 2.033.494.199c.228-.445.505-.565 1.085-.374.438.135 1.086.354 2.215.809l2.846 1.141c.896.359 1.056.433 1.313.71.255.282.275.521.189.896l.48.193.566-1.406-4.896-5.638.012-.025 2.717 1.091c1.172.47 1.779.755 2.164.94.513.256.626.523.454 1.114l.481.194L.479.194z" style="fill:none;stroke:#181c62;stroke-width:.365;stroke-linecap:butt;stroke-linejoin:miter;stroke-miterlimit:10;stroke-dasharray:none;stroke-opacity:1" transform="matrix(1.30775 0 0 -1.30775 26.735 190.646)"/><path d="m0 0 .463.262C.875-.287 1-.319 2.034.265L6.85 2.987c1.047.592 1.083.715.816 1.344l.463.264 1.243-2.204-.464-.262c-.401.555-.519.58-1.566-.011L2.524-.604c-1.046-.594-1.073-.7-.818-1.337l-.464-.265Z" style="fill:#181c62;fill-opacity:1;fill-rule:nonzero;stroke:none" transform="matrix(1.30775 0 0 -1.30775 19.173 201.084)"/><path d="m0 0 .463.262C.875-.287 1-.319 2.034.265L6.85 2.987c1.047.592 1.083.715.816 1.344l.463.264 1.243-2.204-.464-.262c-.401.555-.519.58-1.566-.011L2.524-.604c-1.046-.594-1.073-.7-.818-1.337l-.464-.265Z" style="fill:none;stroke:#181c62;stroke-width:.365;stroke-linecap:butt;stroke-linejoin:miter;stroke-miterlimit:10;stroke-dasharray:none;stroke-opacity:1" transform="matrix(1.30775 0 0 -1.30775 19.173 201.084)"/><path d="M0 0c-.306.38-.584.427-1.086.151-.388-.211-.962-.559-2.014-1.258l-4.782-3.179-.235.353 4.02 6.986-.01.015-2.775-1.844A32.885 32.885 0 0 1-8.783-.12c-.512-.386-.582-.666-.28-1.201l-.443-.297L-10.72.211l.445.295c.312-.392.609-.452 1.137-.148.401.221.992.569 2.005 1.242l2.554 1.698c.805.535.944.64 1.139.965.194.328.164.566.004.916l.431.286.839-1.264-3.643-6.518.016-.027 2.439 1.622A33.067 33.067 0 0 1-1.427.639c.448.356.506.639.218 1.185l.429.287L.43.286Z" style="fill:#181c62;fill-opacity:1;fill-rule:nonzero;stroke:none" transform="matrix(1.30775 0 0 -1.30775 35.493 205.499)"/><path d="M0 0c-.306.38-.584.427-1.086.151-.388-.211-.962-.559-2.014-1.258l-4.782-3.179-.235.353 4.02 6.986-.01.015-2.775-1.844A32.885 32.885 0 0 1-8.783-.12c-.512-.386-.582-.666-.28-1.201l-.443-.297L-10.72.211l.445.295c.312-.392.609-.452 1.137-.148.401.221.992.569 2.005 1.242l2.554 1.698c.805.535.944.64 1.139.965.194.328.164.566.004.916l.431.286.839-1.264-3.643-6.518.016-.027 2.439 1.622A33.067 33.067 0 0 1-1.427.639c.448.356.506.639.218 1.185l.429.287L.43.286Z" style="fill:none;stroke:#181c62;stroke-width:.365;stroke-linecap:butt;stroke-linejoin:miter;stroke-miterlimit:10;stroke-dasharray:none;stroke-opacity:1" transform="matrix(1.30775 0 0 -1.30775 35.493 205.499)"/><path d="M0 0c.595.693 1.226 1.513.768 2.09-.356.452-1.083.314-1.696-.17-.699-.553-.839-1.148-.844-2.096 0-1.054-.145-2.095-1.334-3.033-1.248-.986-2.734-1.094-3.512-.11A2.119 2.119 0 0 0-7-2.506c-.069.259-.074.449-.083.583.239.296 1.038 1.067 1.67 1.65l.346-.175c-.595-.662-1.51-1.944-.959-2.639.363-.458 1.083-.363 1.829.226.721.571.865 1.247.892 2.109.004.998.151 2.051 1.308 2.965 1.176.931 2.566 1.1 3.325.138.311-.39.409-.882.458-1.152C1.41.854.97.429.296-.202Z" style="fill:#181c62;fill-opacity:1;fill-rule:nonzero;stroke:none" transform="matrix(1.30775 0 0 -1.30775 36.552 210.472)"/><path d="M0 0c.595.693 1.226 1.513.768 2.09-.356.452-1.083.314-1.696-.17-.699-.553-.839-1.148-.844-2.096 0-1.054-.145-2.095-1.334-3.033-1.248-.986-2.734-1.094-3.512-.11A2.119 2.119 0 0 0-7-2.506c-.069.259-.074.449-.083.583.239.296 1.038 1.067 1.67 1.65l.346-.175c-.595-.662-1.51-1.944-.959-2.639.363-.458 1.083-.363 1.829.226.721.571.865 1.247.892 2.109.004.998.151 2.051 1.308 2.965 1.176.931 2.566 1.1 3.325.138.311-.39.409-.882.458-1.152C1.41.854.97.429.296-.202Z" style="fill:none;stroke:#181c62;stroke-width:.365;stroke-linecap:butt;stroke-linejoin:miter;stroke-miterlimit:10;stroke-dasharray:none;stroke-opacity:1" transform="matrix(1.30775 0 0 -1.30775 36.552 210.472)"/><path d="M0 0c.476.573.716.91.808 1.181.102.305.06.486-.319.898l-.337.368-5.037-4.614c-.864-.791-.889-.922-.409-1.582l-.392-.359-1.869 2.036.393.361c.597-.516.726-.5 1.592.292l5.036 4.615-.288.316c-.449.487-.669.513-.942.43-.262-.066-.661-.328-1.218-.69l-.238.26c.749.635 1.526 1.277 2.101 1.777l.157-.173c-.147-.324-.11-.431.054-.61l2.347-2.56c.16-.176.292-.185.594-.096l.164-.179C1.742 1.242.899.405.266-.212Z" style="fill:#181c62;fill-opacity:1;fill-rule:nonzero;stroke:none" transform="matrix(1.30775 0 0 -1.30775 41.512 216.194)"/><path d="M0 0c.476.573.716.91.808 1.181.102.305.06.486-.319.898l-.337.368-5.037-4.614c-.864-.791-.889-.922-.409-1.582l-.392-.359-1.869 2.036.393.361c.597-.516.726-.5 1.592.292l5.036 4.615-.288.316c-.449.487-.669.513-.942.43-.262-.066-.661-.328-1.218-.69l-.238.26c.749.635 1.526 1.277 2.101 1.777l.157-.173c-.147-.324-.11-.431.054-.61l2.347-2.56c.16-.176.292-.185.594-.096l.164-.179C1.742 1.242.899.405.266-.212Z" style="fill:none;stroke:#181c62;stroke-width:.365;stroke-linecap:butt;stroke-linejoin:miter;stroke-miterlimit:10;stroke-dasharray:none;stroke-opacity:1" transform="matrix(1.30775 0 0 -1.30775 41.512 216.194)"/><path d="m0 0 .369.385c.554-.404.683-.401 1.504.457L5.7 4.839c.831.868.83.996.392 1.521l.368.386 1.829-1.748-.37-.387c-.544.416-.665.407-1.496-.463L2.596.152c-.833-.868-.826-.98-.397-1.516l-.369-.385Z" style="fill:#181c62;fill-opacity:1;fill-rule:nonzero;stroke:none" transform="matrix(1.30775 0 0 -1.30775 36.03 223.56)"/><path d="m0 0 .369.385c.554-.404.683-.401 1.504.457L5.7 4.839c.831.868.83.996.392 1.521l.368.386 1.829-1.748-.37-.387c-.544.416-.665.407-1.496-.463L2.596.152c-.833-.868-.826-.98-.397-1.516l-.369-.385Z" style="fill:none;stroke:#181c62;stroke-width:.365;stroke-linecap:butt;stroke-linejoin:miter;stroke-miterlimit:10;stroke-dasharray:none;stroke-opacity:1" transform="matrix(1.30775 0 0 -1.30775 36.03 223.56)"/><path d="M0 0c.397.629.589.993.646 1.275.06.315-.006.49-.431.848l-.383.321-4.385-5.227c-.753-.897-.759-1.032-.198-1.62l-.342-.41-2.115 1.776.342.407c.657-.433.783-.399 1.535.5l4.387 5.226-.33.276c-.508.424-.728.42-.987.302-.251-.099-.613-.41-1.117-.841l-.269.226c.659.727 1.344 1.463 1.848 2.034l.179-.151c-.105-.339-.054-.441.132-.597l2.659-2.23c.182-.155.313-.145.599-.017l.187-.156C1.562 1.457.835.518.292-.177Z" style="fill:#181c62;fill-opacity:1;fill-rule:nonzero;stroke:none" transform="matrix(1.30775 0 0 -1.30775 50.022 223.833)"/><path d="M0 0c.397.629.589.993.646 1.275.06.315-.006.49-.431.848l-.383.321-4.385-5.227c-.753-.897-.759-1.032-.198-1.62l-.342-.41-2.115 1.776.342.407c.657-.433.783-.399 1.535.5l4.387 5.226-.33.276c-.508.424-.728.42-.987.302-.251-.099-.613-.41-1.117-.841l-.269.226c.659.727 1.344 1.463 1.848 2.034l.179-.151c-.105-.339-.054-.441.132-.597l2.659-2.23c.182-.155.313-.145.599-.017l.187-.156C1.562 1.457.835.518.292-.177Z" style="fill:none;stroke:#181c62;stroke-width:.365;stroke-linecap:butt;stroke-linejoin:miter;stroke-miterlimit:10;stroke-dasharray:none;stroke-opacity:1" transform="matrix(1.30775 0 0 -1.30775 50.022 223.833)"/><path d="M0 0c-.44.25-.725.199-1.073-.216-.267-.335-.604-.76-1.281-1.731l-.775-1.112c-.918-1.316-1.748-2.239-2.658-2.653-.719-.335-1.401-.257-1.897.089-.456.32-.784.78-.816 1.451-.052.816.355 1.82 1.316 3.2l1.996 2.864c.714 1.024.704 1.143.185 1.596l.305.438 2.072-1.444-.306-.438c-.592.321-.712.291-1.425-.732l-1.844-2.645c-1.284-1.84-1.527-3.099-.721-3.662.894-.623 2.057.245 3.427 2.211l.766 1.098c.669.96.956 1.438 1.177 1.822.251.445.2.731-.28 1.141l.306.436L.304.437z" style="fill:#181c62;fill-opacity:1;fill-rule:nonzero;stroke:none" transform="matrix(1.30775 0 0 -1.30775 58.726 227.08)"/><path d="M0 0c-.44.25-.725.199-1.073-.216-.267-.335-.604-.76-1.281-1.731l-.775-1.112c-.918-1.316-1.748-2.239-2.658-2.653-.719-.335-1.401-.257-1.897.089-.456.32-.784.78-.816 1.451-.052.816.355 1.82 1.316 3.2l1.996 2.864c.714 1.024.704 1.143.185 1.596l.305.438 2.072-1.444-.306-.438c-.592.321-.712.291-1.425-.732l-1.844-2.645c-1.284-1.84-1.527-3.099-.721-3.662.894-.623 2.057.245 3.427 2.211l.766 1.098c.669.96.956 1.438 1.177 1.822.251.445.2.731-.28 1.141l.306.436L.304.437z" style="fill:none;stroke:#181c62;stroke-width:.365;stroke-linecap:butt;stroke-linejoin:miter;stroke-miterlimit:10;stroke-dasharray:none;stroke-opacity:1" transform="matrix(1.30775 0 0 -1.30775 58.726 227.08)"/><path d="M0 0c.28.692.404 1.085.407 1.373.006.321-.091.481-.576.758l-.434.248-3.373-5.938c-.58-1.019-.563-1.15.094-1.632l-.263-.462-2.397 1.369.264.462c.723-.306.841-.251 1.422.768l3.375 5.935-.373.21c-.574.33-.792.286-1.026.122-.228-.14-.527-.514-.947-1.03l-.305.177c.519.835 1.061 1.681 1.452 2.333l.204-.114c-.042-.354.026-.445.236-.566L.773 2.292c.206-.116.335-.084.594.093l.211-.121C1.278 1.717.732.661.32-.12Z" style="fill:#181c62;fill-opacity:1;fill-rule:nonzero;stroke:none" transform="matrix(1.30775 0 0 -1.30775 63.2 232.376)"/><path d="M0 0c.28.692.404 1.085.407 1.373.006.321-.091.481-.576.758l-.434.248-3.373-5.938c-.58-1.019-.563-1.15.094-1.632l-.263-.462-2.397 1.369.264.462c.723-.306.841-.251 1.422.768l3.375 5.935-.373.21c-.574.33-.792.286-1.026.122-.228-.14-.527-.514-.947-1.03l-.305.177c.519.835 1.061 1.681 1.452 2.333l.204-.114c-.042-.354.026-.445.236-.566L.773 2.292c.206-.116.335-.084.594.093l.211-.121C1.278 1.717.732.661.32-.12Z" style="fill:none;stroke:#181c62;stroke-width:.365;stroke-linecap:butt;stroke-linejoin:miter;stroke-miterlimit:10;stroke-dasharray:none;stroke-opacity:1" transform="matrix(1.30775 0 0 -1.30775 63.2 232.376)"/><path d="M0 0a42.96 42.96 0 0 0-1.281-1.999L-5.29-.113l.225.482c.734-.228.843-.194 1.347.883l2.344 5.011c.517 1.104.472 1.209-.085 1.555l.226.483 3.715-1.748a170.26 170.26 0 0 1-.817-1.962l-.35.081c.158.531.223.912.226 1.223.004.284-.164.505-.654.737l-.494.231c-.28.132-.322.118-.523-.309l-1.294-2.765.629-.295c.678-.32.795-.273 1.32.566l.303-.145-1.221-2.614-.305.145c.336 1.002.285 1.095-.394 1.414l-.628.295L-2.798.852c-.284-.607-.367-.931-.278-1.132.08-.188.351-.35.696-.512.474-.221.777-.265 1.106-.024.276.199.606.547 1.005 1.049z" style="fill:#181c62;fill-opacity:1;fill-rule:nonzero;stroke:none" transform="matrix(1.30775 0 0 -1.30775 67.16 240.946)"/><path d="M0 0a42.96 42.96 0 0 0-1.281-1.999L-5.29-.113l.225.482c.734-.228.843-.194 1.347.883l2.344 5.011c.517 1.104.472 1.209-.085 1.555l.226.483 3.715-1.748a170.26 170.26 0 0 1-.817-1.962l-.35.081c.158.531.223.912.226 1.223.004.284-.164.505-.654.737l-.494.231c-.28.132-.322.118-.523-.309l-1.294-2.765.629-.295c.678-.32.795-.273 1.32.566l.303-.145-1.221-2.614-.305.145c.336 1.002.285 1.095-.394 1.414l-.628.295L-2.798.852c-.284-.607-.367-.931-.278-1.132.08-.188.351-.35.696-.512.474-.221.777-.265 1.106-.024.276.199.606.547 1.005 1.049z" style="fill:none;stroke:#181c62;stroke-width:.365;stroke-linecap:butt;stroke-linejoin:miter;stroke-miterlimit:10;stroke-dasharray:none;stroke-opacity:1" transform="matrix(1.30775 0 0 -1.30775 67.16 240.946)"/><path d="M0 0c-.859.256-2-.951-2.715-3.343-.724-2.417-.594-4.554.509-4.885.838-.249 1.913.796 2.673 3.332.83 2.777.539 4.594-.457 4.893zm.35.521c1.471-.44 2.185-2.614 1.358-5.377C.814-7.844-.989-9.243-2.544-8.778c-1.594.477-2.182 2.79-1.384 5.458C-3.209-.914-1.497 1.075.341.525z" style="fill:#181c62;fill-opacity:1;fill-rule:nonzero;stroke:none" transform="matrix(1.30775 0 0 -1.30775 79.339 236.16)"/><path d="M0 0c-.859.256-2-.951-2.715-3.343-.724-2.417-.594-4.554.509-4.885.838-.249 1.913.796 2.673 3.332.83 2.777.539 4.594-.457 4.893zm.35.521c1.471-.44 2.185-2.614 1.358-5.377C.814-7.844-.989-9.243-2.544-8.778c-1.594.477-2.182 2.79-1.384 5.458C-3.209-.914-1.497 1.075.341.525z" style="fill:none;stroke:#181c62;stroke-width:.365;stroke-linecap:butt;stroke-linejoin:miter;stroke-miterlimit:10;stroke-dasharray:none;stroke-opacity:1" transform="matrix(1.30775 0 0 -1.30775 79.339 236.16)"/><path d="M0 0c.03.584.016.938-.061 1.242-.072.348-.275.5-.807.61l-.534.11c-.294.063-.333.038-.429-.425l-.653-3.122.782-.162c.764-.158.856-.068 1.137.814l.336-.069-.585-2.794-.335.069c.112.995.066 1.128-.699 1.286l-.782.164-.487-2.333c-.253-1.207-.187-1.3.563-1.563l-.111-.522-2.575.532.11.522c.676-.046.782.025 1.034 1.233L-2.977.936c.251 1.207.181 1.316-.451 1.523l.111.522 4.015-.83A69.296 69.296 0 0 1 .355.021Z" style="fill:#181c62;fill-opacity:1;fill-rule:nonzero;stroke:none" transform="matrix(1.30775 0 0 -1.30775 88.183 240.767)"/><path d="M0 0c.03.584.016.938-.061 1.242-.072.348-.275.5-.807.61l-.534.11c-.294.063-.333.038-.429-.425l-.653-3.122.782-.162c.764-.158.856-.068 1.137.814l.336-.069-.585-2.794-.335.069c.112.995.066 1.128-.699 1.286l-.782.164-.487-2.333c-.253-1.207-.187-1.3.563-1.563l-.111-.522-2.575.532.11.522c.676-.046.782.025 1.034 1.233L-2.977.936c.251 1.207.181 1.316-.451 1.523l.111.522 4.015-.83A69.296 69.296 0 0 1 .355.021Z" style="fill:none;stroke:#181c62;stroke-width:.365;stroke-linecap:butt;stroke-linejoin:miter;stroke-miterlimit:10;stroke-dasharray:none;stroke-opacity:1" transform="matrix(1.30775 0 0 -1.30775 88.183 240.767)"/><path d="M0 0c-.106.908-.278 1.928-1.012 1.985-.574.045-.965-.579-1.028-1.36-.067-.889.273-1.396.968-2.047C-.299-2.138.366-2.954.249-4.466.125-6.05-.804-7.214-2.055-7.119c-.34.027-.621.149-.856.275-.238.124-.381.25-.484.334-.055.378-.078 1.488-.078 2.351l.364.132c.083-.885.402-2.43 1.286-2.498.583-.047 1.003.548 1.075 1.498.072.917-.327 1.483-.943 2.088-.729.682-1.403 1.507-1.288 2.98.115 1.493.933 2.628 2.156 2.535.497-.04.925-.303 1.156-.45C.331 1.615.346 1.001.35.079Z" style="fill:#181c62;fill-opacity:1;fill-rule:nonzero;stroke:none" transform="matrix(1.30775 0 0 -1.30775 98.542 242.047)"/><path d="M0 0c-.106.908-.278 1.928-1.012 1.985-.574.045-.965-.579-1.028-1.36-.067-.889.273-1.396.968-2.047C-.299-2.138.366-2.954.249-4.466.125-6.05-.804-7.214-2.055-7.119c-.34.027-.621.149-.856.275-.238.124-.381.25-.484.334-.055.378-.078 1.488-.078 2.351l.364.132c.083-.885.402-2.43 1.286-2.498.583-.047 1.003.548 1.075 1.498.072.917-.327 1.483-.943 2.088-.729.682-1.403 1.507-1.288 2.98.115 1.493.933 2.628 2.156 2.535.497-.04.925-.303 1.156-.45C.331 1.615.346 1.001.35.079Z" style="fill:none;stroke:#181c62;stroke-width:.365;stroke-linecap:butt;stroke-linejoin:miter;stroke-miterlimit:10;stroke-dasharray:none;stroke-opacity:1" transform="matrix(1.30775 0 0 -1.30775 98.542 242.047)"/><path d="M0 0c-.126-.668-.348-1.727-.492-2.243-.242-.076-1.013-.355-1.637-.354-2.25.004-3.2 2.453-3.193 4.746.008 3.004 1.416 5.008 3.442 5.005.69-.003 1.304-.277 1.555-.377.079-.791.135-1.414.18-2.288l-.339-.107c-.27 1.606-.822 2.133-1.611 2.133-1.308.003-2.052-1.92-2.056-4.073-.007-2.617.892-4.382 2.1-4.384.78-.002 1.258.718 1.71 2.162z" style="fill:#181c62;fill-opacity:1;fill-rule:nonzero;stroke:none" transform="matrix(1.30775 0 0 -1.30775 107.066 248.268)"/><path d="M0 0c-.126-.668-.348-1.727-.492-2.243-.242-.076-1.013-.355-1.637-.354-2.25.004-3.2 2.453-3.193 4.746.008 3.004 1.416 5.008 3.442 5.005.69-.003 1.304-.277 1.555-.377.079-.791.135-1.414.18-2.288l-.339-.107c-.27 1.606-.822 2.133-1.611 2.133-1.308.003-2.052-1.92-2.056-4.073-.007-2.617.892-4.382 2.1-4.384.78-.002 1.258.718 1.71 2.162z" style="fill:none;stroke:#181c62;stroke-width:.365;stroke-linecap:butt;stroke-linejoin:miter;stroke-miterlimit:10;stroke-dasharray:none;stroke-opacity:1" transform="matrix(1.30775 0 0 -1.30775 107.066 248.268)"/><path d="m0 0-.036.532C.639.668.723.766.648 1.95L.293 7.476C.215 8.675.119 8.762-.564 8.792l-.035.532 2.527.168.035-.535c-.675-.118-.752-.216-.672-1.416l.354-5.525c.076-1.2.162-1.271.848-1.318l.035-.532Z" style="fill:#181c62;fill-opacity:1;fill-rule:nonzero;stroke:none" transform="matrix(1.30775 0 0 -1.30775 108.283 251.3)"/><path d="m0 0-.036.532C.639.668.723.766.648 1.95L.293 7.476C.215 8.675.119 8.762-.564 8.792l-.035.532 2.527.168.035-.535c-.675-.118-.752-.216-.672-1.416l.354-5.525c.076-1.2.162-1.271.848-1.318l.035-.532Z" style="fill:none;stroke:#181c62;stroke-width:.365;stroke-linecap:butt;stroke-linejoin:miter;stroke-miterlimit:10;stroke-dasharray:none;stroke-opacity:1" transform="matrix(1.30775 0 0 -1.30775 108.283 251.3)"/><path d="M0 0a39.85 39.85 0 0 0-.017-2.371l-4.403-.556-.066.528c.743.199.816.286.67 1.462l-.698 5.485c-.153 1.207-.248 1.273-.906 1.265l-.066.529 4.083.514c.042-.26.209-1.274.356-2.092l-.341-.118c-.148.532-.299.887-.462 1.152-.147.241-.409.339-.946.269L-3.339 6c-.308-.04-.338-.074-.278-.54l.384-3.025.689.088c.748.094.82.194.816 1.183l.336.042L-1.03.89l-.335-.043c-.251 1.026-.343 1.074-1.089.981l-.692-.087.32-2.521c.086-.663.187-.98.371-1.102.168-.117.485-.107.864-.06.519.066.799.194.949.573.127.314.222.786.289 1.424z" style="fill:#181c62;fill-opacity:1;fill-rule:nonzero;stroke:none" transform="matrix(1.30775 0 0 -1.30775 118.683 247.177)"/><path d="M0 0a39.85 39.85 0 0 0-.017-2.371l-4.403-.556-.066.528c.743.199.816.286.67 1.462l-.698 5.485c-.153 1.207-.248 1.273-.906 1.265l-.066.529 4.083.514c.042-.26.209-1.274.356-2.092l-.341-.118c-.148.532-.299.887-.462 1.152-.147.241-.409.339-.946.269L-3.339 6c-.308-.04-.338-.074-.278-.54l.384-3.025.689.088c.748.094.82.194.816 1.183l.336.042L-1.03.89l-.335-.043c-.251 1.026-.343 1.074-1.089.981l-.692-.087.32-2.521c.086-.663.187-.98.371-1.102.168-.117.485-.107.864-.06.519.066.799.194.949.573.127.314.222.786.289 1.424z" style="fill:none;stroke:#181c62;stroke-width:.365;stroke-linecap:butt;stroke-linejoin:miter;stroke-miterlimit:10;stroke-dasharray:none;stroke-opacity:1" transform="matrix(1.30775 0 0 -1.30775 118.683 247.177)"/><path d="M0 0c-.464-.147-.61-.39-.536-.958.056-.439.169-1.099.438-2.332L1.12-8.905l-.414-.09-5.034 6.291-.02-.005.705-3.255c.258-1.19.441-1.852.559-2.262.174-.616.407-.784 1.019-.697l.111-.521-2.14-.465-.113.521c.478.151.642.403.549 1.006-.058.455-.167 1.132-.425 2.322l-.649 2.997c-.206.944-.252 1.113-.482 1.414-.235.299-.468.359-.851.337l-.11.505 1.481.32 4.738-5.77.027.006-.62 2.863a33.127 33.127 0 0 1-.566 2.292c-.167.545-.409.703-1.022.633l-.109.506 2.137.462z" style="fill:#181c62;fill-opacity:1;fill-rule:nonzero;stroke:none" transform="matrix(1.30775 0 0 -1.30775 125.669 237.083)"/><path d="M0 0c-.464-.147-.61-.39-.536-.958.056-.439.169-1.099.438-2.332L1.12-8.905l-.414-.09-5.034 6.291-.02-.005.705-3.255c.258-1.19.441-1.852.559-2.262.174-.616.407-.784 1.019-.697l.111-.521-2.14-.465-.113.521c.478.151.642.403.549 1.006-.058.455-.167 1.132-.425 2.322l-.649 2.997c-.206.944-.252 1.113-.482 1.414-.235.299-.468.359-.851.337l-.11.505 1.481.32 4.738-5.77.027.006-.62 2.863a33.127 33.127 0 0 1-.566 2.292c-.167.545-.409.703-1.022.633l-.109.506 2.137.462z" style="fill:none;stroke:#181c62;stroke-width:.365;stroke-linecap:butt;stroke-linejoin:miter;stroke-miterlimit:10;stroke-dasharray:none;stroke-opacity:1" transform="matrix(1.30775 0 0 -1.30775 125.669 237.083)"/><path d="M0 0c.084-.675.194-1.75.212-2.287-.207-.146-.858-.647-1.453-.834-2.146-.681-3.797 1.366-4.486 3.549-.906 2.864-.171 5.203 1.763 5.816.658.206 1.325.131 1.596.114a44.54 44.54 0 0 0 .866-2.128l-.29-.203c-.747 1.446-1.431 1.781-2.184 1.542-1.249-.395-1.372-2.452-.724-4.505.789-2.495 2.181-3.905 3.335-3.539.744.233.981 1.069.971 2.582z" style="fill:#181c62;fill-opacity:1;fill-rule:nonzero;stroke:none" transform="matrix(1.30775 0 0 -1.30775 135.193 242.854)"/><path d="M0 0c.084-.675.194-1.75.212-2.287-.207-.146-.858-.647-1.453-.834-2.146-.681-3.797 1.366-4.486 3.549-.906 2.864-.171 5.203 1.763 5.816.658.206 1.325.131 1.596.114a44.54 44.54 0 0 0 .866-2.128l-.29-.203c-.747 1.446-1.431 1.781-2.184 1.542-1.249-.395-1.372-2.452-.724-4.505.789-2.495 2.181-3.905 3.335-3.539.744.233.981 1.069.971 2.582z" style="fill:none;stroke:#181c62;stroke-width:.365;stroke-linecap:butt;stroke-linejoin:miter;stroke-miterlimit:10;stroke-dasharray:none;stroke-opacity:1" transform="matrix(1.30775 0 0 -1.30775 135.193 242.854)"/><path d="M0 0a38.86 38.86 0 0 0 .601-2.297L-3.497-3.98l-.202.493c.662.387.713.49.264 1.59l-2.097 5.122c-.461 1.127-.569 1.168-1.199.989l-.203.494 3.8 1.56c.11-.242.534-1.18.888-1.933l-.297-.203c-.282.478-.521.783-.746.993-.204.197-.482.224-.983.017l-.504-.206c-.286-.119-.306-.16-.128-.596l1.157-2.826.642.265c.695.284.74.402.478 1.355l.311.128 1.094-2.67-.314-.13c-.506.93-.61.952-1.305.668l-.641-.265.964-2.352c.253-.62.434-.901.643-.972.192-.068.495.024.846.167.484.2.722.397.767.803.042.337.009.818-.091 1.449z" style="fill:#181c62;fill-opacity:1;fill-rule:nonzero;stroke:none" transform="matrix(1.30775 0 0 -1.30775 141.843 240.201)"/><path d="M0 0a38.86 38.86 0 0 0 .601-2.297L-3.497-3.98l-.202.493c.662.387.713.49.264 1.59l-2.097 5.122c-.461 1.127-.569 1.168-1.199.989l-.203.494 3.8 1.56c.11-.242.534-1.18.888-1.933l-.297-.203c-.282.478-.521.783-.746.993-.204.197-.482.224-.983.017l-.504-.206c-.286-.119-.306-.16-.128-.596l1.157-2.826.642.265c.695.284.74.402.478 1.355l.311.128 1.094-2.67-.314-.13c-.506.93-.61.952-1.305.668l-.641-.265.964-2.352c.253-.62.434-.901.643-.972.192-.068.495.024.846.167.484.2.722.397.767.803.042.337.009.818-.091 1.449z" style="fill:none;stroke:#181c62;stroke-width:.365;stroke-linecap:butt;stroke-linejoin:miter;stroke-miterlimit:10;stroke-dasharray:none;stroke-opacity:1" transform="matrix(1.30775 0 0 -1.30775 141.843 240.201)"/><path d="m0 0-.024-.015C.328-1.105.692-2.2 1.033-3.262l1.269.752zm4.339-5.812-.271.458c.393.374.381.507-.024.958-.323.341-.773.832-1.225 1.307l-1.522-.9c.138-.449.298-.946.507-1.495.263-.735.378-.847.992-.624l.27-.458-1.719-1.018-.27.458c.442.404.485.553.12 1.751l-2.22 7.288.274.357C.952.457 2.816-1.57 4.533-3.364c.859-.923 1.031-.981 1.59-.774l.27-.459z" style="fill:#181c62;fill-opacity:1;fill-rule:nonzero;stroke:none" transform="matrix(1.30775 0 0 -1.30775 147.332 230.17)"/><path d="m0 0-.024-.015C.328-1.105.692-2.2 1.033-3.262l1.269.752zm4.339-5.812-.271.458c.393.374.381.507-.024.958-.323.341-.773.832-1.225 1.307l-1.522-.9c.138-.449.298-.946.507-1.495.263-.735.378-.847.992-.624l.27-.458-1.719-1.018-.27.458c.442.404.485.553.12 1.751l-2.22 7.288.274.357C.952.457 2.816-1.57 4.533-3.364c.859-.923 1.031-.981 1.59-.774l.27-.459z" style="fill:none;stroke:#181c62;stroke-width:.365;stroke-linecap:butt;stroke-linejoin:miter;stroke-miterlimit:10;stroke-dasharray:none;stroke-opacity:1" transform="matrix(1.30775 0 0 -1.30775 147.332 230.17)"/><path d="M0 0c-.367-.321-.404-.601-.105-1.091.228-.38.596-.939 1.339-1.96l3.373-4.65-.34-.248-7.146 3.731-.016-.012 1.958-2.696A32.943 32.943 0 0 1 .483-8.77c.407-.497.691-.555 1.212-.231l.316-.432-1.777-1.285-.312.43c.376.329.425.628.099 1.144-.237.391-.61.968-1.325 1.953l-1.8 2.482c-.568.782-.679.917-1.01 1.1-.336.18-.571.139-.916-.034l-.304.419 1.229.889 6.663-3.374.023.016L.86-3.322A33.635 33.635 0 0 1-.579-1.451c-.376.432-.661.48-1.192.168l-.305.419L-.304.419z" style="fill:#181c62;fill-opacity:1;fill-rule:nonzero;stroke:none" transform="matrix(1.30775 0 0 -1.30775 156.535 221.43)"/><path d="M0 0c-.367-.321-.404-.601-.105-1.091.228-.38.596-.939 1.339-1.96l3.373-4.65-.34-.248-7.146 3.731-.016-.012 1.958-2.696A32.943 32.943 0 0 1 .483-8.77c.407-.497.691-.555 1.212-.231l.316-.432-1.777-1.285-.312.43c.376.329.425.628.099 1.144-.237.391-.61.968-1.325 1.953l-1.8 2.482c-.568.782-.679.917-1.01 1.1-.336.18-.571.139-.916-.034l-.304.419 1.229.889 6.663-3.374.023.016L.86-3.322A33.635 33.635 0 0 1-.579-1.451c-.376.432-.661.48-1.192.168l-.305.419L-.304.419z" style="fill:none;stroke:#181c62;stroke-width:.365;stroke-linecap:butt;stroke-linejoin:miter;stroke-miterlimit:10;stroke-dasharray:none;stroke-opacity:1" transform="matrix(1.30775 0 0 -1.30775 156.535 221.43)"/><path d="M0 0c.67-.756 1.033-.873 1.499-.459 1.001.89.477 2.67-1.166 4.525-.92 1.038-1.905 1.726-2.715 1.845-.626.145-1.145 0-1.578-.383-.255-.228-.335-.42-.326-.543.024-.142.144-.311.44-.647Zm-4.282 6.035c.842.745 1.695 1.046 2.717.76C-.8 6.579.134 6.014 1.03 5.002c1.16-1.31 1.692-2.526 1.725-3.595C2.822.359 2.4-.513 1.573-1.247L-.054-2.688l-.352.398c.481.549.494.662-.303 1.56l-3.668 4.139c-.797.9-.915.917-1.453.541l-.354.399z" style="fill:#181c62;fill-opacity:1;fill-rule:nonzero;stroke:none" transform="matrix(1.30775 0 0 -1.30775 164.476 226.349)"/><path d="M0 0c.67-.756 1.033-.873 1.499-.459 1.001.89.477 2.67-1.166 4.525-.92 1.038-1.905 1.726-2.715 1.845-.626.145-1.145 0-1.578-.383-.255-.228-.335-.42-.326-.543.024-.142.144-.311.44-.647Zm-4.282 6.035c.842.745 1.695 1.046 2.717.76C-.8 6.579.134 6.014 1.03 5.002c1.16-1.31 1.692-2.526 1.725-3.595C2.822.359 2.4-.513 1.573-1.247L-.054-2.688l-.352.398c.481.549.494.662-.303 1.56l-3.668 4.139c-.797.9-.915.917-1.453.541l-.354.399z" style="fill:none;stroke:#181c62;stroke-width:.365;stroke-linecap:butt;stroke-linejoin:miter;stroke-miterlimit:10;stroke-dasharray:none;stroke-opacity:1" transform="matrix(1.30775 0 0 -1.30775 164.476 226.349)"/><path d="M0 0c-.629.397-.993.591-1.275.646-.318.062-.491-.003-.848-.431l-.323-.383 5.238-4.385c.899-.752 1.034-.758 1.623-.197l.407-.342-1.774-2.116-.406.343c.431.656.398.782-.501 1.536L-3.098-.944l-.275-.328c-.424-.508-.421-.728-.302-.989.097-.25.412-.61.842-1.116l-.227-.269c-.727.66-1.464 1.343-2.036 1.848l.15.178c.339-.103.443-.052.599.133l2.229 2.659c.154.182.144.314.016.6l.158.186C-1.46 1.565-.518.838.178.294Z" style="fill:#181c62;fill-opacity:1;fill-rule:nonzero;stroke:none" transform="matrix(1.30775 0 0 -1.30775 172.213 208.917)"/><path d="M0 0c-.629.397-.993.591-1.275.646-.318.062-.491-.003-.848-.431l-.323-.383 5.238-4.385c.899-.752 1.034-.758 1.623-.197l.407-.342-1.774-2.116-.406.343c.431.656.398.782-.501 1.536L-3.098-.944l-.275-.328c-.424-.508-.421-.728-.302-.989.097-.25.412-.61.842-1.116l-.227-.269c-.727.66-1.464 1.343-2.036 1.848l.15.178c.339-.103.443-.052.599.133l2.229 2.659c.154.182.144.314.016.6l.158.186C-1.46 1.565-.518.838.178.294Z" style="fill:none;stroke:#181c62;stroke-width:.365;stroke-linecap:butt;stroke-linejoin:miter;stroke-miterlimit:10;stroke-dasharray:none;stroke-opacity:1" transform="matrix(1.30775 0 0 -1.30775 172.213 208.917)"/><path d="M0 0a40.952 40.952 0 0 0 1.734-1.619L-.839-5.234l-.432.309c.354.682.341.796-.627 1.484l-4.51 3.208c-.992.705-1.104.68-1.545.194l-.434.308 2.385 3.351c.222-.147 1.083-.712 1.782-1.158l-.141-.33c-.494.251-.859.382-1.163.44-.278.056-.525-.07-.84-.511l-.318-.446c-.18-.252-.173-.297.21-.572l2.489-1.767.403.566c.434.611.41.735-.32 1.4l.195.275 2.351-1.671-.195-.275c-.925.512-1.025.477-1.46-.135l-.404-.567 2.072-1.473c.547-.389.85-.528 1.063-.477.201.046.407.284.629.594.303.426.4.721.221 1.086-.144.309-.429.698-.853 1.179z" style="fill:#181c62;fill-opacity:1;fill-rule:nonzero;stroke:none" transform="matrix(1.30775 0 0 -1.30775 181.367 206.534)"/><path d="M0 0a40.952 40.952 0 0 0 1.734-1.619L-.839-5.234l-.432.309c.354.682.341.796-.627 1.484l-4.51 3.208c-.992.705-1.104.68-1.545.194l-.434.308 2.385 3.351c.222-.147 1.083-.712 1.782-1.158l-.141-.33c-.494.251-.859.382-1.163.44-.278.056-.525-.07-.84-.511l-.318-.446c-.18-.252-.173-.297.21-.572l2.489-1.767.403.566c.434.611.41.735-.32 1.4l.195.275 2.351-1.671-.195-.275c-.925.512-1.025.477-1.46-.135l-.404-.567 2.072-1.473c.547-.389.85-.528 1.063-.477.201.046.407.284.629.594.303.426.4.721.221 1.086-.144.309-.429.698-.853 1.179z" style="fill:none;stroke:#181c62;stroke-width:.365;stroke-linecap:butt;stroke-linejoin:miter;stroke-miterlimit:10;stroke-dasharray:none;stroke-opacity:1" transform="matrix(1.30775 0 0 -1.30775 181.367 206.534)"/><path d="M0 0c.513-.449 1.308-1.175 1.68-1.562-.057-.249-.21-1.054-.528-1.589-1.151-1.931-3.748-1.5-5.718-.331C-7.15-1.947-8.161.286-7.124 2.025c.353.592.903.979 1.116 1.144a42.085 42.085 0 0 0 2.066-1.01l-.082-.343c-1.52.582-2.256.376-2.66-.301-.67-1.124.609-2.74 2.461-3.84C-1.97-3.663.009-3.789.629-2.751c.399.669.021 1.448-.994 2.57z" style="fill:#181c62;fill-opacity:1;fill-rule:nonzero;stroke:none" transform="matrix(1.30775 0 0 -1.30775 185.488 199.597)"/><path d="M0 0c.513-.449 1.308-1.175 1.68-1.562-.057-.249-.21-1.054-.528-1.589-1.151-1.931-3.748-1.5-5.718-.331C-7.15-1.947-8.161.286-7.124 2.025c.353.592.903.979 1.116 1.144a42.085 42.085 0 0 0 2.066-1.01l-.082-.343c-1.52.582-2.256.376-2.66-.301-.67-1.124.609-2.74 2.461-3.84C-1.97-3.663.009-3.789.629-2.751c.399.669.021 1.448-.994 2.57z" style="fill:none;stroke:#181c62;stroke-width:.365;stroke-linecap:butt;stroke-linejoin:miter;stroke-miterlimit:10;stroke-dasharray:none;stroke-opacity:1" transform="matrix(1.30775 0 0 -1.30775 185.488 199.597)"/><path d="M0 0c-.234-.673-.183-.779.891-1.286l5.031-2.376c1.074-.506 1.163-.46 1.556.118l.481-.228-1.108-2.343-.483.228c.217.707.195.801-.88 1.308L3.054-3.428l-1.119-2.36L4.371-6.94c1.074-.507 1.164-.459 1.551.111l.482-.228-1.083-2.29-.482.229c.196.66.173.755-.901 1.262l-5.03 2.377c-1.075.506-1.19.478-1.562-.132l-.482.228 1.083 2.288.482-.227c-.21-.622-.162-.735.912-1.241l1.919-.909 1.118 2.364-1.92.906c-1.074.508-1.189.478-1.541-.088l-.482.229L-.482.227z" style="fill:#181c62;fill-opacity:1;fill-rule:nonzero;stroke:none" transform="matrix(1.30775 0 0 -1.30775 181.916 187.684)"/><path d="M0 0c-.234-.673-.183-.779.891-1.286l5.031-2.376c1.074-.506 1.163-.46 1.556.118l.481-.228-1.108-2.343-.483.228c.217.707.195.801-.88 1.308L3.054-3.428l-1.119-2.36L4.371-6.94c1.074-.507 1.164-.459 1.551.111l.482-.228-1.083-2.29-.482.229c.196.66.173.755-.901 1.262l-5.03 2.377c-1.075.506-1.19.478-1.562-.132l-.482.228 1.083 2.288.482-.227c-.21-.622-.162-.735.912-1.241l1.919-.909 1.118 2.364-1.92.906c-1.074.508-1.189.478-1.541-.088l-.482.229L-.482.227z" style="fill:none;stroke:#181c62;stroke-width:.365;stroke-linecap:butt;stroke-linejoin:miter;stroke-miterlimit:10;stroke-dasharray:none;stroke-opacity:1" transform="matrix(1.30775 0 0 -1.30775 181.916 187.684)"/><path d="M0 0c-.119-.473.01-.726.533-.959.403-.185 1.024-.435 2.214-.858l5.414-1.917-.142-.399-7.994-.975-.006-.017 3.139-1.113a33.786 33.786 0 0 1 2.217-.715c.614-.177.881-.065 1.128.497l.503-.176-.732-2.067-.502.177c.124.487-.006.759-.567.999-.418.188-1.049.453-2.199.859L.117-5.639c-.909.323-1.079.372-1.454.333-.378-.043-.55-.209-.735-.547l-.488.173.508 1.43 7.395.995.01.026-2.761.978c-1.188.422-1.833.61-2.244.726-.552.145-.814.022-1.077-.537l-.488.172.731 2.063z" style="fill:#181c62;fill-opacity:1;fill-rule:nonzero;stroke:none" transform="matrix(1.30775 0 0 -1.30775 184.72 179.735)"/><path d="M0 0c-.119-.473.01-.726.533-.959.403-.185 1.024-.435 2.214-.858l5.414-1.917-.142-.399-7.994-.975-.006-.017 3.139-1.113a33.786 33.786 0 0 1 2.217-.715c.614-.177.881-.065 1.128.497l.503-.176-.732-2.067-.502.177c.124.487-.006.759-.567.999-.418.188-1.049.453-2.199.859L.117-5.639c-.909.323-1.079.372-1.454.333-.378-.043-.55-.209-.735-.547l-.488.173.508 1.43 7.395.995.01.026-2.761.978c-1.188.422-1.833.61-2.244.726-.552.145-.814.022-1.077-.537l-.488.172.731 2.063z" style="fill:none;stroke:#181c62;stroke-width:.365;stroke-linecap:butt;stroke-linejoin:miter;stroke-miterlimit:10;stroke-dasharray:none;stroke-opacity:1" transform="matrix(1.30775 0 0 -1.30775 184.72 179.735)"/><path d="M0 0c-.215-.874 1.046-1.956 3.467-2.552 2.451-.603 4.577-.368 4.852.751.21.851-.884 1.877-3.453 2.51-2.814.692-4.614.312-4.864-.7Zm-.539.325c.368 1.491 2.503 2.314 5.302 1.624C7.791 1.204 9.274-.53 8.885-2.112 8.488-3.73 6.207-4.433 3.504-3.768c-2.437.6-4.505 2.214-4.045 4.083z" style="fill:#181c62;fill-opacity:1;fill-rule:nonzero;stroke:none" transform="matrix(1.30775 0 0 -1.30775 185.555 175.78)"/><path d="M0 0c-.215-.874 1.046-1.956 3.467-2.552 2.451-.603 4.577-.368 4.852.751.21.851-.884 1.877-3.453 2.51-2.814.692-4.614.312-4.864-.7Zm-.539.325c.368 1.491 2.503 2.314 5.302 1.624C7.791 1.204 9.274-.53 8.885-2.112 8.488-3.73 6.207-4.433 3.504-3.768c-2.437.6-4.505 2.214-4.045 4.083z" style="fill:none;stroke:#181c62;stroke-width:.365;stroke-linecap:butt;stroke-linejoin:miter;stroke-miterlimit:10;stroke-dasharray:none;stroke-opacity:1" transform="matrix(1.30775 0 0 -1.30775 185.555 175.78)"/><path d="M0 0c.539-.147 1.914-.552 2.301-.69l-.654-4.134-.526.084c.026.745-.05.848-1.222 1.032l-5.46.863c-1.188.188-1.291.113-1.474-.556l-.525.083.399 2.526.524-.084c-.033-.703.044-.795 1.231-.984l5.477-.865c.69-.108.974-.109 1.131.053.144.131.215.389.264.696.062.393.036.714-.299.974-.271.196-.695.432-1.348.685z" style="fill:#181c62;fill-opacity:1;fill-rule:nonzero;stroke:none" transform="matrix(1.30775 0 0 -1.30775 195.937 166.973)"/><path d="M0 0c.539-.147 1.914-.552 2.301-.69l-.654-4.134-.526.084c.026.745-.05.848-1.222 1.032l-5.46.863c-1.188.188-1.291.113-1.474-.556l-.525.083.399 2.526.524-.084c-.033-.703.044-.795 1.231-.984l5.477-.865c.69-.108.974-.109 1.131.053.144.131.215.389.264.696.062.393.036.714-.299.974-.271.196-.695.432-1.348.685z" style="fill:none;stroke:#181c62;stroke-width:.365;stroke-linecap:butt;stroke-linejoin:miter;stroke-miterlimit:10;stroke-dasharray:none;stroke-opacity:1" transform="matrix(1.30775 0 0 -1.30775 195.937 166.973)"/><path d="M0 0c-.065-.898 1.359-1.751 3.85-1.933 2.52-.184 4.575.405 4.659 1.555.064.873-1.189 1.7-3.828 1.893C1.788 1.725.075 1.048 0 .009Zm-.585.227C-.476 1.761 1.494 2.93 4.37 2.722c3.112-.227 4.867-1.689 4.75-3.311-.122-1.663-2.252-2.739-5.03-2.537C1.587-2.945-.725-1.7-.587.218Z" style="fill:#181c62;fill-opacity:1;fill-rule:nonzero;stroke:none" transform="matrix(1.30775 0 0 -1.30775 187.801 161.708)"/><path d="M0 0c-.065-.898 1.359-1.751 3.85-1.933 2.52-.184 4.575.405 4.659 1.555.064.873-1.189 1.7-3.828 1.893C1.788 1.725.075 1.048 0 .009Zm-.585.227C-.476 1.761 1.494 2.93 4.37 2.722c3.112-.227 4.867-1.689 4.75-3.311-.122-1.663-2.252-2.739-5.03-2.537C1.587-2.945-.725-1.7-.587.218Z" style="fill:none;stroke:#181c62;stroke-width:.365;stroke-linecap:butt;stroke-linejoin:miter;stroke-miterlimit:10;stroke-dasharray:none;stroke-opacity:1" transform="matrix(1.30775 0 0 -1.30775 187.801 161.708)"/><path d="M0 0c.151-.472.198-.518 1.103-.491l1.17.036c.495.014.965.038 1.366.097.222-.539.541-1.259.561-1.972.059-1.997-1.835-3.319-4.671-3.404-3.316-.1-5.028 1.477-5.082 3.269-.019.709.234 1.382.356 1.695.493.044 1.259.12 2.315.208l.115-.339c-1.689-.285-2.203-.933-2.179-1.703.032-1.15 1.604-2.044 4.204-1.967 2.152.063 4.374.82 4.33 2.332a.88.88 0 0 1-.221.574c-.143.143-.349.218-.844.202L1.245-1.5C.265-1.529.168-1.585.073-2.481l-.532-.017-.074 2.481z" style="fill:#181c62;fill-opacity:1;fill-rule:nonzero;stroke:none" transform="matrix(1.30775 0 0 -1.30775 194.447 149.176)"/><path d="M0 0c.151-.472.198-.518 1.103-.491l1.17.036c.495.014.965.038 1.366.097.222-.539.541-1.259.561-1.972.059-1.997-1.835-3.319-4.671-3.404-3.316-.1-5.028 1.477-5.082 3.269-.019.709.234 1.382.356 1.695.493.044 1.259.12 2.315.208l.115-.339c-1.689-.285-2.203-.933-2.179-1.703.032-1.15 1.604-2.044 4.204-1.967 2.152.063 4.374.82 4.33 2.332a.88.88 0 0 1-.221.574c-.143.143-.349.218-.844.202L1.245-1.5C.265-1.529.168-1.585.073-2.481l-.532-.017-.074 2.481z" style="fill:none;stroke:#181c62;stroke-width:.365;stroke-linecap:butt;stroke-linejoin:miter;stroke-miterlimit:10;stroke-dasharray:none;stroke-opacity:1" transform="matrix(1.30775 0 0 -1.30775 194.447 149.176)"/><path d="M0 0c.153-.562.363-.705 1.275-.92a45.683 45.683 0 0 1 3.01-.698c.408-.077.548-.09.963-.042l1.86.215c1.178.135 1.259.212 1.259 1.026l.529.062.309-2.718-.528-.06c-.177.75-.262.822-1.456.683L5.52-2.647c-.339-.04-.479-.085-.806-.242-.831-.378-1.708-.804-3.066-1.459C.794-4.781.649-4.937.616-5.439L.087-5.5l-.265 2.33.53.06c.188-.577.343-.534.816-.317.985.439 2.015.94 2.994 1.418-.852.165-2.22.466-3.121.588-.623.087-.781.067-.812-.61l-.528-.062-.232 2.032z" style="fill:#181c62;fill-opacity:1;fill-rule:nonzero;stroke:none" transform="matrix(1.30775 0 0 -1.30775 187.256 142.058)"/><path d="M0 0c.153-.562.363-.705 1.275-.92a45.683 45.683 0 0 1 3.01-.698c.408-.077.548-.09.963-.042l1.86.215c1.178.135 1.259.212 1.259 1.026l.529.062.309-2.718-.528-.06c-.177.75-.262.822-1.456.683L5.52-2.647c-.339-.04-.479-.085-.806-.242-.831-.378-1.708-.804-3.066-1.459C.794-4.781.649-4.937.616-5.439L.087-5.5l-.265 2.33.53.06c.188-.577.343-.534.816-.317.985.439 2.015.94 2.994 1.418-.852.165-2.22.466-3.121.588-.623.087-.781.067-.812-.61l-.528-.062-.232 2.032z" style="fill:none;stroke:#181c62;stroke-width:.365;stroke-linecap:butt;stroke-linejoin:miter;stroke-miterlimit:10;stroke-dasharray:none;stroke-opacity:1" transform="matrix(1.30775 0 0 -1.30775 187.256 142.058)"/></g></svg>