<svg xmlns="http://www.w3.org/2000/svg" xml:space="preserve" width="800" height="800" viewBox="0 0 799.99999 799.99999"><path d="M917.797 264.568c-220.91 0-400.002 179.086-400.002 400.003 0 220.905 179.091 399.997 400.002 399.997s399.997-179.092 399.997-399.997c0-220.917-179.086-400.003-399.997-400.003" style="fill:#00784b;fill-opacity:1;fill-rule:nonzero;stroke:none;stroke-width:5.64442" transform="translate(-517.795 -264.568)"/><path d="M917.797 1044.564c-209.865 0-379.999-170.134-379.999-379.993 0-209.87 170.134-380.005 380-380.005 209.864 0 379.998 170.134 379.998 380.005 0 209.86-170.134 379.993-379.999 379.993" style="fill:#fff;fill-opacity:1;fill-rule:nonzero;stroke:none;stroke-width:5.64442" transform="translate(-517.795 -264.568)"/><path d="M0 0c.43-.201.916-.048 1.101.342.182.394-.014.868-.443 1.068l-7.38 3.442c-.273.127-.398.429-.285.673l1.365 2.926-2.137.995-1.816-3.892c-.232-.497.02-1.09.555-1.339Zm.503 4.827c-.229-.493.023-1.089.557-1.338.541-.252 1.162-.063 1.39.431l4.666 10.009-1.945.907-1.937-4.15-2.531 1.18-.659-1.419 2.529-1.179Zm-2.141 2.877c.301-.404.894-.532 1.306-.272.427.258.511.797.211 1.219-.86 1.175-1.402 2.215-1.767 3.233 1.357.463 2.674 1.181 3.369 2.382 0 0 .79 1.27-.669 1.95l-6.527 3.044-.657-1.409 5.18-2.415c.331-.156.139-.431.139-.431-.823-1.273-3.901-2.409-8.171-2.08-.416.035-.834-.169-.891-.607-.04-.41.361-.714.747-.781 1.085-.17 3.477-.417 5.758-.058.816-2.299 1.972-3.775 1.972-3.775" style="fill:#00784b;fill-opacity:1;fill-rule:nonzero;stroke:none" transform="matrix(5.64442 0 0 -5.64442 282.021 741.714)"/><path d="m0 0 2.553-2.142c1.306-1.095 1.769-1.754 2.21-2.421.294-.45.92-.549 1.398-.203.48.35.605.931.347 1.453-.461.882-1.175 1.783-2.801 3.147L1 2.1c-.617.52-1.583.387-2.152-.293L-8.065-6.43l1.196-1.003L-.723-.108C-.532.12-.205.174 0 0" style="fill:#00784b;fill-opacity:1;fill-rule:nonzero;stroke:none" transform="matrix(5.64442 0 0 -5.64442 638.386 567.482)"/><path d="m0 0-3.732-3.132-.966 1.152 3.732 3.131-1.382 1.647-7.933-6.657-3.25 3.873c-.439.523-.439 1.177.058 1.592l5.1 4.28c.206.173.523.13.718-.104l2.766-3.295 1.201 1.009-3.598 4.285c-.571.683-1.539.808-2.157.289l-5.694-4.776c-1.033-.866-1.107-2.492-.146-3.638l3.796-4.526-2.316-1.944c-.412-.347-.437-.995-.051-1.456.379-.452 1.02-.538 1.432-.191l6.524 5.474.966-1.152-6.522-5.473c-.413-.346-.435-.999-.054-1.452.381-.456 1.027-.547 1.44-.201L1.387-1.652z" style="fill:#00784b;fill-opacity:1;fill-rule:nonzero;stroke:none" transform="matrix(5.64442 0 0 -5.64442 210.468 596.233)"/><path d="M0 0v-4.872h-1.504V0h-2.155v-10.357h-5.053c-.681 0-1.184.421-1.184 1.068v6.657c0 .27.246.486.539.486h4.301v1.568h-5.59c-.894 0-1.615-.662-1.615-1.47v-7.43c0-1.349 1.21-2.451 2.694-2.451h5.908v-3.025c0-.538.483-.975 1.079-.975.591 0 1.076.437 1.076.975v8.516H0v-8.516c0-.538.482-.975 1.076-.975.59 0 1.074.437 1.074.975V0Z" style="fill:#00784b;fill-opacity:1;fill-rule:nonzero;stroke:none" transform="matrix(5.64442 0 0 -5.64442 428.54 671.33)"/><path d="m0 0-10.037-4.681.663-1.421 8.577 4.001c.271.126.583.025.693-.212L.989-4.655c.228-.491.842-.684 1.383-.431.537.25.793.851.565 1.338L1.39-.43C1.163.055.538.25 0 0m-.519 7.319-1.4-.652-1.465 3.138-1.948-.909 3.677-7.88C-1.427.525-.81.329-.271.581c.538.25.792.852.563 1.343l-1.595 3.422 1.4.651c.402.188.597.637.425 1.003-.171.369-.638.507-1.041.319" style="fill:#00784b;fill-opacity:1;fill-rule:nonzero;stroke:none" transform="matrix(5.64442 0 0 -5.64442 570.636 684.063)"/><path d="M0 0c.582-1.246.025-2.362-1.131-2.902l-.195-.089c-1.169-.545-2.375-.253-2.955.995l-.328.7c-.577 1.235-.037 2.331 1.093 2.883l.284.133c1.144.509 2.33.217 2.906-1.019zm.156 5.21-3.293-1.536-.706 1.514-1.942-.905.707-1.514-3.95-1.841.659-1.409 1.486.692a3.399 3.399 0 0 1 .225-2.344l.371-.798c.916-1.963 3.343-2.643 5.558-1.612l.393.184C1.874-3.328 2.905-1.015 1.998.933l-.371.797c-.37.792-.941 1.349-1.643 1.683l.829.388c.427.197.63.674.447 1.068-.184.392-.677.539-1.104.341" style="fill:#00784b;fill-opacity:1;fill-rule:nonzero;stroke:none" transform="matrix(5.64442 0 0 -5.64442 529.885 671.495)"/><path d="m0 0-4.766 3.995-1.377-1.643 4.762-3.998-1.385-1.65L-7.529.7l-1.38-1.642 4.764-3.998-1.826-2.177 1.198-1.006L4.58 3.023c.305.364.279.881-.047 1.156-.332.278-.846.215-1.15-.15Z" style="fill:#00784b;fill-opacity:1;fill-rule:nonzero;stroke:none" transform="matrix(5.64442 0 0 -5.64442 670.973 611.997)"/><path d="m0 0 7.259 8.645-1.946.959-6.048-7.619s-.057-.066-.094-.047c-.049.023-.016.101-.016.101l2.392 9.422-1.948.961S-2.953 1.348-2.952 1.335c0 0-.384-1.463.814-2.053C-1.009-1.274 0 0 0 0m21.489-5.156.834-1.017c.856-1.047.707-2.123-.082-2.769-.843-.69-1.595-.645-2.469.096a5.136 5.136 0 0 0-.626.648l-.551.671zm1.912-5.362c.907.743 1.345 1.579 1.333 2.488-.01.827-.359 1.676-1.077 2.552l-2.3 2.808-8.702-7.129c-.281-.23-.438-.466-.523-.75a.879.879 0 0 1 .165-.847c.2-.245.466-.351.799-.331.29.037.55.145.831.375l3.416 2.799.551-.672-2.72-5.374 1.479-1.807 2.913 5.732c1.491-.768 2.763-.722 3.835.156m-52.76 14.385c1.938.239 2.796 1.528 2.796 1.528.498.71.617 1.639.433 3.141l-1.015 8.222-2.065-.256 1.07-8.671c.151-1.221-.363-1.935-1.529-2.112-1.174-.112-1.839.458-1.99 1.678l-1.069 8.671-2.085-.257 1.012-8.22c.186-1.503.598-2.365 1.206-2.94 0 0 1.126-1.044 3.236-.784m13.547 9.679c-.173-2.284-.314-4.703-.349-6.017l-.042.005c-.324 1.13-1.003 3.071-1.372 4.085l-1.81 5.041-2.116.213-1.127-11.213c-.03-.308.02-.608.177-.833a.869.869 0 0 1 .698-.441c.321-.033.572.059.77.294.211.186.314.472.345.78l.217 2.164c.215 2.277.312 4.282.366 5.433l.039-.004c.233-1.133.904-3.023 1.313-4.094l1.765-4.964 2.115-.212 1.236 12.295-2 .201zm52.563-67.708-4.875 2.886 5.406 1.564.267 2.107-7.486-2.124-3.945.504c-.396.05-.713.02-.982-.141a.922.922 0 0 1-.521-.734.926.926 0 0 1 .318-.849c.22-.22.52-.334.916-.386l3.945-.503 6.739-4.028zM35.23-34.09l.294-2.772-9.634-1.019c-.363-.038-.661-.159-.872-.354a.893.893 0 0 1-.329-.807c.037-.348.195-.599.496-.762.248-.151.558-.201.924-.162l9.636 1.02.29-2.746 1.552.164-.805 7.602zm-11.143 4.531c-.35-.099-.622-.272-.795-.505a.893.893 0 0 1-.172-.852.891.891 0 0 1 .599-.636c.27-.108.594-.119.944-.018l10.815 3.097-.577 2.012zm2.639 8.245c.012.1.151.896.31 2.66.084 1.006.38 1.629.908 1.898.656.336 1.177.11 1.586-.687.269-.526.354-1.251.26-2.208l1.818.061a4.795 4.795 0 0 1-.49 2.983c-.461.895-1.074 1.471-1.884 1.773-.837.296-1.59.303-2.513-.169-.978-.501-1.336-1.332-1.591-2.421l-.352-2.954c-.093-1.002-.548-1.49-1.129-1.789-.939-.481-1.886-.135-2.503 1.072-.178.347-.26.807-.258 1.37.01.537.018.909-.067 1.074a.884.884 0 0 1-.504.431c-.233.082-.45.05-.67-.062-.514-.265-.683-.835-.607-1.719.078-.613.182-1.155.566-1.906.551-1.078 1.213-1.662 2.139-2.042.985-.395 2.022-.314 3.118.249.984.504 1.599 1.286 1.863 2.386M-10.37 3.787c-.104-.349-.101-.672-.008-.939.121-.31.318-.512.626-.605.329-.097.618-.039.864.162.251.166.416.439.52.788l3.197 10.786-2 .592zM9.783-6.435 7.286-4.453c-.307.243-.437.442-.42.62.026.107.162.349.44.696L9.07-.906l2.804-2.224 1.042 1.315L10.112.407l2.201 2.778L15.939.313l1.001 1.262-5.233 4.148L5.06-2.666c-.299-.377-.45-.782-.413-1.208.068-.417.234-.752.586-1.029L8.772-7.71c.38-.3.905-.277 1.174.064.328.414.218.913-.163 1.211m-60.15 4.081c.145-.272.346-.48.606-.609a.86.86 0 0 1 .805.018c.285.153.423.36.463.662.053.295-.01.576-.156.849L-49.735.549l.018.011-.012.023c-1.173 2.191-2.083 3.632-2.713 4.689l.033.018c.807-.818 2.414-2.016 3.327-2.7l4.178-3.155 1.811.969-5.83 10.895-1.711-.914 1.291-2.413c1.129-1.995 2.408-4.062 3.097-5.179l-.035-.019c-.896.759-2.525 2.016-3.363 2.656l-4.269 3.199-1.813-.971 4.291-8.018zm-26.115-38.435-4.322 1.587c-.068.028-.082.044-.078.087.006.06.083.059.083.059l4.54.692zm-6.917.948 11.11-4.665.183 1.97-2.792 1.116.309 3.345 2.94.482.207 2.218-11.775-2.213c-.673-.141-1.04-.487-1.091-1.033-.077-.832.909-1.22.909-1.22m20.503 37.638a3.136 3.136 0 0 0-.513 1.296c-.098.486.07 1.018.559 1.451.482.425 1.038.536 1.523.382.411-.131.778-.291 1.205-.685.436-.379.982-.965 1.861-1.962.879-.998 1.385-1.606 1.711-2.092.338-.473.461-.87.537-1.293.079-.484-.09-1.038-.577-1.455l-.029-.024c-.466-.411-1.025-.489-1.483-.347-.405.12-.783.291-1.221.675-.43.395-.969.975-1.848 1.972-.879.998-1.392 1.61-1.725 2.082m7.5-5.713c.997.878 1.353 1.88 1.339 2.789-.02 1.58-.795 2.495-2.686 4.644-1.885 2.137-2.631 3.014-4.253 3.211-.927.118-1.89-.035-2.935-.956-1.051-.925-1.322-1.861-1.321-2.793-.015-1.64.767-2.486 2.65-4.624 1.894-2.147 2.633-3.05 4.263-3.224.91-.1 1.971.097 2.943.953m-12.607-16.392c.052-.481.444-.876.919-.85.47.02.849.443.856.908.112 3.162-2.882 4.594-2.882 4.594l-8.118 4.161-.943-1.84 8.153-4.18s1.806-.871 2.015-2.793m4.457 7.614 2.707 3.636c.281.38.236.895-.112 1.154-.423.316-.911.198-1.195-.181l-1.917-2.575c-.229-.31-.428-.451-.602-.435-.111.02-.354.153-.711.418l-2.28 1.698 2.132 2.864-1.346 1.003-2.133-2.865-2.848 2.12 2.764 3.711-1.289.958-3.996-5.367 8.586-6.392c.386-.287.803-.415 1.227-.364.415.08.751.265 1.013.617m-6.146-9.901c-.505.154-.928-.128-1.068-.591l-.923-3.047c-.111-.368-.253-.578-.423-.622-.111-.022-.381.034-.807.162l-2.721.825 1.032 3.414-1.604.486-1.033-3.415-3.399 1.029 1.334 4.405-1.537.465-1.935-6.396 10.243-3.102c.462-.139.895-.122 1.281.085.358.198.615.505.739.911l1.31 4.329c.141.463-.074.937-.489 1.062m-8.257-22.347c2.015.224 2.729.227 3.493-.133.445-.217.81-.662.891-1.324l.234-1.936-8.471-1.027-.234 1.929c-.078.641.165 1.187.554 1.504.559.46 1.122.654 2.635.858zm-.233 2.02c-2.555-.31-3.819-.517-4.844-1.705-.612-.694-1.071-1.633-.895-3.076l.479-3.951 12.259 1.488-.48 3.951c-.175 1.444-.84 2.245-1.608 2.773-1.264.88-2.516.811-4.911.52" style="fill:#00784b;fill-opacity:1;fill-rule:nonzero;stroke:none" transform="matrix(5.64442 0 0 -5.64442 532.272 150.56)"/><path d="M0 0c-.7.709-1.735 1.07-2.845 1.07C-3.95 1.07-4.982.709-5.682 0c-.722-.728-.893-1.543-.893-2.7v-1.04a.638.638 0 0 0-.63-.636.637.637 0 0 0-.635.636v7.981c0 1.245-.181 2.108-.945 2.885-.75.762-1.85 1.143-3.04 1.143-1.178 0-2.281-.381-3.037-1.143-.764-.777-.945-1.64-.945-2.885V2.467a.727.727 0 0 0-.726-.723c-.656 0-.863.781-1.215 1.841-.154.508-.445.933-.809 1.304-.836.835-2.062 1.264-3.381 1.264h-.663c-.976 0-1.765.789-1.765 1.764v2.739c0 1.485-.207 2.521-1.127 3.444-.723.727-1.718 1.167-2.812 1.313-.884.122-1.086.559-1.086.933v.129c0 1.597-.236 2.704-1.221 3.69-.951.964-2.361 1.46-3.881 1.46-1.508 0-2.914-.496-3.874-1.46-.983-.986-1.213-2.093-1.213-3.69v-3.498a.9.9 0 0 0-.893-.89h-1.132c-1.528 0-2.967-.503-3.939-1.492-1.004-1.008-1.24-2.131-1.24-3.747v-3.81a.522.522 0 0 0-.26-.464.51.51 0 0 0-.525-.019c-.59.293-1.26.434-1.973.434-.778 0-1.524-.18-2.147-.527-.184-.101-.432-.14-.636-.049-.22.095-.347.298-.396.518a2.9 2.9 0 0 1-.83 1.562c-.725.733-1.799 1.11-2.96 1.11-1.152 0-2.228-.377-2.956-1.11-.75-.766-.929-1.601-.929-2.822v-15.226c0-1.213.179-2.056.929-2.815.728-.736 1.804-1.113 2.956-1.113h.164a.96.96 0 0 0 .691-.298.94.94 0 0 0 .283-.683v-1.286c0-1.194.174-2.017.916-2.769.711-.722 1.773-1.094 2.912-1.094 1.127 0 2.19.372 2.9 1.094.74.752.912 1.575.912 2.769v4.436c0 .507.414.924.92.924a.92.92 0 0 0 .912-.924v-4.4c0-1.74.259-2.951 1.34-4.041 1.041-1.058 2.592-1.599 4.239-1.599h.217c.296 0 .605-.11.828-.344a1.17 1.17 0 0 0 .345-.835v-3.248c0-1.631.243-2.765 1.262-3.785.962-.986 2.417-1.495 3.964-1.495 1.548 0 3.005.509 3.976 1.495 1.005 1.02 1.254 2.154 1.254 3.785v4.053a2.283 2.283 0 0 0 2.288 2.286h.22c1.197 0 2.315.396 3.074 1.163.782.791.962 1.667.962 2.929v.586c0 .802.656 1.461 1.473 1.461a1.47 1.47 0 0 0 1.473-1.461v-.527c0-1.45.207-2.456 1.101-3.355.862-.879 2.153-1.329 3.521-1.329 1.375 0 2.66.45 3.521 1.329.892.899 1.107 1.905 1.107 3.355v3.338c0 .52.422.936.943.936a.938.938 0 0 0 .938-.936v-.544c0-1.362.197-2.311 1.041-3.163.816-.827 2.027-1.257 3.325-1.257 1.297 0 2.508.43 3.333 1.257.84.852 1.047 1.801 1.047 3.163V-2.7C.891-1.543.721-.728 0 0m-66.203-2.456c-1.116 0-2.161-.376-2.874-1.089-.723-.741-.899-1.559-.899-2.73v-9.211c0-1.185.176-1.997.899-2.735.713-.717 1.758-1.085 2.874-1.085 1.121 0 2.166.368 2.874 1.085.733.738.907 1.55.907 2.735v9.211c0 1.171-.174 1.989-.907 2.73-.708.713-1.753 1.089-2.874 1.089" style="fill:#00784b;fill-opacity:1;fill-rule:nonzero;stroke:none" transform="matrix(5.64442 0 0 -5.64442 594.697 338.062)"/><text x="809.89758" y="869.73566" style="font-variant:normal;font-weight:400;font-stretch:condensed;font-size:45.1555px;font-family:&quot;Univers LT Std 57 Cn&quot;;writing-mode:lr-tb;fill:#00784b;fill-opacity:1;fill-rule:nonzero;stroke:none;stroke-width:5.6444" transform="translate(-517.795 -264.568)"><tspan x="809.89758 836.13287 849.81488 881.06244 907.29761 931.00403 942.15759 963.33533 984.51324 1005.6912" y="869.73566" style="stroke-width:5.6444">SINCE 1980</tspan></text></svg>