<svg xmlns="http://www.w3.org/2000/svg" width="220mm" height="220mm" viewBox="0 0 220 220"><path d="M249.625 181.28c.056 0-.393-.675-1.461-.955-2.08-.563-7.699-3.205-7.418-3.429.337-.338-.056-.899-.675-.618 0 0-.392.225-3.203.618-2.808.45-15.622 1.236-22.646.956-7.026-.28-7.026-.057-11.296-.338-4.272-.281-12.925-1.124-12.925-1.293l.056.618s-2.192 1.461-3.934 2.249c-1.742.786-3.653 1.237-4.159 1.292-.505.113-.9.562-.45.73.225.058 3.148.394 7.475.506 5.788.112 13.88 0 19.726-.055 10.171-.057 27.592.112 30.907.112 6.126.055 9.61-.618 10.003-.393M241.027 185.831s3.09-1.573 3.428-2.192c.394-.618.842-.9.842-.9h-59.904s1.629 2.08 3.708 2.699c2.08.617 51.926.393 51.926.393M189.045 188.528h52.6v-1.798h-52.6v1.798M185.673 203.252h59.176v-1.46h-59.176v1.46M192.81 189.09h-1.854c-.899 4.89-.113 8.486 0 9.89-.393.507-.562 1.911-.28 2.137.28.28 2.134.112 2.19.056.057-.056.169-.225.225-.787.056-.506-.505-1.236-.45-1.405.62-3.315.506-5.676.17-9.89M240.071 189.09h-1.854c-.9 4.89-.112 8.486-.056 9.89-.338.507-.562 1.911-.281 2.137.281.28 2.136.112 2.191.056.114-.056.226-.225.281-.787.057-.506-.504-1.236-.504-1.405.617-3.315.504-5.676.223-9.89M198.654 190.158c1.07.562 1.518 2.417 1.518 4.89 0 2.416-.338 4.439-1.518 5.057v-1.517c0-.057 0-.057.057-.057.281-.562.45-2.585.393-3.708 0-1.18-.168-2.191-.336-2.697-.057-.058-.057-.17-.114-.226zm-.673-.168c.28 0 .45.055.673.168v1.742c-.168-.393-.505-.786-.448-.843v8.205s.168-.168.448-.674v1.517a1.788 1.788 0 0 1-.786.169c-.112 0-.506.056-.618 0l-.057-10.34c.113 0 .675.056.788.056M205.905 189.877h.674l1.236 10.397h-.955l-.337-2.81h-.618v-.843h.505l-.45-3.484-.055.113zm-.62 0h.62v3.373l-.451 3.37h.45v.844h-.56l-.395 2.81h-.843l1.18-10.397M212.142 189.877h2.304v1.124h-1.348v3.428h1.18v1.069h-1.18v3.652h1.348v1.124h-2.304v-10.397M219.504 189.877h1.068c.056 2.978.112 4.665.056 8.43 0 1.011-.506 2.023-1.405 2.08-1.686.055-1.516-1.968-1.461-3.822l1.011-.057c0 .338-.111 2.699.337 2.699l.056.055c.282 0 .394-.45.394-.955.113-2.641-.112-5.675-.056-8.43M225.18 200.274h1.236v-10.34h-1.236v10.34M232.598 189.877h1.011v10.397h-1.011l-.956-5.284v5.284h-1.067v-10.397h1.067l.956 5.508v-5.508M216.525 210.164v-.28c.113 0 .169-.057.226-.057a.685.685 0 0 0 .28-.281.606.606 0 0 0 .168-.393.638.638 0 0 0-.168-.45.575.575 0 0 0-.337-.28h-.169v-.337c.113 0 .169 0 .169.055.168 0 .281.057.394.113.168.113.28.224.393.393.113.113.113.282.113.506 0 .169-.057.393-.169.563-.113.168-.281.28-.506.393-.112.055-.225.055-.338.055h-.056zm0-2.078v.337c0-.056-.055-.056-.055-.056H215.907v1.573h.17c.167 0 .28-.056.393-.056h.055v.28c-.112.057-.224.057-.392.057h-.675c.056-.225.056-.394.056-.506v-1.18c0-.168 0-.337-.056-.45H216.525zm-4.609 2.078v-.28c.058 0 .17-.057.226-.057a.679.679 0 0 0 .282-.281c.111-.112.111-.281.111-.393 0-.17 0-.338-.111-.45-.057-.112-.226-.225-.338-.28h-.17v-.337c.058 0 .113 0 .17.055.168 0 .281.057.393.113.169.113.282.224.393.393.057.113.112.282.112.506 0 .169-.055.393-.168.563-.113.168-.28.28-.505.393-.113.055-.225.055-.337.055zm3.205.057h-1.742v-2.136h1.742v.282H213.828v.562h1.236v.336h-1.236v.675h.73c.056 0 .113-.056.282-.056h.281zm-3.205-2.135v.337c0-.056-.055-.056-.055-.056h-.562v1.573h.169c.112 0 .28-.056.393-.056h.055v.28c-.11.057-.224.057-.392.057h-.674v-.505c.055-.114.055-.226.055-.338 0-.394 0-.675-.055-.843v-.45h1.066zm-7.528 2.191v-.337c.281 0 .449-.056.617-.224a.86.86 0 0 0 .225-.563c0-.28-.112-.45-.225-.618-.168-.112-.336-.226-.617-.226v-.28h.055c.337 0 .618.112.843.338.28.168.393.448.393.786 0 .337-.113.563-.393.787-.225.224-.506.337-.898.337zm3.595-2.191V209.265c0 .225-.056.393-.112.505 0 .114-.111.226-.225.282-.056.112-.169.112-.28.169-.114 0-.225.056-.394.056a1.04 1.04 0 0 1-.393-.113c-.113 0-.225-.055-.338-.168-.056-.056-.112-.17-.168-.28 0-.114-.056-.282-.056-.507v-1.123h.449V209.546c0 .17.057.224.17.338.112.056.224.056.336.056h.224c.056 0 .114-.056.17-.056.056-.057.111-.114.111-.226.057-.056.057-.168.057-.28v-1.292H207.983zm2.53 0c0 .112-.057.223-.057.28V210.222c-.056-.057-.056-.057-.112-.057h-.225s-.056 0-.112.057c-.057-.112-.113-.225-.17-.281-.055 0-.111-.113-.223-.282l-.113-.112c0-.056-.057-.112-.057-.112-.056-.056-.111-.17-.224-.281a.757.757 0 0 0-.168-.224c-.057-.114-.113-.17-.113-.226l-.169-.168v1.067c.056.225.056.45.056.619-.056 0-.111-.057-.168-.057h-.169c-.056 0-.056.057-.169.057.057-.17.057-.281.057-.394v-1.741h.562c0 .055.113.223.224.392.17.169.394.506.675.9.17.168.17.224.112.168l.113.112V208.703c0-.28-.056-.505-.056-.617h.506zm-7.7.28H201.52v.618h.9c.112-.055.225-.055.337-.055v.336h-1.237v.956c-.056 0-.111-.057-.111-.057h-.169c-.056 0-.113 0-.169.057v-2.135h1.742zm1.575-.337v.28c-.226 0-.394.114-.563.226-.17.168-.225.337-.225.618 0 .225.056.449.225.563.17.168.337.224.563.224v.337c-.337 0-.62-.113-.9-.337-.226-.224-.337-.45-.337-.787 0-.338.111-.618.337-.786.28-.226.563-.338.9-.338M219.898 208.029v.506c0 .112-.056.337-.056.618v.393c0 .17.056.28.056.338v.28h-.45v-2.135c.056.057.112.057.112.057h.225s.057 0 .113-.057zm2.528 0c0 .112 0 .225-.055.338v1.797h-.451c-.056-.112-.112-.168-.168-.224-.056-.056-.112-.17-.226-.282 0-.056-.055-.112-.11-.168 0-.056-.058-.056-.058-.112l-.224-.225a1.251 1.251 0 0 0-.17-.28c-.056-.058-.111-.113-.111-.17a23.684 23.684 0 0 0-.169-.168V209.602c.056.225.056.45.056.562h-.506c.056-.112.056-.224.056-.337V208.029c.058.057.113.057.17.057h.224c.056 0 .113 0 .169-.057.055.112.112.225.28.394.113.224.338.506.619.899.168.224.168.28.112.168.056.056.056.112.113.168v-.955c0-.336 0-.505-.057-.674.113.057.113.057.169.057h.169c.055 0 .113 0 .168-.057M228.44 210.277v-.337a.309.309 0 0 0 .28-.17c.114-.112.17-.336.17-.561a.783.783 0 0 1-.226.17c-.056 0-.169.055-.224.055v-.281a.43.43 0 0 0 .28-.113c.114-.111.17-.225.17-.337a.306.306 0 0 0-.17-.28.432.432 0 0 0-.28-.114v-.28c.28 0 .45.057.617.28.113.17.169.394.169.731 0 .394-.056.675-.224.9-.113.169-.338.28-.562.337zm2.415-.056c-.055 0-.112-.057-.168-.057h-.112c-.056 0-.113.057-.169.057 0-.112.056-.281.056-.45v-1.292c-.056 0-.112.056-.169.056-.112.056-.167.056-.224.112v-.338c.112 0 .168-.055.281-.111.056 0 .169-.057.337-.17h.113V209.603c0 .113 0 .338.055.619zm-2.415-2.192v.28c-.114 0-.225.058-.338.114a.429.429 0 0 0-.113.28c0 .112.057.226.113.337.113.056.224.113.337.113v.281h-.056a.72.72 0 0 1-.562-.225.635.635 0 0 1-.169-.45c0-.224.056-.392.169-.561.168-.112.337-.17.618-.17zm0 1.91v.338h-.114c-.111 0-.224-.056-.337-.056-.111-.057-.168-.057-.281-.112v-.394c.113.112.17.169.28.225.058 0 .17.056.283.056.055 0 .112 0 .169-.056zm-2.024.338v-.337a.307.307 0 0 0 .28-.17c.114-.112.17-.336.17-.561a.797.797 0 0 1-.225.17c-.057 0-.113.055-.225.055v-.281c.112 0 .225-.057.337-.113.057-.111.113-.225.113-.337a.42.42 0 0 0-.113-.28c-.112-.056-.225-.114-.337-.114v-.28c.28 0 .506.057.618.28.169.17.226.394.226.731 0 .394-.114.675-.281.9-.113.169-.338.28-.563.337zm-1.573-.056c-.057 0-.113-.057-.113-.057h-.168c-.056 0-.113.057-.169.057.056-.112.056-.281.056-.45v-1.292c-.056 0-.112.056-.17.056-.055.056-.168.056-.223.112v-.338a.433.433 0 0 0 .281-.111c.056 0 .169-.057.337-.17h.112V209.603c0 .113.057.338.057.619zm1.573-2.192v.28a.43.43 0 0 0-.28.114c-.114.055-.114.168-.114.28 0 .112 0 .226.114.337a.429.429 0 0 0 .28.113v.281h-.056c-.224 0-.394-.056-.506-.225a.511.511 0 0 1-.224-.45c0-.224.056-.392.224-.561.112-.112.337-.17.562-.17zm0 1.91v.338h-.112c-.113 0-.225-.056-.282-.056-.112-.057-.224-.057-.336-.112v-.394c.112.112.224.169.28.225.113 0 .225.056.282.056.056 0 .112 0 .168-.056M179.323 210.39c.506 0 .956-.45.956-.956a.985.985 0 0 0-.956-.956.948.948 0 0 0-.955.956c0 .506.393.955.955.955M250.131 210.39c.506 0 .956-.45.956-.956 0-.505-.45-.956-.956-.956a.948.948 0 0 0-.955.956c0 .506.393.955.955.955M232.43 227.192l-7.25 2.753.337.956 6.519-2.53.955 2.361 1.574-.618c-.843-2.135-1.068-3.37-2.135-2.922M233.61 224.662l-.45-1.179-1.18.45-.505-1.237-1.462.563 1.516 3.933 1.462-.561-.561-1.518 1.18-.45M229.45 224.72l-.448-1.068-2.418.9-.224-.62v2.024c.224-.056.45-.056.674 0 .282.057.45.225.563.449.11.226.055.45-.113.731-.224.281-.45.45-.787.563-.113.055-.225.11-.337.11v1.237c.281-.056.506-.112.786-.224.787-.281 1.406-.731 1.856-1.294.449-.673.617-1.235.392-1.797-.056-.17-.168-.281-.28-.45-.112-.056-.28-.168-.45-.225zm-3.09-.788-.055-.112-1.912.787.281.73-2.473.956.394 1.067.786-.28c-.056.168-.112.337-.112.506-.056.168 0 .337.056.449.226.618.73.955 1.518 1.067.449.113 1.01.057 1.517-.056v-1.237c-.225.058-.45.058-.618 0-.337-.055-.507-.223-.618-.449-.057-.224-.057-.505.168-.73a1.43 1.43 0 0 1 .787-.561.43.43 0 0 1 .281-.113v-2.024M241.364 215.784l-6.18 5.002.673.786 5.339-4.439 3.484 4.159 1.348-1.124-3.146-3.822c-.506-.619-1.125-.842-1.518-.562" style="fill:#254aa5;fill-opacity:1;fill-rule:evenodd;stroke:none;stroke-width:.0352778" transform="matrix(2.4951 0 0 2.4637 -425.977 -357.87)"/><path d="m240.409 220.786 1.292-1.068 1.799 2.135 3.26-2.698.674.787-8.149 6.743-.675-.729 1.406-1.18-1.799-2.136 1.293-1.068 1.798 2.136.9-.786-1.8-2.136M211.018 227.417h2.866l.056-1.069h-4.496v5.06c0 .224.057.448.17.504.112.113.336.169.56.169h4.722l.056-1.124-3.934.056v-3.596" style="fill:#254aa5;fill-opacity:1;fill-rule:evenodd;stroke:none;stroke-width:.0352778" transform="matrix(2.4951 0 0 2.4637 -425.977 -357.87)"/><path d="M217.481 226.463h1.685v8.09h-1.685v-4.888h-.956v4.889h-1.685v-8.091h1.685v2.19h.956v-2.19M187.247 216.233l2.191 1.798.732-.842-3.485-2.81-3.204 3.934a.686.686 0 0 0-.224.505c.056.169.169.282.394.45l3.652 3.035.731-.843-3.09-2.473 2.303-2.754" style="fill:#254aa5;fill-opacity:1;fill-rule:evenodd;stroke:none;stroke-width:.0352778" transform="matrix(2.4951 0 0 2.4637 -425.977 -357.87)"/><path d="m192.867 219.55 1.293 1.067-5.115 6.238-1.348-1.068 3.091-3.765-.731-.562-3.091 3.71-1.293-1.07 5.115-6.237 1.348 1.068-1.405 1.742.73.563 1.406-1.686M196.8 222.584l-.394 1.011 2.024.787a2.152 2.152 0 0 1-.899.843c-.506.168-1.125.168-1.854-.056l-.394 1.067c.562.227 1.18.338 1.798.338.731 0 1.293-.17 1.742-.393.113.45.45.955.9 1.405.45.393 1.01.786 1.63 1.067l.392-1.125c-.674-.336-1.124-.73-1.348-1.18-.225-.392-.225-.786-.169-1.235l2.136.787.393-1.013-5.957-2.303" style="fill:#254aa5;fill-opacity:1;fill-rule:evenodd;stroke:none;stroke-width:.0352778" transform="matrix(2.4951 0 0 2.4637 -425.977 -357.87)"/><path d="m202.813 232.81.338-.785 2.36-6.069-1.46-.563-2.362 6.07-4.945-1.967.675-1.742-1.462-.618-.898 2.304a.81.81 0 0 0-.057.618c.113.168.281.281.507.394l7.136 2.809.168-.45M175.277 200.948l3.933-.786-.562-2.81v-.056c0-.056 0-.056-.054-.056-.283-1.687-.957-2.586-1.968-2.698-.506-.113-.955-.113-1.349-.113v1.406a3.436 3.436 0 0 1 1.293.055c.562.056.955.562 1.123 1.462l.282 1.572-2.698.506zm-1.067-6.462c-.731.112-1.405.45-2.024 1.012-.674.506-.843 1.516-.561 3.033l.56 2.979 3.092-.562v-1.518l-2.417.506-.28-1.292c-.169-1.068-.056-1.742.393-2.08a5.238 5.238 0 0 1 1.799-.618c.055 0 .112 0 .168-.056.056 0 .112 0 .168-.055h.17v-1.406a3.13 3.13 0 0 0-1.068.057" style="fill:#254aa5;fill-opacity:1;fill-rule:evenodd;stroke:none;stroke-width:.0352778" transform="matrix(2.4951 0 0 2.4637 -425.977 -357.87)"/><path d="M174.21 194.486c-.731.112-1.405.45-2.024 1.012-.674.506-.843 1.516-.561 3.033l.56 2.979 7.025-1.348-.562-2.81v-.056c0-.056 0-.056-.054-.056-.283-1.687-.957-2.586-1.968-2.698-1.068-.168-1.854-.168-2.416-.056zm.898 1.35c.394-.058.9-.058 1.462.054.562.056.955.562 1.123 1.462l.282 1.572-5.115 1.012-.28-1.292c-.169-1.068-.056-1.742.393-2.08a5.238 5.238 0 0 1 1.799-.618c.055 0 .112 0 .168-.056.056 0 .112 0 .168-.055M178.087 183.583l-4.608 1.517v1.461l1.573-.448-.112 2.078-1.461-.561v1.46l4.214 1.911.058-1.573-1.912-.787.169-2.866 1.967-.618zm-4.608 1.517-2.642.844-.112 1.854 2.754 1.292v-1.46l-1.517-.62 1.517-.449v-1.46" style="fill:#254aa5;fill-opacity:1;fill-rule:evenodd;stroke:none;stroke-width:.0352778" transform="matrix(2.4951 0 0 2.4637 -425.977 -357.87)"/><path d="m178.087 183.583-7.25 2.361-.112 1.854 6.968 3.203.058-1.573-1.912-.787.169-2.866 1.967-.618zm-3.035 2.53-.112 2.078-2.978-1.18 3.09-.898M174.658 173.355l-.842-.28-1.742 5.114 6.742 2.247 1.688-5.001-.9-.337-1.179 3.652-2.248-.73 1.123-3.485-.843-.28-1.18 3.427-1.854-.618 1.235-3.709M182.245 166.725l-4.214-2.304-.675 1.236 4.664 2.528c.395.226.563.506.563.731 0 .224-.057.506-.225.73-.225.45-.506.618-.73.507-.281-.112-.62-.282-1.068-.507l-.73 1.293c.111.056.168.112.28.169.056 0 .113.056.169.056.562.337 1.068.393 1.517.28.506-.111.955-.56 1.46-1.403 0-.058 0-.058.057-.113 0-.057 0-.057.057-.113.448-.899.562-1.573.281-1.967a4.938 4.938 0 0 0-1.406-1.123M187.36 164.196l-5.34-4.722-.899 1.07 5.283 4.72.956-1.068M195.227 157.509l-4.27-5.677-1.124.9 3.428 4.551-5.734-2.865-1.684 1.291 4.27 5.676 1.18-.841-3.54-4.666 5.731 2.979 1.743-1.348M208.433 150.764l-1.405-5.114-1.404.394 1.348 4.665c.112.505.056.899-.112 1.18-.17.28-.562.562-1.18.73-.507.113-.9.169-1.237.056-.392-.112-.618-.393-.73-.843l-1.406-4.888-1.405.393 1.405 4.888c.17.619.506 1.124 1.012 1.406.506.28 1.405.224 2.754-.169 1.292-.393 2.079-.843 2.247-1.349.17-.562.226-1.012.113-1.349M219.11 152.337v-7.08h-1.461v5.677l-2.81-5.677h-2.136v7.08h1.462v-5.788l2.81 5.788h2.135M223.943 153.63l2.08-6.799-1.405-.394-2.023 6.8 1.348.394M236.362 150.428l-1.347-.563-4.44 4.665.394-6.406-1.35-.563-.225 7.643 1.461.618 5.507-5.394M244.006 157.17l.618-.673-4.046-3.54-4.721 5.338 3.991 3.484.617-.73-2.866-2.473 1.517-1.799 2.754 2.418.618-.732-2.753-2.36 1.292-1.517 2.98 2.585M248.277 168.073a.682.682 0 0 0 .281-.281 1.24 1.24 0 0 0 .224-.73c-.056-.226-.112-.45-.224-.675a2.45 2.45 0 0 0 1.067.394c.394.055.731-.056 1.012-.281 0 0 0-.055.056-.055v-.058c.562-.56.731-1.18.45-1.798-.226-.674-.619-1.236-1.068-1.798l-1.798-2.137v1.518h.057l.898 1.068c.393.45.619.843.674 1.123.056.338 0 .619-.225.9l-.056.056c-.056.057-.056.057-.056.112-.28.169-.562.226-.899.113-.112 0-.226-.055-.393-.168zm-1.35 2.022.338-.28c-.225-.224-.112-.562.337-.956.28-.28.506-.562.675-.786v-2.697a2.668 2.668 0 0 1-.562-.562l-1.068-1.237 1.63-1.405v-1.518l-.17-.168-5.45 4.552.955 1.068 2.304-1.968 1.18 1.406c.73.843.73 1.461.057 1.855-.675.337-1.069.843-1.237 1.517l1.012 1.18" style="fill:#254aa5;fill-opacity:1;fill-rule:evenodd;stroke:none;stroke-width:.0352778" transform="matrix(2.4951 0 0 2.4637 -425.977 -357.87)"/><path d="m246.928 170.095.337-.28c-.225-.224-.112-.562.337-.956.393-.448.732-.786.956-1.067a1.24 1.24 0 0 0 .224-.73c-.056-.226-.112-.45-.224-.675a2.45 2.45 0 0 0 1.067.394c.394.055.731-.056 1.012-.281 0 0 0-.055.056-.055v-.058c.562-.56.731-1.18.45-1.798-.226-.674-.619-1.236-1.068-1.798l-1.967-2.305-5.451 4.552.955 1.068 2.304-1.968 1.18 1.406c.73.843.73 1.461.057 1.855-.675.337-1.069.843-1.237 1.517zm2.641-4.664c-.28.169-.562.226-.899.113-.28-.056-.617-.336-.955-.73l-1.068-1.237 1.687-1.405.898 1.068c.393.45.619.843.674 1.123.056.338 0 .619-.225.9l-.056.055c-.055.058-.055.058-.055.113M252.098 178.02c1.124-.338 1.462-1.293 1.068-2.81-.45-1.518-.225-2.415.505-2.642.226-.055.507 0 .787.169s.506.506.675 1.013c.112.393.112.73.056 1.067-.113.337-.394.562-.787.674l.393 1.405c.338-.112.73-.393 1.18-.787.45-.393.45-1.292.056-2.641-.337-1.124-.786-1.798-1.293-2.08-.56-.28-1.01-.337-1.403-.224-.056.055-.112.055-.169.055-.057 0-.112.058-.169.058-.168.056-.393.224-.618.449-.226.225-.336.673-.336 1.349.055.393.055.842.055 1.235 0 .45.055.788.055 1.125.057.45 0 .73-.11.843-.113.167-.281.225-.451.28 0 0-.057 0-.057.057h-.111a.981.981 0 0 1-.955-.17c-.282-.224-.45-.56-.618-1.01-.282-.9-.226-1.463.11-1.685a6.34 6.34 0 0 1 1.068-.563l-.392-1.292c-.675.225-1.237.561-1.686 1.011-.393.45-.393 1.404 0 2.81.225.73.618 1.348 1.068 1.91.505.506 1.18.674 2.08.393M251.535 183.639l7.026-1.067-.226-1.461-7.024 1.124.224 1.404M257.661 192.968l1.013.056.224-6.518h-1.01l-.057 2.529-6.126-.169-.057 1.405 6.126.225-.113 2.472M256.65 203.927l.338-1.518-2.754-2.754 3.653-1.348.337-1.574-4.945 2.023-2.642-.618-.337 1.406 2.641.618 3.71 3.765" style="fill:#254aa5;fill-opacity:1;fill-rule:evenodd;stroke:none;stroke-width:.0352778" transform="matrix(2.4951 0 0 2.4637 -425.977 -357.87)"/></svg>