<svg xmlns="http://www.w3.org/2000/svg" width="160.90703mm" height="160.90552mm" viewBox="0 0 160.90703 160.90552"><path d="M0 0s-5.184-3.439-8.94 0c1.792 6.523 2.682 13.221 2.682 20.287 0 23.725-10.553 44.736-27 59.227 1.075 4.89 6.794 5.613 6.794 5.613 12.875.361 15.737-20.824 15.737-20.824C-8.402 50.895-6.258 44.74-6.258 44.74s1.611-6.156 7.33-18.654c0 0 9.655-19.022-1.072-26.086m-18.415-34.955c-11.983-6.518-16.982-10.688-16.982-10.688s-5.192-3.623-14.845-13.037c0 0-14.655-15.574-24.671-7.609 0 0-4.648 3.441-2.684 7.973l.179.541C-47.382-55.24-22.171-35.5-11.619-8.51c5.004.723 7.512-4.709 7.512-4.709C.355-25.176-18.415-34.955-18.415-34.955m-65.15-20.305c-41.141 0-74.495 33.787-74.495 75.467 0 41.682 33.354 75.469 74.495 75.469 41.15 0 74.504-33.787 74.504-75.469 0-41.68-33.354-75.467-74.504-75.467m-6.192-10.847c-10.011-8.147-25.029 6.882-25.029 6.882-9.834 9.422-15.196 12.864-15.196 12.864s-5.009 3.98-17.163 10.14c0 0-19.134 9.237-14.841 21.369 0 0 1.789 5.618 6.793 5.256l.718-.547c11.086-26.8 36.648-46.005 66.685-47.632h.357c2.149-4.526-2.324-8.332-2.324-8.332M-166.99.363c-10.727 7.248-.895 26.08-.895 26.08 5.899 12.502 7.51 18.659 7.51 18.659s2.324 5.974 4.645 19.556c0 0 3.039 21.192 15.917 20.647 0 0 5.718-.178 6.793-5.067v-.181c-16.981-14.309-27.535-35.682-27.535-59.77 0-7.066.532-13.223 2.323-19.56l-.18-.364c-3.574-3.256-8.578 0-8.578 0m38.972 94.002c3.398 12.496 24.317 8.873 24.317 8.873 13.409-1.808 19.667-1.627 19.667-1.627s6.437-.181 19.848 1.627c0 0 20.74 3.623 24.137-8.873 0 0 1.68-5.322-2.198-7.941l.054-.029-.363-.182c.116.064.207.141.309.211-11.97 7.588-26.069 11.928-41.25 11.928-15.374 0-29.679-4.53-41.66-12.319l-.359.18c-4.285 2.533-2.502 8.152-2.502 8.152M11.799 50.539C7.327 65.023-.535 77.342-10.548 86.938h.181c-5.367 5.074-12.877 7.066-20.206 4.71-.715-.179-1.429-.544-1.967-.724l-.541-.545c.183.725.183 1.453.183 1.99 0 7.789-4.292 14.492-10.37 17.934l-.357.181c-11.801 6.518-25.566 10.504-40.409 10.504-15.016 0-28.962-3.986-40.766-10.685h-.357c-6.078-3.442-10.371-10.145-10.371-17.934l-.178-.9h-.182c-7.32 2.353-14.835.363-20.023-4.531l-.177-.18c-10.013-9.416-17.695-21.553-22.346-35.682-4.649-14.484-5.368-29.156-2.681-42.738v-.184c1.248-7.062 6.258-13.041 13.588-15.578.709-.183 1.426-.363 2.143-.547l-1.254-1.263c-4.467-6.157-4.645-14.127-1.606-20.645l.179-.184c5.897-12.318 15.196-23.546 27.179-32.058 12.333-8.69 25.92-13.766 39.506-15.211 7.152-.727 14.307 2.352 18.778 8.51.179.361.179.543.541.906l.354-1.088c4.471-6.156 11.802-8.873 18.771-7.973h.36c13.411 1.817 26.818 7.065 38.622 15.944 12.153 9.056 21.095 20.648 26.639 33.326l.175-.184C5.715-21.383 5.185-13.426.732-7.271 7.85-4.826 12.72 1.213 14.12 7.973v.365c2.689 13.4 2.151 28.074-2.321 42.201" style="fill:#981b45;fill-opacity:1;fill-rule:nonzero;stroke:none" transform="matrix(.81091 0 0 -.81091 148.133 98.11)"/><path d="M0 0v3.031h-8.01V-8.412h7.932v3.031h-4.984V0Z" style="fill:#981b45;fill-opacity:1;fill-rule:nonzero;stroke:none" transform="matrix(.81091 0 0 -.81091 57.029 122.9)"/><path d="M0 0v-4.035h-3.906v-3.029H0v-4.014h2.99V0Z" style="fill:#981b45;fill-opacity:1;fill-rule:nonzero;stroke:none" transform="matrix(.81091 0 0 -.81091 63.215 120.59)"/><path d="M0 0h-2.713v8.166h-7.992v2.805H0Z" style="fill:#981b45;fill-opacity:1;fill-rule:nonzero;stroke:none" transform="matrix(.81091 0 0 -.81091 77.868 129.53)"/><path d="m0 0-2.197-1.719-4.013 6.59-4.018-6.588L-12.408 0l6.211 9.736Z" style="fill:#981b45;fill-opacity:1;fill-rule:nonzero;stroke:none" transform="matrix(.81091 0 0 -.81091 91.674 128.44)"/><path d="M0 0v-4.123h-4.399V-7.15H0v-3.782h2.992V0Z" style="fill:#981b45;fill-opacity:1;fill-rule:nonzero;stroke:none" transform="matrix(.81091 0 0 -.81091 97.087 120.649)"/><path d="M0 0c0 1.355 1.085 2.457 2.426 2.457 1.335 0 2.426-1.102 2.426-2.457 0-1.355-1.091-2.455-2.426-2.455C1.085-2.455 0-1.355 0 0m-2.989 0c0-3.029 2.428-5.484 5.415-5.484C5.41-5.484 7.835-3.029 7.835 0c0 3.023-2.425 5.482-5.409 5.482-2.987 0-5.415-2.459-5.415-5.482" style="fill:#981b45;fill-opacity:1;fill-rule:nonzero;stroke:none" transform="matrix(.81091 0 0 -.81091 105.235 125.082)"/><path d="M0 0v-2.051h9.485V0H4.743Z" style="fill:#981b45;fill-opacity:1;fill-rule:nonzero;stroke:none" transform="matrix(.81091 0 0 -.81091 76.607 48.263)"/><path d="M49.002 188.449h-1.17v3.073h1.17zM53.758 188.449h-1.17v3.073h1.17zM50.275 173.88h1.04v-.726h-1.04zM81.678 188.449h-1.17v3.073h1.17zM76.92 188.449h-1.17v3.073h1.17zM78.194 173.88h1.04v-.726h-1.04z" style="fill:#981b45;fill-opacity:1;fill-rule:nonzero;stroke:none;stroke-width:.352778" transform="matrix(2.29866 0 0 2.29866 -68.395 -348.919)"/><path d="M0 0h-4.283v3.48h-3.316V0h-10.168v3.48h-3.317V0h-4.282v7.314H0Zm0-5.232h-25.366v3.615H0Zm0-19.786c-1.16.997-3.059 2.039-5.941 2.039-3.704 0-5.768-1.71-6.742-2.839-.969 1.129-3.034 2.839-6.74 2.839-2.885 0-4.783-1.042-5.943-2.041v18.182H0Zm0-21.773h-5.175v18.82H0Zm-10.977 20.437c.912.819 2.508 1.76 5.036 1.76 2.531 0 4.123-.941 5.033-1.76zm4.207-20.437h-5.114v18.82h5.114zm-6.709 0H-18.6v18.82h5.121zm-10.979 20.437c.913.819 2.507 1.76 5.035 1.76s4.123-.941 5.036-1.76zm4.265-20.437h-5.173v18.82h5.173zm-13.227 0v25.408h-2.832v14.545h2.644v-8.68h.004c.059-2.043 1.707-3.677 3.737-3.677 1.174 0 2.218.547 2.903 1.404v-29zm-4.43 0H-66.657v39.953h3.16v-8.285a3.69 3.69 0 0 1-.02-.397c0-2.091 1.676-3.789 3.743-3.789 2.066 0 3.74 1.698 3.74 3.789v.002h.039v8.68h7.48v-8.68h.041v-.002c0-2.091 1.674-3.789 3.74-3.789 2.066 0 3.743 1.698 3.743 3.789 0 .135-.006.268-.019.397v8.285h3.16zm-39.695 29a3.71 3.71 0 0 1 2.904-1.404c2.031 0 3.677 1.634 3.736 3.677h.006v8.68h2.645v-14.545h-2.832v-25.408h-6.459zM-79.143 0h-4.282v3.48h-3.317V0h-10.165v3.48h-3.318V0h-4.284v7.314h25.366zm0-5.428-25.366.205v3.606h25.366zm0-19.592c-1.16.999-3.059 2.041-5.943 2.041-3.702 0-5.768-1.71-6.741-2.839-.971 1.129-3.035 2.839-6.738 2.839-2.884 0-4.783-1.042-5.944-2.039v18.18h25.366zm0-21.771h-5.17v18.82h5.17zM-90.12-26.354c.912.819 2.507 1.76 5.034 1.76 2.53 0 4.125-.941 5.035-1.76zm4.211-20.437h-5.119v18.82h5.119zm-6.715 0h-5.113v18.82h5.113zM-103.6-26.354c.911.819 2.505 1.76 5.035 1.76 2.527 0 4.123-.941 5.033-1.76zm4.267-20.437h-5.176v18.82h5.176zm5.801 55.723H-103.6c.912.82 2.505 1.759 5.035 1.759 2.527 0 4.123-.939 5.033-1.759m13.481 0H-90.12c.912.82 2.507 1.759 5.034 1.759 2.53 0 4.122-.939 5.035-1.759m.908 10.189v-8.855c-1.16.996-3.059 2.043-5.943 2.043-3.702 0-5.768-1.711-6.741-2.84-.971 1.129-3.035 2.84-6.738 2.84-2.884 0-4.783-1.045-5.944-2.041v8.853zm-25.366 6.018h25.366v-4.367h-25.366zm9.653 9.744h6.063c2.579-2.485 6.189-5.953 8.451-8.127h-22.966c1.925 1.849 5.733 5.512 8.452 8.127m23.487-9.744V12.076h-3.272a3.71 3.71 0 0 1-2.904-1.404v14.467zm8.296 20.99h21.64c.375-.527 10.005-14.135 13.714-19.373h-5.824l-10.796 14.252H-60.169l-10.795-14.252h-5.824c3.708 5.238 13.34 18.846 13.715 19.373m36.109-35.457a3.705 3.705 0 0 1-2.903 1.404h-3.273v13.063h6.176zm-14.046-5.33h6.275V-5.156h-6.275ZM-63.497-5.156h-6.277V5.342h6.277zm2.924 17.232h-9.201v13.063h9.201zm0 14.68h-8.381c1.833 2.416 6.24 8.234 8.381 11.06zm8.319-1.617h6.725V12.076h-2.986v5.619c0 2.092-1.673 3.789-3.739 3.789-2.067 0-3.741-1.697-3.741-3.789v-5.619h-2.983v13.063zm6.725 1.617h-13.449v12.635h13.449zm-6.725-31.912h-3.741V5.342h7.48V-5.156Zm8.32 31.912v11.06c2.141-2.826 6.549-8.644 8.376-11.06zm9.2-14.68h-9.199v13.063h9.199zm20.347-3.144h-10.069c.913.82 2.505 1.759 5.033 1.759 2.528 0 4.122-.939 5.036-1.759m13.479 0h-10.069c.914.82 2.508 1.759 5.036 1.759 2.529 0 4.121-.939 5.033-1.759M0 19.121v-8.853c-1.16.996-3.059 2.041-5.941 2.041-3.704 0-5.768-1.711-6.742-2.84-.969 1.129-3.034 2.84-6.74 2.84-2.885 0-4.783-1.047-5.943-2.043v8.855zm-25.366 6.018H0v-4.367h-25.366zm9.652 9.744h6.064c2.717-2.615 6.526-6.278 8.449-8.127h-22.966a6973.86 6973.86 0 0 1 8.453 8.127m7.278 1.062v4.254h-3.115v5.016h-2.262v-5.016h-3.061v-4.201l-9.176-8.826-14.564 20.574h-.005v2.551h-3.192v1.92h-4.759v-1.92h-2.575v6.168H-53.364v-6.168h-2.574v1.92h-4.758v-1.92h-3.194v-2.551h-.006l-14.562-20.574-9.177 8.826v4.201h-3.059v5.016h-2.264v-5.016h-3.111v-4.254l-10.036-9.65v-74.703H1.598v74.703z" style="fill:#981b45;fill-opacity:1;fill-rule:nonzero;stroke:none" transform="matrix(.81091 0 0 -.81091 122.827 74.497)"/><path d="M0 0h-13.448v15.143c.412 6.414 6.427 6.203 6.684 6.191l.039.785.038-.785c.258.012 6.275.223 6.687-6.242zm-6.725 22.951c-.598.014-7.821.026-8.317-7.756l-.002-16.812h16.64v16.76c-.499 7.83-7.721 7.822-8.321 7.808" style="fill:#981b45;fill-opacity:1;fill-rule:nonzero;stroke:none" transform="matrix(.81091 0 0 -.81091 85.906 108.802)"/></svg>