<svg xmlns="http://www.w3.org/2000/svg" width="140.08188mm" height="140.08403mm" viewBox="0 0 140.08188 140.08403"><path d="m-268.096 15.934-.013-.045-.013-.048a22.89 22.89 0 0 1-.38-1.642c-.26.006-.524.01-.795.01 0 0 .005.639.237 1.676l.01.046.01.044.054.224c.544 2.17 2.042 5.76 6.157 8.944a21.297 21.297 0 0 1-5.203-8.983l-.064-.226" style="fill:#2056ae;fill-opacity:1;fill-rule:nonzero;stroke:none;stroke-width:.0352778" transform="translate(1137.077 .302) scale(4.09184)"/><path d="M-269.458 16.207c-.229.003-.458.007-.694.007 0 0 .226 4.962 6.996 9.137-4.115-3.239-5.696-6.848-6.302-9.144" style="fill:#2056ae;fill-opacity:1;fill-rule:nonzero;stroke:none;stroke-width:.0352778" transform="translate(1137.077 .302) scale(4.09184)"/><path d="M-260.611 26.944c-.042.025-.083.052-.125.076l-.016-.008-.018.008h-.002c-9.741-4.642-9.958-11.106-9.958-11.106.409 0 .807-.006 1.193-.016-.3-1.253-.3-2.043-.3-2.043.438 0 .86-.01 1.269-.026-.407-2.359-.28-3.942-.28-3.942 5.627 0 8.076-1.873 8.076-1.873s2.45 1.873 8.077 1.873c0 0 .128 1.583-.28 3.941.41.016.83.027 1.27.027 0 0 .006.79-.285 2.045.382.01.775.014 1.177.014 0 0-.214 6.393-9.798 11.03zm-.161-21.445c-6.376 0-11.543 5.17-11.543 11.545s5.167 11.543 11.543 11.543c6.376 0 11.546-5.168 11.546-11.543 0-6.375-5.17-11.545-11.546-11.545" style="fill:#2056ae;fill-opacity:1;fill-rule:nonzero;stroke:none;stroke-width:.0352778" transform="translate(1137.077 .302) scale(4.09184)"/><path d="M-252.54 16.199c.019-.076.036-.151.052-.222l.01-.044.01-.046c.224-1.039.222-1.679.222-1.679-.271 0-.535-.003-.795-.01a22.207 22.207 0 0 1-.38 1.643l-.013.048-.012.045-.064.226a21.308 21.308 0 0 1-5.404 9.19c4.315-3.235 5.837-6.934 6.376-9.151" style="fill:#2056ae;fill-opacity:1;fill-rule:nonzero;stroke:none;stroke-width:.0352778" transform="translate(1137.077 .302) scale(4.09184)"/><path d="M-252.065 16.207c-.578 2.252-2.084 5.762-6.012 8.952 6.47-4.133 6.686-8.945 6.686-8.945-.23 0-.452-.004-.674-.007" style="fill:#2056ae;fill-opacity:1;fill-rule:nonzero;stroke:none;stroke-width:.0352778" transform="translate(1137.077 .302) scale(4.09184)"/><path d="M-260.772 33.799c-9.24 0-16.756-7.516-16.756-16.756 0-9.239 7.517-16.755 16.756-16.755 9.238 0 16.754 7.516 16.754 16.755 0 9.24-7.516 16.756-16.754 16.756zm0-33.873c-9.438 0-17.117 7.677-17.117 17.117 0 9.44 7.68 17.118 17.117 17.118 9.44 0 17.118-7.678 17.118-17.118 0-9.44-7.678-17.117-17.118-17.117" style="fill:#2056ae;fill-opacity:1;fill-rule:nonzero;stroke:none;stroke-width:.0352778" transform="translate(1137.077 .302) scale(4.09184)"/><path d="M-272.905 23.752a.612.612 0 0 0-.612.616.613.613 0 1 0 1.227 0 .615.615 0 0 0-.615-.616M-248.609 23.752a.618.618 0 0 0-.617.616.616.616 0 1 0 .617-.616M-273.113 20.6c-.176-.675-.668-.933-1.45-.73-.784.206-1.06.667-.884 1.34l.075.287 2.334-.611zm-2.53 1.496-.214-.814c-.252-.965.137-1.655 1.161-1.923 1.02-.267 1.727.136 1.973 1.075l.22.84-3.14.822M-274.84 16.352c-.762.01-1.22.37-1.212.909.008.538.476.88 1.24.868.762-.011 1.242-.367 1.234-.905-.008-.538-.498-.884-1.261-.872zm.035 2.302c-1.046.016-1.68-.553-1.693-1.387-.012-.834.606-1.425 1.651-1.44 1.045-.016 1.702.557 1.715 1.39.012.834-.628 1.422-1.673 1.437M-276.29 14.555l.12-.51 2.103-.61.748-.17.005-.022c-.332-.052-.723-.104-1.067-.185l-1.472-.349.112-.471 3.16.747-.121.51-2.112.607-.739.174-.005.022c.332.052.707.1 1.05.18l1.49.353-.112.473-3.16-.749M-273.857 11.776c-.943-.482-1.211-1.352-.82-2.118.21-.409.53-.592.806-.674l.164.396a.878.878 0 0 0-.565.465c-.275.538-.041 1.108.638 1.455.687.352 1.27.25 1.576-.349.09-.175.13-.38.091-.527l-.679-.348-.293.574-.373-.191.503-.986 1.253.64c.095.292.073.691-.13 1.089-.395.774-1.224 1.058-2.171.574M-272.281 8.879c-.806-.688-.865-1.597-.306-2.252.297-.35.652-.452.939-.468l.068.423a.876.876 0 0 0-.657.321c-.393.46-.297 1.069.283 1.565.588.5 1.18.535 1.615.025.128-.15.214-.339.211-.492l-.58-.495-.419.49-.319-.273.719-.842 1.071.914c.024.304-.09.689-.38 1.028-.563.662-1.436.746-2.245.056M-268.687 5.756l-.365-.273c-.301-.215-.597-.445-.898-.676l-.014.01c.15.353.283.699.412 1.045l.157.428zm.341.246-.902.68.337.908-.416.314-1.098-3.242.472-.356 2.818 1.943-.434.327-.777-.574M-268.232 3.172l.48-.214 1.76 1.297.592.49.02-.01c-.161-.294-.358-.636-.502-.958l-.62-1.381.444-.198 1.328 2.963-.48.214-1.764-1.307-.588-.48-.02.008c.161.295.35.621.495.944l.626 1.395-.443.2-1.328-2.963M-264.54 3.41c-.19-1.042.338-1.784 1.185-1.939.45-.083.792.061 1.024.23l-.215.371a.877.877 0 0 0-.712-.166c-.595.109-.906.641-.769 1.392.139.76.575 1.16 1.236 1.04.195-.036.38-.128.475-.249l-.138-.751-.633.116-.076-.412 1.09-.2.253 1.386c-.174.252-.505.477-.944.558-.855.156-1.585-.33-1.776-1.376M-260.09 3.132l.244-1.838.507.067-.247 1.873c-.097.726.16 1 .563 1.054.407.054.735-.143.832-.87l.248-1.871.49.064-.243 1.837c-.14 1.05-.672 1.376-1.385 1.282-.713-.095-1.147-.548-1.008-1.598M-256.044 1.979l.489.194.298 2.169.062.765.02.008c.1-.322.207-.701.337-1.03l.558-1.406.451.178-1.197 3.019-.487-.194-.296-2.176-.065-.758-.02-.007c-.1.322-.201.685-.331 1.012l-.564 1.425-.451-.18 1.196-3.019M-252.713 3.507l.436.269-1.704 2.765-.436-.268 1.704-2.766M-251.592 4.175l.414.351-.718 1.594c-.154.354-.306.642-.46 1.003l.016.014c.327-.216.592-.407.913-.622l1.452-.974.397.337-2.87 1.825-.462-.39 1.318-3.138M-248.97 6.564l1.195 1.505-.336.266-.875-1.103-.709.563.741.933-.339.268-.74-.933-.823.654.905 1.14-.338.269-1.224-1.54 2.544-2.022M-248.243 10.268l.218.438c.21.422.498.564.85.39.351-.175.36-.465.15-.887l-.218-.44zm-.978 1.895.844-1.243-.233-.47-1.173.584-.228-.459 2.907-1.446.474.952c.298.601.31 1.157-.32 1.47-.45.223-.838.116-1.135-.194l-.878 1.324-.258-.518M-248.547 12.66l.417.202c-.167.285-.232.63-.153.933.1.38.334.547.6.479.285-.075.32-.312.371-.636l.075-.484c.05-.337.2-.737.657-.856.496-.128.981.21 1.137.808.096.367.031.753-.15 1.055l-.383-.178c.124-.241.174-.488.101-.765-.083-.32-.292-.49-.544-.424-.269.07-.305.349-.341.632l-.071.479c-.061.413-.222.742-.683.863-.504.131-1.023-.18-1.203-.869a1.62 1.62 0 0 1 .17-1.239M-245.119 15.166l.052.51-3.232.33-.052-.51 3.232-.33M-245.448 17.537l.047-.952.427.022-.12 2.419-.426-.023.047-.956-2.815-.138.025-.51 2.815.138M-247.352 20.01l2.19-.475-.13.532-.924.163c-.26.041-.5.079-.767.128l-.004.017c.216.161.41.317.622.468l.748.572-.126.518-1.73-1.426-1.196-.29.12-.497 1.197.29M-269.516 29.6c.117-.152-.03-.376-.42-.675-.39-.3-.644-.384-.76-.231-.118.152.031.372.422.672.39.299.641.386.758.234zm1.522-.446-.256.333-2.643-2.029.256-.332 1.11.851.185-.24-.79-.607.774-1.01 2.006 1.54-.256.334-1.59-1.22-.263.343 1.606 1.231-.256.333-.812-.623-.185.241zm-1.097.772c-.263.343-.795.241-1.427-.243-.63-.484-.864-.97-.6-1.313.265-.346.795-.247 1.426.237.631.485.866.973.601 1.319M-263.38 30.031l-.14.413-.462-.158-.269.787-.5-.17.69-2.017.5.17-.28.817zm-1.585 1.647c.074-.215-.142-.412-.566-.557-.423-.144-.714-.121-.788.095-.074.215.142.412.566.556.424.145.715.122.788-.094zm.492.168c-.15.439-.709.556-1.413.315-.704-.24-1.074-.675-.925-1.113.15-.436.71-.556 1.414-.316.703.24 1.073.68.924 1.114zm-.125-2.886c-.32.939-1.124 1.387-2.25 1.322l-.065-.47c.83.056 1.393-.19 1.63-.642l-1.1-.376.136-.397 1.649.563M-259.25 29.344l-.071 3.686-.5-.01.036-1.843-.332-.006-.032 1.67-.492-.008.066-3.442.492.01-.027 1.346.333.007.027-1.42zm-2.581 2.374a6.218 6.218 0 0 0 1.009-.073l.031.43c-.449.074-.84.083-1.313.074l-.255-.005.047-2.43 1.362.025-.008.428-.844-.016-.03 1.567M-254.743 29.46l-.463.153.292.877-.502.166-.728-2.19.501-.166.3.9.462-.155zm-2.455 1.949 2.332-.775.387 1.166-.501.166-.254-.763-1.83.608zm.404-.817c.224-.074.35-.213.291-.391-.058-.175-.243-.211-.467-.136-.228.076-.35.213-.292.387.06.179.24.216.468.14zm.126.38c-.5.166-.945.024-1.073-.36-.125-.38.144-.76.645-.927.504-.168.945-.024 1.071.356.128.384-.138.763-.643.931zm.564-1.739-2.057.684-.132-.395.775-.257-.109-.327.506-.167.108.326.778-.259.131.395M-250.235 28.065l.255.339-2.66 2.008-.256-.338.558-.421-.7-.929.414-.313.7.928.313-.236-.701-.928.412-.31.701.928zm-1.06.184a8.256 8.256 0 0 0-.857-1.342l-1.738 1.314-.253-.336 2.16-1.63.214.283c.272.36.578.766.927 1.434l-.453.277M-258.937 20.522h-.001l-.01.042a.83.83 0 0 1-.037.122l-.01.03-.01.022-.012.024.43.187.028.013a1.73 1.73 0 0 0 .194-.214l-.022-.009-.55-.217M-261.174 24.444a.11.11 0 0 0-.09.043.185.185 0 0 0-.034.115l.01.066.024.048.025.02.065.024a.107.107 0 0 0 .09-.044v-.002l.028-.07.006-.042a.178.178 0 0 0-.035-.114.108.108 0 0 0-.09-.044M-259.029 20.783a.534.534 0 0 1-.171.164l-.016.01-.033.02.36.202.035.019a2.28 2.28 0 0 0 .287-.229l-.03-.012-.432-.174M-260.188 21.84c0-.003-.043.062-.133.073l-.147-.006c-.084-.006-.184-.014-.301-.013h-.004c-.118-.001-.219.007-.302.013l-.147.006c-.09-.011-.133-.076-.133-.073-.017-.086-.1-.19-.169-.263.036.019.07.038.1.058l.057.043c.071.069.152.084.168.084a1.3 1.3 0 0 1 .425-.035h.004a1.3 1.3 0 0 1 .426.035.294.294 0 0 0 .167-.084.561.561 0 0 1 .102-.071l.055-.03c-.069.074-.152.177-.168.263zm.92-.855a.95.95 0 0 1-.442.068s-.21.102-.279.306l-.015.068-.008.055s-.173-.246-.106-.573c0 0-.204.17-.246.252 0 0-.04-.116-.406-.116h-.001c-.367 0-.407.116-.407.116-.033-.066-.174-.19-.225-.234l-.02-.018a.749.749 0 0 1-.003.312c-.033.159-.104.261-.104.261-.004-.288-.302-.43-.302-.43a.95.95 0 0 1-.442-.067l-.363.188-.049.026c.044.03.09.06.139.089 0 0 1.776.845 1.776 1.363l.01-.064.008-.024c.172-.52 1.758-1.275 1.758-1.275a2.84 2.84 0 0 0 .14-.09l-.036-.017-.376-.196M-259.764 24.742a.107.107 0 0 0-.08-.035l-.018.004-.071.04a.175.175 0 0 0-.035.114l.003.02a.178.178 0 0 0 .032.093l.025.021.064.024a.108.108 0 0 0 .09-.043l.001-.002.027-.073.006-.04a.182.182 0 0 0-.034-.114l-.01-.009M-259.463 17.99c.075 0 .136-.055.137-.122v-.002c0-.067-.061-.124-.137-.124a.14.14 0 0 0-.125.073l-.013.05c0 .07.062.125.138.125M-262.092 18.014c.075 0 .137-.055.138-.123v-.001c0-.068-.062-.124-.138-.124a.138.138 0 0 0-.125.074l-.012.05c0 .069.061.124.137.124" style="fill:#2056ae;fill-opacity:1;fill-rule:nonzero;stroke:none;stroke-width:.0352778" transform="translate(1137.077 .302) scale(4.09184)"/><path d="M-259.183 18.17c.224-.119.303-.354.33-.477a.498.498 0 0 0 .013-.081l.002-.017-.05.036c-.062.04-.089.061-.2.098l-.037.012c.027.034.042.058.042.166v.003c-.023.16-.19.243-.34.255-.205 0-.304-.075-.32-.219l.009-.035a.249.249 0 0 0-.104.067c-.021.028-.028.065-.041.1l-.022.043c.213.174.547.127.717.05M-262.372 18.193c.17.079.504.126.716-.048l-.015-.03c-.017-.04-.023-.082-.047-.114a.226.226 0 0 0-.087-.058l-.017-.009.01.036-.005.015c-.02.134-.119.205-.315.205-.15-.013-.318-.097-.34-.256 0-.07.005-.104.016-.13l.025-.039-.015-.005c-.13-.041-.157-.062-.223-.105l-.028-.02-.02-.016.001.016c0 .02.039.397.343.558M-265.482 12.453c-.075 0-.14.03-.197.088a.324.324 0 0 0-.088.23c0 .09.03.166.088.23.057.06.122.09.197.09a.26.26 0 0 0 .197-.09.323.323 0 0 0 .086-.23.32.32 0 0 0-.086-.23.26.26 0 0 0-.197-.088M-262.526 20.762l-.008-.015-.01-.02-.014-.04a.818.818 0 0 1-.048-.166l-.532.212-.04.015c.052.068.115.14.193.214l.045-.02.413-.18M-258.746 12.035a.3.3 0 0 0 .18-.054.168.168 0 0 0 .075-.144.167.167 0 0 0-.075-.143.298.298 0 0 0-.18-.054.3.3 0 0 0-.183.054.165.165 0 0 0-.075.143c0 .06.025.108.075.144.05.036.11.054.183.054M-263.26 12.77c0 .091.03.167.09.23.056.061.121.092.196.092a.26.26 0 0 0 .197-.092.325.325 0 0 0 .086-.23.322.322 0 0 0-.086-.23.266.266 0 0 0-.394 0 .322.322 0 0 0-.089.23" style="fill:#2056ae;fill-opacity:1;fill-rule:nonzero;stroke:none;stroke-width:.0352778" transform="translate(1137.077 .302) scale(4.09184)"/><path d="M-255.043 13.018s-.009.161-.173.161h-1.862v-.298h.433v-.841h.335v.84h.24v-.84h.335v.84H-255.043zm-.267 1.248v.293h-.157v-.293l-.173-.377v.004h-.222v.666h-.155v-.666h-.219v-.133h.536l.06.13v-.13h.105l.078.195c.022.059.043.115.068.176h.004l.07-.176.077-.195h.162zm-.99.293h-.155v-.799h.155zm-.516.015a.409.409 0 0 1-.284-.117l.09-.11a.3.3 0 0 0 .197.089c.081 0 .125-.036.125-.092 0-.06-.048-.078-.117-.108l-.105-.046c-.078-.033-.157-.097-.157-.214 0-.13.111-.23.27-.23.089 0 .18.036.243.102l-.08.1a.241.241 0 0 0-.164-.066c-.068 0-.112.032-.112.084 0 .058.055.078.122.105l.102.045c.094.04.156.1.156.216 0 .13-.106.242-.286.242zm-.74 3.28c-.205-.018-.18-.134-.18-.134l.011-.033c.03-.043.116-.042.116-.042.3 0 .553.306.69.516.071.11.113.193.113.193-.377-.486-.75-.5-.75-.5zm.678 1.28c-.103-.583-.463-.776-.463-.776-.17-.06-.105-.177-.104-.18.053-.089.192.01.192.01.295.143.358.603.372.825.004.075.004.122.004.122zm-.404.215a.752.752 0 0 1-.021.13 3.672 3.672 0 0 1-.207.566.779.779 0 0 0 .032-.093l.016-.06c.047-.21.06-.467.06-.467.007-.198-.141-.39-.141-.39-.064-.058-.053-.102-.035-.127l.023-.024c.096-.03.155.062.155.062.18.223.118.403.118.403zm-.202 1.342c-.123.517-.444 1.253-1.283 1.71 0 0-1.793.775-1.987 1.445l-.008.033-.01.08c0-.692-2.004-1.558-2.004-1.558-1.401-.763-1.36-2.303-1.36-2.303l.015.037c.09.24.615 1.552 1.387 1.92 0 0 1.962.97 1.962 1.488l.01-.065.006-.018c.18-.532 1.946-1.404 1.946-1.404.851-.406 1.402-1.958 1.402-1.958s.007.247-.076.593zm-2.147 4.277-.041.055-.032.024a.25.25 0 0 1-.14.04.26.26 0 0 1-.092-.016l-.076-.047-.017-.02a.226.226 0 0 1-.05-.148c0-.044.015-.092.044-.142l.15-.255.01-.037-.006-.025h.183l-.028.017-.042.044-.117.195.03-.005.008-.002.01-.002.028.002a.23.23 0 0 1 .096.027l.043.03a.213.213 0 0 1 .066.16c0 .04-.01.074-.027.105zm-.662-.517-.072.194-.07.192-.063.17-.002.012v.002l.031.049h-.2l.027-.02.036-.044.104-.299.022-.062.064-.186h-.248c-.022 0-.042.016-.061.05v-.112h.431zm-.67.26-.02.042-.045.076-.103.175v.002l-.012.037.007.024v.002h-.184l.028-.017.013-.011.03-.032.021-.036.097-.16-.048.008-.088-.012-.08-.047-.014-.016a.209.209 0 0 1-.053-.143c0-.063.023-.117.07-.159a.238.238 0 0 1 .17-.065c.067 0 .123.02.167.062a.22.22 0 0 1 .069.169.26.26 0 0 1-.025.1zm-.982.359c.034-.017.05-.036.05-.059v-.535c0-.027-.019-.044-.058-.054l.169-.039v.628l.025.041.024.018zm-2.306-5.924a.59.59 0 0 1 .108-.2s.06-.091.154-.062c0 0 .033.02.038.058.002.025-.007.056-.05.094 0 0-.076.099-.115.228a.484.484 0 0 0-.024.161s.01.207.046.4c.015.081.035.16.061.22 0 0-.215-.463-.228-.696 0 0-.026-.082.01-.203zm-.385-.14-.017.073-.012.056s-.006-.245.062-.491c.05-.187.143-.373.313-.456 0 0 .14-.099.192-.01l.012.055c0 .039-.02.092-.116.125 0 0-.305.165-.434.649zm-.044-.754c.115-.196.398-.607.746-.607 0 0 .127-.002.127.075v.008c.002.026-.007.11-.18.126 0 0-.372.014-.75.5 0 0 .02-.04.057-.102zm-.058-3.693h-.147v-.799h.159l.226.425.078.173h.005c-.008-.083-.02-.189-.02-.28v-.318h.147v.799h-.158l-.225-.428-.078-.171h-.005c.007.086.018.186.018.278zm-.354-1.333a.534.534 0 0 1-.786 0 .627.627 0 0 1-.177-.456c0-.154.045-.284.127-.394h-.572v-.297h.847v-.127h-.615c-.056 0-.097-.012-.122-.038-.028-.029-.04-.077-.04-.144v-.524h1.895v.285h-1.556v.136h1.556v.125s.001.16-.167.16h-.61v.127h.847v.14s-.005.157-.17.157h-.406c.085.11.13.24.13.394a.62.62 0 0 1-.18.456zm-.23 1.348c-.207 0-.348-.159-.348-.418 0-.26.141-.41.348-.41.206 0 .348.151.348.41 0 .26-.142.418-.348.418zm-.775-.015h-.222v-.799h.213c.238 0 .385.127.385.396s-.147.403-.376.403zm2.182.624c.638-.134 1.485.565 1.485.565.397-.12.708-.181.943-.21.38-.049.557-.016.557-.016s-1.29.011-2.033.762l-.058.062-.05.056c-.068.083-.13.174-.184.272l-.008.013.003-.012.014-.044c.016-.05.042-.127.08-.211l.024-.052.028-.056a.728.728 0 0 1 .194-.246l-.031-.012a.438.438 0 0 1-.212-.192s-.077-.134-.129-.183c-.426-.398-.813-.207-.813-.207a.273.273 0 0 0-.128.169c-.075.243.044.621.044.621a.754.754 0 0 0 .145.204l.045.044.045.04c.09.076.19.141.282.193.158.09.289.141.3.146h.002c-.203.816-.876.603-.876.603.043-.008.082-.018.119-.029.356-.103.45-.322.475-.448.012-.056.01-.094.01-.094a1.663 1.663 0 0 1-.264-.142 1.258 1.258 0 0 1-.235-.2l-.036-.042-.035-.045-.023-.039c-.207-.36-.23-.624-.173-.815.107-.355.492-.455.492-.455zm.089-1.437c.112 0 .19.049.24.102l-.082.101a.204.204 0 0 0-.153-.067c-.13 0-.22.104-.22.275 0 .174.078.279.23.279.038 0 .076-.011.098-.03v-.158h-.137v-.13h.277v.36a.365.365 0 0 1-.253.096c-.212 0-.374-.145-.374-.41 0-.264.167-.418.374-.418zm-.29-1.757c.277-.008.488-.061.635-.16.122-.083.182-.182.182-.297h-.785v-.29h1.14v.161a.761.761 0 0 1-.4.704c-.202.118-.458.181-.771.191zm1.714.781c0 .183-.06.335-.182.456a.534.534 0 0 1-.786 0 .628.628 0 0 1-.177-.456.63.63 0 0 1 .177-.456.539.539 0 0 1 .786 0c.121.121.182.274.182.456zm-.236.99h.182l.25.799h-.162l-.055-.205h-.252l-.055.205h-.158zm-.482.676c.038 0 .076-.011.098-.03v-.158h-.138v-.13h.277v.36a.364.364 0 0 1-.253.096c-.212 0-.373-.145-.373-.41 0-.264.166-.418.373-.418.113 0 .19.049.241.102l-.083.101a.203.203 0 0 0-.153-.067c-.129 0-.22.104-.22.275 0 .174.079.279.23.279zm.563-2.334v-.86h.338v.343h.272v.3h-.272v.174s0 .158-.168.158h-.17zm.828 1.977v-.319h.147v.799h-.158l-.224-.428-.08-.171h-.005c.007.086.018.186.018.278v.32h-.147v-.798h.16l.225.425.078.173h.005c-.008-.083-.02-.189-.02-.28zm.1-2.833h.955v.3h-.615v.997h.615v.143s-.004.157-.173.157h-.62c-.056 0-.096-.013-.122-.036-.027-.03-.04-.076-.04-.143zm.527 3.19c.037 0 .075-.011.097-.03v-.158h-.138v-.13h.277v.36a.366.366 0 0 1-.253.096c-.212 0-.373-.145-.373-.41 0-.264.166-.418.373-.418.113 0 .19.049.242.102l-.084.101a.203.203 0 0 0-.152-.067c-.13 0-.22.104-.22.275 0 .174.078.279.23.279zm.542 1.393c.18-.04.462-.07.79.027a3.508 3.508 0 0 0 .937.477l.01.007c.072.051.144.108.214.17 0 0-.177-.106-.43-.218a4.324 4.324 0 0 0-.237-.099 2.49 2.49 0 0 0-.773-.177h-.067s-.041 0-.108.006c-.11.011-.29.04-.473.117l-.07.031h-.01l-.063-.028a1.642 1.642 0 0 0-.47-.119c-.071-.008-.117-.008-.117-.008l-.051.001c-.262.005-.553.087-.807.185a4.128 4.128 0 0 0-.23.096c-.247.11-.419.213-.419.213.053-.047.107-.09.162-.132l.056-.042a2.66 2.66 0 0 1 .216-.143c.388-.236.726-.338.726-.338a1.574 1.574 0 0 1 .97.029l.032.014.04-.016c.019-.008.045-.017.077-.027.027-.008.06-.018.095-.026zm2.774 2.913c-.134.537-.48.638-.48.638-.612.222-.992.022-.992.022-.23-.102-.473-.41-.473-.41.035.02.069.038.104.056.68.356 1.227.106 1.227.106.311-.12.468-.484.549-.806.072-.292.08-.548.08-.548l.007.048c.052.385.033.676-.022.894zm-.642 1.237c-.048-.012-.127.003-.127.003-.147.003-.277.435-.277.435.09-.349-.095-.597-.095-.597l.044.003c.32.015.694-.055.694-.055a.803.803 0 0 0 .622-.449l-.016.087c-.136.591-.845.573-.845.573zm-4.926-.21s.395.073.72.053l.019-.002s-.059.081-.094.212a.756.756 0 0 0-.003.385s-.13-.432-.276-.435c0 0-.079-.015-.127-.003 0 0-.78.022-.861-.66a.801.801 0 0 0 .622.45zm.211-.615s.573.262 1.276-.132l.055-.03s-.242.308-.473.41c0 0-.38.2-.99-.022 0 0-.705-.2-.498-1.58l.002.038c.012.194.097 1.113.628 1.316zm3.98-2.392a.476.476 0 0 1-.078.187s.012-.379-.334-.48c0 0-.55-.194-1.053.15l-.012.008-.004.23s.656-.237.946.281a.774.774 0 0 1 .05.108s-.416-.462-.986-.207l-.011.005-.004.106s.209.004.371.154a.516.516 0 0 1 .105.13c-.025-.033-.15-.161-.595-.154h-.006c-.444-.007-.57.121-.595.154a.514.514 0 0 1 .073-.1c.165-.18.403-.184.403-.184l-.002-.048-.002-.058c-.575-.267-.998.202-.998.202l.033-.07c.28-.565.964-.319.964-.319v-.053l-.005-.177c-.507-.355-1.064-.157-1.064-.157a.443.443 0 0 0-.31.315.646.646 0 0 0-.02.1c-.006.04-.005.064-.005.064-.09-.135-.099-.247-.068-.34a.357.357 0 0 1 .064-.113c.127-.152.355-.221.355-.221.26-.082.514-.068.72-.027.272.056.459.161.459.161h.001s.191-.107.468-.162c.204-.04.456-.053.711.028 0 0 .225.068.352.218.06.07.096.16.078.27zm-.802 1.532c-.029.068-.057.096-.073.097l-.075.004.055.036c.003.002.12.11.084.351l-.006.034a.296.296 0 0 1-.083.169l.023-.062.015-.058c.034-.161.03-.397-.188-.425l.066-.036a.443.443 0 0 0 .094-.211.783.783 0 0 0 .016-.16c0-.053.006-.251-.04-.29l.047.07c.036.08.053.185.053.185l.02-.052c.004-.013.122-.32.54-.327.023-.001.586-.076.745-.297l-.007.058a.325.325 0 0 1-.062.143l-.01.013c-.021.039-.026.049.02.026 0 0 .216-.006.304-.118l.009-.045a.258.258 0 0 0-.046-.121l.052.034c.052.04.128.112.128.196l-.002.024a.326.326 0 0 1-.071.16s-.173.14-.208.253c0 0 0-.068.026-.153a.57.57 0 0 1 .056-.135l.004-.007-.015.002a1.185 1.185 0 0 1-.252-.018l-.013-.002c.002.076-.001.132-.001.132a.553.553 0 0 1-.012.064c-.027.123-.112.391-.35.512a.675.675 0 0 1-.256.077c-.065.007-.13.008-.193.003-.215-.015-.398-.084-.393-.126zm-3.07-.617-.041-.003.005.007c.039.066.06.134.07.188.011.058.012.1.012.1-.035-.112-.208-.254-.208-.254-.078-.1-.073-.183-.073-.183l.014-.06a.398.398 0 0 1 .148-.16l.017-.01-.033.067c-.026.07-.004.1-.004.1.089.111.305.117.305.117.046.023.041.013.019-.027l-.016-.022a.373.373 0 0 1-.063-.191l.026.028c.184.2.697.268.72.269.419.006.535.314.54.326l.02.053.01-.053.01-.043a.412.412 0 0 1 .065-.141l.015-.017-.018.03c-.025.067-.021.214-.021.258 0 .136.03.242.067.312l.006.01.043.057.058.029a.212.212 0 0 0-.185.153.551.551 0 0 0-.002.273c.01.05.025.093.038.12a.328.328 0 0 1-.089-.203.513.513 0 0 1 .015-.232.288.288 0 0 1 .068-.12l.056-.037-.053-.002-.022-.001c-.016 0-.044-.028-.074-.097.005.04-.167.108-.374.125-.059.005-.12.005-.18 0a.689.689 0 0 1-.287-.08c-.313-.157-.362-.57-.362-.575 0 0-.003-.056-.001-.133 0 0-.128.026-.24.022zm2.265 2.875h-.003v-.014c-.03-.5-.31-.518-.31-.518-.271-.031-.436-.057-.436-.057-.188-.043-.214-.134-.214-.134-.036-.056-.024-.16.006-.27.047-.173.139-.362.164-.412l.007-.015s-.023.072-.047.162c-.031.122-.063.276-.038.339 0 0 .006.139.227.139 0 0 .134.047.242-.012 0 0 .172-.089.4-.089.229 0 .4.089.4.089.143.047.243.012.243.012.221 0 .238-.067.238-.067l.007-.04c.01-.152-.104-.533-.104-.533s.027.05.06.125c.063.142.152.369.138.504l-.02.068s-.027.09-.215.134c0 0-.165.026-.436.057 0 0-.195.014-.277.31a.807.807 0 0 0-.025.12l-.01.088zm1.746-3.837c.014-.025.039-.044.08-.05 0 0 .232-.094.33.307 0 0 .551.086.577.691l-.006.03a.673.673 0 0 1-.12.274s-.058.085-.098.236c-.02.068-.034.15-.037.247 0 0-.002.065-.02.147-.027.129-.095.299-.259.33 0 0-.236.093-.543-.083 0 0-.336-.272-.726-.1l.021-.052c.043-.09.155-.26.383-.236 0 0 .218.033.393.125 0 0 .25.1.422-.064 0 0 .073-.045.117-.235l.008-.034s.006-.04.022-.098c.028-.101.089-.255.214-.334 0 0 .101-.048.12-.173a.393.393 0 0 0-.041-.217s-.103-.263-.332-.313l-.1-.022s-.013.039-.044.115c0 0-.028.12-.176.206a.57.57 0 0 1-.13.055c-.116.034-.279.048-.5.013 0 0 .056-.012.13-.034.128-.04.313-.11.365-.206 0 0 .04-.057.05-.123l.002-.05s-.162-.241-.102-.352zm-3.545.525c.053.098.242.169.37.207.072.022.125.033.125.033-.715.113-.806-.274-.806-.274-.03-.076-.043-.115-.043-.115l-.1.022c-.23.05-.332.313-.332.313l-.025.066c-.074.24.103.324.103.324.197.123.236.432.236.432.043.222.125.269.125.269.172.164.422.064.422.064.194-.076.393-.096.393-.096a.369.369 0 0 1 .372.193.51.51 0 0 1 .032.067c-.39-.173-.725.099-.725.099-.308.176-.544.083-.544.083-.268-.05-.279-.477-.279-.477-.01-.306-.136-.483-.136-.483-.1-.125-.125-.304-.125-.304a.821.821 0 0 1 .036-.212c.126-.413.541-.479.541-.479.098-.4.33-.308.33-.308.086.015.102.08.09.152a.767.767 0 0 1-.1.232l-.011.018c-.01.087.05.174.05.174zm4.363 3.876-.161-.066c-.171.272-.465.575-.971.843 0 0-1.22.5-1.408 1.12l-.016.063-.01.08.001.015h-.002l.001-.014c-.02-.685-1.433-1.264-1.433-1.264-.506-.268-.8-.572-.971-.843l-.161.066.159-.07-.019-.031v-.004a1.568 1.568 0 0 1-.109-.212l-.366.144.363-.154-.01-.029-.005-.009c-.104-.281-.082-.48-.082-.48s.003.022.012.058c.02.08.072.227.207.408l.039-.017.538-.23-.001-.01-.002-.031a.706.706 0 0 1 .025-.242c.095-.325.405-.5.405-.5.27-.174.455-.392.529-.488l.036-.049s-.172.422-.576.664c0 0-.192.099-.257.306a.503.503 0 0 0-.002.284l.024-.01.207-.088.478-.204c.002-.028.028-.05.06-.05l.058.04.004.014c0 .03-.027.054-.061.054l-.035-.01-.698.277-.027.01a.791.791 0 0 0 .064.147s.012.032.037.078l.032-.015.364-.158.192-.084v-.004c0-.03.027-.054.06-.054l.059.041.003.013c0 .03-.027.054-.061.054l-.036-.01-.565.228-.034.014a.608.608 0 0 0 .173.191l.048-.027.404-.226.274-.154v-.002l.055-.05.054.036.003.014-.057.05-.03-.007-.678.352-.053.028a.411.411 0 0 0 .29.054s.109.004.353-.126c0 0 .344-.175.72-.175.377 0 .721.175.721.175.244.13.353.126.353.126a.411.411 0 0 0 .29-.054l-.042-.022-.689-.358-.03.007-.056-.05.015-.034.04-.016.057.05-.001.002.69.387.037.02a.606.606 0 0 0 .172-.191l-.015-.005-.584-.237-.037.01c-.032 0-.06-.024-.06-.054l.016-.035.045-.02c.033 0 .06.026.06.055v.004l.576.251.014.006a.61.61 0 0 0 .036-.078c.029-.052.05-.1.064-.147l-.005-.002-.72-.285-.035.01c-.034 0-.06-.024-.06-.054l.015-.035.045-.02c.033 0 .06.023.061.051l.16.068.546.233.003.001.01-.05c.066-.368-.268-.54-.268-.54-.405-.242-.577-.664-.577-.664s.044.063.122.152c.097.11.246.258.442.385 0 0 .496.277.428.784l.004.002.553.235.02.009c.154-.205.2-.37.214-.435l.005-.031.001.007c.002.025.007.13-.028.286a1.437 1.437 0 0 1-.052.178l-.004.01-.013.037.363.154-.366-.144a1.723 1.723 0 0 1-.104.204l-.002.004-.021.04zm-1.763-5.566c.223.033.506.092.856.198 0 0 .847-.699 1.485-.565 0 0 .643.167.498.834-.028.127-.084.271-.178.436l-.024.037-.033.045-.035.042a1.257 1.257 0 0 1-.235.2c-.07.048-.154.095-.253.138l-.013.006s-.03.395.489.544c.035.01.073.02.114.027 0 0-.673.213-.876-.602l.024-.01c.046-.019.156-.067.282-.139.091-.051.19-.116.28-.193l.045-.04.046-.043c.06-.063.11-.13.143-.203 0 0 .012-.039.027-.1.044-.185.106-.576-.111-.69 0 0-.387-.191-.813.207-.053.05-.13.183-.13.183a.43.43 0 0 1-.195.185l-.048.02a.72.72 0 0 1 .193.242l.03.056.023.053a1.92 1.92 0 0 1 .093.255l.005.014-.01-.015a1.707 1.707 0 0 0-.184-.272l-.05-.057-.06-.062c-.744-.748-2.029-.758-2.029-.758s.205-.039.644.027zm-.622-1.79h.156v.454c0 .166.055.222.147.222.093 0 .151-.056.151-.222v-.454h.15v.44c0 .265-.11.374-.3.374s-.304-.11-.304-.375zm.075-.917v-1.597h.315v.632h.14v-.632h.322v1.887s-.005.158-.168.158h-.155v-1.109h-.139v.951s-.006.158-.17.158h-.145zm1.037 1.342.078.173h.006c-.008-.083-.02-.189-.02-.28v-.318h.147v.799h-.158l-.225-.428-.078-.171h-.005c.007.086.018.186.018.278v.32h-.147v-.798h.159zm.067-2.862h.485v-.188h.36v.188h.484v.28h-.2c.051.069.078.15.078.246 0 .133-.05.241-.15.325a.592.592 0 0 1-.391.124.597.597 0 0 1-.394-.124.404.404 0 0 1-.15-.325c0-.095.027-.177.078-.246h-.2zm1.564-.08h.337v.342h.273v.3h-.273v.207s.001.158-.167.158h-.17zm-1.135 2.517v.799h-.156v-.799zm.688 0-.239.799h-.185l-.237-.799h.163l.103.389c.024.088.04.168.065.258h.005c.024-.09.042-.17.067-.258l.1-.389zm.447-.47v-.574h-1.447v-.3h1.783v.716s-.01.159-.174.159zm.009.787v.135h-.274v.213h.333v.134h-.488v-.799h.477v.133h-.322v.184zm.717-.075c0 .12-.058.194-.147.23l.181.327h-.174l-.159-.302h-.109v.302h-.155v-.799h.271c.163 0 .292.059.292.242zm.163-2.76h1.753v1.328s-.002.156-.17.156h-.167v-1.184h-1.416zm3.638-.795c-4.885-.01-7.208-1.563-7.45-1.736-.241.173-2.566 1.726-7.45 1.736a9.118 9.118 0 0 0-.013.516c0 .579.04 1.577.242 2.84l.01.056.008.053.046.266c.091.507.21 1.054.36 1.627l.014.05.012.046c.02.076.042.153.064.23a19.934 19.934 0 0 0 6.708 10.19A19.935 19.935 0 0 0-254 15.9l.014-.047.012-.049a20.36 20.36 0 0 0 .406-1.893l.01-.053.008-.057a18.25 18.25 0 0 0 .242-2.839c0-.27-.009-.444-.012-.516" style="fill:#2056ae;fill-opacity:1;fill-rule:nonzero;stroke:none;stroke-width:.0352778" transform="translate(1137.077 .302) scale(4.09184)"/><path d="M-257.53 13.887v.244h.101c.1 0 .155-.044.155-.13 0-.085-.055-.114-.155-.114h-.1M-265.322 13.882c-.116 0-.19.103-.19.274 0 .17.074.28.19.28.115 0 .19-.11.19-.28 0-.17-.075-.274-.19-.274M-262.294 20.976l-.021-.013-.015-.008a.524.524 0 0 1-.184-.173l-.415.169-.047.018c.08.076.175.152.287.229l.047-.027.348-.195M-262.48 14.142c-.024-.082-.045-.174-.068-.26h-.004c-.02.087-.043.178-.066.26l-.023.088h.185l-.023-.088M-266.115 13.888h-.048v.543h.048c.145 0 .236-.08.236-.275s-.09-.268-.236-.268" style="fill:#2056ae;fill-opacity:1;fill-rule:nonzero;stroke:none;stroke-width:.0352778" transform="translate(1137.077 .302) scale(4.09184)"/></svg>