<svg xmlns="http://www.w3.org/2000/svg" xmlns:xlink="http://www.w3.org/1999/xlink" width="1841px" height="1080px" x="0px" y="0px" preserveAspectRatio="none" viewBox="0 0 1841 1080"><defs><path id="a" fill="#EB278D" d="M1239.25-103.2h-58.35V42.55h58.35V-103.2Z"/><path id="b" fill="#EB278D" d="M1401.85-99.25q-5.9-3.85-12.25-5.7-6.45-1.9-13.05-1.9-8.45 0-16.55 2.6-8.15 2.55-15.4 6.8-7.35 4.35-13 9.95-6.1 5.85-9.65 11.75v-27.45h-54.85V42.55h58.4V-47.1q0-4.7 2.35-8.8 2.4-4.05 6.1-6.95 3.55-2.8 8.35-4.6 4.85-1.7 9.15-1.7 6.3 0 10.55 2.5 4.25 2.65 6.6 6.65 2.4 4.15 3.45 9.4 1 5.4 1 10.8v82.35h58.4V-42.1q0-5.25 1.9-10 1.9-4.9 5.1-8.65 3.15-3.7 7.45-6.1 4.3-2.3 8.9-2.3 6.85 0 11.15 3.1 4.3 3.2 6.7 7.65 2.4 4.5 3.3 9.6.9 5.1.9 9v82.35h58.35v-90.9q0-13.1-2.85-23.9-2.75-10.7-9.1-18.5-6.25-7.7-16.5-11.9-10.2-4.2-24.8-4.2-9 0-18.15 2.25-9.1 2.25-17.25 6.2-7.95 3.9-14.8 9.45-6.6 5.45-10.85 12-3.45-7.4-8.4-13-4.85-5.55-10.65-9.3Z"/><path id="c" fill="#EB278D" d="M1241.35-167.4q0-13.2-9.3-22.5-9.35-9.35-22.5-9.35t-22.5 9.35q-9.3 9.3-9.3 22.5 0 13.15 9.3 22.5 9.35 9.3 22.5 9.3t22.5-9.3q9.3-9.35 9.3-22.5Z"/><path id="d" fill="#373637" d="M1093.6-112.8q-10.55-3-22.3-3-35.5 0-59.6 23.45-24.15 23.4-24.15 57.8 0 33.6 24.15 57.55 24.2 23.95 58.2 23.95 34.05 0 58.1-23.85 24.05-23.8 24.05-57.65V-206.7h-58.45v93.9M1049-14.45q-8.4-8.35-8.4-20.25 0-11.85 8.4-20.2 8.35-8.4 20.2-8.4t20.25 8.4q8.35 8.35 8.35 20.2 0 11.9-8.35 20.25-8.4 8.4-20.25 8.4t-20.2-8.4Z"/><path id="e" fill="#373637" d="M1586.4-91.45q-24.15 23.95-24.15 57.6 0 34.35 24.15 57.75 24.1 23.45 59.65 23.45 33.25 0 57-23.9 2.45-2.45 5.1-5.6l19.9 29.3 48.5-32.45-60.7-89.65q-5.3-8.8-13.1-16.6-24.1-23.85-58.15-23.85-34 0-58.2 23.95m37.3 37.5q8.35-8.4 20.2-8.4t20.25 8.4q8.4 8.35 8.4 20.25 0 11.85-8.4 20.25-8.4 8.35-20.25 8.35t-20.2-8.35q-8.4-8.4-8.4-20.25 0-11.9 8.4-20.25Z"/><path id="f" fill="#373637" d="M1010.8 245.5q0-5.1-2.9-7.85-2.95-2.65-8.2-2.65h-10.05v40.55h10.05q5.3 0 8.2-2.7 2.9-2.65 2.9-7.8V245.5m-16-6.55h4.9q2.7 0 4.35 1.5 1.65 1.6 1.65 4.1V266q0 2.55-1.65 4.1-1.7 1.55-4.35 1.55h-4.9v-32.7Z"/><path id="g" fill="#373637" d="M1038 245q0-4.95-2.85-7.65-2.8-2.75-8.25-2.75t-8.3 2.75q-2.85 2.7-2.85 7.65v20.55q0 4.95 2.85 7.65 2.85 2.75 8.3 2.75 5.45 0 8.25-2.75 2.85-2.7 2.85-7.65V245m-17.1-.95q0-2.75 1.7-4.15 1.75-1.5 4.25-1.5 2.6 0 4.3 1.5 1.75 1.45 1.75 4.15v22.45q0 2.7-1.75 4.15-1.7 1.5-4.3 1.5-2.5 0-4.25-1.5-1.7-1.4-1.7-4.15v-22.45Z"/><path id="h" fill="#373637" d="M1067.35 235h-5.15v35.05l-9.45-35.05h-8.5v40.55h5.1V238.7l10.7 36.85h7.3V235Z"/><path id="i" fill="#373637" d="M1093.8 238.85V235h-8.5q-5.35 0-8.55 2.65-3.1 2.65-3.1 7.75v19.65q0 5.15 2.9 7.85 2.8 2.65 8.15 2.65h10.25v-23.6h-10.3v3.85h5.2v15.95h-5.4q-2.55 0-4.15-1.5-1.55-1.45-1.55-4.15v-21.6q0-2.5 1.65-4.1 1.7-1.55 4.3-1.55h9.1Z"/><path id="j" fill="#373637" d="M1099.25 255.65h13.45v-3.85h-13.45v3.85Z"/><path id="k" fill="#373637" d="M1129.9 235h-7.7l-9.15 40.55h4.95l2.6-11.9h10.55l2.85 11.9h4.75L1129.9 235m-4.2 3.8h.4l4.15 20.9h-8.8l4.25-20.9Z"/><path id="l" fill="#373637" d="M1165.85 235h-5.1v17.15h-11.55V235h-5.1v40.55h5.1v-19.6h11.55v19.6h5.1V235Z"/><path id="m" fill="#373637" d="M1188.1 235h-5.1v40.55h5.1V235Z"/><path id="n" fill="#373637" d="M1219.25 275.55V235h-5.15v35.05l-9.45-35.05h-8.55v40.55h5.1V238.7l10.75 36.85h7.3Z"/><path id="o" fill="#373637" d="M1231.2 244.5q0-2.05 1.45-3.9 1.45-1.8 4.2-1.8h4.5V235h-4.7q-4.95 0-7.7 2.75-2.8 2.75-2.8 7.45 0 2.7.95 4.65.95 2 2.4 3.2l6.25 4.8q1.4 1 2.45 2.9.95 1.9.95 4.45 0 2.6-1.5 4.55-1.5 2-4.8 2h-6.3v3.8h6.1q5.4 0 8.5-2.75 3.1-2.8 3.1-8.25 0-2.85-.95-5.25-1-2.4-2.45-3.7-1.4-1.35-3.15-2.7-1.45-1.15-3.15-2.3-1.4-.95-2.4-2.5-.95-1.45-.95-3.6Z"/><path id="p" fill="#373637" d="M1260.05 238.8h8.15V235h-21.35v3.8h8.1v36.75h5.1V238.8Z"/><path id="q" fill="#373637" d="M1278.65 235h-5.1v40.55h5.1V235Z"/><path id="r" fill="#373637" d="M1297.3 238.8h8.1V235h-21.35v3.8h8.15v36.75h5.1V238.8Z"/><path id="s" fill="#373637" d="M1329.6 235h-5.1v31.5q0 2.85-1.35 4.25-1.5 1.4-3.85 1.4-2.4 0-3.8-1.4-1.35-1.4-1.35-4.25V235h-5.1v30.55q0 10.4 10.3 10.4 10.25 0 10.25-10.4V235Z"/><path id="t" fill="#373637" d="M1346.5 238.8h8.1V235h-21.3v3.8h8.1v36.75h5.1V238.8Z"/><path id="u" fill="#373637" d="M1377.7 238.95V235H1360v40.55h18.25v-3.9h-13.15v-15.8h10.2v-3.95h-10.2v-12.95h12.6Z"/><path id="v" fill="#373637" d="M1413.95 245q0-4.9-2.8-7.65t-8.3-2.75q-5.4 0-8.25 2.75-2.85 2.7-2.85 7.65v20.55q0 4.95 2.85 7.65 2.85 2.75 8.25 2.75 5.5 0 8.3-2.75 2.8-2.7 2.8-7.65V245m-17.1-.95q0-2.7 1.75-4.15 1.65-1.5 4.25-1.5 2.5 0 4.3 1.5 1.7 1.4 1.7 4.15v22.45q0 2.75-1.7 4.15-1.8 1.5-4.3 1.5-2.6 0-4.25-1.5-1.75-1.45-1.75-4.15v-22.45Z"/><path id="w" fill="#373637" d="M1425.8 238.95h12V235h-17.1v40.55h5.1V256.8h9.05v-3.95h-9.05v-13.9Z"/><path id="x" fill="#373637" d="M1451.3 275.55h5.1V241l7.75 23.8h5.55l7.75-23.75v34.5h5.1V235h-7.4l-7.95 24h-.4l-7.8-24h-7.7v40.55Z"/><path id="y" fill="#373637" d="M1508.1 238.95V235h-17.65v40.55h18.25v-3.9h-13.15v-15.8h10.2v-3.95h-10.2v-12.95h12.55Z"/><path id="z" fill="#373637" d="M1536.35 245.5q0-5.15-2.9-7.85-2.95-2.65-8.2-2.65h-10.05v40.55h10.05q5.3 0 8.2-2.7 2.9-2.6 2.9-7.8V245.5m-16-6.55h4.9q2.7 0 4.35 1.5 1.65 1.6 1.65 4.1V266q0 2.55-1.65 4.1-1.7 1.55-4.35 1.55h-4.9v-32.7Z"/><path id="A" fill="#373637" d="M1548.15 235h-5.1v40.55h5.1V235Z"/><path id="B" fill="#373637" d="M1570.45 235h-7.75l-9.15 40.55h4.95l2.6-11.9h10.55l2.85 11.9h4.75l-8.8-40.55m-4.25 3.8h.4l4.2 20.9h-8.85l4.25-20.9Z"/><path id="C" fill="#373637" d="M1607.1 235h-7.7l-9.15 40.55h4.95l2.6-11.9h10.55l2.85 11.9h4.75L1607.1 235m-4.2 3.8h.4l4.15 20.9h-8.8l4.25-20.9Z"/><path id="D" fill="#373637" d="M1644 235h-5.15v35.05L1629.4 235h-8.55v40.55h5.1V238.7l10.75 36.85h7.3V235Z"/><path id="E" fill="#373637" d="M1673.1 245.5q0-5.15-2.9-7.85-2.95-2.65-8.2-2.65h-10.05v40.55H1662q5.3 0 8.2-2.7 2.9-2.6 2.9-7.8V245.5m-11.1-6.55q2.7 0 4.35 1.5 1.65 1.6 1.65 4.1V266q0 2.55-1.65 4.1-1.7 1.55-4.35 1.55h-4.9v-32.7h4.9Z"/><path id="F" fill="#373637" d="m1703.55 263.65 2.8 11.9h4.75l-8.8-40.55h-7.7l-9.15 40.55h4.9l2.65-11.9h10.55m-5.45-24.85h.4l4.15 20.9h-8.8l4.25-20.9Z"/><path id="G" fill="#373637" d="M1737.65 245.75q0-10.75-10.4-10.75h-10.75v40.55h5v-17.8h5.35l7.85 17.8h5l-8.05-18.55q2.85-1.1 4.45-4.15 1.55-2.95 1.55-7.1m-16.05-6.95h4.15q6.95 0 6.95 6.95 0 3.7-1.85 5.9-1.8 2.3-5.1 2.3h-4.15V238.8Z"/><path id="H" fill="#373637" d="M1755.25 238.8h8.1V235H1742v3.8h8.15v36.75h5.1V238.8Z"/><path id="I" fill="#373637" d="M1772.7 244.5q0-2.15 1.45-3.9 1.45-1.8 4.2-1.8h4.5V235h-4.7q-4.95 0-7.7 2.75-2.8 2.75-2.8 7.45 0 2.7.95 4.65.95 2 2.4 3.2 1.2 1 3.15 2.45l3.1 2.35q1.45 1 2.4 2.9 1 1.85 1 4.45t-1.5 4.55q-1.5 2-4.8 2h-6.3v3.8h6.1q5.4 0 8.5-2.75 3.1-2.8 3.1-8.25 0-2.95-1-5.25-.9-2.35-2.4-3.7-1.4-1.35-3.15-2.7l-3.15-2.3q-1.4-.95-2.4-2.5-.95-1.45-.95-3.6Z"/><path id="J" fill="#373637" d="M1002.85 140.8q2.35 2.25 6.65 2.25h16.5v8.75l-.15.15-.1.05H990v10.8h30.35q-2.5 1.35-4.7 3.35-6.9 6.45-6.9 15.75 0 8.75 7 15 6.9 6.3 16.2 6.3 9.1 0 16.05-6.25 7.15-6.4 7.15-15.05 0-9.25-7.25-15.75-2.1-1.95-4.65-3.35h30.35V152h-35.95l-.05-.4v-8.55h24.4v-11.1h-49.2l-.6-.05-.05-.5v-11.45l.35-.05h49.05v-11.2h-52.85q-4.05 0-6.1 2.45-2.05 2.2-2.05 6.2v16.95q0 4.2 2.3 6.5m28.9 51.35q-4.95 0-8.4-3.15-3.5-3.1-3.5-7.5 0-4.5 3.3-7.65 3.45-3.15 8.5-3.15 4.9 0 8.5 3.15 3.5 3.25 3.5 7.65t-3.5 7.5q-3.45 3.15-8.4 3.15Z"/><path id="K" fill="#373637" d="M1119.6 121.45q-7.65-7.35-18.1-7.35-10.5 0-18.1 7.35-7.7 7.55-7.7 18.25 0 10.5 7.8 17.9 7.65 7.5 18.1 7.5 10.3 0 17.9-7.45 7.9-7.5 7.9-17.95 0-10.65-7.8-18.25m-8.25 8.2q4.4 4.15 4.4 9.95 0 5.55-4.2 9.75-4.35 4.2-10.05 4.2-5.7 0-10.05-4.2-4.2-4.1-4.2-9.75 0-5.9 4.1-9.95 4.1-4.1 10.05-4.1 5.7 0 9.95 4.1Z"/><path id="L" fill="#373637" d="m1147.7 133.35-.5-.05-.05-24.8h-11.9v92.85h11.9l.05-57.2h14.8v-10.8h-14.3Z"/><path id="M" fill="#373637" d="M1192.2 181.9q0 8.8 7.05 15 6.85 6.3 16.15 6.3 9.1 0 16.05-6.25 7.15-6.4 7.15-15.05 0-9.25-7.2-15.75-6.95-6.25-16.2-6.25-9.15 0-16.1 6.25-6.9 6.5-6.9 15.75m11.1-.4q0-4.45 3.3-7.65 3.45-3.15 8.5-3.15 4.9 0 8.5 3.15 3.5 3.25 3.5 7.65t-3.5 7.5q-3.45 3.15-8.4 3.15t-8.4-3.15q-3.5-3.1-3.5-7.5Z"/><path id="N" fill="#373637" d="m1239.75 126.7-.7-.05-.05-18.15h-11.7v50.85h11.7l.05-21.8.5-.05h13.5v-10.8h-13.3Z"/><path id="O" fill="#373637" d="M1204.15 110.8v11.7l-.05.65h-20.45l-.65-.05-.05-.4v-11.9h-11.5v36.5q0 3.8 2.05 6.25 2.2 2.5 6.2 2.5h28q3.95 0 5.95-2.85 1.9-2.35 1.9-6.3v-36.1h-11.4M1183 134.1l.65-.05h20.15l.3.05.05 10.3q0 .5-.2.75h-20.2l-.6-.05-.1-.1q-.1-.1-.1-.6v-9.65l.05-.65Z"/><path id="P" fill="#373637" d="m1303.55 151.8-.15-.05V137.6h-11.65v14.15l-.25.05h-35.75v10.9h30.7q-2.5 1.3-4.85 3.45-6.9 6.45-6.9 15.75 0 8.75 7 15 6.9 6.3 16.2 6.3 9.05 0 16.05-6.25 7.15-6.4 7.15-15.05 0-9.25-7.25-15.75-2.2-2.05-4.85-3.45h30.35v-10.9h-35.8m6.05 29.7q0 4.4-3.55 7.5-3.35 3.15-8.35 3.15-4.95 0-8.4-3.15-3.5-3.05-3.5-7.5 0-4.5 3.3-7.65 3.45-3.15 8.5-3.15 4.85 0 8.45 3.15 3.55 3.25 3.55 7.65Z"/><path id="Q" fill="#373637" d="M1671.85 127v-10.9h-22.5v-10.15h-11.65v10.1l-.25.05h-22.25V127h9.45q-4 5.5-4 12.45 0 8.8 7 15.05 6.95 6.25 16.2 6.25 9.05 0 16.05-6.25 7.15-6.4 7.15-15.05 0-6.95-4.2-12.45h9m-36.6 19.6q-3.5-3.15-3.5-7.55 0-4.5 3.3-7.6 3.45-3.15 8.5-3.15 4.85 0 8.45 3.15 3.55 3.25 3.55 7.6 0 4.4-3.55 7.55-3.35 3.15-8.35 3.15-4.95 0-8.4-3.15Z"/><path id="R" fill="#373637" d="M1428.3 108.5h-11.35v92.85h11.35V108.5Z"/><path id="S" fill="#373637" d="m1484.75 157.05.25.1h35.8v-9.45h-83.6v9.45h35.2l.15-.1.35.05v5.55h-25.95v9.55h51.3q.4 0 .55.15l.05.05q.15.1.15.6v3.2q0 .65-.1.85l-.15.15q-.05.05-.4.05h-47.8q-1.95 0-3.15 1.05-1.45 1.25-1.45 3.8v10.85q0 3.55 1.9 5.9 2.3 2.75 6.25 2.75h58.25v-9.55h-54.85l-.25-.05-.05-.05-.05-.55.05-4.85.3-.05h45.65q2.7 0 4.65-1.45 2.85-2.15 2.85-6.8V167.4q0-4.75-5.2-4.75h-21.05v-5.25l.05-.3.3-.05Z"/><path id="T" fill="#373637" d="M1533.2 116.95q-2.2 2.15-2.2 5.7v45.6q0 3.85 2.35 6.45 2.5 2.7 6.7 2.7h13.75q4.9 0 10.1-.5 10.35-.75 11.7-.95v25.4h11.15v-56h7.7l.05.05v55.95h11.2V108.5h-11.2v26.15h-7.75V109.2h-11.15v55.95q-.9.1-11.75.85-5.6.4-10.05.4h-10.75l-.5-.05-.05-.5V126.1h23.55V115h-27.1q-3.55 0-5.75 1.95Z"/><path id="U" fill="#373637" d="M1628 166.05v11.1h48.6q.85 0 1.1.2l.15 1v22.85h11.75v-26.4q0-3.95-1.95-6.2-2.15-2.55-6.25-2.55H1628Z"/><path id="V" fill="#373637" d="M1689.6 108.5h-11.75v52.4h11.75v-21.35h14v-10.8h-13.25l-.6-.1-.05-.05q-.1-.15-.1-.75V108.5Z"/><path id="W" fill="#373637" d="M1761.5 124.8q.15 0 .2.05l.15 1.05v39.95h11.8v-43.9q0-3.1-2.15-5.4-2.15-2.55-5.4-2.55h-55.2v10.8h50.6Z"/><path id="X" fill="#373637" d="M1783.1 191.25v-10.9h-30.05l-.05-.35v-34.85h-11.5v35.15l-.25.05h-9.65l-.05-.35v-34.85h-11.6V180l-.05.3q0 .05-.2.05H1703v10.9h80.1Z"/><path id="Y" fill="#373637" d="M1349.55 121.75q-7.4 7.25-7.4 17.5 0 10.05 7.5 17.25 7.45 7.2 17.4 7.2 9.85 0 17.2-7.2l.55-.55h14.35l.05.55v44.85h11.1V109.2h-11.1v13.9h-13.55l-1.3-1.35q-7.5-7.1-17.4-7.1-10.15 0-17.4 7.1m17.3 3.9q5.55 0 9.55 4 4.25 3.95 4.25 9.5 0 5.3-4.05 9.35-4.1 4.05-9.65 4.05-5.55 0-9.7-4.05-4-3.9-4-9.35 0-5.65 3.9-9.55 4.05-3.95 9.7-3.95m24.2 19.65q.8-2.75.8-6.05 0-2.85-.6-5.5h7.9l.05.55v11h-8.15Z"/><path id="Z" fill="#373637" d="m1330.55 139.85-33.1-32.25-32.35 31.9 8.45 8.05 24.05-24.05 24.4 23.9 8.55-7.55Z"/><path id="aa" fill="#373637" d="m1503.15 143.45 7.7-7.8-32.25-28.85-31.35 28.85 7.5 7.9 24-22.1 24.4 22Z"/></defs><use xlink:href="#a" transform="matrix(2.05243 0 0 2.05243 -1925.5 468.986)"/><use xlink:href="#b" transform="matrix(2.05243 0 0 2.05243 -1925.5 468.986)"/><use xlink:href="#c" transform="matrix(2.05243 0 0 2.05243 -1925.5 468.986)"/><use xlink:href="#d" transform="matrix(2.05243 0 0 2.05243 -1925.5 468.986)"/><use xlink:href="#e" transform="matrix(2.05243 0 0 2.05243 -1925.5 468.986)"/><use xlink:href="#f" transform="matrix(2.05243 0 0 2.05243 -1925.5 468.986)"/><use xlink:href="#g" transform="matrix(2.05243 0 0 2.05243 -1925.5 468.986)"/><use xlink:href="#h" transform="matrix(2.05243 0 0 2.05243 -1925.5 468.986)"/><use xlink:href="#i" transform="matrix(2.05243 0 0 2.05243 -1925.5 468.986)"/><use xlink:href="#j" transform="matrix(2.05243 0 0 2.05243 -1925.5 468.986)"/><use xlink:href="#k" transform="matrix(2.05243 0 0 2.05243 -1925.5 468.986)"/><use xlink:href="#l" transform="matrix(2.05243 0 0 2.05243 -1925.5 468.986)"/><use xlink:href="#m" transform="matrix(2.05243 0 0 2.05243 -1925.5 468.986)"/><use xlink:href="#n" transform="matrix(2.05243 0 0 2.05243 -1925.5 468.986)"/><use xlink:href="#o" transform="matrix(2.05243 0 0 2.05243 -1925.5 468.986)"/><use xlink:href="#p" transform="matrix(2.05243 0 0 2.05243 -1925.5 468.986)"/><use xlink:href="#q" transform="matrix(2.05243 0 0 2.05243 -1925.5 468.986)"/><use xlink:href="#r" transform="matrix(2.05243 0 0 2.05243 -1925.5 468.986)"/><use xlink:href="#s" transform="matrix(2.05243 0 0 2.05243 -1925.5 468.986)"/><use xlink:href="#t" transform="matrix(2.05243 0 0 2.05243 -1925.5 468.986)"/><use xlink:href="#u" transform="matrix(2.05243 0 0 2.05243 -1925.5 468.986)"/><use xlink:href="#v" transform="matrix(2.05243 0 0 2.05243 -1925.5 468.986)"/><use xlink:href="#w" transform="matrix(2.05243 0 0 2.05243 -1925.5 468.986)"/><use xlink:href="#x" transform="matrix(2.05243 0 0 2.05243 -1925.5 468.986)"/><use xlink:href="#y" transform="matrix(2.05243 0 0 2.05243 -1925.5 468.986)"/><use xlink:href="#z" transform="matrix(2.05243 0 0 2.05243 -1925.5 468.986)"/><use xlink:href="#A" transform="matrix(2.05243 0 0 2.05243 -1925.5 468.986)"/><use xlink:href="#B" transform="matrix(2.05243 0 0 2.05243 -1925.5 468.986)"/><use xlink:href="#C" transform="matrix(2.05243 0 0 2.05243 -1925.5 468.986)"/><use xlink:href="#D" transform="matrix(2.05243 0 0 2.05243 -1925.5 468.986)"/><use xlink:href="#E" transform="matrix(2.05243 0 0 2.05243 -1925.5 468.986)"/><use xlink:href="#F" transform="matrix(2.05243 0 0 2.05243 -1925.5 468.986)"/><use xlink:href="#G" transform="matrix(2.05243 0 0 2.05243 -1925.5 468.986)"/><use xlink:href="#H" transform="matrix(2.05243 0 0 2.05243 -1925.5 468.986)"/><use xlink:href="#I" transform="matrix(2.05243 0 0 2.05243 -1925.5 468.986)"/><use xlink:href="#J" transform="matrix(2.05243 0 0 2.05243 -1925.5 468.986)"/><use xlink:href="#K" transform="matrix(2.05243 0 0 2.05243 -1925.5 468.986)"/><use xlink:href="#L" transform="matrix(2.05243 0 0 2.05243 -1925.5 468.986)"/><use xlink:href="#M" transform="matrix(2.05243 0 0 2.05243 -1925.5 468.986)"/><use xlink:href="#N" transform="matrix(2.05243 0 0 2.05243 -1925.5 468.986)"/><use xlink:href="#O" transform="matrix(2.05243 0 0 2.05243 -1925.5 468.986)"/><use xlink:href="#P" transform="matrix(2.05243 0 0 2.05243 -1925.5 468.986)"/><use xlink:href="#Q" transform="matrix(2.05243 0 0 2.05243 -1925.5 468.986)"/><use xlink:href="#R" transform="matrix(2.05243 0 0 2.05243 -1925.5 468.986)"/><use xlink:href="#S" transform="matrix(2.05243 0 0 2.05243 -1925.5 468.986)"/><use xlink:href="#T" transform="matrix(2.05243 0 0 2.05243 -1925.5 468.986)"/><use xlink:href="#U" transform="matrix(2.05243 0 0 2.05243 -1925.5 468.986)"/><use xlink:href="#V" transform="matrix(2.05243 0 0 2.05243 -1925.5 468.986)"/><use xlink:href="#W" transform="matrix(2.05243 0 0 2.05243 -1925.5 468.986)"/><use xlink:href="#X" transform="matrix(2.05243 0 0 2.05243 -1925.5 468.986)"/><use xlink:href="#Y" transform="matrix(2.05243 0 0 2.05243 -1925.5 468.986)"/><use xlink:href="#Z" transform="matrix(2.05243 0 0 2.05243 -1925.5 468.986)"/><use xlink:href="#aa" transform="matrix(2.05243 0 0 2.05243 -1925.5 468.986)"/></svg>