<svg xmlns="http://www.w3.org/2000/svg" width="184.46381mm" height="184.46381mm" viewBox="0 0 184.46381 184.46381"><g transform="translate(3.17 3.22)"><circle cx="89.061447" cy="89.011383" r="92.231903" style="fill:#f9f9f9;stroke:#fff;stroke-width:0"/><g style="fill:#041e42;fill-opacity:1"><path d="M0 0c-20.97 0-38.04 17.069-38.04 38.04 0 20.941 17.07 38.039 38.04 38.039 20.914 0 38.012-17.098 38.012-38.039C38.012 17.069 20.914 0 0 0m0 77.158c-21.551 0-39.146-17.567-39.146-39.118C-39.146 16.488-21.551-1.079 0-1.079c21.523 0 39.118 17.567 39.118 39.119 0 21.551-17.595 39.118-39.118 39.118" style="fill:#041e42;fill-opacity:1;fill-rule:nonzero;stroke:none" transform="matrix(2.27805 0 0 -2.27805 89.176 175.77)"/></g><g style="fill:#041e42;fill-opacity:1"><path d="M0 0c-15.576 0-28.274 12.671-28.274 28.247 0 15.575 12.698 28.246 28.274 28.246 15.575 0 28.246-12.671 28.246-28.246C28.246 12.671 15.575 0 0 0m0 57.239c-15.963 0-28.994-13.03-28.994-28.992C-28.994 12.284-15.963-.719 0-.719s28.965 13.003 28.965 28.966c0 15.962-13.002 28.992-28.965 28.992" style="fill:#041e42;fill-opacity:1;fill-rule:nonzero;stroke:none" transform="matrix(2.27805 0 0 -2.27805 89.176 153.46)"/></g><g style="fill:#041e42;fill-opacity:1"><path d="M0 0c4.813-4.896 12.145-3.928 15.962.941v-21.828C15.16-29.739 8.853-36.904 0-38.454c-8.88 1.55-15.188 8.715-15.991 17.567V.941C-12.173-3.928-4.814-4.896 0 0m-1.411 5.34-.802-1.301h-6.585V-.969c-3.043.444-5.588 2.657-6.446 5.008h-3.015v-22.685c0-13.612 9.765-20.694 18.259-21.939 8.465 1.245 18.203 8.327 18.203 21.939V4.039h-2.987c-.83-2.351-3.403-4.564-6.419-5.008v5.008H2.186L1.383 5.34Z" style="fill:#041e42;fill-opacity:1;fill-rule:nonzero;stroke:none" transform="matrix(2.27805 0 0 -2.27805 88.798 55.271)"/></g><g style="fill:#041e42;fill-opacity:1"><path d="M0 0h3.347v2.103h-7.469v5.975h7.469v2.019H-.221v3.128h2.268v2.267H-4.62v-2.267h1.964v-3.128h-3.928V0h4.398c-.166-.637-.221-1.301-.221-1.965 0-4.647 3.791-8.437 8.438-8.437 4.648 0 8.439 3.79 8.439 8.437 0 .361-.028.72-.084 1.079a5.923 5.923 0 0 1 4.981 5.838c0 2.822-1.965 5.2-4.593 5.782v2.491h2.102v2.267h-6.834v-2.267h2.102v-2.463a5.94 5.94 0 0 1-4.646-5.81c0-2.849 2.046-5.256 4.757-5.809a4.8 4.8 0 0 0 .112-1.108c0-3.485-2.85-6.334-6.336-6.334-3.513 0-6.363 2.849-6.363 6.334C-.332-1.272-.221-.637 0 0" style="fill:#041e42;fill-opacity:1;fill-rule:nonzero;stroke:none" transform="matrix(2.27805 0 0 -2.27805 74.806 105.121)"/></g><g style="fill:#041e42;fill-opacity:1"><path d="M0 0h-4.98v-2.684C-2.463-2.324-.83-.913 0 0" style="fill:#041e42;fill-opacity:1;fill-rule:nonzero;stroke:none" transform="matrix(2.27805 0 0 -2.27805 85.648 51.3)"/></g><g style="fill:#f9f9f9;fill-opacity:1"><path d="M0 0h-4.98v-2.684C-2.463-2.324-.83-.913 0 0Z" style="fill:#f9f9f9;fill-opacity:1;stroke:#231916;stroke-width:.144;stroke-linecap:butt;stroke-linejoin:miter;stroke-miterlimit:4;stroke-dasharray:none;stroke-opacity:1" transform="matrix(2.27805 0 0 -2.27805 85.648 51.3)"/></g><g style="fill:#041e42;fill-opacity:1"><path d="M0 0h4.979v-2.684C2.463-2.324.83-.913 0 0" style="fill:#041e42;fill-opacity:1;fill-rule:nonzero;stroke:none" transform="matrix(2.27805 0 0 -2.27805 91.886 51.3)"/></g><g style="fill:#f9f9f9;fill-opacity:1"><path d="M0 0h4.979v-2.684C2.463-2.324.83-.913 0 0Z" style="fill:#f9f9f9;fill-opacity:1;stroke:#231916;stroke-width:.144;stroke-linecap:butt;stroke-linejoin:miter;stroke-miterlimit:4;stroke-dasharray:none;stroke-opacity:1" transform="matrix(2.27805 0 0 -2.27805 91.886 51.3)"/></g><g style="fill:#041e42;fill-opacity:1;stroke:none;stroke-width:0;stroke-miterlimit:4;stroke-dasharray:none"><path d="M0 0a3.825 3.825 0 0 0 3.817-3.818c0-2.076-1.713-3.79-3.817-3.79-2.074 0-3.789 1.714-3.789 3.79C-3.789-1.717-2.074 0 0 0" style="fill:#041e42;fill-opacity:1;fill-rule:nonzero;stroke:none;stroke-width:0;stroke-miterlimit:4;stroke-dasharray:none" transform="matrix(2.27805 0 0 -2.27805 105.372 85.142)"/></g><g style="fill:#f9f9f9;fill-opacity:1"><path d="M0 0a3.825 3.825 0 0 0 3.817-3.818c0-2.076-1.713-3.79-3.817-3.79-2.074 0-3.789 1.714-3.789 3.79C-3.789-1.717-2.074 0 0 0Z" style="fill:#f9f9f9;fill-opacity:1;stroke:#231916;stroke-width:.144;stroke-linecap:butt;stroke-linejoin:miter;stroke-miterlimit:4;stroke-dasharray:none;stroke-opacity:1" transform="matrix(2.27805 0 0 -2.27805 105.372 85.142)"/></g><g style="fill:#041e42;fill-opacity:1"><path d="m0 0 .25.498c.082.139.192.276.304.359.359.36.775.498 1.245.47.47-.026.884-.221 1.244-.607.388-.388.554-.83.526-1.328-.027-.498-.249-.941-.664-1.329-.415-.386-.885-.552-1.41-.525-.526.055-.996.332-1.467.802A4.44 4.44 0 0 0-1.052.415c-.165.802-.137 1.688.112 2.628l.748-.11c-.14-.609-.196-1.162-.168-1.632C-.332.803-.192.359 0 0m.526-.802c.028-.055.082-.111.11-.166.029-.055.084-.083.111-.138.249-.277.554-.443.857-.471.305-.027.554.056.803.277a.92.92 0 0 1 .332.692c0 .248-.111.498-.304.719-.221.193-.443.304-.719.331a1.03 1.03 0 0 1-.72-.275 1.221 1.221 0 0 1-.331-.416C.581-.415.554-.608.526-.802m-4.068-2.573-.996 1.549-.221-2.323zm1.494-2.324-1.105 1.715-2.186-1.438-.221.331.526 4.842.304.222 1.881-2.906.58.388.387-.608-.58-.388 1.135-1.688zm-6.528-.305c-.138-.166-.304-.276-.415-.387a1.71 1.71 0 0 0-.415-.249c-.47-.193-.912-.166-1.355.028a1.845 1.845 0 0 0-.941.996c-.194.525-.194.996 0 1.467.193.469.582.801 1.078 1.023.555.193 1.052.193 1.523-.056.47-.221.829-.636 1.079-1.245a4.275 4.275 0 0 0 .249-2.351c-.139-.802-.471-1.632-1.024-2.435l-.664.36c.332.526.581 1.024.747 1.495.138.469.193.94.138 1.354m-.221.941v.028a1.44 1.44 0 0 1-.083.332c-.139.36-.36.609-.637.747a.93.93 0 0 1-.857.027.99.99 0 0 1-.554-.498c-.083-.248-.083-.498.029-.802.111-.276.303-.47.552-.581a.886.886 0 0 1 .747 0c.194.083.36.166.499.305.11.11.221.248.304.442m-6.253-5.893-1.383 5.977.83.193 1.383-5.976zm-8.133-.663-.111 6.114 3.68.055v-.775l-2.795-.028.028-1.852 2.739.027v-.775l-2.711-.055.028-1.908 2.904.054v-.775zm-2.878 1.632-.193-.969a5.661 5.661 0 0 0-1.162-.192c-.359-.029-.747 0-1.106.054a4.718 4.718 0 0 0-.941.332 2.399 2.399 0 0 0-.802.581c-.415.36-.664.802-.83 1.3a2.941 2.941 0 0 0-.083 1.55c.083.415.221.802.47 1.134.221.359.525.636.885.857.388.249.775.388 1.218.471.415.083.857.055 1.355-.027.333-.056.665-.167.969-.305.331-.139.663-.332.995-.581l-.193-.913a5.243 5.243 0 0 1-.996.664 2.91 2.91 0 0 1-.941.332c-.691.138-1.3.027-1.854-.332-.553-.331-.885-.829-.995-1.494-.139-.663-.028-1.245.359-1.771.36-.525.885-.829 1.55-.968a2.968 2.968 0 0 1 1.106-.028c.388.028.775.14 1.189.305m-13.804 3.015 2.573 5.534.691-.333 1.632-6.002 2.02 4.315.775-.36-2.573-5.561-.719.332-1.605 6.004-2.02-4.315zm-3.707 2.38.719-.499 3.513 5.008-.719.471zm-4.62 4.703.83.774c-.055-.415-.028-.746.055-1.024a1.64 1.64 0 0 1 .442-.718c.194-.194.416-.332.637-.332.221-.029.415.027.608.221.139.139.222.304.222.47.027.193 0 .554-.139 1.052-.165.801-.221 1.355-.165 1.632.027.303.193.581.414.802.332.36.748.498 1.19.47.443 0 .858-.221 1.245-.58.166-.167.304-.36.415-.582.11-.193.193-.442.277-.692l-.719-.719c-.028.36-.083.636-.194.858a1.71 1.71 0 0 1-.36.581 1.099 1.099 0 0 1-.636.332.667.667 0 0 1-.554-.167c-.193-.22-.221-.746-.027-1.576.027-.056.027-.11.027-.139.166-.635.222-1.134.139-1.465-.055-.332-.249-.637-.526-.913-.332-.333-.719-.499-1.189-.471-.443.028-.858.221-1.245.581-.222.25-.388.498-.526.747a2.577 2.577 0 0 0-.221.858" style="fill:#041e42;fill-opacity:1;fill-rule:nonzero;stroke:none" transform="matrix(2.27805 0 0 -2.27805 139.278 146.653)"/></g><g style="fill:#041e42;fill-opacity:1"><path d="m0 0 3.016-.415 3.375 1.908L6.225.47 3.68-.969l2.047-2.157-.139-1.023L2.85-1.301l-2.989.416Zm.082 6.971 5.313.443-.194 2.241.775.083.469-5.34-.801-.083-.194 2.242-5.284-.471Zm-1.105 5.312 5.864 1.771.249-.83-5.836-1.771zm-1.799 5.893a2.314 2.314 0 0 1-.082-.858c.027-.304.109-.582.248-.885.221-.47.553-.802.968-.968.415-.194.831-.166 1.274.026.358.167.636.388.802.665.193.304.303.775.386 1.466.029.028.029.083.029.139.109.857.303 1.328.552 1.466a.68.68 0 0 0 .61-.028c.193-.083.332-.276.441-.525.112-.194.166-.415.166-.664 0-.249-.027-.553-.109-.886l.912.442c.027.25.027.527-.027.747-.028.25-.083.471-.195.665-.22.499-.552.83-.967.996a1.565 1.565 0 0 1-1.274-.028 1.427 1.427 0 0 1-.662-.608c-.168-.276-.277-.803-.389-1.633-.083-.525-.166-.857-.248-1.023a.883.883 0 0 0-.387-.387c-.222-.111-.443-.111-.636 0-.195.083-.361.276-.499.553a1.652 1.652 0 0 0-.138.83c0 .276.11.608.276.996zm-.692 6.473.415-.581c.249-.332.498-.525.747-.608.221-.056.498 0 .747.193.277.194.416.415.416.636 0 .25-.111.554-.36.886l-.443.609zm-3.319-1.328 4.952 3.597 1.051-1.439c.359-.498.525-.968.471-1.411-.028-.442-.278-.83-.692-1.134-.332-.248-.637-.36-.969-.36-.304 0-.609.139-.941.388v-.36a3.598 3.598 0 0 0-.166-.553l-.939-2.518-.637.858.691 1.77c.194.554.305.941.305 1.162-.028.249-.083.471-.249.692l-.166.194-2.214-1.605zm-4.593 4.483 2.822-2.463.526.581-2.186 1.909 1.245 1.439 2.076-1.798.497.608-2.048 1.771 1.219 1.411 2.101-1.855.526.581-2.766 2.436zm-4.316 2.711.498 6.694.803-.442-.36-4.731 3.735 2.933.802-.415-5.284-4.15zm-5.173 2.323 1.991 5.782.83-.276-1.991-5.782zm-8.41 1.66.747 6.059.775-.083 3.403-5.202.58 4.704.858-.083-.747-6.087-.774.111-3.404 5.201-.58-4.731zm-8.908 5.34.858.11.442-3.486c.028-.388.083-.664.166-.829a.95.95 0 0 1 .249-.388c.194-.194.443-.332.692-.388.249-.083.553-.109.858-.054.525.054.94.248 1.217.552.304.305.415.692.359 1.135l-.47 3.873.858.111.47-3.901c.083-.664-.083-1.245-.527-1.743-.414-.471-1.022-.747-1.797-.857a3.181 3.181 0 0 0-1.273.083c-.387.138-.746.331-1.023.608a1.405 1.405 0 0 0-.415.581c-.111.249-.166.581-.222 1.079zm-7.331-9.269-.083 6.668.581.248 4.952-4.481-.83-.388-1.467 1.329-2.379-1.051.028-1.964zm.774 3.182 1.743.775-1.77 1.604zm-4.952-4.039-.415.581 1.882 1.328.414-.608zm-3.375-.996 1.854-1.798a5.842 5.842 0 0 0-.498-1.107 4.698 4.698 0 0 0-.637-.83 4.219 4.219 0 0 0-.802-.636c-.304-.166-.609-.305-.913-.36a2.946 2.946 0 0 0-1.549.028 3.044 3.044 0 0 0-1.356.775 2.788 2.788 0 0 0-.691.996 2.654 2.654 0 0 0-.222 1.217c0 .442.083.885.249 1.272.166.388.443.776.775 1.134.249.249.498.471.802.665.305.194.636.359.996.497l.692-.664c-.415-.137-.803-.276-1.107-.469a2.948 2.948 0 0 1-.802-.609c-.498-.499-.747-1.079-.747-1.743 0-.637.249-1.189.719-1.66a2.27 2.27 0 0 1 1.688-.636c.636 0 1.189.275 1.687.775.139.137.25.303.388.498.11.193.193.386.276.608l-.83.829-.802-.829-.581.553zm-5.809-13.251-5.395 2.877.359.664 6.059 1.327-4.178 2.241.415.776 5.395-2.877-.359-.693-6.087-1.3 4.205-2.241zm-5.34-8.051a2.741 2.741 0 0 0-1.079.498c-.36.249-.636.554-.83.913-.221.387-.387.775-.443 1.189-.055.416-.055.831.056 1.273.083.415.277.802.498 1.161.249.361.553.638.913.886.359.222.774.388 1.162.443.415.082.83.055 1.272-.028.387-.11.775-.276 1.107-.525.332-.222.609-.526.83-.913.221-.36.36-.775.415-1.19.083-.415.055-.83-.055-1.272a3.083 3.083 0 0 0-.498-1.162 3.372 3.372 0 0 0-.914-.859 3.045 3.045 0 0 0-1.161-.47 3.317 3.317 0 0 0-1.273.056m.249.886c.304-.056.609-.084.913-.029.304.055.581.167.83.333.276.138.498.359.664.608.193.249.304.526.387.83.083.305.083.608.028.914-.055.303-.166.58-.332.857a2.77 2.77 0 0 1-.609.664 2.227 2.227 0 0 1-.83.359 2.013 2.013 0 0 1-.913.028 1.848 1.848 0 0 1-.857-.332c-.249-.138-.471-.36-.664-.608a2.226 2.226 0 0 1-.36-.831 1.92 1.92 0 0 1-.028-.885c.056-.304.166-.608.332-.885.139-.249.36-.47.609-.636.249-.194.526-.305.83-.387M-67.171.442c-.028.443-.028.83.028 1.162.055.333.165.636.332.913a2.8 2.8 0 0 0 .996 1.051c.415.278.885.415 1.411.471.525.055.996-.027 1.466-.222.47-.166.857-.469 1.162-.857.193-.249.359-.525.47-.857.111-.305.194-.693.222-1.134l.193-2.241-6.087-.527zm.83.055.139-1.382 4.426.387-.138 1.383c-.056.747-.305 1.328-.72 1.716-.442.415-.996.581-1.687.525-.692-.083-1.218-.332-1.577-.802-.36-.471-.498-1.079-.443-1.827" style="fill:#041e42;fill-opacity:1;fill-rule:nonzero;stroke:none" transform="matrix(2.27805 0 0 -2.27805 158.563 97.495)"/></g><g style="fill:#041e42;fill-opacity:1"><path d="M0 0c.47 0 .857-.388.857-.857A.861.861 0 0 0 0-1.715a.862.862 0 0 0-.858.858C-.858-.388-.47 0 0 0" style="fill:#041e42;fill-opacity:1;fill-rule:nonzero;stroke:none" transform="matrix(2.27805 0 0 -2.27805 20.545 122.327)"/></g><g style="fill:#041e42;fill-opacity:1"><path d="M0 0a.862.862 0 0 0 .856-.857A.861.861 0 0 0 0-1.715a.863.863 0 0 0-.859.858C-.859-.388-.471 0 0 0" style="fill:#041e42;fill-opacity:1;fill-rule:nonzero;stroke:none" transform="matrix(2.27805 0 0 -2.27805 156.864 122.327)"/></g></g></svg>