<svg xmlns="http://www.w3.org/2000/svg" width="158.66858mm" height="158.66858mm" viewBox="0 0 158.66858 158.66858"><path d="M0 0c51.092 0 92.512 41.42 92.512 92.512S51.092 185.024 0 185.024c-51.093 0-92.512-41.42-92.512-92.512S-51.093 0 0 0" style="fill:#2350a9;fill-opacity:1;fill-rule:nonzero;stroke:none" transform="matrix(.85756 0 0 -.85756 79.334 158.669)"/><path d="M0 0c48.538 0 87.886 39.349 87.886 87.887 0 48.537-39.348 87.886-87.886 87.886s-87.886-39.349-87.886-87.886C-87.886 39.349-48.538 0 0 0Z" style="fill:none;stroke:#bdbcbc;stroke-width:2.5;stroke-linecap:butt;stroke-linejoin:miter;stroke-miterlimit:4;stroke-dasharray:none;stroke-opacity:1" transform="matrix(.85756 0 0 -.85756 79.334 154.702)"/><path d="M0 0c35.301 0 63.92 28.618 63.92 63.92 0 35.302-28.619 63.92-63.92 63.92-35.302 0-63.92-28.618-63.92-63.92C-63.92 28.618-35.302 0 0 0Z" style="fill:none;stroke:#bdbcbc;stroke-width:2.063;stroke-linecap:butt;stroke-linejoin:miter;stroke-miterlimit:4;stroke-dasharray:none;stroke-opacity:1" transform="matrix(.85756 0 0 -.85756 79.334 134.15)"/><path d="M0 0a3.21 3.21 0 1 1 0 6.418A3.21 3.21 0 0 1 0 0" style="fill:#bdbcbc;fill-opacity:1;fill-rule:nonzero;stroke:none" transform="matrix(.85756 0 0 -.85756 128.14 126.85)"/><path d="M0 0a3.21 3.21 0 1 1 0 6.418A3.21 3.21 0 0 1 0 0" style="fill:#bdbcbc;fill-opacity:1;fill-rule:nonzero;stroke:none" transform="matrix(.85756 0 0 -.85756 136.284 113.96)"/><path d="M0 0a3.21 3.21 0 1 1 0 6.419A3.21 3.21 0 0 1 0 0" style="fill:#bdbcbc;fill-opacity:1;fill-rule:nonzero;stroke:none" transform="matrix(.85756 0 0 -.85756 142.377 100.007)"/><path d="M0 0a3.208 3.208 0 1 0 0 6.417A3.208 3.208 0 0 0 0 0" style="fill:#bdbcbc;fill-opacity:1;fill-rule:nonzero;stroke:none" transform="matrix(.85756 0 0 -.85756 30.861 126.85)"/><path d="M0 0a3.208 3.208 0 1 0 0 6.417A3.208 3.208 0 0 0 0 0" style="fill:#bdbcbc;fill-opacity:1;fill-rule:nonzero;stroke:none" transform="matrix(.85756 0 0 -.85756 22.718 113.96)"/><path d="M0 0a3.209 3.209 0 1 0 .001 6.417A3.209 3.209 0 0 0 0 0" style="fill:#bdbcbc;fill-opacity:1;fill-rule:nonzero;stroke:none" transform="matrix(.85756 0 0 -.85756 16.625 100.007)"/><path d="m0 0 1.817-.68 2.356 6.294-1.817.681Z" style="fill:#bdbcbc;fill-opacity:1;fill-rule:nonzero;stroke:none" transform="matrix(.85756 0 0 -.85756 63.107 144.069)"/><path d="M0 0c-.437 1.045-.235 3-.235 3l-1.758.659S-3.125 2.052-4.141 1.55a5.684 5.684 0 0 0-2.72-.576l-.63-1.682s3.492-.367 5.357 1.312c.303-2.491 3.177-4.507 3.177-4.507l.63 1.682A5.679 5.679 0 0 0 0 0" style="fill:#bdbcbc;fill-opacity:1;fill-rule:nonzero;stroke:none" transform="matrix(.85756 0 0 -.85756 61.535 139.874)"/><path d="M0 0c.121-.423.403-.633.824-.817l8.764-3.281.595 1.588L2.007.551l.948 2.533-1.817.681L.088.958S-.13.445 0 0" style="fill:#bdbcbc;fill-opacity:1;fill-rule:nonzero;stroke:none" transform="matrix(.85756 0 0 -.85756 55.118 144.612)"/><path d="m0 0-3.083 4.771s-.281.481-.717.642c-.411.155-.748.054-1.146-.175l-8.456-5.463.921-1.423 7.927 5.122 2.925-4.527-1.579-1.02L-5.027.742l-1.63-1.053 1.819-2.815-1.587-1.025-1.819 2.815-1.63-1.053 1.819-2.815-1.685-1.089.92-1.424L1.354-1.144.434.28z" style="fill:#bdbcbc;fill-opacity:1;fill-rule:nonzero;stroke:none" transform="matrix(.85756 0 0 -.85756 120.562 134.152)"/><path d="M0 0v-2.429h-.793V0h-1.94v-5.465h-4.948v3.732h3.582v1.695h-5.523l.001-5.718s-.025-.556.254-.928c.262-.354.599-.451 1.058-.476h5.576v-3.872h1.94v6.908H0v-6.908h1.94V0Z" style="fill:#bdbcbc;fill-opacity:1;fill-rule:nonzero;stroke:none" transform="matrix(.85756 0 0 -.85756 82.462 140.338)"/><path d="M0 0a1.836 1.836 0 1 0 2.203 2.938A1.836 1.836 0 0 0 0 0m8.041.711L4.009 3.732l.319.425 3.795-2.844L9.139 2.67 1.586 8.33l.463.618 7.554-5.661 1.017 1.357-9.107 6.824L-.14 9.261s-.354-.431-.354-.895c-.003-.44.209-.721.561-1.016l2.708-2.03-.318-.424-4.081 3.058-1.017-1.357 2.41-1.806a3.58 3.58 0 0 1-.814-6.186 3.578 3.578 0 0 1 5.708 2.519l2.361-1.77z" style="fill:#bdbcbc;fill-opacity:1;fill-rule:nonzero;stroke:none" transform="matrix(.85756 0 0 -.85756 41.252 137.151)"/><path d="M0 0c.123.422.406.631.828.814l1.744.645.589-1.59-1.155-.427 1.711-4.628-1.82-.673L.085-.958S-.132-.445 0 0" style="fill:#bdbcbc;fill-opacity:1;fill-rule:nonzero;stroke:none" transform="matrix(.85756 0 0 -.85756 99.769 137.511)"/><path d="M0 0a1.498 1.498 0 1 0-1.04 2.809A1.498 1.498 0 0 0 0 0m2.357 5.888-3.08-1.14-.336.909-1.82-.673.337-.909-3.08-1.139.588-1.59 1.312.485a3.23 3.23 0 1 1 5.355 1.981l1.312.485z" style="fill:#bdbcbc;fill-opacity:1;fill-rule:nonzero;stroke:none" transform="matrix(.85756 0 0 -.85756 96.723 142.732)"/><path d="m0 0 1.82.674L.481 4.296-9.703.528l.588-1.59 8.364 3.095z" style="fill:#bdbcbc;fill-opacity:1;fill-rule:nonzero;stroke:none" transform="matrix(.85756 0 0 -.85756 102.665 146.007)"/><path d="M0 0c-3.739.655-6.532-1.73-7.026-4.551l-.821-4.69 12.12-2.121.821 4.69C5.605-3.755 3.803-.666 0 0m-.334-2.001c2.595-.455 4.079-2.508 3.616-5.151l-.341-1.951-8.768 1.535.342 1.95c.46 2.627 2.572 4.068 5.151 3.617" style="fill:#bdbcbc;fill-opacity:1;fill-rule:nonzero;stroke:none" transform="matrix(.85756 0 0 -.85756 16.813 65.908)"/><path d="M0 0c-3.356 1.108-7.035-.745-8.147-4.117-1.108-3.356.75-7.019 4.106-8.127a6.453 6.453 0 0 1 8.159 4.097A6.432 6.432 0 0 1 0 0m-.58-1.756a4.612 4.612 0 0 0 2.952-5.832c-.795-2.409-3.399-3.721-5.838-2.915-2.409.795-3.715 3.414-2.921 5.822.801 2.424 3.405 3.736 5.813 2.941z" style="fill:#bdbcbc;fill-opacity:1;fill-rule:nonzero;stroke:none" transform="matrix(.85756 0 0 -.85756 20.636 53.62)"/><path d="m0 0-10.667-.799 8.021-4.225-.931-1.767-10.886 5.735.999 1.896 10.687.77-8.049 4.24.946 1.795L1.007 1.91Z" style="fill:#bdbcbc;fill-opacity:1;fill-rule:nonzero;stroke:none" transform="matrix(.85756 0 0 -.85756 29.305 48.311)"/><path d="M0 0a6.453 6.453 0 0 0-9.076-.979c-2.756 2.214-3.213 6.295-.999 9.051 1.804 2.245 4.864 2.998 7.662 1.884L-3.622 8.45c-1.821.476-3.761.021-5.001-1.523-1.568-1.952-1.295-4.879.695-6.477 2.003-1.609 4.942-1.242 6.489.685A4.613 4.613 0 0 1-1.162 6.6l-3.259-4.056L-5.76 3.62l4.529 5.638C1.831 6.799 2.255 2.806 0 0" style="fill:#bdbcbc;fill-opacity:1;fill-rule:nonzero;stroke:none" transform="matrix(.85756 0 0 -.85756 34.358 41.442)"/><path d="M0 0c-2.045-1.712-4.673-1.351-6.175.443l1.53 1.282C-3.72.62-2.197.38-1.105 1.294c1.104.925 1.242 2.213.538 3.054-.557.665-1.077.827-2.866.161-4.132-1.539-5.404-.427-5.709-.063-1.261 1.506-.901 3.983.842 5.443 1.769 1.481 4.179 1.279 5.668-.27l-1.556-1.303c-.672.803-2.053 1.077-3.02.268-.953-.798-1.095-2.005-.433-2.796.766-.916 2.868.246 4.023.573 2.335.653 3.462.657 4.565-.66C2.238 4.157 1.845 1.544 0 0" style="fill:#bdbcbc;fill-opacity:1;fill-rule:nonzero;stroke:none" transform="matrix(.85756 0 0 -.85756 41.46 34.186)"/><path d="m0 0-2.647 4.855-4.856-2.647 2.648-4.855-1.753-.957L-12.499 7.2l1.753.955 2.428-4.453 4.856 2.648-2.429 4.453 1.753.955L1.752.956z" style="fill:#bdbcbc;fill-opacity:1;fill-rule:nonzero;stroke:none" transform="matrix(.85756 0 0 -.85756 51.785 27.144)"/><path d="m0 0-4.246 11.566 1.874.688L1.874.688Z" style="fill:#bdbcbc;fill-opacity:1;fill-rule:nonzero;stroke:none" transform="matrix(.85756 0 0 -.85756 56.407 25.2)"/><path d="m0 0-7.525 7.601 1.985-8.845-1.948-.437-2.695 12.006 2.092.469 7.517-7.636-1.993 8.877 1.98.444L2.107.473z" style="fill:#bdbcbc;fill-opacity:1;fill-rule:nonzero;stroke:none" transform="matrix(.85756 0 0 -.85756 67.506 22.034)"/><path d="M0 0c-2.634.032-4.571 2.248-4.542 4.653l.096 8.001 1.996-.024-.1-8.312A2.583 2.583 0 0 1 .021 1.702a2.583 2.583 0 0 1 2.632 2.554l.1 8.311 2.028-.024-.095-8.001C4.656 2.121 2.667-.032 0 0" style="fill:#bdbcbc;fill-opacity:1;fill-rule:nonzero;stroke:none" transform="matrix(.85756 0 0 -.85756 83.125 20.965)"/><path d="m0 0-3.925 9.95-1.657-8.912-1.963.365 2.25 12.097 2.107-.391 3.904-9.98 1.662 8.945 1.995-.371L2.124-.395Z" style="fill:#bdbcbc;fill-opacity:1;fill-rule:nonzero;stroke:none" transform="matrix(.85756 0 0 -.85756 96.44 22.185)"/><path d="m0 0 4.099 11.62 1.881-.664L1.883-.664Z" style="fill:#bdbcbc;fill-opacity:1;fill-rule:nonzero;stroke:none" transform="matrix(.85756 0 0 -.85756 101.261 23.595)"/><path d="m0 0-1.623.884L.023 13.999l1.926-1.049L.564 2.953l7.635 6.592 1.926-1.049Z" style="fill:#bdbcbc;fill-opacity:1;fill-rule:nonzero;stroke:none" transform="matrix(.85756 0 0 -.85756 109.759 27.351)"/><path d="m0 0 7.962 9.382 6.213-5.273-1.102-1.297-4.69 3.98-2.182-2.569L10.768.348 9.667-.95 5.101 2.925 2.623.006 7.426-4.07 6.325-5.368Z" style="fill:#bdbcbc;fill-opacity:1;fill-rule:nonzero;stroke:none" transform="matrix(.85756 0 0 -.85756 114.177 30.044)"/><path d="m0 0 1.411 5.724c1.302-1.351 3.575-1.634 5.137-.417 1.717 1.337 1.933 3.828.677 5.442l-3.107 3.989-9.708-7.561 1.236-1.587L.591 9.44c-.185-.455-1.2-4.503-1.988-7.646Zm4.013 12.104 1.688-2.168a2.172 2.172 0 0 0-.389-3.041c-.93-.724-2.28-.51-3.003.419L.63 9.47Z" style="fill:#bdbcbc;fill-opacity:1;fill-rule:nonzero;stroke:none" transform="matrix(.85756 0 0 -.85756 126.32 42.79)"/><path d="M0 0c-1.242 2.36-.337 4.853 1.733 5.943l.931-1.766C1.39 3.506.835 2.067 1.499.808 2.17-.466 3.4-.872 4.37-.361c.768.404 1.035.879.762 2.768-.635 4.364.72 5.373 1.139 5.594 1.738.915 4.083.043 5.144-1.969 1.075-2.042.371-4.355-1.457-5.484l-.946 1.795c.926.488 1.484 1.781.897 2.896C9.33 6.338 8.18 6.732 7.268 6.251c-1.057-.556-.365-2.855-.288-4.054.147-2.419-.085-3.522-1.606-4.322C3.593-3.063 1.121-2.128 0 0" style="fill:#bdbcbc;fill-opacity:1;fill-rule:nonzero;stroke:none" transform="matrix(.85756 0 0 -.85756 129.26 48.501)"/><path d="m0 0 11.476 4.483.726-1.859L.726-1.859Z" style="fill:#bdbcbc;fill-opacity:1;fill-rule:nonzero;stroke:none" transform="matrix(.85756 0 0 -.85756 132.35 54.602)"/><path d="m0 0-10.209-2.868-.54 1.922L-.541 1.922l-.912 3.245 1.639.46 2.363-8.412-1.639-.46z" style="fill:#bdbcbc;fill-opacity:1;fill-rule:nonzero;stroke:none" transform="matrix(.85756 0 0 -.85756 144.109 61.094)"/><path d="m0 0-4.36-.703-.321 1.987 4.361.703 7.074 5.681.387-2.407L2.2 1.366 8.11-.748l.393-2.44Z" style="fill:#bdbcbc;fill-opacity:1;fill-rule:nonzero;stroke:none" transform="matrix(.85756 0 0 -.85756 141.101 72.532)"/><path d="M0 0a3.059 3.059 0 0 0-.382-.965c-.201-.344-.416-.6-.646-.771a1.183 1.183 0 0 0-.716-.254c-.246.002-.545.108-.906.318l-.608.355 1.814 3.127.596-.348c.391-.227.644-.453.758-.677C.025.562.055.299 0 0m.412.972c-.164.288-.511.588-1.044.898l-1.094.638-2.302-3.961 1.166-.68c.499-.29.919-.424 1.273-.399.353.024.678.147.975.367.296.221.56.53.793.93.249.428.39.831.424 1.208C.638.35.573.684.412.972" style="fill:#2350a9;fill-opacity:1;fill-rule:nonzero;stroke:none" transform="matrix(.85756 0 0 -.85756 54.518 109.16)"/><path d="M0 0c-.262-.534-.578-.912-.945-1.131-.369-.22-.741-.238-1.116-.054-.373.183-.586.488-.64.913-.053.426.051.907.313 1.44.261.532.576.91.946 1.13.37.22.741.239 1.114.056.375-.183.589-.489.641-.916C.365 1.012.261.532 0 0m.852 1.582a1.765 1.765 0 0 1-.978 1.183c-.516.253-1.027.27-1.538.051-.51-.219-.936-.677-1.278-1.376-.342-.698-.443-1.316-.303-1.855.14-.537.467-.932.982-1.184.514-.241 1.028-.257 1.539-.045.512.214.939.672 1.276 1.372.341.697.441 1.316.3 1.854" style="fill:#2350a9;fill-opacity:1;fill-rule:nonzero;stroke:none" transform="matrix(.85756 0 0 -.85756 57.654 111.718)"/><path d="m0 0-.715 3.811-.04.414-.129-.347L-2.113.857l-.503.207L-.898 5.3l.546-.222.717-3.795.042-.408.124.338 1.226 3.01.51-.206L.542-.22Z" style="fill:#2350a9;fill-opacity:1;fill-rule:nonzero;stroke:none" transform="matrix(.85756 0 0 -.85756 60.238 114.937)"/><path d="M0 0c-.535-.068-1.013-.034-1.431.104-.435.145-.759.347-.972.608a1.914 1.914 0 0 0-.398.961c-.054.379.003.823.172 1.331.188.562.411.983.668 1.25.257.268.554.447.891.537.337.089.694.071 1.074-.054.261-.086.483-.205.669-.358.187-.152.315-.334.386-.543.071-.208.079-.383.025-.547l-.009-.029-.525.173.01.028a.419.419 0 0 1-.024.309.842.842 0 0 1-.239.306c-.11.09-.245.163-.405.216-.424.139-.8.08-1.133-.178-.331-.258-.592-.666-.784-1.247-.192-.58-.228-1.076-.111-1.487.116-.413.383-.687.798-.824.244-.08.546-.115.905-.105l.41 1.243-.979.323.142.435 1.504-.496z" style="fill:#2350a9;fill-opacity:1;fill-rule:nonzero;stroke:none" transform="matrix(.85756 0 0 -.85756 64.29 116.148)"/><path d="m0 0-.008-.028-.575.151.006.029a.345.345 0 0 1-.031.237.51.51 0 0 1-.221.221 1.528 1.528 0 0 1-.372.148c-.283.073-.512.058-.686-.048a.691.691 0 0 1-.327-.432.936.936 0 0 1 .005-.369.809.809 0 0 1 .196-.337 4.83 4.83 0 0 1 .5-.433l.24-.189c.385-.302.624-.575.716-.822.09-.246.105-.489.041-.729a1.332 1.332 0 0 0-.346-.6 1.216 1.216 0 0 0-.616-.346c-.238-.053-.532-.034-.867.058-.332.087-.598.198-.8.335a.986.986 0 0 0-.402.523c-.07.211-.075.425-.019.64l.008.028.577-.15-.008-.03c-.064-.245-.022-.439.125-.58.149-.142.367-.25.648-.326a.954.954 0 0 1 .685.055.754.754 0 0 1 .409.513.618.618 0 0 1-.096.534c-.115.16-.305.342-.573.542l-.206.155c-.27.211-.47.4-.592.568a1.322 1.322 0 0 0-.237.512 1.19 1.19 0 0 0 .021.548c.088.335.28.585.576.743.287.169.688.187 1.193.055.463-.121.766-.281.911-.502A.815.815 0 0 0 0 0" style="fill:#2350a9;fill-opacity:1;fill-rule:nonzero;stroke:none" transform="matrix(.85756 0 0 -.85756 68.18 113.975)"/><path d="m0 0-.585.114.395 2.048-2.068.399-.395-2.048-.586.113.869 4.501.586-.112-.387-2.005 2.067-.4.389 2.005.584-.113Z" style="fill:#2350a9;fill-opacity:1;fill-rule:nonzero;stroke:none" transform="matrix(.85756 0 0 -.85756 70.973 117.891)"/><path d="m0 0-.59.085.653 4.538.591-.085Z" style="fill:#2350a9;fill-opacity:1;fill-rule:nonzero;stroke:none" transform="matrix(.85756 0 0 -.85756 72.339 118.08)"/><path d="m0 0-.582.054-1.785 3.455-.157.386-.022-.369-.307-3.258-.546.052.429 4.564.588-.055 1.78-3.44.157-.38.022.36.305 3.248.548-.053z" style="fill:#2350a9;fill-opacity:1;fill-rule:nonzero;stroke:none" transform="matrix(.85756 0 0 -.85756 76.114 118.487)"/><path d="M0 0a1.317 1.317 0 0 0-.523-.521c-.234-.129-.526-.195-.875-.202a2.61 2.61 0 0 0-.903.139 1.164 1.164 0 0 0-.612.461c-.136.21-.208.568-.214 1.073l-.041 3.029.596.007.041-2.948c.006-.429.051-.716.136-.862A.803.803 0 0 1-2-.154a1.47 1.47 0 0 1 .597-.107c.212.003.399.044.556.123a.743.743 0 0 1 .36.369c.079.168.112.517.105 1.047l-.035 2.738.548.007.04-2.892C.178.596.121.218 0 0" style="fill:#2350a9;fill-opacity:1;fill-rule:nonzero;stroke:none" transform="matrix(.85756 0 0 -.85756 81.454 118.072)"/><path d="m0 0-2.373 3.082-.223.352.044-.368.28-3.261-.549-.047-.391 4.568.589.05 2.365-3.067.222-.345-.042.359-.279 3.249.548.047L.583.05z" style="fill:#2350a9;fill-opacity:1;fill-rule:nonzero;stroke:none" transform="matrix(.85756 0 0 -.85756 84.905 118.305)"/><path d="m0 0-.619 4.542.592.082L.59.08Z" style="fill:#2350a9;fill-opacity:1;fill-rule:nonzero;stroke:none" transform="matrix(.85756 0 0 -.85756 86.267 118.136)"/><path d="m0 0-.59-.111-2.546 4.187.637.119L-.375.684l.824 4.064.546.103z" style="fill:#2350a9;fill-opacity:1;fill-rule:nonzero;stroke:none" transform="matrix(.85756 0 0 -.85756 89.315 117.644)"/><path d="m0 0-1.135 4.442 2.51.629.125-.478-1.932-.492.358-1.4 1.686.43.114-.443-1.687-.431.413-1.62 2.087.532.125-.49Z" style="fill:#2350a9;fill-opacity:1;fill-rule:nonzero;stroke:none" transform="matrix(.85756 0 0 -.85756 91.486 117.194)"/><path d="M0 0a.805.805 0 0 0-.189-.407c-.097-.111-.263-.202-.498-.277l-.556-.176-.512 1.604.596.19c.262.083.458.104.59.065A.78.78 0 0 0-.234.807.854.854 0 0 0-.033.469.976.976 0 0 0 0 0m.788-1.341c-.08.076-.171.155-.271.239a1.551 1.551 0 0 1-.245.174 1.032 1.032 0 0 1-.258.082c.217.179.367.35.445.515.08.164.127.335.144.513C.618.359.6.521.545.692a1.26 1.26 0 0 1-.334.543 1.07 1.07 0 0 1-.528.29c-.198.044-.462.013-.794-.093l-1.353-.429 1.386-4.357.568.179-.594 1.879.574.181c.301-.134.569-.316.802-.547l.97-.958.651.206z" style="fill:#2350a9;fill-opacity:1;fill-rule:nonzero;stroke:none" transform="matrix(.85756 0 0 -.85756 95.437 113.52)"/><path d="M0 0a1.225 1.225 0 0 0-.301-.64c-.164-.18-.413-.335-.739-.463a2.53 2.53 0 0 0-.845-.189.993.993 0 0 0-.633.19 1.143 1.143 0 0 0-.385.511l-.008.027.556.212.01-.027c.091-.237.238-.371.441-.4.202-.03.442.008.721.113a.943.943 0 0 1 .518.446.757.757 0 0 1 .036.655.625.625 0 0 1-.377.38c-.186.064-.447.101-.78.108l-.259.006c-.351.01-.625.048-.821.113a1.29 1.29 0 0 0-.49.268 1.178 1.178 0 0 0-.301.458c-.124.324-.113.641.032.95.144.31.46.558.949.743.447.17.793.207 1.039.111a.816.816 0 0 0 .492-.476l.012-.029-.557-.211-.012.028a.35.35 0 0 1-.163.175.512.512 0 0 1-.309.051 1.496 1.496 0 0 1-.387-.095c-.274-.104-.451-.25-.531-.436a.7.7 0 0 1 .201-.841.82.82 0 0 1 .356-.16 5.03 5.03 0 0 1 .658-.063l.305-.014c.489-.022.831-.106 1.049-.253.216-.137.369-.326.457-.558C.015.475.038.244 0 0" style="fill:#2350a9;fill-opacity:1;fill-rule:nonzero;stroke:none" transform="matrix(.85756 0 0 -.85756 99.73 114.105)"/><path d="m0 0-1.789 4.209.548.232L.549.232z" style="fill:#2350a9;fill-opacity:1;fill-rule:nonzero;stroke:none" transform="matrix(.85756 0 0 -.85756 100.642 114.198)"/><path d="m0 0-1.749 3.724-1.412-.662-.195.417 3.341 1.564.196-.417-1.391-.65L.537.24Z" style="fill:#2350a9;fill-opacity:1;fill-rule:nonzero;stroke:none" transform="matrix(.85756 0 0 -.85756 102.776 113.257)"/><path d="m0 0-1.014 1.906-2.45 1.444.613.326 1.88-1.097.131 2.167.51.272-.159-2.832L.524.279z" style="fill:#2350a9;fill-opacity:1;fill-rule:nonzero;stroke:none" transform="matrix(.85756 0 0 -.85756 105.792 111.774)"/><path d="m0 0-.165-.308c-1.722-3.004-4.677-2.76-4.677-2.76h-15.56V0h-21.694v-3.068h-15.429s-2.824-.256-4.811 2.843l-.108.225h-14.464v-3.629s5.576-1.728 5.576-6.508v-5.46H8.982v5.483c0 4.649 5.541 6.446 5.541 6.446V0Z" style="fill:#bdbcbc;fill-opacity:1;fill-rule:nonzero;stroke:none" transform="matrix(.85756 0 0 -.85756 106.519 49.308)"/><path d="m0 0-39.912-.013c-.166.734.322-4.847 7.353-8.806 7.431-4.199 14.201-5.469 19.631-6.332l.569-.09c5.156-.82 9.895-1.961 12.411-3.969z" style="fill:#bdbcbc;fill-opacity:1;fill-rule:nonzero;stroke:none" transform="matrix(.85756 0 0 -.85756 79.778 106.926)"/><path d="m0 0 39.911-.013c.166.734-.321-4.847-7.353-8.806-7.43-4.199-14.201-5.469-19.63-6.332l-.57-.09c-5.156-.82-9.895-1.961-12.411-3.969" style="fill:#bdbcbc;fill-opacity:1;fill-rule:nonzero;stroke:none" transform="matrix(.85756 0 0 -.85756 79.868 106.926)"/><path d="M0 0s-1.115-.259-1.978 1.304h3.807S1.693.191 0 0m-4.231 1.304s1.519-2.632 4.327-2.76c2.808-.127 3.811 2.905 3.572 3.49-.19.469-.892.455-.892.455h-11.6c-1.66 0-2.936-2.072-3.573-3.591-.638-1.531 2.63-4.052 2.63-4.052l1.02 1.914 1.595.012-5.245-10.981h-25.904c.511-1.144 2.808-2.038 2.808-2.038h24.754l5.96 14.124h-5.576c-.176-.015-.496.526-.527.622-.033.096.016.272.016.272s1.084 2.424 1.977 2.553z" style="fill:#bdbcbc;fill-opacity:1;fill-rule:nonzero;stroke:none" transform="matrix(.85756 0 0 -.85756 80.247 90.359)"/><path d="M0 0h25.985c-.51-1.144-2.794-2.037-2.794-2.037H-1.775l-3.316 18.863s-.257 2.461-2.17 2.717h-11.345l1.531 1.149h10.196s2.808-.038 3.573-3.356C-2.539 14.018 0 0 0 0" style="fill:#bdbcbc;fill-opacity:1;fill-rule:nonzero;stroke:none" transform="matrix(.85756 0 0 -.85756 89.73 102.544)"/><path d="M0 0h8.549L9.66 2.202H1.149Z" style="fill:#bdbcbc;fill-opacity:1;fill-rule:nonzero;stroke:none" transform="matrix(.85756 0 0 -.85756 73.662 74.392)"/><path d="M0 0h8.504l.995 2.201H.982Z" style="fill:#bdbcbc;fill-opacity:1;fill-rule:nonzero;stroke:none" transform="matrix(.85756 0 0 -.85756 71.767 78.687)"/><path d="M0 0h-19.939l-1.014-2.042H.943Z" style="fill:#bdbcbc;fill-opacity:1;fill-rule:nonzero;stroke:none" transform="matrix(.85756 0 0 -.85756 95.765 64.061)"/><path d="m0 0-1 2.189h-24.603L-26.666.115Z" style="fill:#bdbcbc;fill-opacity:1;fill-rule:nonzero;stroke:none" transform="matrix(.85756 0 0 -.85756 98.574 70.097)"/><path d="M0 0h-17.235l1.106-2.202H1.105Z" style="fill:#bdbcbc;fill-opacity:1;fill-rule:nonzero;stroke:none" transform="matrix(.85756 0 0 -.85756 99.635 72.504)"/><path d="M0 0h-17.312l1.106-2.201H.901Z" style="fill:#bdbcbc;fill-opacity:1;fill-rule:nonzero;stroke:none" transform="matrix(.85756 0 0 -.85756 101.681 76.8)"/><path d="M0 0h-17.388l1.107-2.201H.971Z" style="fill:#bdbcbc;fill-opacity:1;fill-rule:nonzero;stroke:none" transform="matrix(.85756 0 0 -.85756 111.666 98.256)"/><path d="M0 0h-17.352l1.038-2.201H.999Z" style="fill:#bdbcbc;fill-opacity:1;fill-rule:nonzero;stroke:none" transform="matrix(.85756 0 0 -.85756 109.7 94.05)"/><path d="M0 0h-17.215l1.107-2.188H1.107Z" style="fill:#bdbcbc;fill-opacity:1;fill-rule:nonzero;stroke:none" transform="matrix(.85756 0 0 -.85756 107.535 89.675)"/><path d="M0 0h-17.191l1.107-2.201h17.1z" style="fill:#bdbcbc;fill-opacity:1;fill-rule:nonzero;stroke:none" transform="matrix(.85756 0 0 -.85756 105.556 85.38)"/><path d="M0 0h17.248l-.982-2.201H-.97Z" style="fill:#bdbcbc;fill-opacity:1;fill-rule:nonzero;stroke:none" transform="matrix(.85756 0 0 -.85756 47.934 98.256)"/><path d="M0 0h17.314l-.972-2.201H-.999Z" style="fill:#bdbcbc;fill-opacity:1;fill-rule:nonzero;stroke:none" transform="matrix(.85756 0 0 -.85756 49.863 94.05)"/><path d="M0 0h17.172l-1.108-2.188H-1.107Z" style="fill:#bdbcbc;fill-opacity:1;fill-rule:nonzero;stroke:none" transform="matrix(.85756 0 0 -.85756 51.982 89.675)"/><path d="M0 0h17.226l-1.107-2.201H-1.016Z" style="fill:#bdbcbc;fill-opacity:1;fill-rule:nonzero;stroke:none" transform="matrix(.85756 0 0 -.85756 53.946 85.38)"/><path d="M0 0h-17.152l1.092-2.201H1.106Z" style="fill:#bdbcbc;fill-opacity:1;fill-rule:nonzero;stroke:none" transform="matrix(.85756 0 0 -.85756 103.577 81.152)"/><path d="m0 0-.943-2.201h25.618L25.782 0Z" style="fill:#bdbcbc;fill-opacity:1;fill-rule:nonzero;stroke:none" transform="matrix(.85756 0 0 -.85756 55.85 81.156)"/><path d="M0 0h-13.85l-7.999-17.056H-8Z" style="fill:#bdbcbc;fill-opacity:1;fill-rule:nonzero;stroke:none" transform="matrix(.85756 0 0 -.85756 75.76 64.061)"/><path d="M0 0v-.67h.99v-4.808h.669V0Z" style="fill:#bdbcbc;fill-opacity:1;fill-rule:evenodd;stroke:none" transform="matrix(.85756 0 0 -.85756 74.351 99.595)"/><path d="M0 0v-.67h2.363v-.423L.191-5.448h.742l2.171 4.355V0Z" style="fill:#bdbcbc;fill-opacity:1;fill-rule:evenodd;stroke:none" transform="matrix(.85756 0 0 -.85756 83.692 99.62)"/><path d="M0 0c0 .668.542 1.208 1.196 1.208a1.208 1.208 0 1 0 0-2.416C.542-1.208 0-.668 0 0m3.098 0c0 1.05-.851 1.902-1.902 1.902A1.899 1.899 0 0 1-.692 0a1.888 1.888 0 0 1 2.161-1.868L.347-3.591h.748L2.722-1.13c.236.316.376.706.376 1.13" style="fill:#bdbcbc;fill-opacity:1;fill-rule:evenodd;stroke:none" transform="matrix(.85756 0 0 -.85756 77.109 101.211)"/><path d="M0 0c-.57 0-1.035.449-1.035 1.005 0 .556.465.993 1.035.993.573 0 1.038-.437 1.038-.993S.573 0 0 0m0 4.353a.86.86 0 0 0 .872-.846c0-.466-.391-.844-.872-.844a.857.857 0 0 0-.868.844c0 .467.39.846.868.846m.991-2.002c.342.276.56.691.56 1.156C1.551 4.337.857 5.01 0 5.01c-.854 0-1.547-.673-1.547-1.503 0-.465.216-.88.557-1.156a1.627 1.627 0 0 1-.724-1.346C-1.714.086-.946-.659 0-.659c.949 0 1.716.745 1.716 1.664 0 .561-.286 1.044-.725 1.346" style="fill:#bdbcbc;fill-opacity:1;fill-rule:evenodd;stroke:none" transform="matrix(.85756 0 0 -.85756 81.768 103.832)"/><path d="m0 0-.04-.319c-1.296-.359-5.463-1.846-5.535-5.909v-55.411s-.005-.306-.026-.497c-.154-1.437-1.195-6.586-7.875-10.35-7.576-4.28-14.432-5.369-19.949-6.244l-.567-.09c-5.356-.852-10.388-2.383-12.522-4.451l-.031-.029-.031.029c-2.134 2.068-7.166 3.599-12.521 4.451l-.568.09c-5.516.875-12.373 1.964-19.95 6.244-6.679 3.764-7.72 8.913-7.874 10.35a6.651 6.651 0 0 0-.025.497v55.411c-.073 4.063-4.24 5.55-5.535 5.909l-.042.319v4.876h15.836l.016-.039c.414-.741 1.971-3.15 4.634-3.032l14.326-.001v3.062h23.468V1.804l14.327.001c2.663-.118 4.219 2.291 4.633 3.032l.016.039H0Zm-16.345 5.699-.122-.252c-.013-.031-1.443-2.925-3.98-2.812l-.009.001h-13.517v3.063h-25.144V2.636h-13.517l-.009-.001c-2.537-.113-3.966 2.781-3.98 2.812l-.122.252h-17.182V-.985l.358-.071c.052-.011 5.145-1.104 5.217-5.185v-55.55c0-.237.005-.447.017-.552.135-1.241 1.265-7.009 8.676-11.185 7.711-4.357 13.436-4.997 19.862-6.125l.569-.091c5.424-.862 10.645-2.46 12.683-5.131 2.039 2.671 7.259 4.269 12.684 5.131l.568.091c6.426 1.128 12.151 1.768 19.861 6.125 7.411 4.176 8.542 9.944 8.677 11.185.013.105.017.315.017.552v55.55C-4.666-2.16.428-1.067.479-1.056l.358.071v6.684z" style="fill:#bdbcbc;fill-opacity:1;fill-rule:nonzero;stroke:none" transform="matrix(.85756 0 0 -.85756 119.68 52.77)"/><path d="M0 0a3.038 3.038 0 0 0-.384-.969c-.201-.345-.417-.603-.648-.775a1.195 1.195 0 0 0-.718-.254c-.247.002-.546.108-.91.319l-.61.357 1.821 3.137.598-.347c.393-.229.646-.455.762-.68C.025.563.056.3 0 0m.413.975c-.163.289-.512.59-1.047.901l-1.098.64-2.31-3.975 1.17-.682c.501-.292.922-.426 1.277-.401.355.024.681.147.979.369.297.221.562.532.796.933.249.429.391.834.425 1.212C.641.351.576.687.413.975" style="fill:#2350a9;fill-opacity:1;fill-rule:nonzero;stroke:none" transform="matrix(.85756 0 0 -.85756 55.602 110.303)"/><path d="M0 0c-.263-.536-.58-.915-.949-1.135-.37-.22-.742-.239-1.119-.054-.375.183-.589.489-.643.916-.053.428.051.911.315 1.445.261.535.577.913.949 1.135.371.22.744.24 1.117.056.377-.184.592-.49.644-.919C.366 1.016.262.534 0 0m.855 1.588a1.776 1.776 0 0 1-.982 1.188c-.517.253-1.031.269-1.543.051-.513-.22-.939-.68-1.284-1.381-.342-.701-.444-1.322-.304-1.862.141-.539.47-.937.987-1.188.516-.242 1.031-.259 1.544-.045.514.214.943.674 1.281 1.376.342.7.442 1.32.301 1.861" style="fill:#2350a9;fill-opacity:1;fill-rule:nonzero;stroke:none" transform="matrix(.85756 0 0 -.85756 58.75 112.871)"/><path d="m0 0-.718 3.824-.039.416-.129-.347L-2.121.86l-.504.208 1.724 4.251.548-.222.719-3.809.043-.411.124.34 1.23 3.021.512-.207L.544-.221Z" style="fill:#2350a9;fill-opacity:1;fill-rule:nonzero;stroke:none" transform="matrix(.85756 0 0 -.85756 61.343 116.101)"/><path d="M0 0c-.537-.068-1.017-.034-1.436.105-.438.144-.763.348-.976.61a1.92 1.92 0 0 0-.4.964c-.054.381.003.826.172 1.336.189.564.413.986.672 1.255.258.269.555.448.894.538.338.09.697.071 1.078-.054a2.06 2.06 0 0 0 .671-.359c.188-.153.316-.335.387-.544.072-.21.08-.386.025-.551l-.009-.029-.526.174.01.029a.421.421 0 0 1-.024.31.827.827 0 0 1-.24.306c-.11.091-.246.164-.407.217-.426.14-.802.081-1.136-.178-.334-.259-.595-.668-.788-1.252-.193-.582-.23-1.08-.112-1.492.118-.414.385-.69.802-.827.245-.08.548-.116.908-.105L-.024 1.7l-.983.324.144.436 1.509-.498Z" style="fill:#2350a9;fill-opacity:1;fill-rule:nonzero;stroke:none" transform="matrix(.85756 0 0 -.85756 65.41 117.317)"/><path d="m0 0-.008-.028-.578.152.007.029A.35.35 0 0 1-.61.39a.52.52 0 0 1-.222.222c-.11.062-.233.112-.374.149-.284.074-.514.059-.688-.049A.69.69 0 0 1-2.222.28a.946.946 0 0 1 .004-.371.818.818 0 0 1 .197-.339c.095-.1.262-.245.502-.434l.242-.189c.385-.303.625-.578.717-.825a1.19 1.19 0 0 0 .042-.732 1.346 1.346 0 0 0-.348-.603 1.22 1.22 0 0 0-.618-.347c-.239-.053-.534-.033-.87.059-.334.087-.6.198-.803.336a.986.986 0 0 0-.404.525 1.11 1.11 0 0 0-.018.641l.008.029.578-.151L-3-2.15c-.064-.246-.022-.441.125-.583.15-.142.369-.251.65-.327a.965.965 0 0 1 .689.056.762.762 0 0 1 .41.514.625.625 0 0 1-.096.537c-.116.161-.307.342-.576.543l-.207.155c-.27.213-.471.403-.594.571a1.317 1.317 0 0 0-.237.514 1.18 1.18 0 0 0 .021.549c.088.337.281.588.578.747.288.168.691.187 1.197.055.464-.122.769-.282.914-.504A.815.815 0 0 0 0 0" style="fill:#2350a9;fill-opacity:1;fill-rule:nonzero;stroke:none" transform="matrix(.85756 0 0 -.85756 69.315 115.137)"/><path d="m0 0-.587.114.397 2.055-2.077.401-.397-2.055-.587.113.872 4.518.588-.113-.389-2.012 2.076-.401.389 2.012.587-.114Z" style="fill:#2350a9;fill-opacity:1;fill-rule:nonzero;stroke:none" transform="matrix(.85756 0 0 -.85756 72.118 119.067)"/><path d="m0 0-.593.085.655 4.555.594-.085Z" style="fill:#2350a9;fill-opacity:1;fill-rule:nonzero;stroke:none" transform="matrix(.85756 0 0 -.85756 73.49 119.257)"/><path d="m0 0-.583.055-1.792 3.467-.158.388-.022-.37-.308-3.271-.549.052.431 4.581.59-.055 1.787-3.453.158-.381.022.362.306 3.259.549-.052z" style="fill:#2350a9;fill-opacity:1;fill-rule:nonzero;stroke:none" transform="matrix(.85756 0 0 -.85756 77.278 119.665)"/><path d="M0 0a1.331 1.331 0 0 0-.525-.522c-.236-.13-.528-.197-.878-.203a2.605 2.605 0 0 0-.907.139c-.273.099-.479.252-.615.463-.136.211-.208.57-.215 1.077l-.04 3.04.598.007.041-2.959c.006-.43.051-.718.137-.865a.79.79 0 0 1 .397-.33 1.46 1.46 0 0 1 .599-.109c.212.003.399.045.558.124a.741.741 0 0 1 .361.371c.079.168.113.517.106 1.05l-.036 2.748.55.007.041-2.902C.178.599.121.219 0 0" style="fill:#2350a9;fill-opacity:1;fill-rule:nonzero;stroke:none" transform="matrix(.85756 0 0 -.85756 82.638 119.25)"/><path d="m0 0-2.382 3.093-.224.353.045-.368.28-3.274-.55-.046-.394 4.584.592.051 2.374-3.08.223-.345-.043.359-.279 3.262.549.047L.585.05z" style="fill:#2350a9;fill-opacity:1;fill-rule:nonzero;stroke:none" transform="matrix(.85756 0 0 -.85756 86.1 119.483)"/><path d="m0 0-.621 4.559.594.081.62-4.56Z" style="fill:#2350a9;fill-opacity:1;fill-rule:nonzero;stroke:none" transform="matrix(.85756 0 0 -.85756 87.468 119.313)"/><path d="m0 0-.591-.111-2.555 4.201.639.12L-.376.687l.827 4.078.548.103Z" style="fill:#2350a9;fill-opacity:1;fill-rule:nonzero;stroke:none" transform="matrix(.85756 0 0 -.85756 90.526 118.819)"/><path d="m0 0-1.139 4.458 2.519.631.127-.479-1.941-.495.359-1.405 1.693.433.113-.446L.04 2.266.454.639l2.096.535.125-.492Z" style="fill:#2350a9;fill-opacity:1;fill-rule:nonzero;stroke:none" transform="matrix(.85756 0 0 -.85756 92.706 118.368)"/><path d="M0 0a.809.809 0 0 0-.19-.409c-.097-.111-.265-.203-.5-.278l-.557-.177-.515 1.611.599.19c.262.082.459.104.592.065A.776.776 0 0 0-.235.809.89.89 0 0 0-.033.47.967.967 0 0 0 0 0m.79-1.347c-.08.076-.172.157-.271.241a1.57 1.57 0 0 1-.247.174 1.037 1.037 0 0 1-.257.082c.217.18.367.352.447.517.079.165.126.336.142.515A1.302 1.302 0 0 1 .212 1.24c-.156.15-.332.248-.531.291-.198.044-.463.012-.797-.094l-1.358-.43 1.392-4.375.57.18-.596 1.886.576.182c.303-.134.57-.317.804-.549l.974-.961.653.208z" style="fill:#2350a9;fill-opacity:1;fill-rule:nonzero;stroke:none" transform="matrix(.85756 0 0 -.85756 96.673 114.68)"/><path d="M0 0a1.21 1.21 0 0 0-.302-.642c-.164-.181-.414-.337-.74-.465a2.584 2.584 0 0 0-.849-.191.992.992 0 0 0-.635.192 1.147 1.147 0 0 0-.387.513l-.01.028.561.212.009-.027c.091-.239.239-.373.442-.402.203-.03.445.009.724.114.245.093.41.242.52.447a.758.758 0 0 1 .035.657.621.621 0 0 1-.377.382c-.187.064-.448.1-.783.108l-.26.007c-.352.009-.628.047-.825.113a1.309 1.309 0 0 0-.492.268c-.13.122-.232.275-.301.46-.124.326-.112.643.032.955.145.311.462.559.951.744.451.172.797.209 1.045.112.244-.097.41-.255.494-.479l.011-.027-.559-.212-.012.028a.352.352 0 0 1-.164.175.51.51 0 0 1-.309.052 1.452 1.452 0 0 1-.388-.097c-.276-.104-.453-.25-.534-.437a.713.713 0 0 1-.019-.545.673.673 0 0 1 .221-.299.82.82 0 0 1 .357-.16 5.07 5.07 0 0 1 .661-.063l.306-.014c.491-.023.834-.107 1.053-.256A1.11 1.11 0 0 0-.066.692C.015.476.038.245 0 0" style="fill:#2350a9;fill-opacity:1;fill-rule:nonzero;stroke:none" transform="matrix(.85756 0 0 -.85756 100.98 115.267)"/><path d="m0 0-1.796 4.224.55.234L.551.233z" style="fill:#2350a9;fill-opacity:1;fill-rule:nonzero;stroke:none" transform="matrix(.85756 0 0 -.85756 101.897 115.36)"/><path d="m0 0-1.756 3.737-1.417-.664-.195.42 3.353 1.569.197-.418-1.396-.654L.539.241Z" style="fill:#2350a9;fill-opacity:1;fill-rule:nonzero;stroke:none" transform="matrix(.85756 0 0 -.85756 104.038 114.416)"/><path d="m0 0-1.019 1.913-2.458 1.449.617.327 1.887-1.101.129 2.175.513.273-.159-2.843L.525.28Z" style="fill:#2350a9;fill-opacity:1;fill-rule:nonzero;stroke:none" transform="matrix(.85756 0 0 -.85756 107.065 112.927)"/></svg>