<svg xmlns="http://www.w3.org/2000/svg" width="154.1022mm" height="154.1022mm" viewBox="0 0 154.1022 154.1022"><g transform="matrix(1.18242 0 0 1.18242 -41.229 -124.927)"><circle cx="100.03162" cy="170.81743" r="65.163704" style="fill:#f9f9f9;stroke:#fff;stroke-width:0"/><path d="M0 0h8.141v-2.359H2.619v-3.4h5.522V-8.12H0Z" style="fill:#006476;fill-opacity:1;fill-rule:nonzero;stroke:none" transform="matrix(3.02786 0 0 -3.02786 82.907 156.81)"/><path d="M0 0c-4.586-4.559-9.941-6.571-12.234-4.264-2.293 2.305-.438 7.871 4.148 12.429 4.584 4.562 10.164 6.388 12.455 4.082C6.664 9.941 4.584 4.56 0 0m4.563-5.216H-.303l-.008 1.843v3.067h4.866v-1.889H1.699V-3.33h2.864ZM-2.785 18.83c-8.574 0-15.522-6.947-15.522-15.521 0-8.572 6.948-15.52 15.522-15.52 8.572 0 15.519 6.948 15.519 15.52 0 8.574-6.947 15.521-15.519 15.521" style="fill:#006476;fill-opacity:1;fill-rule:nonzero;stroke:none" transform="matrix(3.02786 0 0 -3.02786 108.496 180.47)"/><path d="M0 0c-11.066.901-19.338 10.639-18.437 21.705a19.992 19.992 0 0 0 7.033 13.711 20.004 20.004 0 0 0 14.671 4.726 20.013 20.013 0 0 0 13.712-7.033 20.004 20.004 0 0 0 4.724-14.672C20.803 7.371 11.065-.897 0 0m-11.701 35.768a20.473 20.473 0 0 1-7.195-14.027C-19.817 10.421-11.357.463-.037-.459c11.318-.919 21.277 7.541 22.2 18.861a20.476 20.476 0 0 1-4.833 15.004 20.479 20.479 0 0 1-14.027 7.196 20.476 20.476 0 0 1-15.004-4.834" style="fill:#006476;fill-opacity:1;fill-rule:nonzero;stroke:none" transform="matrix(3.02786 0 0 -3.02786 95.083 231.347)"/><path d="M0 0a.595.595 0 0 1 .604.584.597.597 0 0 1-.587.603A.595.595 0 0 1 0 0" style="fill:#006476;fill-opacity:1;fill-rule:nonzero;stroke:none" transform="matrix(3.02786 0 0 -3.02786 45.85 165.958)"/><path d="M0 0a.592.592 0 1 1 .019 1.185.59.59 0 0 1-.601-.583A.59.59 0 0 1 0 0" style="fill:#006476;fill-opacity:1;fill-rule:nonzero;stroke:none" transform="matrix(3.02786 0 0 -3.02786 154.422 165.822)"/><path d="m0 0-1.807-.363.082-.412c.033-.152.061-.26.096-.327a.498.498 0 0 1 .157-.2.575.575 0 0 1 .292-.091c.129-.015.3.002.51.046.211.039.369.092.473.15a.684.684 0 0 1 .235.209c.05.08.075.176.077.283.002.079-.02.232-.064.454zm.351.642.2-1.005a1.9 1.9 0 0 0 .055-.531.953.953 0 0 0-.17-.458 1.216 1.216 0 0 0-.389-.352 2.127 2.127 0 0 0-.627-.22 1.87 1.87 0 0 0-.6-.031 1.25 1.25 0 0 0-.537.196.964.964 0 0 0-.297.344 1.66 1.66 0 0 0-.153.476L-2.375.098z" style="fill:#006476;fill-opacity:1;fill-rule:nonzero;stroke:none" transform="matrix(3.02786 0 0 -3.02786 49.322 177.017)"/><path d="M0 0c-.297-.103-.501-.253-.605-.441a.726.726 0 0 1-.051-.606.706.706 0 0 1 .412-.44c.197-.081.449-.073.754.034.302.106.505.248.605.431a.7.7 0 0 1 .038.602.705.705 0 0 1-.405.453C.551.115.303.104 0 0m-.207.537C.061.632.299.67.506.652.664.639.812.601.953.531c.143-.064.26-.154.352-.254.129-.144.226-.318.302-.536.133-.383.12-.734-.037-1.051-.16-.317-.455-.548-.883-.694-.423-.149-.796-.149-1.113.001-.322.146-.549.412-.681.798-.137.391-.123.741.033 1.055.16.314.448.545.867.687" style="fill:#006476;fill-opacity:1;fill-rule:nonzero;stroke:none" transform="matrix(3.02786 0 0 -3.02786 48.122 185.562)"/><path d="m0 0 2.467 1.284.252-.487-1.122-1.863 1.648.854.241-.462-2.468-1.284-.258.501L1.849.375.24-.462Z" style="fill:#006476;fill-opacity:1;fill-rule:nonzero;stroke:none" transform="matrix(3.02786 0 0 -3.02786 46.956 194.634)"/><path d="m0 0 .359.301.778-.929-.848-.71a1.572 1.572 0 0 0-.559.196c-.21.117-.388.263-.537.439-.185.22-.302.458-.345.699-.047.245-.018.481.088.711.103.227.255.432.459.601.224.185.46.306.71.358.25.052.499.024.739-.076.187-.076.363-.221.533-.424.223-.262.342-.518.355-.759a.963.963 0 0 0-.22-.673l-.438.363c.08.117.117.241.106.376a.645.645 0 0 1-.17.386c-.158.19-.342.286-.556.296C.242 1.169.02 1.076-.213.88-.469.666-.609.451-.643.234a.729.729 0 0 1 .182-.599.947.947 0 0 1 .28-.231c.111-.059.22-.1.326-.121l.269.224z" style="fill:#006476;fill-opacity:1;fill-rule:nonzero;stroke:none" transform="matrix(3.02786 0 0 -3.02786 55.946 203.871)"/><path d="m0 0 .451-.313C.358-.476.322-.621.344-.752a.62.62 0 0 1 .228-.362c.137-.114.266-.172.387-.176a.34.34 0 0 1 .277.117.244.244 0 0 1 .064.166.458.458 0 0 1-.075.221c-.038.061-.125.185-.266.387C.777-.151.676.056.651.217a.72.72 0 0 0 .516.817c.14.042.29.042.446-.006.158-.049.319-.141.481-.283.265-.221.418-.448.455-.68a.806.806 0 0 0-.186-.648l-.443.342c.072.124.1.238.082.334a.563.563 0 0 1-.215.303c-.121.104-.24.163-.355.169a.197.197 0 0 1-.18-.072.215.215 0 0 1-.045-.182c.016-.094.109-.252.273-.477.17-.228.28-.406.336-.544a.794.794 0 0 0 .053-.414.82.82 0 0 0-.203-.41.813.813 0 0 0-.877-.249 1.55 1.55 0 0 0-.527.31c-.27.228-.422.466-.461.71-.039.246.027.5.199.763" style="fill:#006476;fill-opacity:1;fill-rule:nonzero;stroke:none" transform="matrix(3.02786 0 0 -3.02786 62.055 210.911)"/><path d="m0 0 1.455 2.369 1.758-1.081-.246-.4-1.278.788-.322-.528L2.555.417 2.309.016 1.121.748.725.104l1.322-.813-.248-.399Z" style="fill:#006476;fill-opacity:1;fill-rule:nonzero;stroke:none" transform="matrix(3.02786 0 0 -3.02786 67.418 218.812)"/><path d="M0 0c-.115-.293-.135-.541-.059-.744a.73.73 0 0 1 .426-.432.704.704 0 0 1 .602.025c.193.096.349.296.467.596.117.297.136.541.064.741a.699.699 0 0 1-.43.421A.706.706 0 0 1 .463.59C.27.497.117.301 0 0m-.545.193c.104.262.231.473.379.618.113.11.238.197.381.261.142.067.287.101.428.101.187.003.386-.031.595-.113.383-.153.641-.391.776-.718.136-.328.125-.7-.043-1.121-.164-.42-.407-.7-.727-.848-.318-.145-.67-.145-1.051.003-.384.151-.642.39-.777.714-.139.324-.123.693.039 1.103" style="fill:#006476;fill-opacity:1;fill-rule:nonzero;stroke:none" transform="matrix(3.02786 0 0 -3.02786 77.927 219.915)"/><path d="m0 0 .551-.125-.336-1.469a2.717 2.717 0 0 1-.082-.459.438.438 0 0 1 .107-.302.59.59 0 0 1 .338-.184c.156-.034.279-.031.373.018a.36.36 0 0 1 .195.2c.04.09.081.237.129.455l.34 1.5.549-.128-.326-1.42c-.072-.328-.137-.553-.199-.68a.758.758 0 0 0-.241-.303.864.864 0 0 0-.371-.152 1.518 1.518 0 0 0-.539.038c-.258.059-.451.131-.568.224a.852.852 0 0 0-.266.304.79.79 0 0 0-.086.337c0 .163.036.397.104.697z" style="fill:#006476;fill-opacity:1;fill-rule:nonzero;stroke:none" transform="matrix(3.02786 0 0 -3.02786 86.319 218.579)"/><path d="m0 0 .207 2.748.559-.041L.596.422 1.986.32l-.033-.467Z" style="fill:#006476;fill-opacity:1;fill-rule:nonzero;stroke:none" transform="matrix(3.02786 0 0 -3.02786 93.758 228.532)"/><path d="m0 0 .553.089.236-1.486c.037-.239.068-.39.094-.459a.428.428 0 0 1 .211-.242.606.606 0 0 1 .381-.045c.16.025.273.077.341.153a.361.361 0 0 1 .108.258c0 .096-.016.255-.049.472L1.637.262l.552.082.229-1.442c.051-.327.074-.562.064-.707a.764.764 0 0 0-.111-.369.791.791 0 0 0-.287-.271 1.375 1.375 0 0 0-.516-.17c-.261-.041-.466-.041-.611-.003a.832.832 0 0 0-.561.466 3.296 3.296 0 0 0-.166.685Z" style="fill:#006476;fill-opacity:1;fill-rule:nonzero;stroke:none" transform="matrix(3.02786 0 0 -3.02786 104.764 220.424)"/><path d="m0 0-.865 2.644.517.172 1.66-1.411-.576 1.762.494.162.866-2.64-.535-.176-1.629 1.374L.498.166Z" style="fill:#006476;fill-opacity:1;fill-rule:nonzero;stroke:none" transform="matrix(3.02786 0 0 -3.02786 115.373 226.92)"/><path d="m0 0-1.164 2.524.508.235L.508.234Z" style="fill:#006476;fill-opacity:1;fill-rule:nonzero;stroke:none" transform="matrix(3.02786 0 0 -3.02786 124.197 223.872)"/><path d="m0 0-2.301 1.849.52.32L-.107.783-.602 2.89l.51.31L.512.311z" style="fill:#006476;fill-opacity:1;fill-rule:nonzero;stroke:none" transform="matrix(3.02786 0 0 -3.02786 130.234 220.693)"/><path d="m0 0-1.811 2.11 1.563 1.343.305-.356-1.137-.979.402-.467 1.059.91.305-.356-1.059-.91L.121.72l1.176 1.013.307-.356Z" style="fill:#006476;fill-opacity:1;fill-rule:nonzero;stroke:none" transform="matrix(3.02786 0 0 -3.02786 136.178 216.73)"/><path d="m0 0 .281.31c.18.199.285.332.313.398a.306.306 0 0 1 .019.195.343.343 0 0 1-.119.181.33.33 0 0 1-.217.099.365.365 0 0 1-.224-.084A4.902 4.902 0 0 1-.229.8L-.52.473Zm.82-1.491L-1.246.372l.791.879c.199.219.361.364.488.428a.634.634 0 0 0 .416.062.851.851 0 0 0 .406-.199.753.753 0 0 0 .26-.483C1.135.874 1.074.681.937.476c.133.042.26.065.375.067.118.002.299-.019.551-.064l.631-.112-.451-.499-.723.106a3.413 3.413 0 0 1-.498.05.43.43 0 0 1-.201-.046A1.087 1.087 0 0 1 .408-.21L.332-.297l.863-.774Z" style="fill:#006476;fill-opacity:1;fill-rule:nonzero;stroke:none" transform="matrix(3.02786 0 0 -3.02786 139.791 206.535)"/><path d="m0 0 .24.497C.412.428.562.418.687.459a.594.594 0 0 1 .323.279c.094.156.131.29.113.407-.019.121-.072.208-.158.259a.242.242 0 0 1-.174.037c-.061-.006-.129-.045-.207-.11a5.61 5.61 0 0 1-.336-.32C.027.79-.16.659-.316.61a.727.727 0 0 0-.889.38.758.758 0 0 0-.063.442c.024.165.092.338.202.52.181.297.38.484.605.556a.81.81 0 0 0 .668-.083l-.271-.49c-.135.052-.25.062-.344.024-.094-.034-.18-.117-.266-.255-.084-.138-.121-.266-.109-.376a.2.2 0 0 1 .101-.169.206.206 0 0 1 .186-.017c.088.031.232.148.428.348.195.2.359.338.484.413a.778.778 0 0 0 .402.118.845.845 0 0 0 .436-.134.858.858 0 0 0 .314-.345.807.807 0 0 0 .071-.482 1.557 1.557 0 0 0-.227-.57C1.23.186 1.021-.003.783-.079.547-.155.287-.131 0 0" style="fill:#006476;fill-opacity:1;fill-rule:nonzero;stroke:none" transform="matrix(3.02786 0 0 -3.02786 145.61 202.857)"/><path d="m0 0-2.504 1.211.246.507L.246.508z" style="fill:#006476;fill-opacity:1;fill-rule:nonzero;stroke:none" transform="matrix(3.02786 0 0 -3.02786 152.547 196.396)"/><path d="m0 0-2.16.814-.289-.769-.44.164.782 2.067.439-.167-.291-.769L.203.522Z" style="fill:#006476;fill-opacity:1;fill-rule:nonzero;stroke:none" transform="matrix(3.02786 0 0 -3.02786 154.848 190.885)"/><path d="m0 0-1.146.243-1.784-.662.135.644 1.211.41-.943.858.132.631 1.37-1.333L.115.548z" style="fill:#006476;fill-opacity:1;fill-rule:nonzero;stroke:none" transform="matrix(3.02786 0 0 -3.02786 157.556 182.324)"/><path d="m0 0 .41-.125-.931-3.046-.409.125.467 1.526-.299.091-.463-1.51-.39.119.926 3.029.39-.119-.359-1.182.297-.091z" style="fill:#006476;fill-opacity:1;fill-rule:nonzero;stroke:none" transform="matrix(3.02786 0 0 -3.02786 115.953 114.195)"/><path d="m0 0 .932-.092-.106-.345-1.361.14.691 2.26 1.205-.368-.105-.343-.799.244Z" style="fill:#006476;fill-opacity:1;fill-rule:nonzero;stroke:none" transform="matrix(3.02786 0 0 -3.02786 108.584 118.801)"/><path d="m0 0 .359.239 1.77-2.648-.358-.24-.988 1.478-.656-.439-.189.285.656.438z" style="fill:#006476;fill-opacity:1;fill-rule:nonzero;stroke:none" transform="matrix(3.02786 0 0 -3.02786 67.708 121.53)"/><path d="M0 0c.165-.367.235-.76.059-1.119-.052-.106-.107-.165-.107-.165l.215-.321c.195.251.365.523.387.844.012.195-.006.345-.078.564.175-.151.302-.229.486-.29.305-.103.623-.051.93.034l-.215.32s-.075-.027-.194-.034C1.083-.191.749.022.472.315c-.282.298-.651.88-.651.88L-.564.937S-.168.375 0 0" style="fill:#006476;fill-opacity:1;fill-rule:nonzero;stroke:none" transform="matrix(3.02786 0 0 -3.02786 65.127 127.412)"/><path d="m0 0 .623 1.026.305-.184C.551.243-.182-.962-.539-1.57l-.305.185.621 1.02-.297.18-.544-.895-1.008.613 1.334 2.194.304-.184-1.113-1.83.399-.242L-.035 1.3l.306-.186-.568-.932Z" style="fill:#006476;fill-opacity:1;fill-rule:nonzero;stroke:none" transform="matrix(3.02786 0 0 -3.02786 54.502 141.232)"/><path d="M0 0c.111.183.326.254.48.161C.634.067.67-.157.557-.34.447-.522.232-.594.078-.499-.076-.406-.111-.183 0 0m.861-.523c.231.377.157.842-.162 1.037C.379.708-.064.559-.295.18c-.23-.378-.158-.841.161-1.036.32-.194.765-.045.995.333" style="fill:#006476;fill-opacity:1;fill-rule:nonzero;stroke:none" transform="matrix(3.02786 0 0 -3.02786 56.182 142.98)"/><path d="M0 0c-.514.443-.933.797-1.346 1.129l.231.273.513-.43.188.223.317-.267-.187-.223.513-.432z" style="fill:#006476;fill-opacity:1;fill-rule:nonzero;stroke:none" transform="matrix(3.02786 0 0 -3.02786 133.827 125.111)"/><path d="m0 0-.217-.258-.414.348-.4-.477-.327.274 1.265 1.509.327-.275-.648-.773z" style="fill:#006476;fill-opacity:1;fill-rule:nonzero;stroke:none" transform="matrix(3.02786 0 0 -3.02786 136.326 128.488)"/><path d="m0 0 1.806-1.516-.668-.797-.327.276.444.529-1.479 1.24z" style="fill:#006476;fill-opacity:1;fill-rule:nonzero;stroke:none" transform="matrix(3.02786 0 0 -3.02786 127.375 125.508)"/><path d="M0 0c.148-.125.187-.322.088-.441-.1-.12-.301-.116-.449.009-.149.125-.188.322-.087.442.099.118.3.114.448-.01m-.56-.668c.311-.26.732-.269.941-.019.209.25.128.662-.183.922-.309.261-.731.269-.94.021-.209-.25-.127-.663.182-.924" style="fill:#006476;fill-opacity:1;fill-rule:nonzero;stroke:none" transform="matrix(3.02786 0 0 -3.02786 131.021 124.242)"/><path d="m0 0-1.176-.302.059-.216 1.006.27.219-.82-1.994-.535.046-.172 2.012.539.088-.325-2.412-.645-.221.821 1.994.533-.046.172-1.993-.534-.088.324.977.262-.059.216-1.138-.32-.09.341c.73.18 1.862.484 2.726.731z" style="fill:#006476;fill-opacity:1;fill-rule:nonzero;stroke:none" transform="matrix(3.02786 0 0 -3.02786 92.168 116.915)"/><path d="M0 0c.205.056.412-.041.459-.215C.505-.39.375-.576.17-.631c-.207-.055-.412.041-.459.215-.047.175.082.361.289.416m.258-.963c.424.113.688.496.593.853-.096.357-.517.555-.94.442-.423-.113-.688-.495-.593-.854.096-.356.517-.554.94-.441" style="fill:#006476;fill-opacity:1;fill-rule:nonzero;stroke:none" transform="matrix(3.02786 0 0 -3.02786 86.916 113.828)"/><path d="m0 0 2.176 1.283L.93 3.396l-.306-.181L1.652 1.47-.217.367l-.222.379 1.224.723-.207.353L-.648 1.1l-.215.365 1.224.724-.21.354-1.225-.723-.268.455-.299-.176L-.208-.332l.3.178z" style="fill:#006476;fill-opacity:1;fill-rule:nonzero;stroke:none" transform="matrix(3.02786 0 0 -3.02786 144.593 146.17)"/></g></svg>