<svg xmlns="http://www.w3.org/2000/svg" xml:space="preserve" width="620.78577" height="216.84613" viewBox="0 0 620.78577 216.84613"><defs><linearGradient id="a" x1="0" x2="1" y1="0" y2="0" gradientTransform="scale(-49.33585 49.33585) rotate(-66.324 2.042 5.165)" gradientUnits="userSpaceOnUse" spreadMethod="pad"><stop offset="0" style="stop-opacity:1;stop-color:#475772"/><stop offset="1" style="stop-opacity:1;stop-color:#1a2b42"/></linearGradient><linearGradient id="b" x1="0" x2="1" y1="0" y2="0" gradientTransform="scale(-52.60973 52.60973) rotate(-86.769 .434 4.276)" gradientUnits="userSpaceOnUse" spreadMethod="pad"><stop offset="0" style="stop-opacity:1;stop-color:#e02624"/><stop offset="1" style="stop-opacity:1;stop-color:#9e0a0e"/></linearGradient><linearGradient id="c" x1="0" x2="1" y1="0" y2="0" gradientTransform="scale(20.6201 -20.6201) rotate(82.954 14.98 2.554)" gradientUnits="userSpaceOnUse" spreadMethod="pad"><stop offset="0" style="stop-opacity:1;stop-color:#a97b50"/><stop offset="1" style="stop-opacity:1;stop-color:#83603c"/></linearGradient><linearGradient id="d" x1="0" x2="1" y1="0" y2="0" gradientTransform="scale(100.60322 -100.60322) rotate(55.261 3.795 .89)" gradientUnits="userSpaceOnUse" spreadMethod="pad"><stop offset="0" style="stop-opacity:1;stop-color:#475772"/><stop offset="1" style="stop-opacity:1;stop-color:#1a2b42"/></linearGradient><linearGradient id="e" x1="0" x2="1" y1="0" y2="0" gradientTransform="scale(165.89543 -165.89543) rotate(55.261 2.41 .17)" gradientUnits="userSpaceOnUse" spreadMethod="pad"><stop offset="0" style="stop-opacity:1;stop-color:#475772"/><stop offset="1" style="stop-opacity:1;stop-color:#1a2b42"/></linearGradient></defs><path d="m137.344 229.754-10.119-43.081 43.148-.022c8.462 0 10.547 9.961 10.547 9.961l6.348 26.841c1.607 8.544-6.761 8.568-6.761 8.568h-39.49s-.035.002-.098.002c-.533 0-3.071-.115-3.575-2.269m15.687-5.356h15.698c1.613 0 1.031-1.934 1.031-1.934l-5.848-25.335s-.853-2.824-5.412-2.824h-12.423z" style="fill:url(#a);stroke:none" transform="matrix(2.829 0 0 -2.829 -359.92 744.883)"/><path d="m198.441 232.021-10.735-45.365h9.584c7.747 0 9.96 10.201 9.96 10.201l8.307 35.164z" style="fill:url(#b);stroke:none" transform="matrix(2.829 0 0 -2.829 -359.92 744.883)"/><path d="M319.536 256.883c-2.57-8.329-17.154-20.112-17.154-20.112 25.19 4.727 42.847 24.809 44.279 26.531-17.939-6.912-27.125-6.419-27.125-6.419" style="fill:url(#c);stroke:none" transform="matrix(2.829 0 0 -2.829 -359.92 744.883)"/><path d="m282.658 221.645-8.277-34.993h9.583c7.5 0 9.957 10.205 9.957 10.205l5.861 24.788z" style="fill:url(#d);stroke:none" transform="matrix(2.829 0 0 -2.829 -359.92 744.883)"/><path d="m270.014 232.021.008.024zm0 0h-36.567c-2.169 0-8.514-.666-10.345-6.459l-.149-.599-2.323-9.982c-1.198-4.588 1.55-8.307 6.14-8.307l24.685-.018c.83 0 1.331-.674 1.112-1.508l-1.871-7.79c-.586-1.825-1.467-3.053-4.69-3.053l-27.237-.054c-1.194 0-4.101-.997-4.987-3.968l-.032-.06-.92-3.571h39.195l.123.005h1.587c4.592 0 12.16 2.48 13.704 8.317l.183.618 2.163 9.553.131.576c1.549 8.433-6.378 8.817-10.972 8.817l-1.705.009h-18.236c-.829 0-1.329.664-1.11 1.498l1.418 6 .242.964c.22.832.823 1.389 1.66 1.389h79.295s3.445.036 4.643 4.398l.719 3.225z" style="fill:url(#e);stroke:none" transform="matrix(2.829 0 0 -2.829 -359.92 744.883)"/></svg>