<svg xmlns="http://www.w3.org/2000/svg" width="246.81113mm" height="246.81113mm" viewBox="0 0 246.81113 246.81113"><g transform="translate(-10.394 -20.098)"><circle cx="133.79987" cy="143.5036" r="123.40556" style="fill:#f9f9f9;fill-rule:evenodd;stroke-width:.599436"/><path d="M321.781 155.672h-2.898v4.766h-3.106v-4.766h-2.965v14.176h-9.535V158.18h6.282v-2.5h-7.313v.008h-.64c-.711 0-1.294.648-1.294 1.449v13.766c0 .8.583 1.445 1.293 1.445h2.372v-.012h6.718a.67.67 0 0 0 .153.012c.05 0 .109 0 .148-.012.617-.027 1.52-.285 1.817-.633v5.657h2.964v-14.442h3.106v14.442h2.949v-21.688h-.05M275.352 160.594l5.488 13.054-17.094 7.18.957 2.293 15.05-6.32a.728.728 0 0 0 .142-.055c.039-.02.09-.031.132-.059.66-.332 1.602-1.125 1.43-1.542v-.004l2.297 5.453 2.766-1.168-8.399-19.993-2.77 1.16" style="fill:#005ea8;fill-opacity:1;fill-rule:nonzero;stroke:none" transform="matrix(.92803 0 0 .90156 -154.737 -109.143)"/><path d="M269.598 174.96c3.968-1.663 5.804-5.015 4.488-8.148-1.313-3.125-4.984-4.171-8.957-2.507-3.973 1.668-5.8 5.011-4.484 8.148 1.316 3.121 4.988 4.176 8.953 2.508zm-3.567-8.483c2.235-.938 4.414-.524 5.258 1.503.863 2.047-.375 3.88-2.594 4.81-2.234.937-4.406.526-5.261-1.509-.856-2.043.378-3.879 2.597-4.804M354.242 164.918l-4.84-1.84.82-2.148-2.808-1.07-.816 2.14-4.93-1.879-.895 2.332 12.582 4.79.887-2.325M361.105 166.703l-2.753-1.047-4.762 12.489 2.762 1.058 2.05-5.371 3.442 1.309.879-2.32-3.446-1.313 1.828-4.805M354.543 179.852l-1.965-.762-14.851-5.649-.883 2.329 15.418 5.867-1.805 4.734 2.758 1.059 2.176-5.707c.074-.196.097-.41.082-.606a1.434 1.434 0 0 0-.93-1.265M343.574 174.023c3.828 1.454 6.817.805 7.817-1.824.992-2.629-.797-5.105-4.621-6.566-3.832-1.45-6.825-.797-7.817 1.832-1.012 2.629.79 5.101 4.621 6.558zm2.406-6.336c1.98.762 3.09 2.208 2.618 3.446-.477 1.234-2.27 1.586-4.239.82-1.98-.738-3.09-2.187-2.613-3.43.469-1.246 2.27-1.582 4.234-.835M377.36 198.578l6.105-7.148-2.238-1.914-6.106 7.136-2.933-2.504 6.093-7.113-2.242-1.918-6.098 7.117-3-2.566-1.609 1.89 17.113 14.637 1.614-1.89-6.7-5.727" style="fill:#005ea8;fill-opacity:1;fill-rule:nonzero;stroke:none" transform="matrix(.92803 0 0 .90156 -154.737 -109.143)"/><path d="m382.344 199.512 1.758 1.508c.484.304 1.77-1.114 1.855-1.192l6.953-8.14c.145-.165.242-.348.3-.543a1.476 1.476 0 0 0-.456-1.508l-1.598-1.375-11.562-9.875-1.602 1.894 12.02 10.27-6.293 7.351-1.375 1.61M239.3 188l6.52-5.695-1.629-1.88-13.238 11.544-1.836-2.11 13.238-11.539-1.64-1.879-14.078 12.286-.297.253a1.447 1.447 0 0 0-.14 2.04l3.198 3.683c.536.606 1.45.66 2.051.14l.293-.257 1.258-1.098 4.063-3.539 1.171 1.356-7.847 6.836 1.64 1.882 17.797-15.515-1.633-1.871-7.714 6.707L239.3 188M252.184 191.238c1.441 1.653 2.504 5.164-3.254 10.176-5.754 5.016-9.086 3.484-10.524 1.832-1.449-1.66-2.492-5.164 3.254-10.184 5.754-5.011 9.078-3.484 10.524-1.824zm-8.899 3.7c-3.754 3.28-3.687 5.12-2.625 6.343 1.067 1.227 2.88 1.543 6.64-1.734 3.763-3.277 3.692-5.125 2.638-6.344-1.075-1.219-2.883-1.539-6.653 1.735M218.813 225.672a3.24 3.24 0 0 1-3.239 3.238 3.235 3.235 0 0 1-3.25-3.238 3.245 3.245 0 1 1 6.488 0M410.84 225.672a3.24 3.24 0 0 1-3.246 3.238 3.236 3.236 0 0 1-3.242-3.238 3.244 3.244 0 1 1 6.488 0M211.664 258.855c.082 1.02.074 2.02-.055 3-.773 5.473-4.105 8.282-9.847 7.477-5.664-.797-7.606-5.52-6.922-10.394.12-.817.293-1.602.566-2.356zm-13.668-5.32c-1.93-.273-3.531-.305-4.41-2.097l-.106-.012-1.097 7.863c-1.031 7.344 2.793 12.93 9.254 13.832 6.52.918 11.242-3.164 12.285-10.64l1.133-8.028-.102-.015c-.73 1.601-3.09 1.035-4.601.824l-12.356-1.727M210.434 289.945c.504 5.2-3.829 8.715-8.641 9.192-4.91.484-8.879-2.352-9.371-7.36-.508-5.168 3.918-8.894 8.523-9.351 4.973-.485 8.985 2.414 9.489 7.52zm2.394-.004c-.52-6.933-6.289-11.851-12.555-11.238-6.753.664-10.882 6.625-10.234 13.148.64 6.551 6.07 11.641 12.781 10.977 5.93-.586 10.72-5.98 10.008-12.887M198.852 313.723c-1.762.609-3.016 1.015-3.403 3.004l-.093.035-1.934-5.528.094-.03c1.546 1.316 2.796.882 4.546.269l12.461-4.356c1.754-.613 3-1.047 3.375-3l.094-.035 1.59 4.563-.035.015c-.328.25-.442.43-.61.738l-.48.649-10.43 16.484 11.84-4.136c1.746-.614 3.004-1.02 3.363-3l.094-.04 1.922 5.5-.094.04c-1.504-1.301-2.754-.86-4.508-.254l-17.523 6.12c-.02-2.476.668-3.804 1.969-5.804l9.847-15.453-12.086 4.219M229.129 344.695l-.055-.086c.547-1.957-.41-4.332-1.496-6.039-2.77-4.347-7.726-5.859-12.226-2.996-4.493 2.864-5.618 8.606-2.813 13.012a16.543 16.543 0 0 0 3.008 3.543l4.008-2.555c1.289-.82 2.64-1.722 2.34-3.297l.082-.05 2.726 4.265-.082.055c-.426.074-.871.363-1.293.625l-6.418 4.086c-.422.273-.887.527-1.176.945-1.836-1.972-3.636-3.879-5.082-6.137-4.554-7.148-3.324-13.851 2.278-17.421 6.004-3.825 12.785-1.434 17.086 5.32.949 1.473 1.703 3.039 2.324 4.687l-3.211 2.043M229.621 358.422c-.8-.832-1.234-1.29-2.277-1.805v-.098l2.652-.105c.324.012.684-.055 1.024.07.375.149 1.175 1.035 1.476 1.348l2.309 2.414c.804.832 1.234 1.29 2.277 1.805v.097l-2.644.098c-.333-.004-.68.063-1.028-.066-.37-.149-1.176-1.036-1.472-1.348l-2.317-2.41M237.672 375.555l3.094 2.87c1.617 1.49 3.855 2.321 6.043 2.18l.082.06-3.825 2.526-10.945-8.394.066-.078c1.696.554 3.024-1.508 3.938-2.692l7.59-9.898c.933-1.207 2.554-3.004 1.597-4.527l.06-.082 8.405 6.441c.446.348.856.738 1.34.82l.074.055-2.359 3.078-.074-.062c-.09-1.575-1.086-2.5-2.297-3.426-.918-.707-1.856-1.387-2.82-1.875l-3.75 4.887 3.132 2.398c.414.32.84.645 1.27.727l.078.058-2.125 2.781-.09-.054c.172-1.078-.957-1.899-1.765-2.528l-1.946-1.488-4.773 6.223M265.664 392.414c-2.14 1.125-4.926.695-7.027-.277-1.98-.914-3.785-2.528-4.453-4.617-.786-2.489.207-4.465 1.214-6.625l3.727-8.016c.629-1.348 1.852-3.445.59-4.719l.047-.094 5.699 2.649-.047.09c-1.762-.125-2.601 2.148-3.226 3.5l-3.727 8.008c-1.86 3.988-1.043 6.632 2.047 8.07 1.683.781 3.715.883 5.36-.066 1.081-.586 1.398-1.352 1.902-2.43l4.19-9.035c.634-1.352 1.837-3.457.595-4.723l.039-.09 5.71 2.645-.015.101c-1.8-.137-2.637 2.137-3.273 3.524l-5.258 11.304c-.633 1.356-1.828 3.461-.563 4.739l-.043.093-4.41-2.054.922-1.977M284.227 384.012c.367-1.477 1.175-3.766-.317-4.782l.024-.097 6.109 1.515-.027.098c-1.762.207-2.153 2.637-2.512 4.082l-3 12.106c-.363 1.449-1.133 3.746.32 4.753l-.023.09-6.102-1.504.02-.101c1.754-.184 2.148-2.606 2.507-4.051l3-12.11M323.688 401.281c-1.325 2.004-3.985 2.977-6.293 3.121-2.184.153-4.536-.406-6.122-1.918-1.882-1.804-1.96-4.015-2.109-6.394l-.578-8.82c-.094-1.489-.016-3.91-1.742-4.426l-.008-.102 6.273-.41.008.102c-1.61.73-1.258 3.132-1.156 4.617l.566 8.816c.285 4.399 2.262 6.317 5.672 6.098 1.852-.117 3.688-.996 4.668-2.621.66-1.035.578-1.864.5-3.047l-.64-9.942c-.106-1.488-.059-3.914-1.75-4.43l-.004-.1 6.265-.403.04.094c-1.641.734-1.282 3.132-1.188 4.652l.808 12.445c.098 1.489.059 3.914 1.782 4.434l.004.098-4.848.316-.148-2.18M341.578 395.742c.61 1.754.996 3.024 2.988 3.414l.04.102-5.54 1.902-.03-.09c1.323-1.543.894-2.797.288-4.547l-4.304-12.484c-.61-1.754-1.036-3-2.985-3.379l-.031-.098 4.566-1.574.02.031c.246.336.422.446.73.621l.657.473 16.425 10.512-4.085-11.856c-.598-1.761-.997-3.023-2.989-3.386l-.031-.086 5.516-1.903.027.09c-1.3 1.5-.871 2.754-.27 4.5l6.051 17.551c-2.476.023-3.804-.68-5.793-1.988l-15.426-9.907 4.176 12.102M359.902 374.45c-.761-1.31-1.773-3.516-3.55-3.212l-.047-.082 5.43-3.168.054.09c-1.125 1.383.285 3.39 1.04 4.684l6.26 10.777c.755 1.29 1.798 3.477 3.548 3.191l.05.082-5.44 3.168-.048-.09c1.13-1.343-.27-3.367-1.02-4.652l-6.277-10.789M381.484 361.09c-.8-2.39-1.64-5.203-3.754-4.535l-.07-.078 3.813-3.13 7.687 23.141c-2.758.297-3.52.575-5.914-.84l-12.45-7.292c-1.55-.907-3.155-2.079-4.995-2.028l-.063-.074 3.739-3.066.222.328c.461.562 1.98 1.418 2.645 1.812l13.203 7.797-4.063-12.035M402.012 358.496l2.972-2.992c1.54-1.57 2.446-3.774 2.375-5.969l.067-.086 2.402 3.91-8.75 10.66-.078-.062c.61-1.684-1.414-3.082-2.562-4.031l-9.641-7.914c-1.176-.969-2.918-2.656-4.48-1.746l-.079-.067 6.723-8.183c.355-.438.766-.825.863-1.305l.067-.07 2.988 2.445-.066.078c-1.567.047-2.532 1-3.5 2.184-.735.89-1.446 1.808-1.957 2.75l4.746 3.906 2.504-3.04c.335-.405.671-.823.773-1.257l.066-.074 2.696 2.226-.047.079c-1.082-.2-1.946.89-2.59 1.683l-1.555 1.899 6.063 4.976M398.594 328.96c2.105-3.894 5.3-4.917 7.941-3.48 2.563 1.375 3.36 4.704 2.63 7.395l7.534-1.344c2.172-.402 4.672-1.418 6.621-2.511l-1.449 2.68c-.836 1.542-1.734 2.3-3.285 2.585l-6.316 1.176-5.551.46c.906-2.523 1.3-5.808-1.438-7.288-2.097-1.137-4.297.004-5.258 2.004-.332.687-.59 1.37-.836 2.11l13.032 7.05c1.344.726 3.375 2.05 4.699.848l.09.046-3.012 5.567-.082-.051c.27-1.766-1.996-2.73-3.3-3.441l-10.973-5.938c-1.332-.726-3.352-2.074-4.711-.89l-.086-.044 3.75-6.933M411.598 306.922c-1.66.832-3.004 2.562-3.559 4.328-.566 1.8-.59 4.29 1.59 4.98 4.32 1.36 7.687-9.515 13.523-7.671 3.38 1.066 5.422 5.601 3.86 10.523-.606 1.922-1.5 3.758-2.727 5.348l-4.234-.332c2.191-1.352 4.02-3.625 4.797-6.082.566-1.801.359-4.852-1.852-5.547-4.93-1.555-7.465 9.582-14.156 7.465-3.98-1.25-4.207-5.797-2.988-9.657a16.39 16.39 0 0 1 2.175-4.476l3.57 1.12M414.043 299.773c-1.504-.242-3.848-.851-4.738.711l-.102-.011 1.012-6.211.094.02c.359 1.73 2.8 1.921 4.277 2.163l12.32 1.98c1.469.235 3.82.817 4.703-.718l.098.02-.996 6.207-.106-.012c-.324-1.738-2.77-1.922-4.242-2.164l-12.32-1.985M428.547 280.367c1.879.031 3.172.09 4.234-1.644l.094.004-.129 6.55h-.094c-.597-1.664-3.015-1.523-4.507-1.543l-14.747-.285-.058 2.914c-.035 1.422.305 2.914 1.246 3.961v.102l-3.918-1.238v-.098c.172-.39.18-.824.258-1.246l.011-.832.235-12.348c.012-.558-.008-1.086-.203-1.52l.008-.097 3.918 1.133v.097c-1.176.407-1.364 1.727-1.383 2.82l-.059 2.981 15.094.29M426.535 255.945c1.961-.324 2.934-.492 3.863-2.351l.106-.02 1.058 6.364-.105.015c-1.078-1.465-3.152-.879-4.7-.625l-4.82.813-7.82 6.87c-1.285 1.122-2.25 1.954-2.847 3.653l-.489-2.965c-.176-1.043-.105-2.058.504-2.594l7.649-6.648-6.743-3.031c-.914-.422-2.601-.91-3.18 1.058l-.093.02-.957-5.711 13.418 6.02 5.156-.868M369.566 223.535c-47.824-8.793-58.41-15.402-58.41-15.402s-10.508 6.562-57.879 15.308c-1.656.34-1.668 1.094-1.656 1.813.945 21.793.84 57.535-.066 81.367 0 27.828 56.406 48.93 58.8 49.805a2.23 2.23 0 0 0 1.59 0c2.41-.875 58.813-21.977 58.813-49.805-.606-20.723-1.043-69.46-.106-81.7.055-.663-.011-1.222-1.086-1.386zm-28.898 16.098c5.844.664 11.34 1.508 16.336 2.5v29.875c0 8.293-2.719 10.86-8.18 10.86-5.46 0-8.156-2.567-8.156-10.86zm-48.492-1.004v14.273c-2.406-7.074-7.844-11.187-18.055-12.293 5.942-.902 11.988-1.546 18.055-1.98zm-27.59 10.105h5.117c9.988 0 13.8 4.243 13.8 15.27 0 12.57-4.792 17.55-12.71 17.55h-6.207zm37.102 76.489h-2.176v-8.075h-2.617v-1.554c1.5-.008 2.761-.41 3.199-2.02h1.594zm8.003-4.473c0 3.703-1.05 4.707-3.355 4.707-1.7 0-2.934-.777-2.867-2.625h2.02c.015.39.058.957.949.918 1.218 0 1.097-1.48 1.136-2.176v-.746c-.363.379-.707.781-1.719.781-1.835 0-2.632-1.257-2.632-3.656 0-2.914.715-4.414 3.222-4.414 2.594 0 3.29 1.684 3.246 4.414zm-11.488-29.195c-2.328-.84-4.344-2.067-6.027-3.602v55.203c-16.047-8.355-36.016-21.722-36.016-36.535v-16.64h15.395c7.476 0 13-2.766 16.644-7.301.223-.266.438-.54.653-.825.101-.164.218-.316.324-.48.082-.137.176-.262.254-.387.156-.222.285-.441.43-.672.035-.078.09-.152.144-.238.144-.254.297-.531.434-.797.027-.039.043-.082.062-.12.16-.302.316-.606.457-.923 0-.011.016-.02.027-.035.453-.976.856-2 1.192-3.07.976-3.047 1.48-6.41 1.531-9.989.059-4.277-.29-8.015-1.21-11.203 9.605-17.586 23.124-20.78 30.085-20.48 10.566.469 11.855 12.98 6.676 20.52-6.133 8.933-20.172 12.73-27.239 13.292-2.703 13.582 2.844 16.954 5.637 17.598 8.754 1.992 20.903-8.566 25.028-24.504.43-1.648 1.496-2.539 1.12-.305-3.831 23.504-19.812 37.192-35.6 31.493zm18.707 23.785c-1.023 1.808-1.68 3.707-2.168 5.625-.363 1.383-.62 2.824-.683 4.258h-2.227c.156-2.45.93-4.828 1.832-7.118.25-.609.809-1.843 1.336-2.632h-4.645v-1.7h6.555zm7.29 0c-1.02 1.808-1.688 3.707-2.173 5.625-.347 1.383-.625 2.824-.687 4.258h-2.227c.164-2.45.946-4.828 1.84-7.118.258-.609.809-1.843 1.348-2.632h-4.649v-1.7h6.547zm41.937-8.719c0 14.84-20.051 28.227-36.102 36.582v-65.402c1.203 8.597 8.438 13.488 18.79 13.488 8.241 0 14.507-3.086 17.312-8.7v24.032" style="fill:#005ea8;fill-opacity:1;fill-rule:nonzero;stroke:none" transform="matrix(.92803 0 0 .90156 -154.737 -109.143)"/><path d="M306.406 315.234c-1.133.02-1.008 1.079-1.008 2.567 0 .847-.117 2.097 1.047 2.097 1.075 0 1.075-1.14 1.075-2.097.015-1.442.054-2.668-1.114-2.567M321.188 235.797c-2.922-.535-10.083 4.281-16.47 22.07a73.739 73.739 0 0 0-2.152 6.996c18.13-4.761 24.055-28.082 18.622-29.066" style="fill:#005ea8;fill-opacity:1;fill-rule:nonzero;stroke:none" transform="matrix(.92803 0 0 .90156 -154.737 -109.143)"/><path d="M404.023 279.363c0 52.766-41.582 95.54-92.878 95.54-51.282 0-92.868-42.774-92.868-95.54 0-52.746 41.586-95.508 92.868-95.508 51.296 0 92.878 42.762 92.878 95.508zm0 0" style="fill:none;stroke:#005ea8;stroke-width:1.9924;stroke-linecap:butt;stroke-linejoin:miter;stroke-miterlimit:4;stroke-opacity:1" transform="matrix(.92803 0 0 .90156 -154.737 -109.143)"/><path d="M182.82 279.363c0 72.848 57.57 132.106 128.325 132.106 70.753 0 128.324-59.258 128.324-132.106 0-72.84-57.57-132.09-128.324-132.09-70.754 0-128.325 59.25-128.325 132.09zm0 0" style="fill:none;stroke:#005ea8;stroke-width:1.9924;stroke-linecap:butt;stroke-linejoin:miter;stroke-miterlimit:4;stroke-opacity:1" transform="matrix(.92803 0 0 .90156 -154.737 -109.143)"/></g></svg>