<svg xmlns="http://www.w3.org/2000/svg" viewBox="0 0 231.466 231.457"><path d="M115.73 0a115.729 115.729 0 1 0 115.736 115.73A115.861 115.861 0 0 0 115.73 0Zm0 230.5A114.767 114.767 0 1 1 230.5 115.73 114.9 114.9 0 0 1 115.73 230.5Z" style="fill:#e11737"/><path d="m35.767 181.565 7.344-6.749.906.983-7.331 6.738c-2.132 1.965-2.647 4.221-.607 6.44 1.905 2.072 4.4 1.839 6.473-.061l7.325-6.738.892.965-7.345 6.757c-2.571 2.362-5.869 2.5-8.244-.091-2.597-2.823-2.08-5.786.587-8.244ZM58.464 192.592l-7.493 11.115-1.113-.748 8.772-13.019 1.152.775.053 16.316 7.543-11.195 1.11.754-8.775 13.01-1.149-.776ZM73.6 216.445l-1.23-.527 6.157-14.435 1.229.523ZM88.957 205.561l1.462.318 2.42 14.922 8.4-12.568 1.4.3-9.5 14-1.351-.293ZM112.073 224.82l.255-15.691 6.484.105-.02 1.225-5.144-.08-.094 5.734 5.011.08-.019 1.225-5.011-.08-.1 6.281 5.19.08-.019 1.227ZM135.662 215.19l5.5 6.839-1.4.262-5.367-6.609-2.277.427 1.379 7.352-1.314.246-2.891-15.42 3.233-.607c2.7-.5 4.59.48 5.091 3.154a3.871 3.871 0 0 1-1.954 4.356Zm-4.831-5.967 1.069 5.7 1.912-.36a2.7 2.7 0 0 0 2.426-3.449c-.33-1.762-1.484-2.631-3.488-2.256ZM152.07 208.432c1.257.15 2.492-.008 3.751.14a4.429 4.429 0 0 1 1.144 8.539c-2.965 1.2-5.083-.162-6.124-2.724l1.237-.5c.8 1.9 2.259 3.025 4.444 2.137a2.931 2.931 0 0 0 1.75-4.065 3.091 3.091 0 0 0-2.659-2.029c-1.3-.18-2.588.025-3.914-.17a3.89 3.89 0 0 1-3.28-2.606 4.106 4.106 0 0 1 7.726-2.773l-1.129.461c-.726-1.545-2.06-2.418-3.846-1.7a2.537 2.537 0 0 0-1.527 3.533 2.737 2.737 0 0 0 2.427 1.757ZM174.018 208.027l-1.135.707-8.311-13.308 1.135-.709ZM178.807 186.334l9.573 10.857-1 .885-9.57-10.857-2.639 2.324-.811-.918 6.332-5.578.81.918ZM186.893 176.527l.936-1.226 7.065.838-2.659-6.6.9-1.176 3.211 8.086 6.542 5-.815 1.063-6.538-5ZM43.108 36.359c3.9-3.429 8.189-3.363 11.439.334 3.233 3.682 2.826 8.03-1.071 11.461l-2.694 2.364L40.415 38.73Zm8.319 9.151c1.889-1.627 2.176-3.906.172-6.194-1.994-2.263-4.225-2.294-6.135-.583ZM65.831 20.105c4.545-2.371 9-.732 11.123 3.333a7.865 7.865 0 0 1-3.5 11.054c-4.546 2.369-8.945.7-11.071-3.387a7.912 7.912 0 0 1 3.448-11ZM71.8 31.363c2.45-1.275 2.838-3.781 1.653-6.051s-3.535-3.347-5.928-2.1c-2.455 1.279-2.82 3.768-1.632 6.043s3.594 3.315 5.907 2.108ZM89.874 17.885l2.087 9.035-3.555.822-3.535-15.283 3.8-.879 7.876 7.9-2.136-9.23 3.556-.822 3.533 15.287-3.642.84ZM125.06 24.035l-3.649-.072.017-.77a5.735 5.735 0 0 1-3.627.973 7.7 7.7 0 0 1-7.985-8.3 7.921 7.921 0 0 1 8.306-7.953c3.422.067 5.482 1.557 6.6 3.442l-3.037 2.091a4.251 4.251 0 0 0-3.658-2c-2.468-.052-4.207 1.8-4.262 4.5a4.311 4.311 0 0 0 4.288 4.733 4.677 4.677 0 0 0 3.377-1.137l.025-1.135-2.339-.041.064-3.109 6.051.123ZM140.612 16.873l1.725 1.227a4.574 4.574 0 0 1 2.048 5.189c-.773 3.08-3.4 4.34-6.455 3.576-4.358-1.088-4.441-4.123-3.754-6.314l3.473.869c-.285.961-.146 2 1.064 2.3a1.344 1.344 0 0 0 1.788-.983c.216-.857-.3-1.428-1.193-2.05-.695-.5-1.395-.981-2.123-1.606a4.545 4.545 0 0 1-1.324-4.726c.664-2.663 3.065-4.028 6.033-3.286 3.587.9 4.374 3.266 3.544 5.934l-3.386-.844a1.408 1.408 0 0 0-.92-1.937 1.152 1.152 0 0 0-1.539.83c-.16.639.083 1.169 1.019 1.821ZM150.935 30.777l6.588-14.244 6.75 3.125-1.484 3.215-3.31-1.533-1.022 2.2 3.208 1.49-1.465 3.163-3.211-1.484-1.134 2.447 3.373 1.563-1.483 3.211ZM180.972 29.846c4.075 3.1 4.49 7.838 1.716 11.478a7.861 7.861 0 0 1-11.488 1.539c-4.075-3.1-4.431-7.8-1.644-11.455a7.915 7.915 0 0 1 11.416-1.562Zm-7.65 10.191c2.2 1.674 4.626.961 6.182-1.078s1.525-4.623-.62-6.258c-2.2-1.678-4.611-.945-6.162 1.09-1.57 2.057-1.476 4.664.6 6.246Z" style="fill:#e11737;fill-rule:evenodd"/><path d="M115.738 201.91a86.18 86.18 0 1 1 86.179-86.183 86.283 86.283 0 0 1-86.179 86.183Zm0-171.65a85.471 85.471 0 1 0 85.47 85.467 85.569 85.569 0 0 0-85.47-85.467Z" style="fill:#e11737"/><path d="M84.324 92.608c-6.514-5.543-14.834-6.684-23.085-6.879v10.4c5.325.053 10.979.482 15.486 3.576a19.289 19.289 0 0 1 7.867 15.955 19.081 19.081 0 0 1-7.144 14.9c-4.681 3.482-10.531 4-16.209 4.064v10.42c8.447-.1 16.379-1.088 23.085-6.814 6.061-5.157 10.159-14.063 10.159-22.565 0-8.388-3.659-17.597-10.159-23.057ZM49.21 145.049h10.355V85.7H49.21Zm59.246-16.633-9.691 4.884c2.344 7.275 9.834 12.289 17.169 12.611V135.26c-3.817-.522-5.94-2.82-7.478-6.844Zm21.244-14.351c-2.081-1.463-3.742-2.944-12.4-5.733-.957-.31-6.395-1.894-6.395-6.8 0-3.275 1.793-5.549 5.031-6.043V84.871c-8.742.666-15.892 7.543-15.892 16.662 0 9.016 7.153 13.385 8.51 14.121 1.91 1.034 7.919 2.991 8.746 3.325 2.122.853 7.717 2.951 7.717 8.4 0 7.346-6.013 7.959-7.407 8V145.9a18.7 18.7 0 0 0 18.273-18.521c-.002-2.057-.322-9.179-6.183-13.314Zm-6.047-12.793 10.018-4.758a17.5 17.5 0 0 0-16.058-11.7v10.614c4.741.607 5.929 5.488 6.035 5.844Zm48.434-15.581v36.764c0 3.09.081 6.106-1.586 8.8a8.958 8.958 0 0 1-6.5 4.054v10.581a21.112 21.112 0 0 0 14.665-7.581c3.806-4.6 4.283-10.076 4.283-15.857V85.691Zm-16.258 45.567c-1.665-2.7-1.585-5.713-1.585-8.8V85.691h-10.867v36.764c0 5.781.473 11.256 4.277 15.857a21.129 21.129 0 0 0 14.67 7.581v-10.581a8.949 8.949 0 0 1-6.5-4.054Z" style="fill:#e11737"/></svg>