<svg xmlns="http://www.w3.org/2000/svg" width="283.59476mm" height="145.5125mm" viewBox="0 0 283.59476 145.5125"><path d="M0 0c4.962 0 5.021 7.15 0 7.15C-5.081 7.15-5.021 0 0 0m12.033 7.6H7.012C10.875 2.363 6.121-3.801 0-3.801c-6.27 0-10.845 6.283-7.071 11.401h-5.111v3.74h9.864v1.467h-4.694c-2.169 0-3.923 1.644-3.923 3.709v6.943h21.78v-3.711H-6.388v-3.172h17.263v-3.769H2.199V11.34h9.834z" style="fill:#231f20;fill-opacity:1;fill-rule:nonzero;stroke:none" transform="matrix(1.4699 0 0 -1.4699 17.906 125.21)"/><path d="M0 0c4.873 0 4.873 7.152 0 7.152S-4.902 0 0 0m0 10.982c10.845 0 10.786-14.841 0-14.841-10.845 0-10.904 14.841 0 14.841M15.124-15.17h-4.546v3.32H-8.646v3.741h19.224v18.941h4.546z" style="fill:#231f20;fill-opacity:1;fill-rule:nonzero;stroke:none" transform="matrix(1.4699 0 0 -1.4699 54.29 106.298)"/><path d="M0 0h-3.298v-16.287h-4.546v3.32h-18.451v3.74h3.536V.35h4.516v-9.577h2.733c1.13 2.873 1.1 5.237 1.1 6.135v8.947h-10.667v3.741h15.183V-3.063s.059-3.47-1.041-6.164h3.091V9.715h4.546V3.74H0Z" style="fill:#231f20;fill-opacity:1;fill-rule:nonzero;stroke:none" transform="matrix(1.4699 0 0 -1.4699 121.9 104.831)"/><path d="M0 0h-3.269v-5.041h-4.516v14.9h4.516V3.74H0Zm-14.5 1.422c0 3.441-5.733 3.441-5.733 0 0-3.442 5.733-3.442 5.733 0m11.231-17.535h-4.516v6.375h-16.668v3.8h21.184ZM-9.625 5.611h-2.199c1.129-1.107 1.842-2.574 1.842-4.189 0-8.318-14.797-8.258-14.797 0 0 1.615.742 3.082 1.902 4.189h-2.141v3.741h5.409v1.736h4.574V9.352h5.41z" style="fill:#231f20;fill-opacity:1;fill-rule:nonzero;stroke:none" transform="matrix(1.4699 0 0 -1.4699 163.131 105)"/><path d="M0 0h-4.426v16.014h-1.219V0h-4.457v5.295H-18.6c-2.199 0-3.951 1.646-3.951 3.682v16.935h11.202v-3.74h-6.655V9.035h7.902v17.028h4.457v-6.28h1.219v6.28H0Z" style="fill:#231f20;fill-opacity:1;fill-rule:nonzero;stroke:none" transform="matrix(1.4699 0 0 -1.4699 201.13 128.508)"/><path d="M0 0h-3.268v-5.156h-4.516v14.9h4.516V3.74H0Zm-14.499 1.307c0 3.441-5.733 3.441-5.733 0 0-3.442 5.733-3.442 5.733 0m11.231-17.536h-4.516v6.374h-16.669v3.8h21.185ZM-9.626 5.496h-2.199c1.129-1.107 1.843-2.574 1.843-4.189 0-8.319-14.797-8.258-14.797 0 0 1.615.742 3.082 1.901 4.189h-2.14v3.74h5.409v1.737h4.576V9.236h5.407z" style="fill:#231f20;fill-opacity:1;fill-rule:nonzero;stroke:none" transform="matrix(1.4699 0 0 -1.4699 246.118 104.831)"/><path d="M0 0h-22.799v3.74h3.721v9.487h4.252V3.74h2.322v9.487h4.252V3.74h1.79c1.064 2.844 1.035 5.207 1.035 6.106v12.3h-16.197v3.741h20.505V9.875s.028-3.471-.979-6.135H0Z" style="fill:#231f20;fill-opacity:1;fill-rule:nonzero;stroke:none" transform="matrix(1.4699 0 0 -1.4699 282.43 128.646)"/><path d="M0 0v-4.469h1.498c.766 0 1.3.334 1.603.998.165.367.248.801.248 1.307 0 .697-.125 1.232-.372 1.605C2.729-.186 2.236 0 1.498 0Zm2.973 1.041A2.554 2.554 0 0 0 4.295.172c.271-.34.455-.709.554-1.104a4.74 4.74 0 0 0 .147-1.134c0-.913-.207-1.682-.621-2.315-.562-.851-1.43-1.277-2.604-1.277h-3.345v6.847h3.345c.482-.005.882-.054 1.202-.148" style="fill:#231f20;fill-opacity:1;fill-rule:nonzero;stroke:none" transform="matrix(1.4699 0 0 -1.4699 3.657 136.917)"/><path d="M0 0c.377.418.566 1.012.566 1.783 0 .768-.189 1.363-.566 1.783-.377.418-.887.629-1.53.629-.642 0-1.155-.209-1.537-.627-.383-.42-.574-1.013-.574-1.785 0-.771.191-1.365.574-1.783.382-.42.895-.627 1.537-.627C-.887-.627-.377-.42 0 0m1.013-1.041C.427-1.574-.42-1.84-1.53-1.84c-1.109 0-1.956.266-2.542.799-.787.652-1.18 1.594-1.18 2.824 0 1.254.393 2.197 1.18 2.824.586.534 1.433.801 2.542.801 1.11 0 1.957-.267 2.543-.801.783-.627 1.174-1.57 1.174-2.824 0-1.23-.391-2.172-1.174-2.824" style="fill:#231f20;fill-opacity:1;fill-rule:nonzero;stroke:none" transform="matrix(1.4699 0 0 -1.4699 19.29 142.808)"/><path d="M0 0h1.7l3.08-4.775V0h1.512v-6.848H4.67l-3.159 4.86v-4.86H0Z" style="fill:#231f20;fill-opacity:1;fill-rule:nonzero;stroke:none" transform="matrix(1.4699 0 0 -1.4699 23.493 135.168)"/><path d="M0 0c-.123.469-.423.795-.9.98a2.477 2.477 0 0 1-.89.155c-.625 0-1.138-.209-1.54-.625-.402-.414-.603-1.041-.603-1.875 0-.842.218-1.436.653-1.785.436-.35.93-.526 1.485-.526.544 0 .99.139 1.337.414.348.278.562.637.643 1.084h-1.796v1.143h3.233v-3.676H.548l-.163.856c-.313-.325-.593-.553-.843-.686-.428-.23-.955-.346-1.58-.346-1.028 0-1.87.315-2.526.942-.685.632-1.027 1.496-1.027 2.591 0 1.108.346 1.997 1.037 2.665.691.668 1.606 1.003 2.743 1.003.986 0 1.779-.22 2.377-.662C1.165 1.211 1.508.66 1.595 0Z" style="fill:#231f20;fill-opacity:1;fill-rule:nonzero;stroke:none" transform="matrix(1.4699 0 0 -1.4699 41.854 138.31)"/><path d="M157.305 156.954h1.037v.443h-1.037z" style="fill:#231f20;fill-opacity:1;fill-rule:nonzero;stroke:none;stroke-width:.352778" transform="translate(-610.562 -513.565) scale(4.16667)"/><path d="M0 0h-4.107v-1.455h3.77v-1.19h-3.77v-1.761H.189v-1.231h-5.88v6.848H0Z" style="fill:#231f20;fill-opacity:1;fill-rule:nonzero;stroke:none" transform="matrix(1.4699 0 0 -1.4699 58.642 136.948)"/><path d="M0 0h1.647v-4.205c0-.471.063-.815.189-1.029.196-.385.623-.579 1.281-.579.654 0 1.079.194 1.274.579.126.214.189.558.189 1.029V0h1.648v-4.209c0-.727-.128-1.295-.384-1.701-.476-.742-1.386-1.113-2.727-1.113-1.343 0-2.254.371-2.734 1.113C.128-5.504 0-4.936 0-4.209Z" style="fill:#231f20;fill-opacity:1;fill-rule:nonzero;stroke:none" transform="matrix(1.4699 0 0 -1.4699 59.985 135.168)"/><path d="M164.01 158.112h-.568v-2.416h.568zM165.743 158.112h-.568v-2.416h.568z" style="fill:#231f20;fill-opacity:1;fill-rule:nonzero;stroke:none;stroke-width:.352778" transform="translate(-610.562 -513.565) scale(4.16667)"/><path d="M0 0h1.7l3.08-4.775V0h1.512v-6.848H4.67l-3.159 4.86v-4.86H0Z" style="fill:#231f20;fill-opacity:1;fill-rule:nonzero;stroke:none" transform="matrix(1.4699 0 0 -1.4699 81.433 135.168)"/><path d="M0 0c.049-.313.147-.547.295-.699.268-.283.728-.424 1.382-.424.389 0 .708.037.95.111.463.143.694.407.694.795 0 .227-.112.401-.34.524-.227.121-.585.228-1.077.32l-.841.164c-.825.16-1.393.336-1.701.523-.523.319-.784.811-.784 1.483 0 .613.255 1.123.768 1.529.51.406 1.262.61 2.255.61.827 0 1.532-.192 2.118-.575.584-.382.89-.937.919-1.666H3.08c-.029.412-.238.705-.627.879-.26.114-.58.172-.967.172-.427 0-.769-.074-1.025-.225C.207 3.373.078 3.166.078 2.9c0-.244.127-.427.379-.548.16-.081.504-.176 1.029-.284l1.364-.283c.595-.123 1.044-.289 1.341-.498.462-.32.695-.787.695-1.396 0-.627-.276-1.147-.823-1.561-.548-.412-1.323-.619-2.323-.619-1.021 0-1.824.203-2.41.611-.585.407-.878.967-.878 1.678z" style="fill:#231f20;fill-opacity:1;fill-rule:nonzero;stroke:none" transform="matrix(1.4699 0 0 -1.4699 93.844 142.127)"/><path d="M0 0v-1.211h-2.321v-5.637h-1.632v5.637h-2.332V0Z" style="fill:#231f20;fill-opacity:1;fill-rule:nonzero;stroke:none" transform="matrix(1.4699 0 0 -1.4699 110.191 135.168)"/><path d="M173.647 158.112h-.568v-2.416h.568z" style="fill:#231f20;fill-opacity:1;fill-rule:nonzero;stroke:none;stroke-width:.352778" transform="translate(-610.562 -513.565) scale(4.16667)"/><path d="M0 0v-1.211h-2.321v-5.637h-1.633v5.637h-2.332V0Z" style="fill:#231f20;fill-opacity:1;fill-rule:nonzero;stroke:none" transform="matrix(1.4699 0 0 -1.4699 122.693 135.168)"/><path d="M0 0h1.647v-4.205c0-.471.064-.815.19-1.029.196-.385.623-.579 1.28-.579.654 0 1.079.194 1.275.579.127.214.189.558.189 1.029V0h1.648v-4.209c0-.727-.128-1.295-.384-1.701-.476-.742-1.386-1.113-2.728-1.113-1.343 0-2.253.371-2.733 1.113C.128-5.504 0-4.936 0-4.209Z" style="fill:#231f20;fill-opacity:1;fill-rule:nonzero;stroke:none" transform="matrix(1.4699 0 0 -1.4699 123.293 135.168)"/><path d="M0 0v-1.211h-2.321v-5.637h-1.633v5.637h-2.333V0Z" style="fill:#231f20;fill-opacity:1;fill-rule:nonzero;stroke:none" transform="matrix(1.4699 0 0 -1.4699 142.235 135.168)"/><path d="M0 0h-4.106v-1.455h3.768v-1.19h-3.768v-1.761H.189v-1.231h-5.88v6.848H0Z" style="fill:#231f20;fill-opacity:1;fill-rule:nonzero;stroke:none" transform="matrix(1.4699 0 0 -1.4699 151.271 136.948)"/><path d="M0 0c.377.418.565 1.012.565 1.783 0 .768-.188 1.363-.565 1.783-.378.418-.887.629-1.528.629-.644 0-1.157-.209-1.539-.627-.383-.42-.575-1.013-.575-1.785 0-.771.192-1.365.575-1.783.382-.42.895-.627 1.539-.627C-.887-.627-.378-.42 0 0m1.013-1.041C.427-1.574-.42-1.84-1.528-1.84c-1.112 0-1.957.266-2.545.799-.785.652-1.178 1.594-1.178 2.824 0 1.254.393 2.197 1.178 2.824.588.534 1.433.801 2.545.801 1.108 0 1.955-.267 2.541-.801.783-.627 1.174-1.57 1.174-2.824 0-1.23-.391-2.172-1.174-2.824" style="fill:#231f20;fill-opacity:1;fill-rule:nonzero;stroke:none" transform="matrix(1.4699 0 0 -1.4699 163.52 142.808)"/><path d="M0 0h5.534v-1.201H1.61v-1.576h3.439v-1.19H1.61v-2.871H0Z" style="fill:#231f20;fill-opacity:1;fill-rule:nonzero;stroke:none" transform="matrix(1.4699 0 0 -1.4699 167.76 135.183)"/><path d="M0 0v-1.211h-2.322v-5.637h-1.633v5.637h-2.332V0Z" style="fill:#231f20;fill-opacity:1;fill-rule:nonzero;stroke:none" transform="matrix(1.4699 0 0 -1.4699 188.55 135.168)"/><path d="M0 0h-4.106v-1.455h3.77v-1.19h-3.77v-1.761H.189v-1.231h-5.88v6.848H0Z" style="fill:#231f20;fill-opacity:1;fill-rule:nonzero;stroke:none" transform="matrix(1.4699 0 0 -1.4699 197.585 136.948)"/><path d="M0 0c.625.564 1.42.846 2.385.846 1.291 0 2.236-.379 2.834-1.133.33-.426.507-.852.531-1.277H4.127c-.103.326-.234.574-.397.742-.289.297-.715.445-1.284.445-.577 0-1.032-.209-1.366-.629-.334-.42-.5-1.014-.5-1.781 0-.768.176-1.344.527-1.727.352-.382.799-.574 1.341-.574.556 0 .982.164 1.273.494.162.176.295.44.402.793h1.61a2.972 2.972 0 0 0-1.065-1.82c-.57-.469-1.303-.701-2.194-.701-1.105 0-1.974.316-2.605.947-.632.635-.947 1.506-.947 2.611C-1.078-1.568-.72-.648 0 0" style="fill:#231f20;fill-opacity:1;fill-rule:nonzero;stroke:none" transform="matrix(1.4699 0 0 -1.4699 200.02 136.22)"/><path d="M0 0v6.848h1.61v-2.61h3.018v2.61h1.611V0H4.628v3.057H1.61V0Z" style="fill:#231f20;fill-opacity:1;fill-rule:nonzero;stroke:none" transform="matrix(1.4699 0 0 -1.4699 209.567 145.234)"/><path d="M0 0h1.7l3.081-4.775V0h1.511v-6.848H4.671l-3.159 4.86v-4.86H0Z" style="fill:#231f20;fill-opacity:1;fill-rule:nonzero;stroke:none" transform="matrix(1.4699 0 0 -1.4699 220.196 135.168)"/><path d="M0 0c.377.418.566 1.012.566 1.783 0 .768-.189 1.363-.566 1.783-.377.418-.887.629-1.529.629-.641 0-1.156-.209-1.537-.627-.383-.42-.575-1.013-.575-1.785 0-.771.192-1.365.575-1.783.381-.42.896-.627 1.537-.627C-.887-.627-.377-.42 0 0m1.014-1.041C.429-1.574-.42-1.84-1.529-1.84c-1.11 0-1.957.266-2.542.799-.787.652-1.181 1.594-1.181 2.824 0 1.254.394 2.197 1.181 2.824.585.534 1.432.801 2.542.801 1.109 0 1.958-.267 2.543-.801.781-.627 1.174-1.57 1.174-2.824 0-1.23-.393-2.172-1.174-2.824" style="fill:#231f20;fill-opacity:1;fill-rule:nonzero;stroke:none" transform="matrix(1.4699 0 0 -1.4699 238.182 142.808)"/><path d="M0 0h1.621v-5.617h3.875v-1.231H0Z" style="fill:#231f20;fill-opacity:1;fill-rule:nonzero;stroke:none" transform="matrix(1.4699 0 0 -1.4699 242.426 135.168)"/><path d="M0 0c.379.418.566 1.012.566 1.783 0 .768-.187 1.363-.566 1.783-.375.418-.886.629-1.528.629s-1.156-.209-1.538-.627c-.383-.42-.574-1.013-.574-1.785 0-.771.191-1.365.574-1.783.382-.42.896-.627 1.538-.627S-.375-.42 0 0m1.015-1.041C.429-1.574-.42-1.84-1.528-1.84c-1.11 0-1.957.266-2.543.799C-4.858-.389-5.25.553-5.25 1.783c0 1.254.392 2.197 1.179 2.824.586.534 1.433.801 2.543.801 1.108 0 1.957-.267 2.543-.801.782-.627 1.173-1.57 1.173-2.824 0-1.23-.391-2.172-1.173-2.824" style="fill:#231f20;fill-opacity:1;fill-rule:nonzero;stroke:none" transform="matrix(1.4699 0 0 -1.4699 258.606 142.808)"/><path d="M0 0c-.123.469-.422.795-.899.98a2.477 2.477 0 0 1-.89.155c-.625 0-1.139-.209-1.541-.625-.401-.414-.603-1.041-.603-1.875 0-.842.218-1.436.654-1.785a2.3 2.3 0 0 1 1.484-.526c.545 0 .99.139 1.338.414.348.278.561.637.643 1.084h-1.795v1.143h3.232v-3.676H.549l-.164.856c-.312-.325-.592-.553-.842-.686-.429-.23-.955-.346-1.58-.346-1.028 0-1.871.315-2.526.942-.685.632-1.027 1.496-1.027 2.591 0 1.108.346 1.997 1.036 2.665.692.668 1.607 1.003 2.743 1.003.987 0 1.78-.22 2.377-.662.6-.441.942-.992 1.031-1.652Z" style="fill:#231f20;fill-opacity:1;fill-rule:nonzero;stroke:none" transform="matrix(1.4699 0 0 -1.4699 270.518 138.31)"/><path d="M0 0h1.837L-.759-4.279v-2.569H-2.38v2.569L-5.065 0h1.912l1.61-2.982z" style="fill:#231f20;fill-opacity:1;fill-rule:nonzero;stroke:none" transform="matrix(1.4699 0 0 -1.4699 280.895 135.168)"/><path d="m0 0 1.086 7.387h-43.123l-4.67-30.957h11.08L-32.151 0h13.36l-3.584-23.57h11.078L-7.82 0Z" style="fill:#000;fill-opacity:1;fill-rule:nonzero;stroke:none" transform="matrix(1.4699 0 0 -1.4699 201.13 42.791)"/><path d="m0 0-6.734 6.732 10.318 10.43 6.845-6.844z" style="fill:#ee342e;fill-opacity:1;fill-rule:nonzero;stroke:none" transform="matrix(1.4699 0 0 -1.4699 152.753 25.227)"/><path d="M0 0v-.85l-.104-.744-.32-.849-.32-.746-.424-.743-.531-.636-.637-.637-.639-.639-.744-.533-.742-.422-.957-.426-.851-.318-.955-.318-1.063-.213-1.062-.108h-2.974v.108l2.444 15.191 1.806.106 1.487-.106 1.381-.213 1.168-.424.957-.531.851-.638.635-.637.532-.742.318-.639.32-.744.32-1.276L0 .318Zm4.568 13.066v.108l-.744.426-.742.423-.638.213-.637.213-1.063.213h-19.973l-4.78-32.086H-9.879l2.018.106 1.382.107 1.592.211 1.594.426 1.807.531 1.805.637 1.806.957.851.531.848.639.852.636.742.743.852.849.636.85.743 1.064.638.955.531 1.17.426 1.274.424 1.275.426 1.488.105.424.213 1.168.106 1.914v1.063l-.106 1.168-.106 1.275-.319 1.274-.424 1.382-.639 1.379-.743 1.278-.956 1.273-1.168 1.275Z" style="fill:#ee342e;fill-opacity:1;fill-rule:nonzero;stroke:none" transform="matrix(1.4699 0 0 -1.4699 112.385 52.931)"/></svg>