<svg xmlns="http://www.w3.org/2000/svg" width="259.76865mm" height="198.78445mm" viewBox="0 0 259.76865 198.78445"><path d="M0 0c-4.119-.935-7.666-2.371-9.905-3.869C-7.734-2.271-5.179.573-2.893 4.127c2.484 3.866 4.069 7.679 4.482 10.375-2.284-1.497-5.087-4.525-7.572-8.393-2.484-3.866-4.073-7.673-4.487-10.373 2.679-.531 6.802-.334 11.283.682C5.293-2.561 9.101-.952 11.281.685 8.605 1.213 4.48 1.019 0 0" style="fill:#236fb0;fill-opacity:1;fill-rule:nonzero;stroke:none" transform="matrix(1.49652 0 0 -1.49652 171.252 122.226)"/><path d="M0 0c1.555 1.873 3.173 4.92 4.397 8.53 1.334 3.924 1.895 7.609 1.668 10.058-1.673-1.806-3.468-5.068-4.803-8.995C-.074 5.669-.632 1.987-.407-.468c2.458.12 6.026 1.189 9.731 3.053 3.702 1.871 6.681 4.108 8.237 6.015-2.46-.118-6.03-1.189-9.73-3.054C4.428 3.83 1.635 1.801 0 0" style="fill:#0d6cb0;fill-opacity:1;fill-rule:nonzero;stroke:none" transform="matrix(1.49652 0 0 -1.49652 172.031 119.023)"/><path d="M0 0c1.082 1.881 2.042 4.806 2.571 8.163.574 3.656.508 6.976-.066 9.097C1.311 15.417.226 12.276-.351 8.625c-.576-3.658-.505-6.978.067-9.098C1.858.002 4.831 1.486 7.804 3.69c2.967 2.21 5.245 4.625 6.327 6.538-2.145-.477-5.122-1.96-8.089-4.164C3.312 4.038 1.166 1.828 0 0" style="fill:#0d6cb0;fill-opacity:1;fill-rule:nonzero;stroke:none" transform="matrix(1.49652 0 0 -1.49652 183.38 107.524)"/><path d="M0 0c.119 3.415-.31 6.459-1.073 8.344-.892-1.826-1.536-4.832-1.66-8.249-.122-3.421.313-6.463 1.077-8.346C.254-7.572 2.816-5.88 5.3-3.526c2.484 2.355 4.305 4.831 5.083 6.707C8.464 2.505 5.899.81 3.42-1.544 1.14-3.709-.585-5.975-1.453-7.784-.668-5.936-.114-3.145 0 0" style="fill:#0d6cb0;fill-opacity:1;fill-rule:nonzero;stroke:none" transform="matrix(1.49652 0 0 -1.49652 193.06 84.31)"/><path d="M0 0c.293 1.862.16 4.531-.459 7.417-.671 3.136-1.763 5.805-2.889 7.344-.389-1.865-.289-4.745.382-7.884C-2.297 3.74-1.205 1.072-.082-.47 1.503.587 3.45 2.713 5.17 5.424c1.722 2.708 2.81 5.38 3.091 7.264-1.59-1.055-3.539-3.184-5.255-5.895C1.426 4.303.376 1.851 0 0" style="fill:#0d6cb0;fill-opacity:1;fill-rule:nonzero;stroke:none" transform="matrix(1.49652 0 0 -1.49652 196.616 80.732)"/><path d="M0 0c-1.222 2.418-2.686 4.37-3.933 5.385.076-1.611.777-3.941 1.998-6.362C-.71-3.398.754-5.343 2.001-6.362 3.07-5.16 4.208-3.003 5.028-.42c.825 2.583 1.145 4.998.966 6.598C4.924 4.976 3.787 2.822 2.962.237c-.753-2.377-1.087-4.606-.993-6.198C1.806-4.375 1.124-2.226 0 0" style="fill:#0d6cb0;fill-opacity:1;fill-rule:nonzero;stroke:none" transform="matrix(1.49652 0 0 -1.49652 195.417 55.997)"/><path d="M0 0c-1.059 1.578-2.239 2.803-3.193 3.401.192-1.11.877-2.672 1.934-4.247 1.057-1.572 2.238-2.8 3.194-3.398.641.927 1.242 2.524 1.592 4.386.351 1.862.365 3.568.101 4.665C2.987 3.88 2.387 2.285 2.039.42c-.323-1.714-.359-3.292-.163-4.388C1.63-2.883.973-1.447 0 0" style="fill:#0d6cb0;fill-opacity:1;fill-rule:nonzero;stroke:none" transform="matrix(1.49652 0 0 -1.49652 194.56 46.364)"/><path d="M0 0c-.008 1.517-.737 4.063-2.025 6.779-1.287 2.717-2.796 4.893-3.963 5.862.01-1.515.74-4.064 2.031-6.777C-2.674 3.15-1.166.969 0 0" style="fill:#0d6cb0;fill-opacity:1;fill-rule:nonzero;stroke:none" transform="matrix(1.49652 0 0 -1.49652 195.424 44.502)"/><path d="M0 0c4.119-.935 7.664-2.371 9.905-3.869C7.732-2.271 5.18.573 2.894 4.127.41 7.993-1.179 11.806-1.589 14.502c2.283-1.497 5.088-4.525 7.572-8.393 2.485-3.866 4.072-7.673 4.482-10.373-2.675-.531-6.798-.334-11.28.682C-5.297-2.561-9.098-.952-11.283.685-8.603 1.213-4.481 1.019 0 0" style="fill:#0d6cb0;fill-opacity:1;fill-rule:nonzero;stroke:none" transform="matrix(1.49652 0 0 -1.49652 88.514 122.226)"/><path d="M0 0c-1.556 1.873-3.172 4.92-4.399 8.53-1.336 3.924-1.895 7.609-1.666 10.058 1.67-1.806 3.467-5.068 4.804-8.995C.07 5.669.63 1.987.408-.468c-2.46.12-6.031 1.189-9.734 3.053-3.7 1.871-6.68 4.108-8.236 6.015 2.46-.118 6.029-1.189 9.732-3.054C-4.427 3.83-1.637 1.801 0 0" style="fill:#0d6cb0;fill-opacity:1;fill-rule:nonzero;stroke:none" transform="matrix(1.49652 0 0 -1.49652 87.736 119.023)"/><path d="M0 0c-1.082 1.881-2.042 4.806-2.57 8.163-.575 3.656-.508 6.976.063 9.097 1.196-1.843 2.28-4.984 2.858-8.635C.925 4.967.857 1.647.285-.473-1.858.002-4.833 1.486-7.801 3.69c-2.973 2.21-5.249 4.625-6.328 6.538 2.143-.477 5.119-1.96 8.087-4.164C-3.311 4.038-1.167 1.828 0 0" style="fill:#0d6cb0;fill-opacity:1;fill-rule:nonzero;stroke:none" transform="matrix(1.49652 0 0 -1.49652 76.385 107.524)"/><path d="M0 0c-.124 3.415.31 6.459 1.071 8.344.892-1.826 1.536-4.832 1.661-8.249.121-3.421-.315-6.463-1.076-8.346-1.911.679-4.477 2.371-6.96 4.725-2.48 2.355-4.304 4.831-5.08 6.707C-8.468 2.505-5.901.81-3.421-1.544-1.14-3.709.582-5.975 1.451-7.784.667-5.936.111-3.145 0 0" style="fill:#0d6cb0;fill-opacity:1;fill-rule:nonzero;stroke:none" transform="matrix(1.49652 0 0 -1.49652 66.708 84.31)"/><path d="M0 0c-.288 1.862-.155 4.531.462 7.417.671 3.136 1.761 5.805 2.886 7.344.394-1.865.294-4.745-.379-7.884C2.298 3.74 1.208 1.072.083-.47-1.501.587-3.449 2.713-5.167 5.424c-1.719 2.708-2.812 5.38-3.087 7.264 1.586-1.055 3.535-3.184 5.252-5.895C-1.424 4.303-.375 1.851 0 0" style="fill:#0d6cb0;fill-opacity:1;fill-rule:nonzero;stroke:none" transform="matrix(1.49652 0 0 -1.49652 63.145 80.732)"/><path d="M0 0c1.224 2.418 2.688 4.37 3.938 5.385-.079-1.611-.78-3.941-2.004-6.362C.711-3.398-.75-5.343-1.998-6.362-3.069-5.16-4.204-3.003-5.026-.42c-.825 2.583-1.144 4.998-.964 6.598C-4.919 4.976-3.786 2.822-2.962.237c.756-2.377 1.087-4.606.997-6.198C-1.803-4.375-1.123-2.226 0 0" style="fill:#0d6cb0;fill-opacity:1;fill-rule:nonzero;stroke:none" transform="matrix(1.49652 0 0 -1.49652 64.344 55.997)"/><path d="M0 0c1.058 1.578 2.239 2.803 3.194 3.401-.192-1.11-.879-2.672-1.937-4.247C.203-2.418-.98-3.646-1.935-4.244c-.641.927-1.242 2.524-1.592 4.386-.348 1.862-.363 3.568-.102 4.665.642-.927 1.24-2.522 1.592-4.387.321-1.714.357-3.292.159-4.388C-1.629-2.883-.972-1.447 0 0" style="fill:#0d6cb0;fill-opacity:1;fill-rule:nonzero;stroke:none" transform="matrix(1.49652 0 0 -1.49652 65.204 46.364)"/><path d="M0 0c.01 1.517.74 4.063 2.025 6.779 1.288 2.717 2.797 4.893 3.962 5.862-.011-1.515-.738-4.064-2.025-6.777C2.673 3.15 1.166.969 0 0" style="fill:#0d6cb0;fill-opacity:1;fill-rule:nonzero;stroke:none" transform="matrix(1.49652 0 0 -1.49652 64.339 44.502)"/><path d="m0 0 .013 5.808-1.724.025v1.072c.266 0 .519.036.76.103.241.069.453.169.638.306.136.097.263.245.38.439.117.198.179.407.187.624h1.023L1.266.011Z" style="fill:#0d6cb0;fill-opacity:1;fill-rule:nonzero;stroke:none" transform="matrix(1.49652 0 0 -1.49652 115.8 134.804)"/><path d="M0 0c.273.329.409.735.409 1.216 0 .49-.136.891-.409 1.205-.272.315-.635.471-1.085.471-.434 0-.789-.156-1.066-.465-.278-.309-.415-.713-.415-1.211 0-.489.137-.899.415-1.224a1.342 1.342 0 0 1 1.066-.487c.45 0 .813.164 1.085.495m.711 3.435c.466-.418.8-.938 1-1.556.193-.563.283-1.297.271-2.204-.012-.91-.13-1.665-.355-2.269-.241-.648-.591-1.163-1.049-1.541C.12-4.511-.454-4.7-1.146-4.7c-.739 0-1.36.253-1.861.76-.502.503-.781 1.071-.837 1.697h1.204c.04-.281.193-.568.458-.86.266-.295.622-.439 1.074-.439.433 0 .758.125.975.378.217.253.382.523.494.812.113.282.179.538.199.766.021.228.031.445.031.646a3.507 3.507 0 0 0-.796-.538c-.313-.155-.683-.228-1.109-.211-.763.033-1.385.334-1.868.904a3.008 3.008 0 0 0-.722 2.001c0 .805.262 1.478.788 2.024.526.548 1.191.821 1.995.821.756 0 1.366-.209 1.832-.626" style="fill:#0d6cb0;fill-opacity:1;fill-rule:nonzero;stroke:none" transform="matrix(1.49652 0 0 -1.49652 125.81 128.057)"/><path d="M0 0c.273.329.41.735.41 1.216 0 .49-.137.891-.41 1.205-.272.315-.634.471-1.084.471-.434 0-.789-.156-1.066-.465-.277-.309-.416-.713-.416-1.211 0-.489.139-.899.416-1.224a1.342 1.342 0 0 1 1.066-.487c.45 0 .812.164 1.084.495m.712 3.435c.466-.418.8-.938 1-1.556.192-.563.283-1.297.27-2.204-.01-.91-.13-1.665-.355-2.269-.24-.648-.589-1.163-1.048-1.541C.121-4.511-.453-4.7-1.145-4.7c-.739 0-1.359.253-1.861.76-.502.503-.781 1.071-.837 1.697h1.204c.04-.281.194-.568.458-.86.266-.295.623-.439 1.074-.439.433 0 .759.125.975.378.217.253.382.523.494.812.113.282.179.538.2.766.019.228.029.445.029.646a3.455 3.455 0 0 0-.795-.538c-.314-.155-.684-.228-1.109-.211-.762.033-1.386.334-1.869.904a3.013 3.013 0 0 0-.722 2.001c0 .805.263 1.478.79 2.024.525.548 1.191.821 1.994.821.755 0 1.365-.209 1.832-.626" style="fill:#0d6cb0;fill-opacity:1;fill-rule:nonzero;stroke:none" transform="matrix(1.49652 0 0 -1.49652 135.33 128.057)"/><path d="m0 0-2.35-3.699H0Zm1.266-4.831v-1.495l-1.253.025L0-4.831h-3.64l.013 1.386 3.615 5.544 1.278-.012v-5.786l1.073.014v-1.146z" style="fill:#0d6cb0;fill-opacity:1;fill-rule:nonzero;stroke:none" transform="matrix(1.49652 0 0 -1.49652 144.366 125.392)"/><path d="M0 0h7.624v2.244H-7.017a.581.581 0 0 0-.372.121c-.1.086-.151.215-.151.383v2.468H7.486v2.287h-18.424v-4.63c0-1.074.226-1.82.685-2.244C-9.797.209-9.02 0-7.923 0h4.251v-1.686h-10.229v-2.265h24.13v2.265H0Z" style="fill:#0d6cb0;fill-opacity:1;fill-rule:nonzero;stroke:none" transform="matrix(1.49652 0 0 -1.49652 20.803 160.143)"/><path d="M0 0c0 .951.401 1.783 1.191 2.479.778.681 1.682 1.027 2.689 1.027a3.967 3.967 0 0 0 2.705-1.027C7.361 1.783 7.757.949 7.757 0c0-.949-.396-1.779-1.172-2.475A3.95 3.95 0 0 0 3.88-3.508c-1.007 0-1.911.348-2.689 1.031C.401-1.781 0-.949 0 0m8.993 4.043C7.579 5.162 5.876 5.725 3.88 5.725c-1.997 0-3.701-.563-5.113-1.682C-2.645 2.924-3.349 1.578-3.349 0c0-1.57.704-2.918 2.116-4.031C.179-5.141 1.883-5.695 3.88-5.695c1.996 0 3.699.554 5.113 1.664C10.402-2.918 11.108-1.57 11.108 0c0 1.578-.706 2.924-2.115 4.043" style="fill:#0d6cb0;fill-opacity:1;fill-rule:nonzero;stroke:none" transform="matrix(1.49652 0 0 -1.49652 12.25 175.868)"/><path d="M0 0h-3.262v-23.168H0v13.6h3.566v2.269H0Z" style="fill:#0d6cb0;fill-opacity:1;fill-rule:nonzero;stroke:none" transform="matrix(1.49652 0 0 -1.49652 69.328 147.745)"/><path d="M0 0c-.729-.873-1.662-1.311-2.796-1.311-1.113 0-2.039.446-2.769 1.334-.731.891-1.096 1.897-1.096 3.022 0 1.144.382 2.146 1.151 3.008.766.867 1.681 1.301 2.741 1.301 1.135 0 2.063-.446 2.787-1.336.719-.889 1.081-1.899 1.081-3.02A4.523 4.523 0 0 0 0 0m-2.769 9.543c-2.009 0-3.722-.634-5.141-1.9-1.415-1.27-2.124-2.799-2.124-4.598 0-1.795.709-3.328 2.124-4.594 1.419-1.269 3.132-1.902 5.141-1.902 2.011 0 3.724.633 5.143 1.902C3.789-.283 4.498 1.25 4.498 3.045c0 1.799-.709 3.328-2.124 4.598-1.419 1.266-3.132 1.9-5.143 1.9" style="fill:#0d6cb0;fill-opacity:1;fill-rule:nonzero;stroke:none" transform="matrix(1.49652 0 0 -1.49652 52.873 164.7)"/><path d="M0 0h-3.398v-4.379h-10.42v-2.269H10.31v2.269H0Z" style="fill:#0d6cb0;fill-opacity:1;fill-rule:nonzero;stroke:none" transform="matrix(1.49652 0 0 -1.49652 95.098 168.699)"/><path d="M0 0h11.134v-2.924c0-.148-.035-.256-.098-.314-.064-.057-.178-.088-.344-.088H.438c-.164 0-.279.015-.34.051C.031-3.24 0-3.131 0-2.947Zm-2.771-5.053c.385-.343.913-.513 1.591-.513h13.492c.676 0 1.206.17 1.589.513.385.346.578.856.578 1.526v9.546h-3.345V2.24H0v3.526h-3.346v-9.293c0-.67.191-1.18.575-1.526" style="fill:#0d6cb0;fill-opacity:1;fill-rule:nonzero;stroke:none" transform="matrix(1.49652 0 0 -1.49652 84.35 158.255)"/><path d="M0 0h3.291v16.619H0v-6.545h-4.659V7.781H0Z" style="fill:#0d6cb0;fill-opacity:1;fill-rule:nonzero;stroke:none" transform="matrix(1.49652 0 0 -1.49652 140.324 172.615)"/><path d="M0 0v1.411a.308.308 0 0 1-.066.203c-.051.048-.128.073-.236.073h-11.927V-.579h8.553v-.25c0-2.152-.903-4.014-2.715-5.58-1.806-1.572-4.284-2.572-7.429-3.012-.074-.016-.114-.041-.121-.074-.012-.033.001-.076.04-.125l1.618-1.662c1.736.201 4.216 1.095 7.443 2.679C-1.614-7.013 0-4.149 0 0" style="fill:#0d6cb0;fill-opacity:1;fill-rule:nonzero;stroke:none" transform="matrix(1.49652 0 0 -1.49652 132.283 152.15)"/><path d="M0 0a.36.36 0 0 0-.11.277v5.539h-3.372V-.326c0-.705.182-1.223.549-1.551.364-.328.921-.49 1.672-.49h13.928v2.265H.3A.423.423 0 0 0 0 0" style="fill:#0d6cb0;fill-opacity:1;fill-rule:nonzero;stroke:none" transform="matrix(1.49652 0 0 -1.49652 126.702 178.496)"/><path d="M0 0h-2.084v7.299h-3.125V-6.199c-.365-.151-.821-.27-1.361-.354-.534-.082-1.2-.125-1.986-.125h-5.237a.57.57 0 0 0-.371.125c-.1.084-.15.213-.15.379v9.418h6.441v2.268h-9.76V-5.822c0-1.073.277-1.864.824-2.367.549-.502 1.371-.754 2.468-.754h4.687c1.079 0 1.963.033 2.647.101.685.067 1.285.192 1.798.377v-7.404h3.125V-2.27H0v-13.599h3.123V7.299H0Z" style="fill:#0d6cb0;fill-opacity:1;fill-rule:nonzero;stroke:none" transform="matrix(1.49652 0 0 -1.49652 177.703 158.667)"/><path d="M0 0h-17v-2.266h13.85a.31.31 0 0 0 .206-.062c.044-.043.067-.108.067-.19v-6.045H.55V-.5c0 .146-.052.27-.153.361A.567.567 0 0 1 0 0" style="fill:#0d6cb0;fill-opacity:1;fill-rule:nonzero;stroke:none" transform="matrix(1.49652 0 0 -1.49652 217.545 169.602)"/><path d="M0 0h-3.291v-13.598H0v6.299h3.563v2.516H0Z" style="fill:#0d6cb0;fill-opacity:1;fill-rule:nonzero;stroke:none" transform="matrix(1.49652 0 0 -1.49652 218.368 147.745)"/><path d="M0 0a3.111 3.111 0 0 0-.74 2.051c0 .769.264 1.449.796 2.027.53.58 1.144.869 1.837.869.752 0 1.367-.295 1.853-.883.484-.589.724-1.273.724-2.064a3.03 3.03 0 0 0-.741-2.029c-.492-.578-1.114-.866-1.861-.866C1.116-.895.496-.596 0 0m6.076-1.611C7.253-.596 7.843.623 7.843 2.051c0 .556-.093 1.082-.286 1.588a4.96 4.96 0 0 1-.811 1.386h3.071v2.241H3.594v2.894H.081V7.266h-6.166V5.025h3.018a4.818 4.818 0 0 1-.811-1.386 4.383 4.383 0 0 1-.288-1.588c0-1.428.588-2.647 1.768-3.662C-1.22-2.629.194-3.135 1.84-3.135c1.643 0 3.058.506 4.236 1.524" style="fill:#0d6cb0;fill-opacity:1;fill-rule:nonzero;stroke:none" transform="matrix(1.49652 0 0 -1.49652 194.646 162.382)"/><path d="M0 0v9.295h-3.207V0h-2.605v9.295h-3.21V0h-6.168v-2.291H8.911V0Z" style="fill:#0d6cb0;fill-opacity:1;fill-rule:nonzero;stroke:none" transform="matrix(1.49652 0 0 -1.49652 246.433 175.22)"/><path d="M0 0c.072-.066.109-.194.109-.379v-4.555c0-1.73-.083-3.134-.257-4.209-.176-1.074-.527-2.025-1.059-2.843H2.03c.531.787.904 1.695 1.123 2.718.218 1.026.328 2.375.328 4.055v7.328c0 .101-.016.17-.054.201-.037.036-.107.053-.218.053h-18.426V.104h14.78C-.22.104-.075.067 0 0" style="fill:#0d6cb0;fill-opacity:1;fill-rule:nonzero;stroke:none" transform="matrix(1.49652 0 0 -1.49652 250.496 153.546)"/><path d="M0 0c.248.365.371.809.371 1.336S.248 2.305 0 2.664c-.247.356-.625.535-1.135.535h-.793v-3.74h.793c.51 0 .888.18 1.135.541m.618 3.219c.403-.508.604-1.137.604-1.883C1.222.58 1.021-.055.618-.57c-.402-.514-.947-.77-1.632-.766l-1.686.018v5.3h1.686c.685 0 1.23-.255 1.632-.763" style="fill:#0d6cb0;fill-opacity:1;fill-rule:nonzero;stroke:none" transform="matrix(1.49652 0 0 -1.49652 8.685 196.565)"/><path d="M0 0c.25.379.375.865.375 1.461 0 .59-.125 1.068-.375 1.435-.25.368-.594.555-1.033.555-.442 0-.785-.187-1.027-.555-.244-.367-.365-.845-.365-1.435 0-.596.121-1.082.365-1.461.242-.379.585-.568 1.027-.568C-.594-.568-.25-.379 0 0m.604 3.465c.408-.512.614-1.18.614-2.004 0-.834-.206-1.512-.614-2.031-.41-.522-.956-.78-1.637-.78-.675 0-1.215.258-1.616.78-.403.519-.604 1.197-.604 2.031 0 .824.201 1.492.604 2.004.401.512.941.767 1.616.767.681 0 1.227-.255 1.637-.767" style="fill:#0d6cb0;fill-opacity:1;fill-rule:nonzero;stroke:none" transform="matrix(1.49652 0 0 -1.49652 21.4 196.764)"/><path d="m0 0-2.135 4.041V-.01l-.773.018v5.301l.88-.008L.121 1.268l.007 4.041h.757L.893 0Z" style="fill:#0d6cb0;fill-opacity:1;fill-rule:nonzero;stroke:none" transform="matrix(1.49652 0 0 -1.49652 33.921 198.55)"/><path d="m0 0-.006.557A2.136 2.136 0 0 0-.553.064a1.425 1.425 0 0 0-.811-.228c-.685 0-1.226.262-1.624.781-.398.524-.596 1.203-.596 2.037 0 .825.196 1.492.591 2.002.396.506.939.762 1.629.762.648 0 1.138-.199 1.471-.604.334-.4.539-.787.614-1.158h-.834a1.761 1.761 0 0 1-.394.662c-.19.209-.475.319-.857.319-.447 0-.791-.188-1.032-.555-.24-.367-.36-.842-.36-1.428 0-.584.12-1.068.36-1.451.241-.385.585-.576 1.032-.576.405 0 .721.144.947.434.226.289.355.605.389.951h-1.313v.738H.765L.779-.008z" style="fill:#0d6cb0;fill-opacity:1;fill-rule:nonzero;stroke:none" transform="matrix(1.49652 0 0 -1.49652 46.991 198.538)"/><path d="m0 0-.813-2.271H.814Zm1.557-4.34-.464 1.27H-1.1l-.457-1.26-.793-.01L-.442.988h.871L2.35-4.34Z" style="fill:#0d6cb0;fill-opacity:1;fill-rule:nonzero;stroke:none" transform="matrix(1.49652 0 0 -1.49652 57.531 192.07)"/><path d="M0 0a1.719 1.719 0 0 1-.385.682c-.191.214-.482.32-.872.32-.433 0-.773-.182-1.022-.543-.247-.365-.37-.846-.37-1.453 0-.604.123-1.096.37-1.469.249-.373.589-.56 1.022-.56.381 0 .672.121.872.363.2.238.333.498.4.773l.813-.009C.743-2.326.533-2.754.2-3.17c-.334-.418-.819-.627-1.457-.627-.69 0-1.234.26-1.629.774-.395.517-.592 1.195-.592 2.029 0 .83.197 1.5.592 2.01.395.505.939.761 1.629.761.653 0 1.145-.203 1.478-.605C.555.768.759.375.835 0Z" style="fill:#0d6cb0;fill-opacity:1;fill-rule:nonzero;stroke:none" transform="matrix(1.49652 0 0 -1.49652 77.38 193.09)"/><path d="M0 0c.25.379.375.865.375 1.461 0 .59-.125 1.068-.375 1.435-.25.368-.594.555-1.032.555-.443 0-.786-.187-1.028-.555-.244-.367-.365-.845-.365-1.435 0-.596.121-1.082.365-1.461.242-.379.585-.568 1.028-.568C-.594-.568-.25-.379 0 0m.604 3.465c.408-.512.614-1.18.614-2.004 0-.834-.206-1.512-.614-2.031-.41-.522-.955-.78-1.636-.78-.676 0-1.216.258-1.617.78-.402.519-.604 1.197-.604 2.031 0 .824.202 1.492.604 2.004.401.512.941.767 1.617.767.681 0 1.226-.255 1.636-.767" style="fill:#0d6cb0;fill-opacity:1;fill-rule:nonzero;stroke:none" transform="matrix(1.49652 0 0 -1.49652 89.441 196.764)"/><path d="M0 0v5.301h.772V.777l2.486.008v-.793z" style="fill:#0d6cb0;fill-opacity:1;fill-rule:nonzero;stroke:none" transform="matrix(1.49652 0 0 -1.49652 97.611 198.538)"/><path d="M0 0v5.301h.771V.777l2.486.008v-.793z" style="fill:#0d6cb0;fill-opacity:1;fill-rule:nonzero;stroke:none" transform="matrix(1.49652 0 0 -1.49652 108.653 198.538)"/><path d="M0 0v5.301h3.386l.014-.783H.772V3.117l2.506-.008V2.34H.772V.777H3.45l.007-.785z" style="fill:#0d6cb0;fill-opacity:1;fill-rule:nonzero;stroke:none" transform="matrix(1.49652 0 0 -1.49652 119.694 198.538)"/><path d="m0 0-.007.557A2.103 2.103 0 0 0-.554.064a1.42 1.42 0 0 0-.81-.228c-.686 0-1.227.262-1.624.781-.398.524-.597 1.203-.597 2.037 0 .825.197 1.492.592 2.002.395.506.938.762 1.629.762.648 0 1.138-.199 1.47-.604.334-.4.54-.787.616-1.158h-.835a1.751 1.751 0 0 1-.395.662c-.188.209-.474.319-.856.319-.448 0-.791-.188-1.032-.555-.241-.367-.36-.842-.36-1.428 0-.584.119-1.068.36-1.451.241-.385.584-.576 1.032-.576.405 0 .72.144.946.434.227.289.356.605.39.951h-1.315v.738H.765L.779-.008z" style="fill:#0d6cb0;fill-opacity:1;fill-rule:nonzero;stroke:none" transform="matrix(1.49652 0 0 -1.49652 136.239 198.538)"/><path d="M0 0v5.301h3.385l.014-.783H.771V3.117l2.506-.008V2.34H.771V.777H3.45l.006-.785z" style="fill:#0d6cb0;fill-opacity:1;fill-rule:nonzero;stroke:none" transform="matrix(1.49652 0 0 -1.49652 143.904 198.538)"/><path d="M0 0c.249.379.374.865.374 1.461 0 .59-.125 1.068-.374 1.435-.251.368-.595.555-1.032.555-.444 0-.785-.187-1.029-.555-.244-.367-.363-.845-.363-1.435 0-.596.119-1.082.363-1.461s.585-.568 1.029-.568C-.595-.568-.251-.379 0 0m.604 3.465c.409-.512.614-1.18.614-2.004 0-.834-.205-1.512-.614-2.031-.411-.522-.957-.78-1.636-.78-.677 0-1.217.258-1.617.78-.403.519-.605 1.197-.605 2.031 0 .824.202 1.492.605 2.004.4.512.94.767 1.617.767.679 0 1.225-.255 1.636-.767" style="fill:#0d6cb0;fill-opacity:1;fill-rule:nonzero;stroke:none" transform="matrix(1.49652 0 0 -1.49652 165.297 196.764)"/><path d="M0 0v-1.473l2.271-.006.013-.791H0v-2.265l-.771.017V.783h3.37V0Z" style="fill:#0d6cb0;fill-opacity:1;fill-rule:nonzero;stroke:none" transform="matrix(1.49652 0 0 -1.49652 174.622 191.778)"/><path d="M0 0v2.371h-2.199V-.018L-2.971 0v5.301h.772V3.17H0v2.131h.765L.772-.008z" style="fill:#0d6cb0;fill-opacity:1;fill-rule:nonzero;stroke:none" transform="matrix(1.49652 0 0 -1.49652 194.555 198.538)"/><path d="M0 0v5.301h3.385l.014-.783H.771V3.117l2.507-.008V2.34H.771V.777H3.45l.007-.785z" style="fill:#0d6cb0;fill-opacity:1;fill-rule:nonzero;stroke:none" transform="matrix(1.49652 0 0 -1.49652 202.442 198.538)"/><path d="m0 0-.813-2.271H.814zm1.558-4.34-.464 1.27h-2.193l-.458-1.26-.792-.01L-.442.988h.871l1.92-5.328z" style="fill:#0d6cb0;fill-opacity:1;fill-rule:nonzero;stroke:none" transform="matrix(1.49652 0 0 -1.49652 217.032 192.07)"/><path d="M0 0v5.301h.771V.777l2.486.008v-.793z" style="fill:#0d6cb0;fill-opacity:1;fill-rule:nonzero;stroke:none" transform="matrix(1.49652 0 0 -1.49652 226.63 198.538)"/><path d="M0 0v-4.535l-.779.017L-.785 0h-1.523v.783h3.849V0Z" style="fill:#0d6cb0;fill-opacity:1;fill-rule:nonzero;stroke:none" transform="matrix(1.49652 0 0 -1.49652 239.094 191.778)"/><path d="M0 0v2.371h-2.199V-.018L-2.97 0v5.301h.771V3.17H0v2.131h.765L.773-.008z" style="fill:#0d6cb0;fill-opacity:1;fill-rule:nonzero;stroke:none" transform="matrix(1.49652 0 0 -1.49652 252.067 198.538)"/><path d="M0 0h168.441" style="fill:none;stroke:#0d6cb0;stroke-width:.598;stroke-linecap:butt;stroke-linejoin:miter;stroke-miterlimit:10;stroke-dasharray:none;stroke-opacity:1" transform="matrix(1.49652 0 0 -1.49652 3.63 187.464)"/><path d="M0 0c-.219-.056-.443-.1-.668-.145v-8.844a38.27 38.27 0 0 1 2.038-.058c.668 0 1.33.019 1.987.052V1.019A34.76 34.76 0 0 0 .319.086C.212.059.106.025 0 0" style="fill:#236fb0;fill-opacity:1;fill-rule:nonzero;stroke:none" transform="matrix(1.49652 0 0 -1.49652 127.833 97.846)"/><path d="M0 0c.393.017.776.042 1.178.053v8.824c-.657.033-1.32.054-1.988.054-.683 0-1.363-.021-2.038-.058V-.192c.402.036.818.064 1.231.091C-1.088-.059-.547-.028 0 0" style="fill:#236fb0;fill-opacity:1;fill-rule:nonzero;stroke:none" transform="matrix(1.49652 0 0 -1.49652 131.095 13.365)"/><path d="M0 0c.1 1.133-.3 2.118-.96 2.928-.382.47-.858.882-1.382 1.221a7.618 7.618 0 0 1-2.644 1.086V2.736c.511-.12 1.031-.306 1.475-.585.632-.389 1.121-.949 1.215-1.731.221-1.814-1.021-3.056-2.69-3.941-.244-.13-.499-.25-.76-.367a15.59 15.59 0 0 0-1.178-.467 27.133 27.133 0 0 0-1.617-.518 64.02 64.02 0 0 0-1.23-.345c-.269-.073-.527-.139-.761-.206-.164-.045-.319-.086-.463-.131a1.012 1.012 0 0 0-.102-.03c-.768-.237-1.611-.638-2.129-1.289a2.141 2.141 0 0 1-.322-.523c-.122-.29-.687-1.871.059-1.795.569.058.946 1.266 1.435 1.594.26.176.539.301.831.395.224.078.456.142.691.195.253.056.506.106.761.159.162.036.324.07.485.109 1.111.272 2.212.615 3.293 1.001.08.031.167.056.247.087.082.027.165.055.247.086.172.067.343.133.513.203C-2.591-4.377-.247-2.813 0 0" style="fill:#236fb0;fill-opacity:1;fill-rule:nonzero;stroke:none" transform="matrix(1.49652 0 0 -1.49652 141.456 86.65)"/><path d="m0 0 1.457.637c.097.045.198.087.295.134.283.133.585.298.883.487V27.371c-.358.017-.724.025-1.096.025h-.082a41.187 41.187 0 0 1-1.617-.047c-.403-.025-.808-.048-1.231-.081V-.606c.407.186.82.361 1.231.534.054.025.104.05.16.072" style="fill:#236fb0;fill-opacity:1;fill-rule:nonzero;stroke:none" transform="matrix(1.49652 0 0 -1.49652 128.914 64.356)"/><path d="M0 0a9.566 9.566 0 0 1-.709-.287 6.99 6.99 0 0 1-1.23-.709v-13.631c.388.106.804.225 1.23.35.533.156 1.079.337 1.617.54.404.148.802.312 1.178.493V.732A67.71 67.71 0 0 0 .908.314L.86.298A43.665 43.665 0 0 1 0 0" style="fill:#236fb0;fill-opacity:1;fill-rule:nonzero;stroke:none" transform="matrix(1.49652 0 0 -1.49652 129.735 71.39)"/><path d="m0 0 .283.117c2.531 1.054 4.674 2.824 5.51 5.529.416 1.348.474 2.756.273 4.086A10.838 10.838 0 0 1 4.739 13.5c-.594 1.036-1.363 1.971-2.225 2.794a19.442 19.442 0 0 1-2.231 1.829v-5.227l.114-.122c.38-.393.722-.816 1.023-1.266a6.854 6.854 0 0 0 .885-1.929c.039-.15.081-.303.111-.462a6.16 6.16 0 0 0 .11-1.158 5.079 5.079 0 0 0-.157-1.313 4.308 4.308 0 0 0-.467-1.097A5.206 5.206 0 0 0 .863 4.3a5.816 5.816 0 0 0-.58-.465l-1.318-.771c-.201-.097-.413-.181-.619-.275-.538-.237-1.075-.479-1.617-.71-.414-.178-.83-.351-1.231-.537-.257-.123-.512-.245-.761-.376-.072-.036-.139-.078-.209-.117A10.042 10.042 0 0 1-7.062.002c-.971-.793-1.747-1.808-2.159-3.228-.541-1.858.234-3.659 1.74-4.653.32-.214.675-.395 1.057-.523.38-.131.767-.225 1.161-.295v2.9c-.784.342-1.366.916-1.089 1.859.183.624.583 1.146 1.089 1.584.235.206.494.386.761.553.401.248.819.443 1.231.613.152.063.309.133.456.186.78.273 1.564.532 2.338.824.161.058.32.116.477.178" style="fill:#236fb0;fill-opacity:1;fill-rule:nonzero;stroke:none" transform="matrix(1.49652 0 0 -1.49652 133.57 68.816)"/><path d="M0 0a.707.707 0 1 0 0 1.414A.707.707 0 0 0 0 0m4.408-1.266C4.033-.47 3.427.223 2.801.846a7.39 7.39 0 0 1-3.095 1.82c-.931.27-1.907.278-2.873.312a98.716 98.716 0 0 1-5.359.044c-.253-.002-.506-.016-.76-.025a64.464 64.464 0 0 1-4.026-.247c-.254-.028-.507-.048-.76-.076-.229-.025-.459-.047-.69-.075a33.215 33.215 0 0 1-2.769-.439c-2.405-.513-4.874-1.534-6.409-3.479a6.964 6.964 0 0 1-.826-1.327 6.012 6.012 0 0 1-.469-1.467c-.39-2.101.304-4.347 1.558-6.07.106-.145.207-.292.321-.429.236-.286.479-.548.73-.799a14.627 14.627 0 0 1 2.258-1.803c1.458-.968 3.013-1.759 4.567-2.552.577-.295 1.156-.59 1.729-.893v4.756c-1.299.729-2.586 1.478-3.803 2.34-.271.192-.574.423-.877.688a7.858 7.858 0 0 0-1.166 1.227c-.728.969-1.108 2.099-.36 3.162 1.244 1.77 4.211 1.886 6.148 2.079.02.002.038.002.058.008l.76.067c.411.036.82.058 1.231.078.538.03 1.079.044 1.617.044a25.668 25.668 0 0 0 1.938-.056 21.778 21.778 0 0 0 4.346-.701c2.152-.584 4.328-.912 6.546-1.079.066-.003.145-.009.233-.012 1.171.084 1.709.415 1.96.699.014-.011.029-.019.044-.031a.959.959 0 0 1 .152.376c.019.092.031.186.026.298a3.716 3.716 0 0 1-.373 1.45" style="fill:#236fb0;fill-opacity:1;fill-rule:nonzero;stroke:none" transform="matrix(1.49652 0 0 -1.49652 146.754 18.917)"/><path d="M0 0" style="fill:#000100;fill-opacity:1;fill-rule:nonzero;stroke:none" transform="matrix(1.49652 0 0 -1.49652 112.283 37.126)"/><path d="M0 0c.005-.175.02-.351.026-.529.078.151.125.328.148.529Z" style="fill:#000100;fill-opacity:1;fill-rule:nonzero;stroke:none" transform="matrix(1.49652 0 0 -1.49652 76.643 56.905)"/><path d="M0 0c1.192.493 2.448.857 3.755 1.074V2.71a18.884 18.884 0 0 1-5.009-1.494C-.869.74-.392.317 0 0" style="fill:#32a0d3;fill-opacity:1;fill-rule:nonzero;stroke:none" transform="matrix(1.49652 0 0 -1.49652 119.964 31.633)"/><path d="M0 0c.26.078.503.172.483.534C.069.676-.644.518-.689 1.032c.006.24.316.357.085.588-.524.106-.501-.334-1.002-.248-.047.12-.125.206-.167.331.449 1.063 1.57.109 2.339.251.598.108.997.756 1.253 1.336-.397-.064-.576.094-.918.086-.036.2.151.178.083.417C-.02 3.768.044 5.232-.635 5.291c.08-.062.063-.379-.054-.326-.597.259.11.86-.416 1.082-.337.031-.128-.481-.501-.417-.82.743-1.091 2.029-2.507 2.174.044-.783-.226-1.528-.084-2.258.078-.392.416-.589.419-1.002.001-.525-.433-1.243-.335-1.922a.751.751 0 0 0-.293.122A27.728 27.728 0 0 1-5.8 8.58c.257-.117.503-.245.768-.108a4.547 4.547 0 0 0-.918.539c-.134.351-.271.699-.415 1.044.081.008.163.03.248.086-.026.409-.34.871-.796 1.136-.092.195-.193.381-.293.573.13.005.242.033.336.128.463-.365.711-.668 1.17-.498.575-.712 1.552-1.016 1.587-2.257-.173-.256-.572.197-.753-.084.24-.122.327-.403.502-.587 1.361-.028 1.974-1.255 2.842-1.503-.278.476-.741.768-1.002 1.256.711-.067.737-.822 1.336-1.005-.009 1.188-1.59 1.249-1.503 2.257.654-.267.951-.885 1.586-1.172.025.173.222.167.334.253-.081.362-.506.382-.501.835-1.573.265-2.032 1.639-3.092 2.424-.865-.281-1.117.693-1.837.838-.468-.543-.813.348-1.088 0-.282.192-.364.943-.844.813-.128.217-.263.426-.397.637.134-.008.269-.019.406-.034-.042.407-.391.51-.763.585-.119.181-.245.362-.37.543.39-.114.798-.209 1.215-.293-.059.36-.488.343-.583.668.157.167.308.026.501 0 .03.312-.337.223-.251.588.474-.167.366.244.501.417.349.025.69-.145 1.004 0-1.276.537-2.993 1.283-4.624 1.417-.121.131-.239.267-.363.398l5.289 5.29a35.874 35.874 0 0 0 5.982-8.427c-.149-.195-.111-.579-.352-.682-.741.2-.816 1.077-1.922.919-.068-.657.608-.56.753-1.002-.685.234-1.039.796-1.753 1.002-.01-.134.007-.29-.17-.254-.65.434-1.329.841-2.254 1.005-.098-.247.399-.312.167-.417-.262 0-.677.606-.753.25.199-.359.886-.231.92-.754-.465-.239-.775.323-1.339.25.157-.556.795-.401 1.254-.748.246-.19.338-.626.669-.838.428-.273 1.041-.17 1.506-.334.812-.292 1.975-1.202 2.087-1.756.264-.206.601-.342.668-.749.677-.189 1.355-.375 1.588-1.004.035-.228-.314-.081-.335-.251.397-.131.759-.298.836-.751C.973 9.011.862 8.9.649 8.889c.582-.921 1.216-1.951 1.966-2.772.393-1.987.628-4.027.677-6.117Zm1.335-12.459a1.29 1.29 0 0 0-.519-.045c-.933.796-1.977 1.436-2.923 2.009-.303-.234-.741-.158-1.169-.086-.354-.815-1.166-1.172-1.756-1.753-.645.122-.885.651-1.13 1.174a27.9 27.9 0 0 1 1.008 3.006c.01-.003.024 0 .039-.003.43-.498 2.82-1.478 2.758-.501-.03.451-.878.593-1.421.417-.242.345-.751.54-1.26.552.314 1.249.546 2.529.684 3.84.157.201.215.473.09.891.002.036.002.075.007.111.076.181.316.198.479.289-.116.248-.099.513.166.585.256.058.302-.09.503-.087.128.079.142.27.175.44h6.226a35.455 35.455 0 0 0-1.957-10.839m-7.903-12.925-.43.434c.237.523.566 1.147.714 1.503h.417c.328.448.455 1.105 1.254 1.085.8.994 1.593 1.993 2.564 2.817a36.048 36.048 0 0 0-4.519-5.839m-1.962 1.965-3.327 3.326a28.105 28.105 0 0 1 5.466 8.363c.513-.449 1.061-.863 1.359-1.523-.301-.481-.584-.974-.918-1.419.368-.687-.645-1.188-.418-2.26.514-.403.696-1.138 1.084-1.667-.705-.854-1.265-1.854-2.506-2.173-.301-.832-.537-1.729-.74-2.647m-9.759 9.76a18.991 18.991 0 0 1 4.345 7.845c.328-.913 1.205-1.917 1.811-1.589-.648.406-1.578 1.339-1.088 2.338.446-1.648 1.735-2.444 2.088-4.178 1.182-.498 2.255-1.107 3.305-1.731a26.419 26.419 0 0 0-5.173-7.976zm1.561 26.308c-.335.05-.335-.223-.668-.165a1.486 1.486 0 0 0-.151.301l.634.632a.566.566 0 0 1 .352-.267c.296.289.417.751.917.834a.73.73 0 0 1-.112.591l2.755 2.755a26.806 26.806 0 0 0 2.392-2.936c-.008.002-.014.008-.023.011.058-.379-.136-.195-.332-.17.118-.353.441-.509.501-.918.208 0 .351.069.476.153.379-.593.74-1.2 1.071-1.823h-.042c-.332.707-.74 1.358-1.423 1.169-.135-.955.809-.707.921-1.336.021-.117-.289-.504-.168-.671-.433.011-.369.524-.835.501-.615-1.119-1.408.81-2.174.086-.197-.339.284-.94.085-1.255-.519.095-.426.802-.753 1.088-.436-.005-.995-.253-1.168.167-.041.259.18.326 0 .501-1.001.003-1.693.309-2.255.752M4.258 6.253a37.245 37.245 0 0 1-2.047 6.897c-.055.13-.116.259-.169.387-.135.322-.27.645-.413.963-5.482 12.086-17.242 20.743-31.093 21.789v-1.631c8.404-.661 15.998-4.248 21.752-9.75l-5.289-5.291a28.292 28.292 0 0 1-2.468 2.074c.037-.201.063-.398.072-.607a2.29 2.29 0 0 0-.006-.3l.017-.006a2.208 2.208 0 0 0-.327-.782 6.485 6.485 0 0 1-.068-.109c.147-.119.298-.239.442-.362.088-.072.176-.141.263-.216.14-.12.273-.243.411-.365.134-.123.27-.239.404-.364l-.106-.326-.174-.175-4.892-4.893a18.977 18.977 0 0 1-10.031 4.803V16.35a17.31 17.31 0 0 0 8.365-3.866 8.458 8.458 0 0 1-1.73.165c-.483.668-1.467.679-2.34.253-.407-.762-.887-1.456-1.338-2.176.175-.554 1.661-.231 1.256-1.086-.471.137-1.278.32-1.589-.083.118-.468.319-.852 1.002-.752.174.134-.052.663.335.585.401-.203-.027-.729 0-1.085-.796-.226-1.166-1.89-.249-2.258.061.031.084.078.085.128.237-.28.463-.565.668-.857l.632.632c.04-.075.08-.153.117-.237-.565-.462-1.086-.974-1.502-1.588 1.606.4 2.32 2.415 3.34 3.679.311-.618-.695-1.164-.25-1.673.786.128.416 1.416.919 1.837.31-.162.128-.816.335-1.086 1.03.048 2.201.393 2.339-.918.387-.053.481.186.835.167.234-.239.175-.732.085-1.086.583-.167.943-.565 1.003-1.252.641-.476 1.669-1.004 1.586-1.923-.47.059-.359.701-.918.668.32-.726.946-.737 1.085-1.506.059-.311.012-.673-.042-1.032h-7.461c.069-.543.093-1.083.078-1.62h7.576c.008-.005.011-.014.017-.019-.288-.615-.121-1.105.169-1.545a17.335 17.335 0 0 0-4.377-9.334l-5.406 5.402a9.613 9.613 0 0 0-1.114-1.135l5.377-5.411a17.451 17.451 0 0 0-5.375-3.339c.47-.368.886-.78 1.23-1.242a18.97 18.97 0 0 1 5.288 3.44l5.288-5.29a26.4 26.4 0 0 0-13.524-6.797 15.335 15.335 0 0 0-1.55-.74c-.082-.036-.163-.064-.245-.097v-1.038a28.036 28.036 0 0 1 16.463 7.525l4.075-4.072a85.54 85.54 0 0 0-.45-2.226c.147.056.275-.036.399-.136-5.585-4.848-12.684-7.991-20.487-8.605v-1.629c13.826 1.047 25.57 9.672 31.063 21.722A37.073 37.073 0 0 1 4.929-.81c0 2.416-.232 4.779-.671 7.063" style="fill:#32a0d3;fill-opacity:1;fill-rule:nonzero;stroke:none" transform="matrix(1.49652 0 0 -1.49652 178.2 54.481)"/><path d="M0 0c.403.368.707.771.925 1.197L0 2.121Z" style="fill:#32a0d3;fill-opacity:1;fill-rule:nonzero;stroke:none" transform="matrix(1.49652 0 0 -1.49652 134.107 61.378)"/><path d="M0 0a5.503 5.503 0 0 1-.163.621h-1.074v-1.62H.096C.096-.671.064-.339 0 0" style="fill:#32a0d3;fill-opacity:1;fill-rule:nonzero;stroke:none" transform="matrix(1.49652 0 0 -1.49652 135.958 55.41)"/><path d="M0 0c-.043.264.414.031.332.334-.603-.206-.678-.935-.918-1.503.775.148 1.379-.272 1.84-.167C.988-.737.23-.632 0 0" style="fill:#32a0d3;fill-opacity:1;fill-rule:nonzero;stroke:none" transform="matrix(1.49652 0 0 -1.49652 180.298 51.682)"/><path d="M0 0c-.373.373-1.155.083-1.252-.334C-.897-.779-.075-.542 0 0" style="fill:#32a0d3;fill-opacity:1;fill-rule:nonzero;stroke:none" transform="matrix(1.49652 0 0 -1.49652 176.795 67.813)"/><path d="M0 0c.221-.086.284-.332.501-.417.169.289.312.024.588 0C.864-.028.37.164 0 0" style="fill:#32a0d3;fill-opacity:1;fill-rule:nonzero;stroke:none" transform="matrix(1.49652 0 0 -1.49652 166.916 34.177)"/><path d="M0 0c.245-.022.259.186.502.167C.41.796-.302.771-.166 1.422c-.358-.117-.617.044-.835-.084.298-.194.02-.234-.086-.42C-.767.565-.258.409 0 0" style="fill:#32a0d3;fill-opacity:1;fill-rule:nonzero;stroke:none" transform="matrix(1.49652 0 0 -1.49652 161.165 34.927)"/><path d="M0 0c.184-.29.932-.011.919-.501.428.211.977.303 1.672.248.006.3.31.3.334.587C1.936.542 1.53 1.336.919 1.92c-.048-.122.097-.431-.083-.418-.261-.038-.269.179-.252.418-.46.042-.577-.005-.584-.251-.275.031-.169.446-.503.418-.135-.142-.451-.106-.584-.251.102-.406-.137-.478-.333-.584C-1.12.693-.581.4.084.417.118.214-.071.236 0 0" style="fill:#32a0d3;fill-opacity:1;fill-rule:nonzero;stroke:none" transform="matrix(1.49652 0 0 -1.49652 156.665 36.176)"/><path d="M0 0c-.307-.056-.447.056-.586.167-.128-.373-.575-.426-.419-1.085.531.055.148-.802.752-.671C-.545-1.094.132-.429 0 0" style="fill:#32a0d3;fill-opacity:1;fill-rule:nonzero;stroke:none" transform="matrix(1.49652 0 0 -1.49652 111.152 78.066)"/><path d="M0 0c-.216-.242.111-.59-.083-.749-.188-.013-.369.401-.501.167.897-.411.686-2.379 2.172-1.922C.99-1.859.886-.567 0 0" style="fill:#32a0d3;fill-opacity:1;fill-rule:nonzero;stroke:none" transform="matrix(1.49652 0 0 -1.49652 87.392 79.695)"/><path d="M0 0a28.198 28.198 0 0 1-5.354-8.11c-.14.1-.29.19-.523.195-.756-.813-1.458-.495-2.339-1.25.034.323.483.234.418.665-1.056-.141-1.432-1.408-2.258-1.502-.075.437.413.312.337.751-.382-.158-.116.332-.42.251-.019-.426-.027-.782-.419-1.002.248-.248-.217-1.038-.416-1.172.078.209.217.629-.249.504-.227-.159.286-.451-.084-.587-.227-.059.058.395-.167.337-.276-.421-.766-.532-1.086-.671-.039.456.034.801.332.921.516-.047.812.133 1.087.334-.146.395.14.406 0 .751-.288.067-.321-.125-.585-.083.025.192-.021.312-.167.334-.439-.209-.648-.273-1.252-.587v.42c.378-.047.601.066.667.336-.313-.011-.237-.094-.502 0a7.298 7.298 0 0 1-.839-.467A35.586 35.586 0 0 0-5.287 5.293zm3.484-3.484c-1.12-.061-2.057-.738-3.095-1.005-.138-.289.121-.548-.249-.668-.352-.003-.542.158-.835 0-.123-.515.06-1.263-.503-1.503-.244.237.192.651 0 .835-.507-.133-.591-.69-1.169-.751-.247.326.387.645.166.918-.299-.62-.825-1.016-.836-1.92.062-.17.465.016.501-.17-.21-.91.339-1.494.169-2.087-.255.292-.67-.078-.837.25.078.471.376 1.105.167 1.586-.489-.233-.506-1.23-1.079-1.341a26.504 26.504 0 0 0 5.26 8.196zm.213-24.811a18.907 18.907 0 0 1 2.704-3.802c-.756.19-1.012-.484-1.415-.966-.259-.088-.534.015-.754-.252.037-.304.153-.526.291-.729l-.937-.938c-.48.768-1.55 1.772-2.027 1.836.182-.832.931-1.594 1.775-2.09l-2.19-2.187a26.451 26.451 0 0 0-3.86 5.279c-.145.262-.285.523-.425.79-.039.076-.076.156-.115.231.262.557-.13 1.309-.031 1.988 1.136.1 1.362 1.934 2.256 1.92.829-.014.85-1.494 1.338-2.171.267-.075.115.273.335.251.417-2.118 1.227-3.841 2.671-4.932-.016 1.659-2.105 2.121-1.588 3.76.694-.114.702-.916 1.338-1.086.234.182.309.529.669.585.401 1.266-.387 1.834-.752 2.591.012.234.145.353.419.334.132-.103.111-.362.298-.412m1.872 1.417c.376.977 1.209 1.249 1.087 2.254-.063.506-.502 1.021-.418 1.586.124.381.488.515.668.835-.446.167-1.165.061-1.167.671.761-.206.472.64 1.001.668.135-.136-.073-.351 0-.668.311-.059.359.142.669.086.388-.59.125-1.57.502-2.009.572.097.744.593 1.085.918-.531.139-.717.623-.919 1.091.4.348.685.816 1.087 1.166.295.02.56.087.79.187h.605a9.793 9.793 0 0 1 .476-2.322c-.309-.189-.672-.325-.953-.54-.139.14-.492.067-.751.084-.183-.248-.839-1.035-.252-1.252.182.32.4.601.836.668.243-.065.159-.451.501-.418.385.176.399.721.856.827a9.821 9.821 0 0 1 1.606-2.642L7.99-30.577l-.117-.117-.295-.298c-.376.412-.73.844-1.064 1.289a17.446 17.446 0 0 0-1.594 2.555c.214.091.438.172.649.27M-5.287-43.857a35.84 35.84 0 0 0-4.368 5.596c.005.036.013.067.019.1.211.234.598.295.836.501.101 1.021-.279 1.389-.502 1.837-.045.092.039.242 0 .337-.339.86-1.286 1.497-1.339 2.007-.142 1.416 1.865 2.125 1.005 4.093-.654-.103-1.034-.615-1.671-.083-.643.529-.988 2.198-1.506 3.342-.227.504-.834.935-.417 1.586.647-.066.515-.907.67-1.422.184-.615.633-1.143.584-1.837.295-.205.549-.456.584-.918.724-.846 1.546.003 1.922.665.423-.384.701.354 1.254.337.069.515.355.81.25 1.506-.952.486-2.402.495-2.34 2.003.364-.194.477-.637.836-.837.276.005.415.139.752.086.39-.34.669-1.035 1.506-.671.11-.147.181-.334.364-.409A28.086 28.086 0 0 1 0-38.567zm-10.668 32.369a36.393 36.393 0 0 1-.673-4.403 37.135 37.135 0 0 1-.115-5.191c.04-.845.118-1.68.214-2.51a36.974 36.974 0 0 1 5.966-16.25c6.175-9.27 16.391-15.635 28.117-16.533v1.627c-8.383.677-15.954 4.256-21.7 9.747l5.29 5.287a28.062 28.062 0 0 1 12.906-6.935c.357.587.889 1.024 1.464 1.344a26.419 26.419 0 0 0-13.226 6.738l2.439 2.438c.397-.053.836-.083 1.26-.192.058.3-.325.576-.768.684l.611.613c.367.042.547.284.63.628l1.118 1.117a18.978 18.978 0 0 1 5.736-3.624c-.019 0-.031 0-.057-.005-.416-.485.374-1.005-.168-1.503-.59.189-1.117.442-1.42.918.025.223.497.178.251.42-1.076.348-1.642-.228-1.92-.921-.209.073-.328.231-.587.251-.127-.543-.723-.612-.919-1.086-.772-.061-1.243-.431-1.418-1.085.537-.971.995-2.109 2.171-2.257.877-.106 1.348.531 1.92.585.681.064.94-.296 1.506-.585 1.231-.242 1.817-1.136 3.591-.835.141.865.654 1.55.418 2.925h-.585c-.58 1.233-1.976 1.645-2.399 3.031a18.736 18.736 0 0 1 3.856-1.019v.485l-.073.01c-.467.084-.887.19-1.285.329a5.472 5.472 0 0 0-1.375.712 5.09 5.09 0 0 0-1.287 1.286 17.55 17.55 0 0 0-1.826.938 17.51 17.51 0 0 0-2.989 2.173l5.303 5.305a9.967 9.967 0 0 1 1.04-.765c.459.406.946.74 1.424 1.027a8.409 8.409 0 0 0-1.318.881l2.386 2.389v2.287l-3.528-3.531a8.22 8.22 0 0 0-1.776 3.926c-.03.176-.053.348-.073.524H17.554v1.619h-5.377c.075.766.258 1.5.526 2.19.321.825.767 1.59 1.323 2.261l3.528-3.53v4.966c-.053.069-.106.136-.203.161-.885.337-1.123-.529-1.683-.952l-.5.498a8.315 8.315 0 0 0 1.567 1.016l.016.009c-.404.208-.804.417-1.207.623-.165.086-.33.169-.495.253l-.022-.011c-1.993 1.063-4.969 2.811-6.911 4.675-.141.15-.284.304-.415.46-.121.15-.234.306-.344.461a9.145 9.145 0 0 0-.437.721c-.009 0-.023 0-.031-.005-.042.069-.087.136-.126.203l-.503.504-1.3 1.299L2.288 0a26.462 26.462 0 0 0 3.917 3.053c.719 1.494 1.924 2.727 3.552 3.659a28.154 28.154 0 0 1-8.613-5.566l-5.29 5.288c5.746 5.491 13.317 9.074 21.7 9.747v1.63C.998 16.536-12.554 4.389-15.955-11.488" style="fill:#32a0d3;fill-opacity:1;fill-rule:nonzero;stroke:none" transform="matrix(1.49652 0 0 -1.49652 99.313 26.835)"/><path d="M0 0a2.518 2.518 0 0 1 1.589.584c-.02.423-.102.791-.335 1.002-.752-.014-1.489-.008-1.697.529V.454C-.298.297-.19.108 0 0" style="fill:#32a0d3;fill-opacity:1;fill-rule:nonzero;stroke:none" transform="matrix(1.49652 0 0 -1.49652 134.658 42.053)"/></svg>