<svg xmlns="http://www.w3.org/2000/svg" xmlns:xlink="http://www.w3.org/1999/xlink" viewBox="0 0 70.138 70.078"><defs><radialGradient id="a" cx="156.39" cy="468.166" r="1.001" gradientTransform="matrix(25.035 0 0 -25.035 -3886.413 11746.842)" gradientUnits="userSpaceOnUse"><stop offset="0" stop-color="#fff"/><stop offset="0.5" stop-color="#00a0e9"/><stop offset="0.85" stop-color="#004ea2"/><stop offset="1" stop-color="#003281"/></radialGradient><radialGradient xlink:href="#a" id="d" cx="156.38" cy="468.155" r="1" gradientTransform="matrix(25.035 0 0 -25.035 -3886.109 11746.439)"/><radialGradient xlink:href="#a" id="f" cx="156.4" cy="468.176" r="1" gradientTransform="matrix(25.034 0 0 -25.034 -3886.493 11746.628)"/><clipPath id="b" transform="translate(-155.48 -256.52)"><path d="M168.876 291.528a21.659 21.659 0 0 0 27.283 20.93H195c-3.578 0-9.927-.926-13.4-5.087-2.107-2.574-2.92-5.968-3.023-10.185v-23.717a21.65 21.65 0 0 0-9.7 18.059" style="fill:none"/></clipPath><clipPath id="c" transform="translate(-155.48 -256.52)"><path d="M202.415 297.006c0 5.093-2.943 8.026-8.528 8.026h-1.178c-3.8 0-8.616-2.57-8.616-8.434v-14.125h-1.135v14.713c.11 4.217.92 7.611 3.033 10.185 3 3.6 7.383 4.616 10.827 4.863 0 0 .029 0 .11.008a21.678 21.678 0 0 0 5.487-38.855Z" style="fill:none"/></clipPath><clipPath id="e" transform="translate(-155.48 -256.52)"><path d="M188.461 269.952V296.6c0 4.781 2.093 8.177 4.939 8.177h.362c3.741 0 5.3-3.531 5.3-7.769v-25.414a21.411 21.411 0 0 0-8.514-1.739c-.709 0-1.405.03-2.087.1" style="fill:none"/></clipPath></defs><path d="M221.918 307.224a35.085 35.085 0 0 0-29.28-50.7l-2.09 4.18-2.087-4.18a35.085 35.085 0 0 0-29.281 50.7l4.671-.282-2.575 3.9a35.073 35.073 0 0 0 58.547 0l-2.575-3.9Z" style="fill:#727171" transform="translate(-155.48 -256.52)"/><path d="M220.983 305.941a33.681 33.681 0 0 0-27.705-47.97l-2.73 2.729-2.727-2.729a33.679 33.679 0 0 0-27.7 47.97l3.734 1-1 3.73a33.674 33.674 0 0 0 55.4 0l-1-3.73Z" style="fill:#fff" transform="translate(-155.48 -256.52)"/><g style="clip-path:url(#b)"><path d="M13.396 16.949h27.283v39.732H13.396z" style="fill:url(#a)"/></g><g style="clip-path:url(#c)"><path d="M27.478 16.867h29.263v38.855H27.478z" style="fill:url(#d)"/></g><g style="clip-path:url(#e)"><path d="M32.98 13.335h10.601v34.92H32.98z" style="fill:url(#f)"/></g><path d="M185.991 307.371c-2.113-2.575-2.924-5.967-3.033-10.185v-14.713h1.135V296.6c0 5.864 4.817 8.434 8.616 8.434h1.177c5.586 0 8.528-2.933 8.528-8.027v-23.62a22.542 22.542 0 0 0-3.352-1.793v25.411c0 4.239-1.559 7.771-5.3 7.771h-.362c-2.846 0-4.939-3.4-4.939-8.178v-26.646a21.436 21.436 0 0 0-9.889 3.516v23.718c.1 4.218.916 7.61 3.024 10.185 3.472 4.162 9.821 5.088 13.4 5.088h1.164c.256-.062.508-.139.77-.217-.082-.007-.121-.007-.121-.007-3.434-.247-7.815-1.265-10.817-4.864" style="fill:#fff" transform="translate(-155.48 -256.52)"/><path d="m210.935 314.206-3.562-4.731a.044.044 0 0 0-.055-.006l-4.082 3.08a.035.035 0 0 0-.008.05l.469.623a.033.033 0 0 0 .051.007l3.353-2.523a.03.03 0 0 1 .046.008l2.538 3.363a.039.039 0 0 1-.007.05l-.695.525a.039.039 0 0 1-.053-.008l-1.094-1.453a.036.036 0 0 0-.05-.006l-.652.492a.037.037 0 0 0-.009.05l1.095 1.453a.034.034 0 0 1 0 .049l-.652.494a.036.036 0 0 1-.05-.009l-1.095-1.452a.04.04 0 0 0-.05-.008l-.654.5a.031.031 0 0 0-.007.049l1.093 1.453a.035.035 0 0 1-.008.05l-.649.491a.034.034 0 0 0-.007.051l.47.628a.034.034 0 0 0 .051 0l4.27-3.22a.035.035 0 0 0 .008-.049M193.213 316.027h-2.147a.036.036 0 0 0-.036.037v3.517a.036.036 0 0 1-.037.034h-2.217a.034.034 0 0 1-.034-.034v-2.663a.034.034 0 0 1 .034-.034h1.675a.037.037 0 0 0 .036-.038v-.782a.036.036 0 0 0-.036-.037h-2.6a.034.034 0 0 0-.036.037v3.885a.627.627 0 0 0 .108.42.461.461 0 0 0 .335.1h2.732a.036.036 0 0 1 .037.034v1.812a.036.036 0 0 0 .036.035h.783a.037.037 0 0 0 .038-.035v-5.4a.035.035 0 0 1 .036-.036h.408a.036.036 0 0 1 .036.036v5.4a.036.036 0 0 0 .036.036h.81a.035.035 0 0 0 .034-.036v-6.256a.035.035 0 0 0-.034-.037M201.767 317.514a.039.039 0 0 0-.046-.023l-4.854 1.623a.039.039 0 0 0-.02.048l.249.74a.036.036 0 0 0 .044.026l3.978-1.332a.035.035 0 0 1 .046.022l.576 1.717a.034.034 0 0 0 .046.023l.807-.269a.039.039 0 0 0 .021-.046ZM200.763 317.417a.035.035 0 0 0 .046.023l.806-.27a.035.035 0 0 0 .021-.044l-.736-2.2a.034.034 0 0 1 .022-.044l.7-.233a.036.036 0 0 0 .022-.046l-.248-.742a.034.034 0 0 0-.044-.024l-1.573.526a.037.037 0 0 0-.023.045ZM198.218 318.29a1.579 1.579 0 0 0 .594-2.643l-.025-.024c-.015-.011-.011-.028.006-.035l.351-.116a.041.041 0 0 0 .024-.047l-.248-.743a.038.038 0 0 0-.046-.022l-1.177.394a.034.034 0 0 1-.045-.024l-.161-.486a.039.039 0 0 0-.049-.022l-.86.287a.039.039 0 0 0-.022.047l.165.486a.036.036 0 0 1-.027.044l-1.191.4a.031.031 0 0 0-.02.045l.248.741a.036.036 0 0 0 .044.024l.35-.118a.02.02 0 0 1 .028.025l-.009.032a1.636 1.636 0 0 0 .062.758 1.586 1.586 0 0 0 2.008 1m-1.261-1.245a.8.8 0 1 1 1.011.507.8.8 0 0 1-1.011-.507M182.387 316.1a1.705 1.705 0 1 0-2.158 1.072 1.708 1.708 0 0 0 2.158-1.072m-2.41-.81a.838.838 0 1 1 .527 1.064.838.838 0 0 1-.527-1.064" style="fill:#727171" transform="translate(-155.48 -256.52)"/><path d="m185.718 315.686-1.57-.528a.037.037 0 0 0-.045.023l-.924 2.758c-.008.019-.024.025-.036.013l-.021-.026a1.928 1.928 0 1 0 .425 1.935 1.909 1.909 0 0 0-.113-1.487c-.008-.015 0-.022.018-.015l.467.155a.036.036 0 0 0 .047-.022l.31-.927a.038.038 0 0 1 .048-.022l.694.233a.037.037 0 0 0 .046-.023l.234-.7a.036.036 0 0 0-.024-.048l-.694-.23a.038.038 0 0 1-.022-.045l.161-.477a.034.034 0 0 1 .043-.024l.695.233a.037.037 0 0 0 .048-.023l.236-.7a.035.035 0 0 0-.023-.046m-3.033 3.889a1.019 1.019 0 1 1-.64-1.29 1.018 1.018 0 0 1 .64 1.29M173.785 309.506a.035.035 0 0 0-.05.008l-.983 1.3a.652.652 0 0 0-.169.405.443.443 0 0 0 .2.288l1.439 1.083a.038.038 0 0 1 .007.051l-.3.4a.032.032 0 0 1-.05.006l-2.061-1.552a.039.039 0 0 0-.052.007l-.445.59a.036.036 0 0 0 .007.051l1.175.885a.019.019 0 0 1 0 .036l-.036.015a1.9 1.9 0 0 0-.825.627 1.932 1.932 0 0 0 3.085 2.327 1.892 1.892 0 0 0 .378-.965v-.039c0-.02.016-.027.035-.016l1.1.831a.035.035 0 0 0 .05-.009l.446-.59a.037.037 0 0 0-.006-.051l-2.018-1.518a.04.04 0 0 1-.006-.052l.3-.4a.037.037 0 0 1 .051-.008l1.755 1.323a.036.036 0 0 0 .05-.007l.445-.59a.039.039 0 0 0-.006-.052l-3.614-2.723a.036.036 0 0 1-.007-.048l.305-.4a.039.039 0 0 1 .049-.006l3.613 2.725a.041.041 0 0 0 .05-.008l.446-.593a.034.034 0 0 0-.009-.05Zm.222 5.992a1.038 1.038 0 1 1-.206-1.454 1.041 1.041 0 0 1 .206 1.454M160.911 295.955a1.368 1.368 0 0 1 .581-.718 4.067 4.067 0 0 1 1.655-.567 3.486 3.486 0 0 1 2.021.139 1.086 1.086 0 0 1 .612.863.57.57 0 0 1-.016.295.221.221 0 0 1-.1.122 1.643 1.643 0 0 1-.415.1l-4.321.67a2.215 2.215 0 0 1-.013-.9m5.188-.247a3.6 3.6 0 0 0-.159-.7 3.183 3.183 0 0 0-.431-.81 2.142 2.142 0 0 0-.613-.536 2.536 2.536 0 0 0-.879-.312 3.56 3.56 0 0 0-2.562.575 2.244 2.244 0 0 0-.843 1.163 3.239 3.239 0 0 0-.046 1.48l.345 2.227.148-.022-.025-.163a.615.615 0 0 1 .027-.348.4.4 0 0 1 .162-.19 2.061 2.061 0 0 1 .527-.125l3.64-.564a2.363 2.363 0 0 1 .522-.049.5.5 0 0 1 .235.143.634.634 0 0 1 .126.32l.026.164.147-.024ZM160.6 289.586a1.653 1.653 0 0 1 .8-.441 5.577 5.577 0 0 1 1.67-.115 5.118 5.118 0 0 1 1.508.246 1.738 1.738 0 0 1 .823.543.984.984 0 0 1 .178.645 1 1 0 0 1-.515.862 3.928 3.928 0 0 1-2.138.364 4.628 4.628 0 0 1-1.838-.369 1.142 1.142 0 0 1-.743-1.081 1.046 1.046 0 0 1 .255-.654m.188 2.6a2.971 2.971 0 0 0 2.046.85 3.2 3.2 0 0 0 1.947-.51 2.446 2.446 0 0 0 1.11-2.059 2.4 2.4 0 0 0-.986-2.144 3.2 3.2 0 0 0-1.852-.633 2.979 2.979 0 0 0-2.109.662 2.374 2.374 0 0 0-.862 1.922 2.307 2.307 0 0 0 .706 1.912" style="fill:#727171" transform="translate(-155.48 -256.52)"/><path d="m160.8 285.188 3.935-1.6-2.308-.561a1.227 1.227 0 0 0-.7-.032.673.673 0 0 0-.371.528l-.146-.036.394-1.62.147.036a1.081 1.081 0 0 0 .015.44.46.46 0 0 0 .19.225 1.832 1.832 0 0 0 .535.193l4.522 1.1-.03.121-5.316 2.219 3.459.84a.8.8 0 0 0 .672-.045.718.718 0 0 0 .27-.411l.029-.115.146.034-.428 1.755-.144-.035a.773.773 0 0 0-.045-.608.925.925 0 0 0-.566-.31l-3.842-.933-.181.077a.962.962 0 0 0-.357.2.743.743 0 0 0-.161.322l-.146-.035ZM163.817 276.614l1.8.835-.053.112a2.552 2.552 0 0 0-1.443.154 1.673 1.673 0 0 0-.847.813 1.324 1.324 0 0 0-.076 1 2.008 2.008 0 0 0 .671.9 5.29 5.29 0 0 0 1.11.688 5.361 5.361 0 0 0 1.353.441 1.612 1.612 0 0 0 1.041-.125 1.438 1.438 0 0 0 .639-.7 1.719 1.719 0 0 0 .119-.359 2.685 2.685 0 0 0 .052-.409l-1.056-.49a1.348 1.348 0 0 0-.407-.143.4.4 0 0 0-.228.077.565.565 0 0 0-.2.247l-.056.118-.135-.064 1.027-2.211.135.062a1 1 0 0 0-.084.384.426.426 0 0 0 .123.243 1.3 1.3 0 0 0 .337.191l1.054.492a4.654 4.654 0 0 1-.446 2.094 2.822 2.822 0 0 1-.7.988 2.91 2.91 0 0 1-.869.52 2.76 2.76 0 0 1-.958.18 3.237 3.237 0 0 1-2.857-1.924 2.62 2.62 0 0 1 .06-2.2 3.2 3.2 0 0 1 .346-.582 2.963 2.963 0 0 1 .394-.4 2.218 2.218 0 0 0 .324-.326.284.284 0 0 0 .005-.215.794.794 0 0 0-.227-.285ZM167.538 271.475l.12.088a.71.71 0 0 0-.095.406 4.252 4.252 0 0 0 .42 1.03l1 2.08 1.1.8a2 2 0 0 0 .462.284.394.394 0 0 0 .247-.021.575.575 0 0 0 .251-.211l.168-.23.123.089-1.662 2.283-.122-.087.156-.215a.634.634 0 0 0 .136-.334.348.348 0 0 0-.073-.24 1.742 1.742 0 0 0-.4-.342l-.91-.659-2.637-.456a3.59 3.59 0 0 0-.972-.087.591.591 0 0 0-.331.231l-.121-.086 1.424-1.959.121.088-.063.088a.5.5 0 0 0-.125.289.194.194 0 0 0 .07.16 2.7 2.7 0 0 0 .78.2l2.024.349-.822-1.715a2.437 2.437 0 0 0-.47-.759.237.237 0 0 0-.207-.033.867.867 0 0 0-.376.3l-.118-.088Z" style="fill:#727171" transform="translate(-155.48 -256.52)"/><path d="m170.886 273.389-.8-1.9 1.873.836Zm2.07-.621c.18.082.276.129.3.145a.537.537 0 0 1 .122.095.244.244 0 0 1 .081.193.728.728 0 0 1-.229.356l-.074.071.1.108 1.731-1.716-.107-.1a.552.552 0 0 1-.36.145 2.9 2.9 0 0 1-.888-.291l-4.516-1.991-.051.047 1.864 4.446a3.549 3.549 0 0 1 .293.908.711.711 0 0 1-.139.5l.106.107 1.193-1.181-.108-.107a1.341 1.341 0 0 1-.422.279.4.4 0 0 1-.365-.131 1.3 1.3 0 0 1-.248-.4l-.228-.546 1.251-1.242Z" style="fill:#727171" transform="translate(-155.48 -256.52)"/><path d="m172.866 266.774 3.988 1.473-1.325-1.971a1.238 1.238 0 0 0-.493-.5.68.68 0 0 0-.629.142l-.084-.124 1.386-.928.082.124a1.2 1.2 0 0 0-.288.335.479.479 0 0 0-.009.293 1.757 1.757 0 0 0 .264.5l2.595 3.863-.1.069-5.42-1.951 1.984 2.955c.179.264.354.4.528.42a.718.718 0 0 0 .477-.119l.1-.068.084.125-1.5 1.007-.08-.125a.77.77 0 0 0 .378-.478.936.936 0 0 0-.211-.61l-2.2-3.283-.186-.066a1 1 0 0 0-.4-.092.784.784 0 0 0-.336.129l-.084-.122ZM180.876 262.483l.765 1.828-.115.047a2.55 2.55 0 0 0-1.171-.857 1.65 1.65 0 0 0-1.171.029 1.31 1.31 0 0 0-.734.686 1.993 1.993 0 0 0-.112 1.117 5.552 5.552 0 0 0 .355 1.256 5.457 5.457 0 0 0 .7 1.241 1.627 1.627 0 0 0 .851.61 1.46 1.46 0 0 0 .941-.084 1.666 1.666 0 0 0 .33-.185 2.434 2.434 0 0 0 .314-.268l-.447-1.072a1.465 1.465 0 0 0-.2-.381.394.394 0 0 0-.224-.1.589.589 0 0 0-.314.043l-.121.052-.057-.138 2.25-.94.059.137a.926.926 0 0 0-.319.227.405.405 0 0 0-.077.263 1.3 1.3 0 0 0 .12.369l.448 1.071a4.8 4.8 0 0 1-.788.72 4.888 4.888 0 0 1-.953.528 2.871 2.871 0 0 1-1.182.26 2.956 2.956 0 0 1-.99-.2 2.658 2.658 0 0 1-.829-.516 2.961 2.961 0 0 1-.729-1.074 3 3 0 0 1-.082-2.272 2.623 2.623 0 0 1 1.524-1.58 3.206 3.206 0 0 1 .648-.2 3.257 3.257 0 0 1 .563-.033 1.964 1.964 0 0 0 .459-.021.279.279 0 0 0 .148-.155.808.808 0 0 0 .029-.362ZM199.519 262.373l2.359.94-.053.141-.121-.049a.817.817 0 0 0-.394-.084.394.394 0 0 0-.212.121 2.292 2.292 0 0 0-.264.541l-1.013 2.541a3.217 3.217 0 0 0-.277.961.919.919 0 0 0 .15.494.942.942 0 0 0 .465.356 1.08 1.08 0 0 0 .694.06 1.239 1.239 0 0 0 .592-.371 3.932 3.932 0 0 0 .593-1.107l.845-2.117a1.565 1.565 0 0 0 .134-.526.424.424 0 0 0-.078-.272.907.907 0 0 0-.386-.258l.055-.138 1.595.636-.057.137-.09-.036a.607.607 0 0 0-.361-.04.545.545 0 0 0-.291.193 1.544 1.544 0 0 0-.222.422l-.788 1.973a6.426 6.426 0 0 1-.631 1.28 1.574 1.574 0 0 1-.811.541 1.807 1.807 0 0 1-1.255-.1 2.047 2.047 0 0 1-.84-.543 1.55 1.55 0 0 1-.366-.875 2.617 2.617 0 0 1 .231-1.1l1.014-2.543a2.255 2.255 0 0 0 .179-.579.368.368 0 0 0-.082-.235.853.853 0 0 0-.368-.219ZM206.018 265.334l.223 4.2 1.259-2.006a1.3 1.3 0 0 0 .259-.649.635.635 0 0 0-.36-.5l.079-.125 1.371.858-.079.128a1.112 1.112 0 0 0-.42-.124.48.48 0 0 0-.268.114 1.8 1.8 0 0 0-.349.446l-2.474 3.944-.108-.067-.348-5.695-1.889 3.012a.822.822 0 0 0-.175.648.7.7 0 0 0 .3.384l.1.063-.079.125-1.486-.931.079-.127a.722.722 0 0 0 .575.14.938.938 0 0 0 .465-.441l2.095-3.338-.013-.208a.96.96 0 0 0-.071-.4.733.733 0 0 0-.25-.254l.079-.126ZM207.5 273.167l-.093.117-1.98-1.651.095-.114.124.1a.648.648 0 0 0 .325.157.379.379 0 0 0 .239-.06 2.075 2.075 0 0 0 .366-.376l2.357-2.831a2.068 2.068 0 0 0 .313-.442.434.434 0 0 0-.006-.249.607.607 0 0 0-.2-.275l-.125-.1.1-.115 1.978 1.648-.1.115-.123-.1a.625.625 0 0 0-.323-.158.378.378 0 0 0-.242.06 1.965 1.965 0 0 0-.363.376l-2.357 2.832a2.147 2.147 0 0 0-.316.441.4.4 0 0 0 .008.25.612.612 0 0 0 .2.273ZM214.725 272.9l-.109.1a.792.792 0 0 0-.57-.135 5.23 5.23 0 0 0-1.021.32l-4.3 1.644-.082-.091 2.134-4.254a5.627 5.627 0 0 0 .424-.945.532.532 0 0 0-.132-.407l.112-.1 1.6 1.746-.112.1-.055-.06a.73.73 0 0 0-.36-.258.213.213 0 0 0-.193.058.622.622 0 0 0-.11.141c-.037.061-.125.231-.268.508l-1.343 2.664 2.485-.96q.453-.171.593-.245a1.081 1.081 0 0 0 .221-.146.416.416 0 0 0 .123-.19.349.349 0 0 0-.011-.227 1.03 1.03 0 0 0-.226-.353l.111-.1ZM215.544 274.788l-1.912 1.236.052.081a.751.751 0 0 0 .654.4 2.219 2.219 0 0 0 .977-.306l.066.1-2.466 1.6-.067-.1a2.535 2.535 0 0 0 .559-.584.9.9 0 0 0 .17-.5 1.14 1.14 0 0 0-.206-.515l-1.324.856a2.783 2.783 0 0 0-.456.334.316.316 0 0 0-.074.2.538.538 0 0 0 .111.292l.159.246a1.625 1.625 0 0 0 .907.733 2.08 2.08 0 0 0 1.254-.1l.073.116-1.616.78-2.312-3.576.125-.079.089.136a.621.621 0 0 0 .261.245.357.357 0 0 0 .245.013 1.813 1.813 0 0 0 .462-.248l3.093-2a2.869 2.869 0 0 0 .382-.271.413.413 0 0 0 .116-.233.6.6 0 0 0-.109-.385l-.088-.135.125-.081 2.239 3.459-1.38.892-.066-.1a2.158 2.158 0 0 0 .558-.72 1.106 1.106 0 0 0 .029-.665 2.672 2.672 0 0 0-.361-.687Z" style="fill:#727171" transform="translate(-155.48 -256.52)"/><path d="M218.188 279.619a1.086 1.086 0 0 1 .053.909 1.4 1.4 0 0 1-.766.611 1.5 1.5 0 0 1-.711.141.8.8 0 0 1-.5-.221 2.145 2.145 0 0 1-.393-.664l-.08-.193 2.248-.946Zm-2.548 1-1.735 2.457.6 1.426.138-.054a.577.577 0 0 1-.007-.376 2.888 2.888 0 0 1 .3-.486l1.289-1.825a1.554 1.554 0 0 0 .626.5 1.414 1.414 0 0 0 1.1-.035 1.507 1.507 0 0 0 .713-.586 1.339 1.339 0 0 0 .217-.826 4.434 4.434 0 0 0-.381-1.266l-.889-2.121-.138.059a1.074 1.074 0 0 1 .118.463.364.364 0 0 1-.1.232 1.9 1.9 0 0 1-.5.266l-3.375 1.418a1.962 1.962 0 0 1-.538.174.39.39 0 0 1-.239-.089 1.062 1.062 0 0 1-.25-.41l-.138.057.989 2.352.137-.057a1.083 1.083 0 0 1-.118-.463.375.375 0 0 1 .1-.232 1.811 1.811 0 0 1 .5-.266l1.456-.611Z" style="fill:#727171" transform="translate(-155.48 -256.52)"/><path d="m220.587 285.864-1.806.469-.033-.145a2 2 0 0 0 .973-.773 1.246 1.246 0 0 0 .207-.977.778.778 0 0 0-.355-.525.744.744 0 0 0-.859.056 1.339 1.339 0 0 0-.292.42 6.807 6.807 0 0 0-.288.883 3.549 3.549 0 0 1-.614 1.35 1.747 1.747 0 0 1-2.168.324 1.625 1.625 0 0 1-.777-1.08 1.8 1.8 0 0 1-.052-.444 2.892 2.892 0 0 1 .077-.554.761.761 0 0 0 .009-.3.336.336 0 0 0-.126-.179.592.592 0 0 0-.288-.11l-.027-.119 2.059-.492.028.121a2.551 2.551 0 0 0-1.179.922 1.38 1.38 0 0 0-.225 1.078.865.865 0 0 0 .4.576.815.815 0 0 0 .627.1.858.858 0 0 0 .352-.178 1.246 1.246 0 0 0 .276-.357 3.983 3.983 0 0 0 .267-.754 5.607 5.607 0 0 1 .4-1.092 1.884 1.884 0 0 1 .468-.577 1.711 1.711 0 0 1 1.871-.161 1.438 1.438 0 0 1 .712.959 1.648 1.648 0 0 1 .044.474 2.293 2.293 0 0 1-.081.451.861.861 0 0 0-.051.367.177.177 0 0 0 .1.131.873.873 0 0 0 .336.028Z" style="fill:#727171" transform="translate(-155.48 -256.52)"/><path d="m215.492 289.993-.15.017-.286-2.559.148-.017.016.16a.623.623 0 0 0 .127.336.352.352 0 0 0 .213.123 1.986 1.986 0 0 0 .523-.015l3.663-.415a2 2 0 0 0 .532-.1.432.432 0 0 0 .169-.183.607.607 0 0 0 .043-.338l-.017-.162.149-.014.288 2.557-.15.019-.017-.161a.653.653 0 0 0-.125-.338.389.389 0 0 0-.216-.125 2.169 2.169 0 0 0-.524.021l-3.663.41a2.107 2.107 0 0 0-.53.1.407.407 0 0 0-.169.184.6.6 0 0 0-.043.337ZM220.921 294.163l-1.518-.024v-.122a2.576 2.576 0 0 0 .757-.249 1.04 1.04 0 0 0 .373-.386 1.121 1.121 0 0 0 .082-.483l.006-.371-4.321-.064a2.069 2.069 0 0 0-.539.033.411.411 0 0 0-.19.161.58.58 0 0 0-.088.329v.164h-.15l.037-2.577h.15v.164a.6.6 0 0 0 .084.344.378.378 0 0 0 .2.154 2 2 0 0 0 .522.047l4.317.06.006-.373a.955.955 0 0 0-.229-.732 1.638 1.638 0 0 0-.95-.416v-.122l1.519.02ZM219.986 299.557l-.147-.027a.661.661 0 0 0-.091-.4 4.283 4.283 0 0 0-.828-.737l-1.8-1.418-1.334-.246a2.067 2.067 0 0 0-.539-.057.422.422 0 0 0-.213.123.54.54 0 0 0-.137.289l-.048.272-.148-.029.5-2.7.147.026-.046.25a.62.62 0 0 0 .023.355.382.382 0 0 0 .172.18 2.092 2.092 0 0 0 .506.133l1.105.2 2.572-.706a3.612 3.612 0 0 0 .911-.328.561.561 0 0 0 .195-.352l.147.027-.424 2.318-.147-.027.02-.1a.482.482 0 0 0-.016-.307.206.206 0 0 0-.131-.111 2.737 2.737 0 0 0-.791.15l-1.985.546 1.5 1.182a2.372 2.372 0 0 0 .749.473.217.217 0 0 0 .2-.059.8.8 0 0 0 .206-.423l.147.026ZM190.315 267.182c.09-.4.169-1.244.233-1.883.066.639.146 1.483.236 1.883a4.077 4.077 0 0 0 3.728-3.11h-1.082a2.687 2.687 0 0 1-2.688-2.689v-.883h-.385v.879a2.688 2.688 0 0 1-2.689 2.689h-1.08a4.074 4.074 0 0 0 3.727 3.11M169.584 303.9c-.393.122-1.164.473-1.748.736.519-.375 1.209-.864 1.513-1.143a4.076 4.076 0 0 0-4.557-1.673l.539.936a2.688 2.688 0 0 1-.983 3.671l-.762.44.195.335.76-.439a2.686 2.686 0 0 1 3.671.983l.542.936a4.075 4.075 0 0 0 .83-4.782M211.753 303.5c.3.277.991.768 1.511 1.143-.585-.264-1.356-.615-1.749-.737a4.084 4.084 0 0 0 .831 4.783l.542-.938a2.684 2.684 0 0 1 3.668-.981l.764.439.192-.335-.761-.439a2.691 2.691 0 0 1-.984-3.673l.541-.935a4.071 4.071 0 0 0-4.555 1.673" style="fill:#727171" transform="translate(-155.48 -256.52)"/></svg>