<svg xmlns="http://www.w3.org/2000/svg" width="173.09435mm" height="173.09435mm" viewBox="0 0 173.09435 173.09435"><g transform="translate(-33 -85.302)"><circle cx="119.54717" cy="171.84904" r="86.547173" style="fill:#f9f9f9;stroke:#fff;stroke-width:0"/><path d="m0 0-1.938-4.055C-.729-2.888 0-1.364 0 0" style="fill:#004896;fill-opacity:1;fill-rule:nonzero;stroke:none" transform="matrix(1.229 0 0 -1.229 143.561 139.524)"/><path d="M0 0c-1.436.811-2.897.431-3.675-.953-.776-1.377-.345-2.826 1.093-3.637 1.424-.803 2.889-.421 3.666.958C1.862-2.248 1.426-.801 0 0" style="fill:#004896;fill-opacity:1;fill-rule:nonzero;stroke:none" transform="matrix(1.229 0 0 -1.229 86.41 228.115)"/><path d="M0 0c-.259 1.63-1.463 2.541-3.03 2.293C-4.593 2.045-5.459.805-5.202-.823c.257-1.615 1.466-2.53 3.031-2.281C-.608-2.856.257-1.613 0 0" style="fill:#004896;fill-opacity:1;fill-rule:nonzero;stroke:none" transform="matrix(1.229 0 0 -1.229 54.066 181.444)"/><path d="m0 0-.855-.046c-.717-.029-1.833-.447-2.399-.892L-5.89-2.992c-.251-.195-.501-.308-.732-.319-.375-.019-.659.276-.682.707-.004.002-.006.01-.002.015-.022.709.471 1.604 1.134 2.101l1.063.776c.271.203.38.435.371.644-.009.211-.141.432-.442.611l-1.119.646c-.711.418-1.298 1.246-1.335 1.908 0 .007-.003 0-.007.044-.023.422.233.743.605.761.235.009.493-.078.768-.246l2.84-1.792c.595-.385 1.725-.684 2.443-.654l.029.003.843.042.008-.001c.815.038 1.558-.382 1.602-1.049v-.003l.002-.012v-.009C1.503.521.81.037 0 0m-1.257-12.575-4.714.961a1.13 1.13 0 0 1-1.328-.878l-.176-.865c-.123-.604-.574-1.031-.999-.945-.427.089-.678.659-.553 1.259l1.232 6.047c.125.609.576 1.034 1.005.945.423-.088.673-.652.55-1.262l-.178-.865a1.125 1.125 0 0 1 .878-1.32l4.714-.964c.608-.122 1.003-.701.885-1.286-.119-.579-.709-.952-1.316-.827m-.624-7.227-.005-.003-.002-.006c-.001-.006-.001-.009-.004-.017l-.003-.003c-.212-.638-1.035-.862-1.818-.624l-5.572 1.705c-.003.004-.008 0-.046.009-.765.241-1.319.873-1.153 1.517 0 .008.004.018.004.025.002.008.002.011.006.017 0 .003.003.006.003.008l.005.02a.107.107 0 0 0 .011.02c.232.609 1.038.816 1.806.589l5.61-1.721h.003c.78-.239 1.334-.885 1.155-1.536m-2.874-6.333c-.081-.546-.292-1.139-.63-1.794 0-.003-.005-.009-.009-.015l-.002-.007a4.68 4.68 0 0 1-.118-.221c-.594-1.073-1.279-1.784-2.06-2.122-.78-.335-1.643-.32-2.562.048l-.079.032.238.54.05.109c.004.002.007.002.007.004.003.007.003.012.01.023.345.662 1.037 1.126 1.586 1.024l.401.173c.384.166.714.496.995 1.004.014.027.032.057.047.087.252.492.352.904.305 1.251-.055.375-.209.616-.46.757l-.024.015a.628.628 0 0 1-.474.055c-.167-.039-.382-.173-.631-.409-.164-.16-.527-.552-1.074-1.174-.715-.8-1.321-1.31-1.839-1.522-.703-.29-1.366-.278-1.974.035a.19.19 0 0 0-.052.037c-.402.217-.71.557-.918.998-.209.44-.274.952-.195 1.519.073.519.264 1.067.568 1.652a.22.22 0 0 0 .009.021l.002.003c.033.06.062.118.098.181.592 1.065 1.247 1.761 1.983 2.074.734.314 1.475.286 2.204-.085l.072-.036-.038-.073-.246-.49-.029-.055c-.355-.679-.968-1.176-1.462-1.119-.03-.015-.104-.051-.284-.134-.275-.139-.554-.43-.812-.9a.628.628 0 0 0-.05-.092c-.227-.44-.319-.822-.296-1.154.019-.226.106-.365.286-.469l.003-.001c.156-.08.315-.081.514.008.256.109.717.53 1.344 1.262.637.729 1.158 1.244 1.574 1.545.416.299.861.473 1.326.521.444.039.901-.059 1.363-.304l.073-.037a2.49 2.49 0 0 0 1.036-1.11c.237-.496.311-1.051.224-1.655m-4.711-8.444-.006-.009c-.41-.536-1.255-.956-1.927-.957a230.76 230.76 0 0 1-2.541-.018l-.253-.042a1.48 1.48 0 0 1-.601-.237c-.155-.111-.361-.335-.604-.658-.016-.016-.03-.039-.042-.055-.024-.017-.002-.164.156-.361a3.547 3.547 0 0 1 .711-.672l.664-.494.008-.008c.627-.474.896-1.232.544-1.719l-.003-.002c-.37-.477-1.175-.43-1.81.04l-4.695 3.498c-.004 0-.012.003-.021.011a1.481 1.481 0 0 0-.296 2.061l.777 1.045c.059.07.12.156.182.24.463.612 1.107 1.44 1.536 1.961.004.005.249.303.66.595.415.291.88.429 1.384.414.5-.014.965-.18 1.392-.498l.024-.016c.52-.391.829-.898.916-1.502.083-.559-.051-1.175-.389-1.845.353.156.688.255 1.007.306.384.063.982.076 1.797.049l.669-.018c.304-.012.546-.084.711-.209.277-.208.303-.566.05-.9m-8.305-9.373-3.1-2.731a1.121 1.121 0 0 0-1.582.102l-4.231 4.801a1.13 1.13 0 0 0 .1 1.584l3.03 2.672c.466.406 1.079.474 1.37.144.288-.326.145-.924-.323-1.337l-1.413-1.247c-.461-.408-.573-1.055-.244-1.423.326-.375.976-.341 1.438.064l1.277 1.127c.462.405 1.075.466 1.363.142.289-.327.146-.925-.316-1.339l-1.272-1.118c-.462-.408-.54-1.092-.16-1.521.379-.431 1.068-.442 1.529-.035l1.481 1.302c.466.409 1.081.475 1.373.148.285-.322.142-.928-.32-1.335m-10.211-7.959-.026-.017-.212-.132c-.54-.308-1.454-.154-2.087.332l-5.166 3.985a1.635 1.635 0 0 0-.408.445c-.238.4-.18.841.216 1.077h.001c.004.004.011.004.016.004l.006.009.003.004c.547.313 1.463.157 2.09-.34l3.18-2.531c.279-.223.486-.264.586-.207.096.061.16.263.098.617l-.738 3.973c-.141.779.14 1.656.668 1.979a.036.036 0 0 0 .013.005c.003.005.006.006.012.009.003.005.007.006.011.006.384.221.785.058 1.014-.328.098-.164.164-.357.201-.586l1.023-6.445c.104-.698-.123-1.469-.544-1.858zm-7.583-3.942-.07.148.069-.148h-.002c-.623-.267-1.336.197-1.68.943l-2.42 5.3c-.003.003-.01.009-.024.036-.332.736-.226 1.567.364 1.874.007.002.017.009.025.009.005.004.012.004.019.009.001.004.01.009.019.008.611.232 1.302-.233 1.64-.964l2.441-5.332.004-.005c.332-.743.221-1.581-.385-1.878m-5.714-1.857c-.485-.117-1.287.075-1.795.433l-4.133 2.936c-.508.357-.795.159-.647-.443l.79-3.193c.149-.6-.202-1.21-.78-1.349-.574-.145-1.164.228-1.314.828l-1.532 6.212c-.148.597.161 1.199.686 1.33.527.129 1.377-.058 1.885-.413l3.904-2.731c.504-.354.8-.152.651.441l-.73 2.952c-.146.603.204 1.209.781 1.35.575.142 1.163-.236 1.313-.833l1.536-6.207c.147-.602-.135-1.193-.615-1.313m-11.701-.022c0-.007-.003-.4-.106-.845a2.5 2.5 0 0 0-.597-1.174c-.297-.323-.692-.577-1.178-.769-.497-.193-1.127-.293-1.901-.307h-.102c-.893-.014-1.584.068-2.081.258-.495.186-.896.44-1.199.763a2.45 2.45 0 0 0-.6 1.017c-.146.519-.219 1.254-.239 2.23l-.058 3.213c0 .005-.003.015-.003.025-.008.813.43 1.536 1.104 1.567h.004c.006 0 .011-.003.016 0 .002-.005.002-.002.005-.002h.007c.673-.001 1.14-.715 1.159-1.532l.037-1.902c.014-.767.047-1.946.069-2.585l.053-.216c.08-.314.252-.557.541-.746.269-.179.656-.281 1.164-.271h.015c.522.007.901.116 1.134.294.248.191.382.401.425.653.047.256.069.697.06 1.299l-.001.14-.062 3.369c0 .001-.003.017-.004.037-.01.811.427 1.531 1.095 1.57l.004-.001.008.001c.004-.001.01 0 .016.001l.001-.001.006.001h.004l.016-.001c.01.003.014 0 .027 0 .647-.037 1.098-.738 1.118-1.534l.03-1.761c.003-.11.003-.223.007-.347.009-.768.013-1.782.006-2.444m-18.804 5.821-1.931-6.097c-.187-.59-.73-.948-1.205-.798-.473.149-1.058.739-1.306 1.302l-1.994 4.661c-.249.565-.598.549-.783-.038l-.994-3.14c-.185-.587-.801-.928-1.371-.746-.565.178-.872.806-.684 1.397l1.928 6.096c.187.587.764.941 1.28.773.52-.162 1.147-.76 1.396-1.326l1.905-4.372c.249-.564.599-.542.786.04l.918 2.899c.183.583.801.929 1.371.742.561-.174.869-.805.684-1.393m-11.513.572c-1.086-1.932-3.777-2.966-6.484-1.44-2.761 1.551-3.225 4.373-2.143 6.295 1.026 1.825 3.658 3.03 6.492 1.432 2.838-1.596 3.154-4.481 2.135-6.287m-15.69 5.063c-.189.169-.194.797-.011 1.385l1.187 3.823c.185.589-.132.88-.708.658l-3.706-1.504c-.577-.227-1.195-.274-1.383-.103-.187.175-.174.793.027 1.374l2.409 6.898c.201.584.737.719 1.19.298l.031-.027c.451-.418.655-1.234.449-1.818l-.988-2.783c-.209-.582.089-.863.661-.622l2.791 1.147c.573.234 1.329.165 1.68-.159.349-.325.48-1.072.294-1.661l-.923-2.874c-.19-.59.115-.864.676-.609l2.688 1.214c.564.254 1.395.12 1.849-.296l.024-.027c.454-.416.367-.967-.199-1.22l-6.671-2.953c-.564-.251-1.178-.317-1.367-.141m-9.608 17.499c-1.284-.838-1.469-2.399-.496-3.897.291-.446.477-.644 1.035-1.031.473.303.694.787.508 1.073-.191.295-.043.725.318.963.366.238.945.01 1.283-.506l.635-.975a1.128 1.128 0 0 0-.329-1.556l-1.085-.708c-.512-.333-1.373-.362-1.915-.058 0 0-1.224.69-1.986 1.853-1.648 2.532-1.279 5.326.886 6.739 2.208 1.44 4.887.648 6.571-1.929a8.167 8.167 0 0 0 .986-2.158c.158-.596-.138-1.363-.658-1.701l-.637-.416c-.16 1.214-.521 2.25-1.104 3.141-1.279 1.962-2.938 1.867-4.012 1.166m-6.368 3.76c-.181.468-.088 1.29.201 1.832l2.387 4.479c.291.543.059.804-.516.583l-3.07-1.191c-.578-.222-1.226.049-1.439.605-.213.55.083 1.188.661 1.411l5.966 2.306c.573.222 1.209-.011 1.405-.519.196-.507.119-1.369-.171-1.915l-2.215-4.223c-.288-.544-.051-.81.521-.591l2.838 1.098c.572.223 1.222-.043 1.436-.6.214-.551-.087-1.188-.661-1.41l-5.964-2.307c-.58-.222-1.198-.022-1.379.442m-4.649 15.263c-.497 3.129 1.427 5.242 3.603 5.588 2.07.33 4.645-.98 5.156-4.197.513-3.215-1.554-5.252-3.603-5.578-2.189-.348-4.67 1.119-5.156 4.187m-.533 11.15c.016.589.534 1.061 1.151 1.043l4.811-.118a1.127 1.127 0 0 1 1.152 1.097l.022.884c.015.616.385 1.113.817 1.102.437-.011.782-.527.767-1.143l-.156-6.168c-.015-.62-.386-1.115-.823-1.106-.431.011-.775.528-.759 1.147l.021.885a1.12 1.12 0 0 1-1.095 1.142l-4.81.122c-.619.018-1.112.517-1.098 1.113m6.152 19.033a1.845 1.845 0 0 0 0-3.687c-1.02 0-1.842.83-1.842 1.848a1.84 1.84 0 0 0 1.842 1.839m3.297 12.889 5.914 8.138c.169.24.702.715.897.68.2-.035.454-.131.562-.213.111-.08.455-.52.403-.73a2.658 2.658 0 0 0-.398-.797l-4.831-6.651c-.171-.241-.385-.662-.338-.747a1.1 1.1 0 0 1 .112-.183c.013-.007.239-.082.335-.021.091.048.301.289.476.524l4.831 6.647c.17.235.703.718.899.684.201-.037.445-.13.553-.211.104-.074.446-.519.397-.72-.047-.211-.226-.572-.4-.803l-1.985-2.737c-.18-.238-.217-.518-.167-.558.059-.04.145-.11.188-.14.044-.033.3-.122.393-.074.094.062.307.299.476.531l2.06 2.839c.169.231.46.509.635.618.186.113.717-.076.825-.16.108-.076.448-.52.408-.727a2.983 2.983 0 0 0-.4-.803l-.801-1.102c-.172-.24-.086-.397.194-.355 0 0 .222.035.576-.007.069-.008.122-.033.191-.047a2.81 2.81 0 0 0 1.232-.499c.829-.598 1.3-1.443 1.432-2.476.014-.135.045-.258.049-.393.049-1.143-.295-2.218-1.007-3.201-.738-1.013-1.67-1.684-2.761-1.988-1.174-.344-2.244-.171-3.183.517a3.08 3.08 0 0 0-.978 1.169c-.19.437-.257.926-.26.948l-.009.039c-.008.018-.035.018-.05.004-.007-.022-.155-.22-.329-.458l-.734-1.008c-.173-.236-.706-.711-.897-.68a1.618 1.618 0 0 0-.563.21c-.114.084-.457.528-.406.732.048.209.226.568.402.803l2.047 2.827c.173.235.39.661.341.753a.858.858 0 0 1-.168.222c-.04.031-.302.122-.389.057-.092-.048-.304-.285-.48-.519l-1.473-2.036a9.133 9.133 0 0 0-.68-.812s-.146-.152-.425-.193c-.286-.05-.503.062-.523.071-.243.137-.443.268-.443.268-.227.15-.589.404-.811.569l-.724.524c-.224.157-.658.679-.608.881.045.203.227.563.393.794m18.716 18.75c.423.857 1.109 1.529 2.055 2.008.894.462 1.819.603 2.734.424 1.01-.184 1.74-.714 2.175-1.571.21-.397.304-.825.281-1.278a2.597 2.597 0 0 0-.145-.727l-.008-.036c-.005-.023.021-.031.035-.023.018.004.236.115.497.249.255.129.945.317 1.103.193.163-.118.346-.322.407-.442.059-.12.163-.673.028-.836-.137-.157-.462-.399-.72-.529l-.901-.462c-.258-.138-.65-.414-.64-.511 0-.106.104-.381.221-.623l.4-.775c.123-.24.276-.891.136-1.055a2.277 2.277 0 0 0-.566-.463c-.179-.087-.808-.235-.965-.118-.159.122-.39.422-.517.667l-.393.777c-.124.235-.292.484-.372.542-.078.064-.532-.081-.789-.218l-1.904-.969c-.255-.132-.947-.314-1.105-.195-.158.129-.345.32-.404.444-.062.122-.164.674-.028.833.137.161.414.384.618.486.213.103.158.267-.104.356 0 0-.065.029-.295.174a2.603 2.603 0 0 0-.851.977c-.441.871-.432 1.778.017 2.701m8.165 4.3c.142.168.397.377.58.468.186.091.815.249.976.122.157-.122.394-.418.51-.658l.275-.537.908-1.778 2.266-4.44c.124-.245.272-.902.14-1.063a2.37 2.37 0 0 0-.581-.457c-.19-.098-.814-.253-.978-.129-.158.126-.29.235-.299.25-.004.012-.183.173-.285.168-.11-.01-.403-.126-.662-.26l-.861-.429c-.253-.138-.947-.32-1.105-.2-.159.126-.344.319-.399.435a1.577 1.577 0 0 0-.118.578c-.011.195.553.645.81.779l.858.437c.262.132.643.412.639.514 0 .097-.101.377-.228.622l-2.3 4.528c-.132.24-.282.892-.146 1.05m6.907-9.294c.062-.119.165-.681.031-.831-.136-.169-.458-.405-.716-.538l-8.041-4.095a8.285 8.285 0 0 0-.972-.412s-.189-.066-.467.013c-.288.076-.421.263-.437.28a7.11 7.11 0 0 0-.279.439c-.131.237-.343.627-.467.869l-.705 1.39c-.124.241-.274.893-.137 1.056.127.162.39.362.566.456.181.093.807.241.966.119.163-.123.393-.417.515-.662l.53-1.035c.125-.251.395-.604.495-.596.109.013.404.126.667.258l6.942 3.535c.257.132.642.253.851.273.209.008.597-.395.658-.519m11.276 12.573c0 .272.157.925.358 1.006.194.086.588.15.881.15h3.798c.293 0 .993-.15 1.077-.331.088-.18.16-.438.16-.58 0-.136-.16-.671-.348-.756-.201-.082-.596-.147-.889-.147h-1.966c-.289 0-.756-.07-.807-.167-.041-.091-.073-.384-.073-.653v-4.513c0-.272.073-.712.172-.746.096-.045.419-.077.708-.077h3.397c.296 0 .762.077.807.161.045.094.082.39.082.662v5.991c0 .272.16.925.348 1.006.204.086.495.15.667.15.166 0 .766-.15.856-.331.086-.18.16-.553.16-.825v-1.912c0-.269.079-.711.181-.756.094-.037.253-.067.349-.067.099 0 .401.067.452.162.039.091.079.392.079.661v1.912c0 .272.162.925.353 1.006.191.086.506.15.678.15.185 0 .499-.064.687-.15.196-.081.356-.734.356-1.006V49.425c0-.271-.16-.925-.356-1.011a2.128 2.128 0 0 0-.687-.144c-.172 0-.784.144-.869.331-.092.18-.162.553-.162.824v4.848c0 .272-.079.708-.178.752a1.221 1.221 0 0 1-.353.073c-.096 0-.404-.073-.451-.166-.042-.091-.079-.387-.079-.659v-4.857c0-.27-.162-.92-.356-1.007a2.129 2.129 0 0 0-.66-.143c-.172 0-.769.143-.862.326-.083.18-.153.554-.153.824v.773c0 .28-.082.714-.172.761-.1.039-.421.067-.717.067h-4.598c-.287 0-.762.026-1.06.052 0 0-.186.021-.391.156-.266.167-.312.321-.32.367a5.028 5.028 0 0 0-.073.515c-.01.273-.026.716-.026.99zm-33.755-81.014A44.917 44.917 0 0 0-104.59-.339c0 2.986.294 5.913.853 8.746 3.273.422 7.053 1.775 9.137 1.579 3.847-.375 4.123-1.963 3.989-6.622-.142-4.668.405-6.75-2.613-11.655-1.626-2.642-4.424-7.847-6.163-13.076m11.233 5.79c3.999-.667 10.235-6.663 12.663-11.347a54.48 54.48 0 0 1-3.332-4.763 4.623 4.623 0 0 1 1.481-6.37 4.644 4.644 0 0 1 6.373 1.477c3.567 5.739 8.398 10.284 10.068 10.289 1.671-.524 3.251-2.524 4.642-4.311 1.831-2.357 6.126-7.874 11.726-4.149 1.486.997 2.559 2.508 3.799 4.252 1.227 1.76 3.304 4.689 4.686 4.635.466-.014 3.271-1.41 7.607-7.449-8.1-7.587-18.979-12.25-30.921-12.25-14.644 0-27.675 6.994-35.947 17.823 1.263 4.049 4.101 9.827 7.155 12.163m39.019 54.874c-.861-5.384-4.796-3.548-4.796-3.548-3.643 1.209-13.514 4.37-5.88-2.056 7.637-6.422 1.694-9.01-2.992-10.225-4.693-1.212-6.277-4.341 1.889-4.167 8.156.177 5.971-3.822 4.752-9.903-1.215-6.082 2.21-6.403 5.34-.318 3.128 6.064 6.614 7.741 11.819.971 5.22-6.779 5.179-3.074 3.623 2.475-1.561 5.554-.843 7.424 4.884 5.854 5.736-1.559 9.734 0 0 5.395-7.469 4.131-3.875 8.361-.861 11.366 10.486-8.298 17.224-21.112 17.224-35.48 0-3.246-.344-6.419-1.002-9.465-4.689 7.847-8.986 11.591-13.476 11.776-5.01.216-8.073-4.075-9.897-6.64a2.362 2.362 0 0 1-.185-.259c-.122.149-.233.308-.336.449-1.582 2.039-3.748 4.84-7.278 5.908-7.158 2.187-14.189-7.956-16.172-11.126-1.064-1.686-.543-3.925 1.144-4.991 1.693-1.057 3.939-.547 4.993 1.145 2.828 4.47 6.632 8.03 7.938 8.03 1.306-.42 2.55-1.997 3.619-3.406 1.431-1.851 4.785-6.196 9.196-3.286 1.163.772 2.008 1.961 2.984 3.326.978 1.369 2.609 3.649 3.693 3.612.457-.019 2.937-.521 7.628-8.386.965-1.627 3.013-2.204 4.685-1.398a45.147 45.147 0 0 0-5.649-11.103c-4.582 5.896-9.18 9.365-13.46 9.532-6.39.237-10.265-5.256-12.589-8.525a5.876 5.876 0 0 0-.224-.332c-.159.192-.319.392-.452.56-2.019 2.6-4.793 6.147-9.293 7.508-4.472 1.338-8.889-1.086-12.518-4.374-1.724 5.372-4.625 10.775-6.296 13.493-3.024 4.905-2.471 6.987-2.608 11.655-.139 4.659.137 6.247 3.977 6.622 3.861.368 13.472-4.56 14.99.832 1.322 4.691-16.486 4.466-21.143 4.329 1.353.915 2.242 2.34 2.242 3.98 0 2.746-2.495 4.964-5.565 4.964-3.074 0-5.566-2.218-5.566-4.964 0-1.64.888-3.058 2.258-3.969-2.505.072-8.529.159-13.515-.453 6.214 17.569 22.985 30.187 42.648 30.187 3.809 0 7.497-.474 11.03-1.371a77.518 77.518 0 0 1-.803-4.224m8.703-8.721.334-.336c1.156-1.171 2.608-2.641 2.608-4.778 0-1.988-.973-4.138-2.635-5.726-1.381-1.349-3.361-2.089-5.563-2.089-2.098 0-4.09.856-5.585 2.407C-52.791 21.616-53 23.665-53 25.462c0 1.512.209 3.726 2.02 5.469 1.406 1.366 2.496 1.788 4.634 1.788 2.44 0 4.596-.783 5.914-2.143m5.252 7.277a32.737 32.737 0 0 1-1.378-.836c-5.364-3.477-5.454-.881-6.548 4.843a44.637 44.637 0 0 0 7.926-4.007m-4.953 12.358c.061.124.454.537.659.524.213-.017.601-.139.86-.27l8.424-4.298c.257-.131.59-.369.719-.529.139-.164-.017-.813-.138-1.051l-1.388-2.723c-.123-.238-.558-.748-.77-.734-.199.02-.531.102-.721.207-.174.084-.675.506-.672.703.01.209.109.566.232.812l.701 1.377c.128.241.261.667.188.743-.068.086-.334.254-.594.386l-6.814 3.476c-.264.129-.813.577-.813.781.006.201.06.468.127.596m1.836 4.187c.134.258.313.479.535.665.216.187.272.205.281.208l.067.027c.018.02.018.061.004.078l-.063.027c-.349.183-.345.413-.345.413.009.277.064.589.119.703.053.106.435.51.648.492.212-.013.593-.135.852-.261l.859-.441c.266-.135.717-.279.799-.221a.86.86 0 0 1 .182.19c.021.044.377.389.588.38.208-.017.558-.122.777-.231.217-.113.733-.549.728-.743 0-.2-.021-.406-.045-.448-.023-.047-.073-.309 0-.389.067-.079.338-.254.598-.387l.716-.366c.257-.13.816-.58.811-.784-.004-.201-.044-.458-.107-.565-.062-.115-.441-.513-.654-.502-.205.02-.412.053-.458.07-.036.019-.05-.115-.032-.299l-.009-.162a1.962 1.962 0 0 0-.223-.835c-.409-.825-1.099-1.336-2.038-1.521-.883-.186-1.775-.052-2.659.395-.893.461-1.542 1.107-1.931 1.939-.417.875-.414 1.747 0 2.568m10.017-2.427c.126.242.563.745.782.734.207-.017.521-.106.711-.201.185-.093.676-.513.676-.711-.008-.199-.115-.564-.238-.808-.116-.24-.249-.667-.186-.747.073-.084.287-.222.469-.325a2.18 2.18 0 0 0 .587-.459c.139-.165.034-.722-.024-.838-.067-.125-.451-.529-.659-.513a2.201 2.201 0 0 0-.731.201c-.179.094-.574.206-.654.152-.082-.061-.25-.307-.375-.552l-.183-.373c-.128-.245-.563-.756-.776-.737a2.174 2.174 0 0 0-.717.2c-.181.096-.679.511-.672.711.003.199.106.565.231.805zm5.026-15.165c.108.077.606.255.774.148.169-.102.439-.367.607-.59l.623-.869c.119.099.239.179.328.246l2.266 1.643c.208.157.791.392.963.295a2.47 2.47 0 0 0 .509-.472c.107-.155.338-.714.257-.875-.093-.17-.335-.428-.544-.583l-1.965-1.426c-.205-.15-.5-.454-.466-.552.019-.092.165-.356.332-.575l.264-.366c.166-.223.363-.447.449-.502.086-.053.462.128.663.281l1.967 1.427c.209.151.531.304.72.337.181.029.639-.361.75-.518.115-.148.248-.435.292-.63.036-.187-.365-.671-.574-.825l-2.26-1.642c-.094-.067-.215-.147-.333-.236l1.889-2.604c.164-.221.333-.56.379-.756.043-.186-.285-.611-.385-.689-.106-.075-.601-.25-.772-.146-.17.103-.446.369-.603.588l-2.885 3.968-1.626 2.249-1.629 2.228c-.159.224-.326.561-.371.759-.047.187.28.612.381.687m8.149 4.868c.087.173.254.373.356.448.111.081.616.264.786.155.173-.096.442-.372.6-.589l5.247-7.217c.157-.22.329-.558.376-.755.041-.197-.364-.674-.574-.828l-4.816-3.494c-.207-.156-.794-.396-.964-.291a2.034 2.034 0 0 0-.51.472c-.12.159-.352.721-.269.885.093.174.335.427.537.588l3.677 2.664c.204.143.496.448.473.546-.023.097.216-.182.05.045l-4.621 6.365c-.162.226-.441.842-.348 1.006m10.729-21.245a1.844 1.844 0 0 0 1.841-1.839 1.85 1.85 0 0 0-1.841-1.848c-1.022 0-1.845.83-1.845 1.848 0 1.014.823 1.839 1.845 1.839m-54.986 46.745c-37.234 0-67.513-30.278-67.513-67.513 0-37.224 30.279-67.502 67.513-67.502 37.226 0 67.52 30.278 67.52 67.502 0 37.235-30.294 67.513-67.52 67.513" style="fill:#004896;fill-opacity:1;fill-rule:nonzero;stroke:none" transform="matrix(1.229 0 0 -1.229 192.49 170.817)"/><path d="M0 0c.48-.12.932-.072 1.386.164.431.214.725.543.901 1 .172.459.165.857-.02 1.224-.196.377-.518.622-.98.744a1.87 1.87 0 0 1-1.34-.15c-.448-.235-.671-.58-.671-.58a3.159 3.159 0 0 1-.369-.938s-.068-.34.133-.722C-.776.373-.463.133 0 0" style="fill:#004896;fill-opacity:1;fill-rule:nonzero;stroke:none" transform="matrix(1.229 0 0 -1.229 82.878 109.888)"/><path d="M0 0c1.596 0 2.996.499 3.938 1.431l1.937 4.054c0 1.186-.941 2.137-1.937 3.152l-.343.344c-.867.908-2.457 1.436-4.253 1.436-1.545 0-2.046-.19-3.015-1.14-.919-.881-1.32-2.015-1.32-3.792 0-1.617.192-2.878 1.075-3.788C-3.162.919-1.881 0 0 0" style="fill:#004896;fill-opacity:1;fill-rule:nonzero;stroke:none" transform="matrix(1.229 0 0 -1.229 136.34 146.266)"/><path d="M0 0c.002.002-.011.002-.009.01-.225.162-.437.228-.665.198-.22-.03-.443-.146-.658-.359a9.471 9.471 0 0 1-.537-.675c-.099-.13-.206-.277-.326-.438l-.074-.097c-.438-.584-.407-1.329.026-1.658l-.039-.047-.004-.021.049.062c.464-.344 1.002-.352 1.193-.094 0 0 .004.003.004.005l.001.001c.237.318.788 1.087 1.229 1.708 0 .002.063.084.143.305a.94.94 0 0 1 .03.605A.931.931 0 0 1 0 0" style="fill:#004896;fill-opacity:1;fill-rule:nonzero;stroke:none" transform="matrix(1.229 0 0 -1.229 173.508 210.455)"/><path d="M0 0c.492-.356 1.042-.446 1.691-.299A2.544 2.544 0 0 1 3.218.725c.376.519.538 1.091.48 1.751-.043.67-.3 1.173-.789 1.529-.48.35-1.042.436-1.694.275A2.577 2.577 0 0 1-.28 3.26a2.642 2.642 0 0 1-.518-1.754C-.742.848-.481.351 0 0" style="fill:#004896;fill-opacity:1;fill-rule:nonzero;stroke:none" transform="matrix(1.229 0 0 -1.229 67.54 134.03)"/><path d="M0 0a1.658 1.658 0 0 1 1.165-.141c.412.097.688.291.846.594.164.331.164.68 0 1.071-.172.377-.43.656-.8.838a1.718 1.718 0 0 1-1.171.162c-.398-.098-.679-.298-.843-.628-.157-.314-.157-.655.005-1.035C-.639.474-.376.189 0 0" style="fill:#004896;fill-opacity:1;fill-rule:nonzero;stroke:none" transform="matrix(1.229 0 0 -1.229 148.725 107.555)"/></g></svg>