<svg xmlns="http://www.w3.org/2000/svg" xml:space="preserve" width="588.91003" height="599.99896" viewBox="0 0 588.91003 599.99895"><defs><radialGradient id="a" cx="0" cy="0" r="1" fx="0" fy="0" gradientTransform="matrix(166.38833 0 0 -166.3883 490.307 450.584)" gradientUnits="userSpaceOnUse" spreadMethod="pad"><stop offset="0" style="stop-opacity:1;stop-color:#8cdaf8"/><stop offset="0.5" style="stop-opacity:1;stop-color:#1fa1e2"/><stop offset="1" style="stop-opacity:1;stop-color:#1d4e9e"/></radialGradient><radialGradient id="b" cx="0" cy="0" r="1" fx="0" fy="0" gradientTransform="matrix(166.38833 0 0 -166.38833 490.312 450.584)" gradientUnits="userSpaceOnUse" spreadMethod="pad"><stop offset="0" style="stop-opacity:1;stop-color:#8cdaf8"/><stop offset="0.5" style="stop-opacity:1;stop-color:#1fa1e2"/><stop offset="1" style="stop-opacity:1;stop-color:#1d4e9e"/></radialGradient><radialGradient id="c" cx="0" cy="0" r="1" fx="0" fy="0" gradientTransform="matrix(166.38274 0 0 -166.38274 490.307 450.584)" gradientUnits="userSpaceOnUse" spreadMethod="pad"><stop offset="0" style="stop-opacity:1;stop-color:#8cdaf8"/><stop offset="0.5" style="stop-opacity:1;stop-color:#1fa1e2"/><stop offset="1" style="stop-opacity:1;stop-color:#1d4e9e"/></radialGradient><radialGradient id="d" cx="0" cy="0" r="1" fx="0" fy="0" gradientTransform="matrix(166.38533 0 0 -166.38529 490.307 450.584)" gradientUnits="userSpaceOnUse" spreadMethod="pad"><stop offset="0" style="stop-opacity:1;stop-color:#8cdaf8"/><stop offset="0.5" style="stop-opacity:1;stop-color:#1fa1e2"/><stop offset="1" style="stop-opacity:1;stop-color:#1d4e9e"/></radialGradient><radialGradient id="e" cx="0" cy="0" r="1" fx="0" fy="0" gradientTransform="matrix(166.37481 0 0 -166.37478 490.312 450.584)" gradientUnits="userSpaceOnUse" spreadMethod="pad"><stop offset="0" style="stop-opacity:1;stop-color:#8cdaf8"/><stop offset="0.5" style="stop-opacity:1;stop-color:#1fa1e2"/><stop offset="1" style="stop-opacity:1;stop-color:#1d4e9e"/></radialGradient><radialGradient id="f" cx="0" cy="0" r="1" fx="0" fy="0" gradientTransform="matrix(166.39164 0 0 -166.39164 490.304 450.584)" gradientUnits="userSpaceOnUse" spreadMethod="pad"><stop offset="0" style="stop-opacity:1;stop-color:#8cdaf8"/><stop offset="0.5" style="stop-opacity:1;stop-color:#1fa1e2"/><stop offset="1" style="stop-opacity:1;stop-color:#1d4e9e"/></radialGradient><radialGradient id="g" cx="0" cy="0" r="1" fx="0" fy="0" gradientTransform="matrix(166.36944 0 0 -166.36944 490.312 450.575)" gradientUnits="userSpaceOnUse" spreadMethod="pad"><stop offset="0" style="stop-opacity:1;stop-color:#8cdaf8"/><stop offset="0.5" style="stop-opacity:1;stop-color:#1fa1e2"/><stop offset="1" style="stop-opacity:1;stop-color:#1d4e9e"/></radialGradient><radialGradient id="h" cx="0" cy="0" r="1" fx="0" fy="0" gradientTransform="matrix(166.37722 0 0 -166.37718 490.307 450.58)" gradientUnits="userSpaceOnUse" spreadMethod="pad"><stop offset="0" style="stop-opacity:1;stop-color:#8cdaf8"/><stop offset="0.5" style="stop-opacity:1;stop-color:#1fa1e2"/><stop offset="1" style="stop-opacity:1;stop-color:#1d4e9e"/></radialGradient><radialGradient id="i" cx="0" cy="0" r="1" fx="0" fy="0" gradientTransform="matrix(166.36501 0 0 -166.36501 490.312 450.575)" gradientUnits="userSpaceOnUse" spreadMethod="pad"><stop offset="0" style="stop-opacity:1;stop-color:#8cdaf8"/><stop offset="0.5" style="stop-opacity:1;stop-color:#1fa1e2"/><stop offset="1" style="stop-opacity:1;stop-color:#1d4e9e"/></radialGradient><radialGradient id="j" cx="0" cy="0" r="1" fx="0" fy="0" gradientTransform="matrix(166.37793 0 0 -166.37793 490.307 450.581)" gradientUnits="userSpaceOnUse" spreadMethod="pad"><stop offset="0" style="stop-opacity:1;stop-color:#8cdaf8"/><stop offset="0.5" style="stop-opacity:1;stop-color:#1fa1e2"/><stop offset="1" style="stop-opacity:1;stop-color:#1d4e9e"/></radialGradient><radialGradient id="k" cx="0" cy="0" r="1" fx="0" fy="0" gradientTransform="matrix(166.38172 0 0 -166.38169 490.304 450.584)" gradientUnits="userSpaceOnUse" spreadMethod="pad"><stop offset="0" style="stop-opacity:1;stop-color:#8cdaf8"/><stop offset="0.5" style="stop-opacity:1;stop-color:#1fa1e2"/><stop offset="1" style="stop-opacity:1;stop-color:#1d4e9e"/></radialGradient><radialGradient id="l" cx="0" cy="0" r="1" fx="0" fy="0" gradientTransform="matrix(166.37481 0 0 -166.37481 490.307 450.58)" gradientUnits="userSpaceOnUse" spreadMethod="pad"><stop offset="0" style="stop-opacity:1;stop-color:#8cdaf8"/><stop offset="0.5" style="stop-opacity:1;stop-color:#1fa1e2"/><stop offset="1" style="stop-opacity:1;stop-color:#1d4e9e"/></radialGradient><radialGradient id="m" cx="0" cy="0" r="1" fx="0" fy="0" gradientTransform="matrix(166.37447 0 0 -166.37444 490.31 450.58)" gradientUnits="userSpaceOnUse" spreadMethod="pad"><stop offset="0" style="stop-opacity:1;stop-color:#8cdaf8"/><stop offset="0.5" style="stop-opacity:1;stop-color:#1fa1e2"/><stop offset="1" style="stop-opacity:1;stop-color:#1d4e9e"/></radialGradient><radialGradient id="n" cx="0" cy="0" r="1" fx="0" fy="0" gradientTransform="matrix(166.37917 0 0 -166.37917 490.312 450.582)" gradientUnits="userSpaceOnUse" spreadMethod="pad"><stop offset="0" style="stop-opacity:1;stop-color:#8cdaf8"/><stop offset="0.5" style="stop-opacity:1;stop-color:#1fa1e2"/><stop offset="1" style="stop-opacity:1;stop-color:#1d4e9e"/></radialGradient><radialGradient id="o" cx="0" cy="0" r="1" fx="0" fy="0" gradientTransform="matrix(166.37038 0 0 -166.37038 490.31 450.58)" gradientUnits="userSpaceOnUse" spreadMethod="pad"><stop offset="0" style="stop-opacity:1;stop-color:#8cdaf8"/><stop offset="0.5" style="stop-opacity:1;stop-color:#1fa1e2"/><stop offset="1" style="stop-opacity:1;stop-color:#1d4e9e"/></radialGradient><radialGradient id="p" cx="0" cy="0" r="1" fx="0" fy="0" gradientTransform="matrix(166.37354 0 0 -166.37354 490.314 450.584)" gradientUnits="userSpaceOnUse" spreadMethod="pad"><stop offset="0" style="stop-opacity:1;stop-color:#8cdaf8"/><stop offset="0.5" style="stop-opacity:1;stop-color:#1fa1e2"/><stop offset="1" style="stop-opacity:1;stop-color:#1d4e9e"/></radialGradient></defs><path d="M396.093 422.99c-10.104-4.496-17.473-8.606-23.398-12.47l-3.027-18.495c7.138 3.096 15.445 7.438 26.181 14.667l64.118 43.28a91.22 91.22 0 0 1-2.466.256z" style="fill:url(#a);stroke:none;stroke-width:2.46134" transform="matrix(1.33333 0 0 -1.33333 -359.099 782.454)"/><path d="M430.638 450.582h-51.395l-2.15-13.099c3.491.67 7.267 1.502 11.404 2.533z" style="fill:url(#b);stroke:none;stroke-width:2.46134" transform="matrix(1.33333 0 0 -1.33333 -359.099 782.454)"/><path d="M397.853 403.736c-15.95-10.759-23.964-18.918-30.57-26.359l-4.135-25.32c6.894 4.394 14.778 10.301 24.916 20.09l79.171 76.523c-.696.167-1.412.327-2.119.463z" style="fill:url(#c);stroke:none;stroke-width:2.46134" transform="matrix(1.33333 0 0 -1.33333 -359.099 782.454)"/><path d="M535.272 450.582h-4.115l54.823-24.322c8.08-3.599 14.795-6.065 20.66-7.837l-2.35 14.426a205.831 205.831 0 0 1-13.028 3.716z" style="fill:url(#d);stroke:none;stroke-width:2.46134" transform="matrix(1.33333 0 0 -1.33333 -359.099 782.454)"/><path d="M592.119 440.016a214.399 214.399 0 0 1 11.406-2.533l-2.134 13.1h-51.403z" style="fill:url(#e);stroke:none;stroke-width:2.46134" transform="matrix(1.33333 0 0 -1.33333 -359.099 782.454)"/><path d="M389.378 436.565a201.635 201.635 0 0 1-13.037-3.716l-2.356-14.426c5.856 1.772 12.58 4.238 20.656 7.837l54.819 24.322H445.35z" style="fill:url(#f);stroke:none;stroke-width:2.46134" transform="matrix(1.33333 0 0 -1.33333 -359.099 782.454)"/><path d="M503.946 445.276a24.283 24.283 0 0 1-1.969-1.054l51.048-109.546c9.821-21.072 17.72-30.08 25.133-38.986h29.258c-3.52 8.438-8.38 18.136-18.332 31.82z" style="fill:url(#g);stroke:none;stroke-width:2.46134" transform="matrix(1.33333 0 0 -1.33333 -359.099 782.454)"/><path d="M509.423 447.535a55.716 55.716 0 0 1-2.144-.777l84.705-117.14c13.94-19.201 23.532-26.445 32.662-33.928h2.038l-5.467 33.435c-7.052 11.194-12.162 22.13-31.141 40.45z" style="fill:url(#h);stroke:none;stroke-width:2.46134" transform="matrix(1.33333 0 0 -1.33333 -359.099 782.454)"/><path d="M391.537 327.51c-9.951-13.684-14.798-23.382-18.322-31.82h29.253c7.403 8.905 15.317 17.914 25.128 38.986l51.063 109.546c-.65.38-1.307.731-1.977 1.054z" style="fill:url(#i);stroke:none;stroke-width:2.46134" transform="matrix(1.33333 0 0 -1.33333 -359.099 782.454)"/><path d="M498.938 442.27c-.63-.46-1.246-.942-1.851-1.444l24.618-106.665c4.438-19.206 9.314-29.637 13.985-38.613 1.88.09 3.727.142 5.509.142h21.052c-1.837 9.565-4.571 20.543-12.462 37.474z" style="fill:url(#j);stroke:none;stroke-width:2.46134" transform="matrix(1.33333 0 0 -1.33333 -359.099 782.454)"/><path d="M430.835 333.164c-7.899-16.931-10.623-27.909-12.465-37.474h21.052c1.787 0 3.633-.051 5.514-.142 4.661 8.976 9.557 19.407 13.985 38.613l24.62 106.64c-.605.522-1.22 1-1.862 1.467z" style="fill:url(#k);stroke:none;stroke-width:2.46134" transform="matrix(1.33333 0 0 -1.33333 -359.099 782.454)"/><path d="M494.089 437.931a29.058 29.058 0 0 1-1.99-2.414V330.093c0-23.196 3.334-34.71 6.287-45.887 6.956 5.102 15.566 8.15 24.232 9.798.202 9.77-.172 21.087-4.393 39.352z" style="fill:url(#l);stroke:none;stroke-width:2.46134" transform="matrix(1.33333 0 0 -1.33333 -359.099 782.454)"/><path d="M462.396 333.356c-4.21-18.265-4.587-29.583-4.398-39.352 8.686-1.649 17.281-4.696 24.237-9.798 2.951 11.164 6.298 22.69 6.298 45.887v105.424a35.504 35.504 0 0 1-1.996 2.414z" style="fill:url(#m);stroke:none;stroke-width:2.46134" transform="matrix(1.33333 0 0 -1.33333 -359.099 782.454)"/><path d="M515.5 449.138a60.48 60.48 0 0 1-2.117-.468l79.176-76.523c10.131-9.781 18.02-15.691 24.914-20.09l-4.13 25.32c-6.616 7.44-14.62 15.6-30.56 26.359z" style="fill:url(#n);stroke:none;stroke-width:2.46134" transform="matrix(1.33333 0 0 -1.33333 -359.099 782.454)"/><path d="M390.545 369.575c-18.98-18.33-24.094-29.26-31.146-40.45l-5.462-33.435h2.043c9.134 7.483 18.726 14.727 32.667 33.927l84.695 117.14a58.43 58.43 0 0 1-2.134.778z" style="fill:url(#o);stroke:none;stroke-width:2.46134" transform="matrix(1.33333 0 0 -1.33333 -359.099 782.454)"/><path d="M523.115 450.228a90.02 90.02 0 0 1-2.461-.256l64.123-43.28c10.726-7.23 19.038-11.57 26.166-14.667l-3.017 18.514c-5.925 3.845-13.294 7.955-23.398 12.452z" style="fill:url(#p);stroke:none;stroke-width:2.46134" transform="matrix(1.33333 0 0 -1.33333 -359.099 782.454)"/><path d="M676.088 266.8a5.96 5.96 0 0 0-5.964-5.955 5.955 5.955 0 0 0-5.954 5.954 5.957 5.957 0 0 0 5.954 5.961 5.96 5.96 0 0 0 5.964-5.96M304.546 266.8a5.96 5.96 0 0 1 5.964-5.955 5.955 5.955 0 0 1 5.954 5.954 5.957 5.957 0 0 1-5.954 5.961 5.96 5.96 0 0 1-5.964-5.96M307.263 301.994l-.997 3.044c-1.262 3.816-4.376 3.619-11.9 1.143-5.533-1.817-10.4-3.422-8.962-7.788l1.07-3.244zm-23.34-14.643-3.45 10.48c-2.714 8.236 2.273 11.576 11.628 14.658 4.615 1.524 14.946 5.7 18.475-5.024l3.37-10.224zM286.846 341.757c-8.021-1.13-11.425-2.097-10.908-5.78.519-3.687 4.056-3.674 12.077-2.544 8.017 1.117 11.419 2.082 10.902 5.769-.517 3.685-4.052 3.68-12.07 2.555m2.099-14.963c-8.283-1.166-16.171-2.267-17.687 8.519-1.517 10.793 6.374 11.903 14.654 13.072 8.194 1.15 16.167 2.27 17.688-8.523 1.513-10.798-6.461-11.918-14.655-13.068M300.9 362.688l-31.576 1.334.374 8.922 22.224 7.473.007.089-21.872.928.263 6.165 31.58-1.336-.372-8.706-23.457-7.64-.002-.086 23.092-.977zM304.46 440.54l-22.256.387 2.796 6.667 14.146-.827-10.355 9.806 2.606 6.22 15.622-16.161 10.094-4.24-2.57-6.085zM307.856 479.397l-.044-.076 10-9.776 3.328 5.348zm14.938-24.3L300.59 479.23l4.6 7.399 31.368-9.422-3.677-5.91-6.872 2.218-4.768-7.657 5.004-5.223zM342.694 485.118l-23.338 21.312 6.023 6.597 21.83-8.558.06.061-16.16 14.763 4.157 4.559 23.34-21.31-5.874-6.432-22.884 9.22-.056-.069 17.064-15.59zM409.6 538.12l-11.046 29.607 9.961 3.727 12.154-18.413.087.034-2.597 21.97 9.638 3.603 11.047-29.617-6.028-2.254-8.524 22.86-.086-.039 2.83-24.975-5.906-2.206-13.941 20.826-.082-.03 8.529-22.848zM450.853 551.35l-6.018 31.03 6.49 1.26 6.018-31.03zM474.952 572.857l2.929.172c2.619.155 3.204 2.823 3.086 4.827-.18 3.025-1.511 4.083-3.61 3.958l-2.925-.173zm1.063-17.916-6.601-.392-1.876 31.552 12.199.722c4.499.263 7.556-2.435 7.873-7.823.24-4.021-1.154-7.125-5.4-8.08l.005-.091c1.457-.091 5.76-.18 6.097-5.866.12-2.006.605-7.945 1.287-9.22l-6.466-.376c-.984 1.868-.935 4.017-1.056 6.074-.226 3.754-.068 6.966-5.134 6.663l-1.708-.1zM513.745 579.702l-.091.01-4.495-13.245 6.27-.691zm-15.455-23.974 12.162 30.46 8.664-.953 5.065-32.357-6.921.766-.973 7.155-8.959.982-2.56-6.769zM533.854 550.59l8.575 30.426 16.605-4.684-1.322-4.676-10.234 2.887-2.115-7.502 9.437-2.663-1.322-4.674-9.436 2.663-2.506-8.893 10.571-2.98-1.316-4.677zM610.65 551.7l-11.297-19.36c-2.38-4.085-7.202-7.051-14.158-3-6.279 3.668-7.408 8.684-4.408 13.833l11.288 19.359 5.715-3.333-11.071-18.98c-1.962-3.369-1.297-5.533.775-6.744 2.503-1.457 4.61-.45 6.37 2.573l11.071 18.984zM604.765 517.346l20.634 23.942 6.768-5.826-7.93-22.071.071-.057 14.288 16.58 4.682-4.03-20.638-23.938-6.602 5.685 8.558 23.14-.061.056-15.096-17.505zM630.966 492.787l23.868 20.72 4.332-4.99-23.868-20.724zM668.068 497.727l3.784-5.728-16.48-16.759.045-.074 22.224 8.049 3.59-5.442-30.983-10.421-4.268 6.47zM659.316 451.65l28.805 13.024 7.103-15.711-4.425-2.009-4.386 9.696-7.096-3.215 4.039-8.917-4.428-2.016-4.042 8.932-8.412-3.803 4.528-10.007-4.432-2.006zM689.352 423.618l.768-2.83c.691-2.528 3.423-2.562 5.36-2.026 2.912.78 3.683 2.304 3.129 4.337l-.763 2.828zm-17.326-4.706-1.732 6.375 30.503 8.293 3.202-11.783c1.186-4.35-.847-7.898-6.042-9.311-3.884-1.059-7.217-.332-9.009 3.625l-.093-.017c.211-1.445 1.001-5.676-4.49-7.165-1.947-.534-7.657-2.222-8.762-3.16l-1.699 6.254c1.625 1.356 3.746 1.745 5.725 2.284 3.636.987 6.813 1.492 5.482 6.395l-.448 1.646zM677.838 386.295c-.818 8.14 3.822 10.143 9.296 10.345l.67-6.575c-3.01-.3-5.519-.689-5.16-4.3.227-2.225 1.775-3.172 3.91-2.95 5.658.563 4.676 13.84 14.041 14.787 4.923.49 9.08-1.467 9.885-9.483.642-6.395-1.915-9.863-8.529-10.092l-.65 6.4c2.351.238 4.711.868 4.443 3.527-.216 2.129-1.518 3.278-3.692 3.057-5.971-.596-4.115-13.786-14.005-14.783-8.147-.817-9.705 5.053-10.21 10.067M679.418 363.835l31.589-.955-.197-6.611-31.594.96zM706.687 321.401l-5.189.818 1.14 7.263-26.036 4.086 1.024 6.532 26.036-4.083 1.14 7.266 5.19-.81zM681.67 307.788l22.209 1.474-2.23-6.87-14.163-.364 11.133-8.917-2.085-6.414-16.912 14.807-10.409 3.384 2.048 6.292zM285.559 417.514c-2.85.697-5.472.808-6.257-2.606-.925-4.01 4.5-5.253 10.466-6.624 9.643-2.215 11.56-1.664 12.405 2.004.241 1.058.256 2.27.138 3.337l-7.583 1.736-.803-3.49-4.738 1.085 2.287 9.936 16.375-3.758c-.064-1.831-.396-6.385-.982-8.942-2.486-10.83-7.256-11.037-18.94-8.354-7.76 1.777-15.563 3.98-13.141 14.517 1.45 6.313 5.887 9.422 12.242 7.561zM366.138 536.97c-1.74 2.366-3.677 4.138-6.466 2.019-3.288-2.484.07-6.912 3.771-11.797 5.969-7.889 7.793-8.701 10.796-6.432.866.675 1.659 1.585 2.244 2.471l-4.696 6.203-2.86-2.159-2.931 3.87 8.127 6.153L384.26 523.9c-1.22-1.354-4.388-4.637-6.483-6.227-8.87-6.7-12.649-3.808-19.888 5.754-4.807 6.35-9.375 13.048-.76 19.565 5.164 3.914 10.566 3.449 14.244-2.062zM427.288 188.509l9.577-2.73-5.36-18.908-9.583 2.705zm-12.509-18.475a3.526 3.526 0 0 1 2.43-4.359l19.651-5.57 8.113 28.613-23.043 6.535zm37.514 18.667-13.055-46.05 6.731-1.904 13.055 46.046zM503.319 184.704l-.01-14.36-3.212-.002.01 14.367h-6.58l-.02-27.245-15.424.01.002 7.85 10.8-.005.012 17.416-17.795.01-.005-5.03 10.8-.013-.002-7.343-10.798.005-.017-14.393a3.537 3.537 0 0 1 3.532-3.528l18.89-.01-.012-12.405 6.587-.005.02 25.283 3.21.005-.023-28.47h6.58l.034 47.863zM553.424 195.199l3.958-13.81-3.087-.884-3.955 13.805-6.326-1.809 7.508-26.196-14.828-4.24-5.572 19.439 10.377 2.978-1.383 4.842-17.112-4.901 7.38-25.74a3.525 3.525 0 0 1 4.359-2.423l18.164 5.216 3.42-11.928 6.322 1.81-6.965 24.31 3.089.884 7.841-27.363 6.326 1.809-13.19 46.015zM584.004 192.376c-1.839 2.899-.928 6.786 2.043 8.68 2.968 1.889 6.88 1.074 8.723-1.823 1.843-2.897.928-6.786-2.04-8.676-2.97-1.89-6.878-1.076-8.726 1.819m16.611 10.583c-1.705 2.676-4.573 4.234-7.802 4.588l3.392 2.156-2.71 4.246-8.196-5.213-2.179 3.419-5.905-3.756 2.184-3.421-8.194-5.211 2.707-4.256 3.387 2.159c-1.041-3.077-.844-6.338.864-9.016 3.313-5.198 11.042-6.23 17.234-2.282 6.188 3.941 8.529 11.387 5.218 16.587m-7.905-29.77 22.718 14.468 7.755-12.176 5.903 3.758-10.458 16.422-28.623-18.228zm14.426 40.517-5.115 8.033-5.905-3.763 14.566-22.863 5.9 3.758-6.739 10.589 4.664 2.966-2.707 4.253zM322.452 213.026c-3.431 3.73-4.248 8.6-1.821 10.825 2.431 2.238 7.204 1.01 10.633-2.717 3.433-3.734 4.25-8.588 1.821-10.823-2.43-2.232-7.204-1.016-10.633 2.715m12.573 11.566c-6.065 6.592-14.655 8.585-19.162 4.443-4.5-4.14-3.23-12.86 2.838-19.462 6.062-6.589 14.65-8.585 19.154-4.435 4.504 4.127 3.232 12.863-2.83 19.454m7.467 2.117 3.286 3.017 8.765-9.523 3.707 3.407-17.488 19.016 4.807 4.418 17.49-19.006 3.71 3.404-22.266 24.21-9.629-8.859a3.526 3.526 0 0 1-.209-4.984l6.378-6.929-3.284-3.02-12.13 13.183-3.704-3.406 28.995-31.52 3.702 3.409zM369.798 173.313c-4.312 2.677-6.31 7.302-4.452 10.303 1.873 3.005 6.894 3.258 11.206.58 4.31-2.675 6.311-7.287 4.443-10.29-1.86-3-6.89-3.269-11.197-.594m9.452 15.236c-7.61 4.719-16.526 4.172-19.873-1.223-3.35-5.393.116-13.621 7.729-18.344 7.605-4.726 16.52-4.182 19.868 1.21 3.35 5.4-.119 13.631-7.724 18.357m-5.12 21.087c2.132 3.433 6.368 4.674 9.437 2.766 3.077-1.905 3.847-6.254 1.716-9.688-2.13-3.43-6.365-4.669-9.44-2.764-3.074 1.913-3.84 6.257-1.713 9.686m17.119-10.626c3.613 5.826 1.376 13.776-4.987 17.722-6.37 3.952-14.487 2.429-18.098-3.39-3.613-5.813-1.38-13.77 4.994-17.726 6.36-3.948 14.478-2.42 18.09 3.394m15.786-6.872 2.66 4.278-4.708 2.916 2.865 4.61-5.944 3.687-14.3-23.033 5.943-3.677 4.249 6.835 4.71-2.917 2.661 4.293-4.706 2.907 1.868 3.015zM653.524 225.38l-13.47 11.378-4.244-5.028 13.469-11.379-2.408-2.85-13.468 11.379-4.248-5.029 13.466-11.379-6.102-7.231 3.842-3.247 27.629 32.714-3.842 3.247zm4.207 11.278-21.815 18.428-21.222-25.123 3.847-3.252 16.703 19.775 17.973-15.177z" style="fill:#4f4c4d;fill-opacity:1;fill-rule:nonzero;stroke:none;stroke-width:2.46134" transform="matrix(1.33333 0 0 -1.33333 -359.099 782.454)"/></svg>