<svg xmlns="http://www.w3.org/2000/svg" width="206.15559mm" height="206.15601mm" viewBox="0 0 206.15559 206.15601"><path d="M106.351 142.543c-19.021 0-34.444 15.114-34.444 33.755 0 18.642 15.423 33.758 34.444 33.758 19.023 0 34.446-15.116 34.446-33.758 0-18.641-15.423-33.755-34.446-33.755" style="fill:#fff;fill-opacity:1;fill-rule:nonzero;stroke:none;stroke-width:.511169" transform="matrix(2.99252 0 0 3.0536 -215.183 -435.269)"/><path d="M106.472 152.912c-13.127 0-23.771 10.43-23.771 23.296 0 12.865 10.644 23.297 23.77 23.297 13.13 0 23.773-10.432 23.773-23.297 0-12.866-10.644-23.296-23.772-23.296" style="fill:#029c8a;fill-opacity:1;fill-rule:nonzero;stroke:none;stroke-width:.352778" transform="matrix(2.99252 0 0 3.0536 -215.183 -435.269)"/><path d="M106.472 208.423c-18.131 0-32.882-14.453-32.882-32.215 0-17.765 14.75-32.216 32.882-32.216 18.13 0 32.881 14.451 32.881 32.216 0 17.762-14.75 32.215-32.881 32.215m0-65.34c-18.633 0-33.791 14.86-33.791 33.125 0 18.264 15.158 33.123 33.79 33.123 18.633 0 33.792-14.859 33.792-33.123 0-18.265-15.159-33.124-33.791-33.124" style="fill:#029c8a;fill-opacity:1;fill-rule:nonzero;stroke:none;stroke-width:.352778" transform="matrix(2.99252 0 0 3.0536 -215.183 -435.269)"/><path d="M134.873 173.9a1.207 1.207 0 1 0 0 2.413 1.207 1.207 0 0 0 0-2.414M79.228 175.107a1.206 1.206 0 1 0-2.411-.004 1.206 1.206 0 0 0 2.41.004M114.96 151.464l1.766.83-.505 1.074.765.36 1.224-2.602.569.269-1.221 2.594.779.367 2.378-5.059-.777-.365-.886 1.882-.57-.267.885-1.884-.764-.36-1.655 3.52-1.733-.816 1.326-2.815 1.315.619.213-.452-2.092-.986-1.462 3.108c-.096.207-.114.389-.048.543.072.172.236.318.493.44M80.208 164.615c.173-.056.332-.2.471-.43l2-3.296-.443-.27-1.972 3.248-1.097-.665 1.94-3.199-.445-.27-2.385 3.933 1.433.868c.174.106.338.131.498.081M80.985 165.927l1.239-2.042 1.67 1.013.444-.73-1.67-1.013 1.238-2.042-.452-.275-2.921 4.815zM85.962 154.075c.388-.347.933-.372 1.217-.054.284.317.199.856-.19 1.203-.389.349-.936.375-1.22.057-.283-.319-.197-.859.193-1.206m.914 1.902-1.185 1.06.346.386 1.294-1.157h.001l.615.686.64-.572-.615-.686 1.45-1.298.273.306-.865.774.342.382.865-.774.268.3.64-.573-2.947-3.297-.641.572 1.72 1.924-1.327 1.187c.408-.605.459-1.315.07-1.75-.488-.545-1.488-.451-2.23.212-.742.664-.95 1.648-.461 2.194.388.435 1.1.463 1.747.124M87.741 157.21l-.636.569.563.63c.144.161.294.237.454.227.164-.02.36-.13.59-.337l3.028-2.707-.345-.387-3.027 2.706zM97.3 147.819l.513 1.438.808-.288-.47-1.317c-.067-.192-.18-.316-.335-.376-.17-.067-.384-.054-.638.035l-3.53 1.261.175.488zm0 0" style="fill:#029c8a;fill-opacity:1;fill-rule:nonzero;stroke:none;stroke-width:.352778" transform="matrix(2.99252 0 0 3.0536 -215.183 -435.269)"/><path d="M98.362 151.246c.156.434-.247.974-.893 1.204-.648.232-1.3.068-1.454-.366-.156-.436.244-.975.892-1.206.647-.232 1.3-.068 1.455.368m-1.831-2.186-.805.288.32.899-2.046.73.178.498 1.665-.594c-.515.435-.802 1.008-.631 1.49.255.712 1.422.947 2.442.584 1.02-.366 1.776-1.286 1.521-2-.17-.48-.757-.741-1.432-.752l1.74-.62-.178-.5-2.453.876zM106.52 149.2h.858v-2.376c0-.204-.064-.359-.188-.468-.14-.12-.345-.18-.614-.18h-2.607v.52h2.55zm0 0" style="fill:#029c8a;fill-opacity:1;fill-rule:nonzero;stroke:none;stroke-width:.352778" transform="matrix(2.99252 0 0 3.0536 -215.183 -435.269)"/><path d="M108.114 151.495h.857v-2.918h.774v-.552h-.774v-2.12h-.857v3.875h-2.364v-1.729h-.858v1.729h-1.13v.529h4.352zM131.289 165.507l.404.757 2.521-1.347c.18-.096.286-.226.324-.387.04-.18-.004-.389-.13-.626l-1.767-3.307-.458.245 1.74 3.258zm0 0" style="fill:#029c8a;fill-opacity:1;fill-rule:nonzero;stroke:none;stroke-width:.352778" transform="matrix(2.99252 0 0 3.0536 -215.183 -435.269)"/><path d="m128.278 162.197 2.655 4.972.456-.244-.952-1.783 1.86-.992-.377-.707-1.859.993-.32-.596 1.86-.994-.373-.699-1.859.994-.635-1.188zM125.148 153.998c.297-.277.8-.22 1.123.128.323.346.345.85.049 1.127-.297.276-.798.22-1.122-.127-.324-.347-.346-.853-.05-1.128m1.756 1.88c.311-.291.39-.757.258-1.234l.529.568.357-.334-.936-1.002.263-.245-.586-.628-.263.245-.889-.954-.356.334.534.572c-.467-.166-.938-.12-1.251.172-.509.474-.398 1.424.248 2.115.645.692 1.582.867 2.092.392M126.953 157.864l.888-.828.528.565.388-.362-.527-.565 1.044-.976-.586-.627-2.32 2.165zM124.608 158.886l.582.624.458-.427.552-.525c.149-.14.217-.291.212-.458a.715.715 0 0 0-.116-.35 1.372 1.372 0 0 0-.17-.22l-2.557-2.741-.003.003-.001-.001-.38.354 2.528 2.71zM78.238 183.558l-.085-.31 1.287-.357.086.311c.124.451-.01.752-.439.87-.467.13-.701-.02-.849-.514m1.027 1.171c.722-.2 1.028-.782.816-1.555l-.3-1.084-2.332.645.3 1.083c.211.768.753 1.124 1.516.911M79.166 186.52c-.161-.41.107-.698.445-.83s.73-.106.892.303c.16.41-.11.696-.447.828-.338.132-.73.106-.89-.302m1.14.936c.653-.256 1-.897.7-1.66-.3-.764-.991-.995-1.644-.74-.652.257-1 .898-.7 1.661.3.764.992.997 1.644.74M81.324 189.445c-.321.167-.715.182-.918-.208-.204-.389.035-.703.356-.871.32-.168.715-.183.917.207.204.39-.033.704-.355.872m.836-1.123c-.379-.728-1.091-.885-1.714-.561-.621.325-.901 1-.52 1.728.378.728 1.09.885 1.713.56.622-.324.902-1 .521-1.727M84.325 191.912l-1.669.69-.004-.007 1.245-1.313-.361-.53-1.679.679-.004-.005 1.253-1.303-.383-.563-1.6 1.947.388.572 1.581-.642.004.005-1.175 1.236.384.562 2.405-.766zM85.101 194.74c-.274.236-.653.343-.941.01-.288-.333-.13-.692.145-.93.272-.238.651-.343.94-.01.289.331.13.691-.144.93m.554-1.286c-.537-.62-1.268-.61-1.797-.15-.53.46-.645 1.18-.107 1.8.537.62 1.266.61 1.797.15.529-.46.644-1.18.107-1.8M86.828 196.868l-.006-.006.363-1.707-.509-.48-1.66 1.759.467.44 1.033-1.096.006.006-.374 1.718.51.48 1.66-1.758-.468-.44zM91.345 198.508l-.555-.395-.844 1.188c-.18.253-.37.314-.645.118-.275-.195-.28-.395-.1-.649l.843-1.188-.555-.394-.822 1.156c-.406.572-.325 1.059.32 1.518.644.457 1.13.374 1.535-.197zM93.077 199.523l-.743 1.292-.006-.004-.046-1.744-.606-.35-1.206 2.098.555.32.753-1.308.005.004.037 1.76.607.349 1.206-2.098zM94.016 200.015l-1.06 2.175.613.298 1.058-2.176zM96.375 201.066l-1.158 1.47-.007-.003.21-1.86-.658-.27-.157 2.552.727.298 1.7-1.917zM98.621 203.315l.146-.464-1.224-.384.127-.403 1.34.419.15-.483-1.99-.621-.722 2.308 2.024.633.161-.519-1.373-.428.137-.44zM100.887 203.173c-.04.182-.167.255-.368.212l-.559-.121.115-.533.529.114c.187.04.32.152.283.328m-.07-.798-1.303-.28-.506 2.364.666.143.184-.86.505.108c.315.067.302.32.269.563-.004.072-.046.3-.005.394l.658.142c-.069-.113-.004-.452.007-.556.03-.23.004-.527-.25-.647v-.007c.293-.037.475-.252.528-.507.104-.477-.304-.762-.752-.857M103.994 203.588c.065-.538-.433-.838-.945-.9-.488-.06-1.083.076-1.148.6-.054.443.32.643.675.785.362.143.729.226.703.44-.022.18-.241.221-.445.197-.291-.036-.465-.15-.445-.435l-.677-.082c-.074.616.43.923 1.022.995.571.07 1.155-.057 1.23-.665.053-.434-.305-.642-.669-.785-.365-.143-.736-.22-.712-.408.02-.158.207-.183.351-.165.204.025.42.126.383.34zM104.304 205.291l.68.04.144-2.416-.68-.04zM109.382 202.8l-.435 1.023-.601-.934-.753.065v-.026l-2.24.036.008.542.78-.012.03 1.876.68-.01-.03-1.877.78-.014-.008-.492 1.06 1.408.076.899.678-.058-.076-.899.82-1.593zM112.958 204.167c-.43.095-.671-.217-.75-.57-.078-.354.008-.738.439-.833.428-.095.67.215.75.569.078.354-.009.737-.439.834m-.43-1.932c-.8.177-1.137.825-.985 1.51.153.683.732 1.129 1.532.95.802-.178 1.139-.825.987-1.51-.153-.684-.732-1.128-1.534-.95M116.075 202.324l-1.025.327-.15-.472 1.186-.377-.154-.481-1.834.586.734 2.304.65-.207-.283-.888 1.025-.327zM119.341 200.438l-.226-.492-2.037.938.226.492.709-.327.785 1.705.619-.285-.784-1.705zM120.854 201.12l-.228-.4 1.113-.635-.243-.425-1.113.637-.21-.368 1.219-.696-.251-.438-1.81 1.034 1.2 2.1 1.842-1.052-.269-.47zM123.725 198.816c.14.245.09.483-.174.67-.36.252-.703.057-.91-.239-.21-.296-.276-.684.083-.937.237-.165.473-.174.645.003l.558-.393c-.351-.466-1.039-.387-1.503-.06-.65.457-.746 1.207-.342 1.78.404.573 1.143.737 1.793.28.543-.38.734-.96.406-1.495zM124.857 195.993l.575.667-.68.586-.574-.667-.517.445 1.58 1.833.515-.445-.65-.755.68-.586.65.755.516-.445-1.58-1.833zM126.78 194.107l1.079 1.03-.005.005-1.706-.373-.482.506 1.748 1.671.443-.464-1.09-1.042.006-.004 1.717.384.483-.505-1.75-1.672zM129.741 193.585c-.27.345-.654.26-.94.038-.286-.223-.463-.574-.192-.922.27-.346.654-.26.94-.038.286.223.464.574.192.922m.228-1.46c-.554-.431-1.283-.403-1.79.244-.503.648-.35 1.362.204 1.792.552.43 1.281.403 1.787-.244.504-.648.351-1.362-.201-1.792M131.126 191.555l-1.579-1.012-.368.575 2.037 1.302 1.025-1.601-.456-.292zM132.608 189.1c-.202.392-.596.378-.918.213-.323-.167-.561-.478-.36-.87.201-.391.595-.377.918-.212.322.167.56.48.36.87m-.049-1.476c-.624-.32-1.335-.159-1.711.57-.376.73-.094 1.403.53 1.723.625.322 1.337.16 1.712-.57.376-.728.094-1.4-.53-1.723M133.104 185.953l.435.168.172-.444c.192.118.247.378.124.694-.158.409-.55.438-.888.307-.338-.131-.61-.416-.451-.827.1-.259.293-.412.496-.361l.247-.637c-.59-.165-1.048.283-1.243.789-.288.742.05 1.419.704 1.671.654.254 1.36-.02 1.647-.76.085-.22.124-.546-.03-.794l.261.056.159-.41-1.236-.477zM133.196 181.972l-.207.745.808.764-1.086.238-.207.746 1.719-.513.868.24.183-.656-.87-.241zm0 0" style="fill:#029c8a;fill-opacity:1;fill-rule:nonzero;stroke:none;stroke-width:.352778" transform="matrix(2.99252 0 0 3.0536 -215.183 -435.269)"/><path d="m105.86 182.219 4.61-15.745c1.262-.748 1.948-.833 3.67-1.055 2.333.055 3.446.167 4.613 1.166l.723-.279c-.778-.332-.993-4.103-9.252-1.864-2.402.529-6.504 2.257-6.504 2.257l-.422 1.88-4.852 15.337zm0 0" style="fill:#fff;fill-opacity:1;fill-rule:nonzero;stroke:none;stroke-width:.352778" transform="matrix(2.99252 0 0 3.0536 -215.183 -435.269)"/><path d="M105.75 179.978c-.754.333-1.507.64-2.252.916l4.671-15.643c5.87-2.025 9.039-.908 10.12 1.368 1.697 3.565-3.918 9.544-12.54 13.359m19.713-14.06c-1.69-3.554-8.578-4.176-16.758-1.958-2.586.569-9.388 3.348-9.388 3.348l2.401.243-4.852 15.337c-4.88.77-8.707.033-9.795-2.25-.607-1.282-.155-2.942 1.075-4.72-2.308 2.807-3.194 5.529-2.203 7.614 2.167 4.553 12.758 3.988 23.494-.543 11.097-4.684 18.194-12.515 16.026-17.071" style="fill:#2e3091;fill-opacity:1;fill-rule:nonzero;stroke:none;stroke-width:.352778" transform="matrix(2.99252 0 0 3.0536 -215.183 -435.269)"/><path d="m89.808 172.393.317.883.935.028-.74.572.263.9-.775-.53-.774.53.265-.9-.742-.572.936-.028zm0 0" style="fill:#eb1923;fill-opacity:1;fill-rule:nonzero;stroke:none;stroke-width:.352778" transform="matrix(2.99252 0 0 3.0536 -215.183 -435.269)"/><path d="M90.025 189.107c-.044.283-.236.355-.42.327l-.283-.044.125-.806.226.036c.315.05.392.23.352.487m-.234-.71-.623-.099-.202 1.278.623.096c.441.07.699-.172.758-.543.065-.421-.183-.675-.556-.733M91.182 189.653c-.288-.025-.377-.25-.36-.466.02-.224.147-.432.435-.408.286.025.376.25.358.476-.018.215-.145.421-.433.398m.094-1.112c-.45-.039-.741.237-.773.62-.032.372.21.692.659.73.449.038.741-.238.773-.609.031-.383-.211-.702-.659-.741M92.799 189.738c-.29-.007-.393-.226-.387-.442.005-.226.118-.44.406-.434.29.007.393.226.387.452-.005.216-.118.431-.406.424m.025-1.114c-.45-.011-.725.282-.734.665-.008.374.253.678.703.688.45.01.725-.281.733-.655.01-.384-.252-.689-.702-.698M94.964 189.518h-.004l-.282-.88-.3.01-.223.888h-.004l-.262-.87-.321.01.433 1.28.325-.012.212-.889h.004l.278.871.32-.01.347-1.307-.315.01zM96.287 189.621c-.288.025-.415-.183-.433-.396-.02-.226.069-.452.357-.479.288-.024.413.184.434.408.02.215-.07.441-.358.467m-.097-1.112c-.45.039-.69.36-.657.743.033.372.326.646.774.608.45-.04.69-.361.658-.732-.033-.383-.327-.659-.775-.619M97.976 188.34l.112.86h-.003l-.718-.782-.317.042.167 1.283.299-.039-.112-.86h.004l.714.781.32-.04-.167-1.284zM99.92 188.019l.144.792c.034.19-.022.29-.248.33-.255.046-.321-.083-.347-.222l-.144-.791-.317.057.146.791c.062.35.316.472.704.4.386-.07.585-.28.521-.623l-.144-.792zM101.356 187.721l.185.846-.004.001-.781-.716-.313.067.277 1.264.293-.065-.184-.845h.004l.778.716.315-.07-.276-1.263zM101.876 187.598l.306 1.257.311-.076-.306-1.256zM103.142 188.216h-.004l-.547-.796-.32.086.789 1.128.351-.092.137-1.374-.32.084zM104.224 188.068l-.09-.304.68-.2-.062-.212-.68.2-.078-.266.741-.217-.067-.23-1.049.307.363 1.242 1.066-.313-.069-.229zM105.661 187.137l-.334.107-.113-.346.336-.108c.138-.045.226-.016.264.103.04.124-.015.198-.153.244m.623.222c-.05-.124-.133-.235-.296-.224l-.001-.003c.138-.106.168-.234.121-.38-.06-.186-.267-.288-.518-.208l-.75.243.399 1.23.306-.1-.156-.48.306-.098c.154-.05.229-.01.292.112.047.092.084.212.143.278l.306-.1c-.077-.047-.121-.195-.151-.27M107.04 186.612c-.373.045-.443.053-.476-.04-.036-.102.063-.178.16-.212.146-.051.275-.053.336.09l.295-.104c-.1-.283-.404-.3-.692-.2-.248.088-.474.3-.386.551.08.226.313.23.534.203.219-.021.434-.076.48.058.043.124-.108.21-.214.246-.163.057-.328.044-.385-.118l-.293.103c.099.303.434.335.74.228.376-.133.514-.37.435-.593-.096-.276-.424-.227-.535-.212M107.414 185.91l.45 1.213.303-.112-.45-1.212zM109.903 184.932l-.119.6-.51-.341-.336.138.003.003-1.084.413.084.223.41-.155.377.985.3-.116-.376-.984.41-.157-.068-.176.744.49.192.465.296-.123-.189-.457.198-.944zM111.846 185.267c-.263.118-.45-.035-.54-.23-.094-.207-.084-.45.179-.568.263-.12.45.033.544.24.089.195.08.44-.183.558m-.46-1.017c-.41.186-.53.569-.372.919.153.34.52.502.93.316.41-.187.532-.57.377-.909-.158-.35-.525-.512-.935-.326M113.28 183.987l-.55.266-.13-.27.635-.306-.103-.215-.926.446.562 1.164.29-.139-.232-.482.551-.266zM114.81 182.86l-.111-.213-1.06.558.11.212.389-.204.49.933.286-.15-.491-.933zM115.596 183.355l-.156-.275.619-.347-.108-.193-.619.346-.135-.243.674-.375-.117-.21-.955.534.633 1.13.968-.542-.117-.209zM117.161 182.146c.066.16.033.318-.136.418-.247.15-.452.018-.563-.166-.117-.195-.136-.437.112-.586.135-.08.305-.067.39.03l.267-.16c-.187-.237-.505-.24-.78-.074-.385.232-.463.626-.264.955.191.321.575.44.962.207.308-.186.417-.49.28-.784zM117.914 180.726l.27.416-.498.323-.269-.418-.27.175.703 1.086.27-.175-.303-.468.498-.322.301.469.27-.175-.702-1.086zM119.126 179.895l.498.71-.003.003-1-.36-.261.183.744 1.059.247-.172-.498-.71.003-.001.996.36.264-.185-.745-1.06zM120.72 180.065c-.23.176-.449.069-.58-.104-.136-.179-.181-.417.047-.592.23-.175.448-.07.585.111.132.171.177.41-.053.585m-.678-.886c-.357.272-.388.672-.156.978.226.296.622.37.98.098.359-.273.389-.674.163-.97-.233-.305-.629-.38-.987-.106M121.667 179.276l-.67-.814-.249.205.824 1 .797-.66-.152-.184zM122.839 178.315c-.215.192-.441.102-.585-.058-.151-.17-.215-.404 0-.596.215-.193.441-.103.593.066.143.16.207.395-.008.588m-.744-.833c-.336.3-.336.702-.08.988.248.279.648.323.984.022.336-.299.336-.701.087-.98-.255-.286-.655-.33-.991-.03M123.65 176.881l.148.152.231-.226c.115.142.098.295-.053.442-.206.203-.436.123-.586-.031-.159-.162-.234-.393-.028-.594.11-.108.244-.138.374-.062l.219-.215c-.23-.188-.546-.104-.76.106-.32.315-.304.715-.035.99.262.267.661.293.984-.024a.513.513 0 0 0 .162-.407l.126.082.147-.144-.49-.499zM124.862 175.93l-.21-.943-.245.26.14.598-.607-.1-.248.264.944.149.366.344.22-.234zm0 0" style="fill:#fff;fill-opacity:1;fill-rule:nonzero;stroke:none;stroke-width:.352778" transform="matrix(2.99252 0 0 3.0536 -215.183 -435.269)"/></svg>