<svg xmlns="http://www.w3.org/2000/svg" xml:space="preserve" width="545.04248" height="545.04248" viewBox="0 0 545.04248 545.04248"><defs><clipPath id="a" clipPathUnits="userSpaceOnUse"><path d="M0 660h699V0H0Z"/></clipPath></defs><g transform="matrix(1.33333 0 0 -1.33333 -258.477 640.241)"><circle cx="398.24863" cy="-275.79001" r="204.39095" style="fill:#f9f9f9;stroke:#fff;stroke-width:0" transform="scale(1 -1)"/><g clip-path="url(#a)" transform="matrix(1.765 0 0 1.765 -193.298 -334.577)"><path d="M0 0h-43.534c-3.497 0-6.615-1.282-9.15-3.292h-.029c-2.739-2.274-4.662-5.42-5.245-9.063a18.523 18.523 0 0 1-9.033 5.391 33.704 33.704 0 0 0 1.544 3.672c.612 1.165 1.282 2.272 2.069 3.292 4.517 6.061 11.714 9.995 19.844 9.995H-7.78c-13.287 14.278-32.199 23.223-53.179 23.223h-1.312c-36.656 0-67.02-27.274-71.915-62.619h62.795a4.843 4.843 0 0 1 4.837 4.837 4.824 4.824 0 0 1-4.837 4.836H-99.54c-8.188 0-14.861 6.673-14.861 14.861 0 8.218 6.673 14.862 14.861 14.862h42.922C-60.93 7.692-64.602 4.283-67.282 0H-99.54c-2.651 0-4.808-2.186-4.808-4.837 0-2.681 2.157-4.837 4.808-4.837h14.045l14.104.029v-.029c8.217 0 14.861-6.644 14.861-14.861s-6.644-14.861-14.861-14.861h-63.494c0-9.849 1.952-19.232 5.536-27.799a72.858 72.858 0 0 1 15.095-22.874v15.764c0 15.91 12.908 28.819 28.817 28.819 6.79 0 12.997-2.361 17.921-6.265 5.304-4.226 9.092-10.257 10.403-17.163 1.748-8.567 9.325-15.007 18.416-15.007 10.403 0 18.795 8.421 18.795 18.795v25.759h-23.632a24.648 24.648 0 0 0-13.346 3.933 17.96 17.96 0 0 1 3.614 9.85c2.593-2.302 6.002-3.759 9.732-3.759h33.655v-35.783c0-15.91-12.908-28.818-28.818-28.818-6.789 0-12.996 2.359-17.921 6.264-5.303 4.225-9.091 10.257-10.402 17.163-1.749 8.567-9.325 15.007-18.417 15.007-8.45 0-15.56-5.566-17.949-13.2h25.38v-10.024h-26.225v-19.902c11.86-8.421 26.342-13.375 41.96-13.375h1.312c40.037 0 72.614 32.577 72.614 72.615A72.141 72.141 0 0 1 0 0" style="fill:#ed6d00;fill-opacity:1;fill-rule:nonzero;stroke:none" transform="translate(396.655 385.534)"/><path d="M0 0c.49-.464 1.158-.673 2.001-.631.844.044 1.486.321 1.929.833.44.513.636 1.208.591 2.088l-.054 1.065-5.326-.274.055-1.067C-.76 1.134-.492.463 0 0m-.343-2.449a4.111 4.111 0 0 0-1.742 1.6c-.433.715-.676 1.567-.726 2.559l-.183 3.521 9.32.482.184-3.52c.05-1.001-.097-1.876-.448-2.628a4.046 4.046 0 0 0-1.545-1.763c-.684-.429-1.483-.666-2.397-.712-.915-.048-1.735.104-2.463.461" style="fill:#343736;fill-opacity:1;fill-rule:nonzero;stroke:none" transform="translate(238.97 341.387)"/><path d="m0 0-9.252-1.215-.294 2.236L-.293 2.24Z" style="fill:#343736;fill-opacity:1;fill-rule:nonzero;stroke:none" transform="translate(246.297 334.848)"/><path d="M0 0c-.398-.859-1.056-1.482-1.972-1.87L-2.476.467c.294.224.501.515.627.877.125.359.139.762.042 1.211-.15.696-.506 1.205-1.064 1.526-.561.32-1.242.394-2.041.221-.869-.189-1.487-.553-1.857-1.096-.367-.545-.463-1.223-.288-2.04.113-.526.356-.953.731-1.289.372-.333.844-.523 1.411-.571l-.599 2.785 1.587.343.998-4.631-2.179-.472a4.57 4.57 0 0 0-1.663.505A4.347 4.347 0 0 0-8.194-.951C-8.605-.422-8.891.22-9.056.978c-.199.918-.175 1.765.066 2.538a4.128 4.128 0 0 0 1.302 1.949c.626.526 1.388.888 2.292 1.082.904.196 1.747.181 2.533-.039A4.141 4.141 0 0 0-.875 5.273c.54-.596.906-1.354 1.106-2.265C.477 1.863.401.862 0 0" style="fill:#343736;fill-opacity:1;fill-rule:nonzero;stroke:none" transform="translate(247.282 325.69)"/><path d="m0 0-8.933-2.71-.655 2.159 8.933 2.709z" style="fill:#343736;fill-opacity:1;fill-rule:nonzero;stroke:none" transform="translate(249.545 320.682)"/><path d="m0 0-1.677-.639-.901 2.371-7.047-2.677-.807 2.122 7.047 2.677-.891 2.344 1.68.637z" style="fill:#343736;fill-opacity:1;fill-rule:nonzero;stroke:none" transform="translate(252.485 312.563)"/><path d="m0 0 2.552 2.572-3.597-.482Zm-1.275-1.286L-2.84 1.845l-1.784-.242-1.061 2.125L4.134 4.81l1.16-2.327-6.761-7.199-1.074 2.149Z" style="fill:#343736;fill-opacity:1;fill-rule:nonzero;stroke:none" transform="translate(250.001 304.125)"/><path d="m0 0 1.588-2.557-1.47-.911-2.777 4.474 7.93 4.923L6.46 4.011Z" style="fill:#343736;fill-opacity:1;fill-rule:nonzero;stroke:none" transform="translate(252.277 296.688)"/><path d="M0 0c-.479-.061-.966.021-1.464.249s-.964.615-1.396 1.158c-.655.817-.994 1.65-1.017 2.499-.026.849.302 1.582.98 2.2l1.499-1.877c-.254-.247-.394-.517-.417-.813-.024-.293.071-.571.277-.833.182-.228.388-.356.616-.388.228-.034.445.034.65.2.186.146.293.33.322.549.026.221.008.451-.055.692-.063.241-.167.566-.309.969-.21.587-.359 1.087-.443 1.496-.086.412-.065.838.057 1.281.127.443.423.851.891 1.223.433.346.896.538 1.387.569.492.034.976-.078 1.456-.332.479-.255.92-.632 1.32-1.135.647-.81.969-1.608.967-2.395-.003-.785-.317-1.477-.944-2.077L2.855 5.142c.213.228.333.466.362.72.029.255-.052.501-.246.742-.165.207-.354.33-.563.37-.213.039-.425-.027-.64-.197a.8.8 0 0 1-.301-.521c-.029-.21-.013-.43.047-.663.064-.231.163-.556.304-.972.215-.595.365-1.1.446-1.522.081-.419.06-.851-.066-1.302-.126-.447-.425-.861-.901-1.241A2.563 2.563 0 0 0 0 0" style="fill:#343736;fill-opacity:1;fill-rule:nonzero;stroke:none" transform="translate(260.595 284.412)"/><path d="m0 0-1.417-1.348L.757-3.634-.477-4.808l-2.174 2.287-1.501-1.427 2.446-2.575-1.309-1.245-4.003 4.21L-.254 2.87l4.003-4.209-1.303-1.237z" style="fill:#343736;fill-opacity:1;fill-rule:nonzero;stroke:none" transform="translate(268.428 285.136)"/><path d="M0 0c-.644-.079-1.234-.433-1.773-1.059-.535-.621-.794-1.257-.778-1.91.013-.649.301-1.215.861-1.697.553-.477 1.156-.676 1.806-.595.646.078 1.239.43 1.773 1.051.534.62.794 1.255.778 1.907-.013.652-.301 1.218-.862 1.699C1.244-.121.642.08 0 0m4.59-1.04a4.472 4.472 0 0 0 .175-2.398c-.16-.82-.537-1.577-1.134-2.271-.597-.694-1.292-1.181-2.086-1.461a4.478 4.478 0 0 0-2.404-.186A4.74 4.74 0 0 0-3.067-6.27a4.735 4.735 0 0 0-1.407 2.02 4.51 4.51 0 0 0-.176 2.407c.16.826.537 1.586 1.135 2.28.597.694 1.288 1.181 2.079 1.459a4.529 4.529 0 0 0 2.403.181A4.713 4.713 0 0 0 3.172.987C3.84.413 4.312-.263 4.59-1.04" style="fill:#343736;fill-opacity:1;fill-rule:nonzero;stroke:none" transform="translate(273.59 278.856)"/><path d="m0 0-3.036-4.448c-.348-.508-.498-.975-.453-1.402.045-.424.285-.786.723-1.085.435-.295.859-.389 1.273-.277.411.113.791.425 1.139.933l3.037 4.448 1.865-1.273-3.039-4.449C1.014-8.278.454-8.794-.17-9.098a3.35 3.35 0 0 0-1.928-.33c-.66.083-1.299.335-1.918.757-.618.422-1.079.92-1.383 1.488-.304.571-.419 1.197-.346 1.883.074.685.359 1.392.854 2.117l3.039 4.449z" style="fill:#343736;fill-opacity:1;fill-rule:nonzero;stroke:none" transform="translate(283.28 274.544)"/><path d="m0 0 2.627-1.467-.843-1.512-4.597 2.571 4.55 8.146 1.97-1.099z" style="fill:#343736;fill-opacity:1;fill-rule:nonzero;stroke:none" transform="translate(287.653 262.81)"/><path d="M0 0c.492-.87.647-1.84.466-2.913l-2.221.882a2.186 2.186 0 0 1-.378 1.248c-.246.363-.605.638-1.071.824-.613.244-1.197.215-1.753-.084-.555-.301-.982-.824-1.281-1.576-.301-.755-.35-1.428-.152-2.023.2-.594.606-1.016 1.219-1.259.463-.187.911-.232 1.344-.139a2.22 2.22 0 0 1 1.126.631l2.219-.883c-.605-.896-1.384-1.493-2.339-1.789-.959-.296-1.989-.226-3.092.215-.843.335-1.509.817-1.996 1.443a4.098 4.098 0 0 0-.857 2.153c-.078.807.053 1.643.393 2.499.343.86.823 1.554 1.436 2.085a4.076 4.076 0 0 0 2.101.975c.786.118 1.601.011 2.441-.325C-1.289 1.524-.493.869 0 0" style="fill:#343736;fill-opacity:1;fill-rule:nonzero;stroke:none" transform="translate(304.424 262.502)"/><path d="m0 0-1.431-5.191c-.162-.595-.154-1.088.027-1.473.18-.388.526-.652 1.034-.794.508-.139.941-.089 1.294.152.354.239.613.658.776 1.25L3.13-.861l2.177-.6-1.431-5.192c-.232-.849-.594-1.52-1.086-2.01a3.363 3.363 0 0 0-1.716-.938c-.653-.133-1.342-.102-2.062.098-.72.198-1.318.518-1.789.958-.474.44-.786.996-.938 1.666-.152.674-.113 1.433.121 2.281l1.43 5.193z" style="fill:#343736;fill-opacity:1;fill-rule:nonzero;stroke:none" transform="translate(309.685 261.702)"/><path d="m0 0 2.96-.534-.306-1.702-5.182.932 1.651 9.187 2.221-.402Z" style="fill:#343736;fill-opacity:1;fill-rule:nonzero;stroke:none" transform="translate(317.656 252.025)"/><path d="m0 0-.173-1.787-2.523.244-.722-7.503-2.261.218.722 7.502-2.496.241.173 1.787z" style="fill:#343736;fill-opacity:1;fill-rule:nonzero;stroke:none" transform="translate(330.015 258.135)"/><path d="m0 0 .086-5.386c.011-.615.158-1.084.44-1.406.281-.32.687-.478 1.216-.467.527.008.927.176 1.2.506.27.33.401.805.393 1.42L3.246.054 5.504.09l.087-5.386c.015-.881-.145-1.625-.48-2.232a3.351 3.351 0 0 0-1.383-1.383c-.59-.313-1.258-.475-2.004-.487-.749-.014-1.412.126-1.989.416a3.193 3.193 0 0 0-1.367 1.338c-.335.6-.511 1.342-.524 2.222l-.089 5.386z" style="fill:#343736;fill-opacity:1;fill-rule:nonzero;stroke:none" transform="translate(333.416 258.045)"/><path d="m0 0 1.391.139c.445.047.765.177.956.395.189.22.265.521.225.906-.036.367-.173.645-.408.833-.236.189-.574.262-1.012.217l-1.39-.14Zm3.031-4.789L.665-1.486l-.511-.052.354-3.505-2.245-.228-.938 9.284 3.836.387c.733.077 1.367.011 1.902-.191.534-.201.95-.513 1.249-.93.298-.416.477-.909.535-1.477.068-.674-.061-1.266-.386-1.777-.325-.51-.833-.89-1.524-1.136l2.574-3.427z" style="fill:#343736;fill-opacity:1;fill-rule:nonzero;stroke:none" transform="translate(343.404 254.169)"/><path d="m0 0 .369-1.918 3.099.6.323-1.671-3.097-.6.395-2.036 3.485.676.345-1.776-5.702-1.103-1.777 9.161 5.703 1.105.341-1.762z" style="fill:#343736;fill-opacity:1;fill-rule:nonzero;stroke:none" transform="translate(351.973 257.847)"/><path d="m0 0-2.192 2.885-.024-3.629zm1.096-1.443-3.317-1.114-.008-1.799-2.252-.754.293 9.873 2.465.828 6.19-7.699-2.279-.766z" style="fill:#343736;fill-opacity:1;fill-rule:nonzero;stroke:none" transform="translate(366.485 257.464)"/><path d="m0 0 1.273.579c.41.19.665.414.776.682.11.269.086.578-.076.931-.152.336-.372.556-.655.659-.286.102-.626.062-1.027-.121l-1.273-.582Zm4.409-3.56L1.108-1.191l-.465-.215 1.461-3.206L.05-5.551l-3.874 8.49L-.319 4.54c.673.31 1.294.451 1.865.433.571-.021 1.063-.181 1.48-.48a3.03 3.03 0 0 0 .983-1.225c.28-.62.35-1.222.206-1.809-.141-.586-.5-1.107-1.076-1.566l3.542-2.415z" style="fill:#343736;fill-opacity:1;fill-rule:nonzero;stroke:none" transform="translate(372.856 261.752)"/><path d="m0 0 .896-1.558-2.198-1.263 3.754-6.533-1.968-1.132-3.756 6.534-2.174-1.25-.894 1.558z" style="fill:#343736;fill-opacity:1;fill-rule:nonzero;stroke:none" transform="translate(382.73 271.751)"/><path d="M0 0c.031-.481-.081-.964-.341-1.445-.257-.483-.67-.923-1.241-1.324-.856-.599-1.708-.887-2.557-.859-.849.029-1.561.401-2.134 1.113l1.963 1.381c.234-.267.493-.422.787-.464.293-.042.576.032.851.226.236.165.38.361.424.587.048.227-.008.447-.156.662a.82.82 0 0 1-.533.354c-.217.041-.448.04-.694-.01a13.143 13.143 0 0 1-.984-.249 11.853 11.853 0 0 0-1.523-.349 2.66 2.66 0 0 0-1.273.139c-.435.152-.825.471-1.168.962-.317.456-.48.926-.48 1.422-.003.493.139.969.422 1.433.283.461.687.875 1.213 1.244.852.597 1.666.869 2.451.818.784-.053 1.455-.41 2.016-1.07l-1.999-1.403c-.213.228-.445.363-.697.408-.251.042-.503-.023-.754-.199-.218-.151-.352-.333-.404-.542-.052-.21 0-.425.158-.647a.78.78 0 0 1 .5-.335c.207-.042.429-.04.665.007.236.047.566.128.99.244.605.178 1.121.293 1.543.348a2.77 2.77 0 0 0 1.297-.146c.44-.152.836-.477 1.184-.975C-.191.928-.034.485 0 0" style="fill:#343736;fill-opacity:1;fill-rule:nonzero;stroke:none" transform="translate(393.594 269.475)"/><path d="m0 0 3.651-3.959c.42-.452.841-.704 1.266-.754.425-.053.83.103 1.219.458.387.359.573.752.557 1.18-.018.427-.236.867-.652 1.32L2.387 2.203l1.66 1.53L7.699-.226c.598-.647.972-1.306 1.129-1.982a3.344 3.344 0 0 0-.109-1.952c-.231-.626-.622-1.194-1.172-1.7-.55-.508-1.137-.846-1.76-1.014-.624-.168-1.26-.139-1.912.086-.65.226-1.273.661-1.871 1.308l-3.651 3.958z" style="fill:#343736;fill-opacity:1;fill-rule:nonzero;stroke:none" transform="translate(394.584 280.742)"/><path d="m0 0-1.485-1.7-6.798.922 4.313-3.767-1.482-1.7-7.031 6.138 1.485 1.7L-4.16.634l-4.357 3.803 1.486 1.701z" style="fill:#343736;fill-opacity:1;fill-rule:nonzero;stroke:none" transform="translate(412.346 285.824)"/><path d="m0 0 7.498-5.559-1.345-1.812-7.497 5.559Z" style="fill:#343736;fill-opacity:1;fill-rule:nonzero;stroke:none" transform="translate(407.776 295.36)"/><path d="m0 0 7.162-1.797-4.736 5.666L3.71 5.915l6.182-7.707-1.551-2.473-9.624 2.219Z" style="fill:#343736;fill-opacity:1;fill-rule:nonzero;stroke:none" transform="translate(409.856 298.322)"/><path d="m0 0 1.747-.875 1.409 2.824 1.525-.762-1.41-2.822 1.852-.928L6.711.615 8.33-.193 5.734-5.389l-8.348 4.171 2.595 5.197 1.606-.804Z" style="fill:#343736;fill-opacity:1;fill-rule:nonzero;stroke:none" transform="translate(416.691 306.55)"/><path d="m0 0 .509 1.302c.165.419.193.762.087 1.029-.109.271-.344.475-.702.616-.346.134-.656.142-.931.016-.275-.123-.492-.391-.654-.799L-2.2.859Zm5.644.511L1.625-.084l-.187-.479L4.722-1.85l-.826-2.1-8.689 3.402 1.404 3.589c.27.689.616 1.224 1.039 1.606.425.382.891.611 1.397.686.509.076 1.027.009 1.558-.198.632-.247 1.101-.632 1.408-1.153.306-.521.411-1.148.314-1.876l4.225.728z" style="fill:#343736;fill-opacity:1;fill-rule:nonzero;stroke:none" transform="translate(422.121 312.516)"/><path d="M0 0c.328-.354.545-.801.647-1.338.102-.538.058-1.14-.13-1.808-.288-1.008-.771-1.765-1.45-2.279-.675-.511-1.462-.671-2.36-.479l.66 2.31c.349-.062.65-.018.904.134.254.151.427.39.519.71.078.28.065.521-.042.726-.104.204-.286.342-.54.416a.812.812 0 0 1-.634-.061 1.784 1.784 0 0 1-.531-.445c-.16-.191-.364-.463-.611-.815-.356-.51-.678-.919-.961-1.228a2.67 2.67 0 0 0-1.077-.695c-.435-.154-.938-.151-1.514.014-.534.151-.956.419-1.268.802a2.693 2.693 0 0 0-.574 1.378c-.07.537-.018 1.115.157 1.734.286.997.749 1.723 1.392 2.177.642.453 1.388.597 2.24.437l-.672-2.347c-.308.042-.573 0-.796-.123-.222-.123-.377-.335-.461-.632-.073-.254-.065-.477.027-.673.092-.193.266-.33.529-.403a.784.784 0 0 1 .6.054c.188.098.358.239.51.422.155.187.36.456.619.815.359.518.683.932.979 1.242.294.311.66.545 1.098.702.44.159.951.154 1.535-.011C-.73.601-.33.356 0 0" style="fill:#343736;fill-opacity:1;fill-rule:nonzero;stroke:none" transform="translate(429.889 323.94)"/><path d="m0 0 9.132-1.92-.464-2.208-9.132 1.917Z" style="fill:#343736;fill-opacity:1;fill-rule:nonzero;stroke:none" transform="translate(423.02 330.376)"/><path d="m0 0 1.779-.249-.35-2.509 7.466-1.04-.315-2.251-7.464 1.043-.347-2.487-1.777.249Z" style="fill:#343736;fill-opacity:1;fill-rule:nonzero;stroke:none" transform="translate(424.34 338.89)"/><path d="m0 0 6.088-3.5 3.1-.131-.098-2.268-3.099.13-6.366-2.962.112 2.585 3.875 1.629L-.11-2.56z" style="fill:#343736;fill-opacity:1;fill-rule:nonzero;stroke:none" transform="translate(424.802 348.206)"/><path d="m0 0 .73 2.2 13.746-4.566-.728-2.2zm13.03-6.72-2.526-7.607-13.747 4.566 2.528 7.608 1.985-.661-1.797-5.407 9.701-3.222 1.794 5.407z" style="fill:#343736;fill-opacity:1;fill-rule:nonzero;stroke:none" transform="translate(239.905 383.938)"/><path d="m0 0 1.208 1.975L13.567-5.58l-1.208-1.978Zm-5.465-8.94 4.406 7.209L.728-2.824-.631-5.048l11.932-4.239-1.276-2.088L.862-7.849l7.324-6.533-1.275-2.088-9.214 8.69-1.378-2.253z" style="fill:#343736;fill-opacity:1;fill-rule:nonzero;stroke:none" transform="translate(250.368 404.438)"/><path d="m0 0 1.488 1.519-1.702 1.667 1.621 1.655L6.351-.003 4.729-1.658 2.981.055 1.497-1.464Zm12.215-5.745-8.817-9.004-3.393 3.322 7.197 7.348-.438.427-7.196-7.346-1.459 1.429L6.926-.566l3.369-3.298L3.1-11.212l.458-.451 7.198 7.348zM3.141-3.28l-5.608-5.726-4.944 4.843 5.609 5.727L-.469.256l-3.987-4.07.425-.416L-.505-.631.852-1.959l-3.526-3.6.437-.427L1.75-1.915z" style="fill:#343736;fill-opacity:1;fill-rule:nonzero;stroke:none" transform="translate(265.404 418.904)"/><path d="m0 0 2.345 1.503L-.759 6.34l1.951 1.252L9.015-4.6 7.063-5.853 3.474-.256 1.129-1.76Zm-3.408-1.097 3.739-9.075-2.06-1.32-5.262 13.834 1.965 1.26L5.358-6.947 3.299-8.268Z" style="fill:#343736;fill-opacity:1;fill-rule:nonzero;stroke:none" transform="translate(284.281 429.587)"/><path d="M0 0c.262.094.44.191.537.293.094.103.115.226.066.367C.542.83.438.922.291.932.145.943-.049.906-.291.82l-5.2-1.855c-.243-.086-.419-.18-.524-.28-.107-.1-.131-.236-.068-.409.05-.141.145-.223.283-.241.136-.018.339.018.6.113zm-7.943-5.564L4.488-1.135l.675-1.893L.04-4.854l.228-.639 4.364 1.558L6.135-8.15l-8.734-3.115.189-.529 8.734 3.113.66-1.85-10.916-3.89-1.514 4.244 8.734 3.112-.178.5-8.735-3.112-.66 1.849 4.368 1.556-.226.637-5.126-1.826zM-4.37-3.66a9.072 9.072 0 0 0-1.178-.333 2.89 2.89 0 0 0-1.106-.036c-.346.06-.658.204-.932.437-.278.231-.501.585-.671 1.059-.165.466-.215.877-.149 1.236.065.362.212.681.435.959.225.28.511.519.856.715.346.197.721.37 1.124.514l4.867 1.734c.404.144.805.249 1.195.314a2.98 2.98 0 0 0 1.116-.013c.351-.073.666-.231.943-.466.278-.236.5-.587.665-1.053.171-.475.223-.891.155-1.245a1.953 1.953 0 0 0-.448-.927 2.963 2.963 0 0 0-.877-.673 8.851 8.851 0 0 0-1.127-.485Z" style="fill:#343736;fill-opacity:1;fill-rule:nonzero;stroke:none" transform="translate(304.602 442.308)"/><path d="m0 0 6.908.786-.191 1.679-6.908-.786Zm10.504-10.306-11.515-1.31-.637 5.595 2.303.263.401-3.518 9.21 1.05zM-2.722 3.416l11.514 1.31.657-5.756-11.516-1.312Zm-.052-6.649L10.339-1.74l.236-2.077-5.404-.616.328-2.879-2.303-.262-.328 2.879-5.407-.616Z" style="fill:#343736;fill-opacity:1;fill-rule:nonzero;stroke:none" transform="translate(320.459 445.198)"/><path d="m0 0 2.303-.262-.644-5.708 1.823-.207-.236-2.08-1.823.207-.747-6.604-2.302.259zm-5.729-7.55c.181-.021.349-.018.503.008a.92.92 0 0 1 .409.173c.118.089.215.215.294.38.078.165.133.38.162.647.031.285.026.524-.016.713a1.124 1.124 0 0 1-.215.463.96.96 0 0 1-.359.267 1.633 1.633 0 0 1-.466.115l-.733.084a1.361 1.361 0 0 1-.907-.188c-.259-.165-.422-.529-.487-1.095a2.112 2.112 0 0 1 .013-.666.934.934 0 0 1 .579-.697 1.8 1.8 0 0 1 .487-.12zM-9.428.417-6.373.07l.144 1.282 2.302-.262-.144-1.279 3.039-.343-.236-2.08-8.396.948zm-1.433-11.664 3.167-.356.249 2.19a4.317 4.317 0 0 0-1.024.344 2.375 2.375 0 0 0-.825.652c-.226.278-.393.634-.5 1.069-.11.432-.129.964-.056 1.592.079.715.247 1.287.501 1.716.254.433.56.758.922.983.359.223.752.361 1.179.416.43.056.856.058 1.281.011l.801-.092a5.408 5.408 0 0 0 1.245-.293c.406-.15.757-.372 1.058-.671.301-.299.532-.687.687-1.163.157-.477.196-1.071.114-1.787-.07-.618-.201-1.121-.397-1.509a2.743 2.743 0 0 0-.713-.924 2.285 2.285 0 0 0-.925-.464 4.822 4.822 0 0 0-1.043-.123l-.251-2.209 3.167-.356-.235-2.08-8.635.977z" style="fill:#343736;fill-opacity:1;fill-rule:nonzero;stroke:none" transform="translate(349.259 448.967)"/><path d="m0 0 2.183-.776-4.841-13.651-2.185.776zm-6.854-6.756 1.015-.362 1.244 3.505-1.015.362zm-4.408-.674a6.886 6.886 0 0 1-.259-.883 1.643 1.643 0 0 1-.04-.565.535.535 0 0 1 .159-.33.948.948 0 0 1 .332-.186.878.878 0 0 1 .356-.058c.105.008.21.063.315.162.102.1.207.257.311.469.103.215.218.498.344.852l2.357 6.643c.126.353.215.647.27.88.053.231.071.417.053.561a.522.522 0 0 1-.142.322.87.87 0 0 1-.312.181c-.141.05-.267.071-.378.066a.566.566 0 0 1-.329-.158C-8.332.43-8.442.272-8.553.062a7.385 7.385 0 0 1-.35-.848Zm4.724-1.658-1.017.359a9.968 9.968 0 0 0-.591-1.284 3.444 3.444 0 0 0-.818-1.008 2.313 2.313 0 0 0-1.16-.5c-.451-.069-.99.007-1.616.23-.69.244-1.19.547-1.507.909-.315.364-.511.76-.584 1.19-.076.431-.058.885.055 1.364.113.477.254.953.422 1.431L-11.18-.27c.167.474.359.935.574 1.375.214.443.484.807.815 1.095.329.288.73.472 1.204.555.475.081 1.054.003 1.742-.24.525-.189.938-.417 1.242-.689.301-.273.516-.574.645-.904.125-.33.183-.679.165-1.048a6.398 6.398 0 0 0-.165-1.14l1.063-.375.951 2.685L-.759.27l-4.842-13.654-2.184.776z" style="fill:#343736;fill-opacity:1;fill-rule:nonzero;stroke:none" transform="translate(372.4 442.872)"/><path d="m0 0 2.698-1.724 4.04.875.911-4.042 2.699-1.724L8.758.131 6.793 1.388zm-.686-.267 11.118-7.11L9.35-9.072 4.766-6.14l-.365-.571 3.906-2.497-2.411-3.77-7.811 4.996-.304-.474 7.812-4.996-1.058-1.655-9.764 6.245L-2.8-5.066l7.809-4.996.288.448-7.812 4.996 1.059 1.653 3.905-2.496.364.567-4.584 2.932z" style="fill:#343736;fill-opacity:1;fill-rule:nonzero;stroke:none" transform="translate(381.776 433.247)"/><path d="m0 0 1.624-1.653-4.098-4.027.565-.573 4.098 4.026 1.624-1.652-10.334-10.152-1.624 1.653 4.742 4.658-.563.574-4.742-4.658-1.624 1.653zm-10.977-9.496-4.375 4.456L-5.02 5.111-.642.655-2.135-.812l-2.751 2.803-7.293-7.162 2.753-2.803z" style="fill:#343736;fill-opacity:1;fill-rule:nonzero;stroke:none" transform="translate(407.821 419.093)"/><path d="m0 0 1.213-1.976-2.759-1.691.959-1.564-1.781-1.093-.962 1.564-2.73-1.677-1.21 1.976zm-5.522 7.772 1.608-2.619 1.096.673 1.212-1.975-1.098-.676L-1.103.568-2.887-.524l-4.42 7.201zM-7.797.335c.286-.466.595-.6.926-.396.198.123.298.268.296.438-.003.168-.071.361-.204.581l-.993 1.62c-.137.217-.279.366-.427.445-.15.079-.323.058-.525-.065-.33-.202-.35-.538-.065-1.004Zm-2.672.419a8.21 8.21 0 0 0-.565 1.087c-.157.37-.238.734-.241 1.09-.005.354.091.7.288 1.035.196.335.54.652 1.024.949.466.287.896.445 1.294.473.398.031.76-.034 1.09-.191.33-.155.629-.382.896-.676.27-.295.516-.626.742-.99l.84-1.373c.226-.366.407-.736.548-1.108.141-.371.207-.741.199-1.105a2.127 2.127 0 0 0-.325-1.058c-.207-.341-.542-.656-1.008-.941-.485-.299-.922-.458-1.31-.482a1.977 1.977 0 0 0-1.056.212 2.868 2.868 0 0 0-.859.707c-.26.31-.498.642-.716.998zm-2.362 2.308 6.085-9.918-4.938-3.031-1.212 1.976 3.156 1.935-4.872 7.943z" style="fill:#343736;fill-opacity:1;fill-rule:nonzero;stroke:none" transform="translate(423.028 399.024)"/><path d="m0 0-2.937 8.794 1.911.637 3.67-10.993-9.68-3.232-.734 2.201zm-13.038 6.269.731-2.182 6.395 2.135.736-2.199-6.397-2.137.5-1.495 6.394 2.137.737-2.198-6.398-2.137 1.484-4.443-1.984-.663-4.181 12.519z" style="fill:#343736;fill-opacity:1;fill-rule:nonzero;stroke:none" transform="translate(430.499 376.605)"/><path d="M0 0a4.247 4.247 0 1 0-8.495-.001A4.247 4.247 0 0 0 0 0" style="fill:#343736;fill-opacity:1;fill-rule:nonzero;stroke:none" transform="translate(245.935 358.879)"/><path d="M0 0a4.247 4.247 0 1 0-8.495-.001A4.247 4.247 0 0 0 0 0" style="fill:#343736;fill-opacity:1;fill-rule:nonzero;stroke:none" transform="translate(433.353 358.879)"/><path d="M0 0c-61.082 0-110.777-49.695-110.777-110.777S-61.082-221.553 0-221.553h1.302c61.085 0 110.779 49.694 110.779 110.776C112.081-49.695 62.387 0 1.302 0Zm1.302-222.894H0c-61.821 0-112.118 50.297-112.118 112.117C-112.118-48.956-61.821 1.341 0 1.341h1.302c61.823 0 112.12-50.297 112.12-112.118 0-61.82-50.297-112.117-112.12-112.117" style="fill:#343736;fill-opacity:1;fill-rule:nonzero;stroke:none" transform="translate(334.388 456.913)"/></g></g></svg>