<svg xmlns="http://www.w3.org/2000/svg" width="223.27475mm" height="223.27611mm" viewBox="0 0 223.27475 223.27611"><path d="M-22.424 403.416c0 40.189 32.58 72.77 72.77 72.77 40.191 0 72.771-32.581 72.771-72.77 0-40.191-32.58-72.772-72.771-72.772-40.19 0-72.77 32.58-72.77 72.772z" style="fill:#254aa5;fill-opacity:1;fill-rule:nonzero;stroke:none" transform="matrix(1.5133 0 0 -1.5133 35.448 722.126)"/><path d="M-23.424 403.416c0-40.679 33.093-73.772 73.77-73.772 40.677 0 73.771 33.093 73.771 73.771s-33.094 73.771-73.771 73.771-73.77-33.093-73.77-73.77m2 0c0 39.574 32.195 71.77 71.77 71.77 39.574 0 71.771-32.196 71.771-71.77 0-39.576-32.197-71.772-71.771-71.772-39.575 0-71.77 32.196-71.77 71.772z" style="fill:#b3b0ae;fill-opacity:1;fill-rule:nonzero;stroke:none" transform="matrix(1.5133 0 0 -1.5133 35.448 722.126)"/><path d="M1.374 403.187c0 27.003 21.89 48.893 48.894 48.893 27.003 0 48.893-21.89 48.893-48.893s-21.89-48.894-48.893-48.894c-27.004 0-48.894 21.89-48.894 48.894z" style="fill:#4dc5e1;fill-opacity:1;fill-rule:nonzero;stroke:none" transform="matrix(1.5133 0 0 -1.5133 35.448 722.126)"/><path d="M.374 403.187c0-27.511 22.382-49.894 49.894-49.894 27.51 0 49.893 22.383 49.893 49.894S77.779 453.08 50.268 453.08c-27.512 0-49.894-22.382-49.894-49.893m2 0c0 26.408 21.485 47.893 47.894 47.893 26.408 0 47.893-21.485 47.893-47.893 0-26.409-21.485-47.894-47.893-47.894-26.41 0-47.894 21.485-47.894 47.894z" style="fill:#b3b0ae;fill-opacity:1;fill-rule:nonzero;stroke:none" transform="matrix(1.5133 0 0 -1.5133 35.448 722.126)"/><path d="M92.889 405.046c-2.262 6.757 1.717 12.716 1.717 12.716s-6.721 2.481-8.863 9.277c-2.142 6.796-2.218 9.86-6.13 9.968 0 0-1.185.207-2.66-1.322-1.475-1.532-4.948-6.208-4.948-6.208s-1.2-1.77-2.227-1.644c-1.027.127-.926.224-1.36.544l-.098-.066.055.189c-.438.313-.5.188-.938 1.125-.437.938.875 2.625.875 2.625s3.375 4.75 4.375 6.625.438 2.938.438 2.938c-1.313 3.687-4.25 2.812-11.375 2.75-7.125-.063-11.563 5.562-11.563 5.562s-4.437-5.625-11.562-5.562c-7.125.062-10.063.937-11.375-2.75 0 0-.563-1.063.437-2.938 1-1.875 4.375-6.625 4.375-6.625s1.313-1.687.875-2.625c-.437-.938-.5-.813-.937-1.125l.033-.115-.164.111c-.433-.32-.333-.418-1.36-.544-1.027-.126-2.226 1.644-2.226 1.644s-3.474 4.677-4.948 6.208c-1.475 1.53-2.66 1.323-2.66 1.323-3.911-.108-3.988-3.172-6.13-9.968-2.142-6.796-8.862-9.278-8.862-9.278s3.978-5.958 1.716-12.716c-2.26-6.756-4-9.28-.899-11.667 0 0 .837-.863 2.929-.492 2.092.371 7.653 2.114 7.653 2.114s2.01.727 2.767.02c.757-.705.618-.726.78-1.239l.119-.004-.156-.122c.17-.51.295-.445.098-1.46-.198-1.016-2.251-1.61-2.251-1.61s-5.523-1.86-7.434-2.787c-1.911-.93-2.081-2.121-2.081-2.121-1.105-3.754 1.785-4.774 7.587-8.91 5.8-4.137 6.085-11.296 6.085-11.296s6.895 1.942 12.623-2.297c5.727-4.238 7.59-6.673 10.818-4.461 0 0 1.08.53 1.374 2.634.293 2.105.355 7.931.355 7.931s-.07 2.137.835 2.638c.905.501.881.363 1.42.358l.04.112.067-.186c.538.006.516.144 1.42-.357.905-.502.835-2.639.835-2.639s.062-5.826.353-7.931c.294-2.105 1.375-2.634 1.375-2.634 3.229-2.21 5.091.222 10.818 4.462 5.727 4.238 12.624 2.297 12.624 2.297s.283 7.158 6.085 11.294c5.8 4.138 8.692 5.157 7.586 8.91 0 0-.17 1.192-2.08 2.122-1.913.93-7.434 2.788-7.434 2.788s-2.055.594-2.251 1.61c-.197 1.015-.073.95.098 1.46l-.093.072.197.007c.16.514.023.535.778 1.24.757.706 2.768-.021 2.768-.021s5.56-1.74 7.652-2.115c2.092-.37 2.93.494 2.93.494 3.1 2.388 1.361 4.91-.9 11.667z" style="fill:#fff;fill-opacity:1;fill-rule:nonzero;stroke:none" transform="matrix(1.5133 0 0 -1.5133 35.448 722.126)"/><path d="M65.724 428.078c-8.218 3.938-15.41-4.965-15.41-4.965s-7.191 8.903-15.41 4.965c-8.217-3.938-10.786-11.814-10.1-19.005.684-7.19 4.109-16.094 9.93-23.114s14.637-12.277 15.417-12.93c.78.653 9.923 5.91 15.744 12.93s9.246 15.923 9.93 23.114c.686 7.191-1.883 15.067-10.1 19.005z" style="fill:#ed0e58;fill-opacity:1;fill-rule:nonzero;stroke:none" transform="matrix(1.5133 0 0 -1.5133 35.448 722.126)"/><path d="M50.315 424.08c-1.762 1.894-8.317 8.118-15.691 4.584-7.39-3.54-11.303-10.888-10.468-19.652.751-7.886 4.613-16.878 10.077-23.468 4.892-5.898 11.884-10.576 14.516-12.337l1.348-.927.472.25 1.054.705c2.71 1.763 9.908 6.444 14.773 12.309 5.464 6.59 9.326 15.582 10.077 23.468.835 8.764-3.078 16.112-10.468 19.652-7.374 3.534-13.93-2.69-15.69-4.584m.505-1.375c.069.085 6.972 8.453 14.623 4.787 6.263-3 9.84-8.96 9.84-16.191 0-.71-.034-1.433-.104-2.166-.728-7.64-4.477-16.362-9.784-22.761-4.739-5.714-11.816-10.316-14.48-12.049l-.759-.512-.685.475c-2.589 1.731-9.466 6.333-14.237 12.086-5.307 6.4-9.056 15.121-9.784 22.76-.07.734-.104 1.456-.104 2.167 0 7.232 3.577 13.19 9.84 16.191 7.651 3.666 14.554-4.702 14.623-4.787l.505-.624z" style="fill:#231f20;fill-opacity:1;fill-rule:nonzero;stroke:none" transform="matrix(1.5133 0 0 -1.5133 35.448 722.126)"/><path d="M47.5 420.25V412h-8.75v-5.5h8.75v-26h5.25v26h8.75v5.5h-8.75v8.25z" style="fill:#fdde34;fill-opacity:1;fill-rule:nonzero;stroke:none" transform="matrix(1.5133 0 0 -1.5133 35.448 722.126)"/><path d="M47.5 420.9a.65.65 0 0 1-.65-.65v-7.6h-8.1a.65.65 0 0 1-.65-.65v-5.5a.65.65 0 0 1 .65-.65h8.1V380.5c0-.36.291-.65.65-.65h5.25a.65.65 0 0 1 .65.65v25.35h8.1a.65.65 0 0 1 .65.65v5.5a.65.65 0 0 1-.65.65h-8.1v7.6a.65.65 0 0 1-.65.65H47.5m4.6-1.3V412a.65.65 0 0 1 .65-.65h8.1v-4.2h-8.1a.65.65 0 0 1-.65-.65v-25.35h-3.95v25.35a.65.65 0 0 1-.65.65h-8.1v4.2h8.1a.65.65 0 0 1 .65.65v7.6h3.95z" style="fill:#231f20;fill-opacity:1;fill-rule:nonzero;stroke:none" transform="matrix(1.5133 0 0 -1.5133 35.448 722.126)"/><path d="m-7.074 443.343 4.686-2.551-6.15-12.226 2.05-1.003 6.282 12.49 1.285-.834-6.53-13.339s-1.321-2.733-3.038-1.758l-1.646.83s-1.007.804-1.464-.466l-.764.385 6.891 13.33-1.874 1.07-6.89-13.33-1.47.613zM-5.99 420.353l9.664 18.973 1.304-.663-3.916-7.804 3.873-1.972-1.996-3.805-3.873 1.971-3.752-7.364zM5.192 456.21l10.877 5.703.506-1.014-6.536-3.605 1.37-2.506 4.875 2.62.655-1.31-4.82-2.638 1.836-3.69 7.204 3.854s1.828.875 2.328 2.11l-1.457 2.992-3.158-1.657-.696 1.138 3.201 1.82-2.186 3.93s-.207.3-1.379-.147l-.403.742 4.151 2.25L30 451.687l-3.094-1.628-2.633 4.517s-2.074-2.226-3.88-3.207l-7.345-3.985s-1.919-.642-2.726.846l-3.595 6.625s-.372 1.282-1.383.864zM37.463 471.006l8.468.027v-1.8l-3.724-.026v-7.885h4.331s1.413-.078 2.206.583l.02 9.037s-.045 1.051-1.719.952v.858h5.522v-4.498h1.772v2.7s.092 1.04-.639 1.085l.018.713h4.37v-17.197h-3.703v11.396h-1.818v-11.396h-3.823l.02 5.562s-1.096-1.325-2.526-1.327l-6.694.045s-1.199-.135-1.199 1.19l-.024 8.533s.024.653-.858.733zM86.24 460.852l-4.4 2.384.984 1.777-4.065 2.289-.356-.72s.648-.348.436-.728l-.442-.719-4.078 2.235-.82-1.48 2.313-1.255s-4.485-.776-2.43-4.788c0 0 2.406-4.118 7.107-3.828 0 0 4.47.478 2.611 4.576l2.319-1.223.82 1.48m-9.01-2.253c-.729.401-1.51 1.379-.666 2.901.983 1.776 2.75.875 2.75.875s1.609-1.037.624-2.813c-.844-1.522-2.089-1.303-2.708-.963z" style="fill:#fff;fill-opacity:1;fill-rule:nonzero;stroke:none" transform="matrix(1.5133 0 0 -1.5133 35.448 722.126)"/><path d="m87.778 461.755 4.334-2.352-2.021-3.73 1.534-.923-.64-1.26-1.643.901-1.947-3.597s-.372-.802-1.6-.723l.926-.508-2.745-5.01-3.391 1.858 1.896 3.461-9.694 5.377.85 1.549 9.231-5.123s.462-.254.91.567l4.27 7.833s.452.675-.486 1.175zM104.442 444.754l-1.423-.87 8.393-13.746-6.607-4.044s-.942-.597-1.904-.177l-1.08 1.663 5.896 3.61-2.51 4.236-.586-.4s.468-.968.07-1.211l-4.87-2.939-1.34 2.293 5.896 3.609-2.538 4.144-.65-.4s.583-.946.144-1.214l-4.808-2.94-1.943 3.174-1.421-.87 11.144-18.205 1.421.87-1.172 1.916s1.485-.736 2.489-.123l7.736 4.736z" style="fill:#fff;fill-opacity:1;fill-rule:nonzero;stroke:none" transform="matrix(1.5133 0 0 -1.5133 35.448 722.126)"/><path d="M38.62 433.29c.92-.04.902.395.902 1.446v4.34c0 1.052.018 1.491-.903 1.453v.627h2.907c.939 0 2.023-.106 2.752-.94.757-.885.873-2.193.873-3.515 0-1.182-.242-2.197-.904-3.004-.682-.822-1.648-1.066-2.54-1.04-.507.012-1.04-.008-1.549.005-.518-.013-1.021.007-1.539-.005v.632m2.642 1.93c0-.385-.008-1.398.053-1.576.168-.497.69-.327.998-.166.715.377.882 1.748.882 3.3 0 .861.12 2.138-.206 2.793-.277.556-.615.848-1.305.981-.076.014-.317-.026-.384-.115-.038-.052-.038-.231-.038-.309zM46.961 433.352c.94.125.779.333.779 1.384v4.34c0 1.052.161 1.265-.779 1.39v.628c.547-.013 1.085.024 1.63.011 1.172.013 2.365-.074 3.535-.061l.063-1.99h-.54c-.162 1.27-.582 1.511-1.502 1.511-.116 0-.482 0-.54-.14-.028-.065-.028-.63-.028-.733v-2.161c1.327-.02 1.245-.21 1.265 1.174h.7c-.01-.591-.029-1.182-.038-1.774.01-.526.028-.94.038-1.466h-.658c0 1.543.041 1.293-1.307 1.293v-1.533c0-1.208-.283-1.926 1.08-1.873.805.03 1.03.336 1.27 1.786l.633-.003c-.061-.592-.08-.9-.107-1.386-.03-.533-.072-.709-.061-1.056-1.324.014-2.478.002-3.803.015-.545-.013-1.083.025-1.63.012v.632zM54.556 436.893c0 2.748 1.29 4.233 3.217 4.233 1.937 0 3.247-1.499 3.247-4.233 0-2.735-1.275-4.169-3.048-4.169-2.15 0-3.416 1.46-3.416 4.17m1.905.05c.02-1.869.083-3.53 1.342-3.53 1.239 0 1.095 1.613 1.095 3.385 0 1.72.123 3.633-1.177 3.668-1.147.031-1.28-1.63-1.26-3.522zM16.828 399.783c-.139-.23-.445-.68-.445-.68l-2.288.255-.005.662c1.195-.031 2.166-.195 2.462 1.316.108.553-.167 1.133-.635 1.34-.954.427-1.77-.416-2.31-.978-.701-.72-1.737-1.426-2.817-1.149-1.524.39-2.182 1.554-1.97 2.766 0 0 .105.66.444 1.384.19.406.53.85.53.85l2.08-.082.018-.619c-1.166.085-1.886-.064-2.225-1.362-.12-.46.265-.957.805-1.106.614-.172 1.27.337 1.73.789.828.855 1.76 1.92 3.418 1.487 1.67-.435 2.017-2.263 1.906-2.894-.19-1.085-.507-1.66-.698-1.979zM14.602 407.294c-2.556.9-4.005 2.482-2.946 4.907.912 2.095 3.076 2.167 5.044 1.479 2.923-1.022 3.898-2.745 3.326-4.492-.874-2.665-2.882-2.787-5.424-1.894m.382 1.873c1.526-.553 3.75-1.255 4.259-.105.582 1.316-1.542 2.158-3.2 2.766-1.8.66-3.41 1-3.855-.192-.408-1.091 1.257-1.91 2.796-2.469zM20.831 414.413c.305.88.072.945-.933 1.248l-4.137 1.246c-1.005.303-1.548.579-1.794-.19l-.586.17c.206.628.33 1.086.454 1.464.157.57.34 1.143.496 1.714l.586-.168c-.166-1.019.563-1.068 1.568-1.37l3.353-1.082c1.075-.259 1.731-.757 2.007.394.124.519-.496.852-1.386 1.413l.168.524 2.216-.895c-.514-1.68-.716-2.523-.895-3.077-.146-.533-.37-1.025-.516-1.558zM17.689 423.382c-1.01.328-1.387.482-1.627-.256l-.585.2c.176.505.343.998.52 1.502.162.548.333 1.109.493 1.649l.584-.203c-.172-.748.113-.823 1.111-1.146l4.137-1.34c.997-.325 1.26-.443 1.595.32l.625-.244c-.184-.531-.34-1.067-.528-1.608-.15-.512-.332-1.029-.485-1.542l-.625.244c.12.662-.13.774-1.128 1.098zM83.165 428.184c.021-.903-.372-1.245-.972-1.547-.435-.218-1.22-.415-1.22-.415l-.083.655c1.365.519 1.796 1.106 1.433 2.023-.357.906-2.297.886-3.852.406-1.46-.45-3.34-1.507-3.082-2.472.207-.768.855-.946 1.676-.581.558.25.87.39.765 1.038l.558.021.703-2.68-.497-.145c-.224.602-.755.266-1.22.187-.463-.08-1.178-.145-1.716.312-.278.237-.987.856-1.179 1.953-.33 1.89.717 3.378 3.165 4.133 2.386.738 3.946.248 4.9-.96.58-.733.611-1.46.62-1.928zM85.195 401.57c-.347-.013-.673-.022-1.034-.072-.517-.074-.442-.343-.373-.738l-.705-.079c-.11.438-.18.663-.29 1.101-.125.388-.039.127-.163.515l.637.203c.48-.483 1.008-.243 2.48-.28l5.971.116.25-.838-4.074-2.764c-.315-.228-1.775-1.294-2.048-1.516-.33-.27-.62-.499-.568-.915l-.756-.155c-.17.663-.221.694-.381 1.309-.166.533-.28.941-.446 1.475l.663.187c.14-.293.19-.463.475-.426.216.028.59.31.766.436l.516.436-.62 2.005h-.3m1.466-1.595 2.778 1.743-3.282-.116zM76.402 423.816c.246-.9.475-.82 1.473-.5l4.114 1.323c1 .321 1.603.401 1.373 1.177l.578.192c.184-.636.339-1.084.45-1.466.193-.56.365-1.136.557-1.696l-.578-.193c-.437.934-1.066.559-2.064.239l-3.377-1.013c-1.03-.398-1.852-.36-1.43-1.465.19-.5.887-.42 1.937-.378l.156-.527-2.33-.522c-.522 1.678-.832 2.488-.996 3.047-.18.522-.271 1.055-.45 1.579z" style="fill:#231f20;fill-opacity:1;fill-rule:nonzero;stroke:none" transform="matrix(1.5133 0 0 -1.5133 35.448 722.126)"/><path d="M87.862 406.732c1.009.329 1.405.428 1.169 1.167l.59.18c.153-.511.305-1.008.457-1.52.189-.54.377-1.096.562-1.628l-.59-.179c-.299.708-.573.6-1.57.273l-4.132-1.35c-.997-.325-1.28-.385-1.105-1.2l-.65-.171c-.16.538-.347 1.064-.512 1.614-.175.502-.329 1.03-.506 1.533l.649.171c.29-.606.557-.55 1.553-.225zM81.6 419.816c2.742.732 4.569-.179 5.087-2.132.52-1.965-.62-3.692-3.35-4.421-2.727-.73-4.5.182-4.977 1.98-.576 2.179.54 3.85 3.24 4.573m.566-1.916c-1.86-.521-3.501-1.026-3.162-2.302.332-1.257 1.898-.807 3.665-.335 1.716.46 3.66.97 3.348 2.297-.278 1.171-1.972.864-3.851.34zM82.568 406.61c.563.492 2.267 1.998 2.267 1.998s.724-1.137 2.32-.623c1.598.516 1.773 1.297 1.69 2.525 0 0-.055.331-.16.66l-.99 3.095-.592-.19s.388-.6-.62-.925l-5.413-1.744s-.503-.266-.66.228l-.09.28-.71-.227.96-3.003.65.21s-.293.513.52.775l2.234.72.07-.224-3.122-2.584.629-1.97.68.22s-.223.289.337.78m2.247 3.597-.128.397 2.544.82c.474.153.608-.165.608-.165.04-.12.544-.887-1.172-1.438-1.715-.554-1.852.385-1.852.385zM26.665 373.37c0 .565.473 1.024 1.056 1.024.584 0 1.056-.459 1.056-1.024 0-.566-.472-1.024-1.056-1.024-.583 0-1.056.458-1.056 1.024zM36.777 365.985c0 .566.473 1.025 1.057 1.025.583 0 1.057-.46 1.057-1.025 0-.567-.473-1.024-1.056-1.024-.585 0-1.058.457-1.058 1.024zM29.466 371.812c.901-.697 1.039-.268 1.651.585l2.523 3.522c.613.854.982 1.134.036 1.77l.365.51 2.82-2.043c.942-.681 1.966-1.553 2.213-2.758.243-1.27-.4-2.414-1.17-3.487-.686-.959-1.52-1.607-2.653-1.783-1.16-.173-2.272.331-3.15.996-.502.38-1.05.748-1.55 1.128-.529.364-.926.683-1.453 1.047l.368.513m3.676-.284c-.225-.313-.82-1.129-.863-1.317-.12-.526.503-.768.904-.859.936-.212 1.9.778 2.804 2.04.5.699 1.365 1.646 1.417 2.416.046.653-.124 1.133-.738 1.74-.067.07-.333.21-.452.187-.068-.015-.173-.16-.216-.222zM21.937 379.41c-.26-.219-.547-.389-.791-.653-.348-.382-.308-.528.031-.888l-.403-.484c-.465.39-.388.296-.868.685-.386.313-.508.38-.885.701l.403.406c.59-.25.993.264 2.25 1.137l5.073 3.586.986-.81-1.386-5.13c-.079-.419-.59-2.229-.64-2.616-.063-.472-.03-.479.31-.873l-.42-.622c-.765.56-.822.544-1.612 1.151-.54.414-.79.603-1.301 1.049l.385.431c.32-.214.457-.343.652-.14.147.156.265.595.31.828l.124.793-1.934 1.615-.284-.166m2.45-.748.962 3.194L22.712 380ZM59.892 369.813c-.16.222-.55.778-.699.81-.332.065-.812-.403-1.069-.592l-.326.436c.853.904 1.117 1.448 1.738 2.463l.526.403 3.73-5.21c.168-.231.45-.712.768-.741.342-.031.62.243.885.42l.403-.482c-.63-.444-1.307-.976-1.995-1.463-.579-.438-1.138-.877-1.717-1.315l-.367.503c.223.163.635.452.682.733.068.327-.12.675-.295.92zM66.376 369.517c-.245.265-.31.732.045 1.043.577.504 1.352-.2 1.661-.341.371-.157.678-.276 1.024.062.526.513-.793 2.257-1.288 2.881-.048-.522-.41-.91-.791-1.247-1.105-.975-2.263-.253-3.18.795-1.048 1.2-.973 2.856.373 3.835 1.908 1.386 3.382.24 4.553-1.103 1.448-1.655 2.923-3.994.503-5.863-.573-.442-2.094-.934-2.9-.062m.061 5.468c-.466.535-1.089 1.455-1.597 1.091-.651-.467.187-1.406.605-1.949.48-.622 1.227-1.57 1.735-1.182.204.155.219.56-.06 1.059zM78.463 384.818c.246-.262.313-.73-.042-1.043-.573-.504-1.35.194-1.662.335-.37.15-.678.269-1.023-.068-.525-.518.805-2.254 1.304-2.875.044.523.404.912.783 1.25 1.099.98 2.262.266 3.184-.778 1.054-1.194.988-2.85-.352-3.835-1.9-1.397-3.381-.257-4.558 1.076-1.458 1.65-2.945 3.98-.535 5.862.57.446 2.089.947 2.9.076m-.034-5.466c.47-.533 1.098-1.45 1.604-1.083.65.471-.194 1.405-.616 1.943-.483.62-1.235 1.563-1.74 1.176-.204-.157-.217-.563.065-1.06zM72.96 380.871c.247-.263.314-.727-.04-1.043-.574-.506-1.351.195-1.661.335-.371.152-.68.27-1.024-.068-.524-.517.804-2.252 1.302-2.875.046.522.406.912.785 1.25 1.1.978 2.262.266 3.184-.779 1.054-1.192.987-2.85-.353-3.834-1.9-1.397-3.38-.258-4.559 1.076-1.457 1.651-2.944 3.98-.533 5.862.57.445 2.09.945 2.9.076m-.034-5.468c.47-.53 1.098-1.449 1.604-1.08.648.468-.194 1.403-.615 1.945-.484.619-1.235 1.562-1.741 1.173-.203-.157-.216-.563.065-1.06z" style="fill:#231f20;fill-opacity:1;fill-rule:nonzero;stroke:none" transform="matrix(1.5133 0 0 -1.5133 35.448 722.126)"/><path d="m-4.167 399.708-1.068-.257s.322-1.335-1.015-1.656l-9.782-2.356s-1.163-.337-1.524 1.157l-1.069-.258 2.446-10.133 4.136.203-.387 1.602s-2.882-.243-3.165.93c-.284 1.175-.728 2.083.768 2.443l9.515 2.292s1.256.415 1.643-1.185l1.176.283zM36.931 350.604l7.195-.39-.058-1.086s-1.472.08-1.552-1.387l-.435-7.978s-.219-3.011 2.86-3.179c3.026-.164 3.44 2.4 3.478 3.105l.42 7.71s.347 1.34-1.398 1.437l.066 1.193 4.579-.25-.067-1.193s-1.513.3-1.607-1.437L50 339.603s-.105-4.69-5.144-4.592c-4.94.095-7.042 1.716-6.87 4.865l.442 8.088s-.02 1.635-1.547 1.717zM66.052 351.353c0 1.092.918 1.977 2.051 1.977 1.132 0 2.05-.885 2.05-1.976 0-1.092-.918-1.978-2.05-1.978-1.133 0-2.05.886-2.05 1.978zM98.085 381.283c0 1.092.92 1.977 2.051 1.977 1.132 0 2.051-.885 2.051-1.977 0-1.093-.919-1.977-2.05-1.977-1.133 0-2.052.884-2.052 1.977zM110.601 409.265c0 1.023.86 1.852 1.922 1.852 1.06 0 1.92-.829 1.92-1.852 0-1.024-.86-1.853-1.92-1.853-1.062 0-1.922.83-1.922 1.853zM-14.298 409.265c0 1.023.861 1.852 1.922 1.852s1.921-.829 1.921-1.852c0-1.024-.86-1.853-1.921-1.853-1.06 0-1.922.83-1.922 1.853zM-10.486 372.22l-2.062 4.196 1.076.49-.02.227c-1.511.54-2.054 1.451-2.49 2.509-.905 2.197-.028 3.448 1.784 4.164l3.072 1.306c.353.14 1.402.52 1.618.831.186.268.041.551-.059.924l.688.274 2.835-3.893-6.163-2.675c-1.082-.427-1.97-1.015-1.39-2.217.595-1.228 1.842-.67 3.217-.124l2.136.932c.355.14.93.428 1.163.706.207.25.27.506.169.88l.687.272 2.609-3.827-5.333-2.321c-.415-.166-2.496-.861-2.759-1.203-.207-.269-.137-.653.031-1.077zM.644 370.812l-5.015-2.881c-.918-.576-1.509-1.074-1.463-1.617.04-.463.374-.7.84-.949l-.44-.855c-1.27.653-2.06 1.407-2.531 2.596-.778 1.96-.112 3.08 1.717 4.036l4.984 2.86-.433.972.631.328c1.284-1.377 3.287-1.867 5.051-1.505l.498-.728-2.946-1.718.872-1.702-.768-.456zM5.173 363.943l.032-.038c1.425-.25 2.405-.7 3.37-1.821 1.17-1.357 1.025-3.183-.347-4.32l-3.465-2.875c-.3-.247-.878-.751-.995-1.12-.11-.343.026-.502.155-.793l-.605-.495c-.62.78-.908 1.023-1.512 1.786-.764.884-1.298 1.626-2.062 2.51l.562.468c.334-.289.505-.383.894-.259.403.13.824.576 1.216.892l2.866 2.378c.774.642 1.753 1.441.882 2.327-.702.715-1.727.777-3.154-.437l-2.282-1.905c-.299-.248-1-.847-1.183-1.057-.274-.318-.2-.538-.041-1.017l-.575-.496c-.667.837-1.208 1.442-1.874 2.28a54.914 54.914 0 0 0-1.784 2.154l.67.54c.28-.296.46-.5.803-.518.504-.027 1.025.57 1.324.818l7.264 6.026c.933.806.894.908.336 1.944l.58.48 3.9-3.154zM12.035 351.865c-1.535-1.677-1.971-3.356-.726-4.455.995-.878 2.033-.664 3.283-.417l.492-.826c-1.872-.95-3.92-.455-5.539.974-2.285 2.02-2.654 4.899-.601 7.378 2.282 2.757 5.37 2.521 7.759.442 1.888-1.643 1.805-4.69.327-6.373-.436-.5-.742-.037-1.218.314l-3.777 2.963m1.287.125c.642-.538.766-.745 1.078-.392.72.814 1.864 2.337 1.183 2.942-.934.83-2.107-1.014-2.988-1.907zM20.293 351.037l4.564-.89-.524-1.37.044-.02c1.414.623 2.265.726 3.011.311.585-.324.934-1.637.415-2.672-.342-.683-1.115-.967-1.888-.394-1.126.832.073 1.563-.602 2.176-.174.158-1.192.025-2.468-2.696l-1.018-2.28c-.227-.725-.87-1.575.334-2.09l-.315-.669c-.992.49-1.744.756-2.736 1.247-.924.408-1.65.742-2.553 1.14l.315.669c.349-.163.595-.217.951.034.353.251.608.932.776 1.287l1.594 3.389c.621 1.317.825 1.646-.184 2.12zM81.455 349.607c-.041.685-.082 1.783-.311 2.28-.15.33-.414.255-.934.02l-.385.79c.736.342.832.423 1.569.766.666.358.626.296 1.292.656l.409-.76c-.685-.477-.466-1.595-.457-1.97.021-.91.248-5.76.24-6.286l.05-2.294-1.266-.705-7.24 5.742c-.789.496-.954.622-1.66.415l-.415.79c1.051.498 1.523.76 2.573 1.26 1.006.529 1.949.985 2.954 1.513l.407-.787c-.642-.347-.933-.704-.518-1.097.319-.304 1.205-1.116 1.45-1.307l2.325-2.051zM110.563 399.01c-.43.215-1.024.575-1.306.674-.353.125-.726.125-.788-.601l-.894.001c.064.952.105 1.222.146 1.781.05.67.086.925.125 1.595l.913-.02c.01-.425.022-.668.435-1.057.666-.637 3.742-2.218 4.336-2.55l6.66-3.71c1.475-.994 2.512-2.32 2.075-3.814-.236-.806-1.317-2.574-2.614-2.362-1.265.207-1.349 2.114.208 2.362 2.267.363 1.183 1.783-.016 2.45l-2.64 1.386-7.159-2.695c-.54-.173-1.493-.497-1.803-.706-.428-.284-.602-.518-.768-.973l-.83.067c.125 1.062.206 1.834.332 2.897.076 1.066.15 1.917.228 2.984l.975-.02c.011-.676 0-.809.51-.838.376-.021 1.08.247 1.594.398l3.032 1.113-2.751 1.637zM66.378 346.669l.269-.907.378.111s.723.216.94-.517l1.61-5.44s.306-.781-.553-1.035l-.31-.092.3-1.01 5.775 1.706-.3 1.01s-.893-.641-1.295.717l-2.24 7.567-.54.181s-1.997-1.461-4.034-2.291zM102.732 376.995l.883-.34.142.366s.27.703.984.428l5.296-2.045s.807-.235.485-1.069l-.118-.3.986-.38 2.17 5.613-.985.378s-.035-1.098-1.36-.587l-7.366 2.842-.474-.316s-.059-2.473-.643-4.59zM58.672 339.18c.057-.394.19-1.386.334-1.78.156-.42.458-.514.852-.457l.12-.964c-1.062-.13-1.753-.251-2.817-.363-.997-.103-1.494-.206-2.781-.352l-.124.891c.394.058.733.214.954.602.178.335-.087 1.553-.145 1.948l-.415 2.775c-.184 1.258-.02 2.2-1.577 2.034l-.041.912c1.68.404 2.862.87 4.502 1.553l.435-1.367c.914 1.15 1.417 1.655 2.947 1.99 1.046.23 2.3-.009 3.112-.747.727-.677.893-2.17 1.031-3.126l.317-2.842c.058-.395.149-1.242.395-1.597.185-.27.6-.472.995-.414l.088-.925c-.964-.114-1.33-.187-2.294-.303-1.13-.188-2.059-.263-3.188-.45l-.104.932c.394.057.498.311.581.642.11.434-.033 1.439-.09 1.833l-.422 2.909c-.16 1.093-.387 2.443-1.48 2.39-.83-.044-1.224-.43-1.507-1.256-.248-.724-.077-1.721.03-2.464zM106.957 365.276c-.261-.31-.791-.807-.791-.807l-2.776 1.04.33 1.005c1.404-.52 2.674-.49 3.337.401.533.715.611 1.385.16 1.887-.916 1.023-2.302.282-3.23-.354-1.198-.812-2.988-1.471-4.212-.663-1.675 1.108-1.535 2.82-.747 4.478 0 0 .413.987 1.224 2.009a25.033 25.033 0 0 0 1.148 1.315l2.43-.953-.294-.944c-1.342.591-2.241.42-2.972-.64-.416-.602-.312-1.326.29-1.637.726-.376 1.423.202 2.2.705 1.42.97 3.432 1.868 5.187.558 2.053-1.533.604-4.674.06-5.534a16.067 16.067 0 0 0-1.345-1.866zM89.584 353.112c1.316-1.853 2.865-2.633 4.202-1.651 1.069.787 1.078 1.845 1.102 3.115l.934.16c.47-2.128-.404-3.775-2.144-5.052-2.458-1.802-5.35-1.554-7.341.972-2.214 2.81-1.33 5.773 1.207 7.663 2.007 1.496 4.967.772 6.3-1.026.394-.53-.12-.73-.565-1.122l-3.695-3.059m.15 1.282c.663.513.892.59.613.97-.646.874-1.892 2.312-2.628 1.775-1.008-.736.546-2.27 1.233-3.319zM92.325 361.044l2.015 4.2 1.2-.852.03.037c-.249 1.526-.135 2.378.455 2.998.462.484 1.827.492 2.702-.274.576-.5.658-1.323-.093-1.926-1.094-.882-1.502.463-2.266-.037-.197-.128-.326-1.15 1.996-3.07l1.957-1.561c.647-.405 1.311-1.242 2.116-.205l.57-.474c-.727-.837-1.174-1.5-1.9-2.338-.63-.792-1.137-1.412-1.752-2.186l-.568.473c.245.297.358.523.205.932-.154.403-.752.823-1.055 1.075l-2.89 2.4c-1.123.932-1.391 1.213-2.105.355zM106.722 388.071l5.566-1.576c1.053-.256 1.822-.332 2.18.081.303.352.24.756.092 1.264l.92.281c.42-1.364.43-2.455-.093-3.622-.86-1.924-2.13-2.23-4.09-1.589l-5.531 1.567-.393-.986-.676.22c.091 1.88-.956 3.656-2.447 4.666l.173.863 3.289-.906.61 1.808.863-.23z" style="fill:#fff;fill-opacity:1;fill-rule:nonzero;stroke:none" transform="matrix(1.5133 0 0 -1.5133 35.448 722.126)"/><path d="m95.874 399.738-.146.427-.38.846c-1.1 2.245-4.022 8.21-.236 16.59l.246.542-.52.292c-8.002 4.484-9.153 11.01-9.586 13.467l-.196.925-.136.431c-.44 1.432-1.175 3.828-3.75 4.592-1.353.4-2.506.147-3.397-.322l-.504 2.655-3.588.074c.185.888.149 1.697-.126 2.414-.452 1.18-1.536 2.052-3.055 2.457-1.186.316-2.263.227-3.627.114-1.743-.144-3.912-.324-7.438.233-5.951.94-8.698 5.007-8.725 5.048l-.543.822-.544-.822c-.027-.04-2.774-4.108-8.725-5.048-3.526-.557-5.695-.377-7.438-.233-1.364.114-2.441.202-3.628-.114-1.518-.405-2.603-1.277-3.054-2.457-.272-.711-.31-1.513-.13-2.392l-3.176.018-.15-.443-.905-2.658c-.786.448-1.564.662-2.33.623-1.26-.065-2.424-.827-3.278-2.145-.668-1.03-.916-2.083-1.23-3.415-.401-1.702-.9-3.82-2.52-7.003-2.733-5.368-7.45-6.724-7.498-6.737l-.949-.263.614-.77c.03-.04 3.05-3.91 2.104-9.859-.56-3.526-1.4-5.534-2.077-7.147-.528-1.262-.946-2.258-1.012-3.484-.084-1.57.41-2.87 1.392-3.664.594-.48 1.346-.763 2.24-.863l-.858-2.639-.147-.455.35-.367 2.652-1.883c-.828-.669-1.366-1.422-1.591-2.26-.328-1.22.037-2.563 1.028-3.784.773-.952 1.696-1.514 2.866-2.224 1.495-.907 3.355-2.037 5.882-4.561 4.261-4.257 4.093-9.163 4.09-9.213l-.043-.983.922.344c.047.018 4.66 1.695 10.027-1.043 3.18-1.623 4.83-3.043 6.154-4.183 1.037-.894 1.856-1.599 3.002-2.04 1.467-.565 2.857-.496 3.915.192.729.475 1.28 1.22 1.66 2.213l2.493-1.832 2.48 1.75c.379-.958.921-1.676 1.631-2.138 1.058-.688 2.448-.757 3.915-.192 1.146.441 1.965 1.146 3.002 2.04 1.325 1.14 2.974 2.561 6.155 4.183 5.366 2.738 9.98 1.062 10.026 1.044l.921-.345-.042.984c-.003.049-.17 4.955 4.091 9.213 2.526 2.523 4.386 3.653 5.881 4.56 1.17.71 2.094 1.272 2.867 2.224.99 1.22 1.356 2.564 1.028 3.782-.238.884-.824 1.672-1.726 2.367l2.902 2.152-.845 2.672a4.415 4.415 0 0 1 3.022 1.77c1.619 2.142.788 4.508.291 5.921m-22.599 39.237h2.9l.437-2.296a4.236 4.236 0 0 1-.567-.667c-.019-.028-2.719-3.97-4.359-6.02-1.178-1.473-2.616-.89-2.968-.716-.464.317-.623.66-.662 1.022-.086.804.593 1.6.6 1.608.043.054 3.543 5.054 3.543 5.054.463.709.814 1.377 1.076 2.015m-48.874.017 2.655-.014c.26-.635.608-1.3 1.067-2 .01-.018 3.51-5.018 3.51-5.018.03-.038.694-.901.58-1.758-.054-.406-.278-.751-.686-1.056-1.439-1.013-2.612.547-2.74.729l-3.686 4.89a12.056 12.056 0 0 1-1.579 1.642c.24.704.71 2.09.88 2.585M8.367 389.786l.867 2.67c.683.05 1.421.177 2.229.396.02.005 5.856 1.788 5.856 1.788.191.052 2.01.498 2.595-1.215.655-1.928-1.206-2.673-1.42-2.752l-5.763-1.986a13.046 13.046 0 0 1-1.71-.785l-2.654 1.884m41.922-30.433-2.125 1.561c.11.563.183 1.18.216 1.853l.108 6.122c0 .048-.03 1.136.566 1.763.281.296.666.445 1.175.452 1.76-.027 1.792-1.979 1.789-2.202l.108-6.122c.035-.718.117-1.369.24-1.96l-2.077-1.468m37.505 29.322c-.02.007-5.633 2.322-5.633 2.322-.077.022-1.224.379-1.497.969-.163.351-.121.908.028 1.394l-.007.002c.092.3.646 1.742 2.58 1.156l7.127-2.273c.217-.082.505-.147.823-.194l.778-2.145-2.658-1.931c-.463.249-.972.484-1.54.7m6.75 5.926c-1.454-1.923-3.634-1.162-3.726-1.128l-7.178 2.289c-1.018.308-1.92.255-2.685-.158-1.14-.618-1.503-1.823-1.518-1.873l.009-.003c-.255-.838-.276-1.758.095-2.42.566-1.01 2.2-1.545 2.265-1.559 0-.004 5.545-2.296 5.545-2.296 2.058-.783 3.317-1.8 3.621-2.933a2.16 2.16 0 0 0 .075-.567c0-.812-.441-1.547-.856-2.057-.631-.779-1.429-1.263-2.532-1.933-1.472-.894-3.489-2.118-6.126-4.752-3.623-3.621-4.318-7.589-4.444-9.312-1.658.414-5.631.997-10.223-1.345-3.32-1.694-5.108-3.233-6.413-4.358-.978-.842-1.685-1.45-2.621-1.811-.755-.29-1.842-.515-2.738.07-.984.639-1.56 2.15-1.67 4.37l-.107 6.081c0 .043.018 1.614-.975 2.64-.538.557-1.25.846-2.114.86-.888-.014-1.596-.305-2.124-.865-.974-1.03-.919-2.6-.916-2.667l-.108-6.062c-.108-2.2-.686-3.711-1.669-4.352-.896-.583-1.984-.358-2.739-.068-.935.36-1.642.968-2.62 1.811-1.305 1.124-3.093 2.663-6.412 4.358-4.593 2.341-8.566 1.757-10.225 1.344-.125 1.724-.82 5.692-4.443 9.312-2.638 2.635-4.654 3.86-6.126 4.753-1.103.67-1.9 1.154-2.532 1.931-.415.512-.856 1.247-.856 2.059 0 .186.022.376.074.567.305 1.134 1.564 2.15 3.641 2.94l5.752 1.981c1.15.41 3.083 1.852 2.22 4.397-.799 2.334-3.093 2.357-4.195 2.043l-5.848-1.786c-2.126-.578-3.742-.495-4.654.243-.74.597-.918 1.536-.918 2.304 0 .096.002.189.007.278.054 1 .414 1.861.913 3.052.666 1.589 1.577 3.764 2.162 7.445.142.894.203 1.743.203 2.543 0 3.725-1.326 6.387-2.077 7.599 1.597.65 5.15 2.53 7.476 7.102 1.692 3.321 2.233 5.618 2.628 7.294.297 1.257.51 2.165 1.055 3.006.44.679 1.188 1.499 2.256 1.554 1.171.06 2.527-.823 3.92-2.555l3.661-4.857c.025-.036.934-1.316 2.341-1.564.762-.133 1.507.051 2.215.549.71.533 1.112 1.184 1.21 1.947.183 1.405-.785 2.644-.826 2.696.023-.031-3.477 4.969-3.477 4.969-1.205 1.843-1.626 3.405-1.207 4.5.383 1 1.394 1.458 2.176 1.666.968.258 1.897.181 3.185.075 1.716-.142 4.067-.338 7.749.244 5.067.8 7.954 3.6 9.065 4.918 1.11-1.318 3.997-4.118 9.064-4.918 3.682-.581 6.033-.386 7.75-.244 1.287.106 2.216.183 3.185-.075.78-.208 1.793-.667 2.175-1.665.105-.275.158-.58.158-.911 0-.988-.466-2.214-1.376-3.607l-3.49-4.983c.002.008-1.012-1.163-.87-2.536.078-.756.452-1.456 1.24-1.978l-.004-.008c.927-.53 3.104-1.003 4.703.997 1.67 2.087 4.313 5.945 4.425 6.108.06.092 1.362 1.999 3.674 1.314 1.906-.565 2.49-2.467 2.877-3.727l.145-.46.15-.74c.452-2.568 1.684-9.289 9.75-14.062-1.308-3.079-1.8-5.853-1.8-8.241 0-4.326 1.517-7.422 2.258-8.935l.31-.674.157-.457c.252-.717.579-1.647.579-2.61 0-.705-.175-1.427-.681-2.098z" style="fill:#231f20;fill-opacity:1;fill-rule:nonzero;stroke:none" transform="matrix(1.5133 0 0 -1.5133 35.448 722.126)"/></svg>