<svg xmlns="http://www.w3.org/2000/svg" xml:space="preserve" width="699.93158" height="700" viewBox="0 0 699.93158 699.99998"><path d="M202.2 640.967c.398.095 3.09 3.506 2.21 7.122-.969 3.968-5.353 5.775-5.353 5.775s-3.043-3.71-2.01-7.943c.88-3.613 4.619-5.086 5.152-4.954zM224.893 647.634c-.343.227-4.676-.09-6.75-3.18-2.273-3.392-.645-7.846-.645-7.846s4.793.26 7.219 3.88c2.072 3.09.63 6.842.176 7.146zM184.907 616.479c.182.364-.69 4.623-4.022 6.282-3.656 1.816-7.865-.374-7.865-.374s.874-4.713 4.776-6.656c3.331-1.657 6.868.254 7.111.748zM183.885 593.052c.392-.113 4.418 1.526 5.435 5.107 1.114 3.93-1.81 7.661-1.81 7.661s-4.479-1.726-5.668-5.913c-1.016-3.582 1.512-6.709 2.043-6.855zM233.807 615.651c.01-.407 2.774-3.757 6.497-3.659 4.085.107 6.771 4.014 6.771 4.014s-2.981 3.758-7.339 3.643c-3.718-.1-5.947-3.445-5.93-3.998zM228.463 605.62c-.368-.176-2.292-4.075-.68-7.428 1.774-3.68 6.438-4.53 6.438-4.53s2.207 4.259.318 8.183c-1.613 3.355-5.578 4.015-6.076 3.775zM205.834 621.63c-.31.264-4.652.418-7.049-2.43-2.629-3.129-1.49-7.731-1.49-7.731s4.79-.261 7.594 3.072c2.394 2.85 1.367 6.736.945 7.089z" style="fill:#0b8ed8;fill-opacity:1;fill-rule:nonzero;stroke:none" transform="matrix(6.23233 0 0 -6.23233 -958.762 4183.95)"/><path d="M182.76 636.083c-.395-.104-2.993-3.587-2.02-7.178 1.074-3.943 5.506-5.627 5.506-5.627s2.945 3.784 1.803 7.989c-.98 3.59-4.759 4.96-5.288 4.816zM245.16 602c.219.35-.236 4.67-3.39 6.646-3.463 2.167-7.864.394-7.864.394s.41-4.778 4.106-7.088c3.154-1.974 6.857-.415 7.148.048zM211.03 627.349c.053-.408 3.148-3.457 6.837-2.983 4.05.528 6.327 4.686 6.327 4.686s-3.35 3.431-7.672 2.874c-3.692-.476-5.564-4.036-5.493-4.577zM236.742 620.995c.392-.117 4.454 1.43 5.544 4.988 1.2 3.909-1.645 7.7-1.645 7.7s-4.514-1.628-5.792-5.793c-1.093-3.559 1.372-6.733 1.893-6.895zM184.477 612.76c-.289.296-4.591.894-7.266-1.695-2.934-2.84-2.275-7.532-2.275-7.532s4.738-.754 7.87 2.277c2.674 2.587 2.05 6.56 1.67 6.95zM194.059 603.773c-.404-.055-3.418-3.188-2.895-6.872.575-4.045 4.765-6.264 4.765-6.264s3.387 3.391 2.776 7.703c-.521 3.684-4.101 5.51-4.646 5.433zM191.804 611.452c.407.013 3.76 2.781 3.66 6.5-.107 4.083-4.013 6.77-4.013 6.77s-3.76-2.98-3.64-7.335c.094-3.723 3.442-5.949 3.993-5.935zM209.084 628.083c.404.076 3.268 3.345 2.574 7.001-.764 4.014-5.053 6.041-5.053 6.041s-3.228-3.548-2.415-7.828c.695-3.656 4.355-5.318 4.894-5.214zM204.981 627.216c.095.4-1.731 4.342-5.356 5.195-3.977.929-7.568-2.169-7.568-2.169s1.93-4.388 6.173-5.382c3.624-.85 6.626 1.822 6.751 2.356zM199.22 635.518c.191.364-.61 4.635-3.913 6.35-3.626 1.881-7.87-.236-7.87-.236s.792-4.733 4.66-6.74c3.302-1.714 6.872.14 7.123.626zM222.725 633.378c.14-.385 3.826-2.687 7.326-1.414 3.836 1.398 5.148 5.953 5.148 5.953s-4.02 2.617-8.113 1.13c-3.498-1.274-4.547-5.154-4.361-5.67zM214.098 621.805c.267.312 4.53 1.166 7.355-1.255 3.097-2.662 2.72-7.389 2.72-7.389s-4.685-1.032-7.99 1.8c-2.827 2.426-2.44 6.43-2.085 6.844zM228.545 615.445c.402-.08 4.268 1.91 4.969 5.563.765 4.013-2.479 7.472-2.479 7.472s-4.306-2.108-5.125-6.39c-.698-3.653 2.098-6.545 2.635-6.645zM219.68 590.948c.4-.077 4.265 1.912 4.963 5.567.765 4.01-2.476 7.473-2.476 7.473s-4.308-2.11-5.126-6.39c-.7-3.656 2.097-6.547 2.639-6.65zM211.372 640.389c.41-.032 4.03 2.37 4.322 6.08.32 4.071-3.286 7.155-3.286 7.155s-4.047-2.574-4.387-6.919c-.29-3.71 2.803-6.272 3.351-6.316z" style="fill:#112c5c;fill-opacity:1;fill-rule:nonzero;stroke:none" transform="matrix(6.23233 0 0 -6.23233 -958.762 4183.95)"/><path d="M231.374 611.366c-.1.741-.628 1.187-1.218 1.02-6.79-2.467-10.993-2.912-17.645-3.523l-1.11.253c-.566.034-.766.506-.84.803l-.303 13.621c0 1.2-.48 2.164-1.076 2.164-.596 0-1.08-.964-1.08-2.164l-.641-13.51c-.606-1.904-2.26-1.735-2.26-1.735l.01-.036c-5.976-.128-9-.214-15.198 1.44-.862.211-1.53.39-1.536-.232.015-.638.71-1.588 1.607-1.807 7.094-2.888 10.549-2.345 17.078-3.916l-1.49-23.664c-.125-1.622-1.086-1.986-1.086-1.986h8.347c-.446.209-.864 1.221-1.065 1.774l-1.172 24.046c7.521 1.615 12.195 3.022 19.778 5.926.593.145.981.788.9 1.526zM154.37 624.128l-.124-1.377 4.772-1.83c.021-.008.289-.094.562-.18-.334-.043-.67-.09-.67-.09l-4.937-.908-.136-1.496 7.436-1.336.101 1.115-5.224.886-.486.073.234.038.303.053 5.359.985.085.95-5.345 2.07s-.081.03-.196.07l.267-.013 5.461-.06.104 1.147-7.554.032-.012-.13zM157.896 637.107l-.076-.22-.351-1.023 2.224-2.28c.011-.009.244-.24.429-.425-.268-.024-.594-.056-.594-.056l-3.15-.41-.451-1.312 5.09.815 2.816-.968.384 1.118-2.767.95-3.554 3.811zM167.247 646.194c-1.014.63-1.872.91-2.702.88-.686-.023-1.645-.283-2.323-1.377-.416-.672-.55-1.397-.386-2.102.217-.935.932-1.801 2.063-2.504 1.075-.668 2.109-.946 2.995-.802.827.13 1.506.593 1.965 1.33.414.664.534 1.27.397 2.027-.192 1.029-.793 1.79-2.009 2.548m.831-4.04c-.3-.485-.884-.844-1.357-.83-.54.012-1.43.364-2.317.916-.736.457-1.197.874-1.453 1.32-.265.459-.226 1.093.1 1.62.357.57.926.856 1.561.78h.002c.525-.056 1.187-.344 2.08-.897 1.066-.664 1.391-1.1 1.556-1.555.17-.453.113-.895-.172-1.355zM172.38 657.708l-.71-.698 2.88-2.88 1.075-.997-.863.338-5.037 1.62-.875-.86 5.267-5.35.84.83-3.072 3.058-.895.826c.364-.134.766-.27 1.107-.381l4.844-1.549.807.795-5.268 5.348-.1-.1zM182.627 661.03l.72-.732 1.22.74c.122-.198.944-1.552 1.025-1.685-.155-.273-.397-.518-.741-.728-.578-.35-1.305-.45-1.769-.243-.499.225-1.034.78-1.51 1.56-.345.57-.578 1.133-.691 1.674-.203.973.346 1.534.844 1.835.443.27.85.355 1.554.32l.136-.009.075.93-.126.022c-.753.125-1.481-.02-2.168-.437-.676-.411-1.11-.951-1.319-1.646-.314-.994-.106-2.074.635-3.295.67-1.104 1.401-1.739 2.305-2 .822-.23 1.682-.095 2.49.395.652.397 1.232 1.006 1.511 1.588l.034.069-1.868 3.074-2.357-1.432zM193.478 663.202l-2.104 5.78-.132-.05-.946-.344 2.111-5.798c.245-.68.316-.99.277-1.232-.039-.285-.24-.62-.529-.88l-.14-.124.825-.513.08.063c.486.39.8.881.883 1.378.047.32.023.64-.08.98l-.245.74zM199.916 671.244l-.969-.187 1.407-7.392 1.107.209-1.406 7.393-.139-.023zM220.559 671.284c-1.816.32-3.418-1.055-3.807-3.266-.218-1.234-.023-2.357.547-3.171a2.8 2.8 0 0 1 1.855-1.17 3.867 3.867 0 0 1 2.17.24l.139.06-.486.93-.123-.06c-.488-.228-.891-.287-1.39-.2-.818.145-1.39.704-1.57 1.537-.09.428-.078.834.04 1.496.142.81.33 1.36.615 1.788.457.7 1.073.989 1.83.856a2.04 2.04 0 0 0 1.195-.643l.094-.098.768.65-.101.108c-.45.492-1.065.819-1.776.943zM232.165 667.773c-1.716.734-3.363-.17-4.3-2.359-.497-1.161-.614-2.226-.34-3.078.257-.8.813-1.4 1.612-1.743.72-.309 1.339-.335 2.065-.086.99.346 1.65 1.055 2.215 2.37.47 1.1.616 1.991.462 2.806-.127.673-.53 1.58-1.714 2.09m.624-2.325c.023-.528-.16-1.225-.575-2.194-.493-1.153-.876-1.543-1.3-1.772-.424-.238-.87-.247-1.365-.034-.524.224-.963.746-1.026 1.213-.068.537.145 1.47.557 2.43.34.794.685 1.315 1.084 1.637.412.33 1.045.386 1.615.145.62-.265.987-.786 1.01-1.425zM241.574 662.512l-.08-.115-4.322-5.99 3.14-2.267.721.726-2.34 1.69c.159.218 3.813 5.283 3.813 5.283l-.932.673zM251.026 654.422l-.779.843-.102-.094-5.428-5.008 2.625-2.85.853.57s-1.786 1.932-1.958 2.12c.199.185 4.79 4.419 4.79 4.419zM255.252 643.805c.2.119 1.571.936 1.771 1.057l1.51-2.532.942.373-2.186 3.663-.121-.07-6.297-3.757 2.227-3.732.886.527s-1.504 2.517-1.634 2.738c.205.124 1.812 1.081 2.016 1.204.13-.213 1.272-2.132 1.272-2.132l.884.53-1.27 2.13zM260.135 632.47l-.877-.535s.37-1.14.442-1.356c-.225-.075-1.726-.564-1.878-.612-.228.21-.412.502-.537.884a2.479 2.479 0 0 0-.12.762c0 .399.099.77.288 1.016.331.436.993.831 1.863 1.114.634.205 1.235.304 1.788.291.993-.022 1.415-.686 1.594-1.238.163-.494.15-.913-.046-1.586l-.037-.133.885-.287.05.121c.296.702.321 1.443.073 2.207-.246.754-.674 1.3-1.303 1.664-.894.532-1.992.576-3.353.134-1.225-.402-2.01-.968-2.47-1.79-.415-.743-.48-1.612-.186-2.512.238-.727.698-1.43 1.199-1.834l.06-.048 3.42 1.115-.855 2.623zM265.738 623.188l-.14-.011-7.301-.7.414-4.328 1.027.098-.304 3.176 2.337.224c.025-.25.237-2.47.237-2.47l1.027.098-.236 2.47 2.054.196.28-2.934 1.01-.066-.405 4.248zM162.43 599.633c0-.83-.672-1.503-1.5-1.503-.827 0-1.502.674-1.502 1.503a1.5 1.5 0 0 0 3.002 0zM260.481 599.633a1.502 1.502 0 1 0-3.003-.003 1.502 1.502 0 0 0 3.003.003zM235.607 574.356l1.039-2.102-1.039-.512-1.04 2.104-.972-.483 2.085-4.217a2.393 2.393 0 0 0-.39-.385 3.257 3.257 0 0 0-.611-.39l-1.572-.773-1.73 3.499 1.803.891-.338.689-2.82-1.397 2.018-4.084c.127-.257.306-.416.535-.48a.962.962 0 0 1 .712.086l1.69.832c.252.127.459.268.627.418.143.13.279.302.376.486l1.405-2.85.97.48-2.378 4.824 1.038.515 2.38-4.825.973.48-3.788 7.675-.973-.48zM187.809 572.543l1.072-.621c-.015.004-4.287-7.36-4.281-7.379l-1.06.614c.017.005 4.274 7.377 4.269 7.386m-2.946.51-.432-.744c-.404-.696-.592-1.41-.501-2.177.09-.767.353-1.338.787-1.71l-.77-.24c-.29.322-.645.682-.86 1.277-.211.595-.235 1.166-.171 1.552-.305-.254-.812-.512-1.428-.617-.617-.103-1.116.003-1.536.109l-.177.784c.545-.192 1.172-.14 1.881.165.707.304 1.233.821 1.636 1.517l.434.746s-1.433.829-1.44.826l.384.663 4.012-2.326-.386-.664zM251.281 580.7l-.004-.005-.012-.013.016.017zM251.158 580.574l-3.427-3.487v-.001zM251.265 580.682l-.107-.108zM251.265 580.682l-.107-.108zM252.611 580.76c-.205.2-.425.294-.664.277-.234-.014-.45-.12-.64-.313l-3.713-3.779.603-.592 3.569 3.626 1.789-1.761.808.822zM249.313 584.003l-1.35 1.324-.807-.82 3.576-3.513.807.821-1.674 1.646.957.974-.552.544z" style="fill:#112c5c;fill-opacity:1;fill-rule:nonzero;stroke:none" transform="matrix(6.23233 0 0 -6.23233 -958.762 4183.95)"/><path d="m251.281 580.7-.004-.005-.012-.013.016.017zM251.265 580.682l-.107-.108zM251.265 580.682l-.107-.108zM247.035 582.527l.342.347-.54.531-1.355-1.379-.577.567-.834-.845.269-.265.31-.303-1.352-1.374.54-.535.344.351.53.54a2.016 2.016 0 0 1 .025-.938c.081-.308.237-.57.462-.793.385-.38.863-.552 1.438-.518.57.034 1.066.265 1.484.69.424.43.645.931.668 1.501.023.572-.161 1.045-.547 1.422a1.672 1.672 0 0 1-.8.45c-.29.072-.585.078-.883.02-.02-.005-.037-.007-.057-.013l.52.532.013.012m.801-2.603c.02-.31-.068-.571-.272-.777-.196-.2-.45-.293-.765-.278a1.192 1.192 0 0 0-.814.36c-.23.223-.353.493-.376.81-.02.313.069.57.267.77.2.206.46.3.772.28.311-.014.583-.135.811-.36.229-.224.354-.494.377-.805zM175.623 581.295l-.812.955c.004-.014-.686-.589-.686-.589l-.924 1.086.519.44-2.758 3.248c.003-.015-2.4-2.034-2.4-2.034-.212-.177-.326-.378-.34-.601-.012-.223.074-.446.264-.667l2.166-2.551.594.503.923-1.084-.93-.791.803-.946s3.57 3.036 3.581 3.03m-5.196.726-1.154 1.357 1.91 1.623 1.154-1.358-1.91-1.622m2.376-1.48-.922 1.085.687.582.922-1.085zM170.93 578.427c-.004.603-.217 1.16-.647 1.663-.424.5-.936.8-1.534.904-.6.104-1.11-.024-1.536-.385-.424-.36-.633-.843-.628-1.453.006-.606.222-1.16.645-1.659.428-.506.94-.807 1.536-.907.597-.104 1.109.028 1.534.389.424.359.634.84.63 1.448m-2.352-.813c-.334-.002-.6.115-.799.35-.197.23-.267.51-.213.842.055.33.213.604.475.829.264.222.564.336.902.34.341.004.608-.109.805-.34.198-.236.268-.519.207-.852a1.4 1.4 0 0 0-.483-.83 1.37 1.37 0 0 0-.894-.339zM216.76 567.107l3.406.496.287-1.971-3.406-.496-.287 1.971m-.906-1.945c.039-.28.146-.485.326-.618.176-.134.407-.18.687-.138l4.844.706-.488 3.349-5.735-.836c.014-.003.366-2.463.366-2.463m3.196-3.807 1.157.168c-.01.005-.267 1.8-.267 1.8l2.857.418-.103.693s-7.601-1.113-7.614-1.11l.102-.692 3.591.523s.282-1.79.277-1.8m-2.265-1.234c.04-.282.157-.484.349-.617a.904.904 0 0 1 .667-.14l4.714.685-.1.686-4.435-.642s-.279 1.918-.273 1.924l-1.173-.17c.007-.006.251-1.726.251-1.726zM198.49 562.852l1.17-.206-.383-2.148 4.505-.8-.123-.685-4.782.851a.905.905 0 0 0-.592.34c-.14.187-.185.418-.134.697 0 0 .347 1.943.34 1.95m4.876 2.941.338 1.879 1.154-.205-1.111-6.243-1.16.206c.008.005.657 3.677.657 3.677l-1.72.296.123.696 1.72-.306m-2.624 1.481-.075-.427c-.155-.88-.058-1.639.297-2.28.351-.64.781-1.06 1.29-1.26l-.611-.37c-.375.118-.77.414-1.178.888-.412.476-.653.914-.72 1.319-.2-.363-.571-.694-1.117-.997-.545-.301-1.02-.443-1.425-.421l-.436.556c.543.006 1.09.251 1.641.738.555.485.908 1.166 1.063 2.039l.076.428s-1.592.285-1.598.28l.121.69 4.393-.78-.122-.69c-.006.007-1.599.287-1.599.287z" style="fill:#112c5c;fill-opacity:1;fill-rule:nonzero;stroke:none" transform="matrix(6.23233 0 0 -6.23233 -958.762 4183.95)"/></svg>