<svg xmlns="http://www.w3.org/2000/svg" viewBox="0 0 105.88 106.88"><path d="M86.56 85.42 88.17 87a13.43 13.43 0 0 1 1 1.09 2.21 2.21 0 0 1 .52.94l.64-.65a3.37 3.37 0 0 0-.46-1A6.75 6.75 0 0 0 89 86.3s-1.65-1.62-1.66-1.64a.85.85 0 0 0-.59-.22 1 1 0 0 0-.6.29l-3.57 3.65.56.55Z" style="fill:#002968"/><path d="m89.68 90.08-2.44-2.39-.73.74 2.44 2.4h-.01l-.63.64-2.43-2.39-.74.74 2.44 2.4-1.02 1.04.54.53v.01l5.14-5.24-.54-.54-2.02 2.06zM54.9 98.84V101h-1.09v-2.2h-1v4.42a1.87 1.87 0 0 1-.49.16 2.81 2.81 0 0 1-.67.07H50v-3.62h1.89v-.72h-3v4.28a.83.83 0 0 0 .25.63 1 1 0 0 0 .64.22h1.77a2.48 2.48 0 0 0 .7-.09 1.78 1.78 0 0 0 .52-.25v3h1v-5h1.13v5h1v-8ZM36.88 95.84l1 .49s-3.37 7.26-3.36 7.27l-1-.48s3.37-7.27 3.36-7.28Zm-2.8-.22-.34.73a3.22 3.22 0 0 0-.28 2.08 2.47 2.47 0 0 0 .88 1.54l-.7.28a3.46 3.46 0 0 1-.91-1.12 3 3 0 0 1-.29-1.43 3 3 0 0 1-1.29.7 3.41 3.41 0 0 1-1.45 0l-.23-.72a2.36 2.36 0 0 0 1.74-.31 3.28 3.28 0 0 0 1.41-1.57l.38-.7-1.42-.65.3-.65 3.95 1.82-.3.66-1.45-.66Z" style="fill:#002968"/><rect height="0.02" x="74.32" y="99.58" style="fill:#002968"/><rect width="0.14" x="74.17" y="99.62" style="fill:#002968" transform="rotate(-21.12 74.26 99.628)"/><rect height="0.14" x="74.25" y="99.54" style="fill:#002968"/><path d="M75.49 100.05a.85.85 0 0 0-.46-.5.92.92 0 0 0-.67 0l-4.65 1.77.28.74 4.47-1.69.84 2.2 1-.38ZM73.95 95.99l-.63-1.66-1.01.38 1.67 4.4 1.01-.38-.79-2.06 1.21-.45-.26-.69-1.2.46z" style="fill:#002968"/><rect height="0.02" x="74.32" y="99.58" style="fill:#002968"/><rect width="0.14" x="74.17" y="99.62" style="fill:#002968" transform="rotate(-21.12 74.26 99.628)"/><rect height="0.14" x="74.25" y="99.54" style="fill:#002968"/><path d="m71.42 96.36.43-.17-.25-.66-1.7.64-.26-.71-1 .4.13.33.14.38-1.69.64.25.67.43-.17.66-.25a1.93 1.93 0 0 0-.34.81 1.58 1.58 0 0 0 .08.86 1.68 1.68 0 0 0 1 1 2.19 2.19 0 0 0 2.7-1 1.71 1.71 0 0 0 .09-1.43 1.65 1.65 0 0 0-.5-.7 1.85 1.85 0 0 0-.75-.35l.65-.25Zm-.33 2.53a.94.94 0 0 1-.54.56.9.9 0 0 1-.76-.07 1.14 1.14 0 0 1-.56-.62 1.21 1.21 0 0 1 0-.84.88.88 0 0 1 1.3-.49 1.11 1.11 0 0 1 .55.63 1.13 1.13 0 0 1 .01.83ZM23.63 88.26l-.83-.85-.6.6-.94-1 .46-.45-2.81-2.85-2.11 2.11a.84.84 0 0 0-.27.59.89.89 0 0 0 .29.61L19 89.26l.52-.51.94 1-.82.81.82.83s3.16-3.14 3.17-3.13Zm-4.92-.33-1.17-1.19 1.68-1.65 1.17 1.19ZM21 89.16l-.94-1 .61-.6.94 1ZM19.43 91.26a2.38 2.38 0 0 0-.72-1.51 2.34 2.34 0 0 0-1.5-.74 1.64 1.64 0 0 0-1.41.46 1.67 1.67 0 0 0-.49 1.41 2.42 2.42 0 0 0 .69 1.51 2.39 2.39 0 0 0 1.51.74 1.67 1.67 0 0 0 1.41-.47 1.69 1.69 0 0 0 .51-1.4Zm-2.15.92a.89.89 0 0 1-.77-.27.92.92 0 0 1-.26-.77 1.27 1.27 0 0 1 .39-.81 1.26 1.26 0 0 1 .82-.38.93.93 0 0 1 .78.26.91.91 0 0 1 .25.78 1.21 1.21 0 0 1-.4.81 1.23 1.23 0 0 1-.81.38Z" style="fill:#002968"/><path d="M45.59 29.4a7.5 7.5 0 0 0 2.08-6.71c-.91-3.74-5-5.44-5-5.44s-2.87 3.49-1.9 7.48c.79 3.41 4.31 4.79 4.82 4.67ZM67 23.12a7.48 7.48 0 0 0-6.36 3C58.46 29.31 60 33.5 60 33.5s4.52-.24 6.8-3.65c1.95-2.91.59-6.45.2-6.73ZM29.3 52.46a7.5 7.5 0 0 0-3.79-5.92c-3.44-1.71-7.4.35-7.4.35s.82 4.45 4.5 6.27c3.13 1.56 6.46-.24 6.69-.7ZM28.34 74.52a7.49 7.49 0 0 0 5.12-4.81c1-3.7-1.71-7.21-1.71-7.21s-4.21 1.62-5.34 5.57c-.95 3.37 1.43 6.31 1.93 6.45ZM75.35 53.24a7.5 7.5 0 0 0 6.12 3.44c3.85-.1 6.38-3.78 6.38-3.78s-2.85-3.53-6.91-3.43c-3.5.1-5.6 3.25-5.59 3.77ZM70.32 62.68a7.5 7.5 0 0 0-.64 7c1.67 3.47 6.06 4.32 6.06 4.32s2.08-4 .3-7.71c-1.52-3.21-5.25-3.83-5.72-3.61ZM49 47.61a7.49 7.49 0 0 0-6.64 2.28c-2.47 3-1.4 7.29-1.4 7.29s4.51.24 7.15-2.89c2.26-2.69 1.3-6.35.89-6.68Z" style="fill:#0086d1"/><path d="M27.28 34a7.49 7.49 0 0 0-1.9 6.76c1 3.71 5.18 5.29 5.18 5.29s2.78-3.56 1.7-7.52c-.92-3.38-4.48-4.67-4.98-4.53ZM86.05 66.09a7.53 7.53 0 0 0-3.2-6.26c-3.26-2-7.4-.37-7.4-.37s.38 4.5 3.86 6.68c2.97 1.86 6.46.39 6.74-.05ZM53.9 42.22A7.49 7.49 0 0 0 60.34 45c3.82-.49 6-4.41 6-4.41s-3.15-3.23-7.22-2.71c-3.52.48-5.29 3.83-5.22 4.34ZM78.12 48.21a7.5 7.5 0 0 0 5.22-4.7c1.13-3.68-1.55-7.25-1.55-7.25s-4.25 1.53-5.46 5.45c-1.03 3.35 1.3 6.34 1.79 6.5ZM28.9 56a7.52 7.52 0 0 0-6.85 1.59c-2.76 2.68-2.14 7.1-2.14 7.1s4.46.71 7.41-2.14c2.52-2.48 1.93-6.22 1.58-6.55ZM37.92 64.42a7.52 7.52 0 0 0-2.73 6.48c.55 3.81 4.49 5.9 4.49 5.9s3.19-3.2 2.62-7.26c-.49-3.47-3.87-5.19-4.38-5.12ZM35.8 57.19a7.5 7.5 0 0 0 3.45-6.12c-.11-3.84-3.78-6.37-3.78-6.37s-3.55 2.8-3.47 6.9c.13 3.51 3.28 5.61 3.8 5.59ZM52.07 41.53a7.49 7.49 0 0 0 2.43-6.59c-.72-3.78-4.76-5.69-4.76-5.69s-3 3.34-2.28 7.37c.66 3.44 4.1 5.01 4.61 4.91ZM48.21 42.35a7.48 7.48 0 0 0-5.05-4.89c-3.74-.88-7.12 2-7.12 2s1.81 4.13 5.81 5.07c3.41.83 6.24-1.68 6.36-2.18ZM42.78 34.53a7.46 7.46 0 0 0-3.69-6c-3.41-1.77-7.41.22-7.41.22s.75 4.46 4.39 6.35c3.11 1.63 6.47-.1 6.71-.57ZM64.92 36.54a7.47 7.47 0 0 0 6.9 1.33c3.61-1.31 4.84-5.6 4.84-5.6S72.88 29.8 69 31.21c-3.27 1.19-4.26 4.85-4.08 5.33ZM56.79 47.44a7.5 7.5 0 0 1 6.93 1.19c2.92 2.5 2.56 6.95 2.56 6.95s-4.41 1-7.52-1.69c-2.67-2.29-2.3-6.06-1.97-6.45ZM70.4 53.43a7.48 7.48 0 0 0 4.68-5.24c.72-3.78-2.34-7-2.34-7s-4 2-4.82 6c-.66 3.42 1.97 6.15 2.48 6.24ZM62.05 76.5a7.46 7.46 0 0 0 4.67-5.24c.72-3.78-2.33-7-2.33-7s-4 2-4.83 6c-.65 3.42 1.98 6.14 2.49 6.24ZM54.23 29.94a7.52 7.52 0 0 0 4.07-5.72c.3-3.84-3.1-6.74-3.1-6.74S51.39 19.9 51.07 24c-.27 3.49 2.64 5.9 3.16 5.94Z" style="fill:#002968"/><path d="M73.06 57.27c-.09-.7-.59-1.11-1.14-1-6.4 2.33-10.36 2.75-16.62 3.32l-1-.24a.88.88 0 0 1-.79-.75l-.28-12.83c0-1.13-.46-2-1-2s-1 .91-1 2l-.61 12.72a2.1 2.1 0 0 1-2.13 1.63c-5.62.12-8.47.2-14.31-1.36-.81-.2-1.44-.36-1.45.22a2.11 2.11 0 0 0 1.52 1.7c6.68 2.72 9.93 2.21 16.08 3.69l-1.4 22.29c-.12 1.52-1 1.87-1 1.87h7.77c-.42-.2-.82-1.15-1-1.68l-1.1-22.64a109.57 109.57 0 0 0 18.62-5.58 1.27 1.27 0 0 0 .84-1.36ZM2.48 58.71H2l.23-.08.26-.09 4.82-1.76-.07-.9L2 54.81h-.2.25L7.13 54 7 52.86h-.14L0 54l.11 1.43 4.72.94.55.08-.61.19-4.44 1.64.11 1.41 7.12.07-.08-1ZM1.09 42.16v.22l-.16 1 2.45 1.74.47.32-.54.15-2.85.92-.22 1.29 4.57-1.62 2.78.42.16-1.1L5 45.09ZM8 32.7a4.49 4.49 0 0 0-2.66-.33 2.62 2.62 0 0 0-1.9 1.69c-.65 1.64.26 3.16 2.35 3.94a4.18 4.18 0 0 0 2.91.21 2.6 2.6 0 0 0 1.58-1.58 2.49 2.49 0 0 0 0-2A3.55 3.55 0 0 0 8 32.7Zm1.49 3.58a1.62 1.62 0 0 1-1.1 1 5.12 5.12 0 0 1-2.31-.43 3.76 3.76 0 0 1-1.58-1 1.59 1.59 0 0 1 1.11-2.52 5.18 5.18 0 0 1 2.08.46c1.11.42 1.49.77 1.72 1.16a1.34 1.34 0 0 1 .05 1.33ZM10.28 21.64l-.52.78L13 24.53l1.18.71-.86-.14-4.95-.55-.65 1 5.88 3.93.62-.93-3.42-2.23-1-.59 1.09.14 4.76.51.6-.89-5.88-3.93ZM18.66 17l.82.53 1-.93 1.25 1.4a2 2 0 0 1-.53.82 2 2 0 0 1-1.58.58 3.74 3.74 0 0 1-1.71-1.13 5.21 5.21 0 0 1-1-1.4 1.56 1.56 0 0 1 .4-1.86 2.33 2.33 0 0 1 1.37-.61h.13l-.12-.87h-.09a2.86 2.86 0 0 0-1.91.84 2.63 2.63 0 0 0-.88 1.78A3.69 3.69 0 0 0 17.06 19a3.82 3.82 0 0 0 2.53 1.37 2.9 2.9 0 0 0 2.21-.87 3.82 3.82 0 0 0 1.07-1.76v-.07l-2.34-2.45ZM27.72 13.14l-3.16-4.85-.12.07-.79.52 3.18 4.86a2.64 2.64 0 0 1 .52 1.07 1.52 1.52 0 0 1-.3.92l-.1.15.87.29.06-.07a2.21 2.21 0 0 0 .51-1.46 2.26 2.26 0 0 0-.28-.88ZM31.32 4.64l-.85.39 2.95 6.44.97-.44-2.95-6.44-.12.05zM51 0h-.13L50 .09l.4 4.77A1.6 1.6 0 0 1 50.21 6a1.33 1.33 0 0 1-1.06.46c-.7.06-1.17-.16-1.31-.62a5.21 5.21 0 0 1-.15-1L47.31.31 46.25.4l.4 4.88A2.26 2.26 0 0 0 47 6.51a2.13 2.13 0 0 0 2.22.88A2.68 2.68 0 0 0 51 6.67c.42-.43.5-.8.42-1.81ZM61.08 4.52S61 5.29 61 5.89l-.24-.83L59 .36 57.88.2v.14l-.95 6.87 1.1.15.52-4.05s.05-.62.1-1.14c.11.35.24.72.35 1l1.62 4.51 1.06.14 1-7-1.1-.11ZM69.25 2.71 67.03 9.3l1.01.34 2.26-6.72-1.01-.34-.04.13zM76.6 10.75s-.39.37-.69.68c.08-.31.18-.69.24-1L77 5.76l-1-.56v.18l-1.31 7.18.88.48 5.55-5-1-.54ZM86.27 13.09l2.1 1.8.74-.61-3-2.62-.09.1L81.47 17l3.11 2.67.63-.74-2.28-2 1.44-1.67 1.78 1.52.63-.74L85 14.56ZM95.43 22.12a2.67 2.67 0 0 0-.73-1.72l-1-1.36-.1.08-5.6 4.24.66.85 2.41-1.85a.68.68 0 0 1 .1.27 1.48 1.48 0 0 1-.06.36c-.12.5-.31 1.14-.6 2l-.45 1 .05.08.77 1 .66-2 .15-.46.14-.47a4.72 4.72 0 0 0 .16-.76 1.91 1.91 0 0 0 1.13.65 2 2 0 0 0 1.5-.46 1.88 1.88 0 0 0 .81-1.45Zm-2.36.94a1.51 1.51 0 0 1-.95-.71l-.36-.47 1.8-1.4.44.52a2 2 0 0 1 .39.72.83.83 0 0 1 0 .22 1 1 0 0 1-.39.8 1.26 1.26 0 0 1-.93.32ZM98.16 33.41a2.37 2.37 0 0 0 .11-1.41l-.12-.82c-.13-.89.08-1.19.45-1.36a.89.89 0 0 1 .71-.06 1.32 1.32 0 0 1 .71.74 2.61 2.61 0 0 1 .19 1.67v.14l.94.09v-.12a3.77 3.77 0 0 0-.3-2.22A2.11 2.11 0 0 0 98 28.81a1.74 1.74 0 0 0-.89.94 2.64 2.64 0 0 0 0 1.42l.11.71c.12.8 0 1.28-.55 1.52a1 1 0 0 1-1 0 1.51 1.51 0 0 1-.68-.79 2.81 2.81 0 0 1-.25-1.82v-.15l-1-.07v.13a4.11 4.11 0 0 0 .36 2.3 2.72 2.72 0 0 0 1.09 1.26 2.13 2.13 0 0 0 2 .15 2 2 0 0 0 .97-1ZM103.86 38.38l-.13.04-6.71 1.84.28 1.02 6.83-1.87-.27-1.03zM98.54 48.05l.09 1.05 6.11-.59c0 .23.18 1.84.18 1.84h1l-.45-4.77h-.13l-.82.08s.15 1.59.17 1.82ZM105.74 57.15l.14-1.3-.2.08-4.3 1.73-2.79-.3-.12 1.1 2.74.3 4.06 2.76.13-1.23-2.52-1.63-.48-.3.53-.18ZM10.08 74.57a1.41 1.41 0 1 1-1.41-1.42 1.41 1.41 0 0 1 1.41 1.42ZM98.67 74.57a1.41 1.41 0 1 1-1.41-1.42 1.41 1.41 0 0 1 1.41 1.42Z" style="fill:#002968"/></svg>