<svg xmlns="http://www.w3.org/2000/svg" xml:space="preserve" width="182" height="218" overflow="hidden"><path fill="#FFF" d="M91.423 180.55h1.41c21.984-.1 50.685-20.69 51.242-51.484V55.32l-16.498 19.087v48.461c0 16.66-4.382 21.803-4.382 21.803-.378-.945-2.087-19.992-1.988-38.165v-20.55h-2.266v24.538l-1.471 41.588-2.464 2.924c-.766-8.474-2.624-30.128-3.151-51.186V76.566h-2.504v27.85c.149 29.99-1.213 54.529-1.213 54.529l-2.822 1.611c-1.411-10.702-2.773-30.835-3.289-58.099V68.081h-2.485l-.219 31.124c.18 3.455.18 6.918 0 10.374l-.884 52.719-2.981.487c-1.213-8.018-2.734-34.873-3.14-61.67l-.13-39.071h-2.514v46.331l-1.114 54.211-2.623-.2c-.596-2.267-2.167-22.966-3.22-59.61V68.08h-2.395v34.535c.169 45.806-1.213 58.448-1.213 58.448l-2.116-1.203c-1.362-5.61-3.18-35.75-3.976-56.797V77.47h-2.464v26.509c.288 25.692-1.431 51.026-1.431 51.026l-2.415-2.725c-.885-5.898-2.574-21.972-2.793-44.97V85.956H61.41v21.962l-1.064 36.187c-5.138-3.63-5.138-25.594-5.138-25.594V74.14L37.797 56.424v69.965l-.11.995c.12 25.902 23.266 53.365 53.736 53.166Z"/><path fill="#A72038" d="M181.75 12.936h-10.793l-14.231 14.562V5.973h-13.158l-16.04 18.342V1l-21.785.05-15.076 18.58L74.876 1.05H55.059v24.18L36.743 6.152h-12.66v21.704l-14.57-14.92H.301V120.6l-.07 6.038v.13c0 51.782 40.855 90.734 90.655 91.212 51.499-.478 90.884-40.056 90.884-89.99v-4.574Zm-27.27 84.846v-.139h.576v.2c0 .467.139.695.437.695a3.08 3.08 0 0 0 1.352-.577l4.273-2.616-4.303-2.506a3.532 3.532 0 0 0-1.222-.547c-.318 0-.497.268-.537.796v.228h-.576v-3.63h.576v.219c-.028.381.077.761.298 1.074.449.422.954.78 1.501 1.064l5.078 2.984h4.194a2.167 2.167 0 0 0 1.491-.368 2.55 2.55 0 0 0 .338-1.571v-.15h.566v6.128h-.566v-.16a2.504 2.504 0 0 0-.338-1.561 2.106 2.106 0 0 0-1.491-.368h-4.194l-5.088 3.193c-1.193.746-1.789 1.461-1.789 2.128v.16h-.576Zm13.545 24.23a2.32 2.32 0 0 0-1.461-.318h-9.262a2.37 2.37 0 0 0-1.481.318c-.238.2-.348.637-.348 1.324v.159h-.566v-5.55h.566v.139c-.065.472.06.952.348 1.333.443.273.965.388 1.481.328h9.262a2.238 2.238 0 0 0 1.461-.328c.292-.38.42-.859.358-1.333v-.14h.566v5.55h-.566v-.148a1.743 1.743 0 0 0-.358-1.334Zm.865-14.68v6.067h-.567v-.14a2.469 2.469 0 0 0-.338-1.58 2.073 2.073 0 0 0-1.48-.369h-10.932v1.532a4.62 4.62 0 0 0 .437 2.377 2.353 2.353 0 0 0 1.7.855h.178v.796l-3.259-.367c.159-1.672.238-3.412.238-5.223v-1.989c0-1.81-.079-3.55-.238-5.222l3.259-.359v.737h-.178a2.393 2.393 0 0 0-1.7.865 4.601 4.601 0 0 0-.437 2.378v1.521h10.932a2.073 2.073 0 0 0 1.48-.368c.284-.476.403-1.031.338-1.582v-.139h.567ZM127.528 42.03v-.14l16.497-18.182v17.416l-16.497 18.78ZM111.18 18.079l-.14 22.29-8.189 9.808-9.202-11.05Zm-41.74-.14v-.129l18.147 21.207-9.233 11.05-8.944-10.444Zm-31.633 6.933v-.1L55.059 42.19v18.023L37.807 42.777Zm0 101.458V56.424l17.401 17.715v44.372s0 21.964 5.138 25.594l1.064-36.187V85.956h2.504v21.355c.219 22.998 1.908 39.072 2.793 44.97l2.415 2.725s1.719-25.334 1.43-51.026V77.47h2.505v25.593c.755 21.047 2.574 51.187 3.975 56.797l2.117 1.203s1.381-12.642 1.213-58.448V68.081h2.355v34.684c1.053 36.645 2.624 57.344 3.22 59.612l2.623.2 1.114-54.212V62.034h2.534l.129 39.071c.407 26.856 1.928 53.712 3.14 61.67l2.982-.487.884-52.719c.18-3.456.18-6.919 0-10.374l.219-31.124h2.504v34.386c.517 27.255 1.879 47.397 3.29 58.1l2.822-1.612s1.372-24.529 1.193-54.498V76.596h2.504v27.254c.527 21.057 2.385 42.712 3.151 51.186l2.464-2.924 1.471-41.588V85.956h2.266v20.59c-.119 18.173 1.59 37.22 1.988 38.165 0 0 4.382-5.142 4.382-21.803v-48.46l16.497-19.089V129.105c-.506 30.835-29.257 51.385-51.24 51.485h-1.431c-30.47.198-53.616-27.265-53.735-53.146ZM26.308 97.146c.509.052 1.02-.06 1.461-.318.285-.382.41-.86.348-1.333v-.15h.567v3.601l-10.078 5.123 10.078 5.56v3.492h-.567v-.14a1.851 1.851 0 0 0-.348-1.343 2.335 2.335 0 0 0-1.46-.318h-9.273a2.345 2.345 0 0 0-1.47.318c-.29.384-.419.866-.358 1.343v.14h-.557v-4.576h.557v.13c-.063.476.065.96.357 1.342.44.27.96.381 1.471.318h9.272l-10.285-5.67 11.21-5.729H17.036a2.254 2.254 0 0 0-1.47.328c-.292.387-.42.873-.358 1.353v.12h-.557v-5.401h.557v.159c-.063.477.065.96.357 1.342.567.28 1.202.39 1.829.319ZM10.17 27.409v-.14l13.913 14.513v15.706L10.17 43.851Zm6.46 89.52a7.383 7.383 0 0 1 5.356-1.989 7.373 7.373 0 0 1 5.347 1.99 7.415 7.415 0 0 1 .497 9.747 7.016 7.016 0 0 1-2.584 1.821 8.298 8.298 0 0 1-3.26.677 7.47 7.47 0 0 1-5.356-1.99 7.345 7.345 0 0 1 0-10.255Zm0 25.943c-.22.339-.331.738-.318 1.143v.219h-.557l-.149-3.054 6.718-7.31-4.65.218a2.433 2.433 0 0 0-1.462.388 1.781 1.781 0 0 0-.288 1.343v.159h-.556l-.259-5.55h.567v.189c-.04.466.11.93.417 1.283.454.241.974.325 1.48.238l9.263-.427a2.443 2.443 0 0 0 1.451-.378 1.78 1.78 0 0 0 .288-1.313v-.199h.567l.208 5.461h-.566v-.16a1.85 1.85 0 0 0-.407-1.312 2.394 2.394 0 0 0-1.481-.24l-4.274.2 4.443 4.327c.755.736 1.232 1.094 1.42 1.084.19-.01.428-.299.398-.855v-.14h.567l.189 3.98h-.567v-.16c0-.657-.676-1.581-1.938-2.785l-3.975-3.78-5.217 5.81c-.497.503-.95 1.048-1.352 1.63Zm7.95 22.808-.298-.558 8.746-8.345-12.224.945-.269-.567 9.193-8.574a5.194 5.194 0 0 0 1.063-1.233.996.996 0 0 0 0-.916l-.069-.15.517-.247 1.58 3.321-.507.25-.09-.17c-.387-.666-.765-.905-1.122-.736a3.97 3.97 0 0 0-.994.737l-6.778 6.295 12.075-.994.268.547-8.606 8.216 9.143-1.273c.365-.04.721-.14 1.053-.299.298-.139.467-.308.507-.487 0-.323-.089-.64-.258-.915l-.07-.159.517-.26 2.027 4.338-.517.239-.07-.13a1.075 1.075 0 0 0-.754-.597 4.57 4.57 0 0 0-1.6 0Zm13.417 15.755a6.685 6.685 0 0 1-4.304-2.387 6.806 6.806 0 0 1-1.858-5.222 8.183 8.183 0 0 1 8-7.122 7.329 7.329 0 0 1 6.818 7.668 7.441 7.441 0 0 1-2.684 5.044 8.238 8.238 0 0 1-2.872 1.621 7.212 7.212 0 0 1-3.1.398Zm23.235 2.586a1.78 1.78 0 0 0-1.272-.478 2.323 2.323 0 0 0-1.103.995l-7.027 9.828-1.331-14.92-4.97 6.962c-.346.383-.559.869-.606 1.383 0 .309.328.657.875.995l.14.1-.329.457-3.776-2.706.318-.457.1.069c.341.318.794.49 1.261.477.298-.069.666-.417 1.103-.994l5.615-7.867v-.468a2.318 2.318 0 0 0-.656-1.76l-.149-.1.328-.458 2.346 1.662 1.292 13.626L58 183.902c.347-.378.558-.86.596-1.372 0-.319-.328-.667-.874-1.055l-.12-.09.328-.467 3.777 2.696-.338.467Zm7.573 16.672-7.255-2.746.208-.527a7.116 7.116 0 0 0 2.386.646c.397 0 .695-.318.904-.876l3.826-10.005-2.981-.618.198-.526 5.089.099-4.462 11.697c-.225.401-.19.898.09 1.263.66.474 1.391.839 2.166 1.085Zm11.607-4.586a10.567 10.567 0 0 1-3.488 5.819 5.62 5.62 0 0 1-5.307 1.124 7.146 7.146 0 0 1-.994-.409l.219-.834c.224.19.484.332.765.417a4.14 4.14 0 0 0 3.816-.687 7.63 7.63 0 0 0 1.909-2.307 12.824 12.824 0 0 0 1.41-3.273c.107-.394.184-.796.23-1.204a5.552 5.552 0 0 1-2.167 1.99 3.266 3.266 0 0 1-2.445.25 3.143 3.143 0 0 1-2.107-1.99 5.676 5.676 0 0 1-.09-3.582 5.91 5.91 0 0 1 2.247-3.382 3.815 3.815 0 0 1 3.438-.626 4.097 4.097 0 0 1 2.743 3.044 10.474 10.474 0 0 1-.149 5.65Zm4.532-1.572c1.106.288 2.166.73 3.15 1.313a4.486 4.486 0 0 1 1.67 3.421 5.181 5.181 0 0 1-2.077 3.84 11.141 11.141 0 0 1-6.261 1.91v-.756c6.33-1.532 5.794-4.307 5.794-4.307a3.8 3.8 0 0 0-1.52-3.352c-1.173-.796-1.183-.876-1.988-.895h-.269l.885-6.058 7.026-.14v1.612l-6.36.13-.438 2.884Zm17.103 5.84-2.554-.11-.149 4.068-1.719-.06.15-4.059-6.55-.278v-1.482l6.41-8.664 2.226.07-.298 8.952 2.524.09Zm18.614-2.259a6.105 6.105 0 0 1-3.617 2.426 6.032 6.032 0 0 1-3.806.09 3.346 3.346 0 0 1-1.68-1.223 10.938 10.938 0 0 1-1.192-2.875l-1.809-6.047a2.369 2.369 0 0 0-.736-1.324 1.917 1.917 0 0 0-1.371.05h-.129l-.169-.537 5.297-1.601.169.547-.149.05c-.47.075-.894.327-1.183.706a2.384 2.384 0 0 0 .129 1.502l1.809 6.047c.557 1.851 1.302 3.034 2.206 3.562a3.843 3.843 0 0 0 3.171.248 3.281 3.281 0 0 0 2.216-1.82 5.622 5.622 0 0 0-.129-3.79l-1.988-6.455a2.295 2.295 0 0 0-.726-1.313 1.787 1.787 0 0 0-1.381.049h-.139l-.159-.556 4.581-1.374.169.548h-.119a1.872 1.872 0 0 0-1.193.735 2.267 2.267 0 0 0 .12 1.493l1.729 5.749c.337.992.554 2.02.646 3.064a3.466 3.466 0 0 1-.537 2.05Zm9.163-6.306c.408.636.766.995 1.064 1.074.469.028.931-.125 1.292-.428l.149-.1.308.478-3.896 2.527-.308-.468.099-.06c.557-.358.855-.696.905-.994a2.498 2.498 0 0 0-.557-1.403l-5.277-8.097-.447-.149a2.277 2.277 0 0 0-1.888 0l-.139.09-.309-.477 2.396-1.563 13.167 3.69-4.333-6.643c-.407-.627-.765-.995-1.063-1.055a1.76 1.76 0 0 0-1.312.438l-.129.08-.308-.478 3.886-2.536.308.477-.149.09c-.547.367-.855.706-.905.994.02.514.209 1.007.537 1.402l6.609 10.116-14.341-4.158Zm14.102-6.764-.387-.428.109-.1c.497-.467.736-.854.726-1.164a2.297 2.297 0 0 0-.776-1.292l-6.32-6.764a2.362 2.362 0 0 0-1.242-.876 1.9 1.9 0 0 0-1.213.657l-.109.12-.388-.418 4.045-3.79.378.408-.1.099c-.389.28-.653.702-.735 1.174.107.502.38.955.775 1.283l6.331 6.774c.303.415.737.717 1.232.856.318 0 .715-.19 1.212-.657l.11-.09.387.408Zm11.081-11.937-12.919-2.983c-1.302-.299-2.097-.26-2.375.109l-.08.1-.447-.348 2.673-3.522.467.348-.109.15c-.178.193-.31.424-.388.676a.42.42 0 0 0 .209.418c.413.208.855.352 1.312.427l9.998 2.258-4.969-8.952a3.927 3.927 0 0 0-.656-.995c-.288-.229-.656-.089-1.103.398l-.11.13-.457-.348 2.246-2.985.447.348-.099.13c-.221.28-.318.64-.268.994.126.548.337 1.071.626 1.553l6.39 11.528Zm6.957-11.01-.527-.23.07-.149c.238-.408.302-.895.179-1.352a2.428 2.428 0 0 0-1.272-.856l-8.537-3.51a2.259 2.259 0 0 0-1.481-.26c-.308.11-.586.458-.825 1.055l-.069.16-.517-.21 1.421-3.471c.07-.15.239-.637.527-1.432.288-.796.546-1.523.795-2.11.248-.587.536-1.421.924-2.575l2.981.874-.288.697h-.169a2.86 2.86 0 0 0-1.62 0 1.862 1.862 0 0 0-.894 1.064l-.159.388a8.153 8.153 0 0 0-.765 2.796 1.271 1.271 0 0 0 .864 1.223l4.403 1.82.855-2.079c.339-.608.52-1.293.526-1.99a1.52 1.52 0 0 0-.914-.765l-.129-.06.288-.687 3.369 1.394-.288.685-.139-.059c-.547-.219-.994-.229-1.213 0-.45.5-.789 1.09-.994 1.73l-.854 2.07 5.257 2.168.795-1.92c.42-.865.702-1.792.835-2.745 0-.398-.378-.805-1.054-1.224l-.169-.099.289-.696 2.295 1.263Zm6.221-23.833-7.334 3.063-.348 1.89 4.214.767c.49.165 1.02.165 1.51 0 .269-.16.458-.578.587-1.234v-.08l.556.1-.993 5.381-.547-.11v-.139a1.895 1.895 0 0 0-.109-1.372 2.32 2.32 0 0 0-1.402-.578l-9.053-1.72a2.336 2.336 0 0 0-1.501 0c-.35.326-.56.776-.586 1.253v.14l-.557-.09.994-5.59a8.143 8.143 0 0 1 1.312-3.621 2.352 2.352 0 0 1 2.365-.696 3.682 3.682 0 0 1 2.296 1.314 5.895 5.895 0 0 1 1.123 2.923c.283-.336.618-.625.994-.855a23.28 23.28 0 0 1 2.087-.995l1.629-.696a18.443 18.443 0 0 0 2.177-1.094c.306-.197.521-.509.596-.866v-.109l.547.1Zm.318-4.078-2.643.228v-.775h.149a3.34 3.34 0 0 0 2.643-3.442 3.057 3.057 0 0 0-.626-2.08 2.216 2.216 0 0 0-1.739-.874c-.894 0-1.799.607-2.703 1.92l-1.451 2.089c-.6.948-1.321 1.815-2.147 2.576a2.915 2.915 0 0 1-1.987.556 3.319 3.319 0 0 1-2.773-1.541 6.507 6.507 0 0 1-.914-3.91c.041-1.3.279-2.589.705-3.819l3.091-.109v.766h-.139a3.73 3.73 0 0 0-2.216 1.134 3.49 3.49 0 0 0-.845 2.298c-.049.81.214 1.606.735 2.228a2.496 2.496 0 0 0 1.918.995c.994 0 1.988-.717 2.982-2.238l.994-1.463a14.067 14.067 0 0 1 2.266-2.755 2.696 2.696 0 0 1 1.888-.607 3.08 3.08 0 0 1 2.574 1.492 6.363 6.363 0 0 1 .864 3.74 11.93 11.93 0 0 1-.636 3.571Zm2.157-107.137v15.726L156.577 57.18V41.513l14.072-14.651Z"/><path fill="#A72038" d="M21.936 126.927a8.347 8.347 0 0 0 4.969-1.373 4.118 4.118 0 0 0 1.987-3.492 4.159 4.159 0 0 0-1.987-3.51 8.426 8.426 0 0 0-4.97-1.364 8.433 8.433 0 0 0-4.968 1.363 4.14 4.14 0 0 0 0 6.963 8.37 8.37 0 0 0 4.969 1.413ZM97.912 199.3l.229-6.795-4.88 6.605 4.651.19ZM157.252 137.748a2.256 2.256 0 0 0-2.166.558 5.536 5.536 0 0 0-1.163 2.854l-.149.826 6.142 1.114.387-2.139a3.448 3.448 0 0 0-.924-2.138 3.675 3.675 0 0 0-2.127-1.075ZM77.33 188a2.065 2.065 0 0 0-2.106.557 6.4 6.4 0 0 0-1.511 5.769 2.347 2.347 0 0 0 1.59 1.671 2.285 2.285 0 0 0 2.236-.457 4.77 4.77 0 0 0 1.471-2.586c.32-1.034.32-2.14 0-3.174a2.552 2.552 0 0 0-1.68-1.78ZM44.376 169.52a4.082 4.082 0 0 0-3.767-1.334 8.262 8.262 0 0 0-4.601 2.268 8.216 8.216 0 0 0-2.773 4.307 4.13 4.13 0 0 0 2.73 5.16 4.12 4.12 0 0 0 1.911.121 8.335 8.335 0 0 0 4.602-2.268 8.376 8.376 0 0 0 2.782-4.306 4.14 4.14 0 0 0-.884-3.949Z"/><path fill="#FFF" d="M24.033 41.951v-.14L10.119 27.27v16.582l13.914 13.637V41.951ZM55.06 42.329v-.14L37.806 24.784V42.796l17.252 17.417V42.33ZM156.577 41.643V57.18l14.072-14.384V26.901l-14.072 14.612v.13ZM87.587 39.017 69.43 17.81v21.813l8.924 10.445 9.233-11.051ZM15.565 96.828a1.822 1.822 0 0 1-.357-1.333v-.15h-.557v5.402h.557v-.12c-.063-.48.066-.966.357-1.353.439-.274.958-.39 1.471-.328h10.197l-11.21 5.73 10.285 5.67h-9.272a2.284 2.284 0 0 1-1.47-.32 1.822 1.822 0 0 1-.358-1.342v-.13h-.557v4.577h.557v-.14c-.061-.477.067-.96.357-1.343a2.345 2.345 0 0 1 1.471-.318h9.272a2.335 2.335 0 0 1 1.461.318c.286.386.41.867.348 1.343v.14h.567v-3.511l-10.078-5.561 10.078-5.123v-3.6h-.567v.159c.065.476-.06.958-.348 1.342-.44.26-.952.37-1.46.319h-8.945a3.287 3.287 0 0 1-1.799-.328ZM21.936 129.185a8.298 8.298 0 0 0 3.26-.677 7.016 7.016 0 0 0 2.583-1.82 7.415 7.415 0 0 0-.497-9.748 7.373 7.373 0 0 0-5.346-1.99 7.383 7.383 0 0 0-5.357 1.99 7.345 7.345 0 0 0 0 10.255 7.47 7.47 0 0 0 5.357 1.99Zm-6.877-7.123a4.148 4.148 0 0 1 1.928-3.51 8.433 8.433 0 0 1 4.969-1.364 8.425 8.425 0 0 1 4.969 1.363 4.158 4.158 0 0 1 1.987 3.511 4.117 4.117 0 0 1-1.987 3.492 8.346 8.346 0 0 1-4.97 1.373 8.361 8.361 0 0 1-4.968-1.373 4.127 4.127 0 0 1-1.928-3.492ZM27.153 139.26c1.262 1.205 1.908 2.13 1.938 2.786v.16h.567l-.19-3.98h-.566v.14c0 .556-.109.845-.397.855-.288.01-.666-.349-1.421-1.084l-4.492-4.267 4.273-.2a2.394 2.394 0 0 1 1.48.239c.3.37.446.84.408 1.313v.16h.567l-.269-5.61h-.566v.198c.079.459-.025.93-.288 1.314a2.45 2.45 0 0 1-1.451.377l-9.263.428a2.311 2.311 0 0 1-1.48-.239 1.732 1.732 0 0 1-.418-1.283v-.19h-.566l.258 5.552h.557v-.16a1.782 1.782 0 0 1 .288-1.343 2.432 2.432 0 0 1 1.46-.387l4.652-.22-6.718 7.311.149 3.054h.556v-.16a1.987 1.987 0 0 1 .318-1.142c.419-.585.887-1.13 1.402-1.632l5.257-5.769ZM38.661 163.958c.332.07.612.29.756.598l.07.129.516-.24-2.067-4.296-.517.258.07.16c.17.275.259.592.258.915 0 .18-.209.348-.507.488a3.303 3.303 0 0 1-1.053.298l-9.123 1.233 8.586-8.206-.268-.547-12.075.994 6.738-6.305a3.97 3.97 0 0 1 .994-.737c.358-.17.735.07 1.123.737l.09.169.506-.25-1.58-3.321-.517.248.07.149a.997.997 0 0 1 0 .916c-.288.464-.647.88-1.064 1.233l-9.182 8.584.268.567 12.224-.945-8.696 8.335.288.577 12.492-1.72a4.547 4.547 0 0 1 1.6-.02ZM46.652 174.362a7.329 7.329 0 0 0-6.818-7.668 8.182 8.182 0 0 0-7.95 7.122 6.807 6.807 0 0 0 1.808 5.232 6.685 6.685 0 0 0 4.304 2.387 7.227 7.227 0 0 0 3.14-.358 8.243 8.243 0 0 0 2.822-1.671 7.442 7.442 0 0 0 2.694-5.044Zm-8.776 5.68a4.125 4.125 0 0 1-4.64-5.231 8.214 8.214 0 0 1 2.772-4.357 8.262 8.262 0 0 1 4.601-2.268 4.082 4.082 0 0 1 3.767 1.333 4.14 4.14 0 0 1 .884 3.899 8.382 8.382 0 0 1-2.782 4.307 8.336 8.336 0 0 1-4.602 2.317ZM57.931 181.037l-.328.468.12.089c.546.388.834.736.874 1.055a2.279 2.279 0 0 1-.596 1.372l-4.611 6.466-1.292-13.627-2.346-1.662-.328.458.15.1c.457.467.695 1.107.655 1.76v.468l-5.615 7.868c-.437.616-.805.994-1.103.994a1.79 1.79 0 0 1-1.262-.477l-.1-.07-.317.457 3.776 2.706.338-.468-.139-.099c-.547-.388-.835-.735-.875-.995.047-.514.26-1 .607-1.382l4.969-6.963 1.331 14.92 7.027-9.877a2.312 2.312 0 0 1 1.103-.994c.47-.016.927.156 1.272.477l.139.1.338-.468ZM68.992 200.155a7.786 7.786 0 0 1-2.176-1.094 1.155 1.155 0 0 1-.09-1.263L71.19 186.1 66.1 186l-.2.528 2.982.617-3.836 10.006c-.209.557-.507.855-.904.875a7.092 7.092 0 0 1-2.386-.646l-.208.527 7.284 2.786.2-.518ZM99.9 189.88l-2.226-.07-6.41 8.664v1.482l6.5.258-.14 4.059 1.799.06.149-4.069 2.554.11v-1.482l-2.524-.09Zm-1.988 9.42-4.65-.19 4.879-6.605ZM118.911 187.364a2.26 2.26 0 0 1-.119-1.492 1.87 1.87 0 0 1 1.193-.737h.119l-.169-.547-4.582 1.373.16.557h.139c.435-.201.933-.22 1.381-.05.382.344.637.807.726 1.313l1.987 6.456c.481 1.21.527 2.55.129 3.79a3.278 3.278 0 0 1-2.216 1.82 3.841 3.841 0 0 1-3.17-.25c-.904-.526-1.65-1.71-2.206-3.56l-1.809-6.048c-.205-.473-.25-1-.129-1.501a1.856 1.856 0 0 1 1.182-.707l.149-.05-.169-.546-5.297 1.601.169.537h.13a1.911 1.911 0 0 1 1.371-.05c.383.349.642.813.735 1.323l1.819 6.048c.259 1.01.66 1.978 1.193 2.875a3.338 3.338 0 0 0 1.679 1.223 6.042 6.042 0 0 0 3.807-.09 6.114 6.114 0 0 0 3.617-2.427 3.458 3.458 0 0 0 .596-1.94 13.094 13.094 0 0 0-.646-3.063ZM132.934 178.72a2.34 2.34 0 0 1-.537-1.403c0-.308.358-.647.905-.995l.149-.089-.308-.477-3.886 2.536.308.477.129-.079c.359-.32.833-.477 1.312-.438.298.07.656.428 1.063 1.055l4.333 6.644-13.158-3.73-2.395 1.562.308.477.139-.09a2.279 2.279 0 0 1 1.889 0l.447.15 5.277 8.096c.326.4.52.89.557 1.403 0 .308-.348.646-.905.994l-.099.06.308.468 3.896-2.526-.308-.478-.15.1c-.36.302-.822.455-1.291.427-.299-.09-.656-.438-1.064-1.074l-4.651-7.133 14.341 4.158ZM147.503 180.928c-.497.468-.894.686-1.212.657-.496-.14-.93-.44-1.233-.856l-6.33-6.774a2.289 2.289 0 0 1-.775-1.283c.082-.472.346-.894.735-1.174l.099-.1-.377-.408-4.015 3.79.387.418.11-.119c.307-.363.74-.597 1.212-.657.499.148.936.455 1.242.876l6.321 6.764c.396.331.67.787.775 1.292 0 .31-.228.697-.725 1.164l-.11.1.388.428 4.045-3.8-.388-.408ZM148.388 159.582c-.05-.354.047-.713.268-.994l.099-.13-.447-.299-2.246 2.985.457.348.11-.13c.447-.487.815-.627 1.103-.397.268.296.489.631.656.995l4.969 8.951-10.018-2.377a4.535 4.535 0 0 1-1.312-.428.416.416 0 0 1-.208-.417c.077-.252.209-.483.387-.677l.109-.15-.467-.347-2.673 3.52.447.349.08-.1c.278-.367 1.073-.408 2.375-.108l12.919 2.983.368-.477-6.35-11.538a5.352 5.352 0 0 1-.626-1.562ZM163.146 152.4l.169.1c.675.418.993.825 1.053 1.223a9.208 9.208 0 0 1-.835 2.746l-.795 1.92-5.257-2.17.855-2.068c.204-.64.543-1.231.993-1.73.259-.2.666-.19 1.213 0l.139.06.288-.687-3.369-1.393-.288.686.129.06c.396.12.727.396.914.766a4.138 4.138 0 0 1-.526 1.99l-.855 2.078-4.412-1.8a1.272 1.272 0 0 1-.865-1.223c.086-.97.345-1.917.765-2.796l.159-.387c.15-.458.47-.839.895-1.065a2.86 2.86 0 0 1 1.62 0h.169l.288-.696-2.982-.876c-.387 1.155-.705 1.99-.924 2.577-.219.586-.517 1.283-.795 2.109-.278.825-.457 1.283-.527 1.432l-1.421 3.47.517.21.069-.159c.239-.597.517-.945.825-1.054a2.251 2.251 0 0 1 1.481.258l8.537 3.511c.505.14.952.44 1.272.856.123.457.059.944-.179 1.352l-.069.15.526.229 3.767-9.161-2.296-1.264ZM168.115 135.401c-.075.356-.29.669-.597.866-.7.411-1.427.777-2.176 1.094l-1.63.697c-.706.298-1.411.626-2.087.993-.375.23-.711.519-.994.856a5.902 5.902 0 0 0-1.123-2.924 3.686 3.686 0 0 0-2.295-1.314 2.356 2.356 0 0 0-2.366.697 8.142 8.142 0 0 0-1.311 3.621l-.994 5.59.556.09v-.14c.026-.477.237-.927.587-1.253a2.333 2.333 0 0 1 1.5 0l9.113 1.66a2.32 2.32 0 0 1 1.402.578c.207.427.246.918.109 1.372v.14l.547.11.993-5.382-.556-.1v.08c-.129.656-.318 1.075-.586 1.234a2.366 2.366 0 0 1-1.511 0l-4.214-.766.348-1.89 7.354-3.044.517-2.855-.517-.129Zm-8.169 7.699-6.142-1.114.149-.826a5.528 5.528 0 0 1 1.163-2.854 2.255 2.255 0 0 1 2.166-.558c.809.112 1.557.49 2.127 1.075.546.584.873 1.34.924 2.138ZM165.779 125.335a2.7 2.7 0 0 0-1.888.607 14.103 14.103 0 0 0-2.266 2.755l-.994 1.463c-1.053 1.52-2.057 2.278-2.981 2.238a2.495 2.495 0 0 1-1.918-.995 3.164 3.164 0 0 1-.736-2.228 3.5 3.5 0 0 1 .845-2.298 3.74 3.74 0 0 1 2.216-1.134h.139v-.766l-3.09.11a12.957 12.957 0 0 0-.706 3.82 6.506 6.506 0 0 0 .914 3.908 3.321 3.321 0 0 0 2.773 1.542 2.925 2.925 0 0 0 1.988-.557 12.798 12.798 0 0 0 2.146-2.577l1.451-2.088c.905-1.313 1.809-1.99 2.704-1.92.683.008 1.325.33 1.739.876.456.592.679 1.332.626 2.079a3.342 3.342 0 0 1-2.644 3.44h-.149v.776l2.644-.228c.43-1.168.675-2.397.725-3.641a6.36 6.36 0 0 0-.864-3.74 3.08 3.08 0 0 0-2.674-1.442ZM168.383 123.495h.566v-5.55h-.566v.139c.062.474-.066.954-.358 1.333-.435.274-.95.39-1.461.328h-9.262a2.312 2.312 0 0 1-1.481-.328 1.804 1.804 0 0 1-.348-1.333v-.14h-.566v5.55h.566v-.148c0-.687.11-1.124.348-1.324a2.37 2.37 0 0 1 1.481-.318h9.262a2.32 2.32 0 0 1 1.461.318c.295.375.425.852.358 1.324v.159ZM168.323 107.331a2.51 2.51 0 0 1-.338 1.582 2.078 2.078 0 0 1-1.48.368h-10.932v-1.522a4.6 4.6 0 0 1 .437-2.377 2.396 2.396 0 0 1 1.7-.866h.178v-.776l-3.259.359c.159 1.671.238 3.412.238 5.221v1.99c0 1.81-.079 3.551-.238 5.223l3.259.367v-.796h-.178a2.353 2.353 0 0 1-1.7-.855 4.621 4.621 0 0 1-.437-2.378v-1.561h10.932a2.073 2.073 0 0 1 1.48.368c.287.475.406 1.031.338 1.582v.139h.567v-6.217h-.567ZM155.056 102.457v-.139c0-.667.596-1.382 1.789-2.128l5.088-3.193h4.194a2.106 2.106 0 0 1 1.491.368c.28.47.399 1.018.338 1.561v.16h.566v-6.158h-.566v.15a2.549 2.549 0 0 1-.338 1.571c-.436.3-.966.432-1.491.368h-4.194l-5.078-2.984a6.702 6.702 0 0 1-1.501-1.064 1.651 1.651 0 0 1-.298-1.074v-.22h-.576v3.631h.576v-.228c0-.528.219-.796.537-.796a3.53 3.53 0 0 1 1.222.547l4.303 2.507-4.273 2.616a3.081 3.081 0 0 1-1.352.576c-.298 0-.437-.228-.437-.696v-.199h-.576v4.824h.576ZM77.847 187.364a3.809 3.809 0 0 0-3.438.626 5.904 5.904 0 0 0-2.246 3.382 5.673 5.673 0 0 0 .09 3.58 3.143 3.143 0 0 0 2.106 1.99c.816.238 1.693.15 2.445-.249a5.557 5.557 0 0 0 2.166-1.989c-.043.424-.12.842-.228 1.253a12.828 12.828 0 0 1-1.392 3.293 7.626 7.626 0 0 1-1.908 2.307 4.143 4.143 0 0 1-3.816.687 2.125 2.125 0 0 1-.765-.418l-.219.835c.32.16.653.298.994.409a5.621 5.621 0 0 0 5.287-1.144 12.163 12.163 0 0 0 3.667-11.5 4.096 4.096 0 0 0-2.743-3.062Zm1.163 5.54a4.766 4.766 0 0 1-1.47 2.586c-.611.54-1.463.715-2.237.457a2.347 2.347 0 0 1-1.59-1.671 6.4 6.4 0 0 1 1.51-5.77 2.067 2.067 0 0 1 2.108-.556c.821.273 1.45.942 1.67 1.78a5.375 5.375 0 0 1 .009 3.174ZM91.482 191.123v-1.611l-7.026.139-.884 6.058h.268c.765 0 .775.1 1.987.895a3.8 3.8 0 0 1 1.451 3.332s.537 2.775-5.793 4.307v.756c2.23.004 4.411-.66 6.26-1.91a5.185 5.185 0 0 0 2.068-3.839 4.488 4.488 0 0 0-1.67-3.422 12.245 12.245 0 0 0-3.15-1.313l-.288-.398.437-2.885ZM111.04 40.37l.14-22.291-17.561 21.047 9.232 11.051 8.189-9.808ZM144.025 23.848v-.14l-16.497 18.183v18.014l16.497-18.78V23.848Z"/></svg>