<svg xmlns="http://www.w3.org/2000/svg" width="180.05215mm" height="180.35045mm" viewBox="0 0 180.05215 180.35045"><path d="M0 0c0-13.367-10.832-24.193-24.189-24.193-13.365 0-24.194 10.826-24.194 24.193 0 13.352 10.829 24.187 24.194 24.187C-10.832 24.187 0 13.352 0 0" style="fill:#fff;fill-opacity:1;fill-rule:nonzero;stroke:none" transform="matrix(3.70531 0 0 -3.70531 180.037 89.62)"/><path d="M0 0c0-10.113 8.23-18.352 18.349-18.352 10.122 0 18.353 8.239 18.353 18.352 0 10.115-8.231 18.348-18.353 18.348C8.23 18.348 0 10.115 0 0" style="fill:#fff;fill-opacity:1;fill-rule:nonzero;stroke:none" transform="matrix(3.70531 0 0 -3.70531 22.044 90.319)"/><path d="M0 0a.42.42 0 0 1-.211-.365v-4.482c-.919.504-3.946 2.154-3.946 2.154a.409.409 0 0 1-.405-.007.411.411 0 0 1-.207-.359v-4.979c0-.143.076-.285.207-.355 0 0 4.386-2.566 4.769-2.778v-5.159c0-.145.069-.275.198-.35l4.453-2.801a.416.416 0 0 1 .427-.007.417.417 0 0 1 .213.362v4.466c.928-.523 3.938-2.235 3.938-2.235a.397.397 0 0 1 .415 0 .418.418 0 0 1 .208.364v5.284c0 .146-.08.288-.208.356 0 0-4.08 2.357-4.456 2.584v5.248a.423.423 0 0 1-.216.366L.413 0A.424.424 0 0 1 0 0" style="fill:#fff;fill-opacity:1;fill-rule:nonzero;stroke:none" transform="matrix(3.70531 0 0 -3.70531 100.405 28.667)"/><path d="m0 0-4.564-3.009a.413.413 0 0 1-.184-.345s-.096-4.55-.1-4.963c-.344-.206-4.371-2.771-4.371-2.771a.433.433 0 0 1-.196-.355v-5.294a.418.418 0 0 1 .631-.357s3.022 1.793 3.94 2.336c.023-1.084.096-4.786.096-4.786 0-.147.084-.277.21-.347a.391.391 0 0 1 .414 0L.332-17.3c.13.077.21.206.21.367v5.258c.353.225 4.577 2.884 4.577 2.884a.412.412 0 0 1 .191.348v5.194a.417.417 0 0 1-.208.357c-.142.074-.301.074-.424-.015 0 0-3.079-1.912-4.037-2.496v5.049A.419.419 0 0 1 0 0" style="fill:#fff;fill-opacity:1;fill-rule:nonzero;stroke:none" transform="matrix(3.70531 0 0 -3.70531 65.759 48.297)"/><path d="M0 0s-4.163-2.522-4.56-2.77c-.388.248-4.341 2.666-4.341 2.666a.424.424 0 0 1-.43.008l-4.661-2.697a.413.413 0 0 1-.211-.349v-.009c0-.141.07-.279.193-.351l3.602-2.341-3.502-2.243a.441.441 0 0 1-.191-.356c0-.145.075-.275.191-.35l4.355-2.797a.421.421 0 0 1 .454.003s3.646 2.398 4.034 2.65c.41-.234 4.861-2.871 4.861-2.871a.427.427 0 0 1 .454.017l4.25 3.118a.396.396 0 0 1 .172.333v.018a.42.42 0 0 1-.206.344S1.467-6.231.587-5.726c.864.579 3.999 2.64 3.999 2.64a.4.4 0 0 1 .191.347v.012a.432.432 0 0 1-.212.346L.42.012A.41.41 0 0 1 0 0" style="fill:#fff;fill-opacity:1;fill-rule:nonzero;stroke:none" transform="matrix(3.70531 0 0 -3.70531 119.601 99.76)"/><path d="M0 0a.413.413 0 0 1-.095-.267l.02-.101.028-.119c.039-.161.216-.294.38-.318l.37-.062-.037-.112-.749-1.991-.116-.248-.321.08-.142.056a.413.413 0 0 1-.535-.245l-.037-.099a.423.423 0 0 1 .242-.539L1.74-4.999a.421.421 0 0 1 .54.241l.038.107.026.138-.032.174a.388.388 0 0 1-.234.218l-.12.047-.232.111.091.276L3.002-.533l.026.138a.425.425 0 0 1-.262.389l-.129.054L2.5.074.337.153A.409.409 0 0 1 0 0m.735-.76L.723-.797v.004l.012.033" style="fill:#fff;fill-opacity:1;fill-rule:nonzero;stroke:none" transform="matrix(3.70531 0 0 -3.70531 56.886 154.611)"/><path d="M0 0a1.937 1.937 0 0 1-.903-.548 1.717 1.717 0 0 1-.448-1.189c0-.406.137-.758.414-1.058.312-.319.722-.521 1.223-.599a1.753 1.753 0 0 0-.526-.278c-.293-.093-.656-.145-1.081-.163a.41.41 0 0 1-.399-.355l-.014-.085v-.058c0-.091.031-.185.086-.263a.4.4 0 0 1 .28-.151C-.566-4.84.155-4.8.783-4.622c.661.183 1.185.478 1.565.894.387.412.619.888.694 1.404.058.404 0 .791-.171 1.149a2.028 2.028 0 0 1-.745.852 2.387 2.387 0 0 1-1.055.398A2.284 2.284 0 0 1 0 0m.765-2.229c-.031.046-.09.174-.09.455 0 .116.014.264.042.451.042.284.093.362.108.381h.007l.039-.019c.038-.019.072-.091.083-.192a1.83 1.83 0 0 0 .058-.492c0-.122-.007-.262-.031-.393 0-.004-.027-.133-.046-.278H.903l-.138.087" style="fill:#fff;fill-opacity:1;fill-rule:nonzero;stroke:none" transform="matrix(3.70531 0 0 -3.70531 77.435 158.357)"/><path d="M0 0c-.77-.089-1.45-.306-2.006-.637-.577-.337-1.021-.751-1.305-1.243a2.521 2.521 0 0 1-.36-1.303 2.053 2.053 0 0 1 1.389-2 2.478 2.478 0 0 1 1.148-.107c.37.046.716.161 1.025.347.332.198.574.451.731.764.159.324.216.651.173 1.007-.057.51-.304.903-.717 1.156-.39.24-.841.333-1.345.268h-.007c.114.144.235.277.423.399.245.156.595.311 1.04.454.18.054.29.218.29.393l-.003.057-.011.083a.402.402 0 0 1-.154.278A.417.417 0 0 1 0 0m-1.589-2.953c.109.016.145-.01.175-.038.055-.049.207-.24.28-.857.006-.1.017-.181.017-.235 0-.111-.017-.153-.017-.153l-.019-.023-.054.001c-.027.022-.109.088-.207.328-.091.213-.15.445-.183.687l-.014.29z" style="fill:#fff;fill-opacity:1;fill-rule:nonzero;stroke:none" transform="matrix(3.70531 0 0 -3.70531 105.33 157.503)"/><path d="M0 0c-.711-.321-1.301-.716-1.75-1.184-.464-.487-.766-1.013-.903-1.563a2.917 2.917 0 0 1-.084-.653c0-.34.065-.659.202-.97.153-.358.396-.664.711-.88.32-.231.692-.355 1.092-.371a2.696 2.696 0 0 1 2.018.828c.253.285.416.607.483.942.066.36.025.688-.112 1.014-.201.469-.554.798-1.02.915-.425.125-.888.087-1.354-.117h-.011c.067.169.149.331.294.496.183.229.485.47.867.722.114.09.184.218.184.352l-.032.163-.038.08A.393.393 0 0 1 .318 0 .463.463 0 0 1 0 0m-.688-3.286.17.005c.072-.032.267-.174.508-.741.1-.228.11-.343.11-.373l-.016-.03-.049-.01c-.031.014-.131.058-.286.261a2.38 2.38 0 0 0-.364.602s-.054.133-.102.276l.029.01" style="fill:#fff;fill-opacity:1;fill-rule:nonzero;stroke:none" transform="matrix(3.70531 0 0 -3.70531 121.056 151.236)"/><path d="M0 0c0-9.907-8.026-17.937-17.934-17.937-9.901 0-17.93 8.03-17.93 17.937 0 9.91 8.029 17.935 17.93 17.935C-8.026 17.935 0 9.91 0 0" style="fill:#2a2f88;fill-opacity:1;fill-rule:nonzero;stroke:none" transform="matrix(3.70531 0 0 -3.70531 156.48 90.319)"/><path d="M0 0v-5.181l-4.563 2.488v-4.98l4.975-2.901v-5.391l4.46-2.796v5.188l4.56-2.593v5.284l-4.664 2.7v5.489z" style="fill:#fff;fill-opacity:1;fill-rule:nonzero;stroke:none" transform="matrix(3.70531 0 0 -3.70531 101.18 30.02)"/><path d="M0 0v-5.803l4.67 2.908v-5.194l-4.773-3v-5.489l-4.459-2.602-.103 5.496-4.562-2.699v5.294l4.562 2.896.103 5.185z" style="fill:#fff;fill-opacity:1;fill-rule:nonzero;stroke:none" transform="matrix(3.70531 0 0 -3.70531 66.598 49.61)"/><path d="m0 0 4.67 2.688L9.229-.105l4.773 2.901L18.146.412l-4.562-3.006 4.459-2.593L13.788-8.3 8.71-5.291 4.457-8.086.111-5.291l4.042 2.6z" style="fill:#fff;fill-opacity:1;fill-rule:nonzero;stroke:none" transform="matrix(3.70531 0 0 -3.70531 68.512 111.436)"/><path d="m0 0-.051-.099L-.1-.305l.062-.174a2.493 2.493 0 0 1-.66-.721 2.669 2.669 0 0 1-.383-1.187l-.01-.189c0-.357.083-.688.232-1.005.19-.362.468-.651.821-.865a2.01 2.01 0 0 1 1.434-.247c.653.131 1.192.537 1.59 1.213.216.379.336.75.362 1.11.024.376-.058.755-.237 1.144a.407.407 0 0 1-.262.212.407.407 0 0 1-.336-.031l-.084-.062a.42.42 0 0 1-.182-.485c.12-.354.139-.562.122-.676a1.232 1.232 0 0 0-.17-.488 1.398 1.398 0 0 0-.428-.459.734.734 0 0 0-.452-.117 1.222 1.222 0 0 0-.586.193 1.536 1.536 0 0 0-.554.488c-.105.161-.158.319-.147.463.008.178.061.351.16.524.125.199.262.335.439.417.158.082.373.095.642.039a.417.417 0 0 1 .44.194l.047.077a.422.422 0 0 1 .033.338.41.41 0 0 1-.215.256L.549.159A.433.433 0 0 1 0 0" style="fill:#fff;fill-opacity:1;fill-rule:nonzero;stroke:none" transform="matrix(3.70531 0 0 -3.70531 18.83 41.936)"/><path d="m0 0-.079-.076a.45.45 0 0 1-.108-.293l.024-.141L.874-3.42c.094-.244.097-.347.105-.375L.9-3.925a.516.516 0 0 1-.061-.244c0-.107.035-.22.116-.293l.069-.064c.163-.159.429-.14.586.019l.869.926a.385.385 0 0 1 .107.297.405.405 0 0 1-.129.291l-.066.063c-.146.128-.376.123-.537.009l-.079.214c.194.213.51.546.707.77a1.45 1.45 0 0 1 .25-.079l-.068-.198c0-.113.036-.226.121-.298l.066-.055a.408.408 0 0 1 .585.014l1.089 1.155a.47.47 0 0 1 .115.303.423.423 0 0 1-.135.286l-.068.063a.422.422 0 0 1-.574 0l-.131-.101s-.086-.009-.325.072L.429.115A.44.44 0 0 1 0 0m1.381-1.603.003-.003v-.001z" style="fill:#fff;fill-opacity:1;fill-rule:nonzero;stroke:none" transform="matrix(3.70531 0 0 -3.70531 27.157 31.993)"/><path d="m0 0-2.631-1.961a.422.422 0 0 1-.098-.568l.435-.643a.424.424 0 0 1 .275-.183.438.438 0 0 1 .322.076l.091.071a.416.416 0 0 1 .169.333l-.06.22-.055.122v.004l.02.076.216.179.053.042C-.913-2.694.024-3.955.024-3.955l.033-.066-.119-.079a.425.425 0 0 1-.167-.338l.082-.25.047-.07a.42.42 0 0 1 .59-.085l1.368 1.03a.404.404 0 0 1 .087.575l-.055.068a.39.39 0 0 1-.276.165.377.377 0 0 1-.305-.076l-.115-.089-.008-.002-.043.054S.295-1.977-.14-1.396l.118.087.197.111h.084l.105-.098c.152-.129.386-.154.549-.032l.084.064a.457.457 0 0 1 .168.282.44.44 0 0 1-.094.319l-.498.6A.408.408 0 0 1 0 0" style="fill:#fff;fill-opacity:1;fill-rule:nonzero;stroke:none" transform="matrix(3.70531 0 0 -3.70531 43.487 18.543)"/><path d="m0 0-1.557-.712a.405.405 0 0 1-.213-.229l-.026-.114c-.117.08-.273.114-.41.039l-1.559-.703a.425.425 0 0 1-.221-.235.429.429 0 0 1 .016-.318l.034-.08a.416.416 0 0 1 .555-.205l.126.057h.017l.043-.083.891-1.961.028-.076-.004-.005-.129-.062a.376.376 0 0 1-.218-.231l-.028-.151.043-.17.028-.072a.45.45 0 0 1 .238-.222.41.41 0 0 1 .317.012l1.557.713a.378.378 0 0 1 .218.237l.025.138.091-.088a.468.468 0 0 1 .325.013l1.55.705a.423.423 0 0 1 .207.553l-.04.08a.417.417 0 0 1-.233.222.399.399 0 0 1-.314-.012l-.131-.056h-.009l-.044.075L.277-.983l-.031.08.006.007.13.057A.405.405 0 0 1 .601-.6l.025.14-.036.175L.554-.2A.418.418 0 0 1 0 0m-1.045-1.49.01.005.04-.079s.112-.255.221-.487c-.325-.145-.607-.28-.935-.432l-.224.492-.034.077.008.007.133.06c.101.044.18.133.222.231l.016.121a.395.395 0 0 1 .415-.056zm.698-1.489c.118-.268.25-.544.25-.544l.029-.085v-.005l-.135-.057a.42.42 0 0 1-.234-.356.416.416 0 0 1-.416.058l-.133-.061h-.009l-.04.072-.249.55c.326.146.611.281.937.428" style="fill:#fff;fill-opacity:1;fill-rule:nonzero;stroke:none" transform="matrix(3.70531 0 0 -3.70531 61.004 9.837)"/><path d="M0 0c-.609-.125-1.105-.408-1.474-.834-.442-.524-.604-1.104-.475-1.762.131-.631.47-1.105 1.012-1.415C-.42-4.309.17-4.386.812-4.26c.637.127 1.146.444 1.511.926.384.502.515 1.075.398 1.689-.124.6-.464 1.066-1.013 1.384A2.472 2.472 0 0 1 0 0m-.463-2.284a2.102 2.102 0 0 0-.046.415c0 .221.046.412.141.556.106.167.273.263.508.31.262.05.466.026.629-.085.222-.161.383-.465.476-.918.078-.406.058-.709-.071-.902a.82.82 0 0 0-.568-.364c-.241-.046-.42-.02-.582.091-.243.177-.407.475-.487.897" style="fill:#fff;fill-opacity:1;fill-rule:nonzero;stroke:none" transform="matrix(3.70531 0 0 -3.70531 72.608 6.689)"/><path d="M0 0v-.099c0-.104.04-.212.115-.292a.453.453 0 0 1 .298-.126h.145l.014-.088-.03-2.158-.009-.091-.144.003a.417.417 0 0 1-.427-.404l-.004-.091c0-.113.042-.218.117-.304a.41.41 0 0 1 .296-.117l3.103-.041a.42.42 0 0 1 .394.273l.349.898a.432.432 0 0 1-.02.354.469.469 0 0 1-.291.206l-.094.011c-.166.04-.361-.069-.457-.211l-.215-.334-.177-.104-.528-.027h-.296s-.101.007-.202.007l.029 2.067.004.112.239.026c.222.01.421.192.423.412v.084c0 .23-.184.416-.413.419L.421.406A.415.415 0 0 1 0 0" style="fill:#fff;fill-opacity:1;fill-rule:nonzero;stroke:none" transform="matrix(3.70531 0 0 -3.70531 82.541 6.768)"/><path d="M0 0a.395.395 0 0 1-.162-.267l-.02-.087-.004-.076c0-.2.145-.373.347-.404l.14-.027h.012L.301-.949l-.352-2.13-.026-.082-.002.008-.146.015a.417.417 0 0 1-.476-.34l-.014-.091a.409.409 0 0 1 .343-.478l1.688-.281c.11-.02.221.007.31.071a.423.423 0 0 1 .167.272l.018.089c.018.1-.012.22-.071.309a.436.436 0 0 1-.273.172l-.146.019-.005.009.015.082.346 2.131.026.08.145-.017a.429.429 0 0 1 .313.066.49.49 0 0 1 .172.281l.013.088A.413.413 0 0 1 2-.21L.313.071A.379.379 0 0 1 0 0" style="fill:#fff;fill-opacity:1;fill-rule:nonzero;stroke:none" transform="matrix(3.70531 0 0 -3.70531 99.219 6.229)"/><path d="M0 0a2.199 2.199 0 0 1-1.115-.464 2.089 2.089 0 0 1-.686-.973 2.018 2.018 0 0 1 .048-1.455c.259-.615.765-1.051 1.516-1.311.409-.143.792-.18 1.156-.125.365.054.727.206 1.064.467a.406.406 0 0 1 .171.297.438.438 0 0 1-.113.318l-.074.074a.412.412 0 0 1-.512.077c-.332-.195-.521-.243-.628-.259a1.247 1.247 0 0 0-.517.067 1.282 1.282 0 0 0-.53.327.743.743 0 0 0-.222.427c-.029.179 0 .381.072.604.099.288.222.505.368.648.137.141.273.21.426.234.174.029.349.014.542-.058.219-.07.388-.177.502-.332.11-.15.162-.35.162-.624a.426.426 0 0 1 .288-.39l.083-.03a.409.409 0 0 1 .328.03c.11.054.179.149.21.267l.286 1.113a.41.41 0 0 1-.271.492l-.1.033c-.131.045-.246-.022-.35-.094a2.582 2.582 0 0 1-.858.51A2.74 2.74 0 0 1 0 0" style="fill:#fff;fill-opacity:1;fill-rule:nonzero;stroke:none" transform="matrix(3.70531 0 0 -3.70531 113.272 9.392)"/><path d="m0 0-.055-.072A.397.397 0 0 1-.159-.35v-.025c0-.107.055-.21.141-.285l.107-.1-.055-.068-.863-.978c-.316-.356-.485-.613-.555-.832a1.443 1.443 0 0 1 .027-.969c.114-.31.354-.627.738-.976.356-.316.7-.499 1.036-.577.359-.072.673-.046.928.08.241.116.477.309.741.607l.895 1.013.079.086.111-.105a.401.401 0 0 1 .305-.101c.116 0 .213.05.291.132l.058.074a.414.414 0 0 1-.037.581l-1.06.931a.39.39 0 0 1-.304.11.456.456 0 0 1-.286-.144l-.058-.07a.41.41 0 0 1 .038-.577l.114-.102-.06-.076-.889-1.009c-.264-.303-.392-.365-.423-.381-.061-.023-.163-.012-.294.021-.155.044-.312.14-.466.275a1.03 1.03 0 0 0-.225.277l-.061.197c0 .015.023.083.088.19l.219.308.969 1.091.056.062.109-.101a.417.417 0 0 1 .591.039l.058.062c.08.085.113.191.105.301a.432.432 0 0 1-.139.288L.588.036A.423.423 0 0 1 0 0" style="fill:#fff;fill-opacity:1;fill-rule:nonzero;stroke:none" transform="matrix(3.70531 0 0 -3.70531 137.69 21.495)"/><path d="m0 0-.064-.042a.448.448 0 0 1-.173-.354l.068-.236.085-.138.041-.163-.004-.075-1.746-1.249-.062-.038-.005.012-.076.113a.475.475 0 0 1-.275.173.443.443 0 0 1-.322-.071l-.063-.055a.425.425 0 0 1-.096-.583l.824-1.143a.373.373 0 0 1 .269-.165.423.423 0 0 1 .314.061l.069.056a.428.428 0 0 1 .173.335l-.072.246-.087.118-.006.01.055.04.849.612C-.493-3.609-.78-5.261-.78-5.261l-.002-.071.075-.246.061-.087a.424.424 0 0 1 .584-.101l2.298 1.653.055.035.012-.003.08-.124a.415.415 0 0 1 .58-.091l.072.051a.404.404 0 0 1 .098.572l-.819 1.145a.418.418 0 0 1-.578.106l-.071-.045a.464.464 0 0 1-.174-.279l-.004-.07.076-.238.08-.111.01-.019-.058-.042s-.36-.256-.738-.531l.425 2.46.012.073-.08.245-.629.88A.42.42 0 0 1 0 0" style="fill:#fff;fill-opacity:1;fill-rule:nonzero;stroke:none" transform="matrix(3.70531 0 0 -3.70531 151.777 33.842)"/><path d="m0 0-.078-.037a.4.4 0 0 1-.212-.24l-.028-.138.045-.179.057-.126.009-.004-.075-.042-1.941-.941-.088-.035-.006.007-.057.122a.429.429 0 0 1-.558.203l-.074-.045a.422.422 0 0 1-.222-.231.445.445 0 0 1 .022-.32l.75-1.543a.375.375 0 0 1 .234-.211.437.437 0 0 1 .323.015l.073.037a.445.445 0 0 1 .216.241.403.403 0 0 1-.027.315l-.062.134v.005l.082.042 1.937.94.081.032.073-.133a.42.42 0 0 1 .235-.218.415.415 0 0 1 .326.028l.075.036a.416.416 0 0 1 .184.558L.556-.188A.417.417 0 0 1 0 0" style="fill:#fff;fill-opacity:1;fill-rule:nonzero;stroke:none" transform="matrix(3.70531 0 0 -3.70531 162.755 49.904)"/><path d="m0 0-.08-.026c-.173-.056-.291-.255-.291-.435l.008-.045.018-.163-.01-.052-.144-.136-2.365-2.224a.429.429 0 0 1-.129-.306l.016-.118.033-.114a.404.404 0 0 1 .326-.284l3.119-.554a.745.745 0 0 0 .26-.103l.067-.11c.099-.165.322-.287.505-.228l.082.023a.417.417 0 0 1 .28.513l-.341 1.186a.411.411 0 0 1-.5.286l-.089-.02c-.176-.038-.274-.266-.288-.454l-.065.011s-.706.124-1.308.236c.474.437 1.005.943 1.005.943l.013.013c.092-.178.295-.294.487-.241l.081.023a.455.455 0 0 1 .253.199c.053.1.063.214.033.318L.525-.284a.425.425 0 0 1-.203.256A.426.426 0 0 1 0 0" style="fill:#fff;fill-opacity:1;fill-rule:nonzero;stroke:none" transform="matrix(3.70531 0 0 -3.70531 167.231 58.375)"/><path d="m0 0-.087-.009a.391.391 0 0 1-.289-.146.388.388 0 0 1-.098-.299l.006-.147-.084-.012-2.157-.151-.085-.002-.004.01-.011.15a.416.416 0 0 1-.438.39l-.093-.017a.414.414 0 0 1-.286-.137.413.413 0 0 1-.099-.3l.207-3.083a.427.427 0 0 1 .282-.371l.855-.285a.396.396 0 0 1 .386.057c.107.081.17.206.17.334l-.01.15-.055.144.993.069a.474.474 0 0 1 .128-.268.506.506 0 0 1 .322-.082l.731.082a.427.427 0 0 1 .37.445L.44-.392A.414.414 0 0 1 0 0m-2.741-2.163-.006-.022-.051.016.057.006m.781.053c.018-.229.029-.458.029-.458l-.007-.199-.124-.025c-.176-.056-.319-.224-.319-.408v-.097l-.037.029-.083.134-.047.383c0 .003-.033.421-.051.603.069.001.361.017.639.038m1.48.101c.021-.328.049-.681.049-.681v-.285l-.012-.018-.004-.006a.507.507 0 0 1-.367.296l-.071.002-.029.2s-.018.23-.026.453c.196.017.254.027.46.039" style="fill:#fff;fill-opacity:1;fill-rule:nonzero;stroke:none" transform="matrix(3.70531 0 0 -3.70531 172.384 76.927)"/><path d="m0 0-.229-1.69a.386.386 0 0 1 .083-.308.42.42 0 0 1 .277-.164l.087-.008a.417.417 0 0 1 .464.356l.019.15.089-.005s.154-.023.333-.046c-.481-.31-1.33-.876-1.33-.876a.408.408 0 0 1-.186-.292l-.142-1.066-.008-.055c0-.094.035-.18.095-.259a.405.405 0 0 1 .286-.157l.082-.01a.422.422 0 0 1 .456.332.965.965 0 0 0 .13.344c.039.046.136.153.399.329l.547.359c.049-.127.093-.248.161-.348.193-.276.468-.438.783-.488a1.13 1.13 0 0 1 .835.227c.212.165.378.384.488.651.083.225.161.566.219 1.02l.199 1.451a.368.368 0 0 1-.081.299.4.4 0 0 1-.276.173l-.092.009a.42.42 0 0 1-.463-.365L3.207-.58l-.086.006-2.142.286-.085.023.015.149.006.048a.425.425 0 0 1-.091.259A.351.351 0 0 1 .55.35L.455.363A.417.417 0 0 1 0 0m2.582-2.391H2.58c-.059 0-.118.029-.184.143-.037.056-.063.163-.063.346v.021c.257-.035.365-.049.593-.074l.002-.049c-.026-.158-.071-.264-.149-.335l-.197-.052" style="fill:#fff;fill-opacity:1;fill-rule:nonzero;stroke:none" transform="matrix(3.70531 0 0 -3.70531 159.491 92.964)"/><path d="m0 0-.037-.107-.019-.127.063-.228-.297-.474-.153-.36c-.151-.428-.163-.845-.034-1.223.174-.504.51-.712.759-.8.204-.074.412-.078.626-.035l.535.264-.006-.05.04-.179a.428.428 0 0 1 .239-.215l1.089-.37a.423.423 0 0 1 .317.018.44.44 0 0 1 .206.239l.035.101.023.126-.094.177.021.024c.185.239.327.482.414.722.072.23.114.441.114.651 0 .173-.024.349-.087.513-.165.483-.49.683-.732.766a.997.997 0 0 1-.631.025l-.558-.274-.139-.131.145.204.034.093.021.132a.418.418 0 0 1-.279.398L.534.251A.41.41 0 0 1 0 0m1.681-.952-.495-.476-.464-.465-.143-.075-.034-.003-.027.064-.02.092c0 .091.026.175.047.251.056.142.125.262.223.365l.227.171c.027.004.149.031.402.001a.353.353 0 0 1 .284.075m.46-1.482c.405.433.566.54.615.571l.015-.031.014-.095-.031-.168a.973.973 0 0 0-.193-.318l-.232-.144c-.065-.025-.183-.046-.373-.008l-.013.008c.106.091.198.185.198.185" style="fill:#fff;fill-opacity:1;fill-rule:nonzero;stroke:none" transform="matrix(3.70531 0 0 -3.70531 156.665 108.603)"/><path d="M0 0a.427.427 0 0 1-.247-.207l-.787-1.521a.448.448 0 0 1-.026-.321.474.474 0 0 1 .207-.241l.087-.041a.415.415 0 0 1 .553.183l.069.127v.011l.082-.047 1.912-.985.08-.051-.065-.123-.052-.199.019-.124a.442.442 0 0 1 .207-.249l.076-.034a.414.414 0 0 1 .324-.031.396.396 0 0 1 .238.208l.786 1.519a.423.423 0 0 1-.174.564l-.08.036a.405.405 0 0 1-.312.032.442.442 0 0 1-.251-.209l-.065-.122-.005-.019-.078.038-1.917.998-.079.045.001.012.068.114.049.201a.412.412 0 0 1-.222.366l-.08.042A.41.41 0 0 1 0 0" style="fill:#fff;fill-opacity:1;fill-rule:nonzero;stroke:none" transform="matrix(3.70531 0 0 -3.70531 153.782 118.915)"/><path d="M0 0a.43.43 0 0 1-.27-.166l-1.009-1.381a.417.417 0 0 1 .081-.58l.072-.055a.416.416 0 0 1 .308-.078.408.408 0 0 1 .28.167l.084.116h.004l.06-.031s1.152-.839 1.733-1.268l-.081-.117-.17-.169-.074-.019-.135.058a.446.446 0 0 1-.527-.124l-.061-.086a.426.426 0 0 1-.072-.33.387.387 0 0 1 .178-.265l.653-.437a.422.422 0 0 1 .569.108L3.56-2.008a.424.424 0 0 1-.071.573l-.61.49a.43.43 0 0 1-.317.097.413.413 0 0 1-.276-.173l-.075-.089-.083-.246c0-.116.049-.238.142-.318l.088-.106v-.084l-.147-.225-.044-.055C1.694-1.801.437-.871.437-.871l-.053.037.008.009.07.11.088.246L.549-.4a.465.465 0 0 1-.165.271l-.073.047A.424.424 0 0 1 0 0" style="fill:#fff;fill-opacity:1;fill-rule:nonzero;stroke:none" transform="matrix(3.70531 0 0 -3.70531 148.643 128.45)"/><path d="m0 0-1.281-1.136a.41.41 0 0 1-.031-.579l.055-.069a.435.435 0 0 1 .288-.147.46.46 0 0 1 .305.115l.106.088.009.013.048-.053.48-.534c.011-.231.102-1.436.102-1.436l.013-.376-.053-.165-.051-.082-.04-.041a.394.394 0 0 1-.135-.282v-.028a.43.43 0 0 1 .101-.275l.063-.065c.147-.175.41-.181.583-.037l1.045.941c.084.07.136.173.139.288a.425.425 0 0 1-.107.301l-.054.063c-.119.129-.303.136-.459.08-.012.051-.025.379-.051.71.336-.062.601-.114.7-.129l-.09-.208a.41.41 0 0 1 .102-.27l.057-.064a.41.41 0 0 1 .288-.143.37.37 0 0 1 .299.104l1.288 1.143a.425.425 0 0 1 .033.591l-.06.065c-.154.166-.428.166-.599.03l-.015-.012-.173-.065-.317.055c.002-.003-1.21.228-1.62.301-.127.136-.427.473-.427.473L.5-.784l.114.097a.44.44 0 0 1 .139.314.409.409 0 0 1-.102.276l-.059.066a.407.407 0 0 1-.286.14A.39.39 0 0 1 0 0" style="fill:#fff;fill-opacity:1;fill-rule:nonzero;stroke:none" transform="matrix(3.70531 0 0 -3.70531 138.262 140.427)"/><path d="m0 0-.063-.062A.41.41 0 0 1-.207-.35v-.025a.39.39 0 0 1 .109-.276l.088-.111L0-.775l-.046-.05-1.63-1.464-.052-.041-.009.007-.102.105a.417.417 0 0 1-.284.134.38.38 0 0 1-.302-.107l-.065-.054a.43.43 0 0 1-.028-.598l.753-.835a.401.401 0 0 1 .41-.117S-.01-3.489.81-3.3C.537-4.09.087-5.403.087-5.403l-.022-.138a.42.42 0 0 1 .106-.284l.768-.852a.416.416 0 0 1 .586-.033l.069.064a.39.39 0 0 1 .13.301.509.509 0 0 1-.095.284l-.094.12.043.047 1.628 1.469.057.045.098-.113a.406.406 0 0 1 .286-.144.422.422 0 0 1 .303.113l.064.058a.416.416 0 0 1 .031.589L3.11-2.843a.44.44 0 0 1-.297.15.44.44 0 0 1-.304-.113l-.069-.062a.417.417 0 0 1-.021-.585l.102-.114-.051-.043s-.277-.253-.466-.422l.528 1.509.023.139a.383.383 0 0 1-.108.276l-.066.075a.408.408 0 0 1-.404.132l-.525-.126.183.075.065.053c.09.086.136.196.136.312a.455.455 0 0 1-.107.28L.586-.045A.422.422 0 0 1 0 0m.939-1.813.013-.008.095-.11a.407.407 0 0 1 .282-.129c-.308-.069-.454-.109-.898-.208.186.164.46.412.46.412l.048.043" style="fill:#fff;fill-opacity:1;fill-rule:nonzero;stroke:none" transform="matrix(3.70531 0 0 -3.70531 29.07 129.894)"/><path d="M0 0c-.548-.287-.896-.747-1.04-1.359a2.166 2.166 0 0 1-.071-.565c0-.391.097-.777.295-1.153.281-.542.683-.944 1.203-1.186.624-.28 1.227-.264 1.816.034.574.307.937.768 1.083 1.368.141.583.062 1.174-.24 1.749-.302.57-.741.98-1.317 1.201A2.02 2.02 0 0 1 0 0m.104-2.65a.9.9 0 0 0-.127.431l.03.19c.093.26.343.499.748.715.364.188.665.249.882.177.233-.071.389-.202.516-.448.109-.21.13-.398.071-.578-.098-.282-.341-.519-.727-.722-.369-.192-.687-.255-.951-.178-.191.06-.332.19-.442.413" style="fill:#fff;fill-opacity:1;fill-rule:nonzero;stroke:none" transform="matrix(3.70531 0 0 -3.70531 16.609 118.492)"/><path d="m0 0-.091-.019C-.278-.073-.4-.31-.4-.498l.001-.384c-.013-.095-.063-.28-.215-.579 0-.013-.365-.776-.609-1.304-.108.078-.231.178-.231.178l-.626.449-.279.254-.12.154-.044.122c-.081.2-.312.352-.514.295l-.088-.024a.415.415 0 0 1-.312-.401l.015-.1.366-1.433c.029-.11.1-.198.2-.262l.021-.002-.082-.225.019-.099.424-1.664a.377.377 0 0 1 .189-.249.41.41 0 0 1 .317-.045l.082.017c.191.046.314.22.314.405l-.013.107-.03.142v.004l.078.018 2.092.546.086.01.045-.138a.39.39 0 0 1 .184-.263.438.438 0 0 1 .326-.043l.084.027c.18.055.306.222.306.397l-.018.111-.426 1.647c-.039.169-.169.259-.327.291l.113.082.054.22-.009.099L.499-.305A.416.416 0 0 1 0 0m.32-2.622.09-.039-.112-.079-.06-.209.015-.102.035-.137.002-.011-.083-.027-.191-.047c.157.324.255.529.304.651m-2.535-.731c.106-.078.279-.212.496-.367l-.167-.04-.082-.016-.006.013-.029.126a.458.458 0 0 1-.199.256l-.022.008.009.02" style="fill:#fff;fill-opacity:1;fill-rule:nonzero;stroke:none" transform="matrix(3.70531 0 0 -3.70531 18.042 98.804)"/><path d="M0 0h-.004a1.16 1.16 0 0 1-.792-.372 1.666 1.666 0 0 1-.39-.724c-.059-.247-.079-.566-.059-.967l.07-1.463a.447.447 0 0 1 .138-.288.393.393 0 0 1 .298-.107l.094.004a.422.422 0 0 1 .391.417l-.009.17.088.014 2.154.1.093-.005v-.151a.46.46 0 0 1 .145-.29c.08-.063.19-.11.299-.105l.092.005c.224.011.398.212.394.444l-.088 1.705a.421.421 0 0 1-.436.399l-.082-.002a.428.428 0 0 1-.402-.417L2-1.812l-.087-.011s-.248-.008-.5-.023v.261c-.019.486-.158.869-.401 1.153A1.272 1.272 0 0 1 0 0m-.182-1.709.107.135.199.058a.239.239 0 0 0 .207-.075.324.324 0 0 0 .108-.24v-.062c-.254-.01-.402-.02-.653-.032l.032.216" style="fill:#fff;fill-opacity:1;fill-rule:nonzero;stroke:none" transform="matrix(3.70531 0 0 -3.70531 9.006 87.496)"/><path d="M0 0a2.377 2.377 0 0 1-.838-1.514 3.204 3.204 0 0 1-.036-.459c0-.432.1-.84.304-1.21.331-.601.826-.953 1.493-1.046a2.001 2.001 0 0 1 1.675.445c.456.393.738.915.835 1.555.104.638-.012 1.229-.341 1.742-.343.54-.824.857-1.45.958A1.962 1.962 0 0 1 0 0m.27-2.311a.669.669 0 0 0-.132.42l.016.164c.037.266.133.443.296.566.225.15.566.197 1.025.126.406-.062.683-.19.822-.376.14-.19.183-.404.141-.663-.037-.239-.126-.402-.288-.506-.237-.173-.583-.227-1.009-.159-.416.07-.71.209-.871.428" style="fill:#fff;fill-opacity:1;fill-rule:nonzero;stroke:none" transform="matrix(3.70531 0 0 -3.70531 8.12 71.571)"/><path d="m0 0 1.032-.508L.985-.58C.623-.52.32-.544.075-.66a1.455 1.455 0 0 1-.607-.581c-.132-.238-.212-.465-.217-.706a1.117 1.117 0 0 1 .204-.714c.15-.238.385-.449.695-.633.268-.145.518-.229.768-.245.259-.015.483.049.709.189.225.139.412.338.561.59.129.229.207.444.232.664.017.223-.028.506-.147.846l.093.046c.144-.318.215-.631.198-.92-.02-.314-.121-.612-.308-.93-.341-.571-.777-.905-1.306-1.015a1.523 1.523 0 0 0-1.14.198c-.291.16-.512.398-.659.694-.156.3-.208.62-.189.972.031.347.135.683.33 1.001.146.252.339.465.587.649l.139.125.029.147-.107.186z" style="fill:#2a2f88;fill-opacity:1;fill-rule:nonzero;stroke:none" transform="matrix(3.70531 0 0 -3.70531 20.198 42.725)"/><path d="m0 0-.518 1.428L.925.995Zm1.646.773c.171-.048.283-.096.331-.145l.047-.154C2.013.401 1.95.314 1.851.187l.061-.056 1.089 1.16-.063.059a.658.658 0 0 0-.35-.205c-.109-.017-.286 0-.523.073l-2.978.902-.077-.091L.051-.883c.09-.256.134-.447.12-.577 0-.068-.055-.163-.148-.313l.062-.051.862.92-.062.063C.748-.97.64-1.051.578-1.065l-.163.027c-.051.047-.098.134-.144.27l-.199.566L1.124.93Z" style="fill:#2a2f88;fill-opacity:1;fill-rule:nonzero;stroke:none" transform="matrix(3.70531 0 0 -3.70531 31.68 40.872)"/><path d="m0 0 .499-.604-.091-.063c-.1.096-.178.156-.245.176a.483.483 0 0 1-.325.027.928.928 0 0 1-.359-.182l-.453-.333L.555-3.043c.124-.154.225-.243.295-.25.102-.014.22.028.341.123l.118.087.048-.071-1.37-1.025-.052.07.122.089c.135.097.204.211.21.318.004.067-.047.172-.157.326l-1.536 2.053-.386-.286a2.063 2.063 0 0 1-.302-.261.548.548 0 0 1-.101-.305.6.6 0 0 1 .109-.369l-.091-.066-.435.644z" style="fill:#2a2f88;fill-opacity:1;fill-rule:nonzero;stroke:none" transform="matrix(3.70531 0 0 -3.70531 44.41 19.762)"/><path d="m0 0 1.692.771-.391.863c-.072.153-.128.249-.175.29l-.159.054a.464.464 0 0 1-.269-.067L.566 1.86l-.033.08 1.557.717.034-.088-.131-.056-.218-.171-.065-.154c0-.063.035-.161.106-.314l.893-1.96c.069-.157.125-.26.175-.295l.157-.051c.092 0 .187.029.272.065l.125.059.042-.084-1.56-.712-.034.081.131.059c.142.069.235.152.27.26.019.07-.008.197-.092.387L1.77.601.073-.18.5-1.104c.07-.151.133-.25.175-.291l.152-.034a.443.443 0 0 1 .271.051l.136.059.031-.081-1.549-.712-.04.071.127.064c.151.067.248.163.277.268.023.066-.007.196-.091.376L-.914.63a1.016 1.016 0 0 1-.175.293l-.153.042a.553.553 0 0 1-.274-.061l-.129-.055-.037.076 1.561.711.037-.074-.136-.064-.215-.163-.067-.16A.98.98 0 0 1-.398.864z" style="fill:#2a2f88;fill-opacity:1;fill-rule:nonzero;stroke:none" transform="matrix(3.70531 0 0 -3.70531 53.915 21.058)"/><path d="M0 0c.315-.221.536-.609.645-1.163.107-.531.064-.933-.124-1.221-.195-.3-.479-.473-.843-.548-.342-.069-.643-.019-.905.16-.323.231-.546.618-.658 1.159-.099.521-.052.953.157 1.274.166.258.43.422.779.496C-.575.223-.261.172 0 0m-2.169-.356c-.359-.417-.484-.887-.376-1.405.1-.517.367-.896.799-1.135.434-.251.924-.317 1.467-.205.532.104.955.361 1.263.776.316.394.417.853.323 1.345A1.617 1.617 0 0 1 .497.122C.06.369-.414.438-.931.336-1.444.232-1.857 0-2.169-.356" style="fill:#2a2f88;fill-opacity:1;fill-rule:nonzero;stroke:none" transform="matrix(3.70531 0 0 -3.70531 76.342 9.464)"/><path d="m0 0 .101-.021-.355-.897-3.097.032V-.8h.151c.168-.004.285.048.356.136.049.059.067.173.067.362l.027 2.164c.006.207-.02.34-.074.397a.502.502 0 0 1-.344.109h-.149l.006.089 1.797-.022-.007-.085c-.209 0-.354-.013-.442-.047l-.168-.127c-.035-.049-.052-.173-.054-.375l-.024-2.103a.642.642 0 0 1 .043-.282l.107-.08c.05-.017.205-.026.467-.028h.292c.303-.005.52.007.643.046a.95.95 0 0 1 .344.194C-.207-.356-.108-.2 0 0" style="fill:#2a2f88;fill-opacity:1;fill-rule:nonzero;stroke:none" transform="matrix(3.70531 0 0 -3.70531 96.364 15.908)"/><path d="m0 0-.015-.091-1.686.273.008.086.141-.013c.166-.027.297-.013.378.059.057.037.101.16.133.359l.354 2.14c.025.158.03.276.016.338l-.103.12a.629.629 0 0 1-.256.103l-.144.021.021.085L.531 3.2.52 3.119l-.145.032c-.156.016-.28 0-.371-.067-.057-.05-.106-.167-.134-.364L-.483.586a.992.992 0 0 1-.02-.338l.107-.134A.5.5 0 0 1-.14.02Z" style="fill:#2a2f88;fill-opacity:1;fill-rule:nonzero;stroke:none" transform="matrix(3.70531 0 0 -3.70531 104.404 20.399)"/><path d="m0 0-.289-1.116-.084.025c0 .372-.088.665-.259.878a1.47 1.47 0 0 1-.688.476c-.26.091-.508.109-.747.075-.234-.035-.451-.163-.653-.354-.194-.189-.348-.463-.47-.807a1.695 1.695 0 0 1-.089-.799c.034-.259.146-.477.332-.664.182-.184.413-.323.698-.423.244-.087.478-.111.696-.087.215.025.477.123.795.31l.072-.074a1.936 1.936 0 0 0-.875-.393c-.3-.047-.625-.006-.971.114-.628.213-1.048.576-1.264 1.078a1.563 1.563 0 0 0-.036 1.16c.112.317.292.578.55.776.259.217.562.34.913.387.35.041.695 0 1.052-.112.275-.096.521-.245.756-.449l.147-.105.149.002.161.129z" style="fill:#2a2f88;fill-opacity:1;fill-rule:nonzero;stroke:none" transform="matrix(3.70531 0 0 -3.70531 122.257 12.985)"/><path d="m0 0 .061.07 1.052-.931-.056-.067-.11.106a.444.444 0 0 1-.381.11C.496-.732.407-.804.279-.937L-.62-1.959c-.218-.25-.428-.412-.603-.499-.181-.09-.404-.105-.668-.05-.261.064-.545.214-.843.486-.329.291-.537.555-.624.801a1.113 1.113 0 0 0-.028.701c.052.156.213.384.476.675l.866.982c.134.164.203.286.191.377-.001.09-.062.182-.173.288l-.113.094.056.073L-.798.833-.86.766l-.111.101c-.122.111-.238.149-.348.133-.078-.015-.183-.092-.297-.234L-2.584-.32a2.463 2.463 0 0 1-.261-.366 1.003 1.003 0 0 1-.148-.396.834.834 0 0 1 .093-.386c.067-.138.179-.282.334-.417a1.68 1.68 0 0 1 .623-.36c.22-.064.409-.067.563 0 .157.054.351.221.588.483L.097-.759c.142.162.209.283.199.363-.003.102-.073.199-.183.299z" style="fill:#2a2f88;fill-opacity:1;fill-rule:nonzero;stroke:none" transform="matrix(3.70531 0 0 -3.70531 146.555 29.81)"/><path d="m0 0 .627-.88-.605-3.461L1.597-3.22c.166.12.252.214.262.288.011.11-.031.218-.126.345l-.079.114.072.051.814-1.136-.063-.056-.085.113c-.102.144-.204.212-.316.224-.07.004-.18-.054-.328-.156L-.555-5.076l-.059.088.649 3.727-1.678-1.207c-.17-.111-.257-.213-.268-.286a.525.525 0 0 1 .124-.346l.082-.118-.08-.048-.813 1.147.07.054.083-.12c.099-.135.208-.211.319-.221.067-.006.178.044.326.152L.099-.893c.028.16.034.274.028.337a.941.941 0 0 1-.068.282l-.129.221z" style="fill:#2a2f88;fill-opacity:1;fill-rule:nonzero;stroke:none" transform="matrix(3.70531 0 0 -3.70531 152.692 35.115)"/><path d="m0 0-.079-.034-.747 1.532.083.036.059-.133c.075-.148.161-.236.266-.268.072-.025.203.018.378.112l1.943.939c.156.069.251.129.285.17l.045.164c0 .092-.023.19-.062.27l-.066.124.083.036.741-1.534-.075-.047-.066.144c-.069.145-.154.232-.261.262-.075.019-.197-.011-.38-.093L.206.733C.056.658-.042.601-.081.552L-.123.391c0-.09.019-.182.063-.264z" style="fill:#2a2f88;fill-opacity:1;fill-rule:nonzero;stroke:none" transform="matrix(3.70531 0 0 -3.70531 155.316 62.232)"/><path d="m0 0-.081-.019A.923.923 0 0 1-.28.26a1.133 1.133 0 0 1-.439.16l-3.116.559-.034.109 2.358 2.23c.12.116.199.187.218.23l.066.206a.95.95 0 0 1-.02.287l.08.036.448-1.576-.074-.026c-.07.179-.134.283-.181.325l-.158.038c-.086-.025-.192-.104-.334-.233l-1.608-1.517L-.949.709c.205-.038.343-.043.417-.024l.105.118c.03.076.031.167.009.301l-.009.053.087.023Z" style="fill:#2a2f88;fill-opacity:1;fill-rule:nonzero;stroke:none" transform="matrix(3.70531 0 0 -3.70531 172.022 74.955)"/><path d="m0 0-1.293-.093.061-.875c.012-.221.049-.377.11-.449.082-.096.218-.149.403-.149l.013-.096-1.156-.081-.006.105c.154.037.261.068.305.104l.124.18c.026.081.037.213.026.38l-.064.869-1.093-.072a1.425 1.425 0 0 1-.262-.033l-.07-.096c-.025-.044-.025-.118-.017-.227l.05-.679c.016-.232.037-.389.066-.489a.771.771 0 0 1 .173-.283c.109-.121.269-.229.476-.347l.013-.124-.862.288-.208 3.088.086.007.015-.142A.693.693 0 0 1-3.046.52L-2.91.4c.057-.019.168-.021.331-.013l2.152.145c.216.008.347.046.393.096.061.075.095.205.082.367l-.008.138.085.004.212-3.078-.746-.097v.136a.88.88 0 0 1 .345.159.474.474 0 0 1 .135.23c.018.082.018.223.007.419z" style="fill:#2a2f88;fill-opacity:1;fill-rule:nonzero;stroke:none" transform="matrix(3.70531 0 0 -3.70531 172.022 82.716)"/><path d="M0 0c.017-.192.021-.356.005-.46-.034-.257-.13-.451-.278-.587a.628.628 0 0 0-.539-.162.602.602 0 0 0-.488.355c-.111.207-.144.498-.095.889l.008.059.021.096zm-3.371-2.416c.052.212.12.383.209.509.089.121.259.264.503.417l1.062.696c.019-.341.091-.602.216-.779a.713.713 0 0 1 .503-.315.689.689 0 0 1 .518.142c.153.124.273.285.353.477.075.194.145.492.201.913l.2 1.455-.086.006-.02-.152C.266.803.214.7.13.638.071.598-.06.576-.273.603l-2.136.296c-.192.026-.313.054-.36.11-.078.081-.109.204-.083.382l.017.137-.088.016-.223-1.692.085-.01.019.153c.018.138.07.249.159.316.056.049.19.057.4.023l.958-.126L-1.54.12l-.011-.083a5.095 5.095 0 0 1-.027-.239l-1.731-1.142-.145-1.063z" style="fill:#2a2f88;fill-opacity:1;fill-rule:nonzero;stroke:none" transform="matrix(3.70531 0 0 -3.70531 171.841 98.88)"/><path d="m0 0-1.09.37.04.102c.216-.039.404-.039.561.007.15.047.294.138.415.276.13.136.226.283.284.463a.817.817 0 0 1 .021.53c-.061.165-.148.269-.273.31a.393.393 0 0 1-.306-.031c-.159-.076-.405-.304-.756-.658-.279-.306-.482-.508-.616-.608A.938.938 0 0 0-2.119.56a.758.758 0 0 0-.399.024c-.237.081-.408.269-.503.545-.099.288-.085.603.03.953.046.104.087.212.131.299.027.057.094.163.213.334.111.166.181.266.196.322v.12l-.123.105.033.11 1.08-.38-.032-.096c-.248.03-.439.022-.581-.018a1.015 1.015 0 0 1-.405-.289 1.416 1.416 0 0 1-.305-.512c-.079-.236-.091-.44-.029-.61.054-.173.152-.277.292-.327a.433.433 0 0 1 .262 0 .902.902 0 0 1 .307.154c.068.057.232.227.499.5.261.272.463.467.6.571.137.099.27.169.404.205a.723.723 0 0 0 .394-.012c.225-.078.386-.262.475-.515.097-.271.083-.564-.027-.889A1.934 1.934 0 0 0 .049.556L-.086.354-.089.219.032.097Z" style="fill:#2a2f88;fill-opacity:1;fill-rule:nonzero;stroke:none" transform="matrix(3.70531 0 0 -3.70531 167.55 121.608)"/><path d="m0 0-.073.042.78 1.53.082-.046-.066-.12C.65 1.25.628 1.13.673 1.023.688.957.792.868.97.784l1.918-.99c.15-.084.258-.122.321-.13l.151.061.176.215.067.127.071-.042-.78-1.525-.075.047.062.127c.076.143.096.278.056.375-.027.066-.13.147-.304.236L.714.275C.562.358.459.399.397.401L.242.345.064.137Z" style="fill:#2a2f88;fill-opacity:1;fill-rule:nonzero;stroke:none" transform="matrix(3.70531 0 0 -3.70531 151.618 126.185)"/><path d="m0 0-.649.423.062.097A.869.869 0 0 1-.299.41.672.672 0 0 1 .02.484c.093.06.193.153.287.283l.336.457-2.069 1.512c-.167.118-.289.176-.362.166-.098-.019-.194-.101-.29-.228l-.083-.106-.071.045 1.01 1.379.072-.053-.088-.109c-.1-.142-.13-.267-.115-.37.023-.072.107-.156.256-.267L.975 1.678l.287.393c.11.151.178.268.206.342.029.1.037.212.012.321a.665.665 0 0 1-.218.318l.071.084.601-.488Z" style="fill:#2a2f88;fill-opacity:1;fill-rule:nonzero;stroke:none" transform="matrix(3.70531 0 0 -3.70531 153.405 144.784)"/><path d="m0 0-1.046-.941-.058.069.058.053a.563.563 0 0 1 .125.193c.047.09.084.19.094.293.011.113.01.266-.009.461l-.112 1.581-.57.641c-.141.154-.249.228-.322.228-.105 0-.214-.048-.334-.156l-.102-.096-.057.074 1.279 1.135.061-.07-.114-.088c-.125-.113-.187-.231-.187-.34 0-.071.071-.173.19-.316l.524-.575 1.766-.339c.203-.022.34-.036.401-.036s.168.02.318.072l.143.105.057-.073L.829.737l-.058.06.064.058.153.215-.02.2c-.043.047-.161.081-.348.117l-1.331.257.093-1.299c.009-.189.041-.32.097-.374l.115-.067.146.018.199.136z" style="fill:#2a2f88;fill-opacity:1;fill-rule:nonzero;stroke:none" transform="matrix(3.70531 0 0 -3.70531 143.201 154.648)"/><path d="m0 0-1.051-3.037L.616-1.549c.151.151.226.248.228.323 0 .103-.051.208-.157.331L.593-.79l.061.061.947-1.047-.064-.063-.096.106c-.118.129-.23.184-.341.184-.066-.001-.176-.06-.31-.184L-.839-3.208c-.108-.098-.182-.182-.199-.258l.013-.192c.028-.072.092-.172.205-.298l-.063-.061-.774.858.973 2.819-2.896-.678-.761.847.059.054.097-.097c.117-.132.227-.195.336-.188.072 0 .173.056.316.188l1.627 1.468c.156.138.232.239.232.32 0 .097-.053.205-.157.326l-.095.105.066.061L-.717.795-.784.737l-.092.109c-.119.125-.229.183-.336.179-.071-.002-.178-.069-.315-.189L-3.186-.67l3.118.742z" style="fill:#2a2f88;fill-opacity:1;fill-rule:nonzero;stroke:none" transform="matrix(3.70531 0 0 -3.70531 36.985 138.72)"/><path d="M0 0c.127.369.442.685.948.953.471.243.873.32 1.202.218a1.28 1.28 0 0 0 .757-.664c.163-.31.195-.615.098-.905-.131-.384-.448-.706-.931-.964-.473-.242-.895-.314-1.262-.199-.296.094-.526.296-.692.61C-.063-.609-.1-.289 0 0m.946-1.979c.496-.227.988-.224 1.455.022.462.25.749.613.865 1.093.118.485.047.972-.202 1.463-.258.482-.619.814-1.094 1.001-.479.185-.94.164-1.385-.072A1.605 1.605 0 0 1-.252.447 1.962 1.962 0 0 1-.063-.98c.242-.472.583-.8 1.009-.999" style="fill:#2a2f88;fill-opacity:1;fill-rule:nonzero;stroke:none" transform="matrix(3.70531 0 0 -3.70531 15.176 125.53)"/><path d="m0 0 .812 1.741c.141.277.226.52.253.701.028.176.028.349 0 .518l.084.02.472-1.829-.081-.032a.57.57 0 0 1-.114.23l-.125.051-.092-.062a1.074 1.074 0 0 1-.131-.219L.314-.514l1.052.275c.159.035.27.083.319.122l.072.149a.676.676 0 0 1-.012.271l-.037.134.087.024L2.22-1.2l-.079-.025-.04.145c-.042.16-.111.263-.204.321-.064.031-.203.02-.392-.028l-2.088-.546c-.169-.037-.278-.074-.327-.112l-.07-.143a.748.748 0 0 1 .011-.281l.036-.137-.083-.02-.427 1.656.089.02.031-.135a.608.608 0 0 1 .126-.251l.143-.086c.06-.017.166 0 .327.045l.984.249c-.04.033-.168.139-.403.319-.573.455-.955.72-1.13.8l-.184.032-.084-.079c-.018-.049-.018-.114.012-.221l.021-.084-.083-.013-.369 1.423.087.024.09-.221c.033-.066.092-.136.159-.228.083-.088.193-.187.339-.302.048-.041.262-.195.645-.461Z" style="fill:#2a2f88;fill-opacity:1;fill-rule:nonzero;stroke:none" transform="matrix(3.70531 0 0 -3.70531 14.138 111.356)"/><path d="M0 0a1.484 1.484 0 0 0-.067.381.914.914 0 0 0 .073.438.637.637 0 0 0 .26.308c.126.074.256.13.399.132a.679.679 0 0 0 .531-.196.71.71 0 0 0 .22-.519c.006-.055 0-.115 0-.208-.002-.064-.014-.172-.022-.273Zm1.569.436c.006.106.006.21 0 .31-.018.395-.123.691-.305.897a.82.82 0 0 1-.682.293.709.709 0 0 1-.505-.236 1.201 1.201 0 0 1-.288-.539C-.261.956-.276.673-.261.319l.072-1.468.087.003-.005.156c-.009.152.021.267.086.349.054.048.185.082.396.09l2.158.113c.189.004.311-.007.368-.05.09-.069.145-.185.156-.35l.007-.152h.084L3.064.721h-.081L2.984.56c.007-.147-.019-.261-.091-.346-.049-.052-.176-.083-.39-.094L1.529.071c.022.133.024.248.04.365" style="fill:#2a2f88;fill-opacity:1;fill-rule:nonzero;stroke:none" transform="matrix(3.70531 0 0 -3.70531 6.9 96.22)"/><path d="M0 0c.314.227.758.297 1.326.211.528-.082.895-.269 1.093-.54a1.27 1.27 0 0 0 .222-.984 1.144 1.144 0 0 0-.455-.788c-.338-.231-.777-.305-1.322-.215-.521.085-.903.28-1.136.585-.189.247-.252.55-.197.904.055.371.21.652.469.827m-.414-2.15c.268-.482.661-.76 1.187-.838.52-.085.962.038 1.346.356.378.323.613.752.698 1.302.081.537-.013 1.028-.283 1.459a1.62 1.62 0 0 1-1.159.76C.878.971.446.842.061.514A1.997 1.997 0 0 1-.635-.743c-.076-.526-.005-.988.221-1.407" style="fill:#2a2f88;fill-opacity:1;fill-rule:nonzero;stroke:none" transform="matrix(3.70531 0 0 -3.70531 8.894 74.654)"/><path d="m0 0-1.191-3.146c-.089-.232-.127-.389-.125-.467l.108-.231c.071-.076.21-.15.407-.223l.119-.051-.041-.098-2.739 1.033.042.112.14-.063c.22-.082.385-.123.497-.123.105.007.187.032.245.085.059.061.136.205.225.451l.756 1.988c.074.181.101.303.092.354l-.088.165-.194.13c-.131.049-.299.08-.513.089l-.03.123L-.125.052z" style="fill:#2a2f88;fill-opacity:1;fill-rule:nonzero;stroke:none" transform="matrix(3.70531 0 0 -3.70531 66.573 156.074)"/><path d="M0 0a.578.578 0 0 0-.438.271c-.147.238-.187.635-.108 1.181.041.34.129.545.246.66a.401.401 0 0 0 .331.078.459.459 0 0 0 .25-.097.691.691 0 0 0 .233-.426C.582 1.342.598.99.545.624A7.04 7.04 0 0 0 .432.04C.251 0 .103-.019 0 0m-.177-1.498c.578.161 1.037.422 1.367.776.333.345.527.75.583 1.175.051.339.005.634-.13.919a1.706 1.706 0 0 1-.601.687 2.2 2.2 0 0 1-.878.335 2.124 2.124 0 0 1-.891-.066 1.533 1.533 0 0 1-.718-.431 1.315 1.315 0 0 1-.326-.708c-.05-.386.038-.708.292-.971.239-.257.575-.414.992-.478.135-.018.258-.018.378-.018.12.012.275.04.45.078a1.987 1.987 0 0 0-.495-.702c-.21-.195-.484-.34-.817-.445-.332-.116-.725-.156-1.186-.179l-.016-.084c.755-.089 1.415-.053 1.996.112" style="fill:#2a2f88;fill-opacity:1;fill-rule:nonzero;stroke:none" transform="matrix(3.70531 0 0 -3.70531 80.59 168.445)"/><path d="M0 0a.601.601 0 0 0 .502-.146c.21-.192.341-.56.409-1.117.042-.338.017-.555-.068-.674a.47.47 0 0 0-.314-.208.546.546 0 0 0-.335.073c-.14.099-.258.273-.36.512a3.504 3.504 0 0 0-.204.793c-.016.13-.03.342-.043.618.169.087.306.134.413.149m-.166 1.535C-.683 1.242-1.071.869-1.314.44a2.104 2.104 0 0 1-.294-1.331c.04-.315.149-.596.344-.834.193-.248.452-.431.749-.526.304-.11.626-.138.965-.098.314.041.6.145.858.293.26.16.453.353.578.598.119.24.168.497.13.764-.043.388-.215.674-.521.863C1.194.352.831.417.42.374A2.922 2.922 0 0 1-.104.256a1.6 1.6 0 0 1-.289-.16c.063.317.163.596.309.826.154.227.36.433.643.613.28.183.661.349 1.144.496l-.014.091c-.716-.095-1.335-.29-1.855-.587" style="fill:#2a2f88;fill-opacity:1;fill-rule:nonzero;stroke:none" transform="matrix(3.70531 0 0 -3.70531 99.269 166.889)"/><path d="M0 0a.637.637 0 0 0 .517 0c.253-.126.489-.445.709-.959.13-.311.173-.524.127-.669-.047-.142-.134-.238-.245-.274a.48.48 0 0 0-.343-.031c-.161.053-.318.184-.492.387-.17.201-.309.446-.414.702a5.548 5.548 0 0 0-.217.574c.134.125.25.22.358.27m-.593 1.426C-1.01.991-1.273.525-1.391.047c-.119-.482-.091-.938.094-1.36.124-.285.311-.526.563-.704.261-.192.551-.281.871-.291.325-.016.638.037.953.173.292.125.542.303.741.53.21.214.331.46.382.728.05.262.021.529-.084.767-.153.363-.403.589-.742.687C1.037.67.676.632.293.475a2.772 2.772 0 0 1-.47-.271C-.247.16-.32.074-.412-.023a2.37 2.37 0 0 0 .068.877c.082.261.221.52.445.774.221.25.534.516.951.797l-.034.079C.355 2.217-.181 1.856-.593 1.426" style="fill:#2a2f88;fill-opacity:1;fill-rule:nonzero;stroke:none" transform="matrix(3.70531 0 0 -3.70531 117.89 161.957)"/><path d="M0 0c0 13.421 10.883 24.3 24.298 24.3 13.418 0 24.295-10.879 24.295-24.3 0-13.423-10.877-24.298-24.295-24.298C10.88-24.298 0-13.423 0 0m7.468 16.834A23.713 23.713 0 0 1 .493 0a23.72 23.72 0 0 1 6.975-16.836 23.71 23.71 0 0 1 16.83-6.968 23.72 23.72 0 0 1 16.836 6.968A23.749 23.749 0 0 1 48.109 0c0 6.575-2.67 12.528-6.975 16.834a23.722 23.722 0 0 1-16.836 6.971 23.712 23.712 0 0 1-16.83-6.971" style="fill:#2a2f88;fill-opacity:1;fill-rule:nonzero;stroke:none" transform="matrix(3.70531 0 0 -3.70531 0 90.319)"/><path d="M0 0c0-10.113 8.23-18.352 18.349-18.352 10.122 0 18.353 8.239 18.353 18.352 0 10.115-8.231 18.348-18.353 18.348C8.23 18.348 0 10.115 0 0" style="fill:#fff;fill-opacity:1;fill-rule:nonzero;stroke:none" transform="matrix(3.70531 0 0 -3.70531 22.044 90.319)"/><path d="M0 0a.42.42 0 0 1-.211-.365v-4.482c-.919.504-3.946 2.154-3.946 2.154a.409.409 0 0 1-.405-.007.411.411 0 0 1-.207-.359v-4.979c0-.143.076-.285.207-.355 0 0 4.386-2.566 4.769-2.778v-5.159c0-.145.069-.275.198-.35l4.453-2.801a.416.416 0 0 1 .427-.007.417.417 0 0 1 .213.362v4.466c.928-.523 3.938-2.235 3.938-2.235a.397.397 0 0 1 .415 0 .418.418 0 0 1 .208.364v5.284c0 .146-.08.288-.208.356 0 0-4.08 2.357-4.456 2.584v5.248a.423.423 0 0 1-.216.366L.413 0A.424.424 0 0 1 0 0" style="fill:#fff;fill-opacity:1;fill-rule:nonzero;stroke:none" transform="matrix(3.70531 0 0 -3.70531 100.405 28.667)"/><path d="m0 0-4.564-3.009a.413.413 0 0 1-.184-.345s-.096-4.55-.1-4.963c-.344-.206-4.371-2.771-4.371-2.771a.433.433 0 0 1-.196-.355v-5.294a.418.418 0 0 1 .631-.357s3.022 1.793 3.94 2.336c.023-1.084.096-4.786.096-4.786 0-.147.084-.277.21-.347a.391.391 0 0 1 .414 0L.332-17.3c.13.077.21.206.21.367v5.258c.353.225 4.577 2.884 4.577 2.884a.412.412 0 0 1 .191.348v5.194a.417.417 0 0 1-.208.357c-.142.074-.301.074-.424-.015 0 0-3.079-1.912-4.037-2.496v5.049A.419.419 0 0 1 0 0" style="fill:#fff;fill-opacity:1;fill-rule:nonzero;stroke:none" transform="matrix(3.70531 0 0 -3.70531 65.759 48.297)"/><path d="M0 0s-4.163-2.522-4.56-2.77c-.388.248-4.341 2.666-4.341 2.666a.424.424 0 0 1-.43.008l-4.661-2.697a.413.413 0 0 1-.211-.349v-.009c0-.141.07-.279.193-.351l3.602-2.341-3.502-2.243a.441.441 0 0 1-.191-.356c0-.145.075-.275.191-.35l4.355-2.797a.421.421 0 0 1 .454.003s3.646 2.398 4.034 2.65c.41-.234 4.861-2.871 4.861-2.871a.427.427 0 0 1 .454.017l4.25 3.118a.396.396 0 0 1 .172.333v.018a.42.42 0 0 1-.206.344S1.467-6.231.587-5.726c.864.579 3.999 2.64 3.999 2.64a.4.4 0 0 1 .191.347v.012a.432.432 0 0 1-.212.346L.42.012A.41.41 0 0 1 0 0" style="fill:#fff;fill-opacity:1;fill-rule:nonzero;stroke:none" transform="matrix(3.70531 0 0 -3.70531 119.601 99.76)"/><path d="M0 0a.413.413 0 0 1-.095-.267l.02-.101.028-.119c.039-.161.216-.294.38-.318l.37-.062-.037-.112-.749-1.991-.116-.248-.321.08-.142.056a.413.413 0 0 1-.535-.245l-.037-.099a.423.423 0 0 1 .242-.539L1.74-4.999a.421.421 0 0 1 .54.241l.038.107.026.138-.032.174a.388.388 0 0 1-.234.218l-.12.047-.232.111.091.276L3.002-.533l.026.138a.425.425 0 0 1-.262.389l-.129.054L2.5.074.337.153A.409.409 0 0 1 0 0m.735-.76L.723-.797v.004l.012.033" style="fill:#fff;fill-opacity:1;fill-rule:nonzero;stroke:none" transform="matrix(3.70531 0 0 -3.70531 56.886 154.611)"/><path d="M0 0a1.937 1.937 0 0 1-.903-.548 1.717 1.717 0 0 1-.448-1.189c0-.406.137-.758.414-1.058.312-.319.722-.521 1.223-.599a1.753 1.753 0 0 0-.526-.278c-.293-.093-.656-.145-1.081-.163a.41.41 0 0 1-.399-.355l-.014-.085v-.058c0-.091.031-.185.086-.263a.4.4 0 0 1 .28-.151C-.566-4.84.155-4.8.783-4.622c.661.183 1.185.478 1.565.894.387.412.619.888.694 1.404.058.404 0 .791-.171 1.149a2.028 2.028 0 0 1-.745.852 2.387 2.387 0 0 1-1.055.398A2.284 2.284 0 0 1 0 0m.765-2.229c-.031.046-.09.174-.09.455 0 .116.014.264.042.451.042.284.093.362.108.381h.007l.039-.019c.038-.019.072-.091.083-.192a1.83 1.83 0 0 0 .058-.492c0-.122-.007-.262-.031-.393 0-.004-.027-.133-.046-.278H.903l-.138.087" style="fill:#fff;fill-opacity:1;fill-rule:nonzero;stroke:none" transform="matrix(3.70531 0 0 -3.70531 77.435 158.357)"/><path d="M0 0c-.77-.089-1.45-.306-2.006-.637-.577-.337-1.021-.751-1.305-1.243a2.521 2.521 0 0 1-.36-1.303 2.053 2.053 0 0 1 1.389-2 2.478 2.478 0 0 1 1.148-.107c.37.046.716.161 1.025.347.332.198.574.451.731.764.159.324.216.651.173 1.007-.057.51-.304.903-.717 1.156-.39.24-.841.333-1.345.268h-.007c.114.144.235.277.423.399.245.156.595.311 1.04.454.18.054.29.218.29.393l-.003.057-.011.083a.402.402 0 0 1-.154.278A.417.417 0 0 1 0 0m-1.589-2.953c.109.016.145-.01.175-.038.055-.049.207-.24.28-.857.006-.1.017-.181.017-.235 0-.111-.017-.153-.017-.153l-.019-.023-.054.001c-.027.022-.109.088-.207.328-.091.213-.15.445-.183.687l-.014.29z" style="fill:#fff;fill-opacity:1;fill-rule:nonzero;stroke:none" transform="matrix(3.70531 0 0 -3.70531 105.33 157.503)"/><path d="M0 0c-.711-.321-1.301-.716-1.75-1.184-.464-.487-.766-1.013-.903-1.563a2.917 2.917 0 0 1-.084-.653c0-.34.065-.659.202-.97.153-.358.396-.664.711-.88.32-.231.692-.355 1.092-.371a2.696 2.696 0 0 1 2.018.828c.253.285.416.607.483.942.066.36.025.688-.112 1.014-.201.469-.554.798-1.02.915-.425.125-.888.087-1.354-.117h-.011c.067.169.149.331.294.496.183.229.485.47.867.722.114.09.184.218.184.352l-.032.163-.038.08A.393.393 0 0 1 .318 0 .463.463 0 0 1 0 0m-.688-3.286.17.005c.072-.032.267-.174.508-.741.1-.228.11-.343.11-.373l-.016-.03-.049-.01c-.031.014-.131.058-.286.261a2.38 2.38 0 0 0-.364.602s-.054.133-.102.276l.029.01" style="fill:#fff;fill-opacity:1;fill-rule:nonzero;stroke:none" transform="matrix(3.70531 0 0 -3.70531 121.056 151.236)"/><path d="M0 0c0-9.907-8.026-17.937-17.934-17.937-9.901 0-17.93 8.03-17.93 17.937 0 9.91 8.029 17.935 17.93 17.935C-8.026 17.935 0 9.91 0 0" style="fill:#2a2f88;fill-opacity:1;fill-rule:nonzero;stroke:none" transform="matrix(3.70531 0 0 -3.70531 156.48 90.319)"/><path d="M0 0v-5.181l-4.563 2.488v-4.98l4.975-2.901v-5.391l4.46-2.796v5.188l4.56-2.593v5.284l-4.664 2.7v5.489z" style="fill:#fff;fill-opacity:1;fill-rule:nonzero;stroke:none" transform="matrix(3.70531 0 0 -3.70531 101.18 30.02)"/><path d="M0 0v-5.803l4.67 2.908v-5.194l-4.773-3v-5.489l-4.459-2.602-.103 5.496-4.562-2.699v5.294l4.562 2.896.103 5.185z" style="fill:#fff;fill-opacity:1;fill-rule:nonzero;stroke:none" transform="matrix(3.70531 0 0 -3.70531 66.598 49.61)"/><path d="m0 0 4.67 2.688L9.229-.105l4.773 2.901L18.146.412l-4.562-3.006 4.459-2.593L13.788-8.3 8.71-5.291 4.457-8.086.111-5.291l4.042 2.6z" style="fill:#fff;fill-opacity:1;fill-rule:nonzero;stroke:none" transform="matrix(3.70531 0 0 -3.70531 68.512 111.436)"/><path d="m0 0-.051-.099L-.1-.305l.062-.174a2.493 2.493 0 0 1-.66-.721 2.669 2.669 0 0 1-.383-1.187l-.01-.189c0-.357.083-.688.232-1.005.19-.362.468-.651.821-.865a2.01 2.01 0 0 1 1.434-.247c.653.131 1.192.537 1.59 1.213.216.379.336.75.362 1.11.024.376-.058.755-.237 1.144a.407.407 0 0 1-.262.212.407.407 0 0 1-.336-.031l-.084-.062a.42.42 0 0 1-.182-.485c.12-.354.139-.562.122-.676a1.232 1.232 0 0 0-.17-.488 1.398 1.398 0 0 0-.428-.459.734.734 0 0 0-.452-.117 1.222 1.222 0 0 0-.586.193 1.536 1.536 0 0 0-.554.488c-.105.161-.158.319-.147.463.008.178.061.351.16.524.125.199.262.335.439.417.158.082.373.095.642.039a.417.417 0 0 1 .44.194l.047.077a.422.422 0 0 1 .033.338.41.41 0 0 1-.215.256L.549.159A.433.433 0 0 1 0 0" style="fill:#fff;fill-opacity:1;fill-rule:nonzero;stroke:none" transform="matrix(3.70531 0 0 -3.70531 18.83 41.936)"/><path d="m0 0-.079-.076a.45.45 0 0 1-.108-.293l.024-.141L.874-3.42c.094-.244.097-.347.105-.375L.9-3.925a.516.516 0 0 1-.061-.244c0-.107.035-.22.116-.293l.069-.064c.163-.159.429-.14.586.019l.869.926a.385.385 0 0 1 .107.297.405.405 0 0 1-.129.291l-.066.063c-.146.128-.376.123-.537.009l-.079.214c.194.213.51.546.707.77a1.45 1.45 0 0 1 .25-.079l-.068-.198c0-.113.036-.226.121-.298l.066-.055a.408.408 0 0 1 .585.014l1.089 1.155a.47.47 0 0 1 .115.303.423.423 0 0 1-.135.286l-.068.063a.422.422 0 0 1-.574 0l-.131-.101s-.086-.009-.325.072L.429.115A.44.44 0 0 1 0 0m1.381-1.603.003-.003v-.001z" style="fill:#fff;fill-opacity:1;fill-rule:nonzero;stroke:none" transform="matrix(3.70531 0 0 -3.70531 27.157 31.993)"/><path d="m0 0-2.631-1.961a.422.422 0 0 1-.098-.568l.435-.643a.424.424 0 0 1 .275-.183.438.438 0 0 1 .322.076l.091.071a.416.416 0 0 1 .169.333l-.06.22-.055.122v.004l.02.076.216.179.053.042C-.913-2.694.024-3.955.024-3.955l.033-.066-.119-.079a.425.425 0 0 1-.167-.338l.082-.25.047-.07a.42.42 0 0 1 .59-.085l1.368 1.03a.404.404 0 0 1 .087.575l-.055.068a.39.39 0 0 1-.276.165.377.377 0 0 1-.305-.076l-.115-.089-.008-.002-.043.054S.295-1.977-.14-1.396l.118.087.197.111h.084l.105-.098c.152-.129.386-.154.549-.032l.084.064a.457.457 0 0 1 .168.282.44.44 0 0 1-.094.319l-.498.6A.408.408 0 0 1 0 0" style="fill:#fff;fill-opacity:1;fill-rule:nonzero;stroke:none" transform="matrix(3.70531 0 0 -3.70531 43.487 18.543)"/><path d="m0 0-1.557-.712a.405.405 0 0 1-.213-.229l-.026-.114c-.117.08-.273.114-.41.039l-1.559-.703a.425.425 0 0 1-.221-.235.429.429 0 0 1 .016-.318l.034-.08a.416.416 0 0 1 .555-.205l.126.057h.017l.043-.083.891-1.961.028-.076-.004-.005-.129-.062a.376.376 0 0 1-.218-.231l-.028-.151.043-.17.028-.072a.45.45 0 0 1 .238-.222.41.41 0 0 1 .317.012l1.557.713a.378.378 0 0 1 .218.237l.025.138.091-.088a.468.468 0 0 1 .325.013l1.55.705a.423.423 0 0 1 .207.553l-.04.08a.417.417 0 0 1-.233.222.399.399 0 0 1-.314-.012l-.131-.056h-.009l-.044.075L.277-.983l-.031.08.006.007.13.057A.405.405 0 0 1 .601-.6l.025.14-.036.175L.554-.2A.418.418 0 0 1 0 0m-1.045-1.49.01.005.04-.079s.112-.255.221-.487c-.325-.145-.607-.28-.935-.432l-.224.492-.034.077.008.007.133.06c.101.044.18.133.222.231l.016.121a.395.395 0 0 1 .415-.056zm.698-1.489c.118-.268.25-.544.25-.544l.029-.085v-.005l-.135-.057a.42.42 0 0 1-.234-.356.416.416 0 0 1-.416.058l-.133-.061h-.009l-.04.072-.249.55c.326.146.611.281.937.428" style="fill:#fff;fill-opacity:1;fill-rule:nonzero;stroke:none" transform="matrix(3.70531 0 0 -3.70531 61.004 9.837)"/><path d="M0 0c-.609-.125-1.105-.408-1.474-.834-.442-.524-.604-1.104-.475-1.762.131-.631.47-1.105 1.012-1.415C-.42-4.309.17-4.386.812-4.26c.637.127 1.146.444 1.511.926.384.502.515 1.075.398 1.689-.124.6-.464 1.066-1.013 1.384A2.472 2.472 0 0 1 0 0m-.463-2.284a2.102 2.102 0 0 0-.046.415c0 .221.046.412.141.556.106.167.273.263.508.31.262.05.466.026.629-.085.222-.161.383-.465.476-.918.078-.406.058-.709-.071-.902a.82.82 0 0 0-.568-.364c-.241-.046-.42-.02-.582.091-.243.177-.407.475-.487.897" style="fill:#fff;fill-opacity:1;fill-rule:nonzero;stroke:none" transform="matrix(3.70531 0 0 -3.70531 72.608 6.689)"/><path d="M0 0v-.099c0-.104.04-.212.115-.292a.453.453 0 0 1 .298-.126h.145l.014-.088-.03-2.158-.009-.091-.144.003a.417.417 0 0 1-.427-.404l-.004-.091c0-.113.042-.218.117-.304a.41.41 0 0 1 .296-.117l3.103-.041a.42.42 0 0 1 .394.273l.349.898a.432.432 0 0 1-.02.354.469.469 0 0 1-.291.206l-.094.011c-.166.04-.361-.069-.457-.211l-.215-.334-.177-.104-.528-.027h-.296s-.101.007-.202.007l.029 2.067.004.112.239.026c.222.01.421.192.423.412v.084c0 .23-.184.416-.413.419L.421.406A.415.415 0 0 1 0 0" style="fill:#fff;fill-opacity:1;fill-rule:nonzero;stroke:none" transform="matrix(3.70531 0 0 -3.70531 82.541 6.768)"/><path d="M0 0a.395.395 0 0 1-.162-.267l-.02-.087-.004-.076c0-.2.145-.373.347-.404l.14-.027h.012L.301-.949l-.352-2.13-.026-.082-.002.008-.146.015a.417.417 0 0 1-.476-.34l-.014-.091a.409.409 0 0 1 .343-.478l1.688-.281c.11-.02.221.007.31.071a.423.423 0 0 1 .167.272l.018.089c.018.1-.012.22-.071.309a.436.436 0 0 1-.273.172l-.146.019-.005.009.015.082.346 2.131.026.08.145-.017a.429.429 0 0 1 .313.066.49.49 0 0 1 .172.281l.013.088A.413.413 0 0 1 2-.21L.313.071A.379.379 0 0 1 0 0" style="fill:#fff;fill-opacity:1;fill-rule:nonzero;stroke:none" transform="matrix(3.70531 0 0 -3.70531 99.219 6.229)"/><path d="M0 0a2.199 2.199 0 0 1-1.115-.464 2.089 2.089 0 0 1-.686-.973 2.018 2.018 0 0 1 .048-1.455c.259-.615.765-1.051 1.516-1.311.409-.143.792-.18 1.156-.125.365.054.727.206 1.064.467a.406.406 0 0 1 .171.297.438.438 0 0 1-.113.318l-.074.074a.412.412 0 0 1-.512.077c-.332-.195-.521-.243-.628-.259a1.247 1.247 0 0 0-.517.067 1.282 1.282 0 0 0-.53.327.743.743 0 0 0-.222.427c-.029.179 0 .381.072.604.099.288.222.505.368.648.137.141.273.21.426.234.174.029.349.014.542-.058.219-.07.388-.177.502-.332.11-.15.162-.35.162-.624a.426.426 0 0 1 .288-.39l.083-.03a.409.409 0 0 1 .328.03c.11.054.179.149.21.267l.286 1.113a.41.41 0 0 1-.271.492l-.1.033c-.131.045-.246-.022-.35-.094a2.582 2.582 0 0 1-.858.51A2.74 2.74 0 0 1 0 0" style="fill:#fff;fill-opacity:1;fill-rule:nonzero;stroke:none" transform="matrix(3.70531 0 0 -3.70531 113.272 9.392)"/><path d="m0 0-.055-.072A.397.397 0 0 1-.159-.35v-.025c0-.107.055-.21.141-.285l.107-.1-.055-.068-.863-.978c-.316-.356-.485-.613-.555-.832a1.443 1.443 0 0 1 .027-.969c.114-.31.354-.627.738-.976.356-.316.7-.499 1.036-.577.359-.072.673-.046.928.08.241.116.477.309.741.607l.895 1.013.079.086.111-.105a.401.401 0 0 1 .305-.101c.116 0 .213.05.291.132l.058.074a.414.414 0 0 1-.037.581l-1.06.931a.39.39 0 0 1-.304.11.456.456 0 0 1-.286-.144l-.058-.07a.41.41 0 0 1 .038-.577l.114-.102-.06-.076-.889-1.009c-.264-.303-.392-.365-.423-.381-.061-.023-.163-.012-.294.021-.155.044-.312.14-.466.275a1.03 1.03 0 0 0-.225.277l-.061.197c0 .015.023.083.088.19l.219.308.969 1.091.056.062.109-.101a.417.417 0 0 1 .591.039l.058.062c.08.085.113.191.105.301a.432.432 0 0 1-.139.288L.588.036A.423.423 0 0 1 0 0" style="fill:#fff;fill-opacity:1;fill-rule:nonzero;stroke:none" transform="matrix(3.70531 0 0 -3.70531 137.69 21.495)"/><path d="m0 0-.064-.042a.448.448 0 0 1-.173-.354l.068-.236.085-.138.041-.163-.004-.075-1.746-1.249-.062-.038-.005.012-.076.113a.475.475 0 0 1-.275.173.443.443 0 0 1-.322-.071l-.063-.055a.425.425 0 0 1-.096-.583l.824-1.143a.373.373 0 0 1 .269-.165.423.423 0 0 1 .314.061l.069.056a.428.428 0 0 1 .173.335l-.072.246-.087.118-.006.01.055.04.849.612C-.493-3.609-.78-5.261-.78-5.261l-.002-.071.075-.246.061-.087a.424.424 0 0 1 .584-.101l2.298 1.653.055.035.012-.003.08-.124a.415.415 0 0 1 .58-.091l.072.051a.404.404 0 0 1 .098.572l-.819 1.145a.418.418 0 0 1-.578.106l-.071-.045a.464.464 0 0 1-.174-.279l-.004-.07.076-.238.08-.111.01-.019-.058-.042s-.36-.256-.738-.531l.425 2.46.012.073-.08.245-.629.88A.42.42 0 0 1 0 0" style="fill:#fff;fill-opacity:1;fill-rule:nonzero;stroke:none" transform="matrix(3.70531 0 0 -3.70531 151.777 33.842)"/><path d="m0 0-.078-.037a.4.4 0 0 1-.212-.24l-.028-.138.045-.179.057-.126.009-.004-.075-.042-1.941-.941-.088-.035-.006.007-.057.122a.429.429 0 0 1-.558.203l-.074-.045a.422.422 0 0 1-.222-.231.445.445 0 0 1 .022-.32l.75-1.543a.375.375 0 0 1 .234-.211.437.437 0 0 1 .323.015l.073.037a.445.445 0 0 1 .216.241.403.403 0 0 1-.027.315l-.062.134v.005l.082.042 1.937.94.081.032.073-.133a.42.42 0 0 1 .235-.218.415.415 0 0 1 .326.028l.075.036a.416.416 0 0 1 .184.558L.556-.188A.417.417 0 0 1 0 0" style="fill:#fff;fill-opacity:1;fill-rule:nonzero;stroke:none" transform="matrix(3.70531 0 0 -3.70531 162.755 49.904)"/><path d="m0 0-.08-.026c-.173-.056-.291-.255-.291-.435l.008-.045.018-.163-.01-.052-.144-.136-2.365-2.224a.429.429 0 0 1-.129-.306l.016-.118.033-.114a.404.404 0 0 1 .326-.284l3.119-.554a.745.745 0 0 0 .26-.103l.067-.11c.099-.165.322-.287.505-.228l.082.023a.417.417 0 0 1 .28.513l-.341 1.186a.411.411 0 0 1-.5.286l-.089-.02c-.176-.038-.274-.266-.288-.454l-.065.011s-.706.124-1.308.236c.474.437 1.005.943 1.005.943l.013.013c.092-.178.295-.294.487-.241l.081.023a.455.455 0 0 1 .253.199c.053.1.063.214.033.318L.525-.284a.425.425 0 0 1-.203.256A.426.426 0 0 1 0 0" style="fill:#fff;fill-opacity:1;fill-rule:nonzero;stroke:none" transform="matrix(3.70531 0 0 -3.70531 167.231 58.375)"/><path d="m0 0-.087-.009a.391.391 0 0 1-.289-.146.388.388 0 0 1-.098-.299l.006-.147-.084-.012-2.157-.151-.085-.002-.004.01-.011.15a.416.416 0 0 1-.438.39l-.093-.017a.414.414 0 0 1-.286-.137.413.413 0 0 1-.099-.3l.207-3.083a.427.427 0 0 1 .282-.371l.855-.285a.396.396 0 0 1 .386.057c.107.081.17.206.17.334l-.01.15-.055.144.993.069a.474.474 0 0 1 .128-.268.506.506 0 0 1 .322-.082l.731.082a.427.427 0 0 1 .37.445L.44-.392A.414.414 0 0 1 0 0m-2.741-2.163-.006-.022-.051.016.057.006m.781.053c.018-.229.029-.458.029-.458l-.007-.199-.124-.025c-.176-.056-.319-.224-.319-.408v-.097l-.037.029-.083.134-.047.383c0 .003-.033.421-.051.603.069.001.361.017.639.038m1.48.101c.021-.328.049-.681.049-.681v-.285l-.012-.018-.004-.006a.507.507 0 0 1-.367.296l-.071.002-.029.2s-.018.23-.026.453c.196.017.254.027.46.039" style="fill:#fff;fill-opacity:1;fill-rule:nonzero;stroke:none" transform="matrix(3.70531 0 0 -3.70531 172.384 76.927)"/><path d="m0 0-.229-1.69a.386.386 0 0 1 .083-.308.42.42 0 0 1 .277-.164l.087-.008a.417.417 0 0 1 .464.356l.019.15.089-.005s.154-.023.333-.046c-.481-.31-1.33-.876-1.33-.876a.408.408 0 0 1-.186-.292l-.142-1.066-.008-.055c0-.094.035-.18.095-.259a.405.405 0 0 1 .286-.157l.082-.01a.422.422 0 0 1 .456.332.965.965 0 0 0 .13.344c.039.046.136.153.399.329l.547.359c.049-.127.093-.248.161-.348.193-.276.468-.438.783-.488a1.13 1.13 0 0 1 .835.227c.212.165.378.384.488.651.083.225.161.566.219 1.02l.199 1.451a.368.368 0 0 1-.081.299.4.4 0 0 1-.276.173l-.092.009a.42.42 0 0 1-.463-.365L3.207-.58l-.086.006-2.142.286-.085.023.015.149.006.048a.425.425 0 0 1-.091.259A.351.351 0 0 1 .55.35L.455.363A.417.417 0 0 1 0 0m2.582-2.391H2.58c-.059 0-.118.029-.184.143-.037.056-.063.163-.063.346v.021c.257-.035.365-.049.593-.074l.002-.049c-.026-.158-.071-.264-.149-.335l-.197-.052" style="fill:#fff;fill-opacity:1;fill-rule:nonzero;stroke:none" transform="matrix(3.70531 0 0 -3.70531 159.491 92.964)"/><path d="m0 0-.037-.107-.019-.127.063-.228-.297-.474-.153-.36c-.151-.428-.163-.845-.034-1.223.174-.504.51-.712.759-.8.204-.074.412-.078.626-.035l.535.264-.006-.05.04-.179a.428.428 0 0 1 .239-.215l1.089-.37a.423.423 0 0 1 .317.018.44.44 0 0 1 .206.239l.035.101.023.126-.094.177.021.024c.185.239.327.482.414.722.072.23.114.441.114.651 0 .173-.024.349-.087.513-.165.483-.49.683-.732.766a.997.997 0 0 1-.631.025l-.558-.274-.139-.131.145.204.034.093.021.132a.418.418 0 0 1-.279.398L.534.251A.41.41 0 0 1 0 0m1.681-.952-.495-.476-.464-.465-.143-.075-.034-.003-.027.064-.02.092c0 .091.026.175.047.251.056.142.125.262.223.365l.227.171c.027.004.149.031.402.001a.353.353 0 0 1 .284.075m.46-1.482c.405.433.566.54.615.571l.015-.031.014-.095-.031-.168a.973.973 0 0 0-.193-.318l-.232-.144c-.065-.025-.183-.046-.373-.008l-.013.008c.106.091.198.185.198.185" style="fill:#fff;fill-opacity:1;fill-rule:nonzero;stroke:none" transform="matrix(3.70531 0 0 -3.70531 156.665 108.603)"/><path d="M0 0a.427.427 0 0 1-.247-.207l-.787-1.521a.448.448 0 0 1-.026-.321.474.474 0 0 1 .207-.241l.087-.041a.415.415 0 0 1 .553.183l.069.127v.011l.082-.047 1.912-.985.08-.051-.065-.123-.052-.199.019-.124a.442.442 0 0 1 .207-.249l.076-.034a.414.414 0 0 1 .324-.031.396.396 0 0 1 .238.208l.786 1.519a.423.423 0 0 1-.174.564l-.08.036a.405.405 0 0 1-.312.032.442.442 0 0 1-.251-.209l-.065-.122-.005-.019-.078.038-1.917.998-.079.045.001.012.068.114.049.201a.412.412 0 0 1-.222.366l-.08.042A.41.41 0 0 1 0 0" style="fill:#fff;fill-opacity:1;fill-rule:nonzero;stroke:none" transform="matrix(3.70531 0 0 -3.70531 153.782 118.915)"/><path d="M0 0a.43.43 0 0 1-.27-.166l-1.009-1.381a.417.417 0 0 1 .081-.58l.072-.055a.416.416 0 0 1 .308-.078.408.408 0 0 1 .28.167l.084.116h.004l.06-.031s1.152-.839 1.733-1.268l-.081-.117-.17-.169-.074-.019-.135.058a.446.446 0 0 1-.527-.124l-.061-.086a.426.426 0 0 1-.072-.33.387.387 0 0 1 .178-.265l.653-.437a.422.422 0 0 1 .569.108L3.56-2.008a.424.424 0 0 1-.071.573l-.61.49a.43.43 0 0 1-.317.097.413.413 0 0 1-.276-.173l-.075-.089-.083-.246c0-.116.049-.238.142-.318l.088-.106v-.084l-.147-.225-.044-.055C1.694-1.801.437-.871.437-.871l-.053.037.008.009.07.11.088.246L.549-.4a.465.465 0 0 1-.165.271l-.073.047A.424.424 0 0 1 0 0" style="fill:#fff;fill-opacity:1;fill-rule:nonzero;stroke:none" transform="matrix(3.70531 0 0 -3.70531 148.643 128.45)"/><path d="m0 0-1.281-1.136a.41.41 0 0 1-.031-.579l.055-.069a.435.435 0 0 1 .288-.147.46.46 0 0 1 .305.115l.106.088.009.013.048-.053.48-.534c.011-.231.102-1.436.102-1.436l.013-.376-.053-.165-.051-.082-.04-.041a.394.394 0 0 1-.135-.282v-.028a.43.43 0 0 1 .101-.275l.063-.065c.147-.175.41-.181.583-.037l1.045.941c.084.07.136.173.139.288a.425.425 0 0 1-.107.301l-.054.063c-.119.129-.303.136-.459.08-.012.051-.025.379-.051.71.336-.062.601-.114.7-.129l-.09-.208a.41.41 0 0 1 .102-.27l.057-.064a.41.41 0 0 1 .288-.143.37.37 0 0 1 .299.104l1.288 1.143a.425.425 0 0 1 .033.591l-.06.065c-.154.166-.428.166-.599.03l-.015-.012-.173-.065-.317.055c.002-.003-1.21.228-1.62.301-.127.136-.427.473-.427.473L.5-.784l.114.097a.44.44 0 0 1 .139.314.409.409 0 0 1-.102.276l-.059.066a.407.407 0 0 1-.286.14A.39.39 0 0 1 0 0" style="fill:#fff;fill-opacity:1;fill-rule:nonzero;stroke:none" transform="matrix(3.70531 0 0 -3.70531 138.262 140.427)"/><path d="m0 0-.063-.062A.41.41 0 0 1-.207-.35v-.025a.39.39 0 0 1 .109-.276l.088-.111L0-.775l-.046-.05-1.63-1.464-.052-.041-.009.007-.102.105a.417.417 0 0 1-.284.134.38.38 0 0 1-.302-.107l-.065-.054a.43.43 0 0 1-.028-.598l.753-.835a.401.401 0 0 1 .41-.117S-.01-3.489.81-3.3C.537-4.09.087-5.403.087-5.403l-.022-.138a.42.42 0 0 1 .106-.284l.768-.852a.416.416 0 0 1 .586-.033l.069.064a.39.39 0 0 1 .13.301.509.509 0 0 1-.095.284l-.094.12.043.047 1.628 1.469.057.045.098-.113a.406.406 0 0 1 .286-.144.422.422 0 0 1 .303.113l.064.058a.416.416 0 0 1 .031.589L3.11-2.843a.44.44 0 0 1-.297.15.44.44 0 0 1-.304-.113l-.069-.062a.417.417 0 0 1-.021-.585l.102-.114-.051-.043s-.277-.253-.466-.422l.528 1.509.023.139a.383.383 0 0 1-.108.276l-.066.075a.408.408 0 0 1-.404.132l-.525-.126.183.075.065.053c.09.086.136.196.136.312a.455.455 0 0 1-.107.28L.586-.045A.422.422 0 0 1 0 0m.939-1.813.013-.008.095-.11a.407.407 0 0 1 .282-.129c-.308-.069-.454-.109-.898-.208.186.164.46.412.46.412l.048.043" style="fill:#fff;fill-opacity:1;fill-rule:nonzero;stroke:none" transform="matrix(3.70531 0 0 -3.70531 29.07 129.894)"/><path d="M0 0c-.548-.287-.896-.747-1.04-1.359a2.166 2.166 0 0 1-.071-.565c0-.391.097-.777.295-1.153.281-.542.683-.944 1.203-1.186.624-.28 1.227-.264 1.816.034.574.307.937.768 1.083 1.368.141.583.062 1.174-.24 1.749-.302.57-.741.98-1.317 1.201A2.02 2.02 0 0 1 0 0m.104-2.65a.9.9 0 0 0-.127.431l.03.19c.093.26.343.499.748.715.364.188.665.249.882.177.233-.071.389-.202.516-.448.109-.21.13-.398.071-.578-.098-.282-.341-.519-.727-.722-.369-.192-.687-.255-.951-.178-.191.06-.332.19-.442.413" style="fill:#fff;fill-opacity:1;fill-rule:nonzero;stroke:none" transform="matrix(3.70531 0 0 -3.70531 16.609 118.492)"/><path d="m0 0-.091-.019C-.278-.073-.4-.31-.4-.498l.001-.384c-.013-.095-.063-.28-.215-.579 0-.013-.365-.776-.609-1.304-.108.078-.231.178-.231.178l-.626.449-.279.254-.12.154-.044.122c-.081.2-.312.352-.514.295l-.088-.024a.415.415 0 0 1-.312-.401l.015-.1.366-1.433c.029-.11.1-.198.2-.262l.021-.002-.082-.225.019-.099.424-1.664a.377.377 0 0 1 .189-.249.41.41 0 0 1 .317-.045l.082.017c.191.046.314.22.314.405l-.013.107-.03.142v.004l.078.018 2.092.546.086.01.045-.138a.39.39 0 0 1 .184-.263.438.438 0 0 1 .326-.043l.084.027c.18.055.306.222.306.397l-.018.111-.426 1.647c-.039.169-.169.259-.327.291l.113.082.054.22-.009.099L.499-.305A.416.416 0 0 1 0 0m.32-2.622.09-.039-.112-.079-.06-.209.015-.102.035-.137.002-.011-.083-.027-.191-.047c.157.324.255.529.304.651m-2.535-.731c.106-.078.279-.212.496-.367l-.167-.04-.082-.016-.006.013-.029.126a.458.458 0 0 1-.199.256l-.022.008.009.02" style="fill:#fff;fill-opacity:1;fill-rule:nonzero;stroke:none" transform="matrix(3.70531 0 0 -3.70531 18.042 98.804)"/><path d="M0 0h-.004a1.16 1.16 0 0 1-.792-.372 1.666 1.666 0 0 1-.39-.724c-.059-.247-.079-.566-.059-.967l.07-1.463a.447.447 0 0 1 .138-.288.393.393 0 0 1 .298-.107l.094.004a.422.422 0 0 1 .391.417l-.009.17.088.014 2.154.1.093-.005v-.151a.46.46 0 0 1 .145-.29c.08-.063.19-.11.299-.105l.092.005c.224.011.398.212.394.444l-.088 1.705a.421.421 0 0 1-.436.399l-.082-.002a.428.428 0 0 1-.402-.417L2-1.812l-.087-.011s-.248-.008-.5-.023v.261c-.019.486-.158.869-.401 1.153A1.272 1.272 0 0 1 0 0m-.182-1.709.107.135.199.058a.239.239 0 0 0 .207-.075.324.324 0 0 0 .108-.24v-.062c-.254-.01-.402-.02-.653-.032l.032.216" style="fill:#fff;fill-opacity:1;fill-rule:nonzero;stroke:none" transform="matrix(3.70531 0 0 -3.70531 9.006 87.496)"/><path d="M0 0a2.377 2.377 0 0 1-.838-1.514 3.204 3.204 0 0 1-.036-.459c0-.432.1-.84.304-1.21.331-.601.826-.953 1.493-1.046a2.001 2.001 0 0 1 1.675.445c.456.393.738.915.835 1.555.104.638-.012 1.229-.341 1.742-.343.54-.824.857-1.45.958A1.962 1.962 0 0 1 0 0m.27-2.311a.669.669 0 0 0-.132.42l.016.164c.037.266.133.443.296.566.225.15.566.197 1.025.126.406-.062.683-.19.822-.376.14-.19.183-.404.141-.663-.037-.239-.126-.402-.288-.506-.237-.173-.583-.227-1.009-.159-.416.07-.71.209-.871.428" style="fill:#fff;fill-opacity:1;fill-rule:nonzero;stroke:none" transform="matrix(3.70531 0 0 -3.70531 8.12 71.571)"/><path d="m0 0 1.032-.508L.985-.58C.623-.52.32-.544.075-.66a1.455 1.455 0 0 1-.607-.581c-.132-.238-.212-.465-.217-.706a1.117 1.117 0 0 1 .204-.714c.15-.238.385-.449.695-.633.268-.145.518-.229.768-.245.259-.015.483.049.709.189.225.139.412.338.561.59.129.229.207.444.232.664.017.223-.028.506-.147.846l.093.046c.144-.318.215-.631.198-.92-.02-.314-.121-.612-.308-.93-.341-.571-.777-.905-1.306-1.015a1.523 1.523 0 0 0-1.14.198c-.291.16-.512.398-.659.694-.156.3-.208.62-.189.972.031.347.135.683.33 1.001.146.252.339.465.587.649l.139.125.029.147-.107.186z" style="fill:#2a2f88;fill-opacity:1;fill-rule:nonzero;stroke:none" transform="matrix(3.70531 0 0 -3.70531 20.198 42.725)"/><path d="m0 0-.518 1.428L.925.995Zm1.646.773c.171-.048.283-.096.331-.145l.047-.154C2.013.401 1.95.314 1.851.187l.061-.056 1.089 1.16-.063.059a.658.658 0 0 0-.35-.205c-.109-.017-.286 0-.523.073l-2.978.902-.077-.091L.051-.883c.09-.256.134-.447.12-.577 0-.068-.055-.163-.148-.313l.062-.051.862.92-.062.063C.748-.97.64-1.051.578-1.065l-.163.027c-.051.047-.098.134-.144.27l-.199.566L1.124.93Z" style="fill:#2a2f88;fill-opacity:1;fill-rule:nonzero;stroke:none" transform="matrix(3.70531 0 0 -3.70531 31.68 40.872)"/><path d="m0 0 .499-.604-.091-.063c-.1.096-.178.156-.245.176a.483.483 0 0 1-.325.027.928.928 0 0 1-.359-.182l-.453-.333L.555-3.043c.124-.154.225-.243.295-.25.102-.014.22.028.341.123l.118.087.048-.071-1.37-1.025-.052.07.122.089c.135.097.204.211.21.318.004.067-.047.172-.157.326l-1.536 2.053-.386-.286a2.063 2.063 0 0 1-.302-.261.548.548 0 0 1-.101-.305.6.6 0 0 1 .109-.369l-.091-.066-.435.644z" style="fill:#2a2f88;fill-opacity:1;fill-rule:nonzero;stroke:none" transform="matrix(3.70531 0 0 -3.70531 44.41 19.762)"/><path d="m0 0 1.692.771-.391.863c-.072.153-.128.249-.175.29l-.159.054a.464.464 0 0 1-.269-.067L.566 1.86l-.033.08 1.557.717.034-.088-.131-.056-.218-.171-.065-.154c0-.063.035-.161.106-.314l.893-1.96c.069-.157.125-.26.175-.295l.157-.051c.092 0 .187.029.272.065l.125.059.042-.084-1.56-.712-.034.081.131.059c.142.069.235.152.27.26.019.07-.008.197-.092.387L1.77.601.073-.18.5-1.104c.07-.151.133-.25.175-.291l.152-.034a.443.443 0 0 1 .271.051l.136.059.031-.081-1.549-.712-.04.071.127.064c.151.067.248.163.277.268.023.066-.007.196-.091.376L-.914.63a1.016 1.016 0 0 1-.175.293l-.153.042a.553.553 0 0 1-.274-.061l-.129-.055-.037.076 1.561.711.037-.074-.136-.064-.215-.163-.067-.16A.98.98 0 0 1-.398.864z" style="fill:#2a2f88;fill-opacity:1;fill-rule:nonzero;stroke:none" transform="matrix(3.70531 0 0 -3.70531 53.915 21.058)"/><path d="M0 0c.315-.221.536-.609.645-1.163.107-.531.064-.933-.124-1.221-.195-.3-.479-.473-.843-.548-.342-.069-.643-.019-.905.16-.323.231-.546.618-.658 1.159-.099.521-.052.953.157 1.274.166.258.43.422.779.496C-.575.223-.261.172 0 0m-2.169-.356c-.359-.417-.484-.887-.376-1.405.1-.517.367-.896.799-1.135.434-.251.924-.317 1.467-.205.532.104.955.361 1.263.776.316.394.417.853.323 1.345A1.617 1.617 0 0 1 .497.122C.06.369-.414.438-.931.336-1.444.232-1.857 0-2.169-.356" style="fill:#2a2f88;fill-opacity:1;fill-rule:nonzero;stroke:none" transform="matrix(3.70531 0 0 -3.70531 76.342 9.464)"/><path d="m0 0 .101-.021-.355-.897-3.097.032V-.8h.151c.168-.004.285.048.356.136.049.059.067.173.067.362l.027 2.164c.006.207-.02.34-.074.397a.502.502 0 0 1-.344.109h-.149l.006.089 1.797-.022-.007-.085c-.209 0-.354-.013-.442-.047l-.168-.127c-.035-.049-.052-.173-.054-.375l-.024-2.103a.642.642 0 0 1 .043-.282l.107-.08c.05-.017.205-.026.467-.028h.292c.303-.005.52.007.643.046a.95.95 0 0 1 .344.194C-.207-.356-.108-.2 0 0" style="fill:#2a2f88;fill-opacity:1;fill-rule:nonzero;stroke:none" transform="matrix(3.70531 0 0 -3.70531 96.364 15.908)"/><path d="m0 0-.015-.091-1.686.273.008.086.141-.013c.166-.027.297-.013.378.059.057.037.101.16.133.359l.354 2.14c.025.158.03.276.016.338l-.103.12a.629.629 0 0 1-.256.103l-.144.021.021.085L.531 3.2.52 3.119l-.145.032c-.156.016-.28 0-.371-.067-.057-.05-.106-.167-.134-.364L-.483.586a.992.992 0 0 1-.02-.338l.107-.134A.5.5 0 0 1-.14.02Z" style="fill:#2a2f88;fill-opacity:1;fill-rule:nonzero;stroke:none" transform="matrix(3.70531 0 0 -3.70531 104.404 20.399)"/><path d="m0 0-.289-1.116-.084.025c0 .372-.088.665-.259.878a1.47 1.47 0 0 1-.688.476c-.26.091-.508.109-.747.075-.234-.035-.451-.163-.653-.354-.194-.189-.348-.463-.47-.807a1.695 1.695 0 0 1-.089-.799c.034-.259.146-.477.332-.664.182-.184.413-.323.698-.423.244-.087.478-.111.696-.087.215.025.477.123.795.31l.072-.074a1.936 1.936 0 0 0-.875-.393c-.3-.047-.625-.006-.971.114-.628.213-1.048.576-1.264 1.078a1.563 1.563 0 0 0-.036 1.16c.112.317.292.578.55.776.259.217.562.34.913.387.35.041.695 0 1.052-.112.275-.096.521-.245.756-.449l.147-.105.149.002.161.129z" style="fill:#2a2f88;fill-opacity:1;fill-rule:nonzero;stroke:none" transform="matrix(3.70531 0 0 -3.70531 122.257 12.985)"/><path d="m0 0 .061.07 1.052-.931-.056-.067-.11.106a.444.444 0 0 1-.381.11C.496-.732.407-.804.279-.937L-.62-1.959c-.218-.25-.428-.412-.603-.499-.181-.09-.404-.105-.668-.05-.261.064-.545.214-.843.486-.329.291-.537.555-.624.801a1.113 1.113 0 0 0-.028.701c.052.156.213.384.476.675l.866.982c.134.164.203.286.191.377-.001.09-.062.182-.173.288l-.113.094.056.073L-.798.833-.86.766l-.111.101c-.122.111-.238.149-.348.133-.078-.015-.183-.092-.297-.234L-2.584-.32a2.463 2.463 0 0 1-.261-.366 1.003 1.003 0 0 1-.148-.396.834.834 0 0 1 .093-.386c.067-.138.179-.282.334-.417a1.68 1.68 0 0 1 .623-.36c.22-.064.409-.067.563 0 .157.054.351.221.588.483L.097-.759c.142.162.209.283.199.363-.003.102-.073.199-.183.299z" style="fill:#2a2f88;fill-opacity:1;fill-rule:nonzero;stroke:none" transform="matrix(3.70531 0 0 -3.70531 146.555 29.81)"/><path d="m0 0 .627-.88-.605-3.461L1.597-3.22c.166.12.252.214.262.288.011.11-.031.218-.126.345l-.079.114.072.051.814-1.136-.063-.056-.085.113c-.102.144-.204.212-.316.224-.07.004-.18-.054-.328-.156L-.555-5.076l-.059.088.649 3.727-1.678-1.207c-.17-.111-.257-.213-.268-.286a.525.525 0 0 1 .124-.346l.082-.118-.08-.048-.813 1.147.07.054.083-.12c.099-.135.208-.211.319-.221.067-.006.178.044.326.152L.099-.893c.028.16.034.274.028.337a.941.941 0 0 1-.068.282l-.129.221z" style="fill:#2a2f88;fill-opacity:1;fill-rule:nonzero;stroke:none" transform="matrix(3.70531 0 0 -3.70531 152.692 35.115)"/><path d="m0 0-.079-.034-.747 1.532.083.036.059-.133c.075-.148.161-.236.266-.268.072-.025.203.018.378.112l1.943.939c.156.069.251.129.285.17l.045.164c0 .092-.023.19-.062.27l-.066.124.083.036.741-1.534-.075-.047-.066.144c-.069.145-.154.232-.261.262-.075.019-.197-.011-.38-.093L.206.733C.056.658-.042.601-.081.552L-.123.391c0-.09.019-.182.063-.264z" style="fill:#2a2f88;fill-opacity:1;fill-rule:nonzero;stroke:none" transform="matrix(3.70531 0 0 -3.70531 155.316 62.232)"/><path d="m0 0-.081-.019A.923.923 0 0 1-.28.26a1.133 1.133 0 0 1-.439.16l-3.116.559-.034.109 2.358 2.23c.12.116.199.187.218.23l.066.206a.95.95 0 0 1-.02.287l.08.036.448-1.576-.074-.026c-.07.179-.134.283-.181.325l-.158.038c-.086-.025-.192-.104-.334-.233l-1.608-1.517L-.949.709c.205-.038.343-.043.417-.024l.105.118c.03.076.031.167.009.301l-.009.053.087.023Z" style="fill:#2a2f88;fill-opacity:1;fill-rule:nonzero;stroke:none" transform="matrix(3.70531 0 0 -3.70531 172.022 74.955)"/><path d="m0 0-1.293-.093.061-.875c.012-.221.049-.377.11-.449.082-.096.218-.149.403-.149l.013-.096-1.156-.081-.006.105c.154.037.261.068.305.104l.124.18c.026.081.037.213.026.38l-.064.869-1.093-.072a1.425 1.425 0 0 1-.262-.033l-.07-.096c-.025-.044-.025-.118-.017-.227l.05-.679c.016-.232.037-.389.066-.489a.771.771 0 0 1 .173-.283c.109-.121.269-.229.476-.347l.013-.124-.862.288-.208 3.088.086.007.015-.142A.693.693 0 0 1-3.046.52L-2.91.4c.057-.019.168-.021.331-.013l2.152.145c.216.008.347.046.393.096.061.075.095.205.082.367l-.008.138.085.004.212-3.078-.746-.097v.136a.88.88 0 0 1 .345.159.474.474 0 0 1 .135.23c.018.082.018.223.007.419z" style="fill:#2a2f88;fill-opacity:1;fill-rule:nonzero;stroke:none" transform="matrix(3.70531 0 0 -3.70531 172.022 82.716)"/><path d="M0 0c.017-.192.021-.356.005-.46-.034-.257-.13-.451-.278-.587a.628.628 0 0 0-.539-.162.602.602 0 0 0-.488.355c-.111.207-.144.498-.095.889l.008.059.021.096zm-3.371-2.416c.052.212.12.383.209.509.089.121.259.264.503.417l1.062.696c.019-.341.091-.602.216-.779a.713.713 0 0 1 .503-.315.689.689 0 0 1 .518.142c.153.124.273.285.353.477.075.194.145.492.201.913l.2 1.455-.086.006-.02-.152C.266.803.214.7.13.638.071.598-.06.576-.273.603l-2.136.296c-.192.026-.313.054-.36.11-.078.081-.109.204-.083.382l.017.137-.088.016-.223-1.692.085-.01.019.153c.018.138.07.249.159.316.056.049.19.057.4.023l.958-.126L-1.54.12l-.011-.083a5.095 5.095 0 0 1-.027-.239l-1.731-1.142-.145-1.063z" style="fill:#2a2f88;fill-opacity:1;fill-rule:nonzero;stroke:none" transform="matrix(3.70531 0 0 -3.70531 171.841 98.88)"/><path d="m0 0-1.09.37.04.102c.216-.039.404-.039.561.007.15.047.294.138.415.276.13.136.226.283.284.463a.817.817 0 0 1 .021.53c-.061.165-.148.269-.273.31a.393.393 0 0 1-.306-.031c-.159-.076-.405-.304-.756-.658-.279-.306-.482-.508-.616-.608A.938.938 0 0 0-2.119.56a.758.758 0 0 0-.399.024c-.237.081-.408.269-.503.545-.099.288-.085.603.03.953.046.104.087.212.131.299.027.057.094.163.213.334.111.166.181.266.196.322v.12l-.123.105.033.11 1.08-.38-.032-.096c-.248.03-.439.022-.581-.018a1.015 1.015 0 0 1-.405-.289 1.416 1.416 0 0 1-.305-.512c-.079-.236-.091-.44-.029-.61.054-.173.152-.277.292-.327a.433.433 0 0 1 .262 0 .902.902 0 0 1 .307.154c.068.057.232.227.499.5.261.272.463.467.6.571.137.099.27.169.404.205a.723.723 0 0 0 .394-.012c.225-.078.386-.262.475-.515.097-.271.083-.564-.027-.889A1.934 1.934 0 0 0 .049.556L-.086.354-.089.219.032.097Z" style="fill:#2a2f88;fill-opacity:1;fill-rule:nonzero;stroke:none" transform="matrix(3.70531 0 0 -3.70531 167.55 121.608)"/><path d="m0 0-.073.042.78 1.53.082-.046-.066-.12C.65 1.25.628 1.13.673 1.023.688.957.792.868.97.784l1.918-.99c.15-.084.258-.122.321-.13l.151.061.176.215.067.127.071-.042-.78-1.525-.075.047.062.127c.076.143.096.278.056.375-.027.066-.13.147-.304.236L.714.275C.562.358.459.399.397.401L.242.345.064.137Z" style="fill:#2a2f88;fill-opacity:1;fill-rule:nonzero;stroke:none" transform="matrix(3.70531 0 0 -3.70531 151.618 126.185)"/><path d="m0 0-.649.423.062.097A.869.869 0 0 1-.299.41.672.672 0 0 1 .02.484c.093.06.193.153.287.283l.336.457-2.069 1.512c-.167.118-.289.176-.362.166-.098-.019-.194-.101-.29-.228l-.083-.106-.071.045 1.01 1.379.072-.053-.088-.109c-.1-.142-.13-.267-.115-.37.023-.072.107-.156.256-.267L.975 1.678l.287.393c.11.151.178.268.206.342.029.1.037.212.012.321a.665.665 0 0 1-.218.318l.071.084.601-.488Z" style="fill:#2a2f88;fill-opacity:1;fill-rule:nonzero;stroke:none" transform="matrix(3.70531 0 0 -3.70531 153.405 144.784)"/><path d="m0 0-1.046-.941-.058.069.058.053a.563.563 0 0 1 .125.193c.047.09.084.19.094.293.011.113.01.266-.009.461l-.112 1.581-.57.641c-.141.154-.249.228-.322.228-.105 0-.214-.048-.334-.156l-.102-.096-.057.074 1.279 1.135.061-.07-.114-.088c-.125-.113-.187-.231-.187-.34 0-.071.071-.173.19-.316l.524-.575 1.766-.339c.203-.022.34-.036.401-.036s.168.02.318.072l.143.105.057-.073L.829.737l-.058.06.064.058.153.215-.02.2c-.043.047-.161.081-.348.117l-1.331.257.093-1.299c.009-.189.041-.32.097-.374l.115-.067.146.018.199.136z" style="fill:#2a2f88;fill-opacity:1;fill-rule:nonzero;stroke:none" transform="matrix(3.70531 0 0 -3.70531 143.201 154.648)"/><path d="m0 0-1.051-3.037L.616-1.549c.151.151.226.248.228.323 0 .103-.051.208-.157.331L.593-.79l.061.061.947-1.047-.064-.063-.096.106c-.118.129-.23.184-.341.184-.066-.001-.176-.06-.31-.184L-.839-3.208c-.108-.098-.182-.182-.199-.258l.013-.192c.028-.072.092-.172.205-.298l-.063-.061-.774.858.973 2.819-2.896-.678-.761.847.059.054.097-.097c.117-.132.227-.195.336-.188.072 0 .173.056.316.188l1.627 1.468c.156.138.232.239.232.32 0 .097-.053.205-.157.326l-.095.105.066.061L-.717.795-.784.737l-.092.109c-.119.125-.229.183-.336.179-.071-.002-.178-.069-.315-.189L-3.186-.67l3.118.742z" style="fill:#2a2f88;fill-opacity:1;fill-rule:nonzero;stroke:none" transform="matrix(3.70531 0 0 -3.70531 36.985 138.72)"/><path d="M0 0c.127.369.442.685.948.953.471.243.873.32 1.202.218a1.28 1.28 0 0 0 .757-.664c.163-.31.195-.615.098-.905-.131-.384-.448-.706-.931-.964-.473-.242-.895-.314-1.262-.199-.296.094-.526.296-.692.61C-.063-.609-.1-.289 0 0m.946-1.979c.496-.227.988-.224 1.455.022.462.25.749.613.865 1.093.118.485.047.972-.202 1.463-.258.482-.619.814-1.094 1.001-.479.185-.94.164-1.385-.072A1.605 1.605 0 0 1-.252.447 1.962 1.962 0 0 1-.063-.98c.242-.472.583-.8 1.009-.999" style="fill:#2a2f88;fill-opacity:1;fill-rule:nonzero;stroke:none" transform="matrix(3.70531 0 0 -3.70531 15.176 125.53)"/><path d="m0 0 .812 1.741c.141.277.226.52.253.701.028.176.028.349 0 .518l.084.02.472-1.829-.081-.032a.57.57 0 0 1-.114.23l-.125.051-.092-.062a1.074 1.074 0 0 1-.131-.219L.314-.514l1.052.275c.159.035.27.083.319.122l.072.149a.676.676 0 0 1-.012.271l-.037.134.087.024L2.22-1.2l-.079-.025-.04.145c-.042.16-.111.263-.204.321-.064.031-.203.02-.392-.028l-2.088-.546c-.169-.037-.278-.074-.327-.112l-.07-.143a.748.748 0 0 1 .011-.281l.036-.137-.083-.02-.427 1.656.089.02.031-.135a.608.608 0 0 1 .126-.251l.143-.086c.06-.017.166 0 .327.045l.984.249c-.04.033-.168.139-.403.319-.573.455-.955.72-1.13.8l-.184.032-.084-.079c-.018-.049-.018-.114.012-.221l.021-.084-.083-.013-.369 1.423.087.024.09-.221c.033-.066.092-.136.159-.228.083-.088.193-.187.339-.302.048-.041.262-.195.645-.461Z" style="fill:#2a2f88;fill-opacity:1;fill-rule:nonzero;stroke:none" transform="matrix(3.70531 0 0 -3.70531 14.138 111.356)"/><path d="M0 0a1.484 1.484 0 0 0-.067.381.914.914 0 0 0 .073.438.637.637 0 0 0 .26.308c.126.074.256.13.399.132a.679.679 0 0 0 .531-.196.71.71 0 0 0 .22-.519c.006-.055 0-.115 0-.208-.002-.064-.014-.172-.022-.273Zm1.569.436c.006.106.006.21 0 .31-.018.395-.123.691-.305.897a.82.82 0 0 1-.682.293.709.709 0 0 1-.505-.236 1.201 1.201 0 0 1-.288-.539C-.261.956-.276.673-.261.319l.072-1.468.087.003-.005.156c-.009.152.021.267.086.349.054.048.185.082.396.09l2.158.113c.189.004.311-.007.368-.05.09-.069.145-.185.156-.35l.007-.152h.084L3.064.721h-.081L2.984.56c.007-.147-.019-.261-.091-.346-.049-.052-.176-.083-.39-.094L1.529.071c.022.133.024.248.04.365" style="fill:#2a2f88;fill-opacity:1;fill-rule:nonzero;stroke:none" transform="matrix(3.70531 0 0 -3.70531 6.9 96.22)"/><path d="M0 0c.314.227.758.297 1.326.211.528-.082.895-.269 1.093-.54a1.27 1.27 0 0 0 .222-.984 1.144 1.144 0 0 0-.455-.788c-.338-.231-.777-.305-1.322-.215-.521.085-.903.28-1.136.585-.189.247-.252.55-.197.904.055.371.21.652.469.827m-.414-2.15c.268-.482.661-.76 1.187-.838.52-.085.962.038 1.346.356.378.323.613.752.698 1.302.081.537-.013 1.028-.283 1.459a1.62 1.62 0 0 1-1.159.76C.878.971.446.842.061.514A1.997 1.997 0 0 1-.635-.743c-.076-.526-.005-.988.221-1.407" style="fill:#2a2f88;fill-opacity:1;fill-rule:nonzero;stroke:none" transform="matrix(3.70531 0 0 -3.70531 8.894 74.654)"/><path d="m0 0-1.191-3.146c-.089-.232-.127-.389-.125-.467l.108-.231c.071-.076.21-.15.407-.223l.119-.051-.041-.098-2.739 1.033.042.112.14-.063c.22-.082.385-.123.497-.123.105.007.187.032.245.085.059.061.136.205.225.451l.756 1.988c.074.181.101.303.092.354l-.088.165-.194.13c-.131.049-.299.08-.513.089l-.03.123L-.125.052z" style="fill:#2a2f88;fill-opacity:1;fill-rule:nonzero;stroke:none" transform="matrix(3.70531 0 0 -3.70531 66.573 156.074)"/><path d="M0 0a.578.578 0 0 0-.438.271c-.147.238-.187.635-.108 1.181.041.34.129.545.246.66a.401.401 0 0 0 .331.078.459.459 0 0 0 .25-.097.691.691 0 0 0 .233-.426C.582 1.342.598.99.545.624A7.04 7.04 0 0 0 .432.04C.251 0 .103-.019 0 0m-.177-1.498c.578.161 1.037.422 1.367.776.333.345.527.75.583 1.175.051.339.005.634-.13.919a1.706 1.706 0 0 1-.601.687 2.2 2.2 0 0 1-.878.335 2.124 2.124 0 0 1-.891-.066 1.533 1.533 0 0 1-.718-.431 1.315 1.315 0 0 1-.326-.708c-.05-.386.038-.708.292-.971.239-.257.575-.414.992-.478.135-.018.258-.018.378-.018.12.012.275.04.45.078a1.987 1.987 0 0 0-.495-.702c-.21-.195-.484-.34-.817-.445-.332-.116-.725-.156-1.186-.179l-.016-.084c.755-.089 1.415-.053 1.996.112" style="fill:#2a2f88;fill-opacity:1;fill-rule:nonzero;stroke:none" transform="matrix(3.70531 0 0 -3.70531 80.59 168.445)"/><path d="M0 0a.601.601 0 0 0 .502-.146c.21-.192.341-.56.409-1.117.042-.338.017-.555-.068-.674a.47.47 0 0 0-.314-.208.546.546 0 0 0-.335.073c-.14.099-.258.273-.36.512a3.504 3.504 0 0 0-.204.793c-.016.13-.03.342-.043.618.169.087.306.134.413.149m-.166 1.535C-.683 1.242-1.071.869-1.314.44a2.104 2.104 0 0 1-.294-1.331c.04-.315.149-.596.344-.834.193-.248.452-.431.749-.526.304-.11.626-.138.965-.098.314.041.6.145.858.293.26.16.453.353.578.598.119.24.168.497.13.764-.043.388-.215.674-.521.863C1.194.352.831.417.42.374A2.922 2.922 0 0 1-.104.256a1.6 1.6 0 0 1-.289-.16c.063.317.163.596.309.826.154.227.36.433.643.613.28.183.661.349 1.144.496l-.014.091c-.716-.095-1.335-.29-1.855-.587" style="fill:#2a2f88;fill-opacity:1;fill-rule:nonzero;stroke:none" transform="matrix(3.70531 0 0 -3.70531 99.269 166.889)"/><path d="M0 0a.637.637 0 0 0 .517 0c.253-.126.489-.445.709-.959.13-.311.173-.524.127-.669-.047-.142-.134-.238-.245-.274a.48.48 0 0 0-.343-.031c-.161.053-.318.184-.492.387-.17.201-.309.446-.414.702a5.548 5.548 0 0 0-.217.574c.134.125.25.22.358.27m-.593 1.426C-1.01.991-1.273.525-1.391.047c-.119-.482-.091-.938.094-1.36.124-.285.311-.526.563-.704.261-.192.551-.281.871-.291.325-.016.638.037.953.173.292.125.542.303.741.53.21.214.331.46.382.728.05.262.021.529-.084.767-.153.363-.403.589-.742.687C1.037.67.676.632.293.475a2.772 2.772 0 0 1-.47-.271C-.247.16-.32.074-.412-.023a2.37 2.37 0 0 0 .068.877c.082.261.221.52.445.774.221.25.534.516.951.797l-.034.079C.355 2.217-.181 1.856-.593 1.426" style="fill:#2a2f88;fill-opacity:1;fill-rule:nonzero;stroke:none" transform="matrix(3.70531 0 0 -3.70531 117.89 161.957)"/><path d="M0 0c0 13.421 10.883 24.3 24.298 24.3 13.418 0 24.295-10.879 24.295-24.3 0-13.423-10.877-24.298-24.295-24.298C10.88-24.298 0-13.423 0 0m7.468 16.834A23.713 23.713 0 0 1 .493 0a23.72 23.72 0 0 1 6.975-16.836 23.71 23.71 0 0 1 16.83-6.968 23.72 23.72 0 0 1 16.836 6.968A23.749 23.749 0 0 1 48.109 0c0 6.575-2.67 12.528-6.975 16.834a23.722 23.722 0 0 1-16.836 6.971 23.712 23.712 0 0 1-16.83-6.971" style="fill:#2a2f88;fill-opacity:1;fill-rule:nonzero;stroke:none" transform="matrix(3.70531 0 0 -3.70531 0 90.319)"/></svg>