<svg xmlns="http://www.w3.org/2000/svg" xml:space="preserve" width="381.48267" height="381.48132" viewBox="0 0 381.48266 381.48132"><defs><clipPath id="a" clipPathUnits="userSpaceOnUse"><path d="M0 841.89h1183.876V0H0Z"/></clipPath></defs><path d="m0 0 3.666-3.057h135.382v-22.457L6.92-3.057Z" style="fill:#005d97;fill-opacity:1;fill-rule:nonzero;stroke:none" transform="matrix(1.33333 0 0 -1.33333 6.523 186.663)"/><g clip-path="url(#a)" transform="matrix(1.33333 0 0 -1.33333 -582.172 756.32)"><path d="m0 0-.36-.431 3.666-3.058a.56.56 0 0 1 .36-.13h134.82v-21.23L7.083-2.515.227.514A.562.562 0 0 1-.36-.431L0 0l-.227-.514 6.92-3.057.133-.04 132.128-22.457a.564.564 0 0 1 .656.554v22.457a.564.564 0 0 1-.562.561H3.869L.36.431 0 0l-.227-.514Z" style="fill:#005d97;fill-opacity:1;fill-rule:nonzero;stroke:none" transform="translate(441.52 427.243)"/><path d="M0 0v22.456L-132.128 0Z" style="fill:#fff;fill-opacity:1;fill-rule:nonzero;stroke:none" transform="translate(580.569 424.184)"/><path d="M0 0h.562v22.456a.565.565 0 0 1-.656.554L-132.222.554a.562.562 0 0 1 .094-1.116H0A.563.563 0 0 1 .562 0H0v.562h-125.471L-.562 21.791V0H0v.562z" style="fill:#005d97;fill-opacity:1;fill-rule:nonzero;stroke:none" transform="translate(580.569 424.184)"/><path d="m0 0-3.059-3.665v-135.383h-22.455L-3.059-.924Z" style="fill:#005d97;fill-opacity:1;fill-rule:nonzero;stroke:none" transform="translate(583.628 563.231)"/><path d="m0 0-.431.36-3.059-3.665a.56.56 0 0 1-.131-.36v-134.821h-21.233L-2.561-1.361l2.724.823L0 0l-.431.36L0 0l-.162.538-3.059-.925a.56.56 0 0 1-.392-.447l-22.456-138.124a.564.564 0 0 1 .555-.651h22.455a.566.566 0 0 1 .562.561V-3.869L.431-.36c.159.19.174.463.038.67a.563.563 0 0 1-.631.228Z" style="fill:#005d97;fill-opacity:1;fill-rule:nonzero;stroke:none" transform="translate(583.628 563.231)"/><path d="M0 0h22.456L0 138.123Z" style="fill:#fff;fill-opacity:1;fill-rule:nonzero;stroke:none" transform="translate(580.569 424.184)"/><path d="M0 0v-.562h22.456a.562.562 0 0 1 .554.652L.554 138.213a.561.561 0 0 1-1.116-.09V0A.563.563 0 0 1 0-.562V0h.562v131.167L21.795.562H0V0h.562z" style="fill:#005d97;fill-opacity:1;fill-rule:nonzero;stroke:none" transform="translate(580.569 424.184)"/><path d="m0 0-3.665 3.057h-135.382v22.457L-6.343 3.057Z" style="fill:#005d97;fill-opacity:1;fill-rule:nonzero;stroke:none" transform="translate(719.616 421.125)"/><path d="m0 0 .36.431-3.666 3.058a.56.56 0 0 1-.359.13h-134.821v21.23L-6.515 2.517-.244-.506A.562.562 0 0 1 .36.431L0 0l.244.506-6.343 3.057-.15.048-132.704 22.457a.563.563 0 0 1-.656-.554V3.057c0-.148.06-.292.164-.397a.57.57 0 0 1 .398-.164H-3.869L-.36-.431 0 0l.244.506Z" style="fill:#005d97;fill-opacity:1;fill-rule:nonzero;stroke:none" transform="translate(719.616 421.125)"/><path d="M0 0v-22.457L132.705 0Z" style="fill:#fff;fill-opacity:1;fill-rule:nonzero;stroke:none" transform="translate(580.569 424.184)"/><path d="M0 0h-.562v-22.457a.565.565 0 0 1 .656-.553L132.798-.554a.562.562 0 0 1-.093 1.116H0A.563.563 0 0 1-.562 0H0v-.562h126.018L.562-21.792V0H0v-.562z" style="fill:#005d97;fill-opacity:1;fill-rule:nonzero;stroke:none" transform="translate(580.569 424.184)"/><path d="m0 0 3.058 3.665v135.382h22.456L3.058.924Z" style="fill:#005d97;fill-opacity:1;fill-rule:nonzero;stroke:none" transform="translate(577.51 285.137)"/><path d="m0 0 .431-.36 3.058 3.666a.555.555 0 0 1 .131.359v134.82h21.233L2.56 1.361-.163.538 0 0l.431-.36L0 0l.163-.538 3.058.925a.56.56 0 0 1 .391.447l22.456 138.123a.56.56 0 0 1-.554.652H3.058a.564.564 0 0 1-.562-.562V3.869L-.431.36a.563.563 0 0 1 .594-.898z" style="fill:#005d97;fill-opacity:1;fill-rule:nonzero;stroke:none" transform="translate(577.51 285.137)"/><path d="M0 0h-22.457L-.001-138.123Z" style="fill:#fff;fill-opacity:1;fill-rule:nonzero;stroke:none" transform="translate(580.569 424.184)"/><path d="M0 0v.562h-22.457a.562.562 0 0 1-.554-.652L-.555-138.213a.561.561 0 0 1 1.116.09L.562 0A.563.563 0 0 1 0 .562V0h-.562v-131.168L-21.796-.562H0V0h-.562z" style="fill:#005d97;fill-opacity:1;fill-rule:nonzero;stroke:none" transform="translate(580.569 424.184)"/><path d="m0 0-7.645 7.644 63.209 47.919Z" style="fill:#005d97;fill-opacity:1;fill-rule:nonzero;stroke:none" transform="translate(621.173 464.781)"/><path d="m0 0 .397.397-7.189 7.189 56.157 42.573L-.397.397 0 0l.397.397L0 0l.397-.397 55.564 55.563a.561.561 0 0 1-.736.844L-7.984 8.092a.559.559 0 0 1-.058-.845L-.397-.397a.563.563 0 0 1 .794 0z" style="fill:#005d97;fill-opacity:1;fill-rule:nonzero;stroke:none" transform="translate(621.173 464.781)"/><path d="m0 0 7.646-7.646 47.918 63.209Z" style="fill:#fff;fill-opacity:1;fill-rule:nonzero;stroke:none" transform="translate(621.173 464.781)"/><path d="m0 0-.397-.397 7.645-7.646a.562.562 0 0 1 .845.058l47.918 63.209a.562.562 0 0 1-.844.736L-.397.397a.56.56 0 0 1 0-.794L0 0l.397-.397 49.764 49.763L7.587-6.793.397.397 0 0l.397-.397Z" style="fill:#005d97;fill-opacity:1;fill-rule:nonzero;stroke:none" transform="translate(621.173 464.781)"/><path d="m0 0 7.645-7.644-63.208-47.919Z" style="fill:#005d97;fill-opacity:1;fill-rule:nonzero;stroke:none" transform="translate(539.965 383.587)"/><path d="m0 0-.397-.397 7.189-7.189-56.157-42.573L.397-.397 0 0l-.397-.397L0 0l-.397.397-55.564-55.563a.562.562 0 0 1 .737-.845L7.984-8.092a.56.56 0 0 1 .058.845L.397.397a.56.56 0 0 1-.794 0z" style="fill:#005d97;fill-opacity:1;fill-rule:nonzero;stroke:none" transform="translate(539.965 383.587)"/><path d="m0 0-7.645 7.646-47.919-63.209Z" style="fill:#fff;fill-opacity:1;fill-rule:nonzero;stroke:none" transform="translate(539.965 383.587)"/><path d="m0 0 .397.397-7.645 7.646a.56.56 0 0 1-.845-.058l-47.918-63.209a.562.562 0 0 1 .844-.736L.397-.397a.558.558 0 0 1 0 .794L0 0l-.397.397-49.763-49.762L-7.587 6.793l7.19-7.19L0 0l-.397.397Z" style="fill:#005d97;fill-opacity:1;fill-rule:nonzero;stroke:none" transform="translate(539.965 383.587)"/><path d="m0 0-7.645-7.646 54.612-39.322Z" style="fill:#fff;fill-opacity:1;fill-rule:nonzero;stroke:none" transform="translate(621.173 384.529)"/><path d="m0 0-.397.397-7.645-7.645a.563.563 0 0 1 .069-.854l54.612-39.322a.562.562 0 0 1 .726.853L.397.397a.56.56 0 0 1-.794 0L0 0l-.397-.397 42.055-42.056L-6.781-7.576.397-.397 0 0l-.397-.397Z" style="fill:#005d97;fill-opacity:1;fill-rule:nonzero;stroke:none" transform="translate(621.173 384.529)"/><path d="m0 0 7.646 7.646 39.321-54.614Z" style="fill:#005d97;fill-opacity:1;fill-rule:nonzero;stroke:none" transform="translate(621.173 384.529)"/><path d="m0 0 .397-.397 7.179 7.178 34.877-48.44L.397.397 0 0l.397-.397L0 0l-.397-.397L46.57-47.365a.56.56 0 0 1 .761-.031.56.56 0 0 1 .092.756L8.101 7.974a.565.565 0 0 1-.41.232.567.567 0 0 1-.443-.163L-.397.397a.56.56 0 0 1 0-.794z" style="fill:#005d97;fill-opacity:1;fill-rule:nonzero;stroke:none" transform="translate(621.173 384.529)"/><path d="m0 0 7.645 7.646-63.209 47.918Z" style="fill:#fff;fill-opacity:1;fill-rule:nonzero;stroke:none" transform="translate(540.833 464.781)"/><path d="m0 0 .397-.397 7.645 7.646a.559.559 0 0 1-.058.844l-63.209 47.918a.562.562 0 0 1-.736-.845L-.397-.397a.563.563 0 0 1 .794 0L0 0l.397.397-49.763 49.763L6.792 7.587-.397.397 0 0l.397.397Z" style="fill:#005d97;fill-opacity:1;fill-rule:nonzero;stroke:none" transform="translate(540.833 464.781)"/><path d="m0 0-7.645-7.644-47.918 63.208Z" style="fill:#005d97;fill-opacity:1;fill-rule:nonzero;stroke:none" transform="translate(540.833 464.781)"/><path d="m0 0-.397.397-7.19-7.188-42.573 56.157L-.397-.397 0 0l-.397.397L0 0l.397.397-55.563 55.564a.562.562 0 0 1-.845-.736L-8.093-7.984a.562.562 0 0 1 .845-.057L.397-.397a.558.558 0 0 1 0 .794z" style="fill:#005d97;fill-opacity:1;fill-rule:nonzero;stroke:none" transform="translate(540.833 464.781)"/><path d="M0 0c59.887 0 108.436 48.549 108.436 108.435 0 59.887-48.549 108.436-108.436 108.436-59.886 0-108.436-48.549-108.436-108.436C-108.436 48.549-59.886 0 0 0m-143.779 108.435c0 79.007 64.049 143.056 143.056 143.056 79.006 0 143.056-64.049 143.056-143.056C142.333 29.43 78.283-34.62-.723-34.62c-79.007 0-143.056 64.05-143.056 143.055" style="fill:#005d97;fill-opacity:1;fill-rule:nonzero;stroke:none" transform="translate(580.408 315.749)"/><path d="M0 0c41.777 0 75.645 33.869 75.645 75.645 0 41.777-33.868 75.645-75.645 75.645-41.777 0-75.645-33.868-75.645-75.645C-75.645 33.869-41.777 0 0 0" style="fill:#005d97;fill-opacity:1;fill-rule:nonzero;stroke:none" transform="translate(580.569 348.539)"/><path d="M0 0c36.675 0 66.408 29.731 66.408 66.407 0 36.675-29.733 66.407-66.408 66.407-36.676 0-66.408-29.732-66.408-66.407C-66.408 29.731-36.676 0 0 0" style="fill:#00a041;fill-opacity:1;fill-rule:nonzero;stroke:none" transform="translate(580.569 357.777)"/><path d="m0 0 .03 2.553 10.945-.129.001.037L.06 5.035l.031 2.681 10.974 2.26v.037L.12 10.142l.03 2.555 13.098-.155-.047-3.995L2.848 6.296l-.001-.036 10.298-2.457-.048-3.958Z" style="fill:#fff;fill-opacity:1;fill-rule:nonzero;stroke:none" transform="translate(448.381 418.437)"/><path d="M0 0c-6.108-.697-6.333-5.314-6.137-7.036.197-1.722 1.458-6.168 7.566-5.47 6.108.698 6.333 5.314 6.137 7.036C7.369-3.747 6.108.699 0 0m.311-2.719c3.643.418 4.785-1.545 4.953-3.013.168-1.468-.502-3.639-4.146-4.056-3.643-.415-4.785 1.547-4.953 3.015-.168 1.468.503 3.638 4.146 4.054" style="fill:#fff;fill-opacity:1;fill-rule:nonzero;stroke:none" transform="translate(455.087 415.239)"/><path d="m0 0-.635 2.662L12.106 5.7l.635-2.662-5.182-1.236 6.342-3.626.82-3.443-6.457 3.956-6.212-7.296-.816 3.425L5.886.091l-1.574.937z" style="fill:#fff;fill-opacity:1;fill-rule:nonzero;stroke:none" transform="translate(451.455 395.153)"/><path d="m0 0 1.067-2.951c1.197-3.312 4.234-2.912 5.349-2.507 2.419.874 3.425 2.866 2.562 5.251L6.944 5.42-5.374.965l.931-2.572Zm2.127.769 3.62 1.308.738-2.04c.577-1.596.322-2.445-.879-2.879-.549-.199-1.922-.694-2.616 1.226Z" style="fill:#fff;fill-opacity:1;fill-rule:nonzero;stroke:none" transform="translate(459.898 382.553)"/><path d="M0 0c-5.499-2.75-4.127-7.164-3.352-8.714.775-1.55 3.484-5.294 8.982-2.544 5.499 2.749 4.128 7.163 3.353 8.713C8.207-.995 5.498 2.75 0 0m1.224-2.448C4.503-.807 6.25-2.259 6.91-3.58c.661-1.323.776-3.591-2.504-5.23-3.279-1.641-5.025-.189-5.686 1.132-.661 1.321-.776 3.591 2.504 5.23" style="fill:#fff;fill-opacity:1;fill-rule:nonzero;stroke:none" transform="translate(465.082 373.871)"/><path d="m0 0 1.508-2.061-10.569-7.737-1.616 2.208 4.38 9.83-.022.029-7.537-5.517-1.508 2.061L-4.795 6.55l1.702-2.325-4.289-9.584.022-.029z" style="fill:#fff;fill-opacity:1;fill-rule:nonzero;stroke:none" transform="translate(485.647 352.141)"/><path d="m0 0 3.279-3.552L1.864-6 3.88-8.186l6.496 12.275-2.14 2.319L-4.557.957l1.954-2.119Zm7.103 3.279.025-.028-2.706-4.707L2.158.998Z" style="fill:#fff;fill-opacity:1;fill-rule:nonzero;stroke:none" transform="translate(483.28 338.713)"/><path d="m0 0-2.031 1.833 7.224 8.003-2.938 2.653 1.552 1.72 7.909-7.14-1.553-1.719-2.939 2.652Z" style="fill:#fff;fill-opacity:1;fill-rule:nonzero;stroke:none" transform="translate(492.597 325.639)"/><path d="m0 0-2.157 1.685 8.06 10.325 2.157-1.685Z" style="fill:#fff;fill-opacity:1;fill-rule:nonzero;stroke:none" transform="translate(499.978 319.566)"/><path d="M0 0c-3.366-5.145.042-8.267 1.492-9.216 1.45-.948 5.676-2.819 9.042 2.326 3.365 5.145-.042 8.267-1.492 9.216C7.591 3.274 3.365 5.145 0 0m2.29-1.497C4.297 1.57 6.537 1.195 7.773.387c1.237-.809 2.478-2.71.471-5.78C6.236-8.46 3.997-8.085 2.76-7.276c-1.237.808-2.478 2.71-.47 5.779" style="fill:#fff;fill-opacity:1;fill-rule:nonzero;stroke:none" transform="translate(506.327 322.817)"/><path d="m0 0 2.285-1.141-5.854-11.718-2.448 1.223-.608 10.744-.032.016-4.174-8.355-2.285 1.141 5.853 11.717 2.579-1.287.575-10.484.033-.016z" style="fill:#fff;fill-opacity:1;fill-rule:nonzero;stroke:none" transform="translate(529.805 316.64)"/><path d="m0 0 4.54-1.661-.139-2.825 2.793-1.021.164 13.888-2.964 1.083-8.885-10.697 2.707-.989Zm4.818 6.163.034-.013L4.598.727 1.462 1.874Z" style="fill:#fff;fill-opacity:1;fill-rule:nonzero;stroke:none" transform="translate(533.848 303.614)"/><path d="m0 0 6.318-1.581-.576-2.301-8.972 2.245 3.178 12.708 2.655-.665Z" style="fill:#fff;fill-opacity:1;fill-rule:nonzero;stroke:none" transform="translate(547.653 298.818)"/><path d="m0 0-2.545.21.893 10.907-.037.003L-5.018.412-7.691.63-9.18 11.734l-.036.003-.893-10.909-2.546.208 1.069 13.055 3.982-.326L-6.083 3.28l.036-.003 3.171 10.101 3.945-.322z" style="fill:#fff;fill-opacity:1;fill-rule:nonzero;stroke:none" transform="translate(575.86 292.174)"/><path d="m0 0 4.831.198.948-2.664 2.971.122-5.147 12.899-3.153-.13-4.131-13.277 2.88.117zm2.102 7.536.036.001 1.834-5.111L.637 2.29Z" style="fill:#fff;fill-opacity:1;fill-rule:nonzero;stroke:none" transform="translate(583.08 294.97)"/><path d="m0 0 2.65.41-.783 5.066 2.794.432c2.002.309 2.216-.359 2.489-2.125.206-1.335.417-1.985.693-2.57l2.992.461-.053.343c-.61.128-.683.597-.975 2.489C9.434 6.922 8.796 7.23 7.66 7.534c1.213.63 1.744 1.968 1.524 3.393-.173 1.118-1.196 3.562-4.64 3.03L-2 12.946Zm1.53 7.657-.535 3.462 3.371.522c1.587.244 2.049-.718 2.155-1.402.198-1.281-.412-1.874-1.818-2.091Z" style="fill:#fff;fill-opacity:1;fill-rule:nonzero;stroke:none" transform="translate(595.365 293.027)"/><path d="m0 0-2.663-.631-3.025 12.743 2.663.633z" style="fill:#fff;fill-opacity:1;fill-rule:nonzero;stroke:none" transform="translate(612.279 296.181)"/><path d="m0 0-2.611-.822-3.234 10.286-3.775-1.188-.696 2.21 10.164 3.195.695-2.209-3.777-1.188z" style="fill:#fff;fill-opacity:1;fill-rule:nonzero;stroke:none" transform="translate(621.491 298.822)"/><path d="m0 0-2.545-1.003-4.809 12.184 2.545 1.003z" style="fill:#fff;fill-opacity:1;fill-rule:nonzero;stroke:none" transform="translate(630.466 302.102)"/><path d="m0 0-2.285-1.14-4.89 9.792-.033-.016 2.703-10.885-2.399-1.198-7.029 8.725-.032-.016 4.889-9.793-2.284-1.141-5.852 11.719 3.575 1.785 6.734-8.179.033.017-2.523 10.281 3.541 1.769z" style="fill:#fff;fill-opacity:1;fill-rule:nonzero;stroke:none" transform="translate(645.597 309.22)"/><path d="m0 0-5.82-3.799 1.505-2.307 5.347 3.49 1.266-1.941-5.347-3.49 1.855-2.841 6.08 3.967L6.152-8.86l-8.326-5.434-7.159 10.97 8.067 5.264z" style="fill:#fff;fill-opacity:1;fill-rule:nonzero;stroke:none" transform="translate(651.586 325.811)"/><path d="M0 0c2.307-2.562 1.751-5.051-.703-7.262-.895-.806-2.419-1.784-4.153-1.604-1.066.12-1.977.724-2.884 1.676l-5.81 6.453 2.073 1.868 5.69-6.318c1.221-1.356 2.544-1.244 3.493-.389 1.396 1.257 1.355 2.447.293 3.628l-5.774 6.412 2.074 1.868z" style="fill:#fff;fill-opacity:1;fill-rule:nonzero;stroke:none" transform="translate(670.662 333.677)"/><path d="m0 0 1.694 1.912 9.804-8.686-1.815-2.048L-.853-6.629l-.024-.028 6.992-6.194-1.694-1.912-9.804 8.688 1.911 2.156L6.803-6.075l.024.026z" style="fill:#fff;fill-opacity:1;fill-rule:nonzero;stroke:none" transform="translate(672.383 348.135)"/><path d="m0 0-1.643-2.189-10.474 7.866 1.643 2.188z" style="fill:#fff;fill-opacity:1;fill-rule:nonzero;stroke:none" transform="translate(687.897 346.71)"/><path d="m0 0 1.528 2.401L10.19-8.385l-1.401-2.201-13.42 3.307 1.576 2.477 9.881-2.956.02.03z" style="fill:#fff;fill-opacity:1;fill-rule:nonzero;stroke:none" transform="translate(683.343 363.418)"/><path d="m0 0-3.084-6.229 2.469-1.222 2.832 5.722 2.077-1.028-2.833-5.722 3.042-1.505 3.22 6.506L9.8-4.505l-4.411-8.911L-6.35-7.605l4.273 8.632z" style="fill:#fff;fill-opacity:1;fill-rule:nonzero;stroke:none" transform="translate(692.204 375.282)"/><path d="m0 0 .915 2.521-4.818 1.749.964 2.658c.691 1.903 1.38 1.77 3.061 1.16 1.268-.461 1.941-.589 2.585-.628l1.034 2.846-.326.119c-.405-.475-.851-.312-2.652.341-2.298.834-2.874.422-3.687-.428.031 1.367-.886 2.476-2.241 2.968-1.063.385-3.7.664-4.888-2.612l-2.259-6.224Zm-5.979 5.023-3.292 1.194 1.164 3.207c.548 1.51 1.614 1.453 2.265 1.216 1.218-.441 1.444-1.261.959-2.599z" style="fill:#fff;fill-opacity:1;fill-rule:nonzero;stroke:none" transform="translate(703.587 374.486)"/><path d="M0 0c.713-.154 2.147-.126 2.709 2.198.304 1.258.342 2.732-1.005 3.058-.993.241-1.491-.653-2.136-1.923l-.65-1.288C-2.058.104-3-1.77-5.802-1.093-7.22-.749-9.535.618-8.536 4.75c.945 3.901 3.751 4.328 5.315 3.968l-.617-2.552c-.585.066-1.984.179-2.546-2.143-.245-1.011-.164-2.308.988-2.586.993-.24 1.403.525 1.656 1.026l1.514 2.918c.845 1.635 1.941 3.059 4.229 2.505 3.829-.927 3.222-4.909 2.952-6.025C3.83-2.785.96-2.936-.618-2.553Z" style="fill:#fff;fill-opacity:1;fill-rule:nonzero;stroke:none" transform="translate(704.967 391.493)"/><path d="m0 0-.439-2.702-12.928 2.101.438 2.7z" style="fill:#fff;fill-opacity:1;fill-rule:nonzero;stroke:none" transform="translate(711.753 404.486)"/><path d="m0 0-.246-2.726-10.738.968-.355-3.944-2.308.208.957 10.613 2.307-.209-.355-3.943z" style="fill:#fff;fill-opacity:1;fill-rule:nonzero;stroke:none" transform="translate(712.855 414.01)"/><path d="m0 0 .018-2.737-4.944-.03-8.125-4.577-.021 3.229 5.674 2.754-5.707 2.554-.021 3.101 8.219-4.326z" style="fill:#fff;fill-opacity:1;fill-rule:nonzero;stroke:none" transform="translate(713.274 427.41)"/><path d="M0 0c.78.016 1.716.051 2.062 1.285L4.28 9.259c.035.121.07.26.07.382 0 .608-.572.608-.728.608-.347 0-.815-.035-1.161-.088l.034.388c2.548.384 3.536.627 4.679.905L4.506 1.736C4.297.973 4.297.973 4.297.798c0-.747.59-.798 1.682-.798v-.393H0Z" style="fill:#fff;fill-opacity:1;fill-rule:nonzero;stroke:none" transform="translate(564.696 373.363)"/><path d="M0 0c6.236.886 8.346 5.668 8.346 8.273 0 2.291-1.081 3.754-2.994 3.754-2.999 0-4.328-2.678-4.328-4.692 0-1.72 1.036-2.902 2.609-2.902.469 0 .746.106 1.058.245C3.754 2.643 1.921.99-.105.435Zm6.392 10.165c0-.052-.052-1.667-.746-3.438-.555-1.459-.59-1.545-1.354-1.545-.26 0-1.128 0-1.128 1.216 0 0 .451 5.086 2.344 5.086.884 0 .884-.816.884-1.319" style="fill:#fff;fill-opacity:1;fill-rule:nonzero;stroke:none" transform="translate(573.197 372.79)"/><path d="M0 0c1.406-.295 2.17-.451 3.035-1.16 1.222-.988 1.274-2.494 1.274-2.839 0-2.908-2.503-4.606-5.09-4.606-1.667 0-2.24.797-2.24 1.317 0 .761.539 1.038 1.024 1.038 1.285 0 1.164-1.662 2.154-1.662 1.354 0 2.344 1.472 2.344 2.77 0 1.765-1.459 3.202-4.063 3.202L.712 3.208h4.9l-.626-1.893H.59Z" style="fill:#fff;fill-opacity:1;fill-rule:nonzero;stroke:none" transform="translate(584.803 381.364)"/><path d="M0 0c0 2.236-1.071 3.903-2.616 3.903-3.122 0-5.372-4.682-5.372-8.25 0-1.576.604-3.832 2.808-3.832C-2.319-8.179 0-4.052 0 0m-1.779 2.079c0-1.074-.924-4.608-1.448-6.409-.435-1.455-.994-3.344-2.093-3.344-.75 0-.89.764-.89 1.178 0 1.386 1.239 5.699 1.414 6.254.401 1.282 1.116 3.638 2.11 3.638.646 0 .907-.469.907-1.317" style="fill:#fff;fill-opacity:1;fill-rule:nonzero;stroke:none" transform="translate(598.94 380.912)"/><path d="M0 0c0 14.809-12.049 26.859-26.857 26.859-4.983 0-7.707-1.392-11.709-3.768 0 0 .251 3.639-.93 9.072-1.809 8.323-5.843 9.528-5.843 9.528s-3.803-1.085-5.853-9.558c-.866-3.579-.918-9.042-.918-9.042-4.003 2.376-6.726 3.768-11.709 3.768-14.809 0-26.857-12.05-26.857-26.859l-2.097-35.254 16.754 7.843L-73.923 0c0 5.571 4.533 10.104 10.104 10.104 5.572 0 10.104-4.531 10.104-10.103V0l-9.413-37.365h12.891l4.888 20.431 4.888-20.431h12.913L-36.961 0v.001c.001 5.572 4.532 10.103 10.104 10.103 5.57 0 10.103-4.533 10.103-10.104l2.096-27.411 16.754-7.843z" style="fill:#fff;fill-opacity:1;fill-rule:nonzero;stroke:none" transform="translate(626.277 433.453)"/><path d="m0 0 3.019-1.504 2.96 5.941L13.615.629l-1.54-3.086L6.856.147.826-11.945l-2.414 1.204 3.077 6.173-3.016 1.505-4.05-8.123-2.439 1.215 6.783 13.6c-1.753 1.367-3.272 2.212-4.691 2.918l-5.82-11.674-2.459 1.227 7.324 14.691 1.72-.856c1.601-.799 3.386-1.69 5.453-3.242l1.345 2.692 2.436-1.216Z" style="fill:#fff;fill-opacity:1;fill-rule:nonzero;stroke:none" transform="translate(468.04 481.635)"/><path d="m0 0-6.106-6.746 1.421-1.287 6.106 6.746zm-3.442 3.113 2.279 2.518L5.718-.595-4.944-12.377l-6.881 6.226 2.277 2.518 1.502-1.357 6.103 6.747zm-8.332 12.118 9.88-8.939-2.313-2.556-9.879 8.939zm5.698-11.937c-1.94-3.033-4.021-5.45-7.202-8.967l-1.411-1.557-5.382 4.87 5.096 5.631-1.365 1.235-5.114-5.651-2.018 1.826 7.375 8.149 5.268-4.765-5.096-5.631 1.459-1.322c2.624 2.939 4.409 5.065 6.111 7.72z" style="fill:#fff;fill-opacity:1;fill-rule:nonzero;stroke:none" transform="translate(495.514 507.846)"/><path d="m0 0 14.023 8.866 4.199-6.639L15.33.398l-2.743 4.339L1.456-2.301Zm-1.932 9.85 7.997 5.057-1.648 2.607-7.998-5.056zm15.78 4.149 1.454-2.301L-2.93.172l-1.454 2.3 7.648 4.835-1.192 1.885-5.413-3.422-4.518 7.144 13.697 8.658 4.515-7.143-5.389-3.408 1.19-1.885Z" style="fill:#fff;fill-opacity:1;fill-rule:nonzero;stroke:none" transform="translate(507.759 522.413)"/><path d="m0 0 4.673 1.39-1.93 6.486-4.673-1.39Zm14.737-2.892.785-2.634-20.726-6.167-.783 2.634 8.672 2.581-1.214 4.075-6.931-2.063-.778 2.61 2.984.887-1.93 6.486-3.108-.923-.775 2.609 17.394 5.176.778-2.61-3.108-.924L7.93 2.358l3.031.903.775-2.61-6.982-2.077 1.213-4.076Z" style="fill:#fff;fill-opacity:1;fill-rule:nonzero;stroke:none" transform="translate(541.318 544.3)"/><path d="m0 0 .355-23.882-3.24-.048-.169 11.383-1.816-.027.157-10.398-3.191-.047L-8.238-.59l3.188.047.139-9.282 1.814.027-.145 9.749zm-12.331-13.281c-.025 1.789-.973 2.838-2.269 2.818-1.299-.019-2.216-1.096-2.188-2.885.025-1.789.975-2.812 2.271-2.793 1.297.019 2.214 1.07 2.186 2.86m3.009.044c.05-3.318-2.092-5.711-5.154-5.757-3.057-.045-5.27 2.282-5.321 5.601-.051 3.345 2.092 5.737 5.154 5.783 3.059.045 5.273-2.282 5.321-5.627m-3.693 9.411 3.969.059.038-2.722-11.407-.17-.041 2.723 4.07.061-.043 2.955 3.371.051z" style="fill:#fff;fill-opacity:1;fill-rule:nonzero;stroke:none" transform="translate(587.175 561.839)"/><path d="m0 0-.605-2.308 2.96-.775-.709-2.71-2.96.775-.763-2.909-3.312.867 3.53 13.472 3.31-.867L.709 2.71l2.961-.776-.709-2.709Zm-12.828-1.064c1.733-.453 3.313.259 3.771 2.015.469 1.781-.559 3.177-2.292 3.63-1.755.46-3.312-.258-3.778-2.039-.461-1.757.544-3.145 2.299-3.606m6.388-11.137c.347 1.33-1.062 2.397-3.997 3.165-2.963.776-4.713.538-5.062-.792-.355-1.354 1.063-2.396 4.024-3.172 2.935-.768 4.68-.556 5.035.799m-7.117 8.353c-3.563.932-5.655 4.001-4.807 7.237.861 3.287 4.184 4.91 7.745 3.977C-7.081 6.44-4.982 3.396-5.843.11c-.848-3.236-4.176-4.885-7.714-3.958m10.401-9.213c-.754-2.885-4.237-3.796-9.003-2.548-4.792 1.256-7.382 3.757-6.625 6.642.747 2.86 4.232 3.771 9.024 2.516 4.766-1.249 7.357-3.75 6.604-6.61" style="fill:#fff;fill-opacity:1;fill-rule:nonzero;stroke:none" transform="translate(620.945 549.624)"/><path d="m0 0-12.103-20.617-2.796 1.64 6.05 10.309-1.854 1.09-5.488-9.347-2.75 1.614L-7.638 3.943l2.75-1.615-4.424-7.536 1.856-1.089 4.66 7.938zm-22.132-5.229c1.95-1.083 3.758-1.996 5.936-2.793l-1.18-2.524c-2.781 1.001-5.025 2.197-7.664 3.747l-1.431.84 7.983 13.596 7.626-4.476-1.406-2.394-4.718 2.77z" style="fill:#fff;fill-opacity:1;fill-rule:nonzero;stroke:none" transform="translate(657.606 537.942)"/><path d="m0 0-2.196 2.278-4.315-4.16L-8.887.584l10.776 10.39 2.378-2.465L-.16 4.241l2.196-2.278Zm-2.484 8.595-9.761 10.121 1.942 1.873 3.673-3.809 1.605 1.548 2.396-2.483-1.605-1.549 3.692-3.828zm-9.885.235c1.061-1.102 2.231-1.453 3.107-.607.859.828.55 2.008-.511 3.11-1.082 1.12-2.231 1.453-3.09.625-.876-.846-.588-2.007.494-3.128m-1.867-1.801c-2.378 2.465-2.783 5.463-.896 7.282 1.866 1.801 4.847 1.288 7.225-1.178 2.396-2.483 2.781-5.462.915-7.263-1.887-1.819-4.85-1.325-7.244 1.159m-4.039 1.872L-7.22-2.565l-5.732-5.529-2.378 2.465 3.754 3.619-8.68 9.002z" style="fill:#fff;fill-opacity:1;fill-rule:nonzero;stroke:none" transform="translate(679.956 505.37)"/><path d="M0 0c4.181 1.372 7.025 2.876 9.447 4.182L2.733 16.624l2.396 1.293 8.339-15.455-2.031-1.096C8.856-.026 5.957-1.591 1.33-3.173Zm.137-6.971-2.421-1.306-10.272 19.04 2.421 1.305 2.155-3.995 6.643 3.585 1.6-2.969-6.642-3.584 1.208-2.237 6.642 3.584 1.588-2.944-6.643-3.585z" style="fill:#fff;fill-opacity:1;fill-rule:nonzero;stroke:none" transform="translate(689.702 478.161)"/><path d="M0 0a5.444 5.444 0 1 1-.001 10.887A5.444 5.444 0 0 1 0 0" style="fill:#fff;fill-opacity:1;fill-rule:nonzero;stroke:none" transform="translate(456.804 445.62)"/><path d="M0 0a5.443 5.443 0 1 1-.002 10.886A5.443 5.443 0 0 1 0 0" style="fill:#fff;fill-opacity:1;fill-rule:nonzero;stroke:none" transform="translate(702.566 444.896)"/></g></svg>