<svg xmlns="http://www.w3.org/2000/svg" width="134.35489mm" height="99.383247mm" viewBox="0 0 134.35489 99.383247"><path d="m-29.065 108.863-4.931-3.946.014-.018 7.12 1.212 1.123-1.404-6.935-5.547-1.045 1.303 4.827 3.862-.015.018-6.957-1.2-1.193 1.493 6.934 5.55 1.058-1.323M-21.468 92.196l3.631 6.331 1.57-.901-3.634-6.33 2.135-1.24-.789-1.37-5.834 3.345.787 1.373 2.134-1.208M-12.184 95.58l-3.496-8.168-1.663.713 3.493 8.167 1.666-.712M-9.976 94.099c.818.321 1.686.36 2.606.12.906-.245 1.64-.703 2.19-1.39.844-1.042 1.04-2.43.579-4.164-.462-1.741-1.318-2.85-2.57-3.34-.813-.308-1.674-.339-2.585-.097-.917.244-1.655.701-2.208 1.368-.847 1.045-1.037 2.435-.577 4.175.456 1.736 1.312 2.843 2.565 3.328zm-.692-6.36c.29-.497.727-.826 1.317-.982.581-.156 1.117-.084 1.61.206.656.37 1.119 1.094 1.403 2.16.283 1.068.23 1.92-.15 2.57-.277.502-.71.83-1.294.983-.588.157-1.134.088-1.633-.209-.643-.375-1.107-1.093-1.39-2.156-.284-1.07-.237-1.928.137-2.573M-23.95 103.183l-.683-1.82 2.524-2.061 1.607 1.067 1.517-1.239L-27 94.21l-1.608 1.313 3.186 8.857zm-2.6-6.76 3.072 2.027-1.735 1.416-1.353-3.429.017-.014M40.18 121.071l1.46-.583-1.522-3.797 2.108-.921 1.345 3.312 1.44-.575-1.322-3.311 1.707-.715 1.487 3.688 1.467-.583-2.142-5.423-8.184 3.465 2.155 5.443M-1.06 93.073l-.305-6.309.026-.002 3.803 6.144 1.79-.089-.426-8.873-1.667.08.296 6.175-.026.002-3.702-6.01-1.908.093.43 8.873 1.69-.084M47.706 134.599l-.056 1.69a2.725 2.725 0 0 0 1.863-.634c.694-.574 1.063-1.447 1.105-2.62.038-1.233-.263-2.15-.908-2.745-.459-.421-1.027-.64-1.705-.655-.459-.016-.85.048-1.171.187-.29.127-.539.324-.746.597-.165.221-.31.505-.445.856-.077.214-.176.555-.303 1.019l-.268.915c-.15.545-.282.917-.4 1.108-.177.289-.423.426-.739.416-.413-.014-.71-.222-.884-.617-.141-.308-.203-.712-.186-1.215.024-.701.214-1.2.572-1.499a1.35 1.35 0 0 1 .891-.287l.06-1.736c-.74-.023-1.372.174-1.899.602-.736.603-1.127 1.597-1.174 2.993-.023.733.108 1.402.395 1.99.461.966 1.25 1.467 2.374 1.503.729.025 1.296-.189 1.703-.643.298-.322.543-.832.74-1.538l.614-2.08c.08-.274.163-.47.257-.592.164-.205.395-.301.687-.292.362.012.63.186.811.525.14.275.203.614.19 1.013-.022.676-.209 1.158-.557 1.438-.206.167-.484.268-.82.301M33.852 108.78l7.019-5.444-1.106-1.43-7.024 5.443 1.11 1.43M40.64 123.767l3.388-.795.296 1.578c.113.607.108 1.021-.104 1.256-.155.175-.561.341-1.216.497a9.49 9.49 0 0 0-1.034.287 3.905 3.905 0 0 0-.674.296l.46 1.952.23-.056c.028-.202.155-.35.371-.45.16-.068.579-.185 1.254-.34.748-.177 1.256-.398 1.527-.664.197-.181.339-.487.423-.91.235.372.57.63.998.776.42.144.875.153 1.354.04a2.506 2.506 0 0 0 1.395-.837c.522-.614.654-1.395.445-2.367l-.868-4.02-8.65 2.03zm7.156-1.68.378 1.953c.088.45.057.804-.155 1.067-.157.203-.392.34-.694.41-.418.096-.747.057-.987-.115-.238-.17-.428-.482-.518-.948l-.349-1.82 2.325-.546M36.385 112.742l9.18-2.54-1.015-1.562-6.8 2.246-.008-.009 4.823-5.297-1.059-1.631-6.057 7.354.936 1.44M18.887 94.659l-3.49-1.33 2.592-6.788-1.69-.644-3.168 8.297 5.18 1.972.576-1.507M7.225 91.42l3.214.517.272 1.913 1.929.312-1.637-9.262-2.051-.33-4.512 8.265 1.877.302zm2.4-4.715h.02l.523 3.644-2.209-.355 1.666-3.29M28.032 102.44l4.355-4.575.016.015-1.816 6.992 1.299 1.24 6.124-6.434-1.208-1.155-4.263 4.479-.014-.017 1.788-6.83-1.388-1.315-6.12 6.434 1.227 1.167M21.733 97.796c.266.367.605.699 1.024 1 .908.653 1.762.941 2.556.852.852-.085 1.61-.59 2.273-1.51l3.347-4.653-1.489-1.07-3.385 4.707c-.322.454-.678.712-1.063.78-.402.073-.85-.068-1.338-.422-.382-.274-.603-.608-.655-1.002-.065-.427.076-.876.42-1.352l3.337-4.642-1.503-1.084-3.42 4.753a4.31 4.31 0 0 0-.555 1.062 2.597 2.597 0 0 0-.137 1.074c.045.522.24 1.022.588 1.507M-6.276 113.095l.39 9.2c2.333 1.585 4.584 3.754 5.857 6.468-.214-6.93-1.672-14.362-6.247-15.668M4.873 128.763c1.27-2.714 3.52-4.883 5.859-6.469l.388-9.199c-4.577 1.306-6.035 8.739-6.247 15.668M14.225 148.222c-.2-.129-.472-.194-.823-.194-.358 0-.645.065-.856.197-.212.132-.315.308-.315.527 0 .224.1.405.31.531.207.133.489.196.847.196.353 0 .63-.063.833-.196.204-.126.308-.306.308-.524 0-.226-.101-.407-.304-.537M47.42 143.523l-7.067-1.818-.45 1.755 7.067 1.815-.498 2.099 1.533.393 1.574-6.053-1.534-.397-.625 2.206M41.076 138.98l8.776 1.382.28-1.788-8.777-1.38-.28 1.787M-39.379 118.62c1.651.701 3.052.71 4.205.02.756-.448 1.32-1.108 1.689-1.981.37-.866.455-1.727.252-2.578-.3-1.313-1.277-2.317-2.928-3.02-1.653-.706-3.059-.716-4.211-.024-.743.454-1.3 1.112-1.667 1.98-.374.875-.465 1.732-.278 2.583.302 1.308 1.283 2.315 2.938 3.02zm-1.208-4.986c.238-.55.622-.932 1.154-1.141.695-.287 1.55-.21 2.568.224 1.014.427 1.657.992 1.933 1.69.225.53.217 1.076-.018 1.626-.237.562-.627.95-1.169 1.16-.692.28-1.542.205-2.555-.229-1.019-.433-1.668-.997-1.946-1.688-.215-.532-.204-1.08.033-1.642" style="fill:#00a298;fill-opacity:1;fill-rule:nonzero;stroke:none;stroke-width:.0352778" transform="translate(63.701 -117.163) scale(1.39572)"/><path d="M2.422 95.954c-19.887 0-36.104 16.219-36.104 36.104 0 8.12 2.701 15.626 7.255 21.67H31.27a36.029 36.029 0 0 0 7.254-21.67c0-19.885-16.216-36.104-36.101-36.104zm-11.18 54.593h-2.532v-3.133h-1.947v-1.116c.806-.01 1.404-.105 1.786-.275.386-.174.628-.455.735-.86h1.958zm8.254-.612c-.692.501-1.651.75-2.877.75-.915 0-1.672-.129-2.27-.39-.597-.264-.978-.628-1.133-1.103l2.364-.057c.073.142.2.25.371.325.171.078.388.113.647.113.423 0 .753-.104.979-.31.225-.208.355-.52.387-.939-.223.129-.5.226-.825.291a5.398 5.398 0 0 1-1.096.1c-.913 0-1.638-.16-2.178-.48-.542-.323-.814-.753-.814-1.29 0-.595.315-1.063.95-1.411.64-.343 1.51-.515 2.62-.515 1.29 0 2.265.238 2.927.71.656.476.985 1.174.985 2.108 0 .898-.345 1.597-1.037 2.098zm9.277-.508H7.747v1.12H5.28v-1.12H1.302v-1.306l4.039-2.958h2.406v3.04h1.026Zm7.341.746c-.635.35-1.503.521-2.608.521-1.294 0-2.268-.237-2.927-.712-.654-.477-.983-1.18-.983-2.114 0-.896.344-1.598 1.033-2.099.684-.498 1.644-.75 2.877-.75.912 0 1.674.13 2.276.398.598.258.979.627 1.141 1.1l-2.394.052a.686.686 0 0 0-.358-.324c-.17-.078-.388-.114-.647-.114-.428 0-.757.104-.983.31-.226.208-.358.521-.39.942.23-.127.508-.22.832-.29.327-.065.692-.1 1.101-.1.908 0 1.63.16 2.174.48.54.32.809.748.809 1.286 0 .6-.315 1.07-.953 1.414zm11.328-6.965h-5.605v-19.232c-1.553.05-3.392.48-5.283 1.297v17.697h-5.829v-13.633c-3.867 3.684-5.984 8.294-6.04 13.633H.159c-.059-5.34-2.176-9.95-6.043-13.633l.002 13.633h-5.83v-17.697c-1.891-.817-3.732-1.247-5.283-1.297v19.232h-5.606v-25.263c4.093-.13 7.721.337 10.89 1.353v-.184l-.267-13.787c6.89-.003 13.179 3.876 14.432 10.774 1.194-6.866 7.467-10.774 14.368-10.774l-.268 13.787v.184c3.169-1.016 6.797-1.482 10.888-1.353v25.263M38.632 147.176l-.763 1.637 3.023 1.41 3.822 4.927.857-1.835-2.8-3.175 4.307-.061.901-1.924-6.306.438-3.041-1.417M-39.693 144.092c1.766-.312 2.944-1.07 3.534-2.277.39-.788.502-1.648.339-2.58-.165-.932-.565-1.698-1.201-2.305-.963-.932-2.33-1.24-4.097-.927-1.77.31-2.953 1.07-3.544 2.272-.376.788-.482 1.647-.318 2.571.166.937.558 1.705 1.178 2.317.969.934 2.337 1.24 4.11.93zm-3.727-3.523c-.106-.59.008-1.118.339-1.584.426-.618 1.183-1.022 2.274-1.213 1.085-.19 1.93-.07 2.546.367.478.32.767.776.871 1.369.107.602-.01 1.138-.346 1.611-.433.609-1.183 1.01-2.27 1.202-1.086.193-1.94.073-2.55-.353-.47-.329-.76-.795-.864-1.4M-36.724 132.804l-3.008-.056-.884-.866 3.958-2.566.047-2.329-5.314 3.606-3.57-3.576-.047 2.327 3.563 3.359-3.626-.07-.035 1.794 8.88.177.036-1.8M-36.074 124.59l-3.17-.487.301-1.975c.152-.993-.102-1.788-.765-2.383a3.132 3.132 0 0 0-1.609-.758c-.874-.136-1.595-.007-2.165.388-.578.398-.932 1.005-1.055 1.814l-.59 3.844 8.781 1.345zm-4.422-2.303-.245 1.588-2.593-.395.208-1.352c.084-.553.239-.936.462-1.155.23-.217.564-.292.994-.226.36.059.624.157.803.294.33.268.456.682.371 1.246M-38.686 152.713l-.01-.019 5.732-4.14-.689-1.625-6.967 1.23-.008-.024 6.344-2.69-.659-1.552-8.177 3.471 1.017 2.394 6.765-1.213.002.007-5.55 4.076 1.03 2.423 8.175-3.472-.662-1.557-6.343 2.691" style="fill:#00a298;fill-opacity:1;fill-rule:nonzero;stroke:none;stroke-width:.0352778" transform="translate(63.701 -117.163) scale(1.39572)"/><path d="M-2.597 146.292c-.205-.13-.49-.196-.845-.196-.35 0-.626.067-.83.196-.203.131-.306.306-.306.526 0 .231.098.408.301.537.197.13.472.192.82.192.354 0 .638-.065.85-.192.212-.132.316-.306.316-.527a.609.609 0 0 0-.306-.536M5.34 148.204v-1.571l-2.086 1.57z" style="fill:#00a298;fill-opacity:1;fill-rule:nonzero;stroke:none;stroke-width:.0352778" transform="translate(63.701 -117.163) scale(1.39572)"/></svg>