<svg xmlns="http://www.w3.org/2000/svg" width="1269.4561pt" height="1269.4374pt" fill-rule="evenodd" viewBox="0 0 1269.4561 1269.4374"><path d="m749.547 188.308-5.156-.028c-349.961 0-634.677 284.704-634.677 634.697 0 349.093 283.292 633.253 632.052 634.713l2.724.02c349.95 0 634.68-284.72 634.68-634.707 0-348.273-281.98-631.94-629.623-634.695zM1336.01 812.24h-156.12c-.07-6.055-.38-12.105-.63-18.15-.14-5.076-.25-10.188-.53-15.26-.38-8.708-1.04-17.415-1.78-26.102-.29-4.24-.51-8.495-.87-12.762-1.2-12.36-2.6-24.668-4.27-36.878-.1-.514-.1-1.03-.19-1.533-1.75-12.841-3.84-25.528-6.14-38.134-.71-3.704-1.55-7.325-2.26-10.961-1.75-8.842-3.53-17.646-5.56-26.296-1.05-4.694-2.28-9.264-3.45-13.871-1.88-7.593-3.8-15.186-5.89-22.687-1.4-4.96-2.94-9.862-4.41-14.747-2.12-7.048-4.3-14.022-6.59-20.91-1.66-5.04-3.46-10.031-5.21-15.029-1.43-3.936-2.66-7.966-4.15-11.87h128.7c48.84 84.212 77.51 181.468 79.35 285.19zm-771.158 99.762c-.069-1.854-.248-3.686-.303-5.497-.973-22.275-1.504-44.802-1.672-67.35a270.979 270.979 0 0 1-.055-5.472h363.297c-.054 1.82-.054 3.636-.054 5.472-.211 22.548-.725 45.075-1.684 67.35a140.237 140.237 0 0 0-.266 5.497c-1.121 23.303-2.576 46.387-4.457 69.13l-.019.087c-1.899 22.791-4.307 45.151-7.061 67.051-.18 1.58-.328 3.19-.545 4.75-2.668 20.99-5.849 41.44-9.248 61.39-.24 1.51-.457 3-.779 4.49H586.881c-.254-1.49-.459-2.98-.75-4.49-3.447-19.95-6.535-40.4-9.223-61.39-.217-1.56-.377-3.17-.556-4.75-2.78-21.9-5.125-44.26-7.094-67.051v-.087c-1.912-22.743-3.348-45.827-4.406-69.13zm-.645-379.34a1449.647 1449.647 0 0 0-8.732 59.244c-.366 2.526-.608 5.1-.916 7.609a1786.744 1786.744 0 0 0-6.752 64.76c-.075.898-.119 1.806-.18 2.687a1934.66 1934.66 0 0 0-4.271 67.334c-.075 1.67-.186 3.326-.26 5.019-.936 22.265-1.45 44.753-1.635 67.297-.029 1.878-.154 3.737-.154 5.628H330.623c.025-5.517.186-11.005.377-16.542.18-5.457.285-11.005.545-16.471.385-7.513.99-15.052 1.547-22.554.385-5.248.736-10.556 1.25-15.794.693-7.902 1.683-15.698 2.681-23.515.545-4.831 1.045-9.696 1.721-14.474 1.281-8.992 2.797-17.866 4.332-26.766.651-3.524 1.076-7.107 1.764-10.631 2.297-12.328 4.845-24.603 7.73-36.697.608-2.696 1.37-5.313 2.006-7.971 2.297-9.425 4.723-18.794 7.317-28.048 1.261-4.324 2.667-8.558 3.972-12.846 2.24-7.443 4.483-14.913 6.983-22.243 1.56-4.689 3.33-9.28 5.039-13.936 2.01-5.569 4.047-11.197 6.181-16.702h180.994c-.328 1.795-.55 3.78-.855 5.612zm5.051 132.147v-.122c1.969-22.793 4.314-45.143 7.094-67.061.179-1.554.339-3.14.556-4.694a1417.336 1417.336 0 0 1 9.223-61.407c.291-1.506.496-3 .75-4.475h315.125c.322 1.475.539 2.969.779 4.475 3.399 19.947 6.58 40.408 9.248 61.407.217 1.554.365 3.14.545 4.694 2.754 21.918 5.162 44.268 7.061 67.061l.019.122c1.881 22.703 3.336 45.801 4.457 69.118.061 1.843.135 3.669.266 5.521.959 22.239 1.473 44.733 1.684 67.308 0 1.836 0 3.63.054 5.484H562.822c0-1.854.018-3.648.055-5.484.168-22.575.699-45.069 1.672-67.308.055-1.852.234-3.678.303-5.521 1.058-23.317 2.494-46.415 4.406-69.118zm-78.252 168.874H541.307c0 1.879.125 3.726.154 5.605.185 22.56.699 45.041 1.635 67.329.074 1.678.185 3.33.26 4.995a1938.213 1938.213 0 0 0 4.271 67.376c.061.863.105 1.742.18 2.637a1790.717 1790.717 0 0 0 6.752 64.805c.308 2.52.55 5.09.873 7.6 2.605 20.22 5.521 39.98 8.775 59.23.305 1.89.527 3.81.855 5.64H384.068c-2.091-5.49-4.152-11.09-6.17-16.65-1.652-4.67-3.429-9.28-5.019-13.99-2.488-7.31-4.742-14.78-6.982-22.23-1.325-4.29-2.743-8.5-3.944-12.86-2.623-9.25-5.006-18.62-7.308-28-.657-2.67-1.467-5.3-2.075-8.01a776.466 776.466 0 0 1-7.73-36.709c-.643-3.49-1.113-7.05-1.764-10.596-1.535-8.913-3.051-17.81-4.332-26.831-.662-4.76-1.176-9.569-1.721-14.36-.998-7.861-1.988-15.697-2.681-23.588-.514-5.255-.865-10.513-1.25-15.802-.557-7.511-1.162-15.05-1.547-22.591-.26-5.475-.365-10.981-.545-16.474-.191-5.499-.352-11.026-.377-16.526zm433.703 279.577a1584.31 1584.31 0 0 0 8.758-59.23c.322-2.51.607-5.08.91-7.6 2.623-21.26 4.877-42.82 6.715-64.805.074-.895.137-1.774.205-2.637 1.812-22.137 3.213-44.664 4.24-67.376.08-1.665.234-3.317.266-4.995.99-22.288 1.484-44.769 1.683-67.329 0-1.879.112-3.726.112-5.605h210.662c-.07 5.472-.2 10.968-.36 16.461-.18 5.521-.3 11.064-.57 16.579-.34 7.47-.94 14.935-1.51 22.409-.44 5.313-.76 10.658-1.25 15.994-.75 7.841-1.74 15.615-2.63 23.414-.65 4.84-1.13 9.687-1.79 14.521-1.26 8.984-2.82 17.869-4.36 26.776-.59 3.546-1.07 7.124-1.75 10.614a787.398 787.398 0 0 1-7.72 36.799c-.57 2.54-1.3 5-1.95 7.54-2.33 9.52-4.7 19.05-7.32 28.38-1.31 4.36-2.72 8.57-4.02 12.86-2.26 7.45-4.5 14.92-6.99 22.25-1.6 4.72-3.34 9.3-5.04 13.97-2.02 5.6-4.05 11.16-6.21 16.65H923.867c.309-1.83.514-3.75.842-5.64zm22.92-301.02h-.031c0-1.891-.112-3.75-.112-5.628-.199-22.544-.693-45.032-1.683-67.297-.032-1.693-.186-3.349-.266-5.019-1.027-22.697-2.428-45.219-4.24-67.361-.068-.887-.131-1.762-.205-2.617a1637.146 1637.146 0 0 0-6.715-64.813c-.303-2.499-.588-5.073-.91-7.588a1585.422 1585.422 0 0 0-8.758-59.255c-.328-1.832-.533-3.817-.842-5.612h180.973c2.19 5.612 4.25 11.277 6.27 16.968 1.65 4.517 3.35 9.018 4.93 13.568 2.56 7.656 4.92 15.404 7.26 23.178 1.24 3.989 2.52 7.881 3.67 11.885 2.82 9.974 5.42 20.034 7.87 30.189.48 1.937 1.03 3.859 1.48 5.783 2.86 12.21 5.42 24.501 7.75 36.957.59 3.081 1.03 6.297 1.56 9.446 1.62 9.252 3.23 18.554 4.52 27.914.66 4.661 1.12 9.397 1.73 14.095.95 7.931 1.94 15.848 2.69 23.846.49 5.206.81 10.481 1.25 15.736.53 7.528 1.17 15.04 1.51 22.612.27 5.466.39 11.014.57 16.471.16 5.537.29 11.025.36 16.542zM1243.6 505.608H1119.5c-1.18-2.922-2.56-5.591-3.86-8.469-4.26-9.973-8.67-19.799-13.26-29.351-2.22-4.527-4.44-8.979-6.74-13.39-4.58-9.023-9.37-17.753-14.31-26.349-2.22-3.861-4.32-7.78-6.61-11.55-7.12-11.874-14.47-23.422-22.19-34.433-.17-.325-.44-.565-.63-.892-7.6-10.892-15.54-21.207-23.7-31.207-2.64-3.225-5.35-6.286-8.04-9.414-5.92-6.925-11.95-13.695-18.16-20.183-3.018-3.17-6.094-6.327-9.096-9.408a479.86 479.86 0 0 0-20.158-18.757c-2.545-2.253-5.064-4.661-7.639-6.84-9.228-7.774-18.654-15.162-28.298-21.96 127.531 43.964 235.431 130.302 306.791 242.203zM850.867 240.927c.106.037.18.037.254.096 1.572.577 3.064 1.329 4.606 1.98 6.468 2.66 12.88 5.473 19.273 8.554 2.668 1.346 5.287 2.798 7.992 4.144 5.211 2.723 10.367 5.543 15.51 8.565 2.842 1.654 5.607 3.362 8.406 5.109a327.68 327.68 0 0 1 14.942 9.894c2.593 1.804 5.199 3.571 7.793 5.43 5.63 4.126 11.152 8.484 16.63 12.952 1.739 1.411 3.491 2.713 5.186 4.134a442.51 442.51 0 0 1 21.25 19.136c1.305 1.292 2.586 2.691 3.867 3.977a438.358 438.358 0 0 1 16.434 16.975c2.178 2.375 4.295 4.869 6.431 7.308 4.479 5.046 8.849 10.262 13.169 15.58 2.27 2.767 4.48 5.558 6.68 8.415 4.2 5.436 8.38 11.063 12.42 16.798 2.04 2.798 4 5.493 5.96 8.345 4.7 6.898 9.28 13.973 13.79 21.219 1.1 1.767 2.31 3.513 3.43 5.345a586.495 586.495 0 0 1 16.18 28.383c1.11 2.055 2.18 4.24 3.25 6.339 4.01 7.645 7.94 15.423 11.69 23.406 1.59 3.397 3.12 6.866 4.69 10.322 1.78 4.025 3.52 8.185 5.27 12.275H920.023a1495.804 1495.804 0 0 0-5.224-26.174c-.359-1.704-.754-3.338-1.096-5.018a1097.502 1097.502 0 0 0-5.873-25.79c-.676-2.83-1.367-5.654-2.043-8.426a1029.171 1029.171 0 0 0-6.92-26.562 54.895 54.895 0 0 1-.513-2.019c-2.612-9.284-5.305-18.137-8.059-26.867-.719-2.275-1.467-4.496-2.178-6.744a727.755 727.755 0 0 0-7.142-20.888c-.559-1.473-1.09-3.085-1.672-4.586-2.922-7.966-5.893-15.622-8.988-23.028-.663-1.667-1.399-3.268-2.13-4.907-2.579-5.97-5.125-11.735-7.761-17.3-.822-1.627-1.578-3.305-2.315-4.895-3.25-6.643-6.549-13.045-9.945-19.072-.502-.93-1.09-1.799-1.609-2.74-2.959-5.103-5.893-9.962-8.92-14.655-.942-1.458-1.844-2.926-2.803-4.314-3.486-5.175-7.002-10.129-10.566-14.705-.049-.087-.123-.155-.223-.272-3.15-4-6.332-7.726-9.6-11.234a608.966 608.966 0 0 1 36.424 5.515zm-167.709 17.497c1.621-2.008 3.225-4.181 4.858-6.071 2.062-2.317 4.134-4.326 6.197-6.38 1.602-1.639 3.211-3.434 4.803-4.875 2.166-1.997 4.338-3.566 6.492-5.248 1.603-1.202 3.15-2.601 4.734-3.706l.031-.011a639.411 639.411 0 0 1 29.129-.993h5.088c11.518 0 22.955.411 34.289 1.084 1.547 1.031 3.094 2.424 4.58 3.615 2.186 1.693 4.375 3.262 6.512 5.259 1.615 1.441 3.211 3.23 4.814 4.848 2.075 2.081 4.167 4.09 6.247 6.407 1.603 1.89 3.193 4.037 4.82 6.071 2.006 2.461 3.992 4.837 5.98 7.555 1.604 2.237 3.157 4.747 4.803 7.117 1.9 2.857 3.801 5.633 5.694 8.714 1.603 2.569 3.127 5.419 4.742 8.164 1.857 3.209 3.726 6.385 5.521 9.813 1.59 2.942 3.076 6.114 4.623 9.195 1.783 3.562 3.578 7.089 5.317 10.881 1.503 3.263 2.959 6.782 4.494 10.144 1.658 3.957 3.367 7.802 5.105 11.886 1.412 3.614 2.828 7.433 4.297 11.207 1.59 4.197 3.211 8.393 4.803 12.783 1.398 3.913 2.754 8.02 4.14 12.088 1.516 4.506 3.088 9.082 4.53 13.755 1.343 4.222 2.65 8.595 3.98 12.953 1.424 4.831 2.897 9.652 4.221 14.666 1.301 4.501 2.477 9.146 3.746 13.781 1.324 5.137 2.686 10.279 3.955 15.565 1.193 4.773 2.315 9.626 3.434 14.491 1.232 5.424 2.513 10.903 3.689 16.45 1.09 5.055 2.112 10.171 3.139 15.317a725.011 725.011 0 0 1 2.135 10.659H590.842c.705-3.625 1.387-7.24 2.103-10.796 1.016-5.068 2.043-10.14 3.108-15.084 1.195-5.639 2.488-11.149 3.752-16.626a750.359 750.359 0 0 1 3.373-14.337c1.299-5.36 2.711-10.545 4.047-15.724 1.195-4.598 2.433-9.221 3.64-13.638 1.416-5.072 2.903-9.913 4.338-14.778 1.256-4.308 2.563-8.677 3.85-12.879 1.572-4.693 3.09-9.269 4.623-13.829 1.355-4.014 2.736-8.121 4.123-12.034a573.39 573.39 0 0 1 4.871-12.879c1.43-3.736 2.797-7.497 4.24-11.068 1.69-4.127 3.447-8.025 5.137-11.949 1.461-3.422 2.947-6.861 4.451-10.124 1.733-3.792 3.516-7.319 5.311-10.881 1.515-3.081 3.05-6.253 4.634-9.195 1.801-3.428 3.67-6.604 5.528-9.813 1.584-2.745 3.101-5.595 4.742-8.164 1.838-3.081 3.762-5.857 5.705-8.714 1.58-2.37 3.182-4.88 4.805-7.117 1.961-2.718 3.978-5.094 5.935-7.555zm-116.183 20.871c5.002-3.438 9.996-6.787 15.078-9.957a327.523 327.523 0 0 1 8.33-5.052c5.187-3.042 10.424-5.862 15.685-8.659 2.563-1.325 5.163-2.724 7.799-4.044 6.479-3.16 13.102-6.044 19.701-8.776 1.367-.572 2.735-1.218 4.133-1.767.199-.076.385-.113.596-.205 11.971-2.177 24.059-4.046 36.263-5.499-3.273 3.525-6.566 7.305-9.748 11.347v.015a259.858 259.858 0 0 0-10.74 14.967c-.908 1.366-1.869 2.803-2.76 4.25a283.518 283.518 0 0 0-8.925 14.677c-.489.941-1.088 1.81-1.633 2.75-3.373 6.017-6.629 12.382-9.91 19.018-.754 1.634-1.59 3.354-2.358 5.025a496.431 496.431 0 0 0-7.713 17.103c-.736 1.691-1.492 3.351-2.208 5.136a623.216 623.216 0 0 0-8.907 22.803 288.305 288.305 0 0 0-1.783 4.998 621.286 621.286 0 0 0-7.006 20.429c-.75 2.338-1.517 4.682-2.265 7.052a843.469 843.469 0 0 0-7.954 26.575c-.267.913-.484 1.911-.781 2.85-2.309 8.373-4.549 17.034-6.74 25.832-.68 2.809-1.404 5.633-2.061 8.528-1.974 8.345-3.937 16.871-5.775 25.633-.397 1.735-.799 3.402-1.176 5.169a1114.13 1114.13 0 0 0-5.199 26.115H392.883c1.72-3.952 3.387-7.972 5.168-11.875 1.621-3.631 3.238-7.325 4.945-10.903 3.609-7.64 7.422-15.131 11.234-22.511 1.239-2.414 2.389-4.848 3.696-7.218 5.168-9.611 10.504-19.014 16.025-28.122 1.274-2.035 2.561-3.972 3.836-5.981 4.389-7.005 8.795-13.909 13.389-20.567 2.029-2.964 4.066-5.781 6.164-8.649a488.758 488.758 0 0 1 12.207-16.482 987.015 987.015 0 0 1 6.806-8.624c4.266-5.286 8.612-10.384 13.055-15.415 2.178-2.488 4.315-5.013 6.512-7.432 5.342-5.808 10.775-11.384 16.254-16.818 1.342-1.32 2.711-2.789 4.078-4.111a424.286 424.286 0 0 1 21.156-19.078c1.676-1.458 3.471-2.76 5.217-4.171 5.473-4.479 11.043-8.841 16.662-12.968 2.545-1.843 5.125-3.594 7.688-5.388zm-14.768-15.97c-9.662 6.846-19.113 14.229-28.43 22.04-2.531 2.179-4.994 4.545-7.525 6.75a498.51 498.51 0 0 0-20.277 18.895 705.826 705.826 0 0 0-9.012 9.286c-6.258 6.562-12.305 13.332-18.295 20.37-2.656 3.064-5.287 6.076-7.867 9.247-8.196 10.081-16.248 20.471-23.942 31.416a1.88 1.88 0 0 1-.347.475c-7.748 11.144-15.194 22.757-22.338 34.721-2.252 3.744-4.375 7.647-6.609 11.48-4.903 8.624-9.674 17.37-14.297 26.393a485.452 485.452 0 0 0-6.686 13.39c-4.648 9.552-9.043 19.378-13.338 29.351-1.226 2.878-2.65 5.547-3.857 8.469H245.251c71.378-111.939 179.335-198.309 306.956-242.283ZM232.161 527.05H360.94c-1.436 3.871-2.712 7.865-4.087 11.768-1.826 5.067-3.607 10.091-5.31 15.233-2.283 6.786-4.4 13.631-6.424 20.514-1.51 5.057-3.119 10.081-4.574 15.173-2.006 7.306-3.906 14.711-5.733 22.089-1.23 4.839-2.542 9.585-3.632 14.454-1.955 8.373-3.639 16.925-5.348 25.464-.793 3.924-1.678 7.826-2.414 11.779-2.283 12.573-4.369 25.243-6.152 37.972-.129.886-.18 1.758-.266 2.616a847.425 847.425 0 0 0-4.154 35.876c-.377 4.245-.618 8.5-.971 12.707-.687 8.703-1.35 17.427-1.752 26.135-.234 5.105-.334 10.184-.494 15.26-.211 6.045-.576 12.067-.651 18.15H152.848c1.87-103.722 30.49-200.973 79.313-285.19zm-79.313 306.633H308.978c.075 6.051.44 12.11.651 18.176.16 5.05.26 10.16.494 15.226.402 8.801 1.09 17.535 1.795 26.287.316 4.174.551 8.386.928 12.57 1.183 12.466 2.594 24.938 4.291 37.326.066.35.066.746.129 1.09a870.674 870.674 0 0 0 6.195 38.142c.65 3.717 1.535 7.329 2.26 11.021 1.752 8.819 3.484 17.609 5.521 26.299 1.028 4.6 2.289 9.2 3.442 13.79 1.943 7.64 3.855 15.2 5.929 22.72 1.447 4.96 2.934 9.81 4.418 14.72a722.081 722.081 0 0 0 6.58 20.98c1.672 5.01 3.467 9.94 5.174 14.9 1.443 3.95 2.719 8.02 4.192 11.97H232.191c-48.853-84.23-77.505-181.459-79.343-285.217Zm92.403 306.647h124.204c1.213 2.93 2.568 5.59 3.875 8.46 4.246 10.01 8.66 19.85 13.301 29.41 2.148 4.49 4.383 8.92 6.637 13.29a638.277 638.277 0 0 0 14.427 26.56c2.184 3.77 4.27 7.67 6.524 11.38 7.197 11.96 14.619 23.65 22.392 34.74l.162.24c7.717 11.03 15.832 21.54 24.108 31.66 2.557 3.18 5.193 6.07 7.787 9.14 6.01 7.05 12.162 13.95 18.42 20.5 2.988 3.11 5.947 6.2 8.949 9.19 6.672 6.64 13.518 12.98 20.432 19.07 2.474 2.18 4.865 4.46 7.377 6.55 9.339 7.87 18.822 15.32 28.552 22.15-127.683-43.92-235.677-130.34-307.147-242.34ZM638.5 1405.14c-.248-.09-.514-.14-.754-.24-1.467-.59-2.916-1.33-4.469-1.96a295.638 295.638 0 0 1-19.336-8.62c-2.681-1.29-5.33-2.72-7.992-4.13a356.561 356.561 0 0 1-15.435-8.48 580.943 580.943 0 0 1-8.555-5.21c-4.969-3.1-9.865-6.36-14.793-9.76-2.654-1.85-5.273-3.67-7.91-5.59-5.502-3.96-10.862-8.21-16.235-12.56-1.888-1.54-3.8-2.97-5.669-4.53a454.528 454.528 0 0 1-20.963-18.95c-1.598-1.5-3.114-3.16-4.655-4.69-5.304-5.26-10.498-10.6-15.623-16.17-2.328-2.56-4.623-5.24-6.963-7.84-4.214-4.89-8.486-9.83-12.578-14.96-2.382-2.92-4.74-5.95-7.097-8.98a442.891 442.891 0 0 1-11.897-16.03c-2.191-3.01-4.371-5.99-6.431-9.08-4.487-6.46-8.758-13.12-12.987-19.92-1.385-2.23-2.797-4.34-4.207-6.58-5.453-9.07-10.851-18.36-15.988-27.97-1.281-2.45-2.537-5-3.818-7.47-3.795-7.35-7.54-14.72-11.118-22.28-1.664-3.56-3.293-7.24-4.925-10.9-1.758-3.92-3.424-7.93-5.157-11.91h175.973a940.96 940.96 0 0 0 5.236 26.25c.317 1.59.7 3.1 1.047 4.62 1.901 8.95 3.893 17.68 5.91 26.22.657 2.8 1.338 5.51 2.018 8.22 2.26 9.12 4.519 17.98 6.931 26.66.194.66.366 1.36.559 2.04 2.594 9.23 5.297 18.11 8.039 26.83.694 2.27 1.461 4.49 2.166 6.75a716.617 716.617 0 0 0 7.137 20.84c.533 1.56 1.09 3.14 1.641 4.66a620.88 620.88 0 0 0 9.037 22.96c.705 1.71 1.398 3.29 2.134 5a514.67 514.67 0 0 0 7.731 17.21c.836 1.66 1.603 3.34 2.396 4.96a426.87 426.87 0 0 0 9.854 19.05c.588.96 1.144 1.78 1.633 2.71 2.928 5.11 5.906 10.04 8.925 14.69.922 1.46 1.852 2.87 2.797 4.28 3.504 5.25 7.076 10.22 10.703 14.84 0 .06 0 .08.098.15 3.158 4.01 6.377 7.75 9.65 11.3a608.825 608.825 0 0 1-36.06-5.43zm167.229-17.59c-1.604 1.98-3.245 4.13-4.877 6.01-2.012 2.33-4.118 4.32-6.167 6.4-1.632 1.61-3.224 3.43-4.833 4.86-2.118 1.96-4.307 3.49-6.401 5.19-1.578 1.24-3.199 2.67-4.826 3.76l-.063.04c-10.41.6-20.919.98-31.48 1.04h-2.691c-11.44 0-22.84-.44-34.149-1.08-1.601-1.09-3.15-2.52-4.797-3.76-2.123-1.7-4.263-3.23-6.386-5.19-1.604-1.43-3.237-3.25-4.846-4.86-2.043-2.08-4.135-4.07-6.197-6.4-1.59-1.88-3.211-4.03-4.76-6.01-2.055-2.51-4.072-4.89-6.033-7.6-1.617-2.25-3.164-4.71-4.805-7.12-1.943-2.84-3.867-5.66-5.705-8.67-1.641-2.62-3.158-5.45-4.742-8.2-1.858-3.23-3.727-6.38-5.528-9.81-1.584-2.96-3.07-6.09-4.591-9.17-1.809-3.56-3.59-7.14-5.331-10.88-1.484-3.27-2.988-6.71-4.474-10.1-1.69-3.92-3.416-7.89-5.082-12.02-1.467-3.54-2.865-7.31-4.295-11.03a562.024 562.024 0 0 1-4.871-12.91c-1.375-3.88-2.723-7.95-4.109-11.97-1.547-4.57-3.065-9.18-4.637-13.91-1.282-4.17-2.532-8.41-3.801-12.74-1.484-4.91-2.971-9.83-4.387-14.92a1360.54 1360.54 0 0 1-3.609-13.49c-1.367-5.26-2.768-10.49-4.078-15.87-1.102-4.63-2.243-9.41-3.356-14.2-1.281-5.53-2.551-11.13-3.769-16.8-1.034-4.88-2.074-9.85-3.108-14.84-.674-3.6-1.398-7.27-2.103-10.97H898.1c-.725 3.7-1.43 7.37-2.16 10.97-1.046 4.99-2.024 9.96-3.083 14.84a770.163 770.163 0 0 1-3.795 16.8c-1.064 4.79-2.166 9.57-3.359 14.2-1.295 5.38-2.662 10.61-4.037 15.87-1.199 4.55-2.395 9.08-3.59 13.49-1.43 5.09-2.976 10.01-4.386 14.92-1.282 4.33-2.551 8.57-3.889 12.74-1.453 4.73-3.057 9.34-4.592 13.91-1.355 4.02-2.68 8.09-4.078 11.97a465.369 465.369 0 0 1-4.891 12.91c-1.381 3.72-2.84 7.49-4.263 11.03-1.684 4.13-3.418 8.1-5.145 12.02-1.467 3.39-2.928 6.83-4.4 10.1a460.4 460.4 0 0 1-5.373 10.88c-1.516 3.08-3.032 6.21-4.567 9.17-1.851 3.43-3.689 6.58-5.521 9.81-1.615 2.75-3.139 5.58-4.742 8.2-1.913 3.01-3.825 5.83-5.756 8.67-1.59 2.41-3.182 4.87-4.809 7.12-1.92 2.71-3.967 5.09-5.935 7.6zm115.99-20.81c-4.909 3.4-9.811 6.66-14.799 9.78-2.828 1.73-5.627 3.48-8.498 5.19a383.786 383.786 0 0 1-15.43 8.48c-2.705 1.41-5.324 2.84-8.035 4.13-6.35 3.13-12.842 5.98-19.293 8.62-1.558.63-2.982 1.37-4.543 1.96-.234.1-.5.15-.723.24-11.884 2.17-23.923 4.03-36.06 5.47 3.268-3.57 6.498-7.33 9.705-11.34l.1-.15c3.65-4.62 7.142-9.59 10.675-14.84.916-1.41 1.838-2.82 2.737-4.28 3.093-4.65 6.041-9.58 8.974-14.69.539-.93 1.059-1.75 1.584-2.71 3.387-6.04 6.686-12.41 9.885-19.05.848-1.62 1.604-3.3 2.426-4.96 2.636-5.55 5.182-11.3 7.761-17.21.676-1.71 1.413-3.29 2.092-5 3.077-7.37 6.104-15 9.026-22.96.556-1.52 1.113-3.1 1.672-4.66a741.34 741.34 0 0 0 7.142-20.84c.711-2.26 1.442-4.48 2.178-6.75 2.723-8.72 5.39-17.6 8.01-26.83.197-.68.383-1.38.531-2.04a924.832 924.832 0 0 0 6.951-26.66c.651-2.71 1.367-5.42 2.043-8.22 2.018-8.54 3.98-17.27 5.91-26.22.354-1.52.7-3.03 1.041-4.62 1.781-8.56 3.547-17.32 5.242-26.25h175.947c-1.69 3.98-3.36 7.99-5.15 11.91-1.61 3.66-3.28 7.34-4.93 10.9-3.6 7.56-7.35 14.93-11.09 22.28-1.31 2.47-2.55 5.02-3.86 7.47-5.15 9.61-10.48 18.9-15.98 27.97-1.34 2.24-2.82 4.34-4.17 6.55-4.25 6.79-8.56 13.49-12.99 19.99-2.12 3.05-4.3 6.03-6.47 9.01-3.86 5.49-7.84 10.83-11.85 16.06-2.36 3.03-4.75 6.06-7.13 8.98-4.14 5.13-8.35 10.07-12.6 14.96-2.283 2.6-4.611 5.28-6.951 7.84-5.094 5.57-10.336 10.91-15.572 16.17-1.579 1.53-3.12 3.19-4.686 4.69-6.834 6.61-13.851 12.9-21.02 18.95-1.857 1.56-3.769 2.99-5.669 4.53-5.334 4.35-10.733 8.6-16.172 12.56-2.631 1.92-5.299 3.74-7.961 5.59zm14.812 15.9c9.7-6.8 19.18-14.17 28.49-22.02 2.606-2.22 5.125-4.62 7.725-6.93 6.764-5.96 13.492-12.15 20.029-18.69 3.045-3.05 6.139-6.24 9.175-9.47 6.18-6.42 12.2-13.17 18.13-20.1 2.7-3.13 5.42-6.18 8.05-9.43 8.11-9.97 16.06-20.29 23.67-31.11.18-.26.37-.51.56-.79 7.76-11.07 15.12-22.71 22.3-34.65 2.27-3.73 4.39-7.63 6.59-11.5 4.96-8.61 9.76-17.37 14.38-26.42 2.25-4.41 4.52-8.84 6.66-13.33 4.63-9.58 9.04-19.4 13.3-29.36 1.26-2.92 2.71-5.58 3.9-8.51H1243.65c-71.45 111.98-179.44 198.41-307.119 242.31zM1256.7 1118.9h-128.81c1.47-3.94 2.79-7.98 4.22-11.93 1.75-4.98 3.55-9.95 5.21-14.99 2.28-6.85 4.42-13.76 6.5-20.7 1.5-5.04 3.06-9.99 4.5-15.01 2.02-7.32 3.89-14.65 5.76-22.09 1.21-4.84 2.51-9.63 3.61-14.52 1.91-8.29 3.6-16.7 5.31-25.177.81-4.026 1.7-8.009 2.48-12.088 2.3-12.558 4.39-25.173 6.14-37.954.09-.863.19-1.751.32-2.652a815.21 815.21 0 0 0 4.08-35.8c.42-4.299.64-8.656 1-12.943.67-8.59 1.33-17.252 1.71-25.927.28-5.1.39-10.262.53-15.378.25-6.028.56-12.042.63-18.058h156.12c-1.8 103.758-30.47 200.987-79.31 285.217z" style="fill:#ececed;stroke:none" transform="translate(-109.714 -188.278)"/><path d="m680.342 672.093-1.528 2.507c2.109 23.317 19.262 42.815 36.968 42.815.656 0 1.311-.027 1.967-.081-.367.03-.734.045-1.103.045-15.059 0-31.369-24.589-33.155-44.496l-3.149-.79" style="fill:#e0e2e3;stroke:none" transform="translate(-109.714 -188.278)"/><path d="m660.925 692.617-2.284-32.083-30.682-7.695 29.241-12.152-2.272-32.063 20.38 24.599 29.272-12.153-16.681 27.326 20.4 24.594-30.682-7.678-16.692 27.305m-13.134-101.848 3.268 46.025-42.008 17.412 44.05 11.089 3.319 46.058 22.394-36.753a60.17 60.17 0 0 1-.077-.953l1.114-4.8 3.584 3.342c.016.231.035.462.056.694l40.907 10.267-29.258-35.288 23.923-39.227-42.002 17.433-29.27-35.299" style="fill:#c9cccd;stroke:none" transform="translate(-109.714 -188.278)"/><path d="m679.851 668.847-1.114 4.8c.023.318.049.636.077.953l1.528-2.507 3.149.79c-.021-.232-.04-.463-.056-.694l-3.584-3.342" style="fill:#c1c3c4;stroke:none" transform="translate(-109.714 -188.278)"/><path d="M760 275.861c45.871 51.483 22.01 52.416 93.721 157.585 91.363 133.975 267.559 187.556 308.099 206.252 38.17 17.638 104.3 45.679 104.3 45.679-13.13-8.692-154.94-103.348-198.01-201.244-53.81-122.388-184.419-160.794-184.419-160.794 36.141-3.796 60.2-.326 113.057 15.965 95.682 29.51 154.492 82.78 247.062 192.349 25.85 30.578 41.93 51.322 75.53 97.687 32.39 44.633 47.68 89.114 48.81 92.371-51.11-314.587-323.52-547.648-640.416-532.758-35.027 1.661-69.168 6.269-102.349 13.611 44.812 11.047 94.328 28.085 134.615 73.297z" style="fill:#53a839;stroke:none" transform="translate(-109.714 -188.278)"/><path d="M513.516 275.541c12.794 19.59-1.944 52.481-32.897 73.4-30.972 20.936-66.445 21.977-79.226 2.376-12.805-19.6 1.9-52.469 32.892-73.388 30.947-20.947 66.418-22.021 79.231-2.388z" style="fill:#d12837;stroke:none" transform="translate(-109.714 -188.278)"/><path d="M542.959 403.391c-.6-1.233-1.193-2.423-1.986-3.647-3.887-5.968-9.5-10.341-16.297-13.358-9.494-4.196-21.354-5.323-34.172-3.621l.037-.042c-36.965 5.745-66.853 23.237-77.469 27.797-23.927 10.417-90.533 47.738-92.24 7.554-1.517-37.268 21.037-65.453 22.789-88.418-23.601 19.359-46.13 40.663-67.187 64.023C52.875 640.777 62.247 1022.84 291.617 1264.27c-4.314-5.17-36.339-44.12-62.217-108.69-27.741-69.35-43.673-163.341-34.872-247.967 8.808-84.614 19.089-136.359 99.181-244.741 0 0 47.603-61.029 83.83-78.034 0 0 3.188-1.27 1.709 3.091 0 0-14.262 34.764-23.111 81.088-8.834 46.356-17.672 97.736-18.996 121.555-1.276 23.797-6.829 80.418-1.647 87.967 0 0 11.606-129.208 77.795-245.983 62.385-110.092 133.768-186.429 133.576-210.514-.094-6.002-1.344-12.217-3.906-18.651z" style="fill:#d12837;stroke:none" transform="translate(-109.714 -188.278)"/><path d="M1353.99 953.112c-4 2.266-52.9 77.668-61.53 80.058-11.17 3.08-16.65 1.74-40.47-30.47-18.2-24.214-13.4 10.73-8.46 35.21 4.57 22.78 12.06 52.62 11.79 78.35-.17 16.58-5.51 32.05-13.03 46.04-12.75 19.1-29.41 40.16-53.51 63.87-50.44 49.68-101.26 65.9-162.41 76.61-34.79 6.1-85.481 12.98-136.558-19.57-27.382-19.52 3.131-85.09 3.131-85.09-53.457 28.34-110.654 35.6-137.263 38.96-47.301.47-78.78-13.49-127.621-27.03-35.733-9.85-74.205-14.38-118.95-.07-.117 0-.248.07-.377.13-6.629 1.77-12.504 4.03-18.173 6.62-77.27 31.13-84.17 80.41-77.795 113.87.308 7.35 10.199 31.79 11.865 35.22.365.24.867.44 1.344.76v.05h.068c88.502 54.59 189.119 85.22 291.803 90.28.457.05.941.05 1.387.05 10.54.53 21.093.85 31.695.73 68.877-.2 138.342-11.82 205.17-35.55-15.09-.55-34.272-1.39-61.221-2.16-52.752-1.41-120.615-17.98-120.615-17.98-49.114-13.33-76.303-23.28-91.102-29.69 106.428 29.2 213.574 34.83 218.532 35 46.41 1.03 86.578.56 146.87-26.77 19.46-10.73 38.55-22.66 57.32-35.74 2.81-1.95 5.71-3.84 8.49-5.95 78.48-56.7 129.31-110.94 171.35-187.72 27.62-46.08 48.97-95.2 64.08-145.97 9.01-26.674 13.14-56.996 4.19-52.048z" style="fill:#006eb5;stroke:none" transform="translate(-109.714 -188.278)"/><path d="M879.477 727.168h60.173v155.434h-39.724V758.077h-.428l-47.721 124.525h-34.215l-47.777-124.525h-.365v124.525h-39.705V727.168h60.199l44.701 111.943zM1070.4 772.226c-.58-4.773-2.07-8.687-4.45-11.724-2.43-3.033-5.32-5.356-8.92-6.878-3.45-1.484-7.23-2.567-11.21-3.022-3.92-.465-8.33-.774-13.23-.774-8.38 0-15.04 1.735-20.16 5.115-5.17 3.396-7.78 7.784-7.78 13.146 0 4.084 1.54 7.288 4.59 9.695 2.99 2.387 7.3 4.02 12.8 4.924l51.32 8.457c7.45 1.309 14.02 2.974 19.73 5.046 5.72 1.996 10.72 4.767 14.97 8.009 4.31 3.369 7.67 7.586 10.11 12.654 2.32 5.094 3.55 11.025 3.55 17.834 0 7.625-1.39 14.452-4.02 20.691-2.65 6.236-7.08 11.748-13.22 16.551-6.14 4.815-14.22 8.51-24.4 11.067-10.09 2.581-22.38 3.967-36.7 3.967-11.18 0-21.38-.601-30.73-1.755-9.44-1.173-18.216-3.556-26.46-7.226-8.227-3.624-14.868-9.012-19.938-16.288-5.031-7.269-7.656-16.578-7.817-28.06h46.105c.07 5.057 1.25 9.275 3.56 12.55 2.22 3.363 5.23 5.994 8.98 7.832 3.68 1.771 7.79 2.999 12.21 3.64 4.46.656 9.09.993 14.09.993 9.98 0 17.83-1.634 23.66-4.843 5.72-3.166 8.64-6.242 8.64-12.766 0-5.648-2.03-11.5-6.02-13.849-4.07-2.388-10.54-4.3-19.54-5.779l-37.38-5.814c-7.66-1.218-14.357-2.708-20.207-4.528-5.812-1.799-11.098-4.261-15.883-7.49-4.828-3.194-8.671-7.417-11.351-12.735-2.742-5.308-4.078-11.704-4.078-19.259 0-16.861 6.386-29.147 19.082-37.007 12.738-7.822 31.287-11.763 55.657-11.763 9.3 0 18.22.562 26.84 1.73a94.72 94.72 0 0 1 24.69 6.867c7.89 3.412 14.47 8.441 19.65 15.121 5.23 6.668 8.06 15.27 8.69 25.671zM1138.81 727.168h40.93v89.305c0 5.323.32 10.13 1.01 14.32.61 4.215 2.16 8.353 4.47 12.521 2.41 4.138 6.26 7.539 11.56 10.123 5.29 2.59 12.35 3.974 21.21 3.974 8.89 0 16.01-1.384 21.22-3.974 5.28-2.584 9.12-5.985 11.5-10.123 2.4-4.168 3.93-8.306 4.57-12.521.65-4.19.96-8.997.96-14.32v-89.305h40.97v99.691c0 6.382-.68 12.698-2.05 18.804-1.32 6.236-4.48 12.512-9.57 18.903-5.1 6.359-13.11 11.71-24.1 15.959-10.97 4.314-25.46 6.459-43.5 6.459-17.86 0-32.35-2.145-43.4-6.459-11.03-4.249-19.11-9.6-24.18-15.959-5.09-6.391-8.28-12.667-9.58-18.903-1.37-6.106-2.02-12.422-2.02-18.804zM732.94 918.847c.779-1.513 1.956-2.729 3.441-3.685 1.461-.932 3.287-1.635 5.225-2.061 1.986-.465 4.183-.709 6.523-.709 1.826 0 3.707.158 5.627.439 1.881.27 3.781.786 5.619 1.594 1.869.839 3.467 2.071 4.711 3.711 1.318 1.665 2.123 3.828 2.357 6.368h-8.503c-.125-1.649-.979-3.076-2.54-4.307-1.558-1.154-3.91-1.789-6.931-1.789-2.68 0-4.76.439-6.332 1.287-1.547.833-2.327 2.173-2.327 3.918 0 .923.247 1.696.823 2.275.564.588 1.344 1.052 2.297 1.421.959.377 1.961.594 3.138.823 1.102.201 2.661.47 4.604.643 2.682.304 4.908.675 6.611 1.009 1.738.359 3.467.935 5.057 1.721 1.615.755 2.885 1.863 3.869 3.299 1.014 1.454 1.49 3.262 1.49 5.478 0 2.352-.531 4.339-1.639 5.948-1.029 1.59-2.458 2.899-4.197 3.84-1.752.919-3.652 1.582-5.756 1.997-2.042.352-4.222.587-6.419.587-3.28 0-6.122-.321-8.536-.983-2.414-.62-4.357-1.505-5.879-2.668-1.529-1.183-2.662-2.547-3.386-4.218-.737-1.604-1.082-3.476-1.156-5.506h8.492c.092 2.439 1.101 4.292 2.97 5.506 1.918 1.271 4.506 1.878 7.762 1.878 1.268 0 2.426-.08 3.547-.303a9.874 9.874 0 0 0 2.914-.935c.867-.445 1.566-1.03 2.031-1.764.477-.761.768-1.615.768-2.606 0-.974-.311-1.813-.867-2.482a5.86 5.86 0 0 0-2.371-1.522c-.985-.464-2.092-.755-3.331-.975-1.25-.192-2.79-.47-4.634-.684-2.606-.421-4.729-.839-6.432-1.142a21.059 21.059 0 0 1-4.902-1.681c-1.522-.739-2.729-1.77-3.659-3.175-.953-1.38-1.398-3.07-1.398-5.186 0-2.046.402-3.869 1.319-5.361zM772.465 913.469h7.861v38.127h-7.861zM787.971 913.469h9.011l22.289 28.632h.086v-28.632h7.583v38.127h-8.858l-22.486-28.626h-.075v28.626h-7.55zM865.346 927.603c-.371-2.937-1.672-5.203-3.813-6.8-2.211-1.6-4.933-2.395-8.264-2.395-3.726 0-6.788 1.222-9.128 3.831-2.309 2.538-3.461 6.208-3.461 10.999 0 1.987.297 3.751.941 5.416.606 1.628 1.492 3.064 2.711 4.265a11.734 11.734 0 0 0 4.166 2.803c1.609.638 3.428.941 5.348.941 1.892 0 3.589-.303 5-.897a9.614 9.614 0 0 0 3.466-2.306 10.988 10.988 0 0 0 2.061-3.129 13.77 13.77 0 0 0 .973-3.28h8.523a22.3 22.3 0 0 1-1.803 5.836c-.853 1.808-2.029 3.473-3.687 4.896-1.666 1.529-3.777 2.649-6.438 3.534-2.619.836-5.775 1.337-9.494 1.337-3.269 0-6.146-.523-8.715-1.603-2.525-1.024-4.625-2.488-6.263-4.388-1.678-1.878-2.959-3.946-3.764-6.381a24.81 24.81 0 0 1-1.213-7.746c0-2.752.414-5.33 1.213-7.759.805-2.429 2.086-4.543 3.824-6.406 1.698-1.875 3.869-3.336 6.524-4.382 2.681-1.034 5.781-1.597 9.347-1.597 3.137 0 5.922.43 8.379 1.195 2.489.804 4.606 1.869 6.301 3.268a15.767 15.767 0 0 1 3.986 4.809c.991 1.807 1.598 3.813 1.803 5.939zM880.213 913.469h32.463v5.97H888.06v9.621h23.631v5.979H888.06v10.59h25.044v5.967h-32.891zM945.889 926.021h-10.993v-5.391h2.235c1.021 0 2.066-.102 3.15-.254 1.09-.179 2.123-.482 3.139-.984 1.045-.467 1.924-1.198 2.691-2.058.782-.928 1.27-1.996 1.549-3.305h5.756v37.567h-7.527zM971.1 942.287c.402 1.402 1.15 2.498 2.283 3.28 1.164.793 2.842 1.189 4.976 1.189 3.194 0 5.694-1.034 7.497-3.169 1.75-2.145 2.748-5.014 2.939-8.579-1.547 1.548-3.151 2.621-4.891 3.274-1.67.564-3.849.836-6.418.836-2.662 0-4.945-.291-6.84-.966-1.949-.649-3.496-1.565-4.697-2.698-1.195-1.195-2.066-2.448-2.611-3.912a12.716 12.716 0 0 1-.867-4.673c0-1.677.353-3.299 1.002-4.831a12.47 12.47 0 0 1 3.052-4.168c1.379-1.272 3.119-2.216 5.254-2.944 2.161-.801 4.623-1.132 7.508-1.132 3.164 0 5.844.523 8.109 1.463 2.21.948 3.961 2.275 5.26 4.02a16.241 16.241 0 0 1 2.799 6.066c.619 2.343.865 4.977.865 7.811 0 2.071-.209 4.12-.705 6.323a20.105 20.105 0 0 1-2.605 6.208c-1.213 1.938-2.977 3.571-5.274 4.843-2.222 1.26-5.093 1.891-8.449 1.891-4.92 0-8.641-.885-11.308-2.627-2.618-1.78-4.164-4.271-4.536-7.505zm14.693-20.859c-1.424-1.355-3.678-1.989-6.697-1.989-3.008 0-5.256.634-6.586 1.989-1.485 1.306-2.172 3.034-2.172 5.008 0 2.061.687 3.707 2.172 5.069 1.33 1.312 3.578 1.996 6.586 1.996 3.019 0 5.273-.684 6.697-1.996 1.418-1.362 2.135-3.008 2.135-5.069 0-1.974-.717-3.702-2.135-5.008zM999.484 914.654h32.616v6.447c-1.9 2.172-3.77 4.524-5.6 6.848a68.896 68.896 0 0 0-5.06 7.573 59.12 59.12 0 0 0-4.11 8.096 37.801 37.801 0 0 0-2.28 7.978h-9.13c.27-2.432 1.03-5.081 2.24-7.935 1.25-2.844 2.75-5.7 4.61-8.436a75.01 75.01 0 0 1 5.72-7.916c2.04-2.476 3.93-4.612 5.72-6.369h-24.726zM1061.13 923.907c-.32-1.367-1.08-2.444-2.26-3.231-1.12-.782-2.81-1.237-4.96-1.237-3.15 0-5.69 1.089-7.5 3.258-1.77 2.08-2.77 4.989-2.93 8.551 1.52-1.563 3.16-2.643 4.91-3.256 1.71-.609 3.87-.863 6.41-.863 2.66 0 4.92.254 6.85.891 1.93.703 3.49 1.628 4.7 2.779 1.2 1.118 2.11 2.479 2.62 3.943.53 1.399.83 2.977.83 4.596 0 1.687-.33 3.296-1.01 4.874-.65 1.51-1.67 2.943-3.05 4.172-1.34 1.25-3.09 2.231-5.23 2.933-2.17.75-4.6 1.102-7.49 1.102-3.21 0-5.88-.458-8.11-1.43-2.22-.962-3.95-2.302-5.29-4.023a17.06 17.06 0 0 1-2.81-6.066c-.62-2.407-.86-4.951-.86-7.835 0-2.03.2-4.135.73-6.317.48-2.169 1.34-4.208 2.61-6.22 1.2-1.906 2.95-3.562 5.24-4.822 2.26-1.281 5.09-1.912 8.49-1.912 4.86 0 8.59.925 11.23 2.695 2.66 1.705 4.21 4.234 4.56 7.418zm-14.65 20.878c1.4 1.34 3.68 1.971 6.69 1.971 3.02 0 5.21-.631 6.62-1.971 1.4-1.272 2.11-2.937 2.11-5.014 0-2.008-.71-3.695-2.11-5.029-1.41-1.324-3.6-2.018-6.62-2.018-3.01 0-5.29.694-6.69 2.018-1.38 1.334-2.12 3.021-2.12 5.029 0 2.077.74 3.742 2.12 5.014z" style="fill:#2c2c2b;stroke:none" transform="translate(-109.714 -188.278)"/></svg>