<svg xmlns="http://www.w3.org/2000/svg" xml:space="preserve" width="726.67798" height="726.7168" viewBox="0 0 726.67797 726.71678"><path d="M0 0c66.543 0 120.49 53.959 120.49 120.502 0 66.566-53.947 120.512-120.49 120.512-66.566 0-120.512-53.946-120.512-120.512C-120.512 53.959-66.566 0 0 0" style="fill:#fff;fill-opacity:1;fill-rule:nonzero;stroke:none" transform="matrix(2.9878 0 0 -2.9878 363.334 723.41)"/><path d="M0 0c0-67.148-54.461-121.609-121.609-121.609-67.145 0-121.606 54.461-121.606 121.609 0 67.168 54.461 121.619 121.606 121.619C-54.461 121.619 0 67.168 0 0" style="fill:#183e96;fill-opacity:1;fill-rule:nonzero;stroke:none" transform="matrix(2.9878 0 0 -2.9878 726.678 363.373)"/><path d="M0 0c0 65.41 53.035 118.457 118.469 118.457 65.426 0 118.447-53.047 118.447-118.457 0-65.426-53.021-118.461-118.447-118.461C53.035-118.461 0-65.426 0 0" style="fill:#fff;fill-opacity:1;fill-rule:nonzero;stroke:none" transform="matrix(2.9878 0 0 -2.9878 9.372 363.373)"/><path d="M0 0c49.727 0 90.078 40.328 90.078 90.053 0 49.738-40.351 90.09-90.078 90.09-49.727 0-90.078-40.352-90.078-90.09C-90.078 40.328-49.727 0 0 0" style="fill:#183e96;fill-opacity:1;fill-rule:nonzero;stroke:none" transform="matrix(2.9878 0 0 -2.9878 362.785 632.952)"/><path d="M0 0v14.799h-34.902v-64.168c-11.639-6.52-21.813-8.145-27.828-3.371-9.684 7.664-2.473 32.871 5.414 50.808-13.868-24.334-19.12-50.82-9.043-60.564 8.191-7.936 27.63-3.529 46.736 8.551L-19.465 0Z" style="fill:#fff;fill-opacity:1;fill-rule:nonzero;stroke:none" transform="matrix(2.9878 0 0 -2.9878 385.322 336.36)"/><path d="M0 0c-10.691 7.086-36.291-.936-53.871-20.055C-37.828-6.793-15.98.738-9.215-4.652c12.131-9.645 2.731-41.629-20.961-71.512-4.799-6.016-9.781-11.479-14.812-16.338v-16.658c8.574 6.375 17.05 14.383 24.566 23.879l1.526 1.945v-30.412h-32.219v-15.231h47.806v71.084l-.211-.099C8.428-32.367 10.531-6.965 0 0" style="fill:#fff;fill-opacity:1;fill-rule:nonzero;stroke:none" transform="matrix(2.9878 0 0 -2.9878 481.877 156.912)"/><path d="M0 0c.885 1.697 2.387 2.977 4.441 3.924 1.834.812 3.409 1.094 4.7.875 1.279-.246 1.894-.653 2.498-.961l2.879 1.293c-1.157.896-2.733 1.463-4.727 1.635-1.941.185-3.996-.172-6.113-1.143C1.045 4.439-.861 2.756-2.141.529c-1.23-2.191-1.439-4.246-.566-6.175.85-1.92 2.533-3.163 4.994-3.668 2.486-.565 5.031-.247 7.652.937 2.141.971 3.778 2.238 4.946 3.824 1.181 1.6 1.808 3.137 1.894 4.553l-2.853-1.268c-.112-.578-.209-1.304-.959-2.449-.701-1.168-1.981-2.14-3.789-2.939-2.078-.936-4.061-1.182-5.895-.725-1.82.479-2.705 1.549-3.32 2.926C-.652-3.053-.885-1.674 0 0" style="fill:#183e96;fill-opacity:1;fill-rule:nonzero;stroke:none" transform="matrix(2.9878 0 0 -2.9878 453.429 658.46)"/><path d="m0 0 8.66-.025c-.306-.934-.726-1.944-2.078-2.977C5.24-4.01 3.383-4.527 1.021-4.514c-2.14 0-4.048.578-5.72 1.735C-6.398-1.623-6.84-.16-6.828 1.623c0 1.723.43 3.188 2.078 4.344 1.676 1.156 3.605 1.722 5.82 1.722 2.078 0 3.727-.418 4.994-1.253 1.268-.813 1.76-1.676 2.264-2.512l3.199-.012c-.664 1.672-1.98 3.027-3.875 4.133C5.746 9.104 3.531 9.646 1.07 9.646c-3.013.036-5.597-.751-7.75-2.326-2.152-1.576-3.222-3.47-3.222-5.683-.014-2.229 1.056-4.147 3.185-5.733 2.153-1.588 4.725-2.398 7.738-2.412 2.854 0 5.413.75 7.627 2.264 2.215 1.5 3.346 3.494 3.346 5.978L0 1.795Z" style="fill:#183e96;fill-opacity:1;fill-rule:nonzero;stroke:none" transform="matrix(2.9878 0 0 -2.9878 356.611 684.264)"/><path d="m0 0 .924 8.219c.873-.395 1.748-.91 2.584-2.278.824-1.365 1.119-3.16.873-5.412-.221-2.041-.985-3.763-2.24-5.252C.85-6.188-.578-6.459-2.238-6.238c-1.623.174-2.953.703-3.887 2.412-.91 1.674-1.268 3.568-1.021 5.646.208 1.957.763 3.469 1.697 4.59.898 1.119 1.76 1.477 2.595 1.883l.358 3.025c-1.649-.466-3.076-1.548-4.305-3.248-1.207-1.711-1.957-3.715-2.203-6.027-.309-2.867.149-5.402 1.414-7.59 1.268-2.18 2.965-3.371 5.057-3.617 2.092-.246 3.998.578 5.721 2.422C4.898-4.896 5.906-2.547 6.238.32c.309 2.696-.148 5.168-1.34 7.43-1.181 2.266-2.978 3.52-5.316 3.766L-1.695.223Z" style="fill:#183e96;fill-opacity:1;fill-rule:nonzero;stroke:none" transform="matrix(2.9878 0 0 -2.9878 670.4 445.713)"/><path d="m0 0-1.734 2.09-10.582 1.453 5.156 4.355-2.055 2.422L-20.348.91l2.067-2.449 5.14 4.355-.332-10.013 2.5-2.94-.308 11.576z" style="fill:#183e96;fill-opacity:1;fill-rule:nonzero;stroke:none" transform="matrix(2.9878 0 0 -2.9878 151.876 567.781)"/><path d="m0 0 .037 2.129-11.613 6.396L.172 14.627l.072 3.924-14.613.16-.012-3.063 11.66-.148-11.746-5.781-.039-2.313 11.627-6.09-11.701.135-.035-3.076 12.672-.16 1.425.383z" style="fill:#183e96;fill-opacity:1;fill-rule:nonzero;stroke:none" transform="matrix(2.9878 0 0 -2.9878 74.982 406.86)"/><path d="m0 0 .16 9.84-2.693 2.18-.074-12.426-3.272-4.086 2.473-1.981 3.271 4.098L11.75.934 9.609 2.619z" style="fill:#183e96;fill-opacity:1;fill-rule:nonzero;stroke:none" transform="matrix(2.9878 0 0 -2.9878 163.746 610.894)"/><path d="M0 0c-2.547.109-4.996-.629-7.371-2.203-2.399-1.586-4.035-3.578-4.871-5.977-.885-2.351-.699-4.406.457-6.175 1.168-1.737 3-2.696 5.535-2.807 2.535-.135 4.982.603 7.381 2.201 2.387 1.588 3.998 3.543 4.848 5.943.873 2.373.724 4.416-.456 6.188C4.367-1.07 2.521-.123 0 0m.48-13.938c-3.359-2.214-7.617-1.687-9.535 1.204-1.92 2.892-.775 7.062 2.535 9.277 3.332 2.215 7.579 1.672 9.534-1.242 1.92-2.891.775-7.026-2.534-9.239" style="fill:#183e96;fill-opacity:1;fill-rule:nonzero;stroke:none" transform="matrix(2.9878 0 0 -2.9878 539.147 606.155)"/><path d="m0 0-.125 1.193-3.998-.541-5.609-.763c-.799-.098-1.612.197-2.498.924-.899.738-1.391 1.488-1.598 3.039-.223 1.548.074 2.398.75 3.308.687.947 1.414 1.465 2.189 1.574l9.596 1.243-.383 2.89-9.459-1.242c-1.217-.16-2.349-.973-3.357-2.398-.985-1.426-1.356-3.309-1.047-5.586.309-2.325 1.119-4.071 2.449-5.192 1.352-1.094 2.633-1.562 3.875-1.437l5.449.724v-.025l2.09.246 1.356.578z" style="fill:#183e96;fill-opacity:1;fill-rule:nonzero;stroke:none" transform="matrix(2.9878 0 0 -2.9878 86.122 463.208)"/><path d="m0 0-1.033.539-1.809-3.578-2.51-5.094c-.369-.689-1.082-1.207-2.166-1.551-1.105-.32-2.015-.295-3.406.383-1.428.711-1.969 1.449-2.349 2.496-.381 1.094-.407 1.992-.049 2.696l4.342 8.623-2.608 1.316-4.258-8.537c-.566-1.096-.527-2.461.075-4.121.615-1.625 1.98-2.965 4.035-4 2.117-1.059 3.986-1.352 5.683-.86 1.674.454 2.782 1.266 3.36 2.387l2.472 4.92h.035l.924 1.846s.541.467.295 1.465z" style="fill:#183e96;fill-opacity:1;fill-rule:nonzero;stroke:none" transform="matrix(2.9878 0 0 -2.9878 245.053 633.793)"/><path d="m0 0 .025 1.463-.394 1.244-4.11-1.365-7.75-2.696 7.862 12.709-1.033 2.952-13.805-4.7 1.023-2.939 10.875 3.703-7.812-12.646 1.008-2.965 11.515 3.924 1.366.466z" style="fill:#183e96;fill-opacity:1;fill-rule:nonzero;stroke:none" transform="matrix(2.9878 0 0 -2.9878 112.913 523.343)"/><path d="m0 0-1.23.861-1.231.381-.934-3.332-1.945-8.316-6.027 13.642-3.039.85-4.391-14.678 3.014-.81L-12.215.283l6.027-13.619 3.014-.848 2.779 11.27L0-1.5S.383-.91 0 0" style="fill:#183e96;fill-opacity:1;fill-rule:nonzero;stroke:none" transform="matrix(2.9878 0 0 -2.9878 310.884 654.345)"/><path d="m0 0 .025.012-9.031 9.152-2.535-2.484 7.418-7.516-.012-.025 1.465-1.463 1.279-.739 1.342.625.184.137.023-.012 8.49 9.854-1.169 1.193L.072-.051z" style="fill:#183e96;fill-opacity:1;fill-rule:nonzero;stroke:none" transform="matrix(2.9878 0 0 -2.9878 586.526 607.404)"/><path d="M0 0v.012L-10.75 7.1l-1.98-2.954 8.832-5.82h-.012l1.746-1.168s.529-.443 1.525-.308l1.096.775.109.186.012-.051L7.395 8.967l-1.377.898L.025-.014Z" style="fill:#183e96;fill-opacity:1;fill-rule:nonzero;stroke:none" transform="matrix(2.9878 0 0 -2.9878 625.63 566.421)"/><path d="m0 0-.023-.035-2.756 1.07L1.23 11.184l-1.574.601-3.972-10.16-4.233 1.637 4.135 10.664-1.563.629L-11.391.566-.945-3.469v.012l1.574-.602s.527-.468 1.476-.148l.973 1.133.676 1.636h-.037L7.789 8.797l-1.551.59L2.141-.848Z" style="fill:#183e96;fill-opacity:1;fill-rule:nonzero;stroke:none" transform="matrix(2.9878 0 0 -2.9878 649.742 515.81)"/><path d="m0 0 .074-11.428-2.324.012v-.051l-2.979.051-.037 10.937-1.683.024.086-10.961-4.541.049-.049 11.207-1.672.025.023-14.789 11.207-.086v.051l1.674-.025 1.451.38.504 1.416.063 1.76h-.051L1.686-.037z" style="fill:#183e96;fill-opacity:1;fill-rule:nonzero;stroke:none" transform="matrix(2.9878 0 0 -2.9878 692.75 352.093)"/><path d="m0 0-2.287-2.547L.381-4.984l2.301.05h.023l.039.024.035.051L13.654 7.109 12.4 8.266 2.658-2.426Z" style="fill:#183e96;fill-opacity:1;fill-rule:nonzero;stroke:none" transform="matrix(2.9878 0 0 -2.9878 135.776 166.027)"/><path d="m0 0 1.268-1.156 5.718 6.285 2.032-1.832 2.3 2.535-2.043 1.856 4.897 5.365-1.291 1.142z" style="fill:#183e96;fill-opacity:1;fill-rule:nonzero;stroke:none" transform="matrix(2.9878 0 0 -2.9878 120.522 168.933)"/><path d="m0 0-3.174 2.891-.137.109-1.929-.367-.149-.149-8.574-9.423-2.203-2.413.039-.023 4.168-3.789v.023zm-12.523-8.096L-5.154.012l1.55-1.379-7.394-8.119z" style="fill:#183e96;fill-opacity:1;fill-rule:nonzero;stroke:none" transform="matrix(2.9878 0 0 -2.9878 154.485 125.411)"/><path d="m0 0-1.502.027-.074-4.713-1.537.012.035 4.688-3.16.06-.137-10.234-7.318.097.086 7.85 4.834-.06.011 1.783-4.82.06-3.434.051-.097-9.658 1.511-1.686v-.011l9.204-.125-.049-5.055 3.162-.037.146 10.58 1.563-.024-.147-10.582 3.2-.023.207 15.291A1.7 1.7 0 0 1 0 0" style="fill:#183e96;fill-opacity:1;fill-rule:nonzero;stroke:none" transform="matrix(2.9878 0 0 -2.9878 387.306 27.35)"/><path d="M0 0c.578.234 3.383 1.512 5.34 3.531 2.633 2.682 2.461 5.24 2.289 6.065l-.027.16-.047.146-.026.086c-.345.924-1.341 1.342-2.24 1.047l-.012-.023-.023-.028h-.012l-8.404-3.283.641-1.674 6.693 2.621c.332-.824.553-2.226-.592-3.912C2.152 2.707-.074 1.711-.602 1.512l-.013.025-.061-.025-.025-.035-.529-.235.615-1.488.517.195L0-.023Z" style="fill:#183e96;fill-opacity:1;fill-rule:nonzero;stroke:none" transform="matrix(2.9878 0 0 -2.9878 216.861 90.678)"/><path d="m0 0-4.242 10.775c-.371.873-1.33 1.291-2.215.948l-1.613-.627.664-1.698-2.657-1.095.616-1.588 2.693 1.058.406-1.07-2.668-1.058.625-1.598 2.672 1.07 1.477-3.728C-5.621 1.291-7.258.922-8.918.27c-4.207-1.661-7.037-4.491-6.299-6.36.738-1.834 4.737-2.006 8.955-.357C-2.055-4.787.764-1.92.025-.086zm-6.914-4.799c-2.422-.947-4.734-.984-5.092-.037-.369.947 1.291 2.51 3.729 3.457 2.459.973 4.722.973 5.117.049.355-.959-1.305-2.51-3.754-3.469" style="fill:#183e96;fill-opacity:1;fill-rule:nonzero;stroke:none" transform="matrix(2.9878 0 0 -2.9878 271.038 83.36)"/><path d="m0 0-2.215 1.059 1.317 2.718-.776 2.276-1.34.666-4.418-9.08-13.164 6.433-.736-1.525 13.15-6.445-2.3-4.653 2.867-1.414 4.65 9.485 2.201-1.045z" style="fill:#183e96;fill-opacity:1;fill-rule:nonzero;stroke:none" transform="matrix(2.9878 0 0 -2.9878 527.972 83.255)"/><path d="M0 0c-.836-1.697 1.195-4.402 4.455-6.039 3.334-1.6 6.693-1.527 7.529.16.467.971.012 2.238-1.046 3.481l2.066-1.022.726 1.537L9.586.148l.527 1.12-3.074 1.488-.504-1.096-4.441 2.154-.75-1.537 2.015-.996C1.736 1.379.469.961 0 0m5.045-4.859c-1.783.861-2.842 2.423-2.324 3.494.552 1.058 2.412 1.219 4.193.357 1.797-.887 2.818-2.461 2.315-3.519-.53-1.082-2.387-1.231-4.184-.332" style="fill:#183e96;fill-opacity:1;fill-rule:nonzero;stroke:none" transform="matrix(2.9878 0 0 -2.9878 470.626 58.151)"/><path d="m0 0-3.408-1.82.638 3.789h.026S-5.809 3.74-5.5 4.639c.283.898 3.789.59 3.789.59v-.012S-.949 8.637 0 8.637c.934 0 1.684-3.42 1.684-3.42h.062s3.494.369 3.801-.541c.297-.873-2.707-2.707-2.707-2.707h-.047l.613-3.789Z" style="fill:#183e96;fill-opacity:1;fill-rule:nonzero;stroke:none" transform="matrix(2.9878 0 0 -2.9878 71.895 267.921)"/><path d="m0 0-3.371-1.82.615 3.789h.051s-3.065 1.771-2.77 2.67c.297.898 3.801.59 3.801.59v-.012s.75 3.42 1.699 3.42c.934 0 1.684-3.42 1.684-3.42h.039s3.518.369 3.813-.541c.308-.873-2.719-2.707-2.719-2.707h-.049L3.42-1.82.037 0Z" style="fill:#183e96;fill-opacity:1;fill-rule:nonzero;stroke:none" transform="matrix(2.9878 0 0 -2.9878 656.692 267.921)"/><path d="m0 0 2.164-2.191 5.992 5.796.293 2.608-.011.025-.036.047.061.125-9.227 9.977-1.857-1.746L5.816 5.66Z" style="fill:#183e96;fill-opacity:1;fill-rule:nonzero;stroke:none" transform="matrix(2.9878 0 0 -2.9878 596.93 171.139)"/><path d="m0 0 1.602 1.551-8.122 8.328 1.969 1.93-2.043 2.054-1.955-1.918-3.271 3.297-1.602-1.562z" style="fill:#183e96;fill-opacity:1;fill-rule:nonzero;stroke:none" transform="matrix(2.9878 0 0 -2.9878 601.26 187.899)"/><path d="m0 0-1.918 1.992L.344 4.145l1.908-1.993Z" style="fill:#183e96;fill-opacity:1;fill-rule:nonzero;stroke:none" transform="matrix(2.9878 0 0 -2.9878 592.367 171.139)"/></svg>