<svg xmlns="http://www.w3.org/2000/svg" xml:space="preserve" width="800" height="800" viewBox="0 0 799.99999 799.99999"><path d="M0 0c12.419 0 22.488 10.068 22.488 22.488 0 12.419-10.069 22.487-22.488 22.487-12.419 0-22.487-10.068-22.487-22.487C-22.487 10.068-12.419 0 0 0" style="fill:#fff;fill-opacity:1;fill-rule:nonzero;stroke:none" transform="matrix(17.40076 0 0 -17.40076 399.991 791.3)"/><path d="M0 0c12.419 0 22.488 10.068 22.488 22.488 0 12.419-10.069 22.487-22.488 22.487-12.419 0-22.487-10.068-22.487-22.487C-22.487 10.068-12.419 0 0 0Z" style="fill:none;stroke:#231f20;stroke-width:1;stroke-linecap:butt;stroke-linejoin:miter;stroke-miterlimit:4;stroke-dasharray:none;stroke-opacity:1" transform="matrix(17.40076 0 0 -17.40076 399.991 791.3)"/><path d="m0 0 2.729-2.004-.218-.314-2.729 1.98z" style="fill:#231f20;fill-opacity:1;fill-rule:nonzero;stroke:none" transform="matrix(17.40076 0 0 -17.40076 653.364 579.407)"/><path d="M0 0a.273.273 0 1 1 0 .547A.273.273 0 0 1 0 0" style="fill:#231f20;fill-opacity:1;fill-rule:nonzero;stroke:none" transform="matrix(17.40076 0 0 -17.40076 74.782 295.09)"/><path d="m0 0-.322-.292-.195.214-2.165-2.033-.31.305L-.861.229l-.211.232.305.31z" style="fill:#231f20;fill-opacity:1;fill-rule:nonzero;stroke:none" transform="matrix(17.40076 0 0 -17.40076 186.136 626.154)"/><path d="M0 0a.273.273 0 1 1 0 .545A.273.273 0 0 1 0 0" style="fill:#231f20;fill-opacity:1;fill-rule:nonzero;stroke:none" transform="matrix(17.40076 0 0 -17.40076 725.627 292.557)"/><path d="m0 0-.097.41-.989-.169h-2.343v-.41h1.352L-3.333-.58l.097-.435 1.932.773z" style="fill:#231f20;fill-opacity:1;fill-rule:nonzero;stroke:none" transform="matrix(17.40076 0 0 -17.40076 766.81 342.847)"/><path d="M0 0v.313l2.945.073-.023.435L-.049.772v.291h-.434l.048-1.087z" style="fill:#231f20;fill-opacity:1;fill-rule:nonzero;stroke:none" transform="matrix(17.40076 0 0 -17.40076 719.332 391.167)"/><path d="m0 0 3.404-.097v.41L.024.386z" style="fill:#231f20;fill-opacity:1;fill-rule:nonzero;stroke:none" transform="matrix(17.40076 0 0 -17.40076 711.345 416.376)"/><path d="m0 0 .906.069C.936-.205.464-.259.464-.259-.083-.317 0 0 0 0m-1.244-.796s.82-.043 1.079.421c0 0 .31-.527 1.182-.238 0 0 .387.072.347.705L1.305.51-2.024.272l-.009-.443 1.508.122s.192-.159-.168-.299l-1.028-.09s-.265-.052-.288-.191l.037-.296s.279.083.728.129" style="fill:#231f20;fill-opacity:1;fill-rule:nonzero;stroke:none" transform="matrix(17.40076 0 0 -17.40076 65.427 429.35)"/><path d="m0 0 .143-.444-.454-.157.242-.731.441.109.123-.459-.422-.094L.35-2.92l.456.09.142-.444-.884-.252-.948 3.274Z" style="fill:#231f20;fill-opacity:1;fill-rule:nonzero;stroke:none" transform="matrix(17.40076 0 0 -17.40076 498.27 694.584)"/><path d="m0 0-.455-.103-.116.466-.75-.178.071-.448-.469-.083-.056.428-1.164-.176.066-.456-.471-.109-.174.903 3.344.659z" style="fill:#231f20;fill-opacity:1;fill-rule:nonzero;stroke:none" transform="matrix(17.40076 0 0 -17.40076 96.607 474.042)"/><path d="M0 0s-.458.121-1.159-.168c0 0-.652-.411-.869-.242 0 0-.41.169-.025.265l.556-.023v.337l.024.072-.773.025s-.483.048-.483-.604c0 0 .097-.579 1.015-.604 0 0 .699.073 1.11.387 0 0 .266.193.773.072 0 0 .266-.217-.097-.266l-.627.097-.097-.434.749-.121s.7-.048.652.58c0 0 .096.482-.749.627" style="fill:#231f20;fill-opacity:1;fill-rule:nonzero;stroke:none" transform="matrix(17.40076 0 0 -17.40076 754.201 443.276)"/><path d="m0 0-.869.266c.072.265.531.144.531.144C.194.266 0 0 0 0m.29.29S.194.894-.724.941c0 0-.386.073-.58-.531L-1.4 0l3.187-.99.169.41-1.449.434s-.12.218.266.218l.99-.29s.265-.048.338.072l.072.291s-.289.024-.724.145c0 0-.748.338-1.159 0" style="fill:#231f20;fill-opacity:1;fill-rule:nonzero;stroke:none" transform="matrix(17.40076 0 0 -17.40076 721.004 494.11)"/><path d="m0 0-1.063.507.193.387-.434.193-.194-.411-.724.29.169.434-.434.169-.363-.844L.29-.604l.362.846-.435.169Z" style="fill:#231f20;fill-opacity:1;fill-rule:nonzero;stroke:none" transform="matrix(17.40076 0 0 -17.40076 733.197 539.074)"/><path d="m0 0 1.956-1.4L-.218-.313l-.241-.363 3.091-1.473.29.483L.169.362z" style="fill:#231f20;fill-opacity:1;fill-rule:nonzero;stroke:none" transform="matrix(17.40076 0 0 -17.40076 672.27 550.842)"/><path d="m0 0-2.198-2.576-.297.24L-.321.241z" style="fill:#231f20;fill-opacity:1;fill-rule:nonzero;stroke:none" transform="matrix(17.40076 0 0 -17.40076 203.545 640.896)"/><path d="m0 0 2.366-2.39-.362-.386-2.221 1.69 1.883-2.028-.169-.218L-.917-.893l.434.387 1.98-1.45L-.242-.192z" style="fill:#231f20;fill-opacity:1;fill-rule:nonzero;stroke:none" transform="matrix(17.40076 0 0 -17.40076 636.134 602.11)"/><path d="m0 0 1.232-3.13-.484-.212L-.628-.913.304-3.52l-.241-.133L-1.196-.46l.552.184L.605-2.388-.298-.083z" style="fill:#231f20;fill-opacity:1;fill-rule:nonzero;stroke:none" transform="matrix(17.40076 0 0 -17.40076 540.88 676.836)"/><path d="m0 0-2.922-1.667-.279.45L-.993.491-3.44-.803l-.166.22 2.981 1.7.26-.519-1.912-1.537L-.124.283z" style="fill:#231f20;fill-opacity:1;fill-rule:nonzero;stroke:none" transform="matrix(17.40076 0 0 -17.40076 139.015 571.156)"/><path d="m0 0-1.411-3.053-.489.204.806 2.673-1.24-2.474-.263.082L-1.158.547l.514-.272-.664-2.361L-.265.159z" style="fill:#231f20;fill-opacity:1;fill-rule:nonzero;stroke:none" transform="matrix(17.40076 0 0 -17.40076 273.818 683.149)"/><path d="m0 0 .314.217 1.521-2.004s.677-.748.121-1.135c0 0-.362-.434-1.062.483L-.579-.507l.338.265 1.545-2.004s.193-.314.362-.217c0 0 .121.073-.048.314z" style="fill:#231f20;fill-opacity:1;fill-rule:nonzero;stroke:none" transform="matrix(17.40076 0 0 -17.40076 597.474 638.236)"/><path d="m0 0-.145 1.063c.362.121.362-.556.362-.556C.266.096 0 0 0 0m-.073 1.545-.579-.072.483-3.405.435.048L.097-.58s.627 0 .555.846c0 0 .097 1.303-.725 1.279" style="fill:#231f20;fill-opacity:1;fill-rule:nonzero;stroke:none" transform="matrix(17.40076 0 0 -17.40076 455.04 732.351)"/><path d="M0 0a.121.121 0 0 0-.121-.121A.122.122 0 0 0-.242 0v2.27c0 .066.055.121.121.121A.121.121 0 0 0 0 2.27Zm-.121 2.898a.58.58 0 0 1-.579-.58V-.097a.58.58 0 1 1 1.159 0v2.415c0 .32-.26.58-.58.58" style="fill:#231f20;fill-opacity:1;fill-rule:nonzero;stroke:none" transform="matrix(17.40076 0 0 -17.40076 410.917 758.826)"/><path d="M0 0a.122.122 0 0 0-.121.122c.001.066.056.12.122.12l2.27-.011a.12.12 0 0 0 .12-.121.121.121 0 0 0-.121-.12zm2.898.108a.58.58 0 0 1-.577.582L-.094.701A.579.579 0 0 1-.099-.458l2.415-.011a.58.58 0 0 1 .582.577" style="fill:#231f20;fill-opacity:1;fill-rule:nonzero;stroke:none" transform="matrix(17.40076 0 0 -17.40076 37.965 393.019)"/><path d="M0 0a.122.122 0 0 0-.167-.037.121.121 0 0 0-.036.167L1.02 2.042a.12.12 0 0 0 .167.038.12.12 0 0 0 .035-.167Zm1.459 2.506a.579.579 0 0 1-.8-.175L-.642.296a.58.58 0 0 1 .977-.624l1.3 2.034a.578.578 0 0 1-.176.8" style="fill:#231f20;fill-opacity:1;fill-rule:nonzero;stroke:none" transform="matrix(17.40076 0 0 -17.40076 202.703 701.289)"/><path d="m0 0 .436-.097-.628-2.825.53-.144-.12-.508-.942.241z" style="fill:#231f20;fill-opacity:1;fill-rule:nonzero;stroke:none" transform="matrix(17.40076 0 0 -17.40076 334.016 703.361)"/><path d="m0 0-.169.049.531 1.255zm.314 2.004L-1.063-1.11l.387-.121.339.773.216-.097-.169-.821.387-.121.773 3.308z" style="fill:#231f20;fill-opacity:1;fill-rule:nonzero;stroke:none" transform="matrix(17.40076 0 0 -17.40076 294.108 728.579)"/><path d="m0 0-.116.132 1.132.763zm1.357 1.507L-1.497-.35l.258-.313.705.463.13-.199-.591-.596.258-.312 2.454 2.349z" style="fill:#231f20;fill-opacity:1;fill-rule:nonzero;stroke:none" transform="matrix(17.40076 0 0 -17.40076 129.124 614.65)"/><path d="m0 0-.063.165L1.262.49Zm1.794.947L-1.525.188l.134-.383.822.192.051-.232-.758-.355.134-.383L1.972.387z" style="fill:#231f20;fill-opacity:1;fill-rule:nonzero;stroke:none" transform="matrix(17.40076 0 0 -17.40076 70.736 510.406)"/><path d="m0 0 3.332-.434-.024-.436-1.376.17 1.328-.531-.024-.411-1.401.507-1.956-.048.049.434 1.714.097-1.666.241z" style="fill:#231f20;fill-opacity:1;fill-rule:nonzero;stroke:none" transform="matrix(17.40076 0 0 -17.40076 31.916 340.333)"/><path d="M0 0c-1.706-.901 1.191-1.674 1.191-1.674 1.9-.708 5.828-.741 5.828-.741L2.672.772C1.127.547 0 0 0 0" style="fill:#007db7;fill-opacity:1;fill-rule:nonzero;stroke:none" transform="matrix(17.40076 0 0 -17.40076 247.047 377.03)"/><path d="M0 0s-1.32-1.03-6.278-1.771c0 0-1.514-.193-2.802-.386 0 0 .194-3.219-3.155-3.832 0 0-2.512-.45-3.895 2.061 0 0 1.319-.548 2.092.483 0 0 .419.579.387 1.771v1.577s3.67.129 5.923.805c0 0 3.284.869 1.095 1.803 0 0-.225.258-2.447.676l-.024-2.76-4.547 3.179v6.826h4.539V4.894s4.926-.419 7.824-1.545c0 0 4.603-1.288 1.288-3.349m-15.68-8.338s-2.125-.162-4.185 1.931c0 0-1.546.902-1.707 4.218 0 0-6.15.611-8.532 1.835 0 0-2.801.966-1.384 2.576 0 0 .902 1.094 4.99 1.899 0 0 1.868.483 4.862.709l.032 5.602h4.443l.064-11.784s-.257-3.22 1.675-4.507c0 0 2.286-1.74 4.733-.226 0 0-1.16-2.286-4.991-2.253m.225 26.491c-9.438 0-17.09-7.652-17.09-17.09 0-9.439 7.652-17.091 17.09-17.091 9.439 0 17.092 7.652 17.092 17.091 0 9.438-7.653 17.09-17.092 17.09" style="fill:#007db7;fill-opacity:1;fill-rule:nonzero;stroke:none" transform="matrix(17.40076 0 0 -17.40076 668.913 418.483)"/><path d="M0 0a.42.42 0 1 0-.722.425A.42.42 0 0 0 0 0m-.851-.621a.965.965 0 1 1 .98 1.666A.965.965 0 0 1-.934.99l.595 1.013-.459.27-.639-1.085-.395.233-.293-.498.396-.233-.511-.868.46-.27.461.783a.967.967 0 0 1 .468-.956" style="fill:#231f20;fill-opacity:1;fill-rule:nonzero;stroke:none" transform="matrix(17.40076 0 0 -17.40076 95.758 245.87)"/><path d="M0 0s-.292-.481.167-.769l1.698-.998.281.479-1.48.871s-.24.089-.108.313l.235.402L.33.562Z" style="fill:#231f20;fill-opacity:1;fill-rule:nonzero;stroke:none" transform="matrix(17.40076 0 0 -17.40076 90.72 190.735)"/><path d="m0 0-.427.251-.282-.478.715-.421c.435-.136.652.261.652.261L2.32 2.441l-.479.282L.28.067C.175-.112 0 0 0 0" style="fill:#231f20;fill-opacity:1;fill-rule:nonzero;stroke:none" transform="matrix(17.40076 0 0 -17.40076 105.92 264.544)"/><path d="m0 0-2.106-2.146.375-.378L.22-.538c.279.328.391.093.391.093l.217-.213.389.396-.412.406C.378.49 0 0 0 0" style="fill:#231f20;fill-opacity:1;fill-rule:nonzero;stroke:none" transform="matrix(17.40076 0 0 -17.40076 148.004 124.318)"/><path d="m0 0 2.298 2.34.291-.285.385.391-.677.664L-.386.378Z" style="fill:#231f20;fill-opacity:1;fill-rule:nonzero;stroke:none" transform="matrix(17.40076 0 0 -17.40076 131.418 184.975)"/><path d="m0 0-2.153-2.192.375-.369L.25-.495c.254.28.361.071.361.071l.471-.461.383.39-.586.577C.388.543 0 0 0 0" style="fill:#231f20;fill-opacity:1;fill-rule:nonzero;stroke:none" transform="matrix(17.40076 0 0 -17.40076 176.781 152.587)"/><path d="M0 0a.545.545 0 1 0-.571.928A.545.545 0 0 0 0 0m-1.777 1.276L-2.918.574s-.175-.169-.305.056l-.083.149 1.331.819zm.805 1.278.624-1.014a1.075 1.075 0 0 1-.743-.361l-.003.005-.889 1.443-.454-.278.19-.31-1.343-.827-.182.297-.486-.299.699-1.135c.316-.388.59-.167.59-.167L-1.233.976a1.078 1.078 0 1 1 1.866.053 1.077 1.077 0 0 1-.892.512l.396.243-.544.883c-.173.268.114.366.114.366l.356.227-.28.454-.535-.329c-.575-.353-.22-.831-.22-.831" style="fill:#231f20;fill-opacity:1;fill-rule:nonzero;stroke:none" transform="matrix(17.40076 0 0 -17.40076 249.35 120.75)"/><path d="M0 0s.613-.34 1.419-.088l.823.25-.16.524-.779-.237S.342.197.108.691l-.56-.17s.131-.51-.747-.83l-.89-.278.158-.524.978.296S-.232-.535 0 0" style="fill:#231f20;fill-opacity:1;fill-rule:nonzero;stroke:none" transform="matrix(17.40076 0 0 -17.40076 300.744 46.38)"/><path d="M0 0a.555.555 0 1 0-.322 1.063A.555.555 0 0 0 0 0m-.466 2.481-.559-.169.16-.532-1.87-.567.161-.531 1.416.429A1.119 1.119 0 0 1 .146-.505a1.12 1.12 0 0 1 .186 2.068l1.381.418-.163.539-1.857-.563Z" style="fill:#231f20;fill-opacity:1;fill-rule:nonzero;stroke:none" transform="matrix(17.40076 0 0 -17.40076 316.31 95.508)"/><path d="m0 0-.608-.867-1.261.885c-.269.17-.059.367-.059.367l.477.678L-.409.332l.315.449-1.497 1.05L-2.519.51a.549.549 0 0 1 .18-.814l1.424-1-.859-1.224.437-.306L.31-.488c.192.262.305.152.305.152L.948-.57-.875-3.168l.431-.302L1.678-.445.745.21C.251.447 0 0 0 0" style="fill:#231f20;fill-opacity:1;fill-rule:nonzero;stroke:none" transform="matrix(17.40076 0 0 -17.40076 595.732 95.965)"/><path d="M0 0a.418.418 0 1 0 .609.574A.42.42 0 1 0 0 0m-.361.994a.97.97 0 1 1 1.62-.533l.669-.711.41.386-.843.896.297.279-.396.42-.297-.279-.67.712-.414-.381.522-.554A.97.97 0 0 1-.361.994" style="fill:#231f20;fill-opacity:1;fill-rule:nonzero;stroke:none" transform="matrix(17.40076 0 0 -17.40076 639.796 157.727)"/><path d="m0 0-1.337-1.259.376-.399L.176-.587c.168.168.269.05.269.05l.411-.427.399.376-.447.464C.347.377 0 0 0 0" style="fill:#231f20;fill-opacity:1;fill-rule:nonzero;stroke:none" transform="matrix(17.40076 0 0 -17.40076 678.964 166.334)"/><path d="m0 0-2.015 2.141-.383-.371L-.52-.225c.234-.238.047-.332.047-.332l-.36-.34.375-.399.523.493C.464-.428 0 0 0 0" style="fill:#231f20;fill-opacity:1;fill-rule:nonzero;stroke:none" transform="matrix(17.40076 0 0 -17.40076 652.838 189.343)"/><path d="m0 0-1.56-.968.317-.511 1.601.994c.743.451.309.995.309.995L-.909 3.049l-.49-.304L.036.434C.26.104 0 0 0 0" style="fill:#231f20;fill-opacity:1;fill-rule:nonzero;stroke:none" transform="matrix(17.40076 0 0 -17.40076 728.405 246.845)"/><path d="m0 0 1.291.801-.318.511L-.317.51l-.377.608 1.29.8-.317.511-1.29-.801-.39.628-.504-.313 2.19-3.526.504.314z" style="fill:#231f20;fill-opacity:1;fill-rule:nonzero;stroke:none" transform="matrix(17.40076 0 0 -17.40076 688.463 258.342)"/><path d="m0 0 .775 2.418-.542.173L-.541.173Z" style="fill:#231f20;fill-opacity:1;fill-rule:nonzero;stroke:none" transform="matrix(17.40076 0 0 -17.40076 532.477 91.947)"/><path d="m0 0-3.061.98.257.802-.541.173-.257-.801s-.097-.251.009-.456c.106-.205.355-.269.355-.269l.002.002 3.06-.98z" style="fill:#231f20;fill-opacity:1;fill-rule:nonzero;stroke:none" transform="matrix(17.40076 0 0 -17.40076 528.263 102.075)"/><path d="m0 0 .003.004H.002l-.536.172h-.001V.171C-.554.09-.842-1.007-2.174-.58l-.155-.482s.888-.489 1.724.143l.031.046-.002-.056c.313-1 1.32-1.117 1.32-1.117l.154.482C-.434-1.137-.031-.077 0 0" style="fill:#231f20;fill-opacity:1;fill-rule:nonzero;stroke:none" transform="matrix(17.40076 0 0 -17.40076 504.855 36.108)"/><path d="M0 0a.543.543 0 1 0-.001 1.087A.543.543 0 0 0 0 0m2.196 1.657H.26v.177h1.687v.426h-3.356v.222h3.356v.329h-3.356v.222h3.356v.328h-3.924V2.26s-.011-.166.125-.302c.137-.137.443-.126.443-.126v.002h1.101v-.177h-1.873V1.08h1.198a1.122 1.122 0 1 1 1.977 0h1.202z" style="fill:#231f20;fill-opacity:1;fill-rule:nonzero;stroke:none" transform="matrix(17.40076 0 0 -17.40076 399.856 82.678)"/></svg>