<svg xmlns="http://www.w3.org/2000/svg" xml:space="preserve" width="799.99323" height="800" viewBox="0 0 799.99322 799.99999"><path d="M138.947 260.108c0-165.423 134.576-300.005 299.995-300.005 165.418 0 300 134.582 300 300.005 0 165.414-134.582 299.995-300 299.995-165.419 0-299.995-134.581-299.995-299.995" style="fill:#2056ae;fill-opacity:1;fill-rule:nonzero;stroke:none;stroke-width:5.09277" transform="matrix(1.33333 0 0 -1.33333 -185.262 746.804)"/><path d="M146.479 260.108c0 161.268 131.2 292.468 292.463 292.468 161.273 0 292.468-131.2 292.468-292.468 0-161.272-131.195-292.478-292.468-292.478-161.263 0-292.463 131.206-292.463 292.478" style="fill:#fff;fill-opacity:1;fill-rule:nonzero;stroke:none;stroke-width:5.09277" transform="matrix(1.33333 0 0 -1.33333 -185.262 746.804)"/><path d="M0 0c0 21.475 17.471 38.947 38.945 38.947 21.476 0 38.948-17.472 38.948-38.947S60.421-38.945 38.945-38.945C17.471-38.945 0-21.475 0 0m-1.145 0c0-22.106 17.985-40.091 40.09-40.091 22.107 0 40.092 17.985 40.092 40.091 0 22.107-17.985 40.093-40.092 40.093C16.84 40.093-1.145 22.107-1.145 0" style="fill:#2056ae;fill-opacity:1;fill-rule:nonzero;stroke:none" transform="matrix(6.79036 0 0 -6.79036 135.538 400.007)"/><path d="m0 0-8.814-1.151.251-1.931 3.534.461.138-1.049.014-.105c.078-.612.18-1.043.301-1.297.125-.254.301-.465.535-.639.234-.176.535-.293.9-.353.368-.059.78-.059 1.239 0 .984.128 1.646.418 1.986.865.336.448.439 1.191.305 2.232zm-1.033-2.855c.058-.45.008-.767-.145-.956-.154-.186-.461-.311-.918-.371-.482-.064-.824-.018-1.027.135-.203.153-.34.496-.41 1.028l-.078.608 2.476.325z" style="fill:#2056ae;fill-opacity:1;fill-rule:nonzero;stroke:none" transform="matrix(6.79036 0 0 -6.79036 96.189 423.017)"/><path d="m0 0 7.764 4.982-.698 2.264-9.224-.224.549-1.79 2.031.145.758-2.465-1.754-1.051Zm5.789 5.648-3.41-2.013-.559 1.814Z" style="fill:#2056ae;fill-opacity:1;fill-rule:nonzero;stroke:none" transform="matrix(6.79036 0 0 -6.79036 58.775 531.172)"/><path d="m0 0 7.955 3.972.809-1.626L.816-1.625Z" style="fill:#2056ae;fill-opacity:1;fill-rule:nonzero;stroke:none" transform="matrix(6.79036 0 0 -6.79036 70.924 557.405)"/><path d="M0 0c-.033-.038-.07-.075-.107-.114-.045-.038-.106-.096-.19-.169-.66-.578-1.33-.847-2.004-.802-.674.045-1.301.402-1.885 1.067-.271.309-.48.632-.632.97-.153.34-.229.652-.225.936-.004.485.166.975.504 1.475.338.498.998 1.178 1.984 2.039.674.591 1.229 1.015 1.66 1.269.436.255.848.408 1.245.459a2.06 2.06 0 0 0 1.191-.205c.402-.192.783-.494 1.145-.908.591-.676.867-1.336.822-1.981-.047-.644-.41-1.265-1.09-1.861l-.127-.112L1.07 3.458l.125.112c.356.312.573.599.645.859.076.259.014.506-.188.732-.275.315-.615.401-1.017.255C.23 5.272-.52 4.722-1.613 3.763c-.918-.805-1.477-1.402-1.674-1.793-.197-.389-.158-.742.119-1.061.201-.226.443-.318.727-.271.283.047.609.234.982.56.023.022.063.055.107.1l.114.111z" style="fill:#2056ae;fill-opacity:1;fill-rule:nonzero;stroke:none" transform="matrix(6.79036 0 0 -6.79036 153.072 640.196)"/><path d="m0 0-1.463 1.139 5.451 7.018 1.465-1.136-2.129-2.742 1.594-1.238 2.129 2.742 1.467-1.139-5.453-7.02-1.463 1.137 2.41 3.105-1.596 1.238Z" style="fill:#2056ae;fill-opacity:1;fill-rule:nonzero;stroke:none" transform="matrix(6.79036 0 0 -6.79036 168.801 681.277)"/><path d="m0 0 1.762 9.058-2.117 1.06-6.213-6.83 1.675-.838 1.297 1.567 2.305-1.153L-1.74.871zm-.086 8.089-.896-3.858-1.7.85z" style="fill:#2056ae;fill-opacity:1;fill-rule:nonzero;stroke:none" transform="matrix(6.79036 0 0 -6.79036 256.545 734.452)"/><path d="m0 0 2.715 8.463 1.732-.555L1.73-.555Z" style="fill:#2056ae;fill-opacity:1;fill-rule:nonzero;stroke:none" transform="matrix(6.79036 0 0 -6.79036 280.325 742.602)"/><path d="m0 0-.299-5.55c-.066-1.247-.349-2.124-.846-2.634-.498-.507-1.281-.734-2.357-.676-1.033.056-1.779.356-2.24.907-.463.548-.66 1.371-.602 2.469l.311 5.807 1.851-.098-.287-5.329c-.052-1.013-.002-1.66.156-1.943.157-.281.459-.432.907-.459.437-.022.744.115.931.41.184.295.305.916.354 1.866l.287 5.329z" style="fill:#2056ae;fill-opacity:1;fill-rule:nonzero;stroke:none" transform="matrix(6.79036 0 0 -6.79036 401.954 702.271)"/><path d="m0 0-2.705 8.466 1.732.554L1.734.553Z" style="fill:#2056ae;fill-opacity:1;fill-rule:nonzero;stroke:none" transform="matrix(6.79036 0 0 -6.79036 503.173 746.461)"/><path d="m0 0-1.357 8.783-1.797-.277.994-6.434-3.26 6.086-2.471-.378 1.358-8.783 1.799.276-1.016 6.569 3.326-6.211z" style="fill:#2056ae;fill-opacity:1;fill-rule:nonzero;stroke:none" transform="matrix(6.79036 0 0 -6.79036 474.632 754.472)"/><path d="m0 0-5.9 7.029 1.748.849L-1.311 4.1A59.18 59.18 0 0 0-.234 2.654c.252-.352.463-.674.64-.965a31.536 31.536 0 0 0-.492 1.495c-.143.473-.264.918-.357 1.336l-1.071 4.638 1.696.821L1.965.953Z" style="fill:#2056ae;fill-opacity:1;fill-rule:nonzero;stroke:none" transform="matrix(6.79036 0 0 -6.79036 551.302 728.385)"/><path d="m0 0-5.156 7.239 3.904 2.782.799-1.123-2.379-1.695 1.234-1.734L.594 7.028l.787-1.106-2.188-1.561 1.5-2.108 2.469 1.759.832-1.167Z" style="fill:#2056ae;fill-opacity:1;fill-rule:nonzero;stroke:none" transform="matrix(6.79036 0 0 -6.79036 598.596 702.536)"/><path d="m0 0 6.313-6.256 1.304 1.317-2.609 2.585.551.555c.252.256.498.374.734.355.238-.019.518-.178.84-.485.119-.11.289-.274.506-.483.634-.617 1.086-.999 1.351-1.143l1.354 1.367a4.38 4.38 0 0 0-.688.433 8.796 8.796 0 0 0-.783.696c-.033.036-.084.089-.15.164a4.972 4.972 0 0 1-.155.165c-.541.537-.974.831-1.298.883-.327.052-.713-.07-1.163-.37.245.413.317.807.217 1.186-.101.377-.392.804-.879 1.285-.611.609-1.172.891-1.679.846-.508-.045-1.145-.454-1.911-1.227Zm2.281.349.35.353c.361.364.664.55.91.558.244.01.525-.146.85-.468.336-.331.502-.633.496-.907-.002-.272-.178-.586-.533-.942l-.323-.328Z" style="fill:#2056ae;fill-opacity:1;fill-rule:nonzero;stroke:none" transform="matrix(6.79036 0 0 -6.79036 602.96 623.704)"/><path d="m0 0 1.078 1.563.193-.133c.377-.26.692-.383.938-.367.248.017.475.173.678.47.162.235.218.469.166.705-.047.237-.198.442-.444.613-.349.239-.959.182-1.828-.173a5.261 5.261 0 0 0-1.906-.704c-.432-.099-.789-.121-1.076-.072-.283.051-.588.188-.906.407-.612.42-.95.964-1.024 1.633-.074.667.133 1.356.623 2.065.504.729 1.053 1.165 1.643 1.3.588.137 1.215-.02 1.877-.477l.191-.134L-.84 5.184l-.039.028c-.344.237-.644.352-.902.348-.258-.003-.473-.13-.645-.379-.154-.224-.211-.451-.166-.677.041-.229.18-.422.412-.581.397-.273 1.137-.158 2.223.339.281.127.504.223.66.289.635.269 1.156.4 1.567.394.406-.006.804-.142 1.193-.41.711-.489 1.103-1.066 1.178-1.732.072-.666-.174-1.407-.739-2.223C3.373-.188 2.816-.633 2.227-.756 1.639-.88.979-.689.25-.188c-.025.02-.066.049-.119.092C.074-.055.033-.022 0 0" style="fill:#2056ae;fill-opacity:1;fill-rule:nonzero;stroke:none" transform="matrix(6.79036 0 0 -6.79036 673.582 608.904)"/><path d="m0 0-7.947 3.978.812 1.626L.813 1.627Z" style="fill:#2056ae;fill-opacity:1;fill-rule:nonzero;stroke:none" transform="matrix(6.79036 0 0 -6.79036 723.117 565.045)"/><path d="m0 0-7.039 2.405-.652-1.912-1.375.47 1.929 5.647 1.375-.468-.66-1.931L.619 1.809Z" style="fill:#2056ae;fill-opacity:1;fill-rule:nonzero;stroke:none" transform="matrix(6.79036 0 0 -6.79036 742.865 520.058)"/><path d="m0 0-3.305.5-5.828-1.461.307 2.031 3.857.72-3.451 1.97.291 1.926 5.108-3.317 3.306-.5z" style="fill:#2056ae;fill-opacity:1;fill-rule:nonzero;stroke:none" transform="matrix(6.79036 0 0 -6.79036 759.204 458.15)"/><path d="M0 0a2.572 2.572 0 0 0-2.57-2.575A2.571 2.571 0 0 0-5.139 0 2.57 2.57 0 1 0 0 0" style="fill:#2056ae;fill-opacity:1;fill-rule:nonzero;stroke:none" transform="matrix(6.79036 0 0 -6.79036 91.401 324.968)"/><path d="M0 0a2.572 2.572 0 1 0-5.141 0A2.57 2.57 0 1 0 0 0" style="fill:#2056ae;fill-opacity:1;fill-rule:nonzero;stroke:none" transform="matrix(6.79036 0 0 -6.79036 742.931 325.08)"/><path d="M0 0h-.802v2.765h-1.581V-4h-3.903v5.514h3.089v1.251H-7.99V-4.35c0-.338.07-.576.205-.725.127-.116.332-.175.611-.175h4.791v-2.249h.862a.738.738 0 0 1 .719.738v5.486H0v-6.228h.88v.004c.405 0 .736.33.736.738v9.526H0Z" style="fill:#2056ae;fill-opacity:1;fill-rule:nonzero;stroke:none" transform="matrix(6.79036 0 0 -6.79036 421.635 54.759)"/><path d="m0 0-.484-.637-2.203 1.672-.958-1.258 8.173-6.212.521.685a.739.739 0 0 1-.152 1.022L.531-1.41l.486.639 4.957-3.771.533.703-.004.003a.731.731 0 0 1-.142 1.031l-7.584 5.766-.98-1.289z" style="fill:#2056ae;fill-opacity:1;fill-rule:nonzero;stroke:none" transform="matrix(6.79036 0 0 -6.79036 133.456 177.31)"/><path d="m0 0-1.713-2.251-1.706 1.295 1.71 2.254zm-2.703 2.054-1.71-2.253-2.213 1.682-.956-1.257 5.322-4.048a.74.74 0 0 1 1.023.129L1.516-.07A.741.741 0 0 1 1.365.949l-5.323 4.043-.956-1.256Z" style="fill:#2056ae;fill-opacity:1;fill-rule:nonzero;stroke:none" transform="matrix(6.79036 0 0 -6.79036 131.493 218.129)"/><path d="m0 0-5.388 6.949-.988-.766 4.35-5.61-5.488-4.256-.933 1.198 2.682 2.089L-6.792.926l-2.685-2.082-.736.952 2.685 2.081-1.032 1.329-2.684-2.084-1.018 1.313-.984-.767 5.359-6.913a.717.717 0 0 1 .978-.113z" style="fill:#2056ae;fill-opacity:1;fill-rule:nonzero;stroke:none" transform="matrix(6.79036 0 0 -6.79036 711.652 211.474)"/><path d="m0 0-1.452.875-3.033-5.03-6.212 3.747-.646-1.074 6.209-3.746-1.62-2.686.915-.551a.737.737 0 0 1 .912.3l3.45 5.716 1.171-.708.646 1.07-1.173.707z" style="fill:#2056ae;fill-opacity:1;fill-rule:nonzero;stroke:none" transform="matrix(6.79036 0 0 -6.79036 597.966 94.32)"/><path d="M0 0c.66-.398.865-1.271.455-1.949-.41-.677-1.275-.904-1.935-.504-.659.397-.864 1.267-.456 1.947C-1.525.172-.66.398 0 0m-2.047-3.388c1.397-.84 3.101-.565 3.811.612.27.448.358.959.291 1.467l.849-.511.607 1.005-2.156 1.3.485.801-1.547.936-.483-.804-2.154 1.3-.609-1.007.839-.504A2.209 2.209 0 0 1-3.277.269c-.712-1.179-.161-2.815 1.23-3.657" style="fill:#2056ae;fill-opacity:1;fill-rule:nonzero;stroke:none" transform="matrix(6.79036 0 0 -6.79036 555.673 80.528)"/><path d="m0 0-.716-.365-1.263 2.459-1.407-.722 4.693-9.129.764.395a.737.737 0 0 1 .304.983L-.134-1.5l.714.367 2.845-5.539.783.403-.002.003c.363.188.507.63.318.993L.174 3.199l-1.442-.74z" style="fill:#2056ae;fill-opacity:1;fill-rule:nonzero;stroke:none" transform="matrix(6.79036 0 0 -6.79036 267.825 80.946)"/><path d="m0 0 1.862.957-.592 1.151-5.208-2.676.591-1.153 1.86.958C.386-4.53-.8-5.664-1.376-6.301l.627-1.227c.585.403 1.04.904 1.37 1.493.367.639.531 1.313.498 2.023a3.703 3.703 0 0 1 1.941-.772c.67-.075 1.34.007 2.007.244l-.628 1.226C3.585-3.415 1.975-3.717 0 0" style="fill:#2056ae;fill-opacity:1;fill-rule:nonzero;stroke:none" transform="matrix(6.79036 0 0 -6.79036 231.327 88.453)"/><path d="M399.896 582.55v164.768c0 125.67 70.342 234.893 173.807 290.493a330.363 330.363 0 0 0 11.565 5.927 342.833 342.833 0 0 0 11.564-5.928c103.444-55.599 173.791-164.822 173.791-290.492V582.551c-27.27 15.78-58.913 24.804-92.682 24.804-33.775 0-65.403-9.023-92.673-24.804-27.27 15.78-58.915 24.804-92.676 24.804-33.769 0-65.412-9.023-92.696-24.804zm185.372 29.118c34.04 0 61.63 27.596 61.63 61.643 0 34.04-27.59 61.628-61.63 61.628-34.047 0-61.63-27.588-61.63-61.628 0-34.047 27.583-61.643 61.63-61.643zm-166.032 135.95h104.612v40.864l-81.79 81.762c-14.72-35.622-22.822-74.666-22.822-115.619Zm228.19 0h103.873l.014 7.007c0 40.729-8.048 79.555-22.614 115.035l-81.273-81.47zm-61.684 143.71 77.057 77.235c-22.598 22.625-48.74 41.691-77.531 56.304-28.635-14.524-54.644-33.456-77.147-55.912z" style="fill:#2056ae;fill-opacity:1;fill-rule:nonzero;stroke:none;stroke-width:6.79036" transform="translate(-185.262 -375.716)"/><path d="M0 0v5.714h-.967V.022C-2.555.27-3.846 1.676-3.846 3.313c0 1.803 1.569 3.31 3.373 3.31v.003c2.383.006 4.315 1.895 4.315 4.284 0 .857-.248 1.654-.68 2.326A7.127 7.127 0 0 0 0 0m-7.609 7.11a7.127 7.127 0 0 0 6.642 7.112V8.513H0v5.688c1.586-.244 2.867-1.654 2.867-3.291 0-1.802-1.553-3.294-3.351-3.294v-.002c-2.389-.007-4.323-1.912-4.323-4.301 0-.86.25-1.658.678-2.33a7.136 7.136 0 0 0-3.48 6.127m15.254 0a8.126 8.126 0 0 1-8.047 8.127h-.082A8.126 8.126 0 0 1-8.611 7.11 8.126 8.126 0 0 1-.705-1.015c.074-.006.232-.005.232-.005a8.13 8.13 0 0 1 8.118 8.13" style="fill:#ed1c24;fill-opacity:1;fill-rule:nonzero;stroke:none" transform="matrix(6.79036 0 0 -6.79036 403.28 345.89)"/></svg>