<svg xmlns="http://www.w3.org/2000/svg" width="232.9196mm" height="232.91997mm" viewBox="0 0 232.9196 232.91997"><g transform="matrix(1.40144 0 0 1.40144 -227.892 32.58)"><path d="M328.814 59.856c0 45.89-37.203 83.097-83.102 83.097-45.89 0-83.099-37.207-83.099-83.097 0-45.895 37.21-83.103 83.099-83.103 45.899 0 83.102 37.208 83.102 83.103" style="fill:#fff;fill-opacity:1;fill-rule:nonzero;stroke:none;stroke-width:.180156"/><path d="M245.71-20.358c-44.333 0-80.4 36.064-80.4 80.394 0 44.33 36.067 80.397 80.4 80.397 44.332 0 80.398-36.066 80.398-80.397 0-44.33-36.066-80.394-80.398-80.394zm0 162.04c-45.021 0-81.65-36.626-81.65-81.646 0-45.018 36.629-81.642 81.65-81.642 45.02 0 81.646 36.624 81.646 81.642 0 45.02-36.626 81.646-81.646 81.646" style="fill:#0068b4;fill-opacity:1;fill-rule:nonzero;stroke:none;stroke-width:.180156"/><ellipse cx="245.66393" cy="59.899078" rx="77.161339" ry="76.858925" style="fill:#0068b4;fill-opacity:1;stroke:none;stroke-width:.330843"/><g style="fill:#fff"><path d="M133.91 52.97a2.275 2.275 0 0 0-2.278-2.274 2.27 2.27 0 0 0-2.282 2.275 2.281 2.281 0 0 0 2.282 2.273 2.286 2.286 0 0 0 2.278-2.273M3.667 52.97a2.268 2.268 0 0 0-2.274-2.274A2.265 2.265 0 0 0-.886 52.97a2.276 2.276 0 0 0 4.553 0M.9 80.255l.206.934c.07.336.188.552.357.653.166.102.378.124.637.07.243-.055.416-.16.524-.319.104-.161.121-.406.05-.73l-.203-.946Zm-3.23.7.237 1.096c.082.371.214.618.402.732.187.119.41.15.673.093a.826.826 0 0 0 .537-.35c.115-.185.132-.462.051-.84l-.236-1.09Zm6.013-3.565.87 4.017c.146.667.06 1.224-.26 1.67-.318.441-.766.728-1.348.855-.492.107-.94.07-1.346-.112-.272-.119-.509-.328-.713-.63-.04.528-.2.947-.495 1.255-.3.31-.709.522-1.229.634-.43.095-.83.095-1.209 0a2.09 2.09 0 0 1-.957-.51c-.162-.152-.31-.405-.444-.756-.18-.464-.285-.777-.32-.936l-.803-3.698 8.255-1.789M1.745 90.241l2.609-1.727-3.118.27zM.168 91.28l-.815-2.34-1.44.127-.738-2.118 8.854-.26.792 2.273-7.098 5.285-.76-2.171 1.205-.796M8.074 92.205l2.587 5.274-1.628.8-1.626-3.309-1.201.592 1.505 3.071-1.543.76-1.508-3.075-1.494.736 1.676 3.41-1.715.84-2.639-5.376 7.586-3.723M10.864 98.099l1.162 1.724-3.467 3.258 4.506-1.713 1.155 1.713-3.284 3.536 4.32-1.995 1.16 1.717-7.88 3.42-1.203-1.78 3.716-4.004-5.103 1.939-1.206-1.784 6.124-6.031M16.99 106.892l1.473 1.626-2.183 1.98 1.6 1.763 2.183-1.98 1.485 1.636-6.258 5.675-1.486-1.64 2.534-2.297-1.598-1.763-2.534 2.298-1.471-1.623 6.255-5.675M22.26 119.496l1.38-2.805-2.553 1.802zm-.839 1.692-1.885-1.604-1.18.83-1.705-1.46 7.514-4.687 1.837 1.566-3.473 8.142-1.748-1.492.64-1.295M30.977 119.753l1.818 1.013-1.622 4.472 3.25-3.564 1.803 1.006-1.33 4.641 2.948-3.733 1.811 1.013-5.485 6.608-1.876-1.048 1.506-5.254-3.68 4.04-1.88-1.052 2.737-8.142M40.534 129.415c-.309.795-.404 1.418-.29 1.865.116.44.387.742.814.911.439.166.845.127 1.217-.123.372-.246.727-.816 1.066-1.7.287-.745.37-1.336.25-1.776a1.282 1.282 0 0 0-.826-.908c-.413-.159-.81-.113-1.193.144-.385.25-.73.778-1.038 1.587zm-2.04-.806c.493-1.288 1.182-2.174 2.056-2.663.88-.486 1.856-.525 2.93-.11 1.104.419 1.82 1.102 2.143 2.034.326.932.242 2.037-.246 3.308-.352.925-.774 1.632-1.262 2.121-.486.493-1.037.806-1.656.943-.619.141-1.297.07-2.03-.21-.747-.286-1.311-.666-1.691-1.137-.381-.471-.605-1.073-.674-1.805-.067-.729.075-1.559.43-2.48M48.04 127.677l2.823.644-.065 5.25 2.225-4.758 2.808.64-1.88 8.234-1.75-.397 1.437-6.285-2.798 5.971-1.575-.359.077-6.594-1.434 6.285-1.748-.401 1.88-8.23M57.307 129.612l5.85.542-.165 1.808-3.67-.34-.124 1.333 3.41.316-.16 1.71-3.405-.313-.152 1.654 3.779.352-.173 1.896-5.966-.548.776-8.41M64.628 130.22l2.044-.063 2.822 4.592-.145-4.673 2.06-.067.256 8.445-2.056.064-2.805-4.568.142 4.648-2.059.064-.26-8.442M72.767 129.802l1.952-.24.168 1.383-.102 1.731-1.327.162-.523-1.657-.168-1.38M76.824 135.038l2.002-.574c.127.387.28.669.46.852.29.288.642.387 1.054.302.308-.06.529-.197.66-.404a.839.839 0 0 0 .124-.644.84.84 0 0 0-.355-.531c-.192-.138-.591-.222-1.198-.254-.995-.06-1.735-.253-2.224-.59-.492-.335-.801-.824-.938-1.475a2.555 2.555 0 0 1 .065-1.27c.129-.42.379-.782.752-1.084.372-.303.92-.528 1.646-.68.892-.182 1.606-.122 2.156.173.548.3.954.87 1.22 1.707l-1.986.556c-.133-.362-.304-.609-.515-.746-.207-.137-.47-.173-.774-.11-.255.057-.431.159-.535.31a.635.635 0 0 0-.096.503c.025.13.104.24.234.324.127.084.387.137.79.151.99.051 1.711.158 2.168.32.458.162.818.408 1.078.736.26.327.436.717.53 1.168a3.113 3.113 0 0 1-.066 1.548c-.156.5-.43.912-.826 1.235-.39.324-.925.553-1.602.693-1.183.243-2.056.141-2.623-.306-.568-.45-.969-1.087-1.201-1.91M90.922 125.07l2.031-.827 1.895 4.665c.188.461.306.922.353 1.383.05.46.004.897-.133 1.31-.132.41-.318.742-.55.977-.326.338-.763.62-1.312.841a7.508 7.508 0 0 1-1.082.345c-.4.102-.76.123-1.078.07a2.708 2.708 0 0 1-.972-.39 2.812 2.812 0 0 1-.798-.732 5.852 5.852 0 0 1-.729-1.242l-1.897-4.666 2.034-.823 1.943 4.778c.175.429.408.721.702.883.298.155.621.166.975.026.348-.141.571-.374.674-.69.104-.317.064-.697-.113-1.13l-1.943-4.778M94.345 123.563l1.776-1.013 4.646 2.734-2.321-4.064 1.79-1.02 4.186 7.332-1.786 1.024-4.621-2.716 2.306 4.04-1.789 1.016-4.187-7.333M101.645 119.165l1.787-1.267 4.89 6.883-1.787 1.27-4.89-6.886M104.368 117.328l1.737-1.499 5.187 3.55-2.777-5.633 1.689-1.457 3.52 8.115-1.803 1.558-7.553-4.634M110.764 111.663l3.958-4.342 1.34 1.221-2.483 2.723.993.901 2.303-2.522 1.272 1.157-2.307 2.527 1.23 1.118 2.56-2.804 1.41 1.288-4.038 4.423-6.238-5.69M119.695 106.368l.534-.75c.056-.08.136-.257.243-.535a.557.557 0 0 0-.01-.44.885.885 0 0 0-.315-.394c-.22-.154-.43-.218-.633-.183-.202.031-.419.211-.645.532l-.558.777zm2.821 4.729-6.873-4.909 2.124-2.973c.396-.553.753-.933 1.073-1.147.32-.211.698-.3 1.128-.26.433.04.866.217 1.302.527.379.271.658.574.838.908.179.33.269.68.269 1.041 0 .23-.059.503-.174.817.236-.151.429-.247.586-.281.102-.026.293-.031.565-.026.278.01.478.03.61.056l2.617.56-1.443 2.012-2.787-.552c-.36-.07-.612-.091-.763-.053a.817.817 0 0 0-.473.324l-.112.155 2.798 2.002-1.285 1.798M124.87 102.817l.862-1.896c.374.154.687.221.94.2.41-.035.716-.24.919-.605.153-.274.192-.531.118-.763a.852.852 0 0 0-.414-.521.885.885 0 0 0-.633-.07c-.225.06-.55.31-.97.749-.686.721-1.317 1.161-1.89 1.316-.572.155-1.146.077-1.73-.239a2.534 2.534 0 0 1-.924-.873 2.183 2.183 0 0 1-.341-1.273c.01-.479.192-1.042.548-1.693.436-.795.945-1.309 1.526-1.534.584-.225 1.28-.17 2.09.172l-.86 1.88c-.363-.138-.663-.17-.903-.096-.238.074-.43.247-.582.525-.123.225-.158.426-.11.605.046.176.156.31.318.398a.508.508 0 0 0 .396.03c.151-.04.362-.204.631-.496.677-.721 1.223-1.207 1.647-1.453.42-.243.837-.356 1.258-.342.419.01.828.127 1.235.352.476.26.856.612 1.137 1.052.28.444.417.919.408 1.429-.01.51-.18 1.066-.51 1.668-.58 1.059-1.225 1.66-1.933 1.805-.71.14-1.455.036-2.232-.324M123.54 93.144l.87-2.009 7.749 3.36-.874 2.013-7.746-3.364M124.974 89.953l2.078-6.32 1.974.65-.696 2.12 6.047 1.991-.686 2.083-6.048-1.995-.696 2.118-1.973-.647M127.197 83.217l.478-2.387 3.033-.848-2.475-1.95.477-2.375 4.27 3.667 3.47.696-.43 2.149-3.47-.695-5.354 1.743" style="fill:#fff;fill-opacity:1;fill-rule:nonzero;stroke:none;stroke-width:.180156" transform="translate(179.749 -6.765)"/><g style="fill:#fff"><path d="m7.707 30.562-1.36 2.057 2.312 1.53c.145.096.273.06.385-.108l1.018-1.537c.117-.178.099-.318-.056-.42zm10.786-.947-6.705-4.437-.778 1.175 6.704 4.437-1.007 1.525-10.25-6.783c-.36-.238-.701-.115-1.021.37l-.565-.375 1.489-2.252 3.598 2.38.777-1.174-2.493-1.65c-.36-.237-.699-.114-1.021.37l-.564-.374 1.49-2.252 11.355 7.516Zm-6.888 2.845-1.99 3.006c-.481.726-1.043.878-1.685.454l-5.1-3.375c-.3-.2-.591-.084-.875.345l-.617-.408 1.463-2.21 2.48 1.64 1.36-2.055-1.554-1.029c-.292-.192-.579-.075-.862.354l-.604-.399 1.461-2.21 6.281 4.157c.643.426.724 1.002.242 1.73" style="fill:#fff;fill-opacity:1;fill-rule:nonzero;stroke:none;stroke-width:.180156" transform="translate(179.749 -6.765)"/><path d="M6.107 25.16a.88.88 0 0 1 .49.159l10.037 6.643.727-1.1-6.704-4.437 1.059-1.6 6.704 4.437.728-1.1L8.22 20.93 7.01 22.756l.151.1c.366-.428.806-.513 1.222-.237l2.705 1.79-1.059 1.6-3.597-2.38-1.208 1.827.152.1c.223-.264.468-.396.73-.396zm10.671 7.509L6.316 25.745c-.285-.192-.514.066-.668.297l-.14.213-.99-.655 1.77-2.678 3.597 2.38.495-.75-2.279-1.508c-.289-.189-.515.067-.667.3l-.142.212-.988-.656 1.771-2.677 11.78 7.796-1.29 1.95-6.706-4.437-.496.749 6.705 4.438zM6.7 32.546l2.1 1.39c-.01.015.002.01.03-.036l1.018-1.537c.03-.046.035-.07.035-.07l-2.102-1.378Zm2.11 1.91c-.098 0-.197-.03-.292-.094l-2.526-1.671 1.643-2.482 2.512 1.662c.215.141.36.419.128.773l-1.018 1.538c-.15.228-.326.275-.446.275Zm-6.262-2.262c.144 0 .287.046.423.138l5.1 3.374c.52.344.93.225 1.332-.38l1.99-3.007c.514-.779.18-1.145-.17-1.376l-6.068-4.016-1.18 1.784.19.126c.325-.377.712-.454 1.063-.221l1.767 1.168-1.643 2.483-2.479-1.64-1.181 1.783.204.135c.202-.232.42-.35.652-.35zm6.06 4.215c-.265 0-.54-.093-.818-.277l-5.1-3.375c-.184-.12-.329-.02-.522.274l-.141.212-1.043-.689L2.73 29.92l2.479 1.64 1.08-1.63-1.342-.888c-.178-.112-.316-.005-.51.281l-.14.213-1.03-.68L5.01 26.22l6.494 4.297c.758.503.87 1.243.314 2.083l-1.99 3.007c-.354.533-.764.802-1.221.802M21.524 14.297c.289.387.634.596 1.036.63.402.03.768-.074 1.1-.322.33-.248.532-.558.603-.93.093-.416-.005-.82-.293-1.206-.283-.378-.64-.585-1.072-.622-.372-.03-.723.08-1.055.326-.331.249-.54.558-.625.93-.078.417.025.816.307 1.194zm7.936-4.622 4.545 6.083-1.571 1.174-2.112-2.826c-.28.543-1.023 1.265-2.233 2.17l-6.274 4.687-.756-1.01 3.454-2.581-.95-1.272c-.705.31-1.39.401-2.056.276-.664-.123-1.179-.43-1.541-.915-.363-.485-.508-1.081-.437-1.789l-1.45 1.084-.712-.949 2.877-2.149L19.75 11c-.236-.317-.57-.315-1 .005l-.36-.483 2.218-1.655 1.207 1.615 2.862-2.138.71.951-1.451 1.084c.698.132 1.23.44 1.592.924.362.486.51 1.062.441 1.727-.068.666-.344 1.297-.835 1.895l.95 1.27c1.27-.95 2.044-1.54 2.318-1.771a6.068 6.068 0 0 0 1.154-1.344l-4.461-5.97c-.272-.363-.68-.34-1.226.069l-.406-.543 2.391-1.787 2.849 3.812 1.773-1.325.757 1.013-1.773 1.325" style="fill:#fff;fill-opacity:1;fill-rule:nonzero;stroke:none;stroke-width:.180156" transform="translate(179.749 -6.765)"/><path d="M22.78 12.098c-.275 0-.532.091-.785.28a1.331 1.331 0 0 0-.528.783c-.064.337.02.662.262.983.245.328.523.502.852.528.342.03.643-.06.926-.271.28-.21.445-.464.505-.775.08-.351-.002-.677-.247-1.005-.24-.318-.53-.489-.89-.52a1.02 1.02 0 0 0-.094-.003zm-.079 3.09c-.054 0-.108-.003-.162-.005-.477-.041-.887-.286-1.22-.732-.325-.435-.445-.904-.352-1.393a1.85 1.85 0 0 1 .723-1.087c.38-.285.787-.408 1.228-.377.506.046.929.286 1.256.724.334.448.447.923.338 1.413-.081.428-.318.794-.7 1.08-.335.252-.71.379-1.11.379zm-1.285 4.816.45.603 6.07-4.537c1.172-.876 1.899-1.576 2.159-2.081l.187-.363 2.203 2.949 1.163-.87-4.546-6.082 1.774-1.325-.451-.604L28.65 9.02l-2.849-3.813L23.82 6.69l.107.142c.573-.353 1.06-.293 1.372.126l4.566 6.111-.092.148c-.31.498-.715.97-1.202 1.4-.285.24-1.047.821-2.335 1.784l-.205.152-1.221-1.634.127-.155c.454-.553.715-1.145.777-1.758.062-.605-.066-1.112-.392-1.548-.326-.436-.795-.706-1.435-.827l-.57-.107 1.712-1.28-.404-.542-2.863 2.14-1.207-1.617-1.808 1.35.063.087c.18-.104.351-.154.515-.154.171 0 .42.059.63.338l.646.865-2.877 2.147.405.542 1.712-1.28-.059.579c-.065.646.062 1.173.388 1.61.326.436.779.703 1.384.817.613.11 1.25.025 1.905-.26l.186-.082 1.225 1.639zm.346 1.317-1.06-1.42 3.453-2.581-.678-.908c-.687.266-1.367.337-2.017.215-.727-.136-1.299-.476-1.7-1.013a2.57 2.57 0 0 1-.5-1.422l-1.234.922-1.017-1.359 2.876-2.149-.34-.454c-.088-.119-.164-.133-.22-.133-.076 0-.211.035-.424.192l-.205.152-.664-.891 2.626-1.962 1.207 1.616 2.863-2.138 1.016 1.36-1.235.923c.509.18.92.476 1.222.88.4.536.566 1.178.492 1.906-.067.656-.326 1.284-.767 1.872l.679.91c1.141-.855 1.848-1.395 2.102-1.61.397-.35.737-.734 1.008-1.136l-4.356-5.83c-.101-.135-.196-.152-.269-.152-.106 0-.296.046-.6.274l-.204.152-.71-.952 2.799-2.093 2.85 3.813 1.773-1.326 1.062 1.422-1.774 1.326 4.546 6.083-1.981 1.479-2.042-2.733c-.382.524-1.074 1.158-2.097 1.923l-6.48 4.842M48.374-.565l-2.325.711c.229.404.366.876.416 1.42L48.807.85Zm-8.676 3.399c.24.785.675 1.327 1.304 1.629a2.416 2.416 0 0 0 1.81.123c.63-.194 1.104-.559 1.418-1.096.354-.602.411-1.29.175-2.067C44.166.65 43.733.11 43.103-.19c-.553-.283-1.151-.324-1.794-.13-.629.195-1.106.566-1.428 1.117-.354.601-.416 1.28-.183 2.038Zm11.45 5.66-1.994-6.51-2.855.874c-.465 1.42-1.51 2.38-3.136 2.877-1.154.354-2.235.34-3.24-.041-1.094-.406-1.811-1.164-2.151-2.273-.372-1.218-.13-2.334.73-3.348.798-.943 1.853-1.524 3.166-1.744 1.38-.229 2.557.046 3.531.82l2.823-.865-.464-1.517c-.133-.433-.525-.548-1.177-.348l-.199-.647 2.84-.87 3.986 13.02-1.86.57" style="fill:#fff;fill-opacity:1;fill-rule:nonzero;stroke:none;stroke-width:.180156" transform="translate(179.749 -6.765)"/><path d="M46.412.303c.125.283.215.593.27.93l1.806-.554-.283-.926zm-.172 1.6-.03-.313c-.046-.506-.176-.948-.384-1.318l-.158-.275 2.873-.881.584 1.901zM42.08-.186c-.224 0-.458.035-.697.11-.57.176-.992.502-1.283 1-.318.543-.37 1.142-.158 1.834.22.72.603 1.201 1.17 1.473.517.248 1.06.285 1.625.11.573-.175.99-.497 1.274-.981.317-.541.366-1.151.149-1.863-.218-.71-.6-1.188-1.167-1.458a1.976 1.976 0 0 0-.914-.226zm-.037 5.145a2.65 2.65 0 0 1-1.151-.266c-.696-.334-1.18-.934-1.44-1.786-.253-.824-.183-1.578.208-2.241a2.672 2.672 0 0 1 1.574-1.23c.707-.217 1.377-.165 1.984.143.687.328 1.171.925 1.43 1.769.257.844.191 1.608-.198 2.27-.347.591-.873.999-1.565 1.211-.283.087-.566.13-.842.13zm7.28-3.297 1.993 6.511 1.371-.42-3.837-12.53-2.35.717.053.17c.65-.135 1.094.078 1.248.584l.538 1.762-3.195.978-.106-.085c-.912-.726-2.032-.982-3.329-.767-1.245.207-2.259.765-3.015 1.657-.804.95-1.027 1.968-.679 3.108.319 1.038.971 1.727 1.997 2.108.948.36 1.979.372 3.074.036 1.557-.476 2.528-1.364 2.97-2.712l.04-.125zm1.654 7.15-1.994-6.51-2.485.76c-.51 1.429-1.608 2.41-3.262 2.916-1.203.37-2.353.354-3.404-.045-1.166-.433-1.941-1.253-2.304-2.437-.398-1.301-.136-2.508.776-3.589.837-.985 1.953-1.601 3.32-1.828 1.395-.233 2.618.03 3.626.787l2.452-.751-.39-1.272c-.04-.137-.117-.263-.391-.263a1.7 1.7 0 0 0-.465.085l-.244.074-.35-1.135 3.328-1.02 4.136 13.509-2.35.719M72.602-1.108l.091 7.81-1.944.025-.143-12.26c-.005-.453-.35-.674-1.032-.665l-.01-.68 2.968-.035.052 4.543 2.214-.025.015 1.263zm-4.396 4.134c-.707-.165-1.421-.512-2.143-1.039-.766-.556-1.3-1.149-1.597-1.783-.036-.07-.085-.106-.153-.106-.079-.01-.133.025-.165.11-.284.64-.802 1.247-1.556 1.82-.71.543-1.415.906-2.118 1.088l-1.102-1.003c-.025-.031-.015-.052.016-.063.959-.195 1.807-.715 2.547-1.554.85-.966 1.267-2.074 1.253-3.328l-.02-1.832-2.968.036-.016-1.249 8.1-.093.016 1.246-2.969.036.02 1.832c.016 1.263.458 2.37 1.33 3.313.76.813 1.621 1.306 2.585 1.479.035.01.04.03.015.061l-1.077 1.03" style="fill:#fff;fill-opacity:1;fill-rule:nonzero;stroke:none;stroke-width:.180156" transform="translate(179.749 -6.765)"/><path d="m59.841 2.198.7.635c.622-.183 1.259-.522 1.896-1.008.716-.544 1.213-1.122 1.478-1.72a.398.398 0 0 1 .376-.263.43.43 0 0 1 .405.25c.278.593.788 1.16 1.517 1.689.646.471 1.291.794 1.918.963l.681-.651c-.841-.23-1.625-.723-2.316-1.464-.913-.987-1.383-2.158-1.398-3.484l-.026-2.087 2.97-.035-.011-.737-7.59.088.01.737 2.97-.036.025 2.088c.015 1.312-.428 2.488-1.317 3.499-.67.761-1.439 1.276-2.287 1.533Zm.564 1.2L59.08 2.19l.036-.194a.293.293 0 0 1 .19-.19c.93-.19 1.739-.686 2.439-1.48.803-.912 1.203-1.973 1.19-3.155l-.02-1.577-2.97.036-.02-1.758 8.612-.1.02 1.758-2.968.035.02 1.577c.016 1.192.44 2.25 1.263 3.14.716.768 1.537 1.24 2.44 1.402l.15.025.078.164a.298.298 0 0 1-.046.27l-1.21 1.161-.133-.03c-.737-.173-1.489-.536-2.236-1.08-.74-.537-1.279-1.12-1.603-1.734-.316.63-.84 1.22-1.564 1.77-.735.563-1.479.943-2.208 1.133Zm9.422-9.844c.887.081 1.03.593 1.035.906l.14 12.006 1.433-.015-.091-7.81 2.214-.026-.01-.753-2.214.026-.053-4.542-2.457.026zm.67 13.43L70.35-5.533c-.002-.124-.005-.415-.741-.415h-.253l-.036-.252-.01-.933 3.48-.04.052 4.54 2.214-.025.02 1.775-2.214.025.092 7.81-2.456.03M91.322 11.25l2.56-7.621-1.303-.437-2.561 7.622-1.765-.593 1.398-4.16c-.594.004-1.512-.2-2.757-.617L84.12 4.51c-1.25-.419-1.685-1.198-1.302-2.337l1.702-5.068c.137-.409-.118-.722-.765-.938l.21-.627 6.646 2.23-.401 1.198-3.8-1.275-1.78 5.3c-.072.213.01.36.242.439l3.083 1.035c.859.288 1.558.42 2.097.395l2.114-6.292c.137-.409-.07-.708-.622-.894l.217-.64 2.593.871-1.375 4.087 1.305.438.95-2.832c.138-.409-.069-.706-.62-.891l.216-.644 2.592.872-4.337 12.908-1.764-.594" style="fill:#fff;fill-opacity:1;fill-rule:nonzero;stroke:none;stroke-width:.180156" transform="translate(179.749 -6.765)"/><path d="m93.304 1.834.82.275.87-2.59c.046-.13.125-.372-.46-.569l-.234-.078zm-1.658 9.255 1.28.432L97.1-.902l-2.107-.708-.058.17c.683.327.642.831.544 1.12l-1.032 3.074-1.789-.598 1.374-4.089-2.109-.71-.057.174c.683.326.641.83.544 1.12L90.24 5.11l-.175.01c-.567.026-1.29-.106-2.188-.408l-3.084-1.036c-.188-.063-.319-.167-.389-.307a.58.58 0 0 1-.015-.456l1.861-5.544 3.8 1.277.239-.713-6.161-2.068-.052.153c.813.359.785.88.686 1.171L83.06 2.256c-.169.503-.163.907.02 1.234.184.33.562.593 1.122.782l2.773.932c1.195.4 2.086.603 2.65.603h.355l-.086.337-1.317 3.92 1.28.43 2.561-7.622 1.789.6zm1.602 1.08-2.25-.757 2.56-7.622-.818-.275-2.561 7.623-2.25-.756 1.373-4.085c-.623-.057-1.437-.258-2.489-.612l-2.773-.933c-.686-.23-1.158-.571-1.406-1.017-.253-.452-.272-1.006-.057-1.644l1.702-5.067c.036-.101.123-.371-.604-.616l-.242-.081.373-1.112 7.13 2.392L90.37-.71l-3.799-1.275-1.7 5.058c-.015.046-.01.067-.01.067.005.005.031.025.093.05l3.084 1.037c.735.245 1.35.375 1.83.383l2.057-6.12c.041-.131.126-.372-.46-.569l-.242-.083.38-1.124 3.069 1.03 3.076 1.033-4.5 13.393M114.644 16l-2.371 2.857-1.51-1.252 4.218-5.088c.288-.346.17-.739-.355-1.174l.423-.51 2.298 1.907-1.81 2.181 1.704 1.413-.894 1.078zm-8.128-6.359c-.354.427-.503.877-.445 1.351.057.42.257.774.602 1.06.344.285.74.417 1.188.394.446-.02.844-.243 1.192-.663.36-.434.512-.88.458-1.339a1.58 1.58 0 0 0-.589-1.05c-.354-.293-.742-.428-1.167-.406-.485.025-.9.242-1.239.653zm4.691 1.568c.015.734-.18 1.346-.585 1.836-.597.72-1.37 1.046-2.317.98-.847-.05-1.657-.393-2.431-1.036-.768-.634-1.257-1.368-1.468-2.198-.24-.918-.062-1.737.534-2.457.406-.49.976-.791 1.71-.904l-1.485-1.232.796-.96 2.957 2.452.424-.51c.209-.253.132-.528-.23-.828l.355-.427 2.156 1.789-1.091 1.314 2.97 2.462-.797.961zm-4.117 10.693 2.25-2.715c.08-.094.063-.188-.051-.28l-6.584-5.463.806-.972 8.095 6.714c.156.128.177.26.066.394l-3.01 3.628-1.574-1.306" style="fill:#fff;fill-opacity:1;fill-rule:nonzero;stroke:none;stroke-width:.180156" transform="translate(179.749 -6.765)"/><path d="m107.84 9.24-.073.002c-.413.02-.758.205-1.055.562-.31.373-.436.752-.388 1.157.051.356.217.648.513.895.274.226.577.337.926.337l.085-.003c.376-.02.706-.204 1.008-.57.317-.382.448-.757.401-1.145-.04-.35-.204-.64-.499-.885-.284-.235-.584-.35-.918-.35zm-.078 3.464c-.466 0-.887-.154-1.252-.456a1.875 1.875 0 0 1-.693-1.222c-.066-.549.104-1.069.503-1.549.386-.466.864-.717 1.421-.745l.099-.003c.45 0 .87.158 1.245.469.394.328.623.737.679 1.216.063.528-.11 1.044-.514 1.533-.394.475-.857.729-1.376.754zm-2.238-6.539 1.725 1.431-.56.086c-.676.104-1.183.37-1.552.815-.545.658-.704 1.387-.485 2.23.198.775.664 1.47 1.384 2.065.728.604 1.495.933 2.284.978.9.062 1.558-.229 2.105-.888.369-.445.541-.99.527-1.668l-.01-.558 1.73 1.435.471-.567-2.97-2.462 1.092-1.316-1.763-1.461-.04.046c.426.474.204.858.076 1.012l-.586.707-2.958-2.453zm3.016 8.123c-.082 0-.168-.002-.253-.01-.896-.052-1.764-.42-2.576-1.095-.805-.665-1.327-1.45-1.553-2.33-.26-.998-.063-1.901.586-2.683a2.749 2.749 0 0 1 1.344-.876l-1.284-1.064 1.124-1.354 2.957 2.453.26-.313c.053-.064.15-.183-.195-.47l-.198-.163.682-.82 2.549 2.115-1.092 1.315 2.97 2.463-1.123 1.353-1.3-1.079a2.788 2.788 0 0 1-.62 1.476c-.595.717-1.36 1.08-2.278 1.08zm2.582 3.283 1.117.927 2.37-2.858 1.704 1.413.569-.686-1.704-1.412 1.81-2.182-1.906-1.58-.103.125c.25.25.384.494.407.741a.835.835 0 0 1-.21.623zm1.184 1.646-1.904-1.58 4.383-5.282c.093-.113.098-.196.093-.25-.01-.11-.09-.296-.414-.566l-.197-.163.749-.903 2.69 2.233-1.808 2.182L117.6 16.3l-1.22 1.472-1.705-1.413zm-4.857 2.652 1.182.98 2.846-3.43c.01.01.005-.004-.03-.037l-7.9-6.55-.48.578 6.387 5.3a.478.478 0 0 1 .191.323.431.431 0 0 1-.107.318zm1.249 1.7-1.968-1.633 2.367-2.856-6.75-5.602 1.132-1.365 8.29 6.876c.318.261.26.561.101.755l-3.172 3.825M123.507 36.4l-1.023-1.616c.628.01 1.314-.15 2.06-.49.435-.196 1.051-.546 1.849-1.052l2.278-1.442c.183-.113.206-.28.067-.498l-4.888-7.724 1.054-.666 6.1 9.637c.046.075.04.13-.02.17l-3.673 2.324c-1.528.968-2.798 1.42-3.806 1.358zm-8.975-8.91 1.067-.676 2.055 3.247 3.578-2.266c.338-.214.352-.567.04-1.058l.56-.355 1.49 2.353-4.648 2.941.907 1.432 3.58-2.266c.337-.214.355-.562.05-1.045l.56-.354 1.48 2.34-4.646 2.94 2.968 4.692-1.067.675-7.973-12.6" style="fill:#fff;fill-opacity:1;fill-rule:nonzero;stroke:none;stroke-width:.180156" transform="translate(179.749 -6.765)"/><path d="M123.651 36.15h.041c.924 0 2.097-.445 3.484-1.324l3.547-2.244-5.9-9.319-.621.395 4.75 7.508c.113.176.153.346.118.503a.55.55 0 0 1-.263.348l-2.278 1.44c-.8.508-1.433.868-1.88 1.07-.602.274-1.177.44-1.714.493zm.041.512c-.068 0-.136-.003-.202-.005l-.13-.01-1.347-2.129.475.01h.004c.632 0 1.266-.157 1.946-.467.428-.193 1.038-.541 1.819-1.035l2.278-1.442c.035-.03.04-.064-.01-.146l-5.026-7.94 1.485-.94 6.237 9.853c.141.225.055.423-.093.52l-3.677 2.326c-1.47.93-2.734 1.404-3.756 1.404zm-8.808-9.093 7.7 12.169.635-.402-2.967-4.691 4.646-2.941-1.207-1.908-.14.088c.32.67-.01 1.019-.254 1.173l-3.796 2.402-1.18-1.862 4.648-2.941-1.216-1.921-.14.088c.127.26.166.489.119.696a.775.775 0 0 1-.365.49l-3.793 2.404-2.055-3.245zm7.542 12.872-8.246-13.03 1.498-.95 2.055 3.246 3.362-2.128c.105-.066.13-.13.14-.171.025-.121-.036-.311-.179-.534l-.136-.216.991-.628 1.763 2.783-4.647 2.943.633 1 3.364-2.13c.094-.06.291-.185-.031-.692l-.136-.216.99-.628 1.754 2.772-4.646 2.941 2.968 4.691-1.498.947" style="fill:#fff;fill-opacity:1;fill-rule:nonzero;stroke:none;stroke-width:.180156" transform="translate(179.749 -6.765)"/></g></g><path d="M301.121 60.8c0 30.37-24.622 54.995-54.998 54.995-30.371 0-54.997-24.624-54.997-54.995 0-30.375 24.626-55 54.997-55 30.376 0 54.998 24.625 54.998 55" style="fill:#fff;fill-opacity:1;fill-rule:nonzero;stroke:none;stroke-width:.119231"/><g style="fill:#0068b4;fill-opacity:1"><path d="M67.963 65.793c.025-.036-1.125 2.157-1.125 2.157l.957.493 1.139-2.184.57-1.152c.252.292.517.52.608.59.918.84 1.924 2.721 1.936 2.746l.939-.493c-.036-.09-1.091-2.087-2.19-3.068-.375-.3-.746-.759-.746-.956l-1.028-.262-1.06 2.129" style="fill:#0068b4;fill-opacity:1;fill-rule:nonzero;stroke:none;stroke-width:.180156" transform="translate(179.749 -6.765)"/><g style="fill:#0068b4;fill-opacity:1"><path d="M31.33 51.82v1.173h68.7V51.82h-68.7" style="fill:#0068b4;fill-opacity:1;fill-rule:nonzero;stroke:none;stroke-width:.180156" transform="translate(179.749 -6.765)"/><g style="fill:#0068b4;fill-opacity:1"><path d="M65.823 29.372c2.871 2.865 17.062 15.476 33.956 3.857-.084 14.013-.3 38.66-.554 40.503l-.065.651c-.947 9.905-6.12 33.927-33.57 43.311-2.142-.51-25.848-6.77-32.64-38.423-.886-4.164-1.151-10.818-1.151-17.817 0-5.304.148-10.802.272-15.542.108-3.888.205-7.328.205-9.961 0-1.06-.015-1.966-.051-2.733 4.539 3.095 18.963 10.706 33.597-3.846zm-.536-1.672C48.57 45.073 32.478 31.486 31.79 30.898l-1.694-1.481.374 2.22c.316 1.909.169 7.615-.005 14.231-.312 11.684-.72 26.227.912 33.751 7.302 34.057 33.842 39.648 34.12 39.7l.21.052.204-.063c28.524-9.652 33.89-34.526 34.863-44.768l.055-.578c.338-2.494.566-40.594.583-42.225v-1.632l-1.295.98c-18.22 13.82-33.01-2.643-33.634-3.358l-.585-.664-.61.639" style="fill:#0068b4;fill-opacity:1;fill-rule:nonzero;stroke:none;stroke-width:.180156" transform="translate(179.749 -6.765)"/><path d="M63.669 88.887c2.95 1.263 3.925 4.504 3.957 4.648.066.187.08.573.08.996 0 .144-.005.246-.016.376-.065-.327-.094-.658-.175-.953-.55-1.404-2.523-1.415-2.6-1.415-3.163-.306-4.723-3.202-5.137-4.068-.143-.327-.457-.45-.717-.64 1.241-.046 2.644.204 4.606 1.056zm-6.242-1.97c-.564.109-.96.186-.95.671.005.472.46.539.698.57.415.067 1.377.211 1.632.76.472 1.007 2.287 4.31 6.06 4.69.38 0 1.403.138 1.638.712.2.672.333 1.534.275 1.72l.887.609c.095-.12.095-.334.128-.528.224.03.912.092.912.092.025-.215.184-2.182-.041-2.984-.051-.155-1.158-3.87-4.576-5.342-3.17-1.35-5.073-1.256-6.662-.97" style="fill:#0068b4;fill-opacity:1;fill-rule:nonzero;stroke:none;stroke-width:.180156" transform="translate(179.749 -6.765)"/><path d="m72.438 87.166-1.488.471c-.551.183-3.701 1.5-4.516 2.756l.91.573c.47-.728 2.586-1.794 3.818-2.294h-.01s.42-.134.844-.264c-.601 1.035-1.413 2.439-1.413 2.439-1.076 1.322-2.49 1.812-2.497 1.819l.336 1.02c.068-.02 1.734-.584 3.056-2.252.067-.08 1.97-3.424 1.97-3.424l.184-.32-.069-.542c-.29-.38-.672-.197-1.123.016" style="fill:#0068b4;fill-opacity:1;fill-rule:nonzero;stroke:none;stroke-width:.180156" transform="translate(179.749 -6.765)"/><path d="M76.482 68.787zm3.294-2.47c-.21.09-2.313 1.256-3.294 2.47l-2.843 3.364.883.616 2.773-3.292c.873-1.057 2.85-2.164 2.87-2.176-.119.054.217.04.258.03l.005.13c-.005.774-1.043 1.28-1.06 1.28-1.375.992-1.724 3.478-1.768 3.74.142 1.063.209 1.957.209 2.743 0 3.385-1.156 4.334-1.767 4.831-.127.117-.868.646-.868.646l-2.823 2.309c-1.828 1.823-1.935 4.49-1.935 5.064v.13l1.074-.053v-.04c0-.38.065-2.802 1.612-4.347l2.667-2.18.851-.595c.831-.697 2.257-1.87 2.257-5.723 0-.805-.058-1.724-.206-2.786.075-.486.459-2.245 1.238-2.822 0 .02 1.573-.732 1.573-2.105.005.046.125-.587-.311-1.006-.333-.311-.79-.386-1.397-.232M54.712 62.899l-.54.03.02.488.067.756c.03.12.04.162-.183.458l-.338.367c-.936.896-2.663 2.557-2.577 8.405.101 6.286 4.464 8.787 7.066 10.297l.795.46c2.232 1.362 3.752 4.145 3.755 4.173l.955-.513c-.062-.13-1.664-3.058-4.16-4.572l-.803-.478c-2.575-1.48-6.445-3.708-6.534-9.381v-.417c0-5.043 1.459-6.45 2.235-7.2 0 0 .244-.25.355-.374.363 1.179.82 2.572 1.447 3.422l3.532 4.04c1.476 1.63 3.164 3.486 3.4 3.922 1.051 1.9 2.11 4.167 2.11 4.93 0 .78.557 3.184 1.216 6.045l.465 2.05 1.06-.15-.467-2.147c-.456-1.903-1.2-5.081-1.2-5.798 0-1.252-1.574-4.227-2.25-5.443-.28-.512-1.528-1.909-3.543-4.131l-3.458-3.953c-.643-.887-1.191-2.74-1.512-3.85-.322-1.15-.416-1.467-.911-1.437" style="fill:#0068b4;fill-opacity:1;fill-rule:nonzero;stroke:none;stroke-width:.180156" transform="translate(179.749 -6.765)"/><path d="m72.453 67.51-.194.127-.046.216c-.469 1.762-1.32 4.472-1.755 4.977 0 .01-2.55 3.404-2.55 3.404l-.203.278c-.026.04-2.393 3.415-2.393 4.488h1.075c.025-.475 1.35-2.674 2.197-3.858l.21-.285 2.473-3.313c.718-.83 1.631-4.147 1.916-5.18.035-.01.04-.025.08-.045.315.813.455 1.488.455 2.096 0 .585-.104 1.133-.207 1.738l-.275 3.131c.003.055.003.1.003.149 0 2.818-2.443 5.888-3.385 6.845-.973.97-2.994 4.601-3.227 5.017l.96.517c.594-1.08 2.296-4.047 3.022-4.776.04-.046 3.826-3.893 3.697-7.792l.27-2.903c.225-1.35.45-2.626-.307-4.37.035-.051-.086-.45-.436-.64-.359-.201-.824-.146-1.38.178" style="fill:#0068b4;fill-opacity:1;fill-rule:nonzero;stroke:none;stroke-width:.180156" transform="translate(179.749 -6.765)"/><path d="M64.855 68.034c-.618.49-2.598 4.325-3.433 5.952l.96.477c1.257-2.476 2.767-5.225 3.1-5.546.745-.617 1.062-.739 1.446-.359.658.663 2.73 3.767 3.48 4.925l.89-.597c-.108-.154-2.745-4.212-3.6-5.086-1.149-1.135-2.332-.178-2.843.234M73.833 62.373l-1.588 1.475c-.064.016-1.436.903-1.787 1.984l1.007.332c.21-.598 1.106-1.274 1.447-1.478.052-.054.726-.668 1.183-1.1.275.463.568.944.568.944l1.143 1.634c.635 1.108.665 2.638.665 2.65h1.06c0-.072-.01-1.832-.802-3.186l-1.197-1.734-1.175-1.743-.524.222" style="fill:#0068b4;fill-opacity:1;fill-rule:nonzero;stroke:none;stroke-width:.180156" transform="translate(179.749 -6.765)"/><path d="M60.56 61.8c.03-.02-2.323 2.643-2.323 2.643-.083.123-1.682 2.606-1.348 4.964l1.067-.16c-.272-1.948 1.14-4.179 1.17-4.213-.014.02 2.211-2.496 2.211-2.496.282-.336.4-.642.536-.966.75.903 1.918 1.679 2.254 1.869 1.216.946 3.137 3.768 3.16 3.803l.894-.608c-.091-.125-2.045-3.005-3.454-4.068-1.18-.714-2.4-1.792-2.4-2.284l-1.067-.068c0 .015-.102.895-.7 1.585" style="fill:#0068b4;fill-opacity:1;fill-rule:nonzero;stroke:none;stroke-width:.180156" transform="translate(179.749 -6.765)"/><path d="M46.095 76.308c0-10.785 8.774-19.558 19.549-19.558 10.78 0 19.556 8.773 19.556 19.558 0 10.78-8.775 19.56-19.556 19.56-10.775 0-19.549-8.78-19.549-19.56zm-1.078 0c0 11.379 9.258 20.626 20.627 20.626 11.372 0 20.634-9.247 20.634-20.626 0-11.38-9.262-20.62-20.634-20.62-11.369 0-20.627 9.24-20.627 20.62" style="fill:#0068b4;fill-opacity:1;fill-rule:nonzero;stroke:none;stroke-width:.180156" transform="translate(179.749 -6.765)"/><path d="M38.81 87.497c3.254 6.101 10.7 15.345 26.106 15.971 13.016.528 20.8-5.65 25.025-10.918.629-.774 1.12-1.556 1.626-2.316-3.161 8.354-10.385 20.472-26.26 24.177-1.555-.538-21.356-7.582-26.496-26.914zm55.08-5.652c-.011.03-.125.793-.377 1.969-.683 2.06-2.31 5.551-5.387 9.045-4.036 4.568-11.304 9.898-23.151 9.437-22.082-.921-27.195-20.222-27.244-20.409l-1.176.205c2.57 25.127 28.31 33.431 28.559 33.512l.158.053.16-.026c21.71-4.993 27.825-25.134 29.248-31.586.257-.814.417-1.506.417-1.951 0-.118-.02-.229-.035-.33l-1.174.083" style="fill:#0068b4;fill-opacity:1;fill-rule:nonzero;stroke:none;stroke-width:.180156" transform="translate(179.749 -6.765)"/><path d="m51.041 105.555.005-3.364-.894-.01v-.63c.136 0 .265-.015.396-.053.126-.046.236-.102.33-.179a.88.88 0 0 0 .293-.62h.53l-.003 4.85-.658.004M55.089 104.175a.674.674 0 0 0 .186-.468.72.72 0 0 0-.186-.49c-.133-.136-.314-.203-.556-.203-.27 0-.455.067-.58.204a.727.727 0 0 0-.176.49c0 .178.06.337.177.467.124.127.308.19.579.19.242 0 .423-.063.556-.19zm.096 2.326a.779.779 0 0 0 .247-.573.777.777 0 0 0-.247-.58c-.167-.16-.383-.24-.652-.24-.28 0-.501.08-.665.24a.794.794 0 0 0-.237.58c0 .225.082.411.237.573.164.17.385.246.665.246.27 0 .486-.077.652-.246zm.765-1.238c.12.214.183.443.183.675 0 .405-.155.757-.478 1.056a1.584 1.584 0 0 1-1.122.447c-.445 0-.82-.152-1.137-.447-.321-.3-.476-.651-.476-1.056 0-.232.065-.46.179-.672.125-.221.29-.398.493-.542a1.259 1.259 0 0 1-.388-.467c-.091-.19-.14-.38-.14-.58 0-.36.142-.676.434-.944.281-.274.621-.404 1.034-.404.397 0 .74.13 1.02.404.285.268.428.584.428.943 0 .2-.046.39-.133.58-.088.19-.215.342-.389.462.207.144.37.323.491.545M58.825 106.434a1.16 1.16 0 0 0 .214-.703c0-.285-.074-.517-.214-.7a.68.68 0 0 0-.567-.268.682.682 0 0 0-.556.264c-.144.18-.215.419-.215.704 0 .28.07.513.215.71a.68.68 0 0 0 .556.282.671.671 0 0 0 .567-.289zm.367-1.984c.242.24.417.538.521.897.104.327.154.75.146 1.277-.01.521-.073.957-.19 1.313-.122.373-.306.679-.542.89-.24.225-.542.327-.901.327-.386 0-.71-.144-.973-.433-.252-.295-.41-.626-.427-.988h.622c.016.158.097.33.236.5.142.168.33.252.56.252.223 0 .398-.07.508-.214a1.58 1.58 0 0 0 .257-.471c.063-.166.095-.314.104-.45.016-.131.02-.254.02-.367a1.974 1.974 0 0 1-.418.306 1.074 1.074 0 0 1-.573.127 1.272 1.272 0 0 1-.974-.528 1.854 1.854 0 0 1-.378-1.157c0-.461.136-.859.409-1.172a1.32 1.32 0 0 1 1.039-.475c.396 0 .714.12.954.366M62.702 107.662a.654.654 0 0 0 .184-.467.706.706 0 0 0-.184-.49c-.133-.133-.32-.204-.56-.204-.263 0-.454.07-.577.204a.723.723 0 0 0-.178.49c0 .182.06.338.178.467.123.127.314.197.577.197.24 0 .427-.07.56-.197zm.095 2.333a.795.795 0 0 0 .246-.577.78.78 0 0 0-.246-.58.924.924 0 0 0-.655-.243c-.283 0-.499.087-.663.243a.812.812 0 0 0-.234.58c0 .222.08.408.234.577.164.159.38.243.663.243.273 0 .49-.084.655-.243zm.764-1.249c.125.222.183.447.183.68 0 .407-.153.76-.474 1.062a1.602 1.602 0 0 1-1.128.437c-.442 0-.825-.145-1.14-.437-.307-.303-.47-.655-.47-1.063 0-.232.062-.457.18-.675a1.78 1.78 0 0 1 .492-.539 1.21 1.21 0 0 1-.386-.467 1.277 1.277 0 0 1-.139-.57c0-.363.143-.687.428-.958.284-.27.63-.4 1.035-.4.4 0 .737.13 1.024.4.282.271.427.595.427.957 0 .19-.045.388-.135.57-.09.194-.22.345-.388.465.206.147.371.327.49.538M68.526 110.784l.01-3.357-.906-.016v-.622c.143 0 .275-.02.398-.053.132-.051.24-.102.337-.183a.769.769 0 0 0 .194-.253.794.794 0 0 0 .1-.366h.536l-.01 4.848-.661.004M72.481 107.307c.147-.193.218-.426.218-.704 0-.281-.071-.517-.218-.7a.667.667 0 0 0-.563-.264.672.672 0 0 0-.555.26c-.149.18-.216.416-.216.704 0 .285.067.525.216.708a.677.677 0 0 0 .555.285.67.67 0 0 0 .563-.289zm.376-1.988c.236.243.413.542.521.897.097.324.144.753.134 1.281 0 .528-.066.964-.18 1.309-.123.38-.31.68-.544.897-.24.218-.543.324-.902.324-.39 0-.708-.144-.967-.44a1.637 1.637 0 0 1-.44-.981h.629c.025.162.102.33.24.5.138.165.323.256.557.256.222 0 .398-.08.51-.222.114-.144.204-.302.259-.471.054-.162.09-.31.096-.444.02-.134.026-.257.026-.369a1.898 1.898 0 0 1-.416.306 1.062 1.062 0 0 1-.579.123c-.402-.015-.72-.194-.974-.517a1.875 1.875 0 0 1-.38-1.165c0-.468.139-.858.41-1.175.278-.31.628-.468 1.041-.468.397 0 .716.117.961.36M76.915 104.073c-.095.14-.23.363-.399.676a6.83 6.83 0 0 0-.456 1.087 8.39 8.39 0 0 0-.343 1.344c-.08.465-.105.834-.08 1.105l-.746.056c-.003-.218.026-.542.069-.978a5.94 5.94 0 0 1 .316-1.316c.136-.383.298-.75.467-1.122.17-.363.309-.63.415-.789l-2.166.152-.046-.687 2.909-.214.063.686M79.718 103.303a.669.669 0 0 0 .193-.468.694.694 0 0 0-.193-.49c-.127-.133-.308-.2-.556-.2-.266 0-.45.067-.576.2a.724.724 0 0 0-.179.49.7.7 0 0 0 .18.468c.125.13.309.197.575.197.248 0 .43-.067.556-.197zm.095 2.336a.812.812 0 0 0 .25-.58.78.78 0 0 0-.25-.585c-.162-.158-.384-.235-.651-.235-.283 0-.499.077-.657.235a.777.777 0 0 0-.242.585c0 .221.08.411.242.58.158.162.374.236.657.236.267 0 .49-.074.65-.236zm.77-1.256c.124.222.183.443.183.686 0 .401-.165.753-.472 1.052-.318.3-.7.447-1.132.447-.447 0-.823-.147-1.133-.447-.317-.299-.478-.65-.478-1.052 0-.243.064-.461.186-.686.118-.207.282-.387.487-.528a1.282 1.282 0 0 1-.383-.475 1.23 1.23 0 0 1-.142-.573c0-.366.142-.676.426-.954.282-.267.623-.4 1.037-.4.398 0 .742.133 1.02.4.286.278.43.588.43.954 0 .197-.042.383-.135.573-.09.19-.221.349-.387.468.205.144.368.324.493.535" style="fill:#0068b4;fill-opacity:1;fill-rule:nonzero;stroke:none;stroke-width:.180156" transform="translate(179.749 -6.765)"/></g><path d="M57.248 44.763h-.854v6.471h-1.941V39.287h1.94v3.69h.855v-3.69h1.992v11.947h-1.992zm-7.75 2.226h2.147l.015-3.209h-2.147zm4.075.577c0 .403-.077.683-.233.843-.146.14-.406.21-.776.21h-3.985c-.333 0-.577-.07-.734-.21-.164-.17-.248-.45-.248-.843v-8.292h1.915v2.824h2.147v-2.824h1.914v8.292M74.195 41.962c-.33.3-.497.67-.497 1.12 0 .446.167.82.497 1.117.335.307.735.46 1.205.46.46 0 .852-.153 1.174-.46a1.42 1.42 0 0 0 .513-1.118c0-.448-.17-.82-.513-1.119-.322-.288-.714-.43-1.174-.43-.479 0-.881.141-1.205.43zm4.517-.536h-.222c.215.239.383.496.503.765.125.288.19.584.19.892 0 .955-.39 1.75-1.174 2.38-.735.602-1.607.905-2.616.905-1.01 0-1.88-.303-2.616-.905-.784-.63-1.175-1.425-1.175-2.38 0-.297.058-.59.175-.878.098-.251.25-.51.454-.779h-.908v-1.682h2.97v-1.09h2.2v1.09h2.984v1.682zm2.412 6.416v-8.566h2.071v3.34h1.663v1.759h-1.663v6.861h-2.07v-1.635H71.122v-1.759h3.222V45.55h2.07v2.292h4.71" style="fill:#0068b4;fill-opacity:1;fill-rule:nonzero;stroke:none;stroke-width:.180156" transform="translate(179.749 -6.765)"/></g></g></g></svg>