<svg xmlns="http://www.w3.org/2000/svg" xml:space="preserve" width="481.142" height="481.146" viewBox="0 0 481.142 481.14598"><defs><linearGradient id="a" x1="277.77686" x2="349.79855" y1="504.89746" y2="435.75784" gradientUnits="userSpaceOnUse" spreadMethod="pad"><stop offset="0" style="stop-opacity:1;stop-color:#5495d6"/><stop offset="0.55617" style="stop-opacity:1;stop-color:#2c53ac"/><stop offset="1" style="stop-opacity:1;stop-color:#2d4089"/></linearGradient><linearGradient id="b" x1="345.87988" x2="249.42368" y1="422.82861" y2="402.37216" gradientUnits="userSpaceOnUse" spreadMethod="pad"><stop offset="0" style="stop-opacity:1;stop-color:#5495d6"/><stop offset="0.55617" style="stop-opacity:1;stop-color:#2c53ac"/><stop offset="1" style="stop-opacity:1;stop-color:#2d4089"/></linearGradient><linearGradient id="c" x1="245.82227" x2="270.26007" y1="410.1875" y2="499.78265" gradientUnits="userSpaceOnUse" spreadMethod="pad"><stop offset="0" style="stop-opacity:1;stop-color:#5495d6"/><stop offset="0.55617" style="stop-opacity:1;stop-color:#2c53ac"/><stop offset="1" style="stop-opacity:1;stop-color:#2d4089"/></linearGradient></defs><path d="M349.186 446.11c0-32.392-26.256-58.647-58.647-58.647-32.388 0-58.646 26.255-58.646 58.646 0 32.391 26.258 58.648 58.646 58.648 32.39 0 58.647-26.257 58.647-58.648z" style="fill:#fff;fill-opacity:1;fill-rule:nonzero;stroke:none" transform="matrix(4.10205 0 0 -4.10205 -951.236 2070.54)"/><path d="M289.084 483.736a193.41 193.41 0 0 0 17.191-20.484 195.31 195.31 0 0 0 9.309-14.084 194.67 194.67 0 0 0 11.872-23.224 201.14 201.14 0 0 1 16.887 4.132 56.209 56.209 0 0 1 2.327 16.033c0 31.006-25.129 56.138-56.13 56.138a56.099 56.099 0 0 1-18.216-3.028c6.107-5.032 11.695-10.213 16.76-15.483z" style="fill:url(#a);fill-opacity:1;fill-rule:nonzero;stroke:none" transform="matrix(4.10205 0 0 -4.10205 -951.236 2070.54)"/><path d="M303.996 422.725a194.137 194.137 0 0 0-27.747-.124 192.542 192.542 0 0 0-22.798 2.948 210.075 210.075 0 0 1-5.565-15.925c10.294-12.025 25.58-19.648 42.653-19.648 25.43 0 46.904 16.914 53.804 40.1a201.14 201.14 0 0 0-16.887-4.132 196.61 196.61 0 0 0-23.46-3.22z" style="fill:url(#b);fill-opacity:1;fill-rule:nonzero;stroke:none" transform="matrix(4.10205 0 0 -4.10205 -951.236 2070.54)"/><path d="M234.404 446.11c0-13.93 5.08-26.675 13.482-36.486a210.075 210.075 0 0 0 5.565 15.925 200.642 200.642 0 0 0 10.91 23.177 196.866 196.866 0 0 0 8.515 14.01 191.515 191.515 0 0 0 16.208 21c-5.065 5.27-10.653 10.45-16.76 15.483-22.062-7.568-37.92-28.482-37.92-53.11z" style="fill:url(#c);fill-opacity:1;fill-rule:nonzero;stroke:none" transform="matrix(4.10205 0 0 -4.10205 -951.236 2070.54)"/><path d="M284.357 443.91c1.783.843 2.686 2.28 2.686 4.535 0 5.094-3.577 5.52-7.24 5.52l-10.621.008-.003-.333-.008-.33v-1.418h.67c1.47 0 1.743-.206 1.78-.248.104-.094.104-.586.104-1.019v-14.792c0-.496 0-.97-.103-1.074-.038-.035-.318-.238-1.781-.238h-.67v-2.078h9.92c1.654.06 4.131.149 5.645.95 2.52 1.3 2.857 3.457 2.857 5.393 0 2.635-1.07 4.318-3.236 5.123m-7.772-9.21c-.015 0-.567.03-.912.043v7.892h3.724c3.045 0 3.927-.849 3.927-3.785 0-2.302-.528-3.463-1.712-3.764-1.372-.387-3.618-.387-5.027-.387m-.912 16.966.141.007 3.301.11c2.956-.004 3.686-.707 3.686-3.569 0-2.344-.876-3.385-2.825-3.385h-4.303v6.837zM310.578 453.973l-.328-.007-7.374.007v-2.081h.667c2.138 0 2.222-.051 2.222-1.313v-10.67c0-4.004-1.585-5.565-5.643-5.565-1.749 0-2.637.39-3.417 1.175-.79.802-1.166 2.087-1.142 3.941v11.12c0 .473 0 .966.098 1.056.044.05.326.256 1.785.256h.663v2.08h-8.894v-2.08h.664c1.379 0 1.632-.233 1.64-.242.095-.096.095-.546.095-.984V439.39c0-4.697 2.854-7.174 7.606-7.174 6.54 0 9.333 2.377 9.333 7.97v10.393c0 .488 0 .957.106 1.065.066.068.49.248 1.6.248h.67v2.085l-.35-.004z" style="fill:#2350a9;fill-opacity:1;fill-rule:nonzero;stroke:none" transform="matrix(4.10205 0 0 -4.10205 -951.236 2070.54)"/></svg>