<svg xmlns="http://www.w3.org/2000/svg" width="176.8302mm" height="176.8302mm" viewBox="0 0 176.8302 176.8302"><defs><linearGradient id="a" x1="0" x2="1" y1="0" y2="0" gradientTransform="scale(134.6168 -134.6168) rotate(43.83 6.007 1.808)" gradientUnits="userSpaceOnUse" spreadMethod="pad"><stop offset="0" style="stop-opacity:1;stop-color:#4496d1"/><stop offset="0.55618" style="stop-opacity:1;stop-color:#1158a8"/><stop offset="1" style="stop-opacity:1;stop-color:#28468b"/></linearGradient><linearGradient id="b" x1="0" x2="1" y1="0" y2="0" gradientTransform="scale(-132.94927 132.94927) rotate(-11.974 11.856 18.853)" gradientUnits="userSpaceOnUse" spreadMethod="pad"><stop offset="0" style="stop-opacity:1;stop-color:#4496d1"/><stop offset="0.55618" style="stop-opacity:1;stop-color:#1158a8"/><stop offset="1" style="stop-opacity:1;stop-color:#28468b"/></linearGradient><linearGradient id="c" x1="0" x2="1" y1="0" y2="0" gradientTransform="scale(125.2166 -125.2166) rotate(-74.743 -.505 -3.29)" gradientUnits="userSpaceOnUse" spreadMethod="pad"><stop offset="0" style="stop-opacity:1;stop-color:#4496d1"/><stop offset="0.55618" style="stop-opacity:1;stop-color:#1158a8"/><stop offset="1" style="stop-opacity:1;stop-color:#28468b"/></linearGradient></defs><g transform="translate(-20.018 -74.094)"><circle cx="108.43311" cy="162.50945" r="88.4151" style="fill:#f9f9f9;stroke:#fff;stroke-width:0"/><path d="M386.512 484.575c8.232-6.788 15.768-13.772 22.599-20.875a261.044 261.044 0 0 0 23.182-27.627c4.62-6.37 8.78-12.713 12.549-18.987a262.018 262.018 0 0 0 16.006-31.314 274.092 274.092 0 0 1 22.772 5.572 75.847 75.847 0 0 1 3.134 21.616c0 41.81-33.885 75.702-75.683 75.702a75.802 75.802 0 0 1-24.559-4.087" style="fill:url(#a);stroke:none" transform="matrix(1.13012 0 0 -1.13012 -355.899 628.901)"/><path d="M460.848 385.772a266.008 266.008 0 0 0-31.633-4.339 261.387 261.387 0 0 0-37.411-.17 260.249 260.249 0 0 0-30.738 3.976 285.88 285.88 0 0 1-7.506-21.467c13.88-16.217 34.495-26.497 57.511-26.497 34.289 0 63.243 22.805 72.549 54.069a274.092 274.092 0 0 0-22.772-5.572" style="fill:url(#b);stroke:none" transform="matrix(1.13012 0 0 -1.13012 -355.899 628.901)"/><path d="M335.381 412.96c0-18.78 6.851-35.968 18.179-49.188a285.88 285.88 0 0 0 7.506 21.467 269.209 269.209 0 0 0 14.713 31.248 263.846 263.846 0 0 0 11.478 18.892 257.898 257.898 0 0 0 21.854 28.321c-6.831 7.103-14.367 14.087-22.599 20.875-29.744-10.204-51.131-38.402-51.131-71.615" style="fill:url(#c);stroke:none" transform="matrix(1.13012 0 0 -1.13012 -355.899 628.901)"/><path d="M0 0c.407 1.102 1.761 4.724 2.398 6.443C3.023 4.659 4.417.702 4.662 0Zm10.856-6.781L4.532 11.505H1.88L-4.524-5.687l-.223-.564c-.295-.756-.902-2.326-1.155-2.671-.438-.583-.71-.602-1.386-.668l-.966-.103.015-.534v-1.757l3.987.076 3.952-.076.008.598v1.742h-.591c-.549 0-1.374 0-1.684.346-.066.065-.15.195-.15.495l.241 1.236S-1.197-3.63-.802-2.398h6.266L7.226-7.41l.119-.334.311-1.228-.081-.195c-.323-.354-1.312-.48-1.915-.477l-.541.016-.004-2.356 4.574.076 4.513-.076.004.598v1.723l-.576-.045c-1.542-.131-2.244 1.342-2.774 2.927" style="fill:#0054a6;fill-opacity:1;fill-rule:nonzero;stroke:none" transform="matrix(1.13012 0 0 -1.13012 103.878 167.32)"/><path d="M0 0c-1.405-.43-2.579-.43-4.076-.43 0 0-.587.031-1.036.066v8.622h2.848c3.162 0 4.075-.951 4.075-4.217C1.811 1.566 1.27.365 0 0m-5.112 18.128c.108.008.254.012.254.012l2.306.107c2.974 0 3.837-.495 3.837-3.826 0-2.636-.886-3.764-2.966-3.764h-3.431ZM5.821 3.976c0 2.985-1.086 4.781-3.277 5.633 1.853.875 2.725 2.487 2.725 5.069 0 5.515-3.519 5.975-7.126 5.975l-5.101-.065-4.639.073-.007-.599v-1.685h.533c.503 0 1.838 0 2.13-.314.134-.157.134-.629.134-1.235V.982c0-.656 0-1.139-.134-1.296-.292-.311-1.627-.311-2.13-.311h-.533v-2.28l4.654.073 4.383-.065c1.688.073 4.129.176 5.602 1.036C5.483-.464 5.821 1.762 5.821 3.976" style="fill:#0054a6;fill-opacity:1;fill-rule:nonzero;stroke:none" transform="matrix(1.13012 0 0 -1.13012 87.685 177.577)"/><path d="m0 0-.311-.003L-7.138 0v-2.245h.618c1.976 0 2.057-.057 2.057-1.416v-11.524c0-4.328-1.466-6.013-5.226-6.013-1.62 0-2.433.422-3.163 1.266-.733.868-1.082 2.261-1.055 4.264v12.007c0 .515 0 1.04.093 1.144.034.054.294.272 1.645.272h.618V0h-8.239v-2.245h.614c1.282 0 1.516-.253 1.52-.257.085-.107.085-.595.085-1.063v-12.187c0-5.062 2.651-7.745 7.049-7.745 6.051 0 8.641 2.564 8.641 8.612v11.224c0 .526 0 1.033.097 1.152.061.072.448.264 1.484.264h.618V.008z" style="fill:#0054a6;fill-opacity:1;fill-rule:nonzero;stroke:none" transform="matrix(1.13012 0 0 -1.13012 141.14 154.466)"/></g></svg>