<svg xmlns="http://www.w3.org/2000/svg" width="306.90469mm" height="306.90469mm" viewBox="0 0 306.90469 306.90469"><defs><clipPath id="a"><path d="M0 0h186v185.762H0Zm0 0"/></clipPath></defs><g transform="translate(61.23 41.105)"><circle cx="92.222832" cy="112.34753" r="153.45235" style="fill:#fff;stroke-width:.264583"/><g style="stroke-width:.2172"><path d="m16.281 100.883-.058-.7c-.043-.558-.157-.937-.356-1.132l-.773-.29-.715.34c-.2.208-.277.575-.234 1.11l.05.824zm-3.75 3.144-.351-4.73c-.075-1.035.113-1.82.57-2.375.465-.555 1.148-.852 2.055-.918.941-.07 1.699.156 2.25.672.578.523.906 1.367.984 2.508l.11 1.562 3.449-.234.199 2.86-9.266.655M17.91 90.086l-3.383.863 3.297 1.164zm2.043-.52-.156 3.23 1.535.532-.137 2.918-9.14-3.875.144-3.117 9.446-3.063-.141 2.985-1.55.39M12.664 83.773l1.363-7.527 1.946.352-.852 4.707 1.465.27.793-4.372 1.855.34-.793 4.355 1.805.332.879-4.84 2.078.368-1.375 7.668-9.164-1.653M14.707 73.41l.898-2.715 3.336 1.102-2.398-3.95 1.195-3.597 2.25 4.285 6.625-1.508-1.105 3.34-4.235.649 1.004 1.89 2.16.707-.906 2.715-8.824-2.918M26.172 59.457l1.793-1.91c.558.46.969.957 1.238 1.488.262.531.383 1.106.36 1.688-.016.586-.211 1.257-.583 1.996-.437.89-.937 1.566-1.492 2-.531.445-1.238.71-2.105.804-.867.075-1.82-.132-2.848-.648-1.383-.68-2.262-1.563-2.64-2.66-.383-1.094-.247-2.305.414-3.64.515-1.036 1.144-1.763 1.855-2.141.715-.399 1.594-.512 2.606-.375l-.618 2.515-.668-.031-.714.305-.504.609c-.286.586-.266 1.148.043 1.691.234.403.722.801 1.468 1.157.926.453 1.621.625 2.098.515.48-.101.844-.41 1.102-.91.238-.488.277-.933.128-1.32l-.933-1.133M23.758 52.438l1.629-2.36 2.68 1.86 1.769-2.567-2.688-1.851 1.649-2.364 7.648 5.278-1.632 2.37-3.094-2.14-1.778 2.563 3.09 2.136-1.625 2.36-7.648-5.285M30.82 42.695l5.176-5.629 1.45 1.356-3.243 3.516 1.102 1.007 3-3.258 1.398 1.286L36.7 44.23l1.348 1.243 3.332-3.618 1.555 1.418-5.278 5.739-6.836-6.317M36.2 137.992l-1 1.125-2-1.754.995-1.117zm-.817 3.438 4.199-4.746-1.234-1.102-1.086 1.207-1.98-1.758 1.07-1.207-1.262-1.12-4.2 4.75 4.493 3.976M42.969 139.66l-1.582 1.809-1.051-.942 1.586-1.785-1.246-1.094-4.742 5.34 1.246 1.094 2.086-2.344 1.047.918-2.09 2.38 1.257 1.093 4.73-5.336-1.241-1.133M38.875 146.805l-8.574-7.598-1.063 1.211 7.317 6.496-2.192 2.477 1.258 1.113 3.254-3.7M55.082 152.594l-1.629-.797-.707 1.465 1.625.773-3.473 7.235 1.497.738 5.554-11.582-1.48-.73-1.387 2.898M58.867 150.89l-5.547 11.567 1.492.715 5.57-11.578-1.515-.703" style="fill:#211e1e;fill-opacity:1;fill-rule:nonzero;stroke:none;stroke-width:.2172" transform="matrix(1.6242 0 0 1.6242 -58.753 -38.67)"/><path d="m54.414 150.531.703-1.46-6.215-2.973-.691 1.449 2.258 1.074-5.332 4.813 1.008 1.246 4.199-3.723-.285 5.625h1.64l.403-7.156 2.312 1.105M108.375 166.922l5.844-1.723-.457-1.594-4.242 1.262-1.36-4.625 4.246-1.25-.46-1.543-5.84 1.723 2.269 7.75M116.094 156.254l.965 3.3-1.215.356-.98-3.312-1.59.472 3.617 12.317 1.597-.473-2.187-7.445 1.215-.364 2.183 7.457 1.602-.472-3.613-12.317-1.594.48M73.227 159.207l-2-.3-.239 1.593 1.989.305-.352 2.41-2-.293-.234 1.582 1.992.316-.785 5.317 1.632.246 1.903-12.696-1.64-.257-.266 1.777M76.137 157.84l-1.895 12.707 1.649.223 1.898-12.696-1.652-.234" style="fill:#211e1e;fill-opacity:1;fill-rule:nonzero;stroke:none;stroke-width:.2172" transform="matrix(1.6242 0 0 1.6242 -58.753 -38.67)"/><path d="M67.266 162.816a1.61 1.61 0 0 1-1.36-1.836c.125-.886.95-1.492 1.848-1.37.879.144 1.492.949 1.351 1.835-.144.895-.96 1.516-1.84 1.371zm.734-4.933a3.364 3.364 0 0 0-3.828 2.84 3.376 3.376 0 0 0 2.84 3.836 3.357 3.357 0 0 0 3.808-2.844c.297-1.82-.98-3.567-2.82-3.832M137.86 151.07l-8.005 7.258 1.083 1.195 6.761-6.152 2.348 2.586 1.238-1.137-3.426-3.75M134.152 146.973l-1.593-1.758-1.235 1.137 4.79 5.293 1.245-1.149-2.113-2.34 1.18-1.062-1.078-1.215-1.196 1.094M130.719 154.242a1.262 1.262 0 0 1-1.774-.094 1.266 1.266 0 0 1 .078-1.78 1.26 1.26 0 0 1 1.782.085 1.26 1.26 0 0 1-.086 1.79zm-2.938.95c1.047 1.152 2.836 1.245 3.985.203a2.834 2.834 0 0 0 .214-3.985 2.756 2.756 0 0 0-2.003-.922l1.64-1.48-1.05-1.164-2.422 2.203-.688-.746-1.234 1.125.672.738-2.594 2.367 1.062 1.149 1.688-1.547c-.04.726.203 1.484.73 2.058M97.883 162.969l-5.606-3.313h-.004l-5.64 3.356.937 1.254 4.72-2.696 4.698 2.72.895-1.321M90.176 167.508H86.73l.012 1.347 9.45-.023-.024.77-9.414.011v3.512l11.113-.043-.02-1.316-9.538.03.003-.847 9.536-.02-.024-3.433-3.875-.008-3.773.02M98.793 166.195l-.004-1.441-13.016.055.02 1.418 5.668-.02.004.914 1.66-.015.004-.907 5.664-.004" style="fill:#211e1e;fill-opacity:1;fill-rule:nonzero;stroke:none;stroke-width:.2172" transform="matrix(1.6242 0 0 1.6242 -58.753 -38.67)"/><path d="M80.316 70.238c-4.285-4.093-8.695-8.308-8.804-17.515-.028-1.856.125-3.926.504-6.239 1.476-9.379 6.039-13.101 11.488-16.738-1.649 3.711-2.344 7.07-2.3 10.098.081 6.324 3.046 11.32 5.593 15.64 1.406 2.371 2.734 4.621 3.34 6.707.5 1.727.703 3.211.715 4.551.043 3.227-1.055 5.48-2.118 7.73-.68 1.446-1.363 2.934-1.746 4.633-1.312-3.69-3.933-6.234-6.672-8.867" style="fill:#faae33;fill-opacity:1;fill-rule:nonzero;stroke:none;stroke-width:.2172" transform="matrix(1.6242 0 0 1.6242 -58.753 -38.67)"/><path d="M98.781 79.105c-.398-1.699-1.07-3.187-1.754-4.632-1.066-2.25-2.156-4.504-2.12-7.73.023-1.34.238-2.825.726-4.552.594-2.086 1.922-4.336 3.332-6.707 2.543-4.32 5.52-9.316 5.597-15.64.024-3.028-.652-6.387-2.296-10.098 5.457 3.637 10.007 7.36 11.496 16.738.367 2.313.511 4.383.48 6.239-.098 9.207-4.508 13.422-8.77 17.515-2.757 2.633-5.374 5.176-6.69 8.867" style="fill:#575759;fill-opacity:1;fill-rule:nonzero;stroke:none;stroke-width:.2172" transform="matrix(1.6242 0 0 1.6242 -58.753 -38.67)"/><path d="M69.164 96.621c-5.23 2.8-10.598 5.68-19.375 2.95-1.789-.54-3.71-1.337-5.805-2.4-8.453-4.288-10.586-9.788-12.367-16.105 3.028 2.707 6.012 4.41 8.914 5.293 6.028 1.887 11.7.625 16.59-.488 2.695-.605 5.242-1.168 7.426-1.098 1.781.075 3.273.332 4.543.715 3.062.965 4.89 2.707 6.695 4.418 1.156 1.094 2.363 2.207 3.856 3.086-3.907.145-7.133 1.817-10.477 3.63" style="fill:#faae33;fill-opacity:1;fill-rule:nonzero;stroke:none;stroke-width:.2172" transform="matrix(1.6242 0 0 1.6242 -58.753 -38.67)"/><path d="M83.277 81.785c-1.738-.156-3.351.028-4.933.23-2.461.317-4.969.669-8.008-.37-1.258-.422-2.617-1.086-4.094-2.09-1.808-1.215-3.535-3.172-5.351-5.243-3.313-3.761-7.164-8.128-13.145-10.148-2.883-.98-6.285-1.36-10.316-.945 5.144-4.063 10.086-7.27 19.46-5.77 2.313.38 4.344.875 6.102 1.485 8.719 2.945 11.363 8.418 13.942 13.75 1.644 3.449 3.254 6.707 6.343 9.101" style="fill:#575759;fill-opacity:1;fill-rule:nonzero;stroke:none;stroke-width:.2172" transform="matrix(1.6242 0 0 1.6242 -58.753 -38.67)"/><path d="M90.793 115.371c1.059 5.817 2.14 11.824-3.168 19.344-1.07 1.515-2.414 3.11-4.082 4.754-6.715 6.734-12.59 7.05-19.133 6.797 3.508-2.059 6.043-4.364 7.79-6.825 3.648-5.164 4.19-10.949 4.66-15.945.265-2.762.507-5.348 1.253-7.379.614-1.707 1.325-3.035 2.09-4.105 1.848-2.64 4.067-3.832 6.254-5 1.395-.774 2.828-1.586 4.133-2.727-1.09 3.754-.477 7.324.203 11.086" style="fill:#faae33;fill-opacity:1;fill-rule:nonzero;stroke:none;stroke-width:.2172" transform="matrix(1.6242 0 0 1.6242 -58.753 -38.67)"/><path d="M81.05 97.355c-.675 1.594-1.007 3.2-1.296 4.774-.445 2.441-.91 4.933-2.832 7.48-.797 1.07-1.848 2.168-3.25 3.262-1.723 1.348-4.11 2.367-6.64 3.469-4.622 2.004-9.938 4.305-13.712 9.375-1.82 2.433-3.246 5.547-4.09 9.515-2.273-6.156-3.773-11.867.54-20.289 1.054-2.105 2.156-3.863 3.27-5.363 5.507-7.348 11.542-8.176 17.398-8.996 3.785-.512 7.394-1.027 10.613-3.227" style="fill:#575759;fill-opacity:1;fill-rule:nonzero;stroke:none;stroke-width:.2172" transform="matrix(1.6242 0 0 1.6242 -58.753 -38.67)"/><path d="M115.332 100.582c5.863.797 11.898 1.625 17.398 8.996 1.102 1.5 2.204 3.258 3.274 5.344 4.316 8.441 2.805 14.152.535 20.308-.836-3.98-2.277-7.082-4.082-9.515-3.773-5.07-9.11-7.371-13.715-9.375-2.539-1.102-4.93-2.121-6.64-3.469-1.415-1.094-2.454-2.191-3.27-3.262-1.906-2.546-2.375-5.039-2.82-7.48-.293-1.574-.621-3.18-1.305-4.774 3.23 2.2 6.836 2.715 10.625 3.227" style="fill:#faae33;fill-opacity:1;fill-rule:nonzero;stroke:none;stroke-width:.2172" transform="matrix(1.6242 0 0 1.6242 -58.753 -38.67)"/><path d="M95.168 104.285c1.312 1.14 2.742 1.953 4.133 2.727 2.187 1.168 4.41 2.36 6.265 5 .778 1.07 1.489 2.398 2.075 4.086.75 2.05.992 4.636 1.265 7.398.461 4.996 1.004 10.781 4.653 15.945 1.761 2.461 4.285 4.766 7.796 6.825-6.55.254-12.418-.063-19.132-6.797-1.664-1.645-3.004-3.239-4.075-4.754-5.32-7.52-4.234-13.527-3.175-19.344.672-3.762 1.293-7.348.195-11.086" style="fill:#575759;fill-opacity:1;fill-rule:nonzero;stroke:none;stroke-width:.2172" transform="matrix(1.6242 0 0 1.6242 -58.753 -38.67)"/><path d="M108.832 72.684c2.578-5.332 5.23-10.805 13.934-13.77 1.785-.59 3.796-1.086 6.109-1.465 9.363-1.5 14.313 1.707 19.473 5.77-4.051-.422-7.453-.035-10.336.945-5.973 2.02-9.82 6.387-13.14 10.148-1.813 2.07-3.544 4.028-5.356 5.231-1.473 1.016-2.832 1.68-4.086 2.102-3.035 1.039-5.547.687-8.004.37-1.59-.203-3.203-.386-4.938-.23 3.078-2.394 4.692-5.652 6.344-9.101" style="fill:#faae33;fill-opacity:1;fill-rule:nonzero;stroke:none;stroke-width:.2172" transform="matrix(1.6242 0 0 1.6242 -58.753 -38.67)"/><path d="M106.121 92.992c1.492-.879 2.711-1.992 3.871-3.086 1.793-1.71 3.621-3.453 6.692-4.418 1.261-.386 2.761-.64 4.543-.715 2.171-.07 4.726.493 7.414 1.098 4.886 1.113 10.566 2.375 16.597.488 2.89-.882 5.887-2.593 8.91-5.293-1.777 6.317-3.914 11.817-12.363 16.106-2.098 1.062-4.015 1.86-5.8 2.398-8.79 2.73-14.16-.148-19.372-2.949-3.363-1.812-6.582-3.504-10.492-3.629" style="fill:#575759;fill-opacity:1;fill-rule:nonzero;stroke:none;stroke-width:.2172" transform="matrix(1.6242 0 0 1.6242 -58.753 -38.67)"/><path d="M6.117 92.883c0-47.836 38.93-86.774 86.766-86.774 47.847 0 86.765 38.938 86.765 86.774 0 47.832-38.918 86.77-86.765 86.77-47.836 0-86.766-38.938-86.766-86.77zm-2.07 0c0 48.969 39.855 88.832 88.836 88.832 48.992 0 88.828-39.863 88.828-88.832 0-48.988-39.836-88.84-88.828-88.84-48.98 0-88.836 39.852-88.836 88.84" style="fill:#faae33;fill-opacity:1;fill-rule:nonzero;stroke:none;stroke-width:.2172" transform="matrix(1.6242 0 0 1.6242 -58.753 -38.67)"/><g clip-path="url(#a)" style="stroke-width:.0811695" transform="matrix(1.6242 0 0 1.6242 -58.753 -38.67)"><path d="M1.379 92.883c0-50.45 41.043-91.504 91.504-91.504 50.449 0 91.496 41.055 91.496 91.504 0 50.449-41.047 91.508-91.496 91.508-50.461 0-91.504-41.059-91.504-91.508zm-1.379 0c0 51.203 41.66 92.879 92.883 92.879 51.21 0 92.887-41.676 92.887-92.88 0-51.241-41.676-92.886-92.887-92.886C41.66-.004 0 41.641 0 92.883" style="fill:#211e1e;fill-opacity:1;fill-rule:nonzero;stroke:none;stroke-width:.2172"/></g><path d="m42.457 30.86 2.227-1.762 5.707 7.28-2.235 1.747-5.699-7.266M47.11 27.191l2.269-1.398 5.644 2.523-2.699-4.343 2.262-1.407 4.871 7.864-2.262 1.402-5.61-2.516 2.677 4.332-2.278 1.414-4.875-7.87M59.523 26.957l2.407-1.234.726.773c.418.227.88.227 1.364.02l.742-.633.039-.746-.543-.457c-.274-.094-.785-.063-1.551.078-1.258.246-2.219.265-2.89.043-.676-.203-1.157-.645-1.45-1.309a2.559 2.559 0 0 1-.168-1.398c.094-.496.328-.961.735-1.403.402-.445 1.054-.847 1.93-1.234 1.066-.473 1.976-.633 2.722-.473.734.157 1.351.645 1.836 1.473l-2.39 1.211-.766-.652-.98.117-.595.508-.02.562.345.281c.18.055.515.032 1-.062 1.254-.258 2.183-.371 2.785-.328a2.897 2.897 0 0 1 1.476.457l.883 1.117c.246.539.309 1.11.211 1.695a2.911 2.911 0 0 1-.793 1.586c-.43.477-1.05.895-1.863 1.235-1.438.632-2.547.785-3.34.468-.793-.304-1.418-.87-1.852-1.695M66.613 17.242l8.285-2.375.645 2.192-2.785.8 1.926 6.696-2.735.773-1.914-6.691-2.793.797-.629-2.192M77.27 14.465l2.793-.508 1.636 9.098-2.785.5-1.644-9.09M82.418 13.496l8.605-.652.176 2.277-2.883.234.532 6.942-2.836.215-.528-6.942-2.89.215-.176-2.289M99.344 13.18l2.824.172-.344 5.496a4.447 4.447 0 0 1-.332 1.53c-.199.481-.484.888-.87 1.231l-1.188.688c-.57.172-1.227.234-2.004.191-.45-.027-.926-.101-1.453-.183-.524-.09-.957-.246-1.305-.457L93.746 21l-.535-1.105c-.148-.594-.203-1.122-.176-1.575l.34-5.5 2.824.176-.351 5.629c-.028.504.093.902.351 1.21.262.298.64.458 1.137.481.492.036.887-.086 1.191-.332.285-.27.453-.664.485-1.168l.332-5.636M104.54 13.68l8.468 1.699-.461 2.246-2.832-.57-1.383 6.816-2.785-.562 1.379-6.829-2.82-.57.433-2.23M115.324 16.055l7.196 2.453-.645 1.87-4.504-1.546-.484 1.398 4.172 1.438-.602 1.766-4.176-1.422-.594 1.715 4.637 1.593-.676 1.985-7.328-2.504 3.004-8.746M129.367 26.988c-.48.801-.664 1.461-.574 1.989.082.523.39.933.902 1.242.52.316 1.02.375 1.524.203.488-.176.988-.703 1.52-1.606.44-.753.605-1.378.511-1.89-.102-.524-.402-.93-.918-1.238a1.729 1.729 0 0 0-1.492-.184c-.512.184-.996.676-1.473 1.484zm-2.441-1.453c.765-1.3 1.715-2.101 2.87-2.402 1.145-.293 2.36-.078 3.65.687 1.308.778 2.113 1.735 2.41 2.86.285 1.132.05 2.332-.692 3.605-.539.942-1.152 1.61-1.812 2.024a3.925 3.925 0 0 1-2.165.593c-.789-.011-1.617-.273-2.496-.793-.886-.535-1.546-1.105-1.96-1.726-.419-.637-.626-1.371-.626-2.211 0-.836.274-1.711.82-2.637M139.719 28.02l5.5 4.34-1.215 1.554-3.274-2.562-1 1.253 2.79 2.211-1.165 1.457-2.77-2.195-2.35 2.977-2.25-1.77 5.734-7.265M150.246 37.063l5.68 6.492-1.727 1.5-1.894-2.176-5.239 4.586-1.875-2.156 5.239-4.555-1.903-2.191 1.72-1.5M157.512 45.648l1.543 2.38-2.711 1.777 1.687 2.574 2.711-1.766 1.567 2.399-7.743 5.05-1.562-2.386 3.129-2.059-1.7-2.582-3.124 2.031-1.543-2.379 7.746-5.039M163.836 55.863l3.207 6.89-1.785.84-2.016-4.323-1.336.625 1.86 3.992-1.703.8-1.864-4.007-1.644.777 2.062 4.434-1.91.879-3.262-7.008 8.39-3.899M165.266 76.406l3.004-1.754-3.473-.195zm-1.809 1.063-.746-3.13-1.594-.085-.68-2.836 9.797 1.2.727 3.01-8.188 5.528-.699-2.89 1.383-.797M168.61 84.54l.124 1.187.192.726.332.438.547.129.664-.344c.14-.2.195-.559.14-1.07l-.12-1.239zm-5.731-2.33 9.2-.858.448 4.703c.078.879.067 1.558-.047 2.03a2.12 2.12 0 0 1-.722 1.196c-.39.328-.875.512-1.457.567a2.747 2.747 0 0 1-1.356-.207l-.98-.801-.469-.965-.266.758-.441.5-.531.457-2.543 1.61-.297-3.192 2.672-1.77.668-.558.144-.73-.03-.247-3.727.36-.266-2.852M172.914 91.488l-.316 8.63-2.282-.095.102-2.882-6.961-.254.11-2.844 6.964.254.094-2.887 2.289.078M166.3 100.957l-.273 2.707-1.054.176c-.407.23-.66.617-.758 1.137l.137.972.597.43.692-.203c.226-.176.476-.625.761-1.34.485-1.172.996-1.992 1.547-2.441.547-.461 1.176-.622 1.89-.512l1.255.633c.383.34.633.796.781 1.382.148.594.148 1.344-.016 2.293-.187 1.16-.55 1.997-1.086 2.536-.539.53-1.289.777-2.246.738l.278-2.668.968-.293.454-.883-.094-.766-.461-.335-.438.144c-.14.11-.296.406-.492.875-.468 1.188-.879 2.016-1.246 2.5-.347.477-.754.813-1.195.988-.434.172-.91.223-1.41.133a2.892 2.892 0 0 1-1.532-.738 3.14 3.14 0 0 1-.902-1.531c-.156-.633-.164-1.383-.02-2.25.25-1.543.731-2.551 1.438-3.059.688-.484 1.504-.691 2.426-.625" style="fill:#211e1e;fill-opacity:1;fill-rule:nonzero;stroke:none;stroke-width:.2172" transform="matrix(1.6242 0 0 1.6242 -58.753 -38.67)"/><path d="M14.98 121.441a2.768 2.768 0 1 1 5.535 0 2.77 2.77 0 0 1-2.773 2.762 2.767 2.767 0 0 1-2.762-2.762zm-1.132 0c0 2.145 1.746 3.907 3.894 3.907a3.915 3.915 0 0 0 3.906-3.907c0-2.16-1.75-3.91-3.906-3.91a3.904 3.904 0 0 0-3.894 3.91M159.055 126.797a3.622 3.622 0 0 1 3.617-3.629 3.624 3.624 0 0 1 0 7.246 3.624 3.624 0 0 1-3.617-3.617zm-1.489 0c0 2.808 2.282 5.113 5.106 5.113 2.82 0 5.121-2.305 5.121-5.113 0-2.828-2.3-5.121-5.121-5.121a5.11 5.11 0 0 0-5.106 5.12" style="fill:#3f3f3f;fill-opacity:1;fill-rule:nonzero;stroke:none;stroke-width:.2172" transform="matrix(1.6242 0 0 1.6242 -58.753 -38.67)"/><path d="m147.75 132.094-7.906 7.976 1.273 1.262s6.563-6.617 6.649-6.707c.093.09 4.238 4.203 4.238 4.203l1.308-1.316-5.515-5.465-.047.047M156.684 141.422l-1.27-1.258-1.719 1.73-2.746-2.722-1.265 1.277 2.746 2.723c-.082.086-1.598 1.613-1.684 1.7-.086-.087-2.746-2.724-2.746-2.724l-1.266 1.278 2.746 2.722-1.835 1.848 1.316 1.305 7.766-7.836-.043-.043" style="fill:#211e1e;fill-opacity:1;fill-rule:nonzero;stroke:none;stroke-width:.2172" transform="matrix(1.6242 0 0 1.6242 -58.753 -38.67)"/></g></g></svg>