<svg xmlns="http://www.w3.org/2000/svg" xml:space="preserve" width="439.3035" height="439.3035" viewBox="0 0 439.3035 439.30349"><defs><linearGradient id="b" x1="0" x2="1" y1="0" y2="0" gradientTransform="scale(71.34352 -71.34352) rotate(43.83 14.093 -3.13)" gradientUnits="userSpaceOnUse" spreadMethod="pad"><stop offset="0" style="stop-opacity:1;stop-color:#5495d6"/><stop offset="0.55618" style="stop-opacity:1;stop-color:#2c53ac"/><stop offset="1" style="stop-opacity:1;stop-color:#2d4089"/></linearGradient><linearGradient id="c" x1="0" x2="1" y1="0" y2="0" gradientTransform="scale(-70.46094 70.46094) rotate(-11.974 46.119 16.748)" gradientUnits="userSpaceOnUse" spreadMethod="pad"><stop offset="0" style="stop-opacity:1;stop-color:#5495d6"/><stop offset="0.55618" style="stop-opacity:1;stop-color:#2c53ac"/><stop offset="1" style="stop-opacity:1;stop-color:#2d4089"/></linearGradient><linearGradient id="d" x1="0" x2="1" y1="0" y2="0" gradientTransform="scale(66.36138 -66.36138) rotate(-74.743 -6.042 -6.217)" gradientUnits="userSpaceOnUse" spreadMethod="pad"><stop offset="0" style="stop-opacity:1;stop-color:#5495d6"/><stop offset="0.55618" style="stop-opacity:1;stop-color:#2c53ac"/><stop offset="1" style="stop-opacity:1;stop-color:#2d4089"/></linearGradient><clipPath id="a" clipPathUnits="userSpaceOnUse"><path d="M0 841.89h595.275V0H0Z"/></clipPath><clipPath id="e" clipPathUnits="userSpaceOnUse"><path d="M0 841.89h595.275V0H0Z"/></clipPath></defs><g transform="matrix(1.33333 0 0 -1.33333 -109.826 1009.366)"><circle cx="247.10823" cy="-592.28577" r="164.73882" style="fill:#fff;stroke:#fff;stroke-width:0" transform="scale(1 -1)"/><g clip-path="url(#a)" transform="matrix(4.03602 0 0 4.03592 -296.838 -2298.47)"><path d="M0 0c0-21.253-17.227-38.479-38.481-38.479-21.252 0-38.48 17.226-38.48 38.479 0 21.251 17.228 38.479 38.48 38.479C-17.227 38.479 0 21.251 0 0" style="fill:#fff;fill-opacity:1;fill-rule:nonzero;stroke:none" transform="translate(173.047 716.49)"/></g><path d="M121.549 754.44a140.502 140.502 0 0 0 11.977-11.064 138.19 138.19 0 0 0 12.285-14.637 139.492 139.492 0 0 0 6.653-10.064 139.197 139.197 0 0 0 8.484-16.594c3.945.784 7.97 1.76 12.067 2.951a40.234 40.234 0 0 1 1.662 11.458c0 22.156-17.956 40.116-40.111 40.116-4.556 0-8.937-.767-13.017-2.166" style="fill:url(#b);stroke:none" transform="matrix(4.03602 0 0 4.03592 -296.838 -2298.47)"/><path d="M160.948 702.081a140.357 140.357 0 0 0-16.766-2.302 139.063 139.063 0 0 0-19.827-.088 137.511 137.511 0 0 0-16.292 2.106 150.205 150.205 0 0 1-3.976-11.379c7.355-8.594 18.279-14.04 30.479-14.04 18.173 0 33.519 12.085 38.449 28.654a143.227 143.227 0 0 0-12.067-2.951" style="fill:url(#c);stroke:none" transform="matrix(4.03602 0 0 4.03592 -296.838 -2298.47)"/><path d="M94.451 716.49c0-9.953 3.63-19.061 9.636-26.072a150.205 150.205 0 0 0 3.976 11.379 143.306 143.306 0 0 0 7.795 16.562 141.356 141.356 0 0 0 6.086 10.012 136.596 136.596 0 0 0 11.582 15.005 140.502 140.502 0 0 1-11.977 11.064c-15.766-5.407-27.098-20.351-27.098-37.95" style="fill:url(#d);stroke:none" transform="matrix(4.03602 0 0 4.03592 -296.838 -2298.47)"/><g clip-path="url(#e)" transform="matrix(4.03602 0 0 4.03592 -296.838 -2298.47)"><path d="M0 0c-.717-.222-1.317-.222-2.078-.222 0 0-.302.02-.533.032v4.407h1.457c1.614 0 2.08-.483 2.08-2.154C.926.802.65.184 0 0m-2.611 9.257c.058.001.131.008.131.008l1.175.053c1.522 0 1.963-.255 1.963-1.953 0-1.345-.453-1.923-1.515-1.923h-1.754Zm3.913-4.351c.942.448 1.389 1.272 1.389 2.592 0 2.812-1.796 3.048-3.638 3.048l-2.607-.033-2.368.037-.002-.304v-.859h.27c.258 0 .941 0 1.088-.161.07-.08.07-.325.07-.633V.5c0-.336 0-.58-.07-.659-.147-.161-.83-.161-1.088-.161h-.27v-1.163l2.376.036 2.238-.035c.865.039 2.111.091 2.861.531 1.25.71 1.425 1.855 1.425 2.98v.003c0 1.524-.557 2.444-1.674 2.874" style="fill:#2350a9;fill-opacity:1;fill-rule:nonzero;stroke:none" transform="translate(125.022 709.657)"/><path d="M0 0c1.859 0 2.355-.381 2.531-1.942l.071-.742h1.319V.492l-.195.063C2.412.981 1.432 1.21 0 1.21c-3.691 0-5.41-1.953-5.41-6.145 0-4.307 1.572-6.228 5.096-6.228.626 0 3.345.254 4.091.694l.144.086v3.394H2.554l-.023-.273c-.182-2.171-.319-2.739-2.456-2.739-2.817 0-3.393 2.136-3.393 5.345C-3.318-1.522-2.232 0 0 0" style="fill:#2350a9;fill-opacity:1;fill-rule:nonzero;stroke:none" transform="translate(134.149 719.209)"/><path d="m0 0-.158-.005L-3.645 0v-1.148h.315c1.011 0 1.051-.03 1.051-.726v-5.888c0-2.21-.75-3.071-2.672-3.071-.826 0-1.244.214-1.615.647-.373.445-.55 1.155-.54 2.176v6.136c0 .263 0 .533.046.583.021.027.154.143.843.143h.315V0h-4.207v-1.148h.313c.651 0 .773-.129.776-.135.045-.053.045-.301.045-.542V-8.05c0-2.589 1.352-3.959 3.6-3.959 3.094 0 4.416 1.312 4.416 4.402v5.733c0 .27 0 .529.051.588.029.038.228.138.756.138h.317v1.15z" style="fill:#2350a9;fill-opacity:1;fill-rule:nonzero;stroke:none" transform="translate(149.194 720.101)"/></g></g></svg>