<svg xmlns="http://www.w3.org/2000/svg" width="785.77234" height="649.01715" x="0px" y="0px" viewBox="0 0 785.77234 649.01715"><g transform="translate(8.428 12.887)"><ellipse cx="379.34094" cy="312.17438" rx="377.5162" ry="304.87537" style="fill:#fff;stroke-width:1"/><path fill="none" d="M-8.428-12.887h785.772V636.13H-8.428z" style="fill:#04031b;fill-opacity:0"/><path d="M0 0c-6.183.917-10.896 6.099-10.896 12.537 0 6.424 4.778 11.645 10.939 12.584l.07.009c-4.459-2.473-7.535-7.129-7.535-12.593 0-5.411 2.935-9.991 7.335-12.48z" style="fill:#15366f;fill-opacity:1;fill-rule:nonzero;stroke:none" transform="matrix(10.99937 0 0 -10.99937 299.856 450.677)"/><path d="M0 0c0 6.563-4.908 11.978-11.253 12.772L-8.364 0h-4.599v-18.238l1.368 5.426C-5.086-12.17 0-6.679 0 0" style="fill:#15366f;fill-opacity:1;fill-rule:nonzero;stroke:none" transform="matrix(10.99937 0 0 -10.99937 524.58 312.777)"/><path d="M0 0c18.957 0 34.324 12.461 34.324 27.83 0 15.367-15.367 27.826-34.324 27.826-18.96 0-34.328-12.459-34.328-27.826C-34.328 12.461-18.96 0 0 0Z" style="fill:none;stroke:#15366f;stroke-width:.802;stroke-linecap:butt;stroke-linejoin:miter;stroke-miterlimit:4;stroke-dasharray:none;stroke-opacity:1" transform="matrix(10.99937 0 0 -10.99937 381.997 616.592)"/><path d="M0 0c13.949 0 25.262 8.92 25.262 19.924 0 11-11.313 19.921-25.262 19.921-13.953 0-25.265-8.921-25.265-19.921C-25.265 8.92-13.953 0 0 0Z" style="fill:none;stroke:#15366f;stroke-width:.321;stroke-linecap:butt;stroke-linejoin:miter;stroke-miterlimit:4;stroke-dasharray:none;stroke-opacity:1" transform="matrix(10.99937 0 0 -10.99937 381.997 529.515)"/><path d="M0 0c6.183.917 10.896 6.099 10.896 12.537 0 6.424-4.778 11.645-10.94 12.584l-.07.009c4.46-2.473 7.534-7.129 7.534-12.593C7.42 7.126 4.487 2.546.09.057Z" style="fill:#0499db;fill-opacity:1;fill-rule:nonzero;stroke:none" transform="matrix(10.99937 0 0 -10.99937 466.672 450.677)"/><path d="M0 0c-6.396-.748-11.364-6.187-11.364-12.788 0-6.495 4.815-11.868 11.07-12.747L-3.18-12.788h4.604V5.709Z" style="fill:#0499db;fill-opacity:1;fill-rule:nonzero;stroke:none" transform="matrix(10.99937 0 0 -10.99937 366.335 172.121)"/><path d="M0 0c-.125.197-.258.424-.424.587-.206.192-.469.246-.667.118-.208-.131-.248-.399-.151-.669.073-.192.235-.433.344-.602l.092-.146.895.568zm2.51.279L-.927-1.892-1.56-.887c-.257.407-.515.782-.545 1.263-.033.473.162.895.506 1.112.338.214.773.247 1.2.049C.049 1.328.345.825.609.402L.707.245l1.302.822Z" style="fill:#0499db;fill-opacity:1;fill-rule:nonzero;stroke:none" transform="matrix(10.99937 0 0 -10.99937 93.93 437.563)"/><path d="m0 0 2.365.903c.178.07.361.123.48.287.147.2.19.471.085.746-.088.231-.277.427-.493.491-.224.069-.417-.013-.619-.09L-.55 1.432l-.332.872 2.368.904c.372.143.743.241 1.16.048.41-.192.786-.579.969-1.059.17-.444.151-.985-.005-1.381-.178-.461-.514-.633-.911-.785L.332-.874Z" style="fill:#0499db;fill-opacity:1;fill-rule:nonzero;stroke:none" transform="matrix(10.99937 0 0 -10.99937 55.195 406.906)"/><path d="m0 0-.132.925 1.741.251-1.961 1.302-.158 1.107 2.242-1.602 1.779 2.178.158-1.109L2.127 1.25l1.764.251.131-.925Z" style="fill:#0499db;fill-opacity:1;fill-rule:nonzero;stroke:none" transform="matrix(10.99937 0 0 -10.99937 40.963 364.09)"/><path d="m0 0-2.688-1.448.083 1.027 1.953.945-1.779 1.243.082 1.016L.071.932 1.567.81l-.075-.929Z" style="fill:#0499db;fill-opacity:1;fill-rule:nonzero;stroke:none" transform="matrix(10.99937 0 0 -10.99937 64.465 299.356)"/><path d="M0 0c.713-.253 1.574.259 1.882 1.127.306.87-.043 1.808-.752 2.06-.719.253-1.55-.246-1.863-1.132C-1.049 1.167-.718.254 0 0m1.457 4.061C2.567 3.669 3.048 2.233 2.57.883 2.096-.467.814-1.279-.293-.885-1.409-.491-1.907.928-1.424 2.297c.485 1.37 1.767 2.158 2.881 1.764" style="fill:#0499db;fill-opacity:1;fill-rule:nonzero;stroke:none" transform="matrix(10.99937 0 0 -10.99937 64.68 255.772)"/><path d="m0 0 .598.861 3.634.041-2.44 1.689.529.766 3.345-2.306-.59-.854L1.443.141 3.875-1.54l-.531-.769Z" style="fill:#0499db;fill-opacity:1;fill-rule:nonzero;stroke:none" transform="matrix(10.99937 0 0 -10.99937 68.02 188.803)"/><path d="M0 0c-.447.047-.968-.146-1.342-.485a2.042 2.042 0 0 1-.629-1.04c-.092-.417.005-.872.257-1.147.226-.256.611-.397.991-.38.448.012.911.213 1.272.532.44.402.692 1.025.603 1.532L-.411-2.401l-.475.527L1.552.327 1.61.263c.796-.882.476-2.379-.591-3.342-1.08-.972-2.61-1.129-3.412-.241-.801.889-.51 2.408.561 3.379.758.683 1.854 1.014 2.663.69z" style="fill:#0499db;fill-opacity:1;fill-rule:nonzero;stroke:none" transform="matrix(10.99937 0 0 -10.99937 144.812 119.988)"/><path d="m0 0 .938.473 3.209-1.704-1.335 2.65.834.42 1.83-3.626-.926-.466-3.219 1.69 1.331-2.643-.832-.419Z" style="fill:#0499db;fill-opacity:1;fill-rule:nonzero;stroke:none" transform="matrix(10.99937 0 0 -10.99937 178.336 80.367)"/><path d="m0 0-.885 1.012-.141-1.336Zm-1.551 1.903.694.221 3.246-3.236-.981-.311-.837.836-1.704-.538-.214-1.167-.985-.312Z" style="fill:#0499db;fill-opacity:1;fill-rule:nonzero;stroke:none" transform="matrix(10.99937 0 0 -10.99937 267.996 69.47)"/><path d="m0 0-.908-.175-.139.718 2.752.527.138-.717L.92.174l.624-3.271-.919-.175Z" style="fill:#0499db;fill-opacity:1;fill-rule:nonzero;stroke:none" transform="matrix(10.99937 0 0 -10.99937 297.343 44.566)"/><path d="m0 0 .926.115.493-4.034-.928-.112Z" style="fill:#0499db;fill-opacity:1;fill-rule:nonzero;stroke:none" transform="matrix(10.99937 0 0 -10.99937 323.627 31.998)"/><path d="M0 0c.012-.75.793-1.384 1.712-1.368.92.015 1.68.669 1.667 1.422-.013.766-.77 1.369-1.713 1.352C.727 1.394-.011.762 0 0m4.313.054c.02-1.176-1.159-2.13-2.588-2.153-1.431-.024-2.64.89-2.661 2.069-.017 1.177 1.14 2.144 2.589 2.168 1.453.025 2.642-.902 2.66-2.084" style="fill:#0499db;fill-opacity:1;fill-rule:nonzero;stroke:none" transform="matrix(10.99937 0 0 -10.99937 355.84 50.893)"/><path d="m0 0 1.043-.138 1.694-3.215.385 2.943.928-.121-.528-4.026-1.026.134L.785-1.217.397-4.15l-.922.124Z" style="fill:#0499db;fill-opacity:1;fill-rule:nonzero;stroke:none" transform="matrix(10.99937 0 0 -10.99937 415.983 28.878)"/><path d="m0 0-.181 1.332-.852-1.04zm-.251 2.441.703-.198.935-4.487-.993.284L.157-.805l-1.719.488-.823-.86-.991.282z" style="fill:#0499db;fill-opacity:1;fill-rule:nonzero;stroke:none" transform="matrix(10.99937 0 0 -10.99937 496.35 69.68)"/><path d="m0 0 .86-.362-1.291-3.07 1.418-.596-.284-.674-2.278.958z" style="fill:#0499db;fill-opacity:1;fill-rule:nonzero;stroke:none" transform="matrix(10.99937 0 0 -10.99937 532.712 55.506)"/><path d="m0 0-1.404-2.107c-.104-.157-.223-.311-.227-.512a.79.79 0 0 1 .363-.659c.205-.134.475-.183.687-.113.221.075.334.253.451.431L1.277-.853l.779-.517L.647-3.476c-.222-.337-.466-.627-.915-.712-.447-.08-.98.02-1.404.302a2 2 0 0 0-.798 1.127c-.121.483.056.817.289 1.169L-.773.517z" style="fill:#0499db;fill-opacity:1;fill-rule:nonzero;stroke:none" transform="matrix(10.99937 0 0 -10.99937 595.84 87.193)"/><path d="m0 0 .752-.73-.561-3.594 2.067 2.133.671-.651L.101-5.758l-.746.721.544 3.595-2.06-2.124-.671.649z" style="fill:#0499db;fill-opacity:1;fill-rule:nonzero;stroke:none" transform="matrix(10.99937 0 0 -10.99937 631.846 112.442)"/><path d="m0 0 .567-.741-3.236-2.46-.564.743z" style="fill:#0499db;fill-opacity:1;fill-rule:nonzero;stroke:none" transform="matrix(10.99937 0 0 -10.99937 673.49 156.219)"/><path d="m0 0 .458-.868-2.09-2.645 3.364.251.461-.867-4.5-.188-.361.681z" style="fill:#0499db;fill-opacity:1;fill-rule:nonzero;stroke:none" transform="matrix(10.99937 0 0 -10.99937 687.519 173.405)"/><path d="m0 0 .73-2.606-.704-.196-.478 1.705-.9-.253.458-1.633-.706-.197-.458 1.633-.897-.25.476-1.708-.705-.197-.729 2.607z" style="fill:#0499db;fill-opacity:1;fill-rule:nonzero;stroke:none" transform="matrix(10.99937 0 0 -10.99937 715.329 231.103)"/><path d="M0 0c.017-.245.064-.555.222-.728A.544.544 0 0 1 .675-.93a.528.528 0 0 1 .436.304c.118.228.113.447.09.707l-.036.515L-.036.51Zm1.827 1.579L1.93.123c.03-.477.037-.928-.192-1.325-.217-.377-.577-.63-.958-.655-.296-.023-.675.123-.911.351-.231.229-.369.527-.452.864l-1.402-1.466-.081 1.149L-.607.47-2.158.36l-.067.932z" style="fill:#0499db;fill-opacity:1;fill-rule:nonzero;stroke:none" transform="matrix(10.99937 0 0 -10.99937 706.123 292.906)"/><path d="M0 0c-.315.041-.545-.259-.593-.631-.045-.351.128-.675.421-.712.445-.058.634.385.796.782.131.32.243.596.481.819.235.217.548.329.827.294.657-.084 1.056-.823.955-1.622-.099-.773-.7-1.403-1.332-1.313l.122.953c.253-.019.456.218.492.509.038.303-.122.524-.362.546-.294.042-.453-.279-.572-.566-.143-.34-.267-.666-.497-.925-.274-.329-.588-.458-.981-.412-.72.094-1.181.902-1.07 1.789.11.852.738 1.546 1.442 1.458z" style="fill:#0499db;fill-opacity:1;fill-rule:nonzero;stroke:none" transform="matrix(10.99937 0 0 -10.99937 695.124 328.175)"/><path d="m0 0-.25-.897L-4.164.184l.249.9z" style="fill:#0499db;fill-opacity:1;fill-rule:nonzero;stroke:none" transform="matrix(10.99937 0 0 -10.99937 720.603 368.735)"/><path d="m0 0 .352.855.675-.28L-.04-2.013l-.678.28.359.869L-3.438.405l.358.865z" style="fill:#0499db;fill-opacity:1;fill-rule:nonzero;stroke:none" transform="matrix(10.99937 0 0 -10.99937 703.803 394.892)"/><path d="m0 0 3.049.041-.547-.873-2.164.067.996-1.926-.543-.865L-.496-.792l-1.271.8.497.79z" style="fill:#0499db;fill-opacity:1;fill-rule:nonzero;stroke:none" transform="matrix(10.99937 0 0 -10.99937 667.486 423.238)"/><path d="M0 0c0 .375.604.678 1.353.678.748 0 1.352-.303 1.352-.678 0-.373-.604-.677-1.352-.677C.604-.677 0-.373 0 0m1.75 2.53c.093.189.161.401.201.64l.755.001V2.53Zm2.386 1.571h-1.43v-.356H2v.356h-3.676V3.56H.595c.029-.36.004-1.865-2.526-1.977l.318-.524s1.748-.048 2.953.896l1.366.001v-.865c-.403.103-.87.161-1.366.161-1.541 0-2.789-.568-2.789-1.269 0-.702 1.248-1.27 2.789-1.27 1.542 0 2.796.568 2.796 1.27z" style="fill:#15366f;fill-opacity:1;fill-rule:nonzero;stroke:none" transform="matrix(10.99937 0 0 -10.99937 370.642 589.309)"/><path d="m0 0-6.012 1.267-.118-.563 2.373-.502-.335-1.592 1.386-.292.336 1.593 2.25-.475z" style="fill:#15366f;fill-opacity:1;fill-rule:nonzero;stroke:none" transform="matrix(10.99937 0 0 -10.99937 334.755 577.213)"/><path d="m0 0-.13-.624-2.743.579.131.623zm-3.866-.424 4.14-.872.863-.182.527 2.5-1.386.292L.119.562l-2.742.579.157.749-1.388.293-.409-1.944c-.062-.297.079-.581.397-.663" style="fill:#15366f;fill-opacity:1;fill-rule:nonzero;stroke:none" transform="matrix(10.99937 0 0 -10.99937 320.19 555.515)"/><path d="m0 0-2.424 1.124-.174-.375L-.173-.376Zm.935-1.523L-3.773.669c-.126.059-.206.136-.243.236-.042.111-.024.251.053.415l.557 1.2 1.342-.622-.116-.249L.243.525.36.774 1.708.15Zm.294 5.008L.718 2.383l-2.35 1.089-.233-.505L.374 1.93c.344-.159.519-.053.519-.053l.895 1.933 1.343-.623L1.858.44l-1.343.623.151.321s-.212-.129-.683.09l-3.017 1.398c-.124.059-.203.134-.236.227-.04.109-.021.25.059.419l.495 1.07 2.37-1.099.263.567-2.369 1.098.236.511 3.229-1.496s.427-.229.216-.684" style="fill:#15366f;fill-opacity:1;fill-rule:nonzero;stroke:none" transform="matrix(10.99937 0 0 -10.99937 230.358 563.163)"/><path d="m0 0-.964-1.181-1.149.942.959 1.17-3.111 2.549.339.413 1.581-1.297.431.525-1.865 1.528.362.443 3.351-2.747.852 1.041-3.082 2.527.355.432 3.883-3.184c.283-.231.121-.609.028-.724l-.865-1.053.285-.232-.363-.443-1.839 1.508-.43-.524L-.077.737C.346.39 0 0 0 0" style="fill:#15366f;fill-opacity:1;fill-rule:nonzero;stroke:none" transform="matrix(10.99937 0 0 -10.99937 167.895 524.096)"/><path d="M0 0a.562.562 0 0 1 .663-.438H.67l1.986.421c.063.012.528.112.626.341l.159-.752 1.202.252-.6 2.856.36.074L5-.088l1.203.251-1.068 5.091L3.933 5l.353-1.684-.36-.074-.354 1.683-1.203-.252.797-3.786c-.109-.254-.514-.32-.514-.32L1.39.299.667 3.733l1.389.291-.118.559L-.837 4 .001.003Z" style="fill:#15366f;fill-opacity:1;fill-rule:nonzero;stroke:none" transform="matrix(10.99937 0 0 -10.99937 439.249 587.096)"/><path d="m0 0-.631-.287-.313.692-1.291-.583 1.219-2.691 1.291.585L-.393-.81l.631.286z" style="fill:#15366f;fill-opacity:1;fill-rule:nonzero;stroke:none" transform="matrix(10.99937 0 0 -10.99937 576.988 500.927)"/><path d="m0 0-4.754-2.154.237-.523L-.542-.876l.557-1.228 1.29.585L.739-.271a.557.557 0 0 1-.734.274" style="fill:#15366f;fill-opacity:1;fill-rule:nonzero;stroke:none" transform="matrix(10.99937 0 0 -10.99937 575.87 531.905)"/><path d="M0 0c-.408-.184-.879-.028-1.05.352-.172.378.02.835.428 1.021.406.184.878.026 1.049-.352C.598.641.406.184 0 0m.34 2.169.755.343-.219.48-1.233-.56-.125.276-1.292-.584.126-.276-1.206-.546.218-.48.78.353C-2.315.761-2.46.248-2.259-.196-1.936-.913-.8-1.098.275-.61 1.351-.123 1.959.852 1.636 1.568c-.201.445-.713.692-1.296.601" style="fill:#15366f;fill-opacity:1;fill-rule:nonzero;stroke:none" transform="matrix(10.99937 0 0 -10.99937 537.932 538.554)"/><path d="M0 0a.538.538 0 0 1-.761.092l-3.68-3.113.372-.44L-1.07-.924l2.623-3.103-.41-.346-1.465 1.731-.937-.792L.205-5.165l-.361-.305-1.463 1.731-.939-.795 1.465-1.731-.699-.589.371-.439L3.27-3.326l-.374.438-.262-.223L.002.001" style="fill:#15366f;fill-opacity:1;fill-rule:nonzero;stroke:none" transform="matrix(10.99937 0 0 -10.99937 629.03 456.505)"/></g></svg>