<svg xmlns="http://www.w3.org/2000/svg" width="123.75mm" height="123.75mm" viewBox="0 0 123.75 123.75"><g transform="translate(-55.427 -108.982)"><circle cx="117.30161" cy="170.8575" r="61.875" style="fill:#f9f9f9;stroke-width:3.38012e-05"/><path d="M117.445 114.152c31.416 0 56.892 25.476 56.892 56.891s-25.476 56.891-56.892 56.891c-31.415 0-56.891-25.476-56.891-56.89 0-31.416 25.476-56.892 56.891-56.892zm0 18.71c21.083 0 38.18 17.098 38.18 38.181s-17.097 38.18-38.18 38.18-38.18-17.097-38.18-38.18 17.097-38.18 38.18-38.18z" style="fill:none;stroke:#191919;stroke-width:.178259;stroke-miterlimit:10.433"/><path d="M117.445 110.859c33.234 0 60.185 26.95 60.185 60.184 0 33.233-26.951 60.184-60.185 60.184-33.233 0-60.184-26.95-60.184-60.184 0-33.233 26.951-60.184 60.184-60.184zm0 3.293c31.416 0 56.892 25.476 56.892 56.891s-25.476 56.891-56.892 56.891c-31.415 0-56.891-25.476-56.891-56.89 0-31.416 25.476-56.892 56.891-56.892z" style="fill:none;stroke:#003087;stroke-width:.178259;stroke-miterlimit:10.433;stroke-opacity:1"/><path d="M117.445 132.863c21.083 0 38.18 17.097 38.18 38.18s-17.097 38.18-38.18 38.18-38.18-17.097-38.18-38.18 17.097-38.18 38.18-38.18zm0 3c19.427 0 35.18 15.754 35.18 35.18 0 19.426-15.753 35.18-35.18 35.18-19.426 0-35.18-15.754-35.18-35.18 0-19.426 15.754-35.18 35.18-35.18z" style="fill:none;stroke:#003087;stroke-width:.178259;stroke-miterlimit:10.433;stroke-opacity:1"/><path d="M110.706 176.809c-1.527-5.695-.963-10.444 2.876-18.066 2.139-5.732 1.62-9.372-.423-15.653 3.193 3.96 4.881 9.383 3.936 14.811-1.138 5.548-5.965 7.271-6.39 18.908zM118.264 190.377c-1.433-6.424-2.69-10.749.664-18.806 2.14-5.733 4.807-5.126 5.476-16.225 1.48 5.235 1.714 10.536.14 15.273-2.25 4.42-6.398 6.57-6.28 19.758z" style="fill:red;fill-rule:evenodd;stroke:red;stroke-width:.17826;stroke-miterlimit:10.433"/><path d="M112.708 138.24c5.064 6.433 9.18 16.926 4.948 24.11-4.576 7.01-8.39 13.677-1.807 24.662-3.793-16.487 5.155-17.504 7.195-28.697.953-7.974-4.312-16.029-10.336-20.076z" style="fill:red;fill-rule:evenodd;stroke:red;stroke-width:.17826;stroke-miterlimit:10.433"/><path d="M379.02 310.499c.333-.347.587-.534.6-1 .027-.413-.347-.547-.38-.98-.093-.513.047-1.119.58-1.48l-.56-.019c-.319-.84-.319-1.253 0-1.242h4.162c.319.134.198.388.278.882l.02 3.852h-.62v-3.533h-2.56c-.347.373-.773.627-.56 1.36.228.496.769.3.84 1.2-.113.726-.906 1.12-1.8.96zM384.319 310.493c.125-.1.119-.306.239-.579l.04-1.992c.02-.28.239-.598.199-.917-.406-.345-.292-1.17-.2-1.396.067-.152.791-.165 1.196.101.12.293.04.765.598.817.1-.312.02-.544.12-.797.257-.302.812-.233 1.374-.02.478.333.977 1.104 1.216 1.755.166.536.173 1.83 0 3.046-1.577-.18-2.83.094-3.427-.02 0-.57.08-.942.737-1.074.558-.027 1.694-.093 2.231.16.072-.59.195-1.073-.159-1.635a1.744 1.744 0 0 0-1.494-1.016c-.599-.12-1.285-.16-1.714.24-.565.816-.412 2.012-.399 3.148zM390.76 307.506c-.37.262-.845.97-.7 1.398.239.537.703 1.16-.21 1.858.805.06 1.676.32 1.803-.66-.067-.772-.53-.855-.915-1.418-.283-.443.264-1.374.022-1.178z" style="fill:#039;fill-rule:evenodd;stroke:#039;stroke-width:.216;stroke-miterlimit:10.433" transform="matrix(.82528 0 0 .82528 -216.19 -82.82)"/><path d="M389.91 305.807c-.046.453-.111.487.102.92 1.3 1.006 2.347 2.497 3.316 4.035.096.257.8.242.876.03.249-.467.209-.743.07-1.209-.38-.466-.776-.773-1.135-1.399.445-1.016.97.4 1.295-.379.18-.506-.08-.972-.498-1.259-.232-.36-.444-.356-.638-.978-.538.36-.657.119-.617.778l.441.78c.113.126-.08.556-.162.66-.083.102-.718-.76-1.555-1.4-.837-.639-.797-1.018-.956-.938-.18.02-.36.1-.538.36zM414.697 305.363c-.026.636-.033 1.191.24 1.427.251.186 2.196.113 3.345.14v3.293h.661v-3.233l.221-.08c.42-.615.46-1.177.06-1.405-4.127.099-4.307-.021-4.527-.141zM419.724 305.404l.04 1.247c-.006.194.527.368.423.462-.174.314-.308.846-.342 1.06-.067.443-.08.885 0 1.327.266.543.454.706 1.04.67.848.12 1.657.1 2.485 0 1.307-.154 1.398-1.088 1.41-2.44-.103-1.286-.25-1.863-1.285-2.125l-2.85-.02a2.764 2.764 0 0 1-.92-.18zm2.143 1.486c-1.258.102-1.36.503-1.482 1.364-.11 1.02.357 1.243 1.064 1.304 1.397.08 2.809.44 2.74-1.605-.103-.907-.904-1.115-2.322-1.063zM425.198 305.522c-.01.37-.004.746.033 1.169.274.14.208.28.281.42l-.06 3.073h.44s.02-2.457.12-2.715c.1-.257.34-.42.4-.42l2.706.04v3.135h.42v-3.096c.16-.037.242-.035.422-.112.24-.41.2-.82 0-1.23h-3.686c-.439-.041-.738-.103-1.076-.264z" style="fill:#039;fill-rule:evenodd;stroke:#039;stroke-width:.216;stroke-miterlimit:10.433" transform="matrix(.82528 0 0 .82528 -216.19 -82.82)"/><path d="M126.34 167.124c1.885-2.565 2.784-3.486 6.577-4.34 2.477-.44 4.823-.088 7.17.328.043.658.197 1.117.197 1.776 0 1.118.635-2.672 5.722-.658-.73 4.16.466 9.126 3.815 14.273-11.135 1.913-20.568 8.348-26.376 18.22h-1.447c1.282-4.868 4.045-9.625 10.064-14.142 5.81-3.573 11.444-5.13 16.904-4.67-3.004-4.034-7.06-10.304-3.552-13.418-1.447.066-3.354.527-5.065.921-.055 2.576.516 6.172 2.697 10.787-9.074.487-16.771 5.102-21.922 13.332-1.222 1.952-2.677 4.579-2.677 6.927h-1.843c0-2.325-1.286-4.903-2.49-6.84-5.152-8.284-12.872-12.93-21.977-13.419 2.181-4.615 2.751-8.21 2.697-10.787-1.71-.394-3.618-.855-5.065-.92 3.508 3.113-.548 9.383-3.552 13.417 5.46-.46 11.094 1.097 16.904 4.67 6.02 4.517 8.782 9.275 10.064 14.142h-1.447c-5.808-9.872-15.24-16.307-26.376-18.22 3.35-5.147 4.544-10.112 3.815-14.273 5.087-2.014 5.722 1.776 5.722.658 0-.66.154-1.118.198-1.776 2.346-.416 4.692-.767 7.17-.329 3.792.855 4.691 1.776 6.577 4.341-4.232-2.017-8.31-3.398-13.287-3.683 2.396 2.757 1.113 6.977-2.5 12.037 4.923-.324 9.988.63 15.063 3.946 4.223 2.758 7.212 7.284 9.472 13.014 2.26-5.73 5.248-10.256 9.471-13.014 5.076-3.316 10.14-4.27 15.062-3.946-3.612-5.06-4.894-9.28-2.499-12.037-4.977.285-9.055 1.666-13.286 3.683z" style="fill:#039;fill-rule:evenodd;stroke-width:.825278"/><path d="m156.726 203.257-5.883-6.06-6.298 6.06.891.951 5.288-5.11 4.992 5.17-1.426 1.307-2.971-3.09-1.01.95 2.97 3.15-1.128 1.07-2.971-3.09-1.01.95 2.97 3.15-1.188 1.128.832.892 7.427-7.071-.891-.95z" style="fill:#006;stroke:none;stroke-width:.825278"/><path d="m156.726 203.257-5.883-6.06-6.298 6.06.891.951 5.288-5.11 4.992 5.17-1.426 1.307-2.971-3.09-1.01.95 2.97 3.15-1.128 1.07-2.971-3.09-1.01.95 2.97 3.15-1.188 1.128.832.892 7.427-7.071-.891-.95z" style="fill:none;stroke:#005295;stroke-width:.178259"/><path d="M137.711 209.496h.357c.356.06.654.238.832.535.119.297.178.594.06 1.01-.12.357-.298.594-.595.773a2.896 2.896 0 0 1-.654.237v1.248c.416-.06.832-.237 1.248-.475.654-.357 1.07-.891 1.307-1.545.238-.713.179-1.367-.237-2.02-.12-.179-.238-.357-.416-.476a2.775 2.775 0 0 0-.594-.297l.713-.416-.654-1.01-1.367.832zm0 6.24v-1.308l7.19-4.337 2.14 3.624-1.189.713-1.545-2.495-6.536 3.921zm6.774-9.032-.653-1.07-1.189.713-.891-1.426-1.188.713 2.555 4.219 1.188-.713-1.01-1.723zm-7.427 2.97c.178-.118.416-.178.653-.178v-1.604l-.594.297-.475-.832-1.307.832.475.832-2.08 1.248.654 1.01.713-.416c-.06.238-.06.475-.06.654.06.237.12.416.238.653.416.594.951.951 1.724 1.07.237.06.475.06.713.06v-1.249c-.12 0-.238-.059-.357-.059-.416-.06-.654-.238-.832-.535-.178-.297-.237-.594-.119-.95.12-.357.357-.654.654-.832zm.653 4.754v1.307l-.594-.95z" style="fill:#006;stroke:none;stroke-width:.825278"/><path d="M137.058 209.675a1.48 1.48 0 0 1 1.01-.179c.356.06.654.238.832.535.119.297.178.594.06 1.01-.12.357-.298.594-.595.773-.357.178-.654.237-1.01.178-.416-.06-.654-.238-.832-.535-.178-.297-.238-.594-.119-.95.119-.357.357-.654.654-.832zm2.674-1.605-.654-1.01-1.96 1.13-.476-.833-1.307.832.475.832-2.08 1.248.654 1.01.713-.416c-.06.238-.06.475-.06.654.06.237.12.416.238.653.416.594.951.951 1.724 1.07a2.6 2.6 0 0 0 1.96-.416c.654-.357 1.07-.891 1.308-1.545.237-.713.178-1.367-.238-2.02-.119-.179-.238-.357-.416-.476a2.775 2.775 0 0 0-.594-.297zm4.753-1.366-.653-1.07-1.189.713-.891-1.426-1.188.713 2.555 4.219 1.188-.713-1.01-1.723zm.416 3.387-7.784 4.694.654 1.07 6.536-3.922 1.545 2.495 1.188-.713z" style="fill:none;stroke:#005295;stroke-width:.178259"/><path d="m124.52 213.3 3.09-.833-.356-1.247-4.457 1.307 1.96 6.893c.06.237.239.415.417.534.178 0 .416 0 .653-.059l4.695-1.307.594 2.198 1.248-.356-1.545-5.526 1.07-.297 1.604 5.526 1.247-.357-2.792-9.864-1.248.357.891 3.15-1.129.296-.832-3.149-1.307.357 1.842 6.417-4.16 1.188z" style="fill:#006;stroke:none;stroke-width:.825278"/><path d="m124.52 213.3 3.09-.833-.356-1.247-4.457 1.307 1.96 6.893c.06.237.239.415.417.534.178 0 .416 0 .653-.059l4.695-1.307.594 2.198 1.248-.356-1.545-5.526 1.07-.297 1.604 5.526 1.247-.357-2.792-9.864-1.248.357.891 3.15-1.129.296-.832-3.149-1.307.357 1.842 6.417-4.16 1.188z" style="fill:none;stroke:#005295;stroke-width:.178259"/><path d="M120.064 222.569v-1.248h.772v1.248zm0-3.268v-6.893h.713v6.893zm-6.596-6.893c0 1.188-.178 2.08-.475 2.674-.416.772-1.07 1.188-2.08 1.307v1.367a4.459 4.459 0 0 0 1.783-.535c.713-.357 1.188-.891 1.545-1.545.356.654.831 1.188 1.485 1.545.535.297 1.13.475 1.842.535v-1.367c-.95-.119-1.664-.535-2.08-1.307-.356-.594-.475-1.545-.475-2.674zm6.596 0v6.893h-.713v-6.893zm0 8.913v1.248h-7.547c-.237 0-.475-.06-.594-.178-.178-.179-.237-.416-.237-.714v-2.614h1.426v2.258z" style="fill:#006;stroke:none;stroke-width:.825278"/><path d="M113.468 212.408c0 1.188-.178 2.08-.475 2.674-.416.772-1.07 1.188-2.08 1.307v1.367a4.459 4.459 0 0 0 1.783-.535c.713-.357 1.188-.891 1.545-1.545.356.654.831 1.188 1.485 1.545.535.297 1.13.475 1.842.535v-1.367c-.95-.119-1.664-.535-2.08-1.307-.356-.594-.475-1.545-.475-2.674zm5.883 6.893h1.426v-6.893h-1.426zm-7.665 2.376c0 .298.059.535.237.714.12.118.357.178.594.178h8.32v-1.248h-7.725v-2.258h-1.426z" style="fill:none;stroke:#005295;stroke-width:.178259"/><path d="M107.288 219.122v-1.545c.12.535.12 1.01 0 1.545zm0-2.911v-.357l1.248-4.219 1.367.416-.535 1.664 1.367.476-.357 1.188-1.366-.416-.476 1.604zm-2.792.297c.534.119.891.416 1.129.891.297.476.356.951.237 1.426a1.785 1.785 0 0 1-1.01 1.07c-.297.119-.594.238-.891.178v1.367c.535 0 1.07-.06 1.545-.297.891-.357 1.426-1.01 1.723-1.902 0 0 0-.06.06-.119v-1.545a2.775 2.775 0 0 0-.298-.594c-.356-.713-.891-1.188-1.604-1.545l.297-1.01c-.772-.356-1.248-.772-1.485-1.307-.238-.475-.238-.95-.12-1.545l2.259.654.356-1.189-2.733-.832v4.754l.119.119c0-.06-.06-.06-.12-.06v1.367c.18 0 .357.06.536.119zm2.792-.654v.357l-.118-.06zm-3.327 4.22c-.178 0-.357 0-.535-.06-.475-.178-.832-.476-1.129-.891-.237-.476-.297-.951-.178-1.427.178-.534.475-.89.95-1.129.298-.118.595-.178.892-.178v-1.366c-.713 0-1.367.178-1.902.534a2.924 2.924 0 0 0-1.366 1.664c-.238.891-.119 1.723.356 2.555.476.713 1.13 1.189 1.961 1.486.357.118.654.178.95.178zm0-9.865v4.754a3.404 3.404 0 0 1-.654-.654c-.237-.356-.416-.653-.534-1.01-.476.357-1.07.594-1.783.654a5.13 5.13 0 0 1-1.664-.119l.357-1.248c.891.178 1.545.06 2.02-.237.416-.238.713-.654.95-1.248l-2.198-.654.357-1.188z" style="fill:#006;stroke:none;stroke-width:.825278"/><path d="M104.496 216.508c.535.119.891.416 1.129.891.297.476.356.951.237 1.426a1.785 1.785 0 0 1-1.01 1.07c-.475.238-.95.238-1.426.119-.475-.179-.832-.476-1.129-.892-.237-.475-.297-.95-.178-1.426.178-.534.475-.891.95-1.129.476-.178.951-.237 1.427-.06zm-.416-1.426c-.713-.06-1.426.06-2.02.475a2.924 2.924 0 0 0-1.367 1.664c-.238.891-.119 1.723.356 2.555.476.713 1.13 1.188 1.961 1.486.892.237 1.723.237 2.496-.12.891-.356 1.426-1.01 1.723-1.9.238-.773.178-1.546-.238-2.259-.356-.713-.89-1.188-1.604-1.545l.297-1.01c-.772-.356-1.248-.772-1.485-1.307-.238-.475-.238-.95-.12-1.545l2.259.654.356-1.189-5.882-1.782-.357 1.188 2.199.654c-.238.594-.535 1.01-.951 1.248-.475.297-1.129.415-2.02.237l-.357 1.248c.535.119 1.07.178 1.664.119.713-.06 1.307-.297 1.783-.654.118.357.297.654.534 1.01.179.238.476.535.773.773zm6.298.297.357-1.188-1.367-.476.535-1.664-1.367-.416-1.366 4.516 1.366.416.476-1.604z" style="fill:none;stroke:#005295;stroke-width:.178259"/><path d="M93.503 209.912v-.059zm0 6.12v-.356l.119.119zm0-2.733v-.06l3.625-5.822 1.188.772-1.129 1.842 1.188.773-.653 1.07-1.189-.773-1.901 2.97zm-1.307-8.972c-.654 1.01-1.248 1.664-1.842 2.02-.773.416-1.545.416-2.436 0l-.713 1.13a4.457 4.457 0 0 0 1.782.534c.713.06 1.426-.119 2.08-.475-.06.713.119 1.426.416 2.08.356.534.772 1.01 1.307 1.366l.713-1.07v-.059c-.713-.594-1.07-1.307-1.01-2.14 0-.772.356-1.603.95-2.614zm1.307 8.913v.06h-.06zm0 2.436v.357l-.535.831-7.011-4.456a.795.795 0 0 1-.416-.475c-.06-.238 0-.476.178-.713l1.426-2.199 1.188.713-1.247 1.96z" style="fill:#006;stroke:none;stroke-width:.825278"/><path d="M92.196 204.327c-.654 1.01-1.248 1.664-1.842 2.02-.773.416-1.545.416-2.436 0l-.713 1.13a4.457 4.457 0 0 0 1.782.534c.713.06 1.426-.119 2.08-.475-.06.713.119 1.426.416 2.08.356.534.772 1.01 1.307 1.366l.713-1.13c-.713-.593-1.07-1.306-1.01-2.138 0-.773.356-1.605.95-2.615zm5.526 7.546.653-1.07-1.188-.772 1.129-1.842-1.188-.772-3.684 5.882 1.188.773 1.901-2.971zm-12.003-.653c-.178.237-.238.475-.178.713.06.178.178.356.416.475l7.011 4.456.654-1.07-6.536-4.1 1.247-1.96-1.188-.713z" style="fill:none;stroke:#005295;stroke-width:.178259"/><path d="m84.352 200.524 2.615 2.912-.713.594-1.902-2.08v1.842l1.367 1.486c.238.237.416.356.594.356s.416-.119.654-.356l2.555-2.258-.95-1.07-.714.654-3.506-3.863zm0 7.13v-1.901l1.189 1.307-.951.891zm-1.901-9.21 1.901 2.08v-1.783l-.95-1.129.653-.653-.891-1.01-2.555 2.258a1.678 1.678 0 0 0-.416.653c0 .178.119.416.297.594l3.862 4.338v-1.842l-2.555-2.912zm1.901 7.309v1.901l-2.733-3.03-2.436 2.258-.95-1.07 2.435-2.198-2.911-3.268.891-.892z" style="fill:#006;stroke:none;stroke-width:.825278"/><path d="m82.45 198.444 4.517 4.992-.713.594-4.457-4.992zm7.072 4.576-.95-1.07-.714.654-4.456-4.992.653-.653-.891-1.01-2.555 2.258a1.678 1.678 0 0 0-.416.653c0 .178.119.416.297.594l5.229 5.824c.238.237.416.356.594.356s.416-.119.654-.356zm-10.34 3.862 2.437-2.258 2.971 3.327.95-.89-6.892-7.607-.891.892 2.911 3.268-2.436 2.198z" style="fill:none;stroke:#005295;stroke-width:.178259"/><path d="M70.33 173.37v-.952l1.069-.059-.06-.772c-.059-.416-.119-.713-.297-.951-.178-.178-.416-.238-.713-.238v-.891c.178 0 .416 0 .594.06.297.118.535.237.713.415.179.178.298.416.416.654.06.237.179.594.179 1.07l.118 1.485zm-1.843-.773v-.297c-.06-.535-.178-.832-.356-1.07a.792.792 0 0 0-.594-.238v-.95c.178 0 .356.059.534.118.179.12.357.297.535.476a1.32 1.32 0 0 1 .475-.773c.298-.237.595-.356.951-.356h.297v.891h-.119c-.356.06-.594.178-.772.416-.178.238-.238.535-.238.95l.06.773 1.07-.119v.951l-2.794.238v-.951zm-.95-1.605h-.12c-.356.06-.534.179-.653.357-.178.178-.178.475-.178.891l.06.475.89-.059v.95l-1.723.12-.118-1.367c-.06-.713.06-1.248.356-1.664.238-.356.654-.594 1.248-.653h.238zM65.576 167.605l.06-.95 4.159.237c.594 0 1.07-.059 1.307-.237.237-.12.356-.416.356-.892.06-.356-.059-.653-.297-.832-.237-.178-.653-.297-1.188-.356l-4.219-.238.06-.95 4.159.237c.475.06.832.06 1.01.119.238.06.475.178.654.297.297.238.475.475.594.773.119.297.178.653.178 1.01 0 .416-.119.772-.297 1.07-.119.237-.357.475-.713.712-.178.06-.357.179-.594.179-.178.059-.535.059-1.07.059zM70.626 162.139l.179-.832c.356.06.653 0 .89-.119.239-.119.357-.357.417-.654a.834.834 0 0 0-.119-.832c-.119-.237-.416-.356-.713-.475-.297-.06-.535 0-.713.06-.178.118-.416.416-.654.831 0 0 0 .06-.06.12-.237.475-.593.831-.95 1.01-.178.059-.356.118-.535.118-.178.06-.356 0-.534 0a2.252 2.252 0 0 1-1.248-.772c-.238-.416-.297-.891-.179-1.426.06-.476.298-.832.714-1.07.356-.237.772-.297 1.307-.237l-.179.89a.825.825 0 0 0-.653.12.865.865 0 0 0-.357.534c-.06.238 0 .476.12.654.118.238.356.357.593.416h.297c.12 0 .179-.06.298-.06.178-.118.356-.356.534-.772.12-.178.179-.297.238-.416.238-.356.535-.653.891-.772.357-.179.713-.179 1.189-.12.594.12 1.07.417 1.366.833.298.475.416.95.238 1.545-.119.534-.356.95-.832 1.247-.416.238-.95.298-1.545.179zM71.934 153.582l-1.367.06v-.892l4.694-.297-.297 1.01-2.08.06-.772 2.436 1.604 1.307-.356.95-2.793-2.316v-1.13l.772.595zm-1.367.06-1.307.06 1.307 1.069v1.129l-2.615-2.14.298-.89 2.317-.12zM76.152 150.73l-.475.832-5.704-3.268.475-.891 5.942-.298-4.338-2.436.476-.832 5.704 3.328-.475.772-6.061.297zM80.074 138.846l.475-.475c.357-.357.535-.654.535-.951.06-.297-.06-.535-.356-.832-.297-.238-.535-.356-.832-.297h-.119v-.95c.238 0 .475 0 .713.059.297.06.594.237.832.475.475.416.713.891.654 1.426 0 .594-.238 1.129-.713 1.604l-.535.535 1.901 1.842-.594.654-2.258-2.02v-1.308zm-.297-2.555c-.238.06-.475.238-.772.535l-.476.535 1.248 1.247v1.308l-2.555-2.437 1.01-1.129c.297-.297.535-.534.773-.653.178-.119.356-.238.534-.297.06 0 .179-.06.238-.06zM84.293 135.043l.416-.297c.475-.416.772-.832.891-1.188.119-.357.06-.713-.237-1.07-.298-.356-.595-.475-.951-.475-.06 0-.178.06-.238.06v-.951c.119 0 .297-.06.416-.06.535.06 1.01.297 1.486.832.356.416.475.891.475 1.367-.06.475-.297.95-.654 1.307l3.03.713-.95.773-3.625-.951 1.961 2.377-.713.594-1.426-1.723v-1.486zm-.119-2.97c-.297.118-.594.296-.95.593l-.535.416 1.485 1.783v1.485l-2.793-3.327 1.486-1.188c.416-.416.891-.654 1.307-.714zM92.909 132.548l-2.852 1.901-3.625-5.467 2.793-1.901.535.772-2.08 1.367 1.129 1.604 2.02-1.366.475.713-2.02 1.366 1.07 1.664 2.02-1.366zM93.147 130.111l.713-.356c.178.297.415.475.653.594.297.06.535.06.773-.06.297-.178.534-.356.594-.653.06-.238.06-.535-.119-.832-.119-.297-.297-.475-.475-.535-.238-.06-.535-.06-1.01 0h-.12c-.594.12-1.069.12-1.425-.06a2.584 2.584 0 0 1-.416-.356c-.12-.118-.238-.237-.357-.416-.238-.475-.297-1.01-.119-1.426.12-.475.416-.831.892-1.07.475-.237.89-.296 1.307-.118.416.119.772.416 1.07.891l-.833.416c-.118-.237-.297-.416-.534-.475-.179-.06-.416-.06-.595.06-.237.118-.415.296-.475.534-.06.238-.06.475.119.713 0 .119.06.178.119.238.06.06.178.119.237.178.179.06.535.06.951 0 .178-.06.357-.119.476-.119.416-.06.831 0 1.188.178.297.179.594.476.772.832.298.594.357 1.13.238 1.664-.178.475-.475.891-1.01 1.129s-1.01.297-1.486.119a1.986 1.986 0 0 1-1.129-1.07zM98.554 125.358c.475-.179.713-.357.891-.535.119-.238.178-.535.06-.832-.12-.297-.298-.475-.535-.535-.12-.06-.238-.06-.416-.06v-.89c.356 0 .594 0 .832.118.475.12.772.476 1.01 1.07.059.238.119.475.059.713s-.178.475-.297.654c.297 0 .594.06.891.297.238.178.476.475.594.832.12.237.12.534.12.831 0 .298-.12.595-.238.832-.12.179-.298.416-.476.535-.238.178-.535.297-.95.475l-1.486.535-.06-.178v-2.793l.654 1.783.713-.238c.416-.178.713-.356.832-.594a.852.852 0 0 0 .06-.772c-.179-.357-.357-.595-.595-.714-.297-.118-.594-.059-1.01.06l-.654.238zm-.297.119.237-.12h.06v.833h-.06l.06.237v2.793l-2.14-6.001 1.308-.476c.297-.119.594-.178.832-.237v.89c-.12.06-.297.06-.476.12l-.475.178zM104.912 124.704l.653 2.258-.891.297-.713-2.317-3.15-3.387 1.01-.297 2.318 2.614.476-3.446 1.01-.357zM110.022 126.07l-.951.18-.95-5.586-1.19.178-.177-.891 3.327-.535.178.832-1.188.237zM115.785 125.477l-3.386.178-.298-6.596 3.387-.178.06.891-2.496.12.119 1.96 2.436-.119.06.891-2.437.12.06 1.96 2.496-.119zM119.945 122.327c.297-.059.535-.119.713-.178.356-.178.535-.535.594-.95 0-.417-.06-.714-.356-.951-.179-.179-.535-.297-.951-.357v-.95c.772.118 1.367.356 1.723.712.416.416.535.951.475 1.664 0 .535-.237.95-.594 1.248-.416.357-.891.475-1.426.475l1.664 2.674-1.188-.119-.654-1.01zm-1.248-.059.475.06h.773v2.257l-1.248-2.198-.297 3.03-.95-.06.593-6.536 1.902.12v.95c-.06-.06-.178-.06-.297-.06l-.713-.059zM124.164 126.011l-.951-.118.95-6.537.951.179zM129.63 124.348l-.178-2.674-.713.95v-1.485l.594-.773.892.238.653 7.012-1.01-.238-.178-2.08-.951-.237v-1.01zm-.891-1.724-.891 1.189.891.238v1.01l-1.485-.476-1.248 1.664-.951-.297 3.684-4.813zM132.601 128.21l-.891-.357 2.496-6.06.891.356 1.129 5.823 1.842-4.635.832.357-2.436 6.12-.832-.356-1.13-6.002zM145.911 127.735l.773.594-2.555 3.327c-.357.476-.535.832-.535 1.13 0 .296.178.593.535.831.297.238.594.297.891.238.297-.119.594-.357.95-.832l2.496-3.328.773.595-2.496 3.268c-.297.356-.534.653-.713.772a1.403 1.403 0 0 1-.535.357c-.356.119-.653.178-1.01.119a2.021 2.021 0 0 1-.891-.416c-.357-.298-.594-.535-.772-.832a2.56 2.56 0 0 1-.179-1.01c0-.179.06-.416.179-.595.059-.178.297-.475.594-.89zM147.219 137.242l-.713-.654 4.456-4.813.713.654-1.01 5.882 3.387-3.684.654.654-4.457 4.753-.713-.594 1.129-6.001zM151.794 142.233l-.654-.772 5.17-4.1.594.713zM154.111 145.442l-.297-.476 4.16-5.704.534.891-3.149 4.16 5.11-1.13.535.833zM157.38 151.443l-1.486-3.09 5.942-2.852 1.485 3.03-.772.416-1.129-2.257-1.723.89 1.07 2.2-.773.356-1.07-2.199-1.782.892 1.07 2.198zM162.905 154.83c.238 0 .416 0 .654-.119.357-.119.654-.356.713-.653.119-.357.06-.773-.119-1.367l-.237-.654-1.01.357v-1.01l1.544-.535.595 1.783c.237.772.297 1.366.059 1.9-.178.476-.594.892-1.248 1.07-.356.12-.654.179-.95.12zm-1.366-1.96.119.415c.237.654.475 1.07.832 1.307.118.12.297.179.415.238v.891a.959.959 0 0 1-.534-.178c-.416-.178-.773-.535-.951-1.07l-1.783 2.615-.416-1.129 2.199-3.09-2.912 1.01-.297-.891 4.694-1.604v1.01zM161.777 157.623l.178.772a1.622 1.622 0 0 0-.713.535c-.12.238-.179.475-.12.772.12.298.239.535.536.654.237.178.475.178.832.119.297-.06.475-.178.594-.357.178-.178.237-.534.237-1.01v-.119c0-.594.179-1.01.416-1.366.12-.12.238-.238.416-.357.12-.059.297-.119.476-.178.594-.119 1.07-.119 1.485.178.416.238.654.594.773 1.13.118.475.118.89-.12 1.306-.237.357-.593.595-1.128.773l-.238-.832c.297-.119.475-.238.594-.416.12-.238.12-.416.06-.654-.06-.237-.178-.475-.416-.534-.178-.12-.475-.179-.713-.12-.119.06-.178.06-.297.12l-.178.178c-.12.178-.179.475-.179.95v.476c-.06.416-.237.832-.475 1.07a1.605 1.605 0 0 1-1.01.594c-.594.178-1.13.119-1.605-.119-.475-.238-.772-.654-.89-1.248-.18-.535-.06-1.07.177-1.485a2.025 2.025 0 0 1 1.308-.832zM161.182 164.218l-.178-.95 6.477-1.13.178.951zM161.598 167.486l-.119-.95 5.645-.713-.119-1.189.892-.119.356 3.387-.832.12-.178-1.249zM164.094 172.062h-2.377v-.95h2.436l4.16-2.021v1.07l-3.15 1.425 3.15 1.486v1.07z" style="fill:#006;stroke:none;stroke-width:.825278"/><path d="M68.487 172.597v-.297c-.06-.535-.178-.832-.356-1.07-.12-.178-.416-.238-.713-.238-.357.06-.535.179-.654.357-.178.178-.178.475-.178.891l.06.475zm2.912-.238-.06-.773c-.059-.415-.119-.713-.297-.95-.237-.179-.475-.238-.832-.238-.356.06-.594.178-.772.416-.178.238-.238.535-.238.95l.06.773zm-5.705 0c-.059-.713.06-1.248.357-1.664.238-.356.654-.594 1.248-.653.297 0 .535.059.772.118.179.12.357.297.535.476a1.32 1.32 0 0 1 .475-.773c.298-.237.595-.356.951-.356.297-.06.594 0 .891.06.298.118.535.237.713.415.179.178.298.416.416.654.06.237.179.594.179 1.07l.119 1.485-6.537.534zM65.576 167.605l.06-.95 4.159.237c.594 0 1.07-.059 1.307-.237.237-.12.356-.416.356-.892.06-.356-.059-.653-.297-.832-.237-.178-.653-.297-1.188-.356l-4.219-.238.06-.95 4.159.237c.475.06.832.06 1.01.119.238.06.475.178.654.297.297.238.475.475.594.773.119.297.178.653.178 1.01 0 .416-.119.772-.297 1.07-.119.237-.357.475-.713.712-.178.06-.357.179-.594.179-.178.059-.535.059-1.07.059zM70.626 162.139l.179-.832c.356.06.653 0 .89-.119.239-.119.357-.357.417-.654a.834.834 0 0 0-.119-.832c-.119-.237-.416-.356-.713-.475-.297-.06-.535 0-.713.06-.178.118-.416.416-.654.831 0 0 0 .06-.06.12-.237.475-.593.831-.95 1.01-.178.059-.356.118-.535.118-.178.06-.356 0-.534 0a2.252 2.252 0 0 1-1.248-.772c-.238-.416-.297-.891-.179-1.426.06-.476.298-.832.714-1.07.356-.237.772-.297 1.307-.237l-.179.89a.825.825 0 0 0-.653.12.865.865 0 0 0-.357.534c-.06.238 0 .476.12.654.118.238.356.357.593.416h.297c.12 0 .179-.06.298-.06.178-.118.356-.356.534-.772.12-.178.179-.297.238-.416.238-.356.535-.653.891-.772.357-.179.713-.179 1.189-.12.594.12 1.07.417 1.366.833.298.475.416.95.238 1.545-.119.534-.356.95-.832 1.247-.416.238-.95.298-1.545.179zM71.934 153.582l-2.674.12 2.08 1.663zm.178 2.377 1.604 1.307-.356.951-5.408-4.457.298-.89 7.011-.417-.297 1.01-2.08.06zM76.152 150.73l-.475.832-5.704-3.268.475-.891 5.942-.298-4.338-2.436.476-.832 5.704 3.328-.475.772-6.061.297zM80.074 138.846l.475-.475c.357-.357.535-.654.535-.951.06-.297-.06-.535-.356-.832-.297-.238-.535-.356-.832-.297-.297.06-.594.238-.891.535l-.476.535zm2.555 2.436-.594.654-4.813-4.457 1.01-1.129c.297-.297.535-.534.773-.653.178-.119.356-.238.534-.297.297-.12.595-.12.951 0 .297.06.594.237.832.475.475.416.713.891.654 1.426 0 .594-.238 1.13-.713 1.605l-.535.534zM84.293 135.043l.416-.297c.475-.416.772-.832.891-1.188.119-.357.06-.713-.237-1.07-.298-.356-.595-.475-.951-.475-.297.06-.713.237-1.189.653l-.534.416zm2.02 2.436-.713.595-4.219-5.051 1.486-1.188c.594-.535 1.188-.773 1.723-.773.535.06 1.01.297 1.486.832.356.416.475.891.475 1.367-.06.475-.297.95-.654 1.307l3.03.713-.95.772-3.625-.95zM92.909 132.548l-2.852 1.901-3.625-5.467 2.793-1.901.535.772-2.08 1.367 1.129 1.604 2.02-1.366.475.713-2.02 1.366 1.07 1.664 2.02-1.366zM93.147 130.111l.713-.356c.178.297.415.475.653.594.297.06.535.06.773-.06.297-.178.534-.356.594-.653.06-.238.06-.535-.119-.832-.119-.297-.297-.475-.475-.535-.238-.06-.535-.06-1.01 0h-.12c-.594.12-1.069.12-1.425-.06a2.584 2.584 0 0 1-.416-.356c-.12-.118-.238-.237-.357-.416-.238-.475-.297-1.01-.119-1.426.12-.475.416-.831.892-1.07.475-.237.89-.296 1.307-.118.416.119.772.416 1.07.891l-.833.416c-.118-.237-.297-.416-.534-.475-.179-.06-.416-.06-.595.06-.237.118-.415.296-.475.534-.06.238-.06.475.119.713 0 .119.06.178.119.238.06.06.178.119.237.178.179.06.535.06.951 0 .178-.06.357-.119.476-.119.416-.06.831 0 1.188.178.297.179.594.476.772.832.298.594.357 1.13.238 1.664-.178.475-.475.891-1.01 1.129s-1.01.297-1.486.119a1.986 1.986 0 0 1-1.129-1.07zM98.257 125.477l.237-.12c.476-.178.773-.356.951-.534.119-.238.178-.535.06-.832-.12-.297-.298-.475-.535-.535-.238-.06-.535-.06-.892.06l-.475.178zm.95 2.733.713-.238c.416-.178.713-.356.832-.594a.852.852 0 0 0 .06-.772c-.179-.357-.357-.595-.595-.713-.297-.12-.594-.06-1.01.059l-.713.238zm-1.485-5.467c.653-.237 1.248-.297 1.664-.119.475.12.772.476 1.01 1.07.059.238.119.475.059.713s-.178.475-.297.654c.297 0 .594.06.891.297.238.178.476.475.594.832.12.237.12.534.12.832 0 .297-.12.594-.238.831-.12.179-.297.416-.476.535-.237.178-.535.297-.95.476l-1.486.534-2.199-6.18zM104.912 124.704l.653 2.258-.891.297-.713-2.317-3.15-3.387 1.01-.297 2.318 2.614.476-3.446 1.01-.357zM110.022 126.07l-.951.18-.95-5.586-1.19.178-.177-.891 3.327-.535.178.832-1.188.237zM115.785 125.477l-3.386.178-.298-6.596 3.387-.178.06.891-2.496.12.119 1.96 2.436-.119.06.891-2.437.12.06 1.96 2.496-.119zM118.697 122.268l.475.06c.654.059 1.189 0 1.486-.179.356-.178.535-.535.594-.95 0-.417-.06-.714-.356-.951-.238-.238-.654-.357-1.248-.416l-.713-.06zm-.297 3.15-.95-.06.593-6.537 1.902.12c.772.118 1.367.356 1.723.712.416.416.535.951.475 1.664 0 .535-.237.95-.594 1.248-.416.356-.891.475-1.426.475l1.664 2.674-1.188-.119-1.902-3.208zM124.164 126.011l-.951-.118.95-6.537.951.179zM129.63 124.348l-.178-2.674-1.604 2.139zm-2.376.237-1.248 1.664-.951-.297 4.278-5.586.892.238.653 7.012-1.01-.238-.178-2.08zM132.601 128.21l-.891-.357 2.496-6.06.891.356 1.129 5.823 1.842-4.635.832.357-2.436 6.12-.832-.356-1.13-6.002zM145.911 127.735l.773.594-2.555 3.327c-.357.476-.535.832-.535 1.13 0 .296.178.593.535.831.297.238.594.297.891.238.297-.119.594-.357.95-.832l2.496-3.328.773.595-2.496 3.268c-.297.356-.534.653-.713.772a1.403 1.403 0 0 1-.535.357c-.356.119-.653.178-1.01.119a2.021 2.021 0 0 1-.891-.416c-.357-.298-.594-.535-.772-.832a2.56 2.56 0 0 1-.179-1.01c0-.179.06-.416.179-.595.059-.178.297-.475.594-.89zM147.219 137.242l-.713-.654 4.456-4.813.713.654-1.01 5.882 3.387-3.684.654.654-4.457 4.753-.713-.594 1.129-6.001zM151.794 142.233l-.654-.772 5.17-4.1.594.713zM154.111 145.442l-.297-.476 4.16-5.704.534.891-3.149 4.16 5.11-1.13.535.833zM157.38 151.443l-1.486-3.09 5.942-2.852 1.485 3.03-.772.416-1.129-2.257-1.723.89 1.07 2.2-.773.356-1.07-2.199-1.782.892 1.07 2.198zM161.539 152.87l.119.415c.237.654.475 1.07.832 1.307.297.238.653.297 1.07.12.356-.12.653-.357.712-.654.119-.357.06-.773-.119-1.367l-.237-.654zm-3.03 1.01-.298-.892 6.24-2.14.594 1.784c.237.772.297 1.366.059 1.901-.178.475-.594.891-1.248 1.07-.535.178-1.01.178-1.485-.06-.416-.178-.773-.535-.951-1.07l-1.783 2.615-.416-1.13 2.199-3.089zM161.777 157.623l.178.772a1.622 1.622 0 0 0-.713.535c-.12.238-.179.475-.12.772.12.298.239.535.536.654.237.178.475.178.832.119.297-.06.475-.178.594-.357.178-.178.237-.534.237-1.01v-.119c0-.594.179-1.01.416-1.366.12-.12.238-.238.416-.357.12-.059.297-.119.476-.178.594-.119 1.07-.119 1.485.178.416.238.654.594.773 1.13.118.475.118.89-.12 1.306-.237.357-.593.595-1.128.773l-.238-.832c.297-.119.475-.238.594-.416.12-.238.12-.416.06-.654-.06-.237-.178-.475-.416-.534-.178-.12-.475-.179-.713-.12-.119.06-.178.06-.297.12l-.178.178c-.12.178-.179.475-.179.95v.476c-.06.416-.237.832-.475 1.07a1.605 1.605 0 0 1-1.01.594c-.594.178-1.13.119-1.605-.119-.475-.238-.772-.654-.89-1.248-.18-.535-.06-1.07.177-1.485a2.025 2.025 0 0 1 1.308-.832zM161.182 164.218l-.178-.95 6.477-1.13.178.951zM161.598 167.486l-.119-.95 5.645-.713-.119-1.189.892-.119.356 3.387-.832.12-.178-1.249zM164.094 172.062h-2.377v-.95h2.436l4.16-2.021v1.07l-3.15 1.425 3.15 1.486v1.07z" style="fill:none;stroke:#005295;stroke-width:.178259"/><path d="M71.815 188.046a2.41 2.41 0 0 0 2.436-2.436c0-1.308-1.07-2.437-2.436-2.437-1.307 0-2.436 1.13-2.436 2.437 0 1.366 1.129 2.436 2.436 2.436zM162.311 188.046a2.41 2.41 0 0 0 2.437-2.436c0-1.308-1.07-2.437-2.437-2.437-1.366 0-2.436 1.13-2.436 2.437a2.41 2.41 0 0 0 2.436 2.436z" style="fill:#534829;stroke:none;stroke-width:.825278"/><g style="stroke:#003087;stroke-opacity:1"><path d="M-35.434 153.451h-.203v-1.727h-.33v-.153h.533zM-33.91 152.638c.127 0 .254-.05.33-.127.102-.101.127-.203.127-.355a.42.42 0 0 0-.127-.33.42.42 0 0 0-.33-.128c-.127 0-.229.026-.305.127-.102.077-.127.204-.127.33 0 .153.025.255.127.356a.42.42 0 0 0 .305.127zm-.05.813h-.23l.458-.686c-.051.026-.077.026-.127.026h-.077c-.177 0-.33-.051-.431-.178-.127-.102-.178-.254-.178-.457a.73.73 0 0 1 .178-.458c.127-.127.28-.177.482-.177.178 0 .33.05.457.177s.178.28.178.458c0 .152-.076.33-.228.584l-.051.05zM-32.869 152.892h.178c0 .127.05.229.152.305a.42.42 0 0 0 .305.127c.127 0 .229-.05.33-.152a.502.502 0 0 0 .127-.356.483.483 0 0 0-.127-.33c-.101-.102-.203-.127-.355-.127-.076 0-.153 0-.229.05a.431.431 0 0 0-.152.153l-.153-.05.178-.94h.838v.177h-.685l-.102.534a.41.41 0 0 1 .178-.102c.05 0 .101-.025.152-.025.203 0 .356.076.457.203.127.127.178.28.178.482 0 .178-.05.33-.178.458a.636.636 0 0 1-.457.203.612.612 0 0 1-.635-.61zM-30.99 152.892a.51.51 0 0 0 .102.33c.077.077.178.102.305.102s.229-.025.305-.102a.51.51 0 0 0 .102-.33c0-.152-.026-.254-.127-.33-.077-.076-.204-.102-.356-.102H-30.76v-.152h.076a.542.542 0 0 0 .305-.076c.051-.05.077-.127.077-.229 0-.101-.026-.178-.077-.228a.288.288 0 0 0-.203-.077c-.101 0-.152.026-.203.077-.076.05-.102.127-.102.228h-.177a.759.759 0 0 1 .152-.355.483.483 0 0 1 .33-.127c.153 0 .254.05.356.152a.483.483 0 0 1 .127.33c0 .076-.026.127-.05.178a.26.26 0 0 1-.128.152c.102.077.178.127.229.23.05.075.076.202.076.304 0 .178-.05.33-.178.457-.102.127-.254.178-.432.178s-.33-.05-.432-.178c-.127-.102-.177-.254-.177-.432z" style="fill:#003087;fill-opacity:1;stroke:#003087;stroke-width:.0762;stroke-opacity:1" transform="matrix(2.07157 0 0 2.07157 185.288 -116.036)"/></g></g></svg>