<svg xmlns="http://www.w3.org/2000/svg" xml:space="preserve" width="665.76099" height="665.76257" viewBox="0 0 665.76097 665.76257"><defs><clipPath id="a" clipPathUnits="userSpaceOnUse"><path d="M0 595.276h841.89V0H0Z"/></clipPath></defs><g clip-path="url(#a)" transform="matrix(1.56577 0 0 -1.56577 -328.996 796.782)"><path d="M635.313 83.677H210.117v425.197h425.196z" style="fill:#636466;fill-opacity:1;fill-rule:nonzero;stroke:none"/><path d="M361.135 352.63c0 6.232-3.846 13.085-11.479 13.085h-14.019v-25.232h14.019c6.697 0 11.479 6.224 11.479 12.147m-2.911 45.015c0 5.604-2.647 11.533-10.438 11.533h-12.149v-23.212h12.932c6.07 0 9.655 4.826 9.655 11.679m16.511-20.712c14.021-4.364 21.447-15.899 21.447-26.485 0-16.508-13.191-31.777-39.359-31.777h-64.176v21.812h9.97v68.695h-9.97v21.962h60.791c29.284 0 36.267-15.116 36.267-28.353 0-10.745-3.599-21.183-14.97-25.854M550.594 409.179v-48.916c0-30.686-22.896-44.401-51.558-44.401-27.88 0-48.599 13.867-48.599 44.401v48.916h-9.812v21.961h52.806v-21.961h-9.814v-47.363c0-13.229 3.737-22.424 18.691-22.424 11.838 0 16.98 9.027 16.98 22.424v47.363h-9.815v21.961h50.935v-21.961z" style="fill:#ffcb04;fill-opacity:1;fill-rule:nonzero;stroke:none"/><path d="M345.451 181.13v-21.812h-52.805v21.812h9.658v68.843h-9.658v21.811h100.625l.78-34.115-28.04-.465-.466 5.603c-.624 7.013-.936 7.166-8.567 7.166H335.64v-24.611h9.969v7.011h24.143v-34.895h-24.143v7.479h-9.969V181.13ZM509.506 156.827c-9.194 0-19.006 2.803-27.888 8.413v-5.922H455.61v36.45h27.569c.775-9.658 8.406-15.58 18.223-15.58 8.412 0 11.215 4.994 11.215 8.726 0 6.387-7.944 9.812-18.38 12.931-16.51 5.133-38.786 11.836-38.786 38.943 0 11.991 4.987 20.4 12.463 25.702 6.386 4.513 15.265 6.54 23.988 6.54 9.969 0 19.47-2.657 24.452-6.858v5.612h25.855v-33.965h-27.412c-2.18 7.95-7.79 12.933-15.892 12.933-6.536 0-10.431-3.119-10.431-8.1 0-6.701 8.568-9.97 19.314-13.397 16.512-5.295 39.097-12.151 39.097-36.449 0-21.961-15.886-35.979-37.379-35.979" style="fill:#fff;fill-opacity:1;fill-rule:nonzero;stroke:none"/></g></svg>