<svg xmlns="http://www.w3.org/2000/svg" xml:space="preserve" width="328.44638" height="328.44638" viewBox="0 0 328.44638 328.44638"><defs><clipPath id="a" clipPathUnits="userSpaceOnUse"><path d="M0 383h370V0H0Z"/></clipPath></defs><g transform="matrix(1.33333 0 0 -1.33333 -51.991 413.37)"><circle cx="162.16081" cy="-186.86015" r="123.1674" style="fill:#f9f9f9;stroke:#fff;stroke-width:0" transform="scale(1 -1)"/><path d="m0 0-26.506 26.503L-52.887.119l-10.78 10.779 31.782 31.785 15.606-15.625V47.84h-31.997L-64 64.235H0Zm-76.276 76.443V-3.51l44.616-18.58L12.656-3.221v79.664z" style="fill:#00336d;fill-opacity:1;fill-rule:nonzero;stroke:none" transform="translate(194.031 154.075)"/><path d="m0 0 47.463-20.178L93.961-.215v84.128H.085Zm47.481-22.941L-2.56-1.682l.093 88.156h98.969V-1.885Z" style="fill:#00336d;fill-opacity:1;fill-rule:nonzero;stroke:none" transform="translate(115.241 149.436)"/><g clip-path="url(#a)" transform="translate(-22.778 -3.374)"><path d="M0 0c-44.342 0-80.302 35.953-80.302 80.315 0 44.352 35.96 80.306 80.302 80.306 44.354 0 80.305-35.954 80.305-80.306C80.305 35.953 44.354 0 0 0m0 199.341c-65.737 0-119.025-53.287-119.025-119.026C-119.025 14.578-65.737-38.721 0-38.721c65.736 0 119.029 53.299 119.029 119.036 0 65.739-53.293 119.026-119.029 119.026" style="fill:#00336d;fill-opacity:1;fill-rule:nonzero;stroke:none" transform="translate(184.998 111.19)"/><path d="M0 0c0-1.981-1.617-3.577-3.602-3.577A3.578 3.578 0 0 0-7.191 0a3.598 3.598 0 0 0 3.589 3.604A3.608 3.608 0 0 0 0 0" style="fill:#fff;fill-opacity:1;fill-rule:nonzero;stroke:none" transform="translate(288.143 212.59)"/><path d="M0 0a3.58 3.58 0 0 0-3.59-3.577c-1.985 0-3.6 1.596-3.6 3.577a3.606 3.606 0 0 0 3.6 3.604A3.598 3.598 0 0 0 0 0" style="fill:#fff;fill-opacity:1;fill-rule:nonzero;stroke:none" transform="translate(89.398 212.59)"/><path d="m0 0-.103-3.637c-.026-.985.01-1.698.13-2.123.159-.578.438-1.012.807-1.301.381-.305.863-.461 1.458-.471a2.545 2.545 0 0 1 1.484.358c.435.259.732.631.9 1.125.167.501.278 1.337.297 2.551l.092 3.349zm-7.774.206-.112-4.198c-.018-.72 0-1.211.037-1.506.084-.515.234-.949.428-1.301a2.43 2.43 0 0 1 .919-.873 2.902 2.902 0 0 1 1.409-.378c.612-.013 1.177.136 1.64.451.467.306.82.734 1.013 1.307.195.558.315 1.375.345 2.45l.111 3.885zm-1.922 2.263 16.812-.438-.178-6.308c-.036-1.281-.222-2.309-.584-3.082-.361-.75-.898-1.362-1.624-1.769-.723-.429-1.465-.631-2.225-.604a3.846 3.846 0 0 0-2.014.64c-.63.399-1.121 1.012-1.493 1.799-.333-1.003-.853-1.772-1.594-2.3-.725-.527-1.58-.787-2.562-.76-.788.037-1.522.203-2.178.558-.669.352-1.18.786-1.542 1.277-.343.492-.604 1.122-.769 1.855-.168.757-.243 1.653-.223 2.731z" style="fill:#fff;fill-opacity:1;fill-rule:nonzero;stroke:none" transform="translate(86.234 198.055)"/><path d="m0 0 .279-2.217-9.641-1.201c-1.67-.202-3.034-.186-4.054.087-1.04.249-1.929.833-2.672 1.745-.742.926-1.215 2.18-1.409 3.783-.186 1.566-.075 2.887.333 3.925.418 1.075 1.114 1.885 2.078 2.43.965.553 2.329.945 4.103 1.161l9.646 1.194.269-2.217-9.62-1.187c-1.467-.186-2.505-.455-3.174-.797a3.15 3.15 0 0 1-1.41-1.586c-.295-.707-.37-1.533-.259-2.485.204-1.626.705-2.731 1.54-3.331.816-.608 2.281-.771 4.37-.512z" style="fill:#fff;fill-opacity:1;fill-rule:nonzero;stroke:none" transform="translate(94.38 175.773)"/><path d="m0 0 .753-1.967c-.78-.326-1.392-.74-1.802-1.23-.426-.492-.687-1.158-.798-1.989-.111-.822-.036-1.699.222-2.615.223-.826.55-1.502.968-2.066.426-.541.891-.93 1.398-1.115.511-.186 1.012-.213 1.513-.057a2.2 2.2 0 0 1 1.207.807c.297.4.482.984.546 1.734.048.475.03 1.523-.027 3.103-.066 1.582-.018 2.725.129 3.411.186.88.52 1.607 1.003 2.154a3.896 3.896 0 0 0 1.865 1.128c.816.236 1.64.223 2.495-.043.834-.263 1.559-.79 2.19-1.575.612-.784 1.077-1.719 1.392-2.805.333-1.207.445-2.32.315-3.338-.129-1.031-.501-1.891-1.113-2.611-.612-.692-1.391-1.196-2.321-1.5L9.193-8.57c.994.402 1.661.992 2.006 1.771.342.791.333 1.813-.01 3.043-.362 1.309-.883 2.18-1.513 2.635-.651.461-1.299.594-1.966.398a1.933 1.933 0 0 1-1.263-1.021c-.259-.527-.342-1.713-.24-3.569.103-1.847.092-3.144-.019-3.857-.167-1.068-.519-1.922-1.058-2.562-.538-.645-1.243-1.088-2.114-1.329-.854-.242-1.744-.22-2.635.055-.909.281-1.709.817-2.376 1.625-.686.807-1.206 1.779-1.521 2.93-.408 1.476-.547 2.758-.398 3.873.138 1.098.564 2.076 1.251 2.857C-1.958-.904-1.067-.334 0 0" style="fill:#fff;fill-opacity:1;fill-rule:nonzero;stroke:none" transform="translate(83.776 169.87)"/><path d="m0 0 2.338-5.195 3.534 3.496C6.93-.631 7.828.205 8.561.816A20.841 20.841 0 0 0 5.26.332Zm-8.286 1.594 17.98.994.983-2.19-12.513-13.166-1.051 2.313L.954-6.576-1.921-.158-7.32-.551z" style="fill:#fff;fill-opacity:1;fill-rule:nonzero;stroke:none" transform="translate(90.883 152.635)"/><path d="m0 0 14.111 9.129 1.233-1.922-6.29-14.58L20.14-.213l1.17-1.791-14.129-9.129-1.243 1.922 6.298 14.59L1.15-1.801Z" style="fill:#fff;fill-opacity:1;fill-rule:nonzero;stroke:none" transform="translate(90.057 138.217)"/><path d="m0 0 11.985 11.783 1.552-1.582-5.947-5.84 11.818-.109 2.107-2.154-9.807.252L9.742-9.914l-2.06 2.088 1.866 10.24-3.833.086-4.157-4.082Z" style="fill:#fff;fill-opacity:1;fill-rule:nonzero;stroke:none" transform="translate(103.21 119.707)"/><path d="m0 0 4.12 5.807.317 11.65 2.206-1.566-.232-6.049a55.939 55.939 0 0 0-.243-3.315c.92.418 1.988.883 3.213 1.368l5.52 2.15 2.103-1.482L5.938 4.516 1.81-1.291Z" style="fill:#fff;fill-opacity:1;fill-rule:nonzero;stroke:none" transform="translate(121.18 103.541)"/><path d="m0 0 2.006-.979-4.233-8.738c-.723-1.539-1.482-2.65-2.262-3.385-.779-.712-1.754-1.15-2.922-1.259-1.158-.143-2.479.146-3.944.851-1.41.697-2.449 1.49-3.124 2.42-.66.92-.967 1.942-.901 3.063.063 1.091.483 2.455 1.253 4.072l4.229 8.74 2.014-.976-4.231-8.727c-.65-1.307-.984-2.35-1.038-3.08a3.105 3.105 0 0 1 .566-2.061c.416-.623 1.076-1.15 1.929-1.558 1.485-.703 2.681-.883 3.637-.522.956.371 1.883 1.506 2.8 3.399z" style="fill:#fff;fill-opacity:1;fill-rule:nonzero;stroke:none" transform="translate(149.002 106.863)"/><path d="m0 0 4.815 16.107 2.182-.65L11.682.268l3.776 12.656 2.047-.613-4.823-16.114-2.18.66-4.675 15.184L2.041-.621Z" style="fill:#fff;fill-opacity:1;fill-rule:nonzero;stroke:none" transform="translate(147.37 89.316)"/><path d="m0 0 .249 1.951 7.069-.877-.777-6.195c-1.188-.721-2.405-1.24-3.599-1.529a10.175 10.175 0 0 0-3.639-.205c-1.64.205-3.079.75-4.34 1.615A7.127 7.127 0 0 0-7.69-1.818c-.501 1.42-.668 2.931-.464 4.584A10.456 10.456 0 0 0-6.559 7.18c.853 1.32 1.967 2.246 3.321 2.767 1.365.528 2.875.684 4.529.471 1.205-.148 2.281-.484 3.209-1.002.917-.508 1.614-1.15 2.077-1.91.465-.777.78-1.736.927-2.895l-2.059-.295c-.147.883-.371 1.586-.687 2.114-.306.547-.796.982-1.446 1.363-.649.389-1.391.631-2.245.73-.992.133-1.893.086-2.673-.119-.768-.222-1.41-.554-1.93-1.002a5.678 5.678 0 0 1-1.26-1.513c-.558-.973-.91-2.076-1.057-3.272-.186-1.492-.093-2.767.295-3.832.39-1.066 1.04-1.902 1.959-2.512A6.878 6.878 0 0 1-.576-4.852a7.388 7.388 0 0 1 2.868.206c.954.259 1.707.556 2.226.919l.38 3.116z" style="fill:#fff;fill-opacity:1;fill-rule:nonzero;stroke:none" transform="translate(172.67 90.18)"/><path d="m0 0 2.087.242c.13-.832.389-1.523.76-2.041.39-.527.968-.945 1.736-1.264.771-.304 1.644-.431 2.595-.416.848.032 1.59.176 2.239.446.628.269 1.111.64 1.41 1.086.304.457.443.926.423 1.459a2.055 2.055 0 0 1-.498 1.361c-.318.381-.835.697-1.539.945-.459.161-1.466.403-3.015.727-1.549.322-2.644.641-3.276.945-.817.393-1.437.897-1.845 1.504a3.803 3.803 0 0 0-.66 2.076 4.334 4.334 0 0 0 .65 2.403c.463.759 1.141 1.338 2.058 1.752.912.408 1.932.63 3.063.671 1.254.036 2.355-.132 3.32-.505.967-.377 1.709-.936 2.246-1.705.539-.766.834-1.643.911-2.622l-2.118-.222c-.146 1.062-.574 1.842-1.24 2.373-.687.521-1.674.76-2.955.723-1.352-.047-2.325-.329-2.92-.833-.603-.511-.9-1.115-.872-1.818.019-.607.251-1.099.695-1.461.449-.387 1.579-.742 3.396-1.103 1.818-.342 3.074-.668 3.75-.948 1.002-.427 1.742-.97 2.223-1.652.486-.666.744-1.463.781-2.371a4.63 4.63 0 0 0-.694-2.543c-.492-.816-1.209-1.449-2.144-1.922-.965-.463-2.024-.723-3.229-.76-1.523-.039-2.793.141-3.841.549-1.039.408-1.874 1.055-2.486 1.928A5.78 5.78 0 0 0 0 0" style="fill:#fff;fill-opacity:1;fill-rule:nonzero;stroke:none" transform="translate(181.501 88.092)"/><path d="m0 0 5.602.996-2.541 4.279c-.768 1.301-1.372 2.37-1.784 3.223A21.874 21.874 0 0 0 .953 5.18Zm-3.58-7.645 3.432 17.672 2.355.428L11.91-4.908l-2.496-.434-2.81 4.674-6.938-1.236-.92-5.334z" style="fill:#fff;fill-opacity:1;fill-rule:nonzero;stroke:none" transform="translate(199.935 90.793)"/><path d="m0 0-5.41 15.912 2.154.742 12.61-9.648L5.1 19.498l2.023.691 5.42-15.921-2.154-.723-12.616 9.644L2.02.688Z" style="fill:#fff;fill-opacity:1;fill-rule:nonzero;stroke:none" transform="translate(213.72 86.469)"/><path d="m0 0-.936 1.73 6.262 3.389L8.295-.387c-.557-1.267-1.244-2.388-2.061-3.316a9.993 9.993 0 0 0-2.82-2.283C1.951-6.768.465-7.182-1.055-7.195c-1.533-.006-2.914.402-4.158 1.254-1.23.853-2.246 2.002-3.023 3.451a10.476 10.476 0 0 0-1.282 4.529c-.064 1.566.299 2.967 1.116 4.186.797 1.224 1.927 2.213 3.404 3.011 1.076.575 2.131.93 3.189 1.039 1.053.12 1.989.01 2.811-.341.816-.362 1.633-.965 2.422-1.819L1.912 6.668C1.301 7.309.707 7.744.139 7.992c-.563.26-1.223.356-1.973.279-.754-.072-1.494-.304-2.248-.703-.889-.48-1.596-1.039-2.104-1.67-.5-.613-.845-1.253-.994-1.919a5.674 5.674 0 0 1-.146-1.969c.109-1.112.465-2.217 1.039-3.285.713-1.315 1.529-2.299 2.465-2.94.929-.637 1.951-.955 3.052-.91a7.02 7.02 0 0 1 3.11.838 7.538 7.538 0 0 1 2.226 1.834c.631.764 1.055 1.437 1.272 2.031L4.354 2.346Z" style="fill:#fff;fill-opacity:1;fill-rule:nonzero;stroke:none" transform="translate(233.832 101.863)"/><path d="m0 0 2.051 1.049c.836-1.699 1.115-3.303.816-4.824C2.582-5.289 1.771-6.617.438-7.758-.936-8.945-2.289-9.619-3.637-9.814c-1.343-.176-2.687.076-4.054.75a11.221 11.221 0 0 0-3.608 2.839c-1.137 1.317-1.894 2.688-2.232 4.112-.336 1.425-.272 2.797.228 4.125.494 1.306 1.297 2.459 2.432 3.433C-9.6 6.541-8.246 7.131-6.826 7.236c1.437.104 2.818-.297 4.176-1.17l-1.332-1.828c-1.09.676-2.094.985-3.02.912-.928-.056-1.818-.459-2.674-1.187-.974-.838-1.586-1.774-1.851-2.811a4.98 4.98 0 0 1 .238-3.08 10.188 10.188 0 0 1 1.717-2.797c.939-1.091 1.914-1.892 2.912-2.425 1.019-.551 2.031-.717 3.033-.551A5.477 5.477 0 0 1-.936-6.438c.95.807 1.504 1.772 1.69 2.883C.939-2.439.697-1.25 0 0" style="fill:#fff;fill-opacity:1;fill-rule:nonzero;stroke:none" transform="translate(256.05 117.057)"/><path d="M0 0c1.559-1.301 3.131-1.902 4.73-1.805 1.594.073 2.915.748 3.969 2.016 1.076 1.285 1.504 2.723 1.287 4.305C9.785 6.105 8.85 7.588 7.18 8.973c-1.039.892-2.117 1.472-3.192 1.767-1.076.289-2.103.283-3.119-.035-1.002-.322-1.851-.906-2.576-1.76-1.002-1.207-1.459-2.591-1.356-4.168C-2.961 3.209-1.941 1.623 0 0m-1.504-1.746C-3.637.066-4.836 2.023-5.084 4.203c-.242 2.151.391 4.139 1.91 5.967.99 1.185 2.172 2.018 3.545 2.506 1.359.48 2.76.543 4.207.191 1.434-.342 2.795-1.058 4.086-2.133 1.316-1.105 2.262-2.339 2.85-3.74.599-1.381.75-2.783.47-4.193a8.35 8.35 0 0 0-1.818-3.803C9.145-2.213 7.949-3.053 6.57-3.525a7.312 7.312 0 0 0-4.224-.159 9.678 9.678 0 0 0-3.85 1.938" style="fill:#fff;fill-opacity:1;fill-rule:nonzero;stroke:none" transform="translate(258.494 122.715)"/><path d="m0 0-14.438 8.607 1.133 1.895L-.557 2.93l4.229 7.107 1.707-1.019z" style="fill:#fff;fill-opacity:1;fill-rule:nonzero;stroke:none" transform="translate(275.953 131.853)"/><path d="m0 0-15.373 6.83.92 2.024L-.908 2.838l3.357 7.572 1.809-.806z" style="fill:#fff;fill-opacity:1;fill-rule:nonzero;stroke:none" transform="translate(282.39 143.031)"/><path d="m0 0-16.127 4.742 3.414 11.671 1.912-.565-2.804-9.537 4.945-1.436 2.627 8.922 1.892-.553-2.625-8.928 5.493-1.601 2.906 9.898 1.91-.558z" style="fill:#fff;fill-opacity:1;fill-rule:nonzero;stroke:none" transform="translate(287.588 155.127)"/><path d="m0 0-1.965.249.897 7.068 6.181-.787c.733-1.194 1.244-2.383 1.52-3.599.295-1.208.361-2.423.215-3.634-.215-1.633-.752-3.073-1.625-4.334a6.881 6.881 0 0 0-3.432-2.648c-1.414-.505-2.934-.673-4.572-.462-1.614.216-3.094.734-4.42 1.603-1.315.856-2.235 1.962-2.754 3.315-.518 1.375-.678 2.884-.461 4.537.148 1.224.471 2.269.992 3.199.51.926 1.16 1.622 1.918 2.09.762.461 1.725.769 2.893.906l.299-2.048c-.889-.142-1.594-.364-2.114-.689-.549-.306-1.002-.787-1.375-1.448-.381-.636-.629-1.396-.732-2.233-.139-1.012-.084-1.901.129-2.681.217-.77.541-1.421.986-1.922a5.537 5.537 0 0 1 1.512-1.267c.982-.561 2.078-.912 3.283-1.062 1.482-.192 2.764-.092 3.822.289 1.065.388 1.912 1.038 2.526 1.957A6.923 6.923 0 0 1 4.834-.577 7.364 7.364 0 0 1 4.639 2.3c-.25.945-.565 1.679-.916 2.207l-3.104.397Z" style="fill:#fff;fill-opacity:1;fill-rule:nonzero;stroke:none" transform="translate(286.315 179.075)"/><path d="m0 0-16.811-.491-.351 12.145 1.974.06.299-9.935 5.147.159-.285 9.294 1.974.057.278-9.294 5.72.166-.3 10.326 1.984.056z" style="fill:#fff;fill-opacity:1;fill-rule:nonzero;stroke:none" transform="translate(293.783 188.833)"/><path d="m0 0 5.214 10.685 2.821-1.38L2.812-1.403Zm-6.195-1.579 7.338-3.584c2.029-.989 2.995 1.45 2.995 1.45l7.775 15.941-9.62 4.629-2.617-3.435 3.664-1.788-5.187-10.632-3.487 1.706-2.411-4.935 1.03-.444z" style="fill:#fff;fill-opacity:1;fill-rule:nonzero;stroke:none" transform="translate(89.722 234.237)"/><path d="m0 0 1.837-.976 4.677 9.444 6.225-3.033 1.798 3.693-6.346 3.08 4.833 9.898-1.808.883z" style="fill:#fff;fill-opacity:1;fill-rule:nonzero;stroke:none" transform="translate(93.573 225.162)"/><path d="M0 0c3.217-1.162 8.284.335 8.284.335l.168 2.041C1.641 1.493-.418 3.68-.418 3.68l-2.077 2.21-3.989-3.604.63-.6.75.676L-3.758.869c2.275-2.737.465-9.155.465-9.155l2.05.047C.677-4.257 0 0 0 0" style="fill:#fff;fill-opacity:1;fill-rule:nonzero;stroke:none" transform="translate(113.612 266.763)"/><path d="m0 0-1.528 1.692-1.948-1.745-3.554 3.932-3.479-2.05L3.332-13.532l-9.323-8.408-4.278 4.752-3.042-2.748 4.406-4.888s1.059-1.483 2.95.213L8.621-11.484l-1.309 1.446-.984-.899-8.276 9.179z" style="fill:#fff;fill-opacity:1;fill-rule:nonzero;stroke:none" transform="translate(128.277 278.078)"/><path d="m0 0-4.192-.75-9.891-3.992.798-2.004 8.777 3.547c.184-5.439-6.7-10.306-6.7-10.306l1.968-1.089C.121-8.926 0 0 0 0" style="fill:#fcfcfd;fill-opacity:1;fill-rule:nonzero;stroke:none" transform="translate(149.152 293.72)"/><path d="M0 0c-3.154-1.291-6.132-1.291-6.651-.006-.52 1.267 1.632 3.328 4.796 4.615 3.161 1.274 6.14 1.281 6.66.014C5.306 3.348 3.172 1.271 0 0m8.636 6.381h.01L2.299 22.08l-3.857-.847 1.409-3.487-3.227-1.304.816-2.054 3.245 1.298.558-1.361-3.182-1.291.862-2.104 3.172 1.278 1.54-3.823c-1.909-.023-4.166-.491-6.437-1.41-5.344-2.16-8.814-6.003-7.775-8.578C-9.539-4.174-4.37-4.526.964-2.366 6.288-.216 9.777 3.627 8.72 6.205a1.012 1.012 0 0 1-.084.176" style="fill:#fcfcfd;fill-opacity:1;fill-rule:nonzero;stroke:none" transform="translate(154.57 276.001)"/><path d="M0 0c1.604-3.013 6.374-5.306 6.374-5.306l1.474 1.417C2.207 0 2.132 3.026 2.132 3.026l-.055 3.013h-5.38l.074-.863h1.021v-2.01c-.13-3.561-5.791-7.115-5.791-7.115l1.55-1.357C-2.338-3.627 0 0 0 0" style="fill:#fcfdfe;fill-opacity:1;fill-rule:nonzero;stroke:none" transform="translate(180.62 295.168)"/><path d="M0 0c-3.424 0-6.18 1.115-6.18 2.479 0 1.374 2.756 2.495 6.18 2.495 3.414 0 6.168-1.121 6.168-2.495C6.168 1.115 3.414 0 0 0m10.398 11.979h2.959v2.217h-2.959v5.415l-3.886.67V6.404C4.715 7.101 2.457 7.526 0 7.526c-5.753 0-10.409-2.263-10.409-5.047 0-2.774 4.656-5.031 10.409-5.031 5.75 0 10.398 2.257 10.398 5.031 0 .076 0 .149-.009.202h.009z" style="fill:#fcfdfe;fill-opacity:1;fill-rule:nonzero;stroke:none" transform="translate(185.928 281.705)"/><path d="m0 0-3.01-7.457-1.91.77L-2.189.096l-3.436 2.233-5.766-14.288-8.568 3.454 4.5 11.133 7.09-2.857.834 2.067-10.975 4.433-5.279-13.097s-1.213-1.788 1.773-3.072l9.842-3.976-1.912-4.762 3.723-1.503 4.732 11.697 1.918-.78-4.758-11.743 3.729-1.513L3.432-2.227z" style="fill:#fefeff;fill-opacity:1;fill-rule:nonzero;stroke:none" transform="translate(232.74 291.79)"/><path d="M0 0c1.313 1.364 3.836 1.079 5.646-.667 1.793-1.722 2.18-4.247.854-5.618-1.318-1.367-3.85-1.062-5.65.667C-.936-3.886-1.322-1.37 0 0m9.117-8.68c.891.926 1.252 2.196 1.123 3.626l1.725-1.669 1.514 1.567L8.664-.507 9.832.697 6.975 3.455 5.813 2.247 1.193 6.7-.318 5.14l1.687-1.629c-1.41.073-2.691-.328-3.58-1.241C-4.309.086-3.482-4.125-.355-7.151c3.134-3.013 7.367-3.709 9.472-1.529" style="fill:#fefdfe;fill-opacity:1;fill-rule:nonzero;stroke:none" transform="translate(248.42 274.421)"/><path d="m0 0-1.928 1.865 4.18 4.33-2.336 3.352-10.047-10.4-11.004 10.632-1.316-1.364 10.992-10.631-4.34-4.5 2.893-2.794L-3.283.468-1.365-1.4z" style="fill:#fefdfe;fill-opacity:1;fill-rule:nonzero;stroke:none" transform="translate(265.107 259.96)"/><path d="m0 0 14.248 6.938-1.002 3.767-7.572 15.536-1.705-.843 7.486-15.354-13.207-6.437-1.32 2.698 8.47 4.147-1.761 3.617-8.481-4.148-1.314 2.722 8.469 4.128-1.766 3.616-8.469-4.137-1.799 3.692-1.699-.836L-.93-2.433l1.717.824z" style="fill:#fff;fill-opacity:1;fill-rule:nonzero;stroke:none" transform="translate(273.764 226.938)"/></g></g></svg>