<svg xmlns="http://www.w3.org/2000/svg" width="422.63483mm" height="282.54431mm" viewBox="0 0 422.63483 282.54431"><g style="stroke-width:.118537"><path d="M77.262 284.471h-8.75v-1.986h8.75zm-11.673-4.68v9.573h2.923v-2.222h8.75v2.222h2.945v-9.573zm8.749-4.421v-6.523H71.37v6.523h-8.155v2.719h19.344v-2.719z" style="fill:#a02f33;fill-opacity:1;fill-rule:nonzero;stroke:none;stroke-width:.118537" transform="matrix(2.97609 0 0 -2.97609 -188.134 1046.294)"/><g style="stroke-width:.118537"><path d="M0 0v-6.217h-2.946V8.817H0V2.742h2.55V0Zm-13.871-11.512v6.524h2.967v-3.806H.638v-2.718zm7.606 8.273c-.821.379-1.664.902-2.528 1.572A9.786 9.786 0 0 0-10.992.709a9.092 9.092 0 0 0-1.923-2.506 14.071 14.071 0 0 0-2.583-1.914l-2.111 2.151c1.29.599 2.455 1.524 3.496 2.777 1.04 1.253 1.561 2.714 1.561 4.385V8.32h3.143V5.602c0-1.671.531-3.077 1.594-4.219C-6.753.24-5.643-.529-4.485-.922z" style="fill:#a02f33;fill-opacity:1;fill-rule:nonzero;stroke:none;stroke-width:.118537" transform="matrix(2.97609 0 0 -2.97609 112.986 210.515)"/></g><path d="M118.106 282.935h-8.661v-3.12h8.661zm-14.003-12.126v2.718h8.111v3.569h-5.715v11.677h2.945v-3.12h8.662v3.12h2.946v-11.677h-5.738v-3.569h8.134v-2.718z" style="fill:#a02f33;fill-opacity:1;fill-rule:nonzero;stroke:none;stroke-width:.118537" transform="matrix(2.97609 0 0 -2.97609 -188.134 1046.294)"/><g style="stroke-width:.118537"><path d="M0 0v6.24h-3.803v2.719H0v6.075h2.924V0Zm-11.278-5.295v6.524h2.99v-3.806H3.363v-2.718Zm4.804 11.098c-1.825-1.931-4.063-3.234-6.716-3.912l-1.736 2.151c2.359.488 4.235 1.493 5.627 3.014 1.392 1.52 2.088 2.887 2.088 4.101h-6.265v2.695h9.739c0-3.436-.912-6.119-2.737-8.049" style="fill:#a02f33;fill-opacity:1;fill-rule:nonzero;stroke:none;stroke-width:.118537" transform="matrix(2.97609 0 0 -2.97609 227.607 229.018)"/></g><g style="stroke-width:.118537"><path d="M0 0v9.975h-1.803V.945h-2.814v19.383h2.814v-7.185H0v7.658h2.814V0Zm-7.365 4.598c-.85-.135-2.015-.201-3.495-.201h-2.923v14.088h7.056v-2.742h-4.133V7.139h1.319a19.24 19.24 0 0 1 2.265.189c.791.11 1.333.189 1.626.236V4.869c-.293-.047-.864-.138-1.715-.271" style="fill:#a02f33;fill-opacity:1;fill-rule:nonzero;stroke:none;stroke-width:.118537" transform="matrix(2.97609 0 0 -2.97609 288.779 246.182)"/></g><g style="stroke-width:.118537"><path d="M0 0v-4.893h-2.946V8.344H0V2.837h2.55V0Zm-8.771-.366c-.469.196-1.033.295-1.693.295-.645 0-1.22-.103-1.726-.307-.505-.205-.758-.497-.758-.875s.249-.67.747-.875c.498-.205 1.078-.307 1.737-.307.674 0 1.242.107 1.704.319.461.213.692.509.692.887s-.234.665-.703.863m-5.056 8.899h6.573V6.145h-6.573zm10.771-20.99v3.995h-11.431v2.623H0v-6.618zm-3.44 8.734c-1.019-.654-2.356-.981-4.012-.981-1.48 0-2.777.327-3.891.981-1.114.654-1.67 1.477-1.67 2.47 0 1.024.56 1.84 1.681 2.447 1.121.606 2.436.91 3.946.91 1.597 0 2.909-.304 3.935-.91C-5.481.587-4.968-.221-4.968-1.229c0-1.009-.509-1.84-1.528-2.494M-16.619 5.2h12.223V2.765h-12.223z" style="fill:#a02f33;fill-opacity:1;fill-rule:nonzero;stroke:none;stroke-width:.118537" transform="matrix(2.97609 0 0 -2.97609 355.182 209.109)"/></g><g style="stroke-width:.118537"><path d="M0 0c-.367-2.088-.601-3.376-.704-3.865h-2.901c.029.127.186 1.171.472 3.132.286 1.962.443 3.763.473 5.402h-12.245v2.718H.549C.549 4.551.366 2.088 0 0m-16.839-9.089v2.719h4.111V.437h2.968V-6.37h1.934V.437h2.989V-6.37h7.343v-2.719z" style="fill:#a02f33;fill-opacity:1;fill-rule:nonzero;stroke:none;stroke-width:.118537" transform="matrix(2.97609 0 0 -2.97609 415.177 212.521)"/></g><g style="stroke-width:.118537"><path d="M0 0a6.202 6.202 0 0 0-5.532 6.165 6.202 6.202 0 0 0-6.202-6.202A6.202 6.202 0 0 0-5.532-6.24 6.202 6.202 0 0 0 .67-.037C.444-.037.22-.024 0 0" style="fill:#a02f33;fill-opacity:1;fill-rule:nonzero;stroke:none;stroke-width:.118537" transform="matrix(2.97609 0 0 -2.97609 227.78 55.25)"/></g><g style="stroke-width:.118537"><path d="m0 0-8.452-4.46v-11.647c1.908-1.244 5.692-2.495 8.139-2.495-2.447 0-6.231-1.251-8.139-2.495v-22.951c2.008 1.73 4.855 3.77 8.434 5.78z" style="fill:#a02f33;fill-opacity:1;fill-rule:nonzero;stroke:none;stroke-width:.118537" transform="matrix(2.97609 0 0 -2.97609 248.838 0)"/></g><g style="stroke-width:.118537"><path d="m0 0 8.452-4.46v-11.647C6.544-17.351 2.76-18.602.313-18.602c2.447 0 6.231-1.251 8.139-2.495v-22.951c-2.008 1.73-4.855 3.77-8.434 5.78z" style="fill:#a02f33;fill-opacity:1;fill-rule:nonzero;stroke:none;stroke-width:.118537" transform="matrix(2.97609 0 0 -2.97609 173.795 0)"/></g><g style="stroke-width:.118537"><path d="M0 0a3.403 3.403 0 0 0-3.393 3.393v1.916l-.001.022v28.352l-8.123.117V15.605c0-.583-.004-1.168-.009-1.752-.038-5.049-.074-9.208 2.568-11.647C-7.249.628-5.13-.209-2.993-.209c.793 0 2.739-.002 3.516.234h.002l-.006.02C.472.038.426.028.378.023A3.365 3.365 0 0 0 0 0" style="fill:#a02f33;fill-opacity:1;fill-rule:nonzero;stroke:none;stroke-width:.118537" transform="matrix(2.97609 0 0 -2.97609 293.457 100.592)"/></g><g style="stroke-width:.118537"><path d="M0 0c-.005.568-.009 19.856-.009 19.856h-8.088v-30.014c0-1.484-.96-3.014-2.289-3.482.471-.008 5.812.893 7.818 2.745C.067-8.463.037-4.729 0 0" style="fill:#a02f33;fill-opacity:1;fill-rule:nonzero;stroke:none;stroke-width:.118537" transform="matrix(2.97609 0 0 -2.97609 332.863 59.095)"/></g><g style="stroke-width:.118537"><path d="M0 0v17.647c4.469-1.607 7.544-4.952 7.544-8.823C7.544 4.954 4.469 1.607 0 0m16.601-9.075c-.634 2.913-2.332 4.898-4.279 6.251-.059.042-.122.081-.182.122a13.44 13.44 0 0 1-1.833 1.037 15.89 15.89 0 0 1-.537.243c-.057.024-.112.05-.17.073A19.638 19.638 0 0 1 5.107-.097c5.156.398 8.7 2.77 9.886 6.744.79 2.648.083 5.609-1.847 7.725-1.708 1.874-3.691 3.041-6.24 3.671-1.647.408-4.301.619-6.093.619H.769L0 18.666h-8.452v-32.431c2.195-.09 4.706-.279 8.452-.632V-.215c5.68-1.709 9.447-5.929 8.519-9.736-.658-2.699-3.507-4.493-7.184-4.923l.001-.005c2.148-.401 5.113-.988 7.791-1.693 2.105-.644 4.067-1.262 4.067-1.262s4.882 1.98 3.407 8.759" style="fill:#a02f33;fill-opacity:1;fill-rule:nonzero;stroke:none;stroke-width:.118537" transform="matrix(2.97609 0 0 -2.97609 118.122 55.553)"/></g><g style="stroke-width:.118537"><path d="m0 0-.049-.035C10.19 5.619 26.014 5.384 31.79 4.064l4.618 5.478c-7.86.231-19.164-.987-29.319-5.433 6.746 3.37 17.834 8.24 31.364 8.687l5.472 6.1C12.469 18.37-.049-.035-.049-.035" style="fill:#a02f33;fill-opacity:1;fill-rule:nonzero;stroke:none;stroke-width:.118537" transform="matrix(2.97609 0 0 -2.97609 211.463 160.177)"/></g><g style="stroke-width:.118537"><path d="M0 0s-12.518 18.405-43.975 18.931l5.473-6.1c13.529-.447 24.618-5.317 31.364-8.687-10.155 4.446-21.459 5.664-29.319 5.433l4.618-5.478C-26.064 5.419-10.239 5.654 0 0l-.049.035" style="fill:#a02f33;fill-opacity:1;fill-rule:nonzero;stroke:none;stroke-width:.118537" transform="matrix(2.97609 0 0 -2.97609 211.316 160.281)"/></g><g style="stroke-width:.118537"><path d="M0 0h2.575v.473H0v2.466h3.228v.473h-5.211v-7.264h5.311v.473H0Z" style="fill:#a02f33;fill-opacity:1;fill-rule:nonzero;stroke:none;stroke-width:.118537" transform="matrix(2.97609 0 0 -2.97609 141.488 270.622)"/></g><g style="stroke-width:.118537"><path d="M0 0h2.575v.473H0v2.466h3.228v.473h-5.211v-7.264h5.312v.473H0Z" style="fill:#a02f33;fill-opacity:1;fill-rule:nonzero;stroke:none;stroke-width:.118537" transform="matrix(2.97609 0 0 -2.97609 320.881 270.622)"/></g><g style="stroke-width:.118537"><path d="M0 0h-1.983l.001-7.264h5.104v.472H0Z" style="fill:#a02f33;fill-opacity:1;fill-rule:nonzero;stroke:none;stroke-width:.118537" transform="matrix(2.97609 0 0 -2.97609 182.078 260.467)"/></g><path d="M158.609 256.783h1.983v7.264h-1.983zM188.949 256.783h1.983v7.264h-1.983z" style="fill:#a02f33;fill-opacity:1;fill-rule:nonzero;stroke:none;stroke-width:.118537" transform="matrix(2.97609 0 0 -2.97609 -188.134 1046.294)"/><g style="stroke-width:.118537"><path d="M0 0c-.204-.217-.533-.327-.975-.327h-.824v3.48h.42c.597 0 1.016-.15 1.247-.446.242-.31.372-.747.384-1.294C.252.411.095.099 0 0m-1.799 5.991h.017c.654 0 .91-.14 1.012-.263.143-.159.215-.452.215-.869 0-.625-.13-.869-.238-.964-.206-.178-.539-.269-.989-.269h-.017Zm3.186-3.076a3.78 3.78 0 0 1-1.136.505c.782.277 1.178.766 1.178 1.46 0 1.051-1.081 1.584-3.211 1.584h-2V-.8h2.807c.952 0 1.727.185 2.302.551.603.383.909.942.909 1.662 0 .617-.286 1.123-.849 1.502" style="fill:#a02f33;fill-opacity:1;fill-rule:nonzero;stroke:none;stroke-width:.118537" transform="matrix(2.97609 0 0 -2.97609 12.827 279.705)"/></g><g style="stroke-width:.118537"><path d="M0 0v-.906a.923.923 0 0 0 .004-.091v-2.635c0-1.017-.129-1.794-.384-2.31-.299-.606-.805-.9-1.549-.9-.304 0-1.227 0-1.227 1.791v4.054L-3.159 0v-1.551V0h-1.983v-.95l.002-.047v-2.838c0-1.098.232-1.93.69-2.472.565-.669 1.413-1.008 2.521-1.008.926 0 1.589.391 1.971 1.163.287.58.433 1.428.433 2.52V0Z" style="fill:#a02f33;fill-opacity:1;fill-rule:nonzero;stroke:none;stroke-width:.118537" transform="matrix(2.97609 0 0 -2.97609 37.857 260.467)"/></g><g style="stroke-width:.118537"><path d="M0 0v-.906a.923.923 0 0 0 .004-.091v-2.635c0-1.017-.129-1.794-.384-2.31-.298-.606-.805-.9-1.549-.9-.304 0-1.227 0-1.227 1.791v4.054L-3.159 0v-1.551V0h-1.983v-.95l.002-.047v-2.838c0-1.098.232-1.93.69-2.472.565-.669 1.413-1.008 2.521-1.008.926 0 1.589.391 1.971 1.163.287.58.433 1.428.433 2.52V0Z" style="fill:#a02f33;fill-opacity:1;fill-rule:nonzero;stroke:none;stroke-width:.118537" transform="matrix(2.97609 0 0 -2.97609 257.016 260.467)"/></g><g style="stroke-width:.118537"><path d="m0 0 .87 2.668L1.731 0Zm2.59 3.784c-.188.583-.474.879-.851.879h-.718L.62 3.424l.001-.001-.243-.749-.002-.006.002.006-1.377-4.242c-.006-.019-.016-.031-.023-.049l-.305-.985h.5l.271.874.002.007.006.016.21.679-.21-.679.404 1.232h2.028l.406-1.25a1.35 1.35 0 0 0 .041-.16l.229-.719h2.122z" style="fill:#a02f33;fill-opacity:1;fill-rule:nonzero;stroke:none;stroke-width:.118537" transform="matrix(2.97609 0 0 -2.97609 64.028 274.344)"/></g><g style="stroke-width:.118537"><path d="m0 0 .87 2.668L1.731 0Zm2.59 3.784c-.188.583-.474.879-.851.879h-.718L.62 3.424l.001-.001-.243-.749-.002-.006.002.006-1.377-4.242c-.006-.019-.016-.031-.023-.049l-.305-.985h.5l.271.874.002.007.006.016.21.679-.21-.679.404 1.232h2.028l.405-1.25a1.21 1.21 0 0 0 .042-.16l.229-.719h2.122z" style="fill:#a02f33;fill-opacity:1;fill-rule:nonzero;stroke:none;stroke-width:.118537" transform="matrix(2.97609 0 0 -2.97609 157.443 274.344)"/></g><g style="stroke-width:.118537"><path d="M0 0v-5.042L-2.951 0H-4.74V-7.264h.47v5.585L-1-7.264H.47V0Z" style="fill:#a02f33;fill-opacity:1;fill-rule:nonzero;stroke:none;stroke-width:.118537" transform="matrix(2.97609 0 0 -2.97609 95.547 260.467)"/></g><g style="stroke-width:.118537"><path d="M0 0v-5.042L-2.951 0H-4.74V-7.264h.47v5.585L-1-7.264H.471V0Z" style="fill:#a02f33;fill-opacity:1;fill-rule:nonzero;stroke:none;stroke-width:.118537" transform="matrix(2.97609 0 0 -2.97609 276.919 260.467)"/></g><g style="stroke-width:.118537"><path d="M0 0a.978.978 0 0 1-.978-.978v-2.063h-2.051v2.044c0 .824-.32.997-.588.997h-1.395V-7.264H-3.029v3.75h2.051v-3.75h1.96V0Z" style="fill:#a02f33;fill-opacity:1;fill-rule:nonzero;stroke:none;stroke-width:.118537" transform="matrix(2.97609 0 0 -2.97609 127.205 260.467)"/></g><g style="stroke-width:.118537"><path d="M0 0a.977.977 0 0 1-.977-.978v-2.063h-2.052v2.044c0 .824-.319.997-.588.997h-1.395V-7.264H-3.029v3.75h2.052v-3.75H.982V0Z" style="fill:#a02f33;fill-opacity:1;fill-rule:nonzero;stroke:none;stroke-width:.118537" transform="matrix(2.97609 0 0 -2.97609 225.812 260.467)"/></g><g style="stroke-width:.118537"><path d="M0 0H-6.018v-.473h2.017v-6.791h1.984v6.791H0Z" style="fill:#a02f33;fill-opacity:1;fill-rule:nonzero;stroke:none;stroke-width:.118537" transform="matrix(2.97609 0 0 -2.97609 207.68 260.467)"/></g><g style="stroke-width:.118537"><path d="M0 0H-6.018v-.473h2.017v-6.791h1.984v6.791H0Z" style="fill:#a02f33;fill-opacity:1;fill-rule:nonzero;stroke:none;stroke-width:.118537" transform="matrix(2.97609 0 0 -2.97609 401.04 260.467)"/></g><g style="stroke-width:.118537"><path d="m0 0-.588-1.81L0 0h.457l-.636-1.956-1.676-5.308h-.766c-.256 0-.604.126-.801.73l-1.795 5.5-.009.018L-5.56 0h1.713a.453.453 0 0 0 .395-.205c.044-.061.122-.201.273-.677l1.44-4.47L-.29-.893" style="fill:#a02f33;fill-opacity:1;fill-rule:nonzero;stroke:none;stroke-width:.118537" transform="matrix(2.97609 0 0 -2.97609 309.834 260.467)"/></g><g style="stroke-width:.118537"><path d="M0 0h-.824v3.48H0c.527 0 1.227-.18 1.227-1.74S.527 0 0 0m1.979-.64v.001-.001l-.236.494c.412.174.749.408 1.006.697.306.345.462.738.462 1.169 0 .726-.306 1.29-.908 1.677-.576.369-1.351.556-2.303.556h-2.807v-7.264h1.983v2.838h.607l.946-1.978c.256-.579.544-.86.882-.86h1.7z" style="fill:#a02f33;fill-opacity:1;fill-rule:nonzero;stroke:none;stroke-width:.118537" transform="matrix(2.97609 0 0 -2.97609 342.326 272.232)"/></g><g style="stroke-width:.118537"><path d="M0 0h-.576l-.681-1.394-.94-1.927-1.242 2.466C-3.695-.28-3.985 0-4.323 0h-1.74l1.223-2.486.957-1.9.007-2.878h1.984L-1.9-3.787Z" style="fill:#a02f33;fill-opacity:1;fill-rule:nonzero;stroke:none;stroke-width:.118537" transform="matrix(2.97609 0 0 -2.97609 421.061 260.467)"/></g><g style="stroke-width:.118537"><path d="m0 0-1.953 1.654c-.362.309-.538.651-.538 1.047 0 .161.001.573.856.538 1.269-.051 2.421-.602 2.47-.707v.552c-.022-.006-1.177.635-2.49.635-.67 0-1.245-.146-1.709-.434-.391-.241-.642-.54-.757-.89a1.465 1.465 0 0 1-.074-.458c0-.184.026-.364.074-.54.129-.473.428-.912.898-1.309l1.953-1.655c.244-.208.415-.514.378-.891a.801.801 0 0 0-.3-.572c-.193-.159-.532-.237-.833-.216-1.245.084-1.943.661-2.096.805v-.663s.934-.646 2.143-.646c.827 0 1.532.122 2.074.416.675.359 1.008.882 1.008 1.5C1.104-1.141.729-.521 0 0" style="fill:#a02f33;fill-opacity:1;fill-rule:nonzero;stroke:none;stroke-width:.118537" transform="matrix(2.97609 0 0 -2.97609 366.586 271.384)"/></g><g style="stroke-width:.118537"><path d="m0 0-1.953 1.654c-.362.309-.538.651-.538 1.047 0 .161.001.573.856.538 1.268-.051 2.421-.602 2.47-.707v.552c-.022-.006-1.177.635-2.49.635-.67 0-1.245-.146-1.709-.434-.391-.241-.642-.54-.757-.89a1.465 1.465 0 0 1-.074-.458c0-.184.026-.364.074-.54.129-.473.428-.912.898-1.309l1.953-1.655c.244-.208.415-.514.378-.891a.803.803 0 0 0-.299-.572c-.194-.159-.533-.237-.834-.216-1.245.084-1.943.661-2.096.805v-.663s.934-.646 2.144-.646c.826 0 1.531.122 2.073.416.675.359 1.008.882 1.008 1.5C1.104-1.141.729-.521 0 0" style="fill:#a02f33;fill-opacity:1;fill-rule:nonzero;stroke:none;stroke-width:.118537" transform="matrix(2.97609 0 0 -2.97609 55.216 271.384)"/></g></g></svg>