<svg xmlns="http://www.w3.org/2000/svg" width="186.25606mm" height="183.04985mm" viewBox="0 0 186.25606 183.04985"><path d="M0 0c5.715-3.674 1.76-10.762-6.057-16.443-7.871-5.717-15.912-7.416-17.639-.842-1.727-6.574-9.691-5.004-17.509.676-7.87 5.718-11.969 12.841-6.253 16.515-6.785-.388-7.751 7.67-4.765 16.863 3.007 9.252 8.514 15.352 13.773 11.051-2.465 6.329 4.902 9.74 14.564 9.74 9.73 0 17.232-3.353 14.767-9.684C-3.86 32.178 1.66 26.225 4.646 17.035 7.652 7.781 6.782-.39 0 0m15.49 20.196s-4.712.014-11.003 10.523c0 0-4.684 5.881-9.03 3.162 1.244 4.973-5.824 7.578-5.824 7.578-11.939 2.734-13.41 7.212-13.41 7.212s-1.469-4.478-13.408-7.212c0 0-7.039-2.64-5.796-7.615-4.347 2.72-9.005-3.196-9.005-3.196-6.291-10.508-11.005-10.524-11.005-10.524s3.805-2.782 2.716-14.983c0 0 .334-7.51 5.451-7.866-3.931-3.293.257-9.549.257-9.549 8.05-9.232 6.608-13.718 6.608-13.718s3.821 2.76 15.088-2.048c0 0 7.246-2.004 9.163 2.753 1.919-4.757 9.165-2.707 9.165-2.707C-3.276-23.188.545-25.949.545-25.949s-1.442 4.486 6.608 13.717c0 0 4.145 6.275.216 9.568 5.115.353 5.405 7.879 5.405 7.879-1.087 12.199 2.716 14.981 2.716 14.981" style="fill:#007130;fill-opacity:1;fill-rule:nonzero;stroke:none" transform="matrix(2.37326 0 0 -2.37326 149.494 115.51)"/><path d="M0 0c0 5.092 1.983 9.877 5.583 13.479a18.943 18.943 0 0 0 13.478 5.583 18.94 18.94 0 0 0 13.478-5.583A18.937 18.937 0 0 0 38.122 0c0-10.512-8.55-19.061-19.061-19.061-5.09 0-9.878 1.983-13.478 5.585A18.93 18.93 0 0 0 0 0m18.958-22.027a21.889 21.889 0 0 1 15.585 6.456A21.893 21.893 0 0 1 40.998.016 21.89 21.89 0 0 1 34.543 15.6a21.89 21.89 0 0 1-15.585 6.457C6.804 22.057-3.086 12.169-3.086.016a21.899 21.899 0 0 1 6.457-15.587 21.89 21.89 0 0 1 15.587-6.456" style="fill:#007130;fill-opacity:1;fill-rule:nonzero;stroke:none" transform="matrix(2.37326 0 0 -2.37326 48.17 97.589)"/><path d="M0 0h-10.001v2.523a2.037 2.037 0 1 1-4.073 0v-.022C-14.089 2.389-14.079 0-14.079 0h-9.946a2.09 2.09 0 0 1-2.089-2.089v-14.79a2.014 2.014 0 0 1 4.029 0l.001 11.365a2.014 2.014 0 1 0 4.027 0l.002-11.365a2.015 2.015 0 0 1 4.03 0v11.365a2.013 2.013 0 1 0 4.028 0v-11.365c0-1.113.902-2.013 2.015-2.013 1.112 0 2.013.9 2.014 2.013v11.365a2.014 2.014 0 1 0 4.029 0v-11.365c0-1.113.9-2.013 2.014-2.013 1.112 0 2.012.9 2.012 2.013v14.79A2.087 2.087 0 0 1 0 0" style="fill:#007130;fill-opacity:1;fill-rule:nonzero;stroke:none" transform="matrix(2.37326 0 0 -2.37326 121.667 76.517)"/></svg>