<svg xmlns="http://www.w3.org/2000/svg" xml:space="preserve" width="796.57288" height="800" viewBox="0 0 796.57287 800"><defs><linearGradient id="a" x1="0" x2="1" y1="0" y2="0" gradientTransform="matrix(0 -46.19038 -46.19038 0 48.875 109.261)" gradientUnits="userSpaceOnUse" spreadMethod="pad"><stop offset="0" style="stop-opacity:1;stop-color:#00bdf1"/><stop offset="1" style="stop-opacity:1;stop-color:#32347a"/></linearGradient><linearGradient id="b" x1="0" x2="1" y1="0" y2="0" gradientTransform="matrix(0 -46.11836 -46.11836 0 60.705 109.222)" gradientUnits="userSpaceOnUse" spreadMethod="pad"><stop offset="0" style="stop-opacity:1;stop-color:#00bdf1"/><stop offset="1" style="stop-opacity:1;stop-color:#32347a"/></linearGradient><linearGradient id="c" x1="0" x2="1" y1="0" y2="0" gradientTransform="matrix(0 -.001 -.001 0 47.531 84.514)" gradientUnits="userSpaceOnUse" spreadMethod="pad"><stop offset="0" style="stop-opacity:1;stop-color:#00bdf1"/><stop offset="1" style="stop-opacity:1;stop-color:#32347a"/></linearGradient></defs><path d="m108.201 68.738-.502-.447c-.05.032-.1.048-.135.082.22.115.438.23.637.365M59.298 131.985c-.018.016-.05.05-.068.066l-.133-.033zM63.9 132.32l-1.733-1.185-1.702-1.3-1.617-1.384-1.584-1.467-1.52-1.553-1.466-1.636-1.401-1.702-1.351-1.748-1.302-1.82-1.235-1.868-1.184-1.917-1.135-1.95-1.067-1.97-1.016-2-.95-2.037-.884-2.019-.834-2.049-.785-2.036-.717-2.018-.666-2.019-.584-1.984-.552-1.968-.466-1.933-.417-1.886-.366-1.852-.284-1.787-.235-1.73-.165-1.67-.118-1.603-.033-1.516.017-1.434.082-1.335.352.035-.085 1.317-.016 1.417.033 1.501.117 1.584.167 1.652.234 1.734.282 1.77.352 1.834.417 1.883.484 1.935.532 1.95.6 1.987.65 2.001.719 2.02.768 2.033.833 2.02.9 2.034.953 2 .999 2.004 1.068 1.965 1.116 1.934 1.169 1.905 1.234 1.867 1.302 1.8 1.333 1.754 1.4 1.683 1.467 1.634 1.502 1.534 1.568 1.468 1.618 1.368 1.67 1.268 1.717 1.183.016.016h.018l.016.017.015.016v.018l.017.017v.117l-.017.016v.018l-.015.017-.016.017v.014H64.1l-.016.02-.017.016h-.05l-.015.016h-.02l-.015-.016h-.032l-.017-.017z" style="fill:#a7a9ac;fill-opacity:1;fill-rule:evenodd;stroke:none" transform="matrix(5.61618 0 0 -5.61618 -81.053 874.954)"/><path d="m93.291 141.444-.938.015-.949-.015-.951-.035-.949-.049-.951-.084-.951-.102-.965-.116-.953-.13-.915-.153-.955-.183-.949-.202-.95-.216-.936-.23-.95-.254-.932-.282-.934-.283-.935-.316-.918-.32-.933-.35-.919-.348-.918-.383-.897-.387-.902-.414-.901-.419-.898-.432-.886-.45-.869-.468-.883-.485-.868-.483-.849-.499-.852-.518-.835-.533.184-.302.833.533.851.503.853.515.865.485.867.465.868.466.884.454.884.433.885.417.899.4.902.401.917.368.917.347.917.351.918.318.919.317.933.283.933.266.935.251.935.234.934.218.95.198.934.182.934.151.934.135.952.117.933.101.95.08.953.051.931.035H93.355l.016.016h.019v.015h.015l.019.017.015.02.017.013v.034l.019.017v.068l-.019.015v.035l-.017.017v.017h-.015v.016l-.019.016h-.015l-.019.015h-.016l-.015.02h-.018z" style="fill:#a7a9ac;fill-opacity:1;fill-rule:evenodd;stroke:none" transform="matrix(5.61618 0 0 -5.61618 -81.053 874.954)"/><path d="m120.11 128.55-.735.8-.75.784-.768.77-.766.715-.767.702-.785.666-.784.65-.8.616-.8.585-.819.55-.817.553-.817.5-.835.48-.832.453-.834.432-.852.4-.85.384-.85.35-.869.334-.85.299-.868.285-.883.25-.868.235-.884.216-.882.183-.885.166-.885.15-.898.117-.887.102-.899.084-.902.048-.898.036v-.351l.882-.035.902-.066.882-.065.884-.102.883-.117.87-.15.882-.148.867-.201.885-.201.867-.234.852-.25.866-.285.85-.3.852-.333.848-.35.835-.364.852-.403.817-.434.834-.448.817-.47.82-.498.798-.535.817-.55.784-.585.802-.616.767-.634.783-.668.766-.683.754-.735.766-.733.734-.783.732-.801.017-.018.02-.016.014-.016h.016l.017-.017h.1l.017.017h.035v.016l.015.016h.017l.016.018v.017l.017.019v.014l.018.017v.099l-.018.017v.018l-.017.015z" style="fill:#a7a9ac;fill-opacity:1;fill-rule:evenodd;stroke:none" transform="matrix(5.61618 0 0 -5.61618 -81.053 874.954)"/><path d="M128.734 68.272v.02l.75 2.4.682 2.37.6 2.335.532 2.281.47 2.253.401 2.235.315 2.203.268 2.15.184 2.135.132 2.086.051 2.066v2.02l-.067 1.984-.133 1.968-.2 1.917-.269 1.903-.33 1.853-.386 1.834-.449 1.8-.519 1.75-.566 1.736-.634 1.702-.685 1.668-.75 1.633-.8 1.6-.868 1.587-.917 1.535-.984 1.518-1.033 1.469-1.084 1.45-1.135 1.418-1.2 1.399-.269-.234 1.202-1.387 1.117-1.415 1.084-1.433 1.033-1.468.97-1.503.917-1.534.85-1.569.802-1.584.748-1.634.687-1.652.614-1.685.568-1.715.516-1.752.435-1.785.384-1.818.334-1.835.265-1.885.183-1.919.153-1.95.064-1.967v-2.02l-.049-2.049-.133-2.087-.184-2.119-.267-2.149-.318-2.186L131.42 80l-.47-2.255-.534-2.267-.6-2.316-.666-2.37-.75-2.387h.016-.017v-.113l.017-.019v-.018l.015-.015v-.017h.017l.017-.018.017-.016h.016l.015-.016h.117l.018.016h.017l.016.016.018.018.017.017v.015l.018.018v.02z" style="fill:#a7a9ac;fill-opacity:1;fill-rule:evenodd;stroke:none" transform="matrix(5.61618 0 0 -5.61618 -81.053 874.954)"/><path d="m105.932 37.864.986.702.965.702.934.751.932.746.92.79.884.795.883.836.85.833.835.87.817.883.818.902.783.916.768.936.752.947.73.97.72.967.702.983.682 1.018.652 1.002.65 1.034.632 1.033.618 1.034.602 1.051.582 1.066.568 1.07.549 1.067.536 1.067.535 1.084.497 1.084.483 1.101.487 1.083.45 1.085-.318.132-.465-1.084-.47-1.083-.483-1.084-.501-1.085-.533-1.064-.536-1.087-.531-1.068-.567-1.049-.584-1.053-.601-1.052-.615-1.033-.634-1.033-.635-1.018-.667-1.016-.685-1.002-.685-.984-.716-.967-.733-.952-.75-.95-.767-.917-.77-.916-.8-.902-.816-.866-.835-.868-.85-.835-.867-.815-.884-.802-.9-.783-.936-.752-.933-.735-.965-.699-.97-.684-.016-.018-.016-.017-.016-.012h-.02v-.035l-.015-.018v-.08l.016-.019v-.034l.019-.019.016-.015.016-.018.016-.017.018-.015h.049l.018-.017h.015l.016.017h.035l.03.015z" style="fill:#a7a9ac;fill-opacity:1;fill-rule:evenodd;stroke:none" transform="matrix(5.61618 0 0 -5.61618 -81.053 874.954)"/><path d="m78.746 28.442.802.015.799.036.817.033.802.068.816.08.817.101.817.117.817.135.819.15.833.184.852.183.834.2.832.233.85.25.853.25.85.284.849.301.869.318.867.331.852.367.864.366.87.401.864.42.885.432.869.448.882.47.886.5.866.5.884.531.886.553.883.583.9.582-.2.302-.886-.58-.882-.589-.882-.548-.871-.519-.882-.514-.867-.487-.885-.466-.866-.45-.87-.432-.866-.419-.852-.384-.865-.385-.851-.348-.868-.334-.85-.317-.852-.299-.833-.286-.85-.248-.834-.25-.834-.22-.833-.197-.835-.2-.816-.167-.832-.15-.803-.136-.818-.116-.801-.098-.816-.085-.8-.05-.801-.05-.783-.032-.802-.019H78.695l-.016-.016h-.018l-.015-.017-.017-.018h-.017v-.014l-.016-.016v-.017l-.017-.019v-.113l.017-.02v-.015l.016-.016v-.017l.017-.018h.017l.015-.018h.018l.016-.015h.033z" style="fill:#a7a9ac;fill-opacity:1;fill-rule:evenodd;stroke:none" transform="matrix(5.61618 0 0 -5.61618 -81.053 874.954)"/><path d="m36.63 75.944.267-2.534.35-2.52.434-2.467.518-2.419.583-2.372.682-2.299.75-2.25.82-2.185.9-2.119.968-2.067 1.034-2.003 1.118-1.918 1.167-1.85 1.232-1.786 1.304-1.7 1.367-1.619 1.417-1.552 1.468-1.45 1.534-1.383 1.586-1.286 1.65-1.185 1.685-1.117 1.735-1 1.785-.919 1.834-.8 1.869-.719 1.919-.598 1.966-.502 1.986-.398 2.034-.269 2.068-.165 2.086-.05v.348l-2.07.05-2.052.168-2 .266-1.983.385-1.937.5-1.901.601-1.851.701-1.818.8-1.765.9-1.72 1.003-1.668 1.097-1.637 1.187-1.567 1.266-1.518 1.37-1.468 1.451-1.401 1.534-1.351 1.6-1.3 1.702-1.218 1.766-1.167 1.836-1.101 1.92-1.035 1.967-.965 2.051-.887 2.118-.816 2.167-.751 2.236-.667 2.302-.6 2.353-.517 2.4-.417 2.453-.351 2.502-.265 2.536v.014l-.018.02v.017l-.017.016v.012l-.016.018-.017.017v.016h-.017l-.016.021h-.05l-.017.013h-.034l-.018-.013h-.048v-.02h-.018l-.014-.017-.018-.017-.016-.018-.018-.012v-.083zM79.262 141.743l1.135.033 1.133-.033 1.135-.117 1.15-.2 1.153-.266 1.149-.334 1.169-.436 1.15-.499 1.167-.583 1.15-.65 1.153-.753 1.15-.814 1.134-.919 1.135-.984 1.134-1.085 1.102-1.149 1.099-1.252 1.084-1.334 1.067-1.42 1.053-1.515 1.032-1.6 1.018-1.687.985-1.785.965-1.866.937-1.952.899-2.069.885-2.15.866-2.237.817-2.333.785-2.436.75-2.536.734-2.636.333.087-.716 2.651-.767 2.534-.785 2.436-.817 2.35-.867 2.251-.885 2.17-.917 2.05-.95 1.985-.967 1.868-.986 1.803-1.015 1.7-1.037 1.602-1.065 1.518-1.068 1.432-1.1 1.354-1.101 1.25-1.12 1.166-1.132 1.103-1.151 1-1.15.918-1.17.832-1.166.754-1.168.664-1.184.601-1.182.501-1.168.434-1.186.35-1.166.266-1.17.201-1.167.116-1.15.034-1.152-.034h-.067l-.015-.017-.018-.015-.018-.018-.014-.019-.016-.014v-.033l-.018-.018v-.081l.018-.018v-.033l.016-.018h.014v-.015l.018-.018h.018l.015-.015h.018l.017-.018h.032z" style="fill:#a7a9ac;fill-opacity:1;fill-rule:evenodd;stroke:none" transform="matrix(5.61618 0 0 -5.61618 -81.053 874.954)"/><path d="m64.135 132.067.382.553.385.534.383.517.4.5.419.485.415.481.417.451.435.45.433.418.45.418.45.382.45.384.469.366.466.35.465.334.486.3.483.302.484.281.503.27.498.25.5.234.5.214.518.201.518.185.515.148.517.15.534.135.518.117.534.082.534.084.532.067.534.033-.017.35-.55-.032-.551-.066-.532-.087-.552-.08-.532-.118-.535-.133-.534-.153-.533-.166-.517-.183-.534-.216-.517-.217-.5-.23-.517-.253-.501-.268-.5-.283-.483-.316-.501-.32-.483-.332-.468-.347-.468-.37-.464-.384-.451-.4-.45-.433-.452-.417-.433-.45-.433-.468-.418-.483-.418-.499-.4-.502-.4-.534-.383-.532-.383-.55-.016-.018v-.018l-.018-.032v-.101l.018-.017.016-.018v-.016l.017-.017h.016l.015-.016.019-.017h.017l.014-.016h.084l.017.016h.018l.016.017h.016l.018.016.016.017z" style="fill:#a7a9ac;fill-opacity:1;fill-rule:evenodd;stroke:none" transform="matrix(5.61618 0 0 -5.61618 -81.053 874.954)"/><path d="M54.56 84.3V88.538l.015 1.464.02 1.47.031 1.486.036 1.518.064 1.518.07 1.535.08 1.532.101 1.55.135 1.55.131 1.554.17 1.566.198 1.569.215 1.568.236 1.569.282 1.55.301 1.552.334 1.55.366 1.536.416 1.534.436 1.518.484 1.5.532 1.484.567 1.485.601 1.45.65 1.42.7 1.416.751 1.386.801 1.368.851 1.332-.283.203-.868-1.354-.8-1.367-.75-1.401-.718-1.417-.65-1.451-.616-1.468-.569-1.47-.533-1.497-.483-1.52-.45-1.515-.4-1.535-.369-1.553-.35-1.551-.299-1.568-.285-1.568-.234-1.567-.216-1.568-.2-1.566-.168-1.57-.15-1.57-.117-1.566-.098-1.552-.086-1.548-.065-1.521-.068-1.532-.032-1.502-.034-1.502-.017-1.47-.015-1.464v-4.27l.015-.033v-.017l.017-.02.017-.015v-.017l.017-.015h.015l.017-.016H54.361l.017-.018h.031l.016.018H54.477v.016h.017l.018.015.016.017v.016h.014v.019l.018.017v.05z" style="fill:#a7a9ac;fill-opacity:1;fill-rule:evenodd;stroke:none" transform="matrix(5.61618 0 0 -5.61618 -81.053 874.954)"/><path d="m89.204 27.724-1.77.15-1.734.352-1.7.565-1.687.753-1.668.95-1.632 1.119-1.6 1.283-1.57 1.435-1.536 1.582-1.499 1.703-1.449 1.818-1.417 1.936-1.355 2.018-1.319 2.119-1.266 2.167-1.2 2.236-1.168 2.284-1.084 2.335-1.034 2.337-.985 2.368-.9 2.352-.85 2.35-.768 2.335-.703 2.286-.614 2.25-.55 2.2-.484 2.12-.384 2.035-.316 1.953-.219 1.849-.133 1.735-.05 1.6h-.349l.05-1.615.134-1.751.215-1.867.316-1.972.401-2.033.468-2.134.55-2.204.635-2.266.701-2.303.765-2.334.852-2.354.917-2.37.968-2.366 1.034-2.352 1.1-2.333 1.167-2.287 1.22-2.252 1.265-2.184 1.32-2.12 1.367-2.034 1.417-1.932 1.47-1.856 1.498-1.717 1.551-1.584 1.587-1.452 1.616-1.298 1.668-1.134 1.684-.97 1.736-.768 1.736-.583 1.766-.348 1.82-.151h.013l.018.016h.032l.018.019h.017l.016.016.017.018.017.015v.016l.016.018v.132l-.016.018-.017.018v.015l-.017.017h-.016l-.017.016h-.018l-.016.015h-.034z" style="fill:#a7a9ac;fill-opacity:1;fill-rule:evenodd;stroke:none" transform="matrix(5.61618 0 0 -5.61618 -81.053 874.954)"/><path d="m105.684 38.12-.52-.689-.533-.648-.515-.637-.535-.613-.518-.587-.517-.549-.535-.534-.516-.516-.517-.485-.533-.469-.517-.432-.517-.415-.535-.386-.516-.384-.518-.332-.513-.335-.52-.3-.518-.282-.516-.252-.517-.248-.498-.217-.52-.182-.515-.186-.5-.15-.52-.132-.5-.116-.5-.102-.5-.085-.517-.064-.502-.036-.482-.015-.5-.019v-.348l.5.015.518.02.517.033.5.067.517.082.518.1.515.118.534.132.517.166.516.184.518.201.535.217.517.251.533.263.516.285.533.3.533.332.518.353.535.383.533.384.518.435.533.433.535.465.516.5.535.521.532.53.534.568.518.584.533.616.534.653.517.65.533.698.016.02v.015l.018.018v.117l-.018.017v.018l-.016.012-.015.017-.018.018h-.018l-.013.017h-.018l-.02.016h-.064l-.017-.016h-.032l-.018-.017-.016-.018-.016-.017z" style="fill:#a7a9ac;fill-opacity:1;fill-rule:evenodd;stroke:none" transform="matrix(5.61618 0 0 -5.61618 -81.053 874.954)"/><path d="m112.537 102.147.5-2.053.47-2.082.397-2.1.367-2.156.333-2.167.27-2.183.233-2.203.183-2.218.132-2.235.101-2.234.034-2.22v-2.238l-.052-2.197-.1-2.22-.134-2.202-.199-2.166-.234-2.154-.282-2.134-.334-2.102-.369-2.068-.416-2.019-.484-1.984-.518-1.935-.548-1.902-.618-1.833-.65-1.769-.717-1.719-.75-1.65-.803-1.586-.832-1.515-.902-1.437-.932-1.347.282-.205.953 1.37.9 1.451.848 1.515.803 1.604.767 1.652.7 1.734.665 1.785.62 1.85.567 1.901.515 1.952.468 1.986.434 2.033.367 2.087.334 2.102.28 2.134.236 2.17.201 2.182.133 2.202.1 2.218.05 2.216v2.238l-.033 2.236-.1 2.234-.136 2.234-.18 2.236-.234 2.202-.268 2.2-.334 2.17-.365 2.152-.42 2.133-.447 2.084-.519 2.056v.031l-.017.015v.017l-.017.016h-.018v.018l-.014.016h-.016l-.019.017h-.132l-.016-.017h-.016v-.016h-.019l-.017-.018-.014-.016-.018-.017v-.033l-.02-.013V102.162zM41.05 113.49l-.366.868-.267.863-.135.886-.033.882.085.888.165.882.268.882.367.887.433.883.517.884.602.884.667.868.734.85.799.868.852.834.883.834.95.817.969.784 1.017.782 1.033.767 1.069.735 1.085.734 1.083.685 1.099.685 1.103.632 1.084.616 1.085.602 1.066.552 1.05.514 1.035.501 1 .451.95.432-.131.318-.967-.417-1.002-.466-1.034-.502-1.052-.517-1.082-.567-1.085-.586-1.101-.614-1.102-.652-1.1-.684-1.1-.698-1.083-.718-1.07-.75-1.051-.768-1.015-.784-.984-.8-.95-.819-.904-.849-.85-.852-.8-.85-.75-.882-.684-.885-.6-.902-.536-.9-.466-.9-.365-.917-.286-.917-.165-.934-.084-.92.034-.916.149-.918.266-.916.386-.9.015-.018v-.017l.017-.016.015-.016.018-.018h.017l.018-.017h.115v.017h.018l.016.018H41l.018.016h.016v.016l.016.017v.017l.018.016v.116z" style="fill:#a7a9ac;fill-opacity:1;fill-rule:evenodd;stroke:none" transform="matrix(5.61618 0 0 -5.61618 -81.053 874.954)"/><path d="m71.057 113.872-1.152-.448-1.167-.45-1.167-.438-1.185-.398-1.184-.367-1.184-.35-1.185-.334-1.186-.3-1.165-.269-1.169-.249-1.168-.216-1.132-.183-1.136-.148-1.1-.136-1.084-.082-1.067-.07-1.034-.015H50.59l-.983.051-.935.064-.902.12-.865.15-.817.198-.766.217-.736.266-.666.32-.635.333-.568.4-.498.418-.45.467-.385.517-.334.55-.315-.15.348-.604.417-.532.466-.5.552-.449.584-.418.65-.352.701-.315.75-.283.801-.234.835-.183.883-.168.918-.116.95-.084.984-.035 1.018-.015 1.051.033 1.067.066 1.101.084 1.117.135 1.134.15 1.151.202 1.168.213 1.167.235 1.184.285 1.184.298 1.203.315 1.182.371 1.201.366 1.185.4 1.168.433 1.167.451 1.168.468h.018l.016.016.016.017.016.014.016.017.018.02v.149l-.018.016v.017h-.016l-.016.017v.016h-.016l-.016.016h-.018l-.016.017h-.101z" style="fill:#a7a9ac;fill-opacity:1;fill-rule:evenodd;stroke:none" transform="matrix(5.61618 0 0 -5.61618 -81.053 874.954)"/><path d="m91.956 138.973.634-.767.5-.785.35-.78.234-.816.117-.84v-.847l-.117-.866-.218-.886-.317-.885-.415-.898-.503-.903-.6-.902-.666-.898-.733-.902-.82-.9-.867-.9-.916-.867-.982-.883-1.018-.85-1.052-.837-1.086-.815-1.118-.802-1.133-.767-1.149-.751-1.153-.716-1.166-.684-1.167-.651-1.153-.618-1.135-.583-1.114-.548-1.086-.485-1.05-.47.133-.314 1.067.448 1.085.5 1.133.552 1.135.583 1.167.618 1.152.667 1.183.683 1.151.719 1.167.75 1.134.784 1.136.799 1.082.816 1.05.852 1.035.852.984.883.935.886.883.898.818.918.751.918.684.917.601.917.517.934.435.918.316.918.232.916.117.9v.9l-.117.886-.252.866-.38.85-.52.819-.666.783-.018.018-.015.016-.018.017h-.032l-.018.016h-.049l-.017-.016h-.032v-.017h-.018l-.017-.016h-.015l-.018-.018v-.015l-.016-.018v-.017h-.017v-.116l.017-.016v-.017l.016-.017z" style="fill:#a7a9ac;fill-opacity:1;fill-rule:evenodd;stroke:none" transform="matrix(5.61618 0 0 -5.61618 -81.053 874.954)"/><path d="m63.3 137.723.867.352.885.349.916.353.919.33.966.335.968.333.984.3 1 .299 1.004.269 1.015.266 1.019.252 1.017.216 1.017.2 1.018.167 1.017.15 1 .13 1 .089.983.065.969.032h.95l.934-.032.902-.085.866-.115.852-.151.834-.201.798-.232.754-.284.717-.334.683-.365.65-.436.6-.483.552-.52.249.235-.568.552-.633.5-.666.45-.701.385-.75.35-.783.284-.818.25-.835.2-.884.149-.885.117-.915.084-.952.033h-.951l-.982-.033-1.002-.051-1.002-.1-1.015-.133-1.02-.151-1.034-.166-1.017-.2-1.034-.233-1.015-.235-1.037-.265-1-.285-1.003-.298-1-.302-.966-.334-.967-.333-.934-.335-.918-.35-.884-.35-.866-.367-.016-.014h-.018l-.017-.02-.015-.015h-.018v-.018l-.017-.016v-.033l-.018-.018v-.033l.018-.015V137.805l.017-.014v-.017h.018v-.016l.015-.017.017-.018h.018l.016-.015h.116zM77.693 32.179l-.366.868-.268.865-.132.885-.032.884.082.886.166.884.27.883.365.884.431.883.536.884.583.883.683.869.72.87.798.848.851.833.885.832.951.82.953.802 1.013.767 1.037.766 1.066.75 1.084.719 1.084.683 1.101.683 1.102.632 1.084.618 1.084.602 1.086.55 1.047.533 1.02.485 1 .45.95.433-.132.317-.969-.417-.999-.466-1.035-.486-1.052-.531-1.084-.57-1.083-.582-1.103-.616-1.098-.653-1.1-.682-1.104-.7-1.083-.716-1.068-.752-1.05-.768-1.017-.784-.968-.8-.95-.817-.9-.851-.852-.852-.799-.851-.75-.883-.686-.882-.6-.903-.533-.901-.469-.9-.367-.917-.267-.916-.184-.934-.082-.92.034-.918.15-.914.265-.918.384-.9.017-.018.02-.016v-.017l.014-.018.016-.016h.035l.016-.017h.1l.017.017.017.016h.016l.018.018h.016v.017l.015.016v.018l.02.015v.117z" style="fill:#a7a9ac;fill-opacity:1;fill-rule:evenodd;stroke:none" transform="matrix(5.61618 0 0 -5.61618 -81.053 874.954)"/><path d="m107.684 32.58-1.15-.472-1.168-.447-1.168-.432-1.183-.386-1.187-.382-1.183-.352-1.186-.333-1.182-.3-1.168-.265-1.168-.25-1.167-.22-1.134-.18-1.136-.152-1.1-.133-1.084-.084-1.068-.064-1.033-.02h-1l-.983.052-.935.065-.885.12-.867.148-.816.2-.767.216-.735.268-.665.32-.62.33-.567.4-.516.417-.452.466-.384.52-.333.55-.318-.15.353-.599.415-.538.485-.5.534-.447.583-.419.65-.35.7-.318.753-.282.799-.233.834-.184.885-.167.9-.119.948-.064.988-.053h1.016l1.05.017 1.069.068 1.1.086 1.117.131 1.135.15 1.148.2 1.17.22 1.169.23 1.183.283 1.185.303 1.2.331 1.185.352 1.2.366 1.184.417 1.167.418 1.185.45 1.152.467.014.016h.02l.015.017.016.017h.017v.016l.018.018v.05l.016.013v.021l-.016.018v.045l-.018.018v.018h-.017v.015l-.016.017-.015.017h-.02l-.014.017H107.7z" style="fill:#a7a9ac;fill-opacity:1;fill-rule:evenodd;stroke:none" transform="matrix(5.61618 0 0 -5.61618 -81.053 874.954)"/><path d="m128.6 57.662.633-.764.502-.769.35-.798.249-.818.1-.835v-.85l-.117-.869-.217-.884-.318-.884-.417-.9-.498-.9-.601-.9-.668-.9-.734-.904-.817-.899-.868-.9-.917-.87-.984-.88-1.014-.853-1.053-.834-1.101-.817-1.117-.8-1.135-.768-1.15-.75-1.151-.717-1.168-.686-1.168-.65-1.15-.619-1.135-.58-1.118-.535-1.083-.499-1.051-.45.134-.334 1.066.45 1.084.5 1.136.551 1.134.584 1.166.615 1.152.668 1.184.686 1.15.715 1.169.751 1.133.784 1.136.8 1.083.818 1.067.85 1.034.85.984.884.932.886.885.901.82.915.749.918.683.917.6.917.519.936.434.918.316.915.232.917.12.901v.902l-.12.886-.25.866-.382.85-.518.816-.666.785-.018.016-.017.018-.015.015h-.035l-.017.018h-.066l-.017-.018h-.016v-.015h-.018l-.016-.018h-.015l-.018-.016v-.017l-.017-.017-.016-.016V57.73l.016-.017v-.018l.017-.012z" style="fill:#a7a9ac;fill-opacity:1;fill-rule:evenodd;stroke:none" transform="matrix(5.61618 0 0 -5.61618 -81.053 874.954)"/><path d="m99.928 56.413.866.351.884.35.92.35.933.333.952.334.966.333.985.302.999.301 1.003.281 1.015.25 1.017.253 1.019.216 1.017.2 1.017.183 1.018.151 1 .114 1 .083.986.068.967.032h.95l.934-.032.9-.082.884-.119.85-.15.835-.2.802-.232.75-.283.718-.335.683-.368.65-.432.599-.468.553-.535.25.236-.567.551-.636.5-.665.45-.7.382-.752.353-.784.283-.816.248-.833.201-.886.15-.9.117-.92.084-.948.034h-.951l-.984-.034-1.001-.05-1.002-.1-1.016-.118-1.018-.165-1.035-.166-1.018-.2-1.033-.235-1.018-.233-1.017-.268-1.018-.284-1-.3-1-.3-.966-.334-.954-.333-.95-.334-.915-.349-.887-.349-.865-.37-.017-.014h-.016l-.018-.018-.015-.017h-.018v-.018l-.016-.017v-.049l-.02-.016v-.017l.02-.016V56.496l.016-.016v-.017h.018v-.016l.015-.017h.018l.016-.017h.017l.016-.019h.1zM30.275 87.438v-.019l-.733 1.402-.518 1.417-.333 1.436-.15 1.45.033 1.45.2 1.485.368 1.47.515 1.48.668 1.485.818 1.487.918 1.484 1.05 1.484 1.167 1.467 1.268 1.451 1.368 1.451 1.45 1.42 1.519 1.4 1.604 1.385 1.649 1.35 1.702 1.318 1.75 1.285 1.785 1.265 1.803 1.218 1.814 1.17 1.837 1.13 1.836 1.105 1.815 1.034 1.803.982 1.785.935 1.733.884 1.702.814 1.635.752-.151.335-1.635-.767-1.7-.819-1.75-.884-1.787-.933-1.802-1-1.834-1.035-1.834-1.1-1.833-1.134-1.82-1.185-1.817-1.218-1.783-1.268-1.77-1.283-1.701-1.335-1.67-1.349-1.6-1.385-1.533-1.419-1.452-1.434-1.37-1.452-1.282-1.467-1.167-1.467-1.07-1.502-.948-1.502-.818-1.5-.667-1.518-.534-1.518-.367-1.519-.215-1.5-.035-1.502.149-1.484.335-1.483.55-1.45.75-1.452.017-.017.017-.015.017-.019.016-.016h.034l.018-.018h.064l.017.018h.034l.018.016.017.018.014.016h.017v.018l.017.014v.035l.017.016V87.37l-.017.02v.014l-.017.016z" style="fill:#a7a9ac;fill-opacity:1;fill-rule:evenodd;stroke:none" transform="matrix(5.61618 0 0 -5.61618 -81.053 874.954)"/><path d="m80.195 88.153-1.534-.633-1.601-.618-1.633-.6-1.702-.6-1.718-.567-1.751-.568-1.783-.518-1.82-.5-1.817-.48-1.837-.437-1.832-.399-1.853-.35-1.836-.335-1.832-.267-1.82-.234-1.785-.166-1.767-.118-1.751-.064H46.82l-1.67.064-1.615.118-1.57.2-1.501.267-1.45.334-1.383.418-1.301.5-1.237.582-1.148.67-1.05.748-.968.851-.885.934-.768 1.052-.3-.2.8-1.068.902-.969 1-.865 1.084-.786 1.168-.68 1.268-.588 1.334-.517 1.4-.416 1.47-.35 1.518-.265 1.583-.2 1.634-.136 1.685-.049h1.719l1.75.07 1.769.114 1.818.167 1.818.233 1.834.283 1.852.317 1.852.365 1.85.401 1.835.434 1.835.467 1.819.5 1.784.535 1.769.55 1.718.586 1.7.598 1.652.601 1.6.634 1.536.616.034.018.016.017.016.016.017.017.017.018v.031l.016.018v.066l-.016.016v.033l-.017.017v.016l-.017.02h-.016v.013l-.016.018h-.034l-.017.017h-.066l-.034-.017z" style="fill:#a7a9ac;fill-opacity:1;fill-rule:evenodd;stroke:none" transform="matrix(5.61618 0 0 -5.61618 -81.053 874.954)"/><path d="M117.64 131.535h-.017l.768-.933.618-.985.465-1.067.335-1.103.199-1.183.069-1.216-.07-1.268-.198-1.319-.335-1.35-.465-1.4-.585-1.419-.717-1.45-.834-1.486-.966-1.484-1.083-1.518-1.185-1.534-1.318-1.518-1.418-1.534-1.551-1.535-1.636-1.535-1.751-1.517-1.867-1.52-1.952-1.483-2.068-1.466-2.17-1.453-2.25-1.417-2.352-1.385-2.452-1.352-2.535-1.316-2.618-1.25-2.702-1.22-2.804-1.166.136-.334 2.8 1.17 2.72 1.216 2.635 1.267 2.536 1.32 2.453 1.35 2.367 1.4 2.268 1.421 2.168 1.448 2.068 1.484 1.968 1.502 1.868 1.52 1.77 1.514 1.65 1.537 1.55 1.548 1.434 1.551 1.319 1.535 1.203 1.536 1.097 1.536.967 1.5.853 1.502.716 1.464.6 1.455.468 1.417.334 1.382.217 1.352.066 1.302-.066 1.267-.2 1.2-.351 1.166-.5 1.105-.634 1.032-.784.967-.018.018.018-.018-.018.018h-.015l-.016.016h-.018l-.017.017h-.1l-.016-.017h-.017l-.017-.016h-.016v-.018h-.018l-.013-.015v-.016l-.02-.018v-.034l-.016-.017v-.066l.016-.018v-.015l.02-.017v-.016l.013-.018z" style="fill:#a7a9ac;fill-opacity:1;fill-rule:evenodd;stroke:none" transform="matrix(5.61618 0 0 -5.61618 -81.053 874.954)"/><path d="m66.136 128.766 1.568.636 1.617.616 1.651.616 1.685.604 1.701.565 1.735.567 1.77.536 1.764.499 1.802.483 1.802.449 1.787.4 1.8.384 1.817.35 1.8.302 1.785.249 1.787.217 1.767.168 1.734.117 1.718.066h1.702l1.652-.052 1.617-.096 1.584-.17 1.551-.25 1.484-.3 1.451-.37 1.386-.447 1.333-.515 1.27-.603 1.201-.666 1.118-.751 1.065-.834.233.267-1.084.849-1.153.77-1.23.682-1.285.617-1.353.518-1.4.45-1.467.383-1.519.299-1.55.253-1.6.164-1.635.12-1.669.046-1.702-.013-1.734-.067-1.752-.12-1.768-.164-1.8-.22-1.8-.247-1.802-.298-1.819-.353-1.82-.385-1.784-.417-1.816-.451-1.783-.481-1.786-.501-1.769-.533-1.735-.568-1.716-.566-1.686-.602-1.668-.615-1.617-.617-1.569-.635h-.017.017l-.017-.02-.017-.013h-.016l-.018-.018-.016-.015v-.015h-.016v-.021l-.016-.015v-.082l.016-.017V128.848l.016-.014v-.015h.016l.018-.021.016-.014.017-.018h.017l.017-.016h.066l.031.016zM51.509 39.734l-.735 1.383-.517 1.42-.332 1.433-.152 1.452.034 1.467.2 1.47.368 1.467.515 1.483.669 1.502.8 1.485.934 1.482 1.052 1.468 1.167 1.47 1.267 1.45 1.367 1.45 1.453 1.421 1.518 1.398 1.6 1.385 1.65 1.35 1.7 1.318 1.754 1.302 1.785 1.252 1.8 1.217 1.818 1.167 1.836 1.15 1.835 1.085 1.818 1.016 1.8.985 1.767.952 1.752.867 1.668.816 1.654.767-.152.318-1.651-.769-1.687-.816-1.732-.884-1.785-.933-1.803-.985-1.834-1.05-1.834-1.067-1.836-1.152-1.831-1.167-1.804-1.236-1.801-1.25-1.75-1.302-1.704-1.334-1.667-1.349-1.601-1.386-1.535-1.418-1.45-1.416-1.384-1.45-1.27-1.47-1.182-1.485-1.052-1.5-.95-1.5-.82-1.5-.665-1.519-.533-1.518-.384-1.502-.2-1.517-.034-1.503.15-1.484.335-1.485.547-1.45.754-1.437v-.015.015l.015-.015v-.016l.016-.015.018-.018h.019l.014-.018h.036l.014-.017h.035l.016.017h.034l.016.018.018.018h.016l.016.015v.016h.017v.015l.017.018v.035l.015.018V39.648l-.015.018v.035z" style="fill:#a7a9ac;fill-opacity:1;fill-rule:evenodd;stroke:none" transform="matrix(5.61618 0 0 -5.61618 -81.053 874.954)"/><path d="m101.413 40.451-1.534-.617-1.603-.634-1.65-.6-1.686-.602-1.715-.567-1.77-.548-1.786-.536-1.8-.5-1.817-.466-1.82-.435-1.852-.399-1.833-.368-1.835-.316-1.835-.282-1.817-.219-1.8-.182-1.769-.117-1.735-.068h-1.7l-1.67.068-1.616.117-1.57.2-1.498.266-1.455.351-1.385.416-1.3.5-1.234.57-1.15.663-1.068.77-.968.832-.867.952-.766 1.034-.3-.2.798-1.067.902-.968.986-.866 1.097-.769 1.17-.68 1.253-.603 1.332-.502 1.402-.433 1.468-.35 1.535-.266 1.583-.2 1.634-.118 1.668-.069h1.72l1.751.07 1.783.116 1.803.185 1.833.212 1.835.287 1.852.317 1.85.366 1.835.402 1.834.433 1.836.483 1.8.502 1.802.517 1.751.563 1.735.567 1.685.602 1.65.62 1.604.617 1.551.632h.015l.016.017.02.017h.013l.016.015v.02l.017.014V40.253l.02.013v.051l-.02.017v.034h-.017v.018l-.016.013v.02l-.013.016h-.02l-.016.016-.015.017H101.428z" style="fill:#a7a9ac;fill-opacity:1;fill-rule:evenodd;stroke:none" transform="matrix(5.61618 0 0 -5.61618 -81.053 874.954)"/><path d="m138.872 83.816-.017.018.752-.937.62-1 .48-1.05.334-1.116.201-1.168.068-1.234-.068-1.27-.217-1.299-.318-1.35-.467-1.385-.598-1.436-.703-1.452-.849-1.465-.952-1.502-1.082-1.519-1.203-1.517-1.3-1.536-1.434-1.53-1.534-1.535-1.636-1.536-1.767-1.52-1.852-1.5-1.969-1.5-2.05-1.469-2.168-1.45-2.253-1.417-2.35-1.387-2.452-1.35-2.535-1.3-2.635-1.268-2.705-1.218-2.8-1.167.134-.318 2.801 1.17 2.718 1.216 2.635 1.27 2.552 1.316 2.453 1.351 2.368 1.384 2.268 1.416 2.168 1.47 2.07 1.467 1.967 1.502 1.868 1.517 1.768 1.517 1.651 1.552 1.551 1.535 1.433 1.551 1.32 1.532 1.202 1.536 1.084 1.532.98 1.521.836 1.484.735 1.468.598 1.452.468 1.418.336 1.383.215 1.337.068 1.3-.068 1.266-.2 1.217-.35 1.15-.5 1.104-.635 1.031-.8.968v.016-.016l-.016.016v.018h-.019l-.017.017h-.034l-.015.017h-.018l-.015-.017H138.921l-.015-.017h-.014l-.02-.018h-.017v-.016l-.017-.018v-.016l-.015-.014-.018-.016V83.9l.018-.018v-.015l.015-.015.017-.018z" style="fill:#a7a9ac;fill-opacity:1;fill-rule:evenodd;stroke:none" transform="matrix(5.61618 0 0 -5.61618 -81.053 874.954)"/><path d="M87.353 81.064v-.017l1.567.635 1.617.634 1.65.6 1.67.601 1.717.584 1.737.55 1.766.533 1.767.502 1.787.482 1.8.45 1.818.42 1.802.382 1.8.332 1.803.3 1.8.27 1.787.217 1.75.149 1.75.116 1.719.068 1.685.015 1.668-.05 1.615-.116 1.586-.168 1.535-.231 1.5-.301 1.436-.383 1.402-.452 1.316-.518 1.267-.584 1.202-.681 1.133-.752 1.068-.834.234.266-1.085.852-1.167.767-1.218.702-1.283.6-1.352.517-1.418.449-1.45.385-1.52.316-1.55.234-1.601.165-1.634.115-1.668.053-1.701-.018-1.735-.05-1.752-.118-1.786-.166-1.783-.215-1.802-.268-1.8-.3-1.817-.351-1.818-.382-1.82-.417-1.801-.45-1.784-.468-1.785-.516-1.768-.534-1.734-.552-1.718-.58-1.702-.601-1.65-.603-1.618-.63-1.567-.636h-.017.017l-.034-.017h-.018l-.016-.017v-.014h-.017l-.017-.02V81.3l-.016-.017v-.117l.016-.017v-.017l.017-.015.017-.018.016-.017v-.016h.018l.017-.018h.047l.019-.013.018.013h.067zM33.662 59.999l-.85 1.617-.6 1.653-.385 1.668-.167 1.684.034 1.702.234 1.702.432 1.716.602 1.736.767 1.717.934 1.717 1.083 1.719 1.218 1.719 1.334 1.702 1.483 1.681 1.57 1.67 1.684 1.652 1.768 1.633 1.836 1.584 1.918 1.569 1.983 1.535 2.02 1.502 2.067 1.449 2.101 1.416 2.101 1.352 2.118 1.319 2.136 1.267 2.1 1.2 2.103 1.151 2.053 1.085 2.02 1 1.965.95 1.92.886-.15.318-1.922-.885-1.964-.951-2.035-1.02-2.053-1.08-2.1-1.138-2.12-1.215-2.118-1.268-2.137-1.318-2.116-1.366-2.105-1.42-2.064-1.452-2.036-1.499-1.986-1.536-1.916-1.583-1.852-1.602-1.787-1.634-1.683-1.651-1.585-1.685-1.484-1.701-1.349-1.718-1.237-1.719-1.099-1.752-.934-1.718-.785-1.75-.614-1.767-.437-1.752-.232-1.736-.033-1.75.164-1.719.402-1.718.618-1.682.866-1.669V59.8v.016l.017-.016.016-.019v-.015l.018-.017h.016l.017-.017h.134l.017.017h.016v.017h.016l.016.015.018.019v.016h.018V59.852l.014.012v.07l-.014.033v.016z" style="fill:#a7a9ac;fill-opacity:1;fill-rule:evenodd;stroke:none" transform="matrix(5.61618 0 0 -5.61618 -81.053 874.954)"/><path d="m91.506 60.835-1.786-.733-1.834-.721-1.902-.7-1.936-.684-1.984-.65-2.035-.632-2.068-.618-2.084-.585-2.12-.533-2.116-.499-2.135-.467-2.135-.417-2.136-.37-2.118-.313-2.101-.27-2.086-.199-2.05-.134-2.02-.082h-1.966l-1.936.064-1.886.152-1.817.215-1.75.32-1.67.38-1.616.485-1.518.585-1.436.665-1.334.769-1.235.867-1.116.983-1.017 1.085-.901 1.201-.301-.199.934-1.22 1.036-1.116 1.15-1.001 1.268-.898 1.369-.786 1.45-.682 1.55-.587 1.617-.485 1.702-.398 1.767-.317 1.835-.216 1.904-.151 1.934-.068h1.999l2.02.068 2.066.151 2.088.198 2.118.27 2.133.316 2.137.366 2.135.418 2.15.465 2.12.5 2.117.553 2.1.583 2.069.6 2.035.65 2.002.649 1.937.686 1.897.719 1.854.699 1.783.735.017.014h.018l.016.017.016.018h.017v.017l.017.017v.017l.018.017v.067l-.018.015v.032l-.017.017v.017h-.017v.018l-.016.014-.016.018-.018.019h-.132z" style="fill:#a7a9ac;fill-opacity:1;fill-rule:evenodd;stroke:none" transform="matrix(5.61618 0 0 -5.61618 -81.053 874.954)"/><path d="m134.92 111.155-.017.016.884-1.087.717-1.149.553-1.235.398-1.299.217-1.354.084-1.432-.084-1.469-.232-1.535-.383-1.568-.536-1.617-.683-1.65-.834-1.685-.967-1.717-1.118-1.737-1.25-1.75-1.386-1.768-1.518-1.77-1.652-1.784-1.783-1.783-1.902-1.768-2.036-1.768-2.15-1.75-2.27-1.702-2.4-1.719-2.502-1.669-2.62-1.648-2.717-1.62-2.852-1.568-2.937-1.519-3.051-1.469-3.133-1.398-3.254-1.349.13-.334 3.256 1.348 3.149 1.42 3.055 1.466 2.95 1.535 2.854 1.57 2.735 1.616 2.635 1.651 2.503 1.685 2.399 1.702 2.288 1.733 2.169 1.753 2.032 1.768 1.919 1.784 1.784 1.784 1.667 1.803 1.537 1.783 1.383 1.785 1.268 1.752 1.117 1.75.983 1.735.837 1.7.682 1.685.55 1.636.4 1.601.234 1.568.084 1.501-.084 1.468-.233 1.402-.401 1.332-.566 1.285-.734 1.187-.916 1.115-.02.016.02-.016-.02.016-.015.02-.017.012h-.016l-.018.018h-.098l-.018-.018-.017-.013h-.015l-.018-.019-.017-.016-.018-.018v-.017l-.014-.016v-.048l-.017-.019.017-.016v-.05l.014-.019.018-.015v-.015z" style="fill:#a7a9ac;fill-opacity:1;fill-rule:evenodd;stroke:none" transform="matrix(5.61618 0 0 -5.61618 -81.053 874.954)"/><path d="M75.243 107.952h-.017l1.833.716 1.87.734 1.902.7 1.951.684 1.986.666 2.001.65 2.036.62 2.066.584 2.068.55 2.086.516 2.102.485 2.082.433 2.102.4 2.085.35 2.084.301 2.053.251 2.053.2 2.015.133 1.985.064 1.97.02 1.918-.05 1.883-.134 1.835-.2 1.786-.268 1.734-.347 1.67-.437 1.6-.517 1.552-.58 1.466-.704 1.385-.766 1.318-.884 1.217-.967.232.265-1.25.985-1.334.901-1.418.785-1.485.698-1.568.601-1.617.535-1.683.432-1.752.35-1.8.266-1.853.202-1.902.133-1.934.05-1.97-.015-2-.068-2.033-.134-2.053-.199-2.069-.249-2.085-.303-2.1-.35-2.104-.4-2.1-.434-2.102-.483-2.084-.516-2.087-.567-2.068-.585-2.035-.618-1.998-.648-2.003-.668-1.953-.687-1.917-.697-1.868-.736-1.833-.73h-.018l-.016-.018-.017-.018h-.018v-.018l-.015-.015v-.019l-.017-.014v-.132l.017-.019.015-.017.018-.016v-.017h.017l.016-.016h.018l.016-.018h.1l.016.018z" style="fill:#a7a9ac;fill-opacity:1;fill-rule:evenodd;stroke:none" transform="matrix(5.61618 0 0 -5.61618 -81.053 874.954)"/><path d="m63.919 132.001 2.252-1.05 2.214-1.135 2.17-1.25 2.151-1.334 2.104-1.417 2.066-1.484 2.035-1.567 2.001-1.654 1.952-1.698 1.935-1.769 1.851-1.821 1.835-1.884 1.804-1.899 1.75-1.97 1.717-2.002 1.666-2.018 1.62-2.05 1.584-2.067 1.534-2.102 1.484-2.102 1.438-2.104 1.381-2.101 1.353-2.116 1.284-2.088 1.25-2.083 1.186-2.07 1.132-2.049 1.1-2.019 1.035-1.984.968-1.935.935-1.901.865-1.851.317.149-.866 1.868-.936 1.885-.983 1.949-1.033 1.987-1.084 2.017-1.136 2.055-1.2 2.066-1.25 2.102-1.287 2.1-1.35 2.101-1.385 2.121-1.449 2.116-1.485 2.103-1.534 2.083-1.582 2.086-1.637 2.052-1.668 2.034-1.718 2.002-1.753 1.969-1.799 1.916-1.852 1.886-1.883 1.819-1.903 1.782-1.969 1.702-2 1.651-2.053 1.585-2.084 1.501-2.119 1.418-2.152 1.335-2.186 1.25-2.234 1.154-2.25 1.066h-.066l-.019.017-.015-.017h-.05l-.019-.017h-.015v-.018l-.015-.015h-.018v-.016l-.016-.018v-.018l-.018-.015v-.117l.018-.018.016-.018v-.015l.018-.018.015-.015h.015z" style="fill:#a7a9ac;fill-opacity:1;fill-rule:evenodd;stroke:none" transform="matrix(5.61618 0 0 -5.61618 -81.053 874.954)"/><path d="m57.98 88.938-1.45 2.901-1.337 2.837-1.215 2.77-1.084 2.681-.968 2.604-.868 2.5-.733 2.436-.618 2.334-.516 2.253-.419 2.134-.282 2.053-.2 1.95-.085 1.835.016 1.753.117 1.616.218 1.521.317 1.382.4 1.284.5 1.167.584 1.035.683.901.751.785.852.65.932.516 1 .4 1.103.253 1.185.114 1.25-.017 1.336-.164 1.418-.318 1.483-.483 1.568-.62.15.336-1.586.618-1.517.482-1.45.316-1.37.184-1.3.018-1.217-.118-1.15-.267-1.052-.4-.986-.55-.882-.682-.785-.817-.715-.953-.6-1.067-.518-1.201-.418-1.3-.317-1.436-.214-1.535-.118-1.65-.016-1.752.083-1.87.198-1.948.3-2.068.402-2.17.517-2.252.633-2.353.735-2.435.867-2.515.967-2.62 1.1-2.686 1.217-2.768 1.334-2.852 1.453-2.918.018-.018.015-.015.018-.018v-.017h.017l.016-.016h.015l.019-.017h.084l.014.017h.034l.017.016.015.017.018.018.018.015v.018l.015.017v.032l.017.016v.017l-.017.018v.033z" style="fill:#a7a9ac;fill-opacity:1;fill-rule:evenodd;stroke:none" transform="matrix(5.61618 0 0 -5.61618 -81.053 874.954)"/><path d="m105.883 38.184-1.703.65-1.717.75-1.72.852-1.698.918-1.717 1.016-1.704 1.1-1.702 1.169-1.684 1.25-1.685 1.318-1.684 1.382-1.65 1.452-1.652 1.52-1.618 1.564-1.618 1.62-1.6 1.685-1.568 1.718-1.551 1.753-1.536 1.8-1.501 1.834-1.484 1.868-1.45 1.886-1.435 1.916-1.385 1.936-1.352 1.967-1.333 1.97-1.284 1.95-1.252 2.003-1.198 1.982-1.17 1.986-1.134 1.987-1.083 1.983-1.034 1.969-.318-.166 1.05-1.971 1.085-1.984 1.118-1.983L62.1 80.83l1.2-2 1.252-1.983 1.302-1.97 1.317-1.967 1.367-1.968 1.384-1.936 1.437-1.937 1.449-1.881 1.485-1.886 1.516-1.836 1.535-1.802 1.553-1.765 1.584-1.72 1.6-1.666 1.619-1.635 1.617-1.568 1.668-1.518 1.669-1.467 1.666-1.384 1.703-1.337 1.702-1.248 1.698-1.187 1.72-1.098 1.719-1.02 1.734-.932 1.719-.85 1.732-.753 1.719-.666h.051l.015-.018h.016l.015.018h.038l.013.015h.018v.016h.017l.016.019v.014l.016.02v.016l.018.017v.117l-.018.018v.018l-.016.01-.016.019h-.017l-.018.017-.013.018z" style="fill:#a7a9ac;fill-opacity:1;fill-rule:evenodd;stroke:none" transform="matrix(5.61618 0 0 -5.61618 -81.053 874.954)"/><path d="m115.571 73.427.534-1.218.55-1.32.551-1.4.534-1.484.518-1.552.517-1.6.467-1.668.45-1.683.417-1.721.383-1.716.316-1.735.267-1.736.218-1.698.134-1.686.067-1.635-.016-1.586-.087-1.517-.18-1.45-.285-1.368-.383-1.27-.486-1.165-.597-1.051-.72-.917-.85-.801-.968-.632-1.099-.502-1.25-.334-1.403-.15-1.569.034-1.734.215-1.9.453-2.084.65-.118-.334 2.118-.67 1.92-.431 1.766-.235 1.618-.032 1.451.15 1.303.35 1.164.517 1.018.685.87.817.75.968.633 1.1.5 1.202.384 1.3.285 1.399.2 1.469.097 1.55v1.603l-.067 1.649-.133 1.686-.215 1.718-.267 1.736-.334 1.75-.366 1.733-.418 1.722-.45 1.698-.483 1.668-.519 1.619-.518 1.55-.548 1.5-.534 1.403-.55 1.335-.552 1.217v.017l-.015.017-.017.014v.017h-.015l-.018.018h-.017l-.017.017h-.1l-.017-.017h-.036v-.018h-.013l-.017-.017-.017-.014v-.017h-.018v-.017l-.015-.015V73.459l.015-.015zM133.086 90.389l-1.203 2.485-1.264 2.4-1.336 2.336-1.401 2.268-1.485 2.203-1.534 2.134-1.62 2.052-1.682 1.986-1.752 1.9-1.8 1.849-1.886 1.753-1.935 1.686-2 1.619-2.053 1.533-2.12 1.45-2.183 1.368-2.235 1.303-2.285 1.214-2.351 1.153-2.385 1.05-2.452.987-2.503.896-2.567.82-2.603.716-2.636.652-2.683.567-2.753.484-2.787.382-2.834.316-2.885.218-2.92.133-2.95.035v-.351l2.933-.035 2.918-.131 2.87-.218 2.819-.315 2.786-.383 2.735-.487 2.684-.55 2.62-.65 2.586-.734 2.552-.8 2.484-.901 2.436-.966 2.4-1.051 2.32-1.136 2.285-1.217 2.217-1.301 2.169-1.37 2.117-1.45 2.037-1.517 2-1.601 1.918-1.682 1.869-1.752 1.8-1.82 1.735-1.9 1.667-1.97 1.619-2.05 1.535-2.12 1.468-2.186 1.4-2.247 1.334-2.336 1.25-2.404 1.186-2.467.016-.018.017-.016v-.017l.018-.016h.017l.016-.015h.016l.017-.018h.099v.018h.034l.018.015.015.016h.018v.017l.015.016v.018h.018v.017l.016.016v.065l-.016.019v.016z" style="fill:#a7a9ac;fill-opacity:1;fill-rule:evenodd;stroke:none" transform="matrix(5.61618 0 0 -5.61618 -81.053 874.954)"/><path d="M105.832 37.85h.031l3.338.683 3.119.835 2.885.95 2.703 1.069 2.483 1.183 2.287 1.285 2.086 1.385 1.901 1.467 1.734 1.552 1.55 1.635 1.385 1.685 1.234 1.765 1.069 1.819.918 1.85.781 1.902.633 1.935.517 1.95.403 1.987.267 1.984.166 1.984.066 1.985-.035 1.985-.13 1.952-.217 1.919-.283 1.9-.354 1.869-.431 1.837-.468 1.765-.533 1.7-.584 1.654-.619 1.566-.648 1.502-.334-.15.648-1.485.62-1.55.566-1.633.534-1.703.483-1.751.418-1.82.348-1.85.303-1.883.198-1.921.119-1.935.034-1.968-.05-1.968-.168-1.967-.266-1.968-.4-1.952-.502-1.935-.633-1.917-.767-1.87-.917-1.832-1.052-1.803-1.218-1.735-1.366-1.67-1.536-1.614-1.703-1.535-1.883-1.451-2.068-1.368-2.267-1.268-2.469-1.168-2.669-1.066-2.868-.951-3.104-.818-3.318-.684h.033-.033l-.018-.016h-.031l-.019-.018h-.015v-.017h-.017l-.015-.018v-.011l-.019-.018v-.018l-.017-.017v-.08l.017-.02v-.033h.019v-.02l.015-.014v-.02h.017l.015-.015h.019l.016-.015h.097z" style="fill:#a7a9ac;fill-opacity:1;fill-rule:evenodd;stroke:none" transform="matrix(5.61618 0 0 -5.61618 -81.053 874.954)"/><path d="M36.53 79.832h.018l1.05-2.153 1.136-2.1 1.2-2.102 1.267-2.054 1.35-2.035 1.418-1.982 1.485-1.953 1.55-1.902 1.637-1.851 1.7-1.817 1.767-1.752 1.854-1.701 1.9-1.651 1.984-1.586 2.069-1.535 2.117-1.467 2.203-1.384 2.267-1.333 2.353-1.253 2.417-1.167 2.486-1.101 2.552-1.017 2.637-.933 2.7-.835 2.769-.769 2.834-.665 2.905-.567 3-.467 3.052-.366 3.137-.268 3.202-.167 3.286-.049v.349l-3.267.053-3.205.166-3.12.265-3.035.367-2.983.468-2.903.568-2.82.667-2.751.749-2.702.836-2.62.931-2.533 1.02-2.486 1.083-2.403 1.166-2.317 1.251-2.268 1.32-2.187 1.385-2.118 1.449-2.052 1.518-1.967 1.584-1.9 1.635-1.835 1.703-1.77 1.751-1.682 1.801-1.62 1.851-1.55 1.9-1.485 1.934-1.402 1.969-1.35 2.018-1.268 2.052-1.183 2.069-1.135 2.118-1.051 2.136v-.019.019l-.017.017-.016.016v.016l-.017.016h-.016l-.017.015h-.02l-.012.018h-.101l-.018-.018-.016-.015h-.015l-.02-.016h-.015v-.016l-.016-.016v-.017l-.017-.019v-.014l-.017-.036v-.033l.017-.018v-.013l.017-.017z" style="fill:#a7a9ac;fill-opacity:1;fill-rule:evenodd;stroke:none" transform="matrix(5.61618 0 0 -5.61618 -81.053 874.954)"/><path d="m64.002 132.337-1.405-.05-1.448-.136-1.5-.25-1.569-.348-1.585-.433-1.636-.55-1.632-.637-1.65-.75-1.637-.85-1.634-.934-1.62-1.05-1.566-1.152-1.534-1.27-1.469-1.35-1.417-1.467-1.334-1.567-1.25-1.666-1.152-1.787-1.05-1.883-.935-2.003-.817-2.085-.667-2.22-.533-2.316-.369-2.42-.199-2.534-.017-2.635.166-2.753.368-2.867.57-2.968.781-3.071 1.018-3.203 1.25-3.3.334.13-1.252 3.289-1.017 3.185-.784 3.053-.568 2.952-.348 2.833-.17 2.72.02 2.617.198 2.519.368 2.386.518 2.3.668 2.186.797 2.068.92 1.968 1.05 1.87 1.135 1.768 1.25 1.65 1.32 1.553 1.4 1.449 1.45 1.334 1.516 1.252 1.553 1.132 1.601 1.054 1.618.932 1.62.835 1.632.734 1.62.633 1.616.552 1.568.432 1.551.335 1.484.25 1.434.135 1.37.047h.032l.016.016h.018l.016.018h.017l.017.015v.018h.016l.015.015v.036l.018.017v.1l-.018.015v.036h-.015l-.016.016v.015h-.017l-.017.018-.016.017h-.05z" style="fill:#a7a9ac;fill-opacity:1;fill-rule:evenodd;stroke:none" transform="matrix(5.61618 0 0 -5.61618 -81.053 874.954)"/><path d="m29.142 72.927-.502 2.734-.366 2.669-.199 2.618-.068 2.584.068 2.536.2 2.47.314 2.434.453 2.37.566 2.317.667 2.253.786 2.2.884 2.153.983 2.085 1.084 2.035 1.17 1.967 1.248 1.918 1.336 1.852 1.4 1.784 1.468 1.734 1.552 1.669 1.601 1.584 1.65 1.535 1.718 1.468 1.753 1.4 1.798 1.335 1.837 1.269 1.866 1.2 1.887 1.118 1.917 1.066 1.936.968 1.951.917 1.951.832-.115.336-1.986-.852-1.952-.914-1.95-.99-1.919-1.048-1.918-1.134-1.868-1.201-1.85-1.267-1.802-1.352-1.769-1.401-1.72-1.483-1.666-1.536-1.618-1.618-1.552-1.667-1.484-1.734-1.402-1.803-1.35-1.866-1.25-1.92-1.186-2.001-1.084-2.036-.983-2.115-.9-2.153-.784-2.216-.684-2.287-.568-2.335-.448-2.385-.319-2.452-.199-2.488-.084-2.551.084-2.6.2-2.652.365-2.67.501-2.751v-.016l.017-.016v-.017l.017-.018.015-.017v-.016l.02-.018h.015l.016-.016h.132l.02.016h.016l.017.018h.015l.017.016v.017l.018.018v.017l.016.016v.066z" style="fill:#a7a9ac;fill-opacity:1;fill-rule:evenodd;stroke:none" transform="matrix(5.61618 0 0 -5.61618 -81.053 874.954)"/><path d="m105.766 38.184-4.07-1.418-3.985-1.185-3.888-.916-3.77-.7-3.684-.484-3.57-.27-3.47-.048-3.37.132-3.267.334-3.171.517-3.051.667-2.952.85-2.838.988-2.717 1.13-2.618 1.288-2.502 1.399-2.388 1.519-2.265 1.62-2.168 1.732-2.037 1.817-1.918 1.903-1.8 1.968-1.668 2.053-1.568 2.1-1.435 2.134-1.301 2.184-1.184 2.218-1.05 2.238-.935 2.25-.782 2.253-.668 2.235-.534 2.235-.351-.068.535-2.251.684-2.27.799-2.268.934-2.27 1.05-2.25 1.202-2.218 1.3-2.202 1.454-2.167 1.566-2.101L40 50.809l1.817-2.002 1.935-1.9 2.053-1.837 2.167-1.75 2.285-1.635 2.403-1.517 2.517-1.42 2.635-1.28 2.753-1.152 2.853-1 2.968-.834 3.069-.685 3.188-.517 3.284-.333 3.402-.133 3.486.049 3.586.264 3.703.489 3.8.698 3.887.932 4.004 1.186 4.088 1.418.03.015h.019l.018.016v.019l.015.014h.016v.02l.018.016v.134l-.018.018v.018l-.016.01-.015.019-.018.017h-.018v.018h-.013l-.018.016h-.084l-.017-.016z" style="fill:#a7a9ac;fill-opacity:1;fill-rule:evenodd;stroke:none" transform="matrix(5.61618 0 0 -5.61618 -81.053 874.954)"/><path d="m139.424 101.53.619-2.202.514-2.236.434-2.25.333-2.269.249-2.267.136-2.286.05-2.286-.05-2.284-.15-2.269-.268-2.268-.365-2.269-.47-2.219-.583-2.216-.683-2.2-.801-2.188-.918-2.153-1.033-2.099-1.167-2.084-1.268-2.033-1.384-2.004-1.517-1.953-1.653-1.883-1.767-1.854-1.884-1.783-2.036-1.717-2.151-1.668-2.302-1.585-2.436-1.536-2.568-1.433-2.703-1.367-2.852-1.286-2.984-1.2.117-.334 3.019 1.201 2.852 1.302 2.719 1.366 2.583 1.451 2.454 1.535 2.3 1.601 2.17 1.668 2.05 1.735 1.9 1.802 1.785 1.85 1.653 1.921 1.534 1.965 1.403 2.002 1.28 2.052 1.152 2.103 1.052 2.134.918 2.151.819 2.2.7 2.218.582 2.236.467 2.253.368 2.27.266 2.282.15 2.303.05 2.284-.05 2.302-.135 2.302-.248 2.286-.333 2.268-.435 2.27-.533 2.25-.62 2.22v.013-.014.03l-.013.018v.02l-.017.014h-.018l-.016.018v.016h-.033l-.016.015H139.539l-.013-.015h-.02l-.015-.016h-.017v-.018h-.017l-.017-.015v-.019l-.016-.018v-.03l-.018-.019v-.033l.018-.017z" style="fill:#a7a9ac;fill-opacity:1;fill-rule:evenodd;stroke:none" transform="matrix(5.61618 0 0 -5.61618 -81.053 874.954)"/><path d="m64.05 132.001 2.955.985 2.95.869 2.936.717 2.952.602 2.919.466 2.902.331 2.886.218 2.854.083 2.833-.047 2.82-.17 2.767-.299 2.735-.417 2.686-.55 2.652-.669 2.6-.8 2.538-.917 2.485-1.034 2.434-1.167 2.352-1.267 2.284-1.403 2.236-1.535 2.134-1.632 2.07-1.767 1.984-1.871 1.885-2 1.82-2.102 1.699-2.236 1.619-2.335 1.5-2.468 1.418-2.568 1.284-2.684 1.185-2.805.332.117-1.183 2.819-1.318 2.701-1.403 2.605-1.516 2.466-1.633 2.368-1.72 2.236-1.817 2.119-1.902 2.018-2 1.886-2.086 1.767-2.152 1.649-2.236 1.535-2.3 1.418-2.386 1.284-2.436 1.169-2.5 1.051-2.568.916-2.604.802-2.668.683-2.701.551-2.754.416-2.783.301-2.836.165-2.85.053-2.871-.086-2.901-.214-2.92-.336-2.937-.466-2.951-.599-2.97-.733-2.952-.87-2.966-.983-.017-.017h-.02l-.015-.018-.015-.015h-.017v-.016l-.016-.018v-.018l-.018-.015v-.1l.018-.017v-.036h.016v-.015l.017-.018.015-.015h.016v-.018H63.936l.014-.016h.084z" style="fill:#a7a9ac;fill-opacity:1;fill-rule:evenodd;stroke:none" transform="matrix(5.61618 0 0 -5.61618 -81.053 874.954)"/><path d="m64.285 138.156.034.02.317.03.433-.166.519-.384.583-.6.649-.798.7-.986.734-1.169.802-1.333.834-1.483.866-1.636.903-1.752.93-1.885.95-1.986.987-2.082 1-2.17 1.017-2.235 1.019-2.299 1.034-2.353 1.049-2.404 1.036-2.418 1.049-2.45 1.035-2.454 1.034-2.432 1.019-2.437.982-2.4.985-2.352.965-2.32.936-2.25.917-2.186.87-2.102.848-2 .8-1.886.318.134-.802 1.902-.832 2-.885 2.084-.9 2.184-.951 2.254-.951 2.317-.985 2.352-1 2.403-1.016 2.435-1.018 2.452-1.052 2.435-1.033 2.452-1.052 2.418-1.034 2.4-1.033 2.354-1.034 2.317-1.018 2.236-1 2.166-.984 2.084-.951 2.004-.934 1.867-.901 1.768-.883 1.637-.833 1.501-.804 1.336-.75 1.181-.717 1-.65.82-.618.633-.583.417-.533.215-.516-.067.014.018-.014-.018h-.036l-.015-.015-.016-.018-.018-.016-.016-.016v-.034l-.016-.016v-.081l.016-.019v-.034h.016v-.017l.018-.017.016-.016h.015v-.014h.017l.019-.02h.115l.018.02z" style="fill:#a7a9ac;fill-opacity:1;fill-rule:evenodd;stroke:none" transform="matrix(5.61618 0 0 -5.61618 -81.053 874.954)"/><path d="m82.299 77.795-.784 1.9-.818 2.003-.834 2.1-.85 2.185-.87 2.272-.882 2.315-.883 2.388-.886 2.434-.868 2.453-.885 2.484-.848 2.486-.85 2.5-.817 2.485-.82 2.454-.767 2.418-.748 2.385-.717 2.337-.668 2.248-.632 2.188-.585 2.098-.52 2.006-.482 1.882-.416 1.766-.352 1.655-.282 1.483-.217 1.35-.15 1.185-.067.983.017.818.1.6.167.369.2.13-.086.352-.381-.267-.234-.482-.117-.667-.018-.853.069-1.018.15-1.2.216-1.352.283-1.518.35-1.633.418-1.784.483-1.886.534-2.018.584-2.084.635-2.202.666-2.25.716-2.334.753-2.387.768-2.435.8-2.452.832-2.485.852-2.485.85-2.502.885-2.485.883-2.454.867-2.433.884-2.386.886-2.334.866-2.27.85-2.187.836-2.098.815-2.003.8-1.901h-.014.015v-.017l.018-.018.016-.016v-.014l.016-.02h.016l.017-.014h.036l.013-.017h.035l.016.017h.05v.015h.018l.015.019h.017l.016.014v.016l.019.018v.017l.015.017v.1z" style="fill:#a7a9ac;fill-opacity:1;fill-rule:evenodd;stroke:none" transform="matrix(5.61618 0 0 -5.61618 -81.053 874.954)"/><path d="M105.53 31.762h-.015l-.25-.02-.335.154-.417.3-.499.484-.55.63-.582.787-.654.918-.666 1.05-.719 1.167-.75 1.284-.783 1.386-.818 1.485-.816 1.566-.85 1.635-.869 1.718-.865 1.767-.884 1.836-.886 1.867-.9 1.902-.885 1.935-.883 1.949-.869 1.97-.865 1.954-.852 1.95-.818 1.952-.799 1.9-.784 1.884-.749 1.852-.7 1.786-.688 1.732-.632 1.652-.599 1.6-.334-.132.6-1.586.65-1.651.668-1.75.716-1.785.734-1.854.784-1.881.801-1.917.832-1.936.853-1.95.85-1.971.885-1.965.882-1.951.884-1.937.885-1.903.9-1.867.884-1.834.87-1.786.864-1.7.85-1.652.835-1.567.802-1.484.783-1.401.751-1.283.735-1.17.681-1.068.653-.93.6-.79.567-.661.518-.504.481-.35.452-.165.42.018.013.014h.017l.018.017.016.017.017.016h.015v.036l.02.015V31.648l-.02.013V31.697l-.015.014h-.017v.018l-.016.013h-.018l-.017.02-.014.018H105.53l-.015-.018z" style="fill:#a7a9ac;fill-opacity:1;fill-rule:evenodd;stroke:none" transform="matrix(5.61618 0 0 -5.61618 -81.053 874.954)"/><path d="m92.122 80.798.534-1.534.57-1.62.581-1.7.6-1.75.634-1.835.631-1.902.671-1.918.648-1.97.667-2 .652-2.017.651-2.02.65-2.017.635-2.02.631-1.982.603-1.986.582-1.933.55-1.887.518-1.833.501-1.785.45-1.701.415-1.635.368-1.536.334-1.435.267-1.35.22-1.216.163-1.101.101-.95.031-.818-.03-.667-.102-.485-.149-.3-.169-.133.104-.331.331.23.217.417.117.566.033.703-.033.832-.1.985-.166 1.116-.217 1.219-.267 1.352-.334 1.45-.369 1.535-.414 1.634-.468 1.718-.483 1.769-.534 1.85-.553 1.887-.582 1.949-.599 1.968-.617 1.985-.653 2.018-.633 2.036-.667 2.019-.653 2.018-.662 1.984-.653 1.968-.65 1.932-.65 1.889-.635 1.85-.6 1.749-.583 1.704-.568 1.617-.532 1.535-.019.018.02-.018-.02.033-.016.016v.017h-.016l-.015.017v.015h-.02l-.018.02h-.032l-.015.014h-.033l-.017-.014H92.205l-.018-.02h-.015v-.015l-.018-.017h-.015v-.017l-.017-.016v-.015l-.018-.018v-.085z" style="fill:#a7a9ac;fill-opacity:1;fill-rule:evenodd;stroke:none" transform="matrix(5.61618 0 0 -5.61618 -81.053 874.954)"/><path d="m39.705 39.412-3.137 3.392-.502-.463c-.245-.235-.337-.457-.034-.828l2.738-2.966zm-4.857 1.725c-1 1.164-.156 1.946.08 2.165l2.196 2.03 1.004-1.086-.744-.69 3.134-3.39.746.686 1.017-1.098-3.32-3.066zm.663-3.468-1.868-1.73-1.007 1.088 1.868 1.73-2.547 2.756.787.726 6.076-6.57-.788-.73zM50.9 29.59l-1.924-2.968-1.253.81 3.613 5.585 1.256-.814-1.105-1.704 1.29-.836-.587-.907zm-7.565-2.398c-1.284.77-.472 1.813-.472 1.813l1.246 1.922 1.266-.821-1.164-1.796c-.046-.076-.05-.161-.006-.257a.645.645 0 0 1 .247-.26l3.713-2.403-.603-.935zM63.496 23.689l1.125 2.635-1.374.59-2.234-5.236-1.035.445 1.66 3.887c.115.313.29.95-.715 1.408l-3.559 1.519-.43-1.013 2.863-1.224c.297-.128.404-.285.323-.478l-1.502-3.523-.997.427.886 2.077-1.348.573-.886-2.075-1.538.657-.419-.985 6.277-2.68-1.122-2.624 1.376-.587 2.206 5.172 1.415-.604.441 1.035zM84.816 17.161l.064 4.026c.003.21-.157.317-.478.322l-2.628.041.018 1.102 3.38-.055c1.103-.046 1.183-.696 1.197-1.035l-.074-4.423zM73.956 14.117l.46 2.261c.042.204-.095.338-.409.4l-4.665.952.222 1.08 5.4-1.104c1.075-.249 1.034-.904.984-1.235l-.54-2.648zM76.677 19.953l-.406-2.002-1.477.303 1.03 5.043 1.476-.304-.395-1.936 1.52-.309-.226-1.106zM88.02 13.37l.156 9.59 1.478-.023-.154-9.59zM98.672 19.536l-3.474-.896-.27 1.05 8.517 2.196.272-1.047-3.64-.94.109-.418 2.767.715.623-2.415-5.315-1.372.039-.144c.022-.085.124-.286.532-.185l4.996 1.288.269-1.045-5.394-1.393c-.45-.112-.771-.136-1.067-.082-.362.077-.614.411-.698.738l-.37 1.407 5.354 1.38-.104.412-5.355-1.382-.271 1.046 2.587.67zM112.47 29.466l1.009-2.451-.817-.333-1.011 2.463-1.252-.514 2.177-5.298-1.916-.786c-.296-.12-.484-.087-.572.109l-1.478 3.586 1.69.7-.42 1.02-2.972-1.221.419-1.02 1.636-3.968c.142-.3.477-.868 1.507-.476l2.523 1.038 1.05-2.561 1.252.515-2.144 5.225.816.335 2.152-5.238 1.289.53-3.65 8.874zM48.667 33.742l-.474-4.399-1.377.883.364 3.365-2.923-1.705-1.372.894 4.45 2.601.706-.459s.705-.416.627-1.18M99.64 24.227c.24-.104.302-.155.514-.29l2.903-1.614-1.916-.499-2.57 1.452-1.5-2.5-1.965-.504 2.179 3.614 1.212.312s.703.214 1.144.03M73.04 20.797c-.139-.674-.757-1.12-1.382-.987-.627.126-1.023.775-.885 1.45.123.61.646 1.03 1.21 1.006l.338-.07c.53-.2.843-.79.72-1.4m2.07 1.956-2.029.414.125.614-1.434.29-.127-.612-2.06.423-.22-1.081.56-.114a1.908 1.908 0 0 1-.697-1.113c-.245-1.191.75-2.403 2.22-2.703 1.468-.3 2.857.426 3.098 1.617.093.447.008.894-.206 1.298l.548-.113zM128.717 28.502l-1.426 1.813c-.127.164-.32.146-.573-.055l-3.6-2.832-.68.867 4.189 3.297c.885.661 1.36.206 1.58-.046l1.674-2.129zM126.013 34.365l1.282-1.629-1.185-.934-3.182 4.044 1.188.932 1.22-1.553 1.219.96.678-.862zM123.04 32.106c.424-.539.36-1.298-.14-1.694-.504-.393-1.257-.279-1.68.265-.388.491-.37 1.158.013 1.575l.273.21c.491.276 1.146.137 1.533-.356m-.154 2.846-1.629-1.282-.387.493-1.15-.906.386-.493-1.65-1.3.68-.864.451.351c-.013-.454.113-.89.396-1.25.752-.957 2.318-.98 3.496-.05 1.177.926 1.522 2.45.77 3.407a1.921 1.921 0 0 1-1.123.683l.44.344zM138.047 43.462l-.43-.522-3.261 2.668c-.271.199-.831.54-1.555-.296l-3.951-4.831.853-.701 3.477 4.25c.205.25.387.31.547.182l2.953-2.417-.682-.835-1.805 1.479-.93-1.136 1.805-1.48-.71-.871-1.805 1.48-.93-1.134 1.807-1.481-.913-1.116.852-.696 5.53 6.762zM20.516 84.148l.054 2.818 2.653.674.015.888-8.662-2.23-.023-1.232 8.576-2.509.015.831zm-.778.252-4.392 1.244.001.022 4.436 1.081zM116.828 141.624l2.416-1.455-.743-2.634.761-.462 2.396 8.62-1.055.636-6.46-6.172.712-.43zm.604.548 3.273 3.181.021-.011-1.286-4.381zM18.623 63.46l-.422 1.416c-.3 1.008.098 1.669 1.01 1.945.914.272 1.577-.153 1.861-1.107l.416-1.4zm7.776 1.352-.809 2.713c-.419 1.406-1.562 2.172-3.005 1.74-1.111-.332-1.724-1.234-1.53-2.165l-.025-.008c-.446.705-1.224.946-2.263.637-1.257-.374-1.766-1.571-1.366-2.91l.738-2.471zm-4.164-.275-.436 1.467c-.384 1.29.087 2.009 1.048 2.297 1.19.355 1.787-.303 2.036-1.146l.501-1.68zM147.494 112.013c1.008.537 2.002 1.646 1.406 2.854-.578 1.18-1.994 1.25-4.17.178-2.072-1.02-2.955-2.296-2.408-3.413.544-1.104 1.56-1.276 2.938-.69l.408-.83c-1.58-.778-3.207-.534-4.077 1.24-.852 1.729.403 3.458 2.696 4.586 2.301 1.13 4.435 1.069 5.307-.703.83-1.69-.128-3.242-1.704-4.03zM103.54 150.251c.277 1.107.12 2.587-1.175 2.957-1.265.36-2.26-.644-2.926-2.978-.632-2.22-.277-3.732.916-4.071 1.184-.337 1.993.298 2.484 1.717l.888-.252c-.48-1.695-1.754-2.74-3.654-2.197-1.854.528-2.293 2.615-1.593 5.077.702 2.461 2.178 4.005 4.077 3.464 1.808-.518 2.321-2.269 1.85-3.962zM79.494 152.487c-.127 1.135-.792 2.466-2.138 2.357-1.307-.103-1.89-1.394-1.695-3.81.184-2.305 1.044-3.595 2.285-3.495 1.226.097 1.76.978 1.723 2.478l.92.074c.142-1.755-.683-3.18-2.652-3.338-1.92-.154-3.067 1.65-3.272 4.201-.207 2.55.64 4.511 2.606 4.67 1.874.15 2.967-1.31 3.12-3.064zM126.412 131.794l1.914-1.821c1.632-1.555 3.701-1 5.41.797 1.711 1.795 2.166 3.893.534 5.443l-1.913 1.823zm6.076 5.037 1.242-1.184c1.064-1.015.92-2.47-.716-4.19-1.637-1.718-3.086-1.933-4.15-.92l-1.244 1.184zM137.514 118.948l7.282 4.612 2.308-3.642-.662-.42-1.813 2.865-2.462-1.557 1.814-2.868-.658-.416-1.816 2.864-2.84-1.8 1.815-2.866-.661-.417zM104.247 144.281l2.88 8.122 4.066-1.44-.26-.738-3.197 1.133-.974-2.748 3.2-1.133-.265-.735-3.198 1.134-1.122-3.169 3.196-1.133-.262-.738zM84.906 147.175l.18 8.617 4.312-.093-.015-.78-3.392.069-.059-2.913 3.39-.072-.018-.78-3.389.072-.07-3.36 3.39-.072-.017-.783zM47.157 134.117l-5.028 7.006 3.504 2.513.457-.635-2.755-1.979 1.7-2.365 2.753 1.977.456-.636-2.753-1.977 1.961-2.73 2.752 1.975.456-.633zM60.844 142.158l-2.75 8.17 3.752 1.265.249-.743-2.875-.97.93-2.763 2.876.97.25-.74-2.876-.967 1.322-3.927zM151.914 69.46c1.131-.086 2.197.355 2.401 1.545.27 1.548-.835 2.445-3.236 2.859-2.383.412-3.72-.067-3.989-1.636-.224-1.292.178-2.177 2.402-2.56l.49 2.842.771-.134-.648-3.753-1.17.199c-1.917.33-2.947 1.628-2.603 3.618.383 2.212 2.406 2.84 4.928 2.409 2.522-.434 4.218-1.704 3.838-3.921-.306-1.771-1.63-2.612-3.339-2.378zM143.258 107.89l8.139 2.837.304-.875-3.552-1.236 1.217-3.485 3.549 1.238.304-.875-8.141-2.836-.304.874 3.855 1.343-1.217 3.484-3.853-1.343zM25.292 101.241l-8.236 2.547.275.886 8.234-2.553zM34.214 120.51l-6.756 5.355.573.726 6.757-5.355zM82.22 147.099l-.079 8.62.925.007.077-8.62zM147.594 87.245l8.623.104.008-.923-7.84-.093.039-3.274-.778-.009zM23.252 89.353l-8.542 1.149.133.986 6.958 2.697.005.022-6.48.872.123.916 8.543-1.149-.116-.868-7.29-2.771-.003-.024 6.794-.912zM26.158 104.311l-8.064 3.044.352.933 7.385 1.055.01.025-6.117 2.306.327.867 8.066-3.044-.312-.823-7.728-1.054-.007-.022 6.414-2.423zM120.512 136.39l5.29 6.805.786-.61-1.172-7.367.018-.015 4.014 5.162.728-.568-5.29-6.804-.691.535 1.272 7.695-.017.013-4.207-5.412zM90.626 146.991l1.226 8.533.988-.14 2.631-6.984.023-.006.928 6.475.92-.133-1.227-8.534-.872.122-2.7 7.317-.024.006-.977-6.788zM145.577 100.653l8.376 2.044.236-.969-5.498-5.042.006-.025 6.351 1.551.22-.899-8.376-2.043-.207.851 5.781 5.236-.008.021-6.659-1.626zM53.898 148.71c-2.057-.911-2.203-3.042-1.167-5.381 1.036-2.34 2.716-3.665 4.77-2.75 2.054.91 2.202 3.041 1.165 5.379-1.035 2.344-2.715 3.662-4.768 2.752m.315-.717c1.388.615 2.557-.22 3.54-2.437.985-2.219.817-3.649-.571-4.263-1.382-.612-2.554.223-3.536 2.44-.986 2.219-.814 3.65.567 4.26M156.262 78.892c.123 2.242-1.711 3.342-4.268 3.479-2.553.137-4.494-.756-4.615-3-.121-2.245 1.713-3.342 4.266-3.48 2.556-.14 4.495.755 4.617 3m-.781.04c-.081-1.511-1.358-2.174-3.782-2.045-2.423.13-3.62.93-3.538 2.444.08 1.509 1.358 2.173 3.78 2.044 2.425-.13 3.622-.927 3.54-2.442M156.125 92.302c-.285 2.227-2.287 2.976-4.828 2.648-2.534-.33-4.281-1.561-3.992-3.79.288-2.227 2.289-2.973 4.825-2.647 2.54.327 4.284 1.558 3.995 3.789m-.775-.102c.192-1.501-.941-2.385-3.348-2.7-2.406-.308-3.727.259-3.923 1.76-.192 1.503.942 2.387 3.348 2.698 2.407.31 3.727-.256 3.923-1.758M20.718 77.82c1.305.107 1.924.575 1.81 1.965-.09 1.054-.617 1.641-1.766 1.547-2.328-.198-.824-4.345-3.795-4.592-1.533-.129-2.399.848-2.523 2.33-.128 1.538.754 2.537 2.382 2.677l.075-.92c-1.188-.1-1.758-.698-1.666-1.814.073-.863.632-1.437 1.57-1.358 2.302.192.598 4.322 3.845 4.593 1.708.141 2.54-1.025 2.663-2.488.15-1.807-.785-2.718-2.517-2.862zM69.8 148.054c.218-1.292.74-1.867 2.113-1.633 1.04.175 1.58.75 1.387 1.89-.392 2.299-4.395.45-4.896 3.389-.255 1.517.64 2.459 2.105 2.709 1.523.26 2.596-.532 2.87-2.14l-.913-.154c-.2 1.172-.841 1.69-1.945 1.506-.853-.147-1.377-.755-1.221-1.681.39-2.28 4.36-.228 4.905-3.44.287-1.687-.802-2.621-2.253-2.867-1.785-.303-2.773.55-3.064 2.265zM26.483 112.666c1.144-.634 1.917-.588 2.593.632.511.924.402 1.706-.609 2.266-2.045 1.129-3.095-3.157-5.706-1.711-1.343.746-1.522 2.036-.804 3.334.75 1.35 2.036 1.695 3.465.907l-.448-.814c-1.043.584-1.848.403-2.39-.576-.419-.759-.269-1.548.55-2.001 2.023-1.122 2.9 3.263 5.75 1.684 1.498-.829 1.546-2.261.834-3.548-.879-1.584-2.162-1.823-3.682-.982zM140.96 128.895l3.026-4.01-.687-.516-1.233 1.64-6.199-4.676-.556.735 6.2 4.678-1.235 1.636zM37.517 137.177l3.82 3.265.556-.65-1.56-1.336 5.046-5.9-.704-.6-5.046 5.902-1.554-1.333zM28.92 127.943l3.345 3.754.64-.57-1.366-1.532 5.798-5.165-.617-.689-5.796 5.163-1.363-1.529zM23.865 120.392l2.837 4.148.708-.484-1.157-1.692 6.406-4.385-.523-.763-6.407 4.385-1.157-1.693zM15.799 70.499l6.094 1.098c1.22.214 1.644.953 1.464 1.953-.18 1-.833 1.547-2.054 1.329l-6.091-1.096-.163.91 6.28 1.126c1.525.273 2.503-.477 2.798-2.129.297-1.656-.36-2.699-1.881-2.972l-6.282-1.129zM33.632 133.508l4.206-4.54c.844-.907 1.693-.867 2.439-.18.744.696.85 1.539.01 2.447l-4.21 4.542.68.627 4.337-4.682c1.052-1.135.946-2.36-.285-3.503-1.231-1.142-2.466-1.154-3.515-.02l-4.34 4.679zM148.066 65.106l-3.313.886.24.894 3.311-.887 5.652 1.031-.273-1.007-4.556-.724 3.585-2.908-.263-.995z" style="fill:#58595b;fill-opacity:1;fill-rule:nonzero;stroke:none" transform="matrix(5.61618 0 0 -5.61618 -81.053 874.954)"/><path d="M109.888 79.684c-.208 2.227-1.604 3.265-4.196 3.265-1.98 0-4.055-.48-4.055-2.544 0-3.992 15.98-.742 15.98-8.95 0-4.861-4.346-7.461-11.758-7.461-5.361 0-11.59 1.002-11.794 7.048h6.982c0-3.267 2.832-3.503 5.09-3.503 3.13 0 4.496.89 4.496 2.496 0 4.75-15.98.325-15.98 9.649 0 3.148 2.498 6.81 11.722 6.81 5.019 0 10.118-1.831 10.498-6.81zM125.174 64.643v16.636h-7.416v4.57h21.816v-4.57h-7.416V64.643zM91.25 64.961h-7.041v21.205h7.041Z" style="fill:#353377;fill-opacity:1;fill-rule:nonzero;stroke:none" transform="matrix(5.61618 0 0 -5.61618 -81.053 874.954)"/><path d="m50.215 84.067-2.681.447c.079-.017 1.074-.233 2.681-.447" style="fill:url(#a);stroke:none" transform="matrix(5.61618 0 0 -5.61618 -81.053 874.954)"/><path d="M30.236 92.966c-.264-5.373 3.22-8.842 7.407-11.067 2.798-1.484 5.91-2.414 8.429-2.982a43.618 43.618 0 0 1 4.143-.732V63.722l10.624-.115c12.173 0 18.769 3.237 19.194 11.226.108 2.022-.915 3.921-2.514 5.558a13.386 13.386 0 0 1-1.768 1.508c.656.475 1.248.979 1.768 1.51 1.599 1.638 2.535 3.536 2.514 5.557-.076 7.188-7.11 11.257-19.194 11.227l-10.624-.116V86.166c3.368-.633 8.22-.515 10.624-.401 0 0 .003 9.905.006 9.905 5.504 0 9.793-.948 9.969-5.483.084-2.182-1.359-3.788-3.498-4.817-1.286-.615-2.852-1.023-4.575-1.222-4.971-.799-9.695-.451-12.526-.081l-2.681.447h-.006c-.498.116-.983.237-1.456.369-1.446.401-2.776.898-3.931 1.536-3.536 1.948-5.245 4.04-5.245 6.684 0 6.387 10.811 11.914 27.006 11.9 14.292-.011 26.026-4.619 27.287-10.509-1.336 7.74-14.444 13.812-30.419 13.812-16.864 0-30.53-6.842-30.534-15.34M60.839 78.08c2.223.002 4.389.126 6.477.35 2.139-1.026 3.578-2.746 3.498-4.931-.176-4.733-4.045-5.561-9.969-5.596-.003 0-.006 10.177-.006 10.177" style="fill:url(#b);stroke:none" transform="matrix(5.61618 0 0 -5.61618 -81.053 874.954)"/><path d="M47.528 84.514h.006z" style="fill:url(#c);stroke:none" transform="matrix(5.61618 0 0 -5.61618 -81.053 874.954)"/><path d="M165.47 99.72c-.209.006-.315.107-.322.301-.025.475-.173.816-.447 1.024-.233.175-.575.262-1.023.262-.184 0-.274.094-.266.28.008.184.109.278.3.278h1.327v6.682c0 .135.036.25.11.336.07.072.158.115.263.123a.335.335 0 0 0 .252-.123.436.436 0 0 0 .121-.324v-8.538c0-.209-.106-.31-.314-.3zm5.397 0c-.852 0-1.518.26-2 .782-.498.555-.746 1.336-.746 2.348 0 .973.286 1.707.856 2.205.449.393.967.588 1.552.588.531 0 .997-.12 1.399-.358.328-.192.594-.445.797-.75-.058 1.295-.24 2.23-.545 2.807-.347.653-.898.976-1.66.976-.42 0-.757-.136-1.014-.408-.216-.236-.359-.54-.424-.918-.048-.246-.195-.354-.443-.31-.242.046-.35.187-.327.418.075.628.33 1.108.77 1.447.385.29.859.435 1.412.435 1.076 0 1.837-.409 2.29-1.218.457-.816.683-2.215.683-4.194 0-1.476-.298-2.534-.9-3.175-.426-.45-.993-.674-1.7-.674zm-36.664.128c-1.476 0-2.516.775-2.516 2.304 0 2.966 4.237 1.819 4.237 4.143 0 1.147-.627 1.62-1.678 1.62-1.384 0-1.799-.65-1.799-1.954h-.918c0 1.732.827 2.73 2.625 2.73 1.463 0 2.69-.73 2.69-2.433 0-3.243-4.237-1.892-4.237-4.19 0-.93.614-1.445 1.477-1.445 1.112 0 1.656.617 1.656 1.805h.918c0-1.626-.918-2.58-2.455-2.58zm16.842 0c-1.964 0-2.957 1.875-2.957 4.423 0 2.544.993 4.42 2.91 4.42 1.963 0 2.895-1.347 2.895-3.1h-.92c-.082 1.494-.68 2.323-1.905 2.323-1.236 0-1.988-1.347-1.988-3.643 0-2.416.683-3.648 1.988-3.648 1.342 0 1.893 1.374 1.93 2.51h.895c-.011-1.75-.977-3.285-2.848-3.285zm23.46.076c-.226 0-.339.108-.339.324 0 .225.113.34.34.34h4.273c-.858 1.059-1.628 2.436-2.31 4.127-.586 1.463-.951 2.722-1.098 3.771a.426.426 0 0 0 .084.362c.065.089.157.135.28.146.109.005.21-.025.298-.1a.576.576 0 0 0 .182-.359c.207-1.687.726-3.358 1.553-5.01.62-1.252 1.238-2.2 1.855-2.843.152-.167.188-.338.11-.506-.082-.167-.23-.252-.448-.252zm6.165 0c-.223 0-.336.108-.336.324 0 .225.113.34.336.34h4.277c-.861 1.059-1.633 2.436-2.314 4.127-.586 1.463-.95 2.722-1.094 3.771a.426.426 0 0 0 .084.362c.063.089.155.135.275.146a.418.418 0 0 0 .301-.1.583.583 0 0 0 .182-.359c.207-1.687.727-3.358 1.555-5.01.617-1.252 1.233-2.2 1.853-2.843.153-.167.19-.338.11-.506-.082-.167-.231-.252-.446-.252zm-42.713.058v8.575h.918v-8.575zm3.043 0v8.575h.922v-6.82h.021l3.696 6.82h.87v-8.575h-.92v6.502h-.02l-3.579-6.502zm14.303 0v8.575h4.289v-.778h-3.371v-3.345h3.37v-.778h-3.37v-2.892h3.37v-.782zm15.443.4c.617 0 1.11.236 1.47.708.337.441.509.997.509 1.664 0 .636-.2 1.166-.592 1.59-.387.428-.857.638-1.41.638-.619 0-1.093-.224-1.422-.673-.29-.403-.434-.916-.434-1.541 0-.724.182-1.305.543-1.747.344-.429.79-.638 1.336-.638z" style="fill:#58595b;fill-opacity:1;fill-rule:nonzero;stroke:none;stroke-width:1.33333" transform="translate(-81.053 -80.245) scale(4.21213)"/></svg>