<svg xmlns="http://www.w3.org/2000/svg" width="181.84578mm" height="204.86975mm" viewBox="0 0 181.84578 204.86975"><path d="M127.332 98.503a3.715 3.715 0 1 0 .002-7.43 3.715 3.715 0 0 0-.002 7.43M138.954 94.4a4.71 4.71 0 1 0 0-9.42 4.71 4.71 0 1 0 0 9.42M150.494 98.503a3.716 3.716 0 1 0 0-7.433 3.716 3.716 0 0 0 0 7.433M154.05 105.363v-.057a4.524 4.524 0 0 0-7.4-3.492 8.72 8.72 0 0 0-15.478-.004 4.524 4.524 0 0 0-7.395 3.496v.057h-4.1v23.625c.018 2.993.72 5.828 1.958 8.354 3.091 6.409 9.65 10.832 17.242 10.832a19.03 19.03 0 0 0 9.946-2.786c5.543-3.363 9.256-9.456 9.256-16.4v-23.625zm-23.755 11.024c.273-.152.586-.242.922-.242a1.911 1.911 0 0 1 1.09 3.48l-.001.006a11.463 11.463 0 0 0-4.906 9.41c0 3.898 1.943 7.34 4.913 9.416v.003c.493.344.816.934.816 1.582 0 1.054-.856 1.91-1.912 1.91-.045 0-.09-.004-.135-.007-4.385-2.656-7.331-7.47-7.37-12.954v-1.903a15.29 15.29 0 0 1 6.583-10.7zm8.613 27.74a15.09 15.09 0 0 1-3.323-.372 5.703 5.703 0 0 0 1.378-3.714 5.736 5.736 0 0 0-2.393-4.666v-.003a7.677 7.677 0 0 1-.076-12.598l.067-.044a5.742 5.742 0 0 0 2.402-4.674c0-1.5-.619-2.87-1.585-3.897a15.338 15.338 0 0 1 3.5-.408c1.189 0 2.343.14 3.454.397a5.753 5.753 0 0 0 .89 8.61l.001-.002a7.646 7.646 0 0 1 3.291 6.284 7.611 7.611 0 0 1-2.577 5.72c-.21.187-.43.36-.659.523l.011.016a5.744 5.744 0 0 0-1.493 7.985c.117.172.243.33.376.485a15.085 15.085 0 0 1-3.265.358zm6.05-3.025a1.91 1.91 0 0 1 .523-2.653l-.004-.015a11.466 11.466 0 0 0 4.88-9.394c0-3.89-1.937-7.328-4.9-9.405l.004-.003a1.911 1.911 0 0 1 1.079-3.488c.328 0 .635.086.904.23a15.285 15.285 0 0 1 6.6 10.719v1.897c0 5.456-2.9 10.246-7.241 12.91a1.87 1.87 0 0 1-1.844-.798zm2.659-35.796a1.911 1.911 0 0 1 3.82 0v3.447h2.607v8.63a19.182 19.182 0 0 0-6.418-5.355l.005-6.198c0-.176-.007-.35-.017-.524zm-8.705-4.37a4.893 4.893 0 0 1 4.892 4.894v4.721a19.154 19.154 0 0 0-4.927-.642c-1.674 0-3.299.216-4.846.62l-.013-4.7a4.894 4.894 0 0 1 4.894-4.892zm-12.52 7.817v-3.447a1.91 1.91 0 0 1 3.819-.031c-.013.183-.02.368-.02.555v6.167a19.213 19.213 0 0 0-6.474 5.378l.005-8.622h2.67" style="fill:#054ca1;fill-opacity:1;fill-rule:nonzero;stroke:none;stroke-width:.352778" transform="matrix(2.63157 0 0 2.63157 -274.468 -223.631)"/><path d="M142.704 129.04a3.826 3.826 0 1 0-7.652.001 3.826 3.826 0 0 0 7.652 0M112.342 125.864l.003 1.014-4.964.011c-.722.001-1.207.073-1.454.214a1.344 1.344 0 0 0-.563.658 2.482 2.482 0 0 0-.192.998c0 .354.066.667.196.94.13.273.336.475.616.609.28.134.867.198 1.758.197l4.611-.01.001.925-4.866.011c-.901.001-1.534-.1-1.899-.306a2.233 2.233 0 0 1-.868-.897c-.212-.39-.32-.882-.321-1.476a4.308 4.308 0 0 1 .25-1.513c.168-.457.43-.8.785-1.024.357-.224.96-.337 1.812-.34l5.095-.011M106.615 133.283l.222.981-.05.011c-.418.095-.677.309-.773.641-.098.332-.091.742.02 1.232.097.427.302.758.617.992.312.235.673.305 1.079.214.329-.074.569-.26.723-.557.15-.296.27-.72.361-1.275l.072-.43c.099-.582.226-1.03.381-1.342.155-.312.35-.563.582-.75.232-.19.51-.32.832-.393a1.978 1.978 0 0 1 1.577.277c.482.314.82.9 1.014 1.755.178.786.156 1.371-.063 1.759-.22.385-.525.622-.915.71l-.049.012-.221-.982.048-.01a.585.585 0 0 0 .33-.23c.097-.125.15-.291.158-.5a2.518 2.518 0 0 0-.067-.665c-.108-.48-.308-.808-.6-.983a1.175 1.175 0 0 0-.897-.16 1.133 1.133 0 0 0-.546.297c-.157.15-.274.335-.35.554-.076.219-.161.579-.26 1.079l-.093.504c-.153.809-.378 1.377-.674 1.705a1.995 1.995 0 0 1-1.054.625 2.243 2.243 0 0 1-1.164-.053 2.04 2.04 0 0 1-.994-.654c-.263-.315-.462-.768-.595-1.361-.128-.564-.167-1.05-.117-1.458a1.67 1.67 0 0 1 .47-1.01 1.9 1.9 0 0 1 .946-.524l.05-.01M113.932 140.784l-2.618 2.806-1.245-2.54zm-4.69.336 1.51 3.081-1.553 1.655.474.966 5.637-6.04-.442-.902-8.33.548.41.837 2.293-.145M111.48 149.215l-.599-.706 5.898-5 .645.76-1.921 6.248-.243.627.454-.402 4.186-3.552.598.706-5.896 5-.637-.749 1.911-6.262.26-.638-.463.412-4.194 3.556M125.505 152.917l-.547 3.807-2.471-1.367zm-3.662 2.977 2.999 1.658-.324 2.24.941.52 1.176-8.19-.89-.493-6.503 5.243.814.451 1.787-1.429M130.231 154.537l1.022.285c.445.125.742.276.894.452.152.176.25.37.295.58.044.21.034.431-.03.664a1.68 1.68 0 0 1-.395.702 1.35 1.35 0 0 1-.643.398c-.241.065-.562.041-.963-.07l-.947-.268zm-.978 3.493.981.276c.302.467.511.971.63 1.514l.482 2.245 1.107.31-.568-2.53a8.663 8.663 0 0 0-.16-.59 2.56 2.56 0 0 0-.182-.47 1.71 1.71 0 0 0-.286-.354c.471-.051.838-.156 1.1-.316.264-.16.487-.356.675-.59.186-.236.32-.501.4-.792.103-.36.112-.72.032-1.075a1.813 1.813 0 0 0-.48-.895c-.238-.243-.641-.444-1.208-.603l-2.304-.646-2.083 7.443.97.271.894-3.198M136.484 162.775l.388-6.946-2.624-.146.043-.771 6.207.347-.043.771-2.58-.144-.388 6.945-1.003-.056M141.542 161.118l.991-.158.008.048c.068.423.265.693.589.81.325.119.734.138 1.229.058.433-.069.774-.252 1.027-.551.253-.3.347-.656.28-1.067a1.04 1.04 0 0 0-.508-.76c-.286-.168-.703-.317-1.25-.444l-.423-.1c-.574-.136-1.013-.29-1.314-.465a2.227 2.227 0 0 1-.713-.628 2.014 2.014 0 0 1-.339-.858 1.977 1.977 0 0 1 .38-1.555c.344-.462.951-.762 1.82-.902.796-.126 1.38-.069 1.752.173.372.242.59.56.652.953l.008.048-.992.159-.008-.048a.592.592 0 0 0-.208-.345.867.867 0 0 0-.492-.19 2.596 2.596 0 0 0-.671.023c-.488.079-.828.26-1.023.54a1.18 1.18 0 0 0-.217.888c.033.21.12.398.261.565.14.168.317.296.532.386.214.09.568.198 1.061.328l.5.127c.797.204 1.351.464 1.66.78.306.317.492.68.558 1.092.06.382.02.77-.127 1.16a2.045 2.045 0 0 1-.716.95c-.333.241-.798.41-1.398.507-.57.091-1.058.1-1.463.027a1.67 1.67 0 0 1-.977-.53 1.885 1.885 0 0 1-.462-.971l-.007-.05M156.126 156.323l.816-.441.023.044c.145.267.199.59.163.967-.037.378-.18.718-.429 1.02-.249.302-.59.569-1.02.802-.866.47-1.738.553-2.612.25-.876-.301-1.637-1.05-2.283-2.248-.644-1.19-.855-2.235-.633-3.134.223-.898.772-1.585 1.648-2.057.427-.232.835-.368 1.225-.412a1.84 1.84 0 0 1 1.092.206c.337.18.576.4.716.66l.025.043-.817.441-.024-.043a.959.959 0 0 0-.414-.394 1.08 1.08 0 0 0-.636-.1 2.152 2.152 0 0 0-.764.263c-.7.379-1.073.934-1.12 1.665-.046.731.16 1.52.615 2.366.462.854 1.012 1.46 1.65 1.819.636.357 1.302.348 1.996-.027.476-.256.761-.536.856-.837.095-.302.079-.572-.05-.81l-.023-.043M159.651 154.054c-.701-.182-1.386-.646-2.057-1.39-.671-.74-1.061-1.47-1.173-2.186-.113-.718.091-1.312.612-1.78.522-.473 1.134-.616 1.834-.43.7.186 1.386.649 2.055 1.39.672.743 1.064 1.474 1.175 2.187.113.714-.092 1.308-.614 1.78-.521.47-1.132.613-1.832.43zm3.39-2.23c-.02-.938-.471-1.891-1.349-2.864-.878-.973-1.782-1.516-2.71-1.632-.93-.114-1.752.15-2.469.798-.716.648-1.063 1.437-1.043 2.373.022.936.472 1.89 1.35 2.86.879.974 1.781 1.518 2.71 1.637.929.117 1.751-.148 2.468-.796.717-.646 1.065-1.438 1.043-2.377M165.716 150.022l-6.328-4.425.579-.828 5.622 3.933 2.32-3.318.706.493-2.899 4.145M169.485 144.195l-7.089-3.064.4-.926 6.306 2.724 1.61-3.726.782.34-2.01 4.652M172.001 137.714l-7.562-1.571.888-4.278.838.174-.683 3.285 2.371.492.594-2.866.762.158-.596 2.867 2.757.573.737-3.551.838.175-.944 4.542M172.813 125.4c.393.82.587 1.6.587 2.343 0 .774-.152 1.398-.459 1.875-.307.478-.748.858-1.326 1.143-.576.286-1.316.428-2.217.428-1.018 0-1.808-.135-2.373-.406a3.182 3.182 0 0 1-1.324-1.14c-.32-.491-.48-1.073-.48-1.745 0-.462.073-.88.22-1.258.145-.378.367-.68.665-.903.296-.223.591-.336.885-.336h.048v.926h-.048a.739.739 0 0 0-.502.207 1.388 1.388 0 0 0-.365.541 2.06 2.06 0 0 0-.132.762c0 .748.293 1.32.88 1.714.587.395 1.396.59 2.426.59 1.028 0 1.84-.2 2.436-.605.597-.405.896-.974.896-1.708 0-.432-.104-.932-.31-1.501h-2.204v1.742h-.773V125.4h3.47M173.168 124.056h-7.717v-4.377h.862v3.363h2.425v-2.944h.77v2.944h2.802v-3.627h.858v4.64M111.334 120.789v1.274c0 .46-.037.782-.111.97a.82.82 0 0 1-.412.437c-.201.1-.434.153-.699.153-.278 0-.51-.055-.696-.164a.914.914 0 0 1-.395-.485c-.062-.164-.093-.433-.093-.807v-1.378zm-7.036 1.59c0 .406.044.748.132 1.026.09.28.222.512.396.696.175.185.423.34.744.467s.67.19 1.045.19c.464 0 .868-.103 1.21-.308.34-.205.582-.502.724-.887.185.3.428.523.728.67.3.147.622.22.96.22.367 0 .717-.083 1.053-.25.334-.166.582-.397.743-.691.161-.294.243-.684.243-1.175v-2.392h-7.978zm3.69-1.59v1.475c0 .408-.045.72-.134.936a1.01 1.01 0 0 1-.465.507c-.219.123-.478.185-.776.185-.255 0-.48-.043-.674-.127a1.082 1.082 0 0 1-.445-.321 1.206 1.206 0 0 1-.217-.49 2.947 2.947 0 0 1-.039-.574v-1.591h2.75" style="fill:#054ca1;fill-opacity:1;fill-rule:nonzero;stroke:none;stroke-width:.352778" transform="matrix(2.63157 0 0 2.63157 -274.468 -223.631)"/></svg>