<svg xmlns="http://www.w3.org/2000/svg" width="191" height="191" viewBox="0 0 50.535386 50.535397"><path d="M242.054 430.451c-.405-2.012-1.699-3.35-3.443-3.002-1.796.355-2.602 2.234-2.244 3.98.071.394.197.763.441 1.093-.191-1.346.347-2.952 1.846-3.249 1.37-.272 2.112.581 2.362 1.817.074.372.116.74.126 1.098l-7.04 1.396c-.875.177-1.497.317-2.132-.413l-.049.01.62 3.079.05-.012c.12-.846 1.293-.98 1.998-1.116l5.883-1.162c.702-.146 1.828-.457 2.297.249l.044-.006-.759-3.762zM231.61 419.848c-.904.715-1.241 2.026-1.206 3.13.04 1.043.413 2.137 1.209 2.824.948.803 2.021.739 3.162.695l4.242-.13c.723-.026 1.882-.175 2.21.615h.046l-.099-2.993h-.042c-.283.796-1.445.747-2.157.761l-4.254.138c-2.115.077-3.124-.78-3.183-2.4-.026-.89.305-1.803 1.035-2.338.471-.363.865-.36 1.44-.381l4.788-.165c.711-.018 1.873-.15 2.205.631l.05-.004-.104-2.987-.05-.01c-.274.812-1.437.754-2.171.774l-6.002.2c-.713.019-1.87.156-2.198-.64l-.048.003.074 2.314 1.053-.037zM240.011 410.217c.54.687.783 1.709.67 2.587-.118.89-.611 1.975-1.7 1.835-2.166-.276-1.425-5.66-4.346-6.028-1.695-.226-3.502 1.327-3.818 3.766-.129.963-.11 1.927.103 2.861l1.914.721c-.684-1.033-1.018-2.385-.858-3.607.112-.885.828-2.159 1.93-2.03 2.467.323 1.318 5.653 4.667 6.078 1.987.246 3.011-1.664 3.258-3.577.106-.78.101-1.594-.04-2.379zM238.345 402.464l-.861 2.992 4.292-.42-3.43-2.572m-1.005-.77-1.926-1.42c-.956-.714-1.085-.88-1.645-.23l-.042-.017.9-3.109.039.012c.2.989.98 1.507 1.752 2.095l6.948 5.382-.689 2.395-.049-.013c-.025-.788-.744-.69-1.356-.628l-7.116.733c-.963.086-1.9.102-2.595.862l-.044-.014.795-2.797.05.017c.067.809.54.829 1.492.743l2.382-.175zM237.583 395.465c-.804-.388-1.38-.648-1.455-1.616l-.044-.019-1.232 2.509.042.017c.812-.535 1.385-.25 2.183.133l5.712 2.752c.806.394 1.374.672 1.443 1.62l.042.025 1.02-2.076-.02-.008a.932.932 0 0 1-.254-.385l-.187-.337-4.052-8.383 5.422 2.618c.806.389 1.383.647 1.437 1.612l.042.02 1.228-2.505-.036-.016c-.796.53-1.365.255-2.171-.13l-8.024-3.887c-.146 1.174.11 1.84.611 2.861l3.832 7.873-5.54-2.678zM246.542 380.085c-.662-.589-1.149-1.004-.952-1.951l-.032-.03-1.887 2.07.034.037c.931-.296 1.407.122 2.066.714l4.726 4.214c.66.591 1.131 1.017.934 1.941l.032.032 1.56-1.71-.01-.014c-.107-.163-.117-.272-.144-.44l-.085-.37-1.562-9.172 4.48 4.005c.665.592 1.149.998.936 1.935l.042.035 1.875-2.065-.04-.032c-.91.29-1.384-.123-2.045-.719l-6.636-5.93c-.472 1.093-.41 1.802-.205 2.923l1.486 8.607-4.573-4.08zM259.663 371.32l-2.474 1.917 3.71 2.171-1.236-4.089m-.355-1.195-.705-2.286c-.344-1.132-.35-1.346-1.182-1.144l-.033-.039 2.577-1.987.038.036c-.437.915-.12 1.788.154 2.713l2.402 8.41-1.981 1.535-.033-.043c.453-.653-.193-.986-.72-1.3l-6.174-3.58c-.838-.493-1.598-1.023-2.616-.826l-.022-.04 2.313-1.78.021.04c-.424.688-.05.99.758 1.476l2.032 1.254zM264.694 364.344c-.464-.782-.784-1.31-.304-2.148l-.022-.037-2.73 1.562.03.04c.834-.135 1.342.909 1.699 1.523l3.564 6.09-1.21.7c-.595.333-1.3.541-1.955.396l-.048.026 1.433 1.343.042-.023c.125-.167.305-.267.467-.392l.347-.205 5.137-2.954c.234-.133.459-.25.69-.267l.04-.017-1.394-1.381-.037.025c.099.584-.414.97-.865 1.234l-1.24.704zM272.213 367.405c.291.665.86 1.674.243 2.273l.016.045 2.77-1.21-.012-.037c-.861.037-1.243-1.07-1.527-1.72l-2.412-5.45c-.294-.65-.847-1.66-.24-2.253l-.023-.04-2.767 1.2.023.044c.843-.062 1.226 1.054 1.509 1.7zM281.034 365.633c2.424-.666 3.249-3.207 2.624-5.421-.64-2.268-2.604-3.548-4.934-2.896-2.415.661-3.31 3.272-2.715 5.399.653 2.3 2.649 3.58 5.025 2.918m.42 1.066c-3.198.969-6.41-.747-7.22-3.639-.889-3.113 1.07-5.98 4.105-6.822 3.05-.848 6.276.687 7.146 3.793.777 2.732-.809 5.795-4.03 6.668zM288.076 356.622c-.065-.88-.128-1.513.68-2.06l-.007-.043-2.81.208v.043c.88.424.93 1.056.999 1.938l.466 6.271c.067.892.113 1.518-.676 2.05l-.001.047 2.324-.17v-.013c.047-.196.107-.275.208-.412l.193-.332 5.268-7.7.452 5.974c.068.872.126 1.509-.683 2.04l.009.036 2.793-.198-.01-.042c-.854-.413-.903-1.047-.97-1.926l-.658-8.825c-1.102.459-1.55 1.012-2.186 1.955l-4.93 7.25-.462-6.09zM303.836 359.506l-3.125-.316 1.164 4.11 1.96-3.794m.581-1.12 1.082-2.122c.537-1.06.684-1.222-.059-1.636l.002-.054 3.25.33-.007.046c-.946.365-1.329 1.214-1.778 2.067l-4.127 7.726-2.492-.255v-.044c.787-.158.555-.847.383-1.441l-1.973-6.812c-.254-.925-.428-1.837-1.303-2.382l.004-.048 2.916.293-.004.05c-.792.206-.728.673-.484 1.578l.59 2.307zM313.938 357.555c1.07.22 1.877.805 2.476 1.648l.043.013-.246-2.235-6.328-1.676-.014.043c.707.486.316 1.59.125 2.274l-1.537 5.748c-.193.698-.406 1.844-1.264 1.92l-.013.05 2.937.774.014-.042c-.705-.502-.297-1.606-.111-2.286l1.793-6.643zM329.627 364.363c-.18-1.137-1.14-2.087-2.117-2.62-.922-.498-2.06-.734-3.06-.391-1.184.391-1.673 1.34-2.214 2.338l-2.04 3.706c-.343.617-.802 1.68-1.665 1.56l-.02.04 2.659 1.438.021-.045c-.552-.638.084-1.61.43-2.23l2.037-3.699c1.018-1.835 2.266-2.28 3.707-1.494.787.418 1.403 1.169 1.508 2.066.076.585-.121.926-.4 1.421l-2.293 4.173c-.346.625-.83 1.68-1.668 1.57l-.018.029 2.652 1.443.036-.04c-.565-.639.074-1.61.427-2.245l2.873-5.227c.344-.619.819-1.678 1.68-1.556l.022-.04-2.059-1.108zM334.871 369.116c.572-.678.969-1.177 1.93-1.014l.035-.034-2.17-1.796-.025.038c.33.915-.08 1.398-.653 2.077l-4.072 4.839c-.57.666-.973 1.15-1.92.99l-.027.043 1.785 1.474.01-.011c.168-.108.264-.124.435-.156l.381-.103 9.184-1.885-3.871 4.585c-.574.685-.967 1.173-1.92 1.002l-.031.04 2.156 1.78.025-.04c-.328-.89.076-1.375.649-2.048l5.726-6.796c-1.113-.43-1.828-.346-2.945-.091l-8.63 1.792 3.948-4.686zM339.055 381.26c-.54.478-1.344 1.333-2.11.93l-.029.033 2.008 2.237.035-.031c-.303-.793.643-1.496 1.172-1.965l4.484-3.951c.543-.482 1.342-1.32 2.1-.922l.037-.037-2.016-2.235-.035.032c.315.775-.63 1.484-1.16 1.95zM345.732 389.053c-.67.998-1.439 2.175-2.328 1.598l-.043.022 1.358 1.926 6.588-9.623c-1.239-.488-1.551-.713-2.846-.376l-6.719 1.728c-.838.22-1.742.542-2.58.283l-.035.026 1.322 1.893.147-.118c.29-.204 1.105-.4 1.464-.487l7.13-1.862zM354.023 391.176l1.057 1.718c.549.898.732 2.018.453 3.036l.01.042 1.568-1.54-2.912-5.917-.045.024c.104.844-1.005 1.28-1.648 1.59l-5.389 2.606c-.658.315-1.66.902-2.289.308l-.039.026 2.227 4.534c.117.239.267.466.26.704l.011.045 1.684-.811-.024-.042c-.73-.196-1.07-.747-1.392-1.396-.248-.495-.48-1-.615-1.493l2.658-1.292.834 1.688c.11.227.22.456.22.663l.018.046 1.52-.74-.016-.04c-.525-.029-.803-.63-1.027-1.065l-.514-1.054 3.39-1.64zM349.043 403.234c.66 2.01 2.082 2.757 3.459 2.312 1.324-.428 1.99-1.921 1.879-3.241l3.443 1.272c.994.376 2.092 1.066 2.928 1.742l-.459-1.37c-.262-.802-.623-1.235-1.33-1.502l-2.889-1.09-2.586-.693c.213 1.262.114 2.839-1.308 3.304-1.094.343-2.037-.384-2.32-1.403a7.13 7.13 0 0 1-.212-1.053l6.778-2.19c.695-.225 1.773-.676 2.299.001l.04-.012-.94-2.872-.042.011c-.023.853-1.181 1.116-1.857 1.343l-5.707 1.831c-.697.23-1.762.692-2.313.02l-.045.013zM353.297 413.426c-.725-.507-1.244-1.414-1.39-2.29-.147-.89.015-2.062 1.1-2.23 2.15-.358 3.005 5.004 5.907 4.533 1.686-.27 2.961-2.275 2.566-4.708a8.12 8.12 0 0 0-.931-2.706l-2.037-.13c.945.787 1.668 1.974 1.865 3.195.146.886-.166 2.314-1.262 2.492-2.45.399-2.906-5.031-6.234-4.492-1.975.322-2.4 2.454-2.084 4.356.127.778.369 1.558.728 2.265zM353.75 416.129c-.73.042-1.887.215-2.234-.562h-.041l.17 2.976h.043c.255-.799 1.445-.775 2.152-.812l5.992-.34c.717-.042 1.87-.203 2.223.561h.045l-.172-2.983-.047.005c-.238.803-1.418.773-2.137.818l-5.994.337zM359.86 424.278c.908.055 1.533.07 1.974.938l.059.002.164-3.125-.057-.004c-.342.771-1.5.619-2.215.578l-7.088-.375.074-1.39c.038-.674.254-1.376.739-1.839l.004-.044-1.924.452-.004.044c.074.186.07.396.078.601l-.02.396-.322 5.883c-.01.269-.033.514-.146.718l-.002.05 1.922-.41v-.047c-.545-.232-.588-.867-.565-1.389l.076-1.416 7.252.377z" style="fill:#2056ae;fill-opacity:1;fill-rule:nonzero;stroke:none" transform="matrix(.35278 0 0 -.35278 -79.259 173.423)"/><path d="M358.445 433.735c.934.185 1.397.279 1.817 1.183l.048.018.625-3.017-.05-.01c-.547.674-1.537.363-2.276.216l-2.304-.47-3.64-3.412c-.599-.555-1.046-.964-1.306-1.79l-.283 1.408c-.103.492-.09.972.195 1.244l3.56 3.306-3.294 1.325c-.445.184-1.264.39-1.512-.563l-.047-.007-.556 2.705 6.558-2.636 2.465.5zM242.123 444.944c0-.75-.62-1.365-1.374-1.365-.771 0-1.385.614-1.385 1.365 0 .755.614 1.367 1.384 1.367.754 0 1.375-.612 1.375-1.367zM353.42 444.944c0-.75-.62-1.365-1.373-1.365-.768 0-1.389.614-1.389 1.365 0 .755.621 1.367 1.389 1.367.754 0 1.373-.612 1.373-1.367zM300.377 483.927h-1.348v3.239h-1.619v-8.395c-.551-.59-1.484-.556-1.484-.556h-4.543a.122.122 0 0 0-.119.125v6.557h4.864v1.297h-6.482l.004-7.853c0-.78.637-1.402 1.424-1.402h4.814s.795-.075 1.522.34v-4.52h1.62v9.875h1.347v-9.875h1.613v14.407h-1.613v-3.24zM247.982 453.308l4.11 4.512 3.615-3.237 1.084 1.19-3.615 3.237 4.096 4.493-.969.87-9.29-10.2zM246.069 457.22a1.433 1.433 0 0 1 2.012.098l5.174 5.68c.527.578.48 1.473-.103 1.998l-4.057 3.632-1.083-1.191 1.642-1.47-4.917-5.398-1.643 1.471-1.084-1.188 4.059-3.632m4.553 7.879 1.448-1.296a.119.119 0 0 0 .008-.167l-4.755-5.219a.121.121 0 0 0-.169-.01l-1.448 1.297 4.916 5.394zM273.566 483.241l-1.476-.654 4.298-9.545 1.478.653-2.435 5.407 1.955.866-.531 1.181-1.957-.865zM271.214 468.183l-1.597 3.543-1.474-.65 1.594-3.548a1.43 1.43 0 0 1 1.882-.712l7.792 3.452-.53 1.177-7.51-3.324a.119.119 0 0 0-.157.062zM267.67 478.746l-.573 1.277-1.474-.653.573-1.276c1.702-3.777-1.599-6.17-1.826-6.33l1.44-.545c.756.66 2.3 2.247 2.437 4.288 1.617-1.258 3.833-1.179 4.837-1.064l.551 1.426c-.335-.075-4.277-.866-5.965 2.877zM343.918 460.013l-1.086 1.154-4.127-3.826-1.332 1.411 4.127 3.825-1.09 1.156-4.125-3.826-2.326 2.464-.94-.876 9.233-9.78.941.873-3.398 3.599z" style="fill:#2056ae;fill-opacity:1;fill-rule:nonzero;stroke:none" transform="matrix(.35278 0 0 -.35278 -79.259 173.423)"/><path d="M345.113 458.454c-1.674-1.552-3.031-2.04-3.031-2.04l1.103-1.168s1.352.494 3.026 2.047l4.18 3.877-.004.004h.002l-7.297 7.733-.944-.874 6.205-6.571-3.24-3.008zM329.184 474.325l.521 1.19-1.973.85 1.301 2.968-1.484.64-3.408-7.786 1.484-.64 1.586 3.627zM325.365 470.966l-9.388 4.037-.52-1.19 7.904-3.4-1.595-3.653 1.484-.64 2.115 4.837-.002.002.002.007zM325.871 479.28l-3.754 1.617.649 1.48-1.489.64-.65-1.482-3.748 1.614-.527-1.198 1.83-.786a3.092 3.092 0 0 1-1.528-1.543c-.73-1.67.194-3.677 2.06-4.478 1.87-.804 3.977-.103 4.708 1.566.306.7.32 1.456.1 2.158l1.828-.788.521 1.2m-6.63-2.94c-1.044.447-1.528 1.636-1.085 2.651.444 1.013 1.65 1.474 2.694 1.025 1.043-.447 1.527-1.633 1.08-2.65-.442-1.014-1.647-1.476-2.69-1.026z" style="fill:#2056ae;fill-opacity:1;fill-rule:nonzero;stroke:none" transform="matrix(.35278 0 0 -.35278 -79.259 173.423)"/><path d="M367.516 419.626c0-39.312-31.87-71.18-71.18-71.18-39.317 0-71.185 31.868-71.185 71.18 0 39.314 31.868 71.184 71.184 71.184 39.312 0 71.18-31.87 71.18-71.184m-71.18 70.212c-38.778 0-70.213-31.434-70.213-70.212 0-38.774 31.435-70.209 70.213-70.209 38.772 0 70.206 31.435 70.206 70.209 0 38.778-31.434 70.212-70.206 70.212z" style="fill:#2056ae;fill-opacity:1;fill-rule:nonzero;stroke:none" transform="matrix(.35278 0 0 -.35278 -79.259 173.423)"/><path d="M347.916 419.626c0-28.487-23.094-51.583-51.58-51.583-28.492 0-51.59 23.096-51.59 51.583 0 28.491 23.098 51.586 51.59 51.586 28.486 0 51.58-23.095 51.58-51.586m-51.58 50.616c-27.959 0-50.619-22.662-50.619-50.616 0-27.952 22.66-50.613 50.618-50.613 27.948 0 50.612 22.66 50.612 50.613 0 27.954-22.664 50.616-50.612 50.616z" style="fill:#2056ae;fill-opacity:1;fill-rule:nonzero;stroke:none" transform="matrix(.35278 0 0 -.35278 -79.259 173.423)"/><path d="m328.482 391.643-23.949.003c-7.4-.056-8.322-4.933-8.322-4.933-1.52 5.53-8.644 4.933-8.644 4.933h-23.405v34.333h22.565c7.507-.141 9.504-6.081 9.504-6.081 2.454 6.021 10.216 6.074 10.216 6.074l22.035.004v-34.333m-23.558 37.75c-6.578-.204-8.652-4.066-8.652-4.066-2.086 4.042-8.416 4.05-8.416 4.05h-27.125v-41.126h26.556c3.624 0 4.902-1.706 5.329-2.926h7.343c1.27 3.08 4.967 2.906 4.967 2.906h27.004v41.163z" style="fill:#00a650;fill-opacity:1;fill-rule:nonzero;stroke:none" transform="matrix(.35278 0 0 -.35278 -79.259 173.423)"/><path d="M282.387 410.16h-9.892v-9.966h13.618v.03h-.015v6.512h3.45v-6.542h13.589v6.542h3.44v-6.532h13.599v3.447h-9.871v3.09h9.875v10.335h-13.604v-6.906h-3.44v6.906h-3.728v-6.904h-6.157v6.904h-3.71v-6.906h-3.431v6.906h-13.62v-3.435h9.897v-3.482m.005-6.539h-6.178v3.116h6.178v-3.116m17.032.001h-6.164v3.117h6.164v-3.117m10.88 10.03h6.163v-3.485h-6.162z" style="fill:#00a650;fill-opacity:1;fill-rule:nonzero;stroke:none" transform="matrix(.35278 0 0 -.35278 -79.259 173.423)"/><path d="m294.276 448.43 3.292 1.089h-3.292z" style="fill:#2056ae;fill-opacity:1;fill-rule:nonzero;stroke:none" transform="matrix(.35278 0 0 -.35278 -79.259 173.423)"/><path d="M287.174 443.713c1.207 1.264 2.468 1.105 2.468.567 0-.544-.621-1.186-.621-1.186h-7.806l-4.275 6.164c-1.07 1.583-2.433 2.268-4.7 2.268h-11.497v-18.564c6.99.003 24.194.015 26.21 0 7.744-.073 9.263-3.37 9.263-3.37 1.624 2.565 4.745 3.355 9.565 3.363h26.14l.009 18.571h-11.662c-2.25 0-3.62-.685-4.684-2.268h-.006l-4.367-6.164h-6.476v5.485l4.433 4.333-4.58-.003 1.156 1.015h-9.277c-1.863 0-3.335-.761-3.867-1.818h-3.263c-3.006 0-4.105-1.694-3.49-3.919l1.327-4.474m41.309-7.34H306.64c-5.819 0-8.54-.394-10.388-2.401-1.996 1.93-3.55 2.393-9.37 2.393h-22.715v11.733h7.136c.706.014 1.3-.15 1.683-.353a3.802 3.802 0 0 0 1.177-1.024c.471-.657 4.707-6.859 4.707-6.859h12.2s1.137 2.352 1.838 3.99c.71 1.65.466 2.813-1.047 2.928-1.272.098-2.07-.203-2.207-.73l-.54 1.853c-.324.938-.091 1.616 1.215 1.616h3.946c0-.032.086 1.286 2.259 1.286h6.514l-1.836-1.692v-9.246h12.65s4.024 6.197 4.5 6.854c.368.515.88.866 1.174 1.024.375.202.973.371 1.672.386l7.274-.003z" style="fill:#2056ae;fill-opacity:1;fill-rule:nonzero;stroke:none" transform="matrix(.35278 0 0 -.35278 -79.259 173.423)"/><path d="M290.632 396.735c.492.168.925.516 1.177.944h.017v-3.05c0-.312-.022-.557.27-.748v-.019h-1.141v.019c.334.161.31.42.31.748v2.092h-.633zM293.434 394.094c.879.178 1.676.975 1.676 1.88 0 .546-.31 1.157-.943 1.157-.464 0-.798-.364-.798-.815 0-.499.334-.883.83-.883.206 0 .407.057.583.17l-.371-.454a1.347 1.347 0 0 0-.448-.074c-.64 0-1.14.479-1.14 1.114 0 .8.644 1.328 1.418 1.328.856 0 1.42-.672 1.42-1.493 0-.61-.333-1.22-.823-1.597-.494-.396-1.053-.594-1.677-.671zM297.768 395.03c-.477 0-.871.024-1.167.04l1.167 1.96v-2m0-.425v-.145c0-.278.037-.47-.268-.58v-.018h1.06v.019c-.236.119-.246.373-.246.611v.113h.432l.266.65c-.192-.16-.442-.225-.697-.225v2.4h-.756l-1.697-2.826zM301.633 397.19c-.367-.054-.803-.333-1.073-.58-.373-.347-.591-.801-.591-1.314 0-.558.318-1.161.96-1.161.481 0 .76.365.76.825 0 .537-.285.901-.843.901a1.15 1.15 0 0 1-.604-.18l.354.443c.144.065.308.102.48.102.682 0 1.172-.464 1.172-1.145 0-.768-.621-1.307-1.379-1.307-.857 0-1.453.686-1.453 1.514 0 1.294 1.305 2.136 2.482 2.238z" style="fill:#00a650;fill-opacity:1;fill-rule:nonzero;stroke:none" transform="matrix(.35278 0 0 -.35278 -79.259 173.423)"/></svg>