<svg xmlns="http://www.w3.org/2000/svg" width="164.53719mm" height="163.39728mm" viewBox="0 0 164.53719 163.39728"><path d="M0 0v-22.536h5.365V-.072C5.365 2.842 0 2.478 0 0" style="fill:#0e3f76;fill-opacity:1;fill-rule:nonzero;stroke:none" transform="matrix(1.6407 0 0 -1.6407 36.325 69.819)"/><path d="M0 0v-28.243s3.081-.209 5.364-.759V-.096C5.364 3.711 0 3.233 0 0" style="fill:#0e3f76;fill-opacity:1;fill-rule:nonzero;stroke:none" transform="matrix(1.6407 0 0 -1.6407 50.06 60.755)"/><path d="M0 0h5.585v5.512h5.437V0h5.513v-5.367h-5.586v-21.454H5.585v21.526H.073Z" style="fill:#0e3f76;fill-opacity:1;fill-rule:nonzero;stroke:none" transform="matrix(1.6407 0 0 -1.6407 67.355 35.446)"/><path d="M242.31 395.568h-5.436v19.27h5.436zM258.565 395.568h-5.438v19.27h5.438z" style="fill:#0e3f76;fill-opacity:1;fill-rule:nonzero;stroke:none" transform="matrix(1.6407 0 0 -1.6407 -325.5 728.55)"/><path d="M0 0v-34.009s3.551-.307 5.365.291V-.114C5.365 4.442 0 3.873 0 0" style="fill:#0e3f76;fill-opacity:1;fill-rule:nonzero;stroke:none" transform="matrix(1.6407 0 0 -1.6407 103.514 61.684)"/><path d="M0 0v-28.631s4.638-.146 5.365.94v27.6C5.365 3.643 0 3.174 0 0" style="fill:#0e3f76;fill-opacity:1;fill-rule:nonzero;stroke:none" transform="matrix(1.6407 0 0 -1.6407 116.832 69.559)"/><path d="M0 0c7.249 4.348 25.033-3.044 30.733-3.044C45.468-5.267 54.653.29 54.653.29S46.035-7.635 31.21-6.439C19.071-4.591 12.067 1.047 0 0" style="fill:#0e3f76;fill-opacity:1;fill-rule:nonzero;stroke:none" transform="matrix(1.6407 0 0 -1.6407 36.206 130.22)"/><path d="M0 0c0 .542 19.079 8.059 45.121-.87C67.184-7.656 86.87 3.805 86.87 3.805S74.477-12.176 45.45-6.987C31.203-4.021 25.956 3.726 0 0" style="fill:#0e3f76;fill-opacity:1;fill-rule:nonzero;stroke:none" transform="matrix(1.6407 0 0 -1.6407 9.525 117.24)"/><path d="M0 0c-.847-6.988-6.034-6.592-6.034-6.592S-6.627-1.846 0 0" style="fill:#0e3f76;fill-opacity:1;fill-rule:nonzero;stroke:none" transform="matrix(1.6407 0 0 -1.6407 138.89 129.698)"/><path d="M0 0s1.922 1.565 1.393 5.672c-6.106-2.886-4.267-8.075-4.267-8.075S1.433-5.708 6.109-.756C3.086.348 0 0 0 0" style="fill:#0e3f76;fill-opacity:1;fill-rule:nonzero;stroke:none" transform="matrix(1.6407 0 0 -1.6407 121.616 144.676)"/><path d="M0 0s2.148 1.239 2.273 5.376c-6.481-1.882-5.492-7.299-5.492-7.299s3.727-3.941 9.127.199C3.102-.152 0 0 0 0" style="fill:#0e3f76;fill-opacity:1;fill-rule:nonzero;stroke:none" transform="matrix(1.6407 0 0 -1.6407 108.972 151.555)"/><path d="M0 0s2.741.629 4.257 5.071c-7.653.122-8.385-6.079-8.385-6.079s2.729-5.514 9.962-2.825C3.315-1.195 0 0 0 0" style="fill:#0e3f76;fill-opacity:1;fill-rule:nonzero;stroke:none" transform="matrix(1.6407 0 0 -1.6407 94.331 155.896)"/><path d="M0 0c.846-6.988 6.035-6.592 6.035-6.592S6.627-1.846 0 0" style="fill:#0e3f76;fill-opacity:1;fill-rule:nonzero;stroke:none" transform="matrix(1.6407 0 0 -1.6407 22.779 129.698)"/><path d="M0 0s-1.924 1.565-1.394 5.672c6.106-2.886 4.268-8.075 4.268-8.075S-1.433-5.708-6.11-.756C-3.087.348 0 0 0 0" style="fill:#0e3f76;fill-opacity:1;fill-rule:nonzero;stroke:none" transform="matrix(1.6407 0 0 -1.6407 40.052 144.676)"/><path d="M0 0s-2.148 1.239-2.273 5.376C4.209 3.494 3.22-1.923 3.22-1.923s-3.728-3.941-9.128.199C-3.102-.152 0 0 0 0" style="fill:#0e3f76;fill-opacity:1;fill-rule:nonzero;stroke:none" transform="matrix(1.6407 0 0 -1.6407 52.697 151.555)"/><path d="M0 0s-2.742.629-4.257 5.071c7.653.122 8.385-6.079 8.385-6.079s-2.73-5.514-9.962-2.825C-3.315-1.195 0 0 0 0" style="fill:#0e3f76;fill-opacity:1;fill-rule:nonzero;stroke:none" transform="matrix(1.6407 0 0 -1.6407 67.338 155.896)"/><path d="M0 0a1.386 1.386 0 1 0 2.773.003A1.386 1.386 0 0 0 0 0" style="fill:#0e3f76;fill-opacity:1;fill-rule:nonzero;stroke:none" transform="matrix(1.6407 0 0 -1.6407 78.858 157.689)"/><path d="M0 0c.22.07.475.089.767.057.292-.033.599-.132.922-.296.324-.166.623-.414.896-.743.274-.331.491-.747.651-1.25.121-.382.197-.741.227-1.076.03-.334.012-.653-.053-.954a3.01 3.01 0 0 0-.356-.889 3.593 3.593 0 0 0-.569-.719 3.797 3.797 0 0 0-.758-.576 4.682 4.682 0 0 0-.933-.409 4.288 4.288 0 0 0-1.566-.216c-.491.03-.942.154-1.354.373a3.345 3.345 0 0 0-1.063.885c-.297.374-.522.8-.675 1.281-.186.585-.24 1.143-.164 1.671.077.528.24.966.49 1.313.251.347.521.568.812.661.16.05.32.036.479-.043a.605.605 0 0 0 .32-.372c.06-.188.062-.342.008-.463s-.166-.271-.335-.451c-.279-.299-.461-.604-.547-.916-.087-.311-.069-.657.051-1.035.191-.602.56-1.013 1.106-1.232.547-.22 1.219-.204 2.017.049.532.17.95.39 1.253.66.304.27.497.579.58.923a2.03 2.03 0 0 1-.062 1.101c-.134.421-.346.745-.636.975-.291.227-.651.355-1.081.38a1.58 1.58 0 0 0-.516.093c-.142.055-.246.186-.311.389a.668.668 0 0 0 .03.505A.588.588 0 0 0 0 0" style="fill:#0e3f76;fill-opacity:1;fill-rule:nonzero;stroke:none" transform="matrix(1.6407 0 0 -1.6407 9.982 99.547)"/><path d="m0 0 2.778 1.558.325-2.246Zm6.255-1.87c-.032.225-.119.377-.258.459-.14.081-.399.166-.778.255l-.971.226-.441 3.055.848.488c.104.064.224.139.359.227.136.088.234.166.296.234a.648.648 0 0 1 .135.239.7.7 0 0 1 .016.317.741.741 0 0 1-.283.495.622.622 0 0 1-.487.152c-.16-.022-.403-.136-.733-.341l-4.33-2.629A19.478 19.478 0 0 1-.893.998a2.074 2.074 0 0 1-.356-.275 1.044 1.044 0 0 1-.246-.387 1.14 1.14 0 0 1-.038-.547c.031-.208.095-.378.191-.509s.214-.229.35-.3c.136-.07.303-.128.501-.179l.509-.127 4.92-1.254c.197-.051.35-.085.459-.106.109-.018.212-.02.31-.007.17.024.31.119.422.286a.739.739 0 0 1 .126.537" style="fill:#0e3f76;fill-opacity:1;fill-rule:nonzero;stroke:none" transform="matrix(1.6407 0 0 -1.6407 3.219 93.754)"/><path d="m0 0 .019-1.678 5.246.058c.302.003.527-.066.674-.206a.738.738 0 0 0 .226-.552.748.748 0 0 0-.216-.562c-.146-.146-.368-.221-.667-.225L.037-3.223.055-4.9c.002-.262-.051-.458-.16-.586a.554.554 0 0 0-.437-.199.545.545 0 0 0-.448.195c-.111.133-.167.324-.171.577l-.054 4.899c-.003.267.051.464.162.596.111.13.258.196.439.198A.546.546 0 0 0-.172.588C-.06.458-.002.263 0 0" style="fill:#0e3f76;fill-opacity:1;fill-rule:nonzero;stroke:none" transform="matrix(1.6407 0 0 -1.6407 1.994 79.09)"/><path d="m0 0 2.044-.304.487 3.281-2.044.303c-.292.043-.501.145-.626.304a.733.733 0 0 0-.138.58.753.753 0 0 0 .3.524c.166.121.396.16.693.115l5.634-.837c.296-.045.506-.15.63-.314a.753.753 0 0 0 .138-.588.717.717 0 0 0-.304-.514c-.168-.115-.398-.152-.691-.108L3.716 2.8 3.229-.479l2.406-.359c.297-.043.507-.147.632-.313a.749.749 0 0 0 .138-.586.718.718 0 0 0-.304-.517c-.168-.114-.398-.15-.691-.106l-5.634.837c-.293.043-.502.143-.629.3-.126.156-.172.352-.137.584a.76.76 0 0 0 .299.525C-.525.006-.295.044 0 0" style="fill:#0e3f76;fill-opacity:1;fill-rule:nonzero;stroke:none" transform="matrix(1.6407 0 0 -1.6407 1.773 73.068)"/><path d="M0 0a2.2 2.2 0 0 0-.426-.756 1.938 1.938 0 0 0-.685-.495 2.258 2.258 0 0 0-.931-.177 3.595 3.595 0 0 0-1.107.2c-.386.13-.717.3-.992.508a2.25 2.25 0 0 0-.62.682A1.894 1.894 0 0 0-5 .759c-.02.284.019.572.118.865.139.411.356.745.652.999.295.255.656.405 1.081.453.425.047.888-.013 1.389-.182.542-.182.967-.429 1.274-.741.308-.31.498-.654.569-1.028A2.197 2.197 0 0 0 0 0m1.009 2.586c-.216.408-.516.76-.898 1.058a4.621 4.621 0 0 1-1.368.712c-.716.242-1.387.314-2.01.218a3.016 3.016 0 0 1-1.639-.801c-.469-.437-.829-1.03-1.08-1.777A4.346 4.346 0 0 1-6.237.441c.017-.488.13-.933.337-1.339.206-.405.503-.761.889-1.068a4.48 4.48 0 0 1 1.368-.726 4.58 4.58 0 0 1 1.511-.255c.494.002.949.1 1.363.292.415.191.784.48 1.108.868.323.388.579.862.768 1.426.191.565.277 1.096.256 1.591-.02.497-.138.947-.354 1.356" style="fill:#0e3f76;fill-opacity:1;fill-rule:nonzero;stroke:none" transform="matrix(1.6407 0 0 -1.6407 13.945 59.356)"/><path d="m0 0 4.655-2.446L6.104.312c.117.22.256.363.419.426A.547.547 0 0 0 7 .713a.535.535 0 0 0 .29-.375c.036-.166-.004-.361-.122-.585L5.441-3.531c-.155-.295-.329-.475-.522-.539-.193-.064-.43-.023-.708.124L-.713-1.357c-.263.137-.426.302-.493.494a.728.728 0 0 0 .06.59.745.745 0 0 0 .455.393C-.495.18-.264.139 0 0" style="fill:#0e3f76;fill-opacity:1;fill-rule:nonzero;stroke:none" transform="matrix(1.6407 0 0 -1.6407 9.922 45.937)"/><path d="m0 0-4.741 3.158c-.246.163-.391.346-.436.545a.72.72 0 0 0 .119.579.746.746 0 0 0 .493.345c.201.037.426-.026.675-.192L.851 1.276c.249-.166.395-.348.439-.55a.746.746 0 0 0-.126-.589.726.726 0 0 0-.489-.329C.471-.229.246-.164 0 0" style="fill:#0e3f76;fill-opacity:1;fill-rule:nonzero;stroke:none" transform="matrix(1.6407 0 0 -1.6407 21.965 43.654)"/><path d="M0 0c.174-.149.324-.356.45-.62.126-.263.204-.576.234-.939A2.884 2.884 0 0 0 .526-2.71C.39-3.116.151-3.521-.192-3.923a5.265 5.265 0 0 0-.791-.76 3.211 3.211 0 0 0-.836-.461 2.998 2.998 0 0 0-.938-.173 3.53 3.53 0 0 0-.914.101 3.852 3.852 0 0 0-.892.342 4.596 4.596 0 0 0-.842.578c-.442.377-.781.783-1.014 1.219a3.3 3.3 0 0 0-.399 1.35c-.033.467.031.925.19 1.374.159.45.403.867.73 1.249.398.468.842.809 1.331 1.022.489.213.947.307 1.373.277.427-.028.756-.141.988-.34a.607.607 0 0 0 .216-.429.602.602 0 0 0-.147-.467c-.127-.15-.257-.233-.388-.25-.131-.017-.319-.001-.562.048-.403.082-.761.077-1.073-.015-.31-.09-.595-.287-.853-.589-.409-.479-.562-1.01-.457-1.592.104-.583.477-1.147 1.118-1.694.428-.366.838-.607 1.23-.723.392-.118.756-.121 1.094-.009.338.111.638.322.903.633.287.334.45.687.489 1.054.04.367-.044.742-.251 1.124a1.484 1.484 0 0 0-.197.489c-.029.151.026.308.165.47a.67.67 0 0 0 .445.241A.601.601 0 0 0 0 0" style="fill:#0e3f76;fill-opacity:1;fill-rule:nonzero;stroke:none" transform="matrix(1.6407 0 0 -1.6407 29.539 29.945)"/><path d="m0 0-2.068 2.798c-.176.238-.251.459-.227.66a.726.726 0 0 0 .313.508c.191.141.388.195.589.159.201-.035.389-.172.565-.411L1.287.854c.24-.326.479-.57.716-.731.238-.162.497-.232.781-.207.282.021.598.162.947.42.482.356.731.729.75 1.122.019.392-.155.836-.523 1.335L1.826 5.676c-.179.242-.255.461-.231.661.025.201.13.369.317.507a.76.76 0 0 0 .583.158c.202-.031.392-.169.57-.409l2.068-2.797c.336-.456.57-.869.702-1.243.132-.373.153-.771.064-1.191A2.573 2.573 0 0 0 5.442.36a4.435 4.435 0 0 0-.932-.897c-.469-.346-.908-.597-1.319-.75-.409-.154-.796-.209-1.159-.165a2.238 2.238 0 0 0-1.046.431C.653-.778.324-.439 0 0" style="fill:#0e3f76;fill-opacity:1;fill-rule:nonzero;stroke:none" transform="matrix(1.6407 0 0 -1.6407 33.362 24.848)"/><path d="m0 0 4.545-2.486-1.916 3.84c-.125.25-.162.464-.112.646.049.182.17.318.36.413.197.098.383.113.559.046.176-.069.326-.229.451-.479l2.535-5.084c.283-.568.178-.973-.314-1.22a.966.966 0 0 0-.714-.091c-.123.03-.246.077-.37.138l-.372.192L.19-1.602l1.892-3.793c.123-.246.155-.464.098-.65a.695.695 0 0 0-.371-.423.69.69 0 0 0-.567-.043c-.182.07-.333.226-.454.47L-1.7-1.053c-.106.212-.164.39-.174.535a.815.815 0 0 0 .131.471.938.938 0 0 0 .38.346.84.84 0 0 0 .656.064c.1-.032.209-.082.331-.149L0 0" style="fill:#0e3f76;fill-opacity:1;fill-rule:nonzero;stroke:none" transform="matrix(1.6407 0 0 -1.6407 44.354 10.712)"/><path d="m0 0-1.894 5.359c-.098.279-.105.511-.022.697.084.185.23.316.441.39a.742.742 0 0 0 .6-.02c.182-.089.324-.276.423-.557L1.442.51c.099-.281.106-.516.021-.702a.733.733 0 0 0-.452-.395.728.728 0 0 0-.587.029C.239-.464.098-.277 0 0" style="fill:#0e3f76;fill-opacity:1;fill-rule:nonzero;stroke:none" transform="matrix(1.6407 0 0 -1.6407 57.13 15.219)"/><path d="m0 0 2.756-4.324.589 5.13c.029.267.055.456.076.564a.74.74 0 0 0 .157.313c.082.1.211.172.386.213a.77.77 0 0 0 .376-.009.712.712 0 0 0 .313-.185.599.599 0 0 0 .164-.282 1.01 1.01 0 0 0 .022-.235 2.49 2.49 0 0 0-.02-.258C4.806.843 4.795.754 4.783.665l-.732-5.008a15.713 15.713 0 0 0-.077-.547 2.08 2.08 0 0 0-.126-.467 1.024 1.024 0 0 0-.266-.372 1.072 1.072 0 0 0-.486-.232 1.09 1.09 0 0 0-.538-.006.974.974 0 0 0-.406.221c-.113.102-.22.225-.321.368-.1.142-.202.293-.306.454L-1.282-.771a6.65 6.65 0 0 1-.15.223c-.05.072-.097.153-.14.24a1.12 1.12 0 0 0-.087.228.632.632 0 0 0 .104.493.725.725 0 0 0 .473.321c.255.06.453.027.594-.098C-.349.513-.186.301 0 0" style="fill:#0e3f76;fill-opacity:1;fill-rule:nonzero;stroke:none" transform="matrix(1.6407 0 0 -1.6407 61.394 4.163)"/><path d="m0 0-3.456-.256.131-1.773 3.181.235c.235.018.414-.019.537-.112a.503.503 0 0 0 .202-.382.524.524 0 0 0-.141-.413c-.107-.112-.278-.176-.516-.194l-3.181-.235.152-2.058 3.574.264c.241.018.427-.022.557-.119a.545.545 0 0 0 .214-.413.523.523 0 0 0-.152-.429C.987-6.001.81-6.067.569-6.086l-4.167-.307c-.332-.025-.577.028-.734.158-.156.131-.246.353-.269.67l-.4 5.421c-.016.211.004.384.06.522.055.139.15.243.284.313.136.072.31.115.527.13l4.047.3c.245.018.43-.02.557-.114A.507.507 0 0 0 .681.616.512.512 0 0 0 .533.194C.422.084.245.018 0 0" style="fill:#0e3f76;fill-opacity:1;fill-rule:nonzero;stroke:none" transform="matrix(1.6407 0 0 -1.6407 80.203 1.846)"/><path d="m0 0-1.374.115.169 1.989 1.414-.119c.527-.046.877-.112 1.049-.198a.968.968 0 0 0 .415-.381.9.9 0 0 0 .115-.544c-.021-.257-.105-.453-.25-.588C1.393.14 1.193.052.936.013A4.005 4.005 0 0 0 0 0m2.573-2.575a6.3 6.3 0 0 1-.589.912c-.226.29-.466.515-.726.676.657.08 1.157.265 1.501.56.345.294.541.711.586 1.249.022.262-.005.514-.079.756a1.77 1.77 0 0 1-.362.651 1.927 1.927 0 0 1-.593.463 2.32 2.32 0 0 1-.646.223 8.036 8.036 0 0 1-.878.116l-2.49.211c-.329.029-.574-.022-.734-.149-.16-.13-.252-.352-.279-.665l-.47-5.543c-.024-.292.024-.518.145-.679.121-.162.304-.254.547-.274a.735.735 0 0 1 .568.17c.153.131.243.349.269.654l.194 2.313.538-.045c.272-.024.494-.076.668-.16.173-.084.338-.227.497-.427.157-.203.331-.492.521-.868l.531-1.023c.124-.24.224-.424.299-.549.073-.125.165-.231.275-.318a.786.786 0 0 1 .424-.152.87.87 0 0 1 .388.048.688.688 0 0 1 .279.199c.071.088.111.18.12.276.007.092-.033.263-.12.516a6.36 6.36 0 0 1-.384.859" style="fill:#0e3f76;fill-opacity:1;fill-rule:nonzero;stroke:none" transform="matrix(1.6407 0 0 -1.6407 88.7 5.405)"/><path d="M0 0a2.06 2.06 0 0 0-.629-1.06c-.314-.281-.715-.463-1.206-.544-.49-.082-1.039-.048-1.645.103-.729.181-1.297.46-1.705.84a2.424 2.424 0 0 0-.627.957c-.13.367-.159.698-.084.994a.61.61 0 0 0 .298.398.673.673 0 0 0 .524.066.606.606 0 0 0 .363-.243c.085-.123.141-.288.171-.495.039-.247.094-.46.165-.638.072-.178.195-.338.368-.485.174-.147.422-.259.743-.34.443-.11.828-.101 1.153.027.325.128.525.338.598.633a.783.783 0 0 1-.082.624c-.114.183-.28.34-.497.476a10.61 10.61 0 0 1-.887.479 7.57 7.57 0 0 0-1.226.744 2.18 2.18 0 0 0-.687.857c-.142.324-.162.688-.063 1.092.097.387.292.701.588.946.296.246.673.396 1.132.452.459.057.971.016 1.537-.125.452-.112.83-.263 1.135-.451.303-.189.542-.399.715-.629.175-.231.287-.455.34-.674.052-.22.056-.422.009-.607a.675.675 0 0 0-.302-.409.63.63 0 0 0-.52-.085c-.172.043-.291.116-.36.217a1.677 1.677 0 0 0-.191.467 1.892 1.892 0 0 1-.329.747c-.149.195-.432.345-.849.448-.386.096-.716.094-.993-.009-.277-.104-.443-.267-.5-.495a.585.585 0 0 1 .03-.393c.055-.124.145-.239.266-.347.123-.109.251-.201.386-.279.133-.078.357-.196.669-.36.393-.195.744-.392 1.053-.586a3.66 3.66 0 0 0 .76-.622c.197-.218.331-.466.403-.743C.097.669.087.354 0 0" style="fill:#0e3f76;fill-opacity:1;fill-rule:nonzero;stroke:none" transform="matrix(1.6407 0 0 -1.6407 104.94 11.742)"/><path d="m0 0 1.98 5.338c.103.277.247.461.429.55.183.091.38.096.589.019a.745.745 0 0 0 .445-.398c.082-.188.071-.421-.032-.702L1.43-.53c-.103-.28-.248-.465-.432-.554a.735.735 0 0 0-.6-.015.715.715 0 0 0-.429.399c-.083.19-.072.424.031.7" style="fill:#0e3f76;fill-opacity:1;fill-rule:nonzero;stroke:none" transform="matrix(1.6407 0 0 -1.6407 105.954 14.696)"/><path d="m0 0-1.501.746-2.341-4.701c-.136-.271-.3-.441-.491-.509a.725.725 0 0 0-.589.048.748.748 0 0 0-.401.447c-.062.198-.025.429.107.698l2.342 4.703-1.5.746c-.234.118-.384.253-.45.409a.545.545 0 0 0 .023.475.543.543 0 0 0 .376.308c.168.038.364 0 .589-.112L.537 1.081C.775.961.929.823.994.666A.548.548 0 0 0 .972.188a.535.535 0 0 0-.37-.303C.436-.155.235-.116 0 0" style="fill:#0e3f76;fill-opacity:1;fill-rule:nonzero;stroke:none" transform="matrix(1.6407 0 0 -1.6407 121.566 12.229)"/><path d="m0 0 1.302 1.888.029 3.304c.006.296.021.518.043.67.024.152.064.27.122.355a.56.56 0 0 0 .416.24.717.717 0 0 0 .518-.136c.173-.119.271-.256.298-.412.023-.154.03-.433.016-.835l-.083-2.61 2.423.996c.148.061.272.114.374.157.099.043.203.077.306.103a.747.747 0 0 0 .299.019.713.713 0 0 0 .296-.126.686.686 0 0 0 .296-.423.557.557 0 0 0-.077-.453.832.832 0 0 0-.3-.26 4.911 4.911 0 0 0-.579-.249L2.562 1.021 1.26-.869c-.171-.246-.357-.39-.559-.43a.732.732 0 0 0-.58.132.722.722 0 0 0-.329.492C-.241-.474-.172-.249 0 0" style="fill:#0e3f76;fill-opacity:1;fill-rule:nonzero;stroke:none" transform="matrix(1.6407 0 0 -1.6407 121.84 22.599)"/><path d="M0 0c-.162-.396-.436-.774-.824-1.135-.418-.389-.837-.646-1.256-.772-.419-.124-.809-.129-1.17-.017a2.139 2.139 0 0 0-.943.6 2.14 2.14 0 0 0-.457.728 1.95 1.95 0 0 0-.106.833c.026.295.123.594.291.901.17.305.404.598.706.878.298.278.603.49.917.632.313.144.611.218.892.225.283.007.552-.049.811-.163.258-.114.489-.285.7-.509.293-.314.48-.66.561-1.041A1.928 1.928 0 0 0 0 0m1.457 1.198c-.163.62-.512 1.219-1.048 1.794-.396.423-.811.742-1.247.958a3.17 3.17 0 0 1-1.337.341 3.269 3.269 0 0 1-1.362-.274 4.491 4.491 0 0 1-1.288-.858 4.645 4.645 0 0 1-.942-1.207 3.268 3.268 0 0 1-.39-1.336c-.03-.455.05-.918.236-1.386.187-.467.483-.918.887-1.352.407-.437.833-.764 1.277-.982a3.148 3.148 0 0 1 1.36-.331c.462-.003.914.092 1.355.288.442.194.867.481 1.275.863.554.514.935 1.068 1.148 1.663.212.594.238 1.2.076 1.819" style="fill:#0e3f76;fill-opacity:1;fill-rule:nonzero;stroke:none" transform="matrix(1.6407 0 0 -1.6407 141.917 31.043)"/><path d="m0 0-1.686 2.515-1.542-1.034L-1.816-.62c.13-.195.186-.368.167-.52a.501.501 0 0 0-.235-.367.492.492 0 0 0-.429-.076c-.147.043-.284.161-.413.352L-4.135.872-6.113-.455c-.251-.167-.478-.233-.679-.196a.75.75 0 0 0-.491.337.749.749 0 0 0-.127.587c.044.202.189.385.438.553l4.618 3.098c.175.117.336.185.483.205a.604.604 0 0 0 .413-.094c.129-.084.254-.214.375-.396L.936.628c.137-.202.197-.384.177-.54a.518.518 0 0 0-.239-.375.515.515 0 0 0-.441-.079C.281-.326.136-.204 0 0" style="fill:#0e3f76;fill-opacity:1;fill-rule:nonzero;stroke:none" transform="matrix(1.6407 0 0 -1.6407 151.03 40.507)"/><path d="M0 0c-.111-.259-.315-.447-.61-.568-.247-.101-.471-.124-.671-.068a1.068 1.068 0 0 0-.54.381 3.256 3.256 0 0 0-.444.799l-.391.959 2.048.837.391-.959C.042.746.114.285 0 0m1.319.153c-.04.322-.17.752-.389 1.29l-.743 1.82c-.129.311-.285.513-.472.603-.185.093-.427.077-.725-.046l-5.154-2.104c-.267-.11-.444-.257-.529-.445A.714.714 0 0 1-6.69.676a.712.712 0 0 1 .415-.419c.195-.075.428-.057.698.054l1.897.775.533-1.305c.357-.874.801-1.46 1.332-1.758.531-.299 1.138-.31 1.816-.032.319.131.584.303.796.516.21.214.362.461.45.743.09.282.114.584.072.903" style="fill:#0e3f76;fill-opacity:1;fill-rule:nonzero;stroke:none" transform="matrix(1.6407 0 0 -1.6407 156.98 53.868)"/><path d="m0 0 3.384.775c.286.067.518.049.694-.053a.723.723 0 0 0 .337-.486c.053-.231.023-.43-.09-.599-.113-.167-.312-.285-.6-.351L.266-1.508c-.393-.091-.712-.212-.955-.365a1.18 1.18 0 0 1-.5-.636c-.09-.268-.088-.617.009-1.043.136-.588.379-.969.731-1.145.351-.176.827-.194 1.429-.057l3.488.8c.29.066.523.051.696-.052.173-.101.284-.263.336-.487a.746.746 0 0 0-.089-.594c-.111-.171-.31-.29-.602-.356l-3.382-.778C.876-6.347.404-6.395.011-6.368a2.18 2.18 0 0 0-1.114.413 2.584 2.584 0 0 0-.733.82 4.444 4.444 0 0 0-.452 1.215c-.13.568-.184 1.072-.161 1.51.023.436.127.813.312 1.129.185.314.454.577.81.785C-.974-.287-.531-.122 0 0" style="fill:#0e3f76;fill-opacity:1;fill-rule:nonzero;stroke:none" transform="matrix(1.6407 0 0 -1.6407 154.438 60.312)"/><path d="M0 0a2.03 2.03 0 0 0-1.192.276c-.362.214-.655.541-.881.982-.225.441-.358.973-.399 1.596-.048.746.044 1.371.279 1.873.171.354.41.648.718.883s.614.362.918.382a.619.619 0 0 0 .467-.163.675.675 0 0 0 .22-.477.58.58 0 0 0-.12-.417 1.188 1.188 0 0 0-.42-.314 2.744 2.744 0 0 1-.554-.35 1.244 1.244 0 0 1-.352-.498c-.087-.208-.12-.478-.097-.808.029-.454.155-.818.375-1.088.219-.271.481-.397.782-.377.24.016.43.105.568.269.14.162.24.367.303.616.064.247.125.578.188.989.087.55.198 1.013.336 1.388.138.376.341.68.608.913.268.232.608.362 1.025.389a1.75 1.75 0 0 0 1.082-.27c.323-.207.582-.52.775-.939.193-.417.31-.917.348-1.498.03-.463.002-.868-.085-1.214a2.593 2.593 0 0 0-.385-.871 1.876 1.876 0 0 0-.541-.527A1.294 1.294 0 0 0 3.39.553a.678.678 0 0 0-.484.162.635.635 0 0 0-.241.47c-.01.174.022.31.102.406.078.097.212.206.398.325.26.155.46.333.599.536.138.203.193.519.165.945-.026.396-.13.709-.312.942-.181.232-.388.341-.621.325a.582.582 0 0 1-.365-.148 1.025 1.025 0 0 1-.25-.359 2.426 2.426 0 0 1-.148-.451 20.53 20.53 0 0 1-.138-.745 11.993 11.993 0 0 0-.24-1.18 3.598 3.598 0 0 0-.36-.909A1.74 1.74 0 0 0 .909.265C.668.111.365.023 0 0" style="fill:#0e3f76;fill-opacity:1;fill-rule:nonzero;stroke:none" transform="matrix(1.6407 0 0 -1.6407 156.352 82.572)"/><path d="m0 0 .209 2.256L3.082.862Zm4.544 1.246a.981.981 0 0 1-.269.373 2.468 2.468 0 0 1-.445.292l-.466.242-4.492 2.367c-.18.095-.32.166-.422.21a1.001 1.001 0 0 1-.299.08.607.607 0 0 1-.478-.178.743.743 0 0 1-.247-.491c-.021-.226.027-.397.143-.507.117-.112.349-.255.696-.429l.892-.446-.286-3.068-.938-.276c-.117-.038-.25-.083-.403-.137a1.456 1.456 0 0 1-.343-.157.62.62 0 0 1-.186-.201.721.721 0 0 1-.09-.304.739.739 0 0 1 .159-.546c.125-.158.272-.246.438-.261.16-.015.425.039.793.16L3.128-.493c.24.07.433.13.578.177.144.047.281.108.412.185.129.076.238.182.328.317.09.135.145.31.166.522.019.21-.004.389-.068.538" style="fill:#0e3f76;fill-opacity:1;fill-rule:nonzero;stroke:none" transform="matrix(1.6407 0 0 -1.6407 156.783 91.116)"/><path d="m0 0-4.878-1.75 4.149-1.115c.27-.073.456-.189.557-.345a.65.65 0 0 0 .071-.546c-.058-.212-.171-.362-.337-.449-.168-.087-.387-.095-.657-.022l-5.489 1.475c-.611.165-.846.514-.703 1.046.036.133.087.249.152.345.064.096.149.18.254.252.104.072.22.133.347.185.127.051.258.102.391.153l4.81 1.693-4.086 1.098c-.265.072-.449.191-.55.358a.688.688 0 0 0-.071.557c.058.21.172.36.343.45.172.09.391.099.655.028L.34 1.966c.228-.062.401-.136.516-.225a.814.814 0 0 0 .266-.409.923.923 0 0 0 .006-.513.897.897 0 0 0-.152-.326.847.847 0 0 0-.235-.205A1.685 1.685 0 0 0 .411.14L0 0" style="fill:#0e3f76;fill-opacity:1;fill-rule:nonzero;stroke:none" transform="matrix(1.6407 0 0 -1.6407 161.008 101.399)"/><path d="M0 0v3.128c-.611-.447-1.023-.672-1.235-.672a.372.372 0 0 0-.269.115.357.357 0 0 0-.117.266c0 .117.038.203.115.257.077.055.213.126.408.213.291.131.525.267.699.412.175.142.33.304.465.483.135.178.223.287.265.329.041.041.118.062.232.062a.38.38 0 0 0 .308-.141.591.591 0 0 0 .117-.388V.134c0-.46-.166-.691-.498-.691a.466.466 0 0 0-.355.142C.045-.321 0-.183 0 0" style="fill:#0e3f76;fill-opacity:1;fill-rule:nonzero;stroke:none" transform="matrix(1.6407 0 0 -1.6407 69.945 100.663)"/><path d="M0 0a.882.882 0 0 0-.76-.435.768.768 0 0 0-.603.271c-.158.181-.239.423-.239.727 0 .305.081.552.239.738.158.186.353.28.581.28a.813.813 0 0 0 .366-.083.866.866 0 0 0 .29-.227c.081-.095.142-.208.188-.34a1.38 1.38 0 0 0 .066-.43A.948.948 0 0 0 0 0m1.083.856c-.089.312-.216.57-.384.774a1.608 1.608 0 0 1-.615.47 2.031 2.031 0 0 1-.832.162c-.271 0-.517-.044-.74-.13a1.735 1.735 0 0 1-.577-.364 1.587 1.587 0 0 1-.373-.55 1.758 1.758 0 0 1-.131-.673c0-.22.039-.43.116-.63.078-.2.188-.375.332-.525.143-.151.314-.267.51-.35.196-.084.408-.126.635-.126.239 0 .457.046.653.136.198.09.375.224.535.402C.178-1.168.074-1.6-.099-1.844a.912.912 0 0 0-.316-.282.797.797 0 0 0-.39-.1.727.727 0 0 0-.68.456.51.51 0 0 1-.192.252.508.508 0 0 1-.286.084.383.383 0 0 1-.286-.113.358.358 0 0 1-.112-.258c0-.157.06-.318.181-.488.12-.168.297-.31.528-.423.232-.114.504-.172.818-.172.318 0 .603.057.854.168.25.111.466.281.646.509.179.228.316.509.41.845.094.335.141.724.141 1.164 0 .393-.044.746-.134 1.058" style="fill:#0e3f76;fill-opacity:1;fill-rule:nonzero;stroke:none" transform="matrix(1.6407 0 0 -1.6407 78.33 96.839)"/><path d="M0 0a.757.757 0 0 0-.604-.283.787.787 0 0 0-.635.308c-.169.206-.253.463-.253.774 0 .191.042.358.125.502a.87.87 0 0 0 .756.441.806.806 0 0 0 .736-.462C.201 1.13.238.951.238.743.238.437.158.188 0 0m1.084 1.393a1.553 1.553 0 0 1-1.482 1c-.238 0-.454-.045-.645-.133a1.667 1.667 0 0 1-.536-.412c.031.618.136 1.048.311 1.289a.961.961 0 0 0 .32.282.796.796 0 0 0 .381.103.73.73 0 0 0 .419-.123.741.741 0 0 0 .264-.329.517.517 0 0 1 .191-.248.493.493 0 0 1 .282-.089.38.38 0 0 1 .286.115.356.356 0 0 1 .112.255.84.84 0 0 1-.179.485 1.36 1.36 0 0 1-.531.425 1.844 1.844 0 0 1-.815.171c-.32 0-.607-.057-.858-.171a1.722 1.722 0 0 1-.638-.508 2.354 2.354 0 0 1-.405-.849 4.33 4.33 0 0 1-.142-1.16c0-.531.078-.979.233-1.348.156-.367.381-.644.674-.832A1.917 1.917 0 0 1-.625-.966c.353 0 .667.073.945.222.279.148.496.354.652.618.155.263.233.557.233.879 0 .222-.04.435-.121.64" style="fill:#0e3f76;fill-opacity:1;fill-rule:nonzero;stroke:none" transform="matrix(1.6407 0 0 -1.6407 85.727 99.992)"/><path d="M0 0h1.552v2.004zm1.552-1.402v.638H-.261c-.23 0-.401.048-.515.148A.499.499 0 0 0-.847.06c.034.048.069.096.105.142l.134.168 1.914 2.438c.126.16.229.277.31.35.08.071.177.109.291.109.366 0 .55-.202.55-.602V0h.156c.186 0 .335-.025.445-.072.113-.048.169-.153.169-.314 0-.132-.045-.228-.137-.288-.092-.059-.23-.09-.412-.09h-.221v-.638c0-.177-.04-.308-.123-.393a.43.43 0 0 0-.329-.13.428.428 0 0 0-.329.134c-.082.086-.124.217-.124.389" style="fill:#0e3f76;fill-opacity:1;fill-rule:nonzero;stroke:none" transform="matrix(1.6407 0 0 -1.6407 89.846 98.419)"/></svg>