<svg xmlns="http://www.w3.org/2000/svg" width="158.19" height="245.498" viewBox="0 0 41.854437 64.954681"><defs><clipPath id="b" clipPathUnits="userSpaceOnUse"><path d="M0 3433h841.89V0H0Z"/></clipPath><clipPath id="c" clipPathUnits="userSpaceOnUse"><path d="m403.375 1273.698-1.04-.225v-14.654c0-12.961 5.972-22.058 17.754-27.044l.811-.339.817.339c11.784 4.986 17.758 14.086 17.758 27.044l-.005 14.654-1.034.225c-.365.079-8.999 2.008-17.531 2.008-8.53 0-17.17-1.929-17.53-2.008"/></clipPath><linearGradient id="a" x1="0" x2="1" y1="0" y2="0" gradientTransform="matrix(39.28197 0 0 -39.28197 401.469 1253.57)" gradientUnits="userSpaceOnUse" spreadMethod="pad"><stop offset="0" style="stop-opacity:1;stop-color:#fabf00"/><stop offset="0.327381" style="stop-opacity:1;stop-color:#ffd900"/><stop offset="0.72619" style="stop-opacity:1;stop-color:#f39700"/><stop offset="0.7696443" style="stop-opacity:1;stop-color:#f39700"/><stop offset="1" style="stop-opacity:1;stop-color:#e66c02"/></linearGradient></defs><path d="M20.945 0h-.039C8.401 0 0 2.468 0 2.468v32.428c0 7.15 1.679 13.163 4.894 18.07.462.7.95 1.378 1.474 2.036.01.02.03.043.043.066.064.078.13.155.198.232.023.028.046.053.065.079 2.17 2.634 4.79 4.714 7.947 6.623 1.576.947 2.812 1.484 4.629 2.254.008 0 .115.046.273.113.464.193 1.383.586 1.383.586l.019-.01.02.01s.919-.393 1.384-.586c.16-.067.262-.11.272-.113 1.819-.77 3.303-1.446 4.879-2.401 3.163-1.903 5.536-3.842 7.699-6.476a.825.825 0 0 0 .066-.08c.061-.076.133-.153.195-.231.015-.023.03-.046.052-.066a29.404 29.404 0 0 0 1.469-2.036c3.212-4.907 4.893-10.92 4.893-18.07V2.468S33.453 0 20.945 0" style="fill:#666564;fill-opacity:1;fill-rule:evenodd;stroke:none;stroke-width:1.013"/><path d="m403.375 1273.698-1.04-.225v-14.654c0-12.961 5.972-22.058 17.754-27.044l.811-.339.817.339c11.784 4.986 17.758 14.086 17.758 27.044l-.005 14.654-1.034.225c-.365.079-8.999 2.008-17.531 2.008-8.53 0-17.17-1.929-17.53-2.008" style="fill:url(#a);stroke:none" transform="matrix(1.013 0 0 -1.013 -405.356 1310.002)"/><g clip-path="url(#b)" transform="matrix(1.013 0 0 -1.013 -405.356 1310.002)"><path d="m0 0-1.039-.226v-14.653c0-12.961 5.972-22.058 17.754-27.044l.811-.34.816.34c11.785 4.986 17.759 14.086 17.759 27.044L36.096-.226 35.062 0c-.365.079-8.999 2.008-17.531 2.008C9.001 2.008.36.079 0 0" style="fill:#f5a100;fill-opacity:1;fill-rule:evenodd;stroke:none" transform="translate(403.374 1273.698)"/><path d="m0 0 .51.099c.499.094 1.112.317 1.102.925-.002.677-.573.677-1.112.568-.171-.036-.338-.073-.51-.107C-.005.989 0 .495 0 0m-.015 2.249c.152.032.294.065.441.096.451.094 1.014.307 1.014.839-.005.611-.548.54-1.047.426l-.416-.099c.008-.418.008-.842.008-1.262M-1.1 4.035c.621.176 1.247.333 1.873.477.692.165 1.737.172 1.747-.981.005-.626-.426-1.138-1.065-1.374v-.01c.735.071 1.242-.327 1.244-.973C2.712-.154 1.486-.54.809-.661a92.306 92.306 0 0 1-1.884-.353c-.007 1.683-.02 3.367-.025 5.049" style="fill:#fff;fill-opacity:1;fill-rule:nonzero;stroke:none" transform="translate(403.562 1284.382)"/><path d="M0 0c.36.058.72.122 1.082.173.008-1.02.013-2.044.023-3.065.005-.905.299-1.455 1.136-1.356.826.101 1.12.722 1.115 1.635-.005 1.024-.015 2.053-.02 3.077.365.04.735.079 1.095.114l.015-3.406c.007-1.433-.814-2.089-2.2-2.259C.852-5.252.025-4.793.02-3.379.01-2.248.005-1.125 0 0" style="fill:#fff;fill-opacity:1;fill-rule:nonzero;stroke:none" transform="translate(407.268 1289.47)"/><path d="M0 0c-.421-.107-.877-.205-1.308-.231-1.86-.099-3.15.641-3.158 2.451-.01 1.818 1.186 2.958 3.133 3.057.38.021.877-.03 1.3-.167-.023-.302-.051-.601-.078-.9-.436.213-.827.246-1.242.226-1.182-.059-1.917-.959-1.917-2.046.005-1.087.73-1.845 1.957-1.782.451.028.984.142 1.257.284C-.04.593-.025.296 0 0" style="fill:#fff;fill-opacity:1;fill-rule:nonzero;stroke:none" transform="translate(417.108 1285.158)"/><path d="M0 0c.401.01.804.021 1.209.028 0-.717 0-1.432.008-2.147.796.013 1.607.018 2.413.01 0 .715 0 1.43-.005 2.145.408 0 .811-.005 1.212-.015.01-1.767.01-3.542.01-5.308-.403.007-.807.007-1.212.012 0 .778-.005 1.554-.005 2.33-.806.005-1.61.002-2.413-.008v-2.334a79.73 79.73 0 0 1-1.204-.026C.005-3.541 0-1.769 0 0" style="fill:#fff;fill-opacity:1;fill-rule:nonzero;stroke:none" transform="translate(418.076 1290.428)"/><path d="M0 0c1.181-.035 2.372-.089 3.559-.165 0-.281-.003-.56-.003-.839-.788.048-1.563.092-2.355.122v-1.31c.72-.033 1.435-.069 2.15-.115v-.841a76.35 76.35 0 0 1-2.15.117v-1.491c.792-.041 1.574-.081 2.363-.134V-5.5c-1.192.078-2.383.144-3.574.18C-.005-3.546-.005-1.774 0 0" style="fill:#fff;fill-opacity:1;fill-rule:nonzero;stroke:none" transform="translate(424.058 1290.423)"/><path d="M0 0c1.121-.121 1.531.789 1.539 1.752.002.93-.434 1.959-1.514 2.083-1.085.122-1.53-.808-1.536-1.746C-1.518 1.118-1.11.122 0 0m.028 4.674c1.703-.195 2.659-1.482 2.644-3.079C2.667-.01 1.719-1.024 0-.836-1.741-.651-2.659.548-2.652 2.185c.011 1.633.954 2.682 2.68 2.489" style="fill:#fff;fill-opacity:1;fill-rule:nonzero;stroke:none" transform="translate(431.126 1285.358)"/><path d="M0 0a69.18 69.18 0 0 0 1.333-.256c.67-1.445 1.344-2.887 2.013-4.302.005 0 .01-.005.01-.005.015 1.28.025 2.555.041 3.833a32.06 32.06 0 0 0 1.029-.274c-.01-1.68-.028-3.364-.046-5.047-.433.086-.877.172-1.318.256-.674 1.405-1.343 2.839-2.023 4.274l-.01.003C1.009-2.826.996-4.129.978-5.437c-.342.058-.689.109-1.034.164C-.033-3.516-.02-1.76 0 0" style="fill:#fff;fill-opacity:1;fill-rule:nonzero;stroke:none" transform="translate(434.796 1289.43)"/><path d="M0 0c.284.089.573.177.862.261.013-.841.02-1.68.03-2.517.01-.748.254-1.176.918-1.039.669.134.892.676.884 1.442-.012.862-.022 1.721-.032 2.583.289.068.583.135.872.195.01-.958.025-1.921.04-2.882.013-1.212-.641-1.82-1.759-2.035C.71-4.213.046-3.883.031-2.74.02-1.828.005-.91 0 0" style="fill:#fff;fill-opacity:1;fill-rule:nonzero;stroke:none" transform="translate(402.538 1280.51)"/><path d="M0 0c.365.061.72.129 1.08.192a350.741 350.741 0 0 0 1.698-3.181h.021C2.778-1.848 2.773-.702 2.758.444c.281.04.563.078.842.113.015-1.533.033-3.067.05-4.595-.36-.046-.719-.091-1.069-.139C2.008-3.108 1.43-2.048.867-1.004h-.01c.01-1.135.025-2.276.035-3.414-.278-.044-.557-.086-.836-.132C.036-3.032.021-1.521 0 0" style="fill:#fff;fill-opacity:1;fill-rule:nonzero;stroke:none" transform="translate(407.106 1281.653)"/><path d="M0 0c.314.033.618.061.933.091.007-1.533.023-3.064.035-4.593-.306-.03-.621-.058-.925-.096C.028-3.064.018-1.534 0 0" style="fill:#fff;fill-opacity:1;fill-rule:nonzero;stroke:none" transform="translate(411.757 1282.327)"/><path d="M0 0c.35.033.702.056 1.044.081.426-1.174.847-2.349 1.27-3.513h.013A820.09 820.09 0 0 0 3.546.215c.322.011.646.023.963.036-.54-1.539-1.074-3.085-1.612-4.634-.4-.025-.803-.048-1.196-.076C1.138-2.968.568-1.485 0 0" style="fill:#fff;fill-opacity:1;fill-rule:nonzero;stroke:none" transform="translate(413.402 1282.479)"/><path d="M0 0c.958.023 1.916.033 2.874.028.005-.238 0-.476.005-.72-.636.008-1.267 0-1.896-.005v-1.12c.578.005 1.161.007 1.739.007a16.995 16.995 0 0 1 0-.714c-.578 0-1.161-.006-1.739-.013v-1.278c.639.01 1.275.016 1.912.016v-.718c-.964 0-1.922-.01-2.89-.035C.005-3.037.005-1.516 0 0" style="fill:#fff;fill-opacity:1;fill-rule:nonzero;stroke:none" transform="translate(418.64 1282.748)"/><path d="M0 0c.101-.005.208-.005.314-.008.487-.013 1.039.033 1.039.603 0 .548-.544.611-1.036.622-.109.007-.216.007-.317.01Zm-.979 1.959c.35-.005.7-.01 1.055-.017 1.049-.018 2.296-.041 2.292-1.311-.006-.537-.383-.963-1.005-1.019v-.013c.264-.03.422-.284.51-.491.264-.604.525-1.215.784-1.823-.365.018-.726.038-1.091.051-.192.484-.385.966-.583 1.444-.137.345-.263.482-.669.495C.203-.725.101-.72 0-.72c-.005-.629-.005-1.26-.01-1.891-.32.01-.644.015-.969.015z" style="fill:#fff;fill-opacity:1;fill-rule:nonzero;stroke:none" transform="translate(423.37 1280.811)"/><path d="M0 0a2.607 2.607 0 0 1-.943.269c-.314.025-.73-.089-.73-.583-.005-.791 2.028-.611 2.02-2.163 0-1.006-.803-1.31-1.741-1.241-.507.04-.725.119-1.184.258.028.274.056.547.089.819a2.461 2.461 0 0 1 1.044-.35c.355-.023.821.114.824.527 0 .882-2.023.662-2.018 2.167.005 1.022.809 1.354 1.625 1.296a3.443 3.443 0 0 0 1.1-.251C.063.497.025.249 0 0" style="fill:#fff;fill-opacity:1;fill-rule:nonzero;stroke:none" transform="translate(429.159 1281.62)"/><path d="M0 0c.307-.033.624-.063.93-.101C.915-1.632.913-3.166.902-4.697c-.314.033-.621.068-.925.099C-.015-3.067-.01-1.534 0 0" style="fill:#fff;fill-opacity:1;fill-rule:nonzero;stroke:none" transform="translate(430.193 1282.367)"/><path d="M0 0c-.441.058-.877.122-1.318.172 0 .244.007.484.007.728A60.348 60.348 0 0 0 2.246.345c0-.244 0-.477-.005-.718-.436.081-.875.16-1.318.226C.913-1.43.907-2.71.895-3.997c-.304.045-.611.091-.923.134C-.015-2.583-.01-1.293 0 0" style="fill:#fff;fill-opacity:1;fill-rule:nonzero;stroke:none" transform="translate(433.052 1281.298)"/><path d="M0 0c-.517 1.009-1.034 2.028-1.556 3.052.344-.074.689-.147 1.024-.223C-.198 2.122.137 1.417.477.72c.347.542.699 1.072 1.049 1.582.312-.084.616-.178.923-.269A84.058 84.058 0 0 1 .872-.19C.864-.773.857-1.354.857-1.937a40.63 40.63 0 0 1-.875.17C-.01-1.179-.005-.593 0 0" style="fill:#fff;fill-opacity:1;fill-rule:nonzero;stroke:none" transform="translate(437.194 1278.527)"/></g><g clip-path="url(#c)" transform="matrix(1.013 0 0 -1.013 -405.356 1310.002)"><path d="M0 0c-.72.099-1.407.238-2.063.398a18.715 18.715 0 0 1-6.5 6.223A18.867 18.867 0 0 1 .36 7.782c.628-.256 1.262-.55 1.901-.9C5.014 5.389 7.338 3.3 9.024.854 6.215-.117 3.103-.426 0 0m-1.496-2.058C-.147-4.882.499-7.937.431-10.912c-2.844.869-5.541 2.44-7.802 4.608a18.474 18.474 0 0 0-1.435 1.536 18.773 18.773 0 0 1-1.602 8.854A18.646 18.646 0 0 1-2.509-.213a19.95 19.95 0 0 0 1.013-1.845M-9.48-3.922c-2.842 3.81-3.432 7.638-3.539 9.458.304.046.604.142.877.286.984-1.541 2.743-4.988 2.662-9.744m-.315-3.168c-.573-3.126-1.87-6.02-3.716-8.405-1.817 2.405-3.092 5.31-3.632 8.443a19.154 19.154 0 0 0-.236 1.962 18.855 18.855 0 0 1 3.98 8.208 18.811 18.811 0 0 1 3.871-8.122 19.123 19.123 0 0 0-.267-2.086m-4.877 12.922c.279-.151.583-.25.893-.296-.115-1.84-.72-5.719-3.645-9.554-.074 4.824 1.748 8.309 2.752 9.85m-3.432-10.686a21.538 21.538 0 0 0-1.363-1.437c-2.297-2.185-5.05-3.775-7.942-4.621-.058 3.019.621 6.116 2.017 8.968.305.613.627 1.189.961 1.731a18.725 18.725 0 0 1 7.977 4.251 18.913 18.913 0 0 1-1.65-8.892M-26.821.035c-3.146-.42-6.304-.088-9.148.923 1.726 2.479 4.096 4.591 6.905 6.076.603.322 1.201.598 1.789.836a18.81 18.81 0 0 1 8.953-1.244 18.797 18.797 0 0 1-6.55-6.223 18.506 18.506 0 0 0-1.949-.368m-2.243 9.445c-2.794 1.506-5.151 3.627-6.854 6.117 2.844.991 6.005 1.308 9.145.864a20.726 20.726 0 0 0 1.952-.375 18.814 18.814 0 0 1 6.507-6.269c-2.266.256-5.443.18-8.958-1.191a20.95 20.95 0 0 0-1.792.854m3.736 8.953c-1.379 2.864-2.043 5.967-1.962 8.981 2.89-.867 5.627-2.469 7.916-4.674.492-.474.941-.959 1.354-1.445a18.77 18.77 0 0 1 1.589-8.897 18.847 18.847 0 0 1-7.954 4.299c-.33.542-.644 1.12-.943 1.736m7.975 2.023c2.905-3.856 3.488-7.742 3.589-9.579a2.62 2.62 0 0 1-.898-.289c-.99 1.553-2.793 5.042-2.691 9.868m.304 3.037c.562 3.125 1.85 6.027 3.685 8.418 1.833-2.398 3.111-5.301 3.665-8.431a19.95 19.95 0 0 0 .244-1.965 18.809 18.809 0 0 1-3.936-8.136 18.776 18.776 0 0 1-3.907 8.149c.049.636.127 1.293.249 1.965m4.925-12.908a2.603 2.603 0 0 1-.895.294c.101 1.843.697 5.721 3.61 9.567.091-4.826-1.719-8.315-2.715-9.861m3.389 10.697c.416.484.867.968 1.356 1.445 2.294 2.198 5.042 3.787 7.929 4.646.068-3.014-.596-6.116-1.985-8.975a20.685 20.685 0 0 0-1.024-1.838 18.761 18.761 0 0 1-7.929-4.246 18.806 18.806 0 0 1 1.653 8.968m-2.003-12.618c1.767.451 5.592 1.052 10.089-.497-4.507-1.518-8.329-.892-10.089-.426.051.307.051.619 0 .923m-.481-2.056c.091.129.172.264.243.408 1.699-.674 5.143-2.428 7.871-6.327-4.543 1.417-7.263 4.168-8.413 5.58.106.101.205.215.299.339m-.289 3.529c1.161 1.404 3.903 4.139 8.446 5.523-2.753-3.876-6.208-5.61-7.909-6.269a2.85 2.85 0 0 1-.537.746m-3.493-.746a1.995 1.995 0 1 0 3.209-2.367 1.997 1.997 0 0 0-2.791-.424 1.997 1.997 0 0 0-.418 2.791m-8.791 6.406c4.608-1.417 7.371-4.215 8.527-5.643a2.432 2.432 0 0 1-.304-.35 2.579 2.579 0 0 1-.253-.41c-1.712.672-5.22 2.443-7.97 6.403m7.964-8.763c.132-.279.32-.54.548-.76-1.166-1.427-3.939-4.208-8.557-5.595 2.778 3.944 6.293 5.694 8.009 6.355m-.225.71c-1.782-.462-5.66-1.09-10.218.504 4.566 1.559 8.441.91 10.22.436a2.748 2.748 0 0 1-.002-.94M.056 16.332c3.105.405 6.21.076 9.019-.905-1.714-2.441-4.046-4.517-6.804-5.993a18.55 18.55 0 0 0-1.909-.889 18.801 18.801 0 0 1-8.915 1.219c1.98 1.113 4.497 3.027 6.54 6.18.654.16 1.344.291 2.069.388m2.545-8.829a22.22 22.22 0 0 1-1.334.659c.441.198.885.411 1.334.649 2.912 1.559 5.368 3.767 7.153 6.352.132.203.266.398.39.603-.218.092-.441.175-.669.256-2.956 1.073-6.235 1.435-9.505 1.007-.51-.066-.999-.152-1.473-.249.246.416.479.855.697 1.311 1.468 3.013 2.16 6.291 2.053 9.475a11.33 11.33 0 0 1-.035.715c-.231-.056-.462-.122-.695-.188-3.062-.879-5.962-2.545-8.38-4.859-.34-.324-.649-.654-.953-.978-.051.438-.109.887-.19 1.348-.586 3.298-1.955 6.36-3.904 8.875-.144.187-.302.372-.451.554-.157-.182-.302-.367-.449-.554-1.962-2.513-3.341-5.567-3.929-8.862a17.467 17.467 0 0 1-.197-1.351c-.302.332-.614.659-.949.98-2.413 2.33-5.313 4.001-8.372 4.893-.231.066-.459.124-.689.185a13.033 13.033 0 0 1-.038-.72c-.114-3.176.567-6.459 2.022-9.473.203-.42.416-.826.634-1.209-.436.089-.88.17-1.343.234-3.321.471-6.652.124-9.648-.953a14.997 14.997 0 0 1-.664-.259c.119-.203.253-.403.388-.601 1.777-2.641 4.25-4.897 7.199-6.482.413-.223.818-.425 1.226-.608a18.878 18.878 0 0 1-1.226-.598c-2.959-1.569-5.455-3.807-7.242-6.438a12.134 12.134 0 0 1-.396-.599c.216-.091.446-.174.669-.26 2.989-1.093 6.317-1.466 9.638-1.015.461.059.907.137 1.343.226a20.919 20.919 0 0 1-.638-1.204c-1.473-3.004-2.18-6.281-2.087-9.468l.036-.715c.233.056.461.12.697.188 3.057.864 5.972 2.522 8.395 4.829.338.327.654.651.956.978.051-.441.109-.892.185-1.348.578-3.305 1.926-6.368 3.876-8.89.144-.187.294-.375.446-.558.157.183.306.371.456.558 1.97 2.5 3.353 5.554 3.959 8.844.089.5.16.991.211 1.47a20.2 20.2 0 0 1 1.037-1.064C-5.47-9.1-2.616-10.75.4-11.64c.234-.063.462-.129.695-.19.015.243.03.479.035.72.102 3.143-.567 6.372-1.994 9.35-.221.462-.452.9-.692 1.321.471-.099.958-.187 1.46-.258 3.275-.451 6.56-.109 9.525.945.226.081.451.163.667.251-.127.206-.256.406-.393.601C7.947 3.703 5.5 5.926 2.601 7.503" style="fill:#fff;fill-opacity:1;fill-rule:nonzero;stroke:none" transform="translate(434.431 1247.509)"/></g></svg>