<svg xmlns="http://www.w3.org/2000/svg" width="175.96069mm" height="222.80753mm" viewBox="0 0 175.96069 222.80753"><path d="M0 0c1.082-.448 1.921-1.222 2.495-2.301.543-1.11.84-2.373.84-3.73 0-1.201-.243-2.291-.746-3.301-.521-.97-1.231-1.723-2.21-2.229-.96-.538-1.992-.767-3.113-.767-.767 0-1.303.191-1.701.577-.383.414-.588.965-.588 1.781v1.068l.012 9.516C-2.782.644-1.118.416 0 0m8.328 4.384c1.029 1.113 1.561 2.388 1.561 3.832 0 1.347-.407 2.655-1.215 3.856-.823 1.199-1.942 2.12-3.347 2.725-1.429.626-3.801.917-7.22.917h-14.198v-.789c1.37 0 2.326-.128 2.829-.368.501-.266.866-.594 1.064-1.012.198-.432.297-1.422.297-3.063V-8.766c0-1.628-.099-2.649-.297-3.046-.198-.412-.563-.751-1.059-.999-.481-.27-1.418-.4-2.834-.4v-.78h15.043c4.2 0 7.386.889 9.576 2.628 1.818 1.461 2.706 3.316 2.706 5.522 0 2.133-.813 3.837-2.477 5.162C7.62.254 5.643 1.052 2.798 1.705c2.633.672 4.497 1.547 5.53 2.679M-4.945 14.05c2.078 0 3.6-.202 4.549-.642.936-.426 1.684-1.067 2.208-1.927.509-.85.738-1.918.738-3.243s-.229-2.409-.782-3.291C1.275 4.118.524 3.471-.428 2.992c-1.024-.485-2.507-.709-4.554-.709Z" style="fill:#231f20;fill-opacity:1;fill-rule:nonzero;stroke:none" transform="matrix(1.34522 0 0 -1.34522 47.11 152.495)"/><path d="M0 0c1.914 0 3.321.094 4.216.255 1.985.39 3.69.925 5.087 1.619 1.377.702 2.633 1.609 3.681 2.762 1.049 1.146 1.95 2.602 2.61 4.347.646 1.755.997 3.677.997 5.794 0 2.993-.682 5.721-2.04 8.121-1.366 2.38-3.36 4.17-6.007 5.384-2.165.938-4.993 1.423-8.544 1.423h-13.264v-.789h.99c.83 0 1.502-.149 1.977-.405.51-.291.818-.615.969-1.004.155-.425.241-1.362.241-2.853V5.057c0-1.549-.043-2.457-.193-2.758a2.592 2.592 0 0 0-1.017-1.105c-.475-.261-1.114-.415-1.977-.415h-.99V0H0m3.247 27.398c1.494-.665 2.692-1.864 3.669-3.621 1.18-2.3 1.772-5.35 1.772-9.142 0-4.769-.876-8.231-2.636-10.485C4.783 2.484 2.916 1.663.491 1.663c-.756 0-1.301.104-1.69.321-.292.165-.487.354-.593.639-.111.266-.185 1.032-.185 2.253v23.165c2.452 0 4.185-.208 5.224-.643" style="fill:#231f20;fill-opacity:1;fill-rule:nonzero;stroke:none" transform="matrix(1.34522 0 0 -1.34522 83.124 171.316)"/><path d="M0 0h15.316v-.79h-.763c-1.17 0-1.972-.127-2.386-.367-.42-.266-.732-.594-.919-1.012-.179-.432-.285-1.495-.285-3.206v-14.518c0-2.627.212-4.379.635-5.24.364-.872 1.046-1.574 1.924-2.142.879-.56 2.053-.856 3.419-.856 1.588 0 2.935.376 4.056 1.1 1.111.709 1.955 1.705 2.509 2.976.566 1.249.821 3.453.821 6.608v12.072c0 1.33-.152 2.298-.404 2.878-.287.574-.61.975-1.026 1.189-.631.364-1.566.518-2.737.518V0h10.265v-.79h-.605c-.849 0-1.543-.154-2.091-.518a2.846 2.846 0 0 1-1.191-1.528c-.206-.452-.319-1.323-.319-2.539v-11.226c0-3.479-.228-5.993-.678-7.54-.445-1.544-1.562-2.96-3.343-4.255-1.766-1.293-4.162-1.944-7.22-1.944-2.542 0-4.535.339-5.909 1.015-1.914.934-3.224 2.144-4.016 3.593-.787 1.46-1.19 3.415-1.19 5.872v14.485c0 1.711-.082 2.802-.261 3.206a2.308 2.308 0 0 1-1.008 1.012C2.139-.896 1.249-.79 0-.79Z" style="fill:#231f20;fill-opacity:1;fill-rule:nonzero;stroke:none" transform="matrix(1.34522 0 0 -1.34522 109.569 131.356)"/><path d="M0 0c-5.678-.04-11.288-.854-16.713-2.347a2.3 2.3 0 0 1-1.616-2.82c.319-1.232 1.616-1.99 2.848-1.628C-10.46-5.402-5.206-4.68.063-4.63c1.272 0 2.289 1.073 2.268 2.338C2.331-1.004 1.28.034 0 0" style="fill:#231f20;fill-opacity:1;fill-rule:nonzero;stroke:none" transform="matrix(1.34522 0 0 -1.34522 87.44 46.824)"/><path d="m0 0 12.588 9.942v-61.958L0-42.063v-7.865l20.03-16.998v91.79L0 7.858Z" style="fill:#0093ad;fill-opacity:1;fill-rule:nonzero;stroke:none" transform="matrix(1.34522 0 0 -1.34522 69.482 33.448)"/><path d="m0 0 2.018-1.44c.645-.462 1.247-.597 1.779-.417.398.092.675.31.913.62.236.36.349.714.275 1.09a2.21 2.21 0 0 1-.354.715c.239-.045.439-.024.61 0 .287.08.548.244.798.555.172.261.252.539.252.844 0 .513-.261.943-.847 1.33L3.382 4.772 0 0m1.038.098 1.174 1.699 1.283-.93c.28-.202.46-.377.589-.556.241-.348.241-.709 0-1.046-.168-.213-.318-.377-.574-.41-.333-.105-.684-.015-1.1.268L1.038.098M2.577 2.3l1.074 1.492 1.134-.822c.285-.238.493-.407.607-.54.136-.305.128-.594-.064-.909-.258-.316-.519-.458-.84-.398-.207.034-.456.13-.722.364Z" style="fill:#231f20;fill-opacity:1;fill-rule:nonzero;stroke:none" transform="matrix(1.34522 0 0 -1.34522 132.504 67.072)"/><path d="m0 0-2.658-2.5c-.278-.294-.486-.566-.584-.878-.13-.497-.027-.898.363-1.329.472-.475.942-.654 1.445-.518.285.082.575.256.866.548l2.625 2.492.555-.578L.241-5.026c-.537-.504-1.008-.819-1.445-.931-.733-.232-1.454.043-2.138.732-.678.703-.881 1.455-.621 2.184.184.399.485.856 1.027 1.363L-.568.566z" style="fill:#231f20;fill-opacity:1;fill-rule:nonzero;stroke:none" transform="matrix(1.34522 0 0 -1.34522 151.184 72.268)"/><path d="M0 0c-.298-.19-.476-.403-.54-.632-.201-.425-.146-.883.189-1.418.157-.27.328-.45.517-.624.393-.294.788-.309 1.115-.098.262.174.412.381.444.609 0 .218-.068.573-.215.959l-.256.722c-.168.496-.243.897-.243 1.111.015.436.243.804.649 1.056.473.298.908.364 1.406.245.473-.121.886-.453 1.216-1.006.311-.499.451-.994.437-1.526-.037-.503-.319-.94-.893-1.269l-.365.608c.213.206.393.408.454.599.141.356.052.756-.241 1.263-.243.344-.478.578-.739.635-.306.074-.514.025-.758-.106C1.936.959 1.797.763 1.855.5c0-.192.081-.53.278-1.049l.259-.766c.102-.362.176-.678.157-.957-.055-.445-.281-.805-.752-1.067C1.265-3.705.771-3.755.27-3.503c-.485.208-.898.621-1.209 1.112-.392.632-.527 1.181-.412 1.711.105.544.412.98.964 1.293z" style="fill:#231f20;fill-opacity:1;fill-rule:nonzero;stroke:none" transform="matrix(1.34522 0 0 -1.34522 157.54 88.48)"/><path d="m0 0 .28-.768 1.878.041.814-2.122-1.403-1.215.305-.812L6.549-.795l-.303.838Zm2.818-.714 2.778.074-2.093-1.774Z" style="fill:#231f20;fill-opacity:1;fill-rule:nonzero;stroke:none" transform="matrix(1.34522 0 0 -1.34522 162.246 102.308)"/><path d="m0 0 .184-.898-4.215-3.688 4.68.802.124-.756-5.786-.969-.145.872L-.979-.913l-4.663-.788-.127.761z" style="fill:#231f20;fill-opacity:1;fill-rule:nonzero;stroke:none" transform="matrix(1.34522 0 0 -1.34522 174.92 116.45)"/><path d="m0 0-.372-2.306c-.16-.975.107-1.721.931-2.304.449-.3.988-.525 1.591-.605.821-.159 1.465-.083 2.07.218.613.343 1.009.886 1.134 1.667l.425 2.314L0 0m.544-.914L4.96-1.68l-.239-1.356c-.089-.62-.377-1.03-.819-1.241-.437-.213-1.043-.268-1.752-.149-.159.056-.375.097-.574.155-.363.15-.631.312-.834.489-.274.257-.422.527-.47.862-.031.17 0 .385.048.646z" style="fill:#231f20;fill-opacity:1;fill-rule:nonzero;stroke:none" transform="matrix(1.34522 0 0 -1.34522 168.142 145.368)"/><path d="m0 0-.291-.74-5.491 1.981.259.751z" style="fill:#231f20;fill-opacity:1;fill-rule:nonzero;stroke:none" transform="matrix(1.34522 0 0 -1.34522 171.643 164.007)"/><path d="M0 0c-.55-.335-1.184-.396-1.888-.125l.372.7c.421-.147.787-.12 1.094.036.318.147.594.431.808.807.285.48.304.956.145 1.476-.145.507-.616.97-1.306 1.369-.592.369-1.154.501-1.684.476-.529-.036-.969-.369-1.303-.956-.248-.44-.363-.873-.248-1.353.105-.432.433-.821 1.022-1.18l.918 1.598.585-.349L-2.79.288l-2.693 1.551.261.45.732-.218c-.104.383-.192.693-.181.928 0 .39.133.799.395 1.264.365.592.848.996 1.459 1.191.764.171 1.559 0 2.418-.455.857-.514 1.368-1.115 1.628-1.86.225-.709.153-1.382-.26-2.079A2.758 2.758 0 0 0 0 0" style="fill:#231f20;fill-opacity:1;fill-rule:nonzero;stroke:none" transform="matrix(1.34522 0 0 -1.34522 163.838 179.95)"/><path d="m0 0-.491-.599-4.449 3.765.483.608Z" style="fill:#231f20;fill-opacity:1;fill-rule:nonzero;stroke:none" transform="matrix(1.34522 0 0 -1.34522 156.33 190.843)"/><path d="m0 0-.428.522 1.487 1.292-3.378 3.906.641.522 3.34-3.932 1.506 1.307.449-.529Z" style="fill:#231f20;fill-opacity:1;fill-rule:nonzero;stroke:none" transform="matrix(1.34522 0 0 -1.34522 143.412 203.575)"/><path d="m0 0-.711-.423.348-1.815-1.982-1.172-1.418 1.193-.743-.412L.271-6.618l.765.452zm-.239-2.92L.26-5.633l-2.092 1.796z" style="fill:#231f20;fill-opacity:1;fill-rule:nonzero;stroke:none" transform="matrix(1.34522 0 0 -1.34522 131.924 202.191)"/><path d="m0 0-.76-.245-1.75 4.876-2.731-1.002-.235.652 3.51 1.225z" style="fill:#231f20;fill-opacity:1;fill-rule:nonzero;stroke:none" transform="matrix(1.34522 0 0 -1.34522 120.075 216.957)"/><path d="m0 0-.04 3.587c0 .449-.09.793-.262 1.08-.237.405-.651.615-1.198.609-.666 0-1.116-.254-1.392-.718-.108-.241-.178-.582-.178-.996L-3-.058l-.793-.01-.033 3.285c0 .715.055 1.283.256 1.669.359.704.989 1.074 1.98 1.074.984.025 1.696-.333 2.042-1.019.188-.389.3-.949.3-1.667L.783 0Z" style="fill:#231f20;fill-opacity:1;fill-rule:nonzero;stroke:none" transform="matrix(1.34522 0 0 -1.34522 91.52 222.716)"/><path d="m0 0-.904.159-1.995 5.186-.898-4.636-.71.146 1.061 5.733.871-.143 2.038-5.211.876 4.654.778-.156Z" style="fill:#231f20;fill-opacity:1;fill-rule:nonzero;stroke:none" transform="matrix(1.34522 0 0 -1.34522 74.96 221.804)"/><path d="m0 0-.728.261 2.044 5.48.771-.271Z" style="fill:#231f20;fill-opacity:1;fill-rule:nonzero;stroke:none" transform="matrix(1.34522 0 0 -1.34522 57.696 217.287)"/><path d="m0 0 1.058 5.149-3.932-3.465-.766.441 4.803 3.966.719-.408L.769-.464Z" style="fill:#231f20;fill-opacity:1;fill-rule:nonzero;stroke:none" transform="matrix(1.34522 0 0 -1.34522 45.768 211.865)"/><path d="m0 0-3.201 2.836.453.564 2.633-2.321 1.178 1.346-2.418 2.1.438.535 2.419-2.136 1.321 1.492L.162 6.737l.422.513 3.288-2.834Z" style="fill:#231f20;fill-opacity:1;fill-rule:nonzero;stroke:none" transform="matrix(1.34522 0 0 -1.34522 32.076 202.585)"/><path d="m0 0-.493.638-2.005-1.523L-3.531.489c-.195.239-.314.446-.346.599-.025.3.076.581.365.816l.772.632c.157.153.242.263.323.327.047.061.073.1.12.157l-.61.754-.075-.08a.567.567 0 0 0-.149-.4 1.727 1.727 0 0 0-.345-.346l-.625-.503c-.239-.211-.412-.394-.472-.592-.054-.178-.029-.428.032-.645a1.3 1.3 0 0 1-.8.142c-.275 0-.533-.125-.788-.337C-6.703.591-6.88.114-6.76-.458c.057-.297.234-.633.506-.983l1.627-2.103L0 0m-2.982-1.286-1.62-1.21-1.121 1.497a1.501 1.501 0 0 0-.284.541c-.065.361.07.626.391.877.31.239.597.309.822.239.281-.077.484-.239.709-.523z" style="fill:#231f20;fill-opacity:1;fill-rule:nonzero;stroke:none" transform="matrix(1.34522 0 0 -1.34522 26.223 185.648)"/><path d="M0 0c.289.15.487.37.636.578.229.376.218.871-.092 1.447-.122.24-.255.475-.448.664-.339.3-.706.376-1.082.21-.289-.16-.453-.339-.495-.564-.039-.251 0-.547.099-.964l.172-.762c.13-.505.188-.886.13-1.121-.062-.463-.325-.764-.753-.993-.466-.217-.936-.25-1.405-.086-.47.172-.819.526-1.105 1.121-.261.535-.376 1.048-.261 1.564.041.522.396.91.985 1.171l.326-.649c-.295-.177-.43-.369-.544-.531-.188-.339-.115-.775.129-1.284.181-.375.415-.631.646-.735.293-.046.539-.046.763.058.275.115.396.326.411.592.026.18-.033.518-.167 1.055l-.153.797a2.84 2.84 0 0 0-.091.956c.107.445.378.791.86 1.011.568.284 1.094.284 1.535 0 .448-.3.827-.715 1.082-1.27.329-.626.402-1.214.23-1.749C1.274 0 .915-.41.313-.637Z" style="fill:#231f20;fill-opacity:1;fill-rule:nonzero;stroke:none" transform="matrix(1.34522 0 0 -1.34522 14.716 172.816)"/><path d="m0 0-.255.74 5.631 1.656.23-.756Z" style="fill:#231f20;fill-opacity:1;fill-rule:nonzero;stroke:none" transform="matrix(1.34522 0 0 -1.34522 3.76 159.815)"/><path d="m0 0 .675.074.23-1.93 5.135.615.092-.796-5.157-.62.24-1.968-.668-.076z" style="fill:#231f20;fill-opacity:1;fill-rule:nonzero;stroke:none" transform="matrix(1.34522 0 0 -1.34522 .32 142.024)"/><path d="m0 0 .042.923 2.936 1.496L.292 4.275l.062.913 3.311-2.44 2.373-.147-.057-.783-2.346.174Z" style="fill:#231f20;fill-opacity:1;fill-rule:nonzero;stroke:none" transform="matrix(1.34522 0 0 -1.34522 0 131.833)"/><path d="M0 0v-18.234c4.35-.508 8.667-1.443 12.795-2.823a2.31 2.31 0 0 0 1.472-2.917c-.406-1.193-1.716-1.877-2.936-1.468C7.674-24.217 3.869-23.367 0-22.865v-34.914l20.057-16.992v91.784z" style="fill:#e26832;fill-opacity:1;fill-rule:nonzero;stroke:none" transform="matrix(1.34522 0 0 -1.34522 98.612 22.887)"/><path d="m0 0-16.502 12.41V48.9L0 61.66Zm-21.571 52.079h-.057V9.326L7.3-15.208v91.789z" style="fill:#194a8f;fill-opacity:1;fill-rule:nonzero;stroke:none" transform="matrix(1.34522 0 0 -1.34522 57.474 103.019)"/><path d="M0 0c-.271-1.269.475-2.493 1.734-2.784 1.254-.266 2.505.511 2.776 1.746 4.357 19.058 17.887 34.93 35.832 42.354v4.966C20.189 38.613 4.854 21.164 0 0" style="fill:#231f20;fill-opacity:1;fill-rule:nonzero;stroke:none" transform="matrix(1.34522 0 0 -1.34522 2.953 114.795)"/></svg>