<svg xmlns="http://www.w3.org/2000/svg" width="312.94952mm" height="312.94952mm" viewBox="0 0 312.94952 312.94952"><defs><radialGradient id="a" cx="0" cy="0" r="1" fx="0" fy="0" gradientTransform="translate(1881.448 1385.24) scale(126.14616)" gradientUnits="userSpaceOnUse" spreadMethod="pad"><stop offset="0" style="stop-opacity:1;stop-color:#00a9cc"/><stop offset="0.50409264" style="stop-opacity:1;stop-color:#0091a2"/><stop offset="0.505615" style="stop-opacity:1;stop-color:#0091a2"/><stop offset="0.99596929" style="stop-opacity:1;stop-color:#00676c"/><stop offset="1" style="stop-opacity:1;stop-color:#00676c"/></radialGradient></defs><g style="stroke-width:.716988" transform="matrix(1.39472 0 0 1.39472 -94.704 -100.992)"><circle cx="180.09242" cy="184.60046" r="112.19047" style="fill:#fff;stroke-width:.716987"/><g style="stroke-width:.367341"><g style="stroke-width:.367341"><path d="M0 0c0-87.877-71.375-159.134-159.431-159.134-88.061 0-159.435 71.257-159.435 159.134 0 87.891 71.374 159.144 159.435 159.144C-71.375 159.144 0 87.891 0 0" style="fill:#002d56;fill-opacity:1;fill-rule:nonzero;stroke:none;stroke-width:.367341" transform="matrix(.68856 0 0 -.68856 289.672 184.521)"/></g><g style="stroke-width:.367341"><g style="stroke-width:.367341"><path d="M1815.007 1412.884c0-50.097 39.268-90.717 87.706-90.717 48.431 0 87.708 40.62 87.708 90.717 0 50.113-39.277 90.725-87.708 90.725-48.438 0-87.706-40.612-87.706-90.725" style="fill:url(#a);stroke:none;stroke-width:.367341" transform="matrix(.68856 0 0 -.68856 -1129.41 1156.901)"/></g><g style="stroke-width:.367341"><path d="M0 0c0-50.097-39.275-90.716-87.707-90.716-48.439 0-87.707 40.619-87.707 90.716 0 50.112 39.268 90.725 87.707 90.725C-39.275 90.725 0 50.112 0 0" style="fill:#002d56;fill-opacity:1;fill-rule:nonzero;stroke:none;stroke-width:.367341" transform="matrix(.68856 0 0 -.68856 241.119 184.043)"/></g><g style="stroke-width:.367341"><path d="M0 0c16.847-9.208 34.206-30.67 41.273-51.037 10.495-30.215 7.854-65.864-7.252-97.821l2.763-1.302c15.446 32.667 18.129 69.163 7.371 100.13C36.749-28.691 19.195-7.015 1.472 2.673z" style="fill:#fff;fill-opacity:1;fill-rule:nonzero;stroke:none;stroke-width:.367341" transform="matrix(.68856 0 0 -.68856 180.162 139.318)"/></g><g style="stroke-width:.367341"><path d="M0 0c27.508-4.407 52.324-26.984 61.716-45.987 11.333-22.934 11.47-50.038.42-80.566l2.869-1.043c11.349 31.347 11.163 59.25-.542 82.95C54.728-24.948 28.999-1.555.486 3.013Z" style="fill:#fff;fill-opacity:1;fill-rule:nonzero;stroke:none;stroke-width:.367341" transform="matrix(.68856 0 0 -.68856 184.249 135.89)"/></g><g style="stroke-width:.367341"><path d="M0 0c4.432-9.079 3.509-20.666-2.522-31.777-9.384-17.307-28.203-29.69-49.093-32.322-33.679-4.229-66.077-2.572-75.057 37.924l-2.986-.654c9.536-43 44.997-44.494 78.421-40.288C-29.385-64.371-9.688-51.385.17-33.229 6.672-21.24 7.614-8.646 2.751 1.328z" style="fill:#fff;fill-opacity:1;fill-rule:nonzero;stroke:none;stroke-width:.367341" transform="matrix(.68856 0 0 -.68856 216.298 129.596)"/></g><g style="stroke-width:.367341"><path d="M0 0c-1.551-31.731-34.454-70.948-76.175-75.948-45.516-5.455-85.401 14.465-99.828 35.972l-2.534-1.697c15.299-22.821 55.502-42.964 102.725-37.306C-32.628-73.803 1.45-33.094 3.054-.152z" style="fill:#fff;fill-opacity:1;fill-rule:nonzero;stroke:none;stroke-width:.367341" transform="matrix(.68856 0 0 -.68856 241.592 168.476)"/></g><g style="stroke-width:.367341"><path d="M0 0c1.372-4.02-.321-10.678-4.407-17.371-3.068-5.02-14.854-21.646-37.857-25.056-18.885-2.8-42.686 1.231-47.629 21.801l-2.977-.712c5.081-21.129 29.303-27.337 51.055-24.11 16.407 2.434 31.37 12.33 40.019 26.48C2.822-11.409 4.573-3.949 2.891.979z" style="fill:#fff;fill-opacity:1;fill-rule:nonzero;stroke:none;stroke-width:.367341" transform="matrix(.68856 0 0 -.68856 201.842 119.004)"/></g><g style="stroke-width:.367341"><path d="M0 0c2.375-14.857-1.615-30.267-11.218-43.402-12.197-16.692-31.972-27.889-55.678-31.525-41.528-6.361-75.666 7.677-93.666 38.518l-2.636-1.533c18.663-31.985 53.929-46.563 96.766-39.995 24.513 3.753 44.999 15.377 57.684 32.735C1.341-31.405 5.518-15.179 3.021.473z" style="fill:#fff;fill-opacity:1;fill-rule:nonzero;stroke:none;stroke-width:.367341" transform="matrix(.68856 0 0 -.68856 231.153 146.174)"/></g><g style="stroke-width:.367341"><path d="M0 0c-25.99-32.77-31.181-81.872-12.929-122.186l2.784 1.259C-27.942-81.63-22.899-33.793 2.396-1.893Z" style="fill:#fff;fill-opacity:1;fill-rule:nonzero;stroke:none;stroke-width:.367341" transform="matrix(.68856 0 0 -.68856 155.962 153.18)"/></g><g style="stroke-width:.367341"><path d="M0 0c-25.925-18.762-40.14-54.869-36.91-90.609l3.045.275C-37.007-55.617-23.281-20.607 1.812-2.445z" style="fill:#fff;fill-opacity:1;fill-rule:nonzero;stroke:none;stroke-width:.367341" transform="matrix(.68856 0 0 -.68856 149.43 143.946)"/></g><g style="stroke-width:.367341"><path d="M0 0c-60.974 0-110.397-49.333-110.397-110.183 0-60.851 49.423-110.184 110.397-110.184 60.964 0 110.386 49.333 110.386 110.184C110.386-49.333 60.964 0 0 0m0-197.226c-48.165 0-87.208 38.966-87.208 87.043 0 48.067 39.043 87.036 87.208 87.036 48.155 0 87.203-38.969 87.203-87.036 0-48.077-39.048-87.043-87.203-87.043" style="fill:#fff;fill-opacity:1;fill-rule:nonzero;stroke:none;stroke-width:.367341" transform="matrix(.68856 0 0 -.68856 181.303 107.76)"/></g><g style="stroke-width:.367341"><path d="M0 0v42.259h-99.622v-221.171H0v41.285h-32.782V0Z" style="fill:#fff;fill-opacity:1;fill-rule:nonzero;stroke:none;stroke-width:.367341" transform="matrix(.68856 0 0 -.68856 217.961 136.284)"/></g><g style="stroke-width:.367341"><path d="M0 0v-25.604h-83.927v205.495H0v-26.588h-32.787V0Z" style="fill:#002d56;fill-opacity:1;fill-rule:nonzero;stroke:none;stroke-width:.367341" transform="matrix(.68856 0 0 -.68856 212.557 236.448)"/></g><g style="stroke-width:.367341"><path d="M0 0c-.194-.019-.297.054-.315.219-.011.105.087.2.294.282.452.169.666.357.643.569-.016.151-.1.314-.251.488-.152.175-.306.344-.467.511a7.154 7.154 0 0 0-1.605 3.852 7.345 7.345 0 0 0 .303 3.045c.31.975.8 1.841 1.474 2.596 1.489 1.692 3.61 2.679 6.355 2.964 2.106.218 4.03-.039 5.771-.771 2.85-1.212 4.426-3.301 4.734-6.267a7.176 7.176 0 0 0-.172-2.507l-.758-2.043c.014-.119.129-.206.35-.258.484-.134.727-.231.734-.29.016-.182-.167-.292-.558-.332l-3.886-.518-.341-.058c-.249-.027-.379.043-.396.21-.014.12.152.238.496.348.344.112.601.208.771.286 2.373 1.114 3.447 2.772 3.217 4.971-.167 1.628-1.097 2.852-2.793 3.673-1.694.822-3.948 1.088-6.758.796-2.616-.271-4.617-.98-6-2.129-1.383-1.148-1.988-2.559-1.813-4.23.104-1.011.495-1.86 1.176-2.553.677-.69 1.594-1.182 2.751-1.473a23.462 23.462 0 0 1 1.939-.37c.417-.064.629-.148.638-.254.014-.121-.066-.19-.244-.207Z" style="fill:#fff;fill-opacity:1;fill-rule:nonzero;stroke:none;stroke-width:.367341" transform="matrix(.68856 0 0 -.68856 79.327 193.166)"/></g><g style="stroke-width:.367341"><path d="M0 0c-.071-.012-.146.053-.215.193a1.855 1.855 0 0 1-.892.842c-.05.022-1.064.331-3.042.928-1.159.35-2.324.73-3.495 1.14l-2.797-.489a6.309 6.309 0 0 1-.862-.203c-.22-.076-.38-.249-.478-.523-.041-.111-.06-.306-.053-.587.008-.281-.047-.432-.164-.453-.129-.023-.208.057-.242.235-.016.246-.046.56-.093.945a20.053 20.053 0 0 1-.396 2.272 9.065 9.065 0 0 1-.193.698c-.033.189.016.294.145.317.104.019.203-.1.289-.357.086-.257.175-.443.27-.561.154-.187.335-.291.543-.311.208-.021.529.007.963.084l2.677.467 5.039 3.54c.27.191.467.331.582.425.289.234.434.446.435.635.006.191.006.359.006.502.016.105.079.167.184.186.131.024.217-.076.253-.295.015-.079.043-.294.087-.644.042-.351.077-.602.101-.751.063-.359.132-.708.202-1.048.072-.341.146-.694.22-1.061.041-.236 0-.369-.129-.391-.092-.016-.156.033-.188.144-.033.112-.062.227-.096.345-.165.4-.423.571-.772.509a1.785 1.785 0 0 1-.422-.159 4.767 4.767 0 0 1-.624-.366l-4.196-2.791c.935-.287 1.867-.58 2.804-.877.807-.248 1.474-.43 2.003-.548.527-.119.924-.154 1.181-.108.387.066.588.213.607.434.014.222.029.402.041.536.014.136.06.21.143.225.117.021.191-.069.228-.267a10.6 10.6 0 0 0 .048-.483c.029-.304.066-.592.116-.871C.002.681.096.269.106.217.127.089.094.016 0 0" style="fill:#fff;fill-opacity:1;fill-rule:nonzero;stroke:none;stroke-width:.367341" transform="matrix(.68856 0 0 -.68856 88.19 199.053)"/></g><g style="stroke-width:.367341"><path d="M0 0c-2.073-.494-3.434.612-4.081 3.321-.065.276-.148.697-.249 1.264-.102.567-.173.938-.214 1.116-.129.54-.238.947-.324 1.223a8.89 8.89 0 0 1-.236.683c-.043.187-.004.295.124.326.104.024.209-.088.309-.333.102-.246.201-.424.303-.536a.862.862 0 0 1 .578-.275c.225-.015.538.027.943.123L4.96 8.777c.393.095.686.199.878.312.194.114.317.26.364.438.05.177.061.401.033.67-.03.271-.001.413.079.432.116.028.196-.051.24-.238l.139-.77c.058-.322.143-.715.252-1.176.037-.157.124-.448.246-.876.127-.426.205-.694.229-.801.595-2.485-.033-3.948-1.881-4.391-1.352-.321-2.41.271-3.172 1.781C2.632 1.826 1.841.44 0 0m-.342 1.75c1.865.444 2.558 1.666 2.083 3.658l-.033.133c-.08.345-.158.552-.23.623-.075.071-.233.077-.48.018l-3.4-.812c-.568-.135-.95-.362-1.141-.678-.193-.317-.22-.769-.08-1.359.164-.677.538-1.16 1.128-1.451.59-.29 1.307-.334 2.153-.132m5.367 2.167c1.687.403 2.357 1.328 2.013 2.772-.093.394-.187.632-.282.712-.093.082-.282.09-.57.021l-3.788-.905c-.193-.047-.321-.09-.381-.131-.065-.041-.065-.19-.003-.445.216-.914.564-1.531 1.038-1.848.471-.318 1.131-.377 1.973-.176" style="fill:#fff;fill-opacity:1;fill-rule:nonzero;stroke:none;stroke-width:.367341" transform="matrix(.68856 0 0 -.68856 83.97 207.148)"/></g><g style="stroke-width:.367341"><path d="M0 0c-.184-.054-.503-.14-.964-.26-.459-.117-.72-.186-.775-.204-.217-.066-.358-.085-.419-.056-.067.027-.134.157-.204.389-.068.222-.159.539-.268.948a149.304 149.304 0 0 1-1.273 4.454c-.16.532-.293.933-.396 1.202-.102.269-.191.494-.272.668-.054.174-.017.28.107.32.104.03.214-.074.328-.314.118-.241.228-.411.335-.517.175-.169.365-.25.576-.246.207.008.527.074.947.202l7.674 2.331c.42.128.713.248.879.354.164.108.277.283.328.521.031.136.027.337-.016.604-.046.267-.026.412.054.436.113.035.195-.034.25-.208.048-.206.124-.5.222-.883a30.6 30.6 0 0 1 .401-1.412l1.154-3.558.097-.318c.105-.349.155-.588.151-.715-.005-.128-.103-.222-.298-.28-.07-.022-.22-.058-.455-.115a8.596 8.596 0 0 1-.482-.122 7.14 7.14 0 0 1-.425-.146 11.508 11.508 0 0 1-.45-.182c-.181-.057-.291-.031-.324.075-.024.087.11.201.409.345.296.144.511.282.644.417.316.307.469.682.458 1.121-.008.441-.13 1.044-.362 1.806l-.035.116c-.155.513-.294.809-.409.891-.118.079-.398.053-.839-.082L2.427 6.391c.183-.599.386-1.037.611-1.311.228-.274.552-.454.975-.537.219-.037.508-.03.857.023.348.054.537.038.564-.05.036-.116-.044-.204-.237-.262-.124-.038-.408-.11-.854-.219a22.03 22.03 0 0 1-.989-.261 25.797 25.797 0 0 1-1.208-.392 26.552 26.552 0 0 1-.923-.352c-.206-.061-.325-.039-.357.067-.015.059.087.148.31.268.224.12.411.241.56.36.328.259.519.562.57.91.048.348-.014.806-.186 1.378l-.083.26-2.835-.861c-1.034-.317-1.662-.621-1.884-.922-.264-.355-.254-1.01.037-1.967.209-.686.443-1.19.704-1.513.257-.322.622-.523 1.094-.602C-.6.367-.326.361-.022.389.277.417.441.393.464.315.496.209.342.105 0 0" style="fill:#fff;fill-opacity:1;fill-rule:nonzero;stroke:none;stroke-width:.367341" transform="matrix(.68856 0 0 -.68856 85.522 214.562)"/></g><g style="stroke-width:.367341"><path d="M0 0c-.101-.039-.18.02-.233.171-.026.1-.064.243-.116.433a7.666 7.666 0 0 1-.236.712l-.266.661c-.06.161-.092.286-.096.377 0 .091.045.202.135.333l3.375 4.755a.85.85 0 0 1 .119.838c-.035.094-.082.153-.141.175-.058.022-.156.005-.293-.047L-.717 7.299a6.39 6.39 0 0 1-.813-.361c-.206-.117-.331-.316-.379-.604-.019-.115 0-.311.056-.588.059-.273.032-.432-.079-.475-.125-.048-.215.016-.282.186-.053.24-.137.544-.249.918-.112.373-.222.701-.326.984-.195.523-.355.912-.482 1.173a8.992 8.992 0 0 1-.333.643c-.064.171-.036.278.087.325.099.037.217-.06.349-.292.131-.232.252-.397.366-.495.185-.157.382-.227.591-.208.21.018.524.106.936.261l7.529 2.818c.414.155.697.292.858.411.159.119.258.297.296.54.023.138.005.34-.054.604-.063.263-.052.41.024.439.113.041.2-.022.264-.193l.394-1.159c.173-.463.316-.825.425-1.086.444-1.051.668-1.582.674-1.592.452-1.208.558-2.181.321-2.916-.24-.737-.858-1.29-1.86-1.669-1.691-.63-2.998-.119-3.922 1.54L.586 1.839C.361 1.496.215 1.008.145.377.125.154.078.028 0 0m6.745 6.48c.958.358 1.585.819 1.884 1.381.295.563.282 1.273-.039 2.131-.102.274-.211.443-.331.507-.118.062-.314.043-.577-.057L3.443 8.856c-.19-.071-.306-.14-.353-.204-.044-.066-.041-.174.018-.325.373-1 .837-1.645 1.392-1.939.553-.292 1.301-.262 2.245.092" style="fill:#fff;fill-opacity:1;fill-rule:nonzero;stroke:none;stroke-width:.367341" transform="matrix(.68856 0 0 -.68856 87.014 222.953)"/></g><g style="stroke-width:.367341"><path d="M0 0c-.174-.092-.321-.017-.45.223-.138.337-.333.77-.585 1.296a37.339 37.339 0 0 1-1.611 3.046c-.227.369-.42.672-.588.91-.129.24-.104.405.068.499.143.075.334-.047.574-.366.238-.317.452-.539.637-.663.309-.197.613-.261.92-.194.307.07.753.258 1.336.567l5.178 2.745-3.851 7.263-5.177-2.745c-.598-.317-1.009-.583-1.228-.793-.221-.211-.335-.506-.335-.884-.008-.176.056-.458.192-.849.136-.388.126-.625-.031-.71-.175-.094-.326-.019-.453.224-.14.336-.333.767-.583 1.292-.249.528-.48.993-.694 1.391-.388.736-.697 1.29-.922 1.659-.224.367-.42.671-.586.907-.126.242-.104.407.072.497.139.075.328-.045.57-.362.237-.32.451-.54.638-.665.308-.197.612-.262.918-.193.306.069.753.257 1.334.564l10.62 5.631c.583.309.98.566 1.193.774.211.206.322.491.332.856.008.21-.058.506-.201.885-.138.378-.153.596-.043.657.157.083.3.004.428-.237.126-.276.293-.637.499-1.083.206-.448.472-.979.795-1.591a250.621 250.621 0 0 0 1.489-2.577c.127-.24.12-.398-.019-.472-.096-.051-.255.06-.483.334a5.827 5.827 0 0 1-.515.576c-.279.264-.592.375-.933.338-.344-.033-.822-.216-1.437-.54l-4.716-2.501 3.85-7.263 4.717 2.5c.581.31.977.568 1.189.775.214.206.324.491.334.856-.01.167-.079.45-.211.851-.132.401-.133.637-.01.702.142.074.277-.007.403-.247.112-.25.272-.596.478-1.044.208-.446.479-.991.82-1.633a181.6 181.6 0 0 0 1.485-2.574c.129-.241.113-.404-.044-.488-.109-.058-.285.076-.53.401-.24.324-.446.547-.608.665a1.186 1.186 0 0 1-.908.174c-.331-.063-.761-.236-1.297-.519L1.399 3.234a8.897 8.897 0 0 1-1.128-.688c-.286-.21-.431-.533-.442-.966-.009-.175.058-.462.197-.859C.167.324.155.084 0 0" style="fill:#fff;fill-opacity:1;fill-rule:nonzero;stroke:none;stroke-width:.367341" transform="matrix(.68856 0 0 -.68856 94.506 237.857)"/></g><g style="stroke-width:.367341"><path d="M0 0c-.098-.066-.205-.017-.319.148-.068.103-.207.335-.418.705-.211.369-.406.684-.578.942-.116.167-.299.409-.552.724-.255.315-.442.562-.56.738-.148.217-.17.36-.061.435.079.054.225-.025.437-.235.381-.412.713-.521.998-.328.157.105.288.214.398.326.109.111.247.278.411.502l1.409 1.789-2.154 3.171-1.991-.543c-.398-.114-.712-.249-.947-.408-.365-.247-.515-.551-.454-.914a5.81 5.81 0 0 1 .136-.454c.051-.136.033-.236-.056-.296-.089-.058-.188-.01-.295.15-.01.016-.092.163-.241.441a8.974 8.974 0 0 1-.468.777 5.83 5.83 0 0 1-.379.496c-.14.161-.277.327-.418.501-.141.211-.155.35-.048.427.08.054.189.021.326-.094.244-.21.431-.345.556-.405.202-.099.461-.13.789-.089.331.041.766.131 1.31.266l9.74 2.528c.239.068.386.056.443-.027.055-.084.004-.234-.159-.455L.523 2.476c-.268-.353-.46-.645-.57-.878A1.184 1.184 0 0 1-.161.914c.011-.101.063-.266.156-.49C.089.202.089.06 0 0m1.501 6.167 3.304 4.284-5.271-1.383z" style="fill:#fff;fill-opacity:1;fill-rule:nonzero;stroke:none;stroke-width:.367341" transform="matrix(.68856 0 0 -.68856 99.507 245.268)"/></g><g style="stroke-width:.367341"><path d="M0 0c-.073-.059-.212-.009-.411.151-.2.163-.359.264-.467.306a.897.897 0 0 1-.69-.027C-1.795.332-2.09.137-2.45-.157l-7.432-6.038a1.533 1.533 0 0 0-.349-.236c-.078-.028-.151 0-.222.085a.352.352 0 0 0-.077.241c.004.087.03.229.091.418l3.417 11.485-6.006-4.883c-.389-.315-.654-.582-.797-.8-.141-.221-.196-.484-.156-.793.015-.116.076-.27.18-.465.104-.196.115-.325.031-.393-.098-.084-.218-.041-.349.123-.089.125-.197.285-.329.475-.132.192-.302.414-.506.665l-.825.93c-.155.189-.179.324-.077.408.074.059.207.011.393-.148.192-.157.359-.262.509-.311a.997.997 0 0 1 .718.049c.234.105.548.318.934.633l6.469 5.256c.188.465.214.898.073 1.292-.094.198-.17.344-.221.447-.053.101-.041.183.033.242.094.075.223.004.394-.206.028-.032.104-.152.231-.36.126-.21.257-.396.392-.562l.545-.671a.623.623 0 0 0 .123-.562L-8.442-4.414-2.759.201c.496.405.797.769.9 1.093.104.326.005.671-.291 1.04-.071.086-.06.168.034.243.093.078.192.045.301-.086.051-.064.191-.264.424-.603.234-.338.398-.572.501-.699A7.06 7.06 0 0 1-.414.657C-.28.534-.156.413-.038.302.071.169.084.068 0 0" style="fill:#fff;fill-opacity:1;fill-rule:nonzero;stroke:none;stroke-width:.367341" transform="matrix(.68856 0 0 -.68856 110.896 246.6)"/></g><g style="stroke-width:.367341"><path d="M0 0c-.103-.101-.207-.096-.322.018-.121.164-.26.337-.416.526a9.295 9.295 0 0 1-.424.472c-.495.502-.87.872-1.13 1.113-.26.24-.554.502-.881.786-.157.157-.187.282-.094.373.066.067.232.005.496-.184.261-.192.45-.295.559-.314.109-.018.226.036.355.16.278.275.611 1.558 1.001 3.856l.282 1.635-1.488-.04-1.857-1.829c-.321-.318-.532-.564-.636-.742-.099-.178-.113-.389-.042-.63.029-.115.127-.286.294-.513.164-.228.204-.384.118-.468-.09-.092-.205-.069-.34.067a22.745 22.745 0 0 1-1.322 1.486c-.392.396-.694.69-.911.882-.216.19-.403.346-.556.463-.126.131-.144.241-.053.332.077.075.221.036.439-.124.215-.157.393-.26.534-.303.237-.069.446-.051.629.05.181.102.431.306.744.615L.69 13.315c.315.31.519.55.615.721.097.174.111.378.047.613-.037.138-.133.313-.296.53-.163.217-.215.354-.159.412.086.083.197.055.332-.08l.511-.582c.215-.243.489-.534.823-.874.914-.859 1.398-1.316 1.457-1.374.126-.131.153-.233.076-.309-.051-.049-.173-.01-.367.12a6.358 6.358 0 0 1-.458.285.757.757 0 0 1-.665.041c-.21-.088-.482-.294-.81-.62l-3.438-3.382c3.875.276 6.117.713 6.726 1.311.262.257.274.54.043.845-.232.304-.31.5-.225.581.076.075.182.045.315-.092.078-.079.218-.236.42-.476a9.923 9.923 0 0 1 .982-1.021c.164-.152.345-.308.54-.472.134-.138.156-.25.063-.343-.052-.048-.173-.008-.368.131a1.284 1.284 0 0 1-.702.219c-.194.01-.99-.116-2.386-.372a73.77 73.77 0 0 0-2.752-.459L-.048 2.841c-.096-.548-.153-.91-.178-1.091-.075-.584-.06-.999.049-1.244.091-.14.156-.245.199-.316C.067.119.06.058 0 0" style="fill:#fff;fill-opacity:1;fill-rule:nonzero;stroke:none;stroke-width:.367341" transform="matrix(.68856 0 0 -.68856 110.846 258.008)"/></g><g style="stroke-width:.367341"><path d="M0 0c-.047-.054-.173-.026-.376.085A6.771 6.771 0 0 1-.939.36C-1.11.435-1.3.412-1.511.296c-.212-.119-.464-.35-.754-.693l-3.301-3.926C-6.768-5.747-7.863-6.564-8.854-6.77c-.991-.205-2.068.182-3.233 1.163-1.97 1.657-2.134 3.456-.498 5.401l4.186 4.973c.26.308.433.566.521.77.087.206.098.396.028.568-.064.174-.187.36-.372.557-.18.202-.246.336-.193.399.076.09.188.073.336-.05l.561-.532c.238-.224.537-.486.898-.792.99-.77 1.516-1.182 1.578-1.234.131-.109.162-.205.092-.287-.041-.056-.17-.025-.378.088a4.486 4.486 0 0 1-.465.227c-.243.093-.462.084-.666-.023-.203-.108-.454-.339-.75-.693l-4.028-4.786c-.76-.898-1.15-1.7-1.17-2.406-.02-.705.344-1.37 1.082-1.994.866-.727 1.714-1.006 2.542-.836.829.174 1.698.793 2.599 1.867l3.593 4.265c.26.309.433.569.52.772a.752.752 0 0 1 .033.57 1.91 1.91 0 0 1-.375.56c-.182.2-.25.331-.193.393.075.092.187.075.335-.049.053-.043.2-.185.442-.418.24-.235.458-.431.652-.597A14.574 14.574 0 0 1-.107.3C.033.182.064.083 0 0" style="fill:#fff;fill-opacity:1;fill-rule:nonzero;stroke:none;stroke-width:.367341" transform="matrix(.68856 0 0 -.68856 122.38 257.31)"/></g><g style="stroke-width:.367341"><path d="M0 0c-.081-.118-.188-.131-.322-.041A10.294 10.294 0 0 1-1.33.787c-.582.4-1.024.694-1.325.877-.298.185-.639.386-1.017.601-.184.125-.236.241-.165.347.055.079.231.049.524-.088.293-.14.498-.206.609-.202.112.002.219.075.318.223.223.322.309 1.647.258 3.976l-.033 1.664-1.451-.327-1.478-2.15c-.258-.371-.417-.656-.482-.847-.066-.195-.041-.405.073-.628.053-.107.179-.256.388-.449.202-.19.273-.335.205-.434-.074-.108-.19-.108-.349.002-.183.16-.429.362-.737.601-.31.239-.587.445-.838.617-.459.315-.813.544-1.066.691-.249.145-.459.26-.638.343-.148.103-.185.209-.112.317.06.09.21.075.452-.041.241-.113.436-.181.587-.195.238-.021.442.034.6.167.164.137.368.386.617.748l4.551 6.62c.251.365.405.639.467.828.063.188.042.392-.068.611-.061.126-.19.283-.39.463-.202.182-.279.306-.233.376.068.098.181.093.34-.016.151-.119.357-.278.612-.476.257-.196.583-.43.973-.7a239.947 239.947 0 0 0 1.692-1.077c.151-.104.195-.2.134-.288-.042-.058-.167-.043-.382.045a5.797 5.797 0 0 1-.503.195c-.247.069-.466.041-.658-.088-.192-.126-.419-.381-.683-.763l-2.736-3.982C.479 9.36 2.597 10.22 3.082 10.923c.208.305.17.582-.116.836-.284.256-.395.429-.329.53.06.088.172.078.329-.032.091-.063.258-.193.502-.388s.445-.348.601-.456c.172-.119.36-.239.551-.356.192-.119.4-.241.619-.361.157-.109.2-.219.127-.325-.041-.061-.169-.042-.384.057a1.274 1.274 0 0 1-.733.082c-.191-.029-.95-.303-2.275-.82a66.293 66.293 0 0 0-2.619-.975l.06-5.932c.008-.553.02-.922.031-1.104.034-.587.131-.992.284-1.214.113-.122.197-.212.256-.272C.042.133.046.068 0 0" style="fill:#fff;fill-opacity:1;fill-rule:nonzero;stroke:none;stroke-width:.367341" transform="matrix(.68856 0 0 -.68856 124.469 268.48)"/></g><g style="stroke-width:.367341"><path d="M0 0c-.046-.097-.237-.105-.576-.028-.337.075-.645.133-.916.17-.275.038-.539-.071-.797-.324-.258-.255-.528-.691-.81-1.306l-3.213-6.995c-1.167-2.541-2.426-4.161-3.778-4.853-1.352-.693-3.066-.562-5.145.391-3.513 1.612-4.472 4.151-2.882 7.616l4.069 8.867c.252.549.401.993.447 1.323.044.332-.016.611-.18.834-.166.223-.417.442-.758.657-.343.214-.487.381-.437.493.076.163.243.182.504.061l1.025-.542c.426-.225.965-.487 1.612-.782a586.324 586.324 0 0 0 2.767-1.154c.233-.107.316-.234.25-.38-.045-.096-.242-.105-.587-.024a6.3 6.3 0 0 1-.757.14c-.382.041-.696-.06-.949-.3-.249-.238-.518-.672-.807-1.304l-3.915-8.521c-.735-1.604-.977-2.919-.721-3.946.252-1.027 1.039-1.844 2.361-2.451 1.541-.707 2.877-.772 4.008-.195 1.133.579 2.137 1.822 3.014 3.733l3.488 7.6c.253.551.402.992.445 1.325.047.332-.014.609-.179.832-.164.222-.417.442-.759.658-.345.215-.487.38-.433.492.074.162.242.184.502.063.095-.045.364-.186.803-.426A15.92 15.92 0 0 1-1.242.748C-.94.627-.617.508-.271.39-.024.274.069.146 0 0" style="fill:#fff;fill-opacity:1;fill-rule:nonzero;stroke:none;stroke-width:.367341" transform="matrix(.68856 0 0 -.68856 144.075 264.651)"/></g><g style="stroke-width:.367341"><path d="M0 0c-.031-.09-.176-.116-.432-.08-.253.039-.439.045-.554.025A.908.908 0 0 1-1.57-.43c-.147-.201-.298-.518-.459-.954l-3.315-8.978c-.07-.191-.129-.317-.181-.382-.049-.064-.128-.077-.233-.036a.328.328 0 0 0-.189.163 1.807 1.807 0 0 0-.132.407L-9.002 1.424l-2.685-7.267c-.174-.468-.263-.833-.276-1.094-.013-.262.079-.515.269-.761.073-.093.206-.196.392-.309.192-.114.269-.221.23-.322-.047-.122-.167-.149-.365-.073-.14.064-.313.144-.526.24-.212.097-.47.202-.77.315l-1.184.378c-.227.083-.318.189-.273.311.033.09.173.115.416.075a1.7 1.7 0 0 1 .596-.011c.243.06.443.198.592.407.148.213.309.554.481 1.021l2.884 7.814c-.074.498-.271.881-.591 1.15-.18.118-.317.207-.416.27-.096.059-.126.134-.092.223.04.111.188.12.443.028.037-.015.165-.078.381-.189.217-.111.424-.204.62-.276l.809-.299a.607.607 0 0 0 .388-.433l2.669-10.73 2.54 6.875c.223.602.296 1.069.22 1.402-.078.332-.338.581-.783.744-.104.041-.136.114-.096.223.042.112.143.137.305.078.077-.028.299-.125.675-.297.37-.169.632-.28.784-.336.274-.102.502-.174.68-.219l.498-.125C-.021.18.039.099 0 0" style="fill:#fff;fill-opacity:1;fill-rule:nonzero;stroke:none;stroke-width:.367341" transform="matrix(.68856 0 0 -.68856 149.637 270.912)"/></g><g style="stroke-width:.367341"><path d="M0 0c-.038-.124-.15-.159-.331-.101-.244.097-.565.215-.959.354-.397.137-.741.253-1.039.346-.547.169-.973.293-1.27.368-.297.077-.552.137-.759.178-.194.063-.271.152-.229.277.03.102.191.129.482.083.291-.047.513-.057.668-.031.24.05.426.171.562.358.139.186.268.474.386.857l2.371 7.647c.12.384.179.688.181.913 0 .224-.065.401-.192.534-.126.131-.337.262-.631.391-.291.127-.425.232-.398.31.012.046.069.071.174.076.101.006.2-.005.296-.037l.723-.271c.302-.11.68-.239 1.132-.376 1.206-.326 1.848-.5 1.927-.524.258-.081.373-.172.34-.274-.022-.067-.164-.081-.431-.042a4.18 4.18 0 0 1-.699.048c-.198-.006-.368-.098-.513-.278-.145-.181-.285-.487-.426-.931L-1.002 2.23c-.13-.42-.191-.737-.185-.949.008-.213.101-.41.278-.591.118-.122.308-.239.571-.353C-.079.228.035.114 0 0" style="fill:#fff;fill-opacity:1;fill-rule:nonzero;stroke:none;stroke-width:.367341" transform="matrix(.68856 0 0 -.68856 151.595 279.884)"/></g><g style="stroke-width:.367341"><path d="M0 0c-.026-.093-.121-.131-.289-.113a1.814 1.814 0 0 1-.396.009c-.413-.068-.994-.673-1.74-1.816l-4.324-6.641c-.804-1.236-1.309-1.829-1.515-1.778-.134.035-.22.298-.248.792l-.602 9.34a40.57 40.57 0 0 1-.084 1.216c-.052.577-.2.94-.444 1.085a5.737 5.737 0 0 1-.456.226c-.214.104-.309.207-.282.311.029.115.134.149.31.107.143-.05.354-.12.631-.217a14.86 14.86 0 0 1 1.078-.309 25.868 25.868 0 0 1 1.312-.306c.297-.056.553-.1.763-.129.149-.037.206-.11.181-.213-.025-.092-.084-.135-.189-.127a14.22 14.22 0 0 0-.382.033c-.466.045-.751-.125-.846-.506-.061-.242-.062-.933-.003-2.065l.358-7.257 2.511 3.813c1.447 2.212 2.234 3.562 2.36 4.061.107.425.019.711-.267.859l-.556.268c-.12.055-.172.117-.154.189.029.115.127.149.294.108.066-.019.266-.083.604-.198.335-.116.6-.2.795-.249a8.22 8.22 0 0 1 .734-.16l.624-.094C-.045.196.028.115 0 0" style="fill:#fff;fill-opacity:1;fill-rule:nonzero;stroke:none;stroke-width:.367341" transform="matrix(.68856 0 0 -.68856 162.105 274.402)"/></g><g style="stroke-width:.367341"><path d="M0 0a27.938 27.938 0 0 0-.212-.976L-.39-1.76c-.038-.222-.089-.357-.141-.399-.056-.045-.204-.045-.44-.002-.229.042-.55.109-.965.198-1.637.354-3.154.662-4.541.919-.545.101-.961.169-1.25.201-.286.035-.524.055-.719.067-.178.032-.254.113-.232.242.021.103.164.152.427.148.264-.009.469.012.608.058.231.079.392.212.48.401.094.189.179.5.26.931l1.46 7.889c.08.433.11.743.089.943-.019.197-.123.373-.309.528-.107.094-.286.179-.539.263-.258.084-.379.167-.362.249.02.117.119.159.296.127.207-.049.503-.123.885-.211.387-.09.865-.186 1.443-.293l3.691-.609.326-.062c.358-.065.592-.131.703-.193.114-.065.15-.194.114-.395a18.235 18.235 0 0 0-.108-.452 13.93 13.93 0 0 1-.114-.489 7.58 7.58 0 0 1-.11-.929C.528 7.183.456 7.1.346 7.119c-.089.017-.129.191-.12.521.01.328-.014.586-.074.766a1.45 1.45 0 0 1-.782.924c-.395.193-.988.362-1.771.508l-.12.024c-.527.096-.853.112-.979.046-.125-.067-.229-.331-.313-.784l-.746-4.027c.617-.114 1.099-.134 1.448-.058.347.075.654.281.923.618.135.18.26.437.373.775.113.333.215.494.304.477.121-.021.161-.131.126-.33a24.488 24.488 0 0 0-.2-.86 19.873 19.873 0 0 1-.222-1.001 33.669 33.669 0 0 1-.213-1.255c-.037-.29-.073-.618-.111-.986-.038-.21-.113-.304-.223-.286-.059.013-.089.144-.091.399a4.3 4.3 0 0 1-.065.665c-.078.414-.26.72-.546.927-.287.203-.722.36-1.306.467l-.272.049-.539-2.918C-5.369.714-5.385.013-5.221-.319c.193-.399.782-.689 1.763-.873.706-.129 1.262-.155 1.666-.071.407.081.752.313 1.038.697.15.202.282.443.398.725.112.278.209.414.288.399C.041.536.063.352 0 0" style="fill:#fff;fill-opacity:1;fill-rule:nonzero;stroke:none;stroke-width:.367341" transform="matrix(.68856 0 0 -.68856 167.493 282.069)"/></g><g style="stroke-width:.367341"><path d="M0 0c-.01-.105-.096-.15-.255-.131l-.441.094a8.16 8.16 0 0 1-.742.115l-.708.066a1.119 1.119 0 0 0-.376.088c-.082.038-.164.129-.237.268l-2.689 5.174c-.15.292-.379.455-.692.491-.098.011-.173-.004-.216-.047-.047-.041-.08-.141-.096-.296l-.365-3.133a6.155 6.155 0 0 1-.049-.885c.008-.238.129-.441.365-.613.092-.07.274-.142.545-.215.27-.075.4-.172.387-.29-.017-.13-.117-.186-.293-.165-.24.062-.549.127-.932.195-.382.072-.726.123-1.026.159-.554.064-.974.101-1.261.109A8.874 8.874 0 0 1-9.806.98c-.183.021-.264.097-.251.228.015.107.153.165.418.175.267.013.467.043.608.101.225.094.376.238.454.431.08.198.141.512.194.95l.93 7.986c.05.439.058.755.028.95-.037.197-.152.366-.347.508-.112.086-.298.161-.561.227-.261.067-.387.141-.379.225.014.116.108.167.291.144l1.215-.176c.493-.056.877-.097 1.162-.118l1.724-.122c1.282-.15 2.198-.498 2.743-1.047.549-.546.758-1.352.637-2.415-.21-1.794-1.262-2.722-3.162-2.789l2.748-4.872c.201-.36.563-.713 1.086-1.063C-.077.184.013.085 0 0m-2.679 8.955c.116 1.015-.007 1.78-.373 2.3-.365.522-1.003.835-1.913.943-.289.031-.489.01-.601-.068-.112-.075-.181-.254-.217-.54l-.521-4.494c-.025-.2-.016-.332.022-.401.035-.071.136-.116.297-.133 1.06-.125 1.847-.007 2.363.352.512.358.825 1.038.943 2.041" style="fill:#fff;fill-opacity:1;fill-rule:nonzero;stroke:none;stroke-width:.367341" transform="matrix(.68856 0 0 -.68856 175.625 284.574)"/></g><g style="stroke-width:.367341"><path d="M0 0c-.051-1.021-.435-1.853-1.142-2.496-.709-.644-1.591-.937-2.65-.886a3.594 3.594 0 0 0-1.437.358c-.384.247-.759.494-1.132.738-.071.004-.151-.084-.242-.259-.087-.174-.162-.262-.222-.26-.103.007-.148.092-.14.257.028.2.058.429.088.684.024.256.045.47.052.649.017.321.026.604.028.846.001.245.004.484.006.722.01.239.073.355.183.348.112-.004.18-.12.212-.349.073-.525.12-.82.136-.88.187-.735.496-1.308.932-1.722a2.36 2.36 0 0 1 1.559-.667c.685-.031 1.236.155 1.65.563.414.407.639.991.674 1.751.031.569-.072 1.049-.307 1.441-.231.392-.582.742-1.053 1.051-.126.09-.641.382-1.548.88-1.334.754-1.964 1.874-1.893 3.357.047.914.366 1.66.959 2.237.596.576 1.325.845 2.191.8a2.947 2.947 0 0 0 1.182-.292c.324-.208.653-.412.987-.609.088-.004.176.104.256.32.082.218.164.324.243.319.132-.007.192-.142.179-.401a15.029 15.029 0 0 0-.052-.605 13.984 13.984 0 0 1-.05-.567l-.01-1.09a2.523 2.523 0 0 0-.041-.407c-.02-.061-.07-.086-.149-.082-.113.005-.195.146-.244.422a6.419 6.419 0 0 1-.17.706c-.192.58-.463 1.026-.813 1.345-.347.314-.772.484-1.277.508-.591.029-1.068-.133-1.424-.492-.355-.356-.546-.831-.578-1.426-.028-.602.155-1.106.549-1.507.22-.225.768-.59 1.641-1.098 1.049-.622 1.781-1.211 2.198-1.767C-.178 1.773.046.958 0 0" style="fill:#fff;fill-opacity:1;fill-rule:nonzero;stroke:none;stroke-width:.367341" transform="matrix(.68856 0 0 -.68856 181.442 282.687)"/></g><g style="stroke-width:.367341"><path d="M0 0c0-.131-.096-.197-.287-.197-.261.024-.603.045-1.025.062a24.093 24.093 0 0 1-2.422-.017 11.549 11.549 0 0 1-.778-.076c-.205-.001-.303.063-.305.194-.002.11.144.182.438.225.291.045.509.103.651.174a.912.912 0 0 1 .427.513c.073.22.112.531.107.936l-.054 8.022c-.004.403-.037.712-.106.927-.066.213-.18.364-.345.45-.161.09-.402.15-.718.184-.321.033-.479.09-.479.174 0 .05.045.091.141.127a.843.843 0 0 0 .296.055c.192-.011.45-.024.771-.038.327-.017.724-.025 1.198-.02 1.253.056 1.921.086 2 .086.273 0 .409-.052.409-.158 0-.072-.132-.129-.399-.171a3.967 3.967 0 0 1-.685-.168c-.188-.067-.321-.204-.406-.42-.085-.215-.124-.553-.124-1.017l.058-8.022c.003-.439.041-.761.113-.963.071-.201.219-.36.442-.478C-.93.303-.71.247-.425.219-.144.191 0 .118 0 0" style="fill:#fff;fill-opacity:1;fill-rule:nonzero;stroke:none;stroke-width:.367341" transform="matrix(.68856 0 0 -.68856 186.29 284.796)"/></g><g style="stroke-width:.367341"><path d="M0 0c.018-.202-.017-.305-.094-.312-.062-.003-.135.186-.221.565-.083.378-.199.678-.35.892-.203.305-.505.48-.904.527-.398.046-1.048.037-1.957-.034l-.257-.019c-.31-.022-.531-.054-.66-.094-.129-.039-.182-.213-.16-.522l.683-8.955c.03-.426.091-.743.179-.953a.746.746 0 0 1 .418-.431 2.03 2.03 0 0 1 .725-.133c.288-.009.439-.071.447-.189.009-.131-.085-.206-.288-.218-.169 0-.465-.005-.885-.009a19.872 19.872 0 0 1-1.238-.054 20.327 20.327 0 0 1-1.366-.136c-.302-.04-.555-.085-.757-.126-.191-.015-.293.043-.3.174-.009.107.131.194.422.257.288.062.5.133.634.217a.841.841 0 0 1 .394.521c.057.225.071.544.042.961L-6.174.885c-.018.237-.088.382-.209.438-.12.057-.353.073-.693.047l-.604-.047c-.764-.056-1.318-.141-1.664-.25a1.231 1.231 0 0 1-.759-.647c-.113-.234-.176-.544-.193-.932-.014-.388-.057-.583-.128-.589-.091-.005-.145.09-.159.293l-.153 2.007c-.02.273.115.42.408.441.555.005 1.234.026 2.035.063.805.037 1.749.097 2.835.18 3.062.318 4.681.483 4.854.498.282.019.433-.106.453-.38z" style="fill:#fff;fill-opacity:1;fill-rule:nonzero;stroke:none;stroke-width:.367341" transform="matrix(.68856 0 0 -.68856 194.377 277.759)"/></g><g style="stroke-width:.367341"><path d="M0 0c.011-.071-.053-.141-.195-.214a1.87 1.87 0 0 1-.854-.882c-.021-.053-.339-1.065-.956-3.038a81.673 81.673 0 0 0-1.171-3.489l.463-2.805c.058-.351.123-.638.196-.862.075-.223.246-.386.52-.485.107-.042.305-.061.585-.058.281.006.432-.05.45-.168.021-.129-.059-.209-.237-.238a23.271 23.271 0 0 1-1.974-.226 20.538 20.538 0 0 1-1.239-.235 8.776 8.776 0 0 1-.701-.19c-.19-.029-.295.018-.317.149-.016.107.101.201.359.287.256.084.444.171.563.264a.802.802 0 0 1 .318.54c.018.208-.006.53-.077.965l-.442 2.678-3.495 5.073c-.188.275-.331.473-.421.59-.231.29-.443.44-.633.445-.189.005-.356.007-.5.007-.104.02-.167.084-.185.192-.02.131.079.212.297.248.079.013.293.041.646.08.351.041.598.074.751.097.355.06.706.124 1.048.192.34.069.693.138 1.059.21.24.041.371-.004.391-.133.016-.094-.033-.156-.145-.186-.112-.03-.225-.062-.343-.092-.4-.165-.573-.421-.513-.774.015-.094.065-.236.153-.425.091-.192.21-.401.36-.63l2.753-4.222c.297.933.596 1.865.905 2.802.255.806.441 1.47.567 2.001.12.53.16.923.118 1.183-.065.389-.208.593-.433.61-.225.016-.402.032-.54.047-.137.013-.211.062-.222.144-.022.117.069.195.269.226.019.005.18.018.484.046.303.026.594.06.873.107.78.178 1.196.27 1.246.277C-.09.131-.019.095 0 0" style="fill:#fff;fill-opacity:1;fill-rule:nonzero;stroke:none;stroke-width:.367341" transform="matrix(.68856 0 0 -.68856 201.352 275.069)"/></g><g style="stroke-width:.367341"><path d="M0 0c.258-.827.369-1.65.34-2.469A5.794 5.794 0 0 0-.176-4.71a5.428 5.428 0 0 0-1.332-1.784c-.577-.514-1.205-.88-1.888-1.089-1.498-.466-2.914-.309-4.252.469-1.399.819-2.361 2.089-2.893 3.8-.502 1.611-.437 3.154.195 4.632.677 1.555 1.78 2.568 3.301 3.043a5.04 5.04 0 0 0 2.319.16 5.467 5.467 0 0 0 2.216-.878C-1.344 2.849-.508 1.633 0 0m-1.752-.526c-.543 1.747-1.289 3.019-2.233 3.814-.943.796-1.945 1.028-3.005.699-1.04-.324-1.731-1.09-2.076-2.296-.343-1.207-.247-2.664.28-4.366.53-1.7 1.28-2.968 2.251-3.798.971-.83 1.973-1.086 3.003-.766 1.039.322 1.724 1.071 2.056 2.246.354 1.242.261 2.73-.276 4.467" style="fill:#fff;fill-opacity:1;fill-rule:nonzero;stroke:none;stroke-width:.367341" transform="matrix(.68856 0 0 -.68856 213.205 275.905)"/></g><g style="stroke-width:.367341"><path d="M0 0c.068-.165.06-.264-.024-.298-.075-.033-.209.073-.402.315a3.206 3.206 0 0 1-.576.574c-.342.245-.756.346-1.236.307C-2.718.86-3.322.688-4.05.386c-.605-.254-.929-.446-.971-.579-.042-.133.086-.568.394-1.304l1.447-3.47c.54.226.942.443 1.204.648.267.209.438.467.515.784.073.314.067.668-.024 1.054-.091.387-.098.598-.023.627.101.044.205-.061.313-.315l.452-1.164c.197-.471.378-.896.544-1.271.169-.373.339-.745.514-1.111.091-.219.089-.347-.003-.385-.077-.033-.159.016-.244.149-.326.456-.553.734-.693.829-.277.194-.557.289-.834.282-.277-.007-.628-.099-1.05-.274l-.519-.215 1.463-3.506c.135-.331.264-.593.388-.793.122-.202.343-.311.66-.333.175-.019.402.016.681.099.281.085.444.073.488-.036.052-.121-.013-.219-.189-.292a35.35 35.35 0 0 1-2.001-.75 27.665 27.665 0 0 1-1.16-.508 16.147 16.147 0 0 1-.644-.329c-.168-.071-.277-.045-.327.075-.041.099.053.219.275.358.226.137.385.264.479.382.143.186.2.391.178.611-.022.226-.114.525-.272.91L-6.09-2.052c-.154.37-.306.642-.447.815a.737.737 0 0 1-.485.29 1.96 1.96 0 0 1-.666-.075c-.261-.072-.406-.068-.437.01-.047.109.019.2.197.274l.818.3c.356.129.792.305 1.315.523 2.631 1.141 4.034 1.75 4.212 1.821.314.133.511.15.585.054.074-.099.143-.225.206-.379l.117-.278C-.253.5-.027.066 0 0" style="fill:#fff;fill-opacity:1;fill-rule:nonzero;stroke:none;stroke-width:.367341" transform="matrix(.68856 0 0 -.68856 218.403 271.042)"/></g><g style="stroke-width:.367341"><path d="M0 0c.137-.23.146-.379.029-.449-.104-.061-.326.067-.663.385a4.644 4.644 0 0 1-.969.731c-.558.291-1.192.358-1.896.201C-4.207.71-5.068.332-6.085-.266c-.852-.5-1.288-.854-1.327-1.06-.036-.207.248-.825.855-1.852L-3.7-8.035c.755.444 1.308.849 1.657 1.208.351.362.551.783.601 1.266.048.483-.034 1.004-.249 1.56-.212.557-.264.866-.162.925.144.085.32-.048.528-.402l.911-1.634c.386-.663.745-1.252 1.069-1.776.326-.521.653-1.036.988-1.544.18-.306.205-.498.074-.577-.105-.059-.238-.001-.393.174-.573.613-.973.981-1.201 1.096-.453.227-.886.311-1.297.245-.411-.067-.91-.273-1.503-.62l-.723-.428 2.895-4.922c.272-.463.521-.83.743-1.105.22-.272.571-.394 1.05-.362.26.009.589.103.984.285.398.183.642.195.733.041.099-.169.024-.326-.222-.472-.356-.17-.817-.405-1.377-.703a39.658 39.658 0 0 1-1.447-.806 34.03 34.03 0 0 1-1.615-.996c-.358-.242-.654-.45-.884-.627-.235-.138-.399-.123-.501.046-.08.137.033.332.34.585.309.256.516.476.635.67.17.306.217.624.138.95-.077.326-.274.759-.593 1.295L-8.616-4.299c-.307.521-.587.896-.832 1.121-.249.227-.512.336-.786.33-.278-.008-.602-.09-.973-.248-.375-.157-.593-.182-.656-.075-.09.154-.012.304.236.448.272.139.655.341 1.16.606a48.85 48.85 0 0 1 1.849 1.045C-4.947 1.169-2.99 2.36-2.739 2.509c.443.259.728.326.859.195.13-.131.258-.303.386-.517l.225-.392C-.476.69-.053.092 0 0" style="fill:#fff;fill-opacity:1;fill-rule:nonzero;stroke:none;stroke-width:.367341" transform="matrix(.68856 0 0 -.68856 227.55 262.23)"/></g><g style="stroke-width:.367341"><path d="M0 0a7.276 7.276 0 0 0 1.11-2.23 5.76 5.76 0 0 0 .225-2.29 5.453 5.453 0 0 0-.69-2.116A5.07 5.07 0 0 0-.797-8.271c-1.267-.917-2.659-1.221-4.181-.913-1.584.332-2.903 1.227-3.955 2.679-.988 1.368-1.42 2.849-1.295 4.451.148 1.689.869 3.002 2.158 3.937.638.461 1.354.76 2.149.892a5.428 5.428 0 0 0 2.381-.124C-2.185 2.27-1.001 1.388 0 0m-1.489-1.055C-2.562.429-3.672 1.396-4.82 1.846c-1.15.452-2.175.353-3.074-.297-.883-.64-1.294-1.587-1.235-2.84.061-1.254.61-2.603 1.659-4.048 1.042-1.443 2.158-2.404 3.343-2.88 1.188-.476 2.216-.399 3.091.236C-.152-7.344.261-6.416.2-5.197c-.06 1.29-.626 2.671-1.689 4.142" style="fill:#fff;fill-opacity:1;fill-rule:nonzero;stroke:none;stroke-width:.367341" transform="matrix(.68856 0 0 -.68856 236.65 262.725)"/></g><g style="stroke-width:.367341"><path d="M0 0c.069-.081.041-.176-.082-.278a9.188 9.188 0 0 1-.964-.709l-.537-.471a1.23 1.23 0 0 0-.323-.214c-.085-.032-.203-.028-.361.015L-7.876-.053a.85.85 0 0 1-.831-.163c-.079-.065-.118-.126-.118-.192 0-.062.05-.153.151-.272l2.022-2.423c.229-.275.431-.488.608-.647.179-.157.409-.208.693-.157.116.019.294.101.534.247.24.146.396.174.473.079.088-.101.058-.208-.083-.326a12.694 12.694 0 0 1-.781-.536c-.313-.229-.587-.44-.817-.635-.425-.353-.74-.632-.944-.838a9.914 9.914 0 0 1-.496-.525c-.138-.119-.25-.124-.333-.025-.07.083-.016.225.161.426.172.197.284.366.339.506.089.227.089.437 0 .629-.084.19-.27.453-.555.793l-5.153 6.171c-.281.338-.507.564-.67.673-.167.112-.367.146-.605.101-.141-.021-.323-.108-.552-.251-.229-.141-.366-.182-.422-.117-.077.09-.044.195.096.31l.963.759c.381.316.675.57.883.761.844.772 1.269 1.161 1.277 1.165.99.828 1.874 1.252 2.647 1.271.773.017 1.505-.383 2.191-1.202 1.157-1.388 1.107-2.794-.153-4.217l5.424-1.359c.401-.103.908-.084 1.523.06C-.187.069-.053.064 0 0m-8.341 4.22c-.653.785-1.298 1.223-1.93 1.315-.627.093-1.295-.157-2.002-.746-.226-.186-.349-.347-.371-.483-.02-.133.063-.308.244-.527L-9.494.301c.129-.155.23-.242.307-.262.074-.021.179.022.3.124.823.689 1.283 1.341 1.376 1.964.096.618-.184 1.318-.83 2.093" style="fill:#fff;fill-opacity:1;fill-rule:nonzero;stroke:none;stroke-width:.367341" transform="matrix(.68856 0 0 -.68856 245.59 260.605)"/></g><g style="stroke-width:.367341"><path d="M0 0c.135-.136.358-.377.681-.729.321-.354.499-.549.541-.592.16-.161.24-.277.245-.345.006-.071-.076-.191-.251-.36a51.869 51.869 0 0 0-.709-.681A191.88 191.88 0 0 1-2.835-5.92a30.067 30.067 0 0 1-.883-.904 12.788 12.788 0 0 1-.471-.547c-.129-.126-.242-.143-.334-.05-.075.076-.035.22.127.435.155.215.258.392.3.536.067.234.049.442-.052.623-.102.183-.311.43-.619.743L-10.394.613c-.308.313-.549.517-.722.614-.173.094-.376.111-.612.044-.134-.034-.309-.13-.526-.295-.217-.162-.351-.215-.413-.155-.083.084-.059.192.07.317.159.141.382.346.675.613.29.265.645.603 1.059 1.016l2.618 2.671.238.234c.259.255.445.411.56.467.115.054.244.011.385-.133.052-.051.158-.167.314-.347.156-.181.269-.304.335-.373a7.57 7.57 0 0 1 .696-.617c.137-.138.163-.245.085-.323-.066-.063-.23.002-.497.2-.267.197-.487.324-.671.377-.42.138-.823.099-1.207-.113-.387-.215-.864-.601-1.431-1.162l-.085-.087c-.381-.374-.581-.635-.598-.776-.014-.141.14-.377.466-.708l2.884-2.92c.449.441.739.826.877 1.154.138.325.147.697.021 1.109-.068.214-.209.465-.42.748-.209.285-.282.458-.217.524.085.085.198.058.341-.087.093-.094.29-.313.595-.654.302-.343.535-.596.69-.755.394-.398.697-.695.912-.892.216-.195.462-.411.743-.652.15-.152.186-.27.108-.347-.043-.042-.172.006-.383.15a4.111 4.111 0 0 1-.582.33c-.383.172-.74.2-1.071.079-.332-.115-.71-.383-1.133-.803l-.194-.193 2.08-2.106c.762-.77 1.325-1.181 1.695-1.24.437-.068 1.01.249 1.722.95.509.506.847.948 1.009 1.328.166.379.171.798.021 1.254a3.241 3.241 0 0 1-.371.74C-.494.049-.551.206-.49.263-.414.341-.249.253 0 0" style="fill:#fff;fill-opacity:1;fill-rule:nonzero;stroke:none;stroke-width:.367341" transform="matrix(.68856 0 0 -.68856 249.406 254.716)"/></g><g style="stroke-width:.367341"><path d="M0 0c.099-.086.084-.202-.046-.345a26.824 26.824 0 0 1-.725-.718 25.339 25.339 0 0 1-.753-.798 31.293 31.293 0 0 1-.867-1 18.24 18.24 0 0 1-.474-.619c-.134-.151-.249-.183-.348-.095-.08.071-.036.23.129.476.164.245.267.444.31.596a.929.929 0 0 1-.09.661c-.115.203-.32.44-.621.709l-5.961 5.362c-.298.268-.549.45-.753.544-.204.094-.391.112-.567.051-.172-.059-.38-.197-.619-.409-.238-.215-.389-.291-.45-.236-.036.03-.034.095.002.191.039.094.09.18.157.253.138.135.322.317.549.545.228.229.501.519.818.87.802.961 1.23 1.471 1.283 1.531.18.202.312.269.391.198.054-.05.005-.187-.141-.413a4.137 4.137 0 0 1-.337-.613c-.075-.181-.062-.377.04-.585.101-.206.323-.465.668-.774L-2.446.023c.326-.293.588-.483.787-.565.198-.083.414-.081.65.006.163.056.35.18.56.369.212.19.362.246.449.167" style="fill:#fff;fill-opacity:1;fill-rule:nonzero;stroke:none;stroke-width:.367341" transform="matrix(.68856 0 0 -.68856 253.722 252.09)"/></g><g style="stroke-width:.367341"><path d="M0 0c.077-.059.072-.19-.005-.385a1.551 1.551 0 0 1-.129-.549c-.005-.17.06-.336.193-.502.133-.165.378-.388.731-.669l.157-.121c.25-.198.449-.35.596-.453.144-.103.335-.227.569-.371a2.805 2.805 0 0 1-.345-.551 2.182 2.182 0 0 1-.173-.53 76.27 76.27 0 0 0-.232-1.632A4.61 4.61 0 0 0 .466-7.66c-.921-1.162-2.132-1.763-3.628-1.799-1.412-.041-2.779.462-4.101 1.509-1.534 1.218-2.473 2.596-2.819 4.14-.343 1.54-.024 2.934.961 4.176.382.482.801.866 1.255 1.151.45.221.899.452 1.345.688.05.065.024.185-.082.357-.104.173-.136.285-.1.332.061.077.182.047.359-.093l.154-.12L-4.197.983c.109-.087.137-.167.085-.237-.049-.057-.162-.038-.35.062a3.647 3.647 0 0 1-.495.218c-1.609.635-2.855.397-3.732-.71-.76-.956-.936-1.997-.534-3.121.404-1.124 1.381-2.302 2.932-3.53 1.404-1.114 2.685-1.733 3.846-1.862 1.16-.131 2.079.227 2.748 1.074.562.71.792 1.38.682 2.006-.11.629-.559 1.254-1.346 1.88-.587.463-1.051.606-1.391.427a3.29 3.29 0 0 1-.375-.292c-.2-.165-.343-.216-.426-.149-.105.079-.082.211.064.392.131.128.296.298.491.51.199.211.422.474.675.789.614.892.948 1.373 1.006 1.443.12.153.225.189.317.117" style="fill:#fff;fill-opacity:1;fill-rule:nonzero;stroke:none;stroke-width:.367341" transform="matrix(.68856 0 0 -.68856 256.913 243.05)"/></g><g style="stroke-width:.367341"><path d="M0 0c.078-.051.069-.197-.024-.438C-.12-.676-.17-.854-.178-.971a.913.913 0 0 1 .227-.653c.164-.186.436-.409.821-.667l7.946-5.334c.169-.112.281-.2.33-.267.051-.062.043-.138-.018-.231a.335.335 0 0 0-.202-.144 1.93 1.93 0 0 0-.429-.029l-11.996-.11 6.437-4.316c.411-.279.745-.453.997-.526.252-.071.518-.045.803.08.105.051.234.154.391.311.153.156.275.203.366.143.108-.073.105-.195-.016-.371-.09-.118-.209-.27-.354-.45a10.815 10.815 0 0 1-.485-.673l-.641-1.056c-.138-.2-.257-.264-.365-.19-.079.054-.072.192.021.42.1.225.146.415.149.573a.98.98 0 0 1-.256.67c-.172.196-.466.43-.88.708l-6.915 4.641c-.499.045-.919-.059-1.259-.307-.157-.147-.277-.264-.357-.341-.083-.079-.161-.095-.243-.041-.099.069-.073.212.081.44.022.032.113.141.27.326.16.184.298.364.413.54l.484.715a.601.601 0 0 0 .508.276l11.058.069-6.08 4.078c-.532.358-.971.538-1.308.542-.342.005-.645-.188-.907-.58-.064-.092-.142-.103-.242-.037-.102.066-.103.169-.008.313.044.067.191.26.441.583.251.322.421.55.512.682.162.242.286.444.371.604.084.16.161.314.236.457C-.184.018-.091.06 0 0" style="fill:#fff;fill-opacity:1;fill-rule:nonzero;stroke:none;stroke-width:.367341" transform="matrix(.68856 0 0 -.68856 257.648 233.407)"/></g><g style="stroke-width:.367341"><path d="M0 0c1.36-.704 2.26-1.739 2.696-3.104.436-1.369.29-2.759-.438-4.169C1.89-7.988 1.43-8.567.875-9.015.304-9.382-.27-9.744-.833-10.098c-.049-.094.018-.257.2-.487.184-.231.255-.387.214-.469-.071-.133-.217-.144-.438-.028-.254.167-.548.348-.878.542-.332.198-.619.356-.854.481-.431.221-.807.41-1.141.563a84.13 84.13 0 0 1-.984.457c-.317.164-.437.32-.361.468.079.149.282.172.609.071.767-.228 1.196-.348 1.291-.363 1.121-.201 2.098-.137 2.933.198a3.544 3.544 0 0 1 1.883 1.713c.471.915.559 1.782.259 2.601-.297.819-.954 1.491-1.967 2.013-.759.393-1.481.551-2.16.479-.679-.075-1.377-.339-2.091-.787-.202-.118-.922-.639-2.163-1.567-1.866-1.356-3.787-1.523-5.762-.5-1.219.629-2.037 1.529-2.454 2.7-.417 1.171-.329 2.335.268 3.491a4.502 4.502 0 0 0 1.138 1.434c.48.313.962.635 1.437.971.06.12-.03.305-.274.552-.248.246-.343.422-.287.529.093.176.311.172.66-.006.141-.075.405-.223.791-.45.385-.225.635-.365.744-.423l1.484-.69c.285-.146.464-.249.53-.312.071-.062.076-.145.02-.255-.076-.146-.317-.171-.728-.068-.409.1-.765.169-1.066.205-.915.099-1.693.007-2.34-.271-.647-.279-1.143-.758-1.493-1.429-.41-.793-.481-1.544-.215-2.252.264-.707.796-1.264 1.585-1.674.806-.419 1.606-.483 2.399-.193.442.162 1.283.682 2.519 1.56C-6.024-.251-4.763.384-3.745.608-2.53.864-1.278.663 0 0" style="fill:#fff;fill-opacity:1;fill-rule:nonzero;stroke:none;stroke-width:.367341" transform="matrix(.68856 0 0 -.68856 267.337 225.617)"/></g><g style="stroke-width:.367341"><path d="M0 0c.187-.079.267-.154.233-.229-.021-.055-.222-.035-.597.062-.375.096-.693.125-.948.09-.369-.043-.659-.231-.881-.566-.222-.334-.51-.919-.86-1.757l-.099-.239c-.119-.289-.193-.5-.215-.63-.025-.136.107-.26.391-.377l8.272-3.451c.394-.165.704-.255.927-.272a.765.765 0 0 1 .576.178c.158.135.305.33.445.584.138.254.262.357.371.312.121-.052.14-.169.063-.356-.076-.154-.203-.42-.383-.798a29.027 29.027 0 0 1-1.01-2.401c-.103-.29-.186-.532-.244-.727-.073-.176-.17-.24-.293-.189-.099.041-.109.202-.033.49.074.285.103.505.092.665a.842.842 0 0 1-.285.585c-.173.154-.452.31-.835.471l-8.271 3.451c-.219.09-.381.094-.484.014-.106-.083-.224-.283-.356-.6l-.234-.558c-.295-.707-.472-1.241-.532-1.598a1.228 1.228 0 0 1 .23-.964c.156-.208.406-.407.743-.596.338-.189.491-.315.463-.382-.032-.083-.144-.086-.331-.011l-1.856.777c-.253.105-.323.293-.209.562.246.499.535 1.115.869 1.844.331.731.705 1.602 1.125 2.606A698.871 698.871 0 0 0-2.396.541c.107.259.289.338.541.234z" style="fill:#fff;fill-opacity:1;fill-rule:nonzero;stroke:none;stroke-width:.367341" transform="matrix(.68856 0 0 -.68856 267.69 216.369)"/></g><g style="stroke-width:.367341"><path d="M0 0c.065-.024.088-.149.063-.38A6.818 6.818 0 0 1 .02-1c-.003-.185.086-.351.274-.503.191-.151.496-.298.927-.437l4.875-1.587c1.769-.578 2.94-1.287 3.501-2.127.563-.843.607-1.988.134-3.436-.797-2.446-2.401-3.276-4.816-2.489l-6.179 2.014c-.383.125-.688.189-.91.192-.225.003-.403-.057-.538-.185-.139-.126-.26-.311-.378-.555-.118-.245-.217-.356-.293-.33-.112.037-.138.149-.08.33.071.179.162.42.278.722.12.301.254.679.4 1.131.344 1.207.527 1.848.553 1.927.054.162.128.226.23.194.065-.023.088-.152.063-.384a4.37 4.37 0 0 1-.037-.513c.005-.256.095-.458.272-.606.176-.147.484-.292.923-.436l5.94-1.934c1.118-.364 2.005-.424 2.664-.178.66.246 1.141.831 1.441 1.751.35 1.072.291 1.961-.176 2.666-.472.704-1.374 1.273-2.704 1.707L1.09-2.34c-.383.125-.687.188-.911.192a.737.737 0 0 1-.537-.185 1.846 1.846 0 0 1-.376-.556c-.119-.245-.217-.354-.296-.328-.114.036-.139.146-.08.328.023.068.091.257.221.565A12.027 12.027 0 0 1-.238-.21c.057.172.135.244.238.21" style="fill:#fff;fill-opacity:1;fill-rule:nonzero;stroke:none;stroke-width:.367341" transform="matrix(.68856 0 0 -.68856 268.882 208.04)"/></g><g style="stroke-width:.367341"><path d="M0 0c3.812-.908 5.295-3.138 4.447-6.694a43.89 43.89 0 0 0-.369-1.422 37.94 37.94 0 0 1-.301-1.112c-.21-1.08-.327-1.661-.344-1.738-.044-.177-.123-.252-.239-.225-.101.025-.143.17-.126.436.023.265.014.47-.024.613a.853.853 0 0 1-.393.507c-.193.113-.498.218-.913.318l-7.842 1.865c-.394.093-.706.134-.932.12a.779.779 0 0 1-.568-.278c-.083-.084-.168-.259-.262-.522-.095-.263-.189-.384-.28-.363-.125.031-.168.139-.123.325.007.029.079.272.214.728a23 23 0 0 1 .325 1.184c.069.285.146.671.233 1.158.088.488.144.784.171.894.422 1.779 1.278 3.036 2.568 3.77C-3.466.301-1.88.446 0 0m-.109-1.862c-2.046.485-3.619.519-4.709.102-1.094-.42-1.81-1.336-2.147-2.748-.099-.423-.115-.711-.041-.868.069-.158.328-.289.765-.393l7.54-1.792c.854-.203 1.492-.223 1.918-.059.422.164.716.584.875 1.262.278 1.166.08 2.104-.595 2.814-.673.709-1.876 1.271-3.606 1.682" style="fill:#fff;fill-opacity:1;fill-rule:nonzero;stroke:none;stroke-width:.367341" transform="matrix(.68856 0 0 -.68856 274.667 201.376)"/></g><g style="stroke-width:.367341"><path d="M0 0c.129-.022.177-.128.146-.318A17.898 17.898 0 0 1-.1-1.312a21.973 21.973 0 0 1-.216-1.075 20.532 20.532 0 0 1-.195-1.311 9.924 9.924 0 0 1-.061-.781c-.036-.199-.117-.287-.247-.265-.105.018-.153.176-.145.472.01.297-.011.52-.057.672a.902.902 0 0 1-.424.514c-.205.113-.507.203-.907.273l-7.903 1.365c-.4.069-.711.089-.933.06-.221-.029-.389-.114-.504-.259-.115-.145-.219-.371-.308-.68-.089-.307-.175-.455-.257-.441-.047.01-.08.063-.1.164a.91.91 0 0 0-.001.299l.174.754c.075.314.149.706.231 1.174.168 1.24.255 1.903.269 1.982.045.268.123.393.228.376.071-.014.102-.154.102-.424-.006-.27.007-.504.04-.697.034-.196.149-.353.342-.474.198-.121.522-.22.98-.299l7.908-1.366c.434-.076.757-.096.965-.06.212.034.394.152.552.349.107.135.2.337.277.612.076.272.174.399.29.378" style="fill:#fff;fill-opacity:1;fill-rule:nonzero;stroke:none;stroke-width:.367341" transform="matrix(.68856 0 0 -.68856 279.335 197.391)"/></g><g style="stroke-width:.367341"><path d="M0 0c.188-.022.518-.07.99-.145.469-.075.733-.114.791-.122.226-.025.361-.065.407-.115.049-.052.058-.198.03-.439-.028-.23-.069-.556-.131-.975a137.05 137.05 0 0 1-.617-4.593 21.145 21.145 0 0 1-.116-1.259c-.01-.29-.013-.53-.008-.724-.019-.18-.097-.264-.225-.248-.106.012-.166.152-.175.416-.013.266-.044.468-.102.606a.786.786 0 0 1-.433.454c-.194.078-.51.142-.944.193l-7.97.92c-.438.051-.755.06-.949.026-.194-.034-.364-.147-.508-.344-.084-.112-.158-.299-.225-.561-.068-.261-.141-.387-.224-.377-.118.012-.167.109-.146.291.034.208.086.507.149.897.062.388.129.873.195 1.455l.358 3.723.04.331c.04.362.09.6.144.717.055.113.184.16.387.137a10.9 10.9 0 0 0 .461-.077c.233-.042.399-.069.493-.08a8.355 8.355 0 0 1 .934-.046c.191-.022.278-.088.267-.198-.011-.091-.18-.141-.51-.155-.332-.013-.584-.054-.759-.124a1.45 1.45 0 0 1-.867-.845c-.166-.408-.297-1.006-.386-1.798l-.014-.12c-.06-.532-.056-.857.017-.978.079-.119.347-.206.807-.26l4.066-.47c.073.62.059 1.101-.037 1.444-.098.341-.326.632-.676.877-.19.123-.453.229-.795.319-.344.09-.509.182-.497.27.011.122.12.169.321.146.129-.015.419-.061.87-.137.449-.08.788-.13 1.011-.156.555-.064.975-.105 1.264-.123.293-.019.624-.035.992-.046.211-.025.31-.092.299-.202-.008-.06-.137-.102-.392-.123a3.934 3.934 0 0 1-.655-.106c-.41-.106-.703-.307-.886-.606-.184-.298-.31-.742-.377-1.334l-.032-.271 2.935-.337C-.358-5.397.34-5.365.658-5.18c.383.221.632.827.746 1.818.082.712.069 1.268-.039 1.665-.106.399-.359.727-.757.987-.211.136-.457.25-.745.345-.283.093-.423.18-.414.26.016.11.197.146.551.105" style="fill:#fff;fill-opacity:1;fill-rule:nonzero;stroke:none;stroke-width:.367341" transform="matrix(.68856 0 0 -.68856 278.846 189.726)"/></g><g style="stroke-width:.367341"><path d="M0 0c1.023-.058 1.852-.441 2.488-1.155.638-.714.929-1.601.871-2.659a3.61 3.61 0 0 0-.364-1.436c-.248-.381-.491-.758-.738-1.128-.003-.072.079-.151.252-.243.171-.09.256-.165.253-.226-.006-.102-.093-.146-.258-.137-.2.031-.428.06-.681.091-.254.029-.469.048-.646.058-.322.017-.604.028-.844.031l-.72.011c-.238.013-.352.075-.348.186.008.111.124.18.349.208.528.073.823.116.881.133.733.181 1.307.49 1.723.921.415.432.641.951.673 1.556.038.685-.144 1.236-.549 1.653-.406.418-.988.647-1.746.69-.569.031-1.05-.069-1.446-.3-.389-.23-.743-.579-1.054-1.048-.092-.125-.388-.641-.89-1.542-.763-1.332-1.884-1.956-3.371-1.873-.91.049-1.652.372-2.23.972-.569.597-.834 1.329-.784 2.196.023.432.12.826.294 1.18.21.321.408.649.609.981.005.09-.099.177-.315.26-.214.082-.318.165-.312.244.005.132.139.189.399.174.108-.004.309-.022.604-.055.296-.032.485-.05.567-.055l1.09-.014c.211-.011.347-.028.406-.046.057-.018.087-.067.078-.149-.005-.109-.144-.188-.422-.239a6.013 6.013 0 0 1-.702-.167c-.581-.189-1.03-.457-1.346-.802a2 2 0 0 1-.516-1.274c-.033-.593.129-1.069.483-1.428.354-.357.828-.552 1.421-.585.606-.033 1.108.145 1.51.537.226.221.596.766 1.108 1.637C-3.595-1.796-3-1.067-2.442-.653-1.774-.166-.959.052 0 0" style="fill:#fff;fill-opacity:1;fill-rule:nonzero;stroke:none;stroke-width:.367341" transform="matrix(.68856 0 0 -.68856 278.54 183.554)"/></g><g style="stroke-width:.367341"><path d="m0 0 1.819 4.628 5.18-2.033c1.169-.458 2.299-.677 3.397-.656 1.095.023 2.099.184 3.002.482a9.403 9.403 0 0 1 2.363 1.226c.674.496 1.18 1.003 1.521 1.525.049.076.095.109.137.09a.164.164 0 0 0 .091-.095l1.192-2.254c-.337-.466-.79-.933-1.367-1.4A12.667 12.667 0 0 0 15.476.276a11.968 11.968 0 0 0-1.885-.83c-.646-.218-1.237-.331-1.778-.328-.117.005-.185-.035-.215-.118-.035-.084-.01-.172.069-.26.396-.406.764-.91 1.095-1.512.33-.603.61-1.253.835-1.96.233-.689.397-1.38.499-2.076a7.052 7.052 0 0 0 .042-1.919l-2.413-.846c-.046-.02-.089-.018-.127.009-.035.025-.055.071-.044.146.098.69.057 1.483-.12 2.374-.182.889-.534 1.771-1.056 2.651-.464.777-1.076 1.509-1.838 2.194-.762.686-1.686 1.242-2.769 1.665L2.842.618C2.074.878.689.506 0 0m6.574 12.11 20.319-7.995 1.166 2.98-13.265 5.207 1.279 3.255-2.254.881-1.275-3.249-7.514 2.944-1.755-4.479c.703.417 2.441.766 3.299.456" style="fill:#fff;fill-opacity:1;fill-rule:nonzero;stroke:none;stroke-width:.367341" transform="matrix(.68856 0 0 -.68856 83.463 154.129)"/></g><g style="stroke-width:.367341"><path d="M0 0c1.141 1.606 2.649 2.58 4.52 2.922 1.869.34 3.584-.047 5.148-1.159 1.55-1.101 2.473-2.595 2.77-4.477.298-1.885-.125-3.631-1.269-5.236-1.133-1.595-2.639-2.562-4.52-2.903-1.885-.344-3.602.035-5.149 1.138C-.063-8.603-.986-7.104-1.272-5.218-1.558-3.331-1.133-1.592 0 0m3.399-7.044a5.041 5.041 0 0 1 3.19-.945c1.174.042 2.067.494 2.682 1.355.621.876.773 1.868.453 2.978-.323 1.109-.966 2.009-1.928 2.694a5.093 5.093 0 0 1-3.179.959c-1.17-.038-2.07-.492-2.692-1.368-.593-.833-.737-1.816-.428-2.946.305-1.13.941-2.039 1.902-2.727M3.646 8.56l2.791 3.921L26.593-1.866l-1.857-2.606L7.417 7.871a4.361 4.361 0 0 1-3.771.689" style="fill:#fff;fill-opacity:1;fill-rule:nonzero;stroke:none;stroke-width:.367341" transform="matrix(.68856 0 0 -.68856 94.914 129.66)"/></g><g style="stroke-width:.367341"><path d="m0 0 3.622 3.167 16.3-18.606-2.407-2.107-9.73 11.103-3.356-2.943 3.331-3.802c.475-.538.69-1.072.647-1.596-.039-.523-.312-1.005-.811-1.44l-5.905-5.174c-.495-.438-1.011-.642-1.532-.616-.527.03-1.027.315-1.498.852l-7.002 8.005c-.643.776-1.638 1.247-2.751 1.289l3.337 2.927 3.543-4.045L.035-9.269l-2.069 2.37c-.516.599-1.352 1.075-2.562 1.081l3.337 2.924 3.863-4.408 3.358 2.938L3.088-1.04C2.381-.212 1.179.027 0 0m1.646-11.107L-2.6-14.829l3.261-3.72c.129-.149.228-.215.301-.204.072.015.168.076.288.185l3.601 3.154c.121.105.187.204.192.292.004.087-.044.191-.151.314z" style="fill:#fff;fill-opacity:1;fill-rule:nonzero;stroke:none;stroke-width:.367341" transform="matrix(.68856 0 0 -.68856 113.706 106.23)"/></g><g style="stroke-width:.367341"><path d="m0 0 3.826 1.965C4.55.547 5.021-.36 5.219-.75l5.135 2.627L11.395-.13 8.839-1.442c.515-.23.998-.547 1.432-.944.427-.399.78-.86 1.055-1.383.669-1.3.743-2.666.242-4.113-.503-1.443-1.454-2.515-2.841-3.23-1.393-.707-2.811-.855-4.285-.421-1.468.428-2.536 1.288-3.202 2.59a4.807 4.807 0 0 0-.517 1.659 5.315 5.315 0 0 0 .065 1.71L-1.724-6.86l-1.031 2.011 5.087 2.615-.137.254C1.584-.79 1.014-.317 0 0m6.621-14.227 4.129 2.125 2.266-4.389.215-.199.297.029 10.131 5.204 1.049-2.037-11.424-5.857c-.62-.32-1.149-.406-1.604-.266-.451.129-.839.523-1.171 1.156L9.18-15.873c-.459.885-1.531 1.314-2.559 1.646M4.063-7.5c.356-.689.902-1.205 1.627-1.547.73-.338 1.407-.364 2.027-.036.615.313 1.007.866 1.156 1.642a3.261 3.261 0 0 1-.31 2.201A3.394 3.394 0 0 1 6.94-3.674c-.711.334-1.381.348-2.002.028-.585-.294-.969-.843-1.141-1.631A3.165 3.165 0 0 1 4.063-7.5m5.75 12.391 4.06 2.087 2.922-5.655 2.936 1.507L20.787.796 17.839-.709l3.734-7.25-2.719-1.384-6.431 12.486c-.464.902-1.492 1.388-2.61 1.748" style="fill:#fff;fill-opacity:1;fill-rule:nonzero;stroke:none;stroke-width:.367341" transform="matrix(.68856 0 0 -.68856 128.059 95.855)"/></g><g style="stroke-width:.367341"><path d="m0 0-9.298-2-.485 2.236 15.81 3.402c.212.548.296 1.124.264 1.737-.039.605-.159 1.402-.374 2.385l-.281 1.285-.176.351-.42.015-13.736-2.949-.481 2.23 17.028 3.663.204-.014.106-.207.866-4c.234-1.059.338-1.85.316-2.376a3.965 3.965 0 0 0-.36-1.481l3.143.678.478-2.24L3.332.723l.812-3.735 6.538 1.409.189-.022.108-.172 1.732-7.954-3.107-.671-1.246 5.717-.098.171-.2.022-13.301-2.856-.482 2.231L.804-3.728z" style="fill:#fff;fill-opacity:1;fill-rule:nonzero;stroke:none;stroke-width:.367341" transform="matrix(.68856 0 0 -.68856 155.98 93.145)"/></g><g style="stroke-width:.367341"><path d="m0 0 4.579-.012-.008-23.386-3.051.005.003 6.51a4.434 4.434 0 0 0-1.847-.646c-.7-.094-1.683-.136-2.944-.136l-12.011.022.008 2.289 6.691-.009c-.003 1.208-.257 2.238-1.304 3.28l4.356-.012-.004-3.276 3.286-.004c1.004-.002 1.785.063 2.358.22.56.151 1.038.354 1.411.608L1.52-2.79C1.523-1.834.886-.891 0 0m-12.981-5.78c.002 1.502.563 2.759 1.667 3.79C-10.194-.958-8.852-.445-7.25-.443c1.593-.008 2.947-.527 4.066-1.565 1.121-1.038 1.679-2.294 1.681-3.785 0-1.492-.56-2.758-1.683-3.783-1.12-1.039-2.471-1.552-4.067-1.542-1.607 0-2.953.515-4.061 1.557-1.112 1.034-1.667 2.298-1.667 3.781m3.047.003c.005-.856.263-1.564.784-2.16.512-.599 1.148-.898 1.897-.896.743-.006 1.371.29 1.907.884.533.591.791 1.316.785 2.164-.002.847-.256 1.564-.789 2.16-.526.591-1.16.898-1.906.889-.746.004-1.376-.291-1.894-.885-.516-.594-.774-1.308-.784-2.156" style="fill:#fff;fill-opacity:1;fill-rule:nonzero;stroke:none;stroke-width:.367341" transform="matrix(.68856 0 0 -.68856 183.197 82.488)"/></g><g style="stroke-width:.367341"><path d="m0 0-9.305 2.044.502 2.238L7.002.791c.417.413.747.9.976 1.47.212.563.426 1.328.646 2.318l.275 1.29-.022.388-.376.189L-5.21 9.472l.484 2.232L12.31 7.947l.164-.102.024-.22-.879-4.001c-.239-1.061-.474-1.82-.711-2.285A3.943 3.943 0 0 0 9.963.141l3.131-.697-.491-2.228L3.335-.732l-.826-3.739 6.532-1.428.183-.11.017-.196-1.743-7.943-3.105.686 1.251 5.709-.022.199-.171.102-13.299 2.934.494 2.232 6.536-1.436z" style="fill:#fff;fill-opacity:1;fill-rule:nonzero;stroke:none;stroke-width:.367341" transform="matrix(.68856 0 0 -.68856 201.077 92.476)"/></g><g style="stroke-width:.367341"><path d="m0 0 4.044-2.094-10.785-20.74-2.687 1.39 6.327 12.176-3.12 1.619c-.957-1.178-2.212-1.944-3.764-2.262-1.563-.328-3.066-.113-4.534.642-1.658.862-2.768 2.162-3.354 3.902-.572 1.736-.448 3.42.391 5.022.838 1.608 2.133 2.673 3.891 3.202 1.749.539 3.464.371 5.122-.493 1.502-.779 2.57-1.932 3.198-3.455.62-1.525.665-3.042.159-4.55l3.065-1.599L.006-3.295C.509-2.315.406-1.294 0 0m-14.7-1.791a4.893 4.893 0 0 1-.509-3.169c.195-1.11.746-1.902 1.667-2.383.938-.485 1.9-.487 2.921-.022 1.001.467 1.766 1.215 2.292 2.214a4.955 4.955 0 0 1 .513 3.166C-7.997-.869-8.554-.076-9.494.401c-.865.46-1.825.461-2.863.014-1.03-.444-1.815-1.182-2.343-2.206" style="fill:#fff;fill-opacity:1;fill-rule:nonzero;stroke:none;stroke-width:.367341" transform="matrix(.68856 0 0 -.68856 230.642 95.394)"/></g><g style="stroke-width:.367341"><path d="m0 0 3.171-2.761-15.393-17.612-2.185 1.908 9.032 10.334-1.455 1.267-9.038-10.332-2.187 1.902 4.92 5.628a6.716 6.716 0 0 0-1.513.809c-.516.369-1.158.881-1.914 1.533l-3.277 2.855c-.768.676-1.182 1.365-1.228 2.082-.05.717.284 1.484 1.003 2.301l5.57 6.382c.69.792.878 2.066.8 3.238l7.982-6.955L-7.217.857l-4.506 3.927-6.259-7.157-.146-.381.178-.323 3.668-3.195a11.48 11.48 0 0 1 1.466-1.114c.433-.263.83-.446 1.186-.554L-4.394.337c.473.545.843 1.473.745 2.83L-.479.415l-4.85-5.557 1.453-1.265 3.128 3.57C-.265-2.271.1-1.362 0 0" style="fill:#fff;fill-opacity:1;fill-rule:nonzero;stroke:none;stroke-width:.367341" transform="matrix(.68856 0 0 -.68856 250.677 110.364)"/></g><g style="stroke-width:.367341"><path d="m0 0 2.354-3.601-2.445-1.588 3.163-4.828-1.89-1.24-1.567 2.385a5.175 5.175 0 0 0-.761-1.394 4.86 4.86 0 0 0-1.198-1.093c-1.202-.789-2.529-1.011-3.998-.656-1.452.356-2.6 1.166-3.441 2.451-.832 1.274-1.119 2.647-.857 4.125.252 1.472.988 2.604 2.2 3.392.462.303.96.531 1.483.652a4.998 4.998 0 0 0 1.585.137c.009-.01-.499.761-1.536 2.341l1.9 1.235 3.135-4.79.305.21C-.842-1.788-.228-1.115 0 0m-4.363-20.945.086-.382-.237-.319-6.817-4.446-1.742 2.658 5.11 3.332.131.158-.055.197-7.034 10.74 1.915 1.253zM-6.706-4.711a3.309 3.309 0 0 1-1.359-1.705c-.247-.704-.186-1.358.195-1.938.376-.58.94-.904 1.685-.967.731-.063 1.438.12 2.09.55.658.43 1.125.995 1.38 1.698.244.696.186 1.337-.201 1.925-.347.536-.912.857-1.666.942-.763.101-1.468-.075-2.124-.505M5.761-9.479l2.498-3.829-4.041-2.64 1.815-2.771-2.136-1.385-1.811 2.768-5.322-3.478-1.662 2.553 9.172 5.987c.898.589 1.224 1.519 1.487 2.795" style="fill:#fff;fill-opacity:1;fill-rule:nonzero;stroke:none;stroke-width:.367341" transform="matrix(.68856 0 0 -.68856 262.342 122.276)"/></g><g style="stroke-width:.367341"><path d="m0 0 1.52-3.985-8.787-3.329 2.948-7.728-2.165-.816-7.955 20.879 2.158.817 2.043-5.344 6.431 2.441c.944.362 1.424 1.079 1.89 2.106l1.519-3.989-8.783-3.335.865-2.258 6.422 2.439C-.965-1.753-.443-.986 0 0m6.995-4.706.32.229-.056.413L2.382 8.741l2.148.813 6.085-15.962.019-.21-.173-.116-6.925-2.625C1.952-9.962.639-10.361-.398-10.534c-1.044-.176-2.029-.176-2.945 0l-1.066 2.805c.949-.161 1.958-.139 3.041.096 1.079.221 2.426.654 4.053 1.292z" style="fill:#fff;fill-opacity:1;fill-rule:nonzero;stroke:none;stroke-width:.367341" transform="matrix(.68856 0 0 -.68856 270.714 149.461)"/></g></g></g></g></svg>