<svg xmlns="http://www.w3.org/2000/svg" viewBox="0 0 221.11 224.67"><defs><radialGradient id="New_Gradient_Swatch_2" cx="-3634.08" cy="-977.45" r="204.03" gradientTransform="matrix(.4 0 0 .41 1561.22 509.21)" gradientUnits="userSpaceOnUse"><stop offset="0.2" stop-color="#00afec"/><stop offset="0.32" stop-color="#00a2e1"/><stop offset="0.56" stop-color="#007fc4"/><stop offset="0.87" stop-color="#004895"/><stop offset="0.96" stop-color="#003686"/></radialGradient><style>.cls-1{fill:#c9c9c4}.cls-2{fill:#fff}.cls-4{fill:#002c76}</style></defs><g id="레이어_2"><g id="레이어_1-2"><path d="M110.55 0C49.51 0 0 50.29 0 112.33s49.51 112.34 110.55 112.34 110.56-50.3 110.56-112.34S171.61 0 110.55 0Zm0 222.43c-59.84 0-108.36-49.29-108.36-110.1S50.71 2.24 110.55 2.24s108.36 49.28 108.36 110.09-48.51 110.1-108.36 110.1Z" class="cls-1"/><path d="M110.55 4.63c-58.54 0-106 48.22-106 107.7S52 220 110.55 220s106-48.21 106-107.7-47.46-107.67-106-107.67Z" class="cls-1"/><path d="M157.08 112.33c0 26.11-20.83 47.27-46.53 47.27S64 138.44 64 112.33s20.82-47.27 46.51-47.27 46.57 21.16 46.57 47.27Z" class="cls-2"/><path d="M192.05 112.33c0-43.27-32.68-78.78-74.32-82.48a84.4 84.4 0 0 0-7.18 26.52 84.12 84.12 0 0 0-7.17-26.52c-41.63 3.7-74.31 39.21-74.31 82.48a83.7 83.7 0 0 0 7.59 34.93 81 81 0 0 0 26.2-6.95 82.6 82.6 0 0 0-19 19.57 80.75 80.75 0 0 0 133.42 0 82.71 82.71 0 0 0-19-19.57 80.9 80.9 0 0 0 26.2 6.95 83.55 83.55 0 0 0 7.57-34.93Zm-81.5 12.31a80.11 80.11 0 0 0-33.22 7.18 82.12 82.12 0 0 0 22.74-25.64 83.31 83.31 0 0 0 10.48-32.83A83.65 83.65 0 0 0 121 106.18a81.9 81.9 0 0 0 22.75 25.64 80.2 80.2 0 0 0-33.2-7.18Z" style="fill:url(#New_Gradient_Swatch_2)"/><path d="M133.41 21.71c-.64 3-1.89 6-7.21 4.85-4.15-.92-5.5-3.3-4.8-6.63l1.7-7.83c.22-1 .22-1.56-.69-1.76l.14-.6 3.6.8-1.83 8.46c-.55 2.56-1 5.42 2.32 6.16 3.61.8 4.29-1.78 4.77-4l1.94-9 2 .44ZM145.9 18.17c.41-.88.55-1.47-.28-1.87l.26-.57 4.12 1.95 1.77 14.56L157 21l1.67.79-6.38 14-2.88-1.36-1.86-15.23-5.4 11.81-1.67-.78ZM167.37 29.76c.58-.82.82-1.34.06-1.9l.36-.5 3 2.19L161.93 42l-2.15-1.58ZM209.69 110.37c1 0 1.56-.12 1.56-1.07h.6v3.75l-15.15.09v-2.69ZM176.72 37c.45-1 .65-1.55-.09-2.31l.43-.45 2.71 2.76-5.51 12.17h.05l12-5.5 1.43 1.46-14.9 6.59-1.84-1.8ZM191.13 53.41c.82-.54 1.27-1 .75-1.76l.5-.33 6 9.35-2.21 1.46-.35-.54c.92-.6.57-1.52 0-2.4L194 56.37c-.6-.93-.78-1.08-1.59-.54l-3.51 2.32 2 3.17c.73 1.14 1.16 1.38 1.78 1l.37.57-2.78 1.85-.38-.58c.62-.4.6-.92-.13-2.06l-2-3.16-4 2.64c-.86.57-.84.72-.24 1.65l2.1 3.28a1.55 1.55 0 0 0 2.2.67l.34.55-2.37 1.57-5.53-8.66ZM201.7 74.4c1.2-.46 1.48-.38 2.05 1.16.72 1.92.6 3.71-1.46 4.5-2.37.91-3.6-1.22-4.14-2.72l-.52-1.34Zm-12.44 1.88.94 2.53 6.11-2.35.61 1.62-4.65 6.28 1.08 3 4.82-6.79c1 1.8 2.78 3 5.2 2.09 3.78-1.44 2.37-5.6 1.58-7.73l-1.83-4.94-.59.22c.3.81-.18 1.11-1.09 1.47ZM209.61 126.13l.25-1.67c.28-1.85 0-2.76-1-2.92l.1-.63 2.7.55-1.88 12.41-2.8-.31.1-.63c1.09.17 1.58-.63 1.86-2.49l.25-1.66-13.65-2.12.46-2.66ZM15 140.11a12.65 12.65 0 0 0 .49 4.68c.41 1.3 1.29 2.34 2.59 1.91 3.1-1 .33-9 5.12-10.61 3.06-1 5.1 1.5 6.19 4.88a25.53 25.53 0 0 1 .87 4.62l-2 .66a11.8 11.8 0 0 0-.26-5.15c-.49-1.53-1.35-3-3.19-2.45-3.47 1.15-.62 9.08-5.14 10.58-2.35.78-4.48-.89-5.57-4.34a26.68 26.68 0 0 1-.89-4.21ZM209.17 99.91a11.21 11.21 0 0 0 .25-4.46c-.21-1.3-.93-2.55-2.3-2.32-3.24.54-1.68 8.67-6.6 9.5-3.19.53-4.81-2.16-5.37-5.53a21.11 21.11 0 0 1-.12-4.42l2.09-.36a10.57 10.57 0 0 0-.62 4.83c.25 1.54.87 3.12 2.78 2.8 3.65-.62 2-8.69 6.63-9.47 2.44-.42 4.3 1.6 4.86 5.06a22.59 22.59 0 0 1 .21 4.07ZM12.55 122.09l6.16-3.33.48 5.31Zm12.86 5.65-.17-1.92-4.61-1.34-.56-6.39 4.29-2.15-.27-3-14.53 7.63.32 3.73h.63c-.06-.6.42-.82 1.17-.59ZM11.6 103.15c-1-.15-1.54-.12-1.68.76l-.59-.1.57-3.66 6.47 1 1.18-7.76-6.48-1 .41-2.66 15 2.38-.4 2.66-7.12-1.13-1.18 7.76 7.12 1.12-.42 2.66ZM17.3 77.08c-.88-.42-1.43-.56-1.83.28l-.55-.26L17 72.48l12.74 1-9-9 1.64-3.6 13.74 6.53L35 69.8 22.89 64 33 74.12l-1 2.15-14.16-1 12 5.72-.78 1.7ZM38.64 53.6l-8.56-1.55a1.47 1.47 0 0 0-1.58.53l-.48-.4 2.29-2.79L38.53 51l-3-8 1.27-1.56 3.66 9.93 4.69 4-1.84 2.26ZM198.43 140.92l8.54-1.67a1.44 1.44 0 0 0 1.28-1.07l.6.2-1.14 3.44-8.24 1.51 5.59 6.41-.64 1.92-6.92-8-5.77-2 .93-2.78ZM49.88 39.68c-1.86-2.45-3.73-5.4-.72-7.77s5.29.38 7.09 2.76 3.75 5.21.75 7.58-5.41-.33-7.12-2.57Zm8 3.69c4.17-3.27 3.61-6.67.68-10.51s-6.08-5.34-10.25-2.08c-4.34 3.41-3.68 6.81-.72 10.7s6.07 5.21 10.28 1.89ZM68.52 27.15c-1.24-2.82-2.37-6.14 1.11-7.72s5.06 1.64 6.26 4.38 2.46 6-1 7.55-5.22-1.62-6.37-4.21Zm6.92 5.51c4.81-2.18 5-5.62 3.1-10s-4.67-6.66-9.47-4.53c-5 2.27-5.17 5.72-3.18 10.22s4.69 6.52 9.55 4.31ZM87.19 14.37c-.18-1-.41-1.51-1.27-1.34l-.12-.61 3.58-.71 1.36 7.1h.05l5-8.38 2.41-.48L93.38 18l8.34 6.92-3.33.67-7.5-6.29 1.43 7.49-2.6.52ZM117.07 199.88h-1.35a.58.58 0 0 0-.57.58v2.83a.59.59 0 0 1-.57.58h-.16a.57.57 0 0 1-.56-.58v-2.84a.57.57 0 0 0-.56-.58H112a.58.58 0 0 0-.57.57v9a.58.58 0 0 1-.57.57h-5.13a.56.56 0 0 1-.56-.58v-7.18a.57.57 0 0 1 .57-.58h3.61a.57.57 0 0 0 .58-.57v-.19a.58.58 0 0 0-.58-.58h-6.25a.57.57 0 0 0-.57.58v9.87a.58.58 0 0 0 .57.58h7.77a.58.58 0 0 1 .57.58v3a.57.57 0 0 0 .56.58h1.33a.57.57 0 0 0 .56-.58V206a.58.58 0 0 1 .58-.58h.14a.58.58 0 0 1 .58.58v8.87a.58.58 0 0 0 .56.58h1.37a.57.57 0 0 0 .56-.58v-14.42a.57.57 0 0 0-.61-.57ZM70 193.17l-1-.66a.6.6 0 0 1-.19-.8l.87-1.36a.58.58 0 0 0-.17-.8l-1.27-.82a.57.57 0 0 0-.78.17l-3.57 5.68a.6.6 0 0 0 .17.8l1.28.82a.56.56 0 0 0 .77-.18l1.38-2.18a.56.56 0 0 1 .79-.17l1 .65a.55.55 0 0 0 .78-.18l.11-.17a.58.58 0 0 0-.17-.8ZM64.85 196.93l-10.11-6.55a.56.56 0 0 0-.78.18l-2.88 4.6a.59.59 0 0 0 .18.8l10.1 6.55a.58.58 0 0 0 .78-.18l2.86-4.59a.59.59 0 0 0-.15-.81Zm-4.26 2.9a.57.57 0 0 1-.8.17l-5.66-3.67a.58.58 0 0 1-.17-.79l1.55-2.47a.57.57 0 0 1 .79-.18l5.7 3.67a.59.59 0 0 1 .17.8ZM58.41 188a.64.64 0 0 1 .56 0 .7.7 0 0 1 .25.52 8.31 8.31 0 0 0 2.43 4.82c.25.23.41.21.59.12l.53-.31a.46.46 0 0 0 .09-.72 6.54 6.54 0 0 1-.72-6.76c.14-.25.1-.49-.23-.72l-1.45-.95a.51.51 0 0 0-.75.07 6.2 6.2 0 0 1-6.33 2.19.45.45 0 0 0-.6.39l-.05.63c0 .2 0 .35.35.48a8.09 8.09 0 0 0 5.33.24ZM143.58 196.79l-1.16.36a.57.57 0 0 1-.7-.4l-.51-1.73a.57.57 0 0 0-.7-.4l-1.5.45a.6.6 0 0 0-.38.72l2 6.72a.57.57 0 0 0 .71.4l1.48-.45a.6.6 0 0 0 .4-.72l-.75-2.57a.59.59 0 0 1 .38-.72l1.16-.35a.58.58 0 0 0 .39-.71l-.06-.2a.58.58 0 0 0-.76-.4ZM143.05 203.43 131 207a.59.59 0 0 0-.4.72l.07.17a.57.57 0 0 0 .69.4l9.47-2.84a.58.58 0 0 1 .71.39l1.09 3.75a.58.58 0 0 0 .72.4l1.48-.45a.58.58 0 0 0 .39-.72l-1.47-5a.56.56 0 0 0-.7-.39ZM137 200.35a3.55 3.55 0 0 0-1.57-1.77c-.27-.15-.25-.37.06-.45l.75-.23a.6.6 0 0 0 .39-.72l-.05-.17a.57.57 0 0 0-.71-.39l-2.67.8a.58.58 0 0 1-.71-.39l-.13-.48a.6.6 0 0 0-.72-.4l-1.47.45a.57.57 0 0 0-.38.72l.14.47a.57.57 0 0 1-.39.71l-2.68.8a.6.6 0 0 0-.38.73v.17a.57.57 0 0 0 .71.39l.75-.23c.3-.09.44.08.3.36a3.47 3.47 0 0 0-.36 2.34c.55 1.92 2.86 2.91 5.52 2.11s4.12-2.9 3.6-4.82Zm-6.62 1.87a2.2 2.2 0 0 1 1.42-2.81 2.14 2.14 0 0 1 2.67 1.59 2.2 2.2 0 0 1-1.41 2.81 2.15 2.15 0 0 1-2.69-1.59ZM169.24 193.5l-.29.18a.56.56 0 0 1-.79-.18l-5.65-9.1a.57.57 0 0 0-.79-.18L151.2 191a.59.59 0 0 0-.19.79l.1.15a.54.54 0 0 0 .77.18l8.3-5.31a.55.55 0 0 1 .77.17l5 8a.57.57 0 0 1-.18.8l-.8.51a.55.55 0 0 1-.78-.18l-2.58-4.13a.55.55 0 0 0-.77-.18l-1.13.72a.58.58 0 0 0-.18.8l2.57 4.14a.6.6 0 0 1-.17.79l-.89.57a.56.56 0 0 1-.79-.18l-2.57-4.14a.56.56 0 0 0-.78-.18l-1.13.72a.6.6 0 0 0-.18.8l2.57 4.14a.6.6 0 0 1-.17.8l-1.13.73a.6.6 0 0 0-.19.79l.12.17a.57.57 0 0 0 .78.18l12.4-8a.58.58 0 0 0 .18-.8l-.09-.17a.58.58 0 0 0-.82-.18ZM92.26 205l-15.62-4.64a.57.57 0 0 0-.71.4l-.05.2a.58.58 0 0 0 .38.72l1.89.57a.58.58 0 0 1 .4.71l-.21.74a.57.57 0 0 1-.7.39l-.82-.24a.58.58 0 0 0-.7.4v.12a.6.6 0 0 0 .39.73l11 3.25a.58.58 0 0 1 .39.72l-.88 3a.59.59 0 0 0 .39.73l1.43.42a.56.56 0 0 0 .69-.4l1.25-4.29a.6.6 0 0 0-.39-.73l-.9-.26a.59.59 0 0 1-.39-.72l.22-.73a.56.56 0 0 1 .7-.4l1.95.57a.57.57 0 0 0 .71-.39l.06-.21a.59.59 0 0 0-.48-.66Zm-5.83 1.1a.57.57 0 0 1-.71.39l-4.41-1.3a.6.6 0 0 1-.39-.72l.21-.74a.57.57 0 0 1 .71-.39l4.41 1.31a.59.59 0 0 1 .39.71ZM84.64 202c3.62 1.07 6.78.68 7.34-1.32s-1.87-4.05-5.48-5.12-6.76-.68-7.34 1.31S81 201 84.64 202Zm1.48-5.15c2.41.72 3.56 2 3.25 3.05s-2 1.52-4.36.81-3.56-2-3.25-3.06 1.94-1.49 4.36-.77ZM38.78 172.18a2.11 2.11 0 1 1-2.13-2.18 2.13 2.13 0 0 1 2.13 2.18ZM186.56 172.22a2.12 2.12 0 1 1-2.1-2.17 2.13 2.13 0 0 1 2.1 2.17Z" class="cls-4"/><path d="M95.32 166.71c0-.56-.16-1-.89-1a7 7 0 0 0-1 .15v-.44l2.93-1.21h.73v10.47h-1.77ZM102.23 167.51c0-1.11.31-2.47 1.67-2.47 1.85 0 1.85 2.71 1.85 3.59a2.12 2.12 0 0 1-1.82 1.24c-1.16 0-1.7-1.01-1.7-2.36Zm-1.52 7.06a12.94 12.94 0 0 0 2.67.34c2.85 0 4.17-1.79 4.17-5.55 0-2.72-.48-5.11-3.59-5.11-2.32 0-3.53 1.17-3.53 3.3s1 3.1 2.95 3.1a2.85 2.85 0 0 0 2.37-1c0 2-.18 4.46-3.32 4.46a6 6 0 0 1-1.72-.28ZM112 169.53c0-2.06 0-4.49 2-4.49s2 2.41 2 4.49 0 4.59-2 4.59-2-2.49-2-4.59Zm2 5.38c3.08 0 3.84-2.2 3.84-5.38s-.79-5.28-3.84-5.28-3.84 2.19-3.84 5.28.84 5.38 3.84 5.38ZM122.32 170.51a2.22 2.22 0 0 1 1.84-1.21c1.14 0 1.69 1 1.69 2.34 0 1.1-.31 2.48-1.65 2.48-1.88 0-1.88-2.71-1.88-3.61Zm4.46-6a12.6 12.6 0 0 0-2.07-.22c-2.85 0-4.2 1.8-4.2 5.54 0 2.75.52 5.12 3.62 5.12 2.32 0 3.51-1.17 3.51-3.31s-1-3.09-2.93-3.09a2.92 2.92 0 0 0-2.39 1c0-2 .19-4.46 3.33-4.46a6.13 6.13 0 0 1 1.13.14Z" class="cls-2"/></g></g></svg>