<svg xmlns="http://www.w3.org/2000/svg" width="170.26721mm" height="170.26633mm" viewBox="0 0 170.26721 170.26633"><path d="M0 0c0-51.922-42.09-94.014-94.013-94.014-51.922 0-94.013 42.092-94.013 94.014s42.091 94.014 94.013 94.014C-42.09 94.014 0 51.922 0 0" style="fill:#fff;fill-opacity:1;fill-rule:nonzero;stroke:none" transform="matrix(.89775 0 0 -.89775 169.373 85.401)"/><path d="m0 0 6.109-1.41-.601-2.605-6.111 1.411zm-4.337-5.861-.349-1.517 11.915-2.751.35 1.516-5.042 1.165.548 2.378 3.811-.88 1.87 8.092-1.745.401L6.464.124.354 1.532l.561 2.423-2.125.49c-.097.022-.16-.094-.092-.166.337-.352.323-.643.323-.643l-1.609-6.973a.413.413 0 0 1 .308-.494l3.505-.808-.551-2.379-5.011 1.157" style="fill:#2a3f8a;fill-opacity:1;fill-rule:nonzero;stroke:none" transform="matrix(.89775 0 0 -.89775 67.298 153.122)"/><path d="m0 0-5.834-1.346s-.485-.046-.621.549l-2.024 8.768s-.108.288-.522.453c-.088.035-.076.164.016.186l5.207 1.203.38-1.643-3.117-.717L-4.931.587l4.552 1.052-1.862 8.031s-.096.234-.497.383c-.09.034-.082.166.013.189l2.025.467.681-2.952 1.473.341-.69 2.99 1.68.389L5.462-1.581 3.778-1.97l-1.96 8.49-1.471-.34 1.966-8.511L.628-2.72Z" style="fill:#2a3f8a;fill-opacity:1;fill-rule:nonzero;stroke:none" transform="matrix(.89775 0 0 -.89775 102.174 159.137)"/><path d="M0 0v3.082s.033.273-.43.555c-.086.051-.048.181.052.181h2.182V1.145h8.454V-.412H.412A.411.411 0 0 0 0 0" style="fill:#2a3f8a;fill-opacity:1;fill-rule:nonzero;stroke:none" transform="matrix(.89775 0 0 -.89775 80.78 163.332)"/><path d="M0 0h6.436s.506 0 .428-.721c0 0-.198-4.936-6.381-7.033l-1.17 1.156s4.954 1.56 5.475 5.026H0Z" style="fill:#2a3f8a;fill-opacity:1;fill-rule:nonzero;stroke:none" transform="matrix(.89775 0 0 -.89775 79.651 151.87)"/><path d="M0 0v-1.599h2.722v-5.479h1.789V3.076H2.348c-.098 0-.137-.129-.054-.181.448-.285.428-.557.428-.557V0Z" style="fill:#2a3f8a;fill-opacity:1;fill-rule:nonzero;stroke:none" transform="matrix(.89775 0 0 -.89775 85.88 154.426)"/><path d="m0 0 4.572-3.837L3.19-5.483l-4.571 3.837Zm3.56-7.826 3.398 4.05L-.583 2.55c-.072.061-.182-.008-.156-.1.111-.417-.081-.66-.081-.66l-2.66-3.171a.412.412 0 0 1 .05-.579z" style="fill:#2a3f8a;fill-opacity:1;fill-rule:nonzero;stroke:none" transform="matrix(.89775 0 0 -.89775 38.863 142.679)"/><path d="m0 0 1.726-1.447-.732-.872S-1.032-4.357.904-8.04l-1.655-.364S-1.916-6.43-1.67-4.029c0 0-1.429-.747-4.598-.227l-.168 1.77s4.005-1.071 5.994 1.373l.279.332c.037.045.152.216.005.671-.032.096.08.175.158.11" style="fill:#2a3f8a;fill-opacity:1;fill-rule:nonzero;stroke:none" transform="matrix(.89775 0 0 -.89775 43.533 135.497)"/><path d="m0 0 1.657-1.39-1.984-2.361 1.418-1.191L.05-6.183l-1.416 1.191-1.802-2.148-1.371 1.151 4.35 5.183s.192.204.03.701C-.188-.012-.077.064 0 0" style="fill:#2a3f8a;fill-opacity:1;fill-rule:nonzero;stroke:none" transform="matrix(.89775 0 0 -.89775 48.302 139.221)"/><path d="M0 0c.283.443.666.788 1.153 1.037.518.262 1.028.385 1.53.367.503-.015.967-.445 1.193-.889.19-.373.266-.974.019-1.41-.245-.438-.644-.795-1.196-1.078-.554-.281-1.081-.394-1.582-.338-.499.057-.939.459-1.119.814C-.219-1.075-.285-.445 0 0m.563-3.747c.883-.16 1.812.006 2.783.503.992.505 1.676 1.159 2.051 1.96.377.802.339 1.647-.114 2.535-.427.839-1.078 1.347-1.953 1.523-.875.179-1.808.014-2.8-.492-.972-.495-1.647-1.154-2.029-1.977-.383-.825-.362-1.65.062-2.479.452-.887 1.118-1.413 2-1.573" style="fill:#2a3f8a;fill-opacity:1;fill-rule:nonzero;stroke:none" transform="matrix(.89775 0 0 -.89775 111.433 149.807)"/><path d="m0 0 9.077 4.625s.47.337.828-.268l1.74-3.413-1.621-.826-1.32 2.591L.697-1.37Z" style="fill:#2a3f8a;fill-opacity:1;fill-rule:nonzero;stroke:none" transform="matrix(.89775 0 0 -.89775 112.086 155.239)"/><path d="m0 0 1.844.94.592-1.163 2.931 1.494.636-1.247-7.682-3.913-.643 1.264L.862-1.002l-.28.552S.408-.238.03-.186C-.066-.172-.087-.043 0 0" style="fill:#2a3f8a;fill-opacity:1;fill-rule:nonzero;stroke:none" transform="matrix(.89775 0 0 -.89775 109.978 146.219)"/><path d="m0 0 1.94.989 1.404-2.756 1.648.84.737-1.443-1.649-.838 1.47-2.885-1.595-.812L.664-.445s-.14.207-.628.259C-.062-.175-.089-.045 0 0" style="fill:#2a3f8a;fill-opacity:1;fill-rule:nonzero;stroke:none" transform="matrix(.89775 0 0 -.89775 115.34 144.535)"/><path d="m0 0 8.068 6.433c.179.14.438.111.579-.065L13.308.52 11.875-.624 7.93 4.325.974-1.221Z" style="fill:#2a3f8a;fill-opacity:1;fill-rule:nonzero;stroke:none" transform="matrix(.89775 0 0 -.89775 121.493 140.948)"/><path d="m0 0 2.602 2.075L.215 5.072s-.191.225-.662.181c-.098-.009-.153.115-.074.176l1.698 1.353 2.854-3.577 1.383 1.102-2.853 3.581 1.42 1.132 2.856-3.579 3.553 2.832.971-1.219L.977-1.224Z" style="fill:#2a3f8a;fill-opacity:1;fill-rule:nonzero;stroke:none" transform="matrix(.89775 0 0 -.89775 126.602 149.2)"/><path d="M0 0c-1.666.849-3.254.954-3.616.244-.363-.712.657-1.934 2.322-2.784 1.665-.847 3.253-.954 3.616-.242S1.665-.849 0 0m-2.019-3.962C-4.645-2.624-5.858-.642-5.038.968c.82 1.61 3.136 1.793 5.764.454 2.625-1.338 3.838-3.32 3.018-4.93-.82-1.608-3.138-1.791-5.763-.454" style="fill:#2a3f8a;fill-opacity:1;fill-rule:nonzero;stroke:none" transform="matrix(.89775 0 0 -.89775 57.405 146.643)"/><path d="m0 0-2.243 1.144.758 1.487L.759 1.488Zm-5.249 6.281-.701-1.375 2.872-1.464-.77-1.513-2.089 1.064c-.048-.092-.7-1.375-.7-1.375l7.721-3.936-1.145-2.247 1.616-.824 1.672 3.284a.409.409 0 0 1-.18.552l-1.466.748L2.34.682 5.204-.777l.7 1.375z" style="fill:#2a3f8a;fill-opacity:1;fill-rule:nonzero;stroke:none" transform="matrix(.89775 0 0 -.89775 55.266 153.725)"/><path d="m0 0-.134.294L-1.23 2.77c-.104.24-.202.355-.302.346-.123-.01-.282-.288-.474-.833l-.703-2.09a1.341 1.341 0 0 1-.082-.513c.008-.098.087-.143.237-.13l2.059.165C-.152-.256.016-.162 0 0m6.396-5.363c.017-.179-.109-.276-.374-.297a113.98 113.98 0 0 0-1.891-.133l-2.39-.152a8.458 8.458 0 0 1-.52-.052 1.125 1.125 0 0 1-.265-.073c-.195-.015-.299.085-.317.303-.019.205.114.35.391.442.28.09.465.148.565.169.244.075.355.22.34.438a1.38 1.38 0 0 1-.096.422 4.744 4.744 0 0 0-.125.338L.81-1.653c-.087.232-.191.374-.307.421-.114.047-.402.055-.858.017l-1.996-.163-.477-.039a.308.308 0 0 1-.25-.143 1.76 1.76 0 0 1-.152-.301 19.645 19.645 0 0 1-.73-2.354c-.051-.238-.11-.532-.182-.883.022-.247.174-.392.466-.437.289-.048.56-.08.812-.099.184-.041.283-.15.299-.328.022-.261-.13-.404-.447-.43l-1.017-.081c-1.827-.148-2.791-.227-2.889-.233l-.101-.011c-.127-.009-.193.048-.205.17-.009.134.083.247.289.33.204.086.389.168.565.25.441.215.802.688 1.076 1.421l4.096 11.133c.033.114.075.245.125.393.051.149.127.227.22.235.083.006.161-.067.23-.22.066-.154.12-.276.155-.369l4.157-9.009.61-1.326c.203-.435.402-.73.603-.884.202-.156.603-.329 1.204-.528.187-.066.285-.149.29-.242" style="fill:#2a3f8a;fill-opacity:1;fill-rule:nonzero;stroke:none" transform="matrix(.89775 0 0 -.89775 79.924 13.808)"/><path d="m0 0-.562-2.361c-.041-.188-.149-.276-.329-.265l-.646.039c-.83.049-1.579.102-2.244.155l-1.868.154-3.851.235-.814-.014-.227.015c-.281.018-.413.113-.403.293.007.135.111.229.302.289.189.054.404.097.642.125.408.054.655.115.743.179.19.139.317.344.382.613s.115.689.147 1.262l.051.796.469 6.716.042.655a.738.738 0 0 1-.167.512 1.027 1.027 0 0 1-.509.328c-.352.076-.698.15-1.038.227-.134.048-.198.141-.189.277.01.218.214.316.6.293.193-.012.548-.047 1.065-.107.516-.058.842-.091.981-.101l3.282-.117c.29-.017.429-.12.418-.311-.009-.164-.121-.273-.328-.329l-.937-.128c-.279-.037-.477-.117-.596-.241-.117-.122-.183-.334-.201-.634l-.03-.51-.024-.347-.503-7.597-.022-.368c-.034-.559.009-.915.134-1.073.122-.159.448-.253.973-.285.834-.052 1.545-.011 2.138.116.592.128 1.079.337 1.457.628.247.202.551.492.91.866.253.271.427.404.524.397.166-.008.243-.109.232-.3z" style="fill:#2a3f8a;fill-opacity:1;fill-rule:nonzero;stroke:none" transform="matrix(.89775 0 0 -.89775 94.014 17.143)"/><path d="M0 0c1.171.315 2.2.165 3.092-.453.893-.617 1.534-1.655 1.927-3.119.339-1.262.471-2.209.393-2.84-.077-.632-.372-1.018-.886-1.155-1.566-.419-2.392-.468-2.477-.146-.041.146.171.361.63.643.367.213.623.411.772.594.147.185.298.441.45.77.387.924.473 1.782.261 2.572-.192.713-.535 1.232-1.031 1.558-.497.327-1.081.401-1.753.221a2.103 2.103 0 0 1-1.114-.732c-.2-.254-.383-.705-.547-1.355-.014-.047-.185-.84-.504-2.378-.399-1.921-1.332-3.078-2.792-3.47-.973-.26-1.857-.112-2.659.442-.794.556-1.361 1.45-1.69 2.686-.169.63-.275 1.182-.308 1.653-.034.474-.018.82.048 1.039.048.142.168.257.365.345.192.088.543.201 1.041.334l.691.186c.286.078.46.021.509-.165.027-.108-.014-.21-.13-.305a4.639 4.639 0 0 0-.315-.245c-1.069-.851-1.441-1.877-1.118-3.086.161-.603.48-1.057.956-1.361.479-.303.967-.387 1.467-.254.617.167 1.012.553 1.19 1.161.092.341.174.716.249 1.124.208 1.263.325 1.944.341 2.033.261 1.078.616 1.91 1.064 2.499C-1.428-.616-.802-.215 0 0" style="fill:#2a3f8a;fill-opacity:1;fill-rule:nonzero;stroke:none" transform="matrix(.89775 0 0 -.89775 16.964 99.528)"/><path d="m0 0-.287-.149-2.416-1.217c-.236-.114-.346-.221-.332-.317.014-.124.3-.27.853-.435l2.122-.599c.207-.056.38-.076.52-.056.096.014.136.093.116.245L.311-.483C.264-.139.161.021 0 0m5.042 6.654c.176.021.281-.098.316-.359.057-.44.133-1.069.224-1.882l.27-2.381c.032-.249.058-.421.079-.517.019-.096.048-.183.084-.262.026-.194-.07-.302-.284-.333-.204-.025-.359.098-.463.372a8.258 8.258 0 0 0-.195.552c-.087.241-.24.348-.454.319a1.343 1.343 0 0 1-.418-.115 3.846 3.846 0 0 0-.334-.143L1.613.889C1.384.79 1.247.681 1.207.565c-.041-.12-.034-.405.026-.859l.258-1.987.064-.475a.304.304 0 0 1 .153-.241c.092-.052.194-.099.312-.139a19.613 19.613 0 0 1 2.385-.613c.241-.04.537-.084.892-.135.244.031.383.193.413.483.032.293.05.566.058.818.034.187.136.29.313.313.259.035.41-.107.451-.424l.133-1.011c.236-1.82.362-2.777.375-2.875l.015-.1c.015-.125-.038-.195-.16-.212-.133-.017-.25.072-.343.27-.095.198-.188.384-.28.553-.234.431-.725.767-1.472 1.006L-6.52-1.521a7.32 7.32 0 0 0-.397.106c-.153.044-.233.113-.247.209-.01.084.059.163.208.238.148.076.27.134.361.172l8.794 4.598c.438.225.871.451 1.295.674.422.223.709.439.852.647.145.208.301.618.468 1.228.058.189.132.291.228.303" style="fill:#2a3f8a;fill-opacity:1;fill-rule:nonzero;stroke:none" transform="matrix(.89775 0 0 -.89775 13.873 93.998)"/><path d="M0 0c.163-.006.269-.197.315-.573.045-.38.095-.65.139-.811.049-.162.125-.268.224-.322.099-.053.259-.084.478-.091l8.92-.359.326-.012.45-.017c.175-.007.307.025.394.101.085.072.163.208.239.401.14.43.242.73.303.896.06.166.151.247.275.244.23-.01.343-.155.331-.43-.002-.068-.03-.391-.071-.963a37.43 37.43 0 0 1-.082-1.319 56.796 56.796 0 0 1-.052-1.776c-.004-.42-.004-.806-.004-1.152-.019-.401-.148-.596-.394-.587-.216.009-.332.224-.351.644-.018.42-.064.736-.135.946a.755.755 0 0 1-.401.448c-.195.093-.529.147-1.008.165l-.344.015-2.695.107c-.261.01-.433.003-.524-.02-.089-.024-.141-.224-.158-.599l-.117-2.999-.064-1.603A5.988 5.988 0 0 1 6-10.47c.023-.161.203-.248.544-.26l1.744-.07 1.453-.058.226-.013c.355-.012.625 0 .81.045.186.041.351.299.494.771.066.32.118.555.151.701.034.146.139.215.316.209.22-.007.323-.154.311-.431l-.02-.502c-.131-3.259-.198-4.972-.206-5.139-.004-.126-.103-.184-.294-.177-.123.005-.207.08-.255.225-.065.469-.13.855-.199 1.155-.07.302-.212.494-.429.582-.213.086-.559.14-1.036.159l-8.777.351c-.367.016-.61-.101-.729-.347-.06-.123-.148-.376-.267-.76-.117-.384-.244-.573-.379-.569-.151.006-.22.15-.208.429.003.125.024.405.064.843.037.437.06.75.067.93l.043 2.635.047.605c.009.25.116.372.322.363.163-.006.254-.183.274-.527.021-.346.054-.605.102-.776a.546.546 0 0 1 .271-.359c.133-.068.344-.109.63-.12l3.654-.146c.177-.006.297.054.366.183.066.129.105.396.125.799.056 1.512.092 2.731.093 3.656.003.924-.008 1.432-.032 1.525-.021.09-.114.146-.28.168a6.665 6.665 0 0 1-.469.038l-3.388.137c-.327.012-.535-.097-.625-.331-.128-.468-.218-.792-.265-.98-.049-.186-.145-.276-.296-.27-.22.009-.317.256-.301.743l.072 1.228c.022.528.023 1.157.005 1.888-.019.729-.026 1.15-.021 1.262.016.457.115.682.292.675" style="fill:#2a3f8a;fill-opacity:1;fill-rule:nonzero;stroke:none" transform="matrix(.89775 0 0 -.89775 8.024 75.755)"/><path d="M0 0c.185-.044.262-.219.23-.523a48.085 48.085 0 0 0-.097-1.123c-.005-.253.056-.435.184-.543.13-.107.392-.21.79-.305l1.148-.21 1.177-.281 4.417-1.057.677-.162c1.113-.269 1.759-.349 1.939-.25.115.073.352.416.709 1.032l.248.421c.094.155.2.221.321.191.144-.034.176-.22.095-.557a80.515 80.515 0 0 0-.522-2.019 81.343 81.343 0 0 1-.505-1.936 7.824 7.824 0 0 1-.193-1.154c-.068-.285-.196-.403-.38-.359-.16.038-.253.129-.28.272-.028.146-.026.371.004.682.034.311.047.488.043.533-.003.219-.118.354-.343.408l-.776.186-6.357 1.519-.418.101-.518.123-.176.043c-.08.018-.127.002-.141-.052-.01-.055.012-.106.069-.157l.156-.133 7.668-5.451c.309-.231.441-.436.398-.611-.025-.109-.071-.18-.143-.213a1.86 1.86 0 0 0-.416-.105l-9.435-1.685a2.67 2.67 0 0 1-.161-.06.487.487 0 0 1-.072-.035c-.029-.123.075-.211.314-.268l.18-.044 7.128-1.706c.425-.102.748-.102.968-.004.221.099.378.34.468.722l.06.246c.058.245.149.433.272.562.124.128.249.178.374.148.149-.035.184-.223.102-.56l-.463-1.946-.543-2.268c-.07-.286-.203-.403-.401-.355-.173.041-.245.197-.214.469.03.271.041.543.037.815-.009.488-.393.824-1.149 1.004l-8.003 2.428-.439.105c-.451.108-.757-.029-.921-.412-.16-.382-.305-.722-.431-1.021-.122-.213-.281-.297-.481-.25-.186.046-.245.209-.175.494.053.228.177.674.371 1.337.193.661.311 1.081.353 1.256l.178.839c.063.255.193.417.389.484.307.057.549.099.721.128l6.68 1.194c.017.009.264.044.735.102.319.038.489.113.513.22.026.108-.06.228-.262.361a58.72 58.72 0 0 1-.556.37 246.825 246.825 0 0 0-3.823 2.691C.802-5.963.29-5.59-.219-5.212c-.51.378-.813.671-.909.881-.101.207-.094.541.015 1l.482 1.664A8.598 8.598 0 0 1-.405-.375C-.335-.078-.2.046 0 0" style="fill:#2a3f8a;fill-opacity:1;fill-rule:nonzero;stroke:none" transform="matrix(.89775 0 0 -.89775 11.653 60.236)"/><path d="M0 0c.114-.05.142-.251.078-.602a1.634 1.634 0 0 1 .149-1.019l2.822-5.814c.222-.444.602-.785 1.138-1.016l.098-.041 3.206-1.279c.337-.146.643-.006.918.42l.551.965c.09.098.186.122.299.073.326-.14.415-.384.265-.725-.097-.23-.259-.546-.478-.948-.22-.403-.369-.699-.453-.889a19.183 19.183 0 0 1-.363-.886c-.439-1.184-.724-1.927-.856-2.233-.156-.355-.327-.491-.513-.41-.213.091-.276.27-.19.535.085.268.137.471.157.616.076.663-.212 1.136-.877 1.424l-2.097.912c-.412.178-.717.283-.91.315-.194.03-.392.023-.592-.027l-6.139-1.267c-.643-.1-1.035-.276-1.176-.534a6.33 6.33 0 0 1-.385-.48c-.079-.111-.184-.136-.321-.079-.146.065-.168.218-.064.462l.168.381c.122.28.289.635.505 1.063.216.431.337.676.367.74.152.357.294.704.422 1.043l.364.977.183.421c.177.408.332.582.473.523.198-.087.234-.278.106-.571-.288-.663-.282-1.058.012-1.186a.509.509 0 0 1 .349-.038l4.825.91c.217.057.36.162.429.313.038.09-.011.251-.145.491L-.159-3.288a.87.87 0 0 1-.388.323c-.244.105-.43.011-.557-.282a12.969 12.969 0 0 0-.41-.764c-.097-.164-.207-.218-.329-.164-.123.053-.143.176-.061.367l.168.381.939 2.116.405 1.095C-.294 0-.165.072 0 0" style="fill:#2a3f8a;fill-opacity:1;fill-rule:nonzero;stroke:none" transform="matrix(.89775 0 0 -.89775 16.767 48.633)"/><path d="M0 0a6.407 6.407 0 0 1-1.906.828A6.083 6.083 0 0 1-3.97.942C-5.217.823-6.136.292-6.728-.646c-.679-1.081-.795-2.22-.345-3.414.448-1.191 1.423-2.26 2.922-3.201 1.639-1.031 3.114-1.513 4.43-1.456 1.317.06 2.309.624 2.983 1.696.672 1.07.721 2.24.145 3.512C2.831-2.235 1.695-1.065 0 0m1.745 1.93c1.488-.935 2.454-2.15 2.9-3.642.277-.913.336-1.898.169-2.953a7.68 7.68 0 0 0-1.108-2.956c-.859-1.364-2.087-2.297-3.691-2.8-1.005-.32-1.925-.424-2.764-.308-.835.116-1.709.459-2.619 1.032C-6.973-8.689-7.964-7.271-8.34-5.44a6.123 6.123 0 0 0 .003 2.617c.191.841.566 1.707 1.129 2.602 1.051 1.671 2.536 2.69 4.453 3.058 1.547.308 3.047.006 4.5-.907" style="fill:#2a3f8a;fill-opacity:1;fill-rule:nonzero;stroke:none" transform="matrix(.89775 0 0 -.89775 25.842 43.587)"/><path d="M0 0a6.398 6.398 0 0 1-1.73 1.149 6.124 6.124 0 0 1-2.011.476c-1.248.102-2.25-.258-2.995-1.081-.86-.947-1.173-2.046-.941-3.299.233-1.251 1.005-2.474 2.314-3.663 1.433-1.302 2.8-2.038 4.11-2.212 1.305-.17 2.381.211 3.233 1.145.849.936 1.103 2.081.759 3.435C2.393-2.695 1.482-1.346 0 0m2.055 1.596C3.355.413 4.095-.952 4.271-2.5c.115-.948-.001-1.927-.349-2.935a7.723 7.723 0 0 0-1.611-2.716c-1.084-1.194-2.457-1.898-4.123-2.112-1.048-.136-1.972-.077-2.773.183-.804.261-1.605.752-2.401 1.476-1.403 1.271-2.128 2.843-2.18 4.712-.024.924.128 1.782.463 2.576.336.795.857 1.581 1.566 2.363 1.326 1.46 2.97 2.204 4.924 2.23 1.574.032 2.998-.527 4.268-1.681" style="fill:#2a3f8a;fill-opacity:1;fill-rule:nonzero;stroke:none" transform="matrix(.89775 0 0 -.89775 34.072 33.846)"/><path d="M0 0c.134-.172.113-.326-.064-.462a28.324 28.324 0 0 0-1.212-.87 29.269 29.269 0 0 1-1.079-.767 48.84 48.84 0 0 1-1.574-1.252 22.186 22.186 0 0 1-.888-.775c-.154-.118-.302-.084-.446.099-.108.143-.026.36.252.649.275.291.43.459.467.503.153.189.187.337.103.447-.083.106-.303.199-.663.271l-4.738.672c-.442.049-.751.075-.928.075-.288-.017-.519-.093-.695-.23-.223-.17-.238-.378-.047-.627l2.245-2.913c.201-.259.372-.421.517-.48.142-.063.344-.04.604.067.26.107.505.214.739.322.224.071.39.038.501-.103.116-.152.052-.321-.19-.505a25.346 25.346 0 0 1-1.778-1.243 43.24 43.24 0 0 1-1.517-1.207 31.394 31.394 0 0 1-.884-.769c-.23-.176-.407-.186-.53-.024-.043.055-.056.134-.043.241a.491.491 0 0 0 .14.277l.593.598c.119.117.208.241.257.366.051.126.031.284-.06.473-.093.186-.246.42-.463.702l-5.491 7.13c-.276.355-.529.479-.761.372-.319-.179-.633-.351-.942-.522-.155-.05-.282-.009-.384.122-.107.139.049.372.466.694l2.011 1.419 1.578 1.267c.24.186.411.215.512.085.073-.097.087-.184.034-.259a6.078 6.078 0 0 0-.465-.497c-.255-.258-.395-.439-.426-.547-.027-.107.04-.262.197-.47l.424-.55 1.829-2.509.262-.34c.118-.153.23-.184.339-.101a2.865 2.865 0 0 1 .088.299l.921 6.076c.033.231.02.383-.037.458-.067.088-.186.082-.357-.016-.17-.097-.397-.228-.681-.395-.283-.167-.489-.17-.613-.007-.109.14-.007.328.302.566l.774.599 1.66 1.225c.307.238.534.427.683.566.148.138.273.265.377.38.108.085.23.041.363-.132.074-.096-.081-.353-.471-.771-.388-.421-.63-.842-.73-1.259l-1.136-4.875c-.067-.276-.063-.46.012-.558l.229-.058c.209-.044.434-.086.675-.125l6.623-.881c.568-.08 1.102-.122 1.604-.133.407-.009.674-.003.79.015.114.02.3.099.553.237C-.312.175-.124.162 0 0" style="fill:#2a3f8a;fill-opacity:1;fill-rule:nonzero;stroke:none" transform="matrix(.89775 0 0 -.89775 50.164 28.28)"/><path d="M0 0c.06-.152-.076-.325-.401-.518a5.411 5.411 0 0 1-.686-.453c-.128-.11-.2-.219-.207-.332-.008-.113.029-.272.107-.476l3.24-8.32.119-.302.161-.421c.065-.164.149-.269.25-.318.105-.049.255-.069.466-.061.45.044.763.072.941.082.177.009.289-.041.332-.155.085-.217-.003-.374-.261-.475-.062-.025-.369-.132-.912-.323a37.06 37.06 0 0 1-1.239-.449A66.171 66.171 0 0 1-.794-13.64c-.377-.145-.608-.106-.698.125-.078.201.071.396.45.58.376.184.65.351.812.5a.756.756 0 0 1 .251.549c.008.214-.078.543-.251.988l-.127.323-.978 2.514c-.093.241-.168.396-.227.471-.057.072-.26.04-.612-.097L-4.97-8.774l-1.495-.582a6.102 6.102 0 0 1-.735-.33c-.135-.085-.145-.285-.021-.604l.634-1.623.526-1.357.082-.209c.128-.332.25-.574.363-.73.113-.154.413-.201.904-.142.322.066.555.113.703.141.149.029.251-.04.319-.205.077-.204-.014-.356-.272-.459l-.466-.181c-3.04-1.183-4.637-1.806-4.796-1.866-.116-.045-.208.022-.277.198-.046.115-.01.223.102.325.407.247.732.46.982.647.248.183.368.39.36.622-.006.231-.095.569-.269 1.013l-3.185 8.186c-.135.343-.337.521-.61.531a6.565 6.565 0 0 1-.804-.061c-.398-.046-.624-.005-.674.122-.053.14.049.26.309.362.116.045.383.138.801.278.416.14.708.244.878.309l2.433 1.014.571.2c.236.091.389.043.462-.15.061-.151-.064-.304-.372-.462-.309-.156-.533-.291-.669-.403a.555.555 0 0 1-.223-.394c-.007-.149.04-.356.144-.625l1.326-3.407c.064-.164.168-.251.314-.26.145-.01.405.058.78.204a99.516 99.516 0 0 1 3.389 1.375c.851.367 1.311.579 1.386.637.073.058.088.166.043.323a5.073 5.073 0 0 1-.153.447l-1.229 3.16c-.12.305-.303.451-.554.442-.479-.068-.814-.121-1.003-.15-.189-.03-.311.025-.365.164-.079.204.105.395.56.57l1.152.427c.494.192 1.07.442 1.733.75.663.311 1.045.485 1.15.527.426.165.672.165.736 0" style="fill:#2a3f8a;fill-opacity:1;fill-rule:nonzero;stroke:none" transform="matrix(.89775 0 0 -.89775 62.562 11.105)"/><path d="m0 0 .021-.269.019-2.362c.009-.165-.163-.288-.516-.368l-.508-.114-6.395-1.381-1.654-.438c-.366-.082-.578.008-.637.266-.063.272.216.479.83.617.576.131.902.314.978.557.074.239.028.725-.138 1.458l-1.757 7.785-.051.22-.071.32c-.1.439-.304.68-.613.723a26.3 26.3 0 0 1-1.053-.01c-.222-.007-.347.063-.38.209-.04.173.09.295.388.36l2.027.403 6.015 1.266c.446.101.72.142.815.122.098-.021.174-.151.228-.391l.476-2.107c.041-.189-.005-.296-.143-.328-.191-.042-.39.088-.604.39-.281.418-.503.671-.667.761-.692.394-1.776.422-3.25.091-.629-.143-.893-.429-.797-.856l.833-3.698c.079-.336.351-.45.829-.342.582.133 1.001.242 1.258.337.255.093.468.235.641.427.169.193.305.538.406 1.035.078.408.205.632.38.672.193.044.322-.082.386-.374l.738-3.75c.044-.185-.037-.301-.241-.347-.192-.044-.337.046-.436.268-.101.22-.208.459-.323.712-.33.569-1.263.678-2.803.331-.38-.087-.523-.347-.422-.785l.126-.576.643-2.838c.107-.464.285-.757.543-.88.256-.122.691-.115 1.302.023.639.145 1.164.35 1.577.619.409.266.685.57.825.908.154.455.262.758.329.913.16.425.322.659.485.695C-.171.317-.049.226 0 0" style="fill:#2a3f8a;fill-opacity:1;fill-rule:nonzero;stroke:none" transform="matrix(.89775 0 0 -.89775 74.353 17.293)"/><path d="m0 0-.608-2.963c-.046-.255-.171-.365-.377-.329-.178.031-.276.228-.297.592-.02.362-.062.61-.122.744-.264.586-1.313 1.039-3.145 1.362-.413.073-.668.056-.77-.049-.105-.107-.204-.433-.302-.979l-.884-5.014-.068-.382-.223-1.269-.239-1.597-.027-.162c-.065-.363-.087-.613-.071-.754.019-.142.134-.267.352-.374.216-.106.539-.216.969-.326.429-.11.635-.213.618-.306l-.015-.081c-.032-.188-.078-.302-.133-.34-.056-.038-.207-.035-.454.006l-1.006.18-4.761.838c-.259.046-.374.156-.343.331.034.187.246.27.635.25.391-.02.702-.023.931-.007.414.038.704.512.864 1.425l1.414 8.012c.092.534.108.872.041 1.015-.066.144-.292.247-.674.314-.739.132-1.348.178-1.826.147a2.638 2.638 0 0 1-1.321-.462c-.128-.09-.431-.362-.904-.816-.306-.293-.555-.422-.748-.387-.176.03-.25.128-.223.288l.029.162 1.572 2.896c.1.175.22.251.358.229.191-.034.311-.109.362-.221.052-.113.103-.222.155-.328.095-.114.255-.205.481-.273.229-.067.543-.136.94-.206l7.953-1.402c.329-.058.565-.079.701-.061.137.015.289.102.457.251.091.11.177.208.264.289.084.083.168.117.25.103C-.031.315.032.201 0 0" style="fill:#2a3f8a;fill-opacity:1;fill-rule:nonzero;stroke:none" transform="matrix(.89775 0 0 -.89775 104.287 9.614)"/><path d="M0 0c-.054-.154-.271-.195-.646-.125a5.967 5.967 0 0 1-.812.11c-.167.003-.292-.035-.372-.115-.082-.079-.159-.222-.234-.427L-5.105-8.95l-.11-.308-.154-.422c-.062-.166-.068-.3-.024-.404.045-.105.149-.221.312-.352.366-.265.62-.45.761-.56.139-.108.19-.221.149-.337-.079-.216-.249-.277-.51-.184-.065.024-.365.145-.897.36a45.783 45.783 0 0 1-2.907 1.062c-.401.132-.767.25-1.098.356-.376.135-.524.32-.44.55.075.204.315.251.719.14.408-.11.721-.161.943-.156a.75.75 0 0 1 .549.246c.145.159.299.46.462.909l.12.326.916 2.537c.089.242.133.41.14.502.004.093-.171.205-.524.333l-2.821 1.021-1.507.547c-.356.127-.61.206-.769.234-.161.029-.299-.118-.416-.438l-.593-1.638-.494-1.37-.077-.212c-.122-.334-.189-.594-.209-.785-.016-.19.181-.425.588-.704l.624-.355c.128-.076.161-.199.101-.366-.076-.206-.243-.259-.503-.165l-.473.17c-3.067 1.113-4.681 1.696-4.836 1.753-.117.044-.146.154-.079.334.04.114.139.174.288.175.47-.082.858-.136 1.166-.16.309-.024.535.053.684.231.145.179.302.492.464.94l2.993 8.259c.126.346.088.614-.109.8-.1.093-.315.256-.644.485-.333.228-.476.407-.429.533.052.142.209.165.471.07.118-.044.379-.147.785-.318.406-.169.694-.284.864-.345l2.5-.841.563-.226c.235-.085.319-.224.25-.416-.056-.154-.253-.187-.587-.102a4.182 4.182 0 0 1-.771.139.551.551 0 0 1-.424-.153c-.105-.106-.208-.294-.303-.562l-1.245-3.439c-.065-.166-.041-.301.062-.403.105-.103.346-.222.723-.36 1.424-.516 2.576-.914 3.457-1.199.88-.281 1.366-.426 1.462-.43.092-.006.174.065.244.215.068.149.129.294.179.434L-4.363.19c.111.307.068.54-.125.699-.408.262-.691.445-.854.547-.162.102-.217.224-.168.364.075.206.34.226.798.06l1.149-.44A29.833 29.833 0 0 1-1.766.846 29.286 29.286 0 0 0-.556.483C-.124.328.059.166 0 0" style="fill:#2a3f8a;fill-opacity:1;fill-rule:nonzero;stroke:none" transform="matrix(.89775 0 0 -.89775 117.568 14.843)"/><path d="M0 0c-.101-.146-.29-.177-.57-.091-.28.082-.484.137-.617.164-.322.07-.592.053-.81-.055-.218-.105-.436-.323-.658-.647l-.441-.641-1.491-2.174-.325-.471c-.609-.885-.987-1.426-1.139-1.622-.623-.809-1.228-1.385-1.816-1.725-.807-.487-1.644-.614-2.513-.384-.74.196-1.737.724-2.986 1.581-.767.527-1.39 1.089-1.87 1.691-.481.603-.778 1.188-.894 1.755a3.103 3.103 0 0 0 .087 1.637c.176.524.516 1.157 1.026 1.898.3.439.832 1.139 1.593 2.102.764.964 1.342 1.732 1.734 2.305.417.607.652.991.704 1.154.051.162-.027.313-.231.455-.802.55-1.134.926-.997 1.129.219.314.451.384.703.212l.345-.31 2.077-1.428 1.17-.802.274-.189.5-.267c.24-.166.279-.365.119-.6-.06-.087-.161-.128-.303-.125a.797.797 0 0 0-.435.157l-.36.249c-.288.194-.59.143-.906-.161-.318-.301-.826-.964-1.528-1.984l-2.221-3.237c-.876-1.28-1.299-2.318-1.267-3.117.032-.8.587-1.569 1.663-2.308.688-.473 1.332-.79 1.935-.958.603-.166 1.133-.179 1.587-.045.453.134.921.463 1.397.984.476.525 1.069 1.303 1.779 2.338l2.419 3.416.199.286c.231.337.285.616.159.834-.127.217-.385.561-.781 1.031-.218.265-.284.46-.202.584.133.19.403.144.812-.136l1.291-.962L-.407.649C-.021.384.114.167 0 0" style="fill:#2a3f8a;fill-opacity:1;fill-rule:nonzero;stroke:none" transform="matrix(.89775 0 0 -.89775 134.21 25.438)"/><path d="M0 0c-.059-.058-.167-.06-.33-.001-.158.054-.375.178-.643.372-.268.193-.447.295-.534.306C-1.79.69-2.347.285-3.179-.54l-6.51-6.288-.365-.359c-.366-.366-.606-.487-.724-.371-.157.159-.208.366-.157.622.05.256.101.517.148.776l.825 12.774c.009.107.021.209.039.307a.371.371 0 0 1-.102.277l-.129.046-.581-.575-4.471-4.614-.261-.258c-.377-.373-.602-.676-.679-.907-.079-.228-.045-.514.1-.852.036-.098.215-.401.53-.912.145-.242.15-.429.015-.563-.155-.154-.333-.128-.538.077l-2.577 2.598c-.604.605-.816.997-.645 1.169.11.105.268.087.485-.052.21-.139.388-.257.524-.356.323-.229.527-.348.616-.359.233-.042.495.08.783.368l6.575 6.261a.93.93 0 0 1 .282.75 1.16 1.16 0 0 1-.352.766l-.132.133c-.323.325-.402.57-.237.733.153.154.364.096.631-.171l.603-.606.631-.641.782-.696.547-.638c.157-.158.231-.295.222-.411-.009-.117-.019-.219-.027-.308l-.766-10.63a3.329 3.329 0 0 1-.004-.342c.006-.023.007-.066.009-.124.058.018.12.05.188.101.07.045.161.127.275.24L-3.144.874c.403.399.553.707.452.922-.1.216-.298.503-.59.853-.293.352-.38.586-.267.7.181.178.375.168.577-.036l.511-.514c.397-.403.858-.833 1.383-1.291.522-.461.862-.77 1.018-.927C.155.366.173.172 0 0" style="fill:#2a3f8a;fill-opacity:1;fill-rule:nonzero;stroke:none" transform="matrix(.89775 0 0 -.89775 144.732 35.719)"/><path d="M0 0c-.108-.083-.246-.046-.414.105-.439.401-.68.621-.724.656-.204.159-.361.233-.47.219-.111-.014-.296-.119-.557-.315l-6.53-4.918c-.891-.672-1.334-1.162-1.326-1.47.002-.137.08-.341.229-.608.152-.27.236-.415.252-.438.063-.175.011-.33-.162-.461-.152-.115-.319-.051-.504.192l-.274.366c-.13.214-.302.483-.521.806-.216.322-.411.599-.588.831a333.187 333.187 0 0 0-1.916 2.376c-.119.157-.095.294.07.416.207.158.417.09.635-.196l.087-.118c.386-.51.754-.739 1.106-.682.259.041.711.301 1.353.786l6.163 4.643.375.282c.559.42.684.831.379 1.236l-.16.214c-.217.285-.236.493-.062.623.173.132.395.02.663-.333l1.772-2.356C-.355.91.05.41.093.354.183.233.152.114 0 0" style="fill:#2a3f8a;fill-opacity:1;fill-rule:nonzero;stroke:none" transform="matrix(.89775 0 0 -.89775 148.453 40.936)"/><path d="M0 0c-.095-.053-.215 0-.363.163l-.436.471a.892.892 0 0 1-.502.275c-.085.013-.291.008-.615-.022L-13.793-.361c-.346-.025-.549.015-.614.123-.076.133.021.384.296.752l6.826 9.591c.327.467.437.836.324 1.107l-.291.724c-.084.208-.039.361.124.459.129.075.292-.056.489-.393a21.7 21.7 0 0 0 .393-.758c.215-.422.417-.794.605-1.117a31.52 31.52 0 0 1 .87-1.424c.275-.421.53-.8.764-1.145.144-.241.136-.405-.016-.496-.142-.08-.259-.062-.355.06a4.054 4.054 0 0 0-.319.489c-.32.441-.617.583-.89.423-.165-.097-.391-.339-.669-.73l-.573-.819-3.434-4.898c-.24-.352-.345-.553-.316-.602.069-.122.239-.16.509-.12l7.323 1.083.299.094c.372.217.49.484.358.804-.128.317-.243.598-.337.842-.094.242-.065.408.084.495.153.088.284.03.406-.174.063-.106.184-.335.362-.681.177-.346.334-.634.465-.863.168-.288.377-.625.627-1.009.247-.387.394-.622.442-.706C.183.366.196.116 0 0" style="fill:#2a3f8a;fill-opacity:1;fill-rule:nonzero;stroke:none" transform="matrix(.89775 0 0 -.89775 154.963 51.9)"/><path d="m0 0-.263-.066-2.318-.448c-.16-.038-.311.107-.454.441l-.204.478-2.514 6.043-.727 1.547c-.15.345-.099.569.143.674.259.11.509-.127.758-.706.231-.541.471-.828.721-.858.253-.03.722.102 1.412.396l7.342 3.134.205.091.303.128c.411.176.615.42.598.733-.084.476-.149.821-.198 1.036-.048.214 0 .351.136.41.164.069.304-.036.427-.317l.76-1.919 2.332-5.688c.182-.423.27-.682.269-.783-.004-.099-.119-.197-.345-.293l-1.988-.849c-.177-.075-.291-.049-.346.081-.078.18.015.401.274.666.36.351.569.614.626.791.263.752.097 1.823-.498 3.214-.253.593-.581.802-.984.629L1.981 7.076c-.316-.134-.378-.425-.187-.872.233-.549.42-.942.557-1.177.14-.237.318-.421.538-.553.217-.133.582-.206 1.09-.215.417-.003.66-.089.731-.253.076-.18-.024-.328-.299-.445L.856 2.155C.68 2.081.55 2.14.471 2.333c-.077.179-.017.337.184.476.2.139.413.288.644.445.498.427.438 1.365-.183 2.816-.152.36-.436.451-.846.276l-.544-.23-2.677-1.147c-.437-.184-.694-.416-.767-.69-.075-.275.012-.7.258-1.276.256-.606.556-1.084.892-1.441.338-.355.685-.571 1.044-.645.473-.071.794-.123.956-.16C-.119.675.139.559.206.405.28.226.213.091 0 0" style="fill:#2a3f8a;fill-opacity:1;fill-rule:nonzero;stroke:none" transform="matrix(.89775 0 0 -.89775 150.424 63.36)"/><path d="M0 0c.775.195 1.309.604 1.602 1.221.291.619.315 1.413.072 2.381-.105.406-.234.639-.388.7-.155.061-.442.038-.866-.069l-3.031-.699-.261-.132-.317-.077c-.209-.054-.266-.275-.169-.66.291-1.161.695-1.952 1.207-2.375C-1.639-.136-.921-.23 0 0m-7.663-7.087c-.226-.058-.394.137-.505.579-.014.055-.049.247-.103.575-.055.331-.118.634-.19.916a9.562 9.562 0 0 1-.213.688 13.04 13.04 0 0 0-.181.544c-.104.416-.055.721.15.916.233.188.426.351.575.488L-5.165.276c.519.46.863.841 1.032 1.149.169.307.21.642.117 1.005-.119.471-.475.63-1.071.48l-.1-.024-3.364-.913c-.253-.063-.422-.13-.509-.203-.086-.073-.14-.218-.154-.437.023-.539.035-.929.041-1.173.005-.241-.091-.387-.289-.437-.174-.043-.311.144-.417.561-.12.472-.256 1.068-.408 1.788-.155.72-.262 1.202-.323 1.447-.046.173-.133.47-.267.888-.134.419-.204.64-.207.666a5.88 5.88 0 0 0-.141.674c-.024.181.057.294.242.341.158.04.296-.036.417-.228.118-.194.238-.43.36-.716.12-.284.209-.455.265-.511.221-.203.834-.177 1.843.076l2.484.626 5.427 1.279.377.098c.278.07.414.187.416.352 0 .165-.027.494-.088.988-.061.492.021.768.247.824.184.048.312-.079.39-.375.047-.272.11-.626.188-1.059.077-.431.188-.943.34-1.536.097-.391.272-.999.522-1.825.25-.825.434-1.473.554-1.944.285-1.133.244-2.091-.119-2.878-.363-.785-.988-1.291-1.872-1.513-1.031-.26-1.947.031-2.75.876-.209.276-.357.471-.442.587-.086.114-.208.151-.364.111-.106-.026-.293-.18-.559-.463a15.27 15.27 0 0 0-.587-.599c-.9-.83-1.533-1.41-1.897-1.746-.593-.552-1.02-1.03-1.282-1.44-.183-.276-.293-.534-.332-.772-.024-.122-.024-.317.001-.591.027-.271.031-.465.01-.576-.022-.115-.098-.188-.229-.22" style="fill:#2a3f8a;fill-opacity:1;fill-rule:nonzero;stroke:none" transform="matrix(.89775 0 0 -.89775 158.02 68.89)"/><path d="M0 0c-1.205-.134-2.201.169-2.992.913-.786.744-1.267 1.869-1.435 3.374-.144 1.297-.131 2.253.04 2.866.169.614.522.95 1.049 1.009 1.609.18 2.435.104 2.471-.227.018-.153-.223-.332-.72-.541-.394-.158-.678-.314-.851-.475A3.61 3.61 0 0 1-3 6.229c-.521-.857-.736-1.691-.645-2.506.082-.732.345-1.296.788-1.694.44-.398 1.005-.558 1.697-.482.461.052.865.238 1.212.556.235.222.485.64.744 1.257.023.044.308.802.855 2.276.685 1.84 1.781 2.843 3.283 3.009 1.003.113 1.854-.166 2.56-.835.706-.669 1.127-1.639 1.272-2.911a9.055 9.055 0 0 0 .051-1.681c-.032-.471-.103-.809-.204-1.018-.067-.134-.201-.229-.408-.287-.208-.056-.566-.116-1.081-.173l-.711-.08c-.297-.034-.458.048-.478.241-.012.111.045.204.173.281.128.077.245.143.348.196 1.187.679 1.707 1.638 1.57 2.881-.07.621-.317 1.118-.741 1.49-.427.372-.896.527-1.411.471-.636-.071-1.086-.393-1.351-.97-.143-.323-.282-.68-.416-1.073a137.217 137.217 0 0 0-.645-1.96C3.045 2.192 2.567 1.422 2.037.91 1.503.395.826.092 0 0" style="fill:#2a3f8a;fill-opacity:1;fill-rule:nonzero;stroke:none" transform="matrix(.89775 0 0 -.89775 154.553 81.523)"/><path d="M0 0c-.138-.003-.228.108-.271.329-.117.583-.18.901-.197.956-.072.25-.154.401-.252.456-.094.054-.306.08-.634.076l-8.173-.102c-1.118-.017-1.763-.15-1.938-.403-.079-.111-.138-.32-.176-.626a8.99 8.99 0 0 1-.054-.5c-.052-.183-.188-.274-.405-.278-.193-.001-.289.15-.294.453l-.005.459c.024.25.045.567.06.956.014.387.021.727.019 1.018-.095 1.924-.14 2.941-.142 3.049-.003.197.099.294.302.297.258.003.391-.177.394-.538l.003-.145c.008-.637.171-1.04.487-1.203.235-.123.754-.179 1.559-.167l7.715.098.47.005c.697.008 1.041.267 1.035.775l-.005.265c-.004.358.105.537.322.54.216.003.329-.218.335-.66L.19 2.16C.25.943.282.3.283.231.285.078.189.001 0 0" style="fill:#2a3f8a;fill-opacity:1;fill-rule:nonzero;stroke:none" transform="matrix(.89775 0 0 -.89775 162.45 87.048)"/><path d="m0 0-2.996.409c-.258.027-.375.145-.353.352.019.181.209.291.571.338.358.043.603.101.736.171.563.302.948 1.378 1.149 3.23.042.413.011.668-.1.766-.116.094-.445.171-.999.233l-5.061.548-.384.043-1.281.138-1.611.132-.163.018c-.365.04-.617.047-.759.02-.139-.027-.256-.152-.348-.377-.094-.221-.179-.551-.26-.986-.082-.436-.171-.649-.266-.639l-.08.01c-.191.021-.307.056-.348.11-.045.054-.051.205-.024.454l.111 1.015c.329 3.052.503 4.654.522 4.807.027.262.129.383.305.364.19-.02.288-.226.293-.617.008-.394.022-.702.054-.931.065-.411.558-.666 1.479-.768l8.087-.876c.54-.06.88-.051 1.016.026.139.076.229.307.272.693.081.747.087 1.357.024 1.831-.065.477-.25.905-.551 1.287-.096.121-.387.407-.873.848-.311.287-.457.526-.436.72.02.18.111.259.274.242l.16-.018 2.997-1.373c.182-.09.266-.204.25-.343-.022-.192-.085-.319-.196-.378a7.684 7.684 0 0 1-.315-.176c-.108-.1-.187-.266-.239-.498a8.586 8.586 0 0 1-.144-.951l-.872-8.031c-.037-.331-.041-.565-.014-.699.026-.138.122-.284.282-.441C.024.621.125.54.214.459.303.381.342.299.333.215.314.05.203-.022 0 0" style="fill:#2a3f8a;fill-opacity:1;fill-rule:nonzero;stroke:none" transform="matrix(.89775 0 0 -.89775 161.926 99.492)"/><path d="M0 0c-.123.032-.178.229-.167.585.009.357-.092.685-.299.985l-3.652 5.331c-.285.409-.711.687-1.278.838l-.097.026-3.365.79c-.354.094-.635-.089-.843-.552-.133-.337-.267-.683-.403-1.035-.073-.11-.167-.15-.286-.116-.344.088-.464.315-.369.677.064.242.175.577.332 1.009.159.43.263.746.318.947.098.375.174.682.225.928.261 1.238.433 2.012.517 2.336.102.375.25.535.446.481.225-.059.315-.227.268-.501a3.775 3.775 0 0 1-.063-.631c.02-.667.378-1.094 1.076-1.279l2.21-.592c.437-.114.75-.174.949-.177.195 0 .388.037.579.115l5.885 2.161c.622.194.982.43 1.086.703.145.235.248.411.308.532.058.122.16.163.305.125.155-.042.2-.19.131-.447l-.108-.402a19.707 19.707 0 0 0-.344-1.127 76.567 76.567 0 0 1-.253-.783 26.735 26.735 0 0 1-.263-1.094c-.074-.356-.147-.694-.213-1.022l-.121-.444c-.115-.428-.243-.623-.389-.587-.209.058-.274.238-.19.549.186.698.124 1.088-.188 1.171a.51.51 0 0 1-.35-.012l-4.636-1.616c-.21-.087-.332-.212-.378-.373-.026-.094.047-.249.214-.465l3.074-3.757A.886.886 0 0 1 .1 3.015c.257-.068.426.053.508.36.124.372.223.642.294.817.073.177.171.247.302.21.129-.033.167-.152.113-.353l-.109-.401-.614-2.231L.351.274C.29.046.173-.044 0 0" style="fill:#2a3f8a;fill-opacity:1;fill-rule:nonzero;stroke:none" transform="matrix(.89775 0 0 -.89775 158.09 111.497)"/><path d="M0 0c-50.774 0-92.081-41.311-92.081-92.089 0-50.773 41.307-92.079 92.081-92.079 50.779 0 92.089 41.306 92.089 92.079C92.089-41.311 50.779 0 0 0m0-186.914c-52.289 0-94.827 42.539-94.827 94.825C-94.827-39.797-52.289 2.746 0 2.746c52.293 0 94.834-42.543 94.834-94.835 0-52.286-42.541-94.825-94.834-94.825" style="fill:#2a3f8a;fill-opacity:1;fill-rule:nonzero;stroke:none" transform="matrix(.89775 0 0 -.89775 85.13 2.465)"/><path d="M0 0c-36.919 0-66.956-30.038-66.956-66.959 0-36.919 30.037-66.955 66.956-66.955 36.923 0 66.961 30.036 66.961 66.955C66.961-30.038 36.923 0 0 0m0-135.911c-38.02 0-68.952 30.932-68.952 68.952C-68.952-28.937-38.02 1.997 0 1.997c38.023 0 68.956-30.934 68.956-68.956 0-38.02-30.933-68.952-68.956-68.952" style="fill:#2a3f8a;fill-opacity:1;fill-rule:nonzero;stroke:none" transform="matrix(.89775 0 0 -.89775 84.995 25)"/><path d="M0 0c-36.813 0-66.762-29.951-66.762-66.767 0-36.813 29.949-66.761 66.762-66.761 36.815 0 66.769 29.948 66.769 66.761C66.769-29.951 36.815 0 0 0m0-133.914c-37.026 0-67.148 30.122-67.148 67.147C-67.148-29.739-37.026.386 0 .386c37.029 0 67.152-30.125 67.152-67.153 0-37.025-30.123-67.147-67.152-67.147M0 1.997c-37.913 0-68.758-30.848-68.758-68.764 0-37.913 30.845-68.758 68.758-68.758 37.916 0 68.764 30.845 68.764 68.758C68.764-28.851 37.916 1.997 0 1.997m0-137.906c-38.126 0-69.144 31.017-69.144 69.142C-69.144-28.639-38.126 2.381 0 2.381c38.13 0 69.149-31.02 69.149-69.148 0-38.125-31.019-69.142-69.149-69.142" style="fill:#2a3f8a;fill-opacity:1;fill-rule:nonzero;stroke:none" transform="matrix(.89775 0 0 -.89775 84.995 25.173)"/><path d="m0 0 2.616 57.064L.747-.03l7.085 56.686L1.488-.117 13 55.833 2.223-.268 18.09 54.615 2.942-.465l20.123 53.464L3.641-.727l24.257 51.721L4.321-1.038 32.56 48.621 4.975-1.405 37.02 45.884 5.595-1.818l35.66 44.628L6.183-2.28l39.052 41.692-38.504-42.2 42.204 38.497L7.238-3.338l45.091 35.071L7.704-3.925l47.703 31.428L8.114-4.544l50.027 27.586L8.481-5.2l52.035 23.575L8.796-5.878l53.723 19.422L9.054-6.575 64.135 8.569 9.256-7.299 65.357 3.48 9.401-8.03l56.773 6.341L9.491-8.774l57.096 1.872L9.519-9.521l57.068-2.615-57.096 1.868 56.683-7.083-56.773 6.344 55.956-11.511L9.256-11.744l54.879-15.864L9.054-12.462l53.465-20.122L8.796-13.16l51.72-24.256L8.481-13.843l49.66-28.236L8.114-14.494l47.293-32.052-47.703 31.43 44.625-35.66L7.238-15.703l41.697-39.051-42.204 38.5 38.504-42.197L6.183-16.757l35.072-45.094-35.66 44.63L37.02-64.924 4.975-17.636 32.56-67.657 4.321-18.001l23.577-52.036L3.641-18.312l19.424-53.726L2.942-18.573 18.09-73.654 2.223-18.777 13-74.874 1.488-18.922 7.832-75.69.747-19.011l1.869-57.093L0-19.04l-2.616-57.064 1.871 57.093-7.089-56.679 6.342 56.768L-13-74.874l10.776 56.097-15.861-54.877L-2.94-18.573l-20.121-53.465 19.419 53.726-24.256-51.725 23.577 52.036-28.239-49.656 27.587 50.021-32.05-47.288 31.425 47.703-35.657-44.63 35.073 45.094-39.05-41.694 38.501 42.197-42.202-38.5 41.697 39.051-45.094-35.073 44.627 35.66-47.703-31.43 47.29 32.052-50.026-27.585L-8.48-13.843l-52.036-23.573 51.72 24.256-53.721-19.424L-9.05-12.462l-55.084-15.146 54.879 15.864-56.102-10.774 55.956 11.511-56.77-6.344 56.679 7.083-57.093-1.868 57.063 2.615-57.063 2.619 57.093-1.872-56.679 7.085 56.77-6.341-55.956 11.51L-9.255-7.299-64.134 8.569-9.05-6.575l-53.467 20.119L-8.796-5.878l-51.72 24.253L-8.48-5.2l-49.662 28.242L-8.116-4.544l-47.29 32.047L-7.703-3.925-52.33 31.733-7.236-3.338l-41.697 39.047L-6.731-2.788l-38.501 42.2L-6.182-2.28l-35.073 45.09L-5.598-1.818l-31.425 47.702 32.05-47.289-27.587 50.026L-4.321-1.038l-23.577 52.032L-3.642-.727l-19.419 53.726L-2.94-.465l-15.145 55.08L-2.224-.268-13 55.833-1.492-.117l-6.342 56.773L-.745-.03l-1.871 57.094Z" style="fill:#2a3f8a;fill-opacity:1;fill-rule:nonzero;stroke:none" transform="matrix(.89775 0 0 -.89775 85.133 76.15)"/><path d="m0 0-1.366.165A5.848 5.848 0 0 1 0 0" style="fill:#fff;fill-opacity:1;fill-rule:nonzero;stroke:none" transform="matrix(.89775 0 0 -.89775 85.747 131.196)"/><path d="m0 0-1.366-.165C-.86-.16-.407-.102 0 0" style="fill:#fff;fill-opacity:1;fill-rule:nonzero;stroke:none" transform="matrix(.89775 0 0 -.89775 85.747 131.048)"/><path d="M0 0c.074-.078-.242.131-8.782 5.966 0 0-14.688 13.359-23.517 13.049 0 0-3.825.31-6.717-2.817 0 0-6.053-6.25-11.551-7.681l.005.105-2.799 2.131v1.325a6.257 6.257 0 0 1 3.728 4.798l.008.043c.021.148.039.296.05.447v.006c.012.155.024.309.024.466a6.257 6.257 0 0 1-4.478 5.997 6.214 6.214 0 0 1-1.777.261h-.001a6.258 6.258 0 0 1-6.259-6.258c0-.158.012-.314.024-.468v-.003a7.28 7.28 0 0 1 .051-.45l.008-.041a6.258 6.258 0 0 1 3.726-4.798v-1.329l-2.797-2.127.006-.105c-5.498 1.431-11.553 7.681-11.553 7.681-2.89 3.127-6.715 2.817-6.715 2.817-8.828.31-23.518-13.049-23.518-13.049-8.539-5.835-8.857-6.044-8.782-5.966-.889-.665-.587-1.646-.587-1.646.349-1.564 2.068-1.761 2.068-1.761 9.101-1.563 14.999 1.251 14.999 1.251 7.027-5.311 14.058-.549 14.058-.549 5.628-3.982 10.978-.39 10.978-.39 3.316-2.695 7.263-.858 7.263-.858s1.742.941 2.37 2.225l.185-3.263-.008.029s-1.856-.453-3.511-2.08c-1.696-1.667-3.442-5.089-1.704-9.285 1.071-2.588 3.654-4.487 6.218-6.207l.576-10.143.002-.048c-2.249-.321-4.598-3.041-4.435-6.493.183-3.816 2.822-6.112 5.281-8.398l.287-5.063c-6.938 5.511-22.793 6.468-30.861-3.551 0 0-1.368-15.548-1.691-19.411.618-.589 1.234-1.579 1.538-2.515a52.34 52.34 0 0 0 3.672 1.884c15.557 7.228 23.772.838 24.848-.443.274-1.229 1.15-2.473 2.897-2.912h2.729c1.75.439 2.624 1.683 2.899 2.912 1.075 1.281 9.29 7.671 24.847.443a52.59 52.59 0 0 0 3.674-1.884c.302.936.918 1.926 1.536 2.515-.324 3.863-1.692 19.411-1.692 19.411-6.939 8.62-19.643 9.115-27.476 5.579-.069 2.199-1.129 3.529-2.966 5.326v.011l.474 8.346c.785-.007 6.442.541 6.442 8.289 0 1.894-.325 5.589-5.408 9.933l.462 8.154.096-.018.57-.151c.223-.059 1.391-.434 2.383-1.98.272-.514 1.191-1.973 2.152-2.515l.147-.113c.085-.084 2.869-2.22 2.926-1.496l.058.683.681-.036c.007.001.618-.023.95.369.347.405.279 1.144.152 1.756-.008.024-.348 2.599-2.232 4.744l-.766.869c-1.38 1.4-4.499 3.518-6.798 3.518l.184 3.234c.628-1.284 2.37-2.225 2.37-2.225s3.946-1.837 7.263.858c0 0 5.35-3.592 10.978.39 0 0 7.03-4.762 14.058.549 0 0 5.899-2.814 14.999-1.251 0 0 1.718.197 2.069 1.761 0 0 .301.981-.588 1.646" style="fill:#fff;fill-opacity:1;fill-rule:nonzero;stroke:none" transform="matrix(.89775 0 0 -.89775 135.438 58.888)"/><path d="m0 0-1.365.165A5.84 5.84 0 0 1 0 0" style="fill:#fff;fill-opacity:1;fill-rule:nonzero;stroke:none" transform="matrix(.89775 0 0 -.89775 85.337 130.52)"/><path d="m0 0-1.364-.165A5.89 5.89 0 0 1 0 0" style="fill:#fff;fill-opacity:1;fill-rule:nonzero;stroke:none" transform="matrix(.89775 0 0 -.89775 86.562 130.372)"/><path d="m0 0-.033.001a.603.603 0 0 0-.571.641L.358 17.66a.607.607 0 0 0 1.153.232c.532-1.092 2.096-1.949 2.113-1.956.114-.052 3.62-1.619 6.592.794.208.168.501.18.722.034.205-.138 5.083-3.304 10.287.382a.61.61 0 0 0 .69.006c.274-.182 6.766-4.446 13.354.531a.604.604 0 0 0 .627.064c.059-.026 5.851-2.709 14.635-1.201.082.01 1.329.181 1.579 1.294a.95.95 0 0 1-.361 1.026l.005.006c-.29.166-.719.456-1.386.912-1.2.814-3.395 2.312-7.378 5.034-.023.017-.046.034-.067.053-.144.13-14.28 12.894-22.796 12.894-.098 0-.195-.001-.291-.004-.024-.003-.048 0-.07.001-.036.005-3.579.238-6.22-2.622-.262-.269-6.248-6.399-11.848-7.858a.607.607 0 0 0-.715.364l-2.598 1.978a.606.606 0 0 0-.239.483v1.325c0 .242.146.463.368.557a5.684 5.684 0 0 1 3.421 4.775c.01.172.021.297.021.426a5.684 5.684 0 0 1-4.043 5.417 5.684 5.684 0 0 1-1.606.234 5.656 5.656 0 0 1-5.651-5.651c0-.141.012-.281.023-.42.01-.142.025-.276.046-.409.301-1.952 1.59-3.612 3.372-4.37a.61.61 0 0 0 .368-.559v-1.331a.61.61 0 0 0-.239-.484l-2.594-1.972a.61.61 0 0 0-.719-.363c-5.598 1.459-11.585 7.589-11.837 7.847-2.653 2.871-6.193 2.638-6.23 2.633-.023-.001-.047-.003-.068-.001-8.476.268-22.943-12.758-23.089-12.89-.021-.019-.043-.036-.065-.053-3.985-2.722-6.18-4.22-7.38-5.034-.668-.456-1.095-.746-1.386-.912l.005-.006a.932.932 0 0 1-.372-.982c.262-1.157 1.508-1.328 1.559-1.334 8.813-1.512 14.609 1.171 14.667 1.197a.607.607 0 0 0 .628-.064c6.605-4.993 13.285-.575 13.352-.531a.607.607 0 0 0 .69-.006c5.226-3.701 10.238-.416 10.289-.382.22.148.512.134.72-.034 2.989-2.427 6.589-.795 6.625-.779-.002 0 1.549.856 2.082 1.942a.607.607 0 0 0 1.15-.233l.549-9.689a.607.607 0 0 0-.572-.64.613.613 0 0 0-.64.573l-.457 8.097a8.436 8.436 0 0 0-1.568-1.135c-.201-.095-4.106-1.863-7.596.663-1.35-.737-6.049-2.837-10.953.399-1.549-.886-7.837-3.937-14.117.573-1.402-.579-6.96-2.538-15.023-1.153-.054.006-2.12.263-2.559 2.227-.145.471-.154 1.539.819 2.265a.56.56 0 0 0 .13.073c.375.241 2.35 1.588 8.637 5.886.946.855 14.721 13.181 23.59 13.181.1 0 .196-.001.294-.004.443.03 4.24.161 7.172-3.011.048-.05 5.709-5.843 10.875-7.398l2.416 1.835v.642a6.911 6.911 0 0 0-3.783 5.631 6.391 6.391 0 0 0-.027.515 6.875 6.875 0 0 0 6.867 6.867 6.87 6.87 0 0 0 1.95-.286 6.904 6.904 0 0 0 4.914-6.581c0-.158-.011-.315-.023-.47a5.89 5.89 0 0 0-.058-.535c-.346-2.237-1.757-4.158-3.73-5.143v-.635l2.417-1.84c5.168 1.555 10.828 7.349 10.886 7.409 2.924 3.161 6.714 3.025 7.162 3 8.869.285 22.929-12.313 23.884-13.177 6.288-4.298 8.266-5.645 8.638-5.886a.587.587 0 0 0 .131-.073 2.133 2.133 0 0 0 .804-2.31c-.428-1.919-2.492-2.176-2.579-2.187-8.038-1.381-13.587.579-14.989 1.158-6.277-4.509-12.568-1.459-14.117-.573-4.902-3.235-9.603-1.136-10.951-.399-3.493-2.526-7.397-.758-7.566-.678-.07.038-.858.466-1.598 1.15L.605.573A.605.605 0 0 0 0 0m-6.185-21.226a.606.606 0 0 0-.603.574l-.99 17.443a.607.607 0 1 0 1.212.067l.99-17.441a.606.606 0 0 0-.571-.641l-.038-.002m4.678-5.343-.035.002a.607.607 0 0 0-.572.64l.912 16.056A.606.606 0 1 0 .01-9.939l-.912-16.057a.606.606 0 0 0-.605-.573m-1.168-20.567h-2.038a.605.605 0 0 0-.605.573l-1.038 18.275a.609.609 0 0 0 .573.642.61.61 0 0 0 .64-.574l1.004-17.701h.889l.726 12.765a.613.613 0 0 0 .642.572.607.607 0 0 0 .571-.64l-.757-13.339a.61.61 0 0 0-.607-.573" style="fill:#2a3f8a;fill-opacity:1;fill-rule:nonzero;stroke:none" transform="matrix(.89775 0 0 -.89775 88.653 76.262)"/><path d="m0 0-.002-.006zm.471-.799C-.516-.799-2.344.67-2.689.96h-.002l-.115.087c-1.297.761-2.34 2.72-2.351 2.74-.864 1.339-1.889 1.646-2.003 1.676l-.568.151a.609.609 0 0 0-.434.741.61.61 0 0 0 .744.433l.568-.151c.371-.097 1.658-.549 2.742-2.239.318-.596 1.167-1.878 1.938-2.315a.4.4 0 0 0 .068-.045l.149-.113c.018-.015.038-.03.057-.049C-1.598 1.625-.572.896.047.567l.011.114c.028.326.32.563.636.555l.663-.035c.166.002.386.05.473.154.054.064.211.332.021 1.241-.076.462-.487 2.64-2.092 4.465l-.767.867c-1.355 1.375-4.334 3.314-6.342 3.314a.607.607 0 1 0 0 1.214c2.474 0 5.717-2.164 7.231-3.7l.788-.892c1.827-2.077 2.297-4.556 2.373-5.032.217-1.041.124-1.785-.286-2.265-.441-.52-1.124-.579-1.399-.581a.23.23 0 0 0-.045.002l-.094.004-.01-.097a.742.742 0 0 0-.481-.653.728.728 0 0 0-.256-.041m-9.212-12.497c-.019 0-.038 0-.057.002a.608.608 0 0 0-.55.66c.191 2.074-2.499 3.865-5.346 5.759-2.87 1.91-6.125 4.076-7.389 7.128-1.769 4.265-.209 7.937 1.84 9.95 1.755 1.725 3.709 2.216 3.791 2.236a.607.607 0 0 0 .287-1.18c-.014-.005-1.72-.442-3.228-1.922-1.764-1.736-3.104-4.912-1.57-8.619 1.124-2.712 4.083-4.678 6.942-6.582 3.158-2.101 6.139-4.084 5.883-6.88a.605.605 0 0 0-.603-.552m-1.278-23.029a.61.61 0 0 0-.569.396c-.708 1.9-2.308 3.382-4.001 4.953-2.454 2.276-4.992 4.63-5.18 8.541-.18 3.813 2.416 6.761 4.956 7.124a.609.609 0 0 0 .687-.515.606.606 0 0 0-.515-.688c-1.969-.282-4.062-2.759-3.913-5.863.163-3.416 2.41-5.501 4.791-7.708 1.723-1.598 3.505-3.25 4.313-5.42a.606.606 0 0 0-.569-.82m3.006-1.015a.605.605 0 0 0-.591.744c1 4.361-.215 5.518-3.459 8.61-.673.641-1.438 1.368-2.268 2.213a.608.608 0 0 0 .865.852c.818-.831 1.573-1.55 2.241-2.187 3.302-3.145 4.959-4.725 3.804-9.761a.608.608 0 0 0-.592-.471" style="fill:#2a3f8a;fill-opacity:1;fill-rule:nonzero;stroke:none" transform="matrix(.89775 0 0 -.89775 95.953 73.98)"/><path d="M0 0s.451-.367 1.209-1.979c0 0 .829-.716 1.277-.843l.192.86s.01.504-1.204 1.485c0 0-.748.367-1.474.477" style="fill:#2f5685;fill-opacity:1;fill-rule:nonzero;stroke:none" transform="matrix(.89775 0 0 -.89775 93.525 67.761)"/><path d="M0 0h-.008a.607.607 0 0 0 .005 1.215h.004c.049 0 2.132.016 3.799 1.67 1.349 1.339 2.032 3.362 2.032 6.011 0 2.221-1.082 6.706-5.14 9.43-4.566 3.066-6.379 4.91-6.453 4.988a.607.607 0 0 0 .87.848c.019-.019 1.818-1.845 6.26-4.829 5.52-3.702 5.678-9.758 5.678-10.437 0-2.984-.805-5.297-2.39-6.872C2.655.037.18 0 0 0" style="fill:#2a3f8a;fill-opacity:1;fill-rule:nonzero;stroke:none" transform="matrix(.89775 0 0 -.89775 87.727 92.622)"/><path d="M0 0c-8.854 11-27.101 8.773-32.626 1.812C-38.152 8.773-56.399 11-65.256 0c0 0-1.369-15.547-1.692-19.41.619-.59 1.235-1.579 1.538-2.515 17.944 10.123 27.363 2.82 28.52 1.44.338-1.515 1.588-3.05 4.264-3.076 2.674.026 3.922 1.561 4.262 3.076 1.155 1.38 10.576 8.683 28.52-1.44.303.936.917 1.925 1.536 2.515C1.369-15.547 0 0 0 0" style="fill:#fff;fill-opacity:1;fill-rule:nonzero;stroke:none" transform="matrix(.89775 0 0 -.89775 114.628 109.369)"/><path d="M0 0a.606.606 0 0 0-.441.191C-11.71 12.099-28.94 4.845-33.942.855a.605.605 0 0 0-.983.525c.32 3.82 1.678 19.256 1.692 19.412.011.12.056.233.131.327 4.029 5.005 10.519 7.869 17.816 7.869h.093C-8.579 28.967-2.43 26.587.476 22.93a.606.606 0 0 0-.099-.853.61.61 0 0 0-.853.097c-2.684 3.381-8.462 5.579-14.72 5.599h-.09c-6.857 0-12.948-2.646-16.754-7.274-.14-1.598-1.148-13.043-1.564-17.898C-27.285 6.828-10.69 12.79.44 1.024A.603.603 0 0 0 .416.167.6.6 0 0 0 0 0" style="fill:#2a3f8a;fill-opacity:1;fill-rule:nonzero;stroke:none" transform="matrix(.89775 0 0 -.89775 85.337 127.987)"/><path d="M0 0a.6.6 0 0 0-.417.167.603.603 0 0 0-.024.857c11.13 11.765 27.725 5.804 34.044 1.577-.416 4.855-1.424 16.3-1.565 17.898-3.805 4.628-9.895 7.274-16.753 7.274h-.088c-6.259-.02-12.038-2.218-14.721-5.599a.61.61 0 0 0-.854-.097.605.605 0 0 0-.098.853c2.905 3.657 9.056 6.037 15.668 6.058h.093c7.298 0 13.787-2.864 17.816-7.869a.596.596 0 0 0 .131-.327c.015-.156 1.372-15.592 1.694-19.412a.606.606 0 0 0-.984-.526C28.939 4.845 11.708 12.099.44.191A.6.6 0 0 0 0 0" style="fill:#2a3f8a;fill-opacity:1;fill-rule:nonzero;stroke:none" transform="matrix(.89775 0 0 -.89775 85.337 127.987)"/><path d="M0 0a.605.605 0 0 0-.606.607v21.945a.606.606 0 1 0 1.213 0V.607A.606.606 0 0 0 0 0" style="fill:#2a3f8a;fill-opacity:1;fill-rule:nonzero;stroke:none" transform="matrix(.89775 0 0 -.89775 85.337 127.987)"/><path d="M0 0h-.006c-3.535.032-4.543 2.402-4.807 3.376-.941.9-9.766 8.439-27.671-1.663a.6.6 0 0 0-.519-.036.599.599 0 0 0-.356.378c-.269.823-.822 1.732-1.38 2.263a.608.608 0 1 0 .837.88c.546-.52 1.071-1.293 1.431-2.087C-16 12.134-6.018 6.721-3.799 4.073a.609.609 0 0 0 .128-.258c.173-.773.88-2.576 3.676-2.6A.607.607 0 0 0 0 0" style="fill:#2a3f8a;fill-opacity:1;fill-rule:nonzero;stroke:none" transform="matrix(.89775 0 0 -.89775 85.337 131.065)"/><path d="M0 0a.606.606 0 0 0-.006 1.215c2.797.024 3.503 1.827 3.677 2.6a.596.596 0 0 0 .127.258c2.22 2.648 12.204 8.059 28.672-.962.361.794.885 1.567 1.431 2.087.243.23.628.221.86-.021a.609.609 0 0 0-.022-.859c-.558-.531-1.112-1.44-1.379-2.263a.607.607 0 0 0-.877-.342C14.578 11.814 5.753 4.274 4.812 3.376 4.549 2.402 3.541.032.005 0Z" style="fill:#2a3f8a;fill-opacity:1;fill-rule:nonzero;stroke:none" transform="matrix(.89775 0 0 -.89775 85.337 131.065)"/><path d="M0 0s1.5 1.108 2.536 2.253c0 0 .632.627-.204 2.058 0 0-.728.909-2.056-.079 0 0-7.606-7.421-14.035-4.037 0 0 4.167 1.72 7.342 5.079 0 0 .521.831-.391 1.717 0 0-.91.811-1.797.237 0 0-.363-.209-.883-.627-.521-.416-8.697-7.63-19.684-6.366 0 0 2.5 1.171 5.896 3.906 0 0 7.108 6.288 10.427 8.436 0 0 4.024-2.929 10.391 1.015 0 0-5.937-5.898 5.466-3.163 0 0-4.098-2.735 1.759-3.867 0 0 .507-2.888 4.216-3.594 0 0-2.847-5.192-8.983-2.968" style="fill:#2a3f8a;fill-opacity:1;fill-rule:nonzero;stroke:none" transform="matrix(.89775 0 0 -.89775 65.455 59.667)"/><path d="M0 0s1.38 1.251 1.745 2.419c0 0 1.198-1.354 3.647-1.274 0 0-2.527-2.891-5.392-1.145" style="fill:#2a3f8a;fill-opacity:1;fill-rule:nonzero;stroke:none" transform="matrix(.89775 0 0 -.89775 74.77 59.408)"/><path d="M0 0c2.448-.079 3.647 1.274 3.647 1.274.365-1.168 1.745-2.419 1.745-2.419C2.525-2.89 0 0 0 0" style="fill:#2a3f8a;fill-opacity:1;fill-rule:nonzero;stroke:none" transform="matrix(.89775 0 0 -.89775 91.063 58.38)"/><path d="M0 0c-.52.417-.883.626-.883.626C-1.769 1.201-2.68.39-2.68.39c-.908-.886-.391-1.716-.391-1.716 3.175-3.36 7.345-5.08 7.345-5.08C-2.158-9.79-9.762-2.369-9.762-2.369c-1.328.988-2.058.079-2.058.079-.835-1.431-.204-2.059-.204-2.059 1.038-1.145 2.537-2.252 2.537-2.252-6.136-2.225-8.983 2.968-8.983 2.968 3.708.706 4.215 3.595 4.215 3.595 5.858 1.131 1.761 3.866 1.761 3.866 11.401-2.735 5.467 3.163 5.467 3.163C-.663 3.047 3.361 5.974 3.361 5.974 6.682 3.828 13.788-2.46 13.788-2.46c3.397-2.735 5.897-3.906 5.897-3.906C8.697-7.63.523-.417 0 0" style="fill:#2a3f8a;fill-opacity:1;fill-rule:nonzero;stroke:none" transform="matrix(.89775 0 0 -.89775 113.736 53.741)"/><path d="M0 0c0-1.378-.459-2.496-1.024-2.496-.568 0-1.027 1.118-1.027 2.496s.459 2.496 1.027 2.496C-.459 2.496 0 1.378 0 0" style="fill:#fff;fill-opacity:1;fill-rule:nonzero;stroke:none" transform="matrix(.89775 0 0 -.89775 88.224 137.23)"/><path d="M0 0v-6.462h-1.619v3.463c0 .498-.009.799-.034.902a.362.362 0 0 1-.198.233c-.105.049-.342.073-.716.073h-.16v.749C-1.945-.874-1.355-.526-.951 0z" style="fill:#2a3f8a;fill-opacity:1;fill-rule:nonzero;stroke:none" transform="matrix(.89775 0 0 -.89775 78.459 134.171)"/><path d="M0 0c.127-.264.333-.466.621-.613.291-.146.664-.218 1.118-.218.368 0 .693.057.97.176.282.113.502.286.668.519.163.232.258.479.275.737.025.259.035.773.035 1.545v.895c0 .71-.014 1.186-.035 1.438a1.48 1.48 0 0 1-.266.707c-.15.226-.369.399-.644.522-.278.118-.631.178-1.06.178a2.45 2.45 0 0 1-.921-.157 1.464 1.464 0 0 1-.622-.439 1.315 1.315 0 0 1-.276-.613c-.037-.221-.051-.563-.051-1.008v-.518c0-.384.028-.688.089-.91.061-.226.206-.411.432-.575a1.33 1.33 0 0 1 .781-.239c.239 0 .434.046.592.123a.817.817 0 0 1 .361.387V.912c0-.24-.002-.4-.007-.477a.31.31 0 0 0-.092-.197.268.268 0 0 0-.201-.075.32.32 0 0 0-.229.08.312.312 0 0 0-.099.196c-.005.073-.01.262-.01.56H-.188C-.188.601-.128.267 0 0m1.429 4.239c0 .298.035.482.111.549.074.069.144.106.212.106.114 0 .192-.046.242-.136.047-.089.073-.276.073-.561V3.024c0-.242-.026-.4-.076-.481-.052-.08-.133-.122-.244-.122-.073 0-.144.034-.215.099-.071.06-.103.231-.103.504Z" style="fill:#2a3f8a;fill-opacity:1;fill-rule:nonzero;stroke:none" transform="matrix(.89775 0 0 -.89775 80.49 139.341)"/><path d="M0 0a.99.99 0 0 0 .547-.399c.118-.188.181-.629.181-1.321 0-.512-.06-.908-.179-1.19a1.256 1.256 0 0 0-.603-.651c-.289-.148-.653-.218-1.101-.218-.511 0-.909.085-1.2.259-.291.172-.479.379-.574.628-.088.247-.136.683-.136 1.299v.51h1.603v-1.051c0-.285.019-.462.049-.537.033-.079.106-.116.22-.116.122 0 .204.049.242.142.039.101.057.348.057.753v.445c0 .247-.027.428-.082.546a.41.41 0 0 1-.244.226c-.106.036-.315.054-.623.062V.32c.381 0 .617.017.709.046.09.03.156.094.195.192.04.102.062.254.062.466v.36c0 .227-.025.375-.074.448-.044.075-.12.113-.217.113-.114 0-.188-.043-.229-.117-.045-.075-.065-.241-.065-.487V.808h-1.603v.551c0 .615.143 1.034.423 1.252.279.217.727.325 1.34.325.767 0 1.283-.149 1.561-.453.273-.299.409-.719.409-1.254C.668.869.619.608.521.443.421.282.247.134 0 0" style="fill:#2a3f8a;fill-opacity:1;fill-rule:nonzero;stroke:none" transform="matrix(.89775 0 0 -.89775 88.303 136.693)"/><path d="M0 0a1.32 1.32 0 0 1-.622.617c-.294.147-.663.218-1.119.218-.365 0-.692-.058-.973-.173-.278-.116-.5-.29-.664-.523a1.487 1.487 0 0 1-.277-.734 22.612 22.612 0 0 1-.034-1.545v-.895c0-.712.013-1.192.037-1.442.029-.247.116-.482.264-.709a1.47 1.47 0 0 1 .638-.515c.282-.122.637-.18 1.07-.18.352 0 .656.052.918.155.262.104.472.25.618.439.153.189.245.392.278.616.037.217.053.555.053 1.009v.516c0 .382-.032.684-.091.91-.061.222-.202.414-.433.573a1.294 1.294 0 0 1-.779.241c-.235 0-.433-.044-.591-.127a.84.84 0 0 1-.363-.388v1.03c0 .24.003.398.01.479a.3.3 0 0 0 .095.195.276.276 0 0 0 .198.076.328.328 0 0 0 .232-.081.298.298 0 0 0 .095-.197c.005-.076.01-.263.01-.564H.187C.187-.595.122-.262 0 0m-1.43-4.233c0-.302-.037-.482-.111-.555-.075-.067-.145-.099-.212-.099-.114 0-.195.046-.245.133-.048.088-.072.277-.072.562v1.173c0 .242.024.394.076.482.052.079.131.121.246.121.109 0 .191-.042.242-.128.049-.085.076-.249.076-.475z" style="fill:#2a3f8a;fill-opacity:1;fill-rule:nonzero;stroke:none" transform="matrix(.89775 0 0 -.89775 94.089 134.807)"/></svg>