<svg xmlns="http://www.w3.org/2000/svg" xml:space="preserve" width="602.54254" height="500" viewBox="0 0 602.54254 500"><path d="m258.627 287.298-1.68-3.269c-.858.712-1.788 1.071-2.796 1.071a2.1 2.1 0 0 1-1.18-.34c-.414-.257-.623-.595-.623-1.013 0-.657.623-1.17 1.868-1.547l1.077-.318c1.26-.395 2.21-.882 2.838-1.486.775-.745 1.162-1.729 1.162-2.944 0-1.962-.561-3.419-1.678-4.367-1.205-1.018-2.736-1.522-4.598-1.522-2.037 0-3.933.616-5.701 1.847l1.81 3.398c1.273-1.121 2.522-1.683 3.739-1.683.542 0 1.022.147 1.429.422.408.28.613.688.613 1.215 0 .516-.314.938-.947 1.269-.298.171-.838.364-1.612.58-1.562.447-2.623.909-3.182 1.401-.801.684-1.204 1.747-1.204 3.172 0 1.635.526 2.953 1.57 3.952 1.047.992 2.386 1.49 4.02 1.49 1.82 0 3.512-.441 5.075-1.328M276.771 271.99l-6.106 16.212h-4.602l-6.233-16.212h4.472l1.116 2.821h5.8l1.056-2.821zm-8.453 11.195h.046l1.72-5.155h-3.502zM282.285 271.99h-4.212l-.003 16.212h4.215l7.721-9.909h.042v9.91h4.216V271.99h-4.216l-7.715 9.931h-.048zM304.813 277.734v3.31h8.36c-.027-1.411-.129-2.517-.302-3.336a8.09 8.09 0 0 0-1.352-3.07c-1.523-2.123-3.748-3.177-6.685-3.183-2.547 0-4.633.786-6.232 2.376-1.61 1.584-2.408 3.642-2.408 6.181 0 2.622.807 4.728 2.427 6.33 1.62 1.596 3.738 2.396 6.364 2.396 3.486 0 5.917-1.512 7.31-4.534l-3.999-1.675c-.647 1.715-1.814 2.578-3.506 2.578-1.302 0-2.35-.546-3.137-1.634-.715-.976-1.075-2.14-1.075-3.48 0-1.355.362-2.513 1.094-3.485.803-1.064 1.864-1.594 3.184-1.594.944 0 1.729.245 2.344.735.616.486.968 1.18 1.05 2.085zM321.818 271.99h-4.19l2.747 16.212h4.15l3.293-8.665 3.483 8.665h4.187l2.455-16.21-4.215-.002-1.18 9.335h-.046l-3.887-9.335h-1.684l-3.713 9.335h-.045zM342.866 271.993l-.006 7.783-5.975 8.426h5.05l3.035-4.407 3.024 4.407h5.056l-5.975-8.426v-7.783zM363.863 279.668v8.534h4.21v-9.115c0-1.319-.077-2.336-.232-3.053-.261-1.073-.75-1.962-1.468-2.663-1.226-1.204-3.023-1.805-5.37-1.805-2.357 0-4.142.6-5.373 1.805-.72.701-1.207 1.59-1.464 2.663-.16.717-.237 1.734-.237 3.053v9.115h4.21v-8.537c0-1.372.142-2.367.41-2.983.432-.95 1.244-1.421 2.454-1.421 1.197 0 2.019.472 2.45 1.421.27.616.41 1.61.41 2.986M374.952 271.993h-4.215v16.21h4.215l7.716-9.91h.041v9.91h4.21v-16.21h-4.21l-7.72 9.932h-.037zM397.475 277.734v3.313h8.362c-.03-1.407-.133-2.517-.302-3.333a8.012 8.012 0 0 0-1.352-3.07c-1.522-2.128-3.746-3.183-6.686-3.183-2.55 0-4.628.785-6.238 2.37-1.597 1.587-2.408 3.643-2.408 6.181 0 2.625.81 4.728 2.431 6.33 1.618 1.603 3.743 2.399 6.361 2.399 3.486 0 5.923-1.513 7.31-4.537l-3.997-1.672c-.643 1.717-1.808 2.575-3.504 2.575-1.303 0-2.35-.546-3.14-1.634-.719-.973-1.07-2.137-1.07-3.48 0-1.347.36-2.513 1.096-3.485.797-1.058 1.862-1.594 3.182-1.594.945 0 1.72.248 2.337.735.625.489.97 1.185 1.058 2.085zM266.992 254.715v8.537h4.215v-9.119c0-1.317-.08-2.335-.237-3.048-.257-1.075-.75-1.97-1.46-2.67-1.235-1.203-3.026-1.802-5.376-1.802-2.348 0-4.141.599-5.377 1.801-.712.702-1.2 1.593-1.46 2.665-.156.719-.236 1.737-.236 3.054v9.12h4.216v-8.538c0-1.375.133-2.37.407-2.99.432-.946 1.244-1.422 2.45-1.422 1.204 0 2.022.476 2.45 1.423.27.618.408 1.614.408 2.989M278.08 247.036h-4.214v16.217h4.215l7.717-9.912h.043v9.912h4.212v-16.217h-4.212l-7.72 9.936h-.04zM293.904 263.252h4.215v-16.216h-4.215zM300.276 263.252h4.58l3.916-9.845 3.928 9.845h4.58l-6.925-16.212h-3.266zM328.66 263.252v-3.568h-5.008v-2.71h4.75v-3.567h-4.75v-2.8h5.008v-3.567h-9.225v16.212zM343.385 255.297c.605.818.904 1.806.904 2.964 0 1.665-.536 2.922-1.608 3.787-.997.799-2.336 1.204-4.024 1.204h-6.295V247.04h4.21v6.234h.045l3.976-6.234h5.244l-5.096 6.645c1.118.2 1.996.736 2.644 1.612m-3.483 2.712c0-1.352-.974-2.024-2.92-2.024h-.41v4.038h.41c1.946 0 2.92-.67 2.92-2.014M357.549 262.347l-1.674-3.267c-.862.718-1.79 1.074-2.798 1.074-.442 0-.836-.111-1.18-.342-.42-.257-.626-.594-.626-1.007 0-.662.625-1.178 1.876-1.552l1.07-.32c1.258-.385 2.207-.884 2.838-1.484.776-.747 1.167-1.731 1.167-2.945 0-1.965-.565-3.419-1.68-4.365-1.207-1.019-2.736-1.527-4.594-1.527-2.043 0-3.941.619-5.7 1.849l1.797 3.4c1.276-1.122 2.527-1.679 3.74-1.679.547 0 1.02.139 1.431.418.411.283.616.685.616 1.215 0 .514-.314.94-.949 1.266-.293.172-.833.367-1.612.58-1.557.447-2.624.912-3.183 1.402-.793.682-1.198 1.749-1.198 3.18 0 1.631.519 2.943 1.572 3.942 1.042.995 2.381 1.492 4.018 1.492 1.814 0 3.51-.439 5.069-1.33M361.317 263.252h4.215V247.04h-4.215zM379.316 259.686l-3.477-.003V247.04h-4.218v12.643h-3.483v3.569h11.178zM386.138 247.04v7.785l-5.975 8.427h5.051l3.033-4.41 3.03 4.41h5.051l-5.975-8.427v-7.785zM236.586 330.452l.023-.044H245.636l-.066.12-12.653 22.305.014 4.777v.077h-7.072v-.077l.003-4.863-12.455-22.22-.068-.119h9.026l.023.044 7.102 13.922zM294.668 357.687v-5.253h-6.916v-6.423h6.916v-3.255h-6.916v-6.42h6.916v-6.005h7.071v27.356zM253.193 348.281v9.318h-7.07v-27.164h7.07v11.423h6.911v6.423h-.079zM391.298 348.37v9.317H384.224V330.472H391.298v11.474h6.91v6.423h-.077zM341.1 357.733h-.082v-10.154h-4.908v10.157h-7.048v-57.682h7.048V341.095h4.908V300.054h7.054v57.679h-.086zM308.855 356.903h-.071V330.69h18.374v6.34H316.01v13.453H327.223v6.42h-.086zM391.195 326.058H358.57v-6.381h25.654v-19.602H391.315v25.983h-.084zM278.859 337.063h-8.787v13.44h8.787zm6.99-6.426v26.288H262.937v-26.288H285.767zM238.853 306.092c-2.031 0-3.776.746-5.19 2.214-1.416 1.465-2.131 3.237-2.131 5.27.054 2.08.798 3.868 2.214 5.31 1.417 1.438 3.156 2.171 5.19 2.171 2.02 0 3.753-.754 5.14-2.25 1.38-1.489 2.08-3.26 2.093-5.273-.012-2.068-.714-3.837-2.09-5.27-1.39-1.441-3.15-2.172-5.226-2.172m14.466 7.568c-.018 4.03-1.43 7.526-4.207 10.38-2.795 2.876-6.272 4.333-10.345 4.333-4.013 0-7.47-1.457-10.262-4.332-2.79-2.877-4.209-6.397-4.209-10.464 0-4.07 1.42-7.604 4.21-10.507 2.792-2.9 6.246-4.373 10.261-4.373 4.073 0 7.567 1.473 10.388 4.373 2.82 2.903 4.25 6.437 4.25 10.507v.083h-.08zM287.276 306.12c-2.031 0-3.776.742-5.188 2.213-1.413 1.461-2.133 3.235-2.133 5.27.054 2.075.798 3.864 2.216 5.31 1.412 1.446 3.157 2.17 5.185 2.17 2.027 0 3.759-.758 5.145-2.249 1.377-1.49 2.085-3.261 2.094-5.272-.008-2.067-.717-3.844-2.094-5.273-1.386-1.44-3.144-2.17-5.225-2.17m14.471 7.561c-.02 4.035-1.435 7.532-4.21 10.388-2.794 2.874-6.277 4.332-10.341 4.332-4.016 0-7.467-1.458-10.262-4.332-2.795-2.878-4.212-6.397-4.212-10.466 0-4.07 1.417-7.603 4.212-10.508 2.792-2.899 6.243-4.371 10.262-4.371 4.067 0 7.56 1.47 10.385 4.371 2.817 2.902 4.247 6.439 4.247 10.508v.078zM368.11 337.337a5 5 0 0 0-4.99 4.997 4.995 4.995 0 0 0 9.99 0 5.001 5.001 0 0 0-5-4.997m0-6.682c6.446 0 11.682 5.24 11.682 11.68 0 2.053-.548 4.063-1.56 5.834h3.984V354.652h-10.709v4.57H364.465v-4.57H353.95V348.17h4.055a11.682 11.682 0 0 1-1.565-5.835c0-6.44 5.236-11.679 11.67-11.679M426.458 330.58v-.08H433.548V356.262h-33.773v-6.384h26.683zM436.417 307.07h-12.924V330.421h-7.086V307.07h-3.298V330.421h-7.083V307.07H400.402v-6.381h36.1v6.381zM138.704 277.221c-1.822 3.423-4.363 7.874-5.721 11.606-19.482-.708-24.111 10.85-32.881 14.503 10.354 2.39 24.293-5.02 30.982-9.972-1.438 3.054-1.79 4.224-3.688 10.165-11.996-2.37-23.125 10.66-28.21 15.43 11.782 2.619 20.66-4.133 26.71-10.29-1.918 5.834-2.493 9.119-3.894 15.483 1.812-.792 3.57-1.232 4.84-1.232 1.555-6.104 3.618-15.603 7.173-23.201-2.544 9.536 1.025 20.523 6.112 28.466 2.225-7.943 3.332-30.819-3.978-33.683 2.225-4.449 4.577-9.591 7.122-14.355-3.5 7.941 1.943 26.428 8.3 31.826 2.223-8.26.182-34.181-6.173-35.45 3.323-4.684 4.224-7.413 9.433-13.528-3.817 9.86 4.05 24.185 8.821 31.815 3.174-9.532-2.12-31.001-6.891-34.173 1.446-1.69 11.767-12.206 15.6-15.564-6.992 7.628-2.355 25.897 2.411 30.98 4.136-6.035 6.47-28.757.747-33.527 2.967-2.316 14.606-10.832 20.01-12.737-7.632 6.037-9.312 21.469-5.498 30.057 6.996-8.588 13.6-25.608 10.275-32.397 8.625-4.229 14.28-5.75 23.946-8.718-6.992 4.452-16.735 14.73-14.933 26.28 10.277-5.825 21.588-16.044 20.951-27.806 8.392-1.757 14.15-2.73 23.747-4.067-10.168 6.674-19.482 13.013-20.118 23.817 12.82-6.143 25.307-12.213 27.53-24.927 10.736-1.338 14.359-2.687 26.284-5.04-9.538 1.59-26.262 9.095-25.313 20.857 13.46-5.19 28.058-12.792 31.238-22.323 13.035-2.549 16.629-5.838 27.25-9.023 9.04-2.718 16.881-8.47 29.767-14.541-3.496 0-4.848-.96-7.076-2.863-10.293 4.8-16.19 8.197-25.78 11.62-8.257 2.954-14.198 4.86-21.828 7.084-4.129-11.764-28.166-11.91-39.928-13.186 7.629 13.352 22.25 14.942 33.694 15.263-11.694 1.99-19.3 3.716-26.612 5.306-6.358-7.63-27.106-9.759-40.141-10.712 5.088 10.804 24.796 13.987 34.65 11.444-11.12 1.483-20.681 3.972-29.576 5.943-13.35-11.76-33.574-6.049-44.49-4.038 5.724 8.58 28.965 6.394 39.128 5.47-8.888 2.358-20.014 6.646-26.867 10.114-9.218-6.678-35.041-.435-44.686 4.442 9.22 7.314 28.096 3.382 39.426-1.759-5.658 3.086-14.112 8.71-20.01 13.143-10.462-3.133-28.524 3.773-37.424 9.172 8.262 6.673 22.745.083 33.22-5.667-5.393 5.119-9.287 8.994-14 14.375-9.535-5.725-23.354 3.376-32.89 11 7.94 5.776 18.909-.274 29.929-7.282-3.086 4.302-6.19 8.834-8.314 12.264-15.256-2.225-22.255 6.78-31.786 13.453 10.803 2.866 19.876-2.008 29.41-9.317" style="fill:#4c5c66;fill-opacity:1;fill-rule:nonzero;stroke:none;stroke-width:1.38376" transform="matrix(1.33333 0 0 -1.33333 -132.247 738.785)"/><path d="M540.984 286.668c-9.534-6.675-16.53-15.685-31.785-13.46-2.13-3.432-5.229-7.96-8.315-12.264 11.018 7.014 21.992 13.057 29.928 7.281-9.533-7.624-23.352-16.721-32.89-11-4.713-5.376-8.609-9.258-14-14.372 10.48 5.75 24.956 12.341 33.221 5.668-8.897-5.41-26.957-12.305-37.423-9.179-5.897-4.427-14.355-10.052-20.014-13.143 11.33 5.148 30.205 9.072 39.426 1.766-9.646-4.874-35.468-11.123-44.688-4.446-6.848-3.466-17.97-7.758-26.856-10.111 10.151.924 33.4 3.113 39.124-5.473-10.916-2.01-31.144-7.721-44.492 4.04-8.899-1.978-18.453-4.465-29.576-5.943 9.85 2.545 29.565-.638 34.653-11.445-13.033.95-33.785 3.083-40.147 10.71-7.306-1.59-14.912-3.314-26.61-5.309 11.44-.315 26.067-1.908 33.695-15.255-11.762 1.27-35.793 1.417-39.927 13.185-7.628-2.224-13.572-4.132-21.833-7.084-9.585-3.423-15.484-6.82-25.776-11.626-2.228 1.906-3.579 2.865-7.077 2.865 12.884 6.077 20.733 11.83 29.768 14.546 10.621 3.185 14.22 6.47 27.255 9.018 3.178 9.534 17.773 17.135 31.23 22.328.96-11.762-15.772-19.275-25.31-20.863 11.925 2.36 15.544 3.706 26.286 5.048 2.221 12.712 14.71 18.782 27.531 24.924-.643-10.804-9.953-17.143-20.124-23.82 9.6 1.34 15.354 2.312 23.748 4.073-.632 11.759 10.673 21.976 20.952 27.8 1.806-11.548-7.936-21.823-14.93-26.277 9.662 2.97 15.319 4.489 23.948 8.71-3.33 6.796 3.282 23.818 10.267 32.406 3.817-8.588 2.137-24.021-5.497-30.064 5.407 1.91 17.049 10.427 20.013 12.743-5.725 4.769-3.389 27.491.744 33.526 4.769-5.079 9.41-23.352 2.414-30.98 3.837 3.364 14.155 13.874 15.599 15.56-4.767 3.18-10.067 24.641-6.883 34.18 4.767-7.63 12.635-21.962 8.816-31.821 5.204 6.121 6.108 8.849 9.433 13.535-6.354 1.267-8.398 27.186-6.174 35.448 6.36-5.4 11.803-23.886 8.305-31.837 2.54 4.774 4.889 9.916 7.117 14.366-7.31 2.857-6.198 25.738-3.979 33.686 5.088-7.948 8.656-18.935 6.114-28.472 3.556 7.597 5.615 17.1 7.169 23.201 1.27 0 3.03.443 4.838 1.236-1.391-6.368-1.975-9.653-3.889-15.483 6.046 6.157 14.927 12.905 26.71 10.286-5.083-4.766-16.21-17.797-28.211-15.432-1.899-5.935-2.247-7.106-3.685-10.16 6.689 4.949 20.626 12.36 30.985 9.97-8.772-3.65-13.399-15.207-32.89-14.506-1.352-3.73-3.896-8.183-5.715-11.598 9.534 7.31 18.6 12.173 29.407 9.318" style="fill:#4c5c66;fill-opacity:1;fill-rule:nonzero;stroke:none;stroke-width:1.38376" transform="matrix(1.33333 0 0 -1.33333 -132.247 738.785)"/><path d="M258.062 373.753H392.23V554.09H258.062Z" style="fill:#004896;fill-opacity:1;fill-rule:nonzero;stroke:none;stroke-width:1.38376" transform="matrix(1.33333 0 0 -1.33333 -132.247 738.785)"/><path d="M326.013 494.403h-15.566l-14.82 24.533-14.826-24.533h-15.566l24.14 39.433v10.073h12.484v-10.073zM313.829 473.004v-11.022h-12.165v-19.979h-12.16v47.402h12.16v-16.401z" style="fill:#fff;fill-opacity:1;fill-rule:nonzero;stroke:none;stroke-width:1.38376" transform="matrix(1.33333 0 0 -1.33333 -132.247 738.785)"/><path d="M261.293 156.506c-2.666-.054-13.944.34-23.74 10.133 0 0-10.088 8.682-10.088 24.299 0 0-.997 13.32 10.098 24.416 0 0 8.855 10.084 24.316 10.084 0 0 13.726.57 24.39-10.088 0 0 10.114-9.322 10.114-24.412 0 0 .7-13.537-10.08-24.317 0 0-8.703-10.09-24.424-10.09 0 0-.205-.017-.586-.025zm-.574 16.406c.733-.021 1.16.027 1.16.027 8.177 0 12.79 5.315 12.79 5.315 5.327 5.33 5.247 12.685 5.247 12.685 0 7.952-5.268 12.795-5.268 12.795-5.566 5.561-12.77 5.25-12.77 5.25-8.045 0-12.716-5.232-12.716-5.232-5.795-5.788-5.283-12.813-5.283-12.813 0-8.044 5.27-12.709 5.27-12.709 4.416-4.555 9.37-5.253 11.57-5.318z" style="fill:#fff;fill-opacity:1;fill-rule:nonzero;stroke:none;stroke-width:1.84501"/><path d="M336.608 452.103v11.018h12.168v6.015h-12.168v11.02h12.168v9.25h12.16v-47.403h-12.16v10.1z" style="fill:#fff;fill-opacity:1;fill-rule:nonzero;stroke:none;stroke-width:1.38376" transform="matrix(1.33333 0 0 -1.33333 -132.247 738.785)"/><path d="M310.172 16.643v62.123h61.644V16.643Zm16.387 14.689h29.22v32.73h-29.22zM340.22 156.506c-2.665-.054-13.94.34-23.74 10.133 0 0-10.087 8.682-10.087 24.299 0 0-.993 13.32 10.095 24.416 0 0 8.856 10.084 24.319 10.084 0 0 13.731.57 24.384-10.088 0 0 10.114-9.322 10.114-24.412 0 0 .702-13.537-10.08-24.317 0 0-8.693-10.09-24.418-10.09 0 0-.205-.017-.586-.025zm-.574 16.406c.734-.021 1.16.027 1.16.027 8.169 0 12.792 5.315 12.792 5.315 5.323 5.33 5.242 12.685 5.242 12.685 0 7.952-5.26 12.795-5.26 12.795-5.57 5.561-12.773 5.25-12.773 5.25-8.046 0-12.717-5.232-12.717-5.232-5.792-5.788-5.285-12.813-5.285-12.813 0-8.044 5.27-12.709 5.27-12.709 4.42-4.555 9.372-5.253 11.571-5.318z" style="fill:#fff;fill-opacity:1;fill-rule:nonzero;stroke:none;stroke-width:1.84501"/></svg>