<svg xmlns="http://www.w3.org/2000/svg" xml:space="preserve" width="676.9939" height="700" viewBox="0 0 676.9939 699.99999"><defs><clipPath id="a" clipPathUnits="userSpaceOnUse"><path d="M0 841.89h595.28V0H0Z"/></clipPath><clipPath id="b" clipPathUnits="userSpaceOnUse"><path d="M286.42 495.975s-52.767-13.605-58.771-69.696v-46.13h53.363c5.688-.202 12.821 1.389 16.296 6.981 11.756 18.342 10.803 40.661 10.803 40.661h-30.694s-7.504 37.756 51.937 68.184z"/></clipPath><clipPath id="c" clipPathUnits="userSpaceOnUse"><path d="M0 841.89h595.28V0H0Z"/></clipPath></defs><g clip-path="url(#a)" transform="matrix(2.41255 0 0 -2.41255 -379.15 1365.82)"><path d="M0 0c0-79.994 62.929-145.07 140.296-145.07 77.364 0 140.317 65.076 140.317 145.07 0 79.992-62.953 145.079-140.317 145.079C62.929 145.079 0 79.992 0 0" style="fill:#c9cacb;fill-opacity:1;fill-rule:nonzero;stroke:none" transform="translate(157.157 421.051)"/><path d="M0 0c-61.194 0-110.979 51.473-110.979 114.748 0 63.272 49.785 114.75 110.979 114.75 61.202 0 110.989-51.478 110.989-114.75C110.989 51.473 61.202 0 0 0m-.003 251.636c-73.001 0-132.378-61.406-132.378-136.89 0-75.477 59.377-136.879 132.378-136.879 73.007 0 132.399 61.401 132.399 136.879 0 75.484-59.392 136.89-132.399 136.89" style="fill:#9f9fa0;fill-opacity:1;fill-rule:nonzero;stroke:none" transform="translate(297.453 306.306)"/><path d="M0 0c0-58.866 46.315-106.749 103.245-106.75 56.933 0 103.254 47.884 103.254 106.75 0 58.872-46.321 106.759-103.254 106.759C46.315 106.759 0 58.872 0 0" style="fill:#fff;fill-opacity:1;fill-rule:nonzero;stroke:none" transform="translate(194.208 421.054)"/><path d="M0 0v43.3h-38.146c-5.699.208-12.827-1.4-16.298-6.976C-66.204 17.978-65.24-4.343-65.24-4.343h30.683s.383-58.99-73.523-94.06h32.022S-6.81-71.279 0 0" style="fill:#004fa3;fill-opacity:1;fill-rule:nonzero;stroke:none" transform="translate(368.187 437.314)"/></g><g clip-path="url(#b)" transform="matrix(2.41255 0 0 -2.41255 -379.15 1365.82)"><path d="M0 0v-46.129h53.363c5.689-.204 12.822 1.388 16.296 6.98C81.416-20.807 80.462 1.512 80.462 1.512H49.769s-7.504 37.756 51.937 68.184H58.771S6.004 56.092 0 0" style="fill:#5cb531;fill-opacity:1;fill-rule:nonzero;stroke:none" transform="translate(227.648 426.279)"/><path d="M0 0h-4.78v1.153c-.211-.257-.449-.56-.852-.851-.582-.393-1.458-.719-2.788-.719-1.45 0-2.94.491-3.979 2.003-1.207 1.723-1.247 4.452-1.247 6.526 0 6.237 2.158 8.508 7.248 8.508 1.156 0 3.287-.059 4.723-1.33C-.062 13.896-.019 11.872 0 10.858h-4.922c.014 1.088.04 2.926-1.436 2.926-1.758 0-1.832-2.436-1.897-3.65-.018-.734-.042-1.479-.042-2.23 0-.948 0-3.173.302-4.136.208-.644.605-1.354 1.561-1.354.54 0 1.042.294 1.288.694.35.518.35 1.328.366 1.955v1.026h-1.578v2.889H0Z" style="fill:#fff;fill-opacity:1;fill-rule:nonzero;stroke:none" transform="translate(240.374 413.083)"/><path d="M0 0h-10.396v16.208h9.828v-3.397h-4.703v-2.712h4.299V6.708h-4.299V3.402H0Z" style="fill:#fff;fill-opacity:1;fill-rule:nonzero;stroke:none" transform="translate(253.403 413.083)"/><path d="M0 0h-5.952l-2.123 6.596a73.825 73.825 0 0 0-.724 2.499c0-.55.022-.894.022-1.856L-8.663 0h-4.58v16.208h6.073l2.043-6.309c.317-1.124.382-1.354.708-2.737 0 .646 0 1.287-.027 1.933l-.053 7.113H0Z" style="fill:#fff;fill-opacity:1;fill-rule:nonzero;stroke:none" transform="translate(269.173 413.083)"/><path d="M0 0c-1.416.411-2.668.806-3.576 1.623C-4.97 2.932-4.97 4.633-4.97 5.136c0 5.149 4.382 5.406 6.2 5.406.69 0 1.369-.048 2.06-.167.665-.09 1.354-.25 1.963-.614 1.934-1.196 1.853-3.359 1.81-4.144l-4.414.075c-.05.961-.064 1.239-.387 1.607-.246.278-.684.385-1.074.385-.86 0-1.367-.599-1.367-1.255 0-1.015.983-1.314 2.099-1.638l1.132-.316c1.856-.571 4.364-1.364 4.364-5.164 0-.855-.128-1.72-.428-2.51-1.196-3.093-4.198-3.24-5.8-3.24h-.179c-1.033 0-2.927.078-4.115.713C-5.314-4.551-5.314-2.3-5.328-1.039l4.839-.094c0-.411-.016-.806.091-1.185.275-1.132 1.127-1.293 1.57-1.293.964 0 1.53.668 1.53 1.656C2.702-.828 2.04-.631.627-.188z" style="fill:#fff;fill-opacity:1;fill-rule:nonzero;stroke:none" transform="translate(276.688 419.15)"/><path d="M0 0h-12.664v2.676l1.116.705c1.774 1.295 2.981 2.208 4.826 4.453.67.791 1.701 2.089 1.701 3.679 0 .861-.304 1.667-1.202 1.667a1.31 1.31 0 0 1-.736-.22c-.689-.491-.711-1.425-.711-2.011v-.585h-4.994c0 1.117 0 3.211 2.11 4.578 1.461.951 3.616 1.128 4.823 1.128.994 0 2.953-.118 4.204-1.053 1.356-1.004 1.719-2.52 1.719-3.798 0-2.791-1.487-4.308-4.891-6.928l-.489-.35L0 4.117Z" style="fill:#fff;fill-opacity:1;fill-rule:nonzero;stroke:none" transform="translate(298.333 413.083)"/><path d="M0 0h-5.256v11.39h-3.269v3.43c2.886.214 5.725.688 8.525 1.495Z" style="fill:#fff;fill-opacity:1;fill-rule:nonzero;stroke:none" transform="translate(308.373 413.083)"/></g><g clip-path="url(#c)" transform="matrix(2.41255 0 0 -2.41255 -379.15 1365.82)"><path d="M0 0c-.644-1.831-1.316-3.706-3.686-3.609-3.631.154-3.487 4.047-3.447 4.955.016.608.09 1.121.173 1.57.523 2.531 2.198 2.799 3.485 2.691l-.138-2.771c-.491.021-1.069.026-1.496-.396-.245-.272-.416-.726-.433-1.228-.045-1.11.543-1.799 1.338-1.83.983-.038 1.325.895 1.744 2.017l.32.903c.513 1.473 1.237 3.482 3.75 3.375.627-.021 1.234-.15 1.768-.438C5.356 4.16 5.392 1.821 5.344.662a10.547 10.547 0 0 0-.225-1.884C4.44-4.288 2.317-4.224 1.284-4.176l.145 3.013c.48-.017 1.207-.054 1.738.437.28.25.556.752.585 1.457.043 1.24-.644 1.939-1.629 1.977C1.007 2.756.702 1.923.264.688Z" style="fill:#fff;fill-opacity:1;fill-rule:nonzero;stroke:none" transform="translate(177.125 424.784)"/><path d="m0 0-.774-4.417 11.098-6.195.524 2.969-3.675 1.987.598 3.402 4.083.38.555 3.178zm5.52-4.85L2.659-3.332c-.472.245-.55.299-1.138.587.653.058 1 .08 1.267.101l3.167.284z" style="fill:#fff;fill-opacity:1;fill-rule:nonzero;stroke:none" transform="translate(172.599 446.644)"/><path d="m0 0-1.116-3.407-7.256-1.069a21.03 21.03 0 0 0-1.937-.17c.663-.214.861-.262 1.501-.492l6.407-2.179-.878-2.661-11.345 3.991 1.145 3.493 6.621.934c1.18.161 1.437.161 2.601.214-.887.31-1.258.422-2.134.716l-5.813 2.008.856 2.606z" style="fill:#fff;fill-opacity:1;fill-rule:nonzero;stroke:none" transform="translate(189.935 464.291)"/><path d="m0 0-1.298-2.569-.782.427c.097-.31.187-.577.187-1.074.011-.838-.256-1.644-.635-2.392-1.01-1.988-2.393-2.345-2.813-2.414-1.623-.379-3.535.582-4.679 1.196-3.992 2.158-4.94 4.594-3.116 8.204.376.748 1.129 2.115 2.334 2.719 1.546.79 2.959.058 3.533-.246l-1.362-2.698c-.419.236-2.206 1.218-3.111-.571-.935-1.853.897-3.082 1.693-3.595a28.454 28.454 0 0 1 1.606-.961c2.283-1.239 4.077-1.71 4.98.08.291.577.353 1.197.219 1.682-.198.785-.785 1.101-1.29 1.395l-.932.502-.911-1.8-1.49.806 2.206 4.37z" style="fill:#fff;fill-opacity:1;fill-rule:nonzero;stroke:none" transform="translate(197.698 480.94)"/><path d="M0 0c.956-.699 2.243-1.613 2.604-2.82.344-1.197-.131-2.447-.82-3.461C.951-7.499.214-7.975-.243-8.246L-1.8-7.114c.371.214 1.041.582 1.495 1.255.348.497.482 1.068.26 1.618-.192.423-.583.769-1.499 1.437l-6.16 4.487 1.792 2.628z" style="fill:#fff;fill-opacity:1;fill-rule:nonzero;stroke:none" transform="translate(200.933 494.794)"/><path d="m0 0-2.062-2.403-8.972 8.215 2.055 2.409z" style="fill:#fff;fill-opacity:1;fill-rule:nonzero;stroke:none" transform="translate(212.111 501.091)"/><path d="m0 0 4.308-6.03c.389-.55.796-1.111 1.054-1.746.66-1.549.653-3.366-2.2-5.55-.809-.609-2.182-1.528-3.464-1.432-1.592.092-2.499 1.362-3.153 2.281L-8.006-6.11l2.486 1.896 4.492-6.286c.635-.86 1.047-1.379 1.538-1.592.588-.23 1.218-.049 1.722.336.874.668.855 1.432.85 1.56-.021.62-.446 1.276-.996 2.072L-2.4-1.832Z" style="fill:#fff;fill-opacity:1;fill-rule:nonzero;stroke:none" transform="translate(225.75 529.736)"/><path d="m0 0-3.09-1.656-5.952 4.423c-.657.512-.791.62-1.512 1.265.336-.63.444-.811.758-1.436l3.168-6.148-2.414-1.298-5.523 10.993 3.168 1.703 5.405-4.059c.958-.732 1.139-.908 2.018-1.704-.429.86-.625 1.207-1.06 2.046l-2.855 5.607 2.364 1.267z" style="fill:#fff;fill-opacity:1;fill-rule:nonzero;stroke:none" transform="translate(248.939 529.154)"/><path d="m0 0-2.919-1.105-4.11 11.643 2.922 1.095z" style="fill:#fff;fill-opacity:1;fill-rule:nonzero;stroke:none" transform="translate(259.49 533.48)"/><path d="m0 0-4-.961-5.99 11.285 3.071.738 3.535-7.19c.409-.817.516-1.047.933-2.061a24.368 24.368 0 0 0-.003 2.195l.066 8.145 2.944.71z" style="fill:#fff;fill-opacity:1;fill-rule:nonzero;stroke:none" transform="translate(273.342 537.497)"/><path d="m0 0-7.827-.736-1.09 12.338 7.376.694.166-1.918-4.326-.411.266-3.061 3.958.369.168-1.918-3.958-.374.313-3.513 4.78.448z" style="fill:#fff;fill-opacity:1;fill-rule:nonzero;stroke:none" transform="translate(291.227 540.017)"/><path d="M0 0c-.294 1.864-.636 2.687-2.158 3.082.668.096 2.496.348 2.624 2.981.025.454.07 1.789-1.04 2.654-.806.625-1.891.679-2.752.726l-5.478.278-.604-12.375 3.014-.156.258 5.204.881-.043c.506-.028 1.171-.076 1.628-.716.322-.444.428-1.047.556-1.897l.077-.545c.275-1.735.286-1.815.675-2.221l3.185-.16c-.385.48-.469.78-.724 2.478zm-5.87 7.921 1.056-.059c.962-.064 1.761-.112 2.106-1.057.106-.284.123-.609.106-.94-.05-.977-.444-1.431-.688-1.613-.481-.342-1.242-.305-1.852-.273l-.913.048z" style="fill:#fff;fill-opacity:1;fill-rule:nonzero;stroke:none" transform="translate(308.001 542.837)"/><path d="M0 0c-1.652.94-3.339 1.912-2.879 4.326.7 3.68 4.399 2.933 5.263 2.762a9.47 9.47 0 0 0 1.479-.433c2.334-.914 2.329-2.665 2.033-3.968l-2.629.566c.092.496.189 1.09-.146 1.592-.225.293-.622.534-1.11.634C.96 5.693.21 5.197.057 4.391-.132 3.386.711 2.9 1.719 2.302l.811-.47c1.33-.748 3.136-1.8 2.653-4.353-.12-.63-.339-1.234-.694-1.736C3.151-6.11.909-5.779-.19-5.561c-.795.162-1.355.343-1.769.519-2.818 1.17-2.43 3.322-2.229 4.374l2.856-.614c-.09-.486-.229-1.229.154-1.843.197-.325.629-.678 1.3-.816 1.183-.241 1.949.363 2.138 1.356.222 1.132-.53 1.57-1.635 2.211z" style="fill:#fff;fill-opacity:1;fill-rule:nonzero;stroke:none" transform="translate(319.784 543.153)"/><path d="m0 0-2.955.988L.718 12.781l2.959-.982Z" style="fill:#fff;fill-opacity:1;fill-rule:nonzero;stroke:none" transform="translate(334.356 533.822)"/><path d="m0 0-2.819 1.309 4.133 9.545-2.805 1.297.765 1.768 8.427-3.909-.756-1.763L4.136 9.55Z" style="fill:#fff;fill-opacity:1;fill-rule:nonzero;stroke:none" transform="translate(346.125 528.961)"/><path d="m0 0-2.59 1.683 2.178 3.599.665 9.166 2.871-1.843-.534-4.796a16.8 16.8 0 0 0-.149-1.015c.075.059.669.519.803.599l3.821 2.66 2.696-1.737-7.58-4.711z" style="fill:#fff;fill-opacity:1;fill-rule:nonzero;stroke:none" transform="translate(359.95 521.088)"/><path d="m0 0-2.639 2.852L.64 7.792c.579.876.767 1.105 1.483 2.003A46.689 46.689 0 0 0 .174 8.497l-5.148-3.119-2.652 2.874 7.168 10.186 2.047-2.223-4.801-6.511c-.51-.678-.583-.753-1.124-1.484.694.465.96.63 1.486.956l6.961 4.315 1.727-1.875-4.359-6.612C1.021 4.363.87 4.139.265 3.322c.587.406.644.47 1.196.844L8.395 8.85l1.924-2.073Z" style="fill:#fff;fill-opacity:1;fill-rule:nonzero;stroke:none" transform="translate(384.485 499.297)"/><path d="M0 0c1.064.721 2.733 1.96 3.193 3.535.192.684.421 2.271-1.118 4.61-3.052 4.646-6.339 2.59-8.797.86-2.76-1.94-4.198-4.14-1.678-7.975C-5.706-3.061-2.857-1.966 0 0m-1.639 2.814c-1.396-.983-2.227-1.394-2.782-1.613-.46-.181-1.712-.673-2.651.742-1.175 1.79.267 3.039 2.344 4.493.636.448 1.174.785 1.605 1.031 1.357.779 2.811 1.372 3.84-.193 1.138-1.73-.215-2.954-2.356-4.46" style="fill:#fff;fill-opacity:1;fill-rule:nonzero;stroke:none" transform="translate(400.916 486.81)"/><path d="m0 0-1.487 3.258 4.482 5.987c.526.663.635.796 1.275 1.523-.619-.331-.795-.438-1.409-.732l-6.067-3.06-1.163 2.547 10.833 5.304 1.526-3.322-4.115-5.442c-.742-.967-.916-1.149-1.72-2.031.84.411 1.193.599 2.011 1.026l5.518 2.746 1.148-2.49z" style="fill:#fff;fill-opacity:1;fill-rule:nonzero;stroke:none" transform="translate(403.894 467.058)"/><path d="M0 0c-1.115-.363-2.6-.87-3.748-.448-1.131.437-1.807 1.581-2.176 2.771-.438 1.421-.358 2.314-.288 2.853l1.814.598c-.061-.427-.182-1.202.055-1.992.182-.583.538-1.036 1.098-1.186.439-.091.945.021 2.007.369l7.182 2.371.942-3.061Z" style="fill:#fff;fill-opacity:1;fill-rule:nonzero;stroke:none" transform="translate(412.734 455.793)"/><path d="m0 0-7.143-1.271c-.656-.118-1.324-.23-1.982-.187-1.637.08-3.202.913-3.805 4.524-.171 1.02-.341 2.703.308 3.851.803 1.426 2.305 1.693 3.396 1.886l7.545 1.34.518-3.157-7.445-1.313c-1.029-.203-1.664-.353-2.069-.711-.461-.438-.592-1.1-.487-1.741.185-1.106.86-1.431.97-1.485.543-.257 1.302-.155 2.24-.01l7.449 1.319z" style="fill:#fff;fill-opacity:1;fill-rule:nonzero;stroke:none" transform="translate(423.797 438.061)"/><path d="m0 0-7.858-3.729.216 3.451 5.272 2.586-1.333 1.299-3.673.249.19 3.05 11.963-.812-.193-3.05-4.966.34L4.337-.808l-.2-3.204z" style="fill:#fff;fill-opacity:1;fill-rule:nonzero;stroke:none" transform="translate(420.03 410.957)"/><path d="M0 0c1.241-.292 3.261-.697 4.686.045.603.328 1.877 1.252 2.457 4.014 1.149 5.49-2.556 6.538-5.461 7.181-3.272.735-5.795.293-6.741-4.233C-6.075 2.168-3.345.784 0 0m.842 3.167c-1.647.368-2.512.705-3.043.972-.44.224-1.659.822-1.301 2.5.437 2.109 2.301 1.884 4.759 1.34a17.147 17.147 0 0 0 1.824-.497c1.48-.475 2.905-1.156 2.513-3.002C5.169 2.436 3.379 2.606.842 3.167" style="fill:#fff;fill-opacity:1;fill-rule:nonzero;stroke:none" transform="translate(414.978 388.749)"/><path d="M0 0c1.808-.28 2.667-.205 3.505 1.175-.127-.684-.457-2.561 1.921-3.501.414-.16 1.623-.616 2.769.209C9.012-1.52 9.402-.47 9.706.366l1.953 5.298-11.2 4.412L-.62 7.16l4.714-1.859-.315-.855c-.175-.496-.432-1.127-1.161-1.383-.502-.178-1.09-.096-1.908.038l-.53.096c-1.684.27-1.753.278-2.243.021L-3.204.131c.558.235.867.224 2.512-.048zm9.093 3.336-.377-1.021C8.358 1.387 8.076.617 7.097.569 6.802.553 6.5.633 6.2.753c-.891.352-1.188.879-1.276 1.178-.171.572.101 1.308.319 1.904l.327.884Z" style="fill:#fff;fill-opacity:1;fill-rule:nonzero;stroke:none" transform="translate(406.368 372.669)"/><path d="m0 0 3.804 7.114 10.49-5.992-3.584-6.698-1.632.934L11.177-.71 8.579.774 6.658-2.825l-1.634.94 1.923 3.589-2.988 1.709L1.633-.939Z" style="fill:#fff;fill-opacity:1;fill-rule:nonzero;stroke:none" transform="translate(396.259 359.143)"/><path d="m0 0 2.605 3.595-7.251 10.671-1.75-2.419 2.429-3.472-2.004-2.772-3.818 1.548-1.872-2.588zm-2.84 6.885 1.902-2.676c.319-.443.366-.521.762-1.053-.602.246-.922.388-1.162.491l-2.967 1.21z" style="fill:#fff;fill-opacity:1;fill-rule:nonzero;stroke:none" transform="translate(397.977 339.995)"/><path d="m0 0-3.219-12.459 2.687-.758L2.697-.734l-.123.031z" style="fill:#231916;fill-opacity:1;fill-rule:nonzero;stroke:none" transform="translate(272.544 303.251)"/><path d="M0 0c0 .009.405 1.567.462 1.803.226-.075 3.06-.847 3.06-.847l.452 1.772-.123.031-8.771 2.433-.465-1.776s2.842-.796 3.077-.854L-2.762.794C-2.89.329-4.055-3.827-7.36-4.019l-.199-.016-.528-2.034.275-.065c.024 0 2.599-.625 5.178 1.506.279-.847 1.204-3.002 3.894-4.107l.646-.182.548 2.104-.243.081C2.072-6.668-1.17-5.376 0 0" style="fill:#231916;fill-opacity:1;fill-rule:nonzero;stroke:none" transform="translate(267.03 300.799)"/><path d="M0 0h4.283v1.824h-7.084V-9.852h7.302v1.832H0Z" style="fill:#231916;fill-opacity:1;fill-rule:nonzero;stroke:none" transform="translate(293.773 298.55)"/><path d="M0 0v-12.861h2.657v11.019h1.058v-11.019h2.65V0h-.121Z" style="fill:#231916;fill-opacity:1;fill-rule:nonzero;stroke:none" transform="translate(298.886 300.454)"/><path d="m0 0 2.383 1.352-4.219 7.872-.127-.062-11.693-6.703.868-1.615s9.216 5.287 9.44 5.4C-3.23 6.02 0 0 0 0" style="fill:#231916;fill-opacity:1;fill-rule:nonzero;stroke:none" transform="translate(362.834 310.507)"/><path d="M0 0c-.112.236-2.763 5.184-2.763 5.184l-.111-.069-2.272-1.301s2.647-4.943 2.763-5.169c-.176-.097-1.36-.786-1.538-.882-.131.223-2.764 5.159-2.764 5.159l-2.392-1.359s2.651-4.94 2.77-5.157c-.202-.125-2.33-1.341-2.33-1.341l.854-1.61L5.211.903l-.848 1.592S.223.123 0 0" style="fill:#231916;fill-opacity:1;fill-rule:nonzero;stroke:none" transform="translate(362.034 308.765)"/><path d="M0 0c-1.159-.322-2.278-.023-2.447.663-.186.671.641 1.506 1.806 1.829 1.15.319 2.259.014 2.441-.66C1.97 1.165 1.146.321 0 0m.497-2.01C3.218-1.252 5.06.789 4.613 2.524c-.174.655-.706 1.169-1.444 1.544.343.09 1.074.296 1.074.296l-.458 1.755S.339 5.174.117 5.107a65.25 65.25 0 0 0-.263.977l-.124-.04-2.584-.713s.201-.767.247-.958c-.24-.072-3.752-1.042-3.752-1.042l.466-1.786s.776.216 1.13.312c-.45-.692-.656-1.421-.486-2.076.454-1.738 3.027-2.539 5.746-1.791" style="fill:#231916;fill-opacity:1;fill-rule:nonzero;stroke:none" transform="translate(327.672 299.938)"/><path d="m0 0 .458-1.77S10.287.97 10.526 1.029c.066-.232.916-3.502.916-3.502l2.686.748-1.363 5.264-.127-.037z" style="fill:#231916;fill-opacity:1;fill-rule:nonzero;stroke:none" transform="translate(323.914 296.499)"/><path d="m0 0-.789-.214 1.75-6.751 2.698.753S2.426-1.479 2.358-1.234c.222.064 1.955.545 1.955.545l-.464 1.765-.128-.04Z" style="fill:#231916;fill-opacity:1;fill-rule:nonzero;stroke:none" transform="translate(332.9 306.72)"/><path d="M0 0c.149-.748.767-2.639 3.314-4.075l.884-.503 1.053 1.933-.271.134c-.029.008-3.305 1.657-2.261 4.556l.297.54.138.267-.107.064L.596 4.353l-.473-.881c-.056-.076-1.263-2.094-4.201-1.01l-.227.08L-5.33.667l.265-.139C-4.954.475-2.357-.893 0 0" style="fill:#231916;fill-opacity:1;fill-rule:nonzero;stroke:none" transform="translate(236.87 314.305)"/><path d="m0 0-3.306-6.06 2.43-1.425S1.442-3.229 1.565-3.01a93.759 93.759 0 0 0 1.651-.967l.876 1.608-.12.064z" style="fill:#231916;fill-opacity:1;fill-rule:nonzero;stroke:none" transform="translate(244.559 314.74)"/><path d="M0 0c-1.808 1.07-3.007 2.563-2.628 3.279.4.719 2.26.422 4.072-.64C3.258 1.573 4.46.085 4.081-.631 3.678-1.349 1.815-1.058 0 0m2.479 4.523c-3.184 1.86-6.554 1.942-7.51.171-.97-1.772.822-4.711 4.009-6.574 3.174-1.849 6.547-1.921 7.506-.16.972 1.751-.834 4.7-4.005 6.563" style="fill:#231916;fill-opacity:1;fill-rule:nonzero;stroke:none" transform="translate(235.655 306.613)"/><path d="m0 0 10.583 7.51 2.19-3.082L7.106.4 6.754.152c-.422-.301-.702-.51-.844-.638-.209-.193-.334-.39-.369-.593-.042-.206.008-.465.149-.785.145-.288.396-.684.751-1.186l.174-.246-1.143-.811A10.42 10.42 0 0 1 3.41-2.548a6.717 6.717 0 0 1-2.128.732Z" style="fill:#fff;fill-opacity:1;fill-rule:nonzero;stroke:none" transform="translate(193.276 344.364)"/><path d="M0 0c.454.224.721.48.812.747.08.214.045.46-.102.743-.171.328-.387.529-.641.598-.261.064-.603-.011-1.02-.219L-3.05.796c-.531-.273-.842-.524-.948-.759-.109-.225-.072-.523.112-.897.193-.369.438-.561.738-.572.21-.006.533.096.953.31zm3.701 1.891.328.141c.409.184.671.344.788.484.196.245.187.565-.015.961-.243.48-.534.726-.871.734-.203 0-.505-.099-.909-.32l-.175-.088L.742 2.727c.51-.03.975-.228 1.4-.596.389-.32.718-.742.993-1.277.537-1.057.603-1.958.209-2.724-.313-.587-.93-1.121-1.86-1.597l-.928-.475c-1.326-.673-2.42-.903-3.291-.684-1.031.262-1.954 1.186-2.75 2.751-.524 1.03-.824 1.926-.893 2.689-.063.703.049 1.331.358 1.873.278.469.727.926 1.352 1.356.433.305 1.105.684 2.019 1.148L-1.068 6c.945.489 1.65.81 2.107.978.734.28 1.375.409 1.939.374.643-.043 1.244-.291 1.792-.756.614-.489 1.19-1.271 1.73-2.328.742-1.454 1.01-2.656.804-3.606C7.101-.23 6.473-.94 5.416-1.479Z" style="fill:#fff;fill-opacity:1;fill-rule:nonzero;stroke:none" transform="translate(190.48 359.773)"/><path d="m0 0 1.856.631L3.53-4.32l2.359.796a3.2 3.2 0 0 0-1.143.854c-.275.357-.513.844-.722 1.458-.4 1.183-.384 2.094.04 2.739.377.551 1.16 1.035 2.345 1.432l1.779.609c1.386.462 2.489.496 3.309.099.961-.446 1.743-1.541 2.334-3.298.556-1.635.598-2.922.136-3.873-.427-.87-1.346-1.538-2.759-2.016l-.638-.216-1.196 3.541.724.246c.908.309 1.463.545 1.684.72.326.247.404.625.231 1.138-.151.442-.391.673-.724.7-.201.011-.551-.088-1.047-.28l-.54-.2-2.454-.834c-.483-.16-.79-.347-.935-.561-.13-.206-.136-.48-.021-.822.152-.46.379-.726.659-.791.182-.045.449 0 .807.12l.011.022 1.194-3.528L2.77-8.193Z" style="fill:#fff;fill-opacity:1;fill-rule:nonzero;stroke:none" transform="translate(176.537 379.31)"/><path d="m0 0 1.923.357.945-5.143 2.454.446c-.438.28-.774.617-1.017 1.007-.211.4-.379.913-.497 1.56-.23 1.217-.08 2.123.441 2.697.451.491 1.289.854 2.523 1.081l1.843.34c1.442.261 2.539.138 3.29-.371.887-.585 1.501-1.79 1.834-3.601.313-1.701.171-2.988-.424-3.856-.544-.798-1.548-1.328-3.017-1.6L9.635-7.2l-.676 3.669.748.139c.942.176 1.536.331 1.776.47.361.2.492.571.39 1.101-.08.454-.288.716-.614.796-.197.031-.561-.009-1.076-.126l-.556-.12-2.553-.47c-.502-.094-.836-.231-1.01-.428-.157-.182-.205-.454-.135-.807.085-.475.263-.768.534-.88.171-.065.442-.065.816 0l.011.021.676-3.661-6.404-1.01z" style="fill:#fff;fill-opacity:1;fill-rule:nonzero;stroke:none" transform="translate(172.395 397.594)"/></g></svg>