<svg xmlns="http://www.w3.org/2000/svg" viewBox="0 0 184.16 173.26"><path d="M63.34 84.44C66.67 79 68.85 72.31 71 65.82c2.38-7.31 4.84-14.87 9-21 15.3-24.32 35.56-30.59 54.51-34.34-19.91 3.31-42.28 9.6-57.96 34.52C68.83 56.48 67.16 72.94 60 84.63c-3.19 5.17-10 16-26.12 17.09 9.94.28 20.96-3.46 29.46-17.28Z" style="fill:#6fba2c"/><path d="M161.46 7c-24.56 7.23-56.92 3.81-78.94 38.81-7.72 11.49-9.39 27.95-16.58 39.64-4.69 7.62-18.71 28.41-54.88 11.72-.67-.34-4.26-2.22-5.92-4.26a12 12 0 0 1-1.7-2.54L0 92.7l3.66 1.94a72.14 72.14 0 0 0 7.11 3.78c10.88 5 29.89 10.69 46.33-.66l.13-.1c19.72-4.3 54 6.32 71.55-7.29C153.43 73.5 183.25 19.57 184.16 0a141.12 141.12 0 0 1-22.7 7Z" style="fill:#6fba2c"/><path d="M103.44 68.49C97.31 73.28 92.28 77 88 79.88c12-.13 40.32 6.47 42.26 6.94.06 0 0 .13 0 .13s-39-6.47-44.44-4.21c-3.89 1.62-6.09 7.06 0 14h-.16c.03 0-7.4-6.37-6.43-11.23-7.18 4.29-11.8 6.14-17.47 9.35 23.21-14 64.15-47.45 83.92-62.1-17.3 15.71-25.99 23.62-42.24 35.73Z" style="fill:#fff"/><path d="M30.76 169.24a1.75 1.75 0 0 1 .64 1.51 2.36 2.36 0 0 1-.83 1.74 2.87 2.87 0 0 1-2 .77 2.72 2.72 0 0 1-2.23-.93 2.93 2.93 0 0 1-.77-1.89h1.23a1.64 1.64 0 0 0 .47 1.26 1.7 1.7 0 0 0 1.29.51 1.55 1.55 0 0 0 1.26-.47 1.46 1.46 0 0 0 .41-1 .93.93 0 0 0-.47-.85 9.49 9.49 0 0 0-1-.54c-.56-.26-1.2-.53-1.91-.81a1.59 1.59 0 0 1-1.1-1.54 2.21 2.21 0 0 1 .81-1.69 2.82 2.82 0 0 1 2-.73 2.55 2.55 0 0 1 1.95.78 2.75 2.75 0 0 1 .82 1.73h-1.27a1.87 1.87 0 0 0-.37-.92 1.33 1.33 0 0 0-1.17-.55 1.5 1.5 0 0 0-1.13.42 1.28 1.28 0 0 0-.4.91c0 .42.3.74.91.95s1.1.41 1.49.58a7.44 7.44 0 0 1 1.37.76ZM33.31 173v-8.26h5.44v1h-4.2v2.45h4.09v1h-4.09V172h4.3v1ZM47.89 165.78a4.35 4.35 0 0 1-3.06 7.41 4.35 4.35 0 0 1-4.34-4.35 4.33 4.33 0 0 1 7.4-3.06Zm-.8 5.33a3.2 3.2 0 0 0 0-4.53 3.2 3.2 0 0 0-4.53 0 3.2 3.2 0 0 0 4.53 4.53ZM55.6 173l-3.33-3.68V173H51v-8.27h1.23v3.7l3.33-3.7h1.55l-3.77 4.13 3.82 4.14ZM62.82 170v3h-1.24v-3l-3-5.29h1.36l2.26 4 2.26-4h1.38ZM67.44 173v-8.26h5.44v1h-4.2v2.45h4.09v1h-4.09V172H73v1ZM82 165.78a4.3 4.3 0 1 1-3-1.28 4.11 4.11 0 0 1 3 1.28Zm-.8 5.33a3.2 3.2 0 0 0 0-4.53 3.2 3.2 0 1 0 0 4.53ZM90.33 173l-4-6.33v6.34h-1.21v-8.26h1.36l4 6.36v-6.37h1.2V173ZM102.07 168.69a4.32 4.32 0 0 1-4.33 4.49 4.35 4.35 0 0 1-4.34-4.35 4.22 4.22 0 0 1 1.28-3.07 4.33 4.33 0 0 1 5.67-.4 4.37 4.37 0 0 1 1.57 2.27h-1.2a3.9 3.9 0 0 0-1-1.34 2.82 2.82 0 0 0-1.94-.66 3.17 3.17 0 0 0-2.24.92 3.19 3.19 0 0 0 0 4.58 3.15 3.15 0 0 0 2.22.91 2.85 2.85 0 0 0 2.13-.78 3.56 3.56 0 0 0 1-1.53h-3.61v-1ZM115.11 170.09a3.34 3.34 0 0 1-.8 2.08 3.07 3.07 0 0 1-4.55 0 3.3 3.3 0 0 1-.81-2.08v-5.38h1.13v5.47a2.17 2.17 0 0 0 .5 1.3 2 2 0 0 0 2.91 0 2.17 2.17 0 0 0 .5-1.3v-5.47h1.12ZM122.11 173l-4-6.33v6.34h-1.21v-8.26h1.35l4 6.36v-6.37h1.2V173ZM125.42 173.05v-8.27h1.23v8.27ZM133.06 173.09h-1.17l-3.49-8.28h1.33l2.75 6.58 2.75-6.58h1.31ZM138.12 173v-8.26h5.44v1h-4.2v2.45h4.09v1h-4.09V172h4.3v1ZM150.12 173l-3.34-4h1.93a1.64 1.64 0 0 0 1.14-.45 1.49 1.49 0 0 0 .48-1.15 1.53 1.53 0 0 0-.49-1.19 1.65 1.65 0 0 0-1.13-.46h-2.05v7.33h-1.16v-8.26h3.4a2.59 2.59 0 0 1 1.76.72 2.4 2.4 0 0 1 .8 1.86 2.29 2.29 0 0 1-.82 1.8 2.84 2.84 0 0 1-1.69.74l2.56 3.16ZM158.36 169.24a1.75 1.75 0 0 1 .64 1.51 2.36 2.36 0 0 1-.83 1.74 2.86 2.86 0 0 1-2 .77 2.72 2.72 0 0 1-2.23-.93 2.93 2.93 0 0 1-.77-1.89h1.24a1.6 1.6 0 0 0 .46 1.26 1.72 1.72 0 0 0 1.29.51 1.55 1.55 0 0 0 1.26-.47 1.46 1.46 0 0 0 .41-1 .93.93 0 0 0-.47-.85 8.59 8.59 0 0 0-1-.54c-.56-.26-1.2-.53-1.91-.81a1.59 1.59 0 0 1-1.06-1.61 2.21 2.21 0 0 1 .81-1.69 2.84 2.84 0 0 1 2-.73 2.59 2.59 0 0 1 2 .78 2.79 2.79 0 0 1 .81 1.73h-1.23a1.87 1.87 0 0 0-.37-.92 1.33 1.33 0 0 0-1.17-.55 1.5 1.5 0 0 0-1.24.45 1.28 1.28 0 0 0-.4.91c0 .42.3.74.91.95s1.1.41 1.49.58a7.44 7.44 0 0 1 1.36.8ZM161.05 173.05v-8.27h1.24v8.27ZM167.7 165.87V173h-1.06v-7.09h-2.3v-1H170v1ZM176 170v3h-1.24v-3l-3-5.29h1.35l2.27 4 2.25-4H179ZM123.57 117.51a1.42 1.42 0 0 1 .51 1.22 1.91 1.91 0 0 1-.66 1.41 2.33 2.33 0 0 1-1.65.62A2.21 2.21 0 0 1 120 120a2.39 2.39 0 0 1-.62-1.53h1a1.35 1.35 0 0 0 .37 1 1.39 1.39 0 0 0 1.05.41 1.22 1.22 0 0 0 1-.38 1.12 1.12 0 0 0 .33-.76.75.75 0 0 0-.37-.69 6.2 6.2 0 0 0-.81-.43c-.45-.22-1-.44-1.54-.66a1.29 1.29 0 0 1-.86-1.3 1.77 1.77 0 0 1 .66-1.37 2.29 2.29 0 0 1 1.58-.59 2.09 2.09 0 0 1 1.58.63 2.17 2.17 0 0 1 .65 1.4h-1a1.52 1.52 0 0 0-.31-.74 1 1 0 0 0-.94-.45 1.18 1.18 0 0 0-.91.34 1 1 0 0 0-.33.73c0 .34.25.6.74.77s.89.33 1.2.47a7.56 7.56 0 0 1 1.1.66ZM125.66 120.6v-6.69h1v6.69ZM132.32 120.59l-3.22-5.12v5.13h-1v-6.68h1.09l3.26 5.13v-5.14h1v6.68ZM140.52 115.93a5.14 5.14 0 0 0-.76-.83 2.15 2.15 0 0 0-1.54-.51 2.4 2.4 0 0 0-1.85.79 2.51 2.51 0 0 0-.74 1.8 2.54 2.54 0 0 0 .73 1.8 2.43 2.43 0 0 0 1.86.78 2.21 2.21 0 0 0 1.55-.51 3.29 3.29 0 0 0 .73-.84h1a3.56 3.56 0 0 1-1.23 1.6 3.24 3.24 0 0 1-2.05.68 3.51 3.51 0 1 1 0-7 3.24 3.24 0 0 1 2.05.67 3.63 3.63 0 0 1 1.24 1.61ZM142.9 120.56v-6.68h4.4v.83h-3.39v2h3.3v.84h-3.3v2.21h3.47v.83ZM155 120.69v-5.9h-1.7V114h2.61v6.69ZM161.7 114.5a2.2 2.2 0 0 1 .68 1.64 2.23 2.23 0 0 1-.06.54 2 2 0 0 1-.18.46l-2 3.52h-1l1.41-2.46a2.23 2.23 0 0 1-1.86-.28 2.22 2.22 0 0 1-.32-3.42 2.32 2.32 0 0 1 1.66-.69 2.23 2.23 0 0 1 1.67.69Zm-.62 2.59a1.45 1.45 0 0 0-1-2.48 1.45 1.45 0 1 0 0 2.9 1.4 1.4 0 0 0 1-.42ZM167.78 119.74v.86h-1v-.86h-3.09V119l3.15-5.11h.9v5h.68v.84Zm-1-4.13-2.06 3.3h2.06ZM174.37 114.76l-2.9 5.85h-1s.44-.93 1.32-2.73 1.41-2.83 1.55-3.13h-3.44v-.83h4.47ZM72.64 132.63a9.35 9.35 0 0 0 .56-2.79 3 3 0 0 0-.47-1.74c-.57-.82-1.72-1.28-3.5-1.34H58.5v2.77h9.11a2 2 0 0 1 1.7.79 1.57 1.57 0 0 1 .21.82A5 5 0 0 1 69 133c-2.25 4.5-7.18 5.27-11.4 5.34V141c7.9-.19 13.1-3.1 15.04-8.37Zm2 7.59a10.11 10.11 0 1 0 10.11 10.11 10.11 10.11 0 0 0-10.12-10.11Zm0 17.18a7.07 7.07 0 1 1 7.07-7.07 7.07 7.07 0 0 1-7.08 7.07ZM52 126.42h-1v5.24h-8.9v2.87H51v10.25h-3.06a10.38 10.38 0 0 1-10.3-10.07v-8.29h-3.43v8.31a10.36 10.36 0 0 1-9.68 10v3.19a13.64 13.64 0 0 0 10.88-6.09l.52-.79.51.79a13.69 13.69 0 0 0 11.5 6.17H51v9.79h3.32v-29.07a2.3 2.3 0 0 0-2.32-2.3Zm29.06 15.12h3.34v-12.7a2.3 2.3 0 0 0-2.29-2.3h-1V129H75v2.54h6.12v2.91H75V137h6.12Zm95.69 7.46v-15.18c0-4.56-3.66-6.95-7.28-6.95h-15.95v3h15.95a3.82 3.82 0 0 1 3.85 3.24V149h-4.8v-9.5a2.29 2.29 0 0 0-2.3-2.29h-1.14V149h-4v-9.5a2.29 2.29 0 0 0-2.3-2.29h-1V149h-6.06v2.54h28V149ZM146 128.72a2.3 2.3 0 0 0-2.3-2.3h-1.13v17.24H146v-8.57h4.23v-2.88H146Zm-33.15-2h-1v5.45h-4v-3.15a2.29 2.29 0 0 0-2.29-2.3h-1.14V142H93.35a2 2 0 0 1-1.72-2v-10.47h8.12v-2.77H88.42v13.62a4.51 4.51 0 0 0 4.58 4.39h11.29v13h3.44V135h4v22.8h3.31v-28.74a2.29 2.29 0 0 0-2.23-2.3ZM139.13 146h-16.4v2.88h16.4c2.19 0 3.14.91 3.28 3.18v5.72h3.43v-5.72c0-2.99-.79-6.06-6.71-6.06Zm-2.64-10.7a8.15 8.15 0 0 0-2.2-5.55h2.9v-2.88h-7.34v-.59a2.3 2.3 0 0 0-2.3-2.3h-1v2.89h-7.34v2.88h2.9a8.15 8.15 0 0 0-2.2 5.55 8.3 8.3 0 0 0 16.6 0Zm-13.59 0a5.29 5.29 0 1 1 5.29 5.25 5.27 5.27 0 0 1-5.29-5.25Z" style="fill:#231815"/></svg>