<svg xmlns="http://www.w3.org/2000/svg" xml:space="preserve" width="700.10431" height="700" viewBox="0 0 700.10431 699.99999"><path d="M447.542 518.827c-7.305 12 .882 22.705-10.272 33.85-12.863 12.854-30.321 5.293-38.446 14.297-10.377 11.502-7.11 19.338-20.763 26.479-16.206 8.477-28.897-3.21-44.468.322-13.772 3.12-14.652 17.564-35.081 17.46-18.159-.097-16.141-13.566-31.062-16.175-13.416-2.343-26.511 6.67-40.077 2.5-13.767-4.227-14.543-22.941-26.526-29.815-12.332-7.076-27.596.737-40.173-14.602-11.178-13.631-1.672-26.271-11.445-36.268-6.116-6.252-23.203-10.032-28.069-23.256-5.942-16.141 5.209-27.288.623-41.734-4.95-15.59-17.977-13.77-16.203-35.25 1.041-12.61 14.925-20.015 16.803-28.75 3.701-17.208-6.74-23.803-3.311-39.243 3.434-15.46 20.178-14.652 28.372-27.06 8.01-12.118-.75-22.913 13.129-37.245 11.63-12.01 24.64-7.166 35.592-13.688 10.703-6.384 8.424-23.947 26.891-30.141 18.014-6.044 26.083 4.257 40.378 1.71 13.901-2.476 10.737-15.508 33.891-17.902 13.971-1.445 18.066 14.024 34.552 17.85 13.604 3.156 17.375-8.576 36.647-3.725 21.291 5.354 15.341 22.99 29.424 30.529 12.008 6.427 19.648-1.217 36.757 12.428 14.466 11.538 1.44 17.22 13.059 35.238 7.707 11.942 19.063 6.767 27.798 22.912 7.673 14.193-1.822 29.024-.757 42.962.881 11.553 16.341 14.515 17.593 33.856 1.539 23.65-17.3 19.132-17.242 38.025.066 19.589 7.306 15.06 4.31 30.83-3.849 20.267-21.69 16.787-31.924 33.606" style="fill:#f25533;fill-opacity:1;fill-rule:nonzero;stroke:none" transform="matrix(1.80872 0 0 -1.80872 -190.666 1105.552)"/><path d="M469.738 420.094c0 93.672-76.373 169.608-170.585 169.608s-170.585-75.936-170.585-169.608c0-93.671 76.373-169.605 170.585-169.605s170.585 75.934 170.585 169.605" style="fill:#fff;fill-opacity:1;fill-rule:nonzero;stroke:none" transform="matrix(1.80872 0 0 -1.80872 -190.666 1105.552)"/><path d="M177.813 415.557s6.063 23.038 3.638 29.1c0 0 1.212 4.04 4.041 4.849 1.617.809-.403 3.235 0 5.256.404 2.02 2.425 5.253 2.425 5.253s5.254 5.254 6.063 6.467c.808 1.212 2.829 3.637 4.041 3.637 1.213 0 4.042 2.83 4.85 6.063.808 3.233.808 4.446 2.83 5.254 2.02.808 3.232 6.06 3.232 8.486 0 2.427-.404 3.235 2.426 5.255 2.829 2.02 6.062 3.638 5.658 6.062-.404 2.425.808 3.638.808 3.638s4.85 2.425 5.254 5.659c.405 3.232 4.043 8.89 8.487 9.699 0 0 21.017 7.679 23.847 9.296 2.828 1.616 42.031 6.063 43.649 5.254 1.616-.81 4.042.403 4.446-2.83 0 0 3.23.809 6.869.809s6.063.808 6.063.808 15.762 2.829 24.654.404c8.891-2.424 12.933-10.104 12.933-10.104s2.021-4.446 6.063-4.85c0 0 4.041-2.02 7.68-6.062 3.635-4.042 4.446-2.021 5.657-2.021 1.213 0 4.041-.403 5.658-.403s3.233-1.213 4.041-4.851c0 0 .403-3.232 3.233-2.828 0 0 4.448-2.83 5.255-8.488 0 0 5.657-8.892 8.084-9.296 2.425-.404 4.849-3.233 6.063-4.445 1.211-1.213 8.89-13.742 9.295-21.018 0 0 2.021-9.295 3.233-9.295 1.212 0 1.212-7.68 1.212-8.892 0-1.211 1.212-6.466 1.212-6.466l-2.828-10.104s-.405-4.85.808-4.85c0 0-4.042-6.061-3.234-6.871l1.213-8.083-.403-4.848s-4.042-7.68-4.447-10.106c-.404-2.426-1.616-10.508-3.636-11.72l-.406-6.062-8.487-16.975s-6.871-24.25-26.675-27.483c0 0-6.87-2.023-7.679-4.445 0 0-14.548-16.976-34.757-13.743 0 0-21.827.404-27.887-2.425 0 0-22.634-1.211-27.483 3.638 0 0-8.083 4.043-16.571 1.213 0 0-4.042-.808-6.87 2.83 0 0-4.042 2.423-6.063 1.21 0 0-3.637-1.212-6.062 3.234 0 0-2.426 4.85-8.488 5.659 0 0-21.42 12.124-26.27 16.57-4.85 4.445-14.55 18.59-14.55 18.59s.947 18.306-12.125 55.37" style="fill:#f25533;fill-opacity:1;fill-rule:nonzero;stroke:none" transform="matrix(1.80872 0 0 -1.80872 -190.666 1105.552)"/><path d="M222.299 459.298s.456 2.371 6.106 3.738c0 0 5.834 2.277 8.204 6.288 0 0 2.096 3.191 2.917 4.558.819 1.367 1.457 2.186 4.92 16.497 0 0 2.645 3.19 11.212 7.93 0 0 1.458.181 2.916-1.459 1.459-1.64 0-3.919 3.008-4.74 3.008-.82 12.943-3.372 19.14 7.02 0 0 1.277 1.548 2.826-.366 0 0 2.279-1.094 2.552-4.284 0 0 1.184-2.825 2.187-4.466 1.003-1.64 1.914-2.46 1.003-4.01-.911-1.55-7.748-6.198-7.748-6.198s1.185-2.917 1.732-2.917c.547 0 1.733-.273 3.829 1.458 2.096 1.732 6.197 4.557 6.744 5.47.548.911 2.37.182 2.37.182s2.187-2.643 2.37-3.099c.183-.456.274-4.102.364-4.74.09-.638 1.186-4.466 1.094-5.377-.091-.912-6.106-3.19-7.474-3.919-1.367-.73-1.823-1.368-3.007-1.824-1.185-.455-2.462-1.823-1.55-2.825.91-1.002 3.645 0 4.648.821 1.003.82 5.014 3.918 5.014 3.918s.819.821 3.736.365c2.279-2.37 1.458-4.01 1.823-5.194 0 0-1.002-2.372-.638-8.022 0 0 .547-2.917-1.366-4.284 0 0-12.762-1.64-14.858-12.396 0 0-.274-6.563 8.933.73 0 0 3.098.638 8.11 9.388 0 0 23.517 38.28 26.25 38.372 2.735.091 3.557-.82 5.562-1.003 2.004-.182 3.189-.639 4.647-.639 1.459 0 10.483-3.28 11.576-4.01h3.646s1.822-.183 3.645-3.645c1.823-3.464-.091-.364-.091-.364s4.01-2.553 7.747-8.386v-2.643s-15.403-6.108-18.411-9.57c-.82-1.095-4.374-2.552-5.65-3.373 0 0-3.008-2.186-5.56-5.74-2.551-3.557-22.15-30.352-25.34-32.45l4.01.273s-.82 1.46 1.825 3.921c2.642 2.46 11.392 7.11 21.509 7.564 10.118.456 12.852.455 17.136-3.554 0 0 10.483-7.566 9.206-21.876 0 0 4.1 1.368 3.19 5.651-.912 4.285-.912 5.834-6.38 13.581 0 0-4.74 6.653-5.014 10.755-.273 4.102-.82 13.581.638 19.232 1.46 5.651 4.923 10.481 6.107 11.12 0 0 .456 1.094 2.825 2.825 0 0 13.308 10.482 15.405 10.573 0 0 13.398 1.913 16.588 4.192 3.19 2.28.09-.455.09-.455s8.569.182 9.754 1.367c0 0 6.562-17.863 6.562-18.229 0-.364-14.674-4.01-16.223-6.107-1.551-2.096-2.463-3.098-3.555-5.194-1.094-2.098 1.093-3.19 5.286-3.282 4.192-.09 8.02.09 8.02.09s1.367.548 1.914 1.185c.548.638 3.008 1.46 3.556.275 0 0 1.365-1.367 1.913-5.286 0 0 1.64-4.467 2.279-6.199.637-1.732.545-2.46-1.185-3.828-1.732-1.366-1.186-1.73-2.644-.364-1.458 1.367-2.643.091-4.192-.548-1.55-.638-15.586-5.286-15.586-6.105 0-.822-1.366-3.829 5.013-3.192 6.38.64 5.65 1.004 6.106 1.186.456.181 2.098.09 2.918.728.818.638 4.1 1.55 3.645-1.64-.457-3.19 0-4.375-.638-5.377-.637-1.002.274-6.47-.183-7.29 0 0 .82-1.915-6.651-2.555 0 0-8.14.121-16.251-9.726-8.11-9.848-11.586-12.552-20.856-15.448l.58-3.477s4.055 4.055 7.917 5.022c3.863.965 8.11.965 10.042 1.351 1.93.387 8.69-.193 13.904-3.669 5.215-3.477 8.496-10.042 8.496-10.042l-8.69-16.992s-11.971-1.739-15.641 7.145c-3.668 8.882 4.055 13.517 9.462 11.973 5.407-1.546 6.953-5.023 3.67-10.622 0 0 6.95-1.35 6.757 5.793 0 0-5.406 9.268-12.744 10.041l-7.338.773s-12.552-.966-15.063-10.62c0 0-1.736-3.863 13.325-10.814 0 0 1.545-1.35.966-4.829-.58-3.475-1.158-12.745-1.158-12.745s-3.283-2.51-3.864-2.51c-.58 0-6.178 7.725-9.847 9.848-3.67 2.125-10.428 5.794-11.587 5.794-1.158 0-7.531 1.352-20.276-1.159-12.745-2.51-12.745-2.897-19.117.772 0 0-16.22 5.601-15.641 25.877 0 0-15.45-11.394-17.96-11.78l-10.427-11.587s-1.352-8.689-20.662-12.165c0 0-12.358 0-14.87 5.022-2.51 5.02-6.951 10.426-6.758 11.006.193.58-1.931 21.627 5.407 23.751 0 0 3.283.58 4.055-.772 0 0 2.51 3.283 3.862 3.283 0 0-11.006 5.407-7.144 13.132 0 0 1.158 5.407 9.655 4.44 0 0 5.986-2.123 6.372-5.02.386-2.898.966-6.372.386-6.372 0 0 5.215 4.055 1.352 13.904 0 0-4.248 9.074-14.87 4.247-10.62-4.827-12.744-9.654-11.2-25.876 0 0-3.282-5.02-5.213-2.51s-22.014 6.372-25.297-3.09c-3.283-9.462-2.123-19.889 9.656-22.207 0 0 3.09-.385 3.476 1.546 0 0-1.352 2.124-1.545 3.861-.193 1.738 2.704 4.828 5.02 4.828 2.318 0 6.18.387 7.918-1.545 1.738-1.93 4.827-2.895 4.055-8.495 0 0 1.158-2.899-6.952-5.987-4.827-.58-13.517-.194-16.414 1.157 0 0-20.855 7.532-19.31 18.152 1.545 10.621-18.731 32.25-6.373 45.766 0 0 6.373 8.69 22.207 6.953 11.394-1.739 16.994-6.566 18.73-7.918 0 0 1.353 14.096 7.533 19.118 6.179 5.02 7.917 5.6 12.166 6.951 4.247 1.352 13.13 4.441 14.289 7.918 2.897 2.703 2.124 2.703-2.703 4.441 0 0-3.863 1.931-7.531-.194-3.67-2.124-6.952-5.02-6.76-5.793.193-.772-1.158-5.6-1.93-5.6-.773 0-3.862-1.158-3.862-1.158s-2.124 2.51-2.318 4.055c0 0-6.951.772-7.531 2.318-.58 1.544 1.545 9.075 1.93 11.778" style="fill:#fff;fill-opacity:1;fill-rule:nonzero;stroke:none" transform="matrix(1.80872 0 0 -1.80872 -190.666 1105.552)"/><path d="M199.163 354.342s-13.557 5.474-14.86 13.556c0 0 .261 3.128 1.564 15.38 1.303 12.253 1.564 3.91 1.564 6.519 0 2.607-2.085 4.692-4.43 5.995-2.347 1.304-6.258 10.95-1.566 14.339 4.693 3.389 5.214 3.388 10.167 4.432 4.954 1.044 6.778 1.565 9.646.26 2.87-1.303 3.65-1.824 5.997-2.085 2.346-.26 8.864-4.692 10.167-6.517 1.303-1.826 2.868-2.345 3.91-2.086 1.043.26 1.565 1.044 2.086 5.476.522 4.43 2.346 10.168 3.39 12.512 0 0 2.346 1.824 2.867 5.214 0 0 1.565 2.608 8.343 6.257 0 0 5.473 1.04 8.603 3.649 0 0 11.21 3.912 13.817 11.994 2.346 6.776-.262 5.995-.782 7.559 0 0-5.736 7.04-19.553 1.044-9.907-3.39-11.47-10.166-11.992-13.296 0 0-1.304.78-3.91.78 0 0 4.171.262 4.431 8.865 0 0 2.346 2.346 3.91 3.39 1.565 1.042 7.561 4.953 8.343 6.257.782 1.302 2.085.26 4.954 7.039 2.867 6.777 8.081 14.077 7.3 15.119 0 0 1.563-.521-1.044 1.826-2.607 2.346-3.65 4.17-5.735 3.128-2.085-1.043 4.692 3.389 4.692 3.389s-.782-5.997 5.996-8.082c6.78-2.086 15.643-7.3 28.677 7.82l3.911-5.995s-1.825 4.432-5.475 1.825c-3.65-2.607-8.342-6.257-8.342-8.342 0-2.086-1.043-4.172 1.303-8.604l4.171-2.086h5.997s10.428 4.955 11.471 7.823l.521-4.954s4.171 3.91-4.954-.783c-9.124-4.692-14.077-7.821-13.035-12.774 1.044-4.953 3.91-5.475 5.475-5.475 1.564 0 7.821 1.044 7.821 1.044s8.604 3.91 8.604 5.734c0 1.826-.522-7.038-.522-7.038s-.52 4.17-7.039-.261c-6.518-4.431-14.078-7.038-15.12-12.513-1.044-5.475-2.868-9.125 4.432-14.34l7.821.262s9.123 3.649 11.47 9.906c0 0 21.377 35.455 27.374 37.542l2.868 2.606s2.868 1.044 4.171 1.303c1.302.262 1.825 3.91-.262 3.91 0 0 9.906-.78 13.035-3.388 0 0-13.035-4.691-19.812-11.731-6.779-7.04-12.775-13.818-16.426-20.335-3.649-6.517-9.384-15.121-12.25-19.552 0 0-6.258-5.996-9.648-5.996l-7.299-1.042s-3.127.78-3.649 2.345c-.522 1.564-4.954-1.303-4.954-4.431 0-3.13-.26-7.04 9.124-4.955 9.386 2.085 11.472.523 20.075 10.95 8.601 10.427 14.337 25.549 27.112 37.02 12.774 11.47 23.463 11.73 23.463 11.73s2.606.26 1.563 3.39l7.301-8.603s-.26 3.91-6.779 1.303c-6.517-2.606-20.334-5.475-37.019-31.544-16.685-26.071-13.035-17.727-14.86-19.814-1.825-2.084-12.252-6.778-12.252-6.778s-13.557.782-14.078-.781c-.522-1.564-.26-6.518 2.868-6.518s9.124-3.39 26.59 9.385l5.475.26s1.305-4.431 5.736.262c0 0 15.12 6.516 19.292 5.736 4.171-.784 9.906.26 15.12-9.125 0 0 1.826-2.085 1.303-7.561-.52-5.475.783-8.603.783-8.603l7.3-.782s10.427 1.564 9.124 15.119c0 0 .26 7.3-6.518 12.776 0 0-8.08 14.859-1.563 26.33 6.517 11.47 8.603 12.775 9.645 12.775 1.043 0 13.818 7.3 16.686 8.343 2.867 1.042 13.034 2.345 14.6 2.345 1.562 0 2.604 0 1.562 2.608l3.39-7.04s-18.249-8.082-20.335-10.428c0 0-12.514-12.774 4.432-17.206 0 0 13.296-1.825 19.031 3.39l2.086-6.258s1.563 3.39-4.432 2.346c-5.997-1.042-21.377-6.255-23.724-9.384-2.346-3.13-5.213-7.04 0-10.43 5.213-3.388 8.602-3.646 11.992-2.865 3.39.78 7.821 1.042 7.821 1.042s1.824 1.303 2.607 1.824l-.783-5.735s.26 4.172-9.385 0c-9.645-4.17-17.987-11.21-17.987-13.557 0-2.345-9.125-9.645-11.21-9.645-2.087 0-2.346-2.608-4.693.522-2.347 3.128-3.389.78-5.214.26-1.825-.521-3.39-.522-2.868-2.086.521-1.564 2.085-6.257 7.04-5.996 4.952.26.521-.261.521-.261s1.824-3.128.781-4.17c0 0-8.082-9.907-3.389-15.381 4.693-5.476 17.206-15.903 18.511-8.603l-.522-13.298s-8.864 17.99-32.588 20.076c0 0-19.813-3.39-22.94-3.651-3.129-.261-4.955-.261-4.955-.261s-15.903 8.342-12.252 19.553c0 0-6.257 4.954-7.822-3.91 0 0-1.303 6.258 0 7.039 1.304.782 11.994 12.253 13.558 12.514 1.563.26 9.905 4.43 16.423-2.347 0 0 4.692-4.693 2.606-9.907l-2.345-2.345-.26 6.256s1.563 2.347-5.216 5.215c-6.777 2.867-10.688-3.651-10.688-3.651s-2.346.26-.783-10.168c2.87-10.427 13.297-7.3 13.297-7.3s5.735.524 7.821 2.348c2.086 1.824 2.346 4.432 2.346 4.432s1.565 4.952 1.565 5.735c0 .78-1.564 5.997-1.304 7.3.26 1.304-2.348 7.299-3.91 7.299-1.565 0-6.517 3.909-8.864 4.17-2.346.26-6.517 2.608-18.248-5.212 0 0-9.647-9.386-10.429-9.908-.782-.521-17.728-12.252-19.814-12.252-2.085 0 5.736-2.086-16.423-1.564 0 0-4.693-.262-7.56 2.085 0 0-2.608 1.303-3.912-.521-1.303-1.825-1.302-4.432.783-5.214 0 0 8.081-11.211 32.327.52l-9.646-11.73s1.042 4.954-3.65 3.389c-4.693-1.565-1.565-3.65-5.215-4.692-3.649-1.044-4.432-4.432-10.949-4.693 0 0-11.21 1.825-13.295 5.474-2.086 3.65-3.39 3.39-4.17 13.818 0 0 3.91 9.644 4.691 10.427.782.782 1.304 3.389-.26 3.389-1.565 0 4.431 3.39 5.214 3.39.782 0 11.47-1.042 14.6 6.517 3.127 7.56 3.91 18.509-3.65 22.94-7.562 4.434-9.647 3.13-11.733 3.13-2.086 0-7.039-1.825-8.603-1.303-1.564.52-12.775-7.82-13.817-15.382-1.043-7.56-2.607-11.732-.522-13.296 0 0-2.606 4.955-17.466 2.608-14.86-2.347-13.818-12.776-14.6-21.117.261-9.385 7.3-15.641 9.125-15.902" style="fill:#254aa5;fill-opacity:1;fill-rule:nonzero;stroke:none" transform="matrix(1.80872 0 0 -1.80872 -190.666 1105.552)"/><path d="M290.356 328.179c.684-.822 1.657-1.23 2.92-1.23 1.178 0 2.152.427 2.92 1.279.767.838 1.152 1.89 1.152 3.163 0 1.438-.367 2.585-1.1 3.436-.735.837-1.708 1.257-2.92 1.257-1.315 0-2.315-.378-2.998-1.13-.665-.754-.998-1.857-.998-3.312 0-1.507.34-2.661 1.024-3.463m-.148-7.99c.608-.931 1.427-.823 2.62-.823 1.766 0 2.343.003 3.276 1.557.933 1.55 1.317 2.304 1.519 5.33-.036-.527-.33-.47-1.24-1.01-.93-.54-2.145-.594-3.39-.594-1.96 0-3.514.617-4.662 1.855-1.148 1.254-1.721 2.945-1.721 5.07 0 2.085.585 3.747 1.756 4.984 1.189 1.217 2.795 1.826 4.819 1.826 2.34 0 4.136-.822 5.385-2.463 1.269-1.644 1.905-4.04 1.905-7.187 0-3.826-.677-6.734-2.025-8.724-1.33-1.99-3.245-2.986-5.745-2.986-1.688 0-3.047.456-4.079 1.37-1.033.923-1.627 2.204-1.787 3.842h2.622c.16-1.175.23-1.255.746-2.046M308.871 320.606c.783-.745 1.801-1.117 3.054-1.117 1.252 0 2.268.381 3.052 1.142.785.744 1.175 1.73 1.175 2.954 0 1.141-.383 2.042-1.147 2.706-.749.661-1.777.992-3.08.992-1.358 0-2.402-.33-3.132-.992-.732-.664-1.097-1.615-1.097-2.857 0-1.14.392-2.084 1.175-2.828m.563 9.938c.642-.577 1.542-.864 2.701-.864 1.142 0 2.034.287 2.674.864.623.543.936 1.291.936 2.248 0 1.021-.32 1.821-.96 2.398-.645.575-1.526.863-2.65.863-1.14 0-2.034-.288-2.673-.863-.626-.577-.937-1.377-.937-2.398 0-.957.303-1.705.91-2.248m-2.703-.095c-.456.691-.685 1.511-.685 2.464 0 1.566.536 2.818 1.61 3.752 1.11.951 2.608 1.428 4.494 1.428 1.865 0 3.343-.477 4.436-1.428 1.09-.934 1.638-2.186 1.638-3.752 0-.953-.24-1.773-.716-2.464-.476-.692-1.2-1.288-2.172-1.793 1.151-.43 2.053-1.092 2.708-1.988.658-.916.986-1.97.986-3.166 0-1.829-.613-3.285-1.839-4.367-1.227-1.12-2.897-1.68-5.013-1.68-2.135 0-3.828.56-5.072 1.68-1.208 1.082-1.81 2.538-1.81 4.367 0 1.196.301 2.25.9 3.166.654.896 1.567 1.557 2.737 1.988-.992.505-1.725 1.101-2.202 1.793M327.347 332.304c-.501-.374-.962-.21-1.765-.162-.841.049-1.838-.071-3.042-.071l-.087 2.317h.152c1.766 0 3.09.316 3.973.949.884.633 1.213 1.35 1.315 2.728h1.8v-20.31l-2.265.028zM277.052 332.304c-.5-.374-.962-.21-1.765-.162-.842.049-1.838-.071-3.042-.071l-.087 2.317h.151c1.766 0 3.091.316 3.974.949.884.633 1.212 1.35 1.314 2.728h1.801v-20.31l-2.266.028z" style="fill:#231f20;fill-opacity:1;fill-rule:nonzero;stroke:none" transform="matrix(1.80872 0 0 -1.80872 -190.666 1105.552)"/><path d="M161.952 450.722c1.781-.41 2.61-.41 3.854.728 1.378 1.263 1.457 1.584 2.058 4.024.527 2.142.487 3.205 0 4.753-.4 1.272-.71 1.48-1.739 1.74-1.719.432-2.179.047-3.279-.766-.964-.689-1.135-2.324-2.324-4.57l-1.658-3.316c-1.836-3.322-3.088-3.344-4.462-4.01-1.133-.548-2.745-.552-4.862-.03-2.216.546-3.608 1.693-4.559 3.625-.964 1.982-1.206 4.36-.518 7.15.712 2.887 1.642 5.997 3.522 7.251 1.87 1.257 4.847 2.365 7.5 1.764l-1.068-4.896c-1.25.024-2.805.024-3.944-1.115-.969-.969-1.3-1.915-1.852-4.102-.429-1.7-.118-2.736.581-3.593.908-1.116 1.581-1.319 1.97-1.275 1.301.146 1.483.142 2.408.682.9.545.936 1.138 1.765 2.68l1.654 3.225c1.554 2.797 2.065 4.203 3.561 5.237 1.592 1.09 4.042 1.357 6.26.81 2.444-.603 3.826-1.944 4.891-3.976 1.275-2.433.886-4.815.414-7.769-.538-3.37-2.477-6.465-4.493-7.844-1.98-1.39-3.975-1.749-6.839-1.044zM172.857 477.104c2.116.46 3.656 1.696 4.621 3.711 1.008 2.104 1.044 4.158.108 6.161-.945 2.076-2.764 3.784-5.455 5.126-2.709 1.351-5.149 1.764-7.316 1.241-2.107-.487-3.665-1.78-4.673-3.885-.957-1.996-.97-3.982-.044-5.959.972-2.067 2.795-3.766 5.468-5.1 2.675-1.332 5.105-1.765 7.291-1.295m-17.565 4.402c-1.458 3.233-1.353 6.543.316 9.933 1.714 3.484 4.315 5.672 7.803 6.564 3.556.915 7.485.332 11.784-1.754 4.275-2.074 7.141-4.788 8.6-8.136 1.481-3.304 1.364-6.697-.35-10.18-1.657-3.367-4.247-5.473-7.769-6.317-3.558-.857-7.463-.255-11.715 1.807-4.274 2.076-7.165 4.77-8.669 8.083M184.498 511.465c1.151 1.456 1.745 2.707 1.777 3.757.031 1.076-.531 2.067-1.688 2.978a3.848 3.848 0 0 1-1.664.786 3.104 3.104 0 0 1-1.682-.08c-.53-.167-1.05-.482-1.558-.947-.34-.34-.818-.9-1.434-1.677l-3.284-4.15 6.197-4.88zM168 510.327l5.562 7.092c1.075 1.37 1.908 2.352 2.499 2.948.871.873 2.597 2.697 3.524 3.088 1.113.463 2.349.937 3.522.726 1.189-.194 2.694-.208 4.663-1.657 1.343-.991 2.266-2.616 2.694-3.938.412-1.3.357-1.583-.105-3.005 1.13.764 2.43.689 3.523.415.754-.192 2.139-1.285 3.834-2.383l2.487-1.97c.529-.357.809-.392 1.242-.516.384-.147.506-.058.829 0h.725l-3.405-4.447a5.209 5.209 0 0 0-1.131.433c-.405.197-.88.48-1.427.854l-2.963 1.983c-1.96 1.34-2.541 1.465-3.506 1.384-.999-.086-2.07-1.286-3.419-3.005l-3.108-3.833 9.008-6.8-3.827-4.243zM211.092 531.172l-9.904 5.604 3.861-10.868zm-15.93 8.186 4.711 3.812L224 528.866l-4.136-3.79-5.018 3.304-7.906-6.234 2.102-5.89-4.28-3.168zM234.598 539.378c2.329 1.29 3.017 1.573 3.619 2.758.677 1.312.995 1.736 0 3.533-.932 1.682-1.296 1.638-2.844 1.896-1.535.234-3.236-.817-5.342-1.982l-3.877-2.07 3.36-6.806zm-13.27 13.356 2.585-5.601 4.48 2.068c1.818.885 2.95 1.582 3.448 2.326.579.863.966 2.41.258 3.534-.717 1.137-1.318 1.35-2.412 1.378-.984.024-2.877-.758-4.627-1.61zm-6.462 1.034 10.108 5.657c1.16.667 2.136 1.157 2.924 1.473.933.343 1.807.499 2.622.469 1.094-.01 2.73-.327 3.705-.956.963-.61 1.733-1.453 2.31-2.533.61-1.143.856-2.33.74-3.56-.115-1.228-.496-1.92-1.3-2.963 1.506.477 2.788.204 4.138-.431 1.358-.603 2.182-1.775 3.028-3.363.724-1.354 1.04-2.722.954-4.1-.078-1.401-.8-2.823-1.65-3.92-.427-.494-1.178-1.105-2.252-1.832-.84-.567-2.156-1.364-3.947-2.394l-9.144-4.812zM255.236 550.391c1.777-1.243 3.719-1.543 5.827-.9 2.2.67 3.7 2.02 4.5 4.05.846 2.082.832 4.561-.044 7.433-.882 2.891-2.252 4.957-4.11 6.196-1.791 1.22-3.786 1.493-5.987.822-2.088-.637-3.526-1.957-4.312-3.962-.822-2.097-.797-4.573.073-7.426.87-2.854 2.22-4.925 4.053-6.213m-8.652 16.74c1.672 2.891 4.434 4.698 8.289 5.421 3.962.742 7.45.107 10.47-1.907 3.085-2.05 5.19-5.222 6.32-9.517 1.122-4.269.799-7.884-.97-10.844-1.712-2.949-4.55-4.795-8.512-5.537-3.828-.717-7.242-.044-10.246 2.022-3.037 2.084-5.113 5.25-6.228 9.496-1.123 4.271-.83 7.892.877 10.865M276.647 576.172l5.621.119 1.445-21.488 13.786 1.034.087-4.395-18.61-1.666zM336.435 555.237c-.776-2.859-2.298-4.958-4.57-6.298-2.276-1.35-5.067-1.756-8.372-1.212-3.792.622-6.536 2.347-8.229 5.175-1.746 2.835-2.209 6.43-1.386 10.778.818 4.327 2.576 7.532 5.274 9.612 2.64 2.041 5.854 2.752 9.641 2.13 3.178-.523 5.6-1.71 7.27-3.563 1.644-1.837 2.402-4.947 2.105-7.493l-5.342.862c.11 1.964-.086 2.843-.689 3.532-1.212 1.387-1.706 1.794-4.05 2.154-3.36.517-4.825-.17-6.03-1.722-1.797-2.31-2.088-3.158-2.586-6.894-.516-3.877-.442-4.827.776-7.152.947-1.809 2.153-2.499 3.961-2.757 2.498-.357 3.081-.444 4.396.345 1.295.775 1.896 1.12 2.846 3.36zM347.179 548.703c.58-2.053 1.873-3.49 3.88-4.313 2.094-.857 4.078-.763 5.949.285 1.94 1.062 3.47 2.96 4.593 5.695 1.126 2.75 1.367 5.177.723 7.278-.607 2.042-1.957 3.493-4.051 4.352-1.988.814-3.906.703-5.751-.336-1.932-1.087-3.453-2.988-4.566-5.705-1.113-2.716-1.372-5.135-.777-7.256m1.714 16.683c3.002 1.93 6.378 2.493 10.128 1.684 3.854-.832 6.56-2.706 8.122-5.621 1.597-2.973 1.744-6.571.437-10.794-1.3-4.2-3.511-7.278-6.631-9.233-3.071-1.967-6.534-2.532-10.388-1.701-3.724.804-6.346 2.682-7.862 5.638-1.54 2.986-1.663 6.567-.37 10.743 1.299 4.2 3.489 7.294 6.564 9.284M379.875 555.492l4.652-2.93-12.321-18.353 11.201-7.238-2.499-3.792-15.596 10.254zM402.364 539.724l3.791-3.878-15-15.752 9.658-9.064-3.189-3.446-13.7 12.925zM421.665 519.991l11.805-15.682-3.791-2.672-8.531 11.892-4.911-3.275 8.099-10.943-3.704-2.67-7.842 10.77-6.117-4.309 9.133-12.063-3.705-2.586-12.065 16.286zM426.49 468.206c-1.727.135-3.556 1.33-5.084 2.34-1.61 1.05-2.81 2.395-3.592 4.032-1.443 3.012-1.465 5.996-.065 8.955 1.412 3.044 4.07 5.506 7.97 7.385 3.923 1.89 7.495 2.415 10.715 1.575 3.1-.818 6.072-3.114 7.547-6.193 1.244-2.597 2.083-7.238 1.551-9.563-.556-2.364-2.08-4.098-4.308-5.601l-2.13 4.617c1.354.984 2.137 1.917 2.303 3.74.086.948.102 1.786-.777 3.62-1.202 2.509-2.67 3.705-4.308 4.049-2.576.543-5.513.603-7.755-.516-3.262-1.632-4.997-2.586-5.687-4.653-.684-2.051-1.292-3.878-.517-5.946 1.005-2.683 2.241-3.62 4.05-4.222 2.273-.757 4.568-.776 4.911-.431l-2.584 5.945 3.877 1.638 4.653-9.91-13.098-5.944-1.465 3.359zM451.737 464.156l4.134-19.043-4.134-.862-3.017 13.787-6.118-1.12 3.103-13.012-4.569-.775-2.84 12.494-6.895-1.293 3.531-14.735-4.652-.774-4.632 19.82zM160.427 364.708a3.347 3.347 0 1 1-6.607 1.086 3.347 3.347 0 1 1 6.607-1.086M438.178 365.808a3.349 3.349 0 1 1-6.608 1.09 3.349 3.349 0 0 1 6.608-1.09M189.663 333.032l6.841 5.36 1.886-2.472c.303-.369 1.554-1.869 1.502-2.015-.028-.094-.814-.559-1.082-.61-.196-.057-.992-.905-1.072-.935-.117-.027-1.012-.715-1.114-.8l-22.518-17.842-3.357 4.677 15.392 11.943-3.834 4.561 3.818 2.908zm-.806 14.607c-.05-.109-.288-.218-.715-.329-.429-.11-.422-.204-.888-.65-.36-.346-5.284-4.795-5.62-5.102-2.927-2.662-2.99-3.485-4.809-6.935-.476-.906-.68-4.539-.495-7.387l-4.698-3.877c-1.164 2.877-1.885 6.816-1.102 9.22.743 2.197 1.315 4.447 2.716 6.56-2.32-.912-3.657-.994-6.245-1.33-2.934-.379-7.823 1.811-9.089 2.871l4.391 3.6c3.135-.859 6.126-1.51 10.167-.298 3.102.932 8.91 5.321 13.025 8.435l2.974-3.802c.331-.484.46-.812.388-.976M236.446 306.548c-.008-.12-4.797-7.66-4.797-7.66l3.703-2.181-2.764-4.457-3.936 2.35-9.88-15.467-4.682 3.39 17.623 27.096s4.72-2.88 4.733-3.071m-9.68 5.577-8.237-13.445-10.033 6.694-3.502-6.16c-.35-.532-.463-1.625.12-2.052 2.303-1.668 9.257-5.843 9.257-5.843l-2.797-4.256s-11.902 6.478-12.598 9.408c-.357 1.5.204 4.029.65 4.74l7.04 10.947 9.765-6.322 3.326 5.086-9.925 6.152 2.606 4.226zM264.642 268.575s-1.557.058-1.324 1.066l.21 1.357 20.696-3.396 1.504 9.646-26.684 4.332-.673-4.123 21.362-3.523-.358-1.825-21.001 3.465s-.785-5.027-.881-5.768c-.604-4.606 5.936-5.42 5.936-5.42l20.11-3.262.694 4.24zM263.548 286.567s-2.742.058-2.282 2.401l.216 1.358 10.16-1.658-.533-3.323zm25.11 7.33c-.114.125-5.685.87-5.685.87l-.604-3.673-4.503.73c.348 1.891.593 3.276.58 3.295-.088.122-5.686.87-5.686.87l-.597-3.634-10.394 1.71s.674 3.606.608 3.698c-.115.126-5.364.815-5.364.815l-1.27-9.285s-1.286-4.243 2.519-5.392l17.61-2.834s.613 3.267 1.238 6.65l4.509-.782-1.356-7.049 5.866-.964s2.59 14.856 2.529 14.974M330.69 297.778c.046-.1 1.91-8.305 1.91-8.305l2.218.211-1.9 8.704 5.37 1.188 7.413-32.15-5.162-1.336-4.36 19.287-2.72-.472 4.767-19.238-4.913-1.203-7.686 32.25s4.985 1.178 5.063 1.064m-7.362-2.123 1.286-4.754-9.032-1.79 3.478-13.45c1.015-3.269 1.877-4.948 4.393-4.4 2.86.621 5.852 1.336 5.852 1.336l1.054-4.084s-5.51-1.337-8.23-1.807c-2.967-.514-7.156.545-8.579 7.62l-4.243 18.231zM387.313 307.893l-4.64 7.088 3.38 2.376-2.516 3.229-3.288-2.16s-2.23 3.443-2.357 3.492c-.206.03-4.654-3.111-4.654-3.111l9.485-14.01zM366.001 298.91c-2.329.382-3.917 2.53-3.545 4.793.373 2.266 2.566 3.79 4.895 3.406 2.331-.384 3.917-2.529 3.544-4.794-.373-2.264-2.564-3.79-4.894-3.406m9.609 3.551c.608 2.163.076 4.525-1.317 6.311-1.053 1.348-2.943 2.16-4.625 2.176l3.133 2.036-2.263 3.367-6.407-4.356-1.647 2.227-4.525-3.05 1.496-2.087-6.444-4.228 2.282-3.25 2.758 1.792c-.054-.198-.108-.393-.15-.612-.422-2.18-.337-3.677.836-5.174 1.157-1.469 2.737-2.432 5.104-2.759 2.19-.302 4.978.577 7.333 1.953 2.609 1.53 3.843 3.535 4.436 5.654M388.67 306.002l-23.097-14.939 2.58-3.874 18.442 12.141 5.07-7.963 4.545 3.161zM414.999 309.744l-3.531 3.134 4.738 5.338-8.84 7.846 3.42 3.854 8.84-7.846 2.228 2.513-8.838 7.844 3.445 3.883 8.841-7.845 8.461 9.534 3.53-3.133zm7.604 32.343c2.289-2.884 3.693-4.672 4.208-5.369l-3.344-3.767c-.13.183-1.304 1.591-3.524 4.223-2.217 2.632-4.375 4.911-6.467 6.84l-14.114-15.902-3.528 3.132 17.811 20.07c3.683-3.27 6.668-6.346 8.958-9.227" style="fill:#254aa5;fill-opacity:1;fill-rule:nonzero;stroke:none" transform="matrix(1.80872 0 0 -1.80872 -190.666 1105.552)"/></svg>