<svg xmlns="http://www.w3.org/2000/svg" viewBox="0 0 297.77 286.79"><path d="M126.39 89.31v1.24c3.88 0 4 4.29 4 4.29v11.82h-13L112.65 97l1.85-5.87h-13v1.35c2.38 0 4.8 1.4 3.75 5.26l-11.39 39.4H100l9.78-31.14 16.68 31.11h4v2.49h6.92V89.31ZM120 112h10.48v21.29ZM166.06 113.55v5h14.15v12.25h-27.13v3.06h31.79l-2.71 4.95h-36.1v-8.23s-.66-3.27-3.13-3.27v-.91h30.25v-3h-27l-2.18-4.84h14.92v-5h-18.6l-2.7-4.73h14.31c-3.12-2.13-5.09-5.19-5.09-8.58 0-5.46 5.09-10 12-11.3v-.42a2 2 0 0 0-1.62-1v-.79h7.34s1.52.79 1.63 1.8v.39c7 1.21 12.15 5.81 12.15 11.33 0 3.39-2 6.45-5.1 8.58h14.11l-2.49 4.73Zm-3.46-5.48c4.73 0 8.55-3.5 8.55-7.83s-3.82-7.81-8.55-7.81-8.57 3.5-8.57 7.81 3.85 7.83 8.57 7.83ZM126.6 146.5v1.5s4.3.6 4.3 3.3h-18.68c-.32-.11-.67-.21-1-.3a27.51 27.51 0 0 0-1.31-4.5h-8.07v1.19a2.72 2.72 0 0 1 2.74 2.86v.2a16.64 16.64 0 0 0 2.73 32.94 16.07 16.07 0 0 0 14.43-9.23h9.18v25.14H138v-53.1Zm4.3 23.19h-7.71a16.09 16.09 0 0 0 .2-2.6 16.82 16.82 0 0 0-4-11h11.51Zm-32.09-2.75c0-6 3.92-10.85 8.78-10.85s8.76 4.86 8.76 10.85-3.93 10.85-8.76 10.85-8.78-4.86-8.78-10.85ZM140 150.32v1.29s3.75-.16 3.75 4.65v28l20.87-5.87v15.28h7.13V170.1h6.62v23.54h7.07v-46.32H174.8v1s3.59 1 3.59 4.21V165h-6.76v-17.68H161.4v1s3.24.45 3.24 5.1v19.26l-13.82 4.21v-21.38h8.66l3-5.19ZM110.4 14.11a4.46 4.46 0 1 0-4.46-4.46 4.45 4.45 0 0 0 4.46 4.46ZM118.52 42.45a4.45 4.45 0 1 0-4.45-4.45 4.46 4.46 0 0 0 4.45 4.45ZM192.94 24.73c-19.9 0-17.07 6-30 7.13-14.57 1.31-37.13-17.06-42.26-20.86 4 .34 49.72 9.79 61.32 12.44v-1.86c-13.09-3.31-47.24-9.44-62.16-12.75 17.74-8.12 31.68-9 41.95-4.48 6.78 3 13.74 10.77 17.56 13.75 2.12 1.67 7.61 3.15 12.26 3.32l-1.16-2c-3.15 0-6.8-.83-8.62-2-4.13-2.62-11.1-11.42-19.56-14.9-16.38-6.74-40.43 1.66-46.57 6.31a100.74 100.74 0 0 0 13.1 11.27c-1.83 2.82-8.62 9.61-12.44 11.6 9.45-.5 26.86 14.42 45.59 4.8s21.21-10.11 31.81-9.77Zm-62.15-3.15s5.47 3.49 8.44 5.15c-3 .49-16.57 2.81-16.57 2.81 3.34-3.32 7.34-6.47 8.13-7.96Zm-6.8 10c2.66-.33 14.59-2.14 18.06-3.16 5 1.83 11.93 6.14 19.74 5.81-14.11 7.41-24.71 1.77-37.79-2.7Z" style="fill:#0c3388"/><path d="M179.83 13.26a4.45 4.45 0 1 0-1.63-6.09 4.45 4.45 0 0 0 1.63 6.09ZM172.7 41.87a4.45 4.45 0 1 0-1.63-6.08 4.46 4.46 0 0 0 1.63 6.08ZM190.28 15.68c3.29 2.32 38.2 33.32 46.94 41.41l.91-1.58c-9.7-9.41-36.21-31.79-47.47-42.11 19.4 1.82 31.91 8 38.56 17.07 4.38 6 6.53 16.2 8.34 20.69 1 2.51 5 6.54 9 9v-2.3c-2.72-1.57-5.48-4.12-6.48-6-2.26-4.37-3.9-15.46-9.49-22.7-10.83-14-35.85-18.76-43.49-17.81a101.66 101.66 0 0 0 5.71 16.31c-3 1.53-12.26 4-16.56 3.84 8.43 4.29 16.06 25.91 37.09 26.93s23.43 1.84 32.45 7.43l.27-2.15c-17.22-9.93-17.77-3.35-29.55-8.81-13.29-6.15-23.67-33.34-26.23-39.22Zm3.46 14.24s3 5.75 4.77 8.68c-2.83-1.07-15.76-5.85-15.76-5.85 4.52-1.2 9.54-1.95 10.99-2.83Zm-10.84 5.22c2.47 1 13.7 5.42 17.23 6.3 3.39 4.06 7.26 11.27 14.18 14.88-15.94-.58-22.31-10.77-31.41-21.18Z" style="fill:#0c3388"/><path d="M240.4 47.21a4.46 4.46 0 1 0 1.6-6.09 4.43 4.43 0 0 0-1.6 6.09ZM219.94 68.43a4.45 4.45 0 1 0 1.62-6.07 4.46 4.46 0 0 0-1.62 6.07ZM276.4 86.3c-2.4-17.57-21.68-34.18-28.77-37.15a100.43 100.43 0 0 0-3.19 17c-3.36-.17-12.65-2.64-16.27-4.95 5.15 7.93 1 30.47 18.67 41.86 8.07 5.19 12.82 8.41 16.06 11.27l2.67-.18c-5.32-5.6-8.78-4.85-14.21-12.55-8.42-12-3.84-40.69-3.11-47 1.75 3.54 17.24 46.2 20.75 57.58l1.57-.92c-3.69-13-16.27-44-20.89-58.53 15.91 11.28 23.64 22.9 24.89 34.05.81 7.38-2.43 17.31-3.11 22.1a15.19 15.19 0 0 0 .59 5.28l1.69-.17a12.19 12.19 0 0 1-.46-3.29c.25-4.91 4.36-15.34 3.12-24.4Zm-32.26-17.7s-.28 6.48-.21 9.89c-1.93-2.34-10.74-12.94-10.74-12.94 4.53 1.22 9.23 3.06 10.95 3.05Zm4.63 33.13c-13.52-8.46-14-20.46-16.65-34 1.62 2.13 9.17 11.55 11.78 14.06.92 5.21.69 13.37 4.87 19.94ZM50.86 49.34a4.46 4.46 0 1 0-6.08-1.65 4.45 4.45 0 0 0 6.08 1.65ZM72 69.88a4.46 4.46 0 1 0-6.08-1.66A4.49 4.49 0 0 0 72 69.88ZM127.74 17.47c-17.25 9.89-11.84 13.66-22.47 21.11-12 8.38-40.71 3.68-47.06 2.93 3.62-1.7 48-16.28 59.38-19.75l-.91-1.58C103.67 23.82 71 35.49 56.42 40c11.34-15.85 23-23.55 34.14-24.74 7.38-.8 17.3 2.49 22.09 3.18 2.67.38 8.17-1.06 12.29-3.23l-2-1.15c-2.73 1.56-6.31 2.67-8.47 2.57-4.91-.24-15.32-4.39-24.39-3.21C72.51 15.76 55.83 35 52.82 42.12a99.73 99.73 0 0 0 17 3.24c-.18 3.36-2.69 12.64-5 16.26 8-5.14 30.47-.86 41.94-18.53s13.35-19.31 22.73-24.31ZM72.26 45.68s6.47.29 9.89.24l-13 10.69c1.25-4.52 3.13-9.23 3.11-10.93Zm-.94 12C73.45 56.07 82.9 48.54 85.41 46c5.22-.9 13.41-.63 20-4.8C96.91 54.66 84.9 55 71.32 57.68ZM16.76 109.52a4.46 4.46 0 1 0-6.1 1.6 4.46 4.46 0 0 0 6.1-1.6ZM45.32 116.81a4.45 4.45 0 1 0-6.09 1.59 4.44 4.44 0 0 0 6.09-1.59Z" style="fill:#0c3388"/><path d="M67.56 43.61c-10 17.17-3.45 17.75-9 29.5-6.22 13.23-33.47 23.45-39.36 26 2.29-3.27 33.53-38 41.67-46.69l-1.57-.94c-9.47 9.65-32 36-42.38 47.25 1.95-19.4 8.22-31.87 17.29-38.46 6-4.36 16.24-6.45 20.73-8.24 2.52-1 6.57-5 9.06-8.92h-2.3c-1.59 2.73-4.16 5.47-6.07 6.46-4.37 2.23-15.48 3.82-22.75 9.36-14.1 10.75-19 35.76-18 43.39a101.32 101.32 0 0 0 16.32-5.66c1.51 3 4 12.29 3.76 16.58 4.32-8.4 26-15.91 27.13-36.92s2-23.43 7.61-32.42Zm-31.29 63.11c-1.2-4.53-1.91-9.56-2.79-11 0 0 5.77-3 8.71-4.71-1.08 2.81-5.92 15.71-5.92 15.71Zm2.38-.14c1.05-2.46 5.49-13.68 6.4-17.19 4.08-3.38 11.31-7.2 15-14.1-.71 15.93-10.94 22.24-21.4 31.29Z" style="fill:#0c3388"/><path d="M22 99.28s3.85 9.32-11.31 18.77c-13.65 8.51-8.95 16.66-2.25 22.5 3.12-9.44 9.08-20 15.18-37l1.61.12c-2.61 8.59-9.7 20.64-15.54 38 15.66-6.46 20.15-18.39 21.14-23.62-4.22-8.57-3.86-14.67-3.49-20.75l1.87-.63c-3.21 19.52 11.7 29.47 12.2 36.67.19 2.95-3.12 6.72-7.59 10-2.49-1.37-6.72-5.51-9.57-9.48-3.61 4.1-9.81 8.44-15.3 9.48-12.3-9.08-11.8-19.31.75-26.39S20.52 102.27 20.39 100Zm11.06 41.65a60.46 60.46 0 0 0-4-13.18 55.69 55.69 0 0 1-3.74 5.1 41.26 41.26 0 0 0 7.75 8.08Zm6.35-7.34c0-2.85-4.6-9.32-7.22-13 0 1.6-1.86 6.21-1.86 6.21 1.86 3.36 3.85 12.55 4 14.29.73-.79 5.09-4.64 5.09-7.5ZM110.4 272.69a4.45 4.45 0 1 1-4.46 4.45 4.44 4.44 0 0 1 4.46-4.45ZM118.52 244.34a4.45 4.45 0 1 1-4.45 4.45 4.46 4.46 0 0 1 4.45-4.45ZM162.94 254.93c12.93 1.15 10.1 7.11 30 7.11l.82-2c-10.6.33-13.08-.17-31.81-9.78s-36.14 5.3-45.59 4.81c3.82 2 10.61 8.79 12.44 11.6A98.48 98.48 0 0 0 115.7 278c6.14 4.64 30.19 13.06 46.57 6.31 8.46-3.5 15.43-12.27 19.56-14.93 1.82-1.16 5.47-2 8.62-2l1.16-2c-4.65.18-10.14 1.67-12.26 3.33-3.82 3-10.78 10.78-17.56 13.76-10.27 4.51-24.21 3.65-41.95-4.48 14.92-3.31 49.07-9.45 62.16-12.77v-1.81c-11.6 2.65-57.35 12.09-61.32 12.43 5.13-3.84 27.69-22.23 42.26-20.91Zm-32.15 10.26c-.84-1.48-4.82-4.64-8.13-7.95l16.57 2.82c-2.97 1.66-8.44 5.13-8.44 5.13Zm-6.8-9.94c13.09-4.48 23.69-10.11 37.8-2.65-7.81-.32-14.77 4-19.74 5.81-3.47-1-15.4-2.83-18.05-3.16Z" style="fill:#0c3388"/><path d="M179.83 273.52a4.45 4.45 0 1 1-1.63 6.09 4.45 4.45 0 0 1 1.63-6.09ZM172.7 244.92a4.45 4.45 0 1 1-1.63 6.07 4.46 4.46 0 0 1 1.63-6.07ZM237.56 235.62c-1.81 4.49-4 14.71-8.34 20.69-6.65 9-19.16 15.24-38.56 17.09 11.26-10.34 37.77-32.7 47.47-42.12l-.91-1.58c-8.74 8.09-43.65 39.13-46.94 41.4 2.56-5.86 12.94-33.06 26.19-39.2 11.78-5.45 12.33 1.13 29.55-8.81l-.27-2.14c-9 5.59-11.43 6.4-32.45 7.43s-28.66 22.62-37.09 26.93c4.3-.18 13.57 2.31 16.56 3.83a101.1 101.1 0 0 0-5.71 16.32c7.64 1 32.66-3.77 43.49-17.81 5.59-7.24 7.23-18.33 9.49-22.7 1-1.91 3.76-4.46 6.48-6v-2.3c-3.92 2.43-7.94 6.47-8.96 8.97Zm-23.25-5.15c-6.92 3.6-10.79 10.81-14.18 14.88-3.53.87-14.76 5.26-17.23 6.29 9.1-10.42 15.47-20.59 31.41-21.17ZM182.75 254l15.76-5.84c-1.76 2.93-4.77 8.67-4.77 8.67-1.45-.83-6.47-1.58-10.99-2.83Z" style="fill:#0c3388"/><path d="M240.4 239.58a4.45 4.45 0 1 1 1.62 6.09 4.46 4.46 0 0 1-1.62-6.09ZM219.94 218.35a4.45 4.45 0 1 1 1.62 6.09 4.46 4.46 0 0 1-1.62-6.09ZM273.3 176.08a12.16 12.16 0 0 1 .46-3.27l-1.69-.18a15.21 15.21 0 0 0-.59 5.28c.68 4.79 3.92 14.72 3.11 22.09-1.25 11.15-9 22.77-24.89 34.05 4.62-14.57 17.2-45.53 20.89-58.52l-1.57-.92c-3.53 11.38-19.06 54-20.77 57.65-.73-6.35-5.31-35.1 3.11-47 5.43-7.71 8.89-7 14.21-12.55l-2.67-.19c-3.24 2.86-8 6.09-16.06 11.28-17.7 11.4-13.52 33.93-18.67 41.85 3.62-2.29 12.91-4.77 16.27-4.94a100.61 100.61 0 0 0 3.19 17c7.09-3 26.41-19.58 28.77-37.16 1.24-9.13-2.87-19.55-3.1-24.47Zm-40.11 45.16 10.74-12.93c-.07 3.4.21 9.87.21 9.87-1.72-.02-6.42 1.82-10.95 3.06ZM243.9 205c-2.61 2.51-10.16 11.92-11.78 14.05 2.7-13.57 3.13-25.58 16.65-34-4.18 6.59-3.95 14.77-4.87 19.95ZM50.86 237.45a4.46 4.46 0 1 1-6.08 1.64 4.45 4.45 0 0 1 6.08-1.64ZM72 216.92a4.45 4.45 0 1 1-6.08 1.64 4.47 4.47 0 0 1 6.08-1.64ZM105.27 248.21c10.63 7.44 5.22 11.21 22.47 21.12l1.71-1.32c-9.38-5-11.28-6.66-22.73-24.32s-34-13.39-41.94-18.52c2.33 3.61 4.84 12.89 5 16.25a100.83 100.83 0 0 0-17 3.26c3 7.07 19.69 26.34 37.26 28.64 9.07 1.19 19.48-3 24.39-3.2 2.16-.11 5.74 1 8.47 2.57l2-1.15c-4.12-2.17-9.62-3.62-12.29-3.23-4.79.68-14.71 4-22.09 3.18-11.16-1.2-22.8-8.88-34.14-24.76 14.62 4.56 47.29 16.27 60.3 19.87l.91-1.58c-11.38-3.47-55.76-18-59.38-19.74 6.35-.75 35.08-5.45 47.06 2.93Zm.14-2.59c-6.59-4.16-14.78-3.9-20-4.79-2.51-2.6-12-10.12-14.09-11.73 13.58 2.65 25.59 3.04 34.09 16.52Zm-33.15-4.51c0-1.7-1.86-6.42-3.09-10.94 0 0 10.64 8.78 13 10.69-3.44-.04-9.91.25-9.91.25ZM16.76 177.26a4.46 4.46 0 1 1-6.1-1.6 4.47 4.47 0 0 1 6.1 1.6ZM45.32 170a4.45 4.45 0 1 1-6.09-1.58 4.46 4.46 0 0 1 6.09 1.58Z" style="fill:#0c3388"/><path d="M58.59 213.67c5.52 11.75-1.06 12.32 9 29.5l2.14-.28c-5.64-9-6.46-11.39-7.61-32.42S39.28 182 35 173.54c.2 4.3-2.25 13.59-3.76 16.59a100.36 100.36 0 0 0-16.34-5.63c-.91 7.64 3.95 32.64 18 43.4 7.27 5.55 18.38 7.13 22.75 9.37 1.91 1 4.48 3.71 6.07 6.44H64c-2.49-3.93-6.54-7.93-9.06-8.93-4.49-1.79-14.73-3.87-20.73-8.23C25.17 220 18.9 207.49 17 188.09c10.39 11.21 32.91 37.59 42.38 47.23l1.57-.93c-8.14-8.68-39.38-43.41-41.67-46.67 5.84 2.51 33.09 12.72 39.31 25.95Zm-25.11-22.58c.88-1.47 1.59-6.49 2.79-11 0 0 4.84 12.91 5.92 15.75-2.94-1.78-8.71-4.75-8.71-4.75Zm5.17-10.89c10.46 9.06 20.69 15.37 21.35 31.3-3.64-6.89-10.87-10.73-15-14.11-.86-3.49-5.3-14.73-6.35-17.19Z" style="fill:#0c3388"/><path d="M20.39 186.75c.13-2.23 1.87-9.82-10.69-16.9s-13-17.31-.75-26.39c5.49 1 11.69 5.38 15.3 9.48 2.85-4 7.08-8.11 9.57-9.48 4.47 3.28 7.78 7 7.59 10-.5 7.21-15.42 17.16-12.19 36.68l-1.87-.62c-.37-6.11-.73-12.19 3.49-20.78-1-5.21-5.48-17.15-21.14-23.61 5.84 17.4 12.93 29.47 15.54 38l-1.61.12c-6.1-17-12.06-27.59-15.18-37.05-6.7 5.85-11.4 14 2.25 22.49C25.86 178.18 22 187.5 22 187.5Zm5-32.81A54.3 54.3 0 0 1 29.1 159a60.29 60.29 0 0 0 4-13.18 41.55 41.55 0 0 0-7.74 8.12Zm9-8.21c-.12 1.75-2.11 10.94-4 14.29 0 0 1.86 4.62 1.86 6.22 2.62-3.73 7.22-10.18 7.22-13.05s-4.41-6.71-5.16-7.46ZM278.34 108.65a4.45 4.45 0 1 0 1.62-6.07 4.44 4.44 0 0 0-1.62 6.07ZM279.58 181.75a4.46 4.46 0 1 0 1.63-6.09 4.45 4.45 0 0 0-1.63 6.09ZM230.23 152.73h9.94l-.12-1.74-1.61-1-13.18-28.83-3.35 2.47 1 3.48-9.7 22.76a2.9 2.9 0 0 1-2.6 1.61v1.24h8.08v-1.24a8.15 8.15 0 0 1-2.74-1.24l2.38-5.34h11.34l2.69 6.58h-2.12Zm-10.58-10.81 4.61-10.32 4.19 10.32Z" style="fill:#0c3388"/><path d="m293.8 115.4-3.31-3.15H252c-2.07 0-5.59 5.8-5.59 5.8 0-2.23-3.1-5.8-4.22-5.8h-.58c.4 1.23.78 2.48 1.14 3.74a5.81 5.81 0 0 1 2.76 4.4v48.21a13.24 13.24 0 0 0-1.71-1.91c-.3-.29-.62-.56-.94-.83l-.32-.25c-.26-.19-.52-.39-.79-.57-.11-.08-.24-.15-.34-.23-.38-.23-.77-.47-1.19-.68a12.67 12.67 0 0 0-1.19-.53c-.13 0-.26-.07-.39-.12l-.95-.26-.39-.08a9 9 0 0 0-1.35-.12h-31.74v-48.11h11.73c-.38-.9-.81-1.77-1.21-2.66h-12l-3.31 3.15h-4v55.86h20.69c.31-.78.66-1.54.95-2.32h-18.82v-51l4.15-2.82v49.39h32.15a11.42 11.42 0 0 1 8.44 5.3c.1.18.24.32.35.51h6.55a11.33 11.33 0 0 1 8.77-5.81h32.16v-49.44l4.15 2.82v51.05h-33.49c-6.78 0-5.3 5.8-9.44 5.8h-10.55c-.29.88-.62 1.77-.94 2.65h14c3 0 1.32-6.13 9.94-6.13h33.31V115.4ZM289 163h-31.66c-4 0-7.79 3.14-9.61 5.62v-48.24c0-3 3.63-5.47 5.45-5.47H289Z" style="fill:#0c3388"/><path d="M260.31 149.63a7.36 7.36 0 0 1-4.22 1.24v1.73h9.57v-2a19.6 19.6 0 0 1-5.6-13.67c0-8.59 3.86-13.31 9.46-13.31S279 128.36 279 137a19.61 19.61 0 0 1-5.59 13.67v2h9.57v-1.73a7.36 7.36 0 0 1-4.22-1.24 17.49 17.49 0 0 0 5.42-12.7c0-12.8-10.06-15.67-14.66-15.67s-14.67 2.87-14.67 15.67a17.49 17.49 0 0 0 5.46 12.63ZM242.73 116a4.57 4.57 0 0 0-.58-.36l-.25-.13-.48-.23-.38-.15-.34-.11a2.83 2.83 0 0 0-.68-.09h-24.08c-.38-.9-.81-1.77-1.21-2.66a74.89 74.89 0 1 0 1.39 59c.31-.78.66-1.54.95-2.32h14.66c6.78 0 5.3 5.8 9.44 5.8h.31c-.29.88-.62 1.77-.94 2.65a99.82 99.82 0 1 1 1.05-65.14c.41 1.22.78 2.47 1.14 3.74ZM73 189.77c-2.15 1.64-3 5-.65 8.11s5.82 3.17 8 1.53 3.07-4.93.66-8.1-6.01-3.09-8.01-1.54Zm6.24 2.87a3.23 3.23 0 1 1-4.59-.71 3.11 3.11 0 0 1 4.55.71ZM53.16 139c-.09 3.8 2.57 6.11 5.29 6.17 2.54 0 5.46-1.94 5.55-5.92s-2.72-6.13-5.29-6.17-5.47 2.07-5.55 5.92Zm2.2.05a3.22 3.22 0 1 1 3.15 3.41 3.09 3.09 0 0 1-3.15-3.4Zm20.46-37.78-1.49-3.52a7.45 7.45 0 0 0-2.89-3.67 3.94 3.94 0 0 0-3.32-.23 4.94 4.94 0 0 0-2.36 2.22c-1.24 2.16-1.07 4.77 1.24 6.11a3.61 3.61 0 0 0 5.08-1.13 3.87 3.87 0 0 0 .47-1.49l1.64 4.52Zm-7.44-1.69a1.77 1.77 0 0 0 2.44-.58 1.79 1.79 0 1 0-3.11-1.79 1.74 1.74 0 0 0 .67 2.38Zm35.73-24.17L94.18 62.9l-2.85 2.28.25.29a1.35 1.35 0 0 1 1.87.26l2.34 2.94-3.36 2.67-3.15-1.43-.68-1.84-3.37 2.66.27.35a1.17 1.17 0 0 1 2 .53l4.82 12.14 1.56-1.24-3.58-9.77 10.46 4.31 1-.83.5.62Zm-3-.16-6.92-3.14L96.86 70Zm19.81-9.89-9.51 4.55-.41-.87 8.11-3.88-1.68-3.49-4.23 2-.69-1.44 5.63-2.69.08-1.7-4.21 2a3.33 3.33 0 0 0 .34-3.19c-.75-1.58-2.93-2.16-5.17-1.5a.24.24 0 0 0-.06-.1c-.18-.28-.73-.3-.73-.3l-2.21 1 .12.23a.67.67 0 0 1 .62.06l.06.12c-1.89 1.35-2.79 3.38-2 4.95a3.39 3.39 0 0 0 2.71 1.73l-4.28 2 1.45 1 5.56-2.65.68 1.43-4.45 2.13 1.3 1.06 7.99-3.81.42.87-9 4.33.12.27c.75-.36 1.39.48 1.39.48l1.13 2.4 10.78-5.17ZM107 60.16a2.86 2.86 0 1 1 3.63 1 2.67 2.67 0 0 1-3.63-1Zm73.88 156.43 4.83 9.4 2.35-1.2-2-3.83.69-.35c1.26-.64 2.56 1 4.6 2.46l2.58-1.31c-2.74-2.09-3.62-3.09-4.83-3.08a2.71 2.71 0 0 0 .41-3.13 3.16 3.16 0 0 0-4.46-1.12Zm6.31.28c.4.8-.09 1.4-.74 1.74l-1.23.64-1.11-2.14 1.18-.6c.93-.46 1.58-.34 1.94.36Zm-.17-148.49c2.24 1.5 5.06 1.2 6.3-.65a3.8 3.8 0 0 0 .33-3.4l1.71 1.14 1.62-.88-4.18-2.77.82-1.24-3-2-.31.37c1.18.78.51 1.54.51 1.54l-4.12-2.76-.24 1.81 1.79 1.19a3.75 3.75 0 0 0-3 1.6c-1.25 1.84-.42 4.57 1.81 6.05Zm.93-1.3a2.5 2.5 0 1 1 3.35-.75 2.44 2.44 0 0 1-3.3.75Zm-49.38-3-3.18-15.49-3.68.75.1.46s1.43-.09 1.59.74l-6.06 1.26h-.35a10.81 10.81 0 0 0-.71-1.31l-2.58.51.08.37a.89.89 0 0 1 1.07.71s0 0 0 .06a5.26 5.26 0 0 0 3 10.06 5.34 5.34 0 0 0 4.09-3.83l3-.61 1.4 6.8ZM124 57.57a2.95 2.95 0 1 1 5.69-1.17 2.95 2.95 0 1 1-5.69 1.17Zm8-1.6a5.87 5.87 0 0 1 .09.82l2.5-.51-.85-4.22-3.75.76A5.25 5.25 0 0 1 132 56ZM80.34 87.69a3.63 3.63 0 0 0-5.15.68 3.51 3.51 0 0 0-.57 1.44l-1.27-4.64-1.87 2.63 1.18 3.66a7.3 7.3 0 0 0 2.55 3.92 4 4 0 0 0 3.28.52 5.16 5.16 0 0 0 2.55-2c1.43-2.05 1.5-4.68-.7-6.21Zm-3.64 5.37a1.79 1.79 0 0 1-.42-2.49 1.79 1.79 0 0 1 2.92 2.06 1.78 1.78 0 0 1-2.5.43ZM58.53 121c3.56 1 4.56-4.32 6.1-3.89.51.14.67.81.42 1.72a8.05 8.05 0 0 1-1.8 3l2 .55a8.7 8.7 0 0 0 1.75-3.22c.65-2.36-.1-4.21-1.85-4.7-3.67-1-4.49 4.34-6.16 3.87-.61-.16-.8-.78-.53-1.75a6 6 0 0 1 2.28-3.12l-2.2-.6a7.28 7.28 0 0 0-2 3.39c-.64 2.27.04 4.23 1.99 4.75Zm-4.72 9.42 1.92.31.8-5.1 2.51.4-.76 4.77 1.91.3.77-4.76 2.19.36-.8 5 1.91.3 1.22-7.59L55 122.75Zm5.48 27.4 5.94-.79-.34-2.6-5.84.76a2.44 2.44 0 0 1-2.94-2.32 2.37 2.37 0 0 1 2.07-2.87l6-.79-.35-2.61-6 .78c-3.24.42-4.37 2.8-4 5.85.47 2.86 1.98 5.07 5.46 4.62Zm.12 11L58 163.61l8.33-2.22-.66-2.54-10.23 2.7 2.06 7.79Zm141 35.86 1.29 1.44 2.86-2.54 5.76 6.43 2-1.76-5.76-6.42 2.85-2.56-1.18-1.27 6.9.37 3.82 3.15 1.67-2-3.82-3.14-1.67-6.79-2 2.44 1.08 3.89-4-.34-2 2.42-.11-.12Zm-3 2.45 6 8.7 2.16-1.49-6-8.71Zm-6.41 7.41c2.1 3.16 6.23-.36 7.18 1.06.35.53.09 1.13-.74 1.67a6.06 6.06 0 0 1-3.77.89l1.27 1.89a7.13 7.13 0 0 0 3.75-1.27c1.95-1.3 2.71-3.24 1.59-4.92-2.05-3.06-6.27.31-7.17-1-.3-.44 0-1.05.81-1.58a8.1 8.1 0 0 1 3.31-1.07l-1.15-1.72a8.84 8.84 0 0 0-3.43 1.3c-1.99 1.35-2.65 3.21-1.65 4.75ZM172.14 220l3.71 9.9 7.31-2.72-.69-1.82-4.82 1.82-.9-2.39 4.5-1.69-.66-1.81-4.52 1.68-.78-2.08 4.71-1.79-.68-1.83Zm-11.55 3 7.48 9.2 1.12-.27 2.24-11.56-2.76.67-1.16 6.49-4.14-5.21Zm-3.57.35 1.5 10.46 2.62-.36-1.51-10.47Zm-12.75.8.38 10.57 2.64-.11-.24-6.76 6.07 6.56 2.22-.07-.34-10.64-2.63.09.23 6.46-5.91-6.25Zm-8.24 10c2.88.33 5.39-.6 5.78-4.08l.69-6-2.62-.29-.68 5.85a2.44 2.44 0 0 1-3 2.29 2.38 2.38 0 0 1-2.32-2.71l.69-6-2.62-.3-.68 6C131 232 133 233.7 136 234.06Zm-17.87-12c-1.1 3.65 4.23 4.59 3.72 6.25-.17.6-.8.78-1.76.48a6 6 0 0 1-3.06-2.34l-.65 2.17a6.93 6.93 0 0 0 3.35 2.09c2.26.67 4.23.05 4.81-1.9 1.07-3.52-4.21-4.66-3.75-6.18.15-.51.82-.66 1.73-.39a8.36 8.36 0 0 1 2.94 1.87l.59-2a8.67 8.67 0 0 0-3.2-1.83c-2.34-.77-4.2-.06-4.72 1.68Zm-3.13-.7 1.26.49 1.09-1.8.68-1.77-2-.74-.67 1.75Zm-10.33-8.61-4.7 9.34 2.34 1.19 3-6.06 2.19 8.68 2 1 4.73-9.45-2.34-1.18-2.9 5.79-2.15-8.32Zm-14.88 2.67 6.34 4.52 1.12-1.59-4.2-3 1.48-2.07 3.92 2.79 1.12-1.58-3.92-2.79 1.32-1.9 4.13 2.93 1.12-1.58-6.27-4.46Zm-4.41-18.31-7.28 7.65 1.87 1.82 4.56-4.78-.22 4.37.28.28 4.38-.44-4.55 4.78 1.9 1.82 7.31-7.7-1.66-1.55-5.17.5.25-5.17Zm-19.54-19.38L70 173l-1.27-2.49-7.45 9 .51 1 7.64-.18-4.69 6 .52 1 11.65-.71-1.26-2.47-6.33.42 4-5.06-1-1.9Zm6.4-70-9.84-4.67-1.25 2.53 9.87 4.69ZM86.64 86.2l-8.24-7.11-1.9 2 8.29 7.21Zm72-32.06h-2.85v-5.63h-3.59v.38s1.28.39 1.28 1V62l-5.19-10.1.33-.83h3l.75-1.58H142.1l.88 1.58h3.16L142 63.62h2l3.33-9 4.59 9h1.52v.57h2.31v-8.46h1.79Zm22.6.83-3.33-1.17-.1.29s1 .71.68 1.65l-1.31 3.75-2.18-.74 1.87-5.31-3.2-1.11-.1.29s.95.49.48 1.89l-2 5.76-5.67-.58 2.23-6.38 2.7.94 1.47-1.25-7-2.47-.13.38s1.18.37.68 1.82l-2.93 8.37 8.06.86-1.88 5.39 2.22.77 2.75-7.85 2.09.72-2.76 7.86 2.2.78Zm13.11 19.08-11.87-8-.18 1.95 9.15 6.13-1.81 2.73 2 1.29Zm2-3 1.49 1 1.75-.73-2.36-1.58 3.14-4.68-3-2-.23.32s.86 1 .53 1.56-2.9 4.31-5 7.45l1.94 1.29Zm11.06 16.58 9-8.34-9.92-9.38-.49 1.65 7.55 7.14-7.82 7.42-1.38-1.31 5.47-5.81-2.43-2.29-.24.26c.78.74.34 1.31.34 1.31l-4.74 5-1.53-1.44 5.49-5.82-2.36-2.24-.28.28c.82.77.32 1.34.32 1.34l-4.71 5-2.38-2.26-.55 1.78 10.73 10.15 1.72-.67ZM220.67 93a3.08 3.08 0 1 0 3.08 3.08 3.07 3.07 0 0 0-3.08-3.08Zm3.33 88.41a3.08 3.08 0 1 0 3.08 3.08 3.07 3.07 0 0 0-3.08-3.08Z" style="fill:#0c3388"/></svg>