<svg xmlns="http://www.w3.org/2000/svg" xml:space="preserve" width="1035.754" height="200" viewBox="0 0 1035.754 200"><path d="M0 0h49.141v55.959H0Z" style="fill:#00ac5c;fill-opacity:1;fill-rule:nonzero;stroke:none" transform="matrix(3.57405 0 0 -3.57405 0 200)"/><path d="m13.786 10.916 4.876 7.646h11.845l4.872-7.646zm10.801 16.938 3.151-4.95h-6.306zm11.934-9.292h7.291v4.342H33.753l-9.17 14.392-9.175-14.392h-9.98v-4.342h7.212L4.593 5.935s9.221 1.826 19.98 1.826c10.872 0 19.997-1.826 19.997-1.826z" style="fill:#fff;fill-opacity:1;fill-rule:nonzero;stroke:none" transform="matrix(3.57405 0 0 -3.57405 0 200)"/><path d="M76.773 35.19v6.803h3.557v-25.8h-3.557v15.862H71.04v3.135zM66.1 41.978c0-5.734.57-9.934 1.707-12.599 1.017-2.378 2.613-3.752 4.79-4.117v-3.66c-1.85.223-3.458.894-4.82 2.012-1.444 1.2-2.636 2.95-3.573 5.248-.938-2.238-2.209-3.987-3.817-5.248-1.402-1.098-2.939-1.77-4.606-2.012v3.63c2.177.405 3.792 1.788 4.85 4.147 1.18 2.665 1.77 6.865 1.77 12.6zM95.32 39.636c-.815-.773-1.223-1.75-1.223-2.93 0-1.056.408-1.97 1.223-2.744.834-.813 1.883-1.22 3.146-1.22 1.221 0 2.26.407 3.116 1.22.834.774 1.252 1.688 1.252 2.745 0 1.179-.418 2.156-1.252 2.929-.836.773-1.875 1.16-3.116 1.16-1.263 0-2.312-.387-3.146-1.16m15.123-11.428v-7.382H90.046v-1.372h20.397v-3.142H88.621c-.73 0-1.26.163-1.584.487-.365.367-.549.946-.549 1.738v5.278h20.397v1.342H86.488v3.05h10.005v1.527h-10.92v2.853h6.71a6.138 6.138 0 0 0-1.252 1.86 5.842 5.842 0 0 0-.457 2.26c0 2.158.794 3.898 2.382 5.22 1.506 1.242 3.348 1.863 5.526 1.863 2.135 0 3.947-.621 5.432-1.863 1.63-1.322 2.443-3.062 2.443-5.22 0-.793-.164-1.547-.49-2.26a7.231 7.231 0 0 0-1.318-1.86h6.841v-2.853h-10.916v-1.526zM138.858 29.673V16.19H135.3V41.99h3.56v-9.182h3.598v-3.135zm-14.23 12.32c0-5.736.567-9.934 1.706-12.598 1.015-2.38 2.613-3.753 4.79-4.118v-3.662c-1.872.224-3.499.906-4.882 2.045-1.506 1.24-2.676 2.979-3.512 5.216-.855-2.177-2.107-3.915-3.756-5.216-1.424-1.12-2.98-1.8-4.668-2.045v3.63c2.177.407 3.793 1.79 4.852 4.15 1.18 2.664 1.768 6.862 1.768 12.598zM165.977 41.993h3.559V15.941h-3.559zm-16.321-4.931c-.793-1.12-1.187-2.432-1.187-3.938 0-1.484.394-2.767 1.187-3.846.875-1.199 2.055-1.799 3.539-1.799 1.504 0 2.703.6 3.6 1.799.812 1.059 1.219 2.34 1.219 3.846 0 1.526-.407 2.838-1.219 3.938-.916 1.22-2.115 1.832-3.6 1.832-1.465 0-2.642-.612-3.539-1.832m9.883 2.187c1.402-1.645 2.104-3.686 2.104-6.125 0-2.377-.702-4.378-2.104-6.003-1.566-1.829-3.682-2.742-6.346-2.742-2.685 0-4.789.913-6.314 2.742-1.383 1.625-2.074 3.626-2.074 6.003 0 2.439.691 4.48 2.074 6.125 1.525 1.83 3.629 2.744 6.314 2.744 2.664 0 4.78-.914 6.346-2.744M179.211 25.125h7.855v7.786h-7.855zm11.379 9.089h5.496v7.779h3.557V16.192h-3.557v14.887h-5.496v-6.433c0-.915-.235-1.595-.701-2.042-.41-.386-.979-.58-1.711-.58h-9.955c-.815 0-1.426.184-1.832.549-.469.426-.702 1.117-.702 2.071v17.341h3.522v-6.009h7.855v6.009h3.524zM209.389 25.153h10.887v16.84h3.31V33.75h2.819v8.244h3.382V16.184h-3.382v14.43h-2.82V16.191h-3.31v5.827h-12.193c-.73 0-1.27.121-1.613.365-.447.305-.672.834-.672 1.586v18.024h11.647v-3.136h-8.055zM258.744 16.155h-3.559v7.443h-19.248v3.172h22.807zm0 18.506v-5.065h-3.559v12.38h3.56v-4.18h3.597v-3.135zm-18.76 2.292c-.693-.63-1.039-1.382-1.039-2.255 0-.833.346-1.564 1.04-2.193.693-.629 1.495-.944 2.411-.944.897 0 1.692.315 2.383.944.713.63 1.07 1.36 1.07 2.193 0 .873-.357 1.625-1.07 2.255-.69.608-1.486.914-2.383.914a3.548 3.548 0 0 1-2.412-.914m8.196.914c.365-.427.65-.896.855-1.404a4.174 4.174 0 0 0 .336-1.648c0-1.85-.7-3.376-2.106-4.576-1.322-1.139-2.92-1.709-4.792-1.709-1.893 0-3.52.57-4.885 1.71-1.444 1.2-2.168 2.725-2.168 4.575 0 .57.101 1.117.306 1.648.204.508.508.977.914 1.404h-2.074v3.064h6.071v2.47h3.84v-2.47h5.75v-3.064zM289.799 20.751v-3.172h-25.791v3.172h4.209v10.857h3.523V20.751h3.98v10.857h3.522V20.751h4.862v18.106h-18.545v3.136h22.103V20.751ZM58.672 4.87c.018-.522.35-1.515 2.533-1.515 1.184 0 2.5.222 2.5 1.214 0 .731-.9.927-2.166 1.162l-1.283.235c-1.934.352-3.8.692-3.8 2.754 0 1.045.716 2.885 4.6 2.885 3.667 0 4.649-1.88 4.667-3.028h-2.401c-.066.418-.266 1.41-2.45 1.41-.95 0-2.083-.275-2.083-1.123 0-.73.767-.888 1.267-.979l2.917-.562c1.633-.312 3.133-.835 3.133-2.519 0-2.819-3.666-3.067-4.717-3.067-4.366 0-5.116 1.971-5.116 3.133zM76.806 9.7h-6.351V7.727h5.834V6.071h-5.834V3.642h6.634V1.985h-9.083v9.372h8.8zM78.589 6.67c0-4.397 4.167-4.933 5.749-4.933 1.584 0 5.75.536 5.75 4.934s-4.166 4.935-5.75 4.935c-1.582 0-5.75-.537-5.75-4.935m2.5 0c0 2.624 1.9 3.276 3.25 3.276s3.25-.652 3.25-3.276c0-2.623-1.9-3.276-3.25-3.276s-3.25.653-3.25 3.276M101.672 5.26c0-2.466-1.9-3.522-4.916-3.522-1.101 0-2.734.209-3.801 1.134-.65.575-.9 1.332-.933 2.272v6.214h2.55V5.275c0-1.306.967-1.88 2.133-1.88 1.717 0 2.416.653 2.416 1.788v6.175h2.55zM106.621 3.682h5.95V1.986h-8.45v9.372h2.5zM131.205 8.29c-.2.561-.584 1.618-2.65 1.618-1.2 0-2.967-.626-2.967-3.276 0-1.684.85-3.198 2.967-3.198 1.382 0 2.35.614 2.65 1.762h2.5c-.5-2.037-2.2-3.459-5.2-3.459-3.184 0-5.468 1.684-5.468 4.921 0 3.277 2.418 4.947 5.5 4.947 3.584 0 5.033-1.932 5.167-3.315zM141.22 1.985h-2.5v3.537l-4.132 5.835h2.949l2.484-4.073 2.366 4.073h2.834l-4-5.86zM149.121 9.74h2.866c1.134 0 1.833-.237 1.833-1.007 0-.744-.783-1.044-1.766-1.044h-2.933zm-2.4-7.755h5.066c2.45 0 3.1.326 3.783.848.634.483 1.033 1.187 1.033 1.931 0 .928-.382 1.842-1.849 2.272.5.196 1.467.574 1.467 1.92 0 .965-.75 2.401-3.684 2.401h-5.816zm2.4 4.125h3.183c.9 0 1.8-.314 1.8-1.137 0-.953-.7-1.37-1.917-1.37h-3.066zM167.554 9.7h-6.351V7.727h5.834V6.071h-5.834V3.642h6.634V1.985h-9.083v9.372h8.8zM169.87 1.985h2.45v3.668h2.583c1.85 0 1.95-.496 1.95-1.775 0-.967.1-1.45.267-1.893h2.767v.248c-.534.156-.534.496-.534 1.866 0 1.75-.534 2.036-1.517 2.376 1.183.313 1.85 1.201 1.85 2.233 0 .808-.583 2.65-3.766 2.65h-6.05zm2.45 5.247V9.74h3.116c1.467 0 1.75-.732 1.75-1.228 0-.926-.633-1.279-1.933-1.279zM200.753 5.26c0-2.466-1.9-3.522-4.917-3.522-1.1 0-2.733.209-3.8 1.134-.65.575-.9 1.332-.933 2.272v6.214h2.549V5.275c0-1.306.967-1.88 2.134-1.88 1.717 0 2.417.653 2.417 1.788v6.175h2.55zM210.502 11.357h2.334V1.985h-2.5l-4.884 6.683h-.033V1.985h-2.333v9.372h2.633l4.75-6.526h.033zM217.535 1.985h-2.5v9.372h2.5zM226.802 11.357h2.6l-4.067-9.372h-2.383l-4.033 9.372h2.683l2.567-7.1h.033zM239.785 9.7h-6.35V7.727h5.833V6.071h-5.834V3.642h6.634V1.985h-9.083v9.372h8.8zM242.102 1.985h2.45v3.668h2.583c1.85 0 1.95-.496 1.95-1.775 0-.967.1-1.45.267-1.893h2.767v.248c-.534.156-.534.496-.534 1.866 0 1.75-.534 2.036-1.516 2.376 1.182.313 1.849 1.201 1.849 2.233 0 .808-.583 2.65-3.766 2.65h-6.05zm2.45 5.247V9.74h3.116c1.467 0 1.75-.732 1.75-1.228 0-.926-.633-1.279-1.933-1.279zM255.918 4.87c.017-.522.35-1.515 2.533-1.515 1.183 0 2.5.222 2.5 1.214 0 .731-.9.927-2.167 1.162l-1.283.235c-1.934.352-3.8.692-3.8 2.754 0 1.045.717 2.885 4.6 2.885 3.667 0 4.65-1.88 4.667-3.028h-2.401c-.066.418-.266 1.41-2.45 1.41-.949 0-2.083-.275-2.083-1.123 0-.73.767-.888 1.267-.979l2.917-.562c1.633-.312 3.133-.835 3.133-2.519 0-2.819-3.666-3.067-4.716-3.067-4.367 0-5.117 1.971-5.117 3.133zM267.551 1.985h-2.5v9.372h2.5zM274.968 1.985h-2.5V9.7h-3.617v1.658h9.733V9.7h-3.616zM285.684 1.985h-2.5v3.537l-4.133 5.835H282l2.484-4.073 2.367 4.073h2.833l-4-5.86z" style="fill:#231f20;fill-opacity:1;fill-rule:nonzero;stroke:none" transform="matrix(3.57405 0 0 -3.57405 0 200)"/></svg>