<svg xmlns="http://www.w3.org/2000/svg" width="103.528mm" height="103.53mm" viewBox="0 0 103.528 103.53"><path d="M87.927 15.999C78.3 6.33 65.484 1.003 51.85.969 38.212.951 25.379 6.241 15.723 15.864 6.063 25.492.733 38.3.706 51.92.685 65.56 5.97 78.393 15.596 88.059c9.63 9.662 22.438 14.996 36.075 15.023 13.632.019 26.465-5.272 36.127-14.9 9.656-9.626 14.987-22.437 15.014-36.078v-.098c0-13.59-5.284-26.373-14.885-36.007" style="fill:#fff;fill-opacity:1;fill-rule:nonzero;stroke:none;stroke-width:.307229"/><path d="m29.53 10.813-4.042 2.332a.018.018 0 0 0-.007.025l.5.863c.004.008.013.011.023.008l2.976-1.717c.05-.03.094-.043.118-.033.017.004.046.025.089.097l1.763 3.06c.007.011.02.015.032.01l1.012-.585c.012-.008.017-.02.01-.032l-2.287-3.964c-.06-.105-.155-.082-.186-.064" style="fill:#565353;fill-opacity:1;fill-rule:nonzero;stroke:none;stroke-width:.0352777"/><path d="m33.665 15.725 1.177 2.042c.005.008.014.01.023.006l1.018-.586c.007-.005.012-.016.007-.023 0 0-2.518-4.364-2.534-4.394.028-.018 1.043-.602 1.043-.602.007-.004.015-.017.01-.024l-.497-.863a.027.027 0 0 0-.012-.009c-.003 0-.007 0-.012.003 0 0-1.018.585-1.046.604-.019-.03-1.676-2.907-1.676-2.907-.006-.01-.017-.012-.024-.007l-1.018.587c-.009.005-.012.015-.007.024l3.032 5.256-2.822 1.629c-.019-.03-1.4-2.428-1.4-2.428-.005-.006-.016-.01-.024-.004l-1.017.584c-.007.005-.012.017-.007.024 0 0 1.384 2.398 1.4 2.428l-1.493.86c-.007.005-.011.017-.007.023l.5.865c.004.008.014.01.024.006l5.363-3.093M78.992 12.694c-.003-.004-.005-.01-.009-.01l-.957-.575c-.009-.005-.022-.003-.026.006l-1.561 2.603-.546-.328c.017-.032 1.563-2.602 1.563-2.602.003-.003.003-.008.003-.014 0-.003-.003-.007-.007-.01l-.958-.574c-.01-.004-.02-.003-.025.006l-3.12 5.197-2.66-1.595a.131.131 0 0 1-.063-.083c-.008-.037.003-.079.033-.129 0 0 2.09-3.482 2.107-3.513l2.047 1.228c.007.005.02.002.025-.006l.511-.853c.005-.008 0-.02-.005-.024L72.263 9.57c-.01-.006-.02-.003-.025.005l-2.552 4.255c-.235.394-.328.74-.274 1.025.057.288.252.534.584.734l1.55.928c.046.029.744.446 1.272.762l-1.21 2.016a.017.017 0 0 0 .006.024l.956.578c.003.004.01.005.014.002.004-.002.008-.005.009-.01 0 0 2.754-4.583 2.772-4.615l.547.33c-.019.029-2.772 4.609-2.772 4.609-.004.009-.003.02.006.024l.955.579c.005.004.008.004.014 0 .005 0 .01-.003.012-.007l4.862-8.104a.02.02 0 0 0 .004-.013M93.475 30.339l-3.278-5.432a.02.02 0 0 0-.026-.007l-.85.514c-.008.005-.011.017-.007.025l2.628 4.362c.021.034.04.072.035.108-.006.044-.05.075-.093.1l-4.083 2.465a.022.022 0 0 0-.01.029l.619 1.024c.006.012.02.015.03.007l4.978-3.002c.11-.09.056-.19.056-.193" style="fill:#565353;fill-opacity:1;fill-rule:nonzero;stroke:none;stroke-width:.0352777"/><path d="M88.081 34.705c0-.005 0-.012-.003-.015 0 0-1.582-2.618-1.597-2.649l3.156-1.904c.01-.006.013-.017.007-.025l-.591-.982c-.007-.008-.017-.01-.027-.006l-3.157 1.905-.42-.697 3.156-1.904c.01-.007.012-.017.007-.026l-.591-.98c-.005-.009-.016-.01-.024-.005l-3.159 1.905-1.055-1.749c-.006-.008-.016-.01-.024-.006l-.861.519c-.007.006-.011.017-.005.026l4.293 7.116c.007.01.018.013.026.007l.861-.519c.003-.002.007-.006.007-.01M67.358 11.079l-7.901-2.243c-.005 0-.01-.002-.012 0a.03.03 0 0 0-.011.01l-.266.942c-.003.009.003.019.013.021l3.305.937-.14.496-2.452-.697c-.012-.002-.022.005-.025.013l-.257.918c-.003.01 0 .018.012.02l4.932 1.4c-.01.03-.128.448-.137.476l-4.931-1.398c-.005-.002-.011-.002-.014 0-.003.002-.007.006-.007.011l-.393 1.382c-.079.273-.136.58.022.8.096.137.25.234.489.302l5.353 1.518c.01.003.019-.003.023-.014l.265-.937a.019.019 0 0 0-.011-.023L60.34 13.63c-.023-.007-.046-.027-.037-.056 0 0 .102-.355.109-.387l4.719 1.337c.082.025.145.02.194-.018a.291.291 0 0 0 .095-.15l.545-1.925c.02-.072 0-.162-.085-.187l-2.244-.636.142-.5 3.303.94c.004.002.01.002.014 0 .005-.003.008-.005.01-.01l.266-.937c0-.01-.004-.021-.013-.023M67.203 9.685a4.03 4.03 0 0 1-.55-.224c-1.014-.501-2.036-1.385-1.688-2.63l.177-.63c.004-.008-.003-.02-.01-.022l-1.267-.36c-.01-.002-.02.006-.023.014l-.177.629c-.36 1.243-1.696 1.457-2.818 1.351a3.872 3.872 0 0 1-.59-.098c-.078-.008-.066.082-.066.082l.212.811c.003.003.017.028.041.034.653.185 1.336.252 1.994.133a3.75 3.75 0 0 0 1.068-.376c.126-.069.265-.138.376-.233.045.138.126.27.2.397.192.33.433.63.711.88.497.445 1.112.748 1.766.934.021.006.047-.007.053-.009l.608-.578s.058-.07-.017-.105M11.342 39.27a1.498 1.498 0 0 1-1.503 1.48c-.828 0-1.5-.67-1.493-1.488 0-.83.672-1.509 1.498-1.509.83.005 1.5.68 1.498 1.518M95.222 39.318a1.49 1.49 0 0 1-1.504 1.495 1.488 1.488 0 0 1-1.49-1.5c.003-.825.664-1.5 1.492-1.498.835 0 1.507.678 1.502 1.503" style="fill:#565353;fill-opacity:1;fill-rule:nonzero;stroke:none;stroke-width:.0352777"/><path d="M88.436 15.228C78.674 5.432 65.682.026 51.856 0 38.028-.022 25.017 5.34 15.226 15.1 5.433 24.86.026 37.846 0 51.66-.025 65.49 5.338 78.504 15.1 88.302c9.759 9.794 22.748 15.202 36.574 15.228 13.823.024 26.837-5.341 36.634-15.103 9.79-9.76 15.196-22.75 15.221-36.583v-.102c0-13.779-5.358-26.741-15.092-36.514zM87.347 87.46c-9.542 9.508-22.208 14.73-35.674 14.705-13.458-.022-26.107-5.291-35.613-14.83C6.552 77.794 1.333 65.127 1.357 51.66c.02-13.45 5.29-26.093 14.83-35.596C25.722 6.56 38.388 1.339 51.856 1.362 65.32 1.39 77.971 6.654 87.472 16.19c9.504 9.533 14.725 22.197 14.7 35.651-.024 13.466-5.29 26.118-14.826 35.62" style="fill:#565353;fill-opacity:1;fill-rule:nonzero;stroke:none;stroke-width:.0352777"/><path d="M62.435 24.228H40.887a.112.112 0 0 0-.112.112v21.665h5.66l5.229-7.263 5.229 7.263h5.662V24.34c0-.059-.054-.112-.12-.112" style="fill:#b4131d;fill-opacity:1;fill-rule:nonzero;stroke:none;stroke-width:.0352777"/><path d="M40.775 46.005H19.11c-.06 0-.114.05-.114.117v14.4h7.262v7.259h14.42c.06 0 .097-.04.097-.093V46.005" style="fill:#173a79;fill-opacity:1;fill-rule:nonzero;stroke:none;stroke-width:.0352777"/><path d="M84.33 60.521h-7.259v-7.259h7.26v-7.167a.09.09 0 0 0-.092-.09H62.555v21.672a.1.1 0 0 0 .102.104h21.57a.1.1 0 0 0 .104-.104v-7.156" style="fill:#9e9c9d;fill-opacity:1;fill-rule:nonzero;stroke:none;stroke-width:.0352777"/><path d="M24.677 82.523c0-.002-.005-.004-.005-.004l-.1-.102a1.065 1.065 0 0 0-.128-.115c-.05-.039-.09-.07-.135-.097l-.036-.022-2.728 2.854 1.34-4.185-.012-.021a1.359 1.359 0 0 0-.097-.124.704.704 0 0 0-.11-.114.956.956 0 0 0-.116-.102l-.083-.062-.076-.053-.029.031-3.818 3.992.024.031c.024.035.05.078.088.122l.014.013.102.107.108.092.014.015c.045.036.088.064.13.093l.034.02 2.715-2.84c-.112.36-1.322 4.178-1.322 4.178l.09.117.02.025c.033.041.071.077.11.114.038.04.077.073.118.103a.717.717 0 0 0 .13.09l.032.019 3.845-4.021-.119-.154M39.672 91.018l-.166-.04c-.056-.01-.114-.016-.164-.023l-.04-.005-.012.038-1.579 5.3.186.083.112.04.052.019.147.036.022.007.062.007.142.017.007-.041 1.58-5.296-.184-.082a2.36 2.36 0 0 0-.165-.06M26.885 84.363a1.946 1.946 0 0 0-.135-.138 2.72 2.72 0 0 0-.466-.34l-.026-.013-.024.017-4.618 3.403.03.04c.034.039.07.077.117.118.043.043.086.08.133.119.046.039.095.07.14.1.053.036.102.064.15.088l.027.013s.972-.749 1.026-.794c.055.045 1.261.996 1.315 1.04l-.532 1.186.02.024c.036.043.077.085.12.124l.131.112c0 .003.153.114.153.114l.151.09.048.027.02-.05 2.242-5.259zm-2.006 2.921-1.005-.793 2.082-1.607-1.077 2.4M34.505 89.172a2.433 2.433 0 0 0-.606-.3l-.038-.013-1.41 2.818a5.255 5.255 0 0 1-.405.694 1.536 1.536 0 0 1-.381.402.665.665 0 0 1-.38.133.936.936 0 0 1-.438-.11.99.99 0 0 1-.352-.281.692.692 0 0 1-.124-.388c-.009-.149.02-.329.09-.548.068-.207.173-.456.316-.74l1.41-2.82-.035-.022a2.237 2.237 0 0 0-.598-.299l-.038-.013-.02.038-1.452 2.906c-.17.34-.291.642-.37.927-.077.3-.102.561-.075.8.028.237.119.46.262.657.146.195.36.36.632.497.273.133.533.202.773.202.247 0 .477-.061.682-.183.21-.12.407-.297.596-.54.176-.226.348-.504.52-.85l1.475-2.943-.034-.024M33.77 94.98h-.003c0-.002-.003-.002-.003-.002l.005.002M38.326 90.66l-.112-.062-.02-.008a.887.887 0 0 0-.141-.066l-.025-.01c-.045-.013-.09-.031-.138-.045l-.198-.043-.015.036-1.387 3.66c-.033-.376-.401-4.376-.401-4.376l-.02-.012c-.046-.031-.095-.058-.135-.081a.826.826 0 0 1-.05-.021l-.093-.042-.152-.044a.964.964 0 0 0-.156-.037l-.035-.003-.015.034-1.954 5.166.03.02a.976.976 0 0 0 .134.08c.049.021.102.046.154.064.046.02.097.035.159.047-.006 0 .135.034.135.034l.052.012s1.26-3.33 1.393-3.677c.032.374.413 4.363.413 4.363l.16.088.009.005c.043.02.088.04.133.054.04.019.085.033.147.052l.128.025.066.014.013-.037 1.954-5.169-.033-.02M29.027 85.917a2.83 2.83 0 0 0-.123-.11 1.19 1.19 0 0 0-.14-.103 1.685 1.685 0 0 0-.15-.092 1.034 1.034 0 0 0-.143-.065l-.036-.012-.021.03-3.062 4.605 2.12 1.415.029-.033c.083-.1.15-.191.208-.284a2.073 2.073 0 0 0 .18-.3l.016-.036s-1.421-.946-1.497-.998l2.648-3.99-.029-.027M18.904 76.185a1.631 1.631 0 0 0-.172-.292l-.092-.117-.012-.017c-.002 0-.098-.098-.098-.098l-.052-.05-.031.025-4.46 3.258.012.033c.019.044.046.092.079.147l.097.144c.036.048.071.096.107.136.036.04.074.079.116.117l.029.026 4.493-3.279-.016-.033M98.466 56.088c0-.252-.047-.483-.14-.694a1.875 1.875 0 0 0-.542-.68 2.924 2.924 0 0 0-.873-.445 5.277 5.277 0 0 0-1.131-.22 5.316 5.316 0 0 0-1.153.003 2.954 2.954 0 0 0-.944.277c-.273.141-.495.33-.663.564a1.72 1.72 0 0 0-.302.865c-.031.342.014.65.137.906.12.26.306.489.545.678.233.185.519.33.873.448a5.05 5.05 0 0 0 1.131.228c.41.039.787.035 1.153-.01.354-.047.67-.142.941-.28.27-.135.493-.327.66-.562.165-.232.266-.523.296-.865.007-.073.012-.144.012-.213zm-.775.14a.93.93 0 0 1-.187.514c-.11.14-.258.246-.447.329-.19.081-.419.138-.684.163a4.859 4.859 0 0 1-.895-.007 4.731 4.731 0 0 1-.875-.158 2.22 2.22 0 0 1-.642-.289 1.077 1.077 0 0 1-.372-.41.962.962 0 0 1-.092-.539.94.94 0 0 1 .193-.513c.105-.138.252-.25.443-.333.187-.083.41-.135.681-.161.27-.025.57-.023.89.01.316.026.613.079.884.156.254.079.464.173.643.288.166.12.291.256.372.408.081.158.11.336.088.543M5.35 52.837l.044.001c.135 0 .243-.006.342-.019l.04-.005.021-1.923 1.779.014-.012 1.497.037.005.163.02.01.003.023.002.159.004.114-.003h.057c.062-.005.119-.01.171-.019l.038-.006.017-1.494c.086 0 1.388.012 1.476.015-.003.09-.017 1.872-.017 1.872l.039.007c.045.008.1.013.175.018l.176.006c.12 0 .236-.006.343-.018l.043-.004.02-2.626-5.58-.047v.047l-.022 2.628.04.004c.052.01.112.015.171.018l.133.005M10.828 55.229a1.81 1.81 0 0 0-.293-.87 1.843 1.843 0 0 0-.66-.57 2.816 2.816 0 0 0-.936-.288 4.989 4.989 0 0 0-1.154-.027 5.412 5.412 0 0 0-1.134.216c-.345.11-.642.258-.878.438a1.798 1.798 0 0 0-.548.673c-.122.26-.17.564-.144.905.032.344.126.629.288.869.165.235.377.42.654.57.261.138.578.234.94.285.358.049.746.056 1.152.022a5.581 5.581 0 0 0 1.132-.212c.347-.106.642-.254.88-.437.242-.184.43-.41.553-.668.126-.267.174-.562.148-.906zm-.877.604c-.082.152-.21.29-.38.403a2.26 2.26 0 0 1-.644.278c-.26.076-.548.124-.88.153a4.74 4.74 0 0 1-.89-.005 2.088 2.088 0 0 1-.681-.17 1.045 1.045 0 0 1-.444-.336.954.954 0 0 1-.185-.514.942.942 0 0 1 .098-.542 1.08 1.08 0 0 1 .379-.404c.173-.113.384-.205.644-.28.258-.072.555-.122.883-.149.321-.026.621-.026.89.002.26.03.492.084.682.17.185.085.332.195.44.335a.973.973 0 0 1 .183.521.997.997 0 0 1-.095.537M17.318 75.446l.057-.029a.86.86 0 0 0 .136-.069c.042-.02.08-.043.116-.064l.038-.024a.746.746 0 0 0 .028-.018l.117-.082c.002-.003.126-.106.126-.106l.03-.03-.023-.032-1.671-2.602-.036.015a1.878 1.878 0 0 0-.261.138l-.043.022-.146.105-.118.093-.048.042.024.037.62.966-4.036 2.594.017.035c.043.1.097.202.161.3.057.09.122.178.2.264l.026.033 4.039-2.591c.05.075.647 1.003.647 1.003M7.383 61.955c.302.002.635-.03.994-.1l3.233-.619-.001-.044a2.564 2.564 0 0 0-.041-.344 2.133 2.133 0 0 0-.081-.33l-.015-.04-3.1.596a5.12 5.12 0 0 1-.798.099 1.51 1.51 0 0 1-.55-.063.68.68 0 0 1-.337-.225.972.972 0 0 1-.173-.424.968.968 0 0 1 .011-.46.714.714 0 0 1 .23-.342c.127-.102.293-.188.493-.261.211-.076.472-.143.775-.2l3.1-.595v-.042a2.416 2.416 0 0 0-.121-.668l-.015-.041-.04.01-3.195.61a4.707 4.707 0 0 0-.961.279 2.012 2.012 0 0 0-.682.428 1.34 1.34 0 0 0-.364.616c-.069.24-.07.516-.015.818.058.308.155.556.303.756.144.194.333.341.561.44.221.095.478.143.79.146M6.703 49.128c.212.022.412.014.587-.02.18-.039.33-.1.459-.186.132-.089.252-.195.353-.32a3.65 3.65 0 0 0 .3-.437l.198-.347c.055-.09.107-.171.155-.237a.97.97 0 0 1 .184-.186.631.631 0 0 1 .217-.117.607.607 0 0 1 .27-.026c.249.02.42.101.53.248.106.144.15.342.128.603a1.967 1.967 0 0 1-.105.5c-.052.143-.11.27-.167.378l-.025.045.047.022c.195.09.401.156.63.2l.036.009.016-.032a2.879 2.879 0 0 0 .312-1.068c.044-.488-.06-.887-.304-1.182-.248-.295-.611-.466-1.082-.507a1.71 1.71 0 0 0-.517.02 1.33 1.33 0 0 0-.4.149 1.15 1.15 0 0 0-.305.252c-.076.086-.15.19-.233.328l-.21.348c-.073.12-.15.241-.229.36-.07.101-.143.184-.216.243a.667.667 0 0 1-.258.132 1.036 1.036 0 0 1-.352.019c-.283-.025-.49-.123-.632-.3-.148-.176-.205-.428-.177-.771.021-.222.059-.404.113-.542.055-.14.121-.278.2-.424l.023-.047-.05-.019c-.107-.042-.219-.088-.334-.126a1.9 1.9 0 0 0-.348-.092l-.035-.005-.014.033-.123.255a1.947 1.947 0 0 0-.1.265c-.028.08-.051.173-.073.298-.021.102-.033.223-.046.349l-.004.01c-.047.558.071 1.013.351 1.348.283.337.697.531 1.23.577M98.621 50.905c-.01-.101-.022-.215-.045-.342a1.891 1.891 0 0 0-.198-.629l-.014-.026h-.029l-2.717.006-.01.048c-.008.044-.017.093-.02.147-.006.055-.01.112-.01.167a1.738 1.738 0 0 0 .035.33l.01.035 2.144-.004c.024.066.04.139.052.218.02.091.027.198.027.341v.02c0 .203-.039.394-.117.567a1.237 1.237 0 0 1-.373.459 1.99 1.99 0 0 1-.643.303 3.512 3.512 0 0 1-.922.11c-.342 0-.652-.033-.921-.103a1.995 1.995 0 0 1-.671-.29 1.225 1.225 0 0 1-.41-.445 1.213 1.213 0 0 1-.14-.584 1.965 1.965 0 0 1 .05-.5 3.05 3.05 0 0 1 .119-.373l.02-.045-.048-.017a5.204 5.204 0 0 0-.31-.097l-.009-.003c-.083-.017-.204-.042-.337-.048l-.031-.001-.015.03a2.147 2.147 0 0 0-.158.483c-.04.185-.06.397-.057.63.003.32.072.613.21.874.136.263.333.49.59.682.252.19.564.336.923.433.349.102.741.15 1.2.15.44 0 .837-.05 1.187-.152.351-.098.653-.245.898-.434a1.85 1.85 0 0 0 .564-.694c.128-.27.193-.58.193-.92 0-.11-.008-.226-.017-.327M12.14 62.902l-.003-.04c-.002-.051-.011-.105-.021-.16l-.001-.004a.858.858 0 0 0-.04-.169 1.547 1.547 0 0 0-.064-.195l-.074-.153-.036.013-5.328 1.495.689 2.454.041-.007c.119-.021.233-.046.341-.077.001-.002.051-.015.051-.015l.116-.038c.052-.015.107-.035.166-.06l.037-.016s-.462-1.65-.488-1.737l4.614-1.29M15.651 71.077l-.07-.15-.013-.02c0-.005-.105-.174-.105-.174a1.084 1.084 0 0 0-.109-.155l-.02-.021-.028.007-5.586 1.294.012.047c.011.05.03.098.057.156.021.051.05.106.08.162.025.044.05.098.086.148l.095.13.026.032 1.258-.32c.033.06.763 1.415.797 1.475l-.956.878.007.027a.868.868 0 0 0 .061.164 1.654 1.654 0 0 0 .171.317c.038.06.076.112.103.145l.033.04 4.182-3.975zm-2.93 2.067c-.05-.095-.56-1.034-.61-1.13l2.551-.65c-.242.22-1.861 1.705-1.942 1.78M14.43 68.91a.765.765 0 0 0-.036-.154 1.619 1.619 0 0 0-.126-.3.86.86 0 0 0-.09-.143l-.022-.03s-3.293 1.38-3.64 1.528c.25-.287 2.903-3.308 2.903-3.308l-.005-.023a.986.986 0 0 0-.038-.152l-.055-.145-.01-.025c-.016-.035-.033-.076-.056-.118a1.014 1.014 0 0 0-.086-.136l-.022-.03-.035.014-5.09 2.136.004.037a.746.746 0 0 0 .032.133l.005.015c.014.05.033.096.062.163.014.038.038.09.068.143l.079.135.021.036.038-.019 3.588-1.505-2.877 3.305.003.021c.007.05.021.1.036.154l.054.147.004.006.063.134c.026.049.052.089.086.134l.02.033 5.126-2.151-.005-.036M21.126 79.124a1.742 1.742 0 0 0-.409-.82c-.22-.26-.47-.438-.744-.538a1.95 1.95 0 0 0-.865-.081 2.97 2.97 0 0 0-.932.316 5.044 5.044 0 0 0-.953.653 4.851 4.851 0 0 0-.794.836 2.81 2.81 0 0 0-.459.865 1.847 1.847 0 0 0-.058.865c.053.28.193.557.415.82.218.26.468.438.739.536.271.1.554.125.865.085.295-.04.609-.147.93-.316.316-.164.637-.385.946-.652.321-.27.59-.554.798-.834a2.85 2.85 0 0 0 .464-.865c.088-.293.107-.584.057-.87zm-.841.73a2.193 2.193 0 0 1-.362.603c-.161.204-.366.411-.625.635-.261.219-.5.39-.73.519-.228.128-.449.213-.651.259-.202.04-.383.037-.556-.015a.989.989 0 0 1-.45-.311.969.969 0 0 1-.244-.63c0-.136.028-.273.083-.419.076-.196.195-.395.361-.601.162-.202.367-.41.628-.635.25-.212.495-.385.725-.516a2.21 2.21 0 0 1 .652-.262 1.12 1.12 0 0 1 .553.02c.167.05.32.154.45.309a.961.961 0 0 1 .237.497c.026.173 0 .351-.071.546M97.104 63.267a1.788 1.788 0 0 0-.371-.783 2.991 2.991 0 0 0-.758-.63 4.998 4.998 0 0 0-1.054-.464 5.153 5.153 0 0 0-1.124-.25 2.919 2.919 0 0 0-.98.058c-.295.075-.553.21-.772.402-.217.193-.38.454-.488.777-.104.327-.129.634-.065.913.059.286.183.542.38.784.192.236.44.44.753.63.301.181.654.34 1.05.474.414.133.78.213 1.13.242.367.034.687.016.981-.061.29-.072.55-.209.764-.403.217-.196.378-.45.483-.779.061-.185.097-.366.104-.538a1.436 1.436 0 0 0-.033-.372zm-.796.674a.965.965 0 0 1-.302.454 1.09 1.09 0 0 1-.508.227c-.208.038-.446.04-.704.006a4.656 4.656 0 0 1-.87-.208 4.502 4.502 0 0 1-.818-.347c-.245-.138-.429-.275-.558-.425a1.048 1.048 0 0 1-.277-.48.947.947 0 0 1 .033-.547.974.974 0 0 1 .297-.458c.14-.114.31-.19.505-.222a2.27 2.27 0 0 1 .706-.01c.266.036.546.102.865.206.313.104.592.222.82.35.23.128.421.27.562.42.141.156.24.317.277.486a.85.85 0 0 1 .025.25 1.183 1.183 0 0 1-.053.298M83.722 85.031s-.51-.079-.573-.087c-.047-.544-.295-1.156-.784-1.927l-.032-.046-.504.44.024.037c.357.537.572.994.66 1.39a77.36 77.36 0 0 1-1.756-.327c.115-.324.172-.607.172-.861 0-.356-.113-.653-.345-.915-.233-.266-.518-.417-.823-.438-.28-.019-.56.08-.79.283a1.2 1.2 0 0 0-.432.918c0 .345.143.685.373.946.236.269.595.468 1.041.58a2.303 2.303 0 0 0-.104.651c0 .433.148.82.445 1.155.276.312.635.507 1.015.548.411.045.81-.09 1.154-.392a1.92 1.92 0 0 0 .667-1.36c.072.007.304.037.304.037l.346.046.017-.015.636-.556zm-3.506-.623c-.343-.088-.619-.204-.838-.451-.151-.174-.237-.371-.237-.545 0-.014.003-.026.003-.037a.471.471 0 0 1 .169-.331l.005-.007c.261-.231.594-.09.806.146a.828.828 0 0 1 .204.58c0 .188-.043.403-.111.644zm1.923 2.037c0 .002-.005.005-.005.005h-.003c-.406.355-.984.287-1.376-.161a1.152 1.152 0 0 1-.293-.785c0-.112.017-.23.044-.352.755.145 1.554.281 2.036.357v.01c0 .235-.062.625-.405.927M79.654 89.11c0 .002-.097-.147-.097-.147a2.732 2.732 0 0 0-.207-.273l-.028-.03s-1.517 1.028-1.593 1.078c-.05-.071-.949-1.396-.998-1.47a404.52 404.52 0 0 1 1.236-.836l-.017-.038a2.334 2.334 0 0 0-.176-.304c0-.003-.017-.026-.017-.026l-.088-.118-.075-.09-.063-.068-.033.024s-1.13.764-1.202.815c-.05-.071-.78-1.149-.83-1.22.073-.052 1.55-1.052 1.55-1.052l-.017-.039a5.695 5.695 0 0 0-.083-.152 2.872 2.872 0 0 0-.1-.147 2.111 2.111 0 0 0-.207-.272l-.028-.033-.034.025-2.14 1.45 3.137 4.619 2.213-1.506-.017-.034a.88.88 0 0 0-.086-.156M83.81 78.872l-.024-.033a1.638 1.638 0 0 0-.112-.122l-.005-.008-.128-.127a21.836 21.836 0 0 1-.131-.115 1.036 1.036 0 0 0-.14-.098l-.035-.02-.025.029-2.099 2.275.139.16c.003 0 .028.028.028.028l.1.096c.038.039.085.076.133.114.043.033.093.072.141.102l.035.02s.744-.806.803-.872a644882 644882 0 0 1 3.528 3.257l.031-.026c.081-.067.167-.146.25-.234.072-.083.141-.166.204-.26l.024-.033S83.073 79.813 83 79.748c.062-.064.809-.876.809-.876M97.81 58.398l-.162-.03a2.274 2.274 0 0 0-.181-.017l-.043-.003-.008.04-.324 1.731-4.71-.88-.015.039c-.019.05-.035.104-.052.155-.014.057-.029.113-.039.17l-.02.144-.003.025c0 .003-.003.008-.003.008l-.007.193.04.006 5.44 1.015.468-2.504-.04-.01a2.04 2.04 0 0 0-.342-.082M89.6 78.89l-.136-.11a2.35 2.35 0 0 0-.283-.198l-.036-.022-1.191 1.507c-.07-.054-1.327-1.046-1.399-1.098.056-.074.925-1.172.925-1.172l-.026-.03a1.403 1.403 0 0 0-.097-.096l-.029-.026-.132-.12h-.003a1.47 1.47 0 0 0-.14-.1.952.952 0 0 0-.148-.089l-.033-.016-.927 1.169-1.155-.915c.054-.072 1.155-1.467 1.155-1.467l-.027-.03a.987.987 0 0 0-.126-.123l-.133-.11c-.111-.088-.2-.15-.28-.2l-.038-.022-.027.033-1.6 2.028 4.382 3.459 1.655-2.1-.024-.03a1.294 1.294 0 0 0-.128-.121M75.999 90.77l-.042-.031-.028.043c-.08.121-.171.228-.278.324a1.878 1.878 0 0 1-.388.28 1.4 1.4 0 0 1-.589.183 1.26 1.26 0 0 1-.587-.097 1.817 1.817 0 0 1-.57-.417 3.251 3.251 0 0 1-.547-.753c-.304-.538-.457-1.02-.457-1.44 0-.047 0-.094.004-.139.044-.442.255-.765.65-.987.097-.052.177-.095.252-.128.066-.03.13-.055.21-.078.066-.02.14-.034.19-.045l.041-.007.2-.036-.007-.047-.069-.327a1.878 1.878 0 0 0-.114-.32l-.014-.031-.038.005a2.894 2.894 0 0 0-1.072.363 1.99 1.99 0 0 0-.697.627 1.93 1.93 0 0 0-.314.852c-.038.31-.014.653.073 1.013.087.36.239.736.456 1.119.218.385.453.706.703.956.269.266.535.454.817.575a1.96 1.96 0 0 0 1.786-.119c.201-.114.368-.23.511-.356.153-.138.283-.286.392-.452l.02-.029-.02-.025a2.479 2.479 0 0 0-.475-.475M90.916 64.949l-.08.128c0 .003-.006.008-.006.008l-.063.132a.896.896 0 0 0-.058.159 1.174 1.174 0 0 0-.045.16l-.006.039 3.625 1.562c-.377.02-4.39.21-4.39.21l-.013.015a.902.902 0 0 0-.082.135.795.795 0 0 0-.07.14l-.055.146-.034.123-.015.068.036.017 5.077 2.184.054-.086.05-.077.024-.055.046-.097c.023-.05.04-.1.055-.15a.774.774 0 0 0 .042-.154l.008-.038-3.611-1.552 4.376-.222.014-.017a1.35 1.35 0 0 0 .084-.137c.026-.042.045-.086.069-.14l.014-.038.038-.105a1.17 1.17 0 0 0 .043-.158l.005-.038-5.111-2.195-.022.033M89.242 68.893c-.036.04-.066.086-.097.131l-.004.005-.055.088-.037.063-.003.002-.072.154a1.442 1.442 0 0 0-.057.148l-.01.039 1.979 1.076c-.045.078-.853 1.56-.896 1.638a7281.66 7281.66 0 0 0-1.975-1.077l-.024.03a.978.978 0 0 0-.1.137c0-.002-.089.144-.089.144-.003.002-.005.008-.005.008-.025.048-.052.098-.07.148.003-.002-.06.156-.06.156l-.015.037.037.02 4.852 2.64.025-.03c.034-.038.066-.082.1-.13l.091-.15.077-.156.003-.003.017-.05.05-.142-.038-.018s-2.105-1.147-2.189-1.19c.046-.08.851-1.56.895-1.639.08.046 2.222 1.208 2.222 1.208l.024-.027a1.5 1.5 0 0 0 .099-.133c.003 0 .085-.138.085-.138l.006-.01c.028-.055.055-.112.077-.162l.051-.14.02-.046-4.891-2.663-.024.031M91.19 75.146l-.05-.007-.005.05a2.016 2.016 0 0 1-.076.422 2.13 2.13 0 0 1-.197.44c-.11.189-.25.341-.413.453-.17.116-.351.183-.557.204-.212.031-.441.006-.701-.064a3.567 3.567 0 0 1-.854-.373c-.6-.354-1-.738-1.182-1.14a1.336 1.336 0 0 1-.129-.483 1.234 1.234 0 0 1 .19-.698l.02-.035c.045-.073.089-.141.131-.196a1.533 1.533 0 0 1 .28-.314l.1-.08.093-.076-.033-.035a3.927 3.927 0 0 0-.226-.247 1.563 1.563 0 0 0-.256-.22l-.03-.02-.027.023a3.413 3.413 0 0 0-.37.335c-.13.14-.257.314-.375.52-.171.284-.266.583-.285.89-.02.303.034.603.157.894.121.29.311.563.575.836.256.27.578.519.957.74.38.226.738.38 1.093.468.354.095.686.121.994.086.305-.038.59-.142.84-.311.257-.168.467-.395.64-.693a2.418 2.418 0 0 0 .373-1.15l.003-.034-.03-.013a2.401 2.401 0 0 0-.648-.172M63.056 91.317l-.038.005-.125.015-.042.007c-.062.01-.117.023-.167.037-.059.013-.114.034-.167.051a1.34 1.34 0 0 0-.15.064l-.036.018 1.429 5.38.039-.004c.053-.004.107-.009.163-.018.003-.003.049-.01.049-.01l.122-.032a1.093 1.093 0 0 0 .225-.073l.128-.054-.009-.042-1.42-5.344M49.828 94.637a2.793 2.793 0 0 0-.278-.938 1.842 1.842 0 0 0-.566-.664 1.722 1.722 0 0 0-.864-.3 1.756 1.756 0 0 0-.904.138 1.823 1.823 0 0 0-.678.548 3.04 3.04 0 0 0-.447.876c-.112.337-.185.709-.223 1.13-.036.408-.03.797.016 1.153.046.36.14.675.281.942.136.269.326.49.564.66.237.162.53.264.867.294.335.027.64-.014.906-.132.256-.12.485-.303.675-.546.186-.24.333-.535.442-.878.11-.34.186-.719.221-1.132a5.275 5.275 0 0 0-.012-1.151zm-.772 1.08a5.256 5.256 0 0 1-.157.886c-.074.25-.171.467-.285.639-.112.17-.25.294-.407.38a.922.922 0 0 1-.54.087.935.935 0 0 1-.515-.187 1.097 1.097 0 0 1-.33-.446 2.334 2.334 0 0 1-.17-.684 4.636 4.636 0 0 1 .008-.891c.032-.325.083-.619.158-.876a2.19 2.19 0 0 1 .281-.64c.117-.173.255-.3.41-.374a.96.96 0 0 1 .539-.1c.21.022.378.086.513.194.141.105.253.248.337.442.082.198.14.427.165.68.024.261.022.561-.006.89M44.178 92.199l-.028-.007-.148-.039a2.573 2.573 0 0 0-.354-.054l-.034-.002s-1.933 3.863-2.094 4.182l-.102-4.674-.029-.015a2.274 2.274 0 0 0-.178-.063l-.179-.048-.137-.026-.053-.008a1.541 1.541 0 0 0-.178-.016h-.051l.255 5.764.146.05.063.022.139.04.05.012.194.034c.063.01.124.019.19.021l.031.003 2.71-5.094-.047-.022c-.052-.024-.11-.042-.166-.06M53.295 93.165l-.022-.175-.043.002-2.457-.002v.05l-.007 5.525.037.008c.043.008.09.013.164.022.06.006.116.006.174.006.052.002.107 0 .176-.006l.16-.022.04-.006-.004-.043.005-2.46h1.467l.018-.214.007-.175-.003-.126-.003-.049-.016-.16-.007-.058-1.464-.004.003-1.51 1.75.003.026-.214c.005-.071.007-.128.007-.179 0-.06 0-.118-.007-.178l-.003-.037M58.126 95.815a1.222 1.222 0 0 0-.272-.411 1.453 1.453 0 0 0-.382-.288 3.53 3.53 0 0 0-.487-.207l-.373-.13a1.77 1.77 0 0 1-.266-.105 1.033 1.033 0 0 1-.218-.141.803.803 0 0 1-.159-.195.752.752 0 0 1-.078-.257c-.027-.244.022-.433.145-.568.117-.133.308-.214.565-.242a1.69 1.69 0 0 1 .507.005c.154.023.292.055.408.09l.049.017.011-.05c.05-.22.076-.44.074-.657v-.035l-.035-.008a2.65 2.65 0 0 0-.51-.103 2.6 2.6 0 0 0-.596.002c-.496.056-.856.227-1.098.528-.245.294-.34.685-.29 1.158.022.202.061.365.118.501.06.14.136.262.224.364.092.104.192.187.307.25.11.064.234.121.366.17l.383.135c.147.056.285.108.398.156.112.05.206.102.282.166a.576.576 0 0 1 .175.226c.046.09.075.202.09.343.032.28-.026.501-.175.678-.144.177-.385.285-.719.322-.216.021-.403.016-.556-.01a3.619 3.619 0 0 1-.45-.111l-.053-.016-.068.408a1.74 1.74 0 0 0-.02.359l.003.034.192.052.11.027c.088.02.18.037.278.05.105.01.204.013.312.01.114 0 .232-.007.366-.023.559-.061.98-.264 1.248-.606.278-.34.389-.785.332-1.315a2.066 2.066 0 0 0-.137-.573M68.253 95.127l-.033-.1a4.29 4.29 0 0 0-.124-.318l-.017-.04-1.83.609-.564-1.689c.087-.028 1.422-.476 1.422-.476l-.048-.208-.043-.16-.003-.009c-.023-.06-.04-.114-.066-.166a1.475 1.475 0 0 0-.07-.154l-.019-.036-1.419.47c-.026-.083-.436-1.315-.465-1.398l1.775-.592-.004-.042a1.135 1.135 0 0 0-.041-.168l-.052-.17a2.342 2.342 0 0 0-.127-.319l-.016-.038-.04.015-2.453.815 1.766 5.293 2.538-.84-.047-.21-.022-.07M43.61 96.804c-.288-.053-.538.13-.59.431a.532.532 0 0 0 .08.411c.072.1.18.17.306.192l.01.004h.004a.486.486 0 0 0 .375-.077.554.554 0 0 0 .214-.357.547.547 0 0 0-.083-.411.477.477 0 0 0-.316-.193M62.298 96.435l-.028-.043-.042.034c-.116.088-.24.164-.363.22a2.03 2.03 0 0 1-.46.145 1.434 1.434 0 0 1-.617-.007 1.279 1.279 0 0 1-.523-.28 1.949 1.949 0 0 1-.416-.57 3.35 3.35 0 0 1-.281-.89 4.033 4.033 0 0 1-.088-.801c0-.322.05-.604.154-.841.174-.4.485-.647.922-.732a2.808 2.808 0 0 1 .503-.055h.012a24.61 24.61 0 0 1 .345.04l.078.015.008-.05c.016-.117.028-.226.038-.328a1.865 1.865 0 0 0-.01-.341l-.006-.035-.031-.007a3.427 3.427 0 0 0-.496-.05 3.125 3.125 0 0 0-.64.06 1.97 1.97 0 0 0-.858.38 1.953 1.953 0 0 0-.565.711 2.773 2.773 0 0 0-.244.987c-.03.375 0 .78.082 1.204.085.429.21.81.374 1.13.166.326.366.593.594.796.237.21.502.354.792.431.297.076.614.081.943.015.228-.043.423-.1.597-.178.169-.071.335-.171.512-.306l.027-.02-.011-.032a2.262 2.262 0 0 0-.302-.601M70.377 88.447l-.146.042a1.113 1.113 0 0 0-.148.055c-.053.02-.108.05-.154.073-.003 0-.142.088-.142.088l-.035.02.017.04 1.582 3.585c-.292-.245-3.381-2.853-3.381-2.853l-.05.013a.856.856 0 0 0-.126.036l-.068.024-.074.028a.16.16 0 0 0-.014.008l-.131.062c-.05.033-.095.057-.132.083l-.032.023 2.248 5.1.064-.015a1.353 1.353 0 0 0 .283-.094c.046-.02.089-.041.145-.071a.839.839 0 0 0 .133-.083l.031-.025s-1.438-3.257-1.585-3.598l3.373 2.829.022-.006.128-.033.026-.007c.048-.016.092-.03.148-.056l.14-.067c.045-.026.092-.054.136-.085l.03-.021-2.25-5.104-.038.01M92.582 46.161c0 .064.004.125.011.179.006.06.013.118.021.176l.008.026.04.171.026.003 2.694.774c-.2.103-2.53 1.287-2.53 1.287l-.006.206.012.183.02.19.004.006.04.182.014.062.055-.031s3.302-1.766 3.32-1.777l2.03-.19.003-.04a2.28 2.28 0 0 0 .006-.16l-.006-.174-.005-.04-.021-.13-.023-.114-.023-.093-.042.002-1.99.186c-.02-.005-3.647-1.128-3.647-1.128l-.005.059c-.003.045-.006.09-.006.134V46.161M19.825 17.019a2.357 2.357 0 0 0-1.556.713 2.319 2.319 0 0 0-.716 1.548c-.036.589.145 1.098.542 1.491.4.401.901.583 1.493.548a2.32 2.32 0 0 0 1.548-.708 2.36 2.36 0 0 0 .72-1.552c.033-.592-.15-1.095-.545-1.494-.396-.397-.898-.58-1.486-.546zm.906 2.182a.945.945 0 0 1-.278.718.947.947 0 0 1-.72.281 1.095 1.095 0 0 1-.734-.326 1.063 1.063 0 0 1-.326-.737.95.95 0 0 1 .278-.719.96.96 0 0 1 .72-.28c.288.012.535.123.74.331.204.205.312.45.32.732M24.251 17.925l-5.801 5.793c-.01.005-.01.017-.003.024l.701.705c.007.006.02.006.024-.002 0 0 2.408-2.398 2.432-2.427l.363.368-1.804 1.802c-.007.008-.007.02.005.025l.673.675c.003.006.013.006.02 0 0 0 3.6-3.592 3.628-3.623.02.03.292.3.318.326-.026.024-3.626 3.613-3.626 3.613-.004.012-.004.02 0 .029l1.06 1.06c.22.221.39.352.608.364.232.008.397-.105.582-.292l3.932-3.923c.007-.005.009-.017.003-.022l-.673-.677c-.007-.005-.019-.01-.026 0l-3.585 3.573c-.013.014-.045.024-.066.005 0 0-.285-.287-.306-.314.02-.024 3.465-3.457 3.465-3.457.055-.057.084-.117.076-.176-.005-.071-.045-.121-.083-.164l-1.395-1.398c-.11-.096-.197-.023-.207-.015l-1.652 1.649-.364-.37 2.43-2.424c.004-.007.007-.014 0-.022l-.701-.705c-.01-.008-.02-.008-.027 0M12.582 24.976l-.581 1.02c-.004.01-.002.019.006.027l2.045 1.159-1.013 1.785c-.006.012-.005.025.005.029l.894.509c.002.005.01.007.012.005.005 0 .01-.005.01-.008l1.02-1.791 5.244 2.974c.007.002.02.002.024-.005l.58-1.02c.003-.008.003-.019-.01-.024l-8.214-4.667c-.01-.002-.02-.002-.022.007" style="fill:#565353;fill-opacity:1;fill-rule:nonzero;stroke:none;stroke-width:.0352777"/><path d="m16.074 29.329-.045.04c-.354.327-.888.566-1.583.699-.737.143-1.529-.028-2.364-.5l-1.58-.896c-.006-.005-.022-.002-.027.007l-.599 1.057c-.007.007-.005.024.006.025l1.582.9c.832.472 1.382 1.071 1.639 1.773.24.666.309 1.245.21 1.72l-.008.058c-.006.025 0 .04.005.047a.09.09 0 0 0 .047.024l.07-.012.907-.126c.014 0 .052-.015.06-.062.095-.4.08-.874-.046-1.44-.137-.621-.322-1.08-.569-1.389.394.049.881-.019 1.485-.22.554-.186.966-.417 1.26-.703.038-.03.029-.064.02-.08l-.355-.845-.024-.064a.087.087 0 0 0-.045-.03.118.118 0 0 0-.045.017M52.807 5.185h-4.203c-.007 0-.016.007-.016.014v.999c0 .012.01.016.016.016h3.053c0 1.474-.371 2.458-1.094 3.134-.732.68-1.545 1.131-2.415 1.35l-.054.01c-.007.004-.036.013-.042.042a.034.034 0 0 0-.006.022c0 .011.006.025.014.037l.038.043.5.628c.003.009.02.029.056.021.935-.147 1.896-.672 2.849-1.534.953-.871 1.438-2.107 1.438-3.876v-.759c.003-.004.006-.077-.026-.114-.034-.033-.094-.033-.108-.033M55.596 4.397H54.43c-.009 0-.015.01-.015.016v9.443c0 .008.006.015.015.015h1.166c.01 0 .017-.007.017-.015V4.413c0-.005-.007-.016-.017-.016M44.477 10.941 38.82 12.39c-.012 0-.017.009-.012.018l.247.965c0 .01.01.015.02.015l4.614-1.18c.03-.004.066.02.068.05l.567 2.213c.003.012.011.015.018.014l1.187-.3c.01-.003.014-.016.01-.021l-.773-3.032c-.021-.075-.052-.128-.104-.162a.21.21 0 0 0-.183-.028M41.334 6.282l-1.99.513c-.006-.035-.192-.752-.192-.752-.003-.01-.01-.013-.018-.01l-1.208.309c-.01.002-.015.01-.015.02 0 0 .188.718.195.749l-1.978.505c-.01 0-.014.01-.012.02l.247.966c0 .007.012.013.02.009 0 0 .48-.118.762-.19-.138.35-.15.756-.054 1.136.138.532.47.941.989 1.207.514.269 1.077.326 1.674.176.594-.157 1.063-.472 1.385-.958.328-.48.424-.998.286-1.534a1.94 1.94 0 0 0-.588-.97c.282-.078.754-.198.754-.198.012 0 .016-.008.016-.017l-.251-.969c0-.007-.01-.013-.022-.012zm-1.222 3.263a.915.915 0 0 1-.594.466.914.914 0 0 1-.747-.125 1.061 1.061 0 0 1-.466-.64 1.16 1.16 0 0 1 .088-.828.928.928 0 0 1 .595-.468.906.906 0 0 1 .746.126c.24.147.404.402.476.682.069.276.038.54-.098.787M44.855 6.633l-1.164.295-.488-1.914c-.005-.013-.014-.02-.024-.016l-1.134.292c-.01 0-.014.011-.014.019l1.362 5.322c.004.01.01.016.021.015l1.134-.289c.012-.002.017-.01.014-.02 0 0-.58-2.274-.587-2.31.033-.007 1.165-.298 1.165-.298.007 0 .014-.008.012-.018l-.271-1.071c-.004-.005-.017-.007-.026-.007M82.748 24.256l-4.024-4.24c-.003-.011-.015-.011-.023-.004l-.724.691c-.005.002-.005.015 0 .02l3.285 3.458c.014.021.004.057-.013.078l-1.659 1.58c-.008.002-.008.018 0 .026l.84.887c.005.004.018.004.024 0l2.27-2.156a.285.285 0 0 0 .091-.172.202.202 0 0 0-.066-.168M85.28 19.239s-1.388-1.467-1.413-1.495c.025-.021.56-.528.56-.528.01-.01.006-.018 0-.026l-.857-.899c-.006-.014-.02-.014-.025-.004 0 0-.54.508-.56.531-.026-.023-1.404-1.474-1.404-1.474a.023.023 0 0 0-.023-.005l-.723.684c-.007.01-.007.024 0 .028l.537.566c-.37.057-.73.245-1.009.511-.406.383-.598.87-.579 1.45.018.58.239 1.104.663 1.55.423.445.93.697 1.512.742.58.053 1.074-.119 1.478-.497.28-.273.49-.619.564-.99.195.214.535.565.535.565.007.01.02.01.024.004l.72-.686c.01-.012.01-.022 0-.027zm-3.437.52a.924.924 0 0 1-.705-.292.928.928 0 0 1-.253-.713c.017-.28.13-.523.338-.718.206-.197.481-.323.762-.325a.937.937 0 0 1 .956 1.004 1.16 1.16 0 0 1-.368.746 1.043 1.043 0 0 1-.73.299M86.695 22.482s-.806-.847-.83-.868c.024-.027 1.439-1.367 1.439-1.367.005-.01.007-.019 0-.021l-.808-.855c-.005-.004-.018-.01-.023 0l-3.989 3.784c-.007.008-.004.018 0 .024l.81.848c.006.01.016.01.025 0 0 0 1.7-1.614 1.725-1.636.023.027.828.873.828.873.007.004.017.006.025 0l.798-.756a.019.019 0 0 0 0-.026" style="fill:#565353;fill-opacity:1;fill-rule:nonzero;stroke:none;stroke-width:.0352777"/><path d="M46.847 79.244c.643-.011 1.1-.235 1.372-.664a2.81 2.81 0 0 0 .409-1.425l-.024-.014c-.34.456-.823.686-1.445.675-1.448-.04-2.17-.725-2.178-2.066.005-.747.207-1.341.614-1.77.409-.431 1.031-.648 1.873-.657.518.01.943.102 1.277.266.335.17.592.411.768.706.334.626.492 1.353.475 2.18.009.958-.202 1.823-.621 2.603-.454.797-1.267 1.21-2.446 1.234-.542 0-1.07-.093-1.574-.27l.193-1.07c.385.175.822.268 1.307.272zm1.429-2.828c.15-.238.224-.538.224-.887 0-.32-.079-.607-.23-.832-.165-.233-.434-.352-.802-.357-.35.005-.597.122-.756.36a1.54 1.54 0 0 0-.237.844c0 .327.08.622.242.864.168.257.422.388.775.397.366-.005.625-.133.784-.39M55.346 73.46h1.313v6.742L55.17 80.2v-5.206l-1.262.923-.748-.88 2.185-1.576M40.148 73.453h1.312v6.743l-1.488-.002V74.99l-1.26.921-.749-.881 2.185-1.577M61.232 79.972a2.091 2.091 0 0 1-.792-.858 3.67 3.67 0 0 1-.351-1.137 7.518 7.518 0 0 1-.083-1.119c0-.433.043-.858.126-1.275.091-.417.23-.793.423-1.121.2-.34.466-.604.8-.816.332-.197.743-.297 1.241-.297.54.01.986.114 1.338.323.34.217.6.502.785.842.185.342.31.718.38 1.131.06.414.097.823.094 1.222 0 .392-.036.788-.098 1.189-.07.404-.206.775-.396 1.125a2.18 2.18 0 0 1-.79.824c-.344.214-.79.326-1.328.333-.559-.009-1.014-.136-1.35-.366zm2.019-.913c.15-.178.256-.39.32-.65a3.64 3.64 0 0 0 .13-.814v-.728c.004-.235-.002-.49-.005-.775a3.85 3.85 0 0 0-.13-.808 1.554 1.554 0 0 0-.315-.663c-.162-.166-.377-.255-.654-.255-.264 0-.475.088-.626.255a1.534 1.534 0 0 0-.331.658c-.059.262-.098.53-.12.806a16.88 16.88 0 0 0-.023.778c0 .206.01.454.021.73.018.282.058.55.116.815.07.261.183.47.326.646.155.179.364.264.624.264.293.002.508-.082.667-.259" style="fill:#9e9c9d;fill-opacity:1;fill-rule:nonzero;stroke:none;stroke-width:.0352777"/></svg>