<svg xmlns="http://www.w3.org/2000/svg" xml:space="preserve" width="400.28799" height="400.28799" viewBox="0 0 400.28799 400.28799"><defs><clipPath id="a" clipPathUnits="userSpaceOnUse"><path d="M0 425.197h425.197V0H0Z"/></clipPath></defs><g clip-path="url(#a)" transform="matrix(1.33333 0 0 -1.33333 -80.505 476.788)"><path d="M0 0c-28.352 28.352-66.047 43.966-106.142 43.966S-183.933 28.352-212.285 0c-28.351-28.352-43.965-66.047-43.965-106.142 0-40.096 15.614-77.791 43.965-106.143 28.352-28.351 66.048-43.965 106.143-43.965S-28.352-240.636 0-212.285c28.352 28.352 43.966 66.047 43.966 106.143C43.966-66.047 28.352-28.352 0 0" style="fill:#fff;fill-opacity:1;fill-rule:nonzero;stroke:none" transform="translate(316.629 313.625)"/><path d="M0 0c-1.65 1.074-3.523 1.133-5.62.176-2.096-.957-4.011-2.767-5.744-5.429-1.727-2.652-2.615-5.115-2.664-7.389-.049-2.274.739-3.94 2.363-4.998 1.726-1.123 3.589-1.238 5.59-.346 2.001.893 3.904 2.726 5.71 5.5 1.856 2.851 2.806 5.367 2.85 7.551C2.529-2.752 1.7-1.107 0 0" style="fill:#0086ce;fill-opacity:1;fill-rule:nonzero;stroke:none" transform="translate(150.945 114.334)"/><path d="M0 0c-1.893.544-3.701.052-5.425-1.478-1.724-1.529-3.024-3.821-3.901-6.874-.874-3.041-1.001-5.655-.382-7.845.618-2.188 1.86-3.55 3.724-4.086 1.978-.569 3.793-.133 5.445 1.307 1.651 1.44 2.934 3.75 3.848 6.931.94 3.27 1.11 5.955.513 8.055C3.224-1.89 1.95-.56 0 0" style="fill:#0086ce;fill-opacity:1;fill-rule:nonzero;stroke:none" transform="translate(180.422 100.88)"/><path d="M0 0a3.487 3.487 0 0 1 4.847.87 3.487 3.487 0 0 1-.871 4.847 3.485 3.485 0 0 1-4.846-.87A3.486 3.486 0 0 1 0 0" style="fill:#0086ce;fill-opacity:1;fill-rule:nonzero;stroke:none" transform="translate(277.357 310.447)"/><path d="m0 0-.058-.017c.125-.749.196-1.349.213-1.799l.347-11.731 6.318 1.845L.774-1.635C.584-1.305.326-.76 0 0" style="fill:#0086ce;fill-opacity:1;fill-rule:nonzero;stroke:none" transform="translate(241.673 100.485)"/><path d="M0 0c2.255 1.689 3.025 4.483 1.718 6.229-1.308 1.745-4.206 1.79-6.461.101C-6.997 4.641-7.768 1.847-6.46.101-5.153-1.644-2.255-1.689 0 0" style="fill:#0086ce;fill-opacity:1;fill-rule:nonzero;stroke:none" transform="translate(136.668 307.327)"/><path d="M0 0a3.486 3.486 0 0 1 3.482 3.482A3.486 3.486 0 0 1 0 6.964a3.486 3.486 0 0 1-3.482-3.482A3.486 3.486 0 0 1 0 0" style="fill:#0086ce;fill-opacity:1;fill-rule:nonzero;stroke:none" transform="translate(206.344 329.958)"/><path d="M0 0c1.87-1.141 4.46-1.669 7.768-1.582 3.401.088 6.013.734 7.835 1.936 1.823 1.202 2.708 2.818 2.655 4.846-.052 1.968-1.066 3.544-3.043 4.728-1.977 1.183-4.554 1.733-7.73 1.65-3.163-.082-5.695-.748-7.595-1.997-1.901-1.25-2.826-2.843-2.776-4.782C-2.832 2.741-1.871 1.141 0 0" style="fill:#0086ce;fill-opacity:1;fill-rule:nonzero;stroke:none" transform="translate(82.388 199.277)"/><path d="M0 0c-.339.425-.784.796-1.337 1.115-.552.319-1.196.561-1.933.727-1.329.299-2.441.217-3.332-.249C-7.494 1.128-8.074.3-8.341-.889l-.658-2.925L.028-5.846.679-2.95c.121.536.123 1.056.005 1.559A3.471 3.471 0 0 1 0 0" style="fill:#0086ce;fill-opacity:1;fill-rule:nonzero;stroke:none" transform="translate(326.506 183.168)"/><path d="M0 0a9.714 9.714 0 0 0-.215-1.314A14.85 14.85 0 0 0-.66-2.895a11.99 11.99 0 0 0-.63-1.514c-.237-.472-.493-.848-.767-1.127l-4.85.389c.423.297.81.659 1.163 1.088.353.428.659.887.918 1.377.258.491.467.986.627 1.484.159.499.256.963.29 1.391.121 1.495-.12 2.635-.721 3.42-.601.785-1.529 1.228-2.782 1.328-.673.054-1.267-.021-1.781-.225a4.73 4.73 0 0 1-1.438-.915c-.444-.406-.878-.89-1.302-1.453a99.55 99.55 0 0 1-1.33-1.811 30.516 30.516 0 0 0-1.727-1.906 9.782 9.782 0 0 0-1.883-1.496 7.87 7.87 0 0 0-2.255-.918c-.826-.199-1.78-.255-2.862-.169-1.332.108-2.472.427-3.419.959-.946.532-1.71 1.195-2.291 1.989a7.356 7.356 0 0 0-1.221 2.648 9.261 9.261 0 0 0-.233 2.936c.18 2.242.647 3.849 1.403 4.821l4.651-.373c-1.259-1.123-1.965-2.64-2.118-4.553a6.465 6.465 0 0 1 .071-1.593c.09-.534.271-1.019.54-1.457A3.525 3.525 0 0 1-23.52.323c.455-.297 1.019-.473 1.692-.527.633-.051 1.189.005 1.666.167.478.162.924.419 1.337.773.414.352.824.791 1.231 1.315.407.524.851 1.132 1.332 1.826a25.6 25.6 0 0 0 1.792 1.984 11.23 11.23 0 0 0 2.021 1.598 8.73 8.73 0 0 0 2.382 1.012c.861.227 1.826.297 2.895.212 1.439-.116 2.635-.433 3.59-.951.954-.517 1.712-1.172 2.272-1.964A6.935 6.935 0 0 0-.17 3.097C.03 2.108.087 1.076 0 0m-2.038-12.402-8.192-1.675a17.288 17.288 0 0 1-1.953-.491 6.665 6.665 0 0 1-1.389-.61 2.884 2.884 0 0 1-.897-.82 3.237 3.237 0 0 1-.479-1.136l-.316-1.405 11.274-2.536-.78-3.467-27.779 6.251 1.553 6.904c.222.985.581 1.857 1.077 2.616a6.024 6.024 0 0 0 1.892 1.848c.765.474 1.654.778 2.668.914 1.014.135 2.148.062 3.4-.22.982-.22 1.859-.533 2.629-.937a8.039 8.039 0 0 0 1.978-1.429 6.641 6.641 0 0 0 1.308-1.831 6.63 6.63 0 0 0 .614-2.158l.077-.018c.37.316.757.577 1.163.783.406.206.819.395 1.237.567.419.172.885.331 1.4.477.514.145 1.109.301 1.784.466l8.646 1.974zm-8.413-28.193-26.651 10.026 4.081 10.848 3.754-1.412-2.824-7.508 7.545-2.839 2.603 6.919 3.736-1.406-2.603-6.918 7.88-2.965 2.993 7.957 3.736-1.405zm-7.667-15.249-28.55 7.294 1.905 3.401 21.442-5.926a17.08 17.08 0 0 0 2.287-.834l.029.053c-.624.429-1.264.954-1.918 1.573l-16.163 15.272 1.847 3.297 21.07-20.651zm-9.004-13.575-22.965 16.834 2.172 2.962 22.965-16.833zm-6.32-7.9-22.253 6.948c-.563.175-1.11.397-1.64.666l-.061-.065c.496-.362 1.47-1.23 2.92-2.605l13.544-12.843-2.373-2.502-20.661 19.592 2.857 3.014 21.656-6.857c.904-.278 1.512-.483 1.825-.614l.041.043c-.616.447-1.577 1.289-2.883 2.528l-13.314 12.625 2.362 2.491 20.662-19.593zm-21.753-20.393c-4.42-3.236-8.901-1.751-13.444 4.454l-10.288 14.051 2.879 2.108 9.713-13.266c3.3-4.507 6.272-5.792 8.918-3.855 2.548 1.865 2.231 4.972-.952 9.319l-9.888 13.506 2.879 2.108 10.017-13.682c4.724-6.451 4.779-11.366.166-14.743m-28.452-15.49-11.766 25.929 3.249 1.475 10.117-22.295 7.592 3.445 1.649-3.635zm-7.523-2.884-3.887 6.416-8.117-2.37.245-7.478-3.742-1.092-.249 29.59 3.858 1.125 15.649-25.094zm-24.608-6.246c-3.094-.388-5.736.594-7.925 2.948s-3.547 5.632-4.074 9.835c-.567 4.518.024 8.301 1.772 11.349s4.224 4.773 7.428 5.175c2.062.258 3.822.086 5.278-.519l.583-4.65c-1.58.949-3.238 1.315-4.973 1.098-2.311-.29-4.06-1.504-5.247-3.64-1.189-2.138-1.577-4.841-1.166-8.112.39-3.112 1.37-5.508 2.941-7.185 1.57-1.678 3.446-2.38 5.628-2.106 2.013.253 3.68 1.102 4.999 2.548l.544-4.334c-1.469-1.305-3.398-2.107-5.788-2.407m-18.446-.865-.744 28.464 3.672.096.744-28.464zm-98.115 135.66c0 53.645 43.644 97.288 97.288 97.288 53.645 0 97.288-43.643 97.288-97.288 0-53.644-43.643-97.287-97.288-97.287-53.644 0-97.288 43.643-97.288 97.287m94.261-113.178c-1.497 1.612-3.379 2.531-5.647 2.758-2.277.227-4.244-.581-5.899-2.425-1.656-1.843-2.641-4.346-2.957-7.507-.324-3.254.047-5.875 1.114-7.864 1.068-1.989 2.675-3.09 4.824-3.305 1.471-.146 2.782.102 3.931.745l.673 6.738-4.506.45.394 3.952 8.042-.803-1.343-13.455c-2.388-1.385-4.95-1.941-7.685-1.668-3.163.315-5.594 1.875-7.293 4.678-1.699 2.804-2.334 6.353-1.906 10.647.437 4.386 1.868 7.878 4.292 10.477 2.424 2.599 5.287 3.733 8.589 3.404 2.377-.237 4.33-.898 5.86-1.981zm-20.014-6.061c-1.283-4.466-3.206-7.736-5.767-9.81-2.562-2.073-5.36-2.674-8.396-1.801-2.978.855-4.995 2.819-6.052 5.891-1.057 3.072-.997 6.657.18 10.753 1.266 4.403 3.187 7.651 5.765 9.748 2.579 2.097 5.434 2.695 8.566 1.795 2.901-.834 4.872-2.778 5.914-5.832 1.041-3.053.971-6.635-.21-10.744m-24.096-3.748-1.646-3.635-10.845 4.909 11.743 25.94 3.251-1.472-10.097-22.304zm-26.335 8.747c-2.597 1.69-3.951 4.159-4.061 7.406-.11 3.247.998 6.656 3.324 10.228 2.499 3.838 5.288 6.382 8.367 7.631 3.08 1.249 5.985.985 8.716-.793 2.529-1.647 3.844-4.084 3.945-7.308.101-3.226-1.015-6.63-3.348-10.213-2.536-3.893-5.331-6.456-8.388-7.688-3.057-1.233-5.908-.987-8.555.737m-11.231 8.566-8.979 8.065 19.026 21.184 8.622-7.744-2.68-2.984-5.967 5.36-5.387-5.998 5.499-4.939-2.667-2.97-5.499 4.94-5.626-6.264 6.325-5.68zm-15.501 14.845 9.495 7.898-6.472 7.781-9.495-7.899-2.282 2.743 21.891 18.21 2.282-2.744-9.205-7.657 6.472-7.78 9.205 7.657 2.291-2.755-21.89-18.209zm-17.374 24.545 21.207 12.194-3.071 5.341 3.477 2 7.929-13.791-3.477-1.999-3.079 5.355-21.207-12.194zm-6.735 13.372-4.03 11.201 26.793 9.64 1.208-3.358-23.037-8.289 2.822-7.844zm-8.151 25.526c-1.089 5.368 2.135 8.816 9.673 10.346l17.066 3.462.71-3.497-16.113-3.269c-5.475-1.111-7.886-3.273-7.235-6.486.628-3.095 3.582-4.107 8.863-3.036l16.404 3.328.71-3.498-16.619-3.371c-7.836-1.589-12.322.418-13.459 6.021m-2.65 23.887c-.08 3.098 1.185 5.613 3.796 7.546 2.612 1.933 6.048 2.955 10.309 3.066 4.578.119 8.256-.735 11.031-2.563 2.775-1.827 4.206-4.37 4.291-7.627.078-3.018-1.182-5.483-3.78-7.395-2.599-1.913-6.036-2.925-10.31-3.036-4.645-.121-8.341.728-11.09 2.546-2.749 1.818-4.164 4.306-4.247 7.463m2.283 26.184 28.233-3.7-1.506-11.491-3.977.521 1.042 7.953-7.993 1.048-.96-7.329-3.958.518.961 7.329-8.348 1.094-1.104-8.429-3.958.518zm2.43 12.748c.092.348.24.766.445 1.255.204.489.443.981.718 1.477.275.496.57.956.887 1.379.317.423.636.747.956.973l4.703-1.242a5.904 5.904 0 0 1-1.337-.864 8.147 8.147 0 0 1-1.147-1.194 9.2 9.2 0 0 1-.879-1.349 6.231 6.231 0 0 1-.533-1.317c-.382-1.45-.348-2.614.105-3.494.453-.879 1.287-1.479 2.503-1.8.653-.172 1.25-.203 1.793-.093.542.11 1.068.325 1.577.646.509.321 1.022.72 1.538 1.199.517.479 1.06.994 1.63 1.547a31.227 31.227 0 0 0 2.037 1.571 9.786 9.786 0 0 0 2.118 1.139c.74.286 1.534.454 2.382.503.848.051 1.797-.063 2.847-.34 1.292-.341 2.358-.857 3.195-1.549.837-.691 1.472-1.479 1.903-2.362.43-.884.675-1.825.733-2.823a9.256 9.256 0 0 0-.291-2.931c-.573-2.174-1.318-3.673-2.234-4.496l-4.511 1.19c1.437.882 2.401 2.251 2.891 4.106.135.513.205 1.039.211 1.58a4 4 0 0 1-.274 1.53 3.53 3.53 0 0 1-.874 1.278c-.395.373-.919.645-1.571.818-.615.162-1.171.205-1.67.13-.5-.075-.984-.25-1.453-.524a8.921 8.921 0 0 1-1.444-1.076 40.877 40.877 0 0 1-1.634-1.562 25.685 25.685 0 0 0-2.116-1.636 11.198 11.198 0 0 0-2.271-1.214 8.785 8.785 0 0 0-2.524-.575c-.888-.07-1.85.031-2.887.305-1.395.368-2.516.891-3.364 1.57-.848.679-1.478 1.457-1.889 2.336a6.949 6.949 0 0 0-.65 2.831 11.133 11.133 0 0 0 .381 3.078m19.987 18.286a4.213 4.213 0 0 0 4.213-4.206 4.202 4.202 0 0 0-4.213-4.206 4.205 4.205 0 0 0-4.202 4.206 4.216 4.216 0 0 0 4.202 4.206m1.204 22.792c4.876-3.485 8.66-5.647 11.715-6.427 2.534-.643 5.303-.588 9.027 1.331l1.264-3.35c-1.687-1.405-3.729-2.162-5.202-2.505-1.943-.43-3.174-.421-5.096.067l-.43.109.237-.376c1.038-1.651 1.469-2.944 1.622-5.075.119-1.605.09-3.901-.672-5.515l-3.536.096c.895 2.608-.237 6.859-1.659 9.076-1.695 2.68-4.935 5.583-9.779 9.072zm8.573 12.578 23.396-16.784-2.498-3.482-14.441 10.359-3.396-4.735-2.89 2.074 3.396 4.734-6.065 4.351zm19.898 19.994c4.31 3.229 9.858 3.132 12.367-.216.821-1.096 1.245-2.457 1.226-3.935l-.005-.361 4.4 3.297 2.132-2.847-9.291-6.961 1.101-1.471 8.49 6.361 4.957-6.616-16.723-12.53 1.174-1.566 16.771 12.565 2.028-2.707-20.201-15.135-4.98 6.646 16.715 12.54-1.134 1.514-16.745-12.547-2.038 2.72 8.256 6.185-1.101 1.471-9.084-6.806-2.132 2.846 4.329 3.244-.348.097c-1.424.397-2.611 1.186-3.432 2.282-2.508 3.348-1.043 8.7 3.268 11.93m34.689 7.849c.303 1.778-.159 4.601-1.162 7.743l4.219 1.367c1.026-3.114 2.329-5.665 3.664-6.934 1.672-1.6 4.717-2.413 7.339-1.984l-1.002-3.959c-1.43-.342-2.313-.15-3.886.192l-.318.069c-1.833.392-3.36 1.187-4.537 2.364l-.238.237-.062-.33c-.311-1.636-1.16-3.214-2.523-4.69l-.454-.493c-.958-1.046-1.498-1.634-2.625-2.095l-3.125 2.589c2.356 1.206 4.316 3.656 4.71 5.924m17.403 14.143 6.371-19.662-4.077-1.321-6.371 19.661zm9.01-27.348-22.829-7.398-3.091 9.54 4.077 1.321 1.987-6.131 18.752 6.076zm7.348 29.575h6.097v2.359h4.286v-2.359h6.054v-3.556h-2.095l.147-.264a7.268 7.268 0 0 0 .915-3.524c0-4.002-3.256-7.257-7.257-7.257-4.002 0-7.258 3.255-7.258 7.257 0 1.23.317 2.449.915 3.524l.147.264h-1.951zm1.286-19.945v3.556l24.132.002v-11.695h-4.287v8.137zm19.845 20.656h4.287v-5.295h3.579v-3.556h-3.579v-6.078h-4.287zm20.747-3.138 11.486-3.689-1.088-3.387-7.405 2.379-4.593-14.299 9.808-3.151 5.899 18.361 4.081-1.311-2.809-8.743 2.547-.819 2.809 8.744 4.081-1.311-8.807-27.414-4.08 1.311 4.91 15.284-2.548.819-4.91-15.284-4.081 1.311 1.82 5.666-13.888 4.464zm28.474-28.56L-57.177 101l-6.677-9.601-3.519 2.448 4.646 6.68-16.292 11.331zm4.838 7.652a7.255 7.255 0 0 0 2.764 2.37l.271.133-1.602 1.114 2.03 2.92 5.006-3.481 1.346 1.936 3.519-2.447-1.347-1.936 4.971-3.458-2.031-2.919-1.72 1.196-.03-.3a7.261 7.261 0 0 0-1.261-3.416c-2.285-3.285-6.816-4.099-10.102-1.814-3.285 2.285-4.099 6.817-1.814 10.102m24.737-7.392-2.821-4.056 2.938-2.044-2.03-2.92-2.939 2.044-3.673-5.281-3.519 2.448 8.525 12.256zm7.652-25.264-9.348-6.986 2.082-2.785 9.348 6.986 2.565-3.434-9.348-6.986 2.585-3.458 15.524 11.601-11.359 15.2 2.849 2.129 13.926-18.632-18.374-13.732 1.271-1.701-2.849-2.129-16.241 21.732 2.849 2.129 2.606-3.487 9.348 6.986zm20.304-27.798a4.202 4.202 0 0 0-4.213-4.206 4.205 4.205 0 0 0-4.202 4.206 4.216 4.216 0 0 0 4.202 4.206 4.213 4.213 0 0 0 4.213-4.206m13.684-10.795.984-3.43-9.85-2.825-15.629-11.625-1.12 3.906 10.573 7.43c.127.088.613.384 1.461.887l-.013.043c-.432-.03-1.006-.023-1.721.021l-12.957.886-1.041 3.632 19.369-1.777zm5.135-25.387-24.306-2.767.697-6.123-3.985-.453-1.799 15.805 3.985.454.699-6.138 24.306 2.767zm.704-14.819-28.473-.112-.015 3.674 28.474.112zm-32.217 104.388c-27.486 27.486-64.029 42.623-102.9 42.623-38.87 0-75.414-15.137-102.9-42.623-27.485-27.485-42.622-64.029-42.622-102.9 0-38.87 15.137-75.414 42.622-102.9 27.486-27.485 64.03-42.622 102.9-42.622 38.871 0 75.414 15.137 102.9 42.622 27.486 27.486 42.623 64.03 42.623 102.9 0 38.871-15.137 75.415-42.623 102.9" style="fill:#0086ce;fill-opacity:1;fill-rule:nonzero;stroke:none" transform="translate(345.537 195.02)"/><path d="M0 0h.608c1.775 0 3.116.394 4.017 1.173a3.043 3.043 0 0 1 1.097 2.269h3.405v-20.073h-4.13v13.889H0Z" style="fill:#0086ce;fill-opacity:1;fill-rule:nonzero;stroke:none" transform="translate(230.48 136.244)"/><path d="M0 0h.616c1.783 0 3.123.394 4.025 1.173a3.228 3.228 0 0 1 1.096 2.269h3.4v-20.073H4.998v13.889H0Z" style="fill:#0086ce;fill-opacity:1;fill-rule:nonzero;stroke:none" transform="translate(180.648 136.244)"/><path d="M0 0c.509-.476 1.222-.712 2.139-.712.837 0 1.538.251 2.078.79.673.647 1.006 1.611 1.006 2.851 0 1.265-.272 2.2-.801 2.848-.557.712-1.361 1.055-2.39 1.055-.753 0-1.391-.213-1.918-.671-.695-.62-1.046-1.611-1.046-2.943C-.932 1.713-.624.646 0 0m-.552-5.791c.092-.657.356-1.173.778-1.516.415-.303.96-.462 1.654-.462.944 0 1.736.41 2.322 1.188.729.963 1.101 2.388 1.101 4.325l-.048.094a3.608 3.608 0 0 0-1.827-1.32c-.645-.25-1.373-.383-2.206-.383-1.947 0-3.507.648-4.638 1.939-1.13 1.214-1.661 2.744-1.661 4.59 0 2.441.659 4.301 2.005 5.578 1.266 1.15 2.956 1.741 5.104 1.741 1.681 0 3.084-.407 4.188-1.225.945-.686 1.662-1.689 2.178-2.969.413-.949.709-2.174.842-3.494.093-.804.144-1.834.144-3.007 0-3.589-.801-6.252-2.398-7.993-1.311-1.464-3.029-2.215-5.147-2.215-1.803 0-3.301.46-4.473 1.37-1.182.937-1.863 2.203-2.028 3.759z" style="fill:#0086ce;fill-opacity:1;fill-rule:nonzero;stroke:none" transform="translate(201.36 130.138)"/><path d="M0 0h.621c1.775 0 3.113.394 4.01 1.173.672.594 1.06 1.36 1.11 2.269h3.392v-20.073h-4.13v13.889H0Z" style="fill:#0086ce;fill-opacity:1;fill-rule:nonzero;stroke:none" transform="translate(214.733 136.244)"/><path d="M0 0h-21.29a2.466 2.466 0 1 0 0 4.933H0A2.467 2.467 0 0 0 0 0" style="fill:#0086ce;fill-opacity:1;fill-rule:nonzero;stroke:none" transform="translate(220.837 237.075)"/><path d="M0 0a1.882 1.882 0 1 0-3.764 0A1.882 1.882 0 0 0 0 0" style="fill:#0086ce;fill-opacity:1;fill-rule:nonzero;stroke:none" transform="translate(199.804 246.69)"/><path d="M0 0a1.882 1.882 0 1 0-3.764 0A1.882 1.882 0 0 0 0 0" style="fill:#0086ce;fill-opacity:1;fill-rule:nonzero;stroke:none" transform="translate(204.643 246.69)"/><path d="M0 0a1.882 1.882 0 1 0-3.764 0A1.882 1.882 0 0 0 0 0" style="fill:#0086ce;fill-opacity:1;fill-rule:nonzero;stroke:none" transform="translate(209.482 246.69)"/><path d="M0 0a1.882 1.882 0 1 0-3.764 0A1.882 1.882 0 0 0 0 0" style="fill:#0086ce;fill-opacity:1;fill-rule:nonzero;stroke:none" transform="translate(214.32 246.69)"/><path d="M0 0a1.882 1.882 0 1 0-3.764 0A1.882 1.882 0 0 0 0 0" style="fill:#0086ce;fill-opacity:1;fill-rule:nonzero;stroke:none" transform="translate(219.159 246.69)"/><path d="M0 0a1.882 1.882 0 1 0-3.764 0A1.882 1.882 0 0 0 0 0" style="fill:#0086ce;fill-opacity:1;fill-rule:nonzero;stroke:none" transform="translate(223.998 246.69)"/><path d="M0 0c-.102-2.305-2.186-4.031-4.493-4.031h-33.763c-2.307 0-4.392 1.726-4.494 4.031a4.223 4.223 0 0 0 4.218 4.413h14.034c.545.177.928.529.619 1.239-.219.446-1.457.722-1.457.722C-41.173 11.17-36.701 19.345-35.5 20.633c.547.615 3.657 2.518.154 3.304-3.482.767-4.374 8.061-4.374 8.061s-1.133 6.132 4.178 2.189c0 0 6.241-3.741 3.945-8.229 0 0-1.128-1.67 2.922-1.159 0 0 7.751.075 3.339-10.333 0 0-1.489-3.816 2.962-5.22l.003-.002c.066-.012 8.425-1.529 6.491 6.709-1.966 8.272-5.755 4.434-6.491 13.982 0 0-1.796 10.844.858 11.556 0 0 3.513 1.329 3.757-2.647.225-3.976 2.101-6.019 3.594-6.093 1.478-.074 3.408.818 3.359 5.933 0 0 .926 3.115 3.184-.223 2.281-3.37 9.287-19.583 3.137-25.708 0 0-1.12-1.464-5.69-.241-.029.008-.06-.011-.054-.04.113-.507.826-4.189-1.884-5.268-2.532-.994-2.82-2.371-1.066-2.791h8.958A4.222 4.222 0 0 0 0 0" style="fill:#0086ce;fill-opacity:1;fill-rule:nonzero;stroke:none" transform="translate(231.567 255.404)"/><path d="M0 0c-6.912 7.897-15.407 11.768-18.974 8.646s-.854-12.054 6.058-19.951S2.491-23.073 6.058-19.951C9.624-16.83 6.912-7.897 0 0" style="fill:#0086ce;fill-opacity:1;fill-rule:nonzero;stroke:none" transform="translate(268.018 261.775)"/><path d="M0 0c5.818 0 10.286-1.26 13.995-2.861l12.893 5.7c-3.32 1.419-5.327 2.954-9.416 7.407-3.279 3.571-5.047 6.477-6.8 9.862L-1.724-.016C-1.152-.006-.578 0 0 0" style="fill:#0086ce;fill-opacity:1;fill-rule:nonzero;stroke:none" transform="translate(236.07 238.311)"/><path d="M0 0s-.249-.467-2.057-.907c-3.505-.855-5.822.727-5.822.727-6.653 4.577.346 9.115-3.385 11.275-8.058 4.664-10.004-13.013-3.024-17.405 6.981-4.359-6.31-4.885-11.865-10.467-3.742-3.774-1.125-7.862 1.51-10.095 8.082-6.751 13.379 4.243 15.98 10.972 2.599 6.783 6.461 7.594 7.917 7.754C2.366-7.805 10.199-3.883 8.948.05 8.948.05 1.554-.023 0 0" style="fill:#0086ce;fill-opacity:1;fill-rule:nonzero;stroke:none" transform="translate(175.418 175.9)"/><path d="M0 0c-6.756 5.475 9.51 7.017 6.283 11.928-3.737 5.604-6.134 2.5-7.589-.53-2.191-4.52-4.902-7.711-7.608-5.211-.139.092-.312.277-.442.368l-12.84-.109c1.096-1.154 2.164-2.393 3.688-4.108 3.705-4.17 6.58-7.399 1.683-9.163-4.912-1.798-9.596-2.723-5.629-6.465 3.949-3.743 5.713.744 10.206 5.624C-7.767-2.775-5.959-8.76-.105-17.065c3.906-5.538 10.427-.967 10.427-.967C20.147-8.644 0 0 0 0" style="fill:#0086ce;fill-opacity:1;fill-rule:nonzero;stroke:none" transform="translate(261.086 169.143)"/><path d="M0 0c2.034.082 3.809-.008 5.635-.115-7.273 7.077-18.089 17.917-18.39 18.22-7.866 7.904-16.038 12.528-18.25 10.31-2.225-2.209 2.35-10.396 10.209-18.302.502-.503 5.606-5.747 11.662-11.6C-6.301-.834-3.583-.144 0 0" style="fill:#0086ce;fill-opacity:1;fill-rule:nonzero;stroke:none" transform="translate(184.116 238.142)"/><path d="M0 0c-1.277.704-2.385 1.115-2.385 1.115l.096 45.635c1.278-.259 2.827-1.519 2.827-1.519 1.327-.962 1.871-2.426 1.871-3.385l.017-43.445C1.882-1.135 2.2-1.214 0 0m-80.261 41.846c0 .959.543 2.423 1.87 3.385 0 0 1.55 1.26 2.828 1.519l.095-45.635S-76.576.704-77.852 0c-2.201-1.214-1.882-1.135-2.427-1.599zm82.825 4.901c-3.567 2.883-9.821 4.763-17.817 4.763-9.852 0-18.881-1.411-22.377-5.038V-1.559c3.866 1.503 10.203 2.828 16.979 2.828 10.231 0 20.62-2.549 22.155-5.344h-32.063c-1.262 0-2.416-.638-2.982-1.648l-.294-.526c-.937-1.673-3.017-3.251-5.107-3.251h-1.062c-2.091 0-3.835 1.578-4.772 3.251l-.294.526c-.565 1.01-1.719 1.648-2.982 1.648h-31.646c1.618 2.909 8.755 5.317 19.691 5.344 10.05.024 16.218-1.169 19.638-2.741v48.124c-3.621 3.491-12.503 4.858-22.187 4.858-8.547 0-15.104-2.147-18.515-5.373a4.272 4.272 0 0 1-1.321-3.108V-6.542h33.629l.675-1.346a8.707 8.707 0 0 1 4.613-4.205c.002-4.105-.034-8.493-.131-11.501-.285-8.878 2.056-12.899 3.603-14.485a1.495 1.495 0 0 1 2.151.007c1.514 1.582 3.662 5.574 3.264 14.478-.13 2.912-.177 7.519-.172 11.802a8.708 8.708 0 0 1 3.932 3.904l.675 1.346H4.583v49.009a5.498 5.498 0 0 1-2.019 4.28" style="fill:#0086ce;fill-opacity:1;fill-rule:nonzero;stroke:none" transform="translate(249.116 184.18)"/></g></svg>