<svg xmlns="http://www.w3.org/2000/svg" width="214.41193mm" height="211.14394mm" viewBox="0 0 214.41193 211.14394"><path d="m0 0 .536.285-.878 1.132L-.635 1a108.49 108.49 0 0 1-3.041 4.445l.486.213-.877 1.124-.327-.328c-19.016 25.593-49.469 42.18-83.8 42.18-57.599 0-104.311-46.704-104.311-104.317 0-57.602 46.712-104.319 104.311-104.319 57.615 0 104.319 46.717 104.319 104.319C16.125-35.202 10.201-16.117 0 0" style="fill:#fff;fill-opacity:1;fill-rule:nonzero;stroke:none" transform="matrix(.97174 0 0 -.97174 191.903 50.6)"/><path d="M0 0c1.72-.8 3.525-.137 5.122-1.138 1.444.338 3.592.604 5.095.267 1.196.265 2.633-.806 3.743.129 2.014-.536 4.429-.465 6.083-1.61 2.28-.406 4.018-2.022 6.425-2.092l.284-.269c2.765 0 5.33-.599 7.953-1.009.753-1.348 2.767.468 3.26-1.48 1.93-.474 3.933-.809 5.104-2.625 1.445-.073 2.004-1.423 3.6-1.155 1.312 0 2.14-1.342 3.519-1.206 2.489-1.541 4.904-3.162 7.118-5.454 1.52.266 1.444-1.348 2.84-1.348.761-1.071 2.274-1.011 2.691-2.357.827-.205.484-1.614 1.587-1.685 2.908-.533 5.256-1.818 6.986-4.178.559-1.071 2.004-1.809 2.146-3.156 1.246-1.613 1.929-3.499 3.525-4.987.754-2.09 2.198-3.993 3.442-5.748.143-1.541 2.617-2.062 1.807-3.276.617-.407.875-4.405 2.405-4.22 3.091-4.359 1.22-.244 4.169-4.064.961-.809 1.254-2.023 2.415-2.626-.285-.806.694-1.011 1.104-1.286.348-2.287 3.258-3.362 3.599-5.781.352-.143.494-.541.41-1.01.485-.817 1.386-1.554 1.386-2.634 1.313-.137.82-1.482 1.171-2.352.484-.614 1.529-1.083 1.879-1.755 1.028-.194.827-1.481 1.654-1.822.894-3.032 2.49-5.991 3.869-8.893 1.379-1.805 1.237-4.502 2.557-6.465-.893-1.952 1.036-3.419.551-5.587 0-1.479.835-3.696-.686-4.838.277-1.086-1.102-1.888-.91-3.179-2.271-1-1.444-3.967-1.788-5.787.627-1.941.493-4.104-.276-5.995-.142-1.955.903-3.363.135-5.256.768-1.274.283-3.019-.135-4.293.351-.544-.073-1.145-.349-1.618-.276-2.427 1.252-4.316.207-6.538.56-1.421.142-3.099-.768-4.303-1.238-1.553-.334-3.914-2.407-5.122-.827-2.764-3.391-4.788-3.674-7.883-.478-.26 0-.337-.127-.738.127-1.887-2.013-2.9-1.871-4.847-1.246-1.894-2.49-3.782-3.735-5.657-.692-.28-.209-1.278-.961-1.685-.493-1.612-1.244-3.243-1.595-4.979-.694-.477-.201-1.554-.961-2.089-.352-1.084-.911-2.097-1.455-3.169-1.453-1.08-1.386-3.231-3.39-3.972-.686-2.435-3.802-3.297-5.107-5.317-1.596-.485-1.32-2.031-2.565-3.033-.9-1.957-3.04-3.301-3.875-5.266-.076-.866-1.179-1.265-1.103-2.216-2.14-.607-2.223-3.9-4.705-4.039-2.63-1.822-5.456-.735-7.953-3.041-1.798-.936-3.518-1.872-4.831-3.417-2.079-.816-3.248-2.505-5.395-3.243-.896-1.418-2.9-1.137-3.87-2.357-3.175-.202-4.553-3.896-7.819-3.973-.819-.672-1.923-.338-2.825-.404-2.297.334-5.112 1.62-7.678.552-1.244-.878-3.326 0-4.287-1.285-2.555-.284-4.902-.955-7.25-1.764-1.388-.796-2.974-1.537-4.563-1.405-1.661-.409-3.192-1.22-5.122-1.146-1.596.602-3.317-.074-4.494 1.146-2.004 1.009-4.57.807-6.843 1.215-1.596-.881-3.385-.881-4.979-.803-.894.466-1.446-.821-2.415-.544-.218-.544-.762-.21-1.186-.277-.961.878-2.415 1.143-3.794.821-.401.803-1.303-.218-1.863.671-2.281.672-4.552 1.542-6.984 1.95-.761-.206-.151-.094-.971.182-3.124.543-6.574-.276-9.817 0-.625.47-1.26 1.002-2.079 1.076-1.045 1.009-2.489.605-3.735.338-.902.536-2.49-.132-2.966 1.083-1.53.664-3.05.73-4.153 2.074-.627 1.021-2.013 1.483-3.25 1.689-.2-.54-.693-.135-.961-.206-1.185.676-1.594 1.759-2.28 2.827-2.147 1.413-2.623 4.447-5.464 5.122-.275.804-1.246.136-1.529.952-1.104 2.889-4.42 2.349-6.835 3.619-2.348-.116-3.802 2.097-5.54 3.444a19.74 19.74 0 0 1-2.831 3.169c-1.73 1.216-3.869 3.033-5.739 4.175-.276.4-.478.882-.961 1.277-3.251.82-5.181 3.57-6.711 6.198-1.244.936-1.32 2.35-2.423 3.359-.066.812-.969 1.29-1.245 2.023-1.444 2.831-3.867 5.321-4.411 8.49-.759.675-.359 2.216-.425 3.165.827.675 1.394 1.615 1.118 2.756-.909 1.759-1.736 3.507-2.838 5.13.827.66.275 1.814.417 2.696l-1.672 1.075c-.409 1.744-1.027 3.293-1.596 4.97-.751.276-.268 1.286-.969 1.686.142 1.755-.809 3.234-.885 4.722-2.289 2.691-.268 5.992-1.103 9.286-2.147 2.571-.627 6.188-1.864 8.961-.359 2.216.544 4.505.402 6.668-.344.258-.476.809-.402 1.411-1.045 2.829.82 4.982 0 7.739.753 3.446-.911 6.538-.142 9.837-.827.941.276 1.816.276 2.759 2.833 1.827.544 6.872 4.687 7.342.703.13-.877.357.018.357 0 2.225 2.638 4.24.968 6.262-.609.745-1.169 1.686-1.102 2.771-.284 1.344.969 1.406.693 2.755 1.312.807-.268 2.283.835 3.226.343 1.621 1.722 3.372 3.45 3.972 1.371 1.83 4.763 2.973 4.087 5.865.752.745-.227 1.624.266 2.488.276.878.703 1.626.769 2.639.61.601 1.087 1.541 1.237 2.479.969.407.486 1.625 1.313 2.229.759 1.074.617 2.96 2.423 3.167.893 1.946 2.906 2.418 3.799 4.44 1.94 1.083 2.558 3.501 4.563 4.442 1.028 1.085 2.766 1.145 4.002 2.095 1.179 1.542 2.072 2.828 3.258 4.37.827.073.761 1.083 1.245 1.418 2.215.738 3.594 2.288 5.74 3.167 1.17.607 1.17 2.361 2.549 2.625.141.746 1.12.81 1.662 1.28 1.186.874 2.006 2.691 3.45 2.764.276 1.005 1.806 1.614 2.289 2.484.486.95 1.73.407 2.148 1.418 1.237.132 2.206 1.277 3.526 1.349.961.673 2.281.882 2.967 1.818 1.452.542 3.04.672 4.293 1.685 1.378-.145 2.557 1.335 4.136.807 1.939 2.085 4.428 2.287 7.403 2.496 1.579 2.28 4.002.129 5.939 1.814 2.082.602 4.212 1.477 6.443 1.348 1.371.734 3.301.265 4.754.871 1.595-.8 3.049.273 4.712.145 1.094.875 2.833 1.004 4.145.537C-5.74 1.821-4.086.345-2.147 0Z" style="fill:#7b7979;fill-opacity:1;fill-rule:nonzero;stroke:none" transform="matrix(.97174 0 0 -.97174 107.786 1.075)"/><path d="M0 0c1.72-.8 3.525-.137 5.122-1.138 1.444.338 3.592.604 5.095.267 1.196.265 2.633-.806 3.743.129 2.014-.536 4.429-.465 6.083-1.61 2.28-.406 4.018-2.022 6.425-2.092l.284-.269c2.765 0 5.33-.599 7.953-1.009.753-1.348 2.767.468 3.26-1.48 1.93-.474 3.933-.809 5.104-2.625 1.445-.073 2.004-1.423 3.6-1.155 1.312 0 2.14-1.342 3.519-1.206 2.489-1.541 4.904-3.162 7.118-5.454 1.52.266 1.444-1.348 2.84-1.348.761-1.071 2.274-1.011 2.691-2.357.827-.205.484-1.614 1.587-1.685 2.908-.533 5.256-1.818 6.986-4.178.559-1.071 2.004-1.809 2.146-3.156 1.246-1.613 1.929-3.499 3.525-4.987.754-2.09 2.198-3.993 3.442-5.748.143-1.541 2.617-2.062 1.807-3.276.617-.407.875-4.405 2.405-4.22 3.091-4.359 1.22-.244 4.169-4.064.961-.809 1.254-2.023 2.415-2.626-.285-.806.694-1.011 1.104-1.286.348-2.287 3.258-3.362 3.599-5.781.352-.143.494-.541.41-1.01.485-.817 1.386-1.554 1.386-2.634 1.313-.137.82-1.482 1.171-2.352.484-.614 1.529-1.083 1.879-1.755 1.028-.194.827-1.481 1.654-1.822.894-3.032 2.49-5.991 3.869-8.893 1.379-1.805 1.237-4.502 2.557-6.465-.893-1.952 1.036-3.419.551-5.587 0-1.479.835-3.696-.686-4.838.277-1.086-1.102-1.888-.91-3.179-2.271-1-1.444-3.967-1.788-5.787.627-1.941.493-4.104-.276-5.995-.142-1.955.903-3.363.135-5.256.768-1.274.283-3.019-.135-4.293.351-.544-.073-1.145-.349-1.618-.276-2.427 1.252-4.316.207-6.538.56-1.421.142-3.099-.768-4.303-1.238-1.553-.334-3.914-2.407-5.122-.827-2.764-3.391-4.788-3.674-7.883-.478-.26 0-.337-.127-.738.127-1.887-2.013-2.9-1.871-4.847-1.246-1.894-2.49-3.782-3.735-5.657-.692-.28-.209-1.278-.961-1.685-.493-1.612-1.244-3.243-1.595-4.979-.694-.477-.201-1.554-.961-2.089-.352-1.084-.911-2.097-1.455-3.169-1.453-1.08-1.386-3.231-3.39-3.972-.686-2.435-3.802-3.297-5.107-5.317-1.596-.485-1.32-2.031-2.565-3.033-.9-1.957-3.04-3.301-3.875-5.266-.076-.866-1.179-1.265-1.103-2.216-2.14-.607-2.223-3.9-4.705-4.039-2.63-1.822-5.456-.735-7.953-3.041-1.798-.936-3.518-1.872-4.831-3.417-2.079-.816-3.248-2.505-5.395-3.243-.896-1.418-2.9-1.137-3.87-2.357-3.175-.202-4.553-3.896-7.819-3.973-.819-.672-1.923-.338-2.825-.404-2.297.334-5.112 1.62-7.678.552-1.244-.878-3.326 0-4.287-1.285-2.555-.284-4.902-.955-7.25-1.764-1.388-.796-2.974-1.537-4.563-1.405-1.661-.409-3.192-1.22-5.122-1.146-1.596.602-3.317-.074-4.494 1.146-2.004 1.009-4.57.807-6.843 1.215-1.596-.881-3.385-.881-4.979-.803-.894.466-1.446-.821-2.415-.544-.218-.544-.762-.21-1.186-.277-.961.878-2.415 1.143-3.794.821-.401.803-1.303-.218-1.863.671-2.281.672-4.552 1.542-6.984 1.95-.761-.206-.151-.094-.971.182-3.124.543-6.574-.276-9.817 0-.625.47-1.26 1.002-2.079 1.076-1.045 1.009-2.489.605-3.735.338-.902.536-2.49-.132-2.966 1.083-1.53.664-3.05.73-4.153 2.074-.627 1.021-2.013 1.483-3.25 1.689-.2-.54-.693-.135-.961-.206-1.185.676-1.594 1.759-2.28 2.827-2.147 1.413-2.623 4.447-5.464 5.122-.275.804-1.246.136-1.529.952-1.104 2.889-4.42 2.349-6.835 3.619-2.348-.116-3.802 2.097-5.54 3.444a19.74 19.74 0 0 1-2.831 3.169c-1.73 1.216-3.869 3.033-5.739 4.175-.276.4-.478.882-.961 1.277-3.251.82-5.181 3.57-6.711 6.198-1.244.936-1.32 2.35-2.423 3.359-.066.812-.969 1.29-1.245 2.023-1.444 2.831-3.867 5.321-4.411 8.49-.759.675-.359 2.216-.425 3.165.827.675 1.394 1.615 1.118 2.756-.909 1.759-1.736 3.507-2.838 5.13.827.66.275 1.814.417 2.696l-1.672 1.075c-.409 1.744-1.027 3.293-1.596 4.97-.751.276-.268 1.286-.969 1.686.142 1.755-.809 3.234-.885 4.722-2.289 2.691-.268 5.992-1.103 9.286-2.147 2.571-.627 6.188-1.864 8.961-.359 2.216.544 4.505.402 6.668-.344.258-.476.809-.402 1.411-1.045 2.829.82 4.982 0 7.739.753 3.446-.911 6.538-.142 9.837-.827.941.276 1.816.276 2.759 2.833 1.827.544 6.872 4.687 7.342.703.13-.877.357.018.357 0 2.225 2.638 4.24.968 6.262-.609.745-1.169 1.686-1.102 2.771-.284 1.344.969 1.406.693 2.755 1.312.807-.268 2.283.835 3.226.343 1.621 1.722 3.372 3.45 3.972 1.371 1.83 4.763 2.973 4.087 5.865.752.745-.227 1.624.266 2.488.276.878.703 1.626.769 2.639.61.601 1.087 1.541 1.237 2.479.969.407.486 1.625 1.313 2.229.759 1.074.617 2.96 2.423 3.167.893 1.946 2.906 2.418 3.799 4.44 1.94 1.083 2.558 3.501 4.563 4.442 1.028 1.085 2.766 1.145 4.002 2.095 1.179 1.542 2.072 2.828 3.258 4.37.827.073.761 1.083 1.245 1.418 2.215.738 3.594 2.288 5.74 3.167 1.17.607 1.17 2.361 2.549 2.625.141.746 1.12.81 1.662 1.28 1.186.874 2.006 2.691 3.45 2.764.276 1.005 1.806 1.614 2.289 2.484.486.95 1.73.407 2.148 1.418 1.237.132 2.206 1.277 3.526 1.349.961.673 2.281.882 2.967 1.818 1.452.542 3.04.672 4.293 1.685 1.378-.145 2.557 1.335 4.136.807 1.939 2.085 4.428 2.287 7.403 2.496 1.579 2.28 4.002.129 5.939 1.814 2.082.602 4.212 1.477 6.443 1.348 1.371.734 3.301.265 4.754.871 1.595-.8 3.049.273 4.712.145 1.094.875 2.833 1.004 4.145.537C-5.74 1.821-4.086.345-2.147 0Z" style="fill:#7b7979;fill-opacity:1;fill-rule:nonzero;stroke:none" transform="matrix(.97174 0 0 -.97174 107.786 1.075)"/><path d="M0 0c0-57.603-46.704-104.319-104.319-104.319-57.599 0-104.311 46.716-104.311 104.319 0 57.612 46.712 104.316 104.311 104.316C-46.704 104.316 0 57.612 0 0" style="fill:#fff;fill-opacity:1;fill-rule:nonzero;stroke:none" transform="matrix(.97174 0 0 -.97174 207.573 104.708)"/><path d="M0 0v.008C.032.034.017.022 0 0" style="fill:#231f20;fill-opacity:1;fill-rule:nonzero;stroke:none" transform="matrix(.97174 0 0 -.97174 161.596 175.252)"/><path d="M0 0v.008C.032.034.017.022 0 0Z" style="fill:none;stroke:#fff;stroke-width:.1;stroke-linecap:butt;stroke-linejoin:miter;stroke-miterlimit:4;stroke-dasharray:none;stroke-opacity:1" transform="matrix(.97174 0 0 -.97174 161.596 175.252)"/><path d="M0 0h-.025Z" style="fill:#231f20;fill-opacity:1;fill-rule:nonzero;stroke:none" transform="matrix(.97174 0 0 -.97174 161.596 175.252)"/><path d="M0 0h-.025Z" style="fill:none;stroke:#fff;stroke-width:.1;stroke-linecap:butt;stroke-linejoin:miter;stroke-miterlimit:4;stroke-dasharray:none;stroke-opacity:1" transform="matrix(.97174 0 0 -.97174 161.596 175.252)"/><path d="M0 0c-.241.858-.751 1.507-1.425 1.884-.61.33-1.351.395-2.058.19C-4.862 1.662-4.959.517-5.062-.505c-.075-.908-.151-1.678-1.001-1.937-.334-.097-.659-.071-.94.085-.28.155-.499.443-.604.808-.158.535.023.979.582 1.405l.416.327-.587.135-1.081.02-.083-.109c-.236-.594-.247-1.18-.039-1.887.444-1.534 1.656-2.287 2.992-1.906 1.493.45 1.613 1.638 1.714 2.675C-3.613 0-3.53.742-2.71.99c.419.116.817.078 1.153-.1.316-.179.552-.47.666-.87.282-.983-.305-1.635-.565-1.873l-.416-.364.601-.086 1.108.082.076.101C.113-1.6.29-.955 0 0" style="fill:#231f20;fill-opacity:1;fill-rule:nonzero;stroke:none" transform="matrix(.97174 0 0 -.97174 29.92 129.238)"/><path d="M0 0c-1.503.373-2.216-.578-2.835-1.429-.522-.707-.967-1.32-1.788-1.102-.414.1-.748.326-.948.652-.176.318-.221.688-.124 1.107C-5.44.237-4.524.493-4.253.54l.542.108-.487.385-.985.482-.116-.046c-.416-.316-.917-.789-1.155-1.776-.228-.869-.128-1.681.266-2.341.357-.606.955-1.037 1.667-1.219 1.403-.354 2.073.59 2.667 1.413.53.746.99 1.379 1.868 1.157.698-.179 1.048-.823.867-1.545-.132-.54-.531-.835-1.211-.917l-.55-.057.47-.42.903-.575.138.058c.499.381.815.882 1 1.6C2.008-1.6 1.35-.342 0 0" style="fill:#231f20;fill-opacity:1;fill-rule:nonzero;stroke:none" transform="matrix(.97174 0 0 -.97174 188.568 127.672)"/><path d="m0 0-.029.202-.359 2.033-.268 2.229-.216-.047-.301-.071-.565-.026.068-.229c.235-.66.435-1.944.559-2.814a81.953 81.953 0 0 1-1.504-.232l-.503-.084s-.68-.093-.932-.134c-.037.324-.303 2.773-.303 2.773l-.233-.048-.301-.073-.53-.029.037-.219s.421-2.211.465-2.516C-5.12.664-6.202.501-6.202.501l-.875-.099s-.21-.027-.377-.037c-.027.297-.221 2.191-.221 2.191l-.062.807-.525-.118-.522-.025.017-.21.354-1.996.258-2.208 3.087.551 1.936.276z" style="fill:#231f20;fill-opacity:1;fill-rule:nonzero;stroke:none" transform="matrix(.97174 0 0 -.97174 26.982 119.437)"/><path d="M0 0c-2.215-.069-3.51.952-3.577 2.838-.04.831.212 1.563.692 2.087.588.627 1.481.948 2.668.992 2.207.08 3.503-.953 3.569-2.836C3.425 1.195 2.198.083 0 0m4.144 3.101c-.041 1.378-.503 2.503-1.331 3.271-.77.729-1.84 1.085-3.086 1.037-1.241-.048-2.284-.472-3.008-1.254-.767-.836-1.146-1.985-1.088-3.356.039-1.359.505-2.48 1.325-3.247.786-.725 1.864-1.08 3.093-1.035C1.292-1.45 2.34-1.01 3.058-.24c.765.837 1.144 1.992 1.086 3.341" style="fill:#231f20;fill-opacity:1;fill-rule:nonzero;stroke:none" transform="matrix(.97174 0 0 -.97174 21.66 107.386)"/><path d="m0 0-4.84 1.016-.012-.254.006-.286a95.996 95.996 0 0 0-.198-.648l.24-.023c.428-.014 1.495-.184 3.651-.54 1.398-.223 3.522-.573 3.157-2.862-.128-.747-.398-1.264-.837-1.572-.763-.552-1.93-.36-2.891-.199l-4.015.804-.032-.23-.017-.451-.204-.748.206-.039.307-.045 2.607-.373 1.773-.342c2.323-.381 3.573.517 3.959 2.83C3.215-1.863 2.138-.379 0 0" style="fill:#231f20;fill-opacity:1;fill-rule:nonzero;stroke:none" transform="matrix(.97174 0 0 -.97174 23.74 86.16)"/><path d="m0 0-.309.05a4.511 4.511 0 0 0-.236.137L-.761.3l-.08-.232-.835-2.815c-.132.043-3.969 1.348-3.969 1.348L-8.588-.282l-.062-.212-.115-.521-.322-.668.21-.079.149-.046 2.649-.831 1.86-.644 2.948-1.119.062.186.63 2.003.808 2.16z" style="fill:#231f20;fill-opacity:1;fill-rule:nonzero;stroke:none" transform="matrix(.97174 0 0 -.97174 30.263 74.523)"/><path d="m0 0-2.549 1.456-1.676 1.029-2.297 1.506-.34.234-.1-.21-.236-.476c0 .009-.318-.409-.318-.409l-.134-.181.181-.11.184-.104 2.377-1.366L-3.246.351l2.295-1.517.357-.224.321.679.448.591z" style="fill:#231f20;fill-opacity:1;fill-rule:nonzero;stroke:none" transform="matrix(.97174 0 0 -.97174 37.24 60.497)"/><path d="m0 0-2.952 2.752-.137-.207-.163-.269c-.008-.009-.434-.38-.434-.38l.167-.159S.12-1.249.747-1.768c-.838-.044-7.333-.367-7.333-.367l-.688-.031-.307-.343 2.313-1.903.194-.161c1.159-.983 3.27-2.97 3.612-3.362l.159-.2.359.553.42.381-.171.16-2.977 2.395s-.95.837-1.4 1.218l.418.022 7.741.285.055.061.221.264z" style="fill:#231f20;fill-opacity:1;fill-rule:nonzero;stroke:none" transform="matrix(.97174 0 0 -.97174 42.688 46.492)"/><path d="M0 0c-1.112.919-2.128.365-3.025-.125-.783-.437-1.485-.81-2.173-.246-.268.229-.425.51-.454.816-.023.326.091.659.334.956.458.568 1.082.442 1.485.304l.503-.162-.212.56-.592.908-.126.006c-.631-.129-1.13-.437-1.602-1.02-1.008-1.22-.971-2.639.109-3.542 1.2-.984 2.239-.417 3.169.079.771.406 1.435.77 2.101.214.666-.545.749-1.389.208-2.042-.651-.781-1.525-.655-1.869-.573l-.531.145.261-.561.698-.859.124-.004c.54.113 1.167.334 1.806 1.096C1.326-2.688 1.249-1.031 0 0" style="fill:#231f20;fill-opacity:1;fill-rule:nonzero;stroke:none" transform="matrix(.97174 0 0 -.97174 52.66 38.58)"/><path d="m0 0-1.635 2.446-1.042 1.657s-.895 1.448-1.13 1.853c.269.145 2.157 1.202 2.157 1.202l-.171.195-.194.229-.129.286-.087.209-.194-.099-2.45-1.611-2.693-1.626.339-.428.128-.287.098-.207.194.12s1.588 1.096 1.843 1.288l1.172-1.825 1.057-1.659L-1.142-.98l.579.462c0 .01.682.331.682.331z" style="fill:#231f20;fill-opacity:1;fill-rule:nonzero;stroke:none" transform="matrix(.97174 0 0 -.97174 62.208 35.344)"/><path d="m0 0-1.262 2.649-.788 1.806-1.165 2.927-.202-.107-.466-.254-.707-.232.087-.196 1.254-2.662.789-1.794 1.163-2.941.196.112.474.264.707.23z" style="fill:#231f20;fill-opacity:1;fill-rule:nonzero;stroke:none" transform="matrix(.97174 0 0 -.97174 71.985 29.707)"/><path d="m0 0-.097.247-.967 2.487-.672 1.849c-.002.013-.534 1.616-.685 2.047.293.098 2.358.718 2.358.718l-.12.226-.13.256-.116.547-.202-.063-2.757-1.045-2.992-.992.268-.498.099-.528.227.067s1.776.735 2.07.855c.114-.301.751-2.028.751-2.028l.662-1.837.971-3.007.2.087.464.233.738.174z" style="fill:#231f20;fill-opacity:1;fill-rule:nonzero;stroke:none" transform="matrix(.97174 0 0 -.97174 82.65 25.657)"/><path d="m0 0-.431 4.925-.251-.07-.275-.079-.678-.012.065-.239c.114-.417.257-1.554.538-3.626.128-.967.306-2.285-.336-3.109-.321-.414-.797-.656-1.491-.754-.75-.087-1.329.017-1.745.337-.747.571-.89 1.711-1.027 2.716l-.386 4.087-.233-.038-.435-.114-.775-.023.012-.266.461-2.867.173-1.784c.159-1.176.539-1.973 1.179-2.47.632-.492 1.519-.652 2.688-.506C-.875-3.617.263-2.128 0 0" style="fill:#231f20;fill-opacity:1;fill-rule:nonzero;stroke:none" transform="matrix(.97174 0 0 -.97174 97.066 19.822)"/><path d="M0 0c.316-.025 2.456-.165 2.456-.165l-.02.254-.049.299.096.541-.23.01L-.682.925l-3.164.085.044-.243.041-.296-.096-.531.238-.024s1.931.081 2.249.1c-.002-.327.002-2.17.002-2.17l-.024-1.959-.103-2.594-.033-.56.754.062.741-.078.002.214-.05 2.942.023 1.957S-.02-.327 0 0" style="fill:#231f20;fill-opacity:1;fill-rule:nonzero;stroke:none" transform="matrix(.97174 0 0 -.97174 109.115 15.432)"/><path d="m0 0-1.983.354-2.163.519-.042-.196-.513-2.894-.395-1.921-.568-2.419-.165-.645 2.232-.404 2.197-.525.058.53.157.524-.233.041c-.711.005-2.025.268-2.835.439.059.285.297 1.494.297 1.494l.107.552s.15.623.191.867a318.13 318.13 0 0 0 2.716-.665l.025.235.031.304.157.502-.206.063s-2.218.36-2.534.41c.014.131.247 1.284.247 1.284l.224.934s.042.153.073.286l2.092-.526.836-.244.064.544c0 .006.15.51.15.51z" style="fill:#231f20;fill-opacity:1;fill-rule:nonzero;stroke:none" transform="matrix(.97174 0 0 -.97174 123.22 16.202)"/><path d="M0 0c-.422-1.108-1.016-1.851-1.798-2.205-.651-.286-1.414-.282-2.208.018C-5.75-1.521-6.33.035-5.554 2.107-5.12 3.21-4.521 3.96-3.738 4.313c.64.294 1.404.292 2.18-.012.798-.287 1.375-.79 1.664-1.447C.46 2.079.421 1.13 0 0m1.397 2.735C.938 3.769.018 4.57-1.28 5.046c-1.27.478-2.474.49-3.51.027-.964-.427-1.705-1.285-2.144-2.44A4.679 4.679 0 0 1-7.273.779c.017-.49.131-.966.332-1.409.46-1.028 1.381-1.823 2.662-2.302 1.277-.49 2.488-.502 3.515-.036.981.442 1.713 1.281 2.161 2.452.43 1.161.436 2.284 0 3.251" style="fill:#231f20;fill-opacity:1;fill-rule:nonzero;stroke:none" transform="matrix(.97174 0 0 -.97174 143.432 27.41)"/><path d="m0 0-1.835 1.167-1.82 1.29-.102-.169-1.568-2.49-1.102-1.617-1.841-2.566.661-.361.563-.476.136.169 1.569 2.493s.297.444.437.646c.261-.193 2.386-1.721 2.386-1.721l.126.198.132.269c.006.011.348.396.348.396l-.191.142s-2.053 1.271-2.32 1.429c.118.183.692 1.035.692 1.035l.734 1.073C-2.733.707-.431-.995-.431-.995l.107.183.161.274c.002.011.324.406.324.406z" style="fill:#231f20;fill-opacity:1;fill-rule:nonzero;stroke:none" transform="matrix(.97174 0 0 -.97174 156.326 30.506)"/><path d="m0 0-2.065 2.079-2.126 2.333-.146-.182-.202-.251-.431-.315.154-.173s1.387-1.329 1.613-1.542c-.22-.227-1.54-1.514-1.54-1.514L-6.156-.92l-2.371-2.107.579-.483c0-.014.452-.594.452-.594l.163.142 2.069 2.098L-3.84-.507-2.266.947C-2.058.722-.648-.914-.648-.914l.165.193.182.242.432.302z" style="fill:#231f20;fill-opacity:1;fill-rule:nonzero;stroke:none" transform="matrix(.97174 0 0 -.97174 173.033 45.762)"/><path d="m0 0-.314.43-.307.642-.181-.066-2.495-1.588s-.089-.055-.174-.113c-.093.122-1.158 1.876-1.158 1.876s-.988 1.687-1.095 1.896c.088.06.175.115.175.115l2.759 1.527-.122.183-.326.432-.311.671-.175-.105-.221-.152-2.258-1.441-1.692-.997-2.694-1.488.075-.23.307-.418c-.008-.001.216-.476.216-.476l.085-.199.216.121 2.458 1.562s.471.283.73.434c.067-.118 1.14-1.882 1.14-1.882s.882-1.498 1.102-1.89a42.618 42.618 0 0 0-.719-.422l-2.76-1.538.439-.613.317-.665.196.098 2.477 1.591 1.685 1.003 2.75 1.52z" style="fill:#231f20;fill-opacity:1;fill-rule:nonzero;stroke:none" transform="matrix(.97174 0 0 -.97174 181.856 58.167)"/><path d="m0 0-.806 1.851-.759 2.097-.198-.081-.173-.084-2.506-1.091-1.829-.736-2.566-.938-.39-.144.909-2.067.787-2.124.45.228.542.167-.111.222c-.364.572-.841 1.712-1.193 2.588.259.121 1.395.599 1.395.599l.627.248s.52.191.732.281c.122-.299.943-2.611.943-2.611l.218.098.28.143c-.014-.005.289.076.289.076l.215.056-.078.212s-.924 2.059-1.046 2.355c.146.064 1.201.496 1.201.496l.845.311s.173.063.336.119c.088-.288.709-2.013.709-2.013l.272-.862.49.264.491.144z" style="fill:#231f20;fill-opacity:1;fill-rule:nonzero;stroke:none" transform="matrix(.97174 0 0 -.97174 187.883 70.157)"/><path d="M0 0c-.474-.327-1.708-1.153-2.022-1.383-.01.093-.191.977-.191.977s-.14.767-.169.945C-1.982.444-.555.124 0 0m2.181.354-8.985 2.16.112-.335.129-.369.026-.523.147-.048 3.072-.51c.045-.199.249-1.231.249-1.231s.184-1.062.23-1.351c-.157-.092-.652-.414-.652-.414l-2.15-1.291.039-.161.167-.542.069-.9.263.17L.519-1.23 2.253-.094z" style="fill:#231f20;fill-opacity:1;fill-rule:nonzero;stroke:none" transform="matrix(.97174 0 0 -.97174 190.733 88.25)"/><path d="M0 0c.018-.195.076-.919.076-.919.035-.599-.109-1.59-1.241-1.632-1.225-.038-1.537 1.035-1.617 1.65-.01.109-.01.215-.02.282 0 0 .02.382.035.582l.464.011S-.033-.006 0 0m.517 1.461-2.851-.174-1.969-.076-3.161-.013.033-.221.073-.523-.047-.738h.219l2.936.196s.385.006.641.014c.007-.071.015-.104.002-.159-.967-1.011-2.983-2.574-3.596-2.99l-.086-.062.088-.771-.053-1.089.336.286 3.035 2.612s.299.259.511.434c.24-.912.922-2.153 2.36-2.106.556.02.994.199 1.305.543.436.446.634 1.141.593 2.074L.784-.008l.014 1.494z" style="fill:#231f20;fill-opacity:1;fill-rule:nonzero;stroke:none" transform="matrix(.97174 0 0 -.97174 193.307 101.978)"/><path d="m0 0-.499.159-.059-.231s-.213-1.907-.245-2.225c-.31.055-2.139.313-2.139.313l-1.936.318-3.102.599-.053-.758-.187-.715.206-.04 2.922-.383 1.943-.305s1.67-.289 2.131-.378c-.07-.307-.516-2.408-.516-2.408l.238-.009.31-.002.519-.173.053.21.406 2.914.572 3.112z" style="fill:#231f20;fill-opacity:1;fill-rule:nonzero;stroke:none" transform="matrix(.97174 0 0 -.97174 192.938 114.28)"/><path d="M0 0c-.063-.07-.125-.156-.198-.241a1.083 1.083 0 0 1-.251.004c-.299-.028-.413-.159-.689-.206-.219-.039-.839-.12-1.033-.05-.047.014-.07.038-.119.046l-.143.054c-.105.036-.132.093-.212.144-.144.082-.231.112-.326.226-.095.088-.105.182-.155.302-.021.097-.103.124-.148.206-.033.066-.074.074-.08.132-.023.081-.025.132-.063.21-.006.182-.002.376-.028.547.235.668.719 1.126 1.433 1.173.713.19 1.48-.392 2.092-.528C.427 1.378.268.605 0 0m2.316-.059a.515.515 0 0 0-.112.319c.064.229.316.385.557.419l2.202-.994c.077-.337-.144-.622-.379-.838-.031.004-.058.007-.099.022-.295.171-.441.326-.773.428l-.056.027c-.025.004-.031.012-.043.03l-.775.253c-.026.004-.038-.027-.069-.011-.049.011-.072.031-.134.05-.15.074-.216.156-.319.295m6.158 1.744c.024.066-.039.097-.059.174a.514.514 0 0 0-.049.148.187.187 0 0 1 0 .094l.002.023c0 .112.006.159.018.275.006.051.011.101-.035.132-.08.082-.162.144-.229.206-.245.342-.585.552-1.035.653-1.191.416-.841-.89-1.318-1.476-.071-.012-.13-.023-.203-.004l-.088.024-.601.073c-.056.023-.091.062-.178.09l-.439.069-.136.043c-.033.016-.068 0-.093.004l-.282.098c-.033.011-.054.03-.095.038l-.114.05c-.15.043-.208.109-.356.148-.32.105-.499.167-.827.265-.033.018-.05.003-.076.003l-.145.042c-.074.036-.111.079-.171.118-.121.143-.179.228-.299.372-.179.229-.29.326-.449.551-.18.226-.336.35-.598.474-.175.082-.26.171-.448.222l-.754.167c-.052.019-.081.05-.14.069l-.176.063c-.031.003-.047.027-.078.043-.05.015-.097.039-.153.049-.183.039-.297-.007-.499.008-.144-.004-.225.02-.369.008-.059-.004-.068-.058-.128-.069-.099-.039-.173-.036-.259-.086-.114-.039-.194-.012-.326-.039-.095-.011-.151-.031-.229-.054-.018.004-.027.004-.05.008-.068 0-.144.011-.212-.012-.05.008-.09.016-.128.004-.014.004-.018-.016-.018-.016a1.388 1.388 0 0 1-.248-.078c-.014 0-.033-.008-.052-.008-.088.036-.169-.004-.245-.069-.115-.07-.185-.155-.264-.237-.227-.159-.439-.338-.655-.47-.192-.198-.339-.423-.493-.66a.201.201 0 0 1-.083-.081.162.162 0 0 1-.012-.09c-.549-.955-.773-2.124-.561-3.185.33-1.25 1.279-2.104 2.419-2.593 1.986-1.115 3.627.597 5.491.854.746-.326 1.761-.314 2.014-1.216-.014-.139-.01-.283-.029-.426-.024-.094-.06-.175-.105-.299-.004-.028-.029-.035-.041-.067a.382.382 0 0 1-.014-.081c-.025-.051-.041-.051-.046-.082l-.055-.124c-.007-.066-.034-.09-.06-.136a1.353 1.353 0 0 0-.052-.237c-.019-.108.007-.179-.027-.291l-.123-.369a.546.546 0 0 0-.091-.206.223.223 0 0 1-.029-.093c-.06-.108-.107-.21-.165-.314-.055-.024-.105-.02-.149-.039-.078-.02-.143-.101-.165-.203l-.092-.092a.414.414 0 0 0-.099-.148c-.021-.051-.043-.074-.097-.101-.08-.012.027-.097-.056-.101-.131-.016-.179-.1-.28-.143-.181-.102-.293-.175-.365-.362-.008-.066-.052-.082-.066-.147-.023-.116-.105-.094-.08-.21.059-.225-.134-.291-.211-.517-.012-.031-.033-.054-.045-.077-.033-.082.109-.094.136-.163-.004-.086-.014-.144-.006-.214a.097.097 0 0 0 0-.043c-.05-.124-.114-.252-.173-.376.034-.346.334-.583.486-.866.676-.179 1.65-.77 2.215.077 1.21 1.969 2.047 4.253 2.984 6.45.562 1.371 1.251 2.979 1.321 4.474z" style="fill:#231f20;fill-opacity:1;fill-rule:nonzero;stroke:none" transform="matrix(.97174 0 0 -.97174 75.129 184.41)"/><path d="M0 0c.019.108-.19.256-.313.377.07.369.151.757.208 1.118.042.043.078.055.109.109.017.058-.024.078-.037.132-.061.113-.148.16-.261.202l-.012.023.059-.008c-.033.008-.049.024-.065.035l-.126.283c-.473.374-1.053.242-1.562.207-.509-.618-.781-1.539-.994-2.291-.503-2.723-1.585-5.398-2.352-7.993a4.01 4.01 0 0 0-.153-.283c-.006-.035-.043-.062-.082-.093a2.899 2.899 0 0 0-.372-.349c-.051-.039-.127-.039-.154-.11-.021-.092.048-.139.035-.228l-.041-.094c-.048-.163-.158-.221-.2-.391-.017-.047-.037-.079-.048-.137-.016-.132.064-.217.096-.319a2.133 2.133 0 0 1-.077-.656c.101-.089.22-.155.326-.232-.064-.094-.167-.152-.007-.273.083-.061.085-.163.182-.189.171-.059.272.003.446-.012.071.012.108-.016.183-.027.066-.012.097.027.167.042a2.094 2.094 0 0 1 1.357.152c.374 1.153 1.093 2.252 1.352 3.444.004.02.01.028.022.042.051.102.057.168.102.269.018.027.039.043.041.065l.081.257c.024.039.041.055.057.093a.534.534 0 0 1 .054.19.43.43 0 0 0 .011.079c.018.124.086.174.104.306.004.028-.01.055-.004.093l.208.652c.046.145.054.238.085.385l.076.218c.019.031-.004.054-.002.077l.462.937c.075.216.12.345.157.582.043.291.136.404.227.683l.013.085c.018.012.006.039.01.067l.028.07c.011.019-.01.046-.006.065l.037.086c.064.191-.014.311.017.517.016.085.047.136.072.232.021.051.066.071.074.124.066.094.076.152.097.253.025.035.048.051.066.097l.018.058c.003.02-.002.04 0 .059l.092.342c.065.132.053.228.098.356L0-.055C.013-.031-.004-.023 0 0" style="fill:#231f20;fill-opacity:1;fill-rule:nonzero;stroke:none" transform="matrix(.97174 0 0 -.97174 87.225 184.645)"/><path d="M0 0a1.766 1.766 0 0 1-.229.334C-.397.521-.543.652-.8.66L-.852.656c-.044 0-.054.02-.087.032-.121.015-.191.011-.319.027-.134.012-.194.074-.33.086-.031.004-.072-.008-.118-.02l-.169.012c-.027 0-.047-.012-.074-.02-.109-.003-.167.008-.272.012-.021.008-.052.027-.09.03l-.147-.006c-.042.01-.069.03-.11.038-.105.004-.195.035-.307.039-.043.004-.068-.024-.104-.02-.193-.008-.292-.008-.485-.008-.12.008-.163.102-.289.11L-3.838.96c-.043.008-.049.03-.082.026l-.101.004c-.198.012-.286.098-.469.149-.055.018-.092.01-.141 0-.155.007-.219.057-.368.108-.146.039-.22.105-.373.101l-.12.007a.458.458 0 0 0-.115.032c-.115.015-.186-.012-.297.004-.049.011-.072.031-.115.023-.06.012-.074-.008-.124.004-.056.02-.072.023-.103.035l-.187-.004c-.04.004-.067.03-.108.034-.076-.004-.11-.007-.173-.004-.045.02-.057.028-.1.036-.114.004-.169-.004-.287.007-.018.008-.03.02-.055.02h-.134c-.1.004-.163.039-.284.051-.087.019-.157.035-.233.039-.056.011-.08-.02-.139-.016l-.306.016c-.023-.004-.046.011-.067.022-.045 0-.086.008-.138.016-.086.004-.141-.02-.22-.024l-.357.008c-.101.016-.15-.061-.244-.05-.057-.007-.094.016-.152.028h-.105c-.105.003-.153.042-.26.057-.1-.003-.149-.019-.237.008-.045 0-.06.028-.091.016l-.088.004c-.05.008-.071-.016-.118-.012l-.12.008c-.061 0-.076-.012-.117-.012h-.072c-.035.008-.064-.023-.107-.015-.101-.02-.18-.016-.293-.012-.14.004-.217-.02-.359-.024-.117-.004-.179.02-.291 0-.04-.011-.058-.034-.097-.022-.026 0-.026.007-.043.015-.033 0-.047.007-.076 0-.45-.105-.675-.307-1.138-.291l-.277.011c-.041.008-.043.035-.087.032h-.059c-.11.011-.223.054-.227.147l.025.257c.002.054-.008.057-.027.104.015.202.241.21.416.291.176.071.283.132.477.132l.059-.008c.079-.007.126.004.199.02.088.019.153.008.237.047.148.07.232.136.408.132l.501-.028c.172-.008.262.106.455.09l.448-.019c.023.003.039-.024.073-.024l.521-.015c.041-.016.054.015.08.011l.092-.004c.018-.007.024.016.043.02l.093-.016a.837.837 0 0 0 .084.02l.13-.004c.045-.004.061.015.096.019l.678-.027c.024-.012.053-.031.079-.027l.07-.004.525-.159.084-.004c.033 0 .03-.008.071-.02.036-.008.065.012.102.016.153-.008.235.019.381 0 .11-.004.18.015.26.015l.269-.003c.173-.016.263-.085.45-.109.184-.008.322-.019.495-.043.04-.015.055-.027.089-.031h.087a.75.75 0 0 1 .113-.038l.071.011c.086-.008.146-.05.239-.05l.086-.008c.099.004.14-.031.225-.039l.103-.008c.048 0 .062-.023.107-.023.163-.036.275-.028.442-.051.159-.034.257-.023.42-.062.134-.031.183-.12.316-.132l.089.004c.026-.007.045-.027.073-.023l.155-.02c.035.008.043-.019.083-.007l.072-.016c.103 0 .14-.039.236-.063.187-.045.298-.065.498-.116.103-.035.174-.061.278-.065l.085-.008c.064 0 .109-.039.184-.039.026 0 .032.008.047.012l.105-.004c.023-.008.033.015.066.015.043.004.075-.007.15 0 .094-.003.149-.082.261-.086l.131-.019c.068.008.101.023.159.043.152.027.274.004.404.097.283.182.446.384.467.711-.002.147.01.206-.033.341.006.043-.026.051-.052.078-.035.128-.089.209-.089.342l.007.148c0 .092.061.128.098.205.071.171.112.264.173.443.018.081.048.112.061.179l-.009.081c.008.078.033.128.06.206.053.198.085.303.154.485.033.085.06.144.056.242.014.092-.031.143-.053.228-.064.155-.112.241-.242.33-.091.078-.175.059-.303.102-.117.042-.171.116-.299.128-.13.004-.225.004-.352.031-.153.018-.222.038-.378.05h-.125c-.021.007-.042.031-.063.023l-.113.004c-.037.016-.05.031-.087.027-.228.036-.348.012-.574.051-.238.03-.364.073-.613.085l-.155.012c-.045 0-.063.019-.107.019l-.105.012c-.153-.008-.24.059-.39.128-.123.043-.216.035-.347.082-.102.015-.16.054-.265.069h-.122c-.026-.004-.043.024-.075.028l-.33.011c-.02-.007-.049.028-.082.028h-.177c-.077.004-.113.035-.189.043l-.209.007c-.029.011-.041.027-.076.027l-.53.031c-.118-.008-.198.016-.318.028l-.291.023c-.1-.012-.166.023-.278.031-.014.004-.021-.012-.037-.008a3.16 3.16 0 0 0-.565.027c-.115 0-.171.019-.274.027-.153.031-.295.109-.293.261.014.093.042.132.075.224.022.055.026.125.088.133l.087-.011c.028.003.059.019.084.011.036 0 .056-.015.071-.019l.558-.028c.035 0 .037-.011.056-.019.066-.004.125 0 .202 0 .057-.012.096-.024.165-.031l.111-.004c.025-.008.046-.02.07-.032l.194-.003c.021.007.021-.015.047-.011.631-.039.976-.063 1.615-.082.051.008.072.015.116.015l.332-.015c.016.004.03-.02.057-.02.144-.019.224-.015.367-.027.124-.004.187-.027.315-.046a.302.302 0 0 0 .192-.078c.038-.039.042-.077.085-.109.059-.039.106-.042.198-.07.112-.039.161-.069.283-.077.071-.004.106-.02.187-.023.138-.008.202-.028.35-.055.064-.024.104-.059.206-.07l.077-.007c.033.018.054-.016.09-.016l.065.004c.033-.008.061-.031.086-.031l.629-.024c.015 0 .039.012.064.012l.07.004.928.183.06-.016c.101 0 .143.023.222.047.054.018.094-.008.133.014.082.071.103.137.183.214.055.082.093.12.106.218.018.077.018.12.016.202.008.038-.023.058-.043.109-.013.085-.02.139-.067.217-.018.097-.049.167-.14.198-.28.125-.474.121-.762.229-.244.093-.385.112-.631.167-.265.074-.411.124-.683.155a.9.9 0 0 1-.262.024c-.058-.008-.103-.016-.155-.012-.123.012-.159.101-.283.097l-.092.023c-.024-.015-.031.008-.076.008l-.19.02c-.062-.004-.121-.02-.182-.02-.183.004-.249.14-.42.151l-.161.008a.551.551 0 0 0-.103.032c-.155.007-.245.003-.396.011-.167-.031-.268-.07-.445-.074-.458 0-.726.023-1.184.055-.035-.004-.041.027-.093.031l-.391.012c-.052.008-.075.019-.124.023l-.103.008-.608.143-.06-.003c-.034 0-.048.019-.081.031l-.146.004c-.136.015-.194.046-.326.042l-.169.008c-.025-.004-.051.027-.08.023l-.138.012c-.023 0-.039.015-.071.015l-.078.012c-.097-.004-.148.023-.248.047a.975.975 0 0 1-.23.027c-.139 0-.233-.023-.392-.011-.066-.004-.095.007-.165.026-.085.012-.134-.023-.205-.008a1.9 1.9 0 0 1-.589.063c-.321.015-.505.023-.823.043-.081-.004-.152-.008-.247.027l-.604-.094h-.06a1.491 1.491 0 0 1-.499-.065c-.167-.047-.249-.114-.408-.114l-.122.012c-.045-.004-.066-.027-.092-.015-.24-.012-.389.027-.623.019-.214-.019-.328-.085-.538-.132-.179-.039-.275-.043-.464-.077-.19-.035-.285-.082-.485-.101a.857.857 0 0 1-.357-.085c-.058-.024-.093-.067-.158-.079l-.077.008c-.171.012-.278-.047-.422-.128-.065-.035-.12-.047-.178-.09-.095-.127-.183-.178-.28-.306-.064-.085-.12-.14-.116-.248 0-.098.081-.144.159-.206.128-.063.179-.148.323-.214.081-.05.151-.043.208-.116.129-.136.25-.179.428-.222.097-.023.181-.035.281-.05.024-.008.043-.031.077-.035.077-.004.126.035.21.043.203.05.306.128.521.163.047.015.072.058.133.05l.061.004c.036 0 .051.019.069.015l.069-.003c.078 0 .115.031.202.023l.069-.008c.055.012.092.016.135.035.122.032.193.032.325.051.25.058.4.038.654.054.186-.004.287-.008.493.004.299.023.482.07.776.135.152.028.24.055.393.063.12-.012.231-.051.271-.163.014-.031-.007-.074-.017-.12.012-.074.021-.125.017-.214 0-.105-.094-.136-.174-.179-.154-.069-.243-.12-.392-.155-.186-.047-.286-.055-.451-.074-.066-.011-.116-.027-.191-.019l-.061-.004c-.037 0-.053-.008-.097-.015l-.093.007c-.082-.007-.117-.035-.187-.035l-.067.016a.232.232 0 0 0-.094-.031c-.191.004-.305.031-.489.007-.028-.003-.062-.007-.085 0l-.432.016c-.303.012-.468-.144-.77-.128-.08.004-.125-.004-.207-.012-.033.004-.049-.015-.079-.011h-.06c-.026-.004-.039-.008-.053-.008l-.079.004c-.08 0-.122-.043-.208-.031l-.067-.004c-.067 0-.092-.036-.164-.016l-.056-.012c-.105.012-.155-.027-.263-.035a1.86 1.86 0 0 1-.389-.089c-.107-.023-.146-.096-.261-.094-.056.012-.073-.01-.132-.026-.056-.008-.091-.004-.114-.051-.051-.047-.069-.1-.12-.155a1.187 1.187 0 0 1-.21-.322.581.581 0 0 1-.065-.195c-.002-.05.014-.062.022-.092-.006-.098-.083-.141-.081-.242-.01-.031.009-.054.026-.088.068-.106.121-.149.216-.234.062-.054.078-.112.116-.175.07-.096.131-.112.204-.155.117-.078.189-.112.303-.116l.144-.016c.368-.008.561.132.909.256.1.028.131.078.227.102.149.034.217.053.361.089.154.043.245.093.417.093.103-.004.146-.039.246-.054.067-.012.094-.008.164-.012a.224.224 0 0 0 .089.023l.085-.007c.034.003.047.019.086.019h.061c.077-.004.128.034.217.024h.062c.039 0 .057.01.095.007h.076l.835.144c.079-.027.12.012.202.004.109-.004.163.012.262.014l.487-.022c.018-.004.028.022.047.016.163.004.234-.016.39-.024.035-.004.041.02.068.02.425 0 .639-.012 1.061-.047.065.004.1-.02.167-.028.491-.042.76-.054 1.254-.081.07-.007.122.011.198.015.029.004.048.02.073.02.188-.02.298.011.472.031.033-.008.066.015.109.012h.077c.037-.004.047.007.094.019.151-.008.221-.016.372-.023.168-.004.276-.055.445-.074.028.007.047.023.077.023.043-.008.069-.038.112-.038l.112-.012c.105.004.153-.031.262-.039l.127-.012c.027 0 .038-.019.054-.019l.111-.004c.192-.012.281-.081.473-.093l.136-.019c.033.003.045-.016.083-.012l.156-.008c.111-.008.162-.047.272-.055.23 0 .371.008.607-.004.051-.003.075-.042.124-.042h.055c.027-.011.055-.023.07-.027l.245-.016c.08.004.103-.058.137-.113.051-.081.098-.104.117-.201-.003-.027-.009-.051-.009-.078-.016-.073-.059-.097-.096-.155-.095-.206-.318-.233-.555-.233a1.24 1.24 0 0 0-.227.011c-.169.019-.25.086-.431.105l-.227-.003c-.212.015-.311.088-.5.143-.077.012-.125-.004-.225.02-.038.011-.069.023-.138.035-.085.008-.12.008-.202.026-.036.004-.03.012-.091.02l-.135.011c-.024-.007-.042.016-.059.02l-.394.019c-.047 0-.037.024-.072.028-.023-.012-.043-.028-.085-.02l-.977.032c-.033.003-.046.035-.081.027l-.197.019c-.002-.011-.019.019-.049.015-.094 0-.161-.004-.257.012-.026.008-.047.027-.073.027-.126.02-.199.004-.336-.008-.098-.004-.165.02-.283.028-.029-.008-.069-.032-.104-.024-.122.004-.189.02-.311.016-.033.004-.062-.024-.115-.016l-.227.008c-.058 0-.093-.016-.172-.016l-.295.012c-.041.004-.045-.012-.075-.019-.176 0-.283 0-.456.007-.076.008-.117-.004-.186-.007-.241.003-.387.031-.621.015-.032-.004-.043-.023-.063-.015l-.066.003-.549-.081-.057.012-1.393-.194h-.074a.137.137 0 0 1-.061-.024h-.171c-.021.008-.024.004-.04-.004-.117 0-.169.004-.302.004a4.492 4.492 0 0 1-.805-.143c-.083-.016-.154-.028-.258-.055-.055-.016-.074-.035-.13-.046-.169.007-.253-.031-.422-.023-.348.011-.547.026-.891.026a.853.853 0 0 1-.561-.178c-.061-.05-.138-.078-.144-.159.004-.043.028-.058.03-.105-.016-.156.065-.24.114-.388.021-.09-.016-.156.01-.226.062-.082.133-.085.184-.167.045-.078.055-.147.072-.237.005-.1.046-.147.05-.244l-.021-.102c0-.084-.056-.116-.112-.174-.069-.081-.071-.136-.09-.221-.023-.07-.06-.098-.066-.175v-.078c-.004-.116-.157-.151-.161-.268-.017-.198.049-.294.066-.481.007-.051.021-.074.011-.124-.011-.086-.051-.121-.057-.218.002-.104.083-.143.12-.253.021-.065 0-.124.045-.181.071-.086.159-.09.254-.156.056-.043.05-.109.128-.136.031-.02.052-.004.091-.02.047-.015.072-.022.117-.05.056-.019.05-.09.114-.124.07-.035.135-.023.225-.054.165-.055.272-.075.443-.117.292-.019.469-.054.763-.066.048.012.078.02.126.02h.154c.043-.004.074.011.108.015.167 0 .249.077.418.109.122.023.191.007.324.035.085.031.134.073.238.112.092.012.143.004.234.043.114.051.173.101.303.136.155.047.243.035.388.066.243.027.389.12.639.097a.51.51 0 0 1 .191 0 .114.114 0 0 0 .054.004l.144.008.52.054.06-.012c.021.012.035.032.068.028l.052.004c.074.004.119.026.181.026l.225-.015c.107.003.171.019.289.007.422-.01.676-.018 1.092-.05.144-.007.225-.101.372-.105.171-.015.292-.03.459-.034.025 0 .038.015.056.015h.109c.042-.003.064.015.099.011.12 0 .2-.038.332-.069.064-.012.112-.02.194-.024l.24-.015c.059-.012.065-.02.123-.035l.726-.012c.068-.012.094-.034.159-.038l.292-.008c.215-.012.343-.027.555-.055.023-.011.031-.035.064-.023l.097-.016c.276-.008.387-.19.652-.228.126-.008.201 0 .33-.024.212-.031.336-.058.537-.163.219-.113.341-.221.591-.26.104-.016.167.003.296-.016.025.004.046-.015.074-.011.05-.004.087-.012.139-.012.092-.015.148-.035.257-.043.108-.019.175-.015.277-.023.071.004.102.02.163.016a.824.824 0 0 1 .346.062c.11.038.173.038.274.101.142.081.172.178.301.275.188.113.239.234.345.42.084.175.245.252.253.454A.535.535 0 0 1 0 0" style="fill:#231f20;fill-opacity:1;fill-rule:nonzero;stroke:none" transform="matrix(.97174 0 0 -.97174 112.78 196.11)"/><path d="M0 0c.002-.05-.014-.093-.012-.147-.008-.008-.011-.024-.011-.042a.117.117 0 0 1 .015-.043c.065-.385.328-.804.566-1.146 1.788-.929 3.648.148 5.254.963.007 0 .017-.008.017 0 .027 0 .047.016.077.027 1.491.311 2.627-.524 3.945-.789.904-.132 2.071-.442 2.758.214.048.063.081.136.128.21.012.012.016.031.026.059.157.33.223.737.033 1.071a7.888 7.888 0 0 0-1.01.004c-.2.143-.365.279-.654.291-.142.016-.216-.038-.342-.05-.1 0-.14 0-.227.012l-.317.128h-.06c-.031.011-.052.031-.082.027-.085.004-.122 0-.196.016-.023.003-.023.003-.049.014L9.735.812c-.041.015-.052.031-.087.031L9.59.854c-.169.004-.252.063-.403.118-.34.108-.529.155-.869.244-.184.058-.282.108-.473.108-.304.016-.444.148-.694.288-.204.14-.345.319-.499.517-.029.046-.031.085-.066.12-.027.054-.065.062-.108.077-.344.412-.709.843-1.29.952-.477-.113-1.001-.221-1.292-.622-.177-.415.207-.764.149-1.222a2.37 2.37 0 0 0-.54-.509c-.043-.02-.094-.008-.13-.035C3.198.843 3.101.773 2.91.781c-.05.004-.081.024-.128.02l-.839.046c-.025 0-.034-.028-.059-.024l-.072.004c-.101.008-.164-.038-.28-.038l-.068.016C1.406.801 1.381.777 1.34.758 1.103.719.99.642.782.548.729.517.648.493.613.467.497.485.387.497.297.517A1.33 1.33 0 0 1 .114.292c-.017-.004-.026 0-.026 0C.043.261-.014.253-.012.198-.029.151-.016.117-.023.07-.01.047.002.031 0 0" style="fill:#231f20;fill-opacity:1;fill-rule:nonzero;stroke:none" transform="matrix(.97174 0 0 -.97174 98.223 185.347)"/><path d="m0 0-.075.202C-.134.365-.35.408-.318.591c.005.054.009.073-.022.124-.017.073-.079.097-.153.112C-.58.858-.65.901-.739.866-.971.808-.906.827-1.112.75a.406.406 0 0 1-.115-.066l-.107-.039C-1.36.629-1.382.61-1.419.591-1.815.45-2.024.357-2.425.226c-.017-.008-.025.003-.051 0l-.548-.21c-.082-.036-.145-.089-.218-.144l-.414-.194c-.134-.047-.792-.252-1.192-.311-.115.191-.235.389-.363.583l.004.019c.016.109.012.182.045.28.028.077.104.12.089.19-.045.082-.115.07-.183.121-.124.131-.198.202-.254.365-.049.081-.054.128-.09.205-.039.171.034.284-.023.424-.014.023-.016.047-.048.054.028.182.056.349.126.5 1.105 1.165 3.289.906 3.837 2.583-.094.311-.261.761-.634.916-.165-.03-.333-.088-.513-.143-.036.047-.104.035-.177.051-.09.023-.15.069-.243.065-.076.008-.111-.022-.191-.026-.087-.02-.143-.012-.228-.039-.16-.067-.24-.132-.401-.191l-.4-.147c-.05-.024-.091 0-.136-.024-.038-.019-.073-.035-.102-.062-.075-.034-.115-.027-.195-.07-.079-.05-.089-.12-.186-.155-.037-.008-.06-.004-.087-.008l-.322-.112c-.055-.019-.073-.07-.123-.113a.623.623 0 0 0-.258-.159c-.085-.024-.117-.024-.199-.051l-.829-.315c-.035-.004-.037-.03-.063-.034l-.1-.039c-.037-.023-.069-.012-.114-.023-.279-.089-.433-.171-.719-.268-.169-.055-.31.019-.481-.047-.099-.035-.159-.054-.246-.104-.024-.004-.041-.035-.067-.051l-.118-.047c-.179-.062-.253-.19-.431-.26-.08-.027-.128-.019-.219-.05l-.09-.036c-.099-.031-.138-.112-.244-.147l-.084-.039c-.042-.02-.056-.038-.116-.05-.28-.109-.317-.353-.568-.528-.116-.086-.205-.113-.297-.23-.081-.065-.051-.171-.089-.279-.015-.051-.085-.063-.062-.116.006-.024.059-.02.092-.024.089-.015.139-.074.176-.155.078-.117.172-.129.311-.159.042-.02.065-.035.089-.039a.81.81 0 0 1 .245-.279c.975-.079 1.47-.634 1.832-1.333-.001-.011-.007-.027-.007-.039-.008-.05-.052-.082-.021-.135.017-.051.087-.039.128-.098a.225.225 0 0 0 .098-.124l-.002-.016c.014-.019.028-.039.043-.05l.063-.209c.021-.055-.004-.106.014-.16.04-.066.09-.07.122-.144l.025-.101c.079-.155-.063-.271.016-.43.036-.09.036-.136.045-.234-.003-.069-.027-.116-.019-.167.029-.051.072-.039.111-.061.095-.094.202-.102.307-.187.089-.082.163-.151.252-.182a1.96 1.96 0 0 1 .742-.603c2.275-.264 4.444 1.076 6.429 2.008.165.287.41.711.093 1.107C.104-.05.049-.02 0 0" style="fill:#231f20;fill-opacity:1;fill-rule:nonzero;stroke:none" transform="matrix(.97174 0 0 -.97174 130.958 187.89)"/><path d="M0 0c-1 3.063-1.733 6.287-3.008 9.203-.718 1.018-.819 2.594-1.928 3.231a1.448 1.448 0 0 1-.797-.066c-.082.012-.148.024-.222-.019l-.218-.078c-.042-.008.033-.008-.002-.023l-.079-.023c-.072-.032.002-.079-.047-.121-.1-.046-.202-.105-.32-.152-.396-.419-.252-.772-.051-1.141-.028-.054-.089-.117-.081-.152.033-.069.063-.1.083-.163.043-.1.033-.167.07-.264l.071-.19c.048-.124-.143-.241-.24-.326-.031-.039-.021-.082-.046-.128-.008-.059-.046-.094-.089-.149-.148-.173-.259-.291-.478-.379a8.447 8.447 0 0 0-.602-.234c-.01.004-.044 0-.052-.019-.688.004-.684.757-1.159 1.021-.587.735-1.505.373-2.163-.019-.397-.264-.426-.539-.309-.839-.043-.109-.033-.201.006-.323.026-.092.069-.143.106-.228.043-.121.049-.179.097-.3.033-.104.111-.151.169-.271.012-.085.002-.148.029-.222.039-.089.123-.105.157-.193l-.118-.152c.039-.086-.006-.136.02-.214.045-.086.102-.097.13-.174l.023-.071c.018-.042.039-.057.059-.104.038-.089.059-.144.091-.23.005-.019-.004-.026.002-.046l.068-.202c.004-.031-.008-.051.015-.074.033-.097.093-.136.121-.228.029-.055.021-.09.053-.144.02-.047.086-.059.127-.102a.393.393 0 0 0 .099-.19l.045-.093c.017-.055.065-.066.079-.132 0 0 .023-.054.035-.097a.574.574 0 0 0 .049-.272c-.004-.047-.029-.086-.006-.139.055-.144.183-.191.244-.334.043-.102-.065-.187-.03-.303.034-.047.077-.055.12-.09a.298.298 0 0 0 .112-.14c.039-.112-.043-.206-.011-.326.013-.031.064-.043.084-.058.061-.042.077-.089.092-.164.032-.069.026-.108.041-.174-.007-.046-.039-.074-.017-.105.035-.096.126-.112.208-.171.069-.062.081-.128.145-.214.057-.069.095-.092.115-.182l.145-.361c.027-.046.012-.078.029-.128.012-.023.03-.023.034-.058l.078-.159c.03-.078.075-.106.096-.183.047-.128.008-.214.055-.346.015-.066.056-.07.081-.124.035-.039.037-.074.051-.117.029-.057.006-.112.031-.171l.075-.22c.082-.214-.188-.366-.147-.599.021-.221-.053-.36.019-.559.028-.043.041-.066.061-.101.046-.144.157-.179.142-.326-.002-.12.038-.183.049-.327.024-.167.012-.275.071-.446.031-.074.079-.096.108-.171.012-.039-.008-.047.014-.089.025-.086.025-.136.056-.213.036-.094.097-.136.126-.23.026-.031.006-.058.026-.104.025-.055.074-.055.122-.071.126-.061.19-.073.322-.104.098-.039.169-.055.253-.067.287-.31.773-.248 1.189-.279.424.326 1.145.338 1.281.979a138.424 138.424 0 0 0-2.771 8.508c-.06.365.248.664.608.734.411.082.809.19 1.218-.097.018-.012.04-.023.045-.039.014-.019.036-.039.057-.077l.085-.245c.051-.109.157-.136.198-.245.01-.058 0-.109.018-.16.029-.077.08-.084.141-.124.036-.035.077-.065.096-.092.052-.086.091-.167.136-.257a.14.14 0 0 0 .023-.066c.036-.19.118-.272.165-.455.02-.046.036-.065.05-.1.059-.12 0-.214.039-.33a.358.358 0 0 1 .065-.136c.023-.074.031-.14.094-.198.152-.124.187-.206.251-.393l.052-.151c.047-.116.029-.187.084-.319l.083-.263c.047-.082.108-.086.183-.14.05-.051.056-.121.097-.183.233-.648.435-1.3.637-1.941-.016-.043-.031-.078-.025-.117-.014-.116.019-.187.008-.311C-3.12.602-3.198.52-3.169.388a1.13 1.13 0 0 1 .07-.248c.093-.249.276-.334.379-.603.029-.061.004-.12.038-.182 0 0 .012-.062.028-.082a.416.416 0 0 1 .095-.194.208.208 0 0 1 .048-.016.564.564 0 0 0 .045-.135c.594-1.208 1.564.039 2.344.086.353.271.018.664.122.986" style="fill:#231f20;fill-opacity:1;fill-rule:nonzero;stroke:none" transform="matrix(.97174 0 0 -.97174 141.753 190.52)"/><path d="M0 0v.008C.037.031.021.023 0 0M0 0l-.025.004L0 0" style="fill:#231f20;fill-opacity:1;fill-rule:nonzero;stroke:none" transform="matrix(.97174 0 0 -.97174 151.247 182.23)"/><path d="m0 0-.018-.023s-.085-.043-.141-.085c-.05-.043-.109-.098-.293-.067l-.212-.008c-.26-.039-.431.051-.647.234 0 0-.085.085-.153.159 0 0-.214.232-.262.303l-.029.039-.062.128-.043.143s-.027.256-.023.276c-.037.089-.045.26.038.349 0 0 .084.144.105.175 0 0 .577.202.639.183l.509-.415C-.175 1.095.26.804.05.085Zm1.971-.078-.01.198-.044.404s-.123.33-.134.377c.021.532-.175.979-.575 1.343l-.07.133-.184.271-.181.14s-.29.241-.373.295l-.167.133-.421.263-.367.04-.191.077s-.167.062-.151.058l-.225.012s-.243.016-.292.039c0 0-.17.105-.17.116 0 0-.934.077-.973.089 0 0-.078.043-.183.031 0 0-.163-.011-.201-.003-.076.011-.076.011-.105-.008l-.053-.117-.025-.007s-.288-.097-.307-.113l-.206-.031-.343-.222s-.07-.081-.144-.147l-.457-.711-.028-.038s-.117-.455-.107-.501l-.028-.171s-.011-.059.002-.121c-.013-1.219.979-2.193 1.729-2.897 1.05-.87 2.483-1.122 3.898-.64 0 0 .195.202.309.279 0 0 .111.148.126.214 0 0 .474.855.493.877l.146.167c.033.047.033.098.012.171" style="fill:#231f20;fill-opacity:1;fill-rule:nonzero;stroke:none" transform="matrix(.97174 0 0 -.97174 60.551 169.211)"/><path d="M0 0a.132.132 0 0 0 .009.043C-.478.87-1.202 1.247-1.913 1.611l-1.388.89c-.029.02-.905.454-.905.454l-.114.078a1.655 1.655 0 0 1-.177.063c-.513.174-1.058.368-1.299.749-.089.089-.248.182-.248.182l-.121.156c.002.054-.014.174-.014.174-.091.164-.114.225-.104.284a.214.214 0 0 1 .005.039c.065.066.115.128.115.128.006.043.124.131.124.131.101.051.798.234.798.234l.111-.055.367-.035.421-.209c.028-.004.127-.027.127-.027.087.031.18-.078.18-.078.031-.05.761-.408.761-.408l.352-.086.351-.186.247-.132.254-.159c.074-.077.157-.132.157-.132.074-.047.387-.314.387-.314.017-.004.338-.226.338-.226.081-.042.279-.105.279-.105l.321-.143c.106-.07.349-.214.349-.214l.216-.159.137-.105.171-.198.185-.206a.842.842 0 0 1 .221-.159l.119-.051c.085-.097.174-.171.174-.171l.105-.089.057-.062.145-.148.171-.135c.072-.035.332-.256.332-.256.046-.02.378-.312.378-.312.068-.026.237-.17.237-.17.072-.078.16-.16.16-.16l.077-.104c.049-.066.14-.179.14-.179l.191-.221c.062-.031.17-.093.17-.093.064-.074.101-.109.101-.109l.006-.019.202-.071.173-.209c.062-.109.254-.33.254-.33.084-.105.328-.315.328-.315.047-.03.226-.136.226-.136.015-.004.163-.089.163-.089l.133-.101.251-.229c.078-.082.412-.389.412-.389.033-.043.081-.1.081-.1.084-.074.089-.082.089-.082.096-.097.185-.233.185-.233.042-.093.476-.536.476-.536.009 0 .295-.245.295-.245.07-.085.233-.275.233-.275l.207-.21c.063-.085.371-.35.371-.35.272-.232.558-.523.55-.912l-.118-.198a.671.671 0 0 0-.098-.497l-.106-.136c-.035-.051-.084-.051-.16-.039l-.211.004c-.101-.058-.157-.085-.157-.085l-.164.042-.25.206-.194.21-.439.373c-.02.046-.214.205-.214.205-.007 0-.146.102-.146.102-.7.485-1.306.908-1.735 1.743-.029.035-.697.614-.697.614-.32.399-.688.812-1.27.613-.031-.031-.06-.271-.06-.271-.026-.098.256-.54.256-.54l.412-.432a1.19 1.19 0 0 0 .143-.171c.018-.05.591-.578.591-.578l.695-.672.254-.252c.579-.559 1.235-1.188 1.192-2.019l-.002-.012-.032-.14.028-.039c.039-.086.047-.128.034-.163-.074-.078-.173-.12-.34-.1l-.136.046-.377.027-.107-.089-1.539-1.585c-.272-.167-.499-.054-.742.078l-.402.163C.433-6.959-1.864-4.232-4.988-2.128l-.278.222c-.251.24-.573.532-.983.361a.67.67 0 0 1-.397-.475c-.002-.053.112-.189.112-.189.049-.066.223-.222.223-.222.018-.007.002-.09-.002-.12l-.003-.039.093-.147.074-.059c.091-.027.463-.175.463-.175.061-.039.129-.128.129-.128l.102-.108.574-.481.244-.164c.045-.046.124-.113.124-.113.09-.031.107-.065.107-.065.058-.071.348-.308.348-.308.064-.081.92-.8.92-.8.047-.081.198-.135.198-.135.064-.028.196-.097.196-.097.078-.035.103-.094.103-.094l.103-.143c.076-.059.117-.113.117-.113.05-.051.778-.676.778-.676.105-.078.175-.124.175-.124l.18-.132.1-.174.067-.156c.022-.023.346-.319.346-.319l.247-.038c.042-.062.167-.179.167-.179.038-.023.145-.139.145-.139l.309-.397.148-.194c.011-.027.308-.322.308-.322.128-.055.222-.089.222-.089a5.79 5.79 0 0 1 .333-.249l.164-.12c.12-.051.147-.09.147-.09.095-.042.148-.085.148-.085l.138-.086c.112-.046.318-.244.318-.244l.113-.132.079-.117c.276-.244.416-.509.435-.823-.017.003-.099-.132-.099-.132-.285-.392-.633-.87-1.159-.578-.95.12-1.612.768-2.305 1.444l-.893.815-1.448 1.584c-.068.055-.148.086-.148.086a9.981 9.981 0 0 1-.316.295c-.08.082-.138.116-.138.116-.039.039-2.309 1.694-2.309 1.694-1.062.738-2.182 1.499-3.099 2.369-.079.097-.336.385-.336.385a.448.448 0 0 0-.104.12c-.076.061-.117.12-.117.12a.684.684 0 0 0-.167.124c-.118.039-.416.505-.416.505a3.985 3.985 0 0 0-.073.322l.002.012c.009.058-.004.229-.004.229-.025.062-.023.077-.019.093.067.102.163.23.163.23l.436.232.352.121c.056.038.196.116.196.116a.2.2 0 0 0 .159.093c.212-.003.371-.015.488.125a.135.135 0 0 1 .027.077.211.211 0 0 1-.033.152c-.039.082-.034.21-.034.21l.026.147-.033.116c.005.043-.004.074-.002.098.002.012.019.019.019.019.006.039.016.081.02.117a1.5 1.5 0 0 1 .01.058l.019.109a.577.577 0 0 1 .116.093l.268.156.199-.043c.069-.032.168-.063.168-.063l.158-.065c.05-.055.163-.106.163-.106.074-.047.297-.194.297-.194.023-.008.398-.046.398-.046-.002-.012 1.347-.823 1.347-.823.018 0 .959-.49.959-.49l.187-.155.233-.175c.085-.054.184-.132.184-.132.07-.023.123-.07.123-.07.008-.015.716-.431.716-.431.002.011.602-.509.602-.509.008 0 .157-.112.157-.112.121-.004.152-.024.152-.024l.31-.264c.082-.035.377-.291.377-.291l.466-.357c.101-.055.192-.132.192-.132l.144-.101.295-.221c.037-.016.196-.198.196-.198l.165-.214c.097-.093.113-.105.113-.105.048-.054.359-.322.359-.322l.312-.272.105-.132c.078-.081.162-.159.162-.159l.204-.249.163-.202.763-.648c.05-.008.275.186.275.186l.218.186c-.14.63-.618 1.033-1.062 1.434l-.79.799C-.998-1.849-2.563-.602-4.113.385l-.52.275c-.056.028-.666.287-.666.287l-.212.086-.287.105c-.076.015-.266.039-.266.039l-.282.039-.11.055c-.068.045-.157.077-.157.077-.099.058-.162.1-.162.1-.114.074-.176.11-.176.11-.006 0-.249.228-.249.228-.06.086-.081.133-.081.133-.065.065-.148.217-.148.217l.002.178c.013.09.017.21.017.21l.022.132a.465.465 0 0 0 .159.132c.082.039.155.078.155.078.109.051.177.043.177.043.107-.019.278.004.278.004l.264.023.54-.148.129-.081.245-.109c.037-.031.556-.217.556-.217l.326-.14.603-.28.23-.105c.008-.007.256-.143.256-.143l.375-.187c.072-.078.157-.139.157-.139.062-.032.149-.106.149-.106l.205-.116c.044-.016.271-.136.271-.136.082-.058.156-.089.156-.089l.106-.058.305-.272c.008 0 .61-.408.61-.408.081-.062.128-.104.128-.104l.157-.118.183-.124.151-.108.15-.082A.43.43 0 0 1 0 0" style="fill:#231f20;fill-opacity:1;fill-rule:nonzero;stroke:none" transform="matrix(.97174 0 0 -.97174 56.257 171.981)"/><path d="M0 0c.037.016.045.012 0 0" style="fill:#231f20;fill-opacity:1;fill-rule:nonzero;stroke:none" transform="matrix(.97174 0 0 -.97174 38.94 161.415)"/><path d="M0 0Zm2.538 3.658.145.012c.105-.051.344-.086.344-.086l.264-.027c.091-.027.324-.334.324-.334l.068-.244c.006-.128-.006-.226-.006-.226-.002-.609-.207-1.036-.429-1.476L2.951.556c.01.018-.652-.902-.652-.902L.903-2.509c.05-.1.167-.124.167-.124l.201-.466.096-.113.047-.019c-.006-.039.034-.547.034-.547l.27-.696.051-.135.252-.525.089-.12c.066-.078.129-.179.129-.179.052-.109.07-.159.07-.159l.069-.19.06-.159c.014-.079.084-.234.084-.234.099-.139.247-.179.439-.069.019.015.19.217.19.217l.254.303c.065.097.105.152.105.152.051.057.099.104.099.104l.117.105.099.109c.087.073.216.268.216.268l.065.147.068.187.304.42c.038.085.246.372.246.372l.198.147c.058.059.216.141.216.141l.384.45c.062.023.332.24.332.24l.311.241c.103.07.225.144.225.144.017.023.12.151.12.151s.094.132.095.14c-.003-.02.14-.02.14-.02a.883.883 0 0 1 .194.098c.037.024.222.093.222.093.081-.028.131-.042.131-.042.008 0 .197-.098.197-.098l.344-.385.24-.306c-.07-.028-.113-.093-.113-.093.189-.563-.093-1.057-.345-1.534l-.338-.715a2338.4 2338.4 0 0 0-2.338-2.547L2.59-10.311a15.927 15.927 0 0 0-4.151-3.242c0 .039-.321.338-.321.338-.499.411-1.009.859-.996 1.484 0 0 .076.458.076.469.019.14.353.641.353.641l.144.12c.017.02.019.043.023.051.006.051-.021.094-.036.155-.024.02-.024.027-.02.035.004.035.056.047.056.047.082.02.156.034.156.034l.411.145.074.057.315.132.367.145c.091.038.409.201.409.201l.092.171.054.094.109.104.202.187.266.139c.002.012.149.283.149.283 0-.01.02.075.082.09l.149.124c.08.051.686.478.686.478-.346.408-.571.85-.783 1.259-.312.636-.625 1.226-1.35 1.354-.069-.014-.5-.586-.5-.586-.662-.866-1.406-1.841-2.54-2.1-.513.267-1.221.617-1.251 1.297l-.06.167-.023.151c0 .112-.011.155-.011.155l.011.132.099.163.086.132.208.28.087.124c.04.055.173.21.173.21l.168.128.427.381.135.116.469.202c.103.085.177.183.177.183l.116.116c.004.012.292.14.292.14l.107.09a.982.982 0 0 0 .134.139c.019.124.06.175.06.175l.134.101.132.139.167.132.215.187c.055.043.307.388.307.388.019.089.051.167.051.167.103.089.238.214.238.214l.137.182.102.129c.063.085.206.256.206.256l.134.268.091.244.179.369.006.051c.014.031.062.182.062.182l-.01.121c.004.012.012.016.014.031.111.07.208.148.208.148C-.047-.035 0 0 0 0l.196.241c0 .011.002.019.002.019.031.225-.002.512-.439.587C-.286.843-1.305.668-1.305.668-1.926.629-2.573.59-3.043-.047c.027.027-.697-.085-.697-.085-.835-.117-1.697-.233-2.421-.811.012.011-1.355-.579-1.355-.579-.767-.412-1.505-.789-2.334-.629-.309.085-.408.334-.509.632l-.318.56c-.002.163.006.314.023.462.031.202.091.389.169.54l.124.38c.029.094.043.182.043.182a.627.627 0 0 0 .093.114l.181.089.151.062c.091.054.245.116.245.116l.146.075.087.038.207.031.309.074.15.058c.093.058.202.093.202.093.112.032.298.109.298.109l.36.14.21-.02h.285l.227.105.27.132s.048.101.076.113l.276-.028c.04-.004.462-.01.462-.01l.314.139.229.12.315.074.165.039.281.097c.099.023.22.042.22.042l.295.059.161.082.472.167.21-.004.378.034c-.007.004.154.059.154.059l.192.062c.134.038.18.077.18.077.117.059.138.075.138.075l.194.061c.014 0 .162.012.162.012l.231.015c.044.02.114.043.114.043.09-.046.247-.112.247-.112l.367.155c.029.02.116.085.116.085l.028.028-.004.143.002.02c.019-.047.223-.078.223-.078l.19.031.217.031c.066-.012.818.171.818.171l.258.035.095.035.253-.086.503.024.221.031c.085.008.458.012.458.012.006-.004.224-.016.224-.016" style="fill:#231f20;fill-opacity:1;fill-rule:nonzero;stroke:none" transform="matrix(.97174 0 0 -.97174 38.335 153.464)"/><path d="M0 0c-.668.766-.19.816-.19.816 10.477-5.902 11.102-22.163 11.102-22.163 16.952 15.87 11.565 32.501 11.565 32.501.174 1.038.007 1.899-.301 2.582-.66 1.419-1.941 2.084-1.941 2.084l-.784-.469c-.167.091-.351.181-.511.276-.835-.165-1.426.635-2.22.559-.962-.265-1.387.553-2.282.513-.82 1.072-2.072 1.175-3.276 1.359-.425 1.195-1.535-.062-2.087.743-1.638.102-3.225.338-4.939.185l-.167.153c-1.495-.104-2.649.819-4.069.941-1.077.624-2.564.436-3.819.677-.617-.667-1.586-.068-2.279-.3-.946.12-2.256-.176-3.109-.47-1.045.55-2.114.019-3.208.431l-1.304-.124c-1.211.105-2.315.94-3.443.105-.827.221-1.87.045-2.497-.577-1.019-.009-1.846-.774-2.865-.346-.853-.47-2.064-.287-2.866-.83-1.362-.037-2.631-.713-3.861-1.21-1.085-1.174-2.706.048-3.541-1.482-1.806-.299-3.318-.572-4.379-1.992-1.011.246-1.646-.759-2.491-.746-.708-.707-1.669-.888-2.539-1.306-.367-.637-1.152-.84-1.713-1.307-.794-.122-1.32-.903-2.071-1.053-.201-.664-.995-.388-1.237-1.011-.233-.572-1.136-1.046-1.245-1.708-.885-.121-1.287-1.304-1.947-1.923-.325-.323-.909-.426-.952-.893-.827-.255-.726-1.362-1.411-1.809-1.255-.677-2.006-1.726-3.327-2.316-.283-.237-.174-.857-.685-.951-.617-1.054-1.093-1.903-1.728-2.941-.711-.664-1.755-.809-2.324-1.545-1.177-.702-1.419-2.267-2.547-3.05-.418-1.32-1.622-1.741-2.065-3.016-1.077-.234-.903-1.41-1.302-2.124-.468-.439-.094-1.164-.668-1.469-.035-.604-.261-1.227-.612-1.646.018-.641-.2-1.134-.316-1.696-.236-.58.4-1.073-.026-1.585.602-1.787-1.411-2.695-2.147-3.909-1.027-.488-1.771-1.664-1.887-2.706-.628-.653.442-1.491-.311-2.072.243-.83-.516-.941-.266-1.778.015-.676.418-1.237.842-1.673 1.129-1.174-.366-2.596-.233-3.999-.551-.048-.401-.629-.827-.751-2.514-.533-.811-3.577-2.448-4.892.058-.595-.559-1.196 0-1.746-.276-2.113.919-3.964.66-6.17.668-1.695-.342-3.154.46-4.872-.017-.389.099-.729.334-.87.208-1.346-.209-2.837.142-4.215.918-1.658.192-4.039 1.672-5.519.693-2.021-.336-4.219 1.212-5.767.131-.941.809-1.818.835-2.921.434-.217.199-.865.675-1.001.443-1.033.928-1.966 1.27-3.049l1.079-.579c-.025-.559.375-1.246-.093-1.712.777-.955 1.396-2.016 2.039-3.057.235-.713-.041-1.324-.509-1.797.016-.187.025-.388.041-.602a69.238 69.238 0 0 1 21.114-20.034c1.454-.397 3.108-.159 3.86-1.725.184-.395.576-.159.842-.326.018-.016.043-.034.068-.069a.294.294 0 0 0 .076-.113c.041 0 .058-.007.091-.007a23.11 23.11 0 0 1 2.039-1.446c.025-.019.033-.019.033-.019 2.489-1.242 3.776-.171 3.776-.171 1.086 1.697-3.04 3.627-3.04 3.627-1.446 1.033-4.454 4.618-4.454 4.618-1.412.834-2.523 3.122-2.523 3.122-1.328 1.27-3.392 7.798-3.392 7.798-.468 1.611.167 1.704.167 1.704 5.69-5.673 8.548-6.182 8.548-6.182 1.487-.345.936.769.936.769-5.239 9.855-5.432 17.443-5.432 17.443-.827 17.888 10.435 25.134 10.435 25.134-9.364-18.634 2.992-39.078 5.448-42.814.251-.4.418-.602.418-.602.592-.703.969.377.969.377a32.31 32.31 0 0 0-.777 1.739c-5.079 12.407.484 25.293.484 25.293 1.221 2.619 3.776 10.549 3.776 10.549 5.18 12.526-.443 33.89-.443 33.89 13.72-13.299 9.759-37.358 9.759-37.358 2.223 2.62 3.994 3.76 5.314 4.195 1.898.634 2.849-.193 2.849-.193-1.729 9.55 3.935 20.886 3.935 20.886 4.753 9.744 5.014 18.732 5.014 18.732C4.57-4.595 0 0 0 0" style="fill:#c4161d;fill-opacity:1;fill-rule:nonzero;stroke:none" transform="matrix(.97174 0 0 -.97174 110.163 55.295)"/><path d="M0 0c-5.173-.027-6.418-4.897-4.454-10.144C.977-25.653 11.102-23.91 12.013-17.93c.275 3.034-.067 5.922-.818 8.838C9.356-2.023 2.932.034 0 0" style="fill:#c4161d;fill-opacity:1;fill-rule:nonzero;stroke:none" transform="matrix(.97174 0 0 -.97174 90.42 157.09)"/><path d="M0 0c-1.571-1.464-4.629-1.173-4.905 2.016-.301 3.367 3.157 4.058 3.342 6.9.41 6.58-3.86 5.739-3.86 5.739-6.175-.367-9.843-6.702-8.54-15.874 2.315-16.256 20.286-25.028 20.286-25.028C-1.055-12.869 0 0 0 0" style="fill:#c4161d;fill-opacity:1;fill-rule:nonzero;stroke:none" transform="matrix(.97174 0 0 -.97174 107.436 133.936)"/><path d="M0 0c-.835-12.815 5.848-25.906 8.563-30.15 2.324-3.627 5.347-5.993 7.955-6.92 5.122-1.639 10.586 1.336 10.026 6.76-.645 4.195-6.083 9.18-11.339 13.286C8.471-11.778 0 0 0 0" style="fill:#c4161d;fill-opacity:1;fill-rule:nonzero;stroke:none" transform="matrix(.97174 0 0 -.97174 114.353 135.098)"/><path d="M0 0c.334 11.314 2.438 14.893 7.185 37.341C12.114 60.543-3.693 72.864-3.693 72.864c5.565-7.346 5.18-19.138 5.18-19.138C2.949 37.667-8.731 17.341-8.731 17.341c-11.439-21.22-5.323-42.25-5.323-42.25C-7.503-48.166 2.271-50.62 2.271-50.62c6.785-1.438 9.517 4.17 9.517 4.17 2.924 7.98-2.949 16.547-2.949 16.547C-1.212-14.851 0 0 0 0" style="fill:#c4161d;fill-opacity:1;fill-rule:nonzero;stroke:none" transform="matrix(.97174 0 0 -.97174 135.332 101.335)"/><path d="M0 0s-15.065-11.182-16.527-39.885c0 0-1.47-20.423 10.462-36.234 0 0 .685-.41.852.635 0 0-11.723 24.089 1.487 38.921 0 0-.167-7.303 2.221-12.143 0 0 5.932 7.045 5.248 19.118 0 0-.159 4.75-3.166 11.472 0 0-3.693 8.2-.577 18.116" style="fill:#c4161d;fill-opacity:1;fill-rule:nonzero;stroke:none" transform="matrix(.97174 0 0 -.97174 157.838 46.044)"/><path d="M0 0s3.209-17.157-1.604-29.188c-1.353-3.392-5.773-12.909-4.009-23.79 0 0 1.686-10.368-.334-16.101 0 0 6.273 5.733 8.645 13.732-.851-14.625-8.152-30.776-17.587-39.331 0 0-.792-1.386.402-1.988 0 0 13.685 8.932 22.425 28.783 0 0 4.962 11.342 4.962 22.024 0 0 .16 5.373-.801 9.533-.56 2.554-1.754 9.32-1.154 14.705 0 0-1.946-1.788-3.007-5.385C7.938-27.006 6.333-8.57 0 0" style="fill:#c4161d;fill-opacity:1;fill-rule:nonzero;stroke:none" transform="matrix(.97174 0 0 -.97174 164.632 61.964)"/><path d="M0 0Zm-4.735-5.437Z" style="fill:#231f20;fill-opacity:1;fill-rule:nonzero;stroke:none" transform="matrix(.97174 0 0 -.97174 173.37 150.751)"/><path d="M0 0c-.91.815-1.474 2.33-2.78 2.462a1.559 1.559 0 0 1-.639-.291.653.653 0 0 1-.19-.093c-.065-.043-.082-.09-.144-.132l-.055-.039c-.112-.082-.112-.198-.151-.318a5.469 5.469 0 0 1-.295-.485c.031-.067.066-.136.101-.203-.02-.093-.02-.163-.047-.263-.012-.055-.062-.098-.025-.149.04-.057.097-.065.142-.128.058-.085.041-.159.101-.24.033-.047.066-.062.099-.109l.176-.252c.021-.031.019-.059.043-.094.066-.097.173-.093.243-.189.11-.161.04-.308.101-.494.037-.101.163-.082.184-.186.02-.086.049-.133.057-.218.008-.093.025-.143.034-.233.008-.07-.007-.12.031-.175.022-.026.047-.03.065-.058.031-.043.058-.07.063-.124.006-.043-.01-.074.012-.109.062-.089.148-.081.204-.163.031-.043.027-.07.055-.113.13-.186.314-.19.446-.376.144-.21.112-.388.261-.594a.921.921 0 0 0 .153-.334c.012-.047-.012-.09.018-.128l.135-.471c.05-.073.099-.112.187-.116.13-.008.232.035.338-.051.056-.042.091-.093.163-.085.06.004.081.047.14.047.053.004.035.023.086.008.04-.016.061 0 .094.004.077.008-.068-.106.002-.121.048-.012.083-.035.14-.028.015.004.029.012.045.012.295-.232.609-.501 1.048-.415.654.252 1.43.711 1.611 1.383-.981.947-.537 1.56.098 2.158l.051.039c.02.012.045.004.071.024l.086.058c.141.101.277.046.421.148.044.031.068.05.106.085.068.066.029.078.062.167.024.046.055.074.055.128 0 .05-.015.085-.039.121.289.314.499.656.489 1.071C2.598 2.416 1.357-.458 0 0" style="fill:#231f20;fill-opacity:1;fill-rule:nonzero;stroke:none" transform="matrix(.97174 0 0 -.97174 158.315 167.83)"/><path d="M0 0c-.021.33-.22.373-.406.505A.478.478 0 0 0-.44.552c-.032.039-.271.047-.3.089-.048.07-.073.132-.152.159-.129.039-.212.027-.347.031-.324 0-.513-.027-.82-.128A6.232 6.232 0 0 1-2.819.4C-2.975.334-3.095.346-3.24.245l-.073-.051c-.021-.015-.042-.007-.066-.023l-.095-.069c-.021-.016-.045-.008-.07-.02-.12-.059-.179-.12-.301-.186-.063-.043-.118-.036-.18-.083-.079-.053-.14-.057-.219-.112-.045-.031-.069-.051-.117-.081-.046-.019-.077-.027-.12-.055-.212-.151-.362-.19-.58-.341l-.293-.206c-.029-.024-.055-.016-.081-.032l-.188-.132c-.027-.019-.049-.011-.074-.027l-.128-.093c-.06-.043-.114-.031-.173-.074l-.101-.069c-.082-.059-.141-.07-.223-.124l-.542-.381c-.021-.016-.027-.043-.05-.059-.078-.053-.129-.085-.206-.147-.022-.012-.024-.039-.043-.055a31.499 31.499 0 0 1-2.893-2.011c-.198-.109-.29-.237-.503-.353-.023-.016-.052-.008-.082-.027l-.539-.377c-.082-.058-.119-.113-.188-.179a.304.304 0 0 0-.113-.077c-.06-.035-.066-.09-.121-.128l-.081-.059c-.033-.023-.037-.051-.066-.074a1.518 1.518 0 0 1-.277-.236 10.1 10.1 0 0 1-.48-.493c-.103-.114-.135-.203-.255-.285l-.079-.057c-.041-.028-.049-.063-.09-.09l-.126-.089c-.124-.09-.019-.104-.106-.229-.078-.113-.133-.171-.204-.295-.037-.067-.033-.117-.082-.175-.035-.055-.068-.066-.103-.116-.053-.071-.027-.144-.082-.218-.063-.097-.11-.144-.187-.229-.034-.035-.067-.05-.08-.101-.018-.062.005-.105.023-.167.027-.101.023-.171.085-.26.096-.136.239-.117.404-.113.197 0 .295-.14.492-.12.184.019.281.066.461.12.115.035.201.039.295.097-.002 0-.002 0 .008.008.092.085.108.159.187.256a.553.553 0 0 1 .074.094c.012 0 .021 0 .029.004 1.295.908 2.27 1.731 3.439 2.725.257.366.591.758 1.051.902.133.155.279.295.434.426h.002c.002 0 .006.004.006.004 1.169.983 2.778 1.289 4.1 2.097.453.027.719-.112.899-.346-.04-.061-.085-.116-.126-.193-.069-.155.33-.226.263-.385-.038-.089.11-.027.081-.112-.028-.067-.047-.125-.006-.187l.053-.074c.058-.081.063-.151.073-.256.011-.09.169-.135.135-.214-.034-.1 0 0-.028-.104l.056-.082c.049-.069.025-.132.076-.202.02-.027.041-.034.061-.062.015-.019.009-.039.024-.058.039-.055.418-.462.482-.466.144-.024-.013.074.128.07.099 0 .239-.237.323-.222.918.024 1.353.975 2 1.557-.018.898-.197 1.216-.641 2.008-.167.381-.43.528-.618.797-.124.174-.159.423-.354.504C0 0 .057-.012 0 0" style="fill:#231f20;fill-opacity:1;fill-rule:nonzero;stroke:none" transform="matrix(.97174 0 0 -.97174 163.317 173.604)"/><path d="M0 0c.281.229.562.517.864.664a.841.841 0 0 0 .365-.12c.126-.07.235-.063.315-.175.067-.1-.023-.21.047-.306.038-.059.1-.063.141-.125.024-.031.006-.054.002-.082-.011-.088-.048-.139-.046-.224-.006-.117.029-.202-.026-.3-.12-.209-.24-.299-.421-.454a.857.857 0 0 0-.111-.085c-.024-.016-.048-.012-.075-.031l-.126-.086C.864-1.37.813-1.37.744-1.405c-.051-.02-.078-.047-.123-.071-.065.008-.13.02-.203.039C.072-1.002-.173-.559 0 0m-3.358-1.996.102.074c.027.02.053.016.079.035l.076.054c.038.023.069.016.105.039l.06.047c.109.073.344.151.468.097.057-.028-.013-.109.024-.16l.058-.085c.052-.074.148-.058.126-.151-.043-.179-.056-.253-.011-.439.005-.046-.01-.085.019-.128l.105-.148c.076-.112.023-.186.099-.291.028-.043.071-.039.103-.086.043-.057.035-.112.081-.178.017-.024.047-.027.066-.054l.049-.07c.063-.089.169-.043.277-.07.107-.015.075-.152.177-.19.087-.035.146-.028.239-.035.148-.012.118-.109.246-.094.152-.077.301-.136.458-.19 1.124-.097 2.208.027 3.154.824C3.86-2.02 5.652-.695 4.91 1.061c-.388.788-1.106 1.168-1.504 1.801.278.405.858.47.608 1.083-.136.451-.497.839-1.006.863a7.338 7.338 0 0 0-.971-.761c-.033-.004-.06-.004-.096-.027l-.055-.043c-.024-.016-.045-.008-.067-.02-.071-.054-.108-.089-.184-.132-.031-.019-.056-.012-.085-.035-.061-.042-.112-.073-.163-.104a4.067 4.067 0 0 0-1.012-.315c-.326.684-1.183.563-1.763.556a2.54 2.54 0 0 1-.493-.265.487.487 0 0 1-.309-.077c-.042-.031-.048-.066-.083-.106a1.058 1.058 0 0 1-.248-.407c-.051-.147-.073-.26-.201-.349-.084-.059-.134-.094-.208-.167-.095-.106-.07-.218-.167-.319-.066-.07-.106-.139-.09-.237.002-.027-.022-.051-.003-.077l.048-.07c.067-.093.077-.16.14-.249.07-.101.161-.113.233-.209.043-.063.043-.109.067-.179.052-.14.073-.257-.012-.369-.08-.12-.146-.167-.241-.264-.029-.031-.061-.031-.093-.059C-3.11.47-3.128.428-3.19.381l-.117-.082c-.041-.027-.047-.058-.085-.085a2.257 2.257 0 0 1-.33-.276c-.198-.19-.31-.318-.412-.571a1.437 1.437 0 0 1-.096-.407c-.014-.106.009-.175-.026-.28-.019-.046-.057-.085-.029-.128.029-.039.07-.043.096-.081.053-.078.077-.121.131-.187.103-.121.231-.094.37-.175.114-.066.218-.182.33-.105" style="fill:#231f20;fill-opacity:1;fill-rule:nonzero;stroke:none" transform="matrix(.97174 0 0 -.97174 149.617 174.566)"/><path d="M0 0Zm-4.522-4.959Z" style="fill:#231f20;fill-opacity:1;fill-rule:nonzero;stroke:none" transform="matrix(.97174 0 0 -.97174 172.838 151.125)"/><path d="M0 0zm-4.686-5.385zm.186.483-.136-.192-.153-.202-.008.001-.054-.05-.32-.433-.079-.134-.027-.061c-.004 0-.058-.071-.058-.071l-.048-.096-.022-.039-.046-.068-.025-.063-.008-.01-.159-.263-.234-.511-.039-.127-.07-.157-.048-.062-.03-.07-.013-.022-.46-.674c-.053-.067-.348-.816-.333-.862l.004-.06-.024-.097-.045-.199-.003-.09-.009-.071c.007.004-.05-.111-.05-.111l.002-.135.006-.058-.071-.176-.015-.048-.006-.023-.03-.108a1.326 1.326 0 0 1 .063-.147l.024-.025a.697.697 0 0 1 .032-.056l.288-.556c.134-.096.39-.162.501-.129l.186-.07.183.001.266.017.252.133.093.071.063.03.163.132c.017.022.234.259.234.259l.024.093c-.008-.004-.005.02-.005.02l.76 1.284c.784 1.019.44.884 1.104 2.005.086.332.268 1.164.593 1.376l.014.008.43.712c.24.392.651 1.12 1.465 1.789C.02-2.973.98-1.929 1.331-1.533c.279.097.731.219.939.079l.34-.219c.215-.189-.392.172.213-.71l.451-.263.081-.034.025-.42.128-.148-.128.118.085-.047.07-.342.131-.085.075-.1c.121-.113.122-.217.136-.235.359-.204.094-.093.28-.247.07-.051.304-.526.317-.554.103.004.144.121.223.06l.074-.088.012-.025.055-.14.11.069-.009-.182.023-.011.399-.257.052-.064.152.026.019-.005a.65.65 0 0 1 .065.094c.07-.052-.073-.02-.028-.008l.028.008.271-.001c.006-.007.058.123.078.134.239-.004.82.79.941.978.29.432.25.864-.322 1.878-.289.556-1.003 1.241-1.899 2.075 0 0-.77.729-.779.733-.07.265-.577.371-.815.546-.17.124-.288.189-.48.22l-.006-.003.006.003-.176-.005c-.013.01.044.007.044.007.025-.008-.024.029-.024.029.008-.006-.153-.009-.153-.009l-.106-.017-.023.021-.177.025-.25.022-.065-.01c-.274-.074-.367-.05-.604-.204L.609.77.581.741.469.665.281.505.236.443C.233.451.186.411.186.411S.141.348.136.339L.134.338.119.337.092.311-.022.184-.099.092-.148.054l-.086-.079-.059-.02-.089-.095-.024-.033-.036-.046-.021-.023L-.529-.3l-.374-.348-.175-.143-.077-.049-.035-.138-.166-.05-.437-.414a.328.328 0 0 1-.056-.039l-.069-.097-.05-.043-.095-.04-.066-.083-.143-.144-.326-.439-.027-.059-.045-.053-.089-.131-.009-.043c-.002-.013-.015-.033-.015-.033A21.596 21.596 0 0 1-4.5-4.902" style="fill:#231f20;fill-opacity:1;fill-rule:nonzero;stroke:none" transform="matrix(.97174 0 0 -.97174 172.777 150.482)"/><path d="m0 0-.103.036c-.006 0-.013.005-.02.008-.351.135-.718.308-1.071.164-.076.015-.088.005-.185.014-.13.01-.066-.011-.2-.012-.056-.005-.057-.006-.093-.045-.031-.033-.088-.059-.12-.091-.067-.073-.204-.056-.27-.127-.065-.068-.084-.117-.146-.182-.024-.026-.02-.052-.042-.075-.05-.052-.103-.058-.155-.115-.122-.13-.147-.231-.241-.381-.068-.114-.129-.166-.172-.288-.047-.131-.239-.045-.335-.146-.032-.032-.06-.045-.089-.077-.152-.158-.132-.319-.242-.507-.122-.206-.21-.278-.375-.453l-.157-.164c-.048-.051-.042-.106-.088-.154a.867.867 0 0 0-.089-.085c-.048-.041-.091-.034-.131-.076-.095-.1-.086-.205-.185-.308-.054-.058-.108-.063-.165-.122l-.119-.127c-.019-.017-.045-.017-.061-.034-.034-.036-.04-.069-.073-.104l-.171-.185c-.057-.061.13.004.046-.059-.053-.037.154.138.056.11-.099-.033-.182-.005-.253-.081-.026-.028-.012-.064-.029-.098-.034-.065.131.038.084-.014a.325.325 0 0 0-.158-.106c-.037-.007.088-.096.06-.127-.085-.087-.283-.466-.608-.526-.325-.059-.593-.149-.593-.149l-.063.044-.056.027-.014.01-.082.049-.046.008-.008.006.044-.043c-.158.1-.507-.028-.642.055l-.034.025-.023.008a2.23 2.23 0 0 0-.093.054c-.078.058-.109.302-.109.302l-.266.275-.148.115-.052.007-.003.002c-.097.047-.114.077-.268-.012 0 0-.046-.029-.084-.05-.058.036-.883.488-.928.516-.01.005-.008.026-.008.026l-.067.115-.174.02a.548.548 0 0 1-.328-.189c-.007.004-.021.023-.021.023l-.021-.028c-.043-.002-.315-.039-.315-.039l-.011-.006c-.47-.311-.504-.697-.635-1.151l-.071-.255.017-.027c.396-.716 1.182-1.237 1.803-1.685 1.028-.579.852-.827.874-.889.019-.06-.008-.219-.066-.377-.056-.163-.2-.353-.2-.353s-.269-.518-.758-.37c-.163.051-.163.051-.371.22-.785.644-.601.546-1.36.989-.036.001-.611.114-.611.114-.455.106-.967.218-1.448-.069a3.404 3.404 0 0 1-.015.017c-.071.033-.046-.064-.101-.122.001-.001-.247-.25-.247-.25-.132-.123.004-.013-.076-.177l-.022-.006-.03-.146-.094-.269c-.004-.042-.005-.197-.005-.197l.036-.015.145-.073.096-.044c-.013-.002-.056-.197-.056-.197l.068-.083.202-.197.202-.198c-.003.003.031-.053.031-.053l.212-.129.169-.104.02-.015c.113-.186.301-.355.513-.518l.015-.015.014-.008c.185-.136.384-.275.573-.419l.022-.222.016-.022c.004.003.185-.167.185-.167s.153.007.246-.102c.097-.111.42-.249.42-.249s.061-.085-.023-.159c-.061-.055-.156-.09-.156-.09 0 .008-.048-.153-.048-.153-.026-.076-.086-.124-.086-.124s-.922-1.71-1.144-2.327c-.221-.617-.052-1.4-.034-1.447l-.021.017h.009l.208-.089.28.044.096-.062.056-.066.118.147.178.112.105-.019a.9.9 0 0 0 .055-.022l.009.045.224.136c.02-.007-.054-.14-.028-.14.12.007.329.15.445.19.074.027 0 0 .067.042.032.018.036.044.068.066.044.034.075.049.12.078.068.031.118-.007.181.023.081.046.123-.049.198.01.153.117 0 0 .14.133.199.249.117.155.308.407.033.044.03.08.063.124 0 0 .058.305.085.342.042.056.115.155.132.209l-.003.014.059.112.367.523.134.509.342.37.06.148c.001.002 0 0 0 0l-.004.092c.059.07.193.208.193.208l.163.097.33.538c.05.133.089.237.203.363-.005-.004.128.194.128.194l.016.035.098.131c.01.01.487.675.487.675l.035.047.029.06c.001.008-.005.01-.005.01l.045.052.049.104.04.076.14.19.175.26.213.284.513.67.15.124.18.146.064.079.259.33.012.053.066.094.033.063.012.025.14.252.093.223c.003.001.047.043.047.043l.116.128.342.219.058.051.508.542.29.185.362.39s.053.307.212.488c.093.106.176.085.269.188.158.17.204.299.412.407.236.127.257.324.439.517.083.089.251.004.334.09.025.025.052.03.072.058.034.045.05.075.086.114.077.074.124.117.195.198.081.091.122.146.194.24.033.044.042.081.061.12.037.046.003.008.003.008.007.009.011.019.019.03.032.042.236.24.236.24a.213.213 0 0 0 .016.045l.127.173c-.001.003.325.501.325.501l-.039.485c.019.237-.149.421-.233.616-.01.021-.075.199-.075.199-.024.115-.059.232-.183.325-.006.005-.014.008-.022.012Z" style="fill:#231f20;fill-opacity:1;fill-rule:nonzero;stroke:none" transform="matrix(.97174 0 0 -.97174 184.024 153.647)"/></svg>