<svg xmlns="http://www.w3.org/2000/svg" xml:space="preserve" width="720.79718" height="700" viewBox="0 0 720.79716 700"><path d="M-11.21 560.857c-.595-.497-4.058-3.632-4.438-4.26 2.957-3.167 6.782-6.203 9.796-9.316.863.222 4.458-.047 5.162.552-.296 1.035-2.827 5.875-3.466 6.721-2.625 2.655-4.281 3.844-7.054 6.303zM-114.421 451.93c-3.58-2.851-7.427-6.71-19.114-18.515-.953-.91-2.101-2.702-1.398-4.097.654-1.85 4.025-3.466 5.75-.986 6.195 5.616 14.97 14.043 21.037 19.796-1.41 1.306-4.774 2.64-6.275 3.802z" style="fill:#fff;fill-rule:evenodd;stroke-width:.781811;stroke-linecap:round;stroke-linejoin:round" transform="matrix(4.66667 0 0 -4.66667 650.209 2681.872)"/><path d="M-130.454 574.681c-1.788-.063-3.556-.719-5.048-1.834a.509.509 0 0 1-.306-.137.5.5 0 0 1-.119-.206 9.696 9.696 0 0 1-.87-.815c-1.691-1.818-2.614-4.202-2.528-6.54.03-.878.209-1.716.507-2.495a.5.5 0 0 1-.054-.218c0-.23.155-.415.364-.479a7.026 7.026 0 0 1 1.472-1.969l16.94-15.766c-9.66-12.304-15.43-27.804-15.43-44.628 0-18.837 7.235-36.013 19.069-48.9v-.001h-.001c.231-.25.46-.5.694-.748l.498.476-.498-.479a74.822 74.822 0 0 1 4.279-4.173l-18.199-17.407a2.97 2.97 0 0 0-2.132-.828 2.96 2.96 0 0 0-2.093.922 2.954 2.954 0 0 0-.828 2.133c.018.799.344 1.541.923 2.088l18.05 17.265-.695.75-18.06-17.274a3.983 3.983 0 0 1-1.238-2.807 3.973 3.973 0 0 1 1.112-2.859 3.96 3.96 0 0 1 2.805-1.238 3.986 3.986 0 0 1 2.86 1.11l18.26 17.466.002-.001c12.732-11.126 29.378-17.878 47.572-17.878 16.702 0 32.097 5.69 44.358 15.225l.222.175 10.122-11.217.289.063c.038.009 3.725.756 9.69-4.422.108-.101 3.015-2.793 5.41-2.284.977.207 1.714.889 2.194 2.03l.052.122-.016.134c-.016.11-.18 1.117-1.67 2.855-.026.029-18.794 18.62-19.112 18.935 12.883 13.075 20.845 31.006 20.845 50.767 0 17.15-6 32.923-16.003 45.337h.001l1.862 1.864 4.493.56a.51.51 0 0 1 .301.863l-1.01 1.034c-.252-.216-.525-.452-.774-.668-.205-.175-.387-.333-.524-.452l.766.095c-.23-.03-.486-.062-.766-.096-.327-.04-.671-.083-1.005-.126-.808-.1-1.338-.168-1.528-.192l-9.205 9.485 1.013.917.002.001c.476.43.843.761.984.89.052-.055.175-.179.344-.354.094.22.18.428.27.64l-.269-.641 9.204-9.434c.281-.29.525-.536.714-.732.25.214.522.451.774.67.332.285.62.536.747.642 1.28-.511 7.768-2.77 12.488 1.675 2.785 2.618 3.769 7.555 2.393 12.01-1.137 3.678-3.622 6.08-6.814 6.583-.12.014-2.469.266-6.402.004l-.745-.049c-4.903-.337-11.006-.753-14.056 2.574a.508.508 0 0 1-.85-.528c.083-.225 1.866-4.85 4.148-7.052-1.64-.176-4.563-.351-6.069.4a.507.507 0 0 1-.619-.127.495.495 0 0 1-.12-.327.52.52 0 0 1 .103-.306c.103-.137 2.412-3.167 4.706-4.31l-.06-.145a.537.537 0 0 0 0-.001l-.437-1.041.436 1.04a.48.48 0 0 1-.21-.108l-4.972-4.5h-.001v-.001h-.001c-12.468 10.176-28.38 16.289-45.693 16.289-16.805 0-32.295-5.761-44.594-15.407l-13.204 12.29a.51.51 0 0 1-.509.5c-.008 0-.014-.005-.023-.005l-3.666 3.413c-1.404 1.305-3.291 1.988-5.312 1.913z" style="fill:#231f20;fill-opacity:1;fill-rule:nonzero;stroke:none;stroke-width:2.25101" transform="matrix(4.66667 0 0 -4.66667 650.209 2681.872)"/><path d="M-63.146 570.96c17.014 0 32.654-5.989 44.926-15.96a225.045 225.045 0 0 1 0-.002 72.073 72.073 0 0 0 10.087-9.994c.219-.264.433-.532.644-.795 9.822-12.23 15.708-27.746 15.708-44.615 0-19.582-7.93-37.342-20.743-50.25l.545-.534-.546.532c-.24-.24-.481-.479-.724-.715a71.592 71.592 0 0 0-5.473-4.84 77.299 77.299 0 0 0-.807-.637l-.001.001c-12.07-9.348-27.201-14.92-43.616-14.92-17.904 0-34.289 6.632-46.834 17.565-.257.225-.51.452-.764.68a72.06 72.06 0 0 0-4.284 4.173h.001c-.231.247-.463.494-.694.746-11.658 12.707-18.785 29.637-18.785 48.199 0 16.553 5.668 31.81 15.16 43.93.212.268.427.534.64.797a71.915 71.915 0 0 0 4.995 5.57c.24.244.484.48.725.716a72.782 72.782 0 0 0 5.198 4.617c.266.216.533.43.803.642 12.106 9.452 27.328 15.093 43.84 15.093z" style="fill:#fff;fill-opacity:1;fill-rule:nonzero;stroke:none;stroke-width:2.25101" transform="matrix(4.66667 0 0 -4.66667 650.209 2681.872)"/><path d="M-63.146 547.002c-26.136 0-47.404-21.267-47.404-47.408 0-12.15 4.597-23.244 12.14-31.64h.001a47.484 47.484 0 0 1 5.844-5.502l.743.71c-.27.214-.536.428-.802.646h-.001a46.905 46.905 0 0 0-5.047 4.847 46.219 46.219 0 0 0-11.496 25.25c1.938-5.224 6.882-8.948 12.662-8.948h66.968c5.472 0 10.19 3.338 12.321 8.126-3.175-22.505-22.558-39.874-45.929-39.874-10.816 0-20.78 3.724-28.676 9.952l-.743-.71c8.088-6.42 18.315-10.261 29.42-10.261 26.143 0 47.406 21.267 47.406 47.404 0 26.14-21.263 47.408-47.407 47.408zm0-1.02c24.126 0 44.004-18.512 46.187-42.076-1.99 5.118-6.875 8.745-12.58 8.745h-66.967c-6.028 0-11.145-4.05-12.895-9.629 1.76 23.984 21.832 42.96 46.255 42.96zm-33.36-34.363h32.814c-6.344-1.063-11.197-6.589-11.197-13.229 0-5.59 3.439-10.39 8.31-12.402h-29.927c-6.897 0-12.507 5.747-12.507 12.813 0 7.068 5.61 12.818 12.507 12.818zm37.257 0h29.71c6.895 0 12.505-5.75 12.505-12.818 0-7.066-5.61-12.813-12.504-12.813h-26.827c4.871 2.013 8.308 6.813 8.308 12.402 0 6.64-4.85 12.166-11.192 13.229zm-2.222-.808c6.847 0 12.421-5.57 12.421-12.42 0-6.623-5.209-12.049-11.742-12.403h-1.358c-6.535.354-11.744 5.78-11.744 12.402 0 6.85 5.573 12.421 12.423 12.421z" style="fill:#231f20;fill-opacity:1;fill-rule:nonzero;stroke:none;stroke-width:2.25101" transform="matrix(4.66667 0 0 -4.66667 650.209 2681.872)"/><path d="M-12.313 448.118 6.773 429.21c.977-1.143 1.283-1.893 1.373-2.177-.344-.74-.8-1.175-1.406-1.303-1.567-.335-3.805 1.364-4.534 2.048-5.517 4.788-9.234 4.81-10.278 4.698-.337.37-9.421 10.438-9.711 10.76a73.455 73.455 0 0 1 5.263 4.677l.207.205z" style="fill:#fff;fill-opacity:1;fill-rule:nonzero;stroke:none;stroke-width:2.25101" transform="matrix(4.66667 0 0 -4.66667 650.209 2681.872)"/><path d="M-52.216 451.37a1.458 1.458 0 1 1 0-2.916c.803 0 1.454.654 1.454 1.457 0 .806-.65 1.459-1.454 1.459zM-73.207 451.37a1.456 1.456 0 0 1-1.456-1.459 1.457 1.457 0 1 1 1.456 1.459zM-23.068 454.866a1.46 1.46 0 0 1-1.456-1.459 1.459 1.459 0 0 1 2.916 0c0 .806-.652 1.459-1.46 1.459zM-101.92 454.866a1.459 1.459 0 1 1-.002-2.913 1.459 1.459 0 0 1 .002 2.913z" style="fill:#231f20;fill-opacity:1;fill-rule:nonzero;stroke:none;stroke-width:2.25101" transform="matrix(4.66667 0 0 -4.66667 650.209 2681.872)"/><path d="M-99.831 460.167a6.85 6.85 0 0 1-.925-.053s12.829-11.08 11.953-11.66c-.876-.583-17.49.29-17.49.29 6.413-7.87 18.949-6.413 25.36-6.123 6.413.293 11.66-2.915 11.66-2.915-4.662-2.62-9.035-7.87-9.035-7.87l7.288.293s4.662 7.577 8.453 6.994c3.788-.581 8.452-7.286 8.452-7.286l5.834.585c-1.749 3.496-8.164 7.577-8.164 7.577 1.459 2.042 11.663 4.662 22.155 3.205 10.497-1.456 15.741 6.706 15.741 6.706-4.666-2.04-18.073-2.04-18.073-2.04l11.077 11.951c-10.495.293-11.66-4.956-21.862-11.367-10.204-6.413-16.91-5.54-16.91-5.54-7.579 2.334-13.7 6.413-13.7 6.413-11.13 9.95-19.185 10.852-21.814 10.84zM-7.032 475.563a1.46 1.46 0 0 1-1.459-1.456 1.46 1.46 0 0 1 1.459-1.456c.806 0 1.456.65 1.456 1.456 0 .806-.65 1.456-1.456 1.456zM-117.954 475.563c-.806 0-1.457-.65-1.457-1.456a1.456 1.456 0 1 1 1.456 1.456z" style="fill:#231f20;fill-opacity:1;fill-rule:nonzero;stroke:none;stroke-width:2.25101" transform="matrix(4.66667 0 0 -4.66667 650.209 2681.872)"/><path d="M-12.28 479.645c-9.328-5.828-6.996-23.028-6.996-23.028C-5.865 458.364-.91 473.234-.91 473.234c-5.54-2.625-13.995-9.62-13.995-9.62 2.332 2.914 2.625 16.031 2.625 16.031zM-112.706 479.645s.29-13.117 2.622-16.032c0 0-8.455 6.996-13.995 9.621 0 0 4.957-14.87 18.368-16.617 0 0 2.33 17.2-6.995 23.028zM-1.203 499.177c-7.581-7.582-4.662-20.698-4.662-20.698 8.16 6.416 4.662 20.698 4.662 20.698zM-123.784 499.177s-3.5-14.282 4.662-20.698c0 0 2.915 13.116-4.662 20.698zM-123.32 523.837a.128.128 0 0 1-.082-.015c-.153-.077-.365-.432-.633-1.065l-.545-1.285c2.46-1.043 4.417-2.292 5.87-3.75 1.397-1.387 2.295-2.929 2.695-4.626.295.187.649.391 1.05.603.393.218.751.398 1.075.538-.256 1.012-.796 2.07-1.613 3.174-.682.891-1.375 1.616-2.075 2.18.75-.163 1.798-.132 3.144.09 1.409.235 2.51.587 3.3 1.06a7.27 7.27 0 0 0-.487 1.2c-.157.45-.274.866-.353 1.25-1.001-.803-2.385-1.312-4.148-1.528-1.697-.198-3.084-.067-4.167.392a70.49 70.49 0 0 0-1.371.598c-.39.187-.682.362-.882.516a1.161 1.161 0 0 0-.243.195c-.043.04-.102.109-.185.204-.144.168-.26.258-.35.27zM-15.397 527.462l-1.987-.8 5.965-14.811 1.987.801-2.212 5.488 3.903 1.574a.8.8 0 0 0 .28.058c.07.002.155.002.254-.004.2-.029.303.006.312.106.018.14-.09.493-.317 1.06l-.52 1.288-4.779-1.922-.751 1.863 3.916 1.573c.092.039.185.063.275.074.063.016.147.02.248.012.189.004.286.056.295.155.004.135-.106.485-.336 1.054l-.488 1.213-4.777-1.926z" style="fill:#231f20;fill-opacity:1;fill-rule:nonzero;stroke:none;stroke-width:2.25101" transform="matrix(4.66667 0 0 -4.66667 650.209 2681.872)"/><path d="m-4.781 530.071-1.99-.806 3.838-9.527c-1.173-.473-2.51-.86-4.009-1.166-1.173-.234-2.16-.375-2.967-.425l.782-2.427c1.467.15 2.933.417 4.39.802 1.418.37 3.005.905 4.763 1.612zM-121.032 531.918a.162.162 0 0 1-.085-.031c-.113-.097-.313-.48-.597-1.152l-.524-1.239 5.083-2.149-1.097-2.589 1.91-.806 1.091 2.587 7.699-3.26.956 2.26-13.371 5.66c-.15.065-.297.15-.432.258a1.872 1.872 0 0 0-.284.261c-.138.14-.255.207-.349.2zM-27.554 543.108l-1.474-1.452 6.814-6.933-2.29-2.252 1.72-1.749 3.766 3.699zM-13.107 543.67l-6.863-6.744 1.718-1.751 1.652 1.62 1.476-1.506 1.552 1.524-1.477 1.507 2.665 2.622a2.066 2.066 0 0 0 .69.442c.138.058.233.107.269.15.056.051.072.121.047.209-.029.095-.112.228-.252.401-.146.164-.371.403-.67.71zM-23.752 546.45c-.55-.008-1.013-.197-1.388-.565-.504-.497-.696-1.154-.568-1.98.149-.912.673-1.826 1.585-2.752.932-.952 1.857-1.512 2.782-1.695.83-.164 1.502.007 2.013.514.509.495.68 1.157.522 1.98-.178.91-.734 1.84-1.668 2.787-.907.925-1.806 1.48-2.697 1.66a2.973 2.973 0 0 1-.58.05zm.877-2.1a1.1 1.1 0 0 0 .225-.024c.346-.081.697-.31 1.064-.68.394-.404.64-.784.732-1.149.08-.32.018-.587-.198-.795-.22-.218-.496-.287-.822-.206-.363.083-.743.329-1.146.743-.374.376-.59.738-.648 1.084-.052.322.027.588.24.797.156.15.339.228.553.23zM-103.895 549.874a3.817 3.817 0 0 1-1.158-.238c-1.227-.43-2.589-1.384-4.088-2.858-1.502-1.48-2.474-2.825-2.926-4.045-.415-1.124-.327-1.988.263-2.587.579-.583 1.434-.682 2.573-.293 1.232.421 2.6 1.374 4.102 2.848 1.49 1.468 2.46 2.82 2.91 4.056.408 1.135.324 1.992-.25 2.575-.371.376-.846.557-1.426.542zm-.86-2.086c.219.018.392-.038.52-.168.243-.244.193-.675-.15-1.292-.36-.648-1.023-1.45-1.993-2.405-.964-.947-1.767-1.593-2.411-1.933-.608-.317-1.029-.352-1.272-.108-.257.26-.223.69.103 1.291.358.617 1.022 1.406 1.992 2.36.981.966 1.786 1.625 2.416 1.978.31.167.575.26.795.277zM-98.991 547.862l-11.37-11.195 1.33-1.35 4.82 4.744.466-.473-3.574-3.52 1.154-1.176 7.174 7.069.538-.545-7.178-7.066 2.916-2.96 9.153 9.013-1.165 1.186-7.44-7.325-.604.615 7.224 7.115-2.834 2.877-3.622-3.57-.466.475 4.806 4.734zM-19.024 549.563l-1.272-1.252 3.495-3.556 1.27 1.254zM-22.374 549.79l-1.271-1.25 6.989-7.112 1.269 1.25zM-113.425 551.047l.242-.242-.243.24z" style="fill:#231f20;fill-opacity:1;fill-rule:nonzero;stroke:none;stroke-width:2.25101" transform="matrix(4.66667 0 0 -4.66667 650.209 2681.872)"/><path d="m-116.976 553.159 2.545-2.545a73.04 73.04 0 0 1-1.302-1.343l-.162-.174a73.012 73.012 0 0 1-1.095-1.189c-.208-.231-.41-.469-.615-.703-.213-.243-.429-.483-.638-.73a71.35 71.35 0 0 1-1.205-1.45l-.005-.005-8.525 7.931z" style="fill:#fff;fill-opacity:1;fill-rule:nonzero;stroke:none;stroke-width:2.25101" transform="matrix(4.66667 0 0 -4.66667 650.209 2681.872)"/><path d="M-83.034 555.703c-.137.015-.493-.093-1.06-.324l-1.288-.521 1.932-4.777-1.862-.749-1.582 3.912a1.163 1.163 0 0 0-.074.275.783.783 0 0 0-.01.248c-.007.19-.058.286-.157.295-.133.004-.485-.107-1.054-.339l-1.21-.487 1.93-4.778-3.142-1.269.802-1.987 14.802 5.98-.801 1.99-5.486-2.217-1.578 3.896a.839.839 0 0 0-.059.284c-.004.07-.002.153.005.252.027.2-.009.304-.108.316z" style="fill:#231f20;fill-opacity:1;fill-rule:nonzero;stroke:none;stroke-width:2.25101" transform="matrix(4.66667 0 0 -4.66667 650.209 2681.872)"/><path d="m-14.91 556.613 9.058-9.332c-.283-.283-.852-.851-1.555-1.556h-.001v.002a73.295 73.295 0 0 1-9.25 9.305l1.749 1.581z" style="fill:#fff;fill-opacity:1;fill-rule:nonzero;stroke:none;stroke-width:2.25101" transform="matrix(4.66667 0 0 -4.66667 650.209 2681.872)"/><path d="m-70.292 559.093-.013-1.828 4.285-.035-.01-1.297-2.61.023-.017-2.079 10.138-.083-.031-3.774 2.462-.021.045 5.85-2.59.023.01 1.296 4.273-.035.016 1.827zm6.733-1.884 2.476-.02-.01-1.297-2.478.018zM-35.873 559.961l-5.878-13.838 2.2-.935 2.495 5.876 1.113-.473-2.742-6.456 2.228-.946 5.78 13.607c.048.113.106.221.174.322.052.063.122.145.207.237.156.164.208.286.16.37-.087.108-.392.274-.914.494l-1.4.594-2.683-6.318-1.114.475 2.131 5.015c.052.124.117.234.196.335.05.061.122.13.217.212.16.15.215.259.173.324-.066.099-.345.257-.836.467z" style="fill:#231f20;fill-opacity:1;fill-rule:nonzero;stroke:none;stroke-width:2.25101" transform="matrix(4.66667 0 0 -4.66667 650.209 2681.872)"/><path d="M-11.263 560.055c.995-.333 3.857-1.148 6.594-.5a8.735 8.735 0 0 1-.104-1.807c.21-4.46 2.247-6.502 3.445-7.327l-.504-.436-9.549 9.788c.067.163.069.165.118.282zM-125.76 561.94l3.798-3.797v-.079a.51.51 0 0 1 .51-.51c.023 0 .042.011.065.014l3.41-3.408-10.99-.209c-.025 0-.046-.01-.069-.014l-7.304 6.796c-.38.354-.704.758-.98 1.194h11.493c.024 0 .045.01.068.014z" style="fill:#fff;fill-opacity:1;fill-rule:nonzero;stroke:none;stroke-width:2.25101" transform="matrix(4.66667 0 0 -4.66667 650.209 2681.872)"/><path d="m-44.095 562.29-4.398-10.367 1.463-.623a43.193 43.193 0 0 1 2.632-1.027c1.186-.432 2.253-.753 3.203-.96l.477 2.016a25.93 25.93 0 0 0-2.298.67c-.664.222-1.279.451-1.84.692l-.548.232 2.761 6.5 3.93-1.667.811 1.902zM-81.303 562.622l-11.928-4.821.8-1.988 9.525 3.85c.475-1.171.867-2.509 1.173-4.01.235-1.173.376-2.16.428-2.962l2.426.78a28.62 28.62 0 0 1-.803 4.39c-.372 1.416-.912 3.003-1.621 4.76z" style="fill:#231f20;fill-opacity:1;fill-rule:nonzero;stroke:none;stroke-width:2.25101" transform="matrix(4.66667 0 0 -4.66667 650.209 2681.872)"/><path d="m-120.942 567.466 12.399-11.54a71.21 71.21 0 0 1-2.552-2.167l-.095-.084a73.169 73.169 0 0 1-2.516-2.348l-7.236 7.237zM-12.627 570.724c3.56-2.238 8.847-1.923 13.245-1.621l.746.05c3.827.254 6.172.006 6.199.002 2.77-.437 4.957-2.58 5.972-5.876 1.245-4.031.353-8.644-2.114-10.964-4.328-4.075-10.605-1.796-11.508-1.436-.005.002-.009.007-.015.01-.135.05-3.394 1.388-3.653 6.907-.11 2.404.875 4.622 2.636 5.926 1.695 1.249 3.907 1.523 6.075.744 2.361-.848 3.257-3.75 2.73-5.951-.211-.874-.963-2.88-3.432-2.57-2.285.287-3.226 1.694-3.347 2.914-.115 1.163.461 2.195 1.404 2.512a.508.508 0 1 1-.322.966c-1.398-.466-2.257-1.938-2.097-3.58.16-1.613 1.359-3.464 4.238-3.824 2.247-.281 3.99 1.002 4.547 3.345.628 2.63-.486 6.11-3.376 7.147-2.494.893-5.054.572-7.024-.885-1.305-.965-2.24-2.353-2.711-3.948a.499.499 0 0 1-.254.005c-3.006-.82-6.643.553-6.681.567h-.005c-1.304.492-2.738 1.904-3.683 2.96 2.607-.435 6.035.112 6.215.143.214.036.38.203.416.417.004.027.01.056.01.085 0 .183-.1.356-.262.446-1.576.874-3.073 3.637-3.949 5.508zM-135.422 571.603l8.656-8.656h-11.072a6.705 6.705 0 0 0-.47 2.239c-.075 2.068.748 4.187 2.258 5.807.2.216.41.418.628.61zM-130.418 573.663c1.75.063 3.376-.521 4.583-1.642l3.873-3.605v-8.832l-12.645 12.646c1.263.868 2.72 1.38 4.189 1.433z" style="fill:#fff;fill-opacity:1;fill-rule:nonzero;stroke:none;stroke-width:2.25101" transform="matrix(4.66667 0 0 -4.66667 650.209 2681.872)"/><path d="M-62.271 565.923c-2.083.018-3.726-.277-4.93-.887-1.09-.57-1.64-1.294-1.646-2.179-.009-.866.531-1.596 1.61-2.193 1.19-.652 2.83-.988 4.911-1.006 2.071-.018 3.717.29 4.928.923 1.092.579 1.641 1.3 1.648 2.164.007.889-.529 1.62-1.612 2.207-1.19.63-2.83.955-4.91.971zm-.05-1.86c1.351-.01 2.384-.137 3.104-.375.675-.228 1.01-.53 1.008-.908-.004-.362-.344-.661-1.02-.886-.747-.25-1.784-.368-3.116-.357-1.324.012-2.35.148-3.068.409-.651.236-.975.542-.975.904.004.378.335.673.99.892.71.225 1.736.333 3.078.322z" style="fill:#231f20;fill-opacity:1;fill-rule:nonzero;stroke:none;stroke-width:2.25101" transform="matrix(4.66667 0 0 -4.66667 650.209 2681.872)"/></svg>