<svg xmlns="http://www.w3.org/2000/svg" width="183.33119mm" height="186.32715mm" viewBox="0 0 183.33119 186.32715"><defs><linearGradient id="a" x1="325.582" x2="325.582" y1="347.27499" y2="365.85501" gradientUnits="userSpaceOnUse"><stop offset="0" style="stop-color:#1171ae"/><stop offset="0.922313" style="stop-color:#185295"/><stop offset="1" style="stop-color:#185295"/></linearGradient><linearGradient id="b" x1="307.142" x2="307.142" y1="308.83801" y2="394.604" gradientUnits="userSpaceOnUse"><stop offset="0" style="stop-color:#33bbe3"/><stop offset="0.016198" style="stop-color:#33bbe3"/><stop offset="0.647997" style="stop-color:#185295"/><stop offset="1" style="stop-color:#185295"/></linearGradient></defs><path d="M232.801 327.732c-.358.382-1.494 1.794-1.94 3.291-.308 1.029-.002 1.916.802 2.156 2.526.754 4.558-5.505 8.562-4.31 2.806.839 3.209 3.241 2.382 6.011-.464 1.552-1.354 2.895-1.625 3.324l-2.283-.681c.914-.807 2.111-2.02 2.548-3.478.245-.824.248-2.128-.968-2.489-2.919-.873-4.69 5.261-8.768 4.043-2.076-.62-2.861-2.566-2.028-5.354.408-1.365 1.078-2.652 1.317-3.111zM232.443 322.374l3.352-7.117 1.395.656-2.262 4.805 3.744 1.764 2.146-4.557 1.396.658-2.146 4.556 4.185 1.971 2.339-4.962 1.466.689-3.428 7.277zM243.232 315.571c-3.374-2.363-4.741-5.346-2.468-8.592 2.262-3.231 5.545-2.982 8.919-.621 3.375 2.364 4.731 5.364 2.468 8.594-2.273 3.246-5.544 2.983-8.919.619zm7.864-1.358c1.22-1.743-.176-3.698-2.958-5.646-2.783-1.949-5.098-2.593-6.318-.849-1.221 1.742.175 3.698 2.958 5.646 2.783 1.95 5.096 2.592 6.318.849zM246.697 299.155l1.768-1.597 8.319 6.3.028-.027-4.217-10.002 1-.902 9.506 5.226.029-.026-5.405-8.93 1.464-1.321 7.057 11.778-1.681 1.519-9.112-4.82-.03.025 3.983 9.452-1.695 1.531zM266.054 291.581c-2.012-3.596-1.947-6.876 1.512-8.81 3.442-1.926 6.289-.277 8.301 3.318 2.012 3.594 1.93 6.886-1.512 8.811-3.458 1.935-6.289.275-8.301-3.319zm7.672 2.194c1.857-1.038 1.449-3.406-.209-6.37-1.66-2.964-3.464-4.55-5.322-3.511-1.856 1.039-1.449 3.406.21 6.371 1.66 2.965 3.464 4.55 5.321 3.51zM276.993 278.317l2.649-.88 8.1 7.841.037-.013-3.154-9.486 1.983-.659 4.251 12.783-2.409.802-8.495-8.225-.037.013 3.308 9.949-1.983.659zM310.795 281.405c.044 2.402-.42 4.811-4.812 4.893-4.333.079-4.885-2.313-4.929-4.713l-.164-8.883 2.557-.047.164 8.882c.038 2.109.396 3.508 2.348 3.472 2.07-.038 2.316-1.448 2.278-3.557l-.164-8.883 2.558-.046zM315.77 272.892l2.753.466 3.471 10.727.039.006 1.668-9.856 2.061.348-2.25 13.283-2.502-.424-3.641-11.25-.037-.005-1.752 10.338-2.058-.35zM330.367 275.96l2.442.768-4.043 12.849-2.44-.766zM335.674 277.517l2.414 1.105-1.201 10.875.035.017 7.502-7.989 2.06.943-9.853 10.305-2.397-1.098zM349.234 284.209l6.549 4.362-.855 1.283-4.42-2.943-2.293 3.446 4.191 2.791-.855 1.284-4.192-2.792-2.564 3.851 4.566 3.041-.898 1.348-6.695-4.459zM359.279 291.327l2.25 2.082c2.194 2.03 3.852 4.176 1.77 6.425-1.418 1.534-3.084.978-4.186.384l-.025.029c1.209 1.625.535 2.756-.283 4.129l-1.867 3.139-1.878-1.737 1.366-2.195c1.312-2.137 1.65-3.049.174-4.414l-.588-.543-4.004 4.328-1.877-1.737zm-2.299 6.252.373.345c1.332 1.233 2.596 1.765 3.936.317 1.459-1.576.434-2.712-.729-3.785l-.37-.345zM371.432 307.739c-.106-.513-.604-2.256-1.567-3.484-.664-.846-1.564-1.107-2.224-.589-2.075 1.626 1.863 6.9-1.424 9.478-2.305 1.807-4.5.75-6.283-1.525-1-1.274-1.582-2.778-1.776-3.246l1.873-1.47c.133 1.211.43 2.889 1.369 4.088.532.675 1.594 1.43 2.592.647 2.397-1.879-1.588-6.867 1.762-9.494 1.705-1.337 3.746-.854 5.541 1.435.879 1.122 1.543 2.412 1.779 2.872zM375.773 310.302l1.332 2.184-11.503 7.011-1.33-2.183zM378.727 318.757l-1.377-2.934 1.396-.656 3.838 8.186-1.396.654-1.376-2.934-10.8 5.067-1.086-2.317zM377.629 331.019l5.644-6.092.854 2.822-3.91 4.14 5.576 1.374.713 2.353-8.137-2.148-6.035 1.824-.74-2.449zM239.107 356.826l.262 2.45-5.609.6.004.037 6.053 3.551.276 2.581-6.309-3.997-6.541 5.861-.32-2.99 5.794-4.894-.004-.038-6.245.667-.262-2.449zM234.033 368.901c3.816-1.085 6.877-.294 7.922 3.375 1.039 3.655-1.141 5.957-4.957 7.042-3.816 1.087-6.881.278-7.921-3.376-1.045-3.671 1.14-5.956 4.956-7.041zm-3.763 6.702c.561 1.972 2.871 2.115 6.019 1.22 3.146-.896 5.033-2.234 4.472-4.207-.561-1.97-2.87-2.115-6.017-1.218-3.147.894-5.034 2.234-4.474 4.205zM244.048 379.349l1.274 2.664c1.24 2.595 1.961 5.106-.703 6.379-1.815.868-3.108-.223-3.882-1.147l-.034.018c.505 1.885-.501 2.657-1.721 3.594l-2.789 2.145-1.062-2.223 2.003-1.477c1.935-1.445 2.561-2.141 1.726-3.889l-.332-.696-5.124 2.45-1.062-2.225zm-4.281 4.777.21.44c.755 1.578 1.696 2.503 3.411 1.685 1.865-.893 1.352-2.272.695-3.646l-.21-.442zM248.827 388.815l4.241 6.28-1.231.832-2.862-4.238-3.304 2.23 2.715 4.02-1.23.832-2.716-4.02-3.693 2.493 2.958 4.38-1.294.873-4.336-6.42zM256.394 398.948l1.711 1.851-6.463 12.122-1.775-1.919 1.941-3.331-3-3.244-3.498 1.645-1.481-1.601zm-6.285 4.864 2.426 2.624 3.024-5.177-.026-.029zM360.387 399.116l-.524 2.906-1.324-1.103.639-3.525 1.42-1.703 10.166 8.468-1.77 2.125zM374.791 393.206c.844.469 1.725.658 2.246-.282.994-1.784-1.086-3.192-3.381-4.47.188.633.307 1.603-.451 2.965-1.271 2.281-3.033 2.959-5.381 1.652-2.492-1.386-2.781-3.608-1.308-6.255 2.263-4.067 5.459-2.639 8.47-.962 3.461 1.926 5.178 4.112 3.161 7.737-1.528 2.742-3.456 2.75-4.817 2.242zm-2.182-3.123c.576-1.037.098-2.158-.924-2.726-1.236-.688-3.144-1.524-4.093.183-.748 1.342.396 2.281 1.527 2.91 1.092.608 2.69 1.071 3.49-.367zM375.25 374.228c-.897-.297-1.797-.319-2.141.723-.636 1.917 1.672 2.911 4.164 3.739-.304-.586-.607-1.497-.109-2.997.814-2.458 2.445-3.467 4.977-2.628 2.707.897 3.406 3.024 2.453 5.899-1.463 4.418-4.891 3.607-8.143 2.529-3.777-1.252-5.853-3.073-4.549-7.01.981-2.958 2.875-3.326 4.293-3.111zm8.152 4.226c.483-1.459-.816-2.167-2.064-2.58-1.168-.387-2.83-.52-3.34 1.02-.367 1.105.307 2.138 1.416 2.506 1.344.445 3.381.888 3.988-.946zM383.897 367.404c-1.917-.219-2.864-1.321-3.055-2.889l-.041-.006c-.51 1.379-1.346 2.187-3.363 1.957-2.405-.276-3.004-2.621-2.731-4.996.268-2.335 1.406-4.524 3.791-4.25 1.916.219 2.623 1.427 2.818 2.797l.041.005c.534-1.419 1.504-2.501 3.645-2.257 2.568.295 3.414 2.269 3.074 5.236-.32 2.791-1.428 4.719-4.179 4.403zm-3.483-5.282c.152-1.33-.658-1.82-2.248-2.003-1.101-.126-2.027.21-2.176 1.497-.148 1.308.74 1.83 1.78 1.949 1.488.17 2.488-.09 2.644-1.443zm6.379.732c.18-1.571-1.023-2.062-2.451-2.226-1.527-.176-2.502.398-2.645 1.641-.14 1.222.678 2.023 2.205 2.197 1.733.199 2.739-.281 2.891-1.612zM230.825 346.737a1.87 1.87 0 1 1 3.738 0 1.87 1.87 0 0 1-3.738 0zM379.748 346.737a1.87 1.87 0 1 1 3.74.002 1.87 1.87 0 0 1-3.74-.002zM278.973 414.962l-2.061 3.803-3.129-1.698-.741 1.366 3.129 1.698-4.784 8.823 2.07 1.121 7.586-13.992-.025-.012z" style="fill:#2c2f30;stroke:none" transform="translate(-256.084 -308.518) scale(1.13208)"/><path d="m271.959 415.478 1.809-3.338-.025-.014-2.099-1.139-1.809 3.338c-2.194 4.047-6.041 3.619-6.793 3.49l-.027-.003.018 1.483.019.007c1.062.239 3.498.295 5.901-1.058l.122-.069c.004.053.005.139.005.139.183 2.769 1.648 4.805 2.489 5.576l.013.011.019-.008c.131-.107.524-.367 1.159-.763l.027-.019-.022-.024c-.52-.562-2.995-3.572-.806-7.609zM295.438 420.15s-1.996 8.73-2.007 8.783l-3.276-.75-.329 1.439 3.276.748c-.012.047-.431 1.883-.431 1.883l2.293.523 2.766-12.102-.023-.007z" style="fill:#2c2f30;stroke:none" transform="translate(-256.084 -308.518) scale(1.13208)"/><path d="m285.665 428.71 2.309.527.645-2.824 3.946.903.304-1.333-3.135-.716c1.404-.307 2.494-1.325 2.789-2.617.428-1.872-1.102-3.952-3.269-4.445-2.206-.505-4.514.696-4.943 2.57-.294 1.291.251 2.681 1.379 3.568l-3.13-.716-.304 1.333 4.054.926-.645 2.824zm.864-7.393c.241-1.052 1.063-1.978 2.366-1.679 1.083.247 1.673 1.317 1.395 2.537-.283 1.237-1.253 1.924-2.357 1.672-1.111-.254-1.686-1.294-1.404-2.53zM285.678 432.458a.725.725 0 0 1-.027-.408l.016-.045.532-2.339-.025-.007-2.267-.517-.675 2.953c-.028.121-.129.662.16 1.138.222.378.626.633 1.204.765l9.587 2.191.328-1.44-8.275-1.891c-.282-.064-.473-.193-.558-.4zM313.34 421.196v4.465h-1.471v-4.465h-2.359v9.634h-4.375c-.26 0-.459-.073-.583-.216a.627.627 0 0 1-.156-.44V422.952h3.68v-1.473h-6.033v9.274c0 .136.018.674.406 1.074.297.319.754.483 1.34.483h5.721v4.801h2.359v-9.828h1.471v9.828h2.357v-15.915h-.025zM332.707 416.486l-.022.007-2.23.647 2.553 8.807 2.254-.653-.918-3.164 2.064-.598-.414-1.424-2.062.597c-.016-.048-1.225-4.219-1.225-4.219zM329.803 422.932c-.381-1.322-1.625-2.292-3.184-2.492l2.44-.707-.385-1.328-3.336.967-.494-1.709-.029.008-2.11.611s.483 1.659.496 1.709l-3.332.967.385 1.328 2.431-.705c-1.201 1-1.738 2.486-1.355 3.807.561 1.935 2.963 3.012 5.238 2.353 2.317-.672 3.797-2.873 3.235-4.809zm-6.28 1.815c-.347-1.203.272-2.443 1.375-2.764 1.125-.325 2.366.401 2.709 1.581.34 1.18-.32 2.454-1.443 2.781-1.105.32-2.291-.398-2.641-1.598zM333.904 426.886l-9.916 2.875.412 1.422 8.623-2.5c.258-.075.465-.057.625.045.174.106.25.279.278.377l.014.056.947 3.264 2.252-.652-1.123-3.88c-.038-.125-.206-.644-.684-.925-.379-.217-.859-.246-1.428-.082zM355.033 419.2l-5.777-9.509c-.057-.092-.358-.541-.891-.688-.418-.117-.894-.012-1.398.295l-9.405 5.713.766 1.26 8.26-5.02c.221-.135.432-.174.615-.115a.683.683 0 0 1 .362.297l.027.046 5.433 8.942-1.701 1.033-3.687-6.068-2.012 1.222s3.664 6.027 3.687 6.067c-.039.025-1.523.928-1.566.953l-3.687-6.068-2.01 1.22s3.664 6.028 3.687 6.069l-2.476 1.505.769 1.268 12.858-7.812-.772-1.268-1.082.658z" style="fill:#2c2f30;stroke:none" transform="translate(-256.084 -308.518) scale(1.13208)"/><path d="M323.535 347.294c-3.725.161-7.875 1.324-7.959 4.224-.109 3.684 4.908 5.237 9.981 7.844 2.982 1.512 7.283 3.592 10.033 6.493a172.072 172.072 0 0 1-1.744-16.979c-1.922-.703-6.326-1.756-10.311-1.582z" style="fill:url(#a);stroke:none" transform="translate(-256.084 -308.518) scale(1.13208)"/><path d="M337.432 375.783c-2.58 6.285-10.909 10.087-19.704 10.462-7.841.338-12.645-2.145-14.672-3.037l2.053-6.808c1.878.637 5.762 3.313 12.979 2.998 4.277-.186 8.211-2.063 8.299-5.095.099-3.556-4.676-5.31-10.293-8.024-4.996-2.409-12.112-5.319-11.887-13.148.205-6.844 8.034-12.175 16.91-12.565 6.049-.263 9.893.423 12.486 1.132-.259-19.519 2.713-32.86 2.713-32.86h-58.34s9.083 44.177-6.521 85.766H342.828a150.473 150.473 0 0 1-5.396-18.821z" style="fill:url(#b);stroke:none" transform="translate(-256.084 -308.518) scale(1.13208)"/></svg>