<svg xmlns="http://www.w3.org/2000/svg" width="183.67924mm" height="183.67924mm" viewBox="0 0 183.67924 183.67924"><g transform="translate(-28.019 -75.962)"><circle cx="119.85848" cy="167.80188" r="91.839622" style="fill:#f9f9f9;stroke:#fff;stroke-width:0"/><path d="M0 0c-.5-.224-1.034-.128-1.196.217-.152.347.129.816.631 1.038.503.228 1.041.128 1.196-.22C.787.688.504.224 0 0m-.165 4.073c-.089.204-.388.13-.478.088a7.244 7.244 0 0 1-.286-.127l.094-.218c.117.051.222.07.243.018L.056 2.39l-.44-.202c-.278-.122-.915.05-1.159.595l-.137.303.86.387-.137.298-2.218-.992.137-.301.899.402.153-.338c.069-.163.218-.972-.266-1.19l-.263-.122.113-.238s.171.076.282.13c.118.054.539.239.715.822 0 0 .553-.253.957-.072l.613.274.218-.491a2.135 2.135 0 0 1-1.038-.201c-.76-.341-1.213-.983-1.012-1.435.197-.451.98-.539 1.739-.193.752.33 1.199.953 1.035 1.401h.003S.678 2.18.323 2.985l.52.236-.113.252-.524-.235Z" style="fill:#b1004a;fill-opacity:1;fill-rule:nonzero;stroke:none" transform="matrix(5.26965 0 0 -5.26965 96.718 111.03)"/><path d="M0 0c-.437-.38-1.054-.392-1.38-.019-.324.372-.236.982.204 1.364.437.385 1.053.386 1.377.02C.527.992.436.38 0 0m.599 1.731c-.42.485-1.298.404-1.96-.173-.662-.583-.859-1.439-.44-1.922.248-.281.646-.364 1.072-.273l-.628-.55.182-.208L-.023-.386l.22-.251c-.532-.471-1.033-.91-1.033-.91l.181-.206L1.372.018c.115.105.164.006.214-.049l.1-.12-2.13-1.863.175-.199.139.124s.174-.196.288-.331c.116-.13.333-.053.508.095.173.149 2.001 1.751 2.001 1.751l-.163.182L.718-1.95c-.161-.146-.276-.076-.332-.009-.055.066-.143.166-.143.166L2.23-.052l-.438.499c-.085.097-.206.13-.278.061L.585-.301l-.223.249L1.559 1l-.181.202L.727.635c.146.407.118.82-.128 1.096" style="fill:#b1004a;fill-opacity:1;fill-rule:nonzero;stroke:none" transform="matrix(5.26965 0 0 -5.26965 70.134 114.547)"/><path d="m0 0-.186-.25.237-.182c.077.108.165.167.224.125l.696-.524-.427-.575.223-.166.43.569.791-.592-.315-.413c-.244-.331-1.15-.147-1.274-.055l-.795.597a.292.292 0 0 1-.391-.051c-.073-.1-.274-.365-.274-.365l.228-.168c.093.124.25.136.25.136l.687-.516c.771-.577.144-1.445.144-1.445l.223-.168c.583.776.274 1.452.274 1.452.474-.139 1.074.233 1.199.391l.304.415 1.093-.819.292.387S.745-.056.521.115C.296.281.063.082 0 0" style="fill:#b1004a;fill-opacity:1;fill-rule:nonzero;stroke:none" transform="matrix(5.26965 0 0 -5.26965 49.461 123.203)"/><path d="M0 0h-.319v-.302c.13 0 .229-.034.229-.102v-1.535h-.519c-.407 0-.811.837-.811.994v.541a.287.287 0 0 1-.271.284h-.456v-.284c.158 0 .258-.122.258-.122v-.403c0-.962-1.073-.982-1.073-.982v-.277c.973 0 1.331.643 1.331.643.17-.451.832-.718 1.029-.718h.512v-1.73h-1.887c-.093 0-.183.054-.183.189v1.281h-.746v-.191s.245-.087.245-.162v-.961c0-.156.171-.42.401-.42H.339v.018h.06v3.888C.399-.072.1 0 0 0" style="fill:#b1004a;fill-opacity:1;fill-rule:nonzero;stroke:none" transform="matrix(5.26965 0 0 -5.26965 123.499 84.587)"/><path d="m0 0-.295.111-.105-.28c.117-.039.198-.111.173-.175l-.282-.734-.467.181.302.779c.105.263-.153.437-.246.476l-.295.113-.105-.28c.117-.046.201-.118.178-.181l-.763-1.977-1.175.454c-.097.036-.153.113-.106.246l.64 1.666 1.029-.397.109.277-1.753.676-.105-.278.17-.067c.037-.042.065-.085.056-.11l-.622-1.618c-.059-.149.006-.458.224-.535l1.436-.555c-.279-.73-.525-1.357-.525-1.357l.456-.178.998 2.583.467-.178-1.001-2.585.453-.172 1.4 3.623C.348-.208.09-.033 0 0" style="fill:#b1004a;fill-opacity:1;fill-rule:nonzero;stroke:none" transform="matrix(5.26965 0 0 -5.26965 152.14 91.635)"/><path d="m0 0 1.545 1.046c.183.13.123.41-.028.621-.14.215-1.675 2.468-1.675 2.468l-.237-.163s1.452-2.139 1.638-2.403c.031-.052.031-.078-.019-.117L-.295.425l-.392.578.771.526c.235.16.118.447.062.528l-.174.261-.246-.168c.072-.106.1-.211.044-.245l-.731-.498-.338.503.77.528c.227.152.118.442.062.526-.053.08-.174.256-.174.256l-.251-.16c.078-.11.101-.211.044-.253l-.726-.493-.44.645-.246-.168L-.243-.181l.252.17z" style="fill:#b1004a;fill-opacity:1;fill-rule:nonzero;stroke:none" transform="matrix(5.26965 0 0 -5.26965 182.77 139.136)"/><path d="M0 0c.177.214-.012.457-.089.523-.082.063-.243.195-.243.195L-.521.489c.102-.082.154-.175.108-.225l-1.315-1.625L-3.73.269-3.917.04l2.002-1.629-.911-1.126.38-.302L-.702-.873l.415-.34.178.217-.419.343z" style="fill:#b1004a;fill-opacity:1;fill-rule:nonzero;stroke:none" transform="matrix(5.26965 0 0 -5.26965 174.562 108.563)"/><path d="m0 0 .112-.099C.258-.285.221-.612 0-.88c-.239-.295-.602-.402-.805-.231-.205.167-.164.526.078.823C-.509-.02-.211.104 0 0m-1.113.047c-.317-.385-.223-.977.209-1.322.431-.348 1.025-.319 1.336.062a.856.856 0 0 1 .161.731l.461-.381.185.238-.788.639.037.038C.662.27.473.517.395.576l-.243.2-.193-.23C.06.466.121.373.077.32L-.69.942-.88.709-.436.35a.832.832 0 0 1-.677-.303" style="fill:#b1004a;fill-opacity:1;fill-rule:nonzero;stroke:none" transform="matrix(5.26965 0 0 -5.26965 164.521 102.778)"/><path d="M0 0c-9.228 0-16.728-7.505-16.728-16.725 0-9.225 7.5-16.725 16.728-16.725 9.221 0 16.721 7.5 16.721 16.725C16.721-7.505 9.221 0 0 0m16.313-16.725c0-8.997-7.315-16.321-16.313-16.321-8.999 0-16.32 7.324-16.32 16.321C-16.32-7.727-8.999-.407 0-.407c8.998 0 16.313-7.32 16.313-16.318" style="fill:#b1004a;fill-opacity:1;fill-rule:nonzero;stroke:none" transform="matrix(5.26965 0 0 -5.26965 119.564 79.356)"/><path d="M0 0c-6.037 0-10.947-4.907-10.947-10.943 0-6.031 4.91-10.941 10.947-10.941 6.032 0 10.94 4.91 10.94 10.941C10.94-4.907 6.032 0 0 0m10.536-10.943c0-5.808-4.73-10.535-10.536-10.535-5.812 0-10.539 4.727-10.539 10.535S-5.812-.407 0-.407c5.806 0 10.536-4.728 10.536-10.536" style="fill:#b1004a;fill-opacity:1;fill-rule:nonzero;stroke:none" transform="matrix(5.26965 0 0 -5.26965 119.564 109.823)"/><path d="M0 0v-5.323h-.82V0h-2.882v.813H-.82v3.285H0V.813h2.873V0Zm.403-1.787V-.41h1.393A2.356 2.356 0 0 0 .403-1.787m-1.627 0a2.392 2.392 0 0 0-1.4 1.377h1.4zm0 4.451V1.222h-1.428a2.394 2.394 0 0 0 1.428 1.442m1.627 0a2.368 2.368 0 0 0 1.421-1.442H.403Zm1.853-1.442A2.803 2.803 0 0 1 .403 3.096v1.415h-1.627V3.096a2.802 2.802 0 0 1-1.857-1.874h-1.022V-.41h1.047a2.796 2.796 0 0 1 1.832-1.809v-3.505H.403v3.505A2.813 2.813 0 0 1 2.241-.41h1.044v1.632z" style="fill:#b1004a;fill-opacity:1;fill-rule:nonzero;stroke:none" transform="matrix(5.26965 0 0 -5.26965 94.935 148.998)"/><path d="M0 0a.673.673 0 0 0-.476-.321c-.23-.046-.456.018-.528.076-.236.173-.329.643-.109.946.019.028.032.067.056.1L.359.852A2.495 2.495 0 0 0 0 0m-1.855 2.71c-.111.025-.22.04-.321.04l-.378 1.294a2.556 2.556 0 0 0 1.48-.216zm1.553.571c.443-.457.69-1.056.726-1.665l-1.312-.051a1.292 1.292 0 0 1-.209.592Zm-2.855-.969-.016.003c-.003.005-.088-.112-.088-.112l-.077-.112-1.081.754.037.051c.019.02.063.079.063.079.239.337.549.597.888.785l.383-1.34a2.2 2.2 0 0 1-.109-.108M-4.516.41l-1.077.757.517.738L-4 1.149Zm-1.173-1.674-1.079.749.514.738 1.077-.753zm-1.178-1.683-1.075.757.518.733 1.076-.754zm-1.175-1.68-1.075.757.518.735 1.07-.756zm-1.175-1.676-1.078.755.512.733 1.079-.753zm-1.179-1.679-1.074.755.516.738 1.079-.756zm-1.634-1.193a.649.649 0 0 0-.162.913l.065.095 1.077-.756-.069-.097a.651.651 0 0 0-.911-.155M-.443 3.941a3.041 3.041 0 0 1-4.138-.643h-.012l-.067-.087-7.867-11.24a1.071 1.071 0 0 1 .258-1.483 1.082 1.082 0 0 1 1.489.262S-3.822.691-3.002 1.854c.007 0 .084.114.084.114A.9.9 0 0 0-1.444.936c-.327-.453-.231-1.187.201-1.507.158-.122.492-.218.843-.152.316.059.574.233.739.505a3.05 3.05 0 0 1-.782 4.159" style="fill:#b1004a;fill-opacity:1;fill-rule:nonzero;stroke:none" transform="matrix(5.26965 0 0 -5.26965 155.69 150.213)"/><path d="M0 0a2.107 2.107 0 0 0-1.116-.257l-.04.658.873.659C-.013.753.121.401 0 0m-1.744-.121a1.022 1.022 0 0 0-.177.077l-.167 2.421c.033-.029.065-.06.096-.084.087-.064.192-.129.307-.203l.159-2.282c-.073.021-.138.037-.218.071m1.166 1.474-.618-.466-.056.943c.238-.158.476-.322.674-.477m-4.034.621 1.344 1.386c.267-.193.517-.406.744-.614l.183-2.553c-.778.476-1.726 1.261-2.271 1.781m-.275.297c-.06.072-.113.131-.129.173a.626.626 0 0 0-.052.144l1.117 1.179c.118-.05.226-.115.34-.176zm-.016 1.502c.081.097.217.218.528.139l-.73-.774c.012.232.072.477.202.635m3.594-1.435a5.559 5.559 0 0 0-.435.282c-.158.113-.323.265-.504.426-.516.463-1.157 1.04-2.012 1.258-.506.129-.801-.077-.954-.273-.395-.482-.36-1.386-.165-1.767.261-.521 2.378-2.318 3.486-2.766 1.154-.469 2.13.171 2.17.195l.058.035.023.067c.469 1.25-.871 2.062-1.667 2.543" style="fill:#b1004a;fill-opacity:1;fill-rule:nonzero;stroke:none" transform="matrix(5.26965 0 0 -5.26965 145.57 197.04)"/><path d="M0 0v-2.709h-.395V-1.1c0 .11 0 .181-.009.216a.277.277 0 0 1-.035.134.198.198 0 0 1-.109.062 1.155 1.155 0 0 1-.207.015h-.056v.239a.952.952 0 0 1 .356.164.985.985 0 0 1 .249.27z" style="fill:#b1004a;fill-opacity:1;fill-rule:nonzero;stroke:none" transform="matrix(5.26965 0 0 -5.26965 106.074 204.06)"/><path d="M0 0c0-.106.024-.186.061-.237.048-.065.132-.099.258-.099a.28.28 0 0 1 .222.121.485.485 0 0 1 .077.273v.427a.534.534 0 0 1-.062.287C.504.842.428.879.319.879.198.879.112.832.061.751A.471.471 0 0 1 0 .506Zm.009-.837a.605.605 0 0 1 .04-.289c.048-.102.137-.156.27-.156a.26.26 0 0 1 .246.148.54.54 0 0 1 .053.253v.46a.416.416 0 0 0-.142-.192.51.51 0 0 0-.258-.055c-.238 0-.396.074-.489.218-.068.114-.108.284-.108.508v.205c0 .301.052.532.14.675.102.169.279.261.525.261.161 0 .299-.03.401-.07A.372.372 0 0 0 .896.948.667.667 0 0 0 .981.664C.992.577.997.448.997.28v-.928c0-.189-.005-.325-.012-.407a1.103 1.103 0 0 0-.068-.301.457.457 0 0 0-.214-.189 1.014 1.014 0 0 0-.392-.064c-.239 0-.416.064-.529.198-.105.129-.161.317-.161.574z" style="fill:#b1004a;fill-opacity:1;fill-rule:nonzero;stroke:none" transform="matrix(5.26965 0 0 -5.26965 112.396 210.075)"/><path d="M0 0v-.329h-.92V-1a.324.324 0 0 0 .125.161.662.662 0 0 0 .312.059c.196 0 .342-.059.442-.176.106-.118.159-.299.159-.539v-.355c0-.301-.044-.519-.141-.661-.105-.161-.279-.24-.534-.24-.277 0-.476.072-.581.213-.09.127-.133.337-.133.639v.114h.375v-.139c0-.171.02-.29.062-.361.051-.079.137-.119.265-.119.118 0 .198.051.255.159.04.079.06.187.06.324v.473a.33.33 0 0 1-.104.255.351.351 0 0 1-.252.093.258.258 0 0 1-.208-.101.326.326 0 0 1-.078-.197h-.367V0Z" style="fill:#b1004a;fill-opacity:1;fill-rule:nonzero;stroke:none" transform="matrix(5.26965 0 0 -5.26965 126.517 204.06)"/><path d="M0 0v1.552L-.44 0Zm.376 1.894V0H.65v-.337H.376v-.471H0v.471h-.833V0l.56 1.894z" style="fill:#b1004a;fill-opacity:1;fill-rule:nonzero;stroke:none" transform="matrix(5.26965 0 0 -5.26965 133.418 214.038)"/><path d="M0 0c-.209-.29-.703-.483-1.445-.574a8.669 8.669 0 0 0-.339-.041c.17.413.4 1.275.429 1.993.048.011.096.028.132.034.319.075.816.096 1.095-.095A.514.514 0 0 0 .105.941C.174.551.187.244 0 0m-3.575-.864c-.037-.008-.069-.009-.106-.016V.671c.351.094.71.198 1.054.311.093-.684.298-1.379.386-1.66-.476-.06-.924-.124-1.334-.186m-.513-.072c-.146-.016-.283-.039-.413-.054V.483c.137.025.275.055.413.085zm-.815-.108a4.795 4.795 0 0 0-.488-.038c-.258 0-.532.107-.69.269a.522.522 0 0 0-.145.381c.008.181.222.852 1.123.852.056 0 .134.007.2.012zm2.857 3.19c.081.007.134-.019.174-.084.08-.123.112-.336.112-.589a6.729 6.729 0 0 0-.249-1.499 8.893 8.893 0 0 0-.223 1.131c-.009.062-.016.131-.024.192v.067c0 .053-.008.107-.008.155-.008.245.023.447.1.56.034.048.062.062.118.067M.509 1.013a.971.971 0 0 1-.416.646c-.491.327-1.203.197-1.408.151a1.044 1.044 0 0 0-.065-.018 1.243 1.243 0 0 1-.149.488.564.564 0 0 1-.538.269.527.527 0 0 1-.432-.244c-.141-.203-.181-.541-.168-.909-.845-.27-1.878-.573-2.436-.573-1.115 0-1.51-.828-1.526-1.233a.911.911 0 0 1 .258-.681c.23-.245.609-.399.98-.399.304 0 .959.097 1.872.225.638.09 1.355.191 2.126.288.873.104 1.434.343 1.716.733.286.383.259.828.186 1.257" style="fill:#b1004a;fill-opacity:1;fill-rule:nonzero;stroke:none" transform="matrix(5.26965 0 0 -5.26965 157.136 168.22)"/><path d="m0 0 .117-.436c-.19-.058-.318-.135-.397-.226a.458.458 0 0 1-.091-.358c.025-.144.08-.256.17-.318a.398.398 0 0 1 .464-.008.397.397 0 0 1 .1.187c.015.058.044.188.079.39.047.256.111.445.213.559.14.163.326.261.556.293a.913.913 0 0 0 .431-.042.668.668 0 0 0 .331-.242c.081-.118.139-.257.167-.437.041-.288-.012-.514-.149-.684-.142-.168-.348-.275-.615-.319l-.087.461c.149.042.254.1.309.172a.444.444 0 0 1 .054.306.476.476 0 0 1-.149.3.252.252 0 0 1-.19.044.226.226 0 0 1-.165-.09c-.056-.067-.1-.218-.139-.453a1.966 1.966 0 0 0-.135-.525.77.77 0 0 0-.263-.297 1.096 1.096 0 0 0-.453-.153.95.95 0 0 0-.481.044.74.74 0 0 0-.371.263c-.09.121-.153.287-.179.483-.039.29.016.523.163.707.149.178.387.304.71.379" style="fill:#b1004a;fill-opacity:1;fill-rule:nonzero;stroke:none" transform="matrix(5.26965 0 0 -5.26965 43.412 166.184)"/><path d="m0 0 2.841.73.408-1.575-.479-.123L2.469.176 1.84.015l.28-1.065-.487-.124-.274 1.068-.765-.202.302-1.188-.482-.121Z" style="fill:#b1004a;fill-opacity:1;fill-rule:nonzero;stroke:none" transform="matrix(5.26965 0 0 -5.26965 40.373 179.358)"/><path d="M0 0c-.311-.121-.528-.265-.645-.436-.115-.168-.145-.336-.08-.502.063-.164.193-.27.395-.312.202-.042.46-.005.783.116.306.121.527.266.638.426.117.166.144.332.072.503-.06.168-.194.277-.392.319C.576.156.32.122 0 0m-.181.424c.282.104.525.163.738.173C.715.607.87.59 1.01.55a.911.911 0 0 0 .351-.168.92.92 0 0 0 .274-.397.893.893 0 0 0-.097-.874c-.177-.277-.491-.505-.939-.675-.444-.171-.82-.216-1.143-.131a.912.912 0 0 0-.657.576.898.898 0 0 0 .097.872c.177.277.488.5.923.671" style="fill:#b1004a;fill-opacity:1;fill-rule:nonzero;stroke:none" transform="matrix(5.26965 0 0 -5.26965 51.3 189.63)"/><path d="m0 0 .212-.389-1.391-.767a3.278 3.278 0 0 1-.421-.253.49.49 0 0 1-.192-.26.391.391 0 0 1 .048-.307c.061-.109.135-.175.225-.198a.447.447 0 0 1 .279.023c.095.037.243.111.449.224l1.423.785.211-.386-1.347-.745a4.777 4.777 0 0 0-.675-.331.874.874 0 0 0-.388-.06.624.624 0 0 0-.333.108.88.88 0 0 0-.28.325c-.101.183-.152.339-.145.465a.696.696 0 0 0 .093.344c.065.107.137.193.228.268.132.109.344.238.636.399z" style="fill:#b1004a;fill-opacity:1;fill-rule:nonzero;stroke:none" transform="matrix(5.26965 0 0 -5.26965 62.046 195.733)"/><path d="m0 0 2.332 1.74.266-.356L.661-.055l.665-.886-.402-.297Z" style="fill:#b1004a;fill-opacity:1;fill-rule:nonzero;stroke:none" transform="matrix(5.26965 0 0 -5.26965 54.883 214.156)"/><path d="m0 0 .321-.297L-.93-1.669a2.828 2.828 0 0 0-.413-.386.784.784 0 0 0-.449-.143.615.615 0 0 0-.436.185.578.578 0 0 0-.204.518c.027.2.144.418.355.651l.356-.24a1.029 1.029 0 0 1-.201-.303c-.041-.113-.023-.2.048-.264.071-.068.146-.084.229-.055.081.027.202.132.36.308z" style="fill:#b1004a;fill-opacity:1;fill-rule:nonzero;stroke:none" transform="matrix(5.26965 0 0 -5.26965 77.96 217.146)"/><path d="m0 0 .341 1.075-.845-.746Zm.032-1.419-.395.261.205.658-.734.482-.516-.448-.397.261L.516 1.778l.398-.26z" style="fill:#b1004a;fill-opacity:1;fill-rule:nonzero;stroke:none" transform="matrix(5.26965 0 0 -5.26965 80.552 230.716)"/><path d="m0 0 1.167 2.691.397-.17.044-2.179.785 1.812.376-.156-1.17-2.694-.404.175-.049 2.132L.374-.164Z" style="fill:#b1004a;fill-opacity:1;fill-rule:nonzero;stroke:none" transform="matrix(5.26965 0 0 -5.26965 83.045 239.326)"/><path d="m0 0 .127.482.92-.235L.761-.894A1.237 1.237 0 0 0 .292-1.1a1.124 1.124 0 0 0-.553 0 1.004 1.004 0 0 0-.541.334c-.13.169-.211.377-.23.629-.028.258-.009.521.06.795.077.298.189.55.344.758.149.206.336.352.541.426a.93.93 0 0 0 .548.014c.258-.064.447-.195.562-.383.108-.186.152-.415.128-.686L.7.79a.72.72 0 0 1-.085.373.437.437 0 0 1-.282.201.533.533 0 0 1-.506-.129C-.326 1.106-.438.882-.519.566-.605.232-.613-.04-.54-.235a.521.521 0 0 1 .375-.369.668.668 0 0 1 .292 0c.1.027.196.067.274.116l.096.367z" style="fill:#b1004a;fill-opacity:1;fill-rule:nonzero;stroke:none" transform="matrix(5.26965 0 0 -5.26965 101.584 240.03)"/><path d="M0 0h.436c0-.19.04-.334.108-.436a.413.413 0 0 1 .304-.173c.137-.017.249.009.334.082.077.069.13.158.142.269a.342.342 0 0 1-.028.182.379.379 0 0 1-.142.145C1.106.102.992.153.82.232.594.344.436.456.354.584a.933.933 0 0 0-.132.607c.021.151.065.288.141.407.081.123.181.21.312.269.12.05.273.067.438.045.273-.035.469-.132.587-.314.121-.174.165-.405.146-.672l-.445.03c0 .153-.029.265-.086.339-.056.074-.136.114-.262.129a.448.448 0 0 1-.319-.067c-.051-.04-.075-.101-.088-.173A.264.264 0 0 1 .694.995C.74.926.868.847 1.078.758a1.97 1.97 0 0 0 .448-.27.721.721 0 0 0 .205-.322c.041-.139.053-.295.034-.478a1.133 1.133 0 0 0-.162-.46.709.709 0 0 0-.332-.288.884.884 0 0 0-.488-.051c-.274.029-.481.14-.605.331C.049-.594-.013-.329 0 0" style="fill:#b1004a;fill-opacity:1;fill-rule:nonzero;stroke:none" transform="matrix(5.26965 0 0 -5.26965 108.12 242.146)"/><path d="m0 0 .128 2.93.441-.02L.443-.022Z" style="fill:#b1004a;fill-opacity:1;fill-rule:nonzero;stroke:none" transform="matrix(5.26965 0 0 -5.26965 119.14 248.306)"/><path d="m0 0-.544 2.888.419.076 1.266-1.768-.37 1.944.402.072.55-2.882-.437-.082L.037 1.979.403.08Z" style="fill:#b1004a;fill-opacity:1;fill-rule:nonzero;stroke:none" transform="matrix(5.26965 0 0 -5.26965 125.943 248.085)"/><path d="m0 0 .414.168.59-1.479c.093-.237.153-.385.193-.453a.538.538 0 0 1 .236-.217.383.383 0 0 1 .311.004c.115.05.193.112.221.202.04.086.04.18.015.279a2.78 2.78 0 0 1-.165.468l-.6 1.51.411.166.569-1.431c.133-.331.214-.567.245-.713a.863.863 0 0 0 .013-.392.668.668 0 0 0-.149-.314.879.879 0 0 0-.359-.239c-.198-.078-.356-.107-.484-.09a.74.74 0 0 0-.327.143.86.86 0 0 0-.236.261 4.393 4.393 0 0 0-.317.671Z" style="fill:#b1004a;fill-opacity:1;fill-rule:nonzero;stroke:none" transform="matrix(5.26965 0 0 -5.26965 137.298 229.657)"/><path d="m0 0-1.461 2.55.367.208L.684 1.503l-.982 1.713.355.201L1.518.874 1.135.653-.609 1.882.36.208Z" style="fill:#b1004a;fill-opacity:1;fill-rule:nonzero;stroke:none" transform="matrix(5.26965 0 0 -5.26965 154.775 239.105)"/><path d="m0 0-1.718 2.38.36.258L.357.255z" style="fill:#b1004a;fill-opacity:1;fill-rule:nonzero;stroke:none" transform="matrix(5.26965 0 0 -5.26965 165.208 232.713)"/><path d="m0 0-2.522 1.687.358.321L-.306.745l-1.037 1.986.351.312L.363.319z" style="fill:#b1004a;fill-opacity:1;fill-rule:nonzero;stroke:none" transform="matrix(5.26965 0 0 -5.26965 171.535 227.82)"/><path d="m0 0-2.241 1.892 1.047 1.245.382-.32-.761-.903.495-.419.707.842.384-.324-.716-.842.607-.51.795.934.383-.318Z" style="fill:#b1004a;fill-opacity:1;fill-rule:nonzero;stroke:none" transform="matrix(5.26965 0 0 -5.26965 178.069 221.71)"/><path d="m0 0 .165.277c.118.181.173.297.182.362a.274.274 0 0 1-.04.166.478.478 0 0 1-.166.153.441.441 0 0 1-.235.077.243.243 0 0 1-.18-.082A2.152 2.152 0 0 1-.453.686L-.634.392Zm1.203-1.271L-1.292.277l.488.795c.129.199.242.326.335.389.102.064.23.087.375.071.154-.019.3-.071.445-.16.19-.119.315-.256.392-.414a.67.67 0 0 0 0-.513c.112.047.226.068.335.075.109.004.286-.007.532-.04l.631-.077-.276-.45-.71.069C.997.044.832.06.762.052A.35.35 0 0 1 .594.005a.453.453 0 0 1-.147-.176L.395-.245l1.041-.649Z" style="fill:#b1004a;fill-opacity:1;fill-rule:nonzero;stroke:none" transform="matrix(5.26965 0 0 -5.26965 179.198 205.82)"/><path d="m0 0 .128.416C.314.364.467.352.581.387.697.419.777.5.835.624c.06.132.069.248.023.345a.401.401 0 0 1-.217.215.312.312 0 0 1-.174.032.4.4 0 0 1-.185-.097A4.167 4.167 0 0 1 .019.85C-.146.669-.299.555-.444.511a.95.95 0 0 0-.631.056 1.102 1.102 0 0 0-.342.263.638.638 0 0 0-.153.369c-.022.141.015.282.081.438.112.253.27.404.475.468.202.057.432.038.687-.064l-.167-.419c-.144.047-.258.052-.342.023a.375.375 0 0 1-.206-.216.413.413 0 0 1-.033-.317.282.282 0 0 1 .142-.143.272.272 0 0 1 .19-.008c.077.022.196.121.343.292.152.166.282.285.391.35a.774.774 0 0 0 .375.098 1.175 1.175 0 0 0 .852-.403.701.701 0 0 0 .174-.403.905.905 0 0 0-.097-.479C1.182.159 1.016 0 .798-.066.581-.131.314-.108 0 0" style="fill:#b1004a;fill-opacity:1;fill-rule:nonzero;stroke:none" transform="matrix(5.26965 0 0 -5.26965 187.092 200.133)"/><path d="m0 0-2.766.98.146.416L.152.419Z" style="fill:#b1004a;fill-opacity:1;fill-rule:nonzero;stroke:none" transform="matrix(5.26965 0 0 -5.26965 196.28 191.39)"/><path d="m0 0-2.349.659-.174-.627-.482.134.473 1.679.477-.134-.174-.624L.116.429Z" style="fill:#b1004a;fill-opacity:1;fill-rule:nonzero;stroke:none" transform="matrix(5.26965 0 0 -5.26965 198.62 184.319)"/><path d="m0 0-1.215.225-1.82-.485.097.521 1.234.289-1.045.707.088.504L-1.129.659.08.439z" style="fill:#b1004a;fill-opacity:1;fill-rule:nonzero;stroke:none" transform="matrix(5.26965 0 0 -5.26965 201.149 173.775)"/><path d="M0 0a.68.68 0 1 0-1.362 0c0 .376.303.686.684.686C-.302.686 0 .376 0 0" style="fill:#b1004a;fill-opacity:1;fill-rule:nonzero;stroke:none" transform="matrix(5.26965 0 0 -5.26965 49.608 154.852)"/><path d="M0 0a.68.68 0 1 0-1.361 0c0 .376.302.686.678.686C-.304.686 0 .376 0 0" style="fill:#b1004a;fill-opacity:1;fill-rule:nonzero;stroke:none" transform="matrix(5.26965 0 0 -5.26965 194.132 154.852)"/><path d="M0 0c-.5-.224-1.034-.128-1.196.217-.152.347.129.816.631 1.038.503.228 1.041.128 1.196-.22C.787.688.504.224 0 0m-.165 4.073c-.089.204-.388.13-.478.088a7.244 7.244 0 0 1-.286-.127l.094-.218c.117.051.222.07.243.018L.056 2.39l-.44-.202c-.278-.122-.915.05-1.159.595l-.137.303.86.387-.137.298-2.218-.992.137-.301.899.402.153-.338c.069-.163.218-.972-.266-1.19l-.263-.122.113-.238s.171.076.282.13c.118.054.539.239.715.822 0 0 .553-.253.957-.072l.613.274.218-.491a2.135 2.135 0 0 1-1.038-.201c-.76-.341-1.213-.983-1.012-1.435.197-.451.98-.539 1.739-.193.752.33 1.199.953 1.035 1.401h.003S.678 2.18.323 2.985l.52.236-.113.252-.524-.235Z" style="fill:#b1004a;fill-opacity:1;fill-rule:nonzero;stroke:none" transform="matrix(5.26965 0 0 -5.26965 96.718 111.03)"/><path d="M0 0c-.437-.38-1.054-.392-1.38-.019-.324.372-.236.982.204 1.364.437.385 1.053.386 1.377.02C.527.992.436.38 0 0m.599 1.731c-.42.485-1.298.404-1.96-.173-.662-.583-.859-1.439-.44-1.922.248-.281.646-.364 1.072-.273l-.628-.55.182-.208L-.023-.386l.22-.251c-.532-.471-1.033-.91-1.033-.91l.181-.206L1.372.018c.115.105.164.006.214-.049l.1-.12-2.13-1.863.175-.199.139.124s.174-.196.288-.331c.116-.13.333-.053.508.095.173.149 2.001 1.751 2.001 1.751l-.163.182L.718-1.95c-.161-.146-.276-.076-.332-.009-.055.066-.143.166-.143.166L2.23-.052l-.438.499c-.085.097-.206.13-.278.061L.585-.301l-.223.249L1.559 1l-.181.202L.727.635c.146.407.118.82-.128 1.096" style="fill:#b1004a;fill-opacity:1;fill-rule:nonzero;stroke:none" transform="matrix(5.26965 0 0 -5.26965 70.134 114.547)"/><path d="m0 0-.186-.25.237-.182c.077.108.165.167.224.125l.696-.524-.427-.575.223-.166.43.569.791-.592-.315-.413c-.244-.331-1.15-.147-1.274-.055l-.795.597a.292.292 0 0 1-.391-.051c-.073-.1-.274-.365-.274-.365l.228-.168c.093.124.25.136.25.136l.687-.516c.771-.577.144-1.445.144-1.445l.223-.168c.583.776.274 1.452.274 1.452.474-.139 1.074.233 1.199.391l.304.415 1.093-.819.292.387S.745-.056.521.115C.296.281.063.082 0 0" style="fill:#b1004a;fill-opacity:1;fill-rule:nonzero;stroke:none" transform="matrix(5.26965 0 0 -5.26965 49.461 123.203)"/><path d="M0 0h-.319v-.302c.13 0 .229-.034.229-.102v-1.535h-.519c-.407 0-.811.837-.811.994v.541a.287.287 0 0 1-.271.284h-.456v-.284c.158 0 .258-.122.258-.122v-.403c0-.962-1.073-.982-1.073-.982v-.277c.973 0 1.331.643 1.331.643.17-.451.832-.718 1.029-.718h.512v-1.73h-1.887c-.093 0-.183.054-.183.189v1.281h-.746v-.191s.245-.087.245-.162v-.961c0-.156.171-.42.401-.42H.339v.018h.06v3.888C.399-.072.1 0 0 0" style="fill:#b1004a;fill-opacity:1;fill-rule:nonzero;stroke:none" transform="matrix(5.26965 0 0 -5.26965 123.499 84.587)"/><path d="m0 0-.295.111-.105-.28c.117-.039.198-.111.173-.175l-.282-.734-.467.181.302.779c.105.263-.153.437-.246.476l-.295.113-.105-.28c.117-.046.201-.118.178-.181l-.763-1.977-1.175.454c-.097.036-.153.113-.106.246l.64 1.666 1.029-.397.109.277-1.753.676-.105-.278.17-.067c.037-.042.065-.085.056-.11l-.622-1.618c-.059-.149.006-.458.224-.535l1.436-.555c-.279-.73-.525-1.357-.525-1.357l.456-.178.998 2.583.467-.178-1.001-2.585.453-.172 1.4 3.623C.348-.208.09-.033 0 0" style="fill:#b1004a;fill-opacity:1;fill-rule:nonzero;stroke:none" transform="matrix(5.26965 0 0 -5.26965 152.14 91.635)"/><path d="m0 0 1.545 1.046c.183.13.123.41-.028.621-.14.215-1.675 2.468-1.675 2.468l-.237-.163s1.452-2.139 1.638-2.403c.031-.052.031-.078-.019-.117L-.295.425l-.392.578.771.526c.235.16.118.447.062.528l-.174.261-.246-.168c.072-.106.1-.211.044-.245l-.731-.498-.338.503.77.528c.227.152.118.442.062.526-.053.08-.174.256-.174.256l-.251-.16c.078-.11.101-.211.044-.253l-.726-.493-.44.645-.246-.168L-.243-.181l.252.17z" style="fill:#b1004a;fill-opacity:1;fill-rule:nonzero;stroke:none" transform="matrix(5.26965 0 0 -5.26965 182.77 139.136)"/><path d="M0 0c.177.214-.012.457-.089.523-.082.063-.243.195-.243.195L-.521.489c.102-.082.154-.175.108-.225l-1.315-1.625L-3.73.269-3.917.04l2.002-1.629-.911-1.126.38-.302L-.702-.873l.415-.34.178.217-.419.343z" style="fill:#b1004a;fill-opacity:1;fill-rule:nonzero;stroke:none" transform="matrix(5.26965 0 0 -5.26965 174.562 108.563)"/><path d="m0 0 .112-.099C.258-.285.221-.612 0-.88c-.239-.295-.602-.402-.805-.231-.205.167-.164.526.078.823C-.509-.02-.211.104 0 0m-1.113.047c-.317-.385-.223-.977.209-1.322.431-.348 1.025-.319 1.336.062a.856.856 0 0 1 .161.731l.461-.381.185.238-.788.639.037.038C.662.27.473.517.395.576l-.243.2-.193-.23C.06.466.121.373.077.32L-.69.942-.88.709-.436.35a.832.832 0 0 1-.677-.303" style="fill:#b1004a;fill-opacity:1;fill-rule:nonzero;stroke:none" transform="matrix(5.26965 0 0 -5.26965 164.521 102.778)"/><path d="M0 0c-9.228 0-16.728-7.505-16.728-16.725 0-9.225 7.5-16.725 16.728-16.725 9.221 0 16.721 7.5 16.721 16.725C16.721-7.505 9.221 0 0 0m16.313-16.725c0-8.997-7.315-16.321-16.313-16.321-8.999 0-16.32 7.324-16.32 16.321C-16.32-7.727-8.999-.407 0-.407c8.998 0 16.313-7.32 16.313-16.318" style="fill:#b1004a;fill-opacity:1;fill-rule:nonzero;stroke:none" transform="matrix(5.26965 0 0 -5.26965 119.564 79.356)"/><path d="M0 0c-6.037 0-10.947-4.907-10.947-10.943 0-6.031 4.91-10.941 10.947-10.941 6.032 0 10.94 4.91 10.94 10.941C10.94-4.907 6.032 0 0 0m10.536-10.943c0-5.808-4.73-10.535-10.536-10.535-5.812 0-10.539 4.727-10.539 10.535S-5.812-.407 0-.407c5.806 0 10.536-4.728 10.536-10.536" style="fill:#b1004a;fill-opacity:1;fill-rule:nonzero;stroke:none" transform="matrix(5.26965 0 0 -5.26965 119.564 109.823)"/><path d="M0 0v-5.323h-.82V0h-2.882v.813H-.82v3.285H0V.813h2.873V0Zm.403-1.787V-.41h1.393A2.356 2.356 0 0 0 .403-1.787m-1.627 0a2.392 2.392 0 0 0-1.4 1.377h1.4zm0 4.451V1.222h-1.428a2.394 2.394 0 0 0 1.428 1.442m1.627 0a2.368 2.368 0 0 0 1.421-1.442H.403Zm1.853-1.442A2.803 2.803 0 0 1 .403 3.096v1.415h-1.627V3.096a2.802 2.802 0 0 1-1.857-1.874h-1.022V-.41h1.047a2.796 2.796 0 0 1 1.832-1.809v-3.505H.403v3.505A2.813 2.813 0 0 1 2.241-.41h1.044v1.632z" style="fill:#b1004a;fill-opacity:1;fill-rule:nonzero;stroke:none" transform="matrix(5.26965 0 0 -5.26965 94.935 148.998)"/><path d="M0 0a.673.673 0 0 0-.476-.321c-.23-.046-.456.018-.528.076-.236.173-.329.643-.109.946.019.028.032.067.056.1L.359.852A2.495 2.495 0 0 0 0 0m-1.855 2.71c-.111.025-.22.04-.321.04l-.378 1.294a2.556 2.556 0 0 0 1.48-.216zm1.553.571c.443-.457.69-1.056.726-1.665l-1.312-.051a1.292 1.292 0 0 1-.209.592Zm-2.855-.969-.016.003c-.003.005-.088-.112-.088-.112l-.077-.112-1.081.754.037.051c.019.02.063.079.063.079.239.337.549.597.888.785l.383-1.34a2.2 2.2 0 0 1-.109-.108M-4.516.41l-1.077.757.517.738L-4 1.149Zm-1.173-1.674-1.079.749.514.738 1.077-.753zm-1.178-1.683-1.075.757.518.733 1.076-.754zm-1.175-1.68-1.075.757.518.735 1.07-.756zm-1.175-1.676-1.078.755.512.733 1.079-.753zm-1.179-1.679-1.074.755.516.738 1.079-.756zm-1.634-1.193a.649.649 0 0 0-.162.913l.065.095 1.077-.756-.069-.097a.651.651 0 0 0-.911-.155M-.443 3.941a3.041 3.041 0 0 1-4.138-.643h-.012l-.067-.087-7.867-11.24a1.071 1.071 0 0 1 .258-1.483 1.082 1.082 0 0 1 1.489.262S-3.822.691-3.002 1.854c.007 0 .084.114.084.114A.9.9 0 0 0-1.444.936c-.327-.453-.231-1.187.201-1.507.158-.122.492-.218.843-.152.316.059.574.233.739.505a3.05 3.05 0 0 1-.782 4.159" style="fill:#b1004a;fill-opacity:1;fill-rule:nonzero;stroke:none" transform="matrix(5.26965 0 0 -5.26965 155.69 150.213)"/><path d="M0 0a2.107 2.107 0 0 0-1.116-.257l-.04.658.873.659C-.013.753.121.401 0 0m-1.744-.121a1.022 1.022 0 0 0-.177.077l-.167 2.421c.033-.029.065-.06.096-.084.087-.064.192-.129.307-.203l.159-2.282c-.073.021-.138.037-.218.071m1.166 1.474-.618-.466-.056.943c.238-.158.476-.322.674-.477m-4.034.621 1.344 1.386c.267-.193.517-.406.744-.614l.183-2.553c-.778.476-1.726 1.261-2.271 1.781m-.275.297c-.06.072-.113.131-.129.173a.626.626 0 0 0-.052.144l1.117 1.179c.118-.05.226-.115.34-.176zm-.016 1.502c.081.097.217.218.528.139l-.73-.774c.012.232.072.477.202.635m3.594-1.435a5.559 5.559 0 0 0-.435.282c-.158.113-.323.265-.504.426-.516.463-1.157 1.04-2.012 1.258-.506.129-.801-.077-.954-.273-.395-.482-.36-1.386-.165-1.767.261-.521 2.378-2.318 3.486-2.766 1.154-.469 2.13.171 2.17.195l.058.035.023.067c.469 1.25-.871 2.062-1.667 2.543" style="fill:#b1004a;fill-opacity:1;fill-rule:nonzero;stroke:none" transform="matrix(5.26965 0 0 -5.26965 145.57 197.04)"/><path d="M0 0v-2.709h-.395V-1.1c0 .11 0 .181-.009.216a.277.277 0 0 1-.035.134.198.198 0 0 1-.109.062 1.155 1.155 0 0 1-.207.015h-.056v.239a.952.952 0 0 1 .356.164.985.985 0 0 1 .249.27z" style="fill:#b1004a;fill-opacity:1;fill-rule:nonzero;stroke:none" transform="matrix(5.26965 0 0 -5.26965 106.074 204.06)"/><path d="M0 0c0-.106.024-.186.061-.237.048-.065.132-.099.258-.099a.28.28 0 0 1 .222.121.485.485 0 0 1 .077.273v.427a.534.534 0 0 1-.062.287C.504.842.428.879.319.879.198.879.112.832.061.751A.471.471 0 0 1 0 .506Zm.009-.837a.605.605 0 0 1 .04-.289c.048-.102.137-.156.27-.156a.26.26 0 0 1 .246.148.54.54 0 0 1 .053.253v.46a.416.416 0 0 0-.142-.192.51.51 0 0 0-.258-.055c-.238 0-.396.074-.489.218-.068.114-.108.284-.108.508v.205c0 .301.052.532.14.675.102.169.279.261.525.261.161 0 .299-.03.401-.07A.372.372 0 0 0 .896.948.667.667 0 0 0 .981.664C.992.577.997.448.997.28v-.928c0-.189-.005-.325-.012-.407a1.103 1.103 0 0 0-.068-.301.457.457 0 0 0-.214-.189 1.014 1.014 0 0 0-.392-.064c-.239 0-.416.064-.529.198-.105.129-.161.317-.161.574z" style="fill:#b1004a;fill-opacity:1;fill-rule:nonzero;stroke:none" transform="matrix(5.26965 0 0 -5.26965 112.396 210.075)"/><path d="M0 0v-.329h-.92V-1a.324.324 0 0 0 .125.161.662.662 0 0 0 .312.059c.196 0 .342-.059.442-.176.106-.118.159-.299.159-.539v-.355c0-.301-.044-.519-.141-.661-.105-.161-.279-.24-.534-.24-.277 0-.476.072-.581.213-.09.127-.133.337-.133.639v.114h.375v-.139c0-.171.02-.29.062-.361.051-.079.137-.119.265-.119.118 0 .198.051.255.159.04.079.06.187.06.324v.473a.33.33 0 0 1-.104.255.351.351 0 0 1-.252.093.258.258 0 0 1-.208-.101.326.326 0 0 1-.078-.197h-.367V0Z" style="fill:#b1004a;fill-opacity:1;fill-rule:nonzero;stroke:none" transform="matrix(5.26965 0 0 -5.26965 126.517 204.06)"/><path d="M0 0v1.552L-.44 0Zm.376 1.894V0H.65v-.337H.376v-.471H0v.471h-.833V0l.56 1.894z" style="fill:#b1004a;fill-opacity:1;fill-rule:nonzero;stroke:none" transform="matrix(5.26965 0 0 -5.26965 133.418 214.038)"/><path d="M0 0c-.209-.29-.703-.483-1.445-.574a8.669 8.669 0 0 0-.339-.041c.17.413.4 1.275.429 1.993.048.011.096.028.132.034.319.075.816.096 1.095-.095A.514.514 0 0 0 .105.941C.174.551.187.244 0 0m-3.575-.864c-.037-.008-.069-.009-.106-.016V.671c.351.094.71.198 1.054.311.093-.684.298-1.379.386-1.66-.476-.06-.924-.124-1.334-.186m-.513-.072c-.146-.016-.283-.039-.413-.054V.483c.137.025.275.055.413.085zm-.815-.108a4.795 4.795 0 0 0-.488-.038c-.258 0-.532.107-.69.269a.522.522 0 0 0-.145.381c.008.181.222.852 1.123.852.056 0 .134.007.2.012zm2.857 3.19c.081.007.134-.019.174-.084.08-.123.112-.336.112-.589a6.729 6.729 0 0 0-.249-1.499 8.893 8.893 0 0 0-.223 1.131c-.009.062-.016.131-.024.192v.067c0 .053-.008.107-.008.155-.008.245.023.447.1.56.034.048.062.062.118.067M.509 1.013a.971.971 0 0 1-.416.646c-.491.327-1.203.197-1.408.151a1.044 1.044 0 0 0-.065-.018 1.243 1.243 0 0 1-.149.488.564.564 0 0 1-.538.269.527.527 0 0 1-.432-.244c-.141-.203-.181-.541-.168-.909-.845-.27-1.878-.573-2.436-.573-1.115 0-1.51-.828-1.526-1.233a.911.911 0 0 1 .258-.681c.23-.245.609-.399.98-.399.304 0 .959.097 1.872.225.638.09 1.355.191 2.126.288.873.104 1.434.343 1.716.733.286.383.259.828.186 1.257" style="fill:#b1004a;fill-opacity:1;fill-rule:nonzero;stroke:none" transform="matrix(5.26965 0 0 -5.26965 157.136 168.22)"/><path d="m0 0 .117-.436c-.19-.058-.318-.135-.397-.226a.458.458 0 0 1-.091-.358c.025-.144.08-.256.17-.318a.398.398 0 0 1 .464-.008.397.397 0 0 1 .1.187c.015.058.044.188.079.39.047.256.111.445.213.559.14.163.326.261.556.293a.913.913 0 0 0 .431-.042.668.668 0 0 0 .331-.242c.081-.118.139-.257.167-.437.041-.288-.012-.514-.149-.684-.142-.168-.348-.275-.615-.319l-.087.461c.149.042.254.1.309.172a.444.444 0 0 1 .054.306.476.476 0 0 1-.149.3.252.252 0 0 1-.19.044.226.226 0 0 1-.165-.09c-.056-.067-.1-.218-.139-.453a1.966 1.966 0 0 0-.135-.525.77.77 0 0 0-.263-.297 1.096 1.096 0 0 0-.453-.153.95.95 0 0 0-.481.044.74.74 0 0 0-.371.263c-.09.121-.153.287-.179.483-.039.29.016.523.163.707.149.178.387.304.71.379" style="fill:#b1004a;fill-opacity:1;fill-rule:nonzero;stroke:none" transform="matrix(5.26965 0 0 -5.26965 43.412 166.184)"/><path d="m0 0 2.841.73.408-1.575-.479-.123L2.469.176 1.84.015l.28-1.065-.487-.124-.274 1.068-.765-.202.302-1.188-.482-.121Z" style="fill:#b1004a;fill-opacity:1;fill-rule:nonzero;stroke:none" transform="matrix(5.26965 0 0 -5.26965 40.373 179.358)"/><path d="M0 0c-.311-.121-.528-.265-.645-.436-.115-.168-.145-.336-.08-.502.063-.164.193-.27.395-.312.202-.042.46-.005.783.116.306.121.527.266.638.426.117.166.144.332.072.503-.06.168-.194.277-.392.319C.576.156.32.122 0 0m-.181.424c.282.104.525.163.738.173C.715.607.87.59 1.01.55a.911.911 0 0 0 .351-.168.92.92 0 0 0 .274-.397.893.893 0 0 0-.097-.874c-.177-.277-.491-.505-.939-.675-.444-.171-.82-.216-1.143-.131a.912.912 0 0 0-.657.576.898.898 0 0 0 .097.872c.177.277.488.5.923.671" style="fill:#b1004a;fill-opacity:1;fill-rule:nonzero;stroke:none" transform="matrix(5.26965 0 0 -5.26965 51.3 189.63)"/><path d="m0 0 .212-.389-1.391-.767a3.278 3.278 0 0 1-.421-.253.49.49 0 0 1-.192-.26.391.391 0 0 1 .048-.307c.061-.109.135-.175.225-.198a.447.447 0 0 1 .279.023c.095.037.243.111.449.224l1.423.785.211-.386-1.347-.745a4.777 4.777 0 0 0-.675-.331.874.874 0 0 0-.388-.06.624.624 0 0 0-.333.108.88.88 0 0 0-.28.325c-.101.183-.152.339-.145.465a.696.696 0 0 0 .093.344c.065.107.137.193.228.268.132.109.344.238.636.399z" style="fill:#b1004a;fill-opacity:1;fill-rule:nonzero;stroke:none" transform="matrix(5.26965 0 0 -5.26965 62.046 195.733)"/><path d="m0 0 2.332 1.74.266-.356L.661-.055l.665-.886-.402-.297Z" style="fill:#b1004a;fill-opacity:1;fill-rule:nonzero;stroke:none" transform="matrix(5.26965 0 0 -5.26965 54.883 214.156)"/><path d="m0 0 .321-.297L-.93-1.669a2.828 2.828 0 0 0-.413-.386.784.784 0 0 0-.449-.143.615.615 0 0 0-.436.185.578.578 0 0 0-.204.518c.027.2.144.418.355.651l.356-.24a1.029 1.029 0 0 1-.201-.303c-.041-.113-.023-.2.048-.264.071-.068.146-.084.229-.055.081.027.202.132.36.308z" style="fill:#b1004a;fill-opacity:1;fill-rule:nonzero;stroke:none" transform="matrix(5.26965 0 0 -5.26965 77.96 217.146)"/><path d="m0 0 .341 1.075-.845-.746Zm.032-1.419-.395.261.205.658-.734.482-.516-.448-.397.261L.516 1.778l.398-.26z" style="fill:#b1004a;fill-opacity:1;fill-rule:nonzero;stroke:none" transform="matrix(5.26965 0 0 -5.26965 80.552 230.716)"/><path d="m0 0 1.167 2.691.397-.17.044-2.179.785 1.812.376-.156-1.17-2.694-.404.175-.049 2.132L.374-.164Z" style="fill:#b1004a;fill-opacity:1;fill-rule:nonzero;stroke:none" transform="matrix(5.26965 0 0 -5.26965 83.045 239.326)"/><path d="m0 0 .127.482.92-.235L.761-.894A1.237 1.237 0 0 0 .292-1.1a1.124 1.124 0 0 0-.553 0 1.004 1.004 0 0 0-.541.334c-.13.169-.211.377-.23.629-.028.258-.009.521.06.795.077.298.189.55.344.758.149.206.336.352.541.426a.93.93 0 0 0 .548.014c.258-.064.447-.195.562-.383.108-.186.152-.415.128-.686L.7.79a.72.72 0 0 1-.085.373.437.437 0 0 1-.282.201.533.533 0 0 1-.506-.129C-.326 1.106-.438.882-.519.566-.605.232-.613-.04-.54-.235a.521.521 0 0 1 .375-.369.668.668 0 0 1 .292 0c.1.027.196.067.274.116l.096.367z" style="fill:#b1004a;fill-opacity:1;fill-rule:nonzero;stroke:none" transform="matrix(5.26965 0 0 -5.26965 101.584 240.03)"/><path d="M0 0h.436c0-.19.04-.334.108-.436a.413.413 0 0 1 .304-.173c.137-.017.249.009.334.082.077.069.13.158.142.269a.342.342 0 0 1-.028.182.379.379 0 0 1-.142.145C1.106.102.992.153.82.232.594.344.436.456.354.584a.933.933 0 0 0-.132.607c.021.151.065.288.141.407.081.123.181.21.312.269.12.05.273.067.438.045.273-.035.469-.132.587-.314.121-.174.165-.405.146-.672l-.445.03c0 .153-.029.265-.086.339-.056.074-.136.114-.262.129a.448.448 0 0 1-.319-.067c-.051-.04-.075-.101-.088-.173A.264.264 0 0 1 .694.995C.74.926.868.847 1.078.758a1.97 1.97 0 0 0 .448-.27.721.721 0 0 0 .205-.322c.041-.139.053-.295.034-.478a1.133 1.133 0 0 0-.162-.46.709.709 0 0 0-.332-.288.884.884 0 0 0-.488-.051c-.274.029-.481.14-.605.331C.049-.594-.013-.329 0 0" style="fill:#b1004a;fill-opacity:1;fill-rule:nonzero;stroke:none" transform="matrix(5.26965 0 0 -5.26965 108.12 242.146)"/><path d="m0 0 .128 2.93.441-.02L.443-.022Z" style="fill:#b1004a;fill-opacity:1;fill-rule:nonzero;stroke:none" transform="matrix(5.26965 0 0 -5.26965 119.14 248.306)"/><path d="m0 0-.544 2.888.419.076 1.266-1.768-.37 1.944.402.072.55-2.882-.437-.082L.037 1.979.403.08Z" style="fill:#b1004a;fill-opacity:1;fill-rule:nonzero;stroke:none" transform="matrix(5.26965 0 0 -5.26965 125.943 248.085)"/><path d="m0 0 .414.168.59-1.479c.093-.237.153-.385.193-.453a.538.538 0 0 1 .236-.217.383.383 0 0 1 .311.004c.115.05.193.112.221.202.04.086.04.18.015.279a2.78 2.78 0 0 1-.165.468l-.6 1.51.411.166.569-1.431c.133-.331.214-.567.245-.713a.863.863 0 0 0 .013-.392.668.668 0 0 0-.149-.314.879.879 0 0 0-.359-.239c-.198-.078-.356-.107-.484-.09a.74.74 0 0 0-.327.143.86.86 0 0 0-.236.261 4.393 4.393 0 0 0-.317.671Z" style="fill:#b1004a;fill-opacity:1;fill-rule:nonzero;stroke:none" transform="matrix(5.26965 0 0 -5.26965 137.298 229.657)"/><path d="m0 0-1.461 2.55.367.208L.684 1.503l-.982 1.713.355.201L1.518.874 1.135.653-.609 1.882.36.208Z" style="fill:#b1004a;fill-opacity:1;fill-rule:nonzero;stroke:none" transform="matrix(5.26965 0 0 -5.26965 154.775 239.105)"/><path d="m0 0-1.718 2.38.36.258L.357.255z" style="fill:#b1004a;fill-opacity:1;fill-rule:nonzero;stroke:none" transform="matrix(5.26965 0 0 -5.26965 165.208 232.713)"/><path d="m0 0-2.522 1.687.358.321L-.306.745l-1.037 1.986.351.312L.363.319z" style="fill:#b1004a;fill-opacity:1;fill-rule:nonzero;stroke:none" transform="matrix(5.26965 0 0 -5.26965 171.535 227.82)"/><path d="m0 0-2.241 1.892 1.047 1.245.382-.32-.761-.903.495-.419.707.842.384-.324-.716-.842.607-.51.795.934.383-.318Z" style="fill:#b1004a;fill-opacity:1;fill-rule:nonzero;stroke:none" transform="matrix(5.26965 0 0 -5.26965 178.069 221.71)"/><path d="m0 0 .165.277c.118.181.173.297.182.362a.274.274 0 0 1-.04.166.478.478 0 0 1-.166.153.441.441 0 0 1-.235.077.243.243 0 0 1-.18-.082A2.152 2.152 0 0 1-.453.686L-.634.392Zm1.203-1.271L-1.292.277l.488.795c.129.199.242.326.335.389.102.064.23.087.375.071.154-.019.3-.071.445-.16.19-.119.315-.256.392-.414a.67.67 0 0 0 0-.513c.112.047.226.068.335.075.109.004.286-.007.532-.04l.631-.077-.276-.45-.71.069C.997.044.832.06.762.052A.35.35 0 0 1 .594.005a.453.453 0 0 1-.147-.176L.395-.245l1.041-.649Z" style="fill:#b1004a;fill-opacity:1;fill-rule:nonzero;stroke:none" transform="matrix(5.26965 0 0 -5.26965 179.198 205.82)"/><path d="m0 0 .128.416C.314.364.467.352.581.387.697.419.777.5.835.624c.06.132.069.248.023.345a.401.401 0 0 1-.217.215.312.312 0 0 1-.174.032.4.4 0 0 1-.185-.097A4.167 4.167 0 0 1 .019.85C-.146.669-.299.555-.444.511a.95.95 0 0 0-.631.056 1.102 1.102 0 0 0-.342.263.638.638 0 0 0-.153.369c-.022.141.015.282.081.438.112.253.27.404.475.468.202.057.432.038.687-.064l-.167-.419c-.144.047-.258.052-.342.023a.375.375 0 0 1-.206-.216.413.413 0 0 1-.033-.317.282.282 0 0 1 .142-.143.272.272 0 0 1 .19-.008c.077.022.196.121.343.292.152.166.282.285.391.35a.774.774 0 0 0 .375.098 1.175 1.175 0 0 0 .852-.403.701.701 0 0 0 .174-.403.905.905 0 0 0-.097-.479C1.182.159 1.016 0 .798-.066.581-.131.314-.108 0 0" style="fill:#b1004a;fill-opacity:1;fill-rule:nonzero;stroke:none" transform="matrix(5.26965 0 0 -5.26965 187.092 200.133)"/><path d="m0 0-2.766.98.146.416L.152.419Z" style="fill:#b1004a;fill-opacity:1;fill-rule:nonzero;stroke:none" transform="matrix(5.26965 0 0 -5.26965 196.28 191.39)"/><path d="m0 0-2.349.659-.174-.627-.482.134.473 1.679.477-.134-.174-.624L.116.429Z" style="fill:#b1004a;fill-opacity:1;fill-rule:nonzero;stroke:none" transform="matrix(5.26965 0 0 -5.26965 198.62 184.319)"/><path d="m0 0-1.215.225-1.82-.485.097.521 1.234.289-1.045.707.088.504L-1.129.659.08.439z" style="fill:#b1004a;fill-opacity:1;fill-rule:nonzero;stroke:none" transform="matrix(5.26965 0 0 -5.26965 201.149 173.775)"/><path d="M0 0a.68.68 0 1 0-1.362 0c0 .376.303.686.684.686C-.302.686 0 .376 0 0" style="fill:#b1004a;fill-opacity:1;fill-rule:nonzero;stroke:none" transform="matrix(5.26965 0 0 -5.26965 49.608 154.852)"/><path d="M0 0a.68.68 0 1 0-1.361 0c0 .376.302.686.678.686C-.304.686 0 .376 0 0" style="fill:#b1004a;fill-opacity:1;fill-rule:nonzero;stroke:none" transform="matrix(5.26965 0 0 -5.26965 194.132 154.852)"/></g></svg>