<svg xmlns="http://www.w3.org/2000/svg" width="175.27802mm" height="171.31786mm" viewBox="0 0 175.27802 171.31786"><path d="M189.166 103.133c-.286.374-.424.844-.629 1.11-.245.317-.525.351-.72.2-.196-.15-.234-.43.01-.748.206-.265.626-.518.915-.89.382-.496.32-.923-.155-1.226a1.52 1.52 0 0 1-.314.854c-.352.456-.69.631-.992 1.015-.432.548-.324 1.165.133 1.517.457.353 1.08.302 1.501-.257.294-.391.378-.76.73-1.216.257-.333.679-.552.884-.62-.49-.452-.98-.235-1.363.26M190.98 99.755a1.87 1.87 0 0 1 .405-.888c-.59-.126-.87.268-.941.827-.054.423.056.853.02 1.153-.047.358-.248.514-.47.486-.222-.029-.378-.228-.334-.587.038-.3.25-.69.303-1.11.07-.562-.173-.865-.68-.885.075.147.193.431.146.81-.065.514-.248.806-.307 1.243-.086.626.281 1.055.8 1.12.514.064.976-.261 1.048-.888.05-.44-.054-.765.01-1.28M190.318 97.937c-.193.06-.397-.043-.496-.354-.084-.26-.059-.658-.175-1.025-.155-.485-.469-.64-.892-.465.117.093.322.28.426.608.143.446.105.753.222 1.133.168.544.631.757 1.078.613.448-.143.702-.584.523-1.125-.127-.377-.334-.605-.478-1.052a1.652 1.652 0 0 1-.005-.88c-.53.12-.612.55-.457 1.034.117.367.37.676.453.937.1.31-.006.514-.198.576M187.349 94.037c.13.037.364.125.56.363.271.325.343.596.57.873.324.4.784.42 1.11.15.326-.271.39-.728.057-1.12-.233-.272-.486-.393-.756-.717a1.518 1.518 0 0 1-.303-.735c-.403.28-.326.666-.032 1.02.222.267.538.44.696.63.188.227.167.432.028.548-.14.116-.346.1-.534-.127-.158-.19-.271-.531-.494-.798-.293-.354-.608-.379-.902-.087M187.763 93.165c.184-.336.086-.737-.324-.956-.287-.152-.538-.17-.872-.353a1.358 1.358 0 0 1-.498-.517c-.246.37-.052.667.31.868.276.15.598.19.795.299.233.126.284.304.205.45-.08.145-.258.197-.491.07-.195-.107-.404-.357-.678-.508-.364-.197-.638-.114-.788.228.121-.012.347-.014.593.118.334.185.485.387.767.545.404.227.797.093.98-.244M184.642 92.029c-.2-.028-.455-.175-.733-.215-.37-.055-.575.103-.595.438a.91.91 0 0 1 .537-.085c.34.05.533.175.82.22.414.065.705-.173.755-.513.05-.343-.161-.653-.575-.71-.289-.039-.509.026-.85-.024a1.237 1.237 0 0 1-.583-.28c-.092.388.166.58.536.636.28.04.566-.027.765.002.237.035.338.17.315.318-.021.146-.155.248-.392.213M186.102 105.68c-.454.202-.818.57-1.14.71-.386.172-.662.063-.768-.175-.105-.238 0-.515.387-.687.322-.142.838-.164 1.292-.364.603-.266.76-.692.474-1.21a1.616 1.616 0 0 1-.721.63c-.554.247-.955.239-1.426.442-.677.29-.886.915-.64 1.47.245.555.848.822 1.517.515.468-.212.734-.513 1.287-.757.406-.18.904-.17 1.132-.129-.229-.666-.793-.71-1.394-.445M181.914 105.026c-.471-.203-.873-.195-1.427-.441a1.604 1.604 0 0 1-.72-.631c-.286.518-.129.944.474 1.21.455.2.97.222 1.292.364.387.172.491.449.387.687-.106.238-.382.347-.769.176-.322-.142-.684-.509-1.139-.711-.602-.265-1.166-.22-1.393.445.226-.042.726-.052 1.132.129.553.244.817.545 1.286.757.67.307 1.272.04 1.519-.515.244-.555.036-1.18-.642-1.47M177.841 102.433a1.535 1.535 0 0 1-.315-.854c-.474.303-.535.73-.153 1.225.288.374.71.626.914.892.245.316.207.596.01.747-.196.151-.474.117-.72-.2-.204-.266-.342-.736-.63-1.11-.382-.495-.872-.713-1.363-.261.207.068.629.287.886.62.35.455.436.825.729 1.217.421.558 1.045.609 1.501.256.457-.352.567-.968.133-1.517-.302-.383-.64-.56-.992-1.015M176.194 101.923c.515-.064.884-.493.798-1.12-.06-.436-.241-.728-.306-1.241-.048-.38.07-.664.145-.81-.506.019-.75.322-.68.883.054.421.265.811.303 1.11.044.36-.113.56-.335.588-.22.028-.423-.128-.466-.486-.038-.3.07-.73.017-1.153-.07-.56-.351-.953-.942-.827.132.147.358.51.406.888.065.516-.039.842.01 1.281.071.627.533.952 1.05.887M175.633 98.447c.446.145.911-.07 1.077-.614.118-.378.08-.687.222-1.132a1.25 1.25 0 0 1 .427-.608c-.423-.177-.736-.02-.892.465-.117.366-.092.765-.174 1.025-.1.31-.304.415-.496.353s-.299-.267-.2-.575c.084-.26.336-.57.453-.936.156-.485.075-.914-.457-1.036.051.17.1.554-.005.88-.142.447-.351.676-.476 1.053-.18.541.073.981.521 1.125M177.636 95.273c.226-.278.298-.547.567-.873.2-.238.433-.326.563-.362-.295-.293-.61-.268-.903.085-.222.268-.336.61-.493.8-.188.225-.395.242-.534.126-.14-.115-.16-.321.027-.549.157-.19.474-.363.696-.63.294-.353.372-.74-.032-1.02-.015.16-.106.497-.302.737-.271.322-.524.445-.756.716-.333.392-.27.85.057 1.12.326.27.785.25 1.11-.15M180.692 92.746c-.15-.342-.423-.426-.787-.227-.275.15-.483.4-.679.507-.234.127-.412.074-.49-.07-.08-.145-.029-.323.206-.451.194-.108.517-.149.792-.299.363-.2.556-.497.311-.866a1.37 1.37 0 0 1-.498.516c-.334.183-.586.2-.872.352-.409.219-.507.622-.324.957.184.337.577.471.98.244.284-.158.435-.361.77-.545.244-.133.47-.13.59-.118M182.206 91.814c-.281.04-.534.187-.734.214-.237.035-.372-.065-.393-.212-.02-.148.08-.283.315-.318.2-.03.486.038.765-.003.372-.054.63-.246.536-.635a1.234 1.234 0 0 1-.583.28c-.341.05-.558-.015-.85.024-.413.056-.623.367-.573.709.05.34.34.578.754.513.287-.045.478-.17.82-.22a.93.93 0 0 1 .538.085c-.02-.335-.224-.492-.595-.437M182.872 96.222c.25 0 .45-.246.45-.55 0-.303-.2-.55-.45-.55-.249 0-.45.247-.45.55 0 .304.201.55.45.55" style="fill:#0f218b;fill-opacity:1;fill-rule:nonzero;stroke:none;stroke-width:.896327" transform="matrix(10.52313 0 0 10.52313 -1838.688 -956.13)"/><path d="M186.54 101.205c0 1.272-.79 1.713-1.88 2.2-.637.283-1.11.483-1.602.93-.49-.447-.964-.647-1.6-.93-1.089-.487-1.879-.928-1.879-2.2v-3.977h6.96zm-6.96-5c.525-.32.521-.867.521-1.059v-.293h.382v.293c0 .192-.004.74.521 1.059v.281a1.302 1.302 0 0 1-.713-.568c-.143.267-.45.49-.712.568zm1.319-.859h.443v-.209c0-.183-.086-.222-.174-.222v-.062h.558v1.633h-.384v-.857h-.443zm1.973-.506a.833.833 0 1 1 0 1.665.833.833 0 0 1 0-1.665m.89.013h.559v1.633h-.384v-1.349c0-.183-.087-.222-.175-.222zm.93.666h1.452v-.384h-1.451v-.282h1.835v.948h-1.452v.404h1.452v.281h-1.649c-.063 0-.11-.02-.141-.062-.022-.032-.045-.065-.045-.147zm1.983-1.41h-7.231c-.31 0-.395.092-.395.404v6.7c0 2.613 2.798 2.354 4.009 3.623 1.213-1.269 4.011-1.01 4.011-3.622v-6.7c0-.313-.086-.405-.394-.405" style="fill:#0f218b;fill-opacity:1;fill-rule:nonzero;stroke:none;stroke-width:.896327" transform="matrix(10.52313 0 0 10.52313 -1838.688 -956.13)"/><path d="M183.453 97.99v-.952h-.789v.952h-2.388v3.962h.788v-3.174h.804v3.174h.788v-3.174h.805v3.174h.788v-3.174h.805v3.174h.789V97.99z" style="fill:#0f218b;fill-opacity:1;fill-rule:nonzero;stroke:none;stroke-width:.896327" transform="matrix(10.52313 0 0 10.52313 -1838.688 -956.13)"/></svg>