<svg xmlns="http://www.w3.org/2000/svg" width="541.81702" height="534.53809" x="0px" y="0px" viewBox="0 0 541.81702 534.53809"><path fill="none" d="M-11.234-4.855h558.221v550.359H-11.234z" style="fill:#08091c;fill-opacity:0"/><defs><clipPath id="a" clipPathUnits="userSpaceOnUse"><path d="M-94.314 109.203h841.89v-595.275h-841.89Z"/></clipPath><clipPath id="b" clipPathUnits="userSpaceOnUse"><path d="M-94.314 105.504h841.89v-595.275h-841.89Z"/></clipPath><clipPath id="c" clipPathUnits="userSpaceOnUse"><path d="M-81.24 96.175h841.89V-499.1H-81.24Z"/></clipPath><clipPath id="d" clipPathUnits="userSpaceOnUse"><path d="M-89.783 72.792h841.89v-595.275h-841.89Z"/></clipPath><clipPath id="e" clipPathUnits="userSpaceOnUse"><path d="M-98.694 72.878h841.89v-595.275h-841.89Z"/></clipPath><clipPath id="f" clipPathUnits="userSpaceOnUse"><path d="M-76.547 63.003h841.89v-595.275h-841.89Z"/></clipPath><clipPath id="g" clipPathUnits="userSpaceOnUse"><path d="M-112.331 105.98h841.89v-595.275h-841.89Z"/></clipPath><clipPath id="h" clipPathUnits="userSpaceOnUse"><path d="M-72.446 102.101h841.89v-595.275h-841.89Z"/></clipPath><clipPath id="i" clipPathUnits="userSpaceOnUse"><path d="M-58.78 136.646h841.89v-595.275H-58.78Z"/></clipPath><clipPath id="j" clipPathUnits="userSpaceOnUse"><path d="M-55.409 123.314h841.89V-471.96h-841.89Z"/></clipPath><clipPath id="k" clipPathUnits="userSpaceOnUse"><path d="M-45.72 126.18h841.89v-595.276H-45.72Z"/></clipPath><clipPath id="l" clipPathUnits="userSpaceOnUse"><path d="M-45.72 126.18h841.89v-595.276H-45.72Z"/></clipPath><clipPath id="m" clipPathUnits="userSpaceOnUse"><path d="M-34.16 110.96h841.89v-595.274H-34.16Z"/></clipPath><clipPath id="n" clipPathUnits="userSpaceOnUse"><path d="M-42.521 103.156h841.89V-492.12h-841.89Z"/></clipPath><clipPath id="o" clipPathUnits="userSpaceOnUse"><path d="M-40.589 91.16h841.89v-595.276h-841.89Z"/></clipPath><clipPath id="p" clipPathUnits="userSpaceOnUse"><path d="M-31.431 77.858h841.89v-595.275h-841.89Z"/></clipPath><clipPath id="q" clipPathUnits="userSpaceOnUse"><path d="M-31.431 77.858h841.89v-595.275h-841.89Z"/></clipPath><clipPath id="r" clipPathUnits="userSpaceOnUse"><path d="M-45.323 62.33h841.89v-595.275h-841.89Z"/></clipPath><clipPath id="s" clipPathUnits="userSpaceOnUse"><path d="M-50.508 53.746h841.89v-595.275h-841.89Z"/></clipPath><clipPath id="t" clipPathUnits="userSpaceOnUse"><path d="M-48.801 39.02h841.89v-595.274h-841.89Z"/></clipPath><clipPath id="u" clipPathUnits="userSpaceOnUse"><path d="M-52.468 35.852h841.89v-595.275h-841.89Z"/></clipPath><clipPath id="v" clipPathUnits="userSpaceOnUse"><path d="M-63.743 31.565h841.89V-563.71h-841.89Z"/></clipPath><clipPath id="w" clipPathUnits="userSpaceOnUse"><path d="M-81.08 25.358h841.89v-595.275H-81.08Z"/></clipPath><clipPath id="x" clipPathUnits="userSpaceOnUse"><path d="M-86.53 23.114h841.89V-572.16H-86.53Z"/></clipPath><clipPath id="y" clipPathUnits="userSpaceOnUse"><path d="M-86.53 23.114h841.89V-572.16H-86.53Z"/></clipPath><clipPath id="z" clipPathUnits="userSpaceOnUse"><path d="M-97.641 31.492h841.89v-595.275h-841.89Z"/></clipPath><clipPath id="A" clipPathUnits="userSpaceOnUse"><path d="M-105.84 32.683h841.89v-595.275h-841.89Z"/></clipPath><clipPath id="B" clipPathUnits="userSpaceOnUse"><path d="M-119.381 38.162h841.89v-595.275h-841.89Z"/></clipPath><clipPath id="C" clipPathUnits="userSpaceOnUse"><path d="M-128.324 37.152h841.89v-595.275h-841.89Z"/></clipPath><clipPath id="D" clipPathUnits="userSpaceOnUse"><path d="M-134.83 50.603h841.89v-595.275h-841.89Z"/></clipPath><clipPath id="E" clipPathUnits="userSpaceOnUse"><path d="M-147.807 53.045h841.89V-542.23h-841.89Z"/></clipPath><clipPath id="F" clipPathUnits="userSpaceOnUse"><path d="M-147.807 53.045h841.89V-542.23h-841.89Z"/></clipPath><clipPath id="G" clipPathUnits="userSpaceOnUse"><path d="M-144.333 66.774h841.89V-528.5h-841.89Z"/></clipPath><clipPath id="H" clipPathUnits="userSpaceOnUse"><path d="M-158.805 85.425h841.89V-509.85h-841.89Z"/></clipPath><clipPath id="I" clipPathUnits="userSpaceOnUse"><path d="M-157.756 97.302h841.89v-595.275h-841.89Z"/></clipPath><clipPath id="J" clipPathUnits="userSpaceOnUse"><path d="M-151.479 100.884h841.89V-494.39h-841.89Z"/></clipPath><clipPath id="K" clipPathUnits="userSpaceOnUse"><path d="M-147.17 117.279h841.89v-595.275h-841.89Z"/></clipPath><clipPath id="L" clipPathUnits="userSpaceOnUse"><path d="M-137.861 116.636h841.89v-595.275h-841.89Z"/></clipPath><clipPath id="M" clipPathUnits="userSpaceOnUse"><path d="M-139.518 131.814h841.89V-463.46h-841.89Z"/></clipPath><clipPath id="N" clipPathUnits="userSpaceOnUse"><path d="M-129.327 133.421h841.89v-595.275h-841.89Z"/></clipPath><clipPath id="O" clipPathUnits="userSpaceOnUse"><path d="M-83.706 149.638h841.89v-595.275h-841.89Z"/></clipPath><clipPath id="P" clipPathUnits="userSpaceOnUse"><path d="M-92.237 144.894h841.89V-450.38h-841.89Z"/></clipPath><clipPath id="Q" clipPathUnits="userSpaceOnUse"><path d="M-92.237 144.894h841.89V-450.38h-841.89Z"/></clipPath><clipPath id="R" clipPathUnits="userSpaceOnUse"><path d="M-97.678 143.685h841.89V-451.59h-841.89Z"/></clipPath><clipPath id="S" clipPathUnits="userSpaceOnUse"><path d="M-105.348 146.492h841.89v-595.275h-841.89Z"/></clipPath><clipPath id="T" clipPathUnits="userSpaceOnUse"><path d="M-116.048 102.621h841.89v-595.275h-841.89Z"/></clipPath></defs><path d="M0 0c13.652 0 24.718 11.068 24.718 24.719 0 13.653-11.066 24.719-24.718 24.719s-24.719-11.066-24.719-24.719C-24.719 11.068-13.652 0 0 0" clip-path="url(#a)" style="fill:#1c63b7;fill-opacity:1;fill-rule:nonzero;stroke:#1c63b7;stroke-width:1;stroke-linecap:butt;stroke-linejoin:miter;stroke-miterlimit:4;stroke-dasharray:none;stroke-opacity:1" transform="matrix(4.0974 0 0 -4.0974 271.545 365.887)"/><path d="M0 0c11.467 0 20.764 9.295 20.764 20.763 0 11.469-9.297 20.765-20.764 20.765-11.467 0-20.765-9.296-20.765-20.765C-20.765 9.295-11.467 0 0 0" clip-path="url(#b)" style="fill:#1c63b7;fill-opacity:1;fill-rule:nonzero;stroke:#fff;stroke-width:4;stroke-linecap:butt;stroke-linejoin:miter;stroke-miterlimit:4;stroke-dasharray:none;stroke-opacity:1" transform="matrix(4.0974 0 0 -4.0974 271.545 350.73)"/><path d="m0 0 12.878 15.176L25.819 0h-5.13l-7.684 9.405L5.14 0Z" clip-path="url(#c)" style="fill:#fff;fill-opacity:1;fill-rule:nonzero;stroke:none" transform="matrix(4.0974 0 0 -4.0974 217.974 312.509)"/><path d="M0 0v-18.423h-4.088v14.362h-4.284V.043Z" clip-path="url(#d)" style="fill:#fff;fill-opacity:1;fill-rule:nonzero;stroke:none" transform="matrix(4.0974 0 0 -4.0974 252.98 216.698)"/><path d="M0 0v-18.424h4.086V-4.06h4.286V.042z" clip-path="url(#e)" style="fill:#fff;fill-opacity:1;fill-rule:nonzero;stroke:none" transform="matrix(4.0974 0 0 -4.0974 289.493 217.05)"/><path d="m0 0-14.018 12.247s20.176.171 31.588 12.375c0 0 8.769-11.243 32.19-12.546L35.737-.171S18.982 15.153 0 0Z" clip-path="url(#f)" style="fill:none;stroke:#1c63b7;stroke-width:3;stroke-linecap:butt;stroke-linejoin:miter;stroke-miterlimit:4;stroke-dasharray:none;stroke-opacity:1" transform="matrix(4.0974 0 0 -4.0974 198.748 176.589)"/><path d="m0 0 14.019-12.246s-20.176-.17-31.587-12.375c0 0-8.872 11.248-32.19 12.547L-35.735.172S-18.981-15.152 0 0z" clip-path="url(#g)" style="fill:none;stroke:#1c63b7;stroke-width:3;stroke-linecap:butt;stroke-linejoin:miter;stroke-miterlimit:4;stroke-dasharray:none;stroke-opacity:1" transform="matrix(4.0974 0 0 -4.0974 345.368 352.683)"/><path d="m0 0-13.896-12.111s1.478 18.267-10.726 29.68c0 0 9.423 6.916 10.726 30.336L.171 35.736S-14.58 19.007 0 0Z" clip-path="url(#h)" style="fill:none;stroke:#1c63b7;stroke-width:3;stroke-linecap:butt;stroke-linejoin:miter;stroke-miterlimit:4;stroke-dasharray:none;stroke-opacity:1" transform="matrix(4.0974 0 0 -4.0974 181.944 336.79)"/><path d="M0 0c-.421-.752-.562-1.432-.421-2.039.167-.658.663-1.246 1.487-1.76.689-.429 1.347-.635 1.975-.611.7.023 1.248.355 1.646.992.308.492.37 1.02.189 1.582-.168.506-.628 1.252-1.38 2.242l-.078.102C2.614 1.623 2.135 2.406 1.98 2.855c-.242.672-.157 1.338.256 2.002.542.868 1.253 1.344 2.135 1.432.775.07 1.588-.158 2.439-.689 1.011-.631 1.617-1.418 1.818-2.366.203-.904.016-1.82-.562-2.748l-.447.28c.535.857.682 1.699.441 2.523-.212.758-.701 1.375-1.466 1.852-.791.494-1.529.701-2.216.621-.688-.08-1.235-.446-1.644-1.102-.338-.543-.396-1.127-.171-1.75.157-.465.587-1.176 1.287-2.131l.191-.261c.774-1.026 1.243-1.75 1.405-2.17.247-.662.172-1.311-.225-1.95-.446-.712-1.051-1.138-1.816-1.275-.819-.139-1.687.078-2.606.65-1.07.668-1.658 1.457-1.763 2.368-.078.65.094 1.363.518 2.138z" clip-path="url(#i)" style="fill:#1c63b7;fill-opacity:1;fill-rule:nonzero;stroke:#1c63b7;stroke-width:1.701;stroke-linecap:butt;stroke-linejoin:miter;stroke-miterlimit:4;stroke-dasharray:none;stroke-opacity:1" transform="matrix(4.0974 0 0 -4.0974 125.945 478.334)"/><path d="m0 0 5.151-4.621-7.369-8.217-5.063 4.541.337.375 4.687-4.203L.786-8.734l-4.34 3.894.351.391 4.341-3.893 3.318 3.699L-.321-.357z" clip-path="url(#j)" style="fill:#1c63b7;fill-opacity:1;fill-rule:nonzero;stroke:#1c63b7;stroke-width:1.701;stroke-linecap:butt;stroke-linejoin:miter;stroke-miterlimit:4;stroke-dasharray:none;stroke-opacity:1" transform="matrix(4.0974 0 0 -4.0974 112.134 423.707)"/><path d="M0 0c1.194.055 2.362.518 3.503 1.387 1.133.865 1.888 1.867 2.264 3.011.42 1.252.242 2.389-.537 3.409-.783 1.027-1.837 1.507-3.162 1.443-1.197-.068-2.361-.535-3.495-1.4-1.14-.868-1.898-1.87-2.273-2.998-.413-1.262-.228-2.405.555-3.434C-2.374.408-1.325-.066 0 0m-4.209 4.963c.392 1.271 1.21 2.381 2.455 3.33 1.245.949 2.527 1.441 3.85 1.479 1.467.058 2.645-.493 3.533-1.657.875-1.148 1.093-2.426.653-3.834-.39-1.256-1.209-2.359-2.453-3.308-1.245-.95-2.528-1.45-3.852-1.5-1.474-.051-2.649.496-3.525 1.644-.882 1.156-1.102 2.438-.661 3.846" clip-path="url(#k)" style="fill:#1c63b7;fill-opacity:1;fill-rule:nonzero;stroke:none" transform="matrix(4.0974 0 0 -4.0974 72.435 435.447)"/><path d="M0 0c1.194.055 2.362.518 3.503 1.387 1.133.865 1.888 1.867 2.264 3.011.42 1.252.242 2.389-.537 3.409-.783 1.027-1.837 1.507-3.162 1.443-1.197-.068-2.361-.535-3.495-1.4-1.14-.868-1.898-1.87-2.273-2.998-.413-1.262-.228-2.405.555-3.434C-2.374.408-1.325-.066 0 0Zm-4.209 4.963c.392 1.271 1.21 2.381 2.455 3.33 1.245.949 2.527 1.441 3.85 1.479 1.467.058 2.645-.493 3.533-1.657.875-1.148 1.093-2.426.653-3.834-.39-1.256-1.209-2.359-2.453-3.308-1.245-.95-2.528-1.45-3.852-1.5-1.474-.051-2.649.496-3.525 1.644-.882 1.156-1.102 2.438-.661 3.846Z" clip-path="url(#l)" style="fill:none;stroke:#1c63b7;stroke-width:1.701;stroke-linecap:butt;stroke-linejoin:miter;stroke-miterlimit:4;stroke-dasharray:none;stroke-opacity:1" transform="matrix(4.0974 0 0 -4.0974 72.435 435.447)"/><path d="m0 0 6.882 3.369c.991.484 1.881.613 2.671.391.899-.252 1.622-.94 2.172-2.061.558-1.14.661-2.131.308-2.971-.31-.732-.966-1.341-1.965-1.83L3.172-6.48l-.221.453 6.923 3.39c.998.489 1.595 1.115 1.791 1.879.153.643.021 1.393-.397 2.246-.427.871-.956 1.436-1.584 1.698-.714.294-1.58.195-2.597-.303L.231-.475Z" clip-path="url(#m)" style="fill:#1c63b7;fill-opacity:1;fill-rule:nonzero;stroke:#1c63b7;stroke-width:1.701;stroke-linecap:butt;stroke-linejoin:miter;stroke-miterlimit:4;stroke-dasharray:none;stroke-opacity:1" transform="matrix(4.0974 0 0 -4.0974 25.067 373.09)"/><path d="m0 0-1.572 5.348.462.136L.604-.348-9.978-3.459l-.142.482Z" clip-path="url(#n)" style="fill:#1c63b7;fill-opacity:1;fill-rule:nonzero;stroke:#1c63b7;stroke-width:1.701;stroke-linecap:butt;stroke-linejoin:miter;stroke-miterlimit:4;stroke-dasharray:none;stroke-opacity:1" transform="matrix(4.0974 0 0 -4.0974 59.328 341.11)"/><path d="m0 0-11.145-3.17-.021.525L-1.092.238-11.385 2.43l-.023.525L-1.341 6.02l-10.283 1.994-.025.555L-.272 6.351l.022-.541-10.094-3.095L-.024.54Z" clip-path="url(#o)" style="fill:#1c63b7;fill-opacity:1;fill-rule:nonzero;stroke:#1c63b7;stroke-width:1.701;stroke-linecap:butt;stroke-linejoin:miter;stroke-miterlimit:4;stroke-dasharray:none;stroke-opacity:1" transform="matrix(4.0974 0 0 -4.0974 51.411 291.956)"/><path d="M0 0c.853-.839 1.985-1.382 3.398-1.628 1.404-.243 2.653-.114 3.748.387 1.205.543 1.917 1.446 2.136 2.71.221 1.273-.143 2.373-1.091 3.301-.864.832-1.998 1.369-3.401 1.613-1.414.245-2.662.121-3.746-.371-1.206-.555-1.92-1.467-2.141-2.74C-1.313 2.018-.949.928 0 0m.779 6.461c1.2.575 2.57.729 4.112.461 1.543-.267 2.775-.873 3.701-1.818 1.041-1.036 1.438-2.276 1.187-3.718-.248-1.423-1.037-2.45-2.369-3.085-1.188-.567-2.552-.716-4.094-.448-1.543.267-2.782.87-3.718 1.806-1.04 1.045-1.437 2.28-1.19 3.702.249 1.434 1.039 2.466 2.371 3.1" clip-path="url(#p)" style="fill:#1c63b7;fill-opacity:1;fill-rule:nonzero;stroke:none" transform="matrix(4.0974 0 0 -4.0974 13.888 237.453)"/><path d="M0 0c.853-.839 1.985-1.382 3.398-1.628 1.404-.243 2.653-.114 3.748.387 1.205.543 1.917 1.446 2.136 2.71.221 1.273-.143 2.373-1.091 3.301-.864.832-1.998 1.369-3.401 1.613-1.414.245-2.662.121-3.746-.371-1.206-.555-1.92-1.467-2.141-2.74C-1.313 2.018-.949.928 0 0Zm.779 6.461c1.2.575 2.57.729 4.112.461 1.543-.267 2.775-.873 3.701-1.818 1.041-1.036 1.438-2.276 1.187-3.718-.248-1.423-1.037-2.45-2.369-3.085-1.188-.567-2.552-.716-4.094-.448-1.543.267-2.782.87-3.718 1.806-1.04 1.045-1.437 2.28-1.19 3.702.249 1.434 1.039 2.466 2.371 3.1z" clip-path="url(#q)" style="fill:none;stroke:#1c63b7;stroke-width:1.701;stroke-linecap:butt;stroke-linejoin:miter;stroke-miterlimit:4;stroke-dasharray:none;stroke-opacity:1" transform="matrix(4.0974 0 0 -4.0974 13.888 237.453)"/><path d="m0 0-9.147 3.63 7.836-6.932-.127-.322-10.451.311 9.135-3.626-.194-.491-10.253 4.071.223.56 10.675-.316-7.979 7.106.234.588L.203.51Z" clip-path="url(#r)" style="fill:#1c63b7;fill-opacity:1;fill-rule:nonzero;stroke:#1c63b7;stroke-width:1.701;stroke-linecap:butt;stroke-linejoin:miter;stroke-miterlimit:4;stroke-dasharray:none;stroke-opacity:1" transform="matrix(4.0974 0 0 -4.0974 70.808 173.831)"/><path d="m0 0-3.727-5.831-9.3 5.944 3.661 5.729.426-.271-3.391-5.304 3.84-2.456 3.139 4.914.444-.284-3.14-4.913 4.188-2.676L-.405.26z" clip-path="url(#s)" style="fill:#1c63b7;fill-opacity:1;fill-rule:nonzero;stroke:#1c63b7;stroke-width:1.701;stroke-linecap:butt;stroke-linejoin:miter;stroke-miterlimit:4;stroke-dasharray:none;stroke-opacity:1" transform="matrix(4.0974 0 0 -4.0974 92.053 138.66)"/><path d="m0 0 8.091-7.495-.256-.277-11.603 2.179 7.331-6.792-.342-.369-8.092 7.496.297.319 11.463-2.13-7.231 6.7z" clip-path="url(#t)" style="fill:#1c63b7;fill-opacity:1;fill-rule:nonzero;stroke:#1c63b7;stroke-width:1.701;stroke-linecap:butt;stroke-linejoin:miter;stroke-miterlimit:4;stroke-dasharray:none;stroke-opacity:1" transform="matrix(4.0974 0 0 -4.0974 85.061 78.323)"/><path d="m0 0 .65.535 1.944-2.789-.22-.181Z" clip-path="url(#u)" style="fill:#1c63b7;fill-opacity:1;fill-rule:nonzero;stroke:#1c63b7;stroke-width:1.701;stroke-linecap:butt;stroke-linejoin:miter;stroke-miterlimit:4;stroke-dasharray:none;stroke-opacity:1" transform="matrix(4.0974 0 0 -4.0974 100.084 65.338)"/><path d="M0 0c-.489.711-1.037 1.137-1.644 1.278-.666.142-1.411-.045-2.236-.558C-4.569.291-5.042-.209-5.3-.781c-.287-.639-.232-1.278.165-1.916A1.796 1.796 0 0 1-3.8-3.564c.529-.074 1.402.009 2.621.249l.126.025c1.355.228 2.269.313 2.742.254.709-.079 1.27-.449 1.682-1.114.54-.868.654-1.716.344-2.546-.279-.728-.843-1.357-1.694-1.885-1.013-.63-1.987-.825-2.926-.59-.901.219-1.64.791-2.217 1.719l.446.277c.534-.859 1.224-1.361 2.071-1.509.773-.143 1.543.023 2.309.499.792.492 1.302 1.064 1.534 1.715.233.652.145 1.305-.263 1.96-.338.543-.837.853-1.495.927C.993-3.52.166-3.591-1-3.798l-.319-.056c-1.263-.242-2.117-.342-2.566-.303-.703.069-1.253.424-1.651 1.062-.443.714-.558 1.446-.343 2.192.236.797.814 1.48 1.733 2.05 1.073.668 2.039.846 2.903.539C-.625 1.47-.062 1 .446.278Z" clip-path="url(#v)" style="fill:#1c63b7;fill-opacity:1;fill-rule:nonzero;stroke:#1c63b7;stroke-width:1.701;stroke-linecap:butt;stroke-linejoin:miter;stroke-miterlimit:4;stroke-dasharray:none;stroke-opacity:1" transform="matrix(4.0974 0 0 -4.0974 146.284 47.772)"/><path d="M0 0c-.567 1.08-1.201 1.758-1.9 2.033-.559.22-1.278.21-2.157-.033-1.082-.298-1.873-.957-2.371-1.978-.558-1.142-.619-2.506-.182-4.093.417-1.518 1.093-2.654 2.028-3.406.977-.792 2.069-1.023 3.276-.691.878.241 1.538.756 1.976 1.542.459.822.59 1.782.392 2.881l.521.145c.272-1.671-.023-2.974-.889-3.908-.51-.562-1.186-.959-2.026-1.188-1.139-.315-2.209-.147-3.21.505-1.183.766-2.032 2.089-2.548 3.964-.45 1.635-.407 3.073.131 4.313.531 1.239 1.445 2.036 2.739 2.393 1.168.321 2.141.279 2.917-.125C-.594 1.967.01 1.229.507.139z" clip-path="url(#w)" style="fill:#1c63b7;fill-opacity:1;fill-rule:nonzero;stroke:#1c63b7;stroke-width:1.701;stroke-linecap:butt;stroke-linejoin:miter;stroke-miterlimit:4;stroke-dasharray:none;stroke-opacity:1" transform="matrix(4.0974 0 0 -4.0974 217.32 22.34)"/><path d="M0 0c-.612-1.028-.87-2.258-.77-3.688.097-1.421.519-2.604 1.267-3.548.815-1.04 1.861-1.516 3.141-1.428 1.29.089 2.271.704 2.945 1.847.602 1.037.854 2.265.756 3.687C7.241-1.699 6.823-.517 6.086.418c-.825 1.04-1.881 1.515-3.171 1.427C1.646 1.758.674 1.143 0 0m6.46.784c.845-1.029 1.321-2.323 1.428-3.885.108-1.561-.187-2.904-.884-4.027-.757-1.259-1.866-1.937-3.327-2.039-1.441-.099-2.628.423-3.561 1.566-.834 1.018-1.305 2.308-1.412 3.869-.107 1.562.183 2.909.868 4.042.768 1.258 1.872 1.939 3.313 2.038 1.45.098 2.642-.423 3.575-1.564" clip-path="url(#x)" style="fill:#1c63b7;fill-opacity:1;fill-rule:nonzero;stroke:none" transform="matrix(4.0974 0 0 -4.0974 239.648 13.149)"/><path d="M0 0c-.612-1.028-.87-2.258-.77-3.688.097-1.421.519-2.604 1.267-3.548.815-1.04 1.861-1.516 3.141-1.428 1.29.089 2.271.704 2.945 1.847.602 1.037.854 2.265.756 3.687C7.241-1.699 6.823-.517 6.086.418c-.825 1.04-1.881 1.515-3.171 1.427C1.646 1.758.674 1.143 0 0Zm6.46.784c.845-1.029 1.321-2.323 1.428-3.885.108-1.561-.187-2.904-.884-4.027-.757-1.259-1.866-1.937-3.327-2.039-1.441-.099-2.628.423-3.561 1.566-.834 1.018-1.305 2.308-1.412 3.869-.107 1.562.183 2.909.868 4.042.768 1.258 1.872 1.939 3.313 2.038 1.45.098 2.642-.423 3.575-1.564Z" clip-path="url(#y)" style="fill:none;stroke:#1c63b7;stroke-width:1.701;stroke-linecap:butt;stroke-linejoin:miter;stroke-miterlimit:4;stroke-dasharray:none;stroke-opacity:1" transform="matrix(4.0974 0 0 -4.0974 239.648 13.149)"/><path d="m0 0 5.541-.607-.052-.479-6.043.663L.649 10.541l.501-.055Z" clip-path="url(#z)" style="fill:#1c63b7;fill-opacity:1;fill-rule:nonzero;stroke:#1c63b7;stroke-width:1.701;stroke-linecap:butt;stroke-linejoin:miter;stroke-miterlimit:4;stroke-dasharray:none;stroke-opacity:1" transform="matrix(4.0974 0 0 -4.0974 285.177 47.476)"/><path d="m0 0 5.385-1.442-.125-.464L-.611-.334 2.243 10.32l.487-.13Z" clip-path="url(#A)" style="fill:#1c63b7;fill-opacity:1;fill-rule:nonzero;stroke:#1c63b7;stroke-width:1.701;stroke-linecap:butt;stroke-linejoin:miter;stroke-miterlimit:4;stroke-dasharray:none;stroke-opacity:1" transform="matrix(4.0974 0 0 -4.0974 318.769 52.354)"/><path d="m0 0-6.302 2.858 4.56 10.052 6.192-2.809-.208-.458-5.734 2.6-1.882-4.149 5.309-2.409-.217-.481-5.31 2.409-2.053-4.524L.199.437Z" clip-path="url(#B)" style="fill:#1c63b7;fill-opacity:1;fill-rule:nonzero;stroke:#1c63b7;stroke-width:1.701;stroke-linecap:butt;stroke-linejoin:miter;stroke-miterlimit:4;stroke-dasharray:none;stroke-opacity:1" transform="matrix(4.0974 0 0 -4.0974 374.256 74.805)"/><path d="m0 0 3.236-2.271L-.018-6.91l-.333.233 1.07 1.736c-.698-.541-1.48-.748-2.345-.619-.673.09-1.354.377-2.044.862-1.15.806-1.741 1.852-1.772 3.136-.032 1.283.483 2.681 1.542 4.192.985 1.405 2.133 2.29 3.444 2.657 1.262.353 2.438.147 3.531-.619.868-.609 1.429-1.335 1.681-2.18.267-.946.117-1.935-.45-2.97l-.442.31c.469.896.59 1.74.364 2.535-.207.733-.693 1.366-1.456 1.902-.869.61-1.841.794-2.915.554-1.257-.294-2.38-1.142-3.364-2.547-.887-1.264-1.34-2.486-1.355-3.663-.007-1.233.491-2.201 1.493-2.903 1.101-.773 2.165-.961 3.192-.562.889.358 1.786 1.183 2.693 2.476L-.289-.413z" clip-path="url(#C)" style="fill:#1c63b7;fill-opacity:1;fill-rule:nonzero;stroke:#1c63b7;stroke-width:1.701;stroke-linecap:butt;stroke-linejoin:miter;stroke-miterlimit:4;stroke-dasharray:none;stroke-opacity:1" transform="matrix(4.0974 0 0 -4.0974 410.898 70.668)"/><path d="m0 0-4.842 4.944 7.885 7.724 4.759-4.857-.361-.353-4.406 4.498L-.22 8.768l4.079-4.166-.376-.369-4.08 4.165-3.549-3.476L.344.338Z" clip-path="url(#D)" style="fill:#1c63b7;fill-opacity:1;fill-rule:nonzero;stroke:#1c63b7;stroke-width:1.701;stroke-linecap:butt;stroke-linejoin:miter;stroke-miterlimit:4;stroke-dasharray:none;stroke-opacity:1" transform="matrix(4.0974 0 0 -4.0974 437.554 125.78)"/><path d="M0 0c-1.189.133-2.414-.143-3.676-.825C-4.93-1.504-5.83-2.378-6.38-3.449c-.61-1.173-.608-2.322.001-3.45.615-1.137 1.582-1.777 2.9-1.916 1.194-.118 2.417.161 3.67.84 1.262.682 2.166 1.551 2.711 2.609.604 1.183.6 2.34-.015 3.477C2.281-.769 1.319-.139 0 0m3.389-5.555C2.803-6.749 1.822-7.72.446-8.463c-1.378-.744-2.721-1.033-4.032-.863-1.459.168-2.538.895-3.234 2.184-.687 1.27-.703 2.566-.05 3.888.581 1.181 1.56 2.144 2.936 2.888C-2.557.379-1.211.674.105.519c1.464-.178 2.54-.902 3.227-2.171.691-1.28.711-2.58.057-3.903" clip-path="url(#E)" style="fill:#1c63b7;fill-opacity:1;fill-rule:nonzero;stroke:none" transform="matrix(4.0974 0 0 -4.0974 490.728 135.787)"/><path d="M0 0c-1.189.133-2.414-.143-3.676-.825C-4.93-1.504-5.83-2.378-6.38-3.449c-.61-1.173-.608-2.322.001-3.45.615-1.137 1.582-1.777 2.9-1.916 1.194-.118 2.417.161 3.67.84 1.262.682 2.166 1.551 2.711 2.609.604 1.183.6 2.34-.015 3.477C2.281-.769 1.319-.139 0 0Zm3.389-5.555C2.803-6.749 1.822-7.72.446-8.463c-1.378-.744-2.721-1.033-4.032-.863-1.459.168-2.538.895-3.234 2.184-.687 1.27-.703 2.566-.05 3.888.581 1.181 1.56 2.144 2.936 2.888C-2.557.379-1.211.674.105.519c1.464-.178 2.54-.902 3.227-2.171.691-1.28.711-2.58.057-3.903z" clip-path="url(#F)" style="fill:none;stroke:#1c63b7;stroke-width:1.701;stroke-linecap:butt;stroke-linejoin:miter;stroke-miterlimit:4;stroke-dasharray:none;stroke-opacity:1" transform="matrix(4.0974 0 0 -4.0974 490.728 135.787)"/><path d="m0 0-.156.479 10.472 3.42 1.916-5.863-.478-.156-1.76 5.385-4.245-1.387L7.29-2.836l-.479-.156-1.54 4.714Z" clip-path="url(#G)" style="fill:#1c63b7;fill-opacity:1;fill-rule:nonzero;stroke:#1c63b7;stroke-width:1.701;stroke-linecap:butt;stroke-linejoin:miter;stroke-miterlimit:4;stroke-dasharray:none;stroke-opacity:1" transform="matrix(4.0974 0 0 -4.0974 476.49 192.042)"/><path d="m0 0-11.011-.643-.021.375 9.609 6.86-9.975-.582-.03.503 11.01.642.025-.435-9.478-6.791 9.842.575z" clip-path="url(#H)" style="fill:#1c63b7;fill-opacity:1;fill-rule:nonzero;stroke:#1c63b7;stroke-width:1.701;stroke-linecap:butt;stroke-linejoin:miter;stroke-miterlimit:4;stroke-dasharray:none;stroke-opacity:1" transform="matrix(4.0974 0 0 -4.0974 535.791 268.46)"/><path d="m0 0-7.603.957c-1.094.137-1.91.518-2.448 1.139-.613.701-.842 1.674-.685 2.914.158 1.258.615 2.144 1.371 2.653.662.441 1.543.592 2.646.454L.9 7.157l-.063-.499-7.648.962c-1.103.138-1.947-.058-2.528-.591-.481-.452-.78-1.151-.899-2.095-.121-.961.01-1.723.393-2.285.435-.641 1.214-1.032 2.337-1.172L.064.522Z" clip-path="url(#I)" style="fill:#1c63b7;fill-opacity:1;fill-rule:nonzero;stroke:#1c63b7;stroke-width:1.701;stroke-linecap:butt;stroke-linejoin:miter;stroke-miterlimit:4;stroke-dasharray:none;stroke-opacity:1" transform="matrix(4.0974 0 0 -4.0974 531.494 317.127)"/><path d="m0 0-1.232-3.859c-.178-.557-.178-1.045 0-1.473.238-.57.776-.99 1.613-1.258.887-.283 1.616-.222 2.187.186.397.285.688.718.874 1.302l1.162 3.629zm-5.416 1.732.152.479 10.5-3.358-1.245-3.894c-.278-.865-.685-1.484-1.221-1.848-.661-.451-1.5-.515-2.52-.187-.648.205-1.145.496-1.486.869a1.893 1.893 0 0 0-.557 1.314c-.249-.416-.556-.669-.922-.763-.357-.096-.851-.059-1.479.111l-1.951.514-.176.039c-.245.058-.426.101-.542.127a1.363 1.363 0 0 1-.513-.072l-.158.05.212.658c.25-.007.598-.066 1.047-.177a70.71 70.71 0 0 0 1.267-.326l.959-.26c.608-.141 1.077-.149 1.412-.026.385.153.672.528.866 1.129L-.479.152z" clip-path="url(#J)" style="fill:#1c63b7;fill-opacity:1;fill-rule:nonzero;stroke:#1c63b7;stroke-width:1.701;stroke-linecap:butt;stroke-linejoin:miter;stroke-miterlimit:4;stroke-dasharray:none;stroke-opacity:1" transform="matrix(4.0974 0 0 -4.0974 505.773 331.803)"/><path d="M0 0c.778-.371 1.466-.465 2.063-.283.646.211 1.198.748 1.655 1.603.382.717.541 1.387.476 2.012-.071.697-.439 1.221-1.101 1.574a1.8 1.8 0 0 1-1.592.082C1.009 4.787.294 4.279-.642 3.459l-.095-.084c-1.059-.877-1.808-1.408-2.246-1.594-.654-.287-1.325-.246-2.014.121-.902.481-1.426 1.158-1.574 2.032-.123.769.051 1.595.522 2.48.561 1.051 1.307 1.711 2.238 1.975.888.263 1.815.138 2.779-.375l-.248-.465c-.893.476-1.742.566-2.547.267-.742-.261-1.324-.791-1.75-1.586-.438-.822-.594-1.574-.468-2.253.126-.68.528-1.202 1.21-1.565.565-.301 1.151-.32 1.758-.053.453.188 1.133.666 2.041 1.428l.246.209c.971.842 1.66 1.357 2.069 1.549.644.293 1.296.26 1.96-.092.743-.396 1.207-.973 1.397-1.725.193-.808.036-1.689-.473-2.644C3.569-.029 2.821-.67 1.921-.838 1.276-.959.554-.836-.247-.465Z" clip-path="url(#K)" style="fill:#1c63b7;fill-opacity:1;fill-rule:nonzero;stroke:#1c63b7;stroke-width:1.701;stroke-linecap:butt;stroke-linejoin:miter;stroke-miterlimit:4;stroke-dasharray:none;stroke-opacity:1" transform="matrix(4.0974 0 0 -4.0974 488.115 398.978)"/><path d="m0 0 .289.412 9.034-6.33-.289-.41z" clip-path="url(#L)" style="fill:#1c63b7;fill-opacity:1;fill-rule:nonzero;stroke:#1c63b7;stroke-width:1.701;stroke-linecap:butt;stroke-linejoin:miter;stroke-miterlimit:4;stroke-dasharray:none;stroke-opacity:1" transform="matrix(4.0974 0 0 -4.0974 449.976 396.346)"/><path d="m0 0-8.167 7.414.253.279L3.711 5.631l-7.399 6.717.338.373 8.168-7.412-.294-.325L-6.962 7 .338.373Z" clip-path="url(#M)" style="fill:#1c63b7;fill-opacity:1;fill-rule:nonzero;stroke:#1c63b7;stroke-width:1.701;stroke-linecap:butt;stroke-linejoin:miter;stroke-miterlimit:4;stroke-dasharray:none;stroke-opacity:1" transform="matrix(4.0974 0 0 -4.0974 456.762 458.535)"/><path d="m0 0-3.158-2.379-3.41 4.527.325.245L-4.923.84c-.299.832-.254 1.638.136 2.424.293.609.776 1.17 1.449 1.677 1.123.844 2.3 1.084 3.53.717 1.232-.367 2.402-1.287 3.513-2.762C4.737 1.527 5.226.16 5.171-1.197c-.056-1.311-.615-2.368-1.679-3.168-.848-.639-1.713-.947-2.593-.928-.982.039-1.878.486-2.687 1.346l.432.324C-.65-4.346.117-4.721.942-4.752c.762-.027 1.515.238 2.259.799.848.638 1.324 1.506 1.427 2.599.109 1.289-.353 2.618-1.385 3.989C2.315 3.869 1.292 4.674.177 5.053c-1.17.386-2.245.213-3.222-.524-1.075-.81-1.581-1.763-1.52-2.863.067-.957.575-2.064 1.525-3.326L-.304.402z" clip-path="url(#N)" style="fill:#1c63b7;fill-opacity:1;fill-rule:nonzero;stroke:#1c63b7;stroke-width:1.701;stroke-linecap:butt;stroke-linejoin:miter;stroke-miterlimit:4;stroke-dasharray:none;stroke-opacity:1" transform="matrix(4.0974 0 0 -4.0974 415.008 465.121)"/><path d="M0 0h-1.168v7.227h-1.674v.8c.549 0 .979.125 1.288.375.344.282.566.75.668 1.403H0Z" clip-path="url(#O)" style="fill:#1c63b7;fill-opacity:1;fill-rule:nonzero;stroke:#1c63b7;stroke-width:1;stroke-linecap:butt;stroke-linejoin:miter;stroke-miterlimit:4;stroke-dasharray:none;stroke-opacity:1" transform="matrix(4.0974 0 0 -4.0974 228.08 531.568)"/><path d="M0 0c.479.412.718 1.109.718 2.096 0 .738-.158 1.287-.474 1.646-.326.36-.817.541-1.476.541-.615 0-1.068-.195-1.359-.58-.283-.369-.424-.947-.424-1.736 0-.901.18-1.543.539-1.928.273-.301.671-.451 1.193-.451.538 0 .966.137 1.283.412m-3.388-.514c-.529.575-.794 1.364-.794 2.366 0 .976.243 1.773.73 2.39.53.668 1.265 1.002 2.205 1.002 1.273 0 2.149-.429 2.628-1.287.367-.67.551-1.795.551-3.375 0-1.547-.201-2.769-.602-3.672C.774-4.342-.145-4.969-1.427-4.969c-.974 0-1.697.301-2.166.899-.342.427-.517.947-.525 1.556h1.179c-.026-.498.076-.863.308-1.093.248-.268.67-.401 1.268-.401.676 0 1.188.295 1.539.883.35.58.563 1.481.641 2.703a1.953 1.953 0 0 0-.859-.721 2.937 2.937 0 0 0-1.192-.23c-.914 0-1.633.285-2.154.859" clip-path="url(#P)" style="fill:#1c63b7;fill-opacity:1;fill-rule:nonzero;stroke:none" transform="matrix(4.0974 0 0 -4.0974 263.034 512.13)"/><path d="M0 0c.479.412.718 1.109.718 2.096 0 .738-.158 1.287-.474 1.646-.326.36-.817.541-1.476.541-.615 0-1.068-.195-1.359-.58-.283-.369-.424-.947-.424-1.736 0-.901.18-1.543.539-1.928.273-.301.671-.451 1.193-.451.538 0 .966.137 1.283.412zm-3.388-.514c-.529.575-.794 1.364-.794 2.366 0 .976.243 1.773.73 2.39.53.668 1.265 1.002 2.205 1.002 1.273 0 2.149-.429 2.628-1.287.367-.67.551-1.795.551-3.375 0-1.547-.201-2.769-.602-3.672C.774-4.342-.145-4.969-1.427-4.969c-.974 0-1.697.301-2.166.899-.342.427-.517.947-.525 1.556h1.179c-.026-.498.076-.863.308-1.093.248-.268.67-.401 1.268-.401.676 0 1.188.295 1.539.883.35.58.563 1.481.641 2.703a1.953 1.953 0 0 0-.859-.721 2.937 2.937 0 0 0-1.192-.23c-.914 0-1.633.285-2.154.859z" clip-path="url(#Q)" style="fill:none;stroke:#1c63b7;stroke-width:1;stroke-linecap:butt;stroke-linejoin:miter;stroke-miterlimit:4;stroke-dasharray:none;stroke-opacity:1" transform="matrix(4.0974 0 0 -4.0974 263.034 512.13)"/><path d="M0 0c.223.19.46.326.708.412.292.096.657.143 1.095.143.799 0 1.468-.258 2.011-.774.614-.586.922-1.406.922-2.465 0-1.005-.208-1.793-.623-2.359-.535-.756-1.425-1.135-2.671-1.135-.79 0-1.408.141-1.855.422-.601.377-.961 1.029-1.081 1.957H-.31c0-.482.168-.842.503-1.082.309-.224.777-.336 1.404-.336.678 0 1.181.217 1.507.645.309.404.464 1.006.464 1.806 0 .776-.185 1.364-.554 1.768-.335.379-.785.568-1.352.568-.412 0-.769-.072-1.07-.22a2.107 2.107 0 0 1-.773-.707l-1.005.115.748 5.094H4.19v-.985H.477Z" clip-path="url(#R)" style="fill:#1c63b7;fill-opacity:1;fill-rule:nonzero;stroke:#1c63b7;stroke-width:1;stroke-linecap:butt;stroke-linejoin:miter;stroke-miterlimit:4;stroke-dasharray:none;stroke-opacity:1" transform="matrix(4.0974 0 0 -4.0974 285.33 507.176)"/><path d="M0 0h3.118v4.713Zm4.285-.986v-2.162H3.118v2.162h-4.29V.037l4.405 6.621h1.052V0h1.456v-.986z" clip-path="url(#S)" style="fill:#1c63b7;fill-opacity:1;fill-rule:nonzero;stroke:#1c63b7;stroke-width:1;stroke-linecap:butt;stroke-linejoin:miter;stroke-miterlimit:4;stroke-dasharray:none;stroke-opacity:1" transform="matrix(4.0974 0 0 -4.0974 316.756 518.675)"/><path d="m0 0 13.896-12.111s-1.479 18.267 10.726 29.68c0 0-9.423 6.916-10.726 30.336L-.171 35.736S14.58 19.007 0 0Z" clip-path="url(#T)" style="fill:none;stroke:#1c63b7;stroke-width:3;stroke-linecap:butt;stroke-linejoin:miter;stroke-miterlimit:4;stroke-dasharray:none;stroke-opacity:1" transform="matrix(4.0974 0 0 -4.0974 360.6 338.92)"/></svg>