<svg xmlns="http://www.w3.org/2000/svg" width="595.59473pt" height="595.59473pt" viewBox="0 0 595.59473 595.59473"><defs><clipPath id="a"><path d="M132 616h21v111h-21zm0 0"/></clipPath><clipPath id="b"><path d="M82.223 615.168c15.05 9.07 29.738 8.71 43.992-.938 15.984 9.29 31.031 10.586 44.496.364-.215 28.797-.43 57.453-.574 86.254-2.235 7.558-8.352 13.03-17.856 16.992-10.441 2.879-19.511 6.48-27.074 10.8-6.117-4.609-12.742-7.054-22.246-8.93-8.496-3.093-15.191-9.503-21.098-18.862zm0 0"/></clipPath><clipPath id="c"><path d="M81 638h90v19H81Zm0 0"/></clipPath><clipPath id="d"><path d="M82.223 615.168c15.05 9.07 29.738 8.71 43.992-.938 15.984 9.29 31.031 10.586 44.496.364-.215 28.797-.43 57.453-.574 86.254-2.235 7.558-8.352 13.03-17.856 16.992-10.441 2.879-19.511 6.48-27.074 10.8-6.117-4.609-12.742-7.054-22.246-8.93-8.496-3.093-15.191-9.503-21.098-18.862zm0 0"/></clipPath></defs><path d="M127.512 551.16c62.425 0 113.328 50.903 113.328 113.328 0 62.422-50.903 113.328-113.328 113.328-62.422 0-113.328-50.906-113.328-113.328 0-62.426 50.906-113.328 113.328-113.328" style="fill:#fff;fill-opacity:1;fill-rule:evenodd;stroke:none" transform="translate(-36.018 -1441.781) scale(2.61792)"/><path d="M1275.117 2408.398c624.258 0 1133.281-509.023 1133.281-1133.28 0-624.22-509.023-1133.282-1133.28-1133.282-624.22 0-1133.282 509.062-1133.282 1133.281 0 624.258 509.062 1133.281 1133.281 1133.281zm0 0" style="fill:none;stroke:#070011;stroke-width:8.504;stroke-linecap:butt;stroke-linejoin:miter;stroke-miterlimit:4;stroke-opacity:1" transform="matrix(.2618 0 0 -.2618 -36.018 631.613)"/><path d="M127.512 556.273c59.617 0 108.215 48.598 108.215 108.215 0 59.617-48.598 108.215-108.215 108.215-59.617 0-108.215-48.598-108.215-108.215 0-59.617 48.598-108.215 108.215-108.215" style="fill:#2b2e91;fill-opacity:1;fill-rule:evenodd;stroke:none" transform="translate(-36.018 -1441.781) scale(2.61792)"/><path d="M127.512 583.992c44.351 0 80.496 36.145 80.496 80.496 0 44.352-36.145 80.496-80.496 80.496-44.352 0-80.496-36.144-80.496-80.496 0-44.351 36.144-80.496 80.496-80.496" style="fill:#fff;fill-opacity:1;fill-rule:evenodd;stroke:none" transform="translate(-36.018 -1441.781) scale(2.61792)"/><path d="M218.879 684.07v-2.949l10.008-3.242-.504 2.883-7.2 2.16 6.047 4.46-.503 2.81zm0-15.476V666l8.351.145.075-3.961 2.52.074-.216 10.652h-2.52l.071-4.176zm0-9.867v-2.446l10.297-.937.215 2.52zm0-5.832v-3.528c.144-.43.219-.933.289-1.726.144-1.153.215-1.946.289-2.305.145-1.078.504-2.016 1.152-2.664.575-.504 1.293-.863 2.16-1.078 1.438-.29 2.665 0 3.743.863.863.79 1.441 1.8 1.726 3.094.29 1.37.074 2.664-.574 3.746-.719 1.152-1.8 1.941-3.383 2.23h-.144l-.434-2.449h.145c.863-.215 1.511-.574 1.8-1.148.29-.504.36-1.153.145-2.02-.074-.574-.29-1.078-.648-1.437-.434-.434-1.008-.578-1.586-.504-.504.07-.864.289-1.079.648a2.709 2.709 0 0 0-.503 1.223h.144-.144c0 .07 0 .648-.145 1.726-.144 1.008-.215 1.73-.289 2.16-.07.868-.504 1.657-1.223 2.235-.433.43-.863.719-1.441.934zm0-16.125v-2.305c.36 0 .793-.074 1.297-.219.793-.285 1.297-.644 1.441-1.148.145-.434.145-.938-.144-1.586l-1.153-3.457-1.441.504v-2.59l2.953-1.008 2.016 5.976c.504 1.293.504 2.446 0 3.454-.434.937-1.297 1.656-2.52 2.09-.863.289-1.726.43-2.45.289zm0-16.778v-.937l.36.648zm0-.937v.937l-1.8 1.008-3.599-6.121-.289.219v-2.883l1.297-.79zm0 6.914v2.59l-2.809.937 1.153 3.457c.218.719.578 1.152 1.082 1.367.215.07.36.145.574.145v2.305c-.215-.075-.36-.075-.574-.145-.434-.145-.864-.434-1.227-.723h-.07c0 .364-.07.793-.36 1.227-.433.648-1.152 1.152-2.16 1.437-.433.22-.863.364-1.297.504v-2.445c.793-.36 1.297-.723 1.586-1.008.43-.578.504-1.297.215-2.304l-1.082-3.024-.719.215v-2.594zm0 23.472v3.454c-.215.074-.43.144-.719.218-1.586.285-2.953 0-4.031-.937-.36-.29-.649-.649-.938-1.008v-6.91c.793-1.012 1.946-1.656 3.602-1.946h.07l.434 2.45h-.074c-1.078.215-1.871.644-2.23 1.367-.434.648-.505 1.437-.29 2.445.145.867.504 1.516 1.082 1.875.43.285 1.008.36 1.582.285.504-.14.863-.285 1.153-.574.144-.215.289-.433.359-.719zm0 6.84v2.446l-4.969.433-.215-2.45zm0 9.719v2.594l-4.75-.074.07-2.59zm0 15.121v2.95l-.574-.43-5.114-.938v-2.52l5.618.938zm-5.688-58.465v-.937l.434.722zm0-10.441v2.883l-2.879 1.656 2.88 4.965v.937l-1.727 1.008-3.313-5.687-1.726 1.007v-2.879zm0 15.695v2.594l-5.254 1.8-.792-2.304Zm0 8.715v2.445c-.359.145-.648.364-.933.504-.649.363-1.082.649-1.297.938l-.145.215-.863-2.52.07-.07c.215-.29.579-.504 1.008-.649.215-.144.578-.289 1.082-.433.43-.145.79-.285 1.078-.43zm0 7.633v6.91c-.43-.648-.718-1.441-.933-2.305-.29-1.582-.074-2.953.574-4.101.145-.145.215-.364.36-.504zm0 35.926v2.52l-.863-.145.434-2.446zm-6.765-52.848 1.726-1.008-1.726-2.953zm0-18.145v-2.59l3.812-1.656 1.657 2.016zm0-2.59v2.59l-9.504 3.961-.793-.937v-2.375l8.422-11.953 1.586 1.945-7.2 10.152-.074-.074zm0 9.504v2.88l-1.875 1.077 1.875 3.313v3.96l-.504.29-4.899-8.426zm-10.297-15.77 5.613-5.398-1.726-1.8-3.887 3.816zm0-9.288v-1.8l.863.792zm0-1.8v1.8l-3.168 3.816v-3.672l2.23-2.664zm0 7.706v3.383l-3.168 3.098v-3.457zm0 12.887v2.375l-.863-1.078zm-3.168-18.649v3.672l-5.906 7.059-2.016-1.656 2.664-12.243-6.191 7.344v-3.597l7.273-8.715 1.942 1.656-2.59 12.242zm0 8.786-4.106 3.96 1.73 1.797 2.376-2.3zm-11.45-15.336 2.665-4.899-2.16-1.222-.504.937zm0-5.184v5.184l-2.085 3.742c-.938 1.656-2.16 2.738-3.531 3.168-1.368.433-2.735.219-4.247-.574-1.441-.793-2.304-1.872-2.664-3.243-.359-1.437-.074-2.949.864-4.68l4.754-8.566 2.16 1.153-4.395 7.847c-.648 1.223-1.008 2.16-1.078 2.809-.074 1.008.504 1.8 1.582 2.445 1.152.649 2.16.649 2.953.074.574-.359 1.153-1.222 1.801-2.449zm0 12.313-2.734 3.238 1.797 1.441.938-1.082zm-41.616-16.489v-2.304l1.875.214-1.153-6.406-.722 1.727v-4.825l2.378.29 3.239 16.054-2.664-.289-.793-4.246zm18.578 8.567-2.52-.72-2.808-12.167-2.81 10.656-2.304-.578 4.031-15.047 2.45.719 2.879 12.168 2.808-10.656 2.305.578zm-18.578-20.16v4.824l-1.872 4.25 1.872.215v2.304l-2.88-.36-1.726 3.888-2.52-.36 6.91-14.761zM92.09 586.222v-2.16l.14.144c.434.648.793 1.008 1.082 1.152l.29.145zm0-12.453 4.101 10.656 2.305-.867-5.543-14.47-.863.286zm18.43 1.726c.359 1.582.074 2.953-.793 4.106-.79.933-1.872 1.582-3.239 1.941-1.586.36-2.953.219-4.105-.43-1.293-.722-2.16-2.015-2.59-3.816v-.074l2.375-.575v.07c.289 1.083.793 1.802 1.512 2.235.648.36 1.441.43 2.375.215.937-.215 1.511-.648 1.875-1.152.285-.504.36-1.079.215-1.657-.145-.504-.29-.863-.579-1.078-.214-.219-.504-.289-.863-.36-.36-.144-.933-.218-1.656-.218-1.152-.07-1.942-.144-2.375-.215-1.078-.074-1.945-.433-2.664-1.082-.574-.574-.938-1.222-1.153-2.086-.289-1.441-.07-2.734.723-3.746.719-.933 1.727-1.582 3.024-1.87 1.437-.29 2.664-.145 3.812.433 1.152.648 1.945 1.726 2.305 3.238v.219l-2.375.504-.07-.145c-.22-.863-.649-1.512-1.227-1.8-.504-.216-1.152-.29-1.942-.075-.648.145-1.152.434-1.44.723-.435.504-.575 1.008-.435 1.656.075.43.29.79.649 1.008.289.215.723.36 1.226.504v-.145.145c.141-.074.72 0 1.797.07.938.074 1.657.145 2.16.145a3.946 3.946 0 0 1 2.235 1.152c.648.648 1.008 1.297 1.223 2.16zm13.464-9.937-4.175.289.933 12.96-2.59.215-.863-13.03-4.105.288-.145-2.52 10.73-.722zm6.047 12.89h-2.445l.285-15.554 2.45.074zm-37.941-9.074v4.395l-1.442-3.817zm0 14.688a13.847 13.847 0 0 1-1.153-1.872c-.503-1.007-1.082-1.656-1.8-1.945-.434-.215-.864-.285-1.227-.215a3.78 3.78 0 0 0 .504-1.437c.219-.867 0-1.875-.504-2.883-.574-1.223-1.437-1.941-2.445-2.305-1.008-.285-2.16-.14-3.457.504l-1.512.793v2.738l2.45-1.226c.574-.36 1.152-.43 1.511-.36.504.075 1.008.504 1.367 1.297.36.72.504 1.297.36 1.801-.145.504-.575.934-1.223 1.293l-3.242 1.656-1.223-2.445v5.473l2.953 5.687 2.16-1.082-2.808-5.613 2.879-1.516c.863-.43 1.656-.504 2.23-.14.504.285 1.153 1.148 1.8 2.445.22.504.435.793.58 1.008.288.433.503.722.792.937l.07.07.938-.503zm-11.594 8.57v-1.73l.793 1.152zm0-17.93v2.738l-.793.43.793 1.586v5.473l-1.656-3.313v-6.05zm0 16.2v1.73l-1.223.863-.433-.574v-4.395zm-1.656-15.337v6.051l-2.45-4.824zm0 12.961-6.406-9.215-2.09 1.442 3.457 4.965-4.754 3.312-3.094-4.465v4.32l6.55 9.36 2.017-1.437-3.961-5.688 4.68-3.312 3.6 5.113zm-12.887 16.489v-9.07l.145-.22.07.075c1.223 1.367 1.945 2.808 2.09 4.39.07 1.586-.434 2.954-1.516 4.106-.285.289-.504.504-.789.719zm-28.586 71.136c1.586-.289 2.953.07 4.031 1.008.938.863 1.512 1.945 1.73 3.383.286 1.586.071 2.953-.648 4.105-.792 1.223-2.09 2.016-3.886 2.305l-.074.07-.43-2.449h.07c1.078-.215 1.8-.644 2.305-1.367.36-.648.43-1.437.289-2.445-.145-.867-.508-1.516-1.082-1.875-.434-.285-.938-.43-1.582-.285-.504.07-.867.214-1.153.503-.144.215-.289.504-.359.79-.144.363-.219.937-.289 1.656-.219 1.226-.289 2.015-.36 2.379-.144 1.078-.577 1.941-1.226 2.59-.07.144-.215.214-.289.289v-8.711c.219-.29.434-.578.723-.868a4.349 4.349 0 0 1 2.23-1.078zm28.586-91.586v4.32l-2.375-3.382 2.016-1.442zm0 11.38v9.07c-1.226.863-2.594 1.152-4.176.937-1.875-.219-3.672-1.152-5.257-2.738-1.657-1.582-2.665-3.313-3.024-5.184-.289-1.941.215-3.597 1.512-5.039 1.082-1.082 2.304-1.726 3.746-1.8 1.437-.145 2.805.359 4.031 1.367l.145.074-1.73 1.8h-.145c-.79-.503-1.512-.722-2.23-.722-.72 0-1.442.36-2.016 1.008-.938.867-1.153 2.015-.864 3.312.36 1.153 1.078 2.235 2.301 3.383 1.082 1.082 2.234 1.8 3.457 2.09 1.297.36 2.45.07 3.313-.863.648-.72.937-1.512.793-2.52-.145-.863-.649-1.73-1.442-2.594zm-31.539 76.75v-8.926h.219l.07 6.476 4.176-.07-.07-7.2h2.59l.144 9.649zm0-13.391v-2.52c1.371.145 2.523 0 3.457-.36 1.297-.577 2.016-1.44 2.234-2.663.141-1.297-.289-2.38-1.37-3.242-.934-.72-2.231-1.223-3.817-1.442-.14-.07-.36-.07-.504-.07v-2.52c.29 0 .578.07.867.145 2.305.289 4.102 1.078 5.473 2.445 1.367 1.371 2.016 3.098 1.726 4.969-.289 1.945-1.296 3.387-3.097 4.32-1.438.723-3.094 1.082-4.969.938zm0-16.778v-2.52l3.602 1.009c1.367.433 2.375.578 3.023.504 1.008-.215 1.656-.934 2.016-2.16.36-1.223.144-2.231-.575-2.88-.503-.433-1.44-.863-2.808-1.222l-5.258-1.516v-2.59l6.844 1.946c1.87.574 3.164 1.437 3.887 2.734.718 1.223.863 2.594.359 4.246-.434 1.586-1.297 2.664-2.52 3.313-1.297.648-2.879.722-4.754.218zm0-16.488 13.32 6.191 3.817-8.207-2.305-1.078-2.879 5.977-11.664-5.473-.289.574zm0 60.77a4.905 4.905 0 0 1-1.871.793c-1.438.214-2.664-.075-3.672-.938-.933-.793-1.512-1.8-1.726-3.098-.215-1.437 0-2.664.648-3.742.719-1.152 1.871-1.87 3.383-2.16l.144-.07.434 2.52h-.145c-.937.214-1.511.574-1.875 1.077-.285.504-.285 1.223-.14 2.016.07.648.285 1.152.644 1.512.434.433.938.578 1.586.504.434-.145.793-.285 1.078-.649.22-.285.364-.644.504-1.222l-.14.074.14-.074c0-.07.074-.649.219-1.727.07-.937.145-1.656.285-2.16.074-.504.219-.938.504-1.367zm0-62.786v2.016l-.789-.36Zm0 7.13v2.59l-3.309-.934.649-2.45zm0 8.855v2.52l-5.687-1.657.722-2.305zm0 6.48v2.52c-1.367-.145-2.59 0-3.527.433-1.223.504-1.942 1.368-2.16 2.664-.141 1.293.289 2.375 1.296 3.168.938.79 2.235 1.223 3.817 1.512h.574v2.52c-.285 0-.574-.075-.863-.075-2.305-.359-4.102-1.152-5.469-2.445-1.441-1.441-2.02-3.023-1.73-4.969.289-1.945 1.296-3.382 3.023-4.32 1.441-.793 3.168-1.152 5.04-1.008zm0 17.282v8.925l-8.422.145-.144-9.504h2.593l.07 6.984 3.673-.074-.07-6.476h2.3M194.398 741.887v-3.453l1.73 1.941zm0-11.52v-4.824l2.45 3.672 2.738-3.313-5.188-2.23v-2.735l14.188 5.614-2.02 2.379-4.535-1.875-3.742 4.394 2.664 4.176-1.875 2.23zm0-9.43v2.735l-1.656-.719 1.656 2.59v4.824l-1.726-2.879v-7.199zm0 17.497v3.453l-1.726 1.511v-3.957l1.512-1.296zm-1.726-18.145v7.2l-3.457-5.618 1.875-2.23zm0 19.152v3.957l-4.969 4.25-7.414-8.496v-4.32l2.59 2.953 5.687-4.969 1.875 2.16-5.687 4.97 3.168 3.597zm-12.383 10.223c.215.36.43.648.574.793.29.43.649.79 1.008 1.008v.07l2.738-1.582-.289-.144c-.36-.145-.793-.504-1.367-1.153a21.396 21.396 0 0 1-1.586-2.304c-.289-.575-.648-1.079-1.078-1.442zm0-15.266 5.977-5.109-1.946-2.234-4.03 3.457zm0-3.886v3.886l-.144.22.144.214v4.32l-4.25-4.894zm0 14.398a2.703 2.703 0 0 0-1.082-.644 1.715 1.715 0 0 0-1.437-.145v-.074c.285-.574.503-1.078.574-1.656.07-1.008-.145-2.16-.793-3.309-.79-1.297-1.797-2.09-2.95-2.379a4.076 4.076 0 0 0-2.593.145v3.023c.648-.285 1.152-.43 1.586-.43.574.145 1.148.575 1.652 1.438.434.793.649 1.512.508 2.09-.145.574-.578 1.078-1.297 1.511l-2.45 1.368v8.425l1.298 2.23 2.449-1.44-3.602-6.262 3.168-1.871c1.008-.578 1.871-.649 2.59-.29.649.36 1.371 1.223 2.235 2.735.07.074.144.219.144.29zm-8.281-8.062v3.023c-.07.074-.145.074-.145.145l-3.597 2.015 2.59 4.535 1.152-.718v8.425l-5.977-10.296v-3.887l4.61-2.668c.504-.215.933-.43 1.367-.574zm-5.977 22.535c.649-.79 1.153-1.656 1.367-2.735.579-2.16.364-4.39-.644-6.84-.219-.578-.434-1.081-.723-1.511zm0-19.293v3.887l-1.367-2.45v-.574zm0 8.207v11.086c-.36.504-.863.863-1.367 1.226v-4.25c.07-.289.145-.574.215-.937.144-.863.074-1.871-.215-2.95v-6.19c.504.573 1.008 1.222 1.367 2.015zm-1.367-7.344v.574l-.289-.43zm0 5.328v6.192c-.144-.504-.289-1.082-.504-1.586-.719-1.727-1.656-3.024-2.664-3.817a3.818 3.818 0 0 0-1.512-.789v-2.808c.864.144 1.727.43 2.52.933.793.504 1.512 1.153 2.16 1.875zm0 10.078v4.25c-.36.215-.793.43-1.223.575-1.152.504-2.304.648-3.457.433v-2.808c.793.214 1.657.144 2.45-.145 1.152-.434 1.87-1.223 2.23-2.305zm-4.68-12.886v2.808c-.793-.218-1.586-.144-2.449.215-1.367.504-2.16 1.586-2.375 3.098-.215 1.367 0 2.879.719 4.605.723 1.73 1.586 2.953 2.664 3.817.504.359.937.648 1.441.793v2.808c-.863-.144-1.656-.433-2.52-1.008-1.8-1.152-3.241-2.882-4.25-5.328a14.96 14.96 0 0 1-.648-2.16v-4.68c.579-2.16 1.875-3.671 3.891-4.539 1.223-.504 2.375-.644 3.527-.43zm-7.418 20.949v-.36l.29.29zm0-15.98v4.68c-.359-1.657-.359-3.169 0-4.68zm0 15.62-8.132-9 4.605-8.132-3.527.648-4.825 8.926-1.511-7.633-2.809.504 3.387 17.496 2.805-.574-1.153-5.832 1.516-2.664 6.476 7.199 3.168-.578zm-51.62-.285v-6.77l2.734-10.944 2.734.722-3.598 14.328 7.344 1.942-.648 2.883zm0-13.898 1.581-3.961-1.582-.645zm15.62 16.633c-.14.937-.504 1.8-1.152 2.449-.644.574-1.437 1.008-2.3 1.078l.214-1.437c.504-.075.863-.364 1.223-.868.289-.359.504-.933.578-1.511l-1.512-.215.43-3.383 3.023.43zm-15.62-21.239v4.606l-2.665 6.555c-.793 2.015-2.015 3.453-3.527 4.101-1.516.723-3.098.649-4.899-.07-1.44-.578-2.52-1.442-3.168-2.52v-6.265l4.25-10.442 2.52 1.082-3.816 9.504c-.649 1.512-.938 2.59-.864 3.313.07 1.222.79 2.086 2.16 2.664 1.368.504 2.52.43 3.383-.36.504-.503 1.078-1.511 1.727-3.027l3.816-9.574zm0 11.735-1.587 6.336 1.586.433zm-14.258-10.656c.578-1.442.863-2.88.718-4.32-.07-1.009-.285-1.942-.719-2.735zm0-7.055v7.055c-.29.718-.72 1.511-1.223 2.304-1.367 2.16-3.098 3.672-5.184 4.39-2.16.794-4.176.65-6.05-.573l-.07-.075v-4.316c.288.863.792 1.512 1.581 2.086 1.297.793 2.594.863 4.035.145 1.223-.649 2.305-1.727 3.313-3.243 1.008-1.582 1.582-3.023 1.582-4.39.07-1.512-.504-2.735-1.8-3.528-1.224-.793-2.52-.863-3.888-.214-1.222.648-2.304 1.726-3.382 3.308-.723 1.082-1.153 2.16-1.442 3.242v-6.12c1.297-1.513 2.664-2.59 4.246-3.169 2.16-.793 4.18-.574 5.977.578 1.082.72 1.8 1.512 2.305 2.52zm0 12.383v.074c-.864 2.016-.934 3.812-.36 5.398.145.29.215.504.36.793zM74.16 733.824v-3.886l2.953 2.519-1.945 2.23zM61.56 717.551c1.082.289 2.02.937 2.808 1.945 1.082 1.297 1.586 2.594 1.586 4.106-.074 1.582-.793 2.949-2.16 4.03l-.145.145-1.87-2.16.14-.144c.793-.72 1.227-1.442 1.227-2.16 0-.649-.29-1.368-.938-2.09-.215-.286-.43-.504-.648-.645zm12.601 12.386-5.328-4.68-7.273 8.423V738l2.808-3.313 5.688 4.97 1.875-2.16-5.692-4.97 2.809-3.168 5.113 4.465zm0 9.43v6.121c-.07.36-.07.719-.144 1.078 0 .579.074 1.082.144 1.516v4.316c-1.8-1.152-2.738-2.949-2.879-5.183-.144-2.16.574-4.32 1.942-6.55.363-.435.648-.864.937-1.298zm-12.601 3.168v-4.031l5.906 5.328-1.945 2.16zm-3.024-9.863c-1.437 1.223-3.023 1.656-4.605 1.297-1.371-.215-2.594-1.008-3.672-2.305-1.227-1.367-1.73-2.879-1.73-4.39.074-1.731.937-3.243 2.593-4.61l.07-.07 1.801 2.16-.074.07c-.934.793-1.438 1.656-1.512 2.664 0 .793.364 1.657 1.082 2.594.649.79 1.367 1.223 2.09 1.223a2.37 2.37 0 0 0 1.797-.578c.504-.43.723-.79.863-1.223.074-.29 0-.649-.07-1.008-.145-.434-.36-1.008-.648-1.8-.575-1.298-.934-2.087-1.079-2.52-.433-1.223-.578-2.305-.218-3.313.218-.863.722-1.582 1.511-2.23 1.297-1.153 2.664-1.512 4.176-1.227.219 0 .434.074.649.145v3.027a2.334 2.334 0 0 0-.864-.433c-.648-.215-1.297-.075-1.87.433-.434.285-.65.719-.72 1.223-.074.36 0 .863.215 1.437l.07-.07-.07.07c.07.145.29.723.793 1.875.43 1.008.719 1.797.934 2.301.36.938.36 1.875.074 2.953-.36.863-.863 1.656-1.586 2.305zm3.024 1.008-4.391 5.039 4.39 3.816v-4.031l-.285-.215.286-.289v-4.32M212.328 704.375c1.297 0 2.305 1.082 2.305 2.379 0 1.293-1.008 2.3-2.305 2.3-1.297 0-2.375-1.007-2.375-2.3 0-1.297 1.078-2.379 2.375-2.379" style="fill:#fff;fill-opacity:1;fill-rule:evenodd;stroke:none" transform="translate(-36.018 -1441.781) scale(2.61792)"/><path d="M2123.281 876.25c12.969 0 23.047-10.82 23.047-23.79 0-12.929-10.078-23.007-23.047-23.007-12.968 0-23.75 10.078-23.75 23.008 0 12.969 10.782 23.789 23.75 23.789zm0 0" style="fill:none;stroke:#211e1e;stroke-width:2.16;stroke-linecap:butt;stroke-linejoin:miter;stroke-miterlimit:4;stroke-opacity:1" transform="matrix(.2618 0 0 -.2618 -36.018 631.613)"/><path d="M43.777 704.375c1.293 0 2.375 1.082 2.375 2.379 0 1.293-1.082 2.3-2.375 2.3-1.226 0-2.304-1.007-2.304-2.3 0-1.297 1.078-2.379 2.304-2.379" style="fill:#fff;fill-opacity:1;fill-rule:evenodd;stroke:none" transform="translate(-36.018 -1441.781) scale(2.61792)"/><path d="M437.773 876.25c12.93 0 23.75-10.82 23.75-23.79 0-12.929-10.82-23.007-23.75-23.007-12.265 0-23.046 10.078-23.046 23.008 0 12.969 10.78 23.789 23.046 23.789zm0 0" style="fill:none;stroke:#211e1e;stroke-width:2.16;stroke-linecap:butt;stroke-linejoin:miter;stroke-miterlimit:4;stroke-opacity:1" transform="matrix(.2618 0 0 -.2618 -36.018 631.613)"/><path d="M127.512 590.977c40.465 0 73.511 33.046 73.511 73.511 0 40.465-33.046 73.512-73.511 73.512C87.047 738 54 704.953 54 664.488s33.047-73.511 73.512-73.511" style="fill:#fff;fill-opacity:1;fill-rule:evenodd;stroke:none" transform="translate(-36.018 -1441.781) scale(2.61792)"/><path d="M1275.117 2010.234c404.649 0 735.117-330.468 735.117-735.117 0-404.648-330.468-735.117-735.117-735.117C870.47 540 540 870.469 540 1275.117c0 404.649 330.469 735.117 735.117 735.117zm0 0" style="fill:none;stroke:#2b2e91;stroke-width:8.504;stroke-linecap:butt;stroke-linejoin:miter;stroke-miterlimit:4;stroke-opacity:1" transform="matrix(.2618 0 0 -.2618 -36.018 631.613)"/><g clip-path="url(#a)" transform="translate(-36.018 -1441.781) scale(2.61792)"><g clip-path="url(#b)" clip-rule="evenodd"><path d="M132.84 726.266h19.8v-109.73h-19.8v109.73" style="fill:#2b2e91;fill-opacity:1;fill-rule:evenodd;stroke:none"/></g></g><g clip-path="url(#c)" transform="translate(-36.018 -1441.781) scale(2.61792)"><g clip-path="url(#d)" clip-rule="evenodd"><path d="M74.375 656.93h103.898v-18.29H74.375v18.29" style="fill:#2b2e91;fill-opacity:1;fill-rule:evenodd;stroke:none"/></g></g><path d="M822.227 1768.32c150.507-90.703 297.382-87.11 439.921 9.375 159.844-92.89 310.313-105.86 444.961-3.632-2.148-287.97-4.296-574.532-5.742-862.54-22.344-75.585-83.515-130.312-178.554-169.921-104.415-28.79-195.118-64.805-270.743-108.008-61.172 46.093-127.422 70.547-222.46 89.297-84.962 30.937-151.915 95.039-210.977 188.632zm0 0" style="fill:none;stroke:#2b2e91;stroke-width:8.504;stroke-linecap:butt;stroke-linejoin:miter;stroke-miterlimit:4;stroke-opacity:1" transform="matrix(.2618 0 0 -.2618 -36.018 631.613)"/><path d="M93.672 652.105v1.438h5.258v-1.438h-1.153l4.965-6.41-.863 6.41h-1.8v1.293l5.616.145.075-1.438h-1.297l.648-11.593-9.578 11.593h-1.871M114.77 640.871c.863-.285 1.796-.285 2.664.074 1.437.504 2.23 1.657 2.445 3.313.144 1.437-.145 2.949-.79 4.535-.722 1.582-1.655 2.879-2.808 3.816a8.065 8.065 0 0 1-1.511.864v-1.801c.214-.215.503-.434.718-.649.793-.793 1.367-1.726 1.871-2.878a9.738 9.738 0 0 0 .793-3.243c.07-1.367-.359-2.23-1.297-2.59-.648-.289-1.367-.144-2.085.36zm-2.739 12.602c-1.367-.578-2.16-1.657-2.375-3.383-.144-1.442.145-2.953.793-4.54.719-1.581 1.656-2.878 2.809-3.816a8.288 8.288 0 0 1 1.512-.863v1.8c-.29.216-.504.434-.793.65-.72.792-1.297 1.726-1.801 2.878-.504 1.082-.719 2.16-.793 3.242-.07 1.368.36 2.23 1.297 2.59.648.29 1.367.145 2.09-.36v1.802c-.938.359-1.801.289-2.739 0M141.625 640.871c.934-.285 1.8-.285 2.734.074 1.442.504 2.235 1.657 2.375 3.313.145 1.437-.07 2.949-.789 4.535-.648 1.582-1.586 2.879-2.738 3.816a8.55 8.55 0 0 1-1.582.864v-1.801c.285-.215.504-.434.79-.649.722-.793 1.37-1.726 1.8-2.878.504-1.153.793-2.235.793-3.243.07-1.367-.36-2.23-1.297-2.59-.649-.289-1.367-.144-2.086.36zm-2.664 12.602c-1.441-.578-2.234-1.657-2.375-3.383-.145-1.442.14-2.953.789-4.54.648-1.581 1.586-2.878 2.738-3.816a8.288 8.288 0 0 1 1.512-.863v1.8c-.219.145-.504.434-.723.65-.718.792-1.367 1.726-1.797 2.878-.503 1.082-.792 2.16-.792 3.242-.075 1.368.289 2.23 1.222 2.59.723.29 1.367.145 2.09-.36v1.802c-.863.359-1.8.289-2.664 0M124.344 641.09h12.097l-2.16 4.68h-.793l-.074-3.313-4.605-.074-3.313 9.722h1.297v1.293l-5.977.075v-1.297h2.016l3.457-9.574-1.945-1.512M151.273 641.09l10.008.14-.504 1.008v2.09l-1.297.07-1.367-2.445h-3.89l2.593 4.895v1.082l-4.25 3.742h4.176l.867-1.223h1.293l-.644 2.305-.504.719-11.16.144 6.695-4.824 1.223-.938.074-.933-3.313-5.832" style="fill:#fff;fill-opacity:1;fill-rule:evenodd;stroke:none" transform="translate(-36.018 -1441.781) scale(2.61792)"/><path d="M111.168 677.23a19.741 19.741 0 0 0 5.398 4.68l1.082-1.512c-1.945-.933-3.382-2.015-4.39-3.168h-.074 4.32v-1.726h-3.457v-7.414h3.023v-1.73h-3.023v-1.223h-1.656v1.222h-3.887v1.73h3.887v1.438h-3.887v1.512h3.887v1.512h-3.887v1.511h3.887v1.442h-3.887v1.726zm-2.664 7.922v-6.984h.863v1.586h4.031v1.726h-4.03v2.016h7.562v1.656zm0-18.793h-3.887v-1.222h-1.656v1.222h-2.809v1.73h2.809v7.415h-3.313v1.726h3.817c-1.008 1.153-2.375 2.16-3.961 3.028l1.008 1.512c1.586-.723 3.312-2.305 5.183-4.54h2.809v-1.726h-3.887v-1.442h3.887v-1.511h-3.887v-1.512h3.887v-1.512h-3.887v-1.437h3.887zm0 11.809v6.984h-8.207v-1.656h7.414v-2.016h-4.102v-1.726h4.102v-1.586h.793M108.574 700.848c1.082 3.816 3.672 7.418 7.852 10.73l1.582-1.441c-5.113-3.672-7.848-7.848-8.281-12.528h7.562v-2.015h-7.777l.074-4.395h-1.875v4.395h-7.848v2.015h7.633c-.937 5.688-3.672 9.79-8.281 12.239l1.226 1.586c2.16-1.297 3.817-2.809 5.11-4.395 1.226-1.656 2.234-3.742 3.023-6.191" style="fill:#2b2e91;fill-opacity:1;fill-rule:evenodd;stroke:none" transform="translate(-36.018 -1441.781) scale(2.61792)"/><path d="M120.672 610.848v-1.297c.863 0 1.586-.43 2.016-1.293.433-.723.648-1.586.648-2.524v-.504c-.793.793-1.656 1.227-2.664 1.297v-1.367c.719 0 1.297-.289 1.8-.793.36-.504.575-1.152.575-1.87 0-.794-.215-1.368-.574-1.872-.504-.578-1.082-.793-1.801-.793v-1.297c.937 0 1.726.29 2.45.863.648.504 1.151 1.227 1.437 2.16.289.723.363 1.731.363 2.954 0 1.441-.145 2.593-.434 3.457-.36.863-.793 1.582-1.441 2.086-.649.578-1.438.793-2.375.793zm11.016 0c-1.079 0-2.016-.29-2.81-1.008-.788-.719-1.151-1.582-1.151-2.664h1.441c0 .648.215 1.297.719 1.726.504.434 1.082.649 1.8.649.649 0 1.223-.215 1.657-.649.504-.359.719-.933.719-1.582 0-1.008-.504-1.656-1.583-2.015a8.314 8.314 0 0 0-1.585-.145v-1.297c.792 0 1.296 0 1.585-.144.864-.43 1.297-1.008 1.297-1.942 0-.578-.218-1.007-.648-1.37-.434-.36-.863-.575-1.441-.575-.72 0-1.223.215-1.657.574-.36.364-.574.938-.574 1.586h-1.441v-.07c0-1.082.359-1.875 1.082-2.524.644-.574 1.582-.863 2.59-.863 1.007 0 1.87.36 2.593 1.008.719.648 1.078 1.441 1.078 2.379 0 1.148-.574 2.016-1.656 2.52 1.367.648 2.016 1.656 2.016 2.949 0 1.082-.43 1.875-1.223 2.593-.793.575-1.726.864-2.808.864zm14.906-10.442c-1.082 1.227-2.09 2.883-3.028 4.824-.933 2.16-1.437 3.961-1.437 5.403h-1.73c.218-3.098 1.73-6.555 4.538-10.297h-6.195v-1.367h7.852zm-35.496 10.008h-1.442v-8.422h-2.52v-1.222c.794 0 1.368-.22 1.872-.504.578-.364.863-.938.937-1.657h1.153zm9.574-11.879v1.297c-.719 0-1.297.215-1.727.793-.433.504-.648 1.078-.648 1.871 0 .719.215 1.367.648 1.871.43.504 1.008.793 1.727.793v1.367h-.215c-1.082 0-2.016-.43-2.664-1.222-.723-.793-1.008-1.73-1.008-2.809 0-1.152.36-2.09 1.078-2.809.723-.792 1.657-1.152 2.809-1.152zm0 11.016v1.297c-.938 0-1.8-.29-2.594-.864-.719-.648-1.148-1.441-1.293-2.449h1.512c.07.578.36 1.082.793 1.442.504.43 1.008.574 1.582.574" style="fill:#070011;fill-opacity:1;fill-rule:evenodd;stroke:none" transform="translate(-36.018 -1441.781) scale(2.61792)"/></svg>