<svg xmlns="http://www.w3.org/2000/svg" width="189.23203mm" height="188.48035mm" viewBox="0 0 189.23203 188.48035"><path d="M65.362 148.006c.47.1.856.386 1.011.732.361-.113.829-.017 1.216.265.388.282.625.7.627 1.079.376.042.765.322 1.003.735.163.283.237.594.22.873a1.069 1.069 0 0 1-.088.368c.328.191.57.605.619 1.081.011.097.012.192.008.286-.023.368-.166.698-.391.902.152.214.226.505.207.817a1.7 1.7 0 0 1-.08.422c-.15.458-.472.812-.834.93.018.087.025.177.02.27a1.54 1.54 0 0 1-.409.911c-.32.359-.759.55-1.138.512-.081.369-.398.727-.835.923-.44.194-.92.193-1.248.004-.226.304-.662.501-1.139.501-.48 0-.919-.197-1.142-.503-.33.187-.808.19-1.246-.004-.438-.195-.758-.552-.838-.924-.376.037-.814-.155-1.135-.51-.283-.313-.43-.704-.41-1.047.003-.047.01-.093.018-.138-.36-.119-.68-.474-.828-.928a1.659 1.659 0 0 1-.082-.614c.013-.24.085-.458.206-.627-.264-.241-.415-.662-.387-1.11.001-.026.004-.05.007-.075.048-.477.29-.892.619-1.083a1.135 1.135 0 0 1-.086-.53 1.61 1.61 0 0 1 .22-.708c.24-.417.63-.697 1.005-.739 0-.016 0-.034.002-.05.02-.364.253-.756.623-1.026.387-.284.857-.379 1.22-.264.155-.345.54-.629 1.008-.73.477-.104.948.003 1.23.261.282-.256.751-.362 1.227-.262" style="fill:#0066b5;fill-opacity:1;fill-rule:nonzero;stroke:none;stroke-width:.352778" transform="matrix(16.17834 0 0 16.17834 -942.935 -2393.865)"/><path d="M65.318 148.212c.46.097.824.39.905.726l.022.088.079-.043c.304-.162.765-.087 1.143.188.38.277.594.691.531 1.032l-.017.09.09-.008c.345-.026.735.23.969.637.234.408.262.874.065 1.16l-.051.072.084.032c.326.117.577.508.627.974.05.469-.117.905-.412 1.086l-.078.048.065.062c.251.239.321.7.175 1.145-.144.448-.472.779-.816.826l-.09.01.034.083c.13.321.008.77-.305 1.118-.315.351-.75.52-1.083.422l-.085-.027-.003.09c-.011.346-.306.707-.733.897-.431.193-.897.17-1.16-.055l-.07-.058-.038.082c-.15.31-.566.52-1.035.52-.471.001-.887-.21-1.036-.522l-.04-.081-.068.06c-.264.222-.729.244-1.157.054-.431-.191-.726-.552-.736-.898l-.003-.091-.085.026c-.332.097-.766-.073-1.08-.42-.316-.349-.44-.8-.307-1.12l.035-.083-.09-.011c-.341-.047-.67-.378-.815-.823-.148-.448-.076-.91.175-1.15l.064-.06-.075-.048c-.294-.182-.46-.617-.411-1.083.047-.469.3-.862.625-.979l.085-.03-.05-.073c-.194-.287-.17-.751.066-1.157.232-.408.623-.665.969-.639l.09.008-.017-.09c-.062-.34.151-.753.529-1.03.382-.278.842-.353 1.147-.187l.078.041.022-.087c.081-.336.445-.627.903-.726.467-.1.92.02 1.131.303l.054.075.056-.076c.21-.279.663-.401 1.128-.3" style="fill:#fff;fill-opacity:1;fill-rule:nonzero;stroke:none;stroke-width:.352778" transform="matrix(16.17834 0 0 16.17834 -942.935 -2393.865)"/><path d="M59.327 153.766c0 2.646 2.154 4.8 4.8 4.8 2.647 0 4.8-2.154 4.8-4.8 0-2.647-2.153-4.8-4.8-4.8a4.805 4.805 0 0 0-4.8 4.8m.073 0a4.732 4.732 0 0 1 4.727-4.726 4.732 4.732 0 0 1 4.727 4.726 4.731 4.731 0 0 1-4.727 4.726 4.731 4.731 0 0 1-4.727-4.726" style="fill:#0066b5;fill-opacity:1;fill-rule:nonzero;stroke:none;stroke-width:.352778" transform="matrix(16.17834 0 0 16.17834 -942.935 -2393.865)"/><path d="M68.752 153.766a4.623 4.623 0 0 1-4.625 4.624 4.623 4.623 0 1 1 0-9.248 4.624 4.624 0 0 1 4.625 4.624" style="fill:#0066b5;fill-opacity:1;fill-rule:nonzero;stroke:none;stroke-width:.352778" transform="matrix(16.17834 0 0 16.17834 -942.935 -2393.865)"/><path d="M67.3 153.766a3.172 3.172 0 1 1-6.345 0 3.173 3.173 0 1 1 6.344 0" style="fill:#fff;fill-opacity:1;fill-rule:nonzero;stroke:none;stroke-width:.352778" transform="matrix(16.17834 0 0 16.17834 -942.935 -2393.865)"/><path d="M66.91 153.782a.024.024 0 0 0-.024.016l-.006.018c-.004.015-.006.026-.017.036a.63.63 0 0 1-.124.077c-.036.02-.074.037-.107.062l.006-.084c.003-.036.003-.07.003-.105a.04.04 0 0 1 .01.003c.1.022.22-.088.263-.15.082-.124.053-.298.037-.367-.015-.06-.03-.12-.065-.175-.006-.008-.017-.013-.026-.01a.025.025 0 0 0-.02.021v.02c0 .015 0 .026-.01.038-.025.04-.063.072-.1.105a.745.745 0 0 0-.107.113 3.045 3.045 0 0 0-.026-.186c.015.01.031.02.05.023a.11.11 0 0 0 .054-.005c.089-.029.133-.161.142-.244.015-.142-.088-.277-.133-.33a.56.56 0 0 0-.134-.12c-.01-.006-.02-.004-.029.003a.025.025 0 0 0-.007.016l.002.011.008.017c.005.01.01.019.01.031v.004a.556.556 0 0 1-.04.138.464.464 0 0 0-.027.077 1.296 1.296 0 0 0-.092-.19.166.166 0 0 0 .02-.026.236.236 0 0 0 .027-.116.308.308 0 0 0-.039-.15c-.073-.13-.244-.182-.314-.198-.062-.014-.123-.028-.186-.023a.029.029 0 0 0-.023.02c-.002.01.002.022.012.027l.017.008c.013.008.023.014.03.026.023.043.037.09.05.14.012.047.024.095.048.14.031.06.085.115.153.153.062.036.12.044.165.026.028.053.066.14.106.253-.044-.025-.096-.042-.143-.057l-.064-.022c-.038-.015-.08-.05-.084-.083a.021.021 0 0 0-.023-.019.021.021 0 0 0-.02.02v.002c.012.118.03.24.103.33.044.054.147.124.228.116a.12.12 0 0 0 .076-.045c.02.09.04.186.051.29a.385.385 0 0 0-.022.07.686.686 0 0 0-.085-.083l-.058-.053c-.032-.034-.058-.09-.046-.125a.024.024 0 0 0-.013-.03c-.013-.004-.025 0-.03.013-.048.124-.086.257-.056.383a.42.42 0 0 0 .074.147.014.014 0 0 0-.004.006c-.066.111-.126.231-.126.36l.001.023a.406.406 0 0 0 .029.12.39.39 0 0 0-.157.1l-.004.004c-.105.092-.134.265-.117.393a.529.529 0 0 0 .056.183c.017.03.036.057.055.079l.024.023a4.65 4.65 0 0 1-.199.267l-.001.001c-.006-.085-.018-.271-.018-.334 0-.067.025-.113.074-.148.01-.006.014-.018.01-.028-.003-.01-.012-.017-.025-.017-.01 0-.269.02-.366.264-.089.218-.06.488.023.601-.108.11-.18.172-.18.172l.068.028c.058-.039.131-.1.211-.18a.123.123 0 0 0 .035-.019c.047.008.388.075.603-.045.22-.121.31-.269.314-.506a.026.026 0 0 0-.017-.025.024.024 0 0 0-.028.011c-.003.004-.074.115-.265.11a.81.81 0 0 0-.28.045l.103-.15c.005 0 .01-.005.013-.008a.257.257 0 0 0 .082-.126l.044.003a.464.464 0 0 0 .351-.073.353.353 0 0 0 .155-.237c.013-.089.01-.18.005-.253a.025.025 0 0 0-.018-.022c-.01-.003-.02.001-.027.01-.061.086-.112.093-.217.107h-.014a.386.386 0 0 0-.06.014 3.1 3.1 0 0 0 .05-.13.15.15 0 0 0 .042.006.373.373 0 0 0 .247-.078c.11-.1.124-.276.125-.346 0-.063 0-.124-.02-.185-.003-.01-.011-.018-.023-.018m-.531-1.187-.006.008c-.011-.03-.015-.062-.032-.091-.026-.046-.07-.083-.103-.124a.477.477 0 0 0-.102-.102c-.012-.008-.026-.014-.04-.021-.01-.006-.026-.014-.03.001-.004.02.03.023.041.029.036.02.068.047.092.08.018.023.034.048.053.07.038.041.074.079.088.135.003.01.006.032.012.041-.042.027-.106-.004-.13-.017a.328.328 0 0 1-.134-.134.553.553 0 0 1-.044-.13c-.014-.05-.028-.103-.054-.151-.001-.001-.003-.001-.004-.004.033.004.066.01.1.018.063.015.218.062.282.175.019.033.03.081.03.125a.195.195 0 0 1-.02.091m-.624 2.83-.001-.066.007-.126.004-.057c.001-.014.004-.056.008-.067.003-.011.007-.03.011-.04a.536.536 0 0 1 .025-.056c.004-.01.006-.022 0-.027-.005-.004-.029.022-.033.034a.6.6 0 0 1-.015.04c-.003.01-.018.053-.018.066l-.001.047-.006.055s-.005.057-.005.104v.137c0 .01 0 .024.002.035a.235.235 0 0 0-.015.132.091.091 0 0 1-.06.022c-.042-.05-.075-.162-.075-.293a.72.72 0 0 1 .051-.269.369.369 0 0 1 .25-.219.224.224 0 0 0-.036.128c0 .073.015.3.019.363-.008.007-.017.01-.025.016a.355.355 0 0 0-.087.08v-.04m.598-.15c.13.003.21-.043.257-.081-.018.181-.102.297-.285.398a.55.55 0 0 1-.131.048.84.84 0 0 1-.25.014 1.576 1.576 0 0 1-.17-.02c-.004 0-.005-.005-.008-.015-.002-.016-.004-.042-.002-.046.01-.064.055-.112.106-.148a.186.186 0 0 1 .025-.015.022.022 0 0 0 .017-.013.792.792 0 0 1 .441-.122m.257-1.66.001-.016a.336.336 0 0 1 .058-.176c.026-.036.06-.065.095-.097a.662.662 0 0 0 .109-.114c.003-.003.003-.006.003-.007a.73.73 0 0 1 .047.241c0 .062-.011.13-.047.183-.042.064-.146.145-.214.131l-.02-.008h-.002a.096.096 0 0 1-.02-.02.059.059 0 0 0 .024-.001l.022-.008c.076-.025.119-.126.119-.126l.02-.046a.566.566 0 0 0 .02-.046l.041-.147c.004-.02.001-.034-.004-.034-.007 0-.017.014-.02.034l-.04.137-.02.046a.693.693 0 0 0-.02.047l-.076.088-.028.025c-.001 0-.026.007-.036.008-.001 0-.004 0-.005.003a.269.269 0 0 1-.009-.046v-.004c0-.015 0-.032.002-.047m-.087-.492a.092.092 0 0 1-.032-.004.204.204 0 0 1-.048-.019.598.598 0 0 0-.044-.026l-.044-.036s-.033-.033-.058-.067a.479.479 0 0 0-.023-.035c-.013-.014-.027-.023-.032-.02-.004.007.001.023.014.038a.589.589 0 0 0 .13.14l.045.027a.268.268 0 0 0 .074.027.08.08 0 0 1-.043.026c-.059.006-.148-.048-.191-.1a.46.46 0 0 1-.083-.222c.02.017.041.03.06.037l.066.022c.053.018.114.037.16.068a7.171 7.171 0 0 0 .04.121l.01.02-.001.004m.034-.043a.346.346 0 0 1-.031-.14c0-.012 0-.025.003-.038a.625.625 0 0 1 .038-.125.58.58 0 0 0 .041-.149v-.004c.024.02.047.043.068.069.039.044.123.154.123.269 0 .008 0 .016-.002.024-.007.07-.047.182-.107.204-.01.003-.017.003-.025.003.015-.016.022-.052.025-.073a.54.54 0 0 0 .005-.133c-.003-.055-.003-.112-.012-.166l-.006-.031c-.005-.021-.013-.04-.026-.035-.023.01.014.084.015.1.003.024.002.047.003.072.002.032.004.065.004.097 0 .031 0 .063-.008.093-.007.024-.018.046-.026.07-.028-.013-.054-.049-.082-.107m.045.742a1.794 1.794 0 0 1-.032.234.231.231 0 0 0-.035.052c-.023-.033-.046-.067-.069-.096l-.046-.065c-.025-.037-.04-.092-.028-.127.02.02.044.033.066.043.048.016.11-.007.144-.041m-.273-.196a.425.425 0 0 1-.009-.084c0-.06.014-.12.03-.18a.267.267 0 0 0 .043.064l.062.057a.48.48 0 0 1 .108.115l-.002.011v.031l-.002.022c0 .037.005.074.026.103a.097.097 0 0 1-.013.02v.002c-.002 0-.002-.003-.004-.004l-.025-.029a.337.337 0 0 1-.038-.053l-.018-.036a.797.797 0 0 1-.02-.046l-.021-.042a.615.615 0 0 0-.027-.064l-.01-.022c-.006-.018-.017-.029-.024-.026-.006.003-.004.02.003.037l.01.02c.008.017.019.046.026.064l.02.044.02.044.034.061c.007.012.02.029.026.036l.026.027.003.003c-.023.016-.056.025-.078.017-.062-.022-.129-.12-.146-.192m-.076 1.162v.004a.73.73 0 0 0-.015.116.342.342 0 0 1-.017.072l-.003-.001c-.004 0-.014-.008-.014-.013-.002 0-.005-.01-.01-.015l-.007-.017a.312.312 0 0 1-.024-.057.378.378 0 0 1-.005-.062v-.113l.001-.046.001-.047v-.03c0-.01.006-.04.009-.05.004-.01.004-.023 0-.029-.004-.006-.026.013-.028.03-.003.016-.004.038-.005.048v.031l-.002.047-.001.047v.112c0 .02.007.085.015.1l.017.032a.777.777 0 0 1 .028.051c.003.008.009.014.013.016a.217.217 0 0 1-.033.046c-.02-.017-.046-.043-.046-.043a.279.279 0 0 1-.048-.069.475.475 0 0 1-.052-.165c-.003-.02-.003-.043-.003-.065 0-.105.029-.219.103-.287l.006-.004a.809.809 0 0 1 .063-.053l-.003.034c0 .017.002.033.003.047v.007c.006.057.015.1.033.14a.315.315 0 0 1 .024.187m-.007-.331-.002-.007-.002-.043c0-.02.004-.038.013-.054l.023-.019a.262.262 0 0 0 .09.1.13.13 0 0 0 .085.01 2.191 2.191 0 0 1-.056.131.298.298 0 0 0-.095.095.464.464 0 0 0-.027-.088.4.4 0 0 1-.03-.125m.312.113.015-.001c.086-.011.148-.02.207-.079.002.017.002.032.002.048a.866.866 0 0 1-.01.133.305.305 0 0 1-.132.205.421.421 0 0 1-.317.065h-.003l-.035-.003c.002-.008.002-.017.002-.025.012.001.029.003.037.001a.375.375 0 0 0 .077-.02s.035-.01.065-.033a.111.111 0 0 1 .041-.023.185.185 0 0 0 .02-.01c.016-.011.041-.026.055-.037l.052-.038.081-.096c.011-.015.016-.03.009-.032-.007 0-.02.01-.033.025l-.07.083-.054.038a.517.517 0 0 1-.054.036l-.015.007c-.017.008-.033.015-.047.028-.028.02-.052.029-.052.029-.02.007-.04.01-.045.012l-.056.008h-.01l.002-.004.01-.072v-.003a.402.402 0 0 1 .021-.076c.038-.09.124-.153.237-.168m-.068-.336a.224.224 0 0 0-.007.103l.001.011a.547.547 0 0 1-.06-.098c-.007-.016-.016-.033-.017-.038l-.015-.032-.025-.05a.36.36 0 0 1-.022-.088.904.904 0 0 0 .003-.05c0-.009-.006-.017-.011-.017-.009 0-.013.007-.014.015l-.002.052.006.036a.23.23 0 0 0 .018.062l.025.05c.005.012.012.026.013.031.003.004.025.053.034.068a.818.818 0 0 0 .063.088c0 .003.003.004.004.006-.027.015-.067.022-.092.008-.06-.035-.11-.146-.115-.223v-.021c0-.084.03-.167.07-.247a.27.27 0 0 0 .034.075l.047.066c.026.036.056.076.078.116l-.016.077m.416-.247c-.002.063-.013.223-.11.31-.058.053-.148.065-.213.065-.008 0-.018 0-.023-.003a.044.044 0 0 1 .014-.006c.001-.001.01-.005.016-.01a.753.753 0 0 0 .044-.023l.033-.017a.151.151 0 0 0 .032-.027l.032-.043a.58.58 0 0 1 .024-.028c.007-.007.04-.038.047-.05l.024-.035c.004-.007.015-.028.025-.043 0 0 .013-.034.016-.052.002-.018-.001-.029-.007-.025a.109.109 0 0 0-.023.039l-.007.026-.025.043c-.005.008-.027.042-.037.052l-.03.029c-.007.007-.02.02-.025.029-.007.008-.033.04-.043.048a.218.218 0 0 1-.047.033.71.71 0 0 0-.062.032.182.182 0 0 0-.016.008l-.007.004a.162.162 0 0 1-.009-.018c0-.027.002-.052.007-.081.006-.018.009-.033.013-.041a.322.322 0 0 1 .099-.157.543.543 0 0 1 .116-.07c.045-.024.093-.049.135-.086.001-.001.001-.004.004-.006l.003.074zm-1.735-2.219.154-.092.156.092-.04-.176.136-.118-.18-.017-.072-.167-.07.167-.18.017.134.118zm-2.391 0 .156-.092.155.092-.04-.176.137-.118-.18-.017-.072-.167-.07.167-.181.017.136.118zm1.19 4.085a.194.194 0 0 0-.112-.033.191.191 0 0 0-.141.058.21.21 0 0 0-.055.153c0 .062.018.111.054.15a.176.176 0 0 0 .217.033.175.175 0 0 0 .064-.06v.016a.446.446 0 0 1-.011.095.245.245 0 0 1-.03.073.13.13 0 0 1-.043.043.116.116 0 0 1-.062.016.096.096 0 0 1-.07-.023c-.017-.015-.03-.041-.035-.076l-.075.007a.179.179 0 0 0 .057.114c.032.028.072.04.121.04a.199.199 0 0 0 .12-.035.216.216 0 0 0 .077-.11.558.558 0 0 0 .028-.19.448.448 0 0 0-.028-.177.199.199 0 0 0-.075-.094m-.017.278a.116.116 0 0 1-.088.038.113.113 0 0 1-.088-.038.135.135 0 0 1-.038-.097c0-.044.013-.08.039-.11a.115.115 0 0 1 .174-.002.153.153 0 0 1 .034.105.154.154 0 0 1-.033.104m1.005-.232a.162.162 0 0 0-.064-.06.198.198 0 0 0-.088-.019.183.183 0 0 0-.114.036.222.222 0 0 0-.07.105.576.576 0 0 0-.023.179c0 .118.022.202.064.256a.174.174 0 0 0 .143.063.171.171 0 0 0 .113-.035.233.233 0 0 0 .069-.105.626.626 0 0 0 .022-.18.598.598 0 0 0-.014-.147.308.308 0 0 0-.038-.093m-.064.447c-.023.035-.054.051-.088.051a.105.105 0 0 1-.09-.05c-.024-.034-.037-.102-.037-.206 0-.103.014-.173.04-.212.02-.03.05-.046.086-.046.035 0 .066.018.09.053.023.033.035.102.035.205 0 .104-.012.172-.036.205m-.76-.442h.308a.87.87 0 0 0-.11.164.85.85 0 0 0-.08.203.693.693 0 0 0-.029.179h.079a.998.998 0 0 1 .241-.56v-.06h-.408zm-1.785-.461-.135-.035c-.018-.003-.05-.004-.069-.006l-.056-.001-.045-.001-.026.001c-.008 0-.034-.006-.042-.007l-.03-.011a.275.275 0 0 0-.026-.007l-.037-.008c-.016-.003-.06-.025-.062-.025l-.029-.022s-.029-.015-.03-.02c0-.003-.006-.01-.011-.013-.006-.004-.011-.003-.012.003-.002.004.006.02.017.032.01.012.051.041.053.041l.033.015s.016.01.034.014l.04.007.022.007a.23.23 0 0 0 .03.01c.008.004.023.005.032.007a.78.78 0 0 0 .046.001l.043.001.055.001.069.005.125.032c.018.006.036.006.04-.001.003-.005-.01-.015-.029-.021m3.175-.393.256-1.7s.05-.138-.064-.263a.76.76 0 0 0-.626-.243c-.233.014-.452.068-.572.168l.011-.151h.02c.061 0 .112-.058.112-.13a.17.17 0 0 0-.013-.06c.06 0 .111-.056.111-.126 0-.072-.05-.13-.113-.13h-.03a.413.413 0 0 0 .111-.165c.07-.17.067-.406-.008-.547-.095-.18-.023-.332-.022-.339a.038.038 0 0 0-.06-.045.757.757 0 0 0-.12.138l-.018.027-.007-.032a1.773 1.773 0 0 0-.117-.35.039.039 0 0 0-.042-.023.04.04 0 0 0-.033.034.73.73 0 0 1-.038.159l-.013.034-.014-.034c-.12-.296-.43-.4-.443-.404a.04.04 0 0 0-.047.018c-.008.015-.006.037.008.048.064.06.104.22.102.414v.03l-.022-.02c-.05-.045-.103-.078-.109-.082a.043.043 0 0 0-.041-.001.04.04 0 0 0-.02.034c0 .003 0 .226-.032.338a.293.293 0 0 1-.056.1c-.05.075-.113.167-.093.331.016.15.095.268.153.338h-.022c-.062 0-.112.058-.112.13 0 .07.05.126.11.126a.142.142 0 0 0-.012.06c0 .071.05.13.111.13h.02l.012.16c-.12-.1-.339-.164-.573-.177a.763.763 0 0 0-.626.242c-.114.126-.065.263-.065.263s.23 1.53.258 1.7c.028.17.182.176.182.176l.996.077.011.157c0 .094.097.183.204.183.106 0 .204-.09.204-.183l.011-.157.998-.077s.153-.005.182-.175m-1-3.125c.01-.094.01-.195-.003-.302v-.004l.001-.001a.475.475 0 0 1 .044-.091l.024-.04.002.045a.474.474 0 0 0 .057.207c.033.06.05.149.05.243a.646.646 0 0 1-.045.24c-.027.068-.08.156-.182.188a.036.036 0 0 0-.012.006h-.135c.1-.038.164-.194.198-.49m-.186-.634.014-.039.014.039c.039.122.087.307.087.5a.945.945 0 0 1-.007.125c-.04.343-.112.415-.152.426-.037.011-.086-.02-.144-.087-.058-.067-.07-.176-.07-.253 0-.15.046-.33.107-.41.065-.09.116-.191.151-.301m-.438.263.022-.066.003-.014a.384.384 0 0 0 .01-.074l.001-.064c0-.111-.014-.219-.04-.303l-.012-.036.033.02c.106.07.24.192.278.39l.004.01v.003l-.003.004a.875.875 0 0 1-.074.12c-.107.148-.196.57-.032.762a.33.33 0 0 0 .14.11h-.17c-.026-.017-.203-.144-.207-.497v-.031c0-.214.025-.279.047-.334m-.339.514-.003-.048a.37.37 0 0 1 .084-.229.429.429 0 0 0 .067-.124c.015-.056.026-.145.031-.255l.002-.029.022.018a.473.473 0 0 1 .074.073l.006.006-.017.046c-.025.062-.055.139-.05.395 0 .262.093.415.164.495h-.197a.603.603 0 0 1-.183-.347m.052.525c-.017 0-.033-.022-.033-.049 0-.027.016-.05.033-.05h.91c.018 0 .033.023.033.05 0 .027-.015.049-.033.049zm.098.188c-.016 0-.033-.024-.033-.05 0-.027.017-.05.033-.05h.714c.018 0 .033.023.033.05 0 .026-.015.05-.033.05zm-.726 2.295s.207-.081.433-.065c.224.017.376.1.366.147-.008.046-.793-.008-.799-.082m.043-.157c-.102-.003-.106-.07-.116-.11 0 0-.252-1.52-.24-1.618.003-.025.09-.26.476-.26.286.002.497.16.609.27l.138 1.818c-.215-.153-.747-.098-.867-.1m1.204.583s.002.06-.102.06c-.103 0-.125-.098-.125-.098l-.182-2.604h.533zm.244-.344c-.01-.048.143-.13.368-.147.225-.016.433.065.433.065-.007.074-.791.128-.8.083m.756-.24c-.12.003-.652-.053-.866.1l.137-1.817a.886.886 0 0 1 .609-.27c.386 0 .472.234.475.259.013.099-.24 1.617-.24 1.617-.01.042-.013.108-.115.11m.65.545c.003.007.02.007.039.001l.125-.032c.018-.003.05-.004.069-.005h.055l.044-.002h.044a.092.092 0 0 0 .032-.008.14.14 0 0 0 .03-.01l.022-.007.04-.007c.02-.004.035-.013.035-.013.018-.008.033-.014.034-.016 0 0 .042-.029.053-.04.01-.013.017-.029.016-.033-.001-.005-.007-.007-.012-.003a.028.028 0 0 0-.011.014c0 .004-.03.02-.03.02-.014.01-.028.02-.028.022-.002 0-.047.022-.064.024l-.037.008a.509.509 0 0 0-.025.007l-.03.011c-.007.001-.034.007-.043.007H66.168l-.056.001-.07.005-.134.035c-.018.006-.03.015-.028.02m-3.236.217c.085-.113.112-.383.025-.6-.099-.245-.358-.264-.368-.265-.01 0-.022.007-.024.017-.005.01 0 .023.01.028a.163.163 0 0 1 .074.147c0 .064-.013.25-.018.335a4.089 4.089 0 0 1-.2-.268c.007-.007.015-.014.022-.024a.38.38 0 0 0 .056-.078.528.528 0 0 0 .057-.183c.016-.129-.013-.3-.116-.393l-.005-.004a.39.39 0 0 0-.157-.1.462.462 0 0 0 .03-.12v-.024c0-.128-.06-.248-.127-.36l-.004-.006a.398.398 0 0 0 .074-.146c.03-.127-.008-.259-.055-.383a.024.024 0 0 0-.03-.014c-.012.006-.018.018-.014.03.014.035-.014.092-.045.126l-.058.052c-.028.025-.06.051-.086.083a.379.379 0 0 0-.022-.07c.011-.104.03-.2.053-.29.019.024.045.043.074.046.081.008.186-.062.229-.116.073-.09.092-.212.102-.33v-.002c0-.01-.008-.019-.02-.02-.01-.001-.022.007-.022.02-.004.032-.046.067-.085.082l-.063.022c-.047.015-.098.032-.144.056.04-.111.08-.2.106-.252.045.018.104.01.166-.026a.38.38 0 0 0 .153-.153c.023-.045.036-.094.048-.14.014-.05.026-.097.05-.14.008-.012.018-.018.03-.026l.018-.008a.026.026 0 0 0 .01-.027.028.028 0 0 0-.021-.02c-.065-.006-.126.008-.188.022-.07.017-.24.07-.314.199a.308.308 0 0 0-.038.15.223.223 0 0 0 .046.142c-.023.038-.056.1-.09.19a1.02 1.02 0 0 0-.028-.077.63.63 0 0 1-.04-.138v-.004c0-.012.004-.02.01-.032l.008-.016c.001-.004.003-.007.003-.011 0-.006-.004-.013-.009-.017a.026.026 0 0 0-.029-.003c-.052.032-.092.076-.133.122-.046.052-.148.187-.132.329.008.083.052.215.14.244a.1.1 0 0 0 .054.005.124.124 0 0 0 .052-.024c-.01.058-.02.12-.026.187a.734.734 0 0 0-.107-.113.565.565 0 0 1-.102-.105c-.009-.012-.009-.023-.009-.039l-.001-.019a.026.026 0 0 0-.018-.022c-.011-.003-.022.003-.028.011a.567.567 0 0 0-.063.175c-.017.069-.045.243.036.367.043.062.162.172.264.15l.009-.003.002.105.006.084c-.033-.025-.069-.043-.105-.062a.636.636 0 0 1-.125-.078c-.011-.01-.014-.02-.018-.035l-.006-.018c-.002-.01-.012-.017-.023-.017-.01 0-.02.007-.022.018-.02.06-.02.121-.02.185.002.07.016.246.125.346.056.05.142.077.246.078.017 0 .03-.003.043-.007l.05.131a.346.346 0 0 0-.06-.014h-.016c-.102-.014-.154-.021-.215-.107-.007-.008-.018-.012-.026-.01-.011.003-.018.011-.018.022a1.12 1.12 0 0 0 .005.252c.015.097.068.18.153.238.1.07.23.096.352.073l.044-.003a.256.256 0 0 0 .081.126c.004.003.008.007.014.007.034.051.069.1.105.15a.813.813 0 0 0-.283-.044c-.19.004-.26-.106-.264-.11-.006-.01-.017-.014-.028-.01a.026.026 0 0 0-.018.024c.006.237.097.384.314.506.215.12.557.053.605.045.01.008.022.014.033.018.08.08.153.142.211.18l.069-.027s-.072-.062-.18-.172m-.757-3.3c.065-.112.219-.16.282-.174a.853.853 0 0 1 .101-.018l-.004.004a.587.587 0 0 0-.054.151.623.623 0 0 1-.045.13.32.32 0 0 1-.134.134c-.025.013-.088.044-.13.018.006-.01.009-.032.012-.042.013-.056.05-.093.088-.135.019-.022.036-.047.052-.07a.285.285 0 0 1 .092-.08c.013-.005.047-.008.042-.029-.004-.015-.02-.007-.03 0-.013.006-.028.011-.04.02-.04.026-.07.065-.101.102-.035.041-.079.078-.105.124-.015.029-.02.06-.03.09l-.006-.007a.197.197 0 0 1-.022-.091c0-.044.013-.093.032-.126m-.19 1.282v-.026a.17.17 0 0 0-.003-.026v-.011a.473.473 0 0 1 .106-.116l.062-.057a.267.267 0 0 0 .043-.063c.018.06.032.12.032.18a.342.342 0 0 1-.01.083c-.017.072-.083.17-.146.192-.022.008-.055-.001-.079-.017.002 0 .003 0 .003-.003l.026-.027a.304.304 0 0 0 .028-.036c.007-.014.029-.052.031-.06a.365.365 0 0 0 .021-.045l.02-.044.027-.065.01-.019c.006-.018.008-.034.002-.037-.005-.003-.018.008-.024.026l-.01.022c-.008.017-.02.047-.026.064l-.02.042-.022.046a.418.418 0 0 1-.055.09c-.007.006-.018.02-.026.028l-.003.004-.001-.003a.057.057 0 0 1-.011-.02.186.186 0 0 0 .025-.102m.044-.563a.367.367 0 0 0 .027-.08l.016-.04c.042-.031.104-.05.158-.068l.068-.023a.278.278 0 0 0 .059-.037.462.462 0 0 1-.084.222c-.042.053-.133.106-.192.1a.08.08 0 0 1-.043-.025.255.255 0 0 0 .075-.028l.044-.026a.425.425 0 0 0 .043-.035s.042-.038.067-.075c.014-.023.022-.03.022-.03.011-.016.017-.032.013-.038-.006-.004-.02.006-.03.02 0 0-.012.012-.025.034-.024.034-.06.067-.06.067a.421.421 0 0 1-.044.036c-.01.005-.029.018-.042.026a.167.167 0 0 1-.079.024l-.001-.003c.001-.007.005-.014.008-.021m-.124.087c-.008-.024-.02-.046-.025-.07-.008-.03-.008-.061-.008-.093s.001-.065.003-.096c.001-.025 0-.049.002-.072.003-.017.039-.09.016-.1-.013-.007-.02.013-.025.034a.169.169 0 0 0-.007.032c-.01.053-.01.11-.013.165a.72.72 0 0 0 .006.134c.003.02.01.056.025.073-.007 0-.015 0-.024-.003-.062-.023-.102-.134-.109-.204l-.001-.025c0-.115.084-.225.123-.269a.643.643 0 0 1 .067-.069v.004c.006.054.025.102.043.149.015.043.032.083.037.125.003.013.003.027.003.039a.346.346 0 0 1-.032.14c-.026.057-.053.093-.081.105m.18.677a.213.213 0 0 0 .067-.043c.012.035-.003.09-.028.127l-.047.065a1.92 1.92 0 0 0-.067.096.293.293 0 0 0-.036-.052 1.76 1.76 0 0 1-.032-.234c.035.034.095.058.142.041m-.18-.11h-.002.002l-.022.008c-.067.014-.171-.068-.214-.131a.33.33 0 0 1-.046-.183c0-.06.01-.113.018-.144a.571.571 0 0 1 .028-.098.62.62 0 0 0 .113.121c.034.032.068.061.094.097a.324.324 0 0 1 .058.177l.001.015.001.047v.004a.265.265 0 0 1-.007.045c-.002 0-.005 0-.006-.003-.01 0-.035-.008-.035-.008a.199.199 0 0 1-.027-.025l-.078-.088a.646.646 0 0 0-.02-.047.58.58 0 0 0-.02-.045l-.038-.138c-.006-.02-.015-.033-.02-.033-.008 0-.01.014-.005.033l.04.148a.748.748 0 0 1 .04.092s.044.1.119.125l.023.008c.004.003.014.003.022.001l-.001.001a.057.057 0 0 1-.018.02m.111.573c-.001.007-.005.012-.008.018l-.005-.004-.018-.008a.09.09 0 0 1-.018-.01l-.044-.022a.292.292 0 0 1-.047-.033c-.01-.008-.035-.04-.043-.048-.005-.01-.018-.023-.025-.03l-.03-.028a.368.368 0 0 1-.036-.053l-.026-.042-.007-.027c-.007-.017-.017-.034-.023-.038-.006-.004-.009.007-.006.025a.235.235 0 0 0 .017.052l.023.043.023.034c.009.013.042.044.047.051a.52.52 0 0 1 .025.028l.032.042s.008.011.032.028l.033.016c.016.01.035.02.044.024l.018.01.012.006c-.007.003-.014.003-.023.003-.065 0-.155-.013-.214-.065-.095-.087-.108-.247-.108-.31v-.028c0-.024 0-.05.002-.074.003.001.003.004.005.005.04.037.089.062.134.085.043.021.081.042.116.07.045.038.08.092.1.158a.33.33 0 0 1 .018.123m.024-.17c.022-.04.052-.08.078-.116l.047-.066a.267.267 0 0 0 .033-.074c.042.08.072.162.072.246 0 .007 0 .014-.002.021-.004.077-.055.189-.114.223-.025.014-.065.007-.092-.008.003 0 .004-.003.005-.006.013-.014.042-.053.044-.056a.243.243 0 0 0 .018-.032c.009-.015.03-.063.033-.067l.014-.03a.59.59 0 0 0 .025-.052.231.231 0 0 0 .02-.062l.005-.036c-.002-.019-.002-.042-.002-.052-.001-.008-.008-.015-.013-.015-.007 0-.013.008-.013.016l.001.051a.306.306 0 0 1-.02.089l-.024.05a.155.155 0 0 0-.015.03l-.018.04a.36.36 0 0 1-.053.088c-.002 0-.005.004-.006.01l.001-.011a.267.267 0 0 0-.006-.104 11.165 11.165 0 0 1-.018-.077m.187.784h-.003a.424.424 0 0 1-.318-.065.305.305 0 0 1-.132-.205.854.854 0 0 1-.01-.132l.001-.048c.06.057.122.067.208.078l.014.001c.113.015.2.077.237.168.01.024.017.048.022.076v.003l.011.072v.004h-.01l-.056-.008a.233.233 0 0 1-.043-.013s-.026-.008-.052-.029c-.015-.012-.032-.019-.048-.027l-.015-.007c-.015-.01-.04-.025-.054-.036-.014-.01-.039-.026-.054-.038l-.07-.083c-.011-.015-.026-.026-.033-.025-.006.003-.003.017.008.032l.082.096.053.037.054.038s.003 0 .02.01a.133.133 0 0 1 .04.023.334.334 0 0 0 .143.053.23.23 0 0 0 .037-.001v.025c-.015 0-.032.003-.032.003m.043-.359a.452.452 0 0 0-.026.089.303.303 0 0 0-.097-.095 2.174 2.174 0 0 1-.055-.131c.03.005.062.003.087-.011a.26.26 0 0 0 .088-.1l.022.02a.088.088 0 0 1 .014.054.437.437 0 0 1-.003.042v.007a.44.44 0 0 1-.03.126m.103.476a.22.22 0 0 1-.034-.045.044.044 0 0 0 .013-.017.647.647 0 0 1 .02-.035l.008-.016.017-.031a.384.384 0 0 0 .015-.1v-.112l-.002-.047v-.047l-.001-.032-.004-.048c-.003-.017-.025-.035-.029-.029-.003.005-.003.018 0 .029.004.01.008.04.008.05l.002.03.001.047v.158a.39.39 0 0 1-.005.062c-.003.015-.022.057-.022.058a.206.206 0 0 1-.01.017.098.098 0 0 1-.008.015c-.002.004-.011.014-.014.012l-.004.001a.345.345 0 0 1-.015-.072.604.604 0 0 0-.017-.115v-.004a.316.316 0 0 1 .023-.186.448.448 0 0 0 .033-.14v-.008a.47.47 0 0 0 .003-.047l-.003-.034a.807.807 0 0 1 .064.053l.005.004c.075.068.105.182.105.287a.505.505 0 0 1-.055.23.464.464 0 0 1-.048.07l-.046.042m.404.56c-.001.01-.003.016-.005.016a1.35 1.35 0 0 1-.171.02.81.81 0 0 1-.25-.015.554.554 0 0 1-.13-.048c-.184-.1-.267-.216-.286-.398a.375.375 0 0 0 .258.081.788.788 0 0 1 .44.123c.004.007.009.01.017.012l.027.015c.05.036.096.085.106.148 0 .004-.002.03-.006.047m.051.018a.262.262 0 0 0-.015-.133v-.034l.001-.046v-.063s.002-.007.002-.029c0-.047-.007-.103-.007-.103a1.224 1.224 0 0 0-.006-.055l-.001-.047a.308.308 0 0 0-.018-.066.29.29 0 0 1-.014-.04c-.005-.013-.029-.039-.034-.035-.004.006-.004.017.001.028.006.008.02.045.024.056.004.01.01.028.012.039.003.01.005.054.007.067l.004.057.005.127V155.464a.322.322 0 0 0-.085-.08c-.008-.004-.018-.01-.025-.016a9.6 9.6 0 0 0 .018-.362.214.214 0 0 0-.037-.129.37.37 0 0 1 .252.22c.036.088.05.181.05.268 0 .131-.033.244-.076.294a.085.085 0 0 1-.058-.022m.82.266a.513.513 0 0 1-.113.073v.074a.466.466 0 0 0 .154-.094v.492h.078v-.63h-.05a.3.3 0 0 1-.07.085" style="fill:#0066b5;fill-opacity:1;fill-rule:nonzero;stroke:none;stroke-width:.352778" transform="matrix(16.17834 0 0 16.17834 -942.935 -2393.865)"/><path d="M60.53 152.045a.106.106 0 0 0-.106.108c0 .058.047.106.106.106.06 0 .108-.048.108-.106a.108.108 0 0 0-.108-.108m7.179 0a.106.106 0 0 0-.106.108.106.106 0 0 0 .212 0 .106.106 0 0 0-.106-.108M61.5 151.22l.016.118c-.048.014-.108.032-.186.032a.545.545 0 0 1-.157-.02.675.675 0 0 1 .044.354l-.122.015a.55.55 0 0 0-.016-.273.58.58 0 0 0-.178-.25l-.117-.103.083-.094.117.104c.062.052.176.133.284.143.095.01.17-.006.233-.026m.343.018-.079.09-.397-.348-.121.138-.088-.077.121-.138-.225-.197.08-.092zM62.191 150.057c.058.09-.029.213-.212.332-.186.117-.335.142-.392.052-.052-.082.028-.215.213-.332.184-.117.34-.134.391-.052m.255.212-.33.21.036.056.232-.149.13.203-.47.297.03.046.486-.31.053.082-.597.382-.13-.202.468-.297-.028-.045-.467.297-.054-.084.236-.15-.035-.055-.333.212-.055-.087.773-.491zm-.367-.138c-.023-.037-.128-.014-.231.053-.105.067-.171.148-.148.186.021.031.112.019.23-.055.118-.075.17-.152.15-.184M63.127 149.802l-.558.162-.03-.095.56-.164zm-.175-.106-.294.085-.027-.095.293-.085zm.204.314c.024.083-.05.185-.206.23-.147.043-.273-.003-.296-.085-.026-.089.058-.19.205-.233.156-.044.272 0 .297.088m-.126.034c-.012-.04-.067-.05-.143-.03-.077.024-.119.062-.106.104.01.04.066.052.144.028.078-.022.118-.06.105-.102m.51.345-.65.19-.073-.252.122-.036.043.148.528-.153zm-.056-.546-.124.036.086.298-.115.033-.195-.664.116-.035.076.26.124-.037zM64.157 149.563l.22-.004v-.125l.12-.003.008.55h-.12l-.003-.129-.223.003a.255.255 0 0 1-.203.098c-.149.001-.256-.105-.259-.237a.244.244 0 0 1 .25-.247.26.26 0 0 1 .21.094m.364.634c.003.112-.121.193-.353.197-.23.003-.356-.073-.36-.186 0-.11.123-.194.355-.198.23-.004.357.075.358.187m-.57-.62c-.086 0-.131.063-.13.136.002.072.05.133.134.131.085 0 .13-.063.13-.135-.002-.073-.05-.133-.134-.132m-.007.63c.001.053.09.09.224.09.131-.004.222-.042.22-.097 0-.057-.091-.091-.224-.09-.133.003-.222.039-.22.097m.262-.456.175-.003-.002-.083-.175.003a.185.185 0 0 1 .004.04c0 .014 0 .029-.002.043M65.134 150.306a1.707 1.707 0 0 1-.216-.047l-.157-.045.176-.606.315.09-.032.112-.199-.056-.111.381.088.026c.063.017.138.03.17.035zm.312.319-.112-.034.134-.463-.098-.027-.121.421-.113-.033.245-.844.112.031-.09.31.098.028.096-.33.112.034zM66.236 151.096l-.105-.066.103-.16-.47-.3.058-.089.573.365zm.084-.564c-.049.077-.17.081-.306-.006-.127-.081-.184-.198-.135-.274.048-.076.175-.073.306.011.135.087.183.193.135.269m.125-.14-.49-.314.053-.082.49.311zm-.233.07c.02-.032-.01-.078-.078-.122-.068-.043-.126-.052-.147-.02-.02.034.01.085.079.128.068.044.125.048.146.015m.194-.267-.259-.164.054-.085.258.164zm.246.48-.106-.067-.126.197-.102-.065.323-.507.102.065-.138.216.106.068zM67.054 151.799l-.606-.688.082-.072.135.155.239-.211.081.092-.238.21.073.084.238-.211.082.092-.239.21.234.267zm.488-.554a4.026 4.026 0 0 1-.423.282l-.079-.09c.01-.008.224-.132.332-.221l-.391-.444.081-.072zM59.94 152.948c.024-.124.107-.218.268-.188l-.02.1c-.096-.02-.141.034-.158.118-.012.065.006.117.062.128.044.008.082-.01.12-.077l.051-.094c.033-.056.088-.126.2-.104.102.019.163.109.138.234-.024.121-.116.2-.241.176l.019-.099c.074.014.116-.026.13-.095.012-.065-.012-.107-.064-.118-.044-.008-.068.01-.091.05l-.06.104c-.058.103-.115.143-.218.121-.11-.02-.164-.111-.137-.256M59.869 153.795l.018-.406.643.027-.016.401-.098-.004.012-.301-.162-.007-.013.28-.097-.003.012-.281-.187-.007-.013.306zM59.891 154.27c-.018-.152.087-.286.3-.31.214-.027.348.08.367.232.018.153-.088.287-.302.312-.213.026-.347-.08-.365-.233m.57-.068c-.013-.107-.11-.16-.257-.144-.148.018-.23.093-.217.2.013.108.11.162.257.146.147-.018.23-.094.218-.202M60.35 155.13c-.154.046-.267.006-.313-.148-.047-.156.028-.25.182-.295l.383-.114.028.096-.372.11c-.124.038-.15.1-.129.174.022.074.079.116.202.078l.374-.11.028.095zM60.368 155.766l-.164-.347.584-.275.041.091-.493.233.12.257zM60.962 156.615l-.062-.077.226-.184-.168-.206-.226.182-.062-.078.5-.405.063.079-.2.16.169.208.2-.162.061.078zM61.326 156.738l-.155.09-.08-.073.59-.336.072.065-.27.623-.08-.072.073-.162zm.192.04.098-.214-.202.121zM62.03 157.473l-.084-.053.022-.534-.25.388-.082-.054.348-.542.084.054-.022.532.248-.386.084.053zM62.919 157.176l-.342.273-.102.237-.092-.04.104-.237-.033-.436.1.043.019.318.245-.201zM63.074 157.9c-.147-.037-.235-.183-.183-.392.054-.208.2-.295.349-.258.148.037.237.185.183.393-.052.21-.2.296-.349.258m.142-.557c-.105-.026-.191.045-.227.189-.036.144.005.248.11.274.105.026.19-.046.227-.189.036-.143-.005-.247-.11-.274M64.042 157.78c-.013.16-.09.251-.251.24-.161-.013-.222-.117-.21-.277l.032-.398.1.007-.031.389c-.011.13.04.175.117.182.076.006.134-.032.145-.162l.03-.388.1.008zM64.727 157.983l-.098.008-.309-.437.04.46-.1.008-.054-.641.1-.01.308.435-.039-.457.098-.008zM65.464 157.812l-.082.022-.017-.059c-.021.057-.064.095-.144.116-.162.043-.297-.048-.351-.254-.054-.206.018-.354.182-.397.128-.033.237.011.299.153l-.1.027c-.028-.072-.083-.11-.176-.084-.117.03-.142.15-.109.275.038.145.12.214.232.186.1-.027.132-.094.114-.19l-.15.039-.023-.094.24-.065zM66.3 157.143c.08.14.066.259-.074.337-.14.08-.248.03-.328-.11l-.197-.349.087-.048.193.34c.062.112.13.12.198.083.066-.037.094-.1.029-.213l-.192-.34.087-.048zM66.982 156.926l-.077.064-.5-.19.29.36-.076.061-.406-.501.078-.062.497.187-.288-.357.077-.063zM67.22 156.684l-.068.071-.464-.447.07-.072zM67.142 155.765l.389.552-.058.075-.634-.233.065-.084.471.182-.298-.408zM67.951 155.642l-.198.355-.563-.312.195-.352.085.048-.146.264.143.078.136-.244.086.047-.136.245.164.091.149-.268zM68.174 155.085a.417.417 0 0 1-.108-.012c-.082-.022-.152-.041-.182.037l-.05.138.247.09-.033.094-.604-.22.086-.233c.038-.109.115-.17.238-.125a.161.161 0 0 1 .11.13c.039-.035.084-.042.159-.019a.516.516 0 0 0 .175.018zm-.555-.069-.05.135.173.064.05-.135c.021-.062.012-.108-.05-.13-.064-.023-.1.006-.123.066M68.315 154.585c-.025.125-.108.22-.269.187l.02-.099c.096.02.141-.033.158-.117.012-.066-.005-.117-.06-.128-.046-.008-.083.008-.122.076l-.05.093c-.033.057-.09.129-.2.107-.103-.021-.163-.11-.138-.236.023-.121.115-.2.24-.175l-.019.098c-.074-.014-.115.026-.13.095-.012.065.012.107.066.118.044.008.066-.008.09-.05l.06-.104c.058-.103.116-.142.219-.121.107.02.163.111.135.256M67.721 154.099l.642.05.008-.1-.642-.05zM67.824 153.423l.006.178.546-.016.004.099-.547.016.005.177-.098.003-.014-.454zM67.636 152.882l.416.132.253-.045.018.099-.255.045-.344.268-.02-.108.254-.191-.303-.094zm0 0" style="fill:#fff;fill-opacity:1;fill-rule:nonzero;stroke:none;stroke-width:.352778" transform="matrix(16.17834 0 0 16.17834 -942.935 -2393.865)"/></svg>