<svg xmlns="http://www.w3.org/2000/svg" xml:space="preserve" width="745.19208" height="745.18146" viewBox="0 0 745.19206 745.18142"><path d="M0 0c0-14.072-11.408-25.481-25.481-25.481-14.074 0-25.482 11.409-25.482 25.481 0 14.073 11.408 25.481 25.482 25.481C-11.408 25.481 0 14.073 0 0" style="fill:#fff;fill-opacity:1;fill-rule:nonzero;stroke:none" transform="matrix(10.60093 0 0 -10.60093 645.244 370.436)"/><path d="M0 0c-11.744 0-21.262-9.52-21.262-21.264 0-11.739 9.518-21.258 21.262-21.258 11.742 0 21.26 9.519 21.26 21.258C21.26-9.52 11.742 0 0 0m0-56.032c-19.205 0-34.774 15.567-34.774 34.768C-34.774-2.06-19.205 13.512 0 13.512c19.203 0 34.771-15.572 34.771-34.776 0-19.201-15.568-34.768-34.771-34.768" style="fill:#bdbcbc;fill-opacity:1;fill-rule:evenodd;stroke:none" transform="matrix(10.60093 0 0 -10.60093 372.612 147.215)"/><path d="M0 0c-11.744 0-21.262-9.52-21.262-21.264 0-11.739 9.518-21.258 21.262-21.258 11.742 0 21.26 9.519 21.26 21.258C21.26-9.52 11.742 0 0 0Zm0-56.032c-19.205 0-34.774 15.567-34.774 34.768C-34.774-2.06-19.205 13.512 0 13.512c19.203 0 34.771-15.572 34.771-34.776 0-19.201-15.568-34.768-34.771-34.768z" style="fill:none;stroke:#fff;stroke-width:.75;stroke-linecap:butt;stroke-linejoin:miter;stroke-miterlimit:4;stroke-dasharray:none;stroke-opacity:1" transform="matrix(10.60093 0 0 -10.60093 372.612 147.215)"/><path d="M0 0c-12.576 0-22.771-10.195-22.771-22.771 0-12.578 10.195-22.772 22.771-22.772s22.77 10.194 22.77 22.772C22.77-10.195 12.576 0 0 0m32.44-22.771c0-17.917-14.525-32.441-32.44-32.441-17.916 0-32.44 14.524-32.44 32.441 0 17.916 14.524 32.44 32.44 32.44 17.915 0 32.44-14.524 32.44-32.44" style="fill:#176fc1;fill-opacity:1;fill-rule:nonzero;stroke:none" transform="matrix(10.60093 0 0 -10.60093 372.612 131.2)"/><path d="m0 0 .649-1.991h2.094L1.046-3.223l.647-1.987L0-3.981-1.691-5.21l.649 1.987-1.694 1.232h2.092z" style="fill:#bdbcbc;fill-opacity:1;fill-rule:evenodd;stroke:none" transform="matrix(10.60093 0 0 -10.60093 122.156 192.352)"/><path d="m0 0 .649-1.991h2.094L1.05-3.222l.645-1.991L0-3.982l-1.689-1.231.647 1.991-1.692 1.231h2.09z" style="fill:#bdbcbc;fill-opacity:1;fill-rule:evenodd;stroke:none" transform="matrix(10.60093 0 0 -10.60093 85.358 282.74)"/><path d="m0 0-.648-1.991H-2.74l1.694-1.232-.648-1.987L0-3.981 1.69-5.21l-.645 1.987 1.693 1.232H.645Z" style="fill:#bdbcbc;fill-opacity:1;fill-rule:evenodd;stroke:none" transform="matrix(10.60093 0 0 -10.60093 626.02 192.352)"/><path d="m0 0-.65-1.991h-2.093l1.697-1.231-.645-1.991L0-3.982l1.694-1.231-.651 1.991 1.694 1.231H.644Z" style="fill:#bdbcbc;fill-opacity:1;fill-rule:evenodd;stroke:none" transform="matrix(10.60093 0 0 -10.60093 658.221 282.74)"/><path d="M-179.661 483.876h83.757v25.761h-83.757z" style="fill:#176fc1;fill-opacity:1;fill-rule:nonzero;stroke:none;stroke-width:3.57098" transform="matrix(2.96863 0 0 -2.96863 782.046 1721.821)"/><path d="M0 0v-12.601c0-5.275 3.483-9.738 8.275-11.209.005-.007.019-.007.029-.012a8.063 8.063 0 0 0 3.419-2.13 8.098 8.098 0 0 0 3.377 2.119c.046.011.095.025.142.041 4.761 1.49 8.213 5.937 8.213 11.191V0Z" style="fill:#176fc1;fill-opacity:1;fill-rule:nonzero;stroke:none" transform="matrix(10.60093 0 0 -10.60093 248.699 303.527)"/><path d="M0 0a4.33 4.33 0 1 0-6.643-3.659A4.32 4.32 0 0 0-4.626 0c-3.785-1.021-6.577-4.468-6.577-8.576 0-4.547 3.409-8.289 7.816-8.82v2.959c-3.519.519-6.22 3.544-6.22 7.205 0 1.982.79 3.769 2.068 5.08a5.591 5.591 0 0 1-.399-2.069 5.628 5.628 0 0 1 5.625-5.626A5.626 5.626 0 0 1 3.31-4.221c0 .729-.146 1.428-.397 2.069a7.249 7.249 0 0 0 2.07-5.08c0-3.661-2.705-6.686-6.219-7.205v-2.959c4.4.531 7.814 4.273 7.814 8.82C6.578-4.468 3.785-1.021 0 0" style="fill:#fff;fill-opacity:1;fill-rule:nonzero;stroke:none" transform="matrix(10.60093 0 0 -10.60093 397.168 335.247)"/><path d="m0 0 .629-.835C.699-.933.731-.906.8-.85L2.555.542c.079.062.089.108.029.187l-.622.827Zm-.326 4.641c-.165.216-.348.116-.516-.018l-.179.24.965.765L2.1 2.75l-.632-.501ZM.799-1.545c-.262-.208-.575-.191-.786.088l-.657.875c-.162.217-.34.111-.513-.022l-.177.239 3.528 2.801c.057.046.113.043.16-.019L3.3 1.153c.211-.278.151-.592-.114-.803ZM-1.157 2.14c-.619.826-1.644-.023-1.049-.815.62-.824 1.647.017 1.049.815m.635.524C.539 1.253-1.802-.604-2.861.806c-.171.229-.248.503-.243.819l-.586-.466-.338.452 1.186.943-.18.241c-.111.15-.247.087-.362-.003l-.151.201.909.718.463-.617 1.188.945.34-.452-.595-.475c.298-.074.539-.22.708-.448" style="fill:#fff;fill-opacity:1;fill-rule:nonzero;stroke:none" transform="matrix(10.60093 0 0 -10.60093 197.22 160.042)"/><path d="M0 0c-.365.982-1.83.419-1.463-.564C-1.094-1.555.371-.992 0 0m-1.117-5.305-.119.322c-.077.212-.254.219-.437.146l-.106.288 3.7 1.425-.129.347-3.636-1.402-.191.52 4.36 1.68c.035.014.052.021.072-.034l.451-1.215c.024-.062.011-.121-.077-.152L-.47-4.629l.105-.287c.019-.054.058-.055.105-.034l3.347 1.289.197-.532L-.418-5.62c-.377-.147-.557-.064-.699.315M.772.297C1.407-1.405-1.601-2.564-2.233-.86-2.869.84.139 2 .772.297m-3.806-3.323L2.781-.784l.201-.53-5.817-2.244z" style="fill:#fff;fill-opacity:1;fill-rule:nonzero;stroke:none" transform="matrix(10.60093 0 0 -10.60093 276.526 73.164)"/><path d="M0 0c.015.281-.194.32-.408.331l.017.308L.842.574.51-5.643l-.806.043Zm-5.083-3.174c-.004.016-.004.022.017.021 1.64.248 2.75 1.128 2.845 2.905l-2.312.126.028.576 3.132-.169c.046-.003.053-.009.05-.052-.114-2.18-1.15-3.626-3.399-3.842z" style="fill:#fff;fill-opacity:1;fill-rule:nonzero;stroke:none" transform="matrix(10.60093 0 0 -10.60093 393.42 58.278)"/><path d="m0 0 .282.84c.074.219-.052.343-.227.412l.102.299L3.776.146l.281.837L.53 2.349l.183.543 4.242-1.645c.03-.011.045-.032.033-.064L4.403-.57c-.024-.07-.07-.098-.153-.065L1.073.595.784-.268l3.355-1.298-.191-.565L.314-.723C-.051-.581-.134-.396 0 0m-1.381-1.14L4.25-3.322l-.185-.674-5.632 2.183Z" style="fill:#fff;fill-opacity:1;fill-rule:nonzero;stroke:none" transform="matrix(10.60093 0 0 -10.60093 448.335 92.503)"/><path d="m0 0-.615.498 3.278 4.414c.163.223.024.373-.145.504l.245.29.941-.76-1.275-1.68.704-.564-.341-.454-.704.565Zm-.823 4.457c.017.065-.031.118-.1.08-.535-.32-1.424-.309-1.945-.085l-.071.646c.002.013 0 .024.021.017.628-.32 1.794-.22 2.518.757l.49.659-.944.756.363.495 2.634-2.097-.365-.495-1.003.788-.489-.661c-.734-.986-.526-2.173-.07-2.725.008-.017.003-.019-.01-.025l-.618-.088c-.336.464-.571 1.352-.411 1.978" style="fill:#fff;fill-opacity:1;fill-rule:nonzero;stroke:none" transform="matrix(10.60093 0 0 -10.60093 550.815 185.498)"/><path d="M0 0c-.259-.021-.451-.084-.577-.187a.468.468 0 0 1-.168-.405.525.525 0 0 1 .197-.412c.122-.098.289-.138.497-.127.21.008.36.068.45.174.072.079.145.242.214.491.048.172.109.331.186.473.096.175.207.316.337.423.096.085.213.152.349.201.123.038.259.061.405.069.418.022.764-.075 1.04-.293.275-.215.422-.504.44-.865a1.04 1.04 0 0 0-.325-.836c-.244-.229-.595-.369-1.049-.413l-.038.749c.208.021.362.075.459.157.09.082.133.187.129.319a.414.414 0 0 1-.162.331c-.101.073-.239.105-.421.096A.914.914 0 0 1 1.8-.074a.343.343 0 0 1-.114-.073.624.624 0 0 1-.134-.216 2.836 2.836 0 0 1-.087-.285L1.38-.936a1.386 1.386 0 0 0-.502-.678 1.458 1.458 0 0 0-.829-.28c-.455-.022-.836.081-1.142.315a1.182 1.182 0 0 0-.499.933c-.017.378.113.69.394.942.284.258.673.401 1.161.426z" style="fill:#fff;fill-opacity:1;fill-rule:nonzero;stroke:none" transform="matrix(10.60093 0 0 -10.60093 65.046 372.806)"/><path d="m0 0 4.722.798.388-2.312-.812-.137-.258 1.53-1.137-.191.258-1.53-.805-.136L2.1-.447.965-.638l.258-1.53-.836-.143Z" style="fill:#fff;fill-opacity:1;fill-rule:nonzero;stroke:none" transform="matrix(10.60093 0 0 -10.60093 51.484 407.994)"/><path d="M0 0a1.545 1.545 0 0 1-.6-.984 1.154 1.154 0 0 1 .043-.538c.123-.383.375-.653.758-.809.377-.158.79-.163 1.241-.018.19.064.359.155.505.276.152.115.28.258.382.426.128.195.203.379.232.555.025.18.006.368-.06.568a1.21 1.21 0 0 1-.261.461c-.121.13-.272.23-.449.304a1.632 1.632 0 0 1-.598.137 1.828 1.828 0 0 1-.62-.09A2.027 2.027 0 0 1 0 0m1.291 1.193A2.36 2.36 0 0 0 2.916.478c.193-.214.334-.458.424-.735.091-.279.119-.562.091-.847a2.227 2.227 0 0 0-.28-.834 2.517 2.517 0 0 0-.614-.716 2.605 2.605 0 0 0-.853-.463 2.778 2.778 0 0 0-.939-.145A2.416 2.416 0 0 0-.12-3.1c-.315.13-.58.305-.796.523a1.95 1.95 0 0 0-.473.784 1.93 1.93 0 0 0-.071.914 2.3 2.3 0 0 0 .352.893c.164.239.367.448.61.626.249.179.525.319.828.419.317.103.639.148.961.134" style="fill:#fff;fill-opacity:1;fill-rule:nonzero;stroke:none" transform="matrix(10.60093 0 0 -10.60093 78.737 447.81)"/><path d="m0 0-.358.702 1.573.805 2.094 2.556.401-.79-1.443-1.681 2.2.196.4-.784L1.539.787Z" style="fill:#fff;fill-opacity:1;fill-rule:nonzero;stroke:none" transform="matrix(10.60093 0 0 -10.60093 86.688 518.413)"/><path d="m0 0 3.958 2.699L5.269.765 4.588.3 3.72 1.584 2.768.936l.869-1.285-.676-.461L2.093.475l-.952-.651.868-1.282-.7-.476Z" style="fill:#fff;fill-opacity:1;fill-rule:nonzero;stroke:none" transform="matrix(10.60093 0 0 -10.60093 99.4 540.816)"/><path d="M0 0a1.525 1.525 0 0 1-.135-1.146c.049-.177.137-.335.261-.469a1.259 1.259 0 0 1 1.025-.418c.409.015.786.183 1.134.507.147.136.263.289.345.458.091.171.147.353.17.549.035.231.028.43-.021.601a1.24 1.24 0 0 1-.29.491 1.25 1.25 0 0 1-.429.31 1.275 1.275 0 0 1-.534.087A1.58 1.58 0 0 1 .925.842 1.777 1.777 0 0 1 .4.503 2.023 2.023 0 0 1 0 0m.675 1.627c.295.125.604.187.926.189.309 0 .591-.053.848-.157a2.03 2.03 0 0 0 .69-.491 2.022 2.022 0 0 0 .529-1.606 2.587 2.587 0 0 0-.259-.91 2.665 2.665 0 0 0-.583-.777 2.854 2.854 0 0 0-.791-.525 2.454 2.454 0 0 0-.854-.215 2.368 2.368 0 0 0-.941.14c-.29.11-.542.281-.756.514a1.95 1.95 0 0 0-.446.8c-.084.303-.1.621-.051.958.05.287.148.561.292.824.152.27.346.513.58.729.246.228.517.405.816.527" style="fill:#fff;fill-opacity:1;fill-rule:nonzero;stroke:none" transform="matrix(10.60093 0 0 -10.60093 140.862 565.786)"/><path d="m0 0 2.918 3.81.599-.463-.464-3.635 1.923 2.509.614-.474-2.918-3.81-.572.441.498 3.721L.622-.48Z" style="fill:#fff;fill-opacity:1;fill-rule:nonzero;stroke:none" transform="matrix(10.60093 0 0 -10.60093 162.97 615.322)"/><path d="M0 0c-.4-.688-.895-1.147-1.483-1.383-.576-.226-1.138-.198-1.675.089-.28.148-.509.349-.688.606-.178.256-.301.55-.366.886-.05.286-.05.578 0 .874.055.306.155.599.305.882.157.296.355.553.594.768.241.215.513.378.816.487.289.109.576.153.861.138.282-.021.561-.106.838-.253.385-.201.667-.49.846-.86.18-.375.243-.823.188-1.345l-.821.433a1.361 1.361 0 0 1-.208.616c-.11.164-.263.296-.459.401-.162.086-.33.134-.501.144a1.345 1.345 0 0 1-.538-.092 1.627 1.627 0 0 1-.525-.323 1.767 1.767 0 0 1-.383-.497 2.069 2.069 0 0 1-.21-.607 1.5 1.5 0 0 1 .018-.595c.042-.199.122-.376.235-.531.107-.151.241-.27.404-.356.241-.128.486-.176.731-.144.255.034.504.154.748.358l-1.183.626.401.766z" style="fill:#fff;fill-opacity:1;fill-rule:nonzero;stroke:none" transform="matrix(10.60093 0 0 -10.60093 256.571 643.254)"/><path d="m0 0 .943 3.93-.694.169.176.735L1.89 4.48.77-.187Z" style="fill:#fff;fill-opacity:1;fill-rule:nonzero;stroke:none" transform="matrix(10.60093 0 0 -10.60093 294 683.339)"/><path d="M0 0a.686.686 0 0 1-.519.301.679.679 0 0 1-.57-.189c-.154-.147-.243-.358-.268-.633-.024-.268.025-.488.145-.66.115-.171.29-.264.52-.286a.723.723 0 0 1 .584.198c.16.151.251.343.273.578C.188-.42.134-.189 0 0m-1.801-3.652L-.794-2.25l-.096.01c-.377.035-.687.225-.929.577A1.74 1.74 0 0 0-2.124-.47a1.843 1.843 0 0 0 .305.864c.153.265.354.462.594.592.238.13.496.183.778.157A1.372 1.372 0 0 0 .571.544a1.81 1.81 0 0 0 .275-.581c.06-.214.081-.421.062-.627a2.139 2.139 0 0 0-.267-.829 6.333 6.333 0 0 0-.512-.777L-.927-3.73z" style="fill:#fff;fill-opacity:1;fill-rule:nonzero;stroke:none" transform="matrix(10.60093 0 0 -10.60093 352.71 652.156)"/><path d="m0 0 1.386 4.059-1.72-.092-.043.828 2.538.134.042-.802L.842.045Z" style="fill:#fff;fill-opacity:1;fill-rule:nonzero;stroke:none" transform="matrix(10.60093 0 0 -10.60093 377.68 693.35)"/><path d="M0 0a.654.654 0 0 1 .541-.123.662.662 0 0 1 .465.335.753.753 0 0 1 .081.536c-.044.22-.137.38-.279.486-.149.111-.331.145-.549.102-.222-.047-.382-.148-.476-.303C-.306.887-.329.701-.284.478A.801.801 0 0 1 0 0m-.236 2.214c.088-.077.2-.102.337-.074.138.026.233.091.286.192.052.101.062.232.03.398a.568.568 0 0 1-.192.353.37.37 0 0 1-.323.07.396.396 0 0 1-.282-.198c-.056-.101-.067-.227-.038-.381.033-.165.093-.285.182-.36m-.772-1.187a1.2 1.2 0 0 0 .361.577 1.35 1.35 0 0 0-.519.814c-.071.35-.019.676.154.977.176.305.424.492.742.554.327.067.631-.006.91-.215.278-.206.454-.49.526-.851a1.225 1.225 0 0 0 0-.49 1.32 1.32 0 0 0-.176-.46c.225-.075.406-.202.546-.38.129-.161.221-.371.27-.626.091-.45.033-.849-.172-1.199A1.33 1.33 0 0 0 .69-.938a1.282 1.282 0 0 0-1.086.255 1.639 1.639 0 0 0-.61 1.016 1.59 1.59 0 0 0-.002.694" style="fill:#fff;fill-opacity:1;fill-rule:nonzero;stroke:none" transform="matrix(10.60093 0 0 -10.60093 428.81 677.841)"/><path d="m0 0 1.243-2.755c.156-.343.297-.562.426-.655.145-.105.338-.105.571.002.211.095.325.233.339.411.013.161-.057.414-.211.755L1.126.511l.716.324L3.081-1.91c.117-.258.196-.465.236-.62.06-.208.083-.401.062-.574a1.376 1.376 0 0 0-.241-.658 1.288 1.288 0 0 0-.534-.429 1.438 1.438 0 0 0-.707-.143c-.23.017-.455.099-.675.249-.16.108-.299.257-.417.447-.068.113-.161.3-.281.566L-.715-.327z" style="fill:#fff;fill-opacity:1;fill-rule:nonzero;stroke:none" transform="matrix(10.60093 0 0 -10.60093 477.902 620.882)"/><path d="m0 0-2.606 4.031.633.412L1.284 2.79-.432 5.447l.648.423 2.608-4.029-.603-.395-3.324 1.716L.662.432Z" style="fill:#fff;fill-opacity:1;fill-rule:nonzero;stroke:none" transform="matrix(10.60093 0 0 -10.60093 532.315 651.059)"/><path d="m0 0-3.057 3.699.607.506L.607.506Z" style="fill:#fff;fill-opacity:1;fill-rule:nonzero;stroke:none" transform="matrix(10.60093 0 0 -10.60093 574.645 621.41)"/><path d="m0 0-4.557 2.187.584.604L-.97 1.29l-1.591 2.965.576.594L.339.353Z" style="fill:#fff;fill-opacity:1;fill-rule:nonzero;stroke:none" transform="matrix(10.60093 0 0 -10.60093 602.09 596.43)"/><path d="m0 0-3.84 2.869 1.392 1.876.661-.493-.923-1.244.92-.689.923 1.245.654-.489-.923-1.242.923-.693.923 1.246.683-.509Z" style="fill:#fff;fill-opacity:1;fill-rule:nonzero;stroke:none" transform="matrix(10.60093 0 0 -10.60093 624.908 570.87)"/><path d="M0 0c-.141-.054-.28-.198-.412-.437l-.177-.309 1.13-.643.167.295c.138.243.194.439.167.588-.021.156-.136.292-.339.407C.325.022.147.056 0 0m1.521-.042a1.48 1.48 0 0 0 .122-.895l2.307.159-.486-.86-2.185-.12-.023-.039 1.601-.911-.381-.677-4.162 2.371.517.914c.124.22.224.376.297.473.116.147.244.253.383.32.189.106.411.149.665.129A1.59 1.59 0 0 0 .888.611c.29-.166.501-.383.633-.653" style="fill:#fff;fill-opacity:1;fill-rule:nonzero;stroke:none" transform="matrix(10.60093 0 0 -10.60093 620.766 503.837)"/><path d="M0 0c.245-.093.443-.119.602-.079a.473.473 0 0 1 .324.294.529.529 0 0 1-.003.46C.854.813.72.922.527 1.002c-.194.08-.355.093-.482.036C-.054.996-.188.879-.357.685A2.226 2.226 0 0 0-.725.336 1.497 1.497 0 0 0-1.21.097a1.124 1.124 0 0 0-.401-.032 1.67 1.67 0 0 0-.397.111c-.388.16-.66.396-.818.711a1.128 1.128 0 0 0-.03.97c.127.31.343.515.648.619.319.103.695.078 1.125-.076l-.285-.694c-.198.07-.358.088-.482.053a.373.373 0 0 1-.251-.234.421.421 0 0 1 .005-.369c.059-.108.172-.198.339-.267a1.37 1.37 0 0 1 .155-.053.353.353 0 0 1 .136.018.64.64 0 0 1 .214.137c.044.043.111.119.2.224l.2.223c.215.215.464.35.743.401.277.057.567.023.87-.102.423-.174.721-.432.901-.775a1.2 1.2 0 0 0 .053-1.061 1.13 1.13 0 0 0-.756-.682C.591-.892.18-.856-.273-.668Z" style="fill:#fff;fill-opacity:1;fill-rule:nonzero;stroke:none" transform="matrix(10.60093 0 0 -10.60093 654.474 490.192)"/><path d="m0 0-4.584 1.389.226.757L.227.757Z" style="fill:#fff;fill-opacity:1;fill-rule:nonzero;stroke:none" transform="matrix(10.60093 0 0 -10.60093 681.586 463.907)"/><path d="m0 0-3.878.794-.167-.818-.813.167.491 2.411.812-.168-.167-.823L.157.769Z" style="fill:#fff;fill-opacity:1;fill-rule:nonzero;stroke:none" transform="matrix(10.60093 0 0 -10.60093 689.294 434.672)"/><path d="m0 0-.062-.787-1.762.141-3.116-1.077.069.884 2.109.674-1.975.991.069.877L-1.723.139z" style="fill:#fff;fill-opacity:1;fill-rule:nonzero;stroke:none" transform="matrix(10.60093 0 0 -10.60093 696.173 386.088)"/><path d="M0 0v1.385h.89v-5.258H0V-.64h-1.432V0Zm-2.667 1.387c0-1.169.142-2.027.426-2.569a1.512 1.512 0 0 1 1.196-.839v-.746a2.565 2.565 0 0 0-1.205.412c-.359.243-.656.6-.888 1.068a2.685 2.685 0 0 0-2.101-1.48v.74c.543.084.947.365 1.211.845.295.542.441 1.4.441 2.569z" style="fill:#fff;fill-opacity:1;fill-rule:nonzero;stroke:none" transform="matrix(10.60093 0 0 -10.60093 345.706 233.006)"/><path d="M0 0v.385h.89v-2.393H0v.4h-1.325v.631H0v.345h-1.325V0Zm-2.066-3.038c-.249-.183-.373-.401-.373-.658 0-.252.124-.47.373-.652.244-.177.524-.267.839-.267.32 0 .6.09.839.267.254.178.381.395.381.652 0 .259-.127.479-.381.658-.239.173-.519.26-.839.26-.315 0-.595-.087-.839-.26m2.293.506c.446-.308.67-.696.67-1.164 0-.465-.224-.851-.67-1.158-.416-.286-.906-.43-1.469-.43-.558 0-1.042.144-1.454.43-.431.307-.646.693-.646 1.158 0 .468.215.856.646 1.164.412.282.896.423 1.454.423.563 0 1.053-.141 1.469-.423m-4.47 2.231c-.208-.149-.313-.329-.313-.541 0-.213.105-.392.313-.541.199-.146.43-.22.695-.22.254 0 .481.074.679.22.207.152.313.333.313.541 0 .212-.106.392-.313.541a1.137 1.137 0 0 1-.679.213c-.265 0-.496-.071-.695-.213m1.966.48c.387-.267.581-.606.581-1.021 0-.411-.194-.75-.581-1.018-.354-.249-.779-.374-1.271-.374-.504 0-.931.125-1.287.374-.388.268-.58.607-.58 1.018 0 .415.192.754.58 1.021.359.248.788.372 1.287.372.492 0 .917-.124 1.271-.372" style="fill:#fff;fill-opacity:1;fill-rule:nonzero;stroke:none" transform="matrix(10.60093 0 0 -10.60093 436.663 222.416)"/></svg>