<svg xmlns="http://www.w3.org/2000/svg" xml:space="preserve" width="500" height="500.06799" viewBox="0 0 500 500.06799"><defs><clipPath id="a" clipPathUnits="userSpaceOnUse"><path d="M0 498.247h538.855V0H0Z"/></clipPath><clipPath id="b" clipPathUnits="userSpaceOnUse"><path d="M265.423 342.896s-9.225 19.23-33.21 19.23l-81.891-.013v-97.018c0-74.679 32.635-123.811 115.066-159.027.014.009.021.009.03.013.013-.004.017-.004.031-.013 82.433 35.216 115.066 84.348 115.066 159.027v97.018l-81.888.013c-23.988 0-33.204-19.23-33.204-19.23"/></clipPath><clipPath id="c" clipPathUnits="userSpaceOnUse"><path d="M0 498.247h538.855V0H0Z"/></clipPath><clipPath id="f" clipPathUnits="userSpaceOnUse"><path d="M0 498.247h538.855V0H0Z"/></clipPath><linearGradient id="d" x1="0" x2="1" y1="0" y2="0" gradientTransform="scale(-149.22453 149.22453) rotate(-85.31 .174 2.069)" gradientUnits="userSpaceOnUse" spreadMethod="pad"><stop offset="0" style="stop-opacity:1;stop-color:#fff"/><stop offset="0.76576715" style="stop-opacity:1;stop-color:#046776"/><stop offset="1" style="stop-opacity:1;stop-color:#046776"/></linearGradient><linearGradient id="e" x1="0" x2="1" y1="0" y2="0" gradientTransform="scale(-142.17018 142.17018) rotate(-73.74 .422 2.328)" gradientUnits="userSpaceOnUse" spreadMethod="pad"><stop offset="0" style="stop-opacity:1;stop-color:#bd173d"/><stop offset="0.15474862" style="stop-opacity:1;stop-color:#bd173d"/><stop offset="1" style="stop-opacity:1;stop-color:#fff"/></linearGradient></defs><g clip-path="url(#a)" transform="matrix(1.29011 0 0 -1.29011 -93.122 571.344)"><path d="m0 0 25.144-12.568c1.204-78.305 65.236-141.644 143.82-141.644 79.336 0 143.879 64.544 143.879 143.879 0 2.055-.07 4.094-.156 6.128l25-12.499 24.931 12.465c.063-2.029.155-4.05.155-6.094 0-106.866-86.943-193.808-193.809-193.808-106.175 0-192.64 85.832-193.754 191.749z" style="fill:#a4acb3;fill-opacity:1;fill-rule:nonzero;stroke:none" transform="translate(96.971 259.389)"/><path d="m0 0-25.621 12.807c-7.503 72.335-68.815 128.928-143.102 128.928-77.245 0-140.444-61.197-143.719-137.653l-25.245 12.622-24.677-12.339c3.452 103.859 88.958 187.299 193.641 187.299 102.022 0 185.824-79.254 193.218-179.42z" style="fill:#a4acb3;fill-opacity:1;fill-rule:nonzero;stroke:none" transform="translate(434.658 251.2)"/><path d="M0 0c-23.988 0-33.203-19.23-33.203-19.23S-42.428 0-66.414 0l-81.891-.013v-97.018c0-74.679 32.636-123.811 115.067-159.028.014.009.02.009.029.014.013-.005.017-.005.031-.014C49.254-220.842 81.888-171.71 81.888-97.031V-.013L0 0" style="fill:#046776;fill-opacity:1;fill-rule:nonzero;stroke:none" transform="translate(298.627 362.134)"/></g><g clip-path="url(#b)" transform="matrix(1.29011 0 0 -1.29011 -93.122 571.344)"><path d="M380.62 334.312H150.323v27.801H380.62Z" style="fill:#c62144;fill-opacity:1;fill-rule:nonzero;stroke:none"/></g><g clip-path="url(#c)" transform="matrix(1.29011 0 0 -1.29011 -93.122 571.344)"><path d="M0 0c-11.659 14.518-32.854 16.87-47.434 5.293-.054-.041-.108-.068-.155-.115-.054-.048-.115-.082-.162-.136C-62.175-6.691-64.439-27.9-52.786-42.405c11.685-14.532 32.888-16.884 47.453-5.299.054.041.108.068.163.121.054.041.081.081.142.122C9.415-35.714 11.672-14.518 0 0" style="fill:#fff;fill-opacity:1;fill-rule:nonzero;stroke:none" transform="translate(291.498 257.158)"/></g><path d="M220.307 296.076c23.325 16.876 56.024 12.673 74.246-10.024a54.04 54.04 0 0 0 9.752-18.54c6.091-20.499-.283-43.533-17.918-57.815-.047-.04-.074-.081-.141-.121-.041-.054-.101-.081-.162-.123-14.559-11.584-35.754-9.232-47.426 5.3a33.592 33.592 0 0 0-7.314 18.043c-.003 1.124.067 1.815.067 1.815s1.126-8.294 5.887-13.76c7.574-8.727 17.346-15.217 27.871-13.183 1.044.197 1.411.244 2.672.767 2.393.874 4.19 3.608 4.19 6.503 0 3.96-3.207 7.242-7.174 7.168-1.051-.027-2.455-.549-3.078-.726-8.193-2.238-16.073 2.408-21.857 9.331-2.693 3.439-10.777 20.663 9.013 36.01 0 0-3.29-1.763-5.907-3.845-2.219-1.77-4.266-3.981-4.137-3.818-14.981-14.411-19.538-35.169-13.848-54.305a54.403 54.403 0 0 1 9.765-18.609c6.323-7.864 14.402-13.497 23.219-16.849 16.749-6.565 36.304-4.647 51.74 6.541.756.553 1.501 1.094 2.244 1.683a83.61 83.61 0 0 1 2.136 1.81c30.32 26.286 34.666 72.044 9.314 103.594-14.794 18.409-36.517 27.978-58.436 27.98-15.615.001-31.329-4.854-44.718-14.827" style="fill:url(#d);stroke:none" transform="matrix(1.29011 0 0 -1.29011 -93.122 571.344)"/><path d="M220.213 296.069c-.736-.567-1.487-1.115-2.223-1.709a46.19 46.19 0 0 1-2.129-1.798c-30.341-26.279-34.68-72.05-9.334-103.594 25.338-31.523 70.981-37.125 103.154-13.166-23.305-16.863-55.249-12.227-74.253 10.024-4.73 5.538-7.78 11.989-9.733 18.559-6.098 20.493.271 43.527 17.897 57.816.055.04.109.082.142.122.054.047.101.068.162.128 14.579 11.558 35.775 9.218 47.441-5.306 4.16-5.174 6.514-11.2 7.21-17.341.049-1.585-.054-2.601-.054-2.601s-1.126 8.294-5.887 13.76c-7.574 8.727-17.346 15.217-27.871 13.182-1.044-.196-1.411-.243-2.672-.765-2.394-.875-4.191-3.609-4.191-6.504 0-3.96 3.207-7.242 7.174-7.167 1.052.027 2.456.549 3.079.725 8.192 2.238 16.072-2.407 21.857-9.331 2.692-3.439 10.776-20.663-9.013-36.01 0 0 3.29 1.763 5.907 3.846 2.218 1.769 4.266 3.98 4.136 3.817 14.981 14.41 19.537 35.169 13.849 54.305a54.388 54.388 0 0 1-9.766 18.609 54.66 54.66 0 0 1-14.525 12.647c-8.654 5.322-18.568 8.05-28.537 8.05a54.157 54.157 0 0 1-31.82-10.298" style="fill:url(#e);stroke:none" transform="matrix(1.29011 0 0 -1.29011 -93.122 571.344)"/><g clip-path="url(#f)" transform="matrix(1.29011 0 0 -1.29011 -93.122 571.344)"><path d="m0 0 3.293 1.168c-.132-2.372.063-4.295.585-5.765.364-1.028.882-1.755 1.547-2.184.67-.433 1.398-.507 2.186-.228.623.222 1.077.595 1.377 1.117.295.527.552 1.409.773 2.655l.258 1.537c.357 2.064.852 3.607 1.489 4.629.635 1.024 1.541 1.746 2.725 2.166 1.586.562 3.06.431 4.433-.391 1.37-.823 2.396-2.187 3.075-4.099.543-1.53.934-3.334 1.174-5.406l-3.072-1.09c.035 2.219-.146 3.902-.551 5.044-.313.881-.761 1.518-1.34 1.909-.584.393-1.195.475-1.834.248A2.094 2.094 0 0 1 14.927.261c-.266-.513-.504-1.385-.72-2.622l-.278-1.644c-.378-2.218-.881-3.832-1.507-4.844-.624-1.007-1.563-1.736-2.816-2.18-1.781-.632-3.411-.467-4.892.497-1.481.964-2.634 2.611-3.458 4.934C.71-4.061.291-2.193 0 0" style="fill:#fff;fill-opacity:1;fill-rule:nonzero;stroke:none" transform="translate(98.19 186.182)"/><path d="m0 0 2.164-3.643-10.729-6.373c-1.695-1.007-2.753-2.014-3.175-3.019-.417-1.009-.259-2.135.481-3.38.708-1.193 1.581-1.84 2.61-1.945 1.036-.106 2.351.314 3.945 1.26l10.985 6.526 1.884-3.172-10.752-6.387c-1.615-.959-2.94-1.534-3.968-1.732-1.032-.196-2.102-.071-3.205.37-1.521.604-2.838 1.839-3.953 3.717-1.195 2.011-1.697 3.9-1.508 5.665.128 1.219.526 2.25 1.19 3.099.663.846 1.768 1.73 3.317 2.65z" style="fill:#fff;fill-opacity:1;fill-rule:nonzero;stroke:none" transform="translate(125.404 174.356)"/><path d="m0 0 15.535 13.158 2.41-2.845-4.514-16.19 10.613 8.989L26.241.518 10.707-12.641 8.252-9.743l4.557 16.139L2.196-2.593Z" style="fill:#fff;fill-opacity:1;fill-rule:nonzero;stroke:none" transform="translate(122.875 141.04)"/><path d="m0 0 11.712 16.652 4.592-3.23-4.235-14.531 12.369 8.81 4.029-2.834-11.712-16.652-3.195 2.247 8.842 12.571L10.28-5.565 7.491-3.603l4.19 14.424L2.723-1.915Z" style="fill:#fff;fill-opacity:1;fill-rule:nonzero;stroke:none" transform="translate(150.185 111.703)"/><path d="M0 0c1.642-.783 3.244-.753 4.814.075 1.571.829 2.88 2.348 3.931 4.554 1.017 2.134 1.354 4.078 1.007 5.823-.342 1.754-1.305 3.003-2.886 3.757-1.6.763-3.181.726-4.756-.114-1.572-.831-2.873-2.332-3.903-4.493-1.021-2.143-1.367-4.096-1.036-5.851C-2.501 1.991-1.555.741 0 0m-1.256-2.509C-4.048-1.179-5.86.759-6.698 3.313c-.832 2.556-.554 5.291.839 8.214 1.409 2.956 3.367 4.901 5.878 5.839 2.508.937 5.193.726 8.049-.635 2.838-1.353 4.686-3.303 5.544-5.844.854-2.542.584-5.278-.813-8.21-1.428-2.996-3.398-4.96-5.906-5.886-2.511-.927-5.227-.693-8.149.7" style="fill:#fff;fill-opacity:1;fill-rule:nonzero;stroke:none" transform="translate(183.873 91.863)"/><path d="M0 0c1.742-.514 3.327-.236 4.743.831 1.421 1.065 2.477 2.77 3.169 5.113.669 2.267.696 4.241.08 5.91-.613 1.678-1.763 2.761-3.441 3.257-1.699.501-3.257.218-4.679-.86-1.422-1.067-2.473-2.754-3.15-5.049-.673-2.277-.708-4.261-.103-5.942C-2.78 1.572-1.652.488 0 0m-.847-2.676c-2.963.875-5.06 2.505-6.284 4.895-1.225 2.394-1.382 5.14-.465 8.245.927 3.14 2.555 5.369 4.887 6.69 2.332 1.318 5.015 1.532 8.051.636 3.015-.891 5.147-2.526 6.391-4.9 1.246-2.378 1.408-5.122.488-8.237-.939-3.183-2.576-5.432-4.91-6.74-2.332-1.31-5.05-1.506-8.158-.589" style="fill:#fff;fill-opacity:1;fill-rule:nonzero;stroke:none" transform="translate(209.193 81.882)"/><path d="m0 0 1.998 20.26 3.708-.366 8.028-14.766 1.365 13.84 3.382-.333-1.998-20.26-3.779.372-7.96 14.761L3.379-.333z" style="fill:#fff;fill-opacity:1;fill-rule:nonzero;stroke:none" transform="translate(227.646 74.053)"/><path d="m0 0 4.236.089.262-12.476c.042-1.971.397-3.388 1.067-4.25.67-.86 1.727-1.277 3.176-1.247 1.386.03 2.379.47 2.981 1.314.602.85.884 2.201.845 4.054L12.299.259l3.685.077.263-12.503c.04-1.878-.11-3.315-.447-4.307-.337-.994-.973-1.864-1.9-2.607-1.272-1.026-2.998-1.564-5.182-1.61-2.336-.049-4.23.445-5.673 1.478-.995.712-1.699 1.566-2.11 2.562-.411.994-.635 2.391-.673 4.192z" style="fill:#fff;fill-opacity:1;fill-rule:nonzero;stroke:none" transform="translate(267.074 90.805)"/><path d="m0 0-3.35 20.081 3.678.613L11.924 8.529 9.635 22.247l3.354.56L16.34 2.726l-3.746-.625L1.063 14.277 3.352.559Z" style="fill:#fff;fill-opacity:1;fill-rule:nonzero;stroke:none" transform="translate(294.459 72.482)"/><path d="m0 0-6.429 19.316 4.02 1.339L4.02 1.338Z" style="fill:#fff;fill-opacity:1;fill-rule:nonzero;stroke:none" transform="translate(320.873 78.836)"/><path d="m0 0-15.005 15.683 4.152 1.801L.767 5.352-.326 22.049l2.801 1.215L3.901 1.692Z" style="fill:#fff;fill-opacity:1;fill-rule:nonzero;stroke:none" transform="translate(339.04 85.723)"/><path d="m0 0-10.89 17.201 10.752 6.807 1.494-2.36-7.172-4.541 3.037-4.797 5.882 3.724 1.458-2.304-5.881-3.724 3.355-5.3 7.719 4.887 1.544-2.44z" style="fill:#fff;fill-opacity:1;fill-rule:nonzero;stroke:none" transform="translate(356.83 94.751)"/><path d="m0 0 .753.623C3.12 2.581 3.51 4.518 1.927 6.431.77 7.83-.866 7.655-2.979 5.908l-1.133-.938Zm4.01-11.107L-8.967 4.579l5.873 4.859c3.187 2.636 5.853 2.661 8 .066a5.947 5.947 0 0 0 1.373-3.316c.121-1.245-.117-2.467-.717-3.674L16.559-.725l-3.782-3.129L3.583-.661 1.781-2.152l5.304-6.411Z" style="fill:#fff;fill-opacity:1;fill-rule:nonzero;stroke:none" transform="translate(372.328 117.874)"/><path d="m0 0-2.582 2.355c2.157 1.002 3.758 2.076 4.811 3.23.735.806 1.135 1.607 1.2 2.396.063.791-.212 1.47-.83 2.034-.489.446-1.031.672-1.634.688-.602.014-1.503-.176-2.706-.568l-1.477-.496c-1.988-.655-3.583-.947-4.785-.866-1.202.078-2.266.537-3.194 1.384-1.243 1.134-1.821 2.496-1.743 4.094.081 1.597.801 3.145 2.168 4.643 1.094 1.2 2.501 2.395 4.216 3.582l2.409-2.196c-1.975-1.015-3.374-1.967-4.189-2.86-.632-.693-.982-1.388-1.055-2.083-.071-.701.144-1.278.645-1.735a2.104 2.104 0 0 1 1.486-.557c.58.009 1.462.21 2.652.6l1.583.531c2.133.709 3.794 1.025 4.982.95 1.184-.075 2.267-.562 3.249-1.458 1.397-1.274 2.018-2.789 1.865-4.55-.153-1.761-1.061-3.551-2.724-5.374C3.248 2.539 1.797 1.29 0 0" style="fill:#fff;fill-opacity:1;fill-rule:nonzero;stroke:none" transform="translate(394.336 122.853)"/><path d="m0 0-16.868 11.398 2.371 3.509L2.371 3.509Z" style="fill:#fff;fill-opacity:1;fill-rule:nonzero;stroke:none" transform="translate(409.973 141.569)"/><path d="m0 0-15.246 8.722-3.441-6.014-2.425 1.387 8.664 15.143 2.424-1.387-3.111-5.438L2.111 3.691z" style="fill:#fff;fill-opacity:1;fill-rule:nonzero;stroke:none" transform="translate(420.298 158.759)"/><path d="m0 0-7.898 3.217-13.535-1.869 1.765 4.333 9.835 1.356-6.006 8.046 1.265 3.108 8.247-11.037 7.926-3.228z" style="fill:#fff;fill-opacity:1;fill-rule:nonzero;stroke:none" transform="translate(431.25 178.492)"/><path d="M0 0h1.057v-4.778h-2.381v5.991l-5.265.004V0h1.057v-11.564s-7.689-2.477-7.689 2.412v7.74h5.084v2.625h-10.626V-.006h1.057v-9.146s-.373-3.878 2.653-5.211c2.856-1.256 7.255-.435 9.521.504v-11.355h4.208v17.796h2.381v-17.796h4.207V1.213L0 1.217Z" style="fill:#fff;fill-opacity:1;fill-rule:nonzero;stroke:none" transform="translate(271.78 429.645)"/><path d="m0 0-4.248-1.16 1.845-6.76c.545-1.997 1.689-2.191 2.925-1.854l15.689 4.283-.696 2.549L1.823-6.679z" style="fill:#fff;fill-opacity:1;fill-rule:nonzero;stroke:none" transform="translate(215.203 405.348)"/><path d="m0 0 10.178 2.778 1.117-4.092 4.261 1.163-1.117 4.092 7.97 2.176-.69 2.531-22.41-6.117z" style="fill:#fff;fill-opacity:1;fill-rule:nonzero;stroke:none" transform="translate(207.257 405.112)"/><path d="m0 0 9.636 2.63 1.391-5.094L1.39-5.092Zm-2.856-6.318c.545-1.997 1.69-2.191 2.925-1.854l15.911 4.34-2.772 10.158-19.18-5.236.321-1.174 1.017.278 1.778-6.512" style="fill:#fff;fill-opacity:1;fill-rule:nonzero;stroke:none" transform="translate(211.217 419.02)"/><path d="m0 0-3.612-2.519L.396-8.267c1.184-1.698 2.327-1.497 3.378-.764L17.113.271l-1.512 2.168L3.96-5.679Z" style="fill:#fff;fill-opacity:1;fill-rule:nonzero;stroke:none" transform="translate(173.324 384.832)"/><path d="m0 0 3.624 2.527-10.968 15.728-4.491-3.132.696-.998.867.604 2.226-3.191-3.524-2.457 1.511-2.167 3.524 2.457z" style="fill:#fff;fill-opacity:1;fill-rule:nonzero;stroke:none" transform="translate(182.404 388.349)"/><path d="M0 0c.7-.36 3.116-1.742 5.146-4.573l3.68 2.566S5.055 3.02-.617 2.606c-.186.447-.415.88-.697 1.293l-2.63 3.771-4.662-3.25.691-.991.823.574 1.939-2.781s3.647-4.061.065-11.949l1.884-.432S.439-5.275 0 0" style="fill:#fff;fill-opacity:1;fill-rule:nonzero;stroke:none" transform="translate(168.23 391.42)"/><path d="m0 0 3.663-2.445L13.36 12.08c1.151 1.723.546 2.712-.521 3.424l-14.41 9.621-1.467-2.196 12.69-8.472z" style="fill:#fff;fill-opacity:1;fill-rule:nonzero;stroke:none" transform="translate(360.33 381.759)"/><path d="m0 0 6.009 9-3.942 2.632-.678-1.015.878-.586-5.331-7.985-2.046 1.366 6.009 9-4.009 2.676-.678-1.014.879-.587-5.332-7.985-3.714 2.48-1.457-2.183L5.906-7.098l1.457 2.182z" style="fill:#fff;fill-opacity:1;fill-rule:nonzero;stroke:none" transform="translate(356.606 380.843)"/><path d="m0 0-15.737 3.785-.617-2.567 13.725-3.302-1.7-7.066 4.281-1.029 1.719 7.146C2.155-1.021 1.246-.3 0 0" style="fill:#fff;fill-opacity:1;fill-rule:nonzero;stroke:none" transform="translate(321.896 405.604)"/><path d="m0 0-5.323 1.28-.285-1.183L-4.58-.15l-3.003-12.483 4.295-1.034 1.46 6.067 2.725-.656.617 2.568-2.725.655z" style="fill:#fff;fill-opacity:1;fill-rule:nonzero;stroke:none" transform="translate(327.923 421.149)"/><path d="M0 0c.57 2.37 2.392 3.789 4.121 3.373C5.848 2.957 6.827.865 6.257-1.505c-.57-2.368-2.393-3.786-4.121-3.371C.407-4.46-.57-2.368 0 0m10.191-2.417c.434 1.807.059 3.629-.893 5.126l2.661-.64.602 2.504L7 5.911l.483 2.008-4.291 1.032-.483-2.008-5.563 1.338-.603-2.504 2.663-.64c-1.529-.9-2.691-2.353-3.126-4.16-.883-3.671 1.559-7.409 5.457-8.346 3.895-.937 7.771 1.28 8.654 4.952" style="fill:#fff;fill-opacity:1;fill-rule:nonzero;stroke:none" transform="translate(308.61 417.266)"/></g></svg>