<svg xmlns="http://www.w3.org/2000/svg" width="207.47615mm" height="43.671154mm" viewBox="0 0 207.47615 43.671154"><defs><clipPath id="b" clipPathUnits="userSpaceOnUse"><path d="M0 0h595.276v841.89H0Z"/></clipPath><clipPath id="c" clipPathUnits="userSpaceOnUse"><path d="M0 0h595.276v841.89H0Z"/></clipPath><clipPath id="d" clipPathUnits="userSpaceOnUse"><path d="M0 0h595.276v841.89H0Z"/></clipPath><clipPath id="e" clipPathUnits="userSpaceOnUse"><path d="M0 0h595.276v841.89H0Z"/></clipPath><clipPath id="f" clipPathUnits="userSpaceOnUse"><path d="M0 0h595.276v841.89H0Z"/></clipPath><clipPath id="g" clipPathUnits="userSpaceOnUse"><path d="M0 0h595.276v841.89H0Z"/></clipPath><clipPath id="h" clipPathUnits="userSpaceOnUse"><path d="M0 0h595.276v841.89H0Z"/></clipPath><clipPath id="i" clipPathUnits="userSpaceOnUse"><path d="M0 0h595.276v841.89H0Z"/></clipPath><clipPath id="j" clipPathUnits="userSpaceOnUse"><path d="M0 0h595.276v841.89H0Z"/></clipPath><clipPath id="k" clipPathUnits="userSpaceOnUse"><path d="M0 0h595.276v841.89H0Z"/></clipPath><clipPath id="l" clipPathUnits="userSpaceOnUse"><path d="M0 0h595.276v841.89H0Z"/></clipPath><pattern id="a" width="2" height="1" patternTransform="scale(10)" patternUnits="userSpaceOnUse"><path d="M0-.5h1v2H0z" style="fill:#000;stroke:none"/></pattern></defs><path d="m137.89 141.181-2.055 3.98.446 5.518 2.802 3.113 3.19 1.012h3.27l3.735-.856 5.215-2.568 5.242-3.893 4.876-4.746 3.97-8.795 1.795-8.698 1.979-3.953.117-4.16-1.868-3.425-3.58-2.024-4.515-.155-5.136 1.478-5.682 3.347-3.216 2.613-6.668 7.505-3.917 14.707" style="fill:#ffe500;fill-opacity:1;stroke:url(#a);stroke-width:0;stroke-linecap:butt;stroke-linejoin:miter;stroke-miterlimit:4;stroke-dasharray:none;stroke-opacity:1" transform="translate(-121.97 -111.374)"/><g style="fill:#000"><path d="M0 0v-1.526h-2.492l-.001-1.346H0v-4.579h1.727V0Z" style="fill:#000;fill-opacity:1;fill-rule:nonzero;stroke:none" transform="matrix(2.01913 0 0 -2.01913 89.94 1.222)"/></g><g clip-path="url(#b)" style="fill:#000" transform="matrix(2.01913 0 0 -2.01913 -879.991 1583.456)"><g style="fill:#000"><path d="M0 0h1.794s-.095-2.392 1.187-3.535c.696-.625 1.678-.698 1.911-.771L4.89-5.807S2.358-5.773.971-3.632c0 0-1.174-1.955-4.034-2.123v1.443s1.13.083 1.974.81C-.017-2.574.032-.395 0 0" style="fill:#000;fill-opacity:1;fill-rule:nonzero;stroke:none" transform="translate(473.077 783.616)"/></g></g><g clip-path="url(#c)" style="fill:#000" transform="matrix(2.01913 0 0 -2.01913 -879.991 1583.456)"><g style="fill:#000"><path d="M0 0v2.53h-1.726V-.452s-.05-.797.875-.889H9.324v1.337z" style="fill:#000;fill-opacity:1;fill-rule:nonzero;stroke:none" transform="translate(472.771 773.94)"/></g></g><g clip-path="url(#d)" style="fill:#000" transform="matrix(2.01913 0 0 -2.01913 -879.991 1583.456)"><g style="fill:#000"><path d="M0 0v2.373h-1.724v-2.82s-.049-.8.874-.89h9.976V0Z" style="fill:#000;fill-opacity:1;fill-rule:nonzero;stroke:none" transform="translate(486.915 773.945)"/></g></g><g clip-path="url(#e)" style="fill:#000" transform="matrix(2.01913 0 0 -2.01913 -879.991 1583.456)"><g style="fill:#000"><path d="M0 0v-4.69l-7.914.003v1.08h5.23V.004h-6.894v-1.298l5.235-.003v-1.017h-5.229v-2.781s-.05-.797.875-.888H0v-1.443h1.727V0Z" style="fill:#000;fill-opacity:1;fill-rule:nonzero;stroke:none" transform="translate(494.255 783.602)"/></g></g><g clip-path="url(#f)" style="fill:#000" transform="matrix(2.01913 0 0 -2.01913 -879.991 1583.456)"><g style="fill:#000"><path d="M0 0v-3.589h-1.365V.007h-1.529V-7.27h-5.114v5.968h3.799V.007l-5.525-.009v-7.693s-.049-.801.873-.889h5.964v-2.509h1.53l.002 6.185H0l-.004-6.187h1.533L1.532 0Z" style="fill:#000;fill-opacity:1;fill-rule:nonzero;stroke:none" transform="translate(508.216 783.609)"/></g></g><g style="fill:#000"><path d="M0 0h-1.664v3.198h-9.189v1.35H0Z" style="fill:#000;fill-opacity:1;fill-rule:nonzero;stroke:none" transform="matrix(2.01913 0 0 -2.01913 177.618 23.646)"/></g><g style="fill:#000"><path d="M0 0h-1.663v9.022H-9.81v1.35L0 10.37Z" style="fill:#000;fill-opacity:1;fill-rule:nonzero;stroke:none" transform="matrix(2.01913 0 0 -2.01913 205.02 22.54)"/></g><g style="fill:#000"><path d="M0 0h-11.693v1.348L0 1.345Z" style="fill:#000;fill-opacity:1;fill-rule:nonzero;stroke:none" transform="matrix(2.01913 0 0 -2.01913 206.919 23.462)"/></g><path d="M309.885 122.324h2.726v10.883h-2.726zM316.5 122.324h2.714v10.883H316.5z" style="fill:#000;fill-opacity:1;fill-rule:nonzero;stroke:none;stroke-width:2.01913" transform="translate(-121.97 -111.374)"/><g style="fill:#000"><path d="M0 0v2.221l1.624.004v1.334H0v1.803h-1.727V0Z" style="fill:#000;fill-opacity:1;fill-rule:nonzero;stroke:none" transform="matrix(2.01913 0 0 -2.01913 177.713 12.093)"/></g><g clip-path="url(#g)" style="fill:#000" transform="matrix(2.01913 0 0 -2.01913 -879.991 1583.456)"><g style="fill:#000"><path d="M0 0c-.889 0-1.609.603-1.609 1.35 0 .744.72 1.349 1.609 1.349.891 0 1.608-.605 1.608-1.349C1.608.603.891 0 0 0m3.689 4.004H.996v1.055H-.815V4.004h-2.894V2.723h1.018a1.698 1.698 0 0 1-.653-1.373c0-1.457 1.494-2.637 3.33-2.637 1.841 0 3.333 1.18 3.333 2.637a1.7 1.7 0 0 1-.65 1.371h1.02z" style="fill:#000;fill-opacity:1;fill-rule:nonzero;stroke:none" transform="translate(516.03 779.121)"/></g></g><g clip-path="url(#h)" style="fill:#000" transform="matrix(2.01913 0 0 -2.01913 -879.991 1583.456)"><g style="fill:#000"><path d="M0 0c-.378.15-.583.218-.966.218-.412 0-.899-.151-.899-.698 0-1.006 2.208-.774 2.208-2.503 0-1.12-.844-1.561-1.874-1.561-.362 0-.715.104-1.054.217l.074.7c.249-.106.691-.258 1.067-.258.418 0 1.007.243 1.007.859 0 1.17-2.209.846-2.209 2.479 0 .93.724 1.427 1.65 1.427.34 0 .74-.061 1.099-.187z" style="fill:#000;fill-opacity:1;fill-rule:nonzero;stroke:none" transform="translate(473.322 767.997)"/></g></g><g clip-path="url(#i)" style="fill:#000" transform="matrix(2.01913 0 0 -2.01913 -879.991 1583.456)"><g style="fill:#000"><path d="M0 0c0-1.471-.724-2.259-1.993-2.259-1.266 0-1.994.788-1.994 2.259v3.074h.735V.099c0-1.007.308-1.699 1.259-1.699.948 0 1.258.692 1.258 1.699v2.975H0Z" style="fill:#000;fill-opacity:1;fill-rule:nonzero;stroke:none" transform="translate(478.664 765.711)"/></g></g><g style="fill:#000"><path d="M0 0h.999l2.27-4.226h.012V0h.735v-5.247h-.941L.747-.934H.732v-4.313H0Z" style="fill:#000;fill-opacity:1;fill-rule:nonzero;stroke:none" transform="matrix(2.01913 0 0 -2.01913 89.152 31.176)"/></g><g style="fill:#000"><path d="M0 0h.733v-4.584h2.152v-.663H0Z" style="fill:#000;fill-opacity:1;fill-rule:nonzero;stroke:none" transform="matrix(2.01913 0 0 -2.01913 99.885 31.176)"/></g><path d="M229.304 153.144h1.486V142.55h-1.486z" style="fill:#000;fill-opacity:1;fill-rule:nonzero;stroke:none;stroke-width:2.01913" transform="translate(-121.97 -111.374)"/><g style="fill:#000"><path d="M0 0h1.004l2.267-4.226h.015V0h.737v-5.247h-.947L.752-.934H.736v-4.313H0Z" style="fill:#000;fill-opacity:1;fill-rule:nonzero;stroke:none" transform="matrix(2.01913 0 0 -2.01913 111.45 31.176)"/></g><g clip-path="url(#j)" style="fill:#000" transform="matrix(2.01913 0 0 -2.01913 -879.991 1583.456)"><g style="fill:#000"><path d="M0 0c0-1.471-.729-2.259-1.993-2.259-1.265 0-1.995.788-1.995 2.259v3.074h.735V.099c0-1.007.308-1.699 1.26-1.699.948 0 1.258.692 1.258 1.699v2.975H0Z" style="fill:#000;fill-opacity:1;fill-rule:nonzero;stroke:none" transform="translate(502.394 765.711)"/></g></g><g style="fill:#000"><path d="M0 0h1.001l2.268-4.226h.014V0h.737v-5.247h-.944L.749-.934H.735v-4.313H0Z" style="fill:#000;fill-opacity:1;fill-rule:nonzero;stroke:none" transform="matrix(2.01913 0 0 -2.01913 137.062 31.176)"/></g><path d="M269.783 153.144h1.482V142.55h-1.482z" style="fill:#000;fill-opacity:1;fill-rule:nonzero;stroke:none;stroke-width:2.01913" transform="translate(-121.97 -111.374)"/><g style="fill:#000"><path d="M0 0h-.92l-1.933 5.246h.824L-.45.663h.015l1.628 4.583h.774z" style="fill:#000;fill-opacity:1;fill-rule:nonzero;stroke:none" transform="matrix(2.01913 0 0 -2.01913 156.475 41.77)"/></g><g style="fill:#000"><path d="M0 0h2.88v-.662H.738v-1.531h1.947v-.662H.738v-1.729H2.88v-.663H0Z" style="fill:#000;fill-opacity:1;fill-rule:nonzero;stroke:none" transform="matrix(2.01913 0 0 -2.01913 161.935 31.176)"/></g><g clip-path="url(#k)" style="fill:#000" transform="matrix(2.01913 0 0 -2.01913 -879.991 1583.456)"><g style="fill:#000"><path d="M0 0h.625c.7 0 1.115.316 1.115.817 0 .476-.356.777-1.034.777H0Zm-.738 2.256H.523c1.016 0 1.996-.166 1.996-1.421 0-.638-.466-1.092-1.062-1.195v-.014c.229-.092.34-.206.504-.525l.971-2.093h-.838l-.79 1.82c-.23.51-.472.51-.862.51H0v-2.33h-.738z" style="fill:#000;fill-opacity:1;fill-rule:nonzero;stroke:none" transform="translate(520.779 766.531)"/></g></g><g clip-path="url(#l)" style="fill:#000" transform="matrix(2.01913 0 0 -2.01913 -879.991 1583.456)"><g style="fill:#000"><path d="M0 0c-.376.15-.584.218-.965.218-.411 0-.899-.151-.899-.698 0-1.006 2.208-.774 2.208-2.503 0-1.12-.847-1.561-1.875-1.561-.362 0-.716.104-1.054.217l.076.7c.249-.106.69-.258 1.064-.258.421 0 1.011.243 1.011.859 0 1.17-2.208.846-2.208 2.479 0 .93.723 1.427 1.649 1.427C-.657.88-.249.819.101.693z" style="fill:#000;fill-opacity:1;fill-rule:nonzero;stroke:none" transform="translate(526.92 767.997)"/></g></g><path d="M308.62 153.144h1.491V142.55h-1.492z" style="fill:#000;fill-opacity:1;fill-rule:nonzero;stroke:none;stroke-width:2.01913" transform="translate(-121.97 -111.374)"/><g style="fill:#000"><path d="M0 0h-1.598v.661h3.931V0H.735v-4.585H0Z" style="fill:#000;fill-opacity:1;fill-rule:nonzero;stroke:none" transform="matrix(2.01913 0 0 -2.01913 192.855 32.512)"/></g><g style="fill:#000"><path d="m0 0-2.008 3.05h.859L.382.7l1.491 2.35h.862L.734 0v-2.195H0Z" style="fill:#000;fill-opacity:1;fill-rule:nonzero;stroke:none" transform="matrix(2.01913 0 0 -2.01913 201.954 37.337)"/></g><path d="M172.355 121.295h.012c.375-1.797.34-3.524-.192-5.048-1.997-5.743-9.833-6.54-17.883-1.698-2.066 1.244-4.232 2.796-5.817 4.42l-.008-.014c-15.06 1.207-26.498 7.137-26.498 14.275 0 4.934 5.478 9.292 13.844 11.915l.022.016c-.376 1.8-.331 3.527.202 5.048 1.993 5.748 10.134 6.473 18.184 1.631a27.81 27.81 0 0 0 5.514-4.353l.004.004c15.059-1.2 26.5-7.126 26.5-14.261 0-4.941-5.489-9.308-13.884-11.935m-4.98 14.11c-2.08 7.543-11.45 16.377-19.692 18.486-8.246 2.127-13.037-2.273-10.958-9.819.269-.967.654-1.918 1.165-2.89h8.386c-2.092 2.935-2.462 5.396-1.185 6.063 1.744.902 6.204-1.553 10.31-5.985 4.106-4.416 5.843-8.476 3.797-9.238-1.326-.484-2.823.012-4.2.531l4.285-6.703c6.69-.889 9.968 2.758 8.093 9.554m4.165-13.04c-.268.966-.664 1.919-1.165 2.884h-8.391c2.095-2.928 2.46-5.395 1.185-6.055-1.745-.909-6.207 1.552-10.314 5.978-4.097 4.426-5.851 8.483-3.792 9.244 1.329.489 2.827-.02 4.196-.533l-4.275 6.705c-6.7.883-9.972-2.764-8.1-9.56 2.081-7.544 11.45-16.37 19.696-18.491 8.236-2.116 13.044 2.281 10.96 9.829" style="fill:#021098;fill-opacity:1;fill-rule:nonzero;stroke:none;stroke-width:2.01913" transform="translate(-121.97 -111.374)"/></svg>