<svg xmlns="http://www.w3.org/2000/svg" xml:space="preserve" width="208.52881" height="208.52881" viewBox="0 0 208.52881 208.52881"><defs><clipPath id="a" clipPathUnits="userSpaceOnUse"><path d="M0 140h265.478V0H0Z"/></clipPath></defs><g clip-path="url(#a)" transform="matrix(2.0669 0 0 -2.0669 -167.23 241.48)"><path d="M0 0c22.024 0 39.88 17.854 39.88 39.88 0 22.024-17.856 39.88-39.88 39.88s-39.88-17.856-39.88-39.88C-39.88 17.854-22.024 0 0 0" style="fill:#fff;fill-opacity:1;fill-rule:nonzero;stroke:none" transform="translate(131.09 28.094)"/><path d="M0 0c22.024 0 39.88 17.854 39.88 39.88 0 22.024-17.856 39.88-39.88 39.88s-39.88-17.856-39.88-39.88C-39.88 17.854-22.024 0 0 0Z" style="fill:none;stroke:#231f20;stroke-width:.972;stroke-linecap:butt;stroke-linejoin:miter;stroke-miterlimit:4;stroke-dasharray:none;stroke-opacity:1" transform="translate(131.09 28.094)"/><path d="M0 0c-19.184 0-34.736 15.554-34.736 34.737 0 19.185 15.552 34.736 34.736 34.736 19.184 0 34.735-15.551 34.735-34.736C34.735 15.554 19.184 0 0 0m-.316 85.336c-27.771 0-50.283-22.513-50.283-50.282 0-27.77 22.512-50.283 50.283-50.283 27.77 0 50.282 22.513 50.282 50.283 0 27.769-22.512 50.282-50.282 50.282" style="fill:#fff;fill-opacity:1;fill-rule:nonzero;stroke:none" transform="translate(131.67 31.334)"/><path d="M0 0c-19.184 0-34.736 15.554-34.736 34.737 0 19.185 15.552 34.736 34.736 34.736 19.184 0 34.735-15.551 34.735-34.736C34.735 15.554 19.184 0 0 0Zm-.316 85.336c-27.771 0-50.283-22.513-50.283-50.282 0-27.77 22.512-50.283 50.283-50.283 27.77 0 50.282 22.513 50.282 50.283 0 27.769-22.512 50.282-50.282 50.282z" style="fill:none;stroke:#231f20;stroke-width:.325;stroke-linecap:butt;stroke-linejoin:miter;stroke-miterlimit:4;stroke-dasharray:none;stroke-opacity:1" transform="translate(131.67 31.334)"/><path d="M0 0c-20.107 0-36.409 16.301-36.409 36.408 0 20.109 16.302 36.409 36.409 36.409 20.106 0 36.408-16.3 36.408-36.409C36.408 16.301 20.106 0 0 0m-.237 85.378c-26.87 0-48.653-21.783-48.653-48.653 0-26.869 21.783-48.653 48.653-48.653 26.869 0 48.651 21.784 48.651 48.653 0 26.87-21.782 48.653-48.651 48.653" style="fill:#2056ae;fill-opacity:1;fill-rule:nonzero;stroke:none" transform="translate(131.705 29.696)"/><path d="M0 0c-20.107 0-36.409 16.301-36.409 36.408 0 20.109 16.302 36.409 36.409 36.409 20.106 0 36.408-16.3 36.408-36.409C36.408 16.301 20.106 0 0 0Zm-.237 85.378c-26.87 0-48.653-21.783-48.653-48.653 0-26.869 21.783-48.653 48.653-48.653 26.869 0 48.651 21.784 48.651 48.653 0 26.87-21.782 48.653-48.651 48.653z" style="fill:none;stroke:#231f20;stroke-width:.325;stroke-linecap:butt;stroke-linejoin:miter;stroke-miterlimit:4;stroke-dasharray:none;stroke-opacity:1" transform="translate(131.705 29.696)"/><path d="M0 0c-1.135-1.028-1.999-2.699-1.424-4.124l-.738-.294c-.616 1.032-.785 2.426-.149 3.471-1.162-.383-2.48.098-3.345.932l.453.652c1.257-.884 3.081-.422 4.34.449z" style="fill:#fff;fill-opacity:1;fill-rule:nonzero;stroke:none" transform="translate(101.539 43.095)"/><path d="m0 0-.872-.692L-2.207.989l-.737-.586 1.335-1.681-3.166-2.512.812-1.024 4.776 3.79z" style="fill:#fff;fill-opacity:1;fill-rule:nonzero;stroke:none" transform="translate(103.518 40.608)"/><path d="M0 0c.794-1 1.795-1.526 2.238-1.175.442.351.157 1.446-.638 2.446C.807 2.272-.194 2.798-.637 2.447-1.079 2.097-.795 1.001 0 0m-1.485 3.516c.849.674 2.56-.07 3.823-1.661C3.6.265 3.936-1.57 3.086-2.243c-.85-.675-2.561.068-3.823 1.659s-1.597 3.427-.748 4.1" style="fill:#fff;fill-opacity:1;fill-rule:nonzero;stroke:none" transform="translate(96.173 37.71)"/><path d="m0 0 6.216-3.257" style="fill:#fff;fill-opacity:1;fill-rule:nonzero;stroke:none" transform="translate(109.684 29.548)"/><path d="M0 0a.819.819 0 0 0-.39 1.098l.648 1.33L5.385-.071l.226.463L.484 2.891l.388.794L7.179.61 6.176-1.449 1.059 1.045.834.586l5.117-2.495-.39-.802Z" style="fill:#fff;fill-opacity:1;fill-rule:nonzero;stroke:none" transform="translate(108.65 25.817)"/><path d="m0 0-.406-.832-1.361.663-.414-.847 1.361-.663-.399-.819-1.353.66-.412-.847 1.353-.659-.423-.869 1.18-.574L1.181-.575z" style="fill:#fff;fill-opacity:1;fill-rule:nonzero;stroke:none" transform="translate(116.68 31.167)"/><path d="M0 0c-1.35-2.34-3.094-2.701-6.291-1.699l.156.83c1.899-.477 3.516-.463 4.342.719l-3.005 1.464.405.83z" style="fill:#fff;fill-opacity:1;fill-rule:nonzero;stroke:none" transform="translate(115.244 31.694)"/><path d="M0 0h1.261v-2.249h.653V0h1.23v-8.324h-1.23v5.134h-.653v-5.134H0Z" style="fill:#fff;fill-opacity:1;fill-rule:nonzero;stroke:none" transform="translate(131.915 27.58)"/><path d="M0 0h3.732v-.942H1.293v-3.49h3.602v-.926H1.293c-.616 0-1.296-.041-1.296.866L0 0" style="fill:#fff;fill-opacity:1;fill-rule:nonzero;stroke:none" transform="translate(127.49 27.42)"/><path d="m0 0 .626-1.252.91.454.421-.843-.911-.455.872-1.744-1.173-.586-1.917 3.84z" style="fill:#fff;fill-opacity:1;fill-rule:nonzero;stroke:none" transform="translate(152.131 33.582)"/><path d="m0 0 5.03 2.513L6.307-.041l1.181.59L5.8 3.926-.408.826Z" style="fill:#fff;fill-opacity:1;fill-rule:nonzero;stroke:none" transform="translate(148.388 25.537)"/><path d="m0 0-1.932-.965-.267.537-1.17-.583.268-.538-1.919-.958.43-.861L.431-.859z" style="fill:#fff;fill-opacity:1;fill-rule:nonzero;stroke:none" transform="translate(150.323 32.316)"/><path d="M0 0c.677.338 1.038.988.806 1.452-.233.464-.968.568-1.646.229-.677-.338-1.037-.989-.805-1.452C-1.413-.235-.676-.338 0 0m-2.772-.335c-.445.889.25 2.135 1.548 2.784 1.299.649 2.713.454 3.157-.434C2.377 1.127 1.684-.12.384-.769c-1.299-.649-2.712-.455-3.156.434" style="fill:#fff;fill-opacity:1;fill-rule:nonzero;stroke:none" transform="translate(149.202 28.28)"/><path d="m0 0-4.648-5.285.705-.62 3.776 4.293 3.505-3.083.873.992z" style="fill:#fff;fill-opacity:1;fill-rule:nonzero;stroke:none" transform="translate(163.965 43.79)"/><path d="m0 0-2.534 2.229-.869-.988L-.868-.988l-.835-.948L-4.234.291l-.864-.981 2.532-2.229-.6-.68.707-.622 5.118 5.819-.707.621z" style="fill:#fff;fill-opacity:1;fill-rule:nonzero;stroke:none" transform="translate(166.374 38.265)"/><path d="m0 0-.025.727C.442.749.818.83 1.106.968c.539.261.795.717.773 1.364-.01.289-.079.554-.207.79-.248.459-.672.685-1.271.68-.45-.005-.766-.106-.95-.302-.181-.199-.333-.509-.457-.93l-.225-.776c-.147-.506-.317-.866-.507-1.077-.332-.366-.84-.554-1.526-.561-.742-.008-1.355.163-1.843.514-.488.349-.745.849-.767 1.499-.02.599.171 1.109.573 1.531.403.423 1.063.64 1.981.65l.024-.727c-.439-.043-.775-.131-1.007-.26-.423-.24-.624-.641-.604-1.207.016-.455.167-.782.45-.978.284-.197.609-.293.977-.289.404.004.697.124.875.359.115.153.251.5.413 1.042l.235.803c.113.386.278.686.491.898.373.367.926.554 1.66.562.913.009 1.575-.214 1.984-.669.409-.456.625-.989.646-1.597.025-.709-.218-1.268-.728-1.674C1.591.205.892.001 0 0" style="fill:#fff;fill-opacity:1;fill-rule:nonzero;stroke:none" transform="translate(90.348 64.242)"/><path d="m0 0-.025.727C.442.749.818.83 1.106.968c.539.261.795.717.773 1.364-.01.289-.079.554-.207.79-.248.459-.672.685-1.271.68-.45-.005-.766-.106-.95-.302-.181-.199-.333-.509-.457-.93l-.225-.776c-.147-.506-.317-.866-.507-1.077-.332-.366-.84-.554-1.526-.561-.742-.008-1.355.163-1.843.514-.488.349-.745.849-.767 1.499-.02.599.171 1.109.573 1.531.403.423 1.063.64 1.981.65l.024-.727c-.439-.043-.775-.131-1.007-.26-.423-.24-.624-.641-.604-1.207.016-.455.167-.782.45-.978.284-.197.609-.293.977-.289.404.004.697.124.875.359.115.153.251.5.413 1.042l.235.803c.113.386.278.686.491.898.373.367.926.554 1.66.562.913.009 1.575-.214 1.984-.669.409-.456.625-.989.646-1.597.025-.709-.218-1.268-.728-1.674C1.591.205.892.001 0 0Z" style="fill:none;stroke:#fff;stroke-width:.13;stroke-linecap:butt;stroke-linejoin:miter;stroke-miterlimit:4;stroke-dasharray:none;stroke-opacity:1" transform="translate(90.348 64.242)"/><path d="m0 0 .133.771 5.024-.975c.59-.114 1.095-.134 1.512-.056.629.111.99.436 1.084.973.111.643-.132 1.142-.73 1.498-.326.191-.781.345-1.368.458l-5.024.975.135.77 4.564-.885c.999-.194 1.753-.435 2.26-.725.922-.532 1.301-1.271 1.136-2.217-.165-.946-.766-1.494-1.807-1.642-.569-.081-1.355-.025-2.355.169Z" style="fill:#fff;fill-opacity:1;fill-rule:nonzero;stroke:none" transform="translate(85.303 73.198)"/><path d="m0 0 .133.771 5.024-.975c.59-.114 1.095-.134 1.512-.056.629.111.99.436 1.084.973.111.643-.132 1.142-.73 1.498-.326.191-.781.345-1.368.458l-5.024.975.135.77 4.564-.885c.999-.194 1.753-.435 2.26-.725.922-.532 1.301-1.271 1.136-2.217-.165-.946-.766-1.494-1.807-1.642-.569-.081-1.355-.025-2.355.169Z" style="fill:none;stroke:#fff;stroke-width:.13;stroke-linecap:butt;stroke-linejoin:miter;stroke-miterlimit:4;stroke-dasharray:none;stroke-opacity:1" transform="translate(85.303 73.198)"/><path d="m0 0-7.637 3.254.346.839 7.276.014-6.186 2.636.277.675 7.638-3.254-.328-.796-7.288-.057L.279.679Z" style="fill:#fff;fill-opacity:1;fill-rule:nonzero;stroke:none" transform="translate(95.265 79.109)"/><path d="m0 0-7.637 3.254.346.839 7.276.014-6.186 2.636.277.675 7.638-3.254-.328-.796-7.288-.057L.279.679Z" style="fill:none;stroke:#fff;stroke-width:.13;stroke-linecap:butt;stroke-linejoin:miter;stroke-miterlimit:4;stroke-dasharray:none;stroke-opacity:1" transform="translate(95.265 79.109)"/><path d="M0 0c.307.436.693.724 1.163.868.678.209 1.496.051 2.456-.473l-.436-.622C2.634.049 2.162.147 1.77.07c-.395-.078-.718-.297-.973-.658-.302-.43-.32-.957-.055-1.584.265-.628.863-1.271 1.795-1.932.808-.572 1.548-.917 2.225-1.033.677-.117 1.207.098 1.592.645.294.419.359.89.197 1.417-.162.526-.639 1.074-1.428 1.643L4.102-2.883l-.761.539 1.43 2.036L8.4-2.881l-.283-.402-.98.467c.193-.455.298-.812.314-1.07.034-.436-.098-.867-.396-1.292-.387-.549-.979-.837-1.777-.863-.956.031-2.004.449-3.142 1.257C.999-3.979.244-3.129-.131-2.232-.49-1.38-.446-.635 0 0" style="fill:#fff;fill-opacity:1;fill-rule:nonzero;stroke:none" transform="translate(92.172 92.265)"/><path d="M0 0c.307.436.693.724 1.163.868.678.209 1.496.051 2.456-.473l-.436-.622C2.634.049 2.162.147 1.77.07c-.395-.078-.718-.297-.973-.658-.302-.43-.32-.957-.055-1.584.265-.628.863-1.271 1.795-1.932.808-.572 1.548-.917 2.225-1.033.677-.117 1.207.098 1.592.645.294.419.359.89.197 1.417-.162.526-.639 1.074-1.428 1.643L4.102-2.883l-.761.539 1.43 2.036L8.4-2.881l-.283-.402-.98.467c.193-.455.298-.812.314-1.07.034-.436-.098-.867-.396-1.292-.387-.549-.979-.837-1.777-.863-.956.031-2.004.449-3.142 1.257C.999-3.979.244-3.129-.131-2.232-.49-1.38-.446-.635 0 0Z" style="fill:none;stroke:#fff;stroke-width:.13;stroke-linecap:butt;stroke-linejoin:miter;stroke-miterlimit:4;stroke-dasharray:none;stroke-opacity:1" transform="translate(92.172 92.265)"/><path d="m0 0-6.102 5.645.511.546 2.974-2.751-1.087 4.769.725.774.849-3.995 5.297-1.602-.683-.73-4.415 1.385.316-1.527L.512.548Z" style="fill:#fff;fill-opacity:1;fill-rule:nonzero;stroke:none" transform="translate(102.645 91.53)"/><path d="m0 0-6.102 5.645.511.546 2.974-2.751-1.087 4.769.725.774.849-3.995 5.297-1.602-.683-.73-4.415 1.385.316-1.527L.512.548Z" style="fill:none;stroke:#fff;stroke-width:.13;stroke-linecap:butt;stroke-linejoin:miter;stroke-miterlimit:4;stroke-dasharray:none;stroke-opacity:1" transform="translate(102.645 91.53)"/><path d="m0 0-4.966 2.184.663.602L-.375.964l-1.513 4.013.666.606L.569.517l2.283-2.448-.57-.515z" style="fill:#fff;fill-opacity:1;fill-rule:nonzero;stroke:none" transform="translate(106.733 99.787)"/><path d="m0 0-4.966 2.184.663.602L-.375.964l-1.513 4.013.666.606L.569.517l2.283-2.448-.57-.515z" style="fill:none;stroke:#fff;stroke-width:.13;stroke-linecap:butt;stroke-linejoin:miter;stroke-miterlimit:4;stroke-dasharray:none;stroke-opacity:1" transform="translate(106.733 99.787)"/><path d="m0 0 .69.369 2.501-4.465c.294-.524.608-.923.939-1.197.496-.417.985-.495 1.466-.239.576.308.808.801.698 1.478-.061.368-.237.813-.529 1.334L3.263 1.743l.69.369 2.273-4.055c.499-.888.797-1.617.899-2.183.184-1.036-.148-1.778-.996-2.231-.847-.454-1.667-.325-2.458.385-.435.389-.9 1.028-1.398 1.916z" style="fill:#fff;fill-opacity:1;fill-rule:nonzero;stroke:none" transform="translate(108.876 107.186)"/><path d="m0 0 .69.369 2.501-4.465c.294-.524.608-.923.939-1.197.496-.417.985-.495 1.466-.239.576.308.808.801.698 1.478-.061.368-.237.813-.529 1.334L3.263 1.743l.69.369 2.273-4.055c.499-.888.797-1.617.899-2.183.184-1.036-.148-1.778-.996-2.231-.847-.454-1.667-.325-2.458.385-.435.389-.9 1.028-1.398 1.916z" style="fill:none;stroke:#fff;stroke-width:.13;stroke-linecap:butt;stroke-linejoin:miter;stroke-miterlimit:4;stroke-dasharray:none;stroke-opacity:1" transform="translate(108.876 107.186)"/><path d="m0 0-2.644 7.814.739.23L.424 1.161l2.761.859.315-.932Z" style="fill:#fff;fill-opacity:1;fill-rule:nonzero;stroke:none" transform="translate(119.654 103.054)"/><path d="m0 0-2.644 7.814.739.23L.424 1.161l2.761.859.315-.932Z" style="fill:none;stroke:#fff;stroke-width:.13;stroke-linecap:butt;stroke-linejoin:miter;stroke-miterlimit:4;stroke-dasharray:none;stroke-opacity:1" transform="translate(119.654 103.054)"/><path d="m0 0 .785.032.073-5.094c.008-.599.094-1.093.255-1.483.239-.589.633-.873 1.179-.851.656.027 1.098.368 1.324 1.024.122.356.179.833.17 1.427L3.713.148l.785.032.067-4.627c.014-1.015-.069-1.798-.25-2.352-.333-1.008-.982-1.532-1.946-1.571-.964-.038-1.626.433-1.985 1.415-.198.538-.303 1.314-.318 2.327Z" style="fill:#fff;fill-opacity:1;fill-rule:nonzero;stroke:none" transform="translate(128.88 112.822)"/><path d="m0 0 .785.032.073-5.094c.008-.599.094-1.093.255-1.483.239-.589.633-.873 1.179-.851.656.027 1.098.368 1.324 1.024.122.356.179.833.17 1.427L3.713.148l.785.032.067-4.627c.014-1.015-.069-1.798-.25-2.352-.333-1.008-.982-1.532-1.946-1.571-.964-.038-1.626.433-1.985 1.415-.198.538-.303 1.314-.318 2.327Z" style="fill:none;stroke:#fff;stroke-width:.13;stroke-linecap:butt;stroke-linejoin:miter;stroke-miterlimit:4;stroke-dasharray:none;stroke-opacity:1" transform="translate(128.88 112.822)"/><path d="m0 0 2.216 7.97.883-.225.992-7.169 1.795 6.457.711-.181-2.217-7.97-.837.213-1.035 7.174L.714-.183Z" style="fill:#fff;fill-opacity:1;fill-rule:nonzero;stroke:none" transform="translate(137.076 104.564)"/><path d="m0 0 2.216 7.97.883-.225.992-7.169 1.795 6.457.711-.181-2.217-7.97-.837.213-1.035 7.174L.714-.183Z" style="fill:none;stroke:#fff;stroke-width:.13;stroke-linecap:butt;stroke-linejoin:miter;stroke-miterlimit:4;stroke-dasharray:none;stroke-opacity:1" transform="translate(137.076 104.564)"/><path d="m0 0 3.336 7.59.717-.301L.718-.301Z" style="fill:#fff;fill-opacity:1;fill-rule:nonzero;stroke:none" transform="translate(145.128 102.548)"/><path d="m0 0 3.336 7.59.717-.301L.718-.301Z" style="fill:none;stroke:#fff;stroke-width:.13;stroke-linecap:butt;stroke-linejoin:miter;stroke-miterlimit:4;stroke-dasharray:none;stroke-opacity:1" transform="translate(145.128 102.548)"/><path d="m0 0 .711-.463-2.566-6.769 5.28 4.999.721-.471-6.351-5.772-.681.446z" style="fill:#fff;fill-opacity:1;fill-rule:nonzero;stroke:none" transform="translate(153.329 107.877)"/><path d="m0 0 .711-.463-2.566-6.769 5.28 4.999.721-.471-6.351-5.772-.681.446z" style="fill:none;stroke:#fff;stroke-width:.13;stroke-linecap:butt;stroke-linejoin:miter;stroke-miterlimit:4;stroke-dasharray:none;stroke-opacity:1" transform="translate(153.329 107.877)"/><path d="m0 0 5.485 6.247 3.114-2.715-.672-.765L5.376 4.99 3.711 3.093l2.357-2.055-.634-.723-2.357 2.054L1.217.252l2.594-2.26-.654-.745Z" style="fill:#fff;fill-opacity:1;fill-rule:nonzero;stroke:none" transform="translate(154.982 96.8)"/><path d="m0 0 5.485 6.247 3.114-2.715-.672-.765L5.376 4.99 3.711 3.093l2.357-2.055-.634-.723-2.357 2.054L1.217.252l2.594-2.26-.654-.745Z" style="fill:none;stroke:#fff;stroke-width:.13;stroke-linecap:butt;stroke-linejoin:miter;stroke-miterlimit:4;stroke-dasharray:none;stroke-opacity:1" transform="translate(154.982 96.8)"/><path d="m0 0 2.803 2.202L3.876.823c.192-.248.293-.46.305-.639.01-.317-.191-.651-.607-1L2.512-1.71a7.36 7.36 0 0 1-.492-.436 1.498 1.498 0 0 1-.181-.219l.577-.743.148.116c-.013.138.069.308.249.509.103.118.279.278.523.479l.86.709c.371.309.608.573.708.795.102.221.136.46.104.717.306-.08.626-.078.962.007.335.085.699.281 1.089.588.751.59 1.103 1.205 1.055 1.844-.027.335-.173.673-.438 1.014l-1.61 2.071L-.472.606Zm5.776 4.538 1.151-1.48c.161-.207.245-.408.252-.602.01-.364-.217-.729-.683-1.095-.432-.34-.796-.492-1.091-.458-.295.034-.552.195-.773.479l-1.09 1.401z" style="fill:#fff;fill-opacity:1;fill-rule:nonzero;stroke:none" transform="translate(161.223 90.875)"/><path d="m0 0 2.803 2.202L3.876.823c.192-.248.293-.46.305-.639.01-.317-.191-.651-.607-1L2.512-1.71a7.36 7.36 0 0 1-.492-.436 1.498 1.498 0 0 1-.181-.219l.577-.743.148.116c-.013.138.069.308.249.509.103.118.279.278.523.479l.86.709c.371.309.608.573.708.795.102.221.136.46.104.717.306-.08.626-.078.962.007.335.085.699.281 1.089.588.751.59 1.103 1.205 1.055 1.844-.027.335-.173.673-.438 1.014l-1.61 2.071L-.472.606Zm5.776 4.538 1.151-1.48c.161-.207.245-.408.252-.602.01-.364-.217-.729-.683-1.095-.432-.34-.796-.492-1.091-.458-.295.034-.552.195-.773.479l-1.09 1.401z" style="fill:none;stroke:#fff;stroke-width:.13;stroke-linecap:butt;stroke-linejoin:miter;stroke-miterlimit:4;stroke-dasharray:none;stroke-opacity:1" transform="translate(161.223 90.875)"/><path d="m0 0 .304-.655c-.417-.219-.731-.453-.94-.7-.389-.47-.45-.995-.179-1.58.121-.262.285-.475.493-.638.403-.316.877-.343 1.42-.084.408.194.659.422.751.68.087.258.107.607.058 1.046l-.093.808c-.061.526-.044.929.048 1.203.161.477.554.863 1.176 1.16.673.322 1.299.426 1.88.312.579-.115 1.004-.464 1.274-1.052.25-.539.273-1.089.068-1.647-.205-.559-.724-1.037-1.557-1.434l-.303.655c.386.227.659.449.821.665.292.4.32.855.086 1.364-.191.412-.453.646-.787.706A1.62 1.62 0 0 1 3.517.66c-.367-.175-.586-.408-.66-.699-.044-.189-.036-.567.024-1.131l.095-.837c.044-.403.011-.748-.102-1.033-.199-.495-.632-.901-1.299-1.219-.829-.396-1.518-.472-2.067-.228a2.336 2.336 0 0 0-1.202 1.191c-.296.642-.289 1.256.017 1.845C-1.37-.861-.812-.378 0 0" style="fill:#fff;fill-opacity:1;fill-rule:nonzero;stroke:none" transform="translate(167.532 86.757)"/><path d="m0 0 .304-.655c-.417-.219-.731-.453-.94-.7-.389-.47-.45-.995-.179-1.58.121-.262.285-.475.493-.638.403-.316.877-.343 1.42-.084.408.194.659.422.751.68.087.258.107.607.058 1.046l-.093.808c-.061.526-.044.929.048 1.203.161.477.554.863 1.176 1.16.673.322 1.299.426 1.88.312.579-.115 1.004-.464 1.274-1.052.25-.539.273-1.089.068-1.647-.205-.559-.724-1.037-1.557-1.434l-.303.655c.386.227.659.449.821.665.292.4.32.855.086 1.364-.191.412-.453.646-.787.706A1.62 1.62 0 0 1 3.517.66c-.367-.175-.586-.408-.66-.699-.044-.189-.036-.567.024-1.131l.095-.837c.044-.403.011-.748-.102-1.033-.199-.495-.632-.901-1.299-1.219-.829-.396-1.518-.472-2.067-.228a2.336 2.336 0 0 0-1.202 1.191c-.296.642-.289 1.256.017 1.845C-1.37-.861-.812-.378 0 0Z" style="fill:none;stroke:#fff;stroke-width:.13;stroke-linecap:butt;stroke-linejoin:miter;stroke-miterlimit:4;stroke-dasharray:none;stroke-opacity:1" transform="translate(167.532 86.757)"/><path d="m0 0 7.834 2.698.24-.74L.24-.739Z" style="fill:#fff;fill-opacity:1;fill-rule:nonzero;stroke:none" transform="translate(168.235 77.847)"/><path d="m0 0 7.834 2.698.24-.74L.24-.739Z" style="fill:none;stroke:#fff;stroke-width:.13;stroke-linecap:butt;stroke-linejoin:miter;stroke-miterlimit:4;stroke-dasharray:none;stroke-opacity:1" transform="translate(168.235 77.847)"/><path d="m0 0 .777-4.557-.966-.187-.324 1.892-7.152-1.38-.131.771 7.151 1.382-.323 1.893z" style="fill:#fff;fill-opacity:1;fill-rule:nonzero;stroke:none" transform="translate(177.318 76.07)"/><path d="m0 0 .777-4.557-.966-.187-.324 1.892-7.152-1.38-.131.771 7.151 1.382-.323 1.893z" style="fill:none;stroke:#fff;stroke-width:.13;stroke-linecap:butt;stroke-linejoin:miter;stroke-miterlimit:4;stroke-dasharray:none;stroke-opacity:1" transform="translate(177.318 76.07)"/><path d="m0 0 4.847 2.434.028-.903L.97-.331l4.004-1.421.028-.906L.023-.774l-3.314-.185-.023.775Z" style="fill:#fff;fill-opacity:1;fill-rule:nonzero;stroke:none" transform="translate(173.722 66.97)"/><path d="m0 0 4.847 2.434.028-.903L.97-.331l4.004-1.421.028-.906L.023-.774l-3.314-.185-.023.775Z" style="fill:none;stroke:#fff;stroke-width:.13;stroke-linecap:butt;stroke-linejoin:miter;stroke-miterlimit:4;stroke-dasharray:none;stroke-opacity:1" transform="translate(173.722 66.97)"/><path d="M0 0a1.118 1.118 0 1 1 0 2.235A1.118 1.118 0 0 1 0 0" style="fill:#fff;fill-opacity:1;fill-rule:nonzero;stroke:none" transform="translate(90.75 51.166)"/><path d="M0 0a1.118 1.118 0 1 1 0 2.235A1.118 1.118 0 0 1 0 0Z" style="fill:none;stroke:#fff;stroke-width:1.3;stroke-linecap:butt;stroke-linejoin:miter;stroke-miterlimit:4;stroke-dasharray:none;stroke-opacity:1" transform="translate(90.75 51.166)"/><path d="M0 0a1.118 1.118 0 1 1 0 2.236A1.118 1.118 0 0 1 0 0" style="fill:#fff;fill-opacity:1;fill-rule:nonzero;stroke:none" transform="translate(172.06 51.47)"/><path d="M0 0a1.118 1.118 0 1 1 0 2.236A1.118 1.118 0 0 1 0 0Z" style="fill:none;stroke:#fff;stroke-width:1.3;stroke-linecap:butt;stroke-linejoin:miter;stroke-miterlimit:4;stroke-dasharray:none;stroke-opacity:1" transform="translate(172.06 51.47)"/><path d="M0 0s-.258-.845-.835-1.296c-.577-.452-1.862-1.356-2.149-1.911-.286-.555-1.28-1.853.733-3.29 1.059-.756 3.606.366 3.712.419.105.054-1.42 3.707-1.25 6.159C.242.528 0 0 0 0" style="fill:#fff;fill-opacity:1;fill-rule:nonzero;stroke:none" transform="translate(108.8 60.48)"/><path d="M0 0s-.258-.845-.835-1.296c-.577-.452-1.862-1.356-2.149-1.911-.286-.555-1.28-1.853.733-3.29 1.059-.756 3.606.366 3.712.419.105.054-1.42 3.707-1.25 6.159C.242.528 0 0 0 0Z" style="fill:none;stroke:#231f20;stroke-width:.325;stroke-linecap:butt;stroke-linejoin:miter;stroke-miterlimit:4;stroke-dasharray:none;stroke-opacity:1" transform="translate(108.8 60.48)"/><path d="m0 0 1.482-5.262" style="fill:#fff;fill-opacity:1;fill-rule:nonzero;stroke:#231f20;stroke-width:.325;stroke-linecap:butt;stroke-linejoin:miter;stroke-miterlimit:4;stroke-dasharray:none;stroke-opacity:1" transform="translate(108.279 59.502)"/><path d="m0 0 1.48-4.879" style="fill:#fff;fill-opacity:1;fill-rule:nonzero;stroke:#231f20;stroke-width:.325;stroke-linecap:butt;stroke-linejoin:miter;stroke-miterlimit:4;stroke-dasharray:none;stroke-opacity:1" transform="translate(107.433 58.812)"/><path d="m0 0 1.293-4.498" style="fill:#fff;fill-opacity:1;fill-rule:nonzero;stroke:#231f20;stroke-width:.325;stroke-linecap:butt;stroke-linejoin:miter;stroke-miterlimit:4;stroke-dasharray:none;stroke-opacity:1" transform="translate(106.68 58.174)"/><path d="m0 0 1.078-3.894" style="fill:#fff;fill-opacity:1;fill-rule:nonzero;stroke:#231f20;stroke-width:.325;stroke-linecap:butt;stroke-linejoin:miter;stroke-miterlimit:4;stroke-dasharray:none;stroke-opacity:1" transform="translate(106.13 57.644)"/><path d="m0 0 .833-2.762" style="fill:#fff;fill-opacity:1;fill-rule:nonzero;stroke:#231f20;stroke-width:.325;stroke-linecap:butt;stroke-linejoin:miter;stroke-miterlimit:4;stroke-dasharray:none;stroke-opacity:1" transform="translate(105.582 56.85)"/><path d="M0 0s.27-.842.853-1.286c.582-.444 1.878-1.333 2.171-1.885.293-.551 1.303-1.836-.691-3.298-1.051-.769-3.612.321-3.718.373C-1.49-6.044-.011-2.372-.211.077-.248.524 0 0 0 0" style="fill:#fff;fill-opacity:1;fill-rule:nonzero;stroke:none" transform="translate(154.032 60.76)"/><path d="M0 0s.27-.842.853-1.286c.582-.444 1.878-1.333 2.171-1.885.293-.551 1.303-1.836-.691-3.298-1.051-.769-3.612.321-3.718.373C-1.49-6.044-.011-2.372-.211.077-.248.524 0 0 0 0Z" style="fill:none;stroke:#231f20;stroke-width:.325;stroke-linecap:butt;stroke-linejoin:miter;stroke-miterlimit:4;stroke-dasharray:none;stroke-opacity:1" transform="translate(154.032 60.76)"/><path d="m0 0-1.416-5.279" style="fill:#fff;fill-opacity:1;fill-rule:nonzero;stroke:#231f20;stroke-width:.325;stroke-linecap:butt;stroke-linejoin:miter;stroke-miterlimit:4;stroke-dasharray:none;stroke-opacity:1" transform="translate(154.565 59.788)"/><path d="m0 0-1.42-4.898" style="fill:#fff;fill-opacity:1;fill-rule:nonzero;stroke:#231f20;stroke-width:.325;stroke-linecap:butt;stroke-linejoin:miter;stroke-miterlimit:4;stroke-dasharray:none;stroke-opacity:1" transform="translate(155.42 59.108)"/><path d="m0 0-1.237-4.514" style="fill:#fff;fill-opacity:1;fill-rule:nonzero;stroke:#231f20;stroke-width:.325;stroke-linecap:butt;stroke-linejoin:miter;stroke-miterlimit:4;stroke-dasharray:none;stroke-opacity:1" transform="translate(156.181 58.48)"/><path d="m0 0-1.03-3.907" style="fill:#fff;fill-opacity:1;fill-rule:nonzero;stroke:#231f20;stroke-width:.325;stroke-linecap:butt;stroke-linejoin:miter;stroke-miterlimit:4;stroke-dasharray:none;stroke-opacity:1" transform="translate(156.738 57.957)"/><path d="m0 0-.8-2.771" style="fill:#fff;fill-opacity:1;fill-rule:nonzero;stroke:#231f20;stroke-width:.325;stroke-linecap:butt;stroke-linejoin:miter;stroke-miterlimit:4;stroke-dasharray:none;stroke-opacity:1" transform="translate(157.296 57.17)"/><path d="M0 0v12.999c1.778-3.189 10.764-.198 10.764-.198 6.482 1.66 11.672 6.271 11.672 6.271s4.771-4.215 11.491-6.271c0 0 9.16-2.991 10.937.198V0Z" style="fill:#d91920;fill-opacity:1;fill-rule:nonzero;stroke:none" transform="translate(108.922 74.086)"/><path d="M0 0v12.999c1.778-3.189 10.764-.198 10.764-.198 6.482 1.66 11.672 6.271 11.672 6.271s4.771-4.215 11.491-6.271c0 0 9.16-2.991 10.937.198V0Z" style="fill:none;stroke:#231f20;stroke-width:.325;stroke-linecap:butt;stroke-linejoin:miter;stroke-miterlimit:4;stroke-dasharray:none;stroke-opacity:1" transform="translate(108.922 74.086)"/><path d="M0 0v-14.328S2.022-24.415 7.927-30.12c5.849-5.653 10.993-5.857 13.102-8.23l1.407-1.263 1.53 1.238c1.646 1.553 7.287 2.806 13.399 8.287 6.114 5.483 7.499 15.76 7.499 15.76V0Z" style="fill:#2056ae;fill-opacity:1;fill-rule:nonzero;stroke:none" transform="translate(108.922 73.137)"/><path d="M0 0v-14.328S2.022-24.415 7.927-30.12c5.849-5.653 10.993-5.857 13.102-8.23l1.407-1.263 1.53 1.238c1.646 1.553 7.287 2.806 13.399 8.287 6.114 5.483 7.499 15.76 7.499 15.76V0Z" style="fill:none;stroke:#231f20;stroke-width:.52;stroke-linecap:butt;stroke-linejoin:miter;stroke-miterlimit:4;stroke-dasharray:none;stroke-opacity:1" transform="translate(108.922 73.137)"/><path d="M0 0v17.195l-1.358 1.159-1.35-1.185V-.039h-21.496v-2.49h21.496l-.049-38.518 1.371-1.381C-1.308-42.27 0-41.097 0-41.097v38.574h21.425V0Z" style="fill:#fff;fill-opacity:1;fill-rule:nonzero;stroke:none" transform="translate(132.744 75.252)"/><path d="M0 0v17.195l-1.358 1.159-1.35-1.185V-.039h-21.496v-2.49h21.496l-.049-38.518 1.371-1.381C-1.308-42.27 0-41.097 0-41.097v38.574h21.425V0Z" style="fill:none;stroke:#231f20;stroke-width:.325;stroke-linecap:butt;stroke-linejoin:miter;stroke-miterlimit:4;stroke-dasharray:none;stroke-opacity:1" transform="translate(132.744 75.252)"/><path d="M0 0s-.853 1.471 1.981 3.385c2.835 1.916.82 4.012-.136 5.059-.954 1.048-5.28 1.549-5.734 6.817 0 0-2.51-3.178.575-7.798 0 0-2.324.829-2.973 3.566 0 0-1.657-4.172 1.246-7.202.265-.276.395-.332.738-.586 0 0 .805-.35 1.387-.505C-1.895 2.465-.6 1.917-.108.315z" style="fill:#fddd04;fill-opacity:1;fill-rule:nonzero;stroke:none" transform="translate(105.432 55.347)"/><path d="M0 0s-.853 1.471 1.981 3.385c2.835 1.916.82 4.012-.136 5.059-.954 1.048-5.28 1.549-5.734 6.817 0 0-2.51-3.178.575-7.798 0 0-2.324.829-2.973 3.566 0 0-1.657-4.172 1.246-7.202.265-.276.395-.332.738-.586 0 0 .805-.35 1.387-.505C-1.895 2.465-.6 1.917-.108.315z" style="fill:none;stroke:#231f20;stroke-width:.325;stroke-linecap:butt;stroke-linejoin:miter;stroke-miterlimit:4;stroke-dasharray:none;stroke-opacity:1" transform="translate(105.432 55.347)"/><path d="M0 0s-2.629-.965 2.034-4.941c0 0 1.378-1.257 1.492-2.732.115-1.475 1.168-1.356 2.009-1.14.843.215 10.626 3.538 13.26 3.554 0 0 .95-.205.732.847L18.22 2.643S8.852.477 5.171-.811c0 0-4.203-2.24-5.171.811" style="fill:#fddd04;fill-opacity:1;fill-rule:nonzero;stroke:none" transform="translate(105.432 55.347)"/><path d="M0 0s-2.629-.965 2.034-4.941c0 0 1.378-1.257 1.492-2.732.115-1.475 1.168-1.356 2.009-1.14.843.215 10.626 3.538 13.26 3.554 0 0 .95-.205.732.847L18.22 2.643S8.852.477 5.171-.811c0 0-4.203-2.24-5.171.811z" style="fill:none;stroke:#231f20;stroke-width:.325;stroke-linecap:butt;stroke-linejoin:miter;stroke-miterlimit:4;stroke-dasharray:none;stroke-opacity:1" transform="translate(105.432 55.347)"/><path d="M0 0s.833 1.481-2.023 3.36c-2.859 1.88-.87 4.001.074 5.061.942 1.06 5.261 1.613 5.649 6.887 0 0 2.548-3.147-.479-7.804 0 0 2.314.858 2.929 3.602 0 0 1.708-4.15-1.157-7.217-.261-.28-.39-.337-.731-.595 0 0-.801-.361-1.381-.523C1.863 2.488.575 1.924.104.317Z" style="fill:#fddd04;fill-opacity:1;fill-rule:nonzero;stroke:none" transform="translate(157.464 55.669)"/><path d="M0 0s.833 1.481-2.023 3.36c-2.859 1.88-.87 4.001.074 5.061.942 1.06 5.261 1.613 5.649 6.887 0 0 2.548-3.147-.479-7.804 0 0 2.314.858 2.929 3.602 0 0 1.708-4.15-1.157-7.217-.261-.28-.39-.337-.731-.595 0 0-.801-.361-1.381-.523C1.863 2.488.575 1.924.104.317Z" style="fill:none;stroke:#231f20;stroke-width:.325;stroke-linecap:butt;stroke-linejoin:miter;stroke-miterlimit:4;stroke-dasharray:none;stroke-opacity:1" transform="translate(157.464 55.669)"/><path d="M0 0s2.641-.932-1.973-4.967c0 0-1.362-1.273-1.458-2.75-.096-1.475-1.15-1.369-1.996-1.164-.843.205-10.668 3.405-13.302 3.389 0 0-.947-.216-.744.839l1.221 7.07S-8.856.367-5.16-.875c0 0 4.23-2.188 5.16.875" style="fill:#fddd04;fill-opacity:1;fill-rule:nonzero;stroke:none" transform="translate(157.464 55.669)"/><path d="M0 0s2.641-.932-1.973-4.967c0 0-1.362-1.273-1.458-2.75-.096-1.475-1.15-1.369-1.996-1.164-.843.205-10.668 3.405-13.302 3.389 0 0-.947-.216-.744.839l1.221 7.07S-8.856.367-5.16-.875c0 0 4.23-2.188 5.16.875z" style="fill:none;stroke:#231f20;stroke-width:.325;stroke-linecap:butt;stroke-linejoin:miter;stroke-miterlimit:4;stroke-dasharray:none;stroke-opacity:1" transform="translate(157.464 55.669)"/><path d="M0 0s.874-.646 1.79.223l1.409-6.21s1.627-1.038-.201-1.584c-.791-.236-1.7-.491-1.943.107-.16.394.054.632.032 1.166C1.044-5.31 0 0 0 0" style="fill:#fddd04;fill-opacity:1;fill-rule:nonzero;stroke:none" transform="translate(123.87 56.831)"/><path d="M0 0s.874-.646 1.79.223l1.409-6.21s1.627-1.038-.201-1.584c-.791-.236-1.7-.491-1.943.107-.16.394.054.632.032 1.166C1.044-5.31 0 0 0 0Z" style="fill:none;stroke:#231f20;stroke-width:.325;stroke-linecap:butt;stroke-linejoin:miter;stroke-miterlimit:4;stroke-dasharray:none;stroke-opacity:1" transform="translate(123.87 56.831)"/><path d="M0 0s-.984-.608-1.912.25l-1.126-6.266s-1.701-1.069.134-1.59c.795-.227 1.707-.471 1.942.129.156.397-.062.632-.046 1.166C-.978-5.322 0 0 0 0" style="fill:#fddd04;fill-opacity:1;fill-rule:nonzero;stroke:none" transform="translate(139.008 56.925)"/><path d="M0 0s-.984-.608-1.912.25l-1.126-6.266s-1.701-1.069.134-1.59c.795-.227 1.707-.471 1.942.129.156.397-.062.632-.046 1.166C-.978-5.322 0 0 0 0Z" style="fill:none;stroke:#231f20;stroke-width:.325;stroke-linecap:butt;stroke-linejoin:miter;stroke-miterlimit:4;stroke-dasharray:none;stroke-opacity:1" transform="translate(139.008 56.925)"/><path d="M0 0s5.63 1.564 12.067.338l-1.426-7.757s-5.768.294-8.908-.159z" style="fill:#fddd04;fill-opacity:1;fill-rule:nonzero;stroke:none" transform="translate(125.336 58.422)"/><path d="M0 0s5.63 1.564 12.067.338l-1.426-7.757s-5.768.294-8.908-.159z" style="fill:none;stroke:#231f20;stroke-width:.325;stroke-linecap:butt;stroke-linejoin:miter;stroke-miterlimit:4;stroke-dasharray:none;stroke-opacity:1" transform="translate(125.336 58.422)"/><path d="M0 0c-.251.425-.572 1.107-.355 1.72.217.612.711.315.553-.199C.04 1.008.332-.778 1.423-.811c1.325-.039.713.395.713.395-.494.119-.278.732-.376 2.175C1.66 3.201.494 3.3.099 3.32c-.396.019-.642.425-.829.988-.456 1.364-2.235.909-2.235.909s.613-.276.633-.869c.02-.593-.771-1.009-1.166-1.028-.396-.02-1.562-.119-1.66-1.561-.099-1.443.119-2.056-.375-2.175 0 0-.734-.395.711-.395.849 0 1.403 1.661 1.225 2.332-.137.519.336.811.554.199.218-.613-.021-1.246-.317-1.642 0 0-.573-.494-.059-.533.515-.04 1.463-.02 1.463-.02s.355 0 .039.475c-.315.474-.435 1.205-.197 1.581.237.375.81.078.849-.02.039-.099.336-.91.021-1.502 0 0-.416-.454-.139-.514.277-.059 1.186-.02 1.186-.02S.316-.534 0 0" style="fill:#fff;fill-opacity:1;fill-rule:nonzero;stroke:none" transform="translate(133.053 52.603)"/><path d="M0 0c-.251.425-.572 1.107-.355 1.72.217.612.711.315.553-.199C.04 1.008.332-.778 1.423-.811c1.325-.039.713.395.713.395-.494.119-.278.732-.376 2.175C1.66 3.201.494 3.3.099 3.32c-.396.019-.642.425-.829.988-.456 1.364-2.235.909-2.235.909s.613-.276.633-.869c.02-.593-.771-1.009-1.166-1.028-.396-.02-1.562-.119-1.66-1.561-.099-1.443.119-2.056-.375-2.175 0 0-.734-.395.711-.395.849 0 1.403 1.661 1.225 2.332-.137.519.336.811.554.199.218-.613-.021-1.246-.317-1.642 0 0-.573-.494-.059-.533.515-.04 1.463-.02 1.463-.02s.355 0 .039.475c-.315.474-.435 1.205-.197 1.581.237.375.81.078.849-.02.039-.099.336-.91.021-1.502 0 0-.416-.454-.139-.514.277-.059 1.186-.02 1.186-.02S.316-.534 0 0z" style="fill:none;stroke:#231f20;stroke-width:.325;stroke-linecap:butt;stroke-linejoin:miter;stroke-miterlimit:4;stroke-dasharray:none;stroke-opacity:1" transform="translate(133.053 52.603)"/><path d="M0 0c-3.453-.277-3.707 1.63-3.707 1.63 0 .94 1.394 1.702 3.113 1.702 1.72 0 2.794-.652 2.794-1.593 0 0-.276-1.423-2.411-1.146-1.81.234-2.095.751-2.135 1.225 0 0 .475.672.909.672" style="fill:#fff;fill-opacity:1;fill-rule:nonzero;stroke:#231f20;stroke-width:.325;stroke-linecap:butt;stroke-linejoin:miter;stroke-miterlimit:4;stroke-dasharray:none;stroke-opacity:1" transform="translate(112.544 85.82)"/><path d="M0 0c-.693 0-1.255.226-1.255.504h-.027v-2.866s1.381-1.147 2.5-.039V.385C1.084.165.592 0 0 0" style="fill:#fff;fill-opacity:1;fill-rule:nonzero;stroke:none" transform="translate(112.05 90.02)"/><path d="M0 0c-.693 0-1.255.226-1.255.504h-.027v-2.866s1.381-1.147 2.5-.039V.385C1.084.165.592 0 0 0Z" style="fill:none;stroke:#231f20;stroke-width:.325;stroke-linecap:butt;stroke-linejoin:round;stroke-miterlimit:4;stroke-dasharray:none;stroke-opacity:1" transform="translate(112.05 90.02)"/><path d="M0 0v.001c0 .277-.562.502-1.257.502-.693 0-1.255-.225-1.255-.502 0-.278.562-.504 1.255-.504.592 0 1.084.165 1.218.385A.23.23 0 0 1 0 .001Z" style="fill:#fff;fill-opacity:1;fill-rule:nonzero;stroke:none" transform="translate(113.307 90.523)"/><path d="M0 0v.001c0 .277-.562.502-1.257.502-.693 0-1.255-.225-1.255-.502 0-.278.562-.504 1.255-.504.592 0 1.084.165 1.218.385A.23.23 0 0 1 0 .001Z" style="fill:none;stroke:#231f20;stroke-width:.325;stroke-linecap:butt;stroke-linejoin:round;stroke-miterlimit:4;stroke-dasharray:none;stroke-opacity:1" transform="translate(113.307 90.523)"/><path d="M0 0c3.453-.277 3.707 1.63 3.707 1.63 0 .94-1.394 1.702-3.112 1.702-1.721 0-2.794-.652-2.794-1.593 0 0 .276-1.423 2.411-1.146 1.81.234 2.095.751 2.135 1.225 0 0-.475.672-.91.672" style="fill:#fff;fill-opacity:1;fill-rule:nonzero;stroke:#231f20;stroke-width:.325;stroke-linecap:butt;stroke-linejoin:miter;stroke-miterlimit:4;stroke-dasharray:none;stroke-opacity:1" transform="translate(150.147 85.82)"/><path d="M0 0c.693 0 1.257.226 1.257.504h.026v-2.866s-1.381-1.147-2.5-.039V.385C-1.082.165-.591 0 0 0" style="fill:#fff;fill-opacity:1;fill-rule:nonzero;stroke:none" transform="translate(150.64 90.02)"/><path d="M0 0c.693 0 1.257.226 1.257.504h.026v-2.866s-1.381-1.147-2.5-.039V.385C-1.082.165-.591 0 0 0Z" style="fill:none;stroke:#231f20;stroke-width:.325;stroke-linecap:butt;stroke-linejoin:round;stroke-miterlimit:4;stroke-dasharray:none;stroke-opacity:1" transform="translate(150.64 90.02)"/><path d="m0 0-.001.001c0 .277.562.502 1.256.502.693 0 1.257-.225 1.257-.502 0-.278-.564-.504-1.257-.504-.591 0-1.082.165-1.217.385a.23.23 0 0 0-.039.119z" style="fill:#fff;fill-opacity:1;fill-rule:nonzero;stroke:none" transform="translate(149.385 90.523)"/><path d="m0 0-.001.001c0 .277.562.502 1.256.502.693 0 1.257-.225 1.257-.502 0-.278-.564-.504-1.257-.504-.591 0-1.082.165-1.217.385a.23.23 0 0 0-.039.119z" style="fill:none;stroke:#231f20;stroke-width:.325;stroke-linecap:butt;stroke-linejoin:round;stroke-miterlimit:4;stroke-dasharray:none;stroke-opacity:1" transform="translate(149.385 90.523)"/><path d="M0 0v-.36h-3.427V0c.102.007.261.021.476.043.215.023.364.045.445.068a.465.465 0 0 1 .241.165c.056.078.084.192.084.344v3.569h-1.266v.427h.28c.365 0 .693.068.984.203.289.136.496.282.622.439h.421c-.009-.222-.019-.48-.029-.775a21.307 21.307 0 0 1-.016-.792V.676c0-.118.027-.224.08-.319A.48.48 0 0 1-.879.152 2.03 2.03 0 0 1-.447.051C-.247.021-.099.004 0 0" style="fill:#fff;fill-opacity:1;fill-rule:nonzero;stroke:none" transform="translate(122.489 64.62)"/><path d="M0 0c-.449.54-1.052.809-1.808.809-.695 0-1.279-.241-1.752-.722-.472-.482-.709-1.072-.709-1.774 0-.655.205-1.197.614-1.627.407-.431.888-.646 1.44-.646.346 0 .657.055.934.165.275.109.552.283.831.522-.119-.736-.384-1.343-.793-1.822-.41-.476-.981-.831-1.709-1.062l-.457-.081.091-.456c.61.08 1.162.249 1.656.505.493.255.91.577 1.252.963.349.393.617.849.804 1.37.186.52.28 1.076.28 1.665C.674-1.269.448-.539 0 0m-.41-2.333a4.136 4.136 0 0 1-.005-.174 1.813 1.813 0 0 0-.016-.254 1.79 1.79 0 0 0-.615-.465 1.797 1.797 0 0 0-.727-.144c-.422 0-.761.166-1.014.498-.252.332-.379.772-.379 1.322 0 .611.124 1.089.372 1.436.247.347.573.521.976.521.423 0 .765-.224 1.024-.674.26-.449.39-1.07.39-1.863 0-.068-.002-.136-.006-.203" style="fill:#fff;fill-opacity:1;fill-rule:nonzero;stroke:none" transform="translate(127.546 69.072)"/><path d="M0 0c-.402.434-.886.651-1.451.651-.316 0-.615-.052-.901-.158a2.817 2.817 0 0 1-.864-.538c.118.715.379 1.323.78 1.824.402.502.971.872 1.707 1.11l.457.081-.092.457c-1.209-.166-2.175-.665-2.895-1.495-.72-.83-1.081-1.85-1.081-3.06 0-.465.06-.884.179-1.255.118-.374.285-.689.503-.947.214-.254.474-.45.777-.589a2.43 2.43 0 0 1 1.023-.209c.326 0 .637.06.938.178A2.403 2.403 0 0 1 .412-2.613c.127.308.191.639.191.992C.603-.974.402-.434 0 0m-.872-3.2c-.247-.351-.573-.527-.977-.527-.423 0-.764.225-1.024.674-.259.449-.39 1.071-.39 1.864a12.039 12.039 0 0 0 .027.63c.203.224.415.383.634.478.218.095.455.143.709.143A1.21 1.21 0 0 0-.88-.437c.253-.332.379-.773.379-1.322 0-.609-.125-1.091-.371-1.441" style="fill:#fff;fill-opacity:1;fill-rule:nonzero;stroke:none" transform="translate(138.723 67.939)"/><path d="M0 0v-.899h-4.765v.691c.091.104.218.223.381.354.163.129.357.272.579.424.136.09.299.191.49.299.188.109.404.227.645.357.267.142.474.267.616.376.145.108.277.243.396.402.078.104.141.235.187.394.047.156.073.381.073.673 0 .424-.116.735-.341.934-.228.197-.519.297-.875.297a1.53 1.53 0 0 1-.626-.13.981.981 0 0 1-.442-.359l.089-.386c.035-.15.053-.294.053-.438a.459.459 0 0 0-.16-.343c-.107-.099-.266-.149-.476-.149a.465.465 0 0 0-.391.175c-.092.117-.136.273-.136.47 0 .183.051.367.151.551.103.185.248.356.439.511.184.153.416.277.69.372.275.095.572.142.89.142.694 0 1.246-.155 1.655-.465.408-.311.612-.724.612-1.243 0-.247-.036-.473-.109-.675a1.375 1.375 0 0 0-.352-.54 2.697 2.697 0 0 0-.631-.445A24.847 24.847 0 0 0-2.461.834c-.296-.133-.57-.271-.825-.415A4.2 4.2 0 0 1-3.91 0Z" style="fill:#fff;fill-opacity:1;fill-rule:nonzero;stroke:none" transform="translate(145.077 64.873)"/></g></svg>