<svg xmlns="http://www.w3.org/2000/svg" xml:space="preserve" width="325.43906" height="325.74323" viewBox="0 0 325.43906 325.74322"><g transform="matrix(1.60894 0 0 -1.60894 -323.877 398.03)"><ellipse cx="302.43246" cy="-146.15706" rx="101.13439" ry="101.22891" style="fill:#fff;stroke-width:0" transform="scale(1 -1)"/><path d="M357.83 218.733c.833 1.1.273 2.928-1.254 4.09-1.529 1.146-3.433 1.187-4.272.086-.833-1.104-.274-2.928 1.247-4.086 1.53-1.16 3.44-1.2 4.28-.09" style="fill:#231f20;fill-opacity:1;fill-rule:nonzero;stroke:none" transform="matrix(1 0 0 .99993 0 .017)"/><path d="M0 0h-79.653l91.525 81.459V41.354h-1.358v36.974l-61.83-65.381h25.798z" style="fill:#231f20;fill-opacity:1;fill-rule:nonzero;stroke:none" transform="matrix(1 0 0 .99993 341.522 98.937)"/><path d="M0 0h79.653l-89.749 82.297V42.192h1.358v36.973l60.053-66.218H25.519Z" style="fill:#231f20;fill-opacity:1;fill-rule:nonzero;stroke:none" transform="matrix(1 0 0 .99993 261.869 98.937)"/><path d="m0 0 11.238 13.078L22.477 0Z" style="fill:#231f20;fill-opacity:1;fill-rule:nonzero;stroke:none" transform="matrix(1 0 0 .99993 241.191 131.495)"/><path d="m0 0 11.239 13.075L22.478 0Z" style="fill:#231f20;fill-opacity:1;fill-rule:nonzero;stroke:none" transform="matrix(1 0 0 .99993 341.474 130.364)"/><path d="M0 0v4.211h-1.738v.599c.536.007 1.029.091 1.406.293.29.147.525.461.558.791h.813V0Z" style="fill:#fff;fill-opacity:1;fill-rule:nonzero;stroke:none" transform="matrix(1 0 0 .99993 291.073 101.929)"/><path d="M0 0c-.966 0-1.653-.549-1.653-1.332 0-.786.687-1.332 1.653-1.332.976 0 1.642.555 1.642 1.332S.976 0 0 0m2.628-4.066c-.461-.93-1.319-1.457-2.671-1.457-1.426 0-2.543.791-2.66 1.644h1.05c.076-.438.677-.992 1.653-.992.945 0 1.331.462 1.578.907.257.476.257.908.236 1.245-.474-.347-1.126-.677-2.018-.646-1.524.053-2.543.962-2.543 2.033C-2.747-.218-1.598.636-.043.636 1.425.636 2.274 0 2.694-.87c.376-.777.363-2.343-.066-3.196" style="fill:#fff;fill-opacity:1;fill-rule:nonzero;stroke:none" transform="matrix(1 0 0 .99993 298.358 107.325)"/><path d="M0 0v4.211h-1.738v.599c.537.007 1.03.091 1.404.293.289.147.525.461.557.791h.818V0Z" style="fill:#fff;fill-opacity:1;fill-rule:nonzero;stroke:none" transform="matrix(1 0 0 .99993 305.516 101.929)"/><path d="m0 0-2.758-2.977H0Zm1.02-3.602v-1.123H0v1.123h-3.744v.827l3.723 3.944H1.02v-4.146h1.234v-.625z" style="fill:#fff;fill-opacity:1;fill-rule:nonzero;stroke:none" transform="matrix(1 0 0 .99993 313.658 106.653)"/><path d="m0 0-4.881 5.773.051-11.487h9.66l.055 11.487Z" style="fill:#231f20;fill-opacity:1;fill-rule:nonzero;stroke:none" transform="matrix(1 0 0 .99993 302.504 198.43)"/><path d="m0 0-5.775-4.883 11.489.055v9.661l-11.489.049Z" style="fill:#231f20;fill-opacity:1;fill-rule:nonzero;stroke:none" transform="matrix(1 0 0 .99993 277.739 179.31)"/><path d="m0 0 5.775-4.883-11.488.055v9.661l11.488.049Z" style="fill:#231f20;fill-opacity:1;fill-rule:nonzero;stroke:none" transform="matrix(1 0 0 .99993 327.179 179.31)"/><path d="M317.779 150.307h-31.541v1.569h31.541z" style="fill:#231f20;fill-opacity:1;fill-rule:nonzero;stroke:none" transform="matrix(1 0 0 .99993 0 .017)"/><path d="M300.932 157.777h2.154v-6.685h-2.154z" style="fill:#231f20;fill-opacity:1;fill-rule:nonzero;stroke:none" transform="matrix(1 0 0 .99993 0 .017)"/><path d="M0 0v6.392h2.25V1.085h5.598V0Z" style="fill:#231f20;fill-opacity:1;fill-rule:nonzero;stroke:none" transform="matrix(1 0 0 .99993 287.852 175.389)"/><path d="M0 0h2.43v-3.49c0-.553.027-.911.089-1.077.104-.261.35-.476.742-.636.391-.158.926-.239 1.604-.239.688 0 1.208.076 1.557.228.349.15.56.337.633.555.072.222.107.587.107 1.093V0H9.59v-3.385c0-.771-.068-1.321-.197-1.638-.134-.322-.374-.588-.728-.811-.352-.218-.823-.392-1.415-.524-.59-.131-1.36-.197-2.313-.197-1.149 0-2.019.075-2.611.215-.595.142-1.062.326-1.406.555-.346.225-.572.462-.681.712C.08-4.703 0-4.156 0-3.437Z" style="fill:#231f20;fill-opacity:1;fill-rule:nonzero;stroke:none" transform="matrix(1 0 0 .99993 297.756 181.832)"/><path d="m0 0 3.81 3.363-3.455 3.08h2.632l2.238-2.071 2.189 2.071h2.608L6.557 3.314 10.366 0H7.65L5.178 2.227 2.699 0Z" style="fill:#231f20;fill-opacity:1;fill-rule:nonzero;stroke:none" transform="matrix(1 0 0 .99993 308.356 175.389)"/><path d="M0 0v6.443h3.03l1.82-4.395 1.799 4.395h3.038V0H7.805v5.073L5.815 0H3.864L1.879 5.073V0Z" style="fill:#231f20;fill-opacity:1;fill-rule:nonzero;stroke:none" transform="matrix(1 0 0 .99993 297.623 183.745)"/><path d="M0 0v6.447h2.396l4.992-4.305v4.305h2.289V0H7.204L2.288 4.202V0Z" style="fill:#231f20;fill-opacity:1;fill-rule:nonzero;stroke:none" transform="matrix(1 0 0 .99993 297.669 167.034)"/><path d="M0 0v-4.268h1.724c.644 0 1.108.02 1.394.06.374.055.685.142.933.272.246.125.449.332.603.62.157.288.235.682.235 1.179 0 .501-.078.881-.235 1.151A1.601 1.601 0 0 1 4-.364c-.281.149-.637.251-1.069.304-.322.039-.952.06-1.894.06Zm-2.306 1.093h4.217c.952 0 1.677-.043 2.175-.125C4.755.859 5.33.658 5.809.376c.476-.286.84-.634 1.09-1.044.249-.413.376-.919.376-1.525 0-.531-.119-.987-.352-1.37-.287-.471-.694-.848-1.224-1.139-.4-.224-.94-.392-1.621-.517-.51-.087-1.191-.135-2.043-.135h-4.341z" style="fill:#231f20;fill-opacity:1;fill-rule:nonzero;stroke:none" transform="matrix(1 0 0 .99993 300.07 164.032)"/><path d="M0 0a1.42 1.42 0 0 1-1.146.239 1.546 1.546 0 0 1-.997-.641l-.88-1.284L.791-4.301l.875 1.279c.244.353.32.736.244 1.157a1.47 1.47 0 0 1-.641.99z" style="fill:#231f20;fill-opacity:1;fill-rule:nonzero;stroke:none" transform="matrix(1 0 0 .99993 370.975 96.419)"/><path d="M0 0a1.478 1.478 0 0 1-1.044-.543l-4.879-5.973a1.516 1.516 0 0 1-.328-1.12c.034-.434.226-.783.56-1.057.335-.266.716-.38 1.139-.34.429.047.771.237 1.037.552l4.873 5.972c.273.326.382.701.341 1.131-.054.416-.231.773-.56 1.038A1.52 1.52 0 0 1 0 0" style="fill:#231f20;fill-opacity:1;fill-rule:nonzero;stroke:none" transform="matrix(1 0 0 .99993 247.365 81.827)"/><path d="M0 0a1.51 1.51 0 0 1-1.134-.362A1.454 1.454 0 0 1-1.679-1.4l-.661-7.685a1.466 1.466 0 0 1 .361-1.104 1.47 1.47 0 0 1 1.051-.56c.422-.041.805.095 1.132.361A1.5 1.5 0 0 1 .75-9.344l.669 7.677a1.52 1.52 0 0 1-.368 1.12C.764-.221.423-.027 0 0" style="fill:#231f20;fill-opacity:1;fill-rule:nonzero;stroke:none" transform="matrix(1 0 0 .99993 294.132 64.374)"/><path d="M0 0c1.863.34 3.091 2.014 2.77 3.727C2.463 5.444.689 6.551-1.154 6.195c-1.855-.335-3.098-1.998-2.77-3.718C-3.61.771-1.85-.356 0 0" style="fill:#231f20;fill-opacity:1;fill-rule:nonzero;stroke:none" transform="matrix(1 0 0 .99993 278.416 230.166)"/><path d="M0 0c1.337-1.469 4.491-.791 7.049 1.527 2.553 2.322 3.542 5.391 2.211 6.859-1.337 1.473-4.49.786-7.042-1.523C-.341 4.545-1.331 1.473 0 0" style="fill:#231f20;fill-opacity:1;fill-rule:nonzero;stroke:none" transform="matrix(1 0 0 .99993 244.362 205.191)"/><path d="M0 0c-.695-1.987-1.924-2.765-3.699-2.382l-4.504 1.018.683 3.057L-3.016.687a1.41 1.41 0 0 1 1.16.208c.368.23.6.559.696.967.096.416.014.807-.204 1.183-.233.361-.546.601-.97.674l-4.504 1.024.695 3.051 4.505-1.017C.137 6.375.915 5.138.683 3.05l6.011-1.357-.688-3.052Zm2.797-12.638-11.744 3.76-.948-2.977-1.474.464 2.866 8.933 1.46-.465-.955-2.981 11.744-3.76zm-3.563-9.433-12.841 5.241 1.187 2.901L.416-19.176zm-3.67-7.834-.71-1.392c-.491-.914-1.078-1.487-1.774-1.718-.697-.226-1.494-.098-2.402.375l.716 1.384c.089-.06.17-.096.219-.137.375-.184.729-.184 1.086 0 .34.191.599.452.778.805.259.498.327.916.211 1.256-.13.335-.411.623-.868.859-.347.18-.736.207-1.167.09l-4.776-1.248c-.867-.239-1.651-.171-2.356.191l-.681.356c-.744.389-1.248.994-1.501 1.821a2.999 2.999 0 0 0 .218 2.373l.716 1.395c.909 1.731 2.301 2.183 4.184 1.35l-.725-1.394c-.982.356-1.658.158-2.046-.593-.26-.483-.328-.907-.233-1.269.104-.367.384-.674.84-.913.349-.18.73-.212 1.181-.09l4.77 1.242c.881.225 1.672.163 2.355-.19l.688-.362c.745-.396 1.25-.989 1.496-1.81.259-.831.192-1.618-.219-2.381m-6.06-10.401-3.809 2.607c-.353.248-.736.329-1.152.248a1.524 1.524 0 0 1-.996-.651l-.881-1.274 5.09-3.488-1.779-2.579-11.432 7.841 3.535 5.158a3 3 0 0 0 1.992 1.283 2.94 2.94 0 0 0 2.315-.462l.676-.474c.572-.388.982-.962 1.242-1.717.252-.759.06-1.604-.575-2.526l.881 1.283c.24.354.575.574 1.003.656.423.081.812 0 1.159-.245l4.505-3.081zm-11.561-14.323-10.229 9.357 5.274 5.765 1.135-1.035-3.168-3.461 3.419-3.121 2.123 2.336 1.132-1.053-2.129-2.318 3.426-3.118 3.16 3.452 1.141-1.03zm-5.459-2.914c-.164-1.469-.819-2.662-1.964-3.569l-3.147-2.512-8.66 10.824 2.443 1.944 7.698-9.615 1.214.97c.334.264.519.615.56 1.05.054.416-.055.785-.314 1.12l-6.735 8.422 2.442 1.951 5.371-6.717c.901-1.117 1.262-2.409 1.092-3.868m-12.987-10.866-6.899 12.026 2.715 1.564 6.893-12.033zm-6.101-3.145-10.79 4.192 2.705-7.229-1.476-.546-4.858 12.989.668.25 10.796-4.189-2.703 7.228 1.469.544 4.865-12.986zm-15.143-4.031c-.483-.718-1.146-1.156-1.98-1.311l-3.07-.6c-.84-.158-1.61 0-2.326.483a2.913 2.913 0 0 0-1.317 1.952l-2.048 10.599 3.071.585 2.047-10.597c.081-.402.3-.731.648-.962a1.474 1.474 0 0 1 1.167-.248c.424.082.751.316.991.664.238.353.32.729.238 1.139l-2.041 10.599 3.07.588 2.042-10.592c.163-.82 0-1.59-.492-2.299m-26.97-3.455-.054 13.847 7.814.041.008-1.536-4.697-.027.027-4.619 3.154.014v-1.544l-3.14-.006.013-4.626 4.696.014v-1.537zm-3.657 3.175c-.069-.835-.438-1.531-1.093-2.091-.669-.544-1.419-.783-2.279-.709l-3.105.266a2.964 2.964 0 0 0-2.109 1.093c-.559.66-.811 1.4-.73 2.237l.662 7.679c.068.852.438 1.534 1.093 2.088a2.96 2.96 0 0 0 2.279.71l3.105-.262c.853-.073 1.549-.442 2.108-1.097.567-.661.806-1.405.738-2.245zm-13.704-1.686-3.065.612 1.229 6.048-3.05.615-1.215-6.027-3.071.615 2.771 13.585 3.058-.619-1.229-6.049 3.037-.614 1.235 6.04 3.057-.619zm-9.786 13.171-1.481.503c.225 1.017-.089 1.672-.949 1.979l-1.474.513a1.5 1.5 0 0 1-1.187-.062 1.457 1.457 0 0 1-.792-.872l-2.552-7.284a1.483 1.483 0 0 1 .075-1.179c.191-.383.485-.642.881-.778.948-.288 1.61.034 1.979.936l1.023 2.914-1.46.503.505 1.454 4.409-1.536-1.53-4.374c-.333-.962-.907-1.576-1.705-1.843-.793-.266-1.543-.28-2.253-.032l-2.947 1.035c-.805.28-1.392.805-1.774 1.577-.383.778-.431 1.572-.151 2.354l2.539 7.274c.273.794.805 1.373 1.57 1.748.777.384 1.568.425 2.388.145l2.955-1.039c1.85-.655 2.491-1.965 1.931-3.936m-17.313-4.929-3.849 10.934-3.719-6.764-1.372.764 6.694 12.141.628-.348 3.85-10.926 3.718 6.75 1.372-.745-6.687-12.153zm-13.008 8.96a3.015 3.015 0 0 0-2.286.683l-2.415 1.978a3.027 3.027 0 0 0-1.119 2.096 2.935 2.935 0 0 0 .655 2.265l4.885 5.953c.526.669 1.229 1.03 2.089 1.112.859.074 1.611-.144 2.266-.696l2.429-1.979a2.984 2.984 0 0 0 1.12-2.096c.095-.859-.124-1.609-.662-2.259l-4.88-5.972c-.532-.641-1.222-1.004-2.082-1.085m-10.557 7.924-1.911 2.251.963 7.188-4.101-3.501-2.028 2.381 10.558 8.987 2.02-2.382-4.409-3.754 7.794-.204 1.678-1.965-9.328.247zm-9.567 13.397c-.793.312-1.365.791-1.755 1.426l-1.609 2.689a3.03 3.03 0 0 0-.349 2.347c.205.839.668 1.473 1.393 1.905l6.612 3.958c.716.43 1.495.544 2.327.335.833-.199 1.475-.678 1.925-1.428l1.597-2.683c1.01-1.685.662-3.096-1.037-4.244l-.806 1.338c.819.62.989 1.329.519 2.115l-.8 1.337c-.21.362-.524.601-.948.71a1.485 1.485 0 0 1-1.173-.163l-6.606-3.958a1.472 1.472 0 0 1-.704-.954 1.519 1.519 0 0 1 .171-1.169c.56-.824 1.263-.995 2.129-.533l2.642 1.577-.792 1.323 1.323.794 2.404-4.014-3.973-2.368c-.88-.531-1.713-.642-2.49-.34m-7.261 11.382 3.82 10.939-7.123-2.955-.601 1.448 12.816 5.315.26-.668-3.809-10.94 7.125 2.963.601-1.44-12.817-5.323zm-6.061 16.625-.805 3.023a2.994 2.994 0 0 0 .301 2.354c.436.75 1.051 1.235 1.862 1.441l10.435 2.789.799-3.023-10.421-2.783a1.464 1.464 0 0 1-.929-.717 1.506 1.506 0 0 1-.164-1.172c.124-.419.362-.726.731-.95.375-.212.758-.26 1.167-.157l10.427 2.779.805-3.018-10.44-2.783c-.799-.221-1.577-.104-2.32.326-.752.442-1.229 1.065-1.448 1.891m-2.867 13.313-.217 1.558c-.137 1.03 0 1.835.437 2.429.436.585 1.16.947 2.184 1.099l.21-1.55c-.108-.014-.19-.027-.251-.027-.424-.063-.711-.267-.887-.622a1.948 1.948 0 0 1-.172-1.113c.083-.559.266-.934.56-1.133.301-.204.703-.264 1.195-.204.396.054.723.261 1.01.609l3.165 3.787c.574.695 1.249 1.098 2.035 1.207l.75.104c.833.129 1.597-.077 2.287-.602a3.043 3.043 0 0 0 1.208-2.055l.217-1.554c.273-1.939-.601-3.114-2.613-3.521l-.224 1.541c1.002.28 1.445.84 1.323 1.672-.068.547-.26.936-.56 1.175-.286.239-.702.32-1.208.253-.382-.055-.717-.262-1.003-.602l-3.166-3.795c-.587-.695-1.269-1.097-2.034-1.207l-.771-.111c-.827-.114-1.577.09-2.273.609-.682.525-1.084 1.207-1.202 2.053m6.893 56.444s6.074-2.653 8.517 1.433l1.7-1.017s-1.781-3.917-6.436-4.974c0 0 1.543-3.213-1.502-8.297l-1.834 1.104s3.971 4.708-2.382 8.511zm5.256 10.102 14.413-8.614c3.003-8.12-3.645-13.158-5.31-14.65-1.665-1.504-8.066-2.281-7.124 4.442.913 6.443 5.827 9.746 5.827 9.746l-4.947 2.946-1.18-1.979-2.403 1.433 1.262 2.123-2.401 1.433zm25.551 26.934c1.281 1.166 2.961-1.31 2.961-1.31l4.094-4.505.723.664 1.448-1.591-1.966-1.774c1.693.136 3.139-.267 4.081-1.303 2.279-2.519.594-7.78-3.78-11.746-4.368-3.972-9.773-5.138-12.059-2.62-.935 1.038-1.202 2.519-.894 4.184l-.192-.177-1.828-1.658-1.502 1.644 6.196 5.621c.028.036.055.063.075.099l-2.368 2.598 2.567 2.322 2.225-2.457c.587.505 1.2.954 1.814 1.356l2.731 2.471-4.109 4.499-11.752-10.667-1.938 2.128zm28.975 14.242 3.768.704.007-.014h.027l.238-1.288 5.514 1.017.533-2.91-2.635-.497c1.406-.717 2.402-1.897 2.676-3.343.449-2.39-1.216-4.78-3.904-5.951l.628-3.365 7.125 1.323-2.935 15.691 3.473.655 3.842-20.543-3.562-.669-.491 2.676-16.993-3.181-.424 2.267 6.314 1.18-.607 3.229c-3.03.033-5.583 1.692-6.046 4.149-.273 1.46.244 2.906 1.295 4.093l-2.156-.402-.546 2.906 5.112.957zm102.98-94.06c0-41.401-33.555-74.957-74.959-74.957-41.39 0-74.958 33.556-74.958 74.957 0 41.399 33.568 74.952 74.958 74.952 41.404 0 74.959-33.553 74.959-74.952m-65.241 96.155 8.23-1.193-.451-3.104-4.073.601-1.7-11.643 7.091-1.039 2.149 14.734 3.821-.552-.763-5.29 1.624-.244.75 5.219 3.672-.538-3.003-20.603-3.664.532 1.809 12.38-1.551.226-1.801-12.379-3.827.559.462 3.172-9.691 1.42s-1.534.307-1.486 1.206zm33.931-22.062 13.321-10.093 7.507 9.916 2.94-2.245-3.378-4.45 2.103-1.596-1.393-1.843-2.101 1.604-7.897-10.436-2.954 2.232 3.575 4.721-13.306 10.094zm3.241 4.401c.744.976 2 1.419 3.473 1.346l-1.562 1.193 1.562 1.916 3.802-2.883 1.037 1.377 3.35-2.539-.996-1.309 4.457-3.366-1.536-2.052-1.624 1.239c.465-1.397.383-2.729-.356-3.697-1.554-2.047-5.404-1.739-8.604.682-3.215 2.431-4.552 6.046-3.003 8.093m27.064-31.126 2.171-3.596-6.476-3.909.894-1.481 6.477 3.922 2.171-3.596-6.416-3.86 1.584-2.615 11.689 7.062-7.991 13.241 2.033 1.226 9.485-15.701C2.47 52.704.369 51.721.369 51.721l-11.765-7.096.511-.848-2.252-1.356-11.69 19.365 2.253 1.36 2.244-3.733zm-73.954 52.692c-55.257 0-100.052-44.808-100.052-100.06 0-55.263 44.795-100.064 100.052-100.064 55.263 0 100.058 44.801 100.058 100.064 0 55.252-44.795 100.06-100.058 100.06" style="fill:#231f20;fill-opacity:1;fill-rule:nonzero;stroke:none" transform="matrix(1 0 0 .99993 390.37 130.62)"/><path d="M0 0c-1.583-2.656-1.733-5.48-.328-6.32 1.392-.84 3.823.635 5.406 3.289 1.582 2.661 1.726 5.488.328 6.32C3.999 4.121 1.583 2.647 0 0" style="fill:#231f20;fill-opacity:1;fill-rule:nonzero;stroke:none" transform="matrix(1 0 0 .99993 226.093 184.897)"/></g></svg>