<svg xmlns="http://www.w3.org/2000/svg" xml:space="preserve" width="493.75134" height="496.17908" viewBox="0 0 493.75134 496.17908"><g transform="matrix(1.33333 0 0 -1.33333 -232.622 1025.53)"><circle cx="361.569" cy="-590.03772" r="137.3555" style="fill:#fff;stroke-width:28.3465" transform="scale(1 -1)"/><g style="stroke-width:.209963"><path d="M213.627 474.078c-20.799 0-37.66-16.944-37.66-37.847 0-20.9 16.861-37.845 37.66-37.845 20.804 0 37.663 16.944 37.663 37.845 0 20.903-16.86 37.847-37.663 37.847m.075-59.918c-12.13 0-21.963 9.883-21.963 22.071 0 12.191 9.834 22.072 21.963 22.072 12.13 0 21.962-9.88 21.962-22.072 0-12.188-9.832-22.07-21.962-22.07" style="fill:#a50f51;fill-opacity:1;fill-rule:nonzero;stroke:none;stroke-width:.209963" transform="translate(-656.475 -1493.86) scale(4.76275)"/><path d="M174.467 436.081c0-21.543 17.439-39.068 38.875-39.068 21.437 0 38.877 17.525 38.877 39.068 0 21.54-17.44 39.066-38.877 39.066-21.436 0-38.875-17.525-38.875-39.066m1.632 0c0 20.637 16.706 37.425 37.243 37.425 20.534 0 37.244-16.788 37.244-37.425 0-20.638-16.71-37.429-37.244-37.429-20.537 0-37.243 16.791-37.243 37.43" style="fill:#b6a56c;fill-opacity:1;fill-rule:nonzero;stroke:none;stroke-width:.209963" transform="translate(-656.475 -1493.86) scale(4.76275)"/><path d="M177.234 436.013c0-20.105 16.28-36.462 36.285-36.462 20.01 0 36.29 16.357 36.29 36.462 0 20.108-16.28 36.464-36.29 36.464-20.006 0-36.285-16.356-36.285-36.464m.327 0c0 19.927 16.132 36.136 35.959 36.136 19.828 0 35.961-16.209 35.961-36.136 0-19.925-16.133-36.136-35.962-36.136-19.826 0-35.958 16.21-35.958 36.136" style="fill:#b6a56c;fill-opacity:1;fill-rule:nonzero;stroke:none;stroke-width:.209963" transform="translate(-656.475 -1493.86) scale(4.76275)"/><path d="M190.345 428.898c-1.403.519-2.147 2.027-2.147 2.027s1.006-2.97 3.825-4.587M235.446 428.898c1.404.519 2.15 2.027 2.15 2.027s-1.009-2.97-3.828-4.587" style="fill:#b0a885;fill-opacity:1;fill-rule:nonzero;stroke:none;stroke-width:.209963" transform="translate(-656.475 -1493.86) scale(4.76275)"/><path d="M189.807 435.916c-.291-1.456.344-3.62 1.143-4.86a16.01 16.01 0 0 1 1.491-1.937c.511-.574 1.218-.75 1.682-1.153-.636 1.523-.6 3.116-1.481 4.574-.574.951-2.848 2.408-2.767 3.441" style="fill:#b6a56c;fill-opacity:1;fill-rule:nonzero;stroke:none;stroke-width:.209963" transform="translate(-656.475 -1493.86) scale(4.76275)"/><path d="M188.198 430.925s1.006-2.97 3.825-4.587c2.818-1.618 5.034-2.09 5.034-2.09s.938-.134 1.477-.675c.534-.54.265.27.265.27s-1.341 1.348-1.475 2.157c-.135.811-.47 1.552-.806 3.978-.336 2.43-2.617 4.116-2.617 4.116s.615-.975.605-1.822c-.26-1.002.134-2.899.335-3.303.202-.405.336-1.349 1.341-3.035 1.007-1.686-.27-.203-.27-.203s-3.286 2.497-5.567 3.167c-2.017.889-2.147 2.027-2.147 2.027" style="fill:#b6a56c;fill-opacity:1;fill-rule:nonzero;stroke:none;stroke-width:.209963" transform="translate(-656.475 -1493.86) scale(4.76275)"/><path d="M191.8 425.009s1.053-.956 2.153-1.359c1.105-.402 2.456-.554 4.258-.603 1.805-.05 2.657-.452 2.657-.452s-.602.452-1.352 1.712c-.752 1.256-.825 1.311-1.004 1.962-.19.607-.6 1.862-.6 1.862s4.508-4.28 5.51-5.184c1.003-.907 1.36-.807 1.855-1.007.634-.171 1.05-.104 1.05-.104l-.049-.601s-1.703.401-2.653.401c-.954 0-2.206-1.008-3.71-1.058-1.5-.048-2.952.423-3.806.757-.857.334-2.757 1.662-2.757 1.662s-1.204.956-1.603 1.61c-.4.654.051.402.051.402" style="fill:#b6a56c;fill-opacity:1;fill-rule:nonzero;stroke:none;stroke-width:.209963" transform="translate(-656.475 -1493.86) scale(4.76275)"/><path d="M195.614 420.587s1.507-1.3 4.45-1.3c2.943 0 5.456 1.515 6.746 1.948 1.292.433 2.084.363 3.014.29.936-.074 6.03-1.082 9.475-5.771.215-.07-.86-1.154-.86-1.154s-2.44 3.896-5.671 5.336c-1.292-.071-4.88-4.252-5.74-5.336-.218 0-.791 1.154-.791 1.154l5.167 4.833s-1.434.215-2.728-.144c-1.293-.361-2.839-1.883-4.161-2.38-1.01-.34-5.383-2.02-8.9 2.524M235.984 435.916c.29-1.456-.344-3.62-1.143-4.86-.43-.672-.95-1.33-1.491-1.937-.512-.574-1.216-.75-1.682-1.153.638 1.523.6 3.116 1.48 4.574.574.951 2.85 2.408 2.768 3.441" style="fill:#b6a56c;fill-opacity:1;fill-rule:nonzero;stroke:none;stroke-width:.209963" transform="translate(-656.475 -1493.86) scale(4.76275)"/><path d="M237.595 430.925s-1.008-2.97-3.827-4.587c-2.82-1.618-5.032-2.09-5.032-2.09s-.941-.134-1.477-.675c-.537-.54-.268.27-.268.27s1.343 1.348 1.476 2.157c.136.811.47 1.552.806 3.978.335 2.43 2.617 4.116 2.617 4.116s-.613-.975-.604-1.822c.258-1.002-.136-2.899-.337-3.303-.201-.405-.333-1.349-1.341-3.035-1.006-1.686.267-.203.267-.203s3.29 2.497 5.571 3.167c2.016.889 2.15 2.027 2.15 2.027" style="fill:#b6a56c;fill-opacity:1;fill-rule:nonzero;stroke:none;stroke-width:.209963" transform="translate(-656.475 -1493.86) scale(4.76275)"/><path d="M233.99 425.009s-1.05-.956-2.152-1.359c-1.103-.402-2.456-.554-4.258-.603-1.806-.05-2.66-.452-2.66-.452s.605.452 1.355 1.712c.752 1.256.824 1.311 1.004 1.962.19.607.6 1.862.6 1.862s-4.508-4.28-5.51-5.184c-1.002-.907-1.36-.807-1.854-1.007-.634-.171-1.05-.104-1.05-.104l.048-.601s1.7.401 2.655.401c.95 0 2.202-1.008 3.706-1.058 1.503-.048 2.954.423 3.807.757.857.334 2.755 1.662 2.755 1.662s1.204.956 1.605 1.61c.399.654-.051.402-.051.402" style="fill:#b6a56c;fill-opacity:1;fill-rule:nonzero;stroke:none;stroke-width:.209963" transform="translate(-656.475 -1493.86) scale(4.76275)"/><path d="M230.177 420.587s-1.508-1.3-4.452-1.3c-2.942 0-5.454 1.515-6.747 1.948-1.292.433-2.08.363-3.013.29-.933-.074-6.029-1.082-9.473-5.771-.215-.07.862-1.154.862-1.154s2.438 3.896 5.67 5.336c1.291-.071 4.881-4.252 5.741-5.336.213 0 .788 1.154.788 1.154l-5.167 4.833s1.434.215 2.726-.144c1.296-.361 2.84-1.883 4.164-2.38 1.01-.34 5.385-2.02 8.901 2.524M190.282 439.163l.324-.041c1.492 11.499 11.334 20.172 22.893 20.172 11.534 0 21.373-8.65 22.887-20.122l.323.043c-1.535 11.635-11.514 20.408-23.21 20.408-11.722 0-21.704-8.799-23.217-20.46" style="fill:#b6a56c;fill-opacity:1;fill-rule:nonzero;stroke:none;stroke-width:.209963" transform="translate(-656.475 -1493.86) scale(4.76275)"/><path d="m191.19 439.298 1.453-.206c1.456 10.326 10.394 18.114 20.787 18.114 10.41 0 19.348-7.799 20.79-18.14l1.454.207c-1.543 11.063-11.11 19.41-22.244 19.41-11.121 0-20.683-8.334-22.24-19.385" style="fill:#b6a56c;fill-opacity:1;fill-rule:nonzero;stroke:none;stroke-width:.209963" transform="translate(-656.475 -1493.86) scale(4.76275)"/><path d="M204.744 443.085h7.195v2.287h3.475v-2.167h7.314v-7.248h-3.598v3.874h-1.003v-3.869h-3.777v3.903h-.978v-3.903h-3.778v3.938h-1.017v-3.867h-3.778zM208.746 431.153v-4.297h-1.186v2.816a3.572 3.572 0 0 0-.551-.35 4.26 4.26 0 0 0-.672-.258v.952c.397.13.704.284.925.465.217.184.39.408.517.672zM210.072 427.807l1.164.148c.03-.164.081-.281.153-.35a.377.377 0 0 1 .267-.1c.188 0 .334.094.438.286.074.143.133.439.171.89a1.401 1.401 0 0 0-.43-.316 1.187 1.187 0 0 0-.511-.1c-.377 0-.695.133-.956.403-.257.27-.387.606-.387 1.018 0 .282.064.537.2.768.129.231.311.405.542.523.233.12.525.176.873.176.423 0 .76-.071 1.014-.218.255-.142.459-.374.61-.689.152-.317.229-.735.229-1.253 0-.76-.159-1.32-.479-1.674-.318-.355-.762-.53-1.33-.53-.333 0-.598.038-.79.115-.194.077-.354.19-.482.342-.13.149-.228.336-.296.56m2.152 1.886c0 .23-.057.41-.172.54a.548.548 0 0 1-.42.196.479.479 0 0 1-.384-.179c-.105-.117-.155-.293-.155-.526 0-.238.052-.42.159-.544a.5.5 0 0 1 .397-.187c.164 0 .302.06.41.181.109.12.165.295.165.519M213.991 427.807l1.164.148c.03-.164.084-.281.155-.35a.374.374 0 0 1 .266-.1c.187 0 .33.094.438.286.077.143.133.439.173.89a1.442 1.442 0 0 0-.432-.316 1.184 1.184 0 0 0-.51-.1c-.38 0-.697.133-.955.403-.26.27-.39.606-.39 1.018 0 .282.069.537.197.768.133.231.314.405.548.523.23.12.52.176.873.176.42 0 .758-.071 1.014-.218.253-.142.456-.374.608-.689.154-.317.23-.735.23-1.253 0-.76-.16-1.32-.48-1.674-.32-.355-.763-.53-1.33-.53-.334 0-.598.038-.791.115-.191.077-.354.19-.48.342-.13.149-.23.336-.298.56m2.15 1.886c0 .23-.057.41-.171.54a.54.54 0 0 1-.418.196.484.484 0 0 1-.386-.179c-.101-.117-.154-.293-.154-.526 0-.238.054-.42.162-.544a.496.496 0 0 1 .394-.187c.164 0 .302.06.411.181.108.12.163.295.163.519M217.881 431.082h3.408v-.794a4.3 4.3 0 0 1-.745-.873 5.066 5.066 0 0 1-.571-1.27 5.96 5.96 0 0 1-.225-1.289h-1.164c.092.692.237 1.27.434 1.736.195.465.507.964.933 1.496h-2.07zM208.884 409.72a5.514 5.514 0 0 0 7.552 2.034c2.645-1.535 3.55-4.932 2.025-7.59a2.786 2.786 0 0 1-1.013 3.797 2.758 2.758 0 0 1-3.777-1.02 2.755 2.755 0 0 0-3.773-1.014 2.787 2.787 0 0 0-1.014 3.794" style="fill:#a50f51;fill-opacity:1;fill-rule:nonzero;stroke:none;stroke-width:.209963" transform="translate(-656.475 -1493.86) scale(4.76275)"/><path d="M209.443 409.493a2.781 2.781 0 0 1 1.192-3.738 2.756 2.756 0 0 1 3.723 1.194 2.76 2.76 0 0 0 3.723 1.201 2.785 2.785 0 0 0 1.192-3.74 5.518 5.518 0 0 0-7.445-2.4c-2.716 1.406-3.784 4.755-2.385 7.483" style="fill:#fff;fill-opacity:1;fill-rule:nonzero;stroke:none;stroke-width:.209963" transform="translate(-656.475 -1493.86) scale(4.76275)"/><path d="m209.298 409.57-.004-.016a5.735 5.735 0 0 1 2.459-7.69c2.79-1.443 6.231-.333 7.668 2.471.355.697.42 1.494.183 2.242a2.901 2.901 0 0 1-1.45 1.717 2.876 2.876 0 0 1-2.228.187 2.929 2.929 0 0 1-1.714-1.454 2.571 2.571 0 0 0-1.517-1.293 2.568 2.568 0 0 0-1.984.164 2.626 2.626 0 0 0-1.124 3.52l-.289.151m2.606-7.413c-1.766.913-2.812 2.683-2.905 4.546-.013.287.039.574.071.863.187-.815.696-1.545 1.492-1.956a2.888 2.888 0 0 1 2.231-.19c.746.241 1.353.76 1.71 1.457a2.59 2.59 0 0 0 3.504 1.127 2.615 2.615 0 0 0 1.123-3.518c-1.355-2.644-4.596-3.688-7.226-2.329" style="fill:#fff;fill-opacity:1;fill-rule:nonzero;stroke:none;stroke-width:.209963" transform="translate(-656.475 -1493.86) scale(4.76275)"/><path d="M209.298 409.57a2.948 2.948 0 0 1 1.263-3.96 2.888 2.888 0 0 1 2.232-.19c.745.24 1.353.759 1.71 1.456a2.59 2.59 0 0 0 3.503 1.127 2.592 2.592 0 0 0 1.287-1.524c.07-.226.112-.45.122-.68a2.495 2.495 0 0 0-.057-.667c-.076-.215-.123-.438-.23-.647l.293-.15c.12.233.205.481.258.73.246.705.396 1.433.361 2.152a5.727 5.727 0 0 1-3.078 4.822c-2.788 1.44-6.226.332-7.664-2.47m10.35-3.23c-.02.078-.02.159-.045.238a2.901 2.901 0 0 1-1.449 1.717 2.876 2.876 0 0 1-2.229.187 2.929 2.929 0 0 1-1.714-1.454 2.571 2.571 0 0 0-1.517-1.293 2.568 2.568 0 0 0-1.984.164 2.615 2.615 0 0 0-1.407 2.202c-.021.443.068.896.284 1.318 1.354 2.644 4.598 3.688 7.226 2.326a5.395 5.395 0 0 0 2.904-4.542c.013-.288-.038-.576-.07-.863M182.42 442.22c-.312.037-.556.005-.732-.102-.17-.102-.275-.265-.31-.493-.037-.242.004-.44.12-.597.122-.161.31-.258.562-.298.25-.038.443 0 .582.118.107.088.234.287.386.598.1.215.216.408.344.58.162.207.336.364.515.476.138.087.292.145.469.176.16.022.326.017.502-.009.5-.08.888-.296 1.156-.653.273-.355.366-.776.294-1.258-.072-.448-.273-.79-.61-1.025-.352-.246-.804-.34-1.359-.285l.156 1.004c.255-.024.45.005.59.094.131.082.209.212.237.389.03.199-.003.356-.103.478-.101.124-.257.204-.474.238-.08.01-.148.016-.197.013a.326.326 0 0 1-.158-.067.855.855 0 0 1-.219-.252 4.409 4.409 0 0 1-.178-.357l-.179-.36c-.201-.356-.458-.614-.78-.776a1.646 1.646 0 0 0-1.058-.16c-.55.089-.974.322-1.276.71-.312.387-.427.843-.345 1.367.081.502.318.888.721 1.148.41.27.906.364 1.496.27l-.152-.966zM185.887 437.44l-3.659.062c-.456.005-.77-.043-.938-.146-.194-.12-.291-.353-.298-.7-.003-.315.087-.533.273-.654.171-.107.484-.167.938-.174l3.657-.06-.018-1.07-3.652.06c-.338.004-.606.029-.798.066-.26.044-.48.13-.662.256a1.753 1.753 0 0 0-.59.674 1.923 1.923 0 0 0-.193.904c.005.365.077.685.213.952.137.273.345.5.623.686.2.135.437.22.708.255.157.017.411.026.763.017l3.65-.058zM180.147 433.135l5.737.988.174-1.008-3.356-3.111 3.78.65.18-1.04-5.738-.988-.165.962 3.455 3.163-3.886-.67zM186.33 422.688c-.91-.312-1.74-.317-2.492-.015-.735.303-1.252.84-1.56 1.612a2.907 2.907 0 0 0-.203 1.218c.024.412.132.813.32 1.202.171.327.396.612.672.858.285.252.607.445.964.588.382.15.768.224 1.165.217a2.984 2.984 0 0 0 1.167-.261c.363-.16.675-.374.937-.648.257-.276.464-.613.622-1.008.22-.552.27-1.089.163-1.616-.112-.531-.395-1.027-.846-1.491l-.466 1.17c.16.271.254.539.269.795.018.26-.029.529-.14.808a1.795 1.795 0 0 1-.378.6 1.69 1.69 0 0 1-.594.397 1.91 1.91 0 0 1-.754.162c-.257 0-.508-.047-.749-.142a2.255 2.255 0 0 1-.669-.405 1.815 1.815 0 0 1-.434-.6 1.907 1.907 0 0 1-.179-.733c-.01-.25.03-.488.121-.718.137-.349.338-.615.6-.81.276-.196.61-.304 1-.324l-.67 1.691.974.384zM189.363 422.945l-2.588-3.13 3.767 1.437.46-.664-2.658-3.01 3.828 1.331.62-.893-5.77-1.899-.533.766 2.572 2.848-3.58-1.398-.523.76 3.787 4.745zM191.2 414.65a1.89 1.89 0 0 1 .465-2.058c.404-.364.871-.527 1.394-.486.521.04.974.27 1.36.698a1.915 1.915 0 0 1 .475 1.31c0 .298-.05.55-.141.767a1.96 1.96 0 0 1-.465.617 1.875 1.875 0 0 1-.61.371c-.222.08-.46.111-.7.09a1.914 1.914 0 0 1-.75-.19 2.04 2.04 0 0 1-.609-.457 2.245 2.245 0 0 1-.42-.662m.563 2.106c.353.174.74.27 1.153.287.395.014.77-.04 1.118-.162.36-.136.684-.333.976-.596a2.918 2.918 0 0 0 .98-2.028 3.134 3.134 0 0 0-.161-1.17 2.887 2.887 0 0 0-.604-1.023 3.12 3.12 0 0 0-.916-.704 2.93 2.93 0 0 0-1.055-.315 3.33 3.33 0 0 0-1.233.138 2.89 2.89 0 0 0-1.065.62c-.321.289-.559.62-.724 1.005-.162.38-.242.785-.242 1.221.008.365.082.721.221 1.062.142.353.344.672.602.959.275.3.59.538.95.706zM196.59 410.299c-.036-.253-.024-.501.04-.744.064-.25.17-.48.325-.679.146-.201.327-.362.545-.482.475-.269.964-.326 1.467-.168.5.151.89.478 1.173.98.12.21.19.432.216.666.032.233.018.472-.045.715-.064.288-.166.53-.307.717a1.776 1.776 0 0 1-.588.496c-.22.127-.447.204-.675.234-.237.025-.47.005-.705-.07a1.884 1.884 0 0 1-.688-.35 1.934 1.934 0 0 1-.494-.58 2.344 2.344 0 0 1-.264-.735m.086 2.176c.308.25.662.424 1.063.534.381.097.756.13 1.124.087a3.073 3.073 0 0 0 1.965-1.106c.237-.298.412-.636.524-1.022.11-.396.144-.786.098-1.18a2.961 2.961 0 0 0-.361-1.126c-.2-.35-.444-.646-.739-.891a3.047 3.047 0 0 0-.962-.54 3.17 3.17 0 0 0-1.232-.136c-.41.038-.805.16-1.176.373-.373.21-.682.482-.929.815-.24.34-.409.716-.505 1.139-.07.358-.077.723-.019 1.086.063.374.187.73.38 1.07.202.353.458.653.77.897zM201.14 405.52l1.746 5.552.977-.306 1.232-4.41 1.154 3.657 1.005-.318-1.75-5.55-.932.295-1.229 4.516-1.184-3.759zM222.693 410.778l1.364-3.396c.172-.425.339-.696.501-.812.183-.13.436-.13.759 0 .292.118.458.286.495.507.034.198-.033.509-.202.93l-1.362 3.395.99.397 1.364-3.386c.125-.32.208-.572.248-.765a1.6 1.6 0 0 0 .02-.708 1.786 1.786 0 0 0-.392-.805 1.9 1.9 0 0 0-.76-.53 2.155 2.155 0 0 0-.956-.171c-.308.02-.598.122-.877.308-.202.132-.37.314-.508.552a7 7 0 0 0-.315.697l-1.36 3.388zM229.325 407.352l-3.155 4.89.858.554 4.18-1.87-2.08 3.222.886.575 3.157-4.892-.822-.53-4.26 1.941 2.133-3.312zM234.666 411.11l-3.821 4.393.809.702 3.82-4.394zM238.027 414.374l-5.812 2.204.752.857 3.83-1.533-2.01 3.601.74.844 2.943-5.472zM240.756 417.804l-4.94 3.076 1.674 2.69.852-.527-1.112-1.784 1.188-.74 1.109 1.788.846-.527-1.111-1.785 1.187-.738 1.111 1.784.875-.544zM239.857 425.971c-.17-.098-.327-.317-.473-.654l-.184-.444 1.457-.615.18.42c.145.348.195.617.15.81-.043.198-.196.355-.46.467-.274.112-.495.12-.67.016m1.884.258a1.97 1.97 0 0 0 .232-1.15l2.837.684-.521-1.231-2.685-.606-.023-.058 2.06-.87-.41-.973-5.365 2.266.557 1.309c.13.314.236.544.32.682.13.219.279.388.444.504.224.177.493.277.81.304a1.78 1.78 0 0 0 .898-.128 1.73 1.73 0 0 0 .846-.733zM243.575 428.332c.312-.065.559-.05.741.039.18.088.294.246.351.468.058.237.034.44-.072.606-.108.167-.285.28-.533.339-.247.063-.444.041-.59-.068-.111-.076-.257-.264-.435-.562a2.84 2.84 0 0 0-.393-.55 1.968 1.968 0 0 0-.55-.432 1.277 1.277 0 0 0-.48-.136c-.16-.008-.327.01-.502.05-.493.121-.863.37-1.1.746-.239.377-.3.805-.185 1.28.104.438.341.765.692.97.372.216.829.273 1.375.172l-.238-.986c-.25.043-.45.03-.594-.047a.54.54 0 0 1-.269-.367c-.045-.191-.026-.356.063-.486.088-.132.241-.223.453-.275a.954.954 0 0 1 .196-.033.401.401 0 0 1 .163.056.857.857 0 0 1 .238.233c.05.068.115.18.208.341l.207.343c.232.337.51.576.84.71.328.14.688.163 1.074.072.538-.131.941-.402 1.208-.811.279-.416.353-.879.23-1.396-.12-.493-.391-.856-.814-1.085-.43-.235-.932-.281-1.513-.143zM246.224 432.073l-5.783.685.128 1.062 5.778-.685zM246.507 435.764l-4.811.078-.019-1.13-1.005.015.052 3.331 1.008-.015-.02-1.14 4.815-.077zM246.072 441.998l.16-1.058-2.124-.316-3.367-2.315-.18 1.189 2.296 1.494-2.629.741-.177 1.179 3.946-1.226zM188.87 449.365a1.13 1.13 0 0 1 .584-.628c.283-.135.566-.159.856-.068a.99.99 0 0 1 .632.544.94.94 0 0 1 .02.805c-.113.278-.31.485-.59.62-.277.136-.56.157-.85.076a.956.956 0 0 1-.621-.518c-.131-.27-.14-.549-.03-.831m-1.037-.448a2.22 2.22 0 0 0 .114 1.73c.272.563.699.95 1.278 1.16a2.116 2.116 0 0 0 1.69-.087 2.06 2.06 0 0 0 1.094-1.258 2.218 2.218 0 0 0-.12-1.718 2.251 2.251 0 0 0-1.272-1.17c-.581-.214-1.137-.196-1.672.063-.545.265-.917.69-1.111 1.28m-1.943 4.533-.933.45.528 1.091 3.467-1.674-.528-1.089-1.583.763-.645-1.338-.95.46.644 1.337m-1.845-4.275 1.713-2.475-.534-1.11-2.517 3.645.46.952 4.416.297-.541-1.128zM216.07 466.746l-.976-.015.08-4.884-1.212-.02-.133 8.208 1.21.019.038-2.267.978.015-.037 2.266 1.209.021.134-8.207-1.21-.02-.082 4.884m-6.027-.45 2.871.046.015-1.054-4.082-.065-.077 4.73 4.081.063.018-1.054-2.872-.045zM233.008 461.178l-.937-1.489-1.024.646 2.05 3.257 1.026-.644-.55-.878.744-.468-.564-.893-.745.47m-5.112 3.87a.944.944 0 0 1-.594-.432.916.916 0 0 1-.124-.725.903.903 0 0 1 .409-.596.835.835 0 0 1 .696-.1c.255.066.449.212.59.433a.96.96 0 0 1 .13.725.878.878 0 0 1-.4.588.882.882 0 0 1-.707.107m-1.294.635c.11.112.238.202.382.277l-.574.363.562.891 1.72-1.082.365.58 1.025-.648-.366-.577 1.636-1.03-.558-.895-.597.376a1.543 1.543 0 0 0-.07-.483 2.182 2.182 0 0 0-.222-.458c-.296-.474-.732-.766-1.306-.875a2.136 2.136 0 0 0-1.607.301c-.497.311-.81.75-.946 1.312-.132.565-.05 1.085.246 1.557.095.15.197.28.31.39m3.15-9.684-1.027.647 1.303 2.067-5.856 3.685.562.893 6.881-4.331zM197.921 460.26l-3.13-1.973-.564.9 7.289 4.593.566-.897-3.128-1.973.565-.897-1.034-.65z" style="fill:#fff;fill-opacity:1;fill-rule:nonzero;stroke:none;stroke-width:.209963" transform="translate(-656.475 -1493.86) scale(4.76275)"/><path d="m197.03 457.397 5.894 3.716.566-.9-6.9-4.348-1.32 2.096 1.008.635zM195.349 463.775c-.099-.327-.061-.621.105-.884.164-.265.418-.424.754-.478.331-.057.655.018.968.217.3.185.495.441.584.761.09.324.052.616-.114.881a1.063 1.063 0 0 1-.744.484 1.299 1.299 0 0 1-.942-.196c-.314-.2-.517-.458-.611-.785m-1.162.06c.218.618.633 1.122 1.24 1.503.608.385 1.243.544 1.904.477.659-.065 1.143-.338 1.444-.822.302-.481.344-1.036.121-1.663-.221-.63-.639-1.135-1.246-1.521-.61-.383-1.241-.538-1.897-.461-.656.075-1.137.355-1.438.835-.306.482-.35 1.032-.128 1.653zM239.565 448.902l-2.056-.997-.845 1.74 2.06.997-.526 1.089-2.06-.997-.77 1.583-.95-.458 3.659-7.546.947.46-.986 2.042 2.054.996zM245.244 447.982l-3.546 7.315-.947-.46 3.016-6.224-2.758-1.336v.002l-.9-.449.539-1.085.679.338 3.917 1.899z" style="fill:#fff;fill-opacity:1;fill-rule:nonzero;stroke:none;stroke-width:.209963" transform="translate(-656.475 -1493.86) scale(4.76275)"/></g></g></svg>