<svg xmlns="http://www.w3.org/2000/svg" width="207.96223mm" height="207.96223mm" viewBox="0 0 207.96223 207.96223"><defs><clipPath id="a" clipPathUnits="userSpaceOnUse"><path d="M36.73 496.59h121.84v120.47H36.73Z"/></clipPath></defs><g transform="translate(0 -42.34)"><circle cx="103.98112" cy="146.32076" r="103.98112" style="fill:#f9f9f9;fill-opacity:1;stroke:#fff;stroke-width:0"/><g style="fill:#06ab4d;fill-opacity:1"><path d="m239.362 186.203-1.13-.556 1.613-.403zm.666-1.344-2.168.528-.134.265 1.534.754-.18.358.42.208.18-.359.506.25.102-.204-.506-.25.674-1.339zM236.658 184.582c-.019.135-.098.237-.239.307-.152.08-.344.103-.575.073-.23-.033-.409-.106-.534-.223-.12-.106-.17-.226-.152-.36.018-.13.1-.232.245-.306.152-.076.343-.097.574-.066.231.031.41.104.534.217.116.109.165.229.147.358m.092-.55a1.899 1.899 0 0 0-.756-.257c-.353-.048-.656-.02-.91.082-.252.105-.392.256-.42.455-.028.198.056.383.252.552.203.178.476.29.82.336.333.045.643.008.932-.112-.004.036-.009.067-.013.093a.635.635 0 0 1-.25.424c-.173.13-.4.175-.679.137a1.19 1.19 0 0 1-.474-.166c-.138-.087-.21-.183-.22-.287l-.475-.065c.006.177.123.338.352.482.22.139.484.23.793.272.284.039.54.024.768-.045.208-.061.373-.166.497-.309s.204-.342.239-.593c.03-.222.014-.403-.05-.545a.998.998 0 0 0-.406-.454M232.91 184.674c-.13.113-.31.182-.541.207-.232.025-.422-.005-.572-.088-.142-.074-.22-.178-.235-.312-.015-.131.038-.25.161-.355.129-.11.309-.178.54-.202.233-.025.424.002.572.082.14.078.217.182.231.314.015.134-.038.252-.156.354m.615-.567a1.016 1.016 0 0 0-.505-.344 1.907 1.907 0 0 0-.797-.068c-.354.037-.641.137-.86.298-.22.16-.32.342-.298.541.022.2.148.359.38.476.24.123.533.166.877.13.334-.036.627-.148.878-.333l.01.093a.633.633 0 0 1-.14.471c-.135.168-.343.266-.625.296-.179.02-.345.004-.5-.047-.155-.051-.25-.127-.283-.226l-.477.052c.05.17.201.297.458.382.248.083.526.108.838.074.285-.03.53-.106.734-.228.186-.109.32-.248.405-.419.086-.17.115-.38.087-.632-.025-.222-.085-.395-.182-.516M228.9 184.622c.035.13-.017.26-.16.387a1.77 1.77 0 0 1-.528.314l.081.197.74-.298.577 1.405.445-.178-.81-1.967zM218.38 204.827l-1.37.125.377.829 1-.942-.003-.005zM244.076 182.786c.115.082.23.142.345.178.116.037.205.012.267-.077.061-.086.055-.178-.017-.275a1.254 1.254 0 0 0-.286-.272 1.28 1.28 0 0 0-.348-.177c-.118-.037-.208-.013-.268.073-.06.087-.055.179.02.278.073.098.168.189.287.272M224.964 183.474c-.198.083-.405.2-.623.355-.22.157-.4.314-.538.47-.14.157-.166.295-.082.413.082.116.221.133.418.052.197-.081.402-.198.617-.35.223-.16.404-.318.544-.476.14-.158.17-.295.088-.41-.084-.118-.226-.136-.424-.054M242.196 213.323c-.231-.155-.491-.163-.779-.027-.291.138-.45.345-.476.622-.027.277.022.546.146.809.125.262.303.47.534.625.23.155.492.163.782.025.288-.136.446-.343.473-.62a1.529 1.529 0 0 0-.147-.809 1.528 1.528 0 0 0-.533-.625" style="fill:#06ab4d;fill-opacity:1;fill-rule:nonzero;stroke:none;stroke-width:.352778" transform="translate(-990.996 -780.723) scale(4.67732)"/><g clip-path="url(#a)" style="fill:#06ab4d;fill-opacity:1" transform="matrix(1.65006 0 0 -1.65006 -57.101 1064.179)"><path d="M149.66 558.68c1.01 0 1.83-.82 1.83-1.84 0-1.01-.82-1.83-1.83-1.83a1.835 1.835 0 1 0 0 3.67M45.62 558.68a1.835 1.835 0 1 0 .01-3.67 1.835 1.835 0 0 0-.01 3.67M125.01 589.66c-6.62 5.4-14.9 8.88-23.98 9.58l.26 2.83 1.55-.01.06 12.48.19 2.28a61.027 61.027 0 0 0 33.31-13.51l-1.91-1.87-1.33.95-4.4-6.22 1.33-.941-.28-.399-7.51 5.31-.77-1.09 6.19-4.37-1.75-2.47 1.33-.94zm2.26 8.46c.65-.05 1.16.19 1.54.73.37.51.42 1.07.15 1.67-.27.6-.77 1.16-1.5 1.68s-1.42.8-2.06.86c-.65.06-1.16-.19-1.54-.73-.38-.53-.44-1.09-.17-1.69.26-.59.77-1.15 1.5-1.67.74-.52 1.43-.8 2.08-.85m.81 7.66-.65-.92 2.63-1.85.64.91zm3.32-4.34-6.07 4.289-.69-.969 6.07-4.29zM97.4 532.36s2.06 4.42 5.68 7.24c.87.68 1.77 1.51 2.69 2.35-.82.26-1.31.74-1.65 1.01-.63.5.26 1.88.89 2.38.44.35.63 1.47 1.37 2.25.34.36.78.65 1.42.76 2.03.38 2.67 1.89 3.18 2.64.5.75 2.41 4.02 3.81 5.02 1.39 1 1.01 1.63 1.26 2.76.26 1.13 1.4 3.89 1.65 4.52.26.63 1.15 1.76 1.78 1.88.05.01.11.01.16.01.69 0 1.87-.64 1.87-.64.13-1.38 1.65-2.63 1.78-3.39.12-.75-1.27-1.63-1.65-3.01-.38-1.37.38-3.51.25-4.39-.13-.88-.63-.88-.76-2.13-.13-1.26-1.65-1.01-1.4-2.26.26-1.26-.63-1.26-1.39-1.51-.76-.25-.51-1.25-1.15-1.25-.45 0-.52-.51-.83-1.02.52-.98.57-2.18.53-3.01l-2.19.02c0 .43-.12.85-.4 1.22-.08.11-.17.21-.28.31-.74.66-2.28-.26-3.73-1.5-.6-.51-1.19-1.08-1.69-1.61-1.72-1.78-6.86-6.3-8-8.28-.28-.49-.53-.95-.75-1.39z" style="fill:#06ab4d;fill-opacity:1;fill-rule:nonzero;stroke:none"/><path d="m71.58 599.61 1.32.94-4.44 6.26-2.4 1.53c9.21 5.53 20.03 8.72 31.59 8.72 1.83 0 3.65-.08 5.44-.24l-.19-2.28-1.55.01-.03-5.46h-1.12l.03 5.1h-1.56l-.06-11.63 1.56-.01.02 5.07 1.12-.01-.02-5.54-.26-2.83c-1.12.09-2.24.13-3.38.13-8.54 0-16.49-2.46-23.19-6.7l-2.52 1.53c.86.61 1.59 1.33 2.19 2.17.6.83.63 1.64.08 2.41-.54.76-1.31 1-2.29.7-.09-.03-.18-.05-.26-.09zm26.71 5.21-.3 1.44c-.37-.13-.91-.25-1.63-.38-.73-.12-1.42-.18-2.08-.17l.02 5.65 3.03-.01.01 1.47-4.65.02-.05-8.61c1.49-.01 2.69.06 3.62.2.92.14 1.6.27 2.03.39M62.3 553.63c.09 0 .17-.01.26-.01-.01.36-.03.72-.03 1.09 0 19.2 15.74 34.76 35.16 34.76 19.42 0 35.17-15.56 35.17-34.76 0-.35-.02-.69-.03-1.04l-2.31.08c.25 8.66-3.04 13.93-3.04 13.93s-2.29-.75-3.3-.88c-.59-.07-2.12.4-3.45.89-.96.35-1.82.71-2.14.87-.76.38-2.28 5.52-2.28 6.27s-.26 2.01.38 2.26c.63.25 1.77 1.38.5 1.38-1.26 0-2.15 0-2.4-.5-.26-.5-.64-1.63-2.67-2.76s-4.95-2.38-5.84-2.64c-.89-.25-1.27-.62-1.27-1.75s-.63-2.76-2.28-3.64c-1.65-.88-2.54-1.26-2.41-2.64.12-1.38 2.41-2.76 3.42-5.39 1.02-2.64.26-6.4 1.4-4.77 1.14 1.63.38-1.25.63-1.88.26-.63.76-3.01 0-3.77-.19-.19-.51-.5-.91-.87-1.19-1.11-3.02-2.73-3.78-3.02-1.02-.37-2.54-1.38-2.92-1.88-.38-.5-1.65-.5-2.16-.5-.51 0-.76-.25-1.14-.5-.38-.26-1.9-.88-2.54-.51-.63.38-1.65 1.13-2.16 1.13-.03 0-.06 0-.1.01-.45.1-.78.91-.78 1.5 0 .63.63.75 1.26 1.63.64.88 1.27 2.01 1.4 2.76.13.75-.25 1.26-1.14 1.51-.89.25-1.65 1.25-1.15 1.88.51.63 2.54 2.76 2.67 3.26.13.5.25 2.26-.76 2.39-1.02.12-2.28.12-2.28.87 0 .76.12 1.89.76 2.89.63 1.01 1.27 2.26-.51 1.38-1.78-.88-3.17-1.88-4.19-2.13-1.01-.25-2.28-.88-3.04-1.01-.77-.12-.64.88-.39 2.01.26 1.13.89 1.88.89 2.39 0 .5-.63 1.13-1.39.12-.76-1-.64-1.75-1.27-2.26-.64-.5-1.91-1.5-2.16-2.38-.25-.88-1.27-1.13-1.14-1.76.13-.63 1.01-1.63 2.79-.88 1.78.76 3.3 1.88 4.06 1.63.76-.25 2.16-.62 2.67-1 .5-.38.5-1.76.5-2.13 0-.38-.25-1.13-.63-1.76-.38-.63 0-1.88.63-2.51.64-.63.13-2.01-.5-2.13-.64-.13-.64-.76-.64-1.38 0-.29-.34-1.06-.65-2.01 1.37-1.06 2.8-2.45 4.2-3.74.83-.77 1.65-1.51 2.45-2.13 3.05-2.38 5-5.9 5.53-6.94l-2.66-.64c-.12.23-.26.46-.4.71-1.14 1.98-6.28 6.5-7.99 8.28-.49.51-1.05 1.05-1.63 1.55-1.47 1.26-3.05 2.23-3.8 1.56-2.09-1.88 1.24-5.27 1.72-6.12.13-.23.44-.7.81-1.24.93-1.38 2.21-3.3 1.66-3.37-1.02-.17-2.02-.21-2.99-.16-5.85.31-10.7 4.33-12.33 7.88-1.91 4.14-2.86 6.21-5.24 8.75-.69.73-1.23 1.07-1.67 1.13-1.08.16-1.47-1.44-1.47-3.39 0-.51.11-1.06.29-1.63l-2.37-.69c-.08.24-.15.48-.21.72-.76 2.92-.28 7.44 3.33 7.63" style="fill:#06ab4d;fill-opacity:1;fill-rule:nonzero;stroke:none"/><path d="M47.46 556.84a1.835 1.835 0 1 1-3.67.01 1.835 1.835 0 0 1 3.67-.01m87.87-40.89 4.01 4.15-.93.9-2.99-3.09-5.22 5.06-1.03-1.06zm16.16 40.89a1.835 1.835 0 1 1-3.67.01 1.835 1.835 0 0 1 3.67-.01m-89.98-30.19-6.16-5.95 1.02-1.06 2.07 2 1.72-.03-1.02-4.84 1.29-1.33 1.18 6.19 4.81-.06-1.27 1.31h-5.42l2.8 2.71zm-6.27 46.38.53 1.47-11.02 3.97-.53-1.46 4.03-1.45-.67-1.85 1.39-.5.66 1.85zm2.02-46.69-2.4 3.52 1.85 1.26 2.59-3.79 1.07.73-3.42 5.01-7.08-4.83 3.48-5.09 1.07.73-2.64 3.87 2.07 1.42 2.4-3.52zm17.2 66.33c-11.93-7.57-19.83-20.79-19.83-35.84 0-18.08 11.41-33.52 27.5-39.68-.44 3.25-3.25 5.82-6.31 7.11-3.33 1.41-5.14 2.54-6.38 3.39-1.23.85-1.14 1.88-2.28 3.95-1.14 2.07-3.33 4.8-4.66 6.68-1.23 1.73-2.53 4.33-3.32 7l2.37.69c.82-2.45 3.16-5.32 4.94-7.69.41-.53.78-1.07 1.13-1.6.18-.27.36-.54.53-.81 1.26-2.02 2.12-3.84 2.53-4.93.57-1.5 1.72-1.69 3.62-2.82.74-.44 1.85-1.04 3.06-1.77.74-.45 1.51-.94 2.27-1.47 1.17-.84 2.29-1.77 3.14-2.78 1.61-1.92 1.89-4.49 1.92-5.85a43.22 43.22 0 0 1 11.22-1.92v13.41c0 1.4-.44 2.66-1.32 4.28l2.66.64c.1-.19.15-.3.15-.3l2.45-1.02c-.64-1.3-.96-2.4-.96-3.6v-13.42c3.89.11 7.64.72 11.21 1.78.01 1.31.25 4 1.92 6 .49.58 1.08 1.14 1.7 1.66 2.09 1.75 4.7 3.17 6.3 4.08.17.1.33.2.48.28 1.9 1.13 3.04 1.32 3.61 2.82.17.45.42 1.02.73 1.67.76 1.56 1.92 3.61 3.46 5.67.38.51.78 1.04 1.19 1.58 1.96 2.58 4.05 5.48 4.05 7.74 0 1.55-.25 2.89-.9 3.29-.49.3-1.22.07-2.24-1.03-.13-.13-.25-.26-.37-.4-2.11-2.36-3.07-4.43-4.87-8.35-1.9-4.14-8.19-8.94-15.33-7.72-.76.1 2 3.77 2.48 4.61.36.65 2.39 2.78 2.39 4.59l2.19-.02c0-.12-.01-.23-.01-.33-.1-1.41-.57-2.73-2.67-6.4 0 0 7.24 2.35 9.14 7.53 1.55 4.21 4.24 8.49 7.14 9.83l.03.55 2.31-.08v-.09c3.3-.45 3.73-4.76 2.99-7.58-.76-2.92-2.19-5.83-3.52-7.72-1.33-1.88-3.52-4.61-4.66-6.68-1.15-2.07-1.05-3.1-2.29-3.95-1.24-.85-3.04-1.98-6.38-3.39-3.12-1.32-5.99-3.97-6.34-7.32 16.37 6.02 28.04 21.6 28.04 39.89 0 13.21-6.09 25.02-15.66 32.83l2.29 1.61 2.51 3.56.28.4 1.11 1.56 1.3-.92.85 1.2-1.3.92 2.44 3.45 1.91 1.87c13.54-11.05 22.17-27.77 22.17-46.48 0-33.27-27.28-60.24-60.92-60.24s-60.92 26.97-60.92 60.24c0 21.83 11.75 40.94 29.33 51.51l2.4-1.53-1.33-.95 1.45-2.04-1.89-1.34.77-1.09 1.9 1.35.64-.9-1.9-1.35.77-1.08 1.9 1.34.81-1.14.08-.22c-.89-.28-1.73-.71-2.51-1.27-.85-.6-1.57-1.31-2.17-2.13-.59-.83-.62-1.63-.08-2.39.56-.78 1.32-1.02 2.3-.74.98.29 1.89.74 2.74 1.34zm-23.7-47.02c.11-.49.09-.92-.06-1.3-.14-.38-.48-.65-1.01-.8l.33-1.45c.87.2 1.46.66 1.77 1.39.31.73.37 1.53.17 2.39-.17.74-.52 1.38-1.07 1.92-.54.54-1.23.71-2.07.53-.43-.1-.81-.32-1.15-.67-.33-.35-.52-.89-.55-1.64-.03-.61-.05-1.12-.05-1.53-.01-.41-.04-.77-.08-1.09-.03-.18-.1-.36-.22-.54-.12-.17-.34-.3-.66-.37-.31-.07-.63 0-.95.2-.33.21-.57.63-.71 1.26-.13.57-.1 1.09.08 1.56.19.47.6.78 1.24.93l-.33 1.45c-1.04-.25-1.72-.77-2.04-1.55-.32-.78-.38-1.64-.16-2.58.18-.82.56-1.53 1.12-2.12.56-.59 1.31-.78 2.25-.56.43.1.82.33 1.17.68.35.36.55.83.59 1.4l.06 1.4c.03.69.04 1.07.04 1.14.02.31.1.57.23.79.13.23.34.37.62.44.43.09.75-.01.98-.32.23-.3.38-.62.46-.96m1.81 27.87c-1.13-.8-2.26-1.2-3.38-1.21-1.12 0-2.15.2-3.08.61-.35.16-.66.3-.94.42-.29.13-.61.28-.96.44l-.74-1.51c2.22-.81 3.84-1.56 4.84-2.26 1-.71 1.73-1.8 2.21-3.29l1.46.91c-.18.59-.48 1.19-.9 1.8-.41.61-.83 1.07-1.24 1.39.52.06 1.08.17 1.7.35.61.18 1.2.43 1.76.76zm1.51-34.74-9.14-.59.63-1.39 2.39.22 1.4-3.08-1.74-1.66.66-1.44 6.45 6.51zm-9.36 40.79 11.74-4.23.53 1.46-11.74 4.23zm22.06 19.15c.54 1.81.21 3.55-.98 5.22l-5.3-3.77.85-1.2 3.74 2.66c.42-.86.41-1.98-.02-3.37-.43-1.39-1.07-2.47-1.91-3.24l1.92-.3c.6.86 1.17 2.19 1.7 4m.37-77.83-.48-6.08-1.97-2.72 1.2-.87 1.97 2.73 5.61 2.36-1.34.97-4.04-1.82.44 4.42zm20.36-18.85 2.05 8.31-1.36.34-1.51-6.13-.04.01-2.22 7.05-1.52.38-2.05-8.32 1.36-.34 1.51 6.12.04-.01 2.22-7.04zm-6.44 10.59-1.35.64-2.12-4.52a5.05 5.05 0 0 0-.96-1.4c-.39-.42-1.02-.42-1.89-.01-.87.41-1.27.89-1.21 1.46.06.57.22 1.11.46 1.63l2.12 4.52-1.34.64-2.33-4.97c-.47-.99-.53-1.87-.18-2.64.35-.77.99-1.37 1.93-1.81.95-.45 1.83-.56 2.63-.33.81.23 1.44.84 1.91 1.83zm17.53-11.45.2 4.51-3.59.16-.05-1.14 2.24-.1c-.04-.73-.28-1.29-.7-1.7-.43-.4-1.02-.59-1.78-.55-.89.04-1.53.41-1.91 1.1-.38.7-.55 1.45-.51 2.28.03.82.27 1.56.71 2.22.44.66 1.1.97 2 .93.54-.03 1.02-.19 1.42-.49.41-.3.64-.74.68-1.31l1.46-.07c-.07.98-.44 1.72-1.11 2.24-.67.53-1.47.81-2.4.85-1.25.05-2.26-.34-3.02-1.2-.76-.85-1.16-1.89-1.22-3.11-.05-1.22.26-2.29.94-3.2.68-.92 1.65-1.4 2.91-1.46.52-.02.98.05 1.38.21.41.15.81.45 1.22.89l.19-1.02zm14.96 8.38c-.31.88-.85 1.49-1.63 1.82-.78.33-1.63.39-2.56.16-1.23-.3-2.09-.97-2.57-2-.49-1.03-.58-2.14-.29-3.32.29-1.19.89-2.13 1.8-2.82.91-.68 1.98-.88 3.21-.57 1 .25 1.74.76 2.22 1.54.49.79.64 1.68.45 2.69l-1.41-.35c.09-.62.02-1.18-.22-1.69s-.69-.84-1.33-1c-.89-.22-1.61-.05-2.16.51a4.37 4.37 0 0 0-1.13 2.04c-.19.8-.18 1.58.05 2.33.23.75.79 1.24 1.68 1.46.59.14 1.09.1 1.49-.13.4-.23.72-.57.95-1.03zm9.51 7.62 5.07-6.91 4.65 3.41-.76 1.04-3.47-2.54-4.3 5.87zm.34-4.93c-.53 1.1-1.3 1.9-2.33 2.4-1.02.49-2.11.46-3.25-.08-1.15-.54-1.86-1.37-2.13-2.47-.27-1.11-.14-2.22.39-3.32.52-1.11 1.3-1.91 2.32-2.4 1.03-.49 2.11-.46 3.26.08s1.85 1.37 2.12 2.47c.27 1.11.14 2.21-.38 3.32m21.62 54.99-1.37 4 3.93 1.35-.51 1.47-3.93-1.35-.57 1.65 3.93 1.35-.5 1.47-3.93-1.35-.92 2.68-1.39-.48 3.87-11.27zm-2.55-24.21 8.31-2.07 1.5 5.99-1.26.31-1.14-4.55-2.43.6 1.03 4.14-1.19.29-1.03-4.13-2.17.54 1.11 4.46-1.26.32zm1.23-4.56.6 1.32c-.93.3-1.76.23-2.49-.19-.74-.43-1.29-1.07-1.68-1.92-.51-1.14-.52-2.22-.01-3.24s1.33-1.78 2.44-2.29c1.11-.5 2.22-.61 3.33-.32 1.1.29 1.91 1.01 2.43 2.16.21.47.32.93.32 1.36 0 .43-.12.92-.38 1.47l1.02-.21.39.86-4.12 1.86-1.48-3.28 1.04-.47.92 2.05c.67-.31 1.1-.74 1.32-1.28.22-.55.17-1.17-.15-1.86-.37-.81-.95-1.27-1.73-1.36-.78-.1-1.55.03-2.3.37-.75.34-1.35.83-1.8 1.48-.45.65-.49 1.38-.12 2.2.23.5.55.88.98 1.14.44.27.93.32 1.47.15m.2-9.91-2.67-3.86-2.06 1.42 2.42 3.51-1.01.7-2.42-3.51-1.85 1.27 2.61 3.79-1.07.73-3.44-5 7.05-4.86 3.5 5.08zm4.08 50.9 2.53-7.33c-.7-.24-1.53-.47-2.49-.69-.96-.23-1.74-.35-2.34-.39l.32-1.67c.85.09 1.81.25 2.87.49s2.26.59 3.6 1.06l-3.1 9.01z" style="fill:#06ab4d;fill-opacity:1;fill-rule:nonzero;stroke:none"/></g><path d="M234.114 203.555c-.269.133-.448.398-.807.532-.358.132-.358.265-.312.443.044.177.716.133.94.088.223-.044.671-.531.671-.752 0-.222-.249-.431-.492-.31" style="fill:#06ab4d;fill-opacity:1;fill-rule:nonzero;stroke:none;stroke-width:.352778" transform="translate(-990.996 -780.723) scale(4.67732)"/></g></g></svg>