<svg xmlns="http://www.w3.org/2000/svg" width="366.44641mm" height="95.12899mm" viewBox="0 0 366.44641 95.12899"><path d="M134.558 109.546v-.416h.41v-.462s2.536-.047 3.495.391h.16s.868-.485 3.471-.39v.414h.412v.416h2.125v8.177s.09 4.92-6.123 5.29c0 0-5.641-.07-6.052-5.174v-8.27zm0 0" style="fill:#7f7f7f;fill-opacity:1;fill-rule:nonzero;stroke:none;stroke-width:.352778" transform="matrix(6.64747 0 0 6.64747 -880.498 -722.288)"/><path d="M135.701 110.698v-.415h.382v-.462s1.71-.084 2.503.472l.09.03s.23-.592 2.354-.502v.417h.382v.413h2.099l.01 7.403s-.124 3.357-4.66 3.756c0 0-4.845.31-5.286-3.974v-7.162zm0 0" style="fill:#fff;fill-opacity:1;fill-rule:nonzero;stroke:none;stroke-width:.352778" transform="matrix(6.64747 0 0 6.64747 -880.498 -722.288)"/><path d="M133.818 110.894h2.086v.753s-1.858.662-2.1.878zm0 0" style="fill:#e30000;fill-opacity:1;fill-rule:nonzero;stroke:none;stroke-width:.352778" transform="matrix(6.64747 0 0 6.64747 -880.498 -722.288)"/><path d="M133.804 112.725v.309s1.766-.848 2.085-.91l.031-.262s-.245-.031-2.116.863" style="fill:#e37000;fill-opacity:1;fill-rule:nonzero;stroke:none;stroke-width:.352778" transform="matrix(6.64747 0 0 6.64747 -880.498 -722.288)"/><path d="M133.804 113.203v.307s1.766-.847 2.085-.908l.031-.261s-.245-.032-2.116.862" style="fill:#bf8500;fill-opacity:1;fill-rule:nonzero;stroke:none;stroke-width:.352778" transform="matrix(6.64747 0 0 6.64747 -880.498 -722.288)"/><path d="M133.804 113.665v.307s1.766-.846 2.085-.908l.031-.262s-.245-.03-2.116.863" style="fill:#87c2cf;fill-opacity:1;fill-rule:nonzero;stroke:none;stroke-width:.352778" transform="matrix(6.64747 0 0 6.64747 -880.498 -722.288)"/><path d="M143.275 110.94h-2.086v.753s1.859.663 2.101.878zm0 0" style="fill:#e30000;fill-opacity:1;fill-rule:nonzero;stroke:none;stroke-width:.352778" transform="matrix(6.64747 0 0 6.64747 -880.498 -722.288)"/><path d="M143.29 112.772v.307s-1.765-.846-2.086-.908l-.03-.262s.243-.031 2.116.863" style="fill:#e37000;fill-opacity:1;fill-rule:nonzero;stroke:none;stroke-width:.352778" transform="matrix(6.64747 0 0 6.64747 -880.498 -722.288)"/><path d="M143.29 113.249v.307s-1.765-.846-2.086-.908l-.03-.262s.243-.03 2.116.863" style="fill:#bf8500;fill-opacity:1;fill-rule:nonzero;stroke:none;stroke-width:.352778" transform="matrix(6.64747 0 0 6.64747 -880.498 -722.288)"/><path d="M143.29 113.712v.307s-1.765-.848-2.086-.908l-.03-.262s.243-.032 2.116.863" style="fill:#87c2cf;fill-opacity:1;fill-rule:nonzero;stroke:none;stroke-width:.352778" transform="matrix(6.64747 0 0 6.64747 -880.498 -722.288)"/><path d="M136.164 113.249s-.716 0-2.36 1.079v3.741s.654 3.65 4.918 3.511c0 0 4.082.03 4.6-3.65v-3.619s-1.63-1.354-4.494-1.108zm0 0" style="fill:#2668a1;fill-opacity:1;fill-rule:nonzero;stroke:none;stroke-width:.352778" transform="matrix(6.64747 0 0 6.64747 -880.498 -722.288)"/><path d="M139.346 116.7s-.304-.94-1.262-.91c0 0-.87.03-1.129 1.077 0 0 .046 1.449-1.28 1.464 0 0-1.34-.123-1.186-1.464 0 0 .12-2.185 2.406-2.34 0 0 .913-.062 1.736.677 0 0 1.462-1.324 3.18-.17 0 0 .962.648 1.008 2.064 0 0-.06 2.542-2.421 2.557 0 0-1.097.062-1.799-.663 0 0-1.933 1.403-3.44-.23 0 0 0-.062.107-.015 0 0 1.264 1.401 3.045.2 0 0 .808-.631.93-1.046l.06.213s.67-.23.897-.152v-.694h-.793v-.278h.808v-.677s-.76-.075-.882-.216zm0 0" style="fill:#fff;fill-opacity:1;fill-rule:nonzero;stroke:none;stroke-width:.352778" transform="matrix(6.64747 0 0 6.64747 -880.498 -722.288)"/><path d="M138.8 118.808s.06-.2.393-.34c0 0 .184.71.443.878 0 0-.761-.339-.837-.538M139.407 118.363s.533-.264.806-.17v1.247s-.502 0-.806-1.077M141.86 118.793s-.062-.2-.397-.34c0 0-.183.709-.442.878 0 0 .762-.339.839-.538M141.25 118.346s-.534-.262-.807-.17v1.248s.502 0 .806-1.078M138.8 115.423s.06.2.393.34c0 0 .184-.71.443-.879 0 0-.761.34-.837.54M139.407 115.87s.533.262.806.17v-1.248s-.502 0-.806 1.078M141.86 115.438s-.062.202-.397.34c0 0-.183-.709-.442-.878 0 0 .762.339.839.538M141.25 115.885s-.534.263-.807.17v-1.248s.502 0 .806 1.078M141.525 116.006s.167.462.136.955h.914s-.092-1.002-.547-1.326c0 0-.23.247-.503.371M140.443 116.297v.693h.974s0-.723-.106-.846c0 0-.73.216-.868.153M140.443 117.93v-.692h.974s0 .722-.106.846c0 0-.73-.216-.868-.154M140.184 116.297v.693h-.974s0-.723.106-.846c0 0 .73.216.868.153M140.184 117.93v-.692h-.974s0 .722.106.846c0 0 .73-.216.868-.154M141.525 118.223s.167-.463.136-.955h.914s-.092 1-.547 1.323c0 0-.23-.245-.503-.368" style="fill:#2668a1;fill-opacity:1;fill-rule:nonzero;stroke:none;stroke-width:.352778" transform="matrix(6.64747 0 0 6.64747 -880.498 -722.288)"/><path d="M138.6 119.132s-.289.323-.167.693c0 0 .366-.17.166-.693M138.463 118.069s-.29.322-.167.693c0 0 .365-.17.167-.693M138.271 119.344s-.36.24-.332.63c0 0 .396-.072.332-.63M138.044 118.375s-.361.238-.334.628c0 0 .397-.071.334-.628M137.825 119.47s-.397.17-.442.557c0 0 .402.003.442-.556M137.688 118.685s-.398.17-.442.557c0 0 .402 0 .442-.557M137.16 119.592s-.382.204-.392.594c0 0 .4-.033.391-.594M137.209 118.645s-.35.255-.307.642c0 0 .391-.088.307-.642M136.842 118.645s-.35.255-.306.642c0 0 .392-.088.306-.642M136.295 118.662s-.428.052-.576.41c0 0 .386.115.576-.41M135.978 118.57s-.426-.075-.67.224c0 0 .337.225.67-.223" style="fill:#fff;fill-opacity:1;fill-rule:nonzero;stroke:none;stroke-width:.352778" transform="matrix(6.64747 0 0 6.64747 -880.498 -722.288)"/><path d="M136.57 118.754s-.428.05-.577.41c0 0 .386.116.576-.41M136.716 119.735s-.42-.094-.677.199c0 0 .328.235.677-.199M136.174 119.57s-.416-.119-.688.157c0 0 .313.256.688-.157M134.992 119.017s.198.386.583.4c0 0-.03-.407-.583-.4M134.79 118.137s-.063.43.24.668c0 0 .211-.345-.24-.668M135.904 113.789v-3.273s1.754-.048 2.63.582c0 0 1.046-.63 2.6-.582v3.273s-1.497-.17-2.57.63c0 0-.935-.727-2.66-.63" style="fill:#fff;fill-opacity:1;fill-rule:nonzero;stroke:none;stroke-width:.352778" transform="matrix(6.64747 0 0 6.64747 -880.498 -722.288)"/><path d="M135.904 113.789v-3.273s1.754-.048 2.63.582c0 0 1.046-.63 2.6-.582v3.273s-1.497-.17-2.57.63c0 0-.935-.727-2.66-.63zm0 0" style="fill:none;stroke:#000;stroke-width:.175683;stroke-linecap:butt;stroke-linejoin:miter;stroke-miterlimit:4;stroke-opacity:1" transform="matrix(6.64747 0 0 6.64747 -880.498 -722.288)"/><path d="M136.407 113.265v-3.118s1.416-.047 2.125.554c0 0 .845-.601 2.101-.554v3.118s-1.21-.162-2.08.601c0 0-.752-.695-2.146-.6" style="fill:#fff;fill-opacity:1;fill-rule:nonzero;stroke:none;stroke-width:.352778" transform="matrix(6.64747 0 0 6.64747 -880.498 -722.288)"/><path d="M136.407 113.265v-3.118s1.416-.047 2.125.554c0 0 .845-.601 2.101-.554v3.118s-1.21-.162-2.08.601c0 0-.752-.695-2.146-.6zm0 0" style="fill:none;stroke:#000;stroke-width:.175683;stroke-linecap:butt;stroke-linejoin:miter;stroke-miterlimit:4;stroke-opacity:1" transform="matrix(6.64747 0 0 6.64747 -880.498 -722.288)"/><path d="m136.869 112.212.004-.026-.144-.603c-.02-.083-.034-.15-.045-.199-.013-.05-.018-.084-.024-.1l.214-.003.012.055c.006.033.017.08.032.14l.121.538.015.059.018.069.022.055.028.023h.076l.014-.003.004-.018-.21-.924h.21a.707.707 0 0 1 .026.085l.038.16.039.168c.012.054.02.092.026.113l.017.075.024.102a8.836 8.836 0 0 0 .051.214c.01.024.032.036.065.036h.177l.007-.027.003-.058v-.863h.304v.192l-.022.01-.005-.001-.004-.001c-.036 0-.056.006-.065.016a.17.17 0 0 0-.012.079v.851h-.463a.153.153 0 0 1-.079-.016l-.05-.04-.028-.048-.029-.024-.012.037v.05l-.01.055-.158-.003-.054-.01-.042-.032-.038-.053-.042-.08M139.11 112.218c0 .06-.005.1-.012.123l-.026.056-.029.02-.04.013-.041.005-.033.003h-.602l-.03-.005-.04-.014-.038-.016-.022-.017-.043-.066a.25.25 0 0 1-.016-.102v-.938h.406v-.004h.178v.071-.071h.387v.4h-.18v-.176h-.557l-.036.004-.01.039v.598c0 .052.015.077.044.077h.53l.023-.008.005-.037v-.154h.18zM140.228 112.218c0 .06-.004.1-.01.123l-.027.056-.03.02-.04.013-.04.005-.035.003h-.602l-.03-.005-.04-.014-.036-.016-.022-.017-.043-.066a.225.225 0 0 1-.018-.102l.001-.87v-.068h.405v-.004h.178l.001.035v-.035h.387v.4h-.182v-.176h-.555l-.036.004-.01.039v.598c0 .052.013.077.043.077h.53l.024-.008.004-.037v-.154h.182zm0 0" style="fill:#3f826b;fill-opacity:1;fill-rule:nonzero;stroke:none;stroke-width:.352778" transform="matrix(6.64747 0 0 6.64747 -880.498 -722.288)"/><path d="m132.733 117.996-.007-.011.004-.012.012-.008.242-.033-.016-.113.003-.017.01-.006.011.003.005.014.017.114.18-.023.013.004.004.01-.003.015-.01.007-.452.06-.014-.004m.434-.285.005.012-.003.014-.012.007-.07.004h-.1c-.034.032-.064.063-.095.086a.89.89 0 0 1-.1.072l-.016.003-.01-.007v-.014l.01-.013c.032-.02.062-.042.091-.062l.082-.071a.466.466 0 0 1-.208-.073l-.01-.011v-.013l.009-.007.015.004a.478.478 0 0 0 .164.06.753.753 0 0 0 .233.006l.014.003m-.42.402-.005-.01.003-.014.012-.007.45-.061.013.003.005.012-.001.013-.011.008-.452.06-.014-.004M133.275 118.42l-.034.028-.068.016a.343.343 0 0 1-.22-.006.208.208 0 0 1-.115-.132v-.015l.008-.007h.01l.01.012c.02.058.055.095.103.113a.32.32 0 0 0 .191 0l.07-.016.017-.014.001-.028-.033-.128.01-.02.019.012.033.132-.003.051m.062.119-.011.022-.442.109-.014-.001-.008-.011v-.014l.012-.008.16-.04-.024-.098.011-.022.02.015.022.098.114-.029-.029-.118.029-.007.029.118.11-.027.02.013m-.439.242-.01-.01.003-.016.013-.007.44-.11.013.003.007.011v.013l-.01.008-.444.111-.012-.004M133.447 118.969l.01.01v.015l-.011.01-.06.019-.064.012a1.029 1.029 0 0 1-.091.131c-.033.039-.063.075-.095.102l-.017.005-.01-.005-.005-.012.008-.014c.03-.029.061-.06.09-.096a.793.793 0 0 0 .084-.108.78.78 0 0 1-.14-.004.524.524 0 0 1-.134-.034l-.011-.011v-.013l.01-.008.014.001c.063.028.135.04.217.038a.623.623 0 0 0 .192-.038h.014m-.076.407-.008.02-.02-.01-.023-.066-.2.076h-.013l-.008-.012v-.012l.008-.01.428-.162.013.001.008.01v.014l-.01.01-.2.076zM133.684 119.673a.295.295 0 0 1-.116.103.28.28 0 0 1-.146.038c-.051-.003-.088-.024-.109-.064a.127.127 0 0 1 .008-.128.27.27 0 0 1 .115-.102.285.285 0 0 1 .147-.039c.051.004.088.027.109.067a.122.122 0 0 1-.008.125m-.105-.156a.264.264 0 0 0-.125.037.263.263 0 0 0-.102.085c-.024.033-.028.066-.011.097.015.03.044.044.084.044a.3.3 0 0 0 .127-.037.284.284 0 0 0 .1-.084c.025-.034.03-.067.014-.098-.016-.03-.045-.045-.087-.044m-.166.513-.01-.01-.003-.012.01-.013.403-.215h.013l.01.011.003.011-.007.013-.404.215h-.015M134.07 120.176l-.004.025-.292.213-.036.007-.032-.022-.095-.132-.011-.038.02-.032.29-.211.015-.004.013.007.003.012-.008.014-.112.082.113.157.112-.083.024.005m-.274-.062-.15.109-.011.016.007.018.08.113.016.014.021-.004.15-.11zm0 .49-.013-.009-.001-.014.008-.013.186-.136-.06-.085-.004-.015.005-.011.01-.003.012.008.062.088.154-.114.015-.003.011.008.004.012-.008.014-.364.266zM134.436 120.646l-.023-.003-.1-.102-.017-.01-.018.01-.216.214-.016.022.016.024.074.067.077.045.011.01v.011l-.007.008h-.016l-.09-.054-.07-.064-.028-.05.017-.04.222-.22.04-.017.042.022.098.103.004.024m.17.13.003.024-.328.323-.013.004-.012-.004-.006-.013.006-.012.151-.15-.062-.065-.151.149-.014.004-.012-.004-.006-.013.006-.014.328-.322h.023l.003.026-.156.154.062.065.156-.155zM134.85 121.423l-.008.037-.057.073-.012.008-.013-.005-.007-.01.004-.014.053-.07.006-.017-.013-.017-.255-.197-.004-.022.022-.003.257.199.027.038m.001-.241-.003.068-.063.02a.215.215 0 0 1-.102-.047.217.217 0 0 1-.072-.088l.003-.066.062-.022a.22.22 0 0 1 .102.048.215.215 0 0 1 .073.087m-.165-.1-.043.01.003.043.057.065.073.037.042-.011v-.044l-.056-.062-.076-.039m.252.072v.011l-.012.006-.014-.004-.237-.183-.004-.022.022-.001.237.182.008.012m-.015-.084h-.022l-.13-.1-.007-.023.024-.001.13.1.005.024m.117.242.004.021-.022.001-.055-.041-.047.063-.013.007-.011-.004-.008-.01.004-.015.141-.188.024-.001.006.023-.076.102zM135.351 121.619l-.022.007-.244-.148-.006-.022.022-.006.244.148zM135.501 121.456h.014l.013.008.004.014-.053.372.237-.28.032-.006.018.03-.06.363.246-.28.015-.008.014.006.008.013-.006.015-.278.321-.032.008-.012-.029.06-.379-.247.29-.033.01-.01-.028.06-.424zM136.353 121.88c.02.05.017.105-.003.166a.24.24 0 0 1-.1.131.19.19 0 0 1-.173.014.195.195 0 0 1-.126-.119.257.257 0 0 1 .005-.165.246.246 0 0 1 .097-.132c.05-.032.108-.036.173-.014a.194.194 0 0 1 .126.12m-.278-.077a.217.217 0 0 0-.081.117.205.205 0 0 0-.007.142.154.154 0 0 0 .102.097c.053.02.102.016.142-.012a.218.218 0 0 0 .08-.116c.02-.052.022-.099.008-.142a.154.154 0 0 0-.102-.098c-.054-.019-.102-.015-.142.011M136.699 121.915a.132.132 0 0 1 .084.062l.01.088-.034.057-.061.023.032.026.006.051-.015.078-.003.053-.003.017-.014.005-.015-.003-.007-.014v-.065l.016-.078-.01-.043-.047-.026-.157-.043-.047.18-.01.013-.014.003-.012-.01-.003-.015.093-.356.025-.034.047-.007zm.018.19.039-.05-.008-.064-.061-.043-.127-.033h-.022l-.01.018-.038.14.153.042.074-.01M136.908 121.963l.016-.003.012.008.004.017-.073.357.001.02.02.011.19.04.012.007.004.012-.007.011-.017.003-.195-.042-.042-.025-.007-.041.075-.363zM137.378 122.056c.068.01.118.038.15.088.03.044.04.098.032.158a.219.219 0 0 1-.077.144.2.2 0 0 1-.168.04l-.088-.013-.043-.025-.007-.04.046-.318.02-.037.047-.01zm-.058.397a.164.164 0 0 0 .138-.035.19.19 0 0 0 .064-.121.19.19 0 0 0-.026-.135.166.166 0 0 0-.122-.073l-.081-.013-.023.005-.008.018-.047.312.006.018.019.01zM138.186 122.167c.025.025.04.057.047.095l-.007.016-.013.005-.012-.003-.008-.017a.116.116 0 0 0-.046-.078.161.161 0 0 0-.088-.032.15.15 0 0 0-.118.041.227.227 0 0 0-.057.142c-.003.063.008.112.037.149a.147.147 0 0 0 .113.055.136.136 0 0 0 .09-.018.137.137 0 0 0 .058-.084l.01-.012.015-.001.012.01.004.017a.198.198 0 0 1-.062.09.197.197 0 0 1-.13.033.187.187 0 0 1-.14-.072.24.24 0 0 1-.045-.17.24.24 0 0 1 .067-.16.187.187 0 0 1 .149-.053c.052.004.095.02.124.047M138.292 122.148l.01-.01.014-.003.012.01.133.208.14-.2.014-.01.015.003.01.008-.004.017-.157.222-.006.182-.005.015-.014.004-.014-.005-.004-.015.003-.182-.142-.228zM138.916 122.138a.119.119 0 0 1 .091.027l.037.075-.01.054-.036.041.056.039.028.065a.116.116 0 0 1-.027.087.13.13 0 0 1-.093.046l-.148.011-.047-.013-.017-.038-.025-.32.01-.04.043-.021zm.072.16.018-.055-.026-.05-.064-.022-.128.011-.02.01-.005.021.011.128.155-.013.06-.03m.035.207.018-.063-.03-.06-.072-.021-.163.013.011.152.008.018.022.007.14-.013.066-.033M139.443 122.076l.006.011-.003.011-.014.008-.218.032-.02.012-.004.018.02.133.223-.033.015.003.007.01-.003.013-.014.008-.224.032.02.147.01.017.023.006.226-.035.017.003.005.011-.003.013-.015.008-.233.034-.05-.012-.018-.036-.046-.319.01-.04.041-.024.226-.035zM139.73 122.014a.134.134 0 0 1 .103.018.115.115 0 0 1 .048.075l-.008.067-.044.048.04.008.029.043.019.077.022.048.003.017-.01.012-.014.003-.014-.008-.026-.059-.019-.077-.029-.033-.054-.004-.158.033.036.183-.003.015-.013.008-.014-.003-.01-.013-.071-.362.008-.04.04-.027zm.1.163.012-.062-.034-.054-.075-.012-.126.026-.021.012-.003.02.029.142.154-.03.064-.042M140.454 121.857a.15.15 0 0 1 .076.073v.014l-.01.012-.014.001-.014-.012-.069-.06a.155.155 0 0 0-.092.004.143.143 0 0 0-.096.08.21.21 0 0 0-.006.151c.018.06.045.104.084.127a.165.165 0 0 0 .204-.034.15.15 0 0 0 .026-.1l.006-.015.012-.007.016.005.01.015a.186.186 0 0 1-.03.107.183.183 0 0 1-.11.074.18.18 0 0 1-.155-.017.238.238 0 0 1-.1-.143.246.246 0 0 1 .007-.176.196.196 0 0 1 .123-.1.208.208 0 0 1 .132 0M140.927 121.725c.045.026.078.07.1.13.022.06.024.115.005.166a.191.191 0 0 1-.125.12c-.063.024-.123.02-.172-.01a.24.24 0 0 1-.1-.132.254.254 0 0 1-.007-.165.198.198 0 0 1 .125-.12c.066-.023.124-.02.174.011m-.264.118a.219.219 0 0 0 .01.142.215.215 0 0 0 .083.116c.041.026.088.03.142.01a.162.162 0 0 0 .102-.099.223.223 0 0 0-.01-.143.23.23 0 0 0-.083-.115c-.041-.026-.088-.029-.142-.01a.159.159 0 0 0-.102.1M141.038 121.61l.011-.012h.014l.011.01.145.335.014.015h.022l.178-.08h.015l.01.01v.012l-.011.01-.184.081-.048.001-.029-.028-.147-.338zM141.349 121.467l.01-.01.015-.002.01.01.165.328.012.013.024-.001.172-.09.015-.001.01.008.001.012-.011.011-.178.091-.05.006-.028-.027-.166-.33zM141.908 121.167l.01.007.001.012-.01.013-.189.113-.014.019.001.018.07.116.194-.118.016-.003.01.007.001.013-.01.012-.195.117.076.127.013.013.024-.004.197-.119.015-.004.011.008v.012l-.01.013-.204.123-.047.008-.033-.027-.161-.277-.008-.041.03-.039.197-.118zM142.258 120.946a.144.144 0 0 1 .091.035l.006.015-.006.015-.015.005-.015-.005-.08-.027a.19.19 0 0 0-.094.04.161.161 0 0 0-.072.111.22.22 0 0 0 .046.146c.036.053.077.083.122.091.042.01.085-.003.129-.033a.173.173 0 0 0 .067-.095c.008-.041-.004-.088-.038-.135l-.112.08-.024-.003.003-.025.123-.087.02-.006.017.011.106.15.003.014-.007.011-.015.006-.012-.008-.033-.046-.014.085-.065.074a.2.2 0 0 1-.158.042.228.228 0 0 1-.144-.104.229.229 0 0 1-.05-.165.202.202 0 0 1 .089-.142.232.232 0 0 1 .132-.05M142.594 120.63l.011.007.003.012-.007.014-.166.146-.01.02.007.019.086.1.171-.15.014-.005.011.005.004.011-.007.014-.17.15.096.112.016.01.02-.007.174-.153.014-.007.011.007.005.01-.01.016-.178.157-.045.017-.036-.021-.21-.243-.014-.038.022-.044.173-.152zM143.152 120.332l.001.023-.186.217h-.022v-.021l.184-.218zM143.21 119.924l.079.01.012.015v.015l-.013.01h-.017l-.069-.006-.059.051-.032.079.027.06.06.011a.263.263 0 0 0 .083-.059.285.285 0 0 1 .112-.077l.09.02c.032.021.046.053.045.093a.193.193 0 0 1-.042.11.199.199 0 0 1-.092.082c-.035.012-.072.006-.112-.017l-.01-.014.004-.012.01-.01.017.003.085.012a.146.146 0 0 0 .072-.062l.03-.078c.004-.032-.005-.057-.026-.072l-.065-.018c-.025.004-.056.026-.096.064a.324.324 0 0 1-.098.07l-.09-.015a.094.094 0 0 1-.041-.08.204.204 0 0 1 .044-.112c.028-.04.058-.065.092-.072M143.265 119.775l.003-.015.013-.01.015.003.354.215.008.014-.003.013-.012.008h-.014l-.353-.216zM143.348 119.629l.023-.022.036-.006.404-.044-.328-.167-.008-.01.003-.015.011-.01h.012l.366.185.013.027-.017.018-.058.01-.388.044.324.166.011.013-.003.014-.01.01-.016-.003-.362-.183zM143.672 118.976c.03-.018.063-.024.102-.018l.012.01.003.014-.007.012-.016.004a.116.116 0 0 0-.09.02.173.173 0 0 0-.054.077.149.149 0 0 0 .006.126c.022.042.061.073.119.094.058.022.107.025.15.008a.156.156 0 0 0 .085-.094.153.153 0 0 0 .008-.092.142.142 0 0 0-.062-.08l-.01-.014.005-.013.011-.01.018.003a.165.165 0 0 1 .068.084.197.197 0 0 1-.006.135.193.193 0 0 1-.108.117.235.235 0 0 1-.175-.007.228.228 0 0 1-.132-.11.182.182 0 0 1-.007-.159c.02-.05.044-.087.08-.107M143.77 118.539l.014-.001.01.007v.015l-.057.216.003.024.015.01.128.035.06-.221.007-.014.013-.001.01.008v.016l-.059.22.142.04.02-.002.012-.018.06-.224.009-.014.012-.001.008.008.003.015-.06.232-.03.04-.04.003-.308-.083-.033-.023-.007-.051.059-.222zM143.851 118.232c.026-.018.054-.025.087-.018.033.005.06.02.077.045a.437.437 0 0 1 .041.09l.006.015a.339.339 0 0 0 .054.102l.062.039.041-.23.008-.013.013-.003.01.008.004.012-.051.272a.174.174 0 0 1-.104-.052.304.304 0 0 1-.062-.112.423.423 0 0 0-.04-.094l-.067-.041-.06.014-.04.065.012.075.053.035.017.003.012.01.003.014-.008.012-.015.004-.015-.004a.104.104 0 0 1-.074-.047.154.154 0 0 1-.018-.107.154.154 0 0 1 .055-.094M143.931 117.868a.308.308 0 0 1 .158-.018c.061.007.11.025.15.054.043.031.061.071.056.117-.004.047-.03.08-.082.102a.303.303 0 0 1-.157.018.306.306 0 0 1-.148-.054c-.046-.032-.064-.072-.058-.117.004-.047.031-.08.08-.102m.002.191a.288.288 0 0 0 .13.042.282.282 0 0 0 .132-.01c.041-.015.065-.04.07-.075.001-.033-.014-.06-.05-.085a.306.306 0 0 0-.13-.043.3.3 0 0 0-.134.013c-.041.015-.064.038-.068.071-.004.035.014.064.05.087M143.954 117.501a.307.307 0 0 1 .156-.027.298.298 0 0 1 .154.045c.045.028.067.066.065.113-.003.046-.029.08-.076.105a.3.3 0 0 1-.157.029.301.301 0 0 1-.153-.044c-.045-.03-.067-.068-.064-.113.003-.046.028-.083.075-.108m.014.193a.339.339 0 0 0 .263.014c.04-.018.062-.044.064-.079 0-.033-.017-.06-.055-.082a.3.3 0 0 0-.131-.033.302.302 0 0 0-.134.019c-.04.018-.062.044-.062.077-.003.035.015.062.055.084" style="fill:#fff;fill-opacity:1;fill-rule:nonzero;stroke:none;stroke-width:.352778" transform="matrix(6.64747 0 0 6.64747 -880.498 -722.288)"/><path d="m132.733 117.996-.007-.011.004-.012.012-.008.242-.033-.016-.113.003-.017.01-.006.011.003.005.014.017.114.18-.023.013.004.004.01-.003.015-.01.007-.452.06-.014-.004m.434-.285.005.012-.003.014-.012.007-.07.004h-.1c-.034.032-.064.063-.095.086a.89.89 0 0 1-.1.072l-.016.003-.01-.007v-.014l.01-.013c.032-.02.062-.042.091-.062l.082-.071a.466.466 0 0 1-.208-.073l-.01-.011v-.013l.009-.007.015.004a.478.478 0 0 0 .164.06.753.753 0 0 0 .233.006l.014.003m-.42.402-.005-.01.003-.014.012-.007.45-.061.013.003.005.012-.001.013-.011.008-.452.06-.014-.004M133.275 118.42l-.034.028-.068.016a.343.343 0 0 1-.22-.006.208.208 0 0 1-.115-.132v-.015l.008-.007h.01l.01.012c.02.058.055.095.103.113a.32.32 0 0 0 .191 0l.07-.016.017-.014.001-.028-.033-.128.01-.02.019.012.033.132-.003.051m.062.119-.011.022-.442.109-.014-.001-.008-.011v-.014l.012-.008.16-.04-.024-.098.011-.022.02.015.022.098.114-.029-.029-.118.029-.007.029.118.11-.027.02.013m-.439.242-.01-.01.003-.016.013-.007.44-.11.013.003.007.011v.013l-.01.008-.444.111-.012-.004M133.447 118.969l.01.01v.015l-.011.01-.06.019-.064.012a1.029 1.029 0 0 1-.091.131c-.033.039-.063.075-.095.102l-.017.005-.01-.005-.005-.012.008-.014c.03-.029.061-.06.09-.096a.793.793 0 0 0 .084-.108.78.78 0 0 1-.14-.004.524.524 0 0 1-.134-.034l-.011-.011v-.013l.01-.008.014.001c.063.028.135.04.217.038a.623.623 0 0 0 .192-.038h.014m-.076.407-.008.02-.02-.01-.023-.066-.2.076h-.013l-.008-.012v-.012l.008-.01.428-.162.013.001.008.01v.014l-.01.01-.2.076zM133.684 119.673a.295.295 0 0 1-.116.103.28.28 0 0 1-.146.038c-.051-.003-.088-.024-.109-.064a.127.127 0 0 1 .008-.128.27.27 0 0 1 .115-.102.285.285 0 0 1 .147-.039c.051.004.088.027.109.067a.122.122 0 0 1-.008.125m-.105-.156a.264.264 0 0 0-.125.037.263.263 0 0 0-.102.085c-.024.033-.028.066-.011.097.015.03.044.044.084.044a.3.3 0 0 0 .127-.037.284.284 0 0 0 .1-.084c.025-.034.03-.067.014-.098-.016-.03-.045-.045-.087-.044m-.166.513-.01-.01-.003-.012.01-.013.403-.215h.013l.01.011.003.011-.007.013-.404.215h-.015M134.07 120.176l-.004.025-.292.213-.036.007-.032-.022-.095-.132-.011-.038.02-.032.29-.211.015-.004.013.007.003.012-.008.014-.112.082.113.157.112-.083.024.005m-.274-.062-.15.109-.011.016.007.018.08.113.016.014.021-.004.15-.11zm0 .49-.013-.009-.001-.014.008-.013.186-.136-.06-.085-.004-.015.005-.011.01-.003.012.008.062.088.154-.114.015-.003.011.008.004.012-.008.014-.364.266zM134.436 120.646l-.023-.003-.1-.102-.017-.01-.018.01-.216.214-.016.022.016.024.074.067.077.045.011.01v.011l-.007.008h-.016l-.09-.054-.07-.064-.028-.05.017-.04.222-.22.04-.017.042.022.098.103.004.024m.17.13.003.024-.328.323-.013.004-.012-.004-.006-.013.006-.012.151-.15-.062-.065-.151.149-.014.004-.012-.004-.006-.013.006-.014.328-.322h.023l.003.026-.156.154.062.065.156-.155zM134.85 121.423l-.008.037-.057.073-.012.008-.013-.005-.007-.01.004-.014.053-.07.006-.017-.013-.017-.255-.197-.004-.022.022-.003.257.199.027.038m.001-.241-.003.068-.063.02a.215.215 0 0 1-.102-.047.217.217 0 0 1-.072-.088l.003-.066.062-.022a.22.22 0 0 1 .102.048.215.215 0 0 1 .073.087m-.165-.1-.043.01.003.043.057.065.073.037.042-.011v-.044l-.056-.062-.076-.039m.252.072v.011l-.012.006-.014-.004-.237-.183-.004-.022.022-.001.237.182.008.012m-.015-.084h-.022l-.13-.1-.007-.023.024-.001.13.1.005.024m.117.242.004.021-.022.001-.055-.041-.047.063-.013.007-.011-.004-.008-.01.004-.015.141-.188.024-.001.006.023-.076.102zM135.351 121.619l-.022.007-.244-.148-.006-.022.022-.006.244.148zM135.501 121.456h.014l.013.008.004.014-.053.372.237-.28.032-.006.018.03-.06.363.246-.28.015-.008.014.006.008.013-.006.015-.278.321-.032.008-.012-.029.06-.379-.247.29-.033.01-.01-.028.06-.424zM136.353 121.88c.02.05.017.105-.003.166a.24.24 0 0 1-.1.131.19.19 0 0 1-.173.014.195.195 0 0 1-.126-.119.257.257 0 0 1 .005-.165.246.246 0 0 1 .097-.132c.05-.032.108-.036.173-.014a.194.194 0 0 1 .126.12m-.278-.077a.217.217 0 0 0-.081.117.205.205 0 0 0-.007.142.154.154 0 0 0 .102.097c.053.02.102.016.142-.012a.218.218 0 0 0 .08-.116c.02-.052.022-.099.008-.142a.154.154 0 0 0-.102-.098c-.054-.019-.102-.015-.142.011M136.699 121.915a.132.132 0 0 1 .084.062l.01.088-.034.057-.061.023.032.026.006.051-.015.078-.003.053-.003.017-.014.005-.015-.003-.007-.014v-.065l.016-.078-.01-.043-.047-.026-.157-.043-.047.18-.01.013-.014.003-.012-.01-.003-.015.093-.356.025-.034.047-.007zm.018.19.039-.05-.008-.064-.061-.043-.127-.033h-.022l-.01.018-.038.14.153.042.074-.01M136.908 121.963l.016-.003.012.008.004.017-.073.357.001.02.02.011.19.04.012.007.004.012-.007.011-.017.003-.195-.042-.042-.025-.007-.041.075-.363zM137.378 122.056c.068.01.118.038.15.088.03.044.04.098.032.158a.219.219 0 0 1-.077.144.2.2 0 0 1-.168.04l-.088-.013-.043-.025-.007-.04.046-.318.02-.037.047-.01zm-.058.397a.164.164 0 0 0 .138-.035.19.19 0 0 0 .064-.121.19.19 0 0 0-.026-.135.166.166 0 0 0-.122-.073l-.081-.013-.023.005-.008.018-.047.312.006.018.019.01zM138.186 122.167c.025.025.04.057.047.095l-.007.016-.013.005-.012-.003-.008-.017a.116.116 0 0 0-.046-.078.161.161 0 0 0-.088-.032.15.15 0 0 0-.118.041.227.227 0 0 0-.057.142c-.003.063.008.112.037.149a.147.147 0 0 0 .113.055.136.136 0 0 0 .09-.018.137.137 0 0 0 .058-.084l.01-.012.015-.001.012.01.004.017a.198.198 0 0 1-.062.09.197.197 0 0 1-.13.033.187.187 0 0 1-.14-.072.24.24 0 0 1-.045-.17.24.24 0 0 1 .067-.16.187.187 0 0 1 .149-.053c.052.004.095.02.124.047M138.292 122.148l.01-.01.014-.003.012.01.133.208.14-.2.014-.01.015.003.01.008-.004.017-.157.222-.006.182-.005.015-.014.004-.014-.005-.004-.015.003-.182-.142-.228zM138.916 122.138a.119.119 0 0 1 .091.027l.037.075-.01.054-.036.041.056.039.028.065a.116.116 0 0 1-.027.087.13.13 0 0 1-.093.046l-.148.011-.047-.013-.017-.038-.025-.32.01-.04.043-.021zm.072.16.018-.055-.026-.05-.064-.022-.128.011-.02.01-.005.021.011.128.155-.013.06-.03m.035.207.018-.063-.03-.06-.072-.021-.163.013.011.152.008.018.022.007.14-.013.066-.033M139.443 122.076l.006.011-.003.011-.014.008-.218.032-.02.012-.004.018.02.133.223-.033.015.003.007.01-.003.013-.014.008-.224.032.02.147.01.017.023.006.226-.035.017.003.005.011-.003.013-.015.008-.233.034-.05-.012-.018-.036-.046-.319.01-.04.041-.024.226-.035zM139.73 122.014a.134.134 0 0 1 .103.018.115.115 0 0 1 .048.075l-.008.067-.044.048.04.008.029.043.019.077.022.048.003.017-.01.012-.014.003-.014-.008-.026-.059-.019-.077-.029-.033-.054-.004-.158.033.036.183-.003.015-.013.008-.014-.003-.01-.013-.071-.362.008-.04.04-.027zm.1.163.012-.062-.034-.054-.075-.012-.126.026-.021.012-.003.02.029.142.154-.03.064-.042M140.454 121.857a.15.15 0 0 1 .076.073v.014l-.01.012-.014.001-.014-.012-.069-.06a.155.155 0 0 0-.092.004.143.143 0 0 0-.096.08.21.21 0 0 0-.006.151c.018.06.045.104.084.127a.165.165 0 0 0 .204-.034.15.15 0 0 0 .026-.1l.006-.015.012-.007.016.005.01.015a.186.186 0 0 1-.03.107.183.183 0 0 1-.11.074.18.18 0 0 1-.155-.017.238.238 0 0 1-.1-.143.246.246 0 0 1 .007-.176.196.196 0 0 1 .123-.1.208.208 0 0 1 .132 0M140.927 121.725c.045.026.078.07.1.13.022.06.024.115.005.166a.191.191 0 0 1-.125.12c-.063.024-.123.02-.172-.01a.24.24 0 0 1-.1-.132.254.254 0 0 1-.007-.165.198.198 0 0 1 .125-.12c.066-.023.124-.02.174.011m-.264.118a.219.219 0 0 0 .01.142.215.215 0 0 0 .083.116c.041.026.088.03.142.01a.162.162 0 0 0 .102-.099.223.223 0 0 0-.01-.143.23.23 0 0 0-.083-.115c-.041-.026-.088-.029-.142-.01a.159.159 0 0 0-.102.1M141.038 121.61l.011-.012h.014l.011.01.145.335.014.015h.022l.178-.08h.015l.01.01v.012l-.011.01-.184.081-.048.001-.029-.028-.147-.338zM141.349 121.467l.01-.01.015-.002.01.01.165.328.012.013.024-.001.172-.09.015-.001.01.008.001.012-.011.011-.178.091-.05.006-.028-.027-.166-.33zM141.908 121.167l.01.007.001.012-.01.013-.189.113-.014.019.001.018.07.116.194-.118.016-.003.01.007.001.013-.01.012-.195.117.076.127.013.013.024-.004.197-.119.015-.004.011.008v.012l-.01.013-.204.123-.047.008-.033-.027-.161-.277-.008-.041.03-.039.197-.118zM142.258 120.946a.144.144 0 0 1 .091.035l.006.015-.006.015-.015.005-.015-.005-.08-.027a.19.19 0 0 0-.094.04.161.161 0 0 0-.072.111.22.22 0 0 0 .046.146c.036.053.077.083.122.091.042.01.085-.003.129-.033a.173.173 0 0 0 .067-.095c.008-.041-.004-.088-.038-.135l-.112.08-.024-.003.003-.025.123-.087.02-.006.017.011.106.15.003.014-.007.011-.015.006-.012-.008-.033-.046-.014.085-.065.074a.2.2 0 0 1-.158.042.228.228 0 0 1-.144-.104.229.229 0 0 1-.05-.165.202.202 0 0 1 .089-.142.232.232 0 0 1 .132-.05M142.594 120.63l.011.007.003.012-.007.014-.166.146-.01.02.007.019.086.1.171-.15.014-.005.011.005.004.011-.007.014-.17.15.096.112.016.01.02-.007.174-.153.014-.007.011.007.005.01-.01.016-.178.157-.045.017-.036-.021-.21-.243-.014-.038.022-.044.173-.152zM143.152 120.332l.001.023-.186.217h-.022v-.021l.184-.218zM143.21 119.924l.079.01.012.015v.015l-.013.01h-.017l-.069-.006-.059.051-.032.079.027.06.06.011a.263.263 0 0 0 .083-.059.285.285 0 0 1 .112-.077l.09.02c.032.021.046.053.045.093a.193.193 0 0 1-.042.11.199.199 0 0 1-.092.082c-.035.012-.072.006-.112-.017l-.01-.014.004-.012.01-.01.017.003.085.012a.146.146 0 0 0 .072-.062l.03-.078c.004-.032-.005-.057-.026-.072l-.065-.018c-.025.004-.056.026-.096.064a.324.324 0 0 1-.098.07l-.09-.015a.094.094 0 0 1-.041-.08.204.204 0 0 1 .044-.112c.028-.04.058-.065.092-.072M143.265 119.775l.003-.015.013-.01.015.003.354.215.008.014-.003.013-.012.008h-.014l-.353-.216zM143.348 119.629l.023-.022.036-.006.404-.044-.328-.167-.008-.01.003-.015.011-.01h.012l.366.185.013.027-.017.018-.058.01-.388.044.324.166.011.013-.003.014-.01.01-.016-.003-.362-.183zM143.672 118.976c.03-.018.063-.024.102-.018l.012.01.003.014-.007.012-.016.004a.116.116 0 0 0-.09.02.173.173 0 0 0-.054.077.149.149 0 0 0 .006.126c.022.042.061.073.119.094.058.022.107.025.15.008a.156.156 0 0 0 .085-.094.153.153 0 0 0 .008-.092.142.142 0 0 0-.062-.08l-.01-.014.005-.013.011-.01.018.003a.165.165 0 0 1 .068.084.197.197 0 0 1-.006.135.193.193 0 0 1-.108.117.235.235 0 0 1-.175-.007.228.228 0 0 1-.132-.11.182.182 0 0 1-.007-.159c.02-.05.044-.087.08-.107M143.77 118.539l.014-.001.01.007v.015l-.057.216.003.024.015.01.128.035.06-.221.007-.014.013-.001.01.008v.016l-.059.22.142.04.02-.002.012-.018.06-.224.009-.014.012-.001.008.008.003.015-.06.232-.03.04-.04.003-.308-.083-.033-.023-.007-.051.059-.222zM143.851 118.232c.026-.018.054-.025.087-.018.033.005.06.02.077.045a.437.437 0 0 1 .041.09l.006.015a.339.339 0 0 0 .054.102l.062.039.041-.23.008-.013.013-.003.01.008.004.012-.051.272a.174.174 0 0 1-.104-.052.304.304 0 0 1-.062-.112.423.423 0 0 0-.04-.094l-.067-.041-.06.014-.04.065.012.075.053.035.017.003.012.01.003.014-.008.012-.015.004-.015-.004a.104.104 0 0 1-.074-.047.154.154 0 0 1-.018-.107.154.154 0 0 1 .055-.094M143.931 117.868a.308.308 0 0 1 .158-.018c.061.007.11.025.15.054.043.031.061.071.056.117-.004.047-.03.08-.082.102a.303.303 0 0 1-.157.018.306.306 0 0 1-.148-.054c-.046-.032-.064-.072-.058-.117.004-.047.031-.08.08-.102m.002.191a.288.288 0 0 0 .13.042.282.282 0 0 0 .132-.01c.041-.015.065-.04.07-.075.001-.033-.014-.06-.05-.085a.306.306 0 0 0-.13-.043.3.3 0 0 0-.134.013c-.041.015-.064.038-.068.071-.004.035.014.064.05.087M143.954 117.501a.307.307 0 0 1 .156-.027.298.298 0 0 1 .154.045c.045.028.067.066.065.113-.003.046-.029.08-.076.105a.3.3 0 0 1-.157.029.301.301 0 0 1-.153-.044c-.045-.03-.067-.068-.064-.113.003-.046.028-.083.075-.108m.014.193a.339.339 0 0 0 .263.014c.04-.018.062-.044.064-.079 0-.033-.017-.06-.055-.082a.3.3 0 0 0-.131-.033.302.302 0 0 0-.134.019c-.04.018-.062.044-.062.077-.003.035.015.062.055.084M144.008 117.26l.014.039-.003.055v.007l-.029-.006.001-.001c.004-.033.001-.058-.01-.076l-.063-.039.004-.031.449.071-.005.038zm0 0" style="fill:#fff;fill-opacity:1;fill-rule:nonzero;stroke:none;stroke-width:.352778" transform="matrix(6.64747 0 0 6.64747 -880.498 -722.288)"/><path d="M149.115 114.763a2.97 2.97 0 0 1-.557-.468 3.986 3.986 0 0 1-.412-.516 2.59 2.59 0 0 1-.423.557c-.194.207-.373.37-.538.488l-.577-.55c.226-.197.413-.389.556-.577.145-.188.25-.374.32-.557.053-.142.1-.335.141-.578.042-.242.062-.463.062-.66v-1.01h.904v.997c0 .183.021.4.062.65.042.25.091.448.148.594.06.156.154.318.278.485.124.167.297.351.514.554zm.557-4.022h.825v5.232h-.825v-3.163h-.74v-.75h.74zm1.199-.097h.85v5.486h-.85zM155.585 110.74h.824v5.233h-.824v-2.208h-.76v-.75h.76v-.7h-.57a5.094 5.094 0 0 1-.155.44 3.661 3.661 0 0 1-.198.42 4.34 4.34 0 0 1-1.532 1.603l-.571-.53a3.693 3.693 0 0 0 1.173-1.108c.153-.22.278-.45.376-.69.098-.242.155-.48.173-.72h-1.394v-.755h2.304c.005.1.004.2-.003.299-.007.098-.014.196-.023.292h.42zm1.178-.096h.852v5.486h-.852zM161.62 114.708a3.606 3.606 0 0 1-.353-.244c-.126-.1-.251-.205-.372-.32a4.81 4.81 0 0 1-.34-.354 2.532 2.532 0 0 1-.257-.347c-.06.1-.142.212-.245.336a5.385 5.385 0 0 1-.331.365 5.74 5.74 0 0 1-.402.36 4.15 4.15 0 0 1-.39.287l-.531-.6c.276-.195.518-.412.728-.645.209-.234.36-.448.452-.64.078-.164.14-.378.188-.639a4.08 4.08 0 0 0 .073-.735v-.633h.897v.619c0 .252.028.515.085.79.057.275.126.5.209.675.092.191.233.387.423.587.19.2.41.379.657.54zm2.397-2.283v.75h-.83v2.907h-.86v-5.438h.86v1.78zM165.036 111.391a1.503 1.503 0 0 1 1.142-.499c.453 0 .836.166 1.15.5.31.331.468.734.468 1.205 0 .473-.157.875-.469 1.207a1.517 1.517 0 0 1-1.149.497c-.45 0-.83-.165-1.142-.497a1.702 1.702 0 0 1-.469-1.207c0-.471.157-.874.469-1.206m1.666.557a.65.65 0 0 0-.524-.266.65.65 0 0 0-.524.266.99.99 0 0 0-.216.649c0 .252.072.467.216.646a.65.65 0 0 0 .524.269.65.65 0 0 0 .524-.269c.143-.179.216-.394.216-.646a.997.997 0 0 0-.216-.65m1.702-1.31h.87v5.446h-.87zM170.643 110.892h.858v1.12h.988v-1.12h.859v3.685h-2.705zm.858 2.929h.988v-1.066h-.988zm2.796-3.184h.87v5.445h-.87v-3.025h-.773v-.776h.773zM178.912 114.24a3.584 3.584 0 0 1-.854.176 9.58 9.58 0 0 1-.756.037l-.884.007v-3.485h2.24v.776h-1.383v1.953l.112.007c.187.01.434-.006.737-.045.303-.038.567-.088.788-.147zm1.421-3.596h.852v5.486h-.852v-2.997h-.431v2.84h-.826v-5.232h.826v1.568h.431zM185.578 111.146v.743h-.648c.101.12.178.252.236.4a1.418 1.418 0 0 1-.345 1.498c-.285.288-.638.432-1.057.432-.418 0-.77-.144-1.054-.433a1.425 1.425 0 0 1-.34-1.498 1.47 1.47 0 0 1 .229-.4h-.662v-.742h1.375v-.693h.924v.693zm-1.375 1.053c-.135-.148-.281-.22-.438-.22-.158 0-.304.072-.439.22a.746.746 0 0 0-.204.522c0 .197.07.37.204.515.135.148.281.22.439.22.157 0 .303-.072.438-.22a.73.73 0 0 0 .204-.515.74.74 0 0 0-.204-.522m-.877 2.42h3.43v2.378h-.87v-1.636h-2.56zm4.256-2.365v.769h-.826v1.34h-.864v-3.726h.864v1.617zm0 0" style="fill:#4a4a4a;fill-opacity:1;fill-rule:nonzero;stroke:none;stroke-width:.352778" transform="matrix(6.64747 0 0 6.64747 -880.498 -722.288)"/><path d="M148.804 120.352h-.407l-.39-1.53-.391 1.53h-.403l-.593-2.262h.406l.387 1.536.397-1.536h.394l.397 1.539.393-1.54h.404zM151.485 118.364c.192.215.287.502.287.858 0 .363-.095.652-.287.869-.191.217-.447.326-.77.326-.324 0-.58-.109-.77-.326-.19-.217-.284-.506-.284-.869 0-.356.095-.643.284-.858.19-.215.446-.323.77-.323.323 0 .579.108.77.323m-.308 1.455c.111-.15.166-.349.166-.597 0-.238-.055-.432-.166-.582a.542.542 0 0 0-.462-.224.546.546 0 0 0-.464.224c-.112.15-.167.344-.167.582 0 .249.055.447.167.597.11.152.266.226.464.226a.538.538 0 0 0 .462-.226M153.674 120.357l-.622-.896h-.382v.893h-.396v-2.268h.937c.226 0 .416.063.566.187a.616.616 0 0 1 .227.499.592.592 0 0 1-.136.388.82.82 0 0 1-.353.25l.65.947zm-.213-1.35a.261.261 0 0 0 .122-.235c0-.108-.037-.186-.11-.234a.417.417 0 0 0-.243-.073h-.56v.618h.538a.477.477 0 0 0 .253-.075M154.474 120.352v-2.262h.397v1.895h1.16v.367zM157.97 118.408c.188.215.283.485.283.812 0 .33-.095.602-.283.817-.188.215-.446.322-.771.322h-.784v-2.273h.784c.325 0 .583.107.771.322m-.312 1.353a.892.892 0 0 0 .162-.541.872.872 0 0 0-.162-.534c-.11-.148-.282-.221-.517-.221h-.33v1.52h.33c.235 0 .408-.075.517-.224M161.808 119.556c-.047.22-.149.416-.306.593-.157.176-.388.264-.69.264-.327 0-.583-.107-.77-.324-.188-.216-.282-.505-.282-.87 0-.356.094-.643.282-.856.187-.214.443-.322.77-.322.304 0 .536.089.693.262.159.175.26.353.303.532h-.428a.79.79 0 0 0-.182-.292c-.084-.084-.212-.127-.386-.127a.55.55 0 0 0-.464.218c-.11.145-.166.34-.166.586 0 .252.055.452.166.602.11.149.264.223.464.223.167 0 .295-.048.383-.146a.785.785 0 0 0 .185-.343zM163.106 119.426v.928h-.402v-.925l-.854-1.342h.472l.582.916.581-.916h.476zM165.946 119.358a.508.508 0 0 1 .094.363.586.586 0 0 1-.253.467.94.94 0 0 1-.565.171h-.953v-2.272h.975c.212 0 .376.05.494.154a.58.58 0 0 1 .164.681.657.657 0 0 1-.179.225.855.855 0 0 1 .224.21m-.509-.443a.253.253 0 0 0 .088-.206c0-.08-.029-.14-.085-.181a.42.42 0 0 0-.248-.064h-.527v.525h.524a.375.375 0 0 0 .248-.074m.074.985a.326.326 0 0 0 .1-.238c.004-.095-.028-.168-.098-.22a.488.488 0 0 0-.292-.075h-.556v.619h.549c.136 0 .234-.028.297-.086M166.498 120.352v-2.262h1.619v.375h-1.222v.533h1.168v.375h-1.168v.612h1.244v.367zM170.006 120.357l-.623-.896h-.38v.893h-.397v-2.268h.937c.226 0 .415.063.567.187a.616.616 0 0 1 .227.499.592.592 0 0 1-.136.388.837.837 0 0 1-.353.25l.65.947zm-.212-1.35c.08-.05.12-.13.12-.235 0-.108-.036-.186-.108-.234a.421.421 0 0 0-.245-.073h-.558v.618h.536c.09 0 .174-.026.255-.075M173.873 119.556c-.047.22-.149.416-.306.593-.157.176-.389.264-.69.264-.327 0-.583-.107-.77-.324-.188-.216-.282-.505-.282-.87 0-.356.094-.643.281-.856.188-.214.444-.322.77-.322.305 0 .537.089.694.262.158.175.259.353.303.532h-.429a.773.773 0 0 0-.181-.292c-.085-.084-.213-.127-.386-.127a.55.55 0 0 0-.465.218c-.11.145-.164.34-.164.586 0 .252.054.452.164.602.11.149.265.223.465.223.166 0 .295-.048.384-.146a.797.797 0 0 0 .183-.343zM176.104 118.364c.192.215.287.502.287.858 0 .363-.095.652-.287.869-.192.217-.45.326-.77.326-.324 0-.58-.109-.77-.326-.19-.217-.285-.506-.285-.869 0-.356.096-.643.284-.858.19-.215.447-.323.77-.323.322 0 .58.108.771.323m-.309 1.455c.112-.15.167-.349.167-.597 0-.238-.055-.432-.167-.582a.542.542 0 0 0-.461-.224.546.546 0 0 0-.465.224c-.111.15-.168.344-.168.582 0 .249.057.447.168.597.11.152.266.226.465.226a.538.538 0 0 0 .461-.226M176.892 120.352v-2.262h.397v1.895h1.16v.367zM178.833 120.352v-2.262h.396v1.895h1.16v.367zM180.773 120.352v-2.262h1.619v.375h-1.224v.533h1.17v.375h-1.17v.612h1.246v.367zM184.443 120.352v-.183a.997.997 0 0 1-.258.175.793.793 0 0 1-.346.073c-.325 0-.582-.11-.77-.328-.186-.218-.28-.507-.28-.87 0-.358.094-.643.28-.856.188-.214.445-.322.77-.322.304 0 .537.089.696.262.158.175.26.353.304.535h-.435a.734.734 0 0 0-.18-.295c-.082-.084-.211-.127-.385-.127a.54.54 0 0 0-.467.222c-.108.149-.161.342-.161.582 0 .24.053.44.16.594a.53.53 0 0 0 .468.231c.17 0 .307-.052.412-.157a.62.62 0 0 0 .182-.379h-.54v-.365h.95v1.208zM185.395 120.352v-2.262h1.619v.375h-1.222v.533h1.168v.375h-1.168v.612h1.244v.367zm0 0" style="fill:#7f7f7f;fill-opacity:1;fill-rule:nonzero;stroke:none;stroke-width:.352778" transform="matrix(6.64747 0 0 6.64747 -880.498 -722.288)"/></svg>