<svg xmlns="http://www.w3.org/2000/svg" width="153.76706mm" height="153.76706mm" viewBox="0 0 153.76706 153.76706"><g transform="translate(69.305 -101.749)"><circle cx="7.5781016" cy="178.63249" r="76.88353" style="fill:#fff;stroke-width:.264583"/><g style="stroke-width:.475731"><g style="stroke-width:.475731"><path d="M0 0c55.286 0 100.121 44.831 100.121 100.125 0 55.292-44.835 100.122-100.121 100.122-55.288 0-100.121-44.83-100.121-100.122C-100.121 44.831-55.288 0 0 0m-102.513 100.125c0 56.61 45.891 102.52 102.513 102.52 56.619 0 102.515-45.91 102.515-102.52C102.515 43.52 56.619-2.39 0-2.39c-56.622 0-102.513 45.91-102.513 102.515" style="fill:#1e59ae;fill-opacity:1;fill-rule:nonzero;stroke:none;stroke-width:.475731" transform="matrix(.74155 0 0 -.74155 7.379 252.863)"/></g><g style="stroke-width:.475731"><path d="M0 0c37.306 0 67.546 30.23 67.546 67.539 0 37.307-30.24 67.552-67.546 67.552-37.308 0-67.545-30.245-67.545-67.552C-67.545 30.23-37.308 0 0 0m-69.463 67.539c0 38.357 31.109 69.469 69.463 69.469 38.36 0 69.456-31.112 69.456-69.469C69.456 29.186 38.36-1.918 0-1.918c-38.354 0-69.463 31.104-69.463 69.457" style="fill:#1e59ae;fill-opacity:1;fill-rule:nonzero;stroke:none;stroke-width:.475731" transform="matrix(.74155 0 0 -.74155 6.91 228.699)"/></g><g style="stroke-width:.475731"><path d="M0 0h-46.078v7.614h-6.754V0H-99.574v-19.311h6.758v12.537h24.568v-12.537h6.766v12.537h23.961v-12.537h6.78v12.537h24.418v-12.537H.44V0Z" style="fill:#1e59ae;fill-opacity:1;fill-rule:nonzero;stroke:none;stroke-width:.475731" transform="matrix(.74155 0 0 -.74155 44.05 145.957)"/></g><g style="stroke-width:.475731"><path d="M0 0c-.654-2.271-4.405-7.283-9.65-9.66-2.298-1.035-3.053-1.345-3.738-.161-.682 1.176-.835 2.03 1.867 4.737 2.715 2.707 9.528 12.063 8.977 16.427-.339 2.714-.339 5.076-5.75 6.598-1.147.325-.687-.67-.184-1.693.519-1.008 1.703-5.921-1.342-11.511-3.045-5.583-9.489-14.227-14.234-16.244-4.73-2.044-7.62-2.721-8.632-1.205-1.023 1.529.172 2.538 2.366 3.899C-28.114-7.453-16.602 0-14.902 5.597c0 0-9.314-9.828-25.751-14.566-5.806-1.683-15.347-4.039-20.146 1.347-1.353 1.53-4.237 6.606.678 5.422 4.916-1.193 8.467-2.2 13.55-1.529 5.064.681 22.182 2.381 35.233 18.117.774.944 1.018 1.361 0 3.735-1.027 2.363-2.05 4.908-3.23 4.908-1.182 0-1.519-1.353-1.519-2.707 0-1.353 0-.853-.856-1.191-.844-.332-1.858-.162-1.858-.162-.681.162-1.523.34-1.347 1.677.162 1.375.162 3.407.337 4.421.174 1.007.502 1.514 2.366 1.361 1.865-.184 7.456.506 12.354-4.244C-.169 17.434 3.723 13.041 0 0m-48.503 30.992a3.114 3.114 0 0 0 3.116 3.109 3.117 3.117 0 0 0 3.106-3.109 3.115 3.115 0 0 0-3.106-3.11 3.113 3.113 0 0 0-3.116 3.11m6.831-4.746c3.06.86 7.628 3.399 9.32 3.399 1.7 0 1.7 0 2.714-.854 1.009-.847 1.863-2.545 6.269-1.531 1.197.283 1.518 0 1.183-1.53-.344-1.515-.845-3.544-1.353-4.398-.515-.846-.515-1.008-2.199-.324-1.698.67-7.805 2.708-11.362 2.708-3.553 0-6.937-.685-8.632-1.368-1.696-.67-2.873-1.177-3.885 0a131.846 131.846 0 0 0-1.709 2.037c-.829.508-.328 1.345 1.025 1.345 1.347 0 5.591-.331 8.629.516M-54.7 39.287c.156 1.869.331 3.893 1.53 3.73 1.17-.175 1.015-1.022 1.844-1.523.853-.514 1.864-1.19 2.372-.338.52.839.676 1.347 1.364 1.347.673 0 .848-.169 1.181-1.523.339-1.347.507-1.347 1.353-1.183.854.161 2.206.676 3.549-.164 0 0 1.71 1.179 3.396-.174 0 0 2.206.174 2.882 1.521 0 0-.175-1.022 1.185-1.022 1.358 0 3.724 3.397 3.724 3.397s5.25-7.789 6.439-7.957c0 0 4.741-.516 5.764.852 1.014 1.339.5 1-1.192 1.686-1.695.675-6.269 2.537-6.269 2.537s3.048.683 5.082 0c2.041-.676 3.894-1.692 6.426-1.014 2.549.683 9.492 4.234 11.357 8.459.778 1.777 1.529-.156.85-1.508-.681-1.361-4.073-5.598-10.671-9.668-.831-.513-1.355-1.176.169-1.697 1.522-.509 4.738-.332 9.994-6.092 1.533-1.672 1.857-1.847 1.015-2.707-.843-.847-2.028.337-3.387 1.353-1.355 1.022-5.077 4.4-12.702 4.921-2.756.176-6.27-.86-8.466-.676-2.203.155-6.775.492-10.174 1.347-3.372.852-8.971 2.207-12.869 2.207-.663 0-1.171-.17-1.847-.685-.699-.508-1.199.169-2.211 1.184-1.011 1.023-1.865 1.53-1.688 3.39m75.83 15.85H-79.129s-.892-24.436 0-30.703c6.758-48.575 50.122-58.415 50.122-58.415s43.361 9.84 50.137 58.415c.866 6.267 0 30.703 0 30.703" style="fill:#1e59ae;fill-opacity:1;fill-rule:nonzero;stroke:none;stroke-width:.475731" transform="matrix(.74155 0 0 -.74155 28.889 203.228)"/></g><g style="stroke-width:.475731"><path d="M0 0a4.822 4.822 0 0 1 2.563-.578c.93.035 1.636.5 2.116 1.382.468.853.47 1.678.009 2.478a4.741 4.741 0 0 1-1.865 1.836 4.535 4.535 0 0 1-2.522.558c-.89-.057-1.566-.522-2.031-1.376-.479-.881-.507-1.713-.065-2.502A4.434 4.434 0 0 1 0 0m41.866-80.554-.134-5.807-3.771.09.346 15.624 3.777-.079-.123-5.801 17.572-.409-.084-4.011zM57.807-94.9l-21.073 3.618.676 3.955 21.077-3.611zm-2.655-12.301c-2.231-6.649-6.871-6.352-9.4-5.522l1.239 3.66c1.135-.359 3.454-.565 4.57 2.756.599 1.806.796 3.963-1.351 4.689-1.583.529-2.456-.692-3.613-2.453l-1.163-1.784c-1.755-2.686-3.445-5.288-7.904-3.786-2.255.746-5.864 3.194-3.873 9.095 1.871 5.583 6.436 5.717 8.929 4.92l-1.228-3.672c-.937.21-3.193.628-4.293-2.708-.5-1.437-.486-3.363 1.343-3.976 1.59-.538 2.323.521 2.778 1.206l2.7 4.032c1.506 2.269 3.412 4.174 7.044 2.955 6.094-2.045 4.754-7.805 4.222-9.412m-7.808-16.469c-1.004.296-2.016.741-3.884 1.897-2.497 1.536-3.536 2.002-5.105-.523l-2.189-3.532 7.117-4.406-2.072-3.342-18.174 11.239 5.117 8.268c2.698 4.344 6.761 2.947 8.333 1.967 1.995-1.241 3.152-3.209 2.754-5.209 1.495.945 2.499 1.318 5.882-.777 2.665-1.649 3.328-2.043 4.078-1.515l.484-.295zm-20.558-25.409-15.115 15.081 10.005 10.011 2.672-2.673-7.213-7.212 3.18-3.188 6.616 6.635 2.673-2.671-6.625-6.627 3.927-3.914 7.53 7.536 2.678-2.67zm-13.105-9.291-16.945 14.565 3.638 2.313 12.172-11.456.052.026-5.178 15.905 3.54 2.236 5.942-21.546zM.313-165.125l-8.54 19.592 3.691 1.608 8.53-19.593zm-9.32-3.326-11.318 12.865-.052-.007 3.693-14.791-3.63-.916-5.189 20.734 4.092 1.037 11.03-12.585h.057l-3.618 14.446 3.628.923 5.21-20.74zm-26.43-4.35c-1.777-.007-4.398.45-6.111 2.56-1.064 1.302-1.467 3.037-1.531 5.18l-.07 14.17 4.096.007.07-13.867c.004-2.968 1.577-4.271 3.443-4.265 2.762.014 3.875 1.516 3.871 4.09l-.066 14.085 4.095.007.057-13.889c.028-5.632-3.004-8.045-7.854-8.078m-18.742 16.99-3.802 1.305c.273.775-.142 3.763-2.823 4.681-2.711.937-5.935-.269-7.729-5.45-1.906-5.514.313-7.882 2.894-8.77.832-.296 3.743-.895 5.939 2.919l-4.219 1.458 1.164 3.398 7.6-2.623-3.762-10.878-2.533.875.497 2.666c-1.394-.925-3.421-2.264-6.737-1.109-4.368 1.517-7.146 6.374-4.688 13.46 1.893 5.512 6.457 9.757 12.572 7.628 5.578-1.938 6.371-6.726 5.627-9.56m-30.96-2.785 1.847 17.039-.041.029-8.405-12.71-3.123 2.05 11.766 17.837 3.533-2.32-1.816-16.623.035-.035 8.193 12.415 3.139-2.06-11.764-17.828zm-21.051 16.538c-1.209 1.298-2.637 3.547-2.255 6.241.253 1.656 1.25 3.117 2.784 4.625l10.381 9.636 2.789-3.002-10.164-9.44c-2.188-2.031-2.097-4.055-.814-5.436 1.868-2.031 3.726-1.839 5.633-.064l10.317 9.567 2.782-3.003-10.187-9.448c-4.132-3.82-7.971-3.242-11.266.324m-11.386 16.075-1.995 3.49 7.008 4.005 8.258 12.357 2.345-4.117-6.077-8.065 9.954 1.298 2.257-3.948-14.799-1.051zm-8.629 18.204 17.194 4.8-.013.049-18.155-1.338-1.052 3.799 16.246 8.172-.013.04-17.189-4.784-1.023 3.615 20.59 5.725 1.568-5.64-15.287-7.876.024-.049 17.138 1.22 1.566-5.597-20.575-5.746zm-5.104 35.685 21.354.459.304-14.135-3.78-.084-.217 10.215-4.492-.099.198-9.375-3.773-.086-.21 9.369-5.524-.118.222-10.654-3.776-.077zm1.404 13.84c1.384 6.881 6.026 7.178 8.635 6.643l-.764-3.774c-1.175.197-3.494.134-4.192-3.306-.373-1.868-.303-4.039 1.924-4.498 1.625-.325 2.348 1.008 3.281 2.898l.932 1.91c1.395 2.891 2.753 5.69 7.358 4.752 2.332-.467 6.216-2.433 4.986-8.552-1.173-5.774-5.678-6.471-8.256-5.978l.777 3.772c.942-.086 3.226-.211 3.92 3.215.307 1.516.045 3.418-1.845 3.793-1.623.338-2.235-.805-2.594-1.538l-2.182-4.356c-1.226-2.426-2.859-4.555-6.615-3.793-6.311 1.275-5.695 7.156-5.365 8.812m13.781 14.861a2.29 2.29 0 0 0 2.291-2.291 2.284 2.284 0 0 0-2.291-2.305 2.296 2.296 0 0 0-2.309 2.305 2.302 2.302 0 0 0 2.309 2.291m1.484 18.475 5.687-4.586c.267-.219 1.036-.775 2.298-1.664 1.261-.895 2.961-1.191 5.097-.889.825.121 1.495.262 1.998.424.508.162.85.282 1.03.366l-6.207 5.013-1.862-2.299-1.748 1.411 1.854 2.298-5.244 4.237 2.226 2.764 16.099-12.993-2.232-2.764-2.763 2.235.029-2.725a11.442 11.442 0 0 1-.551-.219 13.306 13.306 0 0 0-1.438-.455c-1.121-.309-2.136-.474-3.048-.486-.914-.007-1.4-.018-1.46-.018.021-.066.123-.602.31-1.595a11.07 11.07 0 0 0 .166-2.934 27.71 27.71 0 0 0-.139-1.371c-.052-.434-.088-.674-.102-.713l-2.805-.547c.014.041.049.347.114.91.062.571.069 1.346.016 2.327-.145 2.142-.772 3.726-1.885 4.755-1.121 1.027-1.822 1.661-2.115 1.893l-5.738 4.633zm8.287 10.987 16.096-12.993-2.228-2.764-16.099 12.994zm29.377 22.233.734-1.421 2.63 1.357-.945 1.819 3.419 1.762L-65.258.43-68.2-1.089c1.046.116 1.987.046 2.822-.211.832-.262 1.445-.772 1.833-1.526.43-.833.462-1.707.091-2.631-.365-.923-.947-1.804-1.754-2.665a15.64 15.64 0 0 0-2.236-1.938 19.782 19.782 0 0 0-2.489-1.537 21.224 21.224 0 0 0-2.544-1.1 16.515 16.515 0 0 0-2.764-.733c-1.297-.243-2.495-.274-3.582-.088-1.098.186-1.873.716-2.326 1.597-.44.853-.437 1.762.007 2.721.448.972 1.116 1.889 2.017 2.778a16.805 16.805 0 0 0 2.291 1.917 22.242 22.242 0 0 0 2.467 1.499c.826.426 1.725.807 2.708 1.145a15.41 15.41 0 0 0 2.89.705l-1.656 3.215-2.631-1.354.823-1.593-12.349-6.377-4.745 9.186zm29.758 8.632h9.438v-2.249h-5.623V1.17h2.901c.454 0 .948.004 1.491.011a12.82 12.82 0 0 1 1.527.102c.571.075 1.005.155 1.299.247.296.092.452.134.474.134v15.718h3.845v-6.743h2.069v6.743h3.878V-3.306h-3.878V8.39h-2.069V-3.306h-3.845v2.679c-.022-.014-.24-.064-.667-.148a9.585 9.585 0 0 0-1.223-.169 66.133 66.133 0 0 0-1.48-.077 40.135 40.135 0 0 0-1.713-.036h-6.424zM-6.82.036l17.159-9.37-3.716-6.81-3.376 1.847 2.637 4.833-13.783 7.522zm1.688 6.119c.402.737.97 1.247 1.692 1.526a7.045 7.045 0 0 0 2.162.472l-1.975 1.076 1.078 1.974 4.569-2.496.648 1.188L6.7 7.896l-.647-1.184 4.645-2.538-1.07-1.97L7.52 3.349c.436-.765.732-1.501.887-2.214.149-.705.026-1.424-.376-2.164-.699-1.276-1.935-1.992-3.706-2.154-1.768-.159-3.559.257-5.379 1.252-1.819.99-3.13 2.263-3.926 3.827-.797 1.566-.847 2.983-.152 4.259m21.667-4.138-1.941-3.554 2.464-1.346-1.072-1.974-2.467 1.346-2.693-4.935-3.378 1.844L13.159 3.86zm3.599-25.052 1.707-2.377 7.674 5.506 2.065-2.887-7.67-5.506 1.396-1.945 7.67 5.506 2.073-2.883-7.67-5.506 1.276-1.777c.035 0 .236.027.607.074.374.045.697.137.976.264a18.62 18.62 0 0 1 1.815.92c.592.341 1.226.751 1.896 1.23l7.748 5.562-8.454 11.774 1.827 1.312 10.695-14.896-7.543-5.416a537.091 537.091 0 0 1-2.414-1.733 20.986 20.986 0 0 0-2.112-1.333c-.72-.367-1.333-.627-1.859-.786-.525-.158-.8-.236-.838-.236l1.378-1.926-1.825-1.31-12.247 17.057zm23.968-24.954a2.29 2.29 0 0 0-2.302 2.305 2.295 2.295 0 0 0 2.302 2.291 2.291 2.291 0 0 0 2.291-2.291 2.286 2.286 0 0 0-2.291-2.305m-7.456-28.868c0-39.686-32.169-71.856-71.861-71.856-39.687 0-71.848 32.17-71.848 71.856 0 39.69 32.161 71.852 71.848 71.852 39.692 0 71.861-32.162 71.861-71.852M57.39-54.934l.762-3.947-7.918-1.537-11.794-9.045-.91 4.658 8.352 5.684-9.82 1.961-.879 4.476 14.353-3.772zm-92.605 75.33c-53.71 0-97.243-43.541-97.243-97.253 0-53.702 43.533-97.249 97.243-97.249 53.707 0 97.247 43.547 97.247 97.249 0 53.712-43.54 97.253-97.247 97.253M-73.337-5.005c-1.526-.783-2.672-1.671-3.44-2.651-.77-.973-1.001-1.766-.692-2.365.318-.61 1.097-.893 2.348-.843 1.245.056 2.629.48 4.159 1.266 1.524.789 2.612 1.646 3.264 2.569.649.931.818 1.699.509 2.313-.314.599-1.038.895-2.179.884-1.135-.003-2.461-.391-3.969-1.173m-3.342 4.35-2.683 5.196-5.52-2.849 2.683-5.195zm5.125 4.9-.938 1.815-2.626-1.358.941-1.811zm106.3-119.998c-.959.599-2.611 1.085-3.863-.923l-2.622-4.253 4.848-3.016 2.479 4.018c1.107 1.784.949 3.066-.842 4.174" style="fill:#1e59ae;fill-opacity:1;fill-rule:nonzero;stroke:none;stroke-width:.475731" transform="matrix(.74155 0 0 -.74155 33.492 121.622)"/></g></g></g></svg>