<svg xmlns="http://www.w3.org/2000/svg" xml:space="preserve" width="800.00378" height="800" viewBox="0 0 800.00377 800"><defs><clipPath id="a" clipPathUnits="userSpaceOnUse"><path d="M0 595.275h841.89V0H0Z"/></clipPath></defs><g clip-path="url(#a)" transform="matrix(1.88053 0 0 -1.88053 -408.935 951.98)"><path d="M0 0c-112.115 0-203.001 90.884-203.001 202.996 0 112.113 90.886 202.999 203.001 202.999 112.115 0 203.001-90.881 203.001-202.999C203.001 90.884 112.115 0 0 0m0 414.958c-117.475 0-212.707-95.235-212.707-212.707C-212.707 84.778-117.475-10.454 0-10.454s212.707 95.232 212.707 212.705c0 117.472-95.232 212.707-212.707 212.707" style="fill:#ba093c;fill-opacity:1;fill-rule:nonzero;stroke:none" transform="translate(430.164 91.272)"/><path d="M0 0c-78.667 0-142.666-64.001-142.666-142.67 0-78.668 63.999-142.669 142.666-142.669 78.666 0 142.666 64.001 142.666 142.669C142.666-64.001 78.666 0 0 0m0-287.339c-79.769 0-144.666 64.898-144.666 144.669C-144.666-62.899-79.769 2 0 2c79.77 0 144.666-64.899 144.666-144.67 0-79.771-64.896-144.669-144.666-144.669" style="fill:#ba093c;fill-opacity:1;fill-rule:nonzero;stroke:none" transform="translate(430.91 436.566)"/><path d="M0 0a8.447 8.447 0 0 0-8.448-8.446c-4.662 0-8.448 3.782-8.448 8.446A8.449 8.449 0 1 0 0 0" style="fill:#231f20;fill-opacity:1;fill-rule:nonzero;stroke:none" transform="translate(617.482 264.584)"/><path d="M0 0a8.447 8.447 0 0 0-8.448-8.451c-4.662 0-8.449 3.785-8.449 8.451a8.45 8.45 0 0 0 8.449 8.451A8.444 8.444 0 0 0 0 0" style="fill:#231f20;fill-opacity:1;fill-rule:nonzero;stroke:none" transform="translate(260.531 265.63)"/><path d="M0 0s-6.756-17.865 1.195-34.408c0 0-6.095 2.94-9.797 3.376 0 0-1.199-13.502 5.112-21.344 0 0-9.027-.43-12.297-3.043 0 0 4.355-14.695 23.079-20.578 0 0 1.96-4.141 2.51-4.903 0 0-14.157.547-21.234-3.043 0 0 7.841-11.98 23.304-17.861l-2.62-.65s8.057-16.226 28.09-22.64c0 0-10.667-5.127-11.752-7.413 0 0 14.917-15.675 38.972-11.866 0 0-5.987-8.167-6.203-9.8 0 0 11.758-4.456 29.721.545 0 0-.44-1.74-.545-2.933 0 0 10.892-1.972 24.609 7.181 0 0 3.481-2.832 5.331-3.812 0 0-26.459-5.876-28.414-7.732l11.866-8.711s22.324 13.499 45.077 12.954l7.746 6.63-8.123 10.153s-11.537.752-12.676-10.019l-1.524-.385s-.249 24.217-31.824 29.292c0 0 .506-3.553.635-4.442 0 0-6.846 10.784-26.254 13.569 0 0-4.943 12.181-14.572 17.633 0 0-5.585-1.016-4.824-22.194 0 0-4.944 6.214-11.925 10.394 0 0 .512 5.071-.378 10.154 0 0 16.482 6.838 16.993 23.711 0 0-12.044 3.164-22.319-6.212 0 0-3.677 5.955-5.962 7.609 0 0 13.698 5.192 13.569 27.134 0 0 3.045 1.524 6.722 6.343 0 0-13.058 10.015-30.943-.761 0 0 4.058 31.321-20.158 38.417" style="fill:#ba093c;fill-opacity:1;fill-rule:nonzero;stroke:none" transform="translate(285.24 317.213)"/><path d="M0 0s-5.828-25.357 8.754-37.662c0 0-2.916 16.612-7.229 25.365 0 0-1 1.902.593 3.114 0 0 1.491 1.212 2.701-1.307 0 0 6.532-15.302 8.028-26.49 0 0 6.694 22.661-12.847 36.98" style="fill:#fff;fill-opacity:1;fill-rule:nonzero;stroke:none" transform="translate(287.832 313.247)"/><path d="M0 0s12.412-4.2 15.673-19.313c0 0-8.491 1.118-15.673 19.313" style="fill:#fff;fill-opacity:1;fill-rule:nonzero;stroke:none" transform="translate(283.6 279.81)"/><path d="M0 0s5.034-8.394 7.649-11.002l-2.055.089S-.66-4.853 0 0" style="fill:#fff;fill-opacity:1;fill-rule:nonzero;stroke:none" transform="translate(281.555 275.05)"/><path d="M0 0s22.113 4.387 30.04-11.104c0 0-22.295 10.547-26.679 10.447 0 0-2.424.1-1.865-1.489C1.496-2.146.187-.93 0 0" style="fill:#fff;fill-opacity:1;fill-rule:nonzero;stroke:none" transform="translate(274.459 260.402)"/><path d="M0 0s21.932-8.579 25.848-11.663c0 0-7.646-2.238-16.424 2.708 0 0-9.611 5.506-9.611 8.955" style="fill:#fff;fill-opacity:1;fill-rule:nonzero;stroke:none" transform="translate(277.906 256.577)"/><path d="M0 0s6.254-.098 8.215.56c0 0-.383-8.301-.182-9.616C8.033-9.056.937-6.809 0 0" style="fill:#fff;fill-opacity:1;fill-rule:nonzero;stroke:none" transform="translate(297.504 240.72)"/><path d="M0 0s.751.657 2.051.842c0 0-.928-1.585-.091-2.898C1.96-2.056 0-1.121 0 0" style="fill:#fff;fill-opacity:1;fill-rule:nonzero;stroke:none" transform="translate(280.804 231.201)"/><path d="M0 0s20.798 2.899 23.504-11.935c0 0-9.792 7.926-23.504 11.935" style="fill:#fff;fill-opacity:1;fill-rule:nonzero;stroke:none" transform="translate(284.538 232.411)"/><path d="M0 0s15.864-5.508 19.412-9.89c0 0-8.492-1.961-19.412 9.89" style="fill:#fff;fill-opacity:1;fill-rule:nonzero;stroke:none" transform="translate(283.787 228.777)"/><path d="M0 0s-2.243-15.586 4.661-25.469l3.825-1.119S2.979-13.339 2.142-5.881c0 0-1.029 5.881-1.215 7.375 0 0-.745.089-.927-1.494" style="fill:#fff;fill-opacity:1;fill-rule:nonzero;stroke:none" transform="translate(309.448 241)"/><path d="M0 0s3.538-21.36 9.888-28.912c0 0 2.141 19.866-9.888 28.912" style="fill:#fff;fill-opacity:1;fill-rule:nonzero;stroke:none" transform="translate(313.832 242.114)"/><path d="M0 0s7.176 6.815 9.796 8.214c0 0-5.14.839-10.356-4.946z" style="fill:#fff;fill-opacity:1;fill-rule:nonzero;stroke:none" transform="translate(325.217 232.88)"/><path d="M0 0s9.52 8.579 12.785 9.887c0 0 .651-7.471-11.948-13.813z" style="fill:#fff;fill-opacity:1;fill-rule:nonzero;stroke:none" transform="translate(326.517 229.715)"/><path d="M0 0s25.747 2.895 36.285-15.481c0 0-21.177 12.498-30.041 14.273 0 0-3.729.655-3.265-1.864z" style="fill:#fff;fill-opacity:1;fill-rule:nonzero;stroke:none" transform="translate(301.425 212.634)"/><path d="M0 0s19.029-7.646 29.017-14.363c0 0-17.825-2.044-29.017 14.363" style="fill:#fff;fill-opacity:1;fill-rule:nonzero;stroke:none" transform="translate(306.087 208.434)"/><path d="M0 0s15.668-14.932 34.984-7.657c0 0-21.175 5.322-25.565 6.158 0 0-2.52.282-2.328 1.867 0 0-.192 2.054 3.356 1.403 0 0 19.594-3.27 24.351-5.785 0 0-9.797 17.261-34.798 4.014" style="fill:#fff;fill-opacity:1;fill-rule:nonzero;stroke:none" transform="translate(317.098 185.213)"/><path d="M0 0s-3.079-24.812 17.068-30.499c0 0-11.651 11.563-16.877 30.598" style="fill:#fff;fill-opacity:1;fill-rule:nonzero;stroke:none" transform="translate(343.868 211.517)"/><path d="M0 0s1.492 1.028 2.238-1.124c0 0 8.86-24.25 13.616-26.487 0 0-1.391 19.965-14.926 30.32 0 0-.842-.842-.928-2.709" style="fill:#fff;fill-opacity:1;fill-rule:nonzero;stroke:none" transform="translate(344.9 214.503)"/><path d="M0 0s10.078 16.603 27.233 9.513L4.197 1.867S1.95 1.21 2.424-.191z" style="fill:#fff;fill-opacity:1;fill-rule:nonzero;stroke:none" transform="translate(349.285 165.435)"/><path d="M0 0s17.451 4.944 21.09 7.088c0 0 3.074-1.03 4.576-.841 0 0-14.277-8.492-25.666-6.247" style="fill:#fff;fill-opacity:1;fill-rule:nonzero;stroke:none" transform="translate(358.23 165.435)"/><path d="M0 0s5.876 3.083 7.182 4.948c0 0 1.768-.282 4.388-.094C11.57 4.854 6.436-.277 0 0" style="fill:#fff;fill-opacity:1;fill-rule:nonzero;stroke:none" transform="translate(379.416 164.403)"/><path d="m0 0-.191-5.321s3.174-1.116 2.706-3.073l4.002.086S2.61-3.175 0 0" style="fill:#fff;fill-opacity:1;fill-rule:nonzero;stroke:none" transform="translate(364.772 189.129)"/><path d="M0 0s10.17-22.68 24.069-26.5c0 0-10.825 13.811-20.803 23.137 0 0-1.496 1.395-.468 3.363z" style="fill:#fff;fill-opacity:1;fill-rule:nonzero;stroke:none" transform="translate(363.088 200.516)"/><path d="M0 0s11.566-11.384 17.069-16.885c0 0-5.876 15.013-17.069 16.885" style="fill:#fff;fill-opacity:1;fill-rule:nonzero;stroke:none" transform="translate(370.088 197.902)"/><path d="M0 0s.66-19.586 16.424-24.625c0 0-12.69 16.236-12.785 17.172 0 0-1.306 1.577-.646 2.794 0 0 1.492 1.489 2.888-.469 0 0 13.99-17.821 17.165-19.873 0 0 1.587 0 .464 4.482 0 0-4.194 14.834-23.51 20.519" style="fill:#fff;fill-opacity:1;fill-rule:nonzero;stroke:none" transform="translate(389.485 191.457)"/><path d="M0 0s5.016 11.002 18.909 8.559c0 0 1.421-.453.517-.84 0 0-14.607-3.598-18.652-8.293 0 0-1.353-.968-.774.574" style="fill:#fff;fill-opacity:1;fill-rule:nonzero;stroke:none" transform="translate(304.887 271.815)"/><path d="M0 0s16.404 6.816 18.207 7.652c0 0-3.476-8.098-18.207-7.652" style="fill:#fff;fill-opacity:1;fill-rule:nonzero;stroke:none" transform="translate(308.228 269.31)"/><path d="M0 0s4.37-1.028 5.461-.772l.066-12.474S.191-9.457 0 0" style="fill:#fff;fill-opacity:1;fill-rule:nonzero;stroke:none" transform="translate(302.06 265.45)"/><path d="M0 0s3.409 6.498 4.953 14.991c0 0-5.465.447-5.656-3.215C-.903 8.111 0 0 0 0" style="fill:#fff;fill-opacity:1;fill-rule:nonzero;stroke:none" transform="translate(311.638 251.617)"/><path d="M0 0s5.47 11.192 5.919 17.238l5.149 3.601S11.26 5.345 1.482-.323c0 0-2.061-1.413-1.482.323" style="fill:#fff;fill-opacity:1;fill-rule:nonzero;stroke:none" transform="translate(314.727 250.527)"/><path d="M0 0s6.751-17.865-1.2-34.405c0 0 6.1 2.937 9.801 3.373 0 0 1.195-13.502-5.121-21.344 0 0 9.037-.43 12.307-3.043 0 0-4.355-14.695-23.084-20.578 0 0-1.955-4.141-2.505-4.903 0 0 14.153.547 21.234-3.043 0 0-7.846-11.98-23.299-17.861l2.615-.65s-8.061-16.226-28.095-22.639c0 0 10.672-5.128 11.762-7.414 0 0-14.922-15.675-38.98-11.866 0 0 5.985-8.167 6.201-9.8 0 0-11.753-4.456-29.716.545 0 0 .435-1.74.545-2.933 0 0-10.897-1.972-24.609 7.184 0 0-3.49-2.835-5.335-3.815 0 0 26.458-5.876 28.418-7.732l-11.866-8.711s-22.319 13.499-45.078 12.954l-7.75 6.63 8.119 10.153s11.536.752 12.68-10.019l1.519-.385s.25 24.217 31.834 29.292c0 0-.506-3.553-.635-4.442 0 0 6.846 10.784 26.249 13.569 0 0 4.943 12.181 14.582 17.633 0 0 5.575-1.016 4.819-22.194 0 0 4.944 6.214 11.92 10.399 0 0-.507 5.066.383 10.149 0 0-16.491 6.838-16.993 23.711 0 0 12.039 3.168 22.314-6.212 0 0 3.682 5.955 5.967 7.609 0 0-13.703 5.192-13.578 27.134 0 0-3.036 1.524-6.713 6.343 0 0 13.057 10.015 30.934-.761 0 0-4.054 31.321 20.163 38.422" style="fill:#ba093c;fill-opacity:1;fill-rule:nonzero;stroke:none" transform="translate(575.456 317.213)"/><path d="M0 0s5.833-25.357-8.75-37.662c0 0 2.912 16.612 7.229 25.365 0 0 1 1.902-.587 3.114 0 0-1.501 1.212-2.711-1.304 0 0-6.527-15.305-8.023-26.493 0 0-6.694 22.661 12.842 36.98" style="fill:#fff;fill-opacity:1;fill-rule:nonzero;stroke:none" transform="translate(572.86 313.247)"/><path d="M0 0s-12.407-4.2-15.673-19.313c0 0 8.491 1.118 15.673 19.313" style="fill:#fff;fill-opacity:1;fill-rule:nonzero;stroke:none" transform="translate(577.09 279.81)"/><path d="M0 0s-5.044-8.4-7.645-11.009l2.046.089S.65-4.859 0 0" style="fill:#fff;fill-opacity:1;fill-rule:nonzero;stroke:none" transform="translate(579.142 275.057)"/><path d="M0 0s-22.113 4.387-30.04-11.1c0 0 22.29 10.543 26.679 10.443 0 0 2.42.1 1.86-1.489C-1.501-2.146-.191-.93 0 0" style="fill:#fff;fill-opacity:1;fill-rule:nonzero;stroke:none" transform="translate(586.237 260.402)"/><path d="M0 0s-21.932-8.579-25.843-11.663c0 0 7.651-2.238 16.414 2.708 0 0 9.616 5.506 9.616 8.955" style="fill:#fff;fill-opacity:1;fill-rule:nonzero;stroke:none" transform="translate(582.785 256.577)"/><path d="M0 0s-6.245-.098-8.21.56c0 0 .373-8.301.187-9.616 0 0 7.095 2.247 8.023 9.056" style="fill:#fff;fill-opacity:1;fill-rule:nonzero;stroke:none" transform="translate(563.188 240.72)"/><path d="M0 0s-.746.657-2.046.842c0 0 .932-1.585.086-2.888 0 0 1.96.925 1.96 2.046" style="fill:#fff;fill-opacity:1;fill-rule:nonzero;stroke:none" transform="translate(579.888 231.201)"/><path d="M0 0s-20.808 2.899-23.509-11.935c0 0 9.792 7.926 23.509 11.935" style="fill:#fff;fill-opacity:1;fill-rule:nonzero;stroke:none" transform="translate(576.158 232.411)"/><path d="M0 0s-15.859-5.498-19.407-9.89c0 0 8.492-1.961 19.407 9.89" style="fill:#fff;fill-opacity:1;fill-rule:nonzero;stroke:none" transform="translate(576.904 228.777)"/><path d="M0 0s2.238-15.579-4.656-25.469l-3.83-1.119s5.503 13.249 6.34 20.707c0 0 1.028 5.881 1.214 7.375 0 0 .75.089.932-1.494" style="fill:#fff;fill-opacity:1;fill-rule:nonzero;stroke:none" transform="translate(551.248 241)"/><path d="M0 0s-3.543-21.365-9.888-28.917c0 0-2.142 19.866 9.888 28.917" style="fill:#fff;fill-opacity:1;fill-rule:nonzero;stroke:none" transform="translate(546.864 242.12)"/><path d="M0 0s-7.181 6.815-9.792 8.214c0 0 5.131.839 10.356-4.946z" style="fill:#fff;fill-opacity:1;fill-rule:nonzero;stroke:none" transform="translate(535.48 232.88)"/><path d="M0 0s-9.51 8.579-12.771 9.887c0 0-.655-7.471 11.934-13.813z" style="fill:#fff;fill-opacity:1;fill-rule:nonzero;stroke:none" transform="translate(534.17 229.715)"/><path d="M0 0s-25.752 2.895-36.295-15.481c0 0 21.172 12.498 30.046 14.273 0 0 3.733.655 3.261-1.864z" style="fill:#fff;fill-opacity:1;fill-rule:nonzero;stroke:none" transform="translate(559.276 212.634)"/><path d="M0 0s-19.029-7.652-29.012-14.37c0 0 17.82-2.044 29.012 14.37" style="fill:#fff;fill-opacity:1;fill-rule:nonzero;stroke:none" transform="translate(554.605 208.44)"/><path d="M0 0s-15.668-14.932-34.979-7.657c0 0 21.175 5.322 25.555 6.158 0 0 2.529.29 2.338 1.867 0 0 .191 2.054-3.356 1.403 0 0-19.589-3.27-24.351-5.785 0 0 9.792 17.261 34.793 4.014" style="fill:#fff;fill-opacity:1;fill-rule:nonzero;stroke:none" transform="translate(543.594 185.213)"/><path d="M0 0s3.074-24.812-17.078-30.499c0 0 11.661 11.563 16.891 30.598" style="fill:#fff;fill-opacity:1;fill-rule:nonzero;stroke:none" transform="translate(516.828 211.517)"/><path d="M0 0s-1.492 1.028-2.233-1.124c0 0-8.87-24.25-13.621-26.487 0 0 1.395 19.965 14.921 30.32 0 0 .842-.842.933-2.709" style="fill:#fff;fill-opacity:1;fill-rule:nonzero;stroke:none" transform="translate(515.796 214.503)"/><path d="M0 0s-10.079 16.603-27.238 9.513l23.035-7.646S-1.96 1.21-2.429-.191z" style="fill:#fff;fill-opacity:1;fill-rule:nonzero;stroke:none" transform="translate(511.416 165.435)"/><path d="M0 0s-17.442 4.944-21.075 7.088c0 0-3.084-1.03-4.576-.841 0 0 14.272-8.492 25.651-6.247" style="fill:#fff;fill-opacity:1;fill-rule:nonzero;stroke:none" transform="translate(502.456 165.435)"/><path d="M0 0s-5.881 3.083-7.182 4.948c0 0-1.778-.282-4.388-.094 0 0 5.13-5.131 11.57-4.854" style="fill:#fff;fill-opacity:1;fill-rule:nonzero;stroke:none" transform="translate(481.28 164.403)"/><path d="m0 0 .187-5.321S-2.988-6.437-2.52-8.394l-4.011.091S-2.615-3.175 0 0" style="fill:#fff;fill-opacity:1;fill-rule:nonzero;stroke:none" transform="translate(495.93 189.129)"/><path d="M0 0s-10.169-22.68-24.068-26.5c0 0 10.825 13.811 20.798 23.137 0 0 1.497 1.395.473 3.363z" style="fill:#fff;fill-opacity:1;fill-rule:nonzero;stroke:none" transform="translate(497.607 200.516)"/><path d="M0 0s-11.557-11.384-17.064-16.885c0 0 5.876 15.013 17.064 16.885" style="fill:#fff;fill-opacity:1;fill-rule:nonzero;stroke:none" transform="translate(490.603 197.902)"/><path d="M0 0s-.655-19.586-16.419-24.625c0 0 12.69 16.236 12.78 17.172 0 0 1.306 1.577.656 2.794 0 0-1.493 1.494-2.898-.469 0 0-13.995-17.821-17.165-19.873 0 0-1.582 0-.463 4.482 0 0 4.197 14.834 23.509 20.519" style="fill:#fff;fill-opacity:1;fill-rule:nonzero;stroke:none" transform="translate(471.206 191.457)"/><path d="M0 0s-5.025 10.997-18.914 8.554c0 0-1.416-.452-.517-.84 0 0 14.602-3.598 18.661-8.293 0 0 1.349-.968.77.579" style="fill:#fff;fill-opacity:1;fill-rule:nonzero;stroke:none" transform="translate(555.81 271.82)"/><path d="M0 0s-16.404 6.812-18.197 7.647c0 0 3.466-8.098 18.197-7.647" style="fill:#fff;fill-opacity:1;fill-rule:nonzero;stroke:none" transform="translate(552.463 269.315)"/><path d="M0 0s-4.38-1.033-5.47-.777l-.062-12.474S-.196-9.462 0 0" style="fill:#fff;fill-opacity:1;fill-rule:nonzero;stroke:none" transform="translate(558.64 265.454)"/><path d="M0 0s-3.409 6.498-4.963 14.991c0 0 5.475.447 5.666-3.215C.898 8.111 0 0 0 0" style="fill:#fff;fill-opacity:1;fill-rule:nonzero;stroke:none" transform="translate(549.059 251.617)"/><path d="M0 0s-5.465 11.192-5.914 17.238l-5.154 3.601S-11.26 5.345-1.478-.323c0 0 2.057-1.413 1.478.323" style="fill:#fff;fill-opacity:1;fill-rule:nonzero;stroke:none" transform="translate(545.965 250.527)"/><path d="m0 0-1.272-1.169a1.188 1.188 0 0 1-.22-.263c-.038-.067-.058-.103-.058-.127 0-.076.039-.122.111-.138.076-.015.287-.029.622-.029h9.093c.985 0 1.683.06 2.094.167.411.115.693.316.86.615.139.203.269.518.416.944.268.761.632 1.146 1.091 1.146.205 0 .354-.08.435-.225.086-.153.129-.512.129-1.088v-4.182c0-.779-.105-1.271-.306-1.448-.211-.18-.769-.267-1.679-.267H-4.385c-.095 0-.229-.01-.406-.044a2.588 2.588 0 0 0-.378-.043c-.416 0-.727.079-.936.229a.739.739 0 0 0-.331.646c0 .341.407.937 1.205 1.807a.903.903 0 0 0 .168.225l7.53 8.355c2.204 2.46 3.686 4.354 4.446 5.702.756 1.358 1.139 2.636 1.139 3.858 0 1.662-.531 3.022-1.583 4.074-1.067 1.047-2.415 1.57-4.055 1.57a6.323 6.323 0 0 1-2.825-.642c-.87-.434-1.75-1.105-2.625-2.035a15.124 15.124 0 0 1-.87-.978c-.565-.688-1.019-1.032-1.377-1.032a.614.614 0 0 0-.416.139c-.12.087-.168.212-.168.363 0 1.171 1.052 2.51 3.165 4.025 2.118 1.499 4.437 2.259 6.962 2.259 2.658 0 4.857-.674 6.579-2.024 1.73-1.346 2.6-3.065 2.6-5.169 0-1.107-.272-2.216-.812-3.342-.545-1.128-1.344-2.199-2.386-3.233-.302-.279-1.592-1.352-3.887-3.212A149.538 149.538 0 0 1 0 0" style="fill:#ba093c;fill-opacity:1;fill-rule:nonzero;stroke:none" transform="translate(395.524 205.031)"/><path d="M0 0c-1.674 0-2.917-1.095-3.72-3.301-.803-2.197-1.21-5.575-1.21-10.141 0-4.617.407-8.023 1.219-10.213.809-2.19 2.08-3.282 3.792-3.282 1.688 0 2.931 1.081 3.734 3.251.793 2.175 1.201 5.568 1.201 10.187 0 4.661-.408 8.07-1.215 10.243C2.993-1.085 1.73 0 0 0m0 1.26c2.84 0 5.173-1.343 6.985-4.031C8.802-5.457 9.71-9.015 9.71-13.438c0-4.415-.908-7.969-2.725-10.655-1.812-2.689-4.112-4.032-6.904-4.032-2.85 0-5.174 1.343-6.99 4.032-1.813 2.686-2.721 6.24-2.721 10.655 0 4.404.908 7.952 2.721 10.653C-5.093-.091-2.793 1.26 0 1.26" style="fill:#ba093c;fill-opacity:1;fill-rule:nonzero;stroke:none" transform="translate(420.482 226.255)"/><path d="M0 0c-.804-2.173-1.21-5.582-1.21-10.243 0-4.619.401-8.012 1.2-10.187.799-2.171 2.047-3.252 3.739-3.252 1.708 0 2.969 1.093 3.782 3.283.813 2.19 1.224 5.596 1.224 10.212 0 4.567-.411 7.945-1.21 10.142-.812 2.206-2.05 3.301-3.729 3.301C2.07 3.256.808 2.171 0 0m10.71.471c1.811-2.701 2.721-6.249 2.721-10.653 0-4.415-.91-7.969-2.721-10.655-1.817-2.689-4.136-4.032-6.985-4.032-2.792 0-5.097 1.343-6.914 4.032-1.807 2.686-2.716 6.24-2.716 10.655 0 4.423.909 7.981 2.716 10.667 1.817 2.688 4.14 4.031 6.99 4.031 2.797 0 5.092-1.351 6.909-4.045" style="fill:#ba093c;fill-opacity:1;fill-rule:nonzero;stroke:none" transform="translate(438.03 222.999)"/><path d="M0 0c-1.687 0-2.926-1.095-3.729-3.301-.808-2.197-1.206-5.575-1.206-10.141 0-4.617.403-8.023 1.215-10.213.818-2.19 2.08-3.282 3.786-3.282 1.694 0 2.946 1.081 3.74 3.251.798 2.175 1.195 5.568 1.195 10.187 0 4.661-.401 8.07-1.21 10.243C2.988-1.085 1.726 0 0 0m0 1.26c2.84 0 5.163-1.343 6.985-4.031 1.808-2.686 2.716-6.244 2.716-10.667 0-4.415-.908-7.969-2.716-10.655-1.822-2.689-4.126-4.032-6.919-4.032-2.844 0-5.172 1.343-6.975 4.032-1.821 2.686-2.725 6.24-2.725 10.655 0 4.404.904 7.952 2.725 10.653C-5.106-.091-2.802 1.26 0 1.26" style="fill:#ba093c;fill-opacity:1;fill-rule:nonzero;stroke:none" transform="translate(463.03 226.255)"/><path d="M0 0s-15.729-2.596-26.865-11.143c0 0-12.632-9.653-12.632-27.362 0 0 0-9.907 3.223-18.946 0 0-24.275-12.259-35.789-27.736 0 0-13.87-18.945-13.252-37.635.989-15.984 2.844-36.287 26.253-46.559 0 0 19.56-8.544 37.14-2.231 3.348 1.361 12.876 4.083 15.478 16.34 0 0 1.113 7.925-.742 14.489h-16.471s3.346-5.326 3.346-10.521c0 0 .182-7.573-7.175-9.782-4.959-1.483-12.518-2.228-17.586 2.342 0 0-12.015 7.808-9.658 32.7 0 0 3.59 26.244 12.627 40.238 0 0 10.156 17.583 23.031 27.606 0 0-13.248 16.716-2.104 33.682 0 0 5.447 10.896 20.555 15.348l6.182 5.331z" style="fill:#ba093c;fill-opacity:1;fill-rule:nonzero;stroke:none" transform="translate(424.397 406.605)"/><path d="M0 0s15.726-2.596 26.866-11.143c0 0 12.632-9.653 12.632-27.362 0 0 0-9.907-3.218-18.946 0 0 24.265-12.257 35.787-27.731 0 0 13.861-18.95 13.254-37.64-1-15.984-2.849-36.287-26.258-46.559 0 0-19.565-8.544-37.146-2.231-3.337 1.361-12.88 4.083-15.477 16.34 0 0-1.114 7.925.742 14.489h16.471s-3.342-5.326-3.342-10.521c0 0-.187-7.573 7.181-9.782 4.948-1.483 12.503-2.228 17.576 2.342 0 0 12.015 7.808 9.658 32.7 0 0-3.586 26.244-12.622 40.238 0 0-10.161 17.583-23.037 27.606 0 0 13.249 16.716 2.109 33.682 0 0-5.45 10.896-20.554 15.348l-6.196 5.331z" style="fill:#ba093c;fill-opacity:1;fill-rule:nonzero;stroke:none" transform="translate(436.451 406.605)"/><path d="m0 0-6.063-6.062-2.109-80.112 7.933-4.581 7.917 4.702-1.855 79.74z" style="fill:#ba093c;fill-opacity:1;fill-rule:nonzero;stroke:none" transform="translate(430.46 423.566)"/><path d="M0 0s18.475 13.626 40.674-2.884l.373-.664-.464-1.396S18.848 8.027 3.079-1.956l-11.011-41.42s21.554 8.114 48.328-7.554l2.424-1.219-2.055-3.266s-3.17-.557-5.317 1.588c0 0-19.125 15.861-50.183 2.897z" style="fill:#ba093c;fill-opacity:1;fill-rule:nonzero;stroke:none" transform="translate(389.768 326.917)"/><path d="M0 0s-18.465 13.626-40.679-2.884l-.368-.664.464-1.396S-18.838 8.027-3.074-1.956l11.006-41.42s-21.549 8.114-48.328-7.554l-.933-2.243.559-2.242s3.175-.557 5.317 1.588c0 0 19.78 16.418 50.193 2.897z" style="fill:#ba093c;fill-opacity:1;fill-rule:nonzero;stroke:none" transform="translate(471.21 326.917)"/><path d="M0 0s7.177-6.784 17.677-.516v-36.498S7.56-42.139 0-36.375z" style="fill:#ba093c;fill-opacity:1;fill-rule:nonzero;stroke:none" transform="translate(421.644 270.366)"/><path d="M0 0c-.053-.043-.139-.069-.258-.074l-3.519-.16a.582.582 0 0 0-.244.038.197.197 0 0 0-.077.155c-.005.036 0 .105.005.206.019.03.029.06.043.076l1.435 6.862c.023.15.052.279.095.375.048.095.091.148.129.15.02 0 .058-.038.106-.119a2.2 2.2 0 0 0 .134-.34L.033.633.048.449C.062.382.071.291.071.187.076.103.053.04 0 0m9.591-8.872c-.287.041-.487.102-.616.18-.33.181-.641.533-.938 1.027-.297.503-.593 1.225-.885 2.176L.598 14.336c-.254.804-.459 1.274-.608 1.411-.143.148-.411.208-.789.191-.416-.017-.717-.141-.893-.364-.177-.226-.35-.667-.494-1.326L-7.152-7.007c-.163-.71-.326-1.246-.507-1.621-.183-.373-.403-.634-.66-.789a3.499 3.499 0 0 0-.421-.227c-.512-.251-.765-.619-.737-1.1.01-.232.068-.403.182-.499.115-.106.297-.149.555-.139.043 0 .081.002.119.017a.232.232 0 0 1 .1.028c.053.013.149.031.283.048.688.125 1.305.199 1.874.221.799.04 1.664.03 2.606-.022.172-.013.296-.013.363-.013a4.67 4.67 0 0 1 .115-.023c.034 0 .077-.012.129 0 .297.014.493.066.588.175.1.099.139.289.134.55-.024.441-.349.755-.98.941-.292.11-.517.187-.684.249-.478.21-.817.451-1.013.727-.197.274-.306.703-.331 1.269-.018.322.015.808.106 1.451.081.643.225 1.427.416 2.357.096.553.277.887.545 1.016.272.12 1.052.217 2.328.275 1.411.067 2.267.043 2.587-.058.31-.102.531-.337.636-.714l1.411-4.556c.047-.144.081-.281.109-.398.025-.124.033-.238.038-.346.025-.504-.272-.849-.898-1.023-.617-.18-.918-.521-.89-1.03.01-.249.081-.436.215-.533.13-.104.34-.147.627-.132.225.007.799.067 1.702.181.908.108 1.697.177 2.376.206.77.043 1.568.043 2.41.009a36.284 36.284 0 0 1 1.286-.048c.382.02.631.082.765.192.134.122.191.308.177.569-.024.476-.325.789-.918.925" style="fill:#ba093c;fill-opacity:1;fill-rule:nonzero;stroke:none" transform="translate(397.217 301.309)"/><path d="M0 0c-.02.134-.062.533-.148 1.197A61.682 61.682 0 0 0-.34 2.959l-.167 1.74-.11 1.162c-.063.699-.033 1.222.1 1.574.134.351.369.581.732.695a.395.395 0 0 0 .124.059c.043.022.12.035.215.041.277.055.445.139.511.261.068.117.086.296.068.535-.033.281-.106.502-.225.662-.129.164-.282.235-.469.218.124.017-.229-.079-1.037-.269a17.92 17.92 0 0 0-2.711-.429 20.345 20.345 0 0 0-2.759-.083c-.918.033-1.353.048-1.31.057a.643.643 0 0 1-.497-.285c-.105-.165-.153-.377-.129-.652.043-.442.349-.693.918-.744h.057l.043.008c.43-.015.736-.094.927-.239.24-.17.426-.44.55-.828.13-.373.239-1.169.35-2.38l.134-1.368.176-1.888c.139-1.521.096-2.511-.138-2.972-.235-.467-.722-.731-1.453-.799-1.823-.17-3.414.794-4.787 2.881-1.372 2.094-2.213 4.889-2.544 8.396-.33 3.569-.033 6.574.914 9.037.947 2.45 2.261 3.753 3.944 3.913.875.081 1.654-.111 2.348-.581.688-.466 1.334-1.236 1.936-2.302.067-.142.163-.347.302-.622.439-.851.822-1.26 1.138-1.229.186.017.315.103.377.242.072.153.096.387.057.708l-.014.203-.267 1.798c-.02.124-.048.277-.077.463-.172 1.207-.473 1.932-.87 2.183-.565.309-1.32.545-2.267.702-.951.158-1.907.187-2.863.106-3.152-.294-5.642-1.891-7.479-4.798-1.831-2.895-2.557-6.398-2.179-10.488.377-3.99 1.621-7.119 3.739-9.385 2.118-2.279 4.728-3.273 7.826-2.979 2.233.205 4.021.748 5.36 1.623C-.512-2.212.1-1.184 0 0" style="fill:#ba093c;fill-opacity:1;fill-rule:nonzero;stroke:none" transform="translate(421.133 296.783)"/><path d="M0 0c-.525-.971-1.242-1.454-2.16-1.454-.579-.007-.986.16-1.225.483-.234.334-.358 1.018-.363 2.068l-.02 4.078v.909l-.003.504c-.005 1.265.104 2.118.324 2.558.225.44.607.665 1.162.669.847.002 1.568-.544 2.156-1.627C.469 7.1.766 5.696.775 3.979.779 2.287.521.966 0 0m-18.072-4.155c-.053-.041-.139-.058-.264-.058l-3.523.012c-.115 0-.187.014-.235.055-.048.029-.071.084-.071.151 0 .038.005.11.019.198.019.046.029.072.042.086l1.775 6.785c.028.144.058.273.109.365.053.089.096.142.139.142.019 0 .053-.043.096-.125a1.32 1.32 0 0 0 .115-.339l1.869-6.643c0-.053.005-.116.005-.182.005-.069.01-.155.01-.266-.005-.076-.03-.14-.086-.181M4.031-1.646C5.04-.056 5.537 1.891 5.527 4.197c-.013 2.412-.592 4.253-1.75 5.521-1.157 1.264-2.82 1.895-5.006 1.887-.377 0-1.218-.033-2.519-.102a77.962 77.962 0 0 0-3.38-.103c-.411 0-.87.024-1.392.063-.531.04-.855.066-.97.066-.426 0-.722-.076-.904-.231-.186-.152-.268-.395-.268-.744 0-.251.053-.43.163-.55.105-.114.368-.21.779-.289a.523.523 0 0 1 .278-.088c.378-.091.64-.282.794-.564.157-.29.234-.742.238-1.359l.082-18.8c0-.667-.082-1.139-.249-1.422-.157-.27-.492-.473-.985-.579h-.062c-.024-.007-.043-.021-.072-.028a2.937 2.937 0 0 0-.722.923c-.263.514-.53 1.25-.774 2.219l-5.58 20.119c-.215.815-.392 1.293-.536 1.446-.143.146-.396.223-.779.225-.421.005-.722-.103-.908-.323-.192-.217-.378-.645-.555-1.296l-6.01-20.992c-.186-.698-.387-1.231-.584-1.59-.19-.36-.429-.621-.693-.767-.095-.048-.238-.121-.43-.195-.531-.23-.794-.586-.794-1.072 0-.222.053-.392.154-.497.114-.112.296-.168.55-.172.043 0 .081.004.124.009a.289.289 0 0 1 .1.029c.058.007.149.022.278.032.703.092 1.324.135 1.893.133a24.76 24.76 0 0 0 2.596-.148c.172-.026.297-.041.363-.041a.744.744 0 0 1 .11-.023c.034-.003.077-.008.134-.01.296 0 .497.048.598.15.1.099.148.278.148.543.005.447-.301.77-.927.987-.283.12-.502.218-.661.28-.472.234-.802.493-.989.779-.177.285-.272.713-.264 1.281 0 .333.063.814.178 1.447.114.636.296 1.416.526 2.338.125.538.325.868.602.98.277.117 1.057.168 2.338.165 1.415-.005 2.267-.064 2.582-.184.306-.117.507-.363.598-.739l1.18-4.623c.048-.148.078-.287.091-.406.02-.12.03-.235.03-.34 0-.517-.321-.844-.948-.984-.631-.144-.946-.477-.946-.988 0-.254.062-.437.191-.543.124-.11.334-.158.621-.158.225 0 .794.029 1.707.094.914.069 1.708.098 2.391.096.765 0 1.564-.039 2.396-.118.832-.069 1.262-.112 1.291-.112.378 0 .635.057.764.165.125.091.172.248.192.446.688.046 1.406.078 2.146.078.976.008 1.894-.025 2.769-.094a51.865 51.865 0 0 0 1.238-.098c.225 0 .401.067.507.2.1.137.158.35.153.634 0 .373-.277.627-.847.743a2.501 2.501 0 0 0-.31.032c-.406.074-.698.267-.88.576-.182.303-.277.762-.277 1.375L-3.6-3.228c-.004.225.005.374.029.459.029.08.081.124.168.124a.26.26 0 0 0 .099-.026c.038-.012.101-.028.177-.055l1.87-.894c.258-.126.53-.236.822-.306.288-.069.583-.105.875-.105 1.382.01 2.587.803 3.591 2.385" style="fill:#ba093c;fill-opacity:1;fill-rule:nonzero;stroke:none" transform="translate(448.8 307.498)"/><path d="M0 0c-.086.115-.311.213-.669.275-.067.017-.966.124-2.707.334a74.95 74.95 0 0 0-5.029.771c-1.501.281-2.86.58-4.07.91-.969.256-1.476.404-1.539.424-.219.028-.416-.005-.569-.127-.177-.134-.277-.33-.33-.603-.086-.419.206-.76.856-1.02.149-.061.283-.112.383-.158.397-.167.65-.413.77-.725.124-.312.129-.769.014-1.372l-3.486-18.496c-.124-.66-.301-1.105-.54-1.344-.244-.236-.655-.358-1.224-.363l-.057.015c-.756-.01-1.167-.21-1.243-.6a.988.988 0 0 1 .076-.675.678.678 0 0 1 .498-.347c-.106.022.425-.026 1.596-.138a41.633 41.633 0 0 0 3.653-.526 80.981 80.981 0 0 0 5.881-1.325c1.626-.43 2.463-.659 2.529-.688.282-.05.517-.004.698.151.187.152.363.461.522.93l1.037 3.361c.138.435.254.768.353.997.077.402.077.727-.013.978-.081.256-.23.401-.421.432-.297.063-.703-.305-1.205-1.092-.507-.785-.99-1.409-1.439-1.865a4.152 4.152 0 0 0-1.731-1.104 3.93 3.93 0 0 0-2.028-.142c-.994.185-1.629.57-1.921 1.153-.283.579-.263 1.728.057 3.445l.091.464 1.118 5.952c.034.168.082.299.163.378.076.081.197.119.368.117l.388.005c.105-.005.225-.02.349-.033.124-.018.3-.046.53-.089.68-.134 1.167-.349 1.478-.669.31-.325.541-.893.669-1.71.014-.101.043-.253.067-.451.024-.206.043-.352.067-.459.048-.536.124-.9.215-1.076.096-.175.234-.285.401-.314.216-.038.378.008.498.132.125.129.21.349.268.655.043.225.144.832.306 1.819.172.983.33 1.855.468 2.616.139.721.288 1.436.464 2.134.182.696.263 1.031.258 1.004.053.283.043.517-.043.708a.505.505 0 0 1-.373.344c-.306.055-.611-.249-.931-.916-.335-.636-.651-1.156-.948-1.554-.205-.274-.507-.442-.918-.503-.401-.063-1.009-.02-1.802.13-.541.106-.909.249-1.095.441-.187.198-.244.477-.177.85l1.095 5.81c.158.837.454 1.387.899 1.645.44.265 1.095.313 1.965.145.717-.126 1.301-.382 1.755-.738a3.03 3.03 0 0 0 .966-1.418c.114-.329.258-.76.416-1.295.253-.986.515-1.502.788-1.56.216-.035.373.005.478.135.106.121.206.451.311.978l.789 4.2C.101-.342.091-.122 0 0" style="fill:#ba093c;fill-opacity:1;fill-rule:nonzero;stroke:none" transform="translate(469.274 315.286)"/><path d="M0 0c.015 0 .023.004.038 0C-.005.007-.015.007 0 0" style="fill:#231f20;fill-opacity:1;fill-rule:nonzero;stroke:none" transform="translate(455.26 318)"/><path d="M0 0h-.019C.005-.004.01-.004 0 0" style="fill:#231f20;fill-opacity:1;fill-rule:nonzero;stroke:none" transform="translate(464.067 289.508)"/><path d="m0 0-.817-.855a.618.618 0 0 1-.187-.402c-.01-.132.053-.265.177-.381l13.048-12.325c.392-.373.769-.564 1.137-.569.373-.005.785.177 1.235.543.066.066.177.152.324.253.589.483 1.01.607 1.263.358.196-.182.292-.365.277-.54-.015-.172-.124-.378-.345-.609.063.069-.343-.311-1.228-1.146a72.612 72.612 0 0 1-2.692-2.691 63.67 63.67 0 0 1-2.544-2.85 118.104 118.104 0 0 1-1.08-1.291c-.206-.227-.411-.358-.612-.388-.196-.03-.378.03-.545.197-.277.254-.153.751.373 1.497l.062.064c.392.555.574 1.001.554 1.346-.023.344-.253.722-.678 1.121L-5.293-6.371c-.129.125-.263.175-.396.158a.584.584 0 0 1-.383-.213l-.416-.434c-.492-.524-.846-1.083-1.052-1.689-.205-.609-.292-1.281-.258-2.039.028-.578.114-1.266.253-2.075.191-.882.168-1.455-.081-1.724-.153-.16-.311-.243-.478-.253-.163-.006-.316.06-.468.197-.111.112-.441.632-.962 1.548a79.712 79.712 0 0 1-1.448 2.434c-.086.124-.197.297-.345.517-.669.989-.851 1.646-.535 1.976.249.271.635.309 1.162.117.096-.045.177-.074.248-.092.259-.073.531-.015.823.167.286.191.755.63 1.41 1.324L-1.75.395c.875.927 1.64 1.812 2.295 2.658.65.84 1.014 1.382 1.086 1.621.091.208.071.548-.044 1.016-.109.471-.038.844.225 1.123.153.164.326.24.521.237.191-.012.388-.108.603-.308.148-.138.587-.665 1.319-1.576a48.833 48.833 0 0 1 2.113-2.46c.426-.482.67-.867.736-1.156.078-.285.005-.536-.209-.758C6.642.515 6.044.521 5.126.82c-.603.223-1.124.388-1.573.502-.684.158-1.296.139-1.836-.064C1.167 1.057.598.637 0 0" style="fill:#ba093c;fill-opacity:1;fill-rule:nonzero;stroke:none" transform="translate(556.044 179.856)"/><path d="m0 0-13.221 10.563c-.425.338-.807.491-1.18.477-.369-.021-.756-.232-1.167-.629a1.827 1.827 0 0 0-.306-.275c-.569-.533-.98-.698-1.238-.492-.201.162-.297.336-.301.526.004.195.104.42.301.662-.053-.062.325.356 1.137 1.25a77.612 77.612 0 0 1 2.449 2.902 64.295 64.295 0 0 1 2.285 3.034c.698.985 1.018 1.441.961 1.363.191.241.383.385.574.43a.64.64 0 0 0 .564-.146c.287-.228.215-.731-.239-1.501l-.057-.074c-.359-.606-.507-1.067-.455-1.411.053-.339.311-.689.775-1.066l13.143-10.5c.421-.342.813-.504 1.162-.502.354.007.722.192 1.119.55l.292.292c.622.6 1.085.772 1.396.516.187-.151.286-.329.291-.552.01-.213-.081-.439-.248-.662.058.086-.32-.318-1.157-1.21A53.732 53.732 0 0 1 4.398.659a56.008 56.008 0 0 1-2.28-3.074c-.68-1.004-.985-1.468-.918-1.377-.191-.243-.392-.375-.607-.408-.201-.038-.411.028-.617.181-.187.153-.263.311-.24.466.025.16.187.495.474.99.388.617.574 1.107.545 1.456C.727-.746.473-.373 0 0" style="fill:#ba093c;fill-opacity:1;fill-rule:nonzero;stroke:none" transform="translate(577.11 175.814)"/><path d="m0 0 10.299-6.534c2.18-1.374 3.949-1.948 5.293-1.714 1.357.246 2.61 1.284 3.777 3.12.651 1.025 1.095 2.024 1.31 3.007.224.971.211 1.877-.029 2.716-.186.609-.559 1.198-1.086 1.748-.53.554-1.543 1.309-3.054 2.27l-.545.345-3.328 2.108c-2.5 1.583-4.255 2.601-5.264 3.053-1.004.452-1.755.614-2.247.49-.277-.086-.632-.401-1.057-.965-.33-.455-.592-.725-.784-.809-.196-.083-.392-.06-.593.065-.234.148-.339.349-.335.593.01.248.129.567.373.942.053.079.149.208.291.399.144.184.259.335.345.476.273.351.53.686.765 1.008.234.324.459.653.67.997.186.294.434.727.746 1.303.109.198.195.342.253.438.028.074.115.246.249.521s.243.476.329.616c.259.405.488.654.698.763.206.104.431.079.665-.074.215-.139.325-.301.33-.512.005-.19-.13-.532-.397-1.006-.215-.342-.359-.624-.421-.855a1.393 1.393 0 0 1-.052-.615c.091-.476.53-1.047 1.315-1.721.784-.665 2.496-1.836 5.13-3.51l3.762-2.383c1.818-1.16 3.031-2.051 3.629-2.689a5.573 5.573 0 0 0 1.273-2.118c.348-1.177.338-2.498-.048-3.986-.383-1.487-1.119-3.091-2.2-4.798-1.248-1.953-2.448-3.452-3.605-4.487-1.162-1.042-2.376-1.69-3.634-1.948a4.701 4.701 0 0 0-2.275.079c-.756.212-1.822.76-3.194 1.633l-1.483.936-9.165 5.812c-.454.289-.86.414-1.21.376-.339-.044-.693-.277-1.047-.68a3.351 3.351 0 0 1-.33-.387c-.525-.595-.936-.795-1.233-.612-.215.139-.335.311-.364.538-.028.213.029.44.182.689.063.097.119.175.172.244.058.069.115.147.191.236a60.56 60.56 0 0 1 1.272 1.783c.478.703.971 1.453 1.492 2.264.44.696.851 1.38 1.233 2.039.383.655.737 1.296 1.077 1.91.071.111.167.297.3.558.159.261.34.401.527.459.195.048.411 0 .636-.151.205-.126.305-.272.305-.432 0-.165-.109-.495-.348-.988-.331-.666-.464-1.173-.407-1.541C-.784.669-.502.32 0 0" style="fill:#ba093c;fill-opacity:1;fill-rule:nonzero;stroke:none" transform="translate(574.28 201.257)"/><path d="m0 0 14.296.191c.21.002.353.017.439.046.082.031.134.067.163.124.029.079.005.172-.062.294a2.503 2.503 0 0 1-.315.385L4.317 11.106a.981.981 0 0 0-.32.728c-.01.284.11.705.325 1.271l.411 1.052c.187.39.34.725.459 1.021.124.294.24.584.349.866.134.342.259.692.373 1.057.12.368.239.766.35 1.197.048.122.114.284.19.512.072.212.13.365.163.456.149.368.325.619.55.765.215.131.449.153.722.05.344-.136.397-.571.163-1.314a6.862 6.862 0 0 1-.211-.861c-.062-.478.024-.868.272-1.16.244-.296.766-.593 1.564-.903l.483-.194 14.669-5.24c.525-.175.966-.206 1.319-.091.349.103.661.39.918.841.063.112.144.269.258.459.33.672.698.921 1.114.768a.531.531 0 0 0 .335-.405c.048-.203.019-.434-.086-.7-.034-.088-.067-.181-.105-.265a1.466 1.466 0 0 0-.119-.26 49.335 49.335 0 0 1-.847-1.92c-.325-.804-.688-1.695-1.076-2.694-.377-.971-.717-1.865-1.009-2.678a36.258 36.258 0 0 1-.688-2.027 2.153 2.153 0 0 0-.11-.311 2.993 2.993 0 0 1-.105-.301c-.106-.254-.234-.44-.406-.557a.52.52 0 0 0-.517-.088c-.373.15-.469.632-.287 1.456.029.16.058.291.087.377.114.557.09.987-.087 1.3-.162.304-.516.56-1.052.765L10.16 8.729a.771.771 0 0 1-.287.059c-.081 0-.139-.031-.162-.089-.015-.05-.01-.104.028-.167.033-.069.111-.143.23-.241l11.25-11.047c.459-.452.746-.813.86-1.102a1.137 1.137 0 0 0 0-.869c-.124-.327-.31-.556-.568-.69-.254-.132-.708-.206-1.367-.22L3.5-6.089a.608.608 0 0 1-.268-.057.3.3 0 0 1-.125-.148c-.013-.036.02-.069.078-.11a1.13 1.13 0 0 1 .248-.124l6.674-3.114c.249-.13.545-.259.914-.408.368-.134.98-.376 1.835-.705l1.019-.406c1.267-.493 2.214-.741 2.821-.761.616-.016 1.11.182 1.477.609.196.225.416.598.66 1.1.345.706.703.985 1.057.84.219-.077.339-.239.387-.462.034-.229-.009-.517-.153-.877a4.514 4.514 0 0 0-.148-.376c-.081-.186-.144-.344-.201-.475-.024-.048-.148-.331-.397-.856a23.888 23.888 0 0 1-.607-1.408 31.156 31.156 0 0 1-.899-2.635 2.452 2.452 0 0 0-.101-.315 9.045 9.045 0 0 1-.143-.373c-.119-.296-.253-.512-.425-.643a.537.537 0 0 0-.541-.084c-.368.146-.473.586-.31 1.317.009.139.019.242.047.316.129.691.106 1.188-.086 1.492-.191.299-.75.674-1.687 1.128L2.3-7.973a5.77 5.77 0 0 1-.507.237c-.182.089-.406.168-.669.28-1.057.408-1.755.595-2.104.56-.349-.037-.679-.24-.99-.608-.153-.175-.335-.459-.536-.837-.296-.619-.621-.853-.994-.703-.239.087-.396.239-.469.452-.066.223-.057.452.043.705l.134.268c.077.153.135.287.182.407.148.301.335.7.541 1.197.215.507.449 1.093.712 1.777.234.594.401 1.023.493 1.291.099.279.185.513.267.724.057.146.124.344.215.595.071.249.134.421.167.507.144.37.316.655.517.837C-.492-.098-.263 0 0 0" style="fill:#ba093c;fill-opacity:1;fill-rule:nonzero;stroke:none" transform="translate(586.013 226.927)"/><path d="m0 0 10.987-7.167a.282.282 0 0 1 .192-.077.29.29 0 0 1 .215.055c.11.065.181.138.215.217a.483.483 0 0 1 .014.266L9.802 4.274c-.096.433-.197.841-.311 1.207-.115.378-.229.66-.358.849-.259.401-.857.454-1.788.165-.933-.299-1.502-.292-1.702.019-.159.239-.187.462-.091.67.099.196.324.422.683.647.081.06.22.134.42.234.201.101.36.189.484.268.335.158.65.325.97.5.311.172.621.349.913.545.335.213.756.509 1.249.882.157.12.272.196.348.254.101.079.239.198.426.353.182.158.325.266.421.325.363.225.655.349.88.349.224 0 .416-.114.573-.358.22-.349.091-.803-.401-1.372-.316-.332-.54-.617-.674-.854-.192-.375-.287-.898-.282-1.563.004-.679.152-2.054.444-4.126l1.765-11.86c.114-.797.287-1.81.52-3.019.431-2.322.335-3.682-.277-4.077-.578-.373-1.678.017-3.294 1.158a60.59 60.59 0 0 1-2.371 1.603L-3.763-5.052l-.693.459c-1.425.925-2.366 1.37-2.802 1.356-.272 0-.621-.06-1.047-.182-.66-.193-1.09-.124-1.3.196a.764.764 0 0 0-.067.6.97.97 0 0 0 .406.514c.101.062.187.113.263.156.081.038.168.081.273.124.564.306 1.162.655 1.822 1.037A69.426 69.426 0 0 1-2.95 1.735c.602.411 1.162.816 1.674 1.198.057.052.143.115.244.186.282.218.472.355.583.424.277.186.526.272.741.268a.646.646 0 0 0 .517-.314c.253-.406.057-.946-.608-1.621-.66-.672-.903-1.14-.726-1.413.057-.091.2-.222.416-.385A.826.826 0 0 1 0 0" style="fill:#ba093c;fill-opacity:1;fill-rule:nonzero;stroke:none" transform="translate(522.34 149.926)"/><path d="m0 0 .144-.302c.339-.69.612-1.076.832-1.154.219-.079.554-.013 1.008.217C3.442-.524 4.428.433 4.968 1.637c.531 1.21.497 2.433-.114 3.663-.575 1.179-1.459 1.967-2.625 2.381-1.182.416-2.325.346-3.443-.197-.736-.373-1.172-.781-1.306-1.248-.128-.47.053-1.212.545-2.225Zm6.876.545c.913.217 1.702.263 2.386.145.674-.119 1.39-.432 2.146-.954l6.206-4.104a3.537 3.537 0 0 1 1.171-.581c.416-.11.919-.144 1.502-.088.01-.018.043-.008.096 0 .516-.008.827-.106.913-.287a.521.521 0 0 0-.01-.502.806.806 0 0 0-.421-.409c-.043-.017-.386-.165-1.027-.426a26.918 26.918 0 0 1-1.841-.824 67.663 67.663 0 0 1-1.659-.854c-.689-.368-1.182-.614-1.468-.758-.469-.229-.808-.32-1.028-.267-.22.045-.535.218-.946.513L5.929-3.718c-.742.55-1.401.911-1.975 1.067-.568.16-1.08.133-1.516-.079l-.305-.151c-.158-.079-.259-.177-.302-.285-.048-.107-.028-.236.053-.398l3.299-6.723c.244-.495.526-.809.837-.947.32-.136.746-.12 1.286.055.12.043.301.105.526.182.679.261 1.095.222 1.253-.094.114-.236.134-.444.052-.621-.086-.18-.268-.337-.559-.476.091.045-.426-.172-1.535-.643a66.624 66.624 0 0 1-3.472-1.58 62.86 62.86 0 0 1-3.294-1.74c-1.032-.581-1.525-.861-1.448-.826-.272-.133-.512-.178-.703-.142-.206.043-.349.162-.449.37-.101.205-.106.38-.01.54.091.15.411.404.961.774.54.369.855.72.946 1.04.087.331.005.751-.258 1.285l-7.42 15.106c-.239.499-.521.822-.823.963-.315.144-.707.134-1.209-.017a1.04 1.04 0 0 0-.191-.071c-.068-.017-.134-.029-.206-.044-.545-.181-.908-.263-1.095-.231a.545.545 0 0 0-.411.32c-.129.261-.106.5.053.713.163.21.507.451 1.056.722.192.09.603.282 1.258.568.641.287 1.186.551 1.63.768 1.301.638 2.883 1.454 4.748 2.446C-1.43 9.12-.2 9.766.383 10.055c2.577 1.266 4.753 1.79 6.507 1.568 1.774-.218 3.065-1.152 3.882-2.819.641-1.3.626-2.67-.057-4.105-.679-1.436-1.96-2.82-3.839-4.154" style="fill:#ba093c;fill-opacity:1;fill-rule:nonzero;stroke:none" transform="translate(505.435 134.418)"/><path d="m0 0 1.162-3.653c.149-.461.187-.765.115-.923-.082-.162-.249-.27-.521-.361-.359-.122-.942.134-1.74.734-.464.318-.852.576-1.158.765-.545.334-1.185.512-1.941.538-.755.019-1.611-.12-2.567-.425-1.171-.371-1.96-.782-2.371-1.227-.412-.452-.502-1.047-.268-1.778l1.615-5.107c.106-.315.317-.495.646-.528.33-.036.851.057 1.588.294 1.056.332 1.826.638 2.304.915.478.273.78.571.894.888.172.468.302 1.042.388 1.716.066.676.295 1.083.688 1.21a.896.896 0 0 0 .641-.034.798.798 0 0 0 .406-.509c-.005.014.067-.287.206-.904a21.47 21.47 0 0 1 .507-1.888c.215-.667.472-1.413.764-2.254.301-.832.483-1.352.54-1.547.081-.256.077-.474-.004-.639-.091-.17-.268-.301-.54-.383a.976.976 0 0 0-.666 0c-.209.078-.477.312-.817.702a5.264 5.264 0 0 0-.306.298c-.138.144-.249.253-.32.328-.593.54-1.157.855-1.707.913-.54.077-1.267-.037-2.189-.326-.302-.092-.536-.178-.703-.236-.167-.064-.311-.127-.45-.182l-.502-.232c-.191-.081-.325-.172-.378-.284-.062-.11-.062-.239-.014-.387l1.631-5.152.124-.385c.478-1.511 1.042-2.407 1.697-2.687.65-.273 1.644-.206 2.965.21.922.292 1.74.722 2.442 1.275.713.558 1.235 1.179 1.588 1.864.325.581.598 1.315.837 2.188.234.881.545 1.381.946 1.508a.844.844 0 0 0 .732-.093c.234-.139.406-.38.516-.722-.014-.232.01-.545.063-.951l.382-3.166c.067-.438.014-.777-.144-.996-.152-.223-.425-.395-.817-.512.257.071-.894-.218-3.443-.878a149.884 149.884 0 0 1-7.946-2.3 78.793 78.793 0 0 1-4.748-1.658c-1.501-.579-2.185-.853-2.046-.806-.302-.098-.564-.1-.784-.017-.22.079-.363.239-.436.48-.114.35.283.742 1.196 1.167l.095.032c.684.315 1.115.633 1.282.946.172.325.172.763-.005 1.324l-5.077 16.049c-.172.528-.412.88-.717 1.061-.312.184-.756.22-1.344.12a3.403 3.403 0 0 1-.545-.098c-.937-.16-1.459-.068-1.573.279a.678.678 0 0 0 .1.639c.139.2.364.347.689.442-.277-.082.421.091 2.084.516 1.654.424 3.481.957 5.484 1.595 2.152.674 4.346 1.436 6.589 2.266C-2.629-.129-1.468.301-1.372.332c.483.15.813.211.985.17C-.22.461-.086.296 0 0" style="fill:#ba093c;fill-opacity:1;fill-rule:nonzero;stroke:none" transform="translate(493.2 137.365)"/><path d="m0 0 .622-3.132a.83.83 0 0 0-.062-.609.665.665 0 0 0-.455-.311c-.468-.098-1.037.347-1.702 1.315-.124.15-.21.275-.262.368C-2.691-1.215-3.442-.48-4.121-.184c-.669.291-1.516.33-2.52.124-1.167-.224-2.06-.717-2.677-1.467-.617-.744-.842-1.572-.656-2.482.268-1.344 1.664-2.233 4.189-2.653.741-.12 1.31-.213 1.712-.297C-1.291-7.525.756-8.281 2.08-9.228c1.324-.939 2.142-2.22 2.462-3.832.459-2.302-.134-4.413-1.793-6.344-1.663-1.925-3.987-3.187-6.966-3.784a16.836 16.836 0 0 0-3.969-.317c-1.334.048-2.313.234-2.949.555-.249.108-.445.29-.579.528-.143.249-.291.782-.459 1.619l-.616 3.063c-.043.248-.01.459.114.626.134.177.33.284.593.343.421.089.856-.327 1.296-1.225.263-.498.492-.9.708-1.2.611-1.057 1.4-1.793 2.371-2.207.966-.416 2.08-.499 3.342-.243 1.558.312 2.745.903 3.572 1.78.817.885 1.113 1.887.889 3.01-.2 1.016-.75 1.793-1.63 2.352-.89.54-2.544 1.038-4.958 1.487-2.635.473-4.552 1.15-5.752 2.006-1.195.865-1.956 2.063-2.257 3.616-.411 2.042.148 3.931 1.683 5.669 1.53 1.738 3.605 2.867 6.206 3.387 1.104.225 2.204.333 3.295.318 1.089-.014 1.879-.112 2.371-.318.248-.109.439-.251.564-.42.124-.175.23-.476.316-.899z" style="fill:#ba093c;fill-opacity:1;fill-rule:nonzero;stroke:none" transform="translate(471.741 129.292)"/><path d="m0 0-.071-3.188c-.005-.245-.073-.436-.201-.582a.656.656 0 0 0-.507-.198c-.484.007-.933.555-1.372 1.645-.091.186-.149.32-.177.418C-2.883-.59-3.462.292-4.055.723c-.592.434-1.405.664-2.433.683-1.191.031-2.166-.256-2.936-.844-.769-.595-1.157-1.358-1.18-2.291-.03-1.367 1.132-2.529 3.508-3.501a46.834 46.834 0 0 0 1.603-.663C-2.902-7.055-1.071-8.242.01-9.454c1.085-1.213 1.606-2.638 1.573-4.282-.062-2.345-1.109-4.275-3.146-5.792-2.042-1.519-4.585-2.239-7.622-2.171a16.99 16.99 0 0 0-3.944.566c-1.286.342-2.209.73-2.754 1.181a1.233 1.233 0 0 0-.454.643c-.077.273-.11.832-.092 1.683l.073 3.122c.004.254.09.452.252.589.164.143.374.208.646.198.431-.008.761-.502.995-1.475.144-.545.286-.98.43-1.327.368-1.164.975-2.056 1.827-2.675.851-.61 1.927-.94 3.208-.968 1.592-.033 2.883.284 3.882.961.985.674 1.497 1.59 1.52 2.737.02 1.033-.335 1.915-1.085 2.649-.741.731-2.242 1.583-4.504 2.537-2.466 1.049-4.188 2.125-5.169 3.222-.979 1.1-1.448 2.443-1.41 4.024.043 2.077 1.004 3.796 2.883 5.158 1.879 1.363 4.141 2.016 6.799 1.953a15.697 15.697 0 0 0 3.28-.416c1.062-.251 1.813-.52 2.247-.824.225-.163.373-.345.454-.54.086-.196.116-.52.111-.949Z" style="fill:#ba093c;fill-opacity:1;fill-rule:nonzero;stroke:none" transform="translate(435.356 124.362)"/><path d="M0 0a1.913 1.913 0 0 1-.115.32.235.235 0 0 1-.139.132C-.297.457-.359.421-.431.354A1.27 1.27 0 0 1-.655.048L-3.926-5.61c-.014.005-.033-.015-.053-.065-.052-.072-.071-.125-.071-.16-.019-.058.01-.105.081-.156a.907.907 0 0 1 .311-.098l4.801-.724c.157-.017.277-.017.363.004.081.03.134.075.143.137.009.103.019.179.019.236a.704.704 0 0 1-.01.182zm5.097 5.597 5.015-18.975c.215-.918.473-1.623.77-2.132.292-.507.65-.88 1.066-1.14.157-.089.425-.187.798-.294.775-.271 1.143-.619 1.076-1.052a.511.511 0 0 0-.353-.438c-.206-.069-.56-.06-1.072.014-.043.013-.626.132-1.745.368-1.114.24-2.204.446-3.251.601-.918.139-2.008.264-3.26.382-1.253.125-2.033.208-2.339.254-.387.062-.664.145-.827.27-.163.119-.22.284-.187.511.067.452.536.681 1.411.688.87 0 1.344.233 1.41.692.015.092.02.196.01.303-.01.101-.024.232-.053.378L2.558-9.62c-.096.351-.345.612-.746.779-.397.168-1.559.398-3.462.682-1.749.265-2.821.373-3.217.327-.393-.048-.708-.294-.962-.745-.42-.782-.75-1.446-.999-1.983-.244-.542-.383-.953-.426-1.245-.076-.502-.014-.906.192-1.195.206-.294.617-.588 1.229-.895.215-.097.507-.224.884-.401.813-.313 1.185-.66 1.124-1.05-.029-.236-.124-.38-.273-.449-.148-.064-.421-.064-.832 0-.081.005-.138.015-.191.022a.76.76 0 0 0-.139.047 3.673 3.673 0 0 0-.482.122c-1.243.283-2.42.505-3.505.667-.77.118-1.64.204-2.597.258-.172.01-.305.015-.386.01a.584.584 0 0 0-.182.005c-.048.005-.101.01-.149.019-.349.048-.592.136-.726.251-.134.118-.187.28-.153.493.057.414.459.678 1.205.772.292.022.502.05.64.081.383.089.727.268 1.047.555.32.282.66.703 1.019 1.279L1.319 6.191c.339.545.646.89.928 1.052.277.147.702.18 1.276.094.512-.081.861-.198 1.034-.366.172-.158.348-.619.54-1.374" style="fill:#ba093c;fill-opacity:1;fill-rule:nonzero;stroke:none" transform="translate(402.147 121.778)"/><path d="m0 0-1.147.254a.623.623 0 0 1-.435-.031c-.13-.07-.206-.187-.244-.359l-3.916-17.516c-.124-.524-.091-.953.096-1.272.181-.318.544-.574 1.089-.782.096-.019.226-.065.383-.148.718-.255 1.042-.554.961-.899-.058-.258-.167-.433-.325-.516-.157-.072-.392-.077-.698-.014.09-.017-.45.138-1.611.471-1.176.33-2.405.645-3.691.937a69.939 69.939 0 0 1-3.749.727c-1.191.196-1.75.284-1.668.265-.302.062-.512.179-.636.334-.135.152-.168.342-.12.565.081.366.574.513 1.478.444l.09-.019c.679-.057 1.163.019 1.445.218.277.2.487.576.611 1.159l3.916 17.466c.028.172.01.316-.071.423a.646.646 0 0 1-.383.223l-.583.126a4.633 4.633 0 0 1-1.994.044c-.617-.135-1.248-.408-1.884-.824-.478-.315-1.023-.74-1.649-1.273-.656-.627-1.167-.895-1.526-.815-.215.047-.368.14-.459.274-.091.132-.11.304-.071.51.038.155.315.693.841 1.621.521.927.971 1.752 1.344 2.485.067.139.158.318.277.558.502 1.08.98 1.57 1.415 1.477.368-.084.593-.397.703-.944.01-.099.02-.187.048-.261.062-.258.253-.466.569-.617.301-.152.922-.329 1.855-.537l9.184-2.057a38.722 38.722 0 0 1 3.452-.611C3.964.956 4.609.916 4.862.978c.221.031.503.222.842.559.345.342.708.469 1.086.385.215-.045.372-.152.463-.329.101-.165.115-.393.048-.67-.048-.2-.273-.849-.689-1.944a48.557 48.557 0 0 1-1.017-3.074c-.211-.612-.416-1.016-.622-1.228-.21-.208-.459-.271-.755-.208-.373.083-.67.599-.885 1.542-.12.631-.249 1.171-.378 1.608-.21.672-.535 1.179-.989 1.544C1.511-.466.856-.196 0 0" style="fill:#ba093c;fill-opacity:1;fill-rule:nonzero;stroke:none" transform="translate(389.892 129.56)"/><path d="m0 0 5.924 15.854c.196.515.216.933.077 1.275-.129.335-.449.643-.956.918a1.696 1.696 0 0 0-.359.191c-.679.378-.966.722-.846 1.035.086.242.22.39.411.443.182.064.421.04.717-.077-.076.029.435-.199 1.535-.679a63.943 63.943 0 0 1 7.124-2.658c1.147-.364 1.683-.524 1.597-.49.277-.098.478-.242.583-.414.105-.165.115-.363.034-.579-.129-.348-.632-.432-1.507-.241l-.081.028c-.679.157-1.176.157-1.482-.006-.306-.154-.564-.512-.765-1.064L6.12-2.23c-.191-.507-.229-.928-.119-1.26.124-.327.406-.621.88-.889.086-.046.205-.11.368-.186.755-.405 1.061-.785.923-1.163a.758.758 0 0 0-.436-.452c-.206-.079-.449-.064-.712.038.1-.047-.397.197-1.506.706a48.826 48.826 0 0 1-3.519 1.463A47.113 47.113 0 0 1-1.63-2.766c-1.172.34-1.702.483-1.601.453-.283.099-.474.25-.57.437-.105.19-.105.413-.014.652.082.227.206.347.363.378.163.022.526-.026 1.081-.151.712-.177 1.233-.2 1.559-.06C-.478-.918-.205-.564 0 0" style="fill:#ba093c;fill-opacity:1;fill-rule:nonzero;stroke:none" transform="translate(359.464 119.655)"/><path d="m0 0-.632-13.104a.265.265 0 0 1 .029-.202.306.306 0 0 1 .158-.163.51.51 0 0 1 .292-.069c.091.01.163.046.239.117l8.549 7.122c.33.299.631.593.889.885.268.289.45.528.55.728.22.431-.034.974-.765 1.628-.732.659-1.009 1.156-.841 1.483.129.259.305.394.535.414.225.026.521-.063.908-.259.086-.05.225-.124.411-.248a5.35 5.35 0 0 1 .479-.28c.305-.21.607-.402.918-.583.301-.187.616-.364.932-.517.354-.181.818-.387 1.391-.626a3.7 3.7 0 0 0 .388-.181c.129-.041.3-.106.525-.187.225-.076.393-.142.493-.191.382-.202.636-.39.75-.581.115-.192.106-.423-.018-.674-.197-.378-.66-.492-1.387-.357-.449.101-.804.156-1.081.146-.425-.014-.918-.198-1.496-.54-.578-.347-1.688-1.171-3.328-2.467l-9.342-7.521a59.754 59.754 0 0 1-2.348-1.977c-1.783-1.547-3.003-2.147-3.653-1.817-.611.311-.837 1.459-.674 3.428a54.65 54.65 0 0 1 .192 2.857L-6.264.687c.01.214.029.487.038.846.086 1.688 0 2.728-.239 3.096-.134.231-.358.507-.683.814-.502.467-.655.869-.488 1.215.096.189.253.302.474.359a.987.987 0 0 0 .654-.086c.096-.055.192-.103.264-.154.076-.043.162-.097.253-.162.545-.33 1.142-.688 1.812-1.05.659-.375 1.367-.75 2.114-1.134.716-.362 1.4-.694 2.065-1.007a50.181 50.181 0 0 1 1.879-.844c.081-.017.182-.059.292-.115.324-.131.545-.23.659-.284.297-.154.497-.319.593-.505.11-.191.105-.394-.01-.607-.21-.43-.779-.526-1.697-.297C.808 1.002.277.976.139.687.086.591.038.399.01.127 0 .079 0 .034 0 0" style="fill:#ba093c;fill-opacity:1;fill-rule:nonzero;stroke:none" transform="translate(347.22 144.257)"/><path d="m0 0 9.5 14.007c.306.449.436.856.378 1.217-.043.358-.287.736-.708 1.121-.081.043-.177.136-.306.272-.574.52-.769.926-.583 1.2.153.213.311.33.506.345.196.017.416-.077.68-.256-.068.045.382-.297 1.334-1.023a63.805 63.805 0 0 1 3.088-2.224 68.48 68.48 0 0 1 3.199-2.046c1.032-.617 1.516-.901 1.434-.843.253-.172.407-.35.473-.545a.63.63 0 0 0-.099-.565c-.211-.31-.718-.275-1.521.108l-.077.057c-.621.311-1.105.421-1.448.342-.326-.081-.661-.361-.991-.852L5.412-3.609c-.306-.453-.439-.849-.406-1.203.033-.346.243-.701.636-1.066.071-.067.176-.155.315-.272.636-.57.852-1.022.622-1.349a.749.749 0 0 0-.526-.335c-.225-.026-.454.043-.684.203.086-.061-.349.285-1.296 1.048a47.027 47.027 0 0 1-3.069 2.247 49.989 49.989 0 0 1-3.247 2.041c-1.057.598-1.539.87-1.448.811-.249.17-.397.356-.455.564-.047.215-.004.421.144.631.134.198.287.297.449.282.158-.014.497-.148 1.014-.399.645-.344 1.143-.478 1.496-.428C-.684-.771-.335-.497 0 0" style="fill:#ba093c;fill-opacity:1;fill-rule:nonzero;stroke:none" transform="translate(320.98 140.121)"/><path d="m0 0-.933.715c-.143.11-.282.16-.416.153-.133 0-.253-.079-.363-.222l-10.896-14.267c-.321-.436-.473-.83-.435-1.198.028-.364.253-.75.669-1.164.076-.058.168-.156.282-.296.54-.533.708-.943.492-1.222-.162-.211-.329-.32-.506-.328-.182-.007-.387.086-.646.282.077-.057-.344.311-1.271 1.098a67.058 67.058 0 0 1-2.956 2.392 69.587 69.587 0 0 1-3.097 2.239c-1.004.669-1.478.984-1.406.934-.244.187-.392.375-.445.564a.637.637 0 0 0 .134.569c.225.299.731.223 1.53-.218l.072-.052c.597-.337 1.066-.468 1.406-.404.334.055.679.321 1.037.789L-6.89 4.598c.11.138.149.272.119.413-.023.13-.114.249-.248.359l-.483.356c-.573.435-1.166.729-1.788.873-.621.148-1.306.16-2.051.043a18.732 18.732 0 0 1-2.037-.464c-.86-.292-1.43-.332-1.722-.106-.176.132-.281.285-.31.441-.024.162.029.327.153.49.101.131.578.509 1.444 1.126a70.427 70.427 0 0 1 2.261 1.689c.111.106.273.23.474.395.913.777 1.554 1.018 1.917.746.292-.225.363-.607.234-1.152-.028-.091-.057-.177-.066-.242-.048-.27.038-.538.263-.805.209-.271.698-.692 1.453-1.268L.215 1.784A33.8 33.8 0 0 1 3.099-.227c.908-.559 1.481-.86 1.72-.913.215-.062.555-.009 1.009.151.454.162.837.134 1.143-.098.176-.137.272-.299.287-.493.014-.193-.068-.399-.235-.633-.128-.16-.607-.658-1.439-1.477a55.863 55.863 0 0 1-2.218-2.358c-.445-.475-.803-.76-1.076-.86-.277-.104-.535-.056-.774.124-.306.234-.354.825-.159 1.769.164.631.269 1.171.33 1.625.091.689.005 1.301-.248 1.81C1.181-1.052.703-.528 0 0" style="fill:#ba093c;fill-opacity:1;fill-rule:nonzero;stroke:none" transform="translate(323.313 161.974)"/><path d="M0 0c.053.122.096.231.105.312.019.094.01.157-.024.187-.033.043-.1.058-.2.051A1.249 1.249 0 0 1-.478.442L-6.56-1.946c-.014.014-.043.005-.086-.015a.518.518 0 0 1-.158-.081c-.043-.04-.052-.105-.028-.175a.926.926 0 0 1 .186-.274l3.304-3.558c.106-.107.2-.186.287-.217.076-.031.148-.029.191.019.067.069.125.122.168.175.043.04.071.093.095.134zm7.474 1.205L-.411-16.766c-.401-.85-.641-1.563-.727-2.146-.091-.584-.048-1.103.115-1.559.072-.175.22-.421.445-.727.439-.693.512-1.188.191-1.491-.173-.151-.354-.199-.554-.12-.197.077-.479.301-.823.674-.034.033-.416.492-1.129 1.377a61.665 61.665 0 0 1-2.184 2.496 69.474 69.474 0 0 1-2.305 2.328 75.256 75.256 0 0 0-1.683 1.65c-.263.287-.425.533-.473.726a.486.486 0 0 0 .172.512c.335.318.846.208 1.53-.337.684-.533 1.2-.65 1.539-.337.068.072.134.149.187.235.062.081.129.195.206.327l1.917 4.038c.148.332.114.69-.096 1.068-.21.38-.976 1.277-2.285 2.692-1.205 1.298-1.975 2.053-2.315 2.255-.335.214-.746.221-1.214.014a27.848 27.848 0 0 1-2.018-.926c-.525-.272-.898-.508-1.108-.703-.378-.346-.58-.705-.603-1.058-.01-.354.119-.847.416-1.466.105-.21.253-.494.444-.867.435-.744.507-1.248.225-1.519-.177-.162-.34-.217-.497-.182-.158.039-.378.216-.655.522a1.917 1.917 0 0 0-.129.129.602.602 0 0 0-.081.124 3.808 3.808 0 0 0-.307.404 51.01 51.01 0 0 1-2.323 2.696 24.571 24.571 0 0 1-1.879 1.82c-.134.117-.225.201-.287.244a1.569 1.569 0 0 0-.149.122c-.038.038-.071.079-.1.109-.239.256-.372.474-.411.649-.029.177.039.339.186.475.312.292.789.249 1.42-.131.249-.172.431-.289.555-.347a2.342 2.342 0 0 1 1.162-.215c.426.017.956.142 1.601.366L4.892 4.023c.602.21 1.061.294 1.377.237.315-.058.664-.294 1.061-.715.354-.387.55-.695.573-.928.038-.231-.114-.707-.429-1.412" style="fill:#ba093c;fill-opacity:1;fill-rule:nonzero;stroke:none" transform="translate(299.45 177.057)"/><path d="m0 0-3.137-2.204c-.391-.28-.674-.407-.845-.381-.173.02-.35.147-.507.378-.216.306-.154.935.177 1.884.171.535.295.985.382 1.332.162.614.134 1.291-.077 2.014-.2.723-.593 1.498-1.171 2.32-.708 1.011-1.343 1.637-1.888 1.89-.555.261-1.143.163-1.78-.277l-4.379-3.084c-.277-.193-.378-.446-.31-.769.066-.326.31-.803.755-1.425.64-.911 1.167-1.554 1.573-1.932.406-.368.779-.566 1.119-.581.497-.023 1.08.029 1.749.148.665.144 1.129.043 1.363-.293a.83.83 0 0 0 .158-.613.789.789 0 0 0-.359-.547c.015.007-.253-.143-.807-.471a22.87 22.87 0 0 1-1.641-1.052 50.273 50.273 0 0 1-1.912-1.408c-.713-.531-1.148-.861-1.315-.983-.229-.155-.425-.215-.617-.183-.186.028-.363.165-.521.396a.985.985 0 0 0-.2.641c0 .218.152.548.416.99.038.076.104.208.195.385.091.17.158.304.211.401.335.722.469 1.362.368 1.899-.096.538-.426 1.2-.98 1.984-.182.265-.331.466-.435.606-.11.139-.211.259-.307.376l-.377.407c-.13.165-.263.253-.382.277-.124.021-.249-.02-.373-.11l-4.428-3.111-.33-.231c-1.295-.908-1.97-1.722-2.041-2.429-.068-.705.3-1.628 1.09-2.757.564-.791 1.209-1.448 1.956-1.953.736-.509 1.491-.822 2.256-.951.655-.129 1.429-.172 2.338-.132.909.039 1.487-.109 1.726-.454a.87.87 0 0 0 .134-.726c-.072-.263-.253-.498-.55-.701a4.745 4.745 0 0 1-.88-.361l-2.893-1.314c-.406-.19-.741-.243-.999-.159-.257.077-.502.285-.746.622.154-.217-.464.788-1.864 3.017a158.513 158.513 0 0 1-4.585 6.88 72.962 72.962 0 0 1-3.022 4.028c-1.009 1.268-1.463 1.826-1.387 1.709-.181.266-.263.507-.248.744.014.24.119.421.32.56.301.22.799-.046 1.482-.787l.058-.076c.506-.562.932-.869 1.29-.94.359-.067.78.065 1.253.404l13.77 9.684c.455.323.727.658.803 1.004.077.345-.024.782-.296 1.309a4.248 4.248 0 0 1-.258.494c-.431.846-.502 1.372-.201 1.592a.7.7 0 0 0 .636.088c.23-.074.44-.243.631-.52-.158.236.215-.373 1.118-1.832.905-1.453 1.971-3.031 3.17-4.747a144.39 144.39 0 0 1 4.155-5.604A329.475 329.475 0 0 0-.105 1.412C.191.991.344.702.354.521.368.351.249.177 0 0" style="fill:#ba093c;fill-opacity:1;fill-rule:nonzero;stroke:none" transform="translate(297.16 188.876)"/><path d="m0 0-.297-.157c-.679-.347-1.061-.632-1.142-.854-.068-.211.009-.552.244-1.007.75-1.439 1.73-2.41 2.944-2.907 1.22-.509 2.435-.449 3.653.185 1.167.604 1.942 1.499 2.328 2.675.388 1.19.292 2.331-.277 3.427-.377.737-.803 1.165-1.276 1.284-.469.127-1.2-.071-2.199-.583Zm.692-6.865c.24-.9.302-1.691.197-2.379-.101-.677-.407-1.406-.904-2.164l-3.973-6.294a3.436 3.436 0 0 1-.55-1.189c-.105-.418-.129-.915-.066-1.496-.005-.016 0-.048.004-.1 0-.522-.091-.825-.273-.923a.55.55 0 0 0-.497 0c-.177.079-.311.215-.421.418-.019.039-.167.378-.444 1.009-.278.64-.564 1.248-.866 1.829-.21.414-.506.959-.884 1.633a53.392 53.392 0 0 0-.789 1.453c-.244.466-.339.81-.296 1.023.043.228.21.545.502.966l4.982 7.066c.53.758.87 1.425 1.023 2.004.148.576.11 1.083-.115 1.513l-.153.297c-.081.16-.177.258-.296.299-.11.047-.239.021-.397-.055l-6.651-3.447c-.488-.256-.803-.543-.932-.862-.124-.317-.091-.745.095-1.283.039-.124.101-.292.187-.518.272-.677.253-1.088-.067-1.253-.234-.124-.44-.144-.617-.068-.181.082-.344.264-.492.55.047-.091-.177.414-.67 1.521A69.589 69.589 0 0 1-14.33-3.89a58.891 58.891 0 0 1-1.807 3.261c-.607 1.028-.894 1.504-.861 1.43-.138.27-.191.511-.153.705.039.201.153.347.354.457.206.102.382.117.545.026.153-.091.416-.404.789-.947.382-.54.741-.849 1.071-.927.325-.084.751.012 1.272.284L1.821 8.138c.497.256.813.54.947.853.133.309.12.712-.043 1.205a.613.613 0 0 0-.067.187 1.78 1.78 0 0 0-.057.198c-.192.552-.278.915-.254 1.093.024.186.13.325.316.423.253.133.492.124.702-.036.221-.156.469-.507.746-1.047.101-.18.297-.593.603-1.239.306-.635.574-1.171.799-1.616.664-1.288 1.52-2.849 2.548-4.695C9.099 1.626 9.768.409 10.068-.172c1.316-2.549 1.884-4.71 1.707-6.478-.181-1.772-1.094-3.082-2.734-3.928-1.291-.677-2.658-.677-4.112-.033C3.476-9.962 2.07-8.719.692-6.865" style="fill:#ba093c;fill-opacity:1;fill-rule:nonzero;stroke:none" transform="translate(270.983 214.68)"/><path d="M0 0c3.428 1.045 6.675.543 9.749-1.489 3.069-2.044 5.245-5.15 6.517-9.322.483-1.586.784-3.128.918-4.629.138-1.499.086-2.473-.153-2.913-.077-.153-.478-.416-1.229-.805a14.502 14.502 0 0 0-2.362-.961c-.249-.069-.454-.068-.631.015-.177.073-.296.231-.363.46-.125.397.124.943.726 1.64.277.368.498.665.665.88.693.956 1.124 1.898 1.291 2.811.162.914.086 1.906-.239 2.969-.669 2.209-2.252 3.773-4.734 4.689-2.476.916-5.23.911-8.261-.012-2.994-.911-5.236-2.417-6.732-4.542-1.492-2.118-1.894-4.322-1.196-6.599a6.412 6.412 0 0 1 1.855-2.942 6.893 6.893 0 0 1 3.156-1.621c.339-.084.779-.17 1.329-.268.904-.163 1.396-.394 1.492-.715.081-.277.029-.493-.158-.643-.177-.155-.798-.395-1.836-.71-.975-.291-1.659-.461-2.061-.492-.396-.031-.731.043-1.004.21-.832.51-1.635 1.391-2.381 2.658-.746 1.263-1.391 2.75-1.912 4.474-1.296 4.266-1.262 8.039.124 11.316C-6.048-3.271-3.571-1.088 0 0" style="fill:#ba093c;fill-opacity:1;fill-rule:nonzero;stroke:none" transform="translate(255.975 246.116)"/><path d="m0 0-11.007 12.848c-.344.411-.707.645-1.065.69-.368.046-.789-.083-1.268-.396a3.315 3.315 0 0 0-.348-.218c-.661-.411-1.1-.5-1.316-.244-.167.191-.234.385-.19.574.033.188.176.383.416.593-.063-.048.391.287 1.342 1.015a63.25 63.25 0 0 1 2.956 2.391 61.616 61.616 0 0 1 2.811 2.551c.88.835 1.272 1.224 1.205 1.165.225.19.44.299.645.307a.6.6 0 0 0 .516-.248c.254-.282.077-.762-.507-1.439l-.071-.055c-.464-.526-.693-.954-.713-1.298-.009-.349.182-.746.565-1.188L4.915 4.268c.354-.416.698-.648 1.047-.713.35-.057.746.055 1.2.34.086.049.196.124.34.224.722.469 1.209.553 1.473.249a.77.77 0 0 0 .181-.602c-.034-.223-.163-.419-.378-.603.086.069-.363-.256-1.348-.971A52.693 52.693 0 0 1 4.451-.174 57.056 57.056 0 0 1 1.63-2.771C.77-3.634.383-4.03.464-3.959c-.225-.193-.449-.286-.665-.281-.215.004-.406.104-.573.296-.159.186-.206.351-.149.511.058.149.268.445.646.869.506.533.774.982.812 1.337C.569-.867.396-.464 0 0" style="fill:#ba093c;fill-opacity:1;fill-rule:nonzero;stroke:none" transform="translate(550.12 148.606)"/><path d="M0 0c0-4.699-3.806-8.498-8.506-8.498-4.699 0-8.51 3.799-8.51 8.498 0 4.698 3.811 8.506 8.51 8.506C-3.806 8.506 0 4.698 0 0" style="fill:#ba093c;fill-opacity:1;fill-rule:nonzero;stroke:none" transform="translate(617.473 264.837)"/><path d="M0 0a8.507 8.507 0 0 0-8.505-8.506A8.505 8.505 0 0 0-17.016 0c0 4.692 3.81 8.51 8.511 8.51C-3.815 8.51 0 4.692 0 0" style="fill:#ba093c;fill-opacity:1;fill-rule:nonzero;stroke:none" transform="translate(260.565 265.768)"/><path d="M0 0c-2.43-.041-4.389.995-5.896 3.108-1.497 2.103-2.276 4.939-2.342 8.501a24.393 24.393 0 0 0 .373 4.721c.274 1.524.581 2.468.916 2.849.152.172.649.317 1.504.43.86.111 2.045.179 3.541.204.307.008.545-.065.717-.215.173-.152.263-.365.269-.649.008-.441-.425-.895-1.301-1.367a17.167 17.167 0 0 1-1.155-.608c-1.407-.846-2.376-1.716-2.911-2.613-.534-.892-.792-2.019-.771-3.38.033-1.938.498-3.476 1.374-4.608.886-1.129 2.047-1.681 3.482-1.658 1.122.022 2.075.483 2.854 1.395.782.905 1.585 2.526 2.408 4.849 1.478 4.303 2.959 7.238 4.43 8.82 1.471 1.582 3.332 2.391 5.572 2.427 2.718.046 4.99-1.112 6.796-3.477 1.808-2.368 2.746-5.408 2.806-9.108.058-3.078-.249-5.477-.909-7.214C21.092.672 20.13-.202 18.876-.229c-.391-.001-.907.011-1.553.039-.65.033-1.118.04-1.396.042a11.053 11.053 0 0 1-.833-.054 35.843 35.843 0 0 0-.371-.031c-.452-.013-.814.07-1.073.233-.265.167-.394.406-.403.729-.013.505.503.875 1.532 1.107.737.158 1.31.326 1.715.503 1.499.656 2.694 1.715 3.576 3.184.887 1.47 1.311 3.086 1.28 4.859-.034 2.003-.602 3.683-1.705 5.051-1.103 1.357-2.445 2.021-4.02 1.995-1.358-.025-2.596-.657-3.709-1.894-1.105-1.241-2.16-3.172-3.155-5.804a9.067 9.067 0 0 0-.312-.776C6.233 3.046 3.415.062 0 0" style="fill:#ba093c;fill-opacity:1;fill-rule:nonzero;stroke:none" transform="translate(244.614 285.651)"/><path d="M0 0c2.43.041 4.389-.995 5.895-3.108 1.497-2.103 2.276-4.939 2.342-8.501a24.153 24.153 0 0 0-.374-4.721c-.271-1.524-.579-2.469-.916-2.85-.15-.171-.647-.317-1.503-.429-.859-.112-2.045-.179-3.541-.204-.307-.008-.544.065-.716.214-.174.153-.262.366-.269.65-.009.441.426.894 1.301 1.367.468.228.857.432 1.154.607 1.407.846 2.377 1.716 2.911 2.614.534.891.793 2.017.772 3.38-.035 1.938-.499 3.476-1.375 4.608-.885 1.128-2.046 1.68-3.482 1.658C1.077-4.738.125-5.199-.654-6.111c-.783-.904-1.585-2.525-2.409-4.849-1.477-4.302-2.958-7.237-4.429-8.819-1.472-1.582-3.332-2.392-5.573-2.428-2.717-.046-4.99 1.113-6.795 3.477-1.808 2.368-2.747 5.409-2.806 9.108-.058 3.079.248 5.478.908 7.215.665 1.735 1.626 2.609 2.881 2.635.392.002.907-.011 1.553-.038.65-.033 1.119-.04 1.397-.042.282.007.55.025.832.054l.372.031c.452.013.814-.07 1.073-.233.264-.167.393-.407.403-.73.013-.505-.503-.875-1.533-1.106-.737-.159-1.309-.327-1.714-.503-1.5-.657-2.694-1.715-3.576-3.184-.887-1.471-1.312-3.086-1.281-4.859.035-2.004.603-3.683 1.706-5.052 1.103-1.357 2.444-2.021 4.02-1.995 1.358.026 2.595.658 3.709 1.894 1.104 1.241 2.159 3.172 3.154 5.804.058.169.158.432.313.777C-6.233-3.046-3.415-.062 0 0" style="fill:#ba093c;fill-opacity:1;fill-rule:nonzero;stroke:none" transform="translate(615.058 308.22)"/><path d="m0 0 3.979-.509c.43-.058.715-.149.86-.274.147-.129.213-.318.176-.572-.049-.366-.546-.736-1.5-1.117a5.698 5.698 0 0 1-2.346-1.675C.456-4.964-.136-6.02-.589-7.305c-.458-1.284-.807-2.82-1.038-4.613-.189-1.473-.168-2.466.069-2.99.241-.512 1.003-.856 2.285-1.023l7.596-.977c.449-.059.72-.025.828.111.1.126.18.441.255.956l.377 2.947c.16 1.235.22 2.391.184 3.473-.028 1.078-.133 1.79-.309 2.138-.302.625-.813 1.107-1.518 1.447-.71.341-1.041.736-.975 1.183.034.299.119.5.234.605.12.106.297.146.531.11.321-.038.98-.178 1.969-.416a26.228 26.228 0 0 1 2.511-.486c.848-.107 2.157-.211 3.912-.306.257-.033.453-.127.578-.285.134-.163.178-.368.15-.622-.051-.407-.513-.725-1.37-.963-.859-.234-1.571-.515-2.128-.832-.616-.357-1.073-.896-1.388-1.594-.322-.71-.589-1.946-.822-3.719l-.363-2.883c-.06-.47-.055-.788.033-.966.085-.177.295-.282.638-.321l9.365-1.211c1.254-.155 2.095.018 2.538.536.452.518.8 1.782 1.062 3.79.306 2.363.337 4.143.097 5.321-.237 1.181-.799 2.272-1.671 3.274-.359.41-.865.918-1.499 1.513-.911.89-1.337 1.559-1.276 2.009.018.125.08.254.202.403.12.15.214.216.31.202a8.83 8.83 0 0 1 .809-.224l4.33-1.295.233-.028c.911-.25 1.291-.985 1.14-2.198-.058-.431-.377-2.5-.968-6.213a375.11 375.11 0 0 1-1.517-10.469 85.316 85.316 0 0 1-.475-4.501c-.113-1.415-.163-2.065-.148-1.966-.063-.489-.174-.847-.317-1.068a.603.603 0 0 0-.604-.279c-.386.05-.525.599-.408 1.654.031.537.037.962.029 1.264.057.755-.068 1.296-.365 1.616-.298.323-1.052.56-2.267.713L-.711-21.79c-.881.115-1.442.102-1.692-.025-.246-.134-.468-.448-.662-.948a5.166 5.166 0 0 1-.194-.767c-.067-.317-.108-.515-.144-.603a1.534 1.534 0 0 1-.014-.13c-.162-.876-.424-1.29-.801-1.24-.196.022-.331.138-.403.342-.086.204-.106.491-.054.861-.035-.284.112.662.429 2.821.327 2.165.647 4.477.961 6.939.41 3.14.77 6.148 1.097 9.018.321 2.873.461 4.169.43 3.888.09.71.225 1.182.41 1.416.181.235.577.317 1.181.245z" style="fill:#ba093c;fill-opacity:1;fill-rule:nonzero;stroke:none" transform="translate(242.908 334.045)"/><path d="m0 0 18.933-5.033c1.889-.508 3.516-1.306 4.885-2.407 1.368-1.1 2.569-2.548 3.599-4.36 1.078-1.911 1.796-3.708 2.178-5.387.374-1.676.394-3.181.033-4.507-.289-1.125-.791-1.951-1.492-2.476-.695-.526-1.486-.672-2.383-.432-.664.173-1.16.602-1.49 1.277-.334.682-.396 1.403-.188 2.168.222.861.905 1.556 2.043 2.103 1.129.538 1.787 1.143 1.963 1.809.271 1.017-.253 2.023-1.565 3.018-1.32.999-3.25 1.831-5.787 2.507L-1.54-5.795c-.83.224-1.384.275-1.647.151-.263-.117-.537-.431-.807-.943-.185-.378-.391-.902-.617-1.578-.276-.938-.605-1.355-1.001-1.252-.18.049-.305.176-.362.382-.062.205-.049.452.035.746-.012-.048.22.612.697 1.971.486 1.35.921 2.781 1.321 4.273.387 1.462.839 3.602 1.353 6.431.071.269.184.482.353.619.157.145.324.2.501.156.397-.113.487-.633.264-1.575a12.597 12.597 0 0 1-.202-1.379c-.074-.715-.041-1.206.118-1.469C-1.375.475-.858.224 0 0" style="fill:#ba093c;fill-opacity:1;fill-rule:nonzero;stroke:none" transform="translate(247.924 345.254)"/><path d="M0 0c-1.059-2.896-.762-5.669.89-8.312 1.641-2.641 4.378-4.658 8.196-6.051 4.178-1.516 7.883-1.787 11.128-.796 3.244.983 5.409 2.977 6.514 5.989 1.052 2.895.746 5.682-.908 8.353-1.662 2.665-4.401 4.697-8.223 6.085-4.135 1.503-7.827 1.75-11.082.737C3.26 4.994 1.088 2.99 0 0m-1.103.794C.467 5.126 3.22 8.311 7.14 10.341c3.914 2.035 7.893 2.31 11.954.831 4.105-1.492 6.987-4.266 8.665-8.339 1.672-4.065 1.701-8.303.101-12.711-1.583-4.337-4.331-7.527-8.264-9.559-3.929-2.042-7.907-2.321-11.953-.851-4.071 1.481-6.959 4.265-8.642 8.345C-2.673-7.865-2.711-3.624-1.103.794" style="fill:#ba093c;fill-opacity:1;fill-rule:nonzero;stroke:none" transform="translate(254.426 363.302)"/><path d="m0 0 4.173 6.996.161.273c.158.258.29.43.386.517.111.091.299.163.586.225l26.348 4.864c.066.012.101.037.126.079.035.049.024.127-.032.218a.764.764 0 0 1-.283.267l-10.914 6.518a32.05 32.05 0 0 1-1.351.764c-.456.247-.694.378-.708.389-1.522.905-2.547 1.272-3.08 1.097-.528-.173-1.234-.994-2.114-2.472-.166-.276-.356-.492-.585-.635-.214-.141-.401-.159-.576-.065-.183.109-.241.331-.179.658.063.327.229.71.483 1.158.175.296.543.851 1.096 1.694a61.267 61.267 0 0 1 1.374 2.173c.352.587.74 1.286 1.164 2.083.424.799.703 1.302.822 1.507.229.385.464.663.695.824.228.164.438.191.617.083.204-.122.298-.263.282-.429-.013-.169-.136-.447-.364-.83l-.346-.587c-.485-.808-.563-1.508-.226-2.119.32-.606 1.379-1.44 3.155-2.501l2.274-1.357L40.53 10.916c.262-.153.442-.383.539-.686.101-.297.086-.56-.047-.787a1.308 1.308 0 0 0-.48-.446 2.65 2.65 0 0 0-.791-.275L7.298 2.801a.312.312 0 0 1-.095-.097c-.034-.054-.027-.134.037-.225a.66.66 0 0 1 .247-.245l12.947-7.723 2.558-1.531c1.688-1.008 2.847-1.479 3.48-1.419.639.054 1.253.592 1.866 1.61.066.11.165.282.292.517.126.237.224.411.291.523.145.239.312.394.507.485a.597.597 0 0 0 .571-.043c.205-.123.269-.337.198-.662-.063-.318-.242-.715-.515-1.178-.173-.295-.545-.861-1.125-1.707a51 51 0 0 1-1.351-2.118 51.405 51.405 0 0 1-1.107-2.002c-.43-.836-.739-1.41-.93-1.726-.252-.426-.501-.728-.731-.919-.229-.185-.448-.218-.647-.097-.219.129-.329.304-.324.527.009.22.134.525.366.914l.298.502c.588.981.741 1.783.467 2.415-.281.626-1.352 1.501-3.228 2.622L19.234-7.5 4.841 1.086c-.717.428-1.216.63-1.512.605-.29-.028-.627-.238-1.013-.634a17.11 17.11 0 0 1-.939-1.195C.825-.979.379-1.305.052-1.108a.507.507 0 0 0-.268.435C-.224-.481-.149-.254 0 0" style="fill:#ba093c;fill-opacity:1;fill-rule:nonzero;stroke:none" transform="translate(262.468 379.068)"/><path d="m0 0-3.903 3.778c-.619.602-1.096.896-1.421.902-.32.004-.821-.253-1.506-.766-.31-.235-.714-.585-1.189-1.047-.77-.726-1.287-.951-1.573-.681-.141.137-.187.319-.141.545.047.219.201.464.453.732.027.032.622.55 1.755 1.561a64.841 64.841 0 0 1 6.543 6.752c.966 1.171 1.41 1.709 1.337 1.632.212.218.417.358.619.409.213.057.385.015.528-.118.3-.293.102-.839-.587-1.65a12.64 12.64 0 0 1-.766-.93c-.434-.64-.643-1.124-.628-1.461.019-.336.33-.788.931-1.372l5.049-4.878c.985-.961.941-2.647-.145-5.068-1.078-2.415-2.89-4.935-5.442-7.571-3.8-3.929-7.937-6.193-12.402-6.789-4.455-.6-8.236.6-11.336 3.596-3.346 3.237-4.744 7.299-4.214 12.188.531 4.889 2.86 9.461 6.976 13.712a33.562 33.562 0 0 0 4.533 3.917c1.586 1.117 2.722 1.732 3.425 1.834.336.07.795-.097 1.397-.49.593-.398 1.38-1.072 2.374-2.033.326-.315.518-.603.58-.85.053-.254-.027-.483-.238-.705-.323-.341-.978-.353-1.963-.031-.386.094-.682.173-.896.237a7.606 7.606 0 0 1-4.408-.187c-1.439-.498-2.835-1.442-4.183-2.829-2.695-2.792-3.922-6.026-3.684-9.706.242-3.684 1.909-7.02 5.004-10.012 2.856-2.77 6.064-4.163 9.603-4.181 3.55-.018 6.622 1.301 9.192 3.961 1.409 1.456 2.165 2.739 2.27 3.872C2.051-2.606 1.402-1.357 0 0" style="fill:#ba093c;fill-opacity:1;fill-rule:nonzero;stroke:none" transform="translate(315.03 410.896)"/><path d="M0 0c-2.497 3.487-3.112 7.506-1.854 12.062 1.261 4.557 4.042 8.368 8.336 11.445a30.213 30.213 0 0 0 5.03 2.911c1.738.789 2.911 1.155 3.542 1.095.286.01.751-.295 1.385-.912.629-.617 1.309-1.443 2.047-2.477.16-.215.234-.41.244-.58a.416.416 0 0 0-.184-.398c-.164-.118-.415-.167-.738-.152-.327.019-.997.173-2.004.451-1.89.509-3.533.659-4.907.481-1.383-.182-2.681-.707-3.892-1.58-2.873-2.045-4.46-4.829-4.78-8.365-.319-3.526.741-6.994 3.165-10.398C7.652.428 10.471-1.563 13.864-2.4c3.389-.846 6.397-.328 9.011 1.543 1.533 1.097 2.618 2.336 3.269 3.744.647 1.401.902 3.075.77 5.008-.012.197-.024.46-.043.795-.159 1.471-.057 2.33.291 2.58a.618.618 0 0 0 .56.078c.208-.063.392-.218.562-.449-.015.018.209-.338.669-1.079a43.9 43.9 0 0 1 1.494-2.234c.627-.874.317-2.233-.922-4.058-1.248-1.833-3.117-3.643-5.611-5.424-4.245-3.037-8.658-4.371-13.23-4.01C6.119-5.549 2.55-3.58 0 0" style="fill:#ba093c;fill-opacity:1;fill-rule:nonzero;stroke:none" transform="translate(318.038 426.756)"/><path d="m0 0 10.579-5.345a.693.693 0 0 1 .344-.101.707.707 0 0 1 .298.051c.072.04.123.165.152.391a.428.428 0 0 0-.014.16l1.339 10.6c.055.47.081.886.077 1.266-.014.377-.05.634-.116.756-.25.498-.93.535-2.047.121-1.107-.417-1.752-.444-1.94-.082-.082.149-.063.305.044.475.11.176.307.332.602.48.128.063.676.294 1.64.683.958.39 1.818.773 2.561 1.152a46.477 46.477 0 0 1 2.727 1.494c.796.476 1.138.681 1.029.626.286.147.516.215.682.209.167-.01.297-.102.392-.286.194-.387-.068-.802-.782-1.238-.412-.281-.727-.509-.925-.685a3.704 3.704 0 0 1-.964-1.398c-.231-.563-.454-1.596-.683-3.085L12.989-6.352a1.969 1.969 0 0 1 .014-.613c.039-.236.093-.422.166-.572l3.873-7.591.113-.219c.443-.876.856-1.392 1.241-1.538.376-.152.944-.105 1.72.152.274.066.604.192 1.017.382.853.368 1.378.352 1.586-.04.092-.181.061-.372-.093-.57-.148-.202-.415-.404-.795-.599-.036-.023-.67-.289-1.887-.81a56.435 56.435 0 0 1-7.015-3.572 125.596 125.596 0 0 0-1.759-1.057c-.38-.19-.702-.289-.963-.275a.575.575 0 0 0-.543.331c-.188.368.14.782.985 1.256.504.284.871.528 1.112.747.544.428.841.844.898 1.238.046.394-.167 1.061-.649 2.008L8.501-10.81a1.56 1.56 0 0 1-.345.402 2.074 2.074 0 0 1-.549.383L-4.396-4.096c-1.1.538-2.046.954-2.847 1.252-.786.295-1.403.448-1.849.452-.363-.002-.898-.152-1.596-.449-.693-.298-1.122-.299-1.271-.005-.073.142-.038.348.122.581.149.246.379.445.694.604.069.035.893.4 2.455 1.095a96.558 96.558 0 0 1 4.513 2.151 59.87 59.87 0 0 1 3.058 1.658c.937.55 1.351.794 1.247.737.234.127.425.169.564.141.145-.037.257-.142.359-.327.176-.349-.157-.827-.999-1.438-.84-.618-1.155-1.138-.939-1.559C-.816.652-.7.51-.546.365-.398.224-.212.105 0 0" style="fill:#ba093c;fill-opacity:1;fill-rule:nonzero;stroke:none" transform="translate(342.938 456.584)"/><path d="M0 0c-.235-.077-.396-.192-.498-.326a.51.51 0 0 1-.073-.481l3.048-9.018c.398-1.16 1.058-1.874 1.982-2.136.925-.261 2.239-.107 3.938.469 2.374.805 4.035 2.022 4.977 3.658.943 1.639 1.064 3.503.36 5.601-.655 1.936-1.874 3.209-3.637 3.828-1.771.612-3.911.496-6.428-.358Zm-1.689 2.519c.226-.661.449-1.016.671-1.07.219-.054.756.062 1.601.35l.786.264c2.54.858 4.363 1.972 5.465 3.35 1.107 1.37 1.374 2.902.807 4.587-.6 1.781-1.687 2.939-3.241 3.485-1.556.536-3.507.415-5.864-.382-1.35-.455-2.206-.889-2.58-1.311-.382-.415-.411-1.069-.109-1.956ZM9.399 4.415c2.622.468 4.83.284 6.626-.557 1.796-.843 3.043-2.289 3.731-4.327.807-2.389.433-4.67-1.116-6.839-1.554-2.172-3.981-3.816-7.292-4.93-1.542-.521-3.542-1.074-5.988-1.656-2.441-.583-4.09-1.019-4.941-1.302a33.026 33.026 0 0 1-2.724-1.073 69.917 69.917 0 0 0-1.65-.703c-.351-.113-.65-.152-.89-.107a.618.618 0 0 0-.481.433c-.086.235-.027.434.16.611.195.175.549.347 1.067.523.786.26 1.314.609 1.585 1.036.257.421.281.967.061 1.623-.007.023-.03.126-.079.313a5.615 5.615 0 0 1-.171.609L-9.476 8.138c-.196.58-.473.967-.826 1.155-.357.199-.805.196-1.347.016a8.273 8.273 0 0 1-1.071-.471 11.181 11.181 0 0 0-.96-.439c-.23-.076-.417-.083-.574-.013-.148.068-.258.196-.322.395-.156.448.676 1.1 2.489 1.965 1.816.858 4.548 1.909 8.186 3.137 5.108 1.724 9.058 2.449 11.845 2.164 2.797-.271 4.59-1.567 5.355-3.869.492-1.435.416-2.781-.209-4.039-.626-1.258-1.861-2.502-3.691-3.724" style="fill:#ba093c;fill-opacity:1;fill-rule:nonzero;stroke:none" transform="translate(371.378 457.629)"/><path d="m0 0 .712-3.92c.079-.44.077-.751.007-.934-.069-.178-.225-.285-.472-.329-.344-.064-.834.307-1.455 1.1-.625.802-1.365 1.394-2.229 1.781-.956.405-2.086.642-3.392.709-1.31.063-2.811-.06-4.509-.367-1.392-.253-2.29-.568-2.7-.94-.397-.373-.484-1.191-.257-2.459l1.375-7.572c.076-.443.186-.69.338-.75.145-.059.457-.044.94.043l2.78.501c1.166.215 2.238.491 3.206.835.969.337 1.585.647 1.851.925.475.475.761 1.104.856 1.882.094.779.36 1.207.783 1.283.28.05.488.042.612-.028.13-.072.218-.224.258-.468.06-.325.127-1.002.215-2.036.078-1.033.182-1.873.3-2.538.158-.865.452-2.147.884-3.83.041-.269.016-.478-.093-.639-.11-.169-.276-.27-.522-.315-.377-.066-.807.271-1.272 1.018-.47.749-.932 1.348-1.392 1.805-.502.466-1.117.754-1.853.85-.731.095-1.941-.008-3.606-.309l-2.723-.491c-.443-.081-.735-.196-.865-.334-.13-.134-.167-.364-.111-.687l1.695-9.34c.217-1.217.624-1.962 1.229-2.231.599-.271 1.848-.236 3.742.105 2.238.408 3.856.89 4.856 1.466 1.001.566 1.827 1.417 2.474 2.542.276.467.59 1.094.954 1.872.546 1.147 1.029 1.756 1.451 1.835a.804.804 0 0 0 .442-.078c.172-.077.268-.152.279-.233-.001-.209.004-.489.024-.842l.138-4.569c.003-.037.019-.107.032-.207.044-.911-.508-1.478-1.658-1.684-.399-.071-2.367-.375-5.905-.899a349.228 349.228 0 0 1-9.921-1.628 88.254 88.254 0 0 1-4.217-.869 434.778 434.778 0 0 1-1.824-.431c-.461-.086-.814-.092-1.058-.021a.57.57 0 0 0-.428.497c-.071.381.382.673 1.353.874.498.125.882.239 1.157.329.689.186 1.138.465 1.342.831.195.375.192 1.147-.023 2.336l-3.775 20.858c-.152.849-.328 1.367-.519 1.555-.185.191-.541.312-1.051.36a19.984 19.984 0 0 1-.741-.072c-.312-.042-.5-.057-.586-.046a.544.544 0 0 1-.122-.028c-.845-.103-1.296.029-1.366.421a.559.559 0 0 0 .186.528c.164.143.414.249.757.309-.264-.046.641.086 2.704.383 2.058.305 4.254.662 6.575 1.086 2.964.535 5.8 1.082 8.488 1.639 2.694.557 3.915.813 3.645.763.675.126 1.137.133 1.41.026.27-.11.45-.468.568-1.069z" style="fill:#ba093c;fill-opacity:1;fill-rule:nonzero;stroke:none" transform="translate(408.99 479.916)"/><path d="M0 0c.013-.431.203-.71.567-.833C.923-.96 1.762-1 3.071-.946c2.243.082 3.934.641 5.062 1.683 1.137 1.038 1.674 2.511 1.601 4.42-.076 1.971-.717 3.489-1.916 4.549-1.205 1.062-2.856 1.553-4.931 1.476-1.229-.048-2.079-.222-2.558-.516-.472-.299-.687-.939-.655-1.924Zm8.87-1.354c.94-.437 1.873-1.36 2.803-2.757l.068-.1 4.056-6.23c.147-.21.322-.508.553-.882 1.31-1.952 2.21-2.984 2.706-3.093.303-.073.733-.159 1.272-.241 1.025-.154 1.537-.408 1.551-.751a.335.335 0 0 0-.197-.332c-.135-.068-.443-.114-.915-.13a42.51 42.51 0 0 0-1.881-.001c-.898.011-1.621.007-2.163-.013-.317-.006-.795-.052-1.428-.121-.63-.069-1.118-.11-1.461-.125-.779-.026-1.405.347-1.887 1.125a3.267 3.267 0 0 1-.204.317L5.346-4.45c-.503.841-1.008 1.391-1.509 1.651-.505.268-1.252.387-2.23.347l-.679-.027C.67-2.487.473-2.551.332-2.682a.551.551 0 0 1-.215-.483l.343-9.104c.052-1.256.293-2.054.726-2.371.443-.325 1.2-.47 2.272-.426.516.018.885-.034 1.118-.158a.652.652 0 0 0 .362-.576c.007-.203-.112-.362-.356-.496-.249-.127-.565-.201-.947-.209-2.633.08-4.637.099-6.012.047a66.785 66.785 0 0 1-4.143-.287 192.783 192.783 0 0 0-2.141-.225c-.457-.009-.8.033-1.041.141a.595.595 0 0 0-.378.552c-.014.383.461.629 1.431.73.494.014.868.065 1.127.138.873.182 1.434.413 1.685.687.246.279.353 1.022.306 2.228l-.792 21.14c-.027.82-.139 1.352-.33 1.592-.195.247-.593.421-1.201.528-.388.052-.914.075-1.581.071-1.014.027-1.523.246-1.543.655a.48.48 0 0 0 .311.497c.206.093.688.157 1.445.185.043.003.554.001 1.532-.012.979-.01 1.932.005 2.856.036 1.122.043 2.742.141 4.841.296 2.104.16 3.635.256 4.581.292 3.419.129 6.111-.403 8.054-1.592 1.959-1.19 2.973-2.915 3.057-5.173.074-1.855-.507-3.443-1.736-4.759C12.738-.054 11.044-.921 8.87-1.354" style="fill:#ba093c;fill-opacity:1;fill-rule:nonzero;stroke:none" transform="translate(420.546 469.563)"/><path d="m0 0-2.679-15.878c-.545-3.182-.304-5.493.701-6.936 1.012-1.443 2.979-2.412 5.909-2.904 1.609-.276 3.067-.311 4.364-.098 1.306.198 2.393.626 3.273 1.288.668.528 1.2 1.225 1.589 2.089.399.866.783 2.403 1.159 4.618l.122.722 1.544 9.143.199 1.154c.374 2.233.546 3.719.5 4.46-.033.74-.254 1.275-.628 1.613-.295.234-.911.462-1.87.674-.95.207-1.392.503-1.329.886.04.205.151.344.355.426.203.08.466.093.816.031.144-.021.668-.138 1.587-.336a56.827 56.827 0 0 1 5.366-.905l1.556-.193c.441-.075.76-.185.956-.321a.53.53 0 0 0 .237-.55c-.05-.24-.199-.392-.453-.447-.262-.043-.755-.007-1.479.115-1.092.184-1.878-.026-2.354-.629-.476-.597-.948-2.271-1.415-5.017l-.208-1.268-1.559-9.234-.114-.667c-.384-2.279-.794-3.899-1.208-4.853a7.284 7.284 0 0 0-1.739-2.461c-1.075-.961-2.511-1.586-4.31-1.876-1.795-.277-3.873-.228-6.237.17-2.675.454-4.856 1.093-6.543 1.916-1.674.824-2.943 1.89-3.775 3.194a6.18 6.18 0 0 0-.983 2.669c-.122.985-.018 2.442.308 4.385l.37 2.146L-5.639.946c.144.858.15 1.411.034 1.666-.13.246-.47.482-1.039.703-.368.165-.872.309-1.513.444-.864.162-1.264.444-1.199.84a.531.531 0 0 0 .334.402c.195.094.429.114.712.065-.042.008.606-.164 1.933-.499a48.54 48.54 0 0 1 4.115-.875c1.438-.24 2.842-.42 4.208-.536 1.375-.11 2.033-.17 1.998-.161.307-.051.524-.146.665-.28a.556.556 0 0 0 .171-.507c-.078-.408-.592-.55-1.542-.412-.655.093-1.156.13-1.507.106-.616-.046-1.021-.166-1.22-.378C.311 1.321.136.81 0 0" style="fill:#ba093c;fill-opacity:1;fill-rule:nonzero;stroke:none" transform="translate(455.099 477.277)"/><path d="m0 0 7.644-2.784.304-.117c.277-.103.477-.2.575-.278.113-.092.217-.263.326-.535l9.695-24.982a.225.225 0 0 1 .103-.106c.059-.019.131.006.215.077a.767.767 0 0 1 .209.322l4.365 11.942c.174.487.335.976.498 1.477.16.487.243.743.246.771.61 1.651.784 2.727.51 3.218-.271.486-1.211 1.03-2.821 1.616a1.873 1.873 0 0 0-.738.455c-.176.19-.239.369-.175.553.073.201.282.302.617.307.33-.001.737-.09 1.222-.263.321-.117.948-.375 1.874-.76a59.904 59.904 0 0 1 2.388-.943 45.537 45.537 0 0 1 2.264-.76 77.015 77.015 0 0 0 1.632-.518c.429-.157.738-.334.945-.537.199-.193.269-.392.191-.591-.075-.221-.202-.338-.368-.356-.167-.02-.462.048-.887.207l-.637.225c-.879.329-1.586.27-2.122-.163-.538-.44-1.158-1.627-1.869-3.575l-.914-2.491-7.007-19.186a1.252 1.252 0 0 0-.571-.663c-.281-.149-.538-.183-.784-.092a1.165 1.165 0 0 0-.536.387 2.765 2.765 0 0 0-.416.72L4.103-6.64a.32.32 0 0 1-.105.075c-.063.017-.137-.004-.223-.079a.746.746 0 0 1-.191-.288l-5.177-14.163-1.015-2.791c-.678-1.846-.928-3.08-.749-3.693.174-.615.818-1.127 1.926-1.534.122-.04.312-.105.568-.184.253-.084.448-.149.57-.195.264-.091.45-.231.564-.405a.619.619 0 0 0 .073-.571c-.082-.219-.29-.329-.618-.316-.334.009-.747.109-1.253.289-.327.122-.952.378-1.884.777a55.11 55.11 0 0 1-2.339.947c-.549.191-1.278.425-2.171.699-.903.272-1.524.471-1.87.593-.463.175-.81.356-1.044.553-.221.195-.294.399-.209.623.08.235.238.369.452.405.22.032.54-.023.965-.186l.552-.197c1.072-.395 1.892-.394 2.456-.003.571.396 1.226 1.608 1.978 3.654l.848 2.341L1.965-4.551c.287.784.389 1.318.312 1.602-.08.274-.355.57-.817.876-.293.174-.747.409-1.352.698-.927.39-1.327.759-1.196 1.122a.51.51 0 0 0 .391.337C-.513.13-.284.107 0 0" style="fill:#ba093c;fill-opacity:1;fill-rule:nonzero;stroke:none" transform="translate(479.297 476.778)"/><path d="m0 0-9.721-18.78c-.523-1.005-.755-1.689-.704-2.051.064-.357.396-.773.994-1.256.255-.207.647-.462 1.179-.755.859-.529 1.19-.99.976-1.403-.099-.192-.288-.284-.555-.267-.265.016-.596.122-.982.324-.034.016-.651.383-1.845 1.109a62.47 62.47 0 0 1-7.356 3.808c-1.274.557-1.927.847-1.971.867-.402.209-.685.419-.834.633-.161.213-.18.439-.058.662.175.344.716.327 1.605-.063.433-.23.782-.372 1.046-.441.851-.267 1.457-.342 1.811-.216.358.124.817.727 1.375 1.81l9.725 18.771c.37.726.541 1.241.487 1.546-.044.304-.307.655-.788 1.041-.313.238-.758.517-1.344.848-.87.521-1.21.965-1.018 1.326.088.168.228.26.434.278.201.018.452-.045.733-.196-.043.018.555-.357 1.789-1.12A51.65 51.65 0 0 1-1.136 4.27a54.15 54.15 0 0 1 3.995-1.877c1.328-.561 1.98-.836 1.965-.823.262-.144.451-.307.559-.495.106-.199.12-.369.044-.522-.196-.372-.755-.35-1.683.057-.508.236-.913.407-1.226.523-.656.216-1.144.283-1.438.189C.776 1.226.42.792 0 0" style="fill:#ba093c;fill-opacity:1;fill-rule:nonzero;stroke:none" transform="translate(517.846 456.856)"/><path d="m0 0-23.559-13.855c-.266-.154-.49-.244-.673-.262a.677.677 0 0 0-.461.1c-.242.173-.289.734-.13 1.69.053.387.091.671.122.861l3.421 23.867c.019.149.055.347.093.606.352 2.376.283 3.915-.206 4.613-.138.175-.506.508-1.111 1.002-.603.489-.828.853-.669 1.086a.617.617 0 0 0 .522.271c.224.008.476-.087.74-.27-.221.144.397-.337 1.841-1.457a102.303 102.303 0 0 1 4.804-3.478c.578-.403 1.331-.865 2.251-1.401.228-.126.387-.221.477-.279.036-.027.104-.044.197-.045.397-.266.657-.44.782-.526.271-.18.436-.343.51-.484.07-.148.053-.303-.077-.484-.215-.318-.826-.224-1.827.296-1.006.515-1.689.496-2.068-.057a2.801 2.801 0 0 1-.336-.752 8.154 8.154 0 0 1-.285-1.181l-2.306-16.393c-.086-.435-.128-.738-.103-.913.025-.173.081-.291.177-.351.101-.077.252-.078.455-.021.198.062.451.187.773.39L-4.32.499c.597.376 1.106.738 1.512 1.102.426.355.716.655.884.908.487.712.248 1.507-.716 2.377-.97.87-1.348 1.459-1.143 1.767.103.158.287.223.542.19.262-.027.541-.153.857-.373.059-.035.477-.385 1.261-1.049a32.139 32.139 0 0 1 2.386-1.814 44.877 44.877 0 0 1 2.665-1.705c.877-.511 1.278-.748 1.209-.697.351-.242.587-.464.7-.664.113-.194.111-.38.003-.541-.229-.326-.665-.297-1.326.093-.668.39-1.107.621-1.345.703-.44.117-.895.12-1.362.015C1.343.697.736.427 0 0" style="fill:#ba093c;fill-opacity:1;fill-rule:nonzero;stroke:none" transform="translate(545.07 438.973)"/><path d="m0 0-2.768-2.903c-.298-.313-.539-.492-.73-.532-.19-.044-.375.027-.564.206-.263.249-.263.87-.007 1.857.256.988.277 1.952.037 2.891-.236 1.06-.74 2.155-1.498 3.289-.766 1.132-1.803 2.317-3.104 3.566-1.079 1.02-1.888 1.595-2.451 1.707-.559.121-1.283-.291-2.173-1.231l-5.29-5.542c-.311-.324-.447-.565-.401-.719.043-.163.248-.421.624-.781l2.149-2.044a22.435 22.435 0 0 1 2.682-2.212c.888-.615 1.522-.952 1.906-1.025.68-.12 1.374.002 2.074.378.694.369 1.195.397 1.529.079.221-.202.337-.381.344-.546.016-.16-.061-.322-.231-.492-.216-.237-.717-.682-1.497-1.342-.777-.661-1.406-1.244-1.879-1.743-.592-.613-1.453-1.604-2.569-2.96-.174-.19-.368-.288-.567-.301-.21-.011-.407.077-.592.252-.295.288-.285.84.038 1.676.321.831.517 1.571.592 2.21.078.694-.08 1.385-.46 2.055-.382.682-1.229 1.633-2.509 2.871L-19.424.668c-.34.326-.609.505-.799.546-.195.029-.402-.081-.639-.33l-6.52-6.834c-.868-.903-1.225-1.689-1.08-2.361.161-.665.962-1.695 2.429-3.092 1.727-1.649 3.132-2.73 4.233-3.229 1.09-.511 2.3-.708 3.621-.597.555.046 1.251.146 2.117.312 1.248.193 2.041.144 2.366-.166a.85.85 0 0 0 .208-.402c.047-.181.049-.3-.011-.365a10.71 10.71 0 0 1-.675-.523l-3.604-2.723c-.031-.033-.083-.08-.157-.161-.753-.597-1.562-.467-2.453.379-.311.297-1.784 1.783-4.432 4.457a357.66 357.66 0 0 1-7.529 7.431 102.61 102.61 0 0 1-3.344 3.049c-1.08.929-1.579 1.358-1.497 1.282-.366.337-.584.639-.67.889a.595.595 0 0 0 .131.655c.266.277.791.059 1.574-.657.415-.338.75-.595 1.002-.776.574-.488 1.081-.712 1.515-.66.436.053 1.076.516 1.919 1.398l14.595 15.291c.611.644.932 1.102.978 1.38.035.277-.092.642-.37 1.095a5.541 5.541 0 0 1-.505.609c-.215.239-.351.4-.395.48-.02.01-.047.043-.098.083-.617.645-.789 1.107-.529 1.385.135.139.312.182.52.122.215-.055.452-.21.719-.464-.2.189.471-.484 2.019-2.03a338.897 338.897 0 0 1 5.021-4.882 577.74 577.74 0 0 1 6.621-6.22c2.121-1.96 3.08-2.85 2.875-2.655.517-.488.817-.878.898-1.166C.711.925.542.563.127.122Z" style="fill:#ba093c;fill-opacity:1;fill-rule:nonzero;stroke:none" transform="translate(566.041 422.88)"/><path d="M0 0c-.343-.266-.455-.581-.346-.947.107-.364.568-1.068 1.38-2.101 1.376-1.763 2.82-2.8 4.336-3.109 1.502-.312 3.01.114 4.511 1.293 1.556 1.216 2.409 2.616 2.562 4.214.159 1.599-.415 3.221-1.703 4.869-.749.966-1.394 1.552-1.91 1.768-.513.207-1.165.005-1.942-.595Zm4.104-7.982c.189-1.023-.013-2.313-.598-3.882l-.038-.115-2.669-6.947c-.095-.231-.223-.551-.403-.96-.807-2.2-1.117-3.533-.916-4.005.126-.287.305-.685.554-1.171.471-.922.575-1.482.294-1.695-.108-.093-.24-.105-.373-.033-.145.066-.352.292-.646.663-.214.269-.579.78-1.095 1.52-.527.739-.944 1.323-1.281 1.743-.198.257-.512.62-.939 1.094-.429.469-.748.841-.965 1.111-.471.615-.534 1.337-.185 2.183.061.164.112.279.14.353L-.471-6.938c.383.896.534 1.627.458 2.19-.087.565-.43 1.237-1.036 2.011l-.419.533c-.159.206-.325.329-.512.37a.578.578 0 0 1-.511-.114l-7.187-5.616c-.992-.775-1.489-1.433-1.49-1.981-.001-.546.323-1.239.986-2.088.317-.403.492-.735.528-.995a.65.65 0 0 0-.263-.631c-.154-.125-.358-.118-.6-.003-.248.124-.496.34-.732.646-1.473 2.18-2.629 3.816-3.48 4.899a65.182 65.182 0 0 1-2.667 3.187c-.928 1.036-1.405 1.576-1.432 1.606-.276.355-.444.666-.493.924a.57.57 0 0 0 .221.624c.301.24.784 0 1.431-.724.304-.393.563-.669.771-.835.665-.601 1.174-.926 1.546-.96.372-.041 1.039.31 1.985 1.054L3.297 10.188c.654.511 1.014.91 1.098 1.206.082.297-.004.728-.274 1.28-.186.343-.477.784-.874 1.325-.571.837-.688 1.38-.37 1.632.182.143.384.16.582.044.199-.115.534-.47.994-1.066.031-.03.33-.449.896-1.252a55.442 55.442 0 0 1 1.705-2.29 157.51 157.51 0 0 1 3.073-3.749 178.938 178.938 0 0 0 2.925-3.539c2.103-2.703 3.245-5.183 3.43-7.464.174-2.28-.626-4.116-2.402-5.512-1.464-1.136-3.086-1.604-4.872-1.378-1.781.222-3.494 1.086-5.104 2.593" style="fill:#ba093c;fill-opacity:1;fill-rule:nonzero;stroke:none" transform="translate(565.56 407.09)"/><path d="M0 0c2.114 1.202 4.342 1.235 6.664.101 2.324-1.132 4.373-3.248 6.138-6.34a24.925 24.925 0 0 0 1.933-4.317c.491-1.473.678-2.455.563-2.941-.051-.221-.422-.594-1.116-1.099-.704-.511-1.705-1.134-3.011-1.876-.26-.155-.502-.206-.733-.154-.223.044-.405.194-.539.442-.215.372-.056.986.479 1.818.313.426.543.788.725 1.091.829 1.418 1.263 2.642 1.297 3.683.044 1.043-.272 2.15-.944 3.332-.964 1.691-2.102 2.821-3.416 3.387-1.313.57-2.6.499-3.854-.214-.97-.555-1.582-1.421-1.827-2.592-.255-1.173-.172-2.976.224-5.411.753-4.483.866-7.767.336-9.861-.533-2.097-1.785-3.692-3.737-4.803-2.356-1.346-4.897-1.413-7.621-.205-2.732 1.213-5.006 3.42-6.838 6.639-1.519 2.681-2.405 4.936-2.651 6.776-.257 1.835.159 3.069 1.256 3.69.334.186.805.426 1.386.712.579.286.995.501 1.243.637.243.144.479.284.706.441.225.146.325.218.309.208.395.229.741.328 1.054.307.315-.019.539-.165.7-.44.254-.448-.018-1.015-.814-1.713-.568-.492-.985-.915-1.264-1.265-1.004-1.288-1.538-2.79-1.605-4.502-.072-1.721.329-3.345 1.198-4.881 1.004-1.743 2.306-2.941 3.921-3.609 1.619-.661 3.113-.607 4.487.17 1.182.674 1.963 1.819 2.346 3.441.382 1.623.38 3.819-.012 6.6-.04.18-.069.459-.111.833C-4.011-5.659-2.964-1.69 0 0" style="fill:#ba093c;fill-opacity:1;fill-rule:nonzero;stroke:none" transform="translate(581.45 397.233)"/><path d="m0 0-19.371-8.458c-1.045-.452-1.66-.841-1.836-1.153-.181-.316-.195-.847-.03-1.599.071-.323.217-.763.439-1.322.347-.958.306-1.528-.118-1.711-.197-.088-.4-.041-.603.14-.199.184-.391.478-.556.87-.027.038-.268.715-.741 2.03a66.42 66.42 0 0 1-1.52 3.828 58.658 58.658 0 0 1-1.794 3.76 98.1 98.1 0 0 0-.978 1.915c-.183.416-.268.757-.253 1.013a.591.591 0 0 0 .368.559c.357.148.756-.203 1.207-1.067.199-.454.38-.786.539-1.002.493-.741.922-1.18 1.273-1.306.348-.129 1.082.047 2.208.538l19.371 8.46c.752.326 1.206.624 1.357.887.149.267.167.701.045 1.31-.1.381-.265.881-.516 1.499-.345.96-.337 1.512.038 1.674a.513.513 0 0 0 .52-.055c.177-.116.31-.322.445-.615-.023.035.208-.625.684-1.995a55.578 55.578 0 0 1 1.626-4.16A50.365 50.365 0 0 1 3.727.063c.674-1.27 1.012-1.891 1.005-1.877.122-.278.163-.52.128-.741-.043-.214-.138-.359-.302-.426-.379-.168-.803.205-1.261 1.104-.247.503-.455.897-.625 1.175-.376.591-.706.939-1.002 1.06C1.382.476.819.36 0 0" style="fill:#ba093c;fill-opacity:1;fill-rule:nonzero;stroke:none" transform="translate(600.308 370.317)"/><path d="m0 0-5.947-1.408c-.586-.139-1.01-.175-1.266-.102-.262.065-.432.246-.523.536-.153.516.234 1.1 1.161 1.742.551.395.969.742 1.245 1.024.724.715 1.128 1.531 1.202 2.429.069.908-.268 2.604-1.038 5.1l-.31 1.02c-.077.248-.186.43-.336.543a.522.522 0 0 1-.5.081l-21.593-6.607c-1.07-.322-1.71-.631-1.911-.92-.204-.284-.29-.818-.251-1.593.009-.353.093-.837.235-1.447.245-.944.154-1.48-.27-1.607-.204-.062-.403.005-.585.21-.174.201-.328.516-.452.92-.099.327-.307 1.172-.631 2.537-.329 1.355-.632 2.537-.928 3.517a61.537 61.537 0 0 1-1.194 3.427 58.183 58.183 0 0 0-.91 2.498c-.127.433-.171.777-.132 1.043.05.261.196.428.455.504.382.112.735-.277 1.083-1.177.212-.606.39-1.056.547-1.344.372-.693.727-1.099 1.069-1.217.335-.121 1.055-.014 2.136.318l21.516 6.576a.504.504 0 0 1 .352.365c.056.184.05.406-.021.647l-.541 1.751c-.432 1.397-.929 2.467-1.487 3.212-.564.74-1.36 1.358-2.364 1.866-.431.229-1.041.51-1.815.835-1.207.468-1.875.936-2.019 1.393a.71.71 0 0 0 .033.563.59.59 0 0 0 .402.343c.1.032.234.051.385.051.161.01.398-.004.721-.014l4.998-.208c.176-.009.44-.004.757.036.923-.015 1.453-.245 1.591-.702.084-.267-.068-.59-.454-.95-.374-.363-.584-.687-.608-.965-.027-.347.09-1.054.355-2.111.268-1.055.808-2.901 1.614-5.541l.947-3.084 1.426-4.666c.732-2.387 1.275-4.047 1.623-4.974.348-.93.652-1.556.915-1.883.268-.317.674-.609 1.211-.857.541-.251.839-.483.904-.686.078-.253.07-.445-.02-.6C.696.279.504.153.218.07Z" style="fill:#ba093c;fill-opacity:1;fill-rule:nonzero;stroke:none" transform="translate(615.402 339.62)"/><path d="M0 0c.131.101.229.184.309.269a.287.287 0 0 1 .082.212C.378.531.312.585.206.635c-.12.058-.261.088-.44.114l-7.748 1.152c-.002.02-.031.031-.094.032-.109.026-.175.023-.21.009-.073-.005-.115-.058-.142-.16a1.107 1.107 0 0 1 .031-.391l1.307-5.669c.052-.181.103-.315.167-.403.067-.074.138-.114.216-.098.117.035.207.059.272.084a.703.703 0 0 1 .197.091zm8.485-3.214-18.939-13.952c-.927-.646-1.6-1.245-2.036-1.797-.437-.55-.694-1.115-.798-1.694-.032-.215-.024-.554.023-1.017.038-.984-.188-1.547-.699-1.664a.613.613 0 0 0-.642.202c-.17.199-.316.599-.458 1.199-.005.054-.131.756-.36 2.108a59.763 59.763 0 0 1-.763 3.887 69.196 69.196 0 0 1-1.011 3.803c-.412 1.451-.666 2.357-.749 2.72-.1.458-.13.803-.063 1.039.061.234.219.37.486.434.536.123.998-.298 1.39-1.269.385-.971.85-1.397 1.393-1.268.11.025.228.066.344.123.105.056.247.13.395.226l4.406 3.041c.352.262.533.655.539 1.176.014.518-.243 1.913-.763 4.158-.475 2.068-.83 3.309-1.055 3.731-.223.417-.637.66-1.253.741-1.057.126-1.943.2-2.649.242-.712.031-1.231.006-1.577-.075-.593-.134-1.016-.384-1.246-.738-.239-.362-.384-.948-.458-1.767-.012-.281-.025-.661-.057-1.162.011-1.044-.212-1.611-.673-1.714-.277-.073-.479-.029-.621.105-.138.138-.257.44-.368.928-.03.092-.043.161-.059.221-.009.061-.01.113-.009.177a4.294 4.294 0 0 0-.076.591 55.541 55.541 0 0 1-.802 4.199c-.21.911-.496 1.919-.857 3.01a5.721 5.721 0 0 1-.158.435.7.7 0 0 0-.075.205 1.31 1.31 0 0 0-.043.172c-.102.413-.112.721-.041.922.069.199.229.331.481.386.486.118.957-.211 1.389-1.002.152-.314.281-.536.378-.678a2.776 2.776 0 0 1 1.075-.922c.459-.232 1.076-.424 1.877-.571l24.178-4.42C8.238 1.121 8.76.93 9.064.687c.283-.245.507-.702.665-1.381.138-.606.161-1.047.046-1.311-.096-.264-.534-.662-1.29-1.209" style="fill:#ba093c;fill-opacity:1;fill-rule:nonzero;stroke:none" transform="translate(607.807 328.844)"/></g></svg>