<svg xmlns="http://www.w3.org/2000/svg" width="176.33548mm" height="180.90665mm" viewBox="0 0 176.33548 180.90665"><defs><linearGradient id="a" x1="0" x2="1" y1="0" y2="0" gradientTransform="matrix(-57.43901 -33.15915 -25.8158 52.8299 345.15 311.655)" gradientUnits="userSpaceOnUse" spreadMethod="pad"><stop offset="0" style="stop-opacity:1;stop-color:#15b1e7"/><stop offset="1" style="stop-opacity:1;stop-color:#2384c6"/></linearGradient><linearGradient id="b" x1="0" x2="1" y1="0" y2="0" gradientTransform="matrix(66.29456 30.91318 22.2955 -61.99762 245.399 222.929)" gradientUnits="userSpaceOnUse" spreadMethod="pad"><stop offset="0" style="stop-opacity:1;stop-color:#fdb934"/><stop offset="1" style="stop-opacity:1;stop-color:#f58233"/></linearGradient></defs><path d="M0 0c.347-.961.435-1.98.464-3.004l-2.152-.775c.339 1.156.58 2.48.18 3.59C-1.79.592-2.516 1.277-3.575.895c-2.754-.993-.932-5.877-4.78-7.266-2.366-.856-3.781.635-4.402 2.359-.314.869-.481 1.776-.596 2.701l1.889.682c-.167-.975-.127-2.25.198-3.15.232-.645.861-1.282 1.761-.957 2.385.861.702 5.966 4.481 7.329C-2.253 3.593-.741 2.055 0 0" style="fill:#58595b;fill-opacity:1;fill-rule:nonzero;stroke:none" transform="matrix(1.10989 0 0 -1.10989 19.263 114.41)"/><path d="m0 0-12.766-2.14-1.06 6.341 1.462.245.716-4.279 3.921.656-.678 4.06 1.462.245.677-4.059 4.386.735-.739 4.421 1.535.256z" style="fill:#58595b;fill-opacity:1;fill-rule:nonzero;stroke:none" transform="matrix(1.10989 0 0 -1.10989 16.043 104.338)"/><path d="m0 0-6.039.172-.109-3.825 6.039-.171-.059-2.088-12.941.367.06 2.088 5.42-.154.108 3.824-5.42.154.06 2.088 12.94-.367z" style="fill:#58595b;fill-opacity:1;fill-rule:nonzero;stroke:none" transform="matrix(1.10989 0 0 -1.10989 14.55 84.422)"/><path d="m0 0-.007-.031L5.2-2.849 5.913.096Zm11.127.181L7.328.114l-.883-3.64 3.342-1.827-.433-1.796L-2.34-.418l.502 2.075 13.486.676Z" style="fill:#58595b;fill-opacity:1;fill-rule:nonzero;stroke:none" transform="matrix(1.10989 0 0 -1.10989 4.87 68.648)"/><path d="m0 0-11.017.333-.013-.029 9.084-4.356-.74-1.538L-14.357.007l.988 2.056 10.503-.317.012.029-8.66 4.153.739 1.538L.896 1.868z" style="fill:#58595b;fill-opacity:1;fill-rule:nonzero;stroke:none" transform="matrix(1.10989 0 0 -1.10989 22.737 54.61)"/><path d="M0 0c-1.982-1.985-3.723-1.869-6.058.464l-6.036 6.03 1.477 1.477 6.035-6.03C-3.44.801-2.125-.377-.875.875.422 2.171-.717 3.42-1.91 4.613l-6.037 6.031 1.476 1.476 6.037-6.029C1.928 3.731 1.984 1.984 0 0" style="fill:#58595b;fill-opacity:1;fill-rule:nonzero;stroke:none" transform="matrix(1.10989 0 0 -1.10989 36.39 36.373)"/><path d="m0 0-9.217 6.034-.025-.016 5.469-8.461-1.432-.928-7.027 10.872 1.912 1.239 8.789-5.754.026.017-5.216 8.067 1.434.927L1.74 1.125Z" style="fill:#58595b;fill-opacity:1;fill-rule:nonzero;stroke:none" transform="matrix(1.10989 0 0 -1.10989 50.365 25.078)"/><path d="m0 0-5.08 11.902 1.922.82L1.92.819Z" style="fill:#58595b;fill-opacity:1;fill-rule:nonzero;stroke:none" transform="matrix(1.10989 0 0 -1.10989 58.5 20.865)"/><path d="m0 0-2.088-.52-6.765 11.655 2.102.524 5.137-9.006.031.008.354 10.375 1.794.447z" style="fill:#58595b;fill-opacity:1;fill-rule:nonzero;stroke:none" transform="matrix(1.10989 0 0 -1.10989 71.86 16.383)"/><path d="m0 0-.757 12.919 6.41.381.088-1.48-4.328-.256.233-3.97 4.105.244.086-1.479-4.105-.244.261-4.437 4.471.265L6.555.39Z" style="fill:#58595b;fill-opacity:1;fill-rule:nonzero;stroke:none" transform="matrix(1.10989 0 0 -1.10989 81.187 14.762)"/><path d="m0 0-.412.054-.584-4.503.41-.053C.821-4.685 1.98-4.42 2.23-2.504 2.486-.532 1.391-.181 0 0m1.464-11.864-.081 2.47C1.33-7.571 1.355-6.137-.525-5.891l-.649.084-.73-5.619-2.071.27 1.668 12.837 2.483-.322c2.039-.266 4.555-.821 4.15-3.946-.222-1.712-1.301-2.461-2.664-2.681l-.005-.037c1.505-.537 1.628-1.706 1.704-3.344l.174-3.485z" style="fill:#58595b;fill-opacity:1;fill-rule:nonzero;stroke:none" transform="matrix(1.10989 0 0 -1.10989 99.068 2.186)"/><path d="M0 0c-.971.319-1.827.878-2.65 1.485l.715 2.174C-1.234 2.677-.34 1.672.781 1.303c.788-.26 1.778-.111 2.129.958.916 2.779-4.055 4.357-2.773 8.24.787 2.388 2.833 2.583 4.574 2.009.879-.289 1.695-.716 2.494-1.197l-.629-1.905c-.664.732-1.692 1.486-2.601 1.785-.651.214-1.541.112-1.84-.797-.794-2.405 4.263-4.229 3.008-8.041C4.221-.441 2.074-.683 0 0" style="fill:#58595b;fill-opacity:1;fill-rule:nonzero;stroke:none" transform="matrix(1.10989 0 0 -1.10989 111.455 18.214)"/><path d="m0 0 5.86 11.539 1.863-.946L1.861-.946Z" style="fill:#58595b;fill-opacity:1;fill-rule:nonzero;stroke:none" transform="matrix(1.10989 0 0 -1.10989 121.324 21.936)"/><path d="m0 0-6.611-9.365-1.707 1.206 6.61 9.365-2.163 1.527.854 1.211L3.018-.317l-.855-1.21z" style="fill:#58595b;fill-opacity:1;fill-rule:nonzero;stroke:none" transform="matrix(1.10989 0 0 -1.10989 139.913 18.323)"/><path d="m0 0-4.303-4.264-1.47 1.484 4.302 4.263 2.479 7.28 1.693-1.71L.958 2.071l5.054 1.641 1.414-1.426Z" style="fill:#58595b;fill-opacity:1;fill-rule:nonzero;stroke:none" transform="matrix(1.10989 0 0 -1.10989 147.136 32.52)"/><path d="m0 0 9.671 3.374-1.872 1.322 1.488.519 2.268-1.606.53-1.52L.662-1.896Z" style="fill:#58595b;fill-opacity:1;fill-rule:nonzero;stroke:none" transform="matrix(1.10989 0 0 -1.10989 158.657 63.436)"/><path d="M0 0c-.144 1.154-1.614 1.115-2.655.984C-3.772.846-5.228.39-5.079-.797c.113-.902 1.142-1.271 2.109-1.15C-1.722-1.791.177-1.408 0 0m-11.05-1.271c-.201 1.613.461 2.966 2.442 3.455l.271-2.168C-9.12-.065-9.974-.35-9.872-1.156c.199-1.598 3.125-1.264 4.428-1.102l.427.055c-.754.435-1.105 1.131-1.202 1.906-.25 1.994.863 3.081 3.169 3.371C-.426 3.402.915 2.203 1.183.067c.42-3.354-2.717-3.971-5.842-4.364-3.184-.398-5.988-.187-6.391 3.026" style="fill:#58595b;fill-opacity:1;fill-rule:nonzero;stroke:none" transform="matrix(1.10989 0 0 -1.10989 174.418 77.138)"/><path d="M0 0c.082 1.161-1.366 1.406-2.414 1.479-1.123.08-2.639-.086-2.723-1.28-.063-.906.874-1.469 1.848-1.536C-2.036-1.424-.1-1.416 0 0m-11.086.887c.113 1.623 1.025 2.822 3.063 2.92l-.153-2.18c-.785.07-1.677-.043-1.734-.855-.113-1.606 2.822-1.843 4.133-1.935l.429-.03c-.655.574-.865 1.324-.81 2.103.14 2.005 1.441 2.858 3.762 2.694 2.638-.184 3.72-1.619 3.57-3.766C.938-3.535-2.26-3.535-5.402-3.315c-3.2.223-5.912.972-5.684 4.202" style="fill:#58595b;fill-opacity:1;fill-rule:nonzero;stroke:none" transform="matrix(1.10989 0 0 -1.10989 175.017 94.595)"/><path d="m0 0 .009.031-4.292 4.129-.77-2.732Zm-7.14.18-2.833.8.481 1.704 2.833-.801 1.251 4.434 1.48-.418L2.035-.244l-.566-2.01-7.002 1.979-.468-1.659-1.606.455z" style="fill:#58595b;fill-opacity:1;fill-rule:nonzero;stroke:none" transform="matrix(1.10989 0 0 -1.10989 170.665 112.574)"/><path d="M349.837 306.062s-4.285-2.488-19.732-2.742c-5.333-.09-11.977.137-20.27.469-15.97.651-23.26.18-29.858-2.505-11.403-4.651-14.077-12.615-14.077-12.615-4.792-11.412.645-22.088 11.819-26.037 0 0 1.065-.315 1.321.115.25.43-.432.971-.432.971-3.39 3.227-8.564 10.078-4.148 19.032 4.686 9.505 20.501 8.868 20.501 8.868h33.96s-3.026-10.095-14.521-10.102h-23.526c-2.911-.002-6.246-2.262-6.571-5.455-.321-3.189 2.144-5.448 5.467-5.448l21.962.009s12.907-.822 24.197 8.781c5.924 5.042 11.479 14.011 14.691 26.053.171.554-.11.672-.382.672-.203 0-.401-.066-.401-.066" style="fill:url(#a);stroke:none" transform="matrix(1.10989 0 0 -1.10989 -240.223 384.251)"/><path d="M315.722 269.134c-.254-.432.427-.972.427-.972 3.393-3.232 8.569-10.081 4.151-19.036-4.688-9.5-20.501-8.863-20.501-8.863h-33.962s3.029 10.095 14.526 10.102h23.521c2.911 0 6.247 2.264 6.57 5.454.325 3.192-2.143 5.447-5.467 5.445l-21.961-.009s-12.91.826-24.195-8.777c-5.926-5.046-11.479-14.012-14.69-26.055-.3-.963.78-.601.78-.601s4.287 2.485 19.729 2.739c5.336.092 11.982-.138 20.272-.472 15.97-.653 23.26-.174 29.859 2.513 11.402 4.645 14.08 12.604 14.08 12.604 4.791 11.414-.647 22.094-11.824 26.041 0 0-.378.112-.736.112-.243 0-.477-.051-.579-.225" style="fill:url(#b);stroke:none" transform="matrix(1.10989 0 0 -1.10989 -240.223 384.251)"/><path d="m0 0-.861.697-10.606-13.109 1.876-1.52L.121-1.926C.717-1.188.678-.547 0 0" style="fill:#58595b;fill-opacity:1;fill-rule:nonzero;stroke:none" transform="matrix(1.10989 0 0 -1.10989 47.092 150.141)"/><path d="m0 0 4.333-4.826 1.722 1.545-4.376 4.875c-1.687 1.873-2.797 2.006-4.938.09l-6.367-5.721 1.361-1.522L-1.896.164C-1.128.857-.646.717 0 0" style="fill:#58595b;fill-opacity:1;fill-rule:nonzero;stroke:none" transform="matrix(1.10989 0 0 -1.10989 146.846 144.347)"/><path d="M0 0a22.587 22.587 0 0 1 2.606 2.213l.013-.006.655.813c.081.095.141.191.193.289.263.5.146.962-.373 1.379L1.742 5.783c.074-.209.071-.445 0-.715a1.866 1.866 0 0 0-.316-.656l-.301-.4C-1.043 1.797-3.453-.131-7.91-.547l.315-2.305c1.968.172 3.649.704 5.109 1.395-.28-1.772.067-4.356.452-5.498l2.241.648C-.218-5.055-.58-1.73 0 0" style="fill:#58595b;fill-opacity:1;fill-rule:nonzero;stroke:none" transform="matrix(1.10989 0 0 -1.10989 34.558 148.507)"/><path d="m0 0-1.378 1.117c.074-.262.043-.531-.093-.816a3.544 3.544 0 0 0-.415-.684L-4.017-3.02l-2.289 1.85-1.265-1.564 2.289-1.848-5.239-6.477 1.844-1.49L.081-1.729c.263.327.393.629.397.916C.484-.529.323-.26 0 0" style="fill:#58595b;fill-opacity:1;fill-rule:nonzero;stroke:none" transform="matrix(1.10989 0 0 -1.10989 44.019 147.657)"/><path d="m0 0-8.205-3.449.793-1.899L-.201-2.32c.664.281.879.131 1.153-.524l1.35-3.209 2.151.903-1.576 3.754C2.23.141 1.475.615 0 0" style="fill:#58595b;fill-opacity:1;fill-rule:nonzero;stroke:none" transform="matrix(1.10989 0 0 -1.10989 127.054 168.233)"/><path d="M0 0c-.344.809-.922 1.043-1.734.705L-3.51-.041c.24-.037.467-.162.694-.377.228-.219.382-.432.474-.654l3.773-8.977 2.367.992-1.513 3.614 2.44 1.029-.781 1.846-2.44-1.022z" style="fill:#58595b;fill-opacity:1;fill-rule:nonzero;stroke:none" transform="matrix(1.10989 0 0 -1.10989 124.515 156.372)"/><path d="m0 0-2.999 3.346c-.53.582-1.093.619-1.685.086l-.834-.75 3.797-4.227-1.337-1.197L-6.059.592c-.528.592-1.091.619-1.682.084L-9.035-.482c.215.037.45.007.706-.114.255-.121.454-.254.597-.422l2.953-3.279-2.815-2.525 1.356-1.51L5.918 2.59l-1.36 1.506Z" style="fill:#58595b;fill-opacity:1;fill-rule:nonzero;stroke:none" transform="matrix(1.10989 0 0 -1.10989 151.861 152.591)"/><path d="M0 0c.46-1.096.054-2.092-1.12-2.588-1.176-.496-2.229-.107-2.686.99-.437 1.039-.012 2.133 1.164 2.633C-1.464 1.529-.437 1.045 0 0m.592 6.268-3.521-1.479-.21.506c-.304.728-.827.943-1.557.633l-1.605-.676c.216-.027.425-.143.626-.338.203-.193.346-.391.426-.586l.215-.42-3.738-1.57.796-1.897 2.895 1.219c-1.1-1.115-1.42-2.619-.795-4.099.882-2.106 3.264-2.832 5.49-1.903C1.86-3.395 2.932-1.213 2.05.889 1.428 2.371.17 3.217-1.382 3.213l2.767 1.154z" style="fill:#58595b;fill-opacity:1;fill-rule:nonzero;stroke:none" transform="matrix(1.10989 0 0 -1.10989 119.433 165.02)"/><path d="m0 0-1.108.027-.125-5.218-1.659.041.098 3.925c.009.414-.072.741-.24.965-.17.231-.462.344-.877.356l-1.768.045c.213-.161.356-.391.418-.702.063-.308.094-.572.088-.798l-.334-13.731 2.372-.056.193 7.873 1.656-.043-.235-9.516 2.415-.061.375 15.44C1.292-.504.87-.023 0 0" style="fill:#58595b;fill-opacity:1;fill-rule:nonzero;stroke:none" transform="matrix(1.10989 0 0 -1.10989 98.872 162.157)"/><path d="M0 0c.279.83-.002 1.389-.84 1.668l-1.822.615c.156-.185.246-.433.273-.744.03-.31.004-.58-.073-.805l-3.697-11.033 2.432-.816 1.849 5.519 2.512-.845.636 1.9-2.51.84z" style="fill:#58595b;fill-opacity:1;fill-rule:nonzero;stroke:none" transform="matrix(1.10989 0 0 -1.10989 71.1 161.934)"/><path d="m0 0 .646 1.932-2.215.74-.739-2.199c-1.004-2.998-.208-3.946 2.442-4.83l6.791-2.282.654 1.95-6.434 2.158C-.364-2.023-.534-1.586 0 0" style="fill:#58595b;fill-opacity:1;fill-rule:nonzero;stroke:none" transform="matrix(1.10989 0 0 -1.10989 57.5 172.504)"/><path d="m0 0 .161 6.533 4.776-.117.048 2.033-7.104.176-.218-8.73c-.043-1.852.775-2.678 2.549-2.719l4.736-.119.049 2.035-4.238.103C.282-.795-.015-.627 0 0" style="fill:#58595b;fill-opacity:1;fill-rule:nonzero;stroke:none" transform="matrix(1.10989 0 0 -1.10989 85.939 172.712)"/><path d="M0 0c-.378-1.129-1.341-1.613-2.551-1.207-1.212.404-1.745 1.393-1.368 2.52.361 1.07 1.404 1.615 2.617 1.207C-.095 2.113.357 1.066 0 0m4.581 4.316L.961 5.525l.175.522c.252.75 0 1.256-.754 1.506l-1.649.552c.141-.164.225-.388.246-.666a1.713 1.713 0 0 0-.066-.726l-.115-.459-3.848 1.291-.652-1.949 2.978-.996c-1.564-.108-2.795-1.037-3.308-2.561-.723-2.156.588-4.279 2.877-5.041 2.308-.779 4.558.15 5.281 2.309.508 1.525.123 2.998-1.045 4.015l2.848-.955Z" style="fill:#58595b;fill-opacity:1;fill-rule:nonzero;stroke:none" transform="matrix(1.10989 0 0 -1.10989 61.383 165.053)"/><path d="M361.196 303.597h-3.574v3.575h3.574zM363.372 226.019h-3.574v3.57h3.574zM236.829 224.03h-3.572v3.576h3.572z" style="fill:#58595b;fill-opacity:1;fill-rule:nonzero;stroke:none" transform="matrix(1.10989 0 0 -1.10989 -240.223 384.251)"/></svg>