<svg xmlns="http://www.w3.org/2000/svg" width="197.10127mm" height="197.10127mm" viewBox="0 0 197.10127 197.10127"><defs><radialGradient id="a" cx="0" cy="0" r="1" fx="0" fy="0" gradientTransform="matrix(37.55525 0 0 -37.55525 304.258 984.633)" gradientUnits="userSpaceOnUse" spreadMethod="pad"><stop offset="0" style="stop-opacity:1;stop-color:#ececec"/><stop offset="0.22617034" style="stop-opacity:1;stop-color:#d0cfcf"/><stop offset="0.327273" style="stop-opacity:1;stop-color:#d0cfcf"/><stop offset="0.543267" style="stop-opacity:1;stop-color:#fff"/><stop offset="0.6738992" style="stop-opacity:1;stop-color:#fff"/><stop offset="0.903562" style="stop-opacity:1;stop-color:#9a9898"/><stop offset="0.90555202" style="stop-opacity:1;stop-color:#9a9898"/><stop offset="1" style="stop-opacity:1;stop-color:#d0cfcf"/></radialGradient><radialGradient id="d" cx="0" cy="0" r="1" fx="0" fy="0" gradientTransform="matrix(34.0058 0 0 -34.0058 304.346 986.541)" gradientUnits="userSpaceOnUse" spreadMethod="pad"><stop offset="0" style="stop-opacity:1;stop-color:#fff"/><stop offset="0.17885041" style="stop-opacity:1;stop-color:#d3d2d2"/><stop offset="0.327273" style="stop-opacity:1;stop-color:#d3d2d2"/><stop offset="0.606061" style="stop-opacity:1;stop-color:#bdbcbc"/><stop offset="0.83062965" style="stop-opacity:1;stop-color:#fff"/><stop offset="0.842424" style="stop-opacity:1;stop-color:#fff"/><stop offset="0.89955635" style="stop-opacity:1;stop-color:#fff"/><stop offset="1" style="stop-opacity:1;stop-color:#bdbcbc"/></radialGradient><radialGradient id="e" cx="0" cy="0" r="1" fx="0" fy="0" gradientTransform="matrix(33.59811 0 0 -33.59811 300.893 993.98)" gradientUnits="userSpaceOnUse" spreadMethod="pad"><stop offset="0" style="stop-opacity:1;stop-color:#fff"/><stop offset="0.39604" style="stop-opacity:1;stop-color:#fff"/><stop offset="0.81342193" style="stop-opacity:1;stop-color:#bdbcbc"/><stop offset="1" style="stop-opacity:1;stop-color:#bdbcbc"/></radialGradient><radialGradient id="g" cx="0" cy="0" r="1" fx="0" fy="0" gradientTransform="matrix(34.0059 0 0 -34.0059 304.345 986.541)" gradientUnits="userSpaceOnUse" spreadMethod="pad"><stop offset="0" style="stop-opacity:1;stop-color:#fff"/><stop offset="0.17885041" style="stop-opacity:1;stop-color:#d3d2d2"/><stop offset="0.327273" style="stop-opacity:1;stop-color:#d3d2d2"/><stop offset="0.606061" style="stop-opacity:1;stop-color:#bdbcbc"/><stop offset="0.83062965" style="stop-opacity:1;stop-color:#fff"/><stop offset="0.842424" style="stop-opacity:1;stop-color:#fff"/><stop offset="0.89955635" style="stop-opacity:1;stop-color:#fff"/><stop offset="1" style="stop-opacity:1;stop-color:#bdbcbc"/></radialGradient><linearGradient id="b" x1="0" x2="1" y1="0" y2="0" gradientTransform="matrix(73.6765 0 0 -73.6765 267.42 984.633)" gradientUnits="userSpaceOnUse" spreadMethod="pad"><stop offset="0" style="stop-opacity:1;stop-color:#fff"/><stop offset="0.169697" style="stop-opacity:1;stop-color:#656263"/><stop offset="0.18703256" style="stop-opacity:1;stop-color:#656263"/><stop offset="0.375115" style="stop-opacity:1;stop-color:#fff"/><stop offset="0.588666" style="stop-opacity:1;stop-color:#7b7979"/><stop offset="0.836364" style="stop-opacity:1;stop-color:#fff"/><stop offset="0.92877091" style="stop-opacity:1;stop-color:#827f80"/><stop offset="1" style="stop-opacity:1;stop-color:#827f80"/></linearGradient><linearGradient id="c" x1="0" x2="1" y1="0" y2="0" gradientTransform="scale(73.87072) rotate(-90 8.952 4.833)" gradientUnits="userSpaceOnUse" spreadMethod="pad"><stop offset="0" style="stop-opacity:1;stop-color:#b2b1b1"/><stop offset="0.285446" style="stop-opacity:1;stop-color:#656263"/><stop offset="0.509091" style="stop-opacity:1;stop-color:#b2b1b1"/><stop offset="0.741472" style="stop-opacity:1;stop-color:#656263"/><stop offset="1" style="stop-opacity:1;stop-color:#b2b1b1"/></linearGradient><clipPath id="f" clipPathUnits="userSpaceOnUse"><path d="M0 1264.387h595.28V0H0Z"/></clipPath><clipPath id="h" clipPathUnits="userSpaceOnUse"><path d="M0 1264.387h595.28V0H0Z"/></clipPath></defs><path d="M266.702 984.632c0-20.74 16.814-37.555 37.556-37.555 20.741 0 37.555 16.815 37.555 37.555 0 20.742-16.814 37.556-37.555 37.556-20.742 0-37.556-16.814-37.556-37.556" style="fill:url(#a);stroke:none" transform="matrix(2.62413 0 0 -2.62413 -699.862 2682.357)"/><path d="M267.42 984.632c0-20.344 16.492-36.838 36.838-36.838s36.837 16.494 36.837 36.838c0 20.347-16.491 36.839-36.837 36.839-20.346 0-36.838-16.492-36.838-36.839" style="fill:url(#b);stroke:none" transform="matrix(2.62413 0 0 -2.62413 -699.862 2682.357)"/><path d="M268.663 984.632c0-19.657 15.936-35.594 35.595-35.594s35.595 15.937 35.595 35.594c0 19.66-15.936 35.596-35.595 35.596s-35.595-15.936-35.595-35.596" style="fill:url(#c);stroke:none" transform="matrix(2.62413 0 0 -2.62413 -699.862 2682.357)"/><path d="M289.72 1016.46c-17.577-8.029-25.318-28.786-17.29-46.364 8.029-17.577 28.787-25.319 46.365-17.29 17.578 8.029 25.319 28.786 17.29 46.365-5.876 12.864-18.573 20.46-31.849 20.46a34.838 34.838 0 0 1-14.516-3.171" style="fill:url(#d);stroke:none" transform="matrix(2.62413 0 0 -2.62413 -699.862 2682.357)"/><path d="M293.547 1008.084c-12.952-5.915-18.656-21.211-12.741-34.162 5.916-12.951 21.211-18.656 34.163-12.74 12.952 5.916 18.655 21.211 12.74 34.162-4.33 9.479-13.685 15.076-23.466 15.077-3.584 0-7.224-.751-10.696-2.337" style="fill:url(#e);stroke:none" transform="matrix(2.62413 0 0 -2.62413 -699.862 2682.357)"/><g clip-path="url(#f)" transform="matrix(2.62413 0 0 -2.62413 -699.862 2682.357)"><path d="M0 0c.005.137.019.262.04.373a1.198 1.198 0 0 0 .501.797l.523.39c.142.102.244.212.315.328a.816.816 0 0 1 .101.412c0 .146-.031.253-.084.319-.061.062-.159.093-.296.093a.739.739 0 0 1-.226-.026.27.27 0 0 1-.138-.098.345.345 0 0 1-.071-.172 1.085 1.085 0 0 1-.026-.258H.027c-.008.355.079.625.257.82.177.191.456.289.842.289.16 0 .302-.027.426-.072a.92.92 0 0 0 .301-.204.947.947 0 0 0 .182-.301c.035-.115.057-.244.057-.377 0-.115-.009-.221-.022-.31a.947.947 0 0 0-.092-.27 1.292 1.292 0 0 0-.201-.266 2.87 2.87 0 0 0-.337-.301L1.077.882.892.731A.475.475 0 0 1 .768.567h1.351V0Z" style="fill:#444141;fill-opacity:1;fill-rule:nonzero;stroke:none" transform="translate(299.383 961.862)"/><path d="M0 0c0 .097-.009.181-.021.248a.43.43 0 0 1-.076.15.342.342 0 0 1-.129.076.842.842 0 0 1-.345 0 .235.235 0 0 1-.12-.076.305.305 0 0 1-.071-.15A1.03 1.03 0 0 1-.788 0v-1.21a.94.94 0 0 1 .026-.244.278.278 0 0 1 .071-.151.174.174 0 0 1 .12-.075.472.472 0 0 1 .173-.022c.061 0 .119.004.172.022a.229.229 0 0 1 .129.075.374.374 0 0 1 .076.151c.012.062.021.142.021.244Zm.612-1.254c0-.151-.017-.288-.053-.413a.878.878 0 0 0-.177-.319 1.013 1.013 0 0 0-.316-.204 1.469 1.469 0 0 0-.464-.071 1.39 1.39 0 0 0-.465.071.886.886 0 0 0-.311.204.79.79 0 0 0-.173.319 1.525 1.525 0 0 0-.053.413V.044c0 .15.018.288.053.412a.784.784 0 0 0 .173.319.872.872 0 0 0 .311.204c.124.044.278.071.465.071.176 0 .332-.027.464-.071A.996.996 0 0 0 .382.775.87.87 0 0 0 .559.456 1.48 1.48 0 0 0 .612.044Z" style="fill:#444141;fill-opacity:1;fill-rule:nonzero;stroke:none" transform="translate(303.336 964.078)"/><path d="M0 0c0 .097-.009.181-.022.248a.415.415 0 0 1-.076.15.338.338 0 0 1-.128.076.858.858 0 0 1-.346 0A.228.228 0 0 1-.691.398a.315.315 0 0 1-.072-.15A1.03 1.03 0 0 1-.789 0v-1.21a.94.94 0 0 1 .026-.244.285.285 0 0 1 .072-.151.17.17 0 0 1 .119-.075.479.479 0 0 1 .173-.022c.062 0 .12.004.173.022a.226.226 0 0 1 .128.075.362.362 0 0 1 .076.151c.013.062.022.142.022.244Zm.611-1.254c0-.151-.017-.288-.052-.413a.865.865 0 0 0-.178-.319 1.008 1.008 0 0 0-.315-.204 1.47 1.47 0 0 0-.465-.071c-.186 0-.341.027-.465.071a.895.895 0 0 0-.311.204.816.816 0 0 0-.173.319 1.526 1.526 0 0 0-.052.413V.044c0 .15.017.288.052.412a.809.809 0 0 0 .173.319c.08.084.182.151.311.204.124.044.279.071.465.071.177 0 .333-.027.465-.071A.99.99 0 0 0 .381.775.857.857 0 0 0 .559.456C.594.332.611.194.611.044Z" style="fill:#444141;fill-opacity:1;fill-rule:nonzero;stroke:none" transform="translate(305.862 964.078)"/><path d="M0 0c-.377 0-.652.084-.825.249-.177.168-.275.438-.283.811h.611c0-.107.014-.191.035-.258A.286.286 0 0 1-.368.643a.284.284 0 0 1 .15-.089.831.831 0 0 1 .222-.027c.186 0 .31.045.381.134a.563.563 0 0 1 .102.354.505.505 0 0 1-.102.332c-.071.08-.195.12-.372.12h-.35v.532h.35c.146 0 .253.031.314.097.058.062.089.16.089.293 0 .137-.031.235-.089.288-.061.053-.159.08-.292.08-.186 0-.314-.053-.386-.151a.689.689 0 0 1-.106-.403h-.611c0 .345.092.616.283.815.186.195.448.293.789.293.15 0 .288-.018.412-.049a.91.91 0 0 0 .319-.159.777.777 0 0 0 .208-.271.952.952 0 0 0 .076-.39.857.857 0 0 0-.084-.407.895.895 0 0 0-.217-.262.73.73 0 0 0 .279-.288c.062-.129.093-.284.093-.47C1.09.701.992.452.802.271.606.093.341 0 0 0" style="fill:#444141;fill-opacity:1;fill-rule:nonzero;stroke:none" transform="translate(307.968 961.817)"/><path d="m0 0-.643.5-.415-.532-1.536 1.195-.451-.58L.666-2.343l.47.604L-.415-.533z" style="fill:#444141;fill-opacity:1;fill-rule:nonzero;stroke:none" transform="translate(286.47 960.369)"/><path d="m0 0-.643.5-.415-.532-1.536 1.195-.451-.58L.666-2.343l.47.604L-.415-.533z" style="fill:none;stroke:#444141;stroke-width:.15;stroke-linecap:butt;stroke-linejoin:miter;stroke-miterlimit:10;stroke-dasharray:none;stroke-opacity:1" transform="translate(286.47 960.369)"/><path d="m0 0-.848.66a.552.552 0 0 1-.477.099L-3.188.281l.765-.596 1.189.27a.18.18 0 0 0 .152-.034l.42-.327a.185.185 0 0 0 .071-.139l.03-1.218.766-.596.009 1.921A.555.555 0 0 1 0 0" style="fill:#444141;fill-opacity:1;fill-rule:nonzero;stroke:none" transform="translate(287.483 961.44)"/><path d="m0 0-.848.66a.552.552 0 0 1-.477.099L-3.188.281l.765-.596 1.189.27a.18.18 0 0 0 .152-.034l.42-.327a.185.185 0 0 0 .071-.139l.03-1.218.766-.596.009 1.921A.555.555 0 0 1 0 0Z" style="fill:none;stroke:#444141;stroke-width:.15;stroke-linecap:butt;stroke-linejoin:miter;stroke-miterlimit:10;stroke-dasharray:none;stroke-opacity:1" transform="translate(287.483 961.44)"/><path d="M0 0a.356.356 0 0 0-.498-.062L-1.76.92a.354.354 0 1 0 .435.56L-.062.498A.356.356 0 0 0 0 0m.513.957L-1.021 2.15A1.07 1.07 0 1 1-2.335.462L-.801-.732A1.069 1.069 0 1 1 .513.957" style="fill:#444141;fill-opacity:1;fill-rule:nonzero;stroke:none" transform="translate(285.367 957.719)"/><path d="M0 0a.356.356 0 0 0-.498-.062L-1.76.92a.354.354 0 1 0 .435.56L-.062.498A.356.356 0 0 0 0 0Zm.513.957L-1.021 2.15A1.07 1.07 0 1 1-2.335.462L-.801-.732A1.069 1.069 0 1 1 .513.957z" style="fill:none;stroke:#444141;stroke-width:.15;stroke-linecap:butt;stroke-linejoin:miter;stroke-miterlimit:10;stroke-dasharray:none;stroke-opacity:1" transform="translate(285.367 957.719)"/><path d="m0 0 .806.281-.677 1.94.624.217-.24.692-1.162-.405a.284.284 0 0 1-.175-.363Z" style="fill:#444141;fill-opacity:1;fill-rule:nonzero;stroke:none" transform="translate(315.327 955.203)"/><path d="m0 0 .806.281-.677 1.94.624.217-.24.692-1.162-.405a.284.284 0 0 1-.175-.363Z" style="fill:none;stroke:#444141;stroke-width:.15;stroke-linecap:butt;stroke-linejoin:miter;stroke-miterlimit:10;stroke-dasharray:none;stroke-opacity:1" transform="translate(315.327 955.203)"/><path d="M0 0c-.13.372-.564.558-.937.429l-2.822-.985.228-.652 2.466.86A.263.263 0 0 0-.73-.51l.397-1.139.81.282L.086-.246z" style="fill:#444141;fill-opacity:1;fill-rule:nonzero;stroke:none" transform="translate(316.47 954.515)"/><path d="M0 0c-.13.372-.564.558-.937.429l-2.822-.985.228-.652 2.466.86A.263.263 0 0 0-.73-.51l.397-1.139.81.282L.086-.246z" style="fill:none;stroke:#444141;stroke-width:.15;stroke-linecap:butt;stroke-linejoin:miter;stroke-miterlimit:10;stroke-dasharray:none;stroke-opacity:1" transform="translate(316.47 954.515)"/><path d="M0 0a.654.654 0 1 0 1.235.43A.654.654 0 0 0 0 0m1.081-1.113A1.407 1.407 0 0 1 1.945.679a1.39 1.39 0 0 1-.393.58l.317.11-.243.697-1.081-.377-.118.341-.782-.273.119-.34-1.087-.379.244-.697.316.111a1.4 1.4 0 0 1 .053-.7 1.407 1.407 0 0 1 1.791-.865" style="fill:#444141;fill-opacity:1;fill-rule:nonzero;stroke:none" transform="translate(312.386 955.632)"/><path d="M0 0a.654.654 0 1 0 1.235.43A.654.654 0 0 0 0 0Zm1.081-1.113A1.407 1.407 0 0 1 1.945.679a1.39 1.39 0 0 1-.393.58l.317.11-.243.697-1.081-.377-.118.341-.782-.273.119-.34-1.087-.379.244-.697.316.111a1.4 1.4 0 0 1 .053-.7 1.407 1.407 0 0 1 1.791-.865z" style="fill:none;stroke:#444141;stroke-width:.15;stroke-linecap:butt;stroke-linejoin:miter;stroke-miterlimit:10;stroke-dasharray:none;stroke-opacity:1" transform="translate(312.386 955.632)"/><path d="M0 0a.76.76 0 0 1 .758-.76h.234l1.276-.002v.741L1.03-.019a.175.175 0 0 0-.176.176v2.787l1.414-.002v.729L0 3.675Z" style="fill:#444141;fill-opacity:1;fill-rule:nonzero;stroke:none" transform="translate(301.972 952.318)"/><path d="M0 0a.76.76 0 0 1 .758-.76h.234l1.276-.002v.741L1.03-.019a.175.175 0 0 0-.176.176v2.787l1.414-.002v.729L0 3.675Z" style="fill:none;stroke:#444141;stroke-width:.15;stroke-linecap:butt;stroke-linejoin:miter;stroke-miterlimit:10;stroke-dasharray:none;stroke-opacity:1" transform="translate(301.972 952.318)"/><path d="M0 0h-.414v1.773h-.857v-5.301l.857-.002v2.801L0-.73v-2.8l.856-.002v5.305H0Z" style="fill:#444141;fill-opacity:1;fill-rule:nonzero;stroke:none" transform="translate(305.768 954.216)"/><path d="M0 0h-.414v1.773h-.857v-5.301l.857-.002v2.801L0-.73v-2.8l.856-.002v5.305H0Z" style="fill:none;stroke:#444141;stroke-width:.15;stroke-linecap:butt;stroke-linejoin:miter;stroke-miterlimit:10;stroke-dasharray:none;stroke-opacity:1" transform="translate(305.768 954.216)"/><path d="m0 0-3.065 1.021-.219-.656 2.707-.901A.263.263 0 0 0-.41-.869l-.351-1.056.813-.271.345 1.038.082.247C.604-.538.374-.124 0 0" style="fill:#444141;fill-opacity:1;fill-rule:nonzero;stroke:none" transform="translate(295.3 954.051)"/><path d="m0 0-3.065 1.021-.219-.656 2.707-.901A.263.263 0 0 0-.41-.869l-.351-1.056.813-.271.345 1.038.082.247C.604-.538.374-.124 0 0Z" style="fill:none;stroke:#444141;stroke-width:.15;stroke-linecap:butt;stroke-linejoin:miter;stroke-miterlimit:10;stroke-dasharray:none;stroke-opacity:1" transform="translate(295.3 954.051)"/><path d="m0 0-3.027 1.007-.229-.688 2.669-.888a.263.263 0 0 0 .166-.333l-.236-.709.813-.271.231.691.092.279C.604-.538.374-.125 0 0" style="fill:#444141;fill-opacity:1;fill-rule:nonzero;stroke:none" transform="translate(296.323 957.123)"/><path d="m0 0-3.027 1.007-.229-.688 2.669-.888a.263.263 0 0 0 .166-.333l-.236-.709.813-.271.231.691.092.279C.604-.538.374-.125 0 0Z" style="fill:none;stroke:#444141;stroke-width:.15;stroke-linecap:butt;stroke-linejoin:miter;stroke-miterlimit:10;stroke-dasharray:none;stroke-opacity:1" transform="translate(296.323 957.123)"/><path d="m0 0-.774.257-.239-.718-1.652.55-.232-.697L1.577-2.13l.242.726-2.059.686z" style="fill:#444141;fill-opacity:1;fill-rule:nonzero;stroke:none" transform="translate(294.895 956.14)"/><path d="m0 0-.774.257-.239-.718-1.652.55-.232-.697L1.577-2.13l.242.726-2.059.686z" style="fill:none;stroke:#444141;stroke-width:.15;stroke-linecap:butt;stroke-linejoin:miter;stroke-miterlimit:10;stroke-dasharray:none;stroke-opacity:1" transform="translate(294.895 956.14)"/><path d="m0 0-.39-.287-1.967 2.671-.155.21c-.233.317-.704.367-1.021.133L-6.005.906l.434-.59 2.169 1.598a.264.264 0 0 0 .368-.056L-1.08-.795l-.427-.315-1.572 2.133-.666-.491 1.571-2.133-.436-.322L-4.182.21l-.666-.49 1.572-2.134-.464-.341.431-.587L.433-.586z" style="fill:#444141;fill-opacity:1;fill-rule:nonzero;stroke:none" transform="translate(325.387 959.156)"/><path d="m0 0-.39-.287-1.967 2.671-.155.21c-.233.317-.704.367-1.021.133L-6.005.906l.434-.59 2.169 1.598a.264.264 0 0 0 .368-.056L-1.08-.795l-.427-.315-1.572 2.133-.666-.491 1.571-2.133-.436-.322L-4.182.21l-.666-.49 1.572-2.134-.464-.341.431-.587L.433-.586z" style="fill:none;stroke:#444141;stroke-width:.15;stroke-linecap:butt;stroke-linejoin:miter;stroke-miterlimit:10;stroke-dasharray:none;stroke-opacity:1" transform="translate(325.387 959.156)"/><path d="M0 0c.06.223.091.422.087.597.008.178-.025.346-.087.51-.084.218-.201.374-.366.474a.598.598 0 0 1-.534.026.69.69 0 0 1-.221-.134.725.725 0 0 1-.126-.199 2.332 2.332 0 0 1-.061-.286L-1.324.6c.001-.2-.01-.386-.04-.554A1.595 1.595 0 0 0-1.5-.425a1.084 1.084 0 0 0-.257-.367 1.116 1.116 0 0 0-.393-.245 1.087 1.087 0 0 0-.509-.076.95.95 0 0 0-.442.163 1.467 1.467 0 0 0-.369.352c-.107.147-.2.325-.275.521-.08.207-.118.424-.122.648.002.226.029.436.078.637l.611-.124a2.835 2.835 0 0 1-.088-.515 1.223 1.223 0 0 1 .078-.451c.091-.235.207-.39.348-.462a.512.512 0 0 1 .429-.029.526.526 0 0 1 .227.149c.059.06.101.133.129.224.035.09.057.198.062.318.017.12.02.259.02.409.005.202.016.388.04.554.033.162.078.311.136.439.065.126.154.24.256.337.11.091.246.169.4.228.165.063.327.087.485.086.169-.011.323-.052.472-.126a1.3 1.3 0 0 0 .421-.34c.122-.153.235-.348.323-.577.087-.229.138-.46.149-.687a2.101 2.101 0 0 0-.102-.74Z" style="fill:#444141;fill-opacity:1;fill-rule:nonzero;stroke:none" transform="translate(277.009 973.155)"/><path d="M0 0c.06.223.091.422.087.597.008.178-.025.346-.087.51-.084.218-.201.374-.366.474a.598.598 0 0 1-.534.026.69.69 0 0 1-.221-.134.725.725 0 0 1-.126-.199 2.332 2.332 0 0 1-.061-.286L-1.324.6c.001-.2-.01-.386-.04-.554A1.595 1.595 0 0 0-1.5-.425a1.084 1.084 0 0 0-.257-.367 1.116 1.116 0 0 0-.393-.245 1.087 1.087 0 0 0-.509-.076.95.95 0 0 0-.442.163 1.467 1.467 0 0 0-.369.352c-.107.147-.2.325-.275.521-.08.207-.118.424-.122.648.002.226.029.436.078.637l.611-.124a2.835 2.835 0 0 1-.088-.515 1.223 1.223 0 0 1 .078-.451c.091-.235.207-.39.348-.462a.512.512 0 0 1 .429-.029.526.526 0 0 1 .227.149c.059.06.101.133.129.224.035.09.057.198.062.318.017.12.02.259.02.409.005.202.016.388.04.554.033.162.078.311.136.439.065.126.154.24.256.337.11.091.246.169.4.228.165.063.327.087.485.086.169-.011.323-.052.472-.126a1.3 1.3 0 0 0 .421-.34c.122-.153.235-.348.323-.577.087-.229.138-.46.149-.687a2.101 2.101 0 0 0-.102-.74Z" style="fill:none;stroke:#444141;stroke-width:.25;stroke-linecap:butt;stroke-linejoin:miter;stroke-miterlimit:10;stroke-dasharray:none;stroke-opacity:1" transform="translate(277.009 973.155)"/><path d="M0 0a2.701 2.701 0 0 1-.076-.625c.004-.227.045-.444.121-.644.076-.197.168-.372.274-.518.116-.151.236-.266.367-.35a.933.933 0 0 1 .437-.161c.16-.017.326.007.503.075.161.062.291.143.39.243.114.108.198.227.255.364.066.136.112.293.135.469.029.155.042.335.041.552l.015.388c.017.106.037.203.062.289a.754.754 0 0 0 .128.202c.06.057.138.104.224.137A.61.61 0 0 0 3.42.394c.163-.099.284-.255.37-.478.067-.176.096-.344.088-.515a2.12 2.12 0 0 0-.085-.588l.588-.096a2.082 2.082 0 0 1-.05 1.412 2.194 2.194 0 0 1-.321.575 1.303 1.303 0 0 1-.418.336 1.2 1.2 0 0 1-.467.125h-.016a1.393 1.393 0 0 1-.862-.311A1.283 1.283 0 0 1 1.992.52a2.073 2.073 0 0 1-.134-.437 4.49 4.49 0 0 1-.04-.552c0-.129-.002-.279-.021-.409a.963.963 0 0 0-.062-.32.521.521 0 0 0-.131-.228.523.523 0 0 0-.231-.152.52.52 0 0 0-.436.03c-.144.072-.262.229-.353.466-.054.141-.08.29-.079.456.011.158.039.328.085.507zm1.225-2.324a.949.949 0 0 0-.55.17 1.453 1.453 0 0 0-.372.355c-.107.148-.2.323-.277.523a1.891 1.891 0 0 0-.122.651c.002.226.028.435.078.64l.003.009.009-.002.621-.125-.003-.01a2.867 2.867 0 0 1-.087-.513c-.001-.163.025-.31.078-.448.089-.233.205-.386.343-.456a.495.495 0 0 1 .42-.029.522.522 0 0 1 .223.146c.058.06.1.132.127.222a.98.98 0 0 1 .061.315c.019.129.021.278.021.408.005.227.017.404.04.555.034.17.08.319.136.442.065.125.155.242.259.34a1.426 1.426 0 0 0 .877.317l.015-.001a1.21 1.21 0 0 0 .477-.126c.157-.079.295-.19.424-.342.128-.162.24-.362.324-.581.088-.231.139-.463.15-.69a2.124 2.124 0 0 0-.102-.743l-.003-.009-.009.001-.618.101.003.011c.062.233.09.426.087.594.007.169-.022.335-.087.507-.084.219-.202.372-.361.468a.58.58 0 0 1-.526.026.678.678 0 0 1-.217-.132.719.719 0 0 1-.124-.195 2.345 2.345 0 0 1-.06-.284l-.016-.387a2.97 2.97 0 0 0-.041-.554 1.562 1.562 0 0 0-.136-.475 1.088 1.088 0 0 0-.26-.37 1.125 1.125 0 0 0-.396-.247 1.154 1.154 0 0 0-.409-.082" style="fill:#444141;fill-opacity:1;fill-rule:nonzero;stroke:none" transform="translate(273.228 974.35)"/><path d="M0 0a2.701 2.701 0 0 1-.076-.625c.004-.227.045-.444.121-.644.076-.197.168-.372.274-.518.116-.151.236-.266.367-.35a.933.933 0 0 1 .437-.161c.16-.017.326.007.503.075.161.062.291.143.39.243.114.108.198.227.255.364.066.136.112.293.135.469.029.155.042.335.041.552l.015.388c.017.106.037.203.062.289a.754.754 0 0 0 .128.202c.06.057.138.104.224.137A.61.61 0 0 0 3.42.394c.163-.099.284-.255.37-.478.067-.176.096-.344.088-.515a2.12 2.12 0 0 0-.085-.588l.588-.096a2.082 2.082 0 0 1-.05 1.412 2.194 2.194 0 0 1-.321.575 1.303 1.303 0 0 1-.418.336 1.2 1.2 0 0 1-.467.125h-.016a1.393 1.393 0 0 1-.862-.311A1.283 1.283 0 0 1 1.992.52a2.073 2.073 0 0 1-.134-.437 4.49 4.49 0 0 1-.04-.552c0-.129-.002-.279-.021-.409a.963.963 0 0 0-.062-.32.521.521 0 0 0-.131-.228.523.523 0 0 0-.231-.152.52.52 0 0 0-.436.03c-.144.072-.262.229-.353.466-.054.141-.08.29-.079.456.011.158.039.328.085.507zm1.225-2.324a.949.949 0 0 0-.55.17 1.453 1.453 0 0 0-.372.355c-.107.148-.2.323-.277.523a1.891 1.891 0 0 0-.122.651c.002.226.028.435.078.64l.003.009.009-.002.621-.125-.003-.01a2.867 2.867 0 0 1-.087-.513c-.001-.163.025-.31.078-.448.089-.233.205-.386.343-.456a.495.495 0 0 1 .42-.029.522.522 0 0 1 .223.146c.058.06.1.132.127.222a.98.98 0 0 1 .061.315c.019.129.021.278.021.408.005.227.017.404.04.555.034.17.08.319.136.442.065.125.155.242.259.34a1.426 1.426 0 0 0 .877.317l.015-.001a1.21 1.21 0 0 0 .477-.126c.157-.079.295-.19.424-.342.128-.162.24-.362.324-.581.088-.231.139-.463.15-.69a2.124 2.124 0 0 0-.102-.743l-.003-.009-.009.001-.618.101.003.011c.062.233.09.426.087.594.007.169-.022.335-.087.507-.084.219-.202.372-.361.468a.58.58 0 0 1-.526.026.678.678 0 0 1-.217-.132.719.719 0 0 1-.124-.195 2.345 2.345 0 0 1-.06-.284l-.016-.387a2.97 2.97 0 0 0-.041-.554 1.562 1.562 0 0 0-.136-.475 1.088 1.088 0 0 0-.26-.37 1.125 1.125 0 0 0-.396-.247 1.154 1.154 0 0 0-.409-.082Z" style="fill:none;stroke:#444141;stroke-width:.25;stroke-linecap:butt;stroke-linejoin:miter;stroke-miterlimit:10;stroke-dasharray:none;stroke-opacity:1" transform="translate(273.228 974.35)"/><path d="M0 0c.036-.202.112-.367.219-.496.119-.133.257-.234.424-.3.169-.077.362-.115.573-.125.219-.015.438 0 .67.041.233.04.444.101.632.193.19.081.351.187.472.314a1.05 1.05 0 0 1 .306.951 1.046 1.046 0 0 1-.21.48 1.15 1.15 0 0 1-.401.309 1.787 1.787 0 0 1-.552.14A3.066 3.066 0 0 1 .83 1.285 1.983 1.983 0 0 1 .333.972 1.286 1.286 0 0 1 .038.541 1.082 1.082 0 0 1 0 0m3.878.68c.048-.277.04-.539-.018-.787a1.509 1.509 0 0 0-.325-.674 1.856 1.856 0 0 0-.623-.513 2.904 2.904 0 0 0-.9-.301 3.171 3.171 0 0 0-.984-.03c-.295.043-.55.129-.777.262a1.714 1.714 0 0 0-.541.522 1.954 1.954 0 0 0-.285.739A2.02 2.02 0 0 0-.56.697c.065.249.176.47.332.67.17.195.379.369.642.509.269.143.581.245.935.308.349.061.665.068.948.023.296-.043.546-.135.76-.264.222-.14.402-.31.535-.524A1.97 1.97 0 0 0 3.878.68" style="fill:#444141;fill-opacity:1;fill-rule:nonzero;stroke:none" transform="translate(272.184 979.215)"/><path d="M0 0c.036-.202.112-.367.219-.496.119-.133.257-.234.424-.3.169-.077.362-.115.573-.125.219-.015.438 0 .67.041.233.04.444.101.632.193.19.081.351.187.472.314a1.05 1.05 0 0 1 .306.951 1.046 1.046 0 0 1-.21.48 1.15 1.15 0 0 1-.401.309 1.787 1.787 0 0 1-.552.14A3.066 3.066 0 0 1 .83 1.285 1.983 1.983 0 0 1 .333.972 1.286 1.286 0 0 1 .038.541 1.082 1.082 0 0 1 0 0Zm3.878.68c.048-.277.04-.539-.018-.787a1.509 1.509 0 0 0-.325-.674 1.856 1.856 0 0 0-.623-.513 2.904 2.904 0 0 0-.9-.301 3.171 3.171 0 0 0-.984-.03c-.295.043-.55.129-.777.262a1.714 1.714 0 0 0-.541.522 1.954 1.954 0 0 0-.285.739A2.02 2.02 0 0 0-.56.697c.065.249.176.47.332.67.17.195.379.369.642.509.269.143.581.245.935.308.349.061.665.068.948.023.296-.043.546-.135.76-.264.222-.14.402-.31.535-.524A1.97 1.97 0 0 0 3.878.68Z" style="fill:none;stroke:#444141;stroke-width:.25;stroke-linecap:butt;stroke-linejoin:miter;stroke-miterlimit:10;stroke-dasharray:none;stroke-opacity:1" transform="translate(272.184 979.215)"/><path d="M0 0c.034-.193.107-.358.217-.492a1.09 1.09 0 0 1 .419-.296c.16-.073.346-.113.571-.125a2.76 2.76 0 0 1 .668.041 2.3 2.3 0 0 1 .628.193c.193.082.351.187.469.312.128.122.216.261.27.424a1 1 0 0 1 .034.517 1.04 1.04 0 0 1-.208.475 1.125 1.125 0 0 1-.398.307 1.809 1.809 0 0 1-.548.14 3.031 3.031 0 0 1-1.299-.223A1.981 1.981 0 0 1 .33.963 1.293 1.293 0 0 1 .037.535 1.07 1.07 0 0 1 0 0m1.375-.939c-.058 0-.114.002-.169.006a1.565 1.565 0 0 0-.577.126 1.115 1.115 0 0 0-.428.302 1.072 1.072 0 0 0-.221.501c-.033.189-.021.373.038.546.068.164.166.306.297.436.141.122.308.228.5.314a2.968 2.968 0 0 0 1.308.224c.221-.025.407-.072.556-.141.165-.08.298-.182.405-.313.109-.136.18-.299.212-.484a1.032 1.032 0 0 0-.31-.959 1.381 1.381 0 0 0-.475-.317 2.373 2.373 0 0 0-.633-.195 3.005 3.005 0 0 0-.503-.046m.534 3.163c-.179 0-.369-.018-.568-.053a3.151 3.151 0 0 1-.932-.305 2.214 2.214 0 0 1-.639-.508A1.78 1.78 0 0 1-.56.692a2.016 2.016 0 0 1-.016-.794c.049-.273.144-.52.284-.735.147-.218.328-.393.539-.519a2.11 2.11 0 0 1 .773-.261c.298-.041.628-.031.98.031.346.061.647.161.896.299.265.142.468.308.621.51.163.195.272.421.323.67.059.251.065.514.017.783-.047.271-.14.511-.284.736a1.622 1.622 0 0 1-.531.52 2.036 2.036 0 0 1-.756.263 2.392 2.392 0 0 1-.377.029m-.514-3.886c-.131 0-.257.008-.378.025-.297.044-.552.13-.781.263a1.724 1.724 0 0 0-.544.526 1.962 1.962 0 0 0-.288.743c-.048.274-.042.543.016.802.065.25.174.47.334.674.182.21.392.377.645.513.268.142.583.245.938.307.349.061.669.069.952.024.281-.041.538-.13.763-.265.232-.146.408-.318.539-.527.145-.227.239-.469.287-.743a1.98 1.98 0 0 0-.018-.791 1.53 1.53 0 0 0-.327-.679 1.877 1.877 0 0 0-.627-.515 2.905 2.905 0 0 0-.903-.302 3.522 3.522 0 0 0-.608-.055" style="fill:#444141;fill-opacity:1;fill-rule:nonzero;stroke:none" transform="translate(272.194 979.217)"/><path d="M0 0c.034-.193.107-.358.217-.492a1.09 1.09 0 0 1 .419-.296c.16-.073.346-.113.571-.125a2.76 2.76 0 0 1 .668.041 2.3 2.3 0 0 1 .628.193c.193.082.351.187.469.312.128.122.216.261.27.424a1 1 0 0 1 .034.517 1.04 1.04 0 0 1-.208.475 1.125 1.125 0 0 1-.398.307 1.809 1.809 0 0 1-.548.14 3.031 3.031 0 0 1-1.299-.223A1.981 1.981 0 0 1 .33.963 1.293 1.293 0 0 1 .037.535 1.07 1.07 0 0 1 0 0Zm1.375-.939c-.058 0-.114.002-.169.006a1.565 1.565 0 0 0-.577.126 1.115 1.115 0 0 0-.428.302 1.072 1.072 0 0 0-.221.501c-.033.189-.021.373.038.546.068.164.166.306.297.436.141.122.308.228.5.314a2.968 2.968 0 0 0 1.308.224c.221-.025.407-.072.556-.141.165-.08.298-.182.405-.313.109-.136.18-.299.212-.484a1.032 1.032 0 0 0-.31-.959 1.381 1.381 0 0 0-.475-.317 2.373 2.373 0 0 0-.633-.195 3.005 3.005 0 0 0-.503-.046Zm.534 3.163c-.179 0-.369-.018-.568-.053a3.151 3.151 0 0 1-.932-.305 2.214 2.214 0 0 1-.639-.508A1.78 1.78 0 0 1-.56.692a2.016 2.016 0 0 1-.016-.794c.049-.273.144-.52.284-.735.147-.218.328-.393.539-.519a2.11 2.11 0 0 1 .773-.261c.298-.041.628-.031.98.031.346.061.647.161.896.299.265.142.468.308.621.51.163.195.272.421.323.67.059.251.065.514.017.783-.047.271-.14.511-.284.736a1.622 1.622 0 0 1-.531.52 2.036 2.036 0 0 1-.756.263 2.392 2.392 0 0 1-.377.029Zm-.514-3.886c-.131 0-.257.008-.378.025-.297.044-.552.13-.781.263a1.724 1.724 0 0 0-.544.526 1.962 1.962 0 0 0-.288.743c-.048.274-.042.543.016.802.065.25.174.47.334.674.182.21.392.377.645.513.268.142.583.245.938.307.349.061.669.069.952.024.281-.041.538-.13.763-.265.232-.146.408-.318.539-.527.145-.227.239-.469.287-.743a1.98 1.98 0 0 0-.018-.791 1.53 1.53 0 0 0-.327-.679 1.877 1.877 0 0 0-.627-.515 2.905 2.905 0 0 0-.903-.302 3.522 3.522 0 0 0-.608-.055Z" style="fill:none;stroke:#444141;stroke-width:.25;stroke-linecap:butt;stroke-linejoin:miter;stroke-miterlimit:10;stroke-dasharray:none;stroke-opacity:1" transform="translate(272.194 979.217)"/><path d="m0 0-.02-.689-4.415.126.026.9L-.83 1.942l-3.53.101.02.69 4.415-.127-.026-.894L-3.565.103Z" style="fill:#444141;fill-opacity:1;fill-rule:nonzero;stroke:none" transform="translate(275.543 984.75)"/><path d="m0 0-.02-.689-4.415.126.026.9L-.83 1.942l-3.53.101.02.69 4.415-.127-.026-.894L-3.565.103Z" style="fill:none;stroke:#444141;stroke-width:.25;stroke-linecap:butt;stroke-linejoin:miter;stroke-miterlimit:10;stroke-dasharray:none;stroke-opacity:1" transform="translate(275.543 984.75)"/><path d="m0 0 4.395-.126.019.668-3.6.104 3.65 1.625.025.878-4.394.126-.02-.669 3.565-.103-.041-.018L.025.883Zm4.415-.147h-.01L-.021-.02v.01l.026.906.006.003 3.538 1.587-3.495.1v.01l.021.7.01-.001 4.425-.126v-.01l-.026-.901-.005-.003L.905.664l3.53-.102v-.01z" style="fill:#444141;fill-opacity:1;fill-rule:nonzero;stroke:none" transform="translate(271.118 984.197)"/><path d="m0 0 4.395-.126.019.668-3.6.104 3.65 1.625.025.878-4.394.126-.02-.669 3.565-.103-.041-.018L.025.883Zm4.415-.147h-.01L-.021-.02v.01l.026.906.006.003 3.538 1.587-3.495.1v.01l.021.7.01-.001 4.425-.126v-.01l-.026-.901-.005-.003L.905.664l3.53-.102v-.01z" style="fill:none;stroke:#444141;stroke-width:.25;stroke-linecap:butt;stroke-linejoin:miter;stroke-miterlimit:10;stroke-dasharray:none;stroke-opacity:1" transform="translate(271.118 984.197)"/><path d="M0 0a3.024 3.024 0 0 0-.81.318 2.128 2.128 0 0 0-.615.529 1.826 1.826 0 0 0-.328.739c-.056.277-.049.588.033.935.056.239.144.452.261.641.12.175.27.344.445.495l.422-.496a1.92 1.92 0 0 1-.333-.33 1.392 1.392 0 0 1-.206-.461 1.207 1.207 0 0 1-.004-.606c.053-.186.135-.35.255-.487.124-.143.277-.263.456-.354C-.242.82-.041.749.166.7.378.649.584.625.788.637c.206-.001.397.038.572.111.174.066.327.174.452.319.129.138.214.315.268.543.067.285.083.557.036.82l-1.241.294-.25-1.058-.591.14.413 1.746 2.074-.49c.064-.112.116-.227.146-.354.035-.134.057-.271.068-.406.008-.146.011-.285.002-.427a3.096 3.096 0 0 0-.063-.394 2.104 2.104 0 0 0-.395-.849 1.635 1.635 0 0 0-.631-.511 1.958 1.958 0 0 0-.787-.199A2.955 2.955 0 0 0 0 0" style="fill:#444141;fill-opacity:1;fill-rule:nonzero;stroke:none" transform="translate(273.772 990.22)"/><path d="M0 0a3.024 3.024 0 0 0-.81.318 2.128 2.128 0 0 0-.615.529 1.826 1.826 0 0 0-.328.739c-.056.277-.049.588.033.935.056.239.144.452.261.641.12.175.27.344.445.495l.422-.496a1.92 1.92 0 0 1-.333-.33 1.392 1.392 0 0 1-.206-.461 1.207 1.207 0 0 1-.004-.606c.053-.186.135-.35.255-.487.124-.143.277-.263.456-.354C-.242.82-.041.749.166.7.378.649.584.625.788.637c.206-.001.397.038.572.111.174.066.327.174.452.319.129.138.214.315.268.543.067.285.083.557.036.82l-1.241.294-.25-1.058-.591.14.413 1.746 2.074-.49c.064-.112.116-.227.146-.354.035-.134.057-.271.068-.406.008-.146.011-.285.002-.427a3.096 3.096 0 0 0-.063-.394 2.104 2.104 0 0 0-.395-.849 1.635 1.635 0 0 0-.631-.511 1.958 1.958 0 0 0-.787-.199A2.955 2.955 0 0 0 0 0Z" style="fill:none;stroke:#444141;stroke-width:.25;stroke-linecap:butt;stroke-linejoin:miter;stroke-miterlimit:10;stroke-dasharray:none;stroke-opacity:1" transform="translate(273.772 990.22)"/><path d="M0 0c.294-.069.574-.094.858-.077.293.016.557.082.783.197.241.109.452.28.628.508.181.224.313.509.393.846.025.107.045.232.062.392.01.154.005.301-.002.426a2.416 2.416 0 0 1-.067.404 1.282 1.282 0 0 1-.144.346L.452 3.53.043 1.804l.572-.136.251 1.058.009-.002 1.248-.295.001-.007a1.99 1.99 0 0 0-.037-.824 1.163 1.163 0 0 0-.27-.548 1.142 1.142 0 0 0-.456-.322 1.474 1.474 0 0 0-.57-.111H.786A2.093 2.093 0 0 0 .161.68a2.21 2.21 0 0 0-.593.225 1.485 1.485 0 0 0-.459.356 1.265 1.265 0 0 0-.256.49c-.051.188-.049.388.003.611.039.161.107.314.208.465.097.123.204.229.327.325l-.409.481a2.546 2.546 0 0 1-.435-.487 2.115 2.115 0 0 1-.259-.637 2.163 2.163 0 0 1-.034-.931c.059-.282.17-.529.327-.734.168-.213.368-.386.612-.527A3.03 3.03 0 0 1 0 0m.687-.103A3.06 3.06 0 0 0-.817.299a2.11 2.11 0 0 0-.618.533 1.81 1.81 0 0 0-.331.742c-.057.287-.046.603.034.94.056.238.144.455.262.643.126.184.276.351.447.498l.007.007.436-.513-.008-.006a1.903 1.903 0 0 1-.331-.328 1.394 1.394 0 0 1-.205-.458 1.195 1.195 0 0 1 .249-1.083A1.45 1.45 0 0 1-.422.923C-.253.827-.056.752.166.7A2.12 2.12 0 0 1 .785.637H.79c.198 0 .388.037.564.11.173.067.324.174.448.317.124.133.211.309.265.539.07.292.082.557.038.809l-1.224.29L.63 1.644l-.009.002-.602.143.002.009.416 1.756.01-.002 2.078-.491.002-.004c.073-.126.119-.239.148-.356a2.574 2.574 0 0 0 .007-1.232 2.134 2.134 0 0 0-.397-.853A1.656 1.656 0 0 0 1.65.102a1.976 1.976 0 0 0-.791-.2 3.292 3.292 0 0 0-.172-.005" style="fill:#444141;fill-opacity:1;fill-rule:nonzero;stroke:none" transform="translate(273.775 990.23)"/><path d="M0 0c.294-.069.574-.094.858-.077.293.016.557.082.783.197.241.109.452.28.628.508.181.224.313.509.393.846.025.107.045.232.062.392.01.154.005.301-.002.426a2.416 2.416 0 0 1-.067.404 1.282 1.282 0 0 1-.144.346L.452 3.53.043 1.804l.572-.136.251 1.058.009-.002 1.248-.295.001-.007a1.99 1.99 0 0 0-.037-.824 1.163 1.163 0 0 0-.27-.548 1.142 1.142 0 0 0-.456-.322 1.474 1.474 0 0 0-.57-.111H.786A2.093 2.093 0 0 0 .161.68a2.21 2.21 0 0 0-.593.225 1.485 1.485 0 0 0-.459.356 1.265 1.265 0 0 0-.256.49c-.051.188-.049.388.003.611.039.161.107.314.208.465.097.123.204.229.327.325l-.409.481a2.546 2.546 0 0 1-.435-.487 2.115 2.115 0 0 1-.259-.637 2.163 2.163 0 0 1-.034-.931c.059-.282.17-.529.327-.734.168-.213.368-.386.612-.527A3.03 3.03 0 0 1 0 0Zm.687-.103A3.06 3.06 0 0 0-.817.299a2.11 2.11 0 0 0-.618.533 1.81 1.81 0 0 0-.331.742c-.057.287-.046.603.034.94.056.238.144.455.262.643.126.184.276.351.447.498l.007.007.436-.513-.008-.006a1.903 1.903 0 0 1-.331-.328 1.394 1.394 0 0 1-.205-.458 1.195 1.195 0 0 1 .249-1.083A1.45 1.45 0 0 1-.422.923C-.253.827-.056.752.166.7A2.12 2.12 0 0 1 .785.637H.79c.198 0 .388.037.564.11.173.067.324.174.448.317.124.133.211.309.265.539.07.292.082.557.038.809l-1.224.29L.63 1.644l-.009.002-.602.143.002.009.416 1.756.01-.002 2.078-.491.002-.004c.073-.126.119-.239.148-.356a2.574 2.574 0 0 0 .007-1.232 2.134 2.134 0 0 0-.397-.853A1.656 1.656 0 0 0 1.65.102a1.976 1.976 0 0 0-.791-.2 3.292 3.292 0 0 0-.172-.005Z" style="fill:none;stroke:#444141;stroke-width:.25;stroke-linecap:butt;stroke-linejoin:miter;stroke-miterlimit:10;stroke-dasharray:none;stroke-opacity:1" transform="translate(273.775 990.23)"/><path d="M0 0a3.024 3.024 0 0 0-.729.476c-.211.189-.374.4-.495.644a1.825 1.825 0 0 0-.172.79c.002.282.072.586.224.909.103.222.232.414.385.575.154.147.334.282.537.394l.312-.572a1.948 1.948 0 0 1-.393-.255 1.412 1.412 0 0 1-.295-.41A1.193 1.193 0 0 1-.603 1.43c.092-.166.218-.315.375-.44.157-.137.34-.249.533-.339C.502.559.7.493.901.463c.202-.043.397-.044.583-.008.184.03.355.105.508.221.154.109.274.266.373.478.123.264.194.528.202.796l-1.156.539-.46-.985-.551.258.76 1.626 1.931-.902c.041-.123.068-.245.073-.376.006-.139 0-.278-.017-.412a3.555 3.555 0 0 0-.085-.418A2.969 2.969 0 0 0 2.92.907a2.073 2.073 0 0 0-.559-.751 1.637 1.637 0 0 0-.722-.373 1.943 1.943 0 0 0-.811-.034A2.964 2.964 0 0 0 0 0" style="fill:#444141;fill-opacity:1;fill-rule:nonzero;stroke:none" transform="translate(275.481 996.266)"/><path d="M0 0a3.024 3.024 0 0 0-.729.476c-.211.189-.374.4-.495.644a1.825 1.825 0 0 0-.172.79c.002.282.072.586.224.909.103.222.232.414.385.575.154.147.334.282.537.394l.312-.572a1.948 1.948 0 0 1-.393-.255 1.412 1.412 0 0 1-.295-.41A1.193 1.193 0 0 1-.603 1.43c.092-.166.218-.315.375-.44.157-.137.34-.249.533-.339C.502.559.7.493.901.463c.202-.043.397-.044.583-.008.184.03.355.105.508.221.154.109.274.266.373.478.123.264.194.528.202.796l-1.156.539-.46-.985-.551.258.76 1.626 1.931-.902c.041-.123.068-.245.073-.376.006-.139 0-.278-.017-.412a3.555 3.555 0 0 0-.085-.418A2.969 2.969 0 0 0 2.92.907a2.073 2.073 0 0 0-.559-.751 1.637 1.637 0 0 0-.722-.373 1.943 1.943 0 0 0-.811-.034A2.964 2.964 0 0 0 0 0Z" style="fill:none;stroke:#444141;stroke-width:.25;stroke-linecap:butt;stroke-linejoin:miter;stroke-miterlimit:10;stroke-dasharray:none;stroke-opacity:1" transform="translate(275.481 996.266)"/><path d="M0 0c.273-.127.542-.209.825-.25.29-.044.561-.033.807.033.258.058.499.182.718.371.222.182.41.433.557.748.047.1.092.219.141.372.033.118.058.243.084.416.018.138.023.276.017.41a1.305 1.305 0 0 1-.07.369l-1.919.896-.751-1.608.532-.249.461.986.009-.005 1.162-.542V1.94a2.021 2.021 0 0 0-.203-.8 1.163 1.163 0 0 0-.377-.481 1.14 1.14 0 0 0-.512-.223 1.466 1.466 0 0 0-.586.008C.705.472.509.533.296.633a2.213 2.213 0 0 0-.535.341 1.487 1.487 0 0 0-.377.442 1.234 1.234 0 0 0-.152.532c-.011.194.03.389.128.598.07.15.167.285.298.413.121.101.247.184.386.252l-.303.554a2.558 2.558 0 0 1-.525-.388 2.136 2.136 0 0 1-.383-.572A2.17 2.17 0 0 1-1.39 1.9c.001-.288.059-.552.171-.785A2.11 2.11 0 0 1-.727.474C-.512.284-.267.125 0 0m1.162-.297c-.11 0-.224.009-.34.026A3.091 3.091 0 0 0-.74.458c-.213.19-.375.402-.497.648a1.824 1.824 0 0 0-.173.794c.002.293.077.6.223.914.105.223.235.417.389.577.159.154.34.287.538.397l.01.005.322-.591-.01-.004a1.92 1.92 0 0 1-.39-.254 1.377 1.377 0 0 1-.294-.407 1.2 1.2 0 0 1-.126-.587c.015-.201.064-.372.15-.525.093-.166.218-.313.372-.436.145-.128.324-.241.53-.338C.515.553.709.492.898.464c.196-.041.392-.044.58-.008.183.03.352.104.503.219.149.104.27.26.37.474.127.271.193.528.201.785l-1.14.532-.46-.985-.01.005-.56.262.004.009.764 1.635.01-.004 1.935-.905.002-.004c.046-.137.069-.258.072-.378a2.41 2.41 0 0 0-.016-.414 3.418 3.418 0 0 0-.086-.419 3.075 3.075 0 0 0-.141-.374 2.134 2.134 0 0 0-.563-.756 1.658 1.658 0 0 0-.726-.374 1.792 1.792 0 0 0-.475-.061" style="fill:#444141;fill-opacity:1;fill-rule:nonzero;stroke:none" transform="translate(275.485 996.276)"/><path d="M0 0c.273-.127.542-.209.825-.25.29-.044.561-.033.807.033.258.058.499.182.718.371.222.182.41.433.557.748.047.1.092.219.141.372.033.118.058.243.084.416.018.138.023.276.017.41a1.305 1.305 0 0 1-.07.369l-1.919.896-.751-1.608.532-.249.461.986.009-.005 1.162-.542V1.94a2.021 2.021 0 0 0-.203-.8 1.163 1.163 0 0 0-.377-.481 1.14 1.14 0 0 0-.512-.223 1.466 1.466 0 0 0-.586.008C.705.472.509.533.296.633a2.213 2.213 0 0 0-.535.341 1.487 1.487 0 0 0-.377.442 1.234 1.234 0 0 0-.152.532c-.011.194.03.389.128.598.07.15.167.285.298.413.121.101.247.184.386.252l-.303.554a2.558 2.558 0 0 1-.525-.388 2.136 2.136 0 0 1-.383-.572A2.17 2.17 0 0 1-1.39 1.9c.001-.288.059-.552.171-.785A2.11 2.11 0 0 1-.727.474C-.512.284-.267.125 0 0Zm1.162-.297c-.11 0-.224.009-.34.026A3.091 3.091 0 0 0-.74.458c-.213.19-.375.402-.497.648a1.824 1.824 0 0 0-.173.794c.002.293.077.6.223.914.105.223.235.417.389.577.159.154.34.287.538.397l.01.005.322-.591-.01-.004a1.92 1.92 0 0 1-.39-.254 1.377 1.377 0 0 1-.294-.407 1.2 1.2 0 0 1-.126-.587c.015-.201.064-.372.15-.525.093-.166.218-.313.372-.436.145-.128.324-.241.53-.338C.515.553.709.492.898.464c.196-.041.392-.044.58-.008.183.03.352.104.503.219.149.104.27.26.37.474.127.271.193.528.201.785l-1.14.532-.46-.985-.01.005-.56.262.004.009.764 1.635.01-.004 1.935-.905.002-.004c.046-.137.069-.258.072-.378a2.41 2.41 0 0 0-.016-.414 3.418 3.418 0 0 0-.086-.419 3.075 3.075 0 0 0-.141-.374 2.134 2.134 0 0 0-.563-.756 1.658 1.658 0 0 0-.726-.374 1.792 1.792 0 0 0-.475-.061Z" style="fill:none;stroke:#444141;stroke-width:.25;stroke-linecap:butt;stroke-linejoin:miter;stroke-miterlimit:10;stroke-dasharray:none;stroke-opacity:1" transform="translate(275.485 996.276)"/><path d="M0 0a1.056 1.056 0 0 1-.212-.499 1.1 1.1 0 0 1 .071-.514 1.58 1.58 0 0 1 .301-.504c.138-.17.298-.319.487-.461.189-.143.378-.254.573-.329.189-.083.376-.129.552-.13a1.06 1.06 0 0 1 .499.094c.154.068.289.178.404.332.113.15.181.31.207.481.021.167.005.332-.049.505-.054.165-.15.332-.275.499a3.06 3.06 0 0 1-1.054.799 1.997 1.997 0 0 1-.567.149A1.31 1.31 0 0 1 .419.343 1.085 1.085 0 0 1 0 0m3.147-2.365a1.91 1.91 0 0 0-.586-.525 1.506 1.506 0 0 0-.714-.224 1.862 1.862 0 0 0-.8.104 2.88 2.88 0 0 0-.835.452 3.137 3.137 0 0 0-.694.698 2.11 2.11 0 0 0-.34.745c-.053.244-.048.497.01.752.061.247.173.485.345.714.168.225.369.403.593.534.225.123.462.194.715.216.259.01.528-.024.811-.12.287-.099.575-.256.863-.473.283-.213.505-.438.666-.676.17-.245.274-.491.326-.735a1.626 1.626 0 0 0-.016-.748 1.98 1.98 0 0 0-.344-.714" style="fill:#444141;fill-opacity:1;fill-rule:nonzero;stroke:none" transform="translate(278.207 1004.393)"/><path d="M0 0a1.056 1.056 0 0 1-.212-.499 1.1 1.1 0 0 1 .071-.514 1.58 1.58 0 0 1 .301-.504c.138-.17.298-.319.487-.461.189-.143.378-.254.573-.329.189-.083.376-.129.552-.13a1.06 1.06 0 0 1 .499.094c.154.068.289.178.404.332.113.15.181.31.207.481.021.167.005.332-.049.505-.054.165-.15.332-.275.499a3.06 3.06 0 0 1-1.054.799 1.997 1.997 0 0 1-.567.149A1.31 1.31 0 0 1 .419.343 1.085 1.085 0 0 1 0 0Zm3.147-2.365a1.91 1.91 0 0 0-.586-.525 1.506 1.506 0 0 0-.714-.224 1.862 1.862 0 0 0-.8.104 2.88 2.88 0 0 0-.835.452 3.137 3.137 0 0 0-.694.698 2.11 2.11 0 0 0-.34.745c-.053.244-.048.497.01.752.061.247.173.485.345.714.168.225.369.403.593.534.225.123.462.194.715.216.259.01.528-.024.811-.12.287-.099.575-.256.863-.473.283-.213.505-.438.666-.676.17-.245.274-.491.326-.735a1.626 1.626 0 0 0-.016-.748 1.98 1.98 0 0 0-.344-.714Z" style="fill:none;stroke:#444141;stroke-width:.25;stroke-linecap:butt;stroke-linejoin:miter;stroke-miterlimit:10;stroke-dasharray:none;stroke-opacity:1" transform="translate(278.207 1004.393)"/><path d="M0 0a1.29 1.29 0 0 1-.452-.08 1.077 1.077 0 0 1-.414-.339 1.052 1.052 0 0 1-.211-.494 1.085 1.085 0 0 1 .071-.509c.057-.167.154-.33.299-.501.134-.165.293-.315.486-.46.2-.151.387-.257.571-.327a1.38 1.38 0 0 1 .548-.129 1.024 1.024 0 0 1 .894.422c.111.146.18.307.205.476.022.165.005.329-.049.5-.05.154-.142.321-.273.496a3.073 3.073 0 0 1-1.05.796c-.193.08-.383.13-.563.148L0 0m.958-2.861-.061.001a1.433 1.433 0 0 0-.555.131c-.186.07-.374.178-.575.33a2.791 2.791 0 0 0-.49.462 1.578 1.578 0 0 0-.302.507 1.113 1.113 0 0 0-.072.519c.023.175.095.345.214.504.116.154.258.27.424.346.168.061.338.089.522.08C.247.001.438-.049.634-.13a3.09 3.09 0 0 0 1.057-.803c.133-.177.226-.346.277-.502.055-.174.071-.34.05-.509a1.075 1.075 0 0 0-.209-.486 1.03 1.03 0 0 0-.409-.335 1.035 1.035 0 0 0-.442-.096M.056.679c-.03 0-.059 0-.089-.002A1.765 1.765 0 0 1-.744.463a2.037 2.037 0 0 1-.59-.531 1.966 1.966 0 0 1-.342-.71 1.705 1.705 0 0 1-.011-.748 2.12 2.12 0 0 1 .339-.742c.174-.246.407-.48.692-.695.281-.211.561-.363.831-.45.284-.096.544-.13.796-.104.254.014.493.089.71.223.223.127.419.303.584.522.165.22.277.452.341.71.063.235.069.479.017.744-.055.253-.164.5-.325.731-.16.236-.383.463-.664.674a3.163 3.163 0 0 1-.86.471 2.21 2.21 0 0 1-.718.121m.75-4.225c-.202 0-.412.038-.637.114a2.87 2.87 0 0 0-.837.453 3.179 3.179 0 0 0-.697.699 2.137 2.137 0 0 0-.342.75c-.052.242-.048.497.011.757.062.252.178.493.346.717.166.222.367.403.596.537.226.123.461.194.72.217C.243.709.51.669.781.578c.287-.099.578-.259.865-.475a2.89 2.89 0 0 0 .669-.678 2.06 2.06 0 0 0 .328-.739 1.641 1.641 0 0 0-.017-.753 1.972 1.972 0 0 0-.345-.718 1.963 1.963 0 0 0-.589-.527 1.519 1.519 0 0 0-.719-.225 1.543 1.543 0 0 0-.167-.009" style="fill:#444141;fill-opacity:1;fill-rule:nonzero;stroke:none" transform="translate(279.082 1004.806)"/><path d="M0 0a1.29 1.29 0 0 1-.452-.08 1.077 1.077 0 0 1-.414-.339 1.052 1.052 0 0 1-.211-.494 1.085 1.085 0 0 1 .071-.509c.057-.167.154-.33.299-.501.134-.165.293-.315.486-.46.2-.151.387-.257.571-.327a1.38 1.38 0 0 1 .548-.129 1.024 1.024 0 0 1 .894.422c.111.146.18.307.205.476.022.165.005.329-.049.5-.05.154-.142.321-.273.496a3.073 3.073 0 0 1-1.05.796c-.193.08-.383.13-.563.148L0 0Zm.958-2.861-.061.001a1.433 1.433 0 0 0-.555.131c-.186.07-.374.178-.575.33a2.791 2.791 0 0 0-.49.462 1.578 1.578 0 0 0-.302.507 1.113 1.113 0 0 0-.072.519c.023.175.095.345.214.504.116.154.258.27.424.346.168.061.338.089.522.08C.247.001.438-.049.634-.13a3.09 3.09 0 0 0 1.057-.803c.133-.177.226-.346.277-.502.055-.174.071-.34.05-.509a1.075 1.075 0 0 0-.209-.486 1.03 1.03 0 0 0-.409-.335 1.035 1.035 0 0 0-.442-.096ZM.056.679c-.03 0-.059 0-.089-.002A1.765 1.765 0 0 1-.744.463a2.037 2.037 0 0 1-.59-.531 1.966 1.966 0 0 1-.342-.71 1.705 1.705 0 0 1-.011-.748 2.12 2.12 0 0 1 .339-.742c.174-.246.407-.48.692-.695.281-.211.561-.363.831-.45.284-.096.544-.13.796-.104.254.014.493.089.71.223.223.127.419.303.584.522.165.22.277.452.341.71.063.235.069.479.017.744-.055.253-.164.5-.325.731-.16.236-.383.463-.664.674a3.163 3.163 0 0 1-.86.471 2.21 2.21 0 0 1-.718.121Zm.75-4.225c-.202 0-.412.038-.637.114a2.87 2.87 0 0 0-.837.453 3.179 3.179 0 0 0-.697.699 2.137 2.137 0 0 0-.342.75c-.052.242-.048.497.011.757.062.252.178.493.346.717.166.222.367.403.596.537.226.123.461.194.72.217C.243.709.51.669.781.578c.287-.099.578-.259.865-.475a2.89 2.89 0 0 0 .669-.678 2.06 2.06 0 0 0 .328-.739 1.641 1.641 0 0 0-.017-.753 1.972 1.972 0 0 0-.345-.718 1.963 1.963 0 0 0-.589-.527 1.519 1.519 0 0 0-.719-.225 1.543 1.543 0 0 0-.167-.009Z" style="fill:none;stroke:#444141;stroke-width:.25;stroke-linecap:butt;stroke-linejoin:miter;stroke-miterlimit:10;stroke-dasharray:none;stroke-opacity:1" transform="translate(279.082 1004.806)"/><path d="m0 0 3.04-.682-.629-.561-2.414.553-.007-.466 1.117-1.25-.541-.483L-2.376.404l.542.483L-.635-.456l.031 2.44.636.568z" style="fill:#444141;fill-opacity:1;fill-rule:nonzero;stroke:none" transform="translate(283.555 1008.243)"/><path d="m0 0 3.04-.682-.629-.561-2.414.553-.007-.466 1.117-1.25-.541-.483L-2.376.404l.542.483L-.635-.456l.031 2.44.636.568z" style="fill:none;stroke:#444141;stroke-width:.25;stroke-linecap:butt;stroke-linejoin:miter;stroke-miterlimit:10;stroke-dasharray:none;stroke-opacity:1" transform="translate(283.555 1008.243)"/><path d="m0 0 2.928-3.277.526.468-1.113 1.246v.004l.008.478.012-.002 2.409-.552.609.544-3.028.679v.009l.032 2.529-.616-.55-.031-2.462-.018.02L.526.469Zm2.926-3.307-.007.008L-.029.002l.556.496L.534.49 1.716-.833l.031 2.418.003.003.654.584v-.023L2.372-.396l3.05-.684-.015-.013-.632-.564-.005.001-2.401.55-.008-.449L3.482-2.81Z" style="fill:#444141;fill-opacity:1;fill-rule:nonzero;stroke:none" transform="translate(281.193 1008.646)"/><path d="m0 0 2.928-3.277.526.468-1.113 1.246v.004l.008.478.012-.002 2.409-.552.609.544-3.028.679v.009l.032 2.529-.616-.55-.031-2.462-.018.02L.526.469Zm2.926-3.307-.007.008L-.029.002l.556.496L.534.49 1.716-.833l.031 2.418.003.003.654.584v-.023L2.372-.396l3.05-.684-.015-.013-.632-.564-.005.001-2.401.55-.008-.449L3.482-2.81Z" style="fill:none;stroke:#444141;stroke-width:.25;stroke-linecap:butt;stroke-linejoin:miter;stroke-miterlimit:10;stroke-dasharray:none;stroke-opacity:1" transform="translate(281.193 1008.646)"/><path d="M0 0a2.098 2.098 0 0 0-.625.089c-.2.063-.37.168-.512.308a1.386 1.386 0 0 0-.349.546c-.09.218-.134.483-.137.802l-.026 2.716.724.007.028-2.799c.001-.201.02-.366.068-.496A.744.744 0 0 1-.645.851.594.594 0 0 1-.362.67.97.97 0 0 1-.005.614c.128.001.245.02.356.063a.664.664 0 0 1 .278.185c.075.083.133.19.178.326.04.131.061.296.06.497L.84 4.484l.724.006.026-2.716A2.267 2.267 0 0 0 1.475.97a1.6 1.6 0 0 0-.339-.552A1.417 1.417 0 0 0 .625.1 2.192 2.192 0 0 0 0 0" style="fill:#444141;fill-opacity:1;fill-rule:nonzero;stroke:none" transform="translate(304.027 1013.505)"/><path d="M0 0a2.098 2.098 0 0 0-.625.089c-.2.063-.37.168-.512.308a1.386 1.386 0 0 0-.349.546c-.09.218-.134.483-.137.802l-.026 2.716.724.007.028-2.799c.001-.201.02-.366.068-.496A.744.744 0 0 1-.645.851.594.594 0 0 1-.362.67.97.97 0 0 1-.005.614c.128.001.245.02.356.063a.664.664 0 0 1 .278.185c.075.083.133.19.178.326.04.131.061.296.06.497L.84 4.484l.724.006.026-2.716A2.267 2.267 0 0 0 1.475.97a1.6 1.6 0 0 0-.339-.552A1.417 1.417 0 0 0 .625.1 2.192 2.192 0 0 0 0 0Z" style="fill:none;stroke:#444141;stroke-width:.25;stroke-linecap:butt;stroke-linejoin:miter;stroke-miterlimit:10;stroke-dasharray:none;stroke-opacity:1" transform="translate(304.027 1013.505)"/><path d="m0 0 .026-2.706c.003-.324.047-.585.135-.798.087-.23.2-.407.348-.542.143-.142.313-.245.508-.306a2.1 2.1 0 0 1 .603-.088h.019c.206.002.409.034.622.1.185.064.351.167.507.315.14.144.253.329.336.548.081.221.118.483.115.801L3.192.029 2.488.023l.028-2.789a1.665 1.665 0 0 0-.061-.499.889.889 0 0 0-.18-.331.668.668 0 0 0-.283-.188 1.002 1.002 0 0 0-.358-.063h-.012a.976.976 0 0 0-.35.057.608.608 0 0 0-.286.183.763.763 0 0 0-.186.327c-.045.121-.068.28-.07.498L.704.007Zm1.62-4.461c-.205 0-.41.03-.609.089a1.381 1.381 0 0 0-.868.861c-.089.215-.134.479-.137.805L-.021.021h.01l.736.006v-.01l.026-2.799c.002-.215.024-.371.068-.492a.743.743 0 0 1 .182-.319.587.587 0 0 1 .278-.178.998.998 0 0 1 .355-.056c.132.002.246.022.351.062a.66.66 0 0 1 .276.183c.072.081.13.186.175.323.041.134.061.301.059.493L2.468.043h.011l.734.007V.04l.026-2.716a2.292 2.292 0 0 0-.116-.808 1.586 1.586 0 0 0-.342-.556 1.401 1.401 0 0 0-.514-.32 2.177 2.177 0 0 0-.627-.101Z" style="fill:#444141;fill-opacity:1;fill-rule:nonzero;stroke:none" transform="translate(302.389 1017.956)"/><path d="m0 0 .026-2.706c.003-.324.047-.585.135-.798.087-.23.2-.407.348-.542.143-.142.313-.245.508-.306a2.1 2.1 0 0 1 .603-.088h.019c.206.002.409.034.622.1.185.064.351.167.507.315.14.144.253.329.336.548.081.221.118.483.115.801L3.192.029 2.488.023l.028-2.789a1.665 1.665 0 0 0-.061-.499.889.889 0 0 0-.18-.331.668.668 0 0 0-.283-.188 1.002 1.002 0 0 0-.358-.063h-.012a.976.976 0 0 0-.35.057.608.608 0 0 0-.286.183.763.763 0 0 0-.186.327c-.045.121-.068.28-.07.498L.704.007Zm1.62-4.461c-.205 0-.41.03-.609.089a1.381 1.381 0 0 0-.868.861c-.089.215-.134.479-.137.805L-.021.021h.01l.736.006v-.01l.026-2.799c.002-.215.024-.371.068-.492a.743.743 0 0 1 .182-.319.587.587 0 0 1 .278-.178.998.998 0 0 1 .355-.056c.132.002.246.022.351.062a.66.66 0 0 1 .276.183c.072.081.13.186.175.323.041.134.061.301.059.493L2.468.043h.011l.734.007V.04l.026-2.716a2.292 2.292 0 0 0-.116-.808 1.586 1.586 0 0 0-.342-.556 1.401 1.401 0 0 0-.514-.32 2.177 2.177 0 0 0-.627-.101Z" style="fill:none;stroke:#444141;stroke-width:.25;stroke-linecap:butt;stroke-linejoin:miter;stroke-miterlimit:10;stroke-dasharray:none;stroke-opacity:1" transform="translate(302.389 1017.956)"/><path d="m0 0-.667.175L.454 4.446l.871-.228.754-3.846.897 3.415.667-.175L2.521-.66l-.865.227L.905 3.45Z" style="fill:#444141;fill-opacity:1;fill-rule:nonzero;stroke:none" transform="translate(310.656 1012.87)"/><path d="m0 0-.667.175L.454 4.446l.871-.228.754-3.846.897 3.415.667-.175L2.521-.66l-.865.227L.905 3.45Z" style="fill:none;stroke:#444141;stroke-width:.25;stroke-linecap:butt;stroke-linejoin:miter;stroke-miterlimit:10;stroke-dasharray:none;stroke-opacity:1" transform="translate(310.656 1012.87)"/><path d="m0 0 .85-.222 1.116 4.251-.648.17L.413.75.404.794l-.753 3.841-.854.223L-2.319.607l.647-.17.914 3.483.009-.044Zm.864-.247-.01.002-.872.228-.001.006-.742 3.839-.896-3.415-.011.002-.677.177.003.01 1.124 4.282.01-.003.877-.23.001-.006L.416.842l.888 3.382.009-.003.677-.177-.002-.01Z" style="fill:#444141;fill-opacity:1;fill-rule:nonzero;stroke:none" transform="translate(312.321 1012.445)"/><path d="m0 0 .85-.222 1.116 4.251-.648.17L.413.75.404.794l-.753 3.841-.854.223L-2.319.607l.647-.17.914 3.483.009-.044Zm.864-.247-.01.002-.872.228-.001.006-.742 3.839-.896-3.415-.011.002-.677.177.003.01 1.124 4.282.01-.003.877-.23.001-.006L.416.842l.888 3.382.009-.003.677-.177-.002-.01Z" style="fill:none;stroke:#444141;stroke-width:.25;stroke-linecap:butt;stroke-linejoin:miter;stroke-miterlimit:10;stroke-dasharray:none;stroke-opacity:1" transform="translate(312.321 1012.445)"/><path d="m0 0-2.033-3.92-.639.331L-.639.331z" style="fill:#444141;fill-opacity:1;fill-rule:nonzero;stroke:none" transform="translate(319.812 1014.12)"/><path d="m0 0-2.033-3.92-.639.331L-.639.331z" style="fill:none;stroke:#444141;stroke-width:.25;stroke-linecap:butt;stroke-linejoin:miter;stroke-miterlimit:10;stroke-dasharray:none;stroke-opacity:1" transform="translate(319.812 1014.12)"/><path d="m0 0 .62-.321 2.024 3.902-.621.321Zm.629-.349-.656.34L2.015 3.93l.657-.341z" style="fill:#444141;fill-opacity:1;fill-rule:nonzero;stroke:none" transform="translate(317.153 1010.535)"/><path d="m0 0 .62-.321 2.024 3.902-.621.321Zm.629-.349-.656.34L2.015 3.93l.657-.341z" style="fill:none;stroke:#444141;stroke-width:.25;stroke-linecap:butt;stroke-linejoin:miter;stroke-miterlimit:10;stroke-dasharray:none;stroke-opacity:1" transform="translate(317.153 1010.535)"/><path d="m0 0 1.722 4.317.551-.461L.854.439l3.117 1.997.551-.461L.578-.484Z" style="fill:#444141;fill-opacity:1;fill-rule:nonzero;stroke:none" transform="translate(322.266 1007.235)"/><path d="m0 0 1.722 4.317.551-.461L.854.439l3.117 1.997.551-.461L.578-.484Z" style="fill:none;stroke:#444141;stroke-width:.25;stroke-linecap:butt;stroke-linejoin:miter;stroke-miterlimit:10;stroke-dasharray:none;stroke-opacity:1" transform="translate(322.266 1007.235)"/><path d="m0 0 .566-.474 3.927 2.447-.534.447L.821.41l.013.03 1.415 3.411-.534.446Zm.565-.5L.56-.495l-.584.489.003.006 1.727 4.332.011-.01.556-.466-.002-.006L.865.462 3.96 2.445l.006-.005.561-.47-.011-.007Z" style="fill:#444141;fill-opacity:1;fill-rule:nonzero;stroke:none" transform="translate(322.277 1007.238)"/><path d="m0 0 .566-.474 3.927 2.447-.534.447L.821.41l.013.03 1.415 3.411-.534.446Zm.565-.5L.56-.495l-.584.489.003.006 1.727 4.332.011-.01.556-.466-.002-.006L.865.462 3.96 2.445l.006-.005.561-.47-.011-.007Z" style="fill:none;stroke:#444141;stroke-width:.25;stroke-linecap:butt;stroke-linejoin:miter;stroke-miterlimit:10;stroke-dasharray:none;stroke-opacity:1" transform="translate(322.277 1007.238)"/><path d="m0 0-1.667 2.264 3.558 2.619 1.607-2.185-.494-.364-1.179 1.601-.989-.728 1.123-1.525-.484-.357L.352 2.85l-1.094-.806L.495.364Z" style="fill:#444141;fill-opacity:1;fill-rule:nonzero;stroke:none" transform="translate(328.281 1000.678)"/><path d="m0 0-1.667 2.264 3.558 2.619 1.607-2.185-.494-.364-1.179 1.601-.989-.728 1.123-1.525-.484-.357L.352 2.85l-1.094-.806L.495.364Z" style="fill:none;stroke:#444141;stroke-width:.25;stroke-linecap:butt;stroke-linejoin:miter;stroke-miterlimit:10;stroke-dasharray:none;stroke-opacity:1" transform="translate(328.281 1000.678)"/><path d="m0 0 1.655-2.248.478.352L.896-.215l.008.006 1.102.811.006-.008L3.129-.923l.469.345L2.475.947l.007.006.997.734.007-.008L4.658.086l.479.352L3.54 2.606Zm1.65-2.276-.005.008L-.028.004l.007.006 3.566 2.625.006-.009L5.165.434 5.157.428l-.503-.37-.006.008-1.172 1.592-.973-.716L3.626-.583l-.009-.005-.493-.364-.006.008L2.002.573.924-.22 2.161-1.9l-.008-.006Z" style="fill:#444141;fill-opacity:1;fill-rule:nonzero;stroke:none" transform="translate(326.629 1002.94)"/><path d="m0 0 1.655-2.248.478.352L.896-.215l.008.006 1.102.811.006-.008L3.129-.923l.469.345L2.475.947l.007.006.997.734.007-.008L4.658.086l.479.352L3.54 2.606Zm1.65-2.276-.005.008L-.028.004l.007.006 3.566 2.625.006-.009L5.165.434 5.157.428l-.503-.37-.006.008-1.172 1.592-.973-.716L3.626-.583l-.009-.005-.493-.364-.006.008L2.002.573.924-.22 2.161-1.9l-.008-.006Z" style="fill:none;stroke:#444141;stroke-width:.25;stroke-linecap:butt;stroke-linejoin:miter;stroke-miterlimit:10;stroke-dasharray:none;stroke-opacity:1" transform="translate(326.629 1002.94)"/><path d="M0 0c.08-.195.195-.337.35-.419.147-.08.346-.068.587.03.24.098.385.227.446.391a.786.786 0 0 1-.037.546l-.265.65L-.265.65Zm1.923.759c.35-.861.111-1.464-.709-1.798-.312-.127-.595-.167-.845-.117a1.07 1.07 0 0 0-.65.423L-1.522-2.49l-.296.725L-.629-.067-.827.42-2.44-.238l-.269.661L1.38 2.09Z" style="fill:#444141;fill-opacity:1;fill-rule:nonzero;stroke:none" transform="translate(333.055 996.535)"/><path d="M0 0c.08-.195.195-.337.35-.419.147-.08.346-.068.587.03.24.098.385.227.446.391a.786.786 0 0 1-.037.546l-.265.65L-.265.65Zm1.923.759c.35-.861.111-1.464-.709-1.798-.312-.127-.595-.167-.845-.117a1.07 1.07 0 0 0-.65.423L-1.522-2.49l-.296.725L-.629-.067-.827.42-2.44-.238l-.269.661L1.38 2.09Z" style="fill:none;stroke:#444141;stroke-width:.25;stroke-linecap:butt;stroke-linejoin:miter;stroke-miterlimit:10;stroke-dasharray:none;stroke-opacity:1" transform="translate(333.055 996.535)"/><path d="M0 0c.08-.195.195-.335.345-.415.143-.077.338-.066.578.032.236.096.381.222.44.384a.774.774 0 0 1-.037.54l-.261.64L-.261.64Zm.563-.486a.471.471 0 0 0-.228.054.795.795 0 0 0-.354.424l-.268.659.009.004 1.354.552.004-.009.265-.65a.799.799 0 0 0 .038-.553c-.063-.169-.21-.298-.452-.397a.99.99 0 0 0-.368-.084M-1.816-1.77l.286-.703L-.291-.72l.009-.011c.175-.229.386-.367.643-.419.247-.05.53-.01.839.116.814.332 1.051.932.703 1.785l-.539 1.322-4.069-1.66.261-.641L-.832.43l.004-.01.201-.492-.004-.005zm.281-.745-.007.017-.298.731.004.004L-.65-.07l-.193.473-1.613-.658-.004.01-.272.67.009.003L1.376 2.1l.004-.01.543-1.331c.351-.865.111-1.475-.715-1.812-.313-.128-.601-.168-.851-.117a1.09 1.09 0 0 0-.647.415Z" style="fill:#444141;fill-opacity:1;fill-rule:nonzero;stroke:none" transform="translate(333.065 996.54)"/><path d="M0 0c.08-.195.195-.335.345-.415.143-.077.338-.066.578.032.236.096.381.222.44.384a.774.774 0 0 1-.037.54l-.261.64L-.261.64Zm.563-.486a.471.471 0 0 0-.228.054.795.795 0 0 0-.354.424l-.268.659.009.004 1.354.552.004-.009.265-.65a.799.799 0 0 0 .038-.553c-.063-.169-.21-.298-.452-.397a.99.99 0 0 0-.368-.084ZM-1.816-1.77l.286-.703L-.291-.72l.009-.011c.175-.229.386-.367.643-.419.247-.05.53-.01.839.116.814.332 1.051.932.703 1.785l-.539 1.322-4.069-1.66.261-.641L-.832.43l.004-.01.201-.492-.004-.005zm.281-.745-.007.017-.298.731.004.004L-.65-.07l-.193.473-1.613-.658-.004.01-.272.67.009.003L1.376 2.1l.004-.01.543-1.331c.351-.865.111-1.475-.715-1.812-.313-.128-.601-.168-.851-.117a1.09 1.09 0 0 0-.647.415Z" style="fill:none;stroke:#444141;stroke-width:.25;stroke-linecap:butt;stroke-linejoin:miter;stroke-miterlimit:10;stroke-dasharray:none;stroke-opacity:1" transform="translate(333.065 996.54)"/><path d="M0 0a2.158 2.158 0 0 1-.214-.564 1.225 1.225 0 0 1-.024-.518c.034-.231.114-.408.254-.541a.594.594 0 0 1 .516-.141.688.688 0 0 1 .244.083.731.731 0 0 1 .166.167c.042.077.082.166.121.266l.099.376c.043.196.094.374.159.532.06.163.139.311.235.431.088.126.198.225.33.304a1.1 1.1 0 0 0 .436.154c.187.028.356.018.513-.035A.956.956 0 0 0 3.23.26c.114-.114.206-.254.286-.425.072-.167.125-.359.156-.567.032-.22.023-.44-.022-.66a2.685 2.685 0 0 0-.213-.605l-.569.251c.088.173.153.337.196.485.037.159.043.308.021.458-.037.249-.117.426-.239.526a.514.514 0 0 1-.412.122.537.537 0 0 1-.254-.097.535.535 0 0 1-.175-.192.954.954 0 0 1-.128-.297 2.717 2.717 0 0 1-.108-.395 4.34 4.34 0 0 0-.16-.532 1.973 1.973 0 0 0-.226-.4 1.26 1.26 0 0 0-.323-.273 1.37 1.37 0 0 0-.439-.137 1.298 1.298 0 0 0-.492.02 1.21 1.21 0 0 0-.434.226 1.315 1.315 0 0 0-.338.422 2.183 2.183 0 0 0-.19.633A2.076 2.076 0 0 0-.571.228z" style="fill:#444141;fill-opacity:1;fill-rule:nonzero;stroke:none" transform="translate(333.41 990.375)"/><path d="M0 0a2.158 2.158 0 0 1-.214-.564 1.225 1.225 0 0 1-.024-.518c.034-.231.114-.408.254-.541a.594.594 0 0 1 .516-.141.688.688 0 0 1 .244.083.731.731 0 0 1 .166.167c.042.077.082.166.121.266l.099.376c.043.196.094.374.159.532.06.163.139.311.235.431.088.126.198.225.33.304a1.1 1.1 0 0 0 .436.154c.187.028.356.018.513-.035A.956.956 0 0 0 3.23.26c.114-.114.206-.254.286-.425.072-.167.125-.359.156-.567.032-.22.023-.44-.022-.66a2.685 2.685 0 0 0-.213-.605l-.569.251c.088.173.153.337.196.485.037.159.043.308.021.458-.037.249-.117.426-.239.526a.514.514 0 0 1-.412.122.537.537 0 0 1-.254-.097.535.535 0 0 1-.175-.192.954.954 0 0 1-.128-.297 2.717 2.717 0 0 1-.108-.395 4.34 4.34 0 0 0-.16-.532 1.973 1.973 0 0 0-.226-.4 1.26 1.26 0 0 0-.323-.273 1.37 1.37 0 0 0-.439-.137 1.298 1.298 0 0 0-.492.02 1.21 1.21 0 0 0-.434.226 1.315 1.315 0 0 0-.338.422 2.183 2.183 0 0 0-.19.633A2.076 2.076 0 0 0-.571.228z" style="fill:none;stroke:#444141;stroke-width:.25;stroke-linecap:butt;stroke-linejoin:miter;stroke-miterlimit:10;stroke-dasharray:none;stroke-opacity:1" transform="translate(333.41 990.375)"/><path d="M0 0a2.09 2.09 0 0 1-.253-.69 2.195 2.195 0 0 1-.002-.701c.034-.228.099-.446.189-.63.09-.173.2-.31.335-.419.127-.103.268-.177.43-.223a1.385 1.385 0 0 1 .924.115c.119.071.23.165.319.271.081.108.157.242.225.398.054.139.104.308.159.53.038.176.071.298.109.396a.962.962 0 0 0 .129.299.54.54 0 0 0 .177.195.539.539 0 0 0 .258.098.527.527 0 0 0 .42-.123c.124-.101.206-.281.244-.533.023-.149.015-.3-.021-.462a2.874 2.874 0 0 0-.193-.477L4-2.199c.091.187.159.381.208.594.046.222.053.443.021.656a2.26 2.26 0 0 1-.156.565c-.08.173-.173.311-.282.421a.931.931 0 0 1-.393.252 1.07 1.07 0 0 1-.506.035 1.1 1.1 0 0 1-.433-.153 1.064 1.064 0 0 1-.328-.3 1.55 1.55 0 0 1-.233-.43 3.076 3.076 0 0 1-.159-.53l-.098-.376a2.13 2.13 0 0 0-.122-.269.735.735 0 0 0-.169-.17.694.694 0 0 0-.249-.086c-.211-.031-.388.017-.525.144-.138.131-.222.31-.257.548-.028.185-.02.356.024.522.033.162.103.349.21.555zm.995-2.718c-.1 0-.2.011-.302.035a1.2 1.2 0 0 0-.437.227 1.32 1.32 0 0 0-.34.426 2.197 2.197 0 0 0-.191.636c-.037.245-.037.483.002.707.037.229.124.466.26.705l.004.007.59-.235-.005-.01a2.197 2.197 0 0 1-.213-.561 1.241 1.241 0 0 1-.024-.514c.035-.233.117-.408.251-.536a.588.588 0 0 1 .508-.139.663.663 0 0 1 .24.083c.058.04.108.091.163.164.042.077.082.166.12.264l.099.375c.046.211.098.386.16.533.059.166.139.312.234.434.088.123.197.223.333.305.121.078.269.13.441.156.191.029.361.017.517-.036a.949.949 0 0 0 .401-.257c.111-.112.205-.251.286-.427a2.3 2.3 0 0 0 .157-.57 1.926 1.926 0 0 0-.02-.663 2.737 2.737 0 0 0-.215-.608l-.005-.009-.587.26.005.01c.084.166.15.329.195.482.035.159.042.307.021.454-.038.247-.117.422-.237.52a.493.493 0 0 1-.404.119.516.516 0 0 1-.249-.095.507.507 0 0 1-.171-.189.941.941 0 0 1-.128-.294 2.9 2.9 0 0 1-.108-.394 4.702 4.702 0 0 0-.159-.534 2.127 2.127 0 0 0-.228-.403 1.282 1.282 0 0 0-.326-.275 1.419 1.419 0 0 0-.638-.153" style="fill:#444141;fill-opacity:1;fill-rule:nonzero;stroke:none" transform="translate(332.843 990.59)"/><path d="M0 0a2.09 2.09 0 0 1-.253-.69 2.195 2.195 0 0 1-.002-.701c.034-.228.099-.446.189-.63.09-.173.2-.31.335-.419.127-.103.268-.177.43-.223a1.385 1.385 0 0 1 .924.115c.119.071.23.165.319.271.081.108.157.242.225.398.054.139.104.308.159.53.038.176.071.298.109.396a.962.962 0 0 0 .129.299.54.54 0 0 0 .177.195.539.539 0 0 0 .258.098.527.527 0 0 0 .42-.123c.124-.101.206-.281.244-.533.023-.149.015-.3-.021-.462a2.874 2.874 0 0 0-.193-.477L4-2.199c.091.187.159.381.208.594.046.222.053.443.021.656a2.26 2.26 0 0 1-.156.565c-.08.173-.173.311-.282.421a.931.931 0 0 1-.393.252 1.07 1.07 0 0 1-.506.035 1.1 1.1 0 0 1-.433-.153 1.064 1.064 0 0 1-.328-.3 1.55 1.55 0 0 1-.233-.43 3.076 3.076 0 0 1-.159-.53l-.098-.376a2.13 2.13 0 0 0-.122-.269.735.735 0 0 0-.169-.17.694.694 0 0 0-.249-.086c-.211-.031-.388.017-.525.144-.138.131-.222.31-.257.548-.028.185-.02.356.024.522.033.162.103.349.21.555zm.995-2.718c-.1 0-.2.011-.302.035a1.2 1.2 0 0 0-.437.227 1.32 1.32 0 0 0-.34.426 2.197 2.197 0 0 0-.191.636c-.037.245-.037.483.002.707.037.229.124.466.26.705l.004.007.59-.235-.005-.01a2.197 2.197 0 0 1-.213-.561 1.241 1.241 0 0 1-.024-.514c.035-.233.117-.408.251-.536a.588.588 0 0 1 .508-.139.663.663 0 0 1 .24.083c.058.04.108.091.163.164.042.077.082.166.12.264l.099.375c.046.211.098.386.16.533.059.166.139.312.234.434.088.123.197.223.333.305.121.078.269.13.441.156.191.029.361.017.517-.036a.949.949 0 0 0 .401-.257c.111-.112.205-.251.286-.427a2.3 2.3 0 0 0 .157-.57 1.926 1.926 0 0 0-.02-.663 2.737 2.737 0 0 0-.215-.608l-.005-.009-.587.26.005.01c.084.166.15.329.195.482.035.159.042.307.021.454-.038.247-.117.422-.237.52a.493.493 0 0 1-.404.119.516.516 0 0 1-.249-.095.507.507 0 0 1-.171-.189.941.941 0 0 1-.128-.294 2.9 2.9 0 0 1-.108-.394 4.702 4.702 0 0 0-.159-.534 2.127 2.127 0 0 0-.228-.403 1.282 1.282 0 0 0-.326-.275 1.419 1.419 0 0 0-.638-.153Z" style="fill:none;stroke:#444141;stroke-width:.25;stroke-linecap:butt;stroke-linejoin:miter;stroke-miterlimit:10;stroke-dasharray:none;stroke-opacity:1" transform="translate(332.843 990.59)"/><path d="m0 0-4.408.246.04.718L.04.718Z" style="fill:#444141;fill-opacity:1;fill-rule:nonzero;stroke:none" transform="translate(337.324 982.62)"/><path d="m0 0-4.408.246.04.718L.04.718Z" style="fill:none;stroke:#444141;stroke-width:.25;stroke-linecap:butt;stroke-linejoin:miter;stroke-miterlimit:10;stroke-dasharray:none;stroke-opacity:1" transform="translate(337.324 982.62)"/><path d="m0 0 4.388-.245.039.697L.039.697Zm4.406-.267-.01.001-4.418.247.001.01.041.728.009-.001L4.448.471l-.001-.01Z" style="fill:#444141;fill-opacity:1;fill-rule:nonzero;stroke:none" transform="translate(332.927 982.875)"/><path d="m0 0 4.388-.245.039.697L.039.697Zm4.406-.267-.01.001-4.418.247.001.01.041.728.009-.001L4.448.471l-.001-.01Z" style="fill:none;stroke:#444141;stroke-width:.25;stroke-linecap:butt;stroke-linejoin:miter;stroke-miterlimit:10;stroke-dasharray:none;stroke-opacity:1" transform="translate(332.927 982.875)"/><path d="m0 0 .32 1.19-3.673.988.187.694 3.673-.987.309 1.151.593-.16L.593-.16Z" style="fill:#444141;fill-opacity:1;fill-rule:nonzero;stroke:none" transform="translate(335.263 974.874)"/><path d="m0 0 .32 1.19-3.673.988.187.694 3.673-.987.309 1.151.593-.16L.593-.16Z" style="fill:none;stroke:#444141;stroke-width:.25;stroke-linecap:butt;stroke-linejoin:miter;stroke-miterlimit:10;stroke-dasharray:none;stroke-opacity:1" transform="translate(335.263 974.874)"/><path d="m0 0 .573-.154.812 3.016-.573.154-.311-1.151-.01.002-3.663.985-.181-.674L.32 1.19l-.003-.009Zm.588-.179-.01.002-.603.162.003.011.317 1.18-3.673.988.003.009.189.704.01-.002L.487 1.89l.31 1.151.01-.003.602-.162-.003-.01Z" style="fill:#444141;fill-opacity:1;fill-rule:nonzero;stroke:none" transform="translate(335.275 974.882)"/><path d="m0 0 .573-.154.812 3.016-.573.154-.311-1.151-.01.002-3.663.985-.181-.674L.32 1.19l-.003-.009Zm.588-.179-.01.002-.603.162.003.011.317 1.18-3.673.988.003.009.189.704.01-.002L.487 1.89l.31 1.151.01-.003.602-.162-.003-.01Z" style="fill:none;stroke:#444141;stroke-width:.25;stroke-linecap:butt;stroke-linejoin:miter;stroke-miterlimit:10;stroke-dasharray:none;stroke-opacity:1" transform="translate(335.275 974.882)"/><path d="m0 0 1.111-1.884-.373-.669L-.746.008l-1.633.911.35.628L-.4.639l2.955.064-.379-.679Z" style="fill:#444141;fill-opacity:1;fill-rule:nonzero;stroke:none" transform="translate(331.572 969.668)"/><path d="m0 0 1.111-1.884-.373-.669L-.746.008l-1.633.911.35.628L-.4.639l2.955.064-.379-.679Z" style="fill:none;stroke:#444141;stroke-width:.25;stroke-linecap:butt;stroke-linejoin:miter;stroke-miterlimit:10;stroke-dasharray:none;stroke-opacity:1" transform="translate(331.572 969.668)"/><path d="m0 0 1.627-.908.001-.002 1.476-2.545.361.647L2.348-.913h.017l2.17.024.367.658-2.94-.064-.002.001L.34.61Zm3.104-3.497-.009.016L1.612-.923l-1.64.915.36.646.009-.005 1.626-.907 2.97.064-.008-.016-.382-.683h-.006L2.383-.933l1.105-1.874-.003-.006Z" style="fill:#444141;fill-opacity:1;fill-rule:nonzero;stroke:none" transform="translate(329.207 970.591)"/><path d="m0 0 1.627-.908.001-.002 1.476-2.545.361.647L2.348-.913h.017l2.17.024.367.658-2.94-.064-.002.001L.34.61Zm3.104-3.497-.009.016L1.612-.923l-1.64.915.36.646.009-.005 1.626-.907 2.97.064-.008-.016-.382-.683h-.006L2.383-.933l1.105-1.874-.003-.006Z" style="fill:none;stroke:#444141;stroke-width:.25;stroke-linecap:butt;stroke-linejoin:miter;stroke-miterlimit:10;stroke-dasharray:none;stroke-opacity:1" transform="translate(329.207 970.591)"/><path d="m0 0 1.729.998a27.01 27.01 0 0 1-.728 1.273l-1.728-.998C-.473.856-.23.432 0 0" style="fill:#656263;fill-opacity:1;fill-rule:nonzero;stroke:none" transform="translate(326.628 996.436)"/><path d="M0 0c-.214.125-.427.253-.638.384l-1.007-1.711c.196-.122.389-.249.587-.366.223-.131.448-.258.675-.382L.629-.355A21.57 21.57 0 0 0 0 0" style="fill:#656263;fill-opacity:1;fill-rule:nonzero;stroke:none" transform="translate(291.49 962.652)"/><path d="m0 0-1.729-.998c.236-.429.486-.849.744-1.264l1.728.998C.484-.851.235-.43 0 0" style="fill:#656263;fill-opacity:1;fill-rule:nonzero;stroke:none" transform="translate(282.028 972.38)"/><path d="M0 0c-.246 0-.489.012-.733.019v-1.995c.244-.006.487-.019.733-.019s.488.013.733.019V.019C.489.012.246 0 0 0" style="fill:#656263;fill-opacity:1;fill-rule:nonzero;stroke:none" transform="translate(304.258 959.198)"/><path d="m0 0 1.728-.998c.258.415.507.835.744 1.264l-1.729.998C.508.834.259.414 0 0" style="fill:#656263;fill-opacity:1;fill-rule:nonzero;stroke:none" transform="translate(325.744 971.116)"/><path d="M0 0a22.97 22.97 0 0 0-.629-.355l1.012-1.72c.226.124.452.251.675.382.198.117.39.244.587.365L.638.383C.427.253.214.125 0 0" style="fill:#656263;fill-opacity:1;fill-rule:nonzero;stroke:none" transform="translate(317.025 962.652)"/><path d="M0 0c-.008.265-.021.529-.021.796 0 .188.009.374.015.56h-1.995c-.006-.187-.014-.372-.014-.56 0-.267.013-.531.02-.796.001-.037.005-.073.006-.11H.006C.004-.073.001-.037 0 0" style="fill:#656263;fill-opacity:1;fill-rule:nonzero;stroke:none" transform="translate(278.936 983.744)"/><path d="M0 0c.245-.145.487-.292.728-.444l1.007 1.712c-.225.142-.448.289-.678.424-.191.114-.385.222-.578.33L-.534.303C-.355.204-.177.104 0 0" style="fill:#656263;fill-opacity:1;fill-rule:nonzero;stroke:none" transform="translate(317.083 1006.394)"/><path d="M0 0c.246 0 .489-.012.733-.019v1.995c-.245.006-.487.019-.733.019s-.489-.013-.733-.019V-.019C-.489-.012-.246 0 0 0" style="fill:#656263;fill-opacity:1;fill-rule:nonzero;stroke:none" transform="translate(304.258 1009.882)"/><path d="M0 0c.176.104.355.204.534.303L-.479 2.022c-.193-.108-.387-.216-.578-.33-.23-.135-.453-.282-.679-.424L-.728-.444c.24.152.483.3.728.444" style="fill:#656263;fill-opacity:1;fill-rule:nonzero;stroke:none" transform="translate(291.433 1006.394)"/><path d="M0 0c0-.267-.012-.531-.02-.796-.001-.037-.004-.073-.006-.11h1.995c.001.037.005.073.006.11.007.265.02.529.02.796 0 .188-.009.374-.015.561H-.014C-.008.374 0 .188 0 0" style="fill:#656263;fill-opacity:1;fill-rule:nonzero;stroke:none" transform="translate(329.6 984.54)"/><path d="m0 0-1.728.997a27.492 27.492 0 0 1-.728-1.272l1.729-.998C-.497-.841-.254-.417 0 0" style="fill:#656263;fill-opacity:1;fill-rule:nonzero;stroke:none" transform="translate(282.614 997.71)"/><path d="M0 0c.17.113.342.223.516.333L-.492 2.044c-.188-.117-.38-.23-.565-.353a27.442 27.442 0 0 1-8.245-8.602l1.727-.997A25.463 25.463 0 0 0 0 0" style="fill:#9c9a9b;fill-opacity:1;fill-rule:nonzero;stroke:none" transform="translate(290.189 1005.618)"/><path d="m0 0 1.013 1.72a27.189 27.189 0 0 1-12.571 3.441V3.166A25.19 25.19 0 0 0 0 0" style="fill:#9c9a9b;fill-opacity:1;fill-rule:nonzero;stroke:none" transform="translate(316.549 1006.697)"/><path d="M0 0c.221-.436.431-.877.626-1.326a25.242 25.242 0 0 0 2.08-9.426c.001-.037.001-.074.003-.11h1.994l-.003.11A27.203 27.203 0 0 1 1.805.852c-.105.208-.215.414-.326.62L-.249.474C-.165.316-.08.159 0 0" style="fill:#9c9a9b;fill-opacity:1;fill-rule:nonzero;stroke:none" transform="translate(326.877 995.963)"/><path d="M0 0v1.995a27.178 27.178 0 0 1-12.57-3.441l1.012-1.72A25.19 25.19 0 0 0 0 0" style="fill:#9c9a9b;fill-opacity:1;fill-rule:nonzero;stroke:none" transform="translate(303.524 1009.863)"/><path d="M0 0a25.463 25.463 0 0 0 7.575-7.908l1.728.997a27.456 27.456 0 0 1-8.246 8.602c-.185.123-.376.236-.565.353L-.516.333C-.342.223-.17.113 0 0" style="fill:#9c9a9b;fill-opacity:1;fill-rule:nonzero;stroke:none" transform="translate(318.326 1005.618)"/><path d="M0 0c-.2-.133-.403-.263-.607-.39L.399-2.101c.22.136.443.267.658.41a27.46 27.46 0 0 1 8.144 8.383l-1.727.998A25.451 25.451 0 0 0 0 0" style="fill:#9c9a9b;fill-opacity:1;fill-rule:nonzero;stroke:none" transform="translate(318.27 963.426)"/><path d="M0 0a25.214 25.214 0 0 0 2.08 9.426c.195.449.405.891.626 1.326.08.16.165.316.249.474l-1.729.998a25.988 25.988 0 0 1-.95-1.947A27.204 27.204 0 0 1-1.995 0l-.003-.11h1.995L0 0" style="fill:#9c9a9b;fill-opacity:1;fill-rule:nonzero;stroke:none" transform="translate(278.933 985.21)"/><path d="M0 0v-1.995a27.183 27.183 0 0 1 12.417 3.356l-1.012 1.72A25.201 25.201 0 0 0 0 0" style="fill:#9c9a9b;fill-opacity:1;fill-rule:nonzero;stroke:none" transform="translate(304.991 959.216)"/><path d="M0 0a25.474 25.474 0 0 0-7.474 7.69l-1.727-.998a27.46 27.46 0 0 1 8.144-8.383c.216-.143.438-.274.658-.41L.608-.39C.403-.263.2-.133 0 0" style="fill:#9c9a9b;fill-opacity:1;fill-rule:nonzero;stroke:none" transform="translate(290.245 963.426)"/><path d="m0 0-1.012-1.72a27.183 27.183 0 0 1 12.417-3.356v1.995A25.201 25.201 0 0 0 0 0" style="fill:#9c9a9b;fill-opacity:1;fill-rule:nonzero;stroke:none" transform="translate(292.12 962.297)"/><path d="M0 0a25.223 25.223 0 0 0-2.748 10.618h-1.995A27.22 27.22 0 0 1-1.805-.852c.135-.263.273-.524.415-.782l1.729.998C.224-.426.11-.214 0 0" style="fill:#9c9a9b;fill-opacity:1;fill-rule:nonzero;stroke:none" transform="translate(281.69 973.016)"/><path d="M0 0a27.205 27.205 0 0 1 2.308 10.146H.312A25.203 25.203 0 0 0-2.435-.473c-.11-.214-.223-.425-.338-.636l1.728-.998A27.82 27.82 0 0 1 0 0" style="fill:#9c9a9b;fill-opacity:1;fill-rule:nonzero;stroke:none" transform="translate(329.26 973.489)"/></g><path d="M288.164 1017.185a1.933 1.933 0 0 1 .257-2.427c.057-.057 5.451-5.504 7.415-14.041-6.99.048-11.815.119-11.862.119h-.078a1.921 1.921 0 0 1-1.576-.823 1.91 1.91 0 0 1-.184-1.872c.14-.321 3.559-7.908 12.927-11.28.095-.034.195-.063.291-.096-3.578-11.044-15.008-17.831-15.123-17.898a1.93 1.93 0 0 1-.902-2.145c.215-.828.942-1.408 1.823-1.444.607-.012 1.21-.018 1.807-.018 10.475 0 19.285 1.874 22.166 2.563 4.628-4.227 11.899-7.667 12.21-7.813.233-.11.482-.171.741-.181l.078-.002c.287 0 .575.066.834.19.524.252.902.72 1.037 1.284.126.527 3.031 13.031-1.547 26.991 7.243 3.718 9.747 9.616 9.857 9.882a1.923 1.923 0 0 1-1.708 2.652l-.044.001h-.151a947.676 947.676 0 0 0-14.232-.142c-8.574 11.806-21.162 17.006-21.706 17.228a1.924 1.924 0 0 1-.644.138h-.075c-.65 0-1.251-.323-1.611-.866m11.647-16.49c-.652 3.328-1.828 6.564-3.518 9.655 3.367-2.215 7.46-5.422 11.029-9.674-2.615.001-5.143.01-7.511.019m-3.73-10.097c-4.222 1.586-6.948 4.122-8.61 6.238 1.676-.034 5.006-.087 8.983-.126a27.074 27.074 0 0 0-.224-6.164c-.049.018-.1.033-.149.052m19.925 3.794a41.693 41.693 0 0 1-1.229 2.304c3.559.027 6.527.063 8.165.084-1.23-1.524-3.107-3.33-5.84-4.813a45.132 45.132 0 0 1-1.096 2.425m-12.386-5.266a26.114 26.114 0 0 0-3.655.41c.396 2.382.517 4.78.366 7.143 1.526-.01 3.094-.016 4.659-.017l.962-.001c1.46 0 2.916.003 4.333.009l.089-.135a37.134 37.134 0 0 0 2.178-3.835c.343-.698.671-1.436 1.013-2.266-.045-.015-.089-.031-.134-.045-2.621-.853-5.536-1.286-8.675-1.286-.387.001-.764.009-1.136.023m1.149-3.87c3.577 0 6.918.495 9.929 1.473.066.021.131.046.198.069 2.982-9.379 2.358-18.133 1.808-22.148-2.702 1.445-6.974 3.955-9.652 6.655a1.92 1.92 0 0 1-1.289.566l-.077.002c-.172 0-.342-.022-.503-.067-.081-.022-7.834-2.081-17.893-2.586 3.854 3.214 9.389 8.904 11.793 16.557a29.826 29.826 0 0 1 4.342-.495c.428-.017.874-.026 1.327-.026z" style="fill:url(#g);stroke:none" transform="matrix(2.62413 0 0 -2.62413 -699.862 2682.357)"/><g clip-path="url(#h)" transform="matrix(2.62413 0 0 -2.62413 -699.862 2682.357)"><path d="m0 0-.013.015a2.558 2.558 0 0 1-.56.456 5.717 5.717 0 0 1-.698.299s-1.82.464-2.062.557a1.141 1.141 0 0 0-.403.215.435.435 0 0 0-.176.249c-.041.08-.061.214-.061.411 0 .277.079.477.242.608.168.132.668.202 1.103.202.511 0 1.06-.063 1.274-.186.186-.116.273-.297.273-.571v-.336H.402v.389c0 .301-.052.596-.159.884-.119.259-.293.48-.536.682a2.871 2.871 0 0 1-.895.393c-.358.087-.969.132-1.461.132-.46 0-1.056-.055-1.383-.16-.362-.122-.622-.265-.818-.448a1.67 1.67 0 0 1-.465-.716 2.654 2.654 0 0 1-.141-.873c0-.352.037-.622.116-.845.076-.252.19-.456.34-.615.147-.18.339-.327.584-.449.256-.132.5-.233.746-.308 0 0 1.899-.538 2.054-.607.168-.087.301-.173.38-.243a.702.702 0 0 0 .168-.246c.033-.1.051-.22.051-.347a1.24 1.24 0 0 0-.054-.388.452.452 0 0 0-.156-.24.808.808 0 0 0-.374-.169c-.17-.045-.583-.067-.888-.067-.331 0-.782.02-.991.061-.199.027-.34.078-.445.162a.47.47 0 0 0-.195.291c-.045.103-.067.265-.067.507v.378h-1.482v-.409c0-.331.036-.607.113-.864.075-.307.236-.578.477-.804.216-.213.525-.391.927-.531.388-.115 1.074-.177 1.641-.177.485 0 1.11.048 1.509.148.353.117.644.269.867.456.213.186.367.422.473.723.084.26.129.561.129.87 0 .288-.04.576-.119.863A2.262 2.262 0 0 1 0 0" style="fill:#1e5f34;fill-opacity:1;fill-rule:nonzero;stroke:none" transform="translate(305.587 978.32)"/><path d="M0 0v.07a2.41 2.41 0 0 1-2.41 2.41h-1.223A2.41 2.41 0 0 1-6.043.07v-3.287a2.41 2.41 0 0 1 2.41-2.41h1.223A2.41 2.41 0 0 1 0-3.217v2.27h-1.508v-.01h-1.444v-1.387h1.444v-.944a.988.988 0 0 0-.988-.988h-1.051a.988.988 0 0 0-.988.988V.141c0 .546.442.988.988.988h1.05A.988.988 0 0 0-1.508.14V0Z" style="fill:#1e5f34;fill-opacity:1;fill-rule:nonzero;stroke:none" transform="translate(313.474 980.239)"/><path d="M0 0c-.462.7-.936 1.386-1.43 2.042-.157.207-.317.407-.477.61-3.322-.002-6.535.007-9.488.021.031-.171.064-.34.091-.513.113-.699.196-1.417.259-2.148A942.524 942.524 0 0 1 0 0" style="fill:#ba151b;fill-opacity:1;fill-rule:nonzero;stroke:none" transform="translate(310.644 997.348)"/><path d="M0 0c.029.149.052.295.075.442-.315.103-.628.207-.928.32-5.077 1.909-8.066 5.18-9.592 7.384l-.14.202.246-.012c.338-.017 4.897-.104 10.713-.157a28.382 28.382 0 0 1-.305 2.193c-.028.156-.061.308-.091.461-7.472.047-12.714.125-12.727.125a1.24 1.24 0 0 1-1.073-.531 1.242 1.242 0 0 1-.12-1.214c.169-.384 3.466-7.651 12.538-10.915.293-.106.597-.203.903-.299.02.067.043.134.063.202C-.272-1.209-.12-.612 0 0" style="fill:#ba151b;fill-opacity:1;fill-rule:nonzero;stroke:none" transform="translate(296.696 989.202)"/><path d="M0 0c-.395.001-.78.009-1.161.024a26.136 26.136 0 0 0-4.402.549C-5.578.48-5.591.388-5.609.294a25.776 25.776 0 0 0-.498-2.042l-.035-.117a28.556 28.556 0 0 1 4.84-.603c.426-.017.861-.026 1.301-.026 3.803-.002 7.021.558 9.736 1.439.286.093.559.194.833.293-.22.66-.457 1.321-.714 1.985-.049.127-.101.255-.152.381a22.742 22.742 0 0 0-.814-.285C6.413.515 3.479-.001 0 0" style="fill:#ba151b;fill-opacity:1;fill-rule:nonzero;stroke:none" transform="translate(304.754 988.426)"/><path d="M0 0c-.227.307-.575.49-.959.505-.052.003-.104-.001-.157-.002A970.22 970.22 0 0 0-15.707.36c.143-.2.287-.397.428-.601a43.2 43.2 0 0 0 1.318-2.04c6.064.04 10.705.111 10.705.111l-.146-.209c-1.299-1.838-3.629-4.362-7.401-6.244l.188-.466c.251-.644.483-1.285.703-1.923C-2.512-7.444.003-1.568.148-1.214.313-.813.256-.348 0 0" style="fill:#ba151b;fill-opacity:1;fill-rule:nonzero;stroke:none" transform="translate(327.56 999.646)"/><path d="M0 0c.821-.008 1.667-.015 2.529-.021-.063.731-.146 1.45-.258 2.148-.028.173-.061.342-.091.513-.884.005-1.744.009-2.576.015.03-.154.063-.306.091-.462C-.176 1.482-.076.748 0 0" style="fill:#1e5f34;fill-opacity:1;fill-rule:nonzero;stroke:none" transform="translate(297.07 997.38)"/><path d="M0 0c.494-.655.968-1.341 1.43-2.042 1.011.005 2.001.01 2.954.017A42.967 42.967 0 0 1 3.065.016c-.14.203-.285.401-.427.601A815.001 815.001 0 0 0-.478.611C-.317.408-.157.208 0 0" style="fill:#1e5f34;fill-opacity:1;fill-rule:nonzero;stroke:none" transform="translate(309.215 999.39)"/><path d="M0 0a22.544 22.544 0 0 0-2.301-.992c.051-.127.103-.255.152-.382a44.75 44.75 0 0 0 .714-1.984c.525.189 1.037.386 1.521.598.275.12.542.245.805.371C.671-1.75.438-1.11.187-.466.126-.311.062-.155 0 0" style="fill:#ba151b;fill-opacity:1;fill-rule:nonzero;stroke:none" transform="translate(316.757 991.023)"/><path d="m0 0 .035.117C.224.785.396 1.463.533 2.16c.018.093.031.186.046.278-.32.067-.64.136-.947.214-.51.129-.997.276-1.472.431-.024-.146-.046-.293-.076-.442A22.91 22.91 0 0 0-2.354.842C-2.373.774-2.396.708-2.417.64A24.665 24.665 0 0 1 0 0" style="fill:#ba151b;fill-opacity:1;fill-rule:nonzero;stroke:none" transform="translate(298.612 986.56)"/><path d="M0 0a38.214 38.214 0 0 0 2.216-3.903c.484-.99.905-1.979 1.297-2.967a23.16 23.16 0 0 1 2.3.992 45.078 45.078 0 0 1-1.358 3.072A40.927 40.927 0 0 1 2.924.03c-.088.147-.18.288-.269.434C1.702.457.713.452-.299.447-.2.297-.098.151 0 0" style="fill:#1e5f34;fill-opacity:1;fill-rule:nonzero;stroke:none" transform="translate(310.943 996.9)"/><path d="M0 0c-.01.119-.023.235-.034.354-.863.005-1.709.012-2.529.02.01-.104.025-.205.035-.31a27.688 27.688 0 0 0-.334-7.426c.475-.156.962-.303 1.472-.432.307-.078.627-.146.947-.214l.019.117A30.64 30.64 0 0 1 0 0" style="fill:#1e5f34;fill-opacity:1;fill-rule:nonzero;stroke:none" transform="translate(299.634 997.007)"/><path d="m0 0 .166.168c4.263-2.566 9.63-6.543 14.016-12.139l3.115.006C8.854-.145-3.706 5.065-4.315 5.312a1.258 1.258 0 0 1-1.511-.47 1.253 1.253 0 0 1 .167-1.573c.08-.079 5.941-5.986 7.778-15.205l2.576-.014C3.822-7.05 1.882-2.983 0 0" style="fill:#1e5f34;fill-opacity:1;fill-rule:nonzero;stroke:none" transform="translate(294.555 1011.971)"/><path d="M0 0c.044-.13.091-.26.133-.389 3.284-10.106 2.43-19.503 1.804-23.503l-.026-.166-.149.078C-.885-22.602-5.77-19.84-8.75-16.836a1.244 1.244 0 0 1-1.213.325c-.086-.024-8.777-2.335-19.729-2.678l-.374-.012.296.229c3.932 3.034 10.563 9.224 13.06 17.868-.315.068-.627.138-.932.214-.512.129-1.004.274-1.485.426-3.433-11.738-15.498-18.842-15.625-18.917a1.25 1.25 0 0 1-.586-1.39 1.25 1.25 0 0 1 1.182-.937c11.549-.241 21.357 1.927 24.088 2.596l.063.015.048-.044c4.526-4.238 11.945-7.753 12.259-7.9a1.256 1.256 0 0 1 1.07.005c.34.163.585.467.672.833.142.589 2.994 12.91-1.557 26.705-.051.155-.108.312-.162.468A22.144 22.144 0 0 0 0 0" style="fill:#1e5f34;fill-opacity:1;fill-rule:nonzero;stroke:none" transform="translate(315.322 987.664)"/></g></svg>