<svg xmlns="http://www.w3.org/2000/svg" width="216.83688mm" height="216.83688mm" viewBox="0 0 216.83688 216.83688"><path d="M435.349 273.016c0-43.007-34.87-77.88-77.884-77.88-43.01 0-77.88 34.873-77.88 77.88 0 43.014 34.87 77.884 77.88 77.884 43.014 0 77.884-34.87 77.884-77.884" style="fill:#59c134;fill-opacity:1;fill-rule:nonzero;stroke:none;stroke-width:1.63347" transform="matrix(1.39209 0 0 -1.39209 -389.206 488.482)"/><path d="M411.63 273.016c0-29.91-24.248-54.158-54.165-54.158-29.913 0-54.159 24.248-54.159 54.158 0 29.915 24.246 54.164 54.16 54.164 29.916 0 54.163-24.249 54.163-54.164" style="fill:#fff;fill-opacity:1;fill-rule:nonzero;stroke:none;stroke-width:1.63347" transform="matrix(1.39209 0 0 -1.39209 -389.206 488.482)"/><path d="M360.028 278.428c.007.405.011.807.04 1.208a20.985 20.985 0 0 0 5.308 12.559l-12.605 16.313-35.167-44.67c7.701 4.13 15.44 6.99 23.314 8.624l11.853 15.053z" style="fill:#1e5cb3;fill-opacity:1;fill-rule:nonzero;stroke:none;stroke-width:1.63347" transform="matrix(1.39209 0 0 -1.39209 -389.206 488.482)"/><path d="M382.477 297.603c-10.735.75-20.038-7.346-20.788-18.08a19.468 19.468 0 0 1 .422-5.573 82.137 82.137 0 0 0 11.307-1.5 9.564 9.564 0 0 0-1.877 6.388c.369 5.294 4.957 9.283 10.251 8.915 5.286-.366 9.278-4.957 8.916-10.25a9.606 9.606 0 0 0-5.923-8.201 91.32 91.32 0 0 0 10.52-4.483 19.436 19.436 0 0 1 5.251 12c.748 10.732-7.346 20.036-18.08 20.784" style="fill:#f1511b;fill-opacity:1;fill-rule:nonzero;stroke:none;stroke-width:1.63347" transform="matrix(1.39209 0 0 -1.39209 -389.206 488.482)"/><path d="M404.733 257.45c-14.813 9.762-30.918 15.012-47.76 15.012-16.725 0-32.205-5.392-46.852-15.013z" style="fill:#59c134;fill-opacity:1;fill-rule:nonzero;stroke:none;stroke-width:1.63347" transform="matrix(1.39209 0 0 -1.39209 -389.206 488.482)"/><path d="M363.365 246.703c-.643 0-1.282-.187-1.917-.566l.534 2.9h4.49v1.599h-6.024l-1.155-6.384 1.638-.532c.15.356.404.671.77.947.357.278.777.417 1.25.417.622 0 1.131-.208 1.538-.623.436-.449.652-1.043.652-1.78 0-.735-.21-1.317-.627-1.741-.419-.427-.941-.64-1.564-.64-.62 0-1.143.23-1.563.69-.418.46-.63 1.052-.63 1.78h-1.846c0-1.051.392-1.98 1.174-2.799.806-.853 1.777-1.277 2.92-1.277 1.126 0 2.084.403 2.87 1.207.791.807 1.182 1.774 1.182 2.902a3.922 3.922 0 0 1-1.068 2.736c-.713.776-1.588 1.164-2.624 1.164m-9.333-1.284a2.151 2.151 0 0 0-1.586-.662 2.23 2.23 0 0 0-1.623.655c-.45.438-.672.972-.672 1.604 0 .634.222 1.175.672 1.624.45.447.989.673 1.623.673.609 0 1.136-.226 1.58-.673.442-.45.664-.99.664-1.624 0-.624-.219-1.155-.658-1.597m-1.586 5.552c-1.13 0-2.1-.4-2.918-1.2-.818-.801-1.215-1.758-1.19-2.876.022-1.104.401-2.019 1.136-2.734.739-.722 1.629-1.08 2.678-1.08.333 0 .623.038.88.121l-2.334-4.196h1.97l3.436 6.146c.3.54.45 1.114.45 1.725 0 1.072-.405 2.02-1.219 2.85-.81.829-1.774 1.244-2.89 1.244m16.802-.315v-1.605h2.055v-10.065h1.918v11.67zm-28.265-1.605h2.055v-10.065h1.917v11.67h-3.972z" style="fill:#656263;fill-opacity:1;fill-rule:nonzero;stroke:none;stroke-width:1.63347" transform="matrix(1.39209 0 0 -1.39209 -389.206 488.482)"/><path d="M308.928 236.353c1.2-1.617.974-3.796-.447-4.847l-.897 1.21c.87.646.954 2.002.319 2.86-.644.87-1.774 1.246-2.434.756-1.75-1.299 2.332-5.058-.133-6.884-1.19-.882-3.203-.277-4.224 1.1-1.034 1.396-.93 3.417.304 4.467l.905-1.222c-.637-.472-.737-1.72-.173-2.481.562-.758 1.624-1.132 2.25-.668 1.419 1.054-2.616 4.863.125 6.895 1.21.897 3.33.268 4.405-1.186M296.971 239.648a3.466 3.466 0 0 1 4.697-1.397c1.698.92 2.334 3.024 1.42 4.708-.912 1.687-3.02 2.304-4.72 1.385a3.47 3.47 0 0 1-1.397-4.696m7.335 3.97c1.277-2.361.393-5.302-1.98-6.586-2.338-1.262-5.312-.398-6.583 1.95-1.27 2.35-.37 5.314 1.968 6.58 2.372 1.283 5.31.428 6.595-1.943M299.784 253.421l-4.925-6.366 6.402 2.356.52-1.415-8.69-3.195-.556 1.516 4.954 6.362-6.426-2.365-.53 1.44 8.69 3.196zM298.304 259.93c.557-2.625-1.124-5.19-3.763-5.751-2.6-.549-5.208 1.125-5.761 3.737-.448 2.117.581 4.267 2.564 5.345l.3-1.421c-1.138-.828-1.806-2.174-1.497-3.635.39-1.849 2.231-3.07 4.106-2.67 1.89.398 3.084 2.288 2.699 4.11a3.464 3.464 0 0 1-3.06 2.753l.81-3.83-1.257-.268-1.126 5.32c2.893.613 5.425-1.035 5.985-3.69M296.67 273.279l.058-1.397-6.19-2.09s4.741-1.271 6.342-1.562l.057-1.424-9.133-3.186-.067 1.588 6.173 2.228-6.328 1.562-.055 1.355 6.178 2.078-6.335 1.712-.065 1.603zM289.208 281.508a3.47 3.47 0 0 1 2.997-3.876c1.916-.245 3.66 1.091 3.902 2.993.245 1.903-1.107 3.636-3.022 3.88a3.47 3.47 0 0 1-3.877-2.997m8.273-1.056c-.341-2.665-2.775-4.535-5.452-4.192-2.635.338-4.545 2.777-4.207 5.426.338 2.648 2.802 4.528 5.437 4.192 2.678-.343 4.563-2.75 4.222-5.426M299.528 291.036l-7.713-2.295 6.573-1.823-.404-1.452-8.922 2.475.433 1.557 7.736 2.275-6.597 1.83.41 1.478 8.92-2.475zM303.035 299.153c-.868-1.789-2.985-2.391-4.611-1.604l-5.425 2.625.656 1.356 5.634-2.726a1.946 1.946 0 0 1 2.604.916c.5 1.036.015 2.17-.897 2.61l-5.635 2.725.661 1.369 5.425-2.625a3.472 3.472 0 0 0 1.588-4.646M307.563 307.453l-8.048.093 5.738-3.687-.815-1.267-7.787 5.004.872 1.36 8.065-.12-5.761 3.703.83 1.29 7.786-5.006zM308.672 308.933l-7.393 5.59.906 1.202 7.398-5.592zM312.978 314.165l-.938-1.038-9.304 3.507 1.11 1.23 7.077-2.768-3.49 6.744 1.11 1.23zM315.624 316.982l-6.026 7.028 4.967 4.261.83-.965-3.825-3.282 1.66-1.934 3.728 3.202.832-.967-3.733-3.202 1.882-2.192 3.91 3.352.829-.967zM325.425 324.549c-2.43.79-5.608 1.854-5.654 1.922l1.717 1.155c.738.498.959 1.49.464 2.228a1.637 1.637 0 0 1-2.27.453l-2.057-1.384 4.46-6.622-1.25-.843-5.172 7.68 3.5 2.356a2.925 2.925 0 0 0 4.039-.799c.833-1.238.503-2.928-.56-3.827l4.204-1.362zM330.382 327.06c-1.795-.914-3.907-.33-4.709 1.246l1.343.682c.491-.963 1.818-1.27 2.77-.787.962.492 1.518 1.542 1.145 2.275-.988 1.94-5.37-1.462-6.764 1.273-.673 1.316.256 3.205 1.782 3.982 1.55.79 3.525.351 4.357-1.04l-1.355-.69c-.36.708-1.576 1.012-2.417.582-.843-.428-1.385-1.413-1.03-2.107.8-1.575 5.23 1.772 6.775-1.268.684-1.342-.288-3.327-1.897-4.147M333.74 328.885l-3.573 8.557 1.391.58 3.571-8.557zM336.593 338.502l2.55-7.567-1.428-.48-2.55 7.565-2.401-.809-.407 1.207 6.242 2.104.408-1.207zM345.884 336.087l.658-3.262-1.476-.299-.659 3.262-4.492 5.143 1.799.364 3.074-3.599 1.423 4.507 1.826.37zM370.35 332.638l-1.678.253-.709 4.956-2.126-4.527-1.724.26-1.334 8.153 1.784-.27.8-5.55 2.36 5.073 1.351-.206.743-5.54 2.438 5.06 1.795-.271zM381.575 329.188l-1.599.57.256 4.998-2.956-4.033-1.642.587.255 8.257 1.697-.608-.28-5.6 3.294 4.525 1.287-.46-.336-5.582 3.361 4.499 1.714-.611zM391.928 323.644l-1.459.867 1.21 4.858-3.676-3.393-1.498.89 1.834 8.055 1.552-.921-1.35-5.443 4.1 3.81 1.174-.7-1.4-5.413 4.162 3.772 1.561-.928zM393.808 320.543l1.113 1.443 1.332-1.026-1.114-1.442zM398.834 317.846c-1.337 1.208-1.378 3.135-.33 4.298l1.206-1.086c-.61-.676-.559-1.539.1-2.132.522-.474 1.345-.57 1.764-.129.831 1.101-2.581 3.641-.997 5.397.962 1.067 2.661.954 3.867-.132 1.293-1.166 1.298-3 .312-4.092l-1.26 1.137c.569.629.497 1.403-.026 1.877-.559.501-1.282.575-1.699.11-.617-.885 2.785-3.459 1.06-5.368-.972-1.08-2.726-1.028-3.997.12M409.246 316.92c-.884 1.023-2.491 1.101-3.592.149-1.088-.94-1.254-2.553-.37-3.576.885-1.022 2.507-1.09 3.593-.15 1.1.952 1.256 2.556.369 3.577m-5.183-4.482c-1.434 1.658-1.176 4.242.6 5.78 1.752 1.513 4.369 1.417 5.805-.24 1.424-1.649 1.174-4.289-.578-5.805-1.778-1.537-4.403-1.383-5.827.265M410.362 304.359l3.842 2.5c.924.604 1.272 1.796.69 2.69-.581.893-1.83 1.084-2.753.483l-3.846-2.5-.901 1.384 6.59 4.288.9-1.385-.682-.444c.822-.092 1.625-.536 2.217-1.443.908-1.398.428-3.324-.966-4.23l-4.191-2.727zM419.767 301.396c-.593 1.264-2.17 1.77-3.502 1.147-1.359-.636-1.988-2.157-1.395-3.423.598-1.279 2.174-1.785 3.52-1.154 1.331.624 1.968 2.164 1.377 3.43m-8.628-4.07c-1.006 2.149-.318 3.962.899 5.014l.72-1.537c-.642-.549-.889-1.495-.315-2.718.609-1.305 1.886-1.885 3.146-1.297l-.043-.02c-1.03.281-1.654.935-2.182 2.063-.841 1.795.111 4.247 2.195 5.222 2.112.989 4.57.15 5.412-1.648.462-.991.567-2.006.147-3.03l.796.371.7-1.496-6.411-3c-1.808-.845-4.121.063-5.064 2.077M417.913 285.517l-.44 1.638 4.254 2.638-5 .133-.452 1.682 6.932 4.494.467-1.741-4.763-2.96 5.595-.13.356-1.32-4.78-2.902 5.613-.2.474-1.757zM425.41 279.347c-.132 1.345-1.402 2.336-2.848 2.194-1.43-.14-2.5-1.362-2.368-2.708.132-1.345 1.417-2.334 2.848-2.194 1.45.142 2.501 1.362 2.369 2.708m-6.822-.671c-.215 2.182 1.487 4.144 3.824 4.374 2.307.227 4.388-1.364 4.603-3.546.214-2.167-1.517-4.178-3.82-4.405-2.338-.229-4.394 1.41-4.607 3.577M419.078 268.444l4.582-.168c1.102-.041 2.074.736 2.113 1.801.04 1.065-.872 1.941-1.974 1.982l-4.58.168.06 1.651 7.855-.29-.062-1.65-.813.03c.619-.55 1.02-1.376.981-2.456-.062-1.666-1.565-2.965-3.226-2.902l-4.997.184zM417.47 266.124l1.809-.22-.203-1.67-1.81.221zM424.187 257.92c.3 1.363-.627 2.72-2.063 3.036-1.465.325-2.894-.514-3.192-1.864-.305-1.377.636-2.754 2.086-3.074 1.436-.317 2.869.536 3.17 1.902m-6.963-.927.874-.192c-.628.862-.782 1.788-.524 2.961.423 1.921 2.61 3.314 4.905 2.81 2.279-.503 3.697-2.678 3.27-4.613-.254-1.145-.84-1.954-1.721-2.467l.857-.19-.357-1.626-7.663 1.69zM414.98 250.989c.77 2.035 3.142 3.018 5.307 2.198 2.153-.815 3.29-3.14 2.523-5.163-.606-1.6-2.298-2.548-4.103-2.445l.564 1.49c.808.065 1.715.604 2.06 1.515.44 1.167-.166 2.682-1.569 3.213-1.406.531-2.876-.196-3.319-1.36-.34-.9-.091-1.782.56-2.496l-.573-1.516c-1.504 1.26-2.061 2.948-1.45 4.564M412.19 247.258l1.638-.797-.737-1.514-1.637.797zM409.689 239.804l4.7 1.392-2.846 1.717.854 1.414 9.263-5.584-.854-1.415-5.39 3.249 1.1-4.608-1.172-1.976-1.318 5.423-5.551-1.562zM411.147 231.069c.154.849-.192 1.707-.61 2.028l-3.602 2.787 1.01 1.307 6.22-4.81-1.012-1.307-.784.607c.154-.48.248-.936.17-1.35-.103-.679-.753-1.6-1.316-1.96l-1.214.938c.456.273 1.055 1.234 1.138 1.76M314.415 225.56a2.68 2.68 0 1 0-5.36.002 2.68 2.68 0 0 0 5.36-.001M406.218 225.56a2.68 2.68 0 1 0-5.36.002 2.68 2.68 0 0 0 5.36-.001M358.315 338.848a2.68 2.68 0 1 0-5.36-.002 2.68 2.68 0 0 0 5.36.002M358.702 211.034l.002-4.993-5.552.005-.002 4.268 4.492.002v1.898l-6.523-.002.002-6.888a1.205 1.205 0 0 1 1.148-1.18l6.435.002.002-5.016h1.975l-.005 11.186h1.54l.005-11.186 1.972.003-.005 13.084h-4.306a1.211 1.211 0 0 1-1.18-1.183M381.636 207.867l-9.865-2.932.54-1.818 9.058 2.693.7-2.353 1.909.566-.907 3.057c-.2.6-.826.942-1.435.787M379.46 216.34a1.204 1.204 0 0 1-.794-1.46l1.857-6.245 1.885.56-1.648 5.545 1.526.455-.543 1.824zM374.414 208.656c-.737-.219-1.511.215-1.736.968-.223.755.19 1.542.923 1.761.733.22 1.51-.219 1.733-.972.225-.754-.188-1.54-.92-1.757m2.901 7.043-3.646-1.084-.312 1.042-1.89-.56.312-1.04-3.649-1.087.54-1.818 2.436.725.02.003a3.418 3.418 0 0 1-.41-2.84 3.435 3.435 0 0 1 6.584 1.957 3.416 3.416 0 0 1-1.898 2.155l2.454.729zM323.063 212.658a1.79 1.79 0 0 0-2.454-.627 1.79 1.79 0 0 0 1.828 3.077 1.79 1.79 0 0 0 .626-2.45m2.452 5.738-1.694 1.005-.819-1.376-5.181 3.073-.965-1.63 3.726-2.212a3.806 3.806 0 0 1-.996-6.962 3.807 3.807 0 0 1 5.625 4.218l3.72-2.209.97 1.632-5.203 3.086z" style="fill:#fff;fill-opacity:1;fill-rule:nonzero;stroke:none;stroke-width:1.63347" transform="matrix(1.39209 0 0 -1.39209 -389.206 488.482)"/><path d="M325.66 220.513c.16-2.612 3.18-4.315 3.18-4.315l1.629-.97.969 1.633-1.778 1.055s-2.71 1.436-1.952 4.06l-1.746 1.033c-1.939-1.92-4.498-.233-4.498-.233l-1.778 1.053-.967-1.632 1.629-.965s2.943-1.833 5.312-.719M338.951 214.25c.865-.26 1.348-1.19 1.082-2.079-.266-.889-1.183-1.398-2.047-1.138-.864.26-1.35 1.189-1.083 2.079.266.889 1.186 1.398 2.048 1.138m3.891-6.003-3.077.925a3.713 3.713 0 0 1 2.254 2.404 3.707 3.707 0 0 1-7.1 2.132 3.711 3.711 0 0 1 .558-3.249l-2.765.833-.548-1.82 2.671-.801-1.424-4.749 1.886-.568 1.426 4.75 5.574-1.675z" style="fill:#fff;fill-opacity:1;fill-rule:nonzero;stroke:none;stroke-width:1.63347" transform="matrix(1.39209 0 0 -1.39209 -389.206 488.482)"/><path d="m346.37 213.519-2.306.69-.554-1.847 1.534-.459-2.66-8.868-3.153.95.578 1.927-1.91.573-.79-2.636c-.16-.608.175-1.23.766-1.44l5.843-1.756.054.185 3.375 11.23a1.203 1.203 0 0 1-.776 1.45M399.968 216.016l-5.056 7.735a1.21 1.21 0 0 1-1.605.343l-8.168-5.347 1.038-1.586 7.466 4.884 4.656-7.118-1.722-1.126-3.029 4.633-1.574-1.03 3.03-4.633-1.405-.917-3.028 4.631-1.57-1.027 3.027-4.633-1.78-1.163 1.027-1.573 10.591 6.923-1.03 1.573z" style="fill:#fff;fill-opacity:1;fill-rule:nonzero;stroke:none;stroke-width:1.63347" transform="matrix(1.39209 0 0 -1.39209 -389.206 488.482)"/></svg>