<svg xmlns="http://www.w3.org/2000/svg" xml:space="preserve" width="645.5285" height="645.5285" viewBox="0 0 645.5285 645.5285"><defs><clipPath id="a" clipPathUnits="userSpaceOnUse"><path d="M0 612h792V0H0Z"/></clipPath></defs><g transform="matrix(1.62826 0 0 -1.62826 -447.34 763.183)"><circle cx="472.96094" cy="-270.4841" r="198.22633" style="fill:#f9f9f9;stroke:#fff;stroke-width:0" transform="scale(1 -1)"/><g clip-path="url(#a)" transform="translate(86.273 -41.789)"><path d="M0 0c-6.929 13.399 4.814 25.995 4.814 25.995 34.457 4.849 61.037 1.007 63.556-10.522 2.256-10.269-15.217-23.842-42.389-34.81 0 0-20.024 7.786-25.981 19.337" style="fill:#39964e;fill-opacity:1;fill-rule:nonzero;stroke:none" transform="translate(407.759 355.523)"/><path d="M0 0c1.989-12.752 13.825-29.784 13.825-29.784-37.741-6.404-67.406-2.962-70.095 9.327C-59.082-7.582-30.958 10.47 8.44 22.082c0 0-10.974-5.869-8.44-22.082" style="fill:#39964e;fill-opacity:1;fill-rule:nonzero;stroke:none" transform="translate(365.457 350.991)"/><path d="M0 0c1.979-8.199-9.69-18.388-26.022-22.714-16.34-4.332-31.191-1.178-33.15 7.03-1.972 8.229 9.689 18.388 26.038 22.733C-16.798 11.363-1.96 8.221 0 0" style="fill:#39964e;fill-opacity:1;fill-rule:nonzero;stroke:none" transform="translate(412.617 401.784)"/><path d="M0 0s-21.659-1.931-31.58-11.136c-9.922-9.204-5.949-20.251-4.392-24.702 3.017-8.573 9.526-19.135 14.094-26.525 2.917-4.772 10.85-19.158 8.258-33.34-2.597-14.167-10.386-25.373-22.208-31.087-11.8-5.711-20.778-8.717-37.571-9.445-16.768-.747-36.355 1.235-47.937 11.933-11.574 10.679-12.526 32.333 12.519 37.795 0 0-15.181.944-22.932-9.775-6.681-9.247-4.205-22.824 2.881-31.519 7.079-8.71 20.989-15.385 44.14-17.15 23.152-1.728 85.292-.246 101.821 2.004 16.533 2.237 36.375 7.44 44.177 32.07 7.797 24.633-2.906 45.426-29.525 58.206C5.171-39.911-1.87-34.197-5.141-23.812-8.365-13.57-4.006-5.214 0 0" style="fill:#23569b;fill-opacity:1;fill-rule:nonzero;stroke:none" transform="translate(407.547 381.084)"/><path d="M0 0s8.886-3.969 5.331-13.891c0 0 14.094-4.13 18.108-13.524.957-2.227 5.241-12.991-3.256-20.441 0 0 11.531 6.062 9.341 19.809C27.158-13.12 10.096-2.568 0 0" style="fill:#23569b;fill-opacity:1;fill-rule:nonzero;stroke:none" transform="translate(474.016 379.339)"/><path d="M0 0c-100.786 0-182.474 81.695-182.474 182.476 0 100.777 81.688 182.474 182.474 182.474 100.773 0 182.47-81.697 182.47-182.474C182.47 81.695 100.773 0 0 0m-.685 374.473c-105.665 0-191.313-85.654-191.313-191.315 0-105.66 85.648-191.316 191.313-191.316 105.665 0 191.319 85.656 191.319 191.316 0 105.661-85.654 191.315-191.319 191.315" style="fill:#39964e;fill-opacity:1;fill-rule:nonzero;stroke:none" transform="translate(386.772 129.934)"/><path d="M0 0c-70.831 0-128.25 57.427-128.25 128.249C-128.25 199.09-70.831 256.51 0 256.51c70.833 0 128.254-57.42 128.254-128.261C128.254 57.427 70.833 0 0 0m-.486 263.205c-74.259 0-134.459-60.207-134.459-134.478 0-74.264 60.2-134.469 134.459-134.469 74.274 0 134.464 60.205 134.464 134.469 0 74.271-60.19 134.478-134.464 134.478" style="fill:#39964e;fill-opacity:1;fill-rule:nonzero;stroke:none" transform="translate(386.908 184.697)"/><path d="M0 0c-.131-.271-.352-.81-.352-1.392-.042-1.667 1.543-2.894 2.461-3.42 1.726-.986 3.488-1.077 4.246.248.799 1.391-.286 2.392-2.475 4.415C2.46 1.148.338 3.096 1.684 5.45c1.054 1.848 3.465 2.373 6.232.791 2.689-1.518 3.889-3.84 2.648-6.221L8.915.794c.404.915.841 2.531-1.731 4-1.07.613-3.038 1.339-3.88-.134-.585-1.011-.106-1.8 1.9-3.581C7.206-.709 9.486-2.75 8-5.354c-1.129-1.963-3.794-2.522-6.633-.91-2.979 1.7-3.711 3.577-3.525 5.404.094.798.347 1.313.52 1.632z" style="fill:#23569b;fill-opacity:1;fill-rule:nonzero;stroke:none" transform="translate(327.687 214.533)"/><path d="m0 0 1.714-.819-5.892-12.316-1.712.819z" style="fill:#23569b;fill-opacity:1;fill-rule:nonzero;stroke:none" transform="translate(342.91 216.648)"/><path d="m0 0 1.825-.687 3.252-12.647.047-.023 3.75 10.034 1.687-.631-4.786-12.777-1.811.679L.702-3.385H.664l-3.757-10.036-1.688.635z" style="fill:#23569b;fill-opacity:1;fill-rule:nonzero;stroke:none" transform="translate(347.323 214.442)"/><path d="M0 0c-1.933-3.782-5.235-3.544-6.752-3.224-2.429.508-3.706 1.613-4.384 2.767-1.096 1.868-1.019 4.134-.699 5.619 1 4.71 4.628 6.14 8.044 5.401C-1.278 10.036.688 8.418.918 5.494L-.99 5.465c-.135 1.172-.558 3.048-3.143 3.588-3.855.842-5.319-2.129-5.776-4.272-.133-.573-.567-2.82.336-4.396.646-1.14 1.826-1.812 2.986-2.074C-3.918-2.247-2.466-.7-1.748.843z" style="fill:#23569b;fill-opacity:1;fill-rule:nonzero;stroke:none" transform="translate(370.2 198.108)"/><path d="m0 0 10.366-.37-.059-1.642-8.46.312-.146-4.148 7.918-.308-.061-1.618-7.921.291-.182-4.601 8.814-.336-.064-1.614-10.701.404z" style="fill:#23569b;fill-opacity:1;fill-rule:nonzero;stroke:none" transform="translate(373.712 207.098)"/><path d="m0 0-9.43-1.116c-.315 2.111 1.867 4.288 3.341 5.74A17.632 17.632 0 0 1-3.88 7.11c.875 1.17.935 1.974.866 2.562-.166 1.367-1.421 2.227-2.969 2.051-.296-.029-2.754-.381-2.444-3.089l-1.81-.009c-.016.383-.022.956.183 1.587.699 2.202 2.83 2.741 3.95 2.868 3.244.388 4.684-1.562 4.876-3.244.169-1.314-.22-2.764-2.86-5.459-.19-.197-1.113-1.143-1.303-1.33C-6.812 1.681-6.999 1.168-7.185.779l6.982.837z" style="fill:#23569b;fill-opacity:1;fill-rule:nonzero;stroke:none" transform="translate(407.679 194.99)"/><path d="M0 0c2.539.543 2.128 3.777 1.638 6.079-.493 2.32-1.416 5.403-3.982 4.856-2.39-.497-2.176-3.417-1.621-6.055C-3.494 2.651-2.565-.531 0 0m-2.613 12.301c4.567.967 5.689-4.394 6.013-5.864C3.706 5.015 4.844-.368.283-1.34c-4.544-.954-5.675 4.257-5.997 5.837-.314 1.437-1.462 6.83 3.101 7.804" style="fill:#23569b;fill-opacity:1;fill-rule:nonzero;stroke:none" transform="translate(414.773 197.523)"/><path d="M0 0c2.482.791 1.746 3.994 1.036 6.203-.72 2.275-1.938 5.268-4.434 4.471-2.329-.739-1.833-3.61-1.012-6.198C-3.734 2.305-2.499-.788 0 0m-3.8 11.984c4.442 1.403 6.101-3.802 6.549-5.231.459-1.4 2.106-6.637-2.335-8.056-4.431-1.407-6.058 3.68-6.55 5.232-.444 1.383-2.112 6.662 2.336 8.055" style="fill:#23569b;fill-opacity:1;fill-rule:nonzero;stroke:none" transform="translate(426.3 200.554)"/><path d="M0 0c2.382 1.051 1.303 4.126.38 6.261-.966 2.178-2.514 5.013-4.903 3.96-2.241-.986-1.441-3.804-.347-6.273C-3.953 1.865-2.391-1.069 0 0m-5.055 11.494c4.251 1.868 6.468-3.14 7.077-4.508C2.604 5.64 4.823.601.553-1.266c-4.251-1.875-6.412 3.007-7.062 4.488-.601 1.34-2.818 6.39 1.454 8.272" style="fill:#23569b;fill-opacity:1;fill-rule:nonzero;stroke:none" transform="translate(437.498 204.797)"/><path d="M0 0c0-5.268-4.265-9.528-9.534-9.528A9.513 9.513 0 0 0-19.057 0c0 5.268 4.25 9.537 9.523 9.537C-4.265 9.537 0 5.268 0 0" style="fill:#23569b;fill-opacity:1;fill-rule:nonzero;stroke:none" transform="translate(552.831 331.99)"/><path d="M0 0c0-5.268-4.271-9.528-9.543-9.528-5.255 0-9.515 4.26-9.515 9.528 0 5.268 4.26 9.537 9.515 9.537C-4.271 9.537 0 5.268 0 0" style="fill:#23569b;fill-opacity:1;fill-rule:nonzero;stroke:none" transform="translate(238.584 331.99)"/><path d="M0 0c-1.98-3.08-4.861-5.545-7.159-6.126-.897-.237-1.65-.157-2.234.209-.588.379-.973 1.026-1.136 1.957-.417 2.344.63 5.972 2.604 9.063 1.993 3.065 4.868 5.543 7.18 6.122.889.229 1.654.156 2.243-.216C3.596 9.643 2.898 4.51 0 0m-11.529 7.434c-4.748-7.362-5.196-15.528-1.012-18.221 1.348-.863 3.063-1.091 4.968-.658 3.853.874 8.144 4.364 11.207 9.101C6.685 2.416 8.085 7.777 7.288 11.64c-.396 1.907-1.314 3.38-2.653 4.254-1.335.86-3.053 1.085-4.95.649-3.853-.88-8.164-4.375-11.214-9.109" style="fill:#23569b;fill-opacity:1;fill-rule:nonzero;stroke:none" transform="translate(268.475 390.04)"/><path d="M0 0a1.92 1.92 0 0 1-.613-.423c-.013-.021-.043-.03-.055-.072-3.237-3.677-8.981-6.401-13.876-5.215-.053.011-.121.019-.159.032a4.252 4.252 0 0 1-1.398.042c-1.132-.165-2.16-.757-2.81-1.739-.643-.986-.756-2.191-.429-3.278.142-.413.33-.83.587-1.211.111-.127.217-.283.327-.427 2.915-3.969 2.782-10.129.808-14.504-.029-.059-.043-.103-.059-.143a1.985 1.985 0 0 1-.129-.703c0-.656.315-1.291.922-1.663a1.982 1.982 0 0 1 1.902-.131c.343.131.626.383.842.715.006 0 .006.008.006.008.036.043.049.083.061.115 2.814 5.339 3.614 11.083 2.299 16.359.047.063.088.123.13.184.038.063.074.135.119.199 5.339.973 10.222 4.07 13.903 8.8.034.051.076.087.105.136v.021c.223.351.324.732.324 1.1a1.939 1.939 0 0 1-.925 1.646A1.994 1.994 0 0 1 0 0" style="fill:#23569b;fill-opacity:1;fill-rule:nonzero;stroke:none" transform="translate(256.04 417.693)"/><path d="M0 0a2.148 2.148 0 0 1-1.164-.872l-.027-.012-.011-.028-8.11-12.606-2.224 1.441c-.064.032-.114.074-.18.124-.051.03-.112.06-.167.094-.577.308-1.208.404-1.821.308a2.869 2.869 0 0 1-1.946-1.261 2.846 2.846 0 0 1-.337-2.301 2.78 2.78 0 0 1 1.073-1.555c.042-.023.076-.061.12-.087.045-.03.098-.058.147-.08l2.259-1.454-8.096-12.588c-.011-.014-.019-.024-.024-.024-.013-.01-.013-.023-.013-.023a2.184 2.184 0 0 1-.3-1.46 2.163 2.163 0 0 1 .948-1.472 2.079 2.079 0 0 1 1.734-.25c.481.146.912.436 1.213.876v.015c.015.015.015.023.015.023L2.388-3.224s0 .019.019.019c.005.013.005.023.005.023.283.449.368.953.3 1.431a2.08 2.08 0 0 1-.94 1.501A2.157 2.157 0 0 1 0 0" style="fill:#23569b;fill-opacity:1;fill-rule:nonzero;stroke:none" transform="translate(263.685 416.11)"/><path d="M0 0c-3.368-1.867-7.058-2.428-9.412-1.43-.823.341-1.436.838-1.792 1.523-.368.654-.482 1.433-.338 2.311.401 2.521 2.847 5.36 6.211 7.226 3.364 1.866 7.063 2.425 9.422 1.431.81-.344 1.413-.852 1.786-1.515C7.341 6.884 4.713 2.601 0 0m-7.383 13.322c-7.671-4.24-11.794-11.507-9.195-16.205.783-1.411 2.134-2.507 3.893-3.129 3.948-1.421 9.592-.529 14.728 2.319C7.192-.839 10.93 3.463 11.834 7.565c.395 1.816.192 3.548-.593 4.944-.78 1.422-2.121 2.491-3.87 3.134-3.961 1.419-9.605.539-14.754-2.321" style="fill:#23569b;fill-opacity:1;fill-rule:nonzero;stroke:none" transform="translate(312.13 450.246)"/><path d="M0 0a1.978 1.978 0 0 1-1.24-.184c-.057-.024-.08-.032-.133-.055-.031-.015-.068-.049-.104-.07l-13.082-7.243-4.544 8.216-.121.197-.2-.112-4.57-2.522-.201-.114.108-.203 4.556-8.212-12.995-7.208c-.04-.021-.097-.027-.127-.051-.036-.027-.059-.049-.103-.083a2.11 2.11 0 0 1-.872-1.057 2.18 2.18 0 0 1 .135-1.783 2.104 2.104 0 0 1 1.443-1.056c.466-.114.959-.05 1.405.177.034.009.049.018.072.03.034.021.051.044.08.062L.647-4.024c.019 0 .049 0 .063.025.035.009.045.039.081.049.397.227.682.591.856.975.252.601.24 1.3-.09 1.896A2.103 2.103 0 0 1 0 0" style="fill:#23569b;fill-opacity:1;fill-rule:nonzero;stroke:none" transform="translate(334.626 449.26)"/><path d="M0 0c-.423.055-.842 0-1.256-.186-.035-.019-.081-.03-.113-.06-.04-.012-.065-.04-.11-.063L-12.71-6.526l-.875 1.58c-.026.045-.047.097-.073.148a.849.849 0 0 0-.084.144 2.863 2.863 0 0 1-1.048.986c-.86.469-1.925.528-2.828.01a2.944 2.944 0 0 1-1.519-2.405c-.01-.474.068-.948.286-1.39.017-.061.051-.121.086-.186a.63.63 0 0 0 .094-.144l.872-1.576-11.179-6.199c-.038-.012-.072-.021-.11-.042-.046-.017-.063-.051-.105-.071a2.074 2.074 0 0 1-.851-1.006 2.196 2.196 0 0 1 .112-1.821 2.1 2.1 0 0 1 1.492-1.049 1.983 1.983 0 0 1 1.366.207l.053.01c.006 0 .027.018.049.03l11.038 6.116 5.52 3.046L.654-3.999c.011.013.032.013.044.022.017.021.038.021.047.032.401.234.702.6.876.992a2.112 2.112 0 0 1-.089 1.878C1.202-.486.63-.114 0 0" style="fill:#23569b;fill-opacity:1;fill-rule:nonzero;stroke:none" transform="translate(318.815 473.567)"/><path d="M0 0c-.33.3-.778.489-1.254.5-.03 0-.085.019-.108 0-.053.019-.085.008-.125 0l-9.689.029a.875.875 0 0 0-.876.787c0 .055 0 .061-.019.105.019.03 0 .073.019.106l.017 16.802v1.257a.915.915 0 0 0 .842.803h.123l.338-.016 8.779-.014c.011.014.038 0 .047.014.013 0 .034 0 .051.008.47 0 .888.165 1.24.423.507.398.837.998.845 1.693 0 .693-.338 1.315-.845 1.69a2.238 2.238 0 0 1-1.215.446h-.076c-.036.011-.047 0-.078-.013l-12.097.024c-.042 0-.074.006-.107.006-.042-.006-.071-.006-.123-.006a3.536 3.536 0 0 1-3.41-3.36c-.004-.061-.004-.117-.004-.18 0 0 0-.088.004-.156l-.015-20.74c-.011-1.21.34-2.217 1.026-2.903.667-.681 1.667-1.033 2.906-1.045l12.406-.01c.013 0 .021 0 .023-.011l.023.011c.515.01.978.194 1.352.507.468.383.768.963.768 1.618C.768-.964.472-.389 0 0" style="fill:#23569b;fill-opacity:1;fill-rule:nonzero;stroke:none" transform="translate(385.332 465.524)"/><path d="M0 0c0 .058.016.097.016.097C.016.178 0 .22 0 .275-.038.833-.223 1.35-.536 1.752A2.747 2.747 0 0 1-2.69 2.856a2.767 2.767 0 0 1-2.149-1.079A2.767 2.767 0 0 1-5.376.303c0-.061-.018-.1-.018-.157 0-.049.018-.102.018-.156v-8.291l-2.514-.012V.058c.005.039.013.08.013.109 0 .041-.008.053-.013.096a2.607 2.607 0 0 1-.527 1.514 2.704 2.704 0 0 1-2.155 1.086 2.649 2.649 0 0 1-2.154-1.086A2.546 2.546 0 0 1-13.25.36c-.013-.068-.026-.118-.026-.193.013-.07.013-.123.021-.194l-.029-35.243c-.015-.073-.032-.147-.032-.2 0-.061.032-.125.017-.197.049-.59.29-1.14.662-1.578a2.747 2.747 0 0 1 2.027-.918c.801-.013 1.514.34 2.022.907.398.459.649 1.052.666 1.695v.079c.019.024 0 .065-.006.094l.03 22.805 2.504-.012-.019-22.742c0-.051-.006-.089-.006-.163 0-.044.006-.105.006-.154a2.647 2.647 0 0 1 .65-1.591 2.67 2.67 0 0 1 2.043-.952c.813 0 1.536.374 2.027.941.389.449.631 1.009.649 1.623.005.049.017.078.017.144 0 .031-.011.08-.011.122z" style="fill:#23569b;fill-opacity:1;fill-rule:nonzero;stroke:none" transform="translate(401.462 489.738)"/><path d="M0 0a5.736 5.736 0 0 0-2.519 2.676c-.663 1.451-.622 3.036.082 4.375.717 1.316 2.008 2.225 3.586 2.509a5.707 5.707 0 0 0 3.619-.614c1.128-.602 2.03-1.552 2.529-2.686.658-1.431.617-3.026-.084-4.354C5.879-.569 2.672-1.422 0 0m6.45-4.948c2.505.603 4.47 2.048 5.571 4.099 1.089 2.051 1.19 4.509.286 6.914-.973 2.61-3.02 4.851-5.708 6.291-5.353 2.861-11.627 1.577-13.996-2.838-1.089-2.065-1.198-4.519-.286-6.914.988-2.623 3.001-4.865 5.709-6.291 2.708-1.445 5.7-1.9 8.424-1.261" style="fill:#23569b;fill-opacity:1;fill-rule:nonzero;stroke:none" transform="translate(451.78 458.3)"/><path d="M0 0a2.02 2.02 0 0 1-.827.956c-.036.032-.067.044-.106.083-.039 0-.072.021-.119.032l-6.76 3.615.853 1.591c.046.059.063.101.106.144a.269.269 0 0 0 .073.144 2.927 2.927 0 0 1-1.289 3.803 2.836 2.836 0 0 1-2.827-.051 2.595 2.595 0 0 1-1.016-.985 1.177 1.177 0 0 1-.1-.157c-.044-.051-.057-.114-.087-.173l-.841-1.576-6.672 3.555c-.031.022-.063.052-.09.073-.051.021-.086.027-.13.038-.42.203-.879.241-1.305.146a2.067 2.067 0 0 1-1.465-1.077 2.08 2.08 0 0 1-.079-1.807c.172-.423.488-.804.918-1.058.022 0 .022-.005.038-.016.022-.013.038-.022.055-.022l6.531-3.492L-9.59.821l6.596-3.525c.034-.023.034-.023.051-.04.013-.012.043-.012.047-.025a2.137 2.137 0 0 1 1.318-.186c.636.108 1.212.482 1.516 1.083C.263-1.263.26-.569 0 0" style="fill:#23569b;fill-opacity:1;fill-rule:nonzero;stroke:none" transform="translate(469.685 466.415)"/><path d="m0 0 4.062 7.639c.582 1.087.733 2.113.474 3.054-.279.925-1.003 1.703-2.073 2.294l-21.406 11.4-.02.013-.021.021a2.117 2.117 0 0 1-1.443.184 2.127 2.127 0 0 1-1.427-1.076 2.088 2.088 0 0 1-.092-1.782c.17-.427.47-.8.878-1.039a.393.393 0 0 1 .093-.061c.028-.021.072-.032.104-.055l19.006-10.127a.906.906 0 0 0 .381-1.127c-.008-.043-.011-.072-.035-.093-.011-.032-.032-.056-.054-.094l-3.461-6.477c-.013-.023-.029-.055-.054-.085-.018-.026-.022-.061-.035-.084a2.838 2.838 0 0 1-.195-2 2.786 2.786 0 0 1 1.403-1.762c.733-.406 1.533-.438 2.264-.199A2.794 2.794 0 0 1-.118-.19c.036.021.048.055.058.085.027.042.039.082.06.105" style="fill:#23569b;fill-opacity:1;fill-rule:nonzero;stroke:none" transform="translate(463.726 430.543)"/><path d="M0 0a2.102 2.102 0 0 1-.862.975.355.355 0 0 0-.083.041c-.015.012-.042.012-.063.031L-5.39 3.368l2.192 4.097c.046.073.101.153.15.248.046.085.087.169.136.269a2.898 2.898 0 0 1-1.316 3.601 2.808 2.808 0 0 1-2.277.173 2.755 2.755 0 0 1-1.457-1.138A4.232 4.232 0 0 0-8.1 10.4a.771.771 0 0 1-.091-.229l-7.813-14.639a1.65 1.65 0 0 1-.138-.218c-.035-.071-.079-.146-.116-.228-.29-.692-.268-1.452-.035-2.111.249-.622.693-1.183 1.337-1.515a2.84 2.84 0 0 1 3.708.922c.057.083.115.159.15.259a.724.724 0 0 1 .119.259l3.596 6.709 4.392-2.344c.014 0 .03-.021.03-.021.024-.013.029-.019.049-.03a2.05 2.05 0 0 1 1.313-.186c.639.103 1.227.478 1.544 1.085A2.11 2.11 0 0 1 0 0" style="fill:#23569b;fill-opacity:1;fill-rule:nonzero;stroke:none" transform="translate(483.252 453.696)"/><path d="m0 0 7.142 4.768c1.015.675 1.651 1.524 1.845 2.467.182.935-.072 1.961-.747 2.978L-5.155 30.26v.012a2.148 2.148 0 0 1-1.17.868 2.238 2.238 0 0 1-1.77-.271 2.136 2.136 0 0 1-.919-1.523 2.16 2.16 0 0 1 .272-1.316c.026-.033.035-.072.059-.106a.247.247 0 0 1 .081-.08L3.274 10.036a.91.91 0 0 0-.194-1.17c-.025-.023-.042-.044-.076-.072-.008 0-.049-.025-.093-.036l-6.072-4.062c-.017-.012-.055-.029-.084-.042-.033-.017-.042-.051-.079-.062a2.87 2.87 0 0 1-1.097-1.669A2.746 2.746 0 0 1-4.023.717 2.797 2.797 0 0 1-2.135-.497c.656-.112 1.342 0 1.947.374.032.009.061.03.091.051.03.021.063.049.097.072" style="fill:#23569b;fill-opacity:1;fill-rule:nonzero;stroke:none" transform="translate(530.305 394.071)"/><path d="M0 0c4.242.778 6.932 2.488 10.581 4.903l13.17 8.801.015-.021 1.005.66 3.102-4.663-10.052-6.706C13.13-.155 8.139-3.711 3.262-4.9" style="fill:#23569b;fill-opacity:1;fill-rule:nonzero;stroke:none" transform="translate(507.997 388.152)"/><path d="m0 0-8.19 12.281c-.017.033-.041.07-.068.114-.017.04-.052.063-.082.108a2.164 2.164 0 0 1-1.129.766 2.143 2.143 0 0 1-1.747-.28 2.063 2.063 0 0 1-.923-1.506 2.192 2.192 0 0 1 .277-1.387c.024-.022.04-.052.058-.071.004-.033.026-.04.047-.065l19.64-29.426c.018-.034.021-.055.026-.073.02-.024.055-.042.063-.067.275-.373.641-.63 1.055-.762a2.104 2.104 0 0 1 1.856.237c.576.381.903.982.939 1.627" style="fill:#23569b;fill-opacity:1;fill-rule:nonzero;stroke:none" transform="translate(502.879 395.907)"/><path d="M0 0c.038.417-.063.849-.287 1.221-.014.042-.026.085-.06.114-.021.043-.047.063-.076.097l-19.078 28.577" style="fill:#23569b;fill-opacity:1;fill-rule:nonzero;stroke:none" transform="translate(514.701 377.403)"/><path d="M0 0a20.62 20.62 0 0 1-.225-.186C-.31-.229-.39-.283-.491-.324A2.727 2.727 0 0 0-2.534-.55 2.85 2.85 0 0 0-4.181.609a2.93 2.93 0 0 0-.44 1.949 2.884 2.884 0 0 0 1.032 1.846c.06.055.141.094.203.136a.97.97 0 0 0 .213.133l12.477 8.325c.065.063.144.106.205.156a2.825 2.825 0 0 0 2.029.434 2.791 2.791 0 0 0 1.914-1.225c.45-.681.567-1.479.396-2.217a2.819 2.819 0 0 0-.948-1.544c-.078-.062-.154-.127-.232-.176a2.719 2.719 0 0 0-.261-.144Z" style="fill:#23569b;fill-opacity:1;fill-rule:nonzero;stroke:none" transform="translate(501.213 399.453)"/><path d="M0 0a2.09 2.09 0 0 0-.232-.173C-.304-.227-.399-.275-.479-.32a2.84 2.84 0 0 0-3.68.933 2.876 2.876 0 0 0-.469 1.959c.1.695.469 1.358 1.042 1.836.079.051.142.104.203.155.076.04.145.082.22.116l12.487 8.336c.046.046.115.101.19.152.081.042.148.082.219.123.555.313 1.206.418 1.803.313a2.834 2.834 0 0 0 2.314-3.451c-.144-.59-.454-1.142-.948-1.533a2.207 2.207 0 0 0-.234-.178 1.445 1.445 0 0 0-.265-.145Z" style="fill:#23569b;fill-opacity:1;fill-rule:nonzero;stroke:none" transform="translate(506.465 391.57)"/><path d="M0 0c-4.713-1.056-10.167 1.807-12.429 8.924-2.435 7.68 2.11 14.512 7.441 15.891l1.644-5.178c-3.481-1.107-5.359-5.124-4.086-9.134 1.168-3.682 3.241-5.114 5.606-4.895 2.107.178 3.14 1.89 3.449 4.037.507 3.097-.309 5.951.013 9.486.321 4.375 2.267 7.616 6.534 8.663 3.925.976 9.505-.992 11.813-8.27 2.604-8.208-3-13.414-6.678-14.32l-1.642 5.177c2.691.899 4.622 3.474 3.355 7.474-1.287 4.047-3.592 4.65-5.437 4.202-2.137-.501-2.64-2.888-2.75-5.105-.098-2.392.529-5.931-.118-9.7C6.135 3.954 3.922.85 0 0" style="fill:#23569b;fill-opacity:1;fill-rule:nonzero;stroke:none" transform="translate(225.657 270.253)"/><path d="M0 0c6.207 2.852 9.255 7.945 7 12.848-2.289 4.977-8.104 5.9-14.309 3.044-6.278-2.884-9.401-7.916-7.112-12.897C-12.17-1.9-6.281-2.894 0 0m2.435-5.285c-9.131-4.199-17.83-1.939-21.54 6.123-3.707 8.066.218 16.188 9.349 20.381 9.094 4.184 17.81 1.878 21.516-6.185 3.711-8.061-.235-16.141-9.325-20.319" style="fill:#23569b;fill-opacity:1;fill-rule:nonzero;stroke:none" transform="translate(244.233 247.816)"/><path d="m0 0 12.439 23.11L-6.92 10.692l-3.044 4.711L17.167 32.95l3.622-5.599L8.466 4.058l19.317 12.489 3.02-4.668L3.668-5.667Z" style="fill:#23569b;fill-opacity:1;fill-rule:nonzero;stroke:none" transform="translate(245.68 213.575)"/><path d="m0 0 2.365 2.25c-2.314-.411-5.908.365-8.568 3.228-5.957 6.406-4.751 15.453 2.545 22.221 7.331 6.799 16.245 7.425 22.342.862 5.835-6.277 3.973-13.855 1.433-17.486l-4.102 4.473c1.175 2.074 2.005 5.973-1.058 9.271-3.844 4.139-9.59 3.26-14.627-1.414-5.064-4.7-6.425-10.413-2.581-14.551 3.465-3.729 8.242-2.307 11.155-.653L3.668 13.83l3.529 3.269L16.298 7.3 3.93-4.232Z" style="fill:#23569b;fill-opacity:1;fill-rule:nonzero;stroke:none" transform="translate(269.744 184.613)"/><path d="m0 0 8.217 11.792-11.134 7.769-8.197-11.759-4.526 3.16L2.809 37.436l4.524-3.154L.072 23.855l11.138-7.771 7.263 10.423 4.525-3.154L4.559-3.189Z" style="fill:#23569b;fill-opacity:1;fill-rule:nonzero;stroke:none" transform="translate(296.466 163.214)"/><path d="M0 0c2.425 6.381 1.028 12.146-4.011 14.063-5.122 1.952-9.917-1.452-12.343-7.834-2.457-6.456-1.154-12.233 3.965-14.18C-7.35-9.876-2.458-6.454 0 0m5.433-2.075C1.862-11.457-5.928-15.926-14.221-12.768c-8.292 3.164-11.18 11.7-7.607 21.09 3.554 9.34 11.382 13.798 19.679 10.635C6.143 15.799 8.987 7.271 5.433-2.075" style="fill:#23569b;fill-opacity:1;fill-rule:nonzero;stroke:none" transform="translate(337.122 162.008)"/><path d="M0 0c-.193-6.603-5.158-10.97-12.75-10.751-7.631.215-12.249 4.857-12.059 11.465l.677 21.965 5.553-.159-.59-20.463c-.103-3.472.51-7.446 6.571-7.615 6.065-.172 6.943 3.791 7.042 7.223l.551 20.462L.63 21.97Z" style="fill:#23569b;fill-opacity:1;fill-rule:nonzero;stroke:none" transform="translate(387.898 149.804)"/><path d="m0 0-15.778 21.003 3.174-22.797-5.543-.796-4.578 32.018 6.596.939L-.145 9.393l-3.259 22.794 5.502.782L6.676.958Z" style="fill:#23569b;fill-opacity:1;fill-rule:nonzero;stroke:none" transform="translate(414.858 142.688)"/><path d="m0 0-7.649 31.307 5.28 1.292L5.278 1.287z" style="fill:#23569b;fill-opacity:1;fill-rule:nonzero;stroke:none" transform="translate(430.052 145.906)"/><path d="m0 0-6.081-2.158-22.171 26.376 5.239 1.857L-5.311 5.172l.538 27.387 5.282 1.879z" style="fill:#23569b;fill-opacity:1;fill-rule:nonzero;stroke:none" transform="translate(458.684 154.26)"/><path d="m0 0-17.248 27.239L1.529 39.14l2.778-4.385-14.156-8.976 4.277-6.744 13.47 8.545 2.759-4.354-13.475-8.545 4.667-7.358 14.524 9.261 2.802-4.42z" style="fill:#23569b;fill-opacity:1;fill-rule:nonzero;stroke:none" transform="translate(476.669 162.118)"/><path d="M0 0c-2.168 2.145-5.119 1.424-7.479-.961l-4.803-4.863 6.594-6.523 4.835 4.833C1.506-5.135 2.257-2.233 0 0m16.799-15.252L1.712-12.686l-3.377-3.409 8.91-8.813-3.879-3.932-22.983 22.747 9.228 9.331C-6.214 7.465.182 7.941 4.06 4.107 7.263.939 8.016-4.167 5.908-7.765l15.638-2.686z" style="fill:#23569b;fill-opacity:1;fill-rule:nonzero;stroke:none" transform="translate(499.548 208.782)"/><path d="M0 0c3.807-2.977 5.061-9.004.994-15.272-4.392-6.772-12.556-7.598-17.005-4.365l2.962 4.566c3.057-1.986 7.358-.881 9.651 2.647 2.103 3.243 1.892 5.759.224 7.444-1.472 1.516-3.456 1.229-5.305.108-2.716-1.584-4.41-4.029-7.34-6.029-3.588-2.528-7.329-3.097-10.845-.461-3.248 2.405-5.268 7.971-1.107 14.379 4.695 7.237 12.269 6.221 15.302 3.952l-2.954-4.557c-2.405 1.502-5.619 1.359-7.907-2.171-2.31-3.558-1.312-5.727.205-6.862 1.741-1.333 3.907-.203 5.692 1.121 1.905 1.445 4.246 4.181 7.574 6.073C-6.948 2.223-3.14 2.49 0 0" style="fill:#23569b;fill-opacity:1;fill-rule:nonzero;stroke:none" transform="translate(531.037 228.284)"/><path d="m0 0-29 14.108 2.375 4.88L2.374 4.88Z" style="fill:#23569b;fill-opacity:1;fill-rule:nonzero;stroke:none" transform="translate(541.242 230.98)"/><path d="m0 0 25.452-9.438-1.974-5.198-25.41 9.421-3.457-9.308-4.829 1.792 8.841 23.833 4.831-1.795z" style="fill:#23569b;fill-opacity:1;fill-rule:nonzero;stroke:none" transform="translate(526.372 264.805)"/><path d="m0 0 11.671-2.893-1.232-4.943-11.676 2.843-21.96-5.941 1.371 5.522 15.617 4.275-11.792 11.142 1.373 5.524z" style="fill:#23569b;fill-opacity:1;fill-rule:nonzero;stroke:none" transform="translate(548.111 286.152)"/></g></g></svg>