<svg xmlns="http://www.w3.org/2000/svg" width="175.53725mm" height="175.53732mm" viewBox="0 0 175.53725 175.53732"><path d="M183.544 171.786c-.078-48.44-39.407-87.768-87.847-87.69-48.44 0-87.768 39.406-87.69 87.846 0 48.44 39.328 87.69 87.846 87.69 48.44-.073 87.69-39.406 87.69-87.846" style="fill:#fff;fill-opacity:1;fill-rule:nonzero;stroke:none;stroke-width:77.8781" transform="translate(-8.006 -84.095)"/><path d="M0 0h-.037c-11.21.011-21.746 4.385-29.667 12.319-7.921 7.935-12.276 18.479-12.267 29.69C-41.95 65.139-23.125 83.942 0 83.942h.037c23.143-.02 41.954-18.865 41.934-42.007C41.951 18.805 23.125 0 0 0m0 82.646c-22.413 0-40.656-18.221-40.675-40.639-.01-10.864 4.212-21.082 11.888-28.773C-21.111 5.546-10.9 1.306-.035 1.296H0c22.413 0 40.655 18.223 40.675 40.64h.649-.649c.019 22.428-18.211 40.691-40.639 40.71Z" style="fill:#002f6d;fill-opacity:1;fill-rule:nonzero;stroke:none" transform="matrix(2.0588 0 0 -2.0588 87.88 174.164)"/><path d="M0 0c-16.863 0-30.582 13.719-30.582 30.581 0 16.863 13.719 30.582 30.582 30.582 16.862 0 30.582-13.719 30.582-30.582C30.582 13.719 16.862 0 0 0m0 59.868c-16.148 0-29.286-13.139-29.286-29.287S-16.148 1.296 0 1.296c16.148 0 29.286 13.137 29.286 29.285S16.148 59.868 0 59.868" style="fill:#002f6d;fill-opacity:1;fill-rule:nonzero;stroke:none" transform="matrix(2.0588 0 0 -2.0588 87.88 150.715)"/><path d="m0 0-.545-.912 2.738-1.639c.147-.088.346-.19.503-.268-.199.017-.47.035-.681.028l-3.716-.103-.031-.001-.537-.896 4.707-2.816.049-.029.549.918L.305-4.083c-.146.087-.347.189-.504.269.199-.018.47-.038.682-.03l3.74.109.533.89L.049-.029z" style="fill:#002f6d;fill-opacity:1;fill-rule:nonzero;stroke:none" transform="matrix(2.0588 0 0 -2.0588 22.674 43.484)"/><path d="M39.06 214.811a2.321 2.321 0 0 1-4.64-.004 2.32 2.32 0 1 1 4.64.004" style="fill:#002f6d;fill-opacity:1;fill-rule:nonzero;stroke:none;stroke-width:2.05881" transform="translate(-8.006 -84.095)"/><path d="M0 0a1.127 1.127 0 1 1 2.254.002A1.127 1.127 0 0 1 0 0" style="fill:#002f6d;fill-opacity:1;fill-rule:nonzero;stroke:none" transform="matrix(2.0588 0 0 -2.0588 144.09 130.716)"/><path d="M0 0a10.523 10.523 0 0 0-1.702 2.796c-.187.45-.342.912-.445 1.389-.06.276-.126.549-.167.83a14.294 14.294 0 0 0-.088.718h-1.54c.025-.164.052-.329.074-.494.027-.214.072-.425.121-.634.073-.323.221-.844.332-1.158.3-.846.68-1.664 1.163-2.434a12.864 12.864 0 0 1 2.204-2.67c.04-.045.081-.077.121-.113.179-.156.347-.321.531-.472a15.305 15.305 0 0 1 3.373-2.116 15.647 15.647 0 0 1 2.375-.871c.888-.25 1.816-.364 2.753-.364l.201.002.202-.002c.936 0 1.864.114 2.753.364.816.229 1.61.516 2.374.871a15.314 15.314 0 0 1 3.374 2.116c.183.151.351.316.53.472.039.036.081.068.121.113a12.864 12.864 0 0 1 2.204 2.67c.484.77.864 1.588 1.163 2.434.112.314.259.835.333 1.158.049.209.093.42.12.634.021.165.049.33.076.494h-1.541l-.038-.349c-.014-.123-.032-.246-.05-.369-.041-.281-.108-.554-.167-.83a7.971 7.971 0 0 0-.446-1.389A10.575 10.575 0 0 0 18.612 0a11.85 11.85 0 0 0-1.277-1.308 12.435 12.435 0 0 0-3.342-2.09 12.368 12.368 0 0 0-1.541-.56 12.743 12.743 0 0 0-1.442-.338 9.565 9.565 0 0 0-1.597-.13h-.214c-.531 0-1.063.04-1.596.13a12.76 12.76 0 0 0-1.443.338 12.31 12.31 0 0 0-1.541.56 12.467 12.467 0 0 0-3.342 2.09C.814-.904.394-.465 0 0" style="fill:#002f6d;fill-opacity:1;fill-rule:nonzero;stroke:none" transform="matrix(2.0588 0 0 -2.0588 67.387 124.147)"/><path d="M0 0h.006C.019 0 .03.005.043.006.056.005.066 0 .079 0h.006c.325 0 .649.211.78.653a.817.817 0 0 1 .031.234v4.848H-.811L-.812.887c0-.08.01-.162.031-.234C-.65.211-.325 0 0 0" style="fill:#002f6d;fill-opacity:1;fill-rule:nonzero;stroke:none" transform="matrix(2.0588 0 0 -2.0588 86.46 124.151)"/><path d="M0 0a5.166 5.166 0 0 0-1.451 1.674 4.408 4.408 0 0 0-.533 2.107c-.002.298-.003 1.194-.004 2.517h-1.6V4.469c.006-.326.033-.64.081-.954.053-.35.133-.696.25-1.03A6.821 6.821 0 0 1-1.586-.138c.46-.454.975-.849 1.548-1.181a7.008 7.008 0 0 1 3.51-.933h.074c1.218 0 2.435.31 3.511.933A7.63 7.63 0 0 1 8.604-.138a6.823 6.823 0 0 1 1.672 2.623c.117.334.197.68.249 1.03.047.314.076.628.081.954v1.829H9.007c0-1.323-.002-2.219-.004-2.517a4.408 4.408 0 0 0-.533-2.107A5.178 5.178 0 0 0 7.019 0a6.047 6.047 0 0 0-1.895-.958 5.336 5.336 0 0 0-1.567-.237h-.011l-.037.002-.036-.002h-.011a5.326 5.326 0 0 0-1.567.237A6.026 6.026 0 0 0 0 0" style="fill:#002f6d;fill-opacity:1;fill-rule:nonzero;stroke:none" transform="matrix(2.0588 0 0 -2.0588 79.322 125.31)"/><path d="m0 0-.02-.002c-2.428-.234-4.39-1.756-5.161-3.801v2.835L-5.18.103-6.245 0c-2.444-.236-4.416-1.772-5.181-3.832v3.92l-1.065-.103c-2.739-.264-4.894-2.157-5.414-4.591-.519 2.434-2.674 4.327-5.413 4.591l-1.066.103v-3.92C-25.148-1.772-27.12-.236-29.563 0l-1.067.103V-.968l.002-2.639v-.196c-.771 2.045-2.734 3.567-5.163 3.801l-1.064.103-.02-1.069v-7.63l.001-3.7h.972l-.001 11.33.019-.002c2.638-.253 4.642-2.309 4.641-4.763l-.005-6.565H-29.654l-.003 11.33c2.645-.255 4.647-2.309 4.649-4.761l.002-6.569h1.596l-.001 11.316c2.651-.256 4.654-2.311 4.654-4.763v-6.553h1.704v6.553c0 2.452 2.003 4.507 4.655 4.763l-.001-11.316h1.596l.002 6.569c0 2.452 2.003 4.506 4.649 4.761l-.003-11.33h1.593l-.004 6.565C-4.567-3.279-2.563-1.223.074-.97l.02.002-.001-11.33h.971v3.963l.001 7.367V.103z" style="fill:#002f6d;fill-opacity:1;fill-rule:nonzero;stroke:none" transform="matrix(2.0588 0 0 -2.0588 123.409 46.812)"/><path d="M0 0a16.6 16.6 0 0 0-.354-1.065 17.99 17.99 0 0 0-.506-1.19 14.835 14.835 0 0 0-.783-1.466 17.743 17.743 0 0 0-3.556-4.175 20.196 20.196 0 0 0-1.131-.906 19.729 19.729 0 0 0-1.863-1.216 20.537 20.537 0 0 0-3.761-1.7 16.401 16.401 0 0 0-5.251-.839h-.351a16.41 16.41 0 0 0-5.251.839 20.641 20.641 0 0 0-3.761 1.7c-.649.37-1.265.78-1.863 1.216-.391.285-.761.595-1.131.906-.461.388-.891.806-1.303 1.238-.393.41-.758.842-1.109 1.285-.418.53-.797 1.082-1.144 1.652-.288.475-.55.964-.783 1.466a17.46 17.46 0 0 0-.505 1.19A16.61 16.61 0 0 0-34.761 0l-.052.191h-1.007c.04-.152.079-.302.128-.467.117-.394.243-.774.376-1.13.142-.378.311-.778.533-1.257.245-.527.525-1.053.835-1.562.373-.615.781-1.204 1.213-1.751a18.782 18.782 0 0 1 2.548-2.665 22.67 22.67 0 0 1 1.183-.946 20.847 20.847 0 0 1 1.954-1.275 23.46 23.46 0 0 1 1.876-.965 21.467 21.467 0 0 1 2.057-.812 17.392 17.392 0 0 1 5.561-.889l.185.001.166-.001c1.938 0 3.809.299 5.561.889.713.241 1.405.513 2.057.812.618.282 1.232.598 1.875.965.639.364 1.278.781 1.955 1.275.405.296.776.604 1.183.946.441.372.893.801 1.382 1.311.381.4.763.844 1.168 1.355.43.546.838 1.135 1.212 1.75.309.509.589 1.035.834 1.562.221.479.391.878.533 1.257.133.356.26.736.377 1.13.049.165.088.315.129.467H.053C.035.128.019.063 0 0" style="fill:#002f6d;fill-opacity:1;fill-rule:nonzero;stroke:none" transform="matrix(2.0588 0 0 -2.0588 122.33 112.737)"/><path d="M0 0a5.035 5.035 0 0 1-2.31 3.224c-.893.537-1.854.978-2.784 1.405a45.23 45.23 0 0 0-.442.203l-.346.158c-.805.366-1.638.745-2.29 1.328-.531.474-.832 1.057-.849 1.641-.002.096 0 .175.006.246.065.688.523 1.301 1.194 1.605.386.172.807.267 1.249.279a4.31 4.31 0 0 0 1.043-.126c2.345-.583 3.172-3.085 3.179-3.109l1.08-.002.002 4.179-.003.469v.072l-.52-.001a.968.968 0 0 0-.027-.073v-.001c-.001-.003-.003-.005-.003-.008-.016-.032-.03-.055-.03-.055a.516.516 0 0 0-.094-.109.963.963 0 0 0-.245-.149 1.676 1.676 0 0 0-.671-.12 3.172 3.172 0 0 0-.5.043 6.34 6.34 0 0 0-.842.217c-.188.057-.38.116-.571.163-.24.056-.524.121-.811.157a6.992 6.992 0 0 1-1.161.063 6.106 6.106 0 0 1-2.136-.377l-.059-.022a4.74 4.74 0 0 1-.368-.163l-.084-.042a3.087 3.087 0 0 1-.114-.065l-.074-.043a4.839 4.839 0 0 1-.938-.703c-.948-.917-1.429-2.076-1.429-3.445 0-.098.009-.195.016-.289l.007-.094a5.17 5.17 0 0 1 .249-1.251c.113-.34.237-.629.377-.885a5.247 5.247 0 0 1 1.801-1.912c.894-.569 1.872-1.014 2.817-1.445l.25-.113A31.823 31.823 0 0 0-4.868.098l.074-.039c.464-.244.943-.495 1.315-.866.451-.449.673-1.07.626-1.747a2.778 2.778 0 0 0-1.082-2.009c-.643-.486-1.44-.604-1.995-.618h-.019l-.037-.001a4.808 4.808 0 0 0-1.634.29c-2.778 1.039-3.289 4.586-3.293 4.621H-12v-6.123l.527.001.026.043a1.263 1.263 0 0 0 .401.379c.169.1.361.153.557.159.297.009.591-.082.865-.187l.039-.015c.314-.125.559-.216.792-.3a7.232 7.232 0 0 1 1.343-.359c.055-.01.112-.018.176-.028l.045-.007a10.186 10.186 0 0 1 1.401-.109h.024l.048.001.017-.001h.053a6.8 6.8 0 0 1 1.159.092l.044.01c1.2.188 2.213.666 3.012 1.423.911.863 1.443 1.96 1.58 3.26A6.065 6.065 0 0 1 0 0" style="fill:#002f6d;fill-opacity:1;fill-rule:nonzero;stroke:none" transform="matrix(2.0588 0 0 -2.0588 63.868 97.238)"/><path d="M0 0a5.03 5.03 0 0 1-2.311 3.224c-.892.537-1.853.978-2.783 1.405l-.443.203c-.113.053-.23.105-.346.158-.804.366-1.637.745-2.29 1.328-.53.474-.832 1.057-.848 1.641-.002.096 0 .175.006.246.065.688.522 1.301 1.194 1.605.385.172.806.267 1.25.279.354 0 .705-.042 1.042-.126 2.345-.583 3.172-3.085 3.179-3.109l1.081-.002v4.179l-.002.469v.072l-.521-.001c-.007-.028-.017-.051-.026-.073v-.001l-.004-.008c-.015-.032-.029-.055-.029-.055a.516.516 0 0 0-.094-.109.963.963 0 0 0-.245-.149 1.676 1.676 0 0 0-.671-.12 3.162 3.162 0 0 0-.5.043 6.395 6.395 0 0 0-.843.217c-.187.057-.378.116-.57.163a7.054 7.054 0 0 1-1.972.22 6.106 6.106 0 0 1-2.136-.377l-.059-.022a4.93 4.93 0 0 1-.369-.163l-.083-.042c-.039-.021-.076-.043-.114-.065l-.073-.043a4.815 4.815 0 0 1-.939-.703c-.948-.917-1.429-2.076-1.429-3.445 0-.098.009-.195.016-.289l.007-.094c.031-.426.115-.847.25-1.251a5.34 5.34 0 0 1 .375-.885 5.25 5.25 0 0 1 1.802-1.912c.894-.569 1.872-1.014 2.818-1.445l.249-.113A30.957 30.957 0 0 0-4.869.098l.074-.039c.465-.244.944-.495 1.316-.866.451-.449.673-1.07.626-1.747a2.778 2.778 0 0 0-1.082-2.009c-.642-.486-1.44-.604-1.995-.618h-.02l-.036-.001a4.808 4.808 0 0 0-1.634.29c-2.778 1.039-3.289 4.586-3.293 4.621H-12v-6.123l.527.001.027.043a1.285 1.285 0 0 0 .4.379c.169.1.361.153.557.159.297.009.591-.082.865-.187l.038-.015c.315-.125.56-.216.792-.3a7.245 7.245 0 0 1 1.344-.359c.055-.01.111-.018.176-.028l.045-.007a10.158 10.158 0 0 1 1.4-.109h.025l.048.001.017-.001H-5.687c.42 0 .798.03 1.16.092l.044.01c1.2.188 2.213.666 3.012 1.423.911.863 1.443 1.96 1.58 3.26A6.004 6.004 0 0 1 0 0" style="fill:#002f6d;fill-opacity:1;fill-rule:nonzero;stroke:none" transform="matrix(2.0588 0 0 -2.0588 95.7 97.238)"/><path d="M0 0c-.844-1.238-1.854-2.182-3.035-2.83-1.181-.648-2.483-.972-3.905-.972-1.185 0-2.284.218-3.297.653a7.953 7.953 0 0 0-2.701 1.919 8.276 8.276 0 0 0-1.794 2.904c-.386 1.074-.579 2.298-.579 3.669 0 1.271.208 2.469.625 3.595a8.721 8.721 0 0 0 1.795 2.941 7.72 7.72 0 0 0 2.702 1.9c1.013.423 2.132.634 3.356.634.938 0 1.915-.192 2.934-.577 1.017-.385 1.593-.576 1.728-.576.286 0 .527.097.722.294.194.196.336.482.424.859h.63V8.404h-.607c-.588 1.648-1.371 2.921-2.349 3.82-.978.899-2.067 1.348-3.267 1.348-1.479 0-2.586-.691-3.321-2.076-.736-1.384-1.103-3.46-1.103-6.228 0-2.559.411-4.491 1.234-5.795.823-1.305 2.041-1.957 3.655-1.957 1.017 0 1.999.271 2.945.815C-2.263-1.126-1.42-.344-.68.677z" style="fill:#002f6d;fill-opacity:1;fill-rule:nonzero;stroke:none" transform="matrix(2.0588 0 0 -2.0588 132.68 103.606)"/><path d="m0 0-.592-.721 2.156-1.77-1.627-1.983.89-.731L2.46-3.218 4.548-4.94l.591.719L.182-.149z" style="fill:#002f6d;fill-opacity:1;fill-rule:nonzero;stroke:none" transform="matrix(2.0588 0 0 -2.0588 35.56 139.166)"/><path d="M0 0c.232-.08.472-.146.713-.196.246-.044.488-.065.721-.061.148.002.293.019.431.051a2.142 2.142 0 0 1 .042-.44c.041-.228.109-.462.199-.695a7.047 7.047 0 0 1 .734-1.284l1.066.259c-.127.164-.275.366-.352.47-.075.113-.15.231-.222.35-.144.243-.255.49-.33.734a1.731 1.731 0 0 0-.074.669.95.95 0 0 0 .156.447l.03.046.328.399-.051.043-.417.343-.306.251-.169.138-.05.04c-.034.029-.059.028-.071.026a.13.13 0 0 1-.048-.028.102.102 0 0 1-.024-.064c0-.011.002-.022.004-.033a.374.374 0 0 0-.081-.269l.068.081-.16-.195a.975.975 0 0 0-.408-.24 1.764 1.764 0 0 0-.67-.057 3.49 3.49 0 0 0-.786.182c-.13.046-.26.096-.385.149-.117.055-.344.161-.531.254L-.688.273C-.486.18-.255.088 0 0" style="fill:#002f6d;fill-opacity:1;fill-rule:nonzero;stroke:none" transform="matrix(2.0588 0 0 -2.0588 39.02 140.684)"/><path d="m0 0 1.018-.517 2.208 4.345-.699.353-.126.063.001.001-.195.099-.057.029c-.039.02-.064.014-.076.009a.118.118 0 0 1-.039-.038.1.1 0 0 1 .001-.099.379.379 0 0 0-.021-.279l-.016-.033-.214-.419-.296-.582-.74.377-.461-.908.741-.376Z" style="fill:#002f6d;fill-opacity:1;fill-rule:nonzero;stroke:none" transform="matrix(2.0588 0 0 -2.0588 55.933 157.687)"/><path d="m0 0 1.053-.534.413.812 1.293-.657.428.841-3.896 1.98-.428-.84L.413.813z" style="fill:#002f6d;fill-opacity:1;fill-rule:nonzero;stroke:none" transform="matrix(2.0588 0 0 -2.0588 50.25 154.975)"/><path d="M0 0c.312-.158.459-.505.326-.772-.138-.267-.505-.355-.817-.195-.313.158-.458.505-.326.773C-.679.072-.312.159 0 0m-.887-1.745c.809-.411 1.762-.197 2.125.475l.016.032C1.605-.546 1.221.359.396.778c-.809.412-1.762.199-2.125-.475l-.015-.032c-.353-.692.032-1.597.857-2.016" style="fill:#002f6d;fill-opacity:1;fill-rule:nonzero;stroke:none" transform="matrix(2.0588 0 0 -2.0588 54.686 147.602)"/><path d="m0 0-.56.284h.001l-.164.084-.195.099-.057.029c-.039.02-.064.014-.076.009a.135.135 0 0 1-.04-.039.103.103 0 0 1-.01-.067c.002-.011.007-.021.011-.031a.383.383 0 0 0-.02-.279l-.016-.031V.057l-.008-.016-.294-.575-.377-.739 4.98-2.532.448.883-4.06 2.064z" style="fill:#002f6d;fill-opacity:1;fill-rule:nonzero;stroke:none" transform="matrix(2.0588 0 0 -2.0588 49.927 154.109)"/><path d="m0 0-3.327 3.763L-7.141.392l.655-.741 3.031 2.681L-.781-.69l-.535-.474L-2.638.331l-.781-.69 1.321-1.495-.391-.347-1.323 1.495-.478-.424-.139-.123v.001l-.164-.145-.048-.042c-.033-.03-.036-.055-.036-.068a.117.117 0 0 1 .021-.052.106.106 0 0 1 .058-.033c.012-.002.023-.002.035-.002a.37.37 0 0 0 .251-.121l-.069.078.087-.097.303-.343.72-.815-.806-.712.654-.74 4.557 4.03L.48.425z" style="fill:#002f6d;fill-opacity:1;fill-rule:nonzero;stroke:none" transform="matrix(2.0588 0 0 -2.0588 141.755 143.927)"/><path d="m0 0-.659-.164-.415 1.664-.571-.142-.179-.045-.212-.052-.062-.015c-.044-.012-.058-.032-.063-.043a.107.107 0 0 1-.005-.056.096.096 0 0 1 .036-.056.383.383 0 0 0 .196-.241l.006-.023.3-1.2.607-2.433-2.201-.548-.754 3.018 1.565.392-.23.916-2.501-.625-.212-.053-.061-.016c-.043-.01-.058-.031-.064-.043a.11.11 0 0 1-.004-.054.096.096 0 0 1 .036-.058.376.376 0 0 0 .197-.242l-.025.102.034-.139.248-.991.851-3.411 3.35.837.344-1.376.961.241-.925 3.705.658.165.926-3.706.952.238L.536 1.901l-.952-.237z" style="fill:#002f6d;fill-opacity:1;fill-rule:nonzero;stroke:none" transform="matrix(2.0588 0 0 -2.0588 108.356 155.745)"/><path d="m0 0 3.872 2.016.652-1.254.925.481-1.107 2.13L-.456.876Z" style="fill:#002f6d;fill-opacity:1;fill-rule:nonzero;stroke:none" transform="matrix(2.0588 0 0 -2.0588 118.266 159.78)"/><path d="m0 0-.571-.297-.163-.085-.195-.101-.055-.03c-.039-.02-.05-.044-.052-.056a.115.115 0 0 1 .008-.055.094.094 0 0 1 .049-.047.376.376 0 0 0 .246-.187l.018-.036.302-.58L.806-3.815l.925.481-.488.938.976.507-.455.875-.976-.507z" style="fill:#002f6d;fill-opacity:1;fill-rule:nonzero;stroke:none" transform="matrix(2.0588 0 0 -2.0588 123.14 145.312)"/><path d="M0 0a.797.797 0 0 0 1.077-.329.797.797 0 0 0-.348-1.07.797.797 0 0 0-1.077.329A.796.796 0 0 0 0 0m1.157-2.222c.903.47 1.283 1.535.846 2.375-.165.318-.485.568-.905.706l.573.299-.397.761-1.353-.704-.252.482-.481-.251-.106-.054-.318-.166-.003-.001v-.001l-.058-.029c-.039-.02-.048-.045-.051-.057a.1.1 0 0 1 .008-.054.106.106 0 0 1 .048-.048.377.377 0 0 0 .248-.188l.056-.107-1.288-.67.395-.761.539.281c-.123-.417-.099-.822.068-1.144.436-.839 1.527-1.139 2.431-.669" style="fill:#002f6d;fill-opacity:1;fill-rule:nonzero;stroke:none" transform="matrix(2.0588 0 0 -2.0588 117.416 151.423)"/><path d="M0 0h4.365v-1.412h1.043V.987H0Z" style="fill:#002f6d;fill-opacity:1;fill-rule:nonzero;stroke:none" transform="matrix(2.0588 0 0 -2.0588 81.786 165.752)"/><path d="M0 0h-1.11c-.044 0-.064-.017-.072-.026a.1.1 0 0 1 .003-.117.383.383 0 0 0 .133-.28v-3.333h1.043v1.057h1.1v.987h-1.1z" style="fill:#002f6d;fill-opacity:1;fill-rule:nonzero;stroke:none" transform="matrix(2.0588 0 0 -2.0588 92.788 155.168)"/><path d="M0 0a.797.797 0 0 0 .803-.788A.797.797 0 0 0 0-1.577a.797.797 0 0 0-.804.789C-.804-.354-.443 0 0 0m0-2.504c1.019 0 1.848.77 1.848 1.716 0 .358-.17.728-.478 1.044h.646v.858H.489v.545H-.6c-.044 0-.063-.016-.071-.026a.108.108 0 0 1-.018-.053.098.098 0 0 1 .021-.063.175.175 0 0 1 .023-.024c.04-.04.109-.13.109-.259v-.12h-1.451V.256h.607c-.302-.313-.468-.682-.468-1.044 0-.946.829-1.716 1.848-1.716" style="fill:#002f6d;fill-opacity:1;fill-rule:nonzero;stroke:none" transform="matrix(2.0588 0 0 -2.0588 84.893 157.947)"/><path d="M0 0c-.027-.604-.05-1.124-.431-1.262-.351-.129-.723.103-.886.55-.24.657.035 1.339.038 1.345l.028.071-1.088.15-.019-.037c-.017-.033-.395-.805.004-1.899C-1.96-2.16-.952-2.715-.009-2.37c.995.362 1.055 1.381 1.103 2.198.037.623.069 1.16.461 1.303.451.165.757-.175.882-.518.269-.739-.079-1.526-.083-1.534l-.027-.062 1.061-.297.021.042c.022.039.515.983.067 2.214-.4 1.095-1.366 1.611-2.349 1.252C.08 1.847.036.822 0 0" style="fill:#002f6d;fill-opacity:1;fill-rule:nonzero;stroke:none" transform="matrix(2.0588 0 0 -2.0588 16.564 109.494)"/><path d="M0 0c.037-.301.041-.575.012-.823a2.387 2.387 0 0 0-.174-.668 1.844 1.844 0 0 0-.349-.518 1.982 1.982 0 0 0-.5-.376 2.349 2.349 0 0 0-.516-.2 4.775 4.775 0 0 0-.648-.122l-3.387-.416-.129 1.053 3.292.404c.406.051.718.139.935.264.242.14.406.322.494.545.086.222.114.476.079.759a1.568 1.568 0 0 1-.26.72c-.14.194-.343.331-.613.408-.24.07-.565.079-.97.029L-6.026.654l-.13 1.053 3.386.417c.24.03.459.042.658.039.199-.003.381-.025.55-.068.209-.054.403-.136.577-.247.175-.111.33-.253.464-.426.132-.174.244-.381.333-.615C-.1.569-.037.301 0 0" style="fill:#002f6d;fill-opacity:1;fill-rule:nonzero;stroke:none" transform="matrix(2.0588 0 0 -2.0588 21.253 95.694)"/><path d="M29.259 179.79c.076.619.084 1.183.025 1.694-.062.508-.181.97-.358 1.375-.186.403-.423.76-.719 1.066a4.081 4.081 0 0 1-1.03.775c-.314.17-.669.306-1.062.411a9.83 9.83 0 0 1-1.334.251l-6.973.857-.266-2.168 6.778-.832c.836-.105 1.478-.286 1.925-.543.498-.289.836-.663 1.017-1.122.177-.457.235-.98.163-1.563-.072-.587-.254-1.079-.536-1.482-.288-.4-.706-.682-1.262-.84-.494-.144-1.163-.163-1.997-.06l-6.777.834-.268-2.168 6.971-.859a9.75 9.75 0 0 1 1.355-.08c.41.006.784.052 1.132.14.43.111.83.28 1.188.509.36.228.68.52.955.877.272.358.503.784.686 1.266.181.49.31 1.042.387 1.661z" style="fill:none;stroke:#002f6d;stroke-width:.514702;stroke-linecap:butt;stroke-linejoin:miter;stroke-miterlimit:10;stroke-dasharray:none;stroke-opacity:1" transform="translate(-8.006 -84.095)"/><path d="M0 0a38.522 38.522 0 0 0 1.587-.651L4.05-1.706l-.169-1.043-6.013-.895.181 1.118 2.388.32c.75.092 1.424.155 2.023.19l.004.026a37.6 37.6 0 0 0-1.84.745l-2.213.962.174 1.077 2.403.218c.673.06 1.333.103 1.981.128l.004.025a33.88 33.88 0 0 0-1.859.818l-2.167 1.055.18 1.116 5.426-2.74L4.385.371 1.716.145A45.482 45.482 0 0 0 .004.026Z" style="fill:#002f6d;fill-opacity:1;fill-rule:nonzero;stroke:none" transform="matrix(2.0588 0 0 -2.0588 12.455 79.557)"/><path d="M0 0a38.522 38.522 0 0 0 1.587-.651L4.05-1.706l-.169-1.043-6.013-.895.181 1.118 2.388.32c.75.092 1.424.155 2.023.19l.004.026a37.6 37.6 0 0 0-1.84.745l-2.213.962.174 1.077 2.403.218c.673.06 1.333.103 1.981.128l.004.025a33.88 33.88 0 0 0-1.859.818l-2.167 1.055.18 1.116 5.426-2.74L4.385.371 1.716.145A45.482 45.482 0 0 0 .004.026Z" style="fill:none;stroke:#002f6d;stroke-width:.25;stroke-linecap:butt;stroke-linejoin:miter;stroke-miterlimit:10;stroke-dasharray:none;stroke-opacity:1" transform="matrix(2.0588 0 0 -2.0588 12.455 79.557)"/><path d="M0 0a2.99 2.99 0 0 1-.911.202 1.909 1.909 0 0 1-.744-.106 1.425 1.425 0 0 1-.56-.374 1.809 1.809 0 0 1-.364-.604 1.824 1.824 0 0 1-.12-.694c.008-.229.066-.445.179-.65a1.89 1.89 0 0 1 .493-.567 2.96 2.96 0 0 1 .82-.444c.33-.124.635-.191.912-.201a1.86 1.86 0 0 1 .742.106c.218.082.405.207.56.374.156.166.279.368.366.603.088.235.127.466.118.695a1.466 1.466 0 0 1-.179.649c-.11.203-.273.393-.491.567C.604-.271.331-.123 0 0m.383 1.027A3.747 3.747 0 0 0 1.455.426c.302-.246.534-.529.699-.848.164-.318.254-.668.271-1.048a3.1 3.1 0 0 0-.212-1.198 3.064 3.064 0 0 0-.625-1.045 2.504 2.504 0 0 0-.891-.616 2.699 2.699 0 0 0-1.083-.183c-.387.011-.79.094-1.204.248-.413.154-.77.355-1.071.6a2.667 2.667 0 0 0-.698.848 2.479 2.479 0 0 0-.272 1.048c-.014.38.056.781.212 1.2.156.419.365.767.625 1.045.261.276.558.481.891.614.333.134.694.194 1.083.183.388-.011.79-.093 1.203-.247" style="fill:#002f6d;fill-opacity:1;fill-rule:nonzero;stroke:none" transform="matrix(2.0588 0 0 -2.0588 19.693 60.461)"/><path d="M0 0a2.99 2.99 0 0 1-.911.202 1.909 1.909 0 0 1-.744-.106 1.425 1.425 0 0 1-.56-.374 1.809 1.809 0 0 1-.364-.604 1.824 1.824 0 0 1-.12-.694c.008-.229.066-.445.179-.65a1.89 1.89 0 0 1 .493-.567 2.96 2.96 0 0 1 .82-.444c.33-.124.635-.191.912-.201a1.86 1.86 0 0 1 .742.106c.218.082.405.207.56.374.156.166.279.368.366.603.088.235.127.466.118.695a1.466 1.466 0 0 1-.179.649c-.11.203-.273.393-.491.567C.604-.271.331-.123 0 0Zm.383 1.027A3.747 3.747 0 0 0 1.455.426c.302-.246.534-.529.699-.848.164-.318.254-.668.271-1.048a3.1 3.1 0 0 0-.212-1.198 3.064 3.064 0 0 0-.625-1.045 2.504 2.504 0 0 0-.891-.616 2.699 2.699 0 0 0-1.083-.183c-.387.011-.79.094-1.204.248-.413.154-.77.355-1.071.6a2.667 2.667 0 0 0-.698.848 2.479 2.479 0 0 0-.272 1.048c-.014.38.056.781.212 1.2.156.419.365.767.625 1.045.261.276.558.481.891.614.333.134.694.194 1.083.183.388-.011.79-.093 1.203-.247z" style="fill:none;stroke:#002f6d;stroke-width:.25;stroke-linecap:butt;stroke-linejoin:miter;stroke-miterlimit:10;stroke-dasharray:none;stroke-opacity:1" transform="matrix(2.0588 0 0 -2.0588 19.693 60.461)"/><path d="M0 0c-.565-.213-1.053-.396-1.331-.1-.255.271-.19.705.158 1.032.51.478 1.244.493 1.252.494l.075.001-.29 1.061-.041.001c-.036.002-.895.045-1.742-.751-.838-.787-.951-1.93-.264-2.662.726-.772 1.685-.427 2.456-.149.586.211 1.093.392 1.377.09.33-.352.139-.766-.127-1.015C.949-2.538.089-2.527.08-2.527l-.068.001.144-1.092.048-.003c.044-.004 1.106-.087 2.061.81.849.798.943 1.889.227 2.651C1.729.652.77.29 0 0" style="fill:#002f6d;fill-opacity:1;fill-rule:nonzero;stroke:none" transform="matrix(2.0588 0 0 -2.0588 41.025 29.919)"/><path d="M0 0a2.193 2.193 0 0 1-.631-.511 1.723 1.723 0 0 1-.349-.666 1.92 1.92 0 0 1-.032-.789c.043-.28.147-.57.314-.872.164-.299.347-.539.552-.722.202-.183.418-.309.649-.38.229-.072.472-.087.726-.047.253.039.514.133.783.281.19.105.379.229.562.369.182.141.345.288.488.443l.441-.8a4.75 4.75 0 0 0-.507-.436 5.313 5.313 0 0 0-.612-.395 3.699 3.699 0 0 0-1.237-.443 2.53 2.53 0 0 0-1.103.071c-.342.101-.654.28-.936.53a3.557 3.557 0 0 0-.735.943 3.683 3.683 0 0 0-.418 1.174c-.064.396-.054.775.034 1.14.086.366.258.71.514 1.032.255.322.592.6 1.01.834.216.119.427.218.635.294.208.076.404.131.587.163l.436-.789A4.427 4.427 0 0 1 .532.246 4.176 4.176 0 0 1 0 0" style="fill:#002f6d;fill-opacity:1;fill-rule:nonzero;stroke:none" transform="matrix(2.0588 0 0 -2.0588 51.785 18.833)"/><path d="M0 0a2.193 2.193 0 0 1-.631-.511 1.723 1.723 0 0 1-.349-.666 1.92 1.92 0 0 1-.032-.789c.043-.28.147-.57.314-.872.164-.299.347-.539.552-.722.202-.183.418-.309.649-.38.229-.072.472-.087.726-.047.253.039.514.133.783.281.19.105.379.229.562.369.182.141.345.288.488.443l.441-.8a4.75 4.75 0 0 0-.507-.436 5.313 5.313 0 0 0-.612-.395 3.699 3.699 0 0 0-1.237-.443 2.53 2.53 0 0 0-1.103.071c-.342.101-.654.28-.936.53a3.557 3.557 0 0 0-.735.943 3.683 3.683 0 0 0-.418 1.174c-.064.396-.054.775.034 1.14.086.366.258.71.514 1.032.255.322.592.6 1.01.834.216.119.427.218.635.294.208.076.404.131.587.163l.436-.789A4.427 4.427 0 0 1 .532.246 4.176 4.176 0 0 1 0 0Z" style="fill:none;stroke:#002f6d;stroke-width:.25;stroke-linecap:butt;stroke-linejoin:miter;stroke-miterlimit:10;stroke-dasharray:none;stroke-opacity:1" transform="matrix(2.0588 0 0 -2.0588 51.785 18.833)"/><path d="m0 0-1.587 5.572 1.021.291L1.021.291Z" style="fill:#002f6d;fill-opacity:1;fill-rule:nonzero;stroke:none" transform="matrix(2.0588 0 0 -2.0588 64.454 24.792)"/><path d="m0 0-1.587 5.572 1.021.291L1.021.291Z" style="fill:none;stroke:#002f6d;stroke-width:.25;stroke-linecap:butt;stroke-linejoin:miter;stroke-miterlimit:10;stroke-dasharray:none;stroke-opacity:1" transform="matrix(2.0588 0 0 -2.0588 64.454 24.792)"/><path d="m0 0 2.828.345.108-.881-3.882-.473-.7 5.752 3.726.454.107-.882-2.673-.326.181-1.487 2.294.28.109-.881-2.296-.28Z" style="fill:#002f6d;fill-opacity:1;fill-rule:nonzero;stroke:none" transform="matrix(2.0588 0 0 -2.0588 74.95 20.272)"/><path d="m0 0 2.828.345.108-.881-3.882-.473-.7 5.752 3.726.454.107-.882-2.673-.326.181-1.487 2.294.28.109-.881-2.296-.28Z" style="fill:none;stroke:#002f6d;stroke-width:.25;stroke-linecap:butt;stroke-linejoin:miter;stroke-miterlimit:10;stroke-dasharray:none;stroke-opacity:1" transform="matrix(2.0588 0 0 -2.0588 74.95 20.272)"/><path d="M0 0c.415-.592.753-1.116 1.014-1.575h.025A39.62 39.62 0 0 0 .987.069v2.625h1.061V-3.1H.936L-.953-.433c-.333.463-.675.998-1.03 1.608h-.026c.034-.71.052-1.261.052-1.65V-3.1H-3.02v5.794h1.115z" style="fill:#002f6d;fill-opacity:1;fill-rule:nonzero;stroke:none" transform="matrix(2.0588 0 0 -2.0588 91.845 14.554)"/><path d="M0 0c.415-.592.753-1.116 1.014-1.575h.025A39.62 39.62 0 0 0 .987.069v2.625h1.061V-3.1H.936L-.953-.433c-.333.463-.675.998-1.03 1.608h-.026c.034-.71.052-1.261.052-1.65V-3.1H-3.02v5.794h1.115z" style="fill:none;stroke:#002f6d;stroke-width:.25;stroke-linecap:butt;stroke-linejoin:miter;stroke-miterlimit:10;stroke-dasharray:none;stroke-opacity:1" transform="matrix(2.0588 0 0 -2.0588 91.845 14.554)"/><path d="M0 0a2.17 2.17 0 0 1-.809.068 1.717 1.717 0 0 1-.713-.238 1.917 1.917 0 0 1-.57-.547 2.652 2.652 0 0 1-.379-.845 2.765 2.765 0 0 1-.102-.903c.019-.273.089-.514.205-.724.117-.211.281-.39.491-.537.209-.148.464-.26.759-.339.212-.057.433-.098.662-.124a3.75 3.75 0 0 1 .657-.019l-.235-.883a4.86 4.86 0 0 0-.667.037 5.375 5.375 0 0 0-.716.139 3.67 3.67 0 0 0-1.195.538 2.497 2.497 0 0 0-.749.814 2.488 2.488 0 0 0-.308 1.032c-.028.378.012.774.123 1.189.114.428.285.806.513 1.137.227.33.499.596.814.798A2.6 2.6 0 0 0-1.133.98 3.35 3.35 0 0 0 .174.883C.411.819.631.743.835.654c.202-.089.381-.185.535-.289l-.232-.871c-.204.13-.399.234-.583.315A4.395 4.395 0 0 1 0 0" style="fill:#002f6d;fill-opacity:1;fill-rule:nonzero;stroke:none" transform="matrix(2.0588 0 0 -2.0588 107.447 12.632)"/><path d="M0 0a2.17 2.17 0 0 1-.809.068 1.717 1.717 0 0 1-.713-.238 1.917 1.917 0 0 1-.57-.547 2.652 2.652 0 0 1-.379-.845 2.765 2.765 0 0 1-.102-.903c.019-.273.089-.514.205-.724.117-.211.281-.39.491-.537.209-.148.464-.26.759-.339.212-.057.433-.098.662-.124a3.75 3.75 0 0 1 .657-.019l-.235-.883a4.86 4.86 0 0 0-.667.037 5.375 5.375 0 0 0-.716.139 3.67 3.67 0 0 0-1.195.538 2.497 2.497 0 0 0-.749.814 2.488 2.488 0 0 0-.308 1.032c-.028.378.012.774.123 1.189.114.428.285.806.513 1.137.227.33.499.596.814.798A2.6 2.6 0 0 0-1.133.98 3.35 3.35 0 0 0 .174.883C.411.819.631.743.835.654c.202-.089.381-.185.535-.289l-.232-.871c-.204.13-.399.234-.583.315A4.395 4.395 0 0 1 0 0Z" style="fill:none;stroke:#002f6d;stroke-width:.25;stroke-linecap:butt;stroke-linejoin:miter;stroke-miterlimit:10;stroke-dasharray:none;stroke-opacity:1" transform="matrix(2.0588 0 0 -2.0588 107.447 12.632)"/><path d="m0 0 2.639-1.076-.336-.821-3.62 1.477L.872 4.944l3.476-1.419-.335-.822L1.52 3.721.953 2.334l2.141-.874-.335-.821-2.141.874Z" style="fill:#002f6d;fill-opacity:1;fill-rule:nonzero;stroke:none" transform="matrix(2.0588 0 0 -2.0588 114.448 24.504)"/><path d="m0 0 2.639-1.076-.336-.821-3.62 1.477L.872 4.944l3.476-1.419-.335-.822L1.52 3.721.953 2.334l2.141-.874-.335-.821-2.141.874Z" style="fill:none;stroke:#002f6d;stroke-width:.25;stroke-linecap:butt;stroke-linejoin:miter;stroke-miterlimit:10;stroke-dasharray:none;stroke-opacity:1" transform="matrix(2.0588 0 0 -2.0588 114.448 24.504)"/><path d="M0 0c-.21.199-.436.349-.678.447-.242.1-.49.144-.741.133A1.944 1.944 0 0 1-2.18.374a2.618 2.618 0 0 1-.738-.562 2.724 2.724 0 0 1-.521-.744 1.69 1.69 0 0 1-.167-.735c.001-.24.058-.476.173-.706.114-.23.282-.45.503-.66.159-.152.332-.294.522-.427.189-.132.378-.242.569-.331l-.631-.662a5.03 5.03 0 0 0-1.129.817 3.69 3.69 0 0 0-.793 1.045 2.534 2.534 0 0 0-.266 1.073c-.005.358.07.708.225 1.053.156.345.38.673.677.984.305.321.636.571.993.753.359.181.725.285 1.099.312.373.027.753-.034 1.137-.18A3.366 3.366 0 0 0 .574.691a4.84 4.84 0 0 0 .471-.515c.136-.177.246-.347.332-.512L.756-.988a4.36 4.36 0 0 1-.362.554A4.23 4.23 0 0 1 0 0" style="fill:#002f6d;fill-opacity:1;fill-rule:nonzero;stroke:none" transform="matrix(2.0588 0 0 -2.0588 142.27 32.396)"/><path d="M0 0c-.21.199-.436.349-.678.447-.242.1-.49.144-.741.133A1.944 1.944 0 0 1-2.18.374a2.618 2.618 0 0 1-.738-.562 2.724 2.724 0 0 1-.521-.744 1.69 1.69 0 0 1-.167-.735c.001-.24.058-.476.173-.706.114-.23.282-.45.503-.66.159-.152.332-.294.522-.427.189-.132.378-.242.569-.331l-.631-.662a5.03 5.03 0 0 0-1.129.817 3.69 3.69 0 0 0-.793 1.045 2.534 2.534 0 0 0-.266 1.073c-.005.358.07.708.225 1.053.156.345.38.673.677.984.305.321.636.571.993.753.359.181.725.285 1.099.312.373.027.753-.034 1.137-.18A3.366 3.366 0 0 0 .574.691a4.84 4.84 0 0 0 .471-.515c.136-.177.246-.347.332-.512L.756-.988a4.36 4.36 0 0 1-.362.554A4.23 4.23 0 0 1 0 0Z" style="fill:none;stroke:#002f6d;stroke-width:.25;stroke-linecap:butt;stroke-linejoin:miter;stroke-miterlimit:10;stroke-dasharray:none;stroke-opacity:1" transform="matrix(2.0588 0 0 -2.0588 142.27 32.396)"/><path d="M0 0c.269.229.474.463.618.7.146.237.234.472.269.702a1.46 1.46 0 0 1-.056.671c-.071.216-.189.42-.352.611a1.84 1.84 0 0 1-.549.442 1.439 1.439 0 0 1-.655.158 1.903 1.903 0 0 1-.735-.156 3.01 3.01 0 0 1-.787-.503 2.954 2.954 0 0 1-.616-.7 1.837 1.837 0 0 1-.268-.701 1.474 1.474 0 0 1 .057-.67c.069-.218.186-.422.349-.613a1.8 1.8 0 0 1 .551-.44 1.46 1.46 0 0 1 .654-.158c.233-.003.477.049.735.155.256.106.517.273.785.502m.714-.832a3.75 3.75 0 0 0-1.045-.647 2.683 2.683 0 0 0-1.081-.2c-.359.01-.707.101-1.047.272-.34.17-.656.425-.946.764A3.13 3.13 0 0 0-4.018.411a2.491 2.491 0 0 0-.106 1.077c.045.356.167.701.365 1.037.198.333.464.645.8.932.335.287.684.503 1.045.647.362.144.721.21 1.079.2a2.48 2.48 0 0 0 1.049-.271c.339-.172.655-.427.946-.766.291-.34.494-.692.611-1.053a2.46 2.46 0 0 0 .106-1.077A2.665 2.665 0 0 0 1.514.101a3.768 3.768 0 0 0-.8-.933" style="fill:#002f6d;fill-opacity:1;fill-rule:nonzero;stroke:none" transform="matrix(2.0588 0 0 -2.0588 150.234 48.078)"/><path d="M0 0c.269.229.474.463.618.7.146.237.234.472.269.702a1.46 1.46 0 0 1-.056.671c-.071.216-.189.42-.352.611a1.84 1.84 0 0 1-.549.442 1.439 1.439 0 0 1-.655.158 1.903 1.903 0 0 1-.735-.156 3.01 3.01 0 0 1-.787-.503 2.954 2.954 0 0 1-.616-.7 1.837 1.837 0 0 1-.268-.701 1.474 1.474 0 0 1 .057-.67c.069-.218.186-.422.349-.613a1.8 1.8 0 0 1 .551-.44 1.46 1.46 0 0 1 .654-.158c.233-.003.477.049.735.155.256.106.517.273.785.502Zm.714-.832a3.75 3.75 0 0 0-1.045-.647 2.683 2.683 0 0 0-1.081-.2c-.359.01-.707.101-1.047.272-.34.17-.656.425-.946.764A3.13 3.13 0 0 0-4.018.411a2.491 2.491 0 0 0-.106 1.077c.045.356.167.701.365 1.037.198.333.464.645.8.932.335.287.684.503 1.045.647.362.144.721.21 1.079.2a2.48 2.48 0 0 0 1.049-.271c.339-.172.655-.427.946-.766.291-.34.494-.692.611-1.053a2.46 2.46 0 0 0 .106-1.077A2.665 2.665 0 0 0 1.514.101a3.768 3.768 0 0 0-.8-.933Z" style="fill:none;stroke:#002f6d;stroke-width:.25;stroke-linecap:butt;stroke-linejoin:miter;stroke-miterlimit:10;stroke-dasharray:none;stroke-opacity:1" transform="matrix(2.0588 0 0 -2.0588 150.234 48.078)"/><path d="m0 0-4.592-1.728.954-2.537-.83-.312-1.328 3.529L-.373.992z" style="fill:#002f6d;fill-opacity:1;fill-rule:nonzero;stroke:none" transform="matrix(2.0588 0 0 -2.0588 160.663 55.674)"/><path d="m0 0-4.592-1.728.954-2.537-.83-.312-1.328 3.529L-.373.992z" style="fill:none;stroke:#002f6d;stroke-width:.25;stroke-linecap:butt;stroke-linejoin:miter;stroke-miterlimit:10;stroke-dasharray:none;stroke-opacity:1" transform="matrix(2.0588 0 0 -2.0588 160.663 55.674)"/><path d="m0 0-4.873-.573.316-2.693-.88-.103-.442 3.745 5.754.677z" style="fill:#002f6d;fill-opacity:1;fill-rule:nonzero;stroke:none" transform="matrix(2.0588 0 0 -2.0588 165.13 69.746)"/><path d="m0 0-4.873-.573.316-2.693-.88-.103-.442 3.745 5.754.677z" style="fill:none;stroke:#002f6d;stroke-width:.25;stroke-linecap:butt;stroke-linejoin:miter;stroke-miterlimit:10;stroke-dasharray:none;stroke-opacity:1" transform="matrix(2.0588 0 0 -2.0588 165.13 69.746)"/><path d="m0 0-.035-2.85-.888.012.049 3.91L4.919 1l-.046-3.753-.888.011.034 2.692-1.498.019-.029-2.312-.888.011.028 2.311Z" style="fill:#002f6d;fill-opacity:1;fill-rule:nonzero;stroke:none" transform="matrix(2.0588 0 0 -2.0588 156.036 83.932)"/><path d="m0 0-.035-2.85-.888.012.049 3.91L4.919 1l-.046-3.753-.888.011.034 2.692-1.498.019-.029-2.312-.888.011.028 2.311Z" style="fill:none;stroke:#002f6d;stroke-width:.25;stroke-linecap:butt;stroke-linejoin:miter;stroke-miterlimit:10;stroke-dasharray:none;stroke-opacity:1" transform="matrix(2.0588 0 0 -2.0588 156.036 83.932)"/><path d="m0 0 .401 1.235.844-.274-.727-2.244-2.781.903c-.005.092-.002.206.007.346.008.138.027.29.051.456.025.167.057.336.095.509s.083.342.135.506c.162.495.369.905.621 1.231.253.325.542.571.862.74.321.167.67.258 1.043.272.373.013.761-.045 1.165-.176.286-.093.548-.213.786-.361a3.1 3.1 0 0 0 .629-.52c.18-.196.331-.413.451-.648a2.91 2.91 0 0 0 .259-.761c.052-.271.067-.554.045-.848a3.866 3.866 0 0 0-.184-.912 5.349 5.349 0 0 0-.316-.771 3.547 3.547 0 0 0-.346-.567l-.856.278c.137.193.26.392.367.598.106.207.195.422.267.645.097.298.144.592.14.883-.006.29-.063.558-.176.805a1.944 1.944 0 0 1-.498.661 2.346 2.346 0 0 1-.833.452C.8 2.647.257 2.635-.178 2.402c-.435-.231-.753-.659-.954-1.279A3.304 3.304 0 0 1-1.23.76a2.922 2.922 0 0 1-.059-.341Z" style="fill:#002f6d;fill-opacity:1;fill-rule:nonzero;stroke:none" transform="matrix(2.0588 0 0 -2.0588 157.4 102.112)"/><path d="m0 0 .401 1.235.844-.274-.727-2.244-2.781.903c-.005.092-.002.206.007.346.008.138.027.29.051.456.025.167.057.336.095.509s.083.342.135.506c.162.495.369.905.621 1.231.253.325.542.571.862.74.321.167.67.258 1.043.272.373.013.761-.045 1.165-.176.286-.093.548-.213.786-.361a3.1 3.1 0 0 0 .629-.52c.18-.196.331-.413.451-.648a2.91 2.91 0 0 0 .259-.761c.052-.271.067-.554.045-.848a3.866 3.866 0 0 0-.184-.912 5.349 5.349 0 0 0-.316-.771 3.547 3.547 0 0 0-.346-.567l-.856.278c.137.193.26.392.367.598.106.207.195.422.267.645.097.298.144.592.14.883-.006.29-.063.558-.176.805a1.944 1.944 0 0 1-.498.661 2.346 2.346 0 0 1-.833.452C.8 2.647.257 2.635-.178 2.402c-.435-.231-.753-.659-.954-1.279A3.304 3.304 0 0 1-1.23.76a2.922 2.922 0 0 1-.059-.341Z" style="fill:none;stroke:#002f6d;stroke-width:.25;stroke-linecap:butt;stroke-linejoin:miter;stroke-miterlimit:10;stroke-dasharray:none;stroke-opacity:1" transform="matrix(2.0588 0 0 -2.0588 157.4 102.112)"/><path d="m0 0-.946-2.688-.837.295 1.3 3.69L4.981-.628 3.733-4.17l-.837.295.894 2.54-1.412.498-.769-2.181-.838.295.769 2.181z" style="fill:#002f6d;fill-opacity:1;fill-rule:nonzero;stroke:none" transform="matrix(2.0588 0 0 -2.0588 152.401 110.679)"/><path d="m0 0-.946-2.688-.837.295 1.3 3.69L4.981-.628 3.733-4.17l-.837.295.894 2.54-1.412.498-.769-2.181-.838.295.769 2.181z" style="fill:none;stroke:#002f6d;stroke-width:.25;stroke-linecap:butt;stroke-linejoin:miter;stroke-miterlimit:10;stroke-dasharray:none;stroke-opacity:1" transform="matrix(2.0588 0 0 -2.0588 152.401 110.679)"/><path d="m0 0-.907-3.387 1.03-.275L1.305.754l-3.306.885-.276-1.03z" style="fill:#002f6d;fill-opacity:1;fill-rule:nonzero;stroke:none" transform="matrix(2.0588 0 0 -2.0588 70.226 154.446)"/><path d="m0 0 .275 1.03-.76.203.367 1.371h-.001l.13.483-1.093.293c-.043.011-.067 0-.078-.008a.094.094 0 0 1-.031-.045.106.106 0 0 1 .022-.097.386.386 0 0 0 .039-.277l-.045-.168.001-.001-1.172-4.375-2.341.627.64 2.388-1.029.275-.64-2.387-.684.182-.168.046-.258-.958.169-.046v-.001l4.054-1.085-.14-.524.001-.001 1.022-.274.007-.001.951 3.554z" style="fill:#002f6d;fill-opacity:1;fill-rule:nonzero;stroke:none" transform="matrix(2.0588 0 0 -2.0588 76.61 160.014)"/></svg>