<svg xmlns="http://www.w3.org/2000/svg" width="213.95132mm" height="213.95132mm" viewBox="0 0 213.95132 213.95132"><g transform="matrix(1.17832 0 0 1.17832 -12.991 -81.71)"><circle cx="101.81216" cy="160.13217" r="90.78698" style="fill:#f9f9f9;stroke:#fff;stroke-width:0"/><path d="M0 0c0 53.171 43.276 96.433 96.457 96.433 53.158 0 96.415-43.262 96.415-96.433 0-53.152-43.257-96.408-96.415-96.408C43.276-96.408 0-53.152 0 0m96.457-98.791C150.92-98.791 195.24-54.47 195.24 0c0 54.479-44.32 98.793-98.783 98.793C41.978 98.793-2.349 54.479-2.349 0c0-54.47 44.327-98.791 98.806-98.791" style="fill:#231f20;fill-opacity:1;fill-rule:nonzero;stroke:none" transform="matrix(.89165 0 0 -.89165 15.805 159.708)"/><path d="M0 0c0 51.958 42.272 94.234 94.235 94.234 51.958 0 94.212-42.276 94.212-94.234 0-51.962-42.254-94.229-94.212-94.229C42.272-94.229 0-51.962 0 0m94.235-95.121c52.439 0 95.117 42.683 95.117 95.121 0 52.457-42.678 95.124-95.117 95.124C41.774 95.124-.884 52.457-.884 0c0-52.438 42.658-95.121 95.119-95.121" style="fill:#231f20;fill-opacity:1;fill-rule:nonzero;stroke:none" transform="matrix(.89165 0 0 -.89165 17.776 159.708)"/><path d="m0 0-.031-.107c-.173-.666-.575-1.161-1.181-1.5-.613-.358-1.262-.434-1.911-.235-.702.196-1.238.584-1.595 1.184-.354.604-.45 1.236-.243 1.896.169.649.569 1.137 1.153 1.501a2.419 2.419 0 0 0 1.927.196 2.649 2.649 0 0 0 1.59-1.134C.062 1.258.187.646 0 0" style="fill:#231f20;fill-opacity:1;fill-rule:nonzero;stroke:none" transform="matrix(.89165 0 0 -.89165 33.067 140.71)"/><path d="M0 0c-.452-.692-.917-1.783-1.012-2.93-.089-1.228.396-1.914 1.224-1.988.766-.058 1.255.469 1.894 1.863C2.998-1.129 4.233.092 6.064-.047c2.138-.172 3.621-1.986 3.409-4.797-.091-1.353-.441-2.305-.856-2.987l-2.211.76c.265.462.696 1.303.763 2.435.094 1.191-.433 1.785-1.074 1.829-.793.065-1.187-.563-1.919-2.064-.984-2.039-2.2-2.94-3.964-2.805-2.098.149-3.782 1.822-3.541 5.07.106 1.362.586 2.7 1.033 3.317z" style="fill:#231f20;fill-opacity:1;fill-rule:nonzero;stroke:none" transform="matrix(.89165 0 0 -.89165 25.798 150.77)"/><path d="m0 0-7.207-.645c-2.153-.187-3.19-1.085-3.068-2.451.134-1.416 1.263-2.084 3.458-1.882l7.186.629.235-2.673-6.997-.648c-3.864-.329-5.852 1.354-6.126 4.465-.275 3.004 1.317 4.906 5.29 5.26l6.977.639z" style="fill:#231f20;fill-opacity:1;fill-rule:nonzero;stroke:none" transform="matrix(.89165 0 0 -.89165 34.023 162.5)"/><path d="m0 0 11.19 6.328.826-2.758-4.677-2.375A226.861 226.861 0 0 0 3.333-.737l.011-.032c1.364.212 2.887.359 4.474.542l5.202.5.835-2.735-4.812-2.445a71.154 71.154 0 0 0-3.811-1.841v-.026c1.388.228 2.853.411 4.384.599l5.191.551.78-2.613-12.892-.701-.83 2.801 4.851 2.54c1.146.6 2.215 1.104 3.544 1.66l-.016.041c-1.406-.236-2.592-.39-3.904-.459L.864-2.837Z" style="fill:#231f20;fill-opacity:1;fill-rule:nonzero;stroke:none" transform="matrix(.89165 0 0 -.89165 24.625 175.872)"/><path d="M0 0c1.647-3.044 4.976-3.922 8.587-1.961 3.053 1.658 4.607 4.792 2.868 8.016C9.77 9.126 6.2 9.799 2.901 7.996-.233 6.292-1.697 3.113-.018.007Zm2.018 1.001c-.866 1.603.228 3.426 2.309 4.543 2.049 1.11 4.218 1.133 5.105-.493.882-1.639-.317-3.455-2.301-4.536C4.976-.643 2.895-.619 2.023.987Z" style="fill:#231f20;fill-opacity:1;fill-rule:nonzero;stroke:none" transform="matrix(.89165 0 0 -.89165 31.413 193.706)"/><path d="m0 0 9.701 7.947 2.003-2.433L9.696.671C9.141-.706 8.365-2.249 7.6-3.565l.029-.021c1.18 1.188 2.462 2.282 3.937 3.48l2.831 2.323L15.963.282l-9.738-7.94-1.779 2.205L6.578-.41a54.604 54.604 0 0 0 2.111 4.402l-.046.038A102.497 102.497 0 0 0 4.484.478L1.572-1.907Z" style="fill:#231f20;fill-opacity:1;fill-rule:nonzero;stroke:none" transform="matrix(.89165 0 0 -.89165 36.28 201.37)"/><path d="m0 0 6.171 11.275 2.181-1.919-2.751-4.478a356.376 356.376 0 0 0-2.374-3.746l.021-.029c1.046.924 2.245 1.836 3.521 2.809l4.15 3.182 2.142-1.918L10.274.608A78.398 78.398 0 0 0 7.978-2.98L8-3c1.073.937 2.218 1.854 3.408 2.82l4.111 3.212 2.058-1.831L6.98-6.174 4.798-4.241 7.592.473a65.751 65.751 0 0 0 2.126 3.312l-.006.002c-1.095-.919-2.019-1.693-3.08-2.46L2.21-1.952Z" style="fill:#231f20;fill-opacity:1;fill-rule:nonzero;stroke:none" transform="matrix(.89165 0 0 -.89165 49.104 216.434)"/><path d="M0 0c3.021-1.705 6.285-.722 8.327 2.852 1.736 3.022 1.417 6.51-1.763 8.343-3.046 1.724-6.426.432-8.28-2.833C-3.504 5.24-3.093 1.768-.013.018Zm1.191 1.948C-.377 2.815-.407 4.95.768 7.023c1.149 2.01 3.014 3.152 4.61 2.241 1.603-.924 1.539-3.102.425-5.056-1.219-2.134-3.006-3.173-4.594-2.3Z" style="fill:#231f20;fill-opacity:1;fill-rule:nonzero;stroke:none" transform="matrix(.89165 0 0 -.89165 64.237 228.03)"/><path d="M0 0c.444 1.473.939 3.19 1.51 4.96l-.039.007A91.969 91.969 0 0 0-1.299.741l-2.898-4.194-1.99.658.261 4.981c.095 1.536.272 3.358.495 5.022l-.026.006c-.579-1.599-1.249-3.422-1.793-4.899l-1.689-4.447-2.372.776 4.608 11.686 3.42-1.101-.195-4.364c-.097-1.476-.223-3.091-.415-4.569l.042-.025c.772 1.291 1.658 2.731 2.476 3.928l2.503 3.588 3.345-1.074L1.196-5.424l-2.482.804Z" style="fill:#231f20;fill-opacity:1;fill-rule:nonzero;stroke:none" transform="matrix(.89165 0 0 -.89165 82.368 230.832)"/><path d="m0 0-4.343.546-.375-2.96 4.875-.615-.304-2.318-7.537.979 1.578 12.436 7.304-.914-.322-2.325-4.594.602-.327-2.602 4.346-.554Z" style="fill:#231f20;fill-opacity:1;fill-rule:nonzero;stroke:none" transform="matrix(.89165 0 0 -.89165 94.696 232.497)"/><path d="m0 0-.635 12.532 3.116.159 2.718-4.496A35.328 35.328 0 0 0 7.371 4.01l.047.013c-.25 1.641-.389 3.335-.498 5.222l-.185 3.638 2.476.146.643-12.52L7.032.355 4.224 5.043C3.449 6.354 2.57 7.936 1.942 9.375l-.071-.038c.166-1.652.304-3.387.414-5.455L2.466.12Z" style="fill:#231f20;fill-opacity:1;fill-rule:nonzero;stroke:none" transform="matrix(.89165 0 0 -.89165 99.378 237.488)"/><path d="m0 0 .499-5.019-1.569-.301-1.29 4.9Z" style="fill:#231f20;fill-opacity:1;fill-rule:nonzero;stroke:none" transform="matrix(.89165 0 0 -.89165 111.9 224.736)"/><path d="M0 0c.798-.188 1.989-.256 3.099.068 1.176.351 1.66 1.044 1.42 1.85-.2.713-.869 1.009-2.39 1.112-2.132.167-3.689.886-4.19 2.648-.596 2.06.59 4.112 3.274 4.885 1.312.368 2.339.385 3.102.233l.057-2.36c-.521.112-1.424.216-2.555-.114C.688 8.002.309 7.305.482 6.679c.236-.771.962-.915 2.622-1.06 2.262-.232 3.519-1.07 4.015-2.748C7.7.823 6.73-1.312 3.587-2.219 2.292-2.574.871-2.616.132-2.409Z" style="fill:#231f20;fill-opacity:1;fill-rule:nonzero;stroke:none" transform="matrix(.89165 0 0 -.89165 116.458 232.867)"/><path d="m0 0-.029.113a2.37 2.37 0 0 0 .243 1.895c.33.607.839 1.02 1.514 1.205.703.184 1.34.122 1.955-.213.629-.305 1.021-.811 1.219-1.504a2.34 2.34 0 0 0-.227-1.834c-.346-.609-.861-1.012-1.548-1.217-.67-.166-1.325-.126-1.936.186C.587-1.109.187-.633 0 0" style="fill:#231f20;fill-opacity:1;fill-rule:nonzero;stroke:none" transform="matrix(.89165 0 0 -.89165 170.216 140.995)"/><path d="m0 0 3.817-7.33-2.114-1.129L-1.8-1.923l-3.658-6.462-2.063 1.162L-3.539.022l-3.373.044.018 2.195 10.44-.105-.03-2.189Z" style="fill:#231f20;fill-opacity:1;fill-rule:nonzero;stroke:none" transform="matrix(.89165 0 0 -.89165 101.111 81.985)"/><path d="m0 0 .057 4.295-2.443.029-.158-16.704 2.425-.031.102 10.246 2.233-.026.028 2.175z" style="fill:#231f20;fill-opacity:1;fill-rule:nonzero;stroke:none" transform="matrix(.89165 0 0 -.89165 108.157 83.533)"/><path d="M0 0a2.116 2.116 0 0 0 .457 2.976c.931.699 2.26.53 2.972-.412.702-.925.478-2.274-.456-2.963C2.026-1.109.691-.924 0 0m4.76-5.052 1.916 1.46-1.309 1.785L8.868.808 7.561 2.549 5.951 1.37c0-.162 0 0 0 0 .102.991-.074 1.827-.641 2.607-1.351 1.799-4.081 2.065-6.058.602-1.99-1.47-2.505-4.165-1.134-5.98.578-.791 1.343-1.188 2.319-1.368 0 0 .132-.031 0 0l-1.593-1.177L.159-5.691l3.27 2.428z" style="fill:#231f20;fill-opacity:1;fill-rule:nonzero;stroke:none" transform="matrix(.89165 0 0 -.89165 51.835 100.975)"/><path d="m0 0 1.221-1.644L4.256.646l.865-1.159L7.073.957-.592 11.175l-1.939-1.447 5.574-7.441Z" style="fill:#231f20;fill-opacity:1;fill-rule:nonzero;stroke:none" transform="matrix(.89165 0 0 -.89165 58.904 101.884)"/><path d="m0 0-1.658 2.179L-3.602.706l2.095-2.771c.223-.34.557-.504.944-.541.37-.061.741.048 1.049.26l8.451 6.308-1.304 1.734Z" style="fill:#231f20;fill-opacity:1;fill-rule:nonzero;stroke:none" transform="matrix(.89165 0 0 -.89165 59.266 107.258)"/><path d="m0 0-1.682-4.123-.972.417L-.965.392l-2.178.889-3.509-8.533-5.957 2.46 2.528 6.144L-5.485-.51l.811 1.972-6.818 2.834-3.647-8.863c-.173-.321-.15-.729 0-1.069.161-.335.447-.637.779-.746l6.886-2.847-2.023-4.922 2.164-.906 3.86 9.359.958-.389-3.866-9.353 2.168-.891L2.162-.907z" style="fill:#231f20;fill-opacity:1;fill-rule:nonzero;stroke:none" transform="matrix(.89165 0 0 -.89165 132.483 86.158)"/><path d="m0 0 1.944 2.225L.085 3.822l-6.18-7.102 1.833-1.602 2.868 3.29L.29-3.08l1.405 1.638z" style="fill:#231f20;fill-opacity:1;fill-rule:nonzero;stroke:none" transform="matrix(.89165 0 0 -.89165 153.995 103.074)"/><path d="m0 0-8.074 7.008-1.417-1.642 7.345-6.362-2.539-2.854 1.841-1.61L.098-2.061C.676-1.407.632-.544 0 0" style="fill:#231f20;fill-opacity:1;fill-rule:nonzero;stroke:none" transform="matrix(.89165 0 0 -.89165 148.49 107.46)"/><path d="M0 0a2.03 2.03 0 0 0 2.867.193c.834-.724.936-2.02.193-2.884-.737-.822-2.023-.893-2.868-.166A2.01 2.01 0 0 0 0 0m4.854-4.275c.504.6.671 1.364.756 2.144 0 0 .028.109 0 0l1.304-1.13 1.385 1.613-3.238 2.802 1.082 1.227-1.78 1.592-1.088-1.26L.107 5.479l-1.394-1.606L.171 2.615c.121.038 0 0 0 0-.758-.215-1.481-.459-2.019-1.081-1.497-1.725-1.191-4.419.647-6.019 1.835-1.587 4.564-1.508 6.055.21" style="fill:#231f20;fill-opacity:1;fill-rule:nonzero;stroke:none" transform="matrix(.89165 0 0 -.89165 145.01 97.71)"/><path d="m0 0 .672-2.019-2.125-.71.675-2.036 2.135.708.579-1.689-2.143-.747.697-2.034 2.125.717 2.721-8.044 2.309.799L2.304.797z" style="fill:#231f20;fill-opacity:1;fill-rule:nonzero;stroke:none" transform="matrix(.89165 0 0 -.89165 80.094 82.364)"/><path d="M0 0c1.394.5 2.1 2.158 1.57 3.742-.525 1.59-2.109 2.51-3.508 2.019-1.409-.458-2.102-2.154-1.573-3.726C-2.97.443-1.417-.457 0 0m-5.866 1.248c-.912 2.691.547 5.607 3.247 6.551 2.693.907 5.629-.575 6.547-3.253A5.19 5.19 0 0 0 .671-2.002c-2.7-.898-5.63.539-6.537 3.25" style="fill:#231f20;fill-opacity:1;fill-rule:nonzero;stroke:none" transform="matrix(.89165 0 0 -.89165 75.544 91.92)"/><path d="m0 0 1.824-1.222 3.78 5.481 4.007-2.742L11 3.521l-4.013 2.75 3.86 5.608-1.82 1.222z" style="fill:#231f20;fill-opacity:1;fill-rule:nonzero;stroke:none" transform="matrix(.89165 0 0 -.89165 38.92 124.671)"/><path d="m0 0-.433 2.303L-10.515.396l1.841-10.099 2.274.443-1.259 7.698Z" style="fill:#231f20;fill-opacity:1;fill-rule:nonzero;stroke:none" transform="matrix(.89165 0 0 -.89165 44.515 113.814)"/><path d="m0 0 3.778 2.613-1.185 1.696-3.76-2.604-1.408 2.039 3.776 2.6-1.183 1.7-3.758-2.603-1.994 2.856-1.815-1.259L1.553-6.123l1.82 1.258Z" style="fill:#231f20;fill-opacity:1;fill-rule:nonzero;stroke:none" transform="matrix(.89165 0 0 -.89165 159.331 123.699)"/><path d="m0 0-6.443 9.322-1.809-1.261 5.865-8.504-5.39-3.721 1.254-1.816 5.513 3.814.341.235.374.267C.252-1.305.376-.548 0 0" style="fill:#231f20;fill-opacity:1;fill-rule:nonzero;stroke:none" transform="matrix(.89165 0 0 -.89165 169.716 119.622)"/><path d="M0 0c-.054.036-.172.131-.179.136V.131A1.29 1.29 0 0 1-.83.312 1.228 1.228 0 0 1-2.055-.915c0-.516.306-.943.746-1.139l-.193.098c16.207-12.053 26.718-31.321 26.718-53.015 0-36.408-29.633-66.042-66.057-66.042-36.412 0-66.035 29.634-66.035 66.042 0 36.413 29.623 66.053 66.035 66.053a65.657 65.657 0 0 0 21.949-3.773v.016c.102-.019.195-.043.316-.043a1.23 1.23 0 0 1 1.226 1.217c0 .492-.296.897-.703 1.102v.013c-7.214 2.596-14.692 3.928-22.788 3.928-37.778 0-68.507-30.727-68.507-68.513 0-37.78 30.729-68.51 68.507-68.51 37.783 0 68.506 30.73 68.506 68.51C27.665-32.478 16.773-12.501 0 0" style="fill:#231f20;fill-opacity:1;fill-rule:nonzero;stroke:none" transform="matrix(.89165 0 0 -.89165 138.206 110.694)"/><path d="M0 0v-.008c15.474-11.67 25.508-30.199 25.508-51.024 0-35.2-28.651-63.856-63.864-63.856-35.202 0-63.856 28.656-63.856 63.856s28.654 63.863 63.856 63.863a63.42 63.42 0 0 0 20.972-3.56l.014.008a.436.436 0 0 1 .612.404.414.414 0 0 1-.216.36s-.022.037-.042.037h-.02a64.252 64.252 0 0 1-21.32 3.626c-35.69 0-64.727-29.041-64.727-64.738 0-35.692 29.037-64.737 64.727-64.737 35.709 0 64.752 29.045 64.752 64.737C26.396-29.861 16.164-11.031.414.779c0 0-.12.041-.184.041A.453.453 0 0 1-.224.377C-.224.215-.125.074 0 0" style="fill:#231f20;fill-opacity:1;fill-rule:nonzero;stroke:none" transform="matrix(.89165 0 0 -.89165 135.99 114.206)"/><path d="M0 0c-2.315-1.079-4.887-.366-6.003 2.027l-3.46 7.421 2.203 1.028 3.423-7.342c.607-1.3 1.731-1.722 2.92-1.166C.272 2.521.687 3.661.08 4.961l-3.423 7.341 2.188 1.02 3.46-7.42C3.422 3.507 2.315 1.079 0 0" style="fill:#231f20;fill-opacity:1;fill-rule:nonzero;stroke:none" transform="matrix(.89165 0 0 -.89165 136.254 229.486)"/><path d="m0 0-8.295 3.738 4.154-6.419-2.043-1.321-6.768 10.458 1.823 1.18 8.286-3.726-4.145 6.405 2.041 1.322L1.822 1.179z" style="fill:#231f20;fill-opacity:1;fill-rule:nonzero;stroke:none" transform="matrix(.89165 0 0 -.89165 148.273 221.497)"/><path d="m0 0-7.775 9.73 1.901 1.519L1.9 1.517Z" style="fill:#231f20;fill-opacity:1;fill-rule:nonzero;stroke:none" transform="matrix(.89165 0 0 -.89165 152.468 218.258)"/><path d="m0 0-1.213-1.356-12.025 5.242 1.681 1.878 7.717-3.55-4.381 7.278 1.691 1.888z" style="fill:#231f20;fill-opacity:1;fill-rule:nonzero;stroke:none" transform="matrix(.89165 0 0 -.89165 160.793 210.529)"/><path d="m0 0-9.868 7.603 5.008 6.501 1.718-1.324-3.525-4.576 2.316-1.783 3.001 3.894L.368 8.99l-3-3.892L-.234 3.25l3.525 4.574 1.718-1.323Z" style="fill:#231f20;fill-opacity:1;fill-rule:nonzero;stroke:none" transform="matrix(.89165 0 0 -.89165 164.615 205.628)"/><path d="m0 0-1.122-1.998 2.87-1.61L2.87-1.61c.523.93.27 1.874-.571 2.346C1.462 1.207.523.931 0 0m9.896-3.389-5.522.314-.857-1.527 4.334-2.432-1.192-2.121L-4.203-3.06l2.389 4.258c1.243 2.214 3.488 2.679 5.305 1.659C5.016 2.002 5.441.539 5.229-.729l6.046-.202z" style="fill:#231f20;fill-opacity:1;fill-rule:nonzero;stroke:none" transform="matrix(.89165 0 0 -.89165 164.513 188.194)"/><path d="M0 0c-.635-1.782-1.476-3.006-2.993-3.763l-.874 1.983c.965.492 1.558 1.414 1.946 2.502.482 1.35.257 2.247-.631 2.564-.39.139-.758.143-1.064-.028-.285-.158-.488-.382-.76-.9l-.692-1.35c-.5-.956-1.058-1.592-1.731-1.946-.729-.372-1.547-.396-2.481-.063-1.981.708-2.814 2.749-1.909 5.287.577 1.616 1.368 2.653 2.645 3.33l.839-1.935c-.934-.5-1.345-1.358-1.622-2.132-.434-1.22-.007-2.041.757-2.314.279-.098.611-.105.918.064.282.158.592.477.824.932l.681 1.316c.522 1.023 1.043 1.599 1.656 1.937.786.425 1.695.416 2.676.067C.336 4.781.875 2.452 0 0" style="fill:#231f20;fill-opacity:1;fill-rule:nonzero;stroke:none" transform="matrix(.89165 0 0 -.89165 175.852 182.469)"/><path d="m0 0-12.173 2.637.515 2.378L.515 2.376Z" style="fill:#231f20;fill-opacity:1;fill-rule:nonzero;stroke:none" transform="matrix(.89165 0 0 -.89165 178.405 175.56)"/><path d="m0 0 10.207-1.294-.306-2.413L-.305-2.412l-.411-3.23-2.15.274 1.124 8.87 2.153-.273z" style="fill:#231f20;fill-opacity:1;fill-rule:nonzero;stroke:none" transform="matrix(.89165 0 0 -.89165 171.147 163.4)"/><path d="m0 0 5.104.189.087-2.415-5.103-.186-7.209-4.008-.095 2.639 4.933 2.508L-7.385.836l-.095 2.639Z" style="fill:#231f20;fill-opacity:1;fill-rule:nonzero;stroke:none" transform="matrix(.89165 0 0 -.89165 175.65 152.905)"/><path d="M0 0v-23.388l-43.809-10.214v12.194z" style="fill:#903f98;fill-opacity:1;fill-rule:nonzero;stroke:none" transform="matrix(.89165 0 0 -.89165 123.511 175.452)"/><path d="M0 0v-23.388L-56.336-8.234v33.93z" style="fill:#fdb912;fill-opacity:1;fill-rule:nonzero;stroke:none" transform="matrix(.89165 0 0 -.89165 123.511 175.452)"/><path d="M0 0v-61.932l-67.205-28.664v33.932z" style="fill:#ed1b2f;fill-opacity:1;fill-rule:nonzero;stroke:none" transform="matrix(.89165 0 0 -.89165 133.203 102.015)"/></g></svg>