<svg xmlns="http://www.w3.org/2000/svg" width="209.09683mm" height="209.09024mm" viewBox="0 0 209.09683 209.09024"><path d="M0 0c-51.395 0-93.217-41.816-93.217-93.219.001-51.4 41.822-93.214 93.217-93.214 51.398-.001 93.221 41.814 93.221 93.214C93.221-41.815 51.398 0 0 0m0-188.358c-52.46 0-95.142 42.677-95.144 95.139C-95.142-40.756-52.46 1.926 0 1.926c52.466.001 95.146-42.682 95.146-95.145.001-52.462-42.68-95.139-95.146-95.139" style="fill:#5a2049;fill-opacity:1;fill-rule:nonzero;stroke:none" transform="matrix(1.09883 0 0 -1.09883 104.547 2.116)"/><path d="M0 0c0-50.155-40.659-90.82-90.821-90.82-50.155 0-90.814 40.665-90.814 90.82 0 50.16 40.658 90.819 90.815 90.82C-40.659 90.819 0 50.16 0 0" style="fill:#5a2049;fill-opacity:1;fill-rule:nonzero;stroke:none" transform="matrix(1.09883 0 0 -1.09883 204.343 104.548)"/><path d="M0 0c0-38.022-30.825-68.852-68.855-68.852-38.021 0-68.85 30.829-68.85 68.852 0 38.028 30.829 68.854 68.85 68.854C-30.825 68.854 0 38.028 0 0" style="fill:#fff;fill-opacity:1;fill-rule:nonzero;stroke:none" transform="matrix(1.09883 0 0 -1.09883 180.207 104.548)"/><path d="M0 0c0 6.683-2.241 12.101-4.999 12.101h-.178A39.449 39.449 0 0 1-32.6 1.018c-7.453-7.185-12.094-17.274-12.094-28.447l-.016-14.897-.008-.153c0-10.65 4.23-20.277 11.073-27.368.339-.35.763-.605 1.112-.946 7.381 7.164 11.979 17.173 12.013 28.274 0 .028.012.159.012.159l-.012 14.828V-27.429c.012 8.469 6.858 15.309 15.321 15.338H-4.999C-2.241-12.091 0-6.678 0 0" style="fill:#ef3d42;fill-opacity:1;fill-rule:nonzero;stroke:none" transform="matrix(1.09883 0 0 -1.09883 135.963 59.106)"/><path d="M0 0c0 6.689-2.236 12.103-4.999 12.102l-14.824-.009h-.099c-8.436.01-15.253 6.81-15.33 15.231-.035-11.096-4.633-21.111-12.014-28.275 7.098-6.851 16.702-11.158 27.344-11.158h.064l14.842.01h.018C-2.236-12.099 0-6.679 0 0" style="fill:#c6006f;fill-opacity:1;fill-rule:nonzero;stroke:none" transform="matrix(1.09883 0 0 -1.09883 152.152 135.851)"/><path d="M0 0c-6.843 7.09-11.038 16.745-11.073 27.367-.04-8.433-6.872-15.26-15.309-15.284l-14.939.001c-2.763-.001-5.001-5.412-4.999-12.088-.002-6.679 2.237-12.091 4.997-12.091h14.941c10.645 0 20.314 4.22 27.42 11.073.027.023.042.056.074.076C.763-.605.339-.35 0 0" style="fill:#fbb03f;fill-opacity:1;fill-rule:nonzero;stroke:none" transform="matrix(1.09883 0 0 -1.09883 98.993 135.856)"/><path d="M0 0c-1.429.004-2.51 1.157-2.489 2.548A2.497 2.497 0 0 0 .08 5.016c1.411-.024 2.491-1.141 2.465-2.568C2.527 1.079 1.426-.023 0 0" style="fill:#fff;fill-opacity:1;fill-rule:nonzero;stroke:none" transform="matrix(1.09883 0 0 -1.09883 18.257 107.052)"/><path d="M0 0c-.234.683.128 1.43.809 1.667A1.314 1.314 0 0 0 2.475.851a1.307 1.307 0 0 0-.814-1.663A1.304 1.304 0 0 0 0 0m4.187 1.444a3.104 3.104 0 0 1-1.176 1.552l1.212.423a.15.15 0 0 1 .098.188l-.493 1.421c-.029.084-.115.128-.189.099l-2.62-.9-.341.988a.156.156 0 0 1-.191.096l-1.661-.573a.15.15 0 0 1-.093-.19l.341-.988-2.621-.904c-.08-.025-.121-.109-.096-.193l.494-1.425a.15.15 0 0 1 .191-.094l1.216.419a3.126 3.126 0 0 1 .028-1.949 3.116 3.116 0 0 1 3.969-1.936 3.116 3.116 0 0 1 1.932 3.966" style="fill:#fff;fill-opacity:1;fill-rule:nonzero;stroke:none" transform="matrix(1.09883 0 0 -1.09883 127.892 185.346)"/><path d="m0 0-1.519-.521a.15.15 0 0 0-.189.094l-.888 2.583a.154.154 0 0 1-.194.092l-1.657-.57c-.078-.027-.124-.116-.094-.193l2.678-7.788a.153.153 0 0 1 .19-.092l1.659.57a.148.148 0 0 1 .094.193l-1.1 3.21c-.03.076.014.162.095.19l1.512.522c.075.028.122.115.094.193L.187-.093A.144.144 0 0 1 0 0" style="fill:#fff;fill-opacity:1;fill-rule:nonzero;stroke:none" transform="matrix(1.09883 0 0 -1.09883 137.795 179.812)"/><path d="m0 0-1.802-.619-6.372-2.192a.15.15 0 0 1-.093-.19l.491-1.427a.147.147 0 0 1 .191-.094l6.374 2.193.963-2.81a.153.153 0 0 1 .195-.092l1.654.569a.15.15 0 0 1 .095.193L.19-.091A.149.149 0 0 1 0 0" style="fill:#fff;fill-opacity:1;fill-rule:nonzero;stroke:none" transform="matrix(1.09883 0 0 -1.09883 138.038 186.953)"/><path d="m0 0 .003.003C.01.006.01.009.014.012L5.63 4.447 9.267-.164v-.004c.004-.002.004-.002.004-.006a.154.154 0 0 1 .21-.019l.078.058L10.858.891a.16.16 0 0 1 .044.189c-.01.009-.011.017-.018.027-.004.008-.01.013-.016.019L6.228 7c-.003.011-.01.018-.012.026l-.02.019a.153.153 0 0 1-.193.002L-1.12 1.429a.156.156 0 0 1-.026-.212l.94-1.189C-.158-.033-.069-.043 0 0" style="fill:#fff;fill-opacity:1;fill-rule:nonzero;stroke:none" transform="matrix(1.09883 0 0 -1.09883 150.61 172.022)"/><path d="m0 0-3.315-2.609a.15.15 0 0 0-.21.026L-5.876.395a.152.152 0 0 1-.211.024L-7.465-.669a.154.154 0 0 1-.027-.211l2.349-2.975a.152.152 0 0 0-.022-.214l-.595-.473c-.068-.048-.162-.038-.211.027l-2.352 2.977a.144.144 0 0 1-.21.022l-1.38-1.085a.152.152 0 0 1-.025-.212l2.347-2.975a.148.148 0 0 0-.022-.213L-9.335-7.36a.153.153 0 0 1-.026-.215l.935-1.183a.146.146 0 0 1 .211-.023l9.339 7.359c.062.058.077.152.021.217L.209-.021A.142.142 0 0 1 0 0" style="fill:#fff;fill-opacity:1;fill-rule:nonzero;stroke:none" transform="matrix(1.09883 0 0 -1.09883 165.276 172.286)"/><path d="m0 0-9.25 7.469a.154.154 0 0 1-.215-.023l-.942-1.172a.15.15 0 0 1 .021-.213l3.707-2.992a.15.15 0 0 0 .023-.211L-9.041-.096a.158.158 0 0 1 .02-.216l1.365-1.099a.156.156 0 0 1 .217.021l2.384 2.955a.15.15 0 0 0 .213.019l3.708-2.993a.15.15 0 0 1 .212.022L.025-.216A.16.16 0 0 1 0 0" style="fill:#fff;fill-opacity:1;fill-rule:nonzero;stroke:none" transform="matrix(1.09883 0 0 -1.09883 54.426 176.984)"/><path d="M0 0c.002-.004.007-.007.007-.01a.03.03 0 0 0 .02-.011A6.437 6.437 0 0 1 6.18-.949a.173.173 0 0 0 .149-.023.184.184 0 0 0 .051-.131c-.001-.008-.001-.011-.004-.02A6.461 6.461 0 0 1 8.58-6.932c.005-.003.008-.007.017-.01.001-.007.007-.009.01-.01a.153.153 0 0 1 .203.033l.947 1.172c.05.061.04.149-.016.207l-.006.002-.006.003a4.653 4.653 0 0 0-.666 6.31l.004.001c-.001.004.004.006.004.006a.152.152 0 0 1-.027.202v.002l-.003.003-.077.06-1.221.984-.068.061h-.004s-.002 0-.004.003a.146.146 0 0 1-.2-.02c-.003.001-.006-.005-.009-.008a4.65 4.65 0 0 0-6.306-.671s-.002-.002-.004.001c-.005.007-.01.009-.014.012a.151.151 0 0 1-.199-.035L-.016.203A.153.153 0 0 1 0 0" style="fill:#fff;fill-opacity:1;fill-rule:nonzero;stroke:none" transform="matrix(1.09883 0 0 -1.09883 45.482 167.99)"/><path d="M0 0c.002-.006.014-.014.02-.024.014-.004.029-.018.048-.022a.13.13 0 0 1 .148.029l.013.011 1.047 1.065.014.011c.011.02.02.037.026.055a.154.154 0 0 1-.024.145c-.007.006-.014.009-.016.018A5.508 5.508 0 0 0-.017 6.815v.006a.156.156 0 0 1-.087.188h-.005c-.003.004-.007.003-.007.003l-.086.032-1.476.518-.09.03-.003-.001-.002.001a.15.15 0 0 1-.188-.083c0-.003 0-.003-.004-.006v-.004A5.54 5.54 0 0 0-6.441 3.98a.139.139 0 0 1-.119-.096c-.006-.024-.008-.039-.006-.059v-.013l.148-1.486V2.3a.159.159 0 0 1 .1-.112c.023-.008.041-.013.06-.008 0 0 .013-.003.018 0a7.385 7.385 0 0 1 3.998 1.809c.002.003.004.008.012.014a.15.15 0 0 0 .143.025c.051-.017.083-.063.098-.109A7.315 7.315 0 0 1 0 0" style="fill:#fff;fill-opacity:1;fill-rule:nonzero;stroke:none" transform="matrix(1.09883 0 0 -1.09883 76.699 186.556)"/><path d="M0 0a1.529 1.529 0 0 0-.928 1.937 1.526 1.526 0 0 0 1.931.927A1.513 1.513 0 0 0 1.926.937 1.525 1.525 0 0 0 0 0m7.328 11.329-1.655.579c-.076.028-.153-.007-.189-.081l-.003-.008c-.002-.005-.002-.008-.006-.013l-.469-1.345a.153.153 0 0 0-.191-.089l-1.367.477a.15.15 0 0 1-.19-.087L2.756 9.34a.156.156 0 0 1 .094-.197l1.368-.478a.147.147 0 0 0 .091-.19L2.712 3.92a3.312 3.312 0 0 1-1.11.646A3.321 3.321 0 1 1-.595-1.701 3.317 3.317 0 0 1 3.637.336l3.788 10.802a.15.15 0 0 1-.097.191" style="fill:#fff;fill-opacity:1;fill-rule:nonzero;stroke:none" transform="matrix(1.09883 0 0 -1.09883 75.488 193.08)"/><path d="m0 0-5.411.097C-5.498.096-5.56.025-5.564-.06l-.137-7.774a.152.152 0 0 1 .148-.151l5.416-.093a.149.149 0 0 1 .151.147l.027 1.512a.144.144 0 0 1-.143.149l-.006-.001h-.007l-3.501.066.005.133v.037l.074 4.114.001.04a.14.14 0 0 0 .126.121h.044l3.334-.057h.006c.081 0 .15.068.15.149L.153-.155A.156.156 0 0 1 0 0" style="fill:#fff;fill-opacity:1;fill-rule:nonzero;stroke:none" transform="matrix(1.09883 0 0 -1.09883 103.812 184.68)"/><path d="m0 0-1.754.027c-.085 0-.151-.061-.151-.142l-.052-2.731a.148.148 0 0 0-.151-.148l-.757.014a.147.147 0 0 0-.149.153l.048 2.726a.157.157 0 0 1-.15.157l-1.754.03a.152.152 0 0 1-.154-.153l-.246-13.877c0-.081.071-.152.149-.152l1.755-.029a.15.15 0 0 1 .155.149l.158 9.036a.152.152 0 0 0 .155.15l.757-.012c.083-.005.152-.07.148-.157l-.159-9.034c0-.09.063-.157.152-.158l1.751-.033c.089 0 .149.066.153.151L.149-.154A.152.152 0 0 1 0 0" style="fill:#fff;fill-opacity:1;fill-rule:nonzero;stroke:none" transform="matrix(1.09883 0 0 -1.09883 110.327 183.48)"/><path d="M0 0c-.896-1.609-1.337-2.028-2.047-1.93-.543.078-1.116.616-.943 1.89a5.138 5.138 0 0 0 .872 2.259.308.308 0 0 1-.12.458l-1.745.781a.31.31 0 0 1-.379-.105c-.376-.539-.874-1.498-1.078-2.996-.19-1.375.024-2.6.619-3.545a3.587 3.587 0 0 1 2.596-1.669 3.306 3.306 0 0 1 2.537.665c.668.505 1.264 1.275 1.827 2.359C2.97-.267 3.513-.009 4.176-.101 5.042-.22 5.458-1.01 5.292-2.22c-.159-1.154-.69-2.163-1.133-2.73a.286.286 0 0 1-.066-.145.28.28 0 0 1 .006-.119.313.313 0 0 1 .18-.208l1.794-.771a.32.32 0 0 1 .363.088c.6.725 1.14 2.117 1.316 3.398.211 1.558-.021 2.902-.68 3.89-.599.903-1.543 1.485-2.664 1.641C2.553 3.077 1.195 2.208 0 0" style="fill:#fff;fill-opacity:1;fill-rule:nonzero;stroke:none" transform="matrix(1.09883 0 0 -1.09883 16.341 88.997)"/><path d="m0 0-.828-2.115a.31.31 0 0 1 .177-.402L6.113-5.17c2.012-.791 2.75-1.918 2.192-3.35-.257-.64-.688-1.052-1.285-1.221-.675-.191-1.537-.082-2.573.324l-6.765 2.655a.31.31 0 0 1-.4-.175l-.832-2.118a.308.308 0 0 1 .178-.399l6.642-2.609c4.494-1.759 6.442.433 7.283 2.583.598 1.522.622 2.898.072 4.085-.582 1.262-1.795 2.263-3.597 2.968L.403.172A.311.311 0 0 1 0 0" style="fill:#fff;fill-opacity:1;fill-rule:nonzero;stroke:none" transform="matrix(1.09883 0 0 -1.09883 17.64 65.212)"/><path d="M0 0c-1.489-1.082-2.063-1.273-2.667-.884-.458.297-.754 1.026-.059 2.111A5.072 5.072 0 0 0-.982 2.903a.32.32 0 0 1 .106.101.391.391 0 0 1 .044.115.298.298 0 0 1-.07.254l-1.252 1.442a.306.306 0 0 1-.387.063c-.571-.331-1.425-.99-2.243-2.261-.75-1.168-1.072-2.368-.932-3.477a3.574 3.574 0 0 1 1.652-2.605 3.309 3.309 0 0 1 2.583-.468c.817.176 1.684.622 2.648 1.365 1.418 1.075 2.017 1.077 2.579.719.735-.473.779-1.368.12-2.396-.631-.98-1.539-1.671-2.18-1.995a.29.29 0 0 1-.119-.108.301.301 0 0 1 .029-.371l1.307-1.457a.302.302 0 0 1 .359-.072c.85.401 1.929 1.441 2.629 2.525.847 1.321 1.209 2.642 1.025 3.815C6.751-.838 6.14.091 5.188.702 3.616 1.711 2.013 1.496 0 0" style="fill:#fff;fill-opacity:1;fill-rule:nonzero;stroke:none" transform="matrix(1.09883 0 0 -1.09883 30.04 54.948)"/><path d="m0 0-3.418-3.567-2.201 2.106 2.736 2.856a.31.31 0 0 1-.009.438l-1.335 1.278a.308.308 0 0 1-.435-.009L-7.399.245l-1.878 1.8 3.227 3.371a.302.302 0 0 1-.01.433l-1.348 1.295a.313.313 0 0 1-.436-.011L-12.859 1.9a.31.31 0 0 1 .008-.438l9-8.623a.316.316 0 0 1 .438.009l5.204 5.434a.308.308 0 0 1-.008.436L.434.011A.306.306 0 0 1 0 0" style="fill:#fff;fill-opacity:1;fill-rule:nonzero;stroke:none" transform="matrix(1.09883 0 0 -1.09883 47.34 43.452)"/><path d="M0 0c-.016.981.386 1.793 1.168 2.356.982.702 1.967.559 2.623.318.874-.324 1.731-1.019 2.407-1.958.721-1.007 1.126-2.089 1.142-3.031.012-.975-.387-1.78-1.154-2.327-1.768-1.27-3.805-.097-5.043 1.625C.422-2.009.019-.94 0 0m-.195 4.388c-2.99-2.143-3.435-5.93-1.081-9.208C-.19-6.337 1.258-7.368 2.808-7.723c1.617-.376 3.253-.021 4.713 1.023 1.47 1.055 2.365 2.47 2.587 4.084.234 1.68-.286 3.458-1.501 5.153-1.07 1.501-2.51 2.529-4.041 2.888-1.63.387-3.276.028-4.761-1.037" style="fill:#fff;fill-opacity:1;fill-rule:nonzero;stroke:none" transform="matrix(1.09883 0 0 -1.09883 51.29 30.329)"/><path d="m0 0-1.976-.74a.311.311 0 0 1-.175-.402l1.53-4.065A62.355 62.355 0 0 1 .712-8.519a39.961 39.961 0 0 1-2.333 2.035v.004l-4.896 3.864a.314.314 0 0 1-.3.047l-2.441-.921a.309.309 0 0 1-.181-.397l4.397-11.662a.308.308 0 0 1 .398-.178l1.972.744a.308.308 0 0 1 .18.394l-1.572 4.172a106.964 106.964 0 0 1-1.45 3.67 46.3 46.3 0 0 1 2.626-2.286l4.983-3.992a.304.304 0 0 1 .302-.047l2.216.832c.158.061.24.24.18.399L.396-.18A.305.305 0 0 1 0 0" style="fill:#fff;fill-opacity:1;fill-rule:nonzero;stroke:none" transform="matrix(1.09883 0 0 -1.09883 76.08 13.577)"/><path d="m0 0-2.179-.293a.303.303 0 0 1-.261-.348l.518-3.863c-.275-.117-.738-.253-1.379-.34-2.459-.328-4.197 1.061-4.545 3.628-.347 2.591 1.007 4.341 3.627 4.696 1.091.146 1.94.104 2.747-.143a.282.282 0 0 1 .129-.011.28.28 0 0 1 .122.047c.078.05.13.128.142.219l.25 1.882a.302.302 0 0 1-.21.33c-.657.218-1.918.37-3.498.159-2.091-.284-3.793-1.152-4.92-2.512-1.145-1.384-1.607-3.171-1.349-5.173.132-.968.411-1.85.83-2.628.427-.784.973-1.419 1.632-1.895 1.379-1.002 3.113-1.345 5.3-1.051 1.576.213 3.083.794 3.968 1.265.109.06.176.186.159.313L.347-.266A.31.31 0 0 1 0 0" style="fill:#fff;fill-opacity:1;fill-rule:nonzero;stroke:none" transform="matrix(1.09883 0 0 -1.09883 98.57 16.467)"/><path d="m0 0-2.271.549a.322.322 0 0 1-.386-.236l-1.756-7.25c-.523-2.161-1.566-3.071-3.101-2.699-.687.167-1.17.551-1.424 1.135-.286.662-.298 1.556-.03 2.667l1.758 7.25a.318.318 0 0 1-.231.386l-2.271.55a.316.316 0 0 1-.381-.237l-1.725-7.124c-1.166-4.815 1.329-6.491 3.639-7.05 1.634-.396 3.035-.229 4.171.499 1.202.765 2.05 2.135 2.519 4.071L.232-.387A.322.322 0 0 1 0 0" style="fill:#fff;fill-opacity:1;fill-rule:nonzero;stroke:none" transform="matrix(1.09883 0 0 -1.09883 128.807 12.395)"/><path d="M0 0c-.002 1.79.178 2.353.827 2.605.499.193 1.243.005 1.698-1.162a4.96 4.96 0 0 0 .323-2.331.318.318 0 0 1 .018-.141.42.42 0 0 1 .065-.102.29.29 0 0 1 .241-.086l1.853.158a.292.292 0 0 1 .267.27c.07.637.039 1.689-.495 3.061-.489 1.255-1.249 2.196-2.202 2.719a3.5 3.5 0 0 1-3.001.191A3.238 3.238 0 0 1-2.25 3.417c-.329-.746-.473-1.686-.439-2.871.037-1.727-.304-2.202-.911-2.439-.794-.308-1.52.171-1.951 1.278-.411 1.056-.439 2.166-.326 2.856a.28.28 0 0 1-.017.155.298.298 0 0 1-.314.189l-1.889-.193a.294.294 0 0 1-.264-.243c-.172-.899.031-2.342.486-3.512.556-1.426 1.392-2.463 2.416-2.992.939-.484 2.017-.531 3.045-.132C-.719-3.827.025-2.44 0 0" style="fill:#fff;fill-opacity:1;fill-rule:nonzero;stroke:none" transform="matrix(1.09883 0 0 -1.09883 191.342 82.18)"/><path d="m0 0-1.958.905a.318.318 0 0 1-.421-.156l-1.864-4.031a63.417 63.417 0 0 1-1.452-3.344 45.053 45.053 0 0 1-.192 3.156l-.002.008-.693 6.333a.323.323 0 0 1-.18.256l-2.419 1.119a.322.322 0 0 1-.423-.156l-5.345-11.566a.32.32 0 0 1 .157-.418l1.959-.906a.315.315 0 0 1 .414.155l1.915 4.138A111.536 111.536 0 0 1-8.875-.822c.023-1.06.1-2.254.22-3.553l.666-6.492a.308.308 0 0 1 .18-.255l2.199-1.016a.32.32 0 0 1 .417.153L.152-.419A.319.319 0 0 1 0 0" style="fill:#fff;fill-opacity:1;fill-rule:nonzero;stroke:none" transform="matrix(1.09883 0 0 -1.09883 147.52 19.677)"/><path d="m0 0-2.749 4.121 2.541 1.694 2.196-3.296a.314.314 0 0 1 .429-.091l1.544 1.03c.136.091.171.291.081.431L1.843 7.183l2.171 1.446 2.592-3.888a.311.311 0 0 1 .428-.084l1.555 1.036a.31.31 0 0 1 .085.427l-4.028 6.044a.309.309 0 0 1-.425.077L-6.165 5.313a.303.303 0 0 1-.087-.417l4.185-6.274a.314.314 0 0 1 .428-.094L-.081-.433A.31.31 0 0 1 0 0" style="fill:#fff;fill-opacity:1;fill-rule:nonzero;stroke:none" transform="matrix(1.09883 0 0 -1.09883 173.782 58.493)"/><path d="M0 0a.313.313 0 0 0-.436-.088l-1.759 1.169a.31.31 0 0 0-.085.434l6.926 10.427a.318.318 0 0 0 .435.093l1.759-1.171a.314.314 0 0 0 .087-.438z" style="fill:#fff;fill-opacity:1;fill-rule:nonzero;stroke:none" transform="matrix(1.09883 0 0 -1.09883 150.625 37.903)"/><path d="M0 0a.322.322 0 0 0-.351.289l-.221 2.107a.316.316 0 0 0 .283.348l12.521 1.317a.316.316 0 0 0 .35-.282l.221-2.107a.322.322 0 0 0-.284-.354Z" style="fill:#fff;fill-opacity:1;fill-rule:nonzero;stroke:none" transform="matrix(1.09883 0 0 -1.09883 185.292 96.06)"/><path d="M0 0a.312.312 0 0 1 .323-.007l10.214 5.886 1.005.587c.133.146.13.361.008.503-.002.002-.004.008-.008.011l-.181.164c-.006.008-1.302 1.214-1.308 1.219-.009.008-.017.01-.022.015a.368.368 0 0 1-.385.049l-.013-.005L.557 3.185l4.428 9.267.082.174.018.033-.001.005c.06.12.032.258-.061.349-.01.012-.021.028-.033.039l-1.463 1.361-.004.003-.009.009-.009.009-.006-.003a.332.332 0 0 1-.249.07c-.011-.001-.021-.007-.033-.007-.029-.009-.054-.008-.082-.021l-.008-.005-.011-.004a.478.478 0 0 1-.155-.128l-.262-.542c-.002-.007-.01-.01-.011-.02L-2.604 2.7a.314.314 0 0 1 .029-.319Z" style="fill:#fff;fill-opacity:1;fill-rule:nonzero;stroke:none" transform="matrix(1.09883 0 0 -1.09883 160.74 46.724)"/><path d="M0 0c-.502.237-.921.689-1.268 1.364l-.503.986L1.67 4.111l.503-.986c.379-.737.538-1.347.484-1.826-.06-.48-.406-.88-1.042-1.207C1.038-.202.497-.237 0 0m-4.836-7.004.038.043 3.23 3.641c.391.441.616.832.676 1.165.06.338.034.67-.076.997l.05.025C-.429-1.842.186-2.314.918-2.541c.735-.227 1.476-.149 2.221.233.801.411 1.333.953 1.603 1.624a.052.052 0 0 0 .007.015c.182.365.229.798.208 1.239.003.093-.007.244-.045.469a7.657 7.657 0 0 1-.387 1.43A13.058 13.058 0 0 1 3.537 4.7c-.084.171-.168.346-.261.531l-.022.044-.003.001-.066.132-.898 1.754a.313.313 0 0 1-.193.159.324.324 0 0 1-.236-.022L-9.326 1.577a.317.317 0 0 1-.138-.427L-8.5-.734a.315.315 0 0 1 .39-.15c.015.005.027.005.039.01l4.732 2.42.277-.545c.241-.471.345-.911.32-1.309-.028-.399-.228-.79-.593-1.168L-6.26-4.529l-.075-.081a.307.307 0 0 1-.021-.314l1.023-2a.317.317 0 0 1 .427-.139c.027.015.05.038.07.059" style="fill:#fff;fill-opacity:1;fill-rule:nonzero;stroke:none" transform="matrix(1.09883 0 0 -1.09883 185.322 66.964)"/><path d="m0 0 .036 8.45a.31.31 0 0 1-.307.31l-.099.001-1.819.007h-.117a.306.306 0 0 1-.309-.305l-.011-2.886-9.902.04a.279.279 0 0 1-.126-.029.306.306 0 0 1-.18-.277l-.01-2.062a.3.3 0 0 1 .265-.303c.012-.004.025-.011.04-.012l9.902-.038-.011-2.887c0-.172.134-.309.301-.309l2.04-.008A.305.305 0 0 1 0 0" style="fill:#fff;fill-opacity:1;fill-rule:nonzero;stroke:none" transform="matrix(1.09883 0 0 -1.09883 199.325 109.908)"/><path d="M0 0a.265.265 0 0 0 .104-.26l-.436-2.202a.268.268 0 0 0-.32-.21l-.172.112-6.38 5.316-4.756.939a.309.309 0 0 0-.249.364l.4 2.023c.025.137.14.23.276.24.03.003.059.01.092.003l4.807-.948 7.883 2.505.105.033a.334.334 0 0 0 .083-.002.284.284 0 0 0 .094-.037l.021-.017a.264.264 0 0 0 .104-.259L1.22 5.389a.276.276 0 0 0-.148-.183l-2.651-.828-2.843-.891 2.173-1.71L-.021.016" style="fill:#fff;fill-opacity:1;fill-rule:nonzero;stroke:none" transform="matrix(1.09883 0 0 -1.09883 197.538 122.878)"/><path d="M0 0c-.044 1.428 1.078 2.544 2.467 2.567A2.493 2.493 0 0 0 5.014.081c.022-1.408-1.057-2.526-2.487-2.549A2.472 2.472 0 0 0 0 0" style="fill:#fff;fill-opacity:1;fill-rule:nonzero;stroke:none" transform="matrix(1.09883 0 0 -1.09883 181.361 127.546)"/></svg>