<svg xmlns="http://www.w3.org/2000/svg" xml:space="preserve" width="564.22321" height="541.5694" viewBox="0 0 564.2232 541.5694"><path d="M2120.01 4063.54C951.469 4063.54 4.176 3116.23 4.176 1947.7c0-173.14 20.945-341.36 60.18-502.45l57.636 16.09c-37.832 155.96-58.027 318.8-58.027 486.36 0 1135.5 920.527 2056.03 2056.045 2056.03 1135.54 0 2056.04-920.53 2056.04-2056.03 0-167.56-20.2-330.4-58.03-486.36l57.64-16.09c39.25 161.09 60.19 329.31 60.19 502.45 0 1168.53-947.29 2115.84-2115.84 2115.84" style="fill:#7b7979;fill-opacity:1;fill-rule:nonzero;stroke:none" transform="matrix(.13333 0 0 -.13333 -.557 541.805)"/><path d="M2120.01 3960.63c-1111.71 0-2012.94-901.22-2012.94-2012.93 0-163.57 19.645-322.52 56.465-474.77l41.559 11.58c-35.801 148.56-54.914 303.63-54.914 463.19 0 1087.9 881.93 1969.82 1969.83 1969.82S4089.86 3035.6 4089.86 1947.7c0-159.56-19.12-314.63-54.93-463.19l41.55-11.58c36.84 152.25 56.49 311.2 56.49 474.77 0 1111.71-901.25 2012.93-2012.96 2012.93" style="fill:#7b7979;fill-opacity:1;fill-rule:nonzero;stroke:none" transform="matrix(.13333 0 0 -.13333 -.557 541.805)"/><path d="M620.293 1947.7c0-115.79 13.148-228.52 37.992-336.78l39.414 10.99c-23.894 104.74-36.554 213.78-36.554 325.79 0 805.7 653.165 1458.86 1458.865 1458.86 805.69 0 1458.87-653.16 1458.87-1458.86 0-112.01-12.67-221.05-36.54-325.79l39.38-10.99c24.83 108.26 38.01 220.99 38.01 336.78 0 828.26-671.44 1499.7-1499.72 1499.7-828.26 0-1499.717-671.44-1499.717-1499.7" style="fill:#7b7979;fill-opacity:1;fill-rule:nonzero;stroke:none" transform="matrix(.13333 0 0 -.13333 -.557 541.805)"/><path d="M3503.89 1632.63c22.99 101.33 35.15 206.78 35.15 315.07 0 783.71-635.32 1419.04-1419.03 1419.04-783.71 0-1419.049-635.33-1419.049-1419.04 0-108.29 12.184-213.74 35.168-315.07l76.414 21.31c-21.152 94.54-32.387 192.85-32.387 293.76 0 739.98 599.864 1339.85 1339.854 1339.85s1339.87-599.87 1339.87-1339.85c0-100.91-11.25-199.22-32.41-293.76l76.42-21.31M341.656 1618.59c11.977-6.27 24.66-8.6 37.699-7.02 16.661 2.04 30.903 9.76 42.293 22.93 11.301 13.08 19.016 33.19 23.606 61.48l7.707 48.05c3.445 20.81 8.055 35.59 13.727 43.9 5.203 7.49 12.394 11.73 21.972 12.9 10.473 1.29 19.988-2.36 29.094-11.15 11.488-11.13 18.062-24.61 20.098-41.16 1.484-12.15.074-24.64-4.192-37.16-4.297-12.59-11.609-24.68-21.734-35.93-10.192-11.32-23.328-21.11-39.028-29.17l-4.562-2.31 9.043-27.39 101.355 31.82-2.711 22.26s-14.535 3.11-22.105 4.74c7.074 12.44 12.43 24.3 14.91 34.91 1.84 7.86 2.766 16.28 2.766 25.17 0 5.58-.367 11.32-1.086 17.24-3.66 29.92-14.961 53.71-33.559 70.75-18.879 17.28-39.73 24.66-61.984 21.93-10.063-1.22-19.363-4.38-27.606-9.37-8.254-5.03-15.054-11.45-20.254-19.13-5.125-7.58-9.445-17.42-13.218-30.1-3.676-12.32-5.965-21.42-7.024-27.9l-8.058-50.29c-2.606-15.34-5.504-26.59-8.606-33.36-2.926-6.4-6.586-11.34-10.867-14.75-4.238-3.33-8.617-5.25-13.402-5.82-5.285-.64-10.617.52-16.317 3.5-5.742 3.05-10.879 8.23-15.273 15.47-4.504 7.39-7.41 16.21-8.633 26.19-2.047 16.68 1.148 32.75 9.461 47.69 10.199 18.7 25.609 34.76 45.805 47.79l4.125 2.66-10.528 26.83-88.203-33.38 2.68-21.98s10.008-3.02 15.484-4.7c-3.789-7.19-6.953-14.61-8.812-22.46a122.506 122.506 0 0 1-3.41-28.76c0-5.17.32-10.33.961-15.51 2.179-17.9 7.863-34.21 16.847-48.45 9.106-14.36 19.719-24.78 31.539-30.96M311.16 1970.1l-27.918.99-4.031-111.64 27.914-1.02.547 15.29c.301 8.21 1.508 11.12 2.008 12.02.925 1.58 2.41 2.81 4.55 3.65 1.438.61 5.333 1.54 15.024 1.18l127.676-4.61c20.668-.75 38.32 2.75 52.484 10.42 14.211 7.69 26.391 20.16 36.199 37.06 9.754 16.79 15.086 35.73 15.828 56.31.782 21.69-3.058 41.23-11.418 58.05-8.437 16.95-20.437 30.3-35.668 39.59-15.152 9.23-34.41 14.34-57.253 15.17l-120.024 4.35c-11.469.42-15.547 2.98-16.941 4.46-1.391 1.46-3.668 5.51-3.278 16.21l.426 12.01-27.91 1-.219-5.97-3.343-92.73 27.91-1 .472 13.25c.293 7.76 1.621 11.14 2.387 12.46 1.176 2.07 2.93 3.53 5.367 4.53 1.606.66 5.77 1.7 15.375 1.34l112.864-4.09c20.765-.75 35.859-3.68 44.875-8.72 8.828-4.89 16.496-13.46 22.796-25.44 6.371-12.07 9.352-24.9 8.864-38.09-.473-13.08-4.086-25.11-10.754-35.77-6.629-10.56-14.614-18.06-23.75-22.25-9.336-4.33-24.153-6.14-44.055-5.4l-117.246 4.23c-11.063.38-14.547 1.58-15.531 2.08-1.68.84-2.727 1.89-3.336 3.32-.656 1.57-1.692 5.53-1.348 15.07l.457 12.69M340.793 2270.74l-27.195 6.39-24.078-102.66 27.195-6.37 1.359 5.81c1.989 8.43 4.313 12.07 5.918 13.68 2.192 2.05 7.473 4.82 19.465 5.77l235.172 18.86 8.219 35s-103.141 62.51-128.071 77.63c29.043 2.33 149.09 11.97 149.09 11.97l8.192 34.94-202.09 122.37c-8.879 5.16-11.742 7.89-12.656 9.05-1.5 1.89-2.461 4.09-2.922 6.67-.094.56-.168 1.3-.168 2.24 0 2.16.363 5.43 1.617 10.33l1.5 5.92-27.309 6.4-1.359-5.83-19.512-83.16 27.192-6.37 3.503 14.93c2.036 8.65 3.883 10.51 4.094 10.69.364.35 1.071.97 3.297.45 1.668-.4 4.953-1.61 11.152-5.23 0 0 114.465-67 141.286-82.68-31.008-2.11-163.297-11.08-163.297-11.08-8.164-.53-11.356-.14-12.528.14-1.261.29-1.898.82-2.379 2.01-.187.44-1.003 3.1 1.051 11.86l3.367 14.35-27.199 6.38-23.883-101.81 27.207-6.38 1.364 5.82c2.129 9.09 4.394 12.03 5.273 12.87 3.613 3.34 9.117 5.36 16.285 5.93 0 0 30.379 2.44 33.828 2.72 2.813-1.71 86.704-52.56 111.075-67.34-30.297-2.07-162.676-11.1-162.676-11.1-7.766-.62-10.953-.23-12.168.05-1.5.35-2.484.97-3.082 3.1-.086.31-.512 2.71 1.258 10.27l3.613 15.41M446.02 2701.64c-9.239-20.26-13.903-41.22-13.903-62.46 0-3.86.149-7.74.465-11.63 2.008-25.29 10.301-48.16 24.625-67.96 14.293-19.78 33.816-35.39 58.012-46.43 32.574-14.86 65.504-17.98 97.832-9.25 39.742 10.7 69.312 36.77 87.894 77.5 16.645 36.48 18.387 72.51 5.18 107.07-13.227 34.53-39.09 60.8-76.922 78.06-24.43 11.15-48.723 15.76-72.215 13.72-23.496-2.05-45.879-10.36-66.523-24.7-19.195-13.23-34.156-31.38-44.445-53.92M529.609 2862.75l23.067-15.75 7.168 10.5c6.586 9.63 9.812 11.66 10.656 12.05 1.18.56 3.16 1.16 6.652-.08.391-.15 3.262-1.56 14.684-9.36l136.344-93.12c9.465-6.48 13.144-10.41 14.547-12.56 1.75-2.67 2.484-5.04 2.261-7.26-.121-1.18-1.047-4.86-7.121-13.75l-6.027-8.8 23.066-15.77 56.555 82.8-23.004 15.71-3.383-4.84c-6.781-9.64-9.754-12.73-10.91-13.71-1.687-1.43-3.59-2.32-5.828-2.72-2.301-.41-4.356-.33-6.293.28-.305.09-2.996 1.21-14.461 9.04 0 0-108.496 74.11-136.129 92.97 36.277-1.9 256.914-13.42 256.914-13.42l17.934 26.25-181.637 124.07c-6.234 4.26-10.559 8.2-12.832 11.71-1.887 2.91-2.578 5.62-2.121 8.28.125.74.977 3.77 6.344 11.64l6.015 8.8-23.066 15.75-3.375-4.94-52.606-77.02 23.067-15.75 7.191 10.54c4.067 5.96 7.117 8.28 8.969 9.19 2.473 1.2 5.129 1.54 8.07 1.03 2.278-.4 6.735-2.06 14.922-7.65 0 0 79.246-54.13 105.149-71.81l-210.524 11.27-50.258-73.57M885.641 3301.42c-18.102-16.58-30.895-36.98-38.012-60.62-4.031-13.3-6.043-26.75-6.043-40.24 0-10.43 1.207-20.89 3.629-31.31 5.527-23.87 17.308-45.77 35.035-65.09 24.137-26.32 53.387-41.89 86.945-46.28 40.605-5.28 76.945 6.51 108.015 35 13.99 12.83 24.87 27.19 32.33 42.7 7.43 15.45 12.12 33.29 13.94 53.01 1.25 12.36.78 25.82-1.36 39.96l-.89 5.85-29.59-4.12.61-5.75c2.14-20.31.2-39.65-5.82-57.44-5.98-17.68-14.78-31.95-26.18-42.4-12.07-11.05-26.49-18.21-42.89-21.28-16.43-3.07-33.559-1.32-50.88 5.19-17.453 6.56-33.628 17.86-48.093 33.64-14.043 15.31-23.711 32.1-28.735 49.89-4.996 17.67-5.48 34.28-1.464 49.37 4.007 15.03 11.859 27.99 23.347 38.52 9.778 8.96 20.863 15.05 32.965 18.05 12.207 3.04 24.695 3.29 37.113.72 7.782-1.66 21.867-6.7 41.867-14.97l4.69-1.93 15.41 24.73-85.088 53.69-3.355-3.09-13.059-11.97s3.942-9.19 6.027-14.07c-10.761-2.04-20.855-4.82-29.574-8.84-10.804-5-21.199-12.02-30.89-20.92M1121.15 3477.48l-29.1-19.3 53.05-228.86c2.45-11.02 3.04-16.45 3.04-19.13 0-.33 0-.61-.03-.87-.16-2.9-.91-5.32-2.23-7.42-.8-1.26-3.15-4.02-10.11-8.63l-4.99-3.3 15.43-23.29 74.99 49.74-15.36 23.17-12.04-7.59c-4.75-3.15-6.93-3.84-7.66-3.98-1.26-.24-2.35-.18-3.41.23-.93.36-1.68.99-2.34 1.98-.21.32-1.35 2.27-3.12 9.79 0 0-11.53 46.93-13.25 53.99 6.09 4.05 65.36 43.37 71.53 47.45 5.74-4.36 38.93-29.67 38.93-29.67 11.29-8.61 13.23-11.06 13.51-11.47.2-.32.57-.86.57-1.84 0-.69-.18-1.6-.72-2.8-.02-.06-.97-1.73-6.62-5.48l-12.16-8.81 3.36-4.64 12.13-18.3 87.2 57.84-15.45 23.26-8.41-5.57c-4.53-3-8.62-4.22-12.49-3.73-2.92.35-8.61 2.38-19.07 10l-191.7 139.52-3.48-2.29M1263.8 3573.51l-19.5-9.24 9.63-91.16 30.06 3.37-.44 5.78c-.28 3.69-.43 7.29-.43 10.74 0 9.06.99 17.23 2.97 24.38 2.66 9.68 6.66 17.57 11.86 23.46 5.28 5.98 13.74 11.75 25.13 17.14l6.73 2.59h.08c.23-.63 3.63-6.94 3.63-6.94l79.04-166.87c4.54-9.59 5.14-13.87 5.14-15.45v-.26c-.07-1.45-.5-3.68-3.36-6.19-.43-.34-3.32-2.38-16.56-8.82l-5.32-2.59 11.94-25.19 100.98 47.83-11.93 25.18-5.38-2.47c-12.02-5.51-16.25-6.87-17.71-7.19-1.99-.44-3.61-.47-4.81-.07-1.29.43-2.67 1.44-4.08 2.99-.99 1.07-3.29 4.28-7.84 13.9l-77.18 162.93s-3.35 7.98-4.02 9.56c1.22.59 8.92 4.67 8.92 4.67 14.23 6.74 27.61 8.91 39.74 6.42 12.3-2.53 26.2-10.97 41.29-25.12l4.17-3.91 21.63 21.08-64.45 65.2-3.83-1.81-16.75-7.94s1.94-6.84 2.49-8.75c-8.33-3.95-128.3-60.77-136.3-64.56-1.29 1.71-5.54 7.31-5.54 7.31M1562.88 3657.36c1.25 1.04 4.68 3.18 13.64 5.8l12.4 3.62-7.83 26.81-107.27-31.32 7.84-26.82 15.77 4.61c7.11 2.08 10.11 1.85 11.08 1.65 1.73-.34 3.12-1.2 4.37-2.71.7-.86 2.66-3.9 5.35-13.12l50.48-172.86c2.53-8.64 2.4-12.07 2.21-13.14-.43-2.68-1.44-3.52-1.76-3.79-.23-.18-2.59-1.88-14.85-5.46l-11.83-3.46 7.84-26.81 107.25 31.32-7.83 26.81-5.74-1.68c-16.04-4.67-20.16-5.23-21.2-5.24-3.09-.07-3.98.91-4.27 1.24-.35.4-2.3 2.97-5.84 15.13 0 0-18.78 64.32-21.68 74.21 10.01 2.92 108.74 31.76 118.74 34.68 2.89-9.87 21.12-72.3 21.12-72.3 3.99-13.69 4.2-16.76 4.2-17.25v-.01c-.01-.59-.05-1.57-1.74-2.9-.91-.7-4.19-2.69-15.26-5.93l-12.8-3.72 7.84-26.82 107.73 31.46-7.83 26.81-5.74-1.68c-15.82-4.61-19.38-5-20.09-5-2.28 0-3.72.44-4.48 1.29-.35.4-2.23 2.93-5.8 15.12l-49.9 170.94c-3.13 10.68-2.92 13.71-2.86 14.21.22 1.5 1 2.89 2.42 4.24.77.73 3.39 2.66 11.22 4.96l14.4 4.2-7.82 26.82-5.75-1.68-101.99-29.79 7.84-26.81 15.68 4.59c6.72 1.96 10.33 1.8 12.17 1.31 2.2-.58 3.83-1.87 5.11-4.05.39-.62 1.68-3.04 5.21-15.12 0 0 15.23-52.15 18.04-61.76-10.02-2.94-108.74-31.76-118.74-34.68-2.84 9.67-18.6 63.68-18.6 63.68-2.7 9.23-3.07 12.99-3.07 14.34 0 .22.01.38.02.49.19 2.56.98 4.21 2.6 5.57M2057.38 3714.38c-13.73 19.18-32.27 34.23-55.12 44.71-21.16 9.79-44.4 13.44-69.04 10.83-26.17-2.77-49.93-11.56-70.62-26.12-20.74-14.59-36.22-33.36-45.99-55.77-9.73-22.35-13.25-47.11-10.45-73.56 3.77-35.62 17.83-65.53 41.81-88.93 29.42-28.76 66.91-40.96 111.42-36.25 39.88 4.22 71.79 21.06 94.81 50.02 23.03 28.93 32.48 64.57 28.1 105.92-2.82 26.7-11.25 49.96-24.92 69.15M2133.18 3551.49c-.43-9.01-1.66-12.55-2.34-13.86-1.02-1.93-2.25-3.19-3.82-3.89-.7-.31-3.65-1.26-13.43-.8l-14.23.67-1.31-27.9 198.22-9.39 37 89.81-27.14 10.58-2.44-4.8c-8.48-16.52-17.07-28.89-25.56-36.82-8.37-7.81-18.33-13.7-29.62-17.48-11.4-3.81-25.01-5.38-40.4-4.65l-14.16.67c-10.36.49-12.66 1.18-13.05 1.32-1.14.53-1.32 1-1.37 1.28-.12.43-.51 2.75-.02 13.02l8.6 181.41c.36 7.93 1.53 10.48 1.89 11.07.8 1.38 2.07 2.39 3.89 3.11 1.28.51 4.66 1.3 12.99.91l15.35-.73 1.32 27.91-112.62 5.32-.27-5.98-1.04-21.92 14.21-.67c10.74-.51 13.47-1.75 13.92-1.99 1.32-.75 2.3-1.95 3-3.78.41-1.02 1.32-4.61.78-15.54l-8.35-176.88" style="fill:#7b7979;fill-opacity:1;fill-rule:nonzero;stroke:none" transform="matrix(.13333 0 0 -.13333 -.557 541.805)"/><path d="M2344.54 3537.56c-1.58-10.69-3.16-14.11-3.77-15.09-1.09-1.73-2.59-2.87-4.58-3.6-1.05-.37-4.35-1.1-12.83.17l-14.02 2.09-4.11-27.63 110.49-16.49 4.12 27.63-13.53 2.02c-8.92 1.33-11.84 2.93-12.68 3.57-1.67 1.23-2.81 2.99-3.54 5.39-.48 1.57-1.05 5.61.37 15.09l24.88 166.75c1.87 12.66 3.69 17.14 4.62 18.69 1.37 2.3 3.17 3.92 5.51 4.9 1.39.6 4.91 1.4 12.85.22l13.54-2.02 4.14 27.62-110.53 16.49-.88-5.91-3.23-21.72 14.04-2.08c8.49-1.27 11.49-2.92 12.39-3.58 1.64-1.18 2.63-2.73 3.14-4.86.32-1.26.83-5.45-.97-17.44l-25.42-170.21M2532.97 3652.05c12.32 13.64 26.1 22.91 40.99 27.56 14.86 4.62 30.02 4.88 45.07.78 12.79-3.5 23.81-9.65 32.85-18.29 9.05-8.7 15.91-19.15 20.37-31.01 2.72-7.45 5.99-22.07 9.64-43.41l.86-5 29.15.15.08 100.61-21.5 5.86s-5.69-8.24-8.69-12.6c-7.47 8.03-15.19 15.08-23.24 20.31-9.99 6.49-21.48 11.53-34.16 15-23.69 6.46-47.74 6.41-71.56-.15-23.78-6.55-44.57-18.7-61.82-36.09-17.27-17.41-29.51-39.05-36.4-64.34-9.42-34.45-6.99-67.5 7.16-98.25 17.21-37.16 46.54-61.63 87.23-72.73 18.27-5 36.21-6.54 53.34-4.6 17.01 1.95 34.61 7.49 52.26 16.47 11.1 5.53 22.28 13.09 33.09 22.45l4.47 3.87-19.23 22.84-4.55-3.6c-16.02-12.62-33.45-21.26-51.74-25.67-18.1-4.37-34.88-4.51-49.78-.44-15.82 4.32-29.56 12.7-40.88 24.94-11.36 12.29-19.01 27.68-22.74 45.79-3.74 18.28-2.79 38.01 2.85 58.64 5.46 20.05 14.52 37.18 26.88 50.91M2834.94 3444.95c-9.98-18.12-14.8-35.48-14.33-51.58.45-16.14 6.11-32.62 16.77-48.99 10.59-16.28 25.12-29.56 43.17-39.49 19.03-10.47 38.19-15.84 56.99-15.94 18.94-.12 36.22 4.6 51.39 14.01 15.09 9.38 28.34 24.27 39.34 44.29l57.91 105.21c5.53 10.05 9.64 12.54 11.61 13.14 1.93.57 6.57.78 15.98-4.39l10.49-5.78 13.49 24.47-86.55 47.62-13.47-24.46 11.59-6.4c6.82-3.75 9.29-6.45 10.11-7.73 1.29-1.99 1.82-4.23 1.61-6.84-.17-2.11-1.32-6.32-5.73-14.34l-54.45-98.93c-10.01-18.18-19.43-30.35-27.98-36.15-8.37-5.66-19.47-8.65-33-8.9-13.64-.25-26.44 2.87-38.02 9.24-11.46 6.3-20.56 14.96-27.09 25.72-6.45 10.66-9.54 21.17-9.17 31.22.36 10.28 5.42 24.33 15 41.76l56.6 102.79c5.33 9.7 7.96 12.28 8.84 12.94 1.48 1.11 2.92 1.58 4.45 1.47 1.7-.11 5.72-.98 14.07-5.57l11.14-6.13 13.44 24.48-97.86 53.88-2.9-5.25-10.59-19.22 13.39-7.38c7.21-3.96 9.3-6.35 9.87-7.2.99-1.55 1.4-3.42 1.21-5.7-.12-1.58-1.05-5.46-5.73-13.95l-61.59-111.92M3163.16 3395.29l-102.71-129.27c-7.13-8.97-11.32-12.35-13.59-13.61-2.8-1.54-5.2-2.1-7.42-1.71-1.17.19-4.74 1.39-13.19 8.09l-8.35 6.64-17.36-21.87 78.48-62.38 17.32 21.8-4.58 3.74c-9.13 7.45-11.97 10.62-12.88 11.87-1.31 1.79-2.07 3.75-2.29 5.98-.07.62-.09 1.2-.09 1.76 0 1.63.26 3.13.82 4.53.12.29 1.44 2.89 10.06 13.75 0 0 81.75 102.87 102.56 129.05-4.5-36.03-31.94-255.27-31.94-255.27l24.88-19.78 136.87 172.21c4.69 5.9 8.93 9.92 12.61 11.95 3.04 1.67 5.79 2.17 8.4 1.51.76-.18 3.7-1.23 11.17-7.17l8.35-6.62 17.36 21.87-77.71 61.76-17.35-21.87 9.95-7.93c5.69-4.51 7.79-7.72 8.52-9.62.63-1.5.92-3.04.92-4.65 0-1.12-.15-2.28-.43-3.49-.58-2.24-2.56-6.58-8.72-14.32 0 0-59.71-75.14-79.23-99.69 4.4 34.89 26.45 209.17 26.45 209.17l-69.75 55.43-3.72-4.69-13.63-17.17 9.93-7.91c9.13-7.25 10.93-10.64 11.25-11.49.76-1.93.58-4.09-.53-6.65-.2-.36-1.83-3.13-10.43-13.95M3390.27 3266.88l-15.57-15.48 10-10.05c6.06-6.1 7.5-9.22 7.82-10.28.61-1.92.46-3.76-.37-5.8-.51-1.17-2.61-4.82-11.22-13.39l-122.04-121.32c-7.67-7.65-10.98-9.42-12.05-9.83-1.93-.73-3.75-.77-5.82-.17-1.05.33-4.16 1.73-10.18 7.8l-10.03 10.07-19.79-19.7 78.78-79.23 19.79 19.69-9.64 9.71c-6.36 6.39-7.74 9.44-8.06 10.45-.58 1.94-.46 4.05.41 6.41.56 1.55 2.49 5.13 9.3 11.9l119.56 118.86c9.11 9.04 13.23 11.54 14.86 12.22 2.48 1.03 4.89 1.24 7.37.65 1.47-.36 4.77-1.81 10.42-7.5l9.69-9.73 19.79 19.7-78.78 79.24-4.24-4.22M3509.73 3103.07c.59.48 1.18.68 1.98.68.85 0 1.83-.37 2.92-1.14 0-.04 7.23-8.32 7.23-8.32l8.23-10.4 21.91 17.34-66.61 84.09-4.73-3.71-16.77-13.31 3.32-5.01 6.06-9.25 1.5-6.16-.97-6.48c-.02 0-6.16-11.75-6.16-11.75l-120.53-209.2 21.45-27.09 231.86 68.41c9.47 2.73 14.48 3.31 17.02 3.33 2.04-.1 4.28-.77 6.59-2.06 1.63-.91 4.56-3.29 9.2-9.35l3.68-4.84 21.98 17.42-57.64 72.79-21.91-17.34 9.08-11.44c5.89-7.47 6.33-10.11 6.33-10.4 0-.06.02-.15.02-.23 0-.45-.17-1.17-1.58-2.26-1.07-.87-4.02-2.66-11.57-4.94 0 0-145.07-44.78-170.16-52.54 13.38 22.58 90.63 152.85 90.63 152.85 4 6.87 6.5 9.4 7.64 10.31M3666.61 2942.1l-19.13-10.77 2.94-5.21c7.99-14.17 8.94-17.39 9.06-17.88.44-2.81.25-4.99-.6-6.49-.25-.43-1.95-2.87-10.45-7.67l-156.88-88.38c-9.25-5.21-11.93-5.47-12.23-5.49-2.72-.16-4.89.39-6.76 1.65-.25.2-2.24 1.88-7.52 11.28l-6.6 11.7-24.32-13.71 112.72-200.11 95.82 16.23-5.11 29.15-5.53-.54c-16-1.57-29.29-1.29-39.54.85-13 2.68-24.56 7.86-34.39 15.41-9.91 7.61-20.14 20.73-30.41 38.97l-19.21 34.11c-5.01 8.87-5.6 11.28-5.7 11.68v.13c0 .4.15.74.46 1.18.23.23 2.1 2.03 11.66 7.42 0 0 59.5 33.53 68.51 38.6l12.44-22.07c5.53-9.8 7.34-14.76 7.84-17.21.27-1.24.41-2.53.41-3.89 0-2.07-.31-4.25-.91-6.55-1.08-3.78-2.66-6.89-4.75-9.22-1.58-1.73-5.32-4.86-14.07-9.81l-13.91-7.84 14.95-26.49 110.38 62.19-14.95 26.49-8.95-5.05c-10.96-6.15-16.46-7.88-19.15-8.25-5.09-.77-10.04.15-15.31 2.81-5.23 2.65-10.44 8.55-15.51 17.52 0 0-8.56 15.23-12.41 22.07 8.55 4.82 64.45 36.3 73.01 41.13 4.83-8.55 28.06-49.83 28.06-49.83 8.63-15.28 13.96-26.24 15.93-32.58 1.41-4.68 2.14-9.8 2.14-15.29 0-1.58-.05-3.2-.16-4.86-.57-7.42-2.35-14.6-5.29-21.34-2.99-6.82-8.23-14.65-15.65-23.31l-3.93-4.58 22.6-18.98 54.42 62.67-108.81 193.11-5.21-2.95M3792.68 2645.45c-1.08-1.07-4.13-3.32-12.28-6.33l-160.09-58.96c.05.02-16.84-5.69-16.84-5.69-2.15-.29-4.29-.15-6 .48-1.7.58-2.97 1.38-3.86 2.45-.42.48-1.93 2.55-4.8 10.35l-5.17 14-26.21-9.66 38.46-104.37 26.22 9.65-4.38 11.88c-2.97 8.06-3.45 11.93-3.45 13.6 0 .41.02.69.04.86.34 1.96 1.64 3.77 3.94 5.58.33.23 2.83 1.73 13.86 5.79l69.77 25.69c2.46-6.75 7.04-19.16 8.4-22.86-3.07-4.81-84.04-132.61-84.04-132.61l23.71-64.42 26.19 9.65-3.67 10.04c-1.8 4.89-2.66 9.6-2.48 14 .17 4.57 1.16 9.29 3.02 14.06-.03-.08 7.71 13.93 7.71 13.93s39.88 66.87 49.48 82.94c6.81-15.11 14.56-27.21 23.19-35.73 10.86-10.69 23.1-17.64 36.37-20.64 13.34-3.02 27.11-1.97 40.86 3.1 13.48 4.97 24.21 13.09 31.91 24.12 7.62 10.96 11.74 24.21 12.23 39.4.48 14.99-3.73 34.35-12.87 59.18l-48.44 131.45-5.6-2.06-20.59-7.59 5.72-15.55c2.61-7.06 2.58-9.94 2.46-10.85-.24-1.67-1.17-3.28-2.77-4.88M3938.63 2282.37c0 8.31-.84 16.67-2.52 25.01-3.6 17.68-10.51 33.48-20.59 46.98-10.18 13.63-21.57 23.18-33.82 28.43-12.44 5.3-25.27 6.67-38.13 4.07-16.47-3.34-30.05-12.14-40.41-26.16-10.25-13.89-16.38-34.53-18.77-63.1l-3.94-48.52c-1.8-21.02-5.25-36.12-10.27-44.82-4.61-7.88-11.45-12.67-20.91-14.57-10.32-2.07-20.09.83-29.88 8.86-12.32 10.22-19.91 23.14-23.22 39.5-2.44 11.97-1.97 24.54 1.29 37.33 3.28 12.89 9.64 25.51 18.89 37.53 9.28 12.06 21.6 22.87 36.64 32.1l4.35 2.68-11.12 26.59-98.59-39.59 4.42-21.96s14.76-1.99 22.42-3.02c-6.08-12.97-10.51-25.19-12.15-35.97-.77-5.1-1.16-10.4-1.16-15.89 0-8.45.93-17.32 2.78-26.52 5.96-29.54 19.06-52.4 38.95-67.94 20.16-15.77 41.5-21.49 63.49-17.06 9.96 2.02 18.96 5.87 26.8 11.49 7.82 5.62 14.12 12.59 18.72 20.65 4.46 7.86 8.09 18.28 10.83 31.01 2.71 12.59 4.27 21.87 4.83 28.39l4.14 50.74c1.39 15.52 3.43 26.95 6.01 33.94 2.39 6.61 5.65 11.83 9.69 15.53 3.94 3.67 8.17 5.9 12.9 6.86 5.21 1.06 10.62.33 16.51-2.23 5.98-2.59 11.51-7.37 16.43-14.21 5.06-7.04 8.65-15.61 10.67-25.46 3.32-16.47 1.38-32.72-5.73-48.29-8.74-19.43-22.86-36.64-41.97-51.19l-3.91-2.96 12.58-25.96 85.35 40.16-4.38 21.68s-10.22 2.26-15.82 3.5c3.23 7.44 5.79 15.1 7.06 23.06 1.02 6.39 1.54 12.85 1.54 19.33M3726.89 2054.99c1.41.83 5.21 2.37 14.75 3.21l167.89 15.36c12.77 1.17 17.55.46 19.25-.04 2.56-.79 4.56-2.17 6.1-4.21.89-1.2 2.5-4.43 3.23-12.45l1.24-13.63 27.83 2.53-10.18 111.28-5.95-.54-21.85-2.01 1.29-14.12c.78-8.55-.13-11.86-.54-12.91-.75-1.85-2.04-3.19-3.99-4.21-1.12-.56-5.09-2.07-17.16-3.16l-171.39-15.68c-10.79-.98-14.46-.22-15.53.12-1.95.68-3.41 1.8-4.61 3.61-.6.89-2.08 3.96-2.87 12.48l-1.29 14.12-27.83-2.53 10.18-111.28 27.83 2.55-1.24 13.64c-.83 8.95.02 12.2.43 13.17.81 1.88 2.25 3.43 4.41 4.7" style="fill:#7b7979;fill-opacity:1;fill-rule:nonzero;stroke:none" transform="matrix(.13333 0 0 -.13333 -.557 541.805)"/><path d="m3891.66 2034.93-8.14-22.84 5.37-2.12c12.53-4.96 22.8-10.9 30.47-17.67 7.53-6.67 12.83-13.73 15.85-20.96 2.93-7.06 4.41-16.58 4.41-28.34 0-.61 0-1.16-.03-1.78 0 0-.61-7.18-.61-7.2l-.04-.06c-.83.08-7.81-.21-7.81-.21l-184.67 2.19c-11.25.12-15.19 1.66-16.35 2.29-1.29.71-3.1 2.07-4.09 5.73-.12.52-.66 4.03-.66 18.74v5.91l-27.88.35-1.31-111.75 27.85-.32.14 5.92c.32 13.21.96 17.63 1.32 19.07.49 1.99 1.17 3.45 2.07 4.35.93.98 2.43 1.78 4.45 2.36 1.39.39 5.29 1.07 15.93.92l180.25-2.11s8.59-.49 10.37-.58c0-1.91.29-10.06.29-10.06-.2-15.75-4.11-28.7-11.66-38.54-7.67-9.96-21.38-18.72-40.7-26.07l-5.34-2.04 9.47-28.68 86.84 29.3.3 22.79s-7.02 1.25-8.99 1.61c.12 9.18 1.68 141.93 1.8 150.77 2.12.41 9.01 1.78 9.01 1.78l.24 21.57-86.16 31.35-1.99-5.67M3939.67 1779.94c-2.07-11.61-4.17-15.8-5.24-17.23-.61-.85-3.65-4-16.79-8.92 0 0-127.21-48.3-130.08-49.4-2.92.47-56.26 8.53-56.26 8.53-11.81 1.8-14.24 3.17-14.48 3.33-2.02 1.35-3.3 2.9-3.93 4.68-.14.39-.41 1.43-.41 3.77 0 2.15.22 5.38.95 10.22l2.07 13.69-27.63 4.16-17.02-112.96 27.61-4.17.9 5.92c2.34 15.61 4.09 19.9 4.74 21.04 1.13 1.92 2.44 3.11 4.14 3.75.54.19 3.8 1.07 15.92-.75 0 0 59.89-9.07 63.01-9.51l104.76-86.44c7.1-5.94 9.49-8.74 10.27-9.86 1.12-1.65 1.87-3.82 2.24-6.4.07-.64.14-1.51.14-2.63 0-2.41-.28-6.01-1.19-11.4l-1.01-6.01 27.72-4.19 13.81 91.59-27.61 4.13-2.34-15.52-1.64-9.04c-.09-.02-.7-.93-.7-.93 0 .04-.68 0-.68 0l-1.51.54-6.21 4.6s-65.97 52.4-79.7 63.3c16.3 5.94 90.53 32.94 90.53 32.94-.05-.03 4.93 1.87 4.93 1.87 4.66 1.79 6.71 1.68 7.2 1.61 0 0 .97-.29 1.07-.31.02-.08.17-.61.17-2.19 0-1.52-.15-3.9-.7-7.6l-2.54-16.85 27.64-4.16 16.32 108.43-27.48 4.14-.99-5.77M1068.47 660.879c14.31 11.125 9.56 22.422-34.03 65.996-136.288 136.309-93.124 287.295-152.561 435.895-59.438 148.61-158.496 275.41-174.344 261.52-15.859-13.86 59.438-103.01 59.438-243.69 0-222.104 120.847-370.483 120.847-370.483-211.996 196.143-372.476 144.629-552.777 354.653-41.613 48.47-45.563 43.58-29.711 9.89 162.246-344.855 525.336-443.957 634.695-468.84 90.453-20.547 106.303-62.148 128.443-44.941" style="fill:#7b7979;fill-opacity:1;fill-rule:nonzero;stroke:none" transform="matrix(.13333 0 0 -.13333 -.557 541.805)"/><path d="M537.145 1392.59c-108.981 87.21-103.028 178.33-124.832 174.38-21.786-3.96-1.969-247.66 61.425-354.67 63.407-106.98 252.102-246.136 261.528-235.769 19.8 21.789-39.625 23.789-47.551 146.609-7.918 122.87-41.602 182.29-150.57 269.45M1442.59 522.793c79.26 0 154.54-51.484 176.33-23.762 21.8 27.754-153.68 33.41-273.42 186.242-93.12 118.875-316.36 310.79-336.81 293.262-13.877-11.902 41.61-33.722 55.47-130.781 13.87-97.09 91.14-194.18 174.36-255.598 0 0-150.57 31.692-233.8 31.692-83.204 0-198.126-17.813-370.501 97.09-38.453 25.632-67.348 49.542-79.242 43.605-25.375-12.707 235.769-311.059 550.793-311.059 206.05 0 251.63 69.309 336.82 69.309M3904.97 1164.77c-180.29-210.024-340.8-158.51-552.77-354.653 0 0 120.85 148.379 120.85 370.483 0 140.68 75.3 229.83 59.42 243.69-15.82 13.89-114.88-112.91-174.36-261.52-59.4-148.6-16.23-299.586-152.54-435.895-43.6-43.574-48.34-54.871-34.04-65.996 22.16-17.207 38.01 24.394 128.45 44.941 109.36 24.883 472.46 123.985 634.7 468.84 15.87 33.69 11.92 38.58-29.71-9.89" style="fill:#7b7979;fill-opacity:1;fill-rule:nonzero;stroke:none" transform="matrix(.13333 0 0 -.13333 -.557 541.805)"/><path d="M3552.31 1123.14c-7.93-122.82-67.36-124.82-47.56-146.609 9.44-10.367 198.14 128.789 261.53 235.769 63.4 107.01 83.21 350.71 61.43 354.67-21.82 3.95-15.85-87.17-124.82-174.38-108.97-87.16-142.66-146.58-150.58-269.45M3605.8 720.938c-172.36-114.903-287.29-97.09-370.51-97.09-83.2 0-233.81-31.692-233.81-31.692 83.22 61.418 160.49 158.508 174.39 255.598 13.86 97.059 69.34 118.879 55.46 130.781-20.45 17.528-243.69-174.387-336.81-293.262-119.75-152.832-295.21-158.488-273.41-186.242 21.78-27.722 97.07 23.762 176.32 23.762 85.19 0 130.75-69.309 336.81-69.309 315.05 0 576.17 298.352 550.8 311.059-11.9 5.937-40.8-17.973-79.24-43.605" style="fill:#7b7979;fill-opacity:1;fill-rule:nonzero;stroke:none" transform="matrix(.13333 0 0 -.13333 -.557 541.805)"/><path d="M3064.52 353.77c-316.81 0-369.61 158.386-699.63 158.386-86.59 0-169-20.625-244.88-52.847-75.88 32.222-158.29 52.847-244.9 52.847-330 0-382.81-158.386-699.6-158.386-255.19 0-321.19 114.394-329.987 83.605-5.406-18.918 206.797-220.012 431.197-220.012 321.19 0 409.2 224.387 615.99 224.387 39.5 0 87.33-8.879 139.14-26.359-222.82-127.129-370.94-334.407-370.94-334.407l74.8-79.214c90.64 181.265 243 307.664 384.3 377.078 141.3-69.414 293.67-195.813 384.29-377.078l74.8 79.214S2431 288.262 2208.16 415.391c51.81 17.48 99.64 26.359 139.15 26.359 206.79 0 294.8-224.387 615.98-224.387 224.42 0 436.6 201.094 431.2 220.012-8.79 30.789-74.79-83.605-329.97-83.605" style="fill:#7b7979;fill-opacity:1;fill-rule:nonzero;stroke:none" transform="matrix(.13333 0 0 -.13333 -.557 541.805)"/><path d="M2932.96 2401.44c-167.88 179.87-721.05 726.08-721.05 726.08-90.73-85.73-70.57-221.86 40.35-337.83 96.29-100.69 321.59-310.9 459.79-438.68H1527.97c138.2 127.78 363.48 337.99 459.79 438.68 110.92 115.97 131.11 252.1 40.34 337.83 0 0-553.17-546.21-721.05-726.08-141.17-151.27-75.63-267.24 45.39-383.22 121.01-115.95 428.59-413.45 428.59-413.45l-438.68-620.2h226.91l438.67 571.18V869.563h224.16v686.187l438.67-571.18h226.9l-438.68 620.2s307.6 297.5 428.6 413.45c121.01 115.98 186.55 231.95 45.38 383.22" style="fill:#7076c3;fill-opacity:1;fill-rule:nonzero;stroke:none" transform="matrix(.13333 0 0 -.13333 -.557 541.805)"/><path d="M1520.53 2139.22h487.4v-479.69zM2232.09 1659.53v479.69h487.38zM467.309 2640.3c2.132-15.22 9.035-29.97 20.5-43.86 11.589-14.05 28.691-26.3 50.859-36.4 21.129-9.66 40.848-14.28 58.598-13.76 17.589.5 33.054 4.99 46.011 13.33 12.891 8.3 22.848 19.98 29.578 34.73 6.657 14.61 8.899 29.38 6.649 43.89-2.254 14.57-9.859 29.48-22.586 44.32-12.891 15.02-29.59 27.28-49.621 36.42-20.402 9.31-41.047 14.08-61.391 14.21-17.004.09-31.363-3.52-42.687-10.78-11.321-7.24-20.656-18.78-27.727-34.3-7.562-16.56-10.312-32.64-8.183-47.8M2011.19 3699.97c-8.56 14.69-18.99 25.21-30.98 31.27-12 6.06-26.69 8.23-43.65 6.43-18.09-1.91-33.34-7.73-45.32-17.28-12-9.57-21.19-23.01-27.32-39.96-6.21-17.11-8.05-38.09-5.48-62.29 2.44-23.12 8.49-42.45 17.96-57.46 9.39-14.89 21.12-25.93 34.9-32.83 13.7-6.89 28.81-9.51 44.94-7.8 15.96 1.69 29.81 7.28 41.17 16.6 11.39 9.36 20.38 23.49 26.67 42 6.37 18.74 8.42 39.35 6.11 61.25-2.36 22.29-8.75 42.5-19 60.07M3746.35 2526.63c6.03-16.36 11.22-27.49 15.53-33.17 5.67-7.74 12.46-12.74 20.81-15.27 8.21-2.5 17.56-1.85 27.8 1.91 8.67 3.2 15.34 7.68 19.84 13.33 4.51 5.64 6.99 11.86 7.62 19 .08.86.12 1.77.12 2.7 0 7.1-2.16 16.52-6.4 28.05 0 0-17.78 48.26-21.2 57.58-9.28-3.4-71.26-26.24-80.51-29.65 3.26-8.86 16.39-44.48 16.39-44.48M1209.26 3360.54c-9.97 7.46-57.27 42.82-75.44 56.39 5.41-22.01 19.5-79.41 22.49-91.52 10 6.64 42.97 28.51 52.95 35.13" style="fill:#fff;fill-opacity:1;fill-rule:nonzero;stroke:none" transform="matrix(.13333 0 0 -.13333 -.557 541.805)"/></svg>