<svg xmlns="http://www.w3.org/2000/svg" xml:space="preserve" width="721" height="720" overflow="hidden"><defs><clipPath id="a"><path d="M-49 0h721v720H-49z"/></clipPath><clipPath id="b"><path d="M-49 0h720v720H-49z"/></clipPath><clipPath id="c"><path d="M-49 0h720v720H-49z"/></clipPath><clipPath id="d"><path d="M-49 0h720v720H-49z"/></clipPath></defs><g clip-path="url(#a)" transform="translate(49)"><g clip-path="url(#b)"><g clip-path="url(#c)"><g clip-path="url(#d)"><path fill="#FFF" d="m123.226 140.673-.065.074c.022-.024.044-.048.065-.074l-6.037-14.633Z"/><path fill="#FFF" d="M310.999.02C112.177.02-49 161.188-49 360c0 198.813 161.177 359.98 359.999 359.98C509.822 719.98 671 558.812 671 360 671 161.189 509.823.02 310.999.02Zm-5.825 714.175c-192.15-2.852-350.682-161.214-348.405-358.377 2.236-193.63 161.63-352.626 359.163-350.022 191.437 2.526 349.017 158.71 349.323 354.308-.326 198.024-162.856 357.018-360.081 354.091Z"/><path fill="#002D69" d="M315.932 5.796C118.399 3.192-40.995 162.188-43.231 355.818c-2.277 197.163 156.258 355.525 348.405 358.377 197.225 2.927 359.755-156.067 360.081-354.091C664.949 164.506 507.369 8.322 315.932 5.796Zm-2.693 697.395c-189.598 1.179-340.992-150.505-345.37-334.33-4.57-191.747 147.534-347.066 333.637-351.954 192.921-5.067 348.34 148.466 352.601 334.87 4.4 192.513-150.204 350.094-340.868 351.414Z"/><path fill="#FFF" d="M654.107 351.777c-4.261-186.404-159.68-339.938-352.601-334.87C115.403 21.795-36.701 177.117-32.132 368.86c4.382 183.822 155.775 335.509 345.371 334.33 190.664-1.32 345.268-158.901 340.868-351.414Zm-46.449-115.741 3.019 8.513c-4.539 1.606-8.972 3.185-13.411 4.741-4.813 1.688-9.637 3.344-14.448 5.038-3.456 1.216-6.163 3.309-6.469 7.195-.311 3.931 1.032 7.419 4.297 9.838 2.595 1.925 5.486 1.628 8.379.608 8.561-3.024 17.125-6.037 25.694-9.039.644-.227 1.3-.423 2.168-.704l2.982 8.567c-3.511 1.244-6.884 2.445-10.262 3.633-5.69 2.002-11.424 3.884-17.066 6.015-12.133 4.585-22.222-2.48-24.56-14.536-1.815-9.356 2.504-16.827 11.468-20.03 9.133-3.264 18.302-6.432 27.456-9.639.173-.064.356-.097.753-.2Zm-52.446-27.278c0 2.905-.271 5.704.096 8.417.238 1.758 1.202 3.527 2.213 5.043 1.336 2.002 3.46 2.592 5.408 1.926 2.195-.748 3.16-2.486 3.121-4.617-.066-3.667-.348-7.334-.608-10.996-.506-7.221 2.987-12.843 9.1-14.55 5.81-1.621 11.966.816 15.789 6.253 3.446 4.896 4.708 11.337 3.062 16.416h-8.401c.405-3.155.691-6.352-.735-9.323a12.325 12.325 0 0 0-2.759-3.673c-1.301-1.188-2.982-1.488-4.714-.728-1.689.742-2.49 2.162-2.453 3.867.067 3.23.386 6.452.543 9.681.079 1.614.145 3.242.025 4.849-.405 5.449-3.232 9.221-8.31 11.146-5.184 1.963-9.93.952-14.085-2.681-5.532-4.834-8.107-14.977-5.458-21.787Zm-7.153-65.699-5.504 5.914-12.097-12.221-8.436 8.359 10.354 10.256-5.915 5.712-10.169-10.215-13.032 13.055-6.194-6.384 32.573-32.58Zm-92.535-28.571c.282-13.275 11.193-24.472 24.286-24.439 12.92.034 23.464 10.572 23.438 23.424-.027 13.535-11.387 24.764-25.045 24.67-12.219-.085-22.96-10.571-22.679-23.655Zm-60.383-65.057 3.526 20.322 14.279-14.865 9.682 2.952c-1.965 2.02-3.805 4.002-5.74 5.886-5.134 5.004-10.328 9.949-15.443 14.97a6.24 6.24 0 0 0-1.499 2.48c-1.778 5.622-3.466 11.273-5.241 17.102l-8.73-2.655c1.766-5.763 3.534-11.39 5.188-17.05a7.004 7.004 0 0 0 .138-3.254c-1.959-9.565-4.002-19.111-6.08-28.926Zm-66.41-11.34 38.01 4.49-.926 8.115-14.496-1.673c-1.52 12.86-3.014 25.475-4.535 38.335l-9.042-1.04 4.518-38.35-14.456-1.757.927-8.118Zm-22.968.29 1.324 46.624h-9.111l-1.317-46.623Zm-54.315 5.433c6.802-3.597 13.621-3.18 20.443.716l-2.568 8.049c-2.356-.779-4.529-1.675-6.789-2.194-2.426-.558-4.857-.258-6.984 1.216-3.177 2.196-3.021 6.218.49 7.763 2.534 1.115 5.326 1.682 8.022 2.419 3.378.923 6.753 1.862 9.459 4.232 6.16 5.395 5.413 15.745-1.458 20.695-6.43 4.632-17.937 4.104-24.118-1.216l3.688-7.701c2.928 1.842 5.924 3.319 9.309 3.21 1.852-.059 3.902-.427 5.472-1.331 3.09-1.775 2.976-5.954-.174-7.6-2.119-1.115-4.531-1.675-6.831-2.42-2.128-.69-4.328-1.18-6.421-1.961-5.157-1.926-8.512-5.448-8.811-11.154-.3-5.724 2.293-10.086 7.281-12.722Zm-46.047 12.122c7.674-2.147 14.626 2.582 16.561 10.805 1.107 4.706.372 9.038-2.864 12.768l16.653 15.062-9.615 3.452-14.116-13.11-6.462 2.363 5.728 16.046-8.576 3.1c-5.296-14.76-10.539-29.378-15.855-44.192 6.304-2.166 12.334-4.55 18.546-6.294Zm-43.503 18.016 4.104 7.123-16.042 9.273c1.824 3.15 3.587 6.2 5.461 9.442l12.953-7.437 4.115 7.093-12.94 7.499 5.604 9.728 16.91-9.735 4.12 7.108-24.827 14.323-23.428-40.582Zm-69.12 48.355 30.16 18.699.675.371-.387-.709-.065.074.065-.074-6.037-14.628a29281.767 29281.767 0 0 0-7.486-18.133l7.46-6.39 17.785 46.434-6.666 5.708-43.037-24.928Zm-24.54 25.305 35.669 30.376-5.933 6.957-35.677-30.384Zm-39.163 55.294 36.263-.942-26.278-15.703 4.661-7.793 40.213 24.056-4.546 7.589-36.156.983 26.185 15.655-4.673 7.86-40.23-24.06c1.528-2.556 3.012-5.046 4.56-7.645Zm-39.818 127.865h8.192l-.819 18.565 10.93.507.69-14.649h8.187l-.676 15.022 11.248.545c.304-6.435.608-12.865.912-19.254h8.175L34.8 360.235l-46.768-2.162 1.225-27.302Zm2.893 79.77 19.244-2.533-2.457-19.119-19.243 2.452c-.396-3.031-.776-5.953-1.176-9.025l46.456-6.001 1.158 9.019-19.04 2.504c.816 6.375 1.621 12.653 2.451 19.117l19.067-2.423 1.153 9.019-46.42 5.996-1.193-9.006Zm25.061 63.017-7.803 2.493-11.646-36.466 7.794-2.533 4.477 13.896L46.8 439.224c.921 2.881 1.824 5.687 2.779 8.69l-36.765 11.739c1.459 4.618 2.893 9.153 4.397 13.905Zm34.733-206.295c-1.744 7.001-5.533 12.354-12.877 14.436-3.218.912-6.417.625-9.591-.258-.658-.184-1.301-.422-1.947-.649-9.033-3.175-18.065-6.352-27.29-9.597 1.03-2.929 1.996-5.67 3.032-8.608l13.057 4.58 14.969 5.252c3.266 1.141 6.469 1.2 9.08-1.37 2.838-2.792 4.043-6.311 3.187-10.252-.74-3.408-3.387-5.067-6.466-6.141-8.57-3.004-17.137-6.008-25.702-9.014-.578-.203-1.149-.427-1.916-.709 1.014-2.88 1.983-5.667 3-8.571 6.172 2.152 12.219 4.256 18.26 6.371a1193.67 1193.67 0 0 1 9.844 3.497c9.361 3.355 13.768 11.361 11.36 21.033Zm.965 88.478C55.096 216.76 168.61 101.897 311.237 101.853c142.129-.04 257.869 115.927 257.858 258.143.019 141.955-115.497 258.83-259.581 258.073-143.327-.754-258.865-118.678-256.605-262.328Zm371.216 290.475-8.866 2.912c-1.161-3.546-2.304-7.014-3.43-10.486-1.824-5.624-3.599-11.264-5.492-16.865-.316-.934-1.122-1.706-1.722-2.543-.263-.37-.561-.71-1.07-1.357l10.321-3.38 4.668 14.403 9.284-2.958 2.708 8.367-9.244 3.032c.947 2.946 1.864 5.816 2.843 8.875Zm-232.839-3.07 2.644-8.015 36.95 12.033-2.622 8.017-12.216-3.93-2.545 7.618-10.018-3.243 2.458-7.672Zm32.906-5.963c-7.181 3.56-16.846.685-21.047-6.138-3.995-6.485-1.436-14.147 5.648-16.909 8.673-3.38 19.318 1.647 21.537 10.194.232.893.291 1.832.357 2.276-.03 5.238-2.385 8.54-6.495 10.577Zm-155.65-91.575c-5.357 0-9.54-4.256-9.504-9.663.036-5.269 4.241-9.412 9.554-9.416 5.334 0 9.57 4.291 9.526 9.659-.044 5.245-4.284 9.42-9.576 9.42Zm89.44 84.35-19.641-13.809-13.062 18.614-8.473-5.941 13.02-18.593-20.231-14.228c1.594-2.276 3.142-4.491 4.792-6.839l48.38 33.936Zm-1.351-13.928c-4.989-6.094-9.334-12.512-10.346-20.651-7.998 1.867-15.403-.062-22.942-2.686v-9.497c2.981.945 6.08 2.043 9.239 2.9 3.583.972 7.236 1.276 10.888.248 3.651-1.027 5.81-3.612 6.246-7.412.025-.223.196-.43.515-1.088l10.091 7.07c-.71 1.014-1.258 1.926-1.936 2.728-3.325 3.921-3.141 8.173-1.295 12.617 1.773 4.263 4.567 7.834 7.588 11.254l1.278 1.453Zm78.012 65.124-47.026-15.326c.912-5.754 4.706-10.651 3.851-17.032l10.127 3.273-2.564 8.126 38.371 12.527Zm4.527-14.581-9.702-3.196 6.198-19.074-6.98-2.343 2.809-8.596 7.129 2.25c.777-4.569 3.913-8.444 2.736-13.781l11.225 3.608c-4.479 13.731-8.93 27.365-13.415 41.127Zm95.207 23.679h-8.632v-33.588h-5.996v33.632h-8.739v-12.465h-30.671v-2.176c0-10.984.039-21.968-.026-32.951-.017-2.973.811-6.114-1.795-9.019h26.516v8.142h-14.061v27.375h19.963v-2.039c0-8.8.022-17.599-.014-26.399-.011-2.736.626-5.601-1.794-8.29h10.593v14.837h6.016v-14.917h8.643Zm38.9-38.767c-2.466-3.782-2.736-7.777-1.164-11.952.124-.332.227-.672.442-1.312l-4.89 1.496-2.387-7.246 12.484-4.098-2.952-4.077 9.946-3.242 1.568 4.551 12.829-4.137c.791 2.432 1.552 4.763 2.374 7.282l-5.269 1.79c.439.267.587.36.738.447 8.745 5.041 8.138 15.788 2.341 22.012-7.249 7.773-20.479 7.044-26.06-1.519Zm50.184 21.015-3.894-11.889-36.822 11.919-2.714-8.411 45.732-14.801c2.198 6.774 4.358 13.432 6.581 20.278Zm48.134-27.814c-1.723-2.468-3.355-4.802-5.056-7.235l7.792-5.51c-2.688-3.837-5.261-7.644-8.005-11.323-.646-.867-1.868-1.302-3.285-2.241l8.838-6.271 10.153 14.468 3.686-2.582-10.097-14.472 7.663-5.366c3.43 4.899 6.742 9.632 10.134 14.472l5.095-3.553-20.401-29.174-29.428 20.542-5.075-7.252 37.111-25.933 25.461 36.415 4.677-3.203 5.084 7.23Zm79.267-99.078c-5.241.023-9.509-4.208-9.532-9.45v-.018c-.04-5.355 4.198-9.612 9.567-9.612 5.32 0 9.627 4.341 9.575 9.64-.056 5.206-4.351 9.424-9.61 9.44Zm68.746-96.76-35.03 9.087 29.111 9.341c-.937 2.92-1.824 5.684-2.772 8.633l-44.572-14.334c.891-2.802 1.75-5.505 2.676-8.411l34.981-9.147-29.04-9.323c.962-2.973 1.872-5.784 2.812-8.683l44.598 14.347Zm-12.052-36.428c-13.796-.017-24.549-10.458-24.537-23.823.011-13.184 10.437-23.169 24.182-23.157 13.672.011 24.109 10.177 24.106 23.48-.001 13.482-10.143 23.516-23.749 23.5Zm-22.301-69.049-1.3-10.06 28.381-11.083.014-.313-30.294-3.723-1.266-10.063 45.056-17.155 1.146 9.339-31.683 11.333-.006.281 33.667 4.155 1.009 7.771L598.646 336l.101.406 33.224 3.419 1.225 9.332Z"/><path fill="#002D69" d="M309.514 618.069c144.084.757 259.6-116.118 259.581-258.073.011-142.221-115.725-258.183-257.858-258.143-142.627.04-256.14 114.907-258.328 253.888-2.26 143.65 113.278 261.574 256.605 262.328Zm2.397-505.155c136.367.483 246.207 111.628 246.15 247.166-.091 136.335-110.925 246.388-245.954 246.981-136.386.599-248.537-110.347-248.208-247.74.327-135.605 110.808-246.896 248.012-246.414ZM325.737 647.316h-6.011v-14.837H309.13c2.42 2.689 1.783 5.551 1.794 8.29.036 8.8.014 17.599.014 26.399v2.039h-19.963v-27.375h14.059v-8.142h-26.519c2.606 2.903 1.778 6.044 1.795 9.019.065 10.983.026 21.967.026 32.951v2.177h30.673v12.464h8.739v-33.637h5.996v33.583h8.632v-57.853h-8.639Z"/><path fill="#002D69" d="m506.177 609.671-25.461-36.415-37.111 25.933 5.075 7.252 29.428-20.542 20.405 29.174-5.095 3.554c-3.388-4.84-6.7-9.573-10.134-14.472l-7.663 5.366 10.097 14.472-3.686 2.581L471.88 612.1l-8.835 6.272c1.419.939 2.635 1.374 3.285 2.241 2.743 3.679 5.316 7.486 8.005 11.323l-7.791 5.51c1.7 2.432 3.331 4.763 5.055 7.235l44.343-30.983-5.084-7.23ZM598.747 336.413a40.148 40.148 0 0 0-.101-.406l31.333-12.147-1.009-7.771-33.667-4.155.006-.28 31.683-11.334-1.146-9.339-45.056 17.155 1.266 10.063 30.294 3.723c0 .101-.009.209-.014.313l-28.381 11.076 1.295 10.057 47.943 5.786c-.432-3.289-.826-6.283-1.225-9.332ZM69.418 226.751l-26.185-15.65 36.156-.983 4.546-7.589-40.214-24.058-4.66 7.793 26.276 15.707-36.264.942a9468.006 9468.006 0 0 1-4.56 7.647l40.23 24.06ZM574.964 434.691l29.04 9.323-34.983 9.146-2.676 8.411 44.572 14.334c.948-2.949 1.835-5.713 2.772-8.633l-29.108-9.342 35.027-9.082 2.764-8.493-44.598-14.347-2.81 8.683ZM478.203 138.14c13.658.094 25.018-11.135 25.045-24.67.026-12.853-10.518-23.39-23.438-23.424-13.093-.033-24.004 11.168-24.286 24.439-.281 13.087 10.46 23.573 22.679 23.655ZM479.576 99c6.127-.39 12.269 3.004 14.144 10.598 2.128 8.613-5.041 18.61-13.858 19.597-8.304.929-15.18-5.234-15.182-13.609-.002-8.441 6.562-16.055 14.896-16.583ZM607.203 365.44c-13.745-.012-24.171 9.973-24.182 23.157-.012 13.365 10.742 23.806 24.537 23.823 13.606.016 23.748-10.018 23.751-23.5.003-13.303-10.434-23.469-24.106-23.48Zm8.335 35.709c-6.557 3.69-15.773 1.993-20.627-3.75-5.27-6.239-3.967-15.414 2.837-19.927 7.01-4.652 17.165-3.154 22.124 3.274 1.89 2.449 2.851 5.226 2.845 9.254-.18 4.416-2.489 8.509-7.179 11.149ZM211.287 103.322l-5.728-16.046 6.462-2.362 14.116 13.11 9.614-3.453-16.653-15.058c3.236-3.734 3.971-8.066 2.864-12.768-1.935-8.223-8.887-12.952-16.561-10.805-6.212 1.739-12.242 4.128-18.544 6.296l15.855 44.192Zm-3.612-39.055c2.826-.396 5.16 2.432 5.684 6.072.424 2.95-.669 5.224-3.368 6.411-2.317 1.013-4.746 1.783-7.239 2.7l-4.573-12.707c3.212-.866 6.304-2.024 9.496-2.476ZM38.61 404.534l-19.067 2.423c-.829-6.464-1.635-12.742-2.451-19.117l19.04-2.504c-.406-3.193-.78-6.08-1.158-9.019l-46.456 6.002 1.176 9.024 19.243-2.452 2.457 19.119-19.244 2.533c.405 3.094.79 5.974 1.193 9.007l46.42-5.993-1.153-9.023ZM40.58 246.226a1616.712 1616.712 0 0 0-9.844-3.497c-6.041-2.117-12.088-4.219-18.26-6.371-1.014 2.904-1.991 5.691-3 8.571.767.286 1.338.506 1.916.709 8.567 3.006 17.136 6.01 25.707 9.014 3.079 1.078 5.727 2.736 6.466 6.141.855 3.945-.35 7.461-3.188 10.256-2.611 2.57-5.814 2.511-9.08 1.37a7147.18 7147.18 0 0 1-14.97-5.252l-13.056-4.58c-1.036 2.939-2.002 5.675-3.032 8.608 9.221 3.242 18.257 6.422 27.29 9.597.646.227 1.29.465 1.947.649 3.174.883 6.373 1.171 9.591.258 7.344-2.082 11.133-7.435 12.877-14.436 2.408-9.672-1.998-17.678-11.364-21.037ZM567.981 265.902c2.338 12.059 12.427 19.121 24.56 14.536 5.642-2.128 11.376-4.014 17.066-6.015 3.378-1.189 6.751-2.389 10.262-3.633l-2.982-8.567c-.868.281-1.52.477-2.168.704-8.563 3.011-17.128 6.024-25.694 9.039-2.893 1.021-5.784 1.317-8.379-.608-3.265-2.419-4.608-5.907-4.297-9.838.304-3.882 3.013-5.973 6.469-7.195 4.811-1.694 9.635-3.35 14.448-5.038 4.439-1.557 8.872-3.135 13.411-4.741l-3.019-8.513c-.397.102-.58.136-.753.197-9.154 3.207-18.323 6.375-27.456 9.639-8.964 3.206-13.283 10.677-11.468 20.033ZM36.096 331.514h-8.175c-.304 6.384-.608 12.816-.912 19.254l-11.248-.545.676-15.022H8.254l-.69 14.649-10.93-.507.819-18.564h-8.196c-.405 9.026-.81 18.083-1.225 27.308l46.772 2.155c.432-9.66.857-19.087 1.292-28.728ZM186.183 114.055l-4.12-7.109-16.91 9.735-5.604-9.728 12.94-7.499-4.115-7.093-12.953 7.437c-1.874-3.243-3.639-6.292-5.461-9.442l16.042-9.273-4.104-7.123-23.97 13.827 23.424 40.59ZM399.333 652.991c5.797-6.224 6.404-16.971-2.341-22.012-.151-.087-.299-.18-.738-.447l5.269-1.79-2.374-7.282-12.829 4.137-1.568-4.552-9.946 3.243 2.952 4.077-12.485 4.098c.84 2.544 1.592 4.83 2.388 7.246l4.89-1.496c-.215.64-.318.979-.443 1.312-1.57 4.175-1.301 8.169 1.165 11.952 5.585 8.566 18.815 9.295 26.06 1.514Zm-19.033-9.867c0-3.903 3.22-7.051 7.175-7.014 3.781.035 6.927 3.157 6.932 6.88.006 3.79-3.38 7.074-7.249 7.027-3.825-.046-6.858-3.095-6.858-6.893ZM252.992 67.689c2.093.781 4.292 1.272 6.421 1.962 2.3.744 4.712 1.308 6.831 2.418 3.15 1.651 3.264 5.83.174 7.6-1.574.904-3.624 1.273-5.472 1.332-3.384.108-6.384-1.368-9.309-3.21l-3.688 7.701c6.189 5.32 17.692 5.848 24.118 1.216 6.871-4.95 7.618-15.301 1.458-20.695-2.706-2.37-6.08-3.309-9.459-4.232-2.696-.737-5.484-1.302-8.021-2.419-3.512-1.545-3.668-5.567-.491-7.763 2.128-1.47 4.56-1.77 6.984-1.216 2.261.519 4.435 1.418 6.79 2.194l2.567-8.05c-6.822-3.895-13.641-4.312-20.443-.715-4.983 2.635-7.576 6.998-7.272 12.72.303 5.708 3.655 9.23 8.812 11.157ZM552.502 229.79c4.155 3.633 8.901 4.644 14.085 2.681 5.08-1.925 7.905-5.694 8.31-11.146.12-1.608.054-3.235-.025-4.849-.157-3.229-.476-6.451-.544-9.681-.036-1.705.765-3.125 2.454-3.867 1.732-.76 3.413-.46 4.714.728a12.325 12.325 0 0 1 2.759 3.673c1.426 2.968 1.143 6.164.735 9.323h8.402c1.646-5.079.383-11.52-3.062-16.416-3.823-5.437-9.979-7.874-15.789-6.253-6.113 1.707-9.608 7.329-9.1 14.55.259 3.662.541 7.329.608 10.996.039 2.128-.926 3.869-3.121 4.617-1.948.664-4.072.074-5.408-1.926-1.013-1.52-1.975-3.285-2.213-5.043-.367-2.713-.096-5.512-.096-8.417l-8.168-.76c-2.648 6.813-.073 16.956 5.459 21.79ZM134.944 147.951l-17.785-46.434-7.46 6.39a24811.7 24811.7 0 0 1 3.404 8.246l4.082 9.887 6.041 14.633.387.71-.675-.372-30.16-18.704-7.537 6.427 43.037 24.928ZM109.595 596.001l20.231 14.228-13.02 18.588 8.473 5.941 13.062-18.614 19.641 13.809 4.785-6.855-48.38-33.936c-1.645 2.35-3.198 4.563-4.792 6.839ZM503.26 163.92l13.032-13.055 10.169 10.215 5.915-5.712-10.354-10.257 8.441-8.359 12.097 12.221 5.505-5.914-18.426-18.103-32.573 32.58ZM391.163 78.573c-1.654 5.66-3.422 11.288-5.188 17.05l8.73 2.656c1.775-5.83 3.463-11.48 5.241-17.102a6.24 6.24 0 0 1 1.499-2.48c5.115-5.021 10.309-9.966 15.443-14.97 1.935-1.884 3.775-3.865 5.74-5.886l-9.682-2.952-14.279 14.865-3.526-20.322-9.917-3.04c2.075 9.814 4.118 19.361 6.08 28.926a7.013 7.013 0 0 1-.141 3.255ZM337.742 86.315l9.042 1.04c1.52-12.859 3.014-25.474 4.535-38.334l14.496 1.673.926-8.115-38.01-4.486-.927 8.118 14.456 1.756-4.518 38.348ZM46.799 439.219l-36.767 11.724-4.477-13.897-7.794 2.534 11.646 36.466 7.803-2.493-4.4-13.903 36.767-11.744-2.778-8.687ZM157.091 600.253c-1.848-4.443-2.027-8.695 1.295-12.616.678-.8 1.222-1.713 1.936-2.728l-10.091-7.07c-.319.658-.49.865-.515 1.088-.436 3.8-2.594 6.384-6.246 7.412-3.653 1.029-7.305.724-10.888-.248-3.162-.857-6.258-1.955-9.239-2.9v9.497c7.536 2.624 14.944 4.553 22.942 2.686 1.013 8.139 5.357 14.557 10.346 20.651l9.323-3.064-1.278-1.453c-3.018-3.42-5.812-6.991-7.585-11.255ZM380.031 664.111l2.714 8.41 36.822-11.919 3.894 11.89 8.883-2.907-6.581-20.278ZM201.59 652.069l-10.127-3.273c.859 6.384-2.939 11.278-3.851 17.032l47.027 15.321 2.754-8.427-38.371-12.527ZM238.624 635.612l-7.129-2.248-2.811 8.598 6.98 2.343-6.198 19.074 9.704 3.191 13.418-41.134-11.225-3.608c1.178 5.34-1.964 9.215-2.739 13.784ZM230.33 624.33c-2.219-8.547-12.864-13.579-21.537-10.194-7.084 2.762-9.643 10.421-5.648 16.909 4.201 6.823 13.866 9.698 21.047 6.138 4.11-2.037 6.465-5.342 6.495-10.577-.066-.444-.125-1.383-.357-2.276Zm-13.804 6.428c-3.167.018-6.086-2.562-6.095-5.386-.007-2.33 2.229-4.298 4.932-4.344 3.163-.052 6.13 2.481 6.181 5.28.051 2.426-2.215 4.434-5.018 4.45ZM103.907 177.988l-35.67-30.376-5.94 6.949 35.677 30.384ZM307.091 85.006l-1.323-46.623h-9.105l1.317 46.623Z"/><path fill="#002D69" d="m213.497 658.869 2.545-7.618 12.216 3.93c.89-2.722 1.723-5.255 2.622-8.017l-36.95-12.033-2.644 8.015 14.651 4.81-2.458 7.672ZM427.823 625.942l-9.284 2.963c-1.578-4.864-3.102-9.572-4.668-14.403l-10.321 3.38c.506.643.81.987 1.07 1.357.595.837 1.401 1.609 1.722 2.543 1.893 5.601 3.668 11.241 5.492 16.865 1.126 3.472 2.269 6.938 3.43 10.486l8.866-2.912-2.838-8.875 9.244-3.032-2.713-8.372ZM68.592 526.524c-5.313 0-9.518 4.148-9.554 9.416-.035 5.406 4.147 9.659 9.504 9.663 5.292 0 9.536-4.17 9.578-9.42.042-5.37-4.194-9.662-9.528-9.659ZM550.897 526.524c-5.371 0-9.607 4.256-9.567 9.612.01 5.242 4.268 9.482 9.51 9.472h.022c5.259-.012 9.554-4.23 9.61-9.44.058-5.303-4.255-9.643-9.575-9.644Z"/><path fill="#FFF" d="M312.107 607.061c135.029-.593 245.863-110.646 245.954-246.985.057-135.538-109.783-246.683-246.15-247.169-137.207-.485-247.685 110.806-248.012 246.41-.329 137.397 111.822 248.343 248.208 247.744Zm148.162-142.97c-6.729 23.138-18.691 43.253-35.38 60.537-22.431 23.233-49.477 38.741-80.544 47.262-12.689 3.48-25.689 4.686-38.845 4.709-16.466.03-32.556-2.177-48.164-7.456-26.568-8.986-50.085-23.01-69.807-43.068-17.756-18.055-30.458-39.134-37.208-63.656-.128-.462-.212-.938-.349-1.552h8.4c11.028 36.886 34.126 64.365 66.685 84.21 25.85 15.754 53.809 24.082 84.331 23.298 32.981-.848 62.207-12.224 88.603-31.324 26.614-19.259 45.297-44.41 54.646-76.239h8.493c-.306 1.172-.557 2.233-.861 3.279Zm-147.706-53.259c-1.425-4.251-4.319-7.344-8.119-9.417-6.059-3.304-12.278-6.315-18.449-9.411-8.395-4.21-17.112-7.876-25.149-12.681-15.873-9.494-22.814-24.057-21.572-42.364 1.114-16.472 13.804-30.716 30.689-34.772 11.48-2.757 22.865-2.071 34.127 1.475 3.608 1.137 7.324 1.956 11.025 2.762 1.247.271 2.611.165 3.903.037 3.011-.296 5.38-1.529 6.095-4.763h4.129v41.209h-8.749c-2.048-5.143-4.733-9.822-8.4-13.891-7.887-8.747-17.734-12.903-29.481-12.204-4.561.27-8.803 1.741-12.202 5.014-4.831 4.649-5.813 11.216-2.599 17.111 2.09 3.836 5.162 6.81 8.897 8.875 5.816 3.216 11.828 6.08 17.785 9.044 8.19 4.071 16.607 7.729 24.564 12.209 13.3 7.489 20.35 19.271 21.662 34.416 1.098 12.667-1.723 24.277-10.12 34.157-7.483 8.804-17.177 13.686-28.463 15.38-14.766 2.216-29.055.548-42.676-5.857a28.524 28.524 0 0 0-4.906-1.761c-5.615-1.471-8.888-.037-11.66 5.026h-4.113v-52.621h8.359c1.329 4.026 2.44 8.106 4.009 12.005 3.74 9.292 9.292 17.288 18.172 22.346 9.543 5.435 19.724 7.339 30.372 3.648 10.35-3.59 16.169-15.134 12.87-24.972Zm39.293 51.925v-1.907h13.595c0 .961.025 1.878-.005 2.794-.223 6.847.016 13.751-.793 20.528-1.442 12.069-7.315 22.128-15.808 30.642-9.519 9.54-20.913 15.698-34.329 17.513-19.136 2.589-36.055-2.543-50.343-15.636-9.87-9.044-16.464-20.065-17.953-33.526-.811-7.337-.63-14.783-.902-22.341h13.792v2.056c.041 6.984-.139 13.984.177 20.951.516 11.332 5.675 20.485 14.057 27.907 20.359 18.032 51.741 15.763 69.263-5.025 6.126-7.269 9.262-15.691 9.253-25.24a8341.1 8341.1 0 0 1-.003-18.717Zm-53.527-1.334c0-.172.095-.344.166-.583h14.112c.05.49.143.963.143 1.434.008 13.027.028 26.054 0 39.081-.013 5.168-3.762 8.562-8.488 7.802-3.165-.506-5.878-3.416-5.9-6.789-.079-13.646-.038-27.296-.032-40.946Zm-56.39 62.073c15.312 12.149 32.815 19.54 52.137 22.261 17.148 2.414 33.616-.71 49.498-7.344 19.368-8.093 35.264-20.492 46.932-38.048 7.507-11.293 12.059-23.7 13.497-37.217.078-.736.211-1.468.33-2.283h12.941c-1.16 10.761-4.315 20.804-9.018 30.364-11.216 22.787-28.725 39.391-50.885 51.322-10.64 5.727-21.809 10.2-33.733 12.304-17.372 3.067-34.482 1.959-51.205-4.053-24.697-8.886-45.383-23.206-60.801-44.659-8.7-12.102-14.52-25.492-17.174-40.202-.296-1.642-.468-3.306-.709-5.081h12.903c.46 2.931.834 5.884 1.395 8.8 4.296 22.341 16.32 39.895 33.893 53.835Zm249.433-160.163c4.021-13.543 8.091-27.072 12.023-40.641.608-2.116.95-4.434.805-6.619-.274-4.126-3.491-6.657-8.774-7.314v-5.323h35.658v5.154c-5.332 1.205-7.591 5.451-9.098 10.09-2.672 8.226-5.038 16.55-7.54 24.827-10.695 35.382-21.39 70.764-32.087 106.146-.179.592-.376 1.179-.566 1.771h-13.469c-10.134-29.87-20.267-59.725-30.556-90.051l-30.547 90.025H393.68l-6.565-21.23a91945.384 91945.384 0 0 0-32.274-104.119c-1.138-3.648-2.898-7.149-4.781-10.486-1.964-3.48-4.732-6.283-9.07-6.929v-5.168h55.139v5.143c-6.754 2.21-9.21 6.615-7.277 14.221 2.027 7.957 4.505 15.799 6.854 23.671a14592.76 14592.76 0 0 0 13.579 45.237c.158.526.362 1.037.716 2.04l29.876-90.317h12.036l30.4 90.425c3.127-10.54 6.089-20.548 9.059-30.553ZM145.608 191.451c13.376.386 25.858 3.08 36.59 11.413 6.531 5.067 11.545 11.313 14.977 18.831.194.424.373.856.891 1.223v-31.476c15.052.339 28.767 3.863 40.051 14.215 5.27 4.831 9.342 10.501 12.088 17.113.101.255.257.492.631 1.198v-32.425c12.648.425 24.602 2.723 35.05 10.222 9.617 6.902 16.193 15.916 19.244 27.416.072.233.163.46.272.678.02.044.101.057.049.029 8.506-26.505 27.969-37.442 54.62-38.39v31.854c10.539-22.371 29.083-31.34 52.84-31.942v32.123c10.508-22.685 29.002-31.533 52.621-32.116v104.409h-8.137v-95.385a39.394 39.394 0 0 0-12.44 2.874c-13.835 5.681-23.012 15.453-26.144 30.34-.507 2.417-.657 4.949-.662 7.429-.03 17.531.019 35.069.044 52.604v2.148h-13.516v-95.362c-19.494 1.527-39.137 17.03-39.217 40.419-.059 17.598-.012 35.196-.012 52.796v2.148h-13.523v-95.305c-9.646 1.035-18.083 4.398-25.246 10.64-9.252 8.067-13.984 18.228-13.939 30.603.067 17.227.018 34.447.018 51.67v2.372H298.31V242.553c-.009-18.443-9.064-30.933-25.466-38.507-4.262-1.969-8.797-3.062-13.688-3.445v95.254H245.57v-1.977c0-17.285.053-34.571-.015-51.857-.071-18.037-9.041-30.313-24.965-37.907-4.398-2.098-9.12-3.227-14.186-3.694v95.449h-13.558v-2.101c0-15.227-.064-30.453.032-45.679.037-5.616.447-11.26-1.133-16.72-4.885-16.874-16.556-26.373-33.284-30.267a22.22 22.22 0 0 0-1.836-.341c-.863-.128-1.73-.222-2.838-.361v95.483h-8.182Zm-41.813 232.166c-2.62-7.297-3.535-14.897-3.557-22.605-.039-13.604 0-27.209-.015-40.813-.014-11.856.082-23.712-.191-35.568-.079-3.411-.965-6.897-2.035-10.167-1.04-3.176-3.519-5.224-7.172-5.765v-5.3h53.414v5.186c-6.768 1.819-10.016 5.99-10.212 13.825-.203 8.107-.093 16.223-.113 24.334-.05 20.092.139 40.187-.216 60.273-.295 16.636 12.363 29.622 26.639 32.055 17.065 2.908 34.785-10.422 36.176-27.648.136-1.676.211-3.361.212-5.041.014-21.344.014-42.686 0-64.028-.005-6.485-.08-12.971-.139-19.462-.031-3.48-.608-6.858-2.484-9.845-1.457-2.316-3.301-4.236-6.406-4.341v-5.319h43.516v5.333c-3.344.742-6.09 2.566-8.089 5.427-2.612 3.738-3.308 8.031-3.318 12.45-.051 21.592.055 43.184-.129 64.775-.063 7.528-.229 15.135-1.341 22.558-2.169 14.472-10.24 25.232-22.887 32.401-11.327 6.425-23.667 9.033-36.647 8.639-9.835-.299-19.54-1.536-28.677-5.379-12.203-5.127-21.716-13.13-26.329-25.975ZM479.867 129.198c8.816-.987 15.984-10.982 13.858-19.597-1.875-7.594-8.017-10.988-14.144-10.598-8.333.53-14.896 8.142-14.896 16.586-.003 8.375 6.873 14.538 15.182 13.609ZM597.747 377.471c-6.803 4.513-8.107 13.688-2.837 19.927 4.854 5.744 14.07 7.441 20.627 3.75 4.69-2.64 6.999-6.735 7.178-11.147.006-4.028-.955-6.805-2.845-9.254-4.958-6.43-15.113-7.928-22.123-3.276ZM209.991 76.754c2.699-1.187 3.792-3.462 3.368-6.411-.524-3.648-2.858-6.468-5.684-6.072-3.192.448-6.282 1.606-9.496 2.476l4.573 12.708c2.497-.918 4.922-1.683 7.239-2.7ZM394.407 642.99c-.005-3.722-3.151-6.844-6.932-6.879-3.952-.037-7.175 3.111-7.175 7.014 0 3.798 3.033 6.847 6.858 6.891 3.869.048 7.255-3.236 7.249-7.026ZM215.363 621.028c-2.702.046-4.939 2.016-4.932 4.344.009 2.824 2.928 5.404 6.095 5.386 2.803-.016 5.067-2.026 5.022-4.45-.055-2.799-3.024-5.332-6.185-5.28Z"/><path fill="#002D69" d="M439.879 303.459c-9.931 30.009-19.83 59.948-29.876 90.317-.354-1.003-.558-1.52-.716-2.04a63633.24 63633.24 0 0 1-13.579-45.237c-2.349-7.872-4.831-15.714-6.854-23.671-1.933-7.606.523-12.011 7.277-14.221v-5.143H340.99v5.168c4.338.648 7.106 3.445 9.07 6.929 1.883 3.337 3.643 6.843 4.781 10.486 10.84 34.682 21.598 69.39 32.274 104.123a103885.5 103885.5 0 0 1 6.565 21.23h13.541l30.547-90.025c10.291 30.326 20.422 60.181 30.556 90.051h13.468c.19-.592.387-1.179.566-1.771 10.697-35.382 21.392-70.764 32.087-106.146 2.502-8.281 4.864-16.605 7.54-24.827 1.507-4.639 3.766-8.885 9.098-10.09v-5.154h-35.657v5.324c5.283.656 8.5 3.187 8.774 7.313.145 2.185-.192 4.503-.805 6.619-3.932 13.569-8.005 27.098-12.023 40.641-2.97 10.005-5.935 20.013-9.06 30.551l-30.4-90.425ZM153.79 200.381c1.105.139 1.972.233 2.838.36.615.091 1.23.203 1.836.342 16.728 3.893 28.399 13.392 33.285 30.267 1.579 5.46 1.169 11.104 1.132 16.72-.101 15.226-.032 30.452-.032 45.679v2.1h13.561v-95.448c5.066.467 9.785 1.596 14.187 3.694 15.923 7.594 24.894 19.874 24.964 37.907.068 17.286.015 34.571.015 51.857v1.977h13.584v-95.25c4.891.389 9.424 1.482 13.688 3.446 16.402 7.578 25.457 20.071 25.466 38.507.01 17.099.01 34.197 0 51.296v1.982h14.448v-2.367c0-17.227.049-34.447-.018-51.67-.047-12.372 4.687-22.533 13.939-30.603 7.163-6.245 15.6-9.608 25.246-10.64v95.301h13.526v-2.149c0-17.598-.047-35.196.012-52.796.077-23.387 19.72-38.89 39.209-40.417v95.362h13.52v-2.148c-.025-17.531-.074-35.069-.044-52.604.005-2.48.153-5.012.662-7.429 3.135-14.887 12.312-24.659 26.144-30.34a39.394 39.394 0 0 1 12.44-2.874v95.385h8.137V191.422c-23.619.583-42.112 9.431-52.621 32.116v-32.123c-23.754.608-42.298 9.571-52.84 31.942V191.5c-26.651.948-46.116 11.885-54.62 38.39.055.028-.029.015-.049-.029a4.463 4.463 0 0 1-.272-.678c-3.051-11.5-9.627-20.514-19.244-27.416-10.448-7.499-22.402-9.797-35.05-10.222v32.425c-.374-.709-.525-.943-.631-1.198-2.746-6.612-6.822-12.282-12.088-17.113-11.286-10.355-25.002-13.879-40.054-14.217v31.477c-.518-.367-.697-.799-.891-1.223-3.432-7.517-8.446-13.759-14.977-18.831-10.732-8.333-23.212-11.027-36.59-11.413v104.412h8.182ZM195.448 446.333c12.647-7.173 20.718-17.929 22.887-32.401 1.114-7.423 1.278-15.03 1.341-22.558.184-21.591.078-43.183.129-64.775.01-4.419.709-8.714 3.318-12.45 1.999-2.861 4.741-4.685 8.089-5.427v-5.333h-43.516v5.319c3.105.101 4.949 2.026 6.406 4.341 1.877 2.987 2.453 6.365 2.484 9.845.059 6.485.134 12.971.139 19.462.018 21.342.018 42.684 0 64.028 0 1.68-.076 3.365-.212 5.041-1.388 17.227-19.108 30.557-36.176 27.648-14.277-2.432-26.934-15.419-26.639-32.055.355-20.086.166-40.181.216-60.273.02-8.107-.09-16.227.113-24.334.196-7.835 3.446-12.006 10.212-13.825v-5.182H90.825v5.3c3.653.541 6.132 2.589 7.171 5.765 1.07 3.27 1.957 6.756 2.036 10.167.273 11.85.177 23.712.191 35.568.018 13.604-.024 27.209.015 40.813.022 7.709.937 15.311 3.557 22.605 4.613 12.845 14.126 20.848 26.324 25.976 9.142 3.843 18.848 5.08 28.677 5.379 12.985.389 25.325-2.219 36.652-8.644ZM299.694 435.804c-10.648 3.691-20.829 1.787-30.372-3.648-8.88-5.058-14.432-13.054-18.172-22.346-1.569-3.898-2.68-7.979-4.009-12.005h-8.36v52.615h4.113c2.772-5.067 6.045-6.497 11.66-5.027a28.612 28.612 0 0 1 4.906 1.762c13.621 6.405 27.91 8.073 42.676 5.857 11.286-1.695 20.976-6.576 28.463-15.38 8.397-9.88 11.218-21.483 10.12-34.157-1.312-15.145-8.362-26.928-21.662-34.416-7.957-4.48-16.374-8.138-24.564-12.209-5.957-2.96-11.969-5.828-17.785-9.044-3.735-2.065-6.807-5.04-8.897-8.875-3.214-5.895-2.23-12.464 2.599-17.111 3.399-3.273 7.641-4.744 12.202-5.015 11.754-.698 21.594 3.458 29.481 12.205 3.667 4.069 6.352 8.747 8.4 13.891h8.749v-41.207h-4.129c-.715 3.236-3.084 4.469-6.095 4.763-1.292.128-2.656.234-3.903-.037-3.701-.811-7.417-1.622-11.025-2.762-11.262-3.546-22.647-4.232-34.127-1.475-16.885 4.053-29.573 18.3-30.689 34.772-1.242 18.311 5.695 32.874 21.573 42.367 8.037 4.805 16.755 8.471 25.149 12.681 6.171 3.096 12.39 6.107 18.449 9.411 3.8 2.073 6.694 5.168 8.119 9.417 3.298 9.839-2.521 21.383-12.87 24.973ZM397.988 537.053c-26.396 19.101-55.622 30.476-88.603 31.324-30.526.784-58.481-7.544-84.331-23.298-32.559-19.844-55.657-47.324-66.685-84.21h-8.4c.137.614.221 1.09.349 1.552 6.75 24.523 19.456 45.6 37.208 63.656 19.722 20.055 43.239 34.079 69.806 43.068 15.606 5.279 31.699 7.486 48.165 7.456 13.156-.023 26.156-1.229 38.845-4.709 31.067-8.521 58.113-24.029 80.544-47.262 16.689-17.284 28.651-37.399 35.38-60.537.304-1.046.555-2.107.861-3.277h-8.493c-9.343 31.827-28.029 56.978-54.646 76.237Z"/><path fill="#002D69" d="M208.038 469.655c-.561-2.916-.935-5.869-1.395-8.8H193.74c.246 1.774.418 3.439.709 5.081 2.654 14.71 8.474 28.1 17.174 40.202 15.42 21.45 36.107 35.771 60.801 44.659 16.721 6.016 33.833 7.124 51.205 4.053 11.924-2.104 23.097-6.577 33.733-12.304 22.16-11.931 39.669-28.535 50.885-51.322 4.705-9.56 7.86-19.603 9.018-30.364h-12.931c-.119.811-.252 1.547-.33 2.283-1.437 13.517-5.99 25.924-13.497 37.217-11.671 17.56-27.564 29.959-46.935 38.053-15.882 6.635-32.35 9.758-49.498 7.344-19.322-2.721-36.825-10.112-52.137-22.261-17.57-13.941-29.594-31.495-33.899-53.841Z"/><path fill="#002D69" d="M273.346 511.737c-8.381-7.422-13.541-16.575-14.057-27.907-.316-6.972-.136-13.967-.177-20.951v-2.056H245.32c.272 7.558.091 15.004.902 22.341 1.489 13.463 8.083 24.482 17.953 33.526 14.288 13.093 31.211 18.225 50.343 15.636 13.416-1.815 24.81-7.973 34.329-17.513 8.496-8.512 14.369-18.573 15.808-30.642.811-6.777.57-13.68.793-20.528.03-.912.005-1.833.005-2.794h-13.596v20.623c.009 9.548-3.127 17.971-9.253 25.24-17.521 20.788-48.903 23.057-69.258 5.025Z"/><path fill="#002D69" d="M304.254 509.157c4.726.759 8.475-2.634 8.487-7.802.034-13.027.014-26.054 0-39.081 0-.471-.092-.944-.142-1.434h-14.103c-.071.239-.166.411-.166.583-.006 13.65-.047 27.3.028 40.95.018 3.368 2.735 6.276 5.896 6.784Z"/></g></g></g></g></svg>