<svg xmlns="http://www.w3.org/2000/svg" width="600pt" height="600pt" fill-rule="evenodd" viewBox="0 0 600 599.99999"><path d="M247.482 422.518c0 27.022 21.985 49.007 49.005 49.007 27.025 0 49.008-21.985 49.008-49.007 0-27.023-21.983-49.008-49.008-49.008-27.02 0-49.005 21.985-49.005 49.008z" style="fill:#0a2c83;stroke:none" transform="matrix(6.12164 0 0 6.12151 -1514.995 -2286.446)"/><path d="M259.232 422.516c0 20.544 16.712 37.258 37.256 37.258 20.541 0 37.258-16.714 37.258-37.258 0-20.544-16.717-37.255-37.258-37.255-20.544 0-37.256 16.711-37.256 37.255z" style="fill:#fff;stroke:none" transform="matrix(6.12164 0 0 6.12151 -1514.995 -2286.446)"/><path d="m271.624 432.748-1.364 2.357 1.887 1.061 2.716-1.569zM272.49 438.964l2.723-.002.018-3.728-2.716 1.57zM320.416 406.146l-2.725.003-.015 3.731 2.716-1.567zM321.283 412.364l1.362-2.359-1.884-1.058-2.715 1.57zM318.045 434.559l2.716 1.569 1.884-1.061-1.362-2.357zM317.676 435.196l.015 3.731h2.725l-.024-2.163zM274.863 410.478l-2.716-1.569-1.887 1.059 1.364 2.359zM275.231 409.84l-.018-3.728-2.723-.002.025 2.162zM298.715 393.541l-1.859 1.101v3.138l3.218-1.879zM296.119 394.646l-1.859-1.105-1.363 2.36 3.222 1.881zM296.119 399.397l-3.914-2.327-1.352 2.339 5.266 3.122zM300.764 397.07l-3.908 2.325v3.133l5.261-3.119zM296.856 450.358l1.859 1.098 1.359-2.359-3.218-1.877zM294.26 451.456l1.859-1.101v-3.137l-3.222 1.879zM297.648 391.631c0 .948-.517 1.715-1.161 1.715-.641 0-1.16-.767-1.16-1.715 0-.947.519-1.715 1.16-1.715.644 0 1.161.768 1.161 1.715zM297.648 453.405c0 .947-.517 1.713-1.161 1.713-.641 0-1.16-.766-1.16-1.713 0-.949.519-1.716 1.16-1.716.644 0 1.161.767 1.161 1.716zM323.817 408.081c-.821.473-1.745.406-2.065-.148-.323-.557.081-1.392.902-1.866.821-.474 1.747-.407 2.069.148.32.558-.086 1.392-.906 1.866zM270.321 438.968c-.819.474-1.745.407-2.067-.149-.32-.556.084-1.39.904-1.865.82-.474 1.747-.406 2.067.151.321.554-.083 1.389-.904 1.863zM270.319 406.068c.821.473 1.225 1.308.906 1.865-.322.554-1.247.622-2.067.148-.822-.474-1.226-1.307-.904-1.866.322-.555 1.246-.622 2.065-.147zM323.817 436.954c.82.475 1.226 1.309.906 1.865-.325.556-1.248.623-2.069.149s-1.225-1.309-.902-1.863c.32-.557 1.244-.625 2.065-.151zM313.451 430.857l5.115-2.881-1.34-2.342-5.131 2.891zM309.474 433.012l.063 5.938 2.701-.009-.065-5.929zM280.877 428.598l-5.196-2.927-1.34 2.344 5.186 2.92zM280.734 433.012l-.062 5.966 2.697.01.063-5.976zM313.633 406.133l-.067 5.875h.424l2.287-1.32.056-4.553zM316.647 411.323l-2.393 1.381-.158.278 5.169 2.907 1.35-2.34zM319.265 429.187l-5.112 2.874.22.381 2.274 1.309 3.968-2.225zM316.277 434.388l-2.38-1.376h-.331l.067 5.929h2.7zM295.928 442.584l-5.075 3.006 1.352 2.338 3.914-2.325v-2.684zM296.856 442.907v2.699l3.908 2.322 1.353-2.338-5.074-3.006zM279.08 433.012l-2.45 1.417-.058 4.549 2.7.001.067-5.967zM278.83 432.14l-5.188-2.916-1.35 2.34 3.972 2.228 2.42-1.398zM278.728 412.709l-2.467-1.426-3.969 2.227 1.35 2.341 5.21-2.93zM279.339 412.008l-.067-5.912-2.7.001.058 4.55 2.355 1.361zM293.893 439.034l-5.094 3.014 1.356 2.332 5.079-3.004zM297.744 441.379l5.071 3.001 1.359-2.332-5.072-3.002zM313.4 414.189l-1.343 2.339 5.169 2.911 1.34-2.341zM312.173 412.008l.061-5.873-2.697-.012-.063 5.885zM299.06 405.977l5.114-3.025-1.359-2.331-5.107 3.021zM295.262 403.641l-5.107-3.02-1.356 2.331 5.115 3.026zM279.547 414.129l-5.206 2.931 1.34 2.343 5.21-2.936zM283.432 412.008l-.063-5.922-2.697.011.062 5.911zM310.033 424.987l1.361 2.335 5.139-2.895-.931-1.611h-1.721zM304.795 407.29l.941-1.632-.864-1.504-5.115 3.027 1.311 2.262zM305.396 412.008h2.689l.062-5.888-1.86.003-.891 1.539zM311.363 417.734l-1.288 2.241 3.702 2.135h1.908l.848-1.463zM305.396 433.012v4.223l.984 1.706 1.767.013-.065-5.942zM301.151 435.521l-1.35 2.322 5.071 3.002.9-1.542-.96-1.665zM288.066 437.624l-.916 1.588.95 1.633 5.099-3.018-1.361-2.374zM287.457 433.012h-2.634l-.063 5.979 1.703-.002.994-1.72zM279.11 422.816h-1.795l-.942 1.65 5.199 2.928 1.37-2.369zM282.883 419.928l-1.297-2.255-5.213 2.935.869 1.502h1.875zM289.066 407.87l2.823 1.622 1.33-2.308-5.119-3.03-.918 1.597.878 1.524zM287.457 412.008v-4.369l-.898-1.553-1.799-.004.063 5.926zM288.523 410.817c.266-.127.6-.154.92-.052l1.45.457.642-1.118-3.372-1.939v2.96a.964.964 0 0 1 .36-.308zM303.246 410.946l.404.03s.596.025 1.04.449v-3.26l-3.27 1.888.518.893zM289.373 434.605a2.722 2.722 0 0 1-.398.025c-.039 0-.078 0-.118-.004a.505.505 0 0 1-.129-.021 1.123 1.123 0 0 1-.479-.254c-.03-.029-.058-.063-.086-.094v2.499l3.323-1.915-.319-.557c-.663.166-1.282.268-1.794.321zM304.028 434.628s-.081.026-.125.022a.963.963 0 0 1-.167-.006c-.109-.01-.224-.018-.305-.035a11.88 11.88 0 0 1-1.255-.206c-.108-.02-.221-.054-.329-.08l-.334.576 3.178 1.844-.001-2.58a1.064 1.064 0 0 1-.662.465z" style="fill:#1f5fa9;stroke:none" transform="matrix(6.12164 0 0 6.12151 -1514.995 -2286.446)"/><path d="M300.474 433.921a9.78 9.78 0 0 1-.835-.352 7.675 7.675 0 0 1-.605-.316 7.836 7.836 0 0 1-.806-.529c-.017-.011-.033-.024-.047-.032a13.448 13.448 0 0 1-.437-.355 6.897 6.897 0 0 1-1.331-1.604 6.632 6.632 0 0 1-1.341 1.609 6.26 6.26 0 0 1-.487.391c-.009.006-.015.013-.02.018-.27.197-.556.381-.859.549-.084.047-.167.094-.253.137-.09.049-.181.091-.277.138-.261.123-.538.239-.822.346a11.53 11.53 0 0 1-.485.164l4.613 8.045 4.614-8.008a11.488 11.488 0 0 1-.622-.201z" style="fill:#0a2c83;stroke:none" transform="matrix(6.12164 0 0 6.12151 -1514.995 -2286.446)"/><path d="m309.67 424.364 3.314-1.899-3.26-1.879-1.122 1.949zM283.236 420.543l-3.32 1.922 3.379 1.949 1.086-1.879z" style="fill:#1f5fa9;stroke:none" transform="matrix(6.12164 0 0 6.12151 -1514.995 -2286.446)"/><path d="M313.426 412.72h-8.26c0 .022.003.042.003.065v.033c-.02 1.072-.075 1.118-.193 1.997a20.162 20.162 0 0 1-.106.664c-.055.328-.116.639-.184.941-.002.016-.007.033-.012.051-.041.19-.088.376-.136.553a14.244 14.244 0 0 1-.777 2.251c.427.655.938 1.333 1.555 2.003a.887.887 0 0 1 .313.668.878.878 0 0 1-.275.635l-.026.026c-.179.158-.42.259-.683.259a1.01 1.01 0 0 1-.669-.248l-.011.012s-.563-.552-1.275-1.464c-.672.94-1.217 1.316-1.217 1.316l-.015-.01c-.175.151-.41.244-.668.244-.431 0-.8-.262-.93-.622a.994.994 0 0 1-.826.42c-.22 0-.425-.068-.588-.181l-.012-.012a.896.896 0 0 1-.244-.262c-.397-.513-1.104-1.846-.856-4.672v-.002c0-.002 0-.009.002-.015a.809.809 0 0 1 .127-.346.981.981 0 0 1 .838-.445.99.99 0 0 1 .841.445.853.853 0 0 1 .133.456c0 .063-.01.127-.025.186-.018.208-.165 2.016.625 3.491a.826.826 0 0 1 .078.161 1.04 1.04 0 0 1 .199-.219 9.605 9.605 0 0 0 1.317-1.715 13.049 13.049 0 0 1-1.137-2.36 7.301 7.301 0 0 1-.183-.553c-.007-.018-.007-.035-.018-.051a9.797 9.797 0 0 1-.219-.941c-.006-.017-.006-.036-.01-.054a7.16 7.16 0 0 1-.114-1.088h.004c0-.015-.004-.025-.004-.037 0-.498.439-.902.976-.902.509 0 .929.363.968.829 0 0 .025.215.11.588.038.173.088.378.156.61.002.018.01.037.012.054.083.278.18.596.31.941.008.016.012.033.019.051.061.163.13.334.206.506.051-.171.102-.338.145-.506.003-.018.009-.035.013-.051.085-.326.154-.638.213-.941 0-.017.004-.036.004-.054.041-.21.07-.412.097-.61.108-.812.137-1.104.124-1.608-.069-.424-.422-.387-.422-.387h-2.061l-.127.006a.939.939 0 0 1-.929-.926c0-.121-.002-.269.028-.379a.77.77 0 0 1 .76-.584l.18.009h.546l-4.634-8.001-4.906 8.511c.449.23.686.701.523 1.116-.175.479-.792.714-1.364.527l-1.213-.379h-9.971l5.648 9.815-5.648 9.769h10.41c.34-.072.682-.145 1.068-.269.93-.301 1.981-.705 2.73-1.471.179-.184.341-.349.491-.566.014-.018.022-.036.033-.052.184-.277.341-.578.465-.912.01-.014.013-.033.022-.051a5.478 5.478 0 0 0 .219-.878h-5.636c-.63 0-1.146-.479-1.146-1.062v-.097c0-.582.516-1.06 1.146-1.06h5.856v-1.382c0-.581.538-1.06 1.198-1.06h.109c.662 0 1.202.479 1.202 1.06v1.382h5.816c.628 0 1.145.478 1.145 1.06v.097c0 .583-.517 1.062-1.145 1.062h-5.695c.019.117.038.234.067.343.041.185.093.363.153.535.006.018.011.037.018.051.128.334.282.635.464.912a.226.226 0 0 1 .037.052c.15.217.303.421.491.591.929.844 1.918 1.205 2.986 1.507.289.081.502.149.704.208h10.667l-5.641-9.769zm-25.599 1.338a.85.85 0 0 1 .354-.417c.274-.173.65-.224 1.014-.11l2.252.73c.321.106.565.324.686.577a.836.836 0 0 1 .031.61c0 .002 0 .01-.006.01-.002.018-.01.03-.012.046-.203.445-.796.659-1.351.48l-1.491-.48-.163-.056-.598-.192a1.161 1.161 0 0 1-.663-.527.81.81 0 0 1-.053-.671zm3.664 3.655c.114 2.449-1.991 4.616-2.141 4.769-.188.21-.468.347-.79.347-.203 0-.388-.055-.546-.151a.945.945 0 0 1-.426-.501c-.002-.003-.002-.006-.002-.007a.913.913 0 0 1 .311-.988l.062-.059c1.615-1.652 1.53-3.633 1.53-3.633l.025.003a.817.817 0 0 1 .226-.469c.184-.192.457-.318.764-.318.306 0 .582.126.768.318a.823.823 0 0 1 .219.689zm1.875 4.346a.833.833 0 0 1-.253.274 1.044 1.044 0 0 1-.588.181c-.538 0-.976-.403-.976-.898 0-.166.053-.323.137-.459.79-1.475.64-3.283.619-3.491a.839.839 0 0 1 .115-.642.984.984 0 0 1 .838-.445c.357 0 .672.177.839.445.066.103.11.22.126.346h.002a.05.05 0 0 1 .002.015v.002c.245 2.826-.456 4.159-.861 4.672zm3.587-5.639v5.563c0 .599-.533 1.095-1.185 1.095h-.016c-.65 0-1.184-.496-1.184-1.095v-6.213h-.84a1.36 1.36 0 0 1-.863-.291 1.718 1.718 0 0 0-.06-.054.804.804 0 0 1-.262-.579v-.031c.019-.493.547-.893 1.185-.893h.84v-2.987c0-.235.082-.454.223-.634.211-.277.564-.459.961-.459h.016c.652 0 1.185.494 1.185 1.093v.313h1.139c.648 0 1.183.414 1.183.923 0 .508-.535.924-1.183.924h-1.139v.827h1.229c.638 0 1.161.4 1.179.893 0 .012.004.021.004.031 0 .219-.1.421-.263.579l-.065.054c-.212.18-.517.291-.855.291h-1.229z" style="fill:#0a2c83;stroke:none" transform="matrix(6.12164 0 0 6.12151 -1514.995 -2286.446)"/><path d="m268.822 455.301-4.525-5.364-.568.48 1.926 2.283-.452.381-1.752-2.079-.568.48 3.491 4.14a364.04 364.04 0 0 1-1.201 1.015l.735.872 1.772-1.494-1.74-2.061.452-.381 1.908 2.262.568-.48zM268.791 451.368l-.612-.724-.04.007c-1.282.231-2.471-.947-2.804-1.314l-.045-.051-.064.039-.506.429.047.055c1.28 1.447 2.289 1.831 2.929 1.889-.049.642.157 1.7 1.369 3.205l.044.057.57-.479-.051-.066c-.392-.502-1.255-1.791-.826-2.976l.014-.039zM279.754 458.909l-.847-.539-.311.487-1.18-.749c.058-.087.24-.378.24-.378l-3.37-2.138-1.512 2.382 3.372 2.138s.182-.289.239-.377c.103.067 1.076.682 1.18.749-.061.097-.39.619-.479.755a3.579 3.579 0 0 0-1.077-1.041c-1.185-.75-2.536-.751-3.011-.002-.477.75.101 1.973 1.284 2.723 1.182.749 2.532.752 3.01.008l2.524-3.981zm-3.416-1.127c-.069.112-.637 1.006-.707 1.114-.108-.067-1.43-.906-1.535-.975.067-.108.636-1.003.705-1.111.106.066 1.427.904 1.537.972zm1.866 1.696c-.056.084-.192.302-.245.386a386.36 386.36 0 0 1-1.182-.749c.054-.085.194-.3.245-.385l1.182.748zm-4.237 1.334c.247-.389.976-.37 1.626.043.649.411.979 1.062.733 1.453-.248.386-.978.368-1.625-.045-.652-.412-.98-1.063-.734-1.451zM282.065 462.786c-.266 1.03.472 2.114 1.646 2.414.698.18 1.424.045 1.949-.356.05.014 1.405.362 1.53.393-.034.141-.761 2.958-.761 2.958l1.071.275 1.504-5.85-1.066-.277-.196.756-1.541-.397c-.271-.597-.836-1.058-1.526-1.236-1.175-.303-2.345.289-2.61 1.32zm1.076.278c.156-.606.754-.977 1.334-.827.578.151.922.763.767 1.367-.155.604-.754.975-1.332.825-.58-.149-.924-.762-.769-1.365zm4.418.748c-.03.111-.157.601-.186.714-.115-.031-1.063-.275-1.193-.308.054-.112.109-.223.138-.338.032-.118.037-.247.04-.377l1.201.309zM306.027 461.753l-2.431.647h.002l-.704.187.936 3.527 3.204-.849-.188-.71-2.125.565-.561-2.109c.129-.033 2.124-.564 2.124-.564l-.188-.712zM309.078 460.776l-.998.266.373 1.41a49.04 49.04 0 0 1-.41.109l-.375-1.41-1.068.284 1.55 5.841 1.069-.285s-.949-3.578-.989-3.719c.092-.025.322-.085.411-.111.039.143.988 3.722.988 3.722l1.07-.282-1.551-5.843zM296.617 463.367h-3.919v.736h1.415c-.177 1.718-1.133 2.095-1.543 2.174l-.057.013v.751l.079-.009c.926-.109 1.613-.564 2.062-1.332.451.774 1.148 1.231 2.084 1.334l.077.009v-.751l-.059-.01c-.414-.074-1.383-.441-1.561-2.179h1.49v-.736zM298.755 463.217h-1.022v6.039h1.092v-3.853h.826v-.736h-.826v-1.45zM317.938 455.809l-.851.561 1.796 2.717.909-.602s-.64-.968-.714-1.082c.099-.064.661-.437.661-.437l-.417-.633-.662.438-.662-1.002zM319.933 458.869l-4.701 3.109.418.632 3.837-2.535c.075.116.898 1.36.898 1.36l.924-.612-1.317-1.992zM314.859 457.704l-.861.571.274.414c-.111.072-1.495.986-1.495.986l.385.583.427-.283c-.05.313-.003.6.151.833.451.681 1.631.696 2.635.033 1.004-.663 1.455-1.756 1.004-2.436-.153-.234-.401-.39-.711-.466l.386-.252-.387-.584-1.476.975c-.058-.091-.273-.413-.273-.413zm-.196 2.467c-.23-.346-.03-.885.444-1.198.475-.315 1.048-.286 1.279.061.229.348.03.888-.445 1.201-.474.314-1.048.285-1.278-.064zM326.258 449.124l-3.967 3.902.517.524s3.121-3.068 3.221-3.168l2.383 2.424.795-.781-2.9-2.95z" style="fill:#fff;stroke:none" transform="matrix(6.12164 0 0 6.12151 -1514.995 -2286.446)"/><path d="m326.133 451.956-.744.733s1.753 1.784 1.855 1.884l-.579.57-1.855-1.886-.795.783 1.854 1.885-.786.773.517.524 4.802-4.723-.515-.523s-1.753 1.722-1.849 1.814l-1.853-1.885zM258.086 442.775c.122 1.11-.439 1.237-.463 1.242-.554.187-.864-.44-.877-.465-.299-.594-.06-1.04-.057-1.046l.008-.014-.075-.149-.927.468.028.031c.154.17.256.658.257.663.299 1.119 1.206 1.357 1.215 1.361.718.211 1.335-.392 1.341-.398.55-.58.425-1.582.42-1.625-.068-.918.445-1.14.451-1.142.774-.391 1.223.422 1.241.456.334.662.002 1.258-.001 1.266l-.016.027.09.05c.03 0 .819-.463.819-.463.141-.419-.274-1.251-.291-1.286-.322-.559-.717-.898-1.175-1.008-.619-.146-1.121.18-1.142.194-1.002.505-.847 1.825-.846 1.838zM253.139 437.2c.514 1.601 1.882 2.304 3.485 1.789 1.554-.5 2.292-1.931 1.793-3.484-.514-1.602-1.882-2.303-3.485-1.789-1.605.515-2.308 1.883-1.793 3.484zm2.075-2.599c1.127-.358 2.182.117 2.506 1.129.349 1.086-.168 1.968-1.384 2.36-1.18.379-2.162-.06-2.501-1.113-.159-.496-.132-.972.079-1.38.236-.457.686-.802 1.3-.996zM251.333 429.833c.255 1.661 1.495 2.569 3.16 2.315 1.613-.248 2.567-1.547 2.319-3.158-.256-1.663-1.497-2.571-3.161-2.315-1.664.256-2.574 1.494-2.318 3.158zm2.459-2.241c1.17-.174 2.136.46 2.297 1.509.173 1.129-.477 1.92-1.74 2.113-1.223.187-2.124-.397-2.294-1.492-.078-.514.024-.981.295-1.35.307-.414.805-.684 1.442-.78zM255.597 420.149l-2.241 2.092-1.903-2.011c-.264-.316-.299-.584-.299-.587l-.003-.028-.157-.001-.001.032-.004 1.706h.166l.008-.022c.02-.068.05-.108.088-.117a.075.075 0 0 1 .02-.003c.059 0 .124.053.147.076l1.648 1.722-1.505-.004c-.319-.001-.412-.295-.416-.308l-.007-.022h-.153l-.004 1.618h.161v-.031c.001-.319.4-.34.417-.342l4.115.012a.42.42 0 0 1 .441.347l.004.028.163.001.005-1.618-.161-.001-.006.023c-.08.294-.43.304-.444.304l-1.899-.005 1.972-1.818c.489-.427.541-.713.543-.726l.003-1.021-.227-.001-.006.025c-.07.269-.461.675-.465.68zM256.877 411.192l-4.96.177-.005.025-.021.106c.011.029 3.127 2.241 3.572 2.556-.131.032-4.258.992-4.258.992l-.046.133-.005.025 4.528 1.996c.412.179.425.436.427.447l.001.025.13.026.28-1.41-.129-.026-.012.022c-.086.179-.248.178-.341.16a.342.342 0 0 1-.073-.022l-2.659-1.086 3.729-.896.047-.146c-.011-.028-2.646-1.877-3.124-2.214l2.819.001a.789.789 0 0 1 .147.014c.087.017.149.05.183.095a.18.18 0 0 1 .031.148l-.009.033.163.032.287-1.447-.13-.026c-.237.26-.569.26-.572.26zM254.312 405.184l.11.043.015-.018s.057-.07.14-.076a.155.155 0 0 1 .075.013c.03.011.059.032.089.059l1.161 1.488-1.858.258c.003 0-.119.003-.183-.066l-.043-.149-.015-.017-.088-.035-.574 1.441.114.045.013-.025c.001-.003.105-.194.707-.297l2.448-.402 1.78.715a.373.373 0 0 1 .161.435l-.007.026.167.066.609-1.528-.163-.065-.014.02c-.002.003-.215.289-.447.197l-1.769-.705c.004-.003-1.47-2.006-1.47-2.006-.006-.007-.341-.398-.308-.708l.002-.023-.11-.044-.012.029zM257.559 398.953l.106.062.016-.013c.292-.235.6-.033.614-.024l2.484 1.447c.285.165.462.383.527.643.115.458-.156.905-.159.909-.003.006-.256.461-.708.587-.26.073-.536.025-.821-.141l-2.483-1.446c-.015-.009-.342-.177-.282-.546l.003-.021-.106-.062-.802 1.377.108.063.017-.016c.01-.01.263-.24.671-.003l2.536 1.478c.015.008 1.49.827 2.497-.902.355-.609.462-1.168.318-1.661a1.666 1.666 0 0 0-.769-.96l-2.534-1.477c-.408-.238-.332-.572-.329-.585l.006-.023-.108-.063-.015.027zM262.11 392.457l.019-.024c.191-.234.488-.056.5-.048l2.311 1.881-5.054.259-.084.088-.019.024 3.57 2.907c.543.441.337.72.328.732l-.019.024.134.108.979-1.202-.134-.109-.021.025a.237.237 0 0 1-.174.093c-.186.015-.405-.15-.465-.199l-2.16-1.759 5.046-.257.084-.088.019-.025-3.736-3.042c-.357-.29-.161-.57-.152-.582l.018-.024-.107-.086-.991 1.217zM269.198 388.93l.023-.018c.01-.007.223-.158.539.09l.858 1.001c-.012-.008-.162.491-.805.953-.012.008-1.247.855-2.492-.379-.006-.007-.635-.641-.631-1.472.003-.494.225-.96.661-1.385a2.154 2.154 0 0 1 1.303-.515l.073-.055.024-.02-.665-.773-.022.034c-.003.002-.14.208-.586.425-.01.004-1.198.51-1.567 1.843-.004.012-.351 1.267.733 2.529.015.018 1.551 1.792 3.624.337.011-.008.981-.753 1.325-1.692l-1.551-1.83-.943.811zM318.4 384.977c-.637-.909-.207-1.288-.188-1.305.393-.427.962-.031.986-.014.543.374.55.879.548.884l.002.016.136.093.585-.849-.039-.014c-.217-.075-.539-.451-.543-.455-.796-.834-1.701-.608-1.708-.605-.728.159-.978.979-.982.987-.201.77.39 1.584.414 1.619.498.768.157 1.205.153 1.21-.489.71-1.268.217-1.301.196-.607-.417-.604-1.095-.604-1.102v-.032l-.101-.002c-.028.015-.492.796-.492.796.076.433.837.959.869.981.549.335 1.055.441 1.506.317.609-.169.892-.693.902-.715.631-.919-.135-1.996-.143-2.006zM285.18 378.235c-1.578.526-2.258 1.887-1.731 3.468.51 1.533 1.935 2.247 3.466 1.737 1.577-.525 2.258-1.888 1.732-3.469-.527-1.58-1.889-2.261-3.467-1.736zm2.593 2.027c.366 1.111-.092 2.158-1.088 2.49-1.073.357-1.951-.145-2.349-1.344-.389-1.162.033-2.137 1.074-2.485.487-.162.958-.141 1.362.062.457.23.803.671 1.001 1.277zM297.045 381.439l-1.443-4.747-.024.001-.109.007c-.026.019-1.364 3.596-1.555 4.107l-2.05-3.86-.141-.01-.026.001-.767 4.887c-.067.444-.311.524-.323.527l-.021.007.008.132 1.433-.091-.009-.131-.023-.005c-.195-.038-.235-.194-.241-.289-.002-.042.001-.072 0-.075l.369-2.849 1.822 3.373.153.009c.025-.018 1.136-3.037 1.34-3.587.046.18.72 2.725.72 2.725a.7.7 0 0 1 .024.147.29.29 0 0 1-.045.201c-.053.066-.131.066-.135.066l-.034-.001.01.166 1.473-.092-.009-.133a.837.837 0 0 1-.397-.486zM309.391 378.899l.03.008c.294.082.25.429.247.444l-.806 2.894-2.28-4.565-.115-.042-.029-.009-1.245 4.471c-.189.681-.529.602-.543.599l-.029-.007-.047.166 1.506.42.047-.168-.031-.009a.232.232 0 0 1-.156-.122c-.092-.168-.026-.436-.005-.511.005-.012.712-2.557.753-2.706l2.275 4.557.115.043.03.009 1.302-4.679c.125-.448.463-.38.477-.376l.028.006.037-.133-1.524-.423zM280.404 379.644l-.078-.136-1.213.7.067.115.025-.011c.001 0 .102-.04.193.005.04.02.072.051.096.096a.45.45 0 0 1 .044.108l.548 3.061-2.912-2.411-.018.011-.11.064s.593 3.579.618 3.74l-2.308-1.944c-.003-.003-.104-.074-.158-.168a.225.225 0 0 1-.034-.112c0-.061.037-.116.109-.166l.024-.016-.068-.116-1.311.757.067.117.028-.014c.002-.002.183-.093.716.358l3.822 3.174.163-.095-.615-3.756c.124.101 2.921 2.424 2.921 2.424l.136-.079-.849-5.058c-.028-.149-.07-.551.07-.632zM302.008 381.747l-1.2-.112c-.011-.001-.234-.026-.214-.235l.143-1.521 1.175.11c.003 0 .416.072.483.402l.004.023.166.014.132-1.424-.14-.013c-.039.032-.211.366-.617.328l-1.141-.107.127-1.416 1.461.136c.011.001.266.03.341.33l.006.022.141.013.097-1.034-.031-.003-3.191-.299-.013.132.029.007c.004.001.336.086.268.796l-.325 3.474c.001.008-.027.634-.408.673l-.026.003-.014.146 3.18.297.25-1.05-.132-.012c-.039.031-.209.352-.551.32zM313.72 380.547l-.713 2.064.496.194.917-1.984-.031-.012zM339.902 426.756c.404-1.043.961-.898.985-.89.579.088.566.788.565.817-.007.666-.426.953-.43.956l-.013.009-.003.168 1.04.011-.011-.041c-.059-.222.075-.704.076-.709.251-1.133-.445-1.763-.453-1.767-.54-.52-1.367-.268-1.375-.265-.757.263-1.107 1.211-1.121 1.251-.364.848-.922.809-.927.807-.87-.009-.893-.94-.895-.978.008-.741.579-1.12.585-1.124l.026-.018-.056-.085c-.028-.014-.943.035-.943.035-.319.306-.333 1.238-.333 1.277.029.647.224 1.13.582 1.438a1.568 1.568 0 0 0 1.104.353c1.123.012 1.593-1.232 1.597-1.245zM328.767 390.611l-.091.084.009.021c.141.349-.144.589-.157.598l-2.128 1.974c-.244.226-.503.333-.777.32-.475-.024-.826-.415-.83-.42-.005-.005-.369-.383-.359-.859.007-.271.134-.523.377-.749l2.127-1.972c.013-.013.272-.279.61-.113l.018.01.092-.084-1.093-1.178-.091.085.009.02c.006.013.156.324-.195.649l-2.171 2.013c-.012.012-1.236 1.197.137 2.677.482.52.991.789 1.509.795.685.009 1.134-.442 1.153-.46l2.17-2.013c.349-.324.649-.153.662-.144l.02.011.093-.085-.022-.024zM333.972 396.494l.018.027c.178.246-.074.487-.084.498l-2.443 1.749 1.088-4.984-.063-.105-.017-.026-3.774 2.702c-.574.412-.801.144-.81.134l-.02-.025-.128.092.909 1.27.13-.093-.018-.024a.235.235 0 0 1-.043-.192c.034-.19.261-.365.326-.41l2.285-1.636c-.035.155-1.088 4.974-1.088 4.974l.063.107.018.025 3.95-2.826c.377-.271.597-.005.606.005l.019.024.111-.081-.921-1.287zM336.768 414.266l-.297-1.162c-.002-.01-.053-.228.148-.279 0 0 1.416-.362 1.475-.376.014.059.291 1.139.291 1.139 0 .002.072.415-.217.587l-.02.014.042.157 1.381-.351-.035-.136c-.042-.026-.415-.076-.514-.47l-.282-1.105 1.371-.356.362 1.418c.002.011.06.26-.196.43l-.019.012.035.138 1.004-.256-.008-.032-.787-3.09-.131.033.005.027c0 .003.032.344-.656.519l-3.368.858c-.007.003-.604.185-.768-.159l-.012-.022-.14.036.785 3.082 1.067-.119-.032-.127c-.041-.026-.4-.079-.484-.41zM336.107 399.825l-.119.068.012.025c.006.013.139.305-.342.58l-3.226 1.84c-.006.003-.441.282-.747.033l-.093.031-.027.016.8 1.402.11-.062-.01-.025c-.006-.013-.115-.325.407-.623l3.269-1.865c.003-.001.262-.157.464-.105a.27.27 0 0 1 .167.13l.015.027.121-.068-.015-.028zM341.127 431.682l-.133-.031-.008.028c-.004.013-.105.316-.643.191l-3.619-.841c-.007-.002-.515-.092-.57-.482l-.09-.042-.031-.007-.366 1.574.123.029.01-.026c.005-.013.138-.316.722-.179l3.666.851c.003 0 .3.064.412.238.04.062.051.132.034.209l-.007.031.135.032.008-.031zM339.365 407.222l-.13.046.009.03s.028.092-.021.157a.147.147 0 0 1-.074.051.357.357 0 0 1-.131.018l-3.597-.209 2.524-2.302a.744.744 0 0 1 .218-.135.233.233 0 0 1 .134-.014c.055.014.094.057.12.132l.012.029.131-.046-.538-1.497-.132.047.012.031c0 .003.07.194-.455.691l-3.672 3.547.041.168c.028.021 5.553.436 5.553.436s.291.056.348.214l.011.03.131-.047-.01-.03zM337.269 421.727l1.999-1.603c.068.204.429 1.11 1.437 1.037l.026-.002c.121-.009.622-.069.978-.463.273-.302.393-.726.353-1.257l-.162-2.212-.002-.032-.142.011.006.034a.244.244 0 0 1-.053.182c-.084.109-.258.175-.502.194l-3.749.272c-.006.001-.553.063-.642-.276l-.007-.026-.125.01.116 1.601.126-.009.002-.026c.002-.013.047-.326.521-.361l3.844-.279c-.006.002.125.1.152.487 0 .01.073.956-.585 1.187-.003.001-.448.139-.776-.067-.004-.001-.363-.23-.402-.775l-.039-.516-.135.01c-.016.006-2.284 1.736-2.284 1.736-.013.01-.301.252-.355.485l.051.689c0 .023.025.214.102.28l.096.002.048-.004-.021-.041c-.004-.006-.055-.114.124-.268zM338.967 439.277l.008-.024 1.128-3.221-.328-.203-.617-.218-.03.086c.009.035.27.356.165.658l-.236.67-3.567-1.248c-.001-.001-.01-.002-.024-.008-.103-.036-.478-.19-.489-.534l-.086-.05-.03-.01-.535 1.525.119.041.014-.023c.006-.013.171-.301.738-.102l3.567 1.248-.23.657c-.105.302-.511.39-.514.39l-.043.076-.012.03.612.215.366.043zM335.934 445.941l.61-1.295-.123-.058-.016.023c-.026.042-.057.062-.093.063a.151.151 0 0 1-.067-.017.598.598 0 0 1-.189-.174l-1.022-1.455 1.974-.18a.211.211 0 0 1 .105.013.07.07 0 0 1 .035.03c.036.055-.002.158-.022.194l-.015.029.127.059.664-1.408-.126-.059-.014.029c-.084.181-.355.215-.357.216l-2.858.269-1.442-.686c-.006-.002-.482-.198-.457-.592l-.078-.058-.029-.014-.688 1.459.113.055.014-.023c.01-.01.202-.28.747-.023l1.457.688c-.004.002 1.486 2.276 1.486 2.276.224.336.137.578.137.582l-.012.027.125.057z" style="fill:#fff;stroke:none" transform="matrix(6.12164 0 0 6.12151 -1514.995 -2286.446)"/></svg>