<svg xmlns="http://www.w3.org/2000/svg" width="187.90135mm" height="198.66165mm" viewBox="0 0 187.90135 198.66165"><g style="stroke-width:.129153"><path d="m10.903 369.183-.003-.003a1.82 1.82 0 0 1 .014-.09c.002.003.005.008.009.01-.006.026-.012.055-.02.083zM9.94 362.734c.019.01.035.02.043.028-.006.005-.013.008-.02.011l-.023-.039zM5.217 383.187a.658.658 0 0 0 .056-.012c-.02.141-.028.186-.101.274l.002.062c-.019.005-.038.007-.055.012l-.006-.125c.056-.06.052-.087.106-.148l-.002-.063zM5.53 382.559c.035-.03.072-.058.109-.087l.045-.261c.036-.028.073-.056.109-.086l.048-.197.055-.012.046-.26.11-.086c.06-.129-.004-.14.1-.272l-.002-.064c.019-.005.038-.007.057-.01-.012.143 0 .165-.047.261l-.055.012.004.124-.108.085-.046.262-.11.083.007.127c-.037.027-.074.056-.11.085l.008.186-.163.16c-.11.214-.14.41-.314.566a9.47 9.47 0 0 1-.005-.124c.147-.138.167-.306.262-.493zM7.323 379.578l-.005-.126c.06-.083.024-.003.051-.134l.056-.013.007.19-.057.01c-.043.08.01.008-.052.073zM6.256 381.086a11.136 11.136 0 0 0-.004-.124c.055-.06.052-.088.106-.147a.904.904 0 0 1-.002-.064l.056-.01c-.02.142-.03.184-.102.27l.003.063a.496.496 0 0 1-.057.012zM6.71 379.798l.057-.012-.004-.125c.017-.005.035-.007.054-.01l-.005-.126.106-.147c0-.041-.003-.083-.004-.127.019-.002.037-.007.056-.01a8.84 8.84 0 0 0-.005-.125c.036-.028.072-.058.108-.085l-.007-.188c.019-.004.037-.009.057-.01.013-.09.03-.177.044-.263l.057-.01-.008-.188c.018-.005.037-.008.055-.011l.046-.261a.466.466 0 0 1 .056-.012 8.812 8.812 0 0 1-.007-.186c.018-.007.037-.01.056-.014l.045-.26.056-.011-.005-.126c.019-.003.038-.008.055-.01a23.71 23.71 0 0 1-.007-.189l.056-.012a5.39 5.39 0 0 0-.005-.125l.055-.01a12.51 12.51 0 0 0-.007-.188.92.92 0 0 1 .056-.01l-.008-.19.056-.01-.007-.187a.436.436 0 0 1 .055-.012c-.003-.063-.006-.125-.007-.188.13-.444.343-1.033.33-1.58.192.21-.112 1.014-.175 1.235l-.039.448a.578.578 0 0 0-.055.012l.004.125-.056.01-.088.586c-.019.002-.038.007-.057.01l.006.125a.486.486 0 0 1-.055.012l-.042.388c-.017.003-.037.008-.055.01l.005.126-.057.01.008.189a9.973 9.973 0 0 0-.109.085l.005.125-.055.01.005.127c-.019.003-.037.008-.056.01l-.193.795c-.037.029-.072.058-.109.085l.005.127c-.019.003-.038.005-.056.01l-.043.325c-.019.005-.038.007-.056.011l.005.124c-.036.03-.072.058-.109.085-.104.225-.1.489-.254.682 0 .021.002.042.003.061-.018.005-.036.007-.055.012l-.006-.125c.166-.196.2-.558.305-.817zM7.53 379.158c.001.02.003.042.003.064-.112-.016-.047.016-.114-.04l.112-.024zM-1.173 391.91l.111-.021c-.043.08.009.009-.053.073-.034.076-.21.34-.324.317a1.265 1.265 0 0 1-.001-.062c.1-.083.209-.18.267-.307zM-.846 391.657c-.045.08.007.007-.053.074-.035.062-.041.178-.163.158a.916.916 0 0 0-.003-.063c.098-.08.084-.106.219-.169zM2.207 387.953a.672.672 0 0 0 .055-.012c-.04.211-.134.25-.207.421l-.112.022.049-.198c.142-.07.156-.096.215-.233zM.39 390.272a.746.746 0 0 1-.213.296l.003.062c-.101.061-.08-.02-.114-.04.132-.117.147-.23.324-.317z" style="fill:#7c0a49;fill-opacity:1;fill-rule:nonzero;stroke:none;stroke-width:.129153" transform="matrix(2.73148 0 0 -2.73148 148.934 1093.617)"/><path d="M-.63 391.424c-.046.08.007.008-.055.072-.033.063-.04.18-.161.161l-.002-.063c.097-.08.082-.107.218-.17zM.765 389.82l.21-.357.112-.024c.136-.141.098-.27.32-.38l.006.126-.112.021c-.07.12-.138.24-.21.357l-.11.024c-.07.12-.142.238-.211.357l-.111.022-.158.285c-.038.007-.073.015-.11.021l.262-.43.112-.023zM-.043 390.675l.111-.023c-.135.312-.444.455-.588.75-.112-.016-.048.018-.114-.04.193-.167.485-.44.591-.687zM1.831 388.406c.037-.007.075-.013.112-.022 0 .022.001.043.003.064-.21.185-.3.437-.538.612l-.005-.125c.19-.094.351-.335.428-.529zM-2.738 393.486c.11-.06.048 0 .11-.086.063.059.022-.004.06.116-.132.066-.104.038-.163.158l-.055.012-.006-.126c.061-.065.009.008.054-.074z" style="fill:#7c0a49;fill-opacity:1;fill-rule:nonzero;stroke:none;stroke-width:.129153" transform="matrix(2.73148 0 0 -2.73148 148.934 1093.617)"/><path d="M-2.785 393.748c-.112-.016-.046.018-.112-.04l.111-.023.001.063zM-6.44 394.987c-.113-.015-.048.018-.114-.042l.112-.022.002.064zM-2.577 393.328c.131-.068.105-.039.162-.16.038-.006.075-.015.112-.021-.034.07-.068.14-.104.21l-.167.034-.003-.063zM-1.712 392.46c.037-.006.073-.014.11-.021-.044.08.008.008-.053.074-.034.074-.21.34-.324.317l-.002-.063a.933.933 0 0 0 .269-.306zM-2.194 393.062l.003.062c-.113-.016-.048.019-.115-.04l.112-.022zM-1.438 392.28l.002.062a3.741 3.741 0 0 0-.109.086l-.056.01-.002-.062.165-.097z" style="fill:#7c0a49;fill-opacity:1;fill-rule:nonzero;stroke:none;stroke-width:.129153" transform="matrix(2.73148 0 0 -2.73148 148.934 1093.617)"/><path d="M-1.976 392.893c-.036.027-.073.055-.11.085l-.054.01a2.353 2.353 0 0 0-.004-.062l.165-.096.003.063zM3.221 386.615c.083.098-.137.251-.158.283-.164.24-.311.552-.532.739l.003.062c-.102.06-.08-.021-.115-.04.266-.348.534-.696.802-1.044zM-38.228 394.758l.01.05c-.02.01-.015-.02-.01-.05zM-38.218 394.81v-.002h.002l-.002.003zM-38.228 394.758a1.108 1.108 0 0 0-.01-.056c.022-.013.015.022.01.056zM3.804 385.74a5.447 5.447 0 0 1-.006-.124c.107-.128.215-.253.322-.38a7.739 7.739 0 0 0-.005-.125c.018-.004.037-.009.055-.01l.104-.21.162-.16a8.758 8.758 0 0 0-.004-.125c.035-.029.072-.056.108-.084a11.308 11.308 0 0 1-.005-.125l.216-.234c.095-.186.114-.353.26-.492l-.005-.127c.02-.002.038-.007.056-.01a.955.955 0 0 1-.149.47c-.038.028-.072.057-.11.085l.006.125c-.054.055-.108.107-.163.16l.005.124-.161.159c0 .043.003.083.004.127l-.268.305.005.124c-.126.151-.25.303-.376.453l.006.127-.375.453.006.126-.113.021c.017-.065.032-.132.048-.2l.377-.453zM2.422 387.722c.08.043-.05.135-.05.135l.002.063c-.102.06-.082-.022-.114-.04l.162-.158z" style="fill:#7c0a49;fill-opacity:1;fill-rule:nonzero;stroke:none;stroke-width:.129153" transform="matrix(2.73148 0 0 -2.73148 148.934 1093.617)"/><path d="M3.38 386.394c.08.043-.051.135-.051.135l.002.064c-.1.058-.08-.02-.113-.04l.161-.16zM-11.292 397.241c.072-.065.144-.132.213-.197l.061.038.018-.155c.212-.103.33-.12.528-.416l.117.074.078-.117c.141.04.046.04.158.017l.06.037c.03-.015.01-.253.134-.33.085-.003.17-.005.254-.005.101-.067.018-.153.019-.155l.04-.06.059.039c.038-.06.077-.119.116-.177.052.007.104.012.157.016.04-.058.078-.117.117-.175.02.011.039.024.059.037.111-.124.22-.25.331-.373l.059.037.214-.196c.142.039.046.04.158.016l.059.037c-.315.41-.71.606-1.053.83l-.118.177-.059-.037-.116.176a1.541 1.541 0 0 1-.06-.038l-.117.175a6.314 6.314 0 0 1-.058-.037c-.038.06-.078.118-.116.177l-.06-.037-.117.177-.058-.037a5.429 5.429 0 0 0-.079.116 1.175 1.175 0 0 0-.059-.037l-.292.313c-.17.118-.278.09-.448.3l-.433-.11c-.141.169-.38.3-.548.32l-.039.059-.06-.038c.176-.138.353-.277.527-.416l.354-.025zM-28.484 400.282l.125-.17.056.041c-.042.056-.083.115-.125.17l-.056-.04zM-12.172 397.683c-.038.058-.077.118-.116.175l-.059-.038c.039-.056.077-.117.116-.174.02.011.04.024.059.037zM-28.726 400.371c.12-.089.03-.054.141-.072a1.14 1.14 0 0 1 .043-.057c.019.013.038.028.058.04-.138.108-.096.096-.242.09zM-12.446 397.842l.039-.059.06.037c-.131.115-.09.1-.236.102.113-.096.026-.056.137-.08zM-30.036 385.937l-.007-.002.003-.001zM-29.886 385.937l-.004-.002h.001zM-38.584 343.076l-.02-.002c.057-.057.113-.11.16-.151a6.28 6.28 0 0 0-.14.153zM-38.648 343.066h-.003l.05-.04-.047.04z" style="fill:#7c0a49;fill-opacity:1;fill-rule:nonzero;stroke:none;stroke-width:.129153" transform="matrix(2.73148 0 0 -2.73148 148.934 1093.617)"/><path d="M10.06 366.71c.035.07.004.17.043.242l-.013.01.014.015-.038.035c.044.213.15.265-.029.47v.002c.025.027.05.055.075.08l-.007.064c.122.274-.132.42.041.715-.034.022-.067.046-.101.07.01-.07.004-.133 0-.191l-.018.164c.001.196.11.266-.025.469l.076.082c-.093.136-.097.167-.017.312-.123.202-.017.07-.013.236a.725.725 0 0 0-.041.037c.013.012.025.027.037.04-.02.016-.04.036-.061.054a.114.114 0 0 1-.003.042.161.161 0 0 1 .019.02c-.011.081-.012.168-.017.254.003.005.007.006.01.009l-.011.013a.773.773 0 0 1-.063.286c.027.048.058.103.053.204a.503.503 0 0 1-.083.157c-.007.115.02.216-.078.363l.075.081a.465.465 0 0 0-.05.098l-.001.003c-.05.13.019.186-.012.328l-.083.074.003.06a.232.232 0 0 1 .01.175c.003.039.006.079.007.119a1.224 1.224 0 0 0-.04.038l.079.074a.603.603 0 0 0-.103.173l.006.065-.037.034c-.01.042-.018.084-.022.129l.008.032c-.004.005-.009.007-.014.012-.013.13-.016.266-.055.397a2.98 2.98 0 0 1-.08.386c.043.098.02.153-.086.271.018.02.038.04.056.063a.397.397 0 0 0-.023.036c.014.017.005.005-.002.078l.06.057c-.046.03-.075.054-.11.079.007.009.013.014.02.021a2.955 2.955 0 0 1-.054.048l.093.088c-.05.064-.098.13-.147.196l.04.261-.107.14.012.083-.034.03.03.1c-.019.012-.036.025-.054.038a.151.151 0 0 1 .007.027l-.042.074c.024.024.047.045.071.066a.581.581 0 0 0-.141.274l.008.05-.026.04-.009.037.06.057-.14.155c.006.033.01.066.015.1l-.083.075.033.118a.415.415 0 0 1-.016.025c.01.046-.004.099-.108.2l.02.14.035.032c.006.03-.102.252-.198.42l.02.074-.083.075.03.105.035.032-.096.125.015.051a1.347 1.347 0 0 0-.036.052l.027.024a1.932 1.932 0 0 0-.08.056c-.015.017-.028.04-.042.058.013.04.023.08.035.12l-.003.009.003.01-.01.008c-.033.076-.08.102-.121.133l.033.213c-.046.03-.092.062-.137.093.014.053.03.107.047.16a4.52 4.52 0 0 0-.145.195l.057.054c-.045.033-.091.063-.136.094.013.087.024.173.04.263-.074.078-.184.175-.255.256.014.087.074.154.085.242-.043.03-.09.06-.137.09.018.055.036.106.052.16l-.216.241c.012.09.026.175.04.26-.047.033-.095.064-.14.094l.05.16c-.07.08-.145.16-.215.24l.048.16a2.91 2.91 0 0 1-.196.035c.04.04.08.076.12.114l-.15.196c.021.017.04.036.06.055-.045.032-.091.062-.137.092.018.055.033.107.048.158-.072.082-.144.162-.213.245.016.051.032.104.047.158l-.136.09c.02.021.037.039.059.058l-.14.094-.018.203c-.046.03-.09.063-.136.094l.05.157c-.079.218-.276.315-.247.55-.068.047-.1.077-.168.123-.02-.019-.039-.04-.06-.058.048-.063.06-.115.107-.177-.012-.053-.03-.107-.046-.16.07-.079.146-.16.215-.242a3.46 3.46 0 0 1-.05-.16c.068-.044.137-.093.206-.138-.013-.087-.025-.175-.04-.261l.15-.196c-.021-.018-.041-.036-.06-.056l.207-.138c-.013-.087-.028-.174-.04-.263l.216-.24c-.021-.018-.04-.038-.061-.059.047-.029.091-.06.14-.092l-.05-.157c.045-.03.091-.061.136-.093a5.652 5.652 0 0 0-.05-.157c.074-.08.146-.162.217-.244l-.049-.158c.048-.031.09-.063.138-.094a5.936 5.936 0 0 1-.048-.158c.044-.028.09-.06.138-.093a3.619 3.619 0 0 1-.051-.156c.046-.033.092-.065.138-.094-.016-.053-.08-.087-.098-.138.045-.03.092-.064.14-.092-.02-.056-.035-.109-.053-.16.047-.03.093-.063.14-.092-.02-.02-.004-.053-.023-.074.05-.065.1-.128.148-.195l-.118-.111c.051-.065.098-.13.148-.196l-.06-.056.138-.094-.043-.04-.018.018-.038-.042.129-.19-.032-.12.121-.18-.002-.004.009-.01c-.01-.039-.022-.076-.033-.115.029-.024.056-.05.083-.075l-.033-.12c.028-.023.055-.05.084-.074l-.034-.118c.028-.027.056-.051.084-.076l-.034-.118c.043-.038.084-.074.126-.114.006-.017-.016-.093.008-.155l-.075-.082c.189-.225.174-.462.196-.698a6.22 6.22 0 0 0-.033-.118l.125-.112a4.58 4.58 0 0 1-.032-.12l.083-.074-.034-.119a.67.67 0 0 1 .18-.382c-.025-.029-.05-.056-.076-.083.082-.125.078-.186.097-.31l-.038-.04.084-.075-.03-.197.084-.076-.038-.04c.017-.065.035-.13.05-.194l-.074-.083c.1-.15.133-.345.146-.503l-.034-.118.084-.075-.033-.118c.029-.053.058-.103.088-.154-.01-.092-.017-.184-.026-.276.028-.025.056-.05.084-.073l-.033-.12c.029-.025.055-.05.083-.076a3.133 3.133 0 0 0-.037-.04c.027-.182-.007-.37.11-.545-.027-.025-.052-.053-.077-.082.082-.124.13-.295.143-.425l-.034-.118.084-.075c-.012-.015-.025-.027-.037-.04l.048-.195-.028-.197.088-.151c.022-.208-.067-.378.07-.587-.024-.025-.05-.055-.074-.082.131-.201.06-.38.07-.586l.103-1.132c-.019-.157-.038-.314-.055-.472l.084-.074c-.091-.176-.043-.59-.037-.788.013-.039.03-.076.046-.116a2.399 2.399 0 0 1-.076-.082c.017-.09.035-.18.055-.271-.025-.028-.05-.057-.075-.082l.058-.353a3.83 3.83 0 0 1-.075-.08c.02-.143.041-.287.063-.428l-.075-.082.05-.195-.075-.08.05-.194-.075-.083.05-.193-.074-.082.058-.35-.072-.16c.027-.023.051-.047.076-.068-.002-.008-.002-.017-.002-.025-.083-.163-.053-.266-.085-.417l-.075-.081.05-.195c-.036-.067-.072-.136-.108-.2l.023-.058c-.009-.013-.016-.029-.026-.045l.029-.051-.088-.162.02-.053.014-.085-.096-.18.045-.115c-.02-.04-.041-.076-.062-.114a.118.118 0 0 1-.026-.019l.008-.015a.753.753 0 0 0-.028-.051c.016-.04.03-.08.046-.118l-.113-.12a.803.803 0 0 1 .043-.039l-.076-.084.047-.115c-.024-.027-.05-.055-.075-.08l.008-.157-.075-.081.042-.038-.074-.081c-.056-.221-.068-.498-.186-.739-.001.008-.003.008-.01 0l.003-.01a.752.752 0 0 0-.078-.124c.028-.054.059-.104.088-.155a6.77 6.77 0 0 0-.13-.182c-.02-.012-.042-.032-.07-.087.002-.002.004-.002.007-.003a4.355 4.355 0 0 1-.065-.093 3.5 3.5 0 0 1 .067-.03l-.042-.04.032-.02c-.006-.009.018-.03.013-.039.013-.009.027-.014.04-.023a1.702 1.702 0 0 1-.043-.106c-.01-.01-.02-.02-.03-.034l.014-.007c-.05-.135-.103-.287-.152-.385-.01-.017.008-.046-.002-.064.02-.01.04-.02.058-.032-.046-.043-.158-.06-.203-.103.023-.016.085-.048.108-.061-.07-.145-.118-.298-.19-.443.025-.015-.057.013-.034-.002-.04-.037.024-.118-.016-.155.012-.008-.082.028-.071.021-.038-.022-.022-.066-.041-.09a.885.885 0 0 0 .072-.04c-.052-.06-.05-.145-.1-.205.024-.012-.054.015-.03.003-.053-.062.047-.184-.004-.244.022-.013-.057.018-.033.002l-.08-.091-.024-.025s0-.002.002-.002c-.018-.02-.065-.031-.084-.053.025-.012.049-.027.074-.04-.052-.06-.057-.14-.11-.202l.017-.01-.097-.13c.015-.01.031-.023.049-.033l.073-.031-.263-.3.074-.041-.21-.242c.025-.015.05-.028.075-.04-.088-.101-.147-.213-.234-.315.023-.014.048-.03.072-.042l-.21-.24.075-.042c-.069-.08-.12-.168-.193-.25l.076-.04c-.284-.41-.444-.874-.728-1.282a.789.789 0 0 1 .075-.041l-.18-.208c.01.043.017.08.02.104a.882.882 0 0 1-.089-.183l-.014-.015.007-.004a6.491 6.491 0 0 1-.11-.304c-.049-.086-.099-.172-.166-.249a3.12 3.12 0 0 0 .068-.04l-.006-.014c-.205-.238-.385-.487-.59-.724l.074-.043c-.21-.241-.308-.531-.515-.772.024-.014-.114.04-.088.027a.889.889 0 0 0-.052-.059c.016-.004.07-.024.086-.03-.07-.08-.186-.139-.256-.222.025-.012.048-.025.073-.04-.14-.16-.28-.321-.42-.484-.024.014-.049.03-.074.042-.09-.072.086-.012.022-.103-.062-.086-.129-.088-.16-.084.197.367.391.733.56 1.114-.042-.048.053.164-.02.063-.123-.382-.21-.362-.3-.516.104.15-.024-.114-.12-.323l-.197-.303c-.042-.222.468.88.391.606l-.318-.639-.014.003-.045-.12-.011-.023a.16.16 0 0 1 .009.018l-.036-.096a1.71 1.71 0 0 0-.075.04c-.061-.114-.125-.228-.19-.345-.024.015-.047.03-.072.04-.034-.037-.07-.08-.105-.12a.172.172 0 0 0 .017.072c.073.126.15.26.226.396.094.141.19.275.257.358l-.181-.363c.067.122.124.25.19.372l.028.035c-.004 0-.006.003-.009.005.147.276.298.552.428.84-.043-.048.053.164-.02.063-.123-.378-.21-.364-.3-.511.002.007.007.021.007.027.138.373-.188-.19-.115.024l-.057-.114c.013.038.023.07.024.09.05.14.038.146.004.115.03.049.055.095.085.147l.055.063c-.004.004-.01.004-.014.008l.01.016c.028.04.044.053.055.058a1.698 1.698 0 0 1-.058-.15c.014.022.044.079.08.15.017-.015.028-.029.194.284.046.124.099.254.152.386.082.16.176.319.252.38 0-.002.002-.002.003-.004l.004.005c.006 0 .01 0 .003.003.171.201.203.458.377.657a.88.88 0 0 0-.072.04l.503.71c-.049.026-.099.052-.147.08l.084.221c.057.025.11-.056.178.08 0 0-.096.043.032.161.085.081.075-.074.124.02l-.072.042c.036.04.07.08.104.12-.024.015-.049.027-.071.042.05.06.102.123.155.183.03.1-.062 0-.021.1.023-.014.05-.028.073-.04a.87.87 0 0 1 .053.06l-.146.08c.058.027.118.053.18.08l-.076.043c.06.113.125.228.189.343.007.002.009 0 .015 0l-.067-.232c-.008-.158.057.089.096.162-.073-.24-.16-.488-.26-.797.022.057.035.056.026-.002-.065-.231-.358-1.01-.43-1.235l-.067-.342c.06.109.155.446.17.388l-.088-.281c.215.635.016-.074.133.223l-.064-.33c.057.109.152.446.167.388l-.088-.281c.229.673-.012-.176.154.273-.026.064-.103-.047.049.404.284.548.36 1.149.486 1.706.005.004.007.004.013.01-.002 0-.007.001-.01.003.04.173.083.343.14.506.06.288.131.346.14.405.003.131-.036.064-.079-.027a6.3 6.3 0 0 0-.092.14c.077.047.151.095.23.142-.025.013-.05.025-.073.04.034.042.022.101.06.141-.035.047-.002.066-.031.114.097.156.195.312.292.464-.024.015-.049.03-.072.042.036.041.07.08.103.12l-.073.041c.053.063.105.122.157.182a1.23 1.23 0 0 1-.073.042l.104.12a.612.612 0 0 1-.073.04c.088.102.11.23.197.331 0 0-.04.046.03.164-.096.054.07-.002-.028.052.136.2.301.684.28.744.018.02.13.001.147.022-.06.12-.185.078-.184.202.054.058.105.119.158.18-.025.012-.05.027-.074.041.037.04.069.081.104.12-.03.047-.063.095-.093.144.07.08.043.013.111.092.056.209.086.481.24.767-.229.232-.082.069-.066.303a2.449 2.449 0 0 1-.071.042l.105.122c-.025.012-.05.027-.074.041.034.037.068.08.105.121-.03.046-.065.094-.094.141.059.027.117.054.178.08-.032.049-.018.076-.049.122l.106.121-.074.042.158.182-.118.245c.03.073.059.147.086.222-.025.012-.05.027-.074.042.055.06.104.119.157.18a3.987 3.987 0 0 0-.071.041c.044.094.08.25.125.344-.027.013-.047.028-.071.041.05.059.057.143.108.201-.045.116-.09.296-.135.41.052.06.104.122.158.182l-.075.041.105.121c-.031.05-.062.096-.094.145.046.093.005.221.05.316l-.114.243.136.284c-.045.117-.052.46-.096.576.07.082-.02.227.049.31 0 .42-.01 1.468-.01 1.887l-.147.081c.053.06.105.122.156.183-.016.19-.157.43-.174.618l-.095.144.104.121-.093.141c.034.042-.006.112.03.153-.046.116-.092.23-.14.345 0 .25.126.286-.103.51.14.306-.052.336-.053.565l.105.123c-.13.52-.26 1.04-.388 1.564.033.04.07.08.102.12-.167.162-.116.225-.21.388.038.038.073.08.107.12a3.98 3.98 0 0 1-.148.08l-.092.772-.172.185c-.03.257-.062.512-.095.77l-.146.082.033.162-.074.041.031.16c-.049.029-.098.058-.147.083l.053.061c-.054.158-.056.24-.21.388l.105.121c-.056.062-.11.122-.169.182-.003.122-.008.245-.009.365l-.147.082c.003.09.007.178.008.264-.046.029-.097.056-.147.082l.033.164-.147.08-.031.467c-.05.027-.1.054-.147.082.011.056.02.108.032.163-.027.012-.05.028-.075.04.01.054.023.107.033.16-.05.03-.1.057-.148.085.01.055.02.107.032.161l-.148.082.01.263c-.048.028-.097.054-.146.084l.03.162-.164.183.05.06-.147.083.011.26c-.05.03-.099.056-.148.084.012.054.021.11.031.165l-.167.18c.017.023.034.04.052.063-.05.026-.098.053-.147.08.005.089.007.176.01.265l-.167.183.031.162c-.05.026-.096.053-.146.08l.031.166c-.081.073-.162.148-.242.223.01.054.023.107.032.162-.05.028-.1.054-.146.082l.01.264c-.05.026-.1.055-.148.082l.052.06-.147.082.032.163c-.082.074-.16.15-.24.224l.03.163c-.072.04-.147.08-.22.122.003.086.005.174.01.264-.048.027-.1.053-.146.082.008.053.022.107.031.16l-.241.225.03.162c-.049.028-.097.056-.147.083l-.041.202-.146.083.05.06a4.29 4.29 0 0 1-.146.083c.012.054.022.106.032.16-.082.075-.16.15-.241.225l.03.164-.22.122c.011.053.02.107.03.162l-.147.082-.041.203-.145.083.051.06c-.05.026-.097.054-.145.081l.05.061-.147.081c.018.022.037.042.053.06l-.147.083.052.061-.145.083.052.06c-.05.027-.097.055-.15.082.022.02.037.04.055.06a8.156 8.156 0 0 1-.147.08c.017.022.036.041.052.063-.048.025-.098.055-.148.082.018.02.036.04.052.06l-.146.082.054.061c-.108.089-.212.177-.316.265l.054.06-.241.225.05.06c-.073.04-.147.083-.219.124l.053.06c-.082.074-.163.15-.241.225.016.022.033.04.051.06-.074.041-.146.081-.22.124.018.02.033.04.052.06l-.148.083.054.06-.388.307.053.06c-.076.042-.147.083-.223.124l.053.06c-.05.028-.096.056-.145.082.016.02.034.04.05.062l-.22.122.053.06-.461.348.052.06-.147.083.053.06c-.18.128-.357.26-.535.389l.051.06c-.072.04-.146.082-.221.122l.055.06-.221.125c.018.02.036.041.052.062l-.632.53.055.06c-.122.069-.246.136-.37.205.019.02.039.04.055.06l-.22.123.052.062-.292.164c.016.02.032.04.05.06a4.51 4.51 0 0 1-.147.082l.053.06-.22.125.051.06c-.136.147-.319.098-.417.145.016.018.035.039.051.06-.05.026-.1.054-.148.082.019.02.035.042.051.06-.55.37-1.103.737-1.654 1.106-.02-.018-.037-.04-.055-.06l.223-.123c-.019-.02-.037-.042-.054-.062l.242-.224a1.46 1.46 0 0 1-.052-.06c.073-.04.146-.083.22-.123l-.053-.06c.173-.096.343-.192.516-.29a1.2 1.2 0 0 1-.054-.06l.222-.121-.054-.062.273-.062-.052-.062.239-.221a.643.643 0 0 0-.052-.062c.155-.116.309-.231.463-.349-.017-.02-.034-.04-.052-.058l.22-.125-.052-.06.148-.08-.053-.063.63-.531c-.011-.055-.023-.108-.032-.162l.294-.164-.054-.062.146-.08a.76.76 0 0 0-.052-.063c.098-.053.196-.107.293-.163-.018-.02-.033-.039-.05-.06.05-.027.097-.055.146-.083-.01-.055-.022-.109-.03-.16.129-.103.258-.207.386-.307-.017-.02-.035-.04-.051-.062l.146-.08-.052-.061.292-.165c-.014-.02-.033-.039-.052-.061.13-.103.26-.202.387-.305-.015-.021-.033-.04-.05-.06.049-.029.1-.057.147-.082l-.054-.062c.13-.103.262-.204.39-.307-.018-.02-.035-.04-.05-.06l.144-.082c-.016-.02-.034-.04-.053-.061.13-.101.26-.205.388-.306a3.053 3.053 0 0 1-.03-.164c.075-.04.147-.08.22-.122.147-.205.067-.295.431-.511a3.219 3.219 0 0 1-.103-.12c.318-.226.446-.436.596-.693-.015-.02-.035-.04-.052-.061.047-.025.1-.054.147-.082l-.052-.06c.048-.026.096-.053.146-.083-.017-.02-.033-.042-.051-.06.046-.026.097-.053.146-.082l.04-.202.15-.084a3.527 3.527 0 0 1-.031-.16l.22-.125c-.013-.052-.021-.108-.033-.16.05-.027.099-.055.148-.084l-.033-.16.146-.083c.025-.05-.015-.11.044-.202l-.107-.122a.538.538 0 0 1-.072.04c.057.064.022.138-.092.143-.02-.019-.038-.04-.055-.06l-.366.204a.781.781 0 0 1-.054-.059l.074-.04c-.12-.038 0-.009-.127-.02l-.05-.06a6.38 6.38 0 0 0-.358.468l.052.062a5.744 5.744 0 0 1-.148.082c.018.018.036.039.054.06l-.148.081.053.06-.22.123.01.264-.217.124c.014.02.03.039.05.06l-.146.082.052.06-.148.083c.02.02.035.039.053.06-.083.074-.16.15-.242.224l.054.06c-.052.027-.1.055-.149.082l.054.062a4.7 4.7 0 0 0-.148.083l.051.059-.144.082.05.061-.146.082c.017.02.036.04.052.06l-.24.224c.016.02.035.042.052.06-.049.03-.097.056-.147.084.016.02.033.04.053.06a14.42 14.42 0 0 0-.22.124c.016.02.032.04.05.06a3.368 3.368 0 0 1-.148.081l.054.06c-.073.043-.147.083-.22.122.011.056.02.11.034.164a7.886 7.886 0 0 0-.222.124l.051.059-.219.124c.017.022.035.04.052.06a4.94 4.94 0 0 1-.146.083l.051.06c-.074.04-.147.08-.22.124a.98.98 0 0 1 .051.06l-.146.081c.019.019.035.041.053.062-.074.04-.146.082-.22.124.017.018.035.039.052.06l-.22.122.053.06-.221.124.052.06c-.074.04-.147.083-.222.124l.053.06-.218.122c.017.02.034.041.053.06l-.223.125c.018.018.034.04.053.06l-.218.122.05.062-.22.122c.016.022.034.04.052.06l-.22.125.053.06-.222.121.054.063c-.098.055-.195.11-.293.163a1.01 1.01 0 0 1-.052-.06l-.074.04c.015.02.033.041.052.06-.074.043-.147.085-.22.125l.052.06c-.124.068-.245.138-.367.206l.051.059-.219.124c.018.02.033.04.053.06-.234.191-.471.382-.704.573l.053.06c-.333.247-.665.49-.998.736l.051.06c-.2.144-.402.288-.606.431.016.02.033.041.052.062-.097.053-.197.109-.293.164.016.017.035.038.05.06l-.606.429c.016.02.035.04.05.06l-.712.31.052.06-.369.206-.104-.122c.427-.251.863-.584 1.094-.88.112-.042.004.051.125.022.025-.016.049-.03.073-.043l-.052-.06.292-.164a2.208 2.208 0 0 0-.052-.062l.367-.205a7.712 7.712 0 0 0-.05-.06l.366-.204c-.018-.022-.036-.04-.053-.06.124-.07.244-.138.368-.205l-.053-.06c.097-.057.197-.111.294-.165a1.478 1.478 0 0 0-.053-.062l.294-.165-.053-.06c.123-.068.245-.136.368-.206a4.664 4.664 0 0 1-.052-.06c.179-.129.356-.26.534-.386l-.05-.061c.152-.117.306-.232.458-.35a1.086 1.086 0 0 1-.05-.06c.074-.04.145-.082.22-.122-.016-.02-.036-.04-.054-.063.074-.039.149-.082.22-.12-.018-.02-.033-.04-.052-.06l.222-.124-.053-.061c.122-.068.247-.136.367-.205-.01-.056-.022-.108-.031-.162l.293-.166-.053-.059c.075-.042.148-.083.221-.122-.017-.021-.035-.04-.051-.061.073-.042.145-.081.22-.123-.017-.02-.036-.04-.051-.06l.217-.125c-.018-.018-.034-.04-.052-.06l.39-.306c-.018-.023-.036-.04-.054-.062l.149-.08c-.018-.022-.036-.04-.052-.061l.293-.164a2.083 2.083 0 0 1-.053-.06c.05-.027.098-.055.147-.083l-.053-.06.221-.124a.893.893 0 0 1-.052-.061c.048-.026.097-.054.146-.083a1.979 1.979 0 0 1-.052-.06l.22-.122c-.017-.021-.035-.04-.053-.06l.242-.225a1.133 1.133 0 0 1-.054-.062l.222-.121c-.016-.021-.035-.04-.053-.061.05-.027.098-.056.147-.082a1.406 1.406 0 0 0-.054-.06l.222-.124a.792.792 0 0 0-.053-.06l.242-.225a.782.782 0 0 0-.053-.06l.147-.082-.053-.062c.076-.04.149-.08.221-.123-.01-.053-.021-.106-.03-.16.074-.041.146-.084.221-.124-.02-.02-.037-.041-.054-.06.113-.122.225-.246.335-.369l-.051-.06.242-.224a5.533 5.533 0 0 1-.032-.163c.08-.073.161-.148.24-.224a1.345 1.345 0 0 1-.051-.06l.147-.082-.052-.06c.048-.027.097-.057.145-.082l.044-.203.146-.082-.031-.163c.113-.121.224-.245.336-.365l-.032-.165c.113-.12.224-.244.336-.366-.019-.02-.034-.04-.051-.06.055-.063.11-.123.167-.185a2.817 2.817 0 0 1-.031-.162l.314-.265-.052-.06.168-.182c-.012-.054-.021-.11-.032-.164l.241-.223-.01-.265.24-.224c-.01-.054-.021-.11-.029-.163.049-.025.098-.054.145-.08-.01-.056-.019-.11-.03-.163l.147-.082c-.01-.055-.022-.107-.033-.161l.148-.084-.03-.161c.048-.029.099-.055.146-.082-.002-.09-.008-.176-.011-.265l.148-.08-.011-.264.148-.082c-.006-.09-.008-.177-.013-.263.05-.028.1-.057.149-.083a9.223 9.223 0 0 1-.01-.263 4.03 4.03 0 0 1 .147-.084c-.005-.087-.008-.176-.012-.264.077-.17.186-.324.356-.468-.034-.039-.07-.079-.103-.119.132-.129.14-.155.188-.287-.016-.02-.034-.04-.052-.06l.169-.182-.03-.163.144-.082c-.002-.09-.007-.176-.008-.264l.145-.082.01-.364.147-.084c-.005-.087-.007-.175-.01-.263.05-.027.1-.054.148-.082.003-.12.006-.241.011-.363.048-.03.097-.058.147-.085l.05-.565.148-.083.075-.67c.047-.027.096-.055.147-.082-.003-.088-.009-.176-.011-.264l.087-.331c-.069.168-.129.323-.118.4-.13.193-.105.064-.038-.11-.305.581-.215.658-.51 1.173l.067-.172c-.163.295-.355.57-.532.854-.138.27.107.02-.283.616-.071.094.18-.312.217-.437l-.164.246c.136-.272.265-.472.365-.696-.175.24-.2.288-.292.403l.004.07c-.019.01-.037.022-.056.03-.011.03-.036.078-.073.142l.014.072c-.03.015-.059.033-.087.049l-.02.03-.03.06c.004.016.008.035.01.052l.093-.122c-.031.059-.058.113-.083.165a.028.028 0 0 1 .001.01l-.013.015-.109.223a.032.032 0 0 1 .006.006l-.013.007c-.11.227-.239.465-.533.906l-.076.079.014.065-.148.083c.01.055.021.109.033.162-.05.029-.098.056-.148.081l.01.264c-.05.03-.097.056-.148.082.006.09.01.178.013.264l-.19.177-.05.076c0 .047.003.093.004.14.044-.061.111-.155.294-.4-.035.113-.155.273-.292.444v.023c.135-.178.274-.359.398-.532.17-.209-.116.205-.133.265a7.151 7.151 0 0 0-.381.53l.002.011c-.005.001-.01.004-.014.007l-.012.019c-.005 0-.01.003-.013 0l-.105.133c0 .03.002.059.004.088.284-.356.557-.712.801-1.052.17-.21-.116.202-.132.264a7.347 7.347 0 0 0-.406.567c-.005 0-.01.003-.012 0l-.248.31v.008l-.014.01-.043.053.037-.05a.891.891 0 0 1-.045.024c-.028.036-.052.069-.072.093l.022.115c-.05.026-.095.054-.144.082-.001 0-.002 0-.003.002.012.053.02.105.033.16l-.316.266.03.161c-.079.076-.16.152-.242.225.02.02.036.041.055.063l-.148.08.053.061-.146.082.05.06c-.048.028-.097.055-.145.084.016.02.034.038.05.06-.072.041-.146.081-.219.121.01.055.021.109.033.163-.075.04-.147.083-.221.125.01.053.021.106.03.16-.111.123-.224.246-.336.367.02.021.035.04.052.06-.047.028-.097.055-.146.082.017.022.036.042.052.061l-.145.084c.016.019.034.037.052.06-.05.026-.098.053-.147.08.016.021.034.04.051.061-.048.028-.096.056-.146.08l.052.062a4.395 4.395 0 0 1-.147.08c.018.022.035.043.053.061l-.222.124.055.062c-.05.028-.097.057-.149.082.02.02.036.04.054.06l-.241.223c.016.024.034.041.051.063-.128.102-.258.205-.389.305l.054.062-.147.082.054.059-.223.125.054.06-.146.082c.017.022.033.04.05.06-.129.102-.256.205-.388.307.019.019.036.04.054.06-.108.089-.21.177-.316.266l.053.06c-.08.077-.163.15-.241.226.017.02.036.04.052.06l-.63.532c.018.019.034.04.052.06l-.146.083a1.3 1.3 0 0 1 .052.06c-.072.04-.149.082-.22.123.017.02.035.04.05.06l-.532.389c.016.018.033.04.052.06-.048.028-.1.054-.149.082l.054.06c-.073.04-.147.083-.22.122l.051.062c-.08.077-.16.15-.241.225l.053.06c-.074.042-.146.085-.22.124l.053.06c-.084.075-.16.15-.242.224l.053.06-.296.166c.018.019.036.04.052.06-.072.042-.146.082-.22.123.02.02.037.041.052.059l-.22.124.055.06-.22.124c.016.018.035.04.05.06a14.95 14.95 0 0 1-.293.165l.052.06c-.123.069-.243.135-.367.206.02.02-3.521 3.159-3.504 3.178-.217.226-1.806 1.263-1.884 1.488-.148.082-2.394 1.61-2.54 1.692.022-.063-3.247 1.863-3.4 1.775-.022.013.453-.645.428-.632-.044-.092 3.486-2.282 3.44-2.375-.025.013 3.253-2.421 3.228-2.409-.128-.107 2.285-2.616 2.156-2.724-.447.266-.61.48-.872.757a76.39 76.39 0 0 1-.609.428l.054.062c-.375.238-.749.477-1.123.717.008.053.02.11.032.16-.146.085-.296.166-.442.248.034.042.07.08.104.12-.024.014-.048.028-.073.04-.034-.04-.07-.078-.104-.12l-.17.185a1.19 1.19 0 0 0-.052-.06l-.294.165a.63.63 0 0 1 .054.058c-.172.097-.342.193-.516.288-.171.095-.342.19-.513.288-.362.394-.734.303-1.337.638-.55.306-1.75 1.394-1.962 1.542-.597.415-6.194 3.412-4.707 2.576-.018-.021-1.145.097-1.163.076-.344.193 3.997-2.817 3.656-2.627a.98.98 0 0 1-.054-.06c-.024.015-.048.027-.074.042l.051.062c-.096.075-.199.02-.199.02a1.285 1.285 0 0 1-.073.04l.054.062c-.147.08-.293.163-.44.245l-.054-.06c-.22.122-.44.247-.66.368l-.052-.058c-.197.108-1.555.832-1.752.943l-.052-.061-.441.245c-.73.18-.888.787-1.604.96-.5.22-.999.44-1.5.659-.017-.02-.037-.041-.052-.06l-.22.122-.05-.061c-.175.097-.345.191-.515.287-.019-.019-.79.616-.808.594-.061.035-.03.017 0 0-.02-.02-.272.015-.289-.004-.034.02-.12.057-.223.102l-.011.011c-.176.108-.283.076-.464.275l-.111-.033c-.06.027-.113.05-.148.068-.021.013-.035.02-.037.018.004.006.01.012 0 0-.006.004-.007.004-.005.001l.003-.003c.01-.013.055-.054.115-.106a5.665 5.665 0 0 1-.122-.037c-.248.172-.478.33-.485.32-.038.022.191-.158.421-.34l-.058-.018a.981.981 0 0 1-.562.291l-.043.058a1.715 1.715 0 0 0-.057-.041l.548-.389c.102-.004.205-.005.307-.008.179-.14.325-.256.296-.24-.016-.02-.036-.04-.054-.06-.352.14-1.644.717-1.998.855a1.635 1.635 0 0 1-.05-.06l5.056-4.18c.173-.098.332-.433.504-.528.084-.074-.909.273-.872.255-.191.08-4.424 1.812-4.343 1.707-.01-.052.53-.742.521-.795.049-.029-1.128.067-1.08.039-.017-.02-.034-.041-.052-.06l.147-.083-.053-.06c.074-.04.206-.374.28-.416l-.052-.062c.367-.204-.196-.441.172-.648-.016-.02-.036-.04-.05-.058.048-.027.095-.055.143-.085l-.05-.058.127.019.389-.307c-.02-.02-.036-.04-.054-.06.05-.027.098-.053.147-.082a2.563 2.563 0 0 0-.052-.06c.091-.023.182-.042.272-.063a5.828 5.828 0 0 0-.159-.182c-.551.276-1.252.607-1.888.967l-.587.328c.02.02.036.039.053.06-.121.068-.245.135-.368.205-.017-.023-.033-.04-.052-.06.13-.104.257-.205.39-.307a2.265 2.265 0 0 0-.054-.06l.294-.165c-.02-.019-.036-.04-.052-.06.02-.113.031-.016-.032-.161-.672.14-1.211.3-1.815.644-.285.168-.447.437-.733.412l-.147.083c-.026-.076-.055-.15-.083-.225-.433.244-.526.565-.875.407-.122.069-.242.136-.369.205-.032-.04-.068-.08-.101-.12a3.23 3.23 0 0 1 .073-.042c.047.034.955-.62 1.082-.794l-.03-.16c.148-.083.295-.164.44-.248-.016-.02-.035-.038-.05-.06.048-.028.094-.053.145-.081l-.053-.06c.303-.198.578-.018.879-.214l-.052-.061.222-.124c-.02-.02-.036-.04-.053-.06l.145-.082a2.182 2.182 0 0 1-.051-.06l.387-.307-.052-.06.513-.289-.05-.06c.047-.027.098-.054.144-.083l-.05-.06.22-.122-.042-.426-.273.065c-.016-.021-.036-.042-.052-.062-.122.07-.244.137-.366.206l-.052-.061-.882.494c-.017-.022-.036-.041-.053-.063-.228.066-.337.282-.39.308-.015-.02-.035-.041-.052-.06-.172.094.306-.416.134-.32a.68.68 0 0 1-.055-.06c-.022.014-.05.029-.073.041-.043.095.094.059-.022.102l-.05-.062c-.098.055-.198.109-.295.166a.68.68 0 0 0-.052-.06c-.023.013-.05.026-.07.04.016.02.03.04.049.06-.024.013-.049.028-.075.04l-.05-.06-.074.043.052.059-2.212.968c.015.022.034.04.05.06-.17.153-.379.188-.463.35.005.085-1.651.575-1.645.665-.035.044-.065.093-.096.142-.226-.033-.022-.168-.378-.06-.343-.285 1.467-.602 1.314-.925.265-.239.53-.478.797-.716l-.052-.059c.056-.063.112-.122.168-.183l-.294-.466c-.277.123-.768.282-1.039.311a2.568 2.568 0 0 1-.051-.06c-.05.026-.098.055-.148.082-.015-.02-1.276.496-1.293.476-.096.055-.952.461-1.049.515-.186-.045.387-.44.198-.49-.121.07-.243.138-.364.206l-.053-.06c-.074.041-.03-.105-.104-.063l-.053-.06c-.385.087-.814.228-1.026.227-.025.013-.545.142-.566.156.044-.18.993-.235 1.14-.402-.014-.019-.032-.04-.051-.06.17-.177.485-.135.566-.228l-.008-.043c.01.006.078-.033.066-.01.166-.093.218-.001.388-.097-.016-.02-.036-.04-.053-.06.386-.186 1.988-.963 2.37-1.149.018.02.034.04.05.062.174-.097.385-.39.557-.486.016.02.032.041.053.06l.512-.287c.018.02.037.04.053.06.342-.192.657-.449 1-.64a3.822 3.822 0 0 0-.05-.06c.293-.165-.084.222.21.058 0 0-.052-.104.168-.183l.053.059.072-.041-.052-.059c.22-.125.465-.191.685-.313-.017-.022-.035-.042-.053-.062.832-.466 1.654-.96 2.487-1.424a2.26 2.26 0 0 1-.052-.06c.072-.04.146-.08.219-.122.016.02.034.039.052.06.025-.013.05-.028.074-.043l-.052-.06c.245-.134.491-.273.735-.409l-.054-.06c.318-.18.637-.357.955-.534l-.053-.063c.149-.08.294-.163.44-.245-.017-.02-.035-.038-.051-.06l.882-.493a.73.73 0 0 1-.052-.06l.084-.048c-.15-.058-.303-.111-.452-.173.16.055.319.107.478.158a.56.56 0 0 0 .035-.02c-.121-.046-.244-.09-.365-.138.128.045.257.084.386.128l.349-.194a1.477 1.477 0 0 1-.052-.06l.05-.03c-.09-.05-.042-.059.074-.04l.698-.39a15.67 15.67 0 0 0-.23-.07l.003.002-.138-.042c-.11-.031-.214-.063-.311-.09l.3.132c-.18-.055-.361-.102-.54-.162.112.029.07-.007.077-.018a9.125 9.125 0 0 1-1.191-.502 12.13 12.13 0 0 1-.294-.08c-.004.005-.019.006-.03.01l-.075-.04-.152-.045.11.044c.003.004-.003.004-.001.007a.288.288 0 0 0 .116.033.314.314 0 0 1-.118-.006c-.005.004-.021.003-.032.005l-.037-.018c-.036-.01-.07-.017-.112-.029.064.03.118.05.146.048a.442.442 0 0 1-.156-.014c.192.096.227.122.361.224-.23-.11-.138-.03-.187-.028l.039.028c-.354-.167.056.112-.45-.133.066-.002-.669-.338-1.08-.538-.266-.06-.56-.12-.911-.177l.163-.185c-.315-.16-.648-.331-.696-.39-.06-.1-.208-.187-.493-.369.309.236.153.157.232.24a12.517 12.517 0 0 0-1.043-.69c.36.26.098.111.044.094a5.245 5.245 0 0 0-.257-.205l.24.245c-.757-.617-1.115-.572-1.585-.793l.448.361c-.051-.033-.06-.024-.06-.024.13.11.188.133.29.194l-.243-.236c.28.284.569.401.663.545a3.342 3.342 0 0 1-.384-.2c.105.072.192.133.235.2a4.326 4.326 0 0 1-.546-.297c.118.067.235.12.255.103-.491-.336-.807-.528-1.307-.949.046.094.095.188.143.281l.532.386c.304.263-.09 0 .073.162-.018-.05-.364-.318-.591-.52.092.18.175.362.274.539-.942-.667-2.1-1.906-1.959-1.157a20.42 20.42 0 0 0-1.022-1.3c-.062 0-.078.056-.493-.373-.116-.067-.322-.418-.6-.728.157.113.474.598.498.519-.099-.146-.255-.257-.242-.33.14.178.248.292.344.382-.116-.146-.265-.364-.45-.57.017.012.036.028.057.05a53.542 53.542 0 0 1-.725-.875c-.003-.002-.002 0-.006-.004l-.022-.031a29.46 29.46 0 0 1-.64-.82l.105.153-.162-.183-.114-.203a13.381 13.381 0 0 1-.997-1.564c-.018-.011-.075-.092-.177-.262.003.052-.025.05-.075-.046l-.096-.206-.035.046c.076.12.143.215.201.288-.031-.032-.057-.05-.04-.003l.028.04c.021.049.034.08.043.105.146.208.329.485.454.643a6.006 6.006 0 0 1-.736-.992l-.004-.008-.025.034c.05.073.094.134.134.183-.05-.051-.098-.083.022.133.148.21.334.493.461.654a6.176 6.176 0 0 1-.673-.895l-.058.08c-.003-.012-.008-.024-.01-.035l-.179-.23c-.01-.016-.014-.025-.022-.04-.083-.106-.16-.195-.147-.135l.213.425-.193-.25c-.286-.525.027-.066-.067-.283-.033-.17-.488-.96-.603-1.293l.17.38c.026-.006-.016-.117.031-.066l-.25-.48c.273.374.528 1.052.802 1.464l-.001-.005c-.02-.096-.173-.391-.323-.69l-.286-.516c.144.267-.455-1.086.015-.181l.004.03c.026.04.052.084.078.129-.362-.712-.765-1.48-1.034-2.177l-.052-.1.004-.029-.073-.205c-.063-.135-.124-.26-.167-.379.034-.155-.146-.592-.22-.932l-.002-.002-.001-.013c-.006-.027-.013-.054-.017-.078a.9.9 0 0 1 .013.033c-.024-.2-.038-.397-.056-.596-.07-.144-.142-.28-.214-.428-.062-.164-.122-.317-.183-.472.046.183.097.345.147.433-.007.173-.081.234-.235-.342.048.175.056.115.089.172-.089-.344-.128-.52-.123-.347a17.75 17.75 0 0 1-.092-.471c-.065-.167-.13-.333-.198-.512-.036-.106-.068-.221-.102-.334.053.331.1.487.207.853-.146-.114-.339-1.177-.434-1.185-.102-.358-.105-.546-.112-.641.132.764.083-.035.22.882-.056-.36-.07-.48-.07-.535-.03-.1-.059-.204-.09-.3-.18-.58-.248-1.149-.357-1.744-.038-.224-.075-.449-.11-.68.04.436.07.98.043 1.066-.04-.666-.074-.19-.126-.619-.024-.064.034.125.017-.118-.041-.54-.072-.554-.101-.52.047.449.093 1.155.061 1.257-.039-.666-.072-.19-.128-.619-.023-.064.035.125.018-.118-.072-.96-.112-.263-.169-.587.022.324.05.648.073.973-.03-.246-.061-.921-.123-.992.017.051.019-.085.024-.206l-.01-.128c.076-.168-.063-.99-.034-1.166.06-.108.185.101.168.949l.034.109c.003-.031.004-.067.004-.106l-.002-.045c-.008-.312-.077-.78-.055-.907.062-.108.184.101.168.949l.04.13-.003-.14a17.792 17.792 0 0 1 .003-3.594c.043-.414.052-.818.138-1.206.017-.078.069-.163.077-.275a.322.322 0 0 1-.008-.181c.016-.225.077-.42.129-.654a15.39 15.39 0 0 1 .462-2.382c.124-.374.215-.71.351-1.056l.03-.185.027-.006.046-.224h.006c0-.014 0-.025.002-.036.048-.169.111-.318.174-.47l.037-.182.027-.004.043-.199a.09.09 0 0 0 .028-.006l.005-.052.027-.006c.004-.018.01-.028.018-.034.033-.085.064-.17.098-.256l-.016-.1c-.079.165-.162.335-.145.224a7.83 7.83 0 0 0 .193-.487l-.026.052.169-.542c.086-.137.014.048-.057.24-.01.194.15-.243.015.2a.338.338 0 0 1 .043-.023l.028-.065.062-.225c.006-.002.012-.004.02-.004l.01-.035c0-.007 0-.015.002-.023h.005l.02-.065.008-.012.005-.063.028-.006.002-.028-.027.005.002-.026a.135.135 0 0 1 .027-.006 1.13 1.13 0 0 0 .005-.055c.03-.024.058-.047.086-.072l.031-.125c-.086.142-.21.368-.158.17.242-.567.172-.318.283-.534l-.02-.093c.126-.298.26-.51.358-.695-.063.128-.13.265-.11.282-.345.676-.165.44-.239.698.005 0 .009 0 .013-.003l.008-.016.031-.1.02-.002.01-.02.004-.063.028-.006.037-.115.025-.005.002-.007.007-.077.028-.006.068-.173.028-.005.004-.056.027-.005v-.001l.008-.081c.008-.002.018-.003.026-.006l.005-.055.043-.034c.297-.615.73-1.284.953-1.829.205-.354.285-.458.306-.45l.138-.35c.01.01-.012.076.093-.075-.127.2-.176.315-.23.425.02.013-.032.16-.085.286l.004-.003c.03-.06.059-.123.087-.185.023-.012.044-.025.066-.039l.04-.103.064-.037c.007-.022.011-.042.016-.064l.066-.039c.026-.055-.032-.075-.029-.119l-.122.18.121-.218.085-.084-.061.09c.01-.008.02-.013.031-.019a.624.624 0 0 0 .02-.032l.01-.04c.01-.01.021-.02.032-.027a.017.017 0 0 0 .003-.006l7.022 16.739c.232.585.543 1.03.93 1.34.39.308.815.464 1.283.464h3.55c.466 0 .912-.1 1.34-.3.426-.201.774-.666 1.046-1.392l9.839-23.046c.27-.693.367-1.384.29-2.076-.078-.693-.853-1.075-2.327-1.145-1.204-.04-2.078.08-2.621.353-.543.275-.97.684-1.28 1.229-.466 1.02-1 1.756-1.6 2.212a4.83 4.83 0 0 1-1.95.9c-.738.22-2.339.302-4.804.246a888.448 888.448 0 0 0-3.812-.082c-.98 0-1.836-.06-2.595-.167l.033-.038c-.015.01-.029.024-.043.036h-.005l.05-.041.25-.305a2.61 2.61 0 0 0 .074-.046c.077-.084.154-.17.235-.249-.046.04-.105.093-.182.164a3.27 3.27 0 0 1 .194-.185c-.14.1-.292.25-.407.379l.104-.176-.01.01c-.087.082-.179.161-.263.248l.058-.06-.26.237-.018-.003c.19-.189.38-.376.58-.557.035-.037.067-.073.103-.108-.148.1-.319.27-.442.409l.102-.176c-.15.14-.302.277-.453.414a.157.157 0 0 1-.03-.004 30.21 30.21 0 0 1 2.043-1.794l-.142.112.56-.486c.104-.075.117-.074.117-.062l.498-.401c-.046.067-.257.286-.327.384.147-.118.298-.239.434-.351l-.023.007.314-.246.015-.023-.252.154.163-.24c.512-.385.3-.157.57-.324l.216-.17c-.418.237-.326.157-.825.51.09-.095.391-.306.383-.331-.206.128-.45.325-.587.46-.176.04-.3.215-.128-.002l-.094.069c.106-.082.16-.134.195-.173-.04.035-.09.075-.12.105-.178.042-.302.216-.13-.001l-.093.067c.356-.277.076-.17.777-.61l-.193.164c.058-.01.414-.25.675-.408l.19-.18c.203-.146-.04.061.22-.097a8.02 8.02 0 0 1 .518-.342c-.104.075.113-.036.168-.061-.103.074-.261.173-.096.1l.09-.055c-.065.056.183-.067.368-.157a8.464 8.464 0 0 0-.3.172c-.076.054-.13.092-.008.04l.088-.054c-.06.053.183-.068.366-.156-.155.086-.405.234-.634.38 0 .006-.02.024-.083.063l-.2.15.052-.058a2.807 2.807 0 0 0-.189.141l-.01.01c.07-.027.086-.023-.05.07.095-.013.506-.23.05.07-.293.126-.155.03-.104-.031-.017.012-.023.017-.045.03a.854.854 0 0 1-.157.059 3.895 3.895 0 0 1-.277.205c.035-.023.07-.045.12-.08-.073.062-.145.128-.219.188.08-.031.056.028.369-.187-.138.114-.272.23-.407.347.026.002.02.027.05.031.003 0 .006-.002.008-.003l-.006.004a.13.13 0 0 0 .047-.006c.006-.009.01-.015.008-.018.036-.012.049-.008.056 0l.065-.024-.052.039c.014.015.05.021.2-.04l-.322.245.065-.056a.702.702 0 0 1-.07.045c-.047.036-.095.072-.14.108.06-.029.106-.047.102-.023l.212-.124c-.186.129.337-.18-.25.178l-.013.015-.007.006c.127-.063.3-.158.158-.006l-.343.3.005.01.44-.298-.286.216c.101-.052.2-.118.401-.245.026-.05.126-.135.245-.232-.05.031-.089.058-.098.06.034-.055.229-.187.421-.317.112-.09.204-.167.23-.21.092-.102-.744.513-.8.528.044-.072.355-.272.582-.427l.204-.19h-.004l-.396.239c.064-.038.122-.08.17-.121-.047.032-.096.058-.143.092l.233-.216-.409.245c.255-.156.43-.372.168-.23.218-.146.439-.289.665-.423l-.066-.013c.503-.377.687-.386.628-.374.088-.084.403-.28.236-.215l.164-.116.011.05.92-.476.427-.265.724-.305c.003.023.29-.126.286-.115.368-.163.895-.358.73-.347l-.026.011c-.003-.002-.013-.004-.014-.009-.107.042-.21.085-.28.111-.255.107-.51.21-.76.329.175-.092.507-.224.735-.32-.06.022-.085.025-.035-.013.402-.137.196-.09.219-.109h-.01l-.019.002c-.123.049-.24.099-.308.121a46.4 46.4 0 0 1-.939.412.217.217 0 0 0 .032-.008l-.46.212.197-.113-.418.102.094-.06-.21.05c-.13.068-.262.129-.39.202-.342.163-.272.093-.176.012-.547.256.11-.166-.057-.106.297-.132.595-.266.9-.377l.5-.26c-.271.19.804-.267.468-.109l.177-.022c.032-.011.036-.011.021-.002l.365-.047-.058.026.167-.021c.008-.01-.038-.005-.024-.016l.146-.018.408-.123c-.19.06-.286.093-.343.115l.218-.028-.057.027.147-.02.066-.027.05-.005.168-.078a9.113 9.113 0 0 0-.218.083l-.156.02.27-.124.293-.052c-.05.016-.083.032-.128.05l.276-.05c-.127.044-.229.085-.333.127l6.455-.817.106.007.043-.007.48.024c.296-.015.633-.043.83-.03.14-.004.256.002.297.028-.138.037-.185.029-.233.019-.116.02-.142-.003-.22-.014l-.132.018c-.062.024-.009.054-.362.093l.18-.033c-.082.004-.164.013-.245.02-.03.005-.047.009-.085.013l.044-.01c-.471.039-.943.097-1.413.16-.198.063-.394.126-.588.202.057-.03.232-.08.116-.071-.11.061-.155.057-.218.055l-.046.016a.207.207 0 0 1 .038-.016.726.726 0 0 0-.244.027l.096-.027a.722.722 0 0 0-.243.027 3.52 3.52 0 0 1 .59-.13l-.172-.046a10.77 10.77 0 0 0-.758.127l.12-.002-.017.002.166-.002c-.251.047-.504.089-.754.153l.054-.042c-.054.01-.11.02-.163.033l-.81.18-.338.143-1.028.222c-.001-.01.03-.026.059-.046l-.208.046c-.001-.005.012-.013.024-.022-.49.188-.5.306-1.162.46-.098.06-.275.15-.373.213l.293-.134c-.221.094-.163.095-.05.078l.607-.254c-.256.154.447-.165.122.019a.115.115 0 0 0-.024.02c.584-.27 1.043-.265 1.591-.511.226-.044.454-.066.684-.091.4-.094.798-.207 1.204-.28-.365.08-.688.174-1.001.265.382-.09.762-.196 1.148-.266-.694.155-1.238.351-1.852.498l.001.016.042-.013.078.143a.62.62 0 0 0 .136-.045c.11-.007.237-.138.346-.144l.126.068c.134-.03.123-.06.256-.088l.42-.005c.03.014.063.024.096.038.026-.015.07-.153.1-.166.037 0 .072 0 .109-.004.006.007.01.014.02.02.033-.008-.006-.094.027-.101l.228-.003.041.045c.078-.032.278-.075.356-.106.086-.006.098.003.12.01l.029-.01c.074-.006.092.001.11.007a.163.163 0 0 0 .022-.004c-.024-.043.152-.053.358-.078.01 0 .016-.003.025-.005l.009.002c.081-.01.166-.023.242-.042.027-.005.065-.007.096-.01.008-.018.016-.027.051-.007.077-.01.161-.017.256-.021.005 0 .012-.002.017 0 .21-.008.459-.013.743-.037.282-.056.577-.1.762-.08l.185.075c.052-.026.074-.093.127-.117l.715.146c.353.03.714-.156 1.066-.126.082.016.28.164.365.185l.004.004a.044.044 0 0 0-.004-.004h.002c.002 0 .002.003.003.004.114-.003.168-.203.283-.203.165.036.32.047.485.085l.007.044.055-.029c.07.016.154-.09.225-.073l.002.01c.004-.001.008-.002.012-.007.05-.024.083.077.131.05.016.018.035.04.053.058.186.023.233-.1.414.022.053-.028.089.071.142.043.098.064.21.005.306.068.056-.03.107-.055.162-.081.036.037.055.2.089.235.053-.024.107-.053.16-.08.034.04.07.078.106.118l.206-.236c-.18-.03-.368-.06-.518-.092.064.003.125.006.179.006a.164.164 0 0 1-.03-.006l.141.006c.055-.003.088-.009.074-.018.01.007.027.012.046.018.075 0 .12-.006.103-.018.09.067.637.071.928.124-.119-.011-.068.007-.125 0 .154.033.255.045.336.05a1.75 1.75 0 0 1 .194-.001c.113-.006.242-.008.542.054.385.121 1.04.204.892.246-.046-.033.304.028.48.064.104.042-.21-.032-.295-.027.053.009.105.018.146.027.039.017.018.015-.025.008l.377.102a.813.813 0 0 1-.217.007c-.094.01-.288-.007-.583-.056a.695.695 0 0 0 .178.158c.109-.002.162.032.27.03.074.044.161-.034.237.01.067-.01.136-.016.2-.023.05.056.092.237.144.295.109-.004.36-.126.468-.128.095.061.188.122.28.186.025-.012.048-.025.075-.04.11.082.222.163.331.243l.2-.022.104.115.073-.04.029.152c.05-.025.109-.175.159-.2.092.06.062.243.155.304.068-.007.135-.016.2-.022.153.088.356.15.51.238.024-.016.049-.026.073-.04.05.057.102.113.155.17.067-.012.132-.017.197-.023.054.056.116-.01.165.048.067-.009.125.108.192.1.068.075.245.112.313.188.067-.007.124.105.19.1.055.044.116.04.176.031l.239.205c.077-.013.155-.033.224.017l.198-.025c.033.034.11.149.142.184l.075-.038c.032.036.041.3.077.336l.074-.037c.05.05.125-.127.174-.076.065-.008.104-.004.17-.014.084.09.394.376.477.464.024-.013.051-.028.074-.038.147.077.328.149.478.226.024-.01.049-.024.074-.037.031.035.054.187.088.22.024-.013.05-.027.075-.038.05.052.1.105.151.156.026-.01.048-.024.072-.037.094.057.173.23.263.286l.074-.038c.049.052.1.103.15.157.027-.013-.03-.005-.005-.016.067.069.212.008.281.07-.018.003-.087.02-.108.022.23.11.063.112.354.136.017.019-.096.103-.08.12.045-.025.08.038.12.081.056-.071.12-.151.135-.158.031.035.132.162.166.198.024-.013.025.205.05.193.15.101.353.204.459.212.004-.003.008-.004.01-.008v.009c.026 0 .047-.004.056-.02.023-.012.036.082.049.18.024.014.085.057.159.113l.265.226.003-.019c-.023-.022-.04-.042-.04-.052a.184.184 0 0 0 .04.041l-.002-.004.003.006c.082.077.336.245.353.254v.002c.086.048.283.16.316.212l.793.606.043.026c-.47-.426-1.212-1.088-1.9-1.572l.347.31c-.618-.459-1.049-.92-1.372-1.092l-.108-.133c.098.04.25.133.426.248-.057-.04-.117-.087-.17-.115l-.107-.133c.18.078.546.324.905.569-.474-.388-1.167-.764-1.524-1.076-.357-.316.123.04.46.234a3.576 3.576 0 0 1-.31-.234c-.212-.188-.124-.135.05-.02l-.005-.005.474.279-.04-.008c.023.012.047.027.068.037 1.222.915 2.324 1.75 3.426 2.895-.216-.133-.696-.719-.904-.781l.25.245a2.661 2.661 0 0 0-.478-.403c.321.287.64.586.958.915.002 0 .004.004.006.005.006.006.013.012.019.02l-.004-.004c.284.29.743.776 1.024 1.025-.06-.078-.184-.218-.14-.207.125.137.2.226.291.327.015.01.034.025.046.031.174.2.26.314.315.394.026.023.047.043.05.04.166.147.155.274.319.424-.006.004.423.32.435.313.07.08.323.465.392.543.008-.002.128.146.273.31.055.033.21.043.237.074.026-.015.616.818.639.804.047.096.678.702.618.793.01-.005.138.13.28.285-.004-.052.01-.101.143.156.14.152.264.284.274.278.353.53.564.808.629.89a7.656 7.656 0 0 0-.16-.188c.155.195.392.506.41.495.304.31.166.376.466.683-.025.016-.097.02-.117.11a6.685 6.685 0 0 1-.278-.357 71.639 71.639 0 0 1-.367-.49 4.253 4.253 0 0 0-.104-.113c-.008.029-.402-.523-.412-.515-.018-.034-.52-.58-.583-.682-.39-.398-.446-.564-.487-.589-.031.017-.127-.117-.209-.215.004.013 0 .019-.025-.007l-.04-.062c-.018-.018-.037-.035-.046-.03-.07-.082-.598-.483-.669-.562-.023.013-.296-.29-.322-.278-.033-.04-.303-.256-.34-.294-.024.014-.246-.372-.272-.36-.217-.208-.274-.126-.492-.334-.023.013-.164-.197-.188-.183-.096-.066-.249-.116-.342-.184-.024.013.017-.073-.007-.057-.098-.155-.102-.04-.203-.197l-.273-.221c.07-.064.004-.06-.074-.059l.134.125c.094.14.22.325.051.165.105.135-.056-.034-.056-.034-.063-.094.034-.02.015-.07l-.16-.186c-.05.002-.1.002-.121-.021.012-.004.048-.02.074-.032l-.018-.021.021.02c.008-.005.019-.009.022-.01-.052-.06-.21.005-.261-.058-.026.015-.137-.116-.162-.1-.072-.08-.043-.04-.111-.123-.025.016-.068-.086-.092-.074-.051-.06-.109-.04-.161-.1-.201-.228-1.161-1.006-1.578-1.192-.017-.022-.082.062-.1.042-.016.01-.206-.18-.34-.307a.171.171 0 0 1-.024.01c.09.103.887.837.977.938.018-.011.328.367.476.53-.014-.05-.047-.115-.366-.44.108.084.237.21.368.343-.01-.026-.023-.054-.013-.06.021.025.028.055.036.084l.099.101.03-.015c-.015-.051-.022-.098-.371-.453.217.167.516.493.743.746.103.075.207.15.295.23.002 0 .002-.002.005-.002l.003.004c.004 0 .006-.002.001.002.088.097.225.174.31.272a.768.768 0 0 0-.064.02c.146.167.396.29.578.439l-.083-.087c.04.016.12.085.213.169.016-.01.034-.017.048-.026.133.152.272.3.41.45l.078.016c-.051-.035-.021.013.036.108.07.073.138.148.205.224l-.089-.156c.151.177.317.386.466.59.12.14.244.278.367.403-.135-.224-.251-.42.059-.047l.181.264.037.033.052.06-.017.01.053.079c.018.007.032.015.05.021a4.36 4.36 0 0 0-.145-.188c-.155-.244.343.47.086.025.04.069.077.126.115.189.02.008.045.015.062.026l-.034.019.067.11c.031.024.056.05.089.073-.04-.053-.071-.086-.084-.081-.038-.116.032-.02.118.11.036.027.074.053.1.083.004.011-.006.025-.016.042.027.04.051.076.074.107.016-.01.032-.018.047-.026a6.818 6.818 0 0 0-.477-.677c-.153-.244.346.47.088.025.172.286.313.51.44.71l.211.244c.025-.012.048-.027.072-.04.034.04-.062.136-.028.178.025-.018.051-.031.076-.045.185.11.123.268.187.344.068-.007.07.014.132.006l.84.968c.737.848 1.431 1.855 1.94 2.762.022.025.035.052.051.078a2.727 2.727 0 0 0-.098-.256c.039.056.084.13.105.159-.019 0 .066.204.121.373.014.03.03.063.048.093l.025.012.009.04c.009.013.015.027.026.04-.02.01-.01.01-.014.013l.003.015c.082.101.115.22.198.317.018.04.018.045.016.042l.02.034c.025-.014-.009-.003.017-.017.017.02.035.042.053.061-.025.016-.049.027-.072.041l.155.18c-.024.014.007.005-.017.017.048.084.127.072.2.237l-.074.043c.07.079.091.18.164.261a.863.863 0 0 0-.075.041c.105.12.22.238.324.358l-.074.042c.052.058.085.128.14.19-.025.015-.05.028-.074.04.088.1.174.2.261.302l-.073.041.21.242c-.025.013-.05.028-.075.04.07.082.111.173.182.255-.024.012-.048.027-.074.041l.223.337h.005l.03.027c-.004.002-.009.006-.013.007.034.052.068.103.1.155a.868.868 0 0 0-.062.037l.033.05c.038.046.056.097.095.141-.024.014-.048.029-.074.041.052.062.107.123.157.182-.024.015-.047.027-.073.042.053.06.139.165.19.223-.024.015-.051.029-.075.042.054.062.026.096.078.157-.023.012.087.03.065.042.069.08.002.16.073.239-.026.016-.05.027-.074.042.035.041.117.061.152.102-.014.008-.029.016-.043.021l.016.026-.026.016c.046.052.119.093.165.146-.009.005-.056.026-.065.032a.293.293 0 0 1 .024.023l-.046.03c.027.032.12.035.146.065l-.055.031c.014.036 0 .085.014.125l.18.301-.05.028c.002.001.003.006.004.007-.007.007-.014.011-.02.016.05.057.072.126.12.184l-.07.04c.044.095.137.17.182.263l-.055.031.084.168.008.008-.004.001.001.003-.017.015c.022.01.044.016.031.023.045.093.09.188.138.282a.751.751 0 0 0-.057.032l-.014-.017a1.274 1.274 0 0 1-.02.051l.031.03.005.021c.013.014.025.025.037.04l-.005.083.027.11a.53.53 0 0 1 .043.045l-.025.022.033.126.092.209-.002.002c.009.013.019.027.032.04-.013.01-.027.018-.04.03l.044.046-.004.071a.12.12 0 0 0 .02.023l-.023.016-.003.048c.026.026.05.054.076.082-.016.037-.03.076-.046.115l.074.08a.552.552 0 0 1-.04.039c.002 0 .003.003.004.005l.108.118-.014.035.02.031c-.014.026-.026.052-.04.076l.128.293c-.014.04-.03.076-.045.115l.108.202-.045.114.07.162-.04.034.001.004.11.12-.028.072a.09.09 0 0 0 .009.02c-.009.013-.012.026-.015.04.021.02.042.044.062.065a1.861 1.861 0 0 1-.027.073l.066.061-.015.06c.002 0 .004.004.006.005a.697.697 0 0 1-.016.04l-.02.094.099.182c-.014.031-.026.065-.039.096l.076.073a.737.737 0 0 0-.023.13c.015.03.03.064.043.096l-.046.115c.026.026.05.055.076.08l-.048.238c.029.02.059.04.082.063l-.017.05c0 .003.002.003.003.006l-.046.115.074.08a4.767 4.767 0 0 1-.024.126l.003.005c-.032.116.076.354.043.47.018.018.01.036-.003.053a.468.468 0 0 1-.019.092l.075.082c-.026.025-.053.047-.08.07l.077.075a.619.619 0 0 0-.027.05c.008.034.01.066.014.118a.35.35 0 0 1-.023.021l.078.073c-.018.063-.025.12-.033.18l.003.002a.061.061 0 0 1-.004.012 1.047 1.047 0 0 1-.023.125l.055.06-.006.041c.03.038.062.078.084.122-.046.03-.063.05-.11.083m-3.89-11.71c-.063-.22-.328-.928-.415-1.192-.027.05-.094-.037.053.399.268.516.351 1.08.465 1.61.007-.004.011-.018.01-.07.009.046.018.083.027.121.03-.005.055-.003.127.042-.08-.275-.178-.554-.293-.908.023.056.036.056.026-.002m.336 1.444c.025-.009.044-.015.047-.018.031.1-.05-.001-.02.102.042.048.054.107.07.167a4.994 4.994 0 0 0-.161-.766l-.103.051c.058.201.112.276.167.464m-.136-.258.016.063.008.009-.024-.071m.074.272c.007 0 .014-.003.02-.004a3.905 3.905 0 0 1-.06-.169l-.005.005c.013.047.021.096.038.14l.007.028m-.08.008c.015 0 .033 0 .051-.004-.01-.052-.016-.11-.027-.16a.532.532 0 0 0-.056.062l.032.102m-.056-.032-.004-.012.004.012m.064-.2c-.012-.053-.027-.104-.04-.156-.01-.031-.02-.055-.03-.08l-.06.031c.077.054.083.138.13.205M4.67 374.325l-.001.003v-.003l-.084.047.007.143a5.38 5.38 0 0 0 .054-.13c.001.003.003.003.017-.017l.024-.053-.017.01m.064-.665.01.056.023-.063c-.011.003-.022.007-.033.007m.22-.122.036.044c.014-.04.03-.08.046-.12-.027.027-.054.051-.081.076m.152.369.14-.532-.003-.004c-.166.411-.327.818-.332.932a9.7 9.7 0 0 0 .195-.396m-.273.413c.186-.382.256-.64.396-.964a5.952 5.952 0 0 0-.037-.042l-.12.114-.07.17.001.002c-.13.323-.237.61-.24.703.109-.209.317-.638.314-.71-.01.187-.154.49-.244.727m.147-.715c-.07.014-.14.032-.208.048l-.027.07.019.1-.073.042.105.12-.074.04.008.194c.105-.23.178-.424.25-.614m-.31 1.073c0-.031.02-.103.052-.187-.052.1-.09.182-.122.257l.01-.02c-.008.025-.019.04-.027.058a3.631 3.631 0 0 0-.105.277 3.9 3.9 0 0 0 .192-.385m-.149 0-.07.04-.002.032c.005-.007.009-.012.013-.021-.004.01-.009.015-.013.026 0 .03-.002.058-.003.087.026-.054.05-.108.075-.164m-2.604 5.657c.034-.05.009-.028.004-.037l-.005.007v.03m-29.038 19.274.003.003v-.006a.025.025 0 0 0-.003.003m-20.037-35.63c-.003.27-.002.447.045.352-.015-.118-.032-.232-.045-.352m1.808-11.516a1.16 1.16 0 0 0-.08.153c.014 0 .03.003.047.005l.003-.008-.014-.026.022.005.024-.06c-.002-.022 0-.044-.002-.069m-.014.167c-.018.002-.037.007-.055.011a.333.333 0 0 0 .079.031c-.012-.025-.024-.046-.024-.042m.177 18.405-.148-.074c.07.2.148.456.205.617a1.697 1.697 0 0 1-.01-.37c-.018-.06-.032-.116-.047-.173m.033.017.023.067c.002-.018.001-.036.004-.054l-.027-.013m.037.62-.016.036c.014.039.032.076.047.115-.01-.052-.023-.103-.031-.152m.198-20.183c.009-.01.018-.016.027-.024l-.027.024m.05-.042c.001-.002.002-.002.003-.002v-.005a.065.065 0 0 0-.002.007m1.112-2.095c-.029.056-.046.094-.067.136l.041-.033.039-.098c-.012.012-.019.016-.013-.005m-.131 25.314.001.008.177.345c.002 0 .004-.002.008.004l-.186-.357m.225-25.428a.405.405 0 0 1 .036-.028c.01-.029.021-.056.032-.082l-.068.11m.498 26.935a.3.3 0 0 0-.08-.08c.005.009.01.02.015.026.061.11.103.19.131.245a4.449 4.449 0 0 0-.066-.191m.096.297-.007-.006.013.026a.156.156 0 0 0-.006-.02m.186-28.552.01-.007.004-.016-.014.022m.098 28.282-.003.004.013.021c-.006-.012-.006-.015-.01-.025m.124.18c-.014-.02-.029-.036-.043-.055a.524.524 0 0 1 .058.163c.029.033.033.015.054.027-.022-.044-.048-.09-.07-.135m7.501 7.466c.072.034.132.058.146.046-.195-.133-.36-.243-.52-.351.13.132.261.226.374.305m-.132-.07h-.001l-.031-.019.032.02m-.725-.568.493.397c-.05-.032-.06-.023-.06-.023.113.093.174.126.253.172a1.448 1.448 0 0 1-.122-.084c.048.033.101.066.154.1l-.235-.23c-.15-.103-.303-.213-.464-.335l-.019.003m3.713 1.807-.142-.04.2.118.03-.033a3.128 3.128 0 0 1-.088-.045m1.693.693-.032-.01.038.015-.006-.006m.223.065c-.035-.01-.07-.02-.106-.032.045.022.088.042.133.066l.021.008-.048-.042m2.968.763c-.048-.017-.097-.03-.145-.045-.059-.014-.113-.028-.174-.041.002-.011.06-.002.151.023l.015-.024.105.034c-.03-.031-.053-.063-.089-.096l-.146-.02c.016.005.029.009.045.012.157.025-.037.02-.272-.044-.003 0-.006 0-.008-.002l.008.002c0 .003-.01.001-.029-.005a16.77 16.77 0 0 1-.67-.113c.112.043.224.085.33.115l.045-.009c.014.01.035.012.05.019l.1-.019c.1.057.231.094.365.126 0 .002-.007.002-.003.006a4.3 4.3 0 0 1 .347.108c-.007-.01-.018-.019-.025-.028m-10.331-44.196a14.53 14.53 0 0 0-.331.312c.088-.055.17-.104.182-.09.07-.069.175-.164.252-.232-.1.07-.08.018-.103.01m-.147.227c.001.012-.024.05-.08.115l.07-.046.325-.273c-.019-.024.005-.09-.315.204m.362-.429c-.01.008-.021.02-.032.03a.402.402 0 0 1 .035-.026l-.003-.004m.131-.089c.066-.046.122-.087.15-.1.097-.067-.46.381-.254.27-.029.024-.044.035-.065.054.09-.057.24-.168.35-.245.115-.123.228-.25.351-.364-.16.11.017-.047.027-.08l-.039.022a.83.83 0 0 1-.18.13l-.34.313m.681-.752c-.126.1-.195.162-.232.205.096-.08.192-.16.287-.236a1.28 1.28 0 0 0-.055.031m.149 0c-.23.182-.29.255-.248.258.115-.096.239-.2.301-.245.027-.033.04-.053.054-.075-.034.02-.062.033-.107.062m1.721-1.108.126-.105c-.052.035-.1.076-.15.115.017-.009.03-.015.024-.01m-.247-.052c.015-.01.028-.022.042-.031-.01.003-.007-.006 0-.016-.025.023-.054.045-.08.067.016-.009.024-.011.038-.02m-.289.157-.12.106-.127.038c-.068.084-.237.262-.302.351.151-.119.304-.237.457-.353l-.048.012.385-.302-.245.148m.207.024c-.075.06-.151.116-.227.175l.012-.007.215-.169m3.619-2.762c.074-.03.147-.065.222-.093l.187-.118c-.138.067-.272.142-.41.21m2.038-.582h.001l.002-.002c-.001.002-.002.002-.003.002m5.901-.53-.022-.007-.057.02.08-.013m-.27.047h-.003.005-.002m-6.25 2.001c.002-.002.002-.007.002-.007a.27.27 0 0 1-.038.018l.036-.011m-.06.022-.042.016c.014-.004.028-.01.041-.016m-.499.175c.033-.006.066-.01.096-.02l.006-.003-.001-.014a2.29 2.29 0 0 1 .082-.02c.117-.046.24-.1.389-.165.002-.007.006-.01.007-.017l-.104.01-.148.063-.327.166m.43-1.328c-.032.02-.086.052-.193.113.454-.178.728-.33 1.063-.484a.148.148 0 0 1 .029-.019c-.3.131-.602.257-.9.39m4.06-.24c-.45.124-.903.238-1.35.374l.11-.05c-.888.3-1.105.432-1.326.493l-.003-.027c-.037.009-.412.17-.69.289.018.007.037.015.053.01v-.023l.167-.025-.002-.024a.602.602 0 0 0 .067-.02l-.001-.023.133-.015c.006-.003.011-.036.066-.044v.024a.61.61 0 0 1 .034-.01v-.024c.078-.023.155-.044.232-.068v-.024l.167-.025c0-.008 0-.016-.002-.024l.036.014.066-.02v-.023l.033.013c.074-.02.066-.043.066-.043l.466-.137-.001-.024c.033-.002.067-.006.1-.007v-.023c.31-.09.393-.043.705-.135l-.002-.024.168-.025-.001-.023a.132.132 0 0 1 .033-.01c.006-.002.014.027.068.002 0 0 .001-.028.065-.043 0 0 .015.026.068.005 0 0 .023-.042.1-.054v.026c.061-.027.109-.112.168-.145-.043.01-.084.022-.128.031l.336-.12m1.856-.125.003.003c.042-.012.074-.018.11-.027v-.002l-.113.026m1.825-.204.014.01c.019-.006.048-.013.07-.017l-.084.008m6.686-.006c-.02.016-.084-.004-.034.054.09-.018.155.166.241.18.023-.044.046-.092.064-.071l.016-.01.038-.092a7.274 7.274 0 0 0-.325-.062m.446.092c.008.007.011.012.022.019.032.02.057.023.086.033-.007-.017-.05-.034-.108-.052m2.05.376a5.512 5.512 0 0 1-.165-.034h-.004c-.117-.025-.24-.052-.378-.086l.066-.006c-.378-.047-.94-.178-1.263-.202-.015 0-.035 0-.048.006-.001-.003-.009-.006-.012-.01a.497.497 0 0 0-.137.01c.183.064.307-.006.52.142a.455.455 0 0 0 .037.004c.241-.057.37.003.515.072.009 0 .016.003.024.004l-.02-.001c.075.034.156.07.263.09.11-.003.323-.02.433-.023h.004l.102.115c.032-.005.063-.007.096-.011l-.032-.07m10.4 4.49c-.291-.327-.822-.652-1.27-.948.438.33.86.653 1.273.982.26.174.466.302.513.294l-.515-.327m.86.884c.197.2.273.217.353.275a2.368 2.368 0 0 0-.353-.275m.256.179.102.1c.03.02.063.05.104.1l.046.045-.044-.043c.025.031.054.07.087.116.085-.055.514.51.58.44-.228-.161-.674-.7-.875-.758m1.002 1.06c-.041-.047-.076-.084-.106-.117-.002.01-.003.018-.01.025.03.022.068.052.116.092m-.27-.303c.012.01.026.026.038.038.04.014.09.03.171.054-.032.017-.034.051-.04.084l.276.282c-.188-.216-.425-.479-.027-.155-.306-.348-.275-.232-.383-.298-.295-.265-.782-.706-1.302-1.132a2.762 2.762 0 0 1-.154-.129l-.071-.056c.037.092.427.381.572.482l-.31-.202c.426.466.382.217.644.593.085-.057.535.537.586.439m3.125 36.283.003.016.024-.032-.027.016m.008.038.005.03.096-.129-.039.022a5.227 5.227 0 0 1-.062.077m.093-31.543a.049.049 0 0 1-.015.01c.014.016.036.028.052.043l-.037-.053m.292.336c-.01.027-.01.063.053.112.004-.002.009-.006.013-.007l-.066-.105m.343 29.502.004.019.057-.085-.061.066m.695-27.763.055.096.052-.03a.581.581 0 0 0-.107-.066m.698.923-.183-.366-.034.019c.124.232.259.499.217.347m-.195-.302-.028-.042-.006.003c.085.166.144.295.157.364.094.134-.028-.12-.123-.325m.044.2c-.05-.025-.172-.232-.275-.439l-.135-.153.048-.026-.032-.073c-.02.012-.04.022-.06.035.109.191.21.38.283.529.013-.023.443.724.171.127m-.783-.899c-.038.03-.018.002-.034.085.094.172.196.356.308.555-.09-.27-.185-.452-.274-.64m.055-.023c.162.295.342.62.561 1.003a.034.034 0 0 0 .01-.004l.052.06-.022.012.01.018c.067.096.096.115-.03-.167-.085-.039-.347-.551-.427-.765l-.155-.158m2.791 3.288.019.056.03.016a2.589 2.589 0 0 1-.048-.072m.067.101.016.068a.664.664 0 0 1 .022-.011c-.015-.019-.024-.038-.038-.057m2.93 6.578.02-.011c-.008-.01-.025-.018-.044-.029l.024.04m.981 6.526c-.003.029-.008.061-.013.09l.004.004.02-.086a.042.042 0 0 0-.01-.009z" style="fill:#7c0a49;fill-opacity:1;fill-rule:nonzero;stroke:none;stroke-width:.129153" transform="matrix(2.73148 0 0 -2.73148 148.934 1093.617)"/><path d="M-35.158 348.336h2.502c1.436 0 2.525.445 3.26 1.335.738.893.893 1.85.466 2.869l-1.513 4.205c-.389 1.057-.836 1.784-1.34 2.185-.504.398-1.105.6-1.803.6-.738 0-1.37-.228-1.893-.682-.523-.456-.92-1.102-1.193-1.94l-1.687-4.532c-.313-.911-.186-1.812.377-2.705.562-.89 1.504-1.335 2.824-1.335zM-38.716 343.057c-.006 0-.011-.002-.017-.003.049-.048.098-.096.139-.131-.045.049-.087.092-.122.133zM-13.519 337.215h-.003.003zM-38.38 342.097c-.212.231-.547.61-.656.775l.177-.17-.086.103.715-.708-.133.147c.08-.05.046 0-.045.1l.038-.093c-.126.14-.261.296-.37.428a3.28 3.28 0 0 1 .18-.174l-.23.237c-.038.049-.075.095-.097.13l.177-.17-.268.315a10.095 10.095 0 0 1-.277-.054zM-39.273 342.94l-.014.015a.225.225 0 0 1 .014-.015zM-31.548 337.385a.303.303 0 0 0-.072.036c.018-.019.036-.036.062-.071l-.38.23-.566.23a27.464 27.464 0 0 0-2.23 1.378c.258-.172.198-.158.195-.17-.364.236-.957.555-1.024.705-.817.552-.142-.029-.946.555.171-.133.35-.254.526-.38-.368.221.006-.116-.675.38.195-.151.403-.29.604-.436l.029.072c.756-.542.351-.416 1.245-.98.216-.116.428-.238.65-.343.318-.21.409-.322.79-.531-.048.05-.204.16-.143.16l.372-.245c-.152.142.592-.372-.037.098l.372-.256c.722-.35.874-.506 1.443-.77l.523-.16-.177.1.328-.1-.89.498m-4.163 2.338c-.08.055-.136.09-.19.124l.025.067c.49-.35.497-.423.68-.581-.251.153-.475.303-.515.39m2.369-1.52c-.005.01-.005.018.009.018l.28-.186-.29.168m.69-.393-.318.176c-.043.063.563-.351-.026.087l.372-.256c.07-.033.129-.063.189-.093zM-34.581 339.991c-.007.003-.01.005-.017.006.456-.342.043-.032.017-.006zM-31.53 337.772l-.39.162.327-.167.063.006zM-31.234 337.728l.27-.154c.154-.071.131-.038.191-.057zM-30.773 337.517l.15-.07c-.084.045-.124.06-.15.07zM-33.19 338.656c.098-.054.159-.084.146-.068-.032.013-.086.039-.146.068zM-33.556 338.813c.02-.02.066-.05.172-.119a5.186 5.186 0 0 1-.172.118zM-35.905 340.303c-.063.05-.14.107-.253.187zM-23.289 336.523l.074-.02-.223.02.353-.095c-.098.029-.067.038-.004.04l.152-.04c-.175.053.056.038.166.05zM-36.085 340.196c-.01.005-.012.005-.021.013.054-.046.102-.082.162-.137zM-33.959 339.249l.136-.15c.163-.084.22-.096.067 0zM-24.157 336.704l-.406.118.347-.113.06-.005zM-36.687 340.908l.257-.146-.19.15-.067-.004zM-37.86 341.776l.149-.104-.377.31zM-38.411 342.506c-.127.13-.277.282-.396.408.139-.153.249-.275.396-.408zM-38.276 342.388c-.052.04-.093.079-.135.118a6.04 6.04 0 0 0 .152-.161zM-38.259 342.345l.04-.1c.092-.057.054-.003-.04.1zM-43.176 347.337l.111-.104.003.005c-.075.096-.171.232-.277.364.014-.04.12-.25.243-.444l.015.033c-.031.05-.063.097-.095.146zM-43.196 347.488l-.442.676c.144-.287.258-.428.442-.676zM-46.761 355.338c.276-1.086.135-1.11.555-2.205l.011.009c.462-1.078.246-1.008.818-2.103-.01.068-.02.135.06-.029.16-.491.505-1.078.877-1.794l.121-.058c-.454.816-.992 1.863-1.322 2.747l-.01-.01c-.205.533-.4 1.106-.482 1.445.025-.067.046-.13.076-.207l.01.009c.465-1.078.247-1.008.818-2.103-.01.068-.02.135.063-.029.156-.491.503-1.078.875-1.794l.121-.058c-.453.816-.991 1.863-1.322 2.747l-.01-.01c-.102.266-.203.545-.288.796.01-.015.016-.024.03-.057a1.513 1.513 0 0 1-.115.32 4.615 4.615 0 0 0-.137.515 1.86 1.86 0 0 0-.133.253c-.073.258-.165.614-.255.925.007-.065.02-.128.03-.193-.058.205-.11.403-.13.534.048.103.424-1.502.569-1.484-.077.233-.202.73-.32 1.143.017-.15.045-.297.07-.447-.151.404-.247.967-.206.99l-.078.094c-.157.477-.169.762-.213 1.046.004-.07-.016-.07-.007-.144l-.124.476c.019.075.001.338-.05.642-.055.25-.057.077-.084.049l-.026.229-.07.152-.03.197c-.03.097.075-.493.048-.583-.062.249-.042-.183-.122.09l-.076.493c-.029.1.083-.528.048-.594l.05-.022c-.008-.33.15-.524.133-.801l.14-.4.017-.077c-.014-.125-.165.331-.202.251.066-.372.234-.897.225-.974.114-.421-.08.37.047.024m.558-1.8c-.03.055-.065.126-.092.185-.072.242-.307.949-.355 1.265.026.054.138-.348.261-.748.037-.2.086-.404.186-.703M-46.613 355.337l.02-.077-.021.024c-.017.052-.024.089-.038.137.005 0 .015-.017.04-.083m-.42 2.35.068-.327a.31.31 0 0 0-.03.077l-.038.25m.22-1.47c-.004.035-.009.073-.015.108.002-.033-.002-.053-.005-.07a.236.236 0 0 1-.03.037l-.096.37c.02.074.002.337-.051.64l-.009.033.047-.02c-.009-.332.15-.525.132-.802l.16-.457c0-.135-.071.047-.132.16z" style="fill:#7c0a49;fill-opacity:1;fill-rule:nonzero;stroke:none;stroke-width:.129153" transform="matrix(2.73148 0 0 -2.73148 148.934 1093.617)"/><path d="M-46.025 353.585c0-.03.005-.07.013-.116.023-.033.028-.014-.013.116zM-46.678 356.33zM-43.877 349.103l-.15.186c.361-.563.243-.51.519-.911l.012.18c-.364.56-.459.805-.745 1.347-.036.042.077-.329.364-.801zM-44.27 349.478l.047-.011c.054-.11.117-.23.199-.363l-.152.185c.362-.563.243-.51.52-.911l.012.18c-.367.56-.461.803-.745 1.347-.018.018 0-.056.05-.183l-.18.333c.117-.23.222-.484.249-.577zM-47.235 358.316l-.069.3.083-.489zM-46.82 357.582l-.076.164.125-.598zM-47.66 361.991c.022-.057.028.194.045.26l-.067.416c-.026-.503.036-.176.023-.676zM-47.519 361.344l.045.138c.001 0-.045.235-.045-.138zM-47.051 368.226l-.001-.004c.009.04.011.054 0 .004zM-47.145 367.98c.025.182.055.243.09.367-.104-.187-.156-.914-.195-.735l.052-.178c-.013.18.11.486.146.788-.024-.109-.097-.418-.093-.241zM-47.31 366.035c.037.426.18.865.161 1.162-.073-.368-.189-.803-.16-1.162zM-47.017 366.486l-.113-.55.069.248-.047-.604c.012.241.117.85.091.906zM-46.836 369.015l-.13-.425h.014zM-46.77 367.644c.004.04-.04-.016-.087-.16l.081.52c-.11-.418-.228-1.259-.292-1.206 0-.235.106.235.164.476.034-.004.047-.03.134.37zM-46.72 367.406l.093.599c-.11-.42-.227-1.26-.292-1.207 0-.298.171.55.199.608zM-46.43 370.693l-.146-.539.094.239zM-46.553 368.661c.02.297-.134-.476-.16-.42-.057-.452.049-.056.11.046-.017-.098-.028-.198-.044-.274l.069.239c.04.178.019.178.004.176-.01-.028-.014-.067-.02-.1-.013.072-.098-.348-.04.095zM-46.478 369.08l.115.415h-.077zM-45.885 372.34c.25.637.495 1.15.716 1.72a27.814 27.814 0 0 1-.716-1.72zM-46.497 368.013l.068.239c.04.178.019.178.003.176-.041-.118-.047-.3-.07-.415zM-44.833 374.913l-.255-.563.14.096c-.013.124.077.352.115.467zM-46.144 369.256l-.133-.236c.011-.117-.034-.295-.05-.529.094.352.083.588.183.765zM-45.167 372.435l-.017-.057.23.5zM-44.074 375.169c-.014.064-.22-.31-.32-.53.047-.01.127.21.32.53zM-43.874 375.546l.06.228c.004-.061-.34-.707-.06-.228zM-43.615 376.028c.158.322.28.407.327.581-.036-.05-.05-.048-.026.007.057.105.09.163.116.204a48.496 48.496 0 0 1-.442-.66l.025-.132zM-43.157 376.88c.047.054-.012-.12.212.241l.613.97c-.234-.345-.537-.785-.825-1.211zM-42.165 377.36c.043.046.09.097.123.125a.466.466 0 0 1-.123-.126zM-42.65 376.574c.034.035.071.082.05.062-.015-.016-.033-.041-.05-.062zM-42.073 378.243c.265.277.867 1.233.947 1.258l-.018.07-.037-.11c-.33-.363-.726-1.033-.892-1.218z" style="fill:#7c0a49;fill-opacity:1;fill-rule:nonzero;stroke:none;stroke-width:.129153" transform="matrix(2.73148 0 0 -2.73148 148.934 1093.617)"/><path d="M-41.98 378.65a1.054 1.054 0 0 0-.078-.187 2.131 2.131 0 0 0-.165-.22c.075.077.178.212.287.363.215.285.515.725.77.977l-.156-.25c.032.05.106.144.178.237.032.05.12.142.163.188-.412-.444.088.224-.305-.21l-.006.022-.016-.046-.004-.004h.002l-.012-.035c-.232-.27-.442-.554-.658-.836zM-40.877 379.9c.121.16.24.324.369.475l-.21-.22zM-40.24 379.919l.097.143-.354-.406zM-32.28 387.37c-.552-.273-.258-.066-.953-.457.147-.067 1.204.615 1.712.846.104.159-.468-.275-.676-.303zM-33.187 386.178c-.255-.154-.453-.285-.432-.223-.064-.1-.43-.314-.458-.37.487.347 1.341.791 1.339.793.357.195.29.184.27.196-.141-.102-.534-.314-.853-.508zM-32.413 386.63c-.064-.04-.065-.05-.055-.056.039.028.062.049.055.057zM-31.275 387.118l-.009-.021c.028.018.025.023.009.021zM-31.635 386.976c.153.078.316.138.36.142l.014.04zM-35.573 383.77c-.022-.057-.488-.412-.692-.612l.62.45a.937.937 0 0 1 .107.103c.038.024.078.05.12.075-.042-.023-.079-.044-.116-.07.034.053-.165-.07-.04.053zM-33.296 385.056l.202.196c-.17-.067-.647-.393-.512-.365.139.097.204.117.31.169zM-28.195 387.08l-.232-.054-.026-.06zM2.695 379.358c-.092.107-.118.127-.112.107.058-.071.102-.118.112-.107zM2.139 380.095c.007-.014.02-.036.038-.064.01-.004.015-.004-.038.064zM6.32 353.703l-.045-.025c-.023-.102-.027-.147.044.025ZM5.915 352.982c.012-.028.035.003.061.059-.034-.049-.062-.086-.061-.059zM5.465 351.628l-.218-.377-.037-.111.22.377zM4.139 349.958l-.13-.08-.14-.322c.245.47.019-.123.27.402zM4.786 352.861c-.154-.323-.514-1.052-.562-1.215.067.1.448.884.562 1.215zM1.085 345.118l-.08.04c-.257-.323-.022-.123.08-.04zM.098 344.398c.2.22.272.312.48.53-.105-.077-.163-.116-.43-.358.336.272-.128-.19-.05-.172zM1.98 347.857c.043.103-.344-.465-.364-.394l.065.092-.145-.182c.113.072.113.072.444.484zM-3.962 340.702c.247.168.427.243.395.195l.238.254-.32-.26c-.107-.06-.245-.094-.313-.189zM-5.79 339.294a.99.99 0 0 1 .2.16c-.437-.306-.272-.055-.518-.22.14.024-.38-.275-.58-.407.24.165.493.254.718.364-.104-.082-.422-.267-.57-.364.39.268.82.325 1.098.626-.252-.176-.302-.167-.348-.16zM-4.56 340.38l.474.28-.145-.027zM-6.906 338.628l-.486-.241c.18.057.222.098.486.24zM.462 346.268c-.277-.297-.112-.192-.177-.285.15.172.138.18.116.192l.28.296c-.125-.127-.007.066-.219-.203zM-14.14 336.531a.501.501 0 0 1 .153.022c-.05-.01-.101-.014-.152-.022zM-11.686 337.043c-.004-.007-.014-.014-.006-.019.024.015.02.018.006.019zM-8.144 338.294c.277.024.48.236.839.35-.099.026-.711-.329-.839-.35zM-8.952 337.817l.46.167-.35-.116zM-16.407 336.682h-.011c.006.033.826.13.35.106 0 .006-.054.006-.201-.003l-.437-.12.154.01c-.073.013.132.046.3.074l-.264-.073-.036-.001.02-.004-.024-.005c.024 0 .05.003.077.005h.02l.057.004c-.009 0-.015.003-.016.005l.01.002zM-16.317 336.67c.017.005.04.008.06.012l-.145-.007c.016-.004.04-.004.085-.004zM-29.883 336.985l.46-.138c-.306.097-.39.129-.404.14l-.085.011.029-.013zM-22.565 336.067c-.044 0-.088-.007-.132-.007.5-.136.738-.076 1.2-.155l-.51.031c-.01-.003-.008-.005-.01-.009l-.14.01c-.113-.04.363-.077.6-.108.378-.028.752-.03 1.128-.032l-.043.006h.016l.027-.006.717-.04-.127.015.277-.015c-.365.046-.73.093-1.21.13l.139-.027c-.093.01-.186.018-.288.027l.135-.026-1.63.206c-.035 0-.07-.006-.106-.006l-.043.006zM-34.731 339.991l-.015.006c.453-.342.042-.032.015-.006zM-29.691 337.067l.147-.067c.006.005-.011.018-.147.067zM-32.825 338.582c.02-.01.032-.013.045-.018l-.197.141zM-31.741 337.767l.06.006-.388.16.328-.166zM-30.923 337.517l.15-.07a.952.952 0 0 1-.15.07zM-36.053 340.3c-.063.052-.14.11-.255.19zM-33.336 338.654c.096-.052.155-.082.142-.066l-.142.066zM-33.704 338.812c.022-.02.067-.051.172-.118a5.05 5.05 0 0 1-.172.117zM-36.254 340.206a4.811 4.811 0 0 1-.11.093c.09-.023 0 .077.258-.09-.35.294-.597.441-.844.687a.844.844 0 0 0 .138-.079c-.062.044-.112.091-.167.138.164-.118.12-.056.151-.052l.25-.141-.192.15h-.01c-.093.081-.187.17-.368.285.062-.126-.339.176-.159-.028-.066 0-.358.213-.097-.057l.387-.305c-.306.193.156-.235.496-.507.113-.037-.007.086.267-.094m-.984.833c.27-.209.234-.154.25-.137l.12-.095c-.26.163.033-.119.334-.372-.265.198-.473.33-.704.604z" style="fill:#7c0a49;fill-opacity:1;fill-rule:nonzero;stroke:none;stroke-width:.129153" transform="matrix(2.73148 0 0 -2.73148 148.934 1093.617)"/><path d="m-36.236 340.196-.018.01c.054-.045.101-.08.16-.134l-.142.124zM-24.364 336.709l.058-.005-.405.118.347-.113zM-38.008 341.774l.147-.102-.377.31zM-37.087 341.354l.557-.485c.293-.21-.116.173.408-.248l-.383.31c.047-.046.042-.058-.008-.027zM-38.425 342.388c-.051.04-.092.079-.135.117.059-.06.11-.114.152-.16zM-43.324 347.337l.133-.123c-.077.094-.182.245-.297.388.017-.05.178-.364.335-.58l.013.032-.184.283zM-43.347 347.488l-.441.676c.145-.287.26-.428.441-.676zM-46.827 356.326a1.484 1.484 0 0 1-.065.302c.031-.106.05-.203.065-.302zM-43.181 347.922c.01.009-.012.076.094-.075-.134.208-.182.327-.239.44zM-43.212 348.148l.123-.217.084-.084zM-45.272 351.728c.242-.567.172-.319.284-.535l-.022-.092c.17-.399.35-.643.444-.877-.047.116-.225.438-.195.463-.445.87-.013.22-.378 1.068.313-.815-.234.349-.133-.027zM-45.494 352.455c-.01-.009-.094.177-.166.326-.044.128-.099.25-.16.367.046-.114.072-.181.088-.23-.026.043-.041.056-.034.004.016-.034.035-.081.053-.124-.003-.016 0-.046.032-.143.007.006.006.03.005.052.09-.225.184-.49.19-.543-.027.275.18-.31-.008.291zM-47.453 358.616l.082-.489-.015.19zM-47.807 361.99c.02-.056.025.195.043.261l-.066.416c-.027-.503.034-.176.023-.677zM-47.668 361.344l.045.138c.001 0-.046.235-.045-.138zM-47.627 364.067c.017.432.061.862.094 1.29-.033-.245-.064-.92-.125-.99.023.064.017-.181.03-.3zM-47.2 368.226c.04.186-.1-.489-.095-.246.026.182.056.243.092.367-.105-.187-.157-.914-.196-.735l.052-.178c-.013.18.112.49.147.792zM-47.456 366.035c.034.426.176.865.158 1.162-.074-.368-.19-.803-.158-1.162zM-47.165 366.486l-.115-.55.07.248-.046-.604c.011.241.116.85.091.906zM-46.986 369.015l-.13-.425h.015zM-46.918 367.644c.004.056-.083-.068-.141-.37.039.002.047-.055.141.37zM-46.58 370.693l-.145-.539.093.239zM-46.703 368.661c.022.297-.135-.476-.16-.42-.06-.481.065.002.122.064 0 .18-.106-.362-.042.118zM-46.59 369.494l-.037-.415.116.415zM-46.035 372.34c.25.637.498 1.15.716 1.72a29.698 29.698 0 0 1-.716-1.72zM-44.982 374.913l-.255-.563.14.096c-.013.124.077.352.115.467zM-46.476 368.491c.095.352.083.588.183.765l-.133-.236c.012-.117-.034-.295-.05-.529zM-45.318 372.435l-.014-.057.23.5zM-44.223 375.169c-.014.064-.22-.31-.32-.53.046-.01.127.21.32.53zM-43.962 375.774c.003-.061-.34-.707-.062-.228zM-45.386 370.798c.002.017.01.04.013.06a1.262 1.262 0 0 0-.033-.078zM-45.456 370.688a.458.458 0 0 1 .05.092l-.039-.033zM-43.437 376.61c-.037-.051-.05-.05-.025.006.062.114.098.175.124.216-.162-.238-.32-.47-.452-.673l.026-.13c.156.32.28.407.327.58zM-43.094 377.121l.613.97-.827-1.214c.052.063-.014-.123.214.244zM-42.313 377.363c.043.045.088.094.12.122a.484.484 0 0 1-.12-.122zM-42.796 376.577c.033.034.067.08.048.059-.015-.014-.033-.04-.048-.059zM-41.46 379.52l.011-.006c-.24-.277-.458-.574-.68-.865a.928.928 0 0 0-.09-.216c.205.235.591.842.905 1.15l-.157-.25c.031.05.106.143.18.237.03.05.116.142.16.188-.42-.456.123.267-.329-.238zM-42.797 376.96l-.196-.302.17.25-.014-.056zM-41.024 379.9c.12.16.238.324.366.475l-.21-.22zM-41.346 378.704l-.16-.183-.171-.305zM-40.788 379.402a6.042 6.042 0 0 0-.255-.355c.183.222.365.43.255.355zM-41.246 378.724l-.027.013c-.07-.096-.083-.128.027-.013zM-41.28 378.74l.007-.003c.054.075.142.192.23.31a4.328 4.328 0 0 1-.238-.307zM-34.22 383.996c.033.027.068.058.095.083-.108-.076-.117-.09-.095-.083zM-40.39 379.919l.099.143-.356-.406zM-32.429 387.37c-.552-.273-.259-.066-.953-.457.148-.067 1.203.615 1.713.846.104.159-.469-.275-.677-.303zM-36.891 383.234l.332.254.039.038zM-33.767 385.955c-.065-.1-.432-.314-.457-.37.484.347 1.34.791 1.337.793.353.193.29.184.27.195-.142-.101-.535-.313-.853-.507l.133.112c-.255-.154-.452-.285-.43-.223zM-32.563 386.63c-.066-.041-.065-.052-.055-.057.039.029.063.05.056.058zM-31.425 387.118l-.008-.021c.027.018.025.023.008.021zM-31.783 386.976c.154.078.315.138.358.142l.015.04zM-30.851 387.387l-.192-.13c.126.05.257.103.342.13l.023.009a.113.113 0 0 1-.023-.01l-.193-.128c.223.088.5.206.416.127.212.1.42.216.636.305-.19-.057-.373-.127-.558-.197.135.07.27.14.41.197-.292-.09-.574-.202-.861-.303z" style="fill:#7c0a49;fill-opacity:1;fill-rule:nonzero;stroke:none;stroke-width:.129153" transform="matrix(2.73148 0 0 -2.73148 148.934 1093.617)"/><path d="M-30.701 387.387a.113.113 0 0 0 .023.009c-.008-.003-.015-.005-.023-.01zM-33.243 385.252c-.171-.067-.647-.393-.512-.365.14.097.204.117.309.169zM-29.48 386.675l.834.357c-.488-.173-.347-.082-.813-.289zM-28.586 387.002c-.375-.128-.291-.067-.724-.259l-.02-.068.739.317-.011-.025.258.113-.231-.054zM-29.46 386.36c-.101-.042-.204-.082-.304-.126.308.142.394.113.514.132l-.044.064c-.04-.015-.077-.033-.116-.048l-.034.048c-.16-.057-.314-.128-.47-.196.255.118.359.12.454.126zM1.99 380.095c.008-.014.02-.036.038-.064.01-.003.014-.003-.038.064zM2.545 379.358c-.091.107-.118.127-.112.107.059-.071.103-.118.112-.107zM5.28 351.517l.036.11-.127-.218c-.087-.108-.254-.52-.323-.553-.196-.375-.155-.263-.28-.594.266.42.368.684.49.92l-.014-.042zM4.717 350.856c-.195-.375-.154-.263-.28-.594.363.575.42.86.64 1.175-.065.014-.28-.541-.36-.581zM3.858 349.878l-.139-.322c.245.47.019-.123.27.402zM2.876 348.193l-.192-.301.24.284c-.114-.145.038.106-.048.017zM.855 345.158c-.254-.323-.022-.123.082-.04zM1.387 347.373c.114.072.114.072.444.484.043.103-.345-.465-.365-.394l.067.092zM-3.717 340.897l.24.254-.322-.26c-.106-.06-.244-.094-.31-.189.246.168.425.243.392.195zM-7.542 338.387c.18.057.223.098.487.24zM.313 346.268c-.276-.297-.113-.192-.176-.285.15.176.137.18.115.192l.28.296c-.125-.127-.006.066-.22-.203zM-.258 345.496c.094.14.221.325.05.165.106.135-.055-.034-.055-.034-.064-.094.034-.02.015-.07l-.226-.26zM-7.928 338.424l.1.03.17.107c.063.03.129.06.204.084a.293.293 0 0 1-.109-.025c.32.196.458.265.942.564l.445.196-.136-.02.662.389-.028.027c-.422-.224-.397-.258-.703-.404l-.08-.012.662.389-.028.027c-.472-.252-.381-.263-.829-.461l.083-.004c-.39-.176-.284-.21-.586-.301.574.304-.446-.189-.22-.006-.192-.125-.506-.28-.814-.44l-.006-.002c.377.213-.438-.11-.667-.187.146-.002-.542-.232-.19-.127-.901-.43-1.855-.651-2.421-.82.016-.022-.268-.11-.085-.082-.668-.123-2.252-.535-2.77-.643.251.006-.217-.076.148-.045-.007.01-.045.01.07.041.044-.014-.224-.066.08-.04-.007.012-.066.005.102.05.041.004.073.004.107.004.02-.001.037-.002.062-.001a16.13 16.13 0 0 0-.946-.217c-.033 0-.052.002-.062.008l.085.012a1.247 1.247 0 0 0-.086-.012c-.027.013-.03.03-.174.013-.022.01-.064.016-.234-.012l-.237-.06-.033.017-.115-.018-.034.018-.576-.09a.978.978 0 0 1 .207-.005c.204-.011.554.042.756.062.085.009.144.012.15 0l-.005.012.296.042c-.046-.01-.091-.024-.138-.032.07.004.132.008.18.007a.316.316 0 0 1-.03-.007l.051.004c.022-.003.05-.003.054-.01-.002.004-.012.007-.02.011.088.006.16.008.169-.01-.006.01-.071.019-.015.034l.38.052c-.024 0-.046.004-.07.006.023.005.044.007.075.016a2.073 2.073 0 0 0-.093-.013c-.02.004-.042.004-.07.006.433.027 1.146.13 1.902.317-.072.012.336.109.503.162-.315-.128.136.018.207.018.046.082.983.307 1.324.466.165-.048 1.233.317 1.722.49.248.146-.266-.11-.21-.037l.112.056a.082.082 0 0 0-.02-.007l.289.136c-.101.008-.386-.136-.533-.194 0 .004-.003.005.007.016l.377.178a.255.255 0 0 1-.08-.013c.195.077.344.12.527.19.082.025.161.057.243.1m.955.636c.06.035.128.077.204.124l.292.129.053-.002c-.389-.176-.284-.21-.585-.301.276.146.181.107.036.05m-1.118-.684c-.008-.004-.016-.009-.025-.011 0 .002.006.007-.012 0l.037.011m-7.278-1.958-.014.008.07.007-.056-.014m.68.047c-.002.004.001.01.019.013l.087.012c-.036-.008-.07-.018-.107-.025m.321.074a1.135 1.135 0 0 1-.08.007c.053.003.121.01.18.015l-.1-.022m5.524 1.43.017.009-.019-.011c.002 0 0 0 .002.002z" style="fill:#7c0a49;fill-opacity:1;fill-rule:nonzero;stroke:none;stroke-width:.129153" transform="matrix(2.73148 0 0 -2.73148 148.934 1093.617)"/><path d="m-8.992 337.868-.11-.05.391.14-.038-.021.056.027.053.02-.044-.014.095.048a.553.553 0 0 0-.05-.019.773.773 0 0 1-.064-.037zM-.979 344.948l.157.1-.034.018.079.085zM-16.046 336.03l-.602-.089c-.11.042-.315.05-.596.047-.263.002-.608-.01-1.007-.012-.247 0-.509.006-.783.023-.003-.003-.013-.003-.017-.007-.045.004-.087.004-.132.007-.02-.019-.076-.024-.146-.027l-.233.009.001-.006c-.048 0-.099.004-.15.006l.016-.078c.039.012.09.016.146.018l.003-.018a.588.588 0 0 0 .144.018c.175-.005.387-.019.599-.014l-.226-.043a67.875 67.875 0 0 1 1.429-.027c.427-.003.8.004 1.08.03-.123-.004-.012.036-.077.047l.666.041.034.075-.16-.024.011.024zM-15.245 336.658c-.038-.008.037-.007.162.004l-.013-.004c-.112-.025.73.03 1.16.2-.091-.018-.19-.032-.293-.048.05.014.1.03.144.047-.355-.064-.827-.108-1.16-.199zM-16.856 336.486l-.036-.009c-.245-.042-.522-.051-.796-.095.106 0 .432.03.776.068-.202-.02-.415-.033-.625-.068.177 0 .986.087 1.453.146l-.268-.014.119.014-.505-.026c-.023-.007-.053-.007-.077-.014l-.041-.002zM-16.88 336.493l-.125-.007c-.104-.022.008-.007.124.007zM-16.88 336.493l.142.01c.008 0 .019 0 .027.003a1.133 1.133 0 0 1-.17-.012zM-17.761 336.236l.018.005.13-.005.34.067-.373-.043.223.043-.522-.06.184-.007zM-34.857 384.047c.39.141.82.342.825.205.325.321.342.488-.825-.205zM-34.032 384.252c-.062-.067-.126-.138-.204-.216.071.057.133.1.208.17.016.027-.004.03-.004.046zM-34.954 384.502c.31.482 1.01.773 1.406 1.175a27.917 27.917 0 0 1-1.7-1.28zM-48.24 368.715c.556-1.002-.374-1.637.552-.701.173 1.311-.386.271-.553.7zM-47.926 365.233c-.457-.95-.036-1.028.067-1.58.085.737-.013 1.16-.067 1.58z" style="fill:#7c0a49;fill-opacity:1;fill-rule:nonzero;stroke:none;stroke-width:.129153" transform="matrix(2.73148 0 0 -2.73148 148.934 1093.617)"/><path d="M-39.644 343.79c.35-.33.101-.17.134-.232.168-.176.298-.303.352-.328l.18-.213.071.01-.016.018.016-.018c.022.005.046.007.067.01-.179.176-.356.354-.524.534.003-.044-.437.456-.28.218zM-39.287 342.955l.032.008-.134.132c-.008-.012.06-.089.102-.14zM-39.643 343.573c-.014.002-.025 0-.016-.015l.127-.128c-.04.05-.075.096-.11.143zM-42.772 347.758l.004.009a.86.86 0 0 1-.04.035l.037-.044zM-38.813 343.184l.132-.123.03.006c-.105.087-.16.126-.162.117zM-39.027 343.438l-.422.543-.317.267-.033.164a2.533 2.533 0 0 1-.047.055c-.058.06-.113.118-.167.18l-.076.072c.061-.204.802-1.116 1.44-1.653l.045.008c-.217.213-.466.475-.423.364zM-38.584 343.076l.06.01c-.186.152-.163.109-.06-.01zM-38.716 343.057c.006 0 .01 0 .016.002-.03.03-.062.057-.092.088.018-.023.044-.055.076-.09z" style="fill:#fff;fill-opacity:1;fill-rule:nonzero;stroke:none;stroke-width:.129153" transform="matrix(2.73148 0 0 -2.73148 148.934 1093.617)"/><path d="M-39.326 343.96a.526.526 0 0 0-.03.017c0 .005.002.009.001.012-.085.09-.17.176-.252.26-.017.015-.035.027-.053.043a8.973 8.973 0 0 1 1.14-1.206l.01.002-.032.039c-.154.168-.466.503-.784.833z" style="fill:#fff;fill-opacity:1;fill-rule:nonzero;stroke:none;stroke-width:.129153" transform="matrix(2.73148 0 0 -2.73148 148.934 1093.617)"/><path d="M-42.685 347.67a.294.294 0 0 0 .03-.025c.036-.068.07-.137.104-.207-.001-.02 0-.038.006-.053.005.006.011.01.018.014l.017-.032.034.01.015-.058.18-.16.023-.063-.066.094c-.105.058.302-.46.427-.677-.022.063.12-.134.168-.167l-.478.677c.047-.042.096-.084.143-.128l.04-.102.122-.11c.013-.014.019-.034.033-.046l-.03.043c.018-.016.036-.031.054-.049l.016-.062.145-.112.01-.012.015-.056.018-.012c-.007-.014-.01-.028-.008-.033l.068-.067.029.002c.015-.024-.075-.055-.058-.08.049-.047.097-.09.146-.132.032.003.066.006.1.007.285-.461.358-.325.528-.61l.024-.012.161-.223c-.007-.014-.007-.023.022-.031l.02-.027c-.005.002-.011.008-.014.008l.03-.03c.053-.072.101-.146.156-.218-.033.052-.029.072-.028.1.003-.003.007-.004.01-.006.146-.169.353-.437.507-.612l.033-.165.316-.266.422-.544c-.044.115.222-.167.444-.384.005.001.01.003.017.003a1.515 1.515 0 0 0-.076.091c.03-.031.061-.058.092-.089l.019.003-.132.122c.002.01.057-.029.162-.117h.003c-.64.536-1.38 1.448-1.44 1.652l.075-.07c.054-.063.109-.121.167-.182l.047-.054.033-.164.317-.267.422-.544c-.043.111.206-.15.423-.363l.02.002c-.104.118-.126.161.06.01h.004c-.412.35-.858.844-1.14 1.206.018-.016.035-.028.053-.043.083-.084.167-.17.252-.26v-.012a.388.388 0 0 1 .03-.017c.317-.33.629-.665.783-.833l.032-.04c.759.107 1.614.168 2.594.168.078 0 1.349.026 3.813.082 2.465.056 4.066-.027 4.804-.246a4.83 4.83 0 0 0 1.95-.9c.6-.457 1.134-1.193 1.6-2.213.31-.544.737-.954 1.28-1.228.543-.273 1.417-.393 2.621-.354 1.474.07 2.25.453 2.327 1.146a4.328 4.328 0 0 1-.29 2.076l-9.839 23.046c-.272.726-.62 1.19-1.047 1.392-.427.2-.873.3-1.339.3h-3.55c-.468 0-.894-.156-1.282-.464-.388-.31-.699-.755-.93-1.34l-7.023-16.74c.119-.198.234-.4.365-.59-.16.255-.217.381-.229.448m4.326 4.706 1.687 4.531c.272.84.67 1.485 1.193 1.94.524.455 1.155.683 1.893.683.698 0 1.3-.202 1.804-.6.503-.4.95-1.128 1.34-2.185l1.512-4.205c.427-1.02.272-1.976-.466-2.87-.735-.889-1.824-1.334-3.26-1.334h-2.502c-1.32 0-2.262.445-2.824 1.335-.563.893-.69 1.794-.377 2.705m-4.413-4.618c-.01.01-.021.026-.035.044a.86.86 0 0 0 .04-.035l-.005-.01zM-39.364 343.573a.242.242 0 0 1-.033.058c-.49.548-.64.642-.92.96.093-.153.176-.288.26-.422-.146.146-.26.252-.409.422.331-.544.535-.889 1.179-1.636-.043.05-.11.128-.102.14l.134-.132c.09.018.183.037.277.054l-.18.212c-.054.026-.184.153-.352.329-.033.061.216-.098-.134.231-.157.237.283-.263.28-.219.168-.18.345-.357.524-.533.01.002.02.004.03.004-.189.174-.376.35-.554.532m-.279 0 .11-.143-.126.128c-.009.015.002.017.016.015zM-43.043 347.214l-.02.024-.002-.005.022-.02zM-43.081 347.191l-.015-.033a1.45 1.45 0 0 1 .227-.292c-.075.104-.143.216-.213.325zM-41.1 345.28c.01.005.027.005 0 .056.136-.18.285-.348.428-.52-.244.272-.446.591-.722.913.049-.165.165-.249.293-.45z" style="fill:#fff;fill-opacity:1;fill-rule:nonzero;stroke:none;stroke-width:.129153" transform="matrix(2.73148 0 0 -2.73148 148.934 1093.617)"/><path d="M-40.992 345.08a1.397 1.397 0 0 1-.109.2c-.015-.01-.02-.028.109-.2zM-43.14 347.054l-.013-.031a.933.933 0 0 1 .134-.157c-.043.059-.08.123-.121.188zM-41.274 345.103c.09-.076.293-.313.387-.384-.055.127-.283.325-.432.523zM-41.544 345.73c.048-.166.166-.25.294-.45.011.005.028.005.002.056.024-.033.053-.064.078-.096l.044-.137c.092-.076.294-.313.388-.384-.038.087-.157.208-.276.339-.166.212-.33.438-.53.671z" style="fill:#fff;fill-opacity:1;fill-rule:nonzero;stroke:none;stroke-width:.129153" transform="matrix(2.73148 0 0 -2.73148 148.934 1093.617)"/><path d="M-41.142 345.08a1.524 1.524 0 0 1-.108.2c-.015-.01-.02-.029.108-.2zM-41.033 345.615l-.165.166c.195-.288.397-.574.612-.85-.103.157.153.015-.447.684zM2.506 352.78c0-.516-.096-.994-.287-1.423-.193-.43-.499-.699-.92-.802-.958-.137-1.81-.036-2.556.311a5.486 5.486 0 0 1-2.328.519c-.65 0-1.226-.08-1.724-.236a13.31 13.31 0 0 1-1.548-.594c-.387-.206-.922-.36-1.61-.465a15.898 15.898 0 0 0-2.356-.155c-3.563-.035-6.57 1.43-9.02 4.397-2.452 2.965-3.658 6.724-3.62 11.275.038 4.864 1.493 8.381 4.365 10.554 2.873 2.173 5.88 3.328 9.02 3.467 2.528.101 4.608-.226 6.235-.983 1.629-.76 2.441-1.415 2.441-1.967 0-.344-.095-.596-.287-.75-.192-.155-.383-.215-.575-.18a5.355 5.355 0 0 0-1.033.285c-.306.12-.672.25-1.093.387-.498.207-1.15.423-1.954.648-.804.222-1.932.248-3.387.076-2.606-.31-4.424-1.449-5.459-3.414-1.034-1.966-1.55-4.586-1.55-7.863.037-3.24.937-5.784 2.698-7.63 1.764-1.845 3.295-2.786 4.598-2.819 1.377-.07 2.574.146 3.588.646 1.017.5 1.678 1.268 1.983 2.301.19.69.182 1.278-.028 1.76-.21.483-.736.879-1.58 1.191-.345.171-.748.328-1.207.465-.459.138-.708.465-.747.983 0 .343.106.603.316.776.21.17.526.26.949.26l6.607.154c.537 0 1.014-.2 1.436-.595.421-.396.633-.89.633-1.475z" style="fill:#fff;fill-opacity:1;fill-rule:nonzero;stroke:none;stroke-width:.129153" transform="matrix(2.73148 0 0 -2.73148 148.934 1093.617)"/><path d="M-52.65 359.195c-.008-.463-.428-.834-.937-.826-.51.007-.913.389-.907.853.01.467.425.837.934.83.511-.007.917-.39.91-.857zM13.06 358.272c-.008-.463-.426-.834-.935-.827-.51.005-.915.389-.908.853.008.464.426.836.936.828.51-.005.914-.389.906-.855zM-52.971 347.584l1.457 2.825-.494.14-.352.102-1.807-.854-.358.662 5.21 2.47.359-.662-2.433-1.154a26.173 26.173 0 0 1 1.62-.397 31.814 31.814 0 0 1 1.831-.337l.438-.808c-.576.095-1.14.192-1.696.296-.556.107-1.056.215-1.496.333l-1.85-3.41zM-47.43 345.714c-.185-.483-.554-.887-1.105-1.208-.545-.318-1.095-.451-1.645-.399-.549.057-.98.318-1.294.79-.31.465-.368.942-.18 1.425.19.488.56.892 1.106 1.21.55.32 1.098.454 1.644.396.545-.057.972-.32 1.283-.785.314-.472.377-.947.19-1.43m-2.6-.827c.338-.014.686.083 1.047.296.366.212.612.464.742.748a.806.806 0 0 1-.065.815.92.92 0 0 1-.752.41c-.331.019-.679-.077-1.045-.292-.36-.21-.608-.463-.744-.75-.13-.29-.116-.564.054-.82.172-.256.427-.392.763-.407zM-44.998 343.62c-.01.006-.061.058-.151.155-.09.098-.188.176-.292.228a1.46 1.46 0 0 1-.423.142 2.586 2.586 0 0 1-.443.016l.44.302-.468.6-3.408-2.333.466-.6 1.61 1.1c.282.194.537.312.771.351.23.041.448.022.65-.055a.946.946 0 0 0 .284-.166c.08-.072.157-.152.229-.244zM-46.287 341.258a1.266 1.266 0 0 1-.408-.74c-.05-.288.018-.534.199-.733.17-.184.354-.29.555-.315.2-.025.357-.012.471.033l.573-.624c-.297-.129-.65-.19-1.056-.18-.405.01-.785.21-1.14.596a1.536 1.536 0 0 0-.399 1.38c.097.525.389.985.878 1.378.496.4 1.025.607 1.584.623a1.76 1.76 0 0 0 1.406-.595c.328-.357.461-.803.402-1.335-.061-.531-.44-1.061-1.138-1.59l-1.927 2.102m1.932-1.033c.211.21.334.441.366.695.03.25-.048.48-.236.687a.963.963 0 0 1-.676.323c-.267.015-.537-.06-.809-.227zM-42.963 335.573a1.136 1.136 0 0 0 .254.427 2.028 2.028 0 0 0-.686.05 1.973 1.973 0 0 0-.724.33c-.288.21-.473.467-.558.77-.087.304-.015.602.213.896.237.296.502.469.796.513.294.047.58.013.857-.101.219-.092.42-.207.605-.343.183-.136.357-.254.522-.35.105-.059.217-.11.332-.156.117-.044.228-.01.338.1.099.102.142.237.13.415-.013.179-.134.365-.362.561-.223.2-.444.295-.658.295a.639.639 0 0 1-.523-.23l-.576.501c.298.345.664.5 1.095.468a1.998 1.998 0 0 0 1.17-.507c.33-.29.54-.625.624-1.008.085-.38-.024-.724-.327-1.03l-1.548-1.559a1.632 1.632 0 0 1-.274-.362 3.107 3.107 0 0 1-.096-.195l-.604.515m1.324 1.508a.423.423 0 0 0-.178.033 2.512 2.512 0 0 0-.208.092c-.131.068-.289.161-.472.28a2.42 2.42 0 0 1-.435.24c-.175.067-.335.1-.476.095-.139-.003-.26-.08-.357-.226-.103-.154-.11-.304-.02-.446a1.02 1.02 0 0 1 .348-.335c.283-.188.571-.272.863-.256.295.015.507.092.637.223zM-33.79 331.964c-.313-.35-.735-.628-1.266-.835-.53-.203-1.094-.153-1.696.156-.642.333-1.014.83-1.107 1.485-.092.658.08 1.359.519 2.102.44.743.978 1.252 1.616 1.522.64.268 1.282.236 1.927-.097.61-.314.964-.733 1.063-1.26.1-.52.089-.965-.035-1.326l-.764.394c.065.25.067.518.003.804-.06.288-.28.53-.651.72-.414.214-.838.217-1.272.008-.434-.207-.815-.592-1.146-1.148-.324-.553-.468-1.063-.431-1.526.039-.465.264-.803.678-1.015.359-.185.696-.22 1.011-.103.315.116.581.286.794.51l.758-.39zM-30.288 328.9l-.75.244.813 2.192c.116.31.141.557.077.737-.065.18-.226.312-.482.397a.89.89 0 0 1-.747-.08 1.14 1.14 0 0 1-.52-.631l-.773-2.084-.75.243 1.92 5.177.75-.243-.675-1.816c.19.097.41.165.662.205.251.04.521-.007.811-.144.37-.157.588-.408.654-.752.064-.346.047-.65-.052-.918zM-25.98 332.233a1.725 1.725 0 0 0-.224.02 1.061 1.061 0 0 1-.38-.016 1.305 1.305 0 0 1-.414-.164 2.121 2.121 0 0 1-.34-.261l.11.499-.778.149-.852-3.87.777-.15.402 1.83c.07.316.177.565.32.74.142.177.315.299.521.369.11.037.22.057.331.055.11 0 .226-.013.342-.036zM-25.844 328.073l.512 3.943.79-.09-.515-3.944-.787.091m.6 4.623.108.82.788-.09-.107-.82zM-20.734 329.512c.142-.156.203-.364.187-.621-.03-.353-.208-.653-.53-.896-.324-.243-.709-.36-1.155-.35-.663.015-1.116.207-1.356.575s-.36.682-.365.946l.787-.018a.793.793 0 0 1 .269-.51c.154-.144.376-.218.663-.224.234-.008.423.031.57.116.148.084.237.193.266.328a.321.321 0 0 1-.074.269.731.731 0 0 1-.288.2c-.194.097-.412.17-.655.218-.243.05-.444.105-.604.16-.247.1-.441.234-.581.411-.142.176-.197.4-.17.67.023.296.177.566.465.808.286.242.662.357 1.132.347.512-.011.901-.166 1.167-.467.263-.295.388-.595.369-.897l-.778.017c.008.112-.049.239-.17.377-.121.137-.327.212-.617.217-.25.007-.433-.035-.557-.126-.12-.09-.19-.189-.201-.298-.003-.138.037-.235.123-.298.089-.058.203-.113.347-.16.154-.051.36-.106.615-.159.257-.055.472-.132.652-.235.184-.11.346-.243.49-.4zM-18.481 327.84a.795.795 0 0 0-.37.07c-.107.054-.2.125-.284.214a.748.748 0 0 0-.179.296c-.037.11-.062.268-.072.463l-.116 2.138-.458-.022-.037.706.458.02-.066 1.217.81.039.064-1.211.528.027.038-.715-.527-.022.107-2.019c.007-.099.014-.172.025-.23a.38.38 0 0 1 .097-.166.42.42 0 0 1 .212-.074c.076-.004.15-.004.224 0l.035-.707zM-17.472 332.603l-.105.818.79.09.103-.818-.788-.09m.594-4.624-.508 3.943.79.09.507-3.946zM-12.06 328.772c-.05.06-.096.126-.132.2a1.427 1.427 0 0 0-.094.237 1.8 1.8 0 0 0-.437-.495 1.924 1.924 0 0 0-.704-.367 1.643 1.643 0 0 0-.995.012c-.312.11-.533.334-.66.675-.122.355-.12.657.008.908.127.254.322.453.58.6.206.112.422.203.647.267.223.061.425.13.606.202.11.044.218.1.324.165.107.062.142.167.107.315-.029.134-.126.245-.288.336-.161.092-.394.108-.7.048-.299-.06-.511-.174-.635-.336a.57.57 0 0 1-.096-.536l-.769-.152c-.13.422-.056.793.22 1.104.276.314.647.515 1.115.611a2.14 2.14 0 0 0 1.237-.1c.383-.154.622-.438.714-.845l.477-2.081c.038-.161.092-.3.161-.416l.112-.185-.797-.167m-.556 1.878a.483.483 0 0 0-.133-.117c-.062-.034-.129-.074-.2-.107a6.952 6.952 0 0 0-.515-.2 2.777 2.777 0 0 1-.46-.197c-.16-.095-.278-.199-.355-.31-.079-.108-.081-.246-.007-.404.076-.167.201-.26.378-.272.173-.01.339.015.495.075.325.11.564.282.719.518.152.233.208.44.168.615zM-6.896 330.274l-.756-.248-.81 2.185c-.114.312-.258.522-.43.629-.171.105-.384.118-.64.033a.804.804 0 0 1-.533-.49c-.1-.241-.094-.508.014-.798l.774-2.085-.75-.245-1.38 3.722.752.242.129-.352c.085.188.21.367.377.54.167.17.409.288.727.35.396.092.734.022 1.02-.212.284-.233.474-.486.572-.751zM.2 335.943c.177-.422.237-.903.178-1.437-.06-.534-.378-.976-.955-1.322-.62-.373-1.26-.439-1.921-.204-.661.235-1.237.711-1.725 1.43-.493.712-.71 1.399-.658 2.056.052.654.388 1.167 1.007 1.537.586.352 1.149.445 1.69.278.539-.169.95-.388 1.23-.666l-.734-.441a1.966 1.966 0 0 1-.754.388c-.3.086-.63.022-.988-.19-.398-.24-.602-.588-.612-1.046-.012-.457.165-.955.532-1.49.365-.531.775-.892 1.227-1.083.454-.19.879-.165 1.276.074.346.206.539.467.579.784.037.316.006.614-.1.896zM2.084 339.725c.54-.092 1.024-.368 1.452-.823.425-.453.654-.938.686-1.455.03-.516-.175-.956-.62-1.323-.441-.361-.934-.494-1.475-.4-.542.097-1.026.373-1.453.827-.43.456-.655.941-.683 1.452-.03.513.174.954.616 1.314.444.365.938.503 1.477.408m1.293-2.266c-.038.31-.198.62-.48.919-.284.305-.586.49-.91.56a.945.945 0 0 1-.846-.19.812.812 0 0 1-.31-.762c.031-.307.192-.614.477-.917.28-.298.584-.487.912-.563.327-.078.611-.018.851.183a.81.81 0 0 1 .306.77zM5.7 338.218l-4.27 3.749.543.543 4.27-3.752zM7.06 339.622l-4.487 3.522.51.57 4.488-3.52zM7.309 342.627c.267-.15.556-.211.867-.183.313.027.548.15.71.366.145.2.207.393.18.583-.024.188-.074.325-.151.419l.501.676c.211-.237.36-.542.451-.912.094-.368-.015-.764-.327-1.182-.315-.428-.757-.666-1.324-.71-.569-.045-1.117.103-1.645.447-.538.349-.887.774-1.045 1.278-.157.5-.07.974.26 1.422.288.389.713.62 1.277.702.564.08 1.208-.13 1.93-.629l-1.684-2.277m.579 2.012a1.357 1.357 0 0 1-.808.155.939.939 0 0 1-.652-.388.84.84 0 0 1-.163-.695c.049-.244.196-.47.439-.674zM12.47 347.986c.608-.301.942-.67.998-1.1a1.88 1.88 0 0 0-.222-1.19c-.258-.454-.59-.744-.998-.869-.41-.126-.788-.115-1.133.029l.374.663c.161-.068.346-.065.554.011.205.076.384.246.533.51.15.269.19.513.114.732-.074.22-.258.4-.545.543l-.45.222c.083-.205.12-.418.113-.628a1.336 1.336 0 0 0-.179-.61c-.234-.418-.607-.676-1.117-.781-.513-.105-1.03-.025-1.559.234-.529.263-.883.614-1.067 1.06-.181.446-.155.88.083 1.3.112.198.253.36.426.49.172.128.367.221.59.277l-.325.163.367.647 3.442-1.703m-1.432-.428c-.109.263-.34.482-.697.657-.35.174-.672.227-.954.159a.97.97 0 0 1-.65-.494c-.147-.262-.17-.522-.071-.778.102-.256.33-.473.683-.647.354-.176.678-.231.97-.176.29.06.51.223.662.49a.856.856 0 0 1 .057.789zM11.874 350.19c.296-.091.593-.09.89.006.298.091.498.261.6.503.096.228.112.43.041.607a.852.852 0 0 1-.25.376l.326.763c.26-.184.481-.45.66-.79.179-.342.165-.75-.035-1.224-.208-.484-.582-.806-1.123-.97-.542-.163-1.11-.133-1.71.09-.606.227-1.049.568-1.322 1.026-.276.456-.307.935-.088 1.443.185.437.543.753 1.075.95.532.197 1.208.13 2.034-.207l-1.098-2.573m.082 2.083a1.37 1.37 0 0 1-.825-.02.89.89 0 0 1-.541-.516.828.828 0 0 1 .005-.708c.111-.23.307-.417.59-.565z" style="fill:#7b7979;fill-opacity:1;fill-rule:nonzero;stroke:none;stroke-width:.129153" transform="matrix(2.73148 0 0 -2.73148 148.934 1093.617)"/><path d="M-39.553 374.752v2.95h1.797v-.346H-39.2v-.915h1.249v-.346H-39.2v-1.343zM-35.618 377.702h.353v-1.704c0-.297-.03-.532-.09-.707a.84.84 0 0 0-.33-.426c-.158-.11-.366-.164-.623-.164-.25 0-.454.048-.613.143a.795.795 0 0 0-.34.414c-.07.18-.103.427-.103.74v1.704h.353V376c0-.256.021-.445.064-.566a.526.526 0 0 1 .222-.282.715.715 0 0 1 .386-.097c.26 0 .445.064.555.195.111.13.166.38.166.75zM-34.767 374.752v2.95h.353V375.1h1.318v-.347zM-32.77 374.752v2.95h.353V375.1h1.318v-.347zM-38.317 371.104v.347h1.129v-1.092a1.982 1.982 0 0 0-.539-.343 1.463 1.463 0 0 0-1.283.07 1.178 1.178 0 0 0-.486.539 1.84 1.84 0 0 0-.164.787c0 .287.055.555.163.804.108.249.265.434.469.554.203.122.44.182.706.182.193 0 .367-.035.523-.104a.885.885 0 0 0 .367-.29c.09-.123.157-.285.203-.484l-.324-.097c-.04.15-.09.27-.15.356a.63.63 0 0 1-.254.207.849.849 0 0 1-.365.078.994.994 0 0 1-.418-.082.776.776 0 0 1-.284-.216 1.035 1.035 0 0 1-.168-.292 1.697 1.697 0 0 1-.102-.594c0-.265.04-.486.122-.663.081-.177.2-.31.357-.396.156-.086.321-.128.497-.128.152 0 .3.032.446.098.145.065.256.134.33.209v.55zM-36.855 371.387c0 .489.118.873.355 1.15.238.277.545.415.921.415.246 0 .468-.065.665-.195a1.23 1.23 0 0 0 .451-.544c.103-.233.155-.497.155-.792 0-.299-.055-.567-.163-.803a1.177 1.177 0 0 0-.463-.536 1.229 1.229 0 0 0-.647-.182c-.251 0-.476.067-.674.202a1.251 1.251 0 0 0-.448.548 1.81 1.81 0 0 0-.152.737m.365-.006c0-.356.086-.635.258-.84a.812.812 0 0 1 .649-.307c.264 0 .482.104.653.31.17.207.256.5.256.88 0 .24-.036.45-.11.629a.917.917 0 0 1-.32.417.857.857 0 0 1-1.117-.137c-.179-.19-.269-.507-.269-.952zM-34.039 370.897l.334.03a.884.884 0 0 1 .11-.364.61.61 0 0 1 .266-.229.93.93 0 0 1 .407-.087c.132 0 .25.023.353.067a.49.49 0 0 1 .227.181.455.455 0 0 1 .004.496.52.52 0 0 1-.238.174 4.02 4.02 0 0 1-.472.144 2.255 2.255 0 0 0-.512.184.757.757 0 0 0-.284.276.728.728 0 0 0-.094.368c0 .15.039.289.115.419a.746.746 0 0 0 .335.296c.146.066.308.1.487.1.196 0 .37-.035.52-.106a.765.765 0 0 0 .348-.312.971.971 0 0 0 .131-.465l-.34-.025c-.018.185-.079.325-.183.419-.105.095-.26.143-.463.143-.212 0-.366-.044-.464-.13a.406.406 0 0 1-.145-.314c0-.106.034-.193.102-.263.068-.068.244-.138.53-.21.284-.072.48-.133.587-.187a.832.832 0 0 0 .342-.3.867.867 0 0 0-.011-.862.825.825 0 0 0-.348-.324 1.112 1.112 0 0 0-.511-.116c-.242 0-.444.039-.606.116a.88.88 0 0 0-.382.351 1.055 1.055 0 0 0-.145.53zM-31.508 369.95v2.951h1.002c.176 0 .311-.009.404-.028.131-.024.24-.07.33-.137a.719.719 0 0 0 .213-.285.978.978 0 0 0 .081-.4.96.96 0 0 0-.216-.636c-.144-.173-.404-.26-.779-.26h-.682v-1.205h-.353m.353 1.552h.684c.228 0 .389.046.485.14.094.094.142.226.142.396a.57.57 0 0 1-.085.316.408.408 0 0 1-.22.175c-.06.017-.17.026-.328.026h-.678zM-27.105 369.95v.348h-1.627v1.009h1.463v.346h-1.463v.902h1.564v.346h-1.917v-2.95zM-26.707 369.95v2.951h.353v-2.603h1.318v-.348z" style="fill:#fff;fill-opacity:1;fill-rule:nonzero;stroke:none;stroke-width:.129153" transform="matrix(2.73148 0 0 -2.73148 148.934 1093.617)"/></g></svg>