<svg xmlns="http://www.w3.org/2000/svg" width="153.23724mm" height="174.88974mm" viewBox="0 0 153.23724 174.88974"><path d="m123.763 111.143-22.179 13.064c-.722.426-1.27 1.378-1.275 2.215l-.183 25.569c-.006.844.54 1.8 1.268 2.224l22.11 12.876c.73.426 1.832.424 2.561-.004l22.373-13.133c.724-.426 1.27-1.38 1.27-2.219v-25.112c0-.838-.54-1.792-1.258-2.223l-22.122-13.248c-.729-.437-1.832-.441-2.565-.01zm.608 54.458-22.108-12.877c-.199-.115-.414-.492-.412-.72l.182-25.57c.001-.235.225-.623.427-.742l22.178-13.063c.193-.113.613-.111.804.004l22.12 13.247c.2.12.422.51.422.744v25.112c0 .231-.22.615-.419.732L125.191 165.6c-.195.114-.624.116-.82.002" style="fill:#b4b3b3;fill-opacity:1;fill-rule:nonzero;stroke:none;stroke-width:.0352778" transform="matrix(3.09059 0 0 3.09059 -309.449 -342.503)"/><path d="m123.1 127.728-8.904 5.202v10.775l-5.184-3.042v-9.396c0-.737.52-1.645 1.157-2.016l13.6-7.946c.637-.372 1.675-.365 2.307.013l3.928 2.352-6.903 4.058" style="fill:#0f6cb1;fill-opacity:1;fill-rule:nonzero;stroke:none;stroke-width:.0352778" transform="matrix(3.09059 0 0 3.09059 -309.449 -342.503)"/><path d="m135.652 145.31.007-.005v-12.217l-9.35-5.6 5.081-2.987 8.303 4.974c.632.378 1.149 1.291 1.149 2.028v15.441c0 .737-.52 1.644-1.155 2.017l-4.028 2.36-.007-6.01" style="fill:#0f6cb1;fill-opacity:1;fill-rule:nonzero;stroke:none;stroke-width:.0352778" transform="matrix(3.09059 0 0 3.09059 -309.449 -342.503)"/><path d="M114.196 145.349v.01l10.678 6.269 9.36-5.487.007 6.013-8.238 4.828c-.635.374-1.674.372-2.31 0l-13.525-7.942c-.636-.372-1.156-1.28-1.156-2.017v-4.716l5.184 3.042" style="fill:#0f6cb1;fill-opacity:1;fill-rule:nonzero;stroke:none;stroke-width:.0352778" transform="matrix(3.09059 0 0 3.09059 -309.449 -342.503)"/><path d="M132.976 139.546v-3.263c0-.793-.65-1.443-1.443-1.443h-5.192v-1.567c0-.731-.598-1.33-1.328-1.33h-.075c-.731 0-1.33.599-1.33 1.33v1.567h-5.19c-.794 0-1.444.65-1.444 1.443v7.288c0 .69.564 1.254 1.254 1.254h.01c.688 0 1.252-.564 1.252-1.254v-5.342c0-.542.445-.988.989-.988h.004c.542 0 .987.446.987.988v5.342c0 .69.565 1.254 1.253 1.254h.01c.689 0 1.253-.564 1.253-1.254v-5.342a.99.99 0 0 1 .987-.988h.005a.99.99 0 0 1 .987.988v5.342c0 .69.565 1.254 1.254 1.254h.008c.69 0 1.254-.564 1.254-1.254v-5.342c0-.542.444-.988.988-.988h.005c.542 0 .987.446.987.988v5.342c0 .69.564 1.254 1.253 1.254h.01c.688 0 1.252-.564 1.252-1.254V139.546" style="fill:#0f6cb1;fill-opacity:1;fill-rule:nonzero;stroke:none;stroke-width:.0352778" transform="matrix(3.09059 0 0 3.09059 -309.449 -342.503)"/><path d="M119.881 161.381v-1.915h-.38v-.358h.8v2.273h-.42M122.515 161.385l.465-.705h-.05a.69.69 0 0 1-.52-.233.799.799 0 0 1-.1-.972.755.755 0 0 1 .288-.304.774.774 0 0 1 .404-.108c.107 0 .21.02.307.06a.84.84 0 0 1 .496.735.91.91 0 0 1-.1.404c-.04.087-.119.216-.233.388l-.492.735zm.78-1.803a.386.386 0 0 0-.29-.12.388.388 0 0 0-.295.113.436.436 0 0 0-.111.311c0 .129.037.23.109.307a.38.38 0 0 0 .29.113c.12 0 .22-.04.3-.119a.392.392 0 0 0 .116-.285c0-.13-.04-.237-.12-.32M125.573 160.611c0 .136.03.239.092.311.06.072.143.108.247.108a.35.35 0 0 0 .262-.107.366.366 0 0 0 .102-.265c0-.124-.036-.216-.107-.278-.072-.063-.176-.094-.315-.094h-.044a.615.615 0 0 0-.08.009v-.416l.073.013a.247.247 0 0 0 .04.003c.1 0 .172-.019.218-.054.046-.036.069-.093.069-.171 0-.069-.019-.12-.057-.16a.198.198 0 0 0-.146-.057c-.073 0-.126.02-.16.061-.034.042-.053.11-.055.206h-.392c.006-.206.066-.368.182-.487a.587.587 0 0 1 .437-.17c.16 0 .3.058.417.176a.571.571 0 0 1 .131.627.594.594 0 0 1-.125.183c.102.059.18.14.235.241.057.102.086.22.086.35a.774.774 0 0 1-.218.552.71.71 0 0 1-.536.232c-.23 0-.413-.07-.548-.211-.139-.146-.207-.346-.207-.601h.4M128.608 160.622a.527.527 0 0 0 .132.31c.067.071.155.106.262.106a.38.38 0 0 0 .293-.122.447.447 0 0 0 .114-.317.416.416 0 0 0-.114-.308.412.412 0 0 0-.301-.11.389.389 0 0 0-.197.046.395.395 0 0 0-.144.16l-.353-.08.218-1.2h1.103v.392h-.794l-.07.36a.512.512 0 0 1 .147-.054.674.674 0 0 1 .149-.014c.215 0 .398.08.548.238a.8.8 0 0 1 .224.573c0 .229-.08.422-.24.582a.824.824 0 0 1-.606.244.724.724 0 0 1-.545-.214c-.142-.143-.22-.34-.23-.592h.404M105.873 149.622c-.236.006-.462.261-.68.509-.181.206-.353.4-.498.403-.151.002-.187-.207-.191-.382l.055-.366c-.013-.018-.263-.012-.263-.012a1.276 1.276 0 0 0-.027.176 1.24 1.24 0 0 0-.01.091l-.021.19c.008.324.098.592.245.733a.358.358 0 0 0 .258.105c.232-.005.46-.261.682-.509.182-.205.355-.399.496-.402l.08.036c.067.063.111.199.115.346a1.07 1.07 0 0 1-.102.456l-.01.02.295-.007c.065-.191.086-.354.081-.537-.007-.33-.096-.601-.245-.743a.358.358 0 0 0-.26-.108zm-1.377.406zm.043-.221.003-.011h.002l-.005.01M105.847 145.596l-1.523.035c-.014.014-.002.542-.002.542.014.014 1.57-.021 1.57-.021a.223.223 0 0 1 .166.061c.066.063.103.172.106.305.004.136-.027.241-.089.306a.245.245 0 0 1-.18.073l-1.557.037.014.541c.014.013 1.56-.021 1.56-.021a.404.404 0 0 0 .29-.135c.155-.164.244-.464.236-.806-.006-.263-.08-.61-.27-.792a.432.432 0 0 0-.32-.124M105.53 142.184l-.006.005c-.084.046-1.246.922-1.246.922a23.678 23.678 0 0 0 .004.441v.014l2.067-.047c.013-.014.002-.5.002-.5-.014-.013-1.269.015-1.29.016l.006-.005c.083-.045 1.257-.921 1.257-.921a.526.526 0 0 0 .002-.062c0-.121-.006-.38-.006-.38-.015-.013-2.066.033-2.066.033-.013.014-.002.5-.002.5.013.013 1.256-.015 1.278-.015M105.39 139.734c.324-.006.579-.105.756-.29.19-.199.282-.485.274-.852a1.658 1.658 0 0 0-.133-.63l-.004-.01-.009.001-.276.006.005.014h-.005c.013.027.021.048.032.073.08.211.111.334.115.484.004.193-.04.334-.133.431-.118.125-.325.186-.648.193-.326.008-.536-.044-.66-.162-.095-.091-.143-.225-.146-.408a1.197 1.197 0 0 1 .114-.526.049.049 0 0 0-.013-.005h-.002c-.057-.013-.264-.007-.264-.007a1.673 1.673 0 0 0-.11.58c.017.72.42 1.123 1.106 1.108zm.622-1.765c0 .002.004.003.008.004h-.006l-.002-.004zm-1.352.098-.03.06.024-.06h.006M105.23 134.707a.811.811 0 0 0-.005.145c0 .221.009.621.009.622-.001-.014-.89.006-.89.006-.013.014-.001.543-.001.543v.013l2.066-.046c.013-.014 0-.542 0-.542-.013-.014-.914.006-.916.006a.828.828 0 0 0 .006-.152c0-.223-.01-.614-.01-.615.001.014.89-.007.89-.007.013-.014.001-.542.001-.542-.014-.013-2.065.033-2.065.033-.014.014-.002.542-.002.542.014.014.915-.007.917-.007M105.623 130.4a1.067 1.067 0 0 0-.784.24c-.212.184-.337.458-.36.795-.027.343.052.625.234.836.176.204.442.328.748.35.308.023.577-.057.779-.23.213-.184.343-.468.367-.802.024-.33-.065-.632-.251-.848-.174-.2-.427-.318-.733-.34zm-.12 1.643c-.238-.018-.788-.11-.754-.584.026-.342.33-.517.833-.48.495.037.776.255.752.584-.025.346-.321.516-.83.48M106.635 126.806c0 .02.832.87.847.885h-.007c-.08-.026-1.487-.244-1.487-.244-.012.004-.32.304-.32.304l-.01.01 1.386 1.416c.02 0 .367-.34.367-.34 0-.018-.857-.894-.857-.894 0 .014 1.504.253 1.504.253.012-.004.32-.305.32-.305 0-.019-1.377-1.425-1.377-1.425-.019 0-.366.34-.366.34M112.04 122.843c0 .027.626 1.077.643 1.104l-.008-.004c-.1-.058-1.413-.63-1.413-.63-.012.002-.381.221-.381.221l-.013.007 1.059 1.776c.019.004.435-.245.435-.245 0-.026-.644-1.105-.649-1.114h.003c.035.031 1.426.644 1.426.644.012 0 .382-.22.382-.22.004-.02-1.047-1.783-1.047-1.783-.019-.005-.436.244-.436.244M116.92 122.407l-.043-.034c-.271-.236-1.666-1.356-1.666-1.356-.016-.001-.485.278-.485.278-.006.014.386 2.184.386 2.184l.004.02.455-.271v-.003c0-.042-.089-.484-.089-.485.004.008.646-.374.647-.375 0 .012.344.313.344.313.016.002.454-.26.454-.26l-.01-.01zm-1.026-.204c-.07.027-.431.241-.475.267l-.188-.868c.002.018.655.577.674.594zm.021-.013a.103.103 0 0 0-.012-.014l.014.013zm.996.227c-.001-.002-.008.002-.016.004l.012-.007.003.002M118.809 119.344c.004-.019-.121-.23-.121-.23-.018-.005-1.56.915-1.56.915-.005.018.122.228.122.228.017.006.515-.29.55-.311l.919 1.54c.018.005.472-.266.472-.266 0-.027-.919-1.568-.92-1.57.007.01.538-.306.538-.306M120.181 118.317l-.011.007 1.057 1.774c.019.005.473-.267.473-.267.005-.018-1.045-1.78-1.045-1.78-.02-.006-.474.266-.474.266M124.887 116.717c-.226-.165-.522-.225-.854-.174-.813.128-1.012.74-.936 1.227.048.306.186.55.401.707.226.166.533.228.863.176.33-.052.602-.207.77-.438.156-.213.214-.486.166-.789a1.067 1.067 0 0 0-.41-.709zm-1.12.273a.442.442 0 0 1 .3-.175.467.467 0 0 1 .356.078c.15.111.254.326.3.622.047.298.013.537-.1.69a.436.436 0 0 1-.297.178c-.345.052-.577-.197-.656-.702-.026-.172-.05-.49.097-.691M128.141 118.699v-.008c-.002-.104-.209-1.536-.209-1.536-.007-.009-.39-.207-.39-.207l-.012-.006-.006.012-.946 1.822c.006.018.437.242.437.242.018-.006.602-1.13.607-1.14v.004c-.008.04.204 1.55.204 1.55.007.01.388.208.388.208.019-.006.966-1.826.966-1.826-.006-.018-.437-.243-.437-.243-.019.006-.588 1.102-.602 1.128M131.172 118.867c-.015 0-1.739 1.375-1.739 1.375l-.015.012.453.271c.016 0 .386-.308.386-.308 0 .01.638.391.64.391-.01.001-.113.452-.113.452.007.014.443.277.443.277a.053.053 0 0 0 .004-.014l.003.002.01-.05c.077-.342.404-2.114.404-2.114a11.36 11.36 0 0 0-.475-.295zm-.247 1.458a7.676 7.676 0 0 0-.457-.29c.027-.025.674-.579.674-.579-.012.002-.196.838-.205.876zm.027.003-.002.011a.06.06 0 0 0 .002-.011zm.269.993a.043.043 0 0 0-.012-.01l.013.007v.004M133.613 120.313l-.012-.007-.007.012-1.054 1.761c.005.02 1.328.811 1.328.811.019-.005.145-.216.145-.216-.005-.018-.873-.538-.874-.54.016 0 .932-1.531.932-1.531-.005-.018-.459-.29-.459-.29M138.444 125.194c-.103.168-.304.127-.458.033-.203-.123-.266-.281-.175-.432l.81-1.33-.462-.281c-.019.005-.823 1.324-.823 1.324-.166.272.047.672.507.952.295.18.857.38 1.09-.003l.794-1.301c-.004-.02-.456-.294-.456-.294-.019.005-.827 1.332-.827 1.332M141.698 126.762l-.001-.009a66.648 66.648 0 0 0-.104-1.544c-.006-.01-.373-.234-.373-.234l-.012-.007-.007.012-1.068 1.752c.004.019.419.273.419.273.018-.005.675-1.08.683-1.096v.005c-.008.067.098 1.56.098 1.56.006.01.373.233.373.233.019-.004 1.086-1.756 1.086-1.756-.004-.019-.417-.272-.417-.272-.02.005-.66 1.054-.677 1.083M144.66 127.599l-.009-.011-.011.008-1.686 1.168c-.004.018.296.452.296.452.019.004 1.707-1.164 1.707-1.164.003-.02-.297-.453-.297-.453M145.545 132.162c.004-.035.006-.113.006-.201 0-.16-.004-.346-.004-.346-.01-.014-1.393-.363-1.4-.365.044 0 1.374-.391 1.374-.391a.812.812 0 0 0 .004-.122c0-.167-.006-.445-.006-.445v-.02l-.02.007-2.063.802c-.008.013 0 .375 0 .375.008.013 2.105.724 2.105.724l.003-.014h.001v-.004M145.489 133.964h-2.053l-.014 1.525.26.014.014-.996.686.013-.014.84.26.014.013-.867.6.013-.013.92.26.015.015-1.49h-.015M143.444 139.28c.088-.024.419-.174.419-.174.341-.158.54-.334.624-.555.018.048.037.09.058.129.083.193.209.293.375.293.136 0 .583-.08.583-1.095v-.443l-2.067-.014h-.014v.542l.931.014v.01c-.002.262-.151.381-.57.572l-.353.16-.008.566.014-.003v.003zm1.18-1.31.617.007c0 .012-.011.491-.33.475-.05-.002-.317-.076-.286-.483zm-.21.688c.025-.04.05-.079.067-.123 0 .004.003.006.004.01a.987.987 0 0 1-.07.113zm-.747.535.006-.159v.156l-.006.003M145.046 140.979c-.232 0-.466.251-.693.494-.187.2-.364.39-.506.39-.103 0-.185-.173-.185-.386 0-.143.038-.301.111-.455l.01-.019h-.294a1.49 1.49 0 0 0-.094.536c0 .508.2.863.487.863.235 0 .467-.25.69-.493.187-.202.362-.393.507-.393.122 0 .184.13.184.386l-.064.365.014.001v.002h.043l.206.014a1.19 1.19 0 0 0 .027-.149 10.483 10.483 0 0 0 .04-.307c.001-.5-.198-.85-.482-.85zm.46.962zm-.056.237.005-.012-.003.012h-.002M143.436 143.992l-.014.543 2.066.013.015-.556h-2.067M145.229 146.686h-1.793l-.014.542 1.82.013-.014.62.26.014.015-1.809-.261-.013-.014.633M145.503 149.347c-.001 0-.007 0-.014.004v-.004l-.044.025c-.228.117-1.06.597-1.075.607h-.934l-.014.542.951.013c0 .002 1.109.656 1.109.656v-.015l.006.004v-.174l.014-.373c-.008-.012-.811-.387-.813-.388.014.007.805-.344.805-.344l.008-.552" style="fill:#605e5e;fill-opacity:1;fill-rule:nonzero;stroke:none;stroke-width:.0352778" transform="matrix(3.09059 0 0 3.09059 -309.449 -342.503)"/></svg>