<svg xmlns="http://www.w3.org/2000/svg" width="136.66751mm" height="136.6736mm" viewBox="0 0 136.66751 136.6736"><path d="M108.05 158.15c0 8.438-6.839 15.279-15.276 15.279-8.438 0-15.277-6.841-15.277-15.279 0-8.437 6.839-15.277 15.277-15.277 8.437 0 15.277 6.84 15.277 15.277zm0 0" style="fill:none;stroke:#3f3f3f;stroke-width:.264583;stroke-linecap:butt;stroke-linejoin:miter;stroke-miterlimit:4;stroke-opacity:1" transform="translate(-343.08 -633) scale(4.4346)"/><path d="M103.04 158.15c0 5.67-4.596 10.267-10.268 10.267-5.669 0-10.265-4.596-10.265-10.267 0-5.67 4.596-10.266 10.265-10.266 5.672 0 10.268 4.596 10.268 10.266zm0 0" style="fill:none;stroke:#3f3f3f;stroke-width:.264583;stroke-linecap:butt;stroke-linejoin:miter;stroke-miterlimit:4;stroke-opacity:1" transform="translate(-343.08 -633) scale(4.4346)"/><path d="M98.633 153.918c-.6.576-1.147 1.23-1.743 1.675-.206.153-.538.312-.788.412 0 1.245.206 2.39.43 3.56.246 1.299.578 2.484.666 3.852.796-.342 1.603-.89 2.423-1.046-.13-3.044-1.141-5.308-.988-8.453" style="fill:#00b3f0;fill-opacity:1;fill-rule:nonzero;stroke:none;stroke-width:.352778" transform="translate(-343.08 -633) scale(4.4346)"/><path d="M97.287 163.729s-1.443.492-2.79-.108c-.223-.098-.23-.116-.456-.226 0 0-1.762-6.384-1.427-7.558 0 0 2.334.205 3.532-.62 0 0-.214 1.357.434 4.269.471 2.112.707 4.243.707 4.243" style="fill:#0087cf;fill-opacity:1;fill-rule:nonzero;stroke:none;stroke-width:.352778" transform="translate(-343.08 -633) scale(4.4346)"/><path d="M87.775 157.771a16.235 16.235 0 0 1-.257-3.647c-.427-.163-.85-.297-1.312-.547a17.064 17.064 0 0 0 .14 5.186c.294 1.606.681 3.035.73 4.795.59-.567.897-1.108 1.404-1.47-.104-1.539-.444-2.893-.705-4.317" style="fill:#bdd72e;fill-opacity:1;fill-rule:nonzero;stroke:none;stroke-width:.352778" transform="translate(-343.08 -633) scale(4.4346)"/><path d="M89.925 161.622c-.125-1.482-.446-2.95-.689-4.403-.145-.875-.262-1.604-.311-2.339-.017-.23-.025-.46-.028-.696a20.002 20.002 0 0 0-1.257-1.587 19.24 19.24 0 0 0-.122 1.527 16.235 16.235 0 0 0 .257 3.647c.26 1.424.601 2.778.705 4.316.013.184.022.368.027.554.542-.464.985-.723 1.435-.83a4.667 4.667 0 0 0-.017-.19" style="fill:#70bd42;fill-opacity:1;fill-rule:nonzero;stroke:none;stroke-width:.352778" transform="translate(-343.08 -633) scale(4.4346)"/><path d="M94.1 163.934c-.032-1.182-.439-3.052-.807-4.622-.282-1.198-.486-2.023-.568-2.555-.17-1.079-.09-2.231-.09-2.231-.143.124-.578.405-1.001.67-.339.299-.72.744-.843 1.306-.133.606.057 1.261.567 1.946.618.83.84 1.687.658 2.548-.106.503-.34.95-.622 1.335.562.345 1.688.935 2.048 1.144.452.265.659.459.659.459" style="fill:#0063b3;fill-opacity:1;fill-rule:nonzero;stroke:none;stroke-width:.352778" transform="translate(-343.08 -633) scale(4.4346)"/><path d="M90.788 158.941c-.662-.889-.899-1.77-.708-2.624.066-.299.181-.57.323-.813-.092-.215-.325-.745-.46-.966-.168-.275-.843-1.372-.937-2.057 0 0-.262 1.477-.07 3.077.175 1.47 1.025 5.212 1.03 7.019 0 0 .468-.373.738-.582.274-.336.506-.733.596-1.173.133-.625-.035-1.243-.512-1.88" style="fill:#00ab4c;fill-opacity:1;fill-rule:nonzero;stroke:none;stroke-width:.352778" transform="translate(-343.08 -633) scale(4.4346)"/><path d="M80.26 162.546a.33.33 0 0 1 .005-.256.312.312 0 0 1 .171-.17.33.33 0 0 1 .256-.004c.08.033.137.097.173.19.033.09.034.176.004.257a.313.313 0 0 1-.184.174.32.32 0 0 1-.253-.005.316.316 0 0 1-.172-.185M105.498 162.308a.322.322 0 0 1-.172.19.302.302 0 0 1-.238.016.34.34 0 0 1-.199-.165.312.312 0 0 1-.006-.253.349.349 0 0 1 .164-.199.302.302 0 0 1 .252-.01.32.32 0 0 1 .199.422M82.263 166.16l-.01-.01-.203-.242-.636.54 1.028 1.21.206-.176s-.797-.937-.813-.958l.428-.365M82.481 165.563c.158.088.332.158.492.195.16.04.302.047.423.024a1.06 1.06 0 0 0-.045.435c.016.197.071.382.113.503l.004.01.28-.03-.006-.015a1.552 1.552 0 0 1-.109-.547c.001-.214.065-.378.189-.483l.116-.099-.01-.01-.223-.264-.117.099c-.122.103-.287.14-.492.11a1.718 1.718 0 0 1-.545-.201l-.016-.008-.062.275.008.006" style="fill:#3f3f3f;fill-opacity:1;fill-rule:nonzero;stroke:none;stroke-width:.352778" transform="translate(-343.08 -633) scale(4.4346)"/><path d="m82.094 165.294-.206.174.714.843-.391.33.215.253.39-.33.652.765.205-.173-.01-.011-1.57-1.851M86.893 167.95l-.388.573-.41-.279-.158.235.408.278-.714 1.047-.703-.478.324-.475-.271-.185-.469.688 1.235.84 1.407-2.065-.011-.007-.25-.171" style="fill:#3f3f3f;fill-opacity:1;fill-rule:nonzero;stroke:none;stroke-width:.352778" transform="translate(-343.08 -633) scale(4.4346)"/><path d="M85.509 168.548c.031.12.086.286.16.402l.005.01.259-.094-.008-.014a1.37 1.37 0 0 1-.164-.554.768.768 0 0 1 .136-.494c.022.013.431.293.431.293l.155-.226-.426-.29c.012-.02.092-.137.092-.137l-.01-.007-.264-.18-.094.137-.42-.288-.156.226.426.29a.862.862 0 0 1-.404.318h-.001a1.46 1.46 0 0 1-.631.09h-.017l.047.284h.011c.153.012.332 0 .492-.032.137-.03.25-.068.34-.113-.006.114.007.25.04.379M89.468 169.095l-.211.656-.357-.116-.087.273.356.115c-.01.027-.47 1.452-.47 1.452l.282.092.77-2.38-.012-.004-.271-.088" style="fill:#3f3f3f;fill-opacity:1;fill-rule:nonzero;stroke:none;stroke-width:.352778" transform="translate(-343.08 -633) scale(4.4346)"/><path d="M88.699 169.919c-.022-.164 0-.34.067-.55l.009-.024.348.112.087-.266-.014-.004-.99-.321-.086.267s.332.11.357.116l-.008.03a1.237 1.237 0 0 1-.248.468c-.122.143-.295.256-.543.358l-.014.006.128.24.011-.003a1.633 1.633 0 0 0 .624-.397c.013.096.043.208.087.315.058.14.121.255.18.33l.009.008.215-.133-.007-.012a1.326 1.326 0 0 1-.212-.54M89.99 169.264l-.77 2.379.295.095.77-2.379-.014-.004-.281-.09M92.7 170.368a.579.579 0 0 0-.403-.57l.007-.169h-.014l-.29-.01-.006.167a.575.575 0 0 0 .106 1.139.58.58 0 0 0 .6-.557zm-.59.28a.301.301 0 0 1 .022-.604.304.304 0 0 1 .293.314.303.303 0 0 1-.314.29" style="fill:#3f3f3f;fill-opacity:1;fill-rule:nonzero;stroke:none;stroke-width:.352778" transform="translate(-343.08 -633) scale(4.4346)"/><path d="m93.186 169.664-.051 1.36-1.174-.047-.011.256 1.164.046a8.341 8.341 0 0 0-.007.19l-1.164-.046-.028.694 1.49.058.01-.262-1.17-.047.006-.183 1.172.045.08-2.052h-.014l-.303-.012M96.503 169.088l.173.668c-.023.007-.244.065-.269.07l-.173-.668-.288.076.314 1.201c-.18.094-.61.257-.754.293 0 0-.069.015-.096.023l-.223-.853.61-.16-.072-.273-.912.24.363 1.388.36-.097c.158-.044.628-.217.79-.308l.252.964.287-.076-.386-1.475.269-.07.387 1.475.298-.078-.633-2.418-.012.003-.285.075M99.944 168.202l-.353-.598-.011.007-.26.153.738 1.255-1.012.594.135.23 1.01-.593.393.67.275-.161-.774-1.316.282-.165-.142-.242-.281.166" style="fill:#3f3f3f;fill-opacity:1;fill-rule:nonzero;stroke:none;stroke-width:.352778" transform="translate(-343.08 -633) scale(4.4346)"/><path d="M99.424 168.54a.569.569 0 0 0-.232-.214l.083-.049-.128-.219-.365.215-.086-.144-.012.007-.254.148.005.014.078.134c-.003.001-.005.004-.005.004l-.395.23.129.218.113-.065a.56.56 0 0 0 .073.306.579.579 0 0 0 .996-.586zm-.346.553a.302.302 0 1 1-.304-.52.302.302 0 0 1 .304.52M102.472 166.221c.119.133.228.26.325.385l.218-.226a11.064 11.064 0 0 0-.864-.93l-1.14 1.197.193.185.917-.962c.114.103.231.22.351.351" style="fill:#3f3f3f;fill-opacity:1;fill-rule:nonzero;stroke:none;stroke-width:.352778" transform="translate(-343.08 -633) scale(4.4346)"/><path d="m103.043 167.098-.498-.476-.21.22.498.475-.184.194-.5-.474-.206.218.498.475-.384.401.195.186 1.578-1.656-.195-.186-.592.623M80.747 159.535c.058-.13.113-.332.098-.547-.015-.207-.103-.313-.23-.303-.11.008-.175.107-.23.366-.073.346-.22.604-.536.626-.335.025-.604-.256-.638-.723a1.308 1.308 0 0 1 .065-.561l.368.081a1.09 1.09 0 0 0-.068.462c.015.198.105.286.204.28.124-.009.165-.136.232-.407.09-.376.248-.57.544-.591.309-.02.617.2.659.781.018.237-.03.484-.09.61l-.378-.074M79.243 157.027l1.055.11c.347.036.558-.086.586-.348.027-.268-.146-.429-.502-.466l-1.057-.109.049-.453 1.041.107c.625.065.877.432.819.977-.051.513-.35.81-1.006.742l-1.032-.106.047-.454M81.395 155.444l-1.845-.564.164-.536.787-.213c.25-.065.514-.11.766-.136l.003-.007a6.869 6.869 0 0 1-.754-.194l-.579-.178.123-.403 1.844.562-.145.473-.846.215c-.25.06-.53.12-.795.154l-.003.01c.27.068.525.143.8.227l.603.185-.123.405M82.806 151.847a1.451 1.451 0 0 1-.178.54c-.337.644-.886.784-1.373.53-.563-.295-.68-.917-.378-1.492.121-.23.258-.381.34-.44l.27.253a1.118 1.118 0 0 0-.274.342c-.18.344-.125.707.24.898.322.168.67.073.874-.318.073-.14.124-.303.132-.412l.347.1M81.886 149.92l.577.457.514-.65-.576-.457.281-.357 1.513 1.196-.282.357-.631-.499-.514.65.63.5-.283.355-1.512-1.194.283-.357M85.006 148.272l-.597.531.29.325.666-.592.246.275-1.01.896-1.28-1.443.975-.865.244.277-.633.562.257.288.596-.53.246.276M86.786 148.064c-.53.321-1.082.16-1.368-.315-.31-.507-.167-1.092.36-1.41.544-.33 1.092-.17 1.384.313.312.514.163 1.086-.373 1.411zm-.164-.315c.29-.177.325-.518.134-.834-.182-.299-.507-.446-.802-.269-.294.178-.319.53-.131.841.186.305.512.435.796.263h.003M88.057 147.323l-.65-1.813.527-.19.642.501c.2.163.394.349.565.536l.008-.003a6.774 6.774 0 0 1-.296-.72l-.202-.571.396-.144.65 1.814-.465.168-.677-.55a7.635 7.635 0 0 1-.599-.544l-.01.003c.108.258.199.507.297.779l.212.59-.398.144M91.586 144.47l.452-.04.11 1.184c.05.542-.189.794-.659.837-.111.01-.264.007-.366-.018l.02-.367c.07.017.163.025.26.017.205-.02.32-.126.29-.441l-.107-1.171M94.15 145.592l-.798-.044-.023.434.892.048-.021.37-1.345-.075.105-1.926 1.3.073-.02.368-.846-.047-.021.386.797.044-.02.37M95.599 144.694l-.357 1.895-.448-.086.358-1.892.447.083M96.525 144.909l.432.142-.485 1.469.815.268-.12.361-1.246-.412.604-1.828M99.882 148.596c-.097-.01-.3-.08-.523-.224-.609-.393-.701-.953-.405-1.414.345-.533.973-.594 1.517-.243.22.14.357.291.407.378l-.273.245a1.112 1.112 0 0 0-.316-.302c-.326-.212-.693-.187-.916.159-.196.304-.132.659.238.897.133.085.291.15.399.168l-.128.336M100.805 149.53c-.45-.424-.444-.998-.064-1.402.406-.432 1.005-.452 1.453-.032.461.434.456 1.005.07 1.415-.41.439-1 .448-1.456.02zm.259-.243c.248.233.586.173.84-.095.237-.255.291-.608.04-.842-.249-.236-.594-.164-.842.097-.244.26-.28.61-.04.837l.001.003M103.43 149.463l.271.365-1.243.92.51.688-.304.226-.78-1.054 1.546-1.145M104.633 151.206l.21.404-1.37.715.397.761-.337.175-.607-1.163 1.707-.892M104.881 154.66l-.252-.757-.412.138.282.846-.35.116-.426-1.276 1.826-.61.412 1.233-.348.117-.269-.802-.367.121.254.757-.35.117M104.632 157.227a2.396 2.396 0 0 1-.225-.699c-.057-.392-.001-.687.153-.905a.922.922 0 0 1 .632-.376c.612-.087 1.067.34 1.168 1.04.041.28.019.506-.017.618l-.37-.047c.035-.13.056-.283.02-.532-.056-.397-.31-.664-.694-.608-.374.054-.59.362-.53.776a.767.767 0 0 0 .07.252l.384-.055-.048-.336.347-.051.112.778-1.002.145M105.3 159.064l.026-.798-.435-.014-.03.892-.367-.013.043-1.346 1.927.062-.04 1.302-.37-.012.026-.848-.386-.01-.026.796-.368-.011" style="fill:#3f3f3f;fill-opacity:1;fill-rule:nonzero;stroke:none;stroke-width:.352778" transform="translate(-343.08 -633) scale(4.4346)"/></svg>