<svg xmlns="http://www.w3.org/2000/svg" xml:space="preserve" width="360" height="361" overflow="hidden"><defs><clipPath id="a"><path d="M460 189h360v361H460z"/></clipPath><clipPath id="b"><path d="M460 190h360v360H460z"/></clipPath><clipPath id="c"><path d="M460 190h360v360H460z"/></clipPath><clipPath id="d"><path d="M460 190h360v360H460z"/></clipPath></defs><g clip-path="url(#a)" transform="translate(-460 -189)"><g clip-path="url(#b)"><g clip-path="url(#c)"><g fill="#315496" clip-path="url(#d)"><path d="M641.757 190c-99.711-.921-181.273 79.128-181.737 178.961-.465 100.077 80.025 180.88 179.861 181.042 99.251-.107 179.228-79.794 180.088-178.335.882-100.422-79.759-180.744-178.212-181.668ZM640 545.848c-97.317-.127-175.919-78.793-175.876-175.985.042-97.192 79.231-176.494 177.286-175.732 96.687.743 174.567 79.493 174.453 175.91.005 97.067-78.881 175.937-175.863 175.807Z"/><path d="M570.827 448.821v25.394c.584.156 1.043-.048 1.519-.189l15.693-4.645c33.402-9.872 66.797-19.748 100.187-29.628 5.702-1.688 11.449-3.247 16.859-5.814 6.076-2.88 9.041-7.642 9.025-14.334-.01-6.285-.01-12.567 0-18.848l-.634-.135a15.15 15.15 0 0 1-4.452 4.778c-5.078 3.65-10.788 6.031-16.7 7.834-12.543 3.828-25.144 7.464-37.734 11.149a60803.49 60803.49 0 0 1-70.307 20.488c-4.483 1.295-8.962 2.623-13.456 3.95ZM569.683 340.655c1.858-3.087 4.701-5.044 7.738-6.777 5.11-2.896 10.573-4.972 16.193-6.615a64985.444 64985.444 0 0 1 104.548-30.509c4.693-1.37 9.381-2.745 14.013-4.102v-25.614c-.512.13-.886.21-1.253.319-39.622 11.721-79.243 23.444-118.864 35.17-5.28 1.564-10.594 3.048-15.462 5.742-4.123 2.28-6.693 5.665-7.383 10.366-.265 1.8-.21 3.621-.196 5.442.042 5.503.016 11.006.016 16.509ZM714.031 396.72v-55.409h-13.597v20.918h-19.251v-20.918h-13.467v55.342H681.3v-21.175h19.131v21.236ZM633.016 398.243c11.614 2.719 23.594-1.43 29.487-10.509l-9.663-8.71c-.414.531-.677.892-.95 1.235-4.423 5.561-12.538 7.265-18.832 3.952-6.153-3.238-9.492-10.087-8.274-17.467 1.062-6.416 4.677-10.969 10.966-12.835 6.09-1.807 11.415-.063 15.784 4.55.475.499.696 1.259 1.484 1.524l9.546-8.614c-6.106-9.424-19.644-13.65-31.505-9.926-12.527 3.94-20.947 15.79-20.421 28.744.552 13.987 9.262 24.988 22.378 28.056ZM595.889 397.572c7.167-2.212 11.428-8.229 11.752-15.941.318-7.579-3.125-12.912-10.353-16.057a35.109 35.109 0 0 0-4.67-1.657 35.721 35.721 0 0 1-5.755-2.057c-1.553-.736-3.036-1.593-4.12-2.976-1.908-2.45-.982-5.71 1.941-6.727a12.528 12.528 0 0 1 5.044-.608c4.154.306 7.924 1.744 11.603 3.982 1.699-3.451 3.339-6.806 5.086-10.366-1.03-.552-1.879-1.062-2.763-1.476-7.765-3.716-15.803-5.309-24.197-2.506-6.389 2.145-10.743 6.345-11.489 13.345-.73 6.851 1.914 12.277 7.619 16.169 2.67 1.824 5.649 2.968 8.744 3.838 2.177.611 4.353 1.235 6.305 2.427 1.199.732 2.203 1.651 2.667 3.042 1.121 3.35-1.091 6.257-5.152 6.822-4.194.581-7.964-.672-11.561-2.639-1.776-.971-3.496-2.038-5.309-3.103a5657.963 5657.963 0 0 1-5.652 10.618c.088.156.192.301.311.433 9.161 6.451 19.11 8.787 29.949 5.437Z"/><path d="M539.593 305.413c15.641-23.987 37.071-40.66 64.406-49.213 31.241-9.777 61.623-6.844 90.951 7.674.456-.127.934-.265 1.409-.398.629-.186 1.258-.382 1.888-.576 0-.205.016-.409.021-.613-38.491-19.113-77.248-20.138-115.718-.072-39.766 20.743-66.221 63.102-64.66 111.288 1.197 36.946 16.662 67.099 44.904 91.386v-3.748c-47.872-40.705-54.116-108.315-23.201-155.728ZM720.261 278.076v3.417c44.923 40.58 50.079 106.082 20.878 151.889-14.435 22.657-34.106 39.065-59.314 48.374-31.788 11.741-63.162 9.902-93.889-4.173-.55.178-1.062.356-1.593.515-.579.175-1.165.332-1.959.558 47.018 25.284 119.01 17.236 157.902-41.943 35.996-54.771 20.3-123.297-22.025-158.637ZM665.959 502.815c.335 2.774.656 5.426.982 8.104-1.17.367-2.155.587-3.265.311-.361-2.655-.714-5.243-1.078-7.895a13.903 13.903 0 0 0-3.692.483c1.303 10.003 2.58 19.822 3.865 29.673a12.17 12.17 0 0 0 3.716-.427c-.796-6.135-1.566-12.211-2.354-18.341l3.27-.422c.823 6.204 1.63 12.288 2.461 18.54 1.327-.478 2.524-.159 3.658-.778-1.29-9.909-2.575-19.774-3.873-29.758ZM562.2 254.997l-6.39-10.467-.188-.22c.148-.186.265-.096.379.029l15.033 5.251c.852-.661 1.973-1.009 2.726-1.941-3.639-5.784-7.236-11.494-10.883-17.292-1.298.77-2.522 1.354-3.552 2.334l6.331 10.292.207.472-.488-.196-14.834-5.211-2.872 1.784 10.952 17.432c1.341-.714 2.538-1.338 3.579-2.267ZM658.147 219.365l8.2 14.404 3.344.424 3.069-20.376c-1.468-.151-2.763-.592-4.247-.473-.632 4.11-1.256 8.142-1.949 12.652l-8.096-14.228c-1.128-.247-2.227-.574-3.47-.404-1.008 6.724-2.009 13.395-3.018 20.098 1.394.478 2.702.531 4.221.722.642-4.224 1.258-8.298 1.946-12.819ZM489.316 317.154l-1.195 4.091 11.914 3.498v.369l-14.759 5.973c-.266 1.163-.778 2.145-.797 3.316l19.686 5.694c.42-1.423.932-2.673 1.076-4.139l-12.352-3.597 15.346-6.225c.316-1.091.613-2.123.94-3.257ZM729.555 263.98l8.739-9.623c-.393 5.841-.754 11.15-1.113 16.459.858.833 1.553 1.672 2.618 2.185l13.732-15.211-3.186-2.867-8.709 9.617c.395-5.858.759-11.234 1.117-16.516l-2.514-2.27-13.87 15.359ZM772.407 327.571l7.309-2.103c1.486 3.05 1.401 3.653-.874 5.883-1.412 1.383-2.859 2.729-4.287 4.09.507 1.729.948 3.234 1.404 4.779 2.318-1.49 5.79-5.363 6.578-7.356.311.334.486.531.677.732 2.05 2.087 4.566 2.467 7.433 1.121a5.724 5.724 0 0 0 3.212-6.302c-.679-3.717-2.015-7.284-3.063-11.041l-19.838 5.84c.515 1.556.709 3.011 1.449 4.357Zm16.116-4.728c.653 1.752 1.261 3.451 1.466 5.24.175 1.548-.619 2.466-2.124 2.891-1.505.424-2.501-.215-3.127-1.458-.77-1.526-1.11-3.206-1.55-5.091ZM492.114 364.551c6.068.03 10.214-4.22 10.26-10.514.039-5.893-4.412-9.934-10.99-9.971-6.172-.037-10.258 4.001-10.316 10.194-.058 6.193 4.343 10.26 11.046 10.291Zm-7.075-11.074c.266-2.32 1.681-3.873 4.033-4.455 1.717-.427 3.411-.241 5.07.213 3.013.828 4.648 3.124 4.247 5.813-.467 3.117-2.551 4.688-6.83 4.646a8.957 8.957 0 0 1-3.666-.937c-2.158-1.107-3.117-2.889-2.854-5.28ZM491.235 391.257c7.698-.354 11.962-5.639 10.369-12.883-1.131-5.145-5.453-7.929-11.564-7.459-6.11.469-9.739 4.802-9.36 11.09.34 5.655 4.749 9.52 10.555 9.252Zm-6.636-10.68c.108-1.818.987-3.164 2.588-3.96a9.463 9.463 0 0 1 7.387-.566c2.244.741 3.451 2.639 3.396 5.118-.051 2.323-1.529 4.165-4.003 4.858-1.062.295-2.145.531-3.027.449-4.287-.008-6.538-2.196-6.331-5.899ZM590.771 240.264l-2.655-8.109 8.914-3.035c.948 2.748 1.859 5.371 2.798 8.121 1.492-.667 2.971-.858 4.298-1.654-2.203-6.472-4.385-12.869-6.594-19.355-1.553.409-2.949.797-4.327 1.522.858 2.575 1.686 5.07 2.564 7.698-2.598.889-5.088 1.747-7.581 2.588-.409.138-.839.215-1.383.35-.9-2.588-1.776-5.104-2.673-7.698l-4.343 1.471c2.248 6.61 4.441 13.05 6.66 19.58ZM528.051 287.988l-6.687-5.309 5.859-7.414 6.727 5.256a2210.34 2210.34 0 0 1 2.84-3.626l-16.222-12.793-2.854 3.621 6.472 5.118-5.853 7.433-6.517-5.086-2.825 3.631 16.217 12.795c.99-1.271 1.888-2.407 2.843-3.626ZM681.324 237.334c3.358 2.291 7.141 3.005 11.306 2.71l3.185-9.702-7.82-2.567c-.385 1.168-.704 2.123-1.036 3.14l4.104 1.423c-.342 1.327-.618 2.551-1.274 3.613-3.767.018-6.636-1.593-7.451-4.144-.844-2.655.573-7.244 2.96-8.556 4.284-2.352 7.361.25 10.376 2.995l2.371-2.798c-1.184-1.88-2.846-3.024-4.709-3.9-5.137-2.416-10.157-1.593-13.236 2.225a12.474 12.474 0 0 0-2.737 7.963c-.005 3.234 1.33 5.803 3.961 7.598ZM712.104 251.634a14.233 14.233 0 0 0 4.016 2.577c3.395 1.439 6.501.89 8.818-1.94 3.037-3.716 5.217-7.996 7.948-12.073l-3.852-2.445c-.531.834-1.008 1.561-1.476 2.294-1.842 2.877-3.591 5.821-5.55 8.619-1.593 2.28-3.642 2.551-5.893 1.086-2.124-1.373-2.607-3.382-1.354-5.745.531-1.019 1.197-1.983 1.813-2.962 1.656-2.642 3.323-5.277 5.043-7.996l-3.894-2.463c-2.556 4.181-5.447 8.022-7.528 12.338-1.524 3.146-.682 6.377 1.909 8.71ZM540.536 269.698c3.798.43 6.371-1.683 8.635-4.279 2.371-2.713 2.697-6.055.658-9.004-2.755-3.982-6.357-7.266-9.511-11.014l-3.4 3.026c.358.414.634.743.918 1.062 2.458 2.753 4.956 5.474 7.367 8.272 1.879 2.182 1.9 4.064.236 5.903-2.073 2.286-4.563 2.246-6.844-.223-2.758-2.986-5.439-6.041-8.229-9.139l-3.451 3.074c3.01 3.337 5.84 6.559 8.776 9.697 1.312 1.386 2.878 2.405 4.845 2.625ZM497.16 395.937c-2.766.679-4.136 2.755-4.154 6.325 0 1.657.039 3.311 0 4.967-.016.94-.356 1.749-1.349 2.057-.993.308-1.717-.122-2.36-.812a4.548 4.548 0 0 1-.902-1.752c-.704-2.171-.574-4.33.244-6.554-1.208-.266-2.312-.55-3.552-.422-1.757 3.883-.91 9.256 1.89 12.176 1.71 1.771 3.788 2.408 6.191 1.707 2.322-.679 3.52-2.299 3.891-4.648.123-1.039.164-2.087.122-3.132 0-1.267-.026-2.535.024-3.799.035-.831.409-1.492 1.301-1.699.847-.194 1.505.138 2.049.773.544.634.778 1.449 1.009 2.243.701 2.439.403 4.868-.265 7.294 1.26.297 2.555.418 3.849.361a14.698 14.698 0 0 0-1.009-11.576c-1.511-2.907-4.237-4.181-6.979-3.509ZM768.972 318.139c1.2-.515 2.297-.823 3.226-1.617l-4.046-8.717 4.553-2.108 3.902 8.264 3.241-1.593c-.674-1.465-1.263-2.764-1.858-4.059-.626-1.346-1.261-2.692-1.959-4.186l4.279-1.97 4.173 8.896c1.115-.73 2.312-.887 3.17-1.768l-5.875-12.543c-2.177.695-17.669 8.035-18.693 8.85ZM791.021 342.219c-3.076.411-4.672 2.402-5.081 6.169-.183 1.693-.095 3.419-.554 5.086-.226.818-.656 1.425-1.535 1.516-.878.09-1.497-.356-1.903-1.062a6.286 6.286 0 0 1-.605-1.524c-.688-2.718-.194-5.333.913-8.059-1.327-.22-2.469-.743-3.799-.709-1.64 3.647-1.672 7.295-.47 10.998a7.291 7.291 0 0 0 2.721 3.849c3.791 2.655 8.2.39 8.848-4.529.223-1.693.265-3.408.467-5.104.117-.959.489-1.859 1.593-2.063 1.104-.204 1.887.425 2.445 1.327.326.578.531 1.215.602 1.874a10.223 10.223 0 0 1-1.024 6.273l3.538.866c1.888-3.43 1.837-6.815.643-10.22-1.105-3.207-3.926-5.065-6.799-4.688ZM632.323 226.978h9.535l1.959 4.197h4.678l-9.891-20.382h-3.762c-3.007 6.902-5.983 13.762-8.996 20.706h4.598Zm4.473-11.327 3.379 7.547h-6.355ZM756.459 294.54l22.359-3.799-2.654-3.907-15.686 2.866c3.082-4.794 5.866-9.129 8.638-13.437l-2.772-4.067-11.985 19.227ZM513.252 307.332c4.908-1.37 8.675-7.78 7.412-12.742-1.19-.18-2.389-.557-3.642-.406-.176 5.354-1.774 8.096-5.002 8.683-2.755.505-7.013-1.914-8.117-4.611-1.134-2.758.464-5.71 4.733-8.686-.499-1.125-1.505-1.858-2.246-2.885-4.932 1.638-8.269 8.229-6.782 13.145 1.582 5.251 8.359 8.97 13.644 7.502ZM748.753 485.9l-7.996 6.254-7.133-8.983-2.92 2.315 7.08 9.052-2.907 2.238-7.125-9.007c-.961.91-2.062 1.431-2.808 2.471l6.952 8.888-4.478 3.631 1.991 2.506 21.353-16.854c-.65-.998-1.21-1.808-2.009-2.511ZM697.742 508.905a6.884 6.884 0 0 0 1.182-4.221c-.096-2.352-1.352-4.083-3.048-5.532.475-.656 1.351-.494 1.694-1.224l-1.166-2.721-6.105 2.586c-.783-.797-.722-1.885-1.521-2.573l-3.095 1.346c.015 1.081.886 1.779.756 2.862l-5.936 2.654c.473 1.099.712 2.063 1.309 2.803.706-.029 1.16-.613 1.909-.459.117 4.213 1.858 6.902 4.98 7.786 3.26.94 7.135-.478 9.041-3.307Zm-6.543.196a3.83 3.83 0 0 1-3.772-3.785c0-2.071 1.922-3.911 4.09-3.903 2.06 0 3.82 1.882 3.751 3.998-.053 2.076-1.887 3.711-4.069 3.69ZM617.702 519.18c4.334-1.911 5.173-5.41 3.825-9.66.754-.074 1.327.292 2.076-.058.093-.889.191-1.858.302-2.92l-6.48-.926c-.199-1.091.266-1.962-.039-2.844-1.11-.4-2.259-.342-3.374-.493-.393.969-.194 1.964-.757 2.853l-6.519-.743c-.117 1.195-.364 2.145-.184 3.034.627.473 1.452 0 1.859.68-2.039 3.485-2.01 6.443.077 8.901 2.131 2.508 6.081 3.554 9.214 2.176Zm-7.107-6.721a3.9 3.9 0 0 1 4.091-3.674c2.171.141 3.846 1.943 3.743 4.027a3.846 3.846 0 0 1-3.913 3.666c-2.256-.061-4.056-1.906-3.929-4.019ZM613.515 226.145c.348 2.447.797 4.879 1.208 7.342.359.026.719.026 1.078 0 1.083-.167 2.163-.369 3.472-.597-.433-2.655-.759-5.105-1.258-7.526a4.619 4.619 0 0 1 .462-3.161 539.28 539.28 0 0 0 4.539-9.557c.173-.369.68-.78.154-1.348l-4.545.772-3.716 7.791-5.968-6.214-5.208.908c-.082.17-.167.34-.265.512 2.824 2.703 5.627 5.434 8.494 8.099a4.755 4.755 0 0 1 1.553 2.979ZM795.558 399.223a777.758 777.758 0 0 0-9.689 3.777 4.248 4.248 0 0 1-2.872.213c-2.48-.677-4.994-1.229-7.646-1.859-.363 1.535-.7 2.942-1.048 4.41.519.181 1.052.323 1.593.424 5.357.531 9.482 3.043 12.415 7.558.456.622.96 1.207 1.505 1.752.82.916 1.649 1.824 2.623 2.902.451-1.835.831-3.372 1.221-4.954l-5.752-6.567 8.152-3.186c.406-1.654.796-3.23 1.186-4.813-.751-.231-1.21.157-1.688.343ZM795.197 382.35l-16.703-1.505c-.093 1.63-.53 3.048-.265 4.569l16.533 1.555-.494 6.857c1.391-.178 2.493.398 3.759.085l1.643-17.937-3.762-.369c-.244 2.27-.467 4.393-.711 6.745ZM578.042 499.717c.64 3.624 1.227 6.95 1.829 10.379l3.257-.557-1.964-11.715 5.37 2.209 1.224-2.939-5.474-2.37c.351-.977.659-1.835 1.001-2.795l-3.278-1.352c-.709.876-.68 1.944-1.434 2.535-1.887-.562-3.515-1.648-5.447-2.062-.361 1.001-1.009 1.789-1.022 2.869l5.129 2.275-9.801 6.735 1.922 2.734ZM649.955 522.509c-.566-4.319-1.118-8.553-1.691-12.943l8.608-1.163c-.143-1.035-.265-1.988-.438-3.164l-12.304 1.576c.797 6.106 1.532 12.052 2.323 17.99.12.89.767 1.307 1.683 1.19 3.868-.491 7.733-.988 11.656-1.49a7.29 7.29 0 0 0-.475-3.185ZM619.923 520.513c-4.385 0-7.642 3.103-7.608 7.234.035 4.061 3.589 7.289 8.065 7.326 4.308.035 7.669-3.132 7.664-7.225-.006-4.237-3.441-7.34-8.121-7.335Zm.25 11.303a4.074 4.074 0 1 1 .04-8.147c2.272.056 4.12 1.912 4.096 4.115a4.068 4.068 0 0 1-4.101 4.033l-.035-.001Z"/><path d="m741.229 488.528 2.921-2.347-11.471-14.531-15.373 12.124 2.01 2.524 12.413-9.747ZM534.582 481.265l9.572 7.433-3.9 5.115 2.963 2.259 3.966-5.043 8.994 6.902 1.977-2.554-21.619-16.668ZM590.168 503.871l-5.086-2.059c-.414 1.083-.998 1.898-1.088 2.97l4.887 2.15c-1.548 3.701-3.026 7.231-4.55 10.868l3.451 1.471c2.994-7.109 5.909-14.017 8.845-20.971l-3.451-1.458c-1.022 2.397-1.991 4.656-3.008 7.029ZM778.85 369.513h20.549v-4.367H778.85ZM746.655 281.251l15.633-13.506-3.018-3.494-15.662 13.517ZM540.918 477.185c.085 1.264.08 2.299.563 3.3l12.017-1.405 1.68 12.044c1.211-.069 2.31.098 3.311-.568l-2.108-15.237Z"/><path d="m538.861 487.891-2.968-2.248c-1.691 2.19-3.276 4.297-4.924 6.352-.89 1.11-.738 1.94.369 2.777 2.723 2.06 5.412 4.167 8.12 6.248 2.079 1.593 4.165 3.186 6.318 4.834l1.959-2.537-12.949-10.019ZM631.296 505.132c-1.118-.223-2.217-.531-3.481-.334-.695 5.604-1.383 11.149-2.073 16.724 1.145.341 2.34.488 3.534.432.668-1.266.204-2.699.886-3.958 1.216-.098 2.445.531 3.717.168.111-.998.209-1.914.321-2.92-1.266-.406-2.61-.117-3.836-.767.138-.932.265-1.843.43-2.921l3.83.367.377-3.103-3.636-.571c-.258-1.112.289-2.089-.069-3.117ZM692.887 515.509c.475 1.062.865 1.954 1.309 2.952l13.615-5.84 2.949 6.764 3.433-1.505-4.203-9.729ZM575.56 510.784l-3.451-1.476-3.95 9.501c5.692 2.944 11.566 4.977 17.303 7.571l1.293-2.971-13.971-5.925c.942-2.264 1.839-4.422 2.776-6.7ZM708.307 494.35l-3.562 1.51-2.532-5.707c-1.171.6-2.36.823-3.361 1.632 2.307 5.341 4.587 10.619 6.902 15.989l3.422-1.498c-1.089-2.561-2.092-4.926-3.128-7.361l3.507-1.677ZM767.048 446.697c-2.655 0-4.624 1.946-4.603 4.571a4.615 4.615 0 0 0 4.619 4.614h.013c2.517-.053 4.643-2.246 4.582-4.725a4.606 4.606 0 0 0-4.611-4.46ZM513.257 446.697c-2.705-.117-4.842 1.835-4.897 4.476a4.672 4.672 0 0 0 4.56 4.72 4.61 4.61 0 0 0 4.617-4.468 4.454 4.454 0 0 0-4.17-4.722c-.036-.003-.073-.004-.11-.006Z"/></g></g></g></g></svg>