<svg xmlns="http://www.w3.org/2000/svg" xml:space="preserve" width="900.00781" height="900" viewBox="0 0 900.0078 900.00001"><path d="M810.615 269.023 721.413 114.51 566.904 25.31H388.491L233.98 114.512l-89.206 154.51v178.414l89.206 154.511 154.51 89.205h178.414l154.509-89.205 89.202-154.511Z" style="fill:#fff;fill-opacity:1;fill-rule:nonzero;stroke:none;stroke-width:2.75215" transform="matrix(1.33333 0 0 -1.33333 -186.922 927.636)"/><path d="m516.352 2083.71-208.848 120.571-120.582 208.852v241.15l120.582 208.844 208.848 120.584h241.154l208.844-120.584 120.58-208.844v-241.15L966.35 2204.28l-208.844-120.57Zm1.636 6.1h237.885l206.01 118.94 118.937 206.016v237.884l-118.937 206.014-206.01 118.938H517.988l-206.015-118.938-118.94-206.014v-237.884l118.94-206.016Z" style="fill:#5b5b5e;fill-opacity:1;fill-rule:nonzero;stroke:none;stroke-width:3.66953" transform="translate(-186.922 -2083.71)"/><path d="M401.57 210.531h-63.505c.74 0 3.044 3.108 3.627 3.691a63.166 63.166 0 0 1 3.504 4.324c2.74 3.729 4.863 7.907 6.431 12.228 5.516 14.853 5.125 32.219-1.034 45.484-6.435 13.926-16.467 26.082-23.504 37.584-11.416 18.676-19.455 39.62-17.754 61.906 1.082 14.124 7.525 29.605 17.107 40.215h61.104c-17.295-16.43-22.4-39.513-16.238-63.27 3.363-13.146 11.87-25.448 18.393-35.45 6.872-10.549 14.014-21.285 19.157-32.805 6.223-14.03 8.174-30.079 5.185-45.235-1.403-7.304-3.894-14.512-7.411-21.04-.595-1.062-3.705-7.632-5.061-7.632" style="fill:#00a3c9;fill-opacity:1;fill-rule:nonzero;stroke:none;stroke-width:2.75215" transform="matrix(1.33333 0 0 -1.33333 -186.922 927.636)"/><path d="M436.808 270.525h105.377v173.669H403.491c-10.475-9.22-16.898-27.673-12.283-46.58 3.603-14.818 14.322-28.174 23.872-40.859 15.17-20.132 31.746-42.776 27.106-69.602-.92-5.504-2.692-11.743-5.378-16.628" style="fill:#5ac5c4;fill-opacity:1;fill-rule:nonzero;stroke:none;stroke-width:2.75215" transform="matrix(1.33333 0 0 -1.33333 -186.922 927.636)"/><path d="M200.333 444.193v-173.67h103.712c4.968 11.12 3.143 24.165-.184 32.174-10.024 24.477-26.305 37.696-35.366 59.058-8.567 20.217-9.55 38.692-2.135 65.256.415 1.527 4.519 12.082 7.285 17.182z" style="fill:#00678f;fill-opacity:1;fill-rule:nonzero;stroke:none;stroke-width:2.75215" transform="matrix(1.33333 0 0 -1.33333 -186.922 927.636)"/><path d="M755.058 444.193H668.95v-137.75c.044-.689-.126-4.035-.294-7.47-.964-21.571-6.041-25.89-11.408-28.45h97.809z" style="fill:#00a3c9;fill-opacity:1;fill-rule:nonzero;stroke:none;stroke-width:2.75215" transform="matrix(1.33333 0 0 -1.33333 -186.922 927.636)"/><path d="M565.62 415.776v-172.15l.08-2.798c.493-15.31 12.99-27.522 28.444-27.522 15.208 0 27.595 11.956 28.473 26.971l.05 3.35v172.15z" style="fill:#00678f;fill-opacity:1;fill-rule:nonzero;stroke:none;stroke-width:2.75215" transform="matrix(1.33333 0 0 -1.33333 -186.922 927.636)"/><path d="M280.958 144.695c-1.926.71-3.39.608-4.387-.328-.98-.91-1.172-2.35-.586-4.323.567-1.921 1.693-3.773 3.369-5.57 1.613-1.723 3.355-2.94 5.237-3.642 1.954-.754 3.43-.68 4.404.234.999.93 1.186 2.408.57 4.41-.595 1.904-1.696 3.72-3.306 5.446-1.679 1.797-3.446 3.044-5.3 3.773m15.246-10.607c.96-4.007.328-7.056-1.904-9.137-2.21-2.059-5.282-2.477-9.214-1.25-3.66 1.154-6.99 3.33-9.985 6.545-3.113 3.327-5.136 6.878-6.058 10.634-.955 3.966-.322 6.98 1.916 9.066 2.251 2.108 5.317 2.548 9.206 1.324 3.663-1.2 7.056-3.47 10.169-6.8 2.997-3.204 4.948-6.666 5.87-10.382m14.776 23.9c-1.684-1.569-1.863-3.99-.53-7.271 1.221-2.918 4.304-7.22 7.818-11.361l-4.84-3.074c-3.053 3.36-5.563 6.734-7.528 10.12-2.29 3.97-3.338 7.207-3.14 9.703-2.521-.008-5.692 1.275-9.5 3.831-3.295 2.196-6.474 4.913-9.55 8.158l3.37 4.585c3.84-3.732 7.93-7.062 10.836-8.469 3.173-1.55 5.592-1.55 7.246 0zm-24.65-11.744 2.994 2.802-13.208 14.14 4.087 3.812 31.892-34.148-4.084-3.812-13.243 14.179-2.995-2.796zM361.817 120.995l6.534-3.91-9.434-15.757-6.54 3.911zM348.31 98.447l-27.092 16.227 2.972 4.959 33.626-20.14-7.024-11.727-27.097 16.224-1.44-2.414 27.093-16.224-2.94-4.91-30.433 18.222c-1.076.647-1.745 1.33-1.987 2.037-.256.834-.033 1.838.666 3.003l5.232 8.743 27.09-16.227zm-1.64 31.622c-1.665-2.782-2.378-5.336-2.136-7.667.344-2.929 2.573-7.098 5.97-9.696l-3.556-3.927c-2.838 1.846-5.059 3.993-6.68 6.401-1.654 2.425-1.995 5.733-2.089 8.163-2.226-1.046-5.573-2.07-8.768-1.665-2.95.407-5.656 1.14-8.317 2.581l1.764 4.935c3.883-1.715 8.565-1.682 11.226-.592 2.108.848 4.015 2.711 5.733 5.573zM408.7 81.049l-7.184-21.808-7.09 2.336 13.431 40.768 7.09-2.337-4.382-13.3 5.73-1.889-1.863-5.658zm-15.44 26.101c-2.813-8.532-3.955-15.013-3.446-19.425.465-3.908 2.373-6.726 5.741-8.46l-3.05-6.024c-3.2 1.459-4.736 3.08-6.618 5.44-2.064 2.588-2.642 6.248-2.978 9.402-2.171-2.298-5.094-4.684-8.386-5.658-2.903-.859-4.995-1.184-8.138-.573l1.093 6.608c3.724-.561 6.946.6 9.68 3.484 3.104 3.223 6.062 9.09 8.864 17.598zM461.106 93.77l7.425-.46-2.642-42.68-7.42.462zm-24.995-8.026c-1.288-1.61-2.006-3.613-2.155-6.005-.146-2.364.322-4.4 1.406-6.115 1.206-1.902 2.967-2.915 5.268-3.055 2.268-.146 4.136.652 5.603 2.386 1.324 1.563 2.062 3.525 2.205 5.884.151 2.4-.339 4.475-1.45 6.23-1.247 1.933-3.003 2.965-5.265 3.105-2.271.146-4.14-.668-5.612-2.43m16.741 3.339c2.296-2.99 3.322-6.567 3.066-10.704-.253-4.07-1.706-7.45-4.354-10.139-2.953-2.98-6.729-4.32-11.328-4.037-4.673.29-8.264 2.089-10.785 5.405-2.268 2.99-3.273 6.526-3.022 10.593.253 4.145 1.692 7.563 4.307 10.252 2.914 3.014 6.707 4.379 11.38 4.093 4.599-.287 8.177-2.109 10.736-5.463M518.605 84.664l-2.204 11.451 7.178 1.38 7.948-41.291-7.18-1.382-4.64 24.112-9.534-1.83-1.101 5.721zM493.558 65.96l11.35 2.183-1.624 8.438-11.35-2.183zm19.92 1.453c.253-1.31-.842-2.452-1.293-3.05-.388-.544-1.239-.965-2.554-1.251l-18.687-3.597c-1.156-.22-2.045-.15-2.678.198-.683.443-1.148 1.299-1.398 2.584l-5.218 27.125 7.128 1.37 2.1-10.898 11.35 2.183-2.095 10.9 8.127 1.57zM574.748 94.74l-2.821-1.038 8.226-22.336-6.421-2.367-14.531 39.452 6.42 2.37 4.258-11.557 2.818 1.038-4.257 11.559 6.586 2.424 14.534-39.457-6.586-2.43zm-22.623-15.845 12.5 4.61 2.015-5.476-16.095-5.929c-1.142-.418-2.05-.509-2.73-.256-.746.32-1.343 1.096-1.794 2.315l-9.548 25.922 19.411 7.153 2.015-5.476-12.5-4.602zM626.532 129.95l4.855-7.108-6.036-4.12-11.666 17.093 6.035 4.118 3.523-5.163 4.882 3.33 3.289-4.822zm-27.23-13.848c-.344-1.214-.182-2.307.484-3.286.63-.928 1.575-1.445 2.83-1.57 1.244-.167 2.438.141 3.58.917 1.084.743 1.792 1.734 2.111 2.967.347 1.22.204 2.29-.427 3.215-.668.971-1.632 1.527-2.887 1.64-1.233.107-2.397-.22-3.484-.96-1.14-.782-1.877-1.754-2.207-2.923m44.125-10.896-6.035-4.12-6.974 10.219-25.281-17.262-3.29 4.82 31.317 21.38zm-33.337 19.733c.754-.24 1.415-.562 1.976-.969a5.748 5.748 0 0 0 1.649-1.585c1.615-2.361 1.926-5.026.944-7.995-.914-2.777-2.68-5.056-5.306-6.853-2.653-1.81-5.452-2.648-8.391-2.504-3.157.143-5.54 1.395-7.156 3.759a6.824 6.824 0 0 0-.933 2.015 8.174 8.174 0 0 0-.165 2.26l-2.485-1.693-3.077 4.502 8.05 5.504-2.05 3.008 6.42 4.38 2.053-3.006 7.921 5.405 3.074-4.505zM673.376 145.418l-18.131 17.57-19.645-20.273-4.189 4.054 24.728 25.524 22.323-21.624zm-9.456-13.987 3.225 3.325-12.558 12.165 5.053 5.21 12.553-12.16 10.13 10.453 4.189-4.057-28.284-29.194-4.191 4.05 4.832 4.99-12.555 12.17 5.05 5.213zM232.825 508.29l-.035-.052 7.863-4.962-2.956-4.693-17.427 10.998 2.964 4.69 7.062-4.456.03.05-4.667 8.25 3.275 5.194 5.012-10.145 12.646-.476-3.449-5.468zM246.763 522.089c1.308-.234 2.293.107 2.967 1.029l.02.025c.674.919.704 1.962.085 3.134-.614 1.176-1.764 2.381-3.446 3.611-1.662 1.222-3.154 1.957-4.467 2.2-1.307.241-2.303-.1-2.977-1.02-.677-.918-.708-1.97-.097-3.153.611-1.178 1.759-2.386 3.438-3.616 1.679-1.236 3.173-1.97 4.477-2.21m-11.226 1.117c-.798 1.222-1.293 2.438-1.477 3.647a8.149 8.149 0 0 0 .2 3.498 9.683 9.683 0 0 0 1.514 3.08 9.636 9.636 0 0 0 2.485 2.366 8.087 8.087 0 0 0 3.273 1.244c1.21.184 2.52.08 3.921-.316 1.407-.397 2.849-1.14 4.324-2.219 1.475-1.084 2.615-2.237 3.413-3.456.8-1.22 1.296-2.441 1.478-3.644.184-1.214.12-2.378-.201-3.498a9.661 9.661 0 0 0-1.511-3.083 9.726 9.726 0 0 0-2.485-2.366 8.099 8.099 0 0 0-3.275-1.244c-1.211-.185-2.519-.08-3.922.319-1.407.393-2.849 1.137-4.321 2.215-1.478 1.085-2.615 2.238-3.416 3.457M255.657 544.197c.399.465.583 1.005.561 1.618-.024.614-.28 1.129-.776 1.547-.57.485-1.145.716-1.73.7-.584-.023-1.135-.331-1.641-.931l-.996-1.17 3.533-3zm5.504-3.046c-.828.39-1.478.536-1.951.434-.473-.101-.889-.36-1.244-.778l-.193-.226 6.14-5.221-3.591-4.227-15.701 13.342 5.334 6.275c1.376 1.618 2.774 2.557 4.188 2.81 1.418.253 2.838-.226 4.263-1.434.556-.47.972-.971 1.242-1.5a4.114 4.114 0 0 0 .465-1.596 4.842 4.842 0 0 0-.135-1.55 6.85 6.85 0 0 0-.534-1.422l.066-.06c.6.368 1.216.55 1.85.539.638-.011 1.587-.309 2.85-.892l6.105-2.75-3.707-4.362zM257.579 559.41l8.77 9.095 2.929-2.83-4.995-5.181 2.848-2.747 4.75 4.932 2.934-2.83-4.755-4.929 3.187-3.074 5.267 5.463 2.934-2.826-9.033-9.371zM278.69 574.347l-.044-.039 3.803-7.472 3.014 2.744zm10.2-7.001-4.476-4.07 1.954-4.124-3.93-3.577-8.795 19.848 4.521 4.112 18.707-10.833-4.239-3.853zM302.185 579.295c.556.072 1.272.264 2.139.567a8.682 8.682 0 0 1 2.336 1.233c.807.6 1.266 1.192 1.387 1.775.119.578-.03 1.145-.443 1.695-.377.507-.795.76-1.257.774-.463.008-1.184-.119-2.166-.383l-1.253-.347c-1.695-.46-3.093-.511-4.186-.145-1.092.36-2.091 1.147-3 2.358-1.144 1.53-1.483 3.143-1.02 4.838.462 1.699 1.582 3.215 3.363 4.55.74.55 1.502 1.046 2.281 1.483.779.435 1.572.757 2.373.966l2.237-3.38c-.611-.11-1.282-.313-2.02-.608a8.663 8.663 0 0 1-2.004-1.112c-.66-.495-1.081-1.018-1.263-1.568-.176-.55-.077-1.076.3-1.583.306-.407.688-.647 1.14-.715.46-.064 1.177.016 2.168.24l2.656.585c1.161.256 2.23.25 3.204-.019.974-.267 1.88-.96 2.713-2.078 1.324-1.764 1.753-3.55 1.296-5.35-.456-1.805-1.678-3.451-3.663-4.935a16.52 16.52 0 0 0-2.402-1.522 34.703 34.703 0 0 0-2.359-1.084.389.389 0 0 1-.11-.044zM320.63 593.032c1.135-.686 2.18-.716 3.138-.097l.025.017c.958.616 1.36 1.585 1.2 2.9-.16 1.316-.806 2.852-1.938 4.602-1.122 1.731-2.254 2.948-3.393 3.641-1.14.691-2.188.727-3.146.108-.96-.62-1.36-1.591-1.21-2.91.15-1.323.792-2.856 1.923-4.607 1.134-1.753 2.268-2.972 3.402-3.654m-10.095 5.036c-.311 1.426-.341 2.736-.085 3.936a8.044 8.044 0 0 0 1.433 3.192 9.622 9.622 0 0 0 2.508 2.342 9.67 9.67 0 0 0 3.165 1.33 8.069 8.069 0 0 0 3.5-.007c1.2-.256 2.384-.817 3.556-1.687 1.173-.872 2.254-2.075 3.25-3.613.991-1.536 1.649-3.017 1.96-4.442.314-1.429.341-2.739.085-3.938a8.097 8.097 0 0 0-1.434-3.193 9.671 9.671 0 0 0-2.507-2.342 9.79 9.79 0 0 0-3.165-1.33 8.069 8.069 0 0 0-3.5.007c-1.198.258-2.387.82-3.554 1.69-1.175.87-2.259 2.075-3.253 3.61-.993 1.536-1.648 3.022-1.96 4.445M339.044 604.212c1.079-.768 2.122-.88 3.12-.333l.028.011c1.002.548 1.475 1.484 1.415 2.805-.06 1.323-.59 2.9-1.585 4.73-.986 1.817-2.023 3.113-3.108 3.887-1.084.778-2.127.891-3.132.35-.999-.549-1.475-1.484-1.422-2.81.046-1.33.572-2.91 1.568-4.743 1-1.83 2.037-3.132 3.116-3.897m-9.685 5.782c-.204 1.448-.132 2.755.215 3.93A8.098 8.098 0 0 0 331.24 617a9.654 9.654 0 0 0 2.681 2.152 9.668 9.668 0 0 0 3.256 1.081 8.062 8.062 0 0 0 3.487-.267c1.178-.346 2.314-.999 3.418-1.954 1.104-.957 2.092-2.24 2.967-3.847.878-1.607 1.417-3.132 1.62-4.58.202-1.442.133-2.755-.214-3.932-.347-1.17-.9-2.197-1.668-3.075a9.712 9.712 0 0 0-5.939-3.23 8.013 8.013 0 0 0-3.484.27c-1.178.343-2.315.993-3.421 1.95-1.1.96-2.089 2.243-2.967 3.85-.875 1.605-1.414 3.13-1.618 4.577M353.646 621.65l-.11-.05 5.881-13.018-4.412-1.992-8.479 18.78 5.865 2.645 10.763-10.717.055.025-5.842 12.938 4.414 1.995 8.477-18.778-5.92-2.672zM378.095 629.191l7.514 2.747 3.822-10.45c-.484-.51-1.222-1.07-2.218-1.673a18.293 18.293 0 0 0-3.236-1.547c-1.497-.548-2.959-.84-4.393-.88-1.428-.045-2.771.186-4.023.693-1.253.503-2.367 1.285-3.336 2.334-.971 1.045-1.742 2.358-2.32 3.927-.54 1.478-.812 2.92-.823 4.32a9.227 9.227 0 0 0 .82 3.942c.556 1.233 1.42 2.34 2.584 3.322 1.173.985 2.648 1.8 4.418 2.45 1.128.41 2.13.684 3 .828.866.137 1.637.217 2.303.228l1.233-4.23c-.638.143-1.36.176-2.16.107a9.915 9.915 0 0 1-2.475-.578c-1.943-.71-3.19-1.808-3.748-3.289-.559-1.483-.476-3.203.237-5.16.671-1.833 1.607-3.126 2.82-3.889 1.209-.76 2.445-.913 3.705-.454.754.281 1.28.598 1.566.953l-1.338 3.66-2.633-.963zM392.117 626.67c.547-.13 1.285-.198 2.201-.22a8.864 8.864 0 0 1 2.623.336c.96.283 1.602.674 1.918 1.178.311.5.375 1.081.182 1.745-.176.6-.479.99-.91 1.161-.427.17-1.151.308-2.159.402l-1.293.113c-1.753.165-3.077.608-3.971 1.332-.898.72-1.56 1.808-1.985 3.264-.534 1.833-.289 3.462.74 4.89 1.03 1.429 2.61 2.453 4.748 3.074.884.26 1.77.457 2.653.592a9.94 9.94 0 0 0 2.562.072l.906-3.947c-.606.108-1.307.157-2.1.14a8.871 8.871 0 0 1-2.27-.338c-.793-.231-1.368-.575-1.729-1.03-.358-.453-.451-.982-.272-1.587.143-.49.412-.845.817-1.065.405-.223 1.106-.405 2.108-.537l2.695-.383c1.177-.173 2.174-.55 2.994-1.144.817-.59 1.42-1.555 1.81-2.898.623-2.111.4-3.939-.66-5.466-1.062-1.53-2.78-2.64-5.16-3.336a16.185 16.185 0 0 0-2.782-.58 33.529 33.529 0 0 0-2.59-.19.45.45 0 0 1-.121 0zM404.865 646.476l5.395 1.299 4.83-20.03-5.394-1.297zM415.34 648.943l5.449 1.06 3.129-16.112 6.66 1.294.8-4.112-12.111-2.356zM456.948 634.663c-1.668-.704-3.325-1.145-4.97-1.318-3.088-.316-5.662.344-7.712 1.993-2.05 1.648-3.256 4.21-3.614 7.695-.162 1.527-.09 2.95.207 4.268a9.335 9.335 0 0 0 1.593 3.517c.765 1.03 1.762 1.864 2.992 2.505 1.227.644 2.667 1.048 4.313 1.22 1.13.117 2.113.123 2.947.01.831-.113 1.536-.259 2.108-.438l.176-4.552c-.52.245-1.144.452-1.877.625-.729.17-1.475.218-2.24.138-1.723-.18-2.956-.85-3.707-2.015-.749-1.17-1.021-2.768-.81-4.805.19-1.816.827-3.264 1.908-4.326 1.076-1.065 2.458-1.511 4.14-1.338.864.09 1.62.295 2.267.606.65.313 1.167.63 1.547.952zM464.216 642.081l-6.727 12.858 6.311.242 3.132-7.794h.06l2.384 8.01 6.104.233-5.719-13.334.286-7.494-5.545-.212zM485.312 647.177c.768-.022 1.39.14 1.874.481.48.342.73.917.754 1.723.017.743-.167 1.31-.558 1.696-.397.385-.933.589-1.624.605l-1.417.039-.121-4.514zm.152-8.537c1.676-.047 2.531.718 2.573 2.29.022.77-.16 1.373-.545 1.819-.38.44-.936.677-1.662.693l-1.71.047-.132-4.81zm-6.33 16.945 7.785-.212c2.147-.06 3.752-.526 4.82-1.401 1.07-.878 1.582-2.092 1.54-3.644-.04-1.516-.42-2.645-1.139-3.396-.718-.746-1.67-1.255-2.862-1.52l-.003-.054c1.313-.25 2.328-.81 3.044-1.665.713-.854 1.054-1.963 1.018-3.32-.055-1.948-.69-3.382-1.918-4.301-1.228-.922-2.87-1.354-4.937-1.3l-7.907.216zM498.33 654.869l12.583-1.117-.36-4.06-7.173.641-.35-3.94 6.82-.609-.357-4.056-6.823.605-.394-4.409 7.555-.671-.36-4.057-12.966 1.15zM521.387 643.64a2.286 2.286 0 0 1 1.668.374c.512.342.814.831.91 1.473.116.737.007 1.351-.316 1.838-.324.49-.872.793-1.651.911l-1.516.231-.7-4.58zm.292-6.283c-.1.91-.314 1.538-.65 1.888-.336.352-.773.567-1.318.65l-.292.043-1.213-7.964-5.488.834 3.107 20.368 8.144-1.241c2.097-.322 3.627-1.016 4.587-2.086.964-1.076 1.302-2.532 1.021-4.382-.11-.72-.322-1.334-.627-1.846a4.057 4.057 0 0 0-1.112-1.233 5.035 5.035 0 0 0-1.39-.7 7.042 7.042 0 0 0-1.494-.294l-.014-.088c.63-.316 1.104-.746 1.434-1.29.322-.551.567-1.512.737-2.89l.867-6.644-5.66.864zM546.003 634.228c-.314-1.241-.369-2.218-.168-2.928.21-.713.73-1.176 1.566-1.39.875-.223 1.569-.058 2.078.49.504.553.908 1.43 1.216 2.628l3.22 12.643 5.265-1.34-3.181-12.47c-.36-1.412-.859-2.573-1.497-3.487-.639-.914-1.385-1.59-2.238-2.034a6.555 6.555 0 0 0-2.76-.729c-.985-.041-2.02.074-3.107.352-1.087.278-2.056.669-2.898 1.18a6.38 6.38 0 0 0-2.062 1.958c-.528.792-.858 1.745-.993 2.856-.13 1.11-.017 2.37.341 3.782l3.179 12.47 5.265-1.34zM566.937 635.308l-.115.039-4.511-13.557-4.59 1.533 6.508 19.545 6.102-2.03.64-15.179.056-.02 4.486 13.47 4.593-1.528-6.511-19.545-6.16 2.05zM584.958 635.652l5.163-2.036-7.563-19.164-5.163 2.037zM593.448 632.379l5.348-2.43-3.102-14.804.055-.025 9.173 12.04 5.13-2.33-14.088-16.227-5.483 2.496zM613.396 623.074l11.151-5.934-1.912-3.597-6.36 3.383-1.855-3.49 6.043-3.217-1.915-3.597-6.044 3.217-2.08-3.908 6.698-3.561-1.915-3.597-11.49 6.115zM630.268 603.75a2.288 2.288 0 0 1 1.681-.306c.603.116 1.07.452 1.415 1.002.39.636.53 1.244.424 1.82-.11.574-.499 1.07-1.173 1.48l-1.307.8-2.422-3.946zm-2.172-5.906c.262.88.306 1.544.135 1.998-.173.451-.493.823-.963 1.106l-.256.157-4.211-6.867-4.731 2.907 10.78 17.556 7.018-4.31c1.811-1.112 2.95-2.35 3.418-3.713.47-1.36.215-2.837-.762-4.43-.383-.62-.812-1.104-1.294-1.457a4.055 4.055 0 0 0-1.505-.704 5.05 5.05 0 0 0-1.555-.105c-.512.05-1.01.154-1.489.311l-.047-.074c.46-.54.73-1.118.818-1.748.085-.63-.064-1.615-.443-2.95l-1.784-6.457-4.88 3zM636.608 591.381c.24-.509.644-1.125 1.2-1.857a8.9 8.9 0 0 1 1.896-1.844c.823-.578 1.524-.829 2.113-.765.59.066 1.082.382 1.478.946.364.515.48.994.347 1.434-.138.446-.479 1.09-1.035 1.94l-.72 1.085c-.964 1.47-1.44 2.782-1.435 3.935.003 1.148.446 2.345 1.319 3.584 1.095 1.563 2.526 2.383 4.285 2.471 1.756.085 3.545-.512 5.36-1.794.76-.531 1.462-1.101 2.117-1.71a9.821 9.821 0 0 0 1.654-1.959l-2.52-3.168c-.292.543-.691 1.12-1.198 1.729a8.779 8.779 0 0 1-1.679 1.563c-.68.476-1.304.713-1.885.713-.578-.003-1.048-.262-1.412-.776-.297-.419-.401-.853-.324-1.305.08-.454.374-1.114.894-1.984l1.382-2.345c.602-1.026.927-2.042.974-3.05.047-1.01-.33-2.083-1.134-3.228-1.272-1.802-2.835-2.763-4.692-2.887-1.855-.123-3.796.526-5.824 1.957-.85.597-1.58 1.203-2.19 1.811a33.248 33.248 0 0 0-1.76 1.907.576.576 0 0 1-.08.094zM660.059 593.738l4.378-3.407-12.66-16.257-4.375 3.41zM668.056 581.97l-3.366 2.878 2.727 3.184 10.946-9.363-2.728-3.184-3.366 2.876-10.664-12.47-4.22 3.608zM675.374 563.489l4.643 13.747 4.536-4.395-3.468-7.654.041-.038 7.437 3.811 4.39-4.252-13.594-5.078-5.215-5.385-3.988 3.858zM699.513 548.481l-3.742.369 1.266 4.277 7.772-1.566 2.732-3.182-15.623-13.43-3.463 4.029zM713.345 534.591c.248.548.198 1.052-.148 1.506-.37.484-.856.663-1.456.536-.598-.123-1.286-.481-2.07-1.078-.782-.598-1.293-1.15-1.538-1.663-.24-.506-.177-1.001.195-1.489.394-.511.883-.71 1.47-.58.583.124 1.274.492 2.07 1.103.737.562 1.227 1.118 1.477 1.665m-13.78-1.904a8.542 8.542 0 0 1 .33-1.55c.16-.533.455-1.081.887-1.645.536-.705 1.128-1.173 1.772-1.415.639-.237 1.269-.308 1.885-.21a5.88 5.88 0 0 1 1.715.554 9.248 9.248 0 0 1 1.47.92l-.034.046a3.146 3.146 0 0 0-1.78.405c-.545.31-1.043.756-1.486 1.334-1.038 1.357-1.365 2.797-.975 4.31.391 1.511 1.478 2.95 3.259 4.316 1.563 1.194 3.181 1.703 4.855 1.522 1.673-.18 3.101-1.043 4.288-2.59.883-1.159 1.409-2.293 1.568-3.41a6.09 6.09 0 0 0-.374-3.204 10.144 10.144 0 0 0-1.792-2.878 19.16 19.16 0 0 0-2.796-2.585 22.57 22.57 0 0 0-3.245-2.075 12.18 12.18 0 0 0-3.605-1.216c-1.271-.218-2.535-.088-3.79.388s-2.416 1.412-3.481 2.802a12.285 12.285 0 0 0-1.36 2.188c-.344.726-.564 1.329-.655 1.805zM723.105 520.938c.281.534.26 1.038-.06 1.511-.344.504-.818.71-1.423.622-.606-.09-1.316-.41-2.127-.96-.815-.554-1.36-1.08-1.63-1.572-.272-.492-.236-.993.105-1.497.369-.54.845-.762 1.436-.669.592.094 1.302.421 2.133.986.765.52 1.286 1.048 1.566 1.58m-13.868-1.118c.033-.501.116-1.027.242-1.569.13-.54.397-1.103.796-1.692.495-.727 1.057-1.233 1.687-1.514a3.69 3.69 0 0 1 1.871-.314 5.99 5.99 0 0 1 1.745.454 9.51 9.51 0 0 1 1.52.834l-.034.05a3.15 3.15 0 0 0-1.753.503c-.528.344-.999.818-1.406 1.42-.963 1.415-1.205 2.865-.73 4.357.474 1.489 1.64 2.862 3.499 4.123 1.629 1.103 3.272 1.519 4.934 1.244 1.663-.275 3.039-1.22 4.131-2.83.82-1.205 1.277-2.37 1.374-3.495a6.098 6.098 0 0 0-.556-3.173 10.065 10.065 0 0 0-1.954-2.774 19.085 19.085 0 0 0-2.937-2.425 23.62 23.62 0 0 0-3.358-1.888 12.215 12.215 0 0 0-3.665-1.007c-1.283-.14-2.538.06-3.763.605-1.23.545-2.336 1.544-3.316 2.992-.523.765-.93 1.522-1.236 2.265-.305.749-.487 1.36-.553 1.839zM732.108 506.645l-4.021 6.71 3.492 2.094 6.614-11.041-3.95-2.364-16.802-3.086-2.942 4.913z" style="fill:#5b5b5e;fill-opacity:1;fill-rule:nonzero;stroke:none;stroke-width:2.75215" transform="matrix(1.33333 0 0 -1.33333 -186.922 927.636)"/></svg>