<svg xmlns="http://www.w3.org/2000/svg" width="177.30132mm" height="177.30222mm" viewBox="0 0 177.30132 177.30222"><path d="M188.037 160.717c-9.243 0-16.735 7.493-16.735 16.738 0 9.24 7.492 16.734 16.735 16.734 9.243 0 16.737-7.494 16.737-16.734 0-9.245-7.494-16.738-16.737-16.738z" style="fill:#1a468e;fill-opacity:1;fill-rule:nonzero;stroke:none;stroke-width:.352778" transform="matrix(5.29703 0 0 5.29703 -907.39 -851.321)"/><path d="M188.037 160.883c-9.15 0-16.57 7.419-16.57 16.572 0 9.148 7.42 16.568 16.57 16.568s16.57-7.42 16.57-16.568c0-9.153-7.42-16.572-16.57-16.572z" style="fill:#fff;fill-opacity:1;fill-rule:nonzero;stroke:none;stroke-width:.352778" transform="matrix(5.29703 0 0 5.29703 -907.39 -851.321)"/><path d="M188.037 161.366c-8.883 0-16.087 7.202-16.087 16.089 0 8.881 7.204 16.087 16.087 16.087 8.885 0 16.088-7.206 16.088-16.087 0-8.887-7.203-16.089-16.088-16.089z" style="fill:#1a468e;fill-opacity:1;fill-rule:nonzero;stroke:none;stroke-width:.352778" transform="matrix(5.29703 0 0 5.29703 -907.39 -851.321)"/><path d="M188.037 166.041c-6.302 0-11.41 5.109-11.41 11.414 0 6.303 5.108 11.41 11.41 11.41 6.304 0 11.414-5.107 11.414-11.41 0-6.305-5.11-11.414-11.414-11.414zM200.667 178.639l.058-1.058.368.022-.038.69.36.022.035-.692.362.019-.037.693.521.028.037-.69.37.02-.056 1.059-1.98-.114zM200.954 179.177l.21.308a.756.756 0 0 0-.372.511.673.673 0 0 0 .528.795.647.647 0 0 0 .514-.103.657.657 0 0 0 .289-.444.605.605 0 0 0-.02-.333.584.584 0 0 0-.213-.26l-.105.553-.347-.072.184-.957.082.015a1.005 1.005 0 0 1 .742.633.956.956 0 0 1 .028.506 1.033 1.033 0 0 1-.234.503.965.965 0 0 1-.443.29 1.06 1.06 0 0 1-.55.028 1.014 1.014 0 0 1-.624-.385 1.009 1.009 0 0 1-.192-.841c.033-.166.094-.313.183-.445.077-.11.19-.212.34-.302zM199.844 182.212l.34-1 .35.125-.224.656.339.12.222-.654.342.124-.222.655.49.178.223-.653.35.126-.34 1-1.87-.677zM199.38 183.27l.152-.332 1.469.706.22-.487.326.156-.373.822-1.793-.865zM198.817 184.304l.182-.318 1.401.84.263-.465.31.188-.443.783-1.713-1.028zM198.317 185.611a.611.611 0 0 0-.118.48c.028.177.119.328.272.454.175.138.356.185.55.143a.572.572 0 0 0 .364-.23.601.601 0 0 0 .112-.477.711.711 0 0 0-.268-.448.666.666 0 0 0-.487-.154.57.57 0 0 0-.425.232zm-.288-.237a.905.905 0 0 1 .66-.366c.278-.025.532.05.763.237.228.183.363.416.404.695a.96.96 0 0 1-.183.75.907.907 0 0 1-.676.378 1.021 1.021 0 0 1-.75-.237 1.048 1.048 0 0 1-.332-.436 1.016 1.016 0 0 1-.08-.53.977.977 0 0 1 .194-.49zM197.546 186.638l-.014.365c-.256-.024-.46.038-.616.186a.624.624 0 0 0-.203.465.76.76 0 0 0 .486.701c.11.039.22.047.333.02a.605.605 0 0 0 .304-.164.672.672 0 0 0 .169-.246c.035-.09.055-.213.058-.367l.359.033a1.422 1.422 0 0 1-.09.5 1.049 1.049 0 0 1-.255.357c-.215.205-.458.3-.725.282-.271-.02-.51-.143-.716-.376a1.138 1.138 0 0 1-.263-.488 1.05 1.05 0 0 1 .7-1.233c.153-.048.31-.06.473-.035zM194.954 188.47l-.096.36c-.151-.07-.267-.08-.349-.027a.184.184 0 0 0-.078.1.122.122 0 0 0 .01.102.17.17 0 0 0 .078.067c.043.017.162.042.356.079.178.03.29.052.33.063a.93.93 0 0 1 .25.11.667.667 0 0 1 .16.18c.084.143.108.29.074.44a.577.577 0 0 1-.272.365.588.588 0 0 1-.353.1.83.83 0 0 1-.388-.147l.156-.333c.17.104.302.125.404.06a.227.227 0 0 0 .102-.13.19.19 0 0 0-.016-.151.26.26 0 0 0-.11-.093 1.737 1.737 0 0 0-.287-.068c-.267-.042-.45-.09-.55-.139a.562.562 0 0 1-.228-.202.506.506 0 0 1-.059-.392.515.515 0 0 1 .235-.329.556.556 0 0 1 .265-.085.94.94 0 0 1 .366.07zM193.3 188.898l.286-.151.084.17c.054.11.088.209.104.3.013.091.012.194-.007.308l-.157-.037a.855.855 0 0 0 .004-.147.936.936 0 0 0-.026-.15l-.113.058-.176-.351zM191.56 189.697l.322-.127 1.218.958-.467-1.255.334-.133.708 1.91-.32.122-1.218-.953.467 1.255-.334.13-.71-1.907zM190.064 190.035l1-.246.086.372-.652.158.082.36.653-.162.082.364-.651.16.121.524.653-.16.087.371-1 .245-.46-1.986zM187.903 190.302l.349-.034.553 1.38.32-1.46.346-.027.488 2.005-.344.032-.311-1.269-.29 1.32-.313.027-.505-1.25-.096 1.306-.349.031.152-2.06zM186.542 190.552a.57.57 0 0 0-.455.154.718.718 0 0 0-.222.482.685.685 0 0 0 .176.557.57.57 0 0 0 .383.189c.17.02.32-.037.451-.155a.707.707 0 0 0 .221-.476.706.706 0 0 0-.135-.51.57.57 0 0 0-.42-.24zm.037-.38a.91.91 0 0 1 .657.38c.171.226.246.488.217.787-.025.298-.142.54-.35.73a.887.887 0 0 1-.712.241.901.901 0 0 1-.672-.382 1.118 1.118 0 0 1-.213-.778c.019-.196.078-.371.178-.525.102-.155.232-.273.393-.357a.97.97 0 0 1 .502-.096zM183.427 189.488l.339.101-.08 1.326.666-1.158.287.081-.014 1.35.601-1.179.34.097-.944 1.851-.33-.097.011-1.365-.675 1.173-.327-.096.126-2.084zM182.053 188.718l.319.161-.868 1.835-.32-.16.869-1.836zM180.63 187.87l.306.193-.667 1.126a.705.705 0 0 0-.096.22.23.23 0 0 0 .02.147c.02.046.057.086.107.118.055.035.108.05.164.047.055 0 .103-.02.141-.053a.851.851 0 0 0 .163-.222l.643-1.085.307.193-.615 1.041a1.95 1.95 0 0 1-.243.346.634.634 0 0 1-.482.16.676.676 0 0 1-.26-.1.622.622 0 0 1-.31-.613c.015-.111.083-.27.207-.48l.615-1.039zM179.562 187.023l.805.653-.228.3-.526-.427-.222.286.528.43-.226.294-.526-.43-.323.422.528.43-.232.299-.806-.654 1.228-1.603zM178.964 186.775l-.364-.021c.03-.243-.021-.45-.159-.616a.622.622 0 0 0-.45-.233.632.632 0 0 0-.48.168.704.704 0 0 0-.083.987c.08.097.169.16.266.19.097.029.207.028.329-.01l-.354-.428.269-.237.615.74-.063.06a1.001 1.001 0 0 1-.457.229.875.875 0 0 1-.484-.021.894.894 0 0 1-.403-.291 1.072 1.072 0 0 1-.24-.498c-.031-.18-.013-.36.054-.543.07-.181.175-.333.32-.46.198-.178.426-.266.68-.268a.95.95 0 0 1 .76.366c.106.13.18.268.225.423.036.131.044.286.019.463zM177.045 183.484l.178.304-.7 1.405 1.115-.693.185.313-1.696 1.057-.176-.306.696-1.4-1.112.69-.186-.316 1.696-1.054zM176.219 182.364a.576.576 0 0 0-.34-.348.67.67 0 0 0-.517.013.664.664 0 0 0-.39.855.573.573 0 0 0 .339.34.655.655 0 0 0 .511-.009.704.704 0 0 0 .378-.356.608.608 0 0 0 .019-.494zm.343-.138c.1.255.09.51-.028.774a1.053 1.053 0 0 1-.581.558c-.27.11-.532.114-.789.01a.937.937 0 0 1-.533-.546.97.97 0 0 1 .027-.791c.122-.259.314-.44.578-.549.175-.074.353-.096.532-.076a.968.968 0 0 1 .484.203c.143.11.246.249.31.417zM175.57 180.122a.587.587 0 0 0-.276-.404.662.662 0 0 0-.512-.08.657.657 0 0 0-.53.768.575.575 0 0 0 .277.397.652.652 0 0 0 .504.085.673.673 0 0 0 .434-.284c.103-.146.137-.31.103-.482zm.362-.075a.972.972 0 0 1-.16.76 1.02 1.02 0 0 1-.669.442c-.285.059-.542.016-.776-.133a.956.956 0 0 1-.433-.634.966.966 0 0 1 .16-.775c.165-.231.385-.375.661-.435.187-.04.365-.031.54.022a.996.996 0 0 1 .677.753zM175.411 178.784l-.262-.258c.132-.106.191-.209.186-.307a.161.161 0 0 0-.046-.117.118.118 0 0 0-.09-.04.15.15 0 0 0-.092.04c-.039.03-.118.127-.24.286a3.78 3.78 0 0 1-.212.27.782.782 0 0 1-.21.172.569.569 0 0 1-.229.06.534.534 0 0 1-.412-.138.6.6 0 0 1-.184-.421.623.623 0 0 1 .083-.366.832.832 0 0 1 .31-.283l.209.299c-.17.103-.25.215-.244.336a.235.235 0 0 0 .066.157c.04.039.085.059.135.058a.258.258 0 0 0 .131-.058c.043-.036.108-.112.194-.23.162-.222.29-.367.383-.434a.522.522 0 0 1 .279-.11.47.47 0 0 1 .363.134c.102.095.159.218.169.366a.575.575 0 0 1-.053.281c-.041.093-.118.193-.234.303zM202.129 175.7a.46.46 0 1 1-.921-.003.46.46 0 0 1 .92.002z" style="fill:#fff;fill-opacity:1;fill-rule:nonzero;stroke:none;stroke-width:.352778" transform="matrix(5.29703 0 0 5.29703 -907.39 -851.321)"/><path d="M191.032 186.137c-.055.016-.726.225-1.463.505-.842.319-1.32.564-1.603.753-.283-.206-.763-.456-1.616-.769a20.322 20.322 0 0 0-1.507-.49c-4.333-1.3-4.006-5.607-3.99-5.789l.003-8.09c2.118.406 4.489.052 4.594.034 1.159-.179 2.04-.432 2.493-.842.453.41 1.328.663 2.489.842.111.018 2.477.372 4.596-.033v8.037s.501 4.407-3.996 5.842zm4.462-5.842v-10.2c-2.181.588-4.998.155-4.998.155-1.547-.235-2.553-1.429-2.553-1.429s-1.006 1.194-2.555 1.43c0 0-2.817.432-4.997-.156v10.2s-.456 4.906 4.333 6.336c0 0 2.871.81 3.219 1.43.451-.58 3.216-1.43 3.216-1.43 4.967-1.582 4.335-6.336 4.335-6.336z" style="fill:#1a468e;fill-opacity:1;fill-rule:nonzero;stroke:none;stroke-width:.352778" transform="matrix(5.29703 0 0 5.29703 -907.39 -851.321)"/><path d="M192.415 176.827v-1.33l-3-.167-.298-2.803h-1.142l.256 4.132 4.184.168zM187.913 172.527h-1.169l-.297 2.803-3.006.167v1.323l4.214-.161.258-4.132zM188.231 177.053l-.261 7.223h1.16l.277-5.913 3.008-.156v-1.325l-4.184.171zM183.44 176.884v1.319l2.857.12.447 5.95 1.172.004-.26-7.227-4.215-.165zM193.142 182.425c.11 0 .202-.098.202-.224 0-.122-.093-.226-.202-.226-.115 0-.205.104-.205.226 0 .126.09.224.205.224zM192.768 176.386l.089-.964 1.551-1.234.12-.443.155.003-.073.932-1.503 1.153-.228.567-.111-.014zM192.733 178.452l.087-.967 1.557-1.23.116-.447.156.008-.072.93-1.503 1.152-.228.57-.113-.016zM192.57 180.475l.085-.967 1.555-1.23.12-.447.15.006-.072.93-1.502 1.155-.227.564-.11-.01zM192.123 182.431l.209-.948 1.698-1.017.172-.426.15.022-.188.915-1.635.947-.3.532-.106-.025zM191.45 184.054l.435-.865 1.882-.51.273-.367.14.06-.408.838-1.807.464-.418.433-.096-.053zM190.286 185.905l.673-.89 1.658-.27.348-.345.184.065-.896.918-1.37.207-.503.382-.094-.067zM193.63 176.37c.111 0 .204-.102.204-.226 0-.122-.093-.224-.205-.224-.113 0-.2.102-.2.224 0 .124.087.225.2.225zM193.63 178.261c.113 0 .204-.097.204-.224 0-.122-.091-.224-.204-.224-.112 0-.204.102-.204.224 0 .127.092.224.204.224zM193.455 180.436c.113 0 .207-.104.207-.225 0-.127-.094-.223-.207-.223-.11 0-.2.096-.2.223 0 .12.09.225.2.225zM192.306 184.38c.112 0 .203-.097.203-.221 0-.123-.09-.225-.203-.225-.113 0-.207.102-.207.225 0 .124.094.221.207.221zM182.686 182.425c-.11 0-.203-.098-.203-.224 0-.122.093-.226.203-.226.115 0 .203.104.203.226 0 .126-.088.224-.203.224zM183.058 176.386l-.09-.964-1.551-1.234-.12-.443-.154.003.072.932 1.504 1.153.226.567.112-.014zM183.091 178.452l-.086-.967-1.556-1.23-.116-.447-.156.008.073.93 1.503 1.152.227.57.111-.016zM183.255 180.475l-.084-.967-1.555-1.23-.12-.447-.152.006.074.93 1.503 1.155.226.564.108-.01zM183.703 182.431l-.208-.948-1.7-1.017-.169-.426-.153.022.189.915 1.636.947.298.532.107-.025zM184.374 184.054l-.433-.865-1.881-.51-.275-.367-.141.06.411.838 1.805.464.418.433.096-.053zM185.54 185.905l-.672-.89-1.659-.27-.347-.345-.184.065.895.918 1.371.207.502.382.094-.067zM182.197 176.37c-.112 0-.205-.102-.205-.226 0-.122.093-.224.205-.224.113 0 .2.102.2.224 0 .124-.087.225-.2.225zM182.197 178.261c-.113 0-.205-.097-.205-.224 0-.122.092-.224.205-.224.111 0 .203.102.203.224 0 .127-.092.224-.203.224zM182.37 180.436c-.114 0-.205-.104-.205-.225 0-.127.091-.223.206-.223.11 0 .2.096.2.223 0 .12-.09.225-.2.225zM183.52 184.38c-.111 0-.203-.097-.203-.221 0-.123.092-.225.202-.225.115 0 .207.102.207.225 0 .124-.092.221-.207.221zM186.963 185.866h-.693v-.183h.238v-.793l-.246.063v-.19l.461-.108v1.028h.24v.183zM187.313 185.05c0 .065.016.117.048.154.03.039.073.06.129.06.048 0 .09-.018.118-.056a.193.193 0 0 0 .047-.134.29.29 0 0 0-.048-.17.141.141 0 0 0-.124-.071.144.144 0 0 0-.124.063.263.263 0 0 0-.046.153zm-.146.6c.06.04.13.061.21.061a.245.245 0 0 0 .215-.107.514.514 0 0 0 .072-.292l-.004-.001c-.048.085-.127.127-.235.127a.295.295 0 0 1-.232-.106.384.384 0 0 1-.09-.26c0-.123.035-.22.108-.3a.365.365 0 0 1 .28-.116c.12 0 .216.05.283.148.068.099.1.234.1.407 0 .212-.041.376-.124.496a.418.418 0 0 1-.358.18.537.537 0 0 1-.225-.045v-.191zM188.214 185.286c0 .283.064.425.182.425.119 0 .177-.147.177-.438 0-.293-.056-.44-.172-.44-.123 0-.187.15-.187.453zm-.216.004c0-.204.036-.365.105-.468a.345.345 0 0 1 .308-.167c.254 0 .38.204.38.608 0 .199-.034.352-.102.46a.34.34 0 0 1-.3.164c-.26 0-.39-.201-.39-.597zM188.954 185.62a.412.412 0 0 0 .265.091.239.239 0 0 0 .155-.05c.044-.03.063-.074.063-.133 0-.124-.09-.185-.266-.185h-.1v-.176h.092c.16 0 .238-.059.238-.173 0-.108-.06-.161-.182-.161a.36.36 0 0 0-.221.08v-.19a.538.538 0 0 1 .271-.067.39.39 0 0 1 .254.078.265.265 0 0 1 .097.214c0 .157-.075.253-.224.295v.005a.276.276 0 0 1 .26.277c0 .113-.04.202-.118.266a.46.46 0 0 1-.308.096.553.553 0 0 1-.276-.062v-.206z" style="fill:#1a468e;fill-opacity:1;fill-rule:nonzero;stroke:none;stroke-width:.352778" transform="matrix(5.29703 0 0 5.29703 -907.39 -851.321)"/><path d="M174.761 175.758a.46.46 0 0 1-.92 0 .46.46 0 1 1 .92 0zM176.058 173.451a.354.354 0 0 1-.318.023.361.361 0 0 1-.222-.228.501.501 0 0 1 .014-.354.501.501 0 0 1 .227-.273.356.356 0 0 1 .318-.018c.111.042.184.117.222.228a.498.498 0 0 1-.015.353.493.493 0 0 1-.226.27zm-1.757.516.256.1.46-1.19c.013.004.184.07.194.075a.795.795 0 0 0 .027.434.632.632 0 0 0 .381.398c.188.073.375.06.555-.038a.85.85 0 0 0 .384-.458.846.846 0 0 0 .024-.597.636.636 0 0 0-.385-.4.633.633 0 0 0-.55.04.8.8 0 0 0-.307.292l-.196-.075.46-1.19-.257-.1-1.046 2.71zM174.292 171.868c-.154.112-.273.182-.366.2-.026-.01-.088-.036-.095-.037-.01-.002-.016 0-.016 0-.017 0-.04.01-.04.01a.395.395 0 0 0-.242.281c-.007.046.008.068.02.076l.013.006c.025.01.058.001.097-.009a.371.371 0 0 1 .104-.016l.009.004c.067.063.108.2.152.415.051.252.056.54-.027.884l.292-.049.009-.034c.06-.248.077-.5.05-.75a1.403 1.403 0 0 0-.136-.515l.002.002c.14-.05.29-.146.448-.288a2.2 2.2 0 0 0 .466-.59l.017-.03-.182-.233c-.17.31-.367.521-.574.673zM188.845 163.1l-.007-.898v-.069c-.002-.01-.006-.013-.006-.013-.008-.015-.023-.033-.023-.033a.362.362 0 0 0-.332-.117c-.043.011-.055.03-.058.046-.002.004-.002.007-.002.013 0 .024.02.05.04.081.02.03.04.058.05.09l.013 1.819.002.282.005.712.33-.001-.012-1.665.44-.002-.002-.249-.439.004zm-1.217.421a1.1 1.1 0 0 1-.209-.605l-.002-.266.617-.004v-.264l-1.6.012.002.263.617-.004.002.266c.001.198-.066.402-.201.608a1.553 1.553 0 0 1-.494.487l-.048.03.22.211.03-.021c.142-.098.281-.23.414-.393.105-.129.215-.294.265-.401.052.107.164.27.27.397.136.16.277.291.42.387l.03.021.216-.213-.048-.03a1.578 1.578 0 0 1-.5-.48zM196.66 167.421l1.248 1.38-.556.502.215.237.748-.676-1.462-1.617-.193.174zm2.461-.11-.492-.544.237-.214-.212-.234-.238.214-.485-.538-.19.173 1.19 1.317.19-.173zm-1.245.308a.4.4 0 0 1-.25-.14.405.405 0 0 1-.112-.26.289.289 0 0 1 .1-.238.294.294 0 0 1 .244-.076.397.397 0 0 1 .25.138c.073.08.112.17.114.264a.283.283 0 0 1-.101.234.288.288 0 0 1-.245.078zm.42-.746a.693.693 0 0 0-.436-.239.526.526 0 0 0-.439.133.529.529 0 0 0-.18.429.703.703 0 0 0 .195.455c.124.138.27.22.435.242a.535.535 0 0 0 .443-.138.54.54 0 0 0 .167-.433.666.666 0 0 0-.184-.45zM199.29 168.572l-.288-.319.648-.586c.02-.019.048-.042.05-.046.007-.007.006-.013.006-.013.008-.015.01-.038.01-.038a.366.366 0 0 0-.133-.326c-.036-.025-.06-.021-.073-.014a.034.034 0 0 0-.011.008c-.019.017-.026.048-.035.086a.38.38 0 0 1-.032.096l-1.256 1.136.221.244.41-.37.287.319.196-.177zM195.142 163.922c.003-.01 0-.015 0-.015.004-.016-.001-.04-.001-.04a.364.364 0 0 0-.229-.267c-.042-.012-.063 0-.074.01l-.008.01c-.012.022-.01.054-.006.093a.35.35 0 0 1 0 .102l-.442.773-.288-.165.385-.676c.014-.024.032-.053.033-.058.003-.008.002-.014.002-.014l-.002-.038a.357.357 0 0 0-.221-.259c-.04-.012-.062 0-.07.01a.02.02 0 0 0-.008.01c-.013.021-.01.052-.007.089a.42.42 0 0 1 0 .098l-.77 1.347-.024-.01c-.172-.074-.59-.301-.833-.44l-.196-.112.596-1.054.773.44.125-.22-1.08-.616-.86 1.504.028.015a23.71 23.71 0 0 0 1.342.72l-.083.148-.341.596.276.158.817-1.432.29.165-.344.6-.14.247-.352.617.286.163 1.392-2.44.034-.059zM177.699 166.36c-.022-.02-.045-.045-.05-.048-.008-.006-.014-.006-.014-.006-.016-.007-.039-.007-.039-.007a.364.364 0 0 0-.315.156c-.023.038-.017.061-.008.075l.007.008c.02.02.051.023.089.03.035.006.069.011.098.024l1.313 1.26c-.093.114-.296.34-.602.67-.294.318-.66.71-.847.903l-.03.033.203.195.046-.048c.156-.162.517-.547.837-.893.301-.326.497-.544.596-.665.012.01.515.494.515.494l.227-.238-2.026-1.944z" style="fill:#fff;fill-opacity:1;fill-rule:nonzero;stroke:none;stroke-width:.352778" transform="matrix(5.29703 0 0 5.29703 -907.39 -851.321)"/><path d="M177.74 167.968a.523.523 0 0 1-.157.333.52.52 0 0 1-.323.167.366.366 0 0 1-.309-.106.37.37 0 0 1-.12-.301.512.512 0 0 1 .156-.333.525.525 0 0 1 .327-.171.367.367 0 0 1 .307.107.367.367 0 0 1 .119.304zm-.409-.696a.84.84 0 0 0-.53.277.829.829 0 0 0-.252.541.594.594 0 0 0 .193.49.596.596 0 0 0 .502.17.845.845 0 0 0 .526-.27.843.843 0 0 0 .253-.541.593.593 0 0 0-.194-.493.59.59 0 0 0-.498-.174zM182.72 164.365l-.519.212a.748.748 0 0 0-.138-.318l.527-.215.13.321zm-.857.512a.533.533 0 0 1-.284.246.53.53 0 0 1-.37.02.377.377 0 0 1-.25-.231.377.377 0 0 1 .016-.336.526.526 0 0 1 .282-.247.534.534 0 0 1 .376-.022.377.377 0 0 1 .245.232.38.38 0 0 1-.015.338zm.74-1.672a.036.036 0 0 0-.01-.01c-.012-.012-.033-.023-.033-.023a.362.362 0 0 0-.351.015c-.036.025-.04.048-.038.064 0 .004 0 .007.003.013.009.022.036.04.068.06a.38.38 0 0 1 .08.064l.181.444-.641.261a.73.73 0 0 0-.1-.042.86.86 0 0 0-.604.038.851.851 0 0 0-.455.396.614.614 0 0 0-.023.541c.077.19.208.31.401.371.192.061.394.05.596-.032a.866.866 0 0 0 .456-.395.713.713 0 0 0 .056-.141l.617-.25.202.495.106.26.269.66.304-.125-1.058-2.6-.025-.064z" style="fill:#fff;fill-opacity:1;fill-rule:nonzero;stroke:none;stroke-width:.352778" transform="matrix(5.29703 0 0 5.29703 -907.39 -851.321)"/><path d="M184.68 180.305a.233.233 0 0 1-.087-.189c0-.077.029-.139.086-.189a.326.326 0 0 1 .22-.075c.088 0 .162.025.22.074a.233.233 0 0 1 .086.19c0 .077-.028.14-.087.189a.33.33 0 0 1-.22.075.33.33 0 0 1-.217-.075zm-.728-.95v.18h.834v.135a.528.528 0 0 0-.258.12.413.413 0 0 0-.154.326c0 .132.052.243.155.33.1.084.224.126.37.126a.56.56 0 0 0 .37-.126.418.418 0 0 0 .153-.33.414.414 0 0 0-.154-.326.518.518 0 0 0-.25-.119v-.137h.833v-.18h-1.899zM185.23 178.854a.708.708 0 0 1-.207-.177v-.066c-.001-.006-.005-.01-.005-.01-.004-.01-.015-.022-.015-.022a.258.258 0 0 0-.229-.08c-.03.006-.039.02-.041.03v.01c0 .016.011.034.027.055.014.02.027.04.035.06v.007c-.023.056-.097.114-.218.191-.141.091-.316.161-.546.191l.098.168.023-.004c.166-.021.324-.07.47-.145a.937.937 0 0 0 .283-.206l-.001.003a.97.97 0 0 0 .282.205c.145.073.304.123.469.144l.023.004.1-.167a1.33 1.33 0 0 1-.547-.19zM191.596 178.65v-.047c-.001-.006-.004-.009-.004-.009a.083.083 0 0 0-.015-.022.254.254 0 0 0-.225-.082c-.03.008-.04.022-.04.033l-.002.007c0 .018.013.036.029.057.013.02.025.04.033.06v1.238c-.1.008-.306.015-.614.021-.294.005-.658.01-.841.01h-.03v.19h.044c.152 0 .513-.003.833-.009.302-.006.501-.011.608-.02v.486h.224v-1.912z" style="fill:#1a468e;fill-opacity:1;fill-rule:nonzero;stroke:none;stroke-width:.352778" transform="matrix(5.29703 0 0 5.29703 -907.39 -851.321)"/><path d="M190.826 179.428a.359.359 0 0 1-.238.08.36.36 0 0 1-.234-.08.248.248 0 0 1-.094-.2.25.25 0 0 1 .092-.202.35.35 0 0 1 .236-.08c.097 0 .175.026.239.08a.244.244 0 0 1 .09.201c0 .082-.029.15-.092.201zm.149-.528a.567.567 0 0 0-.387-.13.563.563 0 0 0-.384.131.404.404 0 0 0-.15.325c0 .135.05.242.153.328.106.087.23.13.381.13.156 0 .28-.043.386-.13a.41.41 0 0 0 .15-.328.4.4 0 0 0-.15-.326z" style="fill:#1a468e;fill-opacity:1;fill-rule:nonzero;stroke:none;stroke-width:.352778" transform="matrix(5.29703 0 0 5.29703 -907.39 -851.321)"/><path d="M200.807 172.086c.025-.01.056-.02.06-.023.009-.004.011-.01.011-.01.012-.011.023-.031.023-.031a.35.35 0 0 0-.005-.335c-.024-.035-.047-.04-.061-.038-.004 0-.007.002-.011.003-.024.01-.04.034-.061.065a.409.409 0 0 1-.063.074l-.723.273.112.293.718-.271zM201.036 172.692c.026-.01.057-.02.061-.023.008-.004.01-.009.01-.009.012-.011.023-.031.023-.031a.348.348 0 0 0-.005-.335c-.024-.034-.046-.04-.061-.038a.031.031 0 0 0-.012.003c-.023.01-.04.034-.06.065a.371.371 0 0 1-.063.074l-.722.273.11.294.719-.272z" style="fill:#fff;fill-opacity:1;fill-rule:nonzero;stroke:none;stroke-width:.352778" transform="matrix(5.29703 0 0 5.29703 -907.39 -851.321)"/><path d="m201.396 170.927.678 1.795-1.6.605.137.36 1.858-.703-.814-2.155-.26.098z" style="fill:#fff;fill-opacity:1;fill-rule:nonzero;stroke:none;stroke-width:.352778" transform="matrix(5.29703 0 0 5.29703 -907.39 -851.321)"/><path d="m200.812 174.135-1.118-2.96-.293.11 1.12 2.964.291-.114z" style="fill:#fff;fill-opacity:1;fill-rule:nonzero;stroke:none;stroke-width:.352778" transform="matrix(5.29703 0 0 5.29703 -907.39 -851.321)"/></svg>