<svg xmlns="http://www.w3.org/2000/svg" xml:space="preserve" width="322.65387" height="92.523994" viewBox="0 0 322.65387 92.523994"><defs><clipPath id="a" clipPathUnits="userSpaceOnUse"><path d="M0 14400h14400V0H0Z"/></clipPath></defs><path d="M7505.275 6723.61H6910v841.89h595.275z" style="fill:none;stroke:#fff;stroke-width:.25;stroke-linecap:butt;stroke-linejoin:miter;stroke-miterlimit:4;stroke-dasharray:none;stroke-opacity:1" transform="matrix(1.33333 0 0 -1.33333 -9420.734 9638.45)"/><g clip-path="url(#a)" transform="matrix(1.33333 0 0 -1.33333 -9420.734 9638.45)"><path d="M0 0c-4.32 4.313-6.899 14.391-6.899 26.959 0 14.96 3.789 24.05 7.034 27.291 3.4 3.397 15.492 6.268 26.403 6.268 9.74 0 22.751-2.582 26.604-6.429 3.414-3.408 7.058-12.295 7.058-27.023C60.2 14.199 57.711 4.332 53.373 0c-3.694-3.691-15.485-6.584-26.835-6.584C15.352-6.584 3.694-3.691 0 0" style="fill:#fff;fill-opacity:1;fill-rule:nonzero;stroke:none" transform="translate(7073.443 7167.063)"/><path d="M0 0c-4.234 4.227-6.764 14.105-6.764 26.426 0 14.665 3.713 23.575 6.895 26.752 3.332 3.333 15.187 6.147 25.882 6.147 9.55 0 22.306-2.533 26.08-6.303 3.345-3.34 6.919-12.056 6.919-26.495 0-12.609-2.436-22.281-6.692-26.527-3.623-3.621-15.178-6.453-26.307-6.453C15.044-6.453 3.62-3.621 0 0m-1.149 54.457c-4.508-4.505-7.423-15.508-7.423-28.031 0-12.785 2.726-23.145 7.291-27.705 4.543-4.537 17.452-6.983 27.294-6.983 9.984 0 23.045 2.446 27.588 6.983 4.587 4.584 7.218 14.718 7.218 27.806 0 12.733-2.782 23.114-7.446 27.774-4.227 4.22-17.493 6.83-27.36 6.83-9.85 0-23.035-2.552-27.162-6.674" style="fill:#94c947;fill-opacity:1;fill-rule:nonzero;stroke:none" transform="translate(7074.123 7167.707)"/><path d="M0 0s-4.797-6.92-4.797-22.484C-4.797-38.05 0-44.966 0-44.966s18.03 7.017 18.03 22.482C18.03-7.02 0 0 0 0" style="fill:#94c947;fill-opacity:1;fill-rule:nonzero;stroke:none" transform="translate(7073.6 7216.597)"/><path d="M0 0s4.479-6.818 4.479-22.484C4.479-38.148.1-44.966.1-44.966s-18.23 6.916-18.23 22.482C-18.13-6.92 0 0 0 0" style="fill:#94c947;fill-opacity:1;fill-rule:nonzero;stroke:none" transform="translate(7127.072 7216.597)"/><path d="M0 0s-8.244-5.188-23.676-5.188c-15.433 0-23.481 5.29-23.481 5.29s11.469 10.429 23.63 10.429C-11.364 10.531 0 0 0 0" style="fill:#94c947;fill-opacity:1;fill-rule:nonzero;stroke:none" transform="translate(7123.811 7168.07)"/><path d="M0 0a3.778 3.778 0 0 1 3.77 3.788c0 2.089-1.687 3.79-3.77 3.79-2.082 0-3.774-1.701-3.774-3.79A3.783 3.783 0 0 1 0 0m.053-2.36c-12.018 0-23.731 10.58-23.731 10.58s7.842 5.19 23.631 5.19c15.787 0 23.525-5.292 23.525-5.292S12.072-2.36.053-2.36" style="fill:#94c947;fill-opacity:1;fill-rule:nonzero;stroke:none" transform="translate(7100.232 7212.038)"/><path d="M0 0s-.544-1.747-.587-1.889h-.874c-.001.008-.026.084-.026.084l-.117.411-.225.563-.193.431-.114.233-.046.088-.086-.047-.775-.297.246-.483.188-.46.142-.463.009-.049h-1.163v-.913h2.185v-.97h-2.208v-.877h1.913a6.206 6.206 0 0 0-1.127-1.406c-.473-.428-.927-.747-1.349-.954l-.129-.06.706-.813.078.043c.323.174.734.495 1.225.952.381.359.661.691.891 1.013v-2.592h.991v2.766c.211-.246.436-.484.695-.699.332-.281.615-.483.834-.598l.087-.045.558.83-.07.063c-.01.01-.04.037-.731.449-.392.232-.763.59-1.109 1.051h1.714v.877H-.445v.97h2.082v.902H.357c.102.249.655 1.645.655 1.645L.035.11Z" style="fill:#231f20;fill-opacity:1;fill-rule:nonzero;stroke:none" transform="translate(7099.05 7204.255)"/><path d="m0 0 .049-.652s0-.289-.002-.428H-1.87v-.867h4.738v.867H1.042v.4l.034.342.051.401-.118-.008-1.016.063Z" style="fill:#231f20;fill-opacity:1;fill-rule:nonzero;stroke:none" transform="translate(7097.542 7206.07)"/><path d="M0 0a17.342 17.342 0 0 0-2.654-.243l-1.479-.011.009-.125.058-.769.046-1.184a38.68 38.68 0 0 0-.06-2.851 13.31 13.31 0 0 0-.331-2.32 5.671 5.671 0 0 0-.454-1.252 7.474 7.474 0 0 0-.415-.737l-.076-.111.99-.426.373.764.049.094c.198.425.38.963.53 1.603.153.637.25 1.322.294 2.043l.064 1.073h1.31v-5.503h1.021v5.503H.396v.916h-3.435v2.416l.828.006c.582.003 1.39.07 2.406.2l.119.017L.1.014Z" style="fill:#231f20;fill-opacity:1;fill-rule:nonzero;stroke:none" transform="translate(7105.458 7205.765)"/><path d="M0 0h-2.659c-.008.195-.115 3.58-.12 3.785H0Zm1.036 0v3.785h2.587v.924h-6.407l-.01 2.609 2.021.024a44.83 44.83 0 0 1 4.183.256l.116.009-.151.885-.1-.01a50.878 50.878 0 0 0-4.638-.244l-2.514-.011.002-.108.015-1.615.028-1.965.112-3.244.023-.647.023-.648h-1.535v-.92h9.767V0Z" style="fill:#231f20;fill-opacity:1;fill-rule:nonzero;stroke:none" transform="translate(7100.698 7184.113)"/><path d="M0 0v-9.986h4.744V7.861h2.467V-9.916h4.769v30.794H6.016v-.698s1.195-.103 1.195-.771v-8.926H4.744v10.395h-5.937v-.698S0 20.077 0 19.409V2.834h-9.256V17.04h5.236v2.798h-11.972v-.834s1.801-.202 1.801-1.231V.865c0-.465.378-.844.843-.845z" style="fill:#231f20;fill-opacity:1;fill-rule:nonzero;stroke:none" transform="translate(7229.79 7198.65)"/><path d="M0 0s1.195-.104 1.195-.771v-18.901H6.14V.7H0Z" style="fill:#231f20;fill-opacity:1;fill-rule:nonzero;stroke:none" transform="translate(7167.695 7218.83)"/><path d="M0 0h-5.734l-.071-.685s.978-.022.994-.689c0 0 .066-.502-.146-.961l-7.991-12.685h5.227l6.127 10.536L4.943-15.02h5.228z" style="fill:#231f20;fill-opacity:1;fill-rule:evenodd;stroke:none" transform="translate(7157.878 7218.467)"/><path d="M0 0v2.797h-15.511v9.204h-5.974v-.8s.927-.041 1.051-.926V.844c0-.465.38-.844.843-.844z" style="fill:#231f20;fill-opacity:1;fill-rule:nonzero;stroke:none" transform="translate(7173.865 7188.729)"/><path d="M0 0v12.075a.846.846 0 0 1-.842.844h-22.619v-2.837h18.275V0Z" style="fill:#231f20;fill-opacity:1;fill-rule:nonzero;stroke:none" transform="translate(7206.045 7205.572)"/><path d="M0 0h11.377v-12.735h5.193V0h11.631v2.623H0Z" style="fill:#231f20;fill-opacity:1;fill-rule:nonzero;stroke:none" transform="translate(7180.566 7201.475)"/><path d="M0 0v-2.763h16.49v-9.168h5.051V0Z" style="fill:#231f20;fill-opacity:1;fill-rule:nonzero;stroke:none" transform="translate(7252.549 7200.705)"/><path d="M0 0v7.51h-6.139v-.7s1.194-.104 1.194-.772V-9.277H0v6.654h2.832V0Z" style="fill:#231f20;fill-opacity:1;fill-rule:nonzero;stroke:none" transform="translate(7274.03 7212.021)"/><path d="M0 0c0 2.319 1.539 4.205 3.434 4.205C5.33 4.205 6.865 2.319 6.865 0c0-2.324-1.535-4.204-3.431-4.204C1.539-4.204 0-2.324 0 0m11.941 0c0 1.964-1.156 3.722-2.978 4.908h3.127v2.784H6.01v2.49H-.512v-.755S.664 9.316.664 8.591v-.899h-6.105V4.908h3.343C-3.916 3.722-5.076 1.964-5.076 0c0-3.57 3.81-6.467 8.51-6.467 4.699 0 8.507 2.897 8.507 6.467" style="fill:#231f20;fill-opacity:1;fill-rule:nonzero;stroke:none" transform="translate(7253.582 7209.724)"/><path d="M0 0h-9.848v12.304h-4.531V0h-2.678v12.304h-4.531V0h-5.787v-2.695H0Z" style="fill:#231f20;fill-opacity:1;fill-rule:nonzero;stroke:none" transform="translate(7307.533 7194.514)"/><path d="M0 0v19.845a.846.846 0 0 1-.842.845h-22.254v-2.838h17.91V0Z" style="fill:#231f20;fill-opacity:1;fill-rule:nonzero;stroke:none" transform="translate(7306.047 7196.912)"/><path d="M0 0c.829-.846 1.657-1.172 2.891-1.172 1.515 0 2.487.959 2.487 2.363 0 3.014-5.236 2.957-5.236 6.606 0 2.053 1.637 3.351 3.636 3.351.346 0 .647-.076.932-.119.283-.058.547-.131.809-.131.202 0 .444.073.564.247V8.162c-.545.768-1.253 1.037-2.222 1.037-.708 0-1.457-.635-1.457-1.287 0-2.266 5.235-2.228 5.235-6.662 0-2.367-1.837-4.371-4.547-4.371-.99 0-1.778.344-2.546.344-.16 0-.424-.172-.546-.344z" style="fill:#231f20;fill-opacity:1;fill-rule:nonzero;stroke:none" transform="translate(7153.401 7171.498)"/><path d="M0 0v-5.104c0-.326.082-.537.386-.767h-2.951c.303.23.383.441.383.767V7.029c0 .326-.08.537-.383.77H.386C.082 7.566 0 7.355 0 7.029V2.076h5.106v4.953c0 .326-.082.537-.383.77H7.67c-.301-.233-.382-.444-.382-.77V-5.104c0-.326.081-.537.382-.767H4.723c.301.23.383.441.383.767V0Z" style="fill:#231f20;fill-opacity:1;fill-rule:nonzero;stroke:none" transform="translate(7165.466 7174.549)"/><path d="M0 0c0 .326-.082.537-.386.77h2.95C2.263.537 2.183.326 2.183 0v-12.133c0-.328.08-.539.381-.767h-2.95c.304.228.386.439.386.767Z" style="fill:#231f20;fill-opacity:1;fill-rule:nonzero;stroke:none" transform="translate(7176.207 7181.578)"/><path d="m0 0 8.244-9.135v7.715c0 .324-.08.535-.383.768h2.952c-.305-.233-.385-.444-.385-.768v-13.203h-.041L2.141-5.436v-8.119c0-.328.082-.537.381-.767H-.426c.305.23.382.439.382.767V0Z" style="fill:#231f20;fill-opacity:1;fill-rule:nonzero;stroke:none" transform="translate(7181.969 7183)"/><path d="M0 0v-5.563c0-.246.037-.708.303-.88-2.024-.905-3.133-1.727-5.42-1.727-4.266 0-7.668 3.182-7.668 7.133s3.402 7.133 7.668 7.133c.426 0 .933-.057 1.375-.127.445-.078.832-.172 1.012-.172a.54.54 0 0 1 .507.299V3.104c-.871.478-1.841.921-2.994.921-3.013 0-5.359-2.281-5.359-5.062 0-2.818 2.326-5.061 5.359-5.061 1.072 0 2.063.364 3.033.709v3.315h-3.474c-.348 0-.567-.076-.809-.375L-6.469.363C-6.225.076-6.006 0-5.658 0Z" style="fill:#231f20;fill-opacity:1;fill-rule:nonzero;stroke:none" transform="translate(7207.451 7176.549)"/><path d="M0 0c0-1.398.889-2.549 2.77-2.549 1.945 0 2.65 1.42 2.65 2.549v8.58c0 .324-.08.535-.383.768h2.949c-.304-.233-.384-.444-.384-.768V0c0-2.568-1.981-4.621-4.893-4.621S-2.184-2.568-2.184 0v8.58c0 .324-.078.535-.384.768H.385C.08 9.115 0 8.904 0 8.58Z" style="fill:#231f20;fill-opacity:1;fill-rule:nonzero;stroke:none" transform="translate(7211.96 7173)"/><path d="M0 0a.51.51 0 0 1-.305.242 1.563 1.563 0 0 1-.384.065C-1.598.307-2.486 0-3.213 0c-4.262 0-7.666 3.182-7.666 7.133s3.404 7.133 7.666 7.133c.848 0 2.443-.383 2.666-.383.242 0 .322.076.547.383v-2.897c-.891.459-2.205.826-3.213.826-3.01 0-5.453-2.283-5.453-5.062 0-2.819 2.422-5.061 5.453-5.061A7.05 7.05 0 0 1 0 2.857z" style="fill:#231f20;fill-opacity:1;fill-rule:nonzero;stroke:none" transform="translate(7238.02 7168.379)"/><path d="M0 0c0 3.951-3.164 7.133-7.092 7.133-3.945 0-7.09-3.182-7.09-7.133s3.145-7.133 7.09-7.133C-3.164-7.133 0-3.951 0 0m-7.092 5.063c2.705 0 4.871-2.245 4.871-5.063 0-2.818-2.166-5.061-4.871-5.061-2.703 0-4.869 2.243-4.869 5.061s2.166 5.063 4.869 5.063" style="fill:#231f20;fill-opacity:1;fill-rule:nonzero;stroke:none" transform="translate(7253.342 7175.512)"/><path d="M0 0h-8.061c.303.229.383.439.383.766V12.9c0 .327-.08.538-.383.77h2.95c-.303-.232-.385-.443-.385-.77V1.947h4.123c.523 0 1.07.039 1.373.5z" style="fill:#231f20;fill-opacity:1;fill-rule:nonzero;stroke:none" transform="translate(7262.865 7168.678)"/><path d="M0 0h-8.059c.301.229.381.439.381.766V12.9c0 .327-.08.538-.381.77h2.95c-.307-.232-.383-.443-.383-.77V1.947h4.117c.525 0 1.072.039 1.375.5z" style="fill:#231f20;fill-opacity:1;fill-rule:nonzero;stroke:none" transform="translate(7272.656 7168.678)"/><path d="M0 0c0 .326-.084.535-.385.766H8.08v-2.471c-.305.478-.828.521-1.555.521H2.182v-3.775H5.41c.428 0 .649.096.893.346v-2.823c-.244.307-.465.403-.893.403H2.182v-3.924h4.343c.727 0 1.25.039 1.555.519v-2.466H-.385c.301.228.385.437.385.765Z" style="fill:#231f20;fill-opacity:1;fill-rule:nonzero;stroke:none" transform="translate(7274.773 7181.582)"/><path d="M0 0v-5.563c0-.246.041-.708.303-.88-2.02-.905-3.133-1.727-5.416-1.727-4.268 0-7.67 3.182-7.67 7.133s3.402 7.133 7.67 7.133c.424 0 .929-.057 1.375-.127.447-.078.828-.172 1.011-.172.161 0 .381.057.502.299V3.104c-.867.478-1.838.921-2.99.921-3.014 0-5.361-2.281-5.361-5.062 0-2.818 2.328-5.061 5.361-5.061 1.072 0 2.061.364 3.031.709v3.315h-3.478c-.342 0-.563-.076-.805-.375L-6.473.363C-6.225.076-6.004 0-5.662 0Z" style="fill:#231f20;fill-opacity:1;fill-rule:nonzero;stroke:none" transform="translate(7296.973 7176.549)"/><path d="M0 0c0 .326-.078.535-.385.766h8.469v-2.471c-.305.478-.828.521-1.557.521H2.184v-3.775h3.23c.426 0 .649.096.891.346v-2.823c-.242.307-.465.403-.891.403h-3.23v-3.924h4.343c.729 0 1.252.039 1.557.519v-2.466H-.385c.307.228.385.437.385.765Z" style="fill:#231f20;fill-opacity:1;fill-rule:nonzero;stroke:none" transform="translate(7299.457 7181.582)"/></g></svg>