<svg xmlns="http://www.w3.org/2000/svg" width="149.94138mm" height="149.93901mm" viewBox="0 0 149.94138 149.93901"><path d="M129.048 154.76c-8.397-8.397-19.563-13.022-31.438-13.022-24.516 0-44.46 19.945-44.46 44.46 0 11.875 4.624 23.04 13.021 31.438 8.398 8.398 19.563 13.022 31.439 13.022 11.875 0 23.04-4.624 31.438-13.022 8.397-8.397 13.023-19.563 13.023-31.437 0-11.877-4.626-23.041-13.023-31.438M97.61 228.742c-11.364 0-22.047-4.425-30.083-12.461-8.035-8.035-12.46-18.72-12.46-30.082 0-11.365 4.425-22.048 12.46-30.083 8.036-8.036 18.719-12.46 30.083-12.46 11.363 0 22.047 4.424 30.082 12.46 8.035 8.035 12.46 18.718 12.46 30.083 0 23.458-19.084 42.543-42.542 42.543" style="fill:#ac9c66;fill-opacity:1;fill-rule:nonzero;stroke:none;stroke-width:.352778" transform="translate(-89.621 -239.002) scale(1.68622)"/><path d="M93.778 150.488h3.044v2.307h1.096v-5.955h.002c0-.116.089-.21.203-.218h.536v6.173h1.096v-7.046h-2.003a.968.968 0 0 0-.93.967v2.9H94.44a.16.16 0 0 1-.141-.16h-.001v-2.834h1.972v-.873h-3.164v4.069c.002.37.302.67.673.67M112.005 152.91c.946.453 2.062.094 2.49-.803a1.746 1.746 0 0 0-.006-1.495l.813.39.377-.787-1.403-.672.359-.75-1.076-.514-.358.75-1.403-.672-.377.787.814.39c-.5.126-.936.447-1.169.933-.428.895-.009 1.99.939 2.443m.103-1.945c.227-.475.713-.716 1.084-.538.372.178.49.707.261 1.182-.226.474-.712.716-1.083.538-.372-.178-.49-.707-.262-1.182M115.611 154.64l1.338-2.795h.001a.218.218 0 0 1 .277-.109l.992.476.376-.788-1.412-.676a.968.968 0 0 0-1.255.471l-1.392 2.907 1.075.515M113.93 155.389h.001l-.726 1.517 1.076.515.881-1.842a.673.673 0 0 0-.318-.896l-4.242-2.03-.377.787 3.647 1.745a.16.16 0 0 1 .058.204M127.196 167.316l-.325-.414 3.867-3.041a.675.675 0 0 0 .11-.944l-3.048-3.877-.686.54 2.64 3.357a.161.161 0 0 1-.038.21h.001l-3.583 2.818-.51-.648 2.556-2.01-.692-.88-2.556 2.01-.455-.58 2.556-2.01-.692-.88-2.556 2.01-.658-.836-.686.54 4.07 5.174.685-.54M78.18 151.792l.442.776-2.395 1.364 1.139 2c.183.322.595.433.917.25l3.529-2.01 1.142 2.006 1.035-.59-2.947-5.175v-.001c-.056-.1-.035-.23.07-.29l.952-.542-.432-.759-1.358.774a.969.969 0 0 0-.33 1.3l1.435 2.52-2.954 1.682c-.07.04-.16.004-.2-.068l-.53-.929 2.395-1.364-1.305-2.293-3.432 1.956.431.758 2.396-1.365M69.092 166.633v.001l-1.04-.81-.732.94 1.323 1.032a.674.674 0 0 0 .943-.119l2.986-3.832-.688-.537-2.58 3.311a.159.159 0 0 1-.212.014M65.569 166.92l.677.527c.716-.92.675-1.935.29-2.829.961.154 1.956-.054 2.673-.973l.365-.468.587.458.733-.94-3.956-3.083-.733.94 2.692 2.098-.285.365c-.654.84-2.04.846-3.518-.305l-.353-.279-.733.94-.031.04.357.276c1.478 1.15 1.874 2.413 1.235 3.233M133.686 181.071a.94.94 0 1 0 .068-1.877.94.94 0 0 0-.068 1.877M61.16 181.071a.94.94 0 0 0 .679-1.752.94.94 0 0 0-.68 1.752M129.948 200.184l-1.046-.558-2.465 4.618 1.047.558.88-1.649 4.136 2.21.705-1.322-4.136-2.208.88-1.649M65.966 206.379l2.985-1.825-.782-1.277-3.391 2.073c-1.161.71-1.141 1.778-.507 2.815l1.075 1.759 1.007-.616-.816-1.336c-.516-.842-.387-1.094.429-1.593M69.134 212.509c-.636-.755-.547-1.023.184-1.64l2.673-2.257-.967-1.144-3.038 2.564c-1.04.878-.857 1.93-.073 2.86l1.33 1.574.901-.762-1.01-1.195M105.255 223.5l-2.56-3.777-1.412.296 3.618 5.244 1.386-.291 1.203-6.257-1.412.297-.823 4.487M93.521 223.97l-1.6-4.304-1.644-.248-.876 5.81 1.304.196.617-4.099 1.651 4.441 1.575.237.875-5.81-1.303-.197-.599 3.975M112.872 221.649c-.678.305-1.107.096-1.506-.576l2.939-1.322-.487-1.081-2.942 1.324c-.247-.746-.14-1.21.499-1.521l1.96-.879-.485-1.076-1.89.85c-1.737.805-2.208 1.877-1.335 3.818.874 1.94 1.994 2.309 3.747 1.54l1.889-.85-.487-1.083-1.902.856M85.645 221.89c-.245.643-.765.897-1.494.628-.701-.258-.942-.758-.754-1.374l1.31-3.558-1.405-.519-1.325 3.6.002.001c-.451 1.276.197 2.367 1.77 2.945 1.573.58 2.774.17 3.258-1.094h.002l1.326-3.6-1.406-.517-1.284 3.487M70.117 215.294l1.127.899 1.276-.71 1.829 1.459-.41 1.401 1.127.9 1.785-6.093-1.19-.95-5.544 3.094m4.592.418-1.07-.854 1.579-.88-.509 1.734M133.295 196.73l-2.478-3.03-.437 1.452 1.61 1.961-2.427.744-.438 1.45 3.724-1.147 2.53.763.432-1.433-2.516-.76M120.407 214.078a1.829 1.829 0 0 0-2.586-.482l-3 2.057 3.322 4.847 1.235-.846-2.65-3.867 1.55-1.063c.263-.165.61-.045.815.254.227.33.175.696-.09.877l-1.324.908 3.827 1.432 1.33-.91-2.541-.951c.543-.625.61-1.528.112-2.256M66.528 200.063l-5.246 2.725.701 1.35 5.246-2.725-.701-1.35M62.824 199.218c.26-.509.247-1.105.154-1.726-.082-.546-.142-.939-.145-1.4-.003-.375.065-.542.381-.618.288-.069.606.272.756.767.213.72.182 1.107-.329 1.253l.488 1.521c.349-.112.695-.262.965-.72.49-.849.128-2.059.018-2.404-.505-1.574-1.404-2.106-2.33-1.926-.941.184-1.16.9-1.18 1.666-.027 1.123.338 2.064.06 2.52-.197.338-.533.392-.797.23-.157-.094-.358-.388-.475-.734-.124-.342-.174-.74-.029-1.038a.665.665 0 0 1 .412-.37l-.517-1.61a1.98 1.98 0 0 0-1.157 1.365c-.147.573.002 1.383.115 1.708.238.714.546 1.445 1.029 1.895.711.66 2.088.59 2.581-.379M124.917 206.512l4.886 3.327.857-1.258-4.887-3.326-.856 1.257M97.826 220.202l.06 5.91 1.521-.015-.06-5.911-1.521.016M125.994 210.154c-.572.023-1.086.328-1.581.712-.436.338-.75.584-1.15.813-.325.186-.503.208-.725-.03-.202-.218-.06-.662.3-1.036.52-.537.875-.7 1.252-.326l1.088-1.17c-.269-.25-.57-.478-1.1-.49-.981-.011-1.86.897-2.106 1.162-1.126 1.212-1.149 2.255-.54 2.975.623.73 1.354.571 2.03.213.994-.527 1.636-1.305 2.17-1.285.391.006.603.271.592.58-.006.184-.165.503-.408.774-.239.277-.56.514-.892.534a.664.664 0 0 1-.523-.178l-1.153 1.24c.44.345 1.068.523 1.757.34.572-.153 1.206-.68 1.435-.937.505-.556.99-1.183 1.147-1.824.227-.944-.507-2.11-1.593-2.067" style="fill:#ac9c66;fill-opacity:1;fill-rule:nonzero;stroke:none;stroke-width:.352778" transform="translate(-89.621 -239.002) scale(1.68622)"/><path d="M128.78 186.2c0-17.216-13.955-31.172-31.17-31.172-17.215 0-31.171 13.956-31.171 31.171 0 17.214 13.956 31.17 31.17 31.17 17.216 0 31.172-13.956 31.172-31.17M97.61 215.67c-16.276 0-29.471-13.196-29.471-29.47 0-16.277 13.195-29.473 29.47-29.473 16.276 0 29.472 13.196 29.472 29.472 0 16.275-13.196 29.471-29.471 29.471" style="fill:#ac9c66;fill-opacity:1;fill-rule:nonzero;stroke:none;stroke-width:.352778" transform="translate(-89.621 -239.002) scale(1.68622)"/><path d="M92.755 171.563h-9.467v21.296c0 9.475 8.97 13.628 14.216 13.628 3.012 0 6.927-1.377 9.966-4.043 3.038-2.665 4.829-6.2 4.829-11.714 0-5.457-1.55-10.4-2.423-13.174-1.04-3.301-2.216-6.812-1.426-9.91.8-3.139 2.894-4.115 2.894-4.115s-3.977-.121-6.385 2.317c-1.47 1.49-2.24 3.507-2.268 6.18-.035 3.378 1.364 5.76 2.738 8.58 1.491 3.059 3.377 6.016 3.377 10.871 0 4.992-1.957 8.244-3.61 9.896-2.038 2.04-4.384 2.796-5.835 2.837 0 0-.064-.002-.161-.008.134-.206.255-.423.359-.655.257-.731.226-1.612.043-2.205a2.602 2.602 0 0 0-1.436-1.488c-.673-.29-1.407-.295-1.959-.015-.583.295-.963.78-1.071 1.369a1.996 1.996 0 0 0-.026.202c-.06.793.346 1.21.346 1.21s.214-.681 1.057-.675a.758.758 0 0 1 .652.382.964.964 0 0 1 .052 1.004c-.244.469-.818.806-1.429.838-.927.05-2.371-.435-2.67-1.949-.327-1.65.831-2.876 2.032-3.124-.476-.91-.747-2.092.195-3.132.948-1.046 2.432-1.166 3.436-.277-.016-.46.265-1.478 1.141-1.852.875-.373 1.839.126 2.173.937.335.812-.178 1.815-.804 2.135-.62.316-1.251.265-1.875.037 1.613 3.923 7.576.298 7.494-6.168-.045-3.666-1.669-6.701-3.126-9.457-1.374-2.597-2.663-4.865-2.634-7.848.02-1.997.895-3.18.895-3.18s-5.749 3.003-5.685 8.804c.046 4.185 1.668 6.374 3.395 8.365 1.189 1.372 4.94 4.545 4.068 6.125-.352-1.302-1.743-2.043-2.944-2.094-1.453-.062-2.737.813-3.242 1.488-2.416-.332-3.842 1.296-4.19 2.145-.424-.155-.692-1.08-.692-2.069v-21.493m-1.14 10.863h-1.103v-3.678h-.92v3.678h-1.104v-3.678h-.92v3.678h-1.104v-3.678h-.92v3.678h-1.103v-3.882c0-.5.4-.901.9-.901h2.135v-1.398h1.104v1.398h2.136c.5 0 .9.401.9.9v3.883" style="fill:#ac9c66;fill-opacity:1;fill-rule:nonzero;stroke:none;stroke-width:.352778" transform="translate(-89.621 -239.002) scale(1.68622)"/><path d="M114.402 192.858c0 8.358-5.732 13.556-12.285 15.56-2.104.642-3.58 1.218-4.605 1.675-1.025-.458-2.508-1.028-4.626-1.676-6.553-2.003-12.286-7.2-12.286-15.559v-21.277h-2.083v21.277c0 5.375 2.47 14.016 13.99 17.462 0 0 2.486.75 4.998 2.01 2.51-1.257 4.99-2.01 4.99-2.01 11.522-3.446 13.99-12.087 13.99-17.462v-21.277h-2.083v21.277M83.368 165.238h-.955v4.226h.955v-4.226M85.5 169.464H86.8v-.849h-.989c-.624 0-.717-.173-.717-.861v-2.516h-.947v2.86c0 .978.582 1.366 1.351 1.366M88.332 169.464h1.562l.35-.972h1.48l.349.972h.912l-1.521-4.226h-.962l-1.215 3.377h-.642c-.624 0-.717-.173-.717-.861v-2.516h-.947v2.86c0 .978.582 1.366 1.35 1.366m2.652-3.027.433 1.203h-.866l.433-1.203M80.157 168.752c-.229.01-.476-.043-.627-.206a.509.509 0 0 1-.142-.36h-1.064c.03.397.216.813.596 1.084.315.226.828.3 1.044.295.473-.006.97-.057 1.33-.287.532-.341.754-1.293.27-1.84-.256-.288-.615-.409-1.005-.481-.342-.064-.588-.108-.864-.206-.226-.08-.312-.163-.297-.395.014-.211.279-.353.604-.348.47.012.697.118.686.498h1.004c0-.263-.023-.531-.245-.815-.415-.519-1.208-.536-1.436-.536-1.039 0-1.53.496-1.6 1.166-.07.681.317.986.772 1.166.667.264 1.3.22 1.518.51.165.207.133.448-.013.592-.087.087-.302.159-.531.163" style="fill:#ac9c66;fill-opacity:1;fill-rule:nonzero;stroke:none;stroke-width:.352778" transform="translate(-89.621 -239.002) scale(1.68622)"/></svg>