<svg xmlns="http://www.w3.org/2000/svg" width="237.25734mm" height="188.85175mm" viewBox="0 0 237.25734 188.85175"><path d="M77.41 195.798h-4.44v22.907h4.44v-22.907zM108.918 195.798h-4.473v22.991h4.473v-11.278h4.463v-3.779h-4.46l-.003-7.934zM142.05 195.798h-4.472v22.991h4.472l.001-11.278h4.461v-3.779h-4.458l-.004-7.934zM173.737 205.457h-3.508v-9.595h-4.21v19.927H155.64c-.618 0-.883-.249-.883-.834l-.015-14.853h8.658v-3.697H150.41v20.312a2.72 2.72 0 0 0 2.717 2.722h12.891v7.014h4.21v-17.346h3.508v18.52h4.352v-31.765h-4.352v9.595zM232.938 221.283v-11.306h-4.248v11.306h-3.94v-11.306h-4.249v11.306h-5.351v3.653h28.52v-3.653h-10.732zM60.073 222.958v-6.273H55.6v7.969a2.996 2.996 0 0 0 2.82 2.993v.02h20.05v-3.83H61.008c-.664 0-.935-.255-.935-.878M92.283 222.958v-6.273H87.81v7.969a2.994 2.994 0 0 0 2.817 2.993v.02h19.35v-3.83H93.22c-.666 0-.938-.255-.938-.878M125.42 222.958v-6.273h-4.476v7.969a2.996 2.996 0 0 0 2.82 2.993v.02h19.35v-3.83h-16.76c-.665 0-.933-.255-.933-.878M91.066 209.735c-2.491 0-4.516-2.235-4.516-4.986 0-2.748 2.025-4.984 4.516-4.984 2.488 0 4.513 2.236 4.513 4.984 0 2.751-2.025 4.986-4.513 4.986m0-13.996c-4.969 0-9.01 4.042-9.01 9.01 0 4.969 4.041 9.012 9.01 9.012 4.966 0 9.005-4.043 9.005-9.012 0-4.968-4.039-9.01-9.005-9.01M206.637 216.945v-.016h-18.858v3.708h16.333c.7 0 1 .28 1 .938v6.92h4.345v-8.613a2.947 2.947 0 0 0-2.82-2.94" style="fill:#5a5758;fill-opacity:1;fill-rule:nonzero;stroke:none;stroke-width:1.40642" transform="matrix(1.20692 0 0 1.20692 -59.355 -86.924)"/><path d="M237.206 201.05v14.873h4.35v-16.566a2.945 2.945 0 0 0-2.82-2.938v-.016h-20.888v3.705h18.36c.7 0 .998.28.998.939M192.213 211.158c-2.131 0-3.864-1.913-3.864-4.261 0-2.352 1.733-4.266 3.864-4.266 2.127 0 3.859 1.914 3.859 4.266 0 2.348-1.732 4.26-3.86 4.26m10.277-12.298h-8.02v-4.139h-4.35v4.139h-8.186v3.648h3.812a7.776 7.776 0 0 0-1.355 4.39c0 4.309 3.509 7.817 7.823 7.817 4.307 0 7.813-3.508 7.813-7.817 0-1.626-.499-3.14-1.351-4.39h3.814v-3.648zM61.394 196.147s-.008.525.01 1.364c.04 2.073.362 6.065 2.246 8.789 2.241 3.246 6.064 3.146 6.064 3.146v3.97s-5.866.733-10.268-5.502c-4.4 6.235-10.267 5.501-10.267 5.501v-3.969s3.823.1 6.065-3.146c1.881-2.724 2.205-6.716 2.245-8.789.017-.839.013-1.364.013-1.364h3.892zM126.622 196.077s-.008.525.008 1.363c.04 2.074.364 6.064 2.247 8.79 2.24 3.246 6.063 3.145 6.063 3.145v3.97s-5.866.733-10.267-5.502c-4.402 6.235-10.266 5.502-10.266 5.502v-3.97s3.82.101 6.063-3.145c1.883-2.726 2.205-6.716 2.247-8.79.015-.838.012-1.363.012-1.363h3.893zM209.472 195.862h-4.35v19.694h4.35l.003-7.738h5.198v-3.647h-5.195l-.006-8.31z" style="fill:#5a5758;fill-opacity:1;fill-rule:nonzero;stroke:none;stroke-width:1.40642" transform="matrix(1.20692 0 0 1.20692 -59.355 -86.924)"/><path d="M165.523 157.575c0 2.554-2.089 4.632-4.65 4.632h-26.136a4.631 4.631 0 0 1-4.625-4.632 4.611 4.611 0 0 1 3.453-4.483l31.776-7.126.148-.032h.034v11.648zm13.478-7.28v-22.363h-.036c-.254-9.778-8.267-17.662-18.105-17.662h-43.472v13.498h43.472a4.636 4.636 0 0 1 4.642 4.63c0 2.074-1.384 3.9-3.367 4.462l-31.681 7.1-.091.019-.1.024a18.116 18.116 0 0 0-13.654 17.572c0 9.993 8.138 18.128 18.127 18.128h26.137c9.846 0 17.853-7.875 18.112-17.661h.032l-.016-7.747zM99.168 139.997l-.087-.017-.098-.02-31.712-7.114a4.626 4.626 0 0 1-3.338-4.447 4.645 4.645 0 0 1 4.638-4.64h43.533V110.27H68.571c-9.993 0-18.133 8.136-18.133 18.128 0 8.155 5.493 15.347 13.358 17.493l.148.043.143.027 31.793 7.125a4.637 4.637 0 0 1-1.19 9.12H52.104v13.498H94.69c10.005 0 18.128-8.146 18.128-18.128 0-8.306-5.613-15.535-13.65-17.58M232.179 110.23v34.063c0 5.362-1.924 17.844-17.163 17.844-15.172 0-17.147-12.482-17.147-17.844V110.23h-13.583v34.063c0 18.797 12.137 31.428 30.73 31.428 18.606 0 30.744-12.631 30.744-31.428V110.23H232.18z" style="fill:#05a0de;fill-opacity:1;fill-rule:nonzero;stroke:none;stroke-width:1.40642" transform="matrix(1.20692 0 0 1.20692 -59.355 -86.924)"/><path d="m128.88 103.44 9.32-10.164-23.45-21.254-23.401 21.31 9.314 10.175L114.754 90.7l14.126 12.738z" style="fill:#f25c19;fill-opacity:1;fill-rule:nonzero;stroke:none;stroke-width:1.40642" transform="matrix(1.20692 0 0 1.20692 -59.355 -86.924)"/></svg>