<svg xmlns="http://www.w3.org/2000/svg" xml:space="preserve" width="515.44794" height="515.43726" viewBox="0 0 515.44793 515.43725"><defs><clipPath id="a" clipPathUnits="userSpaceOnUse"><path d="M0 595.275h841.89V0H0Z"/></clipPath></defs><g clip-path="url(#a)" transform="matrix(10.67268 0 0 -10.67268 -3427.859 3422.435)"><path d="M0 0c0-13.269-10.755-24.024-24.021-24.024-13.269 0-24.025 10.755-24.025 24.024 0 13.266 10.756 24.021 24.025 24.021C-10.755 24.021 0 13.266 0 0" style="fill:#297550;fill-opacity:1;fill-rule:nonzero;stroke:none" transform="translate(369.352 296.526)"/><path d="M0 0c0-13.269-10.755-24.024-24.021-24.024-13.269 0-24.025 10.755-24.025 24.024 0 13.266 10.756 24.021 24.025 24.021C-10.755 24.021 0 13.266 0 0Z" style="fill:none;stroke:#000;stroke-width:.25;stroke-linecap:butt;stroke-linejoin:miter;stroke-miterlimit:4;stroke-dasharray:none;stroke-opacity:1" transform="translate(369.352 296.526)"/><path d="M0 0s1.207.04 2.057 1.119l-.652.499S.37.39-1.172 1.642l-.711-.898s1.683-.975.71-2.467l.667-.509S.38-1.106 0 0" style="fill:#fff;fill-opacity:1;fill-rule:nonzero;stroke:none" transform="translate(328.173 307.317)"/><path d="m0 0-2.135-2.791-.94.72-.623-.847 1.274-.973s.285-.192.497.054l3.212 4.2-4.261 3.257-.65-.848z" style="fill:#fff;fill-opacity:1;fill-rule:nonzero;stroke:none" transform="translate(332.11 308.128)"/><path d="M0 0c-.533-.227-1.113-.056-1.299.381-.183.436.097.971.631 1.197.531.226 1.112.053 1.297-.382C.813.76.53.225 0 0m-.253 5.138-1.758-.743.293-.697 1.114.472.664-1.567s-.587-.065-.902-.196l-.221.522s-1.493-.694-2.098.937l-1.018-.408s.704-1.567-.763-2.171l.332-.782s1.278.562 1.565 1.729c0 0 .633-.43 1.373-.241 0 0-1.005-1.02-.714-1.757 0 0 .196-1.188 1.618-1.204 0 0 .873.021 1.623.524 0 0 1.21.635.853 1.919L.235 4.955s-.099.286-.488.183" style="fill:#fff;fill-opacity:1;fill-rule:nonzero;stroke:none" transform="translate(337.679 312.193)"/><path d="m0 0-2.113-.054.092-3.536-2.53-.066-.071 2.706 2.036.054-.021.828-3.144-.06.105-3.991c.049-.316.286-.35.286-.35l3.378.089.032-1.225 1.048.028-.126 4.78.435.011.125-4.798 1.047.025L.441-.245C.416.012 0 0 0 0" style="fill:#fff;fill-opacity:1;fill-rule:nonzero;stroke:none" transform="translate(347.924 318.735)"/><path d="M0 0c.351-.21.506-.596.347-.859-.161-.264-.574-.306-.922-.095-.351.211-.505.595-.345.858.158.265.571.307.92.096m-1.781-.804s.232-.48.883-.875c0 0 .689-.436 1.517-.233 0 0 .747.185.747 1.141l.383-.232.403.667-1.208.73.25.417-1 .604-.259-.434-1.236.745-.391-.651.334-.2S-2.43.156-1.781-.804" style="fill:#fff;fill-opacity:1;fill-rule:nonzero;stroke:none" transform="translate(354.422 315.795)"/><path d="M0 0s-.33.13-.454.003l-1.488-2.467L-5.958-.04l-.424-.7 4-2.413-.804-1.335.95-.571L.188-1.045l.766-.462.413.683z" style="fill:#fff;fill-opacity:1;fill-rule:nonzero;stroke:none" transform="translate(357.845 314.873)"/><path d="M0 0c0-8.467-6.864-15.33-15.329-15.33-8.466 0-15.329 6.863-15.329 15.33 0 8.466 6.863 15.329 15.329 15.329C-6.864 15.329 0 8.466 0 0" style="fill:#ff0;fill-opacity:1;fill-rule:nonzero;stroke:none" transform="translate(360.66 296.297)"/><path d="M0 0c0-8.467-6.864-15.33-15.329-15.33-8.466 0-15.329 6.863-15.329 15.33 0 8.466 6.863 15.329 15.329 15.329C-6.864 15.329 0 8.466 0 0Z" style="fill:none;stroke:#000;stroke-width:.25;stroke-linecap:butt;stroke-linejoin:miter;stroke-miterlimit:4;stroke-dasharray:none;stroke-opacity:1" transform="translate(360.66 296.297)"/><path d="M0 0h20.589v-14.07s.086-3.175-2.744-5.662l-7.349-6.264-7.837 6.435S.198-17.816 0-14.241z" style="fill:#fff;fill-opacity:1;fill-rule:nonzero;stroke:none" transform="translate(335.063 307.135)"/><path d="M0 0h20.589v-14.07s.086-3.175-2.744-5.662l-7.349-6.264-7.837 6.435S.198-17.816 0-14.241z" style="fill:none;stroke:#000;stroke-width:.25;stroke-linecap:butt;stroke-linejoin:miter;stroke-miterlimit:4;stroke-dasharray:none;stroke-opacity:1" transform="translate(335.063 307.135)"/><path d="M0 0a5.448 5.448 0 1 0-10.896 0A5.448 5.448 0 0 0 0 0" style="fill:#297550;fill-opacity:1;fill-rule:nonzero;stroke:none" transform="translate(350.935 293.536)"/><path d="M0 0a5.448 5.448 0 1 0-10.896 0A5.448 5.448 0 0 0 0 0Z" style="fill:none;stroke:#000;stroke-width:.25;stroke-linecap:butt;stroke-linejoin:miter;stroke-miterlimit:4;stroke-dasharray:none;stroke-opacity:1" transform="translate(350.935 293.536)"/><path d="m0 0 .051.019C.199.076.296.157.34.264a.327.327 0 0 1 .001.255l.286.106.81-1.956-.349-.131L.53-.109l-.418-.16Z" style="fill:#000;fill-opacity:1;fill-rule:nonzero;stroke:none" transform="translate(341.797 300.798)"/><path d="M0 0c.05-.047.118-.063.202-.05.073.01.129.046.17.109.05.075.066.174.047.301a.523.523 0 0 1-.118.286.248.248 0 0 1-.23.076.223.223 0 0 1-.157-.088C-.142.563-.158.456-.138.316-.112.162-.067.056 0 0m.04-.614.001-.002a.24.24 0 0 1 .094-.149A.218.218 0 0 1 .29-.79c.084.009.147.06.188.153.049.107.058.261.028.463l-.007.009a.333.333 0 0 0-.141-.159.502.502 0 0 0-.189-.065.526.526 0 0 0-.449.143.758.758 0 0 0-.22.455c-.036.252-.009.453.092.604a.593.593 0 0 0 .429.246.578.578 0 0 0 .394-.076.703.703 0 0 0 .241-.279C.709.603.754.483.787.347.808.263.829.159.847.037c.057-.372.029-.66-.085-.862a.559.559 0 0 0-.426-.294.59.59 0 0 0-.422.091.569.569 0 0 0-.243.363z" style="fill:#000;fill-opacity:1;fill-rule:nonzero;stroke:none" transform="translate(344.142 300.823)"/><path d="M0 0c.037-.054.099-.085.184-.095a.238.238 0 0 1 .192.071C.444.04.482.134.494.263a.504.504 0 0 1-.049.304C.403.644.337.684.239.693A.235.235 0 0 1 .065.641C-.004.581-.047.482-.06.341-.072.184-.053.071 0 0m-.105-.604c0-.071.019-.125.056-.164a.207.207 0 0 1 .143-.059c.087-.008.159.025.219.106.075.093.119.24.136.443l-.001.01A.35.35 0 0 0 .27-.393a.464.464 0 0 0-.198-.02.513.513 0 0 0-.403.237.752.752 0 0 0-.104.493c.021.253.1.442.233.568a.592.592 0 0 0 .472.144.57.57 0 0 0 .366-.158.723.723 0 0 0 .171-.328C.832.435.847.309.848.165a2.91 2.91 0 0 0-.016-.314C.8-.521.703-.795.545-.964a.56.56 0 0 0-.483-.192.558.558 0 0 0-.538.587z" style="fill:#000;fill-opacity:1;fill-rule:nonzero;stroke:none" transform="translate(346.003 300.907)"/><path d="m0 0 .292.86L.29.861-.446.143Zm.447-.479-.196.062-.149-.439-.357.114.151.439-.71.228.115.337L.378 1.267l.405-.129L.354-.114l.195-.061z" style="fill:#000;fill-opacity:1;fill-rule:nonzero;stroke:none" transform="translate(348.014 300.195)"/><path d="M0 0h.687v3.003h1.416V0h.686v3.003h1.373V-.086h.73v3.174h1.543V-.043h.772v3.732H3.988v1.672h-.856V3.689H-.042z" style="fill:#ff0;fill-opacity:1;fill-rule:nonzero;stroke:none" transform="translate(341.926 291.863)"/><path d="M0 0v-4.946" style="fill:none;stroke:#000;stroke-width:.5;stroke-linecap:butt;stroke-linejoin:miter;stroke-miterlimit:4;stroke-dasharray:none;stroke-opacity:1" transform="translate(345.443 286.172)"/><path d="M355.625 303.16h-20.532v4.003h20.532z" style="fill:#297550;fill-opacity:1;fill-rule:nonzero;stroke:#000;stroke-width:.25;stroke-linecap:butt;stroke-linejoin:miter;stroke-miterlimit:4;stroke-dasharray:none;stroke-opacity:1"/><path d="M0 0a.054.054 0 0 0-.045-.022.06.06 0 0 0-.05.022.09.09 0 0 0-.02.062v.611h-.596A.09.09 0 0 0-.77.692.085.085 0 0 0-.787.74c0 .018.005.033.016.047a.073.073 0 0 0 .053.019h.603v.451c0 .024.007.044.02.056a.069.069 0 0 0 .05.019A.06.06 0 0 0 0 1.313a.062.062 0 0 0 .025-.053V.062A.08.08 0 0 0 0 0m-1.22-.272c-.098-.046-.149-.112-.149-.192 0-.078.051-.14.149-.184.111-.051.273-.077.488-.077.213 0 .374.026.483.077.103.044.151.106.151.184 0 .08-.048.146-.151.192-.109.047-.27.073-.483.073-.215 0-.377-.026-.488-.073m1.074.091c.125-.068.187-.163.187-.283 0-.114-.062-.206-.187-.276-.134-.079-.329-.117-.586-.117-.257 0-.455.038-.591.117-.122.07-.184.162-.184.276 0 .12.062.215.184.283.136.079.334.118.591.118.257 0 .452-.039.586-.118m-.988 1.453c.014.015.031.02.049.018a.07.07 0 0 0 .049-.019.09.09 0 0 0 .024-.066.832.832 0 0 0-.024-.186A1.486 1.486 0 0 0-1.091.81 2.368 2.368 0 0 0-.487.238a.086.086 0 0 0 .02-.062.07.07 0 0 0-.022-.052C-.505.11-.521.104-.54.107-.562.108-.579.118-.595.14a2.141 2.141 0 0 1-.547.548 1.67 1.67 0 0 0-.455-.594.091.091 0 0 0-.057-.022.05.05 0 0 0-.043.023c-.014.014-.018.03-.015.05.001.021.015.04.035.057.178.156.311.332.404.526.079.168.117.331.117.486 0 .024.009.045.022.058" style="fill:#ff0;fill-opacity:1;fill-rule:nonzero;stroke:none" transform="translate(337.685 304.919)"/><path d="M0 0a.077.077 0 0 0-.048-.018.078.078 0 0 0-.05.018.086.086 0 0 0-.019.056v.988c0 .024.007.044.019.057a.078.078 0 0 0 .05.018A.077.077 0 0 0 0 1.101c.015-.013.022-.03.022-.054V.056A.075.075 0 0 0 0 0m-.032-.213a.19.19 0 0 0 .054-.145V-.47A.173.173 0 0 0-.03-.6a.188.188 0 0 0-.135-.049h-1.116c-.03 0-.054-.007-.067-.022-.011-.015-.016-.033-.016-.062v-.101c0-.026.006-.043.02-.054a.11.11 0 0 1 .062-.017H.01c.022 0 .041-.005.053-.018.012-.015.02-.027.021-.046a.085.085 0 0 0-.017-.048c-.011-.014-.027-.02-.047-.02h-1.342a.171.171 0 0 0-.131.051.18.18 0 0 0-.052.134V-.7a.19.19 0 0 0 .05.135.173.173 0 0 0 .127.048h1.12c.029 0 .051.007.064.015a.063.063 0 0 1 .027.054v.07c0 .03-.008.051-.023.064-.014.013-.037.018-.07.018h-1.231c-.046 0-.069.023-.069.069-.002.043.021.067.069.067h1.25c.07 0 .123-.018.159-.053M-1.136 1.06a.067.067 0 0 0 .048.017.07.07 0 0 0 .049-.017c.016-.014.021-.035.021-.06a.568.568 0 0 0-.016-.149 1.134 1.134 0 0 0-.034-.125l-.004-.025c.133-.079.245-.165.336-.257.079-.077.163-.185.256-.319A.135.135 0 0 0-.461.057C-.467.037-.474.02-.489.008a.074.074 0 0 0-.049-.014.078.078 0 0 0-.05.036c-.078.122-.16.226-.24.312a1.457 1.457 0 0 1-.289.229 2.471 2.471 0 0 0-.189-.307 2.228 2.228 0 0 0-.292-.304c-.019-.013-.038-.02-.058-.015a.053.053 0 0 0-.038.029c-.012.015-.016.034-.012.051.001.021.015.038.037.052.164.128.297.291.394.486.079.164.118.309.118.437 0 .025.008.046.021.06" style="fill:#ff0;fill-opacity:1;fill-rule:nonzero;stroke:none" transform="translate(340.094 305.132)"/><path d="M0 0c.02 0 .036-.006.048-.018a.085.085 0 0 0 .018-.046.087.087 0 0 0-.014-.048.05.05 0 0 0-.041-.02h-.262v-.51a.07.07 0 0 0-.024-.056.066.066 0 0 0-.048-.018.066.066 0 0 0-.048.018.08.08 0 0 0-.02.058V.562c0 .047.023.072.068.072.048 0 .072-.025.072-.069V0Zm-.856.521C-.855.475-.873.452-.909.452h-.61c-.047 0-.068.023-.068.069 0 .047.021.068.068.068h.6c.04 0 .061-.021.063-.068m-.593-1.492c-.1-.046-.148-.111-.148-.191 0-.078.048-.141.148-.185.108-.05.265-.076.475-.076.204 0 .362.026.468.076.101.044.152.107.152.185 0 .08-.051.145-.152.191a1.182 1.182 0 0 1-.468.074c-.211 0-.369-.026-.475-.074m1.051.092c.122-.07.183-.165.183-.283 0-.114-.061-.206-.183-.276-.134-.08-.326-.118-.576-.118-.252 0-.447.038-.58.118-.123.07-.184.162-.184.276 0 .118.061.213.184.283.133.079.328.118.58.118.25 0 .442-.039.576-.118M-.626.215c0-.048-.02-.07-.058-.07h-.464V.089c0-.142.044-.261.135-.359a.775.775 0 0 1 .392-.199c.022-.006.038-.017.047-.036a.08.08 0 0 0 .007-.058.086.086 0 0 0-.034-.046.08.08 0 0 0-.064-.011c-.148.04-.271.102-.371.182a.575.575 0 0 0-.182.233.607.607 0 0 0-.17-.239 1.03 1.03 0 0 0-.388-.207c-.021-.006-.038-.003-.053.01a.068.068 0 0 0-.033.044.09.09 0 0 0 0 .056c.005.016.019.028.043.032a.765.765 0 0 1 .395.225.542.542 0 0 1 .138.372v.057h-.466c-.044 0-.064.022-.064.07 0 .043.023.066.065.066h1.067c.038 0 .058-.023.058-.066" style="fill:#ff0;fill-opacity:1;fill-rule:nonzero;stroke:none" transform="translate(345.108 305.617)"/><path d="M0 0c0-.046-.021-.067-.059-.067h-.693v-.13a.75.75 0 0 1 .227-.519.964.964 0 0 1 .545-.296.067.067 0 0 0 .048-.03c.009-.018.012-.035.009-.054a.084.084 0 0 0-.024-.05.067.067 0 0 0-.058-.015c-.186.038-.362.13-.527.276-.15.129-.247.259-.289.384a.964.964 0 0 0-.283-.389 1.17 1.17 0 0 0-.527-.271.07.07 0 0 0-.06.015.084.084 0 0 0-.029.05.073.073 0 0 0 .013.057.09.09 0 0 0 .057.035c.201.03.378.125.532.287.151.161.228.334.228.52v.13h-.688c-.043 0-.065.021-.063.067 0 .046.022.067.067.067h1.515C-.021.067 0 .046 0 0m-.867-1.14c.013.012.03.017.046.017a.061.061 0 0 0 .045-.022.073.073 0 0 0 .024-.057v-.53H.09c.021 0 .039-.005.051-.019a.067.067 0 0 0 .02-.047.069.069 0 0 0-.02-.047c-.012-.014-.029-.02-.05-.02h-1.844a.048.048 0 0 0-.04.02.07.07 0 0 0-.011.047.08.08 0 0 0 .018.047c.013.014.03.019.053.019h.843v.54c0 .022.008.04.023.052" style="fill:#ff0;fill-opacity:1;fill-rule:nonzero;stroke:none" transform="translate(347.397 306.111)"/><path d="M0 0v-.163C0-.195.008-.22.021-.232.037-.251.062-.26.094-.26h1.113c.035 0 .062.008.074.022.019.016.03.042.03.077V0Zm.128-1.21c-.104-.041-.155-.104-.155-.185 0-.078.051-.136.155-.178.113-.046.29-.071.528-.071.236 0 .411.025.526.071.106.042.158.1.158.178 0 .081-.052.144-.158.185-.115.045-.29.068-.526.068-.238 0-.415-.023-.528-.068m-.208.883a.208.208 0 0 0-.061.153v.498c0 .027.006.047.022.063.013.013.028.018.05.018A.066.066 0 0 0-.023.387.088.088 0 0 0 0 .323V.135h1.311V.33c0 .024.005.043.02.057a.059.059 0 0 0 .049.022.067.067 0 0 0 .047-.019c.015-.013.022-.032.022-.057v-.507a.204.204 0 0 0-.21-.214H.08a.212.212 0 0 0-.16.061m1.361-.794c.132-.063.197-.155.197-.274 0-.115-.065-.206-.197-.272-.136-.072-.346-.109-.625-.109-.278 0-.489.037-.63.109-.126.066-.19.157-.19.272 0 .117.064.208.19.274.141.072.352.109.63.109.28 0 .489-.037.625-.109m.338.405a.07.07 0 0 0 .019-.046.075.075 0 0 0-.019-.048.067.067 0 0 0-.051-.02H-.275a.046.046 0 0 0-.041.02.074.074 0 0 0-.012.048.081.081 0 0 0 .019.046.078.078 0 0 0 .052.019h.841v.284c0 .046.022.071.069.071.045 0 .069-.021.069-.067v-.288h.844a.083.083 0 0 0 .053-.019" style="fill:#ff0;fill-opacity:1;fill-rule:nonzero;stroke:none" transform="translate(350.731 305.838)"/><path d="M0 0c.036 0 .055-.021.055-.063C.055-.106.036-.13 0-.13h-.262v-.951a.07.07 0 0 0-.024-.055.067.067 0 0 0-.047-.021.067.067 0 0 0-.048.021c-.015.014-.021.031-.021.055V.957c0 .024.006.042.021.055.012.01.028.017.048.017A.07.07 0 0 0-.262.956V0Zm-1.324.951a.06.06 0 0 0 .047.021.06.06 0 0 0 .048-.021c.018-.015.025-.033.025-.058 0-.084-.007-.181-.02-.291a2.71 2.71 0 0 0-.04-.281A4.81 4.81 0 0 0-.692-.818a.137.137 0 0 0 .004-.074c-.009-.019-.02-.034-.035-.041a.055.055 0 0 0-.051.006c-.019.009-.032.026-.04.052a7.325 7.325 0 0 1-.215.527 3.178 3.178 0 0 1-.272.512 3.75 3.75 0 0 0-.194-.573 2.575 2.575 0 0 0-.298-.517c-.016-.015-.033-.024-.05-.024a.05.05 0 0 0-.045.015c-.013.016-.021.03-.021.05a.08.08 0 0 0 .027.061c.177.222.316.508.413.851.082.296.124.584.124.866a.08.08 0 0 0 .021.058" style="fill:#ff0;fill-opacity:1;fill-rule:nonzero;stroke:none" transform="translate(354.743 305.222)"/><path d="M0 0a.393.393 0 1 0-.787 0A.393.393 0 1 0 0 0" style="fill:#ff0;fill-opacity:1;fill-rule:nonzero;stroke:none" transform="translate(342.113 305.161)"/><path d="M0 0a.393.393 0 1 0-.787 0A.393.393 0 1 0 0 0" style="fill:#ff0;fill-opacity:1;fill-rule:nonzero;stroke:none" transform="translate(349.354 305.161)"/><path d="M0 0a.775.775 0 0 0-.398-.324c-.219-.086-.455-.075-.706.031-.25.107-.456.322-.617.649-.175.353-.202.688-.077 1.002.123.317.31.528.56.637l.241-.492a.595.595 0 0 1-.313-.383.74.74 0 0 1 .06-.532c.079-.162.171-.274.275-.333A.42.42 0 0 1-.662.208c.095.02.16.069.197.148a.56.56 0 0 1 .059.267c.001.148-.021.293-.062.436-.04.14-.067.296-.08.467-.019.219.013.406.09.567a.75.75 0 0 0 .403.364c.182.073.397.071.641-.007.246-.078.451-.287.616-.621.187-.374.204-.698.054-.968C1.104.593.941.423.767.353L.525.842a.55.55 0 0 1 .26.289c.054.13.038.282-.048.46-.091.18-.186.286-.291.318a.387.387 0 0 1-.269-.001.252.252 0 0 1-.165-.207A.984.984 0 0 1 0 1.395c.013-.11.037-.245.077-.402C.114.832.133.658.131.473A.978.978 0 0 0 0 0" style="fill:#fff;fill-opacity:1;fill-rule:nonzero;stroke:none" transform="translate(327.388 287.533)"/><path d="m0 0 1.143.747-.701 1.078-1.148-.748-.3.472 2.599 1.688.304-.469-1.014-.659.699-1.075 1.018.654.299-.46L.298-.47Z" style="fill:#fff;fill-opacity:1;fill-rule:nonzero;stroke:none" transform="translate(327.67 284.626)"/><path d="m0 0 2.434 1.914.338-.432L.337-.428Z" style="fill:#fff;fill-opacity:1;fill-rule:nonzero;stroke:none" transform="translate(328.574 283.39)"/><path d="m0 0 .748 2.395L-.841.873l-.388.405 2.247 2.148.458-.481L.727.544l1.589 1.519.39-.404L.461-.49Z" style="fill:#fff;fill-opacity:1;fill-rule:nonzero;stroke:none" transform="translate(330.733 280.91)"/><path d="M0 0a.753.753 0 0 0-.219-.465C-.38-.636-.598-.728-.868-.739c-.274-.013-.553.094-.839.32-.309.243-.475.534-.5.872-.023.337.054.609.233.813l.43-.337a.59.59 0 0 1-.118-.482.724.724 0 0 1 .28-.453c.143-.114.276-.174.392-.183a.426.426 0 0 1 .304.09c.077.06.114.134.117.221a.605.605 0 0 1-.065.264 1.528 1.528 0 0 1-.243.37 2.073 2.073 0 0 0-.272.388c-.11.185-.164.371-.164.547 0 .176.069.345.208.504.132.144.327.235.584.268.255.035.529-.064.822-.295.33-.259.483-.544.464-.851C.744 1.008.67.786.543.648l-.43.338a.565.565 0 0 1 .113.371c-.009.142-.091.271-.244.393-.158.125-.292.182-.397.166a.39.39 0 0 1-.243-.118.246.246 0 0 1-.06-.259c.025-.101.067-.193.119-.281.06-.093.14-.202.245-.333.103-.126.193-.274.269-.443A.935.935 0 0 0 0 0" style="fill:#fff;fill-opacity:1;fill-rule:nonzero;stroke:none" transform="translate(334.39 279.484)"/><path d="M0 0a.984.984 0 0 0-.666-.513c-.287-.066-.592-.008-.914.172-.324.186-.532.416-.624.695-.089.279-.057.553.1.832l1.039 1.833.487-.274-.964-1.71a1.12 1.12 0 0 1-.137-.46c-.013-.167.106-.318.354-.459.25-.141.442-.165.581-.068.137.098.244.215.323.352L.54 2.115l.496-.278Z" style="fill:#fff;fill-opacity:1;fill-rule:nonzero;stroke:none" transform="translate(336.903 277.634)"/><path d="m0 0-.408 2.473L-1.145.4l-.528.188 1.04 2.927.625-.222.412-2.48.736 2.072.528-.188L.633-.229Z" style="fill:#fff;fill-opacity:1;fill-rule:nonzero;stroke:none" transform="translate(338.904 275.804)"/><path d="m0 0 .056.306A.902.902 0 0 0-.287.091.943.943 0 0 0-.796.048c-.421.069-.737.276-.942.617-.207.342-.271.749-.193 1.224.079.475.267.842.567 1.098.301.258.668.35 1.097.279.412-.067.705-.24.879-.518.174-.277.265-.527.276-.749l-.603.104a.927.927 0 0 1-.164.379c-.094.139-.245.224-.456.26a.726.726 0 0 1-.664-.202c-.181-.18-.298-.43-.35-.748-.051-.32-.022-.596.091-.824A.722.722 0 0 1-.695.559c.239-.039.429.013.574.159.142.142.241.284.297.419l-.729.12.078.475 1.297-.213L.561-.097z" style="fill:#fff;fill-opacity:1;fill-rule:nonzero;stroke:none" transform="translate(342.504 275.008)"/><path d="M0 0a.995.995 0 0 0-.236-.808c-.194-.221-.475-.356-.841-.397-.372-.044-.675.021-.911.192-.239.172-.372.415-.412.732l-.24 2.093.554.066.23-1.953a1.07 1.07 0 0 1 .16-.45c.089-.143.275-.198.557-.163.285.032.454.129.508.289.055.158.071.317.054.476l-.232 1.947.565.069z" style="fill:#fff;fill-opacity:1;fill-rule:nonzero;stroke:none" transform="translate(348.358 276.097)"/><path d="m0 0-1.724 1.819.551-2.129-.543-.139-.779 3.006.644.166L-.12.9l-.552 2.13.542.139L.653.164Z" style="fill:#fff;fill-opacity:1;fill-rule:nonzero;stroke:none" transform="translate(351.068 275.731)"/><path d="m0 0-1.057 2.912.516.188L.515.185Z" style="fill:#fff;fill-opacity:1;fill-rule:nonzero;stroke:none" transform="translate(352.628 276.23)"/><path d="m0 0-.575-.276-2.393 2.294.505.24L-.582.474l-.21 2.584.509.244z" style="fill:#fff;fill-opacity:1;fill-rule:nonzero;stroke:none" transform="translate(355.453 277.41)"/><path d="m0 0-1.696 2.591L.117 3.778l.286-.435-1.349-.885.404-.615 1.283.837.283-.429-1.283-.84.442-.676 1.387.914.284-.435Z" style="fill:#fff;fill-opacity:1;fill-rule:nonzero;stroke:none" transform="translate(357.066 278.26)"/><path d="M0 0c.033.124.003.242-.095.353a.361.361 0 0 1-.333.136.687.687 0 0 1-.37-.179l-.486-.426.563-.648.491.422A.72.72 0 0 1 0 0m1.407-1.214-1.419.338-.333-.29.785-.898-.424-.365-2.039 2.334.96.842a1.1 1.1 0 0 0 .738.286.844.844 0 0 0 .668-.299.964.964 0 0 0 .24-.573.86.86 0 0 0-.14-.569L1.922-.77Z" style="fill:#fff;fill-opacity:1;fill-rule:nonzero;stroke:none" transform="translate(359.53 282.375)"/><path d="M0 0a.758.758 0 0 0 .457-.237c.164-.168.246-.388.246-.66.001-.274-.115-.547-.352-.824-.256-.299-.554-.454-.891-.467-.341-.009-.607.081-.806.269l.357.414a.582.582 0 0 1 .473-.137.733.733 0 0 1 .468.261c.118.139.184.267.197.387a.405.405 0 0 1-.079.306.276.276 0 0 1-.215.124.61.61 0 0 1-.267-.054 1.547 1.547 0 0 1-.377-.226 2.318 2.318 0 0 0-.398-.259 1.086 1.086 0 0 0-.554-.139.74.74 0 0 0-.494.226c-.142.14-.223.338-.246.595-.024.256.085.525.327.81.273.317.562.461.87.428.307-.034.526-.116.66-.249L-.978.152a.557.557 0 0 1-.369.128c-.14-.003-.274-.077-.404-.225-.128-.156-.191-.286-.179-.393a.378.378 0 0 1 .108-.248c.068-.072.152-.094.254-.072.101.025.197.062.287.111.095.056.209.132.341.23.13.097.283.183.455.253A.937.937 0 0 0 0 0" style="fill:#fff;fill-opacity:1;fill-rule:nonzero;stroke:none" transform="translate(362.285 284.549)"/><path d="m0 0-2.554 1.751.308.45L.31.45Z" style="fill:#fff;fill-opacity:1;fill-rule:nonzero;stroke:none" transform="translate(363.815 284.488)"/><path d="m0 0 2.268-1.242-.277-.492L-.268-.49l-.462-.842-.452.25L.008 1.09.46.841Z" style="fill:#fff;fill-opacity:1;fill-rule:nonzero;stroke:none" transform="translate(363.014 288.083)"/><path d="m0 0 1.071-.426-.19-.481-1.072.423-2.17-.292.212.536 1.517.208-.96 1.199.214.535z" style="fill:#fff;fill-opacity:1;fill-rule:nonzero;stroke:none" transform="translate(365.407 289.959)"/><path d="m0 0-.658.868 3.441 2.609L.042 7.096l.645.488 2.75-3.637.421-.554s.22-.351-.088-.544z" style="fill:#fff;fill-opacity:1;fill-rule:nonzero;stroke:none" transform="translate(361.188 303.762)"/><path d="m0 0 .52-.688-1.49-1.127.438-.582L.97-1.261l.548-.72L.029-3.108l1.458-1.925-.672-.509-3.419 4.517.655.497.454-.598z" style="fill:#fff;fill-opacity:1;fill-rule:nonzero;stroke:none" transform="translate(360.364 309.282)"/></g></svg>