<svg xmlns="http://www.w3.org/2000/svg" width="230.99998mm" height="230.99998mm" viewBox="0 0 230.99998 230.99998"><g transform="matrix(1.28374 0 0 1.28374 -19.863 -77.612)"><circle cx="105.44429" cy="150.42967" r="89.971695" style="fill:#fff;stroke:#fff;stroke-width:0"/><path d="m63.058 70.887 3.521 1.014-.34 1.184.835.24.55-1.91-4.356-1.257zM68.726 69.523l-.514-.148.302-1.047-.835-.24-.827 2.872.834.241.317-1.098.514.147zM64.924 69.7c-.426-.12-.693-.479-.602-.8.094-.32.51-.482.937-.361.422.123.69.484.597.805-.093.318-.509.48-.932.357m2.205-1.293-1.25-.361.127-.441-.836-.243-.129.443-1.296-.374-.175.612.438.127a.963.963 0 0 0-.394.526c-.178.615.337 1.307 1.155 1.542.814.235 1.621-.075 1.8-.691a.97.97 0 0 0-.056-.655l.438.127zM76.81 72.758l-3.696-2.284-.398.645 2.97 1.835-1.71 2.767-.602-.372 1.103-1.787-.722-.445-1.103 1.784-.514-.317 1.104-1.784-.722-.447-1.104 1.786-.845-.522-.398.644 4.527 2.797.398-.645-.395-.244zM41.346 69.925l-.75.455 2.027 3.342.75-.454zM39.663 73.256c.275.164.592.237.957.226a2.383 2.383 0 0 0 1.03-.283l-.43-.712c-.453.203-.855.198-1.21-.001-.302-.171-.639-.559-.96-1.09l-.787.478c.324.536.518 1.007.535 1.347.018.406-.165.763-.544 1.07l.43.708c.277-.19.51-.442.696-.76.198-.335.292-.665.283-.983M40.027 74.437l-.748.453.81 1.336.241.398.366-.222 3.374-2.046-.403-.663-2.99 1.815zM50.926 67.825l-.515.146-.295-1.05-.837.236 1.059 3.762.836-.234-.558-1.986.514-.145zM47.744 70.09c-.443.125-.878-.045-.971-.378-.094-.335.186-.709.63-.834.442-.123.876.05.97.384.093.334-.188.705-.629.829m1.24-2.354-1.302.366-.13-.461-.873.245.13.462-1.352.38.18.638.458-.128a1.012 1.012 0 0 0-.06.68c.18.643 1.015.972 1.866.732.85-.24 1.394-.955 1.213-1.598a1.003 1.003 0 0 0-.407-.549l.457-.128ZM47.587 70.928l-.843.237.424 1.505.126.448.412-.116 3.799-1.068-.21-.748-3.369.947zM58.836 68.062h-.468v-1.744h-.805v3.384h-1.786v-2.354h1.354v-.76h-2.22v3.877h2.652v1.053h.805v-2.683h.468v2.683h.821v-5.2h-.82Zm0 0" style="fill:#211e1e;fill-opacity:1;fill-rule:nonzero;stroke:none;stroke-width:.352778" transform="matrix(2.24966 0 0 2.24966 -23.018 -78.263)"/><path d="M53.225 97.814V82.583H42.433v15.231H37.99v7.73h4.444v12.677c.088.001.177.007.266.007 2.802 0 5.343-1.097 7.228-2.88a10.476 10.476 0 0 0 3.296-7.622h.002v-2.181h3.966v-7.73zm0 0" style="fill:#2170cc;fill-opacity:1;fill-rule:nonzero;stroke:none;stroke-width:.352778" transform="matrix(2.24966 0 0 2.24966 -23.018 -78.263)"/><path d="M61.157 105.546v15.23h10.79v-15.23h4.444v-7.732h-4.444V85.139c-.088-.003-.177-.007-.265-.007-2.8 0-5.344 1.095-7.229 2.879a10.479 10.479 0 0 0-3.295 7.623h-.001v2.18H57.19v7.732zm0 0" style="fill:#35c2b5;fill-opacity:1;fill-rule:nonzero;stroke:none;stroke-width:.352778" transform="matrix(2.24966 0 0 2.24966 -23.018 -78.263)"/><path d="m87.038 83.943-1.472.748-.76-1.502-.902.457.763 1.501-1.469.747.458.9 1.468-.747 1.808 3.554.898-.458-1.805-3.554 1.469-.747zM27.526 83.943l1.471.748.761-1.502.9.457-.762 1.501 1.469.747-.458.9-1.469-.747L27.63 89.6l-.898-.458 1.807-3.554-1.47-.747zm0 0" style="fill:#4c4a4c;fill-opacity:1;fill-rule:nonzero;stroke:none;stroke-width:.352778" transform="matrix(2.24966 0 0 2.24966 -23.018 -78.263)"/><path d="m31.352 75.436 6.22 5.948c5.293-5.201 12.252-8.05 19.712-8.05 7.46 0 14.417 2.849 19.708 8.047l6.222-5.946c-6.933-6.911-16.1-10.705-25.93-10.705-9.832 0-19 3.794-25.932 10.706m6.28 8.916-9.259-8.854.72-.76c7.416-7.81 17.426-12.11 28.191-12.11 10.761 0 20.772 4.3 28.187 12.11l.722.759-9.26 8.852-.727-.767c-4.973-5.252-11.694-8.146-18.922-8.146-7.232 0-13.95 2.894-18.924 8.148zm0 0" style="fill:#2170cc;fill-opacity:1;fill-rule:nonzero;stroke:none;stroke-width:.352778" transform="matrix(2.24966 0 0 2.24966 -23.018 -78.263)"/><path d="M29.903 76.961a36.607 36.607 0 0 0-9.38 24.53c0 20.27 16.49 36.76 36.761 36.76 20.269 0 36.76-16.49 36.76-36.76a36.597 36.597 0 0 0-9.382-24.53l-6.223 5.948a28.036 28.036 0 0 1 7.001 18.582c0 15.526-12.63 28.157-28.156 28.157-15.526 0-28.158-12.631-28.158-28.157 0-6.881 2.479-13.438 7-18.58zm27.381 63.393c-21.43 0-38.864-17.434-38.864-38.863 0-10 3.79-19.502 10.674-26.752l.727-.766 9.258 8.85-.72.761a25.944 25.944 0 0 0-7.13 17.907c0 14.366 11.688 26.053 26.055 26.053 14.365 0 26.052-11.687 26.052-26.053 0-6.69-2.533-13.052-7.13-17.91l-.72-.76 9.259-8.85.726.765a38.698 38.698 0 0 1 10.675 26.755c0 21.43-17.433 38.863-38.862 38.863" style="fill:#2170cc;fill-opacity:1;fill-rule:nonzero;stroke:none;stroke-width:.352778" transform="matrix(2.24966 0 0 2.24966 -23.018 -78.263)"/><path d="M24.152 104.044a.995.995 0 0 1-.437-.087 1.222 1.222 0 0 1-.402-.282 1.53 1.53 0 0 1-.302-.456 1.625 1.625 0 0 1-.133-.608 2.264 2.264 0 0 1 .245-1.148l.597.167c-.036.056-.073.13-.112.222a2.804 2.804 0 0 0-.19.624 1.27 1.27 0 0 0-.025.296.934.934 0 0 0 .088.419c.025.057.084.1.178.131.094.03.212.043.36.039a.421.421 0 0 0 .317-.146c.077-.093.141-.207.195-.342.054-.137.108-.283.16-.44.054-.157.124-.303.212-.44s.204-.253.348-.348c.141-.094.333-.146.57-.154a.837.837 0 0 1 .368.075c.13.055.25.14.362.25.112.11.206.25.282.416.074.167.117.357.125.572a4.979 4.979 0 0 1-.06.963l-.593-.098c.023-.069.045-.149.065-.237a4.199 4.199 0 0 0 .08-.536 1.862 1.862 0 0 0-.012-.434.413.413 0 0 0-.064-.17.246.246 0 0 0-.153-.1.835.835 0 0 0-.253-.022.381.381 0 0 0-.246.087.701.701 0 0 0-.167.21c-.047.087-.09.185-.127.294-.037.109-.078.22-.121.336a3.073 3.073 0 0 1-.15.338c-.058.11-.131.21-.218.296a1.04 1.04 0 0 1-.321.218 1.262 1.262 0 0 1-.466.095M23.826 109.425l1.748-.366-.35-1.67-1.75.367-.157-.75 3.886-.816.157.75-1.702.359.35 1.667 1.704-.356.158.753-3.886.817zM25.217 113.887l-.268-.718 3.72-1.39.268.718zM27.945 119.492l1.124-3.69-.004-.006a66.623 66.623 0 0 0-.765.456l-.2.117-.16.094a5.947 5.947 0 0 0-.103.056l-1.168.655-.22-.39 3.487-1.956.164.294-1.112 3.685.517-.3.212-.12.202-.12a11.78 11.78 0 0 1 .306-.174l1.147-.644.219.392-3.478 1.951zM31.603 124.345l1.363-1.154-1.102-1.301-1.363 1.154-.496-.584 3.029-2.567.496.586-1.327 1.124 1.102 1.3 1.327-1.124.5.589-3.03 2.566zM36.913 127.016l.645-1.69-1.544.951zm-.652 1.683.507-1.318-1.112-.885-1.19.73-.375-.31 3.653-2.094.66.37-1.508 4.029zM41.926 132.3l-.992-3.728-.007-.004a98.878 98.878 0 0 0-.41.792c-.038.075-.074.142-.107.205-.033.062-.062.118-.088.164l-.056.102-.647 1.175-.391-.217 1.926-3.501.295.162 1 3.718.282-.529c.04-.07.077-.142.116-.215l.11-.207c.034-.066.066-.126.096-.18l.072-.131.634-1.15.391.216-1.922 3.493zm0 0" style="fill:#4c4a4c;fill-opacity:1;fill-rule:nonzero;stroke:none;stroke-width:.352778" transform="matrix(2.24966 0 0 2.24966 -23.018 -78.263)"/><path d="M47.675 132.523c-.205.598-.813 1.058-1.622.78-.806-.276-1.004-1.012-.799-1.61.204-.598.813-1.058 1.62-.781.808.277 1.007 1.013.801 1.61M68.94 131.934c.215.596.029 1.334-.775 1.624-.802.29-1.418-.16-1.631-.754-.215-.596-.028-1.334.773-1.624.803-.29 1.42.16 1.633.754" style="fill:#636161;fill-opacity:1;fill-rule:nonzero;stroke:none;stroke-width:.352778" transform="matrix(2.24966 0 0 2.24966 -23.018 -78.263)"/><path d="M73.733 130.174c.086.17.137.346.153.53.015.181-.01.36-.075.537a1.518 1.518 0 0 1-.32.503 2.073 2.073 0 0 1-.584.426 2.356 2.356 0 0 1-.569.212c-.18.041-.351.043-.514.007a1.031 1.031 0 0 1-.453-.234c-.14-.12-.266-.291-.38-.511L69.84 129.4l.654-.336 1.187 2.31c.087.168.17.296.25.38a.56.56 0 0 0 .251.161.49.49 0 0 0 .273-.008 1.8 1.8 0 0 0 .312-.13c.139-.071.252-.147.336-.227a.916.916 0 0 0 .187-.245.383.383 0 0 0 .01-.3 2.805 2.805 0 0 0-.17-.395l-1.18-2.294.655-.336zM79.345 127.902l-3.661-.55-.006.004c.141.174.27.334.39.478l.152.186.138.173a6.018 6.018 0 0 1 .18.228l.786 1.019-.34.263-2.346-3.036.255-.197 3.656.538a160.746 160.746 0 0 1-.503-.633c-.048-.062-.097-.12-.14-.175a9.446 9.446 0 0 1-.123-.156l-.087-.111-.772-.998.34-.263 2.343 3.029zM82.292 125.067l-.512.53-2.745-2.645.512-.53zM82.689 118.522l.263-.361 2.282 3.335-.426.58-3.878-1.158.47-.64 2.063.66.459.154.405.138c.14.046.271.095.397.143a21.791 21.791 0 0 1-.29-.387l-.267-.363c-.096-.13-.184-.253-.263-.37zM88.366 116.222l-1.003 1.935-3.385-1.755.97-1.868.327.212-.598 1.19 1.101.57.591-1.104.297.191-.535 1.096 1.211.627.704-1.295zM87.903 112.179c.032-.097.051-.195.057-.293a.773.773 0 0 0-.02-.245.575.575 0 0 0-.044-.102.482.482 0 0 0-.09-.109.917.917 0 0 0-.163-.111 1.806 1.806 0 0 0-.268-.112 1.039 1.039 0 0 0-.324-.062.487.487 0 0 0-.244.055.51.51 0 0 0-.177.167c-.05.074-.093.163-.127.267-.01.03-.02.06-.03.097a.623.623 0 0 0-.022.099l1.41.474zm.393.01-.079.235 1.489.501-.235.698-3.605-1.213a16.496 16.496 0 0 1 .294-1c.139-.417.325-.705.557-.867.232-.161.518-.186.857-.07.151.05.278.113.377.187.1.074.182.156.246.244.063.088.11.18.141.278.03.098.051.196.062.297l.623-.116c.196-.037.371-.082.525-.133.155-.052.283-.113.388-.184a.533.533 0 0 0 .21-.272l.009-.023.23.077c0 .062-.006.131-.018.205a1.724 1.724 0 0 1-.212.571.695.695 0 0 1-.247.227 1.693 1.693 0 0 1-.438.164 7.336 7.336 0 0 1-.73.13zM90.255 105.997a.95.95 0 0 1 .392.17c.126.087.234.203.322.344.09.14.153.304.193.489.039.183.04.383.003.598-.02.113-.044.218-.075.314a2.484 2.484 0 0 1-.103.266c-.037.08-.08.159-.128.23a3.132 3.132 0 0 1-.153.218l-.526-.276c.044-.045.093-.107.148-.186a3.081 3.081 0 0 0 .303-.547 1.256 1.256 0 0 0 .105-.511.834.834 0 0 0-.022-.174c-.012-.057-.059-.111-.14-.158a.971.971 0 0 0-.33-.108.402.402 0 0 0-.328.073 1.184 1.184 0 0 0-.252.283 8.431 8.431 0 0 0-.237.379 1.961 1.961 0 0 1-.286.373c-.11.11-.243.197-.396.257-.153.06-.342.071-.568.031a.801.801 0 0 1-.33-.144 1.132 1.132 0 0 1-.29-.308 1.308 1.308 0 0 1-.18-.445 1.456 1.456 0 0 1-.004-.563c.028-.164.063-.319.106-.466.042-.148.09-.29.14-.427l.539.21c-.036.061-.072.131-.107.21a3.734 3.734 0 0 0-.184.486c-.023.08-.04.152-.05.214-.013.072-.021.136-.024.197a.407.407 0 0 0 .026.174c.02.05.06.09.124.124.062.031.14.055.233.071a.373.373 0 0 0 .248-.033.663.663 0 0 0 .198-.164c.062-.071.122-.155.178-.25.058-.096.117-.193.18-.293.064-.099.134-.195.21-.286.076-.092.164-.171.263-.236.1-.065.214-.111.345-.14a1.22 1.22 0 0 1 .457.004M91.63 102.768l-.035.735-3.808-.18.035-.734zM91.57 99.091l-3.395.272.071 1.11-.39-.007-.233-2.923.378.009.114 1.073 3.397-.271zM90.644 93.192l.17.72-1.424.337-2.012 1.69-.194-.82 1.613-1.296-2.03-.471-.104-.434 2.557.61zm0 0" style="fill:#4c4a4c;fill-opacity:1;fill-rule:nonzero;stroke:none;stroke-width:.352778" transform="matrix(2.24966 0 0 2.24966 -23.018 -78.263)"/><path d="M58.118 137.565h-1.652v-3.791H54.9v-1.625h1.566v-1.6h1.626v1.587h1.575v1.637h-1.549zm0 0" style="fill:#636161;fill-opacity:1;fill-rule:nonzero;stroke:none;stroke-width:.352778" transform="matrix(2.24966 0 0 2.24966 -23.018 -78.263)"/></g></svg>