<svg xmlns="http://www.w3.org/2000/svg" xml:space="preserve" width="314.03564" height="314.03564" viewBox="0 0 314.03565 314.03565"><defs><clipPath id="a" clipPathUnits="userSpaceOnUse"><path d="M0 255.118h255.118V0H0Z"/></clipPath></defs><g style="stroke-width:.83405"><path d="M29.881-88.88h196.441v59.533H29.881z" style="fill:#fff;stroke-width:6.25538" transform="matrix(1.59863 0 0 1.59863 -47.769 360.95)"/><g style="stroke-width:.83405"><path d="M222.75 32.74H33.452v45.717H222.75ZM29.881 29.347h196.441v196.441H29.881Z" style="fill:#a6106e;fill-opacity:1;fill-rule:nonzero;stroke:none;stroke-width:.83405" transform="matrix(1.59863 0 0 -1.59863 -47.769 360.95)"/><g style="stroke-width:.83405"><path d="M0 0h-4.018v-.045l.893-1.294v-21.43H0v12.813h3.572v2.813H0Z" style="fill:#727272;fill-opacity:1;fill-rule:nonzero;stroke:none;stroke-width:.83405" transform="matrix(1.59863 0 0 -1.59863 58.63 254.226)"/></g><g style="stroke-width:.83405"><path d="M0 0h-4.018v-.045l.893-1.294v-11.162H0v5.225h3.125v2.812H0Z" style="fill:#727272;fill-opacity:1;fill-rule:nonzero;stroke:none;stroke-width:.83405" transform="matrix(1.59863 0 0 -1.59863 228.852 254.226)"/></g><g style="stroke-width:.83405"><path d="M0 0h3.125v15.626H-.893v-.045L0 14.287Z" style="fill:#727272;fill-opacity:1;fill-rule:nonzero;stroke:none;stroke-width:.83405" transform="matrix(1.59863 0 0 -1.59863 112.516 279.206)"/></g><g clip-path="url(#a)" style="stroke-width:.83405" transform="matrix(1.59863 0 0 -1.59863 -47.769 360.95)"><g style="stroke-width:.83405"><path d="M0 0c1.755 0 2.634-1.39 2.634-3.103 0-1.711-.879-3.101-2.634-3.101s-2.634 1.39-2.634 3.101C-2.634-1.39-1.755 0 0 0m-5.806-3.103c0-3.328 2.336-5.692 5.805-5.692 3.467 0 5.803 2.364 5.803 5.692 0 1.298-.455 2.342-1.263 3.103h2.156v2.589H1.784v2.233h-4.241v-.045l.893-1.295v-.893h-5.134V0h2.155c-.807-.761-1.263-1.805-1.263-3.103" style="fill:#727272;fill-opacity:1;fill-rule:nonzero;stroke:none;stroke-width:.83405" transform="translate(160.76 63.278)"/></g><g style="stroke-width:.83405"><path d="M0 0s.882 2.232.882 5.804v11.385h-17.635V14.51h14.521V6.25C-2.232 2.232-3.368 0-3.368 0h-2.213v9.822H-9.51v-.045l.893-1.294V0h-2.868v9.822h-3.929v-.045l.893-1.294V0h-3.572v-2.679H1.775V0Z" style="fill:#727272;fill-opacity:1;fill-rule:nonzero;stroke:none;stroke-width:.83405" transform="translate(206.755 48.455)"/></g><g style="stroke-width:.83405"><path d="M0 0h-4.018v-.045l.893-1.294v-7.144h16.742v2.679H0Z" style="fill:#727272;fill-opacity:1;fill-rule:nonzero;stroke:none;stroke-width:.83405" transform="translate(90.219 52.92)"/></g><g style="stroke-width:.83405"><path d="M0 0c-2.052 0-3.081 2.599-3.081 5.803 0 3.204 1.029 5.805 3.081 5.805s3.08-2.601 3.08-5.805C3.08 2.599 2.052 0 0 0m-.002 14.286c-3.97 0-6.25-3.206-6.25-8.484 0-5.276 2.28-8.482 6.25-8.482s6.25 3.206 6.25 8.482c0 5.278-2.28 8.484-6.25 8.484" style="fill:#727272;fill-opacity:1;fill-rule:nonzero;stroke:none;stroke-width:.83405" transform="translate(53.611 52.251)"/></g><g style="stroke-width:.83405"><path d="M0 0h13.617v-5.804h3.125v8.483H0Z" style="fill:#727272;fill-opacity:1;fill-rule:nonzero;stroke:none;stroke-width:.83405" transform="translate(156.294 49.795)"/></g><g style="stroke-width:.83405"><path d="M0 0c2.328-3.553 6.044-4.433 6.044-4.433l1.211 2.322s-5.58 2.009-5.58 7.366v2.233h-4.242v-.045l.893-1.295v-.893c0-5.357-5.804-7.5-5.804-7.5l1.212-2.322S-2.343-3.563 0 0" style="fill:#727272;fill-opacity:1;fill-rule:nonzero;stroke:none;stroke-width:.83405" transform="translate(90.553 59.272)"/></g><g style="stroke-width:.83405"><path d="m0 0 .893-1.295v-5.804h-2.322V.045h-3.884V0l.893-1.295v-12.501s-1.26-.446-3.482-.446h-4.554v11.385h5v2.678h-8.929v-.044l.893-1.295v-15.403h7.366c2.233 0 3.706.357 3.706.357v-6.161h2.991v12.814H.893v-12.814h3.036V.045H0Z" style="fill:#727272;fill-opacity:1;fill-rule:nonzero;stroke:none;stroke-width:.83405" transform="translate(134.954 66.715)"/></g><g style="stroke-width:.83405"><path d="M0 0h.068l7.196-22.334H-7.348Zm-6.286-36.539h-3.641c-1.156 0-1.767.206-1.767.959 0 .616.336 1.674 2.851 8.863H8.624c2.31-6.507 2.702-7.562 2.702-8.316 0-1.232-.883-1.506-3.398-1.506H5.322v-3.571h19.644v3.571c-3.399 0-4.241.274-5.465 3.629L6.031 4.535H-4.347l-13.935-39.088c-.543-1.575-1.132-1.986-4.076-1.986v-3.571h16.072z" style="fill:#fff;fill-opacity:1;fill-rule:nonzero;stroke:none;stroke-width:.83405" transform="translate(63.847 173.035)"/></g><g style="stroke-width:.83405"><path d="M0 0c3.86 0 6.723-2.52 6.959-5.642l.415-4.066h6.429V.355C10.662 2.727 4.632 4.458.484 4.458c-16.591 0-23.228-10.238-23.228-25.004 0-15.811 7.743-22.915 21.984-22.915 5.254 0 12.295 1.879 15.185 4.529v10.473H7.789v-3.789c0-4.694-4.583-6.756-8.134-6.756-10.785 0-13.136 8.08-13.136 19.154C-13.481-3.343-6.705 0 0 0" style="fill:#fff;fill-opacity:1;fill-rule:nonzero;stroke:none;stroke-width:.83405" transform="translate(110.997 174.778)"/></g><g style="stroke-width:.83405"><path d="M0 0v12.501h-39.523V0h6.525v3.804c0 3.218.611 4.04 4.417 4.04h4.47v-33.61c0-2.327-.408-2.807-2.923-2.807h-4.281v-3.572h23.107v3.572h-4.282c-2.514 0-2.922.48-2.922 2.807v33.61h4.469c3.806 0 4.418-.822 4.418-4.04V0Z" style="fill:#fff;fill-opacity:1;fill-rule:nonzero;stroke:none;stroke-width:.83405" transform="translate(172.088 165.07)"/></g><g style="stroke-width:.83405"><path d="M0 0v-12.008c3.211-1.461 9.705-2.994 16.127-2.994 10.07 0 19.119 4.318 19.119 14.07 0 16.019-26.812 11.647-26.812 22.706 0 4.458 4.263 7.103 9.955 7.103 6.778 0 8.089-3.665 8.154-10.124h6.222v10.713c-4.614 2.167-9.122 3.451-14.522 3.451C5.983 32.917 0 27.275 0 19.266 0 4.221 26.397 8.801 26.397-2.882c0-6.5-6.111-8.08-10.562-8.08-9.266 0-9.198 4.427-9.198 10.962z" style="fill:#fff;fill-opacity:1;fill-rule:nonzero;stroke:none;stroke-width:.83405" transform="translate(178.645 146.319)"/></g><path d="M41.488 118.638h173.225v6.25H41.488Z" style="fill:#fff;fill-opacity:1;fill-rule:nonzero;stroke:none;stroke-width:.83405"/><g style="stroke-width:.83405"><path d="M0 0c-18.509 0-26.787-6.25-26.787-6.25S-35.066 0-53.575 0H-113.4v-6.25h59.825c16.262 0 26.788-6.697 26.788-6.697S-16.262-6.25 0-6.25h59.825V0Z" style="fill:#fff;fill-opacity:1;fill-rule:nonzero;stroke:none;stroke-width:.83405" transform="translate(154.888 193.643)"/></g><g style="stroke-width:.83405"><path d="M0 0s-8.279 5.804-26.787 5.804V-.714C-10.526-.714 0-6.965 0-6.965S10.526-.714 26.787-.714v6.518C8.279 5.804 0 0 0 0" style="fill:#f5a100;fill-opacity:1;fill-rule:nonzero;stroke:none;stroke-width:.83405" transform="translate(128.101 202.126)"/></g><g style="stroke-width:.83405"><path d="m0 0-4.976 8.647H-7.42V-2.961h2.187v8.647l4.976-8.647h2.445V8.647H0Z" style="fill:#fff;fill-opacity:1;fill-rule:nonzero;stroke:none;stroke-width:.83405" transform="translate(121.413 101.062)"/></g><path d="M129.645 98.101h2.188v11.608h-2.188zM187.257 98.101h2.188v11.608h-2.188z" style="fill:#fff;fill-opacity:1;fill-rule:nonzero;stroke:none;stroke-width:.83405"/><g style="stroke-width:.83405"><path d="M0 0h4.152v1.607H0v2.991h4.688V6.25h-6.876V-5.357h6.965v1.651H0Z" style="fill:#fff;fill-opacity:1;fill-rule:nonzero;stroke:none;stroke-width:.83405" transform="translate(152.79 103.459)"/></g><g style="stroke-width:.83405"><path d="m0 0 1.368 4.032L2.736 0Zm.261 6.429L-4.034-5.179h2.277l1.212 3.572h3.826l1.212-3.572H6.77L2.475 6.429Z" style="fill:#fff;fill-opacity:1;fill-rule:nonzero;stroke:none;stroke-width:.83405" transform="translate(45.523 103.28)"/></g><g style="stroke-width:.83405"><path d="m0 0-2.794 8.781h-2.277l4.05-11.607H1.02L5.071 8.781H2.794Z" style="fill:#fff;fill-opacity:1;fill-rule:nonzero;stroke:none;stroke-width:.83405" transform="translate(141.208 100.928)"/></g><g style="stroke-width:.83405"><path d="M0 0h3.348v-9.956h2.188V0h3.348v1.652H0Z" style="fill:#fff;fill-opacity:1;fill-rule:nonzero;stroke:none;stroke-width:.83405" transform="translate(66.58 108.057)"/></g><g style="stroke-width:.83405"><path d="M0 0h-2.405l-2.604-4.834L-7.614 0h-2.405l3.916-6.391v-5.221h2.187v5.221z" style="fill:#fff;fill-opacity:1;fill-rule:nonzero;stroke:none;stroke-width:.83405" transform="translate(214.714 109.713)"/></g><g style="stroke-width:.83405"><path d="M0 0h3.348v-9.956h2.188V0h3.348v1.652H0Z" style="fill:#fff;fill-opacity:1;fill-rule:nonzero;stroke:none;stroke-width:.83405" transform="translate(193.46 108.057)"/></g><g style="stroke-width:.83405"><path d="M0 0c0-1.032-.658-1.673-1.717-1.673h-1.748v3.346h1.748C-.658 1.673 0 1.032 0 0m-.705-3.109v.023l.008.001c1.762.226 2.902 1.424 2.902 3.124 0 1.916-1.363 3.196-3.403 3.196h-4.455V-8.373h2.188v5.182c.681 0 1.218-.309 1.865-1.425L.576-8.373h2.492L.571-4.489c-.7 1.09-1.276 1.38-1.276 1.38" style="fill:#fff;fill-opacity:1;fill-rule:nonzero;stroke:none;stroke-width:.83405" transform="translate(167.863 106.474)"/></g><g style="stroke-width:.83405"><path d="M0 0c-.617.192-1.195.323-1.818.48a3.735 3.735 0 0 0-.791.287c-.461.246-.719.544-.719 1.226 0 1.314 1.416 1.429 2.159 1.429.879 0 1.745-.154 2.753-.525l.562 1.405c-.904.409-2.406.718-3.6.718-2.368 0-4.121-1.126-4.121-3.035 0-1.91.903-2.82 2.829-3.377.174-.056.728-.203.899-.243.197-.054.822-.199 1.113-.299C.049-2.202.611-2.567.611-3.528c0-1.603-1.562-1.857-2.595-1.857-1.193 0-1.993.337-2.975.737l-.594-1.442c.993-.515 2.526-.893 3.72-.893 2.516 0 4.691.861 4.691 3.455C2.858-1.136 1.367-.426 0 0" style="fill:#fff;fill-opacity:1;fill-rule:nonzero;stroke:none;stroke-width:.83405" transform="translate(179.985 104.89)"/></g><g style="stroke-width:.83405"><path d="M0 0c-.617.192-1.195.323-1.818.48a3.735 3.735 0 0 0-.791.287c-.461.246-.719.544-.719 1.226 0 1.314 1.416 1.429 2.159 1.429.879 0 1.745-.154 2.753-.525l.562 1.405c-.904.409-2.406.718-3.6.718-2.368 0-4.121-1.126-4.121-3.035 0-1.91.903-2.82 2.829-3.377.174-.056.728-.203.899-.243.197-.054.822-.199 1.113-.299C.049-2.202.611-2.567.611-3.528c0-1.603-1.562-1.857-2.595-1.857-1.193 0-1.993.337-2.975.737l-.594-1.442c.993-.515 2.526-.893 3.72-.893 2.516 0 4.691.861 4.691 3.455C2.858-1.136 1.367-.426 0 0" style="fill:#fff;fill-opacity:1;fill-rule:nonzero;stroke:none;stroke-width:.83405" transform="translate(84.03 104.89)"/></g><g style="stroke-width:.83405"><path d="M0 0c0-2.316-.89-3.389-2.559-3.389S-5.117-2.316-5.117 0v6.725h-2.188V-.03c0-3.448 1.65-5.046 4.746-5.046 3.096 0 4.747 1.598 4.747 5.046v6.755H0Z" style="fill:#fff;fill-opacity:1;fill-rule:nonzero;stroke:none;stroke-width:.83405" transform="translate(105.94 102.984)"/></g><g style="stroke-width:.83405"><path d="M0 0c-1.876 0-3.283.698-3.283 4.321 0 3.478 1.139 4.322 3.283 4.322.683 0 1.66-.28 2.31-.544l.522 1.623c-.852.353-2.079.597-2.982.597-3.356 0-5.378-1.358-5.378-5.998 0-4.7 1.804-5.997 5.378-5.997 1.03 0 2.266.161 3.259.516L2.666.463C1.99.2.797 0 0 0" style="fill:#fff;fill-opacity:1;fill-rule:nonzero;stroke:none;stroke-width:.83405" transform="translate(60.678 99.584)"/></g></g></g></g></svg>