<svg xmlns="http://www.w3.org/2000/svg" viewBox="0 0 242.123 242.121"><path d="M71.786 30.039c3.628 2.369 7.639.3 7.639.3l5.937-3.039-1.412-2.764-4.55 2.333s-3.511 1.964-6.23-.914l9.128-4.666-1.63-3.172-23.759 12.148 1.625 3.175 9.124-4.669c.751 3.893-2.9 5.585-2.9 5.585l-4.568 2.331 1.419 2.766 5.943-3.042s4.029-2.039 4.234-6.372M43.31 47.216l-3.033 3.945-3.3-2.536-2.75 3.575 19.726 15.185 2.747-3.573-13.6-10.479 3.038-3.943ZM37.792 66.749a10.168 10.168 0 0 1-1.73 3.24 10.363 10.363 0 0 1-2.694 2.5 4.281 4.281 0 0 1-6.246-4.816 11.236 11.236 0 0 1 4.422-5.736 4.278 4.278 0 0 1 6.248 4.809m-7.24-8.877a18.169 18.169 0 0 0-7.61 9.875 8.029 8.029 0 0 0 11.428 8.8 16.64 16.64 0 0 0 4.676-4.266 16.56 16.56 0 0 0 2.934-5.61 8.026 8.026 0 0 0-11.428-8.8M128.758 11.789v4.161h-3.088v-4.161h-4.5v12.68h-10.743l-.167-.207V15.3h8.44v-3.569H106v13.706a2.6 2.6 0 0 0 2.6 2.6h12.57v8.6h4.5V19.518h3.088v17.12h4.508V11.789ZM203.529 78.158l13.262-10.5a.3.3 0 0 1 .052-.041 2.616 2.616 0 0 0 .568-3.472h.008L204.1 47.328l-2.792 2.216 12.213 15.434-12.562 9.943-2.67-3.377 9.472-7.511-2.552-3.233-9.486 7.508-2.3-2.919 9.479-7.505-2.557-3.232-9.49 7.5-3.478-4.4-2.8 2.219 18.263 23.068 2.8-2.211ZM183.9 33.648l-4.251-2.093 1.939-3.918-3.71-1.82-5.23 10.623 3.7 1.82 1.916-3.888 4.24 2.093ZM174.323 42.367a2.607 2.607 0 0 0-1.161-3.479l-20.97-10.324-1.448 2.945 19.582 9.639-3.479 7.076 3.7 1.815 3.768-7.662v-.01M167.266 29.124a2.873 2.873 0 0 1-1.9.331 17.2 17.2 0 0 1-2.937-1.216 15.5 15.5 0 0 1-2.628-1.524 2.861 2.861 0 0 1-.893-1.708 3.043 3.043 0 0 1 1.269-2.577 2.845 2.845 0 0 1 1.9-.33 15.243 15.243 0 0 1 2.812 1.158 17.439 17.439 0 0 1 2.755 1.582 2.844 2.844 0 0 1 .89 1.708 3.04 3.04 0 0 1-1.262 2.576m-11.654-7.33a6.6 6.6 0 0 0-.661 3.1 6.046 6.046 0 0 0 1.924 3.672 17.527 17.527 0 0 0 4.151 2.532 17.355 17.355 0 0 0 4.537 1.75 6.111 6.111 0 0 0 4.077-.719 6.653 6.653 0 0 0 2.054-2.419 7.317 7.317 0 0 0 .685-2.607l1.982.972 1.573-3.2-7.685-3.788.865-1.756-3.7-1.825-.869 1.754-7.683-3.782-1.585 3.205 1.981.973a7.321 7.321 0 0 0-1.648 2.134M29.7 132.459l-7.5-1.984.645 5.61Zm-8.867 4.694L20 129.975l-7.327-1.781-.283-2.443 16.737 4.549c1.071.287 2.328.688 2.59-.724l.112-.011.52 4.49-13.935 7.62c-1.544.849-3.065 1.541-3.789 3.265l-.5-4.271ZM31.159 147.235c1.26-.39 3.306-.86 3.377-2.406l.109-.036 1.636 5.218-.106.036c-.943-1.2-2.88-.416-4.136-.02L16.523 154.9c-2.9.9-5.13-.407-6.476-3.771l.021-.14c2.727 1.7 4.333 1.509 7.285.583ZM31.643 162.162c-3.708 1.536-6.434 5.74-4.71 9.9 1.661 4.022 5.666 5.38 9.609 3.744 3.867-1.609 6.58-5.609 4.849-9.8-1.7-4.1-5.742-5.5-9.748-3.844m6.683 16.432c-5.407 2.24-11.183-.614-13.363-5.88-2.166-5.249-.236-11.229 5.194-13.478 5.038-2.074 11.054.552 13.224 6.172a9.883 9.883 0 0 1-5.055 13.186M47.526 200.412l1.349-1.344a7.144 7.144 0 0 1-5.636-2.306 7.054 7.054 0 0 1-2.26-5.084c.1-2.25 1.492-3.568 2.954-5.031l5.4-5.417c.914-.911 2.526-2.25 1.99-3.739l3 2.989-2.92 2.812L46 188.71c-2.689 2.7-2.809 5.093-.721 7.176a5.071 5.071 0 0 0 4.387 1.537A3.832 3.832 0 0 0 51.933 196l6.085-6.109c.915-.911 2.511-2.271 1.969-3.76l3.008 3-2.928 2.844-10.467 10.5ZM84.219 222.516l.69-1.677a7.8 7.8 0 0 1-10.12-3.8c-.768-2.12.015-3.881.8-5.781l2.92-7.079c.492-1.193 1.476-3.047.408-4.224l3.909 1.625-1.615 3.72-2.911 7.076c-1.458 3.52-.652 5.771 2.078 6.9a5.062 5.062 0 0 0 4.636-.254 3.782 3.782 0 0 0 1.549-2.183l3.289-7.973c.495-1.194 1.451-3.063.388-4.24l3.916 1.63-1.612 3.75-5.617 13.62ZM117.578 213.673l-1.841 15.973a7.878 7.878 0 0 1-3.79-3.723l-8.328-13.51-1.7 14.65-2.052-.234 1.735-15c.178-1.593.314-2.74-1.071-3.744l.017-.111 4.155.475-.005.041a1.662 1.662 0 0 0 .344.76l.333.62 8.908 14.36 1.237-10.8c.186-1.593.358-2.828-1.052-3.869l3.568.41ZM127.091 228.751l-.735-14.828c-.062-1.312.027-3.407-1.453-3.9l4.167-.208.2 3.968.73 14.828ZM213.19 177.641l-12.784-7.536c-1.135-.666-2.844-1.9-4.06-.922l2.123-3.615 3.414 2.016 12.8 7.541ZM147.937 211.532c.29-2.156.694-4.672-1.193-4.937l-.033-.115 4.156-.989-2.818 20.948c-2.25-.814-2.94-.886-4.27-2.9l-6.915-10.418c-.864-1.29-1.672-2.812-3.12-3.457l-.025-.109 4.068-.964.06.349a11.037 11.037 0 0 0 1.374 2.421l7.295 11.084ZM162.966 216.615l-4.745-9.708c-.575-1.188-1.334-3.141-2.88-2.98l-.05-.1 8.235-4.02a2.746 2.746 0 0 0 1.148-.7l.084-.036 1.468 3.006-.075.036a3.973 3.973 0 0 0-3.534.464 15.664 15.664 0 0 0-2.55 1.458l2.344 4.791 3.068-1.5a2.862 2.862 0 0 0 1.058-.7l.074-.041 1.336 2.729-.077.036c-.773-.546-1.844.016-2.641.4l-1.908.932 2.981 6.1 3.421-1.292a7.091 7.091 0 0 0 4.019-3.848l.085-.038.488 3.938-9.614 4.7ZM183.846 208.928l-9.1-11.656c-.813-1.041-1.94-2.813-3.42-2.328l-.067-.095 5.375-4.2c3.025-2.36 5.919-2.063 7.525 0 1.552 1.989 1.024 4.912-.494 6.792l6.448 1.541a20.173 20.173 0 0 0 6.128.308l-2.074 1.613a3.771 3.771 0 0 1-3.513.928l-5.408-1.265L180.68 199c1.588-1.677 3.049-4.157 1.388-6.286a3.3 3.3 0 0 0-4.878-.23 16.819 16.819 0 0 0-1.4 1.38l10.362 13.266ZM195.76 176.631a6.5 6.5 0 0 0-4.252 2.328c-1.034 1.26-1.865 3.255-.332 4.511 3.032 2.494 9.248-5.162 13.344-1.792 2.376 1.937 2.552 6.24-.286 9.7a14.947 14.947 0 0 1-3.922 3.416l-3.292-1.63a9.96 9.96 0 0 0 5.819-3.334c1.031-1.276 1.848-3.8.3-5.072-3.453-2.838-9.1 5.3-13.8 1.438-2.787-2.292-1.5-6.016.719-8.719a14.2 14.2 0 0 1 3.192-2.9ZM227.69 139.115l-8.123-1.166-8.257 3.614a6.946 6.946 0 0 0-3.31 2.271l.61-4.229 8.929-3.844-4.771-4.271c-.641-.583-1.906-1.432-2.9.047l-.1-.02.716-4.959 9.5 8.495 8.116 1.172ZM201.461 160.839l2.636 2.042.036-.083a4.94 4.94 0 0 1 .18-3.589l.919-2.343 15.656 6.151 1.068-2.719-15.656-6.156.948-2.4c.344-.88.888-1.891 1.965-1.875l.027-.079-2.662-1.969Z" style="fill:#005bac"/><path d="M121 238.537a117.475 117.475 0 1 1 117.528-117.548A117.479 117.479 0 0 1 121 238.537M121 0a121.061 121.061 0 1 0 121.123 120.989A121.037 121.037 0 0 0 121 0" style="fill:#005bac"/><path d="M199.724 121.008a78.666 78.666 0 1 1-78.7-78.62 78.691 78.691 0 0 1 78.7 78.62M29.167 101.057a3.267 3.267 0 1 1-3.267-3.263 3.269 3.269 0 0 1 3.263 3.263M219.992 101.057a3.268 3.268 0 1 1-3.265-3.263 3.271 3.271 0 0 1 3.265 3.263" style="fill:#005bac"/><path d="M107.036 53.864 74.02 102.271a21.807 21.807 0 0 0-1.388 23.021l17.2 26.543s2.948 5.238 9.01 5.238h12.925a8.049 8.049 0 0 1-3.328-2.64L89.25 124.907s-3.11-5.035-2.9-10.126a20.328 20.328 0 0 1 2.831-8.714l17.988-26.976 21.315 33s2.409 3.606-.14 6.51c0 0-1.558 1.63-5.456.359l7.437 11.468a4.783 4.783 0 0 0 3.541 1.839 4.381 4.381 0 0 0 3.044-1.762l5.522-8.926s4.033-5.314-.208-13.6Z" style="fill:#be8915"/><path d="M150.505 152.657 166.875 128a21.813 21.813 0 0 0 1.382-23.02l-29.642-45.717s-2.948-5.243-9.011-5.243h-12.927A8.127 8.127 0 0 1 120 56.667l30.981 47.174s4.157 6.3 3.557 11.648a20.265 20.265 0 0 1-2.836 8.71l-10.7 16.7a5.376 5.376 0 0 1-3.683 2.374h-6.473c-2.136-.24-3.683-2.734-3.683-2.734L112.4 118.18s-2.4-3.612.145-6.513c0 0 1.563-1.628 5.454-.358l-7.438-11.47a4.786 4.786 0 0 0-3.541-1.834 4.371 4.371 0 0 0-3.043 1.766l-5.522 8.921s-4.039 5.311.21 13.591l19.886 30.552s2.737 4.218 6.713 4.218h17.876a9.082 9.082 0 0 0 7.361-4.4" style="fill:#be8915"/><path d="M100.99 185.876h-2.639V168.87l-2.984 2.006v-2.522a25.079 25.079 0 0 0 3.355-2.385h2.268ZM110.284 171.709c0 1.973.377 4.131 2.669 4.131s2.67-2.158 2.67-4.131c0-1.807-.4-4.131-2.67-4.131s-2.669 2.324-2.669 4.131m8.033 4.3c0 5.2.03 10.3-5.364 10.3-2.981 0-4.964-2.031-4.906-5.192h2.641c0 1.457.569 2.984 2.265 2.984 2.552 0 2.722-2.812 2.722-7.918h-.052a3.4 3.4 0 0 1-3.418 1.866c-1.574 0-4.56-.828-4.56-6.287 0-4.473 2.67-6.1 5.308-6.1 5.451 0 5.364 4.99 5.364 10.344M121.385 165.969h10.3v2.3l-5.31 17.609H123.4l5.56-17.609h-7.574ZM139.26 174.287c2.375.2 4.071-.745 4.071-3.292 0-1.812-.8-3.129-2.751-3.129-2.177 0-2.522 1.635-2.5 3.239h-2.64c-.2-3.38 1.435-5.443 5.14-5.443 3.386 0 5.386 1.688 5.386 5.156 0 3.761-2.782 4.333-3.922 4.615v.062c3.128.428 4.126 2.095 4.126 5.079 0 3.869-2.092 5.735-5.91 5.735-5.562 0-5.13-4.787-5.13-5.907h2.636c.025 1.973.344 3.7 2.721 3.7 2.331 0 3.044-1.462 3.044-3.582 0-3.214-1.2-3.907-4.271-3.907Z" style="fill:#fff"/><path d="M87.287 28.868 61.219 42.193l1.628 3.18 11.022-5.644 3.85 7.524 4.008-2.053-3.847-7.523 11.02-5.634Z" style="fill:#005bac"/></svg>