<svg xmlns="http://www.w3.org/2000/svg" xml:space="preserve" width="669.023" height="669.021" viewBox="0 0 669.023 669.021"><defs><clipPath id="a" clipPathUnits="userSpaceOnUse"><path d="M0 566.929h566.929V0H0Z"/></clipPath></defs><path d="M497.357-301.058A247.085 247.35 0 0 1 235.762-69.164 247.085 247.35 0 0 1 4.094-331.02a247.085 247.35 0 0 1 261.557-231.937A247.085 247.35 0 0 1 497.36-301.14" style="fill:#fff" transform="matrix(1.33333 0 0 1.33333 0 755.905)"/><g clip-path="url(#a)" transform="matrix(1.33333 0 0 -1.33333 -47.246 708.987)"><path d="M0 0c-138.449 0-250.76-112.327-250.76-250.737 0-138.683 112.311-251.029 250.76-251.029 138.65 0 251.007 112.346 251.007 251.029C251.007-112.327 138.65 0 0 0m0-494.33c-134.34 0-243.332 109.015-243.332 243.593C-243.332-116.456-134.34-7.432 0-7.432c134.551 0 243.557-109.024 243.557-243.305C243.557-385.315 134.551-494.33 0-494.33" style="fill:#1c63b7;fill-opacity:1;fill-rule:nonzero;stroke:none" transform="translate(286.194 531.74)"/><path d="M0 0c0-90.117-73.001-163.111-163.105-163.111-89.963 0-162.92 72.994-162.92 163.111 0 89.923 72.957 162.918 162.92 162.918C-73.001 162.918 0 89.923 0 0" style="fill:#1c63b7;fill-opacity:1;fill-rule:nonzero;stroke:none" transform="translate(450.347 280.954)"/><path d="m0 0-68.43-100.334s-16.613-20.641-2.881-47.71l35.657-55.003s6.115-10.856 18.681-10.856H9.815s-4.264 1.646-6.91 5.456l-39.77 61.203s-6.451 10.419-6.005 20.989c0 0 .44 9.239 5.852 18.034L.266-52.304l44.153-68.375s5.012-7.493-.293-13.492c0 0-3.212-3.37-11.274-.747l15.396-23.762s2.787-3.833 7.337-3.833c0 0 3.255 0 6.316 3.672l11.444 18.523s8.367 10.982-.436 28.151L0 0" style="fill:#ce9209;fill-opacity:1;fill-rule:nonzero;stroke:none" transform="translate(258.267 420.125)"/><path d="m0 0 33.904 51.122s16.626 20.637 2.878 47.702l-61.434 94.742s-6.108 10.869-18.674 10.869h-26.778s4.255-1.664 6.892-5.485l64.21-97.768s8.61-13.046 7.356-24.15c0 0-.436-9.243-5.865-18.038l-22.194-34.627c-3.685-4.794-7.616-4.908-7.616-4.908h-13.422c-4.426.472-7.629 5.642-7.629 5.642l-30.584 46.347s-4.989 7.506.293 13.518c0 0 3.24 3.354 11.309.723l-15.422 23.783s-2.772 3.82-7.323 3.82c0 0-3.267 0-6.324-3.676l-11.45-18.492s-8.36-10.995.436-28.171L-66.214-.35s5.657-8.741 13.895-8.741h37.05S-6.041-9.341 0 0" style="fill:#ce9209;fill-opacity:1;fill-rule:nonzero;stroke:none" transform="translate(348.35 215.353)"/><path d="M0 0h-5.69v36.701l-6.44-4.331v5.445c1.429.62 5.507 3.713 7.248 5.138H0V0" style="fill:#fff;fill-opacity:1;fill-rule:nonzero;stroke:none" transform="translate(247.394 145.832)"/><path d="M0 0c0-11.201.061-22.223-11.579-22.223-6.436 0-10.702 4.401-10.579 11.209h5.697c0-3.163 1.234-6.439 4.882-6.439 5.516 0 5.882 6.075 5.882 17.087h-.123c-1.364-2.971-4.085-4.03-7.362-4.03-3.408 0-9.845 1.79-9.845 13.556 0 9.648 5.752 13.184 11.448 13.184C.184 22.344 0 11.573 0 0m-17.338 9.287c0-4.276.803-8.921 5.759-8.921 4.95 0 5.759 4.645 5.759 8.921 0 3.899-.871 8.898-5.759 8.898-4.882 0-5.759-4.999-5.759-8.898" style="fill:#fff;fill-opacity:1;fill-rule:nonzero;stroke:none" transform="translate(279.024 167.125)"/><path d="M0 0c0-11.201.061-22.223-11.573-22.223-6.439 0-10.706 4.401-10.583 11.201h5.691c0-3.155 1.237-6.431 4.892-6.431 5.51 0 5.879 6.075 5.879 17.087h-.124c-1.36-2.971-4.084-4.03-7.359-4.03-3.411 0-9.841 1.79-9.841 13.556 0 9.648 5.75 13.184 11.445 13.184C.184 22.344 0 11.573 0 0m-17.332 9.287c0-4.276.806-8.921 5.759-8.921 4.946 0 5.755 4.645 5.755 8.921 0 3.899-.864 8.898-5.755 8.898-4.892 0-5.759-4.999-5.759-8.898" style="fill:#fff;fill-opacity:1;fill-rule:nonzero;stroke:none" transform="translate(308.92 167.125)"/><path d="M0 0v-4.956h-14.352v-12.493l.123-.132c.923 1.858 3.903 3.221 6.811 3.221 6.125 0 8.968-4.575 8.968-14.477 0-6.881-.856-15.046-11.635-15.046-8.914 0-10.585 4.895-10.585 10.651h5.697c0-3.344 1.298-6.507 5.074-6.507 5.382 0 5.757 5.267 5.757 9.472 0 6.245-.193 11.142-5.505 11.142-3.105 0-4.773-2.169-5.263-5.015h-5.134V0H0" style="fill:#fff;fill-opacity:1;fill-rule:nonzero;stroke:none" transform="translate(335.643 188.785)"/><path d="M0 0a6.765 6.765 0 1 0-13.531 0c0 3.747 3.028 6.78 6.767 6.78C-3.031 6.78 0 3.747 0 0" style="fill:#1c63b7;fill-opacity:1;fill-rule:nonzero;stroke:none" transform="translate(90.448 300.24)"/><path d="M0 0a6.746 6.746 0 0 0-6.765-6.764c-3.732 0-6.748 3.029-6.748 6.764 0 3.742 3.016 6.783 6.748 6.783C-2.999 6.783 0 3.742 0 0" style="fill:#1c63b7;fill-opacity:1;fill-rule:nonzero;stroke:none" transform="translate(497.31 300.237)"/><path d="m0 0-5.457 3.17 4.273 7.35-7.972 4.636L-22.187-7.26-41.188 3.786l-.078.521 9.219 15.857 14.918-8.677 3.67 6.313-22.453 13.052L-49.976 6.66l-.025-.049a5.32 5.32 0 0 1 1.923-7.279c.034-.018.069-.024.101-.042l22.122-12.858-8.839-15.209 7.969-4.637L-9.12-3.133l5.455-3.168-17.607-30.283 7.967-4.631L12.238 2.716 4.271 7.349 0 0" style="fill:#1c63b7;fill-opacity:1;fill-rule:nonzero;stroke:none" transform="translate(409.82 463.065)"/><path d="m0 0 16.475 19.241L29.601 8.003l5.995 7.007-13.125 11.236 16.478 19.247-5.549 4.751L-5.548 4.748Z" style="fill:#1c63b7;fill-opacity:1;fill-rule:nonzero;stroke:none" transform="translate(122.894 388.552)"/><path d="M0 0c8.716-1.667 14.682 5.369 14.682 5.369l8.885 10.38-4.818 4.122-6.811-7.958S6.819 5.459-.554 8.797l13.635 15.928-5.547 4.748-35.5-41.471 5.545-4.747L-8.782-.814c4.433-6.77-1.153-12.821-1.153-12.821l-6.82-7.963 4.818-4.122 8.887 10.38S2.992-8.355 0 0" style="fill:#1c63b7;fill-opacity:1;fill-rule:nonzero;stroke:none" transform="translate(127.014 424.455)"/><path d="m0 0-4.302-8.153 45.04-23.764 4.303 8.157L13.967-7.368l4.75 9.007-6.447 3.398-4.751-9.005z" style="fill:#1c63b7;fill-opacity:1;fill-rule:nonzero;stroke:none" transform="translate(85.929 392.168)"/><path d="M0 0c-4.451-3.277-7.946-10.229-7.946-10.229s-3.767-6.809-3.955-12.327c0 0-.931-9.657 8.754-15.038 9.894-4.948 17.343 1.27 17.343 1.27 4.448 3.274 7.94 10.225 7.94 10.225s3.767 6.807 3.957 12.33c0 0 .924 9.649-8.741 15.029C7.44 6.21 0 0 0 0m17.684-15.383c-.182-3.174-2.361-7.124-2.361-7.124s-2.045-4.05-4.554-5.985c0 0-4.207-3.668-9.628-.975-5.282 2.954-4.639 8.506-4.639 8.506.185 3.16 2.37 7.133 2.37 7.133S.906-9.801 3.417-7.857c0 0 4.218 3.663 9.637.97 5.279-2.953 4.63-8.496 4.63-8.496" style="fill:#1c63b7;fill-opacity:1;fill-rule:nonzero;stroke:none" transform="translate(76.188 371.291)"/><path d="m0 0-5.651 6.265-17.984-16.211 5.646-6.266 6.584 5.935 6.48-7.189 4.767 4.293-6.481 7.192z" style="fill:#1c63b7;fill-opacity:1;fill-rule:nonzero;stroke:none" transform="translate(472.505 413.713)"/><path d="M0 0a5.326 5.326 0 0 1 .421 7.488l-32.002 35.508-4.984-4.489L-6.666 5.338-18.639-5.45l5.644-6.269L-.02-.023v.002A.333.333 0 0 0 0 0" style="fill:#1c63b7;fill-opacity:1;fill-rule:nonzero;stroke:none" transform="translate(447.557 391.233)"/><path d="M0 0s-2.885-2.602-3.615-5.386c0 0-1.251-3.859.862-8.42 1.059-2.289 3.078-4.753 5.976-7.964 2.888-3.212 5.131-5.475 7.291-6.761 4.325-2.573 8.294-1.739 8.294-1.739 2.847.441 5.734 3.042 5.734 3.042s2.255 2.041 3.279 4.435l3.021-3.35 5.424 4.885L24.531-8.241l2.98 2.685L21.858.712l-2.977-2.684-11.736 13.02L1.723 6.16l3.022-3.353C2.264 2.03 0 0 0 0m16.569-22.746s-1.851-.391-3.863.806c-1.002.596-3.296 3.035-4.641 4.533-1.352 1.498-3.352 3.822-3.85 4.89-.982 2.123-.403 3.924-.403 3.924.338 1.295 1.676 2.5 1.676 2.5s1.357 1.222 2.685 1.428c0 0 1.849.389 3.856-.81 1.014-.604 3.116-2.836 4.465-4.334 1.352-1.497 3.538-4.025 4.029-5.087.979-2.122.406-3.92.406-3.92-.345-1.298-1.701-2.52-1.701-2.52s-1.336-1.205-2.659-1.41" style="fill:#1c63b7;fill-opacity:1;fill-rule:nonzero;stroke:none" transform="translate(427.613 444.498)"/><path d="m0 0-7.362-4.121L17.55-48.614l7.361 4.123L7.499-13.392l8.445 4.726-3.135 5.601-8.447-4.73z" style="fill:#1c63b7;fill-opacity:1;fill-rule:nonzero;stroke:none" transform="translate(198.559 494.239)"/><path d="m0 0 11.104 6.216-3.553 6.343L-2.98 6.66c-9.719-5.441-16.32 7.981-18.019 11.016l-.29.516 14.931 8.362-3.574 6.375-37.791-21.16 3.571-6.377 14.922 8.355.353-.636c1.967-3.511 9.684-15.527-.084-20.994l-6.564-3.675 3.554-6.344 7.129 3.99s11.256 5.627 7.931 15.503c0 0 6.223-7.575 16.911-1.591" style="fill:#1c63b7;fill-opacity:1;fill-rule:nonzero;stroke:none" transform="translate(196.956 454.759)"/><path d="m0 0 1.113-6.333-40.104-7.054.757-4.29 40.1 7.054 1.117-6.342-20.279-3.566.608-3.441 23.189 4.079 1.068-6.092-56.06-9.861-1.049 5.957 22.928 4.035-.674 3.839-15.769-2.771s-4.315-.355-4.991 3.493l-2.189 12.457L0 0" style="fill:#1c63b7;fill-opacity:1;fill-rule:nonzero;stroke:none" transform="translate(273.707 511.842)"/><path d="M0 0c-7.32-1.287-15.871.003-16.461 3.355-.589 3.353 7.007 7.478 14.327 8.766 7.321 1.287 15.861 0 16.448-3.35C14.904 5.419 7.317 1.287 0 0m-2.964 17.616c-13.688-2.41-23.862-9.586-22.731-16.022 1.132-6.438 13.145-9.712 26.836-7.302C14.83-3.3 25.01 3.874 23.875 10.315c-1.133 6.432-13.146 9.706-26.839 7.301" style="fill:#1c63b7;fill-opacity:1;fill-rule:nonzero;stroke:none" transform="translate(256.776 462.045)"/><path d="m0 0-8.358 1.126-6.815-50.534 8.357-1.126 4.763 35.322 9.596-1.292.858 6.356-9.597 1.295z" style="fill:#1c63b7;fill-opacity:1;fill-rule:nonzero;stroke:none" transform="translate(350.876 501.155)"/><path d="M0 0c-11.04 1.488-8.255 16.182-7.789 19.628l.079.589 16.965-2.288.978 7.243-17.229 2.324.537 3.983-8.354 1.128-.541-3.984-17.351 2.34-.976-7.243 16.954-2.287-.1-.721c-.537-3.988-1.582-18.23-12.69-16.733l-7.449 1.006-.973-7.207 8.1-1.09s12.382-2.264 15.659 7.629c0 0 .417-9.8 12.559-11.436l12.613-1.703.973 7.206L0 0" style="fill:#1c63b7;fill-opacity:1;fill-rule:nonzero;stroke:none" transform="translate(327.496 477.673)"/><path d="m0 0 31.783 13.958-.004.017c.043.018.086.026.125.045 2.553 1.118 3.767 3.984 2.898 6.578l.048.021-17.696 40.292-6.707-2.947 16.248-36.997L-3.404 7.751l-3.562 8.112 22.719 9.975-3.406 7.748-22.717-9.975-3.068 6.991 22.716 9.976-3.406 7.755-22.716-9.979-4.637 10.55-6.707-2.945L-3.902-9.332l6.707 2.949z" style="fill:#1c63b7;fill-opacity:1;fill-rule:nonzero;stroke:none" transform="translate(469.933 329.434)"/><path d="m0 0-15.643 2.678 2.347-11.306zm-20.202 3.288-8.711 1.304c-3.463.537-5.213.593-5.674-2.378l-.171-.034-2.192 10.559.169.037c2.359-2.986 5.773-3.295 9.307-3.873L-1.55 4.286c2.23-.371 4.87-.962 5.157 1.97l.173.035 1.885-9.067L-21.3-20.827c-2.997-2.001-5.994-3.702-6.979-7.318l-.173-.037-2.444 11.767.173.037c1.846-2.551 2.382-1.962 6.077.423l7.45 4.781z" style="fill:#1c63b7;fill-opacity:1;fill-rule:nonzero;stroke:none" transform="translate(99.383 252.615)"/><path d="M0 0c2.566.819 6.752 1.782 6.904 4.971l.167.054L10.479-5.64l-.166-.053c-1.956 2.451-5.926.816-8.494-.005l-31.671-10.111c-5.919-1.888-10.531 1.377-14.044 9.302l.167.054c5.942-4.935 9.491-4.476 15.522-2.555z" style="fill:#1c63b7;fill-opacity:1;fill-rule:nonzero;stroke:none" transform="translate(102.15 228.498)"/><path d="M0 0c-7.464-3.411-12.731-12.194-8.91-20.559 3.703-8.106 11.977-10.576 19.922-6.944 7.784 3.551 13.039 11.938 9.193 20.362C16.428 1.123 8.051 3.673 0 0m14.854-33.095c-10.877-4.969-22.881.438-27.723 11.051-4.82 10.555-1.315 22.912 9.613 27.903 10.131 4.622 22.623-.303 27.468-11.622 5.166-11.168.235-22.953-9.358-27.332" style="fill:#1c63b7;fill-opacity:1;fill-rule:nonzero;stroke:none" transform="translate(97.306 209.346)"/><path d="M0 0c-4.267.127-8.199 3.228-10.581 6.566-2.248 3.15-3.629 7.209-2.822 11.021.963 4.508 4.231 6.689 7.668 9.141l12.746 9.085c2.147 1.535 5.872 3.686 5.039 6.765l.147.104 6.465-9.073-.144-.101c-2.607 1.74-5.887-1.029-8.035-2.561l-12.745-9.092c-6.35-4.522-7.402-9.306-3.897-14.223 1.904-2.674 4.943-4.61 8.31-4.584 2.18-.032 3.341.867 5.059 2.094l14.369 10.244c2.147 1.529 5.836 3.727 5.039 6.763l.143.099 6.468-9.065-.111-.151c-2.64 1.785-5.92-.987-8.117-2.549L7.007-2.346C4.859-3.883 1.169-6.08 1.999-9.162l-.145-.102-5.005 7.02z" style="fill:#1c63b7;fill-opacity:1;fill-rule:nonzero;stroke:none" transform="translate(116.326 143.152)"/><path d="M0 0c1.072.77 2.066 1.515 2.746 2.539l.031.052 8.444-5.616-.098-.147c-1.4.438-2.684-.748-3.431-1.875L-5.02-31.146c-1.23-2.492-1.865-3.969-.821-6.635l-.094-.143-9.422 6.261.097.148c2.067-.601 3.333.671 4.438 2.33L2.035-3.816l-29.523-20.692c-1.208 3.48-1.018 5.247-.369 8.759l5.361 28.177-16.736-19.135c-2.366-2.717-4.137-4.636-2.526-7.188l-.097-.144-7.956 5.286.101.149c3.249.442 5.134 2.64 7.276 5.014l16.378 18.601c1.102 1.233 2.937 2.826 1.507 5.545l.096.142 8.539-5.678-.031-.05c-.52-.781-.616-1.773-.778-2.648l-5.136-27.627z" style="fill:#1c63b7;fill-opacity:1;fill-rule:nonzero;stroke:none" transform="translate(190.132 118.87)"/><path d="M0 0c-2.775-7.723-.161-17.631 8.502-20.741 8.387-3.008 15.936 1.196 18.887 9.419 2.892 8.051.554 17.673-8.164 20.803C10.674 12.549 2.992 8.332 0 0m34.076-12.48C30.035-23.738 17.779-28.555 6.799-24.613-4.129-20.694-10.529-9.549-6.467 1.761c3.763 10.486 16.014 15.99 27.502 11.555C32.645 9.214 37.643-2.549 34.076-12.48" style="fill:#1c63b7;fill-opacity:1;fill-rule:nonzero;stroke:none" transform="translate(202.448 92.731)"/><path d="M0 0c-.641-3.278-1.139-5.506 1.561-7.888l-.032-.171-11.388 2.226.036.17c3.089.535 3.565 4.799 4.07 7.386l5.017 25.648-5.065.989c-2.47.482-5.183.356-7.291-.961l-.172.033 3.354 6.452.171-.039c.634-.418 1.381-.565 2.107-.825l22.888-4.476c.976-.194 1.908-.315 2.722-.114l.172-.037-3.179-6.481-.174.032c-.35 2.159-2.596 2.901-4.493 3.269L5.127 26.22Z" style="fill:#1c63b7;fill-opacity:1;fill-rule:nonzero;stroke:none" transform="translate(251.378 68.581)"/><path d="M0 0c-.393-8.192 4.996-16.902 14.186-17.342 8.897-.425 14.886 5.797 15.305 14.52.414 8.546-4.636 17.056-13.884 17.51C6.531 15.118.424 8.839 0 0m36.22-1.971c-.572-11.945-10.881-20.132-22.531-19.573C2.1-20.987-7.274-12.209-6.699-.201c.533 11.116 10.64 19.964 22.92 19.077C28.513 18.344 36.728 8.564 36.22-1.971" style="fill:#1c63b7;fill-opacity:1;fill-rule:nonzero;stroke:none" transform="translate(269.59 77.464)"/><path d="M0 0c7.725 1.41 12.67-1.854 13.632-7.097.927-5.075-2.783-9.867-7.313-11.825l10.212-8.918c2.967-2.559 7.151-4.888 10.816-6.36l-5.308-.972c-3.053-.56-5.094-.16-7.211 1.659L6.2-26.094l-6.791 7.159c4.488 1.536 9.458 4.649 8.469 10.069-.762 4.151-4.775 5.917-8.608 5.04-1.316-.3-2.552-.707-3.836-1.177L.157-30.832c.484-2.652.908-6.921 4.038-7.425l.031-.173-11.011-2.013-.032.172c2.751 1.579 1.565 5.769 1.092 8.365L-9.7-10.178c-.485 2.657-.851 6.941-3.988 7.498l-.034.171z" style="fill:#1c63b7;fill-opacity:1;fill-rule:nonzero;stroke:none" transform="translate(319.12 98.075)"/><path d="M0 0c-3.797.403-7.733-.109-11.197-1.83-7.246-3.599-9.657-11.4-5.877-19.013 3.831-7.721 12.497-11.995 20.582-7.976 3.938 1.955 7.175 5.325 9.542 8.856l.157.082.347-7.419c-1.895-2.382-4.415-4.16-7.145-5.512-12.393-6.153-23.501-3.027-29.076 8.208-5.396 10.87-1.302 21.866 9.463 27.212 3.203 1.591 6.743 2.628 10.207 3.431z" style="fill:#1c63b7;fill-opacity:1;fill-rule:nonzero;stroke:none" transform="translate(383.02 113.962)"/><path d="M0 0c4.972-6.526 14.705-9.726 22.024-4.146 7.086 5.401 7.663 14.022 2.372 20.97-5.187 6.808-14.533 10.076-21.899 4.46C-4.731 15.776-5.365 7.039 0 0m28.999 21.806c7.248-9.509 4.628-22.416-4.65-29.49-9.23-7.03-22.064-6.346-29.346 3.214-6.75 8.859-4.706 22.132 5.263 29.359 9.753 7.508 22.334 5.31 28.733-3.083" style="fill:#1c63b7;fill-opacity:1;fill-rule:nonzero;stroke:none" transform="translate(395.683 108.517)"/><path d="M0 0c2.941 2.692 4.383 6.111 4.659 9.925l.118.13L8.246 2.44-8.523-14.841l-.132.123c1.328 2.88-2.032 5.646-3.919 7.485L-28.425 8.155c-1.933 1.876-4.756 5.11-7.638 3.739l-.125.125 7.795 8.028.126-.123c-1.285-2.919 2.115-5.644 4.007-7.479l18.329-17.8z" style="fill:#1c63b7;fill-opacity:1;fill-rule:nonzero;stroke:none" transform="translate(448.367 133.182)"/><path d="M0 0c2.53 3.085 3.478 6.677 3.208 10.497l.101.14 4.516-7.05-14.161-19.486-.143.099c.904 3.039-2.811 5.306-4.945 6.858L-29.305 4.042c-2.181 1.589-5.434 4.392-8.092 2.626l-.145.103 6.586 9.059.14-.103c-.858-3.077 2.893-5.292 5.032-6.842l20.673-15.03z" style="fill:#1c63b7;fill-opacity:1;fill-rule:nonzero;stroke:none" transform="translate(467.615 156.863)"/><path d="m0 0 4.057 6.28c2.097 3.271 2.87 7.429 1.934 11.217l.081.157 5.597-5.881L.395-9.917l-.163.08c.445 3.139-3.567 4.829-5.909 6.045L-25.282 6.407c-2.393 1.242-6.028 3.531-8.397 1.393l-.155.078 8.655 16.644c.459.882 1.025 1.714 1.012 2.58l.077.155 6.088-3.165-.079-.155c-2.71-.641-4.029-2.661-5.275-5.056-.943-1.819-1.839-3.669-2.389-5.495l9.675-5.028 3.215 6.19c.432.832.864 1.66.878 2.449l.079.155 5.512-2.865-.078-.155c-1.94-.048-3.024-2.26-3.863-3.872l-2.003-3.851Z" style="fill:#1c63b7;fill-opacity:1;fill-rule:nonzero;stroke:none" transform="translate(478.955 176.481)"/><path d="m0 0-.054-.168C-3.365-1.6-5.547-5.571-6.665-8.966c-2.876-8.68.609-17.178 9.567-20.14 8.957-2.964 18.099 1.912 21.011 10.704.845 2.556 1.398 5.338 1.501 8.084L17.4-7.671c-2.558.848-5.298 1.695-7.131-.478l-.166.053L12.918.418l.166-.056c.578-.498 1.466-.794 2.301-1.069l12.797-4.234c.832-.276 1.705-.623 2.595-.548-.635-4.728-1.237-9.345-2.733-13.854-4.709-14.239-15.278-20.061-26.459-16.362-11.961 3.958-16.273 15.938-11.818 29.401.978 2.948 2.27 5.731 3.835 8.421z" style="fill:#1c63b7;fill-opacity:1;fill-rule:nonzero;stroke:none" transform="translate(473.74 235.25)"/><path d="m0 0 2.044 7.191C3.099 10.93 2.622 15.13.619 18.48l.034.171 7.07-3.987L3.272-9.365l-.169.032c-.495 3.128-4.826 3.574-7.416 4.051l-21.725 4.018c-2.648.493-6.791 1.619-8.434-1.118l-.17.032 3.409 18.437c.18.983.48 1.938.217 2.766l.031.17 6.743-1.246-.03-.174c-2.409-1.404-3.075-3.721-3.566-6.374-.373-2.015-.688-4.043-.685-5.952l10.718-1.983 1.268 6.857c.175.923.343 1.844.123 2.601l.034.172 6.108-1.132-.035-.17c-1.841-.612-2.227-3.044-2.561-4.831l-.787-4.265z" style="fill:#1c63b7;fill-opacity:1;fill-rule:nonzero;stroke:none" transform="translate(502.826 244.057)"/></g></svg>