<svg xmlns="http://www.w3.org/2000/svg" width="381.55099mm" height="381.54883mm" viewBox="0 0 381.55099 381.54883"><g style="stroke-width:.761681" transform="matrix(1.31289 0 0 1.31289 3.067 3.403)"><circle cx="142.93387" cy="143.01776" r="141.72836" style="fill:#fff;stroke-width:.201527"/><g style="stroke-width:.162788"><g style="stroke-width:.162788"><path d="M0 0c0-33.96-27.531-61.493-61.494-61.493-33.962 0-61.492 27.533-61.492 61.493 0 33.962 27.53 61.493 61.492 61.493C-27.531 61.493 0 33.962 0 0" style="fill:#2e3192;fill-opacity:1;fill-rule:nonzero;stroke:none;stroke-width:.162788" transform="matrix(1.65064 0 0 -1.65064 244.478 142.717)"/></g><g style="stroke-width:.162788"><path d="M0 0c2.777-.395 5.238-.84 7.235-1.344 0 0 16.81-2.802 17.343-7.872 0 0 1.263-3.564-15.955-11.189zm-33.319-34.962 14.653 36.733c3.311-.211 6.577-.459 9.684-.745L.299-23.489c-7.871-5.203-33.618-11.473-33.618-11.473m19.477 48.826 3.634-9.597c-2.341.119-4.801.203-7.367.238zM30.849-8.948s.453 6.095-10.538 8.67c0 0-7.993 2.49-21.833 3.882l-12.454 29.471L-26.503 4.42c-.316-.01-.628-.016-.946-.028 0 0-22.146-.133-29.217-1.334 0 0 13.875-.078 29.217-.801l-21.345-48.825c21.824 1.661 50.133 14.163 58.832 18.69-2.298-2.25-6.791-5.164-6.791-5.164l5.342-12.077h10.14L11.137-27.41l.368.185s20.011 9.204 19.344 18.277" style="fill:#d3d2d2;fill-opacity:1;fill-rule:nonzero;stroke:none;stroke-width:.162788" transform="matrix(1.65064 0 0 -1.65064 165.245 121.34)"/></g><g style="stroke-width:.162788"><path d="M0 0c0 46.757 38.04 84.796 84.796 84.796 46.757 0 84.797-38.039 84.797-84.796 0-46.757-38.04-84.796-84.797-84.796C38.04-84.796 0-46.757 0 0m-3.236 0c0-48.54 39.492-88.032 88.032-88.032 48.542 0 88.033 39.492 88.033 88.032 0 48.541-39.491 88.032-88.033 88.032C36.256 88.032-3.236 48.541-3.236 0" style="fill:#2e3192;fill-opacity:1;fill-rule:nonzero;stroke:none;stroke-width:.162788" transform="matrix(1.65064 0 0 -1.65064 3.005 142.717)"/></g><g style="stroke-width:.162788"><path d="m0 0 3.813 1.318-3.75 1.463zm-4.118-3.697.051 2.238 2.336.838.091 4.073-2.296.894.05 2.183L6.215 2.328 6.166.152Z" style="fill:#231f20;fill-opacity:1;fill-rule:nonzero;stroke:none;stroke-width:.162788" transform="matrix(1.65064 0 0 -1.65064 20.04 141.384)"/></g><g style="stroke-width:.162788"><path d="m0 0 10.128 1.158.227-1.989L4.066-5.75l6.763.774.218-1.9L.919-8.034.685-5.982l6.136 4.838-6.604-.755z" style="fill:#231f20;fill-opacity:1;fill-rule:nonzero;stroke:none;stroke-width:.162788" transform="matrix(1.65064 0 0 -1.65064 13.536 151.7)"/></g><g style="stroke-width:.162788"><path d="m0 0-6.525-1.731.393-1.486c.148-.554.285-.948.413-1.178.166-.3.374-.533.623-.694.249-.161.613-.251 1.09-.268.477-.018 1.096.075 1.858.277.761.202 1.329.424 1.701.667.372.242.639.515.804.817.164.303.238.651.219 1.044-.011.295-.124.848-.339 1.657zm1.14 2.432.964-3.636c.217-.82.321-1.462.309-1.925a3.402 3.402 0 0 0-.514-1.726A4.438 4.438 0 0 0 .553-6.22c-.573-.382-1.32-.695-2.243-.94-.811-.215-1.537-.3-2.177-.254-.782.057-1.456.254-2.021.594-.427.256-.813.652-1.157 1.189-.256.402-.48.971-.676 1.705l-.993 3.744z" style="fill:#231f20;fill-opacity:1;fill-rule:nonzero;stroke:none;stroke-width:.162788" transform="matrix(1.65064 0 0 -1.65064 30.528 170.583)"/></g><g style="stroke-width:.162788"><path d="M0 0c-1.056-.468-1.748-1.066-2.076-1.794-.329-.729-.327-1.469.006-2.22.332-.75.875-1.245 1.629-1.486.753-.242 1.67-.123 2.751.355 1.068.473 1.76 1.061 2.079 1.762.318.701.305 1.44-.038 2.215C4.007-.393 3.464.115 2.722.354 1.979.593 1.072.475 0 0m-.923 1.91c.949.421 1.809.633 2.579.634a4.817 4.817 0 0 0 1.662-.302c.54-.199.997-.476 1.373-.833C5.194.937 5.614.322 5.95-.436c.609-1.374.669-2.661.183-3.863-.487-1.201-1.488-2.138-3.006-2.81-1.505-.667-2.863-.78-4.075-.338-1.212.441-2.121 1.345-2.728 2.716-.614 1.385-.679 2.674-.197 3.867C-3.39.328-2.406 1.254-.923 1.91" style="fill:#231f20;fill-opacity:1;fill-rule:nonzero;stroke:none;stroke-width:.162788" transform="matrix(1.65064 0 0 -1.65064 30.417 188.872)"/></g><g style="stroke-width:.162788"><path d="m0 0 8.563 5.532L9.649 3.85 6.195-3.348 11.913.346l1.038-1.606-8.562-5.532-1.121 1.734 3.353 7.06-5.583-3.607Z" style="fill:#231f20;fill-opacity:1;fill-rule:nonzero;stroke:none;stroke-width:.162788" transform="matrix(1.65064 0 0 -1.65064 30.518 208.583)"/></g><g style="stroke-width:.162788"><path d="m0 0 1.284 1.141 2.945-3.317-3.036-2.697c-.597.046-1.287.269-2.068.67-.78.4-1.449.915-2.007 1.543-.708.797-1.158 1.639-1.349 2.529-.193.891-.11 1.76.248 2.611.357.85.901 1.6 1.632 2.25.794.706 1.647 1.166 2.56 1.38.912.216 1.817.15 2.717-.2.686-.264 1.353-.76 2-1.488.841-.945 1.299-1.861 1.374-2.745.076-.885-.169-1.714-.734-2.489L3.923.463c.279.439.395.904.348 1.393-.046.488-.266.955-.661 1.398-.596.673-1.285 1.018-2.063 1.036C.768 4.309-.041 3.945-.88 3.2c-.904-.804-1.404-1.606-1.499-2.411-.096-.804.147-1.531.725-2.183a3.534 3.534 0 0 1 1.05-.801 4.494 4.494 0 0 1 1.202-.426l.967.859z" style="fill:#231f20;fill-opacity:1;fill-rule:nonzero;stroke:none;stroke-width:.162788" transform="matrix(1.65064 0 0 -1.65064 51.185 226.734)"/></g><g style="stroke-width:.162788"><path d="m0 0 5.869 8.334 1.638-1.152-.509-7.969 3.92 5.566 1.563-1.101-5.87-8.334-1.688 1.189.468 7.801-3.828-5.436Z" style="fill:#231f20;fill-opacity:1;fill-rule:nonzero;stroke:none;stroke-width:.162788" transform="matrix(1.65064 0 0 -1.65064 62.01 245.48)"/></g><g style="stroke-width:.162788"><path d="m0 0 .453 4.009-2.935-2.754Zm1.562-5.31L-.437-4.299l.25 2.468L-3.822.008l-1.796-1.687-1.948.986L.577 6.611 2.52 5.63Z" style="fill:#231f20;fill-opacity:1;fill-rule:nonzero;stroke:none;stroke-width:.162788" transform="matrix(1.65064 0 0 -1.65064 89.101 254.39)"/></g><g style="stroke-width:.162788"><path d="m0 0 2.917 7.951-2.84 1.042.594 1.619 7.605-2.79-.593-1.619-2.834 1.04L1.933-.709Z" style="fill:#231f20;fill-opacity:1;fill-rule:nonzero;stroke:none;stroke-width:.162788" transform="matrix(1.65064 0 0 -1.65064 97.348 265.185)"/></g><g style="stroke-width:.162788"><path d="m0 0 2.675 9.837 1.985-.54L1.986-.539Z" style="fill:#231f20;fill-opacity:1;fill-rule:nonzero;stroke:none;stroke-width:.162788" transform="matrix(1.65064 0 0 -1.65064 109.041 269.06)"/></g><g style="stroke-width:.162788"><path d="M0 0c-.195-1.138-.08-2.045.345-2.723.425-.677 1.042-1.085 1.85-1.223.809-.139 1.522.039 2.141.532.618.494 1.027 1.323 1.226 2.488.198 1.153.093 2.054-.315 2.707-.407.653-1.029 1.051-1.865 1.195-.837.143-1.56-.029-2.17-.513C.603 1.977.198 1.156 0 0m-2.103.289c.176 1.023.477 1.857.902 2.498.316.473.707.879 1.172 1.218a3.97 3.97 0 0 0 1.453.682c.672.158 1.416.167 2.234.026 1.481-.253 2.586-.916 3.318-1.986.731-1.071.957-2.424.675-4.06-.277-1.622-.936-2.815-1.974-3.581-1.039-.764-2.297-1.02-3.773-.768-1.494.256-2.603.916-3.329 1.979-.725 1.062-.951 2.393-.678 3.992" style="fill:#231f20;fill-opacity:1;fill-rule:nonzero;stroke:none;stroke-width:.162788" transform="matrix(1.65064 0 0 -1.65064 121.498 263.496)"/></g><g style="stroke-width:.162788"><path d="m0 0-.33 10.188 2.002.065 4.39-6.669-.22 6.804 1.911.062L8.082.261 6.019.194 1.696 6.706 1.911.062Z" style="fill:#231f20;fill-opacity:1;fill-rule:nonzero;stroke:none;stroke-width:.162788" transform="matrix(1.65064 0 0 -1.65064 138.48 274.227)"/></g><g style="stroke-width:.162788"><path d="m0 0-2.072 3.461-.662-3.971Zm4.464-3.271-2.201-.411L.964-1.568l-4.006-.745-.403-2.431-2.147-.4 2.038 10.748 2.14.399z" style="fill:#231f20;fill-opacity:1;fill-rule:nonzero;stroke:none;stroke-width:.162788" transform="matrix(1.65064 0 0 -1.65064 165.445 264.956)"/></g><g style="stroke-width:.162788"><path d="m0 0-3.217 9.585 1.951.655 2.67-7.957 4.853 1.629.546-1.629Z" style="fill:#231f20;fill-opacity:1;fill-rule:nonzero;stroke:none;stroke-width:.162788" transform="matrix(1.65064 0 0 -1.65064 176.945 269.073)"/></g><g style="stroke-width:.162788"><path d="m0 0 1.777 1.038L4.561-3.73c.441-.756.75-1.235.924-1.432.286-.317.637-.5 1.05-.551.414-.052.869.068 1.365.358.505.294.825.619.961.975s.142.698.019 1.03c-.123.33-.388.844-.795 1.54L5.242 3.061 7.02 4.098 9.719-.525c.617-1.057 1.005-1.832 1.164-2.325a2.88 2.88 0 0 0 .113-1.416c-.083-.45-.289-.89-.617-1.322-.328-.43-.841-.849-1.537-1.255-.841-.491-1.535-.765-2.083-.825-.548-.06-1.038-.008-1.472.155a2.82 2.82 0 0 0-1.068.685c-.41.437-.904 1.148-1.478 2.133Z" style="fill:#231f20;fill-opacity:1;fill-rule:nonzero;stroke:none;stroke-width:.162788" transform="matrix(1.65064 0 0 -1.65064 191.141 245.623)"/></g><g style="stroke-width:.162788"><path d="m0 0-6.422 7.916 1.556 1.262L2.662 6.52l-4.289 5.286 1.485 1.205L6.28 5.095 4.677 3.794l-7.379 2.572 4.187-5.162Z" style="fill:#231f20;fill-opacity:1;fill-rule:nonzero;stroke:none;stroke-width:.162788" transform="matrix(1.65064 0 0 -1.65064 216.273 249.89)"/></g><g style="stroke-width:.162788"><path d="m0 0-7.205 7.211 1.456 1.455 7.205-7.211Z" style="fill:#231f20;fill-opacity:1;fill-rule:nonzero;stroke:none;stroke-width:.162788" transform="matrix(1.65064 0 0 -1.65064 230.552 237.603)"/></g><g style="stroke-width:.162788"><path d="m0 0-10.168 3.716 1.428 1.716 7.45-2.84-4.205 6.743 1.395 1.679 5.504-9.325Z" style="fill:#231f20;fill-opacity:1;fill-rule:nonzero;stroke:none;stroke-width:.162788" transform="matrix(1.65064 0 0 -1.65064 239.326 228.218)"/></g><g style="stroke-width:.162788"><path d="m0 0-8.271 5.958 4.418 6.133 1.4-1.009-3.215-4.462 1.833-1.321 2.992 4.152L.551 8.447l-2.992-4.152L-.19 2.674l3.329 4.619L4.532 6.29Z" style="fill:#231f20;fill-opacity:1;fill-rule:nonzero;stroke:none;stroke-width:.162788" transform="matrix(1.65064 0 0 -1.65064 248.324 218.055)"/></g><g style="stroke-width:.162788"><path d="m0 0 .701 1.353c.454.876.701 1.442.74 1.699.039.256 0 .493-.117.711-.117.217-.311.396-.583.537-.304.158-.593.204-.864.138-.272-.066-.509-.233-.712-.503-.098-.138-.338-.578-.722-1.319l-.739-1.426Zm4.276-4.534L-4.774.157l1.994 3.846c.501.967.946 1.627 1.336 1.981.39.355.861.556 1.413.603.552.049 1.095-.066 1.631-.344.679-.351 1.136-.842 1.372-1.471.235-.628.205-1.369-.092-2.223.435.275.857.47 1.266.585.41.113 1.08.207 2.009.278l2.338.191L7.36 1.417l-2.653-.301C3.76 1.013 3.149.921 2.877.843a1.579 1.579 0 0 1-.661-.354c-.168-.158-.362-.447-.579-.867l-.192-.371 3.778-1.958Z" style="fill:#231f20;fill-opacity:1;fill-rule:nonzero;stroke:none;stroke-width:.162788" transform="matrix(1.65064 0 0 -1.65064 251.554 195.631)"/></g><g style="stroke-width:.162788"><path d="m0 0 .459 1.959c.675-.103 1.221-.029 1.638.219.417.248.725.668.926 1.26.213.628.241 1.146.083 1.554-.157.408-.414.673-.769.793a.928.928 0 0 1-.651-.003c-.206-.079-.424-.266-.657-.559-.156-.202-.472-.674-.95-1.417-.613-.958-1.181-1.583-1.701-1.876-.732-.412-1.48-.49-2.244-.231a2.618 2.618 0 0 0-1.238.887c-.333.424-.523.935-.569 1.536-.046.601.057 1.272.309 2.014.411 1.212.985 2.034 1.724 2.466.74.432 1.557.513 2.454.244l-.575-1.979c-.524.084-.942.027-1.252-.174-.31-.201-.558-.575-.745-1.125-.192-.566-.225-1.048-.101-1.448a.74.74 0 0 1 .494-.513c.227-.077.456-.046.683.092.29.176.708.699 1.253 1.572.546.872 1.015 1.495 1.408 1.868.394.373.841.619 1.343.734.502.116 1.059.07 1.669-.137a2.992 2.992 0 0 0 1.398-.987c.379-.472.59-1.027.634-1.669.044-.642-.076-1.382-.36-2.221C4.249 1.64 3.649.798 2.863.335 2.077-.128 1.123-.24 0 0" style="fill:#231f20;fill-opacity:1;fill-rule:nonzero;stroke:none;stroke-width:.162788" transform="matrix(1.65064 0 0 -1.65064 261.679 184.668)"/></g><g style="stroke-width:.162788"><path d="m0 0-9.96 2.173.439 2.011L.438 2.01Z" style="fill:#231f20;fill-opacity:1;fill-rule:nonzero;stroke:none;stroke-width:.162788" transform="matrix(1.65064 0 0 -1.65064 272.298 168.684)"/></g><g style="stroke-width:.162788"><path d="m0 0-8.422.891-.318-3.008-1.715.18.851 8.056 1.715-.181-.317-3 8.423-.891z" style="fill:#231f20;fill-opacity:1;fill-rule:nonzero;stroke:none;stroke-width:.162788" transform="matrix(1.65064 0 0 -1.65064 274.476 156.359)"/></g><g style="stroke-width:.162788"><path d="m0 0-4.285-.211-5.714-4.018-.118 2.411L-6.206.775l-4.144 2.15-.116 2.368 6.094-3.453 4.271.209z" style="fill:#231f20;fill-opacity:1;fill-rule:nonzero;stroke:none;stroke-width:.162788" transform="matrix(1.65064 0 0 -1.65064 275.229 138.882)"/></g><g style="stroke-width:.162788"><path d="M0 0a1.462 1.462 0 1 0-2.924 0A1.462 1.462 0 0 0 0 0" style="fill:#231f20;fill-opacity:1;fill-rule:nonzero;stroke:none;stroke-width:.162788" transform="matrix(1.65064 0 0 -1.65064 27.34 114.637)"/></g><g style="stroke-width:.162788"><path d="M0 0a1.463 1.463 0 1 0-2.925 0A1.463 1.463 0 0 0 0 0" style="fill:#231f20;fill-opacity:1;fill-rule:nonzero;stroke:none;stroke-width:.162788" transform="matrix(1.65064 0 0 -1.65064 264.317 114.938)"/></g><g style="stroke-width:.162788"><path d="M0 0a1.538 1.538 0 1 0 .001 3.075A1.538 1.538 0 0 0 0 0m0 5.137a3.6 3.6 0 0 1 0-7.198 3.6 3.6 0 0 1 0 7.198" style="fill:#231f20;fill-opacity:1;fill-rule:nonzero;stroke:none;stroke-width:.162788" transform="matrix(1.65064 0 0 -1.65064 143.045 32.806)"/></g><g style="stroke-width:.162788"><path d="M0 0v1.313h5.642v1.803H-4.711s-1.163-.058-1.221.756v.524l11.342.041-.002 1.877H-8.199V3.989s-.323-2.67 2.5-2.676h3.238V0h-6.953v-1.854H7.024V0Z" style="fill:#231f20;fill-opacity:1;fill-rule:nonzero;stroke:none;stroke-width:.162788" transform="matrix(1.65064 0 0 -1.65064 144.87 20.521)"/></g><g style="stroke-width:.162788"><path d="M0 0c-.835-.304-1.748.097-2.038.895-.291.797.15 1.691.986 1.995.835.304 1.747-.096 2.038-.895C1.276 1.197.835.304 0 0m-1.757 4.826C-3.711 4.115-4.744 2.024-4.064.157-3.385-1.71-1.25-2.647.704-1.937c1.954.711 2.988 2.803 2.309 4.67-.68 1.868-2.816 2.805-4.77 2.093" style="fill:#231f20;fill-opacity:1;fill-rule:nonzero;stroke:none;stroke-width:.162788" transform="matrix(1.65064 0 0 -1.65064 96.461 30.328)"/></g><g style="stroke-width:.162788"><path d="m0 0 1.959.713L.233 5.457l-.328.9s-.324.653.653.981l.611.223-.588 1.656-1.116-.388s-2.448-.802-1.474-3.39z" style="fill:#231f20;fill-opacity:1;fill-rule:nonzero;stroke:none;stroke-width:.162788" transform="matrix(1.65064 0 0 -1.65064 112.518 30.514)"/></g><g style="stroke-width:.162788"><path d="m0 0 1.858.7.673-1.848s.261-.943 1.389-.569l10.106 3.678.548-1.508-10.173-3.73S1.705-4.579.946-2.496z" style="fill:#231f20;fill-opacity:1;fill-rule:nonzero;stroke:none;stroke-width:.162788" transform="matrix(1.65064 0 0 -1.65064 94.372 37.703)"/></g><g style="stroke-width:.162788"><path d="m0 0 .598 1.643-7.003 2.548-2.61-7.17s-.936-2.307 1.175-3.236l4.926-1.793.658 1.809-3.685 1.342s-1.428.406-.771 1.95l1.787 4.7z" style="fill:#231f20;fill-opacity:1;fill-rule:nonzero;stroke:none;stroke-width:.162788" transform="matrix(1.65064 0 0 -1.65064 184.861 22.006)"/></g><g style="stroke-width:.162788"><path d="m0 0-4.549-12.498 1.945-.708L.749-3.992l.231.637.354.972.737-.268s.818-.226.564-1.268L-.951-13.77l2.044-.744.037.1 3.573 9.818S5.827-2.235 3.33-1.174z" style="fill:#231f20;fill-opacity:1;fill-rule:nonzero;stroke:none;stroke-width:.162788" transform="matrix(1.65064 0 0 -1.65064 188.21 20.03)"/></g><g style="stroke-width:.162788"><path d="m0 0 6.286 5.274s.46.419.782.116l.267-.318L.533-.635l1.53-1.824s.933-1.312 2.433.081l6.861 5.757-.981 1.17L4.149-.676l-.357-.299s-.365-.259-.646.166l-.267.319 6.623 5.556-1.597 1.905s-.689.941-2.078-.021l-6.85-5.737z" style="fill:#231f20;fill-opacity:1;fill-rule:nonzero;stroke:none;stroke-width:.162788" transform="matrix(1.65064 0 0 -1.65064 51.665 52.117)"/></g><g style="stroke-width:.162788"><path d="m0 0-1.536-1.289-3.96 4.719 1.536 1.289Z" style="fill:#231f20;fill-opacity:1;fill-rule:nonzero;stroke:none;stroke-width:.162788" transform="matrix(1.65064 0 0 -1.65064 75.147 42.175)"/></g><g style="stroke-width:.162788"><path d="m0 0-6.644-5.574s-.852-.715-1.626.528L-.933 1.11zm-2.49 3.048.682-.814-7.377-6.189-.698.832-1.473-1.238 2.224-2.652s1.108-1.633 2.651-.486L2.596.111-.956 4.329z" style="fill:#231f20;fill-opacity:1;fill-rule:nonzero;stroke:none;stroke-width:.162788" transform="matrix(1.65064 0 0 -1.65064 78.477 51.43)"/></g><g style="stroke-width:.162788"><path d="m0 0-1.301-1.511 7.832-6.572s.681-.533.099-1.342l-1.11-1.342 1.539-1.275 1.476 1.739s1.728 1.753-.264 3.327z" style="fill:#231f20;fill-opacity:1;fill-rule:nonzero;stroke:none;stroke-width:.162788" transform="matrix(1.65064 0 0 -1.65064 208.33 45.152)"/></g><g style="stroke-width:.162788"><path d="m0 0 1.551-1.291 2.592 3.089.616.733s.406.606 1.142-.047l.477-.399 1.113 1.328-.874.733s-1.706 1.688-3.538-.475z" style="fill:#231f20;fill-opacity:1;fill-rule:nonzero;stroke:none;stroke-width:.162788" transform="matrix(1.65064 0 0 -1.65064 223.456 55.723)"/></g><g style="stroke-width:.162788"><path d="M0 0a1.538 1.538 0 1 0 1.978 2.355A1.538 1.538 0 0 0 0 0m7.066.727L4.253 3.088l1.009 1.201-1.721 1.444-1.009-1.202-3.005 2.522-1.145-1.366L-.264 4.55A3.598 3.598 0 1 1 4.525.531l1.396-1.17z" style="fill:#231f20;fill-opacity:1;fill-rule:nonzero;stroke:none;stroke-width:.162788" transform="matrix(1.65064 0 0 -1.65064 217.224 45.48)"/></g><g style="stroke-width:.162788"><path d="m0 0-1.502.867-.625-1.079L-3.8.76c-2.269 1.466-3.685-.988-3.685-.988l-5.328-9.228 1.752-1.012 5.059 8.762c.775 1.265 1.726.56 1.726.56l1.209-.698-6.498-11.255 1.502-.867 3.52 6.098 1.997-1.153-2.845-4.9 1.744-1.014 5.018 8.739s.5 1.13 1.48.58l1.49-.861.975 1.699-2.004 1.167S1.26-2.207.028-4.585l-1.56-2.69-2.001 1.155z" style="fill:#231f20;fill-opacity:1;fill-rule:nonzero;stroke:none;stroke-width:.162788" transform="matrix(1.65064 0 0 -1.65064 44.914 73.106)"/></g><g style="stroke-width:.162788"><path d="m0 0 6.662 3.847c2.24 1.574.624 3.79.624 3.79L1.93 16.914l-1.567-.909 5.057-8.75c.665-1.346-.949-2.144-.949-2.144l-5.567-3.214-1.144 1.982 5.12 2.955-.984 1.68-5.11-2.948-1.266 2.193 5.102 2.946-.974 1.687-5.102-2.947-2.143 3.711-1.602-.925L-.945-2.064l1.602.925z" style="fill:#231f20;fill-opacity:1;fill-rule:nonzero;stroke:none;stroke-width:.162788" transform="matrix(1.65064 0 0 -1.65064 245.773 96.675)"/></g></g></g></svg>