<svg xmlns="http://www.w3.org/2000/svg" xml:space="preserve" width="597.11597" height="621.68298" viewBox="0 0 597.11597 621.68298"><defs><clipPath id="a" clipPathUnits="userSpaceOnUse"><path d="M0 792h612V0H0Z"/></clipPath></defs><g clip-path="url(#a)" transform="matrix(2.35127 0 0 -2.35127 -422.34 1241.26)"><path d="m0 0 .338-20.951c21.961 0 23.99-22.974 23.99-22.974h5.553v22.118c-3.284.424-5.825 3.201-5.825 6.599a6.69 6.69 0 0 0 6.688 6.692 6.69 6.69 0 0 0 6.694-6.692c0-3.282-2.372-6-5.49-6.571v-22.146h4.541c0 22.301 25.676 22.974 25.676 22.974V0Z" style="fill:#2e3092;fill-opacity:1;fill-rule:nonzero;stroke:none" transform="translate(276.663 438.353)"/><path d="M0 0h39.87l5.742-5.739L51.693.339h38.853l7.101-13.856H57.436L54.4-17.233H36.828l-2.365 3.382H-7.433Z" style="fill:#2e3092;fill-opacity:1;fill-rule:nonzero;stroke:none" transform="translate(261.46 390.034)"/><path d="M0 0h.412c1.252 0 2.197.296 2.839.879.494.471.756 1.038.779 1.703h2.404v-15.053H3.503V-2.08H0Z" style="fill:#2e3092;fill-opacity:1;fill-rule:nonzero;stroke:none" transform="translate(282.924 365.49)"/><path d="M0 0c.342-.366.846-.553 1.513-.553.577 0 1.065.202 1.456.611.486.478.729 1.186.729 2.111 0 .93-.198 1.645-.591 2.154-.379.502-.943.759-1.691.759-.537 0-.982-.16-1.336-.49-.514-.455-.766-1.182-.766-2.182C-.686 1.275-.455.47 0 0m-.385-4.352v-.019c.053-.514.236-.891.551-1.14.283-.233.67-.353 1.152-.353.681 0 1.227.296 1.645.906.51.708.766 1.796.766 3.259l-.021.081c-.312-.463-.745-.793-1.291-1.003-.445-.187-.96-.273-1.55-.273-1.382 0-2.484.483-3.307 1.447-.774.883-1.155 2.03-1.155 3.445 0 1.816.475 3.2 1.429 4.185.885.87 2.09 1.309 3.603 1.309 1.188 0 2.175-.306 2.953-.921.669-.525 1.184-1.263 1.55-2.228.288-.742.482-1.637.589-2.659.064-.622.095-1.358.095-2.237 0-2.675-.562-4.674-1.682-5.992-.927-1.093-2.14-1.641-3.641-1.641-1.28 0-2.339.35-3.175 1.039-.848.684-1.324 1.618-1.427 2.795z" style="fill:#2e3092;fill-opacity:1;fill-rule:nonzero;stroke:none" transform="translate(298.019 360.91)"/><path d="M0 0a1.993 1.993 0 0 1-1.416.553c-.63 0-1.144-.203-1.532-.588-.463-.459-.688-1.143-.688-2.045 0-.836.21-1.521.626-2.057.42-.537.976-.805 1.672-.805.591 0 1.073.233 1.454.708.42.505.63 1.252.63 2.216C.746-1.12.497-.443 0 0m.458 4.499c-.073.49-.229.855-.466 1.124-.288.334-.7.505-1.233.505-.875 0-1.52-.482-1.94-1.454-.335-.766-.506-1.762-.506-2.99l.04-.085c.255.384.567.672.917.866.482.268 1.104.409 1.859.409 1.423 0 2.547-.482 3.367-1.443.732-.878 1.097-1.949 1.097-3.216 0-1.625-.444-2.963-1.33-3.993C1.376-6.785.229-7.279-1.183-7.279c-2.06 0-3.522.781-4.385 2.36-.654 1.217-.977 2.979-.977 5.288-.016 2.182.259 3.893.82 5.141.871 1.96 2.435 2.943 4.679 2.943.603 0 1.154-.081 1.668-.232.638-.188 1.139-.483 1.501-.903.275-.256.528-.63.746-1.112.265-.56.42-1.132.475-1.707Z" style="fill:#2e3092;fill-opacity:1;fill-rule:nonzero;stroke:none" transform="translate(313.519 359.95)"/><path d="M0 0c-1.136-1.299-2.154-2.843-3.072-4.644-1.4-2.729-2.17-5.443-2.31-8.146h-2.994c.117 2.536.871 5.168 2.267 7.914.996 1.951 1.999 3.472 3.017 4.533h-7.399v2.606H0Z" style="fill:#2e3092;fill-opacity:1;fill-rule:nonzero;stroke:none" transform="translate(329.873 365.81)"/><path d="M0 0c-.391-.462-.589-.956-.582-1.478.002-.8.461-1.605 1.374-2.41.646-.572 1.248-.941 1.795-1.096.718-.203 1.313-.039 1.786.493.359.408.449.89.268 1.447-.135.397-.482.968-1.04 1.727L2.677.043c-.47.677-.809 1.179-1.013 1.52-.317.56-.531 1.062-.643 1.525a3.132 3.132 0 0 0 .023 1.641c.175.586.521 1.17 1.046 1.765.764.883 1.676 1.396 2.738 1.544 1.493.202 3.028-.396 4.619-1.809 1.501-1.322 2.249-2.776 2.24-4.354-.004-1.167-.397-2.217-1.185-3.15L8.31.669c.326.482.497.949.505 1.393-.002.781-.44 1.554-1.309 2.325-.515.459-1.03.738-1.553.855-.64.132-1.164-.031-1.577-.494-.326-.373-.445-.769-.354-1.189.051-.257.21-.58.473-.996l.017-.031 2.1-3.111c.714-1.007 1.126-1.894 1.239-2.649.153-1.034-.189-2.025-1.031-2.974-1.275-1.45-2.803-1.94-4.58-1.489-1.093.276-2.112.825-3.057 1.669C-2.611-4.437-3.5-2.826-3.49-1.186c.006 1.148.428 2.213 1.27 3.158z" style="fill:#2e3092;fill-opacity:1;fill-rule:nonzero;stroke:none" transform="translate(265.748 349.003)"/><path d="M0 0c.15.75.166 1.349.049 1.812-.216.824-.809 1.477-1.785 1.959-.873.428-1.746.487-2.621.16-1.166-.436-2.17-1.501-3.01-3.216-.649-1.319-.923-2.52-.816-3.597.119-1.221.741-2.115 1.866-2.671.767-.374 1.501-.459 2.207-.257.717.195 1.367.665 1.952 1.415L.647-5.767C-.429-7.179-1.648-8.073-3.005-8.489c-1.478-.451-3.008-.287-4.599.494-1.837.898-2.996 2.221-3.478 3.974-.515 1.835-.208 3.892.916 6.186C-9.056 4.417-7.6 5.906-5.797 6.61c1.697.657 3.441.548 5.23-.331 1.8-.886 2.963-2.142 3.489-3.763.416-1.327.375-2.625-.118-3.897Z" style="fill:#2e3092;fill-opacity:1;fill-rule:nonzero;stroke:none" transform="translate(286.818 341.491)"/><path d="m0 0-3.01.802L.914 15.5l3.005-.797Z" style="fill:#2e3092;fill-opacity:1;fill-rule:nonzero;stroke:none" transform="translate(292.29 329.156)"/><path d="m0 0-7.82.622-.252-3.204 7.154-.579-.214-2.649-7.154.569-.321-3.944 8.148-.645-.216-2.687-11.185.899 1.217 15.181L.214 2.691z" style="fill:#2e3092;fill-opacity:1;fill-rule:nonzero;stroke:none" transform="translate(308.743 339.636)"/><path d="m0 0 2.823.51 2.691-14.971-3.018-.549-7.847 9.593-.058-.008 1.925-10.658-2.846-.521-2.699 14.975 3.235.587 7.652-9.41h.02z" style="fill:#2e3092;fill-opacity:1;fill-rule:nonzero;stroke:none" transform="translate(318.985 343.948)"/><path d="M0 0c-.498.572-.965.957-1.408 1.155-.781.326-1.664.261-2.64-.221-.867-.432-1.45-1.085-1.73-1.972-.366-1.19-.137-2.637.7-4.352.653-1.317 1.438-2.27 2.352-2.841 1.039-.662 2.127-.708 3.254-.152.763.377 1.284.902 1.556 1.578.28.689.308 1.49.07 2.419l2.808 1.372c.451-1.711.42-3.227-.082-4.548-.549-1.452-1.609-2.563-3.204-3.345-1.835-.902-3.593-1.003-5.269-.315-1.773.711-3.219 2.216-4.336 4.503-1.108 2.263-1.388 4.32-.843 6.171.513 1.749 1.668 3.064 3.453 3.943 1.803.882 3.507 1.034 5.117.462 1.303-.482 2.306-1.306 3.01-2.476z" style="fill:#2e3092;fill-opacity:1;fill-rule:nonzero;stroke:none" transform="translate(333.948 344.566)"/><path d="m0 0-5.918-5.145 2.111-2.422L1.61-2.858l1.75-2.015-5.421-4.708 2.602-2.99 6.163 5.362L8.47-9.228 0-16.592l-9.993 11.49 8.217 7.139z" style="fill:#2e3092;fill-opacity:1;fill-rule:nonzero;stroke:none" transform="translate(345.115 356.193)"/><path d="m0 0-2.465 3.395-11.565-8.423 2.53-3.476c.97-1.334 2.325-1.871 4.062-1.618 1.446.186 2.998.883 4.662 2.093C-.47-6.35.784-4.729.994-3.153 1.125-2.143.795-1.093 0 0" style="fill:#2e3092;fill-opacity:1;fill-rule:nonzero;stroke:none" transform="translate(235.415 336.102)"/><path d="M0 0c-1.26.653-2.598.747-4.005.292-1.432-.455-2.47-1.318-3.119-2.574-.828-1.654-.828-3.773.008-6.365.825-2.582 2.054-4.29 3.686-5.125 1.252-.654 2.598-.744 4.029-.281 1.412.451 2.442 1.307 3.091 2.563.852 1.636.868 3.748.039 6.326C2.894-2.57 1.648-.855 0 0" style="fill:#2e3092;fill-opacity:1;fill-rule:nonzero;stroke:none" transform="translate(341.577 306.176)"/><path d="M0 0c-1.845-.07-3.7-1.093-5.568-3.084-1.857-1.963-2.757-3.868-2.703-5.7.037-1.415.607-2.636 1.695-3.667 1.081-1.011 2.33-1.501 3.742-1.458 1.848.035 3.701 1.042 5.556 3.021C4.59-8.916 5.499-6.983 5.444-5.129c-.043 1.415-.601 2.633-1.682 3.651C2.671-.455 1.417.043 0 0" style="fill:#2e3092;fill-opacity:1;fill-rule:nonzero;stroke:none" transform="translate(246.746 322.41)"/><path d="m0 0 2.039-5.141L9.054.537l-.035.077Z" style="fill:#2e3092;fill-opacity:1;fill-rule:nonzero;stroke:none" transform="translate(205.695 371.467)"/><path d="m0 0 4.387 14.959 3.72-1.089L4.954 3.096l4.417-1.295 2.89 9.868 3.643-1.077L13.011.731l5.428-1.586 3.29 11.222 3.686-1.077-4.519-15.418zm17.397-14.9-2.465 1.162c.688-.323 1.104-1.119 1.255-2.403.184-1.435-.12-2.982-.905-4.63-1.175-2.474-3.006-4.115-5.499-4.913-2.698-.863-5.669-.532-8.896.993-2.908 1.387-4.947 3.265-6.113 5.633-1.318 2.692-1.259 5.573.199 8.629C-3.764-7.75-1.979-5.973.304-5.113c1.839.665 3.62.684 5.35.035L3.745-9.087c-.218.112-.537.14-.961.124a5.52 5.52 0 0 1-1.446-.276 5.635 5.635 0 0 1-1.56-.886 5.341 5.341 0 0 1-1.283-1.73c-.742-1.564-.805-3.108-.194-4.605.708-1.695 2.228-3.091 4.569-4.203 2.403-1.14 4.441-1.392 6.112-.755 1.354.529 2.412 1.587 3.163 3.174.485 1.018.703 2.041.652 3.067-.069 1.672-.944 2.906-2.624 3.71l-2.119-4.468-3.251 1.54 3.822 8.049 10.464-4.973zM-1.478-46.385l-17.505 12.952 9.27 12.533 3.118-2.314-6.673-9.017 3.703-2.749 6.112 8.27 3.057-2.259-6.113-8.262 4.542-3.369 6.956 9.403 3.083-2.282zm-14.814-14.299L-30.858-44.48l3.301 2.979 11.926-13.26 7.808 7.023 2.644-2.948zm-17.444-10.964-10.957 18.839 3.841 2.24 8.971-15.422 9.071 5.285 1.996-3.422zm-9.784-2.625c-1.287-1.758-3.017-2.979-5.202-3.687-2.201-.699-4.332-.711-6.396-.034-3.135 1.038-5.37 3.642-6.708 7.823-1.354 4.215-1.066 7.652.879 10.32 1.267 1.73 3.017 2.959 5.233 3.67 2.201.697 4.324.724 6.362.059 3.15-1.034 5.405-3.655 6.754-7.866 1.342-4.188 1.035-7.61-.922-10.285m-23.054-5.81c-1.427-1.695-3.395-2.69-5.914-2.99-2.901-.346-5.324.343-7.26 2.069-2.033 1.808-3.271 4.518-3.702 8.143-.424 3.581.168 6.493 1.777 8.737 1.517 2.119 3.691 3.344 6.525 3.674 2.846.346 5.218-.256 7.124-1.8 1.524-1.264 2.496-2.851 2.885-4.768l-4.441-.524c-.397 1.015-.856 1.753-1.353 2.216-.902.824-2.123 1.147-3.671.965-1.376-.164-2.468-.786-3.274-1.852-1.061-1.431-1.431-3.499-1.108-6.205.253-2.093.859-3.745 1.824-4.954 1.097-1.381 2.535-1.964 4.316-1.758 1.217.148 2.17.61 2.854 1.403.708.794 1.124 1.875 1.24 3.228l4.445.525c-.202-2.527-.964-4.557-2.267-6.109m-27.769 11.18-4.342.952c.057.233.02.556-.101.961a5.17 5.17 0 0 1-.585 1.353 5.736 5.736 0 0 1-1.217 1.319 5.453 5.453 0 0 1-1.974.855c-1.701.369-3.209.089-4.536-.844-1.487-1.074-2.507-2.874-3.062-5.401-.571-2.594-.358-4.64.648-6.124.815-1.198 2.08-1.983 3.797-2.365 1.102-.244 2.148-.225 3.138.051 1.61.443 2.621 1.579 3.017 3.402l-4.827 1.057.77 3.508 8.694-1.913-2.482-11.315-3.869.855.583 2.652c-.163-.739-.85-1.329-2.063-1.761-1.359-.502-2.93-.549-4.721-.159-2.669.587-4.677 2.002-6.023 4.246-1.452 2.433-1.794 5.4-1.028 8.896.69 3.146 2.063 5.553 4.11 7.229 2.325 1.889 5.144 2.476 8.455 1.75 2.893-.634 5.016-1.972 6.371-4.005 1.062-1.642 1.476-3.372 1.247-5.199m-33.355-5.288-.002 17.731-.074.038-7.528-13.555-3.603 2.015 10.579 19.025 4.094-2.274-.058-17.351.025-.01 7.376 13.278 3.605-1.994-10.576-19.042zm-21.175 12.186c-2.154.272-4.067 1.193-5.737 2.769-1.68 1.582-2.724 3.449-3.127 5.58-.606 3.238.597 6.466 3.607 9.658 3.035 3.224 6.194 4.624 9.464 4.215 2.129-.28 4.042-1.213 5.74-2.819 1.681-1.575 2.723-3.429 3.128-5.541.614-3.251-.593-6.49-3.628-9.71-3.011-3.188-6.161-4.58-9.447-4.152m-21.981 20.62-5.431 7.462 17.607 12.809 5.512-7.575c1.865-2.563 2.251-5.156 1.163-7.785-.813-1.936-2.308-3.706-4.493-5.292-2.382-1.73-4.738-2.714-7.066-2.939-3.033-.308-5.465.797-7.292 3.32m-10.633 16.445 9.604 14.908-.039.074-13.666-7.311-1.944 3.628 19.201 10.274 2.213-4.134-9.451-14.547.015-.03 13.396 7.17 1.942-3.632-19.201-10.273zm-9.56 19.376 3.665 2.97-2.96 7.47-4.732-.269-1.722 4.332 23.08.879 1.882-4.759-17.45-15.068zm171.62 28.782c-.505-35.707-29.591-64.505-65.421-64.505-35.83 0-64.92 28.798-65.417 64.505h-62.208c.504-69.704 57.155-126.056 126.976-126.056 69.823 0 126.474 56.352 126.979 126.056z" style="fill:#2e3092;fill-opacity:1;fill-rule:nonzero;stroke:none" transform="translate(392.096 366.346)"/><path d="M0 0v-9.355c.315-.082.622-.179.941-.265v9.375C.622-.167.315-.074 0 0" style="fill:#231f20;fill-opacity:1;fill-rule:nonzero;stroke:none" transform="translate(336.203 514.006)"/><path d="M0 0h8.586c-1.858 56.729-40.93 104.02-93.587 118.303v-9.414C-37.216 95.061-1.843 51.736 0 0" style="fill:#00aeef;fill-opacity:1;fill-rule:nonzero;stroke:none" transform="translate(424.922 394.735)"/><path d="M0 0v-15.161c.315-.101.622-.214.941-.315V-.272C.622-.187.315-.085 0 0" style="fill:#231f20;fill-opacity:1;fill-rule:nonzero;stroke:none" transform="translate(336.203 497.947)"/><path d="M0 0h14.574c-1.819 48.139-34.343 88.528-78.515 102.126V86.794C-27.907 73.822-1.734 40.028 0 0" style="fill:#00aeef;fill-opacity:1;fill-rule:nonzero;stroke:none" transform="translate(403.862 394.735)"/><path d="M0 0v15.067c-1.18-.287-2.349-.606-3.515-.933V-1.069A116.2 116.2 0 0 0 0 0" style="fill:#231f20;fill-opacity:1;fill-rule:nonzero;stroke:none" transform="translate(280.95 483.556)"/><path d="M0 0h14.57c1.738 40.055 27.954 73.834 64.027 86.787v15.347C34.384 88.56 1.812 48.167 0 0" style="fill:#00aeef;fill-opacity:1;fill-rule:nonzero;stroke:none" transform="translate(196.065 394.735)"/><path d="M0 0h24.859C23.164 36.416-.214 67.228-32.62 79.861V52.459C-14.189 41.82-1.442 22.448 0 0" style="fill:#00aeef;fill-opacity:1;fill-rule:nonzero;stroke:none" transform="translate(372.541 394.735)"/><path d="M0 0v-26.772c.315-.16.622-.323.941-.486V-.342C.622-.226.315-.109 0 0" style="fill:#231f20;fill-opacity:1;fill-rule:nonzero;stroke:none" transform="translate(336.203 475.961)"/><path d="M0 0h24.869c1.436 22.483 14.221 41.867 32.694 52.502v27.41C25.106 67.302 1.693 36.446 0 0" style="fill:#00aeef;fill-opacity:1;fill-rule:nonzero;stroke:none" transform="translate(217.1 394.735)"/><path d="M0 0v26.415a92.586 92.586 0 0 1-3.515-1.159V-1.68A65.756 65.756 0 0 0 0 0" style="fill:#231f20;fill-opacity:1;fill-rule:nonzero;stroke:none" transform="translate(280.95 450.422)"/><path d="M0 0h9.885c1.843 51.767 37.261 95.112 85.087 108.908v9.783C41.614 104.868 1.876 57.227 0 0" style="fill:#00aeef;fill-opacity:1;fill-rule:nonzero;stroke:none" transform="translate(179.69 394.735)"/><path d="M0 0h-1.501C-.999-.117-.497-.229 0-.354Z" style="fill:#fff;fill-opacity:1;fill-rule:nonzero;stroke:none" transform="translate(336.203 514.36)"/><path d="M0 0h-22.055c-1 .066-2.003.117-3.006.156v6.89a3.677 3.677 0 0 1-3.667 3.663h-.931a3.677 3.677 0 0 1-3.669-3.663V.241A134.458 134.458 0 0 1-38.814 0h-20.714v-3.08c-.017-.003-.043-.007-.064-.015v-9.698l.064.012v-56.274a3.674 3.674 0 0 1 3.665-3.663h.937a3.673 3.673 0 0 1 3.663 3.663v59.878c0 .125-.023.241-.039.366h8.891c-.016-.125-.037-.241-.037-.366v-59.878a3.675 3.675 0 0 1 3.665-3.663h.933a3.676 3.676 0 0 1 3.665 3.663v59.878c0 .125-.023.241-.037.366h8.889c-.012-.125-.035-.241-.035-.366v-59.878a3.675 3.675 0 0 1 3.663-3.663h.934a3.678 3.678 0 0 1 3.666 3.663v59.878c0 .125-.027.241-.039.366h8.889c-.012-.125-.035-.241-.035-.366v-59.878a3.675 3.675 0 0 1 3.663-3.663h.934a3.678 3.678 0 0 1 3.666 3.663v59.878c0 .125-.027.241-.038.366H0Z" style="fill:#2e3092;fill-opacity:1;fill-rule:nonzero;stroke:none" transform="translate(337.027 517.202)"/></g></svg>