<svg xmlns="http://www.w3.org/2000/svg" width="147.1189mm" height="147.1189mm" viewBox="0 0 147.1189 147.1189"><path d="M0 0a8.562 8.562 0 0 0-8.562-8.562h-73.124v73.125a8.56 8.56 0 0 0 8.561 8.561H0Z" style="fill:#1a6fb3;fill-opacity:1;fill-rule:nonzero;stroke:none" transform="matrix(1.80103 0 0 -1.80103 147.119 131.698)"/><path d="M0 0c-.282.164-.71.247-1.282.247-.573 0-1.004-.085-1.295-.253-.29-.17-.436-.392-.436-.671 0-.277.146-.505.436-.682.291-.178.722-.267 1.295-.267.572 0 1 .091 1.282.272.281.183.422.413.422.69C.422-.386.281-.165 0 0m-3.565-2.029c-.569.364-.853.814-.853 1.352 0 .538.284.985.853 1.341.568.356 1.329.533 2.283.533.989 0 1.752-.177 2.29-.533.538-.356.806-.803.806-1.341 0-.538-.273-.988-.82-1.352-.546-.366-1.313-.547-2.303-.547-.936 0-1.688.181-2.256.547" style="fill:#fff;fill-opacity:1;fill-rule:nonzero;stroke:none" transform="matrix(1.80103 0 0 -1.80103 93.43 98.768)"/><path d="M0 0c.289 0 .524.234.524.524v.477h-3.288a.524.524 0 0 1-.524-.523V0Z" style="fill:#fff;fill-opacity:1;fill-rule:nonzero;stroke:none" transform="matrix(1.80103 0 0 -1.80103 93.573 92.417)"/><path d="M0 0c.289 0 .524.234.524.524v.478h-6.723a.524.524 0 0 1-.524-.523V0Z" style="fill:#fff;fill-opacity:1;fill-rule:nonzero;stroke:none" transform="matrix(1.80103 0 0 -1.80103 96.667 95.581)"/><path d="M0 0c0 .348.28.628.627.628h.634v-10.821a.627.627 0 0 0-.627-.628H0v5.946h-1.471v-4.799a.628.628 0 0 0-.628-.627h-.633V-.26c0 .347.281.627.628.627h.633v-4.058H0v2.702z" style="fill:#fff;fill-opacity:1;fill-rule:nonzero;stroke:none" transform="matrix(1.80103 0 0 -1.80103 79.03 91.838)"/><path d="M0 0c-.316.352-.769.527-1.359.527-.58 0-1.03-.175-1.346-.527a1.83 1.83 0 0 1-.475-1.268c0-.486.159-.905.475-1.256.316-.351.766-.527 1.346-.527.59 0 1.043.176 1.359.527.317.351.476.77.476 1.256C.476-.773.317-.352 0 0m.925-3.331c-.595-.567-1.356-.853-2.284-.853-.919 0-1.676.286-2.27.853-.594.568-.892 1.255-.892 2.063 0 .806.298 1.496.892 2.069.594.572 1.351.858 2.27.858.928 0 1.689-.286 2.284-.858.593-.573.89-1.263.89-2.069 0-.808-.297-1.495-.89-2.063" style="fill:#fff;fill-opacity:1;fill-rule:nonzero;stroke:none" transform="matrix(1.80103 0 0 -1.80103 28.049 94.374)"/><path d="M0 0c0 .36.292.651.65.651h.717v-.937c0-.92.253-1.78.761-2.582.507-.803 1.311-1.447 2.413-1.933l-.658-.729s-.087-.139-.204-.139c-.083 0-.188.047-.297.106-.464.251-.945.605-1.443 1.062C1.323-3.938.902-3.392.677-2.862.46-3.486.076-4.074-.474-4.625a7.381 7.381 0 0 0-1.547-1.181.46.46 0 0 0-.292-.07c-.139 0-.285.117-.285.117l-.668.62c1.241.624 2.095 1.333 2.563 2.126C-.233-2.218 0-1.31 0-.286Z" style="fill:#fff;fill-opacity:1;fill-rule:nonzero;stroke:none" transform="matrix(1.80103 0 0 -1.80103 46.409 92.442)"/><path d="M0 0v2.888h-.651a.651.651 0 0 1-.652-.651V-5.4h.652c.359 0 .651.292.651.65v3.592h.975a.65.65 0 0 1 .651.65V0Z" style="fill:#fff;fill-opacity:1;fill-rule:nonzero;stroke:none" transform="matrix(1.80103 0 0 -1.80103 37.249 95.908)"/><path d="M0 0h.651a.65.65 0 0 1 .65.65v3.228h.976c.359 0 .65.29.65.65l-.005.461H1.301v3.299h-.65A.65.65 0 0 1 0 7.638V0" style="fill:#fff;fill-opacity:1;fill-rule:nonzero;stroke:none" transform="matrix(1.80103 0 0 -1.80103 56.673 105.634)"/><path d="M0 0a.65.65 0 0 1-.65-.65v-6.864l2.29.02a28.967 28.967 0 0 1 1.939.1c.325.041.65.292.65.652v.549a10.703 10.703 0 0 0-.905-.098 24.595 24.595 0 0 0-1.203-.059L.638-6.362v5.243h2.238c.31 0 .56.251.56.56V0Z" style="fill:#fff;fill-opacity:1;fill-rule:nonzero;stroke:none" transform="matrix(1.80103 0 0 -1.80103 65.272 93.238)"/><path d="m0 0 .001 2.537H-.65a.65.65 0 0 1-.651-.65v-2.98h7.702c.36 0 .651.292.651.651V0Z" style="fill:#fff;fill-opacity:1;fill-rule:nonzero;stroke:none" transform="matrix(1.80103 0 0 -1.80103 25.203 108.892)"/><path d="M0 0h6.979v-.442a.65.65 0 0 0-.65-.651H-1.3v2.98c0 .359.291.65.651.65h.65z" style="fill:#fff;fill-opacity:1;fill-rule:nonzero;stroke:none" transform="matrix(1.80103 0 0 -1.80103 47.15 108.892)"/><path d="M0 0v-2.797a.663.663 0 0 0-.663-.663h-.664v2.433h-7.13v.514c0 .284.23.513.515.513z" style="fill:#fff;fill-opacity:1;fill-rule:nonzero;stroke:none" transform="matrix(1.80103 0 0 -1.80103 101.993 105.096)"/><path d="M0 0c0 .357.289.647.646.647h.655l-.014-3.135h1.627l.005-.461a.65.65 0 0 0-.65-.651h-.975l.007-2.379a.65.65 0 0 0-.651-.65H0Z" style="fill:#fff;fill-opacity:1;fill-rule:nonzero;stroke:none" transform="matrix(1.80103 0 0 -1.80103 99.65 91.874)"/><path d="M0 0s-.028-.449-.05-.707a65.272 65.272 0 0 0-.214-2.071 40.369 40.369 0 0 0-.392-2.587l-.029-.143c-.071-.322-.259-.582-.581-.582h-.812c.016.078.123.705.318 1.881.196 1.175.301 2.209.319 3.103h-7.598v.552c0 .306.246.554.553.554z" style="fill:#fff;fill-opacity:1;fill-rule:nonzero;stroke:none" transform="matrix(1.80103 0 0 -1.80103 123.874 93.003)"/><path d="M0 0c0 .306.247.555.555.555H2.68v3.266a.66.66 0 0 0 .662.662h.664L3.994.555h1.704V3.82c0 .366.297.663.664.663h.668L7.013.555l4.436-.006V.004a.545.545 0 0 0-.545-.545L0-.558Z" style="fill:#fff;fill-opacity:1;fill-rule:nonzero;stroke:none" transform="matrix(1.80103 0 0 -1.80103 105.416 107.64)"/><path d="m0 0 .672 1.874L1.341 0Zm2.303-1.2L1.022 2.317H.511a.233.233 0 0 1-.21-.129l-1.345-3.689h.346c.106 0 .196.07.225.168l.019.043.301.853h1.65l.374-1.064h.203a.239.239 0 0 1 .229.301" style="fill:#fff;fill-opacity:1;fill-rule:nonzero;stroke:none" transform="matrix(1.80103 0 0 -1.80103 22.739 119.51)"/><path d="m0 0 .671 1.874L1.341 0Zm2.304-1.2L1.022 2.317H.511A.236.236 0 0 1 .3 2.188l-1.344-3.689h.346c.106 0 .196.07.225.168l.019.043.3.853h1.651l.373-1.064h.205a.24.24 0 0 1 .238.238.33.33 0 0 1-.009.063" style="fill:#fff;fill-opacity:1;fill-rule:nonzero;stroke:none" transform="matrix(1.80103 0 0 -1.80103 44.342 119.51)"/><path d="M0 0h-.513v1.441h.597c.138 0 .257-.009.356-.029a.693.693 0 0 0 .262-.104.521.521 0 0 0 .192-.214.706.706 0 0 0 .057-.291.979.979 0 0 0-.055-.356A.69.69 0 0 0 .727.2.674.674 0 0 0 .421.042 1.872 1.872 0 0 0 0 0m1.814-1.565L.702-.271c.242.093.434.233.572.418.139.186.207.416.207.692a.99.99 0 0 1-.116.503.94.94 0 0 1-.325.33 1.181 1.181 0 0 1-.415.16 3.164 3.164 0 0 1-.576.045h-.816a.254.254 0 0 1-.254-.254v-3.564h.254c.14 0 .254.113.254.253v1.265h.715l1.277-1.518h.136a.24.24 0 0 1 .199.376" style="fill:#fff;fill-opacity:1;fill-rule:nonzero;stroke:none" transform="matrix(1.80103 0 0 -1.80103 96.943 118.717)"/><path d="M0 0c0 .13.106.236.237.236h.238v-3.58a.238.238 0 0 0-.238-.238h-.39L-1.964-.166v-3.178a.238.238 0 0 0-.237-.238h-.237V0c0 .13.106.236.237.236h.55L0-2.881Z" style="fill:#fff;fill-opacity:1;fill-rule:nonzero;stroke:none" transform="matrix(1.80103 0 0 -1.80103 33.086 115.762)"/><path d="M0 0c0 .13.106.236.236.236h.239v-3.58a.239.239 0 0 0-.239-.238h-.389L-1.965-.166v-3.178a.237.237 0 0 0-.236-.238h-.237V0c0 .13.106.236.237.236h.551L0-2.881Z" style="fill:#fff;fill-opacity:1;fill-rule:nonzero;stroke:none" transform="matrix(1.80103 0 0 -1.80103 54.702 115.762)"/><path d="M0 0c0 .13.106.236.238.236h.237v-3.58a.238.238 0 0 0-.238-.238h-.391L-1.963-.166v-3.178a.238.238 0 0 0-.238-.238h-.237V0c0 .13.106.236.237.236h.55L0-2.881Z" style="fill:#fff;fill-opacity:1;fill-rule:nonzero;stroke:none" transform="matrix(1.80103 0 0 -1.80103 73.725 115.762)"/><path d="M0 0c0 .141.113.254.254.254h.254V-2.03c0-.278-.031-.519-.092-.726a1.184 1.184 0 0 0-.299-.514 1.218 1.218 0 0 0-.462-.284 1.93 1.93 0 0 0-.614-.089 1.9 1.9 0 0 0-.626.094 1.168 1.168 0 0 0-.747.787 2.49 2.49 0 0 0-.092.732V0c0 .141.114.254.254.254h.254v-2.311c0-.206.015-.369.042-.489a.943.943 0 0 1 .143-.325.703.703 0 0 1 .306-.252c.129-.057.284-.084.466-.084.182 0 .337.027.467.083a.71.71 0 0 1 .307.253.946.946 0 0 1 .142.334c.028.125.043.281.043.468Z" style="fill:#fff;fill-opacity:1;fill-rule:nonzero;stroke:none" transform="matrix(1.80103 0 0 -1.80103 66.108 115.793)"/><path d="M0 0v.195c0 .108.087.196.195.196H.5v3.038H0v.194c0 .108.087.195.195.195h1.313v-.195a.194.194 0 0 0-.195-.194h-.305V.391h.5V.195A.195.195 0 0 0 1.313 0Z" style="fill:#fff;fill-opacity:1;fill-rule:nonzero;stroke:none" transform="matrix(1.80103 0 0 -1.80103 76.685 122.213)"/><path d="M0 0v.195c0 .108.086.196.194.196h.305v3.038H0v.194c0 .108.086.195.194.195h1.313v-.195a.194.194 0 0 0-.195-.194h-.305V.391h.5V.195A.195.195 0 0 0 1.312 0Z" style="fill:#fff;fill-opacity:1;fill-rule:nonzero;stroke:none" transform="matrix(1.80103 0 0 -1.80103 108.991 122.213)"/><path d="M0 0a.296.296 0 0 0-.011.085c0 .123.1.219.223.219h.224l1.198-3.365L2.784.167c.02.051.129.131.22.131h.345L2.008-3.385l-.015-.024a.25.25 0 0 0-.208-.112h-.503L0 0" style="fill:#fff;fill-opacity:1;fill-rule:nonzero;stroke:none" transform="matrix(1.80103 0 0 -1.80103 80.915 115.873)"/><path d="M0 0v3.564c0 .141.114.254.254.254h2.261v-.225a.226.226 0 0 0-.225-.226H.508V2.32h2.007v-.224a.226.226 0 0 0-.225-.227H.508V.451h2.007V.227A.226.226 0 0 0 2.29 0Z" style="fill:#fff;fill-opacity:1;fill-rule:nonzero;stroke:none" transform="matrix(1.80103 0 0 -1.80103 88.557 122.213)"/><path d="M0 0a.253.253 0 0 0-.254-.254h-.254v3.367h-1.363v.226c0 .124.1.225.225.225h3.01v-.225a.226.226 0 0 0-.225-.226H0Z" style="fill:#fff;fill-opacity:1;fill-rule:nonzero;stroke:none" transform="matrix(1.80103 0 0 -1.80103 116.276 121.756)"/><path d="M0 0a.177.177 0 0 0-.028.1c0 .102.083.185.185.185h.229l1.043-1.707L2.482.285h.542L1.68-1.858v-1.421a.254.254 0 0 0-.253-.254h-.254v1.621z" style="fill:#fff;fill-opacity:1;fill-rule:nonzero;stroke:none" transform="matrix(1.80103 0 0 -1.80103 119.646 115.85)"/><path d="M0 0a.182.182 0 0 1-.28-.152v-.311c.227-.1.452-.176.672-.228.219-.051.466-.077.741-.077.258 0 .476.031.658.092.182.062.341.148.479.257a1.07 1.07 0 0 1 .394.81c0 .273-.071.486-.215.638-.144.153-.357.266-.64.341a6.963 6.963 0 0 1-.514.106c-.202.034-.357.063-.467.087-.207.048-.351.117-.433.208a.535.535 0 0 0-.123.374.51.51 0 0 0 .247.436c.166.112.384.169.655.169a2.232 2.232 0 0 0 1.09-.282l.01-.004a.182.182 0 0 1 .237.173v.285a3.308 3.308 0 0 1-1.334.266c-.416 0-.758-.102-1.029-.305-.27-.205-.404-.467-.404-.787 0-.279.081-.504.244-.678.164-.174.414-.296.753-.367.167-.035.325-.063.477-.086.148-.022.287-.05.416-.084a.846.846 0 0 0 .378-.188c.083-.08.124-.205.124-.374a.543.543 0 0 0-.263-.471c-.175-.119-.42-.178-.734-.178-.223 0-.46.045-.713.132a2.22 2.22 0 0 0-.418.193z" style="fill:#fff;fill-opacity:1;fill-rule:nonzero;stroke:none" transform="matrix(1.80103 0 0 -1.80103 102.447 120.954)"/><path d="M0 0a.18.18 0 0 1-.278-.152v-.311c.227-.1.451-.176.671-.228.219-.051.465-.077.742-.077.256 0 .474.031.657.092.183.062.342.148.479.257a1.07 1.07 0 0 1 .394.81c0 .273-.072.486-.215.638-.143.153-.357.266-.64.341a7.074 7.074 0 0 1-.514.106 10.22 10.22 0 0 0-.467.087c-.206.048-.351.117-.433.208-.083.09-.123.215-.123.374 0 .177.082.323.248.436.165.112.382.169.655.169.248 0 .489-.041.726-.122.136-.046.257-.1.364-.16l.01-.004a.181.181 0 0 1 .235.173v.285a3.296 3.296 0 0 1-.594.189 3.282 3.282 0 0 1-.739.077c-.415 0-.758-.102-1.029-.305-.269-.205-.404-.467-.404-.787 0-.279.081-.504.244-.678.163-.174.414-.296.752-.367.168-.035.327-.063.477-.086.148-.022.288-.05.416-.084a.84.84 0 0 0 .379-.188c.083-.08.124-.205.124-.374a.543.543 0 0 0-.263-.471c-.175-.119-.42-.178-.734-.178-.223 0-.46.045-.713.132-.15.052-.289.116-.418.193z" style="fill:#fff;fill-opacity:1;fill-rule:nonzero;stroke:none" transform="matrix(1.80103 0 0 -1.80103 36.533 120.954)"/><path d="M0 0c-1.963 0-3.555-1.86-3.555-4.153v-17.715c0-1.543-.348-2.735-1.046-3.574-.698-.841-1.659-1.262-2.885-1.262-1.239 0-2.205.427-2.904 1.279-.697.854-1.046 2.039-1.046 3.557V0h-5.691a19.464 19.464 0 0 1-.158-2.309c-.027-3.346.566-6.516 1.105-9.668.574-3.371 1.141-6.832.965-10.438-.185-3.811-1.477-7.449-3.237-10.779h11.795l-.011.002c2.242.021 3.399.33 4.734.927.996.442 1.948 1.209 2.855 2.304.907 1.094 1.573 2.37 1.998 3.831.424 1.46.636 3.012.636 4.656V0Zm-29.967-19.747 3.192 12.274 3.224-12.274zm10.711 3.963c-.562 3.285-1.206 6.635-1.13 10.146.062 2.795.867 4.215 1.709 5.61h-9.981c-1.594 0-3.615-1.229-4.198-3.481-.582-2.252-7.46-28.321-7.945-29.758h4.792c1.538 0 2.836 1.2 3.246 2.842l.006.031.727 2.875.065.243h10.326l.062-.243 1.491-5.748c1.013 1.935 1.756 4.621 1.831 7.022.112 3.621-.421 7.062-1.001 10.461" style="fill:#fff;fill-opacity:1;fill-rule:nonzero;stroke:none" transform="matrix(1.80103 0 0 -1.80103 106.466 20.056)"/></svg>