<svg xmlns="http://www.w3.org/2000/svg" width="169.36327mm" height="169.36572mm" viewBox="0 0 169.36327 169.36572"><defs><radialGradient id="a" cx="681.159" cy="303.51199" r="23.936001" fx="681.159" fy="303.51199" gradientUnits="userSpaceOnUse"><stop offset="0" style="stop-color:#f69f13"/><stop offset="0.338921" style="stop-color:#f69f13"/><stop offset="0.57899" style="stop-color:#ffec00"/><stop offset="0.706086" style="stop-color:#ffec00"/><stop offset="1" style="stop-color:#ffec00"/></radialGradient></defs><path d="M750.003 313.65c0 38.021-30.821 68.844-68.842 68.844s-68.844-30.823-68.844-68.844c0-38.021 30.823-68.844 68.844-68.844 38.021 0 68.842 30.823 68.842 68.844z" style="fill:none;stroke:none" transform="matrix(1.23007 0 0 1.23007 -753.192 -301.128)"/><path d="M612.944 313.65c.001-37.675 30.544-68.213 68.218-68.213 37.669 0 68.211 30.539 68.213 68.213-.002 37.673-30.544 68.211-68.213 68.214-37.674-.003-68.217-30.541-68.218-68.214z" style="fill:#25418e;stroke:none" transform="matrix(1.23007 0 0 1.23007 -753.192 -301.128)"/><path d="m621.221 332.398-.427-1.456 5.696-4.41.417 1.429-1.313.984.763 2.61 1.642.13.391 1.337zm1.082-1.087.006.018 2.927.154-.551-1.881zM618.604 318.488l-.039-1.65 4.948-2.672v-.02l-5.01.12-.029-1.286 6.697-.16.039 1.642-4.948 2.681.001.019 5.008-.12.031 1.286zM623.932 301.565l-4.497 1.474.354-1.533 3.095-.912-2.378-2.202.318-1.384 3.408 3.246 2.583.595-.303 1.309zM624.803 286.8l.68-1.355 7.165.655-.667 1.33-1.629-.175-1.219 2.428 1.109 1.212-.625 1.243zm1.533-.057-.01.016 2.035 2.107.879-1.749zM632.359 274.838l1.093-1.237 5.441 1.408.011-.014-3.75-3.319.853-.962 5.014 4.436-1.087 1.229-5.447-1.4-.012.014 3.749 3.319-.852.962zM649.124 261.858c-.565.089-1.187.367-1.634.666-1.3.87-1.433 2.228-.67 3.37.758 1.133 2.032 1.518 3.221.723a3.68 3.68 0 0 0 .682-.571l-.971-1.453-1.183.79-.587-.879 2.252-1.504 2.006 3.002c-.483.554-1.013 1.093-1.612 1.493-1.804 1.206-3.661 1.142-4.92-.742-1.275-1.908-.825-3.757 1.067-5.022a6.594 6.594 0 0 1 1.792-.863zM664.852 253.71l1.314-.29.835 3.779c.247 1.116.765 1.768 1.768 1.547 1.004-.222 1.198-1.032.952-2.148l-.835-3.779 1.312-.29.925 4.182c.387 1.754-.447 2.695-2.126 3.066-1.679.371-2.831-.131-3.22-1.885zM680.828 251.607l1.649.069 2.342 5.109h.019l.208-5.003 1.284.054-.278 6.69-1.638-.068-2.352-5.11h-.019l-.207 5.003-1.285-.053zM696.505 253.608l1.299.346-1.723 6.475-1.3-.345zM706.94 257.206l1.279.661-.891 5.46.017.008 3.924-3.889 1.184.613-5.078 4.912-1.467-.759zM720.625 265.79l2.979 2.602-.695.796-1.967-1.718-1.086 1.244 1.801 1.572-.695.796-1.801-1.572-1.237 1.417 1.981 1.731-.695.795-2.994-2.614zM730.536 275.999l.844 1.18c.837 1.171 1.875 2.54.36 3.623-.64.458-1.478.408-2.069-.219l-.016.011c.19.313.016.697-.148.979l-1.506 2.399-.87-1.218 1.232-1.873c.295-.446.35-.699.021-1.159l-.252-.352-2.263 1.619-.783-1.092zm-1.545 2.757.257.359c.385.539.905 1.1 1.583.614.656-.468.275-1.117-.115-1.663l-.258-.359zM738.427 292.72c.011-.46-.07-.936-.246-1.372-.173-.427-.584-.904-1.262-.628-1.075.437.484 2.977-1.6 3.823-1.362.553-2.315-.314-2.825-1.57-.274-.677-.309-1.015-.406-1.691l1.168-.34c-.059.522-.01 1.073.188 1.562.193.473.69 1.007 1.249.779 1.186-.481-.411-3.007 1.646-3.841 1.388-.564 2.334.306 2.777 1.401.217.535.349 1.062.382 1.578zM742.381 302.373l.236 1.322-6.596 1.185-.238-1.322zM742.422 315.156l.055-1.919 1.055.03-.149 5.182-1.056-.03.056-1.919-5.642-.163.038-1.343zM737.55 328.891l4.548-1.3-.413 1.518-3.127.791 2.291 2.292-.373 1.371-3.278-3.376-2.555-.693.352-1.297zM641.624 360.781l1.319 1.021-1.631 2.11 4.239 3.28-.582.753-4.641-3.59c-.527-.409-.661-1.043-.238-1.59zm5.399-.679c-.908 1.172-2.656 1.334-3.897.374-1.23-.952-1.514-2.687-.605-3.859.905-1.172 2.655-1.333 3.885-.382 1.242.961 1.524 2.695.617 3.867zm-3.185-2.464c-.581.752-.637 1.693-.13 2.086.519.4 1.415.11 1.997-.643.582-.752.637-1.692.119-2.093-.508-.393-1.404-.102-1.986.65zm5.766.964 1.33 1.027-1.324 1.71 1.32 1.019-.582.753-1.319-1.02-2.721 3.517-1.329-1.028zM663.199 368.453c-.47 1.354-2.033 2.052-3.527 1.532-1.48-.514-2.297-2.041-1.825-3.393.47-1.353 2.052-2.031 3.534-1.516 1.492.519 2.289 2.025 1.818 3.377zm.699 6.113c-.443 1.272-1.95 1.885-3.385 1.386-1.434-.499-2.236-1.915-1.794-3.186.442-1.272 1.95-1.885 3.385-1.386 1.433.499 2.236 1.915 1.794 3.186zm-4.481-7.415c-.304.875-.042 1.738.552 1.944.596.207 1.347-.303 1.652-1.177.304-.875.038-1.726-.556-1.933-.595-.206-1.344.292-1.648 1.166zm.854 6.154c-.256.735 0 1.543.559 1.737.56.195 1.261-.281 1.516-1.015.256-.735.01-1.566-.551-1.761-.56-.195-1.27.304-1.524 1.039zm6.375-6.45-.412 1.177 1.576.548-.308.886-1.574-.547-.373 1.072 1.574.548-.309.887-1.575-.548-.441 1.271-1.575-.547 1.841-5.295zM680.479 378.935l.062-4.022c-.286.193-.708.347-1.314.337l-2.096-.033c-.703-.01-1.141-.437-1.13-1.103l.079-5.082 3.713.058-.014.95-2.074-.033-.065 4.268 1.665.026c.566.01.988-.095 1.25-.202l.083-5.379 1.579.025-.043 2.776.987.015.043-2.776 1.579.025-.159 10.214-1.579-.024.101-6.502-.987-.015-.101 6.501zM698.138 368.081c.621.243 1.106.71 1.303 1.334.383 1.2-.396 2.536-1.737 2.963-1.33.423-2.751-.214-3.132-1.413-.199-.624-.072-1.286.282-1.84l-1.164.371-.276-.871 2.012-.64-.371-1.165 1.588-.504.37 1.164 2.011-.64.278.871zm-2.06 2.405c.237.741.865 1.214 1.36 1.056.505-.16.734-.907.497-1.648-.232-.73-.849-1.206-1.355-1.045-.493.157-.733.907-.502 1.637zm5.751 2.277-5.399 1.718-.286-.895 6.989-2.223 1.094 3.435-1.589.506zm-.066-5.706 1.588-.506.289.906-1.589.506.876 2.753-1.587.505-1.802-5.658 1.588-.506zM710.173 360.674l5.966-4.334 2.265 3.118c.806 1.109 1.219 2.076 1.276 2.829l-1.189.863c-.074-.815-.589-1.587-1.489-2.826l-1.633-2.249-4.638 3.368zm4.07 1.379 2.418 3.327.669-.486-2.416-3.327 1.298-.944 2.417 3.327 2.789-2.025.551.76-7.375 5.357-.552-.76 1.319-.958-2.416-3.327zM633.593 347.519a1.486 1.486 0 1 1-2.969-.18 1.488 1.488 0 1 1 2.969.18zM731.356 347.519a1.488 1.488 0 1 1-2.969-.18 1.49 1.49 0 0 1 1.577-1.397c.82.048 1.442.756 1.392 1.577z" style="fill:#fff;stroke:none" transform="matrix(1.23007 0 0 1.23007 -753.192 -301.128)"/><path d="M629.065 313.65c0-28.773 23.324-52.094 52.094-52.096 28.77.002 52.093 23.323 52.096 52.096-.003 28.771-23.326 52.093-52.096 52.095-28.77-.002-52.094-23.324-52.094-52.095z" style="fill:#fff;stroke:none" transform="matrix(1.23007 0 0 1.23007 -753.192 -301.128)"/><path d="M681.158 357.873c-.023.006-.014.004 0 0-.028-.008-.014-.004 0 0zm.002-.001-.002.001c.009.004.017.004.005.001l-.005-.001h.002c19.361-5.447 26.433-17.536 29.054-27.895.25-.979.424-1.975.562-2.975.776-5.586.727-11.292.727-16.92v-25.626c0-1.169-.279-1.86-1.672-2.233-14.199-3.235-24.066-7.693-27.431-9.149-.022-.009-.044-.015-.064-.024-.477-.205-.822-.306-1.176-.299-.356-.007-.702.094-1.179.299-.02.009-.041.015-.062.024-3.366 1.456-13.231 5.914-27.433 9.149-1.393.373-1.67 1.064-1.67 2.233v25.626c0 5.628-.051 11.334.726 16.92.138 1 .314 1.996.562 2.975 2.622 10.359 9.694 22.448 29.054 27.895" style="fill:#25418e;stroke:none" transform="matrix(1.23007 0 0 1.23007 -753.192 -301.128)"/><path d="m696.81 304.245 1.252-.699c.031-.019.031-.048 0-.068l-1.252-.698c-.227-.129-.227-.336 0-.463l1.195-.666a16.876 16.876 0 0 0-3.623-8.732l-1.31.372c-.252.07-.397-.076-.328-.328l.39-1.378c.01-.035-.011-.058-.046-.045l-1.379.387c-.25.07-.397-.076-.327-.327l.372-1.309a16.89 16.89 0 0 0-8.735-3.62l-.665 1.189c-.125.227-.335.227-.461 0l-.7-1.248c-.018-.032-.049-.032-.066 0l-.698 1.248c-.127.227-.337.227-.465 0l-.662-1.189a16.876 16.876 0 0 0-8.735 3.62l.371 1.31c.071.25-.077.396-.326.326l-1.379-.387c-.035-.013-.057.01-.048.045l.389 1.378c.074.252-.075.398-.325.328l-1.312-.372a16.836 16.836 0 0 0-3.621 8.732l1.192.666c.228.127.228.334.002.463l-1.251.698c-.033.02-.033.049 0 .068l1.251.699c.226.127.226.335-.002.464l-1.193.665a16.838 16.838 0 0 0 3.617 8.735l1.317-.374c.25-.072.399.075.325.326l-.389 1.378c-.009.037.013.058.048.048l1.379-.39c.249-.072.397.077.326.327l-.373 1.319a16.843 16.843 0 0 0 8.729 3.619l.67-1.198c.128-.228.338-.228.465 0l.698 1.248c.017.033.048.033.066 0l.7-1.248c.126-.228.336-.228.461 0l.669 1.198a16.845 16.845 0 0 0 8.733-3.622l-.374-1.316c-.07-.25.077-.399.327-.326l1.379.389c.035.009.056-.011.046-.048l-.389-1.376c-.07-.253.075-.4.327-.328l1.317.374a16.922 16.922 0 0 0 3.618-8.735l-1.197-.665c-.227-.129-.227-.337 0-.464z" style="fill:url(#a);stroke:none" transform="matrix(1.23007 0 0 1.23007 -753.192 -301.128)"/><path d="M681.16 297.66a5.86 5.86 0 0 0-5.852 5.854 5.859 5.859 0 0 0 5.852 5.85 5.857 5.857 0 0 0 5.85-5.85 5.858 5.858 0 0 0-5.85-5.854zm0 11.465a5.613 5.613 0 1 1 5.613-5.611 5.611 5.611 0 0 1-5.613 5.611z" style="fill:#ed7522;stroke:none" transform="matrix(1.23007 0 0 1.23007 -753.192 -301.128)"/><path d="M681.16 297.9a5.613 5.613 0 1 0 0 11.225 5.613 5.613 0 1 0 0-11.225zM664.979 332.601h-1.641l.844-2.558h.016zm-4.331 2.634h1.773l.512-1.396h2.458l.486 1.396h1.91l-2.52-6.542h-2.136zM668.392 328.693h2.22l2.21 4.442h.019l-.028-4.442h1.593v6.542h-2.165l-2.288-4.471h-.016l.054 4.471h-1.599zM677.357 332.769l-2.422-4.076h2.007l1.284 2.624 1.266-2.624h2.003l-2.396 4.076v2.466h-1.742zM684.838 332.601h-1.64l.843-2.558h.019zm-4.327 2.634h1.767l.517-1.396h2.456l.486 1.396h1.911l-2.518-6.542h-2.137zM688.362 328.693h2.221l2.215 4.442h.017l-.027-4.442h1.591v6.542h-2.163l-2.287-4.471h-.02l.058 4.471h-1.605zM701.673 335.047a9.685 9.685 0 0 1-2.531.3c-1.744 0-3.759-.881-3.759-3.355 0-2.465 1.733-3.412 4.132-3.412.431 0 1.341.047 1.978.291l-.139 1.424a3.352 3.352 0 0 0-1.595-.422c-1.414 0-2.575.59-2.575 2.119 0 1.283.907 2.061 2.182 2.061.235 0 .457-.036.618-.112v-1.293h-1.022v-1.238h2.711zM664.537 337.558h.88v2.534c0 .749.241 1.239.914 1.239.672 0 .91-.49.91-1.239v-2.534h.882v2.806c0 1.174-.667 1.659-1.792 1.659s-1.794-.485-1.794-1.659zM669.065 337.558h1.083l1.673 3.283h.011v-3.283h.843v4.39h-1.076l-1.679-3.283h-.013v3.283h-.842zM673.577 337.558h.878v4.39h-.878zM674.951 337.558h.945l1.127 3.446h.01l1.115-3.446h.873l-1.477 4.39h-1.082zM679.595 337.558h2.592v.693h-1.713v1.08h1.568v.692h-1.568v1.232h1.724v.693h-2.603zM683.898 338.251h.287c.439 0 .934.042.934.57 0 .548-.499.61-.934.61h-.287zm-.883 3.697h.883v-1.825h.28c.375 0 .486.126.611.453l.529 1.372h.979l-.703-1.717c-.088-.195-.227-.434-.464-.454v-.012c.558-.075.903-.503.903-1.02 0-1.218-1.124-1.187-2.069-1.187h-.949zM689.269 338.363a2.253 2.253 0 0 0-.891-.189c-.303 0-.693.132-.693.61 0 .762 1.924.44 1.924 1.911 0 .962-.76 1.328-1.647 1.328-.477 0-.693-.064-1.126-.168l.08-.795c.305.163.65.271.995.271.334 0 .781-.169.781-.565 0-.836-1.927-.491-1.927-1.945 0-.981.763-1.34 1.535-1.34.38 0 .729.051 1.051.157zM690.352 337.558h.884v4.39h-.884zM692.977 338.251h-1.259v-.693h3.398v.693h-1.259v3.697h-.88zM696.841 340.212l-1.608-2.654h1.033l1.041 1.843 1.054-1.843h.931l-1.573 2.654v1.736h-.878zM676.642 345.662h.478v3.33h-.476v-3.332M678.45 348.518c.174.091.381.138.592.138.619 0 .922-.571.93-1.212l-.008.006a.973.973 0 0 1-.731.306c-.644 0-1.004-.455-1.004-1.05 0-.686.466-1.101 1.07-1.101.932 0 1.122.839 1.122 1.598 0 .9-.296 1.845-1.349 1.845-.229 0-.569-.053-.686-.105zm.844-1.154c.397 0 .623-.295.623-.668 0-.315-.195-.701-.59-.701-.398 0-.59.343-.59.701 0 .311.182.668.557.668zM682.479 347.841h-1.046l1.038-1.789h.008zm0 1.151h.477v-.759h.42v-.392h-.42v-2.179h-.683l-1.344 2.179v.392h1.55zM685.68 348.132c-.008.335-.282.524-.605.524-.337 0-.674-.199-.674-.567 0-.392.284-.482.555-.672.357.172.739.248.724.715zm-.649.916c.625 0 1.154-.287 1.154-.955 0-.443-.299-.743-.699-.88.446-.239.6-.488.6-.86 0-.368-.373-.748-1.028-.748-.68 0-1.079.372-1.079.796 0 .315.137.658.625.83v.009c-.402.139-.706.435-.706.878 0 .615.571.93 1.133.93zm-.577-2.581c0-.315.343-.472.565-.472.237 0 .561.105.561.421 0 .228-.05.357-.439.658-.448-.219-.687-.378-.687-.607z" style="fill:#fff;stroke:none" transform="matrix(1.23007 0 0 1.23007 -753.192 -301.128)"/></svg>