<svg xmlns="http://www.w3.org/2000/svg" width="172.44289mm" height="254.84361mm" viewBox="0 0 172.44289 254.84361"><g transform="matrix(1.30712 0 0 1.30712 -416.638 31.89)"><ellipse cx="384.14648" cy="41.697922" rx="47.320751" ry="63.690147" style="fill:#f9f9f9;stroke:#fff;stroke-width:0"/><path d="M0 0c.83 0 1.493.662 1.493 1.486a1.493 1.493 0 1 1-2.987 0A1.49 1.49 0 0 1 0 0" style="fill:#00a1e4;fill-opacity:1;fill-rule:nonzero;stroke:none" transform="matrix(1.15865 0 0 -1.15865 387.898 70.609)"/><path d="M0 0a1.499 1.499 0 0 1-1.494-1.501A1.49 1.49 0 0 1 0-2.987c.83 0 1.494.662 1.494 1.486C1.494-.671.83 0 0 0" style="fill:#00a1e4;fill-opacity:1;fill-rule:nonzero;stroke:none" transform="matrix(1.15865 0 0 -1.15865 377.242 67.147)"/><path d="M0 0a3.055 3.055 0 0 0 3.05 3.049A3.056 3.056 0 0 0 6.106 0c0-.58-.168-1.073-.416-1.611l-2.073-4.66-1.39.581 1.111 2.639c-.104-.007-.171 0-.288 0A3.06 3.06 0 0 0 0 0m-3.507-1.611-2.074-4.66-1.389.581 1.112 2.639c-.104-.007-.172 0-.289 0A3.06 3.06 0 0 0-9.197 0a3.055 3.055 0 0 0 3.05 3.049A3.056 3.056 0 0 0-3.091 0c0-.58-.168-1.073-.416-1.611m-9.541-4.66h-1.66v9.245h1.66zm-12.979 51.875c0 14.535 11.796 26.319 26.332 26.319 14.521 0 26.318-11.784 26.318-26.319 0-14.536-11.797-26.325-26.318-26.325-14.536 0-26.332 11.789-26.332 26.325M12.365-6.271c-1.529 0-2.754 1.196-2.865 2.695h1.57c.112-.635.637-1.125 1.295-1.125.752 0 1.367.599 1.367 1.347 0 .492-.29.907-.691 1.147-.193.118-.4.187-.981.194v1.177c.6.012.788.13.981.262.297.222.534.518.534.921a1.18 1.18 0 0 1-1.182 1.18c-.651.015-1.163-.497-1.19-1.146H9.701a2.684 2.684 0 0 0 2.692 2.661c1.472 0 2.675-1.21 2.675-2.704 0-.635-.25-1.19-.615-1.646a2.915 2.915 0 0 0 .844-2.053 2.916 2.916 0 0 0-2.932-2.91M.284-35.82h.021l.013.006c3.754 1.025 49.284 14.365 49.284 59.803v56.522h-98.609V23.989c0-45.438 45.536-58.778 49.291-59.803z" style="fill:#00a1e4;fill-opacity:1;fill-rule:nonzero;stroke:none" transform="matrix(1.15865 0 0 -1.15865 384.365 68.886)"/><path d="M0 0c0 8.035-6.5 14.548-14.535 14.548-8.05 0-14.564-6.513-14.564-14.548 0-8.037 6.514-14.549 14.564-14.549C-6.5-14.549 0-8.037 0 0" style="fill:#00a1e4;fill-opacity:1;fill-rule:nonzero;stroke:none" transform="matrix(1.15865 0 0 -1.15865 401.559 16.047)"/><path d="M0 0a2.424 2.424 0 0 0-1.749-.726c-.671 0-1.258.248-1.756.726a2.48 2.48 0 0 0-.733 1.806c0 .671.249 1.264.733 1.783.498.512 1.085.767 1.756.767S-.483 4.101 0 3.589c.492-.519.727-1.112.727-1.783C.727 1.093.492.491 0 0m2.85 6.432A7.266 7.266 0 0 1 .754 7.828a6.186 6.186 0 0 1-2.503.532 6.29 6.29 0 0 1-2.545-.532 7.303 7.303 0 0 1-2.087-1.396 6.74 6.74 0 0 1-1.405-2.089 6.77 6.77 0 0 1-.484-2.537c0-.913.166-1.764.484-2.552a6.728 6.728 0 0 1 1.405-2.089A6.353 6.353 0 0 1-4.294-4.23a6.521 6.521 0 0 1 2.545-.492c.878 0 1.708.16 2.503.492A6.329 6.329 0 0 1 2.85-2.835 7.393 7.393 0 0 1 4.247-.746c.359.788.518 1.639.518 2.552 0 .891-.159 1.748-.518 2.537A7.407 7.407 0 0 1 2.85 6.432" style="fill:#00a1e4;fill-opacity:1;fill-rule:nonzero;stroke:none" transform="matrix(1.15865 0 0 -1.15865 328.328 142.646)"/><path d="M0 0v-3.927h3.52v-1.805H0v-3.88h3.52v-8.898h4.1V0h-4.1z" style="fill:#00a1e4;fill-opacity:1;fill-rule:nonzero;stroke:none" transform="matrix(1.15865 0 0 -1.15865 335.3 132.96)"/><path d="M0 0v3.963h-11.182V0h3.997l-5.283-6.597 2.946-2.406 3.949 5.235 3.921-5.235 2.945 2.371L-3.977 0Z" style="fill:#00a1e4;fill-opacity:1;fill-rule:nonzero;stroke:none" transform="matrix(1.15865 0 0 -1.15865 365.417 137.406)"/><path d="M0 0h4.266v-4.114h3.989V0h4.108v3.94H0Z" style="fill:#00a1e4;fill-opacity:1;fill-rule:nonzero;stroke:none" transform="matrix(1.15865 0 0 -1.15865 351.837 154.327)"/><path d="M0 0h-3.982v-18.497H0v8.809h4.149v3.956H0Z" style="fill:#00a1e4;fill-opacity:1;fill-rule:nonzero;stroke:none" transform="matrix(1.15865 0 0 -1.15865 425.627 132.895)"/><path d="M0 0v-3.615h10.006v-8.513h3.81V0Z" style="fill:#00a1e4;fill-opacity:1;fill-rule:nonzero;stroke:none" transform="matrix(1.15865 0 0 -1.15865 434.664 132.783)"/><path d="M0 0h10.007v-8.513h3.816V3.623H0Z" style="fill:#00a1e4;fill-opacity:1;fill-rule:nonzero;stroke:none" transform="matrix(1.15865 0 0 -1.15865 409.867 160.705)"/><path d="M0 0h-3.568v-4.296H-4.82V0h-3.622v-4.296h-.015v-4.065H5.187v4.065H0Z" style="fill:#00a1e4;fill-opacity:1;fill-rule:nonzero;stroke:none" transform="matrix(1.15865 0 0 -1.15865 444.583 144.647)"/><path d="M0 0h-1.618v5.754h-3.361v-18.497h3.361v8.857H0v-8.857h3.43V5.754H0Z" style="fill:#00a1e4;fill-opacity:1;fill-rule:nonzero;stroke:none" transform="matrix(1.15865 0 0 -1.15865 394.717 139.562)"/><path d="M0 0h6.715v3.871H-3.996V-9.01H6.743v3.92H0Z" style="fill:#00a1e4;fill-opacity:1;fill-rule:nonzero;stroke:none" transform="matrix(1.15865 0 0 -1.15865 377.874 137.445)"/><path d="M0 0c0 .469.166.884.471 1.236.312.354.733.527 1.259.527.504 0 .926-.173 1.237-.527C3.3.884 3.465.469 3.465 0c0-.533-.18-.97-.531-1.309-.354-.337-.748-.509-1.204-.509-.451 0-.85.172-1.21.509C.182-.97 0-.533 0 0m3.859-5.111c.67.29 1.252.691 1.757 1.182a5.877 5.877 0 0 1 1.202 1.758c.305.669.451 1.382.451 2.171 0 .261-.029.56-.097.864-.049.291-.131.587-.201.865h.941V5.38H-4.445V1.729h.906a8.98 8.98 0 0 1-.194-.865A4.96 4.96 0 0 1-3.816 0c0-.789.152-1.502.449-2.171a5.232 5.232 0 0 1 1.183-1.758A5.773 5.773 0 0 1-.435-5.111a5.347 5.347 0 0 1 2.165-.434c.752 0 1.458.143 2.129.434" style="fill:#00a1e4;fill-opacity:1;fill-rule:nonzero;stroke:none" transform="matrix(1.15865 0 0 -1.15865 408.785 143.967)"/><path d="M439.992 159.095h-2.871v1.076h2.871z" style="fill:#00a1e4;fill-opacity:1;fill-rule:nonzero;stroke:none;stroke-width:.352778" transform="matrix(3.28437 0 0 3.28437 -1029.5 -389.641)"/></g></svg>