<svg xmlns="http://www.w3.org/2000/svg" width="244.83417mm" height="244.83417mm" viewBox="0 0 244.83417 244.83417"><defs><radialGradient id="a" cx="0" cy="0" r="1" fx="0" fy="0" gradientTransform="matrix(20.89489 0 0 -20.89489 296.021 592.479)" gradientUnits="userSpaceOnUse" spreadMethod="pad"><stop offset="0" style="stop-opacity:1;stop-color:#f68290"/><stop offset="0.00561798" style="stop-opacity:1;stop-color:#f68290"/><stop offset="0.7" style="stop-opacity:1;stop-color:#e31048"/><stop offset="1" style="stop-opacity:1;stop-color:#c00e3b"/></radialGradient></defs><g style="stroke-width:.747615" transform="matrix(1.33759 0 0 1.33759 -25.273 -78.979)"><circle cx="110.4155" cy="150.56657" r="91.520874" style="fill:#fff;stroke-width:.197806"/><g style="stroke-width:.187302"><g style="stroke-width:.187302"><path d="m0 0-.139 6.964c.247.005.493.009.74.011L.651.01A47.349 47.349 0 0 1 0 0" style="fill:#5d9db4;fill-opacity:1;fill-rule:nonzero;stroke:none;stroke-width:.187302" transform="matrix(1.4081 0 0 -1.4081 108.939 75.537)"/></g><g style="stroke-width:.187302"><path d="m0 0-.381 6.954c.246.014.492.026.738.036L.65.031A47.866 47.866 0 0 1 0 0" style="fill:#5d9db4;fill-opacity:1;fill-rule:nonzero;stroke:none;stroke-width:.187302" transform="matrix(1.4081 0 0 -1.4081 106.327 75.627)"/></g><g style="stroke-width:.187302"><path d="m0 0-.624 6.937c.246.022.491.042.737.062L.649.055A47.306 47.306 0 0 1 0 0" style="fill:#5d9db4;fill-opacity:1;fill-rule:nonzero;stroke:none;stroke-width:.187302" transform="matrix(1.4081 0 0 -1.4081 103.721 75.81)"/></g><g style="stroke-width:.187302"><path d="m0 0-.865 6.91c.244.031.488.061.734.088L.646.077A49.32 49.32 0 0 1 0 0" style="fill:#5d9db4;fill-opacity:1;fill-rule:nonzero;stroke:none;stroke-width:.187302" transform="matrix(1.4081 0 0 -1.4081 101.124 76.084)"/></g><g style="stroke-width:.187302"><path d="m0 0-1.105 6.877c.243.039.486.077.73.113L.646.101A66.89 66.89 0 0 1 0 0" style="fill:#5d9db4;fill-opacity:1;fill-rule:nonzero;stroke:none;stroke-width:.187302" transform="matrix(1.4081 0 0 -1.4081 98.536 76.448)"/></g><g style="stroke-width:.187302"><path d="m0 0-1.346 6.834c.242.048.485.094.727.139L.641.122C.426.083.213.042 0 0" style="fill:#5d9db4;fill-opacity:1;fill-rule:nonzero;stroke:none;stroke-width:.187302" transform="matrix(1.4081 0 0 -1.4081 95.964 76.902)"/></g><g style="stroke-width:.187302"><path d="m0 0-1.584 6.783c.24.056.48.111.723.163L.637.145A54.383 54.383 0 0 1 0 0" style="fill:#5d9db4;fill-opacity:1;fill-rule:nonzero;stroke:none;stroke-width:.187302" transform="matrix(1.4081 0 0 -1.4081 93.41 77.445)"/></g><g style="stroke-width:.187302"><path d="m0 0-1.818 6.724c.238.064.476.128.714.188L.631.166A41.614 41.614 0 0 1 0 0" style="fill:#5d9db4;fill-opacity:1;fill-rule:nonzero;stroke:none;stroke-width:.187302" transform="matrix(1.4081 0 0 -1.4081 90.874 78.078)"/></g><g style="stroke-width:.187302"><path d="m0 0-2.052 6.656c.236.073.472.144.708.213L.625.188A41.17 41.17 0 0 1 0 0" style="fill:#5d9db4;fill-opacity:1;fill-rule:nonzero;stroke:none;stroke-width:.187302" transform="matrix(1.4081 0 0 -1.4081 88.363 78.798)"/></g><g style="stroke-width:.187302"><path d="m0 0-2.283 6.58c.232.081.465.16.699.238L.617.21A40.638 40.638 0 0 1 0 0" style="fill:#5d9db4;fill-opacity:1;fill-rule:nonzero;stroke:none;stroke-width:.187302" transform="matrix(1.4081 0 0 -1.4081 85.88 79.606)"/></g><g style="stroke-width:.187302"><path d="m0 0-2.511 6.497c.23.088.46.176.691.262L.61.231A63.753 63.753 0 0 1 0 0" style="fill:#5d9db4;fill-opacity:1;fill-rule:nonzero;stroke:none;stroke-width:.187302" transform="matrix(1.4081 0 0 -1.4081 83.423 80.5)"/></g><g style="stroke-width:.187302"><path d="m0 0-2.737 6.405c.226.097.454.193.681.286L.6.253A53.947 53.947 0 0 1 0 0" style="fill:#5d9db4;fill-opacity:1;fill-rule:nonzero;stroke:none;stroke-width:.187302" transform="matrix(1.4081 0 0 -1.4081 81.003 81.478)"/></g><g style="stroke-width:.187302"><path d="m0 0-2.959 6.306c.223.104.447.208.672.309L.592.273A52.001 52.001 0 0 1 0 0" style="fill:#5d9db4;fill-opacity:1;fill-rule:nonzero;stroke:none;stroke-width:.187302" transform="matrix(1.4081 0 0 -1.4081 78.616 82.541)"/></g><g style="stroke-width:.187302"><path d="m0 0-3.177 6.198c.219.112.439.224.66.334L.581.294A52.588 52.588 0 0 1 0 0" style="fill:#5d9db4;fill-opacity:1;fill-rule:nonzero;stroke:none;stroke-width:.187302" transform="matrix(1.4081 0 0 -1.4081 76.269 83.687)"/></g><g style="stroke-width:.187302"><path d="m0 0-3.392 6.084c.215.12.431.238.648.355L.57.313A51.904 51.904 0 0 1 0 0" style="fill:#5d9db4;fill-opacity:1;fill-rule:nonzero;stroke:none;stroke-width:.187302" transform="matrix(1.4081 0 0 -1.4081 73.963 84.913)"/></g><g style="stroke-width:.187302"><path d="m0 0-3.602 5.962c.211.127.423.253.636.378L.561.334C.373.224.186.112 0 0" style="fill:#5d9db4;fill-opacity:1;fill-rule:nonzero;stroke:none;stroke-width:.187302" transform="matrix(1.4081 0 0 -1.4081 71.7 86.22)"/></g><g style="stroke-width:.187302"><path d="m0 0-3.808 5.832c.207.135.414.269.622.4L.549.354A73.919 73.919 0 0 1 0 0" style="fill:#5d9db4;fill-opacity:1;fill-rule:nonzero;stroke:none;stroke-width:.187302" transform="matrix(1.4081 0 0 -1.4081 69.484 87.604)"/></g><g style="stroke-width:.187302"><path d="m0 0-4.008 5.696c.201.142.404.283.608.422L.536.372A50.98 50.98 0 0 1 0 0" style="fill:#5d9db4;fill-opacity:1;fill-rule:nonzero;stroke:none;stroke-width:.187302" transform="matrix(1.4081 0 0 -1.4081 67.318 89.066)"/></g><g style="stroke-width:.187302"><path d="m0 0-4.205 5.553c.196.149.393.297.592.443L.521.391A78.613 78.613 0 0 1 0 0" style="fill:#5d9db4;fill-opacity:1;fill-rule:nonzero;stroke:none;stroke-width:.187302" transform="matrix(1.4081 0 0 -1.4081 65.206 90.602)"/></g><g style="stroke-width:.187302"><path d="m0 0-4.396 5.402c.19.156.383.31.577.463L.509.408C.339.272.169.137 0 0" style="fill:#5d9db4;fill-opacity:1;fill-rule:nonzero;stroke:none;stroke-width:.187302" transform="matrix(1.4081 0 0 -1.4081 63.147 92.21)"/></g><g style="stroke-width:.187302"><path d="m0 0-4.582 5.246c.186.162.371.323.561.483L.494.427A50.38 50.38 0 0 1 0 0" style="fill:#5d9db4;fill-opacity:1;fill-rule:nonzero;stroke:none;stroke-width:.187302" transform="matrix(1.4081 0 0 -1.4081 61.147 93.89)"/></g><g style="stroke-width:.187302"><path d="m0 0-4.762 5.083c.18.168.36.335.543.502L.479.443C.318.296.159.148 0 0" style="fill:#5d9db4;fill-opacity:1;fill-rule:nonzero;stroke:none;stroke-width:.187302" transform="matrix(1.4081 0 0 -1.4081 59.205 95.638)"/></g><g style="stroke-width:.187302"><path d="m0 0-4.937 4.914c.173.174.349.348.525.521L.463.46C.308.307.153.154 0 0" style="fill:#5d9db4;fill-opacity:1;fill-rule:nonzero;stroke:none;stroke-width:.187302" transform="matrix(1.4081 0 0 -1.4081 57.327 97.453)"/></g><g style="stroke-width:.187302"><path d="m0 0-5.104 4.738c.167.181.336.361.506.539L.447.476 0 0" style="fill:#5d9db4;fill-opacity:1;fill-rule:nonzero;stroke:none;stroke-width:.187302" transform="matrix(1.4081 0 0 -1.4081 55.512 99.333)"/></g><g style="stroke-width:.187302"><path d="m0 0-5.268 4.557.487.556L.43.49A48.609 48.609 0 0 1 0 0" style="fill:#5d9db4;fill-opacity:1;fill-rule:nonzero;stroke:none;stroke-width:.187302" transform="matrix(1.4081 0 0 -1.4081 53.765 101.273)"/></g><g style="stroke-width:.187302"><path d="m0 0-5.422 4.371c.154.191.31.382.467.572L.413.506 0 0" style="fill:#5d9db4;fill-opacity:1;fill-rule:nonzero;stroke:none;stroke-width:.187302" transform="matrix(1.4081 0 0 -1.4081 52.085 103.275)"/></g><g style="stroke-width:.187302"><path d="m0 0-5.573 4.179c.147.196.297.392.447.588L.395.52A37.504 37.504 0 0 1 0 0" style="fill:#5d9db4;fill-opacity:1;fill-rule:nonzero;stroke:none;stroke-width:.187302" transform="matrix(1.4081 0 0 -1.4081 50.479 105.334)"/></g><g style="stroke-width:.187302"><path d="m0 0-5.716 3.981c.142.203.284.404.428.605L.376.533A57.853 57.853 0 0 1 0 0" style="fill:#5d9db4;fill-opacity:1;fill-rule:nonzero;stroke:none;stroke-width:.187302" transform="matrix(1.4081 0 0 -1.4081 48.943 107.447)"/></g><g style="stroke-width:.187302"><path d="m0 0-5.851 3.779c.134.207.269.413.406.618L.356.546C.237.364.118.183 0 0" style="fill:#5d9db4;fill-opacity:1;fill-rule:nonzero;stroke:none;stroke-width:.187302" transform="matrix(1.4081 0 0 -1.4081 47.482 109.613)"/></g><g style="stroke-width:.187302"><path d="m0 0-5.979 3.572c.126.212.254.423.383.633L.338.558C.225.372.111.186 0 0" style="fill:#5d9db4;fill-opacity:1;fill-rule:nonzero;stroke:none;stroke-width:.187302" transform="matrix(1.4081 0 0 -1.4081 46.098 111.828)"/></g><g style="stroke-width:.187302"><path d="m0 0-6.101 3.362.362.646L.317.569C.211.38.104.19 0 0" style="fill:#5d9db4;fill-opacity:1;fill-rule:nonzero;stroke:none;stroke-width:.187302" transform="matrix(1.4081 0 0 -1.4081 44.793 114.092)"/></g><g style="stroke-width:.187302"><path d="m0 0-6.215 3.148c.111.219.225.439.338.658L.297.581C.197.388.098.194 0 0" style="fill:#5d9db4;fill-opacity:1;fill-rule:nonzero;stroke:none;stroke-width:.187302" transform="matrix(1.4081 0 0 -1.4081 43.567 116.4)"/></g><g style="stroke-width:.187302"><path d="m0 0-6.318 2.929c.103.223.209.446.314.669L.279.591A78.721 78.721 0 0 1 0 0" style="fill:#5d9db4;fill-opacity:1;fill-rule:nonzero;stroke:none;stroke-width:.187302" transform="matrix(1.4081 0 0 -1.4081 42.42 118.746)"/></g><g style="stroke-width:.187302"><path d="m0 0-6.418 2.706c.096.227.193.453.291.679L.258.6A49.292 49.292 0 0 1 0 0" style="fill:#5d9db4;fill-opacity:1;fill-rule:nonzero;stroke:none;stroke-width:.187302" transform="matrix(1.4081 0 0 -1.4081 41.359 121.132)"/></g><g style="stroke-width:.187302"><path d="m0 0-6.509 2.48c.088.231.177.46.268.69L.235.608C.156.405.077.203 0 0" style="fill:#5d9db4;fill-opacity:1;fill-rule:nonzero;stroke:none;stroke-width:.187302" transform="matrix(1.4081 0 0 -1.4081 40.381 123.555)"/></g><g style="stroke-width:.187302"><path d="m0 0-6.592 2.252c.08.233.16.467.244.699L.214.617A50.157 50.157 0 0 1 0 0" style="fill:#5d9db4;fill-opacity:1;fill-rule:nonzero;stroke:none;stroke-width:.187302" transform="matrix(1.4081 0 0 -1.4081 39.489 126.011)"/></g><g style="stroke-width:.187302"><path d="m0 0-6.664 2.021c.07.235.143.471.219.706L.193.623C.129.415.063.208 0 0" style="fill:#5d9db4;fill-opacity:1;fill-rule:nonzero;stroke:none;stroke-width:.187302" transform="matrix(1.4081 0 0 -1.4081 38.68 128.495)"/></g><g style="stroke-width:.187302"><path d="m0 0-6.732 1.786c.062.238.127.477.193.714L.17.629A44.826 44.826 0 0 1 0 0" style="fill:#5d9db4;fill-opacity:1;fill-rule:nonzero;stroke:none;stroke-width:.187302" transform="matrix(1.4081 0 0 -1.4081 37.962 131.006)"/></g><g style="stroke-width:.187302"><path d="m0 0-6.791 1.551c.055.24.111.48.17.72L.148.636 0 0" style="fill:#5d9db4;fill-opacity:1;fill-rule:nonzero;stroke:none;stroke-width:.187302" transform="matrix(1.4081 0 0 -1.4081 37.33 133.541)"/></g><g style="stroke-width:.187302"><path d="m0 0-6.84 1.312c.046.243.095.485.144.726L.127.64A48.226 48.226 0 0 1 0 0" style="fill:#5d9db4;fill-opacity:1;fill-rule:nonzero;stroke:none;stroke-width:.187302" transform="matrix(1.4081 0 0 -1.4081 36.787 136.096)"/></g><g style="stroke-width:.187302"><path d="m0 0-6.883 1.073c.039.243.078.487.119.731L.104.644A45.45 45.45 0 0 1 0 0" style="fill:#5d9db4;fill-opacity:1;fill-rule:nonzero;stroke:none;stroke-width:.187302" transform="matrix(1.4081 0 0 -1.4081 36.334 138.67)"/></g><g style="stroke-width:.187302"><path d="m0 0-6.916.832c.03.244.061.489.094.734L.082.647A34.631 34.631 0 0 1 0 0" style="fill:#5d9db4;fill-opacity:1;fill-rule:nonzero;stroke:none;stroke-width:.187302" transform="matrix(1.4081 0 0 -1.4081 35.971 141.256)"/></g><g style="stroke-width:.187302"><path d="m0 0-6.94.591c.021.245.044.491.068.736L.06.65C.038.434.019.217 0 0" style="fill:#5d9db4;fill-opacity:1;fill-rule:nonzero;stroke:none;stroke-width:.187302" transform="matrix(1.4081 0 0 -1.4081 35.698 143.855)"/></g><g style="stroke-width:.187302"><path d="m0 0-6.956.348c.012.246.025.492.041.738L.036.65A46.306 46.306 0 0 1 0 0" style="fill:#5d9db4;fill-opacity:1;fill-rule:nonzero;stroke:none;stroke-width:.187302" transform="matrix(1.4081 0 0 -1.4081 35.516 146.459)"/></g><g style="stroke-width:.187302"><path d="m0 0-6.964.104c.002.247.008.494.016.741L.014.652A47.267 47.267 0 0 1 0 0" style="fill:#5d9db4;fill-opacity:1;fill-rule:nonzero;stroke:none;stroke-width:.187302" transform="matrix(1.4081 0 0 -1.4081 35.425 149.07)"/></g><g style="stroke-width:.187302"><path d="m0 0-6.965-.138c-.004.246-.008.492-.01.74l6.965.05C-.008.435-.005.218 0 0" style="fill:#5d9db4;fill-opacity:1;fill-rule:nonzero;stroke:none;stroke-width:.187302" transform="matrix(1.4081 0 0 -1.4081 35.427 151.683)"/></g><g style="stroke-width:.187302"><path d="m0 0-6.955-.381a45.13 45.13 0 0 0-.035.739l6.959.294C-.022.435-.012.218 0 0" style="fill:#5d9db4;fill-opacity:1;fill-rule:nonzero;stroke:none;stroke-width:.187302" transform="matrix(1.4081 0 0 -1.4081 35.518 154.294)"/></g><g style="stroke-width:.187302"><path d="m0 0-6.937-.624c-.022.245-.042.491-.061.737l6.944.536C-.037.433-.019.216 0 0" style="fill:#5d9db4;fill-opacity:1;fill-rule:nonzero;stroke:none;stroke-width:.187302" transform="matrix(1.4081 0 0 -1.4081 35.7 156.899)"/></g><g style="stroke-width:.187302"><path d="m0 0-6.912-.865c-.03.244-.06.489-.087.734l6.921.779L0 0" style="fill:#5d9db4;fill-opacity:1;fill-rule:nonzero;stroke:none;stroke-width:.187302" transform="matrix(1.4081 0 0 -1.4081 35.974 159.498)"/></g><g style="stroke-width:.187302"><path d="m0 0-6.877-1.106c-.039.244-.076.487-.112.731L-.1.645 0 0" style="fill:#5d9db4;fill-opacity:1;fill-rule:nonzero;stroke:none;stroke-width:.187302" transform="matrix(1.4081 0 0 -1.4081 36.337 162.084)"/></g><g style="stroke-width:.187302"><path d="m0 0-6.834-1.345c-.047.241-.094.484-.138.727L-.121.641C-.082.427-.041.213 0 0" style="fill:#5d9db4;fill-opacity:1;fill-rule:nonzero;stroke:none;stroke-width:.187302" transform="matrix(1.4081 0 0 -1.4081 36.79 164.657)"/></g><g style="stroke-width:.187302"><path d="m0 0-6.783-1.583c-.057.24-.111.48-.164.722L-.145.637C-.098.424-.051.212 0 0" style="fill:#5d9db4;fill-opacity:1;fill-rule:nonzero;stroke:none;stroke-width:.187302" transform="matrix(1.4081 0 0 -1.4081 37.335 167.212)"/></g><g style="stroke-width:.187302"><path d="m0 0-6.725-1.819a44.16 44.16 0 0 0-.187.715L-.167.631A45 45 0 0 1 0 0" style="fill:#5d9db4;fill-opacity:1;fill-rule:nonzero;stroke:none;stroke-width:.187302" transform="matrix(1.4081 0 0 -1.4081 37.968 169.746)"/></g><g style="stroke-width:.187302"><path d="m0 0-6.656-2.052c-.073.235-.145.471-.214.707L-.189.624C-.127.415-.064.207 0 0" style="fill:#5d9db4;fill-opacity:1;fill-rule:nonzero;stroke:none;stroke-width:.187302" transform="matrix(1.4081 0 0 -1.4081 38.688 172.257)"/></g><g style="stroke-width:.187302"><path d="m0 0-6.581-2.283c-.08.232-.16.466-.238.7L-.21.617C-.142.411-.071.205 0 0" style="fill:#5d9db4;fill-opacity:1;fill-rule:nonzero;stroke:none;stroke-width:.187302" transform="matrix(1.4081 0 0 -1.4081 39.496 174.742)"/></g><g style="stroke-width:.187302"><path d="m0 0-6.497-2.511c-.09.229-.176.459-.262.692L-.231.61C-.155.406-.079.202 0 0" style="fill:#5d9db4;fill-opacity:1;fill-rule:nonzero;stroke:none;stroke-width:.187302" transform="matrix(1.4081 0 0 -1.4081 40.39 177.197)"/></g><g style="stroke-width:.187302"><path d="m0 0-6.404-2.736a27.17 27.17 0 0 0-.286.681L-.252.602C-.169.4-.085.199 0 0" style="fill:#5d9db4;fill-opacity:1;fill-rule:nonzero;stroke:none;stroke-width:.187302" transform="matrix(1.4081 0 0 -1.4081 41.367 179.618)"/></g><g style="stroke-width:.187302"><path d="m0 0-6.307-2.958c-.103.223-.207.446-.309.671L-.273.593C-.184.395-.093.197 0 0" style="fill:#5d9db4;fill-opacity:1;fill-rule:nonzero;stroke:none;stroke-width:.187302" transform="matrix(1.4081 0 0 -1.4081 42.432 182.005)"/></g><g style="stroke-width:.187302"><path d="m0 0-6.199-3.177c-.112.219-.223.44-.332.66l6.238 3.1C-.196.388-.1.193 0 0" style="fill:#5d9db4;fill-opacity:1;fill-rule:nonzero;stroke:none;stroke-width:.187302" transform="matrix(1.4081 0 0 -1.4081 43.576 184.353)"/></g><g style="stroke-width:.187302"><path d="m0 0-6.083-3.391c-.12.215-.238.431-.356.648L-.313.572C-.209.38-.105.189 0 0" style="fill:#5d9db4;fill-opacity:1;fill-rule:nonzero;stroke:none;stroke-width:.187302" transform="matrix(1.4081 0 0 -1.4081 44.802 186.659)"/></g><g style="stroke-width:.187302"><path d="m0 0-5.961-3.602c-.127.211-.254.423-.379.636L-.334.561C-.223.372-.111.186 0 0" style="fill:#5d9db4;fill-opacity:1;fill-rule:nonzero;stroke:none;stroke-width:.187302" transform="matrix(1.4081 0 0 -1.4081 46.108 188.92)"/></g><g style="stroke-width:.187302"><path d="m0 0-5.834-3.808c-.133.206-.268.413-.399.622L-.354.549C-.236.364-.119.182 0 0" style="fill:#5d9db4;fill-opacity:1;fill-rule:nonzero;stroke:none;stroke-width:.187302" transform="matrix(1.4081 0 0 -1.4081 47.495 191.136)"/></g><g style="stroke-width:.187302"><path d="m0 0-5.695-4.009c-.143.201-.284.405-.422.608L-.371.536C-.249.356-.125.178 0 0" style="fill:#5d9db4;fill-opacity:1;fill-rule:nonzero;stroke:none;stroke-width:.187302" transform="matrix(1.4081 0 0 -1.4081 48.955 193.302)"/></g><g style="stroke-width:.187302"><path d="m0 0-5.552-4.204c-.149.196-.297.393-.443.592L-.391.523 0 0" style="fill:#5d9db4;fill-opacity:1;fill-rule:nonzero;stroke:none;stroke-width:.187302" transform="matrix(1.4081 0 0 -1.4081 50.491 195.416)"/></g><g style="stroke-width:.187302"><path d="m0 0-5.403-4.396c-.155.191-.309.382-.463.576L-.409.508C-.272.338-.138.168 0 0" style="fill:#5d9db4;fill-opacity:1;fill-rule:nonzero;stroke:none;stroke-width:.187302" transform="matrix(1.4081 0 0 -1.4081 52.1 197.473)"/></g><g style="stroke-width:.187302"><path d="m0 0-5.246-4.582-.483.561L-.426.494C-.285.329-.143.164 0 0" style="fill:#5d9db4;fill-opacity:1;fill-rule:nonzero;stroke:none;stroke-width:.187302" transform="matrix(1.4081 0 0 -1.4081 53.779 199.475)"/></g><g style="stroke-width:.187302"><path d="m0 0-5.083-4.763c-.169.18-.335.362-.502.543L-.443.479C-.297.317-.148.159 0 0" style="fill:#5d9db4;fill-opacity:1;fill-rule:nonzero;stroke:none;stroke-width:.187302" transform="matrix(1.4081 0 0 -1.4081 55.528 201.415)"/></g><g style="stroke-width:.187302"><path d="m0 0-4.914-4.937c-.174.173-.348.348-.521.525L-.461.463C-.308.308-.154.153 0 0" style="fill:#5d9db4;fill-opacity:1;fill-rule:nonzero;stroke:none;stroke-width:.187302" transform="matrix(1.4081 0 0 -1.4081 57.343 203.293)"/></g><g style="stroke-width:.187302"><path d="m0 0-4.738-5.104c-.18.167-.36.335-.539.505L-.476.446C-.317.297-.16.147 0 0" style="fill:#5d9db4;fill-opacity:1;fill-rule:nonzero;stroke:none;stroke-width:.187302" transform="matrix(1.4081 0 0 -1.4081 59.221 205.109)"/></g><g style="stroke-width:.187302"><path d="m0 0-4.557-5.268a66.81 66.81 0 0 0-.556.488L-.49.43C-.328.285-.164.143 0 0" style="fill:#5d9db4;fill-opacity:1;fill-rule:nonzero;stroke:none;stroke-width:.187302" transform="matrix(1.4081 0 0 -1.4081 61.163 206.856)"/></g><g style="stroke-width:.187302"><path d="m0 0-4.371-5.424a50.74 50.74 0 0 0-.572.468L-.506.412C-.338.273-.17.136 0 0" style="fill:#5d9db4;fill-opacity:1;fill-rule:nonzero;stroke:none;stroke-width:.187302" transform="matrix(1.4081 0 0 -1.4081 63.165 208.534)"/></g><g style="stroke-width:.187302"><path d="m0 0-4.179-5.572a50.64 50.64 0 0 0-.589.447L-.52.395C-.347.262-.174.131 0 0" style="fill:#5d9db4;fill-opacity:1;fill-rule:nonzero;stroke:none;stroke-width:.187302" transform="matrix(1.4081 0 0 -1.4081 65.224 210.143)"/></g><g style="stroke-width:.187302"><path d="m0 0-3.981-5.715c-.203.141-.404.282-.605.426L-.533.376C-.355.249-.178.124 0 0" style="fill:#5d9db4;fill-opacity:1;fill-rule:nonzero;stroke:none;stroke-width:.187302" transform="matrix(1.4081 0 0 -1.4081 67.337 211.677)"/></g><g style="stroke-width:.187302"><path d="m0 0-3.78-5.851c-.206.133-.412.269-.618.406L-.546.357C-.364.236-.183.117 0 0" style="fill:#5d9db4;fill-opacity:1;fill-rule:nonzero;stroke:none;stroke-width:.187302" transform="matrix(1.4081 0 0 -1.4081 69.503 213.138)"/></g><g style="stroke-width:.187302"><path d="m0 0-3.572-5.979a44.29 44.29 0 0 0-.633.383L-.559.338C-.373.224-.187.111 0 0" style="fill:#5d9db4;fill-opacity:1;fill-rule:nonzero;stroke:none;stroke-width:.187302" transform="matrix(1.4081 0 0 -1.4081 71.718 214.523)"/></g><g style="stroke-width:.187302"><path d="m0 0-3.363-6.101c-.215.12-.43.24-.645.362L-.57.317C-.38.211-.19.104 0 0" style="fill:#5d9db4;fill-opacity:1;fill-rule:nonzero;stroke:none;stroke-width:.187302" transform="matrix(1.4081 0 0 -1.4081 73.982 215.828)"/></g><g style="stroke-width:.187302"><path d="m0 0-3.147-6.214c-.22.111-.44.224-.658.339L-.581.298C-.387.197-.193.098 0 0" style="fill:#5d9db4;fill-opacity:1;fill-rule:nonzero;stroke:none;stroke-width:.187302" transform="matrix(1.4081 0 0 -1.4081 76.288 217.054)"/></g><g style="stroke-width:.187302"><path d="m0 0-2.928-6.319a58.18 58.18 0 0 0-.67.315L-.59.278 0 0" style="fill:#5d9db4;fill-opacity:1;fill-rule:nonzero;stroke:none;stroke-width:.187302" transform="matrix(1.4081 0 0 -1.4081 78.635 218.2)"/></g><g style="stroke-width:.187302"><path d="m0 0-2.706-6.418a40.89 40.89 0 0 0-.68.292L-.6.257C-.4.17-.199.085 0 0" style="fill:#5d9db4;fill-opacity:1;fill-rule:nonzero;stroke:none;stroke-width:.187302" transform="matrix(1.4081 0 0 -1.4081 81.023 219.261)"/></g><g style="stroke-width:.187302"><path d="m0 0-2.48-6.509c-.231.088-.461.177-.69.268L-.608.235C-.406.155-.203.077 0 0" style="fill:#5d9db4;fill-opacity:1;fill-rule:nonzero;stroke:none;stroke-width:.187302" transform="matrix(1.4081 0 0 -1.4081 83.445 220.239)"/></g><g style="stroke-width:.187302"><path d="m0 0-2.252-6.591c-.233.079-.466.161-.698.243L-.616.215C-.411.142-.206.07 0 0" style="fill:#5d9db4;fill-opacity:1;fill-rule:nonzero;stroke:none;stroke-width:.187302" transform="matrix(1.4081 0 0 -1.4081 85.9 221.133)"/></g><g style="stroke-width:.187302"><path d="m0 0-2.021-6.665c-.235.071-.471.144-.706.219L-.623.193C-.416.128-.209.063 0 0" style="fill:#5d9db4;fill-opacity:1;fill-rule:nonzero;stroke:none;stroke-width:.187302" transform="matrix(1.4081 0 0 -1.4081 88.385 221.94)"/></g><g style="stroke-width:.187302"><path d="m0 0-1.787-6.732c-.238.063-.476.128-.713.194L-.629.171C-.42.113-.21.056 0 0" style="fill:#5d9db4;fill-opacity:1;fill-rule:nonzero;stroke:none;stroke-width:.187302" transform="matrix(1.4081 0 0 -1.4081 90.896 222.659)"/></g><g style="stroke-width:.187302"><path d="m0 0-1.551-6.79c-.239.055-.479.111-.72.169L-.635.149 0 0" style="fill:#5d9db4;fill-opacity:1;fill-rule:nonzero;stroke:none;stroke-width:.187302" transform="matrix(1.4081 0 0 -1.4081 93.43 223.292)"/></g><g style="stroke-width:.187302"><path d="m0 0-1.312-6.84a44.46 44.46 0 0 0-.727.144L-.641.127C-.427.083-.214.041 0 0" style="fill:#5d9db4;fill-opacity:1;fill-rule:nonzero;stroke:none;stroke-width:.187302" transform="matrix(1.4081 0 0 -1.4081 95.986 223.833)"/></g><g style="stroke-width:.187302"><path d="m0 0-1.072-6.882c-.244.038-.488.077-.731.118L-.643.104C-.43.068-.215.034 0 0" style="fill:#5d9db4;fill-opacity:1;fill-rule:nonzero;stroke:none;stroke-width:.187302" transform="matrix(1.4081 0 0 -1.4081 98.558 224.287)"/></g><g style="stroke-width:.187302"><path d="m0 0-.834-6.915a63.68 63.68 0 0 0-.732.093L-.647.082C-.432.053-.216.026 0 0" style="fill:#5d9db4;fill-opacity:1;fill-rule:nonzero;stroke:none;stroke-width:.187302" transform="matrix(1.4081 0 0 -1.4081 101.146 224.65)"/></g><g style="stroke-width:.187302"><path d="m0 0-.591-6.94c-.244.02-.49.044-.736.067L-.649.059C-.433.038-.216.019 0 0" style="fill:#5d9db4;fill-opacity:1;fill-rule:nonzero;stroke:none;stroke-width:.187302" transform="matrix(1.4081 0 0 -1.4081 103.743 224.922)"/></g><g style="stroke-width:.187302"><path d="m0 0-.348-6.957c-.246.013-.492.026-.738.042L-.65.036C-.434.022-.217.011 0 0" style="fill:#5d9db4;fill-opacity:1;fill-rule:nonzero;stroke:none;stroke-width:.187302" transform="matrix(1.4081 0 0 -1.4081 106.35 225.104)"/></g><g style="stroke-width:.187302"><path d="m0 0-.104-6.965c-.248.004-.493.009-.74.016L-.652.014C-.434.008-.217.003 0 0" style="fill:#5d9db4;fill-opacity:1;fill-rule:nonzero;stroke:none;stroke-width:.187302" transform="matrix(1.4081 0 0 -1.4081 108.96 225.195)"/></g><g style="stroke-width:.187302"><path d="m0 0 .139-6.964a45.647 45.647 0 0 0-.74-.01L-.652-.009c.218.001.435.005.652.009" style="fill:#5d9db4;fill-opacity:1;fill-rule:nonzero;stroke:none;stroke-width:.187302" transform="matrix(1.4081 0 0 -1.4081 111.572 225.195)"/></g><g style="stroke-width:.187302"><path d="m0 0 .381-6.954c-.245-.014-.492-.025-.738-.036L-.651-.031c.216.01.434.019.651.031" style="fill:#5d9db4;fill-opacity:1;fill-rule:nonzero;stroke:none;stroke-width:.187302" transform="matrix(1.4081 0 0 -1.4081 114.183 225.104)"/></g><g style="stroke-width:.187302"><path d="m0 0 .623-6.937c-.245-.022-.49-.042-.736-.062L-.65-.054 0 0" style="fill:#5d9db4;fill-opacity:1;fill-rule:nonzero;stroke:none;stroke-width:.187302" transform="matrix(1.4081 0 0 -1.4081 116.789 224.921)"/></g><g style="stroke-width:.187302"><path d="m0 0 .865-6.911c-.243-.03-.489-.06-.734-.087L-.647-.077c.216.024.431.05.647.077" style="fill:#5d9db4;fill-opacity:1;fill-rule:nonzero;stroke:none;stroke-width:.187302" transform="matrix(1.4081 0 0 -1.4081 119.387 224.647)"/></g><g style="stroke-width:.187302"><path d="m0 0 1.105-6.877a42.71 42.71 0 0 0-.73-.112L-.645-.1 0 0" style="fill:#5d9db4;fill-opacity:1;fill-rule:nonzero;stroke:none;stroke-width:.187302" transform="matrix(1.4081 0 0 -1.4081 121.973 224.283)"/></g><g style="stroke-width:.187302"><path d="m0 0 1.345-6.834a42.305 42.305 0 0 0-.726-.138l-1.26 6.85c.214.039.428.08.641.122" style="fill:#5d9db4;fill-opacity:1;fill-rule:nonzero;stroke:none;stroke-width:.187302" transform="matrix(1.4081 0 0 -1.4081 124.546 223.83)"/></g><g style="stroke-width:.187302"><path d="m0 0 1.582-6.783a39.916 39.916 0 0 0-.721-.163L-.637-.145c.213.047.425.096.637.145" style="fill:#5d9db4;fill-opacity:1;fill-rule:nonzero;stroke:none;stroke-width:.187302" transform="matrix(1.4081 0 0 -1.4081 127.102 223.286)"/></g><g style="stroke-width:.187302"><path d="m0 0 1.819-6.724c-.237-.063-.475-.127-.715-.188L-.63-.166c.21.054.421.109.63.166" style="fill:#5d9db4;fill-opacity:1;fill-rule:nonzero;stroke:none;stroke-width:.187302" transform="matrix(1.4081 0 0 -1.4081 129.635 222.654)"/></g><g style="stroke-width:.187302"><path d="m0 0 2.053-6.656a47.453 47.453 0 0 0-.707-.213L-.624-.188c.208.061.417.124.624.188" style="fill:#5d9db4;fill-opacity:1;fill-rule:nonzero;stroke:none;stroke-width:.187302" transform="matrix(1.4081 0 0 -1.4081 132.146 221.933)"/></g><g style="stroke-width:.187302"><path d="m0 0 2.283-6.58c-.232-.081-.467-.16-.701-.237L-.619-.21c.207.069.414.139.619.21" style="fill:#5d9db4;fill-opacity:1;fill-rule:nonzero;stroke:none;stroke-width:.187302" transform="matrix(1.4081 0 0 -1.4081 134.632 221.126)"/></g><g style="stroke-width:.187302"><path d="m0 0 2.512-6.496c-.229-.089-.46-.177-.692-.263L-.609-.231c.204.076.407.153.609.231" style="fill:#5d9db4;fill-opacity:1;fill-rule:nonzero;stroke:none;stroke-width:.187302" transform="matrix(1.4081 0 0 -1.4081 137.086 220.232)"/></g><g style="stroke-width:.187302"><path d="m0 0 2.736-6.405a51.366 51.366 0 0 0-.681-.286L-.602-.253 0 0" style="fill:#5d9db4;fill-opacity:1;fill-rule:nonzero;stroke:none;stroke-width:.187302" transform="matrix(1.4081 0 0 -1.4081 139.508 219.253)"/></g><g style="stroke-width:.187302"><path d="m0 0 2.957-6.306a66.61 66.61 0 0 0-.67-.309L-.594-.273c.199.089.397.181.594.273" style="fill:#5d9db4;fill-opacity:1;fill-rule:nonzero;stroke:none;stroke-width:.187302" transform="matrix(1.4081 0 0 -1.4081 141.896 218.19)"/></g><g style="stroke-width:.187302"><path d="m0 0 3.178-6.198a51.01 51.01 0 0 0-.66-.333l-3.1 6.237c.195.098.39.195.582.294" style="fill:#5d9db4;fill-opacity:1;fill-rule:nonzero;stroke:none;stroke-width:.187302" transform="matrix(1.4081 0 0 -1.4081 144.242 217.044)"/></g><g style="stroke-width:.187302"><path d="m0 0 3.391-6.083c-.215-.12-.431-.239-.649-.356L-.572-.313C-.381-.21-.19-.105 0 0" style="fill:#5d9db4;fill-opacity:1;fill-rule:nonzero;stroke:none;stroke-width:.187302" transform="matrix(1.4081 0 0 -1.4081 146.549 215.818)"/></g><g style="stroke-width:.187302"><path d="m0 0 3.602-5.963c-.21-.127-.422-.253-.635-.378L-.56-.334c.188.109.374.221.56.334" style="fill:#5d9db4;fill-opacity:1;fill-rule:nonzero;stroke:none;stroke-width:.187302" transform="matrix(1.4081 0 0 -1.4081 148.81 214.51)"/></g><g style="stroke-width:.187302"><path d="m0 0 3.807-5.832a40.911 40.911 0 0 0-.621-.4L-.549-.354 0 0" style="fill:#5d9db4;fill-opacity:1;fill-rule:nonzero;stroke:none;stroke-width:.187302" transform="matrix(1.4081 0 0 -1.4081 151.026 213.127)"/></g><g style="stroke-width:.187302"><path d="m0 0 4.009-5.696c-.2-.142-.404-.283-.609-.422L-.535-.372c.18.123.357.247.535.372" style="fill:#5d9db4;fill-opacity:1;fill-rule:nonzero;stroke:none;stroke-width:.187302" transform="matrix(1.4081 0 0 -1.4081 153.19 211.665)"/></g><g style="stroke-width:.187302"><path d="m0 0 4.204-5.553a39.644 39.644 0 0 0-.592-.443L-.522-.391c.175.129.349.26.522.391" style="fill:#5d9db4;fill-opacity:1;fill-rule:nonzero;stroke:none;stroke-width:.187302" transform="matrix(1.4081 0 0 -1.4081 155.304 210.13)"/></g><g style="stroke-width:.187302"><path d="m0 0 4.396-5.402a41.733 41.733 0 0 0-.576-.464L-.51-.409c.172.136.342.271.51.409" style="fill:#5d9db4;fill-opacity:1;fill-rule:nonzero;stroke:none;stroke-width:.187302" transform="matrix(1.4081 0 0 -1.4081 157.363 208.52)"/></g><g style="stroke-width:.187302"><path d="m0 0 4.582-5.246a64.627 64.627 0 0 0-.56-.483L-.495-.427c.168.142.332.284.495.427" style="fill:#5d9db4;fill-opacity:1;fill-rule:nonzero;stroke:none;stroke-width:.187302" transform="matrix(1.4081 0 0 -1.4081 159.364 206.841)"/></g><g style="stroke-width:.187302"><path d="m0 0 4.763-5.082c-.179-.169-.361-.336-.542-.503l-4.7 5.142c.162.147.321.295.479.443" style="fill:#5d9db4;fill-opacity:1;fill-rule:nonzero;stroke:none;stroke-width:.187302" transform="matrix(1.4081 0 0 -1.4081 161.304 205.093)"/></g><g style="stroke-width:.187302"><path d="m0 0 4.937-4.913a36.939 36.939 0 0 0-.526-.521L-.463-.459c.155.152.31.305.463.459" style="fill:#5d9db4;fill-opacity:1;fill-rule:nonzero;stroke:none;stroke-width:.187302" transform="matrix(1.4081 0 0 -1.4081 163.184 203.278)"/></g><g style="stroke-width:.187302"><path d="m0 0 5.105-4.738a42.886 42.886 0 0 0-.505-.539L-.446-.476 0 0" style="fill:#5d9db4;fill-opacity:1;fill-rule:nonzero;stroke:none;stroke-width:.187302" transform="matrix(1.4081 0 0 -1.4081 164.997 201.399)"/></g><g style="stroke-width:.187302"><path d="m0 0 5.268-4.558c-.162-.185-.324-.371-.488-.555L-.429-.491c.144.163.287.327.429.491" style="fill:#5d9db4;fill-opacity:1;fill-rule:nonzero;stroke:none;stroke-width:.187302" transform="matrix(1.4081 0 0 -1.4081 166.745 199.457)"/></g><g style="stroke-width:.187302"><path d="m0 0 5.424-4.37a50.842 50.842 0 0 0-.468-.573L-.412-.505c.139.168.275.336.412.505" style="fill:#5d9db4;fill-opacity:1;fill-rule:nonzero;stroke:none;stroke-width:.187302" transform="matrix(1.4081 0 0 -1.4081 168.424 197.456)"/></g><g style="stroke-width:.187302"><path d="m0 0 5.572-4.179a82.925 82.925 0 0 0-.447-.589L-.395-.52c.133.172.264.346.395.52" style="fill:#5d9db4;fill-opacity:1;fill-rule:nonzero;stroke:none;stroke-width:.187302" transform="matrix(1.4081 0 0 -1.4081 170.033 195.396)"/></g><g style="stroke-width:.187302"><path d="m0 0 5.715-3.98a46.342 46.342 0 0 0-.426-.605L-.376-.532A64 64 0 0 1 0 0" style="fill:#5d9db4;fill-opacity:1;fill-rule:nonzero;stroke:none;stroke-width:.187302" transform="matrix(1.4081 0 0 -1.4081 171.568 193.284)"/></g><g style="stroke-width:.187302"><path d="m0 0 5.851-3.78a59.63 59.63 0 0 0-.406-.618L-.357-.546c.121.181.239.363.357.546" style="fill:#5d9db4;fill-opacity:1;fill-rule:nonzero;stroke:none;stroke-width:.187302" transform="matrix(1.4081 0 0 -1.4081 173.028 191.117)"/></g><g style="stroke-width:.187302"><path d="m0 0 5.979-3.572a42.652 42.652 0 0 0-.383-.633L-.338-.557c.114.186.227.371.338.557" style="fill:#5d9db4;fill-opacity:1;fill-rule:nonzero;stroke:none;stroke-width:.187302" transform="matrix(1.4081 0 0 -1.4081 174.411 188.903)"/></g><g style="stroke-width:.187302"><path d="m0 0 6.1-3.362a45.946 45.946 0 0 0-.362-.646L-.318-.569c.107.189.213.38.318.569" style="fill:#5d9db4;fill-opacity:1;fill-rule:nonzero;stroke:none;stroke-width:.187302" transform="matrix(1.4081 0 0 -1.4081 175.718 186.64)"/></g><g style="stroke-width:.187302"><path d="m0 0 6.213-3.147c-.111-.22-.224-.44-.338-.658L-.299-.58c.102.192.2.386.299.58" style="fill:#5d9db4;fill-opacity:1;fill-rule:nonzero;stroke:none;stroke-width:.187302" transform="matrix(1.4081 0 0 -1.4081 176.944 184.332)"/></g><g style="stroke-width:.187302"><path d="m0 0 6.32-2.929a57.207 57.207 0 0 0-.316-.669L-.277-.59 0 0" style="fill:#5d9db4;fill-opacity:1;fill-rule:nonzero;stroke:none;stroke-width:.187302" transform="matrix(1.4081 0 0 -1.4081 178.088 181.985)"/></g><g style="stroke-width:.187302"><path d="m0 0 6.418-2.706a33.874 33.874 0 0 0-.291-.68L-.256-.6c.086.2.172.4.256.6" style="fill:#5d9db4;fill-opacity:1;fill-rule:nonzero;stroke:none;stroke-width:.187302" transform="matrix(1.4081 0 0 -1.4081 179.15 179.598)"/></g><g style="stroke-width:.187302"><path d="m0 0 6.508-2.48c-.087-.231-.176-.46-.267-.69L-.236-.607c.08.202.158.404.236.607" style="fill:#5d9db4;fill-opacity:1;fill-rule:nonzero;stroke:none;stroke-width:.187302" transform="matrix(1.4081 0 0 -1.4081 180.13 177.176)"/></g><g style="stroke-width:.187302"><path d="m0 0 6.59-2.252a57.68 57.68 0 0 0-.242-.699L-.215-.617C-.143-.411-.07-.206 0 0" style="fill:#5d9db4;fill-opacity:1;fill-rule:nonzero;stroke:none;stroke-width:.187302" transform="matrix(1.4081 0 0 -1.4081 181.023 174.72)"/></g><g style="stroke-width:.187302"><path d="m0 0 6.666-2.021c-.071-.235-.145-.47-.219-.706L-.193-.623c.066.208.131.416.193.623" style="fill:#5d9db4;fill-opacity:1;fill-rule:nonzero;stroke:none;stroke-width:.187302" transform="matrix(1.4081 0 0 -1.4081 181.829 172.237)"/></g><g style="stroke-width:.187302"><path d="m0 0 6.732-1.786c-.064-.238-.128-.476-.195-.714L-.172-.629c.059.21.115.42.172.629" style="fill:#5d9db4;fill-opacity:1;fill-rule:nonzero;stroke:none;stroke-width:.187302" transform="matrix(1.4081 0 0 -1.4081 182.55 169.726)"/></g><g style="stroke-width:.187302"><path d="m0 0 6.79-1.551c-.055-.24-.111-.48-.17-.72L-.149-.635c.05.211.101.423.149.635" style="fill:#5d9db4;fill-opacity:1;fill-rule:nonzero;stroke:none;stroke-width:.187302" transform="matrix(1.4081 0 0 -1.4081 183.18 167.19)"/></g><g style="stroke-width:.187302"><path d="m0 0 6.84-1.312a44.342 44.342 0 0 0-.144-.726L-.127-.64c.043.214.086.427.127.64" style="fill:#5d9db4;fill-opacity:1;fill-rule:nonzero;stroke:none;stroke-width:.187302" transform="matrix(1.4081 0 0 -1.4081 183.724 164.635)"/></g><g style="stroke-width:.187302"><path d="m0 0 6.882-1.073a61.508 61.508 0 0 0-.117-.73L-.104-.644c.037.215.072.429.104.644" style="fill:#5d9db4;fill-opacity:1;fill-rule:nonzero;stroke:none;stroke-width:.187302" transform="matrix(1.4081 0 0 -1.4081 184.176 162.062)"/></g><g style="stroke-width:.187302"><path d="m0 0 6.914-.832a63.95 63.95 0 0 0-.092-.734l-6.904.92L0 0" style="fill:#5d9db4;fill-opacity:1;fill-rule:nonzero;stroke:none;stroke-width:.187302" transform="matrix(1.4081 0 0 -1.4081 184.54 159.476)"/></g><g style="stroke-width:.187302"><path d="m0 0 6.939-.591c-.02-.245-.043-.491-.066-.736L-.06-.65c.021.216.04.433.06.65" style="fill:#5d9db4;fill-opacity:1;fill-rule:nonzero;stroke:none;stroke-width:.187302" transform="matrix(1.4081 0 0 -1.4081 184.813 156.877)"/></g><g style="stroke-width:.187302"><path d="m0 0 6.956-.349a46.267 46.267 0 0 0-.042-.738l-6.951.436c.014.216.026.434.037.651" style="fill:#5d9db4;fill-opacity:1;fill-rule:nonzero;stroke:none;stroke-width:.187302" transform="matrix(1.4081 0 0 -1.4081 184.994 154.27)"/></g><g style="stroke-width:.187302"><path d="m0 0 6.965-.105c-.004-.247-.01-.494-.016-.74l-6.963.193c.006.216.01.434.014.652" style="fill:#5d9db4;fill-opacity:1;fill-rule:nonzero;stroke:none;stroke-width:.187302" transform="matrix(1.4081 0 0 -1.4081 185.085 151.66)"/></g><g style="stroke-width:.187302"><path d="m0 0 6.963.138c.006-.246.008-.492.011-.74L.009-.652C.007-.435.004-.217 0 0" style="fill:#5d9db4;fill-opacity:1;fill-rule:nonzero;stroke:none;stroke-width:.187302" transform="matrix(1.4081 0 0 -1.4081 185.085 149.048)"/></g><g style="stroke-width:.187302"><path d="m0 0 6.955.381.036-.738L.032-.652C.022-.435.013-.217 0 0" style="fill:#5d9db4;fill-opacity:1;fill-rule:nonzero;stroke:none;stroke-width:.187302" transform="matrix(1.4081 0 0 -1.4081 184.993 146.437)"/></g><g style="stroke-width:.187302"><path d="m0 0 6.937.623c.023-.245.043-.491.061-.737L.055-.65C.038-.434.02-.217 0 0" style="fill:#5d9db4;fill-opacity:1;fill-rule:nonzero;stroke:none;stroke-width:.187302" transform="matrix(1.4081 0 0 -1.4081 184.81 143.831)"/></g><g style="stroke-width:.187302"><path d="m0 0 6.91.865c.031-.244.061-.489.088-.734L.076-.648C.053-.432.026-.216 0 0" style="fill:#5d9db4;fill-opacity:1;fill-rule:nonzero;stroke:none;stroke-width:.187302" transform="matrix(1.4081 0 0 -1.4081 184.538 141.234)"/></g><g style="stroke-width:.187302"><path d="m0 0 6.877 1.106c.039-.243.076-.487.113-.731L.101-.645C.068-.429.035-.214 0 0" style="fill:#5d9db4;fill-opacity:1;fill-rule:nonzero;stroke:none;stroke-width:.187302" transform="matrix(1.4081 0 0 -1.4081 184.172 138.647)"/></g><g style="stroke-width:.187302"><path d="m0 0 6.834 1.345c.049-.241.095-.484.139-.726L.123-.641C.084-.427.043-.213 0 0" style="fill:#5d9db4;fill-opacity:1;fill-rule:nonzero;stroke:none;stroke-width:.187302" transform="matrix(1.4081 0 0 -1.4081 183.718 136.074)"/></g><g style="stroke-width:.187302"><path d="m0 0 6.782 1.583c.056-.239.111-.48.163-.722L.144-.636C.097-.424.049-.211 0 0" style="fill:#5d9db4;fill-opacity:1;fill-rule:nonzero;stroke:none;stroke-width:.187302" transform="matrix(1.4081 0 0 -1.4081 183.176 133.52)"/></g><g style="stroke-width:.187302"><path d="m0 0 6.723 1.819c.064-.238.128-.476.189-.715L.166-.63C.111-.419.057-.209 0 0" style="fill:#5d9db4;fill-opacity:1;fill-rule:nonzero;stroke:none;stroke-width:.187302" transform="matrix(1.4081 0 0 -1.4081 182.544 130.985)"/></g><g style="stroke-width:.187302"><path d="m0 0 6.654 2.052c.075-.236.145-.472.215-.708L.187-.625C.126-.416.063-.208 0 0" style="fill:#5d9db4;fill-opacity:1;fill-rule:nonzero;stroke:none;stroke-width:.187302" transform="matrix(1.4081 0 0 -1.4081 181.823 128.473)"/></g><g style="stroke-width:.187302"><path d="m0 0 6.58 2.283a52.3 52.3 0 0 0 .238-.7L.211-.617 0 0" style="fill:#5d9db4;fill-opacity:1;fill-rule:nonzero;stroke:none;stroke-width:.187302" transform="matrix(1.4081 0 0 -1.4081 181.015 125.99)"/></g><g style="stroke-width:.187302"><path d="m0 0 6.496 2.512c.09-.23.178-.46.264-.692L.232-.61A48.36 48.36 0 0 1 0 0" style="fill:#5d9db4;fill-opacity:1;fill-rule:nonzero;stroke:none;stroke-width:.187302" transform="matrix(1.4081 0 0 -1.4081 180.12 123.535)"/></g><g style="stroke-width:.187302"><path d="m0 0 6.404 2.737c.098-.226.194-.454.287-.682L.253-.602C.17-.399.086-.199 0 0" style="fill:#5d9db4;fill-opacity:1;fill-rule:nonzero;stroke:none;stroke-width:.187302" transform="matrix(1.4081 0 0 -1.4081 179.142 121.113)"/></g><g style="stroke-width:.187302"><path d="m0 0 6.305 2.958c.105-.223.207-.446.31-.671L.273-.593C.184-.395.092-.197 0 0" style="fill:#5d9db4;fill-opacity:1;fill-rule:nonzero;stroke:none;stroke-width:.187302" transform="matrix(1.4081 0 0 -1.4081 178.08 118.726)"/></g><g style="stroke-width:.187302"><path d="m0 0 6.199 3.177c.112-.219.224-.44.333-.66L.295-.582C.197-.388.1-.193 0 0" style="fill:#5d9db4;fill-opacity:1;fill-rule:nonzero;stroke:none;stroke-width:.187302" transform="matrix(1.4081 0 0 -1.4081 176.933 116.379)"/></g><g style="stroke-width:.187302"><path d="m0 0 6.084 3.392a44.8 44.8 0 0 0 .355-.649L.314-.571C.211-.38.105-.189 0 0" style="fill:#5d9db4;fill-opacity:1;fill-rule:nonzero;stroke:none;stroke-width:.187302" transform="matrix(1.4081 0 0 -1.4081 175.707 114.073)"/></g><g style="stroke-width:.187302"><path d="m0 0 5.962 3.602c.128-.21.253-.423.378-.635L.334-.56A75.25 75.25 0 0 1 0 0" style="fill:#5d9db4;fill-opacity:1;fill-rule:nonzero;stroke:none;stroke-width:.187302" transform="matrix(1.4081 0 0 -1.4081 174.4 111.81)"/></g><g style="stroke-width:.187302"><path d="m0 0 5.832 3.808c.135-.206.268-.413.4-.622L.354-.548 0 0" style="fill:#5d9db4;fill-opacity:1;fill-rule:nonzero;stroke:none;stroke-width:.187302" transform="matrix(1.4081 0 0 -1.4081 173.017 109.595)"/></g><g style="stroke-width:.187302"><path d="m0 0 5.696 4.009c.141-.201.282-.405.421-.608L.372-.536C.249-.356.124-.178 0 0" style="fill:#5d9db4;fill-opacity:1;fill-rule:nonzero;stroke:none;stroke-width:.187302" transform="matrix(1.4081 0 0 -1.4081 171.555 107.43)"/></g><g style="stroke-width:.187302"><path d="m0 0 5.553 4.205c.148-.196.296-.394.443-.593L.391-.522C.262-.348.131-.174 0 0" style="fill:#5d9db4;fill-opacity:1;fill-rule:nonzero;stroke:none;stroke-width:.187302" transform="matrix(1.4081 0 0 -1.4081 170.02 105.316)"/></g><g style="stroke-width:.187302"><path d="m0 0 5.402 4.396c.157-.19.311-.382.463-.576L.408-.508C.273-.338.137-.168 0 0" style="fill:#5d9db4;fill-opacity:1;fill-rule:nonzero;stroke:none;stroke-width:.187302" transform="matrix(1.4081 0 0 -1.4081 168.41 103.259)"/></g><g style="stroke-width:.187302"><path d="m0 0 5.246 4.582c.162-.186.323-.373.483-.561L.427-.494C.285-.328.144-.164 0 0" style="fill:#5d9db4;fill-opacity:1;fill-rule:nonzero;stroke:none;stroke-width:.187302" transform="matrix(1.4081 0 0 -1.4081 166.73 101.256)"/></g><g style="stroke-width:.187302"><path d="m0 0 5.083 4.763c.168-.18.336-.362.502-.543L.443-.479C.296-.317.147-.158 0 0" style="fill:#5d9db4;fill-opacity:1;fill-rule:nonzero;stroke:none;stroke-width:.187302" transform="matrix(1.4081 0 0 -1.4081 164.982 99.316)"/></g><g style="stroke-width:.187302"><path d="m0 0 4.912 4.937c.176-.174.35-.349.522-.525L.459-.463C.307-.308.152-.154 0 0" style="fill:#5d9db4;fill-opacity:1;fill-rule:nonzero;stroke:none;stroke-width:.187302" transform="matrix(1.4081 0 0 -1.4081 163.169 97.436)"/></g><g style="stroke-width:.187302"><path d="m0 0 4.738 5.105c.182-.167.362-.336.539-.506L.477-.446C.318-.297.16-.147 0 0" style="fill:#5d9db4;fill-opacity:1;fill-rule:nonzero;stroke:none;stroke-width:.187302" transform="matrix(1.4081 0 0 -1.4081 161.287 95.623)"/></g><g style="stroke-width:.187302"><path d="m0 0 4.559 5.268c.185-.162.371-.324.554-.488L.492-.43C.328-.285.165-.143 0 0" style="fill:#5d9db4;fill-opacity:1;fill-rule:nonzero;stroke:none;stroke-width:.187302" transform="matrix(1.4081 0 0 -1.4081 159.346 93.875)"/></g><g style="stroke-width:.187302"><path d="m0 0 4.369 5.423c.193-.154.383-.31.573-.467L.504-.413C.337-.273.169-.137 0 0" style="fill:#5d9db4;fill-opacity:1;fill-rule:nonzero;stroke:none;stroke-width:.187302" transform="matrix(1.4081 0 0 -1.4081 157.346 92.196)"/></g><g style="stroke-width:.187302"><path d="m0 0 4.179 5.572c.196-.147.393-.296.589-.447L.52-.395C.348-.262.174-.13 0 0" style="fill:#5d9db4;fill-opacity:1;fill-rule:nonzero;stroke:none;stroke-width:.187302" transform="matrix(1.4081 0 0 -1.4081 155.286 90.589)"/></g><g style="stroke-width:.187302"><path d="m0 0 3.981 5.715c.202-.14.404-.282.605-.426L.532-.375A33.78 33.78 0 0 1 0 0" style="fill:#5d9db4;fill-opacity:1;fill-rule:nonzero;stroke:none;stroke-width:.187302" transform="matrix(1.4081 0 0 -1.4081 153.173 89.054)"/></g><g style="stroke-width:.187302"><path d="m0 0 3.779 5.851c.207-.134.413-.27.619-.406L.546-.357C.364-.237.183-.118 0 0" style="fill:#5d9db4;fill-opacity:1;fill-rule:nonzero;stroke:none;stroke-width:.187302" transform="matrix(1.4081 0 0 -1.4081 151.007 87.592)"/></g><g style="stroke-width:.187302"><path d="m0 0 3.573 5.979c.211-.126.422-.254.633-.383L.558-.338C.372-.224.187-.111 0 0" style="fill:#5d9db4;fill-opacity:1;fill-rule:nonzero;stroke:none;stroke-width:.187302" transform="matrix(1.4081 0 0 -1.4081 148.792 86.209)"/></g><g style="stroke-width:.187302"><path d="m0 0 3.361 6.1c.217-.119.432-.24.647-.362L.568-.318A80.94 80.94 0 0 1 0 0" style="fill:#5d9db4;fill-opacity:1;fill-rule:nonzero;stroke:none;stroke-width:.187302" transform="matrix(1.4081 0 0 -1.4081 146.53 84.902)"/></g><g style="stroke-width:.187302"><path d="m0 0 3.147 6.214c.22-.111.439-.224.658-.338L.58-.298C.387-.197.193-.098 0 0" style="fill:#5d9db4;fill-opacity:1;fill-rule:nonzero;stroke:none;stroke-width:.187302" transform="matrix(1.4081 0 0 -1.4081 144.222 83.677)"/></g><g style="stroke-width:.187302"><path d="m0 0 2.929 6.319c.223-.103.446-.209.669-.314L.59-.278C.395-.184.197-.092 0 0" style="fill:#5d9db4;fill-opacity:1;fill-rule:nonzero;stroke:none;stroke-width:.187302" transform="matrix(1.4081 0 0 -1.4081 141.874 82.532)"/></g><g style="stroke-width:.187302"><path d="m0 0 2.707 6.418c.227-.095.453-.192.68-.291L.6-.257C.4-.17.201-.084 0 0" style="fill:#5d9db4;fill-opacity:1;fill-rule:nonzero;stroke:none;stroke-width:.187302" transform="matrix(1.4081 0 0 -1.4081 139.486 81.47)"/></g><g style="stroke-width:.187302"><path d="m0 0 2.48 6.508c.23-.087.459-.177.69-.268L.607-.236C.404-.156.202-.077 0 0" style="fill:#5d9db4;fill-opacity:1;fill-rule:nonzero;stroke:none;stroke-width:.187302" transform="matrix(1.4081 0 0 -1.4081 137.066 80.491)"/></g><g style="stroke-width:.187302"><path d="m0 0 2.252 6.592c.233-.08.465-.161.697-.244L.616-.215C.41-.142.205-.07 0 0" style="fill:#5d9db4;fill-opacity:1;fill-rule:nonzero;stroke:none;stroke-width:.187302" transform="matrix(1.4081 0 0 -1.4081 134.61 79.599)"/></g><g style="stroke-width:.187302"><path d="m0 0 2.021 6.665c.236-.07.471-.144.707-.219L.624-.193C.415-.127.208-.063 0 0" style="fill:#5d9db4;fill-opacity:1;fill-rule:nonzero;stroke:none;stroke-width:.187302" transform="matrix(1.4081 0 0 -1.4081 132.126 78.791)"/></g><g style="stroke-width:.187302"><path d="m0 0 1.787 6.732c.237-.062.476-.128.713-.194L.63-.171C.42-.112.21-.056 0 0" style="fill:#5d9db4;fill-opacity:1;fill-rule:nonzero;stroke:none;stroke-width:.187302" transform="matrix(1.4081 0 0 -1.4081 129.615 78.072)"/></g><g style="stroke-width:.187302"><path d="m0 0 1.551 6.79c.24-.055.479-.111.72-.169L.635-.149 0 0" style="fill:#5d9db4;fill-opacity:1;fill-rule:nonzero;stroke:none;stroke-width:.187302" transform="matrix(1.4081 0 0 -1.4081 127.08 77.44)"/></g><g style="stroke-width:.187302"><path d="m0 0 1.313 6.841c.243-.046.484-.095.725-.145L.64-.127C.427-.083.214-.041 0 0" style="fill:#5d9db4;fill-opacity:1;fill-rule:nonzero;stroke:none;stroke-width:.187302" transform="matrix(1.4081 0 0 -1.4081 124.524 76.898)"/></g><g style="stroke-width:.187302"><path d="m0 0 1.074 6.882c.242-.038.487-.077.729-.118L.645-.104C.43-.068.215-.033 0 0" style="fill:#5d9db4;fill-opacity:1;fill-rule:nonzero;stroke:none;stroke-width:.187302" transform="matrix(1.4081 0 0 -1.4081 121.951 76.444)"/></g><g style="stroke-width:.187302"><path d="m0 0 .832 6.915c.244-.029.488-.06.733-.093L.646-.082A35.62 35.62 0 0 1 0 0" style="fill:#5d9db4;fill-opacity:1;fill-rule:nonzero;stroke:none;stroke-width:.187302" transform="matrix(1.4081 0 0 -1.4081 119.366 76.081)"/></g><g style="stroke-width:.187302"><path d="m0 0 .591 6.94c.245-.02.491-.043.736-.067L.65-.059A46.13 46.13 0 0 1 0 0" style="fill:#5d9db4;fill-opacity:1;fill-rule:nonzero;stroke:none;stroke-width:.187302" transform="matrix(1.4081 0 0 -1.4081 116.767 75.809)"/></g><g style="stroke-width:.187302"><path d="m0 0 .349 6.957c.246-.012.491-.026.738-.042L.652-.036C.436-.022.218-.011 0 0" style="fill:#5d9db4;fill-opacity:1;fill-rule:nonzero;stroke:none;stroke-width:.187302" transform="matrix(1.4081 0 0 -1.4081 114.16 75.627)"/></g><g style="stroke-width:.187302"><path d="m0 0 .105 6.965c.247-.004.493-.009.739-.016L.652-.014C.436-.008.217-.003 0 0" style="fill:#5d9db4;fill-opacity:1;fill-rule:nonzero;stroke:none;stroke-width:.187302" transform="matrix(1.4081 0 0 -1.4081 111.55 75.537)"/></g><g style="stroke-width:.187302"><path d="M0 0c-34.621 0-62.789-28.169-62.789-62.795 0-34.626 28.168-62.796 62.789-62.796 34.625 0 62.794 28.17 62.794 62.796S34.625 0 0 0m0-126.578c-35.166 0-63.777 28.612-63.777 63.783C-63.777-27.625-35.166.988 0 .988c35.17 0 63.781-28.613 63.781-63.783 0-35.171-28.611-63.783-63.781-63.783" style="fill:#5d9db4;fill-opacity:1;fill-rule:nonzero;stroke:none;stroke-width:.187302" transform="matrix(1.4081 0 0 -1.4081 110.408 62.144)"/></g><g style="stroke-width:.187302"><path d="m0 0-.088 1.953-.367-.02.072-2.198C-.257-.174-.127-.09 0 0" style="fill:#5d9db4;fill-opacity:1;fill-rule:evenodd;stroke:none;stroke-width:.187302" transform="matrix(1.4081 0 0 -1.4081 108.558 106.353)"/></g><g style="stroke-width:.187302"><path d="m0 0 .006.113-.367.018-.014-.205C-.25-.043-.127-.021 0 0" style="fill:#5d9db4;fill-opacity:1;fill-rule:evenodd;stroke:none;stroke-width:.187302" transform="matrix(1.4081 0 0 -1.4081 113.409 103.798)"/></g><g style="stroke-width:.187302"><path d="m0 0 1.73 4.415-.342.13L-.308.366Z" style="fill:#5d9db4;fill-opacity:1;fill-rule:evenodd;stroke:none;stroke-width:.187302" transform="matrix(1.4081 0 0 -1.4081 125.532 113.06)"/></g><g style="stroke-width:.187302"><path d="m0 0-.59 3.905-.362-.059.578-4.161c.125.103.246.211.374.315" style="fill:#5d9db4;fill-opacity:1;fill-rule:evenodd;stroke:none;stroke-width:.187302" transform="matrix(1.4081 0 0 -1.4081 104.302 109.586)"/></g><g style="stroke-width:.187302"><path d="m0 0 .078.463-.364.057-.052-.292C-.219.162-.113.075 0 0" style="fill:#5d9db4;fill-opacity:1;fill-rule:evenodd;stroke:none;stroke-width:.187302" transform="matrix(1.4081 0 0 -1.4081 118.263 104.848)"/></g><g style="stroke-width:.187302"><path d="m0 0 .746 2.705-.355.094L-.311.37Z" style="fill:#5d9db4;fill-opacity:1;fill-rule:evenodd;stroke:none;stroke-width:.187302" transform="matrix(1.4081 0 0 -1.4081 122.19 109.078)"/></g><g style="stroke-width:.187302"><path d="m0 0-2.507 6.677-.344-.134 2.501-6.9c.115.121.234.237.35.357" style="fill:#5d9db4;fill-opacity:1;fill-rule:evenodd;stroke:none;stroke-width:.187302" transform="matrix(1.4081 0 0 -1.4081 97.366 115.995)"/></g><g style="stroke-width:.187302"><path d="m0 0-7.596 7.708-.259-.262L-.27-.431c.09.144.178.287.27.431" style="fill:#5d9db4;fill-opacity:1;fill-rule:evenodd;stroke:none;stroke-width:.187302" transform="matrix(1.4081 0 0 -1.4081 87.843 128.11)"/></g><g style="stroke-width:.187302"><path d="m0 0-1.428 5.492-.355-.096 1.42-5.734L0 0" style="fill:#5d9db4;fill-opacity:1;fill-rule:evenodd;stroke:none;stroke-width:.187302" transform="matrix(1.4081 0 0 -1.4081 100.598 112.821)"/></g><g style="stroke-width:.187302"><path d="m0 0-6.348 7.958-.285-.232L-.287-.421c.096.14.189.281.287.421" style="fill:#5d9db4;fill-opacity:1;fill-rule:evenodd;stroke:none;stroke-width:.187302" transform="matrix(1.4081 0 0 -1.4081 89.815 125.154)"/></g><g style="stroke-width:.187302"><path d="m0 0-8.729 7.175-.23-.287L-.256-.437C-.172-.29-.084-.146 0 0" style="fill:#5d9db4;fill-opacity:1;fill-rule:evenodd;stroke:none;stroke-width:.187302" transform="matrix(1.4081 0 0 -1.4081 86.075 131.04)"/></g><g style="stroke-width:.187302"><path d="m0 0-5.041 7.889-.307-.202 5.04-8.093c.103.135.204.271.308.406" style="fill:#5d9db4;fill-opacity:1;fill-rule:evenodd;stroke:none;stroke-width:.187302" transform="matrix(1.4081 0 0 -1.4081 92.029 122.155)"/></g><g style="stroke-width:.187302"><path d="m0 0-3.737 7.47-.327-.169L-.331-.382c.108.129.222.254.331.382" style="fill:#5d9db4;fill-opacity:1;fill-rule:evenodd;stroke:none;stroke-width:.187302" transform="matrix(1.4081 0 0 -1.4081 94.529 119.105)"/></g><g style="stroke-width:.187302"><path d="m0 0 10.121 6.467-.203.307L-.317.399 0 0" style="fill:#5d9db4;fill-opacity:1;fill-rule:evenodd;stroke:none;stroke-width:.187302" transform="matrix(1.4081 0 0 -1.4081 136.458 134.641)"/></g><g style="stroke-width:.187302"><path d="m0 0 1.957.485.163.447L-.098.355Z" style="fill:#5d9db4;fill-opacity:1;fill-rule:evenodd;stroke:none;stroke-width:.187302" transform="matrix(1.4081 0 0 -1.4081 64.62 163.67)"/></g><g style="stroke-width:.187302"><path d="m0 0 10.277 2.673-.096.355L-.273.438C-.184.292-.09.147 0 0" style="fill:#5d9db4;fill-opacity:1;fill-rule:evenodd;stroke:none;stroke-width:.187302" transform="matrix(1.4081 0 0 -1.4081 142.198 142.957)"/></g><g style="stroke-width:.187302"><path d="m0 0 9.706 1.464-.06.363L-.252.45C-.169.3-.082.151 0 0" style="fill:#5d9db4;fill-opacity:1;fill-rule:evenodd;stroke:none;stroke-width:.187302" transform="matrix(1.4081 0 0 -1.4081 144.004 146.137)"/></g><g style="stroke-width:.187302"><path d="M0 0a.019.019 0 0 1-.002.007L-.01.006A.088.088 0 0 1 0 0" style="fill:#5d9db4;fill-opacity:1;fill-rule:evenodd;stroke:none;stroke-width:.187302" transform="matrix(1.4081 0 0 -1.4081 78.085 156.093)"/></g><g style="stroke-width:.187302"><path d="m0 0 8.805.397-.021.368L-.23.463C-.156.309-.074.156 0 0" style="fill:#5d9db4;fill-opacity:1;fill-rule:evenodd;stroke:none;stroke-width:.187302" transform="matrix(1.4081 0 0 -1.4081 145.757 149.597)"/></g><g style="stroke-width:.187302"><path d="m0 0 .167-.087.166.328L-.06.45C-.038.301-.02.149 0 0" style="fill:#5d9db4;fill-opacity:1;fill-rule:evenodd;stroke:none;stroke-width:.187302" transform="matrix(1.4081 0 0 -1.4081 152.617 172.992)"/></g><g style="stroke-width:.187302"><path d="m0 0 9.515 7.59-.233.285L-.327.391C-.215.263-.11.129 0 0" style="fill:#5d9db4;fill-opacity:1;fill-rule:evenodd;stroke:none;stroke-width:.187302" transform="matrix(1.4081 0 0 -1.4081 134.41 132.169)"/></g><g style="stroke-width:.187302"><path d="m0 0 10.516 3.964-.133.343L-.292.424C-.196.281-.095.144 0 0" style="fill:#5d9db4;fill-opacity:1;fill-rule:evenodd;stroke:none;stroke-width:.187302" transform="matrix(1.4081 0 0 -1.4081 140.318 139.971)"/></g><g style="stroke-width:.187302"><path d="m0 0 7.648 9.306-.287.23L-.363.358 0 0" style="fill:#5d9db4;fill-opacity:1;fill-rule:evenodd;stroke:none;stroke-width:.187302" transform="matrix(1.4081 0 0 -1.4081 130.05 127.492)"/></g><g style="stroke-width:.187302"><path d="m0 0 6.52 9.881-.309.199L-.447.242A4.03 4.03 0 0 0 0 0" style="fill:#5d9db4;fill-opacity:1;fill-rule:evenodd;stroke:none;stroke-width:.187302" transform="matrix(1.4081 0 0 -1.4081 127.628 125.343)"/></g><g style="stroke-width:.187302"><path d="m0 0 8.678 8.551-.262.26L-.346.374C-.229.251-.115.124 0 0" style="fill:#5d9db4;fill-opacity:1;fill-rule:evenodd;stroke:none;stroke-width:.187302" transform="matrix(1.4081 0 0 -1.4081 132.28 129.793)"/></g><g style="stroke-width:.187302"><path d="m0 0 10.463 5.235-.168.327L-.311.409C-.209.271-.1.139 0 0" style="fill:#5d9db4;fill-opacity:1;fill-rule:evenodd;stroke:none;stroke-width:.187302" transform="matrix(1.4081 0 0 -1.4081 138.436 137.243)"/></g><g style="stroke-width:.187302"><path d="m0 0-9.699 6.4-.199-.309 9.66-6.536c.076.149.16.296.238.445" style="fill:#5d9db4;fill-opacity:1;fill-rule:evenodd;stroke:none;stroke-width:.187302" transform="matrix(1.4081 0 0 -1.4081 84.482 133.96)"/></g><g style="stroke-width:.187302"><path d="m0 0 2.951 5.689-.328.166L-.232.504A4.03 4.03 0 0 0 0 0" style="fill:#5d9db4;fill-opacity:1;fill-rule:evenodd;stroke:none;stroke-width:.187302" transform="matrix(1.4081 0 0 -1.4081 128.354 116.916)"/></g><g style="stroke-width:.187302"><path d="m0 0-1.362-8.208.364-.056L.473.009 0 0" style="fill:#5d9db4;fill-opacity:1;fill-rule:evenodd;stroke:none;stroke-width:.187302" transform="matrix(1.4081 0 0 -1.4081 104.699 186.608)"/></g><g style="stroke-width:.187302"><path d="m0 0 3.82-7.637.328.168L.415.215A3.965 3.965 0 0 0 0 0" style="fill:#5d9db4;fill-opacity:1;fill-rule:evenodd;stroke:none;stroke-width:.187302" transform="matrix(1.4081 0 0 -1.4081 126.506 183.02)"/></g><g style="stroke-width:.187302"><path d="m0 0 3.111-8.289.344.134-3 8.28C.303.084.152.04 0 0" style="fill:#5d9db4;fill-opacity:1;fill-rule:evenodd;stroke:none;stroke-width:.187302" transform="matrix(1.4081 0 0 -1.4081 122.936 184.097)"/></g><g style="stroke-width:.187302"><path d="m0 0 2.279-8.768.356.098L.463.094C.309.061.154.032 0 0" style="fill:#5d9db4;fill-opacity:1;fill-rule:evenodd;stroke:none;stroke-width:.187302" transform="matrix(1.4081 0 0 -1.4081 119.355 184.929)"/></g><g style="stroke-width:.187302"><path d="m0 0 .405-8.985.367.021L.471.061C.314.041.157.019 0 0" style="fill:#5d9db4;fill-opacity:1;fill-rule:evenodd;stroke:none;stroke-width:.187302" transform="matrix(1.4081 0 0 -1.4081 112.15 186.107)"/></g><g style="stroke-width:.187302"><path d="m0 0-.52-8.718.368-.017L.475.033A39.24 39.24 0 0 0 0 0" style="fill:#5d9db4;fill-opacity:1;fill-rule:evenodd;stroke:none;stroke-width:.187302" transform="matrix(1.4081 0 0 -1.4081 108.467 186.447)"/></g><g style="stroke-width:.187302"><path d="m0 0 1.358-9.004.364.06L.467.077A64.969 64.969 0 0 0 0 0" style="fill:#5d9db4;fill-opacity:1;fill-rule:evenodd;stroke:none;stroke-width:.187302" transform="matrix(1.4081 0 0 -1.4081 115.769 185.597)"/></g><g style="stroke-width:.187302"><path d="m0 0 6.079-1.009.057.364L-.157.474C-.101.317-.054.157 0 0" style="fill:#5d9db4;fill-opacity:1;fill-rule:evenodd;stroke:none;stroke-width:.187302" transform="matrix(1.4081 0 0 -1.4081 149 157.556)"/></g><g style="stroke-width:.187302"><path d="m0 0 4.302-1.187.094.356L-.133.475 0 0" style="fill:#5d9db4;fill-opacity:1;fill-rule:evenodd;stroke:none;stroke-width:.187302" transform="matrix(1.4081 0 0 -1.4081 150.431 162.174)"/></g><g style="stroke-width:.187302"><path d="m0 0 1.654-2.589.308.201L.502-.043C.333-.04.166-.023 0 0" style="fill:#5d9db4;fill-opacity:1;fill-rule:evenodd;stroke:none;stroke-width:.187302" transform="matrix(1.4081 0 0 -1.4081 133.892 187.668)"/></g><g style="stroke-width:.187302"><path d="m0 0 7.584-.453.018.367-7.807.558C-.139.313-.065.158 0 0" style="fill:#5d9db4;fill-opacity:1;fill-rule:evenodd;stroke:none;stroke-width:.187302" transform="matrix(1.4081 0 0 -1.4081 147.44 153.384)"/></g><g style="stroke-width:.187302"><path d="m0 0 .781-.979.284.233-.639.822Z" style="fill:#5d9db4;fill-opacity:1;fill-rule:evenodd;stroke:none;stroke-width:.187302" transform="matrix(1.4081 0 0 -1.4081 139.177 187.036)"/></g><g style="stroke-width:.187302"><path d="m0 0 2.292-.899.13.343L-.107.471C-.073.313-.031.158 0 0" style="fill:#5d9db4;fill-opacity:1;fill-rule:evenodd;stroke:none;stroke-width:.187302" transform="matrix(1.4081 0 0 -1.4081 151.686 167.308)"/></g><g style="stroke-width:.187302"><path d="m0 0-11.045 4.322-.131-.343L-.195-.466C-.133-.31-.066-.155 0 0" style="fill:#5d9db4;fill-opacity:1;fill-rule:evenodd;stroke:none;stroke-width:.187302" transform="matrix(1.4081 0 0 -1.4081 81.713 139.886)"/></g><g style="stroke-width:.187302"><path d="m0 0-10.951.655-.019-.368L-.128-.486c.044.162.083.325.128.486" style="fill:#5d9db4;fill-opacity:1;fill-rule:evenodd;stroke:none;stroke-width:.187302" transform="matrix(1.4081 0 0 -1.4081 78.455 149.261)"/></g><g style="stroke-width:.187302"><path d="m0 0-10.377-.467.022-.367L-.061-.49c.008.163.035.326.061.49" style="fill:#5d9db4;fill-opacity:1;fill-rule:evenodd;stroke:none;stroke-width:.187302" transform="matrix(1.4081 0 0 -1.4081 77.61 152.666)"/></g><g style="stroke-width:.187302"><path d="m0 0-2.062-7.474.356-.093L.473-.014C.314-.011.157-.005 0 0" style="fill:#5d9db4;fill-opacity:1;fill-rule:evenodd;stroke:none;stroke-width:.187302" transform="matrix(1.4081 0 0 -1.4081 100.816 186.57)"/></g><g style="stroke-width:.187302"><path d="m0 0-4.373-.659.06-.363 4.051.562C-.181-.302-.1-.146 0 0" style="fill:#5d9db4;fill-opacity:1;fill-rule:evenodd;stroke:none;stroke-width:.187302" transform="matrix(1.4081 0 0 -1.4081 69.64 157.357)"/></g><g style="stroke-width:.187302"><path d="m0 0-10.467 5.43-.165-.328L-.218-.455c.071.152.146.303.218.455" style="fill:#5d9db4;fill-opacity:1;fill-rule:evenodd;stroke:none;stroke-width:.187302" transform="matrix(1.4081 0 0 -1.4081 83.038 136.894)"/></g><g style="stroke-width:.187302"><path d="m0 0-11.264 3.107-.093-.355L-.172-.474c.057.159.113.317.172.474" style="fill:#5d9db4;fill-opacity:1;fill-rule:evenodd;stroke:none;stroke-width:.187302" transform="matrix(1.4081 0 0 -1.4081 80.525 142.892)"/></g><g style="stroke-width:.187302"><path d="m0 0-11.252 1.867-.057-.364L-.15-.481c.05.16.099.321.15.481" style="fill:#5d9db4;fill-opacity:1;fill-rule:evenodd;stroke:none;stroke-width:.187302" transform="matrix(1.4081 0 0 -1.4081 79.436 146.013)"/></g><g style="stroke-width:.187302"><path d="m0 0-2.709-4.105.309-.2L.449-.094C.299-.064.15-.03 0 0" style="fill:#5d9db4;fill-opacity:1;fill-rule:evenodd;stroke:none;stroke-width:.187302" transform="matrix(1.4081 0 0 -1.4081 88.16 185.152)"/></g><g style="stroke-width:.187302"><path d="m0 0-2.789-5.377.328-.165L.461-.067C.307-.048.154-.021 0 0" style="fill:#5d9db4;fill-opacity:1;fill-rule:evenodd;stroke:none;stroke-width:.187302" transform="matrix(1.4081 0 0 -1.4081 92.57 185.886)"/></g><g style="stroke-width:.187302"><path d="m0 0-2.556-6.514.345-.131L.468-.041C.312-.029.156-.013 0 0" style="fill:#5d9db4;fill-opacity:1;fill-rule:evenodd;stroke:none;stroke-width:.187302" transform="matrix(1.4081 0 0 -1.4081 96.781 186.345)"/></g><g style="stroke-width:.187302"><path d="m0 0-1.414-1.394.262-.259L.42-.139 0 0" style="fill:#5d9db4;fill-opacity:1;fill-rule:evenodd;stroke:none;stroke-width:.187302" transform="matrix(1.4081 0 0 -1.4081 78.644 182.648)"/></g><g style="stroke-width:.187302"><path d="m0 0-2.266-2.756.287-.23L.437-.116C.291-.08.146-.037 0 0" style="fill:#5d9db4;fill-opacity:1;fill-rule:evenodd;stroke:none;stroke-width:.187302" transform="matrix(1.4081 0 0 -1.4081 83.522 184.093)"/></g><g style="stroke-width:.187302"><path d="m0 0-.118-.094.233-.285.284.221C.267-.104.132-.055 0 0" style="fill:#5d9db4;fill-opacity:1;fill-rule:evenodd;stroke:none;stroke-width:.187302" transform="matrix(1.4081 0 0 -1.4081 73.51 180.749)"/></g><g style="stroke-width:.187302"><path d="M305.232 609.93c-11.765-7.744-19.773-19.619-22.891-32.803-.281-1.191.311-2.432 1.431-2.928a37.533 37.533 0 0 1 9.623-2.8c1.257-.189 2.423.665 2.699 1.907 2.312 10.435 8.772 19.811 18.352 25.577a2.562 2.562 0 0 1 .644 3.843l-5.522 6.583a3.273 3.273 0 0 1-2.513 1.169c-.629 0-1.263-.18-1.823-.548" style="fill:url(#a);stroke:none;stroke-width:.187302" transform="matrix(1.4081 0 0 -1.4081 -317.843 965.414)"/></g><g style="stroke-width:.187302"><path d="M0 0c-10.193-3.214-21.544-2.305-31.327 3.108a2.564 2.564 0 0 1-3.652-1.364l-2.939-8.074a3.294 3.294 0 0 1 1.631-4.065c12.588-6.316 26.877-7.314 39.855-3.422 1.171.351 1.95 1.486 1.82 2.703a37.574 37.574 0 0 1-2.386 9.73C2.535-.199 1.214.383 0 0" style="fill:#5d9db4;fill-opacity:1;fill-rule:nonzero;stroke:none;stroke-width:.187302" transform="matrix(1.4081 0 0 -1.4081 120.2 161.81)"/></g><g style="stroke-width:.187302"><path d="M0 0a37.517 37.517 0 0 1-7.236-6.934c-.793-.995-.637-2.43.301-3.291 7.88-7.22 12.769-17.504 12.973-28.683a2.565 2.565 0 0 1 3.008-2.48l8.46 1.492a3.294 3.294 0 0 1 2.707 3.444C19.389-22.392 13.108-9.518 3.25-.225 2.359.614.988.721 0 0" style="fill:#656263;fill-opacity:1;fill-rule:nonzero;stroke:none;stroke-width:.187302" transform="matrix(1.4081 0 0 -1.4081 122.586 127.291)"/></g><g style="stroke-width:.187302"><path d="m0 0-2.534.712.339 1.207 2.534-.711c.307.091.64.187.993.288.355.102.71.202 1.066.303l1.062.299c.35.099.675.192.976.279L4.046.986 1.256.328 1.232.246l2.043-2.004-.387-1.381Z" style="fill:#5d9db4;fill-opacity:1;fill-rule:nonzero;stroke:none;stroke-width:.187302" transform="matrix(1.4081 0 0 -1.4081 49.083 134.475)"/></g><g style="stroke-width:.187302"><path d="M0 0c.288-.037.567-.051.836-.041.269.01.509.055.721.137.211.081.386.205.526.372s.228.391.264.675c.041.314.023.583-.053.806a1.31 1.31 0 0 1-.385.572c-.18.158-.411.284-.692.377a5.142 5.142 0 0 1-.976.212 4.714 4.714 0 0 1-.846.038 2.264 2.264 0 0 1-.721-.141 1.227 1.227 0 0 1-.522-.373c-.136-.167-.222-.389-.257-.666-.042-.321-.027-.595.045-.824.073-.231.199-.42.38-.572.181-.151.412-.272.694-.363C-.704.118-.376.049 0 0m.504 4.37c1.068-.139 1.832-.48 2.291-1.025.46-.544.625-1.317.495-2.315-.064-.503-.194-.919-.387-1.248a2.071 2.071 0 0 0-.75-.765 2.638 2.638 0 0 0-1.078-.334 5.922 5.922 0 0 0-1.37.033c-1.061.138-1.825.481-2.29 1.03-.466.549-.634 1.322-.504 2.321.066.508.196.927.393 1.256.195.329.448.581.759.755.309.174.669.282 1.081.324.411.043.864.033 1.36-.032" style="fill:#5d9db4;fill-opacity:1;fill-rule:nonzero;stroke:none;stroke-width:.187302" transform="matrix(1.4081 0 0 -1.4081 48.035 144.876)"/></g><g style="stroke-width:.187302"><path d="m0 0-6.257-.213-.074 2.174 5.218 2.26-.002.076-5.289-.181-.043 1.263 6.257.214.074-2.175-5.218-2.259.003-.076 5.288.18z" style="fill:#5d9db4;fill-opacity:1;fill-rule:nonzero;stroke:none;stroke-width:.187302" transform="matrix(1.4081 0 0 -1.4081 52.236 156.85)"/></g><g style="stroke-width:.187302"><path d="m0 0-2.776.285.325-1.649L.016-.074zm-4.858-2.711 1.5.838L-3.811.42l-1.704.196-.257 1.305L.806.924l.322-1.631-5.72-3.355z" style="fill:#5d9db4;fill-opacity:1;fill-rule:nonzero;stroke:none;stroke-width:.187302" transform="matrix(1.4081 0 0 -1.4081 51.823 162.485)"/></g><g style="stroke-width:.187302"><path d="m0 0-5.838-2.261-.453 1.17 4.935 1.91-.032.08-5.363-.803-.601 1.55 4.499 3.037-.027.07-4.934-1.911-.457 1.179 5.838 2.26.803-2.073-4.516-2.991.028-.071 5.339.866z" style="fill:#5d9db4;fill-opacity:1;fill-rule:nonzero;stroke:none;stroke-width:.187302" transform="matrix(1.4081 0 0 -1.4081 57.708 176.44)"/></g><g style="stroke-width:.187302"><path d="m0 0 .671-1.071-5.306-3.324-.671 1.072z" style="fill:#5d9db4;fill-opacity:1;fill-rule:nonzero;stroke:none;stroke-width:.187302" transform="matrix(1.4081 0 0 -1.4081 60.484 181.158)"/></g><g style="stroke-width:.187302"><path d="m0 0-4.873-3.931-1.366 1.694 2.812 4.941-.048.06-4.118-3.323-.793.984 4.872 3.93 1.367-1.693-2.813-4.941.048-.06L-.794.983z" style="fill:#5d9db4;fill-opacity:1;fill-rule:nonzero;stroke:none;stroke-width:.187302" transform="matrix(1.4081 0 0 -1.4081 67.494 190.68)"/></g><g style="stroke-width:.187302"><path d="M0 0c-.101.256-.22.512-.358.769a8.907 8.907 0 0 0-.38.787 3.812 3.812 0 0 0-.202.559 1.513 1.513 0 0 0-.051.499c.011.161.054.322.131.48.076.157.193.323.351.495.377.411.822.596 1.335.555.513-.041 1.056-.326 1.63-.852.242-.223.478-.489.706-.798.229-.307.394-.621.497-.939l-.944-.397a2.929 2.929 0 0 1-.34.711 3.457 3.457 0 0 1-.581.689c-.298.274-.556.424-.772.451a.592.592 0 0 1-.537-.192c-.14-.153-.199-.315-.173-.484.024-.169.067-.319.126-.452.094-.206.209-.444.346-.711.137-.268.258-.531.363-.791.061-.159.115-.317.162-.471a1.348 1.348 0 0 0-.067-.965 1.952 1.952 0 0 0-.361-.526 1.662 1.662 0 0 0-.63-.44 1.602 1.602 0 0 0-.738-.095c-.262.024-.53.107-.805.248-.274.141-.552.34-.832.597A5.142 5.142 0 0 0-3.4.596l.979.377c.115-.304.251-.577.404-.817a3.38 3.38 0 0 1 .567-.668c.321-.296.597-.454.827-.475.229-.023.412.042.55.191a.56.56 0 0 1 .129.217c.02.075.03.148.027.22a.905.905 0 0 1-.032.204A1.886 1.886 0 0 1 0 0" style="fill:#5d9db4;fill-opacity:1;fill-rule:nonzero;stroke:none;stroke-width:.187302" transform="matrix(1.4081 0 0 -1.4081 67.843 198.724)"/></g><g style="stroke-width:.187302"><path d="m0 0-.57-.807L-2.075.258l-3.046-4.304-1.024.725L-3.099.982l-1.504 1.065.571.807z" style="fill:#5d9db4;fill-opacity:1;fill-rule:nonzero;stroke:none;stroke-width:.187302" transform="matrix(1.4081 0 0 -1.4081 79.676 200.722)"/></g><g style="stroke-width:.187302"><path d="m0 0 1.099-.625-3.097-5.441-1.098.625z" style="fill:#5d9db4;fill-opacity:1;fill-rule:nonzero;stroke:none;stroke-width:.187302" transform="matrix(1.4081 0 0 -1.4081 80.944 201.38)"/></g><g style="stroke-width:.187302"><path d="m0 0-.402-.902-1.684.751-2.146-4.817-1.146.511L-3.231.358l-1.684.751.402.903z" style="fill:#5d9db4;fill-opacity:1;fill-rule:nonzero;stroke:none;stroke-width:.187302" transform="matrix(1.4081 0 0 -1.4081 89.99 205.811)"/></g><g style="stroke-width:.187302"><path d="m0 0-1.039-3.626c-.25-.87-.646-1.442-1.189-1.715-.543-.272-1.206-.296-1.992-.071-.779.224-1.301.589-1.568 1.097-.266.507-.27 1.214-.009 2.122l1.021 3.562 1.205-.346-1.063-3.708c-.133-.462-.152-.848-.06-1.158.092-.31.337-.521.732-.635.232-.066.437-.093.614-.082a.879.879 0 0 1 .474.17c.138.103.26.25.364.445.106.193.2.439.286.738L-1.206.346z" style="fill:#5d9db4;fill-opacity:1;fill-rule:nonzero;stroke:none;stroke-width:.187302" transform="matrix(1.4081 0 0 -1.4081 97.828 208.146)"/></g><g style="stroke-width:.187302"><path d="m0 0-.138-.978-1.825.257-.734-5.221-1.242.174.734 5.222-1.824.257.137.977z" style="fill:#5d9db4;fill-opacity:1;fill-rule:nonzero;stroke:none;stroke-width:.187302" transform="matrix(1.4081 0 0 -1.4081 105.824 209.35)"/></g><g style="stroke-width:.187302"><path d="m0 0-.016-.988-4.131.067.101 6.26 4.027-.066-.015-.988-2.765.045-.025-1.567 2.669-.043-.016-.969-2.669.043-.028-1.747Z" style="fill:#5d9db4;fill-opacity:1;fill-rule:nonzero;stroke:none;stroke-width:.187302" transform="matrix(1.4081 0 0 -1.4081 112.812 216.908)"/></g><g style="stroke-width:.187302"><path d="M0 0a5.034 5.034 0 0 1-.226.806 2.216 2.216 0 0 1-.357.64 1.266 1.266 0 0 1-.521.381c-.202.079-.443.092-.723.037-.311-.06-.56-.163-.748-.305a1.317 1.317 0 0 1-.421-.546 2.011 2.011 0 0 1-.139-.777c0-.296.036-.627.108-.993.056-.291.134-.562.232-.814.097-.251.218-.464.361-.639.145-.175.318-.301.52-.377.202-.076.439-.088.713-.034.317.062.573.164.768.305.195.141.335.322.422.542.086.218.127.476.124.772C.11-.706.072-.372 0 0m-4.305-.905C-4.512.151-4.43.984-4.058 1.593c.371.607 1.051 1.009 2.039 1.202.498.098.933.106 1.307.028.373-.079.694-.235.963-.469.269-.236.488-.542.658-.917.171-.377.305-.814.402-1.311.206-1.051.122-1.883-.251-2.498C.686-2.987.005-3.392-.983-3.585c-.503-.099-.943-.107-1.317-.025a2.04 2.04 0 0 0-.955.481 2.747 2.747 0 0 0-.65.923 5.86 5.86 0 0 0-.4 1.301" style="fill:#5d9db4;fill-opacity:1;fill-rule:nonzero;stroke:none;stroke-width:.187302" transform="matrix(1.4081 0 0 -1.4081 124.905 212.127)"/></g><g style="stroke-width:.187302"><path d="m0 0-1.192-.417-2.067 5.909L.454 6.79l.326-.933-2.519-.88.516-1.48 2.341.818.319-.915-2.339-.818Z" style="fill:#5d9db4;fill-opacity:1;fill-rule:nonzero;stroke:none;stroke-width:.187302" transform="matrix(1.4081 0 0 -1.4081 132.176 214.743)"/></g><g style="stroke-width:.187302"><path d="m0 0 .49-.858-1.6-.914 2.614-4.579-1.089-.622-2.614 4.578-1.601-.913-.49.858Z" style="fill:#5d9db4;fill-opacity:1;fill-rule:nonzero;stroke:none;stroke-width:.187302" transform="matrix(1.4081 0 0 -1.4081 142.637 200.051)"/></g><g style="stroke-width:.187302"><path d="m0 0 .596-.788-3.297-2.492-3.776 4.994 3.214 2.429.596-.789-2.206-1.667.945-1.25 2.13 1.61.584-.774-2.129-1.609 1.054-1.394z" style="fill:#5d9db4;fill-opacity:1;fill-rule:nonzero;stroke:none;stroke-width:.187302" transform="matrix(1.4081 0 0 -1.4081 152.808 201.72)"/></g><g style="stroke-width:.187302"><path d="M0 0c-.364-.361-.726-.62-1.084-.775a2.196 2.196 0 0 0-1.072-.188c-.357.03-.714.151-1.073.36a5.305 5.305 0 0 0-1.089.868c-.763.768-1.155 1.52-1.174 2.255-.02.734.305 1.433.975 2.098a3.498 3.498 0 0 0 .984.682c.183.084.376.146.578.185.201.04.403.053.604.038l-.017-1.034a1.705 1.705 0 0 1-.749-.094 1.893 1.893 0 0 1-.677-.451c-.787-.781-.634-1.722.46-2.823C-2.357.137-1.478.032-.695.809c.242.241.439.492.591.753.15.261.28.526.388.794l.885-.486A3.686 3.686 0 0 0 .726.914 5.069 5.069 0 0 0 0 0" style="fill:#5d9db4;fill-opacity:1;fill-rule:nonzero;stroke:none;stroke-width:.187302" transform="matrix(1.4081 0 0 -1.4081 158.61 198.398)"/></g><g style="stroke-width:.187302"><path d="m0 0 5.024-3.734-.753-1.014-2.12 1.575L.615-5.239l2.12-1.575-.754-1.014-5.024 3.734.754 1.014 2.111-1.569 1.536 2.066-2.112 1.569z" style="fill:#5d9db4;fill-opacity:1;fill-rule:nonzero;stroke:none;stroke-width:.187302" transform="matrix(1.4081 0 0 -1.4081 159.813 182.888)"/></g><g style="stroke-width:.187302"><path d="m0 0 5.566-2.867-.997-1.934-5.656.573-.035-.067 4.704-2.423-.578-1.124-5.566 2.867.997 1.934 5.656-.573.035.067-4.704 2.423z" style="fill:#5d9db4;fill-opacity:1;fill-rule:nonzero;stroke:none;stroke-width:.187302" transform="matrix(1.4081 0 0 -1.4081 164.537 174.148)"/></g><g style="stroke-width:.187302"><path d="M0 0a5.08 5.08 0 0 1-.814.191 2.249 2.249 0 0 1-.734-.004 1.269 1.269 0 0 1-.585-.272c-.167-.14-.295-.345-.382-.616-.096-.302-.127-.57-.092-.803.035-.234.127-.444.275-.632a2.02 2.02 0 0 1 .613-.496 5.31 5.31 0 0 1 .921-.385c.283-.09.559-.154.826-.189.267-.036.512-.033.735.009.222.042.416.133.58.272.164.141.289.344.374.609.098.307.133.581.103.82a1.2 1.2 0 0 1-.27.631c-.152.18-.358.342-.617.481C.672-.244.361-.116 0 0m-1.283-4.208c-1.026.329-1.715.803-2.07 1.421-.353.619-.376 1.408-.069 2.367.154.482.357.868.606 1.157.249.29.541.495.876.617.335.123.709.167 1.121.135a5.904 5.904 0 0 0 1.34-.28C1.541.883 2.23.407 2.589-.216c.359-.624.385-1.415.077-2.374-.156-.489-.36-.877-.612-1.166a2.026 2.026 0 0 0-.883-.604 2.74 2.74 0 0 0-1.122-.125 5.913 5.913 0 0 0-1.332.277" style="fill:#5d9db4;fill-opacity:1;fill-rule:nonzero;stroke:none;stroke-width:.187302" transform="matrix(1.4081 0 0 -1.4081 171.151 168)"/></g><g style="stroke-width:.187302"><path d="m0 0 .974-.169-.652-3.763-6.169 1.068.216 1.245 5.195-.9z" style="fill:#5d9db4;fill-opacity:1;fill-rule:nonzero;stroke:none;stroke-width:.187302" transform="matrix(1.4081 0 0 -1.4081 176.185 159.132)"/></g><g style="stroke-width:.187302"><path d="M0 0c-.291.012-.569 0-.837-.034a2.248 2.248 0 0 1-.705-.2 1.282 1.282 0 0 1-.49-.419c-.124-.179-.192-.411-.202-.696-.013-.316.029-.583.125-.798.096-.216.241-.395.434-.536.195-.14.436-.245.724-.313A5.26 5.26 0 0 1 .04-3.12c.297-.011.579.002.846.039.266.037.502.105.705.205.203.1.365.239.486.419.12.179.187.407.197.686.013.323-.027.595-.12.818-.092.222-.236.4-.429.534a2.073 2.073 0 0 1-.724.3A5.703 5.703 0 0 1 0 0m-.109-4.397c-1.077.042-1.868.313-2.374.814-.506.501-.741 1.255-.702 2.262.02.506.112.931.274 1.277.162.346.389.622.679.829.29.208.637.352 1.043.431a6 6 0 0 0 1.368.09C1.248 1.264 2.039.99 2.552.485c.512-.504.75-1.259.711-2.265-.02-.513-.113-.943-.279-1.287a2.023 2.023 0 0 0-.687-.82 2.769 2.769 0 0 0-1.048-.421 5.885 5.885 0 0 0-1.358-.089" style="fill:#5d9db4;fill-opacity:1;fill-rule:nonzero;stroke:none;stroke-width:.187302" transform="matrix(1.4081 0 0 -1.4081 173.508 151.187)"/></g><g style="stroke-width:.187302"><path d="M0 0c.174-.286.319-.614.437-.986.117-.372.202-.779.254-1.219.125-1.057-.062-1.863-.56-2.419-.499-.557-1.261-.896-2.286-1.017-.529-.062-1.002-.046-1.421.047a2.657 2.657 0 0 0-1.077.494 2.59 2.59 0 0 0-.72.906c-.181.367-.3.797-.358 1.287-.054.459-.035.895.06 1.308.095.413.289.781.583 1.102l.77-.684a2.045 2.045 0 0 1-.397-.692 2.034 2.034 0 0 1-.075-.903c.072-.611.328-1.047.768-1.311.439-.264 1.04-.35 1.8-.261.717.085 1.235.309 1.552.671.317.364.441.84.371 1.432a6.079 6.079 0 0 1-.096.562l-.131.386-1.462-.173.152-1.292-.952-.113-.297 2.51z" style="fill:#5d9db4;fill-opacity:1;fill-rule:nonzero;stroke:none;stroke-width:.187302" transform="matrix(1.4081 0 0 -1.4081 176.665 139.329)"/></g><g style="stroke-width:.187302"><path d="m0 0 2.537.697.332-1.21L.332-1.21c-.218-.236-.451-.49-.703-.759-.251-.269-.503-.54-.758-.809l-.754-.804-.693-.742-.382 1.392L-.907-.93l-.024.083-2.783.663-.38 1.384z" style="fill:#5d9db4;fill-opacity:1;fill-rule:nonzero;stroke:none;stroke-width:.187302" transform="matrix(1.4081 0 0 -1.4081 171.807 133.118)"/></g><g style="stroke-width:.187302"><path d="M0 0c-.011.33-.054.852-.113 1.22-.06.368-.14.717-.243 1.039l-.231.727-5.519-1.754-.389 1.225L.458 4.666l.48-1.514a8.525 8.525 0 0 0 .32-1.432c.032-.241.075-.847.071-1.297Zm-6.155-4.009-.374 1.176 3.852 1.224-.736 2.318 1.457.463.736-2.318L3.661.404l.373-1.175zm5.678-.218c-.544-.172-.942-.404-1.182-.685-.234-.276-.278-.652-.13-1.117.147-.465.398-.746.745-.838.354-.094.813-.052 1.367.124.561.179.967.412 1.206.694.234.276.278.651.13 1.115-.15.473-.402.757-.752.843-.357.089-.822.043-1.384-.136M.665-7.82C.099-8-.407-8.099-.841-8.115c-.434-.016-.816.037-1.133.155a1.917 1.917 0 0 0-.797.556c-.21.247-.374.549-.484.896a2.672 2.672 0 0 0-.129 1.03c.03.33.139.642.328.926.188.283.469.548.833.786.365.239.835.45 1.4.629s1.074.28 1.511.296c.44.017.824-.036 1.141-.159.318-.123.588-.314.801-.567.213-.252.379-.56.49-.915.111-.347.151-.688.123-1.012a1.908 1.908 0 0 0-.332-.914c-.189-.279-.472-.542-.841-.781-.367-.24-.84-.452-1.405-.631" style="fill:#5d9db4;fill-opacity:1;fill-rule:nonzero;stroke:none;stroke-width:.187302" transform="matrix(1.4081 0 0 -1.4081 93.964 89.854)"/></g><g style="stroke-width:.187302"><path d="M0 0c.109.535.172.984.219 1.398.047.418.07.811.07 1.166v1.36h-4.414V5.17h5.931V3.041c0-.246-.009-.51-.025-.781a16.664 16.664 0 0 0-.14-1.172C1.527.433 1.457.168 1.412 0Zm3.043-6.312v4.103a4.41 4.41 0 0 0-1.434-.5 9.383 9.383 0 0 0-1.636-.15h-4.651v1.248h2.123v3.487h1.479v-3.487h.792c.587 0 1.179.036 1.757.108a4.478 4.478 0 0 1 1.57.491v6.775h1.516V1.799h1.879V.514H4.559v-4.508a14.971 14.971 0 0 0-.051-1.192 12.79 12.79 0 0 0-.129-1.088l-.006-.038Z" style="fill:#5d9db4;fill-opacity:1;fill-rule:nonzero;stroke:none;stroke-width:.187302" transform="matrix(1.4081 0 0 -1.4081 110.051 89.477)"/></g><g style="stroke-width:.187302"><path d="m0 0-1.08.793-1.018-1.384c.216-.101.422-.225.618-.368.099-.073.189-.148.272-.226.069-.064.136-.127.198-.19zm-4.72-2.531c-.321-.438-.458-.859-.407-1.251.051-.393.313-.765.777-1.106.486-.356.926-.5 1.308-.425.383.072.741.332 1.063.769.312.426.45.841.41 1.236-.04.393-.306.773-.79 1.129-.465.341-.901.476-1.295.401-.396-.076-.754-.328-1.066-.753m8.286-.089L1.035-.761-.289-2.564c.104-.389.105-.814.004-1.262-.104-.454-.348-.945-.727-1.46-.332-.452-.681-.797-1.045-1.026a2.712 2.712 0 0 0-1.094-.419 2.487 2.487 0 0 0-1.092.094c-.358.113-.7.288-1.023.525-.313.23-.578.5-.785.802a2.535 2.535 0 0 0-.406 1.006c-.063.364-.037.758.073 1.171.11.413.333.852.665 1.304.353.479.722.842 1.096 1.075.371.232.747.371 1.12.419l1.387 1.889-1.204.884.896 1.223L2.862-.221a6.3 6.3 0 0 0 .374-.3c.133-.112.264-.226.395-.344a8.643 8.643 0 0 0 .681-.678l.026-.026ZM3.23-6.933l3.325 4.527 1.004-.738-3.75-5.107c-.174-.236-.368-.382-.579-.433-.212-.053-.453.018-.71.207l-2.819 2.07L.6-5.185l2.421-1.78s.118-.093.209.032" style="fill:#5d9db4;fill-opacity:1;fill-rule:nonzero;stroke:none;stroke-width:.187302" transform="matrix(1.4081 0 0 -1.4081 61.372 110.171)"/></g><g style="stroke-width:.187302"><path d="M0 0c-.429-.307-.683-.655-.755-1.038-.072-.383.061-.815.396-1.284.349-.49.72-.761 1.097-.805.379-.046.787.087 1.217.394.428.306.69.653.775 1.031.087.376-.046.815-.396 1.305-.336.468-.704.732-1.096.783C.844.437.428.306 0 0m2.649-3.706c-.463-.331-.905-.556-1.313-.667a2.597 2.597 0 0 0-1.157-.07c-.358.065-.689.21-.982.426-.293.216-.558.49-.789.813a3.601 3.601 0 0 0-.507 1c-.11.349-.139.707-.086 1.066.054.36.203.72.441 1.072.238.35.594.697 1.057 1.028.462.331.906.556 1.318.67.414.115.806.14 1.166.078a2.34 2.34 0 0 0 .988-.422c.293-.218.556-.487.781-.804.232-.322.405-.663.516-1.009a2.33 2.33 0 0 0 .079-1.072 2.651 2.651 0 0 0-.45-1.078c-.241-.353-.599-.7-1.062-1.031m3.937 2.118L2.648 3.919l1.245.89 1.573-2.201 1.518 1.085.725-1.012L6.19 1.595 7.83-.698Zm-.869-5.427c.07-.097.146-.11.244-.04l3 2.145-1.268 1.772-3.142-2.246zm.326-1.482c-.238-.17-.465-.244-.67-.22-.208.025-.41.173-.602.441l-2.16 3.021 5.61 4.011 2.694-3.769z" style="fill:#5d9db4;fill-opacity:1;fill-rule:nonzero;stroke:none;stroke-width:.187302" transform="matrix(1.4081 0 0 -1.4081 69.147 98.455)"/></g><g style="stroke-width:.187302"><path d="m0 0 2.293 6.727-1.171.398-1.443-4.233a15.414 15.414 0 0 0-.411-1.065 9.366 9.366 0 0 0-.472-.964l-.019-.031-1.172.399 1.417 4.158a4.227 4.227 0 0 0-.925-.038 4.477 4.477 0 0 0-1.174.242l-2.546.868c-.328.111-.539.267-.631.461-.092.193-.078.469.043.82l1.957 5.742 4.225-1.441-.414-1.216-2.838.968-1.387-4.065c-.047-.136-.035-.179-.026-.192.007-.014.04-.05.18-.098l1.875-.639c.386-.131.76-.219 1.113-.261.34-.041.655-.047.934-.019l1.924 5.643 1.352-.461-1.147-3.361 1.17-.4 1.189 3.487 1.375-.469-3.109-9.121a15.834 15.834 0 0 0-.213-.582c-.077-.2-.156-.399-.236-.594C1.633.468 1.549.279 1.465.1a4.961 4.961 0 0 0-.25-.478l-.02-.03z" style="fill:#5d9db4;fill-opacity:1;fill-rule:nonzero;stroke:none;stroke-width:.187302" transform="matrix(1.4081 0 0 -1.4081 131.885 102.505)"/></g><g style="stroke-width:.187302"><path d="M0 0a5.93 5.93 0 0 0-.789.718c-.336.362-.611.777-.611.777l.851.806s.133-.19.641-.765C.353 1.241.659.967.951.747l1-.755-.703-.933zm-1.338-1.58c-.325.244-.635.351-.924.316-.287-.034-.543-.199-.761-.489-.495-.653-.411-1.216.257-1.72.662-.498 1.222-.423 1.715.231.219.291.313.58.276.858-.036.279-.225.548-.563.804m-2.111-2.776c-.719.542-1.131 1.114-1.229 1.7-.097.587.057 1.156.461 1.691.35.463.797.74 1.332.824l-1.12.846.735.975 5.557-4.193-.736-.973-1.102.83c.03-.25.016-.496-.041-.737a2.101 2.101 0 0 0-.373-.78c-.399-.528-.902-.831-1.497-.902-.593-.071-1.261.171-1.987.719m3.162-2.595 4.285 5.678 1.211-.914-1.845-2.444 1.499-1.132-.773-1.025-1.5 1.132L.924-7.865Zm-3.022-4.006 1.906 2.525-4.458 3.365.734.974L.543-8.37l-1.467-1.944a10.343 10.343 0 0 0-1.308-1.412l-.026-.023z" style="fill:#5d9db4;fill-opacity:1;fill-rule:nonzero;stroke:none;stroke-width:.187302" transform="matrix(1.4081 0 0 -1.4081 149.23 95.729)"/></g><g style="stroke-width:.187302"><path d="M0 0s.646.278 1.542.754c.506.267.996.566 1.459.882L4.61 2.731 1.026 7.997l1.061.724 4.437-6.52L4.596.888C4.115.561 3.17-.037 2.593-.343 1.7-.818.755-1.109.755-1.109Zm-6.524 4.616 1.062.724 1.408-2.069 3.549 2.416.802-1.177-3.55-2.416.65-.956L.958 3.561l.807-1.184-3.561-2.424 2.35-3.452-1.062-.723z" style="fill:#5d9db4;fill-opacity:1;fill-rule:nonzero;stroke:none;stroke-width:.187302" transform="matrix(1.4081 0 0 -1.4081 161.047 119.969)"/></g></g></g></svg>