<svg xmlns="http://www.w3.org/2000/svg" width="216.32437mm" height="216.32437mm" viewBox="0 0 216.32437 216.32437"><defs><radialGradient id="a" cx="0" cy="0" r="1" fx="0" fy="0" gradientTransform="matrix(20.89489 0 0 -20.89489 296.259 592.264)" gradientUnits="userSpaceOnUse" spreadMethod="pad"><stop offset="0" style="stop-opacity:1;stop-color:#f68290"/><stop offset="0.00561798" style="stop-opacity:1;stop-color:#f68290"/><stop offset="0.7" style="stop-opacity:1;stop-color:#e31048"/><stop offset="1" style="stop-opacity:1;stop-color:#c00e3b"/></radialGradient></defs><g style="stroke-width:.791555" transform="matrix(1.26334 0 0 1.26334 -60.422 -104.432)"><circle cx="133.44334" cy="168.28032" r="85.616302" style="fill:#fff;stroke-width:.209432"/><g style="stroke-width:.213015"><g style="stroke-width:.213015"><path d="m0 0-2.98.633.3 1.42L.301 1.42c.349.129.725.266 1.127.408.401.145.804.287 1.21.43.405.142.805.285 1.203.426.397.14.766.271 1.107.394l-.347-1.635-3.174-.97-.021-.096 2.511-2.162-.345-1.625Z" style="fill:#5d9db4;fill-opacity:1;fill-rule:nonzero;stroke:none;stroke-width:.213015" transform="matrix(1.3109 0 0 -1.3109 76.285 157.544)"/></g><g style="stroke-width:.213015"><path d="M0 0c.336-.006.658.016.967.061.307.046.578.13.81.251.233.122.418.288.558.497.139.211.211.482.216.81.006.367-.05.674-.166.922a1.492 1.492 0 0 1-.518.607 2.27 2.27 0 0 1-.845.344 5.966 5.966 0 0 1-1.151.119 5.579 5.579 0 0 1-.977-.066 2.699 2.699 0 0 1-.812-.258 1.415 1.415 0 0 1-.551-.496c-.135-.211-.206-.477-.211-.801-.006-.373.047-.687.16-.943a1.4 1.4 0 0 1 .512-.608c.229-.15.51-.259.846-.326A6.498 6.498 0 0 1 0 0m.011 5.094c1.247-.02 2.17-.315 2.769-.881.6-.567.89-1.434.871-2.6-.009-.586-.104-1.082-.283-1.486a2.422 2.422 0 0 0-.764-.979 3.07 3.07 0 0 0-1.196-.523 6.831 6.831 0 0 0-1.581-.141c-1.239.02-2.162.317-2.769.887-.607.57-.901 1.44-.882 2.606.01.593.105 1.091.288 1.496.182.404.441.726.775.966.334.241.735.413 1.202.514a6.71 6.71 0 0 0 1.57.141" style="fill:#5d9db4;fill-opacity:1;fill-rule:nonzero;stroke:none;stroke-width:.213015" transform="matrix(1.3109 0 0 -1.3109 76.072 170.477)"/></g><g style="stroke-width:.213015"><path d="m0 0-7.096-1.486-.516 2.465 5.503 3.615-.018.086-5.997-1.258-.3 1.432 7.095 1.488.517-2.467L-6.315.262l.018-.086 5.996 1.256z" style="fill:#5d9db4;fill-opacity:1;fill-rule:nonzero;stroke:none;stroke-width:.213015" transform="matrix(1.3109 0 0 -1.3109 82.717 184)"/></g><g style="stroke-width:.213015"><path d="m0 0-3.207-.41.803-1.776L.036-.08zm-4.763-4.338 1.47 1.342-1.114 2.465-1.974-.229-.635 1.405 7.68.611.793-1.754-5.562-5.293z" style="fill:#5d9db4;fill-opacity:1;fill-rule:nonzero;stroke:none;stroke-width:.213015" transform="matrix(1.3109 0 0 -1.3109 84.042 191.305)"/></g><g style="stroke-width:.213015"><path d="m0 0-5.746-4.42-.885 1.15L-1.774.467l-.061.078L-7.529-2.1-8.703-.574l4.005 4.842-.054.07L-9.608.602l-.892 1.16 5.746 4.42 1.569-2.041-4.039-4.799.054-.071 5.649 2.708z" style="fill:#5d9db4;fill-opacity:1;fill-rule:nonzero;stroke:none;stroke-width:.213015" transform="matrix(1.3109 0 0 -1.3109 94.834 205.328)"/></g><g style="stroke-width:.213015"><path d="M0 0c-.51.307-.902.639-1.179.996a2.549 2.549 0 0 0-.515 1.15c-.068.409-.035.844.098 1.309.133.463.354.951.663 1.467C-.287 5.998.445 6.65 1.264 6.883c.819.23 1.697.064 2.633-.498a4.075 4.075 0 0 0 1.045-.91c.147-.182.272-.381.373-.596.102-.215.174-.438.215-.668l-1.166-.275a1.988 1.988 0 0 1-.319.814c-.164.24-.397.451-.698.631-1.101.662-2.114.221-3.038-1.319-.828-1.376-.694-2.394.401-3.05a4.166 4.166 0 0 1 1.014-.45 7.74 7.74 0 0 1 1.002-.21L2.432-.779a4.243 4.243 0 0 0-1.2.226A5.86 5.86 0 0 0 0 0" style="fill:#5d9db4;fill-opacity:1;fill-rule:nonzero;stroke:none;stroke-width:.213015" transform="matrix(1.3109 0 0 -1.3109 102.146 223.138)"/></g><g style="stroke-width:.213015"><path d="M0 0c.112.316.195.629.249.936.054.306.06.589.019.849a1.48 1.48 0 0 1-.295.686c-.156.197-.389.351-.701.461-.345.123-.654.168-.926.134a1.502 1.502 0 0 1-.741-.296 2.34 2.34 0 0 1-.593-.694 6.007 6.007 0 0 1-.477-1.055 5.514 5.514 0 0 1-.246-.949 2.65 2.65 0 0 1-.015-.849c.041-.26.141-.487.297-.682.158-.193.388-.346.693-.453.352-.123.668-.172.945-.147.277.028.523.125.738.293.215.168.408.403.578.7C-.304-.77-.146-.414 0 0m-4.827 1.623c.414 1.178.985 1.959 1.713 2.348.728.388 1.641.39 2.742.002.553-.194.993-.44 1.319-.739.327-.296.556-.642.686-1.033.13-.392.17-.826.119-1.303a6.9 6.9 0 0 0-.369-1.543C.972-1.814.398-2.596-.335-2.99c-.734-.395-1.65-.399-2.751-.012-.56.197-1.003.447-1.328.748a2.376 2.376 0 0 0-.671 1.041A3.195 3.195 0 0 0-5.192.09c.05.476.172.988.365 1.533" style="fill:#5d9db4;fill-opacity:1;fill-rule:nonzero;stroke:none;stroke-width:.213015" transform="matrix(1.3109 0 0 -1.3109 116.93 224.206)"/></g><g style="stroke-width:.213015"><path d="m0 0-.169-1.131-4.373.654 1.072 7.17 1.448-.216-.904-6.04z" style="fill:#5d9db4;fill-opacity:1;fill-rule:nonzero;stroke:none;stroke-width:.213015" transform="matrix(1.3109 0 0 -1.3109 128.125 229.913)"/></g><g style="stroke-width:.213015"><path d="m0 0 .019-1.145-4.422-.07-.118 7.248 1.463.024.099-6.106z" style="fill:#5d9db4;fill-opacity:1;fill-rule:nonzero;stroke:none;stroke-width:.213015" transform="matrix(1.3109 0 0 -1.3109 138.085 230.033)"/></g><g style="stroke-width:.213015"><path d="m0 0 .208-1.125-4.705-.871-1.319 7.129 4.587.847.208-1.125-3.148-.582.33-1.785 3.039.563.204-1.104-3.039-.562.368-1.99Z" style="fill:#5d9db4;fill-opacity:1;fill-rule:nonzero;stroke:none;stroke-width:.213015" transform="matrix(1.3109 0 0 -1.3109 148.368 228.471)"/></g><g style="stroke-width:.213015"><path d="M0 0a5.234 5.234 0 0 0-.973-.785 7.722 7.722 0 0 0-1.286-.649c-1.144-.457-2.102-.488-2.874-.097-.772.39-1.379 1.14-1.822 2.252-.228.572-.353 1.105-.373 1.603-.021.496.057.947.23 1.354.174.404.44.763.797 1.074.357.312.801.574 1.332.787.497.197.991.307 1.482.324.49.018.959-.09 1.407-.322l-.534-1.064a2.445 2.445 0 0 1-.894.236 2.368 2.368 0 0 1-1.033-.188c-.66-.263-1.072-.681-1.235-1.252-.164-.57-.081-1.267.248-2.091.309-.776.715-1.287 1.216-1.534.5-.246 1.071-.242 1.71.014.192.076.392.168.602.276l.393.261-.632 1.584-1.4-.558-.412 1.033 2.718 1.084z" style="fill:#5d9db4;fill-opacity:1;fill-rule:nonzero;stroke:none;stroke-width:.213015" transform="matrix(1.3109 0 0 -1.3109 160.612 225.25)"/></g><g style="stroke-width:.213015"><path d="m0 0 .624-.959-4.011-2.609-3.953 6.076 3.909 2.545.624-.959-2.683-1.746.99-1.522 2.591 1.686.611-.942-2.591-1.685 1.105-1.696Z" style="fill:#5d9db4;fill-opacity:1;fill-rule:nonzero;stroke:none;stroke-width:.213015" transform="matrix(1.3109 0 0 -1.3109 170.026 218.442)"/></g><g style="stroke-width:.213015"><path d="m0 0-4.816 3.383-.272-1.612-.975.161.408 2.63.556.792L.834 1.189z" style="fill:#5d9db4;fill-opacity:1;fill-rule:nonzero;stroke:none;stroke-width:.213015" transform="matrix(1.3109 0 0 -1.3109 185.062 205.228)"/></g><g style="stroke-width:.213015"><path d="M0 0c-.408.104-.767.117-1.074.039-.308-.078-.53-.303-.668-.674-.275-.742.016-1.271.873-1.588.339-.125.651-.127.936 0 .287.123.495.366.627.723.089.24.139.48.149.721a1.83 1.83 0 0 1-.03.525A8.043 8.043 0 0 1 0 0m1.356 1.117A7.473 7.473 0 0 0 2.953.328c.439-.295.772-.631 1.001-1.004.23-.373.355-.791.375-1.252.022-.463-.072-.974-.28-1.539a4.618 4.618 0 0 0-.393-.822 4.406 4.406 0 0 0-.48-.648l-.865.671c.266.276.483.641.651 1.096.111.303.165.578.159.826a1.54 1.54 0 0 1-.158.668 1.65 1.65 0 0 1-.427.528 3.65 3.65 0 0 1-.63.419.176.176 0 0 1-.068.038c.03-.192.038-.381.023-.571a3.133 3.133 0 0 0-.177-.861c-.278-.75-.662-1.256-1.153-1.516-.491-.259-1.101-.256-1.83.014a2.884 2.884 0 0 0-.88.508c-.25.213-.441.467-.576.758a2.344 2.344 0 0 0-.205.966c-.003.354.071.733.222 1.139.149.406.338.746.565 1.022.227.277.506.476.837.599.331.125.719.168 1.161.129.444-.039.954-.166 1.531-.379" style="fill:#5d9db4;fill-opacity:1;fill-rule:nonzero;stroke:none;stroke-width:.213015" transform="matrix(1.3109 0 0 -1.3109 187.324 186.968)"/></g><g style="stroke-width:.213015"><path d="m0 0-5.879 3.105L-6.24-.66l-1.095.103.519 5.411.745-.073 6.217-3.26Z" style="fill:#5d9db4;fill-opacity:1;fill-rule:nonzero;stroke:none;stroke-width:.213015" transform="matrix(1.3109 0 0 -1.3109 196.196 176.834)"/></g><g style="stroke-width:.213015"><path d="m0 0-3.519-.566.016-.098L.308-1.912zm-4.857.687 4.627.747-.153.943 1.054.17.151-.945L2.3 1.84 2.53.406 1.053.168l.544-3.377-.804-.129-5.299 1.844Z" style="fill:#5d9db4;fill-opacity:1;fill-rule:nonzero;stroke:none;stroke-width:.213015" transform="matrix(1.3109 0 0 -1.3109 192.45 158.71)"/></g><g style="stroke-width:.213015"><path d="m0 0-.139 6.964c.246.005.493.008.741.01L.652.009A70.385 70.385 0 0 1 0 0" style="fill:#5d9db4;fill-opacity:1;fill-rule:nonzero;stroke:none;stroke-width:.213015" transform="matrix(1.3109 0 0 -1.3109 132.363 98.724)"/></g><g style="stroke-width:.213015"><path d="m0 0-.381 6.955c.245.014.492.025.738.035L.651.032C.435.022.217.012 0 0" style="fill:#5d9db4;fill-opacity:1;fill-rule:nonzero;stroke:none;stroke-width:.213015" transform="matrix(1.3109 0 0 -1.3109 129.932 98.81)"/></g><g style="stroke-width:.213015"><path d="m0 0-.623 6.937c.244.023.49.042.736.062L.65.055A47.45 47.45 0 0 1 0 0" style="fill:#5d9db4;fill-opacity:1;fill-rule:nonzero;stroke:none;stroke-width:.213015" transform="matrix(1.3109 0 0 -1.3109 127.506 98.98)"/></g><g style="stroke-width:.213015"><path d="m0 0-.865 6.912c.244.03.489.06.734.087L.647.078A67.242 67.242 0 0 1 0 0" style="fill:#5d9db4;fill-opacity:1;fill-rule:nonzero;stroke:none;stroke-width:.213015" transform="matrix(1.3109 0 0 -1.3109 125.088 99.234)"/></g><g style="stroke-width:.213015"><path d="m0 0-1.106 6.877c.243.039.487.076.731.112L.645.1 0 0" style="fill:#5d9db4;fill-opacity:1;fill-rule:nonzero;stroke:none;stroke-width:.213015" transform="matrix(1.3109 0 0 -1.3109 122.68 99.572)"/></g><g style="stroke-width:.213015"><path d="m0 0-1.346 6.834c.242.047.485.094.727.138L.641.122 0 0" style="fill:#5d9db4;fill-opacity:1;fill-rule:nonzero;stroke:none;stroke-width:.213015" transform="matrix(1.3109 0 0 -1.3109 120.285 99.995)"/></g><g style="stroke-width:.213015"><path d="m0 0-1.583 6.783c.239.056.48.111.721.164L.636.145A45.069 45.069 0 0 1 0 0" style="fill:#5d9db4;fill-opacity:1;fill-rule:nonzero;stroke:none;stroke-width:.213015" transform="matrix(1.3109 0 0 -1.3109 117.906 100.502)"/></g><g style="stroke-width:.213015"><path d="m0 0-1.819 6.725c.237.063.475.127.715.187L.631.167C.419.113.209.057 0 0" style="fill:#5d9db4;fill-opacity:1;fill-rule:nonzero;stroke:none;stroke-width:.213015" transform="matrix(1.3109 0 0 -1.3109 115.547 101.09)"/></g><g style="stroke-width:.213015"><path d="m0 0-2.053 6.655c.236.073.471.145.708.214L.624.188A92.264 92.264 0 0 1 0 0" style="fill:#5d9db4;fill-opacity:1;fill-rule:nonzero;stroke:none;stroke-width:.213015" transform="matrix(1.3109 0 0 -1.3109 113.21 101.76)"/></g><g style="stroke-width:.213015"><path d="m0 0-2.283 6.581c.232.08.466.16.7.237L.617.21A44.778 44.778 0 0 1 0 0" style="fill:#5d9db4;fill-opacity:1;fill-rule:nonzero;stroke:none;stroke-width:.213015" transform="matrix(1.3109 0 0 -1.3109 110.896 102.513)"/></g><g style="stroke-width:.213015"><path d="m0 0-2.512 6.497c.23.089.46.176.692.262L.609.231A40.24 40.24 0 0 1 0 0" style="fill:#5d9db4;fill-opacity:1;fill-rule:nonzero;stroke:none;stroke-width:.213015" transform="matrix(1.3109 0 0 -1.3109 108.61 103.345)"/></g><g style="stroke-width:.213015"><path d="m0 0-2.736 6.405c.226.097.453.193.681.286L.602.253A40.146 40.146 0 0 1 0 0" style="fill:#5d9db4;fill-opacity:1;fill-rule:nonzero;stroke:none;stroke-width:.213015" transform="matrix(1.3109 0 0 -1.3109 106.355 104.257)"/></g><g style="stroke-width:.213015"><path d="m0 0-2.958 6.306c.223.104.446.208.671.31L.593.273C.395.184.196.093 0 0" style="fill:#5d9db4;fill-opacity:1;fill-rule:nonzero;stroke:none;stroke-width:.213015" transform="matrix(1.3109 0 0 -1.3109 104.134 105.246)"/></g><g style="stroke-width:.213015"><path d="m0 0-3.177 6.197c.219.114.439.225.659.334L.582.293A52.695 52.695 0 0 1 0 0" style="fill:#5d9db4;fill-opacity:1;fill-rule:nonzero;stroke:none;stroke-width:.213015" transform="matrix(1.3109 0 0 -1.3109 101.949 106.311)"/></g><g style="stroke-width:.213015"><path d="m0 0-3.391 6.084c.215.12.432.239.649.356L.572.314A39.51 39.51 0 0 1 0 0" style="fill:#5d9db4;fill-opacity:1;fill-rule:nonzero;stroke:none;stroke-width:.213015" transform="matrix(1.3109 0 0 -1.3109 99.8 107.454)"/></g><g style="stroke-width:.213015"><path d="m0 0-3.602 5.962c.21.127.422.254.635.379L.56.334C.372.224.186.112 0 0" style="fill:#5d9db4;fill-opacity:1;fill-rule:nonzero;stroke:none;stroke-width:.213015" transform="matrix(1.3109 0 0 -1.3109 97.696 108.67)"/></g><g style="stroke-width:.213015"><path d="m0 0-3.807 5.833c.206.134.413.268.621.399L.549.354 0 0" style="fill:#5d9db4;fill-opacity:1;fill-rule:nonzero;stroke:none;stroke-width:.213015" transform="matrix(1.3109 0 0 -1.3109 95.632 109.96)"/></g><g style="stroke-width:.213015"><path d="m0 0-4.009 5.695c.201.143.404.284.608.422L.535.372C.355.249.178.125 0 0" style="fill:#5d9db4;fill-opacity:1;fill-rule:nonzero;stroke:none;stroke-width:.213015" transform="matrix(1.3109 0 0 -1.3109 93.617 111.32)"/></g><g style="stroke-width:.213015"><path d="m0 0-4.205 5.553c.196.148.393.296.593.442L.522.391C.347.261.173.131 0 0" style="fill:#5d9db4;fill-opacity:1;fill-rule:nonzero;stroke:none;stroke-width:.213015" transform="matrix(1.3109 0 0 -1.3109 91.65 112.75)"/></g><g style="stroke-width:.213015"><path d="m0 0-4.396 5.402c.191.156.383.31.577.464L.509.409C.338.273.169.138 0 0" style="fill:#5d9db4;fill-opacity:1;fill-rule:nonzero;stroke:none;stroke-width:.213015" transform="matrix(1.3109 0 0 -1.3109 89.733 114.247)"/></g><g style="stroke-width:.213015"><path d="m0 0-4.582 5.246.56.483L.494.426C.328.285.164.143 0 0" style="fill:#5d9db4;fill-opacity:1;fill-rule:nonzero;stroke:none;stroke-width:.213015" transform="matrix(1.3109 0 0 -1.3109 87.87 115.81)"/></g><g style="stroke-width:.213015"><path d="m0 0-4.763 5.083c.18.169.361.336.543.502L.479.443C.317.297.158.148 0 0" style="fill:#5d9db4;fill-opacity:1;fill-rule:nonzero;stroke:none;stroke-width:.213015" transform="matrix(1.3109 0 0 -1.3109 86.064 117.439)"/></g><g style="stroke-width:.213015"><path d="m0 0-4.937 4.914c.174.174.349.348.526.521L.464.46A40.284 40.284 0 0 1 0 0" style="fill:#5d9db4;fill-opacity:1;fill-rule:nonzero;stroke:none;stroke-width:.213015" transform="matrix(1.3109 0 0 -1.3109 84.314 119.128)"/></g><g style="stroke-width:.213015"><path d="m0 0-5.105 4.738c.168.18.335.36.505.539L.446.475C.297.317.147.159 0 0" style="fill:#5d9db4;fill-opacity:1;fill-rule:nonzero;stroke:none;stroke-width:.213015" transform="matrix(1.3109 0 0 -1.3109 82.626 120.877)"/></g><g style="stroke-width:.213015"><path d="m0 0-5.268 4.557c.162.186.324.372.488.556L.43.49A39.638 39.638 0 0 1 0 0" style="fill:#5d9db4;fill-opacity:1;fill-rule:nonzero;stroke:none;stroke-width:.213015" transform="matrix(1.3109 0 0 -1.3109 80.999 122.685)"/></g><g style="stroke-width:.213015"><path d="m0 0-5.424 4.371c.154.191.311.383.469.572L.412.506A50.442 50.442 0 0 1 0 0" style="fill:#5d9db4;fill-opacity:1;fill-rule:nonzero;stroke:none;stroke-width:.213015" transform="matrix(1.3109 0 0 -1.3109 79.436 124.549)"/></g><g style="stroke-width:.213015"><path d="m0 0-5.572 4.179c.148.197.297.393.447.589L.395.52A64.683 64.683 0 0 1 0 0" style="fill:#5d9db4;fill-opacity:1;fill-rule:nonzero;stroke:none;stroke-width:.213015" transform="matrix(1.3109 0 0 -1.3109 77.938 126.465)"/></g><g style="stroke-width:.213015"><path d="m0 0-5.715 3.981c.141.203.283.404.427.605L.377.533A87.01 87.01 0 0 1 0 0" style="fill:#5d9db4;fill-opacity:1;fill-rule:nonzero;stroke:none;stroke-width:.213015" transform="matrix(1.3109 0 0 -1.3109 76.509 128.433)"/></g><g style="stroke-width:.213015"><path d="m0 0-5.851 3.779c.134.207.269.413.406.619L.357.546C.237.364.118.183 0 0" style="fill:#5d9db4;fill-opacity:1;fill-rule:nonzero;stroke:none;stroke-width:.213015" transform="matrix(1.3109 0 0 -1.3109 75.15 130.449)"/></g><g style="stroke-width:.213015"><path d="m0 0-5.979 3.573c.126.211.253.422.383.632L.338.558A46.001 46.001 0 0 1 0 0" style="fill:#5d9db4;fill-opacity:1;fill-rule:nonzero;stroke:none;stroke-width:.213015" transform="matrix(1.3109 0 0 -1.3109 73.862 132.511)"/></g><g style="stroke-width:.213015"><path d="m0 0-6.1 3.363c.119.215.239.43.362.645L.318.57C.211.381.105.19 0 0" style="fill:#5d9db4;fill-opacity:1;fill-rule:nonzero;stroke:none;stroke-width:.213015" transform="matrix(1.3109 0 0 -1.3109 72.646 134.619)"/></g><g style="stroke-width:.213015"><path d="m0 0-6.213 3.147c.111.22.224.439.338.658L.299.58A63.48 63.48 0 0 1 0 0" style="fill:#5d9db4;fill-opacity:1;fill-rule:nonzero;stroke:none;stroke-width:.213015" transform="matrix(1.3109 0 0 -1.3109 71.504 136.765)"/></g><g style="stroke-width:.213015"><path d="m0 0-6.319 2.928c.102.223.208.447.315.669L.277.59 0 0" style="fill:#5d9db4;fill-opacity:1;fill-rule:nonzero;stroke:none;stroke-width:.213015" transform="matrix(1.3109 0 0 -1.3109 70.438 138.95)"/></g><g style="stroke-width:.213015"><path d="m0 0-6.418 2.706c.096.227.192.454.291.68L.256.6C.17.399.084.2 0 0" style="fill:#5d9db4;fill-opacity:1;fill-rule:nonzero;stroke:none;stroke-width:.213015" transform="matrix(1.3109 0 0 -1.3109 69.45 141.173)"/></g><g style="stroke-width:.213015"><path d="m0 0-6.508 2.48c.087.231.176.461.268.69L.236.608C.156.406.078.203 0 0" style="fill:#5d9db4;fill-opacity:1;fill-rule:nonzero;stroke:none;stroke-width:.213015" transform="matrix(1.3109 0 0 -1.3109 68.539 143.429)"/></g><g style="stroke-width:.213015"><path d="m0 0-6.59 2.252c.079.233.16.466.242.698L.215.616C.143.411.07.206 0 0" style="fill:#5d9db4;fill-opacity:1;fill-rule:nonzero;stroke:none;stroke-width:.213015" transform="matrix(1.3109 0 0 -1.3109 67.707 145.714)"/></g><g style="stroke-width:.213015"><path d="m0 0-6.666 2.021c.071.235.145.471.219.706L.192.623A44.81 44.81 0 0 1 0 0" style="fill:#5d9db4;fill-opacity:1;fill-rule:nonzero;stroke:none;stroke-width:.213015" transform="matrix(1.3109 0 0 -1.3109 66.956 148.027)"/></g><g style="stroke-width:.213015"><path d="m0 0-6.731 1.787c.063.237.127.476.194.713L.172.629C.113.42.057.21 0 0" style="fill:#5d9db4;fill-opacity:1;fill-rule:nonzero;stroke:none;stroke-width:.213015" transform="matrix(1.3109 0 0 -1.3109 66.286 150.365)"/></g><g style="stroke-width:.213015"><path d="m0 0-6.79 1.55c.055.24.111.48.169.721L.149.635 0 0" style="fill:#5d9db4;fill-opacity:1;fill-rule:nonzero;stroke:none;stroke-width:.213015" transform="matrix(1.3109 0 0 -1.3109 65.698 152.724)"/></g><g style="stroke-width:.213015"><path d="m0 0-6.84 1.313c.047.242.094.484.145.726L.127.641C.084.427.041.214 0 0" style="fill:#5d9db4;fill-opacity:1;fill-rule:nonzero;stroke:none;stroke-width:.213015" transform="matrix(1.3109 0 0 -1.3109 65.192 155.104)"/></g><g style="stroke-width:.213015"><path d="m0 0-6.882 1.072c.037.244.077.488.118.731L.104.644C.068.429.034.214 0 0" style="fill:#5d9db4;fill-opacity:1;fill-rule:nonzero;stroke:none;stroke-width:.213015" transform="matrix(1.3109 0 0 -1.3109 64.771 157.498)"/></g><g style="stroke-width:.213015"><path d="m0 0-6.915.832c.029.245.06.489.093.734L.081.647A45.703 45.703 0 0 1 0 0" style="fill:#5d9db4;fill-opacity:1;fill-rule:nonzero;stroke:none;stroke-width:.213015" transform="matrix(1.3109 0 0 -1.3109 64.433 159.907)"/></g><g style="stroke-width:.213015"><path d="m0 0-6.94.591c.02.245.043.49.067.736L.059.649C.038.433.019.216 0 0" style="fill:#5d9db4;fill-opacity:1;fill-rule:nonzero;stroke:none;stroke-width:.213015" transform="matrix(1.3109 0 0 -1.3109 64.18 162.326)"/></g><g style="stroke-width:.213015"><path d="m0 0-6.956.348c.012.246.025.492.041.738L.037.651C.023.434.012.217 0 0" style="fill:#5d9db4;fill-opacity:1;fill-rule:nonzero;stroke:none;stroke-width:.213015" transform="matrix(1.3109 0 0 -1.3109 64.01 164.752)"/></g><g style="stroke-width:.213015"><path d="m0 0-6.964.105c.003.247.009.493.016.74L.014.652C.008.435.004.218 0 0" style="fill:#5d9db4;fill-opacity:1;fill-rule:nonzero;stroke:none;stroke-width:.213015" transform="matrix(1.3109 0 0 -1.3109 63.925 167.183)"/></g><g style="stroke-width:.213015"><path d="m0 0-6.964-.139c-.005.246-.008.493-.009.74l6.965.051C-.007.434-.004.217 0 0" style="fill:#5d9db4;fill-opacity:1;fill-rule:nonzero;stroke:none;stroke-width:.213015" transform="matrix(1.3109 0 0 -1.3109 63.925 169.614)"/></g><g style="stroke-width:.213015"><path d="m0 0-6.954-.381c-.014.245-.026.492-.037.738l6.959.294C-.022.435-.012.217 0 0" style="fill:#5d9db4;fill-opacity:1;fill-rule:nonzero;stroke:none;stroke-width:.213015" transform="matrix(1.3109 0 0 -1.3109 64.01 172.045)"/></g><g style="stroke-width:.213015"><path d="m0 0-6.937-.623c-.022.244-.043.49-.062.736L-.055.65C-.037.433-.02.217 0 0" style="fill:#5d9db4;fill-opacity:1;fill-rule:nonzero;stroke:none;stroke-width:.213015" transform="matrix(1.3109 0 0 -1.3109 64.181 174.47)"/></g><g style="stroke-width:.213015"><path d="m0 0-6.91-.866c-.031.245-.061.49-.088.734l6.922.779C-.053.431-.026.215 0 0" style="fill:#5d9db4;fill-opacity:1;fill-rule:nonzero;stroke:none;stroke-width:.213015" transform="matrix(1.3109 0 0 -1.3109 64.434 176.889)"/></g><g style="stroke-width:.213015"><path d="m0 0-6.878-1.106c-.038.243-.076.487-.112.731L-.101.645C-.068.429-.035.214 0 0" style="fill:#5d9db4;fill-opacity:1;fill-rule:nonzero;stroke:none;stroke-width:.213015" transform="matrix(1.3109 0 0 -1.3109 64.775 179.297)"/></g><g style="stroke-width:.213015"><path d="m0 0-6.833-1.346c-.049.242-.094.484-.139.727l6.85 1.26L0 0" style="fill:#5d9db4;fill-opacity:1;fill-rule:nonzero;stroke:none;stroke-width:.213015" transform="matrix(1.3109 0 0 -1.3109 65.196 181.692)"/></g><g style="stroke-width:.213015"><path d="m0 0-6.783-1.582c-.056.239-.111.479-.163.721L-.145.637C-.098.424-.05.212 0 0" style="fill:#5d9db4;fill-opacity:1;fill-rule:nonzero;stroke:none;stroke-width:.213015" transform="matrix(1.3109 0 0 -1.3109 65.703 184.072)"/></g><g style="stroke-width:.213015"><path d="m0 0-6.723-1.818c-.064.237-.128.475-.188.714L-.166.631C-.111.42-.057.21 0 0" style="fill:#5d9db4;fill-opacity:1;fill-rule:nonzero;stroke:none;stroke-width:.213015" transform="matrix(1.3109 0 0 -1.3109 66.29 186.431)"/></g><g style="stroke-width:.213015"><path d="m0 0-6.655-2.052c-.074.235-.144.471-.214.708L-.187.625C-.127.416-.063.208 0 0" style="fill:#5d9db4;fill-opacity:1;fill-rule:nonzero;stroke:none;stroke-width:.213015" transform="matrix(1.3109 0 0 -1.3109 66.961 188.769)"/></g><g style="stroke-width:.213015"><path d="m0 0-6.58-2.283c-.081.233-.16.467-.238.701L-.21.618C-.142.412-.071.206 0 0" style="fill:#5d9db4;fill-opacity:1;fill-rule:nonzero;stroke:none;stroke-width:.213015" transform="matrix(1.3109 0 0 -1.3109 67.714 191.082)"/></g><g style="stroke-width:.213015"><path d="m0 0-6.497-2.512c-.088.23-.176.46-.262.692L-.231.609C-.156.405-.078.202 0 0" style="fill:#5d9db4;fill-opacity:1;fill-rule:nonzero;stroke:none;stroke-width:.213015" transform="matrix(1.3109 0 0 -1.3109 68.546 193.366)"/></g><g style="stroke-width:.213015"><path d="m0 0-6.405-2.736c-.097.226-.193.453-.286.681L-.253.602C-.17.4-.086.2 0 0" style="fill:#5d9db4;fill-opacity:1;fill-rule:nonzero;stroke:none;stroke-width:.213015" transform="matrix(1.3109 0 0 -1.3109 69.458 195.622)"/></g><g style="stroke-width:.213015"><path d="m0 0-6.306-2.959c-.104.223-.208.447-.309.672L-.274.592C-.184.394-.093.196 0 0" style="fill:#5d9db4;fill-opacity:1;fill-rule:nonzero;stroke:none;stroke-width:.213015" transform="matrix(1.3109 0 0 -1.3109 70.447 197.843)"/></g><g style="stroke-width:.213015"><path d="m0 0-6.199-3.178c-.112.22-.223.44-.332.66l6.237 3.1C-.197.387-.099.193 0 0" style="fill:#5d9db4;fill-opacity:1;fill-rule:nonzero;stroke:none;stroke-width:.213015" transform="matrix(1.3109 0 0 -1.3109 71.514 200.028)"/></g><g style="stroke-width:.213015"><path d="m0 0-6.084-3.391c-.119.215-.238.431-.355.649L-.314.572C-.211.381-.105.189 0 0" style="fill:#5d9db4;fill-opacity:1;fill-rule:nonzero;stroke:none;stroke-width:.213015" transform="matrix(1.3109 0 0 -1.3109 72.656 202.176)"/></g><g style="stroke-width:.213015"><path d="m0 0-5.962-3.602c-.127.211-.254.423-.378.636L-.334.561C-.224.373-.112.187 0 0" style="fill:#5d9db4;fill-opacity:1;fill-rule:nonzero;stroke:none;stroke-width:.213015" transform="matrix(1.3109 0 0 -1.3109 73.872 204.282)"/></g><g style="stroke-width:.213015"><path d="m0 0-5.833-3.807c-.135.206-.268.413-.4.621L-.354.549 0 0" style="fill:#5d9db4;fill-opacity:1;fill-rule:nonzero;stroke:none;stroke-width:.213015" transform="matrix(1.3109 0 0 -1.3109 75.161 206.345)"/></g><g style="stroke-width:.213015"><path d="m0 0-5.696-4.009c-.142.201-.283.404-.423.608L-.373.535C-.249.355-.125.178 0 0" style="fill:#5d9db4;fill-opacity:1;fill-rule:nonzero;stroke:none;stroke-width:.213015" transform="matrix(1.3109 0 0 -1.3109 76.522 208.36)"/></g><g style="stroke-width:.213015"><path d="m0 0-5.552-4.205a38.07 38.07 0 0 0-.443.593L-.391.522C-.262.347-.131.173 0 0" style="fill:#5d9db4;fill-opacity:1;fill-rule:nonzero;stroke:none;stroke-width:.213015" transform="matrix(1.3109 0 0 -1.3109 77.95 210.327)"/></g><g style="stroke-width:.213015"><path d="m0 0-5.402-4.396c-.156.191-.31.383-.463.577L-.408.509C-.273.338-.137.168 0 0" style="fill:#5d9db4;fill-opacity:1;fill-rule:nonzero;stroke:none;stroke-width:.213015" transform="matrix(1.3109 0 0 -1.3109 79.448 212.244)"/></g><g style="stroke-width:.213015"><path d="m0 0-5.246-4.582c-.162.186-.323.372-.483.56L-.427.494C-.285.328-.144.163 0 0" style="fill:#5d9db4;fill-opacity:1;fill-rule:nonzero;stroke:none;stroke-width:.213015" transform="matrix(1.3109 0 0 -1.3109 81.013 214.106)"/></g><g style="stroke-width:.213015"><path d="m0 0-5.083-4.763c-.168.18-.336.361-.502.542l5.142 4.7C-.296.317-.148.158 0 0" style="fill:#5d9db4;fill-opacity:1;fill-rule:nonzero;stroke:none;stroke-width:.213015" transform="matrix(1.3109 0 0 -1.3109 82.64 215.913)"/></g><g style="stroke-width:.213015"><path d="m0 0-4.914-4.937c-.174.174-.348.349-.521.525L-.46.463C-.308.308-.154.153 0 0" style="fill:#5d9db4;fill-opacity:1;fill-rule:nonzero;stroke:none;stroke-width:.213015" transform="matrix(1.3109 0 0 -1.3109 84.33 217.663)"/></g><g style="stroke-width:.213015"><path d="m0 0-4.738-5.105c-.181.167-.361.335-.539.505l4.8 5.046C-.318.296-.16.147 0 0" style="fill:#5d9db4;fill-opacity:1;fill-rule:nonzero;stroke:none;stroke-width:.213015" transform="matrix(1.3109 0 0 -1.3109 86.08 219.351)"/></g><g style="stroke-width:.213015"><path d="m0 0-4.558-5.268c-.186.162-.372.324-.556.488L-.491.43C-.328.285-.165.142 0 0" style="fill:#5d9db4;fill-opacity:1;fill-rule:nonzero;stroke:none;stroke-width:.213015" transform="matrix(1.3109 0 0 -1.3109 87.887 220.978)"/></g><g style="stroke-width:.213015"><path d="m0 0-4.37-5.424c-.192.154-.383.311-.573.468L-.506.412C-.338.273-.169.136 0 0" style="fill:#5d9db4;fill-opacity:1;fill-rule:nonzero;stroke:none;stroke-width:.213015" transform="matrix(1.3109 0 0 -1.3109 89.75 222.542)"/></g><g style="stroke-width:.213015"><path d="m0 0-4.179-5.572c-.196.147-.393.297-.589.447L-.52.395C-.347.262-.174.131 0 0" style="fill:#5d9db4;fill-opacity:1;fill-rule:nonzero;stroke:none;stroke-width:.213015" transform="matrix(1.3109 0 0 -1.3109 91.666 224.04)"/></g><g style="stroke-width:.213015"><path d="m0 0-3.981-5.715a54.14 54.14 0 0 0-.604.426L-.533.376C-.356.25-.179.124 0 0" style="fill:#5d9db4;fill-opacity:1;fill-rule:nonzero;stroke:none;stroke-width:.213015" transform="matrix(1.3109 0 0 -1.3109 93.634 225.468)"/></g><g style="stroke-width:.213015"><path d="m0 0-3.779-5.851c-.207.134-.414.269-.619.406L-.546.357C-.364.236-.183.118 0 0" style="fill:#5d9db4;fill-opacity:1;fill-rule:nonzero;stroke:none;stroke-width:.213015" transform="matrix(1.3109 0 0 -1.3109 95.65 226.828)"/></g><g style="stroke-width:.213015"><path d="m0 0-3.574-5.979a37.97 37.97 0 0 0-.632.383L-.559.338C-.373.224-.187.111 0 0" style="fill:#5d9db4;fill-opacity:1;fill-rule:nonzero;stroke:none;stroke-width:.213015" transform="matrix(1.3109 0 0 -1.3109 97.714 228.115)"/></g><g style="stroke-width:.213015"><path d="m0 0-3.362-6.1c-.216.119-.432.239-.646.361L-.569.318C-.38.211-.19.104 0 0" style="fill:#5d9db4;fill-opacity:1;fill-rule:nonzero;stroke:none;stroke-width:.213015" transform="matrix(1.3109 0 0 -1.3109 99.82 229.332)"/></g><g style="stroke-width:.213015"><path d="m0 0-3.147-6.213c-.22.111-.439.224-.658.338L-.58.299C-.387.197-.193.099 0 0" style="fill:#5d9db4;fill-opacity:1;fill-rule:nonzero;stroke:none;stroke-width:.213015" transform="matrix(1.3109 0 0 -1.3109 101.967 230.474)"/></g><g style="stroke-width:.213015"><path d="m0 0-2.929-6.32c-.223.103-.446.209-.669.315L-.59.277C-.394.184-.197.091 0 0" style="fill:#5d9db4;fill-opacity:1;fill-rule:nonzero;stroke:none;stroke-width:.213015" transform="matrix(1.3109 0 0 -1.3109 104.153 231.539)"/></g><g style="stroke-width:.213015"><path d="m0 0-2.706-6.418a49.67 49.67 0 0 0-.68.292L-.6.257 0 0" style="fill:#5d9db4;fill-opacity:1;fill-rule:nonzero;stroke:none;stroke-width:.213015" transform="matrix(1.3109 0 0 -1.3109 106.374 232.528)"/></g><g style="stroke-width:.213015"><path d="m0 0-2.481-6.509c-.23.088-.459.177-.689.269L-.608.236C-.405.156-.203.077 0 0" style="fill:#5d9db4;fill-opacity:1;fill-rule:nonzero;stroke:none;stroke-width:.213015" transform="matrix(1.3109 0 0 -1.3109 108.63 233.438)"/></g><g style="stroke-width:.213015"><path d="m0 0-2.252-6.591c-.232.079-.466.161-.698.243L-.616.215C-.411.143-.205.07 0 0" style="fill:#5d9db4;fill-opacity:1;fill-rule:nonzero;stroke:none;stroke-width:.213015" transform="matrix(1.3109 0 0 -1.3109 110.915 234.27)"/></g><g style="stroke-width:.213015"><path d="m0 0-2.021-6.666c-.236.071-.471.145-.707.219L-.624.192C-.415.127-.208.062 0 0" style="fill:#5d9db4;fill-opacity:1;fill-rule:nonzero;stroke:none;stroke-width:.213015" transform="matrix(1.3109 0 0 -1.3109 113.229 235.02)"/></g><g style="stroke-width:.213015"><path d="m0 0-1.786-6.732a44.3 44.3 0 0 0-.714.195L-.63.172C-.419.113-.21.057 0 0" style="fill:#5d9db4;fill-opacity:1;fill-rule:nonzero;stroke:none;stroke-width:.213015" transform="matrix(1.3109 0 0 -1.3109 115.566 235.692)"/></g><g style="stroke-width:.213015"><path d="m0 0-1.551-6.79c-.239.055-.479.111-.719.169L-.635.149C-.423.098-.211.048 0 0" style="fill:#5d9db4;fill-opacity:1;fill-rule:nonzero;stroke:none;stroke-width:.213015" transform="matrix(1.3109 0 0 -1.3109 117.926 236.28)"/></g><g style="stroke-width:.213015"><path d="m0 0-1.312-6.84a58.03 58.03 0 0 0-.725.143L-.64.127C-.426.084-.213.041 0 0" style="fill:#5d9db4;fill-opacity:1;fill-rule:nonzero;stroke:none;stroke-width:.213015" transform="matrix(1.3109 0 0 -1.3109 120.304 236.785)"/></g><g style="stroke-width:.213015"><path d="m0 0-1.073-6.882c-.243.037-.488.077-.731.118L-.645.104C-.43.067-.215.033 0 0" style="fill:#5d9db4;fill-opacity:1;fill-rule:nonzero;stroke:none;stroke-width:.213015" transform="matrix(1.3109 0 0 -1.3109 122.7 237.206)"/></g><g style="stroke-width:.213015"><path d="m0 0-.833-6.915-.732.093.918 6.904C-.432.054-.216.026 0 0" style="fill:#5d9db4;fill-opacity:1;fill-rule:nonzero;stroke:none;stroke-width:.213015" transform="matrix(1.3109 0 0 -1.3109 125.109 237.545)"/></g><g style="stroke-width:.213015"><path d="m0 0-.59-6.939c-.246.02-.491.043-.736.066L-.649.06C-.433.039-.217.019 0 0" style="fill:#5d9db4;fill-opacity:1;fill-rule:nonzero;stroke:none;stroke-width:.213015" transform="matrix(1.3109 0 0 -1.3109 127.527 237.799)"/></g><g style="stroke-width:.213015"><path d="m0 0-.348-6.957c-.245.013-.492.026-.738.042L-.651.036 0 0" style="fill:#5d9db4;fill-opacity:1;fill-rule:nonzero;stroke:none;stroke-width:.213015" transform="matrix(1.3109 0 0 -1.3109 129.953 237.968)"/></g><g style="stroke-width:.213015"><path d="m0 0-.105-6.965c-.247.004-.493.01-.74.017L-.652.014C-.435.008-.218.004 0 0" style="fill:#5d9db4;fill-opacity:1;fill-rule:nonzero;stroke:none;stroke-width:.213015" transform="matrix(1.3109 0 0 -1.3109 132.384 238.052)"/></g><g style="stroke-width:.213015"><path d="m0 0 .138-6.963a45.48 45.48 0 0 0-.74-.011l-.05 6.965L0 0" style="fill:#5d9db4;fill-opacity:1;fill-rule:nonzero;stroke:none;stroke-width:.213015" transform="matrix(1.3109 0 0 -1.3109 134.816 238.052)"/></g><g style="stroke-width:.213015"><path d="m0 0 .382-6.955a61.902 61.902 0 0 0-.739-.036L-.651-.032c.217.01.434.02.651.032" style="fill:#5d9db4;fill-opacity:1;fill-rule:nonzero;stroke:none;stroke-width:.213015" transform="matrix(1.3109 0 0 -1.3109 137.246 237.966)"/></g><g style="stroke-width:.213015"><path d="m0 0 .624-6.937a44.804 44.804 0 0 0-.737-.062L-.649-.055C-.433-.038-.216-.02 0 0" style="fill:#5d9db4;fill-opacity:1;fill-rule:nonzero;stroke:none;stroke-width:.213015" transform="matrix(1.3109 0 0 -1.3109 139.672 237.796)"/></g><g style="stroke-width:.213015"><path d="m0 0 .864-6.911c-.244-.03-.488-.06-.734-.087L-.648-.077c.216.024.432.051.648.077" style="fill:#5d9db4;fill-opacity:1;fill-rule:nonzero;stroke:none;stroke-width:.213015" transform="matrix(1.3109 0 0 -1.3109 142.092 237.543)"/></g><g style="stroke-width:.213015"><path d="m0 0 1.105-6.876a42.71 42.71 0 0 0-.73-.113L-.645-.1 0 0" style="fill:#5d9db4;fill-opacity:1;fill-rule:nonzero;stroke:none;stroke-width:.213015" transform="matrix(1.3109 0 0 -1.3109 144.5 237.203)"/></g><g style="stroke-width:.213015"><path d="m0 0 1.346-6.834a44.362 44.362 0 0 0-.727-.139l-1.26 6.85c.215.04.428.08.641.123" style="fill:#5d9db4;fill-opacity:1;fill-rule:nonzero;stroke:none;stroke-width:.213015" transform="matrix(1.3109 0 0 -1.3109 146.894 236.78)"/></g><g style="stroke-width:.213015"><path d="m0 0 1.584-6.783c-.24-.056-.48-.111-.722-.163L-.636-.145C-.423-.098-.211-.05 0 0" style="fill:#5d9db4;fill-opacity:1;fill-rule:nonzero;stroke:none;stroke-width:.213015" transform="matrix(1.3109 0 0 -1.3109 149.272 236.274)"/></g><g style="stroke-width:.213015"><path d="m0 0 1.818-6.723a53.296 53.296 0 0 0-.714-.189L-.631-.166C-.42-.111-.21-.057 0 0" style="fill:#5d9db4;fill-opacity:1;fill-rule:nonzero;stroke:none;stroke-width:.213015" transform="matrix(1.3109 0 0 -1.3109 151.633 235.687)"/></g><g style="stroke-width:.213015"><path d="m0 0 2.053-6.655a38.195 38.195 0 0 0-.709-.214L-.625-.187c.209.06.418.124.625.187" style="fill:#5d9db4;fill-opacity:1;fill-rule:nonzero;stroke:none;stroke-width:.213015" transform="matrix(1.3109 0 0 -1.3109 153.97 235.016)"/></g><g style="stroke-width:.213015"><path d="m0 0 2.283-6.581c-.232-.08-.466-.159-.699-.237L-.617-.211c.207.069.412.14.617.211" style="fill:#5d9db4;fill-opacity:1;fill-rule:nonzero;stroke:none;stroke-width:.213015" transform="matrix(1.3109 0 0 -1.3109 156.282 234.263)"/></g><g style="stroke-width:.213015"><path d="m0 0 2.512-6.497a97.713 97.713 0 0 0-.692-.263L-.61-.232c.204.076.407.154.61.232" style="fill:#5d9db4;fill-opacity:1;fill-rule:nonzero;stroke:none;stroke-width:.213015" transform="matrix(1.3109 0 0 -1.3109 158.569 233.43)"/></g><g style="stroke-width:.213015"><path d="m0 0 2.736-6.405a40.65 40.65 0 0 0-.68-.286L-.602-.253C-.4-.17-.2-.086 0 0" style="fill:#5d9db4;fill-opacity:1;fill-rule:nonzero;stroke:none;stroke-width:.213015" transform="matrix(1.3109 0 0 -1.3109 160.823 232.52)"/></g><g style="stroke-width:.213015"><path d="m0 0 2.959-6.305a51.255 51.255 0 0 0-.672-.31L-.592-.273c.198.09.396.181.592.273" style="fill:#5d9db4;fill-opacity:1;fill-rule:nonzero;stroke:none;stroke-width:.213015" transform="matrix(1.3109 0 0 -1.3109 163.044 231.53)"/></g><g style="stroke-width:.213015"><path d="m0 0 3.176-6.199c-.219-.113-.439-.223-.659-.333l-3.1 6.237C-.388-.197-.193-.1 0 0" style="fill:#5d9db4;fill-opacity:1;fill-rule:nonzero;stroke:none;stroke-width:.213015" transform="matrix(1.3109 0 0 -1.3109 165.23 230.463)"/></g><g style="stroke-width:.213015"><path d="m0 0 3.392-6.084c-.215-.12-.432-.238-.649-.356L-.571-.314c.19.103.381.209.571.314" style="fill:#5d9db4;fill-opacity:1;fill-rule:nonzero;stroke:none;stroke-width:.213015" transform="matrix(1.3109 0 0 -1.3109 167.378 229.321)"/></g><g style="stroke-width:.213015"><path d="m0 0 3.602-5.962a40.908 40.908 0 0 0-.636-.378L-.561-.334c.188.11.374.222.561.334" style="fill:#5d9db4;fill-opacity:1;fill-rule:nonzero;stroke:none;stroke-width:.213015" transform="matrix(1.3109 0 0 -1.3109 169.484 228.105)"/></g><g style="stroke-width:.213015"><path d="m0 0 3.807-5.832a50.451 50.451 0 0 0-.621-.4L-.549-.353 0 0" style="fill:#5d9db4;fill-opacity:1;fill-rule:nonzero;stroke:none;stroke-width:.213015" transform="matrix(1.3109 0 0 -1.3109 171.546 226.817)"/></g><g style="stroke-width:.213015"><path d="m0 0 4.008-5.696a43.673 43.673 0 0 0-.608-.421L-.536-.372c.18.123.357.247.536.372" style="fill:#5d9db4;fill-opacity:1;fill-rule:nonzero;stroke:none;stroke-width:.213015" transform="matrix(1.3109 0 0 -1.3109 173.562 225.457)"/></g><g style="stroke-width:.213015"><path d="m0 0 4.205-5.553a53.554 53.554 0 0 0-.592-.442L-.522-.391c.175.129.349.26.522.391" style="fill:#5d9db4;fill-opacity:1;fill-rule:nonzero;stroke:none;stroke-width:.213015" transform="matrix(1.3109 0 0 -1.3109 175.529 224.027)"/></g><g style="stroke-width:.213015"><path d="m0 0 4.396-5.402a32.444 32.444 0 0 0-.577-.463L-.509-.409c.171.136.341.272.509.409" style="fill:#5d9db4;fill-opacity:1;fill-rule:nonzero;stroke:none;stroke-width:.213015" transform="matrix(1.3109 0 0 -1.3109 177.445 222.529)"/></g><g style="stroke-width:.213015"><path d="m0 0 4.582-5.245a88.462 88.462 0 0 0-.56-.484L-.493-.426 0 0" style="fill:#5d9db4;fill-opacity:1;fill-rule:nonzero;stroke:none;stroke-width:.213015" transform="matrix(1.3109 0 0 -1.3109 179.308 220.966)"/></g><g style="stroke-width:.213015"><path d="m0 0 4.762-5.083c-.18-.168-.361-.336-.543-.502L-.479-.443c.161.146.32.294.479.443" style="fill:#5d9db4;fill-opacity:1;fill-rule:nonzero;stroke:none;stroke-width:.213015" transform="matrix(1.3109 0 0 -1.3109 181.115 219.337)"/></g><g style="stroke-width:.213015"><path d="m0 0 4.937-4.913a42.983 42.983 0 0 0-.525-.521L-.463-.459c.156.152.31.306.463.459" style="fill:#5d9db4;fill-opacity:1;fill-rule:nonzero;stroke:none;stroke-width:.213015" transform="matrix(1.3109 0 0 -1.3109 182.864 217.649)"/></g><g style="stroke-width:.213015"><path d="m0 0 5.105-4.737a37.331 37.331 0 0 0-.506-.539l-5.046 4.8L0 0" style="fill:#5d9db4;fill-opacity:1;fill-rule:nonzero;stroke:none;stroke-width:.213015" transform="matrix(1.3109 0 0 -1.3109 184.554 215.899)"/></g><g style="stroke-width:.213015"><path d="m0 0 5.267-4.557a64.524 64.524 0 0 0-.487-.556L-.431-.491 0 0" style="fill:#5d9db4;fill-opacity:1;fill-rule:nonzero;stroke:none;stroke-width:.213015" transform="matrix(1.3109 0 0 -1.3109 186.181 214.091)"/></g><g style="stroke-width:.213015"><path d="m0 0 5.424-4.37a52.81 52.81 0 0 0-.468-.572L-.412-.505c.14.168.276.337.412.505" style="fill:#5d9db4;fill-opacity:1;fill-rule:nonzero;stroke:none;stroke-width:.213015" transform="matrix(1.3109 0 0 -1.3109 187.743 212.228)"/></g><g style="stroke-width:.213015"><path d="m0 0 5.572-4.179a60.864 60.864 0 0 0-.447-.589L-.395-.52c.133.172.264.346.395.52" style="fill:#5d9db4;fill-opacity:1;fill-rule:nonzero;stroke:none;stroke-width:.213015" transform="matrix(1.3109 0 0 -1.3109 189.24 210.31)"/></g><g style="stroke-width:.213015"><path d="m0 0 5.715-3.981a36.573 36.573 0 0 0-.427-.605L-.376-.533c.127.177.252.354.376.533" style="fill:#5d9db4;fill-opacity:1;fill-rule:nonzero;stroke:none;stroke-width:.213015" transform="matrix(1.3109 0 0 -1.3109 190.67 208.343)"/></g><g style="stroke-width:.213015"><path d="m0 0 5.851-3.779a41.127 41.127 0 0 0-.406-.619L-.357-.546c.121.182.239.363.357.546" style="fill:#5d9db4;fill-opacity:1;fill-rule:nonzero;stroke:none;stroke-width:.213015" transform="matrix(1.3109 0 0 -1.3109 192.029 206.327)"/></g><g style="stroke-width:.213015"><path d="m0 0 5.979-3.573a81.68 81.68 0 0 0-.383-.632L-.338-.558c.113.186.227.371.338.558" style="fill:#5d9db4;fill-opacity:1;fill-rule:nonzero;stroke:none;stroke-width:.213015" transform="matrix(1.3109 0 0 -1.3109 193.318 204.264)"/></g><g style="stroke-width:.213015"><path d="m0 0 6.101-3.362c-.12-.215-.24-.431-.362-.645L-.317-.568c.106.189.213.379.317.568" style="fill:#5d9db4;fill-opacity:1;fill-rule:nonzero;stroke:none;stroke-width:.213015" transform="matrix(1.3109 0 0 -1.3109 194.533 202.158)"/></g><g style="stroke-width:.213015"><path d="m0 0 6.214-3.147c-.111-.22-.225-.439-.339-.658L-.299-.58c.101.193.2.387.299.58" style="fill:#5d9db4;fill-opacity:1;fill-rule:nonzero;stroke:none;stroke-width:.213015" transform="matrix(1.3109 0 0 -1.3109 195.675 200.01)"/></g><g style="stroke-width:.213015"><path d="m0 0 6.319-2.93a67.006 67.006 0 0 0-.315-.668L-.278-.591 0 0" style="fill:#5d9db4;fill-opacity:1;fill-rule:nonzero;stroke:none;stroke-width:.213015" transform="matrix(1.3109 0 0 -1.3109 196.741 197.824)"/></g><g style="stroke-width:.213015"><path d="m0 0 6.418-2.706a66.225 66.225 0 0 0-.292-.68L-.257-.6 0 0" style="fill:#5d9db4;fill-opacity:1;fill-rule:nonzero;stroke:none;stroke-width:.213015" transform="matrix(1.3109 0 0 -1.3109 197.73 195.603)"/></g><g style="stroke-width:.213015"><path d="m0 0 6.509-2.481c-.088-.23-.177-.459-.268-.69L-.235-.608c.08.202.158.405.235.608" style="fill:#5d9db4;fill-opacity:1;fill-rule:nonzero;stroke:none;stroke-width:.213015" transform="matrix(1.3109 0 0 -1.3109 198.64 193.347)"/></g><g style="stroke-width:.213015"><path d="m0 0 6.591-2.252c-.079-.233-.16-.466-.243-.698L-.215-.616C-.142-.411-.07-.205 0 0" style="fill:#5d9db4;fill-opacity:1;fill-rule:nonzero;stroke:none;stroke-width:.213015" transform="matrix(1.3109 0 0 -1.3109 199.472 191.062)"/></g><g style="stroke-width:.213015"><path d="m0 0 6.667-2.021c-.072-.236-.146-.471-.22-.707L-.192-.624c.065.208.13.416.192.624" style="fill:#5d9db4;fill-opacity:1;fill-rule:nonzero;stroke:none;stroke-width:.213015" transform="matrix(1.3109 0 0 -1.3109 200.222 188.749)"/></g><g style="stroke-width:.213015"><path d="m0 0 6.731-1.787a47.105 47.105 0 0 0-.193-.713L-.171-.63 0 0" style="fill:#5d9db4;fill-opacity:1;fill-rule:nonzero;stroke:none;stroke-width:.213015" transform="matrix(1.3109 0 0 -1.3109 200.893 186.411)"/></g><g style="stroke-width:.213015"><path d="m0 0 6.79-1.551a39.3 39.3 0 0 0-.169-.72L-.148-.635c.05.211.1.424.148.635" style="fill:#5d9db4;fill-opacity:1;fill-rule:nonzero;stroke:none;stroke-width:.213015" transform="matrix(1.3109 0 0 -1.3109 201.48 184.052)"/></g><g style="stroke-width:.213015"><path d="m0 0 6.841-1.312a58.071 58.071 0 0 0-.145-.725L-.127-.64c.044.214.086.427.127.64" style="fill:#5d9db4;fill-opacity:1;fill-rule:nonzero;stroke:none;stroke-width:.213015" transform="matrix(1.3109 0 0 -1.3109 201.986 181.673)"/></g><g style="stroke-width:.213015"><path d="m0 0 6.883-1.074a61.587 61.587 0 0 0-.119-.73L-.104-.645c.036.215.071.43.104.645" style="fill:#5d9db4;fill-opacity:1;fill-rule:nonzero;stroke:none;stroke-width:.213015" transform="matrix(1.3109 0 0 -1.3109 202.407 179.276)"/></g><g style="stroke-width:.213015"><path d="m0 0 6.915-.833a47.403 47.403 0 0 0-.094-.733l-6.903.919c.028.215.056.431.082.647" style="fill:#5d9db4;fill-opacity:1;fill-rule:nonzero;stroke:none;stroke-width:.213015" transform="matrix(1.3109 0 0 -1.3109 202.747 176.868)"/></g><g style="stroke-width:.213015"><path d="m0 0 6.94-.591c-.021-.245-.044-.49-.067-.736L-.06-.649c.022.216.041.432.06.649" style="fill:#5d9db4;fill-opacity:1;fill-rule:nonzero;stroke:none;stroke-width:.213015" transform="matrix(1.3109 0 0 -1.3109 203 174.45)"/></g><g style="stroke-width:.213015"><path d="m0 0 6.956-.349c-.013-.245-.026-.491-.042-.737l-6.951.435c.014.217.025.434.037.651" style="fill:#5d9db4;fill-opacity:1;fill-rule:nonzero;stroke:none;stroke-width:.213015" transform="matrix(1.3109 0 0 -1.3109 203.17 172.024)"/></g><g style="stroke-width:.213015"><path d="m0 0 6.964-.105a45.662 45.662 0 0 0-.015-.74l-6.963.193c.006.217.011.434.014.652" style="fill:#5d9db4;fill-opacity:1;fill-rule:nonzero;stroke:none;stroke-width:.213015" transform="matrix(1.3109 0 0 -1.3109 203.253 169.593)"/></g><g style="stroke-width:.213015"><path d="m0 0 6.964.138c.005-.246.008-.493.01-.74L.009-.652 0 0" style="fill:#5d9db4;fill-opacity:1;fill-rule:nonzero;stroke:none;stroke-width:.213015" transform="matrix(1.3109 0 0 -1.3109 203.253 167.16)"/></g><g style="stroke-width:.213015"><path d="m0 0 6.955.381c.014-.246.025-.492.036-.738L.032-.652C.022-.434.013-.217 0 0" style="fill:#5d9db4;fill-opacity:1;fill-rule:nonzero;stroke:none;stroke-width:.213015" transform="matrix(1.3109 0 0 -1.3109 203.168 164.731)"/></g><g style="stroke-width:.213015"><path d="m0 0 6.937.624c.023-.246.043-.491.062-.737L.056-.649C.038-.433.021-.216 0 0" style="fill:#5d9db4;fill-opacity:1;fill-rule:nonzero;stroke:none;stroke-width:.213015" transform="matrix(1.3109 0 0 -1.3109 202.997 162.305)"/></g><g style="stroke-width:.213015"><path d="m0 0 6.911.865c.03-.244.06-.488.087-.734L.077-.647C.053-.432.026-.215 0 0" style="fill:#5d9db4;fill-opacity:1;fill-rule:nonzero;stroke:none;stroke-width:.213015" transform="matrix(1.3109 0 0 -1.3109 202.744 159.887)"/></g><g style="stroke-width:.213015"><path d="m0 0 6.877 1.105c.039-.243.076-.486.113-.73L.1-.645 0 0" style="fill:#5d9db4;fill-opacity:1;fill-rule:nonzero;stroke:none;stroke-width:.213015" transform="matrix(1.3109 0 0 -1.3109 202.405 157.478)"/></g><g style="stroke-width:.213015"><path d="m0 0 6.834 1.346c.048-.242.094-.485.138-.727L.122-.641 0 0" style="fill:#5d9db4;fill-opacity:1;fill-rule:nonzero;stroke:none;stroke-width:.213015" transform="matrix(1.3109 0 0 -1.3109 201.982 155.084)"/></g><g style="stroke-width:.213015"><path d="m0 0 6.782 1.583c.057-.239.111-.479.164-.721L.144-.636A59.25 59.25 0 0 1 0 0" style="fill:#5d9db4;fill-opacity:1;fill-rule:nonzero;stroke:none;stroke-width:.213015" transform="matrix(1.3109 0 0 -1.3109 201.477 152.705)"/></g><g style="stroke-width:.213015"><path d="m0 0 6.724 1.818c.063-.238.127-.476.187-.714L.166-.631C.112-.42.057-.21 0 0" style="fill:#5d9db4;fill-opacity:1;fill-rule:nonzero;stroke:none;stroke-width:.213015" transform="matrix(1.3109 0 0 -1.3109 200.888 150.344)"/></g><g style="stroke-width:.213015"><path d="m0 0 6.655 2.052c.074-.236.145-.472.214-.708L.188-.625C.127-.416.063-.208 0 0" style="fill:#5d9db4;fill-opacity:1;fill-rule:nonzero;stroke:none;stroke-width:.213015" transform="matrix(1.3109 0 0 -1.3109 200.217 148.007)"/></g><g style="stroke-width:.213015"><path d="m0 0 6.58 2.283.238-.699L.209-.617C.141-.41.07-.205 0 0" style="fill:#5d9db4;fill-opacity:1;fill-rule:nonzero;stroke:none;stroke-width:.213015" transform="matrix(1.3109 0 0 -1.3109 199.466 145.695)"/></g><g style="stroke-width:.213015"><path d="m0 0 6.496 2.511c.089-.23.176-.46.262-.692L.231-.61C.155-.406.078-.203 0 0" style="fill:#5d9db4;fill-opacity:1;fill-rule:nonzero;stroke:none;stroke-width:.213015" transform="matrix(1.3109 0 0 -1.3109 198.633 143.408)"/></g><g style="stroke-width:.213015"><path d="m0 0 6.404 2.736c.097-.226.193-.454.286-.681L.252-.602C.169-.4.085-.2 0 0" style="fill:#5d9db4;fill-opacity:1;fill-rule:nonzero;stroke:none;stroke-width:.213015" transform="matrix(1.3109 0 0 -1.3109 197.722 141.154)"/></g><g style="stroke-width:.213015"><path d="m0 0 6.306 2.959c.103-.223.207-.447.308-.672L.273-.592C.183-.394.092-.196 0 0" style="fill:#5d9db4;fill-opacity:1;fill-rule:nonzero;stroke:none;stroke-width:.213015" transform="matrix(1.3109 0 0 -1.3109 196.732 138.933)"/></g><g style="stroke-width:.213015"><path d="m0 0 6.198 3.176c.113-.219.224-.439.333-.66L.293-.583C.197-.388.099-.193 0 0" style="fill:#5d9db4;fill-opacity:1;fill-rule:nonzero;stroke:none;stroke-width:.213015" transform="matrix(1.3109 0 0 -1.3109 195.666 136.746)"/></g><g style="stroke-width:.213015"><path d="m0 0 6.084 3.392c.119-.215.238-.431.355-.648L.313-.571C.21-.38.105-.189 0 0" style="fill:#5d9db4;fill-opacity:1;fill-rule:nonzero;stroke:none;stroke-width:.213015" transform="matrix(1.3109 0 0 -1.3109 194.524 134.6)"/></g><g style="stroke-width:.213015"><path d="m0 0 5.962 3.602c.127-.211.254-.423.379-.636L.335-.561C.224-.373.112-.187 0 0" style="fill:#5d9db4;fill-opacity:1;fill-rule:nonzero;stroke:none;stroke-width:.213015" transform="matrix(1.3109 0 0 -1.3109 193.306 132.494)"/></g><g style="stroke-width:.213015"><path d="m0 0 5.833 3.807c.135-.206.269-.413.4-.621L.354-.549 0 0" style="fill:#5d9db4;fill-opacity:1;fill-rule:nonzero;stroke:none;stroke-width:.213015" transform="matrix(1.3109 0 0 -1.3109 192.017 130.431)"/></g><g style="stroke-width:.213015"><path d="m0 0 5.695 4.009c.143-.201.284-.404.422-.608L.372-.535C.248-.356.125-.177 0 0" style="fill:#5d9db4;fill-opacity:1;fill-rule:nonzero;stroke:none;stroke-width:.213015" transform="matrix(1.3109 0 0 -1.3109 190.658 128.416)"/></g><g style="stroke-width:.213015"><path d="m0 0 5.553 4.205c.148-.196.296-.393.442-.592L.391-.522C.261-.348.131-.173 0 0" style="fill:#5d9db4;fill-opacity:1;fill-rule:nonzero;stroke:none;stroke-width:.213015" transform="matrix(1.3109 0 0 -1.3109 189.228 126.449)"/></g><g style="stroke-width:.213015"><path d="m0 0 5.402 4.396c.155-.191.309-.383.463-.577L.408-.509C.272-.338.137-.169 0 0" style="fill:#5d9db4;fill-opacity:1;fill-rule:nonzero;stroke:none;stroke-width:.213015" transform="matrix(1.3109 0 0 -1.3109 187.731 124.532)"/></g><g style="stroke-width:.213015"><path d="m0 0 5.246 4.582c.162-.186.322-.372.483-.561L.426-.494C.285-.328.143-.164 0 0" style="fill:#5d9db4;fill-opacity:1;fill-rule:nonzero;stroke:none;stroke-width:.213015" transform="matrix(1.3109 0 0 -1.3109 186.167 122.67)"/></g><g style="stroke-width:.213015"><path d="m0 0 5.083 4.762c.169-.18.336-.361.503-.543L.443-.479C.297-.318.148-.159 0 0" style="fill:#5d9db4;fill-opacity:1;fill-rule:nonzero;stroke:none;stroke-width:.213015" transform="matrix(1.3109 0 0 -1.3109 184.539 120.862)"/></g><g style="stroke-width:.213015"><path d="m0 0 4.913 4.937c.174-.173.349-.349.521-.525L.459-.463C.307-.308.153-.153 0 0" style="fill:#5d9db4;fill-opacity:1;fill-rule:nonzero;stroke:none;stroke-width:.213015" transform="matrix(1.3109 0 0 -1.3109 182.85 119.113)"/></g><g style="stroke-width:.213015"><path d="m0 0 4.738 5.105c.18-.167.36-.335.539-.505L.476-.446C.317-.296.159-.147 0 0" style="fill:#5d9db4;fill-opacity:1;fill-rule:nonzero;stroke:none;stroke-width:.213015" transform="matrix(1.3109 0 0 -1.3109 181.1 117.425)"/></g><g style="stroke-width:.213015"><path d="m0 0 4.557 5.268c.186-.161.372-.324.556-.488L.49-.43C.328-.285.164-.142 0 0" style="fill:#5d9db4;fill-opacity:1;fill-rule:nonzero;stroke:none;stroke-width:.213015" transform="matrix(1.3109 0 0 -1.3109 179.292 115.797)"/></g><g style="stroke-width:.213015"><path d="m0 0 4.371 5.424c.191-.154.383-.311.573-.468L.506-.412C.338-.273.17-.136 0 0" style="fill:#5d9db4;fill-opacity:1;fill-rule:nonzero;stroke:none;stroke-width:.213015" transform="matrix(1.3109 0 0 -1.3109 177.428 114.234)"/></g><g style="stroke-width:.213015"><path d="m0 0 4.179 5.573c.197-.147.393-.297.589-.447L.521-.395C.347-.262.174-.13 0 0" style="fill:#5d9db4;fill-opacity:1;fill-rule:nonzero;stroke:none;stroke-width:.213015" transform="matrix(1.3109 0 0 -1.3109 175.512 112.738)"/></g><g style="stroke-width:.213015"><path d="m0 0 3.982 5.715c.202-.141.403-.282.604-.427L.533-.376C.356-.249.179-.124 0 0" style="fill:#5d9db4;fill-opacity:1;fill-rule:nonzero;stroke:none;stroke-width:.213015" transform="matrix(1.3109 0 0 -1.3109 173.544 111.308)"/></g><g style="stroke-width:.213015"><path d="m0 0 3.78 5.851c.206-.134.413-.269.618-.406L.546-.357C.364-.237.183-.118 0 0" style="fill:#5d9db4;fill-opacity:1;fill-rule:nonzero;stroke:none;stroke-width:.213015" transform="matrix(1.3109 0 0 -1.3109 171.528 109.948)"/></g><g style="stroke-width:.213015"><path d="m0 0 3.573 5.979c.211-.127.422-.254.632-.384L.558-.338C.372-.225.187-.112 0 0" style="fill:#5d9db4;fill-opacity:1;fill-rule:nonzero;stroke:none;stroke-width:.213015" transform="matrix(1.3109 0 0 -1.3109 169.466 108.66)"/></g><g style="stroke-width:.213015"><path d="m0 0 3.363 6.101.646-.362L.57-.318A39.51 39.51 0 0 1 0 0" style="fill:#5d9db4;fill-opacity:1;fill-rule:nonzero;stroke:none;stroke-width:.213015" transform="matrix(1.3109 0 0 -1.3109 167.359 107.444)"/></g><g style="stroke-width:.213015"><path d="m0 0 3.147 6.213c.22-.11.439-.224.658-.338L.58-.299C.388-.198.194-.099 0 0" style="fill:#5d9db4;fill-opacity:1;fill-rule:nonzero;stroke:none;stroke-width:.213015" transform="matrix(1.3109 0 0 -1.3109 165.212 106.302)"/></g><g style="stroke-width:.213015"><path d="m0 0 2.929 6.319c.222-.103.446-.208.669-.314L.59-.277 0 0" style="fill:#5d9db4;fill-opacity:1;fill-rule:nonzero;stroke:none;stroke-width:.213015" transform="matrix(1.3109 0 0 -1.3109 163.026 105.237)"/></g><g style="stroke-width:.213015"><path d="m0 0 2.706 6.418c.228-.096.454-.193.68-.292L.6-.258C.399-.17.2-.085 0 0" style="fill:#5d9db4;fill-opacity:1;fill-rule:nonzero;stroke:none;stroke-width:.213015" transform="matrix(1.3109 0 0 -1.3109 160.804 104.248)"/></g><g style="stroke-width:.213015"><path d="m0 0 2.481 6.509c.23-.088.46-.177.689-.268L.609-.235C.406-.156.203-.077 0 0" style="fill:#5d9db4;fill-opacity:1;fill-rule:nonzero;stroke:none;stroke-width:.213015" transform="matrix(1.3109 0 0 -1.3109 158.548 103.337)"/></g><g style="stroke-width:.213015"><path d="m0 0 2.253 6.592a64.2 64.2 0 0 0 .697-.244L.616-.214C.411-.141.206-.07 0 0" style="fill:#5d9db4;fill-opacity:1;fill-rule:nonzero;stroke:none;stroke-width:.213015" transform="matrix(1.3109 0 0 -1.3109 156.263 102.507)"/></g><g style="stroke-width:.213015"><path d="m0 0 2.021 6.666c.236-.071.471-.145.707-.219L.623-.192C.416-.127.208-.062 0 0" style="fill:#5d9db4;fill-opacity:1;fill-rule:nonzero;stroke:none;stroke-width:.213015" transform="matrix(1.3109 0 0 -1.3109 153.95 101.755)"/></g><g style="stroke-width:.213015"><path d="m0 0 1.787 6.731c.238-.062.476-.127.713-.193L.63-.172C.42-.113.21-.056 0 0" style="fill:#5d9db4;fill-opacity:1;fill-rule:nonzero;stroke:none;stroke-width:.213015" transform="matrix(1.3109 0 0 -1.3109 151.612 101.084)"/></g><g style="stroke-width:.213015"><path d="m0 0 1.55 6.79c.24-.055.48-.11.721-.169L.636-.148 0 0" style="fill:#5d9db4;fill-opacity:1;fill-rule:nonzero;stroke:none;stroke-width:.213015" transform="matrix(1.3109 0 0 -1.3109 149.253 100.497)"/></g><g style="stroke-width:.213015"><path d="m0 0 1.312 6.84c.242-.046.484-.094.726-.144L.64-.127C.426-.083.213-.041 0 0" style="fill:#5d9db4;fill-opacity:1;fill-rule:nonzero;stroke:none;stroke-width:.213015" transform="matrix(1.3109 0 0 -1.3109 146.874 99.991)"/></g><g style="stroke-width:.213015"><path d="m0 0 1.072 6.883c.244-.038.488-.078.731-.119L.644-.104C.429-.068.215-.033 0 0" style="fill:#5d9db4;fill-opacity:1;fill-rule:nonzero;stroke:none;stroke-width:.213015" transform="matrix(1.3109 0 0 -1.3109 144.48 99.57)"/></g><g style="stroke-width:.213015"><path d="m0 0 .833 6.916c.244-.029.489-.061.733-.094L.647-.082C.432-.053.216-.025 0 0" style="fill:#5d9db4;fill-opacity:1;fill-rule:nonzero;stroke:none;stroke-width:.213015" transform="matrix(1.3109 0 0 -1.3109 142.07 99.232)"/></g><g style="stroke-width:.213015"><path d="m0 0 .591 6.939c.245-.02.49-.043.736-.067L.649-.06C.433-.038.217-.019 0 0" style="fill:#5d9db4;fill-opacity:1;fill-rule:nonzero;stroke:none;stroke-width:.213015" transform="matrix(1.3109 0 0 -1.3109 139.651 98.977)"/></g><g style="stroke-width:.213015"><path d="m0 0 .348 6.956c.246-.012.492-.025.738-.041L.651-.036 0 0" style="fill:#5d9db4;fill-opacity:1;fill-rule:nonzero;stroke:none;stroke-width:.213015" transform="matrix(1.3109 0 0 -1.3109 137.226 98.808)"/></g><g style="stroke-width:.213015"><path d="m0 0 .104 6.964c.247-.003.494-.009.74-.016L.651-.015C.434-.008.217-.003 0 0" style="fill:#5d9db4;fill-opacity:1;fill-rule:nonzero;stroke:none;stroke-width:.213015" transform="matrix(1.3109 0 0 -1.3109 134.796 98.724)"/></g><g style="stroke-width:.213015"><path d="M0 0c-34.623 0-62.79-28.17-62.79-62.796 0-34.625 28.167-62.795 62.79-62.795 34.624 0 62.793 28.17 62.793 62.795C62.793-28.17 34.624 0 0 0m0-126.579c-35.168 0-63.778 28.613-63.778 63.783C-63.778-27.625-35.168.987 0 .987c35.169 0 63.781-28.612 63.781-63.783 0-35.17-28.612-63.783-63.781-63.783" style="fill:#5d9db4;fill-opacity:1;fill-rule:nonzero;stroke:none;stroke-width:.213015" transform="matrix(1.3109 0 0 -1.3109 133.733 86.256)"/></g><g style="stroke-width:.213015"><path d="m0 0-.088 1.953-.368-.02.073-2.198C-.257-.174-.126-.09 0 0" style="fill:#5d9db4;fill-opacity:1;fill-rule:evenodd;stroke:none;stroke-width:.213015" transform="matrix(1.3109 0 0 -1.3109 132.009 127.414)"/></g><g style="stroke-width:.213015"><path d="m0 0-.59 3.905-.362-.058.579-4.162c.125.104.246.211.373.315" style="fill:#5d9db4;fill-opacity:1;fill-rule:evenodd;stroke:none;stroke-width:.213015" transform="matrix(1.3109 0 0 -1.3109 128.047 130.423)"/></g><g style="stroke-width:.213015"><path d="m0 0 .007.112L-.36.13l-.016-.205A4.9 4.9 0 0 0 0 0" style="fill:#5d9db4;fill-opacity:1;fill-rule:evenodd;stroke:none;stroke-width:.213015" transform="matrix(1.3109 0 0 -1.3109 136.525 125.034)"/></g><g style="stroke-width:.213015"><path d="m0 0 .746 2.705-.356.093-.7-2.429Z" style="fill:#5d9db4;fill-opacity:1;fill-rule:evenodd;stroke:none;stroke-width:.213015" transform="matrix(1.3109 0 0 -1.3109 144.7 129.95)"/></g><g style="stroke-width:.213015"><path d="m0 0 1.732 4.415-.343.131L-.307.367Z" style="fill:#5d9db4;fill-opacity:1;fill-rule:evenodd;stroke:none;stroke-width:.213015" transform="matrix(1.3109 0 0 -1.3109 147.81 133.659)"/></g><g style="stroke-width:.213015"><path d="m0 0 .077.464-.363.056-.051-.291C-.22.162-.112.076 0 0" style="fill:#5d9db4;fill-opacity:1;fill-rule:evenodd;stroke:none;stroke-width:.213015" transform="matrix(1.3109 0 0 -1.3109 141.044 126.013)"/></g><g style="stroke-width:.213015"><path d="m0 0-6.349 7.958-.285-.232L-.288-.421C-.191-.28-.099-.139 0 0" style="fill:#5d9db4;fill-opacity:1;fill-rule:evenodd;stroke:none;stroke-width:.213015" transform="matrix(1.3109 0 0 -1.3109 114.561 144.918)"/></g><g style="stroke-width:.213015"><path d="m0 0 2.951 5.688-.329.166L-.233.503C-.141.341-.069.173 0 0" style="fill:#5d9db4;fill-opacity:1;fill-rule:evenodd;stroke:none;stroke-width:.213015" transform="matrix(1.3109 0 0 -1.3109 150.44 137.247)"/></g><g style="stroke-width:.213015"><path d="m0 0-5.04 7.889-.309-.202L-.308-.406c.103.135.204.271.308.406" style="fill:#5d9db4;fill-opacity:1;fill-rule:evenodd;stroke:none;stroke-width:.213015" transform="matrix(1.3109 0 0 -1.3109 116.621 142.126)"/></g><g style="stroke-width:.213015"><path d="m0 0-7.596 7.709-.258-.262L-.271-.431 0 0" style="fill:#5d9db4;fill-opacity:1;fill-rule:evenodd;stroke:none;stroke-width:.213015" transform="matrix(1.3109 0 0 -1.3109 112.724 147.67)"/></g><g style="stroke-width:.213015"><path d="m0 0-1.429 5.492-.355-.096L-.363-.337 0 0" style="fill:#5d9db4;fill-opacity:1;fill-rule:evenodd;stroke:none;stroke-width:.213015" transform="matrix(1.3109 0 0 -1.3109 124.6 133.436)"/></g><g style="stroke-width:.213015"><path d="m0 0-2.507 6.678-.343-.134 2.5-6.901c.115.121.235.237.35.357" style="fill:#5d9db4;fill-opacity:1;fill-rule:evenodd;stroke:none;stroke-width:.213015" transform="matrix(1.3109 0 0 -1.3109 121.59 136.39)"/></g><g style="stroke-width:.213015"><path d="m0 0-3.738 7.47-.326-.169L-.332-.382C-.224-.253-.11-.128 0 0" style="fill:#5d9db4;fill-opacity:1;fill-rule:evenodd;stroke:none;stroke-width:.213015" transform="matrix(1.3109 0 0 -1.3109 118.95 139.286)"/></g><g style="stroke-width:.213015"><path d="m0 0 10.278 2.674-.096.354L-.271.438C-.182.292-.088.147 0 0" style="fill:#5d9db4;fill-opacity:1;fill-rule:evenodd;stroke:none;stroke-width:.213015" transform="matrix(1.3109 0 0 -1.3109 163.326 161.49)"/></g><g style="stroke-width:.213015"><path d="M0 0c-.002.002-.002.005-.003.007L-.012.006Z" style="fill:#5d9db4;fill-opacity:1;fill-rule:evenodd;stroke:none;stroke-width:.213015" transform="matrix(1.3109 0 0 -1.3109 103.641 173.72)"/></g><g style="stroke-width:.213015"><path d="m0 0-8.728 7.175-.23-.287L-.255-.437C-.173-.29-.084-.146 0 0" style="fill:#5d9db4;fill-opacity:1;fill-rule:evenodd;stroke:none;stroke-width:.213015" transform="matrix(1.3109 0 0 -1.3109 111.078 150.397)"/></g><g style="stroke-width:.213015"><path d="m0 0 9.706 1.464-.06.363L-.252.451C-.168.301-.081.151 0 0" style="fill:#5d9db4;fill-opacity:1;fill-rule:evenodd;stroke:none;stroke-width:.213015" transform="matrix(1.3109 0 0 -1.3109 165.008 164.452)"/></g><g style="stroke-width:.213015"><path d="m0 0 6.52 9.88-.311.2L-.447.241C-.294.173-.146.088 0 0" style="fill:#5d9db4;fill-opacity:1;fill-rule:evenodd;stroke:none;stroke-width:.213015" transform="matrix(1.3109 0 0 -1.3109 149.764 145.092)"/></g><g style="stroke-width:.213015"><path d="m0 0 .168-.087.165.328-.392.209C-.037.301-.02.15 0 0" style="fill:#5d9db4;fill-opacity:1;fill-rule:evenodd;stroke:none;stroke-width:.213015" transform="matrix(1.3109 0 0 -1.3109 173.027 189.453)"/></g><g style="stroke-width:.213015"><path d="m0 0 8.807.396-.022.369L-.229.462C-.154.308-.073.155 0 0" style="fill:#5d9db4;fill-opacity:1;fill-rule:evenodd;stroke:none;stroke-width:.213015" transform="matrix(1.3109 0 0 -1.3109 166.64 167.672)"/></g><g style="stroke-width:.213015"><path d="m0 0 1.959.486.162.447L-.097.355Z" style="fill:#5d9db4;fill-opacity:1;fill-rule:evenodd;stroke:none;stroke-width:.213015" transform="matrix(1.3109 0 0 -1.3109 91.103 180.774)"/></g><g style="stroke-width:.213015"><path d="m0 0 8.678 8.552-.261.259L-.345.375C-.229.251-.115.124 0 0" style="fill:#5d9db4;fill-opacity:1;fill-rule:evenodd;stroke:none;stroke-width:.213015" transform="matrix(1.3109 0 0 -1.3109 154.095 149.236)"/></g><g style="stroke-width:.213015"><path d="m0 0 7.649 9.305-.286.23L-.362.357C-.24.239-.119.119 0 0" style="fill:#5d9db4;fill-opacity:1;fill-rule:evenodd;stroke:none;stroke-width:.213015" transform="matrix(1.3109 0 0 -1.3109 152.017 147.093)"/></g><g style="stroke-width:.213015"><path d="m0 0 10.516 3.964-.133.343L-.292.424C-.195.283-.095.144 0 0" style="fill:#5d9db4;fill-opacity:1;fill-rule:evenodd;stroke:none;stroke-width:.213015" transform="matrix(1.3109 0 0 -1.3109 161.577 158.712)"/></g><g style="stroke-width:.213015"><path d="m0 0 9.516 7.591-.234.284L-.327.391C-.215.264-.11.13 0 0" style="fill:#5d9db4;fill-opacity:1;fill-rule:evenodd;stroke:none;stroke-width:.213015" transform="matrix(1.3109 0 0 -1.3109 156.078 151.448)"/></g><g style="stroke-width:.213015"><path d="m0 0 10.463 5.235-.169.327L-.311.408C-.209.271-.101.138 0 0" style="fill:#5d9db4;fill-opacity:1;fill-rule:evenodd;stroke:none;stroke-width:.213015" transform="matrix(1.3109 0 0 -1.3109 159.826 156.17)"/></g><g style="stroke-width:.213015"><path d="m0 0 10.12 6.467-.201.307L-.317.399C-.21.268-.104.133 0 0" style="fill:#5d9db4;fill-opacity:1;fill-rule:evenodd;stroke:none;stroke-width:.213015" transform="matrix(1.3109 0 0 -1.3109 157.984 153.75)"/></g><g style="stroke-width:.213015"><path d="m0 0 4.303-1.187.093.356L-.133.475 0 0" style="fill:#5d9db4;fill-opacity:1;fill-rule:evenodd;stroke:none;stroke-width:.213015" transform="matrix(1.3109 0 0 -1.3109 170.992 179.381)"/></g><g style="stroke-width:.213015"><path d="m0 0 .405-8.985.367.021-.3 9.025C.313.041.157.019 0 0" style="fill:#5d9db4;fill-opacity:1;fill-rule:evenodd;stroke:none;stroke-width:.213015" transform="matrix(1.3109 0 0 -1.3109 135.353 201.663)"/></g><g style="stroke-width:.213015"><path d="m0 0 1.357-9.003.364.06L.467.078A41.332 41.332 0 0 0 0 0" style="fill:#5d9db4;fill-opacity:1;fill-rule:evenodd;stroke:none;stroke-width:.213015" transform="matrix(1.3109 0 0 -1.3109 138.723 201.188)"/></g><g style="stroke-width:.213015"><path d="m0 0 2.28-8.768.355.098L.464.095C.309.061.154.033 0 0" style="fill:#5d9db4;fill-opacity:1;fill-rule:evenodd;stroke:none;stroke-width:.213015" transform="matrix(1.3109 0 0 -1.3109 142.06 200.566)"/></g><g style="stroke-width:.213015"><path d="m0 0 3.112-8.288.343.133-3 8.28C.303.085.152.04 0 0" style="fill:#5d9db4;fill-opacity:1;fill-rule:evenodd;stroke:none;stroke-width:.213015" transform="matrix(1.3109 0 0 -1.3109 145.394 199.791)"/></g><g style="stroke-width:.213015"><path d="m0 0-1.362-8.208.363-.056L.473.009 0 0" style="fill:#5d9db4;fill-opacity:1;fill-rule:evenodd;stroke:none;stroke-width:.213015" transform="matrix(1.3109 0 0 -1.3109 128.417 202.129)"/></g><g style="stroke-width:.213015"><path d="m0 0-.521-8.718.368-.017L.473.033 0 0" style="fill:#5d9db4;fill-opacity:1;fill-rule:evenodd;stroke:none;stroke-width:.213015" transform="matrix(1.3109 0 0 -1.3109 131.926 201.98)"/></g><g style="stroke-width:.213015"><path d="m0 0-2.062-7.474.356-.093L.472-.014 0 0" style="fill:#5d9db4;fill-opacity:1;fill-rule:evenodd;stroke:none;stroke-width:.213015" transform="matrix(1.3109 0 0 -1.3109 124.801 202.093)"/></g><g style="stroke-width:.213015"><path d="m0 0 6.079-1.009.056.364L-.156.475C-.102.317-.054.157 0 0" style="fill:#5d9db4;fill-opacity:1;fill-rule:evenodd;stroke:none;stroke-width:.213015" transform="matrix(1.3109 0 0 -1.3109 169.66 175.083)"/></g><g style="stroke-width:.213015"><path d="m0 0 2.291-.899.13.344L-.107.471C-.074.313-.033.158 0 0" style="fill:#5d9db4;fill-opacity:1;fill-rule:evenodd;stroke:none;stroke-width:.213015" transform="matrix(1.3109 0 0 -1.3109 172.162 184.162)"/></g><g style="stroke-width:.213015"><path d="m0 0 7.584-.453.018.367-7.807.558C-.138.313-.065.158 0 0" style="fill:#5d9db4;fill-opacity:1;fill-rule:evenodd;stroke:none;stroke-width:.213015" transform="matrix(1.3109 0 0 -1.3109 168.207 171.199)"/></g><g style="stroke-width:.213015"><path d="m0 0 3.82-7.637.327.168L.414.215A4.15 4.15 0 0 0 0 0" style="fill:#5d9db4;fill-opacity:1;fill-rule:evenodd;stroke:none;stroke-width:.213015" transform="matrix(1.3109 0 0 -1.3109 148.719 198.79)"/></g><g style="stroke-width:.213015"><path d="m0 0 1.654-2.59.308.202L.502-.044A4 4 0 0 0 0 0" style="fill:#5d9db4;fill-opacity:1;fill-rule:evenodd;stroke:none;stroke-width:.213015" transform="matrix(1.3109 0 0 -1.3109 155.595 203.115)"/></g><g style="stroke-width:.213015"><path d="m0 0 .781-.979.285.233-.64.821z" style="fill:#5d9db4;fill-opacity:1;fill-rule:evenodd;stroke:none;stroke-width:.213015" transform="matrix(1.3109 0 0 -1.3109 160.515 202.526)"/></g><g style="stroke-width:.213015"><path d="m0 0-10.467 5.43-.165-.329L-.218-.456c.071.152.147.303.218.456" style="fill:#5d9db4;fill-opacity:1;fill-rule:evenodd;stroke:none;stroke-width:.213015" transform="matrix(1.3109 0 0 -1.3109 108.251 155.845)"/></g><g style="stroke-width:.213015"><path d="m0 0-11.265 3.107-.093-.355L-.173-.474c.057.159.114.317.173.474" style="fill:#5d9db4;fill-opacity:1;fill-rule:evenodd;stroke:none;stroke-width:.213015" transform="matrix(1.3109 0 0 -1.3109 105.912 161.43)"/></g><g style="stroke-width:.213015"><path d="m0 0-11.253 1.867-.056-.364L-.15-.481c.05.16.098.321.15.481" style="fill:#5d9db4;fill-opacity:1;fill-rule:evenodd;stroke:none;stroke-width:.213015" transform="matrix(1.3109 0 0 -1.3109 104.898 164.337)"/></g><g style="stroke-width:.213015"><path d="m0 0-10.951.654-.018-.367L-.128-.487c.044.162.083.326.128.487" style="fill:#5d9db4;fill-opacity:1;fill-rule:evenodd;stroke:none;stroke-width:.213015" transform="matrix(1.3109 0 0 -1.3109 103.984 167.36)"/></g><g style="stroke-width:.213015"><path d="m0 0-9.698 6.4-.199-.309L-.238-.445c.076.15.161.296.238.445" style="fill:#5d9db4;fill-opacity:1;fill-rule:evenodd;stroke:none;stroke-width:.213015" transform="matrix(1.3109 0 0 -1.3109 109.595 153.116)"/></g><g style="stroke-width:.213015"><path d="m0 0-10.378-.467.022-.367L-.061-.49c.007.163.034.326.061.49" style="fill:#5d9db4;fill-opacity:1;fill-rule:evenodd;stroke:none;stroke-width:.213015" transform="matrix(1.3109 0 0 -1.3109 103.198 170.53)"/></g><g style="stroke-width:.213015"><path d="m0 0-11.045 4.321-.131-.343L-.194-.467c.062.156.129.312.194.467" style="fill:#5d9db4;fill-opacity:1;fill-rule:evenodd;stroke:none;stroke-width:.213015" transform="matrix(1.3109 0 0 -1.3109 107.017 158.631)"/></g><g style="stroke-width:.213015"><path d="m0 0-.117-.094.232-.285.283.221C.266-.104.133-.054 0 0" style="fill:#5d9db4;fill-opacity:1;fill-rule:evenodd;stroke:none;stroke-width:.213015" transform="matrix(1.3109 0 0 -1.3109 99.38 196.674)"/></g><g style="stroke-width:.213015"><path d="m0 0-2.709-4.105.31-.2L.45-.093C.3-.064.15-.029 0 0" style="fill:#5d9db4;fill-opacity:1;fill-rule:evenodd;stroke:none;stroke-width:.213015" transform="matrix(1.3109 0 0 -1.3109 113.019 200.773)"/></g><g style="stroke-width:.213015"><path d="m0 0-4.372-.659.059-.363 4.051.563C-.181-.301-.1-.146 0 0" style="fill:#5d9db4;fill-opacity:1;fill-rule:evenodd;stroke:none;stroke-width:.213015" transform="matrix(1.3109 0 0 -1.3109 95.777 174.897)"/></g><g style="stroke-width:.213015"><path d="m0 0-2.266-2.755.287-.23L.436-.115C.29-.079.145-.037 0 0" style="fill:#5d9db4;fill-opacity:1;fill-rule:evenodd;stroke:none;stroke-width:.213015" transform="matrix(1.3109 0 0 -1.3109 108.703 199.788)"/></g><g style="stroke-width:.213015"><path d="m0 0-2.789-5.377.328-.165L.461-.067C.308-.048.153-.021 0 0" style="fill:#5d9db4;fill-opacity:1;fill-rule:evenodd;stroke:none;stroke-width:.213015" transform="matrix(1.3109 0 0 -1.3109 117.125 201.457)"/></g><g style="stroke-width:.213015"><path d="m0 0-2.556-6.514.344-.131L.468-.041C.312-.029.156-.012 0 0" style="fill:#5d9db4;fill-opacity:1;fill-rule:evenodd;stroke:none;stroke-width:.213015" transform="matrix(1.3109 0 0 -1.3109 121.045 201.885)"/></g><g style="stroke-width:.213015"><path d="m0 0-1.414-1.395.261-.258L.419-.139C.279-.094.14-.047 0 0" style="fill:#5d9db4;fill-opacity:1;fill-rule:evenodd;stroke:none;stroke-width:.213015" transform="matrix(1.3109 0 0 -1.3109 104.161 198.44)"/></g><g style="stroke-width:.213015"><path d="M305.469 609.716c-11.764-7.745-19.772-19.619-22.891-32.802-.281-1.192.313-2.433 1.431-2.929a37.458 37.458 0 0 1 9.622-2.8c1.258-.19 2.424.664 2.7 1.907 2.313 10.435 8.773 19.81 18.352 25.576a2.563 2.563 0 0 1 .644 3.845l-5.523 6.581a3.27 3.27 0 0 1-2.513 1.169 3.31 3.31 0 0 1-1.822-.547" style="fill:url(#a);stroke:none;stroke-width:.213015" transform="matrix(1.3109 0 0 -1.3109 -265.269 926.893)"/></g><g style="stroke-width:.213015"><path d="M0 0c-10.193-3.214-21.544-2.306-31.327 3.107a2.562 2.562 0 0 1-3.651-1.364l-2.939-8.073a3.294 3.294 0 0 1 1.629-4.066c12.59-6.316 26.879-7.314 39.855-3.422 1.173.351 1.951 1.486 1.821 2.703a37.535 37.535 0 0 1-2.387 9.73C2.536-.2 1.214.382 0 0" style="fill:#5d9db4;fill-opacity:1;fill-rule:nonzero;stroke:none;stroke-width:.213015" transform="matrix(1.3109 0 0 -1.3109 142.847 179.042)"/></g><g style="stroke-width:.213015"><path d="M0 0a37.505 37.505 0 0 1-7.235-6.933c-.793-.995-.636-2.431.301-3.291C.947-17.445 5.836-27.728 6.039-38.907a2.565 2.565 0 0 1 3.008-2.481l8.461 1.492a3.294 3.294 0 0 1 2.706 3.444C19.39-22.392 13.109-9.517 3.251-.225 2.36.615.988.722 0 0" style="fill:#656263;fill-opacity:1;fill-rule:nonzero;stroke:none;stroke-width:.213015" transform="matrix(1.3109 0 0 -1.3109 145.068 146.907)"/></g><g style="stroke-width:.213015"><path d="m0 0-.985.908-1.163-1.262c.202-.125.393-.272.571-.435.089-.083.173-.168.246-.253.061-.072.12-.143.175-.213zm-4.971-1.991c-.368-.4-.55-.803-.544-1.199.007-.395.226-.793.65-1.184.443-.408.864-.6 1.252-.569.389.03.773.249 1.141.647.357.387.54.785.545 1.183.005.395-.218.801-.66 1.21-.424.39-.841.573-1.241.542-.401-.031-.785-.243-1.143-.63M3.254-3 .945-.871-.572-2.517a2.602 2.602 0 0 0-.136-1.254c-.153-.44-.45-.901-.884-1.371-.38-.412-.767-.716-1.151-.902a2.766 2.766 0 0 0-1.136-.296c-.369-.01-.73.064-1.074.216-.343.15-.665.364-.958.634a3.367 3.367 0 0 0-.692.886 2.52 2.52 0 0 0-.292 1.044 2.75 2.75 0 0 0 .203 1.157c.155.398.426.808.806 1.22.404.438.81.756 1.209.948a2.81 2.81 0 0 0 1.158.292l1.589 1.722-1.099 1.014 1.027 1.115L2.82-.537c.108-.1.222-.213.34-.339.117-.127.236-.256.353-.387.118-.133.229-.264.333-.394.101-.131.192-.249.269-.355l.022-.03zm-.813-4.249L6.247-3.12l.917-.844-4.295-4.659c-.198-.216-.408-.338-.623-.366-.218-.029-.448.068-.684.285l-2.57 2.37L.021-5.219 2.23-7.257s.106-.105.211.008" style="fill:#5d9db4;fill-opacity:1;fill-rule:nonzero;stroke:none;stroke-width:.213015" transform="matrix(1.3109 0 0 -1.3109 92.662 126.063)"/></g><g style="stroke-width:.213015"><path d="M0 0c-.481-.211-.802-.502-.952-.861-.15-.36-.108-.809.124-1.337.242-.552.547-.893.907-1.015.361-.122.789-.076 1.271.135.482.212.81.498.972.849.163.352.121.809-.12 1.36-.231.527-.538.861-.911.991C.916.252.482.211 0 0m1.83-4.172C1.31-4.4.831-4.529.407-4.555a2.61 2.61 0 0 0-1.146.17c-.336.138-.63.346-.872.619a3.613 3.613 0 0 0-.607.958c-.155.357-.253.72-.289 1.083-.037.364.01.721.136 1.061.126.341.346.663.651.959.305.294.725.559 1.245.787.521.229 1.001.358 1.429.385.429.027.818-.028 1.157-.164.341-.135.636-.344.88-.616a3.6 3.6 0 0 0 .6-.947c.16-.363.26-.731.296-1.094a2.343 2.343 0 0 0-.143-1.065 2.641 2.641 0 0 0-.664-.963c-.308-.296-.728-.561-1.25-.79m4.288 1.263L3.398 3.29l1.402.614 1.087-2.476 1.709.749.501-1.142L6.388.286l1.131-2.581ZM4.151-8.041c.049-.11.12-.139.231-.09l3.377 1.482-.876 1.996-3.536-1.552Zm.014-1.518c-.269-.118-.504-.143-.701-.077-.199.067-.366.253-.498.555L1.474-5.68l6.315 2.771 1.86-4.243z" style="fill:#5d9db4;fill-opacity:1;fill-rule:nonzero;stroke:none;stroke-width:.213015" transform="matrix(1.3109 0 0 -1.3109 106.559 113.037)"/></g><g style="stroke-width:.213015"><path d="M0 0v7.105h-1.237V2.633c0-.359-.015-.742-.045-1.141A9.1 9.1 0 0 0-1.418.428l-.006-.035h-1.239v4.391a4.279 4.279 0 0 0-.864-.334 4.493 4.493 0 0 0-1.19-.149h-2.689c-.346 0-.597.078-.746.232-.15.154-.225.419-.225.789v6.067h4.464v-1.285h-2.999V5.809c0-.143.025-.18.036-.19.012-.011.055-.033.203-.033h1.982c.406 0 .789.037 1.136.11.334.072.635.167.892.285v5.961h1.426V8.391H0v3.683h1.452V2.438c0-.199-.004-.405-.013-.621a26.62 26.62 0 0 0-.032-.637 10.571 10.571 0 0 0-.052-.614 4.698 4.698 0 0 0-.084-.532L1.264 0Z" style="fill:#5d9db4;fill-opacity:1;fill-rule:nonzero;stroke:none;stroke-width:.213015" transform="matrix(1.3109 0 0 -1.3109 139.107 120.299)"/></g><g style="stroke-width:.213015"><path d="M0 0c-.31.147-.62.33-.918.544a7.08 7.08 0 0 0-.754.639l.673.961s.169-.159.781-.621c.314-.237.67-.443.999-.6L1.913.385 1.411-.671Zm-.992-1.817c-.367.173-.694.216-.968.125-.274-.092-.493-.305-.649-.633-.352-.739-.156-1.274.6-1.633.747-.355 1.281-.169 1.633.571.156.328.189.63.098.896-.091.264-.331.492-.714.674m-1.509-3.145c-.812.387-1.333.863-1.546 1.418-.214.556-.177 1.145.111 1.75.249.523.632.886 1.139 1.076l-1.267.604.524 1.101 6.286-2.988-.524-1.102-1.245.592c.078-.24.113-.484.107-.73a2.103 2.103 0 0 0-.21-.84C.59-4.679.158-5.077-.41-5.266c-.567-.188-1.271-.086-2.091.304m3.62-1.906L4.173-.442l1.37-.652-1.315-2.765 1.697-.807-.552-1.161-1.697.806-1.188-2.498Zm-2.154-4.53L.323-8.541l-5.044 2.397.524 1.103L2.217-8.09l-1.045-2.2a10.164 10.164 0 0 0-.998-1.645l-.022-.028z" style="fill:#5d9db4;fill-opacity:1;fill-rule:nonzero;stroke:none;stroke-width:.213015" transform="matrix(1.3109 0 0 -1.3109 158.408 111.139)"/></g><g style="stroke-width:.213015"><path d="M0 0s.609.35 1.445.924c.473.324.926.678 1.35 1.043l1.474 1.272L.106 8.062l.973.839 5.153-5.97-1.767-1.526c-.44-.38-1.311-1.081-1.849-1.45a12.077 12.077 0 0 0-1.738-.973Zm-7.027 3.865.972.84 1.636-1.895 3.251 2.805.931-1.078-3.251-2.806.756-.875L.527 3.671l.937-1.085-3.261-2.815 2.729-3.16-.973-.84z" style="fill:#5d9db4;fill-opacity:1;fill-rule:nonzero;stroke:none;stroke-width:.213015" transform="matrix(1.3109 0 0 -1.3109 177.935 135.07)"/></g></g></g></svg>