<svg xmlns="http://www.w3.org/2000/svg" xml:space="preserve" width="500.00363" height="500" viewBox="0 0 500.00362 500"><defs><clipPath id="a" clipPathUnits="userSpaceOnUse"><path d="M0 595.276h841.89V0H0Z"/></clipPath></defs><g clip-path="url(#a)" transform="matrix(1.81523 0 0 -1.81523 -524.216 780.706)"><path d="M0 0c0-76.062-61.665-137.723-137.727-137.723-76.064 0-137.722 61.661-137.722 137.723 0 76.059 61.658 137.724 137.722 137.724C-61.665 137.724 0 76.059 0 0" style="fill:#fff;fill-opacity:1;fill-rule:nonzero;stroke:none" transform="translate(564.236 292.362)"/><path d="m0 0 5.151-2.26-1.106-2.521-5.149 2.258-10.631-.817 1.188 2.705 4.933.422a22.59 22.59 0 0 0 2.552.029l.05.113C-3.59.468-4.218 1.251-4.703 1.86l-3.034 3.917 1.14 2.589z" style="fill:#424a52;fill-opacity:1;fill-rule:nonzero;stroke:none" transform="translate(326.79 337.712)"/><path d="m0 0-12.846 7.819L-7.867 16l2.004-1.221-3.504-5.758L-6.1 7.032l3.287 5.395 1.936-1.181-3.285-5.392 3.646-2.225 3.507 5.758 1.988-1.21z" style="fill:#424a52;fill-opacity:1;fill-rule:nonzero;stroke:none" transform="translate(335.443 342.617)"/><path d="M0 0c-2.598 2.124-4.31 1.83-5.615.232-1.293-1.582-1.254-3.317 1.345-5.44l1.346-1.107c2.613-2.139 4.339-1.828 5.621-.26 1.294 1.578 1.263 3.33-1.351 5.472zm4.592-8.128c-2.424-2.958-5.525-3.455-9.296-.364l-1.362 1.117C-9.824-4.3-9.934-1.149-7.525 1.795c2.41 2.943 5.536 3.468 9.293.393l1.361-1.117c3.772-3.087 3.885-6.24 1.463-9.199" style="fill:#424a52;fill-opacity:1;fill-rule:nonzero;stroke:none" transform="translate(341.74 366.087)"/><path d="m0 0-9.55 3.409c-.729.271-1.586.588-2.343.914l-.028-.023c.598-.609 1.249-1.271 1.858-1.946l5.669-6.308-1.926-1.734-10.051 11.181 2.435 2.193 9.411-3.294c.729-.27 1.661-.605 2.387-.929l.033.027a41.243 41.243 0 0 0-1.972 2.068l-5.465 6.079 1.941 1.744L2.454 2.204Z" style="fill:#424a52;fill-opacity:1;fill-rule:nonzero;stroke:none" transform="translate(358.884 371.306)"/><path d="M0 0c-1.629-1.091-3.458-1.997-4.191-2.247l-1.206 1.8A42.602 42.602 0 0 1-1.514 1.86C0 2.875.441 3.777-.313 4.901c-.54.806-1.163 1.051-2.754.74l-2.404-.487c-2.352-.485-4.057-.09-5.268 1.726-1.623 2.423-.695 4.309 2.263 6.291 1.583 1.058 3.23 1.794 3.918 2.037l1.195-1.783c-1.017-.556-2.383-1.277-3.693-2.155-1.464-.978-2.084-1.757-1.412-2.771.509-.757 1.12-.902 2.703-.578l2.158.449c2.783.571 4.252.263 5.671-1.85C3.584 4.248 2.805 1.881 0 0" style="fill:#424a52;fill-opacity:1;fill-rule:nonzero;stroke:none" transform="translate(368.674 378.283)"/><path d="M0 0c-3.444-1.669-6.256-.647-8.148 3.248l-3.877 7.999 2.513 1.216 3.819-7.869c1.326-2.73 2.465-3.458 4.632-2.406 2.15 1.041 2.302 2.399.976 5.128l-3.818 7.87 2.495 1.21L2.47 8.4C4.363 4.501 3.424 1.661 0 0" style="fill:#424a52;fill-opacity:1;fill-rule:nonzero;stroke:none" transform="translate(381.422 385.608)"/><path d="m0 0-7.229 7.111A48.12 48.12 0 0 0-8.972 8.92l-.039-.011c.288-.797.601-1.676.869-2.547l2.493-8.1-2.47-.762-4.426 14.364 3.13.962 7.155-6.938c.552-.55 1.25-1.244 1.776-1.846l.037.01a44.264 44.264 0 0 0-.915 2.705l-2.406 7.807 2.494.773L3.15.973Z" style="fill:#424a52;fill-opacity:1;fill-rule:nonzero;stroke:none" transform="translate(398.498 392.47)"/><path d="M0 0c-3.401-.514-6.424.379-7.235 5.762l-.318 2.098c-.854 5.678 2.195 7.166 5.274 7.631 2.18.33 4.375.296 4.857.219l.32-2.136c-.972-.065-3.309-.298-4.329-.449-2.422-.37-3.9-1.145-3.339-4.845l.317-2.1c.514-3.4 1.882-4.074 4.283-3.712.739.114 1.477.244 1.993.361L.954 8.572l2.659.405 1.176-7.784C3.997.89 2.141.323 0 0" style="fill:#424a52;fill-opacity:1;fill-rule:nonzero;stroke:none" transform="translate(411.519 394.87)"/><path d="M0 0c-3.816.172-5.802 2.403-5.612 6.725l.392 8.873 2.788-.126-.386-8.728c-.136-3.028.522-4.211 2.925-4.316 2.384-.108 3.164 1.016 3.299 4.041l.386 8.729 2.766-.122-.391-8.87C5.975 1.883 3.799-.168 0 0" style="fill:#424a52;fill-opacity:1;fill-rule:nonzero;stroke:none" transform="translate(430.997 395.853)"/><path d="m0 0-2.979 9.698a47.243 47.243 0 0 0-.671 2.426l-.04.008a65.718 65.718 0 0 0-.449-2.658l-1.659-8.318-2.54.511 2.942 14.747 3.213-.637L.814 6.261c.225-.747.51-1.694.686-2.472l.038-.005c.116.882.303 1.92.481 2.815l1.599 8.021 2.56-.514L3.236-.644z" style="fill:#424a52;fill-opacity:1;fill-rule:nonzero;stroke:none" transform="translate(449.363 393.758)"/><path d="m0 0 4.542 14.342 2.702-.86L2.701-.855Z" style="fill:#424a52;fill-opacity:1;fill-rule:nonzero;stroke:none" transform="translate(456.59 391.833)"/><path d="m0 0-3.782 1.668 1.904 15.601L.79 16.092-.57 5.298c-.113-.905-.396-1.907-.527-2.711l.035-.021C-.586 3.245-.013 4.1.579 4.792l7.034 8.3 2.615-1.149z" style="fill:#424a52;fill-opacity:1;fill-rule:nonzero;stroke:none" transform="translate(470.331 386.615)"/><path d="m0 0 7.876 12.801 8.145-5.014-1.227-1.995L9.059 9.32 7.055 6.063l5.375-3.306L11.243.828 5.869 4.133 3.63.498l5.736-3.529L8.15-5.014Z" style="fill:#424a52;fill-opacity:1;fill-rule:nonzero;stroke:none" transform="translate(477.244 383.183)"/><path d="M0 0c1.473 1.798.234 2.845-2.616 5.175l-3.126-3.817c.393-.35.785-.669 1.19-1.004 2.005-1.64 3.244-1.95 4.474-.446zm-6.027-8.508.959 6.41c-.327.243-.67.525-1.032.817l-1.08.885-3.512-4.29-2.13 1.747L-3.294 8.69A86.097 86.097 0 0 0 .024 6.1c2.804-2.293 4.659-4.756 2.145-7.824l-.092-.113C.631-3.601-.894-3.897-2.566-3.415l-1.146-6.99z" style="fill:#424a52;fill-opacity:1;fill-rule:nonzero;stroke:none" transform="translate(501.245 378.972)"/><path d="M0 0c-1.334 1.439-2.522 3.102-2.879 3.792l1.589 1.47c.75-.989 1.61-2.096 2.893-3.475C2.84.448 3.802.153 4.796 1.074c.71.662.853 1.317.292 2.843l-.856 2.296c-.846 2.252-.721 3.993.883 5.479 2.139 1.982 4.147 1.362 6.569-1.25 1.295-1.397 2.283-2.91 2.629-3.553L12.742 5.43c-.713.913-1.64 2.152-2.712 3.312-1.198 1.294-2.064 1.782-2.96.959-.667-.62-.717-1.247-.145-2.763l.782-2.065c1.002-2.657.928-4.159-.941-5.89C4.763-2.877 2.299-2.48 0 0" style="fill:#424a52;fill-opacity:1;fill-rule:nonzero;stroke:none" transform="translate(502.443 362.894)"/><path d="m0 0 11.982 9.087 1.709-2.255L1.714-2.254Z" style="fill:#424a52;fill-opacity:1;fill-rule:nonzero;stroke:none" transform="translate(508.46 356.331)"/><path d="m0 0-10.83-6.617-1.479 2.42 10.831 6.621-2.34 3.835 2 1.222L4.35-2.604 2.347-3.831Z" style="fill:#424a52;fill-opacity:1;fill-rule:nonzero;stroke:none" transform="translate(526.795 351.945)"/><path d="m0 0-5.153-2.263L-6.261.259l5.154 2.262L5.5 10.902l1.189-2.708-3.035-3.916a21.497 21.497 0 0 0-1.71-1.901l.049-.111c.791.057 1.795-.012 2.571-.067l4.938-.421 1.141-2.597z" style="fill:#424a52;fill-opacity:1;fill-rule:nonzero;stroke:none" transform="translate(527.516 334.917)"/><path d="m0 0 1.619 1.819C.06 2.982-1.019 4.245-1.608 5.609c-.679 1.506-.836 3.303-.47 5.383l.102.585-2.772.486-.113-.631c-.382-2.19-1.052-3.832-1.995-4.921-.985-1.132-2.545-2.032-4.681-2.685l.915-2.297c1.326.335 2.568.879 3.726 1.643 1.275.856 2.143 1.775 2.607 2.761.231-1.137.76-2.265 1.59-3.382C-1.871 1.442-.969.587 0 0m3.049-1.258 2.945-.52L8.159 10.52l-2.944.516-.685-3.9-3.767.669-.392-2.202 3.771-.665ZM1.155-9.116c-.607-.489-1.321-.661-2.116-.525-.785.141-1.391.549-1.796 1.209-.408.668-.536 1.469-.376 2.381.163.909.554 1.62 1.166 2.104.608.486 1.317.662 2.102.527.795-.144 1.403-.556 1.81-1.22.409-.66.531-1.459.375-2.373-.163-.912-.553-1.619-1.165-2.103M4.371-3.44C3.536-2.252 2.241-1.495.525-1.189c-1.715.303-3.19.034-4.38-.804-1.13-.798-1.841-1.995-2.123-3.56-.274-1.557-.011-2.931.78-4.067.83-1.193 2.124-1.952 3.839-2.253 1.717-.305 3.19-.033 4.382.803 1.131.798 1.846 1.996 2.122 3.56.275 1.563.012 2.933-.774 4.07" style="fill:#424a52;fill-opacity:1;fill-rule:nonzero;stroke:none" transform="translate(402.866 182.27)"/><path d="M0 0c-.865.374-1.27.818-.745 2.057L.642 5.318l-2.738 1.159-1.26-2.966c-1.712-4.032.551-4.993 1.777-5.507l7.83-3.332.965 2.267zm2.068 10.817c-.77-.415-1.568-.448-2.382-.1-.822.348-1.357.948-1.596 1.792-.236.842-.139 1.777.288 2.781.426.999 1.031 1.723 1.801 2.135.77.416 1.576.451 2.396.101.816-.346 1.344-.944 1.579-1.784.237-.847.142-1.787-.282-2.784-.422-1.004-1.035-1.72-1.804-2.141m8.567 1.779-.969-2.29-3.218 1.37c.022.053.047.107.072.161.272.645.447 1.304.517 1.974.009.082.011.184.013.307zM3.837 8.694c.384.237.953.741 1.381 1.152l3.603-1.531-2.616-6.163L8.941.996l6.149 14.487-2.734 1.164-.875-2.061-4.793 2.039c-.549 1.395-1.619 2.436-3.177 3.1-1.568.664-3.094.698-4.548.092-1.44-.598-2.533-1.744-3.234-3.402-.708-1.675-.782-3.263-.21-4.717.573-1.459 1.658-2.535 3.227-3.205 1.806-.764 3.522-.696 5.091.201" style="fill:#424a52;fill-opacity:1;fill-rule:nonzero;stroke:none" transform="translate(375.121 181.84)"/><path d="M0 0v5.283h6.159v2.465h-9.127V.319c0-4.381 2.452-4.381 3.789-4.381h6.075v2.464H1.495C.551-1.598 0-1.27 0 0m12.541 8.921V4.964h-1.723v3.957H7.954v-19.984h2.864V2.728h1.723v-13.791h2.861V8.921Z" style="fill:#424a52;fill-opacity:1;fill-rule:nonzero;stroke:none" transform="translate(420.515 182.247)"/><path d="m0 0-9.888-1.743.426-2.426L-.781-2.64c.297.054.515.042.587-.364l.992-5.622 2.922.514-1.072 6.077C2.292.006 1.312.232 0 0m.49 10.233-.684 3.904-2.947-.519L-.889.851l2.944.522L.881 8.036l2.705.475-.389 2.203Zm-13.208-5.574c-.149.852-.036 1.598.333 2.213.367.626.924 1.004 1.638 1.13.728.126 1.382-.039 1.944-.498.551-.453.912-1.113 1.067-1.97.147-.853.038-1.599-.33-2.218-.369-.619-.926-.997-1.659-1.127a2.276 2.276 0 0 0-1.923.5c-.556.452-.915 1.12-1.07 1.97m7.002-2.571c.738 1.095.978 2.413.712 3.932-.248 1.392-.85 2.488-1.776 3.26l1.908.338-.427 2.423-4.75-.837-.343 1.974-2.611-.46.349-1.973-4.75-.838.428-2.426 2.064.365c-.609-1.043-.8-2.276-.555-3.67.267-1.518.948-2.678 2.013-3.453 1.13-.81 2.513-1.079 4.132-.798C-7.707.211-6.495.94-5.716 2.088" style="fill:#424a52;fill-opacity:1;fill-rule:nonzero;stroke:none" transform="translate(459.483 180.886)"/><path d="m0 0 3.64-6.841 2.616 1.396L2.77 1.118C.713 4.981-1.448 3.829-2.631 3.207l-9.609-5.113 1.154-2.174L-2.065.714C-1.234 1.16-.596 1.122 0 0m3.736-11.36L.299-4.899l-2.487-1.319 3.431-6.461-2.1-1.119-3.432 6.461-2.484-1.323 3.436-6.46-3.785-2.009 1.1-2.073 17.601 9.354-1.101 2.074z" style="fill:#424a52;fill-opacity:1;fill-rule:nonzero;stroke:none" transform="translate(478.476 199.054)"/><path d="M0 0c-24.046-24.05-38.921-57.271-38.921-93.972 0-36.696 14.875-69.917 38.921-93.972 24.051-24.041 57.274-38.918 93.975-38.918 36.698 0 69.919 14.877 93.974 38.918 24.048 24.055 38.921 57.276 38.921 93.972 0 36.701-14.873 69.922-38.921 93.972-24.055 24.049-57.276 38.926-93.974 38.926C57.274 38.926 24.051 24.049 0 0m-40.034-93.972c0 74.018 59.993 134.012 134.009 134.012 74.013 0 134.013-59.994 134.013-134.012 0-74.011-60-134.007-134.013-134.007-74.016 0-134.009 59.996-134.009 134.007" style="fill:#424a52;fill-opacity:1;fill-rule:nonzero;stroke:none" transform="translate(332.535 386.334)"/><path d="M0 0c-16.833-16.841-27.242-40.096-27.242-65.783 0-25.687 10.409-48.933 27.242-65.775 16.837-16.837 40.088-27.249 65.781-27.249 25.691 0 48.945 10.412 65.774 27.249 16.839 16.842 27.248 40.088 27.248 65.775 0 25.687-10.409 48.942-27.248 65.783-16.829 16.837-40.083 27.242-65.774 27.242C40.088 27.242 16.837 16.837 0 0m-28.36-65.783c0 51.993 42.15 94.143 94.141 94.143 51.989 0 94.135-42.15 94.135-94.143 0-51.988-42.146-94.135-94.135-94.135-51.991 0-94.141 42.147-94.141 94.135" style="fill:#424a52;fill-opacity:1;fill-rule:nonzero;stroke:none" transform="translate(360.728 358.146)"/><path d="M0 0c-1.015-.457-2.075-.783-2.497-.879l-.278.62c.613.194 1.501.498 2.466.936C.963 1.25 1.502 2.011.971 3.189c-.384.853-.966 1.081-2.35 1.103l-1.429.013c-1.406.008-2.389.293-2.924 1.467-.628 1.388.047 2.441 1.844 3.256.967.438 1.994.745 2.438.849l.283-.628a25.748 25.748 0 0 1-2.385-.896c-1.237-.562-1.853-1.219-1.4-2.222.355-.786.981-1.015 2.2-1.015l1.422-.005c1.631-.005 2.533-.329 3.094-1.559C2.443 2.045 1.853.836 0 0" style="fill:#424a52;fill-opacity:1;fill-rule:nonzero;stroke:none" transform="translate(395.306 361.17)"/><path d="m0 0-3.242 8.93.806.289L.807.29Z" style="fill:#424a52;fill-opacity:1;fill-rule:nonzero;stroke:none" transform="translate(400.367 363.435)"/><path d="m0 0-5.775 6.087a33.9 33.9 0 0 0-.999 1.112l-.013-.005c.16-.498.318-1.038.462-1.566L-4.5-1.195l-.78-.207-2.457 9.179 1.173.315 5.767-6.016c.299-.315.664-.737.971-1.091l.011.003c-.18.576-.341 1.127-.468 1.594L-2.078 9.29l.791.215L1.174.316Z" style="fill:#424a52;fill-opacity:1;fill-rule:nonzero;stroke:none" transform="translate(409.08 366.083)"/><path d="M0 0c-2.239-.329-3.843.465-4.332 3.781l-.158 1.074c-.487 3.302.819 4.532 3.059 4.862.935.137 1.842.131 2.218.122l.102-.699a17.164 17.164 0 0 1-2.208-.184c-1.937-.28-2.709-1.356-2.322-3.975l.155-1.075C-3.098 1.29-2.049.471-.111.758c.834.124 1.549.279 2.169.464l.104-.711C1.853.411.976.141 0 0" style="fill:#424a52;fill-opacity:1;fill-rule:nonzero;stroke:none" transform="translate(416.393 367.254)"/><path d="m0 0-.41 9.489 5.465.239.035-.767-4.611-.199.148-3.385 4.3.186.035-.779-4.307-.186.17-3.809 4.609.198.033-.749Z" style="fill:#424a52;fill-opacity:1;fill-rule:nonzero;stroke:none" transform="translate(420.647 367.913)"/><path d="m0 0 .069.699L2.096.548l.783 7.88L.776 7.94l.075.753 2.318.589.635-.06L2.935.467l2.003-.25-.071-.701Z" style="fill:#424a52;fill-opacity:1;fill-rule:nonzero;stroke:none" transform="translate(431.422 367.966)"/><path d="M0 0c.466 2.293-.337 3.133-1.777 3.431-1.278.258-2.388-.196-2.707-1.746l-.089-.438c-.32-1.566.602-2.03 1.894-2.294.6-.121 1.518-.232 2.424-.194zm-3.776-5.439a14.407 14.407 0 0 0-2.474.779l.134.668c.473-.166 1.573-.534 2.465-.713 2.228-.46 2.798.531 3.143 2.225l.119.585c-.779-.049-1.805.046-2.467.183-1.528.312-2.981.988-2.55 3.104l.095.463c.483 2.354 2.342 2.576 3.682 2.298C.087 3.804 1.467 2.895.828-.227L.333-2.64c-.458-2.243-1.518-3.333-4.109-2.799" style="fill:#424a52;fill-opacity:1;fill-rule:nonzero;stroke:none" transform="translate(445.057 371.872)"/><path d="m0 0-.915.29 6.799 6.997-4.91 1.567.233.731 5.676-1.813-.277-.864Z" style="fill:#424a52;fill-opacity:1;fill-rule:nonzero;stroke:none" transform="translate(448.422 364.835)"/><path d="m0 0-.879.384 7.475 6.259L1.88 8.702l.308.702 5.453-2.383-.363-.833Z" style="fill:#424a52;fill-opacity:1;fill-rule:nonzero;stroke:none" transform="translate(455.83 362.177)"/><path d="m0 0-28.164-29.073L.018-64.839 48.678 0Z" style="fill:#424a52;fill-opacity:1;fill-rule:nonzero;stroke:none" transform="translate(426.501 348.98)"/><path d="M0 0h48.66v64.839Z" style="fill:#51bbed;fill-opacity:1;fill-rule:nonzero;stroke:none" transform="translate(426.519 284.14)"/><path d="m0 0-36.832-7.729v-60.108l65.014 32.071z" style="fill:#ec1f9a;fill-opacity:1;fill-rule:nonzero;stroke:none" transform="translate(398.337 319.906)"/><path d="m0 0 65.014-33.076v65.147Z" style="fill:#424a52;fill-opacity:1;fill-rule:nonzero;stroke:none" transform="translate(361.505 252.07)"/><path d="M0 0h-48.66v-65.147l64.975 37.143z" style="fill:#b5dc17;fill-opacity:1;fill-rule:nonzero;stroke:none" transform="translate(475.179 284.14)"/></g></svg>