<svg xmlns="http://www.w3.org/2000/svg" xml:space="preserve" width="1204.4056" height="1204.4036" viewBox="0 0 1204.4056 1204.4036"><path d="M115.03 205.086c5.464-5.13 6.171-12.295 13.047-13.89 6.838-2.118 12.735 4.64 18.279 5.495 6.799 1.748 15.486-3.267 17.373-10.03 2.305-7.468-.89-13.415 4.322-18.452 4.044-5.126 11.628-2.464 18.61-4.48 6.763-1.887 11.778-10.573 10.03-17.373-1.962-7.966-7.605-12.149-5.504-18.245 1.212-6.922 10.484-8.735 13.898-13.081 4.914-5.016 4.914-15.045 0-20.06-5.428-5.755-12.101-6.123-13.928-12.944-2.36-7.253 4.948-12.929 5.535-18.383 1.748-6.8-3.268-15.486-10.03-17.373-6.879-2.225-13.563.792-18.555-4.29-5.486-5.096-2.275-13.693-4.378-18.642-1.886-6.762-10.573-11.778-17.372-10.03-7.509 1.812-11.734 7.627-18.202 5.517-6.688-1.079-8.44-9.921-13.126-13.91C110.015 0 99.984 0 94.969 4.914c-6.594 6.657-5.672 11.977-13.05 13.89-6.652 2.266-12.936-4.786-18.276-5.497-6.801-1.747-15.486 3.266-17.373 10.03-2.437 9.232.923 13.408-4.42 18.488-6.044 5.97-11.203 2.117-18.513 4.444-6.762 1.886-11.778 10.573-10.03 17.374 1.84 6.808 7.573 12.062 5.518 18.2-2.627 8.074-9.7 8.114-13.912 13.125C0 99.985 0 110.014 4.914 115.03c5.294 5.357 12.343 6.522 13.934 13.037 2.033 6.859-4.215 11.82-5.541 18.29-1.748 6.801 3.267 15.487 10.03 17.373 7.435 1.989 14.193-.521 18.651 4.323 5.451 6.006 2.026 11.664 4.282 18.61 1.886 6.762 10.572 11.778 17.373 10.029 7.686-1.88 11.552-7.523 18.256-5.549 7.393 2.036 7.572 8.954 13.07 13.943 5.015 4.913 15.044 4.915 20.06 0z" style="fill:#2e3192;fill-opacity:1;fill-rule:nonzero;stroke:#2e3192;stroke-width:.215;stroke-linecap:butt;stroke-linejoin:miter;stroke-miterlimit:4;stroke-dasharray:none;stroke-opacity:1" transform="matrix(5.79718 0 0 -5.79718 -6.498 1210.904)"/><path d="M108.113 206.225c2.75-.774 4.172-1.5 5.493-2.765 3.944-4.07 5.582-9.588 9.966-12.61a15.567 15.567 0 0 1 4.04-1.816c4.704-.873 8.267.365 11.76 2.2 2.399 1.203 4.807 2.866 7.543 3.265 6.458 1.177 12.91-2.744 14.79-8.487 1.259-5.37.12-10.49 1.987-15.145.623-1.552 1.656-2.868 2.821-4.17 1.065-1.142 1.733-1.667 2.615-2.25 5.088-2.98 11.525-1.357 17.023-2.868 5.988-2.143 9.743-8.805 8.485-14.702-2.039-6.839-7.676-12.37-5.497-19.338 1.383-4.72 4.612-7.316 8.2-9.432 2.167-1.388 4.53-2.482 6.183-4.56 4.176-5.025 4.102-12.623.056-17.05-4.043-3.793-9.1-5.438-12.223-9.334a12.153 12.153 0 0 1-2.228-4.52c-1.007-4.539.016-8.045 1.743-11.51 1.42-2.457 3.297-4.922 3.738-7.903 1.078-6.428-2.873-12.988-8.49-14.836-5.633-1.37-11.046-.035-15.896-2.198a13.283 13.283 0 0 1-3.563-2.63c-3.138-3.423-3.982-7.005-4.18-10.76-.076-2.866.251-5.955-.746-8.743-2.317-6.134-8.95-9.782-14.74-8.596-5.762 1.794-10.288 6.008-15.803 6.1-1.271-.005-2.356-.176-3.458-.583-1.642-.358-2.54-.695-3.496-1.247-5.081-3.024-6.403-9.25-10.597-13.182-5.108-4.077-12.706-4.003-16.999-.054-1.933 2.105-3.123 3.693-4.148 5.468-1.29 2.077-2.523 4.37-4.36 6.131-1.57 1.46-3.529 2.331-5.478 2.838-4.757 1.174-8.349-.17-11.841-2.006-2.43-1.31-4.808-2.866-7.488-3.443-6.515-.999-13.103 2.843-14.796 8.444-.73 3.013-.936 5.26-1.034 7.48-.011 2.542.006 5.192-.874 7.506-.674 1.796-1.785 3.248-3.109 4.5-2.564 2.33-4.68 3.473-7.187 4.03-4.07.744-8.251-.213-12.229.946-6.051 2.335-9.806 8.997-8.518 14.686 1.828 5.941 6.236 10.762 5.985 16.716-.092.948-.321 1.817-.506 2.728-1.576 3.716-3.239 6.124-5.75 7.951-2.914 2.05-6.273 3.296-8.628 5.98-4.221 5.08-4.148 12.678-.054 17.013 4.405 4.122 10.117 6.054 13.117 10.79.612.99 1.037 2.146 1.37 3.219.454 2.294.506 3.78.313 5.217-.805 5.179-4.714 9.112-5.833 14.147-1.122 6.415 2.72 13.003 8.46 14.732 5.833 1.403 11.951.11 16.837 2.84 1.064.523 1.969 1.319 2.851 2.12 2.017 2.693 3.16 4.81 3.61 7.344.744 4.072-.106 8.223 1.162 12.121 2.227 6.13 8.889 9.886 14.713 8.518 5.512-1.554 9.773-5.466 15.065-5.96 1.487-.053 2.923.139 4.33.432 2.889 1.095 4.693 2.228 6.153 3.8 3.085 3.327 4.483 7.685 7.83 10.658 3.432 2.943 7.634 3.55 11.51 2.778z" style="fill:#fff;fill-opacity:1;fill-rule:nonzero;stroke:#2e3192;stroke-width:.215;stroke-linecap:butt;stroke-linejoin:miter;stroke-miterlimit:4;stroke-dasharray:none;stroke-opacity:1" transform="matrix(5.79718 0 0 -5.79718 -6.498 1210.904)"/><path d="M202.712 104.848c-.058-2.222-.557-3.57-2.016-5.718-2.462-2.52-4.975-3.857-7.536-5.41-2.068-1.5-4.022-3.198-5.528-5.113-1.202-1.744-2.069-3.348-2.537-5.225-.585-2.467-.715-4.084-.4-6.172.412-2.675 1.577-5.592 2.941-8.08 1.245-2.126 2.108-4.001 3.042-6.642.855-4.902-1.606-8.494-5.749-10.453-5.118-1.353-10.636-.335-15.491-2.111-2.18-.75-4.34-2.082-5.875-3.65-1.136-1.063-1.791-2.225-2.6-3.485-1.578-3.152-1.949-6.065-2.298-9.315-.048-2.9-.144-5.749-.92-8.382-1.289-3.922-5.73-6.41-9.971-5.893-6.08 1.856-10.771 5.948-16.842 6.126-1.537-.079-3.187-.03-4.587-.42-2.035-.755-3.496-1.413-4.876-2.36-2.833-1.929-4.869-4.944-6.656-7.826-1.065-1.923-2.514-3.657-4.001-5.261-1.786-1.277-3.653-2.156-5.906-2.094-2.45.08-3.504.446-5.44 1.781-3.123 2.307-5.401 8.462-9.909 12.538-1.862 1.536-3.938 2.753-6.106 3.274-2.41.61-4.204.719-6.315.315-2.66-.351-4.767-1.234-7.232-2.415-2.132-1.384-5.503-2.958-7.94-3.503-3.04-.729-6.545.875-8.64 3.563-.517.64-.693 1.313-1.051 2.033-1.06 2.57-1.071 6.298-1.018 9.868-.205 2.414-.629 4.653-1.577 6.616-.951 1.926-1.944 3.813-3.436 5.095-1.679 1.684-3.137 2.431-4.869 3.209-2.56 1.186-4.39 1.52-7.203 1.709-2.606-.156-7.093.073-9.534 1.004-3.571 2.016-5.614 4.65-5.418 9.386.702 3.617 3.041 7.011 4.473 10.172.977 2.324 1.697 4.511 1.716 6.776.047 1.722-.04 3.073-.427 4.868-.639 2.397-1.137 3.25-2.022 4.52-1.847 2.78-3.433 4.167-5.97 5.757-2.448 1.472-5.699 3.39-7.84 5.68-1.98 2.688-2.569 7.026.079 10.957 1.288 1.69 3.16 3.01 4.755 3.937 2.657 1.626 4.91 2.925 6.819 4.89 1.975 2.25 3.57 4.618 4.23 7.17.464 2.34.552 3.871.363 5.736-.242 3.068-1.592 6.028-3.074 8.728-1.132 2.255-2.108 4.157-2.786 6.364-.539 2.52-.393 4.278.97 6.533 1.183 1.892 2.405 3 4.434 3.766 2.011.884 4.378.954 6.439 1.035 3.202.313 6.17.073 8.867 1.069 2.563.99 4.652 2.247 6.282 3.912 2.786 2.88 3.903 5.022 4.528 8.225.452 2.345.46 5.51.404 7.622.108 1.816.404 3.539.744 5.127 1.401 3.624 4.93 6.46 9.891 6.033 3.103-.498 6.266-2.472 10.527-4.671 2.564-.974 5.044-1.462 7.482-1.522 1.44.033 2.561.256 3.635.57 4.43 1.29 7.43 3.665 9.756 7.411 1.9 2.648 3.143 5.519 5.662 7.842 2.341 2.33 6.056 3.166 9.988 1.468 3.331-1.615 6.36-7.494 8.053-9.947 1.6-1.9 3.171-3.51 4.972-4.826a15.051 15.051 0 0 1 4.43-1.994c2.604-.662 4.469-.659 6.646-.255 2.88.719 5.314 1.63 7.622 2.775 2.335 1.241 4.59 2.414 6.874 3.007 2.308.49 4.019.07 6.233-1.097 2.022-1.306 2.892-2.065 3.78-4.194 2.986-8.225-2.02-11.698 5.98-21.828 2.804-2.773 5.967-3.956 9.297-4.648 2.182-.222 4.157-.172 6.099-.258 1.985.036 4.035-.266 5.71-.813 2.863-.651 5.8-4.165 6.08-7.556.089-.837 0-1.628-.162-2.44-.739-3.362-2.737-6.299-4.111-9.427-1.16-2.569-1.625-4.073-1.953-6.289-.203-2.22.017-4.137.42-5.832.845-3.26 2.77-5.751 5.038-7.76 1.881-1.675 3.619-2.892 5.404-3.78 1.735-1.09 3.432-2.231 4.98-3.768 1.278-1.78 2.228-3.779 2.177-6.034z" style="fill:#2e3192;fill-opacity:1;fill-rule:nonzero;stroke:#2e3192;stroke-width:.215;stroke-linecap:butt;stroke-linejoin:miter;stroke-miterlimit:4;stroke-dasharray:none;stroke-opacity:1" transform="matrix(5.79718 0 0 -5.79718 -6.498 1210.904)"/><path d="M36.761 144.46c21.696 37.58 70.193 50.574 107.772 28.878 37.579-21.696 50.574-70.194 28.878-107.773-21.696-37.58-70.194-50.573-107.773-28.877C28.059 58.384 15.064 106.882 36.76 144.46Z" style="fill:#fff;fill-opacity:1;fill-rule:nonzero;stroke:#2e3192;stroke-width:.215;stroke-linecap:butt;stroke-linejoin:miter;stroke-miterlimit:4;stroke-dasharray:none;stroke-opacity:1" transform="matrix(5.79718 0 0 -5.79718 -6.498 1210.904)"/><path d="M40.119 142.512c20.621 35.716 66.715 48.067 102.43 27.446 35.717-20.621 48.068-66.714 27.448-102.431C149.376 31.81 103.281 19.46 67.565 40.08c-35.716 20.621-48.067 66.715-27.446 102.431Z" style="fill:#2e3192;fill-opacity:1;fill-rule:nonzero;stroke:#2e3192;stroke-width:.215;stroke-linecap:butt;stroke-linejoin:miter;stroke-miterlimit:4;stroke-dasharray:none;stroke-opacity:1" transform="matrix(5.79718 0 0 -5.79718 -6.498 1210.904)"/><path d="M56.68 132.964c15.186 26.303 49.133 35.399 75.436 20.212 26.304-15.186 35.4-49.132 20.213-75.436-15.186-26.303-49.132-35.4-75.436-20.213-26.304 15.187-35.4 49.133-20.213 75.437Z" style="fill:#fff;fill-opacity:1;fill-rule:nonzero;stroke:#2e3192;stroke-width:.215;stroke-linecap:butt;stroke-linejoin:miter;stroke-miterlimit:4;stroke-dasharray:none;stroke-opacity:1" transform="matrix(5.79718 0 0 -5.79718 -6.498 1210.904)"/><path d="m57.927 139.868 1.203 1.302-3.21 5.016 5.516-2.306 1.103 1.302-8.122 3.409-3.712 3.21-1.101-1.304 3.71-3.108 4.613-7.52m30.072 28.238c.704.602 1.104 1.202 1.305 1.906.501-.5 1.105-1.004 1.905-1.203.703-.301 1.504-.301 2.407-.201l-.5 1.906c-1.004-.1-1.907.199-2.51.901-.501.703-.9 1.706-1.202 3.108l-2.006-.4c.301-1.503.301-2.607.1-3.31-.2-.902-.902-1.604-1.905-1.905l.402-1.905c.7.2 1.403.5 2.004 1.103m9.528-.602-1.804 8.424-1.907-.402 1.806-8.423 1.905.4m-23.415-4.134c.2 0 .399 0 .701.097l7.42 3.211.302-.603 1.805.804-.903 2.106 1.404.601-.703 1.705-1.402-.702-.902 1.907-1.805-.704 1.502-3.408-6.519-2.809-1.402 3.309-1.807-.702 1.706-4.011c.2-.401.402-.704.603-.8m-10.432-6.497c1.003-.201 1.807 0 2.608.6a3.458 3.458 0 0 1 1.404 2.109c.202.9 0 1.804-.501 2.607-.602.802-1.405 1.303-2.306 1.403-.902.1-1.806-.1-2.507-.6-.802-.504-1.304-1.204-1.505-2.107-.2-1.004 0-1.805.602-2.708.502-.801 1.304-1.203 2.205-1.304m-.9 3.61c0 .5.3.803.6 1.002.402.303.702.303 1.204.303.402-.101.7-.303 1.003-.705.199-.299.3-.7.199-1.202 0-.401-.2-.7-.6-.902-.301-.3-.702-.4-1.104-.3-.5.098-.802.3-1.101.601-.202.402-.304.802-.202 1.203m4.614 2.508 1.605 1.1.501-.599-1.605-1.204.9-1.304 1.607 1.103.501-.7 1.606 1.1-3.312 4.815-1.603-1.103.502-.702-1.706-1.103 1.004-1.403m4.614-2.007c-1.004.202-1.908-.099-2.811-.7-.801-.602-1.403-1.406-1.603-2.409-.2-1.002 0-2.005.601-2.906.6-.904 1.504-1.506 2.607-1.606 1.002-.2 1.906.1 2.81.702.802.601 1.401 1.405 1.604 2.408.299 1 .099 2.004-.602 3.007-.603.903-1.504 1.405-2.606 1.504m1.302-4.212c-.101-.501-.302-.902-.8-1.202a1.739 1.739 0 0 0-1.405-.302c-.503.101-1.005.302-1.306.803-.299.501-.4.903-.299 1.504.099.501.4.902.801 1.202.4.303.904.404 1.404.303.602 0 1.003-.303 1.303-.802.302-.403.403-.902.302-1.506m4.212.58c.2-.102.402-.102.702 0l7.722 3.41c.301.098.5.299.602.5 0 .2 0 .501-.202.902l-1.705 4.012-9.526-4.111 1.805-4.012c.1-.4.301-.602.602-.702m6.017 6.418.802-1.704-5.917-2.609-.803 1.706 5.918 2.607m15.444 8.9c-.1-.199-.1-.399-.1-.7 0-.902.3-1.605 1.003-2.205.7-.503 1.402-.805 2.305-.805.803 0 1.606.302 2.206.905.604.599.903 1.302.903 2.205 0 .201 0 .5-.1.703l-.3.601h.801v1.705h-2.607v1.103h-2.106l.1-1.103-2.606-.1v-1.705h.801c-.1-.2-.202-.4-.3-.603m2.206.301c.201.202.601.302.902.402.403 0 .703-.2.903-.402.301-.199.401-.6.401-.902 0-.402-.1-.7-.301-.903-.3-.3-.6-.4-.903-.4-.4 0-.7.1-1.002.3-.201.302-.4.601-.4.903 0 .402.1.7.4 1.002m55.307-41.345 13.438 2.808-.803 1.606-3.71-.805-1.302 2.707 2.806 2.41-.8 1.602-10.23-9.024.601-1.304m5.718 4.713.8-1.705-3.71-.801 2.91 2.506m-3.659-9.222 7.948 3.513-6.434-7.005.631-1.455 12.119 5.289-.639 1.553-8.237-3.639 6.724 7.133-.622 1.354-12.12-5.29.63-1.453m-1.306 15.943c-.802-.101-1.603-.403-2.407-.905-.6-.4-1.104-.802-1.403-1.401-.503-.503-.704-1.005-.704-1.506-.1-.3-.1-.701.101-1.103.1-.202.301-.501.502-1.003l1.203-1.805 11.132 7.22-.802 1.304-4.313-2.707-.099.1 3.009 4.814-1.104 1.703-3.11-5.114c-.6.302-1.304.501-2.005.403m-1.603-5.117-.402.604c-.303.5-.402.901-.402 1.202.099.4.5.8 1.002 1.104.603.4 1.003.5 1.405.4.3 0 .701-.3 1.004-.802l.4-.6-3.007-1.908m5.566-18.005 12.74 3.71-.403 1.504-12.737-3.61.4-1.604m12.74-13.206-3.21-.101-.102 3.209-2.306-.1.101-3.209h-3.11l-.1 3.208-2.306-.099.1-4.814 13.238.3-.101 4.813h-2.304l.1-3.207m-12.214 10.305 9.546-.371-8.587-4.113.378-2.193 13.052 2.662-.356 1.593-9.064-1.922 8.582 4.213-.24 1.097-9.549.468 9.17 1.824-.355 1.495-12.951-2.66.374-2.093m-13.44 26.949 5.517 2.207-3.31-4.814 1.104-1.506 4.913 7.423 3.812 3.008-1.104 1.303-3.71-3.008-8.324-3.11 1.103-1.503m-38.687 19.158-.1 5.314-10.33-.1v-1.805l8.425.102v-3.51h2.005m-.1 6.315v2.41h1.504v1.804h-1.604v1.904h-1.905l.1-6.118h1.905m-20.309-3.06-1.903-.4.7-3.31c.101-.4.201-.702.402-.802.201-.199.402-.199.801-.1l9.227 2.005-.401 1.806-8.323-1.806-.503 2.608m48.265-3.985-2.81-4.212-1.503 1.002-1.003-1.503 9.827-6.519 1.003 1.504-.8.501 5.514 8.323-8.425 5.617-1-1.504 6.818-4.513-4.513-6.819-1.504 1.002 2.807 4.212-1.605 1.103-2.806-4.311-1.205.802 2.909 4.312-1.704 1.003m-25.498 3.51 5.414-1.004-.503-2.707 1.807-.3 1.204 6.617.8-.099-1.202-6.72 1.805-.3 2.306 12.235-1.804.4-.702-3.81-.801.099.701 3.811-1.805.403-1.503-7.823-4.414.802 1.103 6.018 3.51-.604.401 1.704-5.416 1.106-1.604-8.524c-.1-.403-.1-.703 0-.904.1-.199.401-.3.703-.4m21.737-2.408.904 2.206 1.503-.602.702 1.704-1.506.602.703 1.806-1.804.702-2.308-5.717 1.806-.7m-6.92 2.404c.803-.299 1.605-.4 2.407-.099.802.301 1.405.903 1.705 1.706.1.2.201.501.201.701 0 .2 0 .402-.1.703l.8-.301.603 1.504-2.407 1.003.502 1.103-2.005.7-.402-1.001-2.408 1.002-.602-1.605.704-.299a1.21 1.21 0 0 1-.502-.502c-.202-.102-.301-.302-.402-.602-.3-.803-.3-1.606.101-2.406.402-.803 1.002-1.304 1.805-1.607m-.1 3.31c.199.302.4.601.702.703.4.1.702.1 1.003 0 .401-.102.6-.4.7-.702.201-.3.201-.601 0-1.003-.1-.3-.299-.501-.7-.7a1.368 1.368 0 0 0-.902 0c-.402.098-.604.4-.804.7-.099.301-.099.703 0 1.003m4.213-7.622-1.303-3.21 1.803-.8 2.005 5.014-9.625 3.81-.703-1.605 7.823-3.21M60.32 150.03c1.405 0 2.507 1.103 2.507 2.407a2.483 2.483 0 0 1-2.507 2.509c-1.303 0-2.504-1.104-2.504-2.509 0-1.304 1.201-2.407 2.504-2.407m67.907-97.956 1.604-8.923-5.516 7.32-1.605-.702 8.323-10.832.903.402-2.105 13.439-1.604-.704m8.55-8.195-1.502 2.807 2.807 1.606-1.101 1.905-2.81-1.504-1.504 2.807 2.808 1.505-1.102 2.006-4.213-2.306 6.319-11.634 4.211 2.306-1.103 2.005-2.81-1.503m12.778 10.861c-.6.701-1.202 1.203-1.805 1.605-.702.3-1.304.4-2.003.3l-.604-.101c-.301-.101-.5-.199-.6-.199-.201 0-.402 0-.603.098-.101 0-.2.101-.3.201-.1 0-.202.202-.302.3-.3.403-.501.804-.501 1.105-.1.3.1.5.301.7.2.203.502.203.7.102.303-.102.705-.402 1.004-.903l1.304 1.004c-.8.903-1.603 1.603-2.406 1.904-.803.202-1.405.101-2.007-.3-.6-.402-.8-1.103-.8-2.006.1-.802.5-1.704 1.202-2.607.2-.302.502-.602.802-.902.302-.202.602-.402.902-.503.402-.201.804-.3 1.205-.3.4 0 .802.099 1.102.2.602.1 1.004.1 1.204 0 .4 0 .703-.3 1.103-.8.3-.403.502-.903.502-1.206.1-.401-.101-.701-.402-1.003-.2-.2-.6-.2-.902 0-.402.1-.803.502-1.303 1.003l-1.205-.902c.901-1.002 1.705-1.804 2.607-2.106.904-.3 1.704-.3 2.308.202.601.5.902 1.201.8 2.205-.098.904-.5 1.907-1.303 2.91m-56.033-6.622-5.316-12.635 1.706-.2 1.404 3.511 3.008-.503.402-3.71 1.803-.302-1.603 13.638-1.404.201M92.317 41l1.406 3.51.4-3.71-1.806.2m50.42 12.035c-.1.704-.402 1.504-.903 2.307-.4.602-.802 1.102-1.303 1.505-.6.402-1.103.6-1.605.701-.301 0-.703 0-1.102-.101-.202-.099-.5-.3-1.004-.6l-1.806-1.205 7.22-11.13 1.305.903-2.708 4.212.102.1 4.814-2.91 1.702 1.103-5.114 3.01c.302.6.502 1.303.403 2.105m-1.805-.099c0-.301-.301-.604-.804-1.004l-.601-.301-1.906 3.01.601.401c.503.3.903.4 1.205.3.4-.1.802-.401 1.103-1.004.402-.501.501-1.002.402-1.402m-41.01-5.548-1.692.22-1.33-13.279 4.395-.407.268 2.395-2.803.196 1.163 10.875m11.566-.014-1.61-.144.713-8.353c.163-1.008.139-1.712.027-2.108-.22-.495-.526-.684-.932-.772-.604-.079-.897.133-1.185.545-.186.408-.262 1.112-.427 2.12l-.71 8.354-1.613-.143.712-8.353c.073-.806.155-1.31.241-1.715.08-.605.264-1.113.549-1.523a3.063 3.063 0 0 1 1.157-1.347c.395-.214.891-.33 1.498-.252.501-.018.909.168 1.323.555.41.287.629.781.854 1.477.215.393.232.894.253 1.495.018.502.039 1.103-.037 1.808l-.813 8.356m6.116 1.12 2.06-8.463-5.784 7.624-1.512-.375 3.085-12.89 1.51.373-2.053 8.763 5.882-7.928 1.408.377-2.984 12.892-1.612-.374m2.809.604 3.649-12.744 1.629.417-3.651 12.742-1.627-.415m39.736 37.938 8.123-3.308-9.524-.3-.605-1.406 12.336-4.914.601 1.506-8.324 3.309 9.729.3.6 1.403-12.334 4.815-.602-1.405m14.012 4.361c-.464.726-1.028 1.461-1.804 2.004-.873.547-1.753.995-2.84 1.353-1.876.601-3.58.691-5.007.262-1.43-.426-2.27-1.185-2.74-2.466l-.854-2.869 12.652-3.876.732 2.472c.23.591.357 1.085.277 1.492.032.6-.14 1.112-.416 1.628m-1.923-2.208-.364-1.186-8.302 2.543.353.986c.354.985.886 1.56 1.808 1.914.817.26 2.019.197 3.298-.274 1.288-.37 2.162-.917 2.726-1.649.57-.632.729-1.444.481-2.334m-27.987-26.662 8.898-9.873 1.184 1.123-8.898 9.875-1.184-1.125m30.9 40.21c-.702.601-1.703.9-3.01 1.002-.899.1-1.704 0-2.304-.302-.702-.301-1.304-.7-1.605-1.202l-.3-.602c-.201-.3-.3-.4-.403-.604-.1-.099-.2-.299-.4-.299-.101-.101-.2-.101-.3-.2h-.503c-.5.099-.903.2-1.104.4-.3.201-.4.403-.4.703.1.3.2.5.5.602.303.1.703.2 1.306.2l.1 1.504c-1.203.1-2.206-.1-3.009-.502-.702-.4-1.102-.902-1.102-1.603-.1-.703.2-1.405.902-1.907.701-.501 1.604-.8 2.807-.903.402-.101.803-.101 1.103 0 .401.102.704.202 1.003.303.402.199.803.4 1.103.7.202.303.401.602.603 1.002.299.403.5.805.802.903.2.202.7.303 1.201.202.604 0 1.106-.202 1.406-.401.302-.201.402-.5.402-.902s-.201-.602-.602-.804c-.4-.2-.903-.2-1.605-.2l-.102-1.504c1.306-.099 2.408.099 3.312.5.8.403 1.302 1.004 1.302 1.806.1.803-.299 1.505-1.102 2.108M151.292 66.34l-1.706 1.605-3.509-3.71 1.704-1.505 1.203 1.205 7.923-7.523 1.104 1.204-7.924 7.521 1.205 1.203m2.637 7.617-1.104-1.505 3.509-4.714-5.616 2.006-1.001-1.505 8.323-2.807 3.911-2.909 1.002 1.405-3.81 2.809-5.214 7.22m2.265 4.357 10.027-9.326.903 1.605-2.807 2.507 1.403 2.707 3.711-.902.802 1.503-13.338 3.21-.701-1.304m7.12-1.906-.804-1.604-2.807 2.507 3.611-.903m-114.25 45.32-8.223 2.807 9.528.803.501 1.503-12.634 4.213-.503-1.504 8.523-2.908-9.726-.802-.501-1.405 12.536-4.212.5 1.504M87.1 39.996c-.4-.503-.801-.802-1.203-.903-.402-.2-.803-.2-1.304-.1-.4.1-.7.401-.903.703-.3.3-.5.701-.7 1.202a6.79 6.79 0 0 0-.202 1.506c.101.6.202 1.202.3 1.802.202.503.402 1.004.703 1.506.3.5.703.902 1.104 1.203.3.4.701.602 1.102.703.302.099.703.099 1.103 0 .402-.2.804-.4 1.104-.703.302-.4.401-.902.602-1.605l1.705-.502c0 1.405-.202 2.61-.703 3.51-.5.804-1.203 1.406-2.005 1.606a2.765 2.765 0 0 1-1.806 0 5.397 5.397 0 0 1-1.804-1.004c-.602-.501-1.104-1.103-1.605-1.803-.4-.803-.802-1.605-1.002-2.508-.301-.8-.402-1.605-.503-2.507 0-.802.101-1.504.202-2.306.3-.803.602-1.504 1.003-2.005.5-.503 1.002-.905 1.604-1.103.902-.202 1.704-.101 2.607.299.902.503 1.705 1.305 2.506 2.407l-1.905.602M54.307 76.5l-4.512-2.407-1.405 2.706 4.513 2.408-.802 1.505-11.733-6.318.8-1.405 5.116 2.708 1.405-2.708-5.116-2.707.802-1.405 11.734 6.217-.802 1.406m-4.563 3.91 2.106.9-2.005 4.614-2.107-.802.702-1.605-10.129-4.312.704-1.505 10.027 4.315.702-1.606m-3.096 25.11-8.727.501 8.927 3.308.099 1.606-13.236.702-.1-1.606 9.025-.501-9.227-3.309-.099-1.505 13.237-.8.1 1.603M34.1 95.456l12.837 4.815-.101 1.505-13.537 2.005.1-1.705 3.81-.6.3-2.911-3.51-1.303.101-1.806m9.328 5.215-3.611-1.303-.201 1.806 3.812-.503m-2.962 11.553.902 4.714-2.304.501-.503-2.707c-.803.4-1.304.803-1.605 1.304-.302.5-.401 1.003-.302 1.604 0 .302.202.7.502 1.004.301.3.702.5 1.204.701.4.2.902.3 1.504.4.502 0 1.103-.1 1.706-.2.602-.1 1.102-.3 1.704-.5.5-.303.903-.603 1.303-.902.302-.403.603-.704.704-1.104.099-.302.199-.703.099-1.103a2.391 2.391 0 0 0-.602-1.104 2.652 2.652 0 0 0-1.403-.702l-.403-1.906c1.406.101 2.508.501 3.311 1.003.802.604 1.303 1.304 1.504 2.207.101.602.101 1.203-.201 1.805-.199.6-.601 1.102-1.103 1.706-.602.6-1.202 1.002-2.005 1.403-.804.4-1.605.703-2.509.803-.9.2-1.804.3-2.606.2-.802 0-1.505-.2-2.207-.403-.801-.3-1.504-.7-2.005-1.203-.502-.5-.803-1.003-.902-1.703-.2-1.204.2-2.408 1.304-3.41 1.202-1.104 2.807-1.907 4.913-2.408m.366 20.976c.301-.401.702-.702 1.203-1.002.402-.2.902-.502 1.605-.903l7.52-3.61.702 1.504-7.522 3.61c-.902.502-1.502.803-1.804 1.102-.302.402-.302.804-.099 1.205.2.502.5.703 1.001.703.4 0 1.104-.302 2.007-.703l7.521-3.61.702 1.404-7.42 3.608c-.803.402-1.305.603-1.605.804-.603.2-1.104.302-1.606.302-.701 0-1.304-.102-1.703-.401-.502-.202-.803-.602-1.105-1.105-.2-.4-.302-.902-.2-1.403.1-.5.401-1.002.803-1.505m5.226 5.38c.602-.6 1.303-1.204 2.007-1.705.802-.502 1.603-.903 2.407-1.104.8-.3 1.603-.4 2.406-.4.802 0 1.503.2 2.004.4.603.302 1.104.703 1.405 1.205.3.501.503 1.102.503 1.703 0 .603-.101 1.306-.402 2.005-.303.704-.702 1.407-1.304 2.007a11.224 11.224 0 0 1-2.006 1.806c-.803.5-1.504.802-2.306 1.102-.803.3-1.505.501-2.206.501-.903 0-1.605-.101-2.308-.3-.601-.301-1.102-.7-1.504-1.303a3.484 3.484 0 0 1-.502-1.806c0-.703.203-1.404.502-2.205.302-.703.804-1.304 1.304-1.906m.703 4.613c.2.3.5.6.902.701.402.202.803.3 1.304.3s1.002-.098 1.604-.3c.502-.2 1.003-.5 1.504-.8.503-.303 1.003-.702 1.305-1.106.401-.4.702-.9.902-1.402.2-.402.301-.803.301-1.204 0-.401-.101-.703-.301-1.103-.302-.299-.602-.602-1.004-.702-.3-.201-.8-.302-1.403-.201-.502 0-1.003.101-1.403.201-.503.2-1.004.403-1.505.702-1.104.702-1.805 1.504-2.206 2.506-.4.902-.4 1.704 0 2.408m1.84-52.041-9.526-.103 8.323 4.613-.501 2.106-12.838-3.309.402-1.603 9.024 2.407-8.422-4.614.301-1.104 9.626.101-9.024-2.407.3-1.504L49.1 89.044l-.5 2.108M74.138 48.72l-1.103-2.106 2.509-1.305c-.603-.602-1.104-1-1.706-1.203-.602-.1-1.102-.1-1.604.202-.302.1-.603.399-.803.802-.2.301-.401.802-.401 1.304-.101.4-.101 1.002.099 1.504.102.5.302 1.103.603 1.704.2.502.602 1.004.901 1.404.402.4.803.702 1.304 1.004.402.2.804.4 1.204.4.302.1.702 0 1.102-.2.402-.2.704-.502.904-.904.202-.3.301-.902.301-1.503l1.706-.903c.301 1.404.199 2.609-.101 3.51-.302.902-.902 1.605-1.704 2.005-.603.304-1.205.402-1.805.304-.603 0-1.205-.203-1.907-.604-.701-.4-1.303-.902-1.905-1.605-.603-.6-1.102-1.403-1.503-2.206a11.533 11.533 0 0 1-.903-2.406c-.1-.803-.201-1.504-.201-2.307a7.982 7.982 0 0 1 .602-2.207c.402-.6.801-1.002 1.402-1.304 1.205-.601 2.408-.402 3.711.302 1.403.904 2.608 2.207 3.612 4.212L74.14 48.72m-3.057 4.662c.3.803.4 1.606.4 2.407 0 .703-.1 1.405-.301 2.005a5.24 5.24 0 0 1-1.202 1.405c-.4.3-1.003.501-1.605.602a5.09 5.09 0 0 1-2.005-.402 7.204 7.204 0 0 1-2.106-1.203c-.703-.6-1.305-1.202-1.806-2.006-.501-.702-1.004-1.505-1.303-2.205-.301-.803-.402-1.506-.503-2.31-.1-.799 0-1.602.202-2.204.301-.701.701-1.203 1.202-1.503.502-.403 1.205-.603 1.806-.603.701-.1 1.505.1 2.306.402.603.299 1.305.7 1.905 1.302.603.5 1.204 1.105 1.706 1.908.603.699 1.003 1.502 1.304 2.405m-1.604 1.404c0-.5-.101-1.004-.302-1.404-.101-.501-.4-1.002-.702-1.404-.802-1.102-1.604-1.804-2.507-2.205-1.003-.403-1.806-.403-2.508.1-.3.2-.501.5-.702.902-.099.4-.2.9-.2 1.404 0 .501.2 1.003.401 1.504.2.502.402 1.002.803 1.504.301.501.702.903 1.203 1.305.402.4.903.6 1.304.801.502.201.9.302 1.303.201.402 0 .702-.1 1.003-.3.402-.303.602-.603.803-1.004.101-.3.201-.802.101-1.404M50.046 68.703l1.803-2.709 1.906 1.303-1.805 2.708 2.608 1.705 1.804-2.708 1.906 1.304-2.707 4.01-11.032-7.319 2.707-4.012 1.905 1.304-1.702 2.609 2.607 1.805m31.54-16.724-4.814-12.335 1.506-.6 4.812 12.335-1.503.6M58.97 59.175c.803.602 1.304 1.306 1.805 2.007.5.7.8 1.504 1.102 2.205.101.802.2 1.504.101 2.106-.101.602-.402 1.103-.702 1.605-.402.402-.903.8-1.503 1.002-.603.2-1.306.2-2.007.101-.803 0-1.605-.302-2.407-.701-.802-.303-1.506-.804-2.207-1.405-.7-.602-1.304-1.204-1.805-1.906-.4-.602-.801-1.304-1.002-2.004-.3-.803-.4-1.506-.3-2.206 0-.705.3-1.305.701-1.806.4-.502 1.003-.904 1.605-1.003.702-.2 1.403-.3 2.306-.101a7.072 7.072 0 0 1 2.205.701c.704.302 1.506.803 2.108 1.405m-6.419.5c-.2.304-.402.703-.402 1.105-.099.402 0 .903.101 1.304.202.501.402 1.004.702 1.403.401.502.802.903 1.204 1.305.501.4 1.002.701 1.504 1.002.5.2 1.004.402 1.506.402.501.099.9.099 1.301-.1.303-.102.602-.302.904-.603.301-.301.402-.701.501-1.103 0-.401 0-.803-.2-1.405-.202-.501-.401-.901-.702-1.302-.301-.402-.602-.803-1.003-1.202-1.004-.805-2.008-1.306-3.01-1.506-1.001-.102-1.805.101-2.406.7m13.064 2.734-1.205 1.103-9.026-9.829 3.31-2.906L60.3 52.48l-2.106 1.906 7.422 8.022m81.276 90.002c0-1.377 1.106-2.46 2.412-2.46 1.406 0 2.511 1.083 2.511 2.46 0 1.378-1.105 2.461-2.51 2.461-1.307 0-2.413-1.083-2.413-2.46z" style="fill:#fff;fill-opacity:1;fill-rule:nonzero;stroke:none" transform="matrix(5.79718 0 0 -5.79718 -6.498 1210.904)"/><path d="M119.251 124.134c-5.544 7.457.783 19.355.783 19.355 1.202 2.406 4.179 5.617 4.179 5.617-9.527.299-12.504-4.713-12.504-4.713-2.623-3.122-4.412-5.014-4.412-5.014-1.805-.904-3.31 10.629-3.31 10.629-.566 3.071-1.63-2.503-2.085-2.329-3.31-7.724-3.711-9.51-4.072-9.294-2.937 6.624-9.285 9.015-9.285 9.015-2.308 1.205-2.967 2.008-2.752 1.341 10.028-11.332.745-23.303.745-23.303-24.896-.135-29.732-5.815-29.884-5.03V79.41c14.842 5.414 28.982 3.408 28.982 3.408 2.105-.602 1.404-2.807 1.404-2.807-1.604-2.507-.4-5.517-.4-5.517.901-1.805.4-3.208.4-3.208-3.918-3.822-.069-6.948.06-6.702.954-.402.185-1.613-.068-1.613-1.303-3.511 1.913-4.922 1.913-4.922-1.176-1.193-.111-3.014.157-2.917 1.204-2.71 9.57-1.997 9.57-1.997-1.682-2.636-1.498-3.302-1.119-3.512 14.694-1.584 20.539 2.575 20.407 1.94-.83 2.63 1.734 5.702 3.879 7.89 4.212 3.81 4.212 13.338 4.212 13.338.23 6.021-2.239 10.26-1.843 9.564 6.943 2.472 16.68-.92 25.934-2.035l1.38 43.014c-16.246 5.614-31.938.7-32.271.8m-28.065 6.818c1.742 4.604.92 7.777-.414 12.361.32-.317 3.689-.027 6.898-9.251 1.204-.708 1.204 0 1.204 0s1.804 8.123 4.312 11.331c-.598-.12 2.21-8.842 3.81-9.726 0 0 1.003-.602 1.203.4 0 0 3.712 9.326 11.433 10.531 0 0-6.644-11.563-3.91-19.454 0 0 6.719-9.062 0-18.089h-3.611s4.212 4.049.201 10.968c0 0-3.109 3.811-.4 10.129 0 0-2.91 0-6.118-6.719 0 0-1.806-.602-2.207 5.916 0 0-2.08-3.404-2.481-4.507 0 0-1.63-2.611-1.63 1.9l1.404 3.21s-6.92-1.205-7.522-11.333c0 0 0-6.88 4.312-9.587-6.72 0-5.852.1-5.852.1-2.833 1.87-3.77 4.919-4.313 8.088-.846 6.065 1.644 8.818 3.681 13.732M86.19 103.93v3.257h35.046v-3.257H86.19m22.972-1.757V87.755s-4.486.214-5.49 1.416c0 0-2.91-.43-4.514-2.036v15.038h10.004M97.067 76.1s3.01-1.205 4.414-1.003c0 0 2.507-1.004.802-1.805 0 0-3.208-1.004-2.807-3.009 0 0-7.321-1.506-10.531 2.607 0 0-2.908 3.009.802 10.731l5.114.401s2.809 1.203 3.011.4c0 0-1.43-2.391-2.431-3.394 0 0-2.285-3.123 1.626-4.928m5.016-16.849s-2.206 2.007.701 3.008c0 0 1.404-1.805-.701-3.008m-1.003-4.21s-.601 1.402.602 1.805c0 0 1.504-1.605-.602-1.805m1.704 8.523h-1.704s-1.203 2.606 2.106 3.21c0 0 1.405-1.204-.402-3.21m-2.106 6.218s-1.003 2.105 2.106 2.506c0 0 2.407.2 1.605-1.403 0 0-1.704-2.708-3.71-1.103m.2 49.441s.201 0 .4 2.205c0 0 .804 3.608 1.505 3.008 0 0 1.605-5.213 2.407-5.015 0 0 3.008 5.615 4.012 6.118 0 0-.22-4.082 2.708-8.022 0 0 2.078-6.22-2.236-8.525H99.476c.12 1.194-8.808 6.509-1.604 17.148-.709-.885 1.803-7.32 3.008-6.917M58.86 82.216v36.506c-1.68-.168 13.38 5.552 27.003 4.22.07.123.15.13.238-.02-.079.008-.159.013-.238.02-.602-1.048-.408-11.124 3.484-13.934h-4.915v-7.036H97.67V86.935c.042 0-.603-1.308-5.515-1.308 0 0-2.608.2-3.009-.803 0 0-16.447 2.708-30.286-2.608M86.84 68.378s.301 2.507 2.508 1.905c0 0 5.916-2.507 12.335-1.704v-1.203s-2.41-2.407-1.805-3.612c0 0-5.515-.8-7.722.803 0 0-6.32-.602-5.316 3.81m2.106-5.413s1.604.399 2.607.198c0 0 6.519-1.403 8.927-.802 0 0 1.002-2.306-.804-2.907 0 0-8.725-.804-9.928-.202 0 0-3.108 1.605-.802 3.713m1.604-7.523c.477-.478-2.13 1.527.201 2.205l9.127.403s1.203-.2.2-1.606l-.402-1.804s-8.123-.302-9.126.802m8.325-4.713s.505 2.05 1.308 2.65c0 0 2.804-1.047 3.806 3.668 0 0 1.508 5.076.304 6.28.239.716 1.153 1.786 0 4.956 1.042-.346 2.726 4.841-.104 7.015 0 0-.4.4-.601 1.203 0 0 2.027.745 2.829 2.049 0 0 2.543.432 2.744-.973l.043-26.648s-3.812-.802-10.329-.2m20.82 8.968s-3.17-3.452-3.17-4.857c-.79-2.908-.602-2.908-.602-2.908s-3.21-.802-5.316-.802v26.375s2.106.701 2.306-1.004c0 0-2.306-7.723 1.004-11.733 0 0 1.805-1.203 1.404.803 0 0-3.81 4.612-.2 11.732 0 0 2.205 1.304-.402 1.907 0 0-3.208-1.004-4.112.4l-1.803.402s-2.207 2.607-2.408 1.604c0 0-.201-1.807-1.406-2.607 0 0-6.316-5.917-8.422 0 0 0 .601 2.708 2.106 3.61 0 0 .6 1.805 1.204 3.009 0 0 2.406 2.607 4.714 1.102 0 0 10.528-2.306 14.44-1.303 0 0 3.41-.403 4.813-7.22 2.07-10.88-2.08-16.07-4.15-18.51m28.721 22.922s-18.44 4.233-25.358 2.127c0 0-2.623 3.188-5.131 2.184-7.349.737-7.349.56-7.349.56 0 15.043.029 14.483.029 14.483h12.237v7.02h-5.117s4.238 3.659 2.633 13.187c0 0 16.924 4.363 29.058-1.153l-1.002-38.408m-84.039 9.728h3.008l2.207 4.913h7.52l2.608-4.812h3.108l-9.726 21.659-8.725-21.76m11.935 8.122h-5.518l2.507 6.517 3.011-6.517m50.014 6.93c-.027-1.346.069-2.743.45-4.045.571-2.032 1.936-3.937 3.963-4.684v-1.986h-4.112v-2.66h6.169v5.314c-.75.492-1.48 1-2.083 1.698-1.334 1.524-2.064 3.715-1.83 5.736.147.963.337 1.916.814 2.773 1.047 1.937 3.175 3.143 5.381 3.23.937-.023 1.826-.15 2.715-.53 2-.89 3.397-2.922 3.777-5.07.065-2.297-.22-4.837-2-6.488a6.41 6.41 0 0 0-1.3-.92c-.287-.128-.572-.255-.914-.546v-5.196h6.52v2.66h-4.294v1.697c.656.337 1.291.686 1.862 1.194 1.905 1.683 2.92 4.381 2.988 6.92-.226 1.493-.575 2.922-1.305 4.256-1.524 2.857-4.54 4.476-7.957 4.589l-.1-.003c-1.31-.11-2.516-.332-3.691-.903-2.698-1.27-4.603-4.064-5.053-7.036z" style="fill:#2e3192;fill-opacity:1;fill-rule:nonzero;stroke:none" transform="matrix(5.79718 0 0 -5.79718 -6.498 1210.904)"/></svg>