<svg xmlns="http://www.w3.org/2000/svg" xml:space="preserve" style="fill-rule:nonzero;clip-rule:evenodd;stroke-linecap:round;stroke-linejoin:round" viewBox="0 0 150 150"><g fill="#00387a"><path d="M50.8 117.997a23.879 23.879 0 0 1-3.877-10.06 14.258 14.258 0 0 1-3.26-1.147c-1.713 1.974-4.25 3.248-7.09 3.216a10.491 10.491 0 0 1-2.252-.315c6.842 7.992 15.977 13.948 26.4 16.841-3.993-2.01-7.456-4.867-9.921-8.535m47.082-10.54c-8.605 7.044-16.431 10.626-23.27 10.626-1.516 0-2.996-.174-4.397-.526-11.427-2.812-11.053-10.314-11.034-10.645.054-5.323 3.521-5.59 4.23-5.59.868 0 1.627.331 2.186.911.568.58.87 1.328.87 2.139-.02 1.252-.835 2.404-2.036 2.807 0 0-.344.123-.273.42.078.26.446.193.446.193a6.353 6.353 0 0 0 5.203-6.174c.039-3.763-3.043-5.8-6.096-6.137a8.609 8.609 0 0 0-1.141-.064c-3.68 0-6.877 1.96-8.742 5.348-1.053 1.923-1.6 4.687-1.432 7.353.595 10.22 9.086 16.896 17.238 18.977 2.991.772 5.914 1.17 8.72 1.17.589 0 1.162-.022 1.735-.052 20.975-1.972 38.417-16.061 45.264-35.215-9.775.19-19.403 7.831-26.522 13.689l-.949.77Zm-51.148-3.363c.064-1.616.32-3.227.802-4.734 1.326-4.276 4.599-7.819 8.712-9.647a8.869 8.869 0 0 0-6.465-2.917c-4.914-.043-8.943 3.906-8.999 8.815-.048 3.918 2.437 7.251 5.95 8.483m33.407-51.202c-.265-.155-1.266-.783-1.994-1.422-.34-.308-.39-.602.271-.725 3.003-.544 5.44-1.034 7.902-2.07 2.299-.983 4.68-2.2 7.182-2.66a.359.359 0 0 1 .103-.015c2.13-.388 3.981.122 5.989.675 1.045.265 2.364.664 3.418.856 1.106.213 3.453.496 4.609.286-2.801 1.035-6.944.318-9.582-.073-2.828-.442-4.736.391-7.464 1.836-2.172 1.133-4.633 2.243-7.339 3.149-1.764.591-2.244.65-3.095.163m-13.082-1.02c-2.07.393-4.216.449-5.774.449-1.118-.035-1.603.364-2.148.76-2.026 1.433-6.672 5.011-10.17 6.605-2.142 1.064-5.06 1.703-6.424 1.95-.408.066-.613.197-.437.59.443 1.009 1.331 3.309 1.44 4.06 4.597-1.004 7.516-1.155 8.66-1.03.482.026.588.253.588.253s.127.21.244.384c.096.158.048.316-.195.344-1.356.108-5.872.594-9.436 2.454-.295.189-1.349.061-1.418-.277-.295-1.12-.278-2.025-1.015-3.36-1.725-3.545-2.588-3.877-2.284-4.445.124-.239.603-1.156 1.405-1.241 1.874-.286 6.73-1.439 7.596-1.803 2.941-1.203 7.222-3.72 11.089-7.594.406-.411 1.019-.616 2.203-.595 1.635.113 3.706.3 4.54-.052.442-2.04-.932-4.096-.994-5.329-.02-.408.937-1.36 1.228-1.413 1.66-.277 4.332.326 6.9.111 2.385-.199 4.27-.947 5.143-1.238.082-.021.212-.044.288.072.033.044.089.089.127.187.115.163.053.253-.074.428-.42.504-.908 1.008-2.215 1.949-1.982 1.43-4.778 1.462-6.318 1.649a.507.507 0 0 0-.45.428c-.084.382.506 2.18.315 2.792 5.343-1.008 8.43-2.22 13.428-4.495.32-.15.523-.283.675-.13.208.233.053.424-1.3 1.601-.92.783-6.18 4.23-15.217 5.937m2.748 3.277c-.996.264-1.592.433-2.341.883-1.166.742-2.091 1.197-3.078 1.302-.492.044-.89-.044-1.127-.403-.262-.428-.315-.999-.647-1.33-.228-.194-.203-.414.341-.422.552-.03 2.094-.066 3.015-.136a44.475 44.475 0 0 0 3.803-.41c1.204-.162.585.355.034.516m12.807-19.231c8.134 4.394 15.94 2.543 17.618 1.53-7.172 4.395-14.636 1.73-21.313-1.148-8.397-3.793-12.525-3.575-13.206-3.584-4.298-.04-8.848 1.183-11.815 4.749-1.327 1.6-1.244 4.33-.307 6.913 1.481 4.117.21 6.103-3.631 7.56-3.974 1.53-11.37 2.625-14.854 5.116-3.03 2.18-4.384 5.084-3.55 8.732 1.027 4.506 7.186 6.42 11.104 5.68-5.26 1.001-12.662.04-13.853-6.216-1.262-6.395 2.774-9.443 9.632-11.723 7.183-2.393 18.716-1.71 13.447-11.243-1.618-2.921-.135-6.042 2.589-8.33 4.352-3.659 11.69-3.943 15.692-3.081 0 0 4.672.935 12.447 5.045m45.518 33.066c-4.271 2.63-8.126 6.692-11.119 9.633-13.841 13.589-14.482 1.014-14.482 1.014s-1.933 2.22-11.966 3.726c-2.388.402-5.347.772-5.072 3.735.278 3.409 5.078 4.717 8.057 4.297 4.864-.786 6.864-4.953 6.873-4.972-.278 3.787-6.453 13.111-16.465 7.261-3.106-1.991-4.573-5.776-3.282-9.316 1.346-3.604 5.921-5.074 9.423-5.298 10.372-.594 14.084-4.24 14.084-4.24s-1.18 5.168 2.792 5.029c1.963-.081 3.773-.983 5.343-2.045 2.701-1.815 5.012-4.13 7.635-6.01 2.121-1.495 5.015-3.243 7.945-4.568a48.991 48.991 0 0 0-1.01-5.13c-.719.335-1.457.716-2.25 1.134-2.69 1.455-5.661 3.154-8.252 4.663-8.249 4.984-8.075-.626-7.988-1.8 0 0-9.42 8.955-18.985.935-2.146-1.79-4.142-4.009-4.692-4.859-.246-.368-.227-.424.268-.588 1.986-.758 4.08-.846 7.416-.25 5.727 1.003 9.193-1.041 12.359-3.376 7.714-5.64 15.752-3.658 17.349-3.355 0 0-9.461-4.178-16.639-.513-9.218 4.706-18.313 1.757-19.518 1.43-.555-.168-.597-.308.465-.786 1.808-.766 2.405-.994 3.725-1.255.817-.19 1.613-.114 2.527.08 2.86.555 6.193.464 8.891-.247 2.882-.78 5.407-1.876 8.175-1.907 5.678-.083 11.117 1.691 14.656 4.078-5.637-.97-10.504-.726-15.195 2.394-2.802 1.858-4.458 3.51-7.602 5.101-3.356 1.682-6.431 2.147-10.082 1.28-.257-.047-.34 0 0 .34 1.709 1.737 8.83 6.768 18.16-2.19-.17 2.175-.186 4.676 7.858 1.564 2.768-1.09 5.941-2.316 8.965-3.357-6.285-22.541-26.96-39.092-51.495-39.098-29.524 0-53.475 23.945-53.475 53.476a53.26 53.26 0 0 0 5.997 24.593c.579-4.527 4.42-8.008 9.067-8.047 1.453-5.965 6.844-10.365 13.249-10.31 2.22.013 4.307.597 6.154 1.557.286-.26.577-.533.911-.79 1.341-1.072 2.342-2.275 4.014-2.89 1.7-.665 3.9-.956 5.7-1.282.585-.108 1.097-.446 1.253-.938.52-1.512 1.23-3.582 1.769-4.76.334-.749.776-1.194 1.194-1.485-1.66-.269-3.445-1.018-5.405-2.471-.386-.297-.768-.486-1.249-.466-.996.067-2.822.177-4.196.375-1.16.158-3.002 2.007-4.346 3.065-.959.764-1.041.786-2.274.77-3.06-.02-6.633 1.587-6.856 1.66-.36.122-.454-.597-.502-1.217-.057-.546.06-1.477.205-1.632.321-.353 4.182-1.27 7.415-1.335.685-.02 1.885-.978 3.357-2.083 1.143-.867 2.224-1.913 3.238-1.969l4.64-.81s.602-.107 1.084.455c.48.611 1.844 2.127 4.316 2.802 1.468.394 6.343 1.224 10.281-2.836.054-.042.147-.15.277-.089.13.047.233.094.33.123.056.02.064.07.056.125-.243.486-.924 1.221-1.502 1.882-1.865 2.121-4.361 2.98-6.68 5.215-1.8 1.744-2.447 3.823-3.24 6.205-.353 1.037-.664 1.406-1.426 1.536-2.365.375-4.532 1.255-6.137 2.996-1.201 1.294-1.794 1.974-2.502 2.763.738.824 1.393 1.727 1.893 2.71.236-.008.467-.033.679-.033 3.672 0 7.233 1.421 9.526 3.817 1.965 2.021 2.933 4.59 2.826 7.425-.142 3.824-2.77 8.458-8.198 9.625l-.676.146.555.4c3.695 2.851 8.816 2.571 12.975 1.066 7.21-2.602 13.759-7.089 20.301-11 .565-.334 12.598-8.07 22.541-8.07 1.21 0 2.394.09 3.535.264a53.41 53.41 0 0 0 2.797-17.062c0-2.028-.121-4.032-.343-6.01M41.369 105.33c-2.844-2.232-4.791-5.59-5.111-9.397-2.57.494-4.503 2.75-4.547 5.447-.028 3.094 2.464 5.646 5.56 5.68a5.56 5.56 0 0 0 4.098-1.73"/><path d="M23.433 23.437C10.226 36.626 2.063 54.86 2.063 74.995c0 20.152 8.163 38.376 21.37 51.568 13.183 13.208 31.417 21.368 51.562 21.368 20.145 0 38.372-8.16 51.568-21.368 13.208-13.192 21.373-31.416 21.373-51.568 0-20.136-8.165-38.369-21.373-51.558C113.367 10.217 95.14 2.063 74.995 2.063s-38.379 8.154-51.562 21.374M0 74.995C0 33.572 33.572 0 74.995 0c41.426 0 75.009 33.572 75.009 74.995 0 41.436-33.583 75.005-75.009 75.005C33.572 150 0 116.431 0 74.995"/><path d="m27.488 108.82-8.3 5.826-.58-.809 8.307-5.83.573.813ZM123.089 108.006l8.314 5.832-.583.807-8.304-5.826.573-.813ZM6.526 84.71l2.303-.463.038.189.204 1.063-.19.038-.936.195.702 3.512 4.002-.796-.49-2.375-.96.195-.038-.206-.2-.958 3.08-.616.038.205.2.967-.203.047-.765.153.49 2.363 4.289-.877-.774-3.847-1.237.247-.044-.193-.213-1.056 2.303-.458.178-.039 1.675 8.269-.212.04-.954.193-.037-.202-.185-.95-9.54 1.918.225 1.142-.2.05-.95.194-1.6-7.944ZM5.978 76.813l.205-.017.971-.006.004.2v.87l6.032-.05c.998-.009 1.732-.064 2.17-.164a2.356 2.356 0 0 0 1.049-.507c.51-.48.745-1.08.745-1.853.023 0 0-.011 0-.02-.003-.754-.235-1.371-.73-1.855-.409-.408-1.351-.665-2.826-.66-.038 0-.065 0-.09.013l-6.375.046.004 1.16-.19.011-.984.015-.026-3.924h.195l.967-.006v.208l.02.963 5.938-.04c.084-.004.152-.004.239-.004.966 0 1.677.044 2.18.17.525.108 1.03.364 1.514.752.896.708 1.352 1.835 1.352 3.302v.074c0 1.445-.368 2.558-1.161 3.268-.78.74-2.015 1.087-3.648 1.104l-6.348.052v1.18H6.007l-.029-4.282ZM17.875 69.255l-.956-.18.035-.195.187-.957-9.536-1.908-.23 1.146-.202-.038-.959-.184.55-2.71 9.956-4.011-7.654-1.531-.233 1.158-.186-.052-.964-.178.746-3.738.205.024.953.198-.039.203-.186.942 10.846 2.168-.313 1.558-.027.096-9.908 3.91 7.48 1.5.213-1.156.213.054.948.19-.74 3.738-.2-.047ZM15.612 45.756l-1.184-.39c-.414.296-.76.606-1.05.926-.295.367-.52.722-.678 1.108-.216.46-.307.914-.307 1.36 0 .586.161 1.15.5 1.745.588 1.026 1.626 1.85 3.108 2.479.87.394 1.677.577 2.454.577a4.3 4.3 0 0 0 1.354-.213c1.157-.364 1.962-1.11 2.472-2.289.142-.333.259-.77.36-1.285l-2.915-1.253-.538 1.253-.181-.086-.882-.386 1.64-3.86.19.078.899.384-.074.185-.233.547 3.628 1.541-.026.164c-.23 1.53-.556 2.775-.955 3.737-.714 1.622-1.807 2.711-3.277 3.227a5.44 5.44 0 0 1-1.861.309c-.958 0-1.968-.226-3.017-.678-1.783-.758-3.011-1.838-3.638-3.205a4.794 4.794 0 0 1-.473-2.074c0-.78.193-1.6.558-2.45.256-.598.568-1.192.926-1.765a18.36 18.36 0 0 1 1.22-1.732l.106-.122 2.366 1.018-.492 1.15ZM19.687 33.636l2.207-3.1.965.668-.665.952 9.007 6.398-.898 1.282-.073.1-10.63-.458 6.216 4.404.671-.95.17.117.801.561-2.215 3.11-.156-.114-.8-.563.117-.162.563-.796-7.955-5.629-.666.958-.96-.678 1.6-2.24 10.705.385-6.362-4.514-.67.954-.972-.685ZM30.755 32.056l2.6-2.488-4.466-2.068 1.866 4.556Zm-3.21-7.45 10.84 5.032.52-.539.83.869-2.846 2.71-.819-.863.702-.67-2.257-1.035-3.284 3.118.944 2.313.786-.747.806.858-2.306 2.199-.816-.845.533-.513-4.5-11.056.866-.83ZM51.06 22.927l-3.664 2.229-.603-1.008.99-.6-3.87-6.34 1.389 8.186-.889.562-6.791-5.293 4.008 6.612 1.074-.666.616 1.016-3.338 2.024-.596-.998.985-.61-5.046-8.313-1.004.605-.601-1.013 2.917-1.772 6.989 5.39-1.493-8.716 2.663-1.622.602 1.01-.999.595 5.058 8.313.993-.597.61 1.006ZM54.912 8.735l4.188-.921.252 1.151-1.045.216 1.278 5.904c.218.969.422 1.67.606 2.09.18.404.413.701.723.909.403.303.845.439 1.357.439.19 0 .412-.017.636-.064.743-.175 1.263-.539 1.657-1.116.165-.264.256-.68.256-1.231 0-.475-.073-1.07-.215-1.757l-1.368-6.24-1.131.256-.255-1.154 3.819-.825.261 1.137-1.145.262 1.253 5.806c.224 1.002.343 1.769.343 2.302v.092c-.013.535-.173 1.088-.425 1.626-.53 1.044-1.544 1.71-2.954 2.022-.506.108-.991.16-1.413.16-.83 0-1.544-.194-2.129-.608-.868-.624-1.474-1.751-1.82-3.345l-1.346-6.208-1.15.25-.233-1.153ZM77.317 18.192 71.464 9.29l.061 7.633 1.172-.022.011 1.18-3.814.033-.01-1.18h1.176l-.083-9.73-1.166.006-.014-1.18 2.758-.013 5.96 8.913-.077-7.797-1.166.016-.004-1.18 3.802-.036.01 1.18-1.17.012.095 11.064-1.688.003ZM81.78 17.245l1.154.181 1.479-9.613-1.153-.178.185-1.171 4.356.685-.18 1.161-1.154-.18-1.487 9.602 1.142.189-.18 1.171-4.353-.68.19-1.167ZM89.594 7.333l3.841 1.147-.33 1.125-1.034-.315.64 8.274 4.935-6.613-1.03-.295.345-1.138 3.054.914-.338 1.122-.716-.215-7.077 9.447-1.003-.306-.923-11.81-.715-.21.351-1.127ZM103.887 25.714 96.3 22.035l.502-1.058 1.049.495 4.253-8.739-1.045-.51.505-1.058 7.29 3.534-1.021 2.116-1.144-.569.489-1.042-3.219-1.577-1.784 3.671 2.185 1.063.416-.888 1.059.513-1.352 2.836-1.077-.533.43-.87-2.174-1.058-1.915 3.944 3.523 1.71.566-1.133 1.148.555-1.097 2.277ZM123.774 29.92l.798-.902a4.296 4.296 0 0 0-.341-.938 3.402 3.402 0 0 0-.558-.764c-.277-.288-.604-.433-1.052-.433h-.087c-.464.028-.862.197-1.241.55-.321.327-.486.755-.486 1.34 0 .318.049.67.154 1.075l.234.917c.293 1.08.437 1.932.437 2.585 0 .11-.005.224-.019.344-.072.67-.394 1.286-.938 1.832-.67.643-1.466.984-2.378.984h-.008c-.079 0-.169-.008-.264-.014-1.015-.064-1.935-.519-2.731-1.316-.435-.47-.83-.916-1.156-1.388a7.157 7.157 0 0 1-.806-1.395l-.048-.136 1.835-1.801.88.908-.824.951c.119.442.24.839.364 1.148.16.346.325.61.521.797.425.44.89.661 1.42.685h.093c.503 0 .915-.186 1.311-.56.355-.337.54-.7.607-1.092.013-.108.03-.21.03-.34 0-.38-.079-.834-.221-1.408l-.232-.909c-.241-.886-.373-1.613-.373-2.225 0-.16.01-.315.037-.46a2.927 2.927 0 0 1 .861-1.76c.626-.609 1.385-.941 2.233-.927h.188c.931.044 1.756.446 2.475 1.174.364.377.704.793 1.015 1.227.313.41.573.866.804 1.358l.059.116-1.713 1.683-.88-.905ZM120.006 38.148l.712.93 7.748-5.859-.701-.938.934-.714 2.66 3.505-.931.71-.718-.94-7.761 5.88.708.936-.934.725-2.654-3.516.937-.719ZM125.717 48.963l-2.191-3.831 1.045-.586.583 1.027 8.368-4.756-1.447-2.557-1.197.67-.63-1.118 2.299-1.302 5.19 9.17-2.297 1.306-.63-1.116 1.189-.668-1.462-2.566-8.388 4.734.592 1.01-1.024.583ZM129.273 57.526l-1.513-4.128 1.089-.414.424 1.108 3.879-1.436 4.109-5.014-.269-.737 1.109-.39 1.432 3.915-1.102.405-.343-.944-2.896 3.554 4.523.9-.351-.961 1.113-.408 1.13 3.085-1.107.42-.276-.749-6.207-1.191-4.06 1.489.403 1.091-1.087.405ZM131.971 71.793l-.66-5.826 1.18-.132.216 1.943 9.376-1.045-.603-1.899 1.206-.132 1.214 3.808-10.985 1.22.222 1.938-1.166.125ZM137.251 104.771l-1.009-.413-.04-.047c-2.773-4.57-5.44-7.428-7.921-8.586l-.165-.092.732-1.862.1-.215.199.122c2.116 1.331 4.529 4.235 7.259 8.708l2.25-5.57 1.709.69-2.934 7.332-.18-.067ZM115.051 22.707c-.539.73-1.091 1.086-1.698 1.157h-.199c-.568 0-1.187-.224-1.891-.732l-.238-.186 2.706-3.696.073.058c.989.71 1.554 1.33 1.693 1.788.034.106.06.228.06.35 0 .344-.155.78-.506 1.261m2.308-1.305c-.263-.857-.948-1.64-2.035-2.438l-3.498-2.56-.581.783-.124.156.936.688-5.728 7.858-.785-.577-.156-.117-.589.8-.116.144 3.555 2.61.572-.799.112-.15-.927-.7 2.341-3.202.703.52-.451 6.047 2.195 1.62.583-.79.122-.175-.787-.568.267-5.285c.382.094.734.141 1.093.141.339 0 .66-.047.975-.14.7-.198 1.293-.662 1.779-1.326.428-.597.65-1.185.65-1.794 0-.26-.039-.501-.106-.746M143.093 77.86c-.022.62-.364 1.142-1.067 1.57-.657.385-1.429.577-2.342.577h-.291c-.646-.044-1.147-.268-1.548-.717a2.236 2.236 0 0 1-.559-1.532v-.142c.018-.606.286-1.05.843-1.405.472-.289 1.113-.455 1.933-.455h.293c.903.053 1.593.274 2.087.647.442.37.651.79.651 1.355v.102Zm.108-2.788c-.767-.786-1.782-1.215-2.992-1.276-.064-.006-.137-.006-.209-.006-.995 0-1.871.335-2.627.947-.794.693-1.223 1.568-1.267 2.593v.177c0 .481.091.936.274 1.378.143.358.346.68.595.994-1.293-.187-2.289-.548-3.016-1.037-.769-.536-1.134-1.162-1.134-1.92v-.108a3.51 3.51 0 0 1 .142-.757c.064-.216.152-.446.269-.68l.746-.038.186-.008.047-1.05.01-.22-2-.09-.048.146a8.14 8.14 0 0 0-.37 1.26c-.08.432-.145.851-.166 1.272v.239c0 1.418.602 2.61 1.748 3.54 1.2 1 2.814 1.548 4.794 1.642.23 0 .452.008.651.008 1.614 0 2.88-.288 3.783-.891 1.054-.684 1.604-1.783 1.661-3.216 0-.07.011-.144.011-.208 0-1.045-.368-1.954-1.088-2.69M135.244 88.994l.741-3.288 3.669 4.26-4.41-.972Zm.637-5.247-.84-.189-.187-.037-1.153 5.132-2.065-.458.209-.94.05-.195-.967-.207-.203-.058-.906 4.11.953.202.196.05.266-1.143 2.063.483-.387 1.676 1.554.358.372-1.707 7.224 1.614.232-1.08.025-.089-6.436-7.522ZM118.938 126.563l-3.759-4.687-2.177 1.733.234.308c.261-.22.595-.303 1.02.202l3.014 3.766-1.003.813-3.746-4.704-2.164 1.747.23.291c.253-.2.59-.291 1.007.214l3.005 3.78-1.446 1.171.772.959 9.505-7.568-.779-.994-3.713 2.969Zm.247-1.678 1.719-1.387-6.062-7.554-7.823 6.251.787 1.003 6.119-4.898 5.26 6.585ZM51.339 135.537l3.963 1.383-1.103 3.193-3.97-1.394 1.11-3.182Zm-2.429-1.769c.316.117.578.361.364.967l-1.07 3.057c-.282.833.085 1.596.972 1.922l6.69 2.326 1.96-5.57-8.786-3.06-.13.358Zm10.669-2.374.793-2.237-2.716-.953-.13.374c.31.107.572.34.354.958l-1.19 3.413-5.89-2.055 1.466-4.213-2.734-.941-.123.34c.312.128.568.361.352.971l-1.021 2.944c-.297.822.067 1.571.96 1.86l6.569 2.301-.289.848 2.089.74 1.111-3.17 1.871.656.413-1.189-1.886-.647ZM39.118 123.386l-1.82-1.497c.186-.141.355-.318.505-.504.154-.19.276-.379.379-.578l1.812 1.475-.876 1.104Zm-3.016-3.382c-.73.894-1.824 1.381-2.582.758-.754-.627-.53-1.793.199-2.679.72-.888 1.81-1.342 2.563-.733.75.603.525 1.774-.18 2.654m5.14-.286-.228.286c.255.219.408.542.004 1.036l-.235.278-2.223-1.821c.09-1.106-.394-2.281-1.472-3.138-1.716-1.397-3.867-1.162-5.074.318-1.195 1.478-.996 3.658.717 5.054 1.05.853 2.269 1.072 3.338.787l2.269 1.832-.977 1.191 1.723 1.405 4.396-5.425-2.238-1.803Zm-6.353 8.655c-.772.966-2.016 1.21-2.882.508-.881-.697-.897-1.99-.116-2.934.773-.959 2.027-1.172 2.882-.498.854.708.902 1.972.116 2.924m.7-3.915c-1.99-1.602-4.227-1.413-5.43.075-1.191 1.475-.924 3.729 1.045 5.317 1.986 1.603 4.242 1.433 5.434-.072 1.214-1.483.915-3.715-1.05-5.32M78.208 131.064v.369c.327 0 .649.161.649.791v2.546h-1.21v-3.706h-2.693v.369c.326 0 .629.161.629.791v6.633h-3.886v-5.938h2.582v-1.289h-5.422v.381c.32 0 .655.16.655.81v5.854c0 .883.586 1.438 1.524 1.438h4.547v4.587h2.064v-8.69h1.21v8.69h2.106v-13.636h-2.755ZM99.534 129.103l-1.005-2.863-2.704.95.115.367c.316-.097.675-.073.893.53l2.12 6.042 2.106-.738-1.091-3.093 1.865-.659-.413-1.197-1.886.661ZM92.542 138.68l7.123-2.511 1.299 3.685 2.1-.732-1.703-4.862-9.252 3.237.433 1.183ZM93.726 134.59c-.82.297-1.515-.306-1.88-1.302-.326-.985-.161-1.894.65-2.18.798-.291 1.518.325 1.86 1.308.347.966.19 1.903-.63 2.174m2.005-6.072-2.664.944-.532-1.555-2.718.971.12.345c.325-.106.663-.081.876.543l.151.428-2.648.939.408 1.15 1.205-.428a3.024 3.024 0 0 0-.074 2.121c.589 1.619 2.376 2.479 4.302 1.791 1.895-.652 2.754-2.459 2.181-4.076a3.016 3.016 0 0 0-1.37-1.608l1.167-.413-.404-1.152ZM9.891 98.152l1.07-.44-.365-.952 5.59.46-3.85 4.047-.368-.968-1.091.429 1.58 4.107 1.08-.416-.352-.942 5.118-5.528 2.845-1.11.43 1.11 1.053-.418-1.566-4.083-1.071.4.437 1.088-3.008 1.15-7.351-.688-.336-.853-1.084.405 1.24 3.202Z"/></g></svg>