<svg xmlns="http://www.w3.org/2000/svg" width="185.54128mm" height="185.53987mm" viewBox="0 0 185.54128 185.53987"><path d="M460.261-171.787c0-53.12-43.064-96.179-96.183-96.179-53.121 0-96.18 43.059-96.18 96.179 0 53.12 43.059 96.182 96.18 96.182 53.119 0 96.183-43.062 96.183-96.182z" style="fill:#1c63b7;fill-opacity:1;fill-rule:nonzero;stroke:none" transform="matrix(.96454 0 0 -.96454 -258.4 -72.924)"/><path d="M289.194-211.701c1.338-.408 2.338-1.224 3-2.447.665-1.223.799-2.5.404-3.831-.401-1.35-1.213-2.357-2.436-3.02-1.223-.664-2.504-.792-3.841-.384-1.331.395-2.328 1.204-2.991 2.427-.671 1.236-.809 2.52-.413 3.85.4 1.318 1.213 2.309 2.437 2.972 1.224.663 2.503.808 3.84.433m-1.991-6.654c.51-.14.99-.088 1.44.156.464.251.769.625.916 1.122.148.496.1.97-.145 1.42a1.823 1.823 0 0 1-1.122.917 1.824 1.824 0 0 1-1.44-.156 1.874 1.874 0 0 1-.917-1.122 1.829 1.829 0 0 1 .156-1.44c.245-.45.616-.75 1.112-.897m7.384 18.602c1.318-.402 2.305-1.208 2.961-2.418.663-1.224.808-2.504.433-3.84-.395-1.33-1.211-2.331-2.446-3.002-1.199-.65-2.47-.78-3.812-.392-1.35.4-2.357 1.213-3.021 2.436-.65 1.198-.774 2.471-.373 3.822.408 1.338 1.21 2.331 2.408 2.98 1.223.664 2.507.802 3.85.414m-.903-2.99c-.491.168-.981.118-1.47-.147a1.826 1.826 0 0 1-.917-1.122 1.857 1.857 0 0 1 .148-1.47c.265-.489.65-.813 1.153-.974.484-.154.964-.102 1.44.156s.789.636.936 1.133a1.83 1.83 0 0 1-.156 1.44c-.266.49-.644.817-1.134.984m2.006-13.145-1.33 2.453 2.307 1.251 1.33-2.453.832.451-1.331 2.453 2.318 1.257 1.33-2.453 1.023.555 1.536-2.83-8.064-4.373-1.535 2.83zM298.848-225.247l13.466-13.047-5.893-6.082-13.465 13.047 5.892 6.082m9.175-12.805-8.82 8.546-1.957-2.02 8.82-8.546 1.957 2.02m-2.367 20.146 2.335-2.261-3.9-4.024 6.076-5.887-2.087-2.154-8.41 8.148 5.986 6.178m9.877-17.066-2.646-2.73-2.334 2.261 6.4 6.605 2.334-2.262-1.666-1.72 1.45-1.406-2.086-2.155zM326.062-239.688l-6.148-5.053-2.011 2.705 8.499 6.602 2.887-1.448.025-10.878-3.606.113.354 7.959m10.257-7.871L330.88-258.4l-2.904 1.457 8.3 16.547 2.906-1.457-1.517-3.024 1.806-.907-1.345-2.681zM344.548-244.722c1.306.935 2.761 1.275 4.368 1.02 1.59-.252 2.863-1.025 3.814-2.318.954-1.278 1.306-2.706 1.056-4.283-.255-1.606-1.036-2.884-2.344-3.833-1.307-.95-2.757-1.298-4.348-1.046-1.606.255-2.884 1.036-3.833 2.344-.932 1.32-1.273 2.775-1.02 4.367.25 1.576 1.02 2.826 2.307 3.75m1.877-2.479a2.604 2.604 0 0 1-1.08-1.764 2.602 2.602 0 0 1 .48-2.012 2.606 2.606 0 0 1 1.764-1.08c.71-.113 1.366.05 1.97.488a2.605 2.605 0 0 1 1.08 1.764 2.606 2.606 0 0 1-.481 2.012c-.44.59-1.016.94-1.725 1.052a2.64 2.64 0 0 1-2.008-.46m12.16 1.564 3.18-.505-2.903-18.294-3.18.505zM377.72-255.278l-11.039-1.617-1.566 10.697 3.216.471.257-1.76 4.607.674-.258 1.76 3.216.472 1.567-10.697m-8.258 1.822 4.607.675-.439 3-4.607-.676.44-2.999m12.104 6.195-.496 3.392 3.184.466 2.683-18.317-3.185-.467-1.75 11.958-2.762-.404-.435 2.968zM393.769-248.084l5.434 2.644 1.312-2.698-8.357-4.067-4.732 9.723 8.358 4.066 1.313-2.697-5.433-2.644 2.105-4.327m10.898 7.005-1.069-.52 5.365-11.024-2.894-1.408-8.109 16.664 2.894 1.408 1.5-3.082 1.068.52-1.5 3.082 2.894 1.408 8.11-16.664-2.895-1.409zM410.886-229.62l-1.208 1.278 2.523 2.385 1.207-1.276 2.97 2.808 1.91-2.02-.99-.937c.307-.154.577-.301.812-.442.306-.195.579-.42.821-.676.926-.979 1.37-2.152 1.331-3.519-.038-1.366-.546-2.513-1.525-3.439-.979-.926-2.147-1.365-3.503-1.317-1.356.048-2.497.562-3.423 1.541a4.345 4.345 0 0 0-.629.857 5.277 5.277 0 0 0-.38.85l-1.022-.966-1.911 2.02 3.017 2.854m2.754-2.24c-.003-.488.156-.901.479-1.242a1.674 1.674 0 0 1 1.213-.546c.497-.015.915.14 1.255.461.363.343.55.763.564 1.26.024.486-.13.905-.462 1.256-.322.34-.731.518-1.229.531a1.775 1.775 0 0 1-1.273-.508 1.725 1.725 0 0 1-.547-1.213m20.694-1.003-2.36-2.233-3.459 3.656-11.11-10.51-2.062 2.18 13.472 12.742 5.52-5.835m-9.256 9.786 2.794-2.954-2.362-2.233-6.5 6.873 2.36 2.233 1.646-1.74 1.469 1.39 2.061-2.18zM440.194-207.343l-6.12 3.416-7.464-13.373-2.62 1.462 9.048 16.211 8.74-4.878-1.584-2.838m-.597-9.9 1.95 3.493-4.26 2.377 1.67 2.993 4.26-2.377 2.623 4.7 2.62-1.462-9.606-17.21-2.62 1.462 1.672 2.993-4.26 2.378 1.691 3.03zM284.511-160.152l-4.073.642-6.163-2.657.362 2.297 4.194 1.661-3.486 2.825.354 2.245 5.06-4.428 4.059-.64zM281.033-152.004c-.958.285-1.72.667-2.284 1.146a4.61 4.61 0 0 0-1.029 1.257c-.271.482-.433.97-.486 1.465-.074.658.002 1.37.23 2.134.41 1.383 1.168 2.362 2.275 2.938 1.105.574 2.424.635 3.954.18 1.517-.451 2.583-1.216 3.195-2.294.612-1.079.713-2.308.304-3.687-.415-1.396-1.172-2.38-2.27-2.95-1.097-.57-2.393-.633-3.89-.189m.514 1.966c1.067-.316 1.948-.31 2.644.019.696.33 1.157.873 1.383 1.632.225.758.137 1.462-.264 2.11-.401.649-1.147 1.135-2.24 1.46-1.078.32-1.953.322-2.624.006-.672-.316-1.124-.866-1.358-1.65-.232-.783-.152-1.495.244-2.135.394-.64 1.132-1.12 2.215-1.442zM280.275-138.15l.812 1.792 4.847-2.198c.769-.348 1.277-.552 1.525-.611.402-.09.779-.04 1.131.149.353.188.643.534.87 1.035.232.51.301.941.21 1.295a1.36 1.36 0 0 1-.561.817c-.281.191-.776.448-1.484.769l-4.95 2.245.814 1.793 4.695-2.13c1.074-.487 1.81-.88 2.21-1.178.398-.297.691-.646.878-1.045.186-.399.271-.857.255-1.376-.018-.519-.186-1.13-.505-1.832-.385-.85-.775-1.448-1.17-1.797-.397-.349-.81-.58-1.241-.691a2.71 2.71 0 0 0-1.219-.054c-.565.115-1.349.4-2.349.854l-4.768 2.162zM293.728-132.642l-8.313 5.184 1.013 1.626 7.72-.056-5.583 3.482.968 1.551 8.312-5.184-1.046-1.677-7.578.04 5.474-3.414-.967-1.552zM299.618-117.962l-1.274 1.058 2.716 3.269 3.006-2.497c.043-.575-.07-1.262-.337-2.06a6.573 6.573 0 0 0-1.175-2.129c-.654-.787-1.39-1.337-2.208-1.647a4.1 4.1 0 0 0-2.516-.14 5.977 5.977 0 0 0-2.377 1.227c-.786.652-1.347 1.397-1.684 2.233a4.32 4.32 0 0 0-.205 2.61c.151.692.525 1.397 1.123 2.116.776.935 1.58 1.503 2.408 1.703.828.2 1.65.09 2.467-.334l-.97-1.754c-.46.203-.919.246-1.377.132-.458-.115-.87-.39-1.234-.83-.552-.664-.78-1.368-.684-2.111.097-.744.56-1.46 1.392-2.151.896-.745 1.735-1.104 2.516-1.077.78.028 1.44.365 1.978 1.014.267.32.47.694.613 1.12.144.426.222.829.236 1.208l-.956.794zM306.85-115.183l-6.623 7.22 1.411 1.295 7.424-2.12-4.448 4.849 1.347 1.236 6.623-7.22-1.457-1.336-7.292 2.066 4.362-4.754zM321.99-103.097l-1.76-1.234-1.96 1.335-3.213-2.252.615-2.278-1.73-1.212-2.524 10.194 1.751 1.228 8.822-5.78m-5.199 1.087-3.203 2.2 1.01-3.738zM323.456-102.229l-4.444 8.732 2.646 1.346 4.597-5.159-1.472 6.749 2.64 1.344 4.444-8.732-1.63-.829-3.504 6.87 1.772-7.75-1.695-.863-5.216 5.998 3.49-6.877zM343.828-90.218l2.01-.059c.003-1.113-.255-2.012-.776-2.696-.521-.685-1.29-1.168-2.304-1.45-1.256-.348-2.406-.206-3.45.425-1.047.632-1.776 1.69-2.187 3.175-.436 1.57-.369 2.903.203 3.997.571 1.094 1.518 1.825 2.842 2.192 1.157.32 2.19.24 3.1-.24.542-.284 1.025-.772 1.448-1.466l-1.756-.974c-.249.457-.59.778-1.023.962-.435.184-.906.206-1.415.064-.703-.194-1.203-.604-1.502-1.228-.298-.624-.291-1.498.02-2.623.332-1.193.783-1.984 1.354-2.37.571-.388 1.201-.486 1.89-.294.51.14.902.423 1.18.846.276.424.398 1.003.366 1.739zM351.525-92.355l-.588 4.081-4.357 5.105 2.302.331 2.825-3.516 1.67 4.164 2.25.323-2.739-6.14.586-4.068zM358.585-81.67l3.913.066c.774.013 1.352-.01 1.734-.067a2.55 2.55 0 0 0 1.027-.386c.305-.2.56-.468.766-.805.206-.337.312-.716.32-1.138a2.296 2.296 0 0 0-.345-1.268 2.282 2.282 0 0 0-.981-.877c.596-.164 1.057-.453 1.383-.867.326-.414.493-.904.503-1.47a2.925 2.925 0 0 0-.288-1.308 2.629 2.629 0 0 0-.831-1.024c-.355-.258-.794-.42-1.319-.488-.329-.041-1.123-.077-2.383-.107l-3.333-.057-.166 9.796m1.997-1.592.038-2.265 1.297.022c.772.013 1.251.032 1.439.058.338.046.603.167.794.364.19.197.283.454.277.77-.005.303-.093.548-.262.734-.171.187-.422.298-.752.332-.198.019-.762.02-1.695.005l-1.136-.02m.065-3.89.045-2.624 1.839.03c.717.013 1.17.04 1.362.084.294.059.532.193.715.404.182.21.27.49.265.839a1.28 1.28 0 0 1-.228.746 1.21 1.21 0 0 1-.629.438c-.272.089-.86.126-1.765.11l-1.604-.027zM369.345-91.479l1.06 9.74 7.209-.785-.18-1.646-5.25.571-.235-2.159 4.878-.531-.18-1.647-4.878.532-.287-2.64 5.436-.593-.18-1.647zM379.109-92.69l2.29 9.525 4.033-.97c1.015-.243 1.732-.507 2.15-.788a2.24 2.24 0 0 0 .884-1.178c.171-.503.19-1.036.054-1.6-.17-.714-.522-1.253-1.053-1.618-.53-.364-1.226-.507-2.088-.428.357-.343.635-.691.835-1.047.2-.355.44-.959.72-1.81l.713-2.14-2.297.553-.886 2.404c-.314.861-.539 1.41-.673 1.647a1.518 1.518 0 0 1-.482.536c-.185.121-.499.234-.94.34l-.389.094-.957-3.98-1.914.46m3.236 5.039 1.42-.341c.92-.221 1.503-.32 1.75-.298.248.023.46.115.635.274.175.16.297.381.366.667.076.32.054.6-.07.838-.123.238-.334.42-.632.547-.15.059-.614.182-1.392.369l-1.497.36-.58-2.416zM397.819-88.023l1.792-.815-2.204-4.844c-.35-.769-.555-1.277-.614-1.525a1.59 1.59 0 0 1 .148-1.13c.187-.354.532-.644 1.034-.873.509-.231.94-.302 1.295-.21.354.091.626.278.817.56.192.28.449.775.77 1.482l2.252 4.947 1.792-.815-2.136-4.693c-.488-1.073-.882-1.809-1.18-2.207a2.77 2.77 0 0 0-1.046-.878c-.4-.186-.859-.27-1.377-.253-.518.018-1.13.187-1.831.506-.85.387-1.448.778-1.796 1.174-.348.397-.578.81-.69 1.241-.111.43-.128.837-.052 1.22.117.565.402 1.347.857 2.346l2.169 4.767zM403.312-101.483l5.194 8.307 1.624-1.016-.065-7.72 3.49 5.579 1.549-.97-5.195-8.305-1.675 1.047.049 7.579-3.421-5.47-1.55.97zM412.15-107.328l5.956 7.779 1.562-1.197-5.955-7.779zM417.696-111.865l4.058 9.576 1.578-1.45-3.085-7.012 6.675 3.711 1.538-1.415-9.213-4.836zM422.996-116.963l7.457 6.354 4.702-5.519-1.261-1.074-3.426 4.02-1.653-1.409 3.183-3.734-1.261-1.074-3.182 3.734-2.022-1.723 3.547-4.162-1.261-1.075zM429.261-124.545l8.2 5.362 2.27-3.472c.571-.873.913-1.556 1.024-2.048.112-.492.057-.98-.164-1.463a2.826 2.826 0 0 0-1.057-1.202c-.616-.402-1.24-.553-1.876-.456-.637.099-1.242.472-1.815 1.12a4.585 4.585 0 0 0-.11-1.334c-.098-.396-.337-1-.717-1.811l-.948-2.046-1.293 1.978 1.004 2.356c.362.843.575 1.396.64 1.661.063.265.069.505.016.72-.053.216-.203.513-.451.893l-.219.335-3.426-2.24-1.078 1.647m5.812 1.448.799-1.221c.517-.792.875-1.265 1.07-1.418.196-.153.413-.232.65-.236.237-.004.478.074.724.235.275.18.45.4.523.657.074.258.045.535-.085.832-.069.146-.322.554-.76 1.223l-.842 1.288-2.08-1.36zM437.539-131.666l1.007-1.647c-.529-.385-.853-.803-.971-1.252-.118-.45-.046-.944.216-1.483.277-.57.606-.942.989-1.114.383-.172.735-.18 1.06-.022a.894.894 0 0 1 .442.44c.087.192.111.466.072.82-.03.242-.13.776-.305 1.6-.224 1.062-.257 1.867-.098 2.417.223.772.683 1.327 1.38 1.666.449.218.93.295 1.443.232.513-.063.987-.283 1.423-.659.434-.376.816-.9 1.142-1.574.534-1.098.692-2.044.474-2.836-.219-.792-.727-1.4-1.528-1.823l-.93 1.736c.417.297.665.617.744.96.08.346-.002.765-.242 1.26-.248.511-.549.86-.902 1.046a.715.715 0 0 1-.683.013.755.755 0 0 1-.41-.523c-.08-.314-.013-.95.2-1.906.214-.957.312-1.694.293-2.212a2.738 2.738 0 0 0-.427-1.4c-.266-.417-.677-.76-1.234-1.031a2.897 2.897 0 0 0-1.623-.27 2.795 2.795 0 0 0-1.559.709c-.463.407-.879.992-1.25 1.755-.539 1.11-.694 2.088-.467 2.934.229.846.81 1.567 1.744 2.164zM438.975-142.474l9.164 3.463.696-1.842-9.165-3.462zM441.207-148.984l7.835 2.21-.786 2.781 1.595.45 2.104-7.459-1.595-.45-.784 2.783-7.835-2.21zM443.338-158.169l4.073.642 5.046 4.426.362-2.297-3.479-2.872 4.187-1.614.353-2.246-6.175 2.656-4.06-.64zM276.016-171.996l4.031-2.51 3.672 3.134-1.156-4.766 4.085-2.728-4.823-.19-1.252-4.589-1.74 4.442-4.583-.187 3.503 2.948zM447.108-183.61l-1.336 4.557-4.825.107 4.036 2.783-1.23 4.757 3.72-3.07 3.996 2.588-1.665-4.472 3.544-2.916-4.577.137z" style="fill:#fff;fill-opacity:1;fill-rule:nonzero;stroke:none" transform="matrix(.96454 0 0 -.96454 -258.4 -72.924)"/><path d="M435.37-169.987c0-39.371-31.921-71.285-71.29-71.285-39.372 0-71.287 31.914-71.287 71.285 0 39.371 31.915 71.289 71.287 71.289 39.369 0 71.29-31.918 71.29-71.289z" style="fill:#fff;fill-opacity:1;fill-rule:nonzero;stroke:none" transform="matrix(.96454 0 0 -.96454 -258.4 -72.924)"/><path d="M409.03-127.542c-4.639 4.577-23.886-7.167-45.344-27.01h4.209c15.394 13.522 28.62 21.143 32.024 17.78 2.275-2.246-.295-8.94-6.227-17.78h4.2c9.746 13.39 14.383 23.808 11.139 27.01z" style="fill:#00a990;fill-opacity:1;fill-rule:nonzero;stroke:none" transform="matrix(.96454 0 0 -.96454 -258.4 -72.924)"/><path d="M333.532-154.552h4.199c-5.937 8.84-8.503 15.534-6.23 17.78 3.404 3.363 16.624-4.258 32.027-17.78h4.204c-21.455 19.843-40.705 31.587-45.347 27.01-3.235-3.202 1.398-13.62 11.147-27.01z" style="fill:#f47216;fill-opacity:1;fill-rule:nonzero;stroke:none" transform="matrix(.96454 0 0 -.96454 -258.4 -72.924)"/><path d="M330.404-206.987c-2.571 2.532 1.036 10.737 8.677 21.291h-4.034c-11.52-15.069-17.282-27.052-13.756-30.531 4.903-4.844 26.147 8.577 49.066 30.531h-4.032c-17.03-15.681-32.24-24.936-35.921-21.29" style="fill:#1c63b7;fill-opacity:1;fill-rule:nonzero;stroke:none" transform="matrix(.96454 0 0 -.96454 -258.4 -72.924)"/><path d="M342.808-159.035h-5.118l-4.803-8.77-4.85 8.77h-5.692l8.029-13.483v-9.748h4.811v9.718c.064.11 8.03 13.513 8.03 13.513zM362.765-159.035h-4.223v-14.651l-8.447 14.65h-4.549v-23.23h4.455v14.324l8.317-14.324h4.678v23.23zM370.028-161.856c-1.872-2.133-2.822-5.16-2.822-8.997 0-3.63.947-6.538 2.81-8.64 1.867-2.112 4.286-3.183 7.19-3.183 2.346 0 4.313.632 5.843 1.879 1.53 1.245 2.636 3.168 3.287 5.714l.055.211-4.647 1.53-.056-.252c-.347-1.623-.927-2.824-1.716-3.57a3.987 3.987 0 0 0-2.815-1.108c-1.5 0-2.684.571-3.622 1.747-.938 1.175-1.415 3.198-1.415 6.014 0 2.65.483 4.583 1.433 5.748.952 1.165 2.158 1.733 3.69 1.733 1.089 0 2.026-.327 2.78-.973.763-.65 1.273-1.552 1.513-2.68l.051-.235 4.76 1.19-.062.227c-.495 1.866-1.255 3.319-2.253 4.323-1.677 1.692-3.883 2.552-6.558 2.552-3.058 0-5.566-1.085-7.446-3.23zM407.618-159.035h-4.58v-12.835c0-1.78-.063-3.069-.186-3.83a3.003 3.003 0 0 0-1.03-1.83c-.565-.491-1.43-.742-2.574-.742-1.127 0-2.024.266-2.66.793-.641.526-1.05 1.236-1.221 2.112-.102.56-.155 1.827-.155 3.762v12.57H390.4v-12.388c0-2.556.143-4.517.428-5.83.202-.913.619-1.794 1.249-2.619.628-.83 1.494-1.512 2.577-2.026 1.077-.516 2.666-.778 4.727-.778 1.708 0 3.116.239 4.19.712 1.077.474 1.947 1.12 2.593 1.925.646.802 1.093 1.796 1.333 2.957.234 1.143.353 3.109.353 5.846v12.2z" style="fill:#231f20;fill-opacity:1;fill-rule:nonzero;stroke:none" transform="matrix(.96454 0 0 -.96454 -258.4 -72.924)"/></svg>