<svg xmlns="http://www.w3.org/2000/svg" width="185.54716mm" height="185.54716mm" viewBox="0 0 185.54716 185.54716"><g transform="translate(-16.905 -49.811)"><circle cx="109.67841" cy="142.58492" r="92.773582" style="fill:#f9f9f9;stroke:#fff;stroke-width:0"/><path d="M0 0c-67.043 0-121.394 54.332-121.394 121.382 0 67.036 54.351 121.387 121.394 121.387 67.035 0 121.378-54.351 121.378-121.387C121.378 54.332 67.035 0 0 0m-.016 244.716c-68.116 0-123.337-55.214-123.337-123.334C-123.353 53.26-68.132-1.957-.016-1.957c68.12 0 123.341 55.217 123.341 123.339 0 68.12-55.221 123.334-123.341 123.334" style="fill:#4156a6;fill-opacity:1;fill-rule:nonzero;stroke:none" transform="matrix(.73375 0 0 -.73376 109.261 231.318)"/><path d="M0 0a7.656 7.656 0 0 0 3.415-.805 30.565 30.565 0 0 0 9.131 6.012c-3.039 3.326-7.741 5.147-12.7 4.469-7.833-1.08-13.351-7.994-12.333-15.44.597-4.291 3.669-8.136 7.318-10.172.15.682.324 1.358.523 2.018A7.713 7.713 0 0 0-7.73-7.734C-7.73-3.465-4.267 0 0 0" style="fill:#4156a6;fill-opacity:1;fill-rule:nonzero;stroke:none" transform="matrix(.73375 0 0 -.73376 76.695 164.256)"/><path d="M0 0h-.008c-15.159 9.24-19.165 21.186-20.53 28.314a29.49 29.49 0 0 0-.316 2.106 27.464 27.464 0 0 0-7.132 2.9 18.676 18.676 0 0 0-12.983-7.384C-28.545 11.414-11.688.799 7.508-3.816c-.523.181-.982.38-1.481.605A59.914 59.914 0 0 0 0 0" style="fill:#4156a6;fill-opacity:1;fill-rule:nonzero;stroke:none" transform="matrix(.73375 0 0 -.73376 87.835 205.303)"/><path d="M0 0c-3.637 4.092-5.011 7.273-5.644 9.537-.502 1.815-.846 4.018-.902 5.693-.266-.009-.526-.017-.796-.052-5.173-.66-8.446-4.805-7.935-9.668.506-4.877 4.69-8.332 10.16-7.75C-2.98-2.004-1.448-1.322 0 0" style="fill:#4156a6;fill-opacity:1;fill-rule:nonzero;stroke:none" transform="matrix(.73375 0 0 -.73376 62.955 177.406)"/><path d="M0 0c25.308 8.648 45.655 27.986 55.673 52.621-11.87-2.142-20.483-7.557-44.848-25.576-20.007-14.799-39.12-16.703-52.268-11.934a6.372 6.372 0 0 0-.253.1c-.317.117-.629.244-.939.359-.11.051-.218.096-.336.139a31.873 31.873 0 0 0-5.09 2.676l.032.015c-4.171 2.739-7.298 6.309-9.151 10.254-1.417 3.022-1.777 6.188-.902 9.416.954 3.496 3.811 5.868 7.429 6.153.111.007.522.023.522.023 4.481 0 8.356-3.551 8.11-8.012-.079-1.408-.724-2.255-1.626-2.976 6.819.879 6.617 7.06 6.617 7.06 0 4.014-2.659 8.621-7.706 10.569-3.194 1.238-7.932 1.773-12.887-.701-4.022-2.006-12.927-9.163-8.13-25.096 1.216-4.022 3.586-8.297 7.037-12.266.297-.349.618-.693.935-1.037.055-.064.114-.131.177-.195.282-.301.575-.59.86-.881.13-.131.261-.258.391-.377.23-.238.471-.463.713-.689.213-.198.431-.395.649-.586.166-.159.341-.301.514-.459.238-.198.48-.407.721-.614.17-.138.332-.273.498-.402.262-.211.527-.416.796-.623C-41.17-1.697-23.411-6.771 0 0" style="fill:#4156a6;fill-opacity:1;fill-rule:nonzero;stroke:none" transform="matrix(.73375 0 0 -.73376 131.176 206.364)"/><path d="M0 0c-.479-.198-2.564-.95-6.309-1.932-1.931-.514-5.003-.574-6.744.499-1.741 1.077-2.101 3.036-2.101 3.036s-5.071-2.007-10.968-3.072c-5.533-.993-11.185-.557-11.189-.534 0 0-6.863-3.483-15.712-12.491 0 0-.405-.574-1.556-.736-1.149-.166-14.359-2.422-14.359-2.422s-.828-5.633 2.354-7.639c0 0 4.54 2.644 11.296 2.976 0 0 .25.011.424.024.177.016.415.023.415.023a2.111 2.111 0 0 0 2.257-1.955c.075-1.152-.816-2.153-1.988-2.232 0 0-.64-.031-1.207-.075-.491-.032-.859-.036-1.86-.202-2.244-.365-5.568-1.219-9.515-3.253-.293-.151-.601-.361-.839-.357-.242.008-.589.364-1.025.772-1.12 1.077-2.616 2.585-3.902 4.881-1.12 2.013-1.457 7.713-.376 9.514.229.388.617 1.084 2.01 1.267 3.214.494 14.09 2.2 14.455 2.541C-53.27-8.442-42.278 2.069-36.982 2.786c0 0 6.665 0 6.994.443.166.246.141.697.141.946-.067 2.585-.17 7.441.709 8.846 1.255 2.007 2.921 2.129 5.439 2.375 2.58.242 11.026 1.061 13.432.863 3.171-.261 4.014-2.865-.771-4.868-4.401-1.845-6.962-2.636-9.198-3.448-1.263-.455-1.168-1.511-1.207-1.959-.012-.142-.056-1.516-.068-1.804.534.083 2.814.806 3.704 1.132 3.064 1.127 5.111 1.879 6.453 2.39 1.958.736 2.311.696 2.56.419.447-.49.095-1.18-.95-2.905-.693-1.14-1.864-2.264-3.875-2.913 2.569-.502 7.505.894 13.26 2.953 9.566 3.412 12.51 3.388 16.148 2.43.993-.292 2.014-.649 2.802-1.092.597-.329.337-1.053-.056-1.457-.467-.475-1.448-.799-2.726-1.124C10.675 3.253 5.371 2.212 0 0m-32.799-9.967c.274 1.687 3.202 1.876 5.882 1.893 6.15.043 10.77-.752 10.77-.752-15.856-5.454-16.925-2.83-16.652-1.141m-49.858-19.432c-4.009 3.85-6.507 9.466-4.445 16.314 1.869 6.233 9.879 11.042 15.156 12.563 3.368.969 9.748 1.492 14.928 2.049 2.91.305 5.13.831 6.448 2.272 1.437 1.567 1.191 3.641.807 5.442-.973 4.438-4.301 14.767 6.515 21.409 11.542 7.069 24.464 5.45 31.632 4.575 12.02-1.496 20.874-6.222 36.448-9.562 13.814-2.961 27.718-5.66 27.718-5.66-27.836 1.417-47.451 6.539-47.451 6.539-53.445 13.338-49.032-14.565-49.032-14.565.008-6.615-4.164-9.318-6.997-10.81-4.781-2.505-9.895-2.572-12.06-2.861-13.6-1.789-19.984-11.154-18.218-20.542 1.971-10.429 14.624-12.024 14.624-12.024-3.716-.879-11.086.055-16.073 4.861M87.985-57.367c-2.268-1.631-6.601-5.882-10.904-10.274-5.145-5.272-18.844-17.455-36.068-9.666 0 0-7.236-11.68-18.788-11.213-14.878.609-17.222 12.27-13.446 17.926 3.772 5.664 11.628 8.616 20.404 8.206 1.04-.053 8.292-.48 15.696.818 8.589 1.5 15.024 4.551 21.797 13.188 8.703 11.098 20.43 13.433 21.879 13.687-.004.007-.004.015-.004.031-13.73.601-18.317-3.958-24.863-7.702-6.353-3.625-14.459-11.835-22.719-7.702 0 0-3.954-7.418-16.113-8.557-3.095-.285-7.872-.103-12.622 2.311-5.109 2.596-8.913 13.026 1.616 19.22 3.518 2.066 9.574 2.588 18.645 2.43 9.206-.17 15.293 3.206 20.558 6.456 6.688 4.14 12.4 10.714 31.916 11.537-.004.016-.004.031-.016.047-1.274.412-11.271 3.412-21.198-.823-10.667-4.539-12.599-5.644-17.296-5.85-2.645-.11-4.802.768-5.72 2.387 0 0-14.513-12.401-25.223-.637a4.903 4.903 0 0 0-3.392-1.37 4.9 4.9 0 0 0-4.837 4.133c-.391 1.797.178 3.886 2.489 5.077.016.004.033.02.044.024.107.051.214.107.321.151.071.031.142.054.21.087.969.391 2.2.645 3.724.688 2.268.075 9.274-1.08 20.518 3.388 11.248 4.476 20.506 5.49 22.263 5.49 0 0-6.384.819-14.403.332C34.435-4.021 20.515-7.48 15.08-7.33c-1.71.043-3.617.205-5.514.459-.755.106-.945.455-.961.799-.028.443.364.753.364.753l3.464 2.501s.534.399.89.486c.352.092.82.084 1.258.044.717-.056 1.481-.11 2.319-.162 8.942-.542 12.254 2.224 26.575 1.745 10.297-.34 23.371-2.738 25.544-3.372-5.443-.182-20.871-2.711-31.719-8.414-10.837-5.684-18.187-5.114-20.225-4.56 0 0 13.01-8.003 23.696 1.603 0 0 1.116-7.575 17.26-.598 10.711 4.631 15.944 4.449 25.921 2.502-12.495 36.183-46.85 62.171-87.276 62.171-50.983 0-92.315-41.337-92.315-92.319a92.198 92.198 0 0 1 5.121-30.377c3.401 4.623 8.871 7.627 15.053 7.627a18.56 18.56 0 0 0 4.061-.439c3.724 9.499 13.532 16.282 25.053 16.282 3.891 0 7.58-.783 10.909-2.168.094.158.201.324.304.49 0 0 4.56 7.136 13.924 8.985 0 0 .174 5.897 3.451 9.792.02.016-7.002-1.104-12.071 4.488 0 0-5.09-.198-8.562-.68-3.47-.492-6.705-7.228-11.814-7.085-4.334.11-7.311-1.061-9.087-1.797-.25-.103-.472-.183-.851-.324-1.196-.428-2.517.141-2.964 1.321-.318.835-.087 1.742.482 2.359.567.614 1.892 1.076 2.387 1.242.491.167 4.631 1.604 10.199 1.714 2.157.044 6.491 6.615 10.489 6.836l11.312.958s2.212-3.024 7.429-4.37c2.596-.665 8.315-1.18 15.978 5.011.989.8 2.438.665 3.233-.309a2.307 2.307 0 0 0 .286-2.394c-.341-.764-1.461-1.623-1.869-1.936-.4-.293-3.514-2.651-8.332-4.492-3.15-3.555-5.252-8.731-5.449-14.549 0 0-9.329-2.657-13.021-8.299 3.597-2.613 6.463-6.049 8.248-10.023h.21c7.777-.062 22.5-5.56 23.272-19.714.502-9.198-6.962-19.114-20.68-17.372 0 0 3.562-2.414 10.374-3.408l.229-.035c.214-.031.436-.062.653-.086.055-.01.107-.017.162-.021.238-.032.491-.055.733-.082.039 0 .067-.004.106-.008.262-.02.535-.053.804-.072.023 0 .047 0 .067-.008.286-.016.57-.035.871-.047.003 0 .016-.008.016-.008.317-.016.621-.031.934-.035h.011c.313-.012.634-.025.958-.025 8.285-.083 19.667 2.126 33.88 10.335 25.66 14.811 43.811 20.51 52.562 21.071a91.355 91.355 0 0 1 4.563 17.977" style="fill:#4156a6;fill-opacity:1;fill-rule:nonzero;stroke:none" transform="matrix(.73375 0 0 -.73376 111.695 110.192)"/><path d="M0 0c0 1.873-.06 3.725-.174 5.562-18.974-7.006-15.662-21.555-40.624-28.802-3.661-1.056-12.757-2.008-17.474-1.537-7.813.785-12.796-2.279-13.45-6.842-.704-4.955 10.822-11.984 23.59 2.866 0 0 16.5-5.715 29.803 5.002C-9.839-16.895-5.418-11.102-.384-8.458-.135-5.674 0-2.854 0 0" style="fill:#4156a6;fill-opacity:1;fill-rule:nonzero;stroke:none" transform="matrix(.73375 0 0 -.73376 176.991 142.252)"/><path d="M0 0c-7.421.131-12.452-4.072-10.077-8.063 2.331-3.914 15.894-5.437 23.87 3.532 0 0 4.187-4.401 14.569 4.357 11.649 9.827 22.149 10.912 32.874 9.875a89.863 89.863 0 0 1-2.398 11.953c-4.564-.514-14.03-1.187-25.243-9.032C21.673 4.278 20.182-.368 0 0" style="fill:#4156a6;fill-opacity:1;fill-rule:nonzero;stroke:none" transform="matrix(.73375 0 0 -.73376 131.467 140.404)"/><path d="M0 0h-6.967l.004-3.095 22.738-.008v3.095H3.906Z" style="fill:#4156a6;fill-opacity:1;fill-rule:nonzero;stroke:none" transform="matrix(.73375 0 0 -.73376 105.716 62.052)"/><path d="M0 0c-3.349 0-6.071 1.084-6.071 2.422S-3.729 4.837 0 4.837c4.073 0 6.079-1.077 6.079-2.415S4.073 0 0 0m-.031-2.636c5.584 0 10.164 1.75 10.172 5.058-.008 2.989-3.662 5.067-10.172 5.067-6.52 0-10.176-2.078-10.176-5.059 0-3.316 4.575-5.066 10.176-5.066" style="fill:#4156a6;fill-opacity:1;fill-rule:nonzero;stroke:none" transform="matrix(.73375 0 0 -.73376 109.04 70.538)"/><path d="M0 0v2.271C-.004 3.32-1.219 3.515-1.219 3.515h-2.664V0Z" style="fill:#4156a6;fill-opacity:1;fill-rule:nonzero;stroke:none" transform="matrix(.73375 0 0 -.73376 108.561 62.464)"/><path d="M0 0h-18.729v-2.782H-2.37v-5.426h3.779v6.831S1.346 0 0 0" style="fill:#4156a6;fill-opacity:1;fill-rule:nonzero;stroke:none" transform="matrix(.73375 0 0 -.73376 115.258 56.22)"/><path d="m0 0-2.181-1.745 9.753-12.258-11.748-9.332-1.776 2.248 6.981 5.556c.812.646.21 1.671.21 1.671l-1.635 2.049-7.923-6.301-1.623 2.035 6.934 5.51c.816.649.214 1.725.214 1.725l-1.602 2.027-7.909-6.293-2.343 2.952-2.189-1.745 13.893-17.478 2.192 1.737-1.678 2.109c.423-.522 1.872.21 1.872.21l11.482 9.127c1.231.966.229 2.161.229 2.161z" style="fill:#4156a6;fill-opacity:1;fill-rule:nonzero;stroke:none" transform="matrix(.73375 0 0 -.73376 171.395 83.357)"/><path d="m0 0-1.968.618.911 2.921s.305 1.131-.99 1.535l-2.279.713-4.876-15.626-7.105 2.213 3.8 12.178 5.121-1.599.816 2.604-7.417 2.312s-.622.162-1.089-.087c-.451-.23-.712-.895-.712-.895l-4.588-14.716s-.139-.613.111-1.052c.242-.444.816-.665.816-.665l8.296-2.593s.632-.241 1.329.361l-1.187-3.808 3.637-1.128 4.575 14.668 1.964-.605-4.588-14.716 3.673-1.144L4.591 1.797s.273 1.116-.95 1.496l-2.382.744Z" style="fill:#4156a6;fill-opacity:1;fill-rule:nonzero;stroke:none" transform="matrix(.73375 0 0 -.73376 138.82 64.387)"/><path d="m0 0-4.963 3.515.222.324c.601.848-.274 1.71-.274 1.71l-2.113 1.496-.938-1.337-4.73 3.34-1.611-2.288 12.793-9.048z" style="fill:#4156a6;fill-opacity:1;fill-rule:nonzero;stroke:none" transform="matrix(.73375 0 0 -.73376 160.682 73.506)"/><path d="m0 0 1.604 2.284s1.068 1.148-.112 1.979L-.621 5.755-8.688-5.664l3.12-2.204 4.001 5.656L.891-3.938l1.563 2.205z" style="fill:#4156a6;fill-opacity:1;fill-rule:nonzero;stroke:none" transform="matrix(.73375 0 0 -.73376 162.566 77.842)"/><path d="m0 0-15.289 10.805-1.604-2.263L-3.534-.91l-2.767-3.902 3.087-2.182 3.57 5.047S1.101-.78 0 0" style="fill:#4156a6;fill-opacity:1;fill-rule:nonzero;stroke:none" transform="matrix(.73375 0 0 -.73376 157.18 83.601)"/><path d="M0 0c1.504-1.061 1.999-2.929 1.116-4.184-.875-1.238-2.809-1.397-4.305-.336-1.505 1.061-2.003 2.941-1.125 4.18C-3.432.906-1.5 1.061 0 0m-4.484-6.341C-.815-8.933 2.909-8.826 4.5-6.57c1.596 2.256.158 6.008-3.21 8.391-3.368 2.382-7.389 2.485-8.98.229-1.599-2.256-.578-5.715 3.206-8.391" style="fill:#4156a6;fill-opacity:1;fill-rule:nonzero;stroke:none" transform="matrix(.73375 0 0 -.73376 153.61 73.35)"/><path d="M0 0c-1.405 1.033-1.622 3.119-.486 4.667C.649 6.21 2.716 6.622 4.12 5.585 5.525 4.548 5.735 2.458 4.6.918 3.459-.629 1.397-1.041 0 0m6.682 9.06c-2.537 1.872-6.666.586-9.219-2.873-2.557-3.468-2.568-7.797-.031-9.666C-.027-5.354 3.784-4.492 6.657-.605c2.782 3.776 2.565 7.789.025 9.665" style="fill:#4156a6;fill-opacity:1;fill-rule:nonzero;stroke:none" transform="matrix(.73375 0 0 -.73376 41.16 96.336)"/><path d="M0 0c-2.082-2.814-4.73-4.386-5.918-3.511-1.183.866-.692 3.542 1.627 6.685C-1.773 6.585.435 7.567 1.614 6.688 2.798 5.818 2.517 3.419 0 0m2.311-1.75C5.774 2.944 7.053 7.931 4.12 10.096c-2.648 1.96-6.753.242-10.786-5.228-4.041-5.478-4.46-9.903-1.82-11.858 2.94-2.157 7.33.538 10.797 5.24" style="fill:#4156a6;fill-opacity:1;fill-rule:nonzero;stroke:none" transform="matrix(.73375 0 0 -.73376 53.25 97.46)"/><path d="m0 0-2.232-3.024L.016-4.686l2.232 3.032L4.08-3.012C4.1-2.992 6.364.079 6.364.079l-9.009 6.634c-1.044.775-1.785-.301-1.785-.301l-1.535-2.07 1.892-1.397-2.233-3.024 2.253-1.654 2.256 3.059z" style="fill:#4156a6;fill-opacity:1;fill-rule:nonzero;stroke:none" transform="matrix(.73375 0 0 -.73376 48.54 87.97)"/><path d="m0 0-9.99-7.176-2.711 3.776 9.99 7.171zm-2.26 7.532L-16.37-2.593s-.519-.478-.558-1.053c-.024-.47.301-.854.301-.854l5.146-7.172L4.722-.036-.432 7.136c-.755 1.061-1.828.396-1.828.396" style="fill:#4156a6;fill-opacity:1;fill-rule:nonzero;stroke:none" transform="matrix(.73375 0 0 -.73376 72.1 80.218)"/><path d="m0 0-1.686 2.343c-.859 1.199-2.039.297-2.039.297l-1.864-1.338 3.927-5.478-10.96-7.876-3.012 4.196c-.633.882-1.828.26-1.828.26l-1.987-1.432 4.559-6.357s.463-.562 1.065-.597c.435-.02.851.269.851.269l12.06 8.656c.696.498.55 1.152.55 1.152L.788-7.508l3.039 2.176-2.208 3.076 2.6 1.864-1.622 2.256z" style="fill:#4156a6;fill-opacity:1;fill-rule:nonzero;stroke:none" transform="matrix(.73375 0 0 -.73376 67.99 69.792)"/><path d="M0 0c.97-3.131.324-6.107-1.44-6.661-1.774-.547-3.879 1.191-4.964 4.666-1.175 3.792-.321 6.111 1.445 6.658C-3.194 5.208-1.184 3.788 0 0m3.499 1.045C1.884 6.253-1.773 9.8-6.143 8.438c-3.946-1.227-5.636-5.489-3.748-11.557 1.884-6.064 5.688-8.62 9.642-7.389 4.377 1.357 5.37 6.344 3.748 11.553" style="fill:#4156a6;fill-opacity:1;fill-rule:nonzero;stroke:none" transform="matrix(.73375 0 0 -.73376 85.814 67.477)"/><path d="m0 0 4.576-14.72 3.673 1.144-6.317 20.32s-.408 1.077-1.626.689l-2.383-.74 1.25-4.041z" style="fill:#4156a6;fill-opacity:1;fill-rule:nonzero;stroke:none" transform="matrix(.73375 0 0 -.73376 89.467 63.556)"/><path d="m0 0-1.479-3.918L-11.58 6.21l-7.311 2.755 1.306 3.463 7.311-2.755 14.347 1.144-1.536-4.081-9.784-.237Z" style="fill:#4156a6;fill-opacity:1;fill-rule:nonzero;stroke:none" transform="matrix(.73375 0 0 -.73376 41.938 119.776)"/><path d="m0 0 1.923 9.175-4.334.902-1.765-8.418-3.538.739 1.761 8.423-5.24 1.101-2.015-9.599-3.661.765 2.747 13.14 20.395-4.271L3.613-.76Z" style="fill:#4156a6;fill-opacity:1;fill-rule:nonzero;stroke:none" transform="matrix(.73375 0 0 -.73376 36.19 131.997)"/><path d="m0 0-.175-3.76-12.776.594c-1.433.071-2.482-.028-3.154-.285-1.188-.388-1.813-1.338-1.888-2.834-.068-1.488.471-2.486 1.615-2.988.649-.317 1.686-.511 3.114-.574l12.781-.593-.174-3.761-12.792.594c-2.213.107-3.923.479-5.13 1.12-2.204 1.187-3.241 3.312-3.099 6.376.143 3.059 1.373 5.086 3.677 6.072 1.263.522 2.996.735 5.208.637z" style="fill:#4156a6;fill-opacity:1;fill-rule:nonzero;stroke:none" transform="matrix(.73375 0 0 -.73376 38.654 133.873)"/><path d="m0 0 .467-3.848-13.575-8.73 14.421 1.75.416-3.429-20.688-2.502-.439 3.673 13.805 8.938-14.676-1.782-.416 3.42z" style="fill:#4156a6;fill-opacity:1;fill-rule:nonzero;stroke:none" transform="matrix(.73375 0 0 -.73376 38.23 145.716)"/><path d="M0 0c1.278.674 2.03 1.623 2.256 2.826A4.493 4.493 0 0 1 2.109 4.9C1.693 6.27.752 7.207-.729 7.719c-1.48.506-3.431.39-5.861-.348-2.45-.744-4.033-1.75-4.762-3.01-.728-1.257-.906-2.492-.542-3.703.36-1.187 1.065-2.039 2.098-2.549 1.029-.515 2.225-.666 3.574-.447l-1.195 3.922 3.332 1.014 2.146-7.063-10.699-3.256-.716 2.346 2.382 1.117c-1.151.395-2.003.807-2.549 1.227-.958.736-1.646 1.781-2.066 3.15-.681 2.24-.32 4.361 1.073 6.35 1.377 2.049 3.665 3.56 6.855 4.531 3.225.984 6.04 1.014 8.446.098 2.406-.918 3.99-2.616 4.742-5.102.653-2.148.542-4.08-.348-5.773-.887-1.7-2.26-2.938-4.12-3.713Z" style="fill:#4156a6;fill-opacity:1;fill-rule:nonzero;stroke:none" transform="matrix(.73375 0 0 -.73376 37.73 167.248)"/><path d="m0 0 1.758-3.459-9.765-12.852 12.955 6.59 1.559-3.08-18.57-9.447-1.678 3.301 9.91 13.129-13.176-6.702-1.567 3.069z" style="fill:#4156a6;fill-opacity:1;fill-rule:nonzero;stroke:none" transform="matrix(.73375 0 0 -.73376 43.64 169.693)"/><path d="m0 0 2.648-3.682 5.359 6.594zm10.679 7.361 2.446-3.408L-.162-13.275l-2.335 3.261L.302-6.57l-3.8 5.302-4.184-1.523L-9.938.355z" style="fill:#4156a6;fill-opacity:1;fill-rule:nonzero;stroke:none" transform="matrix(.73375 0 0 -.73376 43.697 188.831)"/><path d="m0 0 3.879-3.648-14.272-15.176-2.517 2.367 9.661 10.26c.277.293.669.705 1.176 1.234.503.527.894.934 1.167 1.223l-14.426-10.436-2.625 2.461 9.559 15.024c-.273-.293-.658-.704-1.148-1.243L-10.71.816l-9.653-10.259-2.509 2.359L-8.596 8.094l3.922-3.692-8.882-14.138z" style="fill:#4156a6;fill-opacity:1;fill-rule:nonzero;stroke:none" transform="matrix(.73375 0 0 -.73376 62.525 195.674)"/><path d="m0 0 3.28-1.844-6.237-11.17c-.704-1.25-1.088-2.232-1.155-2.945-.183-1.234.383-2.215 1.693-2.951 1.303-.729 2.431-.69 3.397.101.569.436 1.203 1.284 1.907 2.534l6.242 11.17 3.28-1.836-6.245-11.178c-1.085-1.936-2.177-3.297-3.289-4.084-2.058-1.449-4.421-1.426-7.093.07-2.672 1.496-3.933 3.494-3.791 6.008.091 1.361.685 3.008 1.765 4.939z" style="fill:#4156a6;fill-opacity:1;fill-rule:nonzero;stroke:none" transform="matrix(.73375 0 0 -.73376 70.105 201.628)"/><path d="m0 0 3.657-1.305L5.41-17.348 10.283-3.66l3.245-1.156-6.99-19.629-3.486 1.242L1.219-6.857l-4.955-13.932-3.249 1.162z" style="fill:#4156a6;fill-opacity:1;fill-rule:nonzero;stroke:none" transform="matrix(.73375 0 0 -.73376 80.499 207.294)"/><path d="m0 0-3.582.832 4.694 20.293 3.578-.822Z" style="fill:#4156a6;fill-opacity:1;fill-rule:nonzero;stroke:none" transform="matrix(.73375 0 0 -.73376 91.105 226.533)"/><path d="m0 0 3.819-.455-8.478-19.973-3.471.42-3.459 21.406 3.918-.47 1.936-16.164z" style="fill:#4156a6;fill-opacity:1;fill-rule:nonzero;stroke:none" transform="matrix(.73375 0 0 -.73376 103.75 213.012)"/><path d="m0 0-9.368-.32.15-4.426 8.597.297.122-3.617-8.597-.293.187-5.356 9.8.34.127-3.744-13.414-.459-.712 20.82 12.977.447z" style="fill:#4156a6;fill-opacity:1;fill-rule:nonzero;stroke:none" transform="matrix(.73375 0 0 -.73376 116.827 215.66)"/><path d="m0 0 1.084-5.49 3.907.773c.78.155 1.338.375 1.678.676.609.531.804 1.361.578 2.506C7.002-.293 6.503.471 5.759.764 5.335.93 4.75.945 4.006.795Zm6.898 4.508c.713-.194 1.346-.57 1.916-1.108a6.894 6.894 0 0 0 1.211-1.543c.336-.586.586-1.283.748-2.086a7.116 7.116 0 0 0-.055-2.988 3.782 3.782 0 0 0-1.674-2.394c.879-.227 1.556-.647 2.026-1.28.475-.636.847-1.67 1.132-3.101l.274-1.369c.185-.934.343-1.559.474-1.883.198-.508.495-.856.895-1.029l.102-.516-4.009-.791c-.198.428-.348.783-.451 1.045a12.259 12.259 0 0 0-.499 1.734l-.403 1.891c-.273 1.301-.634 2.137-1.089 2.492-.451.367-1.187.443-2.192.246l-3.551-.705 1.588-8.01-3.547-.703-4.045 20.436 8.312 1.646c1.191.207 2.137.215 2.837.016" style="fill:#4156a6;fill-opacity:1;fill-rule:nonzero;stroke:none" transform="matrix(.73375 0 0 -.73376 121.218 214.897)"/><path d="M0 0c.443-.852.902-1.445 1.382-1.766.87-.589 2.007-.621 3.399-.099.839.308 1.481.674 1.916 1.078.839.775 1.049 1.713.637 2.816-.241.643-.669 1.053-1.286 1.229-.613.162-1.492.181-2.64.047l-1.971-.207c-1.939-.198-3.336-.151-4.204.138C-4.215 3.717-5.3 4.92-6.016 6.83c-.653 1.754-.653 3.408.012 4.977.661 1.562 2.05 2.738 4.172 3.533 1.765.662 3.478.678 5.142.056 1.65-.621 2.9-1.958 3.736-4.009l-3.333-1.25c-.499 1.15-1.255 1.82-2.276 2.002-.672.127-1.424.023-2.244-.278-.919-.343-1.567-.83-1.96-1.457-.383-.625-.434-1.32-.154-2.082.262-.695.729-1.111 1.394-1.261.435-.1 1.266-.092 2.505.019l3.213.277c1.41.127 2.541.016 3.401-.339 1.33-.547 2.323-1.696 2.969-3.432.672-1.785.636-3.488-.092-5.102C9.737-3.131 8.3-4.34 6.163-5.141c-2.185-.814-4.116-.877-5.807-.181-1.685.689-2.905 2.052-3.661 4.084z" style="fill:#4156a6;fill-opacity:1;fill-rule:nonzero;stroke:none" transform="matrix(.73375 0 0 -.73376 135.233 219.549)"/><path d="m0 0-3.281-1.65-9.381 18.601 3.281 1.658z" style="fill:#4156a6;fill-opacity:1;fill-rule:nonzero;stroke:none" transform="matrix(.73375 0 0 -.73376 149.182 218.675)"/><path d="m0 0 1.991-3.111-4.469-2.85L6.76-20.406l-3.134-2.012-9.238 14.447-4.489-2.865-1.987 3.111z" style="fill:#4156a6;fill-opacity:1;fill-rule:nonzero;stroke:none" transform="matrix(.73375 0 0 -.73376 151.847 199.188)"/><path d="m0 0 3.171 2.746L7.22-10.98l5.113-5.905-2.794-2.422-5.118 5.905-13.16 5.834 3.297 2.857 8.719-4.457z" style="fill:#4156a6;fill-opacity:1;fill-rule:nonzero;stroke:none" transform="matrix(.73375 0 0 -.73376 157.836 193.989)"/><path d="M0 0c-.53 2.16-.143 4.131 1.167 5.904 1.754 2.367 3.958 3.42 6.618 3.143 1.488-.158 2.767-.602 3.851-1.334l-2.2-2.973c-.947.405-1.738.612-2.364.619-1.12.004-2.065-.511-2.834-1.556-.783-1.057-.89-2.276-.312-3.645.574-1.369 1.797-2.752 3.68-4.14 1.876-1.389 3.523-2.106 4.936-2.153 1.417-.045 2.494.428 3.226 1.424.753 1.018.926 2.09.522 3.223-.213.617-.677 1.345-1.396 2.175l2.184 2.954c1.635-1.604 2.644-3.348 3.008-5.248.368-1.893-.056-3.657-1.259-5.295-1.5-2.028-3.451-3.049-5.857-3.069-2.41-.008-4.967.987-7.67 2.989C2.374-4.82.609-2.494 0 0" style="fill:#4156a6;fill-opacity:1;fill-rule:nonzero;stroke:none" transform="matrix(.73375 0 0 -.73376 165.268 188.489)"/><path d="M0 0c-.76 1.334-2.189 2.525-4.291 3.57-2.094 1.037-3.902 1.465-5.426 1.26-1.528-.199-2.616-.959-3.269-2.273-.654-1.313-.602-2.643.142-3.989.752-1.345 2.185-2.548 4.282-3.593C-6.46-6.07-4.643-6.482-3.119-6.27c1.527.219 2.62.983 3.273 2.297C.803-2.662.752-1.338 0 0m3.858.666c.86-1.924.721-4.018-.403-6.281C2.331-7.883.74-9.256-1.307-9.729c-2.58-.728-5.545-.255-8.893 1.418-3.419 1.694-5.58 3.772-6.495 6.233-.859 1.92-.724 4.01.404 6.277 1.132 2.27 2.715 3.639 4.762 4.114 2.508.748 5.469.277 8.884-1.426C.708 5.217 2.877 3.143 3.858.666" style="fill:#4156a6;fill-opacity:1;fill-rule:nonzero;stroke:none" transform="matrix(.73375 0 0 -.73376 184.313 176.675)"/><path d="m0 0 1.092 3.539 16.322-5.062 2.62 8.449 3.578-1.115-3.716-11.977z" style="fill:#4156a6;fill-opacity:1;fill-rule:nonzero;stroke:none" transform="matrix(.73375 0 0 -.73376 175.743 167.277)"/><path d="m0 0 .59 3.653L17.459.93l1.409 8.727 3.7-.594-2.003-12.385Z" style="fill:#4156a6;fill-opacity:1;fill-rule:nonzero;stroke:none" transform="matrix(.73375 0 0 -.73376 178.594 157.652)"/><path d="m0 0-.118-9.372 4.421-.056.119 8.601 3.617-.047-.119-8.605 5.359-.066.131 9.803 3.748-.052-.182-13.421-20.834.277.173 12.99z" style="fill:#4156a6;fill-opacity:1;fill-rule:nonzero;stroke:none" transform="matrix(.73375 0 0 -.73376 182.93 138.197)"/><path d="M0 0c-1.361-.499-2.236-1.326-2.636-2.485a4.518 4.518 0 0 1-.15-2.082c.225-1.413 1.025-2.47 2.418-3.183 1.393-.712 3.341-.87 5.849-.486 2.53.391 4.24 1.159 5.142 2.307.895 1.14 1.247 2.343 1.057 3.59-.194 1.231-.764 2.169-1.718 2.821-.941.658-2.106.97-3.475.947l.629-4.049-3.435-.53-1.132 7.29 11.047 1.714.376-2.426-2.51-.76c1.081-.555 1.864-1.085 2.348-1.588.846-.858 1.38-1.99 1.598-3.399.361-2.32-.293-4.362-1.951-6.135-1.658-1.841-4.132-3.016-7.429-3.523-3.333-.522-6.123-.158-8.379 1.092-2.248 1.251-3.574 3.152-3.969 5.716-.349 2.229.035 4.116 1.155 5.672 1.12 1.555 2.651 2.584 4.607 3.091z" style="fill:#4156a6;fill-opacity:1;fill-rule:nonzero;stroke:none" transform="matrix(.73375 0 0 -.73376 183.57 127.518)"/><path d="m0 0 2.973-8.89 4.195 1.406L4.444.677 7.876 1.82l2.728-8.161 5.078 1.702-3.108 9.301 3.555 1.188 4.254-12.729L.621-13.488l-4.12 12.316z" style="fill:#4156a6;fill-opacity:1;fill-rule:nonzero;stroke:none" transform="matrix(.73375 0 0 -.73376 177.526 114.229)"/></g></svg>