<svg xmlns="http://www.w3.org/2000/svg" xml:space="preserve" width="600" height="599.99799" viewBox="0 0 599.99999 599.99799"><defs><clipPath id="a" clipPathUnits="userSpaceOnUse"><path d="M0 595.28h841.89V0H0Z"/></clipPath></defs><g clip-path="url(#a)" transform="matrix(3.8478 0 0 -3.8478 -1199.153 1448.157)"><path d="m0 0 3.068-.008-.005-1.548-3.036.004-4.719-2.924.004 1.783 1.84 1.091a29.91 29.91 0 0 0 1.518.838c-.289.145-1.03.556-1.515.845l-1.836 1.1.003 1.759z" style="fill:#595757;fill-opacity:1;fill-rule:nonzero;stroke:none" transform="translate(337.353 298.874)"/><path d="M0 0c-.227-1.231.737-1.934 2.096-2.185 1.36-.254 2.514.067 2.74 1.296C5.06.34 4.099 1.046 2.742 1.296 1.377 1.55.228 1.231 0 0m6.349-1.169C5.966-3.25 4.126-4.18 1.809-3.756-.512-3.328-1.896-1.799-1.513.282c.382 2.079 2.221 3.009 4.54 2.585C5.348 2.439 6.733.913 6.349-1.169" style="fill:#595757;fill-opacity:1;fill-rule:nonzero;stroke:none" transform="translate(335.013 308.19)"/><path d="M0 0c-.693-1.739-2.333-2.443-4.426-1.609L-8.472 0l.574 1.439 4.025-1.601c1.148-.458 2.099-.195 2.465.721.362.916-.119 1.766-1.272 2.223L-6.723 4.39l.572 1.441 4.022-1.599C-.04 3.398.729 1.829 0 0" style="fill:#595757;fill-opacity:1;fill-rule:nonzero;stroke:none" transform="translate(344.042 316.327)"/><path d="m0 0-5.103-.057c-.341.001-.803.001-1.026.028.241-.158 1.069-.676 1.427-.912l2.853-1.875-.839-1.277L-9.169.163l.816 1.241 4.933.044c.343 0 .807 0 1.026-.024-.24.158-1.064.676-1.425.911l-2.742 1.8.839 1.276 6.48-4.254z" style="fill:#595757;fill-opacity:1;fill-rule:nonzero;stroke:none" transform="translate(349.472 326.631)"/><path d="M0 0c-1.421-1.444-3.483-1.326-5.225.389-1.679 1.654-1.852 3.813-.431 5.259 1.109 1.129 2.227 1.205 3.438.73l-.598-1.476c-.615.196-1.17.25-1.761-.352-.813-.825-.555-2.013.471-3.024C-3.089.525-1.868.267-1.051 1.097c.746.755.648 1.364.23 1.902l-.864-.874-1.032 1.015 1.949 1.981.724-.712C1.376 3.009 1.258 1.275 0 0" style="fill:#595757;fill-opacity:1;fill-rule:nonzero;stroke:none" transform="translate(354.76 332.696)"/><path d="M0 0c-1.061-.743-2.296-.949-3.271-.576L-2.929.88c.807-.204 1.526-.009 2.133.411.749.531.959.986.623 1.466-.286.408-.632.438-2.02-.13-1.359-.55-2.436-.746-3.313.505-.808 1.15-.287 2.571.964 3.448.99.691 1.973.828 3.014.621l-.293-1.53c-.703.131-1.321.049-1.9-.355-.682-.481-.702-.926-.507-1.212.282-.397.64-.334 1.812.137 1.172.472 2.527.908 3.495-.472C1.922 2.563 1.733 1.214 0 0" style="fill:#595757;fill-opacity:1;fill-rule:nonzero;stroke:none" transform="translate(361.59 338.464)"/><path d="M0 0c-.329.349-.66.711-.851.943.05-.295.1-.786.145-1.263l.121-1.488 1.616.732zm3.387-3.525L2.124-2.2-.46-3.366l.15-1.826-1.512-.682-.478 8.286 1.37.617 5.868-5.854Z" style="fill:#595757;fill-opacity:1;fill-rule:nonzero;stroke:none" transform="translate(368 347.495)"/><path d="m0 0-3.701 3.503c-.248.243-.579.561-.72.736.063-.281.299-1.228.393-1.65l.745-3.326-1.49-.332-1.696 7.56 1.447.324 3.578-3.396c.245-.239.578-.562.718-.733-.063.281-.298 1.226-.392 1.646l-.715 3.199 1.488.333L1.353.301z" style="fill:#595757;fill-opacity:1;fill-rule:nonzero;stroke:none" transform="translate(380.732 346.688)"/><path d="M0 0c-1.867.105-3.058 1.433-2.932 3.689l.241 4.346 1.547-.085-.239-4.324C-1.453 2.389-.9 1.567.084 1.517c.984-.058 1.634.672 1.702 1.911l.244 4.343 1.549-.087-.241-4.322C3.211 1.117 1.969-.108 0 0" style="fill:#595757;fill-opacity:1;fill-rule:nonzero;stroke:none" transform="translate(392.61 347.303)"/><path d="m0 0-1.691 4.811c-.111.329-.261.767-.306.981-.07-.277-.297-1.224-.403-1.642l-.861-3.3-1.475.381 1.948 7.504 1.438-.373L.274 3.703c.111-.327.259-.763.308-.98.07.277.294 1.227.405 1.645l.824 3.17 1.482-.384L1.336-.347Z" style="fill:#595757;fill-opacity:1;fill-rule:nonzero;stroke:none" transform="translate(404.1 345.453)"/><path d="m0 0 3.098 7.099 1.418-.617L1.418-.622Z" style="fill:#595757;fill-opacity:1;fill-rule:nonzero;stroke:none" transform="translate(408.985 343.685)"/><path d="m0 0-1.27.804L.544 8.825l1.448-.917L.831 3.34a17.373 17.373 0 0 0-.373-1.271c.209.208.616.578.981.886L5.043 5.98l1.431-.906Z" style="fill:#595757;fill-opacity:1;fill-rule:nonzero;stroke:none" transform="translate(416.98 339.444)"/><path d="m0 0 5.292 5.663 3.933-3.68L8.188.878 5.389 3.497l-.913-.977L6.1.998 5.07-.101 3.445 1.417 2.167.054l2.917-2.735-1.037-1.107Z" style="fill:#595757;fill-opacity:1;fill-rule:nonzero;stroke:none" transform="translate(421.758 335.961)"/><path d="m0 0-1.197 1.633-1.61-1.18 1.202-1.633c.423-.582.922-.698 1.466-.299C.423-1.065.408-.556 0 0m-4.49-4.438 1.431 2.767-.924 1.259-2.251-1.652-.916 1.25L-.9 3.774 1.234.864c.868-1.181.928-2.631-.403-3.61-.939-.684-1.817-.719-2.718-.149l-1.549-2.98z" style="fill:#595757;fill-opacity:1;fill-rule:nonzero;stroke:none" transform="translate(435.193 330.464)"/><path d="M0 0c-.558 1.172-.551 2.423-.026 3.325l1.38-.582c-.332-.762-.265-1.5.055-2.169.397-.831.811-1.11 1.338-.858.453.213.537.55.209 2.014-.313 1.431-.334 2.523 1.047 3.182 1.269.605 2.58-.141 3.24-1.521.519-1.092.49-2.088.113-3.073l-1.458.54c.242.67.265 1.293-.039 1.935-.356.747-.797.845-1.108.696-.437-.208-.434-.576-.166-1.808.269-1.234.477-2.644-1.046-3.366C2.209-2.321.912-1.907 0 0" style="fill:#595757;fill-opacity:1;fill-rule:nonzero;stroke:none" transform="translate(434.442 319.261)"/><path d="m0 0 7.409 2.273.454-1.482L.455-1.48Z" style="fill:#595757;fill-opacity:1;fill-rule:nonzero;stroke:none" transform="translate(436.965 313.276)"/><path d="m0 0-6.154-.947-.237 1.532 6.155.947-.341 2.201 1.507.232.914-5.929-1.513-.237Z" style="fill:#595757;fill-opacity:1;fill-rule:nonzero;stroke:none" transform="translate(445.041 305.817)"/><path d="m0 0-3.064.094.048 1.549 3.031-.094 4.807 2.787-.054-1.781-1.872-1.037A32.77 32.77 0 0 0 1.355.723c.281-.156 1.01-.588 1.488-.886l1.804-1.156-.055-1.76z" style="fill:#595757;fill-opacity:1;fill-rule:nonzero;stroke:none" transform="translate(442.367 295.637)"/><path d="m0 0 4.582 1.373-.327 1.088.933.276c.248-.691.646-1.077 1.212-1.046l.314-1.05L.376-1.257Z" style="fill:#595757;fill-opacity:1;fill-rule:nonzero;stroke:none" transform="translate(336.37 281.327)"/><path d="M0 0c-.356.8-.911 1.111-1.473.863-.61-.272-.697-.849-.361-1.608.367-.817.837-1.138 1.467-.853C.196-1.351.347-.787 0 0m-5.832-.66 1.176.523c.622-1.398 1.508-2.07 2.584-2.004-.429.272-.721.6-.995 1.211-.53 1.203-.331 2.407 1.007 3 1.347.604 2.572-.2 3.205-1.621C1.743-.9 1.462-2.29-.23-3.04c-1.588-.708-4.207-.755-5.602 2.38" style="fill:#595757;fill-opacity:1;fill-rule:nonzero;stroke:none" transform="translate(343.704 277.253)"/><path d="M0 0c-.443.691-.927.787-1.288.56-.358-.229-.424-.742-.011-1.387.437-.685.888-.812 1.253-.577C.312-1.177.467-.733 0 0m-2.22-1.413c-.531.842-1.085 1.026-1.566.72-.507-.327-.478-1.023-.027-1.731.488-.768 1.064-1.041 1.573-.717.511.328.562.887.02 1.728M-4.796-3.05c-.917 1.445-.823 2.759.276 3.458.775.491 1.469.283 1.922-.023-.041.537.153 1.007.568 1.271C-.927 2.357.218 1.787.965.615c.699-1.102.816-2.427-.276-3.123-.4-.257-.926-.287-1.442-.01.075-.558-.025-1.259-.734-1.712-1.126-.715-2.386-.264-3.309 1.18" style="fill:#595757;fill-opacity:1;fill-rule:nonzero;stroke:none" transform="translate(347.089 271.132)"/><path d="M0 0c-.645.758-.926 1.685-.734 2.816l1.267-.233c-.082-.796.096-1.325.532-1.837.564-.66 1.062-.768 1.469-.425.388.329.348.757-.057 1.23l-.507.597.986.84.457-.539c.357-.416.683-.435 1.018-.152.257.219.331.643-.21 1.275-.327.388-.734.592-1.262.621L3.003 5.5c.914-.053 1.582-.357 2.22-1.104.873-1.031 1.096-2.254.148-3.064C4.825.869 4.246.875 3.846 1.04 4 .611 4.079-.124 3.42-.689 2.331-1.613 1.065-1.252 0 0" style="fill:#595757;fill-opacity:1;fill-rule:nonzero;stroke:none" transform="translate(346.768 262.009)"/><path d="m0 0-3.773 2.936-.696-.896-.771.595c.424.607.502 1.157.148 1.597l.672.866L.809 1.039Z" style="fill:#595757;fill-opacity:1;fill-rule:nonzero;stroke:none" transform="translate(433.293 261.388)"/><path d="M0 0c-.459-.75-.402-1.384.123-1.703.569-.351 1.094-.094 1.529.618.467.762.461 1.333-.128 1.694C.998.931.448.732 0 0m3.854-4.425-1.096.671c.792 1.305.846 2.417.18 3.265.019-.508-.084-.933-.437-1.504C1.818-3.115.711-3.64-.537-2.874c-1.26.77-1.297 2.232-.483 3.565.768 1.258 2.071 1.812 3.653.846C4.115.632 5.644-1.495 3.854-4.425" style="fill:#595757;fill-opacity:1;fill-rule:nonzero;stroke:none" transform="translate(432.435 269.774)"/><path d="M0 0c-.367-.799-.236-1.418.322-1.676.61-.279 1.096.039 1.445.793.374.817.299 1.381-.327 1.67C.88 1.041.358.783 0 0m4.346-3.939-1.167.536c.637 1.389.556 2.503-.204 3.266.076-.504.023-.937-.254-1.549-.552-1.191-1.584-1.839-2.917-1.226-1.339.61-1.547 2.06-.898 3.478C-.48 1.904.748 2.608 2.432 1.837c1.581-.726 3.347-2.655 1.914-5.776" style="fill:#595757;fill-opacity:1;fill-rule:nonzero;stroke:none" transform="translate(435.748 276.019)"/><path d="m0 0-.432-1.28C-2.465-.599-3.945.658-4.893 2.271L-5.958-.918l-1.196.4 1.578 4.702 1.211-.405C-3.547 2.086-2.168.728 0 0" style="fill:#595757;fill-opacity:1;fill-rule:nonzero;stroke:none" transform="translate(443.5 280.69)"/><path d="M0 0c.243.158.8.54-.023 1.139 0 0-6.266.349-6.746.006 0 0-.715-.303-.264-1.027C-6.608-.614-.236-.191 0 0" style="fill:#595757;fill-opacity:1;fill-rule:nonzero;stroke:none" transform="translate(415.01 315.581)"/><path d="M0 0c.657-.333 1.218-.937.596-1.949 0 0-.961-1.144-2.221-.337-.971.789-.768 1.805.282 2.368 0 0 .632.262 1.343-.082m-3.497-.985s.028-2.447 2.66-2.495c0 0 2.978-.103 2.833 2.567 0 0-.172 2.195-2.779 2.097 0 0-2.46-.066-2.714-2.169" style="fill:#595757;fill-opacity:1;fill-rule:nonzero;stroke:none" transform="translate(405.981 313.056)"/><path d="M0 0c-1.589.275-1.309 1.449-1.309 1.383 0 1.165 1.297 1.15 1.309 1.15 1.269.108 1.777-.778 1.743-1.489C1.58-.07 0 0 0 0m.332 3.524s-2.985.205-3.042-2.181c0 0-.043-2.566 3.096-2.497 0 0 2.395-.063 2.549 2.333 0 0 .319 2.018-2.603 2.345" style="fill:#595757;fill-opacity:1;fill-rule:nonzero;stroke:none" transform="translate(412.679 310.622)"/><path d="M0 0s-5.445.371-6.152.032c0 0-1.042-.458.036-1.122 1.121-.449 6.451-.074 6.697.069C.815-.875 1.414-.346 0 0" style="fill:#595757;fill-opacity:1;fill-rule:nonzero;stroke:none" transform="translate(401.616 316.72)"/><path d="M0 0s6.258-.018 6.671-.088c.68.233.703 1.374 0 1.374 0 0-5.711.164-6.451.091C-.624 1.424-.6 0 0 0" style="fill:#595757;fill-opacity:1;fill-rule:nonzero;stroke:none" transform="translate(395.315 318.386)"/><path d="M0 0c-1.305-.543-2.189.164-2.189.164-.831.892-.017 1.868-.017 1.868.923.788 1.903.358 2.26.075C1.735.87 0 0 0 0m.8 3.175c-1.23.462-4.32.668-4.432-1.835 0 0-.349-2.173 1.403-2.625 0 0 2.69-.448 3.582.742C2.33.758 2.026 2.697.8 3.175" style="fill:#595757;fill-opacity:1;fill-rule:nonzero;stroke:none" transform="translate(398.58 311.095)"/><path d="M0 0c.819-.236 5.757-.266 6.212-.144.422.119.821.282.44.889 0 0-5.255.858-6.675.423C-.321 1.04-.827.238 0 0" style="fill:#595757;fill-opacity:1;fill-rule:nonzero;stroke:none" transform="translate(408.494 318.16)"/><path d="M0 0a43.486 43.486 0 0 0 5.178-20.593A43.463 43.463 0 0 0 0-41.198Zm-1.67-43.815a2.938 2.938 0 0 0-.344-.771l-.019-.032a1.713 1.713 0 0 0-.707-.621c-.725-.336-.544 3.096-.544 3.096V1.079c-.014.443.01 1.193.01 1.193.024 1.001.122 1.588.661 1.616.384.017.787-.785.943-1.804zM-4.363 5.729s-.205-.593-.924-.406c-.586.035-2.742.945-4.553 1.715 0 0-2.043.696-3.366 1.061-.828.233-4.194.97-4.194.97-1.705.358-3.909.553-5.626.597 0 0-4.566.189-10.378-1.519 0 0-2.884-.732-3.461.136-.508.766.049 1.94 1.526 2.584 3.025 1.31 8.61 2.746 12.359 2.816 3.912.073 9.157-1.489 11.069-2.167 0 0 2.936-.894 4.932-2.247 1.127-.765 2.96-2.711 2.616-3.54m-1.832-55.427c-2.327-.89-3.688 5.943-3.827 9.608 0 0-1.311 18.449 1.785 18.822 3.958.671 3.171-5.171 3.159-7.698.053-6.631.268-14.592.468-18.058-.026-1.219-.695-2.231-1.585-2.674m-2.78-3.119a11.28 11.28 0 0 1-.222-.208c-.87-.648-2.009-.048-3.42.783-7.671 3.589-18.662.759-21.516.114-1.08-.18-3.005-.367-3.697.28-1.2.874 1.155 5.117 1.155 5.117.968 2.166.968 6.665.968 11.343 0 5.136-.413 10.387-.413 10.387-.116.748.081 1.309.318 1.696.507.555 1.045.599 1.478.555 0 0 2.726-.065 2.833-2.819 0 0-.397-7.465-.397-11.801 0 0-.758-9.182 1.901-9.614 0 0 8.974-1.058 11.183-.247 0 0 2.601.34 2.703 2.741l-.141 19.587s-.171 1.646 1.928 1.646c0 0 2.403.133 2.126-2.63 0 0-.268-12.582.461-18.493.139-1.289 1.204-3.759 1.431-4.243 1.259-2.464 2.26-3.106 1.321-4.194m-3.151-2.665-.387-.292c-.988.396-5.619 2.159-9.902 1.963-4.061 0-7.721-.939-10.624-1.863-1.454-.46-2.716-.921-3.73-1.259-1.005-.337-1.797-.531-2.122-.522-.32-.011-1.196.202-2.294.558-3.352 1.057-9.102 3.254-15.191 3.257-3.085.004-6.264-.571-9.245-2.16-.106.072-.21.139-.309.199-.254.196-.503.392-.753.594-.057.16.055.321.457.539 9.632 5.205 24.613-.711 27.109-.711 2.432 0 16.467 5.961 26.466 1.19 1.076-.495 1.099-.94.525-1.493m-3.028-2.138c-6.89-4.449-15.06-7.032-23.748-7.032-9.548 0-18.18 2.872-25.217 7.729 2.479 1.172 5.118 1.615 7.743 1.615 3.793 0 7.545-.928 10.626-1.873 1.545-.472 2.914-.944 4.064-1.312 1.152-.354 2.027-.621 2.795-.631.765.008 1.586.268 2.645.608 3.136 1.044 8.126 3.034 13.831 3.033 2.606 0 5.353-.412 8.157-1.516-.289-.194-.585-.4-.896-.621m-52.693 4.619c-1.839.35-2.447 1.75-2.447 1.75s-1.091 1.818 1.216 2.186c3.642 1.092 2.562 6.677 2.671 8.918.134 2.265 2.83 1.619 2.83 1.619 2.933-.098 1.943-9.662 1.943-9.662-.088-3.676-5.013-5.041-6.213-4.811m-4.466 4.065c-.225.386-.098 3.433-.098 3.433-.044 7.611.361 11.881.361 11.881.093 1.849 1.308 1.786 1.975 1.727 0 0 .813.122 1.602-.666 2.308-3.401 6.715-1.04 7.019-2.827-.02-.673-.305-2.289-3.927-1.818-.959.061-1.577-.412-1.975-.831-.113-.179-.498-.883-.498-1.62 0 0 .413-5.85-.505-7.075 0 0-.323-.814-1.943-1.328-1.816-.621-1.64-1.381-2.011-.876m-.472 55.532c.165 1.415 1.455 2.577 1.661 2.869 2.042 2.248 9.775 3.663 10.834 3.801 5.141.858 3.934-1.553 3.738-2.667-.166-.973-.534-1.788-2.383-2.048-2.934-.35-7.276-.249-7.986-2.163 0 0-1.29-4.492 3.034-4.465 0 0 2.579.095 1.925-1.049-1.646-3.617-10.076-5.177-10.465-2.366-.186 1.351-.443 6.675-.358 8.088m-1.512-53.478c-.332.274-.993 1.267-1.568 2.178V3.197c.052.158.115.345.191.524.169.249.333.495.501.734.358.35 1.291 1.195 1.07-3.442L-74-41.706s.39-5.742-.297-5.176m-3.236 4.861c-3.495 6.374-5.448 13.698-5.448 21.428A43.923 43.923 0 0 0-77.533.647zm38.432 20.225c-.707.041-1.381 1.607-1.772 4.045-.274 1.736-.484 8.274-.484 8.274.063.472.407.73.751.868 1.052.212 2.609.278 2.609.295.378-.024.526-.13.649-.384 0 0 .074-7.119.137-8.619.252-3.532-.82-4.542-1.89-4.479m-.453-15.011c-.944.067-4.012 1.055-4.361 1.38-.893.748-.181 1.706-.181 1.706.255.458 3.44 1.736 3.44 1.736s1.823.481 2.337-.325v.012c.952-1.058 1.384-4.689-1.235-4.509m-5.317-5.012c-.702 2.218.343 4.613 2.461 4.613 3.633-.545 4.413-3.467 4.449-3.851.094-.811.757-5.374-1.848-5.913-2.677-.56-5.062 5.151-5.062 5.151m-7.923-6.647v.026c.256 1.33 1.736 2.572 3.223 3.961 1.212 1.14 1.899 2.879 2.656 2.825.671-.049 1.079-2.293 1.79-3.096.924-1.465 3.097-3.317 3.931-4.379l.891-1.22c1-1.668.166-2.115-.614-2.392-1.109-.332-9.904 1.881-11.119 2.058-1.204.143-.758 2.217-.758 2.217m-1.706 9.172c.934 1.329 3.083 1.132 3.951 1.026 1.186-.15 1.546-2.516 1.186-3.932-.558-1.697-2.951-3.269-3.664-3.456-.549-.142-.774.327-.774.327-.451.492-.676 4.176-.676 4.176-.062.527-.319 1.437-.023 1.859m-1.963 1.818c-1.019.073-2.964-.181-3.251.679 0 0-.327.92.245 1.471.372.36 3.172.958 5.421 1.187 1.473.15 2.665.04 2.946-.036.551-.15 1.296-1.514-.04-2.711-1.211-.915-4.156-.671-5.321-.59m-3.393-2.801c.166 1.808 1.758 1.709 1.758 1.709 3.337.19 3.042-5.058 2.974-9.179-.084-4.111-3.47-3.438-4.219-2.326-1.222 1.057-.513 9.796-.513 9.796m-.078 10.725c.365 1.328 4.131 1.07 5.26-.182 1.133-1.281.042-2.652.042-2.652-1.997-2.236-4.864-1.281-4.864-1.281-1.048.424-.438 4.115-.438 4.115m13.282 37.973c-2.891.049-5.52.14-6.864.585-1.013.217-1.751 1.276-1.751 1.954-.134 2.767 2.081 2.814 2.081 2.814 3.077-.073 6.897-.961 9.13-1.57 1.519-.411 2.733-1.126 3.043-1.75.184-.459-1.844-2.355-5.639-2.033m.225-35.7c.543 1.735 3.051 2.572 4.056 2.796 1.319.298 3.318.766 4.193-.518.455-.691.946-2.772-.112-4.398-.811-1.03-3.631-2.327-6.502-2.279-1.794-.048-2.123 3.259-1.635 4.399m-2.826-8.015c.174 1.367 2.114 1.367 2.114 1.367 3.06-.427 1.906-4.024 1.906-4.024-.607-2.234-2.878-1.47-2.878-1.47-2.097.689-1.142 4.127-1.142 4.127m1.896 3.83c-.552-1.346-4.234-1.05-4.435-1.001-1.478.294-1.347 1.769-1.347 1.769-.17 1.994 3.769 2.144 3.769 2.144 1.259-.035 2.559-1.574 2.013-2.912m-13.56 9.208c0 .861 1.591.927 1.591.927.968-.066 11.066-.435 11.066-.435 1.226-.176.888-1.378.888-1.378-.622-.761-11.699-.225-11.699-.225-2.267-.091-1.846 1.111-1.846 1.111m17.002 3.342c1.146-.145 1.429-.86 1.429-.86 1.082-2.669-.149-3.426-1.063-3.593-2.81-.21-1.689 1.214-2.396 2.044-.387.456-1.248.692-1.799.74-3.054.255-13.329.37-13.329.37-1.855-.09-1.458-1.991-1.66-2.445-.193-.454-1.412-1.19-2.429-.378-1.022.802-1.022 4.774 2.888 4.432 2.435 0 15.394-.268 18.359-.31m-11.456 8.23c.315.652.92.831 1.292.867 0 0 1.556.296 2.273-.645 0 0 .787-1.383-.899-1.947-1.309-.497-2.408.268-2.408.268-.586.413-.258 1.457-.258 1.457m1.607-3.409c1.097.005 1.836-.865 1.836-.865.816-.871.076-1.869.076-1.869-.204-.226-.644-.413-1.15-.506-1.29-.139-2.186.219-2.186.219-.875.292-.669 1.499-.669 1.499.179 1.441 2.093 1.522 2.093 1.522M-49.01-.441s3.391-3.12 8.156-3.315c0 0 3.08.117 2.987-1.176-.103-1.749-2.025-1.749-2.053-1.825-2.485-.265-8.416-.816-11.635 6.017-1.063 3.241-.139 5.942-.031 6.145.129.211.559 1.348 2.233 1.519 1.546.028 4.898.495 5.946-1.221 0 0 1.168-1.252-.459-1.718 0 0-1.054-.228-1.763-.114 0 0-3.159.452-3.982-.913 0 0-.962-1.952.601-3.399m-17.35-7.706s4.243.245 7.21 2.586c5.634 4.419 2.3 11.847 3.514 12.851 0 0 .441.487 1.071.374.577-.081 1.159-.442 1.182-1.35-.071-2.029-.817-5.744 1.053-9.292 0 0 2.3-4.407 8.911-5.402 1.476-.115 1.031-.982.11-1.198-.912-.236-2.722.249-3.228.355-1.348.283-2.183-.301-1.67-1.006.924-.786 4.128-.637 4.128-.637 1.774-.149.66-1.113.66-1.113-.353-.37-4.42-.052-4.42-.052-.784 0-.67-.919-.438-1.127.298-.402 4.125-.27 4.125-.27 1.536-.076.92-1.176.92-1.176-.193-.853-4.42-.169-4.42-.169-.971 0-.647-.81-.647-.81.185-.736 1.16-.771 1.16-.771.847-.011 3.246.015 3.246.015 1.096-.146 1.036-.347 1.01-.74-.019-.254-.459-.37-.459-.37-.425-.341-4.824-.049-5.925-.067-1.385 0-.847.494-.847.494.265.426.265 1.105.265 1.105 0 1.292-1.238 2.151-1.238 2.151-.505.539.188 1.008.188 1.008.881.727.699 1.988.699 1.988-.181 2.311-3.056 2.381-3.056 2.381-.094.259.183.854-.62.88-.858-.044-.554-.898-.554-.898a2.02 2.02 0 0 0-.531-.187c-1.442-.422-1.848-1.362-1.848-1.362-1.038-1.889.521-3.079.521-3.079.637-.469-.104-.816-.104-.816s-.484-.323-.809-.76c-.651-.889-.067-2.375-.067-2.375.09-.162-.333-.172-.668-.206-1.782-.179-5.946.17-5.946.17-2.655.014-1.97 1.111-1.97 1.111.539.654 4.554.137 5.471.1.919-.012 1.154 1.613-1.736 1.536-1.491-.042-4.95-.199-3.612 1.071.416.415 1.455.091 2.788.205a26.202 26.202 0 0 0 2.305-.159c1.479-.131.881.923.881.923-.337.796-2.632.595-2.632.595-1.568-.145-2.398-.134-2.953-.021-.712.114-.639.453-.639.453-.116.675 1.074.69 2.599.746 1.548.058 3.206 0 3.206 0 .923-.093.991.613.991.613.118 1.232-.943 1.049-.943 1.049-.647-.095-2.125-.257-3.878-.392-1.358-.102-2.554-.496-3.039.06-.671.931.683.985.683.985m-1.598-2.467v-9.023c-.027-7.217-.332-9.219-.332-9.219-.123-1.827-1.993-1.569-1.993-1.569-.632-.08-1.396.252-1.575.878-.731 2.56-.367 9.483-.367 14.005 0 3.009.025 5.614.025 5.614.085 1.665 2.758 1.218 2.758 1.218 1.457-.249 1.484-1.904 1.484-1.904m-3.907 4.094c-1.305 1.906 2.597 1.943 2.597 1.943s4.006.414 6.128 1.798c0 0 3.2 2.069 3.018 4.826 0 0 .015 1.487-1.967 1.395 0 0-2.494-.212-3.235.897 0 0-.724 1.76 1.936 2.155 0 0 5.612 1.24 5.947-.3 0 0 .365-4.42-.274-6.947 0 0-.389-3.198-4.997-4.995-1.403-.506-2.996-.784-4.017-.948-4.774-.764-5.136.176-5.136.176m9.519-20.605c.034-.406.582-1.06.9-1.408.285-.178.792-.836.388-2.603-.544-1.443-1.71-1.859-2.628-1.953-.908.055-2.731.071-3.152 1.657-.436 1.576-.241 5.414 1.637 6.683.412.402 15.863 0 15.863 0 2.199-.26 1.416-1.711 1.416-1.711-1.506-1.976-10.959-1.116-10.959-1.116-.874.045-1.697 1.28-1.697 1.28-.583.572-1.422.065-1.422.065-.371-.243-.346-.894-.346-.894m36.574 32.488s-11.38 1.025-11.576-4.287c0 0 .592-2.572-1.626-3.256-2.42-1.164-9.52 2.429-9.3 3.926 0 0 .031 1.12 1.994.626 0 0 3.459-.526 4.49.818 0 0 1.284 1.779-.321 3.874-.183.336.095.611.404.897 0 0 2.117 1.771 2.84.006.823-1.993 1.776-2.528 2.687-2.464.911.056 4.795 2.161 10.511 2.112.319 0 .956-.045 1.056-.481 0 0 .569-1.76-1.159-1.771m6.305-18.235s.828.577 1.31-.241c0 0 .49-.693.456-1.901.005-.629-.103-1.557-.693-1.936 0 0-1.651-.72-2 .636 0 0-.224 2.525.927 3.442m-5.443-.534c.024 1.634 1.788 1.357 1.788 1.357 1.401.09 1.604-1.207 1.604-1.207.025-1.158-.456-3.495-1.863-3.591-1.593.161-1.417 2.222-1.529 3.441m-4.744-2.059c.128 1.62.51 2.395.952 2.766.679.37 1.627.036 1.627.036.764-.365.772-1.425.538-3.02-.23-1.597-3.149-1.196-3.117.218m3.922-2.925c.521-.09 1.167-.46 1.167-1.241 0 0 .405-3.141.277-5.817-.091-1.971-.53-3.453-1.307-4.436 0 0-2.459-2.263-3.636-.242-1.113 2.206 2.232 9.298-5.766 9.205-1.018.008-.565 1.782-.565 1.782l.035.013c.093.616 1.279.687 2.078.7.427-.076 5.001.036 7.717.036m6.856-25.899c-.786-1.47-5.304-1.107-5.304-1.107-1.92-.04-3.718.162-4.522 1.338-1.195 2.119-1.011 7.013-1.011 7.013-.038 2.038.298 3.194 1.107 3.962 1.842 1.43 4.98 1.018 4.98 1.018 1.753-.277 3.69-.832 4.428-1.664 1.106-1.009.828-4.147.828-4.147-.049-1.867.145-5.508-.506-6.413m.549 14.024c-.104-.703-.7-1.084-1.648-1.107 0 0-2.312-.527-2.425 2.957 0 2.633-.082 8.456.381 9.268.519.845 1.799.741 2.511.757.788-.016 4.557-.627 6.696-.489.387.017 1.384.017 1.476-.711 0 0 .241-2.023-1.291-2.072-1.532-.023-5.598 1.385-5.846-2.157 0 0 .193-6.141.146-6.446m-2.716 35.282s-1.32.016-1.387 1.371c0 0-.045 1.529 1.914 1.21 0 0 6.482-.722 11.773-2.969.846-.338 3.081-1.141 3.667-1.903.278-.309.14-2.661.14-2.661l-.382-18.157c-.278-1.869-1.799-1.526-2.77-1.316-1.104.552-1.629 1.474-1.357 6.458L-9.273.249s-.528 4.784-11.77 4.768m0-1.552s9.326-.08 9.867-3.35c0 0-.157-15.531-.283-16.608-.258-1.165-6.452-1.531-4.777 3.543.764 1.157 2.601-.163 2.75 1.369 0 0-.369.719-1.883.719 0 0-16.264.456-16.835.427-.552-.01-1.786-.773-.465-1.486 0 0 1.857-.173 1.687-.189-.166-.031.503.006.45-.695.088-1.283-.444-4.264-2.835-4.181-.49.016-1.246-.206-1.698.481-.893 2.607-.355 16.719-.355 16.719s-.331 2.052 2.994 2.918c0 0 3.538.709 6.897.373.491-.092.899-.177.843-1.026.021-.497-.031-4.315-.031-4.315s.135-1.039 1.091-1.021c0 0 .936 0 1.001 1.346l.195 4.115s-.195.861 1.387.861m-42.693 12.362c2.325.898 4.859 1.258 7.411 1.258 3.909 0 7.855-.823 11.092-1.653 1.617-.419 3.062-.837 4.254-1.156 1.201-.311 2.104-.546 2.837-.553.719.007 1.537.224 2.583.507 3.106.873 8.07 2.549 13.766 2.549 2.53 0 5.197-.327 7.911-1.205a44.26 44.26 0 0 0 3.732-2.899c-.029.008-.049.018-.076.031-10.709 4.319-18.222 2.446-26.78-.592-.878-.335-1.986-.207-2.548.016-5.111 2.104-10.814 3.442-17.157 3.259-2.041-.061-6.797-.846-9.4-1.791a83.922 83.922 0 0 0-1.042-.359 42.901 42.901 0 0 0 3.417 2.588m24.834 7.651c7.436 0 14.5-1.903 20.71-5.25a28.725 28.725 0 0 1-3.601.226c-4.013-.004-7.64-.787-10.514-1.562-1.439-.382-2.694-.765-3.701-1.054-.998-.282-1.787-.449-2.134-.444-.348-.01-1.252.184-2.406.498-3.504.931-9.57 2.858-15.777 2.862-.909 0-1.82-.04-2.726-.136 6.034 3.107 12.884 4.86 20.149 4.86m-.105 1.173c-24.936 0-45.149-20.214-45.149-45.15 0-24.932 20.213-45.147 45.149-45.147 24.935 0 45.149 20.215 45.149 45.147 0 24.936-20.214 45.15-45.149 45.15" style="fill:#595757;fill-opacity:1;fill-rule:nonzero;stroke:none" transform="translate(428.621 318.9)"/><path d="M0 0c-33.771 0-61.239 27.572-61.239 61.488 0 33.896 27.468 61.473 61.239 61.473 33.766 0 61.235-27.577 61.235-61.473C61.235 27.572 33.766 0 0 0m0 124.702c-34.911 0-63.214-28.302-63.214-63.214 0-34.91 28.303-63.213 63.214-63.213s63.21 28.303 63.21 63.213c0 34.912-28.299 63.214-63.21 63.214" style="fill:#595757;fill-opacity:1;fill-rule:nonzero;stroke:none" transform="translate(389.614 236.905)"/><path d="M0 0c-24.587 0-44.521 19.931-44.521 44.52 0 24.59 19.934 44.521 44.521 44.521 24.588 0 44.521-19.931 44.521-44.521C44.521 19.931 24.588 0 0 0m0 89.842c-25.028 0-45.319-20.292-45.319-45.322C-45.319 19.491-25.028-.797 0-.797c25.03 0 45.319 20.288 45.319 45.317C45.319 69.55 25.03 89.842 0 89.842" style="fill:#595757;fill-opacity:1;fill-rule:nonzero;stroke:none" transform="translate(389.719 253.882)"/><path d="M0 0c-2.922-1.321-5.519-2.693-8.555-4.664-.395-.258-.801-.523-1.211-.798l-.646-.439.44-1.057C-6.114-4.312-3.104-2.66.367-1.091c.698.318 1.412.63 2.158.945.344.144.69.293 1.047.438l-.438 1.056C2.031.891.999.448 0 0" style="fill:#595757;fill-opacity:1;fill-rule:nonzero;stroke:none" transform="translate(356.489 369.451)"/><path d="M0 0c3.001 1.133 5.806 2 9.347 2.755a93.642 93.642 0 0 0 2.192.437l.436-1.058C7.373 1.279 4.075.317.511-1.028a85.152 85.152 0 0 1-2.193-.858l-1.047-.43-.439 1.056C-2.065-.805-1.023-.387 0 0" style="fill:#595757;fill-opacity:1;fill-rule:nonzero;stroke:none" transform="translate(362.79 372.06)"/><path d="M0 0a61.308 61.308 0 0 1-2.755-9.353 92.988 92.988 0 0 1-.289-1.42c-.049-.252-.1-.507-.147-.769l1.055-.437c.86 4.601 1.818 7.898 3.164 11.463.271.717.559 1.441.86 2.194.139.342.284.692.431 1.048l-1.057.437A115.934 115.934 0 0 1 0 0" style="fill:#595757;fill-opacity:1;fill-rule:nonzero;stroke:none" transform="translate(315.947 325.222)"/><path d="M0 0a61.166 61.166 0 0 0 4.659 8.559c.26.396.527.802.802 1.21.145.213.288.432.44.645l1.055-.435C4.311 6.119 2.657 3.108 1.087-.364.773-1.06.46-1.778.143-2.523c-.142-.341-.291-.688-.435-1.043l-1.056.437C-.893-2.026-.448-.996 0 0" style="fill:#595757;fill-opacity:1;fill-rule:nonzero;stroke:none" transform="translate(318.558 331.514)"/><path d="M0 0a61.108 61.108 0 0 1 4.658-8.559c.26-.398.527-.8.802-1.21.145-.216.288-.427.44-.646l1.055.436C4.31-6.117 2.656-3.107 1.086.363c-.314.701-.627 1.415-.944 2.16-.142.342-.291.691-.435 1.043l-1.056-.437C-.894 2.025-.449.994 0 0" style="fill:#595757;fill-opacity:1;fill-rule:nonzero;stroke:none" transform="translate(318.559 265.272)"/><path d="M0 0a61.43 61.43 0 0 0-2.755 9.347c-.097.462-.195.94-.289 1.424-.049.253-.1.503-.147.765l1.055.436C-1.276 7.374-.318 4.079 1.028.513c.271-.715.559-1.443.86-2.194.139-.343.281-.692.431-1.048l-1.057-.438A100.38 100.38 0 0 0 0 0" style="fill:#595757;fill-opacity:1;fill-rule:nonzero;stroke:none" transform="translate(315.947 271.568)"/><path d="M0 0a61.577 61.577 0 0 1 9.347-2.758c.463-.093.933-.191 1.422-.287.255-.045.505-.1.766-.144l.437 1.054C7.372-1.277 4.075-.317.511 1.029c-.72.27-1.442.553-2.193.86-.345.138-.695.283-1.047.429l-.439-1.058C-2.065.803-1.023.386 0 0" style="fill:#595757;fill-opacity:1;fill-rule:nonzero;stroke:none" transform="translate(362.79 224.728)"/><path d="M0 0c-2.922 1.323-5.519 2.695-8.555 4.664-.395.26-.801.525-1.211.799-.215.146-.425.293-.646.443l.433 1.056c3.865-2.65 6.874-4.3 10.346-5.869A87.802 87.802 0 0 1 2.525.15c.344-.146.69-.292 1.047-.437l-.438-1.059C2.031-.887.999-.446 0 0" style="fill:#595757;fill-opacity:1;fill-rule:nonzero;stroke:none" transform="translate(356.489 227.333)"/><path d="M0 0a60.973 60.973 0 0 1 8.555 4.66c.399.26.801.526 1.213.799l.645.443-.438 1.056C6.116 4.309 3.108 2.658-.366 1.089-1.065.771-1.779.463-2.526.142-2.865 0-3.216-.145-3.57-.291l.441-1.059C-2.027-.893-.996-.447 0 0" style="fill:#595757;fill-opacity:1;fill-rule:nonzero;stroke:none" transform="translate(422.735 227.337)"/><path d="M0 0a60.912 60.912 0 0 0-9.345-2.752c-.465-.099-.94-.197-1.427-.293-.252-.045-.502-.1-.764-.148l-.439 1.058c4.604.858 7.897 1.818 11.464 3.164.716.27 1.442.553 2.194.86.343.138.69.283 1.045.429l.441-1.058A103.72 103.72 0 0 0 0 0" style="fill:#595757;fill-opacity:1;fill-rule:nonzero;stroke:none" transform="translate(416.437 224.728)"/><path d="M0 0a61.799 61.799 0 0 1 2.754 9.347c.098.462.193.94.291 1.424.048.253.098.503.145.765l-1.056.436C1.277 7.374.318 4.078-1.027.512c-.273-.714-.558-1.442-.86-2.193-.142-.343-.284-.693-.429-1.048l1.057-.438C-.803-2.061-.389-1.022 0 0" style="fill:#595757;fill-opacity:1;fill-rule:nonzero;stroke:none" transform="translate(463.28 271.568)"/><path d="M0 0a61.149 61.149 0 0 0-4.662-8.559c-.263-.398-.526-.8-.805-1.212a37.466 37.466 0 0 0-.439-.647l-1.055.439C-4.312-6.121-2.66-3.109-1.091.362c.317.702.626 1.416.943 2.161.146.34.291.691.439 1.043l1.058-.437C.889 2.025.449.994 0 0" style="fill:#595757;fill-opacity:1;fill-rule:nonzero;stroke:none" transform="translate(460.672 265.272)"/><path d="M0 0a60.867 60.867 0 0 1-4.66 8.559c-.263.396-.526.799-.805 1.21-.142.213-.285.428-.433.645l-1.061-.435c2.648-3.86 4.301-6.871 5.87-10.343.317-.696.626-1.414.946-2.159l.436-1.043 1.058.437C.891-2.026.451-.996 0 0" style="fill:#595757;fill-opacity:1;fill-rule:nonzero;stroke:none" transform="translate(460.67 331.514)"/><path d="M0 0a61.922 61.922 0 0 0 2.754-9.351c.098-.463.195-.938.291-1.424.048-.254.098-.505.145-.768l-1.054-.436C1.277-7.382.318-4.081-1.027-.516a126.75 126.75 0 0 1-.86 2.192c-.142.344-.284.694-.429 1.05l1.057.437C-.805 2.058-.387 1.018 0 0" style="fill:#595757;fill-opacity:1;fill-rule:nonzero;stroke:none" transform="translate(463.28 325.222)"/><path d="M0 0c-3.001 1.136-5.805 2.003-9.345 2.758-.463.097-.939.195-1.423.289-.254.05-.506.098-.768.148l-.439-1.058C-7.371 1.282-4.074.32-.511-1.025c.716-.271 1.442-.557 2.195-.858.342-.142.69-.284 1.047-.43l.438 1.056C2.066-.802 1.02-.384 0 0" style="fill:#595757;fill-opacity:1;fill-rule:nonzero;stroke:none" transform="translate(416.437 372.056)"/><path d="M0 0c2.926-1.321 5.521-2.693 8.555-4.664.399-.261.805-.523 1.216-.798.211-.147.424-.289.642-.439l-.438-1.057C6.118-4.313 3.108-2.66-.366-1.091c-.699.318-1.413.63-2.158.945-.341.144-.692.293-1.043.438l.438 1.056C-2.027.891-.996.448 0 0" style="fill:#595757;fill-opacity:1;fill-rule:nonzero;stroke:none" transform="translate(422.735 369.451)"/><path d="M0 0c.915 1.044 2.353 1.585 4.386 1.555 2.574-.026 5.796-.488 8.786-1.043l.435 1.048c-3.104.582-6.495 1.079-9.242 1.105C2.03 2.703.269 2.079-.877.828c-.351-.384-.612-.887-.802-1.414-.193.527-.453 1.03-.803 1.416-1.145 1.249-2.909 1.873-5.244 1.837-2.747-.028-6.141-.521-9.239-1.107l.432-1.048c2.988.555 6.212 1.019 8.785 1.043 2.033.03 3.474-.511 4.384-1.555 1.025-1.171.991-3.636.985-3.644v-.016c-.009-.093-.007-.194-.017-.289.014-.005.03 0 .045 0h.67l.633.001.088-.001a6.456 6.456 0 0 1-.022.31C-.989-3.54-1.006-1.154 0 0" style="fill:#595757;fill-opacity:1;fill-rule:nonzero;stroke:none" transform="translate(391.295 373.691)"/><path d="m0 0 .474.474.448.451c.018.02.04.04.059.058-.075.062-.148.137-.222.194 0 .002-.005.007-.005.007-.017.005-1.779 1.72-1.884 3.273-.094 1.386.541 2.787 2.002 4.207 1.837 1.797 4.442 3.748 6.948 5.467l-.432 1.051c-2.609-1.779-5.361-3.83-7.319-5.755-1.676-1.619-2.48-3.31-2.406-5.004.023-.523.192-1.059.431-1.569-.505.236-1.046.414-1.567.432-1.693.078-3.384-.73-5.007-2.405-1.922-1.96-3.973-4.714-5.751-7.321l1.049-.435c1.722 2.511 3.669 5.117 5.47 6.953 1.42 1.461 2.82 2.093 4.204 2.002C-1.955 1.972-.239.21-.233.198V.195c.059-.076.139-.15.201-.225l.001.002c.01.009.024.02.031.028" style="fill:#595757;fill-opacity:1;fill-rule:nonzero;stroke:none" transform="translate(338.69 348.368)"/><path d="M0 0V1.394c-.109-.011-.222-.016-.333-.026-.256-.008-2.514.02-3.616.983-1.043.914-1.589 2.356-1.558 4.388.025 2.573.486 5.794 1.047 8.784l-1.05.432c-.587-3.101-1.081-6.493-1.106-9.239-.039-2.332.587-4.101 1.838-5.244.383-.35.886-.608 1.412-.802-.526-.19-1.029-.452-1.415-.801-1.248-1.144-1.874-2.911-1.837-5.243.027-2.743.521-6.137 1.109-9.242l1.049.433c-.561 2.991-1.022 6.214-1.047 8.782-.031 2.038.515 3.477 1.554 4.39 1.175 1.024 3.637.99 3.647.982h.014c.097-.009.196-.015.292-.024v.007z" style="fill:#595757;fill-opacity:1;fill-rule:nonzero;stroke:none" transform="translate(318.266 297.723)"/><path d="m0 0-.449.445a.62.62 0 0 1-.059.057C-.577.424-.655.346-.72.265-.833.141-2.484-1.504-3.982-1.602c-1.383-.095-2.783.54-4.204 1.998-1.8 1.838-3.748 4.443-5.47 6.951l-1.049-.434c1.779-2.608 3.83-5.356 5.751-7.319C-7.331-2.08-5.64-2.889-3.946-2.813c.521.023 1.055.195 1.566.434-.239-.51-.408-1.049-.433-1.568-.078-1.696.731-3.384 2.409-5.006 1.957-1.923 4.709-3.973 7.318-5.752l.433 1.05C4.84-11.938 2.232-9.988.398-8.188c-1.46 1.42-2.095 2.823-2.002 4.202C-1.499-2.432.263-.715.278-.713l.011.011c.074.061.144.136.215.197-.007.011-.019.018-.03.032z" style="fill:#595757;fill-opacity:1;fill-rule:nonzero;stroke:none" transform="translate(339.163 247.944)"/><path d="M0 0c-2.985-.559-6.207-1.023-8.781-1.048-2.033-.028-3.475.517-4.386 1.554-1.022 1.174-.989 3.636-.982 3.648l.001.024c.009.088.016.186.021.281h-1.443l.024-.335c.006-.284-.028-2.517-.985-3.612-.91-1.043-2.351-1.588-4.384-1.56-2.573.027-5.797.489-8.786 1.048l-.431-1.048c3.098-.591 6.492-1.085 9.239-1.108 2.329-.039 4.099.584 5.244 1.837.35.383.61.885.801 1.414.189-.529.453-1.031.804-1.414 1.141-1.253 2.907-1.879 5.239-1.839 2.743.025 6.141.519 9.241 1.11z" style="fill:#595757;fill-opacity:1;fill-rule:nonzero;stroke:none" transform="translate(404.462 222.587)"/><path d="M0 0c-1.72-2.508-3.667-5.115-5.472-6.95-1.415-1.461-2.818-2.094-4.201-2.002-1.554.105-3.269 1.866-3.271 1.883 0 0-.008.005-.008.01-.065.072-.132.139-.199.214a.16.16 0 0 0-.03-.027l-.473-.475-.45-.455c-.017-.017-.04-.032-.056-.054.085-.069.165-.154.255-.221.203-.197 1.753-1.8 1.853-3.252.09-1.383-.543-2.785-1.998-4.205-1.836-1.801-4.447-3.751-6.953-5.471l.434-1.047c2.608 1.78 5.359 3.828 7.318 5.752 1.679 1.622 2.484 3.311 2.409 5.006-.021.52-.196 1.053-.435 1.564.512-.235 1.051-.407 1.572-.433 1.689-.072 3.381.731 5.005 2.41C-2.781-5.794-.729-3.042 1.048-.434z" style="fill:#595757;fill-opacity:1;fill-rule:nonzero;stroke:none" transform="translate(453.718 255.291)"/><path d="M0 0c.527.194 1.027.453 1.417.802 1.248 1.143 1.874 2.912 1.835 5.244-.027 2.742-.523 6.138-1.109 9.239l-1.05-.433c.557-2.989 1.022-6.21 1.048-8.783.029-2.032-.514-3.474-1.555-4.388C-.586.658-3.05.69-3.063.698h-.015c-.098.012-.192.015-.285.021V.713C-3.367.698-3.367.684-3.367.67V-.635c.004-.03 0-.06 0-.088.113.009.221.015.33.024.232.008 2.505-.009 3.618-.982 1.046-.913 1.587-2.355 1.56-4.39-.026-2.568-.491-5.791-1.048-8.782l1.05-.436c.586 3.102 1.082 6.497 1.109 9.245.035 2.333-.587 4.096-1.84 5.243C1.027-.45.527-.191 0 0" style="fill:#595757;fill-opacity:1;fill-rule:nonzero;stroke:none" transform="translate(464.326 298.393)"/><path d="M0 0c-1.624 1.674-3.311 2.481-5.008 2.404-.521-.017-1.056-.196-1.569-.432.239.509.414 1.047.435 1.57.078 1.692-.73 3.385-2.409 5.003-1.959 1.926-4.71 3.977-7.318 5.756l-.434-1.053c2.506-1.718 5.117-3.668 6.953-5.47 1.459-1.415 2.088-2.818 2-4.202C-7.454 2.023-9.22.308-9.232.303L-9.24.295c-.074-.061-.145-.133-.22-.193V.098c.013-.009.021-.021.032-.031l.474-.473.451-.45c.017-.018.037-.035.052-.056.071.082.146.157.213.236.084.092 1.754 1.771 3.265 1.875C-3.59 1.29-2.186.655-.771-.803 1.033-2.641 2.98-5.246 4.703-7.756l1.045.435C3.971-4.714 1.922-1.961 0 0" style="fill:#595757;fill-opacity:1;fill-rule:nonzero;stroke:none" transform="translate(449.018 349.25)"/><path d="M0 0c-1.166-.088-2.139-.14-3.97-.379-1.531-.183-2.437-.354-3.562-.526l-.625-.108c-.029-.009-.053-.01-.085-.015-2.918-.517-5.98-1.221-8.389-2.083-2.199-.785-3.538-2.014-4.275-3.543-.578-1.243-.543-2.353.202-4.37l.68-1.704.661-1.571 1.141.494-.672 1.541c-.245.608-.519 1.275-.525 1.297-.597 1.507-.917 2.819-.372 3.927.539 1.103 1.834 2.326 3.481 2.886 2.298.794 5.342 1.443 8.232 1.959.246.041.491.088.733.132h.016c1.097.169 1.996.342 3.502.522 1.781.228 2.746.282 3.889.37v-.005c1.154.075 3.482.168 4.685.159V.159C3.544.165 1.155.071 0 0" style="fill:#595757;fill-opacity:1;fill-rule:nonzero;stroke:none" transform="translate(384.868 369.584)"/><path d="M0 0c1.164-.088 2.139-.14 3.971-.379 1.53-.183 2.433-.354 3.56-.526l.626-.108c.026-.009.052-.01.084-.015 2.921-.517 5.98-1.221 8.388-2.083 2.196-.785 3.539-2.014 4.275-3.543.581-1.243.547-2.353-.203-4.37l-.678-1.704-.661-1.571-1.138.494.667 1.541c.247.608.52 1.275.527 1.297.595 1.507.918 2.819.373 3.927-.54 1.103-1.84 2.326-3.484 2.886-2.299.794-5.342 1.443-8.23 1.959-.245.041-.492.088-.732.132h-.019c-1.096.169-1.995.342-3.5.522-1.779.228-2.747.282-3.889.37v-.005c-1.158.075-3.481.168-4.683.159V.159C-3.544.165-1.158.071 0 0" style="fill:#595757;fill-opacity:1;fill-rule:nonzero;stroke:none" transform="translate(394.36 369.584)"/><path d="M0 0c-.758-.884-1.411-1.609-2.538-3.075-.957-1.212-1.478-1.973-2.146-2.889l-.366-.519a.854.854 0 0 0-.047-.07c-1.702-2.429-3.368-5.097-4.462-7.403-1.002-2.112-1.076-3.926-.518-5.532.471-1.287 1.277-2.044 3.236-2.944l1.682-.721 1.582-.645.452 1.152-1.559.613c-.606.259-1.272.54-1.293.547-1.487.649-2.639 1.345-3.041 2.517-.394 1.157-.343 2.941.422 4.5 1.064 2.186 2.758 4.796 4.438 7.207.142.204.286.408.425.611l.01.014c.653.894 1.169 1.651 2.106 2.842C-.517-2.374.126-1.65.873-.782v-.006c.771.873 2.346 2.582 3.204 3.428l-.832.828C2.39 2.624.768.871 0 0" style="fill:#595757;fill-opacity:1;fill-rule:nonzero;stroke:none" transform="translate(335.919 345.374)"/><path d="M0 0c.88.761 1.608 1.405 3.07 2.535 1.215.953 1.974 1.475 2.896 2.145l.512.363c.028.02.052.035.073.052 2.431 1.702 5.095 3.367 7.404 4.461 2.109.997 3.928 1.077 5.532.515 1.287-.468 2.048-1.275 2.945-3.234l.722-1.68.646-1.583-1.157-.453-.612 1.563c-.259.605-.536 1.269-.549 1.285-.646 1.491-1.342 2.643-2.513 3.048-1.159.395-2.943.341-4.502-.426-2.185-1.065-4.799-2.756-7.204-4.434-.204-.144-.412-.286-.613-.43l-.012-.007c-.896-.656-1.653-1.171-2.843-2.111C2.371.512 1.65-.133.782-.877l.001-.004c-.868-.766-2.58-2.344-3.422-3.197l-.831.828C-2.629-2.393-.871-.771 0 0" style="fill:#595757;fill-opacity:1;fill-rule:nonzero;stroke:none" transform="translate(342.634 352.092)"/><path d="M0 0c.087-1.161.142-2.136.375-3.968.184-1.534.355-2.435.531-3.559l.107-.625a.77.77 0 0 1 .016-.086c.514-2.923 1.22-5.984 2.079-8.388.785-2.201 2.016-3.54 3.543-4.278 1.244-.578 2.353-.544 4.372.204l1.702.678 1.574.667-.497 1.136-1.54-.672a507.32 507.32 0 0 0-1.294-.525c-1.514-.596-2.82-.916-3.934-.374-1.096.542-2.32 1.839-2.882 3.483-.795 2.298-1.444 5.338-1.961 8.233-.044.244-.086.49-.128.733l-.003.015c-.17 1.098-.342 1.995-.52 3.503-.229 1.78-.282 2.747-.371 3.889h.005c-.073 1.158-.17 3.48-.16 4.68H-.16C-.167 3.546-.073 1.158 0 0" style="fill:#595757;fill-opacity:1;fill-rule:nonzero;stroke:none" transform="translate(318.428 293.644)"/><path d="M0 0c.087 1.159.142 2.134.375 3.967.184 1.534.355 2.437.531 3.561l.107.623a.77.77 0 0 0 .016.086c.514 2.919 1.22 5.983 2.079 8.389.785 2.198 2.016 3.54 3.543 4.278 1.244.579 2.353.543 4.372-.204l1.702-.679 1.574-.666-.497-1.136-1.54.672-1.294.524c-1.514.595-2.82.919-3.934.375-1.096-.542-2.32-1.839-2.882-3.484-.795-2.3-1.444-5.342-1.961-8.232l-.128-.732-.003-.016c-.17-1.097-.342-1.995-.52-3.505v.005c-.229-1.781-.282-2.749-.371-3.89h.005c-.073-1.16-.17-3.483-.16-4.688H-.16C-.167-3.547-.073-1.16 0 0" style="fill:#595757;fill-opacity:1;fill-rule:nonzero;stroke:none" transform="translate(318.428 303.142)"/><path d="M0 0c.882-.761 1.612-1.41 3.078-2.538 1.208-.954 1.969-1.477 2.888-2.147l.518-.365c.024-.014.046-.032.071-.049 2.429-1.701 5.091-3.365 7.401-4.462 2.113-.997 3.931-1.076 5.533-.513 1.287.467 2.046 1.275 2.943 3.233l.725 1.681.644 1.581-1.155.453-.614-1.56c-.258-.606-.537-1.272-.546-1.29-.646-1.488-1.343-2.641-2.515-3.04-1.159-.395-2.941-.345-4.5.419-2.186 1.067-4.797 2.759-7.207 4.439-.205.143-.409.284-.611.429l-.015.007c-.895.653-1.65 1.17-2.84 2.107C2.376-.517 1.654.128.783.875l.004.002c-.87.769-2.58 2.343-3.423 3.198l-.832-.828C-2.624 2.39-.865.767 0 0" style="fill:#595757;fill-opacity:1;fill-rule:nonzero;stroke:none" transform="translate(342.634 244.697)"/><path d="M0 0c-.758.885-1.41 1.61-2.539 3.072-.953 1.215-1.472 1.977-2.142 2.896l-.365.517c-.019.023-.032.046-.052.07-1.698 2.429-3.366 5.09-4.459 7.401-.998 2.11-1.079 3.928-.518 5.529.471 1.292 1.277 2.052 3.234 2.948l1.681.723 1.584.643.453-1.153-1.562-.616c-.606-.256-1.27-.532-1.29-.544-1.488-.648-2.638-1.343-3.041-2.514-.397-1.161-.342-2.941.419-4.504 1.066-2.183 2.759-4.796 4.438-7.204.142-.205.287-.41.429-.612l.008-.014c.656-.896 1.17-1.652 2.109-2.841h-.002C-.514 2.374.128 1.65.878.784v.003c.769-.869 2.341-2.58 3.201-3.426l-.832-.828C2.392-2.622.77-.867 0 0" style="fill:#595757;fill-opacity:1;fill-rule:nonzero;stroke:none" transform="translate(335.92 251.411)"/><path d="M0 0c1.16.084 2.136.143 3.969.376C5.501.562 6.407.73 7.532.908l.624.109c.027.004.054.01.085.013 2.92.517 5.98 1.218 8.387 2.079 2.198.786 3.539 2.018 4.277 3.545.579 1.242.545 2.352-.206 4.371l-.677 1.702-.661 1.574-1.138-.496.669-1.542c.244-.608.516-1.278.522-1.296.598-1.51.919-2.817.379-3.928-.542-1.1-1.841-2.326-3.487-2.885-2.299-.795-5.339-1.445-8.232-1.959-.245-.045-.491-.087-.731-.132h-.016c-1.1-.172-2-.34-3.505-.52h.006c-1.783-.234-2.752-.284-3.892-.37v.001c-1.159-.07-3.483-.166-4.683-.157V-.158C-3.547-.166-1.157-.071 0 0" style="fill:#595757;fill-opacity:1;fill-rule:nonzero;stroke:none" transform="translate(394.365 227.204)"/><path d="M0 0c-1.164.084-2.14.143-3.971.376C-5.503.562-6.408.73-7.53.908l-.625.109c-.029.004-.056.01-.087.013-2.918.517-5.983 1.218-8.389 2.079-2.199.786-3.536 2.018-4.279 3.545-.575 1.242-.541 2.352.208 4.371l.679 1.702.663 1.574 1.136-.496-.67-1.542c-.243-.608-.517-1.278-.524-1.296-.597-1.51-.918-2.817-.375-3.928.54-1.1 1.838-2.323 3.483-2.885 2.297-.795 5.343-1.445 8.234-1.959.244-.045.491-.087.73-.132h.017c1.097-.172 2-.336 3.5-.52 1.782-.234 2.75-.284 3.888-.37v.001c1.164-.07 3.485-.166 4.688-.157V-.158C3.544-.166 1.157-.071 0 0" style="fill:#595757;fill-opacity:1;fill-rule:nonzero;stroke:none" transform="translate(384.871 227.204)"/><path d="M0 0c.758.885 1.41 1.611 2.541 3.075.953 1.212 1.473 1.972 2.141 2.894l.365.514c.017.023.033.048.05.07 1.7 2.431 3.367 5.094 4.462 7.406.998 2.11 1.076 3.926.517 5.531-.47 1.285-1.278 2.045-3.232 2.942l-1.686.728-1.583.643-.453-1.158 1.564-.61c.608-.263 1.269-.539 1.29-.549 1.487-.65 2.637-1.342 3.042-2.516.395-1.158.342-2.941-.426-4.501-1.063-2.186-2.754-4.797-4.435-7.207a86.764 86.764 0 0 1-.427-.61l-.011-.012c-.651-.896-1.166-1.652-2.106-2.84C.516 2.373-.129 1.653-.873.785c-.772-.869-2.346-2.58-3.203-3.424l.828-.829C-2.392-2.624-.768-.869 0 0" style="fill:#595757;fill-opacity:1;fill-rule:nonzero;stroke:none" transform="translate(443.313 251.413)"/><path d="M0 0c-.883-.761-1.61-1.411-3.074-2.542-1.213-.954-1.973-1.471-2.893-2.142l-.517-.37c-.024-.014-.044-.028-.069-.045-2.43-1.7-5.095-3.369-7.4-4.461-2.111-1.002-3.931-1.081-5.538-.515-1.282.467-2.045 1.272-2.94 3.232l-.727 1.679-.64 1.584 1.152.453.615-1.562c.26-.605.538-1.269.544-1.291.649-1.488 1.344-2.636 2.516-3.04 1.161-.394 2.944-.341 4.503.423 2.185 1.064 4.796 2.757 7.204 4.436.205.142.409.286.612.428l.015.008c.897.656 1.648 1.173 2.841 2.11v-.004C-2.375-.517-1.651.126-.785.873v.003c.868.768 2.58 2.34 3.424 3.197l.828-.829C2.621 2.386.869.767 0 0" style="fill:#595757;fill-opacity:1;fill-rule:nonzero;stroke:none" transform="translate(436.598 244.701)"/><path d="M0 0c-.086 1.16-.14 2.135-.375 3.964-.186 1.539-.354 2.441-.531 3.562l-.107.626c-.005.026-.011.056-.014.086-.516 2.918-1.218 5.984-2.081 8.388-.785 2.2-2.017 3.539-3.549 4.275-1.238.579-2.348.546-4.367-.2l-1.702-.68-1.572-.663.493-1.138 1.542.671c.61.244 1.276.516 1.297.524 1.508.596 2.815.916 3.931.374 1.096-.54 2.321-1.837 2.882-3.483.793-2.299 1.444-5.341 1.959-8.234l.13-.73v-.02c.173-1.094.342-1.995.522-3.5.23-1.779.285-2.747.369-3.885h-.003c.074-1.158.169-3.487.159-4.689H.159C.166-3.55.072-1.157 0 0" style="fill:#595757;fill-opacity:1;fill-rule:nonzero;stroke:none" transform="translate(460.804 303.145)"/><path d="M0 0c-.086-1.158-.142-2.137-.375-3.969-.186-1.535-.354-2.435-.531-3.559l-.107-.628c-.005-.026-.013-.052-.014-.084-.516-2.918-1.222-5.983-2.081-8.388-.785-2.198-2.017-3.536-3.549-4.276-1.238-.58-2.348-.546-4.367.205l-1.702.677-1.572.664.497 1.137 1.538-.672c.61-.246 1.276-.513 1.297-.523 1.508-.596 2.815-.918 3.931-.375 1.096.541 2.321 1.84 2.882 3.482.793 2.297 1.444 5.342 1.959 8.235.043.244.088.49.13.734l.005.014c.168 1.097.337 1.999.517 3.5.23 1.781.285 2.748.369 3.89.067 1.161.166 3.482.156 4.682H.159C.166 3.546.072 1.156 0 0" style="fill:#595757;fill-opacity:1;fill-rule:nonzero;stroke:none" transform="translate(460.804 293.647)"/><path d="M0 0c-.884.761-1.611 1.409-3.072 2.537-1.213.954-1.977 1.473-2.893 2.143l-.519.37c-.026.016-.049.03-.07.048-2.428 1.699-5.093 3.368-7.401 4.46-2.114 1-3.931 1.08-5.534.513-1.289-.463-2.049-1.272-2.943-3.23l-.727-1.684-.64-1.581 1.151-.453.615 1.561c.261.605.542 1.269.548 1.291.645 1.485 1.341 2.639 2.513 3.043 1.163.394 2.943.342 4.502-.424 2.187-1.065 4.797-2.759 7.206-4.437l.614-.428.011-.009c.895-.652 1.652-1.171 2.842-2.111v.006C-2.373.516-1.652-.13-.785-.877h-.003c.872-.77 2.583-2.345 3.427-3.196l.829.824C2.623-2.393.865-.771 0 0" style="fill:#595757;fill-opacity:1;fill-rule:nonzero;stroke:none" transform="translate(436.596 352.092)"/><path d="M0 0c.756-.884 1.41-1.609 2.541-3.077.951-1.211 1.471-1.969 2.143-2.89l.365-.518c.018-.024.031-.048.049-.07 1.701-2.427 3.37-5.091 4.461-7.402 1-2.114 1.08-3.926.518-5.53-.47-1.287-1.279-2.048-3.233-2.944l-1.682-.725-1.583-.643-.453 1.154 1.563.613c.606.259 1.266.536 1.286.546 1.492.648 2.641 1.343 3.043 2.518.392 1.156.343 2.937-.422 4.501-1.065 2.183-2.757 4.796-4.435 7.204-.143.202-.288.409-.43.613l-.008.013c-.653.894-1.17 1.648-2.109 2.841h.003C.516-2.375-.125-1.653-.875-.785c-.768.87-2.346 2.58-3.199 3.427l.829.824C-2.388 2.621-.768.868 0 0" style="fill:#595757;fill-opacity:1;fill-rule:nonzero;stroke:none" transform="translate(443.309 345.377)"/><path d="M0 0v-3.049h-.927v3.045h-1.329v-9.892h1.329v5.675H0v-5.675h1.346v9.892z" style="fill:#595757;fill-opacity:1;fill-rule:nonzero;stroke:none" transform="translate(393.72 250.095)"/><path d="M0 0c-.548 0-.572.238-.572.717v3.34h2.566v1.175h-3.909V.09c0-.903.406-1.258 1.161-1.276h2.865v1.184z" style="fill:#595757;fill-opacity:1;fill-rule:nonzero;stroke:none" transform="translate(388.672 244.493)"/><path d="m0 0-1.349-.483.296-.828-1.924-.685.368-1.033L2.574-1.18 2.207-.149.297-.831z" style="fill:#595757;fill-opacity:1;fill-rule:nonzero;stroke:none" transform="translate(404.825 252.603)"/><path d="m0 0-1.067-.806L.807-3.291l-.724-.546-1.871 2.484-1.062-.798 1.872-2.483-1.246-.942.727-.964 6.34 4.781-.725.961-2.246-1.69z" style="fill:#595757;fill-opacity:1;fill-rule:nonzero;stroke:none" transform="translate(421.787 256.16)"/><path d="M0 0c.224-.301 2.212-2.935 2.212-2.935l1.1.829L.808 1.211c-.376.502-.923 1.154-1.884.429L-5.46-1.665l.722-.959L-1.107.112C-.475.588-.403.529 0 0" style="fill:#595757;fill-opacity:1;fill-rule:nonzero;stroke:none" transform="translate(421.342 258.27)"/><path d="m0 0-1.281-.456 1.93-5.412 1.28.456-.794 2.224 1.254.448-.4 1.119L.735-2.07z" style="fill:#595757;fill-opacity:1;fill-rule:nonzero;stroke:none" transform="translate(409.066 253.82)"/><path d="M0 0c.215-.598.794-.703 1.44-.474.643.229 1.016.676.803 1.273-.214.595-.851.692-1.428.485C.174 1.056-.212.595 0 0m3.447 1.228c.396-1.114-.265-2.262-1.63-2.75C.448-2.009-.804-1.544-1.201-.428-1.597.686-.928 1.85.44 2.337c1.365.486 2.611.004 3.007-1.109" style="fill:#595757;fill-opacity:1;fill-rule:nonzero;stroke:none" transform="translate(404.263 248.463)"/><path d="m0 0 .396-1.113L4.581.381c.465.166.551.003.694-.402l.572-1.604 1.28.455L6.381.92c-.311.871-.832 1.057-1.581.791Z" style="fill:#595757;fill-opacity:1;fill-rule:nonzero;stroke:none" transform="translate(405.26 245.669)"/><path d="m0 0 1.239-.401-.364-1.12-1.24.404-1.049-3.238-1.289.417 2.121 6.543L.71 2.188z" style="fill:#595757;fill-opacity:1;fill-rule:nonzero;stroke:none" transform="translate(378.551 248.94)"/><path d="m0 0-.07-.219c-.958-2.795.692-4.586.692-4.586l-.935-.711s-1.143 1.155-1.334 2.779C-2.75-3.941-4.358-4.205-4.358-4.205l-.339 1.127s2.39.479 3.25 3.308l.07.216z" style="fill:#595757;fill-opacity:1;fill-rule:nonzero;stroke:none" transform="translate(374.908 252.388)"/><path d="M0 0c-.445-.668-.109-1.344.622-1.832.733-.487 1.473-.527 1.918.141.442.666.052 1.389-.605 1.829C1.206.621.443.666 0 0m3.74-2.489c-.774-1.159-2.344-1.332-3.8-.365C-1.516-1.883-1.972-.36-1.199.798c.771 1.158 2.362 1.337 3.817.367C4.071.197 4.511-1.332 3.74-2.489" style="fill:#595757;fill-opacity:1;fill-rule:nonzero;stroke:none" transform="translate(358.03 252.13)"/><path d="M0 0c-.63.418-.575 1.135-.101 1.849.474.716 1.126 1.049 1.754.631H1.65c.626-.416.571-1.146.095-1.858C1.27-.093.626-.417-.003.002Zm-.677-1.013c1.223-.812 2.732-.48 3.613.84.882 1.328.609 2.85-.616 3.664l.005-.001c-1.222.814-2.734.48-3.618-.848-.879-1.322-.603-2.84.619-3.656Z" style="fill:#595757;fill-opacity:1;fill-rule:nonzero;stroke:none" transform="translate(359.283 256.096)"/><path d="m0 0 1.167-.774 2.996 4.5-1.165.775-.472-.711-1.161.771-.654-.984 1.157-.771-.602-.909-1.162.773-.655-.985L.607.913Z" style="fill:#595757;fill-opacity:1;fill-rule:nonzero;stroke:none" transform="translate(362.353 252.498)"/><path d="m0 0-4.26 1.383c-.47.151-.433.334-.299.746l.49 1.506-1.295.42-.651-2.008c-.285-.881.016-1.344.773-1.59l4.877-1.582z" style="fill:#595757;fill-opacity:1;fill-rule:nonzero;stroke:none" transform="translate(376.72 242.823)"/></g></svg>