<svg xmlns="http://www.w3.org/2000/svg" xml:space="preserve" width="546.09863" height="546.09729" viewBox="0 0 546.09863 546.09729"><defs><clipPath id="a" clipPathUnits="userSpaceOnUse"><path d="M0 427h421V0H0Z"/></clipPath></defs><g clip-path="url(#a)" transform="matrix(1.33333 0 0 -1.33333 -6.437 555.43)"><path d="M0 0c-113.13 0-204.772-91.715-204.772-204.772 0-113.13 91.642-204.801 204.772-204.801 113.093 0 204.802 91.671 204.802 204.801C204.802-91.715 113.093 0 0 0" style="fill:#007fa1;fill-opacity:1;fill-rule:nonzero;stroke:none" transform="translate(209.6 416.573)"/><path d="m0 0-33.561 6.068 1.248 6.755L1.225 6.769zm-9.402-33.247-5.47 1.736 3.041 9.6-26.951 8.519 2.064 6.564 26.988-8.534 3.034 9.629 5.485-1.722zm-5.566-11.991-15.623-.802 8.227-13.261-3.691-6.987-11.633 20.321-12.663 6.696 3.238 6.024 12.656-6.695 23.253 1.809zm-39.38-36.805c-3.223 0-5.85 2.669-5.85 5.894 0 3.267 2.627 5.893 5.85 5.893a5.879 5.879 0 0 0 5.901-5.893 5.907 5.907 0 0 0-5.901-5.894m-84.603 216.034c2.903 2.99 6.951 5.456 10.853 7.484 3.435 1.473 9.832 3.734 12.166 1.735 3.429-3.457.591-9.088-1.509-12.123-2.56-4.361-5.42-7.468-9.519-10.357-1.167-.876-2.363-.204-3.1.627-2.568 3.574-6.084 7.47-8.964 10.096-.759.598-.759 1.706.073 2.538m-49.133-246.552c-74.486 0-136.282 54.062-148.374 125.019l-.096.569c2.954-4.391 14.545-9.322 19.847-7.834 14.982-35.566 48.134-23.472 56.857-16.485 10.956 8.403 9.869 11.701 1.977 5.865-33.655-21.59-50.97 10.226-50.409 21.78-37.301 14.296-26.849 57.375-21.758 71.729 20.649 58.469 76.397 100.366 141.956 100.366 51.802 0 97.463-26.185 124.582-66.026-11.423 1.241-21.255 1.401-34.545 0-2.391-.364-4.391-1.925-5.295-3.865-6.433-15.756 2.56-37.871 3.501-44.261 4.201-19.926 4.362-33.289-1.867-49.57-7.994-20.291-26.579-27.951-46.616-29.526-7.754-10.051-15.85-18.643-27.017-23.575-1.029-.334-1.992-.67-2.728.556-.496 1.371 1.969 1.91 4.311 4.566 8.417 8.869 14.113 20.656 19.846 37.651 3.589 11.992 5.77 25.515 1.335 47.863-.394 1.941-.802 2.875-2.027 3.035-2.064.101-3.582-2.072-4.807-12.021-1.028-7.571-2.553-14.895-6.594-21.254-2.998-5.106-8.031-8.301-13.851-8.271-7.105-.03-11.13 5.47-15.055 10.502-5.135 5.763-9.628 8.418-19.796 8.491-1.138.16-1.072 1.093-.759 1.794 1.918 3.706 6.463 4.669 10.613 4.975 6.966-.044 12.707-2.379 18.308-6.04 7.389-4.522 10.249-2.728 14.042.642 3.901 3.763 5.098 8.782 5.834 13.917 1.372 11.495 2.363 23.589 12.196 29.92 2.473 1.459 5.901 1.502 9.022.627 6.135-2.567 9.716-9.058 10.993-14.661 5.499-20.846 1.765-56.354-11.787-75.712 12.896 1.561 25.514 16.193 28.242 29.512 3.574 17.958.271 36.747-6.571 56.105-1.956 4.523-2.087 9.716-1.525 13.991-1.357-1.007-3.567-1.766-4.749-2.043-1.349-.19-2.655.438-3.413 1.677-.496 1.43.211 3.327 1.633 4.129 8.702 4.566 20.927 15.216 25.647 24.552 2.005 4.362 4.266 11.918 4.033 17.185-.131 3.398-1.671 8.358-4.129 10.4-6.761 5.092-21.649-1.443-25.813-3.208-8.089-3.924-20.621-11.656-23.246-13.29-5.266-3.093-72.693-3.399-77.966-36.004 13.465 3.633 31.226 5.588 48.28 5.427 4.018.102 1.429-1.97-4.027-4.434-3.632-1.737-26.084-11.86-31.481-15.624-2.05-1.27-13.101 4.259-16.375 13.29-1.787-.496-43.232-11.35-66.755-31.905-4.596-4.828-3.822-12.137-1.86-11.801 3.683.204 13.72 7.527 16.499-.73 1.218-3.632 4.887-19.621-4.434-30.883 1.918-8.227 24.551-30.809 30.043-27.206 4.005 2.786 3.91 5.791 3.356 10.721-2.648 19.213 52.743 30.184 67.9-7.06 3.764 2.16 6.331 6.39 9.059 10.226 1.838 3.166 3.239 3.093 2.648-3.428-.708-11.393-31.438-50.912-65.873-16.47-2.465 2.378-5.638.336-.415-10.926-3.385 0-5.916-.861-2.05-11.057 4.901-13.655 31.78-33.407 36.748-25.807.78.934 24.084 16.281 46.17 8.49 14.719-5.398 61.161 4.961 85.106 68.229 1.832 7.221 5.238 10.693 4.377 1.356-1.837-19.388-14.639-58.162-57.207-80.715 3.903-1.401 15.427-7.426 17.353-9.059C-77.565-53.159-35.844 15.39-48.739 81.051c-5.507 28.184 3.428 4.566 3.428 4.566a150.313 150.313 0 0 0 7.732-47.674c0-83.108-67.397-150.504-150.505-150.504m21.452-43.007v24.713h-8.607v-24.713h-8.658v24.713h-8.731v-24.713h-8.622v24.713h-8.628v-24.713h-8.593l.066 23.182c0 4.74 3.836 8.533 8.563 8.533l17.214.029v7.265h8.731v-7.265l17.265-.029c4.69 0 8.556-3.793 8.556-8.533l.021-23.182zm-155.939 73.525c-3.275 0-5.886 2.669-5.886 5.894a5.866 5.866 0 0 0 5.886 5.893 5.877 5.877 0 0 0 5.893-5.893c0-3.225-2.625-5.894-5.893-5.894m-16.295 36.178-11.553-20.262-3.765 7.132 8.126 13.392-15.595.628-3.69 7.002 23.304-1.838 12.648 6.696 3.216-6.054zM-376.51-1.766l5.536 1.576 4.96-17.696 7.235 2.028-4.565 16.456 5.499 1.531 4.617-16.455 8.936 2.509-5.135 18.323 5.536 1.56 6.965-24.96-32.779-9.189zm-2.925 21.46 18.425 1.065c2.925.159 4.792.364 5.631.568 1.407.365 2.465 1.124 3.26 2.291.795 1.167 1.101 2.698 1.021 4.595-.131 1.97-.628 3.399-1.451 4.376-.876.919-1.897 1.459-3.071 1.59-1.152.132-3.108.132-5.806-.029l-18.782-1.064-.365 6.855 17.856 1.037c4.077.232 6.966.204 8.665-.074 1.736-.262 3.173-.889 4.362-1.794 1.24-.963 2.239-2.232 3.027-3.866.736-1.633 1.232-3.792 1.4-6.491.132-3.239-.065-5.733-.729-7.426-.642-1.736-1.532-3.107-2.692-4.128-1.108-1.079-2.334-1.78-3.632-2.174-1.94-.525-4.799-.933-8.592-1.167l-18.134-1.035zm.934 43.866 24.814 9.861-22.459 3.866 1.139 6.302 33.545-5.806-1.205-6.827-24.208-9.686L-345 57.462l-1.087-6.288-33.582 5.792zm13.953 51.364c1.699 3.867 3.8 6.536 6.397 8.038 2.531 1.459 5.42 1.897 8.563 1.269l-1.561-6.769c-1.706.234-3.239-.072-4.69-.904-1.408-.831-2.509-2.159-3.275-3.997-1.24-2.728-1.298-5.295-.263-7.688 1.058-2.363 3.29-4.332 6.725-5.806 3.692-1.62 6.857-1.998 9.424-1.153 2.568.861 4.428 2.597 5.602 5.296.569 1.299.861 2.757.934 4.289.059 1.576-.073 2.961-.408 4.231l-3.954 1.736-3.137-7.237-5.302 2.276 5.901 13.625 12.458-5.397c.693-1.896 1.006-4.303.905-7.236-.132-2.932-.708-5.66-1.839-8.227-1.429-3.297-3.326-5.821-5.762-7.659-2.458-1.838-5.171-2.8-8.257-2.932-3.063-.132-6.134.467-9.102 1.765-3.297 1.4-5.873 3.326-7.812 5.791-1.912 2.466-3.013 5.296-3.173 8.535-.205 2.465.335 5.164 1.626 8.154m25.15 41.343 17.6-12.458c2.261-1.635 3.931-3.093 4.858-4.362 1.232-1.693 1.816-3.589 1.794-5.734-.029-2.086-.889-4.317-2.523-6.695-1.948-2.728-4.209-4.289-6.806-4.654-2.597-.408-5.368.423-8.33 2.524l3.144 5.733c1.619-1.065 2.925-1.634 3.851-1.692 1.444-.102 2.568.467 3.465 1.692.912 1.269 1.175 2.393.809 3.428-.342 1.007-1.626 2.334-3.865 3.895l-17.958 12.736zm13.763 15.39 24.786-23.312-4.734-5.032-24.778 23.355zm15.223 14.165 24.916-9.628-13.829 18.06 5.07 3.895 20.685-27.046-5.463-4.201-24.413 9.321 13.523-17.652-5.105-3.894-20.68 27.075zm68.855 31.51c1.569 2.101 2.429 4.304 2.663 6.564l5.237 1.459 9.351-34.208-6.557-1.766-6.689 24.582c-1.772-2.86-4.15-5.296-7.075-7.221l-1.62 5.893c1.561 1.036 3.122 2.597 4.69 4.697m27.944 8.564c1.933 2.362 4.53 3.661 7.805 3.968 3.559.335 6.586-.803 9.154-3.37 2.501-2.568 4.026-6.989 4.602-13.319.569-6.433-.211-11.16-2.334-14.223-2.122-3.035-5.164-4.742-8.964-5.077-2.729-.234-5.026.306-6.828 1.604-1.83 1.299-3.122 3.399-3.829 6.258l6.463 1.299c.262-1.299.773-2.262 1.502-2.829.73-.599 1.634-.833 2.729-.73 1.4.131 2.538.86 3.398 2.231.861 1.372 1.189 4.1 1.138 8.126-1.503-2.101-3.531-3.297-6.098-3.487-2.728-.277-5.237.598-7.432 2.553-2.167 1.97-3.472 4.639-3.735 8.068-.328 3.559.497 6.564 2.429 8.928m31.758 4.435 22.977-2.175-.431-4.857c-2.072-1.707-4.267-4.201-6.528-7.528a47.249 47.249 0 0 1-5.537-10.766c-1.393-3.822-2.224-7.294-2.487-10.43l-6.535.642c.591 4.828 2.028 9.686 4.406 14.558 2.363 4.888 5.324 9.162 8.847 12.852l-15.354 1.43zm32.707-10.33 1.663 6.055 22.283-6.258-1.328-4.727c-2.326-1.298-4.923-3.341-7.797-6.2-2.859-2.859-5.296-6.069-7.353-9.555-2.07-3.53-3.5-6.798-4.332-9.803l-6.295 1.765c1.393 4.668 3.735 9.161 6.945 13.523 3.216 4.406 6.87 8.068 11.006 11.073zm46.506-40.51c.766 1.838 2.253 4.333 4.471 7.426l10.592 14.733 5.601-3.967-10.744-14.997c-1.765-2.393-2.786-3.998-3.122-4.8-.576-1.299-.678-2.626-.314-3.924.482-1.328 1.437-2.568 2.976-3.705 1.62-1.124 3.028-1.664 4.326-1.59 1.277.058 2.335.524 3.158 1.356.839.803 2.05 2.334 3.604 4.538l10.955 15.287 5.602-3.996-10.424-14.516c-2.334-3.34-4.201-5.573-5.507-6.739-1.29-1.168-2.654-1.926-4.12-2.262-1.511-.364-3.166-.335-4.858.073-1.802.394-3.764 1.386-5.974 2.962-2.618 1.896-4.384 3.632-5.317 5.222-.934 1.605-1.474 3.165-1.532 4.698-.11 1.531.087 2.932.627 4.201m48.557-4.435-6.85-25.748 16.485 15.653 4.362-4.624-24.64-23.458-4.77 5.004 6.639 25.252-16.091-15.289-4.414 4.625 24.683 23.457zm23.136-27.44-27.55-20-4.048 5.572 27.565 19.986zm5.981-8.797-17.746-19.854 26.054 5.062 3.589-6.331-35.668-6.069-3.611 6.405 23.728 27.279zm21.7-48.242-5.427-1.97-6.229 17.302-7.104-2.568 5.799-16.061-5.383-1.97-5.822 16.091-8.723-3.166 6.463-17.884-5.391-1.926-8.796 24.347 32.021 11.554zM1.531 66.39c.555-3.559.65-6.229.322-7.951-.394-1.706-1.226-3.209-2.626-4.406-1.408-1.224-3.064-1.997-5.063-2.289-2.538-.409-4.727.028-6.594 1.225-1.896 1.24-3.259 3.297-4.179 6.199-.627-1.604-1.349-2.96-2.253-4.099-.868-1.094-2.474-2.669-4.859-4.697l-5.893-5.135-1.269 8.126 6.557 6.039c2.327 2.16 3.8 3.589 4.362 4.362.576.729.97 1.502 1.102 2.261.124.773.072 1.896-.132 3.473l-.24 1.4-14.063-2.204-1.057 6.799 33.675 5.222zm2.597-36.499C3.917 25.66 2.83 22.451.86 20.394c-1.969-2.072-4.493-3.108-7.636-3.063v6.855c1.736.234 3.071.803 3.851 1.737.823.933 1.29 2.363 1.349 4.288.073 1.999-.262 3.603-1.035 4.771-.496.729-1.153 1.138-2.065 1.167-.796.029-1.495-.262-2.123-.934-.736-.831-1.611-2.903-2.538-6.229-.934-3.297-1.867-5.734-2.757-7.294-.911-1.576-2.13-2.772-3.639-3.604-1.503-.831-3.334-1.195-5.463-1.122-1.955.087-3.772.685-5.391 1.852-1.67 1.167-2.874 2.772-3.64 4.771-.722 1.998-1.021 4.493-.889 7.454.167 4.304 1.327 7.571 3.421 9.774 2.078 2.232 5.01 3.487 8.833 3.764l.372-6.696c-2.269-.307-3.932-1.065-5.04-2.232-1.095-1.211-1.7-2.83-1.802-4.931-.095-2.203.313-3.91 1.174-5.062.904-1.167 1.97-1.765 3.238-1.809.781-.059 1.496.131 2.058.598.597.467 1.13 1.24 1.611 2.407.285.803.876 2.626 1.686 5.427 1.115 3.662 2.334 6.2 3.734 7.63 1.97 1.998 4.296 2.932 6.958 2.83a8.48 8.48 0 0 0 4.792-1.692c1.518-1.036 2.575-2.51 3.268-4.377.73-1.897 1.043-4.157.941-6.783m-192.292 207.368c-110.089 0-199.368-89.249-199.368-199.345s89.279-199.345 199.368-199.345c110.074 0 199.352 89.249 199.352 199.345S-78.09 237.259-188.164 237.259m-15.982-25.893c1.329.102 2.342.744 3.13 1.838.787 1.094 1.123 2.626.97 4.624-.234 2.173-.825 3.808-1.97 4.931-1.072 1.109-2.29 1.604-3.631 1.503-1.226-.132-2.189-.701-2.962-1.766-.737-1.064-.992-2.698-.802-4.93.196-2.262.773-3.895 1.765-4.902 1.006-.963 2.195-1.401 3.5-1.298M-11.729 60.628c.401-.759.992-1.328 1.736-1.664.722-.364 1.619-.466 2.59-.292 1.122.161 2.034.599 2.625 1.328.612.7.941 1.634.941 2.757 0 .57-.24 2.232-.707 4.975l-.796 5.295-8.526-1.298.795-5.032c.51-3.268.926-5.267 1.342-6.069" style="fill:#fff;fill-opacity:1;fill-rule:nonzero;stroke:none" transform="translate(397.815 174.12)"/></g></svg>