<svg xmlns="http://www.w3.org/2000/svg" width="176.16891mm" height="176.17268mm" viewBox="0 0 176.16891 176.17268"><path d="M0 0c-25.871 0-46.845-20.979-46.845-46.845 0-25.873 20.974-46.847 46.845-46.847 25.872 0 46.845 20.974 46.845 46.847C46.845-20.979 25.872 0 0 0" style="fill:#007fa1;fill-opacity:1;fill-rule:nonzero;stroke:none" transform="matrix(1.88034 0 0 -1.88034 88.084 0)"/><path d="M0 0c25.159 0 45.556 20.395 45.556 45.553 0 25.156-20.397 45.552-45.556 45.552-25.157 0-45.554-20.396-45.554-45.552C-45.554 20.395-25.157 0 0 0" style="fill:#fff;fill-opacity:1;fill-rule:nonzero;stroke:none" transform="matrix(1.88034 0 0 -1.88034 88.084 173.74)"/><path d="M0 0c.784-.794.129-2.073-.34-2.765a7.403 7.403 0 0 0-2.18-2.37c-.263-.198-.546-.042-.703.147a17.08 17.08 0 0 1-2.049 2.303c-.174.137-.174.39.015.583.501.682 1.592 1.244 2.478 1.707C-2.002-.062-.529.46 0 0" style="fill:#007fa1;fill-opacity:1;fill-rule:nonzero;stroke:none" transform="matrix(1.88034 0 0 -1.88034 119.1 42.602)"/><path d="M0 0c.742-2.063 3.27-3.326 3.735-3.034 1.233.863 6.357 3.175 7.19 3.567 1.242.558 1.837 1.029.919 1.013-3.889.036-7.95-.41-11.03-1.24C2.026 7.748 17.418 7.814 18.62 8.527c.594.375 3.46 2.137 5.301 3.033.96.402 4.361 1.895 5.906.733.553-.464.913-1.596.945-2.376.044-1.203-.467-2.927-.929-3.921-1.079-2.128-3.865-4.57-5.861-5.61-.321-.181-.478-.615-.368-.94.178-.28.474-.426.777-.384.279.064.782.243 1.097.461-.136-.966-.103-2.157.344-3.193 1.558-4.411 2.318-8.707 1.503-12.807-.628-3.038-3.513-6.382-6.454-6.74 3.088 4.416 3.948 12.529 2.694 17.29-.295 1.278-1.118 2.763-2.516 3.347-.712.196-1.491.192-2.059-.147-2.25-1.444-2.47-4.201-2.784-6.825-.167-1.175-.438-2.323-1.331-3.179-.869-.768-1.517-1.181-3.213-.147-1.275.836-2.58 1.366-4.173 1.375-.957-.063-1.987-.285-2.421-1.131-.071-.16-.094-.373.166-.406 2.32-.018 3.345-.629 4.521-1.945.9-1.15 1.818-2.399 3.438-2.396 1.337-.003 2.48.724 3.171 1.887.909 1.456 1.264 3.125 1.504 4.851.279 2.274.625 2.778 1.094 2.747.281-.034.379-.254.465-.69 1.007-5.104.508-8.196-.306-10.929-1.318-3.883-2.612-6.576-4.542-8.602-.532-.605-1.098-.723-.972-1.037.157-.28.384-.204.628-.132 2.537 1.127 4.392 3.091 6.168 5.388 4.567.355 8.814 2.109 10.638 6.744 1.42 3.714 1.377 6.76.417 11.311-.209 1.464-2.256 6.514-.786 10.113.195.437.661.797 1.204.877 3.036.321 5.133.194 7.735-.089-6.185 9.015-16.562 14.96-28.323 14.96-14.927 0-27.629-9.527-32.354-22.833-1.292-3.861-3.584-12.996 4.935-16.254-.131-2.64 3.825-9.902 11.51-4.973 1.804 1.33 2.056.582-.451-1.339-1.994-1.598-9.561-4.359-12.98 3.766-1.217-.344-3.862.782-4.531 1.781 2.592-16.391 16.752-28.801 33.871-28.801 18.96 0 34.327 15.367 34.327 34.328 0 3.926-.662 7.702-1.873 11.218 0 0-1.985 5.18-.607-1.208 3.068-14.968-6.578-30.646-15.597-34.071-.439.375-3.068 1.756-3.966 2.074 9.729 5.151 12.653 14.002 13.07 18.428.186 2.129-.585 1.335-1.003-.312-5.469-14.448-16.076-16.807-19.436-15.581-5.032 1.78-10.361-1.729-10.543-1.936-1.128-1.731-7.267 2.775-8.385 5.888-.885 2.337-.3 2.526.465 2.53-1.19 2.572-.474 3.035.095 2.494 7.866-7.862 14.88 1.155 15.046 3.758.129 1.486-.188 1.51-.605.785-.625-.878-1.21-1.843-2.077-2.337-3.454 8.512-16.105 6.001-15.5 1.615.126-1.123.145-1.811-.763-2.455-1.252-.811-6.42 4.339-6.856 6.218 2.128 2.568 1.292 6.22 1.01 7.049-.637 1.886-2.931.217-3.77.166-.443-.075-.624 1.596.429 2.697C-9.876-2.592-.408-.117 0 0" style="fill:#007fa1;fill-opacity:1;fill-rule:nonzero;stroke:none" transform="matrix(1.88034 0 0 -1.88034 66.823 61.183)"/><path d="M0 0a1.65 1.65 0 0 1-1.903-1.356A1.655 1.655 0 0 1-.547-3.26a1.658 1.658 0 0 1 1.905 1.355A1.654 1.654 0 0 1 0 0" style="fill:#007fa1;fill-opacity:1;fill-rule:nonzero;stroke:none" transform="matrix(1.88034 0 0 -1.88034 21.295 119.011)"/><path d="M0 0a1.654 1.654 0 0 0 .547-3.26 1.656 1.656 0 0 0-1.904 1.355A1.65 1.65 0 0 0 0 0" style="fill:#007fa1;fill-opacity:1;fill-rule:nonzero;stroke:none" transform="matrix(1.88034 0 0 -1.88034 154.467 119.011)"/><path d="m0 0-.01 5.303a1.959 1.959 0 0 1-1.96 1.954l-3.939.003v1.657h-1.998V7.26l-3.942-.003a1.96 1.96 0 0 1-1.96-1.954L-13.818 0h1.962v5.657h1.976V0h1.973v5.657h1.998V0h1.973v5.657h1.974V0Z" style="fill:#007fa1;fill-opacity:1;fill-rule:nonzero;stroke:none" transform="matrix(1.88034 0 0 -1.88034 100.722 171.288)"/><path d="m0 0-3.166-.806L-6.74-4.78l-.306 1.203 1.879 2.043c.351.381.708.745 1.07 1.085-.449.123-.957.283-1.529.479l-2.565.887-.292 1.155L-3.417.185l3.166.804z" style="fill:#007fa1;fill-opacity:1;fill-rule:nonzero;stroke:none" transform="matrix(1.88034 0 0 -1.88034 22.577 105.968)"/><path d="m0 0-7.683-.65-.467 5.557.906.075.381-4.536 2.355.198-.357 4.252.901.075.358-4.251L-.99.937l-.398 4.719.907.076z" style="fill:#007fa1;fill-opacity:1;fill-rule:nonzero;stroke:none" transform="matrix(1.88034 0 0 -1.88034 20.884 99.014)"/><path d="m0 0 .093 1.019L4.531.605C5.302.535 5.908.39 6.345.174c.439-.217.78-.566 1.02-1.046.244-.483.329-1.096.262-1.834-.067-.718-.247-1.297-.535-1.731-.29-.436-.68-.73-1.168-.881-.487-.153-1.139-.19-1.952-.114l-4.436.411.092 1.014 4.434-.41c.667-.059 1.162-.044 1.492.052.324.093.59.284.788.569.2.286.32.649.36 1.085.069.749-.05 1.294-.36 1.643-.311.351-.946.571-1.91.658z" style="fill:#007fa1;fill-opacity:1;fill-rule:nonzero;stroke:none" transform="matrix(1.88034 0 0 -1.88034 6.41 76.688)"/><path d="m0 0-7.412 2.132.29 1.007 6.938 2.22-5.817 1.675.269.939 7.413-2.132-.292-1.007-6.944-2.218L.27.942Z" style="fill:#007fa1;fill-opacity:1;fill-rule:nonzero;stroke:none" transform="matrix(1.88034 0 0 -1.88034 21.255 74.848)"/><path d="m0 0-.808.41L.67 3.326l2.55-1.301A5.733 5.733 0 0 0 3.319.233a4.536 4.536 0 0 0-.474-1.6c-.344-.674-.801-1.216-1.37-1.617a3.205 3.205 0 0 0-1.89-.613 4.48 4.48 0 0 0-2.048.512 4.76 4.76 0 0 0-1.659 1.376c-.436.573-.662 1.193-.677 1.862-.014.669.154 1.347.503 2.028.254.498.561.908.927 1.226.366.32.75.521 1.155.602.403.084.866.063 1.389-.051l-.192-.937c-.403.077-.743.089-1.022.038-.278-.051-.55-.189-.815-.413a2.692 2.692 0 0 1-.661-.853c-.213-.418-.334-.809-.36-1.176-.03-.368.014-.698.125-.989.112-.291.264-.551.459-.779a3.992 3.992 0 0 1 1.249-.968c.611-.311 1.179-.467 1.699-.465.521 0 .981.151 1.389.452.404.301.722.678.954 1.132.202.393.319.817.359 1.268.039.451.022.819-.051 1.101l-1.28.653z" style="fill:#007fa1;fill-opacity:1;fill-rule:nonzero;stroke:none" transform="matrix(1.88034 0 0 -1.88034 22.714 54.337)"/><path d="m0 0 .447.815c.489-.333.877-.484 1.17-.456.291.027.54.183.747.462.153.203.237.416.255.635a.905.905 0 0 1-.156.593c-.119.177-.356.399-.712.662l-4.264 3.17.609.819 4.217-3.136c.52-.385.873-.745 1.065-1.083.191-.339.261-.695.207-1.076-.053-.384-.214-.758-.488-1.124-.403-.543-.869-.843-1.395-.898C1.174-.674.607-.467 0 0" style="fill:#007fa1;fill-opacity:1;fill-rule:nonzero;stroke:none" transform="matrix(1.88034 0 0 -1.88034 27.602 48.793)"/><path d="m0 0-5.733 5.16.683.757L.682.76Z" style="fill:#007fa1;fill-opacity:1;fill-rule:nonzero;stroke:none" transform="matrix(1.88034 0 0 -1.88034 36.991 43.413)"/><path d="m0 0-5.04 5.837.792.684 7.024-1.934-3.957 4.581.74.639L4.6 3.972l-.794-.685-7.024 1.939L.739.641Z" style="fill:#007fa1;fill-opacity:1;fill-rule:nonzero;stroke:none" transform="matrix(1.88034 0 0 -1.88034 39.381 40.478)"/><path d="m0 0 1.032.222c.176-.848.116-1.592-.188-2.231C.541-2.653.03-3.149-.689-3.506c-.745-.369-1.428-.515-2.045-.442-.617.073-1.189.334-1.718.793a5.222 5.222 0 0 0-1.28 1.67c-.355.721-.529 1.418-.519 2.09.011.671.2 1.272.572 1.801a3.84 3.84 0 0 0 1.47 1.246c.691.342 1.36.453 2.005.333.645-.117 1.22-.452 1.72-.998l-.795-.656c-.408.422-.824.674-1.242.755-.418.075-.858.001-1.32-.228-.531-.26-.911-.607-1.145-1.038A2.26 2.26 0 0 1-5.23.422c.067-.5.212-.98.438-1.435.292-.589.632-1.058 1.019-1.414.389-.354.815-.55 1.285-.587.469-.039.914.045 1.335.254.513.255.873.616 1.083 1.085C.14-1.202.164-.645 0 0" style="fill:#007fa1;fill-opacity:1;fill-rule:nonzero;stroke:none" transform="matrix(1.88034 0 0 -1.88034 59.925 20.618)"/><path d="m0 0-.958 3.122-4.144 3.383 1.188.364 2.135-1.779c.397-.332.772-.673 1.132-1.018.102.455.238.97.405 1.549l.765 2.607 1.137.347L.019 3.424.974.299Z" style="fill:#007fa1;fill-opacity:1;fill-rule:nonzero;stroke:none" transform="matrix(1.88034 0 0 -1.88034 67.142 23.513)"/><path d="m0 0 1.905.249c.325.042.554.085.683.128.227.072.413.168.557.285.144.117.252.275.327.476.078.198.101.42.069.662a1.3 1.3 0 0 1-.316.717 1.18 1.18 0 0 1-.666.362c-.271.051-.648.044-1.136-.018l-1.769-.235Zm-.465 3.526 1.653.221c.449.058.767.13.955.214.246.112.424.264.53.458.108.195.142.426.108.695a1.248 1.248 0 0 1-.27.645.917.917 0 0 1-.574.326c-.236.042-.627.027-1.178-.044L-.768 5.84Zm-.428-4.564-1.005 7.646 2.868.378c.582.077 1.061.061 1.436-.047.374-.108.68-.309.924-.608.242-.292.387-.614.431-.968a1.765 1.765 0 0 0-.143-.957c-.14-.313-.377-.58-.712-.804.48-.076.866-.26 1.158-.554.291-.295.466-.665.526-1.11A2.262 2.262 0 0 0 4.495.911C4.384.584 4.229.32 4.026.125a2.34 2.34 0 0 0-.787-.489 5.113 5.113 0 0 0-1.217-.289Z" style="fill:#007fa1;fill-opacity:1;fill-rule:nonzero;stroke:none" transform="matrix(1.88034 0 0 -1.88034 75.586 19.547)"/><path d="m0 0 .29 7.708 5.575-.211-.035-.91-4.553.171-.088-2.361 4.263-.162-.035-.902-4.264.162L1.055.87l4.73-.18-.034-.907Z" style="fill:#007fa1;fill-opacity:1;fill-rule:nonzero;stroke:none" transform="matrix(1.88034 0 0 -1.88034 85.535 20.08)"/><path d="m0 0 2.137-.484c.457-.101.822-.135 1.1-.1.28.034.506.142.686.322.181.174.3.384.354.625.08.355.018.679-.187.966-.207.288-.589.494-1.146.622l-2.382.538Zm-1.948-3.978 1.703 7.524L3.09 2.79c.669-.151 1.164-.334 1.481-.547.321-.213.545-.515.677-.908.131-.386.149-.788.057-1.202-.121-.536-.396-.946-.824-1.234-.43-.288-1.017-.4-1.758-.336a2.67 2.67 0 0 0 .513-.509c.23-.332.432-.728.6-1.186l.846-2.347-1.251.287-.641 1.787c-.189.518-.351.917-.486 1.201-.133.282-.264.487-.39.618a1.545 1.545 0 0 1-.41.301 2.58 2.58 0 0 1-.546.161l-1.154.261-.756-3.339z" style="fill:#007fa1;fill-opacity:1;fill-rule:nonzero;stroke:none" transform="matrix(1.88034 0 0 -1.88034 101.204 13.156)"/><path d="m0 0 .907-.469-2.05-3.958c-.357-.689-.716-1.196-1.082-1.519-.365-.324-.817-.507-1.353-.552-.538-.041-1.139.105-1.798.447-.643.333-1.11.713-1.403 1.148a2.122 2.122 0 0 0-.378 1.411c.043.513.251 1.127.628 1.855l2.047 3.953.908-.466-2.046-3.953c-.308-.594-.479-1.06-.515-1.401a1.43 1.43 0 0 1 .232-.949c.19-.292.48-.536.87-.739.666-.344 1.219-.439 1.659-.284.441.156.884.663 1.328 1.522z" style="fill:#007fa1;fill-opacity:1;fill-rule:nonzero;stroke:none" transform="matrix(1.88034 0 0 -1.88034 129.25 16.632)"/><path d="m0 0 4.72 6.099.827-.64-.502-7.269L8.75 2.979l.773-.6-4.718-6.098-.828.638.505 7.274L.774-.6Z" style="fill:#007fa1;fill-opacity:1;fill-rule:nonzero;stroke:none" transform="matrix(1.88034 0 0 -1.88034 125.031 30.86)"/><path d="m0 0 5.449 5.456.722-.721L.722-.721Z" style="fill:#007fa1;fill-opacity:1;fill-rule:nonzero;stroke:none" transform="matrix(1.88034 0 0 -1.88034 135.399 39.421)"/><path d="m0 0 4.164 7.146.688-.863-3.127-5.061A16.078 16.078 0 0 0 .991.12c.403.166.818.323 1.246.461l5.677 1.867.652-.814L.655-.818Z" style="fill:#007fa1;fill-opacity:1;fill-rule:nonzero;stroke:none" transform="matrix(1.88034 0 0 -1.88034 140.502 44.962)"/><path d="m0 0 6.731 3.762 2.721-4.867-.793-.442-2.223 3.976-2.061-1.156 2.08-3.722-.789-.442L3.584.833 1.294-.446l2.309-4.132-.794-.446Z" style="fill:#007fa1;fill-opacity:1;fill-rule:nonzero;stroke:none" transform="matrix(1.88034 0 0 -1.88034 144.86 50.535)"/><path d="m0 0 .698-2.083c.148-.441.31-.772.486-.99.175-.219.384-.358.629-.419.243-.062.484-.054.719.024.346.115.59.337.727.663.139.324.118.759-.065 1.304L2.418.811Zm-4.41-.405 7.313 2.454 1.086-3.241c.219-.654.32-1.171.303-1.553a1.737 1.737 0 0 0-.424-1.047 2.186 2.186 0 0 0-.999-.674c-.52-.172-1.011-.154-1.481.065-.47.215-.87.658-1.201 1.328a2.527 2.527 0 0 0-.169-.705 5.37 5.37 0 0 0-.703-1.13l-1.563-1.94-.407 1.215 1.196 1.48c.345.428.602.773.773 1.035.17.263.279.481.324.655.043.18.06.346.048.509-.015.117-.064.3-.148.55L-.838-.282l-3.246-1.091z" style="fill:#007fa1;fill-opacity:1;fill-rule:nonzero;stroke:none" transform="matrix(1.88034 0 0 -1.88034 158.925 60.315)"/><path d="m0 0 .218-.94c-.377-.1-.678-.249-.899-.447-.221-.199-.383-.483-.488-.851a2.995 2.995 0 0 1-.064-1.204c.054-.384.158-.718.315-.998.155-.279.341-.477.563-.595a1.13 1.13 0 0 1 .683-.124c.24.033.439.131.6.293.159.168.277.417.355.752.05.216.113.689.184 1.412.072.724.161 1.239.272 1.543.141.389.339.692.599.913.257.216.563.351.914.399a1.95 1.95 0 0 0 1.125-.177c.368-.175.666-.458.898-.854.231-.397.383-.853.454-1.366.078-.567.057-1.079-.066-1.537a2.192 2.192 0 0 0-.664-1.107 2.36 2.36 0 0 0-1.153-.544l-.208.959c.474.119.816.348 1.02.68.206.335.266.797.186 1.381-.086.615-.257 1.044-.522 1.295-.262.245-.552.35-.868.305a.877.877 0 0 1-.636-.392c-.151-.217-.26-.753-.333-1.597-.071-.851-.157-1.435-.254-1.761-.144-.473-.357-.835-.642-1.092a1.914 1.914 0 0 0-1.044-.467 2.101 2.101 0 0 0-1.195.188 2.34 2.34 0 0 0-.979.888c-.262.41-.427.885-.502 1.432-.098.692-.077 1.283.061 1.777.137.497.389.904.756 1.225C-.946-.289-.507-.083 0 0" style="fill:#007fa1;fill-opacity:1;fill-rule:nonzero;stroke:none" transform="matrix(1.88034 0 0 -1.88034 159.128 72.271)"/><path d="m0 0 7.711.153.02-1.022L.02-1.022Z" style="fill:#007fa1;fill-opacity:1;fill-rule:nonzero;stroke:none" transform="matrix(1.88034 0 0 -1.88034 155.93 85.809)"/><path d="m0 0 6.774-.605.227 2.532.905-.081-.541-6.088-.907.077.227 2.547-6.776.599Z" style="fill:#007fa1;fill-opacity:1;fill-rule:nonzero;stroke:none" transform="matrix(1.88034 0 0 -1.88034 155.778 93.258)"/><path d="m0 0 3.162-.814L8.209.959l-.31-1.201-2.629-.893c-.49-.165-.978-.312-1.461-.436.334-.324.704-.709 1.112-1.156l1.822-2.01-.295-1.152L2.91-1.801l-3.164.813z" style="fill:#007fa1;fill-opacity:1;fill-rule:nonzero;stroke:none" transform="matrix(1.88034 0 0 -1.88034 154.103 103.985)"/></svg>