<svg xmlns="http://www.w3.org/2000/svg" xml:space="preserve" width="106.5824" height="106.5824"><path fill="#fff" d="M100.968 59.907c0 1.19-.967 2.144-2.148 2.144a2.132 2.132 0 0 1-2.13-2.144c0-1.188.951-2.132 2.13-2.132 1.181 0 2.148.944 2.148 2.132"/><path fill="#231f20" d="M77.702 86.198a1.225 1.225 0 0 1-.469.34c-.193.082-.38.146-.559.19-.317.077-.826.157-1.526.24-.7.082-1.166.152-1.394.206-.625.143-1.08.415-1.362.811-.283.397-.42.805-.41 1.225.01.575.246 1.007.707 1.3.461.292 1.056.406 1.78.34.616-.057 1.31-.336 2.079-.837.77-.503 1.154-1.057 1.154-1.664zm.208 5.064c-.049-.098-.096-.292-.14-.578a6.005 6.005 0 0 1-.068-.91c-.288.375-.742.758-1.362 1.15a4.162 4.162 0 0 1-1.99.653c-.844.045-1.56-.132-2.145-.53-.585-.397-.898-.954-.938-1.671-.04-.718.126-1.306.498-1.763a2.897 2.897 0 0 1 1.379-.952 7.279 7.279 0 0 1 1.61-.307c.594-.049 1.12-.118 1.578-.205.258-.056.55-.172.878-.348a.88.88 0 0 0 .492-.828c0-.552-.222-1.04-.67-1.465-.447-.424-1.087-.638-1.922-.638-.745 0-1.38.196-1.906.588-.527.392-.786.935-.775 1.631h-.716c-.038-.839.279-1.54.955-2.103.674-.562 1.49-.844 2.442-.844.924 0 1.711.255 2.362.762.65.508.976 1.236.976 2.185v4.767c0 .342.058.812.177 1.406h-.715"/><path fill="#97aad7" d="M106.582 53.292c0 29.434-23.86 53.29-53.291 53.29C23.86 106.582 0 82.726 0 53.292 0 23.86 23.86 0 53.29 0c29.431 0 53.292 23.86 53.292 53.292"/><path fill="#4171b8" d="M53.29 91.685c-21.211 0-38.371-17.202-38.371-38.386 0-21.192 17.16-38.388 38.37-38.388 21.2 0 38.372 17.196 38.372 38.388 0 21.184-17.172 38.386-38.372 38.386zm0-90.32C24.627 1.365 1.376 24.623 1.376 53.3c0 28.669 23.25 51.917 51.912 51.917 28.677 0 51.915-23.248 51.915-51.917 0-28.676-23.238-51.934-51.915-51.934"/><path fill="#fff" d="M53.29 13.99c-21.706 0-39.3 17.593-39.3 39.302 0 21.705 17.594 39.304 39.3 39.304 21.704 0 39.302-17.599 39.302-39.304 0-21.71-17.598-39.301-39.303-39.301"/><path fill="#a3cd39" d="M81.802 45.361v16.222c0 3.4-.612 6.553-1.782 9.329a19.878 19.878 0 0 1-5.587 7.464c-2.493 2.112-7.874 4.837-11.965 6.758-2.352 1.1-4.468 2.064-5.859 2.64-.83.36-2.278.954-2.641 1.112-.385-.158-1.833-.752-2.656-1.113-1.373-.575-3.521-1.539-5.856-2.639-4.099-1.92-9.481-4.646-11.96-6.772-2.483-2.026-4.341-4.56-5.587-7.45-1.178-2.776-1.792-5.928-1.792-9.33V28.808c30.234-1.551 49.336 11.38 55.685 16.554"/><path fill="#fff" d="M99.916 59.947a2.1 2.1 0 0 1-2.102 2.097 2.087 2.087 0 0 1-2.089-2.097c0-1.164.932-2.091 2.09-2.091 1.153 0 2.1.927 2.1 2.09M11.215 59.947a2.084 2.084 0 0 1-2.095 2.097 2.094 2.094 0 0 1 0-4.188c1.17 0 2.095.927 2.095 2.09M9.541 49.37l3.246.182-.056.936-3.243-.185L4.68 52.7l.064-1.104 3.688-1.824-3.46-2.22.065-1.11 4.504 2.929M13.128 45.948 5.4 44.255l1.064-4.862.924.198-.867 3.96 2.347.512.827-3.78.912.2-.824 3.782 2.63.574.883-4.034.913.2-1.081 4.943M16.907 34.14l-.41.959-6.34-1.126 5.214 3.783-.406.95-8.009-1.378.372-.87 6.365 1.145-5.256-3.758.435-1.02 6.37 1.17-5.254-3.8.367-.864 6.552 4.809M17.941 25.076c-.793-.55-1.546-.817-2.26-.816-.716.003-1.273.292-1.67.868-.403.588-.482 1.216-.226 1.881.256.667.776 1.272 1.574 1.819.801.553 1.564.832 2.28.835.714.004 1.276-.294 1.68-.878.396-.576.47-1.204.214-1.873-.26-.672-.79-1.285-1.592-1.836zm.579-.844c1.037.713 1.701 1.53 1.99 2.453.29.919.15 1.799-.422 2.63-.573.833-1.343 1.276-2.301 1.332-.963.054-1.959-.276-2.998-.99-1.028-.708-1.682-1.516-1.973-2.428-.285-.916-.14-1.792.432-2.621.573-.83 1.336-1.279 2.295-1.34.958-.061 1.952.256 2.977.964M25.87 22.243l-6.973-1.972 4.479 4.469-.653.659-5.596-5.591.782-.78 6.974 1.95-4.472-4.463.654-.655 5.602 5.588-.798.795M30.664 10.493l.635 4.103 2.485-1.37zm5.468 4.772-1.579-1.373-3.096 1.705.32 2.07-.841.465-1.295-8.31.992-.546 6.343 5.521-.844.468M40.053 7.784c-.15-.433-.392-.708-.725-.82a1.48 1.48 0 0 0-1.005.008l-1.931.67.895 2.569 1.858-.647c.33-.116.604-.333.818-.655.209-.313.244-.692.09-1.125zm2.054 5.256-3.04-2.439-1.468.514 1.082 3.108-.876.305-2.596-7.475 2.742-.954c.646-.227 1.26-.218 1.837.02.576.237.979.682 1.205 1.34a2.127 2.127 0 0 1-.004 1.502 2.608 2.608 0 0 1-.904 1.183l3.11 2.505-1.088.391M45.53 5.15l1.227 6.86-.92.165-1.23-6.858-2.324.418-.166-.934 5.599-1 .165.931-2.35.419M55.27 9.388a2.63 2.63 0 0 1-.746 1.615c-.437.46-1.087.702-1.947.728-.95.029-1.67-.262-2.153-.876-.481-.612-.74-1.272-.781-1.98l1.013-.03c.045.659.241 1.152.593 1.48.354.33.79.484 1.32.472.543-.017.94-.156 1.195-.424.26-.268.417-.594.484-.985.045-.305 0-.556-.147-.743-.146-.194-.361-.356-.646-.5-.323-.16-.67-.24-1.027-.249a3.024 3.024 0 0 1-1.12-.25c-.484-.206-.85-.454-1.1-.751-.255-.298-.384-.727-.396-1.286-.003-.529.201-1.046.612-1.548.415-.502 1.036-.762 1.861-.788.994-.029 1.686.264 2.072.875.39.619.588 1.15.607 1.603l-.996.03a1.808 1.808 0 0 0-.421-1.15c-.268-.314-.68-.462-1.234-.444-.516.016-.892.169-1.124.46-.234.296-.345.605-.334.932.01.353.11.61.302.765.192.157.395.275.608.357.266.09.604.159 1.016.204.414.048.819.17 1.222.367.412.181.738.47.977.852.236.38.336.804.29 1.264M66.786 10.912c-.164.667-.54 1.205-1.128 1.613-.586.408-1.305.507-2.162.296-.864-.214-1.459-.637-1.786-1.274a2.714 2.714 0 0 1-.24-1.954l1.322-5.33.9.225-1.295 5.225c-.087.348-.059.766.087 1.238s.558.794 1.238.961c.67.165 1.18.07 1.528-.275.356-.349.574-.702.662-1.052l1.293-5.226.901.222-1.32 5.331M71.813 15.592l-.656-7.216-2.565 5.785-.847-.377 3.207-7.23 1.014.449.676 7.21 2.562-5.773.852.377-3.21 7.228-1.033-.453M74.328 16.973l4.057-6.79.795.477-4.056 6.79-.796-.477M79.228 20.321l-.9-.696L80.9 11.62l.804.617-2.172 6.765 6.005-3.798.796.61-7.106 4.508M82.154 22.793l5.79-5.389 3.394 3.644-.69.645-2.762-2.965-1.758 1.635 2.638 2.834-.685.636L85.441 21l-1.973 1.837 2.814 3.021-.684.636-3.444-3.7M93.494 28.013c.38-.256.587-.561.612-.913a1.47 1.47 0 0 0-.26-.965l-1.138-1.702-2.259 1.516 1.096 1.632c.196.292.475.502.833.628.363.124.734.06 1.116-.196zm-4.569 3.312 1.6-3.552-.87-1.294-2.734 1.832-.516-.772 6.572-4.403 1.617 2.415c.383.573.531 1.168.446 1.786-.084.614-.415 1.118-.99 1.502-.458.309-.942.432-1.458.376a2.587 2.587 0 0 1-1.372-.574l-1.639 3.64-.656-.956M93.894 36.983a2.63 2.63 0 0 1-1.774-.056c-.596-.226-1.075-.728-1.43-1.51-.404-.868-.414-1.638-.037-2.322.375-.682.881-1.18 1.517-1.495l.422.92c-.587.299-.963.675-1.128 1.125-.166.454-.143.922.08 1.398.226.494.51.808.858.94.344.133.71.148 1.096.057.296-.076.506-.216.628-.425.118-.207.187-.472.204-.788a2.396 2.396 0 0 0-.172-1.047 2.984 2.984 0 0 1-.205-1.123c0-.528.085-.964.261-1.31.178-.346.52-.636 1.03-.864.488-.208 1.04-.224 1.664-.04.625.184 1.105.652 1.453 1.406.416.903.416 1.655 0 2.25-.416.598-.828.992-1.239 1.18l-.416-.906c.414-.185.711-.464.895-.834.185-.37.159-.804-.068-1.307-.219-.47-.505-.753-.87-.853-.358-.102-.689-.084-.989.05-.317.148-.512.343-.585.58-.065.24-.093.472-.084.7.019.279.084.616.201 1.014.118.4.164.822.146 1.266-.01.455-.146.864-.404 1.232-.262.37-.61.623-1.054.762M92.472 39.05l7.512-2.486.288.881-7.508 2.487-.292-.881M100.677 42.712 93.87 44.18l-.2-.915 6.808-1.47-.494-2.307.922-.2 1.202 5.557-.924.202-.507-2.335M97.91 50.29l-3.245.193-.055-.931 3.242-.197 4.492-2.943.07 1.104-3.45 2.24 3.694 1.808.067 1.107-4.815-2.382M18.03 78.452l-.285-.403c-.201.22-.328.295-.597.421l.284.402zm-2.583-3.05c-1.136.8.053 2.552 1.216 1.738 1.146-.804-.102-2.515-1.216-1.738zm-1.754 8.484 7.019-4.917.815 1.161-7.019 4.923zm-1.129-1.605 3.832-2.688-.467-.663.263-.185c-2.413.137-3.601-3.05-1.547-4.49 2.044-1.429 4.636.795 3.651 3.018l.32-.223.465.666.507-.358.808 1.156-7.021 4.922-.811-1.155M26.297 91.225l.812-1.103 1.167.862 2.33-3.154 1.173.867-3.142 4.253zm-1.264-5.35c-.57.774.622 1.614 1.176.866.564-.764-.597-1.647-1.176-.865zm-.454 3.071-.7.947-1.175-.867.701-.946-1.326-.982.814-1.1.619.458a2.187 2.187 0 0 1 .42-1.395c1.66-2.243 5.008.283 3.375 2.49-.303.417-.743.677-1.224.8l.92.682-.81 1.099zm-4.688 1.412 1.454-1.966 1.186.873-.642.863 5.719 4.218-.812 1.1-6.905-5.088M40.181 101.31l2.663-8.146 1.35.437-2.663 8.15zm.21-6.952-.467-.154c-.03.301-.087.433-.225.696l.462.15zm-3.898-.889c-.43 1.32 1.576 2.008 2.016.657.436-1.329-1.594-1.949-2.016-.657zm1.826 7.23 1.449-4.449-.77-.249.098-.31c-1.85 1.555-4.71-.275-3.93-2.655.775-2.374 4.185-2.15 4.73.213l.12-.365.772.254.193-.586 1.339.437-2.665 8.148-1.336-.439M55.577 97.177l-2.416-1.8-2.393 1.827-1.972.005 3.545-2.833 1.638-.004 3.57 2.798zm-1.58 1.475.004.37 3.484-.012.01 2.355-7.094.035v.282l7.095-.033.004 1.085-8.59.04-.01-2.368 7.06-.034-.005-.263-7.055.035-.004-1.098 3.467-.01-.003-.38-3.644.018-.003-1.096 8.943-.044.005 1.1-3.664.018M71.798 99.41l-1.706-5.005-.679.228 1.701 5.012-1.384.468-2.765-8.121 1.384-.47.624 1.822.679-.236-.62-1.82 1.386-.472 2.764 8.125zm-8.094-1.106-1.59-4.659 3.977-1.355.444 1.295-2.591.881.703 2.067 2.594-.881.44 1.298-3.977 1.354M82.896 85.5l1.152 1.525-1.18.888-2.63-3.487 1.18-.886.655.866.733-.553.822 1.097zm2.506 5.78-1.374-1.826-5.546 4.172-.824-1.089 6.722-5.067 2.201 2.926zm-7.957-1.803c.645.852 1.92-.152 1.296-.977-.616-.818-1.93.133-1.296.977zm1.732-2.43c.225.131.463.32.668.593 1.765 2.336-1.777 5.02-3.544 2.672a2.17 2.17 0 0 1-.37-.819l-.502.379-.763-1.01 1.496-1.128-.397-.526 1.259-.948.4.522 1.474-1.11.766 1.01-.487.364M91.724 84.9l-1.128-.776.878-1.272-2.034-1.4.888-1.295 2.032 1.401 1.034-1.5-2.034-1.4.88-1.282 2.034 1.4 1.29-1.879 1.128.775zm.717-8.147-2.47-1.703-3.934 5.726-1.128-.778 4.765-6.933 3.603 2.475-.836 1.213"/><path fill="#4271b7" d="M79.146 30.89V60.26c0 7.97-2.302 13.95-6.897 17.934-4.599 3.987-10.708 5.98-18.33 5.98-7.564 0-13.678-1.993-18.33-5.98-4.654-3.984-6.981-9.964-6.981-17.934V30.89h50.538"/><path fill="#fff" d="m57.75 55.703-.007-3.014s6.146-8.744 9.751-12.192c2.362-1.018 2.706-1.018 3.367-1.018.684 0 1.261-1.83-.499-1.83H58.671s-1.015.992.169 1.739c0 0 5.125.17 2.85 3.143-2.267 2.936-5.287 7.48-5.287 7.48l-6.496-7.983s-1.084-2.124.762-2.55c1.263 0 2.115-.158 2.115-.997 0-.832-1.147-.572-1.43-.553H35.198s-1.194.74.22 1.55c1.448.851 1.448-.466 3.46 1.926C40.917 43.78 49.245 54.14 49.245 54.14v5.11s4.607.384 8.507-3.548M57.705 60.29v8.804c.134 2.308.694 2.364 3.099 3.206 1.261.021 1.58.4 1.527.95-.051.74-1.05.827-1.05.827H46.155c-1.063 0-2.16-1.533.454-1.893 2.634-.367 2.87-2.743 2.87-2.743v-7.83s7.045.004 8.226-1.32"/><path fill="#fff" d="M57.853 60.379c.096-.14 6.29 1.533 8.667-1.58 0 0 .233-.475-.48-1.318 0 0 .713-.368.713-.832h2.752s.464-.721-.265-1.43l.384-.406h3.848s.754-1.864-4.54-3.382h-.499V50.34s-2.356-.664-4.545.839v-1.342s-2.416 1.276-6.145 5.472c-3.406 3.819-8.5 3.236-8.5 3.236s-2.635-.598-4.54-2.138c0 0-1.187.353-1.288 1.54 0 0 2.608 2.14 5.949 2.508 3.333.358 9.759-2.374 12.63-5.598 4.046-2.49 6.782-1.788 7.371-1.434.604.36-4.404-.106-7.485 3.12-3.108 3.202-7.513 4.977-12.401 5.11 0 0 4.888.312 8.374-1.274"/></svg>