<svg xmlns="http://www.w3.org/2000/svg" width="192.57912mm" height="164.19833mm" viewBox="0 0 192.57912 164.19833"><path d="M0 0h-2.34l-.085-.085v-3.448l-.085-.089h-3.322a5.747 5.747 0 0 1-1.756 1.481 4.656 4.656 0 0 1-2.269.565c-.806 0-1.541-.154-2.207-.478a5.513 5.513 0 0 1-1.749-1.299c-.487-.54-.859-1.178-1.134-1.907a6.553 6.553 0 0 1-.408-2.322c0-.831.135-1.615.408-2.344.275-.724.647-1.37 1.134-1.909a5.562 5.562 0 0 1 1.749-1.29 5.193 5.193 0 0 1 2.207-.463c.854 0 1.627.188 2.317.565.691.384 1.681 1.464 1.681 1.464l.142.063h3.207l.085-.084v-8.84l.085-.09H0l.083.09V-.085L0 0m-7.19-9.081a4.31 4.31 0 0 0-.616-1.23 2.786 2.786 0 0 0-.916-.817 2.271 2.271 0 0 0-1.135-.296c-.417 0-.806.096-1.165.296a2.778 2.778 0 0 0-.935.817 4.057 4.057 0 0 0-.636 1.23 4.79 4.79 0 0 0-.228 1.499c0 .517.074 1.013.228 1.481.152.468.367.877.636 1.226.261.352.569.629.935.834a2.33 2.33 0 0 0 2.3 0 2.96 2.96 0 0 0 .916-.834c.256-.349.465-.758.616-1.226.153-.468.23-.964.23-1.481a4.82 4.82 0 0 0-.23-1.499m4.765-.008-.085-.083h-2.208c.082.239.142.5.179.774.042.272.063.543.063.816 0 .274-.024.552-.075.832-.046.283-.144.747-.144.747l.063.084h2.122l.085-.084z" style="fill:#003670;fill-opacity:1;fill-rule:nonzero;stroke:none" transform="matrix(1.66986 0 0 -1.66986 28.657 107.853)"/><path d="M0 0h-2.369l-.079-.084V-20.43l.079-.084H0l.083.084V-.084z" style="fill:#003670;fill-opacity:1;fill-rule:nonzero;stroke:none" transform="matrix(1.66986 0 0 -1.66986 35.505 107.843)"/><path d="M0 0h-19.85l-.089-.084v-1.993l.089-.084h8.537l.085-.084v-6.224l.083-.084h2.581l.082.084v6.224l.089.084H0l.085.084v1.993z" style="fill:#003670;fill-opacity:1;fill-rule:nonzero;stroke:none" transform="matrix(1.66986 0 0 -1.66986 75.277 127.816)"/><path d="m0 0 .124-.032c.681.181 1.364.413 2.057.704.711.307 1.38.657 1.988 1.051a9.82 9.82 0 0 1 1.673 1.309c.453.438.813.901 1.079 1.381l.139-.004a5.668 5.668 0 0 1 1.051-1.377A9.99 9.99 0 0 1 9.79 1.723 14.417 14.417 0 0 1 11.806.672C12.52.37 13.884-.03 13.884-.03l.129.045 1.361 1.717-.034.136c-.874.236-1.717.545-2.525.926A9.99 9.99 0 0 0 10.583 4.2a6.848 6.848 0 0 0-1.568 1.842c-.386.686-.566 2.168-.566 2.168l-.011.172v.897l-.084.088h-2.77l-.089-.088v-.981c0-.82-.197-1.57-.589-2.256A6.949 6.949 0 0 0 3.327 4.2a10.059 10.059 0 0 0-2.232-1.406c-.847-.399-2.542-.934-2.542-.934l-.023-.089L0 0" style="fill:#003670;fill-opacity:1;fill-rule:nonzero;stroke:none" transform="matrix(1.66986 0 0 -1.66986 47.227 123.485)"/><path d="M0 0h-2.339l-.087-.084v-6.962l-.082-.087h-1.888l-.079.087v6.962L-4.558 0h-2.365l-.087-.084V-20.43l.087-.084h2.365l.083.084v10.939l.079.084h1.888l.082-.084V-20.43l.087-.084H0l.087.084V-.084z" style="fill:#003670;fill-opacity:1;fill-rule:nonzero;stroke:none" transform="matrix(1.66986 0 0 -1.66986 111.121 107.843)"/><path d="m0 0-.115.111c-.263-.048-.569-.122-.922-.173A19.462 19.462 0 0 0-2.314-.22a20.06 20.06 0 0 0-1.31-.104c-.445-.024-1.089-.034-1.089-.034h-1.784l-.084.084v9.271l.084.088h4.97l.086.082v1.969l-.086.088h-6.929c-.613-.03-.752-.501-.774-.751V-1.548v.007s-.097-1.053.975-1.053l-.025-.012 2.783.015c.388 0 .832.013 1.339.035.503.018 1.019.058 1.536.106.493.061.978.126 1.443.189.466.07 1.076.213 1.076.213L0-1.901Z" style="fill:#003670;fill-opacity:1;fill-rule:nonzero;stroke:none" transform="matrix(1.66986 0 0 -1.66986 97.721 129.031)"/><path d="M0 0h-13.242l-.085-.084v-1.947l.085-.086h10.537l.091-.086v-4.87l.08-.084H0l.087.084v6.989z" style="fill:#003670;fill-opacity:1;fill-rule:nonzero;stroke:none" transform="matrix(1.66986 0 0 -1.66986 148.075 130.15)"/><path d="M0 0c.724 0 1.409.12 2.048.363a5.065 5.065 0 0 1 1.667 1c.479.421.86.925 1.132 1.491.275.569.413 1.178.413 1.831 0 .501-.107.979-.314 1.435-.212.454-.814 1.164-.814 1.164l.025.063h2.104l.079.087v1.899l-.079.087H1.51l-.086.084v1.812l-.087.084H-1.22l-.079-.084V9.504l-.092-.084h-4.965l-.085-.087V7.434l.085-.087h2.232a3.694 3.694 0 0 1-.874-1.227 3.728 3.728 0 0 1-.283-1.435c0-.653.134-1.262.408-1.831.27-.566.641-1.07 1.111-1.491a5.266 5.266 0 0 1 1.687-1A5.81 5.81 0 0 1 0 0m-1.905 6.526A2.667 2.667 0 0 0 0 7.281c.724 0 1.345-.252 1.869-.755.52-.496.78-1.113.78-1.841 0-.711-.27-1.318-.817-1.825-.548-.495-1.181-.746-1.906-.746-.736 0-1.36.251-1.874.746a2.507 2.507 0 0 0-.757 1.825c0 .728.267 1.345.8 1.841" style="fill:#003670;fill-opacity:1;fill-rule:nonzero;stroke:none" transform="matrix(1.66986 0 0 -1.66986 129.809 126.88)"/><path d="M0 0h-2.679l-.086.089v5.017l-.08.084h-2.44l-.087-.084V-6.856l.087-.082h2.44l.08.082v4.584l.086.087H0l.082.087v2.014z" style="fill:#003670;fill-opacity:1;fill-rule:nonzero;stroke:none" transform="matrix(1.66986 0 0 -1.66986 152.952 116.51)"/><path d="M0 0h-6.961l-.084.091v6.747l-.082.081h-2.436l-.089-.081V.091L-9.734 0h-2.461l-.084.091v6.747l-.086.081h-2.437l-.087-.081V.091L-14.973 0h-4.894l-.082-.084v-2.015l.082-.084H0l.089.084v2.015z" style="fill:#003670;fill-opacity:1;fill-rule:nonzero;stroke:none" transform="matrix(1.66986 0 0 -1.66986 189.414 135.231)"/><path d="M0 0h11.588l.13-.126c.004-.647-.024-1.341-.047-2.07a61.914 61.914 0 0 0-.152-2.379 52.441 52.441 0 0 0-.237-2.401c-.097-.796-.301-2.183-.301-2.183l.069-.082h2.463l.151.126c.126.814.23 1.639.333 2.581.102.972.197 1.959.277 2.96a98.29 98.29 0 0 1 .152 2.98c.018.475.052 1.125.069 1.674.019 1.164-1.019 1.126-1.019 1.126H0l-.086-.088V.084L0 0" style="fill:#003670;fill-opacity:1;fill-rule:nonzero;stroke:none" transform="matrix(1.66986 0 0 -1.66986 161.11 113.27)"/><path d="M0 0h1.543v-5.48c0-2.334-1.129-3.11-2.81-3.11-.426 0-.964.072-1.291.198l.187 1.242c.253-.076.591-.15.955-.15C-.538-7.3 0-6.897 0-5.433Z" style="fill:#003670;fill-opacity:1;fill-rule:nonzero;stroke:none" transform="matrix(1.66986 0 0 -1.66986 11.524 149.848)"/><path d="M0 0h-3.188v-2.483H.376v-1.266h-5.105v8.455H.189V3.438h-3.377V1.254H0Z" style="fill:#003670;fill-opacity:1;fill-rule:nonzero;stroke:none" transform="matrix(1.66986 0 0 -1.66986 25.874 157.703)"/><path d="M0 0a4.288 4.288 0 0 1 2.046-.539c.992 0 1.543.464 1.543 1.152 0 .642-.427 1.018-1.506 1.408C.691 2.523-.2 3.261-.2 4.479-.2 5.859.955 6.91 2.785 6.91c.918 0 1.593-.198 2.033-.424l-.377-1.243c-.3.162-.891.403-1.679.403-.98 0-1.407-.529-1.407-1.017 0-.651.491-.952 1.618-1.392C4.441 2.684 5.157 1.945 5.157.729c0-1.356-1.03-2.545-3.211-2.545-.893 0-1.82.259-2.284.535z" style="fill:#003670;fill-opacity:1;fill-rule:nonzero;stroke:none" transform="matrix(1.66986 0 0 -1.66986 29.75 161.158)"/><path d="M0 0v-4.928c0-1.658.691-2.424 1.732-2.424 1.116 0 1.781.766 1.781 2.424V0h1.545v-4.828c0-2.609-1.345-3.762-3.375-3.762-1.957 0-3.226 1.088-3.226 3.749V0Z" style="fill:#003670;fill-opacity:1;fill-rule:nonzero;stroke:none" transform="matrix(1.66986 0 0 -1.66986 44.287 149.848)"/><path d="M0 0a4.272 4.272 0 0 1 2.046-.539c.989 0 1.541.464 1.541 1.152 0 .642-.427 1.018-1.505 1.408C.691 2.523-.2 3.261-.2 4.479-.2 5.859.955 6.91 2.785 6.91c.915 0 1.592-.198 2.033-.424l-.379-1.243a3.576 3.576 0 0 1-1.681.403c-.978 0-1.403-.529-1.403-1.017 0-.651.489-.952 1.618-1.392C4.439 2.684 5.157 1.945 5.157.729c0-1.356-1.03-2.545-3.214-2.545-.89 0-1.817.259-2.281.535z" style="fill:#003670;fill-opacity:1;fill-rule:nonzero;stroke:none" transform="matrix(1.66986 0 0 -1.66986 56.67 161.158)"/><path d="M0 0v-5.005c0-1.892.841-2.696 1.97-2.696 1.256 0 2.057.825 2.057 2.696V0h1.105v-4.928c0-2.598-1.369-3.662-3.199-3.662-1.731 0-3.037.989-3.037 3.611V0Z" style="fill:#003670;fill-opacity:1;fill-rule:nonzero;stroke:none" transform="matrix(1.66986 0 0 -1.66986 76.065 149.848)"/><path d="M0 0v8.453h1.191l2.708-4.279A24.155 24.155 0 0 0 5.421 1.43l.024.01c-.101 1.13-.127 2.16-.127 3.475v3.538h1.027V0H5.242L2.559 4.29c-.589.94-1.154 1.908-1.58 2.82L.94 7.098c.064-1.064.087-2.082.087-3.486V0Z" style="fill:#003670;fill-opacity:1;fill-rule:nonzero;stroke:none" transform="matrix(1.66986 0 0 -1.66986 88.845 163.963)"/><path d="M171.305 192.88h-.386v-2.982h.386z" style="fill:#003670;fill-opacity:1;fill-rule:nonzero;stroke:none;stroke-width:.352778" transform="matrix(4.73345 0 0 4.73345 -705.361 -749.024)"/><path d="m0 0-2.758 8.453h1.179L-.266 4.29c.367-1.142.681-2.172.904-3.163h.027c.237.98.589 2.047.966 3.148l1.432 4.178h1.165L1.206 0Z" style="fill:#003670;fill-opacity:1;fill-rule:nonzero;stroke:none" transform="matrix(1.66986 0 0 -1.66986 112.828 163.963)"/><path d="M0 0h-3.285v-3.05H.376v-.916h-4.752v8.455H.189v-.914h-3.474V.902H0Z" style="fill:#003670;fill-opacity:1;fill-rule:nonzero;stroke:none" transform="matrix(1.66986 0 0 -1.66986 129.775 157.344)"/><path d="M0 0c.55.112 1.341.177 2.091.177 1.168 0 1.923-.214 2.449-.69.424-.381.663-.952.663-1.606 0-1.115-.699-1.857-1.591-2.159v-.036c.652-.227 1.042-.828 1.242-1.707.276-1.179.476-1.993.65-2.32H4.378c-.14.251-.328.965-.567 2.021-.251 1.164-.701 1.602-1.694 1.643H1.091v-3.664H0Zm1.091-3.852h1.115c1.168 0 1.909.64 1.909 1.607 0 1.092-.792 1.567-1.947 1.582-.525 0-.903-.052-1.077-.103z" style="fill:#003670;fill-opacity:1;fill-rule:nonzero;stroke:none" transform="matrix(1.66986 0 0 -1.66986 133.822 150.035)"/><path d="M0 0a3.863 3.863 0 0 1 1.956-.553c1.116 0 1.77.593 1.77 1.444 0 .789-.454 1.242-1.592 1.679C.752 3.061-.101 3.778-.101 4.967c0 1.316 1.093 2.295 2.736 2.295.864 0 1.49-.199 1.869-.411l-.302-.89a3.422 3.422 0 0 1-1.604.399c-1.157 0-1.596-.687-1.596-1.266 0-.791.516-1.181 1.683-1.631C4.116 2.911 4.843 2.221 4.843.979c0-1.305-.967-2.448-2.961-2.448-.818 0-1.706.253-2.156.55z" style="fill:#003670;fill-opacity:1;fill-rule:nonzero;stroke:none" transform="matrix(1.66986 0 0 -1.66986 145.886 161.745)"/><path d="M182.677 192.88h-.385v-2.982h.385z" style="fill:#003670;fill-opacity:1;fill-rule:nonzero;stroke:none;stroke-width:.352778" transform="matrix(4.73345 0 0 4.73345 -705.361 -749.024)"/><path d="M0 0h-2.57v.929h6.258V0H1.104v-7.524H0Z" style="fill:#003670;fill-opacity:1;fill-rule:nonzero;stroke:none" transform="matrix(1.66986 0 0 -1.66986 166.246 151.398)"/><path d="M0 0v3.587l-2.671 4.866h1.24l1.19-2.332c.33-.64.578-1.156.845-1.743h.025c.237.552.526 1.103.852 1.743l1.215 2.332h1.243L1.104 3.6V0Z" style="fill:#003670;fill-opacity:1;fill-rule:nonzero;stroke:none" transform="matrix(1.66986 0 0 -1.66986 178.754 163.963)"/><path d="M0 0c-1.957 0-3.84.315-5.607.886A18.214 18.214 0 0 0-11.216 0c-10.088 0-18.268 8.179-18.268 18.268 0-13.186 9.296-27.11 23.88-27.11 14.58 0 23.875 13.924 23.875 27.11C18.271 8.179 10.089 0 0 0" style="fill:#003670;fill-opacity:1;fill-rule:nonzero;stroke:none" transform="matrix(1.66986 0 0 -1.66986 105.652 81.524)"/><path d="M0 0a18.2 18.2 0 0 1 5.606.886C-1.736 3.254-7.052 10.137-7.052 18.268V38.6c0 .841-.187.959-1.013 1.039-1.634.153-9.031.836-9.128.848-1.065.144-1.078-.275-1.078-.949v-21.27C-18.271 8.179-10.091 0 0 0" style="fill:#00a7ea;fill-opacity:1;fill-rule:nonzero;stroke:none" transform="matrix(1.66986 0 0 -1.66986 86.926 81.524)"/><path d="M0 0c-.037.546.003 1.139-1.079 1.367-2.928.617-9.008 2.223-9.236 2.268-1.082.222-1.23-.315-1.108-.948.122-.638 1.418-8.764 1.418-22.552 0-13.787-1.303-22.024-1.4-22.851-.128-1.088-.026-1.33 1.233-1.037.969.225 4.565 1.28 9.058 2.314.641.147 1.047.297 1.103 1.06 0 0 .656 9.46.656 20.514C.645-8.811.03-.438 0 0" style="fill:#00a7ea;fill-opacity:1;fill-rule:nonzero;stroke:none" transform="matrix(1.66986 0 0 -1.66986 48.277 14.625)"/><path d="M0 0c.038.546-.004 1.139 1.077 1.367 2.93.617 9.011 2.223 9.24 2.268 1.082.222 1.229-.315 1.11-.948-.124-.638-1.421-8.764-1.421-22.552 0-13.787 1.302-22.024 1.4-22.851.129-1.088.025-1.33-1.235-1.037-.968.225-4.565 1.28-9.056 2.314-.64.147-1.046.297-1.1 1.06 0 0-.66 9.46-.66 20.514C-.645-8.811-.029-.438 0 0" style="fill:#f39700;fill-opacity:1;fill-rule:nonzero;stroke:none" transform="matrix(1.66986 0 0 -1.66986 144.296 14.625)"/><path d="M0 0c-2.861.841-9.586 2.986-10.721 3.347-1.134.362-1.216-.222-1.107-1.044.107-.82 1.769-12.652 1.769-27.454 0-14.798-1.736-27.602-1.769-27.972-.036-.37-.158-1.441 1.12-.95 3.055 1.172 10.701 3.358 10.75 3.372 1.028.265.978.72 1.249 2.388.05.321 1.576 10.765 1.576 23.126 0 12.365-1.66 23.388-1.797 24.09C.93-.392.737-.214 0 0" style="fill:#00a7ea;fill-opacity:1;fill-rule:nonzero;stroke:none" transform="matrix(1.66986 0 0 -1.66986 19.81 5.778)"/><path d="M0 0c-1.957 0-3.841.315-5.607.886 7.341 2.368 12.66 9.251 12.66 17.382V38.6c0 .841.186.959 1.009 1.039 1.634.153 9.034.836 9.13.848 1.066.144 1.079-.274 1.079-.949v-21.27C18.271 8.179 10.089 0 0 0" style="fill:#f39700;fill-opacity:1;fill-rule:nonzero;stroke:none" transform="matrix(1.66986 0 0 -1.66986 105.652 81.524)"/><path d="M0 0c2.861.841 9.587 2.984 10.722 3.347 1.138.362 1.217-.222 1.109-1.045-.109-.823-1.771-12.655-1.771-27.455 0-14.798 1.735-27.604 1.771-27.974.036-.37.157-1.437-1.12-.946C7.655-52.905.008-50.715-.041-50.703c-1.028.267-.978.722-1.248 2.389-.05.32-1.575 10.765-1.575 23.127 0 12.365 1.659 23.388 1.797 24.09C-.93-.394-.734-.218 0 0" style="fill:#f39700;fill-opacity:1;fill-rule:nonzero;stroke:none" transform="matrix(1.66986 0 0 -1.66986 172.764 5.772)"/><path d="m0 0 10.972 1.564L-.133 3.151l-1.555 10.316-1.556-10.316-11.102-1.587L-3.378 0l1.69-24.984z" style="fill:#003670;fill-opacity:1;fill-rule:nonzero;stroke:none" transform="matrix(1.66986 0 0 -1.66986 99.108 38.33)"/></svg>