<svg xmlns="http://www.w3.org/2000/svg" width="186.79245mm" height="186.79245mm" viewBox="0 0 186.79245 186.79245"><g transform="translate(-13.698 -30.51)"><circle cx="107.09434" cy="123.90565" r="93.396225" style="fill:#f9f9f9;stroke:#fff;stroke-width:0"/><path d="M0 0c0-23.1-18.725-41.823-41.824-41.823C-64.921-41.823-83.646-23.1-83.646 0c0 23.098 18.725 41.822 41.822 41.822C-18.725 41.822 0 23.098 0 0Z" style="fill:none;stroke:#ed106f;stroke-width:1;stroke-linecap:butt;stroke-linejoin:miter;stroke-miterlimit:10;stroke-dasharray:none;stroke-opacity:1" transform="matrix(1.47367 0 0 -1.47367 169.351 123.905)"/><path d="M0 0c0-21.874-17.733-39.607-39.607-39.607-21.875 0-39.607 17.733-39.607 39.607 0 21.873 17.732 39.607 39.607 39.607C-17.733 39.607 0 21.873 0 0Z" style="fill:none;stroke:#2350a9;stroke-width:2;stroke-linecap:butt;stroke-linejoin:miter;stroke-miterlimit:10;stroke-dasharray:none;stroke-opacity:1" transform="matrix(1.47367 0 0 -1.47367 166.084 123.905)"/><path d="M0 0c0-33.194-26.909-60.104-60.104-60.104-33.193 0-60.102 26.91-60.102 60.104s26.909 60.103 60.102 60.103C-26.909 60.103 0 33.194 0 0Z" style="fill:none;stroke:#2350a9;stroke-width:2;stroke-linecap:butt;stroke-linejoin:miter;stroke-miterlimit:10;stroke-dasharray:none;stroke-opacity:1" transform="matrix(1.47367 0 0 -1.47367 196.29 123.905)"/><path d="M0 0h14.288L7.113 12.159Z" style="fill:#2350a9;fill-opacity:1;fill-rule:nonzero;stroke:none" transform="matrix(1.47367 0 0 -1.47367 116.343 151.93)"/><path d="M0 0h-28.35v-41.184l12.216 20.866c.338.608 1.053 1.03 1.888 1.03.837 0 1.552-.422 1.889-1.03h.004L0-41.422Z" style="fill:#2350a9;fill-opacity:1;fill-rule:nonzero;stroke:none" transform="matrix(1.47367 0 0 -1.47367 147.817 90.894)"/><path d="M0 0a6.78 6.78 0 1 0 .001 13.557A6.78 6.78 0 0 0 0 0m0 19.208c-6.865 0-12.429-5.563-12.429-12.429C-12.429-.086-6.865-5.65 0-5.65c6.862 0 12.429 5.564 12.429 12.429 0 6.866-5.567 12.429-12.429 12.429" style="fill:#ed106f;fill-opacity:1;fill-rule:nonzero;stroke:none" transform="matrix(1.47367 0 0 -1.47367 84.3 145.325)"/><path d="M0 0a1.58 1.58 0 0 1-.318.733 1.5 1.5 0 0 1-.636.449 2.699 2.699 0 0 1-.922.173 5.79 5.79 0 0 1-1.212-.107 6.636 6.636 0 0 1-1.26-.343 2.784 2.784 0 0 1-.843-.494 1.487 1.487 0 0 1-.436-.652 1.683 1.683 0 0 1-.036-.817c.055-.299.162-.551.322-.756.161-.205.367-.36.62-.465.267-.11.577-.17.934-.181.355-.012.76.024 1.212.106.483.088.899.204 1.249.346.35.143.631.312.841.508.218.191.367.413.448.664.08.252.093.53.037.836m.738.163a3.148 3.148 0 0 0-.011-1.267 2.4 2.4 0 0 0-.534-1.049 3.143 3.143 0 0 0-1.011-.795c-.421-.219-.923-.381-1.503-.487-.587-.107-1.117-.128-1.59-.066a3.354 3.354 0 0 0-1.237.396 2.54 2.54 0 0 0-.839.785c-.221.326-.37.703-.448 1.131A2.93 2.93 0 0 0-6.414.022c.091.387.26.735.507 1.045.26.306.601.573 1.025.798.423.225.928.391 1.515.498a5.6 5.6 0 0 0 1.525.083 3.3 3.3 0 0 0 1.223-.342c.356-.187.65-.443.883-.767.232-.324.39-.716.474-1.174" style="fill:#2350a9;fill-opacity:1;fill-rule:nonzero;stroke:none" transform="matrix(1.47367 0 0 -1.47367 39.618 136.322)"/><path d="M0 0c.292-.005.571-.068.836-.19.266-.123.499-.298.7-.525.207-.239.37-.531.489-.875.12-.344.175-.739.167-1.186a5.106 5.106 0 0 0-.046-.616 3.956 3.956 0 0 0-.131-.593 3.364 3.364 0 0 0-.447-1.056l-.795.404c.096.16.181.319.255.476.075.157.131.316.171.477.052.149.09.303.114.465.025.161.039.325.041.493.004.243-.018.458-.068.65-.05.189-.127.354-.23.493a.97.97 0 0 1-.368.304 1.227 1.227 0 0 1-.894.047 1.01 1.01 0 0 1-.33-.205 1.565 1.565 0 0 1-.257-.359 2.812 2.812 0 0 1-.204-.491l-.236-.77a3.67 3.67 0 0 0-.306-.731 1.864 1.864 0 0 0-.414-.516 1.422 1.422 0 0 0-.513-.308 1.849 1.849 0 0 0-.64-.092 1.93 1.93 0 0 0-1.453.676 2.195 2.195 0 0 0-.425.753 2.833 2.833 0 0 0-.143.981 4.697 4.697 0 0 0 .178 1.19c.058.186.13.36.213.524.084.163.173.315.268.457l.72-.46a3.82 3.82 0 0 1-.414-.841 4.423 4.423 0 0 1-.096-.423 2.844 2.844 0 0 1-.039-.424 1.727 1.727 0 0 1 .066-.527 1.063 1.063 0 0 1 .539-.666.98.98 0 0 1 .427-.1.828.828 0 0 1 .374.073.787.787 0 0 1 .274.215c.083.091.152.197.211.318a2.5 2.5 0 0 1 .145.384l.267.89c.085.279.19.525.314.737.125.213.27.391.434.539.17.139.359.244.568.311.21.069.436.101.678.097" style="fill:#2350a9;fill-opacity:1;fill-rule:nonzero;stroke:none" transform="matrix(1.47367 0 0 -1.47367 36.41 120.21)"/><path d="m0 0-2.423-.264a14.386 14.386 0 0 0-1.182-.104c.07-.031.152-.07.244-.118l.278-.144a13.625 13.625 0 0 1 .536-.284l2.19-1.114zm2.849.265a52.446 52.446 0 0 1-.564-.029 7.705 7.705 0 0 1-.549-.049L.883.071l-.44-2.497.766-.381c.174-.087.341-.169.501-.244.16-.075.332-.151.514-.227l-.201-1.139c-.09.061-.173.114-.251.162-.076.049-.152.095-.225.14-.074.045-.151.09-.228.135l-.253.148-5.612 3.015.216 1.22 6.296.869a7.226 7.226 0 0 1 1.097.214Z" style="fill:#2350a9;fill-opacity:1;fill-rule:nonzero;stroke:none" transform="matrix(1.47367 0 0 -1.47367 36.743 109.832)"/><path d="m0 0-4.926 1.838c-.169.063-.309.114-.421.152a15.7 15.7 0 0 1-.463.148l.427 1.144 3.882.403c.379.037.772.066 1.182.086l1.179.057a9.323 9.323 0 0 0-.555.178l-.701.241-.639.219c-.197.066-.331.113-.402.139l-2.191.818a9.279 9.279 0 0 1-.418.146c-.122.039-.266.083-.433.132l.348.935c.156-.078.294-.142.412-.189.118-.048.256-.1.413-.159l4.857-1.812.479-.179c.129-.048.286-.097.473-.147l-.391-1.047-3.711-.347a38.9 38.9 0 0 0-1.552-.122 50.748 50.748 0 0 0-1.242-.06c.122-.045.304-.11.545-.193l.732-.253c.252-.088.479-.166.682-.235.204-.069.332-.111.387-.124L.329.882C.486.823.626.772.75.73c.123-.043.267-.084.431-.126L.825-.348A9.322 9.322 0 0 1 0 0" style="fill:#2350a9;fill-opacity:1;fill-rule:nonzero;stroke:none" transform="matrix(1.47367 0 0 -1.47367 41.28 102.869)"/><path d="m0 0 3.372-2.573a2.23 2.23 0 0 0 .553-.605c.141-.229.228-.477.26-.743a2.14 2.14 0 0 0-.107-.869c-.098-.309-.275-.63-.531-.966a3.98 3.98 0 0 0-.748-.772 1.877 1.877 0 0 0-.763-.362 1.515 1.515 0 0 0-.784.024 2.517 2.517 0 0 0-.814.433L-2.94-3.854a6.374 6.374 0 0 1-.373.266 9.354 9.354 0 0 1-.373.233l.684.896c.117-.112.227-.213.327-.302.101-.089.217-.183.351-.285l3.09-2.358a2.45 2.45 0 0 1 .574-.339c.185-.075.366-.106.541-.091.177.007.346.059.508.158.162.1.318.248.468.446.14.182.239.363.296.542.059.178.074.357.045.535a1.29 1.29 0 0 1-.223.499 2.297 2.297 0 0 1-.496.495L-.61-.801a7.736 7.736 0 0 1-.746.498l.678.89c.113-.109.224-.212.334-.308C-.232.184-.118.09 0 0" style="fill:#2350a9;fill-opacity:1;fill-rule:nonzero;stroke:none" transform="matrix(1.47367 0 0 -1.47367 48.334 74.157)"/><path d="m0 0-3.51 3.914a15.372 15.372 0 0 1-.643.676l.909.815L.381 3.96c.353-.143.715-.3 1.087-.472l1.071-.497c-.104.098-.241.237-.409.415l-.509.539-.465.491c-.143.151-.24.254-.29.309L-.696 6.487c-.113.125-.213.234-.303.325-.09.089-.197.196-.322.317l.742.666c.102-.142.195-.262.278-.358.082-.097.18-.208.292-.333l3.46-3.859.342-.382a5.8 5.8 0 0 1 .351-.349l-.832-.746-3.449 1.415a48.04 48.04 0 0 0-2.558 1.136c.087-.097.217-.239.392-.424a1173.763 1173.763 0 0 1 1.027-1.089c.147-.156.242-.252.284-.289L.701.629c.112-.125.213-.235.302-.33a5.24 5.24 0 0 1 .323-.312L.569-.691A10.536 10.536 0 0 1 0 0" style="fill:#2350a9;fill-opacity:1;fill-rule:nonzero;stroke:none" transform="matrix(1.47367 0 0 -1.47367 58.668 74.429)"/><path d="m0 0 2.89-4.403c.091-.141.179-.269.263-.385.083-.116.18-.235.289-.357l-.958-.628a7.091 7.091 0 0 1-.46.801L-.864-.567a6.502 6.502 0 0 1-.253.358 9.64 9.64 0 0 1-.285.359l.959.629A7.136 7.136 0 0 1 0 0" style="fill:#2350a9;fill-opacity:1;fill-rule:nonzero;stroke:none" transform="matrix(1.47367 0 0 -1.47367 65.96 58.74)"/><path d="m0 0-.878-.41-4.49 4.703a6.027 6.027 0 0 1-.188.181c-.059.054-.116.11-.171.167l-.18.168a5.97 5.97 0 0 1-.21.184l1.106.517c.105-.151.207-.284.307-.403.1-.118.217-.248.352-.39l2.185-2.345c.104-.122.216-.25.334-.384a20.207 20.207 0 0 0 .666-.8c.104-.126.197-.235.281-.327a44.87 44.87 0 0 0-.195.938c-.074.37-.131.731-.172 1.083l-.371 3.108a9.375 9.375 0 0 1-.177 1.019l1.09.509c-.003-.084-.003-.17-.003-.259l.001-.267c.001-.09.002-.178.006-.265.003-.088.009-.17.018-.248z" style="fill:#2350a9;fill-opacity:1;fill-rule:nonzero;stroke:none" transform="matrix(1.47367 0 0 -1.47367 79.468 61.786)"/><path d="M0 0a8.514 8.514 0 0 1-.211.985L-1.54 5.851a10.15 10.15 0 0 1-.153.508c-.052.154-.11.312-.173.475l2.904.794c.132.035.263.074.394.116.13.042.273.095.43.156l.154-.914a4.325 4.325 0 0 1-.428-.078 11.383 11.383 0 0 1-.403-.1l-1.817-.496.561-2.051 1.34.366c.161.044.31.088.447.132.136.044.276.095.422.154l.245-.899a5.638 5.638 0 0 1-.45-.085c-.152-.035-.3-.072-.444-.112L.158 3.454l.637-2.329 1.744.477c.198.053.38.107.546.159.166.051.343.112.53.182l.255-.934-.579-.125A8.937 8.937 0 0 1 2.77.756Z" style="fill:#2350a9;fill-opacity:1;fill-rule:nonzero;stroke:none" transform="matrix(1.47367 0 0 -1.47367 87.118 58.75)"/><path d="m0 0 .234-2.431.751.073c.297.029.545.081.744.156.199.075.355.175.468.298.107.116.18.255.217.414.038.16.048.339.028.537a1.233 1.233 0 0 1-.146.496 1.027 1.027 0 0 1-.328.348 1.696 1.696 0 0 1-.518.17c-.2.034-.429.038-.689.013Zm1.753-2.931c.113-.076.223-.159.328-.249a7.07 7.07 0 0 0 .334-.304c.105-.121.218-.254.338-.399l.402-.485.567-.724.166-.222c.047-.061.094-.118.142-.169.044-.058.091-.116.144-.173l.194-.216L3.041-6a4.677 4.677 0 0 1-.116.19 5.777 5.777 0 0 0-.184.296l-.112.196-.224.372a7.94 7.94 0 0 1-.372.558c-.122.166-.239.319-.352.458a8.092 8.092 0 0 1-.363.359 4.012 4.012 0 0 1-.346.284.921.921 0 0 1-.28.138 1.256 1.256 0 0 1-.391.022l.214-2.217c.008-.087.017-.166.027-.236.01-.071.019-.141.025-.209L.606-6c.013-.074.03-.15.05-.229l-1.094-.106-.004.233-.002.216c-.007.068-.01.138-.011.209a2.62 2.62 0 0 1-.014.238L-.962-.326a3.643 3.643 0 0 1-.035.272 3.117 3.117 0 0 0-.033.245c-.014.08-.03.162-.047.245a4.471 4.471 0 0 0-.05.28l2.152.208c.322.03.627.016.917-.043.29-.06.545-.163.766-.311.221-.153.399-.348.538-.585.139-.236.223-.511.253-.828a2.27 2.27 0 0 0-.046-.734 1.827 1.827 0 0 0-.28-.636 1.609 1.609 0 0 0-.503-.475 1.663 1.663 0 0 0-.713-.223Z" style="fill:#2350a9;fill-opacity:1;fill-rule:nonzero;stroke:none" transform="matrix(1.47367 0 0 -1.47367 98.573 46.93)"/><path d="M0 0a2.074 2.074 0 0 0-.807-1.489 2.61 2.61 0 0 0-.903-.436 3.475 3.475 0 0 0-1.194-.096 5.071 5.071 0 0 0-.611.085c-.203.04-.398.096-.586.166a3.426 3.426 0 0 0-1.026.509l.452.77c.154-.106.307-.199.459-.283.153-.083.309-.15.467-.2.145-.061.297-.108.456-.142a3.73 3.73 0 0 1 .49-.071c.241-.018.459-.008.653.03.192.038.361.104.505.199a.972.972 0 0 1 .327.35c.079.142.127.31.141.503a1.012 1.012 0 0 1-.224.727 1.64 1.64 0 0 1-.344.279 2.839 2.839 0 0 1-.478.233l-.754.283a3.679 3.679 0 0 0-.711.349c-.203.13-.366.279-.49.444a1.44 1.44 0 0 0-.277.531 1.87 1.87 0 0 0-.053.645c.022.284.098.549.229.791s.308.448.534.618c.219.17.477.296.777.38.299.082.628.11.988.082a4.56 4.56 0 0 0 1.177-.249c.182-.071.352-.152.51-.245.158-.093.305-.192.439-.295l-.5-.692a4.112 4.112 0 0 1-.415.271c-.134.076-.268.14-.401.194-.14.048-.278.089-.416.121a2.817 2.817 0 0 1-.421.066 1.788 1.788 0 0 1-.53-.034 1.105 1.105 0 0 1-.412-.184.973.973 0 0 1-.411-.735.845.845 0 0 1 .049-.378.811.811 0 0 1 .199-.286c.087-.088.188-.165.304-.229.117-.065.242-.122.375-.17l.873-.319c.273-.102.511-.222.716-.359.204-.137.375-.293.511-.464.13-.179.223-.374.277-.587C0 .469.019.242 0 0" style="fill:#2350a9;fill-opacity:1;fill-rule:nonzero;stroke:none" transform="matrix(1.47367 0 0 -1.47367 116.795 53.023)"/><path d="m0 0-1.15-5.14a10.093 10.093 0 0 1-.093-.457 3.992 3.992 0 0 1-.054-.456l-1.119.25a7.357 7.357 0 0 1 .256.889l1.15 5.14a8.227 8.227 0 0 1 .141.885L.25.86A7.273 7.273 0 0 1 0 0" style="fill:#2350a9;fill-opacity:1;fill-rule:nonzero;stroke:none" transform="matrix(1.47367 0 0 -1.47367 125.437 48.558)"/><path d="m0 0-1.857-4.979a3.751 3.751 0 0 1-.08-.228c-.024-.07-.048-.142-.075-.211-.017-.066-.037-.136-.057-.207a3.73 3.73 0 0 1-.059-.237l-1.092.407c.036.08.071.153.103.221.032.067.062.132.093.194.025.07.054.139.086.206.032.068.063.143.093.225L-.986.368l-.866.323a4.604 4.604 0 0 1-.434.142 50.124 50.124 0 0 0-.429.131l.329.882c.077-.042.149-.077.215-.106.066-.027.129-.056.192-.086.061-.03.125-.057.193-.082l.231-.087L1.274.43l.224-.083c.066-.025.133-.047.199-.065.061-.015.125-.035.193-.056.068-.023.148-.044.24-.065l-.435-.844c-.085.039-.16.073-.226.1-.066.028-.13.057-.192.087l-.2.09-.221.087z" style="fill:#2350a9;fill-opacity:1;fill-rule:nonzero;stroke:none" transform="matrix(1.47367 0 0 -1.47367 135.49 51.578)"/><path d="m0 0-.979-1.695a7.966 7.966 0 0 1-.409-.798l-.976.564c.1.136.189.268.266.396.077.127.149.247.214.36L-.899.53l.126 3.814c.003.105.004.195.003.267l-.003.217c.003.069.005.143.002.22-.001.076-.004.174-.009.291l1.154-.667a6.377 6.377 0 0 1-.075-.495 10.446 10.446 0 0 1-.039-.505L.167 2.207l-.044-.578a15.002 15.002 0 0 0-.06-.644c.165.135.318.255.46.359.143.104.311.222.502.356l1.165.823.227.16c.067.047.133.095.197.145l.192.136c.067.048.141.105.223.173l1.106-.639a9.051 9.051 0 0 1-.461-.24l-.191-.106a2.958 2.958 0 0 1-.221-.14Z" style="fill:#2350a9;fill-opacity:1;fill-rule:nonzero;stroke:none" transform="matrix(1.47367 0 0 -1.47367 144.592 61.506)"/><path d="M0 0a.657.657 0 0 0-.459-.261.676.676 0 0 0-.506.16.637.637 0 0 0-.257.451.69.69 0 0 0 .165.497.673.673 0 0 0 .453.266c.176.022.347-.034.513-.167A.627.627 0 0 0 .155.498.665.665 0 0 0 0 0" style="fill:#2350a9;fill-opacity:1;fill-rule:nonzero;stroke:none" transform="matrix(1.47367 0 0 -1.47367 154.384 67.275)"/><path d="M0 0c.175-.201.363-.372.565-.514.204-.14.408-.238.615-.291.202-.057.403-.069.602-.037.2.033.385.123.555.271.16.138.271.303.334.495a1.4 1.4 0 0 1 .059.604 2.033 2.033 0 0 1-.191.664 2.764 2.764 0 0 1-.425.643 2.685 2.685 0 0 1-.579.508 2.295 2.295 0 0 1-.628.286c-.211.05-.414.056-.61.017a1.111 1.111 0 0 1-.527-.258 1.12 1.12 0 0 1-.346-.511 1.466 1.466 0 0 1-.056-.607C-.6 1.057-.529.841-.42.623-.311.404-.171.197 0 0m-2.27-1.295L-.945-.146c-.469.653-.688 1.275-.657 1.868.032.591.264 1.077.7 1.454.233.203.499.34.798.411.299.071.613.075.939.014.321-.066.648-.2.979-.402.332-.201.645-.471.939-.81.298-.343.52-.694.67-1.05.148-.356.23-.7.245-1.031a2.155 2.155 0 0 0-.146-.915 1.83 1.83 0 0 0-.511-.727c-.436-.378-.949-.541-1.543-.49-.593.051-1.178.352-1.752.904l-1.319-1.143 1.251-1.443c.155-.178.308-.352.459-.521.151-.17.311-.338.48-.506l-.7-.608a10.74 10.74 0 0 1-.432.547c-.146.174-.298.35-.452.528L-4.16-.42c-.154.179-.308.353-.459.523-.152.168-.312.337-.48.503l.701.608c.14-.191.285-.372.431-.546.147-.174.297-.35.452-.528Z" style="fill:#2350a9;fill-opacity:1;fill-rule:nonzero;stroke:none" transform="matrix(1.47367 0 0 -1.47367 163.323 75.668)"/><path d="m0 0 .18-.337c.051-.096.106-.196.167-.302.059-.105.123-.202.19-.29l-.809-.432c-.036.104-.08.21-.133.315a10.96 10.96 0 0 1-.153.295l-.188.353-1.651-.882a28.869 28.869 0 0 1-.407-.223 4.682 4.682 0 0 1-.385-.242l-.498.93c.143.054.282.116.418.181.137.067.275.137.414.211L.784 1.521c.133.072.266.146.397.223.13.077.26.16.391.25l.497-.93a4.299 4.299 0 0 1-.423-.19c-.136-.068-.27-.139-.404-.21Zm-.707 3.848-.112-.06a2.114 2.114 0 0 1-.654-.54 2.917 2.917 0 0 1-.429-.729 2.925 2.925 0 0 1-.217-.859c-.03-.297-.026-.58.015-.847l-.244.061A5.12 5.12 0 0 1-2.6.93c-.087.022-.169.04-.245.054l-.204.036c-.014.178-.013.369.002.573.016.203.046.41.092.62.042.229.102.456.183.681.079.223.178.422.298.597a2.29 2.29 0 0 0-.638.009 3.708 3.708 0 0 0-.692.166c-.23.083-.452.176-.665.279a4.647 4.647 0 0 0-.559.314 50.935 50.935 0 0 1 .213 1.011c.262-.197.546-.369.851-.514.305-.147.616-.248.936-.304.28-.05.565-.058.854-.028.289.031.572.121.851.269l.128.069a8.61 8.61 0 0 1 .828.494l.531-.994a7.26 7.26 0 0 1-.445-.198 10.799 10.799 0 0 1-.426-.216m-6.782-1.79 1.667.89.302.167c.106.06.203.123.291.192l.509-.954a2.646 2.646 0 0 1-.315-.133 9.636 9.636 0 0 1-.295-.153l-.93-.497 1.675-3.133c.068-.129.147-.271.233-.427.087-.156.184-.316.291-.479l-.817-.436a7.78 7.78 0 0 1-.235.508c-.082.159-.158.302-.226.43z" style="fill:#2350a9;fill-opacity:1;fill-rule:nonzero;stroke:none" transform="matrix(1.47367 0 0 -1.47367 176.564 91.917)"/><path d="M0 0c.146.04.294.083.445.131.151.047.299.099.447.158l.583-2.148.087-.326c.03-.104.068-.213.118-.326l-.86-.233c-.01.06-.021.119-.033.175-.013.056-.022.112-.031.166l-.044.162c-.016.055-.03.11-.044.162L.347-.895l-3.782-1.026.219-.769a4.55 4.55 0 0 1 .135-.411c.056-.145.111-.289.169-.43.056-.135.107-.259.157-.371.049-.113.088-.2.117-.26l-.824-.225a3.366 3.366 0 0 0-.163.342 17.9 17.9 0 0 0-.387 1.025 9.667 9.667 0 0 0-.158.513 4.034 4.034 0 0 0-.09.296 242.614 242.614 0 0 1-.266.982zm-.004-4.775.232-.851 1.456.395c.193.052.386.108.581.168.194.058.388.124.582.195l.266-.983a8.827 8.827 0 0 1-.599-.129c-.198-.05-.392-.102-.585-.155l-5.483-1.488a36.619 36.619 0 0 1-.591-.165 8.025 8.025 0 0 1-.574-.189l-.267.983c.198.034.395.076.593.123.198.048.396.098.594.152l3.079.835-.231.852-2.719-.739a71.6 71.6 0 0 1-.592-.161 6.228 6.228 0 0 1-.576-.184l-.262.965c.196.041.393.085.59.131.198.048.396.099.595.153l4.982 1.352a23.364 23.364 0 0 1 1.165.354l.263-.965a6.852 6.852 0 0 1-.599-.134l-.584-.158Z" style="fill:#2350a9;fill-opacity:1;fill-rule:nonzero;stroke:none" transform="matrix(1.47367 0 0 -1.47367 180.865 99.178)"/><path d="m0 0-.053 1.299-.007.154-.005.154a2.42 2.42 0 0 1-.032.299l.79.033a3.173 3.173 0 0 1-.005-.305L.7 1.33.754.031l.013-.3c.004-.096.013-.199.03-.307l-.79-.032A10.67 10.67 0 0 1 0 0m-1.22-1.087-.136 3.333a13.25 13.25 0 0 1-.02.363 3.132 3.132 0 0 1-.047.353l.836.034A2.58 2.58 0 0 1-.6 2.641l.015-.364.138-3.332.014-.354c.004-.11.019-.23.042-.362l-.836-.035c.013.134.019.255.018.365-.002.109-.005.227-.011.354m-1.775 2.692c-.199-.008-.348-.12-.445-.336-.098-.216-.14-.479-.127-.788.013-.321.077-.579.191-.774.114-.196.272-.289.471-.281.2.009.346.116.441.323.095.207.136.468.123.782-.013.309-.077.568-.191.775-.115.208-.269.307-.463.299m-.051 1.026a.963.963 0 0 0 .533-.133c.167-.096.313-.238.436-.428.129-.182.231-.402.309-.66.078-.258.122-.544.135-.858.028-.648-.077-1.166-.313-1.555s-.541-.591-.916-.606c-.382-.016-.707.166-.978.547-.27.379-.419.887-.445 1.523-.012.296.01.575.065.835.057.26.141.486.255.679.112.199.247.356.403.471a.912.912 0 0 0 .516.185m1.78-6.14.017-.381a9.13 9.13 0 0 1 .019-.344c.007-.121.023-.237.045-.344l-.971-.04c.013.109.019.223.017.342l-.008.331-.017.399-2.189-.09-.04.972 4.295.177c.152.007.303.015.454.028.151.012.305.03.462.055l.043-1.053a4.867 4.867 0 0 1-.465.013 17.348 17.348 0 0 1-.454-.015Zm-5.175-.213a10.73 10.73 0 0 1-.427-.026 4.364 4.364 0 0 1-.416-.054l-.045 1.09c.128-.013.267-.017.419-.015.151.003.294.008.427.013l.918.038-.147 3.551c-.008.182-.016.348-.025.499a6.518 6.518 0 0 1-.052.498l.89.037a5.04 5.04 0 0 1-.007-.501l.02-.499.19-4.596c-.122.014-.24.02-.351.018a9.921 9.921 0 0 1-.341-.01z" style="fill:#2350a9;fill-opacity:1;fill-rule:nonzero;stroke:none" transform="matrix(1.47367 0 0 -1.47367 185.774 119.918)"/><path d="M0 0c.035.19.065.362.09.515.025.152.046.323.061.51L1.055.86a6.143 6.143 0 0 1-.124-.5 16.612 16.612 0 0 1-.099-.512L-.06-5.007c-.377.088-.767.181-1.168.279-.401.098-.803.204-1.208.314-.404.117-.8.238-1.19.362-.391.124-.761.252-1.112.384l.175.957c.3-.11.617-.22.952-.327.335-.108.668-.211 1.002-.309a45.266 45.266 0 0 1 1.907-.479zm-5.775-3.376a45.66 45.66 0 0 1-.121-.685 9.78 9.78 0 0 1-.094-.689l-.912.167c.06.229.112.455.156.679.045.222.088.45.13.682l.87 4.739c.042.232.083.46.121.684.038.224.069.454.094.69l.912-.167c-.061-.23-.113-.455-.157-.679-.044-.223-.087-.45-.13-.683l-.051-.277L-2.91.709c.126-.022.257-.045.394-.067.138-.022.271-.037.4-.041l-.191-1.038a2.872 2.872 0 0 1-.392.105c-.146.03-.275.056-.388.076l-2.047.375-.174-.947 2.047-.376c.125-.023.257-.045.395-.067.137-.022.27-.037.398-.041l-.191-1.046c-.116.04-.247.075-.393.104-.145.03-.274.055-.387.076l-2.047.375z" style="fill:#2350a9;fill-opacity:1;fill-rule:nonzero;stroke:none" transform="matrix(1.47367 0 0 -1.47367 184.277 135.09)"/><path d="M0 0a1.948 1.948 0 0 0-1.307-.878c-.29-.05-.6-.04-.93.031a3.215 3.215 0 0 0-1.025.437 4.593 4.593 0 0 0-.466.333 3.61 3.61 0 0 0-.41.389 3.213 3.213 0 0 0-.626.863l.704.438c.081-.153.166-.298.256-.431.09-.135.189-.256.298-.366a2.28 2.28 0 0 1 .315-.314 3.32 3.32 0 0 1 .373-.27c.19-.119.374-.205.548-.256.176-.053.343-.071.503-.055a.897.897 0 0 1 .419.146 1.14 1.14 0 0 1 .467.689.935.935 0 0 1-.004.361 1.494 1.494 0 0 1-.162.377c-.076.13-.173.262-.293.399l-.499.557c-.18.201-.325.4-.434.595a1.696 1.696 0 0 0-.211.577c-.039.188-.039.373.001.556.039.183.117.368.233.553.142.226.318.41.53.553.212.143.448.236.706.278.254.046.522.039.804-.022.282-.061.565-.181.849-.358a4.365 4.365 0 0 0 .862-.714c.119-.136.224-.277.313-.421.09-.145.168-.289.235-.434l-.711-.351c-.071.146-.147.28-.225.401-.077.12-.16.232-.246.333-.094.1-.19.192-.29.278a2.47 2.47 0 0 1-.318.236 1.665 1.665 0 0 1-.451.201.99.99 0 0 1-.789-.109.935.935 0 0 1-.286-.291.773.773 0 0 1-.121-.333.75.75 0 0 1 .039-.322c.034-.109.084-.216.153-.32.067-.104.146-.204.235-.301l.581-.639a3.24 3.24 0 0 0 .434-.605 2.07 2.07 0 0 0 .22-.603A1.59 1.59 0 0 0 .249.585 1.904 1.904 0 0 0 0 0" style="fill:#2350a9;fill-opacity:1;fill-rule:nonzero;stroke:none" transform="matrix(1.47367 0 0 -1.47367 70.332 189.934)"/><path d="M0 0a.695.695 0 0 0-.388-.355.622.622 0 0 0-.525.017.653.653 0 0 0-.36.4.697.697 0 0 0 .041.534A.66.66 0 0 0-.33.91.694.694 0 0 0 .024.527.625.625 0 0 0 0 0m-1.249-2.09-1.314-2.722a8.972 8.972 0 0 1-.185-.403 6.068 6.068 0 0 1-.161-.413l-.929.448.22.385c.068.121.136.252.204.393L-2.1-1.68c.068.141.127.274.179.4.051.126.106.261.163.407l.928-.448a7.17 7.17 0 0 1-.419-.769" style="fill:#2350a9;fill-opacity:1;fill-rule:nonzero;stroke:none" transform="matrix(1.47367 0 0 -1.47367 78.495 186.847)"/><path d="m0 0-.856-2.398a9.879 9.879 0 0 1-.141-.419 5.805 5.805 0 0 1-.116-.428l-.963.345.178.405c.054.128.108.265.16.412L-.916.218c.041.113.065.223.072.328a.809.809 0 0 1-.028.281.678.678 0 0 1-.158.227.777.777 0 0 1-.267.155c-.175.062-.383.062-.626-.001a1.9 1.9 0 0 1-.666-.319l-.846-2.366a10.298 10.298 0 0 1-.14-.419 6.478 6.478 0 0 1-.116-.427l-.939.335c.064.143.123.278.178.406.055.128.108.265.161.411l1.003 2.807c.025.07.048.142.067.215l.06.217.06.223.065.23.897-.321a9.31 9.31 0 0 1-.138-.337 7.694 7.694 0 0 1-.128-.331c.128.083.262.157.406.223.143.065.288.114.435.147.139.031.281.044.423.042.144-.002.282-.026.412-.073.173-.062.326-.148.455-.259.128-.111.23-.244.303-.398.066-.159.1-.34.101-.542A1.974 1.974 0 0 0 0 0" style="fill:#2350a9;fill-opacity:1;fill-rule:nonzero;stroke:none" transform="matrix(1.47367 0 0 -1.47367 85.494 194.166)"/><path d="M0 0a2.363 2.363 0 0 0-.376-.195 1.647 1.647 0 0 0-.383-.106 2.249 2.249 0 0 0-.845.029 2.21 2.21 0 0 0-.828.352 1.588 1.588 0 0 0-.511.611 2.057 2.057 0 0 0-.212.841 3.89 3.89 0 0 0 .101 1.056c.08.361.204.685.372.974.168.288.37.527.608.716.223.181.477.308.76.382.282.072.579.075.888.006.118-.026.232-.063.339-.111.108-.048.212-.1.312-.159.091-.067.181-.141.269-.223.088-.082.166-.172.234-.27L.13 3.415a1.421 1.421 0 0 1-.325.313 1.16 1.16 0 0 1-.4.177.981.981 0 0 1-.504-.008.822.822 0 0 1-.392-.272 1.975 1.975 0 0 1-.318-.546 5.14 5.14 0 0 1-.24-.803c-.06-.27-.094-.51-.098-.719a1.515 1.515 0 0 1 .074-.545.777.777 0 0 1 .247-.383c.118-.098.269-.167.456-.208.18-.04.358-.042.535-.004.178.037.352.108.523.212z" style="fill:#2350a9;fill-opacity:1;fill-rule:nonzero;stroke:none" transform="matrix(1.47367 0 0 -1.47367 93.406 200.593)"/><path d="M0 0c.02.195.017.379-.01.55A1.415 1.415 0 0 1-.151 1a.963.963 0 0 1-.278.311.818.818 0 0 1-.399.14 1.01 1.01 0 0 1-.444-.042.789.789 0 0 1-.332-.219 1.21 1.21 0 0 1-.237-.406A2.5 2.5 0 0 1-1.966.2Zm-2.044-.488-.013-.121a2.322 2.322 0 0 1 .014-.637c.034-.184.1-.339.197-.465a.926.926 0 0 1 .366-.307c.151-.073.336-.121.555-.143.236-.024.454-.011.656.038.204.049.401.137.593.262l.314-.598a2.59 2.59 0 0 0-.834-.368 2.703 2.703 0 0 0-.925-.063 2.246 2.246 0 0 0-.933.286c-.26.155-.468.353-.624.595-.166.243-.28.524-.341.84-.06.316-.073.656-.036 1.018.038.374.121.711.251 1.011.129.3.297.553.504.758.195.201.424.351.69.448.265.098.549.132.854.101.317-.032.59-.115.819-.249a1.63 1.63 0 0 0 .564-.544C.765 1.133.859.848.91.518.961.187.965-.19.921-.615L.903-.788Z" style="fill:#2350a9;fill-opacity:1;fill-rule:nonzero;stroke:none" transform="matrix(1.47367 0 0 -1.47367 101.579 198.12)"/><path d="M0 0a13.19 13.19 0 0 1-.082 1.176l-.44 4.126a5.287 5.287 0 0 0-.244-.209 2.929 2.929 0 0 0-.255-.184 9.328 9.328 0 0 0-.276-.181 2.805 2.805 0 0 0-.296-.167l-.356.563c.121.06.252.14.391.242.141.102.283.219.425.35.139.12.275.249.407.388.134.139.256.284.368.435l.655.07.568-5.332C.887 1.082.908.89.932.7.955.511.988.314 1.034.11Z" style="fill:#2350a9;fill-opacity:1;fill-rule:nonzero;stroke:none" transform="matrix(1.47367 0 0 -1.47367 115.628 202.188)"/><path d="M0 0c0 .215-.014.395-.041.539a3.479 3.479 0 0 1-.14.506 2.105 2.105 0 0 1-.258.484c-.105.144-.22.262-.344.357a1.281 1.281 0 0 1-.432.173c-.153.03-.314.024-.482-.018a1.124 1.124 0 0 1-.725-.565 1.307 1.307 0 0 1-.147-.519c-.017-.195.004-.41.062-.645a1.78 1.78 0 0 1 .216-.522c.095-.152.209-.274.346-.365a.975.975 0 0 1 .428-.196c.16-.032.337-.023.534.026.184.046.359.13.522.251.163.121.316.286.461.494m-1.56-4.729-.592.441c.282.16.548.359.798.597s.472.512.668.824c.194.298.356.621.486.969.131.348.215.709.253 1.081a2.264 2.264 0 0 0-1.1-.712 1.927 1.927 0 0 0-.816-.038 1.943 1.943 0 0 0-1.26.827c-.155.226-.27.488-.344.785a2.226 2.226 0 0 0-.047.886c.044.288.14.554.287.799.144.233.337.439.578.618.241.179.512.306.815.382a2.036 2.036 0 0 0 1.717-.294 2.32 2.32 0 0 0 .613-.668c.17-.274.301-.595.393-.965.131-.521.163-1.05.097-1.587a5.22 5.22 0 0 0-.425-1.531 6.033 6.033 0 0 0-.885-1.373A4.964 4.964 0 0 0-1.56-4.729" style="fill:#2350a9;fill-opacity:1;fill-rule:nonzero;stroke:none" transform="matrix(1.47367 0 0 -1.47367 127.2 194.807)"/><path d="M0 0a4.301 4.301 0 0 0-.378-.199 6.386 6.386 0 0 0-.366-.157l-1.293-.523a14.421 14.421 0 0 1-.446-.19 6.142 6.142 0 0 1-.389-.195l-.221.893a8.954 8.954 0 0 1 .836.29L.554 1.056.744.17a22.14 22.14 0 0 1-.315-1.566A15.7 15.7 0 0 1 .25-2.955a15.292 15.292 0 0 1 .001-1.588c.028-.524.095-1.055.2-1.592l-.964-.389A9.762 9.762 0 0 0-.61-5.451c-.019.416-.019.855 0 1.317.015.455.046.912.09 1.373.044.46.104.883.179 1.268.04.24.091.5.154.777C-.126-.438-.063-.2 0 0" style="fill:#2350a9;fill-opacity:1;fill-rule:nonzero;stroke:none" transform="matrix(1.47367 0 0 -1.47367 135.783 188.49)"/><path d="M0 0a3.005 3.005 0 0 1-.187.507A3.776 3.776 0 0 1-.46.954a2.122 2.122 0 0 1-.383.396 1.69 1.69 0 0 1-.428.248 1.249 1.249 0 0 1-.462.048 1.102 1.102 0 0 1-.459-.149 1.13 1.13 0 0 1-.542-.743 1.305 1.305 0 0 1 .001-.539c.037-.192.116-.393.237-.603.1-.175.218-.323.35-.443.132-.12.277-.206.432-.256a.99.99 0 0 1 .467-.071c.162.012.33.07.506.171.165.095.309.223.432.384.124.162.227.363.309.603m-.203-4.977-.692.263c.228.231.429.495.604.792.176.298.314.623.418.976.104.34.171.695.201 1.065.03.371.012.74-.054 1.11a2.252 2.252 0 0 0-.861-.987 1.972 1.972 0 0 0-.774-.262 1.836 1.836 0 0 0-.76.079 1.925 1.925 0 0 0-.68.373 2.417 2.417 0 0 0-.546.66A2.192 2.192 0 0 0-3.578.778c.075.263.204.514.387.753.182.239.409.436.678.591.291.167.583.264.878.29.295.026.579-.008.854-.102.278-.1.536-.258.773-.475a3.38 3.38 0 0 0 .643-.819c.267-.466.444-.966.529-1.5a5.228 5.228 0 0 0 .01-1.589 5.98 5.98 0 0 0-.475-1.564 4.986 4.986 0 0 0-.902-1.34" style="fill:#2350a9;fill-opacity:1;fill-rule:nonzero;stroke:none" transform="matrix(1.47367 0 0 -1.47367 145.78 186.807)"/><path d="M0 0a1.662 1.662 0 1 0-3.324 0A1.662 1.662 0 0 0 0 0" style="fill:#2350a9;fill-opacity:1;fill-rule:nonzero;stroke:none" transform="matrix(1.47367 0 0 -1.47367 42.307 155.655)"/><path d="M0 0a1.663 1.663 0 1 0-3.325.001A1.663 1.663 0 0 0 0 0" style="fill:#2350a9;fill-opacity:1;fill-rule:nonzero;stroke:none" transform="matrix(1.47367 0 0 -1.47367 178.09 155.655)"/></g></svg>