<svg xmlns="http://www.w3.org/2000/svg" xml:space="preserve" width="800" height="800" viewBox="0 0 799.99998 799.99998"><defs><clipPath id="a" clipPathUnits="userSpaceOnUse"><path d="M384.803 457.508c0-32.093 26.017-58.111 58.11-58.111 32.094 0 58.111 26.018 58.111 58.111 0 32.094-26.017 58.11-58.111 58.11-32.093 0-58.11-26.016-58.11-58.11"/></clipPath></defs><g clip-path="url(#a)" transform="matrix(6.88344 0 0 -6.88344 -2648.767 3549.224)"><path d="M384.803 457.508c0-32.093 26.017-58.111 58.11-58.111 32.094 0 58.111 26.018 58.111 58.111 0 32.094-26.017 58.11-58.111 58.11-32.093 0-58.11-26.016-58.11-58.11" style="fill:#fff;fill-opacity:1;stroke:none"/></g><path d="m0 0-.405.136-.784-1.879.297-.124C-.218-2.149.294-2.008.59-1.3.838-.705.611-.255 0 0" style="fill:#002843;fill-opacity:1;fill-rule:nonzero;stroke:none" transform="matrix(6.88338 0 0 -6.88338 272.37 700.614)"/><path d="m0 0-.347-.249 1.06-1.737.275.168c.624.383.809.881.409 1.535C1.061.267.564.346 0 0" style="fill:#002843;fill-opacity:1;fill-rule:nonzero;stroke:none" transform="matrix(6.88338 0 0 -6.88338 570.214 679.546)"/><path d="M0 0c-.945-.446-.866-1.596-.396-2.596.582-1.241 1.675-1.89 2.503-1.5.991.467.828 1.634.358 2.634C1.856-.166.834.394 0 0" style="fill:#002843;fill-opacity:1;fill-rule:nonzero;stroke:none" transform="matrix(6.88338 0 0 -6.88338 539.618 695.447)"/><path d="m0 0-.002.018-2.124.386.151-1.273z" style="fill:#002843;fill-opacity:1;fill-rule:nonzero;stroke:none" transform="matrix(6.88338 0 0 -6.88338 72.007 437.299)"/><path d="M0 0c.369-.064.696.036.99.302.29.266.47.599.541.995.071.398.016.773-.161 1.129-.18.357-.453.567-.821.63-.344.063-.668-.039-.972-.299a1.676 1.676 0 0 1-.559-.998A1.749 1.749 0 0 1-.815.63C-.634.273-.362.066 0 0" style="fill:#002843;fill-opacity:1;fill-rule:nonzero;stroke:none" transform="matrix(6.88338 0 0 -6.88338 450.377 70.033)"/><path d="M0 0c-1.04-.088-1.367-1.194-1.274-2.296.114-1.366.912-2.357 1.822-2.279 1.092.091 1.346 1.242 1.253 2.344C1.682-.803.918.077 0 0" style="fill:#002843;fill-opacity:1;fill-rule:nonzero;stroke:none" transform="matrix(6.88338 0 0 -6.88338 428.181 725.186)"/><path d="M0 0c.262-.1.51-.084.743.04a.88.88 0 0 1 .445.601c.066.273.026.543-.12.809a1.11 1.11 0 0 1-.609.541.867.867 0 0 1-.746-.044.848.848 0 0 1-.441-.597A1.13 1.13 0 0 1-.607.544C-.463.278-.262.099 0 0" style="fill:#002843;fill-opacity:1;fill-rule:nonzero;stroke:none" transform="matrix(6.88338 0 0 -6.88338 227.51 101.25)"/><path d="M0 0c.285-.193.577-.375.869-.558v8.121a41.251 41.251 0 0 0-3.363 1.343A42.408 42.408 0 0 1 0 0" style="fill:#002843;fill-opacity:1;fill-rule:nonzero;stroke:none" transform="matrix(6.88338 0 0 -6.88338 281.194 578.028)"/><path d="M0 0a40.676 40.676 0 0 1 3.553-1.455V8.37A30.383 30.383 0 0 0-.192 9.93 43.73 43.73 0 0 1 0 0" style="fill:#002843;fill-opacity:1;fill-rule:nonzero;stroke:none" transform="matrix(6.88338 0 0 -6.88338 262.717 507.504)"/><path d="M0 0a30.854 30.854 0 0 1 5.19 18.884c-.788-2.265-1.921-4.533-3.352-6.711C1.852 8.318 1.234 4.253 0 0" style="fill:#002843;fill-opacity:1;fill-rule:nonzero;stroke:none" transform="matrix(6.88338 0 0 -6.88338 578.113 519.83)"/><path d="M0 0c.009-.115.01-.23.021-.345l-.229-.021a31.09 31.09 0 0 1 9.753-12.845 43.76 43.76 0 0 0-2.062 8.276C4.593-3.515 2.065-1.833 0 0" style="fill:#002843;fill-opacity:1;fill-rule:nonzero;stroke:none" transform="matrix(6.88338 0 0 -6.88338 204.363 478.965)"/><path d="M0 0c-.839 1.232-1.565 2.655-2.159 4.292a30.772 30.772 0 0 1-3.493-9.925 28.594 28.594 0 0 1 2.188-2.953A37.3 37.3 0 0 0 0 0" style="fill:#002843;fill-opacity:1;fill-rule:nonzero;stroke:none" transform="matrix(6.88338 0 0 -6.88338 229.18 326.687)"/><path d="M0 0a31.375 31.375 0 0 1-.211-3.568c0-2.922.413-5.745 1.169-8.425a6.6 6.6 0 0 1 .115-.127A40.348 40.348 0 0 0 2.11-2.625 29.32 29.32 0 0 0 0 0" style="fill:#002843;fill-opacity:1;fill-rule:nonzero;stroke:none" transform="matrix(6.88338 0 0 -6.88338 188.693 376.597)"/><path d="M0 0c-31.314 0-56.694-25.383-56.694-56.694 0-31.309 25.38-56.692 56.694-56.692 31.31 0 56.692 25.383 56.692 56.692C56.692-25.383 31.31 0 0 0m51.091-53.213c.817.03 1.423-.592 1.457-1.489a2.175 2.175 0 0 0-.236-1.091l-1.077-.171-.008.2c.709.201 1.076.485 1.053 1.121-.025.671-.562.808-.879.796-.418-.015-.677-.226-1.012-.823-.546-.98-.924-1.248-1.721-1.278-.694-.026-1.346.464-1.374 1.222-.013.332.064.744.064 1.031l.997.118.006-.184c-.404-.111-.825-.319-.804-.894.017-.453.376-.745.845-.727.49.018.678.156 1.128 1.011.495.943.918 1.134 1.561 1.158m-3.634 19.165 2.288-5.62.008-.076-.06-.042-2.433-.99c-.557-.226-1.02-.377-1.387-.448a2.903 2.903 0 0 0-1.044-.023l-.401.987a2.852 2.852 0 0 1 1.079.057c.381.089.855.254 1.426.493l1.514.617.112.085-.023.145-1.833 4.508zm-2.902-2.419c.331.137.496.394.653.763l.571-1.404-3.087-1.256.324-.795 2.26.919c.325.131.503.406.652.762l.571-1.404-3.086-1.255 1.107-2.721-.762-.308-2.992 7.352.761.308.766-1.88zm-4.141 12.564c.288.251.352.593.382 1.056l1.07-1.221-1.287-1.132.777-.883-.679-.595-.776.883-1.694-1.49-.713.814zm-4.978 2.956c.149.131.312.234.491.305.176.072.359.114.549.128.002-.004-.214.243-.658.746l.606.53 1.34-1.526.098.087c.232.203.412.471.438.876l1.007-1.147-.779-.684 1.352-1.539-.602-.531-.668.76a1.911 1.911 0 0 0-.198-.529 1.79 1.79 0 0 0-.366-.446 1.74 1.74 0 0 0-1.371-.431 1.982 1.982 0 0 0-1.331.688 1.978 1.978 0 0 0-.51 1.411c.017.53.219.965.602 1.302m-1.315-2.236 3.696-4.207.049-.13-.067-.123-2.17-1.908-.745.848 1.627 1.43.037.063-.027.064-3.01 3.426zM20.834-12.989l1.473 2.624c.183.325.156.782.043 1.184l3.276-1.84-.397-.708-1.85 1.039-1.656-2.944-.021-.144.084-.098 1.504-.845c.226-.126.421-.218.592-.282.17-.059.321-.095.452-.107l1.912 3.406c.126.223.187.573.055 1.039l1.299-.729-1.281-2.284.597-.335.825 1.468c.127.232.188.576.056 1.041l1.299-.728-4.067-7.244-.897.504 2.387 4.251-.597.334-2.388-4.25-.897.504 1.298 2.314a2.27 2.27 0 0 0-.581.173c-.207.089-.468.22-.777.393l-1.346.756c-.315.18-.507.39-.576.635-.069.247-.009.536.179.873M5.243-6.803c.112.634.437 1.134.975 1.5a2.328 2.328 0 0 0 1.785.377 2.351 2.351 0 0 0 1.449-.832c.373-.452.55-.959.539-1.527l1.207-.212.275 1.554c.068.385-.078.723-.353 1.117l1.593-.281-1.447-8.179-1.058.187.849 4.801-1.229.217A2.253 2.253 0 0 0 8.793-9.25a2.34 2.34 0 0 0-1.6-.263 2.346 2.346 0 0 0-1.55.966 2.22 2.22 0 0 0-.4 1.744M-6.026-5.758l-.077.464-.058.126-.148.013-4.918-.797-.132.804 6.107.988.069-.012.036-.072.232-1.435c.062-.381.083-.664.065-.849a1.38 1.38 0 0 0-.155-.518l1.125.181.127-.802-3.324-.538.217-1.339 2.342.381.073-.011.031-.063.462-2.852-1.112-.181-.333 2.051-.033.063-.069.011-4.77-.771-.128.801 2.342.379-.217 1.338-3.333-.541-.128.804 5.667.916c.084.191.128.393.127.612a5.887 5.887 0 0 1-.087.849m-16.089-2.735 3.945-7.31-.955-.513-1.096 2.035a1.588 1.588 0 0 0-.467-.515 8.465 8.465 0 0 0-.896-.539l-3.75-2.024-.385.717 2.089 1.126c-.203.378-.457.658-.959.806l1.361.733.551-1.026 1.026.554c.314.169.546.324.697.469.151.142.266.286.339.429L-22.6-9.876c-.161.297-.518.484-.944.612zm-4.624-3.305c.174.512.509.9 1.007 1.17a2.045 2.045 0 0 0 1.532.2 1.76 1.76 0 0 0 1.163-.899c.252-.467.289-.957.114-1.467-.173-.515-.511-.902-1.009-1.171-.5-.271-1.009-.336-1.529-.199a1.763 1.763 0 0 0-1.159.902c-.252.468-.29.954-.119 1.464m-10.039-7.15.061.036.073-.036 1.076-.977c.287-.257.48-.463.582-.62.103-.156.17-.324.204-.501l.765.844.602-.546-2.26-2.496 1.006-.909 1.592 1.761.061.034.066-.028 2.142-1.938-.756-.837-1.542 1.393-.063.029-.063-.037-3.241-3.581-.6.546 1.59 1.761-1.004.908-2.265-2.505-.602.545 3.852 4.259a1.439 1.439 0 0 1-.283.554 5.627 5.627 0 0 1-.601.612l-.347.314-.123.063-.124-.082-3.348-3.697-.6.545zm-2.966-17.149-1.792-4.192c-.097-.228-.222-.372-.377-.438-.154-.064-.349-.047-.582.052l-.949.408c-.325.136-.715.012-1.073-.132l.65 1.518 1.61-.686.103-.007.075.077 1.589 3.72zm-7.59 3.145 2.077-.884.462 1.077.746-.319-.462-1.079 2.659-1.136-.428-.996-4.581 1.958c-.332.142-.721.043-1.11-.113zm-1.61-3.65c.52-.224.853-.364.996-.427l.807 1.884.739-.314-.402-.939c.195.056.397.077.604.068.208-.012.409-.058.603-.141.476-.204.807-.56.996-1.07a1.993 1.993 0 0 0-.044-1.527 2 2 0 0 0-1.074-1.087c-.499-.216-.986-.224-1.461-.019a1.707 1.707 0 0 0-.517.338 1.895 1.895 0 0 0-.37.483l-.394-.922-.737.316.798 1.868-.096.039c-.436.186-.699.186-1.047.044zm-3.296-20.654.264-.001c.008-.462.016-.794.731-.798l2.483-.015.021 3.521-2.482.015c-.715.005-.728-.327-.74-.789l-.266.002c.002.419.025.793.028 1.177.002.418-.006.828-.013 1.263l.266-.001c.007-.462.015-.793.73-.798l5.129-.03c.715-.004.726.326.739.789l.266-.002c-.013-.41-.026-.81-.028-1.203-.002-.4.005-.802.013-1.238l-.265.002c-.007.462-.016.793-.731.798l-2.227.013-.022-3.521 2.228-.013c.714-.004.726.327.74.788l.265-.001c-.013-.462-.025-.872-.028-1.29-.002-.375.015-.758.014-1.151l-.266.002c-.007.462-.015.793-.731.798l-5.129.03c-.713.004-.726-.327-.739-.789l-.266.002c.013.392.025.784.028 1.176.002.41-.005.811-.012 1.264m.553-6.902a31.23 31.23 0 0 1-.137.967l.264.032.013-.104c.026-.217.123-.424.295-.404l.327.11.985.442-.175 1.472-.682.111c-.135.019-.494.09-.677.069-.242-.03-.25-.32-.23-.484l.013-.104-.264-.032c-.025.295-.05.591-.086.885-.026.225-.066.475-.104.707l.263.031c.053-.44.282-.545.503-.588l3.85-.794.345-.047.14.034.374-.63-4.147-1.815c-.45-.193-.566-.339-.511-.798l-.264-.031c-.029.33-.057.651-.095.971m.988-5.639 3.27 3.77-2.659-.608c-.717-.164-.867-.289-.722-.926l-.259-.059c-.053.282-.117.608-.183.896-.066.289-.142.576-.218.863l.259.059c.159-.696.567-.603 1.284-.439l2.769.634c.449.102.352.617.314.787l.258.059c.037-.206.071-.404.116-.599.041-.179.099-.389.149-.565l-2.974-3.408 2.609.598c.687.157.645.388.543.839l.258.059c.052-.274.11-.574.172-.845.056-.247.128-.516.194-.761l-.259-.059c-.09.4-.153.582-.651.468l-4.223-.967zm1.528-3.64-.251-.086c-.095.308-.204.658-.316.987-.107.313-.227.632-.344.942l.251.086c.133-.387.267-.59.634-.463l3.382 1.161c.367.126.349.369.217.756l.251.087c.098-.317.198-.642.305-.955.113-.33.241-.673.355-.975l-.251-.086c-.132.387-.267.59-.633.464l-3.383-1.161c-.367-.127-.349-.369-.217-.757m.742-2.168-.252-.087c-.044.16-.101.361-.155.518-.064.19-.139.376-.217.571l1.841 2.512 2.152-.8.266-.018.101.209-.062.181.251.087c.072-.243.156-.519.238-.757.082-.239.189-.488.27-.727l-.251-.087c-.167.487-.374.618-2.456 1.404l-1.49-2.179c-.183-.257-.331-.547-.236-.827m.95-3.065c-.471 1.011-.299 1.832.776 2.332l2.547 1.188c.333.156.179.488.08.701l.241.113c.126-.298.263-.617.399-.911.129-.276.274-.564.408-.828l-.241-.113c-.11.237-.238.514-.553.367l-2.52-1.175c-.851-.397-.985-1.007-.703-1.615.514-1.106 1.524-.635 2.449-.203l1.093.508c.927.432.964.546.718 1.076l.241.112c.111-.265.228-.538.348-.799.103-.221.211-.431.324-.647l-.241-.112c-.125.268-.266.452-.869.171l-1.88-.876c-1.066-.497-2.082-.442-2.617.711m2.9-4.635-.228-.138a32.05 32.05 0 0 1-.514.9c-.17.285-.354.571-.532.85l.227.136c.211-.351.384-.521.716-.321l3.067 1.842c.333.201.265.434.055.785l.227.137c.162-.289.327-.586.497-.869.179-.3.376-.609.551-.879l-.229-.137c-.21.35-.383.521-.716.321l-3.067-1.843c-.333-.199-.264-.434-.054-.784m1.235-1.108c-.125-.289-.211-.604-.058-.858l-.228-.137a8.627 8.627 0 0 1-.26.473c-.103.172-.214.34-.331.513l1.278 2.842 2.272-.333.263.037.055.226-.098.165.228.137c.121-.222.26-.475.39-.691.129-.217.285-.438.415-.655l-.228-.137c-.263.442-.494.527-2.694.86zm3.427-6.113c-.927 1.096-.861 2.284.447 3.429l2.845 2.416c.545.463.339.723.049 1.082l.203.171c.256-.318.507-.63.76-.93.259-.307.525-.606.814-.931l-.202-.172c-.306.346-.527.592-1.073.128l-2.65-2.25c-.928-.788-1.604-1.808-.726-2.845.933-1.104 2.021-.363 2.559.094l2.22 1.886c1.279 1.086 1.221 1.106.744 1.717l.202.172c.229-.286.457-.571.694-.851.191-.226.392-.432.584-.658l-.203-.172c-.45.532-.748.267-1.699-.54l-2.244-1.906c-1.06-.9-2.333-1.01-3.324.16m5.473-5.55.586 4.959-1.856-2.001c-.502-.54-.556-.727-.078-1.171l-.18-.196a28.54 28.54 0 0 1-.656.638c-.216.201-.44.395-.663.59l.18.195c.522-.487.808-.179 1.309.36l1.932 2.086c.314.336-.055.708-.182.826l.181.195c.146-.15.285-.294.432-.431.134-.124.3-.264.441-.381l-.546-4.494 1.822 1.965c.479.517.314.684-.023.999l.181.195c.197-.197.412-.413.616-.602.185-.173.396-.355.587-.519l-.18-.196c-.3.28-.453.395-.801.02l-2.949-3.179zm3.225-2.104-.164-.209c-.246.206-.528.441-.802.656-.26.204-.533.405-.8.602l.164.209c.322-.253.545-.349.784-.043l2.206 2.819c.24.306.093.5-.229.752l.164.21c.253-.213.514-.43.775-.635.273-.215.567-.432.827-.624l-.164-.209c-.322.253-.544.35-.784.044l-2.206-2.819c-.24-.306-.093-.5.229-.753m2.203-2.03 1.126 4.521c.099.388.113.502-.228.729l.147.221c.241-.172.496-.354.749-.523.269-.178.542-.347.817-.518l-.148-.221-.173.116c-.167.11-.295.122-.397-.031l-.096-.256-.867-3.342 2.544 1.982c.142.102.255.211.328.322.148.221-.077.37-.331.539l.147.222c.227-.163.467-.335.7-.489.173-.115.374-.237.555-.344l-.148-.222c-.231.154-.312.207-.85-.196l-3.621-2.679zm5.93-3.32c-.547.305-1.087.606-1.639.902-.491.263-.994.521-1.491.774l.127.235c.36-.193.595-.249.778.094l1.687 3.158c.183.343.004.509-.356.701l.125.235c.341-.194.681-.388 1.026-.573.629-.337 1.271-.669 1.897-.992l-.464-.982-.162.087c.236.663.134.787-.656 1.21l-.568.304-.91-1.706.637-.341c.383-.206.557-.287.889.336l.199-.107c-.132-.231-.27-.47-.4-.713-.13-.244-.257-.501-.384-.758l-.2.107c.265.496.195.604-.259.846l-.636.342-.704-1.319c-.207-.388-.1-.631.537-.971.775-.416.891-.327 1.508.109l.192-.104zm5.823 1.576c-.225-.539-.68-.77-1.324-.755.125-2.116.239-2.43.694-2.787l-.102-.246a8.827 8.827 0 0 1-.474.221c-.176.074-.349.135-.529.2-.14.546-.233 1.727-.314 2.704l-.273.093-.265.133-.639-1.53c-.161-.387.068-.516.421-.664l-.102-.245c-.293.133-.626.284-.947.418-.306.128-.623.25-.931.368l.102.245c.377-.157.617-.192.767.167l1.38 3.305c.149.359-.044.506-.422.664l.103.246c.302-.138.61-.278.916-.406.385-.161.93-.367 1.204-.481.666-.28 1.05-.896.735-1.65m3.44-.886c.034.419-.017.886-.563 1.062-.431.138-.827-.099-.971-.548-.149-.469-.085-.694.564-1.407.716-.788.75-1.251.554-1.865-.25-.779-1.041-1.138-1.893-.864a2.152 2.152 0 0 0-.944.593l.207 1.073.19-.061c-.053-.736.089-1.179.693-1.373.638-.205.95.254 1.046.556.128.399.019.714-.427 1.234-.733.848-.855 1.295-.611 2.055.212.663.894 1.11 1.615.879.315-.101.676-.314.946-.412l-.232-.978zm3.478-.172c-.396.098-.639.094-.732-.284l-.854-3.479c-.093-.377.121-.493.518-.591l-.064-.258c-.31.087-.662.184-1 .268-.321.079-.653.15-.976.219l.064.258c.396-.098.639-.094.732.284l.853 3.478c.093.378-.12.494-.517.591l.064.258c.318-.088.645-.179.965-.258.339-.084.696-.161 1.011-.227zm4.256-1.626-.231.039c.056.654.008.787-.343.847l-.859.144-.66-3.916c-.063-.383.158-.483.613-.56l-.046-.262c-.365.073-.725.143-1.069.202-.325.055-.661.101-1.04.155l.044.262c.454-.076.697-.055.761.328l.66 3.916-.652.11c-.523.088-.64.025-.901-.636l-.223.037.345 1.312.171-.029c-.033-.191.157-.275.336-.306l2.737-.462c.197-.034.3-.051.496.165l.171-.029zm4.966.442c-.286.021-.444.012-.85-.522l-1.238-1.642-.135-1.817c-.026-.347.295-.371.677-.399l-.02-.265c-.346.036-.71.073-1.057.099-.355.026-.721.042-1.068.059l.019.264c.434-.031.677-.049.706.349l.115 1.541-1.215 2.318c-.147.246-.28.338-.515.356l.02.265c.278-.031.615-.066.918-.089.321-.024.661-.039.982-.052l-.02-.265c-.164.012-.477.035-.486-.098-.008-.091.033-.146.1-.285l.843-1.694.944 1.315c.105.137.204.283.213.405.011.153-.017.237-.486.273l.02.265c.259-.03.571-.063.831-.082.217-.016.47-.015.721-.033zm1.224 8.083c-.132 0-.261.008-.392.01h-16.101v3.623c-13.438 6.232-22.762 19.834-22.762 35.619 0 15.787 9.324 29.388 22.762 35.62v3.933h35.424v-5.164c12.113-6.683 20.322-19.576 20.322-34.389 0-14.812-8.209-27.704-20.322-34.387v-4.855H.492c-.131-.002-.26-.01-.391-.01m4.472-12.732c-1.43-.121-2.466.88-2.596 2.441-.134 1.601.944 2.698 2.219 2.806 1.404.118 2.416-.926 2.539-2.395.106-1.265-.671-2.727-2.162-2.852m4.544 3.504.804.154c.427.081.612.127.496.74l.222.043c.041-.263.085-.536.136-.808.052-.271.113-.551.176-.831l-.222-.042c-.121.633-.243.672-.748.576l-.802-.154.281-1.478c.101-.533.311-.608.712-.53l.18.035.049-.262c-.335-.054-.695-.112-1.157-.201-.325-.062-.656-.136-.979-.208l-.05.261c.402.077.621.182.549.563l-.671 3.519c-.073.382-.315.398-.716.322l-.05.261c.557.096 1.106.19 1.661.297.804.153 1.306.26 1.8.365l.244-1.099-.17-.033c-.244.673-.432.731-1.192.585l-.915-.175zm8.674 2.202c-.329.633-.411.843-1.135.593l-1.002-.348.811-2.351c.234-.677.549-.578.988-.436l.087-.252c-.415-.133-.796-.254-1.174-.385-.37-.129-.744-.269-1.161-.425l-.087.252c.715.248.727.426.404 1.364l-1.482 4.294c-.274.793-.419.786-1.079.59l-.085.252c.583.202 1.189.39 1.79.599a89.35 89.35 0 0 1 2.23.795l.519-1.348-.176-.104c-.365.794-.804.945-1.7.635l-.97-.337.948-2.747.97.337c.674.233.692.369.561 1.093l.19.066c.046-.19.21-.717.331-1.066.106-.31.28-.758.386-1.014zm4.65-.91c-1.299-.612-2.618-.034-3.283 1.382-.682 1.454-.054 2.858 1.103 3.404 1.275.601 2.589-.024 3.214-1.357.539-1.148.32-2.79-1.034-3.429m6.5 3.786a10.98 10.98 0 0 1-.471-.313c-.525.206-1.533.823-2.372 1.329l-.234-.168-.263-.137.863-1.414c.218-.358.458-.248.784-.047l.138-.228c-.28-.159-.597-.342-.894-.524a30.039 30.039 0 0 1-.842-.541l-.138.228c.348.214.517.389.314.721l-1.865 3.054c-.203.332-.436.261-.785.048l-.138.227c.287.163.582.333.863.506.356.218.844.54 1.096.695.615.377 1.339.329 1.766-.37.303-.497.224-1.001-.165-1.516 1.785-1.137 2.106-1.228 2.661-1.067l.138-.228a9.28 9.28 0 0 1-.456-.255m2.433 1.744c-.446-.334-.893-.683-1.332-1.025l-.159.213c.327.245.479.436.245.747l-2.143 2.866c-.233.311-.458.219-.785-.027l-.16.213c.32.227.64.454.953.689.571.429 1.142.872 1.7 1.303l.691-.836-.146-.11c-.5.494-.655.454-1.372-.084l-.515-.388 1.158-1.547.577.434c.348.261.496.385.073.95l.18.135c.152-.218.312-.444.476-.665.166-.222.345-.445.523-.67l-.18-.135c-.338.45-.465.431-.876.123l-.578-.434.894-1.196c.264-.352.529-.357 1.107.076.703.529.672.671.54 1.416l.174.131.464-1.072c-.507-.367-1.009-.73-1.509-1.107m3.135 2.531a29.423 29.423 0 0 1-.741-.674l-.174.201c.308.269.445.469.19.763l-2.349 2.7c-.255.294-.471.185-.78-.084l-.175.201c.256.21.518.425.768.643.262.229.53.477.767.697l.175-.201c-.309-.269-.445-.47-.19-.763l2.349-2.7c.253-.294.471-.186.779.084l.175-.201a33.14 33.14 0 0 1-.794-.666m3.477 3.117c-.975-1.007-2.488-.909-3.515.089-1.173 1.14-1.162 2.636-.21 3.618.157.163.307.273.635.524l.682.454.921-.798-.133-.138c-.555.236-1.132.493-1.761-.158-.661-.681-.735-1.728.438-2.867.682-.663 1.957-1.271 2.921-.277.151.157.246.343.312.559l-.552.561c-.41.399-.569.456-.987.024l-.19.185c.238.231.512.485.742.723.183.188.385.428.56.622l.191-.185c-.285-.294-.308-.406-.059-.648l.47-.456c.132-.129.242-.235.395-.165l.139-.136c-.207-.419-.508-1.024-.999-1.531m4.583 5.433-4.983.15 2.153-1.677c.581-.453.772-.491 1.171.025l.21-.163a26.505 26.505 0 0 1-.577-.71 24.332 24.332 0 0 1-.528-.714l-.21.163c.438.564.107.822-.473 1.274l-2.242 1.746c-.362.283-.699-.117-.806-.255l-.209.164c.136.158.267.311.39.469.111.144.237.323.341.473l4.515-.15-2.112 1.646c-.556.433-.708.254-.991-.11l-.21.163c.179.213.374.448.545.668.155.199.318.426.465.632l.21-.163c-.252-.324-.353-.488.05-.802l3.419-2.663zm3.219 4.978a2.787 2.787 0 0 0-.954-.992l-1.385.58.098.174c.74-.246 1.629-.187 1.982.444.328.585.104 1.311-.6 1.707-1.656.933-2.429-1.592-4.53-.408-1.149.646-1.353 1.681-.834 2.608.176.312.431.578.655.852l1.208-.521-.098-.174c-.67.267-1.232.123-1.539-.424-.324-.578-.021-1.187.629-1.554 1.656-.931 2.515 1.664 4.563.511 1.157-.652 1.309-1.907.805-2.803m2.011 4.335c-.136-.302-.267-.616-.416-.97l-.241.11c.19.421.23.661-.123.821l-3.61 1.637-.274-.603c-.219-.485-.187-.614.385-1.036l-.093-.207-1.179.669.072.159c.177-.08.306.081.382.248l1.144 2.533c.082.182.126.278-.033.522l.072.159 1.192-.637-.097-.213c-.617.222-.757.208-.905-.117l-.358-.794 3.61-1.637c.354-.161.507.029.697.45l.242-.11a39.845 39.845 0 0 1-.467-.984m2.067 4.88c-.355-1.057-1.043-1.534-2.165-1.155l-2.663.896c-.349.118-.465-.229-.54-.453l-.252.085c.113.303.233.63.336.936.097.289.19.598.274.882l.252-.085c-.083-.248-.18-.537.15-.648l2.633-.887c.89-.3 1.406.05 1.62.687.388 1.157-.667 1.511-1.635 1.838l-1.143.384c-.968.326-1.073.27-1.259-.283l-.252.084a15.297 15.297 0 0 1 .507 1.512l.252-.084c-.094-.281-.117-.513.511-.725l1.966-.661c1.114-.375 1.814-1.116 1.408-2.323m1.417 5.642c-.08-.375-.19-.798-.261-1.129-.081-.384-.149-.762-.221-1.147l-.26.055c.085.4.074.643-.306.723l-3.498.742c-.38.081-.488-.137-.573-.538l-.259.055c.076.314.159.661.235 1.019.092.435.165.874.255 1.301.362 1.714 1.766 2.182 2.915 1.939 1.889-.401 2.235-1.775 1.973-3.02m.771 4.751c-.04-.329-.07-.667-.1-.997l-.263.031c.049.407.016.648-.369.694l-3.55.426c-.385.047-.474-.18-.523-.586l-.264.031c.049.328.1.664.14.993.041.346.075.711.103 1.032l.264-.031c-.049-.407-.016-.648.369-.694l3.55-.427c.386-.046.474.18.522.587l.265-.031a33.628 33.628 0 0 1-.144-1.028m.316 3.727c-.025-.556-.041-1.123-.057-1.681l-.265.012c.019.41-.031.648-.42.665l-3.571.165c-.388.019-.46-.214-.479-.622l-.265.011c.028.392.057.782.075 1.175.032.714.056 1.437.078 2.142l1.084.003-.008-.183c-.699-.072-.767-.218-.808-1.114l-.031-.645 1.93-.089.033.723c.02.435.019.627-.686.66l.01.226c.266-.021.541-.042.816-.056.276-.012.562-.016.848-.021l-.01-.226c-.562.025-.629-.085-.652-.598l-.033-.722 1.49-.07c.438-.02.611.181.645.904.041.879-.089.946-.747 1.317l.011.218 1.119-.322c-.038-.627-.077-1.245-.107-1.872" style="fill:#002843;fill-opacity:1;fill-rule:nonzero;stroke:none" transform="matrix(6.88338 0 0 -6.88338 400.008 9.761)"/><path d="M0 0c.16.122.312.256.475.375v5.747a31.068 31.068 0 0 1-3.796-2.815C-2.496 1.907-1.354.816 0 0" style="fill:#002843;fill-opacity:1;fill-rule:nonzero;stroke:none" transform="matrix(6.88338 0 0 -6.88338 283.902 262.576)"/><path d="M0 0a29.11 29.11 0 0 1 3.61-1.553V9.012c-.441.141-.874.3-1.3.471A41.437 41.437 0 0 1 0 0" style="fill:#002843;fill-opacity:1;fill-rule:nonzero;stroke:none" transform="matrix(6.88338 0 0 -6.88338 262.324 431.169)"/><path d="M0 0a50.97 50.97 0 0 0-2.073-8.945h4.046v-.017A31.259 31.259 0 0 1 6.827-4.3C8.455.335 9.361 4.747 9.534 8.913A36.248 36.248 0 0 0 0 0" style="fill:#002843;fill-opacity:1;fill-rule:nonzero;stroke:none" transform="matrix(6.88338 0 0 -6.88338 517.43 508.46)"/><path d="M0 0c-2.054.981-3.892 2.373-5.421 4.295-1.439-2.656-2.545-5.559-3.298-8.603a27.222 27.222 0 0 1 6.39-5.044A42.536 42.536 0 0 0 0 0" style="fill:#002843;fill-opacity:1;fill-rule:nonzero;stroke:none" transform="matrix(6.88338 0 0 -6.88338 271.382 362.888)"/><path d="M0 0v2.457A37.812 37.812 0 0 1-.919.342C-.617.22-.311.106 0 0" style="fill:#002843;fill-opacity:1;fill-rule:nonzero;stroke:none" transform="matrix(6.88338 0 0 -6.88338 287.173 361.524)"/><path d="M0 0a14.115 14.115 0 0 1 5.229-4.322 39.196 39.196 0 0 0 1.91 4.024v8.151c-.107.052-.219.099-.325.153C4.118 5.839 1.828 3.111 0 0" style="fill:#002843;fill-opacity:1;fill-rule:nonzero;stroke:none" transform="matrix(6.88338 0 0 -6.88338 238.03 326.396)"/><path d="M0 0c-.046 3.878-.751 7.531-2.105 10.945a24.095 24.095 0 0 0-1.78-2.877c-1.578-2.164-3.503-4.072-5.703-5.703.566-3.832.632-7.792.2-11.771A34.994 34.994 0 0 1 0 0" style="fill:#002843;fill-opacity:1;fill-rule:nonzero;stroke:none" transform="matrix(6.88338 0 0 -6.88338 583.245 434.128)"/><path d="M0 0h11.659v9.47h-29.843v-73.209h29.843v9.12H0Z" style="fill:#002843;fill-opacity:1;fill-rule:nonzero;stroke:none" transform="matrix(6.88338 0 0 -6.88338 431.554 213.304)"/><path d="M0 0c3.602-1.551 6.915-3.814 9.694-6.368 1.11 2.364 1.575 4.752 1.378 6.955a2.653 2.653 0 0 1-.062.049V.582H.489C.328.386.168.19 0 0" style="fill:#002843;fill-opacity:1;fill-rule:nonzero;stroke:none" transform="matrix(6.88338 0 0 -6.88338 455.226 236.545)"/><path d="M0 0h6.463A50.069 50.069 0 0 1 8.48 8.212C5.854 6.684 3.006 5.502 0 4.795Z" style="fill:#002843;fill-opacity:1;fill-rule:nonzero;stroke:none" transform="matrix(6.88338 0 0 -6.88338 450.775 570.034)"/><path d="M0 0c3.094.756 6.013 2.025 8.679 3.666.508 3.993.504 7.975-.015 11.827C6.095 13.752 3.181 12.375 0 11.409Z" style="fill:#002843;fill-opacity:1;fill-rule:nonzero;stroke:none" transform="matrix(6.88338 0 0 -6.88338 450.775 529.339)"/><path d="M0 0c1.481 2.517 2.548 5.13 3.12 7.683A30.815 30.815 0 0 1-.527 18.346c-.152-2.64-.821-5.26-1.964-7.755C-1.053 7.275-.219 3.741 0 0" style="fill:#002843;fill-opacity:1;fill-rule:nonzero;stroke:none" transform="matrix(6.88338 0 0 -6.88338 590.375 422.858)"/><path d="m0 0 .008-.017C1.08 2.629 1.598 5.398 1.514 8.16a31.228 31.228 0 0 1-5.834 6.626c.013-2.201-.551-4.525-1.676-6.81C-3.371 5.411-1.29 2.614 0 0" style="fill:#002843;fill-opacity:1;fill-rule:nonzero;stroke:none" transform="matrix(6.88338 0 0 -6.88338 568.95 340.606)"/><path d="M0 0a23.819 23.819 0 0 1 4.342 2.728A39.764 39.764 0 0 1 0 8.869Z" style="fill:#002843;fill-opacity:1;fill-rule:nonzero;stroke:none" transform="matrix(6.88338 0 0 -6.88338 450.775 350.32)"/><path d="M0 0c-1.262-2.223-2.935-4.221-4.915-5.916a33.093 33.093 0 0 0 2.103-4.746 41.24 41.24 0 0 0 1.633-6.31 25.516 25.516 0 0 1 5.011 5.125 23.056 23.056 0 0 1 2.114 3.518c-.133.294-.26.59-.403.88C4.34-5.009 2.416-2.408 0 0" style="fill:#002843;fill-opacity:1;fill-rule:nonzero;stroke:none" transform="matrix(6.88338 0 0 -6.88338 524.085 292.635)"/><path d="M0 0c3.13.984 5.99 2.375 8.487 4.136a40.237 40.237 0 0 1-1.674 6.687 31.374 31.374 0 0 1-1.944 4.4A25.002 25.002 0 0 0 0 12.261Z" style="fill:#002843;fill-opacity:1;fill-rule:nonzero;stroke:none" transform="matrix(6.88338 0 0 -6.88338 450.775 442.974)"/><path d="M0 0a39.99 39.99 0 0 0 5.202-7.094c1.879 1.642 3.466 3.568 4.643 5.712C7.051 1.234 3.677 3.555 0 5.097Z" style="fill:#002843;fill-opacity:1;fill-rule:nonzero;stroke:none" transform="matrix(6.88338 0 0 -6.88338 450.775 277.8)"/><path d="M0 0a10.56 10.56 0 0 0-3.266 3.266 31.156 31.156 0 0 1-5.26-6.38c.549-1.726 1.235-3.221 2.047-4.503C-4.704-4.693-2.533-2.103 0 0" style="fill:#002843;fill-opacity:1;fill-rule:nonzero;stroke:none" transform="matrix(6.88338 0 0 -6.88338 277.988 267.24)"/><path d="M0 0a39.324 39.324 0 0 1-.813-9.67c1.974-1.895 4.484-3.662 7.412-5.167a44.744 44.744 0 0 0-.069 9.902A28.282 28.282 0 0 0 0 0" style="fill:#002843;fill-opacity:1;fill-rule:nonzero;stroke:none" transform="matrix(6.88338 0 0 -6.88338 209.293 401.306)"/><path d="M0 0c.252-.109.52-.128.794-.055.276.072.466.221.561.449.097.226.079.464-.055.71a1.152 1.152 0 0 1-.583.533 1.193 1.193 0 0 1-.798.061c-.271-.07-.455-.218-.553-.445-.093-.216-.074-.451.057-.706C-.449.291-.257.109 0 0" style="fill:#002843;fill-opacity:1;fill-rule:nonzero;stroke:none" transform="matrix(6.88338 0 0 -6.88338 78.307 279.155)"/><path d="M0 0c.261.014.499.113.705.297.212.186.348.408.401.668a.743.743 0 0 1-.167.667c-.149.171-.363.255-.633.248-.272-.005-.51-.1-.719-.284A1.165 1.165 0 0 1-.804.928.738.738 0 0 1-.639.255.746.746 0 0 1 0 0" style="fill:#002843;fill-opacity:1;fill-rule:nonzero;stroke:none" transform="matrix(6.88338 0 0 -6.88338 651.902 170.77)"/><path d="M0 0c-1.229.261-2.301-.02-2.543-1.162-.052-.248-.122-.678-.168-.945L.886-2.87c.58-.122.687.14.774.55C1.834-1.502 1.749-.371 0 0" style="fill:#002843;fill-opacity:1;fill-rule:nonzero;stroke:none" transform="matrix(6.88338 0 0 -6.88338 739.04 460.243)"/></svg>