<svg xmlns="http://www.w3.org/2000/svg" xmlns:xlink="http://www.w3.org/1999/xlink" width="456.33377pt" height="525pt" fill-rule="evenodd" viewBox="0 0 456.33377 524.99999"><defs><linearGradient id="a"><stop offset="0" style="stop-color:#00566f;stop-opacity:1"/><stop offset="0.52526814" style="stop-color:#008aa7;stop-opacity:1"/><stop offset="1" style="stop-color:#6cbdd7;stop-opacity:1"/></linearGradient><linearGradient xlink:href="#a" id="b" x1="338.06339" x2="210.06903" y1="303.51266" y2="341.62103" gradientUnits="userSpaceOnUse"/></defs><path d="M422.935 259.191H194.173c-8.823 0-15.999 7.064-15.999 15.745v268.516c0 8.678 7.176 15.739 15.999 15.739h228.762c8.825 0 16.001-7.061 16.001-15.74V274.937c0-8.68-7.176-15.745-16.001-15.745z" style="fill:#00566f;stroke:none;stroke-width:1.36636" transform="matrix(1.75 0 0 1.75 -311.805 -453.584)"/><path d="m213.887 413.037-.021.009c-.104.065-2.633 3.86-4.735 7.038 0 0-2.252 3.621-2.406 3.863-.15-.242-2.224-3.633-2.224-3.633-.002-.006-4.696-7.215-4.696-7.215l-3.906-.062h-.438s9.348 14.002 9.348 14.006c-.012 0-.037 10.027-.037 10.027v.096h3.584v-10.244c.287-.359 1.674-2.348 9.4-13.512 0-.002.26-.373.26-.373h-.187zM240.047 414.211c-1.779-1.053-3.804-1.588-6.023-1.588-3.385 0-6.189 1.14-8.336 3.396-2.143 2.256-3.225 5.414-3.225 9.381 0 2.092.459 4.112 1.377 6a10.663 10.663 0 0 0 4.073 4.499c1.787 1.091 3.838 1.646 6.099 1.646 2.082 0 4.053-.504 5.852-1.492 1.806-.983 3.226-2.463 4.21-4.395.985-1.914 1.481-4.111 1.481-6.535 0-2.385-.471-4.551-1.405-6.448a10.604 10.604 0 0 0-4.103-4.464zm1.791 10.908c0 2.971-.746 5.289-2.216 6.885-1.469 1.598-3.358 2.406-5.629 2.406-2.231 0-4.11-.801-5.584-2.385-1.481-1.585-2.233-3.794-2.233-6.564 0-3.481.782-5.989 2.321-7.452 1.539-1.468 3.408-2.216 5.545-2.216 1.503 0 2.88.388 4.084 1.15 1.209.764 2.136 1.853 2.761 3.238.631 1.385.951 3.048.951 4.938zM255.885 419.123c.345.511 12.074 17.983 12.074 17.983l3.369.06h.24v-24.129H268.1v18.049c-.348-.512-12.069-17.987-12.069-17.987l-3.371-.062h-.238v24.129h3.463v-18.043zM301.086 433.781l.062-9.146h-10.5v3.26h6.95v4.117c-.655.51-1.637 1.045-2.786 1.506a10.253 10.253 0 0 1-3.874.769 9.534 9.534 0 0 1-4.307-1.013c-1.328-.659-2.358-1.694-3.059-3.067-.703-1.383-1.062-3.131-1.062-5.193 0-1.674.299-3.249.888-4.688a8.152 8.152 0 0 1 1.44-2.278c.623-.683 1.441-1.242 2.439-1.66 1.008-.422 2.221-.634 3.614-.634 1.156 0 2.22.203 3.16.603.935.4 1.662.936 2.16 1.588.504.67.934 1.601 1.277 2.773l.041.133 3.248-1.031c-.408-1.611-1.027-2.943-1.836-3.961-.808-1.021-1.933-1.824-3.347-2.391-1.395-.562-2.987-.845-4.725-.845-2.375 0-4.516.496-6.347 1.48-1.846.985-3.276 2.516-4.252 4.543-.977 2.022-1.475 4.225-1.475 6.551 0 2.338.502 4.5 1.48 6.414a10.145 10.145 0 0 0 4.401 4.414c1.926 1.008 4.092 1.52 6.439 1.52 1.746 0 3.463-.318 5.113-.941 1.653-.621 3.272-1.561 4.823-2.791zM317.49 413.037v24.129h3.588v-24.129h-.094zM332.897 419.123c.347.511 12.072 17.983 12.072 17.983l3.369.06h.234v-24.129h-3.465v18.049c-.345-.512-12.07-17.987-12.07-17.987l-3.367-.062h-.238v24.129h3.465v-18.043zM210.395 444.801v8.473c-.078 2.105-1.268 3.365-3.174 3.365-1.904 0-3.09-1.26-3.17-3.377v-8.461h-1.75v8.492c.039 3.092 1.926 5.01 4.92 5.01 3 0 4.887-1.918 4.924-5.01v-8.492h-.305zM228.581 444.801v10.396l-6.516-10.396h-1.773v13.238h1.752v-10.203l6.375 10.203h1.912v-13.238h-.307zM238.633 444.75v13.289h1.752V444.75h-.308zM256.611 444.801s-3.336 9.564-3.806 10.916a40098.59 40098.59 0 0 0-3.856-10.916h-1.898l4.84 13.238h1.726l4.785-13.238h-.437zM266.754 452.043h6.119v-1.662h-6.119v-3.916h6.361v-1.664H265v13.238h8.377v-1.664h-6.623v-4.332zM289.978 455.311l-.13-1.371c-.118-1.094-.366-2.264-1.528-2.815 1.166-.541 1.844-1.506 1.844-2.709 0-1.336-.498-2.338-1.443-2.908-1.059-.652-2.084-.707-3.129-.707H281.158v13.238h1.75v-6.015h2.822c1.998 0 2.159.203 2.422 3.113.071.894.143 1.82.455 2.699l.071.203h2.099l-.314-.474c-.334-.508-.389-1.127-.485-2.254zm-7.07-8.846h2.479c.791-.008 1.875-.016 2.472.574.315.311.467.762.467 1.377 0 1.625-1.207 1.945-3.295 1.945h-2.123v-3.896zM302.717 450.588c-1.658-.539-3.094-1.006-3.094-2.49 0-1.389 1.572-1.893 2.631-1.893 1.094 0 2.406.285 2.437 1.656l.008.299h1.867l-.037-.342c-.344-2.96-3.199-3.277-4.416-3.277-2.097 0-4.328 1.299-4.328 3.713 0 2.662 2.705 3.508 4.68 4.131l.687.217c1.223.402 1.768.992 1.768 1.914 0 1.379-1.41 2.123-2.738 2.123-1.895 0-2.83-.719-2.856-2.197l-.006-.303h-1.84l.008.314c.055 2.196 1.803 3.85 4.067 3.85 3.353 0 5.203-1.383 5.203-3.893 0-2.508-2.147-3.205-4.041-3.822zM314.482 444.75v13.289h1.752V444.75h-.306zM323.174 444.801v1.664h4.072l.02 11.574h1.732s.016-10.992.018-11.574h4.004v-1.664h-.305zM348.957 444.801h-1.392s-3.245 5.121-3.696 5.836l-3.695-5.836h-2.186l4.907 7.568v5.67h1.753v-5.705l4.874-7.533z" style="fill:#fff;stroke:none" transform="matrix(2.39114 0 0 2.39114 -426.038 -619.76)"/><path d="M194.173 265.11h228.762c5.56 0 10.08 4.41 10.08 9.826v175.53H184.094v-175.53c0-5.417 4.521-9.826 10.08-9.826z" style="fill:#fff;stroke:none;stroke-width:1.36636" transform="matrix(1.75 0 0 1.75 -311.805 -453.584)"/><path d="M308.016 287.013c-6.766 1.332-14.811 6.457-21.076 13.03-11.264 11.82-17.087 25.089-21.415 41.166-4.572 16.986-8.947 38.951-9.443 42.767-.098.705.875 1.528 1.877 1.445 2.287-.187 12.885-4.302 16.016-5.55 1.605-.641 2.472-1.297 2.886-3.53.971-5.246 5.787-29.738 7.231-35.834 1.457-6.15 3.885-13.759 7.295-20.796 7.357-15.204 14.25-24.077 24.629-26.807 4.144-1.09 7.158-.242 9.195 1.684a232.33 232.33 0 0 1 1.836-2.219c-5.891-4.352-13.459-6.448-19.031-5.356zM230.03 286.091c-7.957.692-10.803 15.168-4.498 15.563 16.517 1.033 33.693 13.094 38.626 22.139 0 0 3.049 1.55 1.67-3.34-4.045-14.313-7.738-23.233-21.422-32.547-4.695-3.197-10.327-2.168-14.376-1.815z" style="fill:#00566f;stroke:none" transform="matrix(2.39114 0 0 2.39114 -426.038 -619.76)"/><path d="M326.523 291.99a36.607 36.607 0 0 0-1.722 2.236c4.342 3.57 4.502 11.373.832 18.281-3.649 6.873-17.881 21.112-42.205 29.817-5.323 1.908-14.473 4.221-19.727 5.144-20.21 3.537-38.659 1.645-40.652-6.347-1.73-6.922 4.412-11.772 11.004-15.799 2.657-1.611 3.783-3.766-1.386-2.774-8.805 1.686-26.829 10.77-21.399 22.618 4.119 8.992 26.57 11.679 52.214 7.699 5.557-.865 17.147-3.41 22.555-5.072 22.44-6.909 49.523-19.748 50.209-38.592.268-7.235-4.068-13.237-9.723-17.211z" style="fill:url(#b);fill-opacity:1;stroke:none" transform="matrix(2.39114 0 0 2.39114 -426.038 -619.76)"/></svg>