<svg xmlns="http://www.w3.org/2000/svg" xml:space="preserve" width="533.21704" height="533.21704" viewBox="0 0 533.21703 533.21704"><defs><clipPath id="a" clipPathUnits="userSpaceOnUse"><path d="M0 595.28h841.89V0H0Z"/></clipPath></defs><g transform="matrix(1.33333 0 0 -1.33333 -304.196 680.07)"><circle cx="428.10333" cy="-310.09628" r="199.95641" style="fill:#f9f9f9;stroke:#fff;stroke-width:0" transform="scale(1 -1)"/><path d="m0 0-7.099-11.183 2.139-1.359L2.139-1.357z" style="fill:#231916;fill-opacity:1;fill-rule:nonzero;stroke:none" transform="matrix(1.79492 0 0 1.79492 352.338 196.13)"/><path d="m0 0-5.108-12.224 2.185-.913L2.183-.914z" style="fill:#231916;fill-opacity:1;fill-rule:nonzero;stroke:none" transform="matrix(1.79492 0 0 1.79492 380.466 181.16)"/><g clip-path="url(#a)" transform="matrix(1.79492 0 0 1.79492 -336.236 -200.772)"><path d="m0 0-.227 2.419-5.101-.481 1.257-13.353-3.146-.296.237-2.47 4.849.457.461-4.876 2.494.233-.511 5.402a1.973 1.973 0 0 1-1.794 1.761l-.066.005L-2.578-.244z" style="fill:#231916;fill-opacity:1;fill-rule:nonzero;stroke:none" transform="translate(446.82 207.334)"/><path d="M0 0a1.781 1.781 0 0 0-.161-2.51 1.783 1.783 0 0 0-2.509.161A1.78 1.78 0 0 0-2.507.159 1.78 1.78 0 0 0 0 0m-5.243-5.707L-6.33-4.472l1.364 1.201.053-.083a4.15 4.15 0 0 1 .96-1.09l.076-.062zm-.261 4.925-.006-.034-2.275-1.999-1.247 1.418-1.828-1.604 6.492-7.387 1.826 1.606-1.245 1.418 2.275 2.002.033.001a4.178 4.178 0 0 1 2.913 1.04 4.193 4.193 0 0 1 .378 5.913 4.196 4.196 0 0 1-5.913.381A4.154 4.154 0 0 1-5.504-.782" style="fill:#231916;fill-opacity:1;fill-rule:nonzero;stroke:none" transform="translate(369.797 229.976)"/><path d="m0 0 .042.078A4.236 4.236 0 0 1 .55 1.813l.008.116 1.988-.833-.77-1.84Zm-4.316.455a1.778 1.778 0 0 0 1.37 3.279 1.778 1.778 0 0 0 .953-2.324A1.779 1.779 0 0 0-4.316.455M.306-9.937 5.414 2.285-.341 4.69l-.015.018a4.195 4.195 0 0 1-7.143-.996 4.196 4.196 0 0 1 2.251-5.483 4.18 4.18 0 0 1 3.45.102l.035.015L.928-2.777l-2.642-6.317z" style="fill:#231916;fill-opacity:1;fill-rule:nonzero;stroke:none" transform="translate(392.614 211.03)"/><path d="M0 0a1.78 1.78 0 0 0-.547 2.453 1.78 1.78 0 0 0 2.454.548A1.779 1.779 0 0 0 0 0m3.199 5.038a4.19 4.19 0 0 1-4.491-7.074A4.195 4.195 0 0 1 4.491-.745a4.195 4.195 0 0 1-1.292 5.783" style="fill:#231916;fill-opacity:1;fill-rule:nonzero;stroke:none" transform="translate(375.268 219.985)"/><path d="M0 0a1.779 1.779 0 0 0 .16 2.505 1.78 1.78 0 0 0 2.509-.158A1.778 1.778 0 0 0 0 0m4.483 3.939a4.197 4.197 0 0 1-5.915.381 4.197 4.197 0 0 1-.381-5.916 4.196 4.196 0 0 1 5.915-.378 4.196 4.196 0 0 1 .381 5.913" style="fill:#231916;fill-opacity:1;fill-rule:nonzero;stroke:none" transform="translate(357.018 218.74)"/><path d="M0 0a1.76 1.76 0 0 0-1.921 1.588 1.764 1.764 0 0 0 3.511.331A1.766 1.766 0 0 0 0 0m2.862 4.333-.096.121.994.094-.212 2.255L.6 6.524.43 8.301l-2.409-.227.165-1.776-2.948-.28.213-2.253.996.094-.072-.138a3.889 3.889 0 0 1-.482-2.287A3.957 3.957 0 0 1 .199-2.132a3.956 3.956 0 0 1 3.565 4.307 3.888 3.888 0 0 1-.902 2.158" style="fill:#231916;fill-opacity:1;fill-rule:nonzero;stroke:none" transform="translate(436.09 202.296)"/><path d="m0 0-1.31 2.046-4.315-2.763L1.61-12.011l-2.66-1.702 1.339-2.092 4.105 2.631 2.64-4.124 2.112 1.351-2.927 4.567a1.975 1.975 0 0 1-2.401.741l-.063-.024-5.938 9.264z" style="fill:#231916;fill-opacity:1;fill-rule:nonzero;stroke:none" transform="translate(478.498 224.52)"/><path d="M0 0a1.767 1.767 0 0 0-2.434.534A1.765 1.765 0 0 0 .537 2.438 1.767 1.767 0 0 0 0 0m.565 5.168-.143.062.84.54L.043 7.676l-2.485-1.594-.605.943-.055.064-.313.491-2.04-1.304.964-1.505-2.493-1.597 1.221-1.905.838.537-.002-.157a3.928 3.928 0 0 1 .62-2.254A3.96 3.96 0 0 1 1.156-1.8a3.955 3.955 0 0 1 1.197 5.461A3.932 3.932 0 0 1 .565 5.168" style="fill:#231916;fill-opacity:1;fill-rule:nonzero;stroke:none" transform="translate(471.264 215.122)"/><path d="m0 0-5.322 12.131-5.425-2.382 5.321-12.131 2.005.879-4.35 9.907 1.26.551 4.347-9.906z" style="fill:#231916;fill-opacity:1;fill-rule:nonzero;stroke:none" transform="translate(467.738 204.746)"/><path d="m0 0 .083-.017 5.94-1.232.462 2.231-5.644 1.17.303 1.463 5.617-1.166 1.234 5.938-2.752.573.363 1.747 3.526-.733.501 2.432-9.627 1.997-.503-2.427 3.623-.754-.362-1.747-2.726.563-.468-2.245 5.633-1.168-.3-1.456-5.608 1.165-.829-3.994A1.98 1.98 0 0 1 0 0" style="fill:#231916;fill-opacity:1;fill-rule:nonzero;stroke:none" transform="translate(401.85 190.307)"/><path d="M0 0a1.97 1.97 0 0 1 .862-1.235l.07-.046 4.497-2.856 1.33 2.094L2.644.57 5.27 4.706 3.154 6.048.247 1.47A1.979 1.979 0 0 1 0 0" style="fill:#231916;fill-opacity:1;fill-rule:nonzero;stroke:none" transform="translate(370.595 205.459)"/><path d="m0 0 2.688-4.092 2.096 1.377-2.976 4.532a1.974 1.974 0 0 1-1.24.831 1.978 1.978 0 0 1-1.481-.277l-.056-.035-4.465-2.933 1.359-2.076z" style="fill:#231916;fill-opacity:1;fill-rule:nonzero;stroke:none" transform="translate(407.596 208.248)"/><path d="m0 0 5.039 2.213-.975 2.224-4.53-1.989-1.301 2.954 4.509 1.982-.976 2.223-6.827-2.998 2.454-5.588A1.978 1.978 0 0 1 0 0" style="fill:#231916;fill-opacity:1;fill-rule:nonzero;stroke:none" transform="translate(453.76 204.246)"/><path d="M0 0c-56.756 0-102.93-46.174-102.93-102.931 0-56.756 46.174-102.929 102.93-102.929 56.756 0 102.93 46.173 102.93 102.929C102.93-46.174 56.756 0 0 0m0-208.261c-58.079 0-105.33 47.251-105.33 105.33C-105.33-44.851-58.079 2.4 0 2.4s105.33-47.251 105.33-105.331c0-58.079-47.251-105.33-105.33-105.33" style="fill:#9f9fa0;fill-opacity:1;fill-rule:nonzero;stroke:none" transform="translate(426.276 388.488)"/><path d="m0 0-9.457 1.515.537-2.046 6.93-.977-5.584-4.159.585-2.231 7.513 5.9L5.746-.63l-.523 2z" style="fill:#231916;fill-opacity:1;fill-rule:nonzero;stroke:none" transform="translate(345.171 265.427)"/><path d="M0 0c.003.26.077.537.221.825.142.285.393.554.743.8.353.244.885.412 1.579.5l4.65.583c.489.062.932.094 1.318.094.189 0 .364-.008.526-.023.481-.045.872-.152 1.163-.32a1.53 1.53 0 0 0 .63-.652c.139-.281.235-.627.285-1.029.051-.4.043-.758-.022-1.065a1.529 1.529 0 0 0-.449-.788c-.242-.237-.594-.438-1.046-.598-.459-.164-1.067-.295-1.806-.389l-4.648-.584a5.772 5.772 0 0 0-.711-.048c-.372 0-.689.048-.944.143-.401.15-.71.348-.918.589-.21.242-.351.493-.418.745-.071.268-.116.47-.132.601C.004-.486-.003-.278 0 0m2.57-4.784c.285 0 .585.019.892.058l4.516.568c1.932.241 3.293.789 4.045 1.628.757.844 1.045 2.033.857 3.53-.189 1.499-.762 2.579-1.704 3.211-.938.626-2.391.821-4.322.576L2.339 4.22C.937 4.043-.152 3.529-.897 2.692c-.75-.843-1.035-2.031-.847-3.529.188-1.497.758-2.577 1.694-3.21.725-.489 1.607-.737 2.62-.737" style="fill:#231916;fill-opacity:1;fill-rule:nonzero;stroke:none" transform="translate(336.123 274.861)"/><path d="m0 0-11.56.3L.048 5.224l.089.037.07 2.665-14.158.369-.048-1.873 11.404-.297-11.45-4.852-.089-.037-.073-2.741 14.158-.37z" style="fill:#231916;fill-opacity:1;fill-rule:nonzero;stroke:none" transform="translate(348.057 284.522)"/><path d="m0 0 4.48-.799a11.22 11.22 0 0 1 1.953-.192c.981 0 1.787.184 2.394.547.972.581 1.6 1.63 1.864 3.118.159.888.204 1.701.133 2.417a9.674 9.674 0 0 1-.414 2.015l-.028.085-6.871 1.224-.81-4.547 1.809-.324.448 2.515 3.859-.688c.084-.187.152-.469.203-.838.057-.414.03-.935-.079-1.547a3.194 3.194 0 0 0-.337-1.011 1.543 1.543 0 0 0-.662-.62c-.302-.153-.699-.241-1.179-.261-.491-.019-1.104.035-1.838.165l-4.612.822c-.691.124-1.213.319-1.552.582-.337.26-.574.541-.702.834a1.907 1.907 0 0 0-.178.835c.011.279.028.484.052.613.148.833.45 1.391.896 1.659.453.268 1.07.335 1.837.2l.148-.027.374 2.105-.141.03c-1.458.313-2.578.157-3.335-.463-.748-.614-1.263-1.687-1.53-3.191-.265-1.487-.041-2.687.665-3.568C-2.451.815-1.39.246 0 0" style="fill:#231916;fill-opacity:1;fill-rule:nonzero;stroke:none" transform="translate(338.89 296.364)"/><path d="m0 0-1.279-4.34 1.706-.503 1.279 4.34z" style="fill:#231916;fill-opacity:1;fill-rule:nonzero;stroke:none" transform="translate(344.393 312.02)"/><path d="m0 0-.723-1.935L12.4-6.846l.141-.052.723 1.935L.141-.052Z" style="fill:#231916;fill-opacity:1;fill-rule:nonzero;stroke:none" transform="translate(340.185 318.903)"/><path d="m0 0 10.177-5.15-12.518.522-1.238-2.447 12.636-6.394.846 1.672L-.414-6.576 12.28-7.1l1.203 2.378L.847 1.674Z" style="fill:#231916;fill-opacity:1;fill-rule:nonzero;stroke:none" transform="translate(345.301 330.012)"/><path d="m0 0-2.507-3.16-4.074 5.773zm-9.063 3.094L-.762-9.229.543-7.583l-1.941 2.865L1.793-.695 5-1.965 6.428-.167l-13.96 5.192z" style="fill:#231916;fill-opacity:1;fill-rule:nonzero;stroke:none" transform="translate(362.254 338.916)"/><path d="M0 0a1.56 1.56 0 0 0-.432-.652L-2.239-2.38-5.082.597l1.82 1.739c.233.221.468.366.701.429.238.066.468.078.69.04a1.75 1.75 0 0 0 .646-.253A3.062 3.062 0 0 0-.171 1.423c.126-.237.206-.478.237-.718C.098.472.076.234 0 0m7.328-3.185a26.624 26.624 0 0 0-1.616 1.321c-.24.213-.405.367-.507.474-.498.485-.939.861-1.312 1.12-.378.26-.737.429-1.068.501-.337.07-.665.047-.968-.068a3.775 3.775 0 0 1-.458-.215c.291.549.404 1.116.337 1.695-.088.747-.429 1.437-1.015 2.05-.308.323-.655.6-1.032.823a3.272 3.272 0 0 1-1.229.427c-.434.057-.89.008-1.354-.147-.461-.155-.927-.456-1.386-.893L-7.845.497 1.938-9.745l1.494 1.428-4.403 4.609 1.39 1.329c.106.102.249.22.424.353.166.125.357.216.566.273.208.056.446.058.706.007.258-.052.539-.21.835-.468.336-.298.67-.61.991-.928.32-.316.629-.612.927-.886.302-.279.594-.522.866-.722a3.03 3.03 0 0 1 .84-.455l.085-.028 1.544 1.474-.174.1a7.207 7.207 0 0 0-.701.474" style="fill:#231916;fill-opacity:1;fill-rule:nonzero;stroke:none" transform="translate(367.476 349.111)"/><path d="m0 0-1.094 1.476-7.524-5.571 1.093-1.475 2.931 2.171 7.334-9.908 1.661 1.23-7.334 9.907z" style="fill:#231916;fill-opacity:1;fill-rule:nonzero;stroke:none" transform="translate(376.147 361.06)"/><path d="M0 0a4.729 4.729 0 0 1-1.673.545 9.311 9.311 0 0 1-1.781.062A21.306 21.306 0 0 0-5.142.574c-.519.013-.994.09-1.412.229-.402.135-.712.402-.946.816-.171.305-.268.593-.289.858-.02.263.015.506.105.721.092.222.224.42.391.589.175.174.375.325.594.448.673.38 1.236.458 1.676.232.46-.24.867-.683 1.21-1.317l.073-.134 1.864 1.05-.066.129c-.664 1.286-1.478 2.061-2.42 2.304-.934.243-1.988.041-3.121-.598a5.427 5.427 0 0 1-1.324-1.029 3.801 3.801 0 0 1-.808-1.316 3.52 3.52 0 0 1-.172-1.513c.053-.525.237-1.071.548-1.624.354-.626.797-1.079 1.317-1.347a5.049 5.049 0 0 1 1.651-.512 8.984 8.984 0 0 1 1.778-.051c.59.04 1.154.052 1.684.033a4.98 4.98 0 0 0 1.423-.246c.398-.136.718-.414.951-.825.189-.338.3-.657.329-.948a1.743 1.743 0 0 0-.097-.795 1.818 1.818 0 0 0-.458-.665 3.772 3.772 0 0 0-.762-.557 2.757 2.757 0 0 0-.746-.283 1.923 1.923 0 0 0-.789-.008 1.899 1.899 0 0 0-.778.371c-.254.194-.494.491-.715.884l-.273.482-1.791-1.01.061-.127a8.11 8.11 0 0 1 .393-.699c.169-.27.368-.535.592-.787.226-.257.502-.494.819-.705a2.903 2.903 0 0 1 1.091-.431c.177-.031.365-.047.56-.047.25 0 .519.026.8.078.5.093 1.057.318 1.652.668.508.287.967.622 1.364.995.403.379.708.81.908 1.281.2.475.283 1.002.246 1.567-.037.565-.242 1.182-.61 1.835C.991-.773.533-.292 0 0" style="fill:#231916;fill-opacity:1;fill-rule:nonzero;stroke:none" transform="translate(388.433 360.438)"/><path d="M0 0a4.666 4.666 0 0 0-.28-.691 8.968 8.968 0 0 0-.253-.47 7.887 7.887 0 0 1-.484.301c-.215.122-.435.26-.653.41-.208.143-.398.3-.564.466a1.38 1.38 0 0 0-.336.546c-.133.402-.117.758.048 1.088.166.33.436.553.825.682.19.062.37.094.537.094.192 0 .372-.043.535-.127.305-.158.529-.451.668-.871A1.87 1.87 0 0 0 .138.719 2.959 2.959 0 0 0 0 0m-1.345-5.08c.115.286.265.566.449.832.162.237.342.484.536.738l4.392-2.886c-.171-.521-.418-.935-.735-1.23-.345-.32-.809-.578-1.379-.766A3.395 3.395 0 0 0 .863-8.57H.825c-.352.005-.676.07-.961.194-.286.126-.541.31-.759.546a2.346 2.346 0 0 0-.492.855c-.118.356-.17.694-.152 1.004.018.312.083.612.194.891m7.402.546c.012.318-.013.687-.073 1.097-.062.414-.162.894-.298 1.425a28.39 28.39 0 0 1-.559 1.868l-.047.143-1.779-.59.476-1.436c.125-.379.222-.701.296-.984.077-.295.136-.563.175-.797.022-.134.04-.27.053-.406L1.027-2.051c.168.274.33.57.482.881.172.353.318.721.433 1.094.112.369.183.747.21 1.122a2.89 2.89 0 0 1-.142 1.135c-.159.482-.386.875-.676 1.17a2.629 2.629 0 0 1-.997.645 3.09 3.09 0 0 1-1.203.166 4.882 4.882 0 0 1-1.274-.245 5.687 5.687 0 0 1-1.19-.55 3.45 3.45 0 0 1-.931-.827 2.586 2.586 0 0 1-.489-1.118c-.075-.417-.03-.88.133-1.376a3.01 3.01 0 0 1 .491-.903c.22-.28.466-.535.73-.758a9.89 9.89 0 0 1 .837-.635c.232-.159.462-.306.685-.439-.289-.342-.56-.683-.806-1.015a5.449 5.449 0 0 1-.663-1.166 3.827 3.827 0 0 1-.281-1.284c-.019-.447.065-.958.25-1.52.222-.664.533-1.207.926-1.613a3.667 3.667 0 0 1 1.374-.903 4.237 4.237 0 0 1 1.666-.255 6.467 6.467 0 0 1 1.793.335c.791.261 1.455.617 1.974 1.06.484.411.879.98 1.177 1.692l1.41-.938 2.249.745-3.216 2.242c.04.241.066.501.078.775" style="fill:#231916;fill-opacity:1;fill-rule:nonzero;stroke:none" transform="translate(398.74 369.399)"/><path d="M0 0a4.787 4.787 0 0 1-1.34 1.144 9.635 9.635 0 0 1-1.623.732c-.565.193-1.095.399-1.575.612a4.902 4.902 0 0 0-1.219.748c-.32.278-.504.643-.562 1.116-.043.344-.024.648.057.902.082.252.207.464.372.629.168.169.36.298.586.394.223.095.466.158.72.19.774.097 1.315-.044 1.637-.425.333-.394.541-.958.619-1.678l.016-.151 2.124.263-.013.144c-.125 1.441-.583 2.467-1.362 3.051-.774.581-1.821.795-3.114.634a5.393 5.393 0 0 1-1.615-.449 3.797 3.797 0 0 1-1.249-.909 3.484 3.484 0 0 1-.733-1.334c-.152-.509-.189-1.084-.111-1.71.089-.715.326-1.302.706-1.746.372-.438.82-.809 1.332-1.102A8.956 8.956 0 0 1-4.723.332c.552-.184 1.08-.39 1.57-.61.481-.22.892-.479 1.222-.77.322-.282.507-.65.566-1.125.047-.384.028-.721-.056-1a1.705 1.705 0 0 0-.392-.699 1.81 1.81 0 0 0-.676-.441 3.829 3.829 0 0 0-.919-.225 2.687 2.687 0 0 0-.795.019 1.885 1.885 0 0 0-.734.297 1.898 1.898 0 0 0-.578.637c-.161.277-.27.644-.325 1.09l-.068.549-2.042-.253.009-.141c.014-.222.047-.49.098-.795.051-.311.134-.632.247-.954.115-.328.275-.643.49-.962a2.9 2.9 0 0 1 .845-.815c.342-.218.769-.383 1.269-.488a4.1 4.1 0 0 1 .845-.082c.289 0 .605.025.937.073a6.907 6.907 0 0 1 1.64.4c.517.198.963.48 1.326.839.366.363.643.819.824 1.356.182.537.227 1.186.135 1.929C.622-1.09.381-.471 0 0" style="fill:#231916;fill-opacity:1;fill-rule:nonzero;stroke:none" transform="translate(419.86 369.245)"/><path d="m0 0-.002-.15c-.005-.654-.095-1.168-.267-1.529-.17-.359-.372-.63-.596-.805a1.653 1.653 0 0 0-.67-.33 2.92 2.92 0 0 0-.528-.069 3.706 3.706 0 0 0-.93.118 1.357 1.357 0 0 0-.707.467c-.206.244-.37.613-.488 1.095-.122.493-.178 1.163-.17 1.991l.03 3.705c.004.576.026 1.052.067 1.414.041.359.085.637.13.826.053.228.096.335.121.383.051.091.081.158.104.218.001.005.014.053.122.196.072.101.188.209.343.32.156.111.358.213.599.302.236.085.527.128.889.128.085-.001.194-.012.325-.031.139-.021.271-.055.404-.103.135-.048.274-.108.412-.178a.859.859 0 0 0 .294-.241c.16-.197.263-.467.308-.802.046-.353.062-.729.047-1.117l-.007-.155 2.12-.018.01.14c.103 1.375-.143 2.443-.728 3.174-.591.736-1.606 1.115-3.016 1.126h-.074a6.69 6.69 0 0 1-1.813-.231 3.392 3.392 0 0 1-1.473-.842c-.403-.397-.719-.934-.942-1.597-.221-.657-.337-1.489-.344-2.472l-.033-3.917c-.011-1.357.133-2.43.427-3.188.296-.766.679-1.339 1.137-1.705a3.11 3.11 0 0 1 1.487-.667c.527-.076.995-.115 1.431-.118h.072c.145 0 .329.005.55.014.264.011.553.059.861.142.307.085.62.216.93.391.32.181.609.445.859.784.248.336.453.767.608 1.279.156.51.231 1.144.224 1.886l-.002.148z" style="fill:#231916;fill-opacity:1;fill-rule:nonzero;stroke:none" transform="translate(429.318 368.137)"/><path d="m0 0-.016-.149L2.039-.37l1.492 13.933.016.149-2.054.219Z" style="fill:#231916;fill-opacity:1;fill-rule:nonzero;stroke:none" transform="translate(433.555 363.584)"/><path d="m0 0 5.273-1.056.36 1.802-7.152 1.431-.146.03-2.78-13.888 7.409-1.484.362 1.8-5.385 1.078.883 4.412 4.895-.979.361 1.801-4.894.979z" style="fill:#231916;fill-opacity:1;fill-rule:nonzero;stroke:none" transform="translate(442.718 374.594)"/><path d="m0 0-1.771.614-3.742-10.776-1.158 12.478-2.592.899-4.595-13.236-.049-.142 1.77-.616L-8.345.144l1.18-12.649 2.519-.873L-.05-.142z" style="fill:#231916;fill-opacity:1;fill-rule:nonzero;stroke:none" transform="translate(461.228 371.198)"/><path d="m0 0-1.885.975-.068-.134c-.301-.58-.613-.998-.93-1.242-.315-.243-.618-.394-.896-.449a1.68 1.68 0 0 0-.747.009 2.93 2.93 0 0 0-.502.176 3.867 3.867 0 0 0-.778.525c-.21.188-.346.429-.418.737-.074.312-.053.715.06 1.198.114.495.366 1.118.746 1.852l1.701 3.291c.276.533.505.936.701 1.232.196.3.36.528.489.679.151.181.236.255.282.286.087.06.145.106.19.149.001.001.034.039.197.118.113.058.265.102.45.13.191.03.418.029.672 0a2.614 2.614 0 0 0 1.128-.464c.107-.074.209-.164.312-.272.106-.112.201-.228.287-.345a.889.889 0 0 0 .155-.349c.052-.249.022-.536-.089-.853a6.807 6.807 0 0 0-.464-1.02l-.075-.135L2.4 5.121l.073.12c.715 1.181.978 2.244.784 3.16-.194.922-.927 1.719-2.18 2.367a6.726 6.726 0 0 1-1.787.647 3.402 3.402 0 0 1-1.696-.084c-.536-.172-1.062-.508-1.562-.999-.493-.487-.971-1.177-1.424-2.051L-7.19 4.802c-.624-1.207-.982-2.229-1.062-3.037-.081-.818.001-1.503.244-2.034a3.1 3.1 0 0 1 1.026-1.267 10.71 10.71 0 0 1 1.223-.754c.138-.071.325-.16.561-.268a4.032 4.032 0 0 1 1.839-.333c.368.016.745.121 1.12.311.374.188.751.479 1.122.866.367.384.721.917 1.052 1.582z" style="fill:#231916;fill-opacity:1;fill-rule:nonzero;stroke:none" transform="translate(468.28 356.83)"/><path d="m0 0 4.436-3.038 1.038 1.514-6.141 4.207-8.005-11.684 6.236-4.271 1.037 1.515-4.53 3.103 2.544 3.712L.733-7.764 1.77-6.249l-4.118 2.822z" style="fill:#231916;fill-opacity:1;fill-rule:nonzero;stroke:none" transform="translate(476.434 360.957)"/><path d="m0 0-1.462 1.46-6.373-6.384c-.523-.526-1-.923-1.417-1.182-.409-.255-.786-.409-1.123-.456a1.528 1.528 0 0 0-.903.134 3.323 3.323 0 0 0-.864.643 3.32 3.32 0 0 0-.644.862 1.531 1.531 0 0 0-.137.905c.046.334.198.712.453 1.123.257.416.655.894 1.179 1.42l6.372 6.384-1.463 1.46L-12.7.04c-1.376-1.379-2.113-2.648-2.192-3.771-.078-1.132.425-2.247 1.495-3.313.994-.991 2.029-1.494 3.078-1.494.078 0 .157.003.236.009 1.124.08 2.391.82 3.766 2.199z" style="fill:#231916;fill-opacity:1;fill-rule:nonzero;stroke:none" transform="translate(494.744 347.766)"/><path d="m0 0-1.113 1.509-9.183-6.772 6.058 10.862.047.085-1.626 2.208-11.28-8.315-.121-.089 1.114-1.509 9.305 6.861-6.181-11.098 1.579-2.145L-.121-.089z" style="fill:#231916;fill-opacity:1;fill-rule:nonzero;stroke:none" transform="translate(503.512 336.496)"/><path d="m0 0-12.261-7.09 1.036-1.789L1.034-1.788z" style="fill:#231916;fill-opacity:1;fill-rule:nonzero;stroke:none" transform="translate(505.692 332.772)"/><path d="m0 0-12.074-1.976 9.525 7.649-.917 2.04-11.151-9.471-.086-.073.957-2.133L.869-1.934z" style="fill:#231916;fill-opacity:1;fill-rule:nonzero;stroke:none" transform="translate(511.657 320.934)"/><path d="m0 0 1.751.55L.104 5.789l4.293 1.35 1.496-4.763 1.753.551-1.498 4.762 3.964 1.247 1.567-4.986.046-.143 1.751.55-2.187 6.957-.046.143-13.367-4.203-.144-.045L-.046.143Z" style="fill:#231916;fill-opacity:1;fill-rule:nonzero;stroke:none" transform="translate(502.183 304.953)"/><path d="M0 0a1.592 1.592 0 0 0-.346-.599 1.782 1.782 0 0 0-.566-.4 3.028 3.028 0 0 0-1.525-.258c-.264.025-.509.09-.726.194a1.57 1.57 0 0 0-.555.445 1.567 1.567 0 0 0-.307.72l-.448 2.459 4.048.736L.027.82C.084.506.074.23 0 0m-12.552 1.091 6.272 1.142.344-1.895c.027-.139.047-.317.063-.545a1.542 1.542 0 0 0-.466-1.217c-.185-.187-.472-.335-.85-.44-.456-.122-.9-.229-1.32-.318a31.077 31.077 0 0 1-1.251-.287 9.944 9.944 0 0 1-1.08-.325 3.064 3.064 0 0 1-.841-.452l-.071-.055.383-2.1.179.09c.192.098.455.207.781.325a25.656 25.656 0 0 0 1.992.624c.306.082.524.134.676.161.678.15 1.235.312 1.655.481.428.171.766.379 1.007.616.246.245.406.529.475.847.034.152.058.319.072.5a2.862 2.862 0 0 1 1.231-1.215c.672-.338 1.435-.432 2.271-.281.442.082.865.22 1.254.41.4.196.747.462 1.032.792.289.334.499.741.623 1.211.124.473.13 1.028.017 1.648L1.013 5.66l-13.935-2.537Z" style="fill:#231916;fill-opacity:1;fill-rule:nonzero;stroke:none" transform="translate(515.468 300.306)"/><path d="M0 0c-.717-.035-1.32-.229-1.794-.573A4.984 4.984 0 0 1-2.991-1.82a8.87 8.87 0 0 1-.844-1.566 16.2 16.2 0 0 0-.727-1.519 4.846 4.846 0 0 0-.857-1.161c-.301-.296-.692-.458-1.164-.482-.383-.016-.722.027-.994.131a1.726 1.726 0 0 0-.668.444c-.173.19-.304.427-.389.707a3.88 3.88 0 0 0-.156.933c-.013.264.015.53.081.793.063.256.182.494.349.708.167.214.395.392.678.53.287.139.661.221 1.112.242l.552.027-.099 2.055-.187.002c-.212 0-.466-.013-.756-.039a5.791 5.791 0 0 1-.968-.175 4.22 4.22 0 0 1-.996-.416 2.913 2.913 0 0 1-.875-.783c-.246-.326-.441-.74-.582-1.228-.142-.488-.19-1.087-.144-1.778a7.051 7.051 0 0 1 .277-1.665 3.79 3.79 0 0 1 .739-1.384 3.394 3.394 0 0 1 1.29-.924c.449-.189.987-.285 1.599-.285.103 0 .208.003.315.008.753.037 1.388.23 1.888.575.492.342.909.763 1.238 1.251.323.474.61 1.001.853 1.565.229.534.473 1.047.727 1.524.245.459.527.848.84 1.159.294.295.682.455 1.153.477.354.014.648-.025.894-.125.246-.099.447-.239.6-.418.155-.178.273-.385.35-.614.078-.231.123-.478.135-.73.038-.774-.146-1.313-.546-1.602-.418-.303-.997-.469-1.718-.491l-.153-.006.104-2.136.144.001c1.447.018 2.505.398 3.145 1.13.636.73.927 1.758.864 3.059a5.38 5.38 0 0 1-.327 1.644 3.78 3.78 0 0 1-.814 1.312c-.351.363-.78.642-1.275.832C1.201-.05.634.035 0 0" style="fill:#231916;fill-opacity:1;fill-rule:nonzero;stroke:none" transform="translate(514.753 293.87)"/><path d="m0 0-.103-2.063 13.995-.701.15-.007.103 2.063-13.995.7z" style="fill:#231916;fill-opacity:1;fill-rule:nonzero;stroke:none" transform="translate(504.466 282.757)"/><path d="m0 0-12.055 1.715-.148.021-.292-2.045L-.292-2.046l-.514-3.611 1.818-.26L2.31 3.204l.021.149-1.816.258z" style="fill:#231916;fill-opacity:1;fill-rule:nonzero;stroke:none" transform="translate(516.081 273.911)"/><path d="m0 0-.145.039-.529-1.998 5.219-1.38 7.485-5.976.542 2.046-5.551 4.261 6.908.872.59 2.231-9.445-1.437z" style="fill:#231916;fill-opacity:1;fill-rule:nonzero;stroke:none" transform="translate(502.326 266.615)"/><path d="M0 0a3.682 3.682 0 1 0-7.366 0A3.684 3.684 0 0 0 0 0" style="fill:#231916;fill-opacity:1;fill-rule:nonzero;stroke:none" transform="translate(354.705 244.594)"/><path d="M0 0a3.683 3.683 0 1 0-7.367-.001A3.683 3.683 0 0 0 0 0" style="fill:#231916;fill-opacity:1;fill-rule:nonzero;stroke:none" transform="translate(505.71 244.594)"/><path d="m0 0 .382 5.42a1.977 1.977 0 0 1-.48 1.413 1.966 1.966 0 0 1-1.346.679l-.084.007-5.325.379-.172-2.429 4.869-.346-.35-4.945Z" style="fill:#231916;fill-opacity:1;fill-rule:nonzero;stroke:none" transform="translate(421.459 201.033)"/><path d="m0 0-5.117.364-.768-10.758-4.97.353.244 3.386-2.533.181-.245-3.385-1.15.082-.176-2.48 11.184-.798.77 10.81 2.589-.185z" style="fill:#231916;fill-opacity:1;fill-rule:nonzero;stroke:none" transform="translate(428.873 207.914)"/><path d="M0 0c-59.367 0-107.665-48.298-107.665-107.664S-59.367-215.329 0-215.329c59.367 0 107.667 48.299 107.667 107.665C107.667-48.298 59.367 0 0 0m0-216.528c-60.028 0-108.865 48.836-108.865 108.864C-108.865-47.636-60.028 1.2 0 1.2c60.029 0 108.866-48.836 108.866-108.864 0-60.028-48.837-108.864-108.866-108.864" style="fill:#c9cacb;fill-opacity:1;fill-rule:nonzero;stroke:none" transform="translate(426.276 393.221)"/><path d="M0 0h-88.658L0 88.657Z" style="fill:#231916;fill-opacity:1;fill-rule:nonzero;stroke:none" transform="translate(481.964 240.128)"/><path d="M0 0h88.661L44.33-44.33Z" style="fill:#00a1e9;fill-opacity:1;fill-rule:nonzero;stroke:none" transform="translate(389.658 334.16)"/><path d="M0 0v88.655l44.329-44.324Z" style="fill:#e40080;fill-opacity:1;fill-rule:nonzero;stroke:none" transform="translate(370.477 241.698)"/><path d="m0 0-3.733 3.946a1.98 1.98 0 0 1-1.367.6 1.976 1.976 0 0 1-1.411-.532l-.06-.056-3.874-3.666 1.67-1.771 3.546 3.354 3.404-3.603-.79-.744 2.366-2.502-1.136-1.073-2.361 2.502-1.628-1.536 2.364-2.503-.84-.794 1.672-1.768 8.074 7.629L4.224-.745 1.376-3.436-.988-.934z" style="fill:#231916;fill-opacity:1;fill-rule:nonzero;stroke:none" transform="translate(488.945 228.452)"/></g></g></svg>