<svg xmlns="http://www.w3.org/2000/svg" width="714.87" height="98.61" viewBox="0 0 714.87 98.61"><path fill="#2a376d" d="M0 32.23a32.23 32.23 0 1 1 32.23 32.24A32.23 32.23 0 0 1 0 32.23ZM32.23 48a15.79 15.79 0 1 0-15.79-15.77A15.78 15.78 0 0 0 32.23 48ZM161.07 59.82h55.04V43.56h-38.78V21.13h38.78V4.87h-55.04v54.95zM110.51 2.69 70.02 50.86l12.45 10.45 28.04-33.36 28.31 33.52 12.46-10.45-40.77-48.33zM20.74 83l-3.19 15.32h-2.86l-1.89-10.7h-.05l-1.95 10.7h-3L4.61 83h3.5l.64 3 .75 6.8h.05l1.79-9.8h2.84L16 93.25h.05l.67-6.69a26.28 26.28 0 0 1 .67-3.6ZM22.93 90.57a11.42 11.42 0 0 1 .73-4.73 5.91 5.91 0 0 1 1.93-2.34 5.24 5.24 0 0 1 3-.83 5.32 5.32 0 0 1 2.44.48 5.78 5.78 0 0 1 1.73 1.41A5.84 5.84 0 0 1 34 86.85a14.17 14.17 0 0 1 .37 3.62q0 4.62-1.6 6.37a5.34 5.34 0 0 1-4.13 1.76 5.13 5.13 0 0 1-4.13-1.82q-1.57-1.78-1.58-6.21Zm3.63-.92v1a19 19 0 0 0 .16 3.17 2 2 0 0 0 .7 1.2 2 2 0 0 0 1.29.44 1.7 1.7 0 0 0 1.12-.46 2.33 2.33 0 0 0 .71-1.3 16.44 16.44 0 0 0 .2-3.11 16.79 16.79 0 0 0-.17-2.85 2.63 2.63 0 0 0-.69-1.38 1.72 1.72 0 0 0-1.27-.52 1.63 1.63 0 0 0-1.57.91 6.64 6.64 0 0 0-.48 2.9ZM37.49 90.57a11.42 11.42 0 0 1 .73-4.73 5.91 5.91 0 0 1 1.93-2.34 5.24 5.24 0 0 1 3-.83 5.32 5.32 0 0 1 2.44.48 5.78 5.78 0 0 1 1.73 1.41 5.84 5.84 0 0 1 1.17 2.29 14.17 14.17 0 0 1 .37 3.62q0 4.62-1.6 6.37a5.34 5.34 0 0 1-4.13 1.76A5.13 5.13 0 0 1 39 96.78c-1-1.2-1.51-3.27-1.51-6.21Zm3.63-.92v1a19 19 0 0 0 .16 3.17A2 2 0 0 0 42 95a2 2 0 0 0 1.29.44 1.7 1.7 0 0 0 1.1-.44 2.33 2.33 0 0 0 .71-1.3 16.44 16.44 0 0 0 .2-3.11 16.79 16.79 0 0 0-.17-2.85 2.63 2.63 0 0 0-.69-1.38 1.72 1.72 0 0 0-1.27-.52 1.63 1.63 0 0 0-1.57.91 6.5 6.5 0 0 0-.48 2.9ZM60.46 87.38a3.72 3.72 0 0 0-2.6-1.54 1.6 1.6 0 0 0-1 .35 1 1 0 0 0-.44.79c0 .53.46 1.16 1.38 1.88a18.4 18.4 0 0 1 2.05 1.75 5 5 0 0 1 1 1.5A4.72 4.72 0 0 1 61.2 94a4.39 4.39 0 0 1-1.34 3.3 4.76 4.76 0 0 1-3.45 1.29A5.58 5.58 0 0 1 53 97.34v-3.6a4.47 4.47 0 0 0 3.17 1.68 1.88 1.88 0 0 0 1.22-.42 1.13 1.13 0 0 0 .47-.93c0-.54-.41-1.15-1.22-1.82a18.12 18.12 0 0 1-2.55-2.39 5.81 5.81 0 0 1-.9-1.59 4.54 4.54 0 0 1-.3-1.61 3.7 3.7 0 0 1 1.29-2.9 4.76 4.76 0 0 1 3.27-1.15 6.08 6.08 0 0 1 3 .86ZM65.21 90.57a11.42 11.42 0 0 1 .73-4.73 5.91 5.91 0 0 1 1.93-2.34 5.26 5.26 0 0 1 3-.83 5.32 5.32 0 0 1 2.44.48 5.63 5.63 0 0 1 1.72 1.41 5.84 5.84 0 0 1 1.17 2.29 14.17 14.17 0 0 1 .37 3.62q0 4.62-1.6 6.37a5.34 5.34 0 0 1-4.13 1.76 5.13 5.13 0 0 1-4.13-1.82q-1.5-1.78-1.5-6.21Zm3.63-.92v1A18.62 18.62 0 0 0 69 93.8a2 2 0 0 0 .7 1.2 2 2 0 0 0 1.29.44 1.65 1.65 0 0 0 1.12-.44 2.28 2.28 0 0 0 .71-1.3 15.62 15.62 0 0 0 .18-3.1 16.79 16.79 0 0 0-.17-2.85 2.7 2.7 0 0 0-.69-1.38 1.72 1.72 0 0 0-1.27-.52 1.63 1.63 0 0 0-1.57.91 6.5 6.5 0 0 0-.46 2.89ZM91 98.32h-3.64l-4.06-9.67v9.67h-3.39V83h3.76l4 9.53h.07V83H91v15.32ZM105.77 92.14a8.53 8.53 0 0 1-.49 2.51 6.11 6.11 0 0 1-1.87 2.75 4.81 4.81 0 0 1-3.28 1.21q-5.86 0-5.86-8.07a9.56 9.56 0 0 1 1.53-5.84 5.1 5.1 0 0 1 4.33-2q4.05 0 4.89 3.79l-3 1.25c-.06-1.38-.71-2.06-2-2.06a1.85 1.85 0 0 0-1.32.48 2.37 2.37 0 0 0-.66 1.35 19.24 19.24 0 0 0-.16 3 22.28 22.28 0 0 0 .17 3.37 2.38 2.38 0 0 0 .68 1.38 1.91 1.91 0 0 0 1.33.46c1.28 0 2-1 2.05-3H100v-3h5.72v2.49ZM131.53 98a7.12 7.12 0 0 1-2.92.59 6.37 6.37 0 0 1-4.81-2 8.2 8.2 0 0 1-1.93-5.89q0-4 1.9-6a5.94 5.94 0 0 1 4.45-2 7.56 7.56 0 0 1 3.25.83v3.17a9.74 9.74 0 0 0-1.74-.74 3.89 3.89 0 0 0-.85-.09 3.17 3.17 0 0 0-2.36 1.07 5.33 5.33 0 0 0-1 3.68c0 1.83.33 3.09 1 3.79a3.22 3.22 0 0 0 2.45 1 4.8 4.8 0 0 0 2.59-.92V98ZM135.82 90.57a11.42 11.42 0 0 1 .73-4.73 5.91 5.91 0 0 1 1.93-2.34 5.26 5.26 0 0 1 3-.83 5.32 5.32 0 0 1 2.44.48 5.91 5.91 0 0 1 1.73 1.41 5.7 5.7 0 0 1 1.16 2.29 14.17 14.17 0 0 1 .37 3.62q0 4.62-1.6 6.37a5.34 5.34 0 0 1-4.13 1.76 5.13 5.13 0 0 1-4.13-1.82q-1.5-1.78-1.5-6.21Zm3.63-.92v1a19 19 0 0 0 .16 3.17 2 2 0 0 0 .7 1.2 2 2 0 0 0 1.29.44 1.67 1.67 0 0 0 1.11-.43 2.33 2.33 0 0 0 .71-1.3 15.62 15.62 0 0 0 .2-3.11 16.79 16.79 0 0 0-.17-2.85 2.63 2.63 0 0 0-.69-1.38 1.72 1.72 0 0 0-1.27-.52 1.64 1.64 0 0 0-1.57.91 6.67 6.67 0 0 0-.47 2.87ZM159.34 98.32h-7.41V83h3.43v12.34h4v3ZM172.41 98.32H165V83h3.43v12.34h4v3ZM185.73 98.32h-7.91V83h7.41v3h-4v3.12h3.43v2.83h-3.43v3.46h4.48ZM202.34 92.14a8.53 8.53 0 0 1-.49 2.51A6.11 6.11 0 0 1 200 97.4a4.81 4.81 0 0 1-3.28 1.21q-5.87 0-5.86-8.07a9.56 9.56 0 0 1 1.53-5.84 5.1 5.1 0 0 1 4.33-2q4.05 0 4.89 3.79l-3 1.25c-.06-1.38-.71-2.06-2-2.06a1.85 1.85 0 0 0-1.32.48 2.37 2.37 0 0 0-.66 1.35 19.61 19.61 0 0 0-.15 3 21 21 0 0 0 .17 3.37 2.38 2.38 0 0 0 .68 1.38 1.91 1.91 0 0 0 1.33.46c1.28 0 2-1 2-3h-2.09v-3h5.72v2.49ZM215.36 98.32h-7.91V83h7.42v3h-4v3.12h3.44v2.83h-3.44v3.46h4.48v3Z"/><path d="M365.75 7c-1.68 5.6-6 14-22.2 20.8l4.26 9.49c6.37-2.17 18.15-8.41 24.26-16.49 6.11 8.08 17.87 14.32 24.24 16.49l4.25-9.49C384.4 21.07 380.07 12.64 378.39 7ZM276.59 26.8a21.6 21.6 0 1 1 21.6 21.5 21.55 21.55 0 0 1-21.6-21.5Zm11 0a10.61 10.61 0 1 0 21.22 0 10.61 10.61 0 1 0-21.22 0Z"/><path d="M366.37 31.74h11.24v8.42h25.67v10.63h-62.69V40.16h25.78v-8.42zM351.81 73.39a20.36 20.36 0 1 1 20.36 20.33 20.35 20.35 0 0 1-20.36-20.33Zm20.36-9.53a9.53 9.53 0 1 0 9.56 9.53 9.53 9.53 0 0 0-9.56-9.53ZM621.61 8.11v12.83h-5.05V8.11h-10.33V48.6h-21.74V18.88h16.1V8.18h-27.34v51.1h32.98v26.78h10.33V31.69h5.05v54.37h10.34V8.11h-10.34zM688.79 11.36h-14.46V5.75h-11.45v5.61h-14.49v9.9h8.25a18.06 18.06 0 1 0 24.31 0h7.86v-9.9Zm-19.42 30.76a7.21 7.21 0 1 1 7.37-7.21 7.28 7.28 0 0 1-7.37 7.21ZM707.26 20.8V8.11H696v44.21h11.26V31.5h7.61V20.8h-7.61zM659.41 56.83v10.21H696v18.68h11.26V56.83h-47.85zM329.44 51.55H267v10.68h25.5v23.4h11.26v-23.4h25.68V51.55zM520.96 47.59h11.26V56h25.69v10.58h-62.65V56h25.7v-8.41zM551.43 39.76V6.53h-11.21v6.26h-27.16V6.53h-11.21v33.23Zm-11.21-10.15h-27.16V23h27.16ZM437.06 71.71A20.31 20.31 0 1 1 457.36 92a20.28 20.28 0 0 1-20.3-20.29Zm20.3-9.49a9.5 9.5 0 1 0 9.52 9.49 9.51 9.51 0 0 0-9.52-9.49ZM444.39 19.22h13.7V9.34h-40.31v9.88h13.92c-1.72 5.58-.8 8.59-16.78 15.3l4.25 9.48c6.35-2.18 12.8-3.08 18.88-11.14 6.08 8.06 12.52 8.95 18.86 11.14l4.26-9.46c-15.99-6.73-15.08-9.74-16.78-15.32ZM468.92 7.57V21h-7.84v10.6h7.88v16h11.22v-40Z"/></svg>