<svg xmlns="http://www.w3.org/2000/svg" xml:space="preserve" width="771.60406" height="771.63904" viewBox="0 0 771.60406 771.63904"><path d="M269.665 579.495c-56.606 0-102.492-45.882-102.492-102.494 0-56.606 45.886-102.491 102.492-102.491 56.598 0 102.483 45.885 102.483 102.491 0 56.612-45.885 102.494-102.483 102.494m0-173.31c-39.113 0-70.807 31.708-70.807 70.816 0 39.11 31.694 70.817 70.807 70.817 39.096 0 70.799-31.707 70.799-70.816s-31.703-70.817-70.799-70.817z" style="fill:#254aa5;fill-opacity:1;fill-rule:nonzero;stroke:none" transform="matrix(3.76437 0 0 -3.76437 -629.301 2181.433)"/><path d="m252.512 431.965.793 1.384h2.971v-13.394h-1.518v12.01z" style="fill:#231f20;fill-opacity:1;fill-rule:nonzero;stroke:none" transform="matrix(3.76437 0 0 -3.76437 -629.301 2181.433)"/><path d="m252.828 431.786.788 1.384-.311-.183h2.971l-.362.362v-13.394l.362.363h-1.518l.362-.363v12.371h-2.608l.316-.54m1.568.179v-12.373h2.242v14.119h-3.544l-.101-.184-.798-1.383-.312-.542h2.875zM265.37 432.193c1.746 0 3.167-1.402 3.167-3.113 0-1.747-1.42-3.104-3.167-3.104-1.767 0-3.18 1.357-3.18 3.104 0 1.71 1.413 3.113 3.18 3.113m-1.093-12.467 4.508 6.075c.71.954 1.275 2.005 1.275 3.22 0 2.544-2.137 4.561-4.69 4.561-2.564 0-4.692-2.017-4.692-4.562 0-2.434 1.907-4.43 4.393-4.43.422 0 .812.078 1.178.184l.041-.045-3.145-4.236z" style="fill:#231f20;fill-opacity:1;fill-rule:nonzero;stroke:none" transform="matrix(3.76437 0 0 -3.76437 -629.301 2181.433)"/><path d="M265.37 431.832c1.544 0 2.805-1.234 2.805-2.752 0-1.536-1.233-2.741-2.805-2.741-1.583 0-2.816 1.205-2.816 2.741 0 1.518 1.26 2.752 2.816 2.752m-3.54-2.752c0-1.943 1.553-3.466 3.54-3.466 1.98 0 3.53 1.523 3.53 3.466 0 1.917-1.582 3.476-3.53 3.476-1.95 0-3.54-1.559-3.54-3.476z" style="fill:#231f20;fill-opacity:1;fill-rule:nonzero;stroke:none" transform="matrix(3.76437 0 0 -3.76437 -629.301 2181.433)"/><path d="m264.566 419.51 4.512 6.077c.578.774 1.344 1.975 1.344 3.433 0 2.715-2.27 4.925-5.052 4.925-2.785 0-5.054-2.21-5.054-4.925 0-2.687 2.086-4.792 4.755-4.792.404 0 .807.064 1.28.198l-.373.105.046-.047-.027.46-3.145-4.237-.22-.302.311-.211 1.128-.767.293-.196.202.279m-1.128.766 3.146 4.236.174.238-.201.22-.037.047-.156.17-.215-.064a3.83 3.83 0 0 0-1.078-.17c-2.26 0-4.03 1.79-4.03 4.067 0 2.316 1.938 4.2 4.329 4.2 2.387 0 4.328-1.884 4.328-4.2 0-.958-.373-1.883-1.207-3.002l-4.503-6.078.491.083-1.132.767zM270.986 431.965v1.384h10.033l-7.319-13.623-1.182.693 5.905 11.546z" style="fill:#231f20;fill-opacity:1;fill-rule:nonzero;stroke:none" transform="matrix(3.76437 0 0 -3.76437 -629.301 2181.433)"/><path d="M271.349 431.965v1.384l-.363-.362h10.033l-.321.531-7.32-13.623.506.143-1.183.693.137-.479 5.906 11.547.27.527h-8.028l.363-.361m6.753.165-5.906-11.545-.156-.305.294-.174 1.183-.692.325-.192.179.334 7.319 13.623.284.532h-11v-2.109h7.799zM285.779 432.193c1.75 0 3.173-1.402 3.173-3.113 0-1.747-1.422-3.104-3.173-3.104-1.77 0-3.174 1.357-3.174 3.104 0 1.71 1.404 3.113 3.174 3.113m-1.078-12.467 4.508 6.075c.706.954 1.256 2.005 1.256 3.22 0 2.544-2.119 4.561-4.686 4.561-2.56 0-4.687-2.017-4.687-4.562 0-2.434 1.907-4.43 4.398-4.43.412 0 .816.078 1.173.184l.032-.045-3.136-4.236z" style="fill:#231f20;fill-opacity:1;fill-rule:nonzero;stroke:none" transform="matrix(3.76437 0 0 -3.76437 -629.301 2181.433)"/><path d="M285.779 431.832c1.55 0 2.81-1.234 2.81-2.752 0-1.536-1.233-2.741-2.81-2.741s-2.811 1.205-2.811 2.741c0 1.518 1.26 2.752 2.81 2.752m-3.535-2.752c0-1.943 1.554-3.466 3.536-3.466 1.98 0 3.535 1.523 3.535 3.466 0 1.917-1.587 3.476-3.535 3.476-1.95 0-3.536-1.559-3.536-3.476z" style="fill:#231f20;fill-opacity:1;fill-rule:nonzero;stroke:none" transform="matrix(3.76437 0 0 -3.76437 -629.301 2181.433)"/><path d="m284.99 419.51 4.512 6.077c.568.77 1.325 1.962 1.325 3.433 0 2.715-2.266 4.925-5.048 4.925-2.784 0-5.049-2.21-5.049-4.925 0-2.687 2.09-4.792 4.76-4.792.399 0 .83.07 1.279.198l-.403.141.036-.046v.422l-3.137-4.236-.22-.306.312-.213 1.143-.765.289-.192.201.279m-1.138.766 3.137 4.236.156.211-.156.211-.028.046-.15.216-.253-.073a3.655 3.655 0 0 0-1.068-.17c-2.261 0-4.036 1.79-4.036 4.067 0 2.316 1.94 4.2 4.325 4.2 2.383 0 4.324-1.884 4.324-4.2 0-.958-.376-1.911-1.188-3.002l-4.502-6.078.49.089-1.143.766z" style="fill:#231f20;fill-opacity:1;fill-rule:nonzero;stroke:none" transform="matrix(3.76437 0 0 -3.76437 -629.301 2181.433)"/><path d="M265.832 474.494s4.082-1.174 9.574-2.16c0 0 15.985 13.976 22.473 28.218 6.498 14.233-3.664 17.737-35.294 9.74 0 0 33.547 12.66 49.036 11.496 15.482-1.174 11.597-16.728 10.4-20.41-1.192-3.654-5.828-15.985-15.65-28.383-9.826-12.404-22.647-24.977-29.46-28.976 0 0-20.313 19.983-21.143 20.236-.84.247 4.653 7.744 4.653 7.744z" style="fill:#099498;fill-opacity:1;fill-rule:nonzero;stroke:none" transform="matrix(3.76437 0 0 -3.76437 -629.301 2181.433)"/><path d="M258.284 506.867c0-2.798-2.274-5.057-5.071-5.057a5.056 5.056 0 0 0-5.063 5.057 5.065 5.065 0 0 0 5.063 5.067 5.072 5.072 0 0 0 5.071-5.067z" style="fill:#f89c0e;fill-opacity:1;fill-rule:nonzero;stroke:none" transform="matrix(3.76437 0 0 -3.76437 -629.301 2181.433)"/><path d="M208.607 486.214s16.167 3.71 22.206-12.66c0 0 14.81 3.31 26.105 22.395 0 0-.972-3.686-1.954-5.26 0 0 3.293 5.695 3.797 7.117 0 0 .248-1-1.17-4.076 0 0 2 2.576 2.243 3.334 0 0-1.577-6.168-3.236-9.919 0 0 3.654 5.25 4.905 9.996 0 0-.082-2.912-.751-4.576 0 0 2.916 4.66 3.493 6.406 0 0-.743-5.416-2.155-8.158 0 0 3.995 6.328 4.994 8.332v-.839l.408.325s-1.495-3.906-1.99-4.402c0 0 3.072 4.494 3.494 5.736 0 0-.17-1.494-.587-2.824 0 0 1.67 2.077 2.339 3.911l.082-1.504s2.907 4.668 3.577 6.833l.247-.753s-3.256-7.744-4.493-9.491c0 0 4.08 5.411 5.488 9.743 0 0 .17-2.333-.243-3.901 0 0 2 4.732 2.077 5.979l.253-.995-.33-1.248-.17-.995.078-.92-.578-1.99s2.412 4.235 2.912 7.065c.496 2.834 0 .165 0 .165l.252-.913-.252-1.164-.996-2.417h.404l.174.417s.587-.173-.082-1.746c-.66-1.582-5.576-14.912-12.564-22.39 0 0 2.912 3.154 3.33 3.654.412.504-2.66-4.329-2.66-4.329s10.646 14.49 13.646 24.908l.247-1.014s1.747 3.421 1.747 4.256c0 0 .417-1.091.165-1.848-.243-.739-2.499-8.973-6.323-15.31 0 0 5.493 9.078 7.41 16.401l.33-1.164-.495-1.5v-.495l-1.256-3.5-.074-1.416s-7.089-17.153-19.57-30.469c-12.482-13.326-26.885-23.07-33.703-24.637 0 0-14.66 7.235-15.076 20.138-.44 13.573 1.008 12.293-5.695 21.712z" style="fill:#254aa5;fill-opacity:1;fill-rule:nonzero;stroke:none" transform="matrix(3.76437 0 0 -3.76437 -629.301 2181.433)"/><path d="M197.743 518.628a6.663 6.663 0 0 1-3.773 3.054c-3.508 1.114-7.273-.825-8.386-4.342a6.675 6.675 0 0 1 4.337-8.392 6.647 6.647 0 0 1 4.838.303l-1.252-3.916 2.967-.944 2.192 6.905 3.493-1.11 1.055 3.316-3.498 1.109 2.204 6.911-2.97.94-1.207-3.834m-2.64-4.32a3.29 3.29 0 0 0-4.16-2.15 3.303 3.303 0 0 0-2.154 4.164 3.32 3.32 0 0 0 4.163 2.155 3.32 3.32 0 0 0 2.15-4.168zM221.992 539.744l-1.83 2.508 11.252 8.23s1.256.918 2.173-.343l2.747-3.75-2.623-1.926-1.833 2.512zM216.218 551.496l2.367 1.72s2.228-5.6 7.922-.968l1.5-2.05s-3.563-3.888-7.052-2.939c0 0 .234-2.388-2.884-4.673l-1.615 2.207s3.311 2.64-.238 6.703z" style="fill:#fff;fill-opacity:1;fill-rule:nonzero;stroke:none" transform="matrix(3.76437 0 0 -3.76437 -629.301 2181.433)"/><path d="m221.628 555.335 4.449 3.246s1.096.563 2.04-.72l3.72-5.095-2.816-2.05-3.1 4.252-2.623-1.918zM277.754 569.875v-4.425h-.99v4.424h-2.917v-11.67h-6.116v8.373h4.892v3.197h-7.993V556.98s-.28-2.067 3.009-2.067h6.208v-1.22h2.917v8.464h.99v-8.464h2.916v16.182zM324.388 551.665l-3.164 2.207.87 1.242-3.163 2.205-.862-1.228-3.238 2.264-1.669-2.388 1.065-.747a4.64 4.64 0 0 1-1.11-1.115c-1.477-2.105-.955-5.02 1.182-6.516 2.128-1.494 5.045-.99 6.52 1.119.322.445.541.927.67 1.422l1.23-.857 1.669 2.392m-8.332-1.554a1.525 1.525 0 0 0-.367 2.132c.48.702 1.439.862 2.137.385.692-.49.866-1.453.371-2.14a1.525 1.525 0 0 0-2.141-.377zM309.723 549.988l11.44-8.016s1.597-.664.362-2.434c-1.242-1.775-2.594-3.696-2.594-3.696l-2.775 1.94 1.95 2.779-10.06 7.038zM323.14 541.954l-2.76 1.925 4.466 6.384s.339.94 2.06-.266c1.718-1.202 3.433-2.408 3.433-2.408l-1.701-2.439-2.188 1.527zM346.113 504.088c2.173 1.045 9.262 4.434 9.864 4.718.71.349-.005 2.037-.005 2.037l-5.99 12.48-2.594-1.256 5.374-11.197-8.052-3.88-.982 2.068 6.154 2.95-1.513 3.144-6.144-2.948-.725 1.5 6.144 2.957-1.507 3.159-6.156-2.952-1.017 2.127-2.761-1.325 7.864-16.407 2.77 1.33-.724 1.495zM184.574 444.382l13.366.408-9.353-9.574 12.252.949.752-1.71-17.287-1.11 9.405 9.588-13.413-.436 12.518 11.968.757-1.706zM205.841 427.265c2.16-2.811 1.564-6.796-1.215-8.933-2.77-2.117-6.805-1.65-8.94 1.123-2.138 2.775-1.55 6.805 1.218 8.919 2.793 2.142 6.778 1.692 8.937-1.11m1.27.982c-2.686 3.485-7.749 4.186-11.28 1.477-3.521-2.706-4.108-7.745-1.412-11.244 2.678-3.498 7.704-4.229 11.234-1.518 3.513 2.692 4.146 7.777 1.458 11.285zM217.732 414.834c2.714-2.29 2.98-6.302.724-8.984-2.247-2.677-6.283-3.08-8.964-.826-2.683 2.257-2.977 6.307-.73 8.97 2.26 2.691 6.255 3.118 8.97.84m1.036 1.219c-3.375 2.83-8.483 2.44-11.332-.968-2.87-3.402-2.347-8.45 1.024-11.274 3.365-2.848 8.436-2.495 11.298.91 2.857 3.395 2.376 8.499-.99 11.332zM231.065 403.796c0 1.228-.339 2.127-1.476 2.784-1.196.678-2.719.418-3.421-.821-.66-1.157.229-2.376.9-3.296l.669-.908c1.302-1.757 2.283-3.472 1.063-5.614-1.352-2.352-4.268-3.077-6.593-1.74-2.156 1.23-2.962 3.525-2.192 5.858l1.687-.417c-.587-1.49-.183-3.208 1.266-4.036 1.44-.826 3.384-.467 4.256 1.047.894 1.569-.028 2.8-.95 4.084l-.62.831c-1.16 1.605-2.053 3.178-.948 5.103 1.192 2.087 3.714 2.417 5.709 1.271 1.495-.85 2.32-2.335 2.274-4.067zM234.504 395.272c-.403-1.087-.907-2.297-.586-3.471.293-1.128 1.338-2.096 2.393-2.49 1.037-.39 2.348-.34 3.32.216 1.11.627 1.54 1.92 1.968 3.044l3.259 8.636 1.615-.62-3.435-9.052c-.591-1.586-1.178-2.783-2.784-3.539-1.402-.688-3.058-.734-4.507-.184-1.366.523-2.563 1.563-3.186 2.898-.803 1.684-.468 3.068.174 4.722l3.425 9.066 1.61-.614zM257.202 398.258l2.275-.464-8.547-5.617 5.713-9.596-2.33.462-4.796 8.217-.514-.326-1.32-6.543-1.687.347 3.08 15.161 1.68-.336-1.313-6.497zM275.04 388.312c.128-1.141.233-2.455 1.063-3.357.766-.861 2.137-1.247 3.252-1.118 1.105.114 2.241.765 2.856 1.696.71 1.064.504 2.411.366 3.613l-1.017 9.162 1.705.2 1.074-9.642c.188-1.682.206-3.009-.867-4.41-.94-1.26-2.389-2.037-3.938-2.215-1.454-.167-3 .224-4.15 1.137-1.49 1.132-1.812 2.513-2.005 4.273l-1.072 9.635 1.719.183zM285.691 399.535l15.26-8.486-3.562 11.45 1.641.508 4.815-15.443-15.261 8.473 3.55-11.39-1.642-.507zM309.815 391.19l-1.558-.743-6.559 14.028 1.551.73zM316.335 398.903l-2.394 12.376 1.587.972 3.2-17.263-13.893 10.724 1.587.977zM316.565 413.205l6.154 5.137 1.031-1.23-4.837-4.035 2.952-3.526 4.69 3.916 1.024-1.237-4.695-3.917 3.887-4.655 4.838 4.022 1.028-1.229-6.155-5.135zM327.015 420.41l.343.376c1.39 1.525 2.83 2.736 4.715 1.036 1.779-1.625.724-3.325-.589-4.764l-.357-.394-4.112 3.746m5.24-4.773.29.321 8.166-1.115 1.422 1.568-8.442 1.023c1.444 1.901 1.207 4.14-.555 5.74-2.586 2.358-4.992.848-6.965-1.315l-1.5-1.647 11.45-10.418 1.161 1.274zM338.263 432.469c-1.234.096-2.152-.175-2.885-1.257-.774-1.127-.633-2.678.542-3.47 1.104-.748 2.38.04 3.365.636l.954.601c1.848 1.165 3.64 2.009 5.68.628 2.24-1.531 2.734-4.494 1.23-6.709-1.399-2.053-3.755-2.677-6.02-1.742l.555 1.651c1.43-.691 3.181-.422 4.117.944.931 1.38.734 3.352-.72 4.34-1.49 1.016-2.792.186-4.146-.634l-.866-.556c-1.696-1.03-3.333-1.79-5.172-.544-1.98 1.342-2.109 3.884-.826 5.781.963 1.43 2.514 2.146 4.229 1.958zM352.432 432.212l-.817-1.526-13.646 7.326.816 1.519zM356.1 440.072l-.674-1.583-12.78 5.402-1.458-3.435-1.467.638 3.59 8.483 1.481-.623-1.472-3.477zM343.453 449.724l.523 1.912 7.685 1.971-5.621 5.622.532 1.908 7.18-7.199 6.42-1.752-.46-1.66-6.41 1.747zM188.22 480.725a3.895 3.895 0 0 0-3.884-3.889 3.9 3.9 0 0 0-3.893 3.89 3.884 3.884 0 0 0 3.893 3.883 3.879 3.879 0 0 0 3.883-3.884zM359.676 480.725a3.896 3.896 0 0 0-3.887-3.889 3.889 3.889 0 0 0-3.88 3.89 3.872 3.872 0 0 0 3.88 3.883 3.879 3.879 0 0 0 3.887-3.884z" style="fill:#fff;fill-opacity:1;fill-rule:nonzero;stroke:none" transform="matrix(3.76437 0 0 -3.76437 -629.301 2181.433)"/></svg>