<svg xmlns="http://www.w3.org/2000/svg" viewBox="0 0 174.414 174.414"><path d="M0 0h174.414v174.414H0z" style="fill:#001b54"/><path d="M25.222 138.957c0 .61-.273.93-.868.93s-.86-.32-.86-.93v-4.465h-1.215v4.472a1.821 1.821 0 0 0 2.075 2 1.83 1.83 0 0 0 2.09-2v-4.472h-1.222ZM29.36 134.492h-1.225v6.383h3.185v-1.074h-1.96v-5.309zM34.67 139.958c-.364 0-.8-.275-.948-1.049l-1.2.261a2.071 2.071 0 0 0 2.088 1.791 1.8 1.8 0 0 0 2.032-1.817c0-2-2.723-2.071-2.723-3.033a.627.627 0 0 1 .672-.7c.423 0 .688.254.894.865l1.093-.326a1.9 1.9 0 0 0-1.964-1.549 1.684 1.684 0 0 0-1.914 1.787c0 1.789 2.718 1.8 2.718 3a.716.716 0 0 1-.748.77ZM39.368 139.534h1.694l.308 1.341h1.168L41 134.492h-1.564l-1.587 6.383h1.177Zm.826-3.665h.019l.588 2.581h-1.207ZM48.115 134.492H47v3.787h-.02l-1.695-3.787h-1.337v6.383h1.114v-4.121h.022l1.861 4.121h1.17v-6.383zM55.742 138.279h-.015l-1.705-3.787h-1.329v6.383h1.112v-4.121h.014l1.868 4.121h1.172v-6.383h-1.117v3.787zM59.847 134.492l-1.578 6.383h1.18l.345-1.341h1.688l.309 1.341h1.161l-1.532-6.383Zm.159 3.958.607-2.581h.017l.591 2.581ZM63.547 135.57h1.426v5.303h1.217v-5.303h1.423v-1.078h-4.066v1.078zM69.061 134.492h1.219v6.381h-1.219zM73.918 134.4c-1.183 0-2.015.566-2.015 2.141v2.281c0 1.578.832 2.139 2.015 2.139s2.021-.561 2.021-2.139v-2.281c0-1.575-.834-2.141-2.021-2.141Zm.8 4.583c0 .706-.317.9-.8.9s-.792-.2-.792-.9v-2.6c0-.709.3-.9.792-.9s.8.191.8.9ZM80.606 138.279h-.018l-1.702-3.787h-1.333v6.383h1.118v-4.121h.017l1.862 4.121h1.172v-6.383h-1.116v3.787zM84.715 134.492l-1.582 6.383h1.176l.35-1.341h1.686l.305 1.341h1.164l-1.531-6.383Zm.158 3.958.6-2.581h.012l.593 2.581ZM92.378 139.801h-1.964v-5.309h-1.218v6.383h3.182v-1.074zM96.535 134.492h1.211v6.381h-1.211zM103.651 140.875v-6.383h-1.116v3.787h-.019l-1.7-3.787h-1.328v6.383h1.113v-4.121h.012l1.867 4.121h1.171zM109.271 139.144c0-2-2.722-2.071-2.722-3.033a.625.625 0 0 1 .672-.7c.421 0 .693.254.89.865l1.1-.326a1.912 1.912 0 0 0-1.971-1.549 1.688 1.688 0 0 0-1.916 1.787c0 1.789 2.729 1.8 2.729 3a.722.722 0 0 1-.758.768c-.355 0-.8-.275-.942-1.049l-1.2.261a2.066 2.066 0 0 0 2.084 1.791 1.794 1.794 0 0 0 2.034-1.815ZM113.237 140.873v-5.303h1.428v-1.078h-4.075v1.078h1.434v5.303h1.213zM116.115 134.492h1.211v6.381h-1.211zM118.77 135.57h1.423v5.303h1.217v-5.303h1.426v-1.078h-4.066v1.078zM128.446 134.492h-1.219v4.465c0 .61-.276.93-.864.93s-.864-.32-.864-.93v-4.465h-1.218v4.472a2.084 2.084 0 0 0 4.165 0ZM133.963 134.492h-4.072v1.078h1.425v5.303h1.223v-5.303h1.424v-1.078zM138.805 139.801h-2.216v-1.684h1.622v-1.079h-1.622v-1.468h2.125v-1.078h-3.347v6.383h3.438v-1.074zM145.032 134.4c-1.177 0-2.006.566-2.006 2.141v2.281c0 1.578.829 2.139 2.006 2.139 1.2 0 2.023-.561 2.023-2.139v-2.281c0-1.575-.825-2.141-2.023-2.141Zm.8 4.583c0 .706-.312.9-.8.9s-.785-.2-.785-.9v-2.6c0-.709.3-.9.785-.9s.8.191.8.9ZM151.821 135.57v-1.078h-3.185v6.383h1.225v-2.758h1.538v-1.079h-1.538v-1.468h1.96zM34.364 146.61a.625.625 0 0 1 .673-.7c.418 0 .685.253.884.856l1.106-.317a1.908 1.908 0 0 0-1.966-1.552 1.689 1.689 0 0 0-1.915 1.793c0 1.785 2.717 1.8 2.717 3.006a.715.715 0 0 1-.749.762c-.361 0-.808-.28-.947-1.048l-1.2.258a2.07 2.07 0 0 0 2.083 1.795 1.8 1.8 0 0 0 2.036-1.822c-.001-1.999-2.722-2.064-2.722-3.031ZM40.628 144.9c-1.181 0-2.014.568-2.014 2.14v2.281c0 1.575.833 2.141 2.014 2.141s2.024-.566 2.024-2.141v-.265h-1.225v.423c0 .708-.309.9-.8.9s-.792-.195-.792-.9v-2.6c0-.708.311-.9.792-.9s.8.194.8.9v.178h1.225v-.02c0-1.567-.837-2.137-2.024-2.137ZM44.239 144.994h1.223v6.381h-1.223zM48.374 148.618h1.619v-1.08h-1.619v-1.468h2.122v-1.076h-3.343v6.381h3.431v-1.079h-2.21v-1.678zM55.22 148.775h-.017l-1.692-3.781h-1.333v6.381h1.108v-4.12h.019l1.866 4.12h1.166v-6.381H55.22v3.781zM59.977 144.9c-1.182 0-2.019.568-2.019 2.14v2.281c0 1.575.837 2.141 2.019 2.141s2.014-.566 2.014-2.141v-.265h-1.22v.423c0 .708-.306.9-.794.9s-.8-.195-.8-.9v-2.6c0-.708.308-.9.8-.9s.794.194.794.9v.178h1.22v-.02c0-1.567-.836-2.137-2.014-2.137ZM64.759 148.618h1.626v-1.08h-1.626v-1.468h2.129v-1.076h-3.346v6.381h3.433v-1.079h-2.216v-1.678zM72.45 144.994l-1.578 6.381h1.17l.342-1.344h1.695l.3 1.344h1.17l-1.534-6.381Zm.162 3.956.595-2.579h.018l.6 2.579ZM80.01 148.775h-.012l-1.693-3.781h-1.337v6.381h1.115v-4.12h.019l1.864 4.12h1.168v-6.381H80.01v3.781zM84.531 144.994h-1.7v6.381h1.7c1.4 0 2.175-.6 2.233-2.21V147.2c-.058-1.6-.834-2.206-2.233-2.206Zm1.011 4.031c0 .955-.387 1.271-1.064 1.271h-.42v-4.226h.42c.77 0 1.064.369 1.064 1.274ZM90.379 146.07h1.422v5.305h1.221v-5.305h1.42v-1.076h-4.063v1.076zM97.075 148.618h1.614v-1.08h-1.614v-1.468h2.12v-1.076h-3.341v6.381h3.429v-1.079h-2.208v-1.678zM102.749 144.9c-1.183 0-2.016.568-2.016 2.14v2.281c0 1.575.833 2.141 2.016 2.141s2.018-.566 2.018-2.141v-.265h-1.221v.423c0 .708-.312.9-.8.9s-.8-.195-.8-.9v-2.6c0-.708.307-.9.8-.9s.8.194.8.9v.178h1.221v-.02c0-1.567-.831-2.137-2.018-2.137ZM109.299 147.538h-1.728v-2.544h-1.225v6.381h1.225v-2.757h1.728v2.757h1.22v-6.381h-1.22v2.544zM115.307 148.775h-.016l-1.693-3.781h-1.34v6.381h1.111v-4.12h.017l1.868 4.12h1.169v-6.381h-1.116v3.781zM120.065 144.9c-1.186 0-2.025.568-2.025 2.14v2.281c0 1.575.839 2.141 2.025 2.141s2.012-.566 2.012-2.141v-2.281c0-1.57-.825-2.14-2.012-2.14Zm.788 4.579c0 .708-.308.9-.788.9s-.8-.195-.8-.9v-2.6c0-.708.308-.9.8-.9s.788.194.788.9ZM124.876 144.994h-1.213v6.381h3.185v-1.079h-1.972v-5.302zM130.171 144.9c-1.186 0-2.013.568-2.013 2.14v2.281c0 1.575.827 2.141 2.013 2.141s2.02-.566 2.02-2.141v-2.281c0-1.57-.834-2.14-2.02-2.14Zm.793 4.579c0 .708-.313.9-.793.9-.5 0-.8-.195-.8-.9v-2.6c0-.708.3-.9.8-.9.48 0 .793.194.793.9ZM135.7 145.978c.445 0 .742.267.742 1.086h1.23c-.054-1.442-.723-2.166-1.972-2.166-1.183 0-2.014.572-2.014 2.144v2.279c0 1.577.831 2.143 2.014 2.143a1.5 1.5 0 0 0 1.138-.617l.192.528h.642V148.1h-2.084v1.008h.854v.388c0 .545-.282.876-.742.876-.484 0-.8-.188-.8-.9v-2.6c0-.696.313-.894.8-.894ZM141.106 147.564l-1.07-2.569h-1.292l1.733 3.792v2.588h1.219v-2.588l1.745-3.792h-1.296l-1.039 2.569zM95.537 17.139l-3.909-1.391 1.785-3.744-3.745 1.781-1.393-3.908-1.389 3.908-3.742-1.781 1.783 3.744-3.907 1.391 3.907 1.39-1.783 3.739 3.742-1.773 1.389 3.902 1.393-3.902 3.745 1.773-1.785-3.739 3.909-1.39zM85.173 27.514h6.375v71.035h-6.375z" style="fill:#44c1c4"/><path d="M85.173 111.076h6.375v17.013h-6.375zM85.173 102.798h6.375v6.379h-6.375zM132.205 102.812h6.375v6.362h-6.375zM97.281 118.641h22.848v3.079H97.281v6.364h29.213v-15.809h-22.837v-3.096h22.837v-6.366H97.281v15.828zM140.505 102.812v25.277h6.37v-18.91h14.522v-6.367h-20.892zM49.093 128.096h6.379v-18.919h15.69v-6.367H49.093v25.286zM73.073 102.798v25.291h6.369v-21.817l-3.473-3.474h-2.896zM36.987 121.72H21.291v6.364h22.077v-25.286h-6.381v18.922zM13.017 124.622l3.473 3.474h2.888v-25.292h-6.361v21.818z" style="fill:#fff"/><path d="M63.827 164.363V163.3c2.609-2.483 3.026-2.954 3.026-3.642a.812.812 0 0 0-.869-.9.84.84 0 0 0-.934.861v.236h-1.2v-.308a1.88 1.88 0 0 1 2.038-1.822c1.278 0 2.157.653 2.157 1.9 0 1.513-1.766 2.682-2.709 3.7h2.609v1.032ZM77.876 160a2.193 2.193 0 1 1 4.384 0v2.192a2.193 2.193 0 1 1-4.384 0Zm1.195 2.056c0 1.06.326 1.368 1 1.368s1-.308 1-1.368v-1.92c0-1.06-.326-1.369-1-1.369s-1 .309-1 1.369ZM91.96 160a2.193 2.193 0 1 1 4.384 0v2.192a2.193 2.193 0 1 1-4.384 0Zm1.2 2.056c0 1.06.326 1.368 1 1.368s1-.308 1-1.368v-1.92c0-1.06-.326-1.369-1-1.369s-1 .309-1 1.369ZM105.99 157.822h4.131v.6l-1.766 5.943h-1.3l1.811-5.508h-2.876Z" style="fill:#44c1c4"/></svg>