<svg xmlns="http://www.w3.org/2000/svg" viewBox="0 0 442.54 367.55"><path d="M262.91 156.38V106.7h-43.16l-40.48.08v.1l-.18 49.49s-.17 16.33 14.08 33.51c0 0 7.11 11.17 28.06 17.85l1 .36.82-.3c21.11-6.67 28.27-17.91 28.27-17.91 14.21-17.17 11.59-33.5 11.59-33.5Zm-81.11-46.66h78.46v21.13h-56.11l-4.74-6.85H211l2.21 2.1v-5.18H192l7.49 9.94H181.8Zm-.13 23.38h17.8l-9 10.86h22.82v-5.63l-2.47 2.56h-13.1l6.15-7.79h56.48v20.69h-78.68Zm67.88 54.68A51.58 51.58 0 0 1 223 204.93l-.82.18-.9-.22a51 51 0 0 1-25.9-16.58s-12.65-13.89-13.49-32.12h78.46a52.41 52.41 0 0 1-10.8 31.59ZM440.44 270.06a8.32 8.32 0 0 0-7.15-2.64s-3.77.27-5.53 1.23a11.91 11.91 0 0 0-2.3 1.32 35.48 35.48 0 0 1-16.1 4.07s-21.58-.26-29.51-4.59v-.62a11.6 11.6 0 0 0 4.5-9.09 10.33 10.33 0 0 0-3.52-7.85s-2.48-4.25-11.28-4.6c0 0-12.76 1.23-23.41-1a62.58 62.58 0 0 0-7.57-1.15s-12.69-12-34.09-12.62c0 0-17.08-.53-26.76 3.1 0 0-18.85 5.89-31.71 14.19 0 0-8 5-11.43 11.22 0 0-1.85 3-3.26 3.87 0 0-2.75 2.13-1.51-1.41 0 0 1.77-3.52 2.74-4.3 0 0 4.39-4.7-3.09-5.57a14.88 14.88 0 0 0-8.21 3 14.79 14.79 0 0 0-8.18-3c-7.49.88-3.1 5.57-3.1 5.57 1 .8 2.75 4.31 2.75 4.31 1.23 3.55-1.51 1.41-1.51 1.41-1.42-.89-3.24-3.88-3.24-3.88-3.45-6.18-11.45-11.22-11.45-11.22-12.87-8.29-31.71-14.19-31.71-14.19-9.69-3.62-26.76-3.1-26.76-3.1-21.41.62-34.08 12.63-34.08 12.63a62.88 62.88 0 0 0-7.56 1.14c-10.66 2.21-23.43 1-23.43 1-8.81.35-11.28 4.6-11.28 4.6a10.46 10.46 0 0 0-3.51 7.86 11.7 11.7 0 0 0 4.48 9.09v.61c-7.92 4.33-29.5 4.6-29.5 4.6a35.42 35.42 0 0 1-16.1-4.05 12.56 12.56 0 0 0-2.3-1.31c-1.76-1-5.53-1.23-5.53-1.23a8.28 8.28 0 0 0-7.13 2.63c-5.21 6.1.87 12.46.87 12.46 9.63 9.75 27.21 9.16 27.21 9.16A65.86 65.86 0 0 0 52 287.58c7.9-2 18.22-6.84 26.18-10.85 1.72 1.09 4.46 2.8 4.46 3.45 0 0 1.19 13-4.5 17.09 0 0 .26.65-4.49 2.63 0 0-6.06 3.73-5.8 9.93 0 0 0 11.44 13.59 11.83a15 15 0 0 0 7.39-1.45s9.52-2.25 21.42 2.1c0 0 6.06 4.26-2.39 5.05a11 11 0 0 1-5.96-1.36s-11.89-5.3-19.81 3.31c0 0-9.38 11.79 5.93 19.07 0 0 10.17 4.47 15.73-1.75 0 0 4.09-4.21-1.45-7.94 0 0-3.18-2.77-7.79.93 0 0-1.59-2.38 4-3.7a14.79 14.79 0 0 1 9.9 4.1s6.22 7.15 15.47 6.61a18.69 18.69 0 0 0 14.78-5.53s11.36 16.18 22.72 21.47c0 0 10.16 5.43 18.36 4.9 0 0 16.51.65 18.89-15.66 0 0 1.37-7.57-8.15-11.49 1.06.26 1.67.37 1.67.37 7 1.87 24.66 2.81 28.72 3H222h-.27c4.1-.19 21.75-1.15 28.74-3l1.66-.38c-9.52 3.92-8.14 11.49-8.14 11.49 2.37 16.32 18.89 15.66 18.89 15.66 8.19.52 18.36-4.89 18.36-4.89 11.36-5.29 22.7-21.48 22.7-21.48a18.79 18.79 0 0 0 14.81 5.54c9.25.54 15.45-6.61 15.45-6.61a14.76 14.76 0 0 1 9.91-4.1c5.53 1.31 4 3.7 4 3.7-4.63-3.7-7.81-.93-7.81-.93-5.55 3.71-1.44 7.94-1.44 7.94 5.54 6.22 15.71 1.75 15.71 1.75 15.31-7.29 5.94-19.09 5.94-19.09-7.92-8.6-19.82-3.29-19.82-3.29a10.84 10.84 0 0 1-5.94 1.31c-8.45-.79-2.38-5-2.38-5 11.9-4.36 21.41-2.1 21.41-2.1a15.07 15.07 0 0 0 7.38 1.44c13.62-.39 13.62-11.83 13.62-11.83.27-6.2-5.83-9.92-5.83-9.92-4.74-2-4.47-2.64-4.47-2.64-5.7-4.12-4.51-17.08-4.51-17.08 0-.65 2.74-2.36 4.46-3.45 7.95 4 18.29 8.82 26.2 10.85a66.08 66.08 0 0 0 21.79 4.11s17.57.57 27.21-9.17c-.07-.01 6-6.37.81-12.46Zm-67.06-15.75s6.07-.27 5.81 6c0 0 .8 4-5.54 7 0 0-7.91-2.8-11.88-6l-.44-.29a26.4 26.4 0 0 1 4.14-3.15s3.68-3.3 7.91-3.56Zm-228-17.75c16 .43 32.06 7.67 32.06 7.67 20 9 25.17 17.19 25.17 17.19 3.62 5 5.12 6 5.12 6 11 8.2 8.28-4.34 8.28-4.34a18.43 18.43 0 0 0-1.95-4.05c-2.29-3.19 1.06-2.31 1.06-2.31 2.54.61 5.38 3.31 6.08 4v.14l.06-.07.08.09v-.19c.7-.68 3.56-3.37 6.07-4 0 0 3.36-.87 1.06 2.32a18.59 18.59 0 0 0-1.92 4s-2.74 12.55 8.28 4.34c0 0 1.49-1 5.09-6 0 0 5.21-8.21 25.18-17.21 0 0 16-7.23 32.05-7.66 0 0 21.58-1.72 35.31 9.17 0 0-10.13.7-16.11 4.85a41.63 41.63 0 0 0-15.48-2.75s-14.81 1.14-19.47 3.29l1.33-4.17S274 245.35 263 251a40.89 40.89 0 0 0-11.18 6.7s-8 6.88-7.13 15.28c0 0-.62 15.36 15.49 15 0 0 4.48.89 9.59-3.45 0 0 6.87-5.82 1.33-12.63 0 0-4-5.18-11.62-.88 0 0-2.31-8.64 6.85-8.9a11.29 11.29 0 0 1 8.36 3.62s3.09-4.33 7.34-3.89c0 0 5 .09 6.5 4.35a7.61 7.61 0 0 0-7.48 4.3s-.53-.88-1.06 5.65a18.92 18.92 0 0 1-14.63 13.51s-11.95 2.9-20-3.46a27.14 27.14 0 0 1-5.2-5.37s-4.13-5.64-10.57-5.11c0 0-4.3-.27-6.15 2.19l5.35 5.48-5.27 2 6.77 6.8s-6.66 4.6-9.09 7c-2.44-2.46-9.07-7-9.07-7l6.78-6.8-5.28-2 5.36-5.48c-1.83-2.46-6.15-2.2-6.15-2.2-6.43-.53-10.57 5.13-10.57 5.13a27.82 27.82 0 0 1-5.19 5.35c-8 6.37-20 3.47-20 3.47a18.94 18.94 0 0 1-14.64-13.51c-.52-6.54-1-5.65-1-5.65a7.65 7.65 0 0 0-7.51-4.31c1.5-4.26 6.54-4.34 6.54-4.34 4.21-.45 7.3 3.9 7.3 3.9a11.33 11.33 0 0 1 8.36-3.64c9.16.26 6.87 8.91 6.87 8.91-7.66-4.31-11.63.89-11.63.89-5.54 6.79 1.31 12.62 1.31 12.62 5.13 4.33 9.61 3.44 9.61 3.44 16.12.37 15.51-15 15.51-15 .88-8.41-7.15-15.29-7.15-15.29a41 41 0 0 0-11.13-6.68c-11-5.65-19.72-4.07-19.72-4.07l1.33 4.16c-4.68-2.14-19.46-3.27-19.46-3.27a41.8 41.8 0 0 0-15.52 2.73c-6-4.14-16.1-4.85-16.1-4.85 13.76-10.86 35.3-9.14 35.3-9.14Zm144.83 25.17a12.27 12.27 0 0 0-14.8-1.33c-10.17-6.36-17.7 1.19-17.7 1.19-8.31 8.33 1.19 17.24 1.19 17.24a7.77 7.77 0 0 1 2.1-4.13c4.48-4.12 7.66-.66 7.66-.66 2.51 2.78-.93 6.66-.93 6.66-12.42 9.4-17.83-2.22-17.83-2.22-5.27-8.16 3.45-17 3.45-17 10.3-9.65 23.89-10.45 23.89-10.45l-2.12 5.55c24.05-8.86 36.72-3.7 36.72-3.7a51.35 51.35 0 0 0-10 12.17c-13.22 17.8-26 23.63-26 23.63 5.7-3.06 7.54-11.31 7.54-11.31.25-5.17 2.24-6.23 2.24-6.23 4.1-4.35 7.26.4 7.26.4a8.64 8.64 0 0 0-2.7-9.81Zm-68.57 43.65h-.78c-13.9.23-28.37-4.27-28.37-4.27-13.55-4-17.16-7.41-17.16-7.41 3.52 2.06 11.53 1.15 11.53 1.15 11.37-.28 16-8.47 16-8.47 5-7.68 9-6.9 9-6.9l-5.37 6 4.93 1-7 6.8c5.06 1.1 13.75 8.65 16.48 11.15v.76s.15-.15.42-.38l.44.39v-.79c2.75-2.49 11.43-10 16.49-11.14l-7.05-6.8 5-1-5.39-6s4-.77 9 6.89c0 0 4.68 8.21 16 8.49 0 0 8 .89 11.54-1.16 0 0-3.6 3.37-17.17 7.41 0 0-14.45 4.51-28.38 4.27h-.08ZM165.3 251s13.61.8 23.91 10.45c0 0 8.72 8.87 3.42 17 0 0-5.4 11.63-17.83 2.24 0 0-3.44-3.9-.92-6.67 0 0 3.17-3.46 7.66.66a7.66 7.66 0 0 1 2.11 4.12s9.51-8.9 1.19-17.24c0 0-7.52-7.55-17.69-1.18a12.24 12.24 0 0 0-14.79 1.32 8.63 8.63 0 0 0-2.64 9.79s3.15-4.76 7.26-.41c0 0 2 1.06 2.25 6.23 0 0 1.85 8.26 7.52 11.32 0 0-12.82-5.84-26-23.63a51.54 51.54 0 0 0-10-12.17s12.66-5.17 36.71 3.7Zm-96.16 3.3c4.24.26 7.94 3.58 7.94 3.58a26.74 26.74 0 0 1 4.1 3.14l-.41.3c-4 3.17-11.9 6-11.9 6-6.33-3.06-5.53-7-5.53-7-.27-6.27 5.8-6 5.8-6ZM28.47 288c-12.56.81-21.13-7.41-21.13-7.41-6.87-7.85 1.72-8.65 1.72-8.65 1.85-.14 4.87 1.35 4.87 1.35 5.56 3.28 13.09 4.07 13.09 4.07 21.8 3.1 42.91-7.14 42.91-7.14 2.11-.23 10.82-5.4 13.58-7 3.52 3.35 6.9 6.91 6.9 6.91a87.24 87.24 0 0 0 7.34 8.42c-.31 2.82-1.15 7.81-3.24 10.31a44.56 44.56 0 0 0-11.74-14.46c4.59-2.5 7.64-4.27 7.64-4.27l-2.91-2.63C51.44 289.06 28.47 288 28.47 288Zm73.59-5c6.76 7 13.84 14 13.84 14a207.14 207.14 0 0 0 20.63 17.6 83.83 83.83 0 0 0-23-9.78s-12.69-2.94-17.7-2.81c0 0-3.7-.4-4.76-1.19 0 0 8-3.74 10.99-17.82Zm-15.21 2.25a12.38 12.38 0 0 1 4 9.79c-4.49 4.9-8.06 3.19-8.06 3.19 4.58-5.23 4.06-13.02 4.06-13.02Zm104.92 60.22c6.16 6.68.86 12.15.86 12.15-4.21 6.77-13.85 6.83-13.85 6.83-12.69-.6-19.42-6.49-19.42-6.49-11.83-7.56-19.75-21.96-19.75-21.96-7.66 9.58-20.41 6.43-20.41 6.43-3.57-.1-10.13-5.62-10.13-5.62-10.65-7.49-16.75-2-16.75-2-4.42 3.62.91 8.69.91 8.69a3.68 3.68 0 0 0 3.07 1.37c3.32 0 2.4-3.71 2.4-3.71a2.12 2.12 0 0 1 2.3 2.44c.16 3.23-6.17 3.34-6.17 3.34-11.5-.79-11.1-9.52-11.1-9.52.66-11.12 14-9.4 14-9.4a26.79 26.79 0 0 0 10.57 2.5c9.12.79 8.72-5.68 8.72-5.68.27-4.36-4.87-6.08-4.87-6.08-16.37-6-28.13-.67-28.13-.67-12 .8-11.51-8.79-11.51-8.79-.52-7.42 8.85-7.81 8.85-7.81a15.67 15.67 0 0 1 6.21 1.81 20.35 20.35 0 0 0 7.81 2.24 45.91 45.91 0 0 1 8.78.92c20.78 3.64 33.84 14.09 33.84 14.09A63.63 63.63 0 0 1 155.66 338c.52 1.65 5 7.74 5 7.74 11.73 15.39 19.08 13.55 19.08 13.55 11.87-.52 10.35-9.63 10.35-9.63-9.37 1.19-6.07-5.5-6.07-5.5 2.81-3.22 7.75 1.27 7.75 1.27Zm-7.59 7.7s-4.08 6.83-12.82-1.55a47.53 47.53 0 0 1-10.67-12.45s-4.38-9.12-15.52-18.4c1.37.94 2.16 1.46 2.16 1.46 12.71 9.39 31.12 15 39.84 17.32-2.91-.29-7.39.38-8.53 6.77 0-.04-1.19 3.55 5.54 6.81Zm37.51-13.61H220.83c-24.77.81-48.41-9.17-48.41-9.17-13.59-3.95-34.86-19.88-34.86-19.88-9.91-6.62-35.26-32.93-35.26-32.93a127.09 127.09 0 0 0-28-25.94 65.53 65.53 0 0 0 20.43-.7c.88-.37 7.57-.9 7.57-.9 12.16-1.6 23.41 6.34 23.41 6.34 8.63 5.14 19 19.62 19 19.62a103.81 103.81 0 0 0 22 17.64c5.89 4.95 21.58 10.25 21.58 10.25 5.8 2.54 15.75 3.87 15.75 3.87 7 1.59 16.66 1.34 17.54 1.32 2.55 0 10.73.06 16.82-1.34 0 0 9.95-1.32 15.78-3.87 0 0 15.66-5.3 21.55-10.25a103.24 103.24 0 0 0 22-17.64s10.4-14.48 19-19.61c0 0 11.28-7.94 23.42-6.36 0 0 6.7.55 7.59.91a65.57 65.57 0 0 0 20.41.71 126.93 126.93 0 0 0-28 25.93s-25.28 26.31-35.15 32.93c0 0-21.26 15.93-34.86 19.89-.04 0-23.67 9.96-48.45 9.14ZM340.46 283c3 14.11 11 17.86 11 17.86-1.05.79-4.74 1.19-4.74 1.19-5-.14-17.7 2.8-17.7 2.8a84.2 84.2 0 0 0-23 9.78A204.7 204.7 0 0 0 326.63 297s7.08-7 13.83-14Zm-76.55 63.31c-1.14-6.38-5.65-7.05-8.55-6.76 8.74-2.29 27.14-7.93 39.83-17.32l2.17-1.47c-11.14 9.28-15.49 18.41-15.49 18.41a47.87 47.87 0 0 1-10.71 12.45c-8.71 8.37-12.82 1.53-12.82 1.53 6.73-3.29 5.57-6.89 5.57-6.89Zm97.32-44.8s9.38.4 8.85 7.83c0 0 .53 9.58-11.49 8.79 0 0-11.75-5.34-28.14.66 0 0-5.14 1.71-4.88 6.08 0 0-.39 6.48 8.72 5.69a26.67 26.67 0 0 0 10.57-2.56s13.33-1.71 14 9.4c0 0 .4 8.73-11.07 9.52 0 0-6.36-.1-6.19-3.33a2.12 2.12 0 0 1 2.26-2.44s-.94 3.73 2.41 3.69a3.61 3.61 0 0 0 3.06-1.35s5.32-5.07.88-8.7c0 0-6.08-5.47-16.74 2 0 0-6.55 5.53-10.13 5.61 0 0-12.72 3.17-20.41-6.42 0 0-7.91 14.36-19.73 21.88 0 0-6.74 5.91-19.41 6.5 0 0-9.64-.06-13.88-6.82 0 0-5.27-5.48.86-12.16 0 0 4.95-4.49 7.72-1.25 0 0 3.32 6.68-6.06 5.49 0 0-1.52 9.11 10.37 9.63 0 0 7.32 1.85 19.09-13.54 0 0 4.47-6.09 5-7.75a63.56 63.56 0 0 1 17.7-17.47s13-10.43 33.89-14.07a45.24 45.24 0 0 1 8.79-.93 20.33 20.33 0 0 0 7.78-2.24 15.77 15.77 0 0 1 6.18-1.79Zm-1.46-3.29s-3.55 1.72-8-3.19a12.34 12.34 0 0 1 4-9.79s-.61 7.76 4 12.93Zm75.41-17.61s-8.58 8.22-21.12 7.42c0 0-23 1.07-59-20.56l-2.92 2.64s3.07 1.77 7.65 4.25A44 44 0 0 0 348 288.78c-2.11-2.5-3-7.49-3.27-10.31a83.29 83.29 0 0 0 7.34-8.41s3.4-3.58 6.91-6.91c2.76 1.64 11.47 6.82 13.57 7 0 0 21.14 10.25 42.92 7.15 0 0 7.54-.79 13.08-4.09 0 0 3.05-1.48 4.88-1.35.04.04 8.64.86 1.75 8.7Z" style="fill:#00a663"/><path d="M291.3 158.72c-1-1.46-6 1.66-6 1.66.2-1.12.74-5 .74-5 7-4.75 6.09-7.54 6.09-7.54-.14-1.18-5.5 2.26-5.5 2.26v-3.8c5.3-4.09 5.3-7.4 5.3-7.4-1.2-1.32-5.43 2.46-5.43 2.46l-.21-2.79c5.44-5.93 4-8.37 4-8.37-1.11-1.33-4.82 3.1-4.82 3.1 0-.2-.47-4.56-.47-4.56 3.38-3.25 2.52-8.59 2.52-8.59-1.32-1.06-3.9 3.91-3.9 3.91a19.12 19.12 0 0 0-1.37-3.51c3.08-5.67 1.5-9 1.5-9-.91-1-3.55 3.24-3.55 3.24l-2-3.77c2.58-5.48.53-8.25.53-8.25-2.38.13-3.18 4.61-3.18 4.61-.46-.79-2.36-3.41-2.36-3.41.85-7.8-1.52-8.33-1.52-8.33-2.12 1.1-1.73 4.82-1.73 4.82a18.68 18.68 0 0 0-3.63-3.58c.66-6.93-1.45-7.14-1.45-7.14-1.84.74-1.63 4.78-1.63 4.78a24.05 24.05 0 0 0-3-2.06c.26-6.33-2.06-7.12-2.06-7.12-1.65.85-1.39 5.07-1.39 5.07a23.69 23.69 0 0 0-2.75-1.78c-.52-6.14-2.85-6-2.85-6-1 1.06-.4 4.42-.4 4.42l-2.91-1.24c-3.48-3.18-6.14-2.88-6.14-2.88a3.29 3.29 0 0 0-1.78.57c2 4.14 7.52 3.55 7.52 3.55l2.66 1.18c-3.18.6-4.17 2-4.17 2 2.38 1.92 7.61-.47 7.61-.47l2.48 1.8c-3.22 0-3.94 1.92-3.94 1.92 2.25 1.85 6.8-.14 6.8-.14l2.51 2c-4.11-.2-5.3 1.63-5.3 1.63 2.79 3.25 8.92 1.33 8.92 1.33l3.11 3.23c-4-.65-4.87.93-4.87.93 3.08 3.43 8.18 2.72 8.18 2.72l2.18 3c-4.82-1.32-5.22-.07-5.22-.07 1.72 4.37 8.38 4.31 8.38 4.31l2.32 5c-2.85-1.79-6.73-1.2-6.73-1.2.46 4.18 8 4.9 8 4.9a29.38 29.38 0 0 1 1.58 5 11.82 11.82 0 0 0-6.81-1.13c.52 4.17 7.87 4.84 7.87 4.84l.51 5.4c-3.69-3-6.66-2.23-6.66-2.23 1 4.88 7.38 6.07 7.38 6.07a22 22 0 0 1 .34 3.84c-5.61-3.84-6.73-2.72-6.73-2.72 1.12 4.35 6.79 6.27 6.79 6.27l-.2 4.7c-3.48-3.18-6.19-3.25-6.19-3.25.72 5.08 5.87 7.27 5.87 7.27a46.94 46.94 0 0 1-.92 5.23c-3.68-4.2-5.22-3.41-5.22-3.41-.65 3.91 4.51 7.59 4.51 7.59a29.14 29.14 0 0 1-1.8 5.3c-3.5-5.37-5.22-4.9-5.22-4.9-1.83 4.43 3.44 9.18 3.44 9.18l-1.93 3.44c-1.79-4.9-4.48-5.43-4.48-5.43-2.45 4 2.16 9.84 2.16 9.84-.13.27-2.16 3.25-2.16 3.25-1.72-5.94-3.51-5.94-3.51-5.94-3.32 3.81.86 10.36.86 10.36l-3.24 3.86c.33-6.5-2.3-7.36-2.3-7.36-4.36 4.57-.72 10.71-.72 10.71a11.81 11.81 0 0 1-3.25 2.81c.53-7.76-1.39-7.94-1.39-7.94-4 2-1.91 10.9-1.91 10.9l-3 2.08c1.64-6.24 0-8.31 0-8.31-5.43 1.66-3.84 10.72-3.84 10.72l-4.22 2.17c1.91-6.79.2-9.43.2-9.43-4.95 2.24-3.89 11.28-3.89 11.28a23.17 23.17 0 0 1-10.77 2.53 41.7 41.7 0 0 0-10.27.89 40.82 40.82 0 0 0-9.94-.82 23.14 23.14 0 0 1-10.77-2.54s1.06-9-3.88-11.28c0 0-1.72 2.64.2 9.44l-4.24-2.17s1.59-9.06-3.82-10.73c0 0-1.65 2.08 0 8.32l-3.05-2.09s2.13-8.86-1.91-10.91c0 0-1.92.2-1.39 7.94a11.68 11.68 0 0 1-3.22-2.79s3.62-6.14-.73-10.71c0 0-2.64.86-2.32 7.34l-3.25-3.85s4.18-6.54.87-10.36c0 0-1.79 0-3.48 6 0 0-2.05-3-2.19-3.25 0 0 4.61-5.87 2.19-9.84 0 0-2.72.53-4.51 5.43l-1.83-3.5s5.3-4.75 3.44-9.18c0 0-1.72-.46-5.22 4.9a29.79 29.79 0 0 1-1.77-5.3s5.14-3.68 4.48-7.58c0 0-1.6-.8-5.27 3.38a46.42 46.42 0 0 1-.94-5.24s5.15-2.18 5.87-7.26c0 0-2.7.07-6.19 3.25l-.2-4.7s5.67-1.93 6.79-6.27c0 0-1.12-1.12-6.73 2.71a21.91 21.91 0 0 1 .34-3.83s6.4-1.19 7.4-6.11c0 0-3-.79-6.67 2.22l.53-5.4s7.33-.66 7.86-4.83a11.82 11.82 0 0 0-6.8 1.12 29.12 29.12 0 0 1 1.57-4.94s7.55-.73 8-4.9c0 0-3.91-.59-6.75 1.2l2.32-5s6.65.07 8.37-4.3c0 0-.39-1.26-5.2.07l2.16-3s5.1.71 8.21-2.72c0 0-.86-1.58-4.9-.93l3.11-3.23s6.13 1.92 8.91-1.33c0 0-1.18-1.83-5.29-1.63l2.51-2s4.58 2 6.8.13c0 0-.72-1.91-4-1.91l2.52-1.8s5.2 2.38 7.59.47c0 0-1-1.39-4.17-2l2.65-1.19s5.53.59 7.52-3.55a4.23 4.23 0 0 0-1.79-.37s-2.63-.49-6.13 2.69L192 87.12s.59-3.35-.4-4.41c0 0-2.3-.13-2.83 6A24.25 24.25 0 0 0 186 90.5s.27-4.22-1.38-5.08c0 0-2.32.79-2.05 7.13a23.13 23.13 0 0 0-3 2.06s.2-4-1.66-4.78c0 0-2.11.2-1.46 7.13a19 19 0 0 0-3.63 3.58s.39-3.71-1.72-4.81c0 0-2.37.52-1.5 8.32 0 0-1.93 2.62-2.4 3.41 0 0-.79-4.47-3.16-4.61 0 0-2.06 2.77.52 8.25l-2 3.78s-2.63-4.24-3.55-3.24c0 0-1.59 3.3 1.52 9a18.66 18.66 0 0 0-1.39 3.5s-2.58-5-3.91-3.91c0 0-.86 5.34 2.51 8.59 0 0-.46 4.37-.46 4.57 0 0-3.71-4.44-4.82-3.11 0 0-1.44 2.45 4 8.38l-.21 2.79s-4.21-3.78-5.4-2.46c0 0 0 3.31 5.27 7.39v3.84s-5.33-3.43-5.47-2.25c0 0-.92 2.79 6.07 7.53 0 0 .53 3.85.73 5 0 0-5-3.12-5.94-1.67 0 0-.46 3.43 7.07 6.41l1.25 4.56s-7.08-2.18-7-.73c0 0 1.26 4.22 8.61 5.42l2 3.77s-7.65-1.6-7.25.13c0 0 1.52 4.22 9.64 4.8l2.05 2.86s-7.72-1.34-7.25.33c0 0 .85 4.22 10.67 4.77l2.71 3.49s-8 .27-7.65 1.59c0 0 2.78 3.33 11.62 2.6l2.51 2.5s-6.08 1.45-6.6 3.54c0 0 2.57 2.27 10.82-.33a19.44 19.44 0 0 0 1.87 1.41s-7.13 2.44-5.89 3.83c0 0 3.36 1.64 11-.79l2.85 1.44s-6.73 3.13-5.86 4.32c0 0 3.67 2.38 11.2-1.59 0 0 5.56 2.58 10.37 2.52 0 0 2.39.06 5.41.4-1.08.34-1.71.58-1.71.58-3.37 2-9 3-9 3a2.41 2.41 0 0 0-1.66.79c.92-.14 6.86 1.27 6.86 1.27a48.44 48.44 0 0 1 6.75-3.26 18 18 0 0 1 4.27-1.48 18.44 18.44 0 0 1 4.58 1.55 48.07 48.07 0 0 1 6.73 3.26s5.94-1.41 6.86-1.27a2.4 2.4 0 0 0-1.66-.8s-5.6-1-9-3c0 0-.75-.28-2-.68 3.15-.37 5.7-.44 5.7-.44 4.81.07 10.37-2.52 10.37-2.52 7.53 4 11.24 1.6 11.24 1.6.85-1.18-5.89-4.32-5.89-4.32l2.84-1.45c7.66 2.43 11 .79 11 .79 1.26-1.39-5.89-3.83-5.89-3.83a18.75 18.75 0 0 0 1.86-1.41c8.25 2.6 10.84.33 10.84.33-.54-2.08-6.61-3.53-6.61-3.53l2.5-2.5c8.86.72 11.63-2.61 11.63-2.61.39-1.32-7.66-1.59-7.66-1.59l2.71-3.49c9.85-.55 10.7-4.77 10.7-4.77.46-1.67-7.28-.33-7.28-.33l2-2.85c8.12-.59 9.64-4.81 9.64-4.81.4-1.72-7.25-.13-7.25-.13l2-3.77c7.32-1.2 8.58-5.41 8.58-5.41.07-1.45-7 .72-7 .72l1.23-4.56c7.83-3.03 7.36-6.44 7.36-6.44ZM313 294.23l-10.57-12A2.51 2.51 0 0 0 299 282l-16.28 14.44 1.6 1.84 15.29-13.53 10.6 12-3.59 3.14-7.47-8.47-2.83 2.47 7.47 8.5-3.55 3.17-7.49-8.48-2.81 2.49 7.47 8.48-3.9 3.46 1.63 1.84L315.79 295l-1.63-1.84ZM299 282c0-.07-.06 0 0 0Z" style="fill:#00a663"/><path d="M302.4 282.22c.07.08 0-.11 0 0ZM275.94 306.13l-3.83 1.52-2.2-5.56-3.5 1.42 5.21 13.08 3.49-1.28-2.1-5.37 3.83-1.53-.9-2.28zM257.76 306.89l-1.01-2.53-3.47 1.39 1 2.52-7.68 3.05.9 2.29 18.73-7.42-.91-2.28-7.56 2.98zM276.18 318.06a2.68 2.68 0 0 0-3.39-1.4l-20.28 8 .9 2.31 19.23-7.59 2.31 5.92 3.51-1.39s-2.22-5.68-2.28-5.85ZM257.17 310.7c-4.78 1.88-7.87 5.36-6.88 7.88s5.67 3 10.48 1.09 7.87-5.39 6.88-7.88-5.65-3.02-10.48-1.09Zm2.83 7c-2.83 1.12-5.56.86-6.12-.6s1.25-3.4 4.06-4.51 5.57-.85 6.14.58-1.26 3.43-4.08 4.56ZM230.81 313.42v6.14h-1.88v-6.14h-3.74v14.41h-11.47v-12.07h9.44v-2.41h-13.2v14.49a2.69 2.69 0 0 0 2.68 2.48h12.53v6.64h3.74v-15.09h1.88v15.07h3.77v-23.52ZM155 305.73l1.59-1.87L135.63 286l-1.6 1.89 8.97 7.61-.94 1.12-7.52-6.4-1.45 1.72 15.22 13-.87 1-15.29-13.06-.64.74-.95 1.13-1.26 1.5a1 1 0 0 0-.21.21 2 2 0 0 0 .22 2.87l.19.15 16.28 13.9 1.53-1.78L132 298.59l1.25-1.47 14.75 12.6.53.46 3-3.49a1.46 1.46 0 0 0-.16-2.08l-6.37-5.44 1-1.12ZM152.3 287.54c-5.16-4.39-10.62-6.44-12.21-4.58s1.31 7 6.46 11.33 10.62 6.46 12.21 4.61-1.31-6.9-6.46-11.36Zm-4.62 5.46c-3.5-3-5.53-6.33-4.58-7.46s4.57.37 8.08 3.36 5.53 6.31 4.57 7.46-4.57-.36-8.07-3.36ZM182.47 317.32l3.86 1.53-1.54-11.57a2.17 2.17 0 0 0-1.43-1.51h-.09l-5.14-2h-.1a2.19 2.19 0 0 0-2.08.13l-9 7.49 3.87 1.51 7.82-6.41 2.48 1ZM167 321.12a2.54 2.54 0 0 0 1.49 3.21l19.69 7.73.82-2.06-18.6-7.33 2.86-7.27-3.37-1.4s-2.82 7-2.89 7.12ZM198.07 318.08l-3.77-1.51 2.29-5.71-3.5-1.41-6.55 16.65 3.49 1.37 3.38-8.62 3.78 1.47.88-2.24zM131.67 169.1l2.62-.67-.39-1.6-4.13 1 .01.03.41 1.6 2.04 8.13 1.48-.38-2.04-8.11zM143.71 174.25l-8.8 2.22-.41-1.61 8.81-2.22.4 1.61zM137.9 170a3.07 3.07 0 0 1 2.35-1.48l.69 2.71 1.45-.35-1.82-7.29-1.46.38.7 2.79a3.15 3.15 0 0 1-2.78-.2 4.28 4.28 0 0 1-2.32-2.7l-1.12.73c0 .89 1.12 2.18 2.32 2.94a6.1 6.1 0 0 0 1.73.7 5.78 5.78 0 0 0-1.18 1.44c-.71 1.24-1.12 2.89-.68 3.67l1.34.11a4.08 4.08 0 0 1 .78-3.45ZM147.09 198.15l2.3-1.44 2.71 4.44 4.36-2.71-.01-.04-3.59-5.77-1.26.79 2.71 4.39-1.79 1.14-2.71-4.44-4.87 3.01.02.01-.02.01 3.66 5.9 1.29-.79-2.8-4.5zM148.05 207.08l10.59-6.71.87 1.4-10.58 6.7-.88-1.39zM201.67 230.93c.09-.24.17-.5.25-.76l2.65.65.35-1.47-7.11-1.75-.36 1.49 2.73.67c-.05.26-.1.53-.13.79-.93 2.82-3 4.74-5 4.62l.53 1.57a5.74 5.74 0 0 0 4.48-2.66 5.82 5.82 0 0 0 2.8 4.42l1.18-1.14c-1.85-.8-2.83-3.48-2.37-6.43ZM209.15 233.62l-1.5-.37 1.06-4.41-1.59-.39-3.11 12.73 1.62.35 1.66-6.81 1.51.37.35-1.47zM302.35 169c-.26-.09-2.42-.5-2.42-.5l-.39 1.93s2.16.47 2.43.49c3.09.89 5.28 2.94 5.23 5.11l1.66-.62a6.18 6.18 0 0 0-3-4.76 6.33 6.33 0 0 0 4.67-3.22l-1.28-1.24c-.84 2.02-3.68 3.16-6.9 2.81ZM305.25 161.79l-.3 1.49-4.32-.89-.32 1.58 12.49 2.57.32-1.58-6.74-1.39.31-1.49-1.44-.29zM240.53 232.14a5.57 5.57 0 0 1-1.11 1.38 8.76 8.76 0 0 1-3.87 2.16l-.86-1.17a7.74 7.74 0 0 0 3.33-1.8 2.16 2.16 0 0 0 .95-2l-3.77 1-.37-1.38 9.82-2.56.36 1.41-3.8 1a2.16 2.16 0 0 0 1.8 1.26 7.56 7.56 0 0 0 3.78-.06l-.19 1.43a8.37 8.37 0 0 1-4.43 0 5.32 5.32 0 0 1-1.64-.67ZM247.38 233.41l-11.86 3.1.4 1.56 5.15-1.34 1.12 4.3 1.69-.4-1.11-4.34 5.01-1.33-.4-1.55zM292.6 201.45c-1.75 2.37-2.19 5.05-1 5.93s3.61-.39 5.37-2.85 2.21-5 1-5.9-3.62.37-5.37 2.82Zm3.07 2.12c-1.08 1.41-2.33 2.38-2.79 2s0-1.8 1.13-3.23 2.32-2.44 2.79-2.11-.05 1.85-1.13 3.34ZM291.41 199.35l-.64-.46 2.35-3.29-4-2.9-1.12 1.45 1.21.95-4 4.9-.95-.68-1 1.45 4 2.88 2.39-3.28.63.46-3.17 4.28 1.22.91 7.39-10.19-1.23-.87Zm-4.66 1.79 3.73-5.17.68.49-3.72 5.18ZM174.47 224.11a1.4 1.4 0 1 0-1.4-1.4 1.41 1.41 0 0 0 1.4 1.4ZM268.45 223.78a1.4 1.4 0 1 0-1.41-1.4 1.4 1.4 0 0 0 1.41 1.4ZM160.73 82.36l-1.67 2.37-1.15-1.15a5.32 5.32 0 0 0 .87-3.85l1.4-1.4L168.7 87l-1.7 1.67ZM198.08 66.46a4.9 4.9 0 0 0 3.19.14 4.34 4.34 0 0 0 1.78-.92 2.8 2.8 0 0 0 .63-.83 6.4 6.4 0 0 1 .19 2.13 2 2 0 0 1-1.54 1.77 1.87 1.87 0 0 1-1.22 0 1.36 1.36 0 0 1-.75-.68l-2.7.75a3.11 3.11 0 0 0 2 1.87 5.48 5.48 0 0 0 3 0 4.69 4.69 0 0 0 3.75-3.94 9.11 9.11 0 0 0-.35-3.73 8.16 8.16 0 0 0-1.66-3.33q-1.84-2-5-1.12a4.92 4.92 0 0 0-3 2.07A4.09 4.09 0 0 0 196 64a3.41 3.41 0 0 0 2.08 2.46Zm1.16-1.87a2 2 0 0 1-1.07-1.38 1.91 1.91 0 0 1 .5-2 3.31 3.31 0 0 1 1.41-.77 3 3 0 0 1 2.08.05 2 2 0 0 1 1.14 1.38 1.83 1.83 0 0 1-.7 2.07 3.68 3.68 0 0 1-1.26.65 3.26 3.26 0 0 1-2.1 0ZM248.29 60.91l-.49 1.81a14.91 14.91 0 0 0-1.91 1.42 16 16 0 0 0-3.89 4.69 11.93 11.93 0 0 0-1.1 2.48l-2.39-.65a14.61 14.61 0 0 1 3.85-6 16.12 16.12 0 0 1 2.92-2.37l-5.83-1.59.57-2ZM277.76 77.31a8 8 0 0 0-4 2.62 8.21 8.21 0 0 0-2.34 4.14 5.38 5.38 0 0 0 5.61 5.22 8.33 8.33 0 0 0 4-2.62 8.11 8.11 0 0 0 2.35-4.15 5.27 5.27 0 0 0-5.62-5.21Zm.38 2.22a2.54 2.54 0 0 1 3 2.81 11 11 0 0 1-4.4 4.71 2 2 0 0 1-2.26-.57 2.06 2.06 0 0 1-.74-2.22 10.31 10.31 0 0 1 4.39-4.73ZM345.52 33.51s3.61-1.32 3.39-3.09c0 0 .16-2-4.64-.12 0 0 5.21-1.09 1.25 3.21ZM328.89 30s3-1.26 1-6.08l-11.23 7.78s1.26 2.51 6.8 1.32c0 0-4.63.07-2.32-3.08l.27-.21v.07a1.92 1.92 0 1 0 2.32-1.8l.5-.38s3.38-1.51 2.66 2.38ZM347.17 106.27s10-4.61 9.38-14.12c0 0 .4-17.43 11.61-26.67 0 0-5-.65-15.05 9.11 0 0-8.46 9.25-5.41 13.19 0 0-10.57 5.83-10.17 14.67 0 0-.26 8.06 9.64 3.82Zm-5.83-8.85s2.65-5.79 8.58-6.59a16.69 16.69 0 0 1 7.16-15s-4.1 10.57-3 16.11c0 0 0 7.12-5.42 10-.04-.01-10.2 7.51-7.32-4.52ZM311.76 159.91s.26-14.54 1.72-17.7l-5.14-1.21-2.52 11Zm-1.83-15.86.79.13-1.19 8.58-1.59-1.69Z" style="fill:#00a663"/><path d="M419 252s-5.4-8.48-2.51-21.5a27.68 27.68 0 0 1-6.33-14.5l5.14.53a22.91 22.91 0 0 1-3.68-5.31s3 1.59 5.54 1.06c0 0-6.73-7.41-7.79-21.34 0 0-2.26 9-4.5 11.51 0 0 3.57-17.74 1.85-23.41 0 0 9.51 1.69 13.89-8.44a16.58 16.58 0 0 0 .39-13.89s-1.2-4.48-6.62-7.52c0 0 4.24-9.11-.9-13.75 0 0-.4 4.37-2.65 5.57 0 0-6 5-4.24-2.91 0 0 .4-3.71 5.69-4.75 0 0 13.33-4 12.27-15.07l-4.75 4.24a19.21 19.21 0 0 0-1.72-9.91s-2 9.24-7.78 11.22c0 0-9 3.43-9.11 11.08 0 0-2.12 12.56-4.51 2.52 0 0-1.05-7.52 9.91-14.12 0 0 18-5.43 8.18-29.06a15.45 15.45 0 0 1-1.82 6.21s-4-6.74-9.64-7.67c0 0 8.71 7.93-3.45 23.37 0 0-1.45-3.82-1.06-4.34 0 0-12.15 1.72-12.42 20.21 0 0-.13 19.55 19.55 21.9 0 0 10.7-.27 7.8 11.9 0 0-4.75 8.18-10.69.93 0 0-5.82-11-12.42-16.38 0 0-3.32-4.5-14.39-11.62 0 0-15.2-10.57-18.89-29.19a35.76 35.76 0 0 1-12.15 3.83s-9.91 22.83-35.26 7.27a40.93 40.93 0 0 0 6.24 15.2 94.68 94.68 0 0 1 .95 13.46 95.7 95.7 0 0 1-191.39 0 97.14 97.14 0 0 1 .71-11.64 41.35 41.35 0 0 0 7.42-16.9c-25.36 15.58-35.27-7.25-35.27-7.25a35.7 35.7 0 0 1-12.13-3.84c-3.71 18.62-18.89 29.18-18.89 29.18-11.1 7.13-14.41 11.63-14.41 11.63-6.6 5.41-12.42 16.38-12.42 16.38-5.94 7.26-10.67-.93-10.67-.93-2.93-12.16 7.78-11.89 7.78-11.89 19.69-2.36 19.55-21.91 19.55-21.91C57.13 113.69 45 112 45 112c.4.52-1.07 4.34-1.07 4.34C31.77 100.87 40.49 93 40.49 93c-5.69.92-9.63 7.65-9.63 7.65A15 15 0 0 1 29 94.4c-9.77 23.63 8.19 29.06 8.19 29.06 11 6.6 9.91 14.12 9.91 14.12-2.39 10-4.51-2.51-4.51-2.51-.12-7.65-9.11-11.08-9.11-11.08-5.8-2-7.78-11.23-7.78-11.23a19.21 19.21 0 0 0-1.7 9.91l-4.75-4.24C18.17 129.52 31.5 133.5 31.5 133.5c5.29 1 5.69 4.74 5.69 4.74 1.72 7.93-4.24 2.92-4.24 2.92-2.23-1.19-2.62-5.56-2.62-5.56-5.17 4.63-.93 13.75-.93 13.75-5.42 3-6.62 7.52-6.62 7.52a16.51 16.51 0 0 0 .39 13.88c4.38 10.14 13.89 8.45 13.89 8.45-1.72 5.66 1.85 23.4 1.85 23.4-2.25-2.5-4.5-11.5-4.5-11.5-1.06 13.92-7.79 21.33-7.79 21.33 2.51.55 5.54-1.06 5.54-1.06a22.17 22.17 0 0 1-3.69 5.31l5.15-.53a27.63 27.63 0 0 1-6.34 14.43c2.91 13-2.51 21.5-2.51 21.5 4.36 3.83 2.37 9.52 2.37 9.52l1.73 2.64a13 13 0 0 0 8.72-4.09C31.63 229 54.09 223 54.09 223c17.3-4.78 21.53-20.83 21.53-20.83a39.34 39.34 0 0 0 9.91-6.1c4.61-3.3 3.82 2 3.82 2C90 206.23 87 217.21 87 217.21c-2.52 6.35 4.48 4.77 4.48 4.77 21.53-3.59 23.77 8 23.77 8 16.25-9.27 2.11-13.25 2.11-13.25-2.89-.92-9.64-.53-9.64-.53-5.15-.13-5.41-1.32-5.41-1.32-2.38-.65.14-7.67.14-7.67.79-4.3 8.71-21.62 8.71-21.62 4.87-8.86-1.46-14.41-1.46-14.41-6.86-5.94-13-2.77-13-2.77-3.82.8-17.17 5.94-17.17 5.94 6.5-14.91 18.9-18.49 18.9-18.49 10.67-2.67 18.16-7.51 23.42-12.76q-.19 3.12-.2 6.3a99.74 99.74 0 0 0 199.48 0c0-2.51-.11-5-.28-7.44 5.3 5.63 13.06 10.92 24.42 13.78 0 0 12.42 3.57 18.9 18.48 0 0-13.35-5.15-17.17-5.94 0 0-6.09-3.18-13 2.78 0 0-6.34 5.54-1.46 14.39 0 0 7.92 17.33 8.71 21.62 0 0 2.52 7 .14 7.68 0 0-.26 1.19-5.41 1.32 0 0-6.73-.39-9.64.53 0 0-14.15 4 2.12 13.24 0 0 2.22-11.53 23.76-7.93 0 0 7 1.57 4.51-4.78 0 0-3.05-11-2.39-19.12 0 0-.8-5.29 3.82-2a39.34 39.34 0 0 0 9.91 6.1s4.24 16.06 21.53 20.83c0 0 22.47 6 16.5 37.12a13.09 13.09 0 0 0 8.72 4.08l1.72-2.64s-1.9-5.73 2.46-9.5ZM96.23 172s7.13-2.22 10.55 2.52c0 0 4.37 4.11.79 11.37 0 0-7.79 15-9.91 24.92 0 0-2.88 7.15 7.69 7.41l9.89.27s9.5.92 2 8.07c0 0-5.27-10.31-23.63-7.15 0 0-5 1.88-3-3.69 0 0 3.44-13.95 1.72-20 0 0-.66-7.81-8.31-2.38 0 0-6.48 4.49-6.74 4.1a58.58 58.58 0 0 0 .65-9.53s-.91-6.35.52-8.58c-.07 0 13.42-6.23 17.78-7.33Zm4.88-20.18S76 155.55 74.17 185.54c0 0 3.57 24.39-17.83 33.52a27 27 0 0 0-19.28 15.48A33.72 33.72 0 0 0 34 259.36s-2 1.71-3 1.59l-.53-.4s.65-5-1.86-8.34a40.32 40.32 0 0 0 2-21.36s5.4-5.44 6.6-18l-3 .42 3-6.49-4.5 1.45s2.38-5.21 2.38-6.4.4.27.4.27 3.31 8.77 10.17 9.29c0 0-8.85-19.87-4.5-35.61 0 0-7.52 3.17-12.27-2.4 0 0-12.41-13.84 4.08-23.09 0 0-2.88-4.1-2-7.27 0 0 5.93 4.49 8.19 1.31 0 0 4.6-4.87-3.32-11.74a10.31 10.31 0 0 0-3.57-1.06s-5.15-1.71-7.26-4.89l1.19.26.67-3.95s3.57 3.56 7 4.22c0 0 6.35 2.65 6.09 8.71 0 0 1.3 8.45 4.88 8.85 0 0 8.31-1.06 4.36-12.66 0 0-1.45-7.15-11.1-11.24 0 0-10.43-4.76-9.11-16l1.08 1.17s3.41-5 4.07-4.49c0 0 .4 14 12 19.83 0 0 .39-.27 1.32-4.38 0 0 10.83 5 5.67 22.07 0 0-4.87 11.63-15 11.76 0 0-11.76-.53-11.62 12.93 0 0 .13 6.76 5.28 8.31 0 0 7 4.11 11.88-3.41a61 61 0 0 1 12.82-17.7 80.15 80.15 0 0 1 11.63-8.45s14.65-8.6 20.45-28.52c0 0 6.1 2.35 7.94 2.09 0 0 8.72 19.15 32.1 11.37a44.07 44.07 0 0 1-27.5 24.45Zm258.72 41.35c-7.65-5.43-8.31 2.37-8.31 2.37-1.72 6.1 1.72 20 1.72 20 2 5.57-3.05 3.68-3.05 3.68-18.36-3.16-23.63 7.16-23.63 7.16-7.52-7.16 2-8.08 2-8.08l9.91-.25c10.54-.27 7.66-7.42 7.66-7.42-2.13-10-9.91-24.93-9.91-24.93-3.58-7.25.79-11.35.79-11.35 3.41-4.76 10.57-2.53 10.57-2.53 4.35 1.06 17.83 7.29 17.83 7.29 1.45 2.23.53 8.58.53 8.58a56.87 56.87 0 0 0 .66 9.52c-.27.48-6.77-4-6.77-4Zm53.51 67.21-.53.39c-1.05.14-3-1.58-3-1.58a33.61 33.61 0 0 0-3-24.82 27 27 0 0 0-19.28-15.49c-21.38-9.13-17.83-33.52-17.83-33.52-1.85-30-26.94-33.67-26.94-33.67a44 44 0 0 1-27.47-24.45c23.39 7.79 32.11-11.37 32.11-11.37 1.82.27 7.91-2.09 7.91-2.09 5.81 19.93 20.48 28.53 20.48 28.53a80.36 80.36 0 0 1 11.6 8.45 60.9 60.9 0 0 1 12.83 17.7C405 176 412 171.91 412 171.91c5.14-1.56 5.27-8.31 5.27-8.31.14-13.46-11.63-12.93-11.63-12.93-10.16-.14-15-11.77-15-11.77-5.15-17 5.67-22.06 5.67-22.06.93 4.12 1.32 4.37 1.32 4.37 11.63-5.82 12-19.82 12-19.82.67-.52 4.1 4.49 4.1 4.49l1-1.17c1.33 11.2-9.11 16-9.11 16-9.64 4.08-11.07 11.22-11.07 11.22-4 11.61 4.35 12.66 4.35 12.66 3.57-.39 4.9-8.84 4.9-8.84-.28-6.07 6.06-8.72 6.06-8.72 3.44-.65 7-4.2 7-4.2l.67 3.94 1.19-.26c-2.12 3.17-7.26 4.9-7.26 4.9a9.76 9.76 0 0 0-3.57 1.06c-7.93 6.85-3.3 11.73-3.3 11.73 2.24 3.18 8.19-1.3 8.19-1.3.92 3.15-2 7.26-2 7.26 16.5 9.25 4.08 23.1 4.08 23.1-4.75 5.57-12.27 2.38-12.27 2.38 4.35 15.74-4.5 35.62-4.5 35.62 6.87-.52 10.17-9.29 10.17-9.29s.4-1.45.4-.27 2.39 6.4 2.39 6.4l-4.51-1.45 3 6.48-3-.42c1.19 12.58 6.62 18 6.62 18a40.14 40.14 0 0 0 2 21.36c-2.48 3.3-1.82 8.35-1.82 8.35Z" style="fill:#00a663"/><path d="M332.37 225.41a7.1 7.1 0 0 0-2.38 7.42s8.07-2 9.12-7.68c0 0-1.84 1.58-6.74.26Zm-.54 4.92c-.53-1.33.8-2.81.8-2.81a4 4 0 0 0 2.51.41 9 9 0 0 1-3.31 2.4ZM320.1 224.62s-9.25 4.52-11.37 9.13c0 0 16.12 2.27 17 2.27l1.59-5s-6.96-5.87-7.22-6.4Zm3.15 8.87c-1.59-1.32-9-2.24-9-2.24 5.55-4.13 5.82-3.73 5.82-3.73l4.35 4.12ZM418.88 254.58s-4 3.58-.66 9c0 0 7.66-2 9.91-9.79 0 .01-5.02 1.98-9.25.79Zm.53 5.7a3.63 3.63 0 0 1 .66-2.93l2.65.15a4.82 4.82 0 0 1-3.31 2.78ZM391.28 273.67s12.15 2.11 21.13-1.88c0 0 1.59-6.21 2.23-6.48a18.91 18.91 0 0 1-9.11-4 46.17 46.17 0 0 0-14.25 12.36Zm19.41-6.67-.79 2.11c-5.67 3.17-13.22 2.78-13.22 2.78 5.57-5.55 9-7.16 9-7.16.25.58 5.01 2.27 5.01 2.27ZM94.88 30.55c-.23 1.77 3.38 3.08 3.38 3.08-4-4.29 1.24-3.2 1.24-3.2-4.79-1.85-4.62.12-4.62.12ZM114.92 30.15c-.72-3.91 2.63-2.44 2.63-2.44l.49.38a1.91 1.91 0 1 0 2.35 1.91v-.07l.27.19c2.31 3.16-2.32 3.09-2.32 3.09 5.56 1.2 6.8-1.32 6.8-1.32l-11.21-7.79c-2.05 4.79.99 6.05.99 6.05Z" style="fill:#00a663"/><path d="M79.4 18.5c8.27.7 7.83 2.83 7.83 2.83L81 19.92l1.77 6-7.22-2.11c1.6 4.23 6.25 10.3 6.25 10.3l-3.44-.45c2.38 8.82 10.57 16.82 10.57 16.82 8.8 8.72 16.3 8.8 16.3 8.8 9.16 6.71 9.6 21.32 9.6 21.32 13 8.54 15.89 25.05 15.89 25.05 2.57 4.82 4.31 2.47 5 1.18v-.06a.59.59 0 0 0 0 .08c0-.07.07-.13.1-.2a6.35 6.35 0 0 0 .32-.62 95.73 95.73 0 0 1 170.57-.16l.17.18s1.45 2.23 3 2.35c.86.18 1.94-.4 3.27-2.86 0 0 2.86-16.52 15.9-25.06 0 0 .44-14.61 9.6-21.32 0 0 7.48-.08 16.28-8.8 0 0 8.19-8 10.57-16.81L362 34s4.68-6.07 6.24-10.3L361 25.76l1.76-6-6.24 1.4s-.44-2.12 7.84-2.82c0 0 10.3-.71 14.51-9.87 0 0 2.38-5.11-.09-6.5 0 0-2.45-2.29-6.78 2.53 0 0-2.55 3.09-2.82 5 0 0-.7 1.24-1.75 1.06 0 0 .08-6.19-3.34-6.19 0 0-2.91-.35-4.07 5.22a11.94 11.94 0 0 0-.34 2.55s-1.59 3.07-7.4 4.75l-.71-4.59-8.27 3.53a6.41 6.41 0 0 1 5.75-3.83s8-1.24 10.12-6.88c0 0 2.83-7.66-4.83-4.31a19.16 19.16 0 0 0-4.51 3.63s-3.58-6.73-6.17 2.28a8.64 8.64 0 0 1-5.7 5l-1-1.28a52.18 52.18 0 0 0-5.33 6.92s-4.09-.33-6.7 1.49a9.8 9.8 0 0 1-8.51.39 34.59 34.59 0 0 0 1.82 6 20.47 20.47 0 0 1-4.77-.2l2.53 8.43s-12 1.6-17.57 4.27l-2.25-1.25a9.83 9.83 0 0 1 3.94-3.65s5-2 6.21-6.62c0 0 .72-5 7.08-9.35 0 0 1.43-1.33 5.27-2.22a14.53 14.53 0 0 0 9.11-4.28s2.89-3.11 3-5.89h-3.32s-1.22 5.39-8.78 7.44a20.37 20.37 0 0 0-10.57 5.61 24.31 24.31 0 0 0-5.43 8.88s-1.14 3.11-5.76 5.67a12.71 12.71 0 0 0-6.18 9.05h-.72l-.56 5.75-4.87 1.59 9.4 5.38s5.56-6.1 12.23-8.82c0 0 7.19-4 12.65-4 0 0-4.74 4.27-5.72 6 0 0-2.92-1.49-7.76 1.26a24.2 24.2 0 0 0-6.06 4.64 14.38 14.38 0 0 1-5.47 4.51s-5 2.38-8.65-.53c0 0-.32 4 5.43 4a11.72 11.72 0 0 0 9.61-5.57s5.94-6.3 11.18-6.23a28.6 28.6 0 0 1-6.54 7.68 17.2 17.2 0 0 1-9 4.62s6.57 4.56 13.35 0c0 0 4-3 5.38-5.18 0 0 5.29-7 10.4-9.25 0 0 8.12-3.64 7.46 2.48a11 11 0 0 1-4.15 5.11 24.05 24.05 0 0 0-5.8 9.94 25 25 0 0 0-1.11 7.6 26 26 0 0 0-9 7.88s-4 5.38-5.57 15.37l.26 3a99.77 99.77 0 0 0-170.2-2v-.87c-1.6-10-5.58-15.36-5.58-15.36a25.91 25.91 0 0 0-9-7.89 25.33 25.33 0 0 0-1.12-7.59 24 24 0 0 0-5.8-10 11 11 0 0 1-4.15-5.1c-.66-6.13 7.46-2.48 7.46-2.48 5.13 2.27 10.41 9.24 10.41 9.24 1.35 2.19 5.36 5.18 5.36 5.18 6.79 4.6 13.36 0 13.36 0a17.36 17.36 0 0 1-9-4.62 28.37 28.37 0 0 1-6.52-7.68c5.23-.07 11.17 6.24 11.17 6.24a11.69 11.69 0 0 0 9.63 5.57c5.75 0 5.43-4 5.43-4-3.61 2.93-8.65.54-8.65.54a14.31 14.31 0 0 1-5.46-4.51 24.16 24.16 0 0 0-6.07-4.64c-4.82-2.75-7.75-1.26-7.75-1.26-1-1.72-5.73-6-5.73-6 5.46 0 12.65 4 12.65 4 6.66 2.73 12.23 8.83 12.23 8.83l9.37-5.35-4.87-1.59-.56-5.75h-.72a12.66 12.66 0 0 0-6.17-9c-4.61-2.55-5.77-5.67-5.77-5.67a24.31 24.31 0 0 0-5.43-8.88 20.28 20.28 0 0 0-10.57-5.6c-7.56-2.05-8.78-7.45-8.78-7.45H113c.11 2.78 3 5.9 3 5.9a14.61 14.61 0 0 0 9.12 4.28c3.84.88 5.26 2.21 5.26 2.21 6.37 4.31 7.09 9.35 7.09 9.35 1.2 4.61 6.21 6.63 6.21 6.63a9.77 9.77 0 0 1 3.93 3.64l-2.24 1.25c-5.54-2.68-17.57-4.27-17.57-4.27l2.52-8.42a21 21 0 0 1-4.77.21 33.92 33.92 0 0 0 1.82-6 9.85 9.85 0 0 1-8.51-.39c-2.62-1.82-6.7-1.49-6.7-1.49a52.35 52.35 0 0 0-5.33-6.92l-1 1.28a8.66 8.66 0 0 1-5.72-5C97.54-2.11 94 4.61 94 4.61A19.16 19.16 0 0 0 89.44 1c-7.66-3.34-4.84 4.3-4.84 4.3 2.12 5.65 10.13 6.89 10.13 6.89a6.41 6.41 0 0 1 5.72 3.77l-8.28-3.52-.7 4.56c-5.8-1.68-7.39-4.75-7.39-4.75a12.48 12.48 0 0 0-.35-2.55c-1.16-5.56-4.07-5.21-4.07-5.21-3.41 0-3.33 6.19-3.33 6.19-1.06.17-1.77-1.08-1.77-1.08-.26-1.85-2.82-4.94-2.82-4.94C67.44-.16 65 2.13 65 2.13c-2.48 1.39-.09 6.52-.09 6.52 4.18 9.14 14.49 9.85 14.49 9.85Zm274.6.62c4.7-2.34 6-4.1 6-4.1 1.71-1.15 2.12-4.84 2.12-4.84.08-2.73 1.58-2.65 1.58-2.65 1.38-.08 1.38 1.86 1.38 1.86a11.21 11.21 0 0 1 0 3.9c4.83-.13 6.59-3.42 6.59-3.42A8.94 8.94 0 0 1 373.76 6c1.85-1.76 2.78-.92 2.78-.92 1.16.62.21 3 .21 3-.65 2.2-4.31 5-4.31 5-2.7 2.52-9.52 3.31-9.52 3.31-5.36.75-7.39 2.46-7.39 2.46a21.27 21.27 0 0 0-6.61 7.75h-3.07C348 23 354 19.12 354 19.12Zm-8.77-11.45c.27-3.36 1.59-3 1.59-3 1.45-.09 1.63 3.19 1.63 3.19a4.8 4.8 0 0 0 2.67-1.95 37 37 0 0 1 3.18-2.64c4.21-1.65 2.08 2.12 2.08 2.12a11.64 11.64 0 0 1-7.5 4.36 14.34 14.34 0 0 0-5.5 2.38 6.81 6.81 0 0 0-3.32 5l-1.21-2.87c6.03-3.26 6.38-6.59 6.38-6.59Zm-49.76 30.07-.47 4.52-1.3-.35s.54-3.11 1.77-4.17Zm16.81 47.75c5.24-9.84 11.24-10.9 11.24-10.9.79-14.21 8.53-19.73 8.53-19.73 6-5.75 2-9.68 2-9.68-4.57-4.06-13.29 1.24-13.29 1.24-4.54 2.37-9.12 9-9.12 9-4 5.49-7.26 4.91-7.26 4.91 4.49-2.52 9.76-10.47 9.76-10.47 4.21-6.38 11.77-10.33 11.77-10.33C318.25 35.49 304.5 43 304.5 43a37.17 37.17 0 0 0-11.19 7.69l-2.8-1.7.62-.57 1 .88 1.56-1.1a11.19 11.19 0 0 1-.08-3.66l2.91.31 1-4.75.8.29a67.47 67.47 0 0 1 8.76-2.81c1.89-.64 12.33-1.67 12.33-1.67l-2.51-8.22 4.53.17a18.24 18.24 0 0 1-1.31-5.3 13.87 13.87 0 0 0 6.16-1.3c4.61-2 6.37-1 6.37-1 2.83-4.33 3.93-4.81 3.93-4.81l2.43 5 10.15-4.23.26 3.71c-2 1.54-9.55 10.26-9.55 10.26l-2.27-1.73 2.84-1.85-4-2.47 2.2-3.2-4.41-1.41-1.23 1.66 1.63 1-1.9 2.47 2.47 1.81-2.87 1.81 6.31 3.73-.22.57 1.74 1.42.22-.3c3.44-6.32 10.13-4.39 10.13-4.39a6.3 6.3 0 0 1-2.86 6 5.51 5.51 0 0 1-6.08-.1l-.23-.22-3.6 2.25.12 1.47-2.19-1L334 39.2l-.84-2.2-4.34.79.13 2 2.22-.32 1.83 4.34 3.45-3.24 5 2.25-.86-4.88 1.13-.79c8.12 3.28 10.7-4 10.7-4 .6-4.81 1.72-6 1.72-6-2.13.14-2.18-.07-2.18-.07a5 5 0 0 1 1.58-3.16l4.88-.41-2.16 6.3 5.46-.93c-.72 1.52-6.13 8.65-6.13 8.65l4.48-.27C352.84 53.38 336.66 57 336.66 57c-10.63 6.66-10.5 22-10.5 22-7.25 5.63-8.51 9-8.51 9-4.84 5.63-7 15.73-7 15.73-.26 1.55-.64 1.21-.87.82l-.27-.76c-2.17-9.47 2.77-18.3 2.77-18.3ZM150.07 42l-1.28.36-.49-4.53c1.24 1.1 1.77 4.17 1.77 4.17ZM100.4 12.25a14.27 14.27 0 0 0-5.48-2.38 11.63 11.63 0 0 1-7.51-4.36s-2.15-3.78 2.07-2.12A33.88 33.88 0 0 1 92.66 6a4.75 4.75 0 0 0 2.69 2s.18-3.29 1.65-3.2c0 0 1.32-.35 1.59 3 0 0 .35 3.31 6.4 6.6l-1.24 2.87a6.83 6.83 0 0 0-3.35-5.02Zm-5.8 4.1 10.18 4.22 2.4-5s1.1.49 3.92 4.81c0 0 1.77-1 6.38 1a13.86 13.86 0 0 0 6.18 1.3 17.91 17.91 0 0 1-1.33 5.3l4.53-.17-2.5 8.23s10.43 1 12.32 1.67a67.79 67.79 0 0 1 8.75 2.8l.79-.29 1 4.75 2.91-.3a11.31 11.31 0 0 1-.09 3.66l1.59 1.1 1-.88.61.57-2.81 1.69a37 37 0 0 0-11.19-7.69s-13.73-7.52-21.39-3.47c0 0 7.56 4 11.75 10.34 0 0 5.28 7.94 9.78 10.47 0 0-3.22.57-7.26-4.92 0 0-4.59-6.64-9.11-9 0 0-8.72-5.3-13.3-1.24 0 0-4 3.93 2 9.68 0 0 7.74 5.52 8.53 19.73 0 0 6 1.06 11.23 10.9 0 0 5.08 9 2.7 18.63 0 0-.64 1.9-1-.4 0 0-2.19-10.11-7-15.74 0 0-1.26-3.35-8.52-9 0 0 .14-15.31-10.5-22 0 0-16.18-3.64-23.36-19.81l4.47.25s-5.4-7.12-6.13-8.65l5.47.94-2.2-6.23 4.87.39a5.06 5.06 0 0 1 1.6 3.18s-.07.2-2.19.07c0 0 1.13 1.19 1.72 6 0 0 2.58 7.33 10.7 4l1.13.79-.86 4.97 5-2.25 3.45 3.24 1.78-4.41 2.25.33.14-2-4.37-.79-.79 2.25-1.72-1.53-2.19 1 .14-1.45-3.62-2.25-.22.21a5.5 5.5 0 0 1-6.08.09 6.26 6.26 0 0 1-2.87-6s6.69-1.95 10.13 4.39l.22.3 1.77-1.37-.22-.57 6.29-3.73-2.88-1.81 2.48-1.81-1.9-2.47 1.64-1-1.24-1.68-4.39 1.41 2.18 3.2-4 2.47 2.84 1.85-2.27 1.72s-7.48-8.72-9.56-10.25ZM67.26 5.24s.92-.84 2.76.92A8.87 8.87 0 0 1 72.13 10s1.77 3.28 6.6 3.41a11.19 11.19 0 0 1 0-3.9s0-1.94 1.38-1.85c0 0 1.5-.09 1.58 2.64 0 0 .4 3.68 2.12 4.84 0 0 1.28 1.77 6 4.09 0 0 6 3.92 8.14 7.58h-3.06A21.35 21.35 0 0 0 88.24 19s-2-1.72-7.39-2.48c0 0-6.82-.79-9.51-3.3 0 0-3.63-2.84-4.3-5.05-.04.03-.98-2.31.22-2.93ZM96.61 106.41c9.9 4.23 9.64-3.82 9.64-3.82.4-8.85-10.15-14.68-10.15-14.68 3-3.94-5.43-13.19-5.43-13.19-10-9.77-15-9.11-15-9.11 11.23 9.24 11.61 26.67 11.61 26.67-.69 9.51 9.33 14.13 9.33 14.13Zm-9.89-30.5a16.65 16.65 0 0 1 7.13 15c5.93.79 8.59 6.59 8.59 6.59 2.91 12-7.27 4.51-7.27 4.51-5.42-2.91-5.42-10-5.42-10 1.06-5.53-3.03-16.1-3.03-16.1ZM130.3 142.35c1.45 3.15 1.72 17.7 1.72 17.7l5.94-7.93-2.52-11Zm3.95 10.55-1.17-8.59.78-.13 2 7ZM111.41 225.55c-4.9 1.32-6.73-.28-6.73-.28 1.06 5.72 9.12 7.69 9.12 7.69a7 7 0 0 0-2.39-7.41Zm.54 4.9a8.94 8.94 0 0 1-3.32-2.38 4 4 0 0 0 2.52-.41s1.32 1.48.85 2.79ZM123.71 224.76c-.27.51-7.29 6.35-7.29 6.35l1.59 5c.92 0 17-2.28 17-2.28-2.01-4.56-11.3-9.07-11.3-9.07Zm-3.19 8.86-1.18-1.84 4.37-4.12s.25-.4 5.8 3.72c0 0-7.4.93-8.99 2.24ZM24.9 254.72c-4.22 1.19-9.25-.79-9.25-.79 2.25 7.81 9.91 9.78 9.91 9.78 3.31-5.4-.66-8.99-.66-8.99Zm-.53 5.7a4.77 4.77 0 0 1-3.29-2.79l2.63-.13a3.57 3.57 0 0 1 .66 2.92ZM38.25 261.47a18.84 18.84 0 0 1-9.12 4c.67.28 2.23 6.49 2.23 6.49 9 4 21.14 1.86 21.14 1.86a46.39 46.39 0 0 0-14.25-12.35Zm-4.37 7.81-.79-2.1s4.76-1.74 5-2.28c0 0 3.42 1.61 9 7.15.01 0-7.52.4-13.21-2.77Z" style="fill:#00a663"/><path d="M221.51 75.34A74.53 74.53 0 1 1 147 149.87a74.51 74.51 0 0 1 74.51-74.53ZM76.78 76.62s5.35 5.36 4.91 16.9c0 0-.53 7.13 6.6 12.58 0 0 6.36 6.18 13.75 5.47 0 0 8.62 19.9 32 6.68 0 0 2.2-1.67 3.08 1a41.36 41.36 0 0 1 3 14.18v1.92l-3.27 4.86 2 9.42s5-8 6-8.8v-.05A77.22 77.22 0 1 0 298 139l.4.68c0 .91 0 1.55.1.17l.5.81c1 .8 6 8.81 6 8.81l2-9.42-3.27-4.86v-1.92a41.45 41.45 0 0 1 3-14.19c.88-2.65 3.08-1 3.08-1 23.32 13.22 31.95-6.68 31.95-6.68 7.39.7 13.75-5.47 13.75-5.47 7.13-5.45 6.6-12.59 6.6-12.59-.46-11.49 4.89-16.85 4.89-16.85a54 54 0 0 0 7.75-9.24c8.44-12.08 5.63-15.6 5.63-15.6-7 8-18.14 9.76-18.14 9.76C341.3 68 343.6 84.76 343.6 84.76a55.64 55.64 0 0 0-10.22 10.74c-6.68 9.34-2.56 13.56-2.56 13.56 3 2.38-.78 2-.78 2-5.73-2.21-1.32-12.33-1.32-12.33 2.45-7.3 13.46-15.48 13.46-15.48-1.32-11.82 5-16.56 5-16.56 9.25-8.27 16.29-8.53 16.29-8.53 15.4-2.74 16.81-17.81 16.81-17.81-6.77 5.29-7.12 4.15-7.12 4.15 4.12-16.29-3.1-22.64-3.1-22.64-1.41 15.25-10 24.05-10 24.05-12.06 14.27-21.38 15.15-21.38 15.15a34.24 34.24 0 0 0-7.15 13.75c-1.06 7.57-4.66 10.12-4.66 10.12a36.93 36.93 0 0 0-12.34 20c-.7 4.21-4.2 4.13-4.2 4.13-6.09.25-9-1.51-9-1.51a13.92 13.92 0 0 0-7.23 9 44.68 44.68 0 0 1 1.32 8.55l.27 3.37a77.23 77.23 0 0 0-147.35-3.29 44.26 44.26 0 0 1 1.32-8.5 13.94 13.94 0 0 0-7.21-9s-2.92 1.76-9 1.49c0 0-3.53.1-4.24-4.12a36.85 36.85 0 0 0-12.34-20s-3.59-2.56-4.65-10.13a34.33 34.33 0 0 0-7.12-13.74s-9.34-.89-21.4-15.13c0 0-8.64-8.81-10-24 0 0-7.21 6.34-3.09 22.63 0 0-.36 1.14-7.12-4.15 0 0 1.41 15.07 16.81 17.81 0 0 7 .26 16.29 8.54 0 0 6.35 4.74 5 16.55 0 0 11 8.18 13.48 15.48 0 0 4.4 10.13-1.32 12.34 0 0-3.79.35-.79-2 0 0 4.12-4.21-2.56-13.54a54.85 54.85 0 0 0-10.22-10.75s2.3-16.72-18.67-23.34c0 0-11.18-1.77-18.13-9.78 0 0-2.83 3.53 5.62 15.6a52.86 52.86 0 0 0 7.78 9.18ZM302 110.73c6.17 2 8.82.71 8.82.71 5.62-.71 5.89-3.71 5.89-3.71a33.74 33.74 0 0 1 1.14-3.33 35.42 35.42 0 0 1 12.5-18.14c2.81-1.68 3.6-7.5 3.6-7.5.81-7.83 7.32-15.58 7.32-15.58a39.83 39.83 0 0 0 15-8.54C367.54 44.52 370.72 34 370.72 34c2 3-1.51 15.08-1.51 15.08L374 47.6a13 13 0 0 1-10.57 8C355.05 56.31 348 62 348 62c-12.67 10.67-8.29 19.74-8.29 19.74-16.46 11.88-15.93 23.6-15.93 23.6-.61 8.72 6.52 8.36 6.52 8.36 3.7.09 4.32-2 4.32-2 1.59-1.85-.35-1.85-.35-1.85-3.63-1.85-1.16-8.28-1.16-8.28 3.36-8.89 13.4-15.92 13.4-15.92-1.15-10.93 8.62-17.28 8.62-17.28 6.52-4.84 10.05-4.92 10.05-4.92a27.16 27.16 0 0 0 9.6-3.53c-.44 4.77-9.78 14.54-9.78 14.54-5.74 4.91-5.74 14.54-5.74 14.54a21.23 21.23 0 0 1-.79 7.83c-6.51 14.27-19.27 12.25-19.27 12.25-7.59 17.87-28.09 7.12-28.09 7.12-4.67-3.33-6 .26-6 .26-5.09 8.46-4.21 19.11-4.21 19.11l3.6 5.12-.89 1.94-4.88-6.36c0-.6.1-1.28.14-2 .79-11.87-2-17.7-2-17.7.85-2.04 5.13-5.84 5.13-5.84ZM78.6 63.58s3.53.09 10 4.92c0 0 9.78 6.35 8.63 17.28 0 0 10 7 13.39 15.93 0 0 2.48 6.41-1.14 8.28 0 0-2 0-.36 1.85 0 0 .62 2.12 4.33 2 0 0 7.12.35 6.5-8.36 0 0 .53-11.72-15.92-23.61 0 0 4.39-9.07-8.28-19.72 0 0-7.06-5.72-15.42-6.42a13 13 0 0 1-10.57-8l4.76 1.51S71 37.17 73.06 34.17c0 0 3.19 10.48 14.52 20.6a39.58 39.58 0 0 0 15 8.54s6.51 7.74 7.31 15.58c0 0 .79 5.83 3.62 7.5A35.44 35.44 0 0 1 126 104.53a34.08 34.08 0 0 1 1.15 3.33s.49 3 5.91 3.71c0 0 3.12.75 8.81-.71 0 0 4.21 3.8 5.1 5.8 0 0-2.83 5.83-2 17.71.06.74.1 1.42.14 2l-4.88 6.37-.89-1.94 3.63-5.13s.86-10.65-4.24-19.1c0 0-.92-3.43-6-.27 0 0-20.52 10.75-28.08-7.13 0 0-12.78 2-19.29-12.23a21 21 0 0 1-.79-7.84s0-9.6-5.74-14.52c0 0-9.34-9.76-9.78-14.54a27.39 27.39 0 0 0 9.55 3.54Z" style="fill:#00a663"/></svg>