<svg xmlns="http://www.w3.org/2000/svg" viewBox="0 0 437.21 321.26"><path d="M289 130.11c-.43-.75-3.1-.09-4.95.71.14-.92.25-1.82.35-2.71 1.91-.22 5.93-6.89 4.69-8.12-.59-.55-2.77.61-4.29 1.76v-2.32c1.93-1.2 5.06-6.48 3.93-7.6-.61-.55-2.83.66-4.29 1.82a45.39 45.39 0 0 0-.45-3.58c1.69-.76 3.71-7.49 2.32-8.26-.66-.36-2.34 1.15-3.44 2.53a66.66 66.66 0 0 0-1.19-4.35c1.4-1.73 2.57-7.22 1.24-7.85-.65-.29-2.09 1.13-3.06 2.51-.37-1-.78-1.94-1.19-2.89 1-1.68.63-7.71-.87-8-.51-.07-1.23 1-1.79 2.28-.28-.54-.56-1.09-.85-1.59 1.29-1.21 1-8-.57-8.3-.74-.12-1.8 1.82-2.33 3.42-.14-.25-.31-.52-.48-.77 1.13-1.46.75-7.85-.78-8.1-.71-.13-1.79 2-2.32 3.65-.45-.6-.88-1.21-1.34-1.8 1.15-1.11.52-7.78-1-8-.81-.07-1.92 2.73-2.2 4.3l-.79-.82c.33-1.94-1.62-7.12-3-7-.56.11-.91 1.61-1 3-.69-.61-1.38-1.22-2.05-1.77.38-1.89-1.52-7-2.82-6.81-.71.08-1.14 2.33-1.14 4-.89-.6-1.82-1.17-2.74-1.67-.21-2.21-1.74-5.73-2.85-5.6-.7.06-1.06 2.19-1.06 3.77-.85-.32-1.71-.65-2.54-.87 0 0 0-.08-.06-.11-3.23-1.8-6.38-3.07-9.4-2.07.91 3 6.78 3.27 8.81 2.71a24.56 24.56 0 0 1 3.2 1.14 3.56 3.56 0 0 0 .15.71c-1.43 0-5.72 1.62-4.11 1.89 3 .52 6.82 1.16 7.71-.08a3 3 0 0 0 .15-.54c1 .56 1.92 1.16 2.89 1.84a.88.88 0 0 0 .09.3c-1.43 0-5.91 1.7-4.2 2 2.81.48 6.09 1 7.4.25.84.69 1.69 1.42 2.53 2.22a3.48 3.48 0 0 0 .18 1.22c-1.43 0-6 1.79-4.3 2 2.88.49 6.25 1 7.65.24l.72.86c-1.83-.15-5.6.42-4.15 1.07 2.41 1.06 5.2 2.22 6.89 2.16.74.92 1.46 1.86 2.16 2.85V76c-1.44-.45-6.63-.07-5 .72 2.66 1.29 5.76 2.82 7.47 2.6.36.61.76 1.22 1.13 1.84v.22c-1.53-.45-6.64 0-5 .81 2.45 1.23 5.36 2.6 7.11 2.57.49.92.93 1.88 1.39 2.8a4.28 4.28 0 0 0-.26 1.52c-1.42-.45-6.63-.09-5 .72 2.66 1.29 5.69 2.77 7.44 2.58.48 1.2 1 2.41 1.39 3.65a1.81 1.81 0 0 0-.15.5c-1.33-.82-6.43-1.88-5.09-.64 2.29 2 5 4.55 6.71 4.65.41 1.36.81 2.73 1.13 4.13.07.38.18.8.28 1.21a.46.46 0 0 1-.07.14c-1.25-1-6.44-2.42-5.1-1.08 2 2 4.22 4.38 5.91 5 .23 1.54.41 3.19.57 4.94-1.09-1.24-5.91-4-4.92-2.32 1.54 2.8 3.43 6.13 5.14 6.91q0 1.73-.06 3.57a.86.86 0 0 0-.07.1c-1.06-1.34-6.09-4.23-5.12-2.42 1.56 2.66 3.25 5.65 4.85 6.82-.14 1.37-.36 2.77-.63 4.18-.79-1.61-5.1-5.8-4.57-3.75.93 3.32 2 7.26 3.51 8.54-.38 1.49-.83 3-1.38 4.51-.63-2.13-3.38-6.73-3.38-4.62 0 3.67 0 8.12 1.37 9.68-.54 1.16-1.13 2.33-1.75 3.49-.29-2.08-3-7.66-3.2-5.38-.31 3.71-.62 8.15.45 10-.5.78-1 1.55-1.6 2.32a7.7 7.7 0 0 0-.82.23c.09-1.79-2.79-7.07-3.32-5-1.06 4-2.43 9-.18 9.86a1.53 1.53 0 0 0 .25.06c-.48.55-.95 1.09-1.47 1.64-.1-2.25-1.75-6.57-2.52-4.76-1.59 3.5-3.52 7.65-2.16 9.31-.8.72-1.62 1.4-2.49 2.12.31-2.11-.75-7-1.82-5.24-2.17 3.41-4.8 7.43-3.25 9.14-.5.33-1 .67-1.51 1 .09-2.3-.88-6.28-1.87-4.68-1.83 2.85-4 6.18-3.68 8.19-1 .61-2.12 1.2-3.21 1.8a4.54 4.54 0 0 0-1-.05c.71-1.8-.44-8-1.69-6-2.16 3.32-4.73 7.37-3.61 9.25v.08c-1.82.83-3.16 1.84-5.91 1.52a24.42 24.42 0 0 0-12.47 2 24.44 24.44 0 0 0-12.47-2c-2.78.32-4.12-.69-5.93-1.52v-.08c1.14-1.88-1.44-5.93-3.6-9.25-1.26-2-2.42 4.21-1.7 6a4.37 4.37 0 0 0-1 .05c-1.11-.6-2.18-1.19-3.22-1.8.31-2-1.84-5.34-3.68-8.19-1-1.6-2 2.38-1.86 4.68-.5-.35-1-.69-1.52-1 1.56-1.71-1.08-5.73-3.26-9.14-1.06-1.72-2.13 3.13-1.81 5.24-.85-.72-1.7-1.4-2.49-2.12 1.35-1.66-.56-5.81-2.13-9.31-.81-1.81-2.44 2.51-2.56 4.76-.5-.55-1-1.09-1.45-1.64a1.55 1.55 0 0 0 .23-.06c2.25-.9.9-5.83-.18-9.86-.52-2.05-3.4 3.23-3.3 5-.21-.07-.5-.15-.84-.23-.56-.77-1.09-1.54-1.6-2.32 1.07-1.83.78-6.27.47-10-.18-2.28-2.91 3.3-3.2 5.38-.63-1.16-1.21-2.33-1.74-3.49 1.34-1.56 1.36-6 1.36-9.68 0-2.11-2.77 2.49-3.41 4.62-.52-1.52-1-3-1.37-4.51 1.54-1.28 2.59-5.22 3.51-8.54.55-2.05-3.76 2.14-4.57 3.75-.25-1.41-.46-2.81-.64-4.18 1.62-1.17 3.33-4.16 4.87-6.82 1-1.81-4 1.08-5.11 2.42a.9.9 0 0 0-.09-.1c0-1.23-.06-2.42-.05-3.57 1.71-.78 3.6-4.11 5.16-6.91 1-1.69-3.86 1.08-4.92 2.32.12-1.75.33-3.4.55-4.94 1.69-.67 3.93-3 5.9-5 1.34-1.34-3.84.08-5.1 1.08a.78.78 0 0 0 0-.14c.09-.41.17-.83.28-1.21.32-1.4.72-2.77 1.11-4.13 1.71-.1 4.43-2.6 6.73-4.65 1.32-1.24-3.77-.18-5.11.64a2.24 2.24 0 0 0-.15-.5c.46-1.24.91-2.45 1.41-3.65 1.74.19 4.78-1.29 7.44-2.58 1.6-.81-3.59-1.17-5-.72a4.22 4.22 0 0 0-.25-1.52c.46-.92.9-1.88 1.4-2.8 1.75 0 4.63-1.34 7.09-2.57 1.61-.81-3.49-1.26-5-.81v-.22c.38-.62.74-1.23 1.14-1.84 1.7.22 4.79-1.31 7.45-2.6 1.6-.79-3.59-1.17-5-.72a1.13 1.13 0 0 0 0-.26c.71-1 1.42-1.93 2.15-2.85 1.68.06 4.48-1.1 6.91-2.16 1.45-.65-2.32-1.22-4.18-1.07.25-.28.5-.57.74-.86 1.41.8 4.77.25 7.65-.24 1.71-.25-2.88-2-4.3-2a3.22 3.22 0 0 0 .19-1.22c.84-.8 1.67-1.53 2.53-2.22 1.29.77 4.58.23 7.4-.25 1.71-.26-2.77-2-4.2-2a1.79 1.79 0 0 0 .09-.3c1-.68 1.92-1.28 2.88-1.84a1.27 1.27 0 0 0 .16.54c.91 1.24 4.66.6 7.7.08 1.61-.27-2.69-1.89-4.13-1.89a1.79 1.79 0 0 0 .15-.71 26 26 0 0 1 3.23-1.14c2 .56 7.92.27 8.83-2.71-3.06-1-6.2.27-9.43 2.07 0 0 0 .06-.05.11a25.41 25.41 0 0 0-2.54.87c0-1.58-.38-3.71-1.07-3.77-1.12-.13-2.63 3.39-2.87 5.6-.91.5-1.82 1.07-2.76 1.67 0-1.63-.38-3.88-1.09-4-1.32-.16-3.23 4.92-2.82 6.81-.69.55-1.38 1.16-2.07 1.77-.1-1.43-.47-2.93-1-3-1.41-.14-3.38 5-3 7-.26.27-.53.53-.79.82-.28-1.57-1.4-4.37-2.19-4.3-1.53.27-2.15 6.94-1 8-.47.59-.91 1.2-1.35 1.8-.52-1.67-1.62-3.78-2.31-3.65-1.54.25-1.93 6.64-.78 8.1-.18.25-.35.52-.51.77-.52-1.6-1.58-3.54-2.29-3.42-1.61.27-1.87 7.09-.58 8.3-.29.5-.59 1-.87 1.59-.55-1.23-1.27-2.35-1.79-2.28-1.5.26-1.89 6.29-.85 8-.43.95-.84 1.9-1.21 2.89-1-1.38-2.41-2.8-3-2.51-1.38.63-.19 6.12 1.22 7.85-.44 1.44-.86 2.89-1.19 4.35-1.12-1.38-2.78-2.89-3.44-2.53-1.41.77.65 7.5 2.31 8.26-.17 1.13-.34 2.32-.46 3.58-1.45-1.16-3.66-2.37-4.27-1.82-1.15 1.12 2 6.4 3.93 7.6v2.32c-1.53-1.15-3.72-2.31-4.3-1.76-1.24 1.23 2.77 7.9 4.68 8.12.09.89.21 1.79.36 2.71-1.85-.8-4.51-1.46-4.95-.71-.9 1.46 3.9 6.15 6.23 6.81.33 1.32.72 2.68 1.19 4-2.09-.39-5.35-.41-5.65.54-.44 1.64 5.26 5 7.89 5.21.4.89.83 1.77 1.28 2.67-2.22-.23-5.36.07-5.58 1-.38 1.87 6.27 5.06 8.92 4.76.25.41.51.82.79 1.21-2.84-.21-6.49 0-6.55.85-.24 1.41 6.7 4 10.66 4.55.64.75 1.31 1.5 2 2.25-2.86.07-7.93 1-7.93 2 .09 1.67 9.06 3.18 12.65 2.68.76.68 1.56 1.38 2.38 2.06-2.84.54-7.54 2.13-7.32 3.07.22 1.5 8.78 1.8 12.45.92.64.48 1.32.93 2 1.4-2.76.42-8.07 2.16-7.83 3.14.25 1.81 11.21 2 13.62.52.54.33 1.12.63 1.67.95-2.86.71-6.27 2-6.15 2.83.32 1.65 9.65 1.92 13.32.89.3.13.56.27.86.43 2.57 1.31 4.16 2 7 1.65a21.15 21.15 0 0 1 10 1.4 39.17 39.17 0 0 1-6.22 2.17 26.71 26.71 0 0 1-7.52.71l.4 3 7.43-2a53.85 53.85 0 0 0 7.32-2.84c.19-.1.41-.15.63-.25.21.1.41.15.63.25a53.85 53.85 0 0 0 7.32 2.84l7.42 2 .39-3a26.49 26.49 0 0 1-7.5-.71 39.66 39.66 0 0 1-6.26-2.17 21.24 21.24 0 0 1 10-1.4c2.85.33 4.44-.34 7-1.65.29-.16.57-.3.86-.43 3.66 1 13 .76 13.31-.89.14-.84-3.29-2.12-6.15-2.83.57-.32 1.13-.62 1.69-.95 2.4 1.43 13.35 1.29 13.61-.52.23-1-5.09-2.72-7.82-3.14.67-.47 1.35-.92 2-1.4 3.67.88 12.21.58 12.45-.92.21-.94-4.49-2.53-7.32-3.07.81-.68 1.6-1.38 2.38-2.06 3.58.5 12.55-1 12.62-2.68 0-1-5.05-1.89-7.92-2 .69-.75 1.37-1.5 2-2.25 4-.52 10.88-3.14 10.65-4.55-.05-.87-3.72-1.06-6.56-.85.28-.39.55-.8.8-1.21 2.66.3 9.31-2.89 8.9-4.76-.19-.9-3.36-1.2-5.57-1 .47-.9.88-1.78 1.3-2.67 2.62-.21 8.33-3.57 7.87-5.21-.28-.95-3.56-.93-5.63-.54.44-1.36.85-2.72 1.19-4 2.03-.66 6.81-5.35 5.91-6.81Z" style="fill:#005767"/><path d="M430.29 292.56c-3-2.25-10.17-5.49-16-5.68-3.3-.05-5.14.47-6 1.64a3.32 3.32 0 0 0-.15 3.18c.88 2.22 4.56 5.12 9.2 4.92.53 0 2.06 0 2.61-1.13a1.61 1.61 0 0 0 .18-.76 2.72 2.72 0 0 0-.84-1.64c2.6 1.05 7.2 3.79 8 6.06a2 2 0 0 1 .08.43c0 .33-.18.68-.81 1.06a8.27 8.27 0 0 1-4.62.88c-5.43-.18-9.41-2.26-14.94-5.14l-1.35-.68a105.73 105.73 0 0 1-15.43-10.13c-3.66-4.94-11.87-10.17-23.86-15.39l21.16 2.16c30.46 2.68 46.31 2.16 47.14-1.53.44-2-2.12-3.75-8.81-6.22-5.33-2-12.12-4.14-25.65-6.66a184.42 184.42 0 0 0-32.25-2c-4.57.15-6.16.63-6.32 1.94s1.18 2.15 5.13 3.28c4.51 1.41 13.49 3.38 19.54 3 .54 0 2.14-.14 2.43-1.28a1.09 1.09 0 0 0 0-.18 1.7 1.7 0 0 0-.56-1.17 5.68 5.68 0 0 0-1.66-.69c2.53.25 5.54.6 8.64 1.09 7.3 1.17 11.55 2.48 13 3.31-4.84 2-15.63.57-30.44-1.53l-5.74-.79-39-5.59a105.35 105.35 0 0 0 19-13.5c4.7 0 12 2.8 13.25 7.43.52 2.79 2.2 3.3 2.91 3.38s2.76-.08 4.23-3.44a19 19 0 0 0 1.73-8.83c0-8.79-3.2-19.17-4.11-21.93 4.94-12.32 8.89-31.67 8.89-49 0-16.35-3.53-30.8-13.05-35.54l-1.23-.55c0-.05-.22-1-.22-1l-.63-5.25c-.11-3.1-1.44-11.63-3.41-13.4l-2.9-2.6-.42 3.77a90.55 90.55 0 0 1-2.56 17.27s-1.67 8.22-1.69 8.38c-.22.64-2.34 7-2.34 7-1.29 4.53-2.77 9.62-5.45 12.34a104.81 104.81 0 0 0-14.45 5.28 121.19 121.19 0 1 0-224.14.23 105.51 105.51 0 0 0-15-5.51c-2.66-2.73-4.14-7.82-5.45-12.37 0 0-2.09-6.31-2.32-6.95 0-.16-1.69-8.38-1.69-8.38a90.55 90.55 0 0 1-2.56-17.27l-.18-3.88-3.18 2.71c-2 1.77-3.29 10.3-3.39 13.41l-.61 5.24s-.18.74-.22 1l-1.07.48c-9.64 4.8-13.2 19.32-13.2 35.74 0 17.28 3.94 36.55 8.89 48.83-1.1 3.32-4.13 13.25-4.13 21.79a19.46 19.46 0 0 0 1.83 9.12c1.39 3.23 3.36 3.38 4.15 3.29s2.4-.6 2.93-3.5c1.2-4.51 8.53-7.31 13.22-7.31a105.66 105.66 0 0 0 19.22 13.62l-38.3 5.47-5.75.79c-14.81 2.1-25.57 3.56-30.43 1.54 1.46-.84 5.7-2.15 13-3.32 3.1-.49 6.1-.84 8.62-1.09a5.53 5.53 0 0 0-1.64.69 1.64 1.64 0 0 0-.58 1.17v.17c.26 1.15 1.9 1.26 2.42 1.29 6.07.36 15-1.61 19.58-3 3.92-1.09 5.25-2 5.09-3.26s-1.74-1.79-6.33-1.94a184.51 184.51 0 0 0-32.23 2c-13.54 2.53-20.33 4.7-25.66 6.66-6.68 2.45-9.24 4.26-8.8 6.22.81 3.69 16.69 4.21 47.13 1.53l21.16-2.16c-12 5.22-20.23 10.48-24.05 15.6a108.13 108.13 0 0 1-15.24 9.92l-1.32.68c-5.55 2.87-9.53 5-15 5.14a8.16 8.16 0 0 1-4.64-.9c-.63-.36-.79-.71-.79-1a1.38 1.38 0 0 1 .09-.44c.73-2.27 5.33-5 7.93-6.06a2.79 2.79 0 0 0-.82 1.64 1.72 1.72 0 0 0 .17.77c.56 1.12 2.08 1.12 2.65 1.12 4.8.21 8.3-2.78 9.15-4.87a3.38 3.38 0 0 0-.14-3.23c-.84-1.17-2.69-1.69-6-1.64-5.79.17-13.17 3.47-16 5.69C3 295.5.38 299 .05 302a7.46 7.46 0 0 0 2.65 7c6.45 5.26 22.29 1.33 31.16-1.46a141.19 141.19 0 0 0 16-6.16c4.76 3.47 12.55 6.54 23.32 9.06 11.84 2.8 28.84 3.43 49.15 1.8 9-.09 15.92.09 21.23.56 4.42.35 9.95.8 10.45 1.85 0 0 0 .25-.23.63-.51.75-4.17 1.42-7.93 1.34a1.52 1.52 0 0 0 1-.95.89.89 0 0 0 0-.3 1.72 1.72 0 0 0-.36-1.07c-1.59-1.61-6.57-1.31-8.73-.94-2.73.51-4.25 1.35-4.54 2.56a2.09 2.09 0 0 0 1 2.17c2.59 1.83 8.42 3.1 12.08 3.1a45 45 0 0 0 13.63-1c6-1.56 9-3.51 9-5.91v-.08c-.09-3.89-8-6.09-12.74-7.08l-9.63-1.51a22.7 22.7 0 0 0 7.6-5q2.38-2.67 2.38-4.82a3.93 3.93 0 0 0-.23-1.36c-1.21-3.28-6.73-4.56-12.55-5.42-8.43-1.34-22.73-.66-26.57 5.12l-.5 2.38a3.27 3.27 0 0 0 1.93 1.94 17.82 17.82 0 0 0 6.74.92c5.56-.09 7.69.29 8.57.55-2.95 2-18.82 5.65-31.84 4.84-6.74-.41-11-2-12.36-4.62a10.61 10.61 0 0 1-1.39-4.84 5.65 5.65 0 0 1 .57-2.59c3-6.17 17.4-8.9 35.6-12.36l.49-.09c12.29-2.34 27.85-4.23 46.91-5.78l-2.42 1c-4.47 2.14-9.6 5.27-9.6 8.36a3 3 0 0 0 .06.61c.6 2.66 4.86 3.94 13 3.94a68.82 68.82 0 0 0 15.21-1.61c4.6-1.07 9.93-3.45 11.14-5.9a1.85 1.85 0 0 0 0-2c-.7-1.09-2.48-1.45-6-1.23-.06 0-7.92.31-8.66 3.11a1.73 1.73 0 0 0 0 .27 1.76 1.76 0 0 0 .16.77 1.63 1.63 0 0 0 .9.67c-3.49.61-7.16.86-8.51.28-.82-.25-1-.45-1-.49s.32-.55 1.09-1a51 51 0 0 1 7.94-2.83l.61-.17c7.5-2.33 16.68-4.07 26.44-5.94l4.67-.34h3.32l4.67.34c9.73 1.87 18.91 3.61 26.42 5.92l.57.19a51 51 0 0 1 8 2.83c.79.42 1.07.83 1.1 1s-.17.24-.89.46c-1.43.6-5.16.36-8.64-.25a1.76 1.76 0 0 0 .91-.67 2 2 0 0 0 .15-.77 1.85 1.85 0 0 0 0-.27c-.75-2.8-8.61-3.11-8.7-3.11-3.44-.22-5.23.14-5.95 1.23a2 2 0 0 0 0 2.05c1.22 2.41 6.54 4.79 11.16 5.86a68.43 68.43 0 0 0 15.18 1.61c8.17 0 12.43-1.28 13-3.94a3 3 0 0 0 .07-.61c0-3.09-5.15-6.22-9.61-8.36l-2.43-1c19.08 1.55 34.62 3.44 46.92 5.78l.48.09c18.21 3.46 32.59 6.19 35.61 12.36a5.85 5.85 0 0 1 .58 2.59 10.87 10.87 0 0 1-1.39 4.84c-1.36 2.58-5.63 4.21-12.39 4.62-13 .81-28.86-2.87-31.84-4.84.9-.26 3-.64 8.59-.55a17.82 17.82 0 0 0 6.69-.9 3.22 3.22 0 0 0 2-2l-.48-2.38c-3.85-5.78-18.13-6.48-26.58-5.12-5.8.86-11.34 2.14-12.53 5.42a4.17 4.17 0 0 0-.22 1.36c0 1.43.76 3 2.36 4.82a22.6 22.6 0 0 0 7.61 5l-9.68 1.49c-4.73 1-12.65 3.19-12.74 7.08v.08c0 2.4 2.91 4.35 8.93 5.89a44.72 44.72 0 0 0 13.73 1c3.58 0 9.43-1.27 12-3.09a2 2 0 0 0 1-2.18c-.26-1.2-1.79-2.05-4.51-2.56-2.16-.37-7.15-.67-8.74.94a1.69 1.69 0 0 0-.37 1.07.89.89 0 0 0 0 .3 1.59 1.59 0 0 0 1 .95c-3.73.08-7.38-.59-7.89-1.36-.24-.36-.25-.56-.22-.61.5-1.05 6-1.5 10.43-1.85 5.32-.47 12.3-.65 21.32-.56 20.23 1.63 37.23 1 49.07-1.8 10.79-2.52 18.56-5.59 23.32-9.06a141.41 141.41 0 0 0 16 6.16c8.86 2.79 24.68 6.72 31.17 1.46a7.45 7.45 0 0 0 2.62-7c-.29-2.93-2.87-6.43-6.83-9.37Zm-84-127.33.53-.1.4-.36c3.54-3.35 5.2-9.15 6.65-14.26l2.31-6.93.1-.34 1.66-8.3c.66-3 1.28-6 1.75-9.06a26.67 26.67 0 0 1 .35 3.36l.74 5.95.26 1.14c.63 1.88 2 2.41 3.26 2.91 7.85 3.93 10.84 16.82 10.84 31.77 0 17-3.87 36.68-8.81 48.7l-.26.64.2.64c1.75 5.09 4.12 14.26 4.12 21.38a15.5 15.5 0 0 1-1.37 7.2 5.61 5.61 0 0 1-.38.72c-2-7-11.52-10.42-17.47-10.13l-.63.05-.47.42c-12.18 10.48-22.4 17.31-35.66 18.91-14.2 1.78-38.32-2.42-47-10.3l-.68-.62-.9.19a56.25 56.25 0 0 0-9.86 3.09c-4 1.56-7.81 3-13.26 3.32a16.61 16.61 0 0 1-5.6-.95c3.5-1.61 6.82-4.29 9.84-6.75 2.5-2.05 5.31-4.34 6.64-4.44l2-.13-.31-1.95a58.69 58.69 0 0 1-.54-8.85v-2.6a44.35 44.35 0 0 0-1.42-12.36c7.19 3.61 12 16 13.14 24.5l.15 1.05.95.4c5.29 2.16 15.92 2.75 21.19.22 17.76-10.28 52.83-47.67 51.91-66.94v-.75l-.58-.5c-1.6-1.46-5.41-1.34-13.34-.5l-1.56.15c2.02-3.1 17.67-8.97 21.11-9.59ZM191.68 244.7c-2.65-2.16-4.85-4-6.88-4.78.07-.79.13-1.54.21-2.3a120.19 120.19 0 0 0 66.29.12c.06.74.1 1.43.18 2.18-2 .82-4.24 2.62-6.86 4.78a2.47 2.47 0 0 1-.27.21c-5.69-.38-17.35-1.11-25.74-1.11-8.86 0-21.36.79-26.61 1.17-.1-.09-.22-.17-.32-.27ZM325 178.47l2-.18c2.32-.23 7.86-.78 9.9-.43-.67 18.14-33.75 52.91-49.91 62.29-3.94 1.89-12.5 1.46-17.21-.15a53.15 53.15 0 0 0-2.05-8.18A121.94 121.94 0 0 0 325 178.47ZM99.89 121.75a118.44 118.44 0 1 1 226.73 47.36c-2.77 1.64-4.9 3.42-5.41 5.24a3.79 3.79 0 0 0-.16 1 3.57 3.57 0 0 0 1.18 2.57 119.25 119.25 0 0 1-55.43 51.28c-3.16-8-8.52-15.65-16.07-16.63l-3.06-.38 1.13 2.86c2.09 5.34 2.27 9.84 2.27 14.47v2.64c0 .9 0 1.85.05 2.79a117.25 117.25 0 0 1-66-.15c0-.89.06-1.8.06-2.67v-2.61c0-4.63.18-9.13 2.3-14.47l1.1-2.86-3.06.38c-7.49 1-12.83 8.49-16 16.47a119.07 119.07 0 0 1-55.25-51.44 3.44 3.44 0 0 0 1-2.23 4.26 4.26 0 0 0-.17-1c-.48-1.69-2.39-3.36-4.87-4.9a117.35 117.35 0 0 1-10.34-47.72Zm11.77 56.77a121.89 121.89 0 0 0 56.93 53.08 55.78 55.78 0 0 0-2.11 8.4c-4.72 1.61-13.28 2-17.34.09-16.06-9.32-49.14-44.09-49.79-62.23 2.06-.35 7.58.2 9.89.43Zm-25.92 61.69-.61-.05c-6-.3-15.62 3.14-17.52 10.09-.09-.17-.17-.29-.29-.52a16.17 16.17 0 0 1-1.4-7.42c0-7.14 2.37-16.24 4.07-21.32l.24-.64-.27-.64c-4.93-12-8.78-31.55-8.78-48.56 0-15 3-28 11-32a4.48 4.48 0 0 0 3-2.66c.06-.19.33-1.34.33-1.34l.73-5.93a26.2 26.2 0 0 1 .34-3.36c.48 3.09 1.09 6 1.73 9l1.69 8.48 2.37 7.14c1.45 5.12 3.11 10.94 6.65 14.29l.4.36.54.1c3.44.62 19.06 6.49 21.19 9.59l-1.56-.15c-7.95-.84-11.77-1-13.37.5l-.57.5v.75c-.94 19.27 34.16 56.66 51.79 66.88 5.41 2.59 16 2 21.31-.16l1-.4.14-1.05c1.13-8.46 5.95-20.89 13.12-24.5a44.37 44.37 0 0 0-1.41 12.38v2.55a55.36 55.36 0 0 1-.6 8.88l-.29 1.95 2 .13c1.34.1 4.16 2.39 6.64 4.44 3 2.46 6.33 5.14 9.83 6.75a15.89 15.89 0 0 1-5.54.95c-5.48-.3-9.27-1.76-13.31-3.32a56.79 56.79 0 0 0-9.86-3.09l-.91-.19-.68.62c-8.71 7.88-32.83 12.08-47 10.3-13.29-1.6-23.5-8.43-35.68-18.91Zm347.44 67.12c-4.1 3.29-15 2.6-29.19-1.86a139 139 0 0 1-16.28-6.32 1.08 1.08 0 0 0-1.09.14c-4.44 3.46-12.21 6.48-23.05 9-8.12 1.92-23.11 3.77-48.5 1.76-9.16-.12-16.19.07-21.57.53-7.52.62-11.18 1-12.18 3a2.68 2.68 0 0 0 .35 2.74c1.6 2.35 8.67 2.5 11.83 2.22 3.77-.37 4.29-1.27 4.29-2.05v-.05c0-.67-.49-1.05-1.19-1.3a16.74 16.74 0 0 1 2.44.21 6.26 6.26 0 0 1 2.64.89c-2.13 1.51-7.55 2.68-10.8 2.68a41.7 41.7 0 0 1-13.17-1c-5.43-1.4-7.34-2.95-7.31-3.84s2.35-3.27 11-5.06l13.27-2.06a1.08 1.08 0 0 0 .24-2.07c-4.84-1.71-8.51-3.8-10.32-5.87-1.52-1.69-2.1-3-1.74-4 .92-2.54 8.14-3.64 10.85-4.06 8.2-1.29 21.47-.33 24.48 4.21l.24.63c-.05.14-.28.37-.78.61a16.11 16.11 0 0 1-5.77.7c-10-.14-11 1.05-11.25 2.28s1.21 2.45 4.75 3.64c10.62 3.54 39.17 7.21 44-2.05 1.86-3.6 2.11-6.66.82-9.31-3.47-7.14-17.57-9.82-37.1-13.52l-.47-.11c-13.87-2.61-31.52-4.71-54-6.36a1 1 0 0 0-1.08.8 1.06 1.06 0 0 0 .63 1.24l8.61 3.55c7 3.36 8.56 5.76 8.39 6.58-.08.24-.83 2.29-11 2.29a66.41 66.41 0 0 1-14.67-1.56c-5.41-1.26-9.07-3.53-9.72-4.73.22-.12 1-.42 3.91-.25a27.46 27.46 0 0 1 3.51.42c-1.95-.19-3.2 0-3.44 1-.29 1.29 1.39 2 3.08 2.48 3.46 1 11.09 2.32 14 1.09 1.74-.51 2.23-1.49 2.32-2.2.1-1.12-.69-2.25-2.22-3.08a50.77 50.77 0 0 0-8.38-3l-.6-.19c-7.58-2.34-16.84-4.13-26.63-6l-5-.36-1.68-.06-1.76.06-5 .36c-9.82 1.87-19.09 3.65-26.69 6l-.57.19a51 51 0 0 0-8.38 3c-1.51.83-2.32 2-2.2 3.08.07.71.57 1.69 2.42 2.24 2.77 1.19 10.42-.06 13.89-1.13 1.66-.49 3.33-1.19 3-2.48-.23-1-1.48-1.15-3.42-1a26.54 26.54 0 0 1 3.48-.42c2.92-.17 3.7.13 3.92.23-.69 1.24-4.33 3.49-9.69 4.75a66.92 66.92 0 0 1-14.7 1.56c-10.13 0-10.9-2.05-10.94-2.29-.19-.82 1.3-3.22 8.36-6.58l8.63-3.47a1.07 1.07 0 0 0 .63-1.24 1 1 0 0 0-1.09-.8c-22.45 1.65-40.08 3.75-53.95 6.36l-.47.11c-19.54 3.7-33.66 6.38-37.13 13.52-1.29 2.65-1 5.71.84 9.31 4.79 9.25 33.32 5.59 43.93 2.05 3.57-1.19 5-2.29 4.76-3.64s-1.25-2.42-11.21-2.28a15.8 15.8 0 0 1-5.88-.74c-.44-.2-.66-.43-.7-.57l.23-.63c3-4.54 16.28-5.5 24.47-4.21 2.73.42 9.94 1.52 10.85 4.06.39 1-.2 2.36-1.72 4-1.82 2.08-5.48 4.17-10.31 5.88a1.1 1.1 0 0 0-.68 1.12 1.12 1.12 0 0 0 .92.95l13.25 2.06c8.7 1.79 11 4.09 11.06 5.06s-1.89 2.44-7.35 3.85a41.45 41.45 0 0 1-13.06.95c-3.33 0-8.75-1.17-10.9-2.68a6.4 6.4 0 0 1 2.66-.89 17 17 0 0 1 2.46-.21c-.72.25-1.21.63-1.21 1.3v.05c0 .78.52 1.68 4.3 2.05 3.17.28 10.2.13 11.78-2.22a2.68 2.68 0 0 0 .4-2.74c-1-2-4.67-2.41-12.18-3-5.38-.46-12.43-.65-21.51-.53-25.45 2-40.45.16-48.57-1.76-10.85-2.56-18.62-5.58-23.06-9a1.06 1.06 0 0 0-1.08-.14 139.71 139.71 0 0 1-16.28 6.32c-14.17 4.46-25.08 5.15-29.2 1.86a5.5 5.5 0 0 1-1.86-5.13c.21-1.81 1.9-4.85 6-7.95 2.74-2.07 9.67-5.09 14.81-5.25 3.37 0 4.07.57 4.21.76s.09.58-.14 1.24c-.53 1.31-3.36 3.66-7.11 3.5h-.47a4.24 4.24 0 0 0 1.64-2.57 1.48 1.48 0 0 0-.12-.59 1.6 1.6 0 0 0-1.82-.78c-2.74.33-10.55 4.59-11.37 8.41a3.18 3.18 0 0 0 1.79 3.56 10.3 10.3 0 0 0 5.79 1.19c5.88-.21 10.07-2.38 15.84-5.39l1.32-.69a106.13 106.13 0 0 0 15.75-10.31c4.4-5.83 14.62-11.93 29.76-17.85a1.09 1.09 0 0 0 .63-1.24 1.06 1.06 0 0 0-1.15-.81l-28 2.87c-33.1 2.9-43.71 1.37-44.81.12.15-.3 1.12-1.48 7.38-3.76 5.24-1.94 11.93-4.07 25.3-6.59a187 187 0 0 1 31.78-2 25.15 25.15 0 0 1 3.14.25c-.56.22-1.28.47-2.44.81a75.25 75.25 0 0 1-14.6 2.79c3.29-.75 4.36-1.26 4.36-2.15a1.68 1.68 0 0 0 0-.29c-.45-2.36-13.57-.29-17.86.38-6.75.98-14.84 2.73-15.34 5.09a1.69 1.69 0 0 0 .85 1.79c5.21 2.84 16.09 1.31 32.56-1l5.75-.81 41.36-5.9a50.07 50.07 0 0 0 14.52 4.07c14.84 1.86 39-2.37 49-10.58a56.93 56.93 0 0 1 8.55 2.73c4.12 1.59 8.36 3.24 14.36 3.55 3.63.33 9.94-1.83 11.52-3.28L206 254l.75-2.34-2.63.44c-3.2-.46-6.55-2.72-9.71-5.18 6-.4 16.47-1 24.17-1 7.33 0 17.21.56 23.3 1-3.17 2.48-6.56 4.78-9.77 5.24l-2.47.34.72 1.83 1 1.29c1.59 1.45 7.91 3.61 11.58 3.28 5.94-.31 10.18-2 14.31-3.55a57.16 57.16 0 0 1 8.54-2.73c10.06 8.22 34.22 12.44 49.06 10.58a49.63 49.63 0 0 0 14.73-4.2l42.05 6 5.75.81c16.49 2.33 27.37 3.86 32.49 1a1.77 1.77 0 0 0 .94-1.82c-.53-2.38-8.66-4.13-15.39-5.22-17.44-2.74-17.76-.95-17.88-.38a1.57 1.57 0 0 0 0 .29c0 .89 1.08 1.4 4.37 2.15a75.13 75.13 0 0 1-14.59-2.79c-1.17-.34-1.9-.59-2.47-.81A25.49 25.49 0 0 1 368 258a186.16 186.16 0 0 1 31.8 2c13.35 2.51 20 4.64 25.3 6.58 6.26 2.28 7.23 3.46 7.39 3.76-1.12 1.25-11.73 2.78-44.82-.12l-28-2.87a1.07 1.07 0 0 0-.51 2.05c15.13 5.92 25.36 12 29.55 17.64a104.68 104.68 0 0 0 15.95 10.53l1.34.68c5.79 3 9.93 5.18 15.86 5.39a10.09 10.09 0 0 0 5.73-1.19 3.22 3.22 0 0 0 1.81-3.56c-.81-3.82-8.61-8.08-11.37-8.41a1.59 1.59 0 0 0-1.82.77c-.47 1 .45 2.14 1.54 3.18h-.41c-3.81.16-6.64-2.19-7.17-3.55-.22-.61-.26-1-.13-1.19s.85-.8 4.21-.76c5.32.19 12.13 3.21 14.81 5.25 4.13 3.1 5.82 6.14 6 8a5.45 5.45 0 0 1-1.88 5.15Z" style="fill:#005767"/><path d="m197.95 230.09-2.22-.54 2.93-13.11-2.66-.54.45-1.77 4.78 1.06-3.28 14.9zM215.05 221.77a3.1 3.1 0 0 0-.61-2.42 3.26 3.26 0 0 0-4.51-.61 2.87 2.87 0 0 0-1.16 2.23 3.16 3.16 0 0 0 .61 2.38 2.83 2.83 0 0 0 2.13 1.16 3.28 3.28 0 0 0 2.4-.62 2.9 2.9 0 0 0 1.14-2.12Zm-4.61 9.57-2.48-.28 4-4.78a1.53 1.53 0 0 1-.61.18h-.53a4.8 4.8 0 0 1-3.29-1.87 5.22 5.22 0 0 1-1-3.81 3.66 3.66 0 0 1 .35-1.32 7.48 7.48 0 0 1 .72-1.33 5 5 0 0 1 4.86-2.13 5.27 5.27 0 0 1 3.54 2 4.3 4.3 0 0 1 1 1.86 4.43 4.43 0 0 1 .2 1.86c-.13 1.34-1.09 2.92-2.77 5l-.09.08ZM223.93 231.77l-2.4.19 5.07-13.48-6.58.44-.09-2.13 8.61-.53.16 2.3-4.77 13.21zM233.43 227l2-.36a2.92 2.92 0 0 0 1.15 1.94 2.79 2.79 0 0 0 2 .53 3 3 0 0 0 1.95-1.24 2.79 2.79 0 0 0 .53-2.21 3 3 0 0 0-1.24-2 3.48 3.48 0 0 0-2.56-.36c-.19 0-.28.09-.35.09h-.2l-.35-2h.18a.29.29 0 0 0 .26-.1 2.61 2.61 0 0 0 1.69-.7 1.6 1.6 0 0 0 .35-1.42 1.82 1.82 0 0 0-.7-1.23 1.54 1.54 0 0 0-1.34-.36 1.73 1.73 0 0 0-1.23.7 1.66 1.66 0 0 0-.36 1.51l-1.95.18A3.78 3.78 0 0 1 234 217a4 4 0 0 1 2.57-1.5 3.93 3.93 0 0 1 2.92.69 3.67 3.67 0 0 1 1.52 2.4 2.42 2.42 0 0 1-.09 1.61 2.77 2.77 0 0 1-.9 1.41 3.59 3.59 0 0 1 2.13 1.15 3.69 3.69 0 0 1 1.07 2.4 5.33 5.33 0 0 1-.7 3.9 4.5 4.5 0 0 1-3.29 2 5 5 0 0 1-3.8-.68 4.74 4.74 0 0 1-2-3.38ZM130.54 160.56l1.07 1.95-8.61 4.62a4.57 4.57 0 0 0-2.22 2 2.63 2.63 0 0 0 .28 2.21 2.52 2.52 0 0 0 1.69 1.41 5.73 5.73 0 0 0 2.85-.88l8.5-4.6 1.14 2-8.59 4.6a10.26 10.26 0 0 1-2.13 1 3.28 3.28 0 0 1-1.61.18 5.11 5.11 0 0 1-2.13-.7 6.53 6.53 0 0 1-2.38-4.35 5.35 5.35 0 0 1 .53-2.29 4.23 4.23 0 0 1 1-1.16 11.53 11.53 0 0 1 2-1.33ZM128.78 187.17l-4-6.12 12.78-8.42 1.15 1.87-11 7.27 2.83 4.24-1.76 1.16zM134.89 187.61l1.25 1.51a3.27 3.27 0 0 0-1 1.78 2.31 2.31 0 0 0 .53 1.78 2.68 2.68 0 0 0 1.69 1 2.52 2.52 0 0 0 2-.7 2.34 2.34 0 0 0 .88-1.44 4.64 4.64 0 0 0-.53-2.3.37.37 0 0 1-.1-.27 5.41 5.41 0 0 1-.52-3.18 5.15 5.15 0 0 1 .52-1.16 2.77 2.77 0 0 1 .81-1 4.64 4.64 0 0 1 3.2-1.07 4.1 4.1 0 0 1 2.91 1.6 4 4 0 0 1 1 2.84 4.71 4.71 0 0 1-1.52 2.84l-1.33-1.61a2 2 0 0 0 .7-1.42 1.57 1.57 0 0 0-.44-1.39 1.79 1.79 0 0 0-1.41-.82 2.51 2.51 0 0 0-1.69.62.84.84 0 0 0-.35.45 1 1 0 0 0-.27.62 4.07 4.07 0 0 0 .53 2.13c.18.44.35.7.44 1a4.37 4.37 0 0 1 .18 2.83 3.88 3.88 0 0 1-1.5 2.23 4.9 4.9 0 0 1-3.55 1.32 4.26 4.26 0 0 1-3.22-1.8 4.08 4.08 0 0 1-1.06-3.27 5.09 5.09 0 0 1 1.85-3.12ZM150.77 200.4l2.13-5.78-5.51 2.92 3.38 2.86Zm-5.32-1.69-4.26 2.21-1.77-1.5L154 191.7l1.61 1.41-5.32 15.53-1.86-1.6 1.57-4.44ZM155.2 212.37l-1.87-1.16 7.9-13.12 2.05 1.23.35 13.83 5.93-9.94 1.87 1.17-7.98 13.04-1.77-1.06-.36-14.28-6.12 10.29zM275.72 212a7.56 7.56 0 0 1-.75 4.12 7.47 7.47 0 0 1-3 3 8.18 8.18 0 0 1-3.1 1.16 7.76 7.76 0 0 1-3.3-.33 6.46 6.46 0 0 1-2.55-1.34 9 9 0 0 1-2-2.25 7.72 7.72 0 0 1-1-3 7 7 0 0 1 .13-3.15 7.22 7.22 0 0 1 1.32-2.76 7 7 0 0 1 2.19-2.06 8 8 0 0 1 4.13-1.25 7.1 7.1 0 0 1 4 1.31l-2.27 1.38a4.47 4.47 0 0 0-2.34-.33 4.63 4.63 0 0 0-2.34.82 6.31 6.31 0 0 0-1.59 1.44 6.8 6.8 0 0 0-.88 1.92 5.61 5.61 0 0 0-.07 2.27 5.35 5.35 0 0 0 .74 2.13 7.55 7.55 0 0 0 1.52 1.73 6.6 6.6 0 0 0 2 1 6.26 6.26 0 0 0 2.2.07 5.28 5.28 0 0 0 3.85-2.42 4.3 4.3 0 0 0 .75-2.14ZM276.88 206.87a5.47 5.47 0 0 0 1.8 1.5 6 6 0 0 0 2.06.76 5.85 5.85 0 0 0 2.27-.21 5.25 5.25 0 0 0 1.94-1 5.12 5.12 0 0 0 2-3.85 5.77 5.77 0 0 0-1.37-4.28 7 7 0 0 0-1.66-1.38 4.55 4.55 0 0 0-2-.6 4.89 4.89 0 0 0-2.37.14 4.61 4.61 0 0 0-2 1 5.87 5.87 0 0 0-1.39 1.64 5 5 0 0 0-.55 2.07 6.7 6.7 0 0 0 .2 2.26 5.76 5.76 0 0 0 1 1.94Zm-1.79 1.5a7.4 7.4 0 0 1-1.43-2.75 7.06 7.06 0 0 1-.29-3.17 6.56 6.56 0 0 1 .91-2.88 7.06 7.06 0 0 1 1.92-2.34 10.42 10.42 0 0 1 2.68-1.45 7.53 7.53 0 0 1 3.06-.28 8.33 8.33 0 0 1 3 .82 9.66 9.66 0 0 1 2.41 1.93 10.6 10.6 0 0 1 1.5 2.7 7.84 7.84 0 0 1 .35 2.88 7.82 7.82 0 0 1-2.88 5.79 7.92 7.92 0 0 1-6.2 1.72 7.43 7.43 0 0 1-2.75-1 9.26 9.26 0 0 1-2.28-1.97ZM299.33 197.16l-5.1 5.24-11-10.81 1.58-1.59 9.42 9.29 3.57-3.57 1.53 1.44zM305.67 190l-4.49 5.78-12.24-9.36 1.37-1.8 10.54 8.06 3.08-3.99 1.74 1.31zM311.23 181.95l-4.2 6.89-13.14-8.05 4.21-6.88 1.78 1.1-3.03 4.93 3.94 2.43 3.02-4.95 1.72 1.03-3.04 4.95 3.94 2.41 3.02-4.96 1.78 1.1zM309.12 171.83l4.17-8.67a8.53 8.53 0 0 1 4.2 4.69 7.21 7.21 0 0 1-.34 6 7.37 7.37 0 0 1-5 4.12 8.1 8.1 0 0 1-2.88.28 7.61 7.61 0 0 1-2.88-.8 9.63 9.63 0 0 1-2.57-1.88 10.32 10.32 0 0 1-1.58-2.74 8.21 8.21 0 0 1-.41-3.05 7.83 7.83 0 0 1 .91-3 7.51 7.51 0 0 1 2.75-3.23 7 7 0 0 1 4-1.11l-1.23 2.55a4.52 4.52 0 0 0-2.13 1 5.63 5.63 0 0 0-1.45 1.95 5.87 5.87 0 0 0-.56 2.07 4.5 4.5 0 0 0 .35 2.11 4.92 4.92 0 0 0 1.17 1.93 6.21 6.21 0 0 0 1.78 1.39 6.62 6.62 0 0 0 2.21.61 8.6 8.6 0 0 0 2.22-.27 6.13 6.13 0 0 0 1.9-1.11 5.12 5.12 0 0 0 1.4-1.73 5.39 5.39 0 0 0 .47-3.23 6.56 6.56 0 0 0-1.51-3.17l-3 6.35ZM323.49 156.9l-2.41 7.64-14.73-4.61 2.4-7.64 2.01.62-1.8 5.51 4.4 1.37 1.81-5.52 1.93.62-1.8 5.52 4.41 1.37 1.78-5.5 2 .62zM209.5 137.81c-13.75-.93-21.61-6-21.54-22.7V89.74h17v25.56c0 4.13-.09 7.75 4.48 7.77s4.64-3.6 4.62-7.77V89.74h17v16a29.25 29.25 0 0 1 17.51 1.93V125c-4.29-6.12-18.89-8-19 4.94s15.32 11 19 4.83V152c-14.78 5.81-30.08.67-35-14.62-1.19.19-2.57.33-4.07.43Z" style="fill:#005767"/><path d="M209.82 30.36a4 4 0 0 0-4 3.65s-.21 3-.21 3a1.57 1.57 0 0 1-1.19 1.6l-15.53 4.17a1.58 1.58 0 0 1-1.78-.72l-1.72-2.56a4 4 0 0 0-5.27-1.19l-14.62 8.44a4 4 0 0 0-1.6 5.15l1.3 2.69a1.58 1.58 0 0 1-.2 2S153.67 68 153.67 68a1.6 1.6 0 0 1-1.91.25c-.09 0-2.77-1.35-2.77-1.35a4 4 0 0 0-5.17 1.6l-8.43 14.63a4 4 0 0 0 1.19 5.27l2.48 1.6a1.61 1.61 0 0 1 .8 1.83s-4.18 15.52-4.18 15.52a1.53 1.53 0 0 1-1.51 1.2l-3.06.2a4 4 0 0 0-3.67 4v16.87a4 4 0 0 0 3.65 4l3 .21a1.59 1.59 0 0 1 1.58 1.19l4.18 15.53a1.58 1.58 0 0 1-.72 1.79c-.08 0-2.56 1.71-2.56 1.71a4 4 0 0 0-1.19 5.28l8.43 14.61a4 4 0 0 0 5.15 1.61l2.7-1.33a1.6 1.6 0 0 1 2 .23S165 185.79 165 185.79a1.53 1.53 0 0 1 .29 1.89c-.06.09-1.36 2.76-1.36 2.76a4 4 0 0 0 1.6 5.17l14.63 8.44a4 4 0 0 0 5.25-1.2s1.67-2.45 1.67-2.45a1.63 1.63 0 0 1 1.82-.82l15.55 4.18a1.53 1.53 0 0 1 1.18 1.5c0 .09.22 3.07.22 3.07a4 4 0 0 0 4 3.68h16.85a4 4 0 0 0 4-3.66l.21-3a1.57 1.57 0 0 1 1.19-1.59l15.53-4.17a1.6 1.6 0 0 1 1.79.72c0 .09 1.7 2.54 1.7 2.54a4 4 0 0 0 5.28 1.21l14.6-8.45a4 4 0 0 0 1.61-5.15l-1.32-2.69a1.6 1.6 0 0 1 .22-2l11.39-11.36a1.51 1.51 0 0 1 1.88-.28c.1 0 2.79 1.35 2.79 1.35a4 4 0 0 0 5.16-1.6l8.41-14.62A4 4 0 0 0 300 154l-2.48-1.7a1.56 1.56 0 0 1-.81-1.8s4.12-15.5 4.12-15.5a1.6 1.6 0 0 1 1.52-1.21l3-.21a4 4 0 0 0 3.67-4v-16.84a4 4 0 0 0-3.64-4l-3-.2a1.62 1.62 0 0 1-1.6-1.19s-4.17-15.54-4.17-15.54a1.57 1.57 0 0 1 .73-1.77l2.54-1.73a4 4 0 0 0 1.21-5.27s-8.45-14.61-8.45-14.61a4 4 0 0 0-5.14-1.6l-2.69 1.31a1.64 1.64 0 0 1-2-.23L271.5 56.58a1.61 1.61 0 0 1-.28-1.92c0-.07 1.36-2.76 1.36-2.76a4 4 0 0 0-1.58-5.16l-14.64-8.42a4 4 0 0 0-5.26 1.18l-1.67 2.5a1.61 1.61 0 0 1-1.82.8l-15.53-4.17a1.53 1.53 0 0 1-1.2-1.51c0-.09-.21-3.07-.21-3.07a4 4 0 0 0-4-3.67Zm-1.54 3.84a1.55 1.55 0 0 1 1.54-1.4h16.88a1.55 1.55 0 0 1 1.55 1.41l.2 3a4 4 0 0 0 3 3.78L247 45.12a4 4 0 0 0 4.51-1.85l1.61-2.39a1.56 1.56 0 0 1 2-.46l14.64 8.43a1.58 1.58 0 0 1 .61 2l-1.3 2.66a4 4 0 0 0 .72 4.78l11.33 11.35a4 4 0 0 0 4.84.67l2.61-1.28a1.55 1.55 0 0 1 2 .62S299 84.28 299 84.28a1.69 1.69 0 0 1 .19.78 1.6 1.6 0 0 1-.68 1.3L296.1 88a3.93 3.93 0 0 0-1.91 3.39 4.15 4.15 0 0 0 .14 1.1l4.16 15.51a3.94 3.94 0 0 0 3.86 3l2.89.23a1.54 1.54 0 0 1 1.41 1.53v16.88a1.56 1.56 0 0 1-1.43 1.55l-3 .21a4 4 0 0 0-3.78 3l-4.15 15.52a4 4 0 0 0 1.84 4.51l2.41 1.62a1.58 1.58 0 0 1 .46 2s-8.45 14.63-8.45 14.63a1.56 1.56 0 0 1-2 .63l-2.63-1.31a4 4 0 0 0-4.79.71l-11.35 11.34a4 4 0 0 0-.64 4.84c-.05-.06 1.26 2.61 1.26 2.61a1.57 1.57 0 0 1-.62 2l-14.62 8.5a1.57 1.57 0 0 1-2.07-.47s-1.66-2.45-1.66-2.45a4 4 0 0 0-4.48-1.78l-15.5 4.16a4 4 0 0 0-3 3.85c0-.08-.2 2.9-.2 2.9a1.55 1.55 0 0 1-1.55 1.41h-16.88a1.56 1.56 0 0 1-1.54-1.43l-.2-3a4 4 0 0 0-3-3.77l-15.48-4.16a4 4 0 0 0-4.53 1.85c0-.06-1.63 2.4-1.63 2.4a1.54 1.54 0 0 1-2 .45l-14.62-8.42a1.6 1.6 0 0 1-.63-2l1.31-2.66a4 4 0 0 0-.71-4.79l-11.34-11.34a4 4 0 0 0-4.84-.66s-2.63 1.27-2.63 1.27a1.55 1.55 0 0 1-2-.63l-8.42-14.62a1.49 1.49 0 0 1-.21-.77A1.52 1.52 0 0 1 138 156l2.45-1.66a3.91 3.91 0 0 0 1.93-3.4 3.72 3.72 0 0 0-.15-1.09l-4.14-15.5a4 4 0 0 0-3.88-3l-2.88-.22a1.54 1.54 0 0 1-1.43-1.54v-16.85a1.56 1.56 0 0 1 1.43-1.54l3-.23a4 4 0 0 0 3.79-3l4.16-15.48a4 4 0 0 0-1.94-4.49L138 86.33a1.55 1.55 0 0 1-.45-2l8.42-14.62a1.6 1.6 0 0 1 2-.63s2.66 1.31 2.66 1.31a4 4 0 0 0 4.79-.72l11.34-11.35a4 4 0 0 0 .66-4.84l-1.27-2.6a1.56 1.56 0 0 1 .63-2l14.62-8.43a1.56 1.56 0 0 1 2.05.46s1.67 2.45 1.67 2.45a4 4 0 0 0 4.49 1.79L205.08 41a4 4 0 0 0 3-3.86c0 .04.2-2.94.2-2.94ZM128.38 67.87l-1.79-.8-2.44 5.46a3 3 0 0 0-1.6-2.09c-1.28-.58-2.62-.29-4.07.83a10.78 10.78 0 0 0-3.26 4.38 11.19 11.19 0 0 0-1.11 5.43c.15 1.8.84 3 2.12 3.55a2.89 2.89 0 0 0 2.6-.2l-2.4 5.4 1.78.77 4.15-9.32.89.41-3.82 8.53 1.74.77 7.76-17.44.86.39L122 91.38l3.07 1.38a1.32 1.32 0 0 0 1.23 0 3.06 3.06 0 0 0 .88-1.25l8.63-19.4-1.69-.71-7.76 17.43-1-.48 7.77-17.44-4.25-1.91-3.79 8.52-.85-.36ZM116.77 79.3a5.18 5.18 0 0 1 .55-2.72 4.86 4.86 0 0 1 1.68-2.16 1.89 1.89 0 0 1 1.93-.27 1.87 1.87 0 0 1 1 1.58 5.81 5.81 0 0 1-2.17 4.88 1.86 1.86 0 0 1-1.84.26 1.93 1.93 0 0 1-1.15-1.57ZM138.87 43.13a6.44 6.44 0 0 0 3.82 2.24c1.46.13 3.07-.52 4.86-2l1.78 1.86a16.32 16.32 0 0 1-4.1 2.72 7.48 7.48 0 0 1-3.86.75 8.4 8.4 0 0 1-1.06 4 14.85 14.85 0 0 1-2.75 3.87l-1.76-1.83c1.5-1.74 2.2-3.3 2.09-4.74a6.61 6.61 0 0 0-2.15-3.87Zm1.35 13.09 3-2.86 2.48 2.56 12.88-12.46 1.67 1.73-14.44 13.93a2.9 2.9 0 0 1-1.27.81 1.21 1.21 0 0 1-1.17-.46Zm12.55-18.45 3.78 3.91-3 2.87-7.78-8.08 3-2.88 2.31 2.41 2.41-2.32 1.67 1.76ZM266.33 20.2l-1.89 4.7-1.58-.63 1.92-4.7-3.61-1.47-3.89 9.65-8.83-3.57 3-7.42 7 2.82.89-2.21L248.48 13l-4.26 10.55a1.25 1.25 0 0 0 0 1.24 2.83 2.83 0 0 0 1.28.84L256.39 30 255 33.32l3.59 1.46 3.41-8.26 1.56.64-3.32 8.24 3.65 1.49 6.11-15.2ZM189.4 17.67l-1.81-4.49-3.83 1.56 4.3 10.65-3.66 1.48-3.93-9.72c-.21-.51-1.08-.66-1.9-.32l-12 4.83.89 2.23 9.66-3.9 3.4 8.43-3.42 1.38-2-5.05-3.81 1.54 2.05 5.05-3.75 1.52.9 2.24L189 27.62l.94 2.32 3.83-1.55-3.43-8.5 3.08-1.24-.91-2.23ZM218.8 12.36a3.2 3.2 0 0 1 .6.78 1.8 1.8 0 0 1 .27.91c0 1.19-.71 2.16-2.12 3a9.52 9.52 0 0 1-4.66 1.07 9.72 9.72 0 0 1-4.71-1.12c-1.43-.81-2.15-1.78-2.15-3a2.19 2.19 0 0 1 .21-.89 3.13 3.13 0 0 1 .64-.8h-1.7v-2.2h5.52v-1.5h4.4v1.5h5.42v2.25Zm-7.88.49a1.46 1.46 0 0 0-.82 1.23 1.43 1.43 0 0 0 .82 1.19 3.48 3.48 0 0 0 2 .51 3.54 3.54 0 0 0 1.94-.51 1.42 1.42 0 0 0 .83-1.19 1.45 1.45 0 0 0-.83-1.23 3.9 3.9 0 0 0-1.94-.47 3.83 3.83 0 0 0-2 .47Zm17.53 1.62v3.12h-4.12V9.5h4.12v2.57h3.35v2.4ZM228.45 25.9h-4.12v-4.6h-17.71v-2.41h20.19c.89 0 1.64.46 1.64 1ZM294.33 43.57a2.63 2.63 0 0 1-.08 1 1.92 1.92 0 0 1-.44.84 3.4 3.4 0 0 1-3.57.65 9.14 9.14 0 0 1-4.12-2.44 10 10 0 0 1-2.64-4.07c-.49-1.57-.31-2.76.51-3.61a2 2 0 0 1 .77-.48 2.55 2.55 0 0 1 1-.15l-1.2-1.18 1.54-1.62 4 3.82 1-1.07 3.17 3.06-1 1.07 3.9 3.77-1.56 1.63Zm-6-5.1a1.3 1.3 0 0 0-1.67 1.75 3.35 3.35 0 0 0 1.05 1.72 3.48 3.48 0 0 0 1.75 1 1.42 1.42 0 0 0 1.43-.29 1.45 1.45 0 0 0 .25-1.45 3.6 3.6 0 0 0-1.06-1.69 3.88 3.88 0 0 0-1.74-1.04Zm11.51 13.34-2.18 2.25-3-2.87 5.63-5.83 3 2.88-1.79 1.84 2.41 2.32-1.68 1.73ZM291.9 60l-3-2.88 3.22-3.32-12.74-12.3 1.66-1.71 14.53 14c.65.62.85 1.47.46 1.87ZM311.78 89.14l11.08-4.93c.5-.22.63-1.09.24-1.92l-7.94-17.87-2.19 1L319.9 81l-9.8 4.38-1.51-3.38 6.15-2.73-1.67-3.75-6.16 2.74-1.19-2.69 6.16-2.74L310.2 69l-6.14 2.73-1.6-3.58-2.2 1 10.13 22.76 2.21-1Z" style="fill:#005767"/></svg>