<svg xmlns="http://www.w3.org/2000/svg" xml:space="preserve" width="800.00262" height="800" viewBox="0 0 800.00262 799.99999"><path d="M0 0c0-83.278-67.511-150.79-150.792-150.79-83.282 0-150.792 67.512-150.792 150.79 0 83.282 67.51 150.793 150.792 150.793C-67.511 150.793 0 83.282 0 0" style="fill:#8b0203;fill-opacity:1;fill-rule:nonzero;stroke:none" transform="matrix(2.62862 0 0 -2.62862 796.376 400.004)"/><path d="M0 0c0-83.278-67.511-150.79-150.792-150.79-83.282 0-150.792 67.512-150.792 150.79 0 83.282 67.51 150.793 150.792 150.793C-67.511 150.793 0 83.282 0 0Z" style="fill:none;stroke:#a7a9ac;stroke-width:2.759;stroke-linecap:butt;stroke-linejoin:miter;stroke-miterlimit:4;stroke-dasharray:none;stroke-opacity:1" transform="matrix(2.62862 0 0 -2.62862 796.376 400.004)"/><path d="M0 0c0-56.468-45.775-102.245-102.243-102.245-56.469 0-102.246 45.777-102.246 102.245 0 56.467 45.777 102.246 102.246 102.246C-45.775 102.246 0 56.467 0 0" style="fill:#fff;fill-opacity:1;fill-rule:nonzero;stroke:none" transform="matrix(2.62862 0 0 -2.62862 668.76 399.998)"/><path d="M0 0c0-56.468-45.775-102.245-102.243-102.245-56.469 0-102.246 45.777-102.246 102.245 0 56.467 45.777 102.246 102.246 102.246C-45.775 102.246 0 56.467 0 0Z" style="fill:none;stroke:#a7a9ac;stroke-width:2.494;stroke-linecap:butt;stroke-linejoin:miter;stroke-miterlimit:4;stroke-dasharray:none;stroke-opacity:1" transform="matrix(2.62862 0 0 -2.62862 668.76 399.998)"/><path d="m0 0 1.075-2.567-6.341-5.819c-.624-.594-1.342-1.256-2.076-1.807l.031-.075c.932.149 1.884.184 2.709.23l8.644.392 1.051-2.516-14.488-13.152-1.439 3.44 8.8 7.573a39.954 39.954 0 0 0 2.081 1.655l-.031.077a29.281 29.281 0 0 0-2.647-.233l-8.078-.517-2.693-2.425-1.3 3.106 8.516 7.605c.786.72 1.435 1.324 2.161 1.9l-.021.051c-.909-.14-1.727-.271-2.744-.364l-11.306-1.083-1.334 3.179z" style="fill:#bcbec0;fill-opacity:1;fill-rule:nonzero;stroke:none" transform="matrix(2.62862 0 0 -2.62862 113.282 500.676)"/><path d="M0 0c.66-3.356 3.553-5.225 7.591-4.429 4.067.802 6.033 3.629 5.372 6.986-.656 3.328-3.547 5.197-7.614 4.397C1.418 6.178-.678 3.44 0 0m11.765 9.208c1.961-1.313 3.361-3.392 3.894-6.092.517-2.62.177-4.927-.956-6.796-1.278-2.15-3.508-3.638-6.32-4.194-2.673-.527-5.204-.062-7.225 1.27C-.796-5.317-2.226-3.247-2.763-.516c-.57 2.895-.033 5.495 1.423 7.453 1.341 1.826 3.429 3.029 5.939 3.525 2.649.52 5.2.089 7.166-1.254" style="fill:#bcbec0;fill-opacity:1;fill-rule:nonzero;stroke:none" transform="matrix(2.62862 0 0 -2.62862 61.718 467.042)"/><path d="M0 0c.065-3.42 2.587-5.765 6.705-5.684 4.143.08 6.572 2.519 6.505 5.942-.065 3.391-2.587 5.735-6.73 5.655C2.473 5.835-.068 3.504 0 0m13.19 7.017c1.702-1.636 2.721-3.925 2.772-6.679.053-2.669-.684-4.881-2.127-6.525-1.631-1.894-4.087-2.972-6.951-3.026-2.726-.054-5.136.846-6.894 2.508-1.7 1.608-2.745 3.896-2.8 6.68-.056 2.945.925 5.414 2.7 7.091C1.529 8.627 3.794 9.45 6.353 9.499c2.7.054 5.136-.817 6.837-2.482" style="fill:#bcbec0;fill-opacity:1;fill-rule:nonzero;stroke:none" transform="matrix(2.62862 0 0 -2.62862 55.26 406.838)"/><path d="m0 0-11.873-6.558c-1.135-.612-1.903-1.029-2.749-1.406l-.009-.057c.613-.038 1.58-.158 2.431-.289l10.669-1.643-.513-3.326-18.119 2.79.522 3.381 11.414 6.32C-6.996-.104-6.231.284-5.422.611l.007.054c-.804.069-1.849.23-2.647.352l-10.09 1.554.509 3.3L.475 3.079z" style="fill:#bcbec0;fill-opacity:1;fill-rule:nonzero;stroke:none" transform="matrix(2.62862 0 0 -2.62862 102.048 340.006)"/><path d="M0 0c-1.804-5.441-6.744-7.524-11.681-5.887-5.175 1.717-7.771 6.883-5.846 12.694.738 2.218 1.73 3.706 2.598 4.822l2.965-1.042c-1.123-1.09-2.212-2.518-2.814-4.341-1.515-4.566.635-7.45 3.988-8.56 3.642-1.209 7.151.179 8.414 3.981.382 1.162.514 2.175.432 2.904l-5.911 1.96 1.057 3.195L.594 7.275C.941 5.402.927 2.798 0 0" style="fill:#bcbec0;fill-opacity:1;fill-rule:nonzero;stroke:none" transform="matrix(2.62862 0 0 -2.62862 113.143 302.649)"/><path d="M0 0a7.75 7.75 0 0 0-1.419-2.04L-3.453-.345c.378.343.723.949.96 1.453.77 1.638-.408 2.467-2.372 3.388l-15.435 7.25 1.431 3.045 15.99-7.507C.216 5.829 1.702 3.625 0 0" style="fill:#bcbec0;fill-opacity:1;fill-rule:nonzero;stroke:none" transform="matrix(2.62862 0 0 -2.62862 134.156 282.9)"/><path d="m0 0-16.032 8.892 1.633 2.943 16.03-8.889z" style="fill:#bcbec0;fill-opacity:1;fill-rule:nonzero;stroke:none" transform="matrix(2.62862 0 0 -2.62862 132.194 256.856)"/><path d="M0 0c-.931.288-1.664.562-2.237.823L-2.254.8c.444-.474.87-1.112 1.371-1.875l2.435-3.834 2.69 3.546zm11.825-3.512L7.076-2.183 3.127-7.391l2.633-4.125-1.998-2.64L-6.616 2.642l1.477 1.95L13.992-.652z" style="fill:#bcbec0;fill-opacity:1;fill-rule:nonzero;stroke:none" transform="matrix(2.62862 0 0 -2.62862 134.56 197.374)"/><path d="M0 0c-4.138-4.125-9.388-3.666-13.083.036-3.713 3.723-3.962 9.485.313 13.748 1.377 1.375 2.872 2.318 4.073 2.652l2.141-2.186c-1.731-.431-3.048-1.195-4.211-2.355-3.014-3.007-2.329-6.687.106-9.128 2.616-2.618 6.293-2.995 8.97-.325C-.508 3.622.181 4.978.636 6.492l2.358-1.064C2.42 3.125 1.396 1.396 0 0" style="fill:#bcbec0;fill-opacity:1;fill-rule:nonzero;stroke:none" transform="matrix(2.62862 0 0 -2.62862 189.42 182.316)"/><path d="M0 0c-4.677-3.5-9.81-2.302-12.944 1.888-3.147 4.207-2.577 9.949 2.257 13.564 1.558 1.166 3.172 1.887 4.408 2.048l1.811-2.467c-1.776-.183-3.188-.754-4.503-1.737-3.408-2.548-3.254-6.288-1.187-9.051C-7.942 1.283-4.354.387-1.325 2.654.012 3.653.888 4.9 1.55 6.333l2.186-1.387C2.842 2.75 1.583 1.181 0 0" style="fill:#bcbec0;fill-opacity:1;fill-rule:nonzero;stroke:none" transform="matrix(2.62862 0 0 -2.62862 222.551 154.517)"/><path d="M0 0c-3.028-1.588-3.997-4.892-2.087-8.538 1.925-3.67 5.193-4.754 8.223-3.164 3.006 1.577 3.974 4.879 2.05 8.551C6.325.396 3.104 1.628 0 0m12.175-8.662c-.704-2.253-2.298-4.188-4.735-5.467C5.075-15.368 2.767-15.7.652-15.142c-2.424.613-4.487 2.328-5.816 4.865-1.267 2.414-1.54 4.972-.838 7.287.679 2.24 2.259 4.199 4.724 5.491 2.611 1.37 5.257 1.594 7.549.755 2.131-.769 3.879-2.427 5.067-4.694 1.254-2.387 1.564-4.958.837-7.224" style="fill:#bcbec0;fill-opacity:1;fill-rule:nonzero;stroke:none" transform="matrix(2.62862 0 0 -2.62862 240.064 94.454)"/><path d="M0 0c-.823-1.612-2.39-2.911-4.983-3.75-2.463-.798-4.45-.798-5.983-.038-1.63.788-2.699 2.461-3.324 4.392l-3.574 11.035 3.201 1.038 3.506-10.825C-10.746.583-10.066-.34-9.129-.881c.891-.501 2.044-.537 3.314-.125C-4.334-.527-3.429.205-2.99 1.106c.429.929.377 1.994-.018 3.212l-3.559 10.981 3.204 1.038L.16 5.46C.804 3.477.804 1.577 0 0" style="fill:#bcbec0;fill-opacity:1;fill-rule:nonzero;stroke:none" transform="matrix(2.62862 0 0 -2.62862 319.316 102.105)"/><path d="m0 0-9.76 9.42c-.922.908-1.547 1.518-2.155 2.215l-.054-.006c.144-.599.313-1.558.438-2.412l1.566-10.679-3.329-.488-2.662 18.138 3.385.495 9.398-9.05c1.014-.974 1.612-1.591 2.16-2.27l.055.009c-.172.791-.326 1.837-.442 2.632l-1.482 10.102 3.302.485L3.08.455Z" style="fill:#bcbec0;fill-opacity:1;fill-rule:nonzero;stroke:none" transform="matrix(2.62862 0 0 -2.62862 368.959 97.697)"/><path d="m0 0-5.006.079-.252-15.52-3.393.055.252 15.522-5.313.084.046 2.809 14.52-.233z" style="fill:#bcbec0;fill-opacity:1;fill-rule:nonzero;stroke:none" transform="matrix(2.62862 0 0 -2.62862 418.707 55.913)"/><path d="m0 0 1.701 18.251 3.351-.312L3.351-.313Z" style="fill:#bcbec0;fill-opacity:1;fill-rule:nonzero;stroke:none" transform="matrix(2.62862 0 0 -2.62862 424.118 97.34)"/><path d="m0 0-5.895 12.216c-.548 1.168-.922 1.958-1.251 2.823l-.054.013c-.072-.611-.246-1.57-.426-2.415L-9.854 2.078l-3.292.694 3.783 17.937 3.35-.706L-.334 8.258C.281 6.991.629 6.206.908 5.378l.054-.01c.113.802.332 1.836.498 2.625l2.105 9.989 3.267-.689L3.049-.645Z" style="fill:#bcbec0;fill-opacity:1;fill-rule:nonzero;stroke:none" transform="matrix(2.62862 0 0 -2.62862 476.242 105.767)"/><path d="M0 0c-5.33 2.102-7.139 7.15-5.231 11.989 2.001 5.074 7.301 7.378 12.996 5.134 2.174-.856 3.607-1.929 4.675-2.858l-1.204-2.905c-1.029 1.182-2.394 2.348-4.178 3.052-4.481 1.765-7.476-.225-8.77-3.51-1.409-3.572-.218-7.15 3.508-8.619 1.14-.45 2.144-.635 2.878-.596l2.283 5.798 3.131-1.235L7.231-.996C5.345-1.237 2.743-1.079 0 0" style="fill:#bcbec0;fill-opacity:1;fill-rule:nonzero;stroke:none" transform="matrix(2.62862 0 0 -2.62862 512.924 118.911)"/><path d="M0 0c-1.079.737-2.056.394-2.513-.273-.47-.689-.542-1.581-.254-3.329 1.696-.181 2.859.235 3.374.994C1.112-1.873 1.147-.786 0 0m-5.62-5.661c-1.651.251-2.721-.13-3.41-1.141-.971-1.423-.562-3.187 1.07-4.302.896-.612 2.209-1.004 3.508-.882-.464 1.834-.953 4.525-1.168 6.325m4.651-13.356c-1.264.863-2.064 2.455-2.613 4.313-2.271-.166-4.364.321-6.43 1.734-3.03 2.07-3.749 5.358-2.021 7.885 1.443 2.114 3.716 2.481 6.095 2.065-.235 1.678-.404 3.108.618 4.601 1.221 1.792 3.968 2.306 6.747.406 2.711-1.85 3.358-4.45 1.994-6.449C2.195-6.254.031-6.558-2.319-6.3c.193-1.346.665-3.858 1.07-5.484 1.4.323 3.152 1.113 4.167 2.005l1.928-2.16c-1.676-1.315-3.443-2.027-5.362-2.47.499-1.586.957-2.641 2.239-3.28l-.742-2.122c-.657.078-1.4.417-1.95.794" style="fill:#bcbec0;fill-opacity:1;fill-rule:nonzero;stroke:none" transform="matrix(2.62862 0 0 -2.62862 590.54 111.299)"/><path d="m0 0-3.518 3.56-11.04-10.913-2.387 2.415L-5.906 5.975l-3.736 3.778 1.999 1.975L2.568 1.399Z" style="fill:#bcbec0;fill-opacity:1;fill-rule:nonzero;stroke:none" transform="matrix(2.62862 0 0 -2.62862 657.173 170.309)"/><path d="M0 0c.52.827.975 1.464 1.371 1.952l-.017.02C.782 1.668.059 1.419-.811 1.131l-4.33-1.37L-2.4-3.748zm-6.425-10.527 2.504 4.25-4.023 5.153-4.661-1.486-2.038 2.607L4.253 5.719l1.506-1.93-9.976-17.143z" style="fill:#bcbec0;fill-opacity:1;fill-rule:nonzero;stroke:none" transform="matrix(2.62862 0 0 -2.62862 664.193 195.769)"/><path d="m0 0-5.043-9.65-1.898 3.337 3.85 7.244-8.316.615-1.857 3.267 11.327-.955 4.996 9.335 1.869-3.29-3.727-6.949 7.987-.546 1.817-3.191z" style="fill:#bcbec0;fill-opacity:1;fill-rule:nonzero;stroke:none" transform="matrix(2.62862 0 0 -2.62862 688.036 243.636)"/><path d="M0 0c-1.825 5.551.945 10.034 5.914 11.667 4.994 1.644 10.254-.725 12.14-6.46.609-1.851.777-3.611.535-4.832l-2.916-.928c.394 1.738.304 3.262-.209 4.82-1.331 4.042-4.925 5.085-8.2 4.008C3.75 7.119 1.758 4.004 2.939.409 3.46-1.174 4.362-2.402 5.51-3.487L3.498-5.116C1.702-3.57.617-1.876 0 0" style="fill:#bcbec0;fill-opacity:1;fill-rule:nonzero;stroke:none" transform="matrix(2.62862 0 0 -2.62862 689.193 309.735)"/><path d="M0 0c-.537 3.379-3.358 5.353-7.424 4.707-4.095-.65-6.163-3.403-5.627-6.782.533-3.35 3.354-5.325 7.445-4.675C-1.648-6.121.548-3.462 0 0m-12.101-8.766c-1.91 1.385-3.234 3.512-3.664 6.233-.42 2.637.003 4.929 1.206 6.754 1.358 2.103 3.641 3.508 6.469 3.958 2.694.427 5.205-.134 7.173-1.537C.989 5.284 2.341 3.158 2.777.413c.462-2.913-.169-5.492-1.698-7.396-1.408-1.774-3.54-2.899-6.065-3.302-2.665-.423-5.199.104-7.115 1.519" style="fill:#bcbec0;fill-opacity:1;fill-rule:nonzero;stroke:none" transform="matrix(2.62862 0 0 -2.62862 740.52 345.493)"/><path d="m0 0 18.327.368.069-3.364-15.493-.312.133-6.564-2.835-.057Z" style="fill:#bcbec0;fill-opacity:1;fill-rule:nonzero;stroke:none" transform="matrix(2.62862 0 0 -2.62862 703.284 382.856)"/><path d="m0 0 18.275-1.441-.265-3.357-15.446 1.22-.515-6.546-2.828.225Z" style="fill:#bcbec0;fill-opacity:1;fill-rule:nonzero;stroke:none" transform="matrix(2.62862 0 0 -2.62862 703.469 413.333)"/><path d="m0 0 18.021-3.359-1.872-10.036-2.593 1.417 1.086 5.826-4.676.87-1.085-5.825-2.763.515 1.084 5.825-5.057.941-1.252-6.726-2.763.514z" style="fill:#bcbec0;fill-opacity:1;fill-rule:nonzero;stroke:none" transform="matrix(2.62862 0 0 -2.62862 700.704 443.69)"/><path d="M0 0c1.807 5.44 6.751 7.519 11.686 5.878 5.174-1.719 7.764-6.89 5.835-12.695-.738-2.218-1.731-3.705-2.602-4.826l-2.963 1.046c1.123 1.092 2.212 2.516 2.819 4.339 1.516 4.566-.631 7.45-3.983 8.565-3.644 1.21-7.152-.175-8.417-3.975-.386-1.162-.514-2.173-.436-2.904l5.913-1.964-1.063-3.193-7.392 2.454C-.945-5.401-.931-2.797 0 0" style="fill:#bcbec0;fill-opacity:1;fill-rule:nonzero;stroke:none" transform="matrix(2.62862 0 0 -2.62862 686.783 497.563)"/><path d="m0 0 16.445-8.095-4.508-9.158-2.114 2.064 2.615 5.317-4.266 2.101-2.617-5.317-2.523 1.239L5.65-6.532 1.032-4.26l-3.02-6.139-2.521 1.24z" style="fill:#bcbec0;fill-opacity:1;fill-rule:nonzero;stroke:none" transform="matrix(2.62862 0 0 -2.62862 678.03 522.7)"/><path d="M0 0h5.8l-.127 53.601H-.13Zm-28.866 57.525h17.418V0h5.802v63.323h-23.22zm-59.587-45.053-4.86 9.112 4.736 8.881 4.86-9.113zm-8.185 15.346-18.93 35.494h-6.653l22.257-41.731-4.859-9.109-27.116 50.84h-6.652l33.768-63.315 8.183 15.35 8.187-15.35 8.061 15.117 8.06-15.117 27.116 50.845L-18.098-.003h6.647l-33.765 63.315-27.116-50.84-4.737 8.88 22.376 41.96h-6.648l-19.051-35.729-8.185 15.348ZM11.439 63.323V0h5.806v57.525H34.66v5.798zM-65.322 0h6.652l13.304 24.943L-32.06 0h6.65l-19.956 37.413z" style="fill:#8b0203;fill-opacity:1;fill-rule:nonzero;stroke:none" transform="matrix(2.62862 0 0 -2.62862 536.6 499.99)"/><path d="M0 0a3.433 3.433 0 1 0-6.864 0A3.433 3.433 0 0 0 0 0" style="fill:#bcbec0;fill-opacity:1;fill-rule:nonzero;stroke:none" transform="matrix(2.62862 0 0 -2.62862 130.34 580.767)"/><path d="M0 0a3.433 3.433 0 1 0-6.864-.002A3.433 3.433 0 0 0 0 0" style="fill:#bcbec0;fill-opacity:1;fill-rule:nonzero;stroke:none" transform="matrix(2.62862 0 0 -2.62862 681.195 585.917)"/><path d="M0 0c-.135.478-.267.971-.404 1.487-.117.501-.246.986-.379 1.464-.134.474-.26.903-.376 1.287-.097.367-.208.789-.316 1.262a21.79 21.79 0 0 1 3.704 2.29 15.914 15.914 0 0 1 2.923 2.889l-10.928 6.432-1.593-2.7 7.19-4.234c-.738-.625-1.633-1.194-2.692-1.714a21.317 21.317 0 0 0-3.437-1.309 23.527 23.527 0 0 0-3.887-.806 19.633 19.633 0 0 0-4.013-.089l.849-3.271a20.137 20.137 0 0 1 4.37.164 24.08 24.08 0 0 1 4.468 1.081l2.057-7.55 3.172.796C.569-2.056.45-1.635.35-1.265A61.35 61.35 0 0 1 0 0" style="fill:#fff;fill-opacity:1;fill-rule:nonzero;stroke:none" transform="matrix(2.62862 0 0 -2.62862 236.132 691.55)"/><path d="m0 0 2.875-1.694L17.2 22.652l-2.875 1.692Z" style="fill:#fff;fill-opacity:1;fill-rule:nonzero;stroke:none" transform="matrix(2.62862 0 0 -2.62862 229.923 726.083)"/><path d="M0 0c.139-.957-.136-1.763-.816-2.428-.711-.697-1.52-.946-2.425-.765-.903.186-1.753.685-2.542 1.496-.755.762-1.196 1.614-1.34 2.539-.148.931.117 1.724.781 2.379.696.675 1.505.946 2.424.806.92-.143 1.768-.613 2.545-1.407C-.594 1.823-.137.952 0 0m-7.388 15.404L.843 6.989l-1.342-1.31C-1.86 6.688-3.298 7.206-4.802 7.235c-1.502.028-2.815-.513-3.937-1.611-.651-.634-1.109-1.353-1.369-2.15a5.79 5.79 0 0 1-.265-2.439 7.175 7.175 0 0 1 .755-2.523 9.498 9.498 0 0 1 1.679-2.318 9.421 9.421 0 0 1 2.401-1.809c.853-.442 1.7-.71 2.544-.797a5.805 5.805 0 0 1 2.471.218 5.3 5.3 0 0 1 2.127 1.29c1.111 1.086 1.658 2.373 1.642 3.849C3.225.427 2.76 1.86 1.837 3.248L3.2 4.581l8.277-8.456 2.237 2.192-18.86 19.279z" style="fill:#fff;fill-opacity:1;fill-rule:nonzero;stroke:none" transform="matrix(2.62862 0 0 -2.62862 159.932 650.45)"/><path d="M0 0c.939-.146 1.794-.614 2.573-1.407.762-.778 1.212-1.646 1.352-2.6.133-.953-.154-1.774-.864-2.472-.742-.725-1.567-.988-2.48-.796-.912.194-1.751.681-2.512 1.461-.792.809-1.25 1.677-1.369 2.6-.123.923.154 1.717.838 2.382C-1.752-.138-.933.141 0 0m-6.535-3.062a7.313 7.313 0 0 1 .781-2.505 9.449 9.449 0 0 1 1.691-2.331c.749-.767 1.54-1.369 2.382-1.81.837-.445 1.685-.719 2.537-.818a5.937 5.937 0 0 1 2.453.241 5.36 5.36 0 0 1 2.149 1.31c.665.65 1.131 1.379 1.402 2.185a5.97 5.97 0 0 1 .275 2.494c-.083.858-.333 1.71-.75 2.567A9.245 9.245 0 0 1 4.68.656a9.071 9.071 0 0 1-2.355 1.762 7.14 7.14 0 0 1-2.515.778 5.608 5.608 0 0 1-2.491-.255c-.802-.273-1.54-.734-2.202-1.387C-5.55.902-6.016.177-6.274-.622a5.743 5.743 0 0 1-.261-2.44" style="fill:#fff;fill-opacity:1;fill-rule:nonzero;stroke:none" transform="matrix(2.62862 0 0 -2.62862 182.701 606.975)"/><path d="m0 0-3.089-1.178-3.254 8.559-3.118-1.184 9.139-24.023 3.118 1.186-4.769 12.535L1.115-2.93l5.453-14.335 3.119 1.185L-.355 10.322l-3.12-1.187z" style="fill:#fff;fill-opacity:1;fill-rule:nonzero;stroke:none" transform="matrix(2.62862 0 0 -2.62862 510.262 701.13)"/><path d="m0 0 7.619 2.9-1.114 2.928-10.737-4.084 5.583-14.68L12.816-8.57l-1.124 2.955-8.348-3.176Z" style="fill:#fff;fill-opacity:1;fill-rule:nonzero;stroke:none" transform="matrix(2.62862 0 0 -2.62862 465.42 710.52)"/><path d="m0 0-3.836 6.458-2.922-1.737 9.119-15.345 2.922 1.738-3.679 6.191L5.85-.169 4.249 2.525Z" style="fill:#fff;fill-opacity:1;fill-rule:nonzero;stroke:none" transform="matrix(2.62862 0 0 -2.62862 585.792 651.58)"/><path d="M0 0c-.472.751-.613 1.522-.421 2.319.166.751.471 1.336.927 1.757.185.17.206.267.618.511.411.245.501.215.743.297.581.196 1.243.184 1.981-.03.79-.21 1.399-.703 1.835-1.471.435-.778.495-1.548.182-2.311-.303-.751-.852-1.341-1.636-1.78-.744-.455-1.504-.648-2.29-.556C1.12-1.172.473-.751 0 0m5.897-3.356c.482.28.942.596 1.379.965.715.598 1.238 1.29 1.567 2.058.393.841.576 1.672.556 2.486a6.354 6.354 0 0 1-.464 2.256 5.726 5.726 0 0 1-1.156 1.722c-.485.496-1.003.843-1.559 1.038-.012.023-.092.049-.24.086a1.7 1.7 0 0 1-.415.055l3.112 1.851-1.526 2.563-6.206-3.69-1.809 3.043L-3.7 9.348l1.789-3.008-6.148-3.659L-6.538.115l3.142 1.869a1.478 1.478 0 0 1-.15-.396c-.04-.149-.057-.232-.043-.252-.089-.582-.031-1.198.169-1.86.203-.66.524-1.273.963-1.843A6.463 6.463 0 0 1-.698-3.849c.707-.41 1.523-.646 2.445-.7.84-.077 1.692.051 2.562.391.562.22 1.093.49 1.588.802" style="fill:#fff;fill-opacity:1;fill-rule:nonzero;stroke:none" transform="matrix(2.62862 0 0 -2.62862 549.574 682.362)"/><path d="m0 0 11.4 6.777L15.191.401l2.841 1.689-5.393 9.072-14.241-8.468Z" style="fill:#fff;fill-opacity:1;fill-rule:nonzero;stroke:none" transform="matrix(2.62862 0 0 -2.62862 567.196 707.632)"/><path d="M0 0c-.279.476-.564.969-.858 1.482-.296.511-.578 1.004-.859 1.485-.279.476-.527.909-.739 1.295-.217.368-.456.783-.719 1.248.301.567.571 1.169.812 1.803.238.632.438 1.284.587 1.953l.926 4.086-3.438.78-.987-4.362c-.2-.886-.534-1.767-1-2.638a11.157 11.157 0 0 0-1.8-2.456c-.73-.768-1.603-1.457-2.615-2.068-1.006-.61-2.162-1.086-3.466-1.429l1.65-2.982c1.377.387 2.683.958 3.919 1.711A15.33 15.33 0 0 1-5.28 2.612 241.322 241.322 0 0 1-3.279-.803c.502-.833 1.171-1.958 2.009-3.379l2.762 1.631c-.29.45-.539.869-.751 1.253C.527-.909.283-.479 0 0" style="fill:#fff;fill-opacity:1;fill-rule:nonzero;stroke:none" transform="matrix(2.62862 0 0 -2.62862 313.194 723.403)"/><path d="m0 0-5.312 1.199-.696-3.088 5.31-1.201L-3.9-17.256l3.252-.736L5.019 7.077l-3.252.735Z" style="fill:#fff;fill-opacity:1;fill-rule:nonzero;stroke:none" transform="matrix(2.62862 0 0 -2.62862 326.698 707.587)"/><path d="m0 0 3.254-.734 6.228 27.549-3.253.737Z" style="fill:#fff;fill-opacity:1;fill-rule:nonzero;stroke:none" transform="matrix(2.62862 0 0 -2.62862 330.493 761.324)"/><path d="m0 0-8.871-.281-.16 4.995 8.87.279zm3.075 8.264-15.537-.493.359-11.294 15.539.496z" style="fill:#fff;fill-opacity:1;fill-rule:nonzero;stroke:none" transform="matrix(2.62862 0 0 -2.62862 417.521 716.51)"/><path d="m0 0 11.762.374.32-10.023 3.399.109L15.16.479l11.769.375-.102 3.139L-.1 3.13Z" style="fill:#fff;fill-opacity:1;fill-rule:nonzero;stroke:none" transform="matrix(2.62862 0 0 -2.62862 372.127 741.38)"/><path d="M0 0c2.157-2.116 4.13-4.435 5.533-8.084l2.492 2.541C6.756-2.334 4.743-.012 2.581 2.103l-4.484 4.391L-13.687-5.55l2.227-2.182 9.471 9.677z" style="fill:#fff;fill-opacity:1;fill-rule:nonzero;stroke:none" transform="matrix(2.62862 0 0 -2.62862 637.64 613.981)"/><path d="m0 0-5.955 5.828-2.358-2.411 5.95-5.828-1.557-1.588-5.946 5.822-2.337-2.382 5.947-5.828-4.563-4.664 2.254-2.2L9.896 5.604 7.641 7.808Z" style="fill:#fff;fill-opacity:1;fill-rule:nonzero;stroke:none" transform="matrix(2.62862 0 0 -2.62862 656.474 642.358)"/></svg>