<svg xmlns="http://www.w3.org/2000/svg" width="225mm" height="224.99998mm" viewBox="0 0 225 224.99998"><path d="M0 0c104.176 0 188.649 84.457 188.649 188.64 0 104.185-84.473 188.648-188.649 188.648-104.195 0-188.643-84.463-188.643-188.648C-188.643 84.457-104.195 0 0 0" style="fill:#fff;fill-opacity:1;fill-rule:nonzero;stroke:none" transform="matrix(.59163 0 0 -.59163 112.498 224.108)"/><path d="M0 0c0 103.188 83.95 187.143 187.136 187.143C290.328 187.143 374.28 103.188 374.28 0c0-103.183-83.952-187.13-187.144-187.13C83.95-187.13 0-103.183 0 0m-3.012 0c0-104.848 85.301-190.148 190.148-190.148 104.855 0 190.156 85.3 190.156 190.148 0 104.857-85.301 190.158-190.156 190.158C82.289 190.158-3.012 104.857-3.012 0" style="fill:#264a90;fill-opacity:1;fill-rule:nonzero;stroke:none" transform="matrix(.59163 0 0 -.59163 1.782 112.503)"/><path d="M0 0c72.923 0 132.054 59.132 132.054 132.053 0 72.929-59.131 132.055-132.054 132.055-72.934 0-132.063-59.126-132.063-132.055C-132.063 59.132-72.934 0 0 0" style="fill:#fff;fill-opacity:1;fill-rule:nonzero;stroke:none" transform="matrix(.59163 0 0 -.59163 112.502 190.626)"/><path d="M0 0c0 70.941 57.721 128.659 128.67 128.659 70.941 0 128.661-57.718 128.661-128.659 0-70.943-57.72-128.661-128.661-128.661C57.721-128.661 0-70.943 0 0m-6.785 0c0-74.684 60.762-135.447 135.455-135.447 74.685 0 135.446 60.763 135.446 135.447 0 74.686-60.761 135.449-135.446 135.449C53.977 135.449-6.785 74.686-6.785 0" style="fill:#264a90;fill-opacity:1;fill-rule:nonzero;stroke:none" transform="matrix(.59163 0 0 -.59163 36.377 112.5)"/><path d="M0 0c.793 5.116 8.606 3.999 7.805-1.206C6.999-6.409-.789-5.11 0 0" style="fill:#264a90;fill-opacity:1;fill-rule:nonzero;stroke:none" transform="matrix(.59163 0 0 -.59163 16.822 98.052)"/><path d="M0 0c-.672-1.312-2.049-1.86-3.401-1.173l-6.483 3.294-1.19-1.849c-1.041-1.168-2.973-.337-2.226 1.132l2.974 5.846c.381.759.944.972 1.699.589l7.197-3.658L9.141 24.979c.868 1.712 3.812.511 2.823-1.435zm3.269 23.86L1.83 21.038l-5.129 2.604-3.095-6.084c-.867-1.706-3.43-.355-2.581 1.313l3.091 6.084-3.419 1.744c.095-.902-.17-1.917-.758-3.073l-4.423-8.705 3.336-1.699c1.313-.668 1.565-1.748.8-3.256l-1.276-2.508-5.292 2.688-5.011-9.857c-1.009-1.993-3.511-.319-2.665 1.351l11.865 23.346c.465.912.771 1.909.876 3.004l-12.246 6.227-1.593-2.544c-1.46-.61-2.205 1.469-1.2 2.362l2.668 5.246c.661.617 1.381.748 2.056.409L-.573 28.715c3.344-1.699 4.627-3.301 3.842-4.855m-32.058-11.578c5.684-2.892 11.424 8 5.579 10.973-5.646 2.87-11.104-8.165-5.579-10.973m-2.305-4.734c-4.972 2.526-4.277 7.629-2.337 11.941-2.227 1.133-.672 3.998 1.476 2.907 2.125 4.477 6.654 7.877 11.208 5.51 9.168-4.808-.803-25.211-10.347-20.358" style="fill:#264a90;fill-opacity:1;fill-rule:nonzero;stroke:none" transform="matrix(.59163 0 0 -.59163 35.484 80.865)"/><path d="M0 0c4.607-4.601 12.771 3.642 8.189 8.211C3.041 13.343-4.929 4.914 0 0m-3.971-4.167C-7.352-.86-6.13 4.914-2.914 9.08c-1.736 1.101 1.034 4.136 2.393 2.4 3.469 2.653 9.334 4.234 12.745.58C19.896 3.902 3.668-11.602-3.971-4.167m3.909 29.304 4.613-4.599c1.166-1.163 1.17-2.363-.031-3.563l-2.267-2.272-2.525 2.52c-1.072-1.705-2.144-3.35-3.563-4.77l-15.5-15.533c-1.575-1.577-3.914.687-2.307 2.301l5.737 5.744-3.54 3.529-1.638-1.263c-.913-.601-2.083.505-1.291 1.289l4.349 4.36c.596.6 1.195.631 1.766.065l4.166-4.16 5.956 5.969c1.887 1.896 3.056 3.503 3.525 4.799l-10.168 10.15-2.362-1.866c-1.578-.193-1.611 2.11-.415 2.616l4.193 4.2c.789.411 1.453.315 2.05-.278l7.071-7.063 4.005 4.012c1.513 1.517 3.692-.657 2.178-2.174Zm-8.158-8.932-2.016-2.024-7.454 7.437-11.28-11.306c-1.509-1.513-3.85.693-2.273 2.27l13.297 13.327c1.226 1.228 2.426 1.233 3.597.063l6.188-6.175c1.073-1.071.982-2.551-.059-3.592" style="fill:#264a90;fill-opacity:1;fill-rule:nonzero;stroke:none" transform="matrix(.59163 0 0 -.59163 48.958 53.078)"/><path d="m0 0-2.86-1.458-7.533 14.734c-.664-1.441-1.951-2.649-3.895-3.646l-16.526-8.445c-1.552-.793-2.691-.423-3.438 1.048l-8.307 16.243-1.393-.411c-1.555-.192-2.665 1.59-1.2 2.342l18.791 9.603c2.102 1.079 3.628-1.804 1.483-2.898l-12.831-6.56 7.695-15.051 14.217 7.269c1.988 1.012 3.276 2.22 3.8 3.646l-8.427 16.481-2.763-1.162c-1.676.344-.739 2.525.415 2.616l5.284 2.702c.876.147 1.48-.148 1.864-.903L.09 5.411C1.533 2.589 1.51.772 0 0" style="fill:#264a90;fill-opacity:1;fill-rule:nonzero;stroke:none" transform="matrix(.59163 0 0 -.59163 80.556 36.85)"/><path d="m0 0-3.125-.494-5.971 37.898-3.004-.113c-1.351.822-.105 2.649 1.209 2.355l5.815.917c.887-.178 1.415-.68 1.535-1.431L1.88 4.721C2.328 1.854 1.721.268 0 0m-11.42 12.605-7.978 9.356c-3.122-6.273-6.024-10.205-12.614-13.096-3.801-1.679-5.324-.023-1.48 1.936 6.338 4.789 10.753 14.019 12.304 21.67l-11.767-1.854c-2.204-.346-2.839 2.854-.506 3.217l16.304 2.57c5.42.852.307-9.389-.604-11.658l9.466-6.455c1.917-.738.113-7.343-3.125-5.686" style="fill:#264a90;fill-opacity:1;fill-rule:nonzero;stroke:none" transform="matrix(.59163 0 0 -.59163 106.833 30.507)"/><path d="m0 0-3.043.481 1.303 8.236-5.152.815c-2.246.359-1.794 3.542.501 3.175l5.329-.842 1.126 7.092-2.918.689c-.848.9.472 2.138 1.853 1.738l5.555-.877c.815-.268 1.177-.822 1.043-1.701L3.23 3.868C2.777 1.003 1.716-.272 0 0m-24.776-14.734c-1.458.233-2.362 1.366-2.123 2.868l.733 4.627-1.336.705c-1.08.305-.905 2.268.329 2.073L-4.48-8.054l.619 3.924-21.195 3.353c-1.804.286-1.728 3.342.475 2.997L-.262-1.632c1.457-.23 2.405-1.373 2.166-2.871l-.781-4.934c-.256-1.628-1.226-2.335-2.946-2.064l-18.989 3.006-.585-3.703 22.559-3.571c2.117-.332 1.641-3.33-.472-2.992zm-2.183 20.489c-1.448.23-2.401 1.374-2.163 2.872l1.929 12.205-1.871.431c-1.413.494-1.269 2.822.407 2.554l20.659-3.269c2.341-.369 1.639-3.646-.521-3.302l-13.353 2.111-.604-3.831 11.058-1.752c2.072-.329 1.504-3.354-.479-3.041L-23.045 12.5l-.615-3.881 14.674-2.32c2.293-.362 1.681-3.653-.521-3.304Z" style="fill:#264a90;fill-opacity:1;fill-rule:nonzero;stroke:none" transform="matrix(.59163 0 0 -.59163 134.005 21.09)"/><path d="m0 0-2.305 1.18 11.14 21.713-4.131 2.116-7.551-14.729C-4.292 7.467-5.78 6.42-7.286 7.195l-2.386 1.222 6.069 11.829c-1.834.037-3.407.393-4.678 1.045l-9.843 5.045c-1.549.797-1.917 1.936-1.163 3.405l8.553 16.673-1.628 1.133c-.589.905-.131 2.476 1.099 1.843l12.938-6.636c1.787-.913.484-3.756-1.427-2.777l-6.707 3.441-7.898-15.402 7.539-3.869c1.829-.935 3.42-1.252 4.723-.965l8.729 17.029-2.457 1.363c-.585 1.301 1.34 2.32 2.562 1.089l4.567-2.339c.552-.585.628-1.222.242-1.977l-5.36-10.441 4.053-2.076 5.03 9.806-2.838 1.702c-.726 1.326 1.478 2.299 2.406 1.174l5.042-2.588c.631-.624.785-1.303.396-2.059L4.482 3.065C3.033.246 1.546-.795 0 0" style="fill:#264a90;fill-opacity:1;fill-rule:nonzero;stroke:none" transform="matrix(.59163 0 0 -.59163 156.162 42.911)"/><path d="m0 0-5.661-5.634c-1.171-1.164-2.369-1.158-3.598.071l-2.236 2.247L3.022 11.126l-1.917 2.308c-.123 1.577 2.083 1.632 2.619.404l4.249-4.271c.279-.788.181-1.451-.355-1.988L2.243 2.236l3.964-3.988c1.538-1.55-.766-3.721-2.242-2.232Zm-19.7 18.403c-4.586-4.558 2.304-11.485 6.89-6.921 4.615 4.593-2.212 11.579-6.89 6.921m12.414-4.317c.782-2.937.464-4.955-1.719-7.125-7.146-7.111-21.933 8.189-15.01 15.081 1.932 1.921 4.393 2.356 7.42 1.403l-3.715 3.73c-1.447 1.456.641 3.786 2.213 2.204l6.607-6.643 1.835 1.827-1.098 1.675c-.665 1.041.664 2.175 1.418 1.415l4.627-4.643c.597-.606.628-1.205.026-1.803l-2.652-2.644 6.227-6.258c1.574-1.586-.766-3.661-2.21-2.204zm-14.715-32.327-2.232 2.245 9.2 9.157-15.858 15.936c-1.57 1.581.702 3.91 2.309 2.295L-10.49-6.787c1.038-1.045 1.129-2.526.053-3.597l-6.642-6.605c-2.053-2.045-3.695-2.482-4.922-1.252" style="fill:#264a90;fill-opacity:1;fill-rule:nonzero;stroke:none" transform="matrix(.59163 0 0 -.59163 188.38 48.65)"/><path d="m0 0-1.451 2.863 17.746 8.994-10.666 21.05c-1.107 2.189 2.033 3.781 3.143 1.593l12.119-23.916c.665-1.315.193-2.75-1.12-3.417L5.407-.113C2.583-1.543.764-1.512 0 0m-21.206 22.212c-1.006 1.988 1.877 3.498 2.904 1.471l3.269-6.446 9.471 4.797-.912 2.688c-.347 1.078 1.325 2.124 1.91.968l3.205-6.33c.38-.754.225-1.33-.53-1.711l-10.503-5.327 2.318-4.577 9.627 4.882-.908 2.288c-.108 1.196 1.364 2.042 1.908.966l3.106-6.129c.38-.754.164-1.314-.593-1.699L-7.636 2.635l4.698-9.274c1.111-2.189-1.852-3.544-2.903-1.471z" style="fill:#264a90;fill-opacity:1;fill-rule:nonzero;stroke:none" transform="matrix(.59163 0 0 -.59163 197.097 76.345)"/><path d="M0 0c.788-5.11-7.006-6.401-7.805-1.2C-8.604 4.005-.786 5.118 0 0" style="fill:#264a90;fill-opacity:1;fill-rule:nonzero;stroke:none" transform="matrix(.59163 0 0 -.59163 208.187 98.119)"/><path d="m0 0-.12 1.078 16.484 7.916L-1.423 12.6l-.123 1.08 24.373 10.718.399-3.541-16.832-6.976 18.021-3.522.135-1.201L7.767 1.759l17.972-3.1.401-3.538z" style="fill:#264a90;fill-opacity:1;fill-rule:nonzero;stroke:none" transform="matrix(.59163 0 0 -.59163 11.128 128.684)"/><path d="M0 0c-2.758-.786-4.91-1.99-6.451-3.609-1.538-1.622-2.022-3.426-1.455-5.415.641-2.249 1.978-3.724 4.011-4.423 2.035-.698 4.586-.607 7.651.263 6.197 1.767 8.641 4.957 7.328 9.573C10.503-1.568 9.228-.252 7.258.34 5.287.932 2.872.818 0 0m-.978 3.426c3.488.993 6.651.953 9.492-.128 2.842-1.079 4.684-3.103 5.528-6.069.953-3.34.605-6.204-1.047-8.6-1.653-2.394-4.409-4.142-8.262-5.238-3.955-1.126-7.311-1.119-10.058.031-2.748 1.144-4.596 3.383-5.544 6.711-.864 3.031-.358 5.741 1.521 8.131 1.879 2.388 4.672 4.11 8.37 5.162" style="fill:#264a90;fill-opacity:1;fill-rule:nonzero;stroke:none" transform="matrix(.59163 0 0 -.59163 20.263 135.052)"/><path d="m0 0 11.488 19.327-16.44-7.319-1.329 2.976L16.613 25.18l.566-1.268-10.7-18.579 15.833 7.05 1.328-2.979L.414-.936Z" style="fill:#264a90;fill-opacity:1;fill-rule:nonzero;stroke:none" transform="matrix(.59163 0 0 -.59163 20.663 158.703)"/><path d="m0 0 6.159 12.031-5.782.371-5.793-3.54-1.796 2.935 21.379 13.075 1.797-2.94-11.628-7.107L20.817 14l1.982-3.248-13.168.721L1.984-3.246Z" style="fill:#264a90;fill-opacity:1;fill-rule:nonzero;stroke:none" transform="matrix(.59163 0 0 -.59163 27.125 169.394)"/><path d="m0 0-.702.829 9.311 15.737-16.795-6.878-.702.829L5.423 32.969l2.303-2.725-10.123-15.152 16.942 7.084.782-.922-9.85-15.477 16.666 7.405 2.302-2.721z" style="fill:#264a90;fill-opacity:1;fill-rule:nonzero;stroke:none" transform="matrix(.59163 0 0 -.59163 36.849 182.205)"/><path d="m0 0-10.258-5.545 5.533-4.997zm-7.993-18.17 2.287 5.097-6.929 6.26-4.945-2.694-2.822 2.548L4.211 5.063l.672-.607L-5.17-20.722Z" style="fill:#264a90;fill-opacity:1;fill-rule:nonzero;stroke:none" transform="matrix(.59163 0 0 -.59163 51.539 180.676)"/><path d="m0 0-.26 22.482-10.221-14.81-2.68 1.853L1.072 30.15l1.144-.788.542-21.432 9.844 14.261 2.683-1.847L.846-.58Z" style="fill:#264a90;fill-opacity:1;fill-rule:nonzero;stroke:none" transform="matrix(.59163 0 0 -.59163 58.065 199.913)"/><path d="m0 0-2.532-1.891C-3.501.021-4.733 1.347-6.211 2.088c-2.349 1.168-4.614 1.267-6.794.295-2.182-.975-3.954-2.824-5.314-5.545-1.29-2.59-1.668-5.009-1.125-7.254.544-2.246 1.962-3.939 4.257-5.084 1.631-.814 3.193-.988 4.695-.518l2.613 5.235-3.081 1.541 1.295 2.591 6.159-3.076-4.865-9.74c-1.162-.287-2.577-.274-4.246.029-1.671.307-3.193.806-4.57 1.493-3.087 1.54-5.004 3.806-5.748 6.796-.743 2.989-.245 6.225 1.491 9.699 1.728 3.47 4.114 5.79 7.156 6.968 3.038 1.177 6.223.935 9.555-.729C-2.399 3.627-.823 2.027 0 0" style="fill:#264a90;fill-opacity:1;fill-rule:nonzero;stroke:none" transform="matrix(.59163 0 0 -.59163 77.314 194.297)"/><path d="m0 0-4.85-18.101c.71-.308 1.611-.607 2.702-.901 2.321-.624 4.378-.241 6.168 1.136 1.789 1.382 3.102 3.615 3.929 6.698C9.484-5.435 7.673-1.879 2.515-.495 2.203-.411 1.367-.249 0 0m-4.137-21.655-4.879 1.306 6.491 24.211C.612 3.144 2.614 2.664 3.49 2.431c3.383-.907 5.791-2.655 7.213-5.239 1.423-2.585 1.675-5.586.759-9.002-2.337-8.724-7.537-12.007-15.599-9.845" style="fill:#264a90;fill-opacity:1;fill-rule:nonzero;stroke:none" transform="matrix(.59163 0 0 -.59163 86.597 198.436)"/><path d="m0 0 4.178 24.708 3.393-.572L3.394-.572Z" style="fill:#264a90;fill-opacity:1;fill-rule:nonzero;stroke:none" transform="matrix(.59163 0 0 -.59163 94.307 213.604)"/><path d="m0 0-1.607-2.723c-1.634 1.391-3.276 2.141-4.93 2.25-2.619.176-4.747-.607-6.385-2.345-1.634-1.743-2.555-4.131-2.759-7.164-.192-2.893.393-5.266 1.759-7.129 1.366-1.861 3.328-2.876 5.888-3.05 1.823-.12 3.331.323 4.533 1.335l.388 5.838-3.434.23.193 2.893 6.868-.461-.724-10.865c-.967-.71-2.273-1.246-3.934-1.608-1.657-.361-3.252-.491-4.788-.389-3.446.23-6.089 1.582-7.926 4.052-1.838 2.472-2.63 5.648-2.367 9.526.258 3.869 1.562 6.93 3.911 9.191 2.352 2.256 5.381 3.26 9.098 3.013C-3.615 2.418-1.539 1.554 0 0" style="fill:#264a90;fill-opacity:1;fill-rule:nonzero;stroke:none" transform="matrix(.59163 0 0 -.59163 111.262 201.542)"/><path d="m0 0-.812 25.049 3.44.109L3.442.113Z" style="fill:#264a90;fill-opacity:1;fill-rule:nonzero;stroke:none" transform="matrix(.59163 0 0 -.59163 114.867 215.192)"/><path d="m0 0 2.672-21.816-3.416-.42L-3.421-.418l-7.908-.972-.375 3.058L7.895 4.069l.377-3.056z" style="fill:#264a90;fill-opacity:1;fill-rule:nonzero;stroke:none" transform="matrix(.59163 0 0 -.59163 124.402 201.431)"/><path d="m0 0-1.343-11.584 7.271 1.668zm10.305-16.965-2.861 4.797-9.106-2.092-.626-5.594-3.711-.851 4.266 27.06.881.204 14.867-22.674z" style="fill:#264a90;fill-opacity:1;fill-rule:nonzero;stroke:none" transform="matrix(.59163 0 0 -.59163 133.086 201.736)"/><path d="m0 0-8.424 23.601 3.237 1.16L2.203 4.06l10.695 3.816 1.036-2.898z" style="fill:#264a90;fill-opacity:1;fill-rule:nonzero;stroke:none" transform="matrix(.59163 0 0 -.59163 143.363 210.549)"/><path d="m0 0 2.983 1.707 8.527-14.883c.759-1.326 1.804-2.174 3.136-2.549 1.333-.372 2.692-.164 4.077.631 1.467.838 2.381 1.914 2.747 3.227.366 1.313.139 2.683-.674 4.106L12.31 7.049l2.989 1.713L23.96-6.36c1.258-2.198 1.553-4.307.885-6.326-.668-2.018-2.189-3.706-4.56-5.065-2.443-1.396-4.668-1.872-6.676-1.419-2.017.45-3.667 1.805-4.961 4.063z" style="fill:#264a90;fill-opacity:1;fill-rule:nonzero;stroke:none" transform="matrix(.59163 0 0 -.59163 151.366 191.474)"/><path d="m0 0-21.49 6.598 10.997-14.244-2.581-1.992-15.316 19.832 1.098.848 20.583-6.004-10.589 13.719 2.578 1.994L.818.628Z" style="fill:#264a90;fill-opacity:1;fill-rule:nonzero;stroke:none" transform="matrix(.59163 0 0 -.59163 178.645 191.357)"/><path d="m0 0-17.141 18.282 2.51 2.356L2.51 2.356Z" style="fill:#264a90;fill-opacity:1;fill-rule:nonzero;stroke:none" transform="matrix(.59163 0 0 -.59163 181.707 188.251)"/><path d="m0 0-1.166-1.311-25.209 9.909 2.527 2.841 18.115-7.43-9.688 16.903 2.448 2.752z" style="fill:#264a90;fill-opacity:1;fill-rule:nonzero;stroke:none" transform="matrix(.59163 0 0 -.59163 189.495 180.588)"/><path d="m0 0 5.699-3.967 4.624 6.643L12.7 1.019 8.078-5.624l7.434-5.175 6.486 9.319 2.526-1.759-8.448-12.144L-4.493-1.064l8.452 12.142 2.53-1.758Z" style="fill:#264a90;fill-opacity:1;fill-rule:nonzero;stroke:none" transform="matrix(.59163 0 0 -.59163 184.676 165.527)"/><path d="m0 0 7.216-3.838c.488.676.913 1.359 1.283 2.047.967 1.823 1.382 3.305 1.239 4.447-.144 1.145-.967 2.119-2.472 2.918-1.242.661-2.375.692-3.394.091-1.018-.603-2.047-1.864-3.068-3.79C.641 1.569.373.947 0 0m24.264-1.215-12.633-.857c-.36-.679-.981-1.721-1.857-3.128l9.64-5.131-1.62-3.037L-4.313-1.599c.056.109.441.911 1.139 2.411.701 1.501 1.231 2.586 1.585 3.249 2.835 5.333 6.367 6.873 10.595 4.624a6.774 6.774 0 0 0 3.066-3.283c.658-1.451.806-2.839.451-4.164L26.107 2.25Z" style="fill:#264a90;fill-opacity:1;fill-rule:nonzero;stroke:none" transform="matrix(.59163 0 0 -.59163 190.234 156.923)"/><path d="m0 0-2.46 2.318c.668.428 1.321 1.032 1.963 1.809C.144 4.906.604 5.645.885 6.352c.489 1.248.546 2.384.165 3.411-.379 1.021-1.095 1.743-2.144 2.159a4.353 4.353 0 0 1-2.434.229c-.842-.155-1.988-.924-3.453-2.304l-1.622-1.545c-1.374-1.31-2.695-2.077-3.963-2.309-1.27-.234-2.618-.068-4.05.493-1.741.686-2.938 1.876-3.599 3.563-.655 1.687-.603 3.502.164 5.441 1.023 2.59 2.155 4.225 3.394 4.905l2.41-2.04c-.482-.301-1.04-.833-1.679-1.592-.635-.757-1.102-1.509-1.398-2.253-.425-1.086-.455-2.065-.085-2.929.369-.868 1.038-1.491 2.005-1.871a4.186 4.186 0 0 1 1.758-.306 3.682 3.682 0 0 1 1.593.449c.484.268 1.269.903 2.347 1.898l1.66 1.554c1.382 1.299 2.726 2.062 4.024 2.293 1.295.229 2.751.029 4.363-.61 1.751-.69 2.955-1.979 3.62-3.87.663-1.891.531-4.016-.405-6.379C2.742 2.664 1.556 1.086 0 0" style="fill:#264a90;fill-opacity:1;fill-rule:nonzero;stroke:none" transform="matrix(.59163 0 0 -.59163 205.529 154.04)"/><path d="m0 0-23.975 7.305 1.005 3.291L1.003 3.288Z" style="fill:#264a90;fill-opacity:1;fill-rule:nonzero;stroke:none" transform="matrix(.59163 0 0 -.59163 210.04 143.797)"/><path d="m0 0 21.52-4.472-.701-3.372L-.702-3.37l-1.624-7.802-3.011.628 4.017 19.33 3.018-.627z" style="fill:#264a90;fill-opacity:1;fill-rule:nonzero;stroke:none" transform="matrix(.59163 0 0 -.59163 200.081 130.33)"/><path d="m0 0 11.186-.925-.282-3.431L-.28-3.43l-14.458-6.926.288 3.492 11.427 5.359-10.392 7.158.288 3.491z" style="fill:#264a90;fill-opacity:1;fill-rule:nonzero;stroke:none" transform="matrix(.59163 0 0 -.59163 207.887 119.898)"/><path d="M0 0v125.89h-160.85V-.053l.256-3.807c1.283-7.917 7.195-29.309 35.008-45.605 0 0 3.427-2.669 28.189-13.732 0 0 5.793-1.871 16.776-10.9 10.017 8.647 12.76 9.606 16.629 11.531 10.264 5.045 28.735 13.101 28.735 13.101C-6.626-35.034-1.532-11.777-.264-3.86z" style="fill:#2d478d;fill-opacity:1;fill-rule:nonzero;stroke:none" transform="matrix(.59163 0 0 -.59163 160.082 137.409)"/><path d="M0 0v-182.13c5.728 4.59 8.808 6.277 12.361 8.002l.95.465c9.771 4.832 26.449 12.115 28.801 13.127 21.691 11.02 28.626 27.498 30.614 39.536.045.616.173 2.778.219 3.201V0Z" style="fill:#264a90;fill-opacity:1;fill-rule:nonzero;stroke:none" transform="matrix(.59163 0 0 -.59163 112.308 67.543)"/><path d="M0 0v-117.89c.014-.384.173-2.494.196-3.11 1.268-7.396 6.786-25.526 31.203-39.839l.34-.211s.106-.068.231-.178c.283-.183 4.834-3.095 26.617-12.851 1.684-.596 6.296-2.655 13.678-8.098 0 0 .007.022.03.047V0Z" style="fill:#d22027;fill-opacity:1;fill-rule:nonzero;stroke:none" transform="matrix(.59163 0 0 -.59163 69.536 67.543)"/><path d="M0 0v-117.089l-.22-3.138c-1.931-11.72-8.755-28.052-30.233-38.948.034.018-28.771-13.103-28.771-13.103l-.958-.469c-3.414-1.672-6.537-3.37-12.122-7.816-7.306 5.355-11.798 7.315-13.389 7.892-22.266 9.975-26.4 12.744-26.435 12.772-.287.194-.634.404-.634.404-24.198 14.206-29.633 32.234-30.848 39.327l-.223 3.085L-143.829 0zm-145.263 1.43v-118.577c.003-.064.23-3.177.23-3.177 1.256-7.375 6.831-25.895 31.543-40.404.264-.145.562-.357.562-.357 0-.004 3.805-2.66 26.699-12.912 1.271-.465 5.864-2.35 13.522-8.026l.442-.33.434.345c5.769 4.642 8.849 6.298 12.277 7.978l.959.468 28.75 13.091C-7.788-149.283-.792-132.508 1.2-120.403c.008.056.226 3.256.226 3.256L1.43 1.43Z" style="fill:#fff;fill-opacity:1;fill-rule:nonzero;stroke:none" transform="matrix(.59163 0 0 -.59163 155.036 68.08)"/><path d="M0 0c2.235-.098 4.45-1.427 4.608-4.405.404-4.525-5.944-8.603-5.944-8.603-7.197-5.059-11.428-11.399-11.428-11.399s-14.337-20.916 4.39-38.387c0 0 10.404-9.992 28.456-5.468 0 0 22.086 5.39 19.568 31.752 0 0-1.671 13.665-14.266 17.009 0 0-15.318 4.303-20.557-9.28 0 0-2.34-5.593-.227-9.718a10.072 10.072 0 0 1 10.44-6.844c5.382.457 9.413 5.113 9.163 10.482 1.246-.94 2.941-3.048 1.97-7.443 0 0-1.917-9.963-13.655-10.34C-2.366-53.12-2.971-38.737-2.971-38.737-4.32-24.98 8.19-15.911 8.19-15.911 18.587-8.594 18.535-.815 18.535-.815s.788 9.677-10.409 10.084c0 0 16.783 2.168 15.519 14.357 0 0-1.506-4.757-10.55-5.889 0 0-11.514-1.175-9.763-9.683 0 0-7.978-2.311-10.827-10.287C-7.495-2.233-3.476.22 0 0" style="fill:#fff;fill-opacity:1;fill-rule:nonzero;stroke:none" transform="matrix(.59163 0 0 -.59163 92.353 111.087)"/><path d="M0 0c-.725 3.193-2.703 15.164-2.703 15.164C-4.506 28.461-.8 37.903-.8 37.903 2.393 46.501 9.137 53.74 9.137 53.74c3.318 3.729 10.96 9.751 10.96 9.751 15.541 13.527 3.605 30.63 3.605 30.63 19.201-17.6 7.691-36.058 7.691-36.058-3.351-6.702-8.839-11.245-8.839-11.245C9.428 34.772 12.258 17.732 12.258 17.732l2.318-24.048z" style="fill:#fff;fill-opacity:1;fill-rule:nonzero;stroke:none" transform="matrix(.59163 0 0 -.59163 107.226 129.368)"/><path d="M0 0c31.809 3.386 26.058 30.958 26.058 30.958-.941 8.652-2.305 26.494-2.305 26.494-.77 13.269 12.297 17.345 12.297 17.345 2.77 1.126 4.794 1.365 8.232 2.091 4.099 1.177 6.008 2.107 6.008 2.107 17.715 8.429 17.386 27.723 17.386 27.723C62.05 91.138 37.157 87.71 37.157 87.71c-28.4-6.06-25.351-31.631-25.351-31.631l2.235-25.408S17.305 11.193 0 0" style="fill:#fff;fill-opacity:1;fill-rule:nonzero;stroke:none" transform="matrix(.59163 0 0 -.59163 109.981 151.057)"/><path d="M0 0c1.93-23.043-22.663-26.892-22.663-26.892C-8.785-18.386-11.046-.61-11.046-.61l-2.306 27.142s-2.31 13.243 15.698 16.035c0 0 16.215 3.164 20.489 14.2 0 0 .685-18.57-14.514-22.041 0 0-11.188-2.963-10.272-12.307z" style="fill:#fff;fill-opacity:1;fill-rule:nonzero;stroke:none" transform="matrix(.59163 0 0 -.59163 134.565 133.379)"/></svg>