<svg xmlns="http://www.w3.org/2000/svg" width="220.00002mm" height="220.00002mm" viewBox="0 0 220.00002 220.00002"><g transform="matrix(1.18935 0 0 1.18735 -12.982 -90.725)"><circle cx="103.15036" cy="168.64465" r="92.235001" style="fill:#fff;stroke:#fff;stroke-width:0"/><path d="M111.136 112.346a.84.84 0 1 0 1.68-.002.84.84 0 0 0-1.68.002M83.625 113.185a.84.84 0 1 0-.001-1.68.84.84 0 0 0 .001 1.68M84.005 116.405l-.8-.242-.706-.23 1.593-.223.002-.162-.804-.257-.7-.243 1.59-.196.011-.293.004-.047-.002.001v-.02l-2.729.347v.154l.855.276.722.25-1.67.243-.002.153 2.613.87zm.171-1.894v.004l-.467.056zm-1.629.522.782-.088-.744.1zm.498.49.034.01-.795.109zm-.589.396.778-.102-.74.114-.038-.012M81.732 118.266c.23.124.532.186.897.186.042 0 .085 0 .128-.003.426-.015.758-.1.99-.25a.689.689 0 0 0 .337-.635c-.011-.247-.15-.44-.42-.577-.266-.134-.592-.196-.968-.182-.428.016-.77.096-1.013.238-.246.144-.366.346-.357.598.01.276.147.485.406.625zm.277-.95c.164-.077.4-.124.701-.135h.105c.23 0 .42.031.565.092.164.069.246.17.252.308.01.303-.288.47-.888.492-.31.013-.55-.022-.716-.1-.161-.076-.244-.19-.25-.348-.004-.132.07-.232.23-.308M84.237 119.593l-.844.156-.682.11 1.41-1.108-.048-.17-2.612.439.072.325.859-.157.708-.115-1.48 1.143.023.151 2.666-.448zm-.18-.992-.038.008zm-.952.471.032-.004-.694.532zm-.43.792.654-.508-.623.503zm1.611.033.002.006h-.002v-.006M85.594 123.573l-.001-.004.02-.003-.158-.324-.814.182-.73.146 1.278-.976-.077-.142-.828.17-.73.132 1.292-.95-.135-.26-.02-.044-.002.003-.007-.017.037.007-.003-.008.021.004-.116-.372-.723-.117-.619-.117 1.188-.354-.113-.328-2.492.723-.033.01-.018.006.112.327.684-.196.27.036.151.03-.933.808.113.404 1.245-1.08.877.151.35.066-2.207 1.64.074.134.871-.177.76-.138-1.336 1.031.06.137 2.215-.447zm-.003-.018h-.005l-.025-.057zm-.868-2.08h-.01l-.03-.105zm-2.016-.042.33-.295.015.003zm.53-.558.577-.162-.54.168zm1.438.632.001.004-.383.281zm-1.164 1.254.642-.46-.604.453zm.675.182.033-.006-.63.477zm-.319.637.607-.455-.57.446-.037.008M85.92 123.976l-2.145.61-.514.141.003.004-.02.006.207.32.502-.17.325.519-.391.41.197.333 1.93-2.04zm-2.655.77.006-.002.037.064zm1.059.028.153-.05-.15.053zm.227.38-.032-.053.033.05zm.142-.134-.128.12-.196-.29-.036-.06.868-.28-.508.51M87.24 125.936l.013-.011-.216-.254-.656.527-.562.43.715-1.641-.121-.13-2.092 1.625.216.253.671-.537.58-.443-.762 1.707.093.12 2.114-1.64zm-2.699.773.025-.02zm1.868-1.824h.001l-.044.033zm-.616.866.027-.02-.37.817zm-.004.9.341-.774-.315.755zm1.232-.944.012-.01v.001zM86.874 127.918l.18.155-.393.357a.339.339 0 0 1-.25-.106c-.118-.121-.154-.275-.107-.457.047-.186.17-.378.368-.57.207-.203.41-.329.605-.376.19-.045.348-.006.468.119a.395.395 0 0 1 .089.19c.017.073.026.136.038.201l-.001.025.005-.003.003.02.376-.18a.663.663 0 0 0-.18-.564c-.203-.209-.46-.283-.764-.227-.302.058-.602.23-.894.516-.29.283-.474.573-.543.858-.072.288-.011.532.176.726.087.087.193.159.317.212a.81.81 0 0 0 .323.07l.059-.007.843-.848-.432-.417zm1.017-.472.122-.055-.122.068v-.013zm-.325.583-.003-.003zM90.044 128.445l-.56.815-.012.02-.591-.4-.002-.002.585-.844.001-.003.01-.017-.291-.186-1.527 2.164.292.186.659-.951.004-.007.577.39.014.01-.683.989.277.2 1.536-2.18zm-.856-.59-.01.016zm1.118.778h.001-.001M90.175 130.227l.557.29.184-.372-.523-.27.268-.52.006-.011.766.406.194-.388-1.051-.564-1.272 2.32 1.028.575.205-.405-.72-.38zm.548.263.004-.007zm-.139-1.667v.001l-.012.022zm-.072 2.474h-.001l-.015-.01zM91.02 131.345l-.384.485h.006l-.012.017.356.135.302-.434.57.225-.072.565.354.149.35-2.787-.154-.05zm-.368.497.002-.004.068.028zm.87-.605.086-.118-.084.12zm.407.174-.052-.023.052.019zm.033-.187-.03.168-.317-.115-.076-.031.533-.742-.11.72M92.968 132.289l.627-2.143-.338-.083-.735 2.512-.004.011-.006.018 1.127.34.112-.439-.766-.21zm.303-2.201-.016.052zm-.322 2.195.03-.1-.029.1h-.001M95.753 130.663l-1.516-.29-.067.429.558.095-.426 2.192.339.068.422-2.173.623.107zm-1.502-.26.001-.008zM96.87 131.766l-.002.028-.713-.041.07-1.048-.347-.01-.2 2.615v.007l-.002.02.344.01.079-1.157.001-.007.711.04-.08 1.202.34.029.205-2.66-.343-.011zm-.976-1.036.001-.015zm1.361.081h-.012.012M99.486 132.33a.803.803 0 0 0-.146-.248 1.23 1.23 0 0 0-.288-.22c-.238-.14-.365-.284-.376-.428a.347.347 0 0 1 .041-.213c.035-.055.084-.086.185-.091.098 0 .198.043.318.11l.025.02.001-.008.018.011.062-.425c-.111-.11-.277-.158-.494-.14a.506.506 0 0 0-.4.239.826.826 0 0 0-.12.529c.008.11.03.212.064.3a.768.768 0 0 0 .133.228c.055.063.159.14.309.23a.92.92 0 0 1 .293.247c.05.075.079.155.084.24.014.18-.066.275-.272.29-.095 0-.2-.043-.326-.116-.013-.01-.027-.018-.04-.03l-.002.006a.124.124 0 0 0-.017-.008l-.083.444c.135.105.283.16.437.16l.055-.001c.202-.017.36-.101.469-.251a.814.814 0 0 0 .14-.551 1.12 1.12 0 0 0-.07-.323zm-.216-1.22-.013.134c-.002-.003-.006-.003-.01-.006zm-.746 1.895.02-.136.008.007-.028.13M101.116 132.447c0 .006-.004.008-.006.011l-.012-.016c-.063.186-.174.292-.339.32-.14.024-.27-.032-.383-.171-.116-.144-.2-.353-.25-.627-.048-.272-.042-.509.021-.702.062-.194.163-.3.308-.326a.514.514 0 0 1 .347.055c.007.007.016.01.023.018l.001-.006c.006.003.011.006.018.008l.055-.422a.709.709 0 0 0-.544-.095c-.25.044-.431.215-.542.505-.11.288-.13.627-.062 1.012.076.412.207.73.39.944.155.178.335.269.54.269a.661.661 0 0 0 .133-.013.658.658 0 0 0 .534-.431l-.154-.208zm-.266-1.598-.01.146c-.005-.003-.009-.004-.012-.007zm.225 1.69c.01-.026.02-.052.026-.08l.007.01c-.01.025-.022.047-.033.07M101.453 130.302l-.004-.018-.331.107.68 2.56.348-.112-.692-2.53zm.67 2.523-.008-.026zM102.86 132.184l-.272-.718.584-.226-.154-.384-.539.208-.01.004-.216-.553v-.004l.811-.304-.161-.404-1.12.415.877 2.497 1.092-.403.016-.006.017-.007-.162-.402zm.18-1.99v-.003zm-.149-.366-.031.01zm.694 2.104.027-.011zm.176.355v.001l-.004-.012.004.011M104.025 129.298l.384.749.307.636-1.464-1.032-.15.094 1.143 2.367.008.02.308-.171-.391-.768-.317-.657 1.519 1.093.13-.083-1.185-2.41zm-.173 1.234-.015-.03.707.513zm.88.187-.686-.49.671.46.015.03M106.641 130.063l-.001.013-.018-.011c.011.197-.05.334-.193.424-.121.077-.262.073-.42-.015-.163-.088-.32-.252-.467-.485-.148-.236-.232-.456-.246-.659-.015-.2.039-.34.163-.416a.435.435 0 0 1 .24-.081c.033 0 .069.004.114.004.006 0 .011 0 .017.004l-.001-.004h.019l-.108-.414a.718.718 0 0 0-.54.117c-.213.137-.318.361-.311.673.006.307.116.63.325.96.223.354.464.6.717.727a.78.78 0 0 0 .358.095.66.66 0 0 0 .36-.11.66.66 0 0 0 .333-.6l-.218-.134zm-.805-1.24c-.004-.003-.008-.003-.012-.004l-.032-.136zm.8 1.34c0-.028 0-.056-.006-.085l.01.007a.652.652 0 0 1-.003.078M107.51 129.693l-.493-.592.48-.403-.273-.315-.45.382-.382-.452-.003-.004.667-.554-.284-.326-.908.742-.001.001-.014.011 1.645 2.074.911-.747h.001l.014-.01-.283-.329-.627.521M109.786 126.943l-1.371-1.21-.217.27 1.316 1.186c.11.097.175.2.195.301.019.101-.01.193-.085.277a.266.266 0 0 1-.248.089.582.582 0 0 1-.306-.159l-1.35-1.19-.218.268 1.342 1.21c.21.189.412.29.605.306l.047.001a.614.614 0 0 0 .466-.225.642.642 0 0 0 .174-.547c-.028-.2-.146-.395-.35-.577zm-1.373-1.178.003-.006.001.001zM109.394 124.405v.001l-.016-.011-.175.284.694.464.582.41-1.782-.19-.085.154 2.152 1.514.015.01.188-.297-.72-.483-.592-.417 1.857.215.072-.135-2.179-1.51zm-.755 1.108.035.025zm1.012.328-.028-.02.876.107zm.86-.265-.823-.093.796.073zM109.55 124.122l2.288 1.333.168-.324-2.297-1.316zm2.43 1.016-.018-.01zM110.51 122.252v.005l-.016-.013-.146.34.755.604.636.526-1.772-.362-.11.274-.028.058h.004l-.008.02 2.714.529.08-.199-1.702-1.433zm-.037.078.025-.062.004.003zm-.628 1.363.003-.004.55.107zm1.924.048-.84-.178.814.156zM112.754 122.53l-.732-.236.189-.597-.397-.121-.178.564-.569-.181.269-.824-.415-.125-.377 1.13 2.498.879.379-1.139-.415-.124zm.642-.637-.01-.003zM113.88 119.997l-1.256.273a.61.61 0 0 0-.213-.308.937.937 0 0 0-.4-.195c-.512-.122-.83.055-.938.519a6.009 6.009 0 0 0-.055.294c-.018.12-.03.191-.021.231l2.578.605.068-.372-1.005-.215-.05-.012a.744.744 0 0 0 .045-.186l1.183-.244.045-.272.023-.099-.007.001zm-1.672.588c-.007.03-.02.074-.019.119l-.696-.148c.003-.037.006-.074.014-.107.033-.137.08-.232.143-.283a.227.227 0 0 1 .153-.05c.035 0 .075.007.117.016.15.036.243.088.279.155.037.07.04.171.01.298zm1.411.473-.006-.001zm.244-1.038-.358.073.361-.081-.003.008M113.385 118.522a1.154 1.154 0 0 0-.33.001.772.772 0 0 0-.272.092 1.19 1.19 0 0 0-.274.237c-.173.19-.334.277-.496.282a.36.36 0 0 1-.202-.085.185.185 0 0 1-.055-.169c.013-.105.07-.201.166-.309l.035-.031-.006-.003.013-.014-.404-.149c-.13.087-.208.24-.237.456a.509.509 0 0 0 .153.44.824.824 0 0 0 .493.224c.11.016.213.016.305 0a.738.738 0 0 0 .252-.085c.073-.041.168-.124.288-.254.117-.124.218-.204.3-.237a.493.493 0 0 1 .255-.033c.178.024.254.122.23.3-.012.104-.077.205-.183.322-.013.012-.024.023-.038.034l.006.003a.109.109 0 0 0-.013.014l.41.178.01-.007a.696.696 0 0 0 .255-.45.617.617 0 0 0-.15-.51.8.8 0 0 0-.51-.247zm-1.439.003-.008.008-.126-.05zm1.443 1.03c.003 0 .006-.003.008-.005l.116.05-.124-.045M111.468 118.036l2.643.151.003-.365-2.645-.132zm2.625-.197-.037-.002zm-2.607-.129v.004-.004M111.32 114.823l.67.145.477.117-1.047.589.043.314.033 1.538.452-.028-.03-.552-.001-.014 2.232-.07-.026-.344-2.195.068-.034-.631-.301.02 1.35-.759 1.086-.162-.065-.34-1.06.14-1.21-.285-.414-.107v.007l-.02-.004zm.596 2.09.032-.001zm2.09-1.876v-.008zm-.057-.303h-.011zm-1.456.358-.428.234.41-.24zm-1.21-.609.01.086-.018-.087zm0 0" style="fill:#114c8a;fill-opacity:1;fill-rule:nonzero;stroke:none;stroke-width:.352778" transform="matrix(5.24594 0 0 5.24594 -409.36 -444.81)"/><path d="M97.754 99.716c-9.56 0-17.34 7.78-17.34 17.341 0 9.562 7.78 17.34 17.34 17.34 9.562 0 17.341-7.777 17.341-17.34 0-9.562-7.779-17.34-17.341-17.34m0 34.96c-9.715 0-17.62-7.905-17.62-17.62 0-9.716 7.905-17.62 17.62-17.62 9.717 0 17.621 7.904 17.621 17.62 0 9.715-7.904 17.62-17.621 17.62" style="fill:#114c8a;fill-opacity:1;fill-rule:nonzero;stroke:none;stroke-width:.352778" transform="matrix(5.24594 0 0 5.24594 -409.36 -444.81)"/><path d="M97.755 105.135c-6.573 0-11.922 5.348-11.922 11.922 0 6.574 5.35 11.922 11.922 11.922 6.574 0 11.922-5.348 11.922-11.922 0-6.574-5.348-11.922-11.922-11.922m0 24.472c-6.92 0-12.55-5.63-12.55-12.55 0-6.922 5.63-12.552 12.55-12.552 6.92 0 12.55 5.63 12.55 12.552 0 6.92-5.63 12.55-12.55 12.55" style="fill:#114c8a;fill-opacity:1;fill-rule:nonzero;stroke:none;stroke-width:.352778" transform="matrix(5.24594 0 0 5.24594 -409.36 -444.81)"/><path d="M105.42 121.315v-11.998H90.09v12.005l.023.364c.122.753.686 2.792 3.336 4.348 0 0 .328.253 2.689 1.309 0 0 .552.176 1.597 1.039.956-.824 1.218-.918 1.587-1.101.977-.482 2.738-1.247 2.738-1.247 2.729-1.378 3.215-3.595 3.335-4.348l.025-.37" style="fill:#114c8a;fill-opacity:1;fill-rule:nonzero;stroke:none;stroke-width:.352778" transform="matrix(5.24594 0 0 5.24594 -409.36 -444.81)"/><path d="M97.724 110.166v17.363c.547-.438.839-.6 1.18-.763l.089-.045c.93-.46 2.522-1.154 2.744-1.25 2.068-1.05 2.73-2.623 2.918-3.771l.022-.303v-11.231h-6.953" style="fill:#114c8a;fill-opacity:1;fill-rule:nonzero;stroke:none;stroke-width:.352778" transform="matrix(5.24594 0 0 5.24594 -409.36 -444.81)"/><path d="M90.832 110.166v11.238c.003.038.015.238.02.296.12.707.646 2.434 2.973 3.798l.033.02s.011.007.021.017c.029.018.463.296 2.538 1.224.16.06.601.253 1.303.774.002 0 .002-.003.004-.004v-17.363h-6.892" style="fill:#d12128;fill-opacity:1;fill-rule:nonzero;stroke:none;stroke-width:.352778" transform="matrix(5.24594 0 0 5.24594 -409.36 -444.81)"/><path d="m90.955 110.288.007 11.182.015.222c.11.656.619 2.355 2.912 3.7l.033.02c.031.021.438.291 2.545 1.235.149.054.575.238 1.25.73.525-.414.813-.569 1.131-.724l.091-.045a84.25 84.25 0 0 1 2.75-1.252c2.02-1.025 2.663-2.566 2.845-3.675l.02-.291v-11.102Zm6.767 17.4-.077-.057c-.692-.514-1.119-.7-1.27-.755-2.135-.957-2.547-1.23-2.564-1.24l-.048-.03c-2.384-1.4-2.914-3.183-3.031-3.884l-.023-.31v-11.37h14.09l-.02 11.669c-.193 1.177-.865 2.793-2.986 3.868-.306.134-1.844.808-2.745 1.251l-.091.046c-.32.156-.608.309-1.16.752l-.075.06" style="fill:#fff;fill-opacity:1;fill-rule:nonzero;stroke:none;stroke-width:.352778" transform="matrix(5.24594 0 0 5.24594 -409.36 -444.81)"/><path d="m98.446 121.078.004.001-.22-2.29s-.27-1.627.98-2.774c0 0 .524-.434.843-1.072 0 0 1.096-1.76-.734-3.438 0 0 1.14 1.631-.344 2.921 0 0-.728.574-1.043.93 0 0-.642.69-.947 1.507 0 0-.354.9-.182 2.167l.054.319c-.43-.055-1.355-.05-1.732.927 0 0-.224.535-.022.927a.959.959 0 0 0 1.869-.346c.118.089.28.29.187.709 0 0-.182.95-1.301.985-1.42.044-1.477-1.326-1.477-1.326-.13-1.31 1.063-2.175 1.063-2.175.991-.698.988-1.44.988-1.44s.073-.922-.993-.961c0 0 1.598-.208 1.479-1.368 0 0-.142.453-1.005.56 0 0-1.097.112-.933.924 0 0-.758.22-1.032.98 0 0 .386-.233.715-.211.215.008.427.135.44.419.038.431-.565.82-.565.82-.687.482-1.09 1.087-1.09 1.087s-1.367 1.994.42 3.657c0 0 .99.954 2.71.524 0 0 2.063-.507 1.868-2.963" style="fill:#fff;fill-opacity:1;fill-rule:nonzero;stroke:none;stroke-width:.352778" transform="matrix(5.24594 0 0 5.24594 -409.36 -444.81)"/><path d="M99.988 121.022c-.09-.824-.22-2.525-.22-2.525-.072-1.267 1.173-1.655 1.173-1.655.264-.106.458-.13.785-.198.39-.113.571-.201.571-.201 1.69-.804 1.658-2.643 1.658-2.643-.534 1.487-2.907 1.81-2.907 1.81-2.708.578-2.416 3.017-2.416 3.017l.21 2.422s.312 1.855-1.336 2.925c3.032-.324 2.482-2.952 2.482-2.952" style="fill:#fff;fill-opacity:1;fill-rule:nonzero;stroke:none;stroke-width:.352778" transform="matrix(5.24594 0 0 5.24594 -409.36 -444.81)"/><path d="M101.69 117.067c-1.717.266-1.498 1.528-1.498 1.528l.222 2.588s.213 1.692-1.11 2.505c0 0 2.346-.365 2.162-2.564l-.186-2.136c-.088-.893.979-1.174.979-1.174 1.45-.332 1.383-2.102 1.383-2.102-.408 1.053-1.952 1.355-1.952 1.355" style="fill:#fff;fill-opacity:1;fill-rule:nonzero;stroke:none;stroke-width:.352778" transform="matrix(5.24594 0 0 5.24594 -409.36 -444.81)"/><path d="M85.5 109.536c.094-.14.086-.245-.03-.322l-.292-.199.54-.8a.571.571 0 0 0 .115-.289l.3.202-.378.56c-.104.152.12.31.226.152l.378-.56.448.304.176-.26c.095-.143-.003-.31-.296-.508l-1.89-1.276c-.06-.04-.13-.033-.2.02l-.326.482c-.107.076-.066.285.08.24l.186-.23 1.074.724a.881.881 0 0 1-.126.281l-1.448 2.145c-.103.154.11.34.233.158l.612-.907.463.313.156-.23" style="fill:#114c8a;fill-opacity:1;fill-rule:nonzero;stroke:none;stroke-width:.352778" transform="matrix(5.24594 0 0 5.24594 -409.36 -444.81)"/><path d="M84.767 107.695c-.398-.273-.875.01-1.138.424-.187-.128-.375.135-.179.266-.245.4-.382.888.054 1.181.835.564 2.063-1.314 1.263-1.871zm-.98 1.436c-.483-.327.188-1.342.681-1.009.513.345-.182 1.344-.68 1.009M87.554 108.274l-1.29 1.911-.63-.426c-.066-.044-.122-.029-.17.04l-.362.538c-.09.135.08.234.195.13l.139-.166.567.383c.118.08.257.04.338-.081l1.46-2.163c.122-.179-.14-.323-.247-.166M86.506 105.08l1.257-.957.601.788.225-.17c.115-.089.147-.228.06-.342l-.499-.655c-.095-.124-.209-.138-.345-.033l-1.482 1.127c-.175.134.015.37.183.241M89.256 105.274c-.105-.18-.417.08-.268.202-.372.363-.577.9-.304 1.252.619.79 2.414-.512 1.804-1.372-.272-.385-.859-.297-1.232-.082zm-.127 1.1c-.397-.522.497-1.24.912-.695.37.485-.54 1.182-.912.694" style="fill:#114c8a;fill-opacity:1;fill-rule:nonzero;stroke:none;stroke-width:.352778" transform="matrix(5.24594 0 0 5.24594 -409.36 -444.81)"/><path d="m88.104 103.558.255-.153.82 1.076c-.065.119-.202.26-.413.42l-.662.505-.337-.441c-.045-.06-.103-.063-.17-.012l-.484.368c-.088.066.007.184.103.136l.178-.102.285.375-.64.485a.154.154 0 0 0 .187.244l1.726-1.313c.159-.12.286-.265.415-.417l.204.268.252-.192c.134-.102.152-.216.058-.34l-.372-.488.445-.339a.145.145 0 0 0-.175-.23l-.446.339-.57-.75c-.049-.063-.11-.08-.194-.048l-.465.356c-.123.034-.156.254 0 .253M94.922 103.566l-1.383.463-.218-.649c-.024-.067-.073-.09-.148-.066l-.602.203c-.096.031-.02.151.033.151l.22-.047.196.582-1.477.495c-.2.066-.11.333.09.266l3.379-1.13c.21-.07.124-.338-.09-.268M91.773 103.495l2.208-.739c.134-.044.205-.165.163-.294l-.508-1.513c-.023-.067-.071-.088-.147-.062l-.615.206c-.099.033-.045.17.057.166l.225-.048.154.46-1.63.543-.182-.54c-.022-.069-.066-.09-.138-.065l-.61.204c-.11.036-.05.159.057.171l.192-.037.473 1.41c.048.143.147.19.301.138zm1.644-1.56.214.638-1.647.551-.213-.638 1.646-.551M99.412 103.692l-2.1-.033.016-1.004c.002-.075-.043-.114-.13-.115l-.719-.011c-.168-.003-.157.19-.008.23l.295.03-.015.92c-.003.138.092.24.242.243l2.413.037c.199.003.235-.295.006-.297M98.909 100.475l-.015.911-.732-.01c-.22-.004-.222.307-.006.31l.714.012-.019 1.22.303.007c.174.003.26-.135.263-.417l.035-2.09c.001-.072-.051-.13-.126-.145l-.565-.01c-.148-.03-.234.115-.151.184l.299.028M98.24 100.654c.042-.146-.015-.219-.169-.221l-1.914-.03c-.234-.003-.234.304-.006.307l1.435.022c-.273.689-.886 1.245-1.618 1.478-.426.135-.16.338.15.225 1.176-.33 1.883-.923 2.121-1.78M103.962 101.4c-.107-.095-.306.023-.215.14l.302.125-.338.98-.426-.145.36-1.045c.026-.076.01-.135-.054-.183l-.48-.165c-.137-.101-.308.017-.232.133l.26.098-.585 1.705c-.123.042-.283.031-.474-.035l-.793-.273.53-1.54.705.242c.201.069.284-.213.097-.278l-1.36-.469c-.129-.044-.15.11-.078.186l.175.087-.574 1.67c-.051.146.003.25.165.306l1.034.356c.133.045.292.06.47.042l-.406 1.184.25.086c.158.055.288-.061.384-.344l.507-1.473.433.15-.747 2.172.241.083c.163.056.292-.06.389-.342l1.061-3.082c.026-.076 0-.138-.07-.19l-.53-.181M107.453 104.933c.177-.228.179-.426.06-.697l.44.34c.16.124.354-.097.18-.232l-.691-.535.216-.28c.05-.062.037-.12-.029-.17l-.513-.398c-.084-.064-.194.057-.115.15l.13.148-.15.193-.731-.568c-.174-.135-.34.109-.18.233l.411.318c-.304-.06-.535.007-.692.21-.563.726 1.082 2.04 1.664 1.288zm-1.196-.985c.381-.492 1.14.108.764.593-.373.48-1.138-.112-.764-.593M105.507 104.707a.153.153 0 0 0-.188.241l1.757 1.363-.748.966.247.192c.136.106.288.048.455-.168l.54-.697c.088-.114.058-.254-.058-.344l-2.005-1.553" style="fill:#114c8a;fill-opacity:1;fill-rule:nonzero;stroke:none;stroke-width:.352778" transform="matrix(5.24594 0 0 5.24594 -409.36 -444.81)"/><path d="M108.86 105.848c.162.127.352-.104.182-.237l-.44-.34.438-.565c.043-.057.043-.12.004-.193l-.471-.364c-.069-.113-.28-.085-.245.064l.219.2-1.181 1.526.246.192c.137.106.251.094.348-.03l.46-.594.44.341M112.243 108.614l-1.464-2.208a.167.167 0 0 0-.277.184l1.287 1.943-1.561 1.035.175.264c.092.14.265.126.514-.04l1.265-.836c.114-.076.14-.22.06-.342" style="fill:#114c8a;fill-opacity:1;fill-rule:nonzero;stroke:none;stroke-width:.352778" transform="matrix(5.24594 0 0 5.24594 -409.36 -444.81)"/><path d="m109.645 109.646.943-.624c.066-.043.08-.1.033-.17l-.375-.565c-.066-.1-.194-.004-.168.11l.117.214-.849.561-.28-.422.925-.613c.066-.044.074-.1.028-.17l-.388-.585c-.07-.106-.215.011-.168.112l.123.252-.835.551-.394-.595a.154.154 0 0 0-.255.17l1.855 2.8c.126.191.39.033.256-.17l-.568-.856" style="fill:#114c8a;fill-opacity:1;fill-rule:nonzero;stroke:none;stroke-width:.352778" transform="matrix(5.24594 0 0 5.24594 -409.36 -444.81)"/></g></svg>