<svg xmlns="http://www.w3.org/2000/svg" id="Layer_1" viewBox="0 0 98.65 98.65"><defs><style>.cls-6{fill:#fff}.cls-3{fill:#004386}</style></defs><circle cx="49.33" cy="49.33" r="48.94" style="stroke-width:.78px;stroke:#004386;fill:#fff" transform="rotate(-89.11 49.321 49.331)"/><path d="M49.33 83.58a34.26 34.26 0 1 0-34.26-34.25 34.26 34.26 0 0 0 34.26 34.25Z" style="stroke-width:1.76px;stroke:#004386;fill:#fff"/><path d="m4.63 59-.09-.57L9.08 56l-5-.86-.09-.56 7.34-3.73.22 1.41-4.43 2.15 4.85.82.09.59L7.7 58.1l4.83.7.22 1.42ZM11.88 62.56a1.6 1.6 0 0 1 1.19 1q.73 1.86-1.8 2.85a3.52 3.52 0 0 1-2.16.26 1.85 1.85 0 0 1-1.25-1.2A1.49 1.49 0 0 1 8.07 64a4 4 0 0 1 1.79-1.18 3.49 3.49 0 0 1 2.02-.26Zm-5 .78A2.83 2.83 0 0 0 6.72 66a3.23 3.23 0 0 0 2 2 4.46 4.46 0 0 0 3.1-.21 4.38 4.38 0 0 0 2.39-1.88 3.2 3.2 0 0 0 0-2.75 3 3 0 0 0-1.94-1.84 4.36 4.36 0 0 0-2.94.17 4.79 4.79 0 0 0-2.46 1.85ZM11.73 75.5l2.18-5.74-4.06 2.52-.7-1.13 6.57-4.07.34.55-2 5.55 4-2.46.7 1.13L12 76ZM16.55 81.2l1-3.8-1.45.14-1.58 1.4-.91-1 5.78-5.14.91 1-2.77 2.47 4.51-.5 1 1.17-4.04.43-1.33 5.06Z" class="cls-3"/><path d="m23.81 87.44-.46-.34 1.56-4.9-4.22 2.91-.46-.34L22.89 77l1.15.86-1.63 4.61 4-2.8.49.36-1.5 4.65 4-2.86 1.15.85ZM31.36 88.53l-1.67-.81 2.09-2.16ZM32.44 92l.64-8.42-.54-.26-6.2 5.68 1.37.67 1.17-1.17 2.38 1.16-.18 1.65ZM39 94l-2.26-5.71-1.3 4.59-1.28-.36 2.12-7.43.63.18 2.22 5.48 1.28-4.49 1.27.37-2.14 7.52ZM48.4 88.06l-.68 1a2.76 2.76 0 0 0-.7-.49 2.37 2.37 0 0 0-.85-.29 2.23 2.23 0 0 0-1.87.59 3.09 3.09 0 0 0-.86 2 2.89 2.89 0 0 0 .46 2 2.21 2.21 0 0 0 1.68.9 1.76 1.76 0 0 0 1.24-.29L47 92l-1.06-.1.06-1.15 2.43.24-.34 3.45a3.6 3.6 0 0 1-1.32.5 5.41 5.41 0 0 1-1.55.08 3.4 3.4 0 0 1-2.52-1.34 4.12 4.12 0 0 1-.69-3 4 4 0 0 1 1.34-2.78 3.71 3.71 0 0 1 3-.84 3.22 3.22 0 0 1 2.05 1ZM52.63 87.3l1.37-.22.85 5.16a1.33 1.33 0 0 0 1.63 1.15 1.66 1.66 0 0 0 1.08-.56 1.37 1.37 0 0 0 .24-1.1l-.84-5.14 1.35-.22.86 5.25a2.31 2.31 0 0 1-.48 2 3.2 3.2 0 0 1-2 1 3 3 0 0 1-2.15-.31 2.43 2.43 0 0 1-1-1.75ZM66.81 91.73l-5.16-3.32 1.62 4.49-1.27.45-2.6-7.27.62-.22L65 89l-1.58-4.39 1.25-.45 2.65 7.36ZM69.35 90.42l-3.52-6.88 1.22-.63 3.52 6.89ZM75 87.21l-.63.42-6.78-4.87 1.25-.84 4.41 3.32-1.36-5.38 1.26-.86ZM75.28 78.65 76.52 80l1.8-1.7.8.86-1.81 1.69 1.58 1.69 2.55-2.39.83.88-3.55 3.33-5.28-5.64L77 75.36l.84.9ZM79.66 73.9a3.09 3.09 0 0 1 1-.92.8.8 0 0 1 .89.15 1 1 0 0 1 .5.89 2.44 2.44 0 0 1-.58 1.14 4.94 4.94 0 0 1-.38.44l-1.69-1.31a3.73 3.73 0 0 1 .26-.39Zm7.68.83-4.15-.33a2.21 2.21 0 0 0 0-1.3 2.14 2.14 0 0 0-.74-1.1c-1.2-.93-2.41-.62-3.61.93-.19.25-.44.59-.74 1s-.47.67-.51.73l6.11 4.74.87-1.12-2.55-2c.25-.28.43-.51.56-.67l3.79.33ZM87.5 73.56l-.82-1a2.79 2.79 0 0 0 1.26-1.12c.39-.7.34-1.19-.15-1.46a1.16 1.16 0 0 0-.79-.12 3.71 3.71 0 0 0-1.27.63 5.73 5.73 0 0 1-1.22.69 2 2 0 0 1-.83.08 2.09 2.09 0 0 1-.84-.28 1.88 1.88 0 0 1-1-1.3 2.42 2.42 0 0 1 .3-1.75 3.2 3.2 0 0 1 1.4-1.48l.83.94a2.62 2.62 0 0 0-1.19 1.08 1.07 1.07 0 0 0-.15.77.93.93 0 0 0 .44.54c.39.22 1 0 1.93-.61a5 5 0 0 1 1.15-.64 2.26 2.26 0 0 1 1.82.21 1.9 1.9 0 0 1 1 1.4 3.08 3.08 0 0 1-.44 2 3.48 3.48 0 0 1-1.43 1.42ZM90.87 68l-7.11-3 .53-1.26 7.12 3ZM86.9 59.85l6.24 1.8-.37 1.35-6.25-1.81-.68 2.36-1.18-.34L86.43 57l1.18.34Z" class="cls-3"/><path d="m91.38 53.87 3.15.36-.16 1.36-3.15-.37-4.83 2.07.17-1.45L90 54.41l-3-2.2.17-1.45ZM70.78 60.47V26.88H27.86v33.61l.06 1c.34 2.12 1.92 7.82 9.34 12.18 0 0 .92.71 7.53 3.66a16.33 16.33 0 0 1 4.47 2.91 16.22 16.22 0 0 1 4.44-3.08c2.74-1.35 7.67-3.49 7.67-3.49 7.64-3.86 9-10.06 9.34-12.18Z" class="cls-3"/><path d="M49.23 29v48.6a15.47 15.47 0 0 1 3.3-2.13l.25-.13c2.61-1.28 7.06-3.23 7.68-3.5 5.8-2.94 7.65-7.34 8.17-10.55 0-.16.06-.74.07-.85V29Z" class="cls-3"/><path d="M29.94 29v32.25c.34 2 1.81 6.81 8.33 10.63l.09.06h.06a66.5 66.5 0 0 0 7.1 3.43 16.19 16.19 0 0 1 3.65 2.16V29Z" style="fill:#d0121b"/><path d="M29.93 29v31.47c0 .1.05.66.06.83.33 2 1.81 6.81 8.32 10.63h.16a66.5 66.5 0 0 0 7.1 3.43 16 16 0 0 1 3.64 2.16 15.76 15.76 0 0 1 3.32-2.15l.25-.12c2.6-1.29 7.06-3.23 7.68-3.5 5.79-2.94 7.65-7.34 8.17-10.55 0-.17.05-.75.06-.85V29Z" style="fill:none;stroke:#fff;stroke-width:.65px"/><path d="M10.69 40.49a2.36 2.36 0 1 1-2.36-2.35 2.36 2.36 0 0 1 2.36 2.35ZM92.54 40.51a2.35 2.35 0 1 1-2.35-2.35 2.35 2.35 0 0 1 2.35 2.35ZM11.84 24.56c1.36 1-.64 3.71-2 2.78s.69-3.71 2-2.78Zm.86-1.18c-1.06-.76-2.39 0-3.15 1.16a.45.45 0 1 0-.52.74c-.7 1.1-1.13 2.44 0 3.26 2.25 1.57 5.8-3.61 3.67-5.16Zm5.22.36-5-3.55a.46.46 0 0 0-.55 0l-.94 1.33c-.3.21-.21.79.2.67l.53-.64 2.85 2a2.55 2.55 0 0 1-.37.78l-4.19 5.97c-.3.43.26.94.62.44l1.76-2.5 1.23.87.45-.63c.27-.39.26-.68 0-.9l-.83-.58 1.56-2.2a1.63 1.63 0 0 0 .34-.8l.8.56-1.09 1.54a.37.37 0 1 0 .6.43L17 25l1.19.85.51-.72c.3-.38 0-.85-.78-1.39Zm3 1.73a.4.4 0 1 0-.66-.46l-3.71 5.27-1.68-1.19c-.18-.12-.33-.08-.47.11l-1 1.48c-.26.37.19.65.52.37l.39-.46 1.51 1.06a.64.64 0 0 0 .93-.22ZM32.76 14.55C33.6 16 30.85 17.62 30 16.2s1.81-3.2 2.76-1.65ZM33.24 9a.39.39 0 1 0-.4-.67l-1.34.8L30.2 7a.42.42 0 0 0-.51-.18l-1.41.84c-.35.07-.52.65-.09.69l.75-.35 1.87 3.13a4.23 4.23 0 0 1-1.28 1l-2 1.2-.76-1.33c-.11-.18-.27-.2-.47-.08l-1.46.87c-.26.16 0 .5.24.4l.52-.19.65 1.09-1.93 1.15a.42.42 0 1 0 .43.71L30 12.82a7.35 7.35 0 0 0 1.28-1l.47.78.76-.45a.6.6 0 0 0 .28-.91L31.9 9.8Zm-3.85 1.72-1.14-1.9c-.21-.36-.52-.43-.94-.18l-4.46 2.67a.41.41 0 1 0 .42.7l3.78-2.27L28.43 12l.67-.41a.65.65 0 0 0 .29-.87Zm4.71 3.07c-.61-1.11-2.26-1-3.36-.54-.22-.51-1.17.11-.8.48C28.79 14.62 28 16 28.66 17c1.42 2.35 6.81-.72 5.44-3.21ZM52.87 13.43h-.72V7.24h-1.28v4.2c0 .8-.24 1.21-.7 1.21h-.74V9.28a3.24 3.24 0 0 1-1.28.3h-3.06c-.48 0-.71-.22-.71-.64V4.19l-.55-.07c-.26-.13-.34-.54 0-.54h4a.4.4 0 1 1 0 .79h-2.02v4.4h2.34a2.17 2.17 0 0 0 1.28-.33V3.58h-.78c-.31-.23 0-.68.49-.55h1.42a.41.41 0 0 1 .31.42v3h1.26V3.61h-.91c-.35-.22.07-.69.44-.55h1.56a.42.42 0 0 1 .36.42v8.79c0 .73-.23 1.16-.71 1.16ZM69.33 11c-.82 1.42-3.16.07-2.34-1.35A1.35 1.35 0 0 1 69.33 11Zm5.57 3a.4.4 0 1 0 .4-.7l-1.3-.79 1-1.66a.43.43 0 0 0-.07-.52l-1.44-.84c-.23-.28-.8-.14-.64.25l.68.48-2.61 4.49.75.44c.42.24.73.17.94-.19l1-1.75Zm-3-3.15a.4.4 0 1 0 .39-.68l-2.1-1.23.47-.82a.3.3 0 0 0-.14-.46L69 6.74a.26.26 0 0 0-.26.45l.42.36-.33.56-2.24-1.3a.4.4 0 1 0-.4.69l1.26.73a1.73 1.73 0 0 0-1.86.77c-1.25 2.15 3.8 5.17 5.08 3a1.61 1.61 0 0 0-.12-1.91Zm-1.41 7.65 1.19-2a.66.66 0 0 0-.3-.91L65.25 12a.42.42 0 1 0-.41.72l5.37 3.12-1.66 2.85.76.44c.42.21.81 0 1.18-.64ZM84.49 29.23l-.55-.7 4-3.12-4-5.12a.45.45 0 1 1 .7-.55l4.58 5.82a.66.66 0 0 1-.07 1L85.88 29c-.63.53-1.1.6-1.39.23Zm-6.79-5a.42.42 0 1 1 .65-.51l1.23 1.57 2.12-1.67-.4-.62c-.16-.27.2-.62.43-.34l1.21 1.54c.14.19.14.35 0 .48l-2.35 1.85.88 1.11 2.15-1.69-.37-.57c-.11-.31.22-.6.42-.33l1.18 1.49a.3.3 0 0 1 0 .47l-2.39 1.89 1.77 2.25c.43.53-.25 1-.64.51Z" class="cls-3"/><path d="M40.23 48.6a1.2 1.2 0 0 1 1.23 1.18c.1 1.2-1.59 2.29-1.59 2.29a13 13 0 0 0-3 3S33 60.7 38 65.36a8.28 8.28 0 0 0 7.59 1.46s5.89-1.44 5.22-8.48c0 0-.44-3.64-3.81-4.53 0 0-4.08-1.15-5.48 2.47a3.59 3.59 0 0 0-.07 2.6 2.69 2.69 0 0 0 5.24-1 1.79 1.79 0 0 1 .53 2 3.65 3.65 0 0 1-3.65 2.76 3.85 3.85 0 0 1-4.13-3.71c-.37-3.67 3-6.09 3-6.09 2.78-2 2.77-4 2.77-4a2.55 2.55 0 0 0-2.78-2.69s4.47-.58 4.14-3.83c0 0-.4 1.27-2.82 1.57 0 0-3.07.31-2.61 2.58a4.73 4.73 0 0 0-2.89 2.75 4.16 4.16 0 0 1 1.98-.62Z" class="cls-6"/><path d="M46.94 56.85c-.19-.86-.73-4.06-.73-4.06a13.17 13.17 0 0 1 .51-6.06 14.74 14.74 0 0 1 2.66-4.22 29.53 29.53 0 0 1 2.92-2.6c4.15-3.62 1-8.18 1-8.18 5.12 4.7 2.05 9.62 2.05 9.62a10.26 10.26 0 0 1-2.36 3 9.22 9.22 0 0 0-2.74 7.77l.61 6.41Z" class="cls-6"/><path d="M48.18 66.63c8.49-.91 7-8.26 7-8.26-.25-2.31-.61-7.07-.61-7.07-.21-3.55 3.28-4.63 3.28-4.63a11.38 11.38 0 0 1 2.2-.56 12.36 12.36 0 0 0 1.6-.56 8.43 8.43 0 0 0 4.64-7.4c-1.5 4.16-8.14 5.07-8.14 5.07-7.58 1.61-6.77 8.45-6.77 8.45l.6 6.77a8.52 8.52 0 0 1-3.8 8.19Z" class="cls-6"/><path d="M59.27 58.65c.51 6.16-6.05 7.18-6.05 7.18 3.7-2.27 3.1-7 3.1-7l-.62-7.25s-.61-3.58 4.19-4.28c0 0 4.33-.85 5.47-3.8 0 0 .19 5-3.87 5.89 0 0-3 .78-2.74 3.28Z" class="cls-6"/></svg>