<svg xmlns="http://www.w3.org/2000/svg" xml:space="preserve" width="264.56665" height="292.87067" viewBox="0 0 264.56665 292.87067"><path d="M1909.64 719.711c48.05 116.32 74.61 243.73 74.61 377.379 0 140.05-29.18 273.29-81.7 394.06 30.72 21.79 50.93 58.22 50.93 99.45 0 66.56-52.59 120.7-117.23 120.7-19.8 0-38.47-5.12-54.84-14.09-159.54 208.83-400.31 352.43-675.26 383.84-2.54 64.1-54.26 115.48-117.63 115.48-63.653 0-115.547-51.82-117.68-116.3-270.996-32.98-508.211-175.04-666.36-380.88-16.96 9.84-36.488 15.52-57.308 15.52-64.64 0-117.23-54.15-117.23-120.71 0-42.04 21.011-79.09 52.757-100.71C29.547 1372.07 0 1238.04 0 1097.09c0-134.352 26.836-262.41 75.367-379.219-31.039-21.859-51.41-57.93-51.41-98.742 0-66.559 54.066-120.707 120.523-120.707 17.547 0 34.188 3.859 49.235 10.648 158.183-213.738 400.387-361.679 677.941-395.218C875.227 50.488 927.449 0 991.34 0c63.81 0 115.99 50.398 119.66 113.672 278.85 33.238 522.16 181.937 680.62 396.887 16.06-8.137 34.07-12.84 53.21-12.84 31.94 0 61.93 12.621 84.46 35.531 22.41 22.781 34.74 53.039 34.74 85.172 0 32.148-12.33 62.406-34.74 85.187-6.04 6.141-12.65 11.481-19.65 16.102" style="fill:#882323;fill-opacity:1;fill-rule:nonzero;stroke:none" transform="matrix(.13333 0 0 -.13333 0 292.87)"/><path d="m904.84 2079.11-.961-29.12-28.93-3.52c-253.011-30.8-487.551-164.87-643.496-367.84l-18.195-23.68-25.836 14.98c-12.504 7.25-26.051 10.93-40.25 10.93-45.887 0-83.215-38.89-83.215-86.7 0-29.3 14.164-56.44 37.891-72.6l23.328-15.89-11.321-25.87c-52.98-120.98-79.847-249.75-79.847-382.71 0-126.762 24.488-249.949 72.769-366.18l10.457-25.172-22.289-15.679c-23.152-16.309-36.98-42.829-36.98-70.93 0-47.809 38.808-86.699 86.515-86.699 12.145 0 24.004 2.57 35.254 7.64l25.008 11.282 16.313-22.051c156.289-211.172 394.914-350.289 654.683-381.692l28.278-3.398 1.597-28.441c2.578-45.848 40.239-81.758 85.727-81.758 45.41 0 83.05 35.847 85.69 81.617l1.65 28.441 28.29 3.379c261.08 31.121 500.65 170.832 657.28 383.301l17.09 23.191 25.69-13.05c11.96-6.071 24.69-9.161 37.8-9.161 22.75 0 44.13 9.008 60.21 25.372 16.11 16.367 24.98 38.16 24.98 61.32 0 23.18-8.87 44.969-24.98 61.34-4.17 4.238-8.92 8.117-14.11 11.547l-23.45 15.429 10.72 25.961c47.8 115.699 72.03 238.301 72.03 364.391 0 132.12-26.54 260.14-78.86 380.5l-11.02 25.33 22.53 15.98c22.91 16.24 36.58 43.05 36.58 71.7 0 47.8-37.32 86.69-83.21 86.69-13.53 0-26.49-3.33-38.52-9.92l-25.62-14.02-17.73 23.21c-157.56 206.24-395.24 341.35-652.09 370.7l-28.96 3.31-1.15 29.13c-1.86 46.44-38.61 82.82-83.66 82.82-45.379 0-82.137-36.64-83.68-83.41" style="fill:#fff;fill-opacity:1;fill-rule:nonzero;stroke:none" transform="matrix(.13333 0 0 -.13333 0 292.87)"/><path d="M1904.5 1098.22c0-505.181-408.57-914.7-912.613-914.7-504.016 0-912.606 409.519-912.606 914.7 0 505.16 408.59 914.68 912.606 914.68 504.043 0 912.613-409.52 912.613-914.68" style="fill:#882323;fill-opacity:1;fill-rule:nonzero;stroke:none" transform="matrix(.13333 0 0 -.13333 0 292.87)"/><path d="M1651.15 1098.22c0-364.939-295.14-660.779-659.263-660.779-364.106 0-659.27 295.84-659.27 660.779 0 364.92 295.164 660.76 659.27 660.76 364.123 0 659.263-295.84 659.263-660.76" style="fill:#fff;fill-opacity:1;fill-rule:nonzero;stroke:none" transform="matrix(.13333 0 0 -.13333 0 292.87)"/><path d="M1144.58 1621.64H810.699v-408.66l15.387-20.86h341.974v405.17s-12.18-1.73-23.48 24.35" style="fill:#882323;fill-opacity:1;fill-rule:nonzero;stroke:none" transform="matrix(.13333 0 0 -.13333 0 292.87)"/><path d="M817.656 1223.41h322.563v393.879H817.656Z" style="fill:#fff;fill-opacity:1;fill-rule:nonzero;stroke:none" transform="matrix(.13333 0 0 -.13333 0 292.87)"/><path d="M843.406 1489.14h270.344v113.004H843.406ZM942.426 1151.69H608.547V743.031l15.383-20.871h341.972v405.19s-12.175-1.74-23.476 24.34" style="fill:#882323;fill-opacity:1;fill-rule:nonzero;stroke:none" transform="matrix(.13333 0 0 -.13333 0 292.87)"/><path d="M615.504 753.461h322.57v393.879h-322.57z" style="fill:#fff;fill-opacity:1;fill-rule:nonzero;stroke:none" transform="matrix(.13333 0 0 -.13333 0 292.87)"/><path d="M641.254 1019.18h270.34v113.012h-270.34zM1361.51 1151.69h-333.87V743.031l15.39-20.871h341.96v405.19s-12.17-1.74-23.48 24.34" style="fill:#882323;fill-opacity:1;fill-rule:nonzero;stroke:none" transform="matrix(.13333 0 0 -.13333 0 292.87)"/><path d="M1034.59 753.461h322.582v393.879H1034.59Z" style="fill:#fff;fill-opacity:1;fill-rule:nonzero;stroke:none" transform="matrix(.13333 0 0 -.13333 0 292.87)"/><path d="M1060.34 1019.18h270.34v113.012h-270.34z" style="fill:#882323;fill-opacity:1;fill-rule:nonzero;stroke:none" transform="matrix(.13333 0 0 -.13333 0 292.87)"/><path d="M178.711 1053.34c-6.594-.76-12.438-2.26-17.371-4.46-5.086-2.19-9.43-5.16-12.949-8.86-5.106-5.37-8.555-12.28-10.262-20.52-.981-4.23-1.469-8.62-1.469-13.16 0-2.49.149-5.01.445-7.57 1.833-15.95 7.192-27.879 15.93-35.461 9.215-8.039 22.356-11.129 39.059-9.2 0 0 81.07 9.321 86.566 9.961-.476 4.141-2.035 17.692-2.508 21.828-5.504-.628-87.629-10.058-87.629-10.058-9.484-1.102-16.945.379-22.253 4.461-5.688 4.09-9.18 11.187-10.317 21.069a33.601 33.601 0 0 0-.226 3.85c0 6.29 1.918 11.66 5.718 16.01 4.606 5.58 12 9.04 21.934 10.17 0 0 80.891 9.31 86.387 9.94-.481 4.15-2.071 18-2.543 22.16-5.508-.63-88.512-10.16-88.512-10.16M185.543 866.941c1.18-3.953 4.922-16.461 6.102-20.421 5.308 1.589 122.503 36.609 127.812 38.199-1.18 3.961-4.922 16.472-6.102 20.422-5.308-1.59-122.503-36.61-127.812-38.2M254.086 718.59l-13.297 26.359 87.121 43.942 12.988-25.743c4.098-8.136 5.059-15.726 2.856-22.589-3.348-10.36-13.34-19.61-30.551-28.278-12.144-6.121-23.223-9.133-32.926-8.922h.059c-12.316 0-21.152 5.121-26.25 15.231zm-38.625 37.019c2.391-4.738 24.266-48.121 24.266-48.121 8.199-16.269 21.086-24.566 39.398-25.418 14.242-.691 29.719 3.129 45.977 11.34 14.898 7.52 25.953 16.75 32.859 27.442 4.82 7.5 7.238 15.199 7.238 23.207 0 7.281-1.992 14.82-5.969 22.722 0 0-22.265 44.149-24.664 48.899-4.953-2.489-114.16-57.571-119.105-60.071M338.559 631.762c-5.176-4.203-9.297-8.614-12.258-13.102-3.117-4.578-5.188-9.441-6.168-14.441-1.41-7.27-.617-14.949 2.371-22.84 2.238-6.34 5.695-12.399 10.277-18.039 10.133-12.469 21.074-19.66 32.535-21.34 12.102-1.82 24.844 2.648 37.903 13.262 0 0 63.34 51.449 67.633 54.918-2.625 3.242-11.25 13.859-13.879 17.101l-68.465-55.601c-7.395-6-14.524-8.758-21.172-8.192-7.02.403-13.789 4.532-20.063 12.262-4.207 5.18-6.328 10.641-6.328 16.281 0 1.141.09 2.278.262 3.438.887 7.191 5.273 14.09 13.023 20.383 0 0 63.204 51.328 67.5 54.82-2.632 3.25-11.378 14-14.015 17.258-4.301-3.5-69.156-56.168-69.156-56.168M418.961 483.148c3.234-2.558 13.48-10.679 16.719-13.238l28.125 35.488 23.679 3.813-6.91-74.879c1.91-1.523 16.211-12.852 22.114-17.531.687 9.98 6.632 96.078 6.632 96.078s61.594 9.492 72.766 11.211c-6.59 5.211-19.586 15.519-21.141 16.75-2.547-.469-80.777-14.809-80.777-14.809s35.066 44.258 38.367 48.418a15953.53 15953.53 0 0 1-16.719 13.25c-3.437-4.34-79.41-100.199-82.855-104.551M753.824 324.73c-.488-5.589-.312-10.851.531-15.648.122-.723.258-1.461.415-2.16 1.175-5.543 3.273-10.66 6.23-15.281 4.313-6.672 10.484-12.391 18.348-16.993 6.187-3.777 13.023-6.617 20.386-8.457 16.211-4.07 29.145-3.402 38.426 2.008 9.809 5.66 15.496 16.789 16.922 33.063 0 0 6.906 78.918 7.383 84.269-4.227 1.071-18.11 4.539-22.328 5.61l-7.469-85.313c-.805-9.199-3.789-15.648-8.875-19.129-5.238-3.808-13.008-4.488-23.051-1.961-8.09 2.032-14.375 6.16-18.668 12.321-2.711 3.691-4.515 8.011-5.363 12.89-.606 3.473-.742 7.223-.387 11.25l7.36 84.102c-4.219 1.058-18.102 4.551-22.321 5.597l-7.539-86.168M899.348 255.961c4.011-.16 15.511-.621 19.519-.789.231 5.566 4.379 107.918 4.379 107.918l5.656-10.649s46.723-96.543 48.211-99.621c2.731-.109 17.938-.73 22.289-.91.227 5.551 5.178 127.75 5.398 133.301-4 .148-15.503.617-19.519.769-.222-5.55-3.812-94.16-3.812-94.16l-5.785-1.148s-45.348 94.5-46.836 97.609c-2.793.11-19.668.789-24.102.957-.226-5.527-5.176-127.738-5.398-133.277M1077.12 388.43c.74-5.481 17.05-126.7 17.8-132.192 4.09.543 17.1 2.301 21.2 2.852-.74 5.488-17.06 126.711-17.8 132.219-4.09-.571-17.11-2.321-21.2-2.879M1250.63 427.641l6.65-121.321-6.27 9.84-57.72 93.57c-3.16-.992-16.76-5.242-21.92-6.851 4.2-6.149 78.22-114.59 80.54-118.008 3.19 1 17.34 5.418 20.5 6.418-.02 4.121-.8 135.449-.84 142.91-5.09-1.597-17.8-5.558-20.94-6.558M1309.94 448.141c2.68-4.852 61.8-111.911 64.47-116.77 4.72 2.609 76.67 42.328 81.4 44.938-1.91 3.453-7.11 12.882-9.03 16.332-4.76-2.621-63.09-34.821-63.09-34.821l-20.32 36.809s50.74 28 55.45 30.601c-1.91 3.45-7.03 12.731-8.94 16.18-4.7-2.59-55.45-30.601-55.45-30.601l-17.06 30.929s55.78 30.801 60.53 33.422c-1.92 3.461-7.2 13.031-9.12 16.512-4.71-2.613-74.12-40.934-78.84-43.531M1489.35 493.301l-26.69 30.929 28.18 24.329c5.99 5.171 12.1 7.14 18.17 5.882 4.42-1 8.49-3.671 12.17-7.929 5.07-5.871 7.29-11.59 6.62-17.012-.66-5.219-3.92-10.301-10.01-15.57l-26.51-22.871zm-6.29 72.289s-43.96-37.93-48.06-41.449c3.63-4.2 83.59-96.871 87.21-101.071 3.11 2.692 12.79 11.051 15.91 13.719-3.47 4.012-35.65 41.301-35.65 41.301l23.78 20.531c7.98 6.879 14.62 9.418 20.31 7.777 4.22-1.168 9.67-5.738 17.12-14.359l11.33-12.117c.03-.024 4.32-3.481 6.77-5.453 2.63 2.269 13.4 11.562 17.81 15.371-2.22.058-4.78.719-7.56 2.949-.04.031-14.27 15.391-14.27 15.391-7.51 8.711-13.87 14-18.92 15.73-3.5 1.328-8.11 1.129-13.8-.551l-7.02-2.078 3.6 6.36c2.97 5.23 3.84 10.89 2.69 17.32-1.09 6.23-4.05 12.187-8.78 17.66-5.61 6.508-12.19 10.617-20.1 12.598-11.14 2.722-21.73-.438-32.37-9.629M1605.57 679.559c-13.14-.719-24.91-7.821-35-21.129-10.7-14.11-14.68-27.489-11.83-39.739 2.04-8.679 7.11-16.082 15.06-21.961 5.44-4.121 10.71-6.781 15.7-7.921 4.3-.969 8.76-.77 13.24.582l12.45 6.179c0 .012 12.59 9.692 12.59 9.692l11.5 8.988c6.53 5.57 11.58 9.07 15.34 10.609 5.91 2.301 11.33 1.61 16.15-2.039 6.06-4.582 8.5-11.011 7.07-18.582-1.04-5.418-4.03-11.449-8.91-17.879-7-9.218-14.61-14.16-22.65-14.64-4.39-.309-8.65 1.582-12.85 4-1.81-2.367-9.74-12.84-12.56-16.571 7.9-5.289 16.22-8.097 24.9-7.617 13.73.699 26.84 9.18 38.98 25.199 6.43 8.481 10.43 17.508 11.86 26.829 2.38 15.089-2.9 27.3-16.15 37.351-8.62 6.539-16.89 8.852-25.27 7.09-6.21-1.262-13.44-5.238-21.52-11.789l-26.21-20.43c-.38-.211-9.9-5.429-9.9-5.429-4.64-1.262-9.2-.262-13.54 3.046-5.34 4.032-7.74 9.75-6.95 16.524.66 5.238 3 10.527 6.93 15.738 6.73 8.871 14.14 13.602 22.02 14.07 3.76.141 7.82-1.429 11.96-3.39 1.74 2.308 9.46 12.488 12.32 16.262-7.68 4.878-15.92 7.457-24.73 6.957M1640.83 755.121c4.92-2.543 113.59-58.691 118.52-61.242 1.9 3.68 7.94 15.359 9.84 19.043-4.92 2.539-113.59 58.699-118.52 61.238-1.9-3.672-7.95-15.359-9.84-19.039M1680.72 832.648c3.77-1.199 14.07-4.476 17.84-5.679 1.55 4.84 12.28 38.5 12.28 38.5s103.85-33.117 109.2-34.821c1.26 3.954 5.26 16.5 6.51 20.454-5.35 1.699-109.2 34.808-109.2 34.808s10.74 33.649 12.27 38.5c-3.77 1.192-14.07 4.481-17.84 5.672-1.65-5.172-29.41-92.242-31.06-97.434M1721.02 1048.81c3.22-1.78 62.04-34.24 62.04-34.24s-64.73-22.211-68.1-23.359c-.28-2.801-1.95-18.66-2.65-25.211 8.26 3.352 87.21 35.5 87.21 35.5s44.86-4.711 50.11-5.25c.43 4.12 1.83 17.38 2.25 21.5l-49.53 5.19s-71.55 45.23-78.82 49.84c-.66-6.26-2.22-21.11-2.51-23.97M249 1252.88c0-16.6-13.457-30.07-30.07-30.07-16.606 0-30.067 13.47-30.067 30.07s13.461 30.07 30.067 30.07c16.613 0 30.07-13.47 30.07-30.07M1807.73 1250.02c0-16.6-13.47-30.07-30.07-30.07-16.62 0-30.06 13.47-30.06 30.07 0 16.61 13.44 30.07 30.06 30.07 16.6 0 30.07-13.46 30.07-30.07M242.133 1476.01c-9.059 4.38-10.778 19.56-3.832 33.91 6.949 14.35 19.918 22.44 28.969 18.06 9.058-4.39 10.781-19.57 3.835-33.92-6.941-14.35-19.914-22.43-28.972-18.05zm46.39 7.43c14.954 30.89 11.258 63.57-8.242 73.02-19.496 9.43-47.414-7.98-62.359-38.89-14.942-30.88-11.25-63.56 8.25-72.99 19.496-9.44 47.418 7.97 62.351 38.86M270.063 1626.42l-16.758-32.14 163.57-85.26 16.754 32.14-163.566 85.26M356.039 1517.38l-15.258 26.4-70.511-129.49 24.742-11.55 23.914 44.13 49.902-28.87 19.379 32.99-52.785 29.69 20.617 36.7M589.691 1883.98l-30.753-17.73 18.55-33.82-34.222-18.96 14.433-21.45 31.332 19.8 18.153-31.34 33.398 17.8-50.891 85.7" style="fill:#fff;fill-opacity:1;fill-rule:nonzero;stroke:none" transform="matrix(.13333 0 0 -.13333 0 292.87)"/><path d="M556.875 1830.38v11.54l-11.957 16.9-106.813-66.8 50.313-82.47 102.68 59.79v32.99l-85.77-52.37-23.098 37.94 74.645 42.48M495.84 1702.95l147.633 88.66 39.172-65.98-34.227-21.44-27.219 43.71-110.515-68.45-14.844 23.5M981.215 1954.81v22.79h-82.879l-.824-157.53h83.703l11.551 18.15h-61.032v116.7l49.481-.11M1029.46 1981.31h-34.624v-179.79h35.864l-.17 85.36h10.07v-86.19h34.22v181.03h-33.8v-63.92h-11.14l-.42 63.51M1481.83 1755.11l18.9-11.74 13.05 22.17-18.92 13.04 18.27 31.3-30 17.61-46.96-76.3v-9.78l26.74-16.95 18.92 30.65M1301.48 1790.38l.1-14.84 114.31-63.92-25.16-41.24 30.52-20.62 39.17 65.16-150.27 87.42-8.67-11.96M1424.89 1829.48l35.41-20.91 14.35 21.52-40.91 27.4 5.22 11.08-30.17 18.26-8.14-11.09-37.52 22.18-15.44-22.85 41.84-24.7c4.13-1.41 8.3-3.09 12.44-5.14 8.86-4.4 16.57-9.82 22.92-15.75" style="fill:#fff;fill-opacity:1;fill-rule:nonzero;stroke:none" transform="matrix(.13333 0 0 -.13333 0 292.87)"/><path d="M1359.68 1822.61c3.1 6.27 16.44 5.97 29.78-.65 13.36-6.62 21.66-17.07 18.55-23.33-3.1-6.25-16.44-5.96-29.79.66-13.35 6.63-21.66 17.06-18.54 23.32zm8.62-45.21c30.9-15.33 63.47-12.56 72.75 6.16 6.65 13.36-.4 31.21-16.16 45.92l-35.36 20.89c-26.76 9.1-52.26 4.92-60.31-11.31-9.31-18.74 8.19-46.34 39.08-61.66" style="fill:#fff;fill-opacity:1;fill-rule:nonzero;stroke:none" transform="matrix(.13333 0 0 -.13333 0 292.87)"/><path d="M1401.97 1845.23c-4.14 2.05-8.31 3.73-12.44 5.14l35.36-20.89c-6.35 5.93-14.06 11.35-22.92 15.75M1694.29 1641.03l-24.55-15.83 75.84-114.03c-18.87-11.86-37.92-23.47-56.63-35.57-8.12-5.25-15.65-10.99-24.79-14.38-2.87-1.06-22.58-8.51-24.43-5.7l18-27.29s8.74-7.09 36.02 7.64l95.48 58.93-94.94 146.23" style="fill:#fff;fill-opacity:1;fill-rule:nonzero;stroke:none" transform="matrix(.13333 0 0 -.13333 0 292.87)"/><path d="m1657.58 1406.25-23.86-14.57-99.84 155.5 24.56 14.73 15.27-22.37 68.2 43.64 19.1-31.09-68.74-45.29 9.26-15.28 71.17 46.38 19.79-30.33-70.22-46.6 35.31-54.72M908.961 1591.76h-53.988v-9.31h21.132c-.699-6.97-4.011-12.11-8.863-18.82l-1.269-1.75c-4.629-6.4-11.016-12.58-18.969-18.36l-2.121-1.54 7.605-3.21.633.34c5.879 3.17 11.719 7.41 17.375 12.6 5.387 5.09 9.317 10.21 12.375 15.25l11.031-10.81 13.715-15.12 1.039 1.74 5.489 9.7s-25.668 21.35-27.118 22.55c.297 1.38 1.235 5.76 1.59 7.43h21.821v9.31h-1.477M863.313 1531.17c0-7.89-.79-16.84 1.023-24.55.852-3.62 5.25-3.8 8.242-4.19 3.305-.43 45.059-.43 55.063-.31 2.195.02 4.386 0 6.578 0v7.84c-5.403 0-10.801-.03-16.199 0-9.598.05-19.188-.1-28.778.02-5.012.07-10.082-.35-15.058.56-.192 6.87-.375 13.75-.567 20.63h-10.304M921.637 1526.87h9.727v67.102h-9.727ZM1014.07 1588.5v-6.66h30.96l1.81-.3c0-.09.27-1.58.27-1.58v-21.63h-33.74v-31.06c0-2.76 2.35-5.22 7-7.33 3.37-1.48 8.17-2.22 14.29-2.22 6.62-.21 13.23.55 19.64 2.28 6.65 1.71 12.25 4.25 16.62 7.53l-2.47 7.67-.92-.72c-4.04-3.19-9.09-5.74-14.99-7.56-5.84-1.81-11.69-2.66-17.39-2.53-.02 0-9.84 1.32-9.84 1.32l-1.27.45c-1.17.38-1.18.39-1.18 1.11v24.4h33.76v29.24c0 1.63-.74 4.63-1.98 5.75-1.45 1.3-4.22 1.4-6.06 1.84h-34.51M1078.44 1499.68h9.14v94.293h-9.14zM685.297 1087.22c-2.547-3.37-6.102-5.06-10.649-5.06-4.738 0-8.398 1.69-11.019 5.06-2.367 3.16-3.551 7.2-3.551 12.14 0 4.84 1.184 8.8 3.551 11.89 2.621 3.37 6.281 5.07 11.019 5.07 4.485 0 8.04-1.7 10.649-5.07 2.375-3.09 3.551-7.05 3.551-11.89 0-4.94-1.176-8.98-3.551-12.14zm9.832 30.11c-5.063 5.12-11.875 7.69-20.481 7.69-8.835 0-15.832-2.57-20.964-7.69-4.551-4.73-6.821-10.68-6.821-17.86 0-7.4 2.27-13.46 6.821-18.2 5.054-5.21 12.043-7.81 20.964-7.81 8.676 0 15.497 2.6 20.481 7.81 4.633 4.74 6.945 10.8 6.945 18.2 0 7.18-2.312 13.13-6.945 17.86M668.383 1061.09v-17.66c0-1.77.394-2.96 1.211-3.66.82-.65 2.23-1 4.23-1h55.047v-8.45h-63.336c-2.824 0-4.871.68-6.137 2.02-1.113 1.15-1.668 3.16-1.668 6.03v22.72h10.653M717.875 1054.94h12.066v69.36h-12.066ZM851.43 1108.97c0-10.15-4.907-19.32-14.707-27.49-9.743-8.19-16.02-10.8-31.297-13.53l-.055 7.41c12.859 3.22 10.348 2.02 20.375 7.87 10.266 6 13.336 16.65 13.336 26.3l-31.562.16v7.75h43.91v-8.47M885.883 1050.52c0-3.97-1.258-7.79-3.738-11.42-1.942-2.85-4.032-4.97-6.301-6.37l-4.981 1.69c1.344 1.33 2.45 3.15 3.301 5.47.926 2.6 1.383 5.54 1.383 8.85v8.19h-60.121v7.59h70.457v-14M887.102 1069.06h-11.067v13.93h-11.293v3.72h11.293v15.41h-11.293v3.56h11.293v19.78h11.067v-56.4M1107.84 1058.74c-2.95-7.17-6.93-10.75-12-10.75-5.16 0-9.19 3.58-12.12 10.75-2.64 6.44-3.97 14.29-3.97 23.52 0 9.43 1.33 17.31 3.97 23.63 2.93 7.01 6.96 10.52 12.12 10.52 5.07 0 9.05-3.51 12-10.52 2.72-6.32 4.07-14.2 4.07-23.63 0-9.23-1.35-17.08-4.07-23.52zm-11.97 66.62c-8.59 0-15.45-4.3-20.55-12.91-4.68-8.02-7.02-18.18-7.02-30.51 0-11.55 2.34-21.43 7.02-29.61 5.18-9.11 12.03-13.66 20.55-13.66 8.41 0 15.17 4.55 20.27 13.66 4.67 8.18 7.02 18.06 7.02 29.61 0 12.41-2.35 22.58-7.02 30.51-5.01 8.61-11.77 12.91-20.27 12.91M1139.15 1029.85h10.98v92.078h-10.98ZM1274.99 1109.45h-35.03v-21.58h33.36v-8.21h-33.36s-1.04-25.51 2.78-26.46c3.97-.94 10.47-1.27 16.6-.94 4.6.39 9.77 1.5 15.55 3.31 5.49 1.66 9.88 3.45 13.14 5.35l1.78-9.83c-4.25-2.28-9.82-4.24-16.69-5.81-6.83-1.5-13.43-2.34-19.82-2.49-7.45 0-12.91.58-16.4 1.77-3.77 1.35-4.18 3.44-4.18 6.3v66.8h42.27v-8.21M1307.71 1121.26v-38.28h10.66v-7.57h-10.66v-45.21h-11.18v91.06h11.18" style="fill:#fff;fill-opacity:1;fill-rule:nonzero;stroke:none" transform="matrix(.13333 0 0 -.13333 0 292.87)"/></svg>