<svg xmlns="http://www.w3.org/2000/svg" width="152.36726mm" height="152.36848mm" viewBox="0 0 152.36726 152.36848"><path d="M0 0c-47.118 0-85.451-38.333-85.451-85.451 0-47.119 38.333-85.452 85.451-85.452 47.118 0 85.451 38.333 85.451 85.452C85.451-38.333 47.118 0 0 0m0-173.961c-48.804 0-88.509 39.705-88.509 88.51C-88.509-36.647-48.804 3.058 0 3.058s88.509-39.705 88.509-88.509c0-48.805-39.705-88.51-88.509-88.51M0 35.668c-66.785 0-121.119-54.334-121.119-121.119 0-66.786 54.334-121.12 121.119-121.12s121.119 54.334 121.119 121.12C121.119-18.666 66.785 35.668 0 35.668m0-245.296c-68.471 0-124.176 55.705-124.176 124.177C-124.176-16.98-68.471 38.726 0 38.726S124.176-16.98 124.176-85.451c0-68.472-55.705-124.177-124.176-124.177" style="fill:#898989;fill-opacity:1;fill-rule:nonzero;stroke:none" transform="matrix(.61351 0 0 -.61351 76.184 23.759)"/><path d="M0 0c-3.784 0-6.851-3.172-6.851-7.09 0-3.912 3.067-7.088 6.851-7.088 3.786 0 6.853 3.176 6.853 7.088C6.853-3.172 3.786 0 0 0" style="fill:#0068b7;fill-opacity:1;fill-rule:nonzero;stroke:none" transform="matrix(.61351 0 0 -.61351 76.37 111.319)"/><path d="M0 0c2.578-1.559 4.226-3.916 4.226-6.553 0-2.627-1.632-4.971-4.193-6.53 3.389 1.057 5.776 3.586 5.776 6.536C5.809-3.588 3.41-1.051 0 0" style="fill:#0068b7;fill-opacity:1;fill-rule:nonzero;stroke:none" transform="matrix(.61351 0 0 -.61351 79.735 111.651)"/><path d="M0 0c0 2.637 1.646 4.995 4.228 6.553C.815 5.502-1.585 2.966-1.585.006c0-2.95 2.386-5.478 5.777-6.535C1.634-4.97 0-2.626 0 0" style="fill:#0068b7;fill-opacity:1;fill-rule:nonzero;stroke:none" transform="matrix(.61351 0 0 -.61351 70.412 115.672)"/><path d="M0 0c-.667 0-1.323.045-1.959.122A16.326 16.326 0 0 0-3.921 0c-6.445 0-11.668 3.812-11.668 8.509 0 4.698 5.223 8.512 11.668 8.512.67 0 1.326-.044 1.962-.125.636.081 1.292.125 1.959.125 6.447 0 11.669-3.814 11.669-8.512C11.669 3.812 6.447 0 0 0m37.715 108.141c-7.359 0-13.325-5.966-13.325-13.326V48.174c0-14.72-11.932-26.652-26.653-26.652-14.72 0-26.652 11.932-26.652 26.652v46.641c0 7.36-5.966 13.326-13.326 13.326s-13.326-5.966-13.326-13.326V48.174c0-29.439 23.864-53.304 53.304-53.304 29.439 0 53.304 23.865 53.304 53.304v46.641c0 7.36-5.966 13.326-13.326 13.326" style="fill:#0068b7;fill-opacity:1;fill-rule:nonzero;stroke:none" transform="matrix(.61351 0 0 -.61351 77.572 120.892)"/><path d="M0 0a13.162 13.162 0 0 1-3.404 8.905c-2.625 2.899-6.254 4.358-9.911 4.336h-.009c-3.23 0-6.191-1.15-8.498-3.061-.19-.155-.379-.315-.563-.482l-40.147-36.345c-5.543-5.018-6.033-13.509-1.093-18.965 4.94-5.456 13.437-5.811 18.98-.793l17.995 16.29v-56.589c0-7.36 5.966-13.326 13.326-13.326S.002-94.064.002-86.704V-.085L0 0" style="fill:#e60013;fill-opacity:1;fill-rule:nonzero;stroke:none" transform="matrix(.61351 0 0 -.61351 84.606 38.143)"/><path d="M0 0c-1.346-.128-2.335-1.336-2.335-2.688v-6.569h-2.276v6.68a2.589 2.589 0 1 1-5.179 0v-16.614h-7.318c-.888 0-1.609.72-1.609 1.608v11.778h5.299c.985 0 1.868.738 1.92 1.722a1.82 1.82 0 0 1-1.817 1.916h-10.581v-17.445a3.217 3.217 0 0 1 3.218-3.217H-9.79v-5.145h5.179v15.079h2.276v-15.079h5.179v25.397A2.59 2.59 0 0 1 0 0" style="fill:#898989;fill-opacity:1;fill-rule:nonzero;stroke:none" transform="matrix(.61351 0 0 -.61351 82.384 3.24)"/><path d="m0 0-9.025 16.395c-.474.862-1.546 1.28-2.433.851a1.82 1.82 0 0 1-.803-2.516l7.352-13.357a1.608 1.608 0 0 0-.633-2.185l-11.146-6.135 2.498-4.537L-1.267-4.37A3.218 3.218 0 0 1 0 0" style="fill:#898989;fill-opacity:1;fill-rule:nonzero;stroke:none" transform="matrix(.61351 0 0 -.61351 141.272 44.863)"/><path d="M0 0a2.59 2.59 0 0 1-2.497 4.537L-9.49.688l-1.249 2.268 6.915 3.806c1.208.666 1.761 2.158 1.176 3.407a2.59 2.59 0 0 1-3.595 1.173l-7.156-3.938-1.289 2.342a1.726 1.726 0 1 1-3.025-1.666l11.502-20.895a1.819 1.819 0 0 1 3.187 1.754l-3.969 7.212z" style="fill:#898989;fill-opacity:1;fill-rule:nonzero;stroke:none" transform="matrix(.61351 0 0 -.61351 132.2 46.345)"/><path d="m0 0-12.967-8.495a1.609 1.609 0 0 0-2.227.464l-1.328 2.027-4.332-2.838 2.44-3.725a3.219 3.219 0 0 1 4.455-.928L1.908-3.099c.823.539 1.158 1.64.662 2.491A1.82 1.82 0 0 1 0 0" style="fill:#898989;fill-opacity:1;fill-rule:nonzero;stroke:none" transform="matrix(.61351 0 0 -.61351 51.67 22.752)"/><path d="M0 0a1.82 1.82 0 0 1 2.518-.525L6.051 1.79 6.84.586l4.331 2.838L.151 20.245a2.59 2.59 0 0 1-4.332-2.838L4.057 4.833.525 2.518A1.82 1.82 0 0 1 0 0" style="fill:#898989;fill-opacity:1;fill-rule:nonzero;stroke:none" transform="matrix(.61351 0 0 -.61351 45.233 23.452)"/><path d="m0 0-12.282-8.046a1.81 1.81 0 0 1 1.983-3.026l3.736 2.447 1.516-2.314 4.559 2.986-1.525 2.31 3.995 2.617A1.809 1.809 0 0 1 0 0" style="fill:#898989;fill-opacity:1;fill-rule:nonzero;stroke:none" transform="matrix(.61351 0 0 -.61351 44.084 19.357)"/><path d="M0 0c-1.586-1.039-3.765-.518-4.867 1.164-1.102 1.683-.71 3.889.876 4.928 1.586 1.039 3.765.517 4.867-1.165C1.978 3.245 1.586 1.039 0 0m-5.644 8.615c-3.965-2.598-5.6-7.114-3.652-10.088 1.949-2.974 6.742-3.278 10.707-.681C5.376.444 7.011 4.96 5.063 7.934c-1.949 2.974-6.742 3.278-10.707.681" style="fill:#898989;fill-opacity:1;fill-rule:nonzero;stroke:none" transform="matrix(.61351 0 0 -.61351 39.662 20.826)"/><path d="m0 0-1.386.865 2.303 3.69a2.59 2.59 0 0 1-4.394 2.742l-8.076-12.942 4.394-2.742 3.847 6.166 1.386-.865A1.819 1.819 0 1 1 0 0" style="fill:#898989;fill-opacity:1;fill-rule:nonzero;stroke:none" transform="matrix(.61351 0 0 -.61351 117.856 21.729)"/><path d="m0 0-16.464 10.274a1.728 1.728 0 0 1-2.379-.551l-.098-.157a1.727 1.727 0 0 1 .551-2.379l13.436-8.383a1.61 1.61 0 0 0 .513-2.217l-2.137-3.424 4.393-2.742 3.211 5.146A3.217 3.217 0 0 1 0 0" style="fill:#898989;fill-opacity:1;fill-rule:nonzero;stroke:none" transform="matrix(.61351 0 0 -.61351 111.555 26.203)"/><path d="m0 0 12.37-7.719c.831-.518 1.964-.361 2.525.442a1.808 1.808 0 0 1-.523 2.573l-3.79 2.365.377.604A2.72 2.72 0 1 1 6.338 1.14L5.967.541 2.002 3.015c-.831.518-1.964.361-2.525-.442A1.808 1.808 0 0 1 0 0" style="fill:#898989;fill-opacity:1;fill-rule:nonzero;stroke:none" transform="matrix(.61351 0 0 -.61351 105.223 12.902)"/><path d="M0 0c1.609-1.004 2.05-3.2.985-4.907-1.064-1.706-3.232-2.275-4.84-1.271-1.609 1.003-2.05 3.2-.985 4.906C-3.775.434-1.608 1.004 0 0m-5.452-8.738c4.021-2.509 8.807-2.098 10.689.918 1.882 3.016.148 7.495-3.874 10.004-4.021 2.51-8.807 2.099-10.689-.917-1.882-3.016-.147-7.495 3.874-10.005" style="fill:#898989;fill-opacity:1;fill-rule:nonzero;stroke:none" transform="matrix(.61351 0 0 -.61351 108.396 16.324)"/><path d="m0 0 2.491 4.54-7.774 4.266 2.447 4.459c.483.881.172 1.98-.695 2.456-.866.475-1.961.147-2.444-.734L-17.927-6.795c-.492-.897-.16-2.021.744-2.482.873-.445 1.953-.047 2.432.826l2.39 4.356 7.774-4.265 2.491 4.54L-9.87.446l2.096 3.819z" style="fill:#898989;fill-opacity:1;fill-rule:nonzero;stroke:none" transform="matrix(.61351 0 0 -.61351 28.971 47.233)"/><path d="M0 0c-1.937 1.063-2.485 3.788-1.224 6.087 1.261 2.298 3.854 3.3 5.791 2.237 1.937-1.063 2.485-3.788 1.224-6.087C4.53-.061 1.937-1.063 0 0m8.783.596c2.715 4.949 1.99 10.567-1.621 12.548-3.611 1.982-8.74-.424-11.455-5.374-2.716-4.949-1.99-10.567 1.621-12.548C.939-6.759 6.067-4.354 8.783.596" style="fill:#898989;fill-opacity:1;fill-rule:nonzero;stroke:none" transform="matrix(.61351 0 0 -.61351 15.975 44.935)"/><path d="M0 0c.003-6.682 3.843-11.022 9.799-11.107l.182-.001 12.886.006c.843.001 1.537.266 2.005.769.503.539.769 1.364.768 2.387 0 1.022-.267 1.847-.77 2.386-.469.501-1.166.764-2.006.766L9.978-4.8l-.113.001C6.78-4.755 4.793-2.881 4.792.003 4.79 2.922 6.824 4.809 9.974 4.81l12.886.006c.843.001 1.537.266 2.005.768.503.54.768 1.365.768 2.387-.001 1.983-.991 3.129-2.718 3.153h-.058L9.97 11.118C3.911 11.115-.003 6.751 0 0" style="fill:#898989;fill-opacity:1;fill-rule:nonzero;stroke:none" transform="matrix(.61351 0 0 -.61351 4.184 76.19)"/><path d="M0 0c-.255-.693-.18-1.557.216-2.499.397-.942.962-1.6 1.635-1.902.626-.28 1.37-.256 2.147.071l18.168 7.644c.778.327 1.314.84 1.552 1.484.254.692.179 1.556-.217 2.499-.829 1.97-2.564 2.608-2.581 2.614l-8.158 3.18c-.336.135-1.25.411-2.023.361a1.882 1.882 0 0 1-.598-.128 2.386 2.386 0 0 1-1.279-3.138c.675-1.606 2.544-2.173 2.563-2.178.292-.086 3.092-1.048 3.092-1.048L1.551 1.485C.774 1.158.237.645 0 0" style="fill:#898989;fill-opacity:1;fill-rule:nonzero;stroke:none" transform="matrix(.61351 0 0 -.61351 9.398 102.575)"/><path d="M0 0c.589.604.883 1.286.85 1.972-.035.736-.44 1.504-1.173 2.217-.732.714-1.509 1.099-2.246 1.115-.665 0-1.36-.297-1.949-.902l-8.995-9.23c-1.078-1.107-2.314-1.724-3.574-1.783-1.267-.059-2.468.433-3.485 1.425-2.091 2.035-2.022 4.809.176 7.066l8.994 9.23c.589.605.883 1.287.851 1.972-.036.737-.441 1.503-1.173 2.217-.758.738-1.541 1.108-2.293 1.108-.673 0-1.322-.297-1.904-.894l-8.994-9.231c-2.04-2.094-3.052-4.569-2.927-7.158.13-2.69 1.487-5.368 3.925-7.744 4.836-4.711 10.693-4.952 14.923-.611z" style="fill:#898989;fill-opacity:1;fill-rule:nonzero;stroke:none" transform="matrix(.61351 0 0 -.61351 40.776 122.609)"/><path d="M0 0c-1.801.879-3.279.477-4.053-1.108l-5.469-10.977-2.57 14.236c-.475 3.122-1.069 4.284-2.55 5.008-.912.447-1.772.567-2.485.346-.661-.204-1.203-.706-1.568-1.453l-8.658-17.708c-.371-.758-.437-1.497-.191-2.139.263-.689.887-1.29 1.806-1.739 1.8-.879 3.278-.477 4.053 1.108l5.428 11.021s.594-3.303.652-3.619l1.959-10.662c.475-3.121 1.069-4.284 2.55-5.007 1.799-.882 3.277-.478 4.053 1.107L1.615-3.879C2.389-2.294 1.801-.881 0 0" style="fill:#898989;fill-opacity:1;fill-rule:nonzero;stroke:none" transform="matrix(.61351 0 0 -.61351 56.025 129.008)"/><path d="M0 0c.184.823.077 1.558-.31 2.125-.417.609-1.164 1.049-2.161 1.272-.37.083-.719.124-1.043.124-1.387 0-2.329-.748-2.641-2.143l-4.308-19.231c-.391-1.746.488-2.952 2.472-3.398 1.956-.437 3.299.298 3.684 2.02z" style="fill:#898989;fill-opacity:1;fill-rule:nonzero;stroke:none" transform="matrix(.61351 0 0 -.61351 65.484 133.257)"/><path d="M0 0h-.012c-1.814 0-2.981-.995-3.567-3.042l-.005-.017-4.752-15.396c-.254-.824-1.421-.819-1.668.007l-4.617 15.417C-15.203-.959-16.368.042-18.189.047h-.011c-1.821 0-3.146-1.162-3.15-2.767-.002-.643.503-2.154.862-3.022l5.661-15.979c.936-2.72 2.629-3.881 5.666-3.889h.031c3.017 0 4.708 1.153 5.652 3.85L2.25-5.85c.357.857.895 2.389.896 3.067C3.15-1.175 1.827-.005 0 0" style="fill:#898989;fill-opacity:1;fill-rule:nonzero;stroke:none" transform="matrix(.61351 0 0 -.61351 81.954 132.557)"/><path d="M0 0a2.708 2.708 0 0 1-1.23.269c-.395 0-.824-.066-1.277-.198l-13.826-4.029c-.981-.286-1.699-.772-2.076-1.406-.35-.59-.411-1.33-.175-2.14l5.301-18.192c.494-1.694 1.881-2.344 3.804-1.782l14.19 4.135c.981.286 1.699.772 2.076 1.406.351.59.411 1.33.176 2.14-.236.81-.685 1.401-1.298 1.711-.658.331-1.525.357-2.506.071l-10.188-2.969a1.018 1.018 0 0 0-1.259.691l-.636 2.183a1.014 1.014 0 0 0 .691 1.259l6.913 2.014c.802.234 1.415.672 1.772 1.27.324.542.403 1.183.222 1.805-.395 1.355-1.767 1.98-3.335 1.525l-6.913-2.015a1.017 1.017 0 0 0-1.258.69l-.637 2.184a1.014 1.014 0 0 0 .691 1.258l9.824 2.863c.981.285 1.699.772 2.076 1.406.351.59.411 1.33.175 2.14S.613-.309 0 0" style="fill:#898989;fill-opacity:1;fill-rule:nonzero;stroke:none" transform="matrix(.61351 0 0 -.61351 98.441 129.186)"/><path d="m0 0-3.177-2.068a1.016 1.016 0 0 0-1.404.297l-2.275 3.495a1.018 1.018 0 0 0 .298 1.404l3.176 2.067c.881.574 1.8.822 2.662.713a2.892 2.892 0 0 0 2.103-1.31C2.197 3.348 2.112 1.376 0 0m2.031-4.42 9.424-3.363c.491-.158 2.042-.454 2.998.168 1.35.879 2.697 2.33 1.447 4.252-.458.703-1.838 1.368-2.6 1.622L6.03.447s.788.985 1.097 1.403c.087.119 2.01 3.094-.14 6.396-1.273 1.956-2.918 3.05-4.889 3.253-.23.023-.466.035-.706.035-2.075 0-4.486-.885-7.182-2.639l-6.67-4.343c-1.68-1.094-2.091-2.568-1.13-4.046l10.544-16.199c.461-.708 1.062-1.145 1.738-1.263.724-.128 1.563.099 2.42.656 1.679 1.094 2.091 2.569 1.129 4.047L-1.067-7.17a1.02 1.02 0 0 0-.142.763c.056.263.214.494.439.641l1.907 1.24c.265.174.597.212.894.106" style="fill:#898989;fill-opacity:1;fill-rule:nonzero;stroke:none" transform="matrix(.61351 0 0 -.61351 111.032 128.87)"/><path d="M0 0c1.573.396 3.964 1.464 6.415 4.299 2.409 2.787 3.738 5.637 3.844 8.241.093 2.291-.752 4.276-2.444 5.739-3.383 2.921-7.211.719-11.503-2.23-2.291-1.574-4.1-2.822-5.409-1.69-.884.764-1.286 2.383.484 4.43 1.146 1.327 2.47 1.573 3.534 1.77.999.185 1.788.331 2.562 1.227 2.062 2.387.697 3.566.249 3.953-.797.689-2.396.875-4.072.477-2.185-.522-4.382-1.958-6.186-4.045-2.19-2.534-3.376-5.112-3.43-7.454-.048-2.097.812-3.971 2.486-5.418 3.682-3.182 7.796-.725 12.039 2.301 1.57 1.12 2.821 2.012 3.84 2.012.374 0 .717-.121 1.033-.394.517-.446 1.974-2.164-.94-5.538C1.21 6.185-.194 5.886-1.322 5.645c-.987-.21-1.766-.376-2.52-1.248-.728-.843-1.113-1.647-1.114-2.325-.001-.593.282-1.125.864-1.628C-3.29-.249-1.684-.423 0 0" style="fill:#898989;fill-opacity:1;fill-rule:nonzero;stroke:none" transform="matrix(.61351 0 0 -.61351 126.597 126.314)"/><path d="m0 0-17.293 9.451c-.485.266-.96.396-1.413.396-.99 0-1.875-.625-2.535-1.832-.49-.897-.653-1.749-.469-2.463.169-.665.651-1.231 1.391-1.635l17.294-9.452c1.546-.846 2.988-.323 3.948 1.437.49.897.652 1.749.469 2.463C1.222-.97.74-.404 0 0" style="fill:#898989;fill-opacity:1;fill-rule:nonzero;stroke:none" transform="matrix(.61351 0 0 -.61351 138.762 108.177)"/><path d="M0 0c-.326.095-.64.143-.938.143-.443 0-.849-.105-1.202-.314-.635-.376-1.123-1.093-1.411-2.074l-4.698-16c-.565-1.923.082-3.311 1.774-3.808.809-.237 1.55-.179 2.141.171.634.375 1.122 1.092 1.41 2.073l1.174 4a1.015 1.015 0 0 0 1.26.688l14.91-4.378c1.694-.498 2.987.322 3.551 2.245.565 1.923-.082 3.311-1.774 3.808L1.287-9.068a1.016 1.016 0 0 0-.688 1.26l1.175 4c.288.98.266 1.848-.065 2.507C1.401-.688.81-.238 0 0" style="fill:#898989;fill-opacity:1;fill-rule:nonzero;stroke:none" transform="matrix(.61351 0 0 -.61351 134.171 85.934)"/><path d="M0 0h.015c.947.008 2.346.956 2.764 1.29l10.295 7.224c.168.118.368.182.574.184h.01l6.064-.008a.28.28 0 0 1 .041 0c1.739.015 2.737 1.161 2.74 3.15.002 2.005-1.008 3.156-2.772 3.158l-6.064.009c-.209 0-.413.065-.584.186L2.859 22.409c-.677.538-1.987 1.334-2.825 1.335h-.043c-.837-.007-1.494-.268-1.953-.775-.512-.565-.783-1.452-.784-2.564-.002-1.515 1.448-2.576 1.463-2.586l8.823-5.881-8.854-6.019c-.001-.001-1.455-1.056-1.457-2.572C-2.773 2.099-2.415.003 0 0" style="fill:#898989;fill-opacity:1;fill-rule:nonzero;stroke:none" transform="matrix(.61351 0 0 -.61351 134.724 83.52)"/></svg>