<svg xmlns="http://www.w3.org/2000/svg" width="177.45285mm" height="177.45285mm" viewBox="0 0 177.45285 177.45285"><g transform="translate(-20.547 -57.283)"><circle cx="109.27357" cy="146.00945" r="88.726425" style="fill:#f9f9f9;stroke:#fff;stroke-width:0"/><path d="M0 0c36.85 0 66.721 29.874 66.721 66.723 0 36.849-29.871 66.721-66.721 66.721-36.849 0-66.72-29.872-66.72-66.721C-66.72 29.874-36.849 0 0 0m-63.422 66.802c0 34.981 28.361 63.343 63.344 63.343 34.984 0 63.344-28.362 63.344-63.343 0-34.984-28.36-63.345-63.344-63.345-34.983 0-63.344 28.361-63.344 63.345" style="fill:#1ab18b;fill-opacity:1;fill-rule:nonzero;stroke:none" transform="matrix(.96949 0 0 -.96949 109.038 209.813)"/><path d="M0 0c48.51 0 87.836 39.326 87.836 87.837 0 48.51-39.326 87.836-87.836 87.836-48.509 0-87.836-39.326-87.836-87.836C-87.836 39.326-48.509 0 0 0m-84.458 87.837c0 46.643 37.813 84.457 84.458 84.457 46.646 0 84.46-37.814 84.46-84.457C84.46 41.191 46.646 3.379 0 3.379c-46.645 0-84.458 37.812-84.458 84.458" style="fill:#1ab18b;fill-opacity:1;fill-rule:nonzero;stroke:none" transform="matrix(.96949 0 0 -.96949 108.962 230.232)"/><path d="M0 0h14.077v2.581h5.439V0H33.17v-4.371H19.887s2.408-7.424 13.283-6.157l-1.736-4.47s-7.376-1.489-14.601 5.139c0 0-3.203-5.662-15.044-5.139L0-10.528s12.588-1.888 14.077 6.157H0Z" style="fill:#1ab18b;fill-opacity:1;fill-rule:nonzero;stroke:none" transform="matrix(.96949 0 0 -.96949 92.98 112.697)"/><path d="M0 0c7.746-48.863 41.811-67.336 41.811-67.336C79.5-42.309 83.575 0 83.575 0c2.084 9.237 1.042 33.819 1.042 33.819H-.747C-2.831 21.451 0 0 0 0m-3.874 36.202h91.471S88.191 19.218 86.403 0c0 0-3.823-43.51-44.592-70.843 0 0-36.002 17.658-44.79 70.843 0 0-1.64 5.809-.895 36.202" style="fill:#1ab18b;fill-opacity:1;fill-rule:nonzero;stroke:none" transform="matrix(.96949 0 0 -.96949 68.427 137.78)"/><path d="m0 0-42.01-42.456v-59.294l11.023 8.64v45.734L.148-17.281z" style="fill:#1ab18b;fill-opacity:1;fill-rule:nonzero;stroke:none" transform="matrix(.96949 0 0 -.96949 151.328 103.983)"/><path d="m0 0-29.05-28.754v-42.754l6.406 7.747v30.539L-.596-11.62z" style="fill:#1ab18b;fill-opacity:1;fill-rule:nonzero;stroke:none" transform="matrix(.96949 0 0 -.96949 151.472 122.904)"/><path d="m0 0-18.474-18.176v-26.07l3.725 6.107v17.282L-1.936-7.748z" style="fill:#1ab18b;fill-opacity:1;fill-rule:nonzero;stroke:none" transform="matrix(.96949 0 0 -.96949 150.462 138.935)"/><path d="m0 0 42.012-42.457v-59.294l-11.023 8.643v45.735L-.147-17.28Z" style="fill:#1ab18b;fill-opacity:1;fill-rule:nonzero;stroke:none" transform="matrix(.96949 0 0 -.96949 66.656 103.947)"/><path d="m0 0 29.05-28.75v-42.758l-6.405 7.747v30.539L.597-11.619Z" style="fill:#1ab18b;fill-opacity:1;fill-rule:nonzero;stroke:none" transform="matrix(.96949 0 0 -.96949 66.513 122.869)"/><path d="m0 0 18.474-18.175v-26.073l-3.726 6.109v17.282L1.937-7.748Z" style="fill:#1ab18b;fill-opacity:1;fill-rule:nonzero;stroke:none" transform="matrix(.96949 0 0 -.96949 67.523 138.897)"/><path d="M0 0a2.955 2.955 0 0 1 2.954 2.957 2.955 2.955 0 1 1-5.911 0A2.957 2.957 0 0 1 0 0" style="fill:#1ab18b;fill-opacity:1;fill-rule:nonzero;stroke:none" transform="matrix(.96949 0 0 -.96949 175.449 176.899)"/><path d="M0 0a2.956 2.956 0 1 1-.003 5.911A2.956 2.956 0 0 1 0 0" style="fill:#1ab18b;fill-opacity:1;fill-rule:nonzero;stroke:none" transform="matrix(.96949 0 0 -.96949 163.967 195.528)"/><path d="M0 0a2.955 2.955 0 0 1 0 5.912A2.956 2.956 0 1 1 0 0" style="fill:#1ab18b;fill-opacity:1;fill-rule:nonzero;stroke:none" transform="matrix(.96949 0 0 -.96949 147.501 209.539)"/><path d="M0 0a2.955 2.955 0 1 1 0 5.91A2.955 2.955 0 0 1 0 0" style="fill:#1ab18b;fill-opacity:1;fill-rule:nonzero;stroke:none" transform="matrix(.96949 0 0 -.96949 70.015 209.539)"/><path d="M0 0a2.955 2.955 0 0 1 0 5.912A2.957 2.957 0 1 1 0 0" style="fill:#1ab18b;fill-opacity:1;fill-rule:nonzero;stroke:none" transform="matrix(.96949 0 0 -.96949 42.07 176.608)"/><path d="M0 0c.027-.141-.377-.552-.372-.742 0 0-2.623-7.405 1.193-12.292 0 0 4.254-5.193-.755-12.953 0 0-1.536-3.704-5.23-7.385 0 0-.793-1.424-1.837-1.561 0 0-1.204.23-.67 1.118 0 0 4.999 3.169 1.606 12.075 0 0-1.716 5.907.43 10.796 0 0 3.611 10.431 4.146 11.542z" style="fill:#1ab18b;fill-opacity:1;fill-rule:nonzero;stroke:none" transform="matrix(.96949 0 0 -.96949 172.631 167.173)"/><path d="M0 0a2.957 2.957 0 1 1-.001 5.913A2.957 2.957 0 0 1 0 0" style="fill:#1ab18b;fill-opacity:1;fill-rule:nonzero;stroke:none" transform="matrix(.96949 0 0 -.96949 181.062 153.776)"/><path d="M0 0a2.957 2.957 0 1 0-.002 5.914A2.957 2.957 0 0 0 0 0" style="fill:#1ab18b;fill-opacity:1;fill-rule:nonzero;stroke:none" transform="matrix(.96949 0 0 -.96949 53.576 195.322)"/><path d="M0 0a2.957 2.957 0 1 0 .002 5.914A2.957 2.957 0 0 0 0 0" style="fill:#1ab18b;fill-opacity:1;fill-rule:nonzero;stroke:none" transform="matrix(.96949 0 0 -.96949 36.749 154.021)"/><path d="M0 0c-.017-.145-.521-.419-.573-.604 0 0-4.667-6.315-2.447-12.103 0 0 2.559-6.209-4.498-12.168 0 0-2.548-3.1-7.157-5.54 0 0-1.173-1.133-2.212-.959 0 0-1.084.572-.314 1.266 0 0 5.704 1.574 5.057 11.082 0 0 .082 6.149 3.56 10.201 0 0 6.498 8.925 7.333 9.829z" style="fill:#1ab18b;fill-opacity:1;fill-rule:nonzero;stroke:none" transform="matrix(.96949 0 0 -.96949 163.354 184.965)"/><path d="M0 0c-.058-.129-.625-.24-.73-.399 0 0-6.368-4.594-6.014-10.785 0 0 .546-6.692-7.991-10.221 0 0-3.37-2.174-8.502-3.097 0 0-1.462-.722-2.399-.238 0 0-.859.871.083 1.3 0 0 5.915-.24 8.195 9.017 0 0 1.949 5.832 6.495 8.633 0 0 8.906 6.52 9.976 7.13z" style="fill:#1ab18b;fill-opacity:1;fill-rule:nonzero;stroke:none" transform="matrix(.96949 0 0 -.96949 148.984 199.513)"/><path d="M0 0c-.067-.128.192-.641.131-.822 0 0 .273-7.848-4.835-11.365 0 0-5.623-3.669-3.178-12.576 0 0 .349-3.998 2.766-8.618 0 0 .326-1.597 1.28-2.041 0 0 1.217-.143.977.862 0 0-3.815 4.529 2.101 12.001 0 0 3.412 5.115 2.839 10.423 0 0-.306 11.033-.482 12.255z" style="fill:#1ab18b;fill-opacity:1;fill-rule:nonzero;stroke:none" transform="matrix(.96949 0 0 -.96949 41.214 146.455)"/><path d="M0 0c-.028-.143.375-.554.371-.746 0 0 2.594-7.409-1.236-12.284 0 0-4.275-5.177.708-12.957 0 0 1.521-3.711 5.202-7.402 0 0 .787-1.428 1.831-1.568 0 0 1.204.226.674 1.114 0 0-4.987 3.189-1.562 12.081 0 0 1.736 5.9-.391 10.799 0 0-3.574 10.442-4.105 11.554z" style="fill:#1ab18b;fill-opacity:1;fill-rule:nonzero;stroke:none" transform="matrix(.96949 0 0 -.96949 44.892 166.724)"/><path d="M0 0c.016-.144.52-.419.573-.605 0 0 4.658-6.321 2.427-12.107 0 0-2.566-6.204 4.482-12.175 0 0 2.544-3.1 7.149-5.55 0 0 1.172-1.133 2.211-.959 0 0 1.084.568.318 1.263 0 0-5.704 1.581-5.044 11.089 0 0-.074 6.149-3.546 10.206 0 0-6.484 8.932-7.318 9.841z" style="fill:#1ab18b;fill-opacity:1;fill-rule:nonzero;stroke:none" transform="matrix(.96949 0 0 -.96949 54.346 184.76)"/><path d="M0 0c.06-.131.624-.24.73-.4 0 0 6.359-4.608 5.995-10.796 0 0-.56-6.691 7.971-10.236 0 0 3.368-2.18 8.5-3.112 0 0 1.459-.724 2.398-.241 0 0 .86.87-.083 1.3 0 0-5.915-.229-8.177 9.029 0 0-1.94 5.835-6.482 8.644 0 0-8.893 6.538-9.963 7.147z" style="fill:#1ab18b;fill-opacity:1;fill-rule:nonzero;stroke:none" transform="matrix(.96949 0 0 -.96949 68.576 199.294)"/><path d="M0 0c.068-.124-.189-.64-.127-.822 0 0-.229-7.849 4.897-11.336 0 0 5.643-3.639 3.249-12.56 0 0-.326-3.998-2.716-8.633 0 0-.318-1.599-1.271-2.048 0 0-1.214-.149-.98.859 0 0 3.787 4.547-2.169 11.987 0 0-3.442 5.098-2.899 10.409 0 0 .245 11.035.414 12.256z" style="fill:#1ab18b;fill-opacity:1;fill-rule:nonzero;stroke:none" transform="matrix(.96949 0 0 -.96949 176.435 146.713)"/><path d="M0 0c-12.832-27.857-40.999-47.196-73.682-47.196-32.743 0-60.955 19.413-73.754 47.357l-2.464 1.401c12.591-29.651 41.977-50.447 76.218-50.447 34.142 0 63.454 20.672 76.107 50.181z" style="fill:#1ab18b;fill-opacity:1;fill-rule:nonzero;stroke:none" transform="matrix(.96949 0 0 -.96949 180.396 177.9)"/><path d="m0 0-2.585.698.398 1.473c.69-.154 1.18-.239 1.47-.251.46-.021.867.073 1.216.29.241.146.453.37.638.673.109.181.176.32.203.417l1.798-.485L.166-8.182l-2.215.599Z" style="fill:#1ab18b;fill-opacity:1;fill-rule:nonzero;stroke:none" transform="matrix(.96949 0 0 -.96949 93.438 213.164)"/><path d="M0 0c.629-.698 1.395-1.098 2.295-1.196.61-.066 1.137.002 1.581.206.243.11.481.282.713.516-.137-.856-.31-1.498-.521-1.928-.384-.779-.944-1.129-1.678-1.047-.382.039-.676.176-.881.41a1.353 1.353 0 0 0-.333.859l-2.216.243c-.009-.973.301-1.749.922-2.326a3.763 3.763 0 0 1 2.205-1.004c1.78-.194 3.099.542 3.957 2.212.45.881.75 2.004.899 3.373.156 1.411.095 2.569-.173 3.474-.473 1.596-1.57 2.487-3.293 2.674-1.12.125-2.072-.153-2.854-.827C-.16 4.963-.617 4.017-.75 2.806-.88 1.632-.628.699 0 0m1.773 1.206c-.237.365-.318.884-.245 1.556.087.797.363 1.337.827 1.625.294.182.63.254 1.009.212.523-.059.912-.29 1.17-.699.259-.407.354-.93.281-1.571-.086-.797-.4-1.328-.94-1.595a1.553 1.553 0 0 0-.896-.171c-.568.062-.971.276-1.206.643" style="fill:#1ab18b;fill-opacity:1;fill-rule:nonzero;stroke:none" transform="matrix(.96949 0 0 -.96949 99.717 217.749)"/><path d="m0 0 .077-1.75c-.321-.346-.763-.951-1.323-1.824a15.598 15.598 0 0 1-1.387-2.682c-.29-.719-.539-1.593-.753-2.626-.214-1.03-.305-1.873-.276-2.527l-2.323-.101c-.021 2.044.559 4.195 1.737 6.452.763 1.402 1.409 2.384 1.94 2.945l-5.673-.243-.055 2.011z" style="fill:#1ab18b;fill-opacity:1;fill-rule:nonzero;stroke:none" transform="matrix(.96949 0 0 -.96949 115.606 211.847)"/><path d="M0 0c.197.297.521.491.962.578.446.089.816.032 1.11-.167.294-.202.486-.521.574-.964.08-.405.023-.762-.169-1.067-.193-.305-.514-.501-.96-.591-.442-.088-.812-.028-1.113.181-.301.206-.491.51-.571.918C-.255-.671-.198-.3 0 0m-.224-8.761c.772-.533 1.784-.673 3.031-.427 1.249.25 2.156.774 2.719 1.572.566.797.755 1.668.569 2.608a3.562 3.562 0 0 1-.755 1.619c-.381.453-.873.78-1.486.981.479.414.758.846.836 1.298.079.451.082.859.01 1.22-.163.814-.605 1.445-1.33 1.896-.727.452-1.646.567-2.761.346C-.504 2.13-1.312 1.67-1.808.978c-.499-.695-.666-1.449-.505-2.26.073-.364.232-.741.477-1.126.246-.387.673-.706 1.283-.959a2.757 2.757 0 0 1-1.024-1.398 3.49 3.49 0 0 1-.088-1.787c.186-.939.668-1.677 1.441-2.209m.987 4.194c.232.354.593.578 1.086.676.494.099.915.03 1.265-.21.348-.237.58-.64.694-1.21.108-.549.051-1.005-.174-1.364-.226-.361-.59-.591-1.093-.69-.503-.101-.928-.026-1.272.219-.345.247-.573.644-.684 1.195-.111.569-.053 1.031.178 1.384" style="fill:#1ab18b;fill-opacity:1;fill-rule:nonzero;stroke:none" transform="matrix(.96949 0 0 -.96949 119.418 213.107)"/><path d="m0 0 .928 3.457L8.72-3.868l5.451-1.463-.815-3.031-5.435 1.456-10.473-2.603.965 3.595 7.149 1.318z" style="fill:#1ab18b;fill-opacity:1;fill-rule:nonzero;stroke:none" transform="matrix(.96949 0 0 -.96949 32.092 121.147)"/><path d="m0 0 1.434 2.865 8.272-4.136c.925-.463 1.655-.691 2.191-.683.927-.034 1.679.524 2.254 1.677.574 1.146.569 2.08-.015 2.802-.314.432-.936.881-1.86 1.342L4.003 8.005l1.433 2.867 8.278-4.142c1.432-.714 2.433-1.497 3.008-2.341 1.046-1.561.985-3.514-.187-5.857-1.173-2.343-2.698-3.567-4.578-3.674-1.021-.047-2.247.288-3.679 1.004Z" style="fill:#1ab18b;fill-opacity:1;fill-rule:nonzero;stroke:none" transform="matrix(.96949 0 0 -.96949 34.386 114.361)"/><path d="m0 0-11.782 9.372 1.96 2.465 4.496-3.574 3.649 4.588-4.495 3.574 1.961 2.466L7.573 9.519 5.611 7.055.367 11.224l-3.649-4.588 5.242-4.17Z" style="fill:#1ab18b;fill-opacity:1;fill-rule:nonzero;stroke:none" transform="matrix(.96949 0 0 -.96949 53.773 108.73)"/><path d="m0 0 2.981 2.47-5.253 3.351Zm-5.828 7.348 2.759 2.284 13.727-8.191L8.019-.747 5.288.997.998-2.557l1.183-3.028-2.55-2.112Z" style="fill:#1ab18b;fill-opacity:1;fill-rule:nonzero;stroke:none" transform="matrix(.96949 0 0 -.96949 62.061 91.31)"/><path d="m0 0 2.909 1.532 10.246-6.489-4.9 9.305 2.583 1.36L17.855-7.62l-2.773-1.461-10.473 6.59L9.6-11.967l-2.582-1.361z" style="fill:#1ab18b;fill-opacity:1;fill-rule:nonzero;stroke:none" transform="matrix(.96949 0 0 -.96949 66.367 76.62)"/><path d="m0 0 3.146.658 1.891-9.061c.211-1.015.485-1.729.825-2.146.546-.749 1.448-.992 2.705-.729 1.252.26 1.98.842 2.182 1.749.142.516.109 1.281-.103 2.295L8.755 1.825l3.146.658 1.891-9.061c.327-1.567.337-2.84.033-3.815-.578-1.791-2.15-2.954-4.714-3.489-2.564-.534-4.472-.097-5.722 1.313-.672.769-1.171 1.941-1.497 3.507z" style="fill:#1ab18b;fill-opacity:1;fill-rule:nonzero;stroke:none" transform="matrix(.96949 0 0 -.96949 86.849 67.523)"/><path d="m0 0 3.288-.029 5.945-10.552.095 10.498 2.917-.028-.137-15.054-3.133.029L2.88-4.379l-.098-10.702-2.919.026z" style="fill:#1ab18b;fill-opacity:1;fill-rule:nonzero;stroke:none" transform="matrix(.96949 0 0 -.96949 103.411 64.591)"/><path d="m0 0-3.107.429 2.059 14.913 3.108-.43z" style="fill:#1ab18b;fill-opacity:1;fill-rule:nonzero;stroke:none" transform="matrix(.96949 0 0 -.96949 119.768 80.057)"/><path d="m0 0 3.165-.869-8.969-13.171-2.878.79-.934 15.891 3.255-.895.134-11.905z" style="fill:#1ab18b;fill-opacity:1;fill-rule:nonzero;stroke:none" transform="matrix(.96949 0 0 -.96949 133.776 68.384)"/><path d="m0 0-7.171 3.548-1.41-2.85 6.583-3.257-1.165-2.352-6.582 3.257-1.719-3.473 7.503-3.711-1.202-2.431-10.275 5.085 6.68 13.501 9.945-4.921z" style="fill:#1ab18b;fill-opacity:1;fill-rule:nonzero;stroke:none" transform="matrix(.96949 0 0 -.96949 148.757 77.777)"/><path d="m0 0-2.486-3.215L.186-5.281c.531-.411.98-.655 1.345-.731.646-.136 1.23.132 1.747.804.562.724.709 1.388.449 1.987-.148.338-.475.705-.987 1.1zm6.499-2.227a3.73 3.73 0 0 0 .475-1.698 4.76 4.76 0 0 0-.175-1.466c-.137-.48-.386-.954-.747-1.424-.439-.566-1.013-1.011-1.723-1.335-.71-.327-1.482-.346-2.319-.062.385-.648.534-1.267.453-1.851-.085-.584-.45-1.296-1.098-2.134l-.619-.801c-.423-.546-.687-.932-.795-1.159-.173-.36-.198-.7-.074-1.029l-.234-.301-2.754 2.133c.127.324.238.578.329.765.194.386.425.757.689 1.112l.843 1.123c.577.768.841 1.377.785 1.826-.055.448-.429.939-1.118 1.473l-2.424 1.873-3.62-4.679-2.45 1.894L-.856 3.954l5.71-4.417c.805-.646 1.353-1.234 1.645-1.764" style="fill:#1ab18b;fill-opacity:1;fill-rule:nonzero;stroke:none" transform="matrix(.96949 0 0 -.96949 154.765 81.782)"/><path d="M0 0c-.456-.522-.719-1.003-.791-1.44-.127-.798.224-1.674 1.052-2.629.494-.572.958-.983 1.389-1.231.823-.471 1.556-.426 2.201.129.376.326.521.745.439 1.256-.089.508-.365 1.187-.834 2.039L2.661-.413c-.779 1.441-1.209 2.528-1.294 3.26-.148 1.231.335 2.332 1.454 3.3 1.019.885 2.192 1.243 3.517 1.076 1.324-.167 2.62-.978 3.883-2.433 1.052-1.219 1.633-2.53 1.743-3.938.11-1.41-.422-2.658-1.594-3.746L8.393-.612c.644.635.866 1.363.659 2.185-.142.545-.455 1.1-.946 1.667-.545.629-1.105 1.023-1.677 1.185-.574.162-1.079.051-1.523-.332-.407-.354-.548-.803-.428-1.347.071-.352.351-.995.84-1.922l1.261-2.41c.554-1.056.847-1.952.883-2.689.053-1.146-.426-2.158-1.442-3.039-1.041-.902-2.255-1.249-3.641-1.04-1.388.208-2.72 1.046-3.992 2.519-1.302 1.502-1.985 2.976-2.054 4.421-.066 1.449.489 2.686 1.675 3.713z" style="fill:#1ab18b;fill-opacity:1;fill-rule:nonzero;stroke:none" transform="matrix(.96949 0 0 -.96949 160.492 96.79)"/><path d="m0 0-1.733 2.627 12.573 8.307 1.733-2.626Z" style="fill:#1ab18b;fill-opacity:1;fill-rule:nonzero;stroke:none" transform="matrix(.96949 0 0 -.96949 165.095 110.15)"/><path d="m0 0-2.382-1.185-2.023 4.068-11.118-5.529L-16.937.2l11.119 5.529-2.024 4.068 2.384 1.182z" style="fill:#1ab18b;fill-opacity:1;fill-rule:nonzero;stroke:none" transform="matrix(.96949 0 0 -.96949 184.022 114.699)"/><path d="m0 0 .979-3.441-10.45 2.282-5.429-1.546-.86 3.021 5.416 1.541 7.65 7.612 1.017-3.577-5.457-4.805z" style="fill:#1ab18b;fill-opacity:1;fill-rule:nonzero;stroke:none" transform="matrix(.96949 0 0 -.96949 187.484 125.985)"/></g></svg>