<svg xmlns="http://www.w3.org/2000/svg" width="175.50645mm" height="175.49261mm" viewBox="0 0 175.50645 175.49261"><path d="m287.457 410.626-.54 1.307 1.835.756-4.073 9.869 1.531.637 4.614-11.181zM303.944 419.245c.56-2.288-.603-4.531-2.588-5.012-1.987-.482-4.05.974-4.606 3.262-.557 2.281.606 4.526 2.594 5.006.265.069.534.094.801.094-1.542 1.926-3.764 3.644-3.764 3.644l1.812.444c4.736-4.232 5.452-6.456 5.526-6.738.093-.225.172-.462.225-.7zm-5.722-1.393c.362-1.5 1.609-2.482 2.784-2.195 1.179.282 1.838 1.732 1.47 3.232-.363 1.494-1.613 2.474-2.788 2.194-1.176-.288-1.832-1.738-1.466-3.231zM310.982 423.026c.125 2.344 1.882 4.157 3.926 4.05 2.044-.112 3.598-2.099 3.469-4.449-.125-2.344-1.878-4.157-3.925-4.051a3.358 3.358 0 0 0-.791.144c.922-2.287 2.554-4.575 2.554-4.575l-1.866.1c-3.316 5.412-3.361 7.744-3.351 8.044a5.598 5.598 0 0 0-.016.737zm5.885-.318c.082 1.543-.831 2.837-2.037 2.906-1.207.063-2.254-1.137-2.335-2.669-.081-1.544.828-2.843 2.038-2.906 1.206-.062 2.25 1.131 2.334 2.669zM324.484 413.389l-.584-1.32 5.428-2.518.811 1.744 1.728 10.644-1.633.756-1.718-11.175z" style="fill:#062c6c;stroke:none" transform="matrix(1.38384 0 0 1.38384 -337.555 -422.448)"/><path d="m287.455 410.62-.538 1.306 1.832.757-4.073 9.869 1.534.638 4.614-11.182zM303.947 419.239c.557-2.288-.603-4.525-2.591-5.012-1.987-.482-4.05.974-4.606 3.262-.557 2.282.606 4.525 2.594 5.006.262.063.531.094.801.094-1.545 1.925-3.764 3.644-3.764 3.644l1.812.444c4.736-4.232 5.452-6.457 5.526-6.738.093-.225.169-.462.228-.7zm-5.729-1.394c.366-1.5 1.613-2.482 2.788-2.194 1.176.288 1.835 1.732 1.47 3.225-.363 1.501-1.613 2.482-2.788 2.194-1.176-.281-1.832-1.725-1.47-3.225z" style="fill:#062c6c;stroke:none" transform="matrix(1.38384 0 0 1.38384 -337.555 -422.448)"/><path d="M307.338 305.273c-35.02 0-63.411 28.388-63.411 63.408 0 35.02 28.391 63.408 63.411 63.408 35.023 0 63.415-28.388 63.415-63.408 0-35.02-28.392-63.408-63.415-63.408zm0 124.141c-33.542 0-60.738-27.194-60.738-60.733 0-33.545 27.196-60.733 60.738-60.733 33.549 0 60.739 27.188 60.739 60.733 0 33.539-27.19 60.733-60.739 60.733z" style="fill:#062c6c;stroke:none" transform="matrix(1.38384 0 0 1.38384 -337.555 -422.448)"/><path d="M263.555 368.681c0-24.182 19.605-43.782 43.783-43.782 24.184 0 43.787 19.6 43.787 43.782 0 24.176-19.603 43.776-43.787 43.776-24.178 0-43.783-19.6-43.783-43.776zm43.783 41.932c23.16 0 41.937-18.775 41.937-41.932 0-23.156-18.777-41.933-41.937-41.933-23.159 0-41.933 18.777-41.933 41.933 0 23.157 18.774 41.932 41.933 41.932z" style="fill:#062c6c;stroke:none" transform="matrix(1.38384 0 0 1.38384 -337.555 -422.448)"/><path d="m281.476 334.68 8.429 8.044-3.044 21.633h17.355l2.423-17.233h8.607l-2.426 17.233h16.215l4.169-29.677zM324.778 394.638 327.822 373h-16.215l-2.424 17.244h-8.608L303 373h-17.352l-4.175 29.676h51.731zM275.506 407.901c.435.375.679.819.722 1.344.044.519-.119.999-.491 1.438-.371.43-.815.675-1.343.718-.529.043-1.01-.119-1.444-.487-.435-.369-.676-.819-.716-1.35-.038-.526.125-1.006.494-1.438.369-.437.818-.675 1.34-.719.522-.037 1.004.125 1.438.494zM339.205 408.007c.438-.375.912-.537 1.438-.493.525.037.968.275 1.34.706.372.437.535.919.497 1.443-.04.531-.278.976-.712 1.351-.438.369-.916.531-1.445.487-.524-.044-.974-.281-1.344-.719-.375-.431-.537-.913-.493-1.437.043-.519.285-.969.719-1.338zM262.508 380.794l-11.989 2.094-1.528-8.751.715-.124.713-.125 1.244 7.131 3.694-.65-1.138-6.513.713-.124.713-.125 1.137 6.518 4.019-.706-1.262-7.226.712-.125.713-.125zM257.432 358.55c1.494.162 2.616.706 3.369 1.631.753.931 1.051 2.137.894 3.631-.166 1.55-.694 2.694-1.591 3.42-.897.724-2.122 1.005-3.681.836l-7.667-.812.088-.813.087-.818 7.548.8c1.128.118 2.009-.057 2.653-.531.638-.469 1.013-1.213 1.126-2.232.106-1.025-.107-1.831-.632-2.419-.531-.593-1.356-.949-2.484-1.068l-7.548-.8.087-.813.088-.826zM262.926 355.361l-11.376-4.336.294-.77.294-.769 10.02 3.826 2.194-5.75.678.262.675.256zM259.501 335.136l.45-.681.463-.687 7.279 4.856c.997.669 1.597 1.431 1.803 2.294.206.862 0 1.763-.619 2.688-.631.95-1.372 1.505-2.222 1.687-.85.175-1.703-.057-2.566-.687l-.706-.47.859-1.287.703.468c.535.357 1.038.5 1.507.426.469-.069.869-.35 1.194-.843.331-.495.419-1.007.262-1.526-.159-.525-.537-.987-1.137-1.388zM264.54 328.936l.562-.594.572-.594 8.798 8.407-.563.593-.572.595zM289.23 321.08c.666 1.343.806 2.587.425 3.719-.381 1.131-1.244 2.031-2.588 2.693-1.4.695-2.647.857-3.738.488-1.094-.369-1.987-1.256-2.682-2.663l-3.412-6.906.731-.363.741-.368 3.362 6.806c.504 1.012 1.122 1.668 1.864 1.956.74.293 1.571.212 2.49-.244.919-.456 1.488-1.062 1.706-1.831.22-.762.076-1.65-.424-2.662l-3.363-6.806.731-.364.744-.368zM296.306 323.654l-.779.138-.777.132-2.057-11.994.969-.169.972-.162 7.673 8.718-1.669-9.75.781-.131.774-.138 2.057 12-.884.15-.885.151-7.851-8.733zM308.988 310.298l.82.031.825.038-.52 12.162-.818-.037-.825-.038zM316.371 310.735l.887.225.89.219.861 10.931h.018l5.882-9.244.888.226.882.219-7.239 10.738-.863-.213-.856-.219zM326.459 326.367l5.998-10.593 7.729 4.38-.356.632-.356.625-6.298-3.562-1.847 3.261 5.751 3.257-.357.632-.356.631-5.754-3.263-2.01 3.55 6.382 3.619-.356.625-.356.631zM345.736 324.43l.575.581 3.388 3.45c.907.919 1.395 1.819 1.464 2.688.071.875-.278 1.693-1.051 2.45-.762.75-1.602 1.081-2.524 1.006a3.665 3.665 0 0 1-.682-.131l.097.287c.216.826-.028 1.6-.726 2.325l-1.537 1.606c-.254.263-.406.476-.463.651-.059.169-.044.381.041.631l-.187.187-1.42-1.443c.038-.101.194-.318.463-.644.269-.325.576-.675.926-1.044l.659-.7c.522-.544.778-1.056.765-1.525-.015-.475-.299-.993-.85-1.556l-2.734-2.782-3.729 3.663-.575-.581-.581-.588zm-2.761 5.024 2.843 2.895c.532.537 1.037.818 1.522.838.484.012.984-.232 1.5-.739.501-.487.735-.981.711-1.474-.032-.493-.326-1.026-.889-1.6l-2.756-2.807zM357.001 345.099c.641-.431 1.017-.975 1.125-1.644.112-.662-.044-1.393-.476-2.181-.443-.812-.937-1.344-1.48-1.587-.545-.25-1.123-.206-1.729.125-.412.224-.647.531-.697.924-.05.388.057 1.063.318 2.013l.567 2.1c.306 1.119.34 2.025.109 2.7-.228.682-.762 1.251-1.606 1.706-.969.532-1.939.582-2.907.157-.966-.425-1.791-1.262-2.475-2.519-.764-1.394-1.031-2.662-.807-3.806.225-1.119.895-1.981 2.013-2.588l.078-.044.722 1.325c-.76.451-1.206 1.056-1.331 1.826-.132.768.069 1.63.591 2.586.484.888 1.003 1.476 1.559 1.77.556.293 1.132.274 1.726-.044.511-.281.812-.643.893-1.081.081-.432-.018-1.163-.294-2.187l-.568-2.101c-.291-1.056-.344-1.894-.169-2.513.181-.618.622-1.118 1.325-1.5 1.019-.555 2.019-.656 2.996-.287.979.368 1.791 1.144 2.436 2.325.653 1.201.875 2.326.662 3.363-.209 1.037-.828 1.869-1.856 2.494zM362.986 350.881l.241.781.238.793-11.64 3.551-.241-.781-.24-.788zM363.934 362.1l-.413-4.094.721-.069.723-.075.987 9.819-.722.075-.722.069-.409-4.088-10.673 1.076-.082-.82-.081-.818zM357.932 375.925l7.935-3.388-.152.945-.15.956-6.386 2.518h-.003l5.291 4.388-.15.937-.147.938-6.494-5.669-4.81-.769.128-.805.131-.814z" style="fill:#062c6c;stroke:none" transform="matrix(1.38384 0 0 1.38384 -337.555 -422.448)"/></svg>