<svg xmlns="http://www.w3.org/2000/svg" xmlns:xlink="http://www.w3.org/1999/xlink" xml:space="preserve" width="160px" height="160px" x="0px" y="0px" viewBox="0 0 160 160"><path fill="#330005" d="M156.913 79.798c0 42.377-34.356 76.725-76.729 76.725-42.376 0-76.729-34.348-76.729-76.725 0-42.379 34.354-76.732 76.729-76.732 42.373 0 76.729 34.352 76.729 76.732z"/><linearGradient id="a" x1="80.1821" x2="80.1821" y1="13.6377" y2="148.8824" gradientUnits="userSpaceOnUse"><stop offset="0" style="stop-color:#720d21"/><stop offset="0.2033" style="stop-color:#6d0a1f"/><stop offset="0.5024" style="stop-color:#5f0419"/><stop offset="0.8591" style="stop-color:#49000c"/><stop offset="1" style="stop-color:#3f0004"/></linearGradient><path fill="url(#a)" d="M154.645 79.798c0 41.125-33.341 74.461-74.46 74.461-41.128 0-74.464-33.336-74.464-74.461 0-41.127 33.336-74.467 74.464-74.467 41.119 0 74.46 33.34 74.46 74.467z"/><path fill="#BCBEC0" d="M1.128 79.798c0 43.59 35.465 79.049 79.057 79.049 43.589 0 79.049-35.459 79.049-79.049 0-43.598-35.46-79.06-79.049-79.06C36.593.738 1.128 36.2 1.128 79.798zm3.847 0c0-41.474 33.735-75.214 75.21-75.214 41.466 0 75.205 33.74 75.205 75.214 0 41.47-33.739 75.21-75.205 75.21-41.475 0-75.21-33.74-75.21-75.21z"/><path fill="#FFF" d="M135.604 79.798c0 30.605-24.808 55.42-55.419 55.42-30.613 0-55.424-24.814-55.424-55.42 0-30.617 24.811-55.433 55.424-55.433 30.611 0 55.419 24.816 55.419 55.433z"/><linearGradient id="b" x1="99.9941" x2="58.2098" y1="126.3633" y2="28.1545" gradientUnits="userSpaceOnUse"><stop offset="0" style="stop-color:#595959"/><stop offset="0.0405" style="stop-color:#656565"/><stop offset="0.1678" style="stop-color:#848484"/><stop offset="0.2913" style="stop-color:#9b9b9b"/><stop offset="0.4081" style="stop-color:#a9a9a9"/><stop offset="0.5112" style="stop-color:#adadad"/><stop offset="0.603" style="stop-color:#a7a7a7"/><stop offset="0.7266" style="stop-color:#969696"/><stop offset="0.8675" style="stop-color:#7a7a7a"/><stop offset="1" style="stop-color:#595959"/></linearGradient><path fill="url(#b)" d="M24.458 79.798c0 30.719 25 55.719 55.727 55.719 30.724 0 55.72-25 55.72-55.719 0-30.728-24.996-55.728-55.72-55.728-30.727 0-55.727 25-55.727 55.728zm1.225 0c0-30.057 24.446-54.51 54.502-54.51 30.05 0 54.494 24.453 54.494 54.51 0 30.053-24.444 54.502-54.494 54.502-30.056 0-54.502-24.449-54.502-54.502z"/><path fill="#3A0007" d="m32.032 39.473-7.234-5.89-1.363 1.667 7.949 6.48.769-.941c.375-.463.429-.871-.121-1.316zm2.766 2.42-4.193 5.145-2.731-2.226-1.375 1.689 2.558 2.083c.379.305.765.432 1.158.387.395-.039.733-.231 1.001-.568l4.979-6.112-.575-.474c-.293-.233-.543-.268-.822.076zm-7.53-.473c-.075-1.09-.532-1.98-1.358-2.654-.824-.673-1.782-.934-2.871-.8-1.09.144-1.979.641-2.678 1.496a3.967 3.967 0 0 0-.902 2.905c.087 1.089.543 1.968 1.368 2.638.828.675 1.781.947 2.866.81 1.084-.133 1.972-.624 2.654-1.476.701-.853 1.011-1.827.921-2.919zm-3.313 2.72c-.64-.038-1.245-.287-1.81-.745-.573-.461-.938-1.008-1.105-1.629-.164-.616-.075-1.133.258-1.541.338-.416.826-.607 1.474-.577.647.023 1.25.272 1.829.737.559.459.923 1.005 1.081 1.632.161.625.067 1.145-.267 1.567-.335.403-.822.587-1.46.556z"/><path fill="#FFF" d="m31.976 38.884-7.235-5.889-1.36 1.662 7.948 6.48.769-.941c.373-.463.428-.865-.122-1.312zm2.762 2.414-4.183 5.147-2.735-2.227-1.379 1.687 2.562 2.087c.377.305.762.432 1.162.384.391-.04.725-.232.998-.563l4.976-6.118-.58-.468c-.285-.241-.539-.268-.821.071zm-7.526-.467c-.076-1.092-.533-1.98-1.359-2.654-.826-.673-1.784-.937-2.868-.802-1.092.145-1.985.642-2.677 1.5-.689.845-.985 1.806-.904 2.901.091 1.082.54 1.967 1.368 2.64.828.671 1.78.943 2.865.803 1.086-.133 1.968-.621 2.655-1.471a3.935 3.935 0 0 0 .92-2.917zm-3.314 2.714c-.638-.032-1.243-.282-1.81-.747-.57-.458-.936-1.005-1.102-1.624-.166-.619-.076-1.131.25-1.539.347-.416.832-.612 1.479-.58.646.028 1.251.275 1.826.736.565.464.927 1.006 1.082 1.633.164.625.075 1.149-.262 1.561-.334.409-.821.599-1.463.56z"/><path fill="#3A0007" d="m83.74 7.761-.002 4.089-1.293-.002.005-4.088-2.06.001-.003 2.501h-.004l-.001 5.172c-.174.082-.395.15-.664.214a3.779 3.779 0 0 1-.97.093l-2.173.003.002-5.992 2.707.003.003-1.333-4.848-.002-.005 7.131c-.008.464.132.829.398 1.11.273.279.635.417 1.092.418h2.741c.401-.001.752-.048 1.018-.145.284-.098.511-.222.697-.357l.001 2.497h.001l-.004 3.026 1.158.001c.576-.002.908-.208.912-.95l.003-7.991 1.284-.001-.004 8.938 1.156-.001c.586.002.901-.205.909-.882l.011-13.454-2.067.001z"/><path fill="#FFF" d="m83.379 7.24-.002 4.084-1.295.003.003-4.089-2.059.003-.002 2.506-.003.003-.003 5.168c-.168.079-.395.15-.663.213a4.09 4.09 0 0 1-.967.097l-2.176-.003V9.236l2.712-.001.004-1.335-4.853-.005-.003 7.139c-.007.462.132.833.4 1.108.27.282.634.416 1.087.419l2.747.003c.399-.001.744-.051 1.017-.152.282-.094.513-.215.695-.354v2.501h.002l-.005 3.02 1.158.001c.578 0 .908-.207.911-.946l.001-7.994 1.287.003-.005 8.937h1.159c.583-.006.901-.209.909-.885l.004-13.45-2.06-.005z"/><g fill="#3A0007"><path d="m52.05 22.279-.622-1.163-4.549 2.461-2.216-4.102 3.897-2.105-.625-1.161-5.815 3.148 2.744 5.075c.226.399.517.665.881.778.365.115.756.063 1.162-.157l5.143-2.774zm-4.745 4.004.627 1.159L54.298 24l1.917 3.54 1.079-.579c.535-.288.737-.65.398-1.28l-2.1-3.874-8.287 4.476z"/><path d="m49.4 14.925 1.551 2.867-3.061 1.655.616 1.146 3.063-1.649 1.629 3.017 1.083-.583c.533-.294.733-.647.392-1.274l-3.355-6.215-1.918 1.036z"/></g><g fill="#FFF"><path d="m52.126 21.641-.616-1.152-4.552 2.455-2.218-4.099 3.896-2.103-.626-1.164-5.812 3.143 2.741 5.076c.225.4.516.669.882.782.367.116.758.069 1.166-.155l5.139-2.783zm-4.743 4.012.625 1.158 6.369-3.438 1.916 3.539 1.078-.584c.537-.29.736-.648.397-1.276l-2.097-3.876-8.288 4.477z"/><path d="m49.479 14.292 1.548 2.87-3.06 1.653.616 1.143 3.06-1.65 1.636 3.02 1.078-.578c.534-.292.732-.649.392-1.278l-3.354-6.211-1.916 1.031z"/></g><path fill="#3A0007" d="m103.893 22.624 6.357 3.766-1.905 3.219 1.049.627c.531.313.936.301 1.303-.316l2.105-3.546-8.245-4.884-.664 1.134zm1.899-4.936c-.448.756-.544 1.563-.304 2.426a3.268 3.268 0 0 0 1.518 1.981c.779.462 1.608.596 2.482.397.879-.2 1.543-.684 1.988-1.437.445-.753.551-1.563.3-2.427-.04-.155-.103-.292-.163-.428l1.605.947.653-1.097-2.374-1.413.877-1.471-1.88-1.109-.868 1.475-2.373-1.405-.648 1.102 1.626.964c-.157.018-.306.026-.457.06-.872.207-1.532.684-1.982 1.435zm2.675-.035c.441-.184.83-.184 1.162.017.348.207.548.544.589 1.021.048.476-.062.949-.337 1.419-.283.466-.646.795-1.082.979-.444.189-.832.181-1.183-.028-.331-.198-.522-.534-.569-1.007-.042-.473.071-.949.349-1.415.28-.472.64-.798 1.071-.986zm7.465 3.443 1.59-2.694-1.875-1.114-4.273 7.214 1.057.63c.518.306.925.293 1.289-.321l1.542-2.596 1.682.991.662-1.118-1.674-.992z"/><path fill="#FFF" d="m103.748 22.047 6.357 3.77-1.905 3.219 1.051.629c.528.303.936.293 1.299-.32l2.112-3.549-8.248-4.884-.666 1.135zm1.901-4.939c-.448.762-.545 1.572-.305 2.432.241.858.75 1.519 1.519 1.977.782.463 1.607.596 2.48.395.879-.198 1.544-.674 1.987-1.431.448-.75.549-1.566.302-2.427-.041-.153-.102-.29-.162-.433l1.606.953.648-1.106-2.369-1.399.877-1.477-1.881-1.113-.868 1.474-2.369-1.401-.655 1.102 1.628.964a3.181 3.181 0 0 0-.457.064c-.871.196-1.532.675-1.981 1.426zm2.677-.033c.433-.187.824-.181 1.158.017.35.202.548.542.592 1.021.05.476-.063.952-.344 1.415-.277.475-.641.802-1.08.984-.438.192-.827.18-1.18-.022-.334-.203-.522-.538-.57-1.014-.043-.473.071-.946.347-1.415.281-.467.646-.795 1.077-.986zm7.455 3.443 1.597-2.695-1.875-1.11-4.271 7.211 1.054.627c.521.311.927.295 1.293-.313l1.534-2.606 1.686 1 .664-1.118-1.682-.996z"/><g fill="#FFF"><path d="M16.745 79.585a1.598 1.598 0 0 1-3.195 0 1.597 1.597 0 0 1 3.195 0z"/><circle cx="145.327" cy="79.585" r="1.597"/></g><g fill="#802638"><path d="M70.782 119.815v-7.181c-.471.3-1.451.548-2.187.61l-.121-.659c1.503-.2 2.321-.771 2.668-1.317h.758v8.547h-1.118zM75.664 119.938l-.287-.72c1.02-.348 2.475-1.071 3.171-3.019a3.122 3.122 0 0 1-1.181.225c-1.49 0-2.72-.82-2.72-2.596 0-1.381.867-2.633 2.571-2.633 1.752 0 2.596 1.289 2.596 3.229 0 3.837-3.043 5.241-4.15 5.514zm1.516-8.039c-1.082 0-1.502.972-1.502 1.941 0 1.267.621 1.947 1.863 1.947.534 0 .92-.121 1.142-.223.075-.383.1-.771.1-1.191-.001-1.454-.486-2.474-1.603-2.474zM83.864 119.938c-1.753 0-2.607-1.291-2.607-3.229 0-3.839 3.041-5.243 4.147-5.514l.286.729c-1.018.337-2.472 1.07-3.168 3.01a3.073 3.073 0 0 1 1.181-.226c1.491 0 2.722.82 2.722 2.607 0 1.369-.86 2.623-2.561 2.623zm-.346-4.621c-.536 0-.919.125-1.13.225a5.334 5.334 0 0 0-.113 1.192c0 1.454.484 2.461 1.614 2.461 1.07 0 1.492-.956 1.492-1.929 0-1.263-.61-1.949-1.863-1.949zM87.591 119.815l3.02-4.285c.67-.958.807-1.506.807-2.025 0-1.006-.583-1.541-1.763-1.541-.708 0-1.156.162-1.527.348l-.287-.707c.522-.275 1.143-.461 2.148-.461 1.604 0 2.597.945 2.597 2.263 0 .632-.31 1.388-1.081 2.423l-2.285 3.078h3.466v.908h-5.095z"/></g><g fill="#FFF"><path d="m16.328 111.382 10.153-5.174.692 1.357-10.153 5.175-.692-1.358zM23.379 122.845l4.025-8.743c.349-.748.71-1.386.71-1.386l-.021-.028s-.539.442-1.123.851l-6.784 4.75-.729-1.047 9.334-6.533.922 1.314-3.885 8.4c-.334.74-.62 1.223-.62 1.223l.018.028s.421-.354 1.005-.764l6.512-4.56.732 1.046-9.336 6.534-.76-1.085zM29.441 130.008c-.929-.919-1.529-1.892-1.706-2.558l7.386-7.439c.727.209 1.653.756 2.534 1.631 2.235 2.217 1.799 4.911-.688 7.414-2.473 2.494-5.236 3.228-7.526.952zm7.503-7.697c-.422-.419-.764-.665-1.162-.827l-6.5 6.547c.142.328.447.747.859 1.157 1.633 1.62 3.457 1.028 5.723-1.251 2.205-2.223 2.62-4.098 1.08-5.626zM39.268 138.321c-1.775-1.244-2.046-3.252-.935-4.84l4.677-6.676 1.249.877-4.667 6.658c-.827 1.182-.493 2.404.429 3.051.91.637 2.176.534 3.003-.646l4.666-6.658 1.139.798-4.676 6.673c-1.112 1.586-3.094 2.018-4.885.763zM51.448 145.031l-.788-6.922-.029-.014-2.555 5.313-1.36-.653 4.941-10.269 1.358.652-2.292 4.762.029.014 5.59-3.174 1.432.689-5.804 3.089 1.03 7.259-1.552-.746zM67.029 150.016c-2.132-.4-3.208-2.119-2.853-4.022l1.5-8.012 1.497.281-1.497 7.993c-.263 1.418.546 2.396 1.655 2.603 1.09.203 2.198-.412 2.463-1.832l1.496-7.992 1.368.256-1.499 8.01c-.356 1.905-1.981 3.116-4.13 2.715zM82.423 151.073l-4.785-8.352c-.409-.715-.719-1.382-.719-1.382h-.032s.043.697.037 1.408l-.064 8.282-1.276-.011.092-11.395 1.605.012 4.591 8.039c.405.7.636 1.216.636 1.216h.033s-.044-.549-.04-1.262l.065-7.948 1.274.01-.092 11.394-1.325-.011zM88.819 150.552l-1.473-11.301 1.51-.197 1.477 11.299-1.514.199zM99.067 148.555l-1.279.337-6.154-10.17 1.569-.414 4.066 7.225c.354.643.695 1.359.695 1.359l.034-.01s-.039-.794-.043-1.529l.039-8.297 1.394-.365-.321 11.864zM106.125 146.268l-4.484-10.478 4.857-2.078.404.944-3.458 1.479 1.566 3.654 3.104-1.329.396.928-3.105 1.331 1.716 4.002 3.454-1.479.405.943-4.855 2.083zM119.53 139.323l-5.98-2.551-.028.018 2.797 4.52-1.281.795-5.761-9.313c.334-.594 1.046-1.365 2.085-2.01 2.199-1.359 3.987-.986 5.104.815 1.02 1.647.459 3.358-1.299 4.483l.018.029 5.81 2.307-1.465.907zm-7.723-7.761c-.48.295-.804.592-.969.889l2.51 4.055c.167-.042.543-.218.883-.426 1.578-.979 1.851-2.236.987-3.631-.915-1.479-1.989-1.768-3.411-.887zM126.222 134.497c-.982.838-1.724 1.143-2.424 1.238l-.387-1.064c.501-.076 1.164-.293 1.856-.883.997-.85 1.081-2.031.242-3.012-.655-.771-1.481-.871-2.93-.379-1.944.656-3.098.094-3.818-.752-1.116-1.309-1.139-3.226.375-4.518.792-.676 1.571-.989 2.174-1.045l.347.967a3.453 3.453 0 0 0-1.718.768c-.923.784-.923 1.828-.139 2.75.763.895 1.74.713 2.806.354 2.281-.795 3.395 0 4.048.77 1.289 1.513 1.094 3.507-.432 4.806zM132.042 128.794l-8.353-7.75 1.037-1.117 8.353 7.752-1.037 1.115zM129.836 115.224l8.348 6.148-.903 1.227-8.346-6.149-1.347 1.829-.826-.609 3.595-4.881.824.608-1.345 1.827zM139.064 110.354l4.449 2.387-.721 1.342-4.451-2.388-7.054-.272.775-1.445 5.612.438.016-.03-3.426-4.508.689-1.285 4.111 5.761z"/></g><g fill-rule="evenodd" clip-rule="evenodd"><path fill="#CF989F" d="M42.735 60.58h7.239v6.089h-7.239z"/><path fill="#DCABB3" d="M42.735 54.493h7.239v6.087h-7.239z"/><path fill="#99A2CE" d="M42.735 48.405h7.239v6.088h-7.239z"/><path fill="#DCABB3" d="M49.975 60.58h7.241v6.089h-7.241z"/><path fill="#FFF" d="M49.975 54.493h7.241v6.087h-7.241z"/><path fill="#CF989F" d="M49.975 48.405h7.241v6.088h-7.241z"/><path fill="#99A2CE" d="M57.22 60.58h7.241v6.089H57.22z"/><path fill="#CF989F" d="M57.22 54.493h7.241v6.087H57.22z"/><path fill="#DCABB3" d="M57.22 48.405h7.241v6.088H57.22z"/></g><path fill="#94185B" fill-rule="evenodd" d="M53.474 48.405a9.132 9.132 0 0 0-9.131 9.131 9.133 9.133 0 0 0 18.264 0v-9.131h-9.133z" clip-rule="evenodd"/><g fill-rule="evenodd" clip-rule="evenodd"><path fill="#682F75" d="M62.082 60.58H57.22v5.283a9.139 9.139 0 0 0 4.862-5.283z"/><path fill="#802638" d="M57.216 60.58h-7.241v5.392a9.117 9.117 0 0 0 7.241-.108V60.58z"/><path fill="#562122" d="M49.975 65.972V60.58H44.86a9.168 9.168 0 0 0 5.115 5.392z"/><path fill="#802638" d="M44.343 57.536c0 1.068.183 2.093.518 3.044h5.114v-6.087H44.86a9.132 9.132 0 0 0-.517 3.043z"/><path fill="#682F75" d="M49.975 54.493v-5.39a9.169 9.169 0 0 0-5.114 5.39h5.114z"/><path fill="#562122" d="M49.975 54.493h7.241v-6.088h-3.742a9.043 9.043 0 0 0-3.499.698v5.39z"/><path fill="#802638" d="M57.22 48.405h5.387v6.088H57.22z"/><path fill="#562122" d="M57.22 54.493v6.087h4.862a9.08 9.08 0 0 0 .524-3.044v-3.043H57.22z"/></g><path fill="#FFF" fill-rule="evenodd" d="M49.975 54.493h7.241v6.087h-7.241z" clip-rule="evenodd"/><defs><path id="c" d="M42.735 69.911v35.969H61.33a3.14 3.14 0 0 0 3.131-3.131V69.911H42.735z"/></defs><use xlink:href="#c" fill="#7075B3" overflow="visible"/><clipPath id="d"><use xlink:href="#c" overflow="visible"/></clipPath><g fill-rule="evenodd" clip-path="url(#d)" clip-rule="evenodd"><path fill="#562122" d="M42.735 69.911h7.239v6h-7.239z"/><path fill="#1E3378" d="M49.975 69.911h7.243v6h-7.243z"/><path fill="#802638" d="M57.218 69.911h7.243v6h-7.243zM42.735 75.911h7.239v5.996h-7.239z"/><path fill="#C07682" d="M49.975 75.911h7.243v5.996h-7.243z"/><path fill="#1E3378" d="M57.218 75.911h7.243v5.996h-7.243z"/><path fill="#C07682" d="M42.735 81.907h7.239v5.994h-7.239z"/><path fill="#D393A0" d="M49.975 81.907h7.243v5.994h-7.243z"/><path fill="#7381BB" d="M57.218 81.907h7.243v5.994h-7.243z"/><path fill="#802638" d="M42.735 87.901h7.239v5.99h-7.239z"/><path fill="#8A94C6" d="M49.975 87.901h7.243v5.99h-7.243z"/><path fill="#802638" d="M57.218 87.901h7.243v5.99h-7.243z"/><path fill="#562122" d="M42.735 93.892h7.239v5.996h-7.239z"/><path fill="#C07682" d="M49.975 93.892h7.243v5.996h-7.243z"/><path fill="#562122" d="M57.218 93.892h7.243v5.996h-7.243z"/><path fill="#802638" d="M42.735 99.888h7.239v5.992h-7.239z"/><path fill="#562122" d="M49.975 99.888h7.243v5.992h-7.243z"/><path fill="#802638" d="M57.218 99.888h7.243v5.992h-7.243z"/></g><path fill="#802638" d="M84.363 69.944v12.137H69.954v23.799h18.623a3.139 3.139 0 0 0 3.129-3.131V69.944h-7.343zm0 27.36c0 .861-.705 1.564-1.564 1.564h-5.5v-9.777h7.064v8.213zM118.95 82.081h-7.446v15.223c0 .861-.705 1.564-1.564 1.564h-5.296V82.081h-7.441v23.799h18.613a3.142 3.142 0 0 0 3.135-3.131V82.081z"/><path fill="#3A0007" d="m134.087 33.311 5.738 7.327-4.254 3.332c-.754.591-1.457 1.051-2.107 1.383-.648.33-1.229.537-1.736.619l-1.145-1.461c.558-.092 1.127-.331 1.707-.714.58-.381 1.293-.903 2.137-1.566l3.068-2.403-4.459-5.693 1.051-.824z"/><path fill="#3A0007" d="M131.321 48.882c.29-.226.373-.46.106-.8l-2.364-3.019 4.54-3.557-1.25-1.595-4.54 3.557-.645-.822 4.539-3.557-1.249-1.595-4.541 3.557-1.237-1.58-1.036.812 7.095 9.056.582-.457z"/><path fill="#FFF" d="m134.229 32.694 5.738 7.327-4.254 3.332c-.754.591-1.457 1.051-2.107 1.383-.648.33-1.229.537-1.736.619l-1.145-1.461c.558-.092 1.127-.331 1.707-.714.58-.381 1.293-.903 2.137-1.566l3.068-2.403-4.459-5.693 1.051-.824z"/><path fill="#FFF" d="M131.463 48.266c.29-.226.373-.46.106-.8l-2.364-3.019 4.54-3.557-1.25-1.595-4.54 3.557-.645-.822 4.539-3.557-1.249-1.595-4.541 3.557-1.237-1.58-1.036.812 7.095 9.056.582-.457z"/></svg>