<svg xmlns="http://www.w3.org/2000/svg" width="169.79143mm" height="169.7892mm" viewBox="0 0 169.79143 169.7892"><path d="M69.636 167.412c0 25.18 20.487 45.666 45.67 45.666 25.182 0 45.668-20.486 45.668-45.666 0-25.182-20.486-45.67-45.668-45.67-25.183 0-45.67 20.488-45.67 45.67m1.399 0c0-24.411 19.86-44.27 44.271-44.27 24.409 0 44.269 19.859 44.269 44.27 0 24.407-19.86 44.266-44.269 44.266-24.41 0-44.271-19.86-44.271-44.266z" style="fill:#b01028;fill-opacity:1;fill-rule:nonzero;stroke:none;stroke-width:.352778" transform="matrix(1.85894 0 0 1.85894 -129.45 -226.31)"/><path d="m83.48 177.748-6.858 2.105-.383-1.237 6.86-2.104zM82.855 175.985l-7.055 1.302-.23-1.24 4.244-3.47-4.722.867-.22-1.184 7.056-1.303.236 1.277-4.143 3.415 4.617-.852zM79.185 166.254l.421-1.265c.789.183 1.376.496 1.76.945.388.447.586 1.013.594 1.708.01.857-.308 1.568-.952 2.126-.645.558-1.532.846-2.665.86-1.195.014-2.13-.253-2.796-.8-.67-.546-1.008-1.268-1.02-2.173-.01-.793.243-1.434.758-1.934.299-.297.736-.524 1.31-.676l.365 1.272c-.374.081-.664.25-.879.493-.21.248-.313.544-.313.896.005.477.204.87.588 1.165.386.294 1.008.436 1.865.422.907-.01 1.55-.167 1.934-.465.382-.3.568-.686.564-1.154a1.234 1.234 0 0 0-.378-.89c-.248-.247-.63-.425-1.156-.53zM81.839 164.616l-7.086-1.133.202-1.276 2.797.444.401-2.527-2.797-.439.204-1.285 7.089 1.132-.206 1.28-3.099-.492-.404 2.524 3.102.494zM82.803 158.959l-6.806-2.277 1.514-4.515 1.143.384-1.101 3.286 1.508.507 1.021-3.07 1.147.381-1.026 3.069 1.87.623 1.138-3.41 1.145.386zM80.415 150.045a1.595 1.595 0 0 1 .076-1.438c.256-.47.641-.757 1.151-.856.508-.091 1.127.056 1.852.45.733.393 1.203.84 1.409 1.329a1.55 1.55 0 0 1-.06 1.427c-.244.456-.633.736-1.162.832-.53.1-1.154-.042-1.87-.43-.729-.393-1.194-.834-1.396-1.314m3.579 3.045c.842-.19 1.49-.705 1.946-1.545.449-.832.518-1.654.213-2.462-.31-.808-.976-1.485-1.997-2.037-1.029-.557-1.967-.745-2.813-.553-.852.192-1.5.701-1.949 1.533-.252.461-.388.912-.412 1.355-.018.337.038.68.174 1.047.136.355.33.69.58.992.346.412.84.788 1.482 1.131 1.014.548 1.933.723 2.776.539zM87.478 148.566l-5.605-4.472.784-.988 5.407.925-3.756-2.994.75-.945 5.612 4.476-.811 1.017-5.295-.892 3.666 2.93zM94.068 138.14l1.261-.443c.336.73.444 1.392.327 1.97-.118.581-.445 1.084-.99 1.509-.672.539-1.424.718-2.264.552-.834-.167-1.605-.7-2.307-1.584-.743-.934-1.103-1.835-1.081-2.699.024-.861.391-1.577 1.098-2.135.624-.493 1.283-.688 1.991-.586.423.056.87.266 1.341.62l-.786 1.07c-.29-.245-.6-.375-.925-.397a1.341 1.341 0 0 0-.893.297c-.381.302-.57.695-.568 1.187.002.486.27 1.06.8 1.73.56.712 1.08 1.13 1.551 1.248.47.124.89.035 1.261-.259.27-.214.43-.497.475-.845.048-.349-.05-.76-.29-1.235zM97.086 135.961l-.513-2.756 2.08 1.902-1.567.854m-.717-4.553-1.201.652 1.237 7.496 1.22-.662-.313-1.685 2.277-1.237 1.27 1.157 1.223-.668zM102.836 136.304l-2.106-5.578-1.775.669-.427-1.126 4.77-1.8.422 1.126-1.777.674 2.109 5.586zM105.933 135.146l-1.44-7.034 1.27-.256.566 2.774 2.504-.514-.57-2.767 1.273-.263 1.44 7.03-1.267.258-.633-3.075-2.502.513.627 3.075zM112.955 128.542c.32-.417.748-.63 1.28-.647.542-.014.979.177 1.312.574.337.396.515 1.006.534 1.827.022.834-.129 1.464-.452 1.893a1.577 1.577 0 0 1-1.268.65 1.589 1.589 0 0 1-1.304-.594c-.35-.414-.533-1.02-.552-1.835-.02-.828.13-1.448.45-1.868m-.868 4.62c.58.639 1.352.943 2.306.917.95-.02 1.696-.367 2.244-1.037.547-.669.807-1.58.779-2.746-.03-1.162-.336-2.072-.923-2.716-.586-.641-1.351-.953-2.299-.922-.524.01-.985.123-1.385.313-.297.149-.565.378-.813.665a3.526 3.526 0 0 0-.574 1.002c-.183.507-.263 1.121-.248 1.85.028 1.144.332 2.036.913 2.674zM117.808 133.977l.978-7.034 1.28.177-.805 5.845 3.199.439-.165 1.197zM122.52 134.74l1.689-6.972 1.265.304-1.697 6.975zM129.138 134.066l1.03.853c-.451.664-.956 1.098-1.515 1.3-.553.198-1.155.181-1.803-.052-.807-.304-1.354-.855-1.647-1.658-.29-.804-.243-1.733.152-2.798.416-1.116.996-1.896 1.744-2.325.751-.424 1.551-.482 2.399-.176.74.282 1.25.744 1.534 1.405.168.387.225.874.164 1.468l-1.32-.12c.056-.376.007-.71-.146-.991a1.265 1.265 0 0 0-.718-.611 1.46 1.46 0 0 0-1.306.127c-.413.257-.767.787-1.062 1.587-.316.851-.4 1.508-.26 1.973.144.467.439.776.88.942.323.117.649.108.969-.027.319-.146.62-.441.905-.897zM135.384 132.036l1.083.712-2.144 3.241c-.339.515-.546.858-.621 1.03-.117.271-.133.54-.056.808.079.263.266.496.568.7.31.198.59.286.84.247.247-.039.458-.152.62-.33.169-.187.408-.514.722-.982l2.186-3.322 1.084.716-2.08 3.146c-.474.723-.84 1.212-1.096 1.47a2.064 2.064 0 0 1-.818.538c-.293.1-.613.125-.954.068-.344-.05-.73-.212-1.152-.498-.515-.338-.858-.658-1.04-.97a1.977 1.977 0 0 1-.285-.924 1.942 1.942 0 0 1 .134-.865c.157-.389.455-.923.898-1.594zM136.184 141.21l4.91-5.227.918.86-1.356 5.314 3.289-3.5.875.825-4.909 5.233-.946-.89 1.311-5.21-3.215 3.422zM140.295 145.268l5.476-4.632.835.982-5.469 4.64zM142.469 148.006l4.66-5.909.787 1.163-3.492 4.323 5.293-1.667.773 1.137-7.241 2.105zM144.467 151.043l6.495-3.05 2.028 4.31-1.093.512-1.47-3.141-1.438.68 1.372 2.92-1.093.517-1.375-2.927-1.781.84 1.527 3.252-1.089.513zM152.774 155.428l.274.98c.142.508.218.815.231.918a.765.765 0 0 1-.14.55.942.942 0 0 1-.512.326 1.086 1.086 0 0 1-.56.021.719.719 0 0 1-.39-.27c-.099-.134-.235-.5-.404-1.106l-.258-.923 1.759-.496m-5.75 1.618 2.882-.814.074.254c.08.293.112.507.098.655-.015.14-.077.298-.182.454-.108.159-.385.47-.832.95l-1.251 1.321.423 1.499 1.135-1.13c.454-.46.762-.8.923-1.035.16-.233.291-.508.391-.832.24.518.568.863.982 1.044.414.177.877.195 1.4.044.408-.11.747-.305 1.012-.57.266-.275.419-.577.46-.908.04-.338-.032-.833-.216-1.496l-.74-2.63-6.911 1.94zM150.426 160.73l.285 1.237c-.454.12-.779.319-.97.576-.19.26-.264.581-.222.976.045.417.179.725.394.916.218.189.458.269.713.241a.683.683 0 0 0 .411-.18c.105-.1.193-.27.255-.5.042-.158.106-.517.197-1.069.117-.712.301-1.226.55-1.537a1.98 1.98 0 0 1 1.374-.748c.365-.044.712.01 1.053.166.336.146.611.389.811.716.205.333.33.74.385 1.232.089.808-.042 1.436-.396 1.89-.349.442-.855.715-1.511.803l-.196-1.276c.361-.1.613-.244.754-.445.143-.198.191-.485.153-.848-.045-.378-.163-.665-.357-.857a.534.534 0 0 0-.466-.151.563.563 0 0 0-.413.237c-.139.173-.252.591-.35 1.237-.093.643-.215 1.131-.357 1.451-.145.321-.36.584-.648.79-.287.202-.655.328-1.108.375a2.24 2.24 0 0 1-1.181-.18 1.874 1.874 0 0 1-.888-.78c-.216-.353-.352-.807-.414-1.36-.09-.818.05-1.459.418-1.935.362-.478.942-.807 1.724-.977zM148.615 166.615l7.174-.025.004 1.296-7.175.02-.002-1.29zM148.522 169.941l5.944.575.18-1.885 1.199.109-.49 5.072-1.197-.114.18-1.89-5.942-.577zM147.767 174.89l2.928.732 4.606-1.282-.376 1.493-3.127.771 2.394 2.13-.361 1.452-3.464-3.306-2.92-.735z" style="fill:#b01028;fill-opacity:1;fill-rule:nonzero;stroke:none;stroke-width:.352778" transform="matrix(1.85894 0 0 1.85894 -129.45 -226.31)"/><path d="M91.889 147.989a30.384 30.384 0 0 0-7.029 19.423 30.4 30.4 0 0 0 7.171 19.586c5.764 7.138 14.279 11.244 23.357 11.244 16.68 0 30.25-13.837 30.25-30.844 0-17.009-13.57-30.845-30.25-30.845-9.158 0-17.725 4.169-23.5 11.436zM85.537 187.055c1.007-.575 1.12-2.272.255-3.791-.868-1.516-2.387-2.278-3.394-1.704-1.005.574-1.118 2.268-.25 3.787.867 1.517 2.384 2.281 3.39 1.708m-2.335-4.088c.672-.385 1.56-.092 1.985.649.424.746.223 1.657-.45 2.04-.67.382-1.56.093-1.982-.652-.428-.744-.224-1.652.447-2.037zM87.638 186.568l-4.176 2.39.817 1.43 4.177-2.387zM81.487 185.492l-.819-1.427-1.704.978c-.31.173-.549.343.122 1.515l2.82 4.935.648-.371-2.686-4.704zM94.15 193.924l-1.112 1.2-.96-.886-.477.514.958.89-1.682 1.812 1.197 1.107 3.27-3.528zM88.094 194.869l-1.203-1.115s-1.1 1.182-1.34 1.444c-.24.256-.416.486.574 1.408l4.168 3.864.51-.552-3.977-3.682z" style="fill:#b01028;fill-opacity:1;fill-rule:nonzero;stroke:none;stroke-width:.352778" transform="matrix(1.85894 0 0 1.85894 -129.45 -226.31)"/><path d="m87.505 193.428 2.799-.85-.655 2.834 1.204 1.122.699-3.74 1.472 1.364.468-.507-1.738-1.616.424-.456-1.165-1.085-.43.46-1.661-1.542-.47.506 1.47 1.366-3.528 1.105zM103.617 201.164l-.877-.456.755-1.452-1.453-.753-3.418 6.587 1.456.752 2.338-4.507.874.453zM95.802 196.33l3.707 1.923-1.729 3.339 1.45.753 2.052-3.959-5.158-2.68zM151.3 184.982l-1.53 2.52-3.431-2.084-.861 1.41 3.43 2.084-.326.538-3.43-2.087-.858 1.414 3.43 2.086-.714 1.172.67.404 4.287-7.05z" style="fill:#b01028;fill-opacity:1;fill-rule:nonzero;stroke:none;stroke-width:.352778" transform="matrix(1.85894 0 0 1.85894 -129.45 -226.31)"/><path d="m145.312 183.8 4.225 2.574.862-1.417-4.829-2.933-3.81 6.264.603.364zM109.858 203.992l.1-.7 2.798.391.067-.46-5.694-.797.078-.553 5.743.801.062-.457-5.741-.803.07-.518 5.76.807.068-.492-7.381-1.035-.28 1.999c-.035.262.18.549 1.194.69l1.594.223-.09.67-3.753-.525-.074.54 8.84 1.235.078-.54zM105.147 204.997l5.692.798-.073.534-5.725-.801s-.096.696-.163 1.159c-.064.468.195.712 1.044.83l6.234.873.064-.481-5.723-.8.117-.857 5.729.797.213-1.532-7.336-1.023zM121.587 200.448l.366 2.931-4.64.583-.12-.956 4-.502-.227-1.808-5.64.705.07.539 3.995-.5.091.705-3.999.503s.15 1.202.195 1.548c.044.348.44.65 1.04.574l5.325-.668.06.468 1.646-.207-.517-4.124zM116.723 206.517l5.502-.688.248 1.985 1.657-.213-.327-2.611-7.157.893zM131.236 197.104l.707 1.475-.592.283-.704-1.474-1.497.715 1.737 3.622-2.634 1.264-1.375-2.869 2.054-.98-.285-.594-3.56 1.7 1.565 3.27c.313.646.79.62 1.633.217.75-.362 2.991-1.435 2.898-1.388l1.174 2.452 1.494-.718-2.17-4.533.592-.282 2.17 4.535 1.506-.726-3.207-6.688zM141.583 191.465l-1.119-1.207-1.217 1.126 2.82 3.054 1.219-1.128-1.234-1.334.91-.84-.473-.51zM138.818 199.162l4.145-3.828 1.357 1.466 1.224-1.133-1.788-1.935-5.37 4.96zM140.295 193.402c-.367-.4-.97-.502-1.64-.35l.765-.715-.436-.472-1.731 1.602-.35-.38-1.21 1.116.353.377-1.712 1.581.44.472.882-.814c-.203.655-.144 1.263.221 1.66.7.763 2.261.465 3.482-.66 1.218-1.13 1.638-2.661.936-3.417m-3.186 2.942c-.477-.521-.428-1.346.11-1.843.54-.499 1.363-.478 1.841.038.483.519.438 1.344-.104 1.842-.538.497-1.366.48-1.847-.037z" style="fill:#b01028;fill-opacity:1;fill-rule:nonzero;stroke:none;stroke-width:.352778" transform="matrix(1.85894 0 0 1.85894 -129.45 -226.31)"/><path d="m101.418 154.992 1.392 5.806 1.39-5.806 5.725 1.706-4.335-4.115 4.335-4.104-5.725 1.698-1.39-5.803-1.392 5.803-5.721-1.698 4.33 4.104-4.33 4.115 5.72-1.706m-2.96-4.908 3.524 1.54.48-2.878.506 2.879 2.031-.604-1.538 1.46 1.538 1.454-2.031-.599-.49 2.056-.496-2.056-2.5.954 2.004-1.81-3.029-2.396m22.684 17.31c0 .708.577 1.285 1.285 1.285a1.284 1.284 0 1 0-1.285-1.285z" style="fill:#fff;fill-opacity:1;fill-rule:nonzero;stroke:none;stroke-width:.352778" transform="matrix(1.85894 0 0 1.85894 -129.45 -226.31)"/><path d="M129.582 177.15c-1.337.53-2.45 1.342-3.555 2.218 3.203-5.548 5.897-17.405 5.897-17.405h-8.49v-5.08h3.723v-1.818h-3.724v-3.15h-2.272v3.15h-3.724v1.817h3.724v5.081h-7.602s3.972 15.721 6.994 17.306c2.367 1.244 3.35-9.804 3.35-9.804h-2.944s.13 8.107-.701 7.353c-.917-.835-3.027-11.623-3.027-11.623l10.398-.047s-2.847 16.1-6.518 15.654c-3.674-.45-7-8.551-11.814-6.568-3.57 1.47-6.798 6.95-11 6.688-2.795-.173-2.933-3.4-2.933-3.4s-3.433 6.643 2.876 5.426c3.058-.59 7.316-5.012 11.434-5.872 3.791-.787 5.319 2.724 7.763 4.756-2.393-1.454-4.753-3.984-7.11-3.584-3.457.59-5.371 3.638-9.448 6.668-2.338 1.735-4.207.8-4.678.487.016.01 1.845 4.532 6.78 1.804 1.953-1.084 5.122-4.368 7.19-4.232 2.486.16 4.538 7.228 8.871 7.228 3.162 0 5.746-4.31 6.167-6.262 0 0-1.759 3.543-5.153 3.586-3.237.038-6.518-6.157-9.99-6.126-1.5.01-2.91.736-4.51 1.942 1.42-1.376 2.727-2.97 4.562-3.257 3.251-.516 7.677 5.62 11.006 4.881 4.602-1.026 5.356-4.71 8.712-5.71 5.865-1.756 5.55 6.356 1.995 7.89-4.148 1.788-5.008-2.22-3.64-3.494.006-.005.012-.007.017-.01-.055.188-.086.392-.086.602 0 1.133.827 2.051 1.841 2.051.525 0 1.001-.25 1.336-.648.017-.018.034-.04.052-.06.021-.032.047-.064.07-.098.839-1.185 1.083-4.002-1.283-4.186-3.549-.278-6.145 6.093-2.613 7.603 3.42 1.47 7.987-2.156 9.046-5.5 1.17-3.695-2.461-8.065-6.989-6.257z" style="fill:#fff;fill-opacity:1;fill-rule:nonzero;stroke:none;stroke-width:.352778" transform="matrix(1.85894 0 0 1.85894 -129.45 -226.31)"/></svg>