<svg xmlns="http://www.w3.org/2000/svg" width="481.35278mm" height="77.256218mm" viewBox="0 0 481.35278 77.256218"><g style="stroke-width:.194083"><g style="stroke-width:.194083"><path d="M0 0h-16.986v6.404h-4.808V-4.151H0Z" style="fill:#000;fill-opacity:1;fill-rule:nonzero;stroke:none;stroke-width:.194083" transform="matrix(1.81767 0 0 -1.81767 313.61 22.585)"/></g><g style="stroke-width:.194083"><path d="M0 0a4.96 4.96 0 0 0 4.953-4.954A4.96 4.96 0 0 0 0-9.907a4.96 4.96 0 0 0-4.953 4.953A4.96 4.96 0 0 0 0 0m-12.432 0h4.415a9.4 9.4 0 0 1-1.415-4.954A9.43 9.43 0 0 1 0-14.387c5.209 0 9.432 4.223 9.432 9.433A9.4 9.4 0 0 1 8.016 0h4.416v4.15h-24.864z" style="fill:#000;fill-opacity:1;fill-rule:nonzero;stroke:none;stroke-width:.194083" transform="matrix(1.81767 0 0 -1.81767 293.802 41.708)"/></g><g style="stroke-width:.194083"><path d="M0 0h-2.038v7.478h-4.284v-29.704h4.284V-4.15H0v-18.076h4.284V7.478H0Z" style="fill:#000;fill-opacity:1;fill-rule:nonzero;stroke:none;stroke-width:.194083" transform="matrix(1.81767 0 0 -1.81767 251.799 24.537)"/></g><g style="stroke-width:.194083"><path d="M0 0v4.15h-11.9V0h3.608l-4.613-15.444h4.369l2.586 9.565 2.587-9.565h4.37L-3.607 0Z" style="fill:#000;fill-opacity:1;fill-rule:nonzero;stroke:none;stroke-width:.194083" transform="matrix(1.81767 0 0 -1.81767 237.79 19.857)"/></g><g style="stroke-width:.194083"><path d="M0 0h-2.039v7.478h-4.283v-29.704h4.283V-4.15H0v-18.076h4.284V7.478H0Z" style="fill:#000;fill-opacity:1;fill-rule:nonzero;stroke:none;stroke-width:.194083" transform="matrix(1.81767 0 0 -1.81767 362.905 24.537)"/></g><g style="stroke-width:.194083"><path d="M0 0h-4.809v-17.631H0v7.469h3.177v4.152H0Z" style="fill:#000;fill-opacity:1;fill-rule:nonzero;stroke:none;stroke-width:.194083" transform="matrix(1.81767 0 0 -1.81767 424.644 10.946)"/></g><g style="stroke-width:.194083"><path d="M0 0a3.386 3.386 0 0 0 3.382 3.383A3.386 3.386 0 0 0 6.763 0a3.386 3.386 0 0 0-3.381-3.382A3.386 3.386 0 0 0 0 0m11.242 0a7.8 7.8 0 0 1-1.202 4.163h1.529v4.15H5.785v1.96H.978v-1.96h-5.785v-4.15h1.529A7.8 7.8 0 0 1-4.479 0a7.861 7.861 0 0 1 15.721 0" style="fill:#000;fill-opacity:1;fill-rule:nonzero;stroke:none;stroke-width:.194083" transform="matrix(1.81767 0 0 -1.81767 391.047 28.49)"/></g><g style="stroke-width:.194083"><path d="M0 0h15.638v-5.971h4.809V4.15H0Z" style="fill:#000;fill-opacity:1;fill-rule:nonzero;stroke:none;stroke-width:.194083" transform="matrix(1.81767 0 0 -1.81767 387.478 54.084)"/></g><g style="stroke-width:.194083"><path d="M0 0v24.05h-21.191v-4.151h16.383V0H-7.61v12.554h-4.808V0h-2.098v12.554h-4.809V0h-3.703v-4.15H1.838V0Z" style="fill:#000;fill-opacity:1;fill-rule:nonzero;stroke:none;stroke-width:.194083" transform="matrix(1.81767 0 0 -1.81767 478.012 56.026)"/></g><g style="stroke-width:.194083"><path d="M0 0h11.507v4.15H4.808v11.192h6.699v4.15H0Z" style="fill:#000;fill-opacity:1;fill-rule:nonzero;stroke:none;stroke-width:.194083" transform="matrix(1.81767 0 0 -1.81767 326.827 47.728)"/></g><g style="stroke-width:.194083"><path d="M0 0v-6.34h-12.117v-5.218H-.426V-17.9h-11.691v-5.367H0v-6.341h-19.758V0Z" style="fill:#e60013;fill-opacity:1;fill-rule:nonzero;stroke:none;stroke-width:.194083" transform="matrix(1.81767 0 0 -1.81767 80.32 11.057)"/></g><g style="stroke-width:.194083"><path d="m0 0 7.638-.002v-29.607H0Z" style="fill:#e60013;fill-opacity:1;fill-rule:nonzero;stroke:none;stroke-width:.194083" transform="matrix(1.81767 0 0 -1.81767 86.84 11.057)"/></g><g style="stroke-width:.194083"><path d="M0 0h7.639v-21.026c0-5.14-3.923-9.311-10.261-9.311-6.336 0-10.259 4.171-10.259 9.311v2.557h7.638v-2.557a2.614 2.614 0 0 1 2.621-2.612A2.614 2.614 0 0 1 0-21.026z" style="fill:#e60013;fill-opacity:1;fill-rule:nonzero;stroke:none;stroke-width:.194083" transform="matrix(1.81767 0 0 -1.81767 23.413 11.057)"/></g><g style="stroke-width:.194083"><path d="M0 0v-27.293a3.046 3.046 0 0 1 3.043-3.042 3.047 3.047 0 0 1 3.041 3.044v21.207h6.084v-21.207c0-5.035-4.094-9.128-9.125-9.128-5.032 0-9.127 4.093-9.127 9.126V0h-18.253v-27.292h.001c0-8.401 6.81-15.211 15.21-15.211 1.042 0 2.059.106 3.042.305-6.942 1.41-12.168 7.546-12.168 14.905v.001h-.001v21.208h6.085v-21.208c0-8.401 6.81-15.211 15.211-15.211 8.399 0 15.209 6.81 15.209 15.21V0Z" style="fill:#eb6100;fill-opacity:1;fill-rule:nonzero;stroke:none;stroke-width:.194083" transform="matrix(1.81767 0 0 -1.81767 158.846 0)"/></g></g></svg>