<svg xmlns="http://www.w3.org/2000/svg" xml:space="preserve" width="800.03387" height="800" viewBox="0 0 800.03388 800"><path d="M363.368 545.839c-165.68 0-300.012-134.307-300.012-299.982 0-165.69 134.332-300.018 300.012-300.018 165.676 0 300.013 134.328 300.013 300.018 0 165.675-134.337 299.982-300.013 299.982" style="fill:#231f20;fill-opacity:1;fill-rule:nonzero;stroke:none;stroke-width:.17534" transform="matrix(1.33333 0 0 -1.33333 -84.474 727.785)"/><path d="M363.368-41.989c-158.975 0-287.86 128.88-287.86 287.846 0 158.967 128.885 287.836 287.86 287.836 158.989 0 287.855-128.87 287.855-287.836S522.357-41.989 363.368-41.989z" style="fill:#fff;fill-opacity:1;fill-rule:nonzero;stroke:none;stroke-width:.17534" transform="matrix(1.33333 0 0 -1.33333 -84.474 727.785)"/><path d="m363.366 427.129-5.604-4.242c-20.548-15.55-46.96-27.605-76.378-34.859-13.441-3.316-26.972-5.465-40.214-6.393l-8.637-.603V161.533c0-18.056 3.836-32.748 11.402-43.668 5.753-8.3 11.77-11.541 13.387-12.302L359.292 55.8l4.074-1.986 4.071 1.986 101.973 49.762c1.616.76 7.636 4.001 13.387 12.302 7.566 10.92 11.402 25.612 11.402 43.668v219.499l-8.637.603c-13.243.928-26.774 3.077-40.216 6.393-29.418 7.254-55.828 19.308-76.376 34.86zm0-11.646c20.634-15.616 48.211-28.693 79.759-36.47 14.265-3.52 28.313-5.698 41.788-6.641V161.533c0-38.894-19.5-47.589-19.5-47.589L363.367 64.146l-102.048 49.798s-19.5 8.695-19.5 47.59v210.838c13.476.943 27.524 3.121 41.79 6.64 31.547 7.778 59.124 20.855 79.758 36.47" style="fill:#231f20;fill-opacity:1;fill-rule:nonzero;stroke:none;stroke-width:.17534" transform="matrix(1.33333 0 0 -1.33333 -84.474 727.785)"/><path d="M318.952 337.216c-1.045 2.773-1.574 5.729-1.574 8.787v2.602h5.527v4.287h-16.18v-4.287h5.735v-2.602c0-3.195-.563-6.2-1.677-8.932-1.111-2.721-3.184-5.329-6.16-7.75l-.134-.109 3.424-2.807.083-.067.087.062c1.63 1.182 3.12 2.696 4.42 4.502 1.167 1.624 1.989 3.155 2.452 4.558.412-1.368 1.178-2.829 2.277-4.345 1.226-1.694 2.576-3.093 4.016-4.165l.094-.068 3.081 2.861.116.11-.125.1c-2.582 2.056-4.42 4.498-5.461 7.263M333.72 318.42h4.665v37.088h-4.665V318.42" style="fill:#231f20;fill-opacity:1;fill-rule:nonzero;stroke:none;stroke-width:.17534" transform="matrix(1.33333 0 0 -1.33333 -84.474 727.785)"/><path d="M326.043 344.37h-5.4v-4.54h5.4v-21.41h4.624v37.037h-4.624V344.37M359.198 331.756c-1.678-.194-3.147-.293-4.371-.293h-2.984v17.228h8.988v4.243h-13.905v-25.928l6.677.044c1.426 0 3.125.1 5.053.295 1.95.194 3.512.452 4.645.762l.039.01.02.204v4.105l-.17-.039c-.99-.226-2.335-.436-3.992-.63M372.868 342.431h-3.307v13.033h-4.708V318.42h4.708v19.514h3.307V318.42h4.665v37.088h-4.665V342.43M450.354 340.662l-.095-1.424c-.174-2.69-.358-5.469-.74-7.729l-.028-.161h4.97l.018.115c.418 2.699.632 6.115.84 9.418.018.261.034.524.051.786.016.271.035.541.051.811.25 3.882.407 7.49.463 10.722l.003.144h-27.285v-4.371h22.067c-.004-2.497-.11-5.292-.316-8.311" style="fill:#231f20;fill-opacity:1;fill-rule:nonzero;stroke:none;stroke-width:.17534" transform="matrix(1.33333 0 0 -1.33333 -84.474 727.785)"/><path d="M447.487 325.697v12.824h-4.836v-12.824h-4.292v12.824h-4.836v-12.824h-8.285v-4.33h35.29v4.33h-13.041M415.708 355.578h-4.932l.002-22.694h4.93v8.818h4.98v4.427h-4.98v9.449M406.801 352.413h-8.006v3.896h-5.046v-3.896h-8.388v-4.117h21.44v4.117M391.433 340.102c0 .97.471 1.805 1.397 2.482.94.682 2.102 1.029 3.458 1.029 1.353 0 2.516-.347 3.457-1.03.926-.673 1.394-1.51 1.394-2.48 0-.946-.468-1.768-1.393-2.441-.944-.682-2.106-1.028-3.458-1.028-1.354 0-2.518.346-3.458 1.028-.926.675-1.397 1.497-1.397 2.44zm11.712-5.354c1.91 1.465 2.878 3.296 2.878 5.442 0 2.145-.968 3.977-2.878 5.444-1.897 1.46-4.218 2.2-6.903 2.2-2.684 0-5.006-.74-6.901-2.2-1.91-1.467-2.877-3.3-2.877-5.444 0-2.146.967-3.977 2.877-5.442 1.897-1.46 4.219-2.2 6.901-2.2 2.685 0 5.006.74 6.903 2.2M297.217 355.457h-4.948v-26.813h4.948v26.813M271.178 344.858c0 1.473.519 2.753 1.543 3.803 1.022 1.048 2.258 1.58 3.673 1.58 1.443 0 2.686-.532 3.696-1.58 1.012-1.052 1.524-2.33 1.524-3.803 0-1.503-.512-2.79-1.524-3.828-1.008-1.036-2.251-1.562-3.696-1.562-1.417 0-2.655.526-3.675 1.564-1.022 1.034-1.541 2.323-1.541 3.826zm12.42-6.995c1.98 1.922 2.985 4.275 2.985 6.995 0 2.714-1.005 5.067-2.984 6.989-1.978 1.92-4.401 2.895-7.205 2.895-2.8 0-5.223-.975-7.203-2.895-1.98-1.924-2.984-4.275-2.984-6.99 0-2.717 1.005-5.07 2.984-6.994 1.978-1.92 4.403-2.894 7.203-2.894 2.805 0 5.229.974 7.205 2.894M277.732 331.393h-5.043V318.36h25.203v4.344h-20.16v8.69M390.898 325.747h19.584v-7.327h5.102v11.628h-24.686v-4.3M330.776 301.203V237.98H351.7v42.312h12.005c11.303 0 10.277-10.267 10.277-10.267v-4.302h20.06v14.569s-.855 20.912-22.476 20.912h-40.791" style="fill:#231f20;fill-opacity:1;fill-rule:nonzero;stroke:none;stroke-width:.17534" transform="matrix(1.33333 0 0 -1.33333 -84.474 727.785)"/><path d="M374.163 237.047h42.317v-12.018c0-11.296-10.3-10.258-10.3-10.258h-4.27v-20.09h14.57s20.951.852 20.951 22.479v40.8h-63.268v-20.913" style="fill:#231f20;fill-opacity:1;fill-rule:nonzero;stroke:none;stroke-width:.17534" transform="matrix(1.33333 0 0 -1.33333 -84.474 727.785)"/><path d="M394.897 215.667h-20.914v-42.335h-12.01c-11.316 0-10.272 10.282-10.272 10.282v4.285h-20.073v-14.567s.868-20.927 22.466-20.927h40.803v63.262" style="fill:#231f20;fill-opacity:1;fill-rule:nonzero;stroke:none;stroke-width:.17534" transform="matrix(1.33333 0 0 -1.33333 -84.474 727.785)"/><path d="M288.43 194.681h63.286v20.946h-42.355v11.976c0 11.304 10.314 10.268 10.314 10.268h4.26v20.088h-14.574s-20.932-.866-20.932-22.441V194.68M293.26 143.673l-5.106 2.421-12.4-26.14-.282-.597 5.104-2.422 12.4 26.138.284.6M318.437 131.676l-4.764 2.26-8.467-17.85.342 21.001.016.698-6.067 2.876-12.402-26.138-.282-.6 4.757-2.257 8.598 18.13-.331-21.35-.014-.695 5.93-2.812 12.4 26.138.284.6M336.122 122.757l-5.103 2.421-8.41-17.728c-1.65-3.477-2.697-4.764-4.936-3.704-1.549.735-1.584 1.794-.158 4.924.103.23.207.456.298.668l.42.957-5.216 2.474-.463-.978c-.976-2.059-2.083-4.392-1.835-6.814.3-2.768 2.703-4.837 4.669-5.77 1.566-.744 3.058-1.12 4.436-1.12.792 0 1.557.124 2.272.371 1.982.68 3.57 2.253 4.72 4.68l9.023 19.019.283.6M329.336 93.401l-.282-.601 14.923-7.079 2.227 4.694-9.82 4.66 3.148 6.634 8.927-4.235 2.226 4.696-8.926 4.233 2.856 6.02 9.616-4.561 2.227 4.695-14.72 6.982-12.402-26.138M386.73 120.916l-5.09-2.441 8.053-16.803c1.145-2.388 1.573-4.13 1.305-5.327-.212-.954-.842-1.604-2.174-2.244-1.331-.637-2.23-.722-3.11-.29-1.097.544-2.187 1.966-3.332 4.356l-8.057 16.801-5.094-2.442 7.99-16.668c1.731-3.61 3.66-5.874 5.897-6.92a7.21 7.21 0 0 1 3.076-.676c1.486 0 3.064.412 4.827 1.257 3.035 1.456 4.804 3.353 5.402 5.8.587 2.397.03 5.319-1.703 8.93l-7.99 16.667M406.787 130.49l8.54-17.814-16.639 13.931-6.049-2.9 12.795-26.685 4.751 2.278-8.672 18.086 16.373-13.69.531-.45 5.92 2.838-12.795 26.686-4.755-2.28M416.904 135.962l12.795-26.685 5.093 2.442-12.794 26.687-5.094-2.444M445.535 148.092l-.224 1.427-5.276-2.529 4.066-21.47-14.083 16.668-5.467-2.62 19.976-22.377.539-.608 5.23 2.506-4.76 29.003" style="fill:#231f20;fill-opacity:1;fill-rule:nonzero;stroke:none;stroke-width:.17534" transform="matrix(1.33333 0 0 -1.33333 -84.474 727.785)"/><path d="M363.366 460.385c-28.96 0-57.063-5.674-83.521-16.864a214.582 214.582 0 0 1-36.45-19.785 215.777 215.777 0 0 1-57.94-57.936 214.582 214.582 0 0 1-19.784-36.444c-11.19-26.45-16.866-54.545-16.866-83.499 0-28.96 5.675-57.059 16.866-83.51a214.5 214.5 0 0 1 19.783-36.443 216.026 216.026 0 0 1 26.194-31.74 215.87 215.87 0 0 1 31.749-26.19 214.604 214.604 0 0 1 36.45-19.779c26.458-11.188 54.558-16.859 83.519-16.859 28.954 0 57.05 5.67 83.506 16.86a214.626 214.626 0 0 1 36.442 19.78 215.84 215.84 0 0 1 31.742 26.188 216.033 216.033 0 0 1 26.192 31.74 214.46 214.46 0 0 1 19.782 36.444c11.188 26.452 16.862 54.55 16.862 83.51 0 28.951-5.674 57.046-16.862 83.498a214.47 214.47 0 0 1-19.782 36.444 216.16 216.16 0 0 1-26.19 31.744 216.033 216.033 0 0 1-31.742 26.192 214.667 214.667 0 0 1-36.444 19.785c-26.454 11.19-54.55 16.864-83.506 16.864zm0-9.286c27.705 0 54.583-5.426 79.887-16.13a205.282 205.282 0 0 0 34.862-18.927 206.712 206.712 0 0 0 30.376-25.065 206.688 206.688 0 0 0 25.061-30.376 205.167 205.167 0 0 0 18.925-34.864c10.704-25.302 16.13-52.176 16.13-79.88 0-27.709-5.426-54.588-16.13-79.891a205.152 205.152 0 0 0-18.925-34.863 206.66 206.66 0 0 0-25.06-30.372 206.565 206.565 0 0 0-30.377-25.06 205.142 205.142 0 0 0-34.862-18.923c-25.304-10.7-52.18-16.127-79.887-16.127-27.712 0-54.595 5.426-79.902 16.127a205.139 205.139 0 0 0-34.87 18.923 206.516 206.516 0 0 0-30.381 25.06 206.794 206.794 0 0 0-25.065 30.372 205.405 205.405 0 0 0-18.926 34.863c-10.705 25.301-16.13 52.182-16.13 79.891 0 27.704 5.425 54.578 16.13 79.88a205.42 205.42 0 0 0 18.926 34.864 206.823 206.823 0 0 0 25.065 30.376 206.663 206.663 0 0 0 30.381 25.065 205.279 205.279 0 0 0 34.87 18.926c25.307 10.705 52.19 16.131 79.902 16.131M240.996 48.76l-4.478 3.37-5.221-6.942-6.327 4.76-2.961-3.936 6.326-4.758-6.228-8.282-.109-.142 4.48-3.37 14.412 19.158.106.142" style="fill:#231f20;fill-opacity:1;fill-rule:nonzero;stroke:none;stroke-width:.17534" transform="matrix(1.33333 0 0 -1.33333 -84.474 727.785)"/><path d="M200.291 50.757c1.678-.523 4.656-1.08 7.524-.922 2.494.105 4.182.38 5.41.885-.05-1.481.243-3.349.802-5.06.94-2.872 1.8-4.415 2.59-5.655l.076-.117 5.234 1.781-.148.196c-1.502 2.017-2.486 4.414-2.92 7.126-.37 2.387.297 4.826 1.113 5.91l.355.473 6.11-4.598 3.015 4.009-16.843 12.671-.144.107-3.016-4.008 6.11-4.597-.355-.47c-.698-.928-2.698-2.622-5.77-3.09-2.902-.471-6.928.242-9.44 1.101l-.257.088.437-5.795.117-.035M216.894 26.194c-.803-1.065-2.407-.91-3.612-.593-1.788.473-3.912 1.608-6.14 3.286-2.25 1.692-3.935 3.43-4.871 5.025-.896 1.527-1.031 2.784-.393 3.635 1.357 1.804 5.183.745 9.753-2.693 4.499-3.384 6.613-6.865 5.263-8.66zm5.332 3.543c-1.281 2.87-4 5.923-7.86 8.829-3.838 2.887-7.524 4.644-10.657 5.08-3.018.42-5.392-.381-6.85-2.322-1.477-1.962-1.59-4.457-.325-7.219 1.294-2.83 4.019-5.862 7.881-8.767 3.87-2.91 7.547-4.687 10.633-5.141.535-.077 1.05-.117 1.543-.117 2.267 0 4.073.825 5.28 2.428 1.47 1.957 1.593 4.455.355 7.23M265.684 9.533l-.077-.161 5.055-2.42 10.29 21.5.078.161-5.055 2.42-10.29-21.5M241.19 21.032c1.618.007 3.832.015 6.434.6 2.213.494 4.077 1.242 5.541 2.23.566-1.994 1.177-3.532 2.023-5.105 1.324-2.396 2.268-3.552 3.45-4.734l.09-.09 4.956 2.475-.183.174c-1.57 1.499-2.607 2.777-3.922 5.603-1.273 2.795-1.27 5.688.012 8.368l.1.205 6.937-3.32 2.165 4.524-19.012 9.1-.161.076-2.166-4.524 6.896-3.3-.098-.207c-1.341-2.8-3.705-4.85-6.484-5.621-2.86-.773-5.516-1.068-8.365-.93l-.26.015 1.808-5.541.238.002M242.706 18.624 240.54 14.1l22.114-10.586-4.061-8.488-.08-.16 5.056-2.419 6.228 13.014.077.16-27.007 12.927-.16.077M331.89 2.297c1.035-1.88 2.096-3.134 3.451-4.524 1.924-1.989 4.358-3.65 5.918-4.417l.118-.058 3.675 3.875-.216.107c-2.574 1.287-4.852 3.162-6.77 5.567-1.858 2.436-2.62 5.411-2.265 8.84l.307 2.97-5.892.61-.307-2.969c-.382-3.705-1.669-6.382-4.17-8.683-2.094-1.946-5.087-3.78-8.005-4.908l-.23-.087 3.556-4.32.123.052c2.053.889 3.612 1.688 5.972 3.361 1.913 1.357 3.505 2.9 4.734 4.584M345-20.389c-1.798-.515-4.22-.64-7-.35-2.806.289-5.162.911-6.812 1.798-1.103.595-2.392 1.582-2.253 2.916.14 1.372 1.6 2.066 2.8 2.404 1.113.316 2.495.472 4.08.472.919 0 1.908-.053 2.953-.16 2.798-.289 5.144-.9 6.782-1.764 1.12-.589 2.425-1.581 2.283-2.95-.137-1.324-1.615-2.017-2.832-2.366zm-5.789 11.804c-4.767.493-8.832.074-11.76-1.212-2.768-1.215-4.43-3.201-4.678-5.591-.252-2.451.936-4.671 3.439-6.42 2.58-1.8 6.477-3.017 11.269-3.511 1.364-.14 2.66-.209 3.883-.209 7.391 0 12.088 2.516 12.542 6.92.53 5.112-5.239 9.045-14.695 10.023" style="fill:#231f20;fill-opacity:1;fill-rule:nonzero;stroke:none;stroke-width:.17534" transform="matrix(1.33333 0 0 -1.33333 -84.474 727.785)"/><path d="m350.347 7.183-7.92.82-.538-5.217 7.92-.817-1.168-11.3-.02-.176 5.576-.577 2.432 23.53.018.18-5.574.574-.726-7.017M402.998-4.435l-1.866 21.043-5.584-.495 1.865-21.044 5.585.496M381.075-20.51l-.18 2.032 22.894 2.076.179.016-.95 10.722-28.8-2.555-.177-.015.4-4.503 23.03 2.044.18-2.034-22.853-2.028-.179-.014.956-10.766 29.788 2.64.177.018-.401 4.545-24.064-2.178M379.157 1.53c1.247-1.25 2.632-2.32 4.338-3.345 2.027-1.192 4.035-2.034 6.132-2.57l.124-.03 2.925 4.513-.247.058c-2.4.556-4.59 1.548-6.895 3.128-2.484 1.729-3.998 4.304-4.259 7.25l-.293 3.288-5.898-.525.291-3.287c.261-2.935-.705-5.848-2.716-8.197-1.866-2.187-4.047-3.928-6.865-5.478l-.23-.128 4.321-3.615.11.064c2.117 1.27 3.898 2.594 5.443 4.047 1.845 1.734 3.063 3.314 3.72 4.827M464.228-.442l-3.566 7.823-.074.162-5.142-2.345 5.572-12.222.075-.162 28.072 12.797.162.073-2.006 4.4L464.228-.443M485.755 22.354l-2.024 4.441-6.098-2.78-.014.071a208.75 208.75 0 0 1-1.611 6.666c-.647 2.382-2.176 7.72-2.764 9.015l-.073.161-28.609-13.042-.163-.075 2.045-4.48 22.87 10.424c1.088-3.279 2.631-8.827 3.171-11.087l-25.142-11.46-.163-.075 2.027-4.44 36.387 16.585.16.076M531.001 39.497l-20.09-14.536-4.88 6.745-4.725-3.417 7.769-10.738 24.814 17.953-2.888 3.993M505.15 50.063l6.713 4.858 1.911-2.644-6.712-4.858zm-7.455-14.168-6.128 8.474 7.114 5.148 6.13-8.472zm12.255 7.533 6.712 4.858 6.046-8.36 4.543 3.288-16.971 23.459-.106.143-4.543-3.286 3.342-4.62-6.712-4.855-1.988 2.75L484.11 45.11l11.855-16.384.103-.143 16.163 11.693-2.281 3.15M119.114 184.1s25.107 18.46 14.101 57.167c0 0-16.817-9.228-17.778-33.299-8.103 22.691-26.935 26.415-26.935 26.415 1.13-40.217 30.612-50.284 30.612-50.284M140.74 191.9s-14.37-12.708-10.018-36.41c-12.913 20.347-32.118 19.888-32.118 19.888 9.945-38.983 40.913-42.338 40.913-42.338s20.445 23.505 1.224 58.86M155.69 106.455c-16.275 17.745-35.112 13.924-35.112 13.924 16.656-36.656 47.74-34.507 47.74-34.507s15.982 26.782-9.177 58.195c0 0-11.916-15.049-3.45-37.612M607.623 184.1s-25.107 18.46-14.103 57.167c0 0 16.817-9.228 17.78-33.299 8.102 22.691 26.934 26.415 26.934 26.415-1.13-40.217-30.611-50.284-30.611-50.284M585.995 191.9s14.372-12.708 10.019-36.41c12.912 20.347 32.117 19.888 32.117 19.888-9.942-38.983-40.914-42.338-40.914-42.338s-20.443 23.505-1.222 58.86M571.047 106.455c16.275 17.745 35.11 13.924 35.11 13.924-16.655-36.656-47.738-34.507-47.738-34.507s-15.984 26.782 9.176 58.195c0 0 11.916-15.049 3.452-37.612M304.836 2.807a5.718 5.718 0 1 0-5.718 5.718 5.718 5.718 0 0 0 5.718-5.718M433.335 2.807a5.718 5.718 0 1 0-5.718 5.718 5.718 5.718 0 0 0 5.718-5.718M103.935 319.369l-1.2-4.545.162-.051c1.74-.563 3.216-2.25 3.773-3.62.751-1.988.828-4.144.229-6.413l-.046-.172 4.749-1.257 1.988 7.522 25.162-6.65.174-.044 1.478 5.59-36.296 9.592-.173.047M130.696 337.325c-.69-1.74-2.027-3.03-3.769-3.635-1.74-.605-3.796-.501-5.79.29-4.134 1.637-6.017 5.316-4.58 8.945.733 1.847 2.037 3.151 3.77 3.772a6.907 6.907 0 0 0 2.345.396c1.085 0 2.227-.231 3.387-.69 1.996-.791 3.562-2.113 4.409-3.725.876-1.666.955-3.517.228-5.353zm13.35 7.885c-4.16 3.768-13.193 7.536-18.588 7.754-6.653.42-11.584-2.502-13.857-8.24-2.64-6.66.497-13.713 7.293-16.408 6.703-2.653 13.778-.05 16.466 6.051 1.241 2.795 1.27 5.81.08 9.198 1.682-.687 3.607-1.632 5.46-3.303 2.08-1.955 4.01-4.447 2.56-8.106-1.513-3.817-5.514-4.806-7.87-4.29l-.15.033-2.013-5.083.188-.055c.96-.28 1.994-.419 3.053-.419 4.52 0 9.531 2.551 11.59 7.749 2.155 5.442.7 10.67-4.212 15.119M152.722 368.216l-5.152-9.152-9.282 17.274zm9.7 6.7-4.505 2.536-2.385-4.238-22.508 12.666-.156.086-2.867-4.987 13.7-26.45.024-.049 5.467-3.075 8.034 14.278 5.89-3.316 2.81 4.997-5.887 3.314 2.383 4.238M147.512 407.077l-.145.105-2.75-3.812.132-.105c1.424-1.15 2.197-3.254 2.223-4.734-.01-2.123-.712-4.166-2.084-6.069l-.106-.143 3.984-2.876 4.555 6.309 21.252-15.337 3.384 4.688-30.445 21.974M214.39 475.363l-.052.158-5.899-1.512.067-.184c4.618-12.857 1.026-24.958.601-26.294l-.057-.182 6.065-1.468.043.172c.377 1.48.968 4.02 1.028 5.702l13.071-21.1 5.268 3.263-17.506 28.258c-.146 2.642-1.303 9.293-2.629 13.187M245 476.894l.15.094-2.924 4.72-22.195-13.746-.15-.095 2.924-4.722 22.194 13.749M258.313 460.419l-25.61-15.865-.15-.095 2.952-4.765 25.61 15.863.153.094-2.955 4.768M343.595 480.623c-.077.137-1.733 2.46-2.94 3.875-1.375 1.601-3.546 3.688-3.695 3.788l-.07.047-3.284-2.359 3.308-4.113c1.186-1.51 2.634-4.001 2.688-4.119l.037-.186 4.007 2.976-.051.091M323.755 487.388l-.06.031-3.31-2.025.107-.107c3.1-3.124 3.76-5.462 3.763-5.483l.035-.175 4.203 2.776-.044.093c-.014.031-1.948 3.464-4.694 4.89M309.233 482.171c0-.045-.2-4.842-2.926-9.29l-.079-.125 4.683-1.627.046.092c2.288 4.572 2.744 10.188 2.744 10.237v.101l-4.468.753v-.14M306.368 488.538l.795-4.127 32.681 6.298.118.023-.796 4.125-32.682-6.296-.116-.023M319.873 497.579l-.796 4.132 3.765.726.796-4.134zm-5.134 3.296.796-4.133-3.71-.715-.798 4.133zm12.28 2.367 3.45.665.796-4.133-3.447-.665zm-9.883 5.297.605-3.133-11.774-2.267-.116-.023 2.243-11.64.02-.117 28.211 5.436.118.024-2.243 11.638-.023.117-11.89-2.292-.603 3.134 12.982 2.5.118.024-.765 3.968-13.036-2.512-.495 4.538-5.353-.747 1.179-4.689-12.872-2.481-.118-.023.765-3.968 13.047 2.513M292.487 498.136c3.438 3.456 5.277 5.448 9.44 12.863l.063.114-4.666 2.095-.036-.135c-1.566-5.675-7.461-10.653-8.627-11.593l-.11-.09 3.857-3.333.079.08" style="fill:#231f20;fill-opacity:1;fill-rule:nonzero;stroke:none;stroke-width:.17534" transform="matrix(1.33333 0 0 -1.33333 -84.474 727.785)"/><path d="M304.776 501.688c.032.123.051.206.06.237l.033.114-4.634 1.352-.025-.131c-1.337-7.545-6.883-14.759-9.556-16.945l-.108-.09 3.947-3.443.075.11c.016.025.102.121.2.23.56.622 2.004 2.232 3.18 4.367l4.114-21.345.023-.116 4.916.947-5.123 26.58c.836 1.11 1.836 3.918 2.898 8.133M336.262 479.92l-4.952.367.044-.22c.295-1.336.298-2.286.007-2.677-.543-.744-4.869-1.689-6.477-1.871-.238-.028-.49-.075-.757-.124-1.342-.25-2.858-.53-3.369 1.443l-.483 2.8c-.128.668-.176 1.825-.193 2.262a4.014 4.014 0 0 1-.01.208l-.022.109-5.216-.547.752-3.317c.004-.014.009-.057.017-.125.323-2.523.88-4.61 1.612-6.033.617-1.2 2.167-1.596 4.034-1.596 2.203 0 4.847.55 6.918.984.52.108 1.008.21 1.446.294 3.474.668 5.227 1.228 6.309 3.446.764 1.544.361 4.48.356 4.508l-.016.089M397.485 509.926l.093-.096 2.988 3.63-.075.076c-2.737 2.746-4.456 3.966-6.665 5.259l-.093.054-2.863-3.884.124-.063c2.388-1.227 4.389-2.761 6.491-4.976M396.393 489.194l-3.847 2.74-.063-.122c-3.99-7.701-8.146-11.696-10.925-14.031l-.106-.088 4.433-3.973.079.086c3.408 3.696 6.477 7.711 10.382 15.295l.047.093M394.026 498.048l.095-.128 2.854 3.791-.191.19c-3.261 3.243-5.236 4.504-6.316 4.992l-.087.038-2.925-3.922.133-.062c.176-.078 4.27-1.99 6.437-4.899M422.603 477.248l-18.234 3.454.92 3.239 17.938-3.4zm1.422 7.257-17.966 3.404.75 2.798-5.457 1.206.007-.158c.002-.038.049-4.425-1.743-9.766-1.766-5.337-5.225-6.95-6.244-7.317-.047-.017-.06-.02-.076-.031l-.126-.086 3.793-3.418.063-.066.077.052a.625.625 0 0 0 .077.028c1.95.675 3.954 2.688 5.646 5.674l19.014-3.601-1.205-6.37 4.76-.901 3.453 18.226c.169.893.553 1.775.696 2.108.046.108.055.128.058.149l.021.108-5.114 1.37-.484-3.409M421.216 506.663l-3.65-4.24-1.994 5.31zm.554 4.064.335 1.768.705 2.504-5.276 1.169-.346-2.732-.338-1.778-15.002 2.843-.763-4.024 12.625-2.394-3.104-.878 1.264-2.837-11.634 2.204-.652-3.446 2.457-.464c-1.696-4.92-5.434-6.197-6.547-6.472l-.207-.056 2.225-3.269.045-.068.08.02c4.497 1.062 7.584 6.092 8.731 8.97l1.75-.332c-.091-.773-1.05-5.172-1.85-5.42-.308-.085-.975-.089-2.386.399-.055.019-.088.03-.095.031l-.152.028.27-3.692.009-.085.112-.033c.8-.245 3.54-.975 5.288.012 1.159.653 2.476 4.338 3.456 9.655l1.722-3.44-1.66-8.764 4.707-.893 1.701 8.974 6.773 6.1-1.972 1.801 12.34-2.337.763 4.024-15.374 2.912" style="fill:#231f20;fill-opacity:1;fill-rule:nonzero;stroke:none;stroke-width:.17534" transform="matrix(1.33333 0 0 -1.33333 -84.474 727.785)"/><path d="m428.568 493.416-2.827-.305.8 4.224c.326.017 1.21.114 1.688.244a23.306 23.306 0 0 1 .339-4.163zm3.607 4.797 2.582.963-2.139 3.35-.065.092-.096-.055c-.112-.061-1.897-.782-3.25-1.166-1.276-.363-3.306-.564-6.036-.601l-.214-.005-.098-.005-.347-2.427-1.01-5.335-1.55-.156 1.011-4.128 8.753 1.185c1.352-2.672 2.446-4.329 2.681-4.508l.069-.052 3.868 2.54-.107.104c-3.933 3.814-4.061 9.268-4.052 10.205M494.911 452.763l-5.442 3.218 5.153 8.718 5.442-3.218zM507.5 463l4.851 8.21c1.165 1.863 2.378 3.389 2.432 3.481l-5.298 3.567c-.199-.442-1.314-2.958-2.138-4.463l-4.69-7.932-5.444 3.218 4.664 7.886c1.353 2.187 2.531 3.546 2.586 3.639l-5.217 3.705c-.2-.442-1.33-2.885-2.158-4.39l-4.717-7.977-5.582 3.298 4.255 7.196c1.036 1.753 1.866 2.63 1.894 2.677l-5.364 3.668-1.587-3.419-4.225-7.15-6.365 3.763-2.59-4.38 6.365-3.763-13.033-22.047 31.41-18.569 2.481 4.196-26.383 15.597 10.552 17.85 5.58-3.299-7.69-13.007 15.129-8.944 7.69 13.007 7.934-4.69 2.59 4.381L507.5 463M582.25 403.265l-2.813 3.765-.14-.095c-1.524-1.015-3.763-1.12-5.183-.703-2.022.645-3.761 1.927-5.164 3.806l-.109.144-3.936-2.94 4.655-6.234-21-15.682 3.46-4.634 30.086 22.466.144.107M583.02 380.688c1.418.82 2.917 1.243 4.335 1.243a6.6 6.6 0 0 0 1.32-.13c1.766-.357 3.259-1.451 4.2-3.08.993-1.722 1.208-3.554.616-5.299-.584-1.725-1.894-3.214-3.791-4.308-3.903-2.255-8.015-1.429-9.996 2.004-1.92 3.328-.526 7.352 3.315 9.57zm-5.427-24.933c5.537.92 14.1 5.662 17.621 9.754 4.473 4.96 5.236 10.635 2.152 15.98-1.747 3.025-4.49 5.14-7.719 5.95-3.196.803-6.633.279-9.673-1.475-6.242-3.605-8.6-10.77-5.485-16.666 1.418-2.71 3.763-4.602 7.16-5.775-1.584-.893-3.52-1.813-5.982-2.229-2.824-.416-5.975-.382-7.943 3.028-2.053 3.556-.343 7.307 1.524 8.834l.12.096-2.734 4.736-.162-.114c-4.294-3.056-6.797-10.054-3.347-16.03 2.427-4.202 6.277-6.368 11.247-6.368 1.025 0 2.102.093 3.22.279M595.468 340.255c6.993-.295 12.702-1.303 15.258-2.17l.065-.023 4.978 2.135-9.747 22.724-4.987-2.137 7.154-16.679c-3.401.821-10.494 1.696-16.464 2.024-6.901.324-13.896-1.2-17.79-2.597l-.177-.063 2.569-5.988.163.074c3.545 1.573 11.62 3.01 18.978 2.7M617.168 315.332c-.978-1.536-2.607-2.672-4.707-3.284-4.326-1.26-8.126.52-9.234 4.326-.522 1.793-.256 3.635.747 5.181 1.001 1.543 2.688 2.723 4.75 3.324a9.529 9.529 0 0 0 2.66.393c1.115 0 2.172-.219 3.098-.656 1.633-.768 2.821-2.184 3.346-3.992.557-1.908.328-3.738-.66-5.292zm5.681 6.914c-2.005 6.878-8.807 10.526-15.83 8.483-6.918-2.017-10.91-8.415-9.287-14.883.735-2.972 2.56-5.367 5.578-7.313-1.749-.49-3.85-.928-6.339-.74-2.84.264-5.893 1.048-6.994 4.827-1.149 3.943 1.404 7.18 3.584 8.218l.136.066-1.529 5.25-.184-.072c-4.899-1.948-8.993-8.15-7.064-14.774 1.638-5.621 5.997-8.856 12.603-9.356.409-.03.838-.046 1.284-.046 5.665 0 14.08 2.418 18.153 5.33 5.523 3.753 7.613 9.085 5.89 15.01" style="fill:#231f20;fill-opacity:1;fill-rule:nonzero;stroke:none;stroke-width:.17534" transform="matrix(1.33333 0 0 -1.33333 -84.474 727.785)"/></svg>