<svg xmlns="http://www.w3.org/2000/svg" xml:space="preserve" width="650" height="650" viewBox="0 0 650 650"><g style="fill:#fff"><path d="M0 0c0-4.497-3.861-8.206-8.606-8.206-4.771 0-8.631 3.709-8.631 8.206 0 4.586 3.86 8.279 8.631 8.279C-3.861 8.279 0 4.586 0 0" style="fill:#fff;fill-opacity:1;fill-rule:nonzero;stroke:none" transform="matrix(37.70958 0 0 -39.42978 650 326.44)"/></g><path d="M0 0c0-4.497-3.861-8.206-8.606-8.206-4.771 0-8.631 3.709-8.631 8.206 0 4.586 3.86 8.279 8.631 8.279C-3.861 8.279 0 4.586 0 0" style="fill:#58595b;fill-opacity:1;fill-rule:nonzero;stroke:none" transform="matrix(1.33333 0 0 -1.33333 75.653 327.148)"/><path d="M0 0c0-4.497-3.837-8.206-8.619-8.206-4.733 0-8.595 3.709-8.595 8.206 0 4.586 3.862 8.279 8.595 8.279C-3.837 8.279 0 4.586 0 0" style="fill:#58595b;fill-opacity:1;fill-rule:nonzero;stroke:none" transform="matrix(1.33333 0 0 -1.33333 591.832 327.148)"/><path d="M0 0c-85.092 0-154.363-69.284-154.363-154.371 0-85.096 69.271-154.342 154.363-154.342 85.104 0 154.344 69.246 154.344 154.342C154.344-69.284 85.104 0 0 0m0-312.456c-87.168 0-158.107 70.915-158.107 158.085C-158.107-67.21-87.168 3.757 0 3.757c87.148 0 158.088-70.967 158.088-158.128 0-87.17-70.94-158.085-158.088-158.085" style="fill:#58595b;fill-opacity:1;fill-rule:nonzero;stroke:none" transform="matrix(1.33333 0 0 -1.33333 323.848 118.644)"/><path d="m0 0 2.258 6.455L12.746 2.83l12.193 35.09 5.689-1.963L17.479-1.768c-.421-1.26-1.081-2.091-1.893-2.485-.884-.401-2.08-.366-3.549.152zm-17.975 45.068 2.223 6.444 31.363-10.835-2.21-6.417zm-4.359-31.797c.813-2.158 2.311-3.561 4.416-4.293 1.994-.699 4.021-.431 6.002.68 1.956 1.121 3.274 2.707 3.982 4.756.67 1.951.618 3.981-.211 6.02-.83 2.17-2.273 3.63-4.232 4.317-2.101.685-4.203.486-6.214-.687-1.933-1.072-3.257-2.628-3.929-4.625-.751-2.064-.642-4.111.186-6.168m.92 16.926c3.572 2.119 7.342 2.524 11.296 1.16 3.866-1.369 6.544-3.943 8.042-7.842 1.42-3.63 1.42-7.386.092-11.15-1.354-3.906-3.721-6.803-7.039-8.787-3.539-2.115-7.293-2.506-11.184-1.135-3.969 1.354-6.647 3.928-8.148 7.783-1.442 3.643-1.468 7.382-.132 11.229 1.354 3.823 3.708 6.748 7.073 8.742" style="fill:#58595b;fill-opacity:1;fill-rule:nonzero;stroke:none" transform="matrix(1.33333 0 0 -1.33333 75.301 271.45)"/><path d="m0 0 19.877-16.284-4.375-5.24-38 31.107 4.311 5.256L-4.611 3.765l4.32 5.343 4.648-3.781zm-32.824-21.22c.791-2.335 2.209-4.362 4.361-6.156 2.131-1.739 4.363-2.7 6.731-2.888 2.677-.18 4.846.726 6.529 2.74 1.613 1.986 2.098 4.286 1.376 6.928-.605 2.359-1.968 4.398-4.073 6.091-2.167 1.762-4.493 2.764-6.985 2.904-2.748.24-4.945-.658-6.574-2.631-1.627-2.052-2.117-4.312-1.365-6.988m8.054 15.571c1.93.153 3.916-.053 5.875-.676a15.447 15.447 0 0 0 5.358-2.842c3.467-2.851 5.625-6.238 6.412-10.125.855-4.34-.207-8.335-3.262-12.056-3.031-3.735-6.832-5.59-11.269-5.59-3.992 0-7.688 1.396-11.182 4.257-1.562 1.284-2.812 2.774-3.85 4.591-.994 1.802-1.578 3.706-1.849 5.689l-3.379-4.195-4.652 3.745 7.991 9.711-3.681 2.98 4.717 5.639 3.613-2.935 7.961 9.727 4.572-3.797z" style="fill:#58595b;fill-opacity:1;fill-rule:nonzero;stroke:none" transform="matrix(1.33333 0 0 -1.33333 139.145 136.324)"/><path d="M0 0c-.818-2.804-2.527-4.948-4.918-6.395-2.537-1.501-5.24-1.922-8.105-1.273-2.876.616-5.086 2.127-6.479 4.574-1.495 2.488-1.812 5.162-.945 8.037.869 2.8 2.551 4.915 5.021 6.416 2.44 1.42 5.123 1.863 7.971 1.247 2.973-.629 5.219-2.168 6.664-4.629C.625 5.551.889 2.871 0 0m5.674 11.83C3.555 15.439.132 17.514-4.338 18.246L6.25 24.478 3.203 29.65l-2.182-1.282-9.696 16.436-39.419-23.268 3.076-5.188 33.506 19.886 6.687-11.343-13.65-8.078-4.166 7.107-5.769-3.45 4.115-7.078-15.586-9.195 3.076-5.161 10.014 5.907c-1.564-4.24-1.33-8.198.854-11.834 2.39-4.136 6.07-6.609 10.953-7.334 4.546-.743 8.963.151 13.222 2.656C2.334-9.084 5.229-5.725 6.75-1.375 8.499 3.293 8.094 7.693 5.674 11.83" style="fill:#58595b;fill-opacity:1;fill-rule:nonzero;stroke:none" transform="matrix(1.33333 0 0 -1.33333 212.76 116.242)"/><path d="M0 0c-.312 1.941.174 3.668 1.476 5.253 1.26 1.487 2.811 2.396 4.667 2.695 1.889.349 3.687.062 5.341-.873 1.799-1.013 2.907-2.513 3.237-4.44.325-1.873-.19-3.631-1.526-5.242-1.261-1.53-2.746-2.455-4.677-2.817-1.892-.336-3.625 0-5.332.971C1.423-3.359.369-1.9 0 0m9.597-11.488c3.686.677 6.697 2.415 9.026 5.201 1.76 2.098 2.689 4.414 2.861 6.918l13.021 2.307 1.634-8.941 6.644 1.169-4.035 22.805-6.67-1.216 1.402-7.916L20.635 6.48c-1.028 2.536-2.777 4.483-5.299 5.963-3.18 1.751-6.594 2.295-10.285 1.631-3.725-.644-6.757-2.334-9.108-5.124-2.47-2.923-3.349-6.323-2.694-10.134.685-3.776 2.654-6.641 6.017-8.551 3.181-1.843 6.582-2.409 10.331-1.753" style="fill:#58595b;fill-opacity:1;fill-rule:nonzero;stroke:none" transform="matrix(1.33333 0 0 -1.33333 251.749 53.914)"/><path d="m0 0-.91 4.913 29.644 5.358.885-4.957zm36.514 4.948-2.928 16.606-6.633-1.186.798-4.63-29.591-5.329-.867 4.638-6.543-1.191 2.891-16.558c.314-1.558.88-2.602 1.632-3.187.785-.497 1.834-.653 3.176-.426L33.27-.062c1.341.25 2.259.778 2.73 1.495.604.787.821 1.954.514 3.515" style="fill:#58595b;fill-opacity:1;fill-rule:nonzero;stroke:none" transform="matrix(1.33333 0 0 -1.33333 265.067 95.043)"/><path d="m0 0 1.684 9.105 6.699-1.17-5.987-32.703-6.733 1.196 3.23 17.632-7.941 1.413 1.099 5.931zm-8.543 4.853-11.166 2.002c-.646-4.006-.448-7.189.723-9.573 1.302-2.819 4.032-4.841 8.093-6.073l-1.17-6.478c-2.232.375-4.548 1.442-7.092 3.148-3.181 2.207-5.261 4.657-6.228 7.488-2.025-2.268-4.877-3.865-8.592-4.75-2.947-.756-5.536-.937-7.74-.565l1.197 6.466c4.303-.262 7.516.687 9.721 2.849 1.811 1.806 3.151 4.753 3.983 8.754l-10.909 1.982 1.082 5.882 29.176-5.219zm-31.653-20.761 6.719-1.177-2-10.79 36.528-6.548-1.104-5.841-39.189 6.996c-1.346.229-2.278.755-2.778 1.491-.576.835-.697 1.995-.444 3.527z" style="fill:#58595b;fill-opacity:1;fill-rule:nonzero;stroke:none" transform="matrix(1.33333 0 0 -1.33333 397.194 51.325)"/><path d="m0 0-28.026 16.643-3.087-5.196L-3.088-5.217Zm-30.654 25.035L8.66 1.674 1.856-9.787C.961-11.203.028-12.023-.908-12.266c-.892-.206-1.982 0-3.151.691L-36.451 7.664c-1.125.725-1.795 1.463-2.008 2.358-.236.947.133 2.124.988 3.586zM-28-9.717l-18.76 11.12 3.019 5.14 42.262-25.114-3.028-5.128-17.71 10.533-4.89-8.083-5.696 3.429zm-18.84-5.597 33.399-19.883-3.049-5.171-35.764 21.261c-1.208.72-1.929 1.55-2.047 2.384-.293.976.022 2.155.826 3.5l5.977 10.028 5.836-3.498z" style="fill:#58595b;fill-opacity:1;fill-rule:nonzero;stroke:none" transform="matrix(1.33333 0 0 -1.33333 491.288 89.828)"/><path d="m0 0-12.195-9.882-3.388 4.125 12.217 9.926-3.966 4.872-24.968-20.25L-45.36 4.96l20.378 16.471 9.605-11.979 4.733 3.808-13.979 17.261-26.779-21.674c-1.113-.928-1.627-1.898-1.561-2.918.026-.779.488-1.74 1.402-2.823l14.59-18.068-8.675-7.002 3.968-4.892 21.442 17.341 3.33-4.156-21.381-17.328 4.018-5.027L4.034-5.001z" style="fill:#58595b;fill-opacity:1;fill-rule:nonzero;stroke:none" transform="matrix(1.33333 0 0 -1.33333 569.408 157.48)"/><path d="m0 0-9.097-3.11-2.171 6.425 22.316 7.664 2.18-6.42L5.712 1.97 7.88-4.524 2.241-6.463Zm-7.282 35.279c-1.577.863-3.155 1.014-4.694.475-1.535-.517-2.614-1.571-3.347-3.232-.735-1.64-.801-3.289-.264-4.931.575-1.617 1.602-2.822 3.182-3.743 1.586-.845 3.15-1.061 4.662-.564 1.562.549 2.693 1.713 3.406 3.347.676 1.649.729 3.263.206 4.825-.602 1.69-1.604 2.959-3.151 3.823m6.644-14.192a9.671 9.671 0 0 0-1.968-2.393 7.666 7.666 0 0 0-2.786-1.593c-3.322-1.216-6.539-.871-9.541.92-2.886 1.73-4.918 4.239-6.043 7.601-1.142 3.414-1.128 6.704.133 9.865 1.213 3.326 3.574 5.594 6.912 6.719 1.011.334 2.061.527 3.178.471.997-.049 2.105-.334 3.102-.791l-1.287 3.758 5.501 1.867 3.666-10.92 4.522 1.495 2.381-6.92L2.61 29.62l3.586-10.313-5.572-1.869Zm-32.713-32.466-2.205 6.384 13.438 4.609-11.785 34.731 5.716 1.948 13.993-41.174z" style="fill:#58595b;fill-opacity:1;fill-rule:nonzero;stroke:none" transform="matrix(1.33333 0 0 -1.33333 598.248 266.87)"/><path d="M0 0c-128.613 0-233.209-104.607-233.209-233.2S-128.613-466.427 0-466.427c128.588 0 233.234 104.634 233.234 233.227C233.234-104.607 128.588 0 0 0m0-472.398c-131.883 0-239.178 107.274-239.178 239.198C-239.178-101.329-131.883 5.945 0 5.945c131.889 0 239.17-107.274 239.17-239.145 0-131.924-107.281-239.198-239.17-239.198" style="fill:#58595b;fill-opacity:1;fill-rule:nonzero;stroke:none" transform="matrix(1.33333 0 0 -1.33333 323.848 13.539)"/><path d="m0 0 28.276 5.822L29.448.114 1.155-5.709Z" style="fill:#58595b;fill-opacity:1;fill-rule:nonzero;stroke:none" transform="matrix(1.33333 0 0 -1.33333 47.935 368.664)"/><path d="m0 0 27.57 8.539 1.68-5.41-14.91-16.996 18.404 5.711 1.602-5.168-27.592-8.565-1.707 5.599L19.607.379 1.604-5.176Z" style="fill:#58595b;fill-opacity:1;fill-rule:nonzero;stroke:none" transform="matrix(1.33333 0 0 -1.33333 51.58 386.213)"/><path d="m0 0 26.346 11.799L28.73 6.49 18.343 1.847l4.68-10.435 10.354 4.675 2.391-5.315L9.453-21.063l-2.379 5.321 11.496 5.158L13.904-.168 2.383-5.331Z" style="fill:#58595b;fill-opacity:1;fill-rule:nonzero;stroke:none" transform="matrix(1.33333 0 0 -1.33333 64.822 426.606)"/><path d="m0 0 7.029 8.996-11.155-2.254Zm-4.126-15.1-3.311 5.402 4.283 5.575-6.043 9.841-6.846-1.406-3.234 5.264 30.47 5.537 3.244-5.269z" style="fill:#58595b;fill-opacity:1;fill-rule:nonzero;stroke:none" transform="matrix(1.33333 0 0 -1.33333 106.311 474.174)"/><path d="m0 0 17.687 16.175-5.753 6.328 3.625 3.296L31.034 8.867l-3.626-3.289-5.752 6.295L3.941-4.291Z" style="fill:#58595b;fill-opacity:1;fill-rule:nonzero;stroke:none" transform="matrix(1.33333 0 0 -1.33333 120.673 518.539)"/><path d="m0 0 18.154 22.395L34.789 8.916l-3.072-3.792-12.115 9.821-4.02-4.982L26.843.84l-3.068-3.784-11.246 9.131L7.59.084l12.512-10.147-3.05-3.792z" style="fill:#58595b;fill-opacity:1;fill-rule:nonzero;stroke:none" transform="matrix(1.33333 0 0 -1.33333 140.301 538.89)"/><path d="m0 0 4.033-4.349C1.734-6.671-.684-7.997-3.18-8.344c-2.496-.339-5.123.249-7.83 1.763-3.322 1.889-5.427 4.583-6.281 8.055-.865 3.509-.186 7.238 2.051 11.194 2.336 4.165 5.254 6.81 8.725 7.909 3.468 1.12 6.949.663 10.454-1.314 3.104-1.737 5.086-4.052 5.993-6.948.515-1.715.515-3.746-.028-6.092L4.178 7.857c.447 1.478.394 2.859-.116 4.14-.515 1.292-1.449 2.317-2.802 3.068-1.864 1.055-3.756 1.223-5.649.544-1.916-.684-3.732-2.516-5.413-5.522-1.802-3.195-2.483-5.763-2.102-7.774.367-1.978 1.474-3.507 3.31-4.522 1.354-.761 2.765-.976 4.233-.668C-2.916-2.573-1.475-1.616 0 0" style="fill:#58595b;fill-opacity:1;fill-rule:nonzero;stroke:none" transform="matrix(1.33333 0 0 -1.33333 200.387 563.168)"/><path d="m0 0 9.591 27.202 5.518-1.913-3.783-10.708 10.787-3.802 3.746 10.713 5.504-1.936L21.772-7.67 16.27-5.719l4.191 11.885L9.713 9.958 5.508-1.93Z" style="fill:#58595b;fill-opacity:1;fill-rule:nonzero;stroke:none" transform="matrix(1.33333 0 0 -1.33333 210.53 583.843)"/><path d="m0 0 5.281 28.375 5.596-1.033 8.094-21.124 3.508 18.944 5.345-1.002-5.306-28.348-5.741 1.067-8.004 20.646L5.307-.994Z" style="fill:#58595b;fill-opacity:1;fill-rule:nonzero;stroke:none" transform="matrix(1.33333 0 0 -1.33333 250.916 597.044)"/><path d="m0 0 2.559 28.74 5.806-.527L5.822-.524Z" style="fill:#58595b;fill-opacity:1;fill-rule:nonzero;stroke:none" transform="matrix(1.33333 0 0 -1.33333 291.749 603.547)"/><path d="m0 0 5.65-1.812C4.771-4.957 3.313-7.29 1.287-8.819c-1.995-1.53-4.56-2.308-7.644-2.263-3.836 0-6.99 1.313-9.438 3.93-2.467 2.634-3.705 6.208-3.68 10.748.029 4.808 1.25 8.526 3.75 11.177 2.479 2.669 5.77 3.994 9.814 3.988 3.52-.023 6.358-1.06 8.569-3.159 1.336-1.239 2.311-3.029 2.927-5.337L-.186 8.899c-.316 1.503-1.032 2.677-2.113 3.564-1.09.846-2.404 1.293-3.929 1.293-2.131 0-3.885-.764-5.219-2.273-1.35-1.529-2.004-4.028-2.004-7.475 0-3.646.614-6.248 1.915-7.791 1.313-1.533 3.05-2.324 5.124-2.324 1.551-.017 2.891.484 4.021 1.471C-1.283-3.678-.488-2.127 0 0" style="fill:#58595b;fill-opacity:1;fill-rule:nonzero;stroke:none" transform="matrix(1.33333 0 0 -1.33333 334.301 591.057)"/><path d="m0 0-5.022 10.265-2.8-11.039zm11.817-10.294-6.302-.622-3.168 6.274-11.5-1.159-1.68-6.75-6.174-.618 8.301 29.85 6.123.597z" style="fill:#58595b;fill-opacity:1;fill-rule:nonzero;stroke:none" transform="matrix(1.33333 0 0 -1.33333 370.084 587.48)"/><path d="m0 0-4.691 28.262 5.744.924L4.955 5.752 19.25 8.125l.787-4.781Z" style="fill:#58595b;fill-opacity:1;fill-rule:nonzero;stroke:none" transform="matrix(1.33333 0 0 -1.33333 392.621 599.71)"/><path d="m0 0 5.811 1.294c.816-3.164.751-5.925-.209-8.255C4.6-9.294 2.791-11.23.105-12.783c-3.361-1.934-6.714-2.364-10.138-1.327-3.471 1.046-6.34 3.506-8.608 7.435-2.418 4.154-3.204 8.025-2.39 11.558.821 3.533 2.955 6.34 6.474 8.355 3.061 1.766 6.067 2.309 9.03 1.59 1.744-.418 3.493-1.459 5.211-3.119l-4.329-4.084c-1.001 1.131-2.212 1.778-3.607 2.013-1.336.188-2.705-.088-4.074-.882-1.832-1.078-2.94-2.61-3.336-4.58-.408-2.004.264-4.5 1.986-7.47 1.838-3.164 3.719-5.091 5.608-5.774 1.908-.67 3.81-.463 5.629.565 1.314.778 2.215 1.863 2.703 3.3C.736-3.822.656-2.082 0 0" style="fill:#58595b;fill-opacity:1;fill-rule:nonzero;stroke:none" transform="matrix(1.33333 0 0 -1.33333 458.999 556.932)"/><path d="M0 0c2-2.58 4.1-4.069 6.337-4.456 2.232-.419 4.284.123 6.095 1.57 1.855 1.406 2.835 3.241 2.966 5.485.132 2.214-.812 4.655-2.874 7.271-2.047 2.643-4.139 4.136-6.28 4.526-2.158.374-4.166-.155-6.059-1.658-1.89-1.47-2.917-3.299-3.046-5.505C-3.006 5.023-2.048 2.623 0 0m-4.623-3.867C-6.412-1.543-7.58.668-8.143 2.791a14.782 14.782 0 0 0-.321 4.781c.185 1.607.633 3.041 1.343 4.32.934 1.717 2.344 3.309 4.182 4.751 3.335 2.623 6.855 3.673 10.498 3.171 3.625-.522 6.899-2.601 9.787-6.31 2.888-3.678 4.113-7.32 3.744-10.97-.365-3.624-2.246-6.753-5.56-9.348-3.387-2.643-6.884-3.715-10.481-3.229-3.627.501-6.832 2.572-9.672 6.176" style="fill:#58595b;fill-opacity:1;fill-rule:nonzero;stroke:none" transform="matrix(1.33333 0 0 -1.33333 474.486 540.46)"/><path d="m0 0-20.623 19.846 4.056 4.214L.525 7.563l10.071 10.449 3.502-3.4z" style="fill:#58595b;fill-opacity:1;fill-rule:nonzero;stroke:none" transform="matrix(1.33333 0 0 -1.33333 516.744 530.441)"/><path d="m0 0-23.072 16.954 3.472 4.698L-.439 7.58l8.573 11.671 3.915-2.889Z" style="fill:#58595b;fill-opacity:1;fill-rule:nonzero;stroke:none" transform="matrix(1.33333 0 0 -1.33333 541.301 503.828)"/><path d="m0 0-25.44 13.549 10.05 18.883 4.298-2.276-7.33-13.742 5.678-3.01 6.804 12.775 4.283-2.281-6.828-12.775 6.961-3.713 7.545 14.254 4.306-2.282z" style="fill:#58595b;fill-opacity:1;fill-rule:nonzero;stroke:none" transform="matrix(1.33333 0 0 -1.33333 562.224 474.174)"/><path d="m0 0-4.605 1.551 3.99 11.923 10.894-3.657c.747-1.529 1.157-3.559 1.287-6.032.106-2.478-.211-4.861-.962-7.081-.967-2.895-2.39-5.191-4.319-6.905-1.933-1.721-4.166-2.742-6.755-3.062-2.601-.334-5.216-.052-7.831.822-2.839.974-5.164 2.408-6.992 4.369-1.811 1.937-2.913 4.258-3.348 6.953-.303 2.056-.027 4.389.827 7.004 1.168 3.392 2.759 5.799 4.811 7.232 2.074 1.442 4.442 2.004 7.172 1.697l-.814-5.818c-1.476.057-2.798-.33-3.957-1.107-1.074-.809-1.926-2.004-2.466-3.603-.83-2.409-.673-4.581.355-6.513 1.051-1.951 3.098-3.419 6.082-4.439 3.243-1.086 5.942-1.183 8.055-.291 2.119.914 3.533 2.527 4.336 4.869a9.982 9.982 0 0 1 .502 3.709 14.37 14.37 0 0 1-.66 3.556L2.119 6.342Z" style="fill:#58595b;fill-opacity:1;fill-rule:nonzero;stroke:none" transform="matrix(1.33333 0 0 -1.33333 572.835 416.57)"/><path d="m0 0-28.428 4.89 3.625 21.093 4.809-.812-2.615-15.346 6.266-1.097 2.47 14.289 4.799-.848-2.461-14.285 7.73-1.311 2.76 15.868 4.764-.803z" style="fill:#58595b;fill-opacity:1;fill-rule:nonzero;stroke:none" transform="matrix(1.33333 0 0 -1.33333 593.999 394.332)"/><path d="M0 0s.329 39.916 33.873 40.852h30.722V6.289h16.184v-8.457h37.974l14.88-171.912-97.457-33.856-96.801 32.744L-46.621 0Z" style="fill:#fff;fill-opacity:1;fill-rule:nonzero;stroke:none" transform="matrix(1.33333 0 0 -1.33333 275.614 205.515)"/><path d="M0 0h-27.014s-28.261-2.522-28.461-41.473h-49.111l-14.006-167.962 93.205-29.554 93.709 30.06L53.921-41.473H13.768l-.154 6.736H0Zm11.459-23.704h13.182v-7.752h38.218l15.926-184.685-99.097-31.407c-5.268-1.751-10.547.026-10.547.026l-98.705 30.476 15.702 186.275h48.656c4.922 41.942 39.876 41.629 39.876 41.629h36.816z" style="fill:#1d398d;fill-opacity:1;fill-rule:nonzero;stroke:none" transform="matrix(1.33333 0 0 -1.33333 357.322 157.785)"/><path d="M0 0h-47.195l3.261 39.3H0Z" style="fill:#009b56;fill-opacity:1;fill-rule:nonzero;stroke:none" transform="matrix(1.33333 0 0 -1.33333 283.074 272.786)"/><path d="M351.334 304.699h-17.278v39.3h17.278z" style="fill:#009b56;fill-opacity:1;fill-rule:nonzero;stroke:none" transform="matrix(1.33333 0 0 -1.33333 -148.19 679.05)"/><path d="M0 0v-6.521h-13.82v-25.72H0V-39.3h38.365L35.008 0Z" style="fill:#009b56;fill-opacity:1;fill-rule:nonzero;stroke:none" transform="matrix(1.33333 0 0 -1.33333 375.608 220.386)"/><path d="m0 0 .133 25.138S-16.295 26.511-17.211 0z" style="fill:#1d398d;fill-opacity:1;fill-rule:nonzero;stroke:none" transform="matrix(1.33333 0 0 -1.33333 320.077 213.082)"/><path d="m0 0 87.398-27.475L174.801 0l-9.567 114.814h-38.668v-6.582h-13.847V88.273H85.008v26.541H67.706s-.145-27.038-36.538-26.541v10.516s22.477-2.236 25.932 16.025H9.535Z" style="fill:#1d398d;fill-opacity:1;fill-rule:nonzero;stroke:none" transform="matrix(1.33333 0 0 -1.33333 206.942 431.453)"/><path d="M0 0v45.202h-5.036v6.794H7.826V0Z" style="fill:#fff;fill-opacity:1;fill-rule:nonzero;stroke:none" transform="matrix(1.33333 0 0 -1.33333 243.697 412.175)"/><path d="M0 0c-1.971 2.08-4.337 3.117-7.097 3.117-2.981 0-5.387-.971-7.241-2.921-1.93-1.983-2.859-4.616-2.859-7.895 0-3.243.902-5.822 2.718-7.755 1.823-1.999 4.202-2.991 7.163-2.991 2.926 0 5.345 1.035 7.316 3.114 1.932 2.044 2.893 4.442 2.893 7.22C2.893-4.84 1.932-2.13 0 0m-16.711-42.296 10.574 16.705h-2.691c-4.361 0-8.119 1.747-11.206 5.21-3.129 3.412-4.665 7.581-4.665 12.473 0 1.618.205 3.247.599 4.855a18.144 18.144 0 0 0 1.998 4.711c1.582 3.047 3.655 5.367 6.151 6.938 2.521 1.574 5.451 2.357 8.775 2.357 2.289 0 4.481-.467 6.557-1.385C1.42 8.681 3.27 7.367 4.939 5.6 6.557 3.895 7.779 1.908 8.67-.359a17.19 17.19 0 0 0 1.318-6.605c0-2.997-.713-6.099-2.183-9.293-.897-1.948-2.604-4.942-5.174-8.944v-.145l-10.805-16.95z" style="fill:#fff;fill-opacity:1;fill-rule:nonzero;stroke:none" transform="matrix(1.33333 0 0 -1.33333 297.093 355.78)"/><path d="M0 0c.344-3.059 1.41-5.443 3.18-7.148 1.736-1.758 3.871-2.634 6.418-2.634 2.884 0 5.306 1.06 7.263 3.19 1.888 2.133 2.811 4.774 2.811 7.973 0 3.233-.923 5.841-2.811 7.84-1.882 1.932-4.361 2.91-7.437 2.91-1.881 0-3.467-.401-4.781-1.183-1.385-.791-2.47-1.991-3.338-3.606L-5.24 8.944l4.706 26.81H22.73v-7.469H4.916l-2.01-11.031c1.762.972 3.287 1.64 4.505 2.009 1.064.276 2.187.417 3.405.417 4.623 0 8.539-1.78 11.721-5.339 3.203-3.557 4.779-7.896 4.779-13.03 0-5.176-1.703-9.567-5.095-13.176-3.498-3.633-7.879-5.475-13.14-5.475-4.874 0-8.802 1.547-11.718 4.643C-5.676-9.609-7.266-5.367-7.495 0z" style="fill:#fff;fill-opacity:1;fill-rule:nonzero;stroke:none" transform="matrix(1.33333 0 0 -1.33333 324.155 390.164)"/><path d="M0 0c1.078-1.247 2.533-1.873 4.361-1.873 1.92 0 3.391.573 4.483 1.733 1.037 1.161 1.586 2.777 1.586 4.852 0 2.003-.576 3.615-1.731 4.863-1.117 1.155-2.523 1.732-4.23 1.732-1.791 0-3.205-.612-4.311-1.811C-1.009 8.298-1.58 6.745-1.58 4.852-1.58 2.82-1.053 1.193 0 0m-2.389-25.027c1.768-1.808 3.994-2.704 6.636-2.704 2.835 0 5.098.932 6.829 2.783 1.684 1.753 2.54 3.873 2.54 6.368 0 2.728-.803 4.926-2.395 6.59-1.678 1.75-3.942 2.642-6.752 2.642-2.982 0-5.311-.864-6.99-2.575-1.629-1.622-2.448-3.788-2.448-6.515 0-2.596.871-4.799 2.58-6.589m-8.082 13.866c1.244 2.169 3.244 4.087 6.082 5.748-1.599 1.677-2.838 3.36-3.574 5.069a12.31 12.31 0 0 0-1.119 5.129c0 3.876 1.293 7.19 3.85 9.918 2.606 2.721 5.783 4.088 9.556 4.088 3.809 0 7-1.341 9.617-4.025 2.616-2.724 3.934-6.075 3.934-10.054 0-1.852-.409-3.562-1.213-5.13-.789-1.656-2.026-3.318-3.705-4.995 2.76-1.515 4.799-3.368 6.092-5.537 1.185-1.98 1.765-4.392 1.765-7.218 0-4.904-1.619-8.983-4.888-12.26-3.233-3.289-7.174-4.922-11.824-4.922-4.311 0-8.094 1.633-11.329 4.922-3.256 3.323-4.914 7.299-4.914 11.918 0 2.908.551 5.362 1.67 7.349" style="fill:#fff;fill-opacity:1;fill-rule:nonzero;stroke:none" transform="matrix(1.33333 0 0 -1.33333 382.163 366.231)"/></svg>