<svg xmlns="http://www.w3.org/2000/svg" xml:space="preserve" width="687.13019" height="687.13019" viewBox="0 0 687.13017 687.13019"><g transform="matrix(1.65296 0 0 -1.65296 -378.969 876.534)"><circle cx="437.11658" cy="-322.43387" r="207.84901" style="fill:#fff;fill-opacity:1;stroke:#122954;stroke-width:0;stroke-opacity:1" transform="scale(1 -1)"/><path d="M435.58 192.845c-72.344 0-131.199 58.851-131.199 131.199 0 72.338 58.855 131.192 131.2 131.192 72.338 0 131.192-58.854 131.192-131.192 0-72.348-58.854-131.199-131.193-131.199m141.407 131.199c0 77.963-63.434 141.4-141.407 141.4-77.978 0-141.406-63.437-141.406-141.4 0-77.982 63.428-141.41 141.406-141.41 77.973 0 141.407 63.428 141.407 141.41z" style="fill:#122954;fill-opacity:1;fill-rule:nonzero;stroke:none;stroke-width:6.57825"/><path d="M435.58 130.146c-106.916 0-193.9 86.988-193.9 193.898 0 106.916 86.984 193.895 193.9 193.895 106.913 0 193.898-86.98 193.898-193.895 0-106.91-86.985-193.898-193.898-193.898m204.103 193.898c0 112.543-91.56 204.102-204.103 204.102-112.546 0-204.109-91.559-204.109-204.102 0-112.553 91.563-204.103 204.11-204.103 112.543 0 204.102 91.55 204.102 204.103z" style="fill:#122954;fill-opacity:1;fill-rule:nonzero;stroke:none;stroke-width:6.57825"/><path d="M532.063 389.45c-2.778 7.883-4.178-.153-3.86-4.336.314-4.172-.929-5.409-2.634-8.65-1.696-3.25-8.03-13.15-8.03-13.15-1.854-4.021-1.854-11.133-.318-17.627 1.548-6.492 2.168-9.277.62-10.507-1.545-1.24-.62-2.178-5.878-1.86-5.252.312-5.879 2.162-5.879 2.162-15.453 11.756-41.438 19.481-46.381 20.727-4.95 1.234-4.642 1.234-4.95 2.464-.308 1.237 2.473 10.513 3.401 14.23.932 3.71.62 4.952-.928 6.189-1.548 1.233-5.258 2.165-8.351 4.018-3.09 1.853-6.186 4.95-8.351 7.108-2.159 2.172-6.804 0-6.804 0-2.624-2.47-6.96-6.796-8.033-8.036-1.092-1.24-5.881-3.25-5.881-3.25-4.33-2.609-2.627-6.495-2.627-6.495s3.71-11.435 4.018-12.83c.315-1.397-4.18-2.48-4.18-2.48-17.935-4.165-33.703-12.214-35.868-13.14-2.168-.928-1.856.466-1.856.466-.466 2.634.308 6.338-7.58 11.284-7.886 4.94-31.848-9.89-31.848-9.89-22.43-13.147-25.208-21.652-24.132-32.467 1.089-10.837 15.466-10.211 20.419-10.686 4.946-.456 12.517 0 21.337.94 8.814.92 8.962-.465 8.962-.465 7.272-12.842 32.791-20.104 39.749-22.276 6.957-2.158 4.484-5.103 4.018-7.101-.46-2.008-8.194-22.88-8.814-25.517-.623-2.624 2.162-3.562 2.162-3.562 4.025-3.559 19.796-6.655 31.24-6.95 11.435-.325 29.692 4.02 33.553 6.95 3.867 2.946-.15 10.205-2.316 15.463-2.168 5.255-6.957 12.993-7.583 15.925-.614 2.942 6.803 4.484 6.803 4.484 35.72 10.825 51.807 36.036 53.666 39.126 1.85 3.093.607 2.945-1.708 5.573-2.31 2.624 0 3.398 1.548 4.94 1.545 1.548 4.638.928 6.8 1.39 2.171.473 1.86.318 2.948 2.326 1.073 2.011-.314 2.779-1.397 9.12-1.089 6.333 2.014 9.902 5.872 18.09 3.867 8.197 1.856 20.412-.929 28.3m-110.25-16.86s1.276 1.722 4.645.313c3.212-1.346 9.273-2.005 12.524-1.706 3.24.318 10.359.938 12.212 1.863 1.863.938 4.179-1.397 2.473-4.021-1.699-2.628-7.574-4.33-12.832-4.33-5.255 0-14.538 1.233-16.853 2.01-2.316.771-4.176 1.703-2.169 5.872m29.23-12.681c-.308-1.85-.774-2.008-2.316-2.93-1.554-.925-12.241-2.319-20.881-.4 0 0-3.707.233-3.707 3.629 0 0-.157.793.774 1.709 0 0 1.076 1.397 4.323.623 3.251-.771 8.818-1.391 11.445-1.08 2.627.309 5.56.456 7.58 1.24 2.008.777 3.087-.931 2.782-2.791m47.435-24.96s1.507-.93-1.513-2.558c-3.016-1.622-24.238-14.955-56.361-14.955 0 0-20.339-.816-42.444 6.145 0 0-22.584 8.19-23.348 9.276-.774 1.083-1.24 1.388.61 2.322 1.86.922 17.94 10.815 17.94 10.815s9.642 3.37 13.027 4.49c3.52 1.163 14.156 3.939 14.156 3.939s5.1-3.47 18.552-3.36c13.459.116 17.74 1.966 17.74 1.966s5.734-.848 23.079-6.264c0 0 11.727-5.846 18.562-11.817m-143.616-26.377c-7.263-1.23-32.162-2.926-33.865 3.87 0 0-4.33 11.14 8.502 20.721 0 0 14.38 10.976 27.99 17.172 0 0 12.061 4.172 14.846-.778 0 0 4.484-5.868.925-9.28 0 0-14.38-10.515-18.86-16.39 0 0-3.72-2.791.304-7.725 0 0 7.42-6.353.158-7.59M460.9 258.866s.835-1.173-.813-2.082c-1.04-.594-10.67-5.345-25.4-4.65-14.728.69-25.507 5.447-25.507 5.447s-1.282.59-.473 1.632c.813 1.037 4.292 7.879 4.292 7.879s8.463-4.754 22.847-4.754c14.38 0 19.95 4.526 20.297 4.635l4.757-8.107m-46.507 14.149c.469 1.04 2.55 5.22 2.55 5.22s13.452-5.911 35.612 0l2.544-6.836s-.116-.944-1.047-1.4c-.922-.463-4.635-1.973-20.172-2.316-15.546-.35-19.722 3.353-19.722 3.353s-.228.938.235 1.979m97.112 47.31c-2.942-1.542-31.7-17.927-76.857-17.927-45.152 0-74.998 18.858-74.998 18.858s-1.702.626-.305 2.47c1.394 1.86 5.255 5.416 6.649 5.727 1.39.309 1.39.62 3.244-.77 1.856-1.388 25.674-16.08 70.205-16.08 44.535 0 66.184 16.85 66.184 16.85s5.721-3.247 7.886-6.494c0 0 .925-1.076-2.008-2.634zM279.103 268.392l8.29 3.508 1.783-4.208c1.4-3.29.841-5.152-1.905-6.305-1.253-.543-4.4-1.88-6.077 2.078l-2.091 4.927m-4.87-2.072 2.586-6.083c2.89-6.823 9.87-5.37 12.427-4.275 5.541 2.338 7.78 6.796 5.689 11.707l-4.918 11.606-28.208-11.965 2.248-5.31zM276.726 235.729l-2.77 5.062 26.905 14.682 2.756-5.065zM313.523 224.972l-8.207 12.11-5.335-3.614 7.532-11.133-4.484-3.03-7.539 11.114-6.578-4.442 8.58-12.665-4.484-3.032-11.747 17.329 25.375 17.181 11.374-16.783zM306.867 194.143l-3.87 4.265 18.688 16.94-5.596 6.177 4.019 3.643 15.064-16.639-4.015-3.636-5.599 6.19zM339.588 195.951l.058-.052-5.007-11.554-5.454 4.43 10.404 7.175m-14.933-10.308 7.889-6.427-2.621-6.013 4.856-3.94 11.82 29.89-5.148 4.198-26.982-17.557 4.71-3.825zM351.197 170.544c-.742-1.545-1.548-4.77 2.923-7.086 2.418-1.243 5.454-1.991 6.941.89 1.095 2.13-.456 3.649-2.698 5.666l-2.28 2.043c-3.434 3.058-6.75 6.029-3.656 12.02 1.568 3.035 5.791 7.618 13.748 3.516 7.51-3.864 6.706-10.365 5.02-13.738l-4.92 2.544c.494 1.272 1.573 4.372-2.905 6.691-1.936.993-4.673 1.397-5.948-1.07-1.092-2.126.24-3.382 1.124-4.178l5.14-4.716c2.868-2.63 5.164-5.733 2.643-10.631-4.22-8.182-12.11-5.034-14.258-3.932-8.95 4.616-7.53 11.13-5.795 14.509zM410.446 168.141l-14.444 2.374-1.041-6.36 13.262-2.187-.88-5.348-13.265 2.187-1.298-7.828 15.084-2.48-.884-5.357-20.647 3.401 4.992 30.245 20.004-3.312zM427.052 142.42l-5.74.475 2.082 25.144-8.303.677.446 5.413 22.356-1.85-.453-5.413-8.303.69-2.085-25.137zM461.122 153.347c.318-1.674 1.613-4.732 6.582-3.897 2.688.45 5.557 1.655 5.017 4.863-.392 2.348-2.547 2.644-5.554 2.927l-3.038.254c-4.59.404-9.016.777-10.134 7.432-.565 3.366.058 9.575 8.89 11.069 8.333 1.397 11.583-4.295 12.251-7.998l-5.454-.916c-.385 1.327-1.374 4.45-6.337 3.617-2.158-.375-4.593-1.673-4.124-4.423.392-2.351 2.22-2.553 3.405-2.66l6.934-.71c3.887-.385 7.574-1.486 8.496-6.908 1.532-9.09-6.671-11.303-9.064-11.698-9.922-1.67-12.697 4.394-13.32 8.148l5.45.9zM498.912 174.536c-1.031 1.584-3 4.568-7.497 3.013-2.618-.902-5.791-4.166-2.958-12.366 1.802-5.207 5.27-9.244 9.883-7.648 3.013 1.04 4.455 3.662 3.89 7.455l5.441 1.876c1.083-6.668-1.089-12.337-7.625-14.602-6.938-2.402-13.71 1.07-17.165 11.079-3.511 10.114-.036 17.11 6.68 19.423 7.81 2.714 13.029-2.162 14.802-6.334zM523.96 163.513l-5.13-2.612-13.857 27.325 5.136 2.612zM535.256 200.605l-12.02-8.357 3.679-5.294 11.033 7.683 3.093-4.442-11.033-7.69 4.526-6.51 12.555 8.724 3.09-4.45-17.187-11.954-17.496 25.17 16.664 11.569zM547.822 220.642l3.713 3.893 22.176-21.154-3.98-4.166-23.58 6.944-.044-.07 15.803-15.071-3.71-3.897-22.176 21.155 4.189 4.384 23.007-6.812.055.065-15.453 14.73zM586.896 222.158l-3.15-4.834-21.104 13.818-4.564-6.967-4.539 2.968 12.29 18.771 4.535-2.97-4.568-6.984zM597.242 240.756l-2.592-5.14-27.357 13.816 2.602 5.136zM583.1 267.949l.029.067 12.552-1.057-2.476-6.581-10.105 7.57m14.528-10.869 3.575 9.537 6.526-.579 2.204 5.862-32.104 1.68-2.332-6.221 25.24-19.983 2.126 5.692-5.235 4.012zM391.055 233.763l.726-.295c4.924-1.966 7.375.324 8.351 2.431l4.192-1.686-11.57-28.748-5.104 2.06 7.966 19.801-6.154 2.467 1.593 3.97zM417.65 220.517c.48 4.416 3.103 4.937 4.507 4.776 2.81-.308 3.945-2.621 3.569-6.141-.392-3.636-2.663-4.934-4.58-4.732-2.063.229-3.99 1.442-3.495 6.097m-6.37-12.974c-.058-4.95 3.007-8.354 7.732-8.865 5-.54 10.497 2.775 11.785 14.711.465 4.35 1.551 15.848-8.06 16.89-5.428.577-9.832-2.503-10.64-10.048-.56-5.152 2.042-9.96 7.351-10.542 1.88-.193 4.083.093 5.557 2.04l.068-.096c-.736-6.45-3.228-8.345-5.496-8.098-1.674.183-2.791 1.217-2.868 3.38l.003.058-5.432.572zM444.394 214.343c-1.076 7.905-.623 11.001 2.493 11.438 3.112.425 4.374-2.454 5.447-10.355 1.08-7.921.627-11.069-2.483-11.493-3.109-.411-4.384 2.493-5.457 10.41m-5.605-.758c1.468-10.77 5.223-15.37 11.718-14.486 6.504.886 8.894 6.311 7.43 17.081-1.462 10.774-5.21 15.335-11.706 14.448-6.5-.886-8.903-6.283-7.442-17.043zM463.22 228.492l.735.27c4.985 1.815 5.268 5.168 4.587 7.368l4.247 1.555 10.586-29.124-5.171-1.879-7.288 20.063-6.238-2.271-1.458 4.018zM269.193 314.517a6.118 6.118 0 0 0-6.122 6.119 6.113 6.113 0 0 0 6.122 6.116 6.111 6.111 0 0 0 6.123-6.116 6.116 6.116 0 0 0-6.123-6.119zM602.134 309.66a7 7 0 0 0-6.996 7 7.001 7.001 0 0 0 6.996 6.995 7 7 0 0 0 7-6.996c0-3.864-3.133-6.999-7-6.999zM255.754 366.19c.957 4.657 2.99 8.79 3.755 12.417.771 3.626 2.432 8.974 3.848 11.76 1.414 2.78 3.826 1.188 3.96.204.132-.973-.446-4.047-1.255-6.41-.806-2.384-3.646-10.276-4.693-13.344-1.04-3.067-1.818-6.302-2.528-7.461-.707-1.16-4.047-1.821-3.087 2.833z" style="fill:#122954;fill-opacity:1;fill-rule:nonzero;stroke:none;stroke-width:6.57825"/><path d="M261.53 374.964s4.053-1.837 5.428-5.572c1.368-3.74 3.083-4.642 1.84-10.125 0 0-.022-4.195 2.217-3.556 0 0 2.332.45 2.126 4.88-.205 4.426-.78 9.604-4.66 15.122 0 0 7.67 4.243 7.95 5.075.285.832 1.323 2.968.95 3.72-.37.748-.87 1.072-2.416.664-1.538-.41-5.823-8.447-11.444-6.222zM267.128 398.73s-3.07.572-2.496 2.255c0 0 .527 2.926 2.798 2.303 2.29-.616 7.818-2.65 7.818-2.65s1.266.501 1.79 3.434c.536 2.926 1.072 5.473 2.34 5.036 1.668-.575 1.668-.806 2.089-1.407.41-.607.327-2.444-.903-5.608-1.227-3.167-.581-3.064.54-3.45 1.114-.382 3.796-.741 2.868-3.462 0 0-1.754-1.275-4.336-.401-2.663.912-9.386 3.042-12.508 3.95zM291.042 393.08c-7.96 2.249-12.21-8.435-12.21-8.435l-.275-.85c-1.806-5.3 1.227-11.458 8.476-13.472 7.256-1.988 11.326 8.608 11.326 8.608 3.478 12.514-7.317 14.15-7.317 14.15m4.712-13.109s-1.394-6.838-7.902-5.41c-6.517 1.44-7.082 7.083-6.234 9.586 0 0 2.553 7.076 8.788 4.798 0 0 6.79-1.991 5.348-8.974zM283.269 424.53s-1.645 1.255.88 4.136c2.528 2.885 9.864 10.346 12.559 13.86 2.691 3.524 5.685 7.166 7.513 9.48 1.834 2.312 3.796 2.55 4.799 1.676.992-.88 8.524-5.92 6.822-8.531-1.712-2.625-15.36-17.29-17.843-20.798-2.48-3.505-1.75-8.262.328-6.56 2.075 1.713 21.922 25.456 23.126 26.156 1.205.71 3.922-.88 2.782-2.634-1.137-1.744-21.74-25.015-23.326-26.162-1.6-1.156-4.744-2.502-7.792.945-3.049 3.46-2.644 5.261.478 8.589 3.12 3.34 17.946 19.13 17.782 20.059-.164.931-2.916 6.28-6.411 2.3-3.498-3.983-10.195-11.631-13.263-15.804-3.064-4.169-5.303-9.844-8.434-6.713zM312.633 424.06s-.263.82 1.208 2.275c1.47 1.448 2.817 1.647 3.379.957.572-.704 1.535-4.288 2.961-3.774 1.427.51 2.833 1.429 5.438 4.631 2.608 3.193 8.621 11.833 11.207 10.545 2.586-1.284 1.799-1.962 1.327-2.723-.47-.758-13.035-14.429-15.566-17.313-2.521-2.878-10.037-12.347-11.772-14.548-1.738-2.203-3.82-5.466-5.926-3.626-2.107 1.837-.864 2.133 2.046 5.46 2.907 3.325 9.016 10.51 9.527 12.206.52 1.706-.039 2.19-.941 3.183-.893.986-3.055 2.095-2.888 2.727zM358.752 494.157c-1.064-.807 1.728-3.771 1.728-3.771l11.794-19.555s-8.338-5.29-11.955-7.269c-3.617-1.995-3.164-1.031-4.07-.37-.909.662-.343 2.027 1.895 5.753 2.24 3.726-.998 8.313-2.537 9.453-1.535 1.147.106 1.272 1.68 2.374 1.567 1.111 1.365 1.163 1.776 2.765.411 1.62-2.258 2.088-3.456 1.208-1.189-.877-5.98-4.066-8.082-5.146-2.1-1.076-1.936 1.243-2.833 2.766-.905 1.516-3.947-.289-3.947-.289-1.648-.983-1.6-2.502-.922-3.63.68-1.143 1.934-1.249.642-2.534-1.29-1.281-8.052-5.463-10.028-6.475-1.975-1.002-1.403-2.544-.902-3.967.5-1.407 3.81.218 5.31 1.452 1.493 1.224 5.322 4.015 5.322 4.015-.993-.928-1.182-4.648 1.156-7.709 2.335-3.064 8.432-1.497 9.72-1.073 1.29.421 1.94-2.113 1.937-2.961-.006-.868-2.965-1.934-5.246-3.293-2.28-1.346-6.967-4.143-8.56-5.778-1.603-1.632-1.127-2.724.183-4.343 1.301-1.625 5.258 1.237 6.598 2.727 1.349 1.49 4.015 3.922 6.013 5.46 1.998 1.526 10.285 5.76 13.593 7.392 3.318 1.631 7.58 4.846 8.358 4.969.79.119 1.134-1.038 1.96-2.432.831-1.388 3.092-4.336 4.737-3.356 1.648.98.6 5.331.305 5.833-.302.504-13.173 22.156-15.81 26.595-2.63 4.423-5.293 1.992-6.36 1.189m-14.566-27.678c-.6 1.872-2.55 5.161 1.982 7.34 0 0 5.284 3.198 6.999.045 1.827-3.373 1.93-2.961 1.143-4.805-.796-1.84-1.349-2.345-3.552-3.826-2.213-1.48-5.971-.636-6.572 1.243zM394.498 503.012s-.106 2.663 2.541 2.91c2.644.258 3.46-.225 4.002-2.83.53-2.592-.973-5.498 5.692-8.225 6.662-2.73 14.714-6.74 15.527-7.211.813-.476.935-2.24-.69-2.332-1.632-.09-14.609 3.029-17.326 5.296-2.724 2.278-4.732 3.758-8.143-.32-3.414-4.083-8.178-8.076-9.469-8.416-1.285-.347-6.9-1.632-4.127.713 2.772 2.364 10.898 8.785 11.878 15.196 0 0 .077 4.474.115 5.22zM421.364 509.558s5.512 2.018 6.745.72c1.237-1.304 1.738-1.68 2.136-4.304.392-2.621 2.265-15.148 2.544-17.046.28-1.89.472-5.137-1.918-6.094-2.393-.947-3.774 1.375-4.2 6.232-.431 4.843-2.821 15.803-3.178 17.245-.37 1.433-1.937 1.947-1.917 2.84M391.624 480.39s2.482-.668 2.781-1.664c.296-.999.373-3.52 2.804-4.796 2.422-1.281 3.17-1.307 7.565-.812 4.39.51 28.031 4.795 29.592 4.285 1.57-.514 2.473-1.565 2.162-2.503-.305-.94.157-1.02-3.835-2.213-3.996-1.188-13.841-2.078-20.11-3.016-6.277-.934-13.96-2.235-15.435-2.3-1.487-.077-2.364.836-3.751 3.161-1.391 2.32-3.267 5.91-3.196 7.41.077 1.51 1.423 2.448 1.423 2.448zM481.124 500.757c-.331.533-7.722 1.94-9.73 2.397-2.007.462-3.263.902-3.048 2.521.219 1.61-.315 3.854-3.109 4.185-1.773.222-3.212-2.123-3.212-2.123l-.106-.437c-.1-.427-.761-1.336-1.857-1.532-1.105-.193-10.12 2.037-12.257 1.911-2.142-.102-2.168-2.82-.555-3.045 1.609-.215 10.23-2.81 10.23-2.81-2.367-1.115-2.775-4.195-2.753-7.369.016-3.18 5.724-6.01 9.627-6.767 3.912-.74 6.395 2.161 7.721 3.967 1.32 1.824 1.982 6.652 1.982 6.652s5.38-.941 6.97-.553c1.606.382.43 2.477.097 3.003m-18.27-9.083s-4.696.62-3.665 5.078c0 0-.492 5.098 4.487 4.404 0 0 5.602-1.292 4.85-5.2 0 0-.755-5.265-5.672-4.282zM447.233 488.17s-.54 2.241 2.294 1.426c2.836-.803 14.075-3.842 17.236-4.565 3.16-.732 17.814-3.36 18.948-4.368 1.124-1.018 2.415-1.32 2.03-3.646-.383-2.329-3.103-12.138-3.296-13.002-.206-.858-3.039-2.014-3.357-.138-.32 1.895 1.725 8.84 1.674 9.9-.051 1.075-.678 3.632-3.113 4.2-2.444.56-21.19 5.786-23.586 5.891-2.396.1-4.834.659-6.128.958-1.291.292-3.665 1.153-2.946 2.945M491.84 503.279s2.183-.357 1.512-3.222c-.665-2.871-2.094-4.503.067-5.611 2.169-1.096 4.456-1.031 4.716-1.834.26-.823.864-2.165-.627-2.727-1.49-.572-4.076.02-5.213-.321-1.127-.344-2.017 1.072-2.293-1.43-.28-2.505-.62-5.3-1.597-6.289-.7-.697-3.157-1.23-2.666 2.881.501 4.118 1.84 9.264 2.3 11.268.46 2.01 1.035 5.804 1.487 6.46.453.648 1.272.909 2.313.825zM509.695 489.364s1.236 2.011 2.997.929c1.757-1.083 6.973-4.963 9.254-6.026 2.293-1.057 7.172-3.524 8.444-4.838 1.282-1.29 1.143-2.932-.151-3.353-1.304-.411-1.956-.36-3.919.671-1.959 1.031-4.734 3.257-7.169 4.924-.999.678-5.769 3.126-7.368-1.008-1.449-3.79-4.658-6.485-2.046-8.425 2.614-1.944 9.745-5.808 11.251-6.733 1.504-.925 3.527-3.546 3.068-4.288-.816-1.342-2.968-.614-5.448 1.253-2.476 1.866-7.378 4.873-9.838 6.212-2.467 1.34-3.093 1.722-4.555 2.448-1.455.72-4.269 2.614-3.119 3.632 1.144 1.031.845 1.382 2.67 1.825 1.824.44 4.37 5.447 5.431 7.731 1.05 2.287-.036 4.16.498 5.046zM536.297 475.816s1.195.829 2.904-.046c1.705-.867 1.692-1.731.549-3.617-1.16-1.892-4.857-5.67-3.527-7.166 1.314-1.506 4.32-4.21 5.133-4.018.816.193 2.056.816 3.209 2.695 1.16 1.888 1.294 3.533 2.852 4.648 1.548 1.117 2.865 1.015 3.36.7.639-.386 2.435-1.667.26-4.658-2.175-2.987-15.248-24.851-16.108-25.709-.868-.848-3.566-2.993-5.075-2.075-1.51.922-1.71 3.129.462 6.113 2.184 2.98 9.244 12.825 8.852 14.444-.385 1.613-1.188 2.284-2.344 2.644-1.166.37-1.902 1.69-4.224.183-2.306-1.533-3.652-4.857-5.396-7.407-1.741-2.567-3.617-3.665-4.301-3.068-.675.59-1.84 2.339 1.358 7.288 3.212 4.937 11.927 18.604 12.036 19.05zM584.002 431.914c-.083.95-7.539 7.879-8.753 9.777-1.207 1.902 2.602 4.744.04 6.566-1.578 1.12-4.6-.74-4.6-.74-1.78-.275-4.237 1.662-6.158 4.311-1.927 2.64-3.854 5.072-6.662 5.24-2.804.163-2.447-2.763-2.447-2.763l7.227-7.336s-2.053 1.072-6.411-2.68c-4.343-3.77 2.235-12.76 2.235-12.76 5.493-5.953 10.667-2.635 12.254-1.726 1.584.903 2.454 2.766 2.688 4.01.245 1.252.062 2.704.993 2.37.925-.325 3.86-4.456 4.773-5.618.912-1.157 2.782-1.616 4.234-1.651 1.455-.027.67 2.065.587 3m-22.458 2.158s-3.977 3.726-1.108 6.479c0 0 2.714 5.046 7.638 1.192 0 0 4.095-3.007.263-6.672 0 0-2.913-4.632-6.793-.999zM592.492 429.232s2.242-2.123-.938-4.77c-3.184-2.637-4.558-3.55-3.437-4.712 1.12-1.17 4.307-3.225 4.281-4.475-.025-1.243-.571-2.168-1.089-2.264-.52-.084-1.493-1.629-3.62 1.227-2.129 2.859-2.12 3.276-4.008 2.692-1.886-.588-2.027-2.355-4.568-3.974-1.75-1.12-1.477-.999-2.502.06-1.021 1.06-.947 3.976.964 5.601 1.905 1.622 6.462 5.175 8.386 7.427 1.918 2.251 3.62 3.873 4.67 4.06 1.048.202 1.86-.874 1.86-.874zM543.601 442.581s2.859 2.126 5.599-1.375c2.733-3.498 7.185-9.838 11.165-13.776 3.98-3.941 12.848-12.778 13.856-14.265 1.015-1.48 1.783-4.407-.23-6.132-2.024-1.737-4.874-3.85-6.155-5.293-1.288-1.423-4.115-2.31-5.13-1.237-1.021 1.063-.764 3.138 1.353 4.973 2.126 1.824 5.187 3.53 3.684 6.581-1.497 3.055-4.336 6.864-10.137 13.14-5.808 6.26-9.482 9.678-11.124 10.751-1.644 1.086-4.895 5.11-2.88 6.633zM602.703 400.683s2.052 1.375 2.955-2.19c.899-3.588 4.789-18.254 6.103-22.154 1.313-3.922 4.776-13.497 4.528-15.254-.253-1.776-1.397-2.573-4.2-2.936-2.815-.385-8.426-1.12-10.472-.957-2.056.16-5.772-1.246-6.325.582-.54 1.834 1.465 3.353 4.62 4.134 3.147.78 7.435 2.357 8.312 3.549.883 1.172 1.105 7.686-1.542 15.055-2.646 7.355-3.09 9.372-3.925 10.66-.848 1.295-2.431 5.583-2.068 6.453.353.87 2.014 3.058 2.014 3.058zM594.605 388.606s.562-3.977-1.314-4.378c-1.879-.405-6.212-1.847-8.553-2.233-2.345-.394-4.022-1.503-4.022-1.503l-2.557 4.003 4.7 2.778s4.699 1.24 6.27 2.168c1.577.925 1.583-.145 2.967.88.598.434 2.51-1.715 2.51-1.715z" style="fill:#122954;fill-opacity:1;fill-rule:nonzero;stroke:none;stroke-width:6.57825"/><path d="M598.906 375.135s.642-3.19-1.44-3.958c-2.074-.777-3.49-1.188-7.567-1.933-4.079-.758-5.733-1.397-5.733-1.397l-1.825 2.53.444 2.127s3.607.305 6.385 1.275c2.775.983 5.2 2.628 6.489 2.994 2.107.64 3.247-1.638 3.247-1.638z" style="fill:#122954;fill-opacity:1;fill-rule:nonzero;stroke:none;stroke-width:6.57825"/><path d="M573.123 399.906s5.589-12.129 7.073-17.11c1.503-5.085 5.833-17.625 6.867-23.163 1.025-5.53 3.148-11.663 2.763-13.468-.39-1.802-1.818-2.688-2.612-2.611.151-.02-2.923-.768-4.086 4.471-.886 4.034-.558 7.057-1.429 13.092-.86 6.045-2.28 10.85-3.851 15.608-1.568 4.757-1.767 6.999-4.176 11.512-2.418 4.503-3.838 6.697-3.8 7.625.026.941 1.648 4.795 3.25 4.044zM330.868 358.374c1.047-.389 3.164-.774 4.166 1.773.546 1.372.706 3.084-1.256 3.861-1.452.565-2.255-.327-3.302-1.619l-1.057-1.317c-1.596-1.978-3.115-3.89-7.208-2.267-2.071.803-5.393 3.083-3.613 7.606 1.683 4.275 5.862 3.954 8.155 3.08l-1.105-2.794c-.857.24-2.916.78-3.922-1.764-.436-1.102-.414-2.643 1.272-3.295 1.449-.579 2.11.192 2.522.697l2.45 2.968c1.379 1.66 3.1 2.996 6.44 1.686 5.59-2.207 4.404-6.675 3.923-7.895-2.008-5.091-6.264-4.42-8.57-3.517zM333.9 374.79c-4.886 2.728-4.937 5.484-4.108 6.961.825 1.481 3.199 2.878 8.081.148 4.886-2.73 4.944-5.492 4.115-6.967-.829-1.477-3.2-2.868-8.088-.14m-1.529-2.74c8.19-4.575 11.737-.566 12.704 1.159.966 1.731 2.524 6.845-5.676 11.419-8.184 4.577-11.727.571-12.69-1.16-.974-1.725-2.519-6.838 5.662-11.419zM349.025 387.199l4.42 6 2.914-2.152-6.277-8.512-16.092 11.85 1.856 2.518zM360.48 395.63l-2.075-2.347-14.975 13.246 2.078 2.345zM360.232 418.333l2.345 1.873c1.05.841 2.984 1.78 6.678-2.827 2.052-2.563 3.52-5.759 1.532-7.358l-2.377-1.902-8.178 10.214m7.94-14.836 5.066 4.066c3.867 3.087.996 8.711-1.683 12.058-2.368 2.952-6.765 6.784-10.706 3.617l-5.168-4.13zM382.874 432.482l-7.05-3.684 1.95-3.716 6.475 3.379 1.635-3.132-6.48-3.376 2.407-4.59 7.359 3.848 1.64-3.138-10.082-5.274-9.266 17.718 9.77 5.1zM392.867 429.704c-1.896 5.274-.12 7.388 1.467 7.95 1.59.575 4.301.073 6.193-5.194 1.892-5.271.122-7.378-1.468-7.947-1.6-.565-4.3-.067-6.192 5.191m-2.952-1.057c3.17-8.82 8.473-8.14 10.336-7.468 1.866.672 6.395 3.508 3.222 12.344-3.167 8.827-8.464 8.14-10.333 7.465-1.867-.665-6.396-3.51-3.225-12.34zM422.491 438.107l6.206.815 1.4-10.683-2.071-.266-.636 2.428c-.63-1.298-1.533-3.244-4.244-3.604-3.575-.475-7.275 2.528-8.187 9.489-.71 5.405.88 10.805 5.894 11.44 4.555.592 6.867-3.118 7.394-5.829l-3.112-.408c-.093.774-1.475 3.119-3.675 2.833-2.216-.295-3.996-2.602-3.33-7.69.712-5.402 3.108-6.526 5.219-6.24.684.083 2.916.754 3.032 4.83l-3.45-.452-.44 3.337zM453.417 437.104c1.028 5.51 3.616 6.434 5.28 6.126 1.67-.315 3.752-2.117 2.727-7.613-1.028-5.502-3.616-6.43-5.28-6.128-1.66.315-3.749 2.12-2.727 7.615m-3.084.575c-1.705-9.221 3.209-11.29 5.159-11.66 1.956-.372 7.294-.202 9.01 9.027 1.718 9.221-3.21 11.293-5.153 11.653-1.953.37-7.297.202-9.016-9.02zM472.422 433.786l1.786 5.047 3.675-1.311c1.728-.62 1.548-2.207 1.191-3.196-.664-1.866-1.657-2.313-3.192-1.757l-3.46 1.217m-6.636-9.517 2.891-1.03 2.618 7.377 3.048-1.082c2.181-.778 1.953-1.815 1.038-4.385-.691-1.94-.913-2.958-1.038-3.915l3.264-1.157.183.498c-.524.54-.28 1.227.7 3.967 1.25 3.524.816 4.327-.097 5.416 1.616.128 3.039 1.638 3.771 3.72.572 1.621 1.195 5.563-2.556 6.892l-7.144 2.531-6.678-18.832zM483.395 417.228l-2.83 1.337 8.573 18.054 2.833-1.339zM500.062 425.753l.035-.026-2.463-7.735-3.283 1.963 5.711 5.8m-8.2-8.341 4.75-2.827-1.29-4.034 2.932-1.744 5.714 19.86-3.1 1.86-14.842-14.416 2.836-1.699zM435.275 448.221l3.588-.09-.402-16.066 8.528-.219-.083-3.507-12.126.308z" style="fill:#122954;fill-opacity:1;fill-rule:nonzero;stroke:none;stroke-width:6.57825"/><path d="M392.484 345.703s46.546-22.362 90.178.549" style="fill:none;stroke:#122954;stroke-width:4.25738;stroke-linecap:round;stroke-linejoin:round;stroke-miterlimit:3;stroke-dasharray:7.09327;stroke-dashoffset:0;stroke-opacity:1"/><path d="m534.7 344.598.1-.916-.1-.71-.1-.607-.407-.507-.305-.411-.405-.1-.408.1-.507.205-.411.61-.097.813V344.392l.302.614.305.305.408.405.51.61.197.607.205.713.106.405.1-1.015.1-.607.106-.508.102-.51.2-.813zM515.666 383.03l.096-.919-.096-.71-.1-.607-.408-.51-.301-.408-.408-.1-.408.1-.508.202-.408.614-.103.813V382.825l.309.607.302.308.408.402.507.616.203.607.205.71.1.408.102-1.018.097-.608.11-.51.102-.507.199-.81zM511.979 374.444l.1-.915-.1-.71-.103-.61-.402-.511-.305-.405-.408-.099-.408.1-.504.202-.411.614-.097.812V374.242l.302.607.306.306.404.404.511.614.2.607.205.713.102.405.103-1.015.097-.61.109-.511.1-.505.199-.813zM509.984 364.92l.1-.918-.1-.71-.103-.607-.408-.508-.302-.41-.41-.1-.402.1-.511.208-.405.607-.103.813v1.323l.306.607.301.305.412.405.507.61.2.607.205.717.103.401.1-1.015.099-.607.103-.507.102-.51.206-.81zM539.104 352.77l.1-.92-.1-.71-.103-.607-.401-.507-.308-.41-.405-.1-.408.1-.504.208-.412.607-.099.813v1.323l.302.607.308.308.405.402.507.613.203.61.205.714.103.401.103-1.018.093-.607.106-.508.103-.51.202-.81zM520.603 390.122l.103-.915-.103-.71-.1-.61-.408-.508-.298-.411-.411-.096-.402.096-.51.205-.405.61-.103.813v1.323l.299.608.308.308.411.401.508.61.199.611.199.713.106.405.1-1.015.102-.61.103-.508.1-.507.202-.813zM525.427 396.43l.103-.915-.103-.71-.102-.607-.405-.507-.305-.411-.411-.1-.402.1-.504.205-.411.61-.1.813V396.228l.302.61.302.306.411.404.508.61.202.611.202.71.103.408.103-1.018.1-.608.1-.507.102-.51.205-.813zM532.44 401.136l.102-.919-.103-.706-.096-.61-.411-.508-.296-.408-.41-.102-.406.102-.51.205-.405.608-.103.812v1.323l.302.608.305.305.411.404.508.61.199.611.202.713.103.405.1-1.018.103-.607.102-.508.103-.507.2-.812zM538.558 394.317l.1-.919-.1-.71-.1-.607-.407-.507-.305-.411-.408-.1-.405.1-.508.208-.407.608-.1.812v1.323l.299.608.308.305.408.404.507.61.203.608.202.716.103.402.103-1.015.1-.608.102-.507.103-.51.202-.81zM541.378 386.084l.103-.918-.103-.707-.1-.61-.407-.507-.305-.408-.408-.1-.405.1-.504.205-.408.607-.1.813v1.323l.299.607.305.305.408.408.51.61.203.608.2.713.102.404.103-1.015.1-.61.105-.508.1-.507.202-.813zM543.845 377.499l.103-.916-.103-.71-.1-.607-.404-.507-.305-.411-.405-.1-.411.1-.504.205-.408.61-.1.813v1.323l.302.608.305.308.405.401.51.61.203.608.206.716.1.405.102-1.018.1-.607.105-.508.103-.51.196-.813zM543.614 368.8l.103-.918-.103-.707-.103-.61-.408-.51-.299-.405-.41-.103-.402.103-.51.205-.406.607-.102.813V368.595l.298.61.309.305.41.405.508.61.2.61.199.71.106.408.1-1.018.102-.607.103-.51.1-.505.205-.813zM542.435 360.337l.103-.919-.103-.713-.103-.607-.404-.507-.302-.411-.408-.1-.405.1-.507.208-.405.607-.103.813v1.323l.302.607.305.309.408.4.51.611.197.61.205.714.103.404.1-1.018.102-.607.103-.507.103-.505.2-.812zM510.568 355.827l.103-.919-.103-.706-.099-.61-.405-.511-.302-.405-.408-.099-.404.1-.511.205-.405.607-.103.812V355.621l.302.607.309.309.408.408.507.61.2.607.202.713.102.405.103-1.015.1-.607.103-.514.102-.505.2-.812zM512.174 347.675l.103-.919-.103-.71-.099-.607-.405-.507-.302-.411-.41-.1-.406.1-.507.208-.408.608-.103.812V347.47l.309.61.302.306.407.404.508.614.2.607.208.717.103.4.1-1.017.096-.607.106-.508.102-.507z" style="fill:#122954;fill-opacity:1;fill-rule:nonzero;stroke:none;stroke-width:6.57825"/></g></svg>