<svg xmlns="http://www.w3.org/2000/svg" width="147.77432mm" height="147.77432mm" viewBox="0 0 147.77432 147.77432"><g transform="matrix(1.10904 0 0 1.10904 -58.005 -115.664)"><circle cx="118.92455" cy="170.9151" r="66.622643" style="fill:#f9f9f9;stroke:#fff;stroke-width:0"/><path d="M0 0c-11.529 0-20.913-9.381-20.913-20.911 0-8.091 4.626-15.116 11.364-18.593l.225.446c-6.575 3.39-11.086 10.25-11.086 18.147C-20.41-9.656-11.253-.5 0-.5c11.256 0 20.412-9.156 20.412-20.411 0-8.573-5.315-15.923-12.818-18.941l.182-.464c7.692 3.094 13.136 10.623 13.136 19.405C20.912-9.381 11.53 0 0 0" style="fill:#36aee8;fill-opacity:1;fill-rule:nonzero;stroke:none" transform="matrix(1.97212 0 0 -1.97212 119.229 129.04)"/><path d="M0 0c-16.937 0-30.675-13.736-30.675-30.69 0-16.938 13.738-30.679 30.675-30.679 16.955 0 30.69 13.741 30.69 30.679C30.69-13.736 16.955 0 0 0m32.881-30.69c0-18.145-14.716-32.869-32.881-32.869-18.146 0-32.862 14.724-32.862 32.869C-32.862-12.527-18.146 2.191 0 2.191c18.165 0 32.881-14.718 32.881-32.881" style="fill:#36aee8;fill-opacity:1;fill-rule:nonzero;stroke:none" transform="matrix(1.97212 0 0 -1.97212 119.223 109.78)"/><path d="M0 0c-1.223-1.789-3.445-1.859-5.513-3.479-2.176-1.725-1.721-5.292-1.633-5.813C-5.818-8.353-1.226-4.839 0 0" style="fill:#80cc28;fill-opacity:1;fill-rule:nonzero;stroke:none" transform="matrix(1.97212 0 0 -1.97212 143.98 141.31)"/><path d="M0 0c1.328.939 5.921 4.453 7.146 9.292C7.146 9.292 9.268-1.29 0 0" style="fill:#00a9a0;fill-opacity:1;fill-rule:nonzero;stroke:none" transform="matrix(1.97212 0 0 -1.97212 129.887 159.636)"/><path d="m0 0 2.899-5.068v10.15Z" style="fill:#36aee8;fill-opacity:1;fill-rule:nonzero;stroke:none" transform="matrix(1.97212 0 0 -1.97212 113.512 145.224)"/><path d="m0 0 5.652-1.536-7.188 7.179Z" style="fill:#36aee8;fill-opacity:1;fill-rule:nonzero;stroke:none" transform="matrix(1.97212 0 0 -1.97212 97.47 156.618)"/><path d="m0 0 5.079 2.907H-5.078Z" style="fill:#36aee8;fill-opacity:1;fill-rule:nonzero;stroke:none" transform="matrix(1.97212 0 0 -1.97212 94.19 176.025)"/><path d="m0 0 1.536 5.649-7.186-7.176Z" style="fill:#36aee8;fill-opacity:1;fill-rule:nonzero;stroke:none" transform="matrix(1.97212 0 0 -1.97212 104.426 192.064)"/><path d="m0 0-5.651 1.542 7.192-7.176Z" style="fill:#36aee8;fill-opacity:1;fill-rule:nonzero;stroke:none" transform="matrix(1.97212 0 0 -1.97212 142.195 183.952)"/><path d="m0 0-5.073-2.911H5.085Z" style="fill:#36aee8;fill-opacity:1;fill-rule:nonzero;stroke:none" transform="matrix(1.97212 0 0 -1.97212 144.308 164.535)"/><path d="M0 0c1.416-1.422 1.396-3.2 1.396-3.2v-10.798c0-6.473-2.558-8.749-4.831-9.992l.001-.471c4.192 1.19 8.482 4.177 8.482 10.565V4.011C3.43.841 0 0 0 0" style="fill:#36aee8;fill-opacity:1;fill-rule:nonzero;stroke:none" transform="matrix(1.97212 0 0 -1.97212 109.276 170.273)"/><path d="M0 0v-10.15l2.916 5.068z" style="fill:#215698;fill-opacity:1;fill-rule:nonzero;stroke:none" transform="matrix(1.97212 0 0 -1.97212 119.23 135.202)"/><path d="m0 0 7.188-7.179L5.641-1.53Z" style="fill:#215698;fill-opacity:1;fill-rule:nonzero;stroke:none" transform="matrix(1.97212 0 0 -1.97212 94.44 145.49)"/><path d="M0 0h10.157L5.078 2.911Z" style="fill:#215698;fill-opacity:1;fill-rule:nonzero;stroke:none" transform="matrix(1.97212 0 0 -1.97212 84.175 170.292)"/><path d="m0 0 7.187 7.177-5.644-1.543Z" style="fill:#215698;fill-opacity:1;fill-rule:nonzero;stroke:none" transform="matrix(1.97212 0 0 -1.97212 93.283 195.076)"/><path d="m0 0-7.192 7.176 1.535-5.649Z" style="fill:#215698;fill-opacity:1;fill-rule:nonzero;stroke:none" transform="matrix(1.97212 0 0 -1.97212 145.234 195.063)"/><path d="M0 0h-10.158l5.073-2.907z" style="fill:#215698;fill-opacity:1;fill-rule:nonzero;stroke:none" transform="matrix(1.97212 0 0 -1.97212 154.336 170.276)"/><path d="M0 0s-.009 1.778 1.411 3.2c0 0-3.43.841-5.065 4.011v-17.906c0-6.389-4.29-9.375-8.482-10.566l.365-.305C-5.206-20.892.013-17.319 0-10.798z" style="fill:#215698;fill-opacity:1;fill-rule:nonzero;stroke:none" transform="matrix(1.97212 0 0 -1.97212 126.437 176.584)"/><path d="M0 0c.061-.312.188-.614.377-.875.186-.251.539-.496.962-.187.672.49-.784 1.901.517 2.845.852.619 1.64.216 2.181-.531.29-.403.365-.622.537-1.056l-.753-.443c-.04.362-.154.721-.364 1.014-.207.277-.628.546-.979.289C1.74.52 3.218-.88 1.932-1.81c-.866-.631-1.649-.224-2.12.429a3.21 3.21 0 0 0-.502.984Z" style="fill:#36aee8;fill-opacity:1;fill-rule:nonzero;stroke:none" transform="matrix(1.97212 0 0 -1.97212 74.14 200.164)"/><path d="m0 0-.44.802 4.208 2.311.441-.803Z" style="fill:#36aee8;fill-opacity:1;fill-rule:nonzero;stroke:none" transform="matrix(1.97212 0 0 -1.97212 70.756 197.909)"/><path d="m0 0-.389 1.053L2.38 3.93l-.006.011-3.368-1.243-.303.82 4.503 1.665.389-1.052L.828 1.252l.005-.012 3.371 1.244.301-.825Z" style="fill:#36aee8;fill-opacity:1;fill-rule:nonzero;stroke:none" transform="matrix(1.97212 0 0 -1.97212 68.171 193.071)"/><path d="M0 0c.133-.313.258-.659.313-1.001.24-1.457-.363-2.596-1.969-2.853-1.621-.266-2.682.529-2.932 2.056a2.82 2.82 0 0 0 .031 1.054l.814.064c-.15-.376-.147-.691-.094-1.016.152-.926.989-1.387 1.964-1.23.963.158 1.596.845 1.439 1.803-.057.356-.204.763-.355.958z" style="fill:#36aee8;fill-opacity:1;fill-rule:nonzero;stroke:none" transform="matrix(1.97212 0 0 -1.97212 72.81 174.192)"/><path d="m0 0 .021 2.691.756-.004L.765.907l1.181-.01.013 1.63.76-.006L2.705.893l1.35-.011.013 1.791.756-.007L4.803-.04Z" style="fill:#36aee8;fill-opacity:1;fill-rule:nonzero;stroke:none" transform="matrix(1.97212 0 0 -1.97212 63.44 172.4)"/><path d="m0 0 .207.784L4.85-.446l-.237-.884-3.583.951.441-.917-.722-.28Z" style="fill:#36aee8;fill-opacity:1;fill-rule:nonzero;stroke:none" transform="matrix(1.97212 0 0 -1.97212 65.338 155.894)"/><path d="M0 0c.237.237.415.5.549.805.607 1.348-.532 2.297-1.719 2.832-1.025.463-2.15.661-2.674-.496-.424-.941.005-1.664.955-2.091.808-.365 1.527-.171 1.882.616.157.351.142.667-.076 1.001l.018.007c.64-.32 1.234-.878.908-1.6A1.79 1.79 0 0 0-.662.426Zm-1.575 2.144c-.182-.401-.651-.39-1.079-.197-.389.175-.71.512-.537.903.184.41.623.413 1.041.226.438-.197.754-.529.575-.932" style="fill:#36aee8;fill-opacity:1;fill-rule:nonzero;stroke:none" transform="matrix(1.97212 0 0 -1.97212 75.777 153.56)"/><path d="m0 0 1.624 2.45.664-.442 2.441-3.565-.549-.827-2.435 3.647L.63-.419Z" style="fill:#36aee8;fill-opacity:1;fill-rule:nonzero;stroke:none" transform="matrix(1.97212 0 0 -1.97212 71.114 141.92)"/><path d="M0 0c.297.149.553.344.78.588 1.003 1.083.225 2.349-.727 3.231-.829.768-1.83 1.316-2.695.386-.703-.756-.525-1.58.239-2.286.65-.605 1.392-.652 1.979-.019.261.283.346.587.245.975h.02c.506-.505.892-1.226.352-1.807A1.843 1.843 0 0 0-.489.616Zm-.813 2.534c-.293-.32-.741-.159-1.082.158-.314.291-.508.715-.223 1.027.309.33.724.192 1.059-.115.352-.33.552-.743.246-1.07" style="fill:#36aee8;fill-opacity:1;fill-rule:nonzero;stroke:none" transform="matrix(1.97212 0 0 -1.97212 83.409 140.558)"/><path d="M0 0c.135.019.265.052.423.14.518.288.28.728.111 1.029l-1.543 2.799.796.443 1.77-3.204c.249-.445.321-1.223-.5-1.676a2.39 2.39 0 0 0-.655-.259Z" style="fill:#36aee8;fill-opacity:1;fill-rule:nonzero;stroke:none" transform="matrix(1.97212 0 0 -1.97212 94.13 129.347)"/><path d="m0 0 .892.318.007 1.169 1.743.62.739-.907.952.34-3.291 3.926-.977-.346Zm2.149 2.735L.892 2.288.851 4.377l.013.004Z" style="fill:#36aee8;fill-opacity:1;fill-rule:nonzero;stroke:none" transform="matrix(1.97212 0 0 -1.97212 99.467 128.147)"/><path d="m0 0 1.117.15 2.201-3.327.014.002L2.854.383 3.719.5l.64-4.758-1.106-.149-2.206 3.326-.014-.002.478-3.559-.87-.117Z" style="fill:#36aee8;fill-opacity:1;fill-rule:nonzero;stroke:none" transform="matrix(1.97212 0 0 -1.97212 108.055 115.498)"/><path d="M0 0a2.837 2.837 0 0 1-1.155.338c-1.062.076-1.701-.639-1.77-1.62-.07-.974.45-1.749 1.425-1.817.244-.018.443-.005.604.027l.083 1.248-.961.068.053.754 1.84-.129-.184-2.581c-.493-.102-1.001-.179-1.489-.142-1.475.104-2.442.953-2.332 2.571.116 1.64 1.138 2.493 2.68 2.384A4.271 4.271 0 0 0 .116.807z" style="fill:#36aee8;fill-opacity:1;fill-rule:nonzero;stroke:none" transform="matrix(1.97212 0 0 -1.97212 126.478 116.713)"/><path d="m0 0 .913-.259L1.6.69 3.379.186l.076-1.165.971-.279-.408 5.11-.997.281Zm3.339.983-1.283.365 1.176 1.725.012-.004Z" style="fill:#36aee8;fill-opacity:1;fill-rule:nonzero;stroke:none" transform="matrix(1.97212 0 0 -1.97212 127.56 124.494)"/><path d="m0 0 .999-.523L.864-4.51l.011-.007 1.67 3.179.777-.408L1.09-5.995l-.992.519.127 3.991-.012.006-1.669-3.178-.777.407Z" style="fill:#36aee8;fill-opacity:1;fill-rule:nonzero;stroke:none" transform="matrix(1.97212 0 0 -1.97212 141.902 119.17)"/><path d="m0 0 .651-.645-1.949-1.971c-.575-.582-.776-1.14-.28-1.632.501-.49 1.055-.283 1.629.3L2-1.977l.65-.643L.492-4.802c-.902-.916-1.767-.805-2.601.019-.83.82-.952 1.685-.049 2.599z" style="fill:#36aee8;fill-opacity:1;fill-rule:nonzero;stroke:none" transform="matrix(1.97212 0 0 -1.97212 155.828 128.016)"/><path d="m0 0 .621-.936-2.025-3.433.006-.013 2.992 1.988.483-.73-4.001-2.656-.617.93 2.025 3.442-.008.011-2.991-1.989-.483.73z" style="fill:#36aee8;fill-opacity:1;fill-rule:nonzero;stroke:none" transform="matrix(1.97212 0 0 -1.97212 163.682 136.373)"/><path d="m0 0 .388-.83-4.347-2.04-.387.827z" style="fill:#36aee8;fill-opacity:1;fill-rule:nonzero;stroke:none" transform="matrix(1.97212 0 0 -1.97212 169.38 145.794)"/><path d="m0 0 .286-.937-3.261-2.221.005-.013 3.941-.004.268-.867-5.044.063-.327 1.075z" style="fill:#36aee8;fill-opacity:1;fill-rule:nonzero;stroke:none" transform="matrix(1.97212 0 0 -1.97212 171.368 149.96)"/><path d="m0 0 .321-2.672-.755-.091-.209 1.764-1.174-.14.193-1.615-.751-.092-.191 1.617-1.34-.159.212-1.779-.75-.09-.327 2.687z" style="fill:#36aee8;fill-opacity:1;fill-rule:nonzero;stroke:none" transform="matrix(1.97212 0 0 -1.97212 174.325 161.072)"/><path d="m0 0-.045-.915 1.992-.099-.014-.292c-.02-.387-.162-.496-.529-.608l-1.521-.477-.051-1.018 1.912.639c.217.082.485.213.518.458l.013-.001c.055-.584.502-.965 1.066-.993 1.334-.064 1.358 1.104 1.407 2.085l.048.987zm3.993-1.114-.014-.297c-.023-.457-.096-.966-.674-.94-.598.03-.64.55-.619 1.002l.015.297z" style="fill:#36aee8;fill-opacity:1;fill-rule:nonzero;stroke:none" transform="matrix(1.97212 0 0 -1.97212 165.65 169.546)"/><path d="M0 0c.188.248.331.548.401.857.07.309.016.733-.493.848-.815.182-.905-1.848-2.475-1.499-1.027.228-1.247 1.087-1.045 1.986.106.485.219.687.432 1.1l.83-.269a2.083 2.083 0 0 1-.513-.945c-.075-.336.006-.828.429-.923.89-.2.955 1.834 2.51 1.49C1.121 2.414 1.334 1.556 1.158.771A3.427 3.427 0 0 0 .755-.258Z" style="fill:#36aee8;fill-opacity:1;fill-rule:nonzero;stroke:none" transform="matrix(1.97212 0 0 -1.97212 171.505 184.293)"/><path d="m0 0-.308-.861L-4.827.767l.312.86z" style="fill:#36aee8;fill-opacity:1;fill-rule:nonzero;stroke:none" transform="matrix(1.97212 0 0 -1.97212 172.046 188.334)"/><path d="m0 0 .595 1.163.673-.343L-.34-2.322l-.674.343.595 1.163-3.604 1.839.42.819z" style="fill:#36aee8;fill-opacity:1;fill-rule:nonzero;stroke:none" transform="matrix(1.97212 0 0 -1.97212 168.029 194.161)"/><path d="m0 0 3.316-.434-.647-.849-2.257.357.94-2.091-.584-.77L-.555-.729-2.067.419l.552.729z" style="fill:#36aee8;fill-opacity:1;fill-rule:nonzero;stroke:none" transform="matrix(1.97212 0 0 -1.97212 159.659 199.847)"/></g></svg>