<svg xmlns="http://www.w3.org/2000/svg" width="175.33955mm" height="191.5287mm" viewBox="0 0 175.33955 191.5287"><g style="fill:#005baa;fill-opacity:1"><path d="M212.005 82.915a1.91 1.91 0 0 0-1.834-1.383 1.902 1.902 0 0 0-1.083 3.466c.018.164.024.325.024.514 0 3.038-2.476 5.502-5.514 5.502v.25c3.176 0 5.764-2.576 5.764-5.752 0-.122-.004-.243-.013-.361h.001l-.003-.028a6.12 6.12 0 0 0-.022-.255l-.005-.001v-.003a1.664 1.664 0 0 1 .85-3.095c.74 0 1.36.482 1.58 1.146.255.813.394 1.679.394 2.575a8.54 8.54 0 0 1-8.54 8.54v.245a8.785 8.785 0 0 0 8.4-11.36" style="fill:#005baa;fill-opacity:1;fill-rule:nonzero;stroke:none;stroke-width:.352778" transform="matrix(9.98038 0 0 9.98038 -1944.372 -749.367)"/><path d="M195.203 82.915a1.902 1.902 0 1 1 2.916 2.082 5.503 5.503 0 0 0 5.48 6.017v.25a5.753 5.753 0 0 1-5.743-6.113l.003-.028a6.12 6.12 0 0 1 .022-.255l.006-.001v-.003a1.665 1.665 0 0 0-.852-3.095c-.737 0-1.358.482-1.577 1.146a8.551 8.551 0 0 0-.395 2.575c0 4.717 3.829 8.54 8.546 8.54v.245c-4.852 0-8.79-3.935-8.79-8.785 0-.896.134-1.76.384-2.575M205.81 81.225v-2.216h.752v2.216a.915.915 0 1 0 1.831 0l.02-3.078a.916.916 0 0 0-.917-.915l-2.143-.001c-.55 0-.656-.493-.656-.493v-.514a1.14 1.14 0 1 0-2.28 0v.494s-.087.513-.655.513l-2.106.001a.915.915 0 0 0-.916.915v3.078a.915.915 0 1 0 1.831 0v-2.216h.807v2.216a.916.916 0 1 0 1.83 0v-2.216h.764l.007 2.216a.915.915 0 1 0 1.832 0" style="fill:#005baa;fill-opacity:1;fill-rule:nonzero;stroke:none;stroke-width:.352778" transform="matrix(9.98038 0 0 9.98038 -1944.372 -749.367)"/><path d="M201.694 86.52v-.001h-1.079v-.602h-.208l.006.602h-.872v.09h.872l.001.352c0 .556-.894 1.224-.894 1.224l.121.153s.975-.72.975-1.377v-.352h.87v1.073c0 .402-.483.397-.483.397v.201s.698.026.692-.605c-.006-.581 0-1.155 0-1.155M200.713 83.297v-.212h-.206v.212h-.881v.403h.208v-.312h1.556v.312h.208v-.403zM201.212 84.475h-1.2v-.104h1.2zm-1.2.09h1.2v.113h-1.2zm1.2.303h-1.2v-.1h1.2zm.201.09v-.006h.007v-.672h-.208v.001h-1.408v.677h.386a1.773 1.773 0 0 1-.556.32l.135.166s.392-.151.658-.45l-.093-.036h.58l-.099.041c.265.3.656.45.656.45l.127-.16a1.508 1.508 0 0 1-.54-.331zm0 0" style="fill:#005baa;fill-opacity:1;fill-rule:nonzero;stroke:none;stroke-width:.352778" transform="matrix(9.98038 0 0 9.98038 -1944.372 -749.367)"/><path d="M201.088 84.117h-.373v-.233h.373zm-.581 0h-.38v-.233h.38zm-.38-.54h.378v.218h-.377zm.961.218h-.373v-.218h.373zm.207-.31h-.207v.002h-.373v-.001h-.208v.001h-.38v-.001h-.207v.309h-.294v.09h.294v.322h1.375v-.323h.303v-.09h-.303zM203.158 83.79h1.474v-.09h-1.474zM204.446 83.3h-1.098v.09h1.098zM203.348 84.069h1.098v-.09h-1.098zM203.348 84.372h1.098v-.09h-1.098zM204.237 85.272h-.68v-.52h.68zm-.889-.52v.61h1.098v-.7h-1.098zM203.16 83.177l-.19-.092s-.186.507-.646 1.2l.19.119s.112-.17.244-.397v1.452h.208v-1.83c.083-.161.155-.322.193-.452M207.674 87.043v-.09h-.709v-.88h-.208v.88h-.675v.09h.675v1.094h-.563v.09h1.385v-.09h-.614v-1.094zm0 0" style="fill:#005baa;fill-opacity:1;fill-rule:nonzero;stroke:none;stroke-width:.352778" transform="matrix(9.98038 0 0 9.98038 -1944.372 -749.367)"/><path d="m206.181 85.96-.19-.093s-.186.507-.645 1.202l.19.117s.112-.17.244-.396v1.452h.208v-1.83a2.8 2.8 0 0 0 .193-.452M206.34 84.073c.056-.098.1-.192.134-.283h.117c.022.102.053.196.092.283zm1.32 0h-.774a1.311 1.311 0 0 1-.098-.283h.59v-.09h-.874c.025-.079.041-.153.052-.222h1.012v-.09h-1c.021-.183.004-.302.004-.302h-.186s.015.12-.01.302h-.966v.09h.95a1.637 1.637 0 0 1-.059.223h-.705v.09h.672a1.739 1.739 0 0 1-.147.282h-.804v.088h.742c-.16.214-.394.425-.739.591 0 0 .117.144.113.144.415-.218.68-.48.85-.735h.1v.42h-.392v.09h.391v.29h-.694v.09h.694v.403h.209v-.403h.689v-.09h-.69v-.29h.392v-.09h-.391v-.42h.136c.292.549.847.739.847.739l.07-.153c0 .004-.45-.156-.709-.586h.725zM203.122 86.704h.886v-.09h-.886zM202.426 88.18l.197.066.224-.676-.199-.064zM203.797 87.898l.144-.151-.396-.374-.143.152zM204.317 87.464l-.142.152.504.474.142-.15zm0 0" style="fill:#005baa;fill-opacity:1;fill-rule:nonzero;stroke:none;stroke-width:.352778" transform="matrix(9.98038 0 0 9.98038 -1944.372 -749.367)"/><path d="M204.142 88.079c-.064.112-.244.09-.244.09h-.555s-.202.016-.202-.239v-.351h-.208v.336c0 .429.331.36.331.36h.634s.295.037.361-.101c.065-.138.11-.218.11-.218l-.121-.062-.106.185M204.09 87.174c0 .12-.09.12-.09.12v.202s.299.06.299-.322v-.27h-1.368v.092h1.16zM202.491 86.803c.638-.113.95-.42 1.094-.64.135.195.485.589 1.145.64 0 .005.072-.146.072-.146s-.792-.028-1.115-.674l-.01.003c.02-.046.025-.072.025-.072h-.185c-.238.624-1.106.741-1.106.741s.08.153.08.148M211.622 84.85c.003.033.007.068.008.104M196 85.505a.454.454 0 0 1-.282-.087c-.077-.058-.114-.143-.114-.26 0-.067.007-.12.017-.162a.325.325 0 0 1 .047-.1l.252.001a.482.482 0 0 0-.048.196c0 .034.013.065.036.09.025.024.066.037.125.038l1.234.007-.001.285zM195.72 86.717l-.086-.797 1.64-.178.082.765-.245.026-.052-.481-.438.047.04.373-.247.028-.04-.375-.465.05.056.516zM196.848 87.806c.227-.056.404-.145.532-.265a.413.413 0 0 0 .132-.424.427.427 0 0 0-.313-.327c-.168-.052-.368-.048-.6.009l-.09.023c-.25.06-.429.153-.538.279a.437.437 0 0 0-.108.413.438.438 0 0 0 .288.317c.154.06.358.058.61-.004zm-.584-.208c-.097-.014-.156-.06-.175-.14-.024-.097.003-.169.077-.216.076-.046.223-.096.442-.15l.039-.008c.219-.055.373-.077.466-.069.09.01.148.06.17.15.024.098-.008.171-.097.22-.089.05-.232.099-.428.147l-.044.01c-.204.05-.354.07-.45.056M196.517 89.246l-.05-.111.695-.997-.948.416-.081-.186 1.51-.661.06.139-.655.945.898-.394.081.186zM197.343 89.945c-.062.004-.116-.028-.163-.093l-.065-.09.48-.345.056.079c.048.067.064.132.043.191a.349.349 0 0 1-.138.168.421.421 0 0 1-.213.09m.58-.108a.313.313 0 0 0-.007-.252.239.239 0 0 0 .175.062.4.4 0 0 0 .206-.088.35.35 0 0 0 .153-.208c.017-.077-.012-.17-.086-.273l-.262-.364-1.34.962.257.357a.417.417 0 0 0 .304.189c.12.012.248-.032.383-.128a.57.57 0 0 0 .217-.257m.019-.397c-.04 0-.077-.023-.11-.07l-.06-.08.298-.215.058.08c.032.044.043.084.034.123-.008.038-.04.077-.092.116a.214.214 0 0 1-.128.046M198.53 91.009a.564.564 0 0 1-.334.18c-.115.011-.225-.038-.334-.146-.116-.117-.167-.233-.151-.35.015-.118.088-.241.219-.373l.784-.784.201.2-.816.817a.351.351 0 0 0-.109.175c-.01.053.013.107.066.162.051.05.102.073.155.069.052-.004.116-.043.189-.117l.81-.812.149.15zM199.34 92.231l-.267-.198.061-.709-.073.03-.32.433-.228-.17.98-1.326.228.17-.412.557.728-.324.227.169-.842.337zM200.98 92.507c-.072.158-.166.257-.282.296a.525.525 0 0 1-.391-.04 1.133 1.133 0 0 1-.201-.115.599.599 0 0 1-.12-.111l.118-.26a.45.45 0 0 0 .108.128.622.622 0 0 0 .168.113c.085.038.15.05.196.035.044-.015.082-.056.113-.125a.217.217 0 0 0 .019-.13c-.008-.045-.053-.12-.134-.224a.565.565 0 0 1-.121-.263.559.559 0 0 1 .06-.317.448.448 0 0 1 .246-.241.452.452 0 0 1 .368.023.75.75 0 0 1 .256.186l-.102.226c-.037-.033-.074-.066-.114-.096a.612.612 0 0 0-.131-.079c-.07-.032-.126-.04-.168-.026a.16.16 0 0 0-.094.085.205.205 0 0 0-.02.137c.01.037.058.107.145.212a.529.529 0 0 1 .137.287.563.563 0 0 1-.057.299M201.908 93.259a.337.337 0 0 1-.114.017.69.69 0 0 1-.18-.028.508.508 0 0 1-.343-.314c-.064-.163-.059-.37.016-.626l.018-.063c.068-.237.177-.414.325-.527a.494.494 0 0 1 .457-.102c.068.021.123.043.166.067a.324.324 0 0 1 .093.07l-.071.248a.33.33 0 0 0-.082-.07.48.48 0 0 0-.133-.057c-.1-.03-.19-.001-.276.081a.89.89 0 0 0-.205.392l-.007.022c-.054.189-.07.337-.044.442.026.106.082.171.173.199a.515.515 0 0 0 .277.008zM202.572 93.422l-.28-.046.272-1.627.28.047zM203.82 93.528l-.8-.044.09-1.647.769.043-.014.245-.484-.026-.025.44.377.02-.014.248-.376-.02-.027.466.519.03zM205.192 93.364l-.12.018-.785-.926.16 1.023-.2.03-.254-1.628.15-.024.746.877-.15-.969.2-.032zM206.363 92.975a.314.314 0 0 1-.087.079.584.584 0 0 1-.164.074.503.503 0 0 1-.458-.072c-.145-.099-.255-.275-.335-.529l-.02-.063c-.074-.236-.08-.441-.02-.618a.494.494 0 0 1 .325-.337.862.862 0 0 1 .174-.037.316.316 0 0 1 .118.007l.077.246a.379.379 0 0 0-.106-.012.544.544 0 0 0-.145.023c-.097.032-.16.106-.184.223a.908.908 0 0 0 .047.439l.007.022c.058.189.127.32.206.392.08.075.166.098.254.07a.454.454 0 0 0 .149-.072.658.658 0 0 0 .087-.075zM207.453 92.535l-.726.342-.704-1.49.696-.329.105.223-.439.206.188.4.34-.16.108.224-.34.16.198.423.47-.222zM208.835 91.524a.344.344 0 0 1-.053.102.615.615 0 0 1-.127.128.504.504 0 0 1-.455.095c-.17-.042-.336-.17-.499-.379l-.041-.05c-.152-.196-.232-.388-.237-.571a.495.495 0 0 1 .187-.432.762.762 0 0 1 .15-.096.344.344 0 0 1 .112-.034l.159.203a.346.346 0 0 0-.104.025.495.495 0 0 0-.126.075c-.082.063-.113.154-.094.273.018.117.084.249.197.394l.014.018c.121.155.233.253.332.294.1.042.189.034.262-.024a.45.45 0 0 0 .113-.119.829.829 0 0 0 .056-.1zM209.183 89.98a1.144 1.144 0 0 0-.517-.293.408.408 0 0 0-.426.128.43.43 0 0 0-.096.443c.052.166.165.33.343.49l.07.064c.189.17.367.268.532.289a.44.44 0 0 0 .404-.142.437.437 0 0 0 .1-.416c-.037-.161-.153-.328-.344-.503zm.154.601c.043.087.037.162-.018.222-.067.075-.14.093-.222.057-.08-.037-.204-.131-.372-.283l-.03-.027c-.165-.15-.27-.266-.314-.348-.044-.08-.036-.157.027-.224.068-.076.146-.09.237-.043.091.046.211.137.361.273l.033.029c.156.142.255.256.298.344M210.45 89.588l-.4.64-1.398-.876.15-.24 1.19.745.25-.399zM210.941 88.601l-.326.68-1.487-.713.124-.258 1.263.61.204-.425zM211.334 87.515l-.26.76-1.56-.535.249-.728.231.08-.155.46.416.142.122-.356.235.08-.122.356.443.152.168-.49zM211.355 86.181a.514.514 0 0 1 .164.204.513.513 0 0 1 .024.302.45.45 0 0 1-.274.347c-.152.07-.358.08-.619.032l-.088-.016c-.231-.042-.41-.127-.537-.257a.509.509 0 0 1-.14-.471.514.514 0 0 1 .126-.267l.26.046a1.233 1.233 0 0 0-.074.097.346.346 0 0 0-.057.143.284.284 0 0 0 .09.263c.079.078.22.134.429.173l.022.002c.215.04.37.043.46.011.091-.03.145-.088.16-.173a.252.252 0 0 0-.008-.128.176.176 0 0 0-.057-.086l-.332-.06-.034.19-.215-.039.077-.424zM211.627 84.999l.001.803-1.65.002v-.77h.246v.483h.442v-.375h.249v.375h.467V85zm0 0" style="fill:#005baa;fill-opacity:1;fill-rule:nonzero;stroke:none;stroke-width:.352778" transform="matrix(9.98038 0 0 9.98038 -1944.372 -749.367)"/></g></svg>