<svg xmlns="http://www.w3.org/2000/svg" xml:space="preserve" width="394.95721" height="394.95721" viewBox="0 0 394.95721 394.9572"><g transform="translate(3.89 3.246)"><circle cx="193.58884" cy="194.23276" r="197.47861" style="fill:#fff;stroke-width:1"/><path d="M52.929 193.944c0-77.88 63.134-141.014 141.02-141.014 77.874 0 141.008 63.135 141.008 141.014 0 77.883-63.134 141.015-141.009 141.015-77.885 0-141.02-63.132-141.02-141.015zm-52.43 0C.5 87.111 87.121.502 193.95.502c106.826 0 193.44 86.61 193.44 193.442 0 106.841-86.614 193.447-193.44 193.447C87.12 387.39.498 300.785.498 193.944Zm377.64-59.253c6.002 18.672 9.25 38.587 9.25 59.253 0 106.841-86.614 193.447-193.44 193.447C87.12 387.39.498 300.785.498 193.944c0-18.792 2.682-36.96 7.688-54.138m-3.17 12.413C24.098 65.445 101.446.502 193.948.502c91.785 0 168.647 63.941 188.474 149.704m.832 3.805a193.56 193.56 0 0 1 4.135 39.933c0 106.841-86.614 193.447-193.44 193.447C87.12 387.39.498 300.785.498 193.944c0-12.228 1.14-24.186 3.304-35.78" style="fill:none;stroke:#009748;stroke-width:.999997;stroke-linecap:butt;stroke-linejoin:miter;stroke-miterlimit:4;stroke-dasharray:none;stroke-opacity:1"/><path d="M28.326 160.634a3.367 3.367 0 0 0 0-6.734 3.368 3.368 0 0 0-3.373 3.36 3.373 3.373 0 0 0 3.373 3.374M356.061 160.634a3.38 3.38 0 0 1-3.366-3.374c0-1.85 1.52-3.36 3.366-3.36a3.36 3.36 0 0 1 3.363 3.36 3.365 3.365 0 0 1-3.363 3.374M64.063 113.609c-1.09.062-2.029-.19-2.812-.77l-6.449-4.693 2.901-3.996 6.488 4.712 13.602-18.676 3.188 2.324-13.902 19.101c-.917 1.268-1.934 1.93-3.016 1.998m-1.749-28.586-3.508 4.83-3.367-2.451 3.51-4.819-5.422-3.953 2.91-4.003 17.08 12.446-2.911 3.993zm-3.183 12.655c-1.757.801-3.314 1.199-4.666 1.199.482 1.228.617 2.74.405 4.562-.21 1.812-1.052 3.808-2.53 5.994l-3.386-2.471c1.268-1.773 1.847-3.533 1.75-5.273-.086-1.739-1.14-3.358-3.151-4.852l-1.324-.956-4.35 5.977-3.376-2.45 11.543-15.815 3.353 2.445-4.309 5.927 1.316.961c2.096 1.475 4.019 1.885 5.75 1.243 1.751-.647 3.277-1.818 4.63-3.504l3.385 2.465c-1.608 2.232-3.28 3.755-5.04 4.548M111.595 55.97l2.368 4.5 15.004-7.873-2.359-4.495zm.252 9.035c-.89-.324-1.584-.948-2.078-1.876l-4.436-8.483 23.662-12.412 6.159 11.74-20.29 10.644c-1.102.579-2.106.71-3.017.387m16.307-24.375-4.386 2.296-7.089-13.52 4.381-2.296 3.111 5.944 3.356-1.759 1.932 3.684-3.355 1.76zm-24.57 11.31c-1.006-.415-1.733-1.063-2.197-1.929l-5.181-9.87 4.379-2.296 5.084 9.692 13.854-7.275 1.961 3.717-14.315 7.506c-1.392.725-2.58.885-3.586.456M201.034 22.769l-2.427.055.435 19.457-4.939.112-.679-30.33 4.942-.11.142 6.713 2.428-.058-.154-6.714 4.948-.106.668 30.329-4.931.112zm-24.286 9.648a3.703 3.703 0 0 1-1.178-2.67l-.388-17.278 15.316-.343.086 4.162-10.362.228.289 12.783 10.399-.242.088 4.161-11.25.257c-1.248.03-2.245-.324-3-1.058M263.85 33.834a4.104 4.104 0 0 0-2.167-2.307 4.07 4.07 0 0 0-3.152-.184c-1.07.364-1.847 1.06-2.339 2.09a3.883 3.883 0 0 0-.104 3.132 4.12 4.12 0 0 0 2.155 2.305 4.11 4.11 0 0 0 3.158.184c1.067-.368 1.847-1.064 2.32-2.097.495-1.026.524-2.066.128-3.123m3.78 20.197-21.21-9.925 1.77-3.77 25.587 11.985-4.35 9.29-4.387-2.054zm6.962-3.434-4.479-2.098 7.707-16.458 4.474 2.098-2.844 6.08 3.424 1.604-1.76 3.764-3.433-1.602zm-6.075-13.93a8.363 8.363 0 0 1-.676 2.218c-1.015 2.161-2.65 3.61-4.872 4.365-2.232.753-4.427.613-6.592-.397-2.156-1.015-3.665-2.626-4.505-4.843-.85-2.213-.774-4.379.224-6.501a7.725 7.725 0 0 1 1.294-1.952 8.893 8.893 0 0 1 1.71-1.5l-2.23-1.034 1.838-3.894 6.85 3.213 1.267-2.717 4.292 2.012-1.267 2.716 6.823 3.196-1.836 3.924-2.259-1.059a8.765 8.765 0 0 1-.06 2.252M309.36 83.854l2.29 2.876 11.33-9.044 3.007 3.785-11.314 9.034 2.816 3.518 11.31-9.038 3.016 3.776-11.312 9.046 3.045 3.81 15.15-12.108-13.485-16.883 3.246-2.6 16.514 20.672-18.406 14.704 1.429 1.784-3.247 2.595-18.648-23.332zM268.952 157.206l.037-13.016 19.656.057-.04-31.664-89.978-.009.039 31.5 39.76.005v.023l-.008 4.665s5.95-2.248 8.205-1.673c0 0 .852 2.548.983 3.538 0 0 9.349-5.49 13.566 7.68 0 0 5.944-1.677 7.78-1.106M268.865 184.93l-.076 28.3-.058 16.694c.81 16.975 18.329 23.819 18.329 23.819l-.097 33.104c-18.386-1.75-33.614-19.339-33.614-19.339-14.218 15.283-33.367 23.821-55.234 25.392l.05-30.538s37.506 1.137 40.027-40.454l.048-14.426s6.952-4.79 8.943-11.44c0 0-1.264-1.412-2.243-1.982 0 0 3.82-2.113 2.147-9.333 0 0 13.998 3.436 21.778.203M154.526 249.832a59.393 59.393 0 0 0 35.726 12.87l-.076 30.418c-19.344-.26-37.168-6.62-51.697-17.222 0 0 11.301-5.436 16.133-16.458 0 0-.56-1.276-2.397-1.99 0 0 4.281-3.8 2.31-7.618M133.955 218.524a59.267 59.267 0 0 1-1.884-11.597l-30.461-.107a89.748 89.748 0 0 0 9.784 37.346s5.074.02 8.457 2.866c0 0-2.35-13.274 14.104-28.508M190.623 137.597l-.021 6.302c-30.264-.092-56.21 24.253-58.618 55.06l-30.354-.104c.995-21.49 9.532-41.848 22.745-54.976l.164-.12-23.781-.068-.036-31.402 89.988.134zM113.17 256.564a2.91 2.91 0 0 0 2.912-2.892 2.896 2.896 0 0 0-2.89-2.917 2.913 2.913 0 0 0-2.911 2.896 2.917 2.917 0 0 0 2.889 2.913m-6.39-2.922a6.404 6.404 0 0 1 6.42-6.384 6.392 6.392 0 0 1 6.38 6.425 6.397 6.397 0 0 1-6.42 6.379 6.397 6.397 0 0 1-6.38-6.42M145.295 254.248a2.904 2.904 0 0 0 2.91-2.89 2.907 2.907 0 0 0-2.889-2.914 2.91 2.91 0 0 0-2.912 2.898 2.898 2.898 0 0 0 2.891 2.906m-6.39-2.921a6.401 6.401 0 1 1 12.803.04 6.401 6.401 0 0 1-12.802-.04M158.684 224.858a2.91 2.91 0 0 0 2.907-2.89 2.912 2.912 0 0 0-2.899-2.909 2.899 2.899 0 0 0-2.9 2.892 2.89 2.89 0 0 0 2.892 2.907m-6.402-2.918a6.407 6.407 0 0 1 6.428-6.38 6.388 6.388 0 0 1 6.372 6.419 6.39 6.39 0 0 1-6.418 6.38 6.397 6.397 0 0 1-6.382-6.419M192.074 222.41a2.888 2.888 0 0 0 2.908-2.887 2.903 2.903 0 0 0-2.89-2.915 2.907 2.907 0 0 0-2.91 2.895 2.897 2.897 0 0 0 2.892 2.907m-6.39-2.918a6.4 6.4 0 0 1 6.418-6.385c3.537.005 6.388 2.887 6.381 6.421a6.404 6.404 0 0 1-6.42 6.391c-3.528-.016-6.4-2.892-6.379-6.427M205.18 193.022a2.9 2.9 0 0 0 2.91-2.89 2.91 2.91 0 0 0-2.9-2.91 2.903 2.903 0 0 0-2.902 2.89 2.89 2.89 0 0 0 2.892 2.91m-6.389-2.919a6.4 6.4 0 1 1 12.801.039 6.399 6.399 0 0 1-6.422 6.385 6.39 6.39 0 0 1-6.379-6.424" style="fill:#009748;fill-opacity:1;fill-rule:nonzero;stroke:none;stroke-width:1.33333"/><path d="M238.299 190.86a2.897 2.897 0 0 0 2.903-2.898 2.897 2.897 0 0 0-2.892-2.906 2.91 2.91 0 0 0-2.92 2.895c0 1.6 1.296 2.905 2.909 2.91m-6.4-2.93c0-3.532 2.881-6.39 6.43-6.379a6.413 6.413 0 0 1 6.382 6.423 6.416 6.416 0 0 1-6.432 6.385 6.404 6.404 0 0 1-6.38-6.429M251.388 162.034a2.897 2.897 0 0 0 2.919-2.89 2.897 2.897 0 0 0-2.902-2.91 2.9 2.9 0 0 0-.017 5.8m-6.398-2.919a6.421 6.421 0 0 1 6.426-6.386 6.404 6.404 0 0 1 6.38 6.425c0 3.533-2.881 6.39-6.418 6.38a6.416 6.416 0 0 1-6.388-6.419M193.146 187.235c-8.362 1.867-15.244 11.161-15.244 11.161-7.503 10.871-5.712 19.036-5.712 19.036l20.9-30.065zm2.35 1.89-21.017 29.993s8.275-1.146 15.903-11.939c0 0 6.348-9.663 5.22-18.145zm-26.933 35.467s-5.045-33.446 29.34-42.542c0 0 8.507 32.238-29.34 42.542" style="fill:#009748;fill-opacity:1;fill-rule:nonzero;stroke:none;stroke-width:1.33333"/><path d="M236.79 196.568c-7.462-4.194-18.791-1.884-18.791-1.884-12.848 3.06-16.975 10.324-16.975 10.324l35.643-8.368zm.484 2.983-35.679 8.248s6.921 4.687 19.808 1.753c0 0 11.185-2.94 16.007-9.996zm-43.742 8.363s18.619-28.243 50.268-12.016c0 0-15.226 29.664-50.268 12.016M147.207 219.075c-8.352 1.865-15.223 11.159-15.223 11.159-7.524 10.872-5.733 19.042-5.733 19.042l20.9-30.07zm2.361 1.895-21.028 29.978s8.286-1.13 15.903-11.933c0 0 6.352-9.664 5.223-18.137zm-26.944 35.466s-5.034-33.446 29.34-42.544c0 0 8.515 32.238-29.34 42.544" style="fill:#009748;fill-opacity:1;fill-rule:nonzero;stroke:none;stroke-width:1.33333"/><path d="M190.292 228.694c-7.453-4.203-18.793-1.892-18.793-1.892-12.845 3.065-16.975 10.332-16.975 10.332l35.64-8.379zm.484 2.982-35.67 8.236s6.91 4.694 19.796 1.766c0 0 11.186-2.948 16.018-10.002zm-43.744 8.355s18.618-28.236 50.258-12.016c0 0-15.214 29.665-50.258 12.016M239.632 155.113c-8.341 1.866-15.226 11.155-15.226 11.155-7.512 10.876-5.732 19.04-5.732 19.04l20.92-30.06zm2.368 1.894-21.026 29.988s8.288-1.136 15.894-11.935c0 0 6.362-9.666 5.239-18.145zm-26.942 35.468s-5.034-33.452 29.34-42.548c0 0 8.506 32.243-29.34 42.548" style="fill:#009748;fill-opacity:1;fill-rule:nonzero;stroke:none;stroke-width:1.33333"/><path d="M282.439 165.867c-7.455-4.2-18.784-1.895-18.784-1.895-12.856 3.07-16.995 10.331-16.995 10.331l35.65-8.372zm.481 2.983-35.672 8.24s6.913 4.69 19.799 1.75c0 0 11.176-2.934 16.018-9.99zm-43.741 8.357s18.617-28.237 50.256-12.021c0 0-15.223 29.668-50.256 12.021M144.172 260.755c-7.492-4.121-18.804-1.708-18.804-1.708-12.825 3.177-16.894 10.48-16.894 10.48l35.573-8.7zm.502 2.983-35.59 8.573s6.958 4.627 19.814 1.572c0 0 11.166-3.041 15.932-10.15zm-43.655 8.768s18.348-28.412 50.153-12.491c0 0-14.956 29.81-50.153 12.49M34.88 204.76c.36-.842.511-1.925.463-3.24-.104-2.29-.976-4.284-2.608-5.964-1.628-1.673-3.666-2.46-6.092-2.35-2.433.106-4.38 1.064-5.86 2.885-1.478 1.819-2.165 3.872-2.062 6.164.05 1.313.302 2.383.734 3.193.44.808.968 1.463 1.603 1.952l-6.47.287a1.29 1.29 0 0 0 .263-.281.732.732 0 0 0 .12-.311 1.016 1.016 0 0 0 .092-.293c.016-.104.026-.211.016-.324-.005-.232-.117-.708-.337-1.435-.213-.735-.339-1.593-.388-2.593-.163-3.755.887-6.958 3.143-9.63 2.261-2.669 5.234-4.086 8.934-4.249 3.714-.164 6.796.987 9.29 3.441 2.484 2.46 3.806 5.562 3.973 9.316a9.97 9.97 0 0 1-.019 1.4 16.467 16.467 0 0 1-.137 1.128c-.056.327-.107.618-.143.878a2.365 2.365 0 0 0-.058.668 1.108 1.108 0 0 0 .212.67c.134.179.249.344.377.498l-6.467.28c.588-.546 1.063-1.235 1.42-2.09M40.457 221.675a1.28 1.28 0 0 0 .745-.387c.183-.209.33-.449.445-.714l1.074 6.284a3.03 3.03 0 0 0-.648-.522 1.225 1.225 0 0 0-.831-.128l-21.247 3.64a1.239 1.239 0 0 0-.724.406 3.03 3.03 0 0 0-.469.701l-1.073-6.287c.197.22.421.394.676.527a1.288 1.288 0 0 0 .808.115l8.746-1.494-1.333-7.764-8.73 1.498a1.267 1.267 0 0 0-.735.386 2.627 2.627 0 0 0-.47.718l-1.076-6.316c.194.213.423.389.668.525a1.296 1.296 0 0 0 .826.121l21.232-3.645c.321-.05.56-.184.744-.383.184-.201.329-.449.454-.718l1.084 6.318a2.838 2.838 0 0 0-.658-.533 1.28 1.28 0 0 0-.84-.104l-8.527 1.457 1.316 7.758zM36.891 237.067c-2.06-1.157-4.214-1.367-6.456-.617-2.234.75-3.85 2.202-4.798 4.366-.96 2.162-1.078 4.33-.343 6.51.723 2.2 2.123 3.878 4.192 5.036 2.05 1.162 4.213 1.36 6.447.617 2.244-.745 3.848-2.204 4.793-4.356.97-2.172 1.077-4.345.343-6.553-.727-2.172-2.11-3.84-4.178-5.003m-15.202 1.576c1.492-3.273 3.917-5.47 7.285-6.592 3.363-1.12 6.623-.816 9.784.91 3.16 1.725 5.315 4.305 6.457 7.733 1.15 3.452.974 6.817-.522 10.092-1.498 3.273-3.926 5.473-7.299 6.593-3.353 1.123-6.612.812-9.775-.907-3.172-1.73-5.329-4.32-6.469-7.766-1.144-3.434-.96-6.778.539-10.063M44.875 263.408l-13.012 6.738a1.244 1.244 0 0 0-.578.585 2.255 2.255 0 0 0-.223.827l-2.959-5.686c.262.147.531.244.812.29a1.228 1.228 0 0 0 .811-.132l19.132-9.915c.28-.143.472-.343.59-.59.117-.255.193-.527.213-.822l2.609 5.053-9.51 15.499.027.052 12.624-6.539c.291-.148.483-.346.59-.597.126-.25.182-.524.213-.816l2.948 5.687a2.239 2.239 0 0 0-.792-.296 1.23 1.23 0 0 0-.821.133l-19.132 9.919a1.21 1.21 0 0 0-.579.586 2.715 2.715 0 0 0-.223.83l-2.462-4.756 9.76-15.994zM56.367 283.552l-11.966 8.467a1.384 1.384 0 0 0-.492.657 2.268 2.268 0 0 0-.098.85L40.1 288.3c.27.108.56.172.831.178a1.285 1.285 0 0 0 .793-.25l17.595-12.437a1.257 1.257 0 0 0 .503-.679c.076-.254.106-.54.096-.837l3.284 4.65-7.298 16.648.042.056 11.598-8.212a1.253 1.253 0 0 0 .514-.671 3.04 3.04 0 0 0 .096-.838l3.693 5.237a2.373 2.373 0 0 0-.821-.193 1.216 1.216 0 0 0-.794.25l-17.594 12.443a1.31 1.31 0 0 0-.492.658 2.517 2.517 0 0 0-.107.857l-3.093-4.37 7.464-17.182zM75.733 303.507l.173-.26-9.328 4.448 4.563 4.874zm-14.464 6.354c-.412.174-.898.383-1.399.618-.524.228-.89.458-1.13.672a1.396 1.396 0 0 0-.36.55 3.388 3.388 0 0 0-.125.567l-4.322-4.6a5.903 5.903 0 0 0 2.358-.433l18.31-7.379c.442-.179.937-.388 1.45-.623.514-.229.88-.449 1.095-.648.183-.173.297-.362.356-.57.056-.204.097-.399.115-.572l3.49 3.728-10.178 21.69a5.684 5.684 0 0 0-.42 1.152 6.487 6.487 0 0 0-.162 1.168l-4.389-4.677c.184-.009.379-.045.59-.101a1.328 1.328 0 0 0 .571-.322c.224-.218.475-.565.755-1.06.27-.489.501-.949.693-1.373l.602-1.315-6.554-6.986zM88.56 327.019l.05.04 13.01-7.746 4.06 3.212c-.378 0-.686.087-.918.255a2.664 2.664 0 0 0-.59.556c-.211.265-.522.75-.927 1.439a117.545 117.545 0 0 0-.928 1.616l-8.566 15.045a6.276 6.276 0 0 0-.521 1.23c-.087.351-.127.647-.107.88l-4.706-3.722c.309.01.57-.035.772-.153.202-.112.385-.275.56-.49.174-.202.376-.545.649-.982.26-.444.523-.878.793-1.318l5.858-9.878-.06-.035-15.118 8.541-.05-.04 4.972-16.589-.06-.047-8.063 7.707c-.627.576-1.13 1.035-1.499 1.376a7.773 7.773 0 0 0-.857.893 1.563 1.563 0 0 0-.272 1.208l-4.437-3.509c.262-.019.542-.123.869-.285.321-.174.679-.434 1.073-.786l12.656-11.805c.316-.296.774-.72 1.342-1.275.592-.556.986-.96 1.198-1.229.155-.199.29-.428.408-.704.115-.27.135-.581.056-.93l3.994 3.149zM118.46 340.747l-6.246 13.269a1.253 1.253 0 0 0-.096.816 2.293 2.293 0 0 0 .317.79l-5.797-2.727c.297-.042.56-.122.821-.255a1.34 1.34 0 0 0 .57-.601l9.173-19.492a1.27 1.27 0 0 0 .115-.838 2.563 2.563 0 0 0-.336-.769l5.15 2.423 1.839 18.093.076.027 6.05-12.863c.14-.287.174-.561.108-.832a2.373 2.373 0 0 0-.329-.78l5.79 2.728a2.53 2.53 0 0 0-.8.25 1.147 1.147 0 0 0-.571.607l-9.186 19.492a1.387 1.387 0 0 0-.106.822c.061.274.176.54.332.785l-4.846-2.275-1.953-18.636zM145.16 348.581l.016-.31-5.916 8.476 6.371 1.982zm-9.446 12.668c-.28.362-.59.776-.918 1.23-.329.46-.554.836-.64 1.141a1.21 1.21 0 0 0-.036.644c.036.219.087.407.152.57l-6.012-1.871c.311-.168.627-.383.967-.663.35-.275.62-.567.87-.872l12.26-15.463c.305-.388.637-.801.963-1.254.332-.454.543-.826.63-1.107a1.13 1.13 0 0 0 .028-.668 4.28 4.28 0 0 0-.183-.561l4.89 1.52 1.846 23.888c.02.386.097.79.215 1.209a6.107 6.107 0 0 0 .425 1.096l-6.12-1.897c.156-.103.31-.226.465-.378.144-.157.252-.341.328-.561.098-.307.136-.735.136-1.296-.01-.561-.038-1.07-.069-1.54l-.133-1.437-9.147-2.836zM171.26 354.517a1.973 1.973 0 0 0-.629-1.122c-.35-.347-1.181-.642-2.495-.898l-1.846-.341-3.491 18.564a1.248 1.248 0 0 0 .108.816 2.427 2.427 0 0 0 .484.683l-6.265-1.183c.262-.107.513-.26.726-.448a1.307 1.307 0 0 0 .396-.724l3.491-18.564-1.887-.353c-1.296-.244-2.165-.275-2.64-.08-.464.193-.802.462-.996.814l.996-5.324 15.043 2.831zM171.366 372.796a1.29 1.29 0 0 0 .338-.75l2.387-21.405a1.227 1.227 0 0 0-.163-.825 2.285 2.285 0 0 0-.561-.628l6.37.71a2.581 2.581 0 0 0-.697.489c-.19.193-.297.448-.338.765l-2.387 21.419a1.24 1.24 0 0 0 .163.801c.148.244.332.459.561.648l-6.36-.71c.25-.137.495-.3.687-.514M188.967 356.76c-1.74 1.596-2.619 3.576-2.608 5.936.009 2.372.9 4.341 2.648 5.927 1.75 1.586 3.77 2.372 6.07 2.366 2.32 0 4.35-.812 6.1-2.402 1.74-1.591 2.62-3.579 2.61-5.936-.01-2.371-.897-4.346-2.647-5.926-1.752-1.586-3.789-2.381-6.109-2.372-2.293.005-4.315.812-6.064 2.407m-3.256 14.943c-2.65-2.448-3.973-5.442-3.984-8.991-.008-3.544 1.307-6.543 3.925-9.012 2.631-2.468 5.752-3.696 9.368-3.701 3.635-.011 6.768 1.202 9.415 3.65 2.65 2.443 3.972 5.438 3.983 8.982.01 3.549-1.306 6.553-3.924 9.01-2.63 2.47-5.771 3.703-9.407 3.708-3.605.016-6.727-1.202-9.376-3.646M216.47 357.45l2.31 14.473a1.23 1.23 0 0 0 .379.74 2.2 2.2 0 0 0 .713.464l-6.338 1.016c.218-.2.402-.43.54-.674.136-.25.173-.526.125-.817l-3.384-21.277a1.18 1.18 0 0 0-.377-.748 2.48 2.48 0 0 0-.715-.455l5.636-.903 11.696 13.919.07-.01-2.235-14.04a1.23 1.23 0 0 0-.376-.751 2.773 2.773 0 0 0-.704-.459l6.318-1.005a2.456 2.456 0 0 0-.53.658c-.135.235-.174.51-.125.827l3.374 21.281a1.267 1.267 0 0 0 .376.73 2.387 2.387 0 0 0 .716.48l-5.29.836-12.1-14.296zM242.919 348.907l-.163-.276-.128 10.337 6.39-1.948zm-.687 15.784a38.787 38.787 0 0 0-.059 1.529c-.018.561.011.995.107 1.301a1.275 1.275 0 0 0 .33.562c.157.152.309.28.46.381l-6.029 1.836c.166-.315.308-.683.426-1.09.125-.425.194-.822.221-1.21l1.441-19.685c.04-.495.078-1.02.087-1.582.02-.561-.009-.989-.106-1.269a1.068 1.068 0 0 0-.347-.567 3.413 3.413 0 0 0-.465-.356l4.892-1.496 14.973 18.708c.233.306.522.602.861.878.33.274.657.498.967.673l-6.128 1.865a4.06 4.06 0 0 0 .164-.566 1.323 1.323 0 0 0-.039-.647c-.09-.305-.29-.693-.61-1.152a20.097 20.097 0 0 0-.937-1.235l-.909-1.112-9.164 2.795zM258.096 338.076a1.275 1.275 0 0 0 .087.83l7.557 17.309 5.532-2.411c.579-.256 1.008-.55 1.257-.867.26-.328.432-.694.52-1.102l2.04 4.686-12.798 5.595c.166-.25.28-.51.35-.79a1.267 1.267 0 0 0-.077-.817l-8.624-19.75a1.343 1.343 0 0 0-.55-.628 2.983 2.983 0 0 0-.804-.266l5.84-2.544a2.55 2.55 0 0 0-.33.755M292.327 342.176c-2.234-.612-3.859-1.652-4.854-3.112l-8.758-12.759a1.31 1.31 0 0 0-.668-.532 2.776 2.776 0 0 0-.83-.096l5.248-3.61a2.91 2.91 0 0 0-.172.805 1.208 1.208 0 0 0 .252.801l8.032 11.724c.86 1.26 1.827 2.04 2.9 2.358 1.063.31 2.127.112 3.18-.607 1.044-.72 1.624-1.643 1.731-2.76.095-1.117-.29-2.3-1.14-3.56l-8.043-11.725c-.184-.259-.397-.434-.668-.514a2.404 2.404 0 0 0-.84-.104l5.258-3.61a2.787 2.787 0 0 0-.174.801 1.273 1.273 0 0 0 .242.81l8.76 12.762c1.004 1.463 1.381 3.355 1.138 5.67-.252 2.315-1.516 4.26-3.798 5.83-2.283 1.56-4.55 2.035-6.796 1.428M303.645 316.548l9.803 10.899a1.287 1.287 0 0 0 .717.417c.27.047.56.05.851.005l-4.768 4.284c.076-.285.107-.57.076-.852a1.192 1.192 0 0 0-.336-.753l-14.395-16.02c-.222-.234-.465-.378-.724-.423a2.685 2.685 0 0 0-.852 0l4.235-3.805 17.392 5.31.045-.04-9.512-10.568c-.21-.24-.444-.382-.724-.424a2.28 2.28 0 0 0-.84 0l4.766-4.282a2.56 2.56 0 0 0-.098.834 1.193 1.193 0 0 0 .35.766l14.412 16.018a1.252 1.252 0 0 0 .706.42c.28.05.57.05.85.004l-3.963 3.579-17.941-5.415zM328.547 314.084a1.241 1.241 0 0 0-.404-.719l-15.894-14.549a1.17 1.17 0 0 0-.762-.348 2.323 2.323 0 0 0-.831.083l4.319-4.733a2.352 2.352 0 0 0-.01.846 1.265 1.265 0 0 0 .42.73l15.89 14.55a1.261 1.261 0 0 0 .744.34c.29.032.572.005.86-.07l-4.332 4.727c.05-.29.05-.576 0-.857" style="fill:#009748;fill-opacity:1;fill-rule:nonzero;stroke:none;stroke-width:1.33333"/><path d="M329.148 276.275a4.547 4.547 0 0 0 .54 1.112l10.343 16.813a88.8 88.8 0 0 0 .832 1.296c.32.479.59.81.852 1.004a1.208 1.208 0 0 0 .598.25c.222.026.416.037.599.026l-3.044 4.019-22.988-6.553a4.464 4.464 0 0 0-1.227-.22 5.713 5.713 0 0 0-1.162.03l3.956-5.206c.026.193.085.377.165.566.087.194.219.367.423.526.242.173.63.346 1.17.514.543.168 1.043.332 1.507.474l14.125 4.406.027-.05-7.965-12.49c-.279-.408-.559-.836-.878-1.305-.321-.47-.592-.79-.821-.975a1.335 1.335 0 0 0-.612-.265 3.713 3.713 0 0 0-.57-.03l3.86-5.076c.035.348.131.724.27 1.134M348.676 286.088a1.427 1.427 0 0 0-.543-.628l-18.53-10.99a1.325 1.325 0 0 0-.822-.188 3.368 3.368 0 0 0-.813.249l7.647-12.861 4.4 2.606a3.19 3.19 0 0 0-1.182.402c-.337.21-.676.582-.994 1.128l-3.584 6.032 5.16 3.06 2.165-3.662c.263-.428.415-.816.481-1.162a3.19 3.19 0 0 0-.018-1.067l4.746 2.821a2.943 2.943 0 0 0-.946.49c-.272.22-.543.545-.803.978l-2.175 3.663 5.338 3.161 3.594-6.042c.319-.547.495-1.016.503-1.412.01-.41-.059-.812-.212-1.22l4.396 2.612-7.624 12.866a2.84 2.84 0 0 0-.184-.836M348.064 259.96c.096-.128.184-.296.281-.505.435-.953.474-1.847.127-2.697-.357-.842-.977-1.47-1.867-1.878-.888-.396-1.77-.457-2.636-.162-.873.296-1.52.918-1.953 1.86a3.276 3.276 0 0 0-.195.552 1.117 1.117 0 0 0-.009.484l5.895 2.678a1.163 1.163 0 0 0 .357-.332m14.714-.99c-.184-.212-.444-.386-.752-.53-1.528-.693-3.32-.765-5.358-.204-2.037.556-3.77 1.81-5.2 3.764l7.638 3.458a1.212 1.212 0 0 0 .812.092c.28-.062.55-.174.794-.338l-2.641 5.84a2.545 2.545 0 0 0-.281-.816 1.213 1.213 0 0 0-.607-.556l-21.353-9.69a2.804 2.804 0 0 0 1.188-1.294c.174-.398.316-.933.433-1.617.108-.69.34-1.419.69-2.177.897-1.99 2.317-3.382 4.27-4.162 1.933-.801 3.924-.73 5.944.19 1.305.59 2.3 1.314 2.99 2.18.675.853.867 2 .57 3.433l.067.027c1.228-1.658 2.84-2.684 4.852-3.066 2.012-.388 3.925-.301 5.742.246.976.29 1.69.417 2.166.381.484-.03.86-.123 1.122-.275l-2.64 5.799a2.372 2.372 0 0 0-.446-.684M351.052 236.287c-.879.132-1.632.413-2.25.852-.611.423-1.055 1.085-1.366 1.963-.192.632-.192 1.177.041 1.637.23.459.598.765 1.092.939 1.63.54 3.45-.367 5.42-2.746 1.975-2.37 4.75-2.961 8.323-1.769 2.304.765 3.852 2.133 4.683 4.096.83 1.968.849 4.136.066 6.507a9.664 9.664 0 0 1-.444 1.05c-.173.347-.35.654-.514.93-.154.265-.306.5-.434.724a2.245 2.245 0 0 0-.281.58c-.096.26-.117.5-.056.709.045.2.104.403.192.597l-6.661-2.222.02-.062c1.033-.209 1.894-.612 2.598-1.214.71-.602 1.21-1.372 1.52-2.3.388-1.142.388-2.174.01-3.091-.376-.913-1.132-1.56-2.254-1.937-2.31-.766-4.32.08-6.033 2.54-1.719 2.453-4.243 3.13-7.557 2.024-1.711-.571-2.882-1.602-3.539-3.107-.65-1.493-.673-3.11-.099-4.859.091-.26.206-.51.343-.75.143-.234.288-.484.433-.715.154-.224.28-.427.406-.621.136-.194.21-.362.262-.49.067-.238.098-.484.067-.725a1.59 1.59 0 0 0-.184-.681l6.217 2.08zM368.937 236.679a1.267 1.267 0 0 0-.69-.443l-20.896-5.258a1.244 1.244 0 0 0-.842.05 2.768 2.768 0 0 0-.705.472l1.576-6.209c.087.281.22.527.396.748a1.207 1.207 0 0 0 .705.441l20.9 5.263a1.28 1.28 0 0 0 .822-.059c.25-.109.5-.265.713-.468l-1.575 6.218a2.172 2.172 0 0 0-.404-.755M355.441 208.956c-.406.064-.773.28-1.11.636-.342.356-.63 1.198-.851 2.511l-.33 1.845 18.607 3.23a1.285 1.285 0 0 0 .823-.115c.252-.125.473-.295.677-.487l-1.09 6.278a2.688 2.688 0 0 0-.466-.719 1.297 1.297 0 0 0-.733-.388l-18.6-3.223-.34 1.884c-.21 1.296-.23 2.175-.027 2.634.194.458.464.793.82.99l-5.336-.924 2.61-15.08zM373.385 201.887a1.35 1.35 0 0 0-.765-.296l-10.21-.7-11.25 5.623c-.357.178-.707.366-1.064.572a2.88 2.88 0 0 0-.87.758l.445-6.558c.117.122.22.234.328.329a.637.637 0 0 0 .396.16c.156.021.349-.021.58-.09.24-.073.502-.185.812-.327l6.64-3.063v-.07l-6.156-3.943a5.973 5.973 0 0 0-.754-.463 1.919 1.919 0 0 0-.572-.175.659.659 0 0 0-.413.111 2.539 2.539 0 0 0-.359.321l.446-6.525c.184.348.433.641.762.883.319.232.639.47.976.696l10.375 7.134 10.207.698a1.2 1.2 0 0 0 .793-.215c.239-.173.444-.357.627-.573l-.444 6.361a2.133 2.133 0 0 0-.53-.648" style="fill:#009748;fill-opacity:1;fill-rule:nonzero;stroke:none;stroke-width:1.33333"/></g></svg>