<svg xmlns="http://www.w3.org/2000/svg" width="220.95271mm" height="131.66211mm" viewBox="0 0 220.95271 131.66211"><path d="M67.405 198.045h-26.23v-25.877h26.23v25.877" style="fill:#e8b84c;fill-opacity:1;fill-rule:nonzero;stroke:none;stroke-width:.352778" transform="matrix(3.90546 0 0 3.90546 -157.01 -641.794)"/><path d="M95.028 191.543H67.571v-25.185l22.864 2.857 4.593 22.328" style="fill:#113535;fill-opacity:1;fill-rule:nonzero;stroke:none;stroke-width:.352778" transform="matrix(3.90546 0 0 3.90546 -157.01 -641.794)"/><path d="M42.62 195.628h23.304V172.32H42.62Zm25.396 2.092h-27.49v-27.488h27.49v27.488" style="fill:#000200;fill-opacity:1;fill-rule:nonzero;stroke:none;stroke-width:.352778" transform="matrix(3.90546 0 0 3.90546 -157.01 -641.794)"/><path d="M42.944 195.304h22.655v-22.66H42.944Zm23.304.649H42.295v-23.957h23.953zm-25.396 1.439h26.839v-26.836H40.852Zm27.488.653H40.203v-28.138H68.34v28.138" style="fill:#000200;fill-opacity:1;fill-rule:nonzero;stroke:none;stroke-width:.352778" transform="matrix(3.90546 0 0 3.90546 -157.01 -641.794)"/><path d="M46.218 177.954h7.105v1.274h-2.82v.158c0 .907.16 1.341 1.088 2.008a32.76 32.76 0 0 0 2.18 1.42l-.723 1.102a40.85 40.85 0 0 1-2.234-1.468c-.518-.357-.952-.758-1.009-.882h-.014c-.042.124-.413.469-1.04.918a40.78 40.78 0 0 1-2.237 1.464l-.744-1.133a31.957 31.957 0 0 0 2.176-1.421c.932-.667 1.09-1.101 1.09-2.008v-.158h-2.818v-1.274M57.073 178v4.516h5.366v1.228H55.63V178h1.443M46.295 191.193v-5.708h6.83v1.228h-5.387v3.252h5.454v1.228h-6.897M55.725 191.286v-3.553h5.514v-1.147h-5.514v-1.216h6.947v3.555h-5.515v1.144h5.662v1.217h-7.094M68.108 190.696l25.688.135-4.254-21.037-21.445-2.678zm28.101 2.114H66.132v-28.116l25.418 3.336 4.66 24.78" style="fill:#000200;fill-opacity:1;fill-rule:nonzero;stroke:none;stroke-width:.352778" transform="matrix(3.90546 0 0 3.90546 -157.01 -641.794)"/><path d="m68.407 190.382 25.02.128-4.136-20.427-20.89-2.61zm25.764.766-26.367-.138-.007-24.25 21.996 2.744zm-27.739 1.343H95.84l-4.545-24.175-24.863-3.263zm30.145.636H65.83v-28.794l25.975 3.412 4.773 25.382M70.601 196.57c0 .159-.007.275-.02.349a.496.496 0 0 1-.078.194.547.547 0 0 1-.226.195.755.755 0 0 1-.317.07.596.596 0 0 1-.417-.145.498.498 0 0 1-.159-.36h.283a.3.3 0 0 0 .088.184c.05.052.12.074.212.074.127 0 .218-.036.271-.113.057-.078.082-.24.082-.483v-1.468h.28v1.503" style="fill:#000200;fill-opacity:1;fill-rule:nonzero;stroke:none;stroke-width:.352778" transform="matrix(3.90546 0 0 3.90546 -157.01 -641.794)"/><path d="M69.434 196.919c.01.109.06.201.14.278a.548.548 0 0 0 .386.135.66.66 0 0 0 .297-.067.479.479 0 0 0 .278-.357c.014-.07.02-.186.02-.338v-1.458h-.187v1.423c0 .253-.031.423-.09.508-.064.09-.17.138-.31.138a.343.343 0 0 1-.245-.088.405.405 0 0 1-.095-.174zm.526.504a.628.628 0 0 1-.449-.158.527.527 0 0 1-.172-.391v-.05h.366l.007.043c.011.063.036.115.079.158.039.043.098.06.176.06.11 0 .186-.032.233-.096.035-.05.073-.165.073-.454v-1.514h.375v1.55c0 .158-.007.278-.022.355a.578.578 0 0 1-.33.423.764.764 0 0 1-.335.074M72.383 197.332h-1.27v-2.265h1.27v.24h-.988v.773h.985v.229h-.985v.773h.988v.25" style="fill:#000200;fill-opacity:1;fill-rule:nonzero;stroke:none;stroke-width:.352778" transform="matrix(3.90546 0 0 3.90546 -157.01 -641.794)"/><path d="M71.16 197.286h1.177v-.159h-.988v-.868h.984v-.134h-.984v-.864h.988v-.149H71.16zm1.27.092h-1.363v-2.357h1.363v.331h-.988v.682h.988v.321h-.988v.681h.988v.342M74.852 196.207a.88.88 0 0 0-.074-.357.93.93 0 0 0-.193-.292.962.962 0 0 0-.29-.198.884.884 0 0 0-.988.197.896.896 0 0 0-.197.293.88.88 0 0 0 0 .713.96.96 0 0 0 .198.297c.08.08.18.144.285.193.11.05.226.074.353.074a.816.816 0 0 0 .35-.074c.108-.049.204-.113.289-.193a1 1 0 0 0 .193-.297.871.871 0 0 0 .074-.356m.297 0c0 .165-.032.316-.096.458a1.175 1.175 0 0 1-.26.374c-.106.11-.233.19-.378.253a1.137 1.137 0 0 1-.465.097c-.166 0-.321-.032-.466-.097a1.216 1.216 0 0 1-.382-.253 1.102 1.102 0 0 1-.256-.374 1.109 1.109 0 0 1-.097-.458c0-.163.034-.317.097-.46.06-.144.147-.267.256-.37.11-.109.237-.193.382-.256.145-.065.3-.093.466-.093a1.182 1.182 0 0 1 .843.349 1.134 1.134 0 0 1 .356.83" style="fill:#000200;fill-opacity:1;fill-rule:nonzero;stroke:none;stroke-width:.352778" transform="matrix(3.90546 0 0 3.90546 -157.01 -641.794)"/><path d="M73.946 195.336a.814.814 0 0 0-.607.253.883.883 0 0 0-.258.617c0 .12.025.233.07.34a.99.99 0 0 0 .188.282.849.849 0 0 0 1.21-.004.917.917 0 0 0 .188-.279c.05-.106.07-.219.07-.338a.815.815 0 0 0-.07-.34.917.917 0 0 0-.188-.278.938.938 0 0 0-.271-.187.803.803 0 0 0-.332-.066m0 1.837a.839.839 0 0 1-.37-.078 1.063 1.063 0 0 1-.304-.204 1.009 1.009 0 0 1-.204-.311.88.88 0 0 1-.077-.373c0-.131.023-.258.077-.374.052-.12.12-.223.204-.311.088-.084.191-.152.304-.204.225-.1.514-.1.74 0 .11.052.212.12.3.204a1.1 1.1 0 0 1 .209.311.947.947 0 0 1 0 .747 1.1 1.1 0 0 1-.208.311 1.102 1.102 0 0 1-.3.204.859.859 0 0 1-.371.078m.004-2.1a1.129 1.129 0 0 0-.815.336 1.115 1.115 0 0 0-.339.798 1.111 1.111 0 0 0 .339.8 1.16 1.16 0 0 0 1.876-.36c.06-.137.088-.285.088-.44a1.082 1.082 0 0 0-.338-.798 1.212 1.212 0 0 0-.363-.247c-.14-.06-.29-.088-.448-.088m0 2.36a1.18 1.18 0 0 1-.487-.099 1.204 1.204 0 0 1-.392-.264 1.198 1.198 0 0 1 0-1.728c.11-.11.243-.202.392-.265.3-.127.67-.127.97 0 .148.063.282.154.392.265a1.205 1.205 0 0 1 .271 1.344 1.206 1.206 0 0 1-.271.384c-.11.113-.244.2-.392.264-.151.068-.314.1-.483.1M75.865 197.332h-.278v-2.265h.303l1.196 1.807v-1.807h.274v2.265h-.285l-1.21-1.852v1.852" style="fill:#000200;fill-opacity:1;fill-rule:nonzero;stroke:none;stroke-width:.352778" transform="matrix(3.90546 0 0 3.90546 -157.01 -641.794)"/><path d="M77.1 197.286h.215v-2.174h-.183v1.913l-1.267-1.913h-.233v2.174h.188v-1.966zm.31.092h-.36l-.014-.02-1.125-1.723v1.743h-.371v-2.357h.375l1.124 1.697v-1.697h.37v2.357M78.158 197.332h-.278v-2.265h.303l1.196 1.807v-1.807h.274v2.265h-.285l-1.21-1.852v1.852" style="fill:#000200;fill-opacity:1;fill-rule:nonzero;stroke:none;stroke-width:.352778" transform="matrix(3.90546 0 0 3.90546 -157.01 -641.794)"/><path d="M79.393 197.286h.215v-2.174h-.183v1.913l-1.267-1.913h-.233v2.174h.188v-1.966zm.307.092h-.357l-.013-.02-1.126-1.723v1.743h-.371v-2.357h.375l1.124 1.697v-1.697h.368v2.357M81.313 196.39l-.364-.984-.374.984zm-.83.258-.265.684h-.292l.885-2.265h.278l.886 2.265h-.307l-.258-.684h-.927" style="fill:#000200;fill-opacity:1;fill-rule:nonzero;stroke:none;stroke-width:.352778" transform="matrix(3.90546 0 0 3.90546 -157.01 -641.794)"/><path d="M80.641 196.344h.604l-.296-.807zm.738.091h-.871l.44-1.163zm.325.85h.204l-.85-2.173h-.215l-.85 2.174h.194l.264-.684h.995zm.342.093h-.41l-.257-.68h-.864l-.265.68h-.391l.92-2.357h.342l.01.028.915 2.329M82.516 197.332h-.27v-2.265h.435l.685 1.873.687-1.873h.43v2.265h-.26v-2.07l-.752 2.07h-.211l-.744-2.064v2.064" style="fill:#000200;fill-opacity:1;fill-rule:nonzero;stroke:none;stroke-width:.352778" transform="matrix(3.90546 0 0 3.90546 -157.01 -641.794)"/><path d="M82.292 197.286h.177v-2.174h-.177zm1 0h.144l.794-2.174h-.145l-.72 1.963-.716-1.963h-.142zm.98 0h.166v-2.174h-.167Zm.261.092h-.357v-1.852l-.674 1.852h-.274l-.667-1.845v1.845h-.36v-2.357h.268v-.018l.004.018h.24l.653 1.782.656-1.782h.242l.007-.021v.021h.262v2.357M85.775 196.74h.257a.383.383 0 0 0 .14.281.527.527 0 0 0 .34.117c.145 0 .26-.043.357-.117a.388.388 0 0 0 .144-.317.327.327 0 0 0-.12-.271.926.926 0 0 0-.363-.163l-.068-.02a.955.955 0 0 1-.466-.24.556.556 0 0 1-.095-.143.47.47 0 0 1-.034-.197.6.6 0 0 1 .186-.461c.124-.117.29-.174.501-.174a.69.69 0 0 1 .466.156c.123.106.19.235.201.394h-.257a.305.305 0 0 0-.124-.218.462.462 0 0 0-.292-.095.44.44 0 0 0-.305.105.367.367 0 0 0-.116.28c0 .04.011.084.032.126.025.039.05.07.077.091.064.054.177.1.346.138.064.018.12.032.159.046.173.053.307.13.4.237.094.106.14.232.14.38a.67.67 0 0 1-.211.515c-.138.131-.321.199-.551.199a.756.756 0 0 1-.536-.192.594.594 0 0 1-.208-.457" style="fill:#000200;fill-opacity:1;fill-rule:nonzero;stroke:none;stroke-width:.352778" transform="matrix(3.90546 0 0 3.90546 -157.01 -641.794)"/><path d="M85.824 196.785c.011.148.07.272.19.38.127.118.3.177.505.177.215 0 .391-.063.518-.186a.613.613 0 0 0 .198-.48.494.494 0 0 0-.13-.35.786.786 0 0 0-.378-.221 2.14 2.14 0 0 0-.159-.047c-.172-.042-.292-.091-.36-.148a.295.295 0 0 1-.087-.106.28.28 0 0 1-.043-.147.4.4 0 0 1 .133-.312.477.477 0 0 1 .337-.12c.122 0 .233.036.32.106.074.061.12.131.137.209h.167a.535.535 0 0 0-.18-.315.665.665 0 0 0-.437-.144c-.199 0-.357.053-.47.162a.558.558 0 0 0-.173.427.398.398 0 0 0 .12.303c.102.11.251.188.441.23.025.007.046.015.07.021.17.046.294.102.378.173a.372.372 0 0 1 .138.307.438.438 0 0 1-.158.353.61.61 0 0 1-.39.126.561.561 0 0 1-.366-.126.428.428 0 0 1-.155-.272zm.695.65a.82.82 0 0 1-.568-.202.64.64 0 0 1-.222-.493v-.047h.349v.043c.004.099.045.18.127.25a.45.45 0 0 0 .307.103c.13 0 .24-.036.328-.107a.33.33 0 0 0 .127-.278.292.292 0 0 0-.102-.237.982.982 0 0 0-.346-.154l-.07-.018a.947.947 0 0 1-.484-.254.757.757 0 0 1-.106-.156.5.5 0 0 1-.039-.215.65.65 0 0 1 .201-.494c.131-.127.31-.19.534-.19a.74.74 0 0 1 .497.169c.13.113.204.258.215.427l.004.05h-.35l-.004-.047c-.004-.066-.039-.127-.109-.183a.405.405 0 0 0-.26-.084.386.386 0 0 0-.272.095.302.302 0 0 0-.103.244c0 .034.007.07.029.102a.229.229 0 0 0 .063.08.94.94 0 0 0 .328.13c.068.018.12.034.163.047a.89.89 0 0 1 .419.247.591.591 0 0 1 .151.412c0 .226-.073.41-.224.551-.145.138-.344.208-.583.208M88.314 195.307v2.025h-.278v-2.025h-.554v-.24h1.386v.24h-.554" style="fill:#000200;fill-opacity:1;fill-rule:nonzero;stroke:none;stroke-width:.352778" transform="matrix(3.90546 0 0 3.90546 -157.01 -641.794)"/><path d="M88.081 197.286h.188v-2.025h.554v-.149h-1.296v.15h.554zm.279.092h-.374v-2.026h-.554v-.33h1.482v.33h-.554v2.026M90.252 196.39l-.368-.984-.374.984zm-.83.258-.264.684h-.292l.881-2.265h.282l.886 2.265h-.308l-.257-.684h-.928" style="fill:#000200;fill-opacity:1;fill-rule:nonzero;stroke:none;stroke-width:.352778" transform="matrix(3.90546 0 0 3.90546 -157.01 -641.794)"/><path d="M89.578 196.344h.606l-.3-.807zm.737.091h-.872l.445-1.163zm.324.85h.208l-.85-2.173h-.218l-.847 2.174h.194l.265-.684h.99zm.343.093h-.406l-.258-.68h-.864l-.265.68h-.395l.922-2.357h.342l.013.028.911 2.329M91.64 195.307v2.025h-.277v-2.025h-.554v-.24h1.39v.24h-.558" style="fill:#000200;fill-opacity:1;fill-rule:nonzero;stroke:none;stroke-width:.352778" transform="matrix(3.90546 0 0 3.90546 -157.01 -641.794)"/><path d="M91.408 197.286h.187v-2.025h.554v-.149h-1.295v.15h.554zm.283.092h-.374v-2.026h-.554v-.33h1.481v.33h-.553v2.026M93.78 197.332h-1.27v-2.265h1.27v.24h-.988v.773h.988v.229h-.988v.773h.988v.25" style="fill:#000200;fill-opacity:1;fill-rule:nonzero;stroke:none;stroke-width:.352778" transform="matrix(3.90546 0 0 3.90546 -157.01 -641.794)"/><path d="M92.555 197.286h1.178v-.159h-.987v-.868h.984v-.134h-.984v-.864h.987v-.149h-1.178zm1.273.092h-1.364v-2.357h1.364v.331h-.991v.682h.988v.321h-.988v.681h.99v.342M95.053 195.067h.282v1.393c0 .456.186.68.557.68.374 0 .558-.224.558-.676v-1.397h.281v1.4c0 .621-.28.929-.839.929-.557 0-.839-.308-.839-.929v-1.4" style="fill:#000200;fill-opacity:1;fill-rule:nonzero;stroke:none;stroke-width:.352778" transform="matrix(3.90546 0 0 3.90546 -157.01 -641.794)"/><path d="M95.103 195.112v1.355c0 .597.257.882.79.882.532 0 .79-.285.79-.882v-1.355h-.187v1.352c0 .48-.201.724-.604.724-.402 0-.603-.244-.603-.728v-1.348zm.79 2.333c-.587 0-.886-.329-.886-.978v-1.446h.374v1.44c0 .426.165.634.511.634s.511-.204.511-.63v-1.444h.375v1.446c0 .65-.3.978-.886.978" style="fill:#000200;fill-opacity:1;fill-rule:nonzero;stroke:none;stroke-width:.352778" transform="matrix(3.90546 0 0 3.90546 -157.01 -641.794)"/></svg>