<svg xmlns="http://www.w3.org/2000/svg" width="208.24026mm" height="127.99726mm" viewBox="0 0 208.24026 127.99726"><path d="M0 0c-.014.006-.027.017-.042.018-1.209.294-2.116 1.487-2.116 2.716 0 1.418 1.2 2.568 2.683 2.568h1.382v.733H-9.195v-.733h1.348c1.482 0 2.682-1.15 2.682-2.568 0-1.185-.839-2.333-1.979-2.676-.029-.01-.059-.03-.09-.044-5.431-1.561-9.408-6.565-9.408-12.499v-3.188l.074-1.002.102 1.176c.76 6.467 6.161 11.48 12.822 11.48 6.561 0 11.841-4.867 12.724-11.194l.162-1.462.112 1.154v3.036C9.354-6.563 5.404-1.578 0 0" style="fill:#024ea2;fill-opacity:1;fill-rule:evenodd;stroke:none" transform="matrix(2.91707 0 0 -2.91707 114.75 34.839)"/><path d="M0 0c1.148-1.642 1.703-4.604 2.079-6.596.445-2.382 1.734-4.281 1.953-6.724.183-2.036-.278-3.766.215-5.701.245-.967.586-1.829.732-2.821.188-1.262-.421-3.462 1.105-3.527 1.292-.057 2.713 1.571 3.263 2.573.454.831.527 1.789.907 2.607.244.525.892 1.003 1.085 1.499.881 2.269-2.941 4.085-4.591 4.797-1.252.539-1.57.253-1.861 1.676-.172.861-.581 1.749-.726 2.695-.298 1.953.424.663 1.681 1.248.43.197.553.9 1.007 1.168.467.276.934.266 1.484.266.636 0 1.145.024 1.686-.367M-40.56-.263c-.006.425.135-3.322-1.708-3.768-1.352-.326-3.058.97-3.895-.705.554-.485 1.129-.078 1.797-.168.101-.873-3.513-2.02-4.353-2.674-2.143-1.662.225-1.944 1.667-1.724-.005-.243.149-.398.17-.576.935.516 2.715-.147 1.895-1.459-.657-1.054-1.876-.076-2.78-.024-2.454.148-4-2.444-3.154-4.621.39-.214.736-.592 1.17-.786.547-.24 1.204-.008 1.748-.209 1.513-.568.79-1.431.84-2.597.046-1.024.929-2.128 1.347-3.03.358-.77.757-1.508 1.74-1.437 3.34.254 2.774 8.685 2.196 10.999-.218.88-.401 1.365-.912 2.016-.389.495-1.129.909-1.067 1.62.13 1.465 2.607 1.136 3.299 2.443" style="fill:none;stroke:#024ea2;stroke-width:.8;stroke-linecap:round;stroke-linejoin:round;stroke-miterlimit:22.926;stroke-dasharray:none;stroke-opacity:1" transform="matrix(2.91707 0 0 -2.91707 162.512 24.492)"/><path d="M0 0c4.587 3.571 6.382 9.929 6.382 15.996 0 5.057-1.782 9.715-4.773 13.425 0 0 12.686-4.217 13.395-13.311C15.829 5.553 0 0 0 0m-39.221 15.996c0-6.067 1.792-12.425 6.381-15.996 0 0-15.83 5.553-15.005 16.11.709 9.094 13.398 13.311 13.398 13.311-2.995-3.71-4.774-8.368-4.774-13.425m58.833-.118s-.728 14.625-24.378 20.384c-.033.009-.07.01-.102.019-14.365 3.733-26.976-.912-33.426-4.159a26.117 26.117 0 0 1-4.095-2.328c-.309-.198-.47-.313-.47-.313l-.019-.028-.139-.101c-8.368-6.283-8.727-13.474-8.727-13.474S-53.959-2.188-20.338-6.101l.021 3.164C-29.599-1.789-35.88 6.248-35.88 15.996c0 10.533 8.765 19.071 19.579 19.071 10.812 0 19.578-8.538 19.578-19.071 0-9.707-7.446-17.719-15.48-18.916l-.019-3.293c32.425 3.911 31.834 22.091 31.834 22.091" style="fill:#024ea2;fill-opacity:1;fill-rule:evenodd;stroke:none" transform="matrix(2.91707 0 0 -2.91707 151.029 109.873)"/><path d="M0 0v1.952l-.52-.431v.477l.52.433h.466V0Z" style="fill:#024ea2;fill-opacity:1;fill-rule:nonzero;stroke:none" transform="matrix(2.91707 0 0 -2.91707 95.775 127.834)"/><path d="M0 0c-.191 0-.331-.131-.331-.356 0-.215.135-.355.331-.355.19 0 .329.129.329.355C.329-.131.19 0 0 0m.584-.998L.043-2.051h-.506l.53 1.003a.52.52 0 0 0-.189-.03c-.345 0-.673.268-.673.72 0 .478.344.756.795.756.452 0 .794-.268.794-.751 0-.221-.096-.424-.21-.645" style="fill:#024ea2;fill-opacity:1;fill-rule:nonzero;stroke:none" transform="matrix(2.91707 0 0 -2.91707 101.179 121.852)"/><path d="M0 0c-.191 0-.331-.131-.331-.356 0-.215.133-.355.331-.355.189 0 .329.129.329.355C.329-.131.189 0 0 0m.583-.998L.042-2.051h-.503l.528 1.003a.521.521 0 0 0-.19-.03c-.341 0-.673.268-.673.72 0 .478.343.756.796.756.45 0 .796-.268.796-.751 0-.221-.098-.424-.213-.645" style="fill:#024ea2;fill-opacity:1;fill-rule:nonzero;stroke:none" transform="matrix(2.91707 0 0 -2.91707 106.32 121.852)"/><path d="M0 0v1.952l-.52-.431v.477l.52.433h.465V0Z" style="fill:#024ea2;fill-opacity:1;fill-rule:nonzero;stroke:none" transform="matrix(2.91707 0 0 -2.91707 111.2 127.834)"/><path d="M0 0c-1.667-11.851-11.499-17.531-11.499-17.531v-4.707C2.5-13.474 0 0 0 0m-23 0s-2.499-13.474 11.5-22.238v4.707S-21.331-11.851-23 0" style="fill:#8490c8;fill-opacity:1;fill-rule:evenodd;stroke:none" transform="matrix(2.91707 0 0 -2.91707 137.668 34.078)"/><path d="M199.47 246.724h1.5v.446h-1.5zm-.417-.73c-.207 0-.366.053-.476.164-.104.107-.161.26-.161.46v1.278h3.61v-1.902zm1.917 3.111v1.325h1.056v-.847h.439v-.76h-.44v-.772h-1.055v.3h-2.222c-.206 0-.37.052-.48.16-.108.106-.163.26-.163.463v1.456h1.054v-1.325z" style="fill:#024ea2;fill-opacity:1;fill-rule:evenodd;stroke:none" transform="matrix(2.91707 0 0 -2.91707 -456.342 752.052)"/><path d="M0 0v-.758h-3.105c-.212 0-.371.053-.482.163-.111.106-.164.261-.164.46v.983H-2.7V0Zm-.048.484h-1.055v1.465h-.635v.708h.635v1.021h1.055zm-1.45 2.434h-.825c0-.39.089-.699.264-.924.161-.2.414-.345.767-.44L-1.67.932a2.557 2.557 0 0 0-.771.305c-.21.131-.345.259-.407.389-.064-.125-.205-.256-.422-.389a2.834 2.834 0 0 0-.771-.305l-.376.622c.354.096.614.247.775.446.177.216.265.523.265.918h-.828v.719h2.707z" style="fill:#024ea2;fill-opacity:1;fill-rule:evenodd;stroke:none" transform="matrix(2.91707 0 0 -2.91707 86.867 32.258)"/><path d="M0 0h1.343v-.628h-3.799V0h.831v1.348c0 .028-.004.068-.023.09-.01.014-.019.019-.036.019h-.151v.413h.865V0h.318v1.348a.164.164 0 0 1-.023.09c-.01.014-.018.019-.034.019h-.153v.413H0Zm.255 2.773h-2.306v.618H.808c.056 0 .061.011.099-.039.043-.054.027-.042.027-.092V1.781c0-.267-.007-.557-.052-.828A1.846 1.846 0 0 0 .706.385L.682.337H.009l.058.117C.148.628.194.811.218 1c.03.277.037.562.037.84v.919z" style="fill:#024ea2;fill-opacity:1;fill-rule:evenodd;stroke:none" transform="matrix(2.91707 0 0 -2.91707 130.344 90.727)"/><path d="M0 0v-1.283h.383v-.694H0v-2.054h-.918v.182h-2.586v.694h.341v1.716h.832v-1.716h.207a2.622 2.622 0 0 1 .102.737v1.69h-1.391v.692h2.235v-2.062c0-.225-.012-.423-.03-.587a2.433 2.433 0 0 0-.095-.47h.385V0Z" style="fill:#024ea2;fill-opacity:1;fill-rule:evenodd;stroke:none" transform="matrix(2.91707 0 0 -2.91707 84.205 80.745)"/><path d="M0 0h-.917v.889h-2.227v.628H0Zm0 3.264h.382v-.693H0v-.703h-.917v2.163H0Zm-2.6-.46a.253.253 0 0 1-.102-.207c0-.077.035-.144.102-.201a.478.478 0 0 1 .308-.087c.127 0 .229.026.301.087a.247.247 0 0 1 0 .408.471.471 0 0 1-.301.085.51.51 0 0 1-.308-.085m-.152 1.259h.915V3.83h.749v-.65h-.341a.76.76 0 0 0 .225-.216.631.631 0 0 0 .116-.367c0-.215-.1-.398-.301-.544-.221-.166-.523-.246-.903-.246-.382 0-.686.08-.91.246-.201.146-.303.329-.303.544 0 .125.036.245.109.351a.759.759 0 0 0 .24.232h-.349v.65h.753z" style="fill:#024ea2;fill-opacity:1;fill-rule:evenodd;stroke:none" transform="matrix(2.91707 0 0 -2.91707 96.72 92.505)"/><path d="M0 0v-2.208h.797v2.94h.824V-.693h.307V.732h.829v-4.031h-.829v1.921h-.307v-1.921H.797v.4H-.249c-.182 0-.322.045-.418.146-.095.097-.142.238-.142.423V.696H.548V0Z" style="fill:#024ea2;fill-opacity:1;fill-rule:evenodd;stroke:none" transform="matrix(2.91707 0 0 -2.91707 101.217 82.882)"/><path d="M0 0h-.92v.889h-2.224v.628H0Zm0 3.264h.38v-.693H0v-.703h-.92v2.163H0Zm-2.602-.46a.248.248 0 0 1-.102-.207c0-.077.033-.144.102-.201a.48.48 0 0 1 .309-.087c.129 0 .229.026.304.087a.253.253 0 0 1 .102.201.248.248 0 0 1-.102.207.486.486 0 0 1-.304.085.512.512 0 0 1-.309-.085m-.153 1.259h.919V3.83h.746v-.65h-.338a.786.786 0 0 0 .222-.216.617.617 0 0 0 .116-.367c0-.215-.1-.398-.302-.544-.223-.166-.523-.246-.901-.246-.381 0-.686.08-.91.246-.203.146-.303.329-.303.544 0 .125.037.245.11.351a.726.726 0 0 0 .239.232h-.349v.65h.751z" style="fill:#024ea2;fill-opacity:1;fill-rule:evenodd;stroke:none" transform="matrix(2.91707 0 0 -2.91707 121.537 92.505)"/><path d="M0 0a1.05 1.05 0 0 0 .272.737c.252.279.564.272.995.272.432 0 .742.009.995-.271.175-.191.274-.437.274-.738 0-.511-.266-.912-.787-1.005l-.001.543c.2.051.354.191.353.46a.463.463 0 0 1-.129.342c-.105.104-.224.133-.705.133C.787.473.668.444.563.34a.48.48 0 0 1-.129-.344c0-.267.154-.407.355-.462v-.542C.266-.913 0-.507 0 0" style="fill:#024ea2;fill-opacity:1;fill-rule:nonzero;stroke:none" transform="matrix(2.91707 0 0 -2.91707 48.729 63.525)"/><path d="m0 0 1.035.161-.141.92L-.14.919l-.081.534 2.472.379.081-.528-1.011-.157.141-.922 1.01.159.081-.533-2.472-.38Z" style="fill:#024ea2;fill-opacity:1;fill-rule:nonzero;stroke:none" transform="matrix(2.91707 0 0 -2.91707 49.598 72.67)"/><path d="M0 0c-.17.537.025 1.067.526 1.229l1.561.495.162-.513L.708.725C.434.637.325.406.414.132.5-.146.721-.272.995-.189l1.542.495.16-.51-1.558-.497C.637-.86.171-.537 0 0" style="fill:#024ea2;fill-opacity:1;fill-rule:nonzero;stroke:none" transform="matrix(2.91707 0 0 -2.91707 51.18 79.224)"/><path d="m0 0 .882 1.653L-.486.971l-.236.474 2.225 1.116.214-.426L.835.483l1.367.684.237-.48L.211-.424Z" style="fill:#024ea2;fill-opacity:1;fill-rule:nonzero;stroke:none" transform="matrix(2.91707 0 0 -2.91707 55.103 88.397)"/><path d="m0 0 .605 1.778L-.637.886l-.31.432 2.019 1.46.279-.387L.748.615l1.237.895.311-.436L.277-.385Z" style="fill:#024ea2;fill-opacity:1;fill-rule:nonzero;stroke:none" transform="matrix(2.91707 0 0 -2.91707 59.794 95.627)"/><path d="m0 0-.891-.39.479-.487zm-.804-1.689.2.424-.683.696-.431-.194-.391.4L.368.673l.294-.3-1.077-2.461z" style="fill:#024ea2;fill-opacity:1;fill-rule:nonzero;stroke:none" transform="matrix(2.91707 0 0 -2.91707 67.732 96.886)"/><path d="m0 0 .869 1.17-.985-.446-.289.214.139 1.078-.866-1.169-.431.317 1.49 2.011.424-.315L.12 1.346l1.378.658.42-.316L.431-.32Z" style="fill:#024ea2;fill-opacity:1;fill-rule:nonzero;stroke:none" transform="matrix(2.91707 0 0 -2.91707 72.192 107.38)"/><path d="m0 0-.852-1.869-.488.222.852 1.871-.653.296.181.393L.836.098.655-.297Z" style="fill:#024ea2;fill-opacity:1;fill-rule:nonzero;stroke:none" transform="matrix(2.91707 0 0 -2.91707 83.665 106.874)"/><path d="m0 0 .737 2.391 1.731-.537-.127-.417-1.218.38-.174-.562 1.038-.32L1.858.52.822.839.641.257l1.22-.374-.129-.417Z" style="fill:#024ea2;fill-opacity:1;fill-rule:nonzero;stroke:none" transform="matrix(2.91707 0 0 -2.91707 84.836 113.847)"/><path d="M0 0a1.06 1.06 0 0 0-.686.392C-.918.685-.86.991-.791 1.414c.069.425.113.732.43.934.219.143.479.197.775.148.506-.083.858-.412.869-.943l-.536.092a.446.446 0 0 1-.4.424.462.462 0 0 1-.36-.073c-.12-.085-.17-.196-.249-.669C-.34.856-.327.731-.243.61A.48.48 0 0 1 .075.426a.44.44 0 0 1 .513.273l.538-.091C.946.113.503-.084 0 0" style="fill:#024ea2;fill-opacity:1;fill-rule:nonzero;stroke:none" transform="matrix(2.91707 0 0 -2.91707 94.459 116.334)"/><path d="m0 0 .025 1.043-.93.026L-.929.027l-.537.016.06 2.488.537-.015-.026-1.019.931-.022.024 1.019.538-.015L.54-.016Z" style="fill:#024ea2;fill-opacity:1;fill-rule:nonzero;stroke:none" transform="matrix(2.91707 0 0 -2.91707 103.639 117.058)"/><path d="m0 0-1.268 1.382.187-1.517-.53-.065-.31 2.468.476.059L-.176.951l-.189 1.51.533.066.31-2.465z" style="fill:#024ea2;fill-opacity:1;fill-rule:nonzero;stroke:none" transform="matrix(2.91707 0 0 -2.91707 112.308 116.391)"/><path d="M0 0a.474.474 0 0 1-.366.034.492.492 0 0 1-.301-.222c-.071-.127-.066-.246.064-.708.131-.463.188-.566.318-.639a.475.475 0 0 1 .369-.034.467.467 0 0 1 .296.22c.069.128.069.248-.062.71C.188-.179.126-.074 0 0m.842-1.526c-.138-.221-.338-.375-.64-.459a1.04 1.04 0 0 0-.79.061c-.337.166-.415.471-.531.882-.117.415-.21.715-.01 1.031.138.218.343.378.643.461.302.084.554.057.788-.061.336-.167.416-.47.533-.883.116-.414.205-.714.007-1.032" style="fill:#024ea2;fill-opacity:1;fill-rule:nonzero;stroke:none" transform="matrix(2.91707 0 0 -2.91707 118.085 109.232)"/><path d="M0 0c-.498-.259-1.053-.152-1.297.314l-.752 1.454.475.249.743-1.441c.133-.257.375-.322.632-.189.258.131.345.367.212.624L-.73 2.45l.471.241.752-1.455C.737.769.499.258 0 0" style="fill:#024ea2;fill-opacity:1;fill-rule:nonzero;stroke:none" transform="matrix(2.91707 0 0 -2.91707 129.045 110.945)"/><path d="m0 0-1.78.602.897-1.24-.435-.317-1.459 2.02.386.284 1.778-.6-.894 1.238.434.314L.387.282z" style="fill:#024ea2;fill-opacity:1;fill-rule:nonzero;stroke:none" transform="matrix(2.91707 0 0 -2.91707 137.406 105.578)"/><path d="m0 0-1.684 1.837.395.361L.394.36Z" style="fill:#024ea2;fill-opacity:1;fill-rule:nonzero;stroke:none" transform="matrix(2.91707 0 0 -2.91707 140.316 103.136)"/><path d="m0 0-.268-.298-2.465.985.373.416L-.782.431l-.846 1.499.371.414Z" style="fill:#024ea2;fill-opacity:1;fill-rule:nonzero;stroke:none" transform="matrix(2.91707 0 0 -2.91707 145.146 98.25)"/><path d="m0 0-2.078 1.39 1.002 1.504.361-.244-.704-1.059.488-.325.601.901.361-.243-.602-.901.506-.335.706 1.057.361-.241Z" style="fill:#024ea2;fill-opacity:1;fill-rule:nonzero;stroke:none" transform="matrix(2.91707 0 0 -2.91707 147.85 94.958)"/><path d="m0 0-.219-.456.594-.284.216.456c.103.21.046.408-.127.491C.291.29.1.211 0 0m2.035-.517L.907-.567.741-.914l.896-.434-.23-.478L-.842-.748l.465.964C-.136.721.318.868.694.69c.316-.153.411-.458.374-.736l1.235.088z" style="fill:#024ea2;fill-opacity:1;fill-rule:nonzero;stroke:none" transform="matrix(2.91707 0 0 -2.91707 147.74 83.398)"/><path d="M0 0c-.124-.396-.292-.675-.61-.857l-.198.419c.203.123.322.33.397.574.093.3.04.494-.15.554-.083.025-.161.022-.225-.019-.059-.039-.1-.09-.155-.207l-.138-.306c-.099-.211-.215-.357-.354-.444-.152-.087-.325-.102-.526-.041-.422.133-.613.57-.438 1.136.112.359.273.592.54.757l.19-.415c-.195-.12-.277-.311-.331-.483-.083-.272.011-.447.177-.497a.219.219 0 0 1 .194.022c.06.038.12.113.169.216l.134.294c.105.23.211.361.339.442.162.103.357.112.566.046C.042 1.048.17.549 0 0" style="fill:#024ea2;fill-opacity:1;fill-rule:nonzero;stroke:none" transform="matrix(2.91707 0 0 -2.91707 155.762 79.47)"/><path d="m0 0-2.45.481.104.531L.104.525z" style="fill:#024ea2;fill-opacity:1;fill-rule:nonzero;stroke:none" transform="matrix(2.91707 0 0 -2.91707 156.994 74.606)"/><path d="m0 0 2.048-.186-.05-.534-2.049.187-.066-.717-.432.04.183 1.967.432-.04z" style="fill:#024ea2;fill-opacity:1;fill-rule:nonzero;stroke:none" transform="matrix(2.91707 0 0 -2.91707 152.03 67.109)"/><path d="m0 0 1.022.036.02-.529-1.02-.038-1.434-.88-.022.581.98.55-1.021.467-.022.584z" style="fill:#024ea2;fill-opacity:1;fill-rule:nonzero;stroke:none" transform="matrix(2.91707 0 0 -2.91707 155.11 60.728)"/></svg>