<svg xmlns="http://www.w3.org/2000/svg" width="313.77567mm" height="110.811mm" viewBox="0 0 313.77567 110.811"><path d="M99.117 208.549v.767c-.511.279-1.101.419-1.77.419-.543 0-1.005-.11-1.384-.328a2.417 2.417 0 0 1-.9-.903 2.455 2.455 0 0 1-.331-1.245c0-.707.252-1.304.758-1.788.505-.484 1.129-.725 1.87-.725.512 0 1.08.134 1.705.401v.75c-.57-.326-1.126-.489-1.67-.489-.557 0-1.02.176-1.389.528a1.755 1.755 0 0 0-.553 1.323c0 .536.181.974.544 1.318.363.345.826.516 1.39.516.591 0 1.168-.181 1.73-.544" style="fill:#171717;fill-opacity:1;fill-rule:nonzero;stroke:none;stroke-width:.0352778" transform="matrix(2.7102 0 0 2.7102 -256.546 -474.465)"/><path d="M97.36 204.818c-.718 0-1.33.237-1.82.706a2.313 2.313 0 0 0-.735 1.735 2.398 2.398 0 0 0 1.194 2.084c.366.211.818.318 1.347.318.637 0 1.209-.13 1.698-.388v-.593c-.536.322-1.093.485-1.656.485-.58 0-1.066-.18-1.44-.536-.377-.356-.568-.817-.568-1.37 0-.548.194-1.01.576-1.375.38-.364.865-.548 1.44-.548.519 0 1.055.147 1.596.436v-.577c-.596-.25-1.144-.377-1.632-.377zm-.014 4.988c-.554 0-1.032-.112-1.42-.337a2.48 2.48 0 0 1-.924-.93 2.52 2.52 0 0 1-.343-1.28c0-.725.263-1.345.78-1.84.872-.834 2.102-1.002 3.654-.34l.044.02v.922l-.108-.062c-.555-.317-1.105-.478-1.633-.478-.537 0-.987.171-1.34.508a1.69 1.69 0 0 0-.53 1.27c0 .512.175.937.52 1.265.348.33.799.496 1.342.496.574 0 1.143-.178 1.69-.532l.112-.073v.944l-.038.02c-.52.285-1.128.427-1.806.427M101.386 207.036c-.304 0-.554.1-.749.3-.195.2-.292.455-.292.764 0 .307.1.557.299.752.2.192.457.29.77.29.311 0 .567-.098.765-.295.199-.196.298-.448.298-.755 0-.304-.103-.556-.31-.756a1.08 1.08 0 0 0-.78-.3zm.035-.57c.489 0 .894.157 1.217.472.323.313.484.709.484 1.186 0 .462-.164.846-.491 1.152-.328.306-.74.459-1.237.459-.482 0-.884-.155-1.207-.466a1.545 1.545 0 0 1-.484-1.162c0-.47.164-.86.49-1.174.326-.312.736-.468 1.228-.468" style="fill:#171717;fill-opacity:1;fill-rule:nonzero;stroke:none;stroke-width:.0352778" transform="matrix(2.7102 0 0 2.7102 -256.546 -474.465)"/><path d="M101.386 207.109a.93.93 0 0 0-.697.278c-.183.188-.272.42-.272.713 0 .288.091.517.277.7.185.178.428.268.72.268.295 0 .528-.088.714-.273.187-.184.277-.414.277-.703a.93.93 0 0 0-.289-.704 1.004 1.004 0 0 0-.73-.28zm.028 2.105c-.331 0-.608-.105-.82-.312a1.074 1.074 0 0 1-.322-.802c0-.327.105-.601.313-.814.208-.215.478-.322.801-.322.332 0 .612.107.832.32.22.213.332.485.332.808 0 .326-.108.597-.32.807a1.124 1.124 0 0 1-.816.315zm.008-2.677c-.472 0-.867.151-1.179.448-.31.298-.467.675-.467 1.122 0 .442.155.815.462 1.11.307.295.697.444 1.156.444.476 0 .876-.147 1.187-.438.311-.29.47-.66.47-1.1 0-.453-.156-.834-.464-1.134-.307-.3-.699-.452-1.165-.452zm-.028 3.27c-.498 0-.922-.164-1.256-.486a1.617 1.617 0 0 1-.507-1.214c0-.489.172-.9.512-1.226.34-.325.77-.489 1.279-.489.504 0 .931.166 1.267.492.335.328.506.745.506 1.24 0 .48-.173.887-.514 1.205-.34.317-.774.477-1.287.477M103.84 204.808h.635v4.87h-.635v-4.87" style="fill:#171717;fill-opacity:1;fill-rule:nonzero;stroke:none;stroke-width:.0352778" transform="matrix(2.7102 0 0 2.7102 -256.546 -474.465)"/><path d="M103.913 209.607h.49v-4.725h-.49zm.635.145h-.78v-5.017h.78v5.017M105.406 204.808h.633v4.87h-.633v-4.87" style="fill:#171717;fill-opacity:1;fill-rule:nonzero;stroke:none;stroke-width:.0352778" transform="matrix(2.7102 0 0 2.7102 -256.546 -474.465)"/><path d="M105.478 209.607h.49v-4.725h-.49zm.635.145h-.78v-5.017h.78v5.017M107.448 207.75h1.614c-.016-.251-.092-.447-.226-.584-.135-.138-.317-.206-.543-.206a.783.783 0 0 0-.561.206c-.145.137-.24.333-.284.585zm2.241.38h-2.256c.018.308.12.552.31.733.19.181.434.272.734.272.418 0 .803-.13 1.157-.39v.62c-.195.13-.39.223-.58.278a2.414 2.414 0 0 1-.675.084c-.354 0-.64-.073-.858-.22a1.576 1.576 0 0 1-.524-.59 1.8 1.8 0 0 1-.198-.859c0-.488.14-.885.416-1.191.276-.306.635-.458 1.078-.458.424 0 .763.149 1.017.446.253.297.38.696.38 1.195v.08" style="fill:#171717;fill-opacity:1;fill-rule:nonzero;stroke:none;stroke-width:.0352778" transform="matrix(2.7102 0 0 2.7102 -256.546 -474.465)"/><path d="M107.538 207.678h1.445a.769.769 0 0 0-.199-.462c-.123-.124-.283-.184-.491-.184a.713.713 0 0 0-.512.186.897.897 0 0 0-.243.46zm1.602.145h-1.779l.016-.084c.047-.27.148-.479.305-.626a.858.858 0 0 1 .61-.226c.247 0 .447.077.595.228.147.149.23.361.247.631zm-.847-1.342c-.425 0-.76.143-1.025.435-.262.29-.396.674-.396 1.142 0 .311.064.589.188.824.126.237.294.427.502.566.205.137.48.208.817.208.25 0 .47-.028.654-.083.173-.05.35-.134.528-.247v-.444a1.957 1.957 0 0 1-1.084.325c-.318 0-.582-.098-.784-.291-.203-.195-.314-.457-.332-.78l-.004-.078 2.26-.008c0-.478-.123-.865-.362-1.147-.241-.284-.556-.422-.962-.422zm.086 3.319c-.367 0-.668-.078-.9-.233a1.657 1.657 0 0 1-.546-.617 1.879 1.879 0 0 1-.205-.892c0-.505.145-.921.432-1.239.29-.32.671-.482 1.133-.482.444 0 .806.158 1.072.471.264.31.397.727.397 1.242v.154h-2.25c.028.25.122.454.28.607.175.167.406.252.685.252.4 0 .775-.127 1.114-.377l.115-.086v.803l-.032.022c-.2.134-.402.23-.6.288a2.55 2.55 0 0 1-.695.087M111.405 207.022a.615.615 0 0 0-.44.174.562.562 0 0 0-.181.419c0 .165.06.301.178.41a.637.637 0 0 0 .449.161c.18 0 .329-.054.448-.165.12-.11.18-.248.18-.413a.54.54 0 0 0-.182-.418.638.638 0 0 0-.452-.168zm-.15 2.807a.932.932 0 0 0-.526.136c-.135.09-.203.207-.203.348 0 .33.298.495.893.495.28 0 .499-.041.654-.124.153-.083.23-.2.23-.35 0-.15-.097-.27-.292-.365-.195-.094-.448-.14-.756-.14zm-1.043-2.25c0-.34.126-.611.375-.81.25-.199.592-.298 1.023-.298h1.32v.495h-.647c.125.128.212.245.26.349.05.105.075.224.075.359a.957.957 0 0 1-.143.493 1.006 1.006 0 0 1-.367.371c-.15.087-.397.155-.738.207-.24.035-.36.117-.36.247 0 .074.045.135.135.183.09.047.252.096.486.148.392.086.646.154.76.202a.967.967 0 0 1 .303.21c.154.153.23.346.23.578 0 .304-.135.547-.405.728-.271.181-.634.272-1.086.272-.458 0-.824-.091-1.097-.273-.273-.182-.41-.427-.41-.735 0-.433.27-.714.806-.84-.214-.136-.321-.273-.321-.407a.37.37 0 0 1 .138-.278.826.826 0 0 1 .371-.185c-.473-.21-.708-.548-.708-1.016" style="fill:#171717;fill-opacity:1;fill-rule:nonzero;stroke:none;stroke-width:.0352778" transform="matrix(2.7102 0 0 2.7102 -256.546 -474.465)"/><path d="M111.405 207.096a.537.537 0 0 0-.39.153.485.485 0 0 0-.158.366c0 .144.05.261.153.356a.565.565 0 0 0 .4.143.56.56 0 0 0 .4-.146.465.465 0 0 0 .157-.36.472.472 0 0 0-.159-.365.57.57 0 0 0-.403-.147zm.006 1.163a.717.717 0 0 1-.499-.181.602.602 0 0 1-.2-.463c0-.183.067-.34.202-.47a.691.691 0 0 1 .49-.196c.199 0 .369.064.502.188a.615.615 0 0 1 .205.471.613.613 0 0 1-.202.466.715.715 0 0 1-.498.185zm-.156 1.642a.87.87 0 0 0-.485.124c-.116.077-.172.17-.172.288 0 .104 0 .423.82.423.268 0 .477-.04.62-.116.13-.069.192-.163.192-.286 0-.119-.081-.217-.25-.3-.185-.088-.429-.133-.725-.133zm.164.98c-.642 0-.966-.192-.966-.568 0-.167.08-.304.237-.409a.997.997 0 0 1 .565-.148c.319 0 .582.05.787.148.221.107.334.252.334.43 0 .18-.091.319-.27.415-.167.087-.392.131-.687.131zm.19-4.337c-.413 0-.742.096-.977.283-.234.186-.348.432-.348.752 0 .44.218.75.666.95l.191.085-.204.051a.77.77 0 0 0-.34.168c-.076.07-.114.143-.114.225 0 .107.097.224.288.346l.144.093-.167.04c-.504.117-.75.37-.75.768 0 .284.123.505.379.675.258.173.614.26 1.055.26.437 0 .788-.086 1.045-.259.252-.168.374-.387.374-.668a.71.71 0 0 0-.208-.528.923.923 0 0 0-.284-.194c-.107-.046-.357-.113-.744-.196-.244-.055-.409-.105-.505-.156-.143-.076-.173-.176-.173-.247 0-.172.143-.279.422-.32.33-.05.57-.115.71-.196a.95.95 0 0 0 .343-.345.896.896 0 0 0 .132-.457.778.778 0 0 0-.065-.329 1.277 1.277 0 0 0-.249-.328l-.12-.124h.748v-.35zm-.177 4.841c-.47 0-.852-.095-1.137-.284-.293-.197-.441-.464-.441-.796 0-.426.239-.719.712-.869-.154-.123-.228-.248-.228-.378 0-.122.055-.235.16-.333a.81.81 0 0 1 .233-.145c-.393-.224-.592-.56-.592-1 0-.363.136-.655.403-.868.261-.207.62-.313 1.068-.313h1.394v.64h-.557c.072.087.126.168.163.246.053.114.08.244.08.389 0 .18-.052.359-.153.531-.101.17-.233.305-.394.396-.16.091-.41.162-.763.215-.197.028-.298.088-.298.176 0 .028.01.072.097.118.082.045.24.092.467.142.402.088.653.155.772.207.12.052.23.127.327.224a.856.856 0 0 1 .252.63c0 .328-.148.595-.438.789-.282.188-.661.283-1.127.283M113.914 207.75h1.614c-.016-.251-.09-.447-.227-.584-.134-.138-.315-.206-.543-.206a.78.78 0 0 0-.56.206c-.145.137-.24.333-.284.585zm2.242.38h-2.255c.014.308.118.552.308.733.19.181.434.272.734.272.418 0 .803-.13 1.156-.39v.62c-.194.13-.387.223-.579.278a2.417 2.417 0 0 1-.675.084c-.352 0-.638-.073-.858-.22a1.605 1.605 0 0 1-.524-.59 1.8 1.8 0 0 1-.197-.859c0-.488.14-.885.415-1.191.276-.306.636-.458 1.077-.458.426 0 .764.149 1.018.446.253.297.38.696.38 1.195v.08" style="fill:#171717;fill-opacity:1;fill-rule:nonzero;stroke:none;stroke-width:.0352778" transform="matrix(2.7102 0 0 2.7102 -256.546 -474.465)"/><path d="M114.004 207.678h1.445a.775.775 0 0 0-.199-.462c-.123-.124-.282-.184-.492-.184a.71.71 0 0 0-.51.186.904.904 0 0 0-.244.46zm1.602.145h-1.779l.016-.084c.048-.27.15-.479.306-.626a.853.853 0 0 1 .609-.226c.248 0 .449.077.595.228.146.149.23.361.249.631zm-.848-1.342c-.423 0-.759.143-1.023.435-.263.29-.397.674-.397 1.142 0 .311.064.589.189.824.126.237.294.427.502.566.205.137.479.208.816.208.25 0 .471-.028.654-.083.174-.05.351-.134.529-.247v-.444a1.963 1.963 0 0 1-1.085.325c-.318 0-.581-.098-.784-.291-.202-.195-.314-.457-.332-.78l-.003-.078 2.26-.008c0-.478-.123-.865-.363-1.147-.241-.284-.556-.422-.963-.422zm.087 3.319c-.367 0-.668-.078-.897-.233a1.66 1.66 0 0 1-.549-.617 1.884 1.884 0 0 1-.205-.892c0-.505.146-.921.433-1.239.289-.32.671-.482 1.131-.482.446 0 .807.158 1.073.471.264.31.398.727.398 1.242v.154h-2.25c.028.25.122.454.28.607.173.167.405.252.684.252a1.84 1.84 0 0 0 1.113-.377l.117-.086v.803l-.033.022c-.2.134-.401.23-.6.288-.197.057-.43.087-.695.087M120.324 207.036c-.304 0-.553.1-.749.3-.195.2-.292.455-.292.764 0 .307.1.557.3.752.2.192.456.29.769.29.312 0 .567-.098.765-.295.2-.196.3-.448.3-.755 0-.304-.105-.556-.312-.756a1.08 1.08 0 0 0-.78-.3zm.036-.57c.488 0 .893.157 1.217.472.322.313.483.709.483 1.186 0 .462-.163.846-.491 1.152-.327.306-.74.459-1.237.459-.481 0-.883-.155-1.206-.466a1.542 1.542 0 0 1-.484-1.162c0-.47.163-.86.489-1.174.327-.312.736-.468 1.229-.468" style="fill:#171717;fill-opacity:1;fill-rule:nonzero;stroke:none;stroke-width:.0352778" transform="matrix(2.7102 0 0 2.7102 -256.546 -474.465)"/><path d="M120.324 207.109a.929.929 0 0 0-.697.278c-.183.188-.272.42-.272.713 0 .288.091.517.279.7.184.178.426.268.718.268.295 0 .529-.088.715-.273a.937.937 0 0 0 .276-.703.934.934 0 0 0-.287-.704 1.01 1.01 0 0 0-.732-.28zm.028 2.105c-.33 0-.607-.105-.82-.312a1.078 1.078 0 0 1-.322-.802c0-.327.106-.601.314-.814.208-.215.478-.322.8-.322.333 0 .613.107.831.32.22.213.334.485.334.808 0 .326-.108.597-.32.807a1.122 1.122 0 0 1-.817.315zm.008-2.677c-.47 0-.868.151-1.18.448-.31.298-.466.675-.466 1.122 0 .442.156.815.462 1.11.307.295.696.444 1.156.444.475 0 .875-.147 1.187-.438.312-.29.469-.66.469-1.1 0-.453-.155-.834-.463-1.134-.307-.3-.7-.452-1.165-.452zm-.028 3.27c-.498 0-.921-.164-1.256-.486a1.616 1.616 0 0 1-.507-1.214c0-.489.172-.9.512-1.226.339-.325.77-.489 1.279-.489.505 0 .93.166 1.267.492.336.328.506.745.506 1.24 0 .48-.173.887-.514 1.205-.34.317-.773.477-1.287.477M122.838 206.47v-.19c0-.516.11-.9.33-1.154.218-.253.483-.38.79-.38.131 0 .289.022.47.062v.622a.852.852 0 0 0-.293-.057c-.249 0-.422.067-.52.2-.095.132-.142.368-.142.708v.19h.57v.573h-.57v2.634h-.635v-2.634h-.46v-.573h.46" style="fill:#171717;fill-opacity:1;fill-rule:nonzero;stroke:none;stroke-width:.0352778" transform="matrix(2.7102 0 0 2.7102 -256.546 -474.465)"/><path d="M122.91 209.607h.49v-2.636h.571v-.427h-.571v-.263c0-.36.052-.605.159-.752.11-.151.304-.228.576-.228a.83.83 0 0 1 .22.03v-.464a1.93 1.93 0 0 0-.398-.049c-.287 0-.528.117-.735.355-.207.24-.311.612-.311 1.108v.263h-.462v.427h.462zm.635.145h-.78v-2.637h-.46v-.716h.46v-.118c0-.532.117-.937.348-1.202.233-.27.516-.406.844-.406.137 0 .301.023.486.065l.058.013v.781l-.098-.034a.787.787 0 0 0-.268-.052c-.223 0-.378.057-.46.169-.086.119-.13.343-.13.666v.118h.571v.716h-.57v2.637M126.627 204.808h.697v4.808c0 .449-.046.78-.138.995a1.11 1.11 0 0 1-.444.515c-.204.13-.45.195-.738.195a2.28 2.28 0 0 1-.228-.021l-.129-.649h.178c.201 0 .353-.025.459-.073a.534.534 0 0 0 .25-.258c.063-.123.093-.385.093-.785v-4.727" style="fill:#171717;fill-opacity:1;fill-rule:nonzero;stroke:none;stroke-width:.0352778" transform="matrix(2.7102 0 0 2.7102 -256.546 -474.465)"/><path d="M125.837 211.234c.076.008.131.014.167.014.272 0 .508-.062.7-.183.19-.12.33-.282.416-.483.088-.204.13-.53.13-.966v-4.734h-.55v4.653c0 .416-.034.683-.1.817a.602.602 0 0 1-.286.291c-.116.054-.276.08-.489.08h-.09zm.167.16c-.047 0-.125-.009-.237-.023l-.051-.007-.157-.786h.266c.189 0 .334-.022.427-.066a.459.459 0 0 0 .218-.225c.038-.077.084-.27.084-.752v-4.8h.843v4.88c0 .463-.047.798-.144 1.024a1.189 1.189 0 0 1-.473.549 1.438 1.438 0 0 1-.776.205M128.665 207.75h1.615c-.016-.251-.092-.447-.226-.584-.135-.138-.315-.206-.544-.206a.78.78 0 0 0-.56.206c-.145.137-.24.333-.285.585zm2.243.38h-2.255c.016.308.12.552.308.733.19.181.434.272.734.272.418 0 .803-.13 1.156-.39v.62c-.195.13-.388.223-.578.278a2.427 2.427 0 0 1-.676.084c-.353 0-.638-.073-.858-.22a1.58 1.58 0 0 1-.524-.59 1.79 1.79 0 0 1-.197-.859c0-.488.138-.885.414-1.191.278-.306.637-.458 1.078-.458.425 0 .765.149 1.018.446.253.297.38.696.38 1.195v.08" style="fill:#171717;fill-opacity:1;fill-rule:nonzero;stroke:none;stroke-width:.0352778" transform="matrix(2.7102 0 0 2.7102 -256.546 -474.465)"/><path d="M128.756 207.678h1.444a.777.777 0 0 0-.198-.462c-.121-.124-.283-.184-.492-.184a.71.71 0 0 0-.51.186.904.904 0 0 0-.244.46zm1.602.145h-1.778l.015-.084c.046-.27.15-.479.304-.626a.858.858 0 0 1 .61-.226c.247 0 .448.077.596.228.147.149.23.361.248.631zm-.848-1.342c-.425 0-.759.143-1.024.435-.263.29-.395.674-.395 1.142 0 .311.063.589.188.824.125.237.294.427.5.566.206.137.48.208.818.208.25 0 .47-.028.654-.083.174-.05.351-.134.529-.247v-.444a1.963 1.963 0 0 1-1.085.325c-.318 0-.582-.098-.784-.291-.203-.195-.313-.457-.331-.78l-.005-.078 2.26-.008c0-.478-.123-.865-.363-1.147-.24-.284-.556-.422-.962-.422zm.087 3.319c-.366 0-.668-.078-.898-.233a1.671 1.671 0 0 1-.548-.617 1.884 1.884 0 0 1-.205-.892c0-.505.145-.921.433-1.239.29-.32.67-.482 1.13-.482.446 0 .808.158 1.075.471.263.31.397.727.397 1.242v.154h-2.25c.027.25.12.454.28.607.174.167.405.252.684.252.4 0 .775-.127 1.113-.377l.115-.086v.803l-.03.022c-.2.134-.403.23-.6.288a2.559 2.559 0 0 1-.696.087M133.094 207.036c-.304 0-.554.1-.75.3-.197.2-.293.455-.293.764 0 .307.099.557.3.752.2.192.456.29.77.29.311 0 .566-.098.765-.295a1.02 1.02 0 0 0 .299-.755c0-.304-.104-.556-.31-.756a1.08 1.08 0 0 0-.78-.3zm.034-.57c.489 0 .894.157 1.217.472.323.313.484.709.484 1.186 0 .462-.164.846-.491 1.152-.328.306-.74.459-1.237.459-.482 0-.885-.155-1.206-.466a1.545 1.545 0 0 1-.486-1.162c0-.47.164-.86.49-1.174.327-.312.736-.468 1.229-.468" style="fill:#171717;fill-opacity:1;fill-rule:nonzero;stroke:none;stroke-width:.0352778" transform="matrix(2.7102 0 0 2.7102 -256.546 -474.465)"/><path d="M133.094 207.109a.93.93 0 0 0-.698.278c-.184.188-.273.42-.273.713 0 .288.092.517.278.7.185.178.427.268.72.268.294 0 .528-.088.714-.273.187-.184.276-.414.276-.703a.93.93 0 0 0-.288-.704 1.003 1.003 0 0 0-.729-.28zm.026 2.105c-.33 0-.607-.105-.82-.312a1.077 1.077 0 0 1-.321-.802c0-.327.104-.601.312-.814.21-.215.48-.322.803-.322.33 0 .61.107.83.32.221.213.333.485.333.808 0 .326-.108.597-.32.807a1.12 1.12 0 0 1-.817.315zm.008-2.677c-.47 0-.867.151-1.179.448-.31.298-.468.675-.468 1.122 0 .442.158.815.463 1.11.308.295.697.444 1.157.444.475 0 .876-.147 1.187-.438.31-.29.47-.66.47-1.1 0-.453-.157-.834-.463-1.134-.31-.3-.701-.452-1.167-.452zm-.027 3.27c-.499 0-.922-.164-1.257-.486a1.62 1.62 0 0 1-.506-1.214c0-.489.17-.9.513-1.226.337-.325.767-.489 1.277-.489.505 0 .932.166 1.267.492.337.328.508.745.508 1.24 0 .48-.174.887-.515 1.205-.34.317-.774.477-1.287.477M136.168 206.47v.41c.283-.315.605-.471.965-.471.2 0 .385.052.558.155.173.104.303.245.392.425.09.18.134.465.134.857v1.832h-.634v-1.826c0-.328-.05-.561-.149-.702-.101-.14-.268-.211-.503-.211-.3 0-.554.15-.763.449v2.29h-.649v-3.207h.649" style="fill:#171717;fill-opacity:1;fill-rule:nonzero;stroke:none;stroke-width:.0352778" transform="matrix(2.7102 0 0 2.7102 -256.546 -474.465)"/><path d="M137.655 209.607h.49v-1.761c0-.379-.042-.656-.126-.825a.95.95 0 0 0-.365-.395.999.999 0 0 0-.52-.145c-.339 0-.645.151-.912.447l-.126.14v-.524h-.504v3.063h.504l.013-2.26c.222-.32.5-.481.822-.481.258 0 .446.081.562.242.11.155.162.399.162.744zm.636.145h-.78v-1.9c0-.31-.046-.533-.137-.66-.087-.122-.232-.18-.443-.18-.27 0-.497.13-.69.4v2.34h-.794v-3.353h.794v.304a1.29 1.29 0 0 1 .892-.366c.213 0 .414.055.596.164.182.111.324.264.42.456.094.192.142.483.142.889v1.906M139.395 205.123a.375.375 0 0 1 .381.373.37.37 0 0 1-.374.376.367.367 0 0 1-.265-.111.356.356 0 0 1 0-.525.353.353 0 0 1 .258-.113zm-.3 1.348h.636v3.663c0 .556-.214.95-.64 1.179l-.472-.463a.683.683 0 0 0 .349-.27.79.79 0 0 0 .128-.446v-3.663" style="fill:#171717;fill-opacity:1;fill-rule:nonzero;stroke:none;stroke-width:.0352778" transform="matrix(2.7102 0 0 2.7102 -256.546 -474.465)"/><path d="M139.395 205.195a.286.286 0 0 0-.208.093.28.28 0 0 0-.091.208c0 .083.029.152.092.212a.3.3 0 0 0 .429.005.29.29 0 0 0 .085-.217.288.288 0 0 0-.089-.212.299.299 0 0 0-.218-.088zm.007.75a.447.447 0 0 1-.316-.132.434.434 0 0 1-.002-.629.442.442 0 0 1 .63-.004.429.429 0 0 1 .135.315.436.436 0 0 1-.128.32.431.431 0 0 1-.319.13zm-.656 4.929.356.349c.374-.22.556-.577.556-1.089v-3.59h-.49v3.59a.855.855 0 0 1-.14.488.758.758 0 0 1-.282.252zm.331.529-.592-.583.109-.038a.622.622 0 0 0 .313-.24.714.714 0 0 0 .115-.408V206.4h.78v3.735c0 .582-.227 1-.677 1.243l-.048.026M142.71 209.678v-.411a1.468 1.468 0 0 1-.46.344 1.189 1.189 0 0 1-.519.124c-.203 0-.389-.051-.56-.152a1.002 1.002 0 0 1-.386-.411c-.087-.174-.13-.461-.13-.864v-1.837h.633v1.829c0 .336.05.571.145.704.097.133.265.2.508.2.301 0 .559-.148.769-.442v-2.291h.634v3.207h-.634" style="fill:#171717;fill-opacity:1;fill-rule:nonzero;stroke:none;stroke-width:.0352778" transform="matrix(2.7102 0 0 2.7102 -256.546 -474.465)"/><path d="M140.727 206.544v1.764c0 .39.041.668.122.832a.944.944 0 0 0 .36.381c.295.173.655.193 1.009.025.164-.078.31-.187.439-.328l.126-.137v.526h.488v-3.063h-.488l-.013 2.26c-.225.315-.505.473-.83.473-.264 0-.454-.077-.567-.23-.106-.147-.157-.392-.157-.747v-1.756zm1.004 3.262c-.214 0-.414-.054-.596-.16a1.064 1.064 0 0 1-.415-.442c-.094-.186-.139-.479-.139-.896v-1.909h.78v1.9c0 .32.043.543.13.663.083.113.233.17.45.17.272 0 .501-.129.697-.394v-2.339h.78v3.353h-.78v-.313c-.11.097-.228.177-.36.238-.18.086-.365.13-.547.13" style="fill:#171717;fill-opacity:1;fill-rule:nonzero;stroke:none;stroke-width:.0352778" transform="matrix(2.7102 0 0 2.7102 -256.546 -474.465)"/><path d="M153.391 203.128h1.382v7.342h-1.382v-3.89h-1.758v-1.132h1.758zm-2.689 6.687v2.092h4.29v1.21h-5.683v-3.302zm-3.382-5.064v-1.187h4.805v1.187h-1.676v.436c0 .276.054.564.158.866.104.3.227.546.368.736.165.225.386.452.663.68.275.23.591.434.948.616l-.703 1.001a4.147 4.147 0 0 1-.538-.288c-.191-.12-.379-.25-.56-.387a7.425 7.425 0 0 1-.56-.507 3.71 3.71 0 0 1-.434-.506c-.098.153-.22.315-.368.485a7.889 7.889 0 0 1-1.089 1.04 3.972 3.972 0 0 1-.615.414l-.87-.96c.314-.188.62-.418.916-.69.296-.273.532-.536.706-.79.14-.21.263-.475.366-.795.105-.32.159-.618.159-.893v-.458h-1.676M157.742 204.773v-1.199h5.779v1.2h-2.105c.048.21.128.408.235.594.109.184.242.352.402.506.19.181.461.371.819.572.355.199.74.364 1.15.495l-.658 1.002a4.436 4.436 0 0 1-.738-.289 9.038 9.038 0 0 1-.77-.42 5.604 5.604 0 0 1-.703-.484 2.896 2.896 0 0 1-.491-.495 3.444 3.444 0 0 1-.508.485c-.212.17-.445.335-.695.495-.245.152-.5.29-.764.414-.265.123-.52.222-.764.294l-.68-.991c.43-.146.836-.33 1.213-.55a4.45 4.45 0 0 0 .88-.648c.112-.11.213-.252.303-.43.09-.177.158-.361.199-.55zm-1.434 4.695v-1.187h8.667v1.187h-3.581v2.527h-1.455v-2.527h-3.63M172.234 203.142h1.391v8.626h-1.391zm-4.376 5.043h1.674v-1.667h-1.674zm-1.373-4.64h1.373v1.797h1.674v-1.797h1.373v5.839h-4.42v-5.84M181.654 203.128h1.381v7.342h-1.381v-3.89h-1.76v-1.132h1.76zm-2.69 6.687v2.092h4.29v1.21h-5.683v-3.302zm-3.381-5.064v-1.187h4.803v1.187h-1.673v.436c0 .276.05.564.156.866.104.3.227.546.366.736.169.225.39.452.665.68.276.23.593.434.946.616l-.702 1.001a4.278 4.278 0 0 1-.536-.288c-.193-.12-.38-.25-.56-.387a6.945 6.945 0 0 1-.562-.507 3.927 3.927 0 0 1-.434-.506c-.096.153-.22.315-.365.485-.148.17-.307.34-.482.507a8.78 8.78 0 0 1-.608.532c-.21.169-.415.306-.617.415l-.87-.96c.314-.188.62-.418.916-.69.299-.273.533-.536.708-.79.14-.21.26-.475.365-.795.106-.32.158-.618.158-.893v-.458h-1.674M191.31 203.155h1.36v8.692h-1.36v-4.749h-.692v4.498H189.3v-8.288h1.32v2.483h.69zm-2.273 5.696c-.426.145-.88.238-1.366.279-.486.039-.886.059-1.208.059l-1.413.01v-5.522h3.577v1.231h-2.207v3.094l.178.01c.3.014.694-.008 1.178-.07a10.1 10.1 0 0 0 1.26-.234v1.143M202.889 205.706v1.22h-1.32v2.123h-1.383v-5.902h1.383v2.56zm-6.808 3.748h5.488v3.767h-1.393v-2.591h-4.095zm1.406-3.834c-.218-.233-.452-.349-.703-.349-.25 0-.484.116-.703.349a1.18 1.18 0 0 0-.323.827c0 .311.108.585.323.817.22.233.454.35.703.35.251 0 .485-.117.703-.35.215-.232.324-.506.324-.817a1.18 1.18 0 0 0-.324-.827m2.197-1.667v1.177h-1.036a2.145 2.145 0 0 1 .514 1.36c0 .64-.23 1.188-.688 1.646-.458.456-1.02.686-1.69.686-.671 0-1.232-.23-1.685-.686a2.255 2.255 0 0 1-.681-1.645 2 2 0 0 1 .138-.73c.09-.232.212-.443.365-.63h-1.056v-1.178h2.198v-1.1h1.476v1.1h2.145M208.527 204.848h-4.65v-1.3h6.135s.004 4.143-.444 5.219h-1.357s.513-1.775.316-3.92" style="fill:#231f20;fill-opacity:1;fill-rule:nonzero;stroke:none;stroke-width:.0352778" transform="matrix(2.7102 0 0 2.7102 -256.546 -474.465)"/><path d="M210.435 209.531v1.3h-7.291v-1.3h1.502v-1.272h1.376v1.272h.514v-1.272h1.376v1.272h2.523" style="fill:#231f20;fill-opacity:1;fill-rule:nonzero;stroke:none;stroke-width:.0352778" transform="matrix(2.7102 0 0 2.7102 -256.546 -474.465)"/><path d="M145.145 201.257v14.696h.284v-14.696h-.284M109.173 175.518v1.725h3.17c-.377 1.035-4.12 11.4-4.813 13.325l-4.843-13.325h3.136v-1.725H94.659v1.725h2.788l7.725 21.268h1.614l7.5-21.268h2.814v-1.725h-7.927M129.721 177.331v-1.75h-11.616v1.75h3.248v19.339h-3.248v1.745h11.616v-1.745h-3.245V177.33h3.245M142.893 184.417c-.65-.31-1.38-.526-2.022-.718l-.21-.065-.706-.22-1.334-.405-.448-.117c-1.962-.526-2.987-.886-2.987-2.778 0-2.024 1.871-3.277 3.602-3.277 3.399 0 4.934 2.852 5.215 5.294l.046.41h1.929v-7.124h-1.25l-1.107 1.16c-1.452-1.046-2.856-1.489-4.73-1.489-3.67 0-6.435 2.78-6.435 6.467 0 3.416 1.735 5.827 4.89 6.775.646.192 1.301.424 1.944.647l.706.238c2.24.745 4.17 1.391 4.17 3.817 0 2.313-1.944 4.13-4.423 4.13-3.912 0-5.21-3.945-5.585-5.638l-.078-.362h-1.786v7.452h1.195s.997-.89 1.379-1.236c1.19.91 3.025 1.53 4.646 1.53 4.344 0 7.381-3.144 7.381-7.647 0-3.371-1.27-5.545-4.002-6.844M160.9 177.331v-1.75h-11.617v1.75h3.244v19.339h-3.244v1.745h11.618v-1.745h-3.25V177.33h3.25" style="fill:#171717;fill-opacity:1;fill-rule:nonzero;stroke:none;stroke-width:.0352778" transform="matrix(2.7102 0 0 2.7102 -256.546 -474.465)"/><path d="M210.435 198.527h-4.557l-12.723-14.747v14.747h-5.465V175.51h4.993l12.286 14.074V175.51h5.466v23.017M173.165 193.612a6.582 6.582 0 1 1 0-13.165 6.578 6.578 0 0 1 6.578 6.582 6.58 6.58 0 0 1-6.578 6.583zm0-18.546c-6.606 0-11.962 5.358-11.962 11.963 0 6.603 5.356 11.957 11.962 11.957 6.605 0 11.961-5.354 11.961-11.957 0-6.605-5.356-11.963-11.96-11.963" style="fill:#ee481f;fill-opacity:1;fill-rule:nonzero;stroke:none;stroke-width:.0352778" transform="matrix(2.7102 0 0 2.7102 -256.546 -474.465)"/></svg>