<svg xmlns="http://www.w3.org/2000/svg" width="675.00952pt" height="675pt" fill-rule="evenodd" viewBox="0 0 675.00952 674.99999"><path d="M534.096 1109.34c-186.407 0-337.509 151.117-337.509 337.476 0 186.407 151.102 337.524 337.51 337.524 186.392 0 337.5-151.117 337.5-337.524 0-186.36-151.108-337.476-337.5-337.476z" style="fill:#0a4079;stroke:none;stroke-width:4.76258" transform="translate(-196.587 -1109.34)"/><path d="M712.129 1490.36c-242.32 0-438.774 196.408-438.774 438.728 0 242.32 196.454 438.793 438.774 438.793 242.307 0 438.74-196.473 438.74-438.793s-196.433-438.729-438.74-438.729zm12.242 27.433h9.633l-16.217 53.213h-11.945l-16.694-53.15h10.415l12.45 41.72h.141zm22.69 1.27 28.373 3.365-.979 8.318-18.746-2.223-1.512 13.018 17.133 2.033-.976 8.319-17.153-2.034-1.74 14.797 18.873 2.285-.979 8.256-28.511-3.302zm-69.3.127 4.973 52.958-9.652.89-4.978-52.895zm-25.462 2.476 10.16 52.133-11.64 2.287-25.77-35.498h-.133l7.596 39.055-9.139 1.777-10.14-52.197 11.703-2.287 25.699 35.56.138-.062-7.593-39.055zm138.71 3.365 10.186 2.412c10.129 2.413 22.283 4.89 18.905 19.305-1.436 6.033-6.331 10.224-12.56 9.652l-.02.192c2.501.825 3.32 4 3.714 6.476l2.795 22.098-10.515-2.539-1.873-17.463c-.438-4.191-1.303-5.97-5.278-6.922l-3.035-.699-5.074 21.465-9.455-2.16zm-195.189 8.89 11.088 32.132c4.661 13.462-.382 21.336-12.111 25.4-11.735 4.064-20.598.953-25.246-12.51l-11.088-32.13 9.176-3.176 10.007 29.02c2.979 8.572 7.398 13.336 14.415 10.923 7.01-2.476 7.563-8.891 4.597-17.527l-10.027-28.957zm202.715 1.524-3.289 13.971 3.111.697c4.661 1.143 10.16 1.588 11.678-4.826 1.467-6.223-3.676-8-8.394-9.08zm48.664 5.168c2.257.051 4.55.527 6.74 1.309 3.918 1.46 7.367 3.302 10.256 5.715l-3.816 7.937c-2.381-2.35-5.298-4.318-8.498-5.46-3.13-1.144-7.708-1.079-9.67 4.382-3.137 8.636 18.129 12.193 12.09 28.957-3.969 10.986-13.36 12.319-22.55 8.953-4.958-1.778-6.914-3.302-10.972-6.16l4.102-8.7c2.457 2.985 5.608 5.526 9.19 6.796 3.447 1.206 8.78.952 10.42-3.557 3.435-9.525-17.94-12.763-11.964-29.273 2.777-7.728 8.067-10.712 13.707-10.895.32-.01.643-.01.965 0zm32.211 12.614 8.813 4-22.168 48.324-8.826-4zm18.668 8.38 32.615 18.416-4.12 7.303-12.073-6.795-22.016 38.99-8.459-4.763 22.016-39.053-12.078-6.795zm-389.107 9.526 21.869 39.052 16.408-9.144 4.084 7.303-24.855 13.908-25.971-46.42zm428.713 13.144 9.15 6.73-3.98 24.766 22.613-11.11 8.254 6.095-32.989 15.683-12.427 16.893-7.823-5.715 12.434-16.955zm-463.907 9.145 46.643 31.814-8.676 6.285-10.553-7.365-15.857 11.557 3.754 12.32-8.129 5.905-16.04-54.04zm238.338 7.176c181.435 0 328.51 147.068 328.51 328.49s-147.075 328.555-328.51 328.555c-181.41 0-328.502-147.133-328.502-328.555s147.093-328.49 328.502-328.49zm-236.611 4.761-.102.064 7.252 21.844 11.424-8.318zm-35.865 14.479 36.95 38.164-8.515 8.256-40.957-15.686-.082.064 27.64 28.574-6.69 6.48-36.952-38.23 8.578-8.255 40.883 15.75.113-.064-27.648-28.639zm560.877 23.379c5.828.06 11.443 2.6 16.322 7.927 10.243 11.177 7.697 25.083-4.184 35.942-11.836 10.859-26.055 12.447-36.386 1.207-10.497-11.494-7.646-25.21 4.375-36.195 6.389-5.836 13.267-8.95 19.873-8.881zm1.761 9.664c-5.056-.137-10.486 2.74-14.808 6.709-7.074 6.477-11.723 15.686-5.03 22.988 6.7 7.303 16.328 3.49 23.39-2.986 6.908-6.287 11.328-15.748 4.825-22.797-2.443-2.667-5.343-3.832-8.377-3.914zm-599.511 15.459c5.94.096 12.214 2.576 18.18 7.19 12.719 9.842 16.738 23.557 7.384 35.622-9.493 12.32-23.484 11.876-36.38 1.907-12.898-9.97-16.547-23.306-7.15-35.498 4.933-6.376 11.234-9.33 17.966-9.221zm-1.797 9.69c-3.593-.013-6.961 1.341-9.545 4.675-5.887 7.62-.693 16.637 6.71 22.352 7.602 5.842 17.501 8.89 23.56 1.015 6.07-7.874.654-16.637-6.954-22.543-4.165-3.215-9.152-5.485-13.771-5.5zm640.564 3.976 15.584 21.97-6.845 4.827-9.944-14.034-10.681 7.62 9.46 13.336-6.832 4.826-9.46-13.336-19.014 13.463-5.613-7.875zm-677.853 27.242 45.224 27.94-5.105 8.255-45.23-27.941zm-10.866 17.271 7.467 3.811-6.279 12.383 39.924 20.256-4.4 8.7-39.93-20.32-6.287 12.383-7.461-3.81zm723.442 9.907 12.555 25.592-7.52 3.746-8.293-16.955-11.766 5.714 7.594 15.559-7.531 3.684-7.602-15.496-13.39 6.54 8.344 17.02-7.526 3.746-12.617-25.781zm19.361 41.275 4.281 12.574c4.795 14.034 3.855 28.194-16.097 34.989-19.965 6.858-29.402-3.746-34.21-17.78l-4.292-12.574zm-767.605 1.842 56.459.953-3.805 10.033-12.86-.38-6.908 18.351 9.913 8.254-3.532 9.398-43.134-36.322zm7.994 9.018-.045.126 18.066 14.288 4.979-13.272zm754.824 1.08-34.45 11.746 1.741 5.144c2.623 7.62 11.436 12.891 22.402 9.145 10.935-3.747 14.67-13.272 12.053-20.955zm-776.86 30.796 51.907 11.56-2.566 11.556-42.83 9.46-.026.128 38.818 8.572-2.007 9.082-51.918-11.494 2.597-11.621 42.813-9.399.017-.127-38.818-8.635zm798.983 11.94 1.81 9.523-30.15 5.78c-8.909 1.65-14.243 5.334-12.86 12.636 1.398 7.303 7.723 8.826 16.632 7.112l30.144-5.778 1.823 9.526-33.37 6.412c-13.995 2.667-21.133-3.491-23.45-15.684-2.337-12.192 2.044-20.51 16.046-23.177zm-14.912 55.99c16.158.21 25.69 9.491 26.596 24.91.184 3.175-.24 7.43-1.555 11.05l-9.023-.128c2.063-3.81 2.413-7.175 2.197-10.668-.584-9.97-9.31-15.686-20.193-15.05-10.79.634-18.57 7.176-17.96 17.527.216 3.81 1.405 8.254 2.82 10.476l-8.87.953c-1.118-3.492-2.11-7.238-2.319-10.921-.927-15.685 7.03-27.053 24.989-28.069a45.586 45.586 0 0 1 3.318-.08zm-797.627 12.4 33.973.698c14.23.317 19.946 7.747 19.705 20.193-.26 12.383-6.276 19.622-20.526 19.305l-33.959-.7.204-9.714 30.683.635c9.062.19 15.063-2.286 15.21-9.715.152-7.43-5.737-10.161-14.792-10.352l-30.695-.635zm771.176 29.274 51.732 22.478-.767 10.922-54.364 15.24.756-10.667 12.44-3.301 1.379-19.623-11.87-5.016zm19.328 18.414-.984 14.098 22.377-5.397.014-.191zm-748.72 4.705c5.527-.096 12.773 2.774 13.595 12.06.222 2.604.172 4.699-.336 7.493l-9.195.762c.419-1.334.685-2.731.513-4.7-.558-6.286-6.102-5.778-9.886-5.46l-35.287 3.113-.838-9.717 40.353-3.492c.351-.032.712-.052 1.08-.06zm13.92 26.729 2.316 11.62-35.37 25.973.02.127 38.996-7.81 1.809 9.08-52.141 10.476-2.318-11.746 35.382-25.845-.03-.127-38.997 7.748-1.822-9.082zM1112.42 1983l8.242 1.525-6.693 36.83-8.248-1.523 2.482-13.654-44.068-8 1.738-9.526 44.07 8zm-52.719 34.799 51.328 13.906-2.527 9.336-51.322-13.844zm-706.717 16.05c9.903-.021 18.036 4.958 21.733 15.319 5.245 14.669-2.693 26.164-18.047 31.625-15.348 5.524-28.55 1.396-33.732-13.082-5.112-14.288 2.628-26.1 17.767-31.56 4.258-1.519 8.404-2.293 12.28-2.301zm713.762 8.946c4.234-.05 8.822.866 13.574 2.691 15.209 5.906 22.512 17.653 16.955 32.004-5.48 14.161-19.07 18.035-34.056 12.256-14.993-5.779-22.77-17.844-17.246-32.068 3.859-9.998 11.459-14.773 20.773-14.883zm-712.35 1.033c-3.318-.06-6.89.657-10.28 1.848-8.827 3.175-16.524 10.096-13.286 19.24 3.245 9.017 13.609 9.527 22.441 6.352 9.03-3.176 16.91-9.908 13.57-19.243-2.09-5.834-6.914-8.096-12.445-8.197zm712.05 8.977c-5.533-.06-10.416 2.063-12.663 7.857-3.562 9.271 4.128 16.194 13.069 19.623 8.75 3.366 19.126 3.173 22.6-5.844 3.485-8.953-4.038-16.128-12.776-19.494-3.358-1.286-6.911-2.107-10.23-2.142zm-680.96 26.02 13.106 25.527-47.301 24.257-13.037-25.4 7.441-3.875 8.618 16.828 11.66-6.033-7.887-15.303 7.455-3.81 7.887 15.304 13.271-6.795-8.662-16.892zm648.891 8.825 46.268 26.227-5.856 10.35-43.701-3.493-.057.064 34.596 19.621-4.567 8.065-46.285-26.162 5.834-10.352 43.74 3.494.064-.127-34.603-19.558zm-632.852 30.744c3.764-.05 7.758 1.534 10.758 6.213 1.429 2.223 2.35 4.128 3.162 6.795l-7.771 4.953c-.26-1.397-.687-2.793-1.729-4.38-3.397-5.334-8.082-2.35-11.289-.254l-29.86 19.048-5.232-8.19 34.17-21.782c2.076-1.334 4.864-2.363 7.791-2.403zm23.496 57.395c4.744 0 8.573 3.81 8.573 8.51a8.548 8.548 0 0 1-8.573 8.572 8.544 8.544 0 0 1-8.552-8.572c0-4.7 3.828-8.51 8.552-8.51zm573.81 0c4.736 0 8.566 3.81 8.566 8.51a8.547 8.547 0 0 1-8.567 8.572 8.558 8.558 0 0 1-8.574-8.572c0-4.7 3.843-8.51 8.574-8.51zm-516.081 30.545 31.719 22.543-4.33 6.031-11.608-8.191c-2.654 7.239-1.016 15.178 4.68 19.75l-4.307 6.031c-6.763-5.27-9.912-13.398-9.449-21.97-7.938 3.238-16.7 2.921-23.889-1.651l4.319-6.096c6.185 3.874 14.185 2.794 20.174-2.096l-11.62-8.255zm455.516 3.277c1.562.058 3.151.905 4.187 2.373l23.293 33.213 3.772-2.668 4.279 6.096-46.508 32.64-4.273-6.097 8.287-5.842-15.139-21.59 7.17-5.015 15.13 21.59 6.409-4.446-15.152-21.654 7.17-5.016 15.138 21.59 6.541-4.572-22.004-31.37-33.273 23.305-4.287-6.095 36.601-25.655a4.234 4.234 0 0 1 2.659-.787zm-418.196 21.805 7.125 5.08-32.017 45.086-37.186-26.416c-2.12-1.524-2.496-4.635-.806-6.984l9.835-13.844 7.143 5.08-8.547 12.002 26.74 19.049 16.842-23.748-5.46-3.873 4.304-6.098 5.486 3.875zm355.795 16.383 4.49 10.351 6.116-2.603 2.972 6.795-6.129 2.666 4.795 11.113-8.027 3.43-12.248-28.258zm-328.07 1.398 48.914 20.701-2.902 6.858-18.922-8c.863 7.176 7.416 13.334 15.83 17.398l-2.903 6.858c-10.261-4.826-17.792-10.35-20.93-20.828-9.658 5.08-18.846 3.492-29.47-.508l2.908-6.858c8.789 3.175 17.729 3.684 23.514-.761l-18.941-8.002zm314.94 5.524 2.939 6.86-4.37 1.903c2.103 1.46 3.785 3.43 4.852 5.842 3.245 7.493-.703 16.447-8.838 19.94-8.109 3.492-17.317.255-20.568-7.239a13.855 13.855 0 0 1-.965-7.494l-4.369 1.842-2.953-6.857 13.113-5.653-1.398-3.174 8.072-3.494 1.36 3.176zm-11.34 13.632c-.95 0-1.912.195-2.834.592-3.722 1.651-5.436 5.97-3.823 9.653 1.613 3.746 5.918 5.461 9.633 3.81 3.715-1.587 5.397-5.907 3.797-9.59a7.323 7.323 0 0 0-6.773-4.465zm-43.12 6.053 11.088 54.166-8.326 1.715-6.387-31.242-4.261.889 6.394 31.18-8.312 1.714-1.594-7.81-26.295 5.396c-2.54.508-5.067-1.397-5.639-4.191l-8.21-40.131 24.974-5.08 1.492 7.238-16.422 3.43 6.287 30.607 22.32-4.572-7.993-39.053 8.298-1.715 3.207 15.684 4.262-.889-3.201-15.62zm-189.683 1.969 43.873 8.572c2.534.508 4.158 3.175 3.625 5.969l-7.746 39.879 4.527.826-1.416 7.365-55.773-10.857 1.422-7.303 9.95 1.969 5.03-25.908 8.611 1.65-5.035 25.908 7.658 1.461 5.041-25.908 8.598 1.715-5.035 25.844 7.824 1.588 7.309-37.657-39.885-7.746zm-84.342.127 52.293 22.098-2.902 6.922-22.118-9.335-6.337 14.922-8.059-3.427 6.326-14.924-22.105-9.397zm354.977 2.16 8.597 19.875-8.039 3.492-5.633-13.017-38.1 16.447-2.966-6.795zm-176.57 5.143c10.178-.064 18.464 7.619 18.478 17.144 0 3.62-1.188 6.985-3.233 9.78h13.934l.037 7.43h-13.666l.014 5.269h10.884l.051 19.431-8.77.064-.013-12.001-43.955.063v-7.43h11.76l-.014-5.333-13.646.064-.032-7.43 13.057-.064a16.342 16.342 0 0 1-3.283-9.78c-.026-9.46 8.217-17.208 18.396-17.208zm.025 7.43c-5.392 0-9.754 4.381-9.735 9.779.013 5.397 4.376 9.78 9.78 9.717 5.39 0 9.747-4.382 9.734-9.78-.025-5.334-4.388-9.717-9.78-9.717zm-5.76 26.988.012 5.271h12.543l-.034-5.271z" style="fill:#fff;stroke:none;stroke-width:6.35011" transform="matrix(.75 0 0 .75 -196.587 -1109.34)"/><g transform="matrix(4.76258 0 0 4.76258 -936.26 -5283.317)"><path d="M275.957 1203.45c0 10.64-8.773 19.27-19.669 19.27-8.14 0-15.125-4.81-18.14-11.67l10.521-7.01c.873 2.81 2.683 4.65 5.25 4.65 3.114 0 5.029-2.56 5.029-5.24v-40.25h17.009z" style="fill:#0079be;stroke:none"/><defs><linearGradient id="a" x1="263.20099" x2="263.20099" y1="1203.45" y2="1163.2" gradientUnits="userSpaceOnUse"><stop offset="0" style="stop-color:#0079be"/><stop offset="1" style="stop-color:#0079be"/></linearGradient></defs><path d="M258.948 1163.2h8.506v40.25h-8.506z" style="fill:url(#a);stroke:none"/></g><path d="m258.948 1140.52 8.504-5.67 8.505 5.67-8.503 5.67zM258.948 1163.2l8.504-5.67 8.505 5.67-8.503 5.66zM275.957 1151.86l8.503-5.67 8.505 5.67-8.504 5.67z" style="fill:#97c124;stroke:none" transform="matrix(4.76258 0 0 4.76258 -936.26 -5283.317)"/><path d="m258.948 1185.88 8.504-5.68 8.505 5.68-8.505 5.66z" style="fill:#fff;stroke:none" transform="matrix(4.76258 0 0 4.76258 -936.26 -5283.317)"/><path d="m275.957 1174.54 8.503-5.68 8.505 5.68-8.505 5.66zM292.965 1163.2l8.503-5.67 8.506 5.67-8.506 5.66zM258.948 1151.86l-8.502-5.67-8.505 5.67 8.503 5.67zM258.948 1174.54l-8.502-5.68-8.505 5.68 8.505 5.66zM241.941 1163.2l-8.505-5.67-8.501 5.67 8.501 5.66z" style="fill:#97c124;stroke:none" transform="matrix(4.76258 0 0 4.76258 -936.26 -5283.317)"/></svg>