<svg xmlns="http://www.w3.org/2000/svg" width="464.34924pt" height="457.1059pt" viewBox="0 0 464.34922 457.10589"><path d="M391.73 384.383a6.3 6.3 0 0 0 6.297-6.301c0-3.484-2.816-6.3-6.297-6.3a6.306 6.306 0 0 0-6.304 6.3c0 3.477 2.832 6.3 6.304 6.3" style="fill:#fff;fill-opacity:1;fill-rule:nonzero;stroke:none" transform="matrix(1.18808 0 0 1.18808 -121.446 -271.565)"/><path d="M275.766 370.172c-22.48-33.617-71.121-43.777-108.723-30.043 13.418 4.152 23.64 15.754 28.11 26.426 8.343 19.918 21.785 47.504 55.624 51.097v-47.48zm0 0" style="fill:#4caf4a;fill-opacity:1;fill-rule:nonzero;stroke:none" transform="matrix(1.18808 0 0 1.18808 -121.446 -271.565)"/><path d="M391.73 371.781a6.294 6.294 0 0 1 6.297 6.301 6.3 6.3 0 0 1-6.297 6.3c-3.472 0-6.304-2.823-6.304-6.3 0-3.484 2.832-6.3 6.304-6.3m-67.976-1.61h42.129l-38.406 52.41c17.093.719 30.976 4.95 42.32 11.383 20.488-9.8 33.902-27.598 42.023-36.387 15.75-17.035 32.79-16.543 32.79-16.543-29.184-17.703-54.407-21.062-75.485-16.996 2.516-9.262 3.688-17.668 4.887-23.414 4.484-21.512 18.894-29.496 18.894-29.496-106.304 0-104.332 103.957-104.062 111.305h.168zm0 0" style="fill:#0057b8;fill-opacity:1;fill-rule:nonzero;stroke:none" transform="matrix(1.18808 0 0 1.18808 -121.446 -271.565)"/><path d="M250.777 423.297c-62.172 10-70.66 66.156-78.297 89.043-8.914 26.726-30.449 40.515-30.449 40.515 84.149 0 120.543-31.582 135.828-63.656h-27.082zm0 0" style="fill:#f55cac;fill-opacity:1;fill-rule:nonzero;stroke:none" transform="matrix(1.18808 0 0 1.18808 -121.446 -271.565)"/><path d="M416.648 498.164c-7.746-22.344-20.472-49.219-46.855-64.2-11.34-6.433-25.223-10.663-42.316-11.382l-.012.02 44.719 66.597h-43.942l-39.097-63.09c-.125.024-.247.043-.375.067 0 0-5.938 126.68 169.46 126.68-23.742-12.587-34.535-34.348-41.582-54.692" style="fill:#ffb300;fill-opacity:1;fill-rule:nonzero;stroke:none" transform="matrix(1.18808 0 0 1.18808 -121.446 -271.565)"/><path d="M219.02 576.168c.937-.121 1.609-.469 2.023-1.055.414-.586.969-2.078 1.664-4.488l3.719-13.512c.133-.457.242-.863.32-1.21.082-.348.121-.653.121-.915 0-.508-.18-.832-.539-.968-.363-.13-1.055-.215-2.078-.25v-.926h8.227l2.105 17.113 11.07-17.113h7.668v.926c-.828.097-1.406.265-1.734.492-.516.351-.918 1.039-1.2 2.054l-4.468 16.329c-.11.351-.2.71-.277 1.074a4.61 4.61 0 0 0-.114.926c0 .605.172.98.52 1.144.348.156 1.055.281 2.129.379v.926h-11.301v-.926c1.207-.121 2.043-.313 2.496-.594.45-.281.82-.949 1.102-2.011l4.593-16.696-13.578 20.719h-1.023l-2.473-20.137-3.62 13.176a26.025 26.025 0 0 0-.427 1.68c-.168.738-.246 1.32-.246 1.754 0 .851.332 1.437 1.008 1.757.375.188 1.004.309 1.887.352v.926h-7.574zM256.707 580.215c.809-.996 1.219-1.957 1.219-2.871 0-.84-.23-2.5-.696-5.004-.296-1.606-.609-3.172-.945-4.703-.605-2.692-1.058-4.297-1.348-4.793-.292-.496-.859-.75-1.703-.75v-.922a48.265 48.265 0 0 0 3.559-.477c1.238-.215 1.8-.316 1.672-.289l.246-.035c.277.84.71 2.504 1.289 4.992a103.184 103.184 0 0 1 1.36 6.77l.136.855.692-1.203c.574-.965 1.132-2.11 1.68-3.422.546-1.32.82-2.21.82-2.664 0-.222-.06-.441-.172-.644-.121-.207-.317-.403-.586-.594l-.282-.192a2.592 2.592 0 0 1-.566-.566c-.27-.39-.406-.8-.406-1.238 0-.512.199-.996.59-1.43.394-.45.894-.664 1.492-.664.527 0 1.031.195 1.515.582.485.39.723 1.02.723 1.887 0 1.433-.68 3.59-2.039 6.472a61.886 61.886 0 0 1-3.55 6.48c-1.88 2.977-3.579 5.188-5.102 6.622-1.524 1.43-3.063 2.145-4.63 2.145-.671 0-1.222-.223-1.663-.66-.45-.446-.664-.946-.664-1.493 0-.59.207-1.054.617-1.402a2.14 2.14 0 0 1 1.394-.516c.54 0 1.153.203 1.836.61.684.41 1.14.613 1.375.613.61 0 1.32-.496 2.137-1.496M274.047 577.094h10.367c4.95 0 8.941-1.516 11.984-4.547 2.739-2.727 4.114-5.942 4.114-9.633 0-3.07-.93-5.516-2.774-7.34-1.847-1.82-4.539-2.73-8.082-2.73h-10.469v.926c1.086.09 1.793.218 2.141.375.34.16.508.55.508 1.16 0 .242-.031.515-.094.824-.062.316-.164.703-.293 1.16l-4.472 16.274c-.282 1.042-.7 1.742-1.254 2.109-.325.223-.89.39-1.676.5zm21.152-16.414c0 2.992-.578 5.836-1.738 8.527-1.914 4.434-5.008 6.652-9.285 6.652-.75 0-1.266-.109-1.551-.312-.285-.215-.434-.55-.434-1.02a3.29 3.29 0 0 1 .125-.84l5.04-18.328c.117-.422.308-.77.582-1.027.273-.254.792-.383 1.554-.383 2.29 0 3.89.82 4.82 2.446.594 1.058.887 2.492.887 4.285M300.922 577.094c1.004-3.469 1.828-6.453 2.465-8.95.726-2.687 1.093-4.289 1.093-4.796 0-.453-.152-.739-.445-.868-.297-.132-.8-.195-1.515-.195v-.926c1.53-.097 2.828-.222 3.878-.375.684-.097 1.844-.304 3.48-.613l-1.952 6.422.156.035c1.031-2.004 1.852-3.43 2.473-4.265 1.082-1.461 2.125-2.192 3.133-2.192.695 0 1.214.235 1.55.711.332.473.5 1 .5 1.574 0 .7-.191 1.317-.562 1.883-.371.555-.887.824-1.547.824-.293 0-.566-.054-.824-.175-.25-.125-.47-.301-.64-.547l-.337-.434a1.163 1.163 0 0 0-.183-.184.432.432 0 0 0-.262-.074c-.457 0-1.059.63-1.805 1.89a26.031 26.031 0 0 0-1.871 3.849c-.348.902-.781 2.18-1.289 3.836-.516 1.66-.89 2.851-1.133 3.57zM314.895 571.973c0 1.89.562 3.3 1.69 4.23 1.126.918 2.325 1.387 3.603 1.387 1.71 0 3.21-.57 4.48-1.707.8-.707 1.66-1.828 2.566-3.356l-1.046-.613c-.536.836-1.032 1.5-1.489 1.977-.867.902-1.734 1.351-2.613 1.351-1.074 0-1.809-.394-2.184-1.187-.21-.426-.32-1.012-.32-1.758 0-.2.02-.461.055-.781.039-.313.086-.657.16-1.028 2.746-.37 4.984-1.242 6.707-2.605 1.723-1.367 2.582-2.809 2.582-4.34 0-1.012-.371-1.79-1.106-2.344-.734-.554-1.667-.828-2.785-.828-2.597 0-4.98 1.27-7.156 3.813-2.098 2.46-3.144 5.058-3.144 7.789m10.921-8.95c0 1.051-.441 2.247-1.32 3.582-.879 1.344-2.375 2.247-4.48 2.723.64-2.46 1.379-4.371 2.203-5.738.832-1.367 1.672-2.047 2.527-2.047.402 0 .68.14.836.434.16.285.234.632.234 1.046M329.61 572.848c0 1.722.41 2.945 1.238 3.656.82.723 1.71 1.086 2.668 1.086 1.062 0 2.03-.34 2.894-1.008a10.122 10.122 0 0 0 2.254-2.453c.285-.41.492-.727.629-.938.14-.214.18-.289.137-.246-.29 1.18-.434 1.918-.434 2.227 0 .789.254 1.39.774 1.805.511.406 1.046.613 1.597.613.899 0 1.79-.41 2.676-1.215.879-.809 1.809-1.926 2.777-3.355l-.765-.582c-.188.25-.422.562-.696.93-.28.366-.48.616-.597.75a4.836 4.836 0 0 1-.66.695c-.2.16-.403.238-.61.238a.455.455 0 0 1-.316-.117c-.098-.086-.14-.235-.14-.446 0-.52.155-1.386.476-2.605.14-.633.383-1.555.715-2.754l2.359-8.45-3.781.282-.594 1.852c-.203-.77-.43-1.317-.684-1.641-.441-.535-1.12-.8-2.039-.8-2.265 0-4.5 1.429-6.695 4.288-2.125 2.797-3.184 5.524-3.184 8.188m11.813-9.024c0 1.57-.547 3.696-1.645 6.383-1.543 3.2-2.914 4.8-4.136 4.79-.477 0-.864-.212-1.153-.642-.293-.425-.441-.921-.441-1.507 0-1.465.621-3.578 1.848-6.332 1.39-3.11 2.75-4.668 4.082-4.668.617 0 1.039.277 1.27.82.116.297.175.68.175 1.156M347.215 577.094l3.176-11.606c.187-.687.312-1.176.367-1.457.058-.277.094-.547.094-.804 0-.391-.125-.633-.364-.727-.246-.102-.777-.168-1.594-.215v-.926a51.042 51.042 0 0 0 3.872-.375c.687-.097 1.816-.304 3.39-.613l-2.152 6.711.125.09c1.574-2.399 2.758-4 3.558-4.817 1.305-1.32 2.684-1.984 4.13-1.984.675 0 1.226.207 1.675.629.445.418.672.992.672 1.727 0 .55-.105 1.21-.316 1.964a65.18 65.18 0 0 1-.47 1.578c1.196-1.898 2.165-3.234 2.907-3.992 1.227-1.273 2.5-1.906 3.82-1.906.887 0 1.57.238 2.043.727.477.476.711 1.164.711 2.046 0 .5-.109 1.168-.336 2.004-.023.121-.148.536-.37 1.254l-1.895 5.754c-.145.414-.274.844-.399 1.285-.129.45-.187.758-.187.942 0 .176.066.304.199.402a.68.68 0 0 0 .387.149c.344 0 .816-.387 1.43-1.172.331-.426.687-.946 1.078-1.578l.796.527c-.89 1.445-1.652 2.48-2.277 3.113-1.086 1.094-2.226 1.64-3.43 1.64-.609 0-1.183-.183-1.714-.534-.532-.364-.793-.953-.793-1.782 0-.675.156-1.629.476-2.859.195-.754.465-1.625.793-2.602l1.496-5.527c.024-.074.047-.148.063-.223a1.17 1.17 0 0 0 .023-.222.702.702 0 0 0-.18-.492c-.136-.133-.32-.2-.57-.2-.695 0-1.484.633-2.36 1.899a22.976 22.976 0 0 0-2.187 3.914 14.184 14.184 0 0 0-.64 1.77l-2 6.488h-4.344l3.215-11.899c.093-.281.172-.527.23-.754.059-.23.09-.445.09-.656 0-.328-.07-.539-.207-.629a.855.855 0 0 0-.457-.133c-.527 0-1.223.54-2.086 1.618-.871 1.082-1.695 2.48-2.469 4.203-.422.918-.87 2.203-1.37 3.851a131.482 131.482 0 0 0-1.302 4.399zM373.7 582.895c1.179-.665 2.07-1.243 2.687-1.754 1.054-.887 1.59-1.73 1.59-2.551 0-.383-.43-.88-1.286-1.473-.855-.594-1.28-1.344-1.28-2.234 0-.77.241-1.395.73-1.88.48-.48 1.093-.718 1.836-.718.918 0 1.668.328 2.242 1.004.582.672.875 1.512.875 2.512 0 2.015-1.086 3.914-3.246 5.695-1.399 1.156-2.63 1.91-3.688 2.266zM223.016 604.652c0 2.63.808 4.73 2.425 6.305 1.618 1.578 3.711 2.36 6.286 2.36 4.097 0 7.718-1.88 10.87-5.645 2.946-3.504 4.426-7.215 4.426-11.121 0-2.672-.835-4.801-2.507-6.367-1.668-1.567-3.801-2.356-6.399-2.356-3.906 0-7.433 1.856-10.586 5.559-3.008 3.55-4.515 7.3-4.515 11.265m5.183 2.567c0-2.7.778-6.082 2.336-10.137 2.055-5.344 4.582-8.02 7.594-8.02 1.27 0 2.207.438 2.809 1.305.601.863.902 1.91.902 3.121 0 1.285-.223 2.965-.672 5.043a33.139 33.139 0 0 1-1.86 5.926c-1.245 2.977-2.456 4.992-3.624 6.047-1.168 1.05-2.465 1.582-3.891 1.582-1.52 0-2.57-.723-3.148-2.176-.301-.742-.446-1.64-.446-2.691M249.438 608.895c.109-.536.226-1.028.351-1.47l1.91-6.94c.094-.31.16-.579.2-.801.046-.23.066-.45.066-.68 0-.465-.149-.766-.453-.914-.297-.149-.825-.235-1.563-.258v-.926c2.465-.226 4.317-.453 5.543-.672 1.227-.207 1.899-.32 2.008-.32l-1.719 5.555-1.68 5.617c-.078.262-.175.605-.277 1.035-.164.637-.246 1.113-.246 1.422 0 .3.07.523.219.664.148.145.355.211.625.211.586 0 1.36-.566 2.316-1.703.961-1.133 1.856-2.645 2.688-4.54a42.087 42.087 0 0 0 1.449-3.741c.262-.836.652-2.204 1.18-4.086h4.218l-1.382 5.05c-.063.188-.305 1.086-.739 2.692-.433 1.61-.699 2.566-.78 2.887-.18.617-.337 1.191-.466 1.718-.129.532-.195.887-.195 1.09 0 .215.059.39.172.516.11.117.25.18.414.18.371 0 .883-.41 1.512-1.235.359-.46.691-.941.98-1.453l.777.465c-.703 1.312-1.574 2.433-2.617 3.363-1.047.922-2.133 1.39-3.246 1.39-.984 0-1.664-.273-2.05-.8-.258-.363-.387-.844-.387-1.438 0-.574.047-1.058.136-1.464.102-.399.317-1.141.66-2.223l-.085-.043c-1.465 2.129-2.563 3.55-3.286 4.254-1.187 1.187-2.402 1.773-3.652 1.773-.601 0-1.137-.152-1.601-.457-.774-.484-1.16-1.308-1.16-2.465 0-.304.058-.722.16-1.253M267.188 612.64a296.577 296.577 0 0 0 2.46-8.949c.727-2.687 1.094-4.289 1.094-4.796 0-.45-.144-.735-.437-.864-.297-.136-.805-.199-1.52-.199v-.926c1.531-.097 2.824-.222 3.88-.383.683-.093 1.843-.293 3.487-.609l-1.96 6.426.16.039c1.02-2.008 1.847-3.43 2.464-4.266 1.086-1.465 2.133-2.199 3.137-2.199.7 0 1.215.238 1.547.711a2.7 2.7 0 0 1 .504 1.578c0 .7-.192 1.324-.559 1.88-.37.554-.89.827-1.547.827a1.87 1.87 0 0 1-.824-.176 1.814 1.814 0 0 1-.652-.546l-.332-.434a1.02 1.02 0 0 0-.184-.184.393.393 0 0 0-.254-.074c-.46 0-1.062.63-1.804 1.89a26.018 26.018 0 0 0-1.871 3.848c-.356.903-.782 2.176-1.293 3.836-.512 1.657-.891 2.848-1.133 3.57zM287.813 611.715c.87-.106 1.507-.324 1.925-.656.41-.332.742-.977 1.004-1.95l4.473-16.277c.086-.332.152-.625.215-.871.101-.508.156-.898.156-1.18 0-.578-.164-.945-.492-1.097-.332-.153-1.04-.278-2.137-.371v-.926h19.156l-1.543 6.851-.925-.16c-.024-1.734-.297-2.96-.825-3.695-.914-1.258-2.73-1.883-5.46-1.883-.81 0-1.36.11-1.66.32-.298.211-.532.649-.712 1.325l-2.144 8.042c2.414-.07 3.992-.28 4.719-.628.73-.348 1.546-1.395 2.44-3.137l.927.125-2.715 9.812-.922-.175c.04-.352.074-.664.094-.926.015-.266.023-.461.023-.606 0-1.195-.309-2.054-.926-2.574-.613-.52-1.926-.781-3.949-.781l-2.453 8.937c-.035.157-.066.297-.09.426a2.184 2.184 0 0 0-.031.387c0 .707.297 1.187.898 1.433.364.157.934.235 1.696.235v.926h-10.743ZM313.902 608.895a16.96 16.96 0 0 1 .356-1.47l1.902-6.94c.098-.31.164-.579.207-.801.043-.23.063-.45.063-.68 0-.465-.149-.766-.453-.914-.297-.149-.817-.235-1.559-.258v-.926c2.465-.226 4.312-.453 5.539-.672 1.23-.207 1.898-.32 2.004-.32l-1.719 5.555-1.672 5.617c-.082.262-.175.605-.28 1.035-.165.637-.25 1.113-.25 1.422 0 .3.073.523.226.664.144.145.355.211.62.211.59 0 1.36-.566 2.321-1.703.953-1.133 1.856-2.645 2.691-4.54a43.242 43.242 0 0 0 1.438-3.741c.262-.836.656-2.204 1.184-4.086h4.218l-1.386 5.05c-.055.188-.301 1.086-.735 2.692-.433 1.61-.695 2.566-.785 2.887a40.507 40.507 0 0 0-.457 1.718c-.129.532-.195.887-.195 1.09 0 .215.054.39.168.516.109.117.254.18.418.18.37 0 .875-.41 1.507-1.235.364-.46.692-.941.989-1.453l.765.465c-.695 1.312-1.566 2.433-2.617 3.363-1.047.922-2.125 1.39-3.242 1.39-.98 0-1.668-.273-2.047-.8-.262-.363-.39-.844-.39-1.438 0-.574.042-1.058.144-1.464.09-.399.309-1.141.656-2.223l-.086-.043c-1.472 2.129-2.566 3.55-3.289 4.254-1.183 1.187-2.402 1.773-3.644 1.773-.606 0-1.145-.152-1.61-.457-.773-.484-1.156-1.308-1.156-2.465 0-.304.047-.722.156-1.253M332.074 609.578c.082-.398.239-1.023.477-1.863l2.715-9.883h-1.848v-1.238c1.187-.48 2.191-1.016 3.004-1.594 1.437-1.008 2.648-2.305 3.617-3.895h1.293l-1.441 5.243h2.593v1.484h-3.004l-2.316 8.45c-.223.738-.39 1.359-.516 1.859-.199.84-.3 1.422-.3 1.734 0 .223.07.363.207.441a.827.827 0 0 0 .347.102c.34 0 .782-.293 1.32-.89a12.594 12.594 0 0 0 1.485-2.044l.8.528c-1.073 1.633-1.933 2.77-2.581 3.402-1.094 1.07-2.258 1.598-3.485 1.598-.71 0-1.3-.23-1.77-.696-.476-.464-.71-1.05-.71-1.773 0-.242.043-.563.113-.965M342.625 608.895c.102-.536.223-1.028.352-1.47l1.906-6.94a7.1 7.1 0 0 0 .203-.801c.039-.23.062-.45.062-.68 0-.465-.152-.766-.449-.914-.304-.149-.824-.235-1.562-.258v-.926c2.465-.226 4.308-.453 5.543-.672 1.23-.207 1.898-.32 2-.32l-1.72 5.555-1.67 5.617c-.083.262-.173.605-.282 1.035-.164.637-.246 1.113-.246 1.422 0 .3.074.523.218.664.149.145.356.211.63.211.581 0 1.355-.566 2.316-1.703.953-1.133 1.847-2.645 2.683-4.54a43.32 43.32 0 0 0 1.45-3.741c.261-.836.648-2.204 1.18-4.086h4.214l-1.383 5.05c-.054.188-.3 1.086-.738 2.692a245.09 245.09 0 0 1-.777 2.887c-.18.617-.332 1.191-.461 1.718-.133.532-.196.887-.196 1.09 0 .215.051.39.168.516.114.117.25.18.414.18.375 0 .883-.41 1.512-1.235.363-.46.692-.941.985-1.453l.765.465a11.754 11.754 0 0 1-2.613 3.363c-1.047.922-2.129 1.39-3.242 1.39-.98 0-1.664-.273-2.047-.8-.258-.363-.395-.844-.395-1.438 0-.574.051-1.058.145-1.464.098-.399.312-1.141.66-2.223l-.09-.043c-1.469 2.129-2.562 3.55-3.285 4.254-1.187 1.187-2.402 1.773-3.648 1.773-.606 0-1.145-.152-1.606-.457-.773-.484-1.16-1.308-1.16-2.465 0-.304.055-.722.164-1.253M360.375 612.64a275.056 275.056 0 0 0 2.46-8.949c.728-2.687 1.099-4.289 1.099-4.796 0-.45-.153-.735-.45-.864-.293-.136-.8-.199-1.511-.199v-.926c1.53-.097 2.824-.222 3.875-.383.683-.093 1.843-.293 3.488-.609l-1.961 6.426.16.039c1.024-2.008 1.848-3.43 2.469-4.266 1.09-1.465 2.125-2.199 3.133-2.199.699 0 1.218.238 1.547.711.336.477.503 1 .503 1.578 0 .7-.187 1.324-.554 1.88-.38.554-.89.827-1.555.827-.293 0-.562-.055-.82-.176a1.747 1.747 0 0 1-.64-.546l-.337-.434a1.176 1.176 0 0 0-.187-.184.432.432 0 0 0-.262-.074c-.453 0-1.062.63-1.8 1.89a26.846 26.846 0 0 0-1.876 3.848c-.347.903-.781 2.176-1.285 3.836-.516 1.657-.89 2.848-1.133 3.57zM374.348 607.523c0 1.891.558 3.301 1.687 4.227 1.125.922 2.328 1.383 3.602 1.383 1.715 0 3.203-.567 4.48-1.703.801-.707 1.656-1.828 2.567-3.356l-1.051-.617c-.524.84-1.024 1.504-1.488 1.98-.864.903-1.73 1.356-2.61 1.356-1.078 0-1.805-.395-2.183-1.191-.211-.422-.313-1.012-.313-1.758 0-.196.016-.461.047-.782.04-.312.086-.656.164-1.027 2.746-.375 4.98-1.25 6.703-2.61 1.723-1.363 2.586-2.804 2.586-4.335 0-1.012-.371-1.79-1.11-2.344-.738-.559-1.663-.828-2.784-.828-2.598 0-4.985 1.266-7.149 3.812-2.105 2.461-3.148 5.055-3.148 7.793m10.918-8.953c0 1.051-.438 2.246-1.32 3.582-.883 1.344-2.372 2.246-4.481 2.723.64-2.465 1.375-4.375 2.203-5.738.832-1.367 1.672-2.051 2.527-2.051.403 0 .684.144.84.437.156.286.23.637.23 1.047M113.32 486.23l16.856-6.367c5.265-1.992 9.816-.57 11.906 4.961 1.05 2.785.473 5.461-1.25 7.817l-5.355-2.254c.718-1.106 1.457-2.555 1.132-3.418-.726-1.922-2.988-.992-4.379-.465l-16.46 6.219zM112.48 459.965l4.38-.852-1.489-7.68 5.77-1.117 1.488 7.68 4.516-.875-1.57-8.098 5.773-1.117 2.886 14.906-26.203 5.079-2.89-14.907 5.77-1.12zM102.223 419.867c-.149 7.684 5.375 14.875 13.441 15.031 8.64.172 14.848-5.902 15.02-14.468.168-8.563-5.797-14.88-14.434-15.047-8.07-.164-13.875 6.805-14.027 14.484m6.726.137c.082-4.145 3.512-7.473 7.192-7.402 4.601.09 7.898 3.554 7.816 7.699-.082 4.137-3.512 7.469-8.113 7.379-3.68-.07-6.977-3.54-6.895-7.676M106.277 386.113l1.793-6.703 19.055-8.05.02-.07-15.766-4.224 1.797-6.703 25.785 6.91-1.797 6.704-19.09 8.043-.02.066 15.801 4.234-1.796 6.703zM126.578 330.629l16.125 8.047c5.035 2.512 7.082 6.82 4.442 12.11-1.329 2.66-3.684 4.054-6.583 4.386l-1.984-5.457c1.297-.223 2.863-.668 3.277-1.492.918-1.836-1.3-2.864-2.632-3.528l-15.743-7.86zM150.64 295.465l11.9 9.144c2.722 2.094 5.331 4.278 5.765 7.957.379 3.11-1.14 6.364-3.04 8.832-1.898 2.47-4.652 4.774-7.75 5.204-3.667.53-6.449-1.426-9.171-3.52l-11.899-9.152 4.227-5.5 11.144 8.566c2.75 2.113 5.903 4.227 8.621.692 2.72-3.54-.132-6.043-2.882-8.16l-11.145-8.563zM197.863 256.34l7.29-4.57-2.286 16.351 17.274 5.758-7.618 4.777-13.738-5.05-.062.039 6.152 9.804-5.879 3.688-14.183-22.614 5.878-3.687 5.852 9.328.059-.039zM237.64 266.566l-6.421 2.633-10.121-24.703 6.422-2.629zM257.871 232.73l4.317 17.497c1.347 5.464-.606 9.812-6.348 11.23-2.887.707-5.473-.184-7.606-2.172l2.871-5.05c1.012.843 2.368 1.753 3.258 1.53 1.996-.492 1.344-2.847.985-4.292l-4.215-17.082zM284.816 234.988l.297 4.453 7.809-.527.39 5.867-7.804.52.308 4.594 8.227-.551.395 5.863-15.153 1.016-1.789-26.633 15.156-1.016.391 5.863zM325.855 229.781c-7.605-1.097-15.421 3.496-16.574 11.485-1.238 8.547 4.024 15.46 12.5 16.687 8.48 1.223 15.485-3.918 16.719-12.465 1.156-7.988-5.043-14.61-12.645-15.707m-.96 6.656c4.097.594 6.98 4.41 6.453 8.051-.657 4.555-4.504 7.399-8.602 6.805-4.098-.59-6.984-4.406-6.324-8.961.527-3.644 4.371-6.484 8.473-5.894M359.555 238.188l6.422 2.628 5.578 19.918.066.028 6.184-15.102 6.418 2.63-10.11 24.702-6.422-2.629-5.566-19.953-.066-.027-6.196 15.137-6.422-2.63zM430.875 293.066c.25-2.367-.754-4.675-2.504-6.277-3.133-2.871-7.445-2.406-10.246.645-2.844 3.109-2.762 7.312.426 10.23 1.668 1.531 4.082 2.254 6.324 1.953l-5.625 6.137c-2.172-1.035-3.758-1.766-5.352-3.223-2.738-2.515-4.394-5.949-4.73-9.668-.375-3.941.98-7.41 3.66-10.332 2.461-2.687 5.848-4.34 9.496-4.55 3.75-.215 7.645 1.144 10.41 3.68 1.645 1.507 2.82 3.26 3.762 5.273zM458.746 311.727c-4.383-6.309-13.074-8.895-19.703-4.29-7.094 4.93-8.559 13.493-3.672 20.532 4.89 7.031 13.426 8.644 20.52 3.719 6.629-4.606 7.238-13.653 2.855-19.961m-5.523 3.836c2.363 3.402 1.543 8.113-1.48 10.214-3.782 2.625-8.485 1.75-10.845-1.648-2.367-3.402-1.543-8.113 2.239-10.738 3.023-2.102 7.722-1.23 10.086 2.171M458.262 355.504l3.277 7.644-5.402 2.317-6.008-14.024 24.531-10.52 2.735 6.38zM467.29 382.691l1.983 8.079-5.707 1.402-3.636-14.82 25.922-6.364 1.656 6.739zM486.625 409.945l-4.45.309.54 7.805-5.86.406-.543-7.805-4.59.32.571 8.227-5.863.41-1.051-15.156 26.629-1.844 1.05 15.149-5.863.406zM477.594 462.23c-3.848-.597-7.106-1.332-10.082-4.132-3.254-3.094-4.297-7.203-3.692-11.621 1.145-8.313 7.586-13.325 15.899-12.184 8.59 1.184 13.437 7.781 12.27 16.3-.75 5.442-3.782 9.31-9.04 10.91l-1.844-6.901c2.657-.598 4.614-2.364 4.997-5.137.62-4.524-3.372-7.465-7.403-8.02-4.105-.566-8.613 1.317-9.234 5.84-.414 2.98.816 5.473 3.832 6.172l.77-5.61 5.402.743zM476.418 486.172l-4.203-1.488-2.613 7.375-5.54-1.965 2.61-7.371-4.34-1.54-2.75 7.778-5.539-1.961 5.066-14.316 25.164 8.906-5.07 14.316-5.539-1.96zm0 0" style="fill:#0057b8;fill-opacity:1;fill-rule:nonzero;stroke:none" transform="matrix(1.18808 0 0 1.18808 -121.446 -271.565)"/></svg>