<svg xmlns="http://www.w3.org/2000/svg" width="60.771" height="60.773" version="1.0" viewBox="0 0 60.771 60.773"><path fill="#00a8ec" d="M30.385 0C13.604 0 0 13.602 0 30.387c0 16.778 13.604 30.386 30.385 30.386 16.781 0 30.386-13.608 30.386-30.386C60.771 13.602 47.166 0 30.385 0zm0 6.853c6.814 0 12.931 2.913 17.229 7.54-.22-.006-.434-.017-.659-.011-4.528.107-7.925 1.691-10.192 4.759-1.337 1.811-2.022 4.583-2.118 8.236h-8.538V18.15h-6.721v14.307c-.027 2.802-.439 4.725-1.238 5.759-1.064 1.414-2.636 2.118-4.714 2.118-2.181.031-3.815-.68-4.91-2.118-.41-.562-.978-2.247-.978-2.247a23.51 23.51 0 0 1-.695-5.582c0-13.002 10.539-23.534 23.534-23.534zm0 47.061c-7.069 0-13.395-3.133-17.709-8.068.354.01.71.025 1.078.019 4.532-.108 7.93-1.696 10.192-4.763 1.397-1.889 2.103-4.8 2.143-8.703h8.516v9.695h6.721V27.785c.03-2.802.439-4.719 1.238-5.756 1.064-1.412 2.637-2.121 4.714-2.121 2.182-.025 3.818.68 4.911 2.121.411.563.923 2.336.923 2.336.508 1.927.805 3.936.805 6.021-.001 12.997-10.535 23.528-23.532 23.528z"/></svg>