<svg xmlns="http://www.w3.org/2000/svg" width="284.05997mm" height="72.039337mm" viewBox="0 0 284.05997 72.039337"><defs><clipPath id="a" clipPathUnits="userSpaceOnUse"><path d="M0 0h510.236v708.661H0Z"/></clipPath><clipPath id="b" clipPathUnits="userSpaceOnUse"><path d="M0 0h510.236v708.661H0Z"/></clipPath><clipPath id="c" clipPathUnits="userSpaceOnUse"><path d="M0 0h510.236v708.661H0Z"/></clipPath><clipPath id="d" clipPathUnits="userSpaceOnUse"><path d="M0 0h510.236v708.661H0Z"/></clipPath><clipPath id="e" clipPathUnits="userSpaceOnUse"><path d="M0 0h510.236v708.661H0Z"/></clipPath><clipPath id="f" clipPathUnits="userSpaceOnUse"><path d="M0 0h510.236v708.661H0Z"/></clipPath><clipPath id="g" clipPathUnits="userSpaceOnUse"><path d="M0 0h510.236v708.661H0Z"/></clipPath><clipPath id="h" clipPathUnits="userSpaceOnUse"><path d="M0 0h510.236v708.661H0Z"/></clipPath></defs><g clip-path="url(#a)" transform="matrix(2.50622 0 0 -2.50622 -85.25 1669.499)"><path d="M0 0a5.91 5.91 0 0 1 .742-.768c.272-.241.561-.447.859-.615.308-.172.609-.288.892-.345l.118-.028.663.85.165.215-.257.082c-.314.104-.635.27-.954.496a4.327 4.327 0 0 0-.876.823A4.282 4.282 0 0 0 .69 1.741c-.18.391-.26.711-.269 1.067v.114H2.81v1.396h-6.381V2.922h2.377v-.114c0-.37-.085-.699-.282-1.105A4.351 4.351 0 0 0-2.197.641a4.628 4.628 0 0 0-.919-.822c-.321-.213-.604-.358-.845-.427l-.272-.074.818-1.074.12.028c.268.059.555.166.852.322.298.156.595.356.882.594.269.231.524.489.756.766.156.187.298.382.422.58C-.273.36-.144.18 0 0" style="fill:#393536;fill-opacity:1;fill-rule:nonzero;stroke:none" transform="translate(71.416 657.94)"/><path d="M0 0a10.665 10.665 0 0 1 2.29.787c.376.184.74.406 1.08.656.284.209.538.443.756.697.214-.262.459-.497.729-.705A6.47 6.47 0 0 1 5.893.791 6.856 6.856 0 0 1 7.032.305c.393-.126.781-.229 1.208-.316l.053-.01.74 1.123-.213.057c-.367.1-.788.232-1.25.391a6.695 6.695 0 0 0-1.257.581 3.895 3.895 0 0 0-.977.848c-.265.324-.384.636-.415 1.092l-.013.026-1.581.606v-.606a1.802 1.802 0 0 0-.421-1.117 4.171 4.171 0 0 0-.988-.846 7.04 7.04 0 0 0-1.28-.584 22.365 22.365 0 0 0-1.259-.391l-.209-.057.722-1.125Z" style="fill:#393536;fill-opacity:1;fill-rule:nonzero;stroke:none" transform="translate(103.588 658.272)"/></g><path d="M0 0h-2.139v-1.388H0v-3.227h1.553v6.878L0 2.88Z" style="fill:#393536;fill-opacity:1;fill-rule:nonzero;stroke:none" transform="matrix(2.50622 0 0 -2.50622 104.475 15.142)"/><g clip-path="url(#b)" transform="matrix(2.50622 0 0 -2.50622 -85.25 1669.499)"><path d="m0 0-1.553.618v-7.763c-.686-.075-2.007-.217-3.36-.227v.641a3.072 3.072 0 0 1 2.177 2.895c0 .57-.165 1.125-.478 1.613h1.17v1.415h-2.844v.809l-1.76.607V-.808h-2.841v-1.415h1.168a2.985 2.985 0 0 1-.223-2.822c.332-.805 1.046-1.431 1.914-1.684v-.7l-1.101-.013H-9.59v-1.402l2.339.014c2.136 0 4.497.156 5.698.307v-2.924H0v5.985h1.735v1.402H0Zm-7.278-3.836c0 .831.678 1.509 1.51 1.509.833 0 1.511-.678 1.511-1.509 0-.833-.678-1.511-1.511-1.511-.832 0-1.51.678-1.51 1.511" style="fill:#393536;fill-opacity:1;fill-rule:nonzero;stroke:none" transform="translate(88.296 662.362)"/></g><path d="M0 0h1.54v11.447L0 12.065Z" style="fill:#393536;fill-opacity:1;fill-rule:nonzero;stroke:none" transform="matrix(2.50622 0 0 -2.50622 164.553 38.16)"/><path d="M0 0h4.691v-.749H1.458v-1.338h6.428v-.536H1.522v-3.201h8.244v1.34H3.062v.548h6.365v3.187H6.268V0h4.692v1.352H0Z" style="fill:#393536;fill-opacity:1;fill-rule:nonzero;stroke:none" transform="matrix(2.50622 0 0 -2.50622 170.98 23.479)"/><g clip-path="url(#c)" transform="matrix(2.50622 0 0 -2.50622 -85.25 1669.499)"><path d="M0 0h-1.052v3.459l-1.54.618v-7.216c-1.178-.171-2.71-.233-3.764-.233h-.482v4.899h3.208v1.402h-4.786v-7.703h1.808c1.415 0 2.906.093 4.016.25v-3.471h1.54v6.593H0v-6.589h1.539V3.456L0 4.074Z" style="fill:#393536;fill-opacity:1;fill-rule:nonzero;stroke:none" transform="translate(122.575 658.907)"/></g><path d="M0 0h6.088v-2.806h1.565V1.39H0Z" style="fill:#393536;fill-opacity:1;fill-rule:nonzero;stroke:none" transform="matrix(2.50622 0 0 -2.50622 232.912 31.137)"/><path d="m0 0-1.553.618v-7.496H0v3.012h1.647v1.402H0Z" style="fill:#393536;fill-opacity:1;fill-rule:nonzero;stroke:none" transform="matrix(2.50622 0 0 -2.50622 252.091 9.472)"/><g clip-path="url(#d)" transform="matrix(2.50622 0 0 -2.50622 -85.25 1669.499)"><path d="M0 0c0-1.623-.059-2.935-.363-4.459l-.03-.168 1.555-.191.024.151c.277 1.57.366 2.811.366 5.107v1.683h-8.204V.72H0Z" style="fill:#393536;fill-opacity:1;fill-rule:nonzero;stroke:none" transform="translate(144.53 659.789)"/></g><path d="M0 0v3.431l-1.54.619V0h-1.213v3.431l-1.54.619V0h-2.415v-1.376H4.065V0Z" style="fill:#393536;fill-opacity:1;fill-rule:nonzero;stroke:none" transform="matrix(2.50622 0 0 -2.50622 273.835 30.555)"/><g clip-path="url(#e)" transform="matrix(2.50622 0 0 -2.50622 -85.25 1669.499)"><path d="M0 0h-1.332a3.226 3.226 0 0 1-2.475 1.155 3.237 3.237 0 0 1-3.234-3.234 3.231 3.231 0 0 1 5.709-2.078H0v-5.316h1.517V1.98L0 2.598Zm-3.807-.387c.933 0 1.693-.758 1.693-1.692 0-.932-.76-1.692-1.693-1.692s-1.691.76-1.691 1.692c0 .934.758 1.692 1.691 1.692m3.158-2.384c.049.224.077.454.077.692 0 .238-.028.47-.077.693H0v-1.385z" style="fill:#393536;fill-opacity:1;fill-rule:nonzero;stroke:none" transform="translate(97.486 660.388)"/><path d="M0 0a3.034 3.034 0 0 1-3.031-3.031A3.034 3.034 0 0 1 0-6.062a3.034 3.034 0 0 1 3.032 3.031A3.034 3.034 0 0 1 0 0m0-4.541a1.511 1.511 0 0 0 0 3.02 1.511 1.511 0 0 0 0-3.02" style="fill:#393536;fill-opacity:1;fill-rule:nonzero;stroke:none" transform="translate(73.954 655.924)"/><path d="m0 0 .041-.093.118-.034.161-.019.079-.006.119-.016.242-.019h.007c1.641.004 2.997 1.347 3.025 3.031 0 .57-.166 1.124-.479 1.614h1.17v1.417H1.639V6.7l-1.759.609V5.875h-2.842V4.458h1.168a2.98 2.98 0 0 1-.222-2.823C-1.672.802-.926.163-.02-.076zm-.751 2.845c0 .832.678 1.51 1.511 1.51a1.512 1.512 0 0 0 0-3.022c-.833 0-1.511.679-1.511 1.512" style="fill:#393536;fill-opacity:1;fill-rule:nonzero;stroke:none" transform="translate(128.2 655.672)"/><path d="M0 0a.949.949 0 0 1 .791-.399c.449 0 1.023.273 1.023 1.081v3.996l.9-.356V.59c0-1.181-.941-1.888-1.899-1.888-.682 0-1.207.316-1.54.774z" style="fill:#4f4c4d;fill-opacity:1;fill-rule:nonzero;stroke:none" transform="translate(67.893 642.605)"/><path d="M0 0c0-.692.424-1.042 1.007-1.042.325 0 .675.152.924.409l.616-.524c-.416-.484-.957-.682-1.523-.682-.866 0-1.873.415-1.873 2.146 0 1.64.923 2.173 1.74 2.173.932 0 1.74-.69 1.74-1.78V0Zm1.781.7c-.024.638-.391.982-.89.982S.017 1.338 0 .7Z" style="fill:#4f4c4d;fill-opacity:1;fill-rule:nonzero;stroke:none" transform="translate(72.354 643.146)"/><path d="M0 0c.232.258.624.54 1.282.54C1.939.54 2.33.258 2.563 0c.326-.359.458-.709.458-1.615 0-.915-.132-1.265-.458-1.625-.233-.257-.624-.539-1.281-.539-.658 0-1.05.282-1.282.539-.325.36-.458.71-.458 1.625C-.458-.709-.325-.359 0 0m1.964-.617c-.124.174-.391.308-.682.308-.291 0-.558-.134-.683-.308-.158-.225-.208-.391-.208-.998 0-.617.05-.782.208-1.007.125-.174.392-.309.683-.309.291 0 .558.135.682.309.159.225.208.39.208.998 0 .616-.049.782-.208 1.007" style="fill:#4f4c4d;fill-opacity:1;fill-rule:nonzero;stroke:none" transform="translate(76.124 645.086)"/><path d="M0 0h.849v-.449h.017c.266.334.648.499 1.099.499.657 0 1.407-.506 1.407-1.465V-4.22h-.85v2.515c0 .573-.358.906-.832.906-.483 0-.841-.333-.841-.906V-4.22H0Z" style="fill:#4f4c4d;fill-opacity:1;fill-rule:nonzero;stroke:none" transform="translate(80.035 645.576)"/><path d="M0 0a1.483 1.483 0 0 0-1.091-.49 1.41 1.41 0 0 0-1.115.515c-.241.316-.317.474-.317 1.64 0 1.175.076 1.333.317 1.649a1.41 1.41 0 0 0 1.115.515c.434 0 .775-.165 1.091-.499v.449h.849V-.342c0-1.273-.865-1.856-1.831-1.856-.541 0-1.09.284-1.465.708l.658.525c.207-.209.499-.384.823-.384.567 0 .966.325.966.918zm-1.506.682A.834.834 0 0 1-.831.358a.83.83 0 0 1 .664.324c.151.193.167.309.167.983 0 .682-.016.8-.167.992a.826.826 0 0 1-.664.323.831.831 0 0 1-.675-.323c-.15-.192-.168-.31-.168-.992 0-.674.018-.79.168-.983" style="fill:#4f4c4d;fill-opacity:1;fill-rule:nonzero;stroke:none" transform="translate(86.876 641.797)"/><path d="m0 0 .85-.386v-1.77h.017c.266.334.65.499 1.098.499.658 0 1.407-.506 1.407-1.465v-2.805h-.849v2.515c0 .573-.358.906-.833.906-.482 0-.84-.333-.84-.906v-2.515H0Z" style="fill:#4f4c4d;fill-opacity:1;fill-rule:nonzero;stroke:none" transform="translate(88.822 647.283)"/></g><path d="M0 0h-.016l-.883-2.955h-.749l-1.349 4.22h.899l.807-2.955h.017l.958 2.955H.3l.956-2.955h.017l.809 2.955h.898l-1.349-4.22H.882Z" style="fill:#4f4c4d;fill-opacity:1;fill-rule:nonzero;stroke:none" transform="matrix(2.50622 0 0 -2.50622 154.736 54.713)"/><g clip-path="url(#f)" transform="matrix(2.50622 0 0 -2.50622 -85.25 1669.499)"><path d="M0 0h-.018c-.174-.291-.466-.425-1.04-.425-.941 0-1.49.557-1.49 1.291 0 .674.465 1.248 1.373 1.248H0v.441c0 .4-.259.542-.867.542-.441 0-.648-.084-.799-.326l-.666.509c.325.45.791.615 1.424.615 1.04 0 1.756-.349 1.756-1.39v-2.88H0Zm0 1.415h-1.016c-.499 0-.733-.2-.733-.508 0-.282.225-.534.799-.534.708 0 .95.078.95.734z" style="fill:#4f4c4d;fill-opacity:1;fill-rule:nonzero;stroke:none" transform="translate(101.515 641.731)"/></g><path d="M0 0h-2.247l-.457-1.324h-.95l2.156 5.928h.749l2.157-5.928H.459Zm-.258.8-.856 2.59h-.018L-1.989.8Z" style="fill:#4f4c4d;fill-opacity:1;fill-rule:nonzero;stroke:none" transform="matrix(2.50622 0 0 -2.50622 186.185 58.802)"/><g clip-path="url(#g)" transform="matrix(2.50622 0 0 -2.50622 -85.25 1669.499)"><path d="M0 0h.849v-.449h.017c.266.334.649.499 1.099.499.341 0 .624-.125.882-.325l-.615-.732c-.201.15-.343.208-.559.208-.416 0-.824-.268-.824-.883V-4.22H0Z" style="fill:#4f4c4d;fill-opacity:1;fill-rule:nonzero;stroke:none" transform="translate(110.268 645.576)"/><path d="m0 0 .849-.367v-.915h.615v-.648H.849v-2.457c0-.234.091-.316.299-.316h.316v-.8h-.441C.432-5.503 0-5.127 0-4.462v2.532h-.425v.648H0Z" style="fill:#4f4c4d;fill-opacity:1;fill-rule:nonzero;stroke:none" transform="translate(114.001 646.858)"/><path d="M0 0a1.775 1.775 0 0 1 1.332-.542c.482 0 .832.186.832.542 0 .3-.225.391-.516.416L.899.483C.199.542-.317.959-.317 1.682c0 .857.683 1.298 1.573 1.298.741 0 1.241-.223 1.657-.574l-.524-.616c-.334.233-.675.392-1.133.392-.541 0-.724-.217-.724-.508 0-.184.133-.368.557-.399l.7-.05c.874-.059 1.224-.592 1.224-1.266 0-.824-.765-1.298-1.748-1.298-.683 0-1.316.248-1.857.756z" style="fill:#4f4c4d;fill-opacity:1;fill-rule:nonzero;stroke:none" transform="translate(116.657 642.645)"/><path d="M0 0c-.233-1.107-1.066-1.705-2.081-1.705A2.11 2.11 0 0 0-3.938-.641c-.19.35-.257.526-.257 1.949s.067 1.598.257 1.947a2.11 2.11 0 0 0 1.857 1.067c1.125 0 1.898-.791 2.081-1.758h-.949c-.141.459-.566.859-1.132.859-.424 0-.732-.202-.916-.434-.233-.301-.299-.465-.299-1.681s.066-1.382.299-1.682c.184-.233.492-.432.916-.432.5 0 .884.273 1.132.806z" style="fill:#4f4c4d;fill-opacity:1;fill-rule:nonzero;stroke:none" transform="translate(126.326 643.011)"/><path d="M0 0c.233.258.624.54 1.281.54C1.94.54 2.33.258 2.563 0c.325-.359.458-.709.458-1.615 0-.915-.133-1.265-.458-1.625-.233-.257-.623-.539-1.282-.539-.657 0-1.048.282-1.281.539-.325.36-.459.71-.459 1.625C-.459-.709-.325-.359 0 0m1.964-.617c-.124.174-.39.308-.683.308-.29 0-.557-.134-.682-.308-.158-.225-.208-.391-.208-.998 0-.617.05-.782.208-1.007.125-.174.392-.309.682-.309.293 0 .559.135.683.309.159.225.209.39.209.998 0 .616-.05.782-.209 1.007" style="fill:#4f4c4d;fill-opacity:1;fill-rule:nonzero;stroke:none" transform="translate(127.4 645.086)"/><path d="m0 0 .849-.386v-4.451c0-.191.108-.291.316-.291h.292v-.799h-.376C.466-5.927 0-5.66 0-4.903Z" style="fill:#4f4c4d;fill-opacity:1;fill-rule:nonzero;stroke:none" transform="translate(131.311 647.283)"/><path d="m0 0 .849-.402v-4.435c0-.191.108-.291.316-.291h.291v-.799h-.374C.466-5.927 0-5.66 0-4.903Z" style="fill:#4f4c4d;fill-opacity:1;fill-rule:nonzero;stroke:none" transform="translate(133.459 647.283)"/><path d="M0 0c0-.692.425-1.042 1.008-1.042.325 0 .675.152.923.409l.617-.524c-.416-.484-.957-.682-1.524-.682-.866 0-1.873.415-1.873 2.146 0 1.64.924 2.173 1.74 2.173.933 0 1.74-.69 1.74-1.78V0Zm1.782.7c-.024.638-.391.982-.891.982C.392 1.682.018 1.338 0 .7Z" style="fill:#4f4c4d;fill-opacity:1;fill-rule:nonzero;stroke:none" transform="translate(136.246 643.146)"/><path d="M0 0a1.486 1.486 0 0 0-1.091-.49 1.41 1.41 0 0 0-1.115.515c-.242.316-.316.474-.316 1.64 0 1.175.074 1.333.316 1.649a1.41 1.41 0 0 0 1.115.515c.433 0 .775-.165 1.091-.499v.449h.849V-.342c0-1.273-.866-1.856-1.832-1.856-.541 0-1.09.284-1.465.708l.659.525c.207-.209.499-.384.823-.384.566 0 .966.325.966.918zm-1.507.682A.837.837 0 0 1-.832.358c.332 0 .549.176.665.324.15.193.167.309.167.983 0 .682-.017.8-.167.992a.828.828 0 0 1-.665.323.834.834 0 0 1-.675-.323c-.15-.192-.166-.31-.166-.992 0-.674.016-.79.166-.983" style="fill:#4f4c4d;fill-opacity:1;fill-rule:nonzero;stroke:none" transform="translate(142.14 641.797)"/><path d="M0 0c0-.692.425-1.042 1.008-1.042.324 0 .673.152.924.409l.615-.524c-.416-.484-.956-.682-1.523-.682-.865 0-1.873.415-1.873 2.146 0 1.64.924 2.173 1.74 2.173.932 0 1.739-.69 1.739-1.78V0Zm1.78.7c-.023.638-.39.982-.889.982S.017 1.338 0 .7Z" style="fill:#4f4c4d;fill-opacity:1;fill-rule:nonzero;stroke:none" transform="translate(144.727 643.146)"/></g><path d="m0 0 2.064-3.572L4.128 0Z" style="fill:#00adef;fill-opacity:1;fill-rule:nonzero;stroke:none" transform="matrix(2.50622 0 0 -2.50622 30.884 0)"/><path d="m0 0-2.064 3.572L-4.128 0Z" style="fill:#00adef;fill-opacity:1;fill-rule:nonzero;stroke:none" transform="matrix(2.50622 0 0 -2.50622 41.229 72.04)"/><path d="m0 0 4.126.002-2.062 3.573Z" style="fill:#00adef;fill-opacity:1;fill-rule:nonzero;stroke:none" transform="matrix(2.50622 0 0 -2.50622 2.274 22.492)"/><path d="m0 0 2.063 3.574-4.127.001Z" style="fill:#00adef;fill-opacity:1;fill-rule:nonzero;stroke:none" transform="matrix(2.50622 0 0 -2.50622 7.446 58.51)"/><path d="m0 0-4.126-.002 2.062-3.573z" style="fill:#00adef;fill-opacity:1;fill-rule:nonzero;stroke:none" transform="matrix(2.50622 0 0 -2.50622 69.839 49.55)"/><path d="m0 0-2.062-3.574 4.126-.001Z" style="fill:#00adef;fill-opacity:1;fill-rule:nonzero;stroke:none" transform="matrix(2.50622 0 0 -2.50622 64.666 13.531)"/><path d="m0 0 2.064-3.572L4.128 0Z" style="fill:#00adef;fill-opacity:1;fill-rule:nonzero;stroke:none" transform="matrix(2.50622 0 0 -2.50622 30.884 0)"/><path d="m0 0-2.064 3.572L-4.128 0Z" style="fill:#00adef;fill-opacity:1;fill-rule:nonzero;stroke:none" transform="matrix(2.50622 0 0 -2.50622 41.229 72.04)"/><path d="m0 0 4.126.002-2.062 3.573Z" style="fill:#00adef;fill-opacity:1;fill-rule:nonzero;stroke:none" transform="matrix(2.50622 0 0 -2.50622 2.274 22.492)"/><path d="m0 0 2.063 3.574-4.127.001Z" style="fill:#00adef;fill-opacity:1;fill-rule:nonzero;stroke:none" transform="matrix(2.50622 0 0 -2.50622 7.446 58.51)"/><path d="m0 0-4.126-.002 2.062-3.573z" style="fill:#00adef;fill-opacity:1;fill-rule:nonzero;stroke:none" transform="matrix(2.50622 0 0 -2.50622 69.839 49.55)"/><path d="m0 0-2.062-3.574 4.126-.001Z" style="fill:#00adef;fill-opacity:1;fill-rule:nonzero;stroke:none" transform="matrix(2.50622 0 0 -2.50622 64.666 13.531)"/><path d="m0 0-2.377-1.371 2.375-1.372z" style="fill:#00adef;fill-opacity:1;fill-rule:nonzero;stroke:none" transform="matrix(2.50622 0 0 -2.50622 27.063 13.568)"/><path d="m0 0-.001-2.743L2.375-1.37Z" style="fill:#00adef;fill-opacity:1;fill-rule:nonzero;stroke:none" transform="matrix(2.50622 0 0 -2.50622 45.053 51.6)"/><path d="M0 0v-2.743l2.374 1.371z" style="fill:#00adef;fill-opacity:1;fill-rule:nonzero;stroke:none" transform="matrix(2.50622 0 0 -2.50622 12.114 32.585)"/><path d="m0 0-2.375-1.37L.002-2.743Z" style="fill:#00adef;fill-opacity:1;fill-rule:nonzero;stroke:none" transform="matrix(2.50622 0 0 -2.50622 27.059 51.6)"/><path d="m0 0-2.374-1.372L0-2.743Z" style="fill:#00adef;fill-opacity:1;fill-rule:nonzero;stroke:none" transform="matrix(2.50622 0 0 -2.50622 59.998 32.585)"/><path d="m0 0 .001-2.743 2.375 1.372z" style="fill:#00adef;fill-opacity:1;fill-rule:nonzero;stroke:none" transform="matrix(2.50622 0 0 -2.50622 45.05 13.568)"/><g clip-path="url(#h)" transform="matrix(2.50622 0 0 -2.50622 -85.25 1669.499)"><path d="M0 0a1.548 1.548 0 1 0-3.096 0A1.548 1.548 0 1 0 0 0" style="fill:#ec008c;fill-opacity:1;fill-rule:nonzero;stroke:none" transform="translate(49.95 661.02)"/><path d="M0 0a1.547 1.547 0 1 0 3.096 0A1.549 1.549 0 1 0 0 0" style="fill:#ec008c;fill-opacity:1;fill-rule:nonzero;stroke:none" transform="translate(46.854 642.518)"/><path d="M0 0a1.549 1.549 0 1 0-1.549-2.682A1.549 1.549 0 0 0 0 0" style="fill:#ec008c;fill-opacity:1;fill-rule:nonzero;stroke:none" transform="translate(41.163 657.736)"/><path d="M0 0c.74.427 1.687.174 2.114-.568a1.544 1.544 0 0 0-.566-2.112 1.544 1.544 0 0 0-2.114.565A1.547 1.547 0 0 0 0 0" style="fill:#ec008c;fill-opacity:1;fill-rule:nonzero;stroke:none" transform="translate(39.616 648.485)"/><path d="M0 0a1.545 1.545 0 0 0-.566 2.112A1.547 1.547 0 1 0 2.115.565 1.545 1.545 0 0 0 0 0" style="fill:#ec008c;fill-opacity:1;fill-rule:nonzero;stroke:none" transform="translate(55.64 645.804)"/><path d="M0 0a1.548 1.548 0 1 0-1.547 2.682A1.548 1.548 0 0 0 0 0" style="fill:#ec008c;fill-opacity:1;fill-rule:nonzero;stroke:none" transform="translate(57.188 655.054)"/><path d="M0 0a2.476 2.476 0 1 0-4.954 0A2.477 2.477 0 1 0 0 0" style="fill:#ec008c;fill-opacity:1;fill-rule:nonzero;stroke:none" transform="translate(50.879 651.769)"/></g><path d="M86.057 102.72H84.6v-1.456h1.457zM84.6 105.242h1.457v1.457H84.6z" style="fill:#5e2590;fill-opacity:1;fill-rule:nonzero;stroke:none;stroke-width:.352778" transform="translate(-570.138 -702.688) scale(7.10425)"/><path d="m0 0-2.065-3.576-3.575 2.064 2.064 3.576z" style="fill:#5e2590;fill-opacity:1;fill-rule:nonzero;stroke:none" transform="matrix(2.50622 0 0 -2.50622 30.884 27.06)"/><path d="m0 0 2.065-3.574-3.576-2.064-2.064 3.574z" style="fill:#5e2590;fill-opacity:1;fill-rule:nonzero;stroke:none" transform="matrix(2.50622 0 0 -2.50622 25.71 36.022)"/><path d="m0 0 2.065 3.574L5.64 1.51 3.576-2.064Z" style="fill:#5e2590;fill-opacity:1;fill-rule:nonzero;stroke:none" transform="matrix(2.50622 0 0 -2.50622 41.229 44.98)"/><path d="m0 0-2.065 3.576 3.576 2.063 2.064-3.575Z" style="fill:#5e2590;fill-opacity:1;fill-rule:nonzero;stroke:none" transform="matrix(2.50622 0 0 -2.50622 46.404 36.022)"/><path d="m0 0-1.973-1.971L-3.945 0l1.972 1.971Z" style="fill:#5e2590;fill-opacity:1;fill-rule:nonzero;stroke:none" transform="matrix(2.50622 0 0 -2.50622 9.887 36.022)"/><path d="m0 0 1.971-1.971L0-3.943l-1.973 1.972Z" style="fill:#5e2590;fill-opacity:1;fill-rule:nonzero;stroke:none" transform="matrix(2.50622 0 0 -2.50622 67.172 31.082)"/><path d="m0 0-.722 2.694 2.694.721.722-2.694Z" style="fill:#5e2590;fill-opacity:1;fill-rule:nonzero;stroke:none" transform="matrix(2.50622 0 0 -2.50622 49.142 13.356)"/><path d="m0 0-2.693-.721-.722 2.693 2.693.722z" style="fill:#5e2590;fill-opacity:1;fill-rule:nonzero;stroke:none" transform="matrix(2.50622 0 0 -2.50622 24.78 65.438)"/><path d="m0 0-2.694.721.723 2.694 2.693-.721Z" style="fill:#5e2590;fill-opacity:1;fill-rule:nonzero;stroke:none" transform="matrix(2.50622 0 0 -2.50622 22.97 13.356)"/><path d="m0 0-.722-2.693-2.693.721.721 2.694z" style="fill:#5e2590;fill-opacity:1;fill-rule:nonzero;stroke:none" transform="matrix(2.50622 0 0 -2.50622 55.894 60.495)"/></svg>