<svg xmlns="http://www.w3.org/2000/svg" width="193.8286mm" height="157.19048mm" viewBox="0 0 193.8286 157.19048"><g transform="translate(-.125 -78.933)"><ellipse cx="97.038994" cy="157.15427" rx="96.342049" ry="77.070518" style="fill:#f9f9f9;stroke:#f9f9f9;stroke-width:1.1445"/><path d="M29.263 112.218c-2.209 0-4.005-1.46-4.005-3.256 0-1.795 1.796-3.255 4.005-3.255 2.21 0 4.008 1.46 4.008 3.255s-1.799 3.256-4.008 3.256m0-6.387c-2.14 0-3.881 1.404-3.881 3.13 0 1.727 1.741 3.133 3.881 3.133 2.142 0 3.884-1.406 3.884-3.132 0-1.727-1.742-3.131-3.884-3.131" style="fill:#30478a;fill-opacity:1;fill-rule:nonzero;stroke:none;stroke-width:.352778" transform="translate(-609.4 -2472.978) scale(24.14144)"/><path d="M32.795 108.719a.136.136 0 0 1-.139.134.136.136 0 0 1-.139-.134c0-.074.062-.134.14-.134.076 0 .138.06.138.134M26.047 108.719a.136.136 0 0 1-.14.134.135.135 0 0 1-.138-.134c0-.074.06-.134.138-.134.078 0 .14.06.14.134M25.785 109.018s-.098.37.11.56c0 0 .086-.286-.11-.56M25.563 109.447s.15.355.435.394c0 0-.108-.281-.435-.394M26.108 109.328s.081.336-.108.504c0 0-.071-.259.108-.504M25.674 109.795s.194.334.482.335c0 0-.143-.263-.482-.335M26.197 109.61s.127.323-.04.513c0 0-.106-.248.04-.512M25.834 110.143s.24.307.525.272c0 0-.178-.244-.525-.272M26.33 109.895s.168.303.029.514c0 0-.138-.233-.03-.514M26.043 110.462s.284.269.562.195c0 0-.216-.215-.562-.195M26.494 110.147s.213.275.108.501c0 0-.173-.21-.108-.501M26.294 110.753s.314.236.58.13c0 0-.238-.19-.58-.13M26.702 110.388s.246.25.17.488c0 0-.2-.19-.17-.488M26.58 111.012s.34.203.593.072c0 0-.26-.166-.593-.072M26.948 110.608s.27.225.222.469c0 0-.219-.17-.222-.469M26.875 111.23s.361.167.598.01c0 0-.278-.138-.598-.01M27.198 111.417s.376.134.595-.047c0 0-.29-.109-.595.047M27.553 111.578s.389.097.589-.1c0 0-.3-.084-.589.1M27.928 111.707s.393.067.576-.148c0 0-.304-.06-.576.148M28.109 111.2s.341.111.39.355c0 0-.27-.079-.39-.354M28.33 111.821s.4.02.556-.21c0 0-.31-.026-.555.21M28.449 111.299s.353.07.43.307c0 0-.276-.047-.43-.307M28.715 111.862s.4-.01.535-.253c0 0-.31 0-.535.253M28.788 111.332s.357.044.456.274c0 0-.28-.026-.456-.274M32.742 109.03s.097.37-.11.561c0 0-.086-.288.11-.562M32.963 109.46s-.148.353-.435.39c0 0 .109-.28.435-.39M32.42 109.34s-.084.334.108.502c0 0 .07-.259-.109-.503M32.855 109.806s-.196.334-.484.335c0 0 .143-.264.484-.335M32.33 109.62s-.127.324.04.514c0 0 .107-.25-.04-.514M32.692 110.154s-.24.306-.525.272c0 0 .18-.243.525-.272M32.197 109.906s-.168.303-.029.512c0 0 .14-.234.03-.512M32.484 110.475s-.285.267-.562.193c0 0 .215-.217.562-.193M32.035 110.156s-.215.277-.11.505c0 0 .173-.213.11-.505M32.235 110.763s-.317.235-.582.132c0 0 .24-.192.582-.132M31.827 110.399s-.247.25-.173.488c0 0 .2-.19.173-.488M31.947 111.022s-.34.204-.593.073c0 0 .259-.167.593-.073M31.58 110.62s-.273.224-.223.468c0 0 .217-.17.223-.469M31.652 111.24s-.361.168-.598.009c0 0 .278-.137.598-.008M31.33 111.428s-.376.133-.596-.045c0 0 .29-.112.595.045M30.974 111.59s-.388.096-.589-.101c0 0 .3-.084.589.1M30.599 111.718s-.393.066-.578-.146c0 0 .306-.061.578.146M30.418 111.212s-.341.11-.39.354c0 0 .268-.078.39-.354M30.196 111.832s-.4.02-.555-.21c0 0 .31-.026.555.21M30.078 111.31s-.352.07-.43.306c0 0 .276-.047.43-.306M29.812 111.872s-.4-.008-.536-.25c0 0 .313-.004.536.25M29.739 111.343s-.357.044-.455.273c0 0 .278-.027.455-.273M26.397 107.925l-.026-.018a.12.12 0 0 0 .02-.029c.003-.004.003-.007.003-.01s-.002-.006-.004-.008a.337.337 0 0 0-.038-.03l-.054-.041-.13-.094-.056-.038a.24.24 0 0 0-.041-.027h-.009l-.008.005a.32.32 0 0 0-.022.028l-.025-.02c.02-.024.04-.05.062-.08.02-.027.035-.052.048-.07l.025.016a.224.224 0 0 0-.02.033c-.002.003-.002.007 0 .008 0 .004.006.01.017.016.018.018.046.037.079.062l.033.024a1.11 1.11 0 0 0 .116-.16l-.032-.024-.055-.04a.718.718 0 0 0-.044-.026h-.006a.014.014 0 0 0-.008.002c-.004.003-.011.012-.025.029l-.025-.018a1.183 1.183 0 0 0 .11-.153l.025.02a.17.17 0 0 0-.017.026l-.003.012c0 .001.003.004.003.007.006.006.017.017.037.03l.055.043.13.092.056.039a.24.24 0 0 0 .041.026.02.02 0 0 0 .007.001c.004 0 .006-.003.011-.006l.02-.026.026.016a2.12 2.12 0 0 0-.11.153l-.025-.016c.01-.02.019-.03.019-.033.001-.004.003-.007.001-.01a.82.82 0 0 0-.098-.077l-.057-.043a.54.54 0 0 0-.054.069c-.028.037-.044.063-.053.076a.127.127 0 0 0-.01.016l.059.042a1.191 1.191 0 0 0 .107.067.217.217 0 0 0 .03-.032l.024.018c-.015.02-.033.041-.052.068l-.057.085M26.687 107.538l-.014-.012c.005-.014.005-.025.005-.035a1.644 1.644 0 0 0-.09-.096l-.108-.11-.051-.046a.185.185 0 0 0-.036-.03h-.007a.117.117 0 0 0-.033.024l-.018-.017.047-.05.028-.029a.955.955 0 0 0 .063-.065l.041-.044.03-.029c.002 0 .005-.003.01-.006l.004.001.03.038a.61.61 0 0 0 .035.038l-.017.017c-.02-.02-.033-.032-.038-.033-.003-.002-.004-.004-.008-.004a.592.592 0 0 0-.098.092c.015.02.038.044.066.073l.05.05.033-.028a.594.594 0 0 1 .045-.053c0-.003 0-.004-.003-.008a.161.161 0 0 0-.029-.033l.018-.018.053.055.055.051-.018.018c-.018-.02-.03-.03-.037-.031a.022.022 0 0 0-.017.002l-.039.036a.173.173 0 0 0-.031.036l.1.102c.013.011.024.02.03.028.014-.01.028-.025.043-.04.014-.016.03-.03.042-.043a.115.115 0 0 0 .018-.029l-.002-.007c-.005-.01-.02-.028-.037-.052l.017-.017c.028.035.055.06.075.083v.006c-.008.01-.019.025-.037.041l-.033.032-.07.069-.068.073M26.952 107.388l.003-.01c.015.003.025.003.032 0a.029.029 0 0 0 .017-.007c.006-.007.01-.011.012-.018a.03.03 0 0 0-.006-.018.168.168 0 0 0-.027-.04c-.03-.036-.047-.058-.051-.06l-.171-.207a3.714 3.714 0 0 1-.052-.06.187.187 0 0 0-.03-.031l-.008-.001c-.004 0-.006 0-.01.004l-.032.025-.02-.024c.03-.023.06-.048.09-.073.025-.02.046-.04.062-.055l.02.024c-.016.012-.023.022-.025.024-.005.004-.006.007-.006.013 0 .004.003.01.008.016a.738.738 0 0 0 .049.06l.078.097.095.112a.276.276 0 0 1 .051.074.198.198 0 0 1 .004.161.095.095 0 0 1-.019.03c-.008.005-.015.007-.023.01a.652.652 0 0 0-.04-.046M26.813 106.804l-.018-.025.083-.053.033-.02.032-.025.01-.006.016.023a.094.094 0 0 0-.032.028.532.532 0 0 0 .052.095l.045.065.023.034.044.064a.135.135 0 0 0 .04.035.104.104 0 0 0 .049.007.15.15 0 0 0 .055-.023.132.132 0 0 0 .047-.05.085.085 0 0 0 .004-.055.295.295 0 0 0-.046-.09l-.038-.057-.064-.091a.246.246 0 0 0-.033-.041c-.004-.003-.007-.003-.01-.003a.104.104 0 0 0-.038.016l-.015-.023.053-.033c.003-.001.005-.003.006-.006l.055-.038.017.024c-.017.01-.025.018-.028.023-.001.003 0 .007.001.011.002.006.014.026.035.062.022.035.04.06.052.081l.046.068c.012.016.022.036.032.055a.19.19 0 0 1 .019.055.19.19 0 0 1-.004.055.143.143 0 0 1-.028.051.212.212 0 0 1-.05.047.283.283 0 0 1-.08.035.125.125 0 0 1-.097-.014.104.104 0 0 1-.032-.029.322.322 0 0 1-.038-.054l-.038-.055-.05-.071c-.016-.027-.032-.053-.048-.072a.083.083 0 0 0-.015-.015c-.003-.003-.007-.004-.012-.006zM27.544 106.871l-.013-.028c.017-.007.026-.013.03-.016.005-.003.006-.004.006-.006.003-.003.003-.006.001-.01a.229.229 0 0 0-.015-.044l-.027-.064-.064-.147-.029-.062a.281.281 0 0 0-.022-.041c-.002-.004-.004-.006-.007-.007h-.01c-.003 0-.016.006-.032.012l-.013-.029c.03-.01.064-.023.095-.037.03-.014.056-.028.079-.037l.012.026-.034.02c-.004 0-.004.005-.007.007 0 .003.003.011.008.022.007.024.021.054.038.094l.016.037.084-.034.097-.046-.016-.037a.791.791 0 0 1-.027-.063c-.014-.025-.024-.042-.025-.046-.001 0-.003 0-.005-.004h-.007a.165.165 0 0 0-.038.013l-.012-.028a.872.872 0 0 0 .172-.077l.014.027a.194.194 0 0 1-.032.017l-.005.008v.008c0 .007.005.022.015.045l.026.064.065.146.029.062c.01.022.018.037.022.043.003 0 .004.003.007.006h.01c.004-.003.015-.006.033-.013l.013.028a1.803 1.803 0 0 0-.173.076l-.014-.027c.02-.01.03-.016.034-.019l.006-.007a.115.115 0 0 0-.006-.025c-.01-.02-.022-.052-.04-.092l-.028-.066a.994.994 0 0 0-.082.034c-.041.017-.069.03-.082.037-.007.004-.013.006-.017.01l.029.064a.443.443 0 0 0 .029.063l.023.046.006.004h.008l.035-.012.012.028c-.023.008-.05.02-.08.032-.032.013-.063.03-.092.044" style="fill:#30478a;fill-opacity:1;fill-rule:nonzero;stroke:none;stroke-width:.352778" transform="translate(-609.4 -2472.978) scale(24.14144)"/><path d="m28.033 106.662.067-.016-.008-.027a.13.13 0 0 1-.043.006c-.004-.001-.007-.004-.008-.01a.244.244 0 0 1-.004-.06l.003-.045.147-.043.046.065c.008.011.012.02.015.025 0 .004 0 .008-.003.011-.001.003-.015.008-.037.015l.008.03.1-.034.08-.022-.008-.028c-.007.003-.01.003-.012.003l-.018.003c-.003 0-.007 0-.008-.003-.003 0-.004-.003-.009-.006l-.02-.027-.03-.04-.23-.306-.04.012-.003.083-.013.234a1.967 1.967 0 0 1-.004.088c-.001.032-.004.051-.004.057a.18.18 0 0 1-.004.01c-.002.004-.003.007-.007.009a.157.157 0 0 1-.025.01l.007.027zm.018-.38.11.15c-.017.007-.036.013-.058.02a.986.986 0 0 1-.062.017zM28.417 106.557l-.002-.018.02-.017.006-.007v-.004a.637.637 0 0 0-.009-.061c-.005-.036-.013-.077-.022-.124-.013-.072-.022-.116-.026-.132a.338.338 0 0 0-.018-.073l-.005-.004c-.004-.003-.02-.003-.046 0l-.005-.03c.025-.003.054-.007.087-.014.034-.007.067-.012.099-.02l.005.029c-.022.007-.036.01-.04.013-.002.003-.002.006-.002.008a.133.133 0 0 0 .005.043l.015.094c.002.004.009.036.02.096l.017.097.013.058.055-.008a.45.45 0 0 0 .077-.02l.013-.008s0-.007.004-.014v-.06l.023-.004.001.01.006.07c.001.022.004.034.004.038a.348.348 0 0 1-.072.02.565.565 0 0 1-.069.01.568.568 0 0 1-.067.012 3.423 3.423 0 0 0-.087.02M28.754 106.495l-.002-.017.02-.015.008-.008v-.004c0-.006 0-.026-.003-.062l-.011-.125-.014-.132a1.375 1.375 0 0 0-.01-.075l-.006-.006c-.006-.003-.021-.003-.047-.003l-.003-.03a.57.57 0 0 0 .087-.006c.036-.003.07-.008.102-.013l.003.03c-.022.005-.036.008-.04.012-.003 0-.004.003-.006.007a.189.189 0 0 0 .003.042 2.453 2.453 0 0 0 .029.29l.005.058.057-.001a.41.41 0 0 0 .09-.021c.004-.003.004-.006.005-.014l.005-.06.025-.002v.12c-.004.003-.01.004-.016.006-.011.003-.03.004-.055.007l-.07.006-.068.006-.088.011M29.133 106.46l.068.002v-.029c-.023 0-.037-.003-.042-.007-.003 0-.004-.006-.004-.01 0-.009.004-.027.013-.06l.014-.04.153-.001.025.074a.096.096 0 0 1 .008.03c0 .005-.001.007-.004.01l-.04.004v.03l.104-.004.082.001v-.028c-.005 0-.01-.003-.012-.003h-.018c-.003-.004-.004-.004-.007-.005l-.004-.01-.013-.033-.019-.045-.134-.358h-.04l-.027.078-.077.22c-.017.043-.026.07-.03.085l-.021.052c-.002.006-.006.01-.006.011-.002.001-.005.004-.01.004a.117.117 0 0 1-.028.004v.029zm.122-.362.065.176-.06.001a.648.648 0 0 1-.064 0zM29.696 106.02l.003-.028.095.016.08.008.011.001-.004.03c-.022-.005-.036-.004-.041 0-.005.001-.006.004-.009.011-.003.013-.01.043-.016.093l-.011.078-.006.04a.78.78 0 0 0-.008.077c-.002.022 0 .04.007.054a.085.085 0 0 0 .03.037c.012.01.032.017.057.02a.16.16 0 0 0 .068-.007.105.105 0 0 0 .042-.037.352.352 0 0 0 .023-.097l.01-.07c.008-.06.014-.097.014-.11.002-.028.004-.046.002-.051a.032.032 0 0 0-.005-.011.12.12 0 0 0-.04-.011l.004-.03a1.358 1.358 0 0 0 .072.013l.064.007-.004.029c-.019-.003-.03-.003-.035 0a.027.027 0 0 0-.007.01.631.631 0 0 0-.014.067 9.854 9.854 0 0 1-.017.097l-.01.08c-.002.02-.008.04-.013.063a.188.188 0 0 1-.022.054.177.177 0 0 1-.04.038.2.2 0 0 1-.054.021.264.264 0 0 1-.069 0 .27.27 0 0 1-.081-.028.095.095 0 0 1-.043-.033.127.127 0 0 1-.023-.041c-.004-.015-.004-.03-.004-.043 0-.008 0-.031.007-.067l.01-.065.01-.087c.006-.031.008-.06.011-.085.002-.011 0-.018 0-.022l-.007-.01zM30.083 106.5a.184.184 0 0 0 .04.007c.002 0 .004 0 .006-.003l.007-.01.022-.063c.004-.017.01-.04.02-.07l.027-.106.023-.097a.178.178 0 0 0 .007-.033c0-.006 0-.008-.003-.01 0-.004-.003-.007-.007-.009-.003 0-.015-.007-.036-.013l.01-.028c.023.008.04.014.052.016l.043.011.025.004a7.208 7.208 0 0 0 .156.404l.02-.077c.03-.12.05-.19.053-.212a.035.035 0 0 0-.002-.018c-.003-.004-.018-.011-.042-.018l.006-.028.064.02c.02.006.044.01.076.018l-.009.026a.133.133 0 0 0-.044-.006.467.467 0 0 0-.03.079c-.011.041-.02.069-.023.088-.04.147-.061.237-.068.27l-.004.003-.047-.022c-.04-.098-.096-.241-.168-.431l-.044.165c-.008.035-.018.07-.026.108a.217.217 0 0 0-.009.048c0 .003 0 .004.002.007.001.003.004.004.01.006.012.006.019.008.026.01h.005l-.008.031c-.035-.01-.055-.018-.06-.02-.02-.003-.046-.01-.078-.016zM30.881 106.272l-.01.029-.035-.01h-.01c-.001 0-.004.003-.004.006-.003.004-.007.008-.01.02a.365.365 0 0 0-.013.03l-.032.085-.048.13-.02.061c-.008.02-.01.037-.012.043l.001.01.007.007c.003 0 .014.007.03.014l-.009.029c-.029-.014-.063-.027-.096-.04a.774.774 0 0 0-.082-.025l.01-.03.036.012.01-.001.003-.004.014-.03a.807.807 0 0 0 .028-.07l.05-.136a2.366 2.366 0 0 0 .043-.135v-.008s-.002-.004-.005-.006c-.003-.003-.015-.007-.034-.015l.01-.029a1.158 1.158 0 0 0 .178.063M30.906 106.812c.006-.051.011-.1.014-.146l.014-.123.013-.175c0-.02 0-.03-.004-.033-.004-.007-.013-.014-.03-.022l.014-.028c.043.022.067.036.077.04l.098.043-.013.028a.333.333 0 0 0-.035-.014c-.003 0-.007 0-.01.003a.016.016 0 0 0-.006.006.466.466 0 0 0-.01.067.5.5 0 0 0-.003.038l-.002.006-.023.224.142-.143.045-.05c.021-.02.033-.035.04-.042 0-.003.002-.006.003-.008a.016.016 0 0 0 .004-.008c0-.001-.001-.003-.004-.004 0-.003-.003-.004-.01-.008l-.026-.016.013-.027.067.036.06.023-.014.028a.134.134 0 0 0-.034-.008.393.393 0 0 0-.063.056l-.044.044-.084.083c-.07.07-.12.12-.148.151zM31.136 106.922l.01-.015c.012 0 .025 0 .034-.003.007-.007.016-.02.028-.037l.048-.072.081-.132c.005-.004.016-.024.035-.057a.312.312 0 0 0 .02-.043v-.007c-.002-.006-.015-.013-.031-.027l.012-.022.06.036.033.02.077.047.052.03.036.024c.003 0 .004.004.007.008v.006l-.03.038a.772.772 0 0 0-.03.04l-.02-.012a.246.246 0 0 0 .025-.043v-.008c0-.003-.006-.01-.017-.018a.366.366 0 0 0-.047-.033c-.015-.01-.031-.018-.048-.026a.749.749 0 0 0-.055.081l-.037.06.034.026c.004.001.02.01.042.025.01.004.016.007.019.007a.008.008 0 0 0 .005-.003.142.142 0 0 0 .028-.036l.02.014-.04.063-.04.064-.02-.013c.014-.023.022-.037.022-.044.001-.004-.001-.01-.005-.014a.414.414 0 0 0-.043-.033 1.131 1.131 0 0 0-.042-.022l-.078.121a.242.242 0 0 0-.02.038.35.35 0 0 0 .047.031.24.24 0 0 0 .051.03c.017.007.027.013.032.012a.442.442 0 0 0 .05-.05l.02.011c-.027.037-.05.068-.064.092l-.006.001a.244.244 0 0 1-.048-.026l-.039-.026-.082-.054c-.004 0-.032-.019-.086-.05M31.698 106.742l.017-.023c.004.001.015.013.036.03.01.01.025.021.043.037l.042.033a.31.31 0 0 1 .047.037.174.174 0 0 1 .051.048c.008.014.013.03.011.05a.131.131 0 0 1-.09.102.159.159 0 0 1-.088 0l-.005.034-.004.022v.007l-.015.091a.432.432 0 0 0-.007.1c.001.004.005.007.012.013l-.02.025c-.023-.02-.038-.035-.05-.044-.011-.01-.024-.018-.037-.028.001-.004.004-.01.005-.02l.028-.133.015-.095a.046.046 0 0 0 0-.028l.01-.007a.124.124 0 0 0 .046.028c.014.003.03 0 .047-.008a.14.14 0 0 0 .046-.037c.012-.017.022-.033.022-.048a.06.06 0 0 0-.007-.043.136.136 0 0 0-.032-.033.087.087 0 0 0-.023-.015c-.004.006-.018.02-.035.042a1.426 1.426 0 0 0-.084.1 1.549 1.549 0 0 0-.067.085.729.729 0 0 0-.05.065l-.014.02v.007c.002.003.003.006.006.008.001.001.01.011.026.024l-.02.023c-.025-.022-.052-.045-.08-.067-.023-.02-.046-.036-.067-.051l.02-.024c.018.014.03.021.033.022h.005c.003 0 .004 0 .008-.006a.344.344 0 0 0 .03-.029l.063-.077.081-.1.044-.057a.25.25 0 0 0 .028-.043c.003-.003.003-.006.001-.007-.001-.006-.01-.016-.027-.031M32.177 107.307l-.018-.02a.434.434 0 0 0 .038-.041.067.067 0 0 0-.001-.04.114.114 0 0 0-.028-.044.078.078 0 0 0-.059-.03.07.07 0 0 0-.055.023.075.075 0 0 0-.023.03.05.05 0 0 0-.005.028l.013.034.026.043c.011.018.02.029.02.036.01.014.015.027.016.04a.131.131 0 0 1 0 .033.111.111 0 0 1-.015.033c-.006.01-.017.023-.028.036a.175.175 0 0 1-.067.041.173.173 0 0 1-.057.008.176.176 0 0 1-.123-.06.258.258 0 0 1-.04-.054c-.008-.018-.017-.039-.023-.064a.819.819 0 0 0 .092-.075l.018.017a.749.749 0 0 0-.042.046.124.124 0 0 0 0 .055.109.109 0 0 0 .073.081c.016.006.03.006.045.001a.13.13 0 0 0 .04-.023.117.117 0 0 0 .024-.032.067.067 0 0 0 0-.033c0-.01-.01-.027-.021-.05-.02-.033-.03-.055-.036-.066a.1.1 0 0 1 .003-.092.19.19 0 0 1 .094-.08c.022-.008.044-.01.062-.008a.16.16 0 0 1 .053.02.262.262 0 0 1 .049.037c.013.015.024.031.037.048.01.02.016.034.02.05l-.004.009-.037.025c-.008.008-.025.02-.041.037M32.454 107.454l-.025.018a.18.18 0 0 0-.024-.026c-.002-.003-.005-.003-.007-.004h-.008c-.004 0-.01.005-.018.012l-.027.019-.073.055-.11.084-.047.041a.192.192 0 0 0-.036.03c-.003.004-.003.007-.003.008 0 .003 0 .007.003.01 0 .004.007.012.018.028l-.024.02a2.537 2.537 0 0 0-.06-.084l-.055-.067.024-.017.024.026c.004.004.007.004.008.004h.007l.027-.018.061-.044.113-.09c.036-.027.06-.045.068-.055a.277.277 0 0 0 .041-.036c.003 0 .004-.004.005-.006 0-.003 0-.006-.002-.008a.1.1 0 0 0-.02-.031l.025-.02a.48.48 0 0 0 .05.07c.022.03.044.056.065.08M32.126 107.823l.023-.013c.012.02.022.031.028.034.004.003.01.003.016.001.008-.006.035-.018.077-.043l.177-.107.081-.05-.023-.037-.03-.045c-.005-.006-.008-.008-.009-.008a.316.316 0 0 0-.06.028l-.013-.024c.04-.023.062-.039.067-.041.009-.006.017-.011.027-.02h.004l.014.028c.008.015.024.043.05.085l.06.102c.027.043.044.072.055.086a.079.079 0 0 0 .015.023l-.003.004c-.01.006-.023.011-.033.015a1.252 1.252 0 0 1-.065.038l-.012-.021c.015-.008.029-.02.041-.03.007-.006.01-.007.011-.01 0-.001 0-.006-.002-.011a.831.831 0 0 0-.03-.051l-.02-.036-.081.047-.177.107a1.398 1.398 0 0 0-.075.047c-.005.006-.007.01-.007.015 0 .006.005.02.018.04l-.025.016a1.057 1.057 0 0 0-.048-.086 1.15 1.15 0 0 0-.051-.082M28.397 109.877s-1.128-.284-2.012-1.108a1.788 1.788 0 0 0-.013.193c0 .733.476 1.382 1.203 1.78a6.44 6.44 0 0 1 .822-.865M32.14 108.747c-.878.785-2.02 1.13-2.02 1.13a6.9 6.9 0 0 1 .83.865c.73-.398 1.205-1.046 1.205-1.78 0-.072-.006-.145-.014-.215M29.707 110.703a.068.068 0 0 0-.045.014.07.07 0 0 0-.017.044c0 .018.006.032.015.043.01.01.024.014.046.014a.072.072 0 0 0 .041-.013c.013-.01.018-.023.018-.045 0-.02-.005-.035-.016-.044a.072.072 0 0 0-.042-.013M29.415 110.799a.06.06 0 0 0-.041.013c-.014.01-.02.024-.02.043 0 .017.006.03.017.041a.063.063 0 0 0 .047.018c.02 0 .034-.007.044-.018a.06.06 0 0 0 .015-.041.052.052 0 0 0-.014-.037c-.008-.014-.025-.02-.048-.02M29.112 110.703a.066.066 0 0 0-.046.014.068.068 0 0 0-.015.044c0 .018.004.032.014.043.008.01.025.014.047.014a.07.07 0 0 0 .04-.013c.01-.01.018-.023.018-.045 0-.02-.004-.035-.017-.044a.069.069 0 0 0-.041-.013" style="fill:#30478a;fill-opacity:1;fill-rule:nonzero;stroke:none;stroke-width:.352778" transform="translate(-609.4 -2472.978) scale(24.14144)"/><path d="M29.263 110.009h-.008s-.723.174-1.342.894c.402.16.86.254 1.348.254.487 0 .95-.094 1.353-.257-.612-.706-1.329-.884-1.35-.891m-.414.929h-.04v-.19h-.07v-.025a.175.175 0 0 0 .058-.011.072.072 0 0 0 .023-.04h.029zm.347-.055a.096.096 0 0 1-.092.062c-.029 0-.052-.007-.066-.021a.068.068 0 0 1-.024-.051h.038c.001.018.01.03.024.038a.058.058 0 0 0 .027.006.054.054 0 0 0 .044-.02c.015-.014.023-.04.029-.082a.078.078 0 0 1-.03.027.138.138 0 0 1-.04.006c-.03 0-.054-.007-.07-.024a.079.079 0 0 1-.026-.06.09.09 0 0 1 .025-.064c.017-.019.041-.027.074-.027.043 0 .074.016.09.05.01.02.015.046.015.074 0 .031-.007.06-.018.086m.292.035a.106.106 0 0 1-.075.028.11.11 0 0 1-.073-.03c-.021-.017-.03-.049-.03-.093 0-.034.003-.063.013-.085a.095.095 0 0 1 .095-.067c.035 0 .058.008.072.024.014.014.02.031.02.047h-.037a.053.053 0 0 0-.012-.025c-.008-.011-.022-.017-.041-.017a.053.053 0 0 0-.05.028c-.014.015-.02.041-.022.072a.1.1 0 0 1 .033-.025.12.12 0 0 1 .04-.006c.026 0 .048.006.067.02a.08.08 0 0 1 .028.064c0 .025-.01.045-.028.065m.304-.035a.097.097 0 0 1-.094.062.098.098 0 0 1-.066-.02.072.072 0 0 1-.022-.051h.038c0 .017.009.03.024.038a.052.052 0 0 0 .025.006.062.062 0 0 0 .046-.02c.013-.014.022-.04.028-.082a.072.072 0 0 1-.032.026.123.123 0 0 1-.038.006c-.03 0-.053-.007-.07-.023a.079.079 0 0 1-.024-.06c0-.025.007-.046.025-.064.016-.02.04-.028.073-.028.042 0 .073.017.09.051a.221.221 0 0 1-.003.16M28.375 107.98c.041 0 .071-.05.071-.114 0-.063-.03-.116-.071-.116-.04 0-.073.053-.073.116s.033.114.073.114" style="fill:#30478a;fill-opacity:1;fill-rule:nonzero;stroke:none;stroke-width:.352778" transform="translate(-609.4 -2472.978) scale(24.14144)"/><path d="M28.915 109.267v-.446s-.011-.096.096-.102h.502s.1 0 .1.102v.448c.906-.077 1.478-.343 1.478-.343.406-.157.723-.336.971-.505-.317-.95-1.448-1.653-2.8-1.653-1.349 0-2.478.701-2.797 1.65.248.169.566.35.975.508 0 0 .572.264 1.475.342m.632-1.39c.002-.022.03-.019.03-.019h.313v-.142h-.246c-.028 0-.033-.008-.033-.008l-.042-.056c-.013-.022.004-.039.004-.039.013-.014.046.01.046.01.001.007.391.004.391.004.04 0 .036.02.036.02v.252c-.005.04-.036.045-.036.045h-.245v.132c.001.025.022.025.022.025l.26-.004c.043.004.098-.043.098-.043v-.44c0-.018-.074-.05-.074-.05-.015-.006-.014-.02-.014-.02.002-.019.03-.019.03-.019l.181.016c.032.003.03.022.03.022l-.001.286h.112c.028.001.028.039.028.039.003.055-.027.056-.027.056h-.11v.425c-.02.073-.115.064-.115.064-.033.007-.041-.02-.041-.02v-.282c-.033.051-.192.057-.192.057l-.267-.001c-.06 0-.077-.06-.077-.06l-.003-.183c.003-.025-.025-.033-.025-.033-.044-.015-.033-.033-.033-.033m-.698.528h-.487c-.062-.006-.074-.059-.074-.059v-.158c0-.022-.051-.033-.051-.033-.036-.007-.025-.027-.025-.027.004-.024.033-.016.033-.016l.172.004c.03 0 .035.022.035.022v.146c-.002.035.03.032.03.032h.356c.037.003.04.041.04.041-.002.048-.03.047-.03.047m-.223-.859c.007-.022.039-.015.039-.015l.163.013c.04.004.038.03.038.03v.197h.105c.03 0 .034.032.034.032.002.064-.024.064-.024.064h-.113v.242c0 .05-.045.067-.045.067-.088.032-.11-.007-.11-.007v-.55c-.003-.018-.065-.037-.065-.037-.033-.01-.022-.036-.022-.036m-.562.105s.004-.014.026-.008c0 0 .036.02.042.02h.164s.002-.057-.009-.061c0 0-.035-.022-.034-.044 0 0-.007-.03.041-.021l.127.01s.039.002.039.031l-.007.083h.175s.041.003.038.044c0 0 .003.041-.03.04h-.074s.05.069.041.134c0 0-.017.175-.232.188 0 0-.213-.015-.226-.191 0 0-.01-.068.049-.127h-.064s-.019 0-.029-.018c0 0-.059-.054-.037-.08M32.587 108.172l.077.011.129.01.046.003.018.044-.015.007a1.422 1.422 0 0 0-.151-.025c-.057-.007-.093-.012-.11-.012h-.027a.154.154 0 0 0-.025.008l-.052.022a.384.384 0 0 0-.081.04c-.002 0-.002.006-.002.01s.003.016.013.037l-.03.011-.034-.095c-.01-.028-.023-.055-.035-.083l.029-.01c.008.02.013.031.016.035.003.003.004.004.007.004.004 0 .01 0 .022-.004l.062-.022.06-.025c.005-.003.014-.01.027-.023a1.442 1.442 0 0 0 .136-.17c.009-.015.014-.024.014-.03l-.008-.025.023-.01.039.054.02.028a.114.114 0 0 1-.01.031.58.58 0 0 1-.087.106l-.07.073M26.346 107.894l.026.027a.422.422 0 0 1-.001.075.28.28 0 0 1-.092.16.248.248 0 0 1-.15.047.344.344 0 0 1-.115-.032.248.248 0 0 1-.132-.132.231.231 0 0 1 .015-.192.351.351 0 0 1 .036-.065c.015-.015.03-.035.053-.055h.005c.01.008.02.017.034.024a.756.756 0 0 0 .062.035l-.011.021-.054-.025a.19.19 0 0 0-.052.027.16.16 0 0 0-.039.052.137.137 0 0 0-.001.123c.02.04.056.073.112.099a.302.302 0 0 0 .093.029.175.175 0 0 0 .077-.006.177.177 0 0 0 .057-.025.173.173 0 0 0 .048-.065.244.244 0 0 0 .018-.054.25.25 0 0 0 0-.064zM27.194 110.792s.297.194.275.44c0 0-.237-.144-.275-.44M27.47 110.951s.313.166.319.413c0 0-.252-.122-.32-.413M27.778 111.088s.33.138.358.384c0 0-.26-.099-.358-.384M31.333 110.801s-.296.196-.275.443c0 0 .238-.145.275-.443M31.058 110.961s-.316.165-.32.415c0 0 .25-.123.32-.415M30.749 111.099s-.33.138-.358.384c0 0 .26-.099.358-.384" style="fill:#30478a;fill-opacity:1;fill-rule:nonzero;stroke:none;stroke-width:.352778" transform="translate(-609.4 -2472.978) scale(24.14144)"/></g></svg>