<svg xmlns="http://www.w3.org/2000/svg" width="675.01599pt" height="675pt" fill-rule="evenodd" viewBox="0 0 675.01599 674.99999"><path d="M2.17 339.958C.8 155.07 150.11 3.518 335.02 2.162 519.967.806 671.482 150.138 672.846 335.04c1.334 184.895-147.969 336.432-332.894 337.781-184.91 1.356-336.418-147.96-337.781-332.864Z" style="fill:#fff;stroke:none;stroke-width:7.45095"/><path d="M339.361.005a345.78 345.78 0 0 0-4.356.004C148.917 1.38-1.355 153.9.009 339.988 1.38 526.09 153.873 676.369 339.953 674.99c186.132-1.356 336.425-153.871 335.054-339.966C673.639 150.391 523.51.996 339.36.005Zm-.013 2.153c182.977.984 332.145 149.425 333.498 332.883 1.334 184.896-147.968 336.433-332.893 337.782C155.043 674.179 3.535 524.86 2.17 339.959.801 155.07 150.11 3.519 335.02 2.163c1.445-.011 2.888-.013 4.329-.005z" style="fill:#b0bbc0;fill-opacity:1;stroke:none;stroke-width:7.45095"/><path d="M337.515 40.63c-163.958 0-296.883 132.91-296.883 296.876 0 163.959 132.925 296.869 296.883 296.869 163.958 0 296.869-132.91 296.869-296.869 0-163.965-132.91-296.875-296.869-296.875zm-7.167 17.302L332.5 85.77c.574 7.51-.074 13.553-14.946 14.7-15.267 1.178-16.445-4.932-17.01-12.226l-2.154-27.837 7.078-.543 2.139 27.62c.514 6.757 1.49 9.946 9.678 9.306 8.077-.626 8.636-3.934 8.122-10.685l-2.138-27.628zm18.597.246 6.148.64L369.6 88.892c.775 1.497 1.326 2.979 1.9 4.454l.291.03c-.004-.45-.027-.906-.057-1.364-.089-1.375-.236-2.77-.085-4.105l2.817-27.069 6.154.633-4.232 40.667-6.163-.633-14.298-29.132c-.931-1.789-1.349-3.689-2.071-5.507l-.41-.045c.03 2.682.267 5.313-.008 7.966l-2.562 24.7-6.162-.65zm48.708 7.027 6.9 1.654-9.53 39.757-6.893-1.654zm18.842 4.336 6.841 2.563-1.028 31.39c.015 1.11-.538 3.74-.806 5.618l.381.135c.924-1.617 2.257-4.016 2.89-4.82l19.723-24.387 6.751 2.518-28.768 32.888-5.887-2.213zm-169.933 3.51 11.81 35.51 15.773-5.252 1.103 3.293-22.51 7.488-12.92-38.79zm-31.414 12.867 31.92 29.774-6.81 3.39-6.288-6.26-14.523 7.221 1.297 8.748-6.818 3.39-4.768-43.29zm247.834 2.72 20.937 11.772-1.683 3.01-14.776-8.278-7.056 12.577 14.32 8.048-1.705 3.018-14.322-8.04-7.86 13.985 14.769 8.293-1.707 3.025-20.953-11.773zm-248.445 3.33-.357.178c.588 2.795 1.386 5.545 1.892 8.384l3.003 16.012 12.413-6.185-11.51-11.773c-2.042-2.07-3.668-4.418-5.44-6.616zm-29.415 10.32 24.058 33.052-4.985 3.636-30.131-12.078c-1.886-.7-3.464-1.832-5.223-2.696l-.328.237c1.818 1.96 3.756 3.77 5.328 5.924l14.619 20.073-5.008 3.628-24.066-33.037 5-3.644 30.906 12.652c1.565.596 2.966 1.311 4.374 2.042l.253-.179c-1.214-1.334-2.72-2.518-3.763-3.971l-16.034-22.004zm312.231 7.056 5.984 4.686c8.382 6.572 16.176 13.233 10.021 21.079-3.211 4.098-8.032 6.788-17.815-.604l1.006 26.154-5.902-4.628-.425-25.75-.164-.126-12.353 15.751-5.58-4.388zm-159.838 5.648c122.889 0 222.501 99.626 222.501 222.514 0 122.889-99.612 222.509-222.5 222.509-122.89 0-222.515-99.62-222.515-222.509 0-122.888 99.626-222.514 222.514-222.514zm163.288 1.453-8.836 11.272 1.997 1.566c7.83 6.125 10.244 5.677 13.545 1.452 3.979-5.074 1.512-7.838-5.588-13.403zm-354.327 21.947c5.913.026 10.93 4.028 14.81 7.7 5.558 5.253 14.56 15.155 2.377 28.045-11.504 12.152-21.213 5.774-28.15-.782-7.51-7.124-13.502-16.265-2.355-28.052 4.807-5.086 9.272-6.93 13.318-6.911zm381.588 2.381c4.057.116 9.05 2.446 13.809 7.63 3.092 3.352 5.096 6.742 6.571 10.348l-3.56 3.264a33.249 33.249 0 0 0-.29-1.306c-.74-3.047-2.007-6.086-4.882-9.216-4.806-5.23-9.806-6.012-12.369-3.665-3.502 3.241-.745 9.514 1.953 15.982 2.6 6.43 5.081 12.964.931 16.787a7.524 7.524 0 0 1-1.854 1.252c-4.783 2.301-12.578.203-19.664-7.51-2.876-3.13-5.35-6.789-6.646-10.283l3.628-3.33c.835 3.629 2.638 7.763 5.931 11.34 5.09 5.52 10.483 6.191 13.143 3.628 3.569-3.144.67-9.433-1.922-15.863-2.63-6.393-5.148-13.046-.819-17.01 1.509-1.388 3.605-2.117 6.04-2.048zm-384.515 3.35c-2.517-.042-5.12.977-7.708 3.712-7.726 7.772-.544 15.26 4.701 20.215 5.23 4.955 12.912 11.512 20.43 3.561 7.518-7.965.545-15.26-4.693-20.207-3.438-3.257-7.924-7.203-12.73-7.282zm-31.85 27.682 33.239 23.806-4.143 5.767-33.231-23.806zm448.883.238 4.12 5.775-33.26 23.776-4.136-5.775zm-459.59 14.694 3.018 1.698-5.64 9.984 32.583 18.383-3.488 6.184-32.582-18.382-5.633 9.97-3.017-1.7zm470.342.358 14.745 26.13-3.01 1.699-5.633-9.97-32.575 18.397-3.51-6.184 32.59-18.397-5.632-9.976zm18.56 33.707 2.712 7.102-10.163 12.025c-1.311 1.587-2.741 2.996-4.068 4.702l.142.365c2.02-.007 4.039-.238 6.118.052l15.34 2.183 2.705 7.109-26.458-4.874-16.727 6.364-2.534-6.617 16.72-6.385zm-510.577 8.152 43.641 1.185-2.868 7.048-8.852-.53-6.095 15.037 6.766 5.685-2.861 7.057-32.249-29.275zm3.548 4.947-.15.38c2.288 1.692 4.732 3.227 6.975 5.015l12.852 10.028 5.217-12.874-16.423-1.193c-2.913-.193-5.677-.872-8.47-1.356zm-15.2 27.182 39.922 8.82-1.334 6.045-30.564 10.9c-1.893.722-3.822.924-5.707 1.438l-.09.394c2.653.276 5.32.344 7.906.917l24.252 5.357-1.34 6.035-39.923-8.82 1.342-6.036 31.532-10.99c1.565-.597 3.1-.992 4.628-1.372l.058-.297c-1.78-.194-3.703-.083-5.439-.478l-26.585-5.87zm540.507 34.81 3.717 1.156 1.588 15.325-40.66 4.217-.716-6.868 37.121-3.838zM87.813 334.127c6.204.083 10.896 2.327 11.593 15.353.797 15.29-5.335 16.325-12.644 16.705l-27.89 1.483-.372-7.086 27.673-1.46c6.765-.358 9.984-1.244 9.545-9.447-.432-8.1-3.718-8.741-10.499-8.383l-27.658 1.46-.373-7.085 27.882-1.468c.94-.051 1.857-.084 2.743-.072zm514.747 5.706a14.591 14.591 0 0 1 1.312.029c8.338.596 11.11 7.301 10.514 15.9-.932 12.942-7.235 15.953-13.017 15.543-5.417-.388-10.142-3.576-14.85-7.674l-13.382-12.027.529-7.384 17.92 16.213.134-.186c-.775-2.288-1.095-4.553-.879-7.578.792-11.12 8.001-12.743 11.719-12.836zm-.982 6.842c-3.095.102-7.103 1.537-7.579 8.35-.559 7.577 4.658 9.164 7.69 9.388 3.078.216 8.636-.708 9.218-8.8.573-8.084-5.038-8.696-8.07-8.912a12.096 12.096 0 0 0-1.259-.026zM97.723 378.043c3.09.048 5.243 1.935 6.78 9.535.596 2.883.803 5.528.64 8.36l-3.868.782c.552-2.183.902-4.53.35-7.22-.894-4.47-3.046-4.657-5.222-4.218l-33.26 6.736-1.417-6.96 32.583-6.593c1.25-.25 2.384-.438 3.414-.422zm474.252 1.837 3.159 2.764c-2.05 2.839-3.972 6.02-5 10.141-2.116 8.472 2.75 12.087 6.207 12.958 4.21 1.05 9.478-.56 11.862-10.104.88-3.54 1.102-7.042.879-10.23l19.358 9.754-5.507 22.032-3.263-.813 4.142-16.526-11.63-5.834-.901 4.486c-3.115 12.488-10.977 15.319-16.662 13.91-5.782-1.445-11.28-7.622-8.106-20.318 1.118-4.523 3.1-9.053 5.462-12.22zm-465.03 21.05 7.735 22.755-38.708 13.166-7.74-22.74 3.292-1.125 5.461 16.034 13.644-4.65-5.291-15.558 3.286-1.11 5.29 15.55 15.2-5.17-5.454-16.034zM559.8 418.328l9.068 20.69c2.519 5.79 5.32 13.479 10.125 15.617 2.578 1.148 5.97.456 8.57-5.378 3.1-6.945-.225-9.762-3.138-11.066l-.79-.35 2.817-6.303c5.09 2.28 9.745 6.907 4.455 18.762-4.381 9.805-10.117 12.696-14.96 10.527-5.313-2.362-8.256-10.006-10.924-16.526l-6.445-14.97-8.464 18.98-3.07-1.365zm-442.477 18.315c2.41.03 4.668 1.886 7.513 7.689 1.304 2.637 2.168 5.156 2.742 7.92l-3.546 1.743a24.333 24.333 0 0 0-.072-1.712c-.137-1.73-.507-3.514-1.412-5.358-2.012-4.106-4.128-3.734-6.125-2.75l-30.467 14.953-3.122-6.37 29.826-14.656c1.716-.838 3.217-1.477 4.663-1.46zm60.6 71.953 20.737 16.049-3.078 3.994-6.281-4.866-4.836 6.245c-3.144 4.075-4.902 8.307-5.29 12.681-.35 4.359.932 7.518 3.182 10.438l8.636-11.184-6.4-4.946 3.136-4.054 6.416 4.954 9.217-11.92 7.308 5.647-33.715 43.604-7.31-5.664 12.257-15.848-5.49-.074c-1.967-1.96-3.302-4.658-4.024-8.063-.723-3.427-.588-6.2.403-8.345-1.781 1.55-4.434 2.348-7.92 2.527-3.495.149-6.476-.486-8.92-1.924l-1.475-5.528c3.472 1.587 7.264 1.618 11.377.128 4.12-1.468 7.779-4.24 10.93-8.353l4.858-6.252-6.81-5.26zm311.003 6.579 13.33 18.001c2.176 2.973 3.822 5.752 4.932 8.338 1.103 2.608 1.714 4.955 1.803 7.049l-6.974 5.149c-.141-2.303-.864-4.583-2.228-6.9-1.363-2.28-3.285-5.09-5.743-8.412l-9.866-13.345-27.173 20.102-3.056-4.135zM213.74 534.004l7.31 5.663-33.715 43.602-7.317-5.663zm276.632 8.106 13.62 18.56 15.997-11.675 3.003 4.075-42.597 31.339-3.01-4.068 7.436-5.514-13.636-18.537 7.623-5.634 13.62 18.554 3.942-2.907-13.627-18.56zm-58.012 7.175 4.738 12.674 7.472-2.794 1.804 4.8-7.474 2.8 4.919 13.113-9.233 3.443-11.452-30.586zm-189.88 1.588 42.201 14.417-1.654 4.843-16.422-5.596-.111.306c-1.267 3.845-.232 7.935 3.21 12.316 3.42 4.389 7.504 7.407 12.213 9.053l-4.888 2.422c-3.927-1.334-8.465-3.898-12.101-7.124-3.636-3.234-5.707-6.318-6.176-9.253-2.16 2.078-5.67 3.286-10.513 3.591-4.866.306-10.037-.463-13.987-1.826l-2.39-4.887c4.806 1.572 9.872 1.69 15.245.305 5.364-1.364 8.71-3.986 10.02-7.793l.097-.328-16.406-5.603zm163.183 6.9 2.011 5.37 11.78-4.41 1.773 4.635-5.819 2.19c3.629 1.095 6.474 3.443 7.711 6.759 2.437 6.571-2.353 14.44-10.72 17.598-8.406 3.137-17.19.358-19.656-6.22-1.222-3.31-.612-6.953 1.347-10.142l-5.767 2.16-1.757-4.656 11.802-4.433-2.028-5.358zm-68.088 11.198h9.314v14.97h4.374v-14.97h9.328v55.115h-9.328v-34.998h-4.374v34.998h-9.314v-19.53c-1.564.611-2.682 1-3.942 1.364-1.274.388-2.793.566-4.596.566h-13.212c-2.071 0-3.724-.543-4.954-1.601-1.222-1.066-1.81-2.49-1.81-4.256v-29.587h23.708v5.126h-14.023v25.192h10.655c1.692 0 3.153-.119 4.36-.372 1.222-.238 3.025-.739 3.814-1.044zm69.579 1.151c-.69.008-1.38.133-2.05.384-3.547 1.341-5.171 5.782-3.637 9.917 1.58 4.158 5.715 6.43 9.261 5.089 3.562-1.326 5.187-5.767 3.66-9.917-1.266-3.366-4.244-5.507-7.234-5.473zm-179.83 6.873 53.371 18.233-1.631 4.798-22.011-7.51-6.17 18.068-9.32-3.181 6.176-18.084-22.054-7.525zm217.352 5.157 7.01 18.73-9.209 3.443-5.245-13.985-32.904 12.331-1.774-4.746z" style="fill:#b0bbc0;fill-opacity:1;stroke:none;stroke-width:7.45095"/><path d="M286.901 265.821c-7.83 18.613-32.687 49.75-32.687 49.75-12.905 16.996-28.18 38.328-33.56 66.508-11.392 78.004 37.062 118.194 66.754 129.52-23.389-12.414-64.51-48.015-54.653-112.383 4.814-23.933 17.6-48.513 46.636-79.77 0 0 34.282-35.742 38.894-66.798 0 0 16.302-69.435-47.865-112.1 32.24 40.146 32.873 86.558 16.481 125.273" style="fill:#5ec232;fill-opacity:1;stroke:none;stroke-width:7.45095"/><path d="M329.014 277.653c-10.148 24.283-36.71 48.625-36.71 48.625-41.95 40.489-47.33 64.503-47.33 64.503-9.648 29.044-4.984 60.83 10.231 85.366 13.978 22.122 34.595 34.93 55.085 39.87-15.573-5.372-46.345-23.702-48.998-63.892-1.788-24.119 11.736-54.675 50.786-85.41 0 0 18.806-14.47 34.975-35.46 10.394-14.387 18.896-31.323 22.07-52.879 0 0 5.357-27.345-7.213-61.716-6.125-17.465-18.717-38.06-34.788-52.417 29.729 57.38 1.892 113.41 1.892 113.41" style="fill:#b0bbc0;fill-opacity:1;stroke:none;stroke-width:7.45095"/><path d="M561.736 361.293v198.781c-.218 13.81-1.431 29.229-1.431 29.229-2.434 23.535-7.291 32.297-7.291 32.297-14.833 35.387-41.627 50.685-41.627 50.685-73.685 49.753-147.36 8.613-147.36 8.613 92.094 54.65 181.744 4.293 181.744 4.293 63.075-36.569 80.29-86.331 84.92-113.105 0 0 1.68-11.564 1.67-32.516V361.293ZM401.182 583.281v30.877c0 2.007-.496 3.478-1.53 4.422-1.023.934-2.612 1.42-4.828 1.42-1.212 0-2.453-.219-3.685-.566-1.232-.368-2.565-.944-3.955-1.729v5.723a20.2 20.2 0 0 0 4.502 1.4c1.53.298 3.119.447 4.728.447 4.58 0 7.978-.914 10.184-2.742 2.185-1.858 3.306-4.698 3.306-8.523V583.28zm18.597 0v41.428h25.82v-5.195h-17.117v-14.008h15.668v-4.928h-15.668v-12.27H445.6v-5.027zm46.297 0v30.877c0 2.007-.528 3.478-1.54 4.422-1.024.934-2.653 1.42-4.829 1.42-1.192 0-2.434-.219-3.686-.566-1.241-.368-2.572-.944-3.953-1.729v5.723a21.1 21.1 0 0 0 4.51 1.4c1.51.298 3.09.447 4.729.447 4.57 0 7.946-.914 10.152-2.742 2.215-1.858 3.299-4.698 3.299-8.523V583.28zm18.467 0v30.342c0 4.014 1.362 6.943 4.103 8.81 2.723 1.809 7.015 2.753 12.916 2.753 5.902 0 10.212-.944 12.954-2.752 2.742-1.868 4.074-4.797 4.074-8.81V583.28h-8.604v30.8c0 1.976-.656 3.456-2.056 4.39-1.371.943-3.497 1.4-6.338 1.4-2.871 0-5.008-.457-6.36-1.4-1.4-.934-2.076-2.414-2.076-4.39v-30.8zm-42.092 57.026c-2.712 0-4.719.674-5.98 2.005-1.292 1.352-1.938 3.449-1.938 6.27 0 2.762.525 4.73 1.569 5.922 1.023 1.192 2.724 1.777 5.058 1.777.755 0 1.47-.1 2.125-.308a6.849 6.849 0 0 0 1.899-.963c-.825 1.331-1.78 2.742-2.913 4.332a300.296 300.296 0 0 1-5.076 6.566h5.147c3.14-4.212 5.255-7.53 6.328-9.955 1.073-2.424 1.62-4.797 1.62-7.062 0-2.871-.647-5.029-1.948-6.46-1.292-1.4-3.258-2.124-5.89-2.124zm39.947.058c-2.692 0-4.719.587-6.08 1.809-1.37 1.222-2.037 3.03-2.037 5.414v.795c0 .169.021.33.06.488h4.42v-.875c0-1.719.27-2.921.776-3.646.517-.696 1.401-1.053 2.613-1.053 1.103 0 1.927.278 2.453.805.517.546.795 1.371.795 2.484 0 .805-.198 1.698-.605 2.691-.437.984-1.054 2.066-1.879 3.239l-9.408 13.392h16.025v-3.199h-9.199l6.367-8.256c1.282-1.679 2.206-3.11 2.762-4.332.526-1.212.795-2.383.795-3.535 0-1.937-.685-3.458-2.096-4.57-1.39-1.093-3.318-1.65-5.762-1.65zm-63.582.338v3.022h4.362v22.183h4.41v-25.205zm38.338 0-2.324 12.072c.576-.139 1.19-.22 1.816-.26.606-.069 1.332-.099 2.176-.099 2.146 0 3.757.368 4.85 1.152 1.053.775 1.61 1.939 1.61 3.479 0 2.036-.528 3.576-1.59 4.59-1.044 1.053-2.613 1.558-4.72 1.558-.794 0-1.59-.078-2.355-.297a10.091 10.091 0 0 1-2.314-.865l-1.201 3c1.043.427 2.085.716 3.158.914 1.083.189 2.195.29 3.357.29 3.2 0 5.693-.796 7.461-2.385 1.778-1.61 2.662-3.825 2.662-6.686 0-2.245-.725-4.024-2.205-5.375-1.44-1.351-3.387-2.027-5.771-2.027-.298 0-.627 0-.994.04-.388.04-.795.07-1.282.13l1.371-6.141h8.633v-3.09zm-14.853 2.643c1.271 0 2.197.398 2.803 1.213.576.814.873 2.095.873 3.843 0 1.779-.288 3.06-.854 3.866-.546.794-1.47 1.193-2.723 1.193-1.281 0-2.223-.358-2.73-1.104-.576-.755-.826-2.056-.826-3.904 0-1.798.29-3.11.826-3.904.546-.805 1.399-1.203 2.63-1.203z" style="fill:#254aa5;fill-opacity:1;stroke:none;stroke-width:9.9346" transform="scale(.75)"/><path d="M262.254 502.21s-31.056-19.596-44.475-61.276c0 0-10.864-32.092-4.5-64.555 0 0 4.247-24.522 15.952-45.72 0 0 8.382-14.968 18.441-27.896 0 0 9.195-12.57 15.617-24.432 0 0 27.554-43.997-6.355-88.003 0 0 13.799 35.683-4.21 68.922 0 0-8.464 14.514-17.666 28.276 0 0-20.2 29.282-26.116 49.146 0 0-14.835 35.676-4.575 81.082 0 0 9.56 57.804 57.887 84.456" style="fill:#1ab5f1;fill-opacity:1;stroke:none;stroke-width:7.45095"/><path d="M436.947 505.047c-3.179 0-6.488.199-9.806.566-3.259.358-6.655.914-10.082 1.63v47.726c3.944-.596 7.52-1.064 10.59-1.352l6.09-.428c2.97-.079 5.702.031 8.136.27l.258.04s.11-.001.219.019c4.47.536 8.195 1.688 11.056 3.476a10.054 10.054 0 0 1 2.324 2.256v-46.105a14.98 14.98 0 0 0-4.29-4.522l-.178-.139-.498-.367c-1.56-1.053-3.607-1.848-6.09-2.365l-3.338-.506zm40.276 0-4.371.2-3.36.505c-2.464.517-4.5 1.312-6.1 2.365l-.466.367s-.19.139-.21.139a15.318 15.318 0 0 0-4.28 4.522v46.105c.655-.835 1.41-1.63 2.343-2.266 2.861-1.778 6.558-2.93 11.069-3.466 0 0 .11-.02.209-.02 0 0 .198-.02.228-.039a66.315 66.315 0 0 1 8.166-.27l6.08.428c3.06.288 6.626.756 10.6 1.352v-47.727c-3.437-.715-6.836-1.271-10.084-1.629-3.328-.367-6.645-.566-9.824-.566zm-62.858 5.414c-.963 1.54-4.34 6.835-4.42 6.975v45.927c.974-1.639 4.34-7.242 4.42-7.38zm85.447 0v45.521c.07.14 3.439 5.742 4.442 7.381v-45.927c-.11-.14-3.468-5.435-4.442-6.975zm-16.947.846.278.148s-.685.755-.715 3.318c0 0 .098 2.384-.985 5.344 0 0-2.076 5.107-4.957 7.422 0 0 4.73-1.937 6.06-2.97 0 0 1.83-1.124 2.038-5.008h.486s.268.795-.07 3.17c0 0 3.2-1.49 5.555-6.776 0 0 .465-1.39-.14-2.752l.228-.277s.725 1.27.666 1.926c0 0 .655-1.57 2.066-1.887l.11.277s-1.47.885-1.987 2.594c0 0-3.08 8.95-12.855 12.418 0 0 1.689.397 5.593 5.047 0 0 1.877 2.573 5.086 4.213 0 0-5.524 10.908-6.07 12.19 0 0-4.003-3.032-6.785-10.76 0 0-.418-1.005-1.947-1.005 0 0-4.36.498-6.14.637 0 0-.973.626-1.798-.02l-.646-.675s-.148.039-.436-.19c0 0-.598-.436-.598-1.072 0 0-.048-.566.389-.924 0 0 7.351-5.037 8.623-6.865 0 0-.05.258.348-.766 0 0-2.147-.554-3.489-1.458 0 0-1.559-1.043-1.52-2.424l.378-.032s0 1.66 3.18 2.624c0 0-.775-1.063-1.034-2.325 0 0 .22-.09.428-.09 0 0 .914 2.673 2.434 2.743 0 0 2.98-1.848 3.209-3.924 0 0-1.242-.765-1.739-3.895l.428-.218s.487 2.94 1.947 2.87c0 0 1.34-.04 2.164-2.493 0 0 .677-1.777.647-4.122 0 0-.05-.835-.309-2.017l.309-.486s.299.794.398 1.51c0 0 .1-1.47 1.172-3.02zm-73.219 2.382-4.55.26v56.547l43.793-3.039s2.96 2.124 7.52 2.502c0 0 .943.05 1.35 0 4.55-.378 7.552-2.502 7.552-2.502l43.78 3.04v-56.548l-4.548-.26 2.016 3.2v51.222l-42.133-2.71c-1.928 1.32-4.382 2.284-7.332 2.423-2.95-.139-5.415-1.102-7.352-2.424l-42.101 2.711V516.89zm28.086.21c1.958 2.582 6.587 8.672 10.243 12.765 0 0-5.256 13.183-2.643 20.455H428.264c2.612-7.272-2.623-20.455-2.623-20.455 3.576-4.014 8.116-9.964 10.103-12.627v15.965a2.71 2.71 0 0 0-1.668 2.504 2.682 2.682 0 0 0 2.682 2.703c1.47 0 2.683-1.213 2.683-2.703a2.703 2.703 0 0 0-1.709-2.504z" style="fill:#b0bbc0;fill-opacity:1;stroke:none;stroke-width:9.9346" transform="scale(.75)"/><path d="m337.687 422.232.09.097c.76.804 2.048 1.37 3.732 1.743-.44-2.481-1.646-4.336-3.68-5.454-2.176-1.177-5.685-1.788-10.387-1.788-2.168 0-4.5.126-7.138.387-2.57.261-5.26.649-8.025 1.133-.111.179-3.025 5.059-3.48 5.797.977-.06 28.888-1.915 28.888-1.915zM347.79 418.618c-2.019 1.118-3.24 2.973-3.673 5.454 1.692-.372 2.996-.939 3.748-1.743l.082-.097s27.911 1.855 28.88 1.915c-.44-.738-3.375-5.618-3.487-5.797a111.523 111.523 0 0 0-8.002-1.133c-2.638-.26-4.97-.387-7.146-.387-4.709 0-8.21.61-10.401 1.788z" style="fill:#bbc5cc;stroke:none;stroke-width:7.45095"/><g style="fill:#b0bbc0;fill-opacity:1"><g style="fill:#b0bbc0;fill-opacity:1"><path d="M414.647 352.342c1.345-.02 1.681-1.603 1.691-1.631-.037 0-1.662.254-1.691 1.631zM414.683 350.655c1.318.03 1.727-1.536 1.739-1.562-.022.001-1.698.184-1.739 1.562h-.006zM414.772 348.973c1.328.083 1.763-1.467 1.79-1.494v-.002c-.018.003-1.711.121-1.79 1.496zM414.918 347.293c1.345.137 1.818-1.4 1.853-1.422-.043 0-1.695.053-1.853 1.422v.005zM415.13 345.623c1.332.188 1.902-1.32 1.914-1.347h-.003c-.035-.006-1.681-.012-1.911 1.347zM415.414 343.963c1.299.236 1.961-1.243 1.97-1.271-.027-.006-1.687-.083-1.97 1.267zM415.77 342.315c1.294.285 1.989-1.17 2.015-1.196-.018 0-1.715-.15-2.015 1.192zM416.188 340.682c1.288.34 2.021-1.092 2.052-1.114h.005-.005c-.024-.003-1.7-.222-2.052 1.114zM416.663 339.065c1.291.398 2.065-1.013 2.097-1.032v-.002.002c-.036-.011-1.667-.28-2.097 1.032zM417.203 337.467c1.269.447 2.12-.924 2.141-.945-.034-.014-1.646-.342-2.141.945zM417.809 335.893c1.234.492 2.169-.828 2.179-.856h.004-.004c-.025-.01-1.638-.41-2.179.856zM418.483 334.349c1.209.537 2.187-.751 2.208-.773-.017-.004-1.638-.485-2.208.773zM419.215 332.83c1.193.588 2.201-.672 2.239-.681-.02-.01-1.63-.555-2.239.681zM420.003 331.34c1.186.647 2.224-.587 2.262-.598-.033-.014-1.59-.613-2.262.598zM420.85 329.887c1.152.684 2.255-.493 2.279-.512-.033-.018-1.546-.659-2.279.508zM421.748 328.457c1.127.729 2.285-.39 2.311-.414-.028-.014-1.523-.717-2.314.414zM422.71 327.074c1.08.764 2.301-.299 2.323-.322-.019-.012-1.504-.792-2.323.322zM423.733 325.732c1.047.805 2.289-.223 2.327-.232-.015-.008-1.486-.863-2.327.232h-.003.003-.003zM424.793 324.427c1.031.853 2.294-.138 2.338-.146-.026-.012-1.446-.91-2.338.146zM425.912 323.164c.996.904 2.294-.051 2.335-.054-.032-.024-1.395-.956-2.335.054zM427.073 321.942c.964.937 2.314.06 2.338.042-.024-.024-1.346-1.005-2.338-.042h-.003zM428.282 320.768c.918.967 2.32.156 2.338.14h.004-.004.004-.004c-.018-.02-1.311-1.062-2.338-.14zM429.543 319.652c.872.995 2.3.234 2.334.231v-.006c-.02-.014-1.283-1.125-2.334-.227zM430.846 318.582c.832 1.031 2.275.316 2.32.318-.016-.013-1.247-1.19-2.32-.322zM432.189 317.557c.8 1.077 2.26.4 2.299.41-.019-.026-1.188-1.222-2.299-.41h-.003zM433.565 316.591c.763 1.109 2.25.499 2.283.494h.005c-.026-.028-1.128-1.247-2.288-.494zM434.98 315.674c.717 1.137 2.24.601 2.267.594-.019-.028-1.075-1.293-2.267-.594zM436.44 314.824c.655 1.141 2.212.692 2.235.68-.015-.021-1.028-1.348-2.235-.68h-.004zM437.924 314.028c.613 1.175 2.176.763 2.214.773-.016-.018-.991-1.405-2.214-.773zM439.442 313.294c.57 1.208 2.137.837 2.177.855-.016-.025-.928-1.44-2.177-.855zM440.982 312.615c.528 1.244 2.104.922 2.145.935v.005-.005c-.021-.034-.863-1.454-2.145-.935v-.002zM442.551 311.996c.478 1.258 2.074 1.029 2.103 1.024l.003.002v-.002c-.017-.03-.802-1.472-2.106-1.024l-.002-.002v.002zM444.147 311.442c.417 1.26 2.032 1.125 2.06 1.117-.014-.03-.745-1.518-2.06-1.117zM445.761 310.963c.365 1.271 1.985 1.184 2.016 1.191-.006-.013-.689-1.571-2.016-1.191zM447.398 310.545c.321 1.291 1.925 1.244 1.96 1.264v.002-.002c-.007-.023-.626-1.6-1.96-1.264zM449.041 310.185c.269 1.323 1.877 1.316 1.907 1.337h.007-.007c-.006-.038-.554-1.596-1.907-1.337zM450.699 309.885c.219 1.326 1.834 1.416 1.859 1.42-.009-.029-.493-1.605-1.859-1.42zM452.368 309.66c.165 1.31 1.775 1.499 1.802 1.499-.008-.027-.429-1.643-1.802-1.499zM454.047 309.508c.11 1.319 1.715 1.544 1.741 1.56-.003-.017-.368-1.68-1.741-1.56zM455.729 309.41c.059 1.344 1.654 1.594 1.681 1.63h.003c-.007-.038-.304-1.685-1.684-1.63zM457.413 309.379c.01 1.341 1.59 1.682 1.617 1.686 0-.035-.237-1.661-1.617-1.686zM459.102 309.41c-.045 1.334 1.519 1.754 1.548 1.762-.002-.033-.169-1.679-1.548-1.762zM460.782 309.521c-.093 1.317 1.449 1.799 1.477 1.815 0-.019-.109-1.709-1.477-1.815v-.005zM462.46 309.694c-.145 1.326 1.373 1.831 1.402 1.861v.006-.006c0-.022-.035-1.711-1.402-1.861v-.004zM464.126 309.928c-.201 1.332 1.308 1.887 1.329 1.914.01-.036.031-1.688-1.329-1.914zM465.783 310.218c-.249 1.318 1.231 1.964 1.257 1.978.004-.034.094-1.679-1.252-1.978v-.005.005zM467.435 310.583c-.299 1.286 1.142 2.024 1.169 2.031v.001-.001c.006-.027.161-1.684-1.169-2.031v-.001.001l-.001-.001zM469.06 311.023c-.348 1.275 1.069 2.043 1.093 2.067v.003-.003c.001-.018.236-1.695-1.093-2.067h-.002zM470.67 311.52c-.406 1.269.99 2.073 1.01 2.107h.002c.001-.025.306-1.685-1.012-2.107zM472.263 312.077c-.464 1.27.906 2.111.925 2.144.01-.033.363-1.651-.925-2.144v-.002zM473.831 312.695c-.513 1.243.814 2.165.836 2.184v.002-.002c.009-.031.423-1.625-.836-2.185zM475.372 313.378c-.556 1.208.718 2.204.745 2.22.014-.029.496-1.614-.745-2.22zM476.881 314.127c-.6 1.182.638 2.223.663 2.246.005-.018.559-1.611-.663-2.246h-.002zM478.355 314.936c-.64 1.161.567 2.226.581 2.265.004-.015.635-1.596-.581-2.265zM479.81 315.799c-.703 1.143.479 2.242.485 2.286v-.006c.011-.028.681-1.552-.485-2.28v-.004zM481.229 316.711c-.75 1.119.374 2.276.391 2.3.019-.028.733-1.509-.391-2.3zM482.603 317.684c-.785 1.084.279 2.299.303 2.318v.006-.006c.016-.025.793-1.475-.303-2.318zM483.938 318.711c-.818 1.037.185 2.313.208 2.334v.002-.002.002-.002c.006-.021.858-1.459-.208-2.334zM485.234 319.795c-.861 1.009.107 2.303.114 2.338.011-.018.931-1.445-.114-2.338v-.004zM486.48 320.923c-.904.98.02 2.295.03 2.339.012-.021.981-1.403-.03-2.339zM487.69 322.099c-.952.956-.063 2.29-.063 2.333.024-.026 1.025-1.346.063-2.333zM488.852 323.322c-.994.911-.172 2.299-.158 2.327.026-.02 1.067-1.293.158-2.327zM489.964 324.582c-1.014.874-.27 2.309-.255 2.333.022-.024 1.115-1.26.255-2.333zM491.016 325.9c-1.037.821-.35 2.287-.344 2.316v.003-.003c.018-.021 1.187-1.224.344-2.316zM492.022 327.248c-1.075.785-.43 2.266-.437 2.304h.007c.011-.011 1.244-1.19.43-2.304zM492.972 328.644c-1.11.747-.513 2.238-.52 2.278v.002-.002c.03-.02 1.285-1.13.52-2.278zM493.875 330.065c-1.147.71-.607 2.224-.607 2.257.037-.021 1.3-1.062.607-2.255zM494.724 331.525c-1.178.66-.713 2.209-.707 2.233.028-.02 1.339-1.006.707-2.233v-.001zM495.5 333.018c-1.177.603-.805 2.181-.796 2.204v.006-.006c.028-.009 1.397-.958.796-2.204zM496.215 334.543c-1.197.555-.869 2.137-.877 2.172v.002-.002.002-.002c.018-.009 1.455-.916.877-2.172zM496.877 336.096c-1.236.512-.947 2.096-.964 2.133.023-.014 1.491-.854.964-2.133zM497.476 337.672c-1.268.465-1.025 2.056-1.036 2.093v.002-.002c.026-.016 1.492-.791 1.036-2.093zM498.017 339.27c-1.28.413-1.132 2.016-1.13 2.047v.005-.005.005l.003-.005c.03-.01 1.511-.726 1.127-2.047zM498.487 340.891c-1.273.358-1.219 1.973-1.214 2.004.03-.013 1.556-.669 1.214-2.004v-.002zM498.892 342.524c-1.288.307-1.281 1.925-1.29 1.95v.006c.018-.009 1.6-.611 1.29-1.956zM499.228 344.174c-1.31.261-1.333 1.871-1.361 1.9l-.002.002h.002v.001-.001c.028-.006 1.627-.546 1.361-1.898zM499.508 345.84c-1.335.206-1.417 1.812-1.431 1.843.033-.011 1.616-.478 1.431-1.843zM499.723 347.511c-1.334.151-1.509 1.757-1.509 1.785h-.004.004c.027-.003 1.629-.412 1.509-1.785zM499.863 349.191c-1.316.096-1.581 1.695-1.583 1.727.025-.007 1.661-.353 1.583-1.727v-.001.001-.001zM499.935 350.873c-1.324.045-1.616 1.632-1.642 1.666.012-.005 1.708-.285 1.642-1.666zM499.947 352.559c-1.346-.004-1.667 1.569-1.696 1.597h-.005.005c.032 0 1.683-.218 1.696-1.597zM499.899 354.241c-1.34-.057-1.756 1.505-1.762 1.534.029 0 1.672-.156 1.762-1.529zM499.786 355.924c-1.324-.107-1.831 1.432-1.833 1.455l-.002.004h.002c.029 0 1.684-.09 1.833-1.459v-.004zM499.595 357.596c-1.315-.157-1.869 1.361-1.888 1.388.019 0 1.716-.018 1.888-1.388zM499.341 359.264c-1.321-.215-1.901 1.289-1.937 1.312.028.004 1.713.051 1.937-1.312zM499.025 360.92c-1.318-.27-1.953 1.21-1.982 1.234h-.002.002-.002.002c.034.005 1.683.114 1.982-1.234zM498.647 362.563c-1.301-.318-2.022 1.125-2.033 1.152v.004-.004c.03.008 1.666.179 2.033-1.152zM498.201 364.188c-1.274-.364-2.074 1.043-2.088 1.072.03.004 1.677.245 2.088-1.072zM497.684 365.793c-1.262-.415-2.096.964-2.123.988.017 0 1.684.32 2.123-.988zM497.105 367.375c-1.249-.464-2.115.887-2.157.904.025.008 1.671.392 2.157-.904zM496.466 368.936c-1.242-.524-2.143.804-2.185.821.037.012 1.635.444 2.185-.816zM495.774 370.475c-1.214-.572-2.197.705-2.219.727v.001c.035.008 1.601.502 2.219-.728zM495.021 371.979c-1.188-.614-2.246.612-2.262.637.031.012 1.593.571 2.262-.637zM494.193 373.449c-1.152-.65-2.255.529-2.273.545.015.014 1.578.647 2.273-.545zM493.311 374.891c-1.126-.702-2.254.445-2.293.457.018.004 1.572.716 2.293-.457zM492.382 376.29c-1.11-.753-2.268.366-2.307.374.029.012 1.525.764 2.307-.374zM491.395 377.662c-1.085-.804-2.284.266-2.312.278h-.006.006c.028.027 1.468.813 2.312-.278zM490.362 378.99c-1.052-.841-2.308.165-2.334.185.026.019 1.442.864 2.334-.185h.001zM489.269 380.272c-1.003-.864-2.326.072-2.339.093.022.016 1.413.93 2.339-.093zM488.12 381.509c-.959-.904-2.305-.009-2.337-.001v.002c.017.013 1.391 1.002 2.337-.001h.006-.006.006zM486.935 382.705c-.938-.952-2.295-.092-2.335-.091.014.013 1.351 1.053 2.335.092zM485.695 383.852c-.9-1.001-2.281-.178-2.321-.182v.003c.023.024 1.295 1.095 2.321.179h.01zM484.426 384.947c-.869-1.023-2.29-.275-2.322-.267.024.029 1.241 1.131 2.322.273zM483.103 386.004c-.82-1.062-2.286-.384-2.313-.374.02.026 1.201 1.183 2.313.374zM481.745 386.99c-.777-1.077-2.275-.47-2.301-.46.011.024 1.161 1.244 2.301.46zM480.339 387.929c-.726-1.112-2.236-.546-2.273-.547.01.011 1.117 1.302 2.273.547zM478.9 388.81c-.689-1.15-2.207-.622-2.249-.634.017.023 1.064 1.34 2.249.634zM477.432 389.636c-.648-1.179-2.184-.713-2.221-.716.022.034 1.004 1.355 2.221.716zM475.936 390.412c-.593-1.205-2.164-.82-2.189-.812h-.006.006c.011.027.941 1.388 2.189.812zM474.406 391.115c-.538-1.205-2.133-.913-2.162-.903.011.023.895 1.44 2.162.907zM472.849 391.754c-.497-1.227-2.093-.979-2.124-.984h-.002.002-.002.002c.006.02.839 1.496 2.124.984zM471.261 392.335c-.445-1.257-2.045-1.048-2.077-1.064v.003c.006.016.781 1.525 2.077 1.061h.005-.005.005zM469.659 392.857c-.404-1.29-1.999-1.123-2.032-1.139h-.001.001c.008.034.711 1.529 2.032 1.139zM468.039 393.318c-.351-1.299-1.959-1.231-1.993-1.228.011.034.65 1.546 1.993 1.228zM466.396 393.709c-.286-1.293-1.906-1.318-1.939-1.312.008.027.589 1.584 1.939 1.312v.002zM464.746 394.029c-.243-1.302-1.861-1.375-1.889-1.389.006.022.531 1.638 1.889 1.389zM463.083 394.281c-.194-1.32-1.802-1.424-1.833-1.449.008.025.463 1.649 1.825 1.453h.008zM461.407 394.481c-.137-1.341-1.742-1.506-1.775-1.52.006.041.396 1.634 1.775 1.52zM459.728 394.618c-.09-1.343-1.683-1.6-1.712-1.603 0 .032.332 1.647 1.707 1.603zM458.04 394.672c-.036-1.319-1.618-1.658-1.647-1.664l-.004-.002.002.002h.002c0 .021.27 1.679 1.647 1.664zM456.354 394.662c.018-1.332-1.553-1.694-1.584-1.72.005.017.208 1.71 1.584 1.72zM454.673 394.592c.067-1.348-1.489-1.74-1.517-1.774 0 .039.137 1.688 1.517 1.774zM452.992 394.461c.125-1.335-1.416-1.824-1.442-1.84-.004.035.074 1.682 1.442 1.84zM451.319 394.265c.169-1.314-1.335-1.899-1.37-1.904.002.025.004 1.692 1.37 1.904zM449.656 393.991c.225-1.303-1.266-1.932-1.29-1.955h-.002.002c-.002.022-.069 1.716 1.288 1.955zM448.007 393.655c.273-1.305-1.197-1.96-1.221-1.999-.006.026-.134 1.711 1.216 1.999zM446.365 393.258c.331-1.306-1.114-2.007-1.135-2.039-.002.036-.197 1.674 1.13 2.039zM444.743 392.799c.381-1.29-1.021-2.077-1.051-2.088-.007.032-.263 1.658 1.047 2.088zM443.138 392.272c.429-1.254-.935-2.123-.961-2.139h-.003.003c-.007.031-.33 1.666.961 2.139zM441.565 391.674c.478-1.232-.857-2.141-.88-2.166v-.003.003c-.002.017-.407 1.66.88 2.166zM440.016 391.019c.526-1.222-.787-2.161-.801-2.199-.004.023-.467 1.653.801 2.199v.002-.002.002zM438.484 390.306c.581-1.214-.694-2.187-.709-2.228-.016.041-.528 1.617.709 2.228v.007-.007.007zM436.986 389.534c.628-1.185-.597-2.231-.618-2.251v.005c-.017.028-.587 1.57.618 2.246zM435.517 388.705c.676-1.154-.499-2.265-.524-2.283-.011.027-.645 1.552.524 2.283zM434.089 387.811c.707-1.116-.417-2.278-.432-2.3h-.002c-.01.022-.717 1.546.434 2.3zM432.694 386.862c.758-1.09-.333-2.278-.341-2.317-.009.017-.796 1.535.341 2.317zM431.34 385.863c.806-1.07-.253-2.285-.255-2.326-.015.026-.842 1.487.255 2.326zM430.022 384.809c.853-1.041-.156-2.295-.165-2.33-.025.033-.883 1.437.165 2.33v.002-.002.002zM428.744 383.709c.893-1.008-.05-2.31-.068-2.336-.023.026-.936 1.393.068 2.336zM427.516 382.554c.917-.954.048-2.321.026-2.343-.019.023-.998 1.367-.026 2.343zM426.342 381.354c.949-.916.121-2.309.111-2.341-.015.014-1.065 1.343-.111 2.341zM425.202 380.103c.995-.88.206-2.29.206-2.328-.012.013-1.125 1.303-.206 2.328zM424.121 378.813c1.036-.85.287-2.274.293-2.318-.023.027-1.162 1.25-.293 2.318zM423.077 377.486c1.076-.814.398-2.276.389-2.3-.027.021-1.187 1.182-.389 2.3zM422.097 376.12c1.1-.768.492-2.268.483-2.295-.023.023-1.236 1.143-.483 2.295zM421.179 374.71c1.112-.716.581-2.247.571-2.274v-.002.002-.002.002c-.022.014-1.3 1.098-.571 2.274zM420.312 373.262c1.142-.674.653-2.212.662-2.246l-.009.001c-.008.01-1.355 1.055-.653 2.245zM419.502 371.78c1.181-.63.731-2.176.744-2.213-.025.014-1.393 1-.744 2.213zM418.747 370.274c1.214-.589.815-2.144.829-2.187-.037.022-1.409.938-.829 2.187zM418.048 368.743c1.235-.542.931-2.122.924-2.153-.032.012-1.44.873-.924 2.152zM417.421 367.174c1.236-.479 1.017-2.083 1.006-2.11l.004-.001h-.004c-.026.011-1.478.814-1.006 2.111zM416.859 365.587c1.25-.437 1.081-2.04 1.092-2.075-.018.012-1.536.771-1.092 2.075zM416.357 363.979c1.278-.388 1.146-1.992 1.166-2.026h.002-.002c-.02.01-1.564.703-1.166 2.026v.001zM415.916 362.348c1.309-.335 1.223-1.94 1.246-1.973h-.004c-.036.013-1.565.635-1.242 1.973zM415.538 360.708c1.317-.285 1.329-1.895 1.326-1.925v-.002.002-.002.002c-.033.006-1.581.571-1.328 1.926zM415.23 359.053c1.305-.231 1.414-1.845 1.404-1.875-.023.006-1.611.508-1.404 1.875zM414.992 357.382c1.311-.177 1.459-1.782 1.479-1.818-.02.007-1.662.452-1.479 1.818zM414.821 355.707c1.33-.126 1.507-1.724 1.541-1.758-.036.008-1.671.385-1.541 1.758zM414.709 354.027c1.334-.076 1.59-1.668 1.6-1.697-.034.004-1.65.317-1.607 1.697z" style="fill:#b0bbc0;fill-opacity:1;stroke:none" transform="translate(-3069.82 -2285.467) scale(7.45095)"/></g><g style="fill:#b0bbc0;fill-opacity:1"><path d="M414.724 352.643c-1.346.027-1.633-1.626-1.639-1.663v-.001.001c.034.007 1.653.356 1.639 1.657zM414.742 351.017c-1.367-.018-1.586-1.684-1.583-1.72.048.014 1.603.42 1.583 1.72v.001zM414.815 349.396c-1.352-.072-1.543-1.743-1.526-1.779.035.016 1.591.477 1.526 1.779v.004zM414.939 347.781c-1.34-.121-1.461-1.798-1.461-1.839h-.002.002c.028.015 1.603.543 1.461 1.839zM415.119 346.168c-1.336-.172-1.371-1.851-1.371-1.887.033.013 1.577.606 1.371 1.887h.002zM415.379 344.567c-1.345-.227-1.311-1.9-1.303-1.941.042.02 1.524.655 1.303 1.941zM415.701 342.976c-1.332-.271-1.267-1.954-1.238-1.984v-.004.004c.04.014 1.492.709 1.238 1.984zM416.068 341.399c-1.304-.32-1.181-2.002-1.163-2.038.025.018 1.497.782 1.163 2.038zM416.493 339.834c-1.292-.371-1.079-2.039-1.072-2.073.031.016 1.468.836 1.072 2.071v.002l.001.002zM416.99 338.292c-1.3-.431-.995-2.078-.989-2.116.035.023 1.416.885.989 2.116v.003zM417.543 336.772c-1.27-.481-.937-2.127-.907-2.156.042.027 1.355.931.913 2.156zM418.159 335.268c-1.241-.52-.868-2.168-.836-2.188.024.02 1.343.987.836 2.188zM418.823 333.79c-1.222-.567-.763-2.184-.755-2.222v-.001l.002.001c.026.024 1.325 1.051.753 2.222v.003zM419.539 332.333c-1.198-.614-.664-2.203-.656-2.235.026.021 1.284 1.097.656 2.235zM420.323 330.918c-1.191-.674-.593-2.239-.572-2.269.035.03 1.219 1.136.574 2.269zM421.159 329.527c-1.156-.712-.52-2.269-.487-2.289h.002c.029.032 1.159 1.176.485 2.289zM422.043 328.168c-1.117-.745-.445-2.289-.409-2.31.02.023 1.141 1.232.409 2.31zM422.975 326.838c-1.094-.785-.331-2.291-.319-2.318v-.002.002c.024.027 1.107 1.279.319 2.318zM423.955 325.551c-1.073-.84-.235-2.291-.221-2.328.023.031 1.046 1.319.223 2.328zM424.998 324.305c-1.046-.883-.166-2.312-.139-2.338.026.039.977 1.343.139 2.338zM426.076 323.095c-.999-.911-.09-2.326-.052-2.341.026.035.928 1.376.052 2.341v.001zM427.197 321.924c-.955-.942-.002-2.326.04-2.342v-.002.002-.002.002c.008.026.892 1.427-.04 2.342zM428.36 320.795c-.92-.978.109-2.306.13-2.336.016.032.843 1.471-.13 2.336v.002zM429.572 319.715c-.898-1.029.201-2.296.219-2.323.017.032.779 1.487-.219 2.323zM430.822 318.688c-.851-1.059.275-2.3.312-2.322.02.042.705 1.501-.312 2.322zM432.113 317.702c-.806-1.079.353-2.303.394-2.307h.002c.011.035.647 1.528-.396 2.307zM433.438 316.765c-.762-1.101.442-2.281.477-2.295.007.029.609 1.577-.477 2.295zM434.793 315.873c-.72-1.134.543-2.242.571-2.262v-.003.003c.007.028.552 1.598-.571 2.262zM436.185 315.047c-.689-1.182.631-2.218.661-2.242v-.001.001c.008.039.474 1.601-.661 2.242v.001zM437.611 314.27c-.638-1.204.703-2.215.739-2.218v-.006l.002.006v-.006.006c.01.051.402 1.598-.741 2.218v.004-.004.004zM439.064 313.552c-.587-1.212.78-2.197.821-2.195.006.032.353 1.627-.821 2.195zM440.538 312.877c-.542-1.23.873-2.141.905-2.161.002.034.303 1.667-.905 2.161zM442.036 312.262c-.492-1.258.962-2.093.997-2.11v-.003.003c0 .035.234 1.673-.997 2.11zM443.568 311.718c-.453-1.292 1.034-2.069 1.069-2.077.001.043.161 1.654-1.069 2.077h-.006zM445.109 311.23c-.393-1.296 1.108-2.049 1.151-2.039 0 .036.091 1.648-1.151 2.039h-.002zM446.671 310.795c-.345-1.299 1.186-2.002 1.227-2.005v.003c-.001.027.04 1.686-1.227 2.002zM448.251 310.411c-.299-1.312 1.264-1.928 1.299-1.94-.002.038-.027 1.693-1.299 1.94zM449.843 310.103c-.255-1.348 1.336-1.875 1.371-1.887h.005c-.005.04-.099 1.667-1.376 1.887zM451.44 309.856c-.195-1.346 1.411-1.851 1.447-1.838-.002.048-.155 1.64-1.447 1.838zM453.05 309.664c-.143-1.335 1.477-1.799 1.518-1.791-.006.026-.215 1.67-1.518 1.791zM454.667 309.528c-.09-1.345 1.548-1.713 1.584-1.724v.003c-.01.032-.276 1.668-1.58 1.721zM456.289 309.465c-.046-1.368 1.609-1.658 1.644-1.658-.009.038-.342 1.627-1.644 1.658zM457.914 309.457c.004-1.35 1.667-1.617 1.702-1.603-.006.046-.396 1.607-1.702 1.606l-.004-.003zM459.534 309.508c.054-1.339 1.73-1.551 1.762-1.544-.007.028-.464 1.63-1.762 1.544zM461.153 309.611c.108-1.336 1.78-1.457 1.821-1.457h.003-.003c-.012.033-.53 1.608-1.821 1.459h-.002zM462.762 309.797c.164-1.358 1.841-1.397 1.876-1.396-.012.044-.583 1.565-1.876 1.396zM464.365 310.037c.214-1.339 1.898-1.349 1.927-1.328v.004c-.017.042-.633 1.516-1.927 1.324zM465.961 310.333c.26-1.314 1.943-1.278 1.979-1.257-.012.024-.701 1.526-1.979 1.257zM467.54 310.684c.314-1.307 1.99-1.174 2.024-1.171-.013.029-.761 1.512-2.024 1.171zM469.107 311.104c.37-1.319 2.031-1.09 2.066-1.087-.017.033-.816 1.46-2.066 1.087zM470.655 311.592c.418-1.302 2.076-1.04 2.11-1.018-.028.045-.862 1.405-2.11 1.018h-.002zM472.186 312.125c.453-1.26 2.122-.969 2.144-.936-.018.026-.918 1.387-2.144.936zM473.697 312.716c.505-1.243 2.143-.861 2.183-.855-.022.027-.989 1.378-2.183.855zM475.182 313.364c.554-1.227 2.172-.769 2.21-.757-.028.022-1.039 1.331-2.21.757zM476.635 314.076c.613-1.215 2.202-.687 2.229-.674h.011v.001c-.035.035-1.075 1.275-2.24.673zM478.061 314.848c.659-1.187 2.245-.627 2.267-.596h.001l-.001.002h.001-.001c-.033.033-1.12 1.218-2.267.596zM479.466 315.668c.682-1.149 2.268-.552 2.283-.514-.026.018-1.171 1.194-2.283.514zM480.836 316.533c.736-1.125 2.269-.439 2.301-.424-.024.024-1.232 1.166-2.301.424zM482.17 317.452c.783-1.106 2.272-.341 2.307-.331h.009-.009c-.026.026-1.266 1.113-2.307.337h-.004l.004-.006h-.004zM483.465 318.432c.829-1.084 2.299-.266 2.326-.242-.044.025-1.298 1.039-2.326.242v.002zM484.722 319.456c.862-1.043 2.317-.196 2.338-.161-.037.025-1.335.99-2.338.161zM485.944 320.522c.893-1 2.323-.11 2.337-.073-.021.013-1.38.959-2.337.073zM487.128 321.633c.93-.971 2.305-.004 2.336.016h.001-.001.001-.001c-.031.013-1.425.916-2.336-.016h-.002.002-.002zM488.258 322.79c.99-.949 2.302.089 2.338.11-.036.02-1.45.844-2.338-.109zM489.348 323.99c1.018-.904 2.315.168 2.33.198-.04.024-1.462.779-2.33-.195zM490.396 325.233c1.039-.862 2.311.245 2.32.284-.033.016-1.494.721-2.32-.284zM491.393 326.51c1.068-.815 2.297.336 2.318.37-.033.006-1.55.683-2.318-.37zM492.347 327.823c1.098-.775 2.26.43 2.296.459v.003c-.043.008-1.578.621-2.296-.462zM493.242 329.174c1.145-.742 2.245.521 2.267.549h.005-.005c-.036.013-1.579.556-2.267-.549zM494.082 330.561c1.169-.7 2.243.594 2.252.633-.05.013-1.581.485-2.252-.633v-.003zM494.871 331.977c1.182-.648 2.231.673 2.231.714v.003c-.035.005-1.61.428-2.231-.717h-.002zM495.613 333.416c1.203-.595 2.188.774 2.205.805-.031 0-1.652.375-2.205-.805h-.004zM496.301 334.886c1.231-.554 2.139.858 2.161.889-.034.006-1.663.313-2.161-.889zM496.92 336.384c1.262-.511 2.107.938 2.126.973-.048.006-1.649.241-2.126-.973zM497.478 337.906c1.281-.459 2.098 1.011 2.096 1.049-.048.006-1.645.176-2.096-1.049zM497.989 339.446c1.276-.409 2.062 1.085 2.054 1.127-.024-.003-1.675.121-2.054-1.127zM498.442 341.002c1.298-.361 1.993 1.174 2.004 1.207-.031.001-1.688.059-2.004-1.207zM498.83 342.578c1.335-.317 1.941 1.244 1.953 1.28h.002-.002l.002.002-.002-.002c-.04 0-1.675-.008-1.953-1.28zM499.156 344.164c1.339-.26 1.913 1.319 1.905 1.356v.004-.004c-.051 0-1.644-.078-1.909-1.356zM499.42 345.765c1.323-.208 1.874 1.386 1.863 1.428h-.006c-.025-.007-1.663-.142-1.857-1.428zM499.634 347.372c1.336-.157 1.789 1.464 1.799 1.493v.007c-.036-.009-1.681-.203-1.799-1.5h-.003zM499.779 348.987c1.364-.105 1.723 1.525 1.733 1.563-.039-.008-1.658-.264-1.733-1.563zM499.857 350.606c1.357-.057 1.695 1.592 1.682 1.627-.058-.006-1.614-.322-1.682-1.627zM499.876 352.23c1.338-.007 1.649 1.656 1.628 1.688v.005-.005c-.026-.009-1.636-.389-1.628-1.688zM499.847 353.848c1.343.048 1.551 1.715 1.553 1.752-.033-.011-1.626-.452-1.553-1.748zM499.749 355.467c1.364.1 1.475 1.771 1.479 1.807-.038-.01-1.591-.506-1.479-1.807zM499.583 357.08c1.353.151 1.435 1.831 1.42 1.865h-.004c-.05-.017-1.544-.569-1.416-1.865zM499.364 358.689c1.321.193 1.373 1.884 1.351 1.918-.03-.017-1.557-.634-1.351-1.918v-.001zM499.086 360.284c1.324.251 1.271 1.931 1.27 1.968l.001.001-.001-.001v.001-.001c-.031-.016-1.547-.691-1.27-1.968zM498.743 361.871c1.336.303 1.186 1.973 1.186 2.009-.03-.017-1.501-.745-1.186-2.009zM498.334 363.438c1.315.357 1.133 2.027 1.115 2.06-.044-.023-1.448-.801-1.115-2.06zM497.872 364.99c1.28.401 1.066 2.077 1.038 2.1-.034-.02-1.428-.856-1.041-2.1zM497.353 366.525c1.266.452.964 2.108.958 2.139v.002-.002.002-.002c-.029-.017-1.421-.918-.958-2.136zM496.774 368.047c1.256.493.873 2.131.865 2.163-.023-.019-1.381-.97-.865-2.163v-.004zM496.137 369.529c1.245.555.79 2.17.777 2.205-.035-.029-1.321-1.017-.782-2.205zM495.431 370.994c1.223.598.735 2.204.706 2.235-.038-.032-1.27-1.061-.706-2.235zM494.683 372.436c1.181.624.656 2.234.618 2.252-.014-.02-1.246-1.116-.618-2.252zM493.882 373.84c1.156.681.548 2.248.536 2.28v.005-.005c-.028-.024-1.227-1.171-.536-2.28zM493.026 375.218c1.142.734.451 2.261.441 2.293v.003-.003c-.027-.025-1.172-1.216-.445-2.293zM492.109 376.557c1.123.779.377 2.283.354 2.308v.003-.003c-.028-.028-1.1-1.24-.354-2.308zM491.146 377.865c1.086.815.307 2.305.269 2.323-.026-.035-1.045-1.283-.269-2.323v-.004zM490.144 379.133c1.034.848.214 2.32.183 2.335h-.005c-.012-.025-1.019-1.333-.178-2.335zM489.083 380.367c1.013.888.116 2.309.097 2.338-.015-.027-.975-1.382-.097-2.338zM487.984 381.559c.994.933.018 2.302 0 2.334-.022-.032-.913-1.41 0-2.334zM486.841 382.697c.944.979-.063 2.315-.09 2.34h-.005c-.022-.041-.844-1.427.095-2.34zM485.641 383.801c.913 1.001-.13 2.326-.168 2.334h-.004c-.013-.033-.793-1.457.172-2.334zM484.417 384.858c.862 1.031-.224 2.316-.257 2.334-.011-.03-.757-1.507.257-2.334zM483.15 385.873c.827 1.066-.328 2.285-.352 2.311-.011-.031-.694-1.539.352-2.311zM481.841 386.834c.798 1.111-.419 2.265-.441 2.294-.011-.039-.63-1.554.441-2.294zM480.5 387.739c.752 1.136-.49 2.268-.527 2.281h-.005.005c-.02-.049-.564-1.557.527-2.281zM479.118 388.598c.705 1.152-.561 2.253-.601 2.26h-.006c-.007-.038-.499-1.587.607-2.26zM477.715 389.402c.658 1.172-.66 2.224-.692 2.242v.005-.005c-.001-.03-.457-1.628.692-2.242zM476.285 390.16c.608 1.201-.757 2.184-.786 2.199-.003-.034-.397-1.644.786-2.199zM474.816 390.848c.57 1.246-.838 2.154-.866 2.173h-.005.005c-.01-.042-.324-1.636.866-2.173zM473.326 391.486c.52 1.256-.909 2.141-.949 2.139-.008-.051-.251-1.627.949-2.139zM471.81 392.068c.467 1.258-.98 2.114-1.027 2.108 0-.029-.197-1.667 1.027-2.108v-.001zM470.28 392.594c.414 1.279-1.077 2.05-1.114 2.063v.001-.001c0-.034-.137-1.686 1.114-2.063zM468.724 393.06c.378 1.311-1.158 1.993-1.187 2.008-.003-.037-.071-1.679 1.187-2.008zM467.15 393.457c.33 1.326-1.224 1.974-1.26 1.965 0-.048-.004-1.65 1.26-1.965zM465.569 393.799c.271 1.318-1.303 1.932-1.332 1.926h-.005.005c0-.035.052-1.668 1.327-1.926zM463.974 394.083c.218 1.331-1.376 1.866-1.413 1.876.004-.031.118-1.693 1.413-1.876zM462.366 394.312c.171 1.347-1.445 1.792-1.481 1.8.007-.03.181-1.672 1.481-1.8zM460.753 394.463c.116 1.36-1.515 1.756-1.551 1.754.007-.048.256-1.637 1.551-1.754zM459.132 394.559c.07 1.345-1.576 1.72-1.609 1.703.005-.033.303-1.637 1.609-1.703zM457.511 394.608c.023 1.345-1.638 1.63-1.671 1.634.004-.031.372-1.647 1.671-1.634zM455.888 394.59c-.035 1.358-1.695 1.552-1.734 1.56.01-.035.432-1.625 1.734-1.565zM454.269 394.498c-.083 1.36-1.755 1.514-1.791 1.5v.004-.004c.01-.047.493-1.576 1.791-1.5zM452.655 394.35c-.134 1.34-1.819 1.463-1.848 1.439.012-.03.548-1.574 1.848-1.439zM451.045 394.15c-.181 1.329-1.865 1.366-1.906 1.366.019-.03.62-1.577 1.906-1.366v-.001zM449.446 393.889c-.238 1.338-1.917 1.277-1.956 1.277v.006-.006c.022-.031.681-1.538 1.956-1.277zM447.859 393.557c-.293 1.328-1.966 1.222-2.001 1.207.022-.042.728-1.489 2.001-1.213zM446.284 393.16c-.34 1.309-2.015 1.164-2.045 1.14v-.002c.024-.032.784-1.46 2.045-1.138zM444.728 392.718c-.386 1.284-2.056 1.07-2.093 1.061v-.004c.014-.017.854-1.456 2.093-1.057h.002zM443.184 392.213c-.434 1.273-2.086.977-2.123.968.02-.025.904-1.425 2.123-.968zM441.671 391.643c-.491 1.277-2.13.894-2.163.886.02-.031.951-1.369 2.163-.886zM440.176 391.014c-.539 1.252-2.173.836-2.196.813h-.002v-.003h.002c.03-.041.99-1.314 2.196-.81zM438.701 390.332c-.574 1.213-2.202.765-2.226.735v-.007c.024-.018 1.055-1.293 2.226-.728zM437.258 389.602c-.624 1.188-2.219.656-2.258.64.027-.022 1.117-1.271 2.258-.64zM435.84 388.813c-.677 1.173-2.237.56-2.272.546v-.002c.025-.025 1.157-1.222 2.272-.544zM434.456 387.963c-.72 1.156-2.261.486-2.286.461h-.002.002-.002.002c.027-.03 1.185-1.162 2.286-.461zM433.11 387.061c-.766 1.123-2.288.414-2.31.381v.003-.003c.031-.028 1.229-1.108 2.31-.381zM431.791 386.113c-.792 1.082-2.307.336-2.323.298.027-.016 1.284-1.081 2.323-.298zM430.514 385.122c-.84 1.05-2.302.223-2.336.208v-.006c.03-.015 1.339-1.041 2.336-.202zM429.269 384.078c-.886 1.033-2.3.127-2.331.11h-.003.003-.003.003c.031-.018 1.363-.983 2.331-.11zM428.075 382.981c-.928 1.002-2.313.057-2.338.027h-.004v-.004h.004c.037-.021 1.383-.908 2.338-.023zM426.914 381.848c-.955.951-2.323-.024-2.338-.063.041-.019 1.416-.861 2.338.063zM425.802 380.668c-.983.912-2.324-.113-2.344-.143.031-.014 1.475-.826 2.344.143zM424.728 379.455c-1.019.873-2.296-.219-2.324-.246h-.007.007c.03-.01 1.505-.767 2.324.246zM423.707 378.193c-1.069.848-2.279-.309-2.311-.331.035-.012 1.523-.705 2.311.329zM422.739 376.893c-1.094.804-2.287-.383-2.296-.416.04-.024 1.523-.635 2.296.416h.001zM421.82 375.561c-1.119.754-2.281-.465-2.288-.5.04-.014 1.556-.585 2.288.496zM420.944 374.192c-1.139.711-2.254-.552-2.272-.584v-.002c.028-.004 1.604-.535 2.272.586zM420.121 372.796c-1.169.669-2.215-.646-2.237-.677.035-.008 1.628-.476 2.237.677zM419.357 371.363c-1.211.633-2.181-.729-2.208-.761.045-.013 1.623-.399 2.208.761zM418.655 369.903c-1.234.582-2.182-.807-2.182-.842v-.004c.051-.008 1.616-.324 2.182.846zM418 368.423c-1.232.526-2.154-.888-2.151-.928h-.003.003c.032-.003 1.649-.274 2.151.928zM417.405 366.914c-1.261.483-2.102-.972-2.116-1.006v-.006c.031 0 1.675-.214 2.116 1.012zM416.859 365.388c-1.284.434-2.044-1.064-2.062-1.093.037 0 1.676-.151 2.062 1.093h.003zM416.387 363.834c-1.306.389-2.018-1.131-2.025-1.166v-.005.005c.047-.005 1.656-.083 2.025 1.166zM415.97 362.268c-1.305.335-1.99-1.205-1.982-1.246.039.004 1.659-.018 1.982 1.246zM415.61 360.688c-1.312.284-1.93-1.282-1.942-1.318.034.002 1.698.036 1.942 1.318zM415.303 359.096c-1.322.232-1.857-1.361-1.871-1.394.037.003 1.689.103 1.871 1.394zM415.075 357.49c-1.347.186-1.813-1.428-1.82-1.464.044.005 1.654.172 1.82 1.464zM414.905 355.877c-1.346.132-1.788-1.493-1.77-1.531.041.006 1.64.232 1.77 1.531zM414.79 354.263c-1.344.079-1.716-1.562-1.724-1.599.034.008 1.667.293 1.724 1.599h.003z" style="fill:#b0bbc0;fill-opacity:1;stroke:none" transform="translate(-3069.82 -2285.467) scale(7.45095)"/></g></g></svg>