<svg xmlns="http://www.w3.org/2000/svg" width="170.89435mm" height="170.89525mm" viewBox="0 0 170.89435 170.89525"><defs><mask id="b" width="1" height="1" x="0" y="0" maskUnits="userSpaceOnUse"><image width="1" height="1" preserveAspectRatio="none" style="image-rendering:optimizeSpeed"/></mask><mask id="c" width="1" height="1" x="0" y="0" maskUnits="userSpaceOnUse"><image width="1" height="1" preserveAspectRatio="none" style="image-rendering:optimizeSpeed"/></mask><mask id="d" width="1" height="1" x="0" y="0" maskUnits="userSpaceOnUse"><image width="1" height="1" preserveAspectRatio="none" style="image-rendering:optimizeSpeed"/></mask><linearGradient id="e" x1="151.19678" x2="180.77826" y1="242.50586" y2="272.08749" gradientTransform="matrix(.06075 0 0 .03334 -8.717 -8.121)" gradientUnits="userSpaceOnUse" spreadMethod="pad"><stop offset="0" style="stop-opacity:1;stop-color:#8ccb2c"/><stop offset="0.48875" style="stop-opacity:1;stop-color:#f7ed19"/><stop offset="1" style="stop-opacity:1;stop-color:#31ad45"/></linearGradient><clipPath id="a" clipPathUnits="userSpaceOnUse"><path d="M149.964 234.36a28.405 28.405 0 0 1 7.862-3.348 28.06 28.06 0 0 1 13.453-.117c3.13.74 6.015 1.976 8.591 3.603a28.29 28.29 0 0 1 10.81 12.655 28.207 28.207 0 0 1 1.573 17.783 28.25 28.25 0 0 1-7.26 13.254 28.585 28.585 0 0 1-5.411 4.335c-3.61 2.234-7.374 3.606-11.59 4.022-2.965.29-6.141.096-9.729-.557-4.641-.842-8.648-3.233-11.98-6.127a28.272 28.272 0 0 1-5.532-6.511 28.241 28.241 0 0 1-3.46-21.4 28.25 28.25 0 0 1 12.673-17.593z"/></clipPath></defs><path d="M201.955 258.499c0-20.483-16.606-37.089-37.09-37.089s-37.09 16.606-37.09 37.089c0 20.485 16.606 37.09 37.09 37.09s37.09-16.605 37.09-37.09z" style="fill:#fff;fill-opacity:1;fill-rule:nonzero;stroke:#454545;stroke-width:.7753;stroke-linecap:butt;stroke-linejoin:miter;stroke-miterlimit:4;stroke-dasharray:none;stroke-opacity:1" transform="matrix(2.27997 0 0 -2.27997 -290.44 674.821)"/><g clip-path="url(#a)" transform="matrix(2.27997 0 0 -2.27997 -290.44 674.821)"><path d="M.238.075a.503.503 0 0 1 .139-.06.86.86 0 0 0-.045.063.638.638 0 0 0-.153.039.514.514 0 0 1 .059-.042z" style="fill:#3a5093;fill-opacity:1;fill-rule:nonzero;stroke:none" transform="matrix(56.4951 0 0 56.543 136.525 230.135)"/><path d="M.377.016A.657.657 0 0 1 .615.013l-.019.08A.75.75 0 0 0 .332.078.86.86 0 0 1 .377.016z" style="fill:#3a5093;fill-opacity:1;fill-rule:nonzero;stroke:none" transform="matrix(56.4951 0 0 56.543 136.525 230.135)"/><path d="M.615.013a.5.5 0 0 1 .152.064C.77.102.77.13.77.156A.726.726 0 0 0 .596.093l.02-.08Z" style="fill:#3a5093;fill-opacity:1;fill-rule:nonzero;stroke:none" transform="matrix(56.4951 0 0 56.543 136.525 230.135)"/><path d="M.767.077a.488.488 0 0 1 .007.004C.776.107.777.133.777.16A.454.454 0 0 0 .769.156c0-.027 0-.054-.002-.079z" style="fill:#3a5093;fill-opacity:1;fill-rule:nonzero;stroke:none" transform="matrix(56.4951 0 0 56.543 136.525 230.135)"/><path d="M.774.081a.5.5 0 0 1 .185.22A.666.666 0 0 0 .777.16C.777.133.776.107.774.081zM.18.117a.5.5 0 0 0-.166.269l.083.02A.742.742 0 0 1 .253.093.615.615 0 0 0 .18.117z" style="fill:#3a5093;fill-opacity:1;fill-rule:nonzero;stroke:none" transform="matrix(56.4951 0 0 56.543 136.525 230.135)"/><path d="M.253.093a.742.742 0 0 0-.156.313l.09.021C.22.294.27.174.332.077a.658.658 0 0 0-.079.016z" style="fill:#3a5093;fill-opacity:1;fill-rule:nonzero;stroke:none" transform="matrix(56.4951 0 0 56.543 136.525 230.135)"/><path d="M.332.078a1.129 1.129 0 0 0-.145.349l.151.037a2.63 2.63 0 0 1 .124-.39.718.718 0 0 0-.13.004z" style="fill:#3a5093;fill-opacity:1;fill-rule:nonzero;stroke:none" transform="matrix(56.4951 0 0 56.543 136.525 230.135)"/><path d="M.462.073a2.63 2.63 0 0 0-.124.39C.39.477.444.49.5.502L.596.093a.781.781 0 0 0-.134-.02Z" style="fill:#3a5093;fill-opacity:1;fill-rule:nonzero;stroke:none" transform="matrix(56.4951 0 0 56.543 136.525 230.135)"/><path d="M.596.093C.66.107.716.129.77.156a1.82 1.82 0 0 1-.05.396 6.702 6.702 0 0 0-.22-.051L.597.093Z" style="fill:#3a5093;fill-opacity:1;fill-rule:nonzero;stroke:none" transform="matrix(56.4951 0 0 56.543 136.525 230.135)"/><path d="M.769.156A.462.462 0 0 1 .777.16c0 .119-.015.254-.049.395L.718.552A1.82 1.82 0 0 0 .77.156Z" style="fill:#3a5093;fill-opacity:1;fill-rule:nonzero;stroke:none" transform="matrix(56.4951 0 0 56.543 136.525 230.135)"/><path d="M.777.16c0 .119-.015.254-.049.395l.136.032A.89.89 0 0 0 .876.224a.694.694 0 0 0-.1-.064z" style="fill:#3a5093;fill-opacity:1;fill-rule:nonzero;stroke:none" transform="matrix(56.4951 0 0 56.543 136.525 230.135)"/><path d="M.876.224a.89.89 0 0 1-.012.363l.122.028A.604.604 0 0 0 .96.301.64.64 0 0 0 .876.224ZM.014.386l.173.041a1.155 1.155 0 0 0-.03.32.786.786 0 0 1-.133-.094.644.644 0 0 1-.01-.267Z" style="fill:#3a5093;fill-opacity:1;fill-rule:nonzero;stroke:none" transform="matrix(56.4951 0 0 56.543 136.525 230.135)"/><path d="M.187.427C.284.45.39.477.5.501L.417.85a.867.867 0 0 1-.26-.102C.15.648.16.538.186.427z" style="fill:#3a5093;fill-opacity:1;fill-rule:nonzero;stroke:none" transform="matrix(56.4951 0 0 56.543 136.525 230.135)"/><path d="M.5.501c.078.017.15.034.219.051A1.881 1.881 0 0 1 .61.876 1.427 1.427 0 0 1 .417.85L.5.5Z" style="fill:#3a5093;fill-opacity:1;fill-rule:nonzero;stroke:none" transform="matrix(56.4951 0 0 56.543 136.525 230.135)"/><path d="m.719.552.01.003A1.778 1.778 0 0 1 .62.876H.611C.653.78.691.67.72.552z" style="fill:#3a5093;fill-opacity:1;fill-rule:nonzero;stroke:none" transform="matrix(56.4951 0 0 56.543 136.525 230.135)"/><path d="M.728.555A1.778 1.778 0 0 1 .62.876c.043.002.084 0 .124-.004a.91.91 0 0 0 .12-.285L.728.555z" style="fill:#3a5093;fill-opacity:1;fill-rule:nonzero;stroke:none" transform="matrix(56.4951 0 0 56.543 136.525 230.135)"/><path d="M.864.587a.91.91 0 0 1-.12.285A.718.718 0 0 0 .858.85.5.5 0 0 0 .986.615 8.79 8.79 0 0 1 .864.587zM.024.653a.786.786 0 0 0 .132.095c.003.046.008.09.017.131a.5.5 0 0 1-.15-.226Z" style="fill:#3a5093;fill-opacity:1;fill-rule:nonzero;stroke:none" transform="matrix(56.4951 0 0 56.543 136.525 230.135)"/><path d="M.156.748A.867.867 0 0 0 .417.85L.385.988A.45.45 0 0 1 .173.879.881.881 0 0 1 .156.748Z" style="fill:#3a5093;fill-opacity:1;fill-rule:nonzero;stroke:none" transform="matrix(56.4951 0 0 56.543 136.525 230.135)"/><path d="M.417.85c.07.014.134.022.194.026C.591.92.571.96.55.998a.76.76 0 0 1-.165-.01L.417.85Z" style="fill:#3a5093;fill-opacity:1;fill-rule:nonzero;stroke:none" transform="matrix(56.4951 0 0 56.543 136.525 230.135)"/><path d="M.611.876H.62C.6.92.579.961.557.998a.33.33 0 0 1-.007 0C.57.961.592.92.61.876z" style="fill:#3a5093;fill-opacity:1;fill-rule:nonzero;stroke:none" transform="matrix(56.4951 0 0 56.543 136.525 230.135)"/><path d="M.62.876A.764.764 0 0 0 .858.85a.506.506 0 0 1-.301.148C.579.96.6.92.62.876z" style="fill:#3a5093;fill-opacity:1;fill-rule:nonzero;stroke:none" transform="matrix(56.4951 0 0 56.543 136.525 230.135)"/></g><path d="M145.053 278.904c-5.448-5.289-8.506-12.388-8.613-19.99-.222-15.673 12.32-28.615 27.957-28.85 7.562-.116 14.718 2.723 20.143 7.995 5.447 5.289 8.506 12.387 8.614 19.99.22 15.67-12.319 28.612-27.958 28.851-7.562.115-14.715-2.724-20.143-7.996m19.347-48.648c-15.53.234-27.988 13.088-27.77 28.656.108 7.55 3.146 14.602 8.555 19.856 5.393 5.234 12.498 8.055 20.009 7.941 15.532-.238 27.988-13.094 27.768-28.658-.108-7.551-3.145-14.603-8.555-19.855-5.389-5.235-12.496-8.056-20.007-7.94z" style="fill:#fff;fill-opacity:1;fill-rule:nonzero;stroke:none" transform="matrix(2.27997 0 0 -2.27997 -290.44 674.821)"/><path d="M178.543 237.096a.058.058 0 0 0-.026-.08.058.058 0 0 0-.079.027c-1.526 3.158-9.033 5.335-16.732 4.809-.03-.002-.053-.014-.057.02-.002.032.025.06.057.063 7.743.53 15.296-1.64 16.837-4.84m-16.837 4.84c-5.492-.376-9.875-2.056-11.165-4.279-.479-.824-.513-1.676-.103-2.527a.06.06 0 0 1 .08-.03c.03.016.043.053.03.083-.395.811-.36 1.625.097 2.414 1.273 2.191 5.632 3.885 11.086 4.26.032.001.042-.009.04.023a.062.062 0 0 1-.064.056m-11.242-6.726a.06.06 0 0 1-.027-.08c1.539-3.198 9.095-5.371 16.839-4.844.036.002.06.032.058.065a.06.06 0 0 1-.064.054c-7.701-.523-15.205 1.62-16.724 4.778a.062.062 0 0 1-.082.027m28 1.914a.056.056 0 0 1-.027-.08c.394-.815.358-1.627-.099-2.418-1.27-2.188-5.614-3.844-11.068-4.22a.06.06 0 0 1-.056-.064.057.057 0 0 1 .062-.056c5.494.38 9.876 2.059 11.167 4.28.48.828.513 1.677.1 2.53a.056.056 0 0 1-.08.028zM150.98 279.944l.034-.125c2.767.76 5.87 1.26 9.22 1.489l-.009.127c-3.359-.23-6.469-.732-9.245-1.49zM171.76 255.617l.016-.027a.357.357 0 0 0-.01.039l-.005-.012zM159.857 255.315c-.033 0-.026-.007-.024-.038.003-.035.007-.014.04-.011 13.188.902 26.031-2.844 28.645-8.26a.062.062 0 0 1 .082-.03c.027.015.043.051.027.08-2.632 5.46-15.54 9.165-28.77 8.26z" style="fill:#fff;fill-opacity:1;fill-rule:nonzero;stroke:none" transform="matrix(2.27997 0 0 -2.27997 -290.44 674.821)"/><path d="M188.994 273.176a.058.058 0 0 0-.026-.08c-.03-.014-.068-.002-.082.027-2.61 5.419-15.465 9.092-28.65 8.188a.062.062 0 0 0-.065.057.06.06 0 0 0 .056.064c13.232.906 26.136-2.797 28.767-8.256m-38.014 6.764c-5.23-1.431-8.899-3.717-10.063-6.278-.572-1.253-.55-2.537.066-3.816.015-.03.051-.041.082-.028.03.014.041.053.026.08-.6 1.245-.622 2.495-.067 3.714 1.15 2.528 4.79 4.792 9.988 6.212a.061.061 0 0 1 .044.073c-.008.034-.043.051-.076.043m37.937-6.735a.06.06 0 0 1-.03-.082c.678-1.406.62-2.813-.174-4.179-2.184-3.756-9.604-6.053-18.944-6.691-.035-.003-.081-.573-.08-.607a.06.06 0 0 1 .063-.055c9.38.641 16.864 3.504 19.065 7.292.815 1.403.875 2.85.177 4.293-.014.03-.05.043-.078.03m-47.903-3.278a.06.06 0 0 1-.03-.082c2.636-5.46 15.543-9.161 28.77-8.255.036.003.06.03.057.064-.002.032-.007.6-.041.598-13.184-.903-26.061 2.23-28.678 7.645a.06.06 0 0 1-.078.03z" style="fill:#fff;fill-opacity:1;fill-rule:nonzero;stroke:none" transform="matrix(2.27997 0 0 -2.27997 -290.44 674.821)"/><path d="M179.174 281.775a.06.06 0 0 0-.028-.079.06.06 0 0 0-.08.029c-1.545 3.208-9.068 5.388-16.769 4.862a.059.059 0 0 0-.064.056c0 .032.022.062.057.064 7.745.53 15.32-1.682 16.884-4.932m-16.892 4.96c-5.426-.374-9.784-2.075-11.1-4.337-.494-.851-.533-1.724-.114-2.59a.059.059 0 0 1 .079-.029.06.06 0 0 1 .028.082c-.398.828-.36 1.661.112 2.477 1.296 2.228 5.614 3.908 11.003 4.277.035.001.06.03.056.065a.06.06 0 0 1-.064.054m-11.185-6.845a.058.058 0 0 1-.03-.08c1.543-3.199 9.097-5.37 16.842-4.838.032 0 .058.03.056.064-.002.031-.067.192-.098.188-7.697-.53-15.166 1.478-16.692 4.638a.057.057 0 0 1-.078.028m27.998 1.916c-.029-.016-.042-.051-.029-.08.393-.815.36-1.627-.099-2.417-1.27-2.19-5.648-3.712-11.1-4.085-.034-.002-.025-.162-.023-.198a.06.06 0 0 1 .065-.054c5.49.374 9.872 2.054 11.162 4.275.48.828.516 1.68.103 2.53a.058.058 0 0 1-.08.029z" style="fill:#fff;fill-opacity:1;fill-rule:nonzero;stroke:none" transform="matrix(2.27997 0 0 -2.27997 -290.44 674.821)"/><image width="1" height="1" mask="url(#b)" preserveAspectRatio="none" style="image-rendering:optimizeSpeed" transform="matrix(27.35194 0 0 53.74994 66.294 58.444)"/><path d="m165.3 269.155-3.39-19.21h-4.282l2.62 14.77c.04.37.062.69.062.957 0 1.09-.596 1.635-1.787 1.635-.226.018-.32.142-.278.369.04.205.174.318.402.338z" style="fill:#fff;fill-opacity:1;fill-rule:nonzero;stroke:none" transform="matrix(2.27997 0 0 -2.27997 -290.44 674.821)"/><image width="1" height="1" mask="url(#c)" preserveAspectRatio="none" style="image-rendering:optimizeSpeed" transform="matrix(47.2853 0 0 52.99755 86.384 58.658)"/><path d="M137.348 261.571c-.955-1.637-1.024-3.323-.208-5.009l.31.15c-.765 1.579-.698 3.153.193 4.688 2.486 4.272 10.975 7.762 21.653 8.492v.08c-10.79-.736-19.405-4.035-21.948-8.4z" style="fill:#fff;fill-opacity:1;fill-rule:nonzero;stroke:none" transform="matrix(2.27997 0 0 -2.27997 -290.44 674.821)"/><image width="1" height="1" mask="url(#d)" preserveAspectRatio="none" style="image-rendering:optimizeSpeed" transform="matrix(37.52952 0 0 68.38008 36.717 51.128)"/><path d="m156.802 272.336-3.446-19.486c-.274-1.587-.992-2.977-2.162-4.167-1.315-1.316-2.83-1.974-4.543-1.974h-1.941l.218 1.348h1.973c.523 0 .95.437 1.284 1.314.25.668.524 1.828.815 3.479l2.663 15.005c.043.399.064.743.064 1.036 0 .584-.131.99-.392 1.222-.263.229-.736.344-1.426.344-.21.02-.292.146-.252.375.022.23.147.344.378.344z" style="fill:#fff;fill-opacity:1;fill-rule:nonzero;stroke:none" transform="matrix(2.27997 0 0 -2.27997 -290.44 674.821)"/><path d="M192.4 260.465c-3.039 6.283-17.89 10.547-33.105 9.508v-.081c15.092 1.03 29.813-3.408 32.8-9.577.76-1.577.696-3.154-.2-4.688-2.084-3.582-11.397-7.008-21.662-7.707-15.087-1.034-29.801 2.622-32.784 8.792l-.31-.15c3.04-6.28 17.889-10.546 33.104-9.506 10.791.736 19.407 4.033 21.95 8.401.955 1.637 1.025 3.321.207 5.008z" style="fill:url(#e);fill-opacity:1;fill-rule:nonzero;stroke:none" transform="matrix(2.27997 0 0 -2.27997 -290.44 674.821)"/><path d="M192.4 260.465c-3.039 6.283-17.89 10.547-33.105 9.508v-.081c15.092 1.03 29.813-3.408 32.8-9.577.76-1.577.696-3.154-.2-4.688-2.084-3.582-11.397-7.008-21.662-7.707-15.087-1.034-29.801 2.622-32.784 8.792l-.31-.15c3.04-6.28 17.889-10.546 33.104-9.506 10.791.736 19.407 4.033 21.95 8.401.955 1.637 1.025 3.321.207 5.008z" style="fill:#fff;fill-opacity:1;fill-rule:nonzero;stroke:none" transform="matrix(2.27997 0 0 -2.27997 -290.44 674.821)"/><path d="M188.627 247.056c.697-1.443.64-2.886-.175-4.29-2.202-3.788-9.687-6.653-19.065-7.293-.017-.001-.013.103-.004.209.013.1.032.207.049.21 9.342.635 16.733 3.178 18.914 6.936.793 1.365.852 2.772.172 4.178a.063.063 0 0 0 .027.079.06.06 0 0 0 .082-.03m-28.77 8.26c-9.38-.642-16.863-3.504-19.065-7.294-.814-1.404-.87-2.846-.174-4.29.014-.03.049-.041.08-.028.03.016.043.05.027.082-.678 1.403-.62 2.809.174 4.174 2.18 3.756 9.634 6.666 18.974 7.307.034.002.061-.01.07.02.01.031-.053.031-.086.03m-19.213-11.505a.06.06 0 0 1-.026-.08c2.635-5.46 15.54-9.165 28.77-8.258.031.003.079.419.044.419-13.184-.905-26.091 2.473-28.706 7.893a.061.061 0 0 1-.082.026zM182.938 269.057l-2.034-11.463c-.42-2.395-1.037-4.102-1.853-5.12-1.236-1.576-3.25-2.362-6.04-2.362-4.194 0-6.29 1.624-6.29 4.876 0 .479.05.996.15 1.555l1.47 8.168c.038.357.058.668.058.928 0 1.054-.57 1.584-1.71 1.584-.218.021-.308.14-.268.359.04.201.17.309.39.33l6.439 1.106-1.973-11.1c-.258-1.516-.388-2.592-.388-3.23 0-1.894.927-2.852 2.78-2.87 1.892-.021 3.288.537 4.184 1.674.638.799 1.118 2.065 1.436 3.802l2.062 11.763z" style="fill:#fff;fill-opacity:1;fill-rule:nonzero;stroke:none" transform="matrix(2.27997 0 0 -2.27997 -290.44 674.821)"/><path d="M200.535 258.499c0-19.7-15.97-35.67-35.67-35.67-19.7 0-35.673 15.97-35.673 35.67 0 19.702 15.972 35.67 35.673 35.67 19.7 0 35.67-15.968 35.67-35.67z" style="fill:none;stroke:#454545;stroke-width:.3991;stroke-linecap:butt;stroke-linejoin:miter;stroke-miterlimit:4;stroke-dasharray:none;stroke-opacity:1" transform="matrix(2.27997 0 0 -2.27997 -290.44 674.821)"/><path d="M201.958 258.499c0-20.485-16.606-37.094-37.093-37.094-20.488 0-37.093 16.609-37.093 37.094 0 20.487 16.605 37.095 37.093 37.095 20.487 0 37.093-16.608 37.093-37.095z" style="fill:none;stroke:#454545;stroke-width:.6717;stroke-linecap:butt;stroke-linejoin:miter;stroke-miterlimit:4;stroke-dasharray:none;stroke-opacity:1" transform="matrix(2.27997 0 0 -2.27997 -290.44 674.821)"/><path d="M194.822 271.701c.273-.238.471-.75.068-1.2-.318-.358-.803-.42-1.163-.09-.374.33-.44.845-.09 1.23.39.445.903.313 1.185.06z" style="fill:#454545;fill-opacity:1;fill-rule:nonzero;stroke:none" transform="matrix(2.27997 0 0 -2.27997 -290.44 674.821)"/><path d="M136.024 271.815c.264-.24.468-.751.063-1.198-.322-.36-.793-.424-1.16-.094-.37.329-.442.846-.09 1.236.39.438.9.313 1.187.056zM135.07 262.59c.039.45.006.502-.484.583l-2.13.35c-.735.12-1.147.302-1.448.77-.153.234-.23.457-.25.627l.188.047c.097-.35.326-.562.654-.682.283-.094.625-.162 1.108-.241l1.968-.323c.49-.08.538-.041.65.426l.17-.029-.256-1.555zM132.046 258.922c-.204.047-.745.197-.924.262l.171 2.869.17-.01c.01-.533.049-.583.538-.612l2.327-.138c.53-.033.55.013.619.465l.17-.01-.158-2.652c-.135.002-.544-.003-.857-.002l-.019.179c.245.038.39.095.52.17.127.074.178.231.203.639l.025.423c.011.188-.006.202-.183.211l-1.325.08-.032-.53c-.031-.524.014-.563.404-.663l-.01-.177-1.138.068.011.177c.423.051.461.096.492.61l.031.529-1.09.066c-.283.016-.414-.011-.491-.113-.078-.107-.09-.314-.106-.592-.026-.423.01-.603.15-.742.118-.107.312-.23.542-.333l-.04-.175zM134.87 256.363c-.055.447-.097.492-.593.471l-2.158-.092c-.743-.031-1.184.062-1.573.46-.198.197-.318.4-.373.562l.174.084c.167-.324.434-.484.779-.533.297-.036.645-.032 1.134-.012l1.993.086c.496.02.535.069.55.549l.171.007.067-1.575zM135.529 251.6c-.08.34-.19.465-.426.45a8.73 8.73 0 0 1-.926-.115l-.507-.081c-.67-.109-1.188-.085-1.591.189-.324.223-.516.599-.579.982-.056.35-.03.702.125.997.213.386.623.62 1.305.73l1.439.234c.524.086.545.143.511.604l.17.027.252-1.554-.169-.028c-.103.45-.145.49-.676.405l-1.31-.213c-.932-.153-1.403-.6-1.29-1.305.133-.809.846-.969 1.813-.81l.466.075c.513.083.755.14.93.199.217.065.273.2.236.612l.169.027.227-1.398zM132.825 247.92l.161.057c.194-.438.244-.471.716-.302l2.212.79c.473.168.49.225.363.686l.161.058.54-1.512-.162-.057c-.194.438-.243.47-.715.301l-2.213-.789c-.472-.169-.49-.224-.362-.687l-.161-.058zM138.898 243.21c-.164.287-.293.374-.539.284-.171-.066-.416-.17-.901-.412l-2.127-1.066-.09.18 1.622 3.61-.005.012-1.297-.651a10.28 10.28 0 0 1-.871-.476c-.25-.158-.26-.31-.097-.689l-.153-.076-.632 1.26.153.078c.172-.291.307-.389.573-.287.172.065.435.171.915.412l1.15.576c.375.188.412.22.486.376.078.17.063.308-.038.561l.153.077.407-.812-1.498-3.464.008-.016 1.23.616c.485.244.712.383.857.476.224.145.232.301.068.681l.152.077.627-1.25-.152-.077zM140.481 239.589c.2.22.291.355.33.475.053.16.029.267-.219.62l-.223.318-2.363-1.656c-.386-.272-.407-.344-.118-.819l-.14-.098-.997 1.42.14.098c.335-.414.405-.422.796-.148l2.363 1.658-.193.275c-.281.4-.39.462-.543.455-.123 0-.297-.05-.551-.148l-.106.148c.317.187.657.39.925.563l.071-.102c-.06-.15-.029-.214.066-.35l1.345-1.917c.092-.131.152-.154.294-.162l.075-.107a15.26 15.26 0 0 1-.836-.658zM141.741 235.207c-.176-.113-.66-.397-.831-.481l-1.942 2.119.126.116c.39-.364.452-.371.813-.04l1.719 1.575c.392.358.373.405.096.768l.127.116 1.794-1.958c-.097-.096-.377-.393-.596-.617l-.14.11c.142.202.202.347.237.491.036.145-.041.29-.316.59l-.287.314c-.127.14-.148.135-.28.016l-.978-.897.359-.392c.355-.387.413-.38.756-.17l.12-.132-.84-.768-.12.13c.258.338.252.398-.095.776l-.359.393-.805-.739c-.209-.191-.28-.304-.26-.431.022-.13.162-.283.35-.487.287-.313.441-.412.637-.408.16.01.383.063.617.156zM144.593 231.424c-.05.04-.104.087-.15.133-.365.345-.463.605-.419 1.061.029.347.107.751.162 1.083.028.2.002.315-.22.5l-.13.11-.597-.71c-.323-.384-.308-.449.026-.777l-.11-.13-1.216 1.02.11.132c.385-.277.452-.28.775.105l1.514 1.803c.32.379.302.432-.023.752l.11.13 1.143-.96c.344-.288.53-.515.608-.772.082-.27.033-.576-.195-.846-.33-.394-.771-.423-1.223-.29-.04-.206-.11-.665-.145-.98a4.66 4.66 0 0 1-.04-.784.899.899 0 0 1 .14-.474l-.12-.106m-.433 2.869c.22-.186.4-.275.589-.28.281-.004.505.116.71.36.41.488.25.93-.075 1.203-.126.108-.218.153-.278.156-.054 0-.109-.039-.208-.156l-.938-1.116zM150.894 231.799c-.291.158-.447.164-.608-.041-.111-.147-.266-.364-.55-.826l-1.246-2.027-.17.106-.525 3.925-.01.006-.76-1.237a9.871 9.871 0 0 1-.49-.863c-.129-.267-.059-.4.281-.637l-.09-.145-1.201.739.09.145c.298-.156.464-.167.638.058.11.147.28.375.56.833l.675 1.096c.22.356.234.403.214.575-.022.188-.108.295-.328.457l.09.147.775-.477.55-3.734.016-.01.72 1.171c.284.463.404.702.478.858.114.241.039.377-.301.613l.09.147 1.191-.733-.09-.146zM152.02 227.307l.067.157c.361-.103.425-.073.442.177.021.228.039.554.057.913l-1.14.487c-.178-.193-.35-.383-.52-.572-.25-.285-.23-.358.158-.575l-.067-.158-1.189.508.068.158c.368-.1.46-.094.847.3l2.337 2.356.213-.027c-.063-1.078-.136-2.254-.19-3.34-.029-.546.021-.626.357-.814l-.067-.158-1.372.588m.703 3.068-.016.008c-.361-.379-.725-.762-1.07-1.135l.971-.416.115 1.543zM157.97 228.416c.016.297 0 .46-.046.577-.06.157-.145.225-.56.341l-.375.105-.78-2.779c-.128-.454-.098-.523.427-.707l-.047-.165-1.67.469.046.165c.521-.11.58-.071.71.389l.78 2.779-.324.09c-.472.133-.594.111-.709.01-.095-.078-.198-.227-.332-.465l-.176.049c.127.344.262.717.36 1.021l.12-.033c.047-.155.112-.186.271-.23l2.256-.633c.154-.043.215-.024.33.06l.125-.035a14.903 14.903 0 0 1-.23-1.039l-.175.031zM158.544 225.36l.028.167c.478-.042.53-.015.612.48l.382 2.318c.081.495.04.538-.425.65l.027.17 1.584-.262-.027-.168c-.478.042-.53.016-.612-.48l-.382-2.318c-.082-.495-.04-.538.425-.65l-.028-.17zM165.4 226.688c-.057-1.274-.987-2.012-2.072-1.965-1.09.048-1.897.922-1.847 2.054.046 1.056.833 2.008 2.094 1.953 1.009-.044 1.876-.863 1.824-2.042m-3.251.214c-.048-1.086.494-1.93 1.313-1.966.637-.028 1.222.496 1.27 1.622.055 1.232-.529 1.925-1.295 1.96-.637.027-1.24-.52-1.288-1.616zM170.29 228.86c-.326-.055-.453-.147-.453-.409.002-.183.015-.449.075-.988l.264-2.364-.2-.023-2.827 2.772h-.012l.161-1.444c.06-.534.11-.813.146-.981.062-.29.2-.353.613-.33l.019-.17-1.402-.156-.02.17c.332.061.47.153.469.438a9.74 9.74 0 0 1-.071 1.002l-.143 1.278c-.047.417-.063.462-.184.585-.134.134-.268.166-.54.16l-.02.17.904.1 2.732-2.604.017.002-.152 1.367c-.061.54-.114.801-.15.97-.06.26-.202.32-.616.298l-.02.17 1.391.156zM173.936 226.009l-.043.165c.347.14.38.204.24.412-.125.192-.312.46-.518.754l-1.198-.317c-.022-.261-.04-.517-.058-.772-.023-.378.039-.423.478-.356l.044-.166-1.25-.33-.044.166c.353.148.422.208.484.757l.393 3.296.185.11c.613-.888 1.279-1.86 1.905-2.75.313-.449.401-.48.782-.422l.044-.165-1.443-.382m-1.334 2.852-.017-.005c-.052-.52-.102-1.046-.146-1.551l1.022.27-.859 1.286zM178.85 228.807c.044-.2.148-.77.166-.953l-2.5-1.042-.067.159c.45.225.478.281.285.745l-.9 2.163c-.192.463-.244.48-.693.332l-.066.158 1.465.61.066-.159c-.417-.212-.454-.26-.26-.728l.893-2.147c.12-.289.19-.38.312-.394.134-.016.31.051.528.142.289.12.463.225.53.418.052.15.083.367.064.66zM183.365 234.719c-.275-.215-.343-.367-.23-.576.077-.147.2-.362.492-.793l.287-.426c.38-.563.575-1.042.495-1.524-.067-.386-.327-.718-.65-.937-.293-.197-.623-.32-.956-.303-.44.03-.825.305-1.211.877l-.816 1.21c-.297.438-.357.434-.762.21l-.096.143 1.307.88.095-.141c-.365-.282-.384-.338-.084-.783l.743-1.1c.528-.784 1.132-1.024 1.724-.624.68.458.525 1.173-.023 1.984l-.264.392c-.29.43-.443.626-.57.76-.15.17-.296.165-.655-.042l-.096.142 1.175.792zM186.867 237.918c-.23-.238-.277-.388-.121-.598.111-.146.28-.351.65-.749l1.622-1.739-.146-.137-3.924.537-.009-.008.99-1.062c.367-.393.573-.588.703-.7.223-.197.37-.163.688.1l.117-.125-1.032-.96-.116.124c.23.246.285.403.113.631-.111.145-.288.37-.654.762l-.877.94c-.286.306-.327.333-.497.36-.187.028-.314-.027-.53-.195l-.116.125.665.62 3.746-.46.013.012-.938 1.006c-.37.397-.568.574-.698.688-.203.174-.355.138-.673-.127l-.116.125 1.022.955.117-.125zM190.15 236.172l-.13.11c.28.388.284.446-.1.77l-1.797 1.513c-.383.324-.44.31-.776-.032l-.13.11 1.033 1.228.131-.111c-.28-.388-.284-.448.1-.77l1.796-1.513c.385-.324.441-.311.777.033l.131-.11zM191.076 243.64c-.182-.36-.182-.458.142-.94.244-.36 1.137-1.677 1.91-2.723l-.114-.172c-1.119.263-2.481.568-3.34.745-.464.1-.56.052-.784-.226l-.143.095.825 1.25.143-.093c-.191-.375-.156-.42.107-.48.445-.11 1.646-.378 2.625-.586l.008.01c-.467.676-1.135 1.603-1.512 2.071-.23.294-.29.298-.603-.068l-.144.095.737 1.117.143-.094zM195.159 245.843c.17-.12.616-.463.759-.59l-1.236-2.595-.154.073c.19.498.174.558-.269.769l-2.105 1.001c-.479.229-.516.193-.748-.2l-.154.074 1.14 2.398c.125-.052.506-.2.796-.32l-.05-.172a1.38 1.38 0 0 1-.545.037c-.146-.021-.252-.148-.427-.515l-.182-.384c-.082-.171-.07-.188.089-.265l1.199-.57.228.48c.226.473.199.526-.126.765l.077.16 1.028-.489-.076-.16c-.411.111-.464.083-.685-.381l-.228-.478.986-.47c.256-.122.389-.146.498-.08.112.071.201.257.32.508.183.383.216.563.14.745-.07.142-.203.33-.378.511zM197.59 249.916a2.078 2.078 0 0 0-.067-.19c-.183-.468-.387-.658-.825-.789-.331-.103-.736-.183-1.064-.257-.195-.05-.29-.118-.38-.393l-.052-.163.882-.284c.477-.154.533-.116.709.316l.164-.052-.489-1.51-.162.052c.111.46.088.524-.39.677l-2.24.722c-.472.152-.514.117-.688-.305l-.162.053.457 1.42c.138.428.277.687.486.855.219.178.52.247.857.139.489-.158.684-.555.73-1.023.206.039.657.148.964.236.368.103.55.169.74.257a.9.9 0 0 1 .385.31l.144-.071m-2.494-1.484c.09.275.104.474.037.651-.101.263-.297.425-.6.522-.607.196-.956-.12-1.087-.524-.051-.157-.059-.26-.04-.315.021-.051.077-.088.223-.135l1.388-.447zM195.27 253.54c-.384-.03-.821-.122-.917-.62-.08-.423.189-.685.508-.745.405-.077.653.151.978.57.336.435.715.91 1.352.788.621-.118 1.014-.74.864-1.521a1.917 1.917 0 0 0-.194-.553c-.076-.142-.139-.22-.18-.277-.137-.023-.643-.004-.945.017l-.014.183c.378.03 1.027.188 1.14.78.08.424-.139.723-.55.802-.412.078-.68-.19-.993-.574-.3-.376-.695-.871-1.332-.75-.573.109-.962.658-.818 1.417.054.285.18.53.275.716.213-.015.452-.025.83-.05l-.004-.184zM198.362 254.486l-.171.016c.01.48-.02.53-.52.577l-2.338.22c-.5.049-.54.004-.62-.469l-.17.017.15 1.598.17-.016c-.01-.48.022-.53.521-.577l2.34-.221c.498-.047.538-.003.618.47l.171-.017zM195.662 260.426c-.289-.069-.44-.13-.54-.207-.134-.103-.175-.203-.17-.635l.007-.389 2.884.038c.473.007.532.054.559.61l.172.003.023-1.736-.172-.003c-.042.532-.095.579-.574.572l-2.885-.038.004-.337c.006-.49.061-.6.192-.683.101-.068.273-.125.54-.187l.003-.183c-.367.025-.762.05-1.081.057l-.002.124c.134.09.145.16.143.326l-.03 2.344c-.003.158-.04.21-.153.299l-.001.128c.265.004.714.04 1.061.075l.02-.178zM194.287 264.95c.107-.39.19-.455.574-.622.448-.193.804-.335 1.366-.528a.645.645 0 0 1 .389-.041l.788.122c.495.078.53.13.48.667l.17.026.264-1.691-.17-.027c-.115.514-.164.554-.66.478l-.752-.117c-.122-.02-.177-.053-.326-.165-.325-.253-.672-.523-1.175-.936-.36-.289-.414-.369-.396-.718l-.17-.027-.223 1.441.169.026c.117-.406.184-.377.366-.241.418.31.848.657 1.245.975-.41.146-1.023.367-1.411.474-.299.079-.35.06-.325-.403l-.17-.026-.203 1.306z" style="fill:#5e5b5c;fill-opacity:1;fill-rule:nonzero;stroke:none" transform="matrix(2.27997 0 0 -2.27997 -290.44 674.821)"/><path d="M142.591 279.014a3.105 3.105 0 0 0 .267-.26.498.498 0 0 0 .104-.154.358.358 0 0 0 .031-.122.417.417 0 0 0-.077-.107l-.087-.098a.188.188 0 0 0-.059-.046c-.033-.01-.087.004-.162.04a.962.962 0 0 0-.196.129l-1.577 1.352-.119-.168a4.135 4.135 0 0 1-.097-.143c-.037-.056-.077-.113-.118-.172a.344.344 0 0 0-.161-.128.56.56 0 0 0-.298-.067l.05-.188.235.01a.799.799 0 0 1 .207.042l.186.062c.058.02.117.036.175.047a.32.32 0 0 0 .176-.016.775.775 0 0 0 .22-.105c.07-.047.126-.09.17-.127a.736.736 0 0 0 .103-.104c.023-.029.032-.052.025-.072a.252.252 0 0 0-.089-.121.234.234 0 0 0-.177-.045 9.562 9.562 0 0 1-.946.013c-.071-.005-.134-.007-.19-.01.046-.224.073-.443.08-.66a2.931 2.931 0 0 0-.047-.637 1.407 1.407 0 0 0-.047-.226.635.635 0 0 0-.055-.127.165.165 0 0 0-.055-.06.074.074 0 0 0-.05-.008c-.035.006-.057.032-.067.08a.514.514 0 0 0-.012.135c.01.165.006.35-.015.553a4.78 4.78 0 0 1-.112.634c-.054.22-.124.448-.213.68-.088.23-.192.459-.312.684a3.672 3.672 0 0 1-.425-.608 2.746 2.746 0 0 0-.106-.175.33.33 0 0 0-.081-.094.733.733 0 0 0-.369-.085.41.41 0 0 0-.119.022c-.031.012-.046.027-.045.045.003.022.024.054.06.096s.082.09.138.144a8.134 8.134 0 0 1 .258.275c.139.163.25.3.334.41l.211.286c.058.079.107.148.146.207.038.06.082.117.13.174.057.066.112.09.163.07.051-.02.088-.06.112-.125.053-.147.105-.294.155-.44.05-.144.097-.288.14-.433.01.012.02.024.034.037a.347.347 0 0 1 .038.04c.051.048.113.112.184.189.071.078.154.17.248.28l.112.13-.69.592c-.177.152-.382.147-.616-.012-.051-.043-.097-.048-.136-.014-.02.016-.028.047-.025.09.003.043.028.086.074.129.002.004.02.019.048.047.03.03.072.067.129.116l.105.085.115.09c.038.031.074.058.107.08.034.021.06.04.077.055l.1.066.106.063a.81.81 0 0 1 .128-.187c.051-.056.1-.103.144-.142l2.325-1.994m.721.566a3.162 3.162 0 0 0 .27-.263.524.524 0 0 0 .107-.157c.022-.053.03-.091.025-.115-.002-.019-.027-.056-.074-.11-.032-.038-.06-.07-.087-.098a.187.187 0 0 0-.058-.047c-.03-.014-.084 0-.16.038a.985.985 0 0 0-.194.127l-2.784 2.386c-.179.154-.383.152-.612-.007-.054-.04-.1-.046-.136-.015-.023.02-.031.05-.027.093.005.042.03.085.077.128l.047.046c.029.028.072.067.127.115.033.026.067.053.103.086a2.265 2.265 0 0 0 .224.167c.033.021.059.04.076.054.034.024.067.045.098.068.03.021.066.042.107.061a.824.824 0 0 1 .128-.187c.052-.057.098-.102.14-.14l2.603-2.23zM147.82 287.549a3.258 3.258 0 0 0-.127-.52 4.56 4.56 0 0 0-.22-.548l.353.117c.063.018.124.042.182.07l.156.082c.063.031.129.065.2.099.07.034.133.045.189.033a1.483 1.483 0 0 0 .414-.122.781.781 0 0 0 .136-.076c.034-.028.052-.051.053-.073.004-.054-.023-.095-.081-.125a.864.864 0 0 0-.156-.06 4.422 4.422 0 0 1-.664-.145l-.886-.242.005.003-.146-.048a8.086 8.086 0 0 0-.542-.832 5.167 5.167 0 0 0-.523-.613 1.886 1.886 0 0 0-.19-.156.293.293 0 0 0-.156-.055c-.032.002-.054.016-.067.043-.013.027-.004.06.026.102.143.181.276.36.398.538a5.97 5.97 0 0 1 .637 1.199c.092.225.179.475.262.749a24.019 24.019 0 0 1-.53-.353c-.146-.1-.27-.188-.37-.26-.1-.075-.18-.137-.238-.188-.06-.05-.107-.094-.143-.125a.59.59 0 0 0-.153-.111.405.405 0 0 0-.172-.026.626.626 0 0 0-.144.03.428.428 0 0 0-.105.05.143.143 0 0 0-.053.057c-.012.031.038.077.15.136.11.06.277.159.498.302.273.175.503.328.69.455.189.129.344.234.467.32a6.023 6.023 0 0 1 .461.353c.054.046.097.08.131.103a.172.172 0 0 0 .105.032.177.177 0 0 0 .086-.031.16.16 0 0 0 .055-.07.179.179 0 0 0 .011-.094m-.08-2.922-.255-.172-.267-.174a24.111 24.111 0 0 1-.566-.394 23.596 23.596 0 0 1-.305-.227 1.625 1.625 0 0 0-.156-.111.246.246 0 0 0-.115-.031.74.74 0 0 0-.195 0 .487.487 0 0 0-.138.04.267.267 0 0 0-.079.056c-.016.02-.023.037-.02.052.003.016.024.035.063.06.039.026.09.055.153.09.064.034.136.075.216.12.08.045.165.095.252.152l1.089.703c.177.113.345.225.505.33.16.108.306.203.436.287.159.102.294.192.407.269l.307.209c.092.061.176.12.252.177l.238.177.106.075.085.058c.08.052.13.068.151.05.02-.017.037-.06.052-.13a.624.624 0 0 0 .011-.172c-.004-.047-.033-.087-.086-.12a5.694 5.694 0 0 1-.307-.189l-1.302-.841.705-1.094a2.953 2.953 0 0 0 .185-.33.435.435 0 0 0 .05-.185.29.29 0 0 0-.018-.13.15.15 0 0 0-.045-.048 1.291 1.291 0 0 0-.224-.139c-.017-.006-.041-.002-.07.014a.778.778 0 0 0-.262.247zM157.308 288.272a26.347 26.347 0 0 1-.715-.211 14.632 14.632 0 0 1-.848-.292 3.316 3.316 0 0 1-.22-.095 1.8 1.8 0 0 0-.159-.07.296.296 0 0 0-.175-.012.832.832 0 0 0-.268.103.514.514 0 0 0-.11.082c-.03.029-.038.056-.026.082.014.032.095.062.245.09.149.03.35.081.6.157l.527.154-.184.65c-.096-.031-.195-.06-.297-.092l-.309-.09c-.282-.086-.5-.158-.657-.21-.155-.055-.275-.097-.358-.128a1.478 1.478 0 0 0-.181-.06.22.22 0 0 0-.12.004.68.68 0 0 0-.185.057.478.478 0 0 0-.12.079.258.258 0 0 0-.06.076c-.01.023-.011.042-.004.056.008.013.034.027.079.039.044.013.101.026.172.04l.242.051c.09.02.185.044.284.073l1.247.353c.203.058.398.114.584.17l.502.147c.181.05.337.096.467.137l.355.11c.106.032.203.064.292.095l.28.101a5.182 5.182 0 0 0 .222.07c.092.028.145.029.16.006.013-.023.017-.07.01-.141a.625.625 0 0 0-.039-.167c-.018-.043-.057-.074-.118-.091a5.2 5.2 0 0 1-.349-.09l-1.513-.43.183-.646c.175.058.341.112.498.167.157.055.31.105.46.156.063.022.101.01.114-.037l.305-1.076a3.394 3.394 0 0 0 .08-.37.598.598 0 0 0 .006-.19.262.262 0 0 0-.042-.124.18.18 0 0 0-.06-.035.873.873 0 0 0-.1-.031l-.1-.023c-.03-.007-.049-.009-.053-.006-.046.014-.093.058-.141.132a.835.835 0 0 0-.1.214l-.303 1.066m-.179 3.103c.026-.176.047-.326.061-.452.015-.126.023-.24.024-.336a2.056 2.056 0 0 0-.054-.502.377.377 0 0 0-.087-.177.268.268 0 0 0-.122-.078.205.205 0 0 0-.15.01.154.154 0 0 0-.089.102c-.02.07-.033.14-.04.209l-.019.231a2.41 2.41 0 0 1-.132.64 15.734 15.734 0 0 1-1.048-.336 4.87 4.87 0 0 1-.296-.115c-.08-.033-.158-.068-.233-.1a3.18 3.18 0 0 0-.237-.097c-.06-.02-.112-.028-.156-.02a.752.752 0 0 0-.372.125.322.322 0 0 0-.097.09c-.02.031-.022.054-.003.071.03.028.135.064.315.106.18.043.41.105.69.184.139.04.261.075.367.107.106.032.205.061.295.086a4.823 4.823 0 0 1 .47.16l.284.114c.091.032.177.062.256.094.08.03.14.05.179.062.07.02.117.014.14-.017a.417.417 0 0 0 .054-.16zM166.369 288.743a3.504 3.504 0 0 0-.028-.37.495.495 0 0 0-.053-.18.339.339 0 0 0-.073-.101.423.423 0 0 0-.132-.01c-.048 0-.091.002-.13.005-.038.003-.063.007-.074.014-.03.02-.053.07-.072.15a.972.972 0 0 0-.027.234l.027 2.077a15.631 15.631 0 0 1-.376-.033 5.513 5.513 0 0 0-.209-.02.342.342 0 0 0-.201.042.566.566 0 0 0-.241.185l-.114-.158.159-.174a.819.819 0 0 1 .164-.133l.168-.101c.053-.033.102-.068.148-.106a.33.33 0 0 0 .1-.144.787.787 0 0 0 .061-.237c.008-.084.012-.154.01-.213a.743.743 0 0 0-.012-.144c-.008-.037-.021-.059-.04-.066a.252.252 0 0 0-.15-.01.233.233 0 0 0-.148.108l-.171.227a7.942 7.942 0 0 1-.425.506c-.05.053-.092.1-.128.141a3.939 3.939 0 0 0-.456-.484 2.94 2.94 0 0 0-.52-.372 1.392 1.392 0 0 0-.204-.109.555.555 0 0 0-.133-.039.144.144 0 0 0-.08.004.063.063 0 0 0-.039.033c-.018.03-.012.065.018.102.03.04.062.07.096.096.134.097.272.22.415.366.142.145.28.31.416.493.136.183.264.382.385.598.121.216.23.442.325.677a3.552 3.552 0 0 1-.738-.062 2.876 2.876 0 0 0-.203-.03.316.316 0 0 0-.124.002.75.75 0 0 0-.301.227.39.39 0 0 0-.06.108c-.01.03-.009.052.006.062.018.012.056.016.11.016.056-.001.122-.006.2-.014.052-.004.11-.01.174-.014a7.789 7.789 0 0 1 .731-.002l.355.021c.098.007.182.013.253.021.07.01.142.013.216.011.088 0 .142-.027.16-.08.017-.05.009-.106-.025-.165-.08-.136-.158-.27-.238-.401-.08-.132-.16-.26-.243-.385a.471.471 0 0 0 .05-.003c.018-.003.036-.003.055-.003.07-.01.157-.016.262-.022.106-.004.23-.008.374-.01l.172-.002.013.909c.003.232-.132.386-.404.465-.067.011-.1.043-.099.095 0 .026.019.051.054.076.035.026.084.035.147.027l.067-.007c.04-.004.097-.012.171-.025l.132-.026.143-.03c.048-.01.092-.02.13-.033a4.146 4.146 0 0 0 .322-.098.808.808 0 0 1-.06-.218 1.692 1.692 0 0 1-.017-.201l-.041-3.063m.895-.191c0-.06-.004-.122-.008-.188a2.592 2.592 0 0 0-.02-.189.521.521 0 0 0-.052-.182c-.027-.051-.05-.082-.073-.093-.015-.01-.059-.015-.132-.014a4.377 4.377 0 0 0-.13.004.201.201 0 0 0-.074.015c-.03.014-.054.064-.073.147a.985.985 0 0 0-.027.23l.05 3.667c.003.236-.13.392-.399.465-.066.016-.099.048-.098.095 0 .03.018.057.054.08.035.024.084.032.147.024l.066-.007a4.775 4.775 0 0 0 .444-.078l.129-.035a.87.87 0 0 1 .09-.023l.115-.033a.647.647 0 0 0 .115-.043.825.825 0 0 1-.06-.217 1.743 1.743 0 0 1-.017-.197l-.046-3.428zM175.668 286.654a3.235 3.235 0 0 0-.134-.351.55.55 0 0 0-.101-.16.262.262 0 0 0-.098-.074c-.018-.006-.062.003-.131.025a1.75 1.75 0 0 0-.123.04.187.187 0 0 0-.068.036c-.023.022-.032.076-.027.162a.956.956 0 0 0 .04.228l.615 1.975-.403.125-.479-1.536a3.18 3.18 0 0 0-.132-.347.517.517 0 0 0-.102-.158.369.369 0 0 0-.099-.076.49.49 0 0 0-.13.03 1.846 1.846 0 0 0-.122.04.191.191 0 0 0-.067.035c-.022.027-.031.082-.026.165a.966.966 0 0 0 .04.232l.392 1.258a4.138 4.138 0 0 0-.863-.021c-.162.01-.323.027-.484.05a2.832 2.832 0 0 0-.438.096c-.162.05-.272.117-.33.2-.058.081-.063.195-.017.343l.443 1.424.034.117c.01.039.015.077.015.114a.264.264 0 0 1-.024.109.194.194 0 0 1-.082.09c-.048.034-.064.076-.048.124.008.026.027.045.059.061s.07.016.117.002c.12-.038.226-.08.318-.129.092-.047.198-.09.319-.127.137-.043.259-.076.364-.1.105-.023.199-.042.282-.061.147-.024.304-.062.47-.114.07-.022.108-.046.116-.074.007-.028-.008-.069-.044-.124-.06-.09-.125-.13-.197-.125a1.484 1.484 0 0 0-.28.065l-.768.24-.473-1.52c-.013-.042-.012-.078.005-.103a.14.14 0 0 1 .084-.058c.105-.034.215-.061.33-.083a6.03 6.03 0 0 1 .333-.058c.107-.016.209-.027.305-.034l.259-.017.16-.016a.833.833 0 0 0 .108-.016l.005-.001.508 1.63c.07.221-.016.409-.254.561-.06.03-.083.07-.067.12.007.024.031.043.073.058.04.014.09.008.148-.017l.062-.026c.037-.015.09-.039.157-.072l.12-.063.129-.07c.043-.022.08-.045.114-.066a3.899 3.899 0 0 0 .281-.187.82.82 0 0 1-.12-.192 1.588 1.588 0 0 1-.074-.189l-.33-1.062.402-.126.376 1.206c.07.225-.015.413-.255.561-.059.034-.081.073-.067.12.009.027.033.048.074.06.04.013.09.006.147-.02l.062-.025c.038-.015.09-.039.158-.072.036-.02.076-.04.12-.06a2.22 2.22 0 0 0 .243-.14.733.733 0 0 1 .08-.048l.102-.065a.61.61 0 0 0 .099-.074.792.792 0 0 1-.12-.191 1.57 1.57 0 0 1-.072-.184l-1.02-3.27zM182.484 283.473c-.24.158-.45.295-.631.406a10.5 10.5 0 0 1-.808.46c-.09.046-.165.08-.223.105-.05.025-.102.05-.154.08a.322.322 0 0 0-.127.119.83.83 0 0 0-.093.277.575.575 0 0 0-.006.139c.003.042.018.067.046.075.022.007.048 0 .078-.023.03-.021.072-.054.127-.1.057-.046.128-.103.211-.166.084-.065.188-.134.312-.206l.97-.602c.162-.098.32-.195.474-.293.154-.098.303-.183.446-.255a.121.121 0 0 0 .06-.055c.01-.022-.008-.063-.051-.123l-.104-.147-.394-.596a3.624 3.624 0 0 0-.227-.3.601.601 0 0 0-.142-.13.252.252 0 0 0-.121-.048.173.173 0 0 0-.065.021.671.671 0 0 0-.089.057l-.083.06a.154.154 0 0 0-.039.036c-.02.045-.016.109.01.193a.795.795 0 0 0 .095.217l.528.799m-1.6 2.75c.065.1.15.177.254.235.104.058.22.09.345.1.126.01.258-.003.395-.04.137-.038.27-.098.4-.184.129-.086.237-.184.325-.295.088-.111.152-.227.192-.347.04-.12.055-.239.043-.357a.713.713 0 0 0-.116-.325.713.713 0 0 0-.26-.242.839.839 0 0 0-.343-.1 1.137 1.137 0 0 0-.394.041c-.137.037-.27.1-.4.185-.129.084-.238.183-.326.294a1.167 1.167 0 0 0-.192.347.865.865 0 0 0-.044.356c.01.117.051.227.12.332m1.52.3a6.429 6.429 0 0 1-.775.445.795.795 0 0 0-.109.055c-.038.024-.074.045-.107.069a1.013 1.013 0 0 0-.092.066.228.228 0 0 0-.063.082.821.821 0 0 0-.103.285c-.008.076.008.12.048.133.022.007.087-.025.195-.097l.115-.066a.62.62 0 0 0 .111-.093c.131-.09.269-.183.413-.279.144-.098.32-.213.526-.35a21.157 21.157 0 0 1 .692-.44c.051-.03.111-.065.18-.108l.145-.082a2.06 2.06 0 0 0 .142-.088c.08-.053.116-.092.108-.118-.008-.025-.04-.058-.099-.1-.099-.074-.192-.083-.282-.024-.16.107-.326.22-.5.34-.172.12-.354.243-.545.37m-1.004-.64a.548.548 0 0 1-.097-.389.446.446 0 0 1 .209-.32.445.445 0 0 1 .376-.067c.13.036.237.116.32.243a.537.537 0 0 1 .095.386.446.446 0 0 1-.21.318.449.449 0 0 1-.375.069.538.538 0 0 1-.318-.24m.89 1.812c.007.066.037.083.088.054.051-.03.122-.083.212-.161a7.06 7.06 0 0 1 .528-.386l.089-.058c.098-.065.153-.117.166-.156a.171.171 0 0 0-.013-.124l-.036-.054a.144.144 0 0 0-.063-.051.193.193 0 0 0-.109-.008.434.434 0 0 0-.158.071l-.243.154a2.386 2.386 0 0 0-.258.178.523.523 0 0 0-.106.115 1.144 1.144 0 0 0-.084.221.48.48 0 0 0-.013.205m1.871-2.848c.093-.061.185-.119.277-.173l.282-.157c.037-.025.07-.045.098-.062a.823.823 0 0 0 .072-.043c.033-.022.045-.043.034-.063a.48.48 0 0 0-.094-.097 1.255 1.255 0 0 0-.123-.096.222.222 0 0 0-.089-.039.144.144 0 0 0-.085.016.634.634 0 0 0-.102.068c-.027.02-.06.045-.1.072-.042.03-.084.058-.127.086l-.254.168-.263-.398a2.866 2.866 0 0 0-.227-.3.537.537 0 0 0-.143-.127.342.342 0 0 0-.118-.048 1.138 1.138 0 0 0-.128.077l-.109.075a.395.395 0 0 0-.06.05c-.014.032-.007.09.022.17.03.08.063.15.102.21l1.103 1.668c.13.197.1.4-.089.61-.051.055-.065.102-.04.138.016.025.047.037.092.035a.23.23 0 0 0 .141-.062l.053-.041c.031-.026.075-.064.13-.114.03-.029.065-.06.104-.095a2.175 2.175 0 0 0 .207-.21l.066-.07.08-.09a.666.666 0 0 0 .075-.098.825.825 0 0 1-.17-.15c-.049-.058-.089-.11-.12-.158zM189.493 276.629l.088-.096.068-.078c.062-.072.084-.121.068-.145-.016-.023-.057-.045-.121-.066a.59.59 0 0 0-.169-.033c-.047-.002-.09.021-.131.07a1.86 1.86 0 0 0-.07.088c-.029.037-.08.102-.157.191a57.52 57.52 0 0 0-.487.583 77.85 77.85 0 0 1-.553.658l-.303.355-.343.397a24.12 24.12 0 0 1-.727.785 2.212 2.212 0 0 0-.128.142.363.363 0 0 0-.054.104.877.877 0 0 0-.019.197c.002.059.01.106.025.145.013.038.029.066.046.086.018.02.034.029.05.027.015 0 .038-.02.068-.055.03-.035.066-.082.108-.14.042-.059.091-.125.146-.199.056-.074.117-.15.184-.229l.404-.479.69.584c.07.06.111.114.123.163a.197.197 0 0 1-.02.143.161.161 0 0 0-.01.093c.006.03.017.05.031.062.026.022.057.029.096.02.038-.008.073-.036.103-.083a2.754 2.754 0 0 0 .356-.6c.009-.022.006-.042-.008-.055a.245.245 0 0 0-.074-.045 2.13 2.13 0 0 1-.097-.053 1.21 1.21 0 0 1-.127-.096l-.685-.58.354-.417.733.62c.068.059.107.112.119.16a.218.218 0 0 1-.015.147.166.166 0 0 0-.012.092.106.106 0 0 0 .033.063c.025.022.057.029.096.02.038-.01.073-.036.103-.083.061-.084.126-.18.194-.29.068-.11.12-.214.157-.314.01-.023.007-.04-.005-.054a.3.3 0 0 0-.077-.046.9.9 0 0 1-.218-.145l-.723-.612c.107-.127.201-.237.282-.33l.223-.254a13 13 0 0 1 .385-.418m2.128 2.053-.619-.37a20.69 20.69 0 0 0-.545-.32 7.28 7.28 0 0 0-.442-.233 1.734 1.734 0 0 0-.314-.121.342.342 0 0 0-.199-.001.266.266 0 0 0-.118.074.179.179 0 0 0 .022.258.912.912 0 0 0 .143.095l.204.112c.148.082.329.203.541.363.213.161.44.338.682.533-.191.226-.362.424-.514.594a14.509 14.509 0 0 1-.919.944c-.08.073-.136.128-.167.167a.59.59 0 0 0-.062.641c.021.033.042.049.064.047.036-.004.103-.073.198-.21.096-.136.259-.339.488-.61.193-.229.363-.426.51-.595.147-.168.277-.312.388-.43a24.74 24.74 0 0 1 .488-.493l.12-.121c.033-.037.064-.07.09-.102a.271.271 0 0 0 .05-.08c.008-.023.008-.042.002-.056a.122.122 0 0 0-.035-.045.47.47 0 0 0-.056-.041z" style="fill:#454545;fill-opacity:1;fill-rule:nonzero;stroke:none" transform="matrix(2.27997 0 0 -2.27997 -290.44 674.821)"/><path d="m171.158 255.988.016-.026a.263.263 0 0 0-.009.038l-.007-.012zM172.565 255.234l.015-.027c-.002.013-.006.025-.01.04l-.005-.013zM172.616 255.236l.015-.029-.009.04-.007-.01zM171.814 255.584l.016-.027-.009.04-.008-.013z" style="fill:#fff;fill-opacity:1;fill-rule:nonzero;stroke:none" transform="matrix(2.27997 0 0 -2.27997 -290.44 674.821)"/></svg>