<svg xmlns="http://www.w3.org/2000/svg" width="563.66022mm" height="106.39672mm" viewBox="0 0 563.66022 106.39672"><path d="M151.6 109.055c0 7.161.767 12.36 2.254 15.611 1.104 2.377 2.638 3.742 4.601 4.11v5.337c-1.672-.107-3.236-.69-4.677-1.733-2.04-1.472-3.635-3.727-4.693-6.779-1.165 2.99-2.76 5.214-4.83 6.702-1.503 1.043-3.052 1.672-4.678 1.81v-5.23c1.994-.398 3.543-1.81 4.647-4.217 1.487-3.251 2.27-8.45 2.3-15.611h-6.594V104.5h18.188v4.555zm5.352 5.904h5.122V104.5h4.861v37.51h-4.86v-22.267h-5.123zm13.204-10.459h4.892v37.526h-4.892zM199.906 142.194v-12.253h-15.81v-4.616h36.743v4.616h-15.887v12.253zm5.889-33.093c.089 2.407 1.518 4.14 4.232 5.244 2.132.813 5.306 1.304 9.508 1.457v4.524c-3.695-.122-6.762-.46-9.216-1.027-3.788-.89-6.41-2.347-7.852-4.37-1.457 2.023-4.11 3.48-7.99 4.37-2.453.567-5.49.904-9.078 1.027v-4.524c4.171-.107 7.33-.613 9.508-1.457 2.73-1.104 4.125-2.837 4.217-5.244H185.4v-4.6h34.136v4.6zM258.932 104.5h5.076v6.656h5.09v4.6h-5.09v16.854h-5.076v-7.883h-30.364v-4.524h6.134v-6.44h5.045v6.44h19.185zm-12.33 16.27V109.01h-16.301V104.5h21.331v16.27zm-15.074 7.807h5.075v8.649h27.711v4.554h-29.75c-1.012 0-1.779-.245-2.254-.751-.522-.522-.783-1.411-.783-2.607zM303.404 120.158V104.5h5.091v5.23h5.076v4.57h-5.076v10.32h-35.44v-4.462h6.073v-6.671h5.03v6.67zm-12.345.306V109.01h-16.286V104.5h21.331v15.964zm12.345 3.711c2.607 2.193 3.91 4.861 3.91 7.99 0 3.374-1.272 6.226-3.772 8.557-2.53 2.346-5.613 3.512-9.247 3.512-3.604 0-6.671-1.166-9.17-3.512-2.5-2.362-3.743-5.214-3.743-8.557 0-3.129 1.289-5.797 3.865-7.99 2.546-2.147 5.567-3.236 9.048-3.236 3.496 0 6.517 1.09 9.109 3.236m-14.37 2.945c-1.471 1.38-2.223 3.067-2.223 5.045 0 1.901.751 3.542 2.224 4.969 1.472 1.472 3.19 2.208 5.214 2.208 2.055 0 3.849-.706 5.382-2.162 1.519-1.457 2.3-3.114 2.3-5.015 0-1.978-.782-3.665-2.3-5.045-1.533-1.396-3.327-2.101-5.382-2.101-2.04 0-3.773.705-5.214 2.1M323.953 128.96h15.98v4.57h-17.85c-1.044 0-1.81-.169-2.301-.522-.644-.444-.95-1.211-.95-2.315V104.5h16.592v4.555h-11.47zm24.184-7.944h-3.987v21.01h-4.693V104.5h4.693v11.962h3.987V104.5h4.83v37.526h-4.83zM382.365 110.45a7.012 7.012 0 0 1 1.212 2.025c.337.766.49 1.564.49 2.392 0 2.699-1.012 4.907-3.005 6.655-1.871 1.657-4.156 2.485-6.825 2.485-2.668 0-4.999-.828-6.931-2.485-2.07-1.748-3.083-3.956-3.083-6.655 0-.828.138-1.626.43-2.392.276-.721.721-1.411 1.288-2.025h-2.944v-4.447h8.634V102.4h5.474v3.604h8.174v4.447zm15.075 31.576h-5.076v-10.827H364.96v-4.616h32.48zm-26.714-30.257c-.982.92-1.473 2.024-1.473 3.282 0 1.211.491 2.285 1.473 3.19.981.92 2.131 1.364 3.45 1.364 1.258 0 2.377-.444 3.374-1.364 1.013-.905 1.518-1.979 1.518-3.19 0-1.258-.506-2.362-1.518-3.282-.997-.89-2.116-1.319-3.374-1.319-1.319 0-2.469.43-3.45 1.32m26.714 3.373v7.345h-5.076V104.5h5.076v6.073h5.137v4.57zM417.514 135.355h5.674v-15.78h5.03v15.78h14.997v4.616h-36.743v-4.616h6.012v-15.78h5.03zm17.59 2.407v-28.707h-26.408V104.5h31.483v33.262zm0 0" style="fill:#092463;fill-opacity:1;fill-rule:nonzero;stroke:none;stroke-width:3.92583" transform="matrix(1.12558 0 0 1.12558 63.871 -107.353)"/><path d="M147.996 152.883v15.673c0 2.223-.414 3.895-1.226 4.984-.828 1.088-2.178 1.64-4.064 1.64-.828 0-1.733-.106-2.684-.337v-4.263c.782.169 1.457.26 2.024.26.491 0 .89-.122 1.166-.352l.629-.843c.138-.322.199-.905.199-1.733v-15.029zM163.332 157.07h-8.067v4.508h6.334v4.125h-6.334v4.8h8.067v4.34h-12.1v-21.96h12.1zM172.165 152.883v15.673c0 2.223-.414 3.895-1.242 4.984-.813 1.088-2.163 1.64-4.064 1.64-.828 0-1.718-.106-2.669-.337v-4.263c.783.169 1.457.26 2.025.26.49 0 .889-.122 1.165-.352l.629-.843c.138-.322.199-.905.199-1.733v-15.029zM188.742 152.883v13.679c0 2.208-.2 3.85-.583 4.923-.383 1.073-1.104 1.963-2.147 2.653-1.058.69-2.392 1.042-4.018 1.042-1.625 0-2.929-.306-3.895-.935-.966-.629-1.687-1.503-2.162-2.653-.475-1.15-.721-2.822-.721-5.03v-13.68h4.309v13.68c0 1.18.078 2.04.23 2.607.154.552.46.997.92 1.319.46.322 1.013.49 1.687.49.752 0 1.35-.153 1.825-.475a2.3 2.3 0 0 0 .92-1.288c.154-.521.247-1.41.247-2.653v-13.68zM208.985 152.883v4.355h-4.187v17.605h-4.018v-17.605h-4.232v-4.355zM217.051 175.18c-2.285 0-4.048-1.12-5.29-3.327-1.258-2.224-1.872-4.908-1.872-8.067 0-3.205.63-5.873 1.887-8.02 1.273-2.147 3.067-3.22 5.413-3.22 2.362 0 4.14 1.15 5.352 3.435 1.196 2.3 1.794 4.907 1.794 7.851 0 3.19-.613 5.874-1.855 8.067-1.243 2.177-3.052 3.281-5.429 3.281m.111-18.433c-2.085 0-3.113 2.377-3.113 7.1 0 4.755 1.027 7.132 3.113 7.132 2.025 0 3.021-2.362 3.021-7.1 0-4.755-.997-7.132-3.02-7.132M240.284 152.883v13.679c0 2.208-.184 3.85-.583 4.923-.384 1.073-1.104 1.963-2.147 2.653-1.043.69-2.392 1.042-4.018 1.042-1.625 0-2.929-.306-3.895-.935-.966-.629-1.672-1.503-2.162-2.653-.475-1.15-.721-2.822-.721-5.03v-13.68h4.309v13.68c0 1.18.078 2.04.23 2.607.154.552.46.997.92 1.319.46.322 1.028.49 1.687.49.751 0 1.35-.153 1.825-.475a2.33 2.33 0 0 0 .936-1.288c.154-.521.23-1.41.23-2.653v-13.68zM247.446 166.148v8.695h-4.003v-21.945h7.453c1.365 0 2.469.2 3.297.614.828.414 1.534 1.165 2.07 2.27.552 1.103.813 2.33.813 3.68 0 2.637-.966 4.524-2.93 5.674l3.13 9.707h-4.387l-2.607-8.695zm0-9.355v5.598h2.422c.798 0 1.38-.077 1.733-.215.369-.153.69-.46.966-.966.276-.49.414-1.074.414-1.718 0-.598-.138-1.15-.414-1.64-.276-.476-.583-.767-.92-.89-.337-.108-.95-.169-1.856-.169zM264.115 174.843h-3.957v-21.96h3.957zM279.22 157.714l-3.389 1.472c-.445-1.748-1.41-2.607-2.883-2.607-1.564 0-2.346.66-2.346 1.978 0 .521.138.966.445 1.334.291.353.95.675 1.978.951 1.733.445 2.99.905 3.803 1.365.798.46 1.473 1.196 2.025 2.223.552 1.028.812 2.163.812 3.436 0 1.978-.583 3.695-1.764 5.137-1.18 1.457-2.913 2.177-5.229 2.177-1.748 0-3.22-.52-4.447-1.533-1.212-1.028-2.009-2.546-2.408-4.57l3.68-1.073c.415 2.054 1.565 3.067 3.436 3.067.92 0 1.595-.215 2.04-.675.445-.46.674-.997.674-1.641s-.215-1.135-.613-1.488c-.399-.352-1.181-.69-2.347-.996-2.162-.583-3.695-1.365-4.616-2.377-.904-.997-1.364-2.47-1.364-4.401 0-1.948.536-3.589 1.64-4.938 1.089-1.335 2.577-2.01 4.448-2.01 3.327 0 5.474 1.734 6.425 5.169M289.77 174.843l-4.186-17.896v17.896h-3.312v-21.945h6.18l2.96 13.127 3.128-13.127h6.21v21.945h-4.002v-17.896l-4.263 17.896zM323.83 152.883v13.679c0 2.208-.199 3.85-.583 4.923-.384 1.073-1.104 1.963-2.147 2.653-1.058.69-2.392 1.042-4.017 1.042-1.626 0-2.93-.306-3.896-.935-.966-.629-1.687-1.503-2.162-2.653-.475-1.15-.721-2.822-.721-5.03v-13.68h4.31v13.68c0 1.18.077 2.04.23 2.607.153.552.46.997.904 1.319.46.322 1.027.49 1.702.49.752 0 1.35-.153 1.825-.475.46-.322.767-.751.92-1.288.154-.521.231-1.41.231-2.653v-13.68zM340.01 152.883v21.96h-3.375l-6.64-14.83c.011.369.011.63.034.737.033.384.044.69.044.95v13.143h-3.082v-21.96h4.278l5.751 12.943a24.015 24.015 0 0 1-.078-1.457v-11.486zM347.37 174.843h-3.956v-21.96h3.956zM363.38 152.883l-5.122 21.96h-4.263l-5.091-21.96h4.217l3.389 15.703 3.542-15.703zM376.998 157.07h-8.067v4.508h6.35v4.125h-6.35v4.8h8.067v4.34h-12.1v-21.96h12.1zM383.377 166.148v8.695h-3.987v-21.945h7.438c1.38 0 2.484.2 3.312.614.828.414 1.518 1.165 2.07 2.27.537 1.103.813 2.33.813 3.68 0 2.637-.982 4.524-2.945 5.674l3.129 9.707h-4.386l-2.592-8.695zm0-9.355v5.598h2.439c.797 0 1.364-.077 1.732-.215.353-.153.675-.46.966-.966.276-.49.414-1.074.414-1.718 0-.598-.138-1.15-.414-1.64-.291-.476-.598-.767-.92-.89-.337-.108-.966-.169-1.87-.169zM407.791 157.714l-3.374 1.472c-.445-1.748-1.41-2.607-2.883-2.607-1.564 0-2.346.66-2.346 1.978 0 .521.138.966.43 1.334.291.353.965.675 1.993.951 1.733.445 2.99.905 3.788 1.365.798.46 1.487 1.196 2.024 2.223.552 1.028.828 2.163.828 3.436 0 1.978-.583 3.695-1.763 5.137-1.181 1.457-2.93 2.177-5.245 2.177-1.733 0-3.205-.52-4.432-1.533-1.211-1.028-2.024-2.546-2.408-4.57l3.68-1.073c.4 2.054 1.55 3.067 3.436 3.067.905 0 1.595-.215 2.024-.675.46-.46.675-.997.675-1.641s-.2-1.135-.598-1.488c-.414-.352-1.196-.69-2.346-.996-2.163-.583-3.696-1.365-4.616-2.377-.92-.997-1.38-2.47-1.38-4.401 0-1.948.551-3.589 1.656-4.938 1.088-1.335 2.576-2.01 4.447-2.01 3.328 0 5.46 1.734 6.41 5.169M414.8 174.843h-3.957v-21.96h3.956zM428.938 152.883v4.355h-4.186v17.605h-4.018v-17.605H416.5v-4.355zM444.028 152.883l-5.321 12.713v9.247h-3.957v-9.247l-5.321-12.713h4.6l3.236 8.312 3.205-8.312zm0 0" style="fill:#333;fill-opacity:1;fill-rule:nonzero;stroke:none;stroke-width:3.92583" transform="matrix(1.12558 0 0 1.12558 63.871 -107.353)"/><g transform="matrix(1.12558 0 0 1.12558 63.871 -107.353)"><ellipse cx="31.910395" cy="142.27357" rx="88.259438" ry="44.20755" style="fill:#f9f9f9;stroke-width:.289378"/><path d="M78.267 148.206v9.968c0 3.787-.43 6.594-1.273 8.434-.843 1.84-2.392 3.343-4.662 4.524-2.27 1.18-5.183 1.779-8.71 1.779-3.543 0-6.35-.537-8.45-1.595-2.086-1.058-3.65-2.576-4.693-4.54-1.042-1.962-1.564-4.815-1.564-8.602v-9.984l-15.473-.015v24.153h-8.726v-24.153l-17.957-.016v13.434c0 3.803-.89 6.64-2.684 8.51-1.779 1.872-4.723 2.807-8.818 2.807-1.794 0-3.726-.2-5.812-.583v-7.283c1.702.291 3.174.445 4.386.445 1.089 0 1.932-.2 2.546-.583.628-.399 1.073-.89 1.364-1.442.292-.583.43-1.564.43-2.975v-12.345l-54.271-.03c5.32 23.539 42.739 41.788 88.1 41.788 45.27 0 82.627-18.188 88.056-41.666zm0 0" style="fill:#092463;fill-opacity:1;fill-rule:nonzero;stroke:none;stroke-width:3.92583"/><path d="M58.76 162.636c.338.951.998 1.702 1.994 2.27.997.552 2.224.828 3.665.828 1.626 0 2.945-.276 3.957-.828 1.011-.537 1.687-1.273 2.009-2.178.337-.905.506-2.423.506-4.554v-9.968l-12.636-.016v9.983c0 2.025.169 3.497.506 4.463" style="fill:#092463;fill-opacity:1;fill-rule:nonzero;stroke:none;stroke-width:3.92583"/><path d="M6.759 134.818H-1.83v13.326l8.588.016zM33.442 142.24h9.094v-7.422H15.56v7.422h9.155v5.935h8.726zM78.267 134.818h-7.376v13.388h7.376zM58.254 134.818h-9.339v13.372h9.34zm0 0" style="fill:#354f9c;fill-opacity:1;fill-rule:nonzero;stroke:none;stroke-width:3.92583"/><path d="M-5.019 110.956c1.058-.26 1.365-1.318.92-3.174-.444-1.856-1.18-2.653-2.239-2.392-1.089.26-1.41 1.334-.966 3.174.445 1.87 1.196 2.653 2.285 2.392M85.92 112.904l.612-.154.46-.552.033-.705-.321-.521c-.154-.107-.445-.261-.905-.445l-1.165-.476-.813 2.086 1.196.506c.399.154.706.245.905.26" style="fill:#00a2d3;fill-opacity:1;fill-rule:nonzero;stroke:none;stroke-width:3.92583"/><path d="M78.267 134.818h-7.499v13.357l-12.422.016v-13.373h-9.584v13.388l-15.35.031v-6.195h9.001v-7.223H15.53l.067 7.453v-.17h9.125v6.15l-17.958.046v-13.48H-1.9v13.495l-54.257.107.032.154 176.278-.2.067-.306-41.942.092zm0 0" style="fill:#092463;fill-opacity:1;fill-rule:nonzero;stroke:none;stroke-width:3.92583"/><path d="M-37.254 139.833s2.224.981 3.957-.737l5.72-3.65s1.472-1.471 4.217-.72c0 0 7.422.72 10.658-1.488l8.435-5.106s1.732-2.454 4.953-1.718c0 0 4.462 2.193 6.947 0 0 0 1.487-2.193 4.953-1.242 0 0 1.733 1.242 3.466-2.914h6.947s2.745 0 3.726-1.472l2.745-2.438s1.212-1.948 3.696-.245l5.965 3.42s.491.95 4.463.95l4.708-.215s1.487.23 2.254 1.457c0 0 1.457 2.7 2.96 2.438l2.469-.23s1.993-.506 3.205 1.473c0 0 1.763 1.947 4.493 1.456l2.975-1.242s1.978-.736 3.236.997l5.69 4.14s1.487 1.227 4.462 1.227c0 0 2.714 1.473 5.95.982 0 0 2.73-.506 3.236 2.929 0 0 3.465-.23 4.708-.721 0 0 2.975-1.472 4.707.966 0 0 4.463 3.91 7.699 4.386h5.198s2.715-.245 3.712 1.963c0 0 3.435 3.067 4.953 3.588.337-1.686.52-3.389.52-5.122 0-26.284-39.733-47.57-88.744-47.57-49.012 0-88.73 21.286-88.73 47.57 0 1.84.215 3.62.567 5.398 1.35-.536 9.983-4.094 12.713-6.808 0 0 1.227-3.405 6.21-1.703m147.91-14.69-1.427 3.496 3.62-.767 1.21 1.518-5.673.982-2.822 2.361-1.35-1.671 2.822-2.362 2.04-5.505zm-7.944-7.3 5.183 4.294-1.088 1.364-1.733-1.457-4.37 5.506-1.688-1.396 4.37-5.49-1.763-1.457zm-1.38-.86-4.708 7.408-1.795-1.181 4.724-7.407zm-10.812-3.25c.353-.706.92-1.15 1.687-1.35.767-.184 1.595-.045 2.484.43 1.58.858 2.27 2.009 2.101 3.48l-1.87-.352c.088-.736-.2-1.288-.905-1.656-.737-.399-1.227-.368-1.473.092l-.033.598c.056.2.322.491.767.844.735.598 1.242 1.089 1.549 1.457.291.368.475.812.552 1.303.078.506-.011.982-.246 1.442-.353.705-.95 1.165-1.78 1.38-.827.215-1.793.015-2.882-.568-.828-.444-1.442-1.012-1.825-1.686-.398-.675-.49-1.411-.306-2.24l1.932.553c-.17.843.185 1.502 1.074 1.978.445.23.797.322 1.104.276l.613-.414-.011-.675c-.138-.23-.445-.552-.936-.966-.92-.751-1.503-1.426-1.748-2.009-.26-.598-.2-1.242.153-1.917m-3.588-4.432c.674.276 1.196.583 1.549.905.353.322.583.752.705 1.273a2.902 2.902 0 0 1-.138 1.549c-.398.981-1.15 1.487-2.3 1.503l.138 4.263-2.193-.89-.011-3.787-1.426-.583-1.273 3.25-1.994-.812 3.236-8.189zm-5.429-2.131-.49 1.61-4.141-1.32-.52 1.734 3.25 1.027-.475 1.595-3.251-1.027-.568 1.84 4.14 1.303-.505 1.672-6.211-1.963 2.56-8.434zm-12.728-3.635.322 6.564 3.297-5.674 1.732.429-4.708 7.913-2.223-.552-.613-9.232zm-5.383-1.15 2.101.414-1.687 8.664-2.085-.429zm-8.986-1.503 2.27.353 2.284 5.612.045-.582.69-4.57 1.625.26-1.303 8.726-1.81-.276-2.622-6.456-.033.307-.034.383-.782 5.214-1.641-.245zm-9.784 4.493.506-5.474 2.3.23-.506 5.474c-.044.46-.033.813.034 1.059l.43.567c.245.153.536.26.888.291.399.032.736 0 .997-.092l.537-.475c.111-.2.185-.553.23-1.043l.507-5.475 1.824.169-.521 5.475c-.078.89-.245 1.533-.491 1.947-.245.414-.66.72-1.258.951-.583.215-1.303.291-2.177.2-.875-.077-1.55-.277-2.04-.568-.49-.307-.843-.69-1.058-1.18-.215-.492-.276-1.166-.2-2.056m-15.059-5.996 3.313.061 1.533 5.306 1.748-5.26 3.328.046-.122 8.833-2.147-.031.111-7.208-2.392 7.162-1.457-.016-2.147-7.238-.111 7.208-1.78-.032zm-4.002 5.95c-.23-.138-.66-.245-1.273-.352-1.165-.184-2.009-.46-2.515-.844-.522-.383-.782-.966-.812-1.733-.034-.797.23-1.457.798-2.024.567-.567 1.35-.874 2.361-.905 1.78-.077 2.96.568 3.527 1.933l-1.794.659c-.26-.69-.798-1.012-1.58-.981-.843.03-1.257.322-1.242.843l.26.521c.17.138.522.261 1.09.338.935.153 1.61.306 2.054.475.43.154.812.445 1.12.843.307.4.475.844.49 1.365.045.798-.246 1.503-.859 2.101-.613.614-1.533.936-2.776.997-.935.031-1.732-.138-2.407-.521-.659-.384-1.12-.982-1.365-1.78l1.963-.52c.245.812.873 1.21 1.886 1.165.49-.031.844-.123 1.088-.322l.322-.675zm-6.318-5.46.66 8.803-2.117.17-.66-8.803zm-7.33.69c.736-.076 1.334-.076 1.794.047.46.106.874.367 1.211.782.337.398.537.874.598 1.41.122 1.059-.307 1.871-1.304 2.454l2.101 3.68-2.33.277-1.78-3.313-1.518.184.384 3.466-2.132.26-.981-8.771zM1.025 102.2l.92 5.413c.079.476.186.813.308 1.012l.567.445c.26.077.584.092.936.031.399-.077.706-.184.92-.352l.415-.599c.044-.23.033-.582-.067-1.088l-.936-5.414 1.794-.322.936 5.414c.154.89.17 1.549.034 2.009-.138.475-.446.89-.966 1.257-.507.384-1.181.644-2.04.798-.874.153-1.58.153-2.131 0a2.594 2.594 0 0 1-1.32-.844c-.336-.414-.582-1.058-.72-1.932l-.936-5.413zm-10.259 3.496c.46-.997 1.304-1.656 2.53-1.947 1.227-.307 2.27-.093 3.098.644a5.263 5.263 0 0 1 1.672 2.837c.307 1.257.23 2.377-.215 3.389-.445 1.027-1.288 1.687-2.53 1.993-1.196.292-2.224.077-3.083-.628-.843-.706-1.426-1.672-1.717-2.899-.292-1.257-.215-2.392.245-3.389m-2.116-.628.506 1.671-2.147.69 2.055 6.763-2.07.644-2.055-6.763-2.162.69-.507-1.671zm-15.535 5.75 2.163 5.046c.184.429.352.736.52.904l.66.292.905-.2c.368-.169.644-.352.828-.567l.26-.675c-.015-.245-.122-.583-.306-1.043l-2.162-5.03 1.672-.751 2.162 5.045c.337.813.506 1.457.49 1.932-.03.491-.245.966-.643 1.457-.415.476-1.013.905-1.81 1.258-.813.368-1.488.536-2.07.521-.568-.031-1.058-.184-1.488-.506-.414-.322-.797-.89-1.135-1.702l-2.162-5.03zm-4.11 2.024 2.99 5.521c.415.782.538 1.472.353 2.086-.168.598-.705 1.15-1.595 1.656a8.114 8.114 0 0 1-1.318.583l-.813-1.503c.399-.138.736-.291.997-.445l.49-.43.139-.46-.246-.659-2.852-5.29zm-4.769 2.684.951 1.365-3.543 2.546 1.013 1.487 2.79-1.993.936 1.35-2.791 1.993 1.073 1.58 3.558-2.531.982 1.426-5.322 3.819-4.968-7.239zm-7.345 5.567 4.217 4.6c.598.645.89 1.289.859 1.917-.032.63-.415 1.304-1.15 2.01a8.909 8.909 0 0 1-1.135.904l-1.15-1.242c.352-.245.644-.475.858-.69l.368-.537.016-.49-.384-.583-4.064-4.402zm0 0" style="fill:#00a2d3;fill-opacity:1;fill-rule:nonzero;stroke:none;stroke-width:3.92583"/><path d="M11.804 104.424c.43-.046.735-.107.92-.2l.46-.445.153-.705-.307-.629-.522-.306c-.183-.016-.52 0-.997.06l-1.257.139.26 2.239zm0 0" style="fill:#00a2d3;fill-opacity:1;fill-rule:nonzero;stroke:none;stroke-width:3.92583"/><path d="M-56.361 148.42h.2l-.016-.076zM-1.89 148.788h8.649v-.49l-8.65.015zM24.716 148.788h8.695v-.552l-8.695.031zM48.762 148.788h9.584v-.598l-9.584.016zM70.768 148.175v.629h7.499v-.644zm0 0" style="fill:#354f9c;fill-opacity:1;fill-rule:nonzero;stroke:none;stroke-width:3.92583"/></g></svg>