<svg xmlns="http://www.w3.org/2000/svg" xml:space="preserve" width="899.9906" height="900" viewBox="0 0 899.99058 899.99999"><path d="M524.324 679.09h-191.21v191.212h191.21z" style="fill:#1e5cb3;fill-opacity:1;fill-rule:nonzero;stroke:none" transform="matrix(4.70682 0 0 -4.70682 -1567.907 4096.353)"/><path d="M0 0c.994 0 1.745-.292 2.251-.875.281-.332.513-.816.695-1.458h2.818c-.043.831-.353 1.658-.929 2.483C3.791 1.619 2.139 2.355-.119 2.355c-1.689 0-3.078-.546-4.171-1.644-1.256-1.26-1.883-3.052-1.883-5.371 0-2.15.551-3.84 1.655-5.074 1.107-1.238 2.624-1.853 4.556-1.853 1.561 0 2.84.455 3.84 1.369.999.913 1.62 2.093 1.863 3.546H2.924c-.186-.682-.422-1.197-.701-1.545-.511-.631-1.252-.947-2.225-.947-.947 0-1.729.371-2.344 1.117-.615.746-.922 1.863-.922 3.355 0 1.491.291 2.645.875 3.465C-1.808-.41-1.01 0 0 0" style="fill:#fff;fill-opacity:1;fill-rule:nonzero;stroke:none" transform="matrix(4.70682 0 0 -4.70682 87.158 68.765)"/><path d="M0 0h-5.282v5.075H-8.1V-8.251h2.818v5.969H0v-5.969h2.818V5.075H0Z" style="fill:#fff;fill-opacity:1;fill-rule:nonzero;stroke:none" transform="matrix(4.70682 0 0 -4.70682 158.243 82.642)"/><path d="M0 0c-.664-.816-1.559-1.223-2.687-1.223-1.127 0-2.028.407-2.699 1.223-.673.814-1.009 1.977-1.009 3.482 0 1.494.336 2.648 1.009 3.463.671.818 1.572 1.225 2.699 1.225 1.128 0 2.023-.408 2.687-1.229.663-.82.994-1.972.994-3.459C.994 1.977.663.814 0 0m1.756 8.968c-1.026 1.038-2.51 1.557-4.451 1.557-1.944 0-3.428-.519-4.453-1.557-1.377-1.223-2.065-3.056-2.065-5.486 0-2.396.688-4.23 2.065-5.503 1.025-1.038 2.509-1.556 4.453-1.556 1.941 0 3.425.518 4.451 1.556 1.37 1.273 2.057 3.107 2.057 5.503 0 2.43-.687 4.263-2.057 5.486" style="fill:#fff;fill-opacity:1;fill-rule:nonzero;stroke:none" transform="matrix(4.70682 0 0 -4.70682 222.384 106.465)"/><path d="M0 0c-.518.407-1.302.729-2.344.967l-2.384.547c-.921.21-1.522.392-1.805.547-.441.232-.66.583-.66 1.054 0 .513.221.911.67 1.198.447.286 1.046.427 1.798.427.674 0 1.238-.109 1.692-.328.681-.33 1.046-.892 1.098-1.684H.771C.723 4.148.185 5.232-.834 5.978c-1.021.745-2.256 1.118-3.7 1.118-1.733 0-3.045-.396-3.937-1.188-.895-.793-1.342-1.785-1.342-2.976 0-1.304.459-2.258 1.371-2.871.542-.37 1.534-.711 2.977-1.028l1.472-.312c.862-.186 1.49-.393 1.885-.629.394-.24.594-.58.594-1.018 0-.758-.406-1.275-1.215-1.553-.425-.146-.98-.219-1.665-.219-1.14 0-1.946.277-2.417.831-.257.298-.427.753-.518 1.365h-2.706c0-1.382.511-2.472 1.535-3.268 1.024-.793 2.431-1.192 4.215-1.192 1.75 0 3.105.402 4.062 1.206.959.803 1.437 1.818 1.437 3.041C1.214-1.531.811-.627 0 0" style="fill:#fff;fill-opacity:1;fill-rule:nonzero;stroke:none" transform="matrix(4.70682 0 0 -4.70682 294.218 90.322)"/><path d="M0 0c0-.918-.112-1.587-.333-2.006-.343-.746-1.089-1.121-2.236-1.121-1.154 0-1.904.375-2.248 1.121-.222.419-.331 1.088-.331 2.006v8.188h-2.885V0c0-1.417.224-2.521.674-3.305.838-1.45 2.437-2.176 4.79-2.176s3.947.726 4.781 2.176c.448.784.673 1.888.673 3.305v8.188H0Z" style="fill:#fff;fill-opacity:1;fill-rule:nonzero;stroke:none" transform="matrix(4.70682 0 0 -4.70682 345.575 97.29)"/><path d="m0 0-5.416 9.275h-2.953V-4.051h2.62v9.469l5.553-9.469h2.812V9.275H0Z" style="fill:#fff;fill-opacity:1;fill-rule:nonzero;stroke:none" transform="matrix(4.70682 0 0 -4.70682 410.68 102.411)"/><path d="M0 0c0-.922-.111-1.588-.332-2.007-.346-.747-1.089-1.122-2.24-1.122-1.154 0-1.901.375-2.246 1.122-.219.419-.333 1.085-.333 2.007v8.192h-2.882V0c0-1.417.223-2.521.672-3.307.841-1.451 2.437-2.176 4.789-2.176 2.353 0 3.948.725 4.784 2.176.449.786.67 1.89.67 3.307v8.192H0Z" style="fill:#fff;fill-opacity:1;fill-rule:nonzero;stroke:none" transform="matrix(4.70682 0 0 -4.70682 99.649 188.43)"/><path d="m0 0-5.415 9.282h-2.952V-4.051h2.618v9.475l5.555-9.475H2.62V9.282H0Z" style="fill:#fff;fill-opacity:1;fill-rule:nonzero;stroke:none" transform="matrix(4.70682 0 0 -4.70682 164.74 193.56)"/><path d="M373.701 825.128h2.818v13.333h-2.818z" style="fill:#fff;fill-opacity:1;fill-rule:nonzero;stroke:none" transform="matrix(4.70682 0 0 -4.70682 -1567.907 4096.353)"/><path d="m0 0-2.955 10.127H-5.99l4.603-13.333h2.65l4.635 13.333H2.976Z" style="fill:#fff;fill-opacity:1;fill-rule:nonzero;stroke:none" transform="matrix(4.70682 0 0 -4.70682 239.058 197.536)"/><path d="M0 0h6.436v2.311H0v2.835h7.033v2.355h-9.807V-5.832H7.367v2.401H0Z" style="fill:#fff;fill-opacity:1;fill-rule:nonzero;stroke:none" transform="matrix(4.70682 0 0 -4.70682 284.396 185.176)"/><path d="M0 0c-.304-.148-.759-.219-1.368-.219H-4.43v3.588h3.141c.585 0 1.022-.078 1.316-.238.52-.274.78-.816.78-1.629C.807.754.538.251 0 0m3.345-6.555c-.05.215-.074.63-.074 1.241v.896c0 .941-.132 1.639-.39 2.09-.261.453-.703.802-1.329 1.047.746.254 1.283.686 1.607 1.299.326.609.488 1.232.488 1.865 0 .523-.082.991-.251 1.4a4.317 4.317 0 0 1-.682 1.125 3.425 3.425 0 0 1-1.274.926c-.499.211-1.216.327-2.144.347h-6.5V-7.652h2.774v5.236h2.785c.794 0 1.336-.142 1.623-.424.288-.281.439-.851.451-1.702l.019-1.249c.006-.389.046-.771.116-1.145.036-.186.097-.423.181-.716h3.123v.335c-.273.159-.449.413-.523.762" style="fill:#fff;fill-opacity:1;fill-rule:nonzero;stroke:none" transform="matrix(4.70682 0 0 -4.70682 359.473 176.608)"/><path d="M0 0c-.523.408-1.305.729-2.349.969l-2.382.551c-.918.209-1.52.392-1.803.547-.442.233-.662.583-.662 1.054 0 .512.222.912.67 1.196.448.287 1.047.429 1.797.429.675 0 1.24-.108 1.694-.327.68-.332 1.047-.894 1.097-1.685H.77C.721 4.155.184 5.238-.836 5.982c-1.02.747-2.256 1.12-3.701 1.12-1.733 0-3.044-.396-3.937-1.189-.894-.791-1.343-1.782-1.343-2.974 0-1.306.46-2.264 1.373-2.878.539-.369 1.534-.711 2.978-1.028l1.471-.31c.86-.186 1.488-.394 1.884-.63.398-.24.594-.581.594-1.018 0-.759-.403-1.274-1.212-1.554-.426-.146-.982-.218-1.667-.218-1.14 0-1.947.275-2.417.83-.257.299-.431.754-.517 1.365h-2.708c0-1.383.513-2.47 1.536-3.268 1.024-.793 2.429-1.192 4.215-1.192 1.75 0 3.102.403 4.06 1.206.959.804 1.439 1.817 1.439 3.041C1.212-1.532.809-.627 0 0" style="fill:#fff;fill-opacity:1;fill-rule:nonzero;stroke:none" transform="matrix(4.70682 0 0 -4.70682 428.575 181.47)"/><path d="M427.177 825.128h2.817v13.333h-2.817z" style="fill:#fff;fill-opacity:1;fill-rule:nonzero;stroke:none" transform="matrix(4.70682 0 0 -4.70682 -1567.907 4096.353)"/><path d="m0 0-2.693-5.811L-5.504 0H-18.63v-2.354h4.084v-10.979h2.862v10.979h4.082v.134l3.454-6.137v-4.976h2.818v5.004L3.215 0Z" style="fill:#fff;fill-opacity:1;fill-rule:nonzero;stroke:none" transform="matrix(4.70682 0 0 -4.70682 549.563 149.87)"/><path d="M0 0v1.844c.875.039 1.487.095 1.839.167.557.126 1.011.366 1.361.721.24.246.422.573.546.98.07.245.107.425.107.544h2.31V-9.622H3.329V0Z" style="fill:#fff;fill-opacity:1;fill-rule:nonzero;stroke:none" transform="matrix(4.70682 0 0 -4.70682 63.355 258.858)"/><path d="M0 0c0-1.43.434-2.526 1.305-3.287.87-.762 1.869-1.143 2.992-1.143.76 0 1.399.155 1.919.463.287.167.556.405.81.715-.052-1.049-.18-1.844-.384-2.385-.372-.995-1.021-1.492-1.943-1.492-.479 0-.862.127-1.149.378a1.61 1.61 0 0 0-.531.987H.246c.123-1.173.609-2.064 1.458-2.673a4.794 4.794 0 0 1 2.868-.915c2.233 0 3.766 1.061 4.601 3.186.439 1.121.657 2.518.657 4.186 0 1.722-.227 3.112-.683 4.167-.799 1.856-2.275 2.784-4.427 2.784-1.4 0-2.535-.459-3.409-1.379C.436 2.674 0 1.477 0 0m4.919-2.207c-.706 0-1.23.205-1.573.613-.342.408-.512 1.018-.512 1.828 0 .969.268 1.657.803 2.063.34.258.746.387 1.223.387.652 0 1.166-.227 1.542-.682.374-.455.562-1.07.562-1.848 0-.969-.322-1.65-.961-2.043a2.006 2.006 0 0 0-1.084-.318" style="fill:#fff;fill-opacity:1;fill-rule:nonzero;stroke:none" transform="matrix(4.70682 0 0 -4.70682 104.365 261.772)"/><path d="M0 0h-1.601v8.669h-3.113L-9.924.25v-2.379h5.609v-2.985h2.713v2.985H0Zm-7.856 0 3.541 5.959V0Z" style="fill:#fff;fill-opacity:1;fill-rule:nonzero;stroke:none" transform="matrix(4.70682 0 0 -4.70682 203.31 280.075)"/><path d="M0 0c-.098 1.092-.537 1.969-1.316 2.63-.779.66-1.826.99-3.138.99-.908 0-1.69-.203-2.343-.611A4.784 4.784 0 0 1-8.38 1.407c-.469-.781-.783-1.76-.945-2.935-.092-.661-.137-1.518-.137-2.575 0-1.803.329-3.271.985-4.407.846-1.462 2.158-2.192 3.939-2.192 1.658 0 2.879.492 3.665 1.476.788.985 1.18 2.123 1.18 3.413 0 1.294-.4 2.361-1.199 3.194-.8.836-1.826 1.253-3.075 1.253-.585 0-1.103-.094-1.556-.281a3.115 3.115 0 0 1-1.196-.897c.078 1.072.221 1.883.427 2.438.379 1.002 1.017 1.503 1.913 1.503.599 0 1.047-.219 1.343-.658.175-.269.262-.517.262-.739Zm-6.657-5.984c0 .911.271 1.571.812 1.98.362.276.778.415 1.249.415.579 0 1.069-.213 1.468-.639.401-.425.601-1.035.601-1.826 0-.72-.175-1.304-.527-1.752-.353-.449-.834-.673-1.446-.673-.625 0-1.142.232-1.548.697-.406.467-.609 1.064-.609 1.798" style="fill:#fff;fill-opacity:1;fill-rule:nonzero;stroke:none" transform="matrix(4.70682 0 0 -4.70682 253.395 255.415)"/><path d="m0 0-.025-20.093h-12.916V1.756h-19.866l13.631-22.023h-14.64l-9.719 15.675-9.295-15.675h-14.673l13.409 22.023h-20.514v-21.849h-12.645l-.012 22.172c.476 6.346 7.622 7.181 7.622 7.181h30.567l5.74 9.607 5.75-9.607h29.44S.224 7.986 0 0" style="fill:#fff;fill-opacity:1;fill-rule:nonzero;stroke:none" transform="matrix(4.70682 0 0 -4.70682 818.716 345.824)"/><path d="M0 0v-27.563h22.753v7.387H12.551v6.365h10.202v7.42H12.551v5.805h10.202v7.32H6.185S.167 7.102 0 0" style="fill:#fff;fill-opacity:1;fill-rule:nonzero;stroke:none" transform="matrix(4.70682 0 0 -4.70682 408.472 496.773)"/><path d="M0 0v-28.213l-22.76.026v7.361h10.209v6.365H-22.76v7.42h10.209v5.805H-22.76v7.32h16.303S-.742 5.15 0 0" style="fill:#fff;fill-opacity:1;fill-rule:nonzero;stroke:none" transform="matrix(4.70682 0 0 -4.70682 818.753 493.711)"/><path d="m0 0-.026-31.902h-12.662v29.343h-61.921v-29.343h-12.645l-.013 31.369c.061 5.145 6.364 5.892 6.364 5.892h30.954v7.866h13.585V5.359h30.439S-.094 4.053 0 0" style="fill:#fff;fill-opacity:1;fill-rule:nonzero;stroke:none" transform="matrix(4.70682 0 0 -4.70682 818.72 674.814)"/><path d="M0 0h-6.211v-5.939H0v-5.596h10.588V4.613H0Z" style="fill:#fff;fill-opacity:1;fill-rule:nonzero;stroke:none" transform="matrix(4.70682 0 0 -4.70682 673.31 723.739)"/><path d="M0 0h39.823v6.433H5.102v4.148H-5.449V4.688S-5.528-.14 0 0" style="fill:#fff;fill-opacity:1;fill-rule:nonzero;stroke:none" transform="matrix(4.70682 0 0 -4.70682 536.174 826.089)"/><path d="M0 0v10.912c-10.761 2.454-10.45 12.624-10.45 12.624H-.054v7.349h-31.784v-7.349h9.735s1.54-8.365-9.978-12.624V0s12.203 3.34 16.307 11.311c0 0 5.013-9.172 15.774-11.311" style="fill:#fff;fill-opacity:1;fill-rule:nonzero;stroke:none" transform="matrix(4.70682 0 0 -4.70682 689.54 610.104)"/><path d="m0 0-10.267.152s-.715-8.122-9.745-8.199v-7.179s10.492-.08 14.888 5.987c0 0 4.145-6.067 14.886-6.117v7.043S1.709-7.417 0 0" style="fill:#fff;fill-opacity:1;fill-rule:nonzero;stroke:none" transform="matrix(4.70682 0 0 -4.70682 585.738 703.004)"/></svg>