<svg xmlns="http://www.w3.org/2000/svg" width="162.702mm" height="162.71582mm" viewBox="0 0 162.702 162.71582"><path d="M0 0c0-16.158-13.098-29.257-29.248-29.257-16.159 0-29.253 13.099-29.253 29.257 0 16.153 13.094 29.249 29.253 29.249C-13.098 29.249 0 16.153 0 0" style="fill:#aec3e5;fill-opacity:1;fill-rule:nonzero;stroke:none" transform="matrix(2.76591 0 0 -2.76591 162.255 81.347)"/><path d="M0 0c0-10.671-8.647-19.313-19.31-19.313-10.668 0-19.315 8.642-19.315 19.313 0 10.662 8.647 19.304 19.315 19.304C-8.647 19.304 0 10.662 0 0" style="fill:#fff;fill-opacity:1;fill-rule:nonzero;stroke:none" transform="matrix(2.76591 0 0 -2.76591 134.766 81.347)"/><path d="M0 0c0-16.158-13.098-29.257-29.248-29.257-16.159 0-29.253 13.099-29.253 29.257 0 16.153 13.094 29.249 29.253 29.249C-13.098 29.249 0 16.153 0 0Zm-9.938 0c0-10.671-8.647-19.313-19.31-19.313-10.669 0-19.316 8.642-19.316 19.313 0 10.662 8.647 19.304 19.316 19.304 10.663 0 19.31-8.642 19.31-19.304zm-5.895 7.023c-8.411 3.105-13.415 9.314-13.415 9.314s-5.012-6.209-13.422-9.314l4.007-17.22h18.826zm-6.509 1.104h-1.751v1.748h-10.311V8.127h-1.758V-2.185h1.758v-1.757h10.311v1.757h1.751z" style="fill:none;stroke:#231f20;stroke-width:.323;stroke-linecap:butt;stroke-linejoin:miter;stroke-miterlimit:4;stroke-dasharray:none;stroke-opacity:1" transform="matrix(2.76591 0 0 -2.76591 162.255 81.347)"/><path d="M0 0v-5.386L-3.679.019h-2.764v-9.352h2.613v5.4l3.623-5.385h.162l2.648.031V0Z" style="fill:#231f20;fill-opacity:1;fill-rule:nonzero;stroke:none" transform="matrix(2.76591 0 0 -2.76591 86.663 60.827)"/><path d="M0 0a2.011 2.011 0 0 0 4.022 0m0 0a2.01 2.01 0 1 0 4.016 0m0 0a2.01 2.01 0 0 0 4.023 0M-7.827.028c0 1.076.877 1.954 1.959 1.954A1.963 1.963 0 0 0-3.907.028m0 0A1.953 1.953 0 1 0 0 .028" style="fill:none;stroke:#231f20;stroke-width:.323;stroke-linecap:butt;stroke-linejoin:miter;stroke-miterlimit:4;stroke-dasharray:none;stroke-opacity:1" transform="matrix(2.76591 0 0 -2.76591 75.496 102.949)"/><path d="M0 0a.236.236 0 0 0-.233.23v.423c0 .414.945.138 1.13.998.015.087.139.18.231.18h.524a.24.24 0 0 0 .235-.235v-3.818a.241.241 0 0 0-.235-.234H.936a.237.237 0 0 0-.232.234V0Z" style="fill:#231f20;fill-opacity:1;fill-rule:nonzero;stroke:none" transform="matrix(2.76591 0 0 -2.76591 61.047 119.117)"/><path d="M0 0c.087-.152.221-.23.424-.23.284 0 .521.17.611.846C.664.405.448.34.194.34c-.804 0-1.406.626-1.406 1.481 0 .925.685 1.559 1.695 1.559 1.33 0 1.746-1.108 1.746-2.267 0-1.43-.655-2.244-1.791-2.244-.707 0-1.223.307-1.429.878C-1.146.17-.134.225 0 0m-.119 1.844c0-.382.23-.616.581-.616.357 0 .591.234.591.603 0 .372-.234.625-.57.625-.356 0-.592-.244-.592-.612z" style="fill:#231f20;fill-opacity:1;fill-rule:nonzero;stroke:none" transform="matrix(2.76591 0 0 -2.76591 73.887 123.087)"/><path d="M0 0a5.24 5.24 0 0 0 1.319 2.916H-.375c-.127 0-.241.111-.241.23v.644c0 .134.114.235.236.235h2.633a.241.241 0 0 0 .246-.235v-.625c0-.019-.052-.138-.063-.161-.714-.819-1.133-1.881-1.205-3.045A.244.244 0 0 0 1-.262H.229A.225.225 0 0 0 0 0" style="fill:#231f20;fill-opacity:1;fill-rule:nonzero;stroke:none" transform="matrix(2.76591 0 0 -2.76591 84.013 125.187)"/><path d="M0 0a.236.236 0 0 0-.234.23v.423c0 .414.946.138 1.128.998.018.087.141.18.227.18h.529a.236.236 0 0 0 .232-.235v-3.818a.238.238 0 0 0-.232-.234H.936a.238.238 0 0 0-.234.234V0Z" style="fill:#231f20;fill-opacity:1;fill-rule:nonzero;stroke:none" transform="matrix(2.76591 0 0 -2.76591 94.998 119.117)"/><path d="M0 0c0-.8-.638-1.435-1.428-1.435-.79 0-1.428.635-1.428 1.435 0 .782.638 1.421 1.428 1.421C-.638 1.421 0 .782 0 0" style="fill:#231f20;fill-opacity:1;fill-rule:nonzero;stroke:none" transform="matrix(2.76591 0 0 -2.76591 18.741 97.083)"/><path d="M0 0a1.43 1.43 0 1 0-2.858 0A1.43 1.43 0 0 0 0 0" style="fill:#231f20;fill-opacity:1;fill-rule:nonzero;stroke:none" transform="matrix(2.76591 0 0 -2.76591 151.868 97.083)"/><path d="M0 0c-.039.855.499 1.661 1.324 1.844a.22.22 0 0 0 .287-.211l.03-.686c.016-.331-.606-.225-.576-.873.027-.589.783-.699 1.228-.681.717.027 1.135.354 1.109.823-.026.644-.674.428-.692.782l-.034.709c-.005.16.116.266.278.243.903-.17 1.473-.796 1.511-1.669.055-1.151-.85-2.02-2.158-2.075C1.028-1.854.051-1.095 0 0" style="fill:#231f20;fill-opacity:1;fill-rule:nonzero;stroke:none" transform="matrix(2.76591 0 0 -2.76591 9.39 83.624)"/><path d="m0 0 1.443-.175a.237.237 0 0 0 .203-.262l-.088-.699a.242.242 0 0 0-.259-.207l-3.785.474a.234.234 0 0 0-.202.257l.087.699c.015.12.131.221.261.203L-1.1.138l.145 1.177-1.239.152a.242.242 0 0 0-.205.262l.086.695c.014.119.136.221.26.198l3.786-.46a.245.245 0 0 0 .207-.267L1.849 1.2a.234.234 0 0 0-.262-.202l-1.439.175Z" style="fill:#231f20;fill-opacity:1;fill-rule:nonzero;stroke:none" transform="matrix(2.76591 0 0 -2.76591 17.05 74.082)"/><path d="M0 0c.348 1.141 1.428 1.633 2.715 1.237C4.01.837 4.632-.166 4.286-1.307c-.39-1.278-1.559-1.6-2.755-1.227C.272-2.157-.341-1.132 0 0m3.265-.998c.138.451-.206.892-.896 1.103-.68.207-1.213.038-1.348-.418-.139-.441.207-.897.875-1.104.705-.207 1.234-.037 1.369.419" style="fill:#231f20;fill-opacity:1;fill-rule:nonzero;stroke:none" transform="matrix(2.76591 0 0 -2.76591 12.465 59.261)"/><path d="M0 0c.149.308.123.542-.06.63-.513.258-1.232-1.854-2.641-1.136-.88.442-.834 1.278-.438 2.056.353.694.897 1.127 1.672.906.149-.041.212-.193.139-.331l-.324-.644c-.12-.226-.411.027-.639-.428-.117-.216-.08-.409.066-.488.487-.248 1.148 1.918 2.582 1.192.882-.451.911-1.431.511-2.208-.353-.704-1.069-1.292-1.882-1.026-.146.056-.201.198-.134.331l.343.677C-.664-.193-.297-.584 0 0" style="fill:#231f20;fill-opacity:1;fill-rule:nonzero;stroke:none" transform="matrix(2.76591 0 0 -2.76591 25.713 52.238)"/><path d="m0 0-1.876 1.389a.246.246 0 0 0-.055.327l.42.566c.074.096.23.119.327.046L.722.92c.388-.29.714-.253.956.074.239.326.169.653-.212.929L-.446 3.334a.246.246 0 0 0-.048.328l.419.565c.071.097.23.115.329.046l1.874-1.389c.945-.695 1.156-1.495.403-2.516C1.766-.662.925-.681 0 0" style="fill:#231f20;fill-opacity:1;fill-rule:nonzero;stroke:none" transform="matrix(2.76591 0 0 -2.76591 26.272 46.095)"/><path d="M0 0a.237.237 0 0 0-.01-.331l-.499-.483a.244.244 0 0 0-.335.004l-2.641 2.751a.237.237 0 0 0 .009.331l.579.557c.041.036.185.073.233.055l2.272-.74-1.382 1.439a.241.241 0 0 0 .002.331l.506.483a.24.24 0 0 0 .332-.004l2.643-2.747a.243.243 0 0 0-.009-.335L1.117.754C1.08.717.934.686.886.699l-2.257.727z" style="fill:#231f20;fill-opacity:1;fill-rule:nonzero;stroke:none" transform="matrix(2.76591 0 0 -2.76591 38.208 37.863)"/><path d="M0 0a.237.237 0 0 0-.091-.317l-.616-.34c-.107-.051-.251-.024-.314.096l-1.841 3.339a.238.238 0 0 0 .091.318l.708.391c.042.023.193.018.232-.009L.181 2.176l-.965 1.748a.227.227 0 0 0 .087.312l.616.346a.237.237 0 0 0 .315-.093L2.083 1.15c.057-.12.011-.267-.096-.317L1.274.437a.429.429 0 0 0-.238.009L-.951 1.729z" style="fill:#231f20;fill-opacity:1;fill-rule:nonzero;stroke:none" transform="matrix(2.76591 0 0 -2.76591 50.67 28.145)"/><path d="m0 0-.759 2.212c-.039.111.031.249.149.29l.663.23a.231.231 0 0 0 .296-.147l.768-2.24c.157-.455.44-.616.825-.483.385.124.507.437.357.888L1.53 2.985c-.044.124.027.267.144.304l.664.225a.254.254 0 0 0 .299-.142l.754-2.213c.38-1.108.094-1.886-1.105-2.3C1.072-1.559.373-1.09 0 0" style="fill:#231f20;fill-opacity:1;fill-rule:nonzero;stroke:none" transform="matrix(2.76591 0 0 -2.76591 55.688 20.791)"/><path d="m0 0-.478-.069.194-1.237c.02-.12-.073-.244-.194-.267l-.69-.106a.24.24 0 0 0-.271.193l-.604 3.772c-.013.119.072.248.198.262l1.62.262c.831.134 1.664 0 1.826-1.002.068-.451-.068-.773-.543-1.164.832-.317.734-.865.945-1.555.044-.138-.038-.262-.191-.294l-.879-.138C.702-.833.843.138 0 0m-.756 1.665.13-.824.661.106c.297.047.466.143.413.502-.053.336-.269.363-.543.317Z" style="fill:#231f20;fill-opacity:1;fill-rule:nonzero;stroke:none" transform="matrix(2.76591 0 0 -2.76591 70.96 17.228)"/><path d="M0 0c.342 0 .534.133.534.336-.007.58-2.214.253-2.221 1.831-.005.988.758 1.333 1.631 1.338.777 0 1.421-.29 1.575-1.076a.23.23 0 0 0-.234-.281H.563c-.255 0-.164.373-.674.373-.25 0-.401-.12-.401-.286.005-.542 2.231-.137 2.236-1.756C1.726-.51.871-.979-.007-.984c-.787 0-1.64.359-1.77 1.21-.02.147.075.271.232.271h.755C-.474.497-.655-.004 0 0" style="fill:#231f20;fill-opacity:1;fill-rule:nonzero;stroke:none" transform="matrix(2.76591 0 0 -2.76591 81.828 18.03)"/><path d="m0 0 .697-.078A.238.238 0 0 0 .905-.34L.461-4.121a.228.228 0 0 0-.256-.202l-.702.078a.238.238 0 0 0-.2.262l.442 3.776A.233.233 0 0 0 0 0" style="fill:#231f20;fill-opacity:1;fill-rule:nonzero;stroke:none" transform="matrix(2.76591 0 0 -2.76591 88.752 9.024)"/><path d="M0 0a.245.245 0 0 0-.278-.175l-.68.166c-.12.028-.206.156-.174.276l.89 3.712c.034.124.171.202.285.169l.786-.188c.05-.009.159-.115.168-.166l.602-2.313.465 1.936c.03.134.169.207.283.175l.683-.165a.233.233 0 0 0 .171-.281L2.303-.562a.235.235 0 0 0-.275-.169l-.792.188c-.052.014-.159.12-.17.175L.465 1.918Z" style="fill:#231f20;fill-opacity:1;fill-rule:nonzero;stroke:none" transform="matrix(2.76591 0 0 -2.76591 93.892 21.108)"/><path d="M0 0c-.966.423-1.299 1.541-.799 2.695.46 1.058 1.513 1.886 2.701 1.362.799-.35 1.184-.99 1.066-1.836-.026-.179-.169-.248-.325-.184l-.626.272c-.244.106-.03.552-.527.763-.432.194-.87-.087-1.163-.759C.03 1.628.148 1.099.618.888c.326-.143.577-.093.793.165l-.238.106a.231.231 0 0 0-.117.303l.188.442c.051.115.197.175.306.119l1.061-.464c.113-.046.166-.188.12-.304L1.97-.492a.254.254 0 0 0-.309-.129l-.327.147c-.213.092-.105.364-.071.511C.698-.175.39-.17 0 0" style="fill:#231f20;fill-opacity:1;fill-rule:nonzero;stroke:none" transform="matrix(2.76591 0 0 -2.76591 104.8 25.535)"/><path d="M0 0c.67-.534.922-1.477.513-2.222-.078-.138-.232-.165-.352-.069l-.536.428c-.258.207.241.602-.272 1.016-.461.359-1.051-.129-1.332-.478-.446-.566-.48-1.094-.109-1.384.502-.405.775.225 1.045.004l.556-.441c.127-.102.125-.267 0-.368-.719-.566-1.574-.58-2.255-.037-.906.722-.957 1.973-.142 2.994C-2.074.446-.855.685 0 0" style="fill:#231f20;fill-opacity:1;fill-rule:nonzero;stroke:none" transform="matrix(2.76591 0 0 -2.76591 126.424 24.174)"/><path d="M0 0c.792-.906.643-2.079-.372-2.967-1.016-.901-2.2-.901-2.989 0-.887.998-.548 2.162.397 2.99C-1.976.897-.781.883 0 0m-2.568-2.268c.312-.349.871-.29 1.412.185.534.473.668 1.021.362 1.375-.316.354-.879.29-1.402-.17-.554-.493-.687-1.026-.372-1.39" style="fill:#231f20;fill-opacity:1;fill-rule:nonzero;stroke:none" transform="matrix(2.76591 0 0 -2.76591 135.38 32.736)"/><path d="m0 0 .375-.594a.234.234 0 0 0-.074-.322l-2.484-1.582.81-1.278a.235.235 0 0 0-.073-.318l-.541-.345a.239.239 0 0 0-.322.069L-3.623-2.3a.228.228 0 0 0 .073.318L-.323.069C-.217.143-.068.101 0 0" style="fill:#231f20;fill-opacity:1;fill-rule:nonzero;stroke:none" transform="matrix(2.76591 0 0 -2.76591 140.31 39.3)"/><path d="m0 0 .291-.639a.234.234 0 0 0-.115-.308l-2.669-1.219.618-1.371a.243.243 0 0 0-.114-.308l-.589-.262a.231.231 0 0 0-.305.11L-3.89-1.771a.243.243 0 0 0 .109.313L-.306.115C-.187.17-.051.106 0 0" style="fill:#231f20;fill-opacity:1;fill-rule:nonzero;stroke:none" transform="matrix(2.76591 0 0 -2.76591 145.406 47.876)"/><path d="m0 0 .773-2.718a.236.236 0 0 0-.162-.285l-.618-.175a.23.23 0 0 0-.287.161l-.52 1.812-.524-.147.44-1.537c.032-.114-.046-.257-.16-.285l-.461-.138c-.122-.027-.256.051-.289.162l-.44 1.54-.548-.156.533-1.877a.249.249 0 0 0-.163-.29l-.618-.174a.244.244 0 0 0-.288.161l-.791 2.769a.24.24 0 0 0 .164.289L-.287.161A.247.247 0 0 0 0 0" style="fill:#231f20;fill-opacity:1;fill-rule:nonzero;stroke:none" transform="matrix(2.76591 0 0 -2.76591 149.345 57.036)"/><path d="M0 0c-.109 1.048.698 1.899 1.945 2.028 1.16.124 2.39-.391 2.523-1.683.091-.869-.275-1.518-1.078-1.835-.158-.06-.297.023-.313.188l-.068.681c-.028.271.462.304.402.842-.047.464-.508.713-1.234.639-.741-.078-1.15-.446-1.098-.957.035-.359.205-.551.533-.616l-.028.257a.258.258 0 0 0 .208.268l.478.045a.236.236 0 0 0 .254-.207l.118-1.154a.24.24 0 0 0-.204-.258l-1.9-.197c-.123-.01-.244.087-.255.207l-.037.358c-.024.23.261.271.41.313C.187-.699.043-.423 0 0" style="fill:#231f20;fill-opacity:1;fill-rule:nonzero;stroke:none" transform="matrix(2.76591 0 0 -2.76591 140.613 73.624)"/><path d="m0 0-.171-2.815c-.009-.124-.123-.235-.248-.225l-.645.037c-.122.018-.226.133-.218.257l.115 1.886-.545.027-.094-1.586a.25.25 0 0 0-.252-.226l-.475.028c-.127.013-.229.129-.221.248l.094 1.601-.568.032-.118-1.95c-.011-.115-.128-.216-.253-.211l-.645.031a.248.248 0 0 0-.214.249l.175 2.884a.245.245 0 0 0 .25.22L-.219.253C-.087.248.007.129 0 0" style="fill:#231f20;fill-opacity:1;fill-rule:nonzero;stroke:none" transform="matrix(2.76591 0 0 -2.76591 153.242 80.927)"/><path d="M0 0c-.431.924.074 1.964 1.212 2.497 1.057.492 2.381.423 2.908-.704.356-.768.214-1.485-.45-2.037-.127-.106-.283-.069-.355.074l-.276.598c-.114.239.345.427.123.905-.193.405-.703.479-1.367.171C1.114 1.187.842.713 1.051.267c.146-.313.364-.433.695-.382l-.106.23c-.049.106.007.248.116.303l.438.203c.109.05.259 0 .307-.106l.47-1.012c.054-.106-.007-.253-.111-.304L1.123-1.61c-.119-.055-.263 0-.311.11l-.144.309c-.098.202.161.336.29.418C.396-.57.172-.373 0 0" style="fill:#231f20;fill-opacity:1;fill-rule:nonzero;stroke:none" transform="matrix(2.76591 0 0 -2.76591 13.334 113.94)"/><path d="m0 0 1.708 1.973L-.613.805C-.703.759-.846.787-.903.86l-.467.607c-.051.06-.049.207.005.276l2.411 3.128c.101.138.265.133.365.009l.385-.502c.051-.064.046-.211-.009-.285L.224 2.18l2.234 1.04c.082.036.226.009.28-.065l.385-.488c.051-.068.042-.211-.019-.285L1.552.469l2.234 1.035c.085.041.226.004.278-.06l.38-.487c.095-.129.058-.286-.095-.35L.721-.957c-.074-.041-.22 0-.274.06l-.46.603C-.07-.221-.061-.074 0 0" style="fill:#231f20;fill-opacity:1;fill-rule:nonzero;stroke:none" transform="matrix(2.76591 0 0 -2.76591 23.422 128.748)"/><path d="M0 0c-.091-.069-.462-.409-.654-.249l-.49.41c-.133.11-.124.271.03.363l3.393 2.153c.062.037.211.027.268-.014l.617-.52c.062-.046.092-.188.064-.262L1.71-1.826c-.067-.166-.226-.202-.357-.097l-.525.437c-.19.166.086.58.13.681zm1.338.037.541 1.191L.775.51Z" style="fill:#231f20;fill-opacity:1;fill-rule:nonzero;stroke:none" transform="matrix(2.76591 0 0 -2.76591 32.903 136.966)"/><path d="M0 0a.233.233 0 0 0-.314-.092l-.588.331a.238.238 0 0 0-.08.313L.896 3.877c.067.106.209.147.313.093l.678-.387c.044-.023.113-.152.11-.207l-.092-2.369.985 1.743a.237.237 0 0 0 .31.093l.589-.332a.236.236 0 0 0 .083-.312L1.989-1.122a.236.236 0 0 0-.311-.097l-.682.391c-.043.023-.115.147-.11.203l.087 2.341z" style="fill:#231f20;fill-opacity:1;fill-rule:nonzero;stroke:none" transform="matrix(2.76591 0 0 -2.76591 43.23 145.745)"/><path d="M0 0c-.96.326-1.35 1.412-.94 2.599.378 1.103 1.34 2.009 2.518 1.6.79-.276 1.207-.883 1.142-1.734-.009-.17-.139-.262-.294-.212l-.621.222c-.243.082-.069.542-.563.717-.426.147-.834-.175-1.071-.865-.246-.713-.1-1.228.367-1.393.323-.12.565-.042.761.23l-.241.082a.244.244 0 0 0-.135.299l.156.451c.044.115.181.184.29.151l1.049-.367c.113-.037.176-.184.137-.295L1.931-.327c-.044-.115-.18-.184-.29-.142l-.321.11c-.213.074-.132.35-.102.497C.687-.12.39-.143 0 0" style="fill:#231f20;fill-opacity:1;fill-rule:nonzero;stroke:none" transform="matrix(2.76591 0 0 -2.76591 56.19 152.792)"/><path d="M0 0c.31-.019.32.294.331.515l.137 2.553c.005.115.122.225.237.221l.679-.042c.12-.009.214-.12.21-.248L1.455.469C1.404-.488.956-1.109-.042-1.058-1.488-.975-1.634.901-1.117.874l.599-.033c.293-.018.186-.432.235-.616A.289.289 0 0 1 0 0" style="fill:#231f20;fill-opacity:1;fill-rule:nonzero;stroke:none" transform="matrix(2.76591 0 0 -2.76591 76.988 154)"/><path d="m0 0-.239 2.323a.234.234 0 0 0 .197.253l.673.073c.114.009.232-.087.248-.216l.244-2.35c.048-.474.283-.69.673-.653.39.041.568.308.519.781l-.243 2.351a.237.237 0 0 0 .202.257l.668.07a.243.243 0 0 0 .249-.212L3.437.363C3.556-.8 3.124-1.495 1.905-1.624.682-1.752.121-1.146 0 0" style="fill:#231f20;fill-opacity:1;fill-rule:nonzero;stroke:none" transform="matrix(2.76591 0 0 -2.76591 84.17 152.143)"/><path d="m0 0 .407-.952a.233.233 0 0 0-.117-.304l-.621-.262a.236.236 0 0 0-.303.124l-1.482 3.515c-.051.119.007.257.116.298l.623.263c.112.05.25-.014.296-.124l.45-1.058.36 1.559a.469.469 0 0 0 .127.142l.764.322c.223.092.379-.06.307-.29L.418 1.592 2.527.069c.187-.124.169-.322-.034-.405l-.804-.335c-.041-.015-.188.004-.224.036L.107.437Z" style="fill:#231f20;fill-opacity:1;fill-rule:nonzero;stroke:none" transform="matrix(2.76591 0 0 -2.76591 107.81 148.29)"/><path d="M0 0c.962.63 2.083.304 2.828-.819.746-1.14.602-2.29-.357-2.92-1.074-.704-2.158-.194-2.851.86C-1.103-1.785-.949-.621 0 0m1.879-2.856c.385.257.388.809-.007 1.412-.394.598-.905.809-1.286.561-.374-.244-.385-.805 0-1.394.407-.616.91-.827 1.293-.579" style="fill:#231f20;fill-opacity:1;fill-rule:nonzero;stroke:none" transform="matrix(2.76591 0 0 -2.76591 116.002 134.384)"/><path d="m0 0-.337-.322.861-.897a.234.234 0 0 0 0-.327l-.49-.464c-.08-.083-.232-.078-.322.013L-2.934.768a.234.234 0 0 0 0 .322l1.147 1.09c.59.561 1.328.911 2.031.17.309-.327.389-.667.239-1.246.84.193 1.082-.313 1.641-.754.116-.102.121-.245.018-.35l-.62-.598C1.041-.294.592.565 0 0m-1.552.952L-.978.35l.463.441c.212.207.295.382.049.644-.241.248-.43.147-.622-.033z" style="fill:#231f20;fill-opacity:1;fill-rule:nonzero;stroke:none" transform="matrix(2.76591 0 0 -2.76591 130.264 133.277)"/><path d="m0 0 1.592 2.194c.069.092.217.12.325.046l.519-.377c.095-.073.124-.23.056-.322L1.419.069l.444-.317.905 1.242c.065.096.221.115.318.041l.386-.281c.1-.068.13-.22.056-.321L2.629-.805l.462-.34L4.19.373c.072.092.226.11.321.041l.52-.372a.242.242 0 0 0 .06-.322L3.46-2.525a.234.234 0 0 0-.325-.041L.053-.322A.233.233 0 0 0 0 0" style="fill:#231f20;fill-opacity:1;fill-rule:nonzero;stroke:none" transform="matrix(2.76591 0 0 -2.76591 130.053 122.311)"/><path d="M0 0c.084-.074.507-.345.4-.575L.122-1.15c-.073-.161-.237-.183-.366-.059L-3.158 1.55c-.055.051-.081.193-.052.258l.351.727c.034.069.16.137.235.128l3.968-.566c.177-.022.255-.165.179-.322l-.289-.611C1.126.943.653 1.108.537 1.123Zm-.371 1.283-1.29.23.974-.888z" style="fill:#231f20;fill-opacity:1;fill-rule:nonzero;stroke:none" transform="matrix(2.76591 0 0 -2.76591 146.284 115.861)"/></svg>