<svg xmlns="http://www.w3.org/2000/svg" width="176.56424mm" height="176.56329mm" viewBox="0 0 176.56424 176.56329"><path d="M20.612 662.689h94.553v-94.552H20.612Z" style="fill:#009b99;fill-opacity:1;fill-rule:evenodd;stroke:none" transform="matrix(1.86737 0 0 -1.86737 -38.49 1237.487)"/><path d="M26.86 655.287c.37.386.842.58 1.414.58.767 0 1.325-.26 1.678-.778.195-.291.302-.584.317-.879h-.96c-.064.228-.142.398-.237.514-.172.204-.426.307-.761.307a.93.93 0 0 1-.807-.432c-.198-.287-.296-.696-.296-1.221 0-.525.103-.92.31-1.182a.968.968 0 0 1 .791-.393c.33 0 .582.112.752.335.096.12.174.301.239.54h.96c-.083-.511-.292-.927-.632-1.247-.338-.322-.772-.481-1.3-.481-.653 0-1.168.216-1.542.649-.377.437-.566 1.033-.566 1.792 0 .82.214 1.451.64 1.896zM30.658 651.074v4.711h.962v-1.797h1.784v1.797h.96v-4.711h-.96v2.11H31.62v-2.11zM37.051 651.786c-.38 0-.683.143-.91.43-.226.286-.34.694-.34 1.221 0 .528.114.936.34 1.222.227.287.53.43.91.43.382 0 .684-.144.908-.432.225-.288.337-.694.337-1.22 0-.527-.112-.935-.337-1.222-.224-.286-.526-.429-.908-.429m2.205 1.652c0 .86-.23 1.507-.696 1.938-.35.366-.851.549-1.512.549-.657 0-1.158-.183-1.507-.549-.468-.431-.7-1.077-.7-1.939 0-.843.232-1.49.7-1.938.349-.366.85-.55 1.507-.55.66 0 1.163.184 1.512.55.465.448.696 1.095.696 1.939zM40.6 652.522c.03-.213.088-.373.175-.48.16-.192.433-.29.818-.29.23 0 .418.027.562.078.273.097.41.278.41.546a.402.402 0 0 1-.204.36c-.135.082-.347.157-.638.22l-.495.112c-.487.11-.823.233-1.01.363-.31.217-.468.557-.468 1.022 0 .423.153.773.457 1.053.303.28.749.419 1.339.419.49 0 .908-.131 1.255-.395.347-.262.529-.645.544-1.144h-.925c-.02.282-.144.483-.373.601a1.242 1.242 0 0 1-.57.118c-.254 0-.457-.05-.607-.154a.485.485 0 0 1-.225-.427c0-.168.073-.293.222-.377.096-.055.301-.122.612-.196l.808-.195c.353-.086.618-.2.795-.342.272-.224.408-.544.408-.964 0-.431-.161-.788-.485-1.073-.327-.285-.786-.427-1.38-.427-.606 0-1.082.14-1.43.42-.347.278-.52.663-.52 1.153h.925zM43.958 655.785h.977v-2.894c0-.325.038-.56.113-.709.117-.264.37-.396.766-.396.388 0 .64.132.758.396.075.148.114.384.114.71v2.893h.977v-2.898c0-.5-.076-.89-.23-1.17-.28-.511-.821-.767-1.619-.767-.8 0-1.344.256-1.628.767-.152.28-.228.67-.228 1.17zM48.293 655.785h1.005l1.843-3.282v3.282h.892v-4.711h-.955l-1.892 3.35v-3.35h-.893zM55.513 655.287c.37.386.841.58 1.414.58.765 0 1.325-.26 1.677-.778.197-.291.303-.584.318-.879h-.961a1.39 1.39 0 0 1-.236.514c-.17.204-.427.307-.762.307a.932.932 0 0 1-.807-.432c-.197-.287-.297-.696-.297-1.221 0-.525.105-.92.313-1.182a.966.966 0 0 1 .79-.393c.33 0 .581.112.752.335.094.12.174.301.239.54h.96c-.082-.511-.294-.927-.631-1.247-.34-.322-.773-.481-1.302-.481-.653 0-1.166.216-1.541.649-.377.437-.565 1.033-.565 1.792 0 .82.212 1.451.639 1.896zM61.531 651.786c-.38 0-.683.143-.91.43-.227.286-.34.694-.34 1.221 0 .528.113.936.34 1.222.227.287.53.43.91.43.382 0 .684-.144.91-.432.223-.288.335-.694.335-1.22 0-.527-.112-.935-.335-1.222a1.098 1.098 0 0 0-.91-.429m2.206 1.652c0 .86-.233 1.507-.698 1.938-.348.366-.852.549-1.51.549-.657 0-1.16-.183-1.508-.549-.467-.431-.702-1.077-.702-1.939 0-.843.235-1.49.702-1.938.349-.366.851-.55 1.508-.55.658 0 1.162.184 1.51.55.465.448.698 1.095.698 1.939zM64.206 655.785h.96v-3.867h2.02v-.844h-2.98zM67.73 655.785h.96v-3.867h2.02v-.844h-2.98zM74.517 654.948h-2.384v-1h2.187v-.821h-2.187v-1.209h2.495v-.844H71.19v4.711h3.328zM78.192 654.31a.912.912 0 0 1-.538.673c-.159.07-.336.106-.53.106a1.14 1.14 0 0 1-.915-.429c-.24-.285-.359-.715-.359-1.288 0-.577.13-.986.389-1.226.258-.24.552-.36.88-.36.326 0 .592.094.798.282.207.19.335.439.383.745H77.23v.785h1.92v-2.524h-.634l-.098.588c-.186-.224-.352-.381-.5-.474-.257-.159-.57-.238-.942-.238-.611 0-1.112.216-1.503.647-.407.435-.61 1.028-.61 1.78 0 .763.205 1.374.616 1.835.41.459.954.688 1.632.688.585 0 1.055-.151 1.412-.454.356-.304.56-.683.61-1.136zM83.156 654.948H80.77v-1h2.188v-.821H80.77v-1.209h2.496v-.844h-3.44v4.711h3.33zM37.244 645.064c.029-.214.086-.374.174-.48.16-.192.432-.29.818-.29.23 0 .418.026.56.077.275.098.412.28.412.545a.403.403 0 0 1-.205.36c-.134.083-.348.158-.639.222l-.494.112c-.487.11-.824.232-1.01.362-.31.218-.466.558-.466 1.022 0 .422.152.774.456 1.053.303.279.749.42 1.337.42.492 0 .911-.132 1.258-.396.346-.262.527-.644.542-1.144h-.925c-.019.282-.142.483-.37.601-.154.08-.344.119-.572.119-.254 0-.457-.051-.608-.153a.494.494 0 0 1-.225-.429c0-.168.074-.293.222-.377.097-.054.301-.12.612-.196l.808-.195c.354-.086.618-.2.794-.343.275-.22.412-.543.412-.962 0-.431-.164-.788-.489-1.074-.324-.284-.785-.426-1.38-.426-.604 0-1.08.14-1.428.419-.346.279-.52.664-.52 1.153h.926zM41.125 647.83c.37.384.84.579 1.413.579.767 0 1.326-.26 1.678-.78.197-.29.302-.583.316-.877h-.96c-.063.227-.14.397-.236.513-.171.204-.426.307-.76.307a.933.933 0 0 1-.809-.431c-.197-.287-.297-.695-.297-1.221 0-.526.106-.921.314-1.183a.964.964 0 0 1 .79-.393c.33 0 .58.112.751.335.095.12.175.301.238.542h.962c-.084-.512-.293-.928-.632-1.249-.34-.321-.772-.48-1.303-.48-.652 0-1.166.216-1.54.65-.378.434-.565 1.031-.565 1.79 0 .82.213 1.451.64 1.897zM45.888 643.616h-.96v4.71h.96zM49.985 647.489h-2.384v-1.001h2.187v-.82h-2.187v-1.209h2.497v-.843h-3.44v4.71h3.327zM50.63 648.326h1.004l1.842-3.281v3.28h.893v-4.71h-.956l-1.89 3.352v-3.351h-.893zM55.472 647.83c.37.384.84.579 1.412.579.767 0 1.326-.26 1.678-.78.197-.29.303-.583.317-.877h-.96a1.415 1.415 0 0 1-.235.513c-.173.204-.426.307-.762.307a.927.927 0 0 1-.807-.431c-.199-.287-.297-.695-.297-1.221 0-.526.103-.921.31-1.183a.971.971 0 0 1 .793-.393c.329 0 .58.112.751.335.095.12.175.301.238.542h.96c-.082-.512-.292-.928-.63-1.249-.338-.321-.774-.48-1.302-.48-.654 0-1.167.216-1.54.65-.378.434-.567 1.031-.567 1.79 0 .82.214 1.451.641 1.897zM62.713 647.489h-2.384v-1.001h2.187v-.82h-2.187v-1.209h2.495v-.843h-3.44v4.71h3.329zM27.602 639.79c0 .144.053.249.163.315a.41.41 0 0 0 .228.069c.13 0 .226-.04.291-.117a.394.394 0 0 0 .096-.264.542.542 0 0 0-.159-.377 1.664 1.664 0 0 0-.276-.229 4.909 4.909 0 0 0-.253.331.504.504 0 0 0-.09.271m-1.382-2.397c0-.343.133-.656.4-.936.266-.281.634-.422 1.105-.422.315 0 .591.064.831.19.136.071.28.18.436.327l.321-.402h1.076l-.833 1.022c.148.197.254.38.319.544.119.294.187.583.204.868h-.788a1.401 1.401 0 0 0-.241-.77l-.66.82c.249.148.439.31.568.48.13.174.195.399.195.676a.98.98 0 0 1-.324.759c-.215.197-.49.296-.822.296-.359 0-.653-.097-.88-.29-.227-.194-.34-.461-.34-.805 0-.172.035-.337.108-.499.072-.159.174-.317.306-.47l-.096-.06c-.314-.197-.54-.399-.678-.6a1.26 1.26 0 0 1-.207-.728m.892.027c0 .139.036.265.109.38.072.116.222.249.446.4l.86-1.068a1.198 1.198 0 0 0-.321-.232.905.905 0 0 0-.422-.104.642.642 0 0 0-.484.196.606.606 0 0 0-.188.428zM35.714 640.869v-.836h-1.388v-3.875h-.971v3.875h-1.389v.836zM39.53 640.033h-2.385v-1.002h2.188v-.82h-2.188v-1.209h2.497v-.844h-3.44v4.71h3.328zM40.534 640.371c.37.386.841.58 1.414.58.765 0 1.325-.26 1.677-.778.196-.29.302-.584.318-.878h-.962c-.062.226-.14.397-.235.513-.172.204-.426.307-.762.307a.93.93 0 0 1-.806-.43c-.199-.289-.298-.696-.298-1.222s.103-.921.312-1.183a.967.967 0 0 1 .79-.393c.331 0 .581.112.753.335.096.12.173.301.238.542h.962c-.084-.512-.295-.929-.633-1.25-.339-.32-.773-.48-1.301-.48-.653 0-1.167.216-1.542.65-.376.436-.564 1.032-.564 1.792 0 .82.211 1.45.639 1.895zM44.331 636.158v4.71h.961v-1.796h1.783v1.797h.963v-4.711h-.963v2.111h-1.783v-2.111zM48.668 640.869h1.005l1.842-3.281v3.28h.893v-4.71h-.956l-1.891 3.352v-3.352h-.893zM55.026 636.871c-.38 0-.684.142-.91.428-.227.287-.341.695-.341 1.222 0 .53.114.937.34 1.223.227.287.53.429.911.429s.683-.143.91-.43c.223-.288.335-.695.335-1.222s-.112-.935-.336-1.222a1.096 1.096 0 0 0-.909-.428m2.205 1.65c0 .863-.232 1.509-.698 1.94-.348.365-.85.547-1.51.547-.657 0-1.158-.182-1.507-.548-.468-.43-.7-1.076-.7-1.939 0-.842.232-1.49.7-1.938.349-.365.85-.549 1.506-.549.66 0 1.163.184 1.511.549.466.448.698 1.096.698 1.938zM57.61 640.869h.96v-3.867h2.11v-.844h-3.07zM62.905 636.871c-.381 0-.686.142-.912.428-.226.287-.34.695-.34 1.222 0 .53.114.937.34 1.223.226.287.53.429.912.429.38 0 .682-.143.907-.43.224-.288.336-.695.336-1.222s-.112-.935-.336-1.222a1.094 1.094 0 0 0-.907-.428m2.203 1.65c0 .863-.232 1.509-.697 1.94-.349.365-.851.547-1.51.547-.658 0-1.16-.182-1.508-.548-.468-.43-.7-1.076-.7-1.939 0-.842.232-1.49.7-1.938.348-.365.85-.549 1.507-.549.66 0 1.162.184 1.51.549.466.448.698 1.096.698 1.938zM68.863 639.395c-.073.32-.253.545-.537.671a1.286 1.286 0 0 1-.532.107 1.14 1.14 0 0 1-.915-.428c-.238-.286-.358-.715-.358-1.288 0-.577.13-.987.388-1.228.258-.239.552-.358.882-.358.326 0 .591.094.798.283.207.188.334.436.382.742h-1.069v.787h1.922v-2.525h-.636l-.098.588c-.186-.223-.352-.382-.5-.472-.257-.16-.571-.24-.942-.24-.61 0-1.112.216-1.503.648-.406.434-.61 1.027-.61 1.781 0 .762.205 1.372.615 1.832.411.46.955.69 1.633.69.585 0 1.055-.151 1.412-.455.356-.303.56-.682.61-1.135zM72.739 640.869h1.092l-1.542-2.932v-1.78h-.96v1.763l-1.595 2.949h1.134l.952-2.053zM28.432 644.328c-.38 0-.683.143-.911.43-.226.287-.34.692-.34 1.221 0 .528.114.937.34 1.223.228.286.53.428.91.428.382 0 .685-.143.91-.43.225-.289.336-.695.336-1.22 0-.53-.111-.935-.337-1.222-.224-.287-.527-.43-.908-.43m2.206 1.651c0 .862-.233 1.508-.699 1.938-.347.367-.85.55-1.51.55-.656 0-1.159-.183-1.508-.55-.466-.43-.7-1.076-.7-1.938 0-.845.234-1.49.7-1.938.349-.365.852-.55 1.508-.55.66 0 1.163.185 1.51.55.466.448.7 1.093.7 1.938zM31.083 648.276h3.276v-.827h-2.316v-1.085h2.025v-.82h-2.025v-1.977h-.96zM26.22 632.555c.347 0 .663.062.948.202.287.136.46.361.525.681h.665v-5.317h-.9v3.753h-1.237ZM30.177 629.456a.877.877 0 0 1 .225-.53.68.68 0 0 1 .51-.2c.447 0 .73.218.845.653.115.43.18.824.2 1.174l-.014.014a1.168 1.168 0 0 0-.45-.473 1.25 1.25 0 0 0-.635-.166c-.478 0-.863.163-1.155.49-.293.327-.44.76-.44 1.304 0 .517.151.947.454 1.295.302.348.732.522 1.29.522.712 0 1.187-.272 1.423-.81.238-.542.356-1.195.356-1.974 0-.633-.14-1.252-.42-1.849-.277-.597-.772-.9-1.484-.9-.4 0-.75.136-1.048.403-.298.268-.46.615-.483 1.047h.826m.784 3.36c-.296 0-.518-.107-.663-.328a1.347 1.347 0 0 1-.214-.76c0-.289.071-.545.214-.77.145-.231.367-.346.663-.346.312 0 .546.115.697.337.15.226.227.487.227.78 0 .284-.076.533-.227.757-.151.223-.385.33-.697.33zM36.226 632.086a.847.847 0 0 1-.219.528c-.127.136-.297.201-.511.201-.455 0-.739-.219-.851-.649-.111-.43-.18-.825-.205-1.175l.016-.014c.11.209.266.364.46.473.197.104.405.16.631.16.5 0 .893-.174 1.174-.51.282-.342.421-.766.421-1.276 0-.518-.153-.952-.46-1.301-.308-.344-.716-.518-1.224-.518-.74 0-1.234.269-1.475.81-.242.54-.363 1.196-.363 1.975 0 .632.139 1.247.417 1.849.277.598.775.9 1.488.9.4 0 .75-.136 1.046-.4.297-.264.456-.618.475-1.053h-.82m-.796-3.36c.296 0 .52.117.665.343.147.227.22.483.22.768 0 .285-.073.537-.22.758-.145.218-.369.326-.665.326-.3 0-.524-.104-.679-.319a1.29 1.29 0 0 1-.229-.765c0-.292.076-.55.229-.772.155-.225.38-.34.679-.34zM39.378 631.229c.275-.012.528.044.767.166.235.121.354.348.354.667a.711.711 0 0 1-.22.545.783.783 0 0 1-.564.208c-.283 0-.495-.114-.637-.336a1.362 1.362 0 0 1-.205-.75h-.828c.025.517.185.947.477 1.292.294.347.697.518 1.208.518.39 0 .755-.123 1.09-.36.338-.235.507-.59.507-1.062 0-.264-.059-.497-.176-.702a1.002 1.002 0 0 0-.542-.438v-.013c.288-.063.512-.216.674-.452.162-.244.242-.536.242-.88 0-.503-.178-.9-.53-1.191a1.915 1.915 0 0 0-1.257-.436c-.586 0-1.027.17-1.322.511-.296.345-.449.794-.457 1.342h.82c-.01-.323.065-.59.226-.806.161-.215.404-.327.733-.327.273 0 .502.084.689.25.185.165.278.397.278.702 0 .417-.139.676-.418.776a2.39 2.39 0 0 1-.91.129v.647zM75.445 596.86v3.75h-4.996v3.126h4.996v3.75h-4.996v2.578h4.996v3.75h-8.122a3.125 3.125 0 0 1-3.125-3.124v-13.83zM96.039 596.86v3.75h4.996v3.126H96.04v3.75h4.996v2.578H96.04v3.75h8.121c1.726 0 3.126-1.398 3.126-3.124v-13.83zM93.597 610.064H88.46a6.075 6.075 0 0 1 5.165-6.12v-5.39a12.769 12.769 0 0 0-7.882 5.434 12.766 12.766 0 0 0-7.88-5.434v5.39a6.076 6.076 0 0 1 5.163 6.12h-5.137v3.75h15.71zM82.492 594.434v3.75h6.5v-3.75h15.15a3.126 3.126 0 0 0 3.127-3.124V576.02h-6.252v14.662H70.402v-14.662H64.15v15.289a3.125 3.125 0 0 0 3.125 3.124zM95.563 626.42l-1.862-6.427h13.585v-3.75H64.198v3.75h22.924l.898 2.678H76.686l1.733 6.033H64.2v3.75h43.087v-3.75H84.998l-.769-2.283z" style="fill:#fff;fill-opacity:1;fill-rule:evenodd;stroke:none" transform="matrix(1.86737 0 0 -1.86737 -38.49 1237.487)"/><path d="M88.928 586.9h3.055v2.002h5.311v-7.949h-5.31v2.764h-3.056zM80.271 579.082v2.018h-5.31v-2.7a2.5 2.5 0 0 1 2.5-2.5h19.833v3.182zM77.74 588.902a5.524 5.524 0 0 0-4.82-4.181v-3.484a9.409 9.409 0 0 1 7.35 3.034 9.409 9.409 0 0 1 7.348-3.034v3.484a5.525 5.525 0 0 0-4.817 4.18z" style="fill:#fff;fill-opacity:1;fill-rule:evenodd;stroke:none" transform="matrix(1.86737 0 0 -1.86737 -38.49 1237.487)"/></svg>