<svg xmlns="http://www.w3.org/2000/svg" width="171.96602mm" height="172.08902mm" viewBox="0 0 171.96602 172.08902"><path d="m319.855 205.076-25.172-10.929-11.933-5.172-11.947 5.102-25.713 10.999h-.283v.115l-.055.023.055.144v9.164h75.465v-9.446zm-50.731 0 13.604-5.816 13.397 5.816zM257.566 218.045h8.048v22.018c0 4.629-.264 8.155-.787 10.555-.522 2.432-1.58 4.473-3.166 6.146-1.593 1.678-3.622 2.522-6.103 2.522-2.62 0-4.653-.558-6.096-1.671-1.439-1.105-2.553-2.723-3.333-4.846-.783-2.116-1.246-4.757-1.39-7.874l7.659-1.668c.014 1.81.111 3.152.298 4.009.198.859.51 1.553.961 2.062.307.356.746.546 1.315.546.898 0 1.554-.523 1.962-1.566.425-1.048.632-2.796.632-5.25zM268.871 218.045h15.017c2.503 0 4.422.973 5.759 2.919 1.348 1.925 2.017 4.311 2.017 7.152 0 2.398-.482 4.46-1.43 6.154a6.753 6.753 0 0 1-2.794 2.706c1.854.695 3.225 1.908 4.097 3.603.881 1.708 1.317 3.863 1.317 6.445 0 2.102-.31 3.986-.933 5.666-.627 1.681-1.48 3.013-2.568 3.998-.672.634-1.693 1.057-3.043 1.312-1.806.364-3.01.544-3.601.544h-13.838zm8.087 15.858h3.506c1.251 0 2.117-.341 2.613-1.017.483-.668.728-1.638.728-2.898 0-1.193-.245-2.105-.728-2.766-.496-.653-1.352-.986-2.567-.986h-3.552zm0 15.941h4.09c1.377 0 2.351-.379 2.916-1.136.569-.761.855-1.786.855-3.071 0-1.216-.286-2.172-.844-2.893-.559-.735-1.544-1.083-2.947-1.083h-4.07zM312.224 218.045h7.993v24.147c0 2.403-.238 4.664-.717 6.801-.475 2.132-1.227 3.995-2.249 5.584-1.024 1.583-2.096 2.709-3.221 3.355-1.546.894-3.426 1.354-5.609 1.354-1.269 0-2.647-.135-4.141-.404-1.493-.272-2.738-.821-3.749-1.649-1.008-.824-1.921-1.997-2.755-3.506a15.846 15.846 0 0 1-1.707-4.675c-.498-2.585-.747-4.871-.747-6.86v-24.147h7.997v24.743c0 2.231.392 3.953 1.182 5.19.794 1.24 1.882 1.856 3.281 1.856 1.381 0 2.473-.604 3.261-1.83.783-1.228 1.181-2.967 1.181-5.216zM320.137 261.661v9.452h-75.471v-9.452z" style="fill:#9b2c35;stroke:none" transform="matrix(.7365 0 0 .7365 -121.534 -76.152)"/><path d="M270.233 160.657c2.237 0 4.04 1.72 4.04 3.856s-1.803 3.871-4.04 3.871c-2.225 0-4.037-1.735-4.037-3.871s1.812-3.856 4.037-3.856zM282.622 143.008c14.655 0 26.529 11.874 26.529 26.53 0 .158 0 .327-.003.488v22.087l-9.303-3.889v-18.636h-.07c0-.018.005-.033.005-.05 0-9.477-7.685-17.15-17.158-17.15a17.085 17.085 0 0 0-11.158 4.132l-6.643-6.394v-.262a26.455 26.455 0 0 1 17.801-6.856zM255.378 141.033l9.306 8.951.137.142v37.642h-9.443z" style="fill:#a48554;stroke:none" transform="matrix(.7365 0 0 .7365 -121.534 -76.152)"/><path d="M279.647 167.453c.777-1.771 3.01-2.56 4.977-1.768 1.971.794 2.939 2.873 2.162 4.646l-7.544 17.445h-8.426zM336.794 192.585v-.017a4.714 4.714 0 0 0-4.72-4.728 4.723 4.723 0 0 0-4.728 4.728c0 .027.004.057.004.086v78.54h9.444zM237.924 192.792h-.007v-.023a4.728 4.728 0 0 0-4.726-4.731 4.73 4.73 0 0 0-4.72 4.731v78.425h9.453z" style="fill:#a48554;stroke:none" transform="matrix(.7365 0 0 .7365 -121.534 -76.152)"/><path d="M221.947 210.078v-17.534h.016c.024-6.303 5.149-11.405 11.458-11.405 6.314 0 11.439 5.102 11.462 11.405h.017v4.375l9.456-3.941v-.462h-.026c-.04-11.513-9.383-20.829-20.909-20.829-11.527 0-20.877 9.332-20.907 20.857h-.011v78.65h9.444zM352.882 192.516h-.025c-.036-11.513-9.38-20.829-20.904-20.829-11.532 0-20.883 9.332-20.91 20.857h-.008v.318l9.45 4.116v-4.434h.011c.019-6.309 5.147-11.407 11.457-11.407 6.312 0 11.431 5.098 11.467 11.407h.011v78.65h9.451z" style="fill:#a48554;stroke:none" transform="matrix(.7365 0 0 .7365 -121.534 -76.152)"/><path d="m165.05 215.545-.036-3.001 14.849-.166c2.122-.017 3.876.692 5.275 2.152 1.397 1.451 2.103 3.109 2.126 4.984.016 1.838-.635 3.512-1.979 4.99-1.342 1.472-3.045 2.214-5.125 2.239l-.036-3.051c1.236.121 2.32-.234 3.264-1.055.944-.836 1.408-1.879 1.393-3.123-.014-1.327-.496-2.346-1.45-3.065-.951-.719-1.914-1.083-2.875-1.065zM169.48 201.937c-1.811-2.568-2.448-5.396-1.911-8.486.535-3.074 2.095-5.518 4.669-7.312 2.577-1.807 5.406-2.436 8.472-1.902 3.09.537 5.543 2.093 7.345 4.662 1.8 2.566 2.433 5.382 1.903 8.46-.544 3.088-2.094 5.541-4.662 7.346-2.571 1.796-5.403 2.436-8.489 1.885-3.07-.526-5.513-2.085-7.327-4.653zm2.258-1.594c1.373 1.946 3.221 3.11 5.544 3.53 2.342.397 4.483-.075 6.418-1.444 1.944-1.352 3.112-3.195 3.521-5.55.411-2.329-.067-4.459-1.429-6.397-1.363-1.933-3.211-3.103-5.557-3.517-2.33-.404-4.46.085-6.404 1.432-1.952 1.369-3.123 3.197-3.527 5.536-.409 2.336.065 4.474 1.434 6.41zM177.56 174.564c-1.092-2.951-.977-5.851.335-8.696 1.316-2.837 3.437-4.786 6.39-5.864 2.963-1.082 5.851-.971 8.683.336 2.843 1.321 4.81 3.452 5.898 6.399 1.085 2.942.974 5.832-.338 8.667-1.315 2.838-3.447 4.808-6.393 5.89-2.94 1.087-5.841.963-8.691-.341-2.828-1.307-4.79-3.437-5.884-6.391zm2.595-.952c.83 2.221 2.316 3.83 4.458 4.815 2.153.995 4.345 1.098 6.575.27 2.216-.815 3.825-2.297 4.822-4.466.989-2.14 1.075-4.312.259-6.539-.82-2.221-2.311-3.834-4.465-4.829-2.142-.993-4.331-1.078-6.558-.263-2.233.809-3.84 2.302-4.824 4.433-1.004 2.155-1.092 4.349-.267 6.579zM190.454 147.567l19.991 2.849-13.045-11.052 1.915-2.258 16.499 13.965-2.223 2.626-19.94-2.83 13.004 11.016-1.93 2.271-16.5-13.965zM224.253 126.986c-1.138-.629-2.591-1.019-4.351-1.151-1.755-.127-3.475.447-5.179 1.737-1.834 1.381-2.932 3.241-3.317 5.578-.385 2.348.167 4.492 1.64 6.449 1.499 1.979 3.434 3.097 5.808 3.349 2.373.24 4.453-.309 6.243-1.657 1.954-1.47 3.043-3.211 3.277-5.214.238-1.995.073-3.626-.482-4.887l-7.522 5.696-1.516-2.015 9.931-7.496c2.113 2.797 2.897 5.745 2.351 8.825-.555 3.087-2.009 5.527-4.372 7.308-2.494 1.892-5.309 2.623-8.425 2.18-3.112-.444-5.61-1.909-7.506-4.415-1.881-2.484-2.603-5.283-2.176-8.405.428-3.114 1.889-5.628 4.389-7.517 2.035-1.533 4.312-2.301 6.809-2.296 2.507.012 4.742.735 6.718 2.184zM234.162 113.272c1.881-.909 3.582-1.087 5.099-.537 1.512.545 2.577 1.461 3.192 2.745.572 1.188.687 2.306.348 3.354-.345 1.036-.529 1.594-.562 1.644.003.016.719.158 2.125.435 1.41.264 2.505 1.208 3.281 2.83 1.078 2.243 1.037 4.136-.121 5.675-1.155 1.541-2.323 2.591-3.498 3.156l-7.103 3.399-9.373-19.538zm-.148 9.917 4.415-2.113c.775-.376 1.286-.965 1.53-1.773.247-.817.19-1.606-.177-2.364-.412-.855-1.004-1.434-1.784-1.727-.777-.296-1.56-.257-2.35.131l-4.382 2.101zm4.432 9.247 4.794-2.299c.756-.364 1.356-1.044 1.764-2.028.414-.998.374-2.002-.118-3.038-.495-1.039-1.254-1.71-2.262-2.021-1.012-.316-1.918-.296-2.709.094l-4.812 2.303zM250.414 107.642l3.216 13.976c.255 1.136.964 2.172 2.109 3.109 1.152.945 2.554 1.22 4.218.834 1.663-.383 2.808-1.241 3.435-2.59.614-1.341.802-2.582.539-3.722l-3.221-13.98 2.682-.619 3.169 13.786c.415 1.799.135 3.712-.836 5.737-.968 2.018-2.716 3.319-5.216 3.896-2.457.562-4.569.146-6.34-1.251-1.771-1.41-2.856-2.999-3.264-4.782l-3.17-13.783zM285.943 103.6l-1.112 14.313c-.088 1.154.275 2.352 1.092 3.597.813 1.234 2.063 1.92 3.769 2.051 1.705.138 3.057-.348 4.056-1.445.996-1.1 1.537-2.227 1.621-3.382l1.115-14.314 2.741.212-1.1 14.102c-.14 1.837-.978 3.584-2.508 5.223-1.536 1.637-3.579 2.357-6.142 2.164-2.515-.201-4.41-1.23-5.675-3.096-1.264-1.861-1.834-3.707-1.69-5.541l1.097-14.088zM309.144 106.501l5.506 19.434 4.818-16.401 2.835.831-6.076 20.744-3.307-.972-5.488-19.377-4.802 16.361-2.865-.842 6.084-20.742zM330.979 114.152l-9.116 19.626-2.753-1.283 9.115-19.622zM352.212 127.071l-19.29 13.357-2.494-1.595 3.991-23.123 2.717 1.734-3.301 18.806 15.701-10.89zM365.392 139.027l-1.733 1.785-7.955-7.745-4.664 4.793 7.745 7.54-1.733 1.773-7.745-7.538-5.216 5.354 8.135 7.936-1.726 1.777-10.322-10.042 15.081-15.492zM366.834 157.575c.689.936 1.63 1.512 2.804 1.747 1.186.233 2.292-.037 3.321-.808 1.057-.784 1.657-1.789 1.778-2.996.12-1.212-.163-2.273-.85-3.193l-3.311-4.456-15.538 11.567-1.671-2.247 17.34-12.902 5.284 7.102c.99 1.333 1.405 2.921 1.242 4.767-.153 1.859-1.03 3.382-2.631 4.568-1.585 1.177-3.307 1.53-5.171 1.061-1.866-.473-3.257-1.322-4.181-2.566l-2.641 10.395-1.992-2.681 3.25-13.339zM384.277 173.052c.638-1.004.666-2.181.076-3.514-.532-1.208-1.291-1.993-2.275-2.359-.991-.364-1.898-.364-2.718-.007-1.032.454-1.494 1.552-1.373 3.279.113 1.727.163 3.161.137 4.282a19.286 19.286 0 0 1-.405 4.098c-.285 1.34-1.256 2.371-2.899 3.098-1.53.675-3.194.631-4.996-.137-1.799-.77-3.134-2.13-3.988-4.072-1.019-2.326-1.071-4.421-.157-6.274.916-1.852 2.125-3.116 3.628-3.769l1.209 2.757c-1.209.476-2.063 1.31-2.544 2.485-.487 1.191-.428 2.44.152 3.767.624 1.411 1.481 2.28 2.565 2.606 1.082.323 2.023.309 2.817-.038.947-.423 1.496-1.114 1.646-2.083.154-.976.23-1.988.246-3.049a83.71 83.71 0 0 0-.084-5.418c-.096-1.992.798-3.393 2.689-4.221 1.531-.682 3.15-.625 4.871.154 1.718.771 2.977 2.069 3.773 3.886.854 1.928.922 3.746.231 5.459-.699 1.728-1.762 2.955-3.185 3.702l-1.205-2.735c.565-.262 1.16-.896 1.789-1.897zM392.793 183.762l-20.705 6.276-.883-2.903 20.709-6.287zM374.065 198.432l18.68-4.137-1.311-5.932 2.42-.529 3.293 14.857-2.42.532-1.325-5.957-18.681 4.138zM398.477 211.096l-10.682 5.956 10.615 6.091-.02 3.404-13.798-7.98-7.777-.04.023-3.041 7.77.042 13.895-7.82zM191.305 264.135l.154.156c.79.787 1.198 1.747 1.231 2.886.04 1.146-.328 2.098-1.094 2.867-.809.823-1.778 1.245-2.902 1.246-1.128 0-2.106-.395-2.924-1.206-.802-.801-1.223-1.761-1.261-2.869-.033-1.115.348-2.068 1.145-2.875a4.187 4.187 0 0 1 2.829-1.266c1.104-.064 2.049.295 2.822 1.061zM373.732 264.466l.155-.161c.786-.784 1.754-1.199 2.891-1.229 1.142-.025 2.103.345 2.87 1.114.82.814 1.225 1.789 1.225 2.918 0 1.125-.405 2.095-1.225 2.917-.801.792-1.753 1.213-2.87 1.246-1.111.028-2.066-.365-2.866-1.155a4.197 4.197 0 0 1-1.254-2.841c-.054-1.106.307-2.044 1.074-2.809zM229.168 295.922c-.064.672.056 2.178 1.211 3.283.911.857 2.444 2.068 4.609 3.634l-1.877 2.765-.335-.262c-2.306-1.639-3.984-2.936-5.037-3.863-1.748-1.603-2.737-2.982-2.951-4.121-1.157.211-2.825-.21-5.007-1.282-1.239-.615-3.04-1.693-5.403-3.219l-.318-.176 1.875-2.764c2.292 1.48 3.973 2.481 5.054 2.983 1.447.672 2.906.201 3.512-.145l-7.18-4.878 1.76-2.589 19.05 12.92-1.767 2.607zm-5.257 13.595c.201 1.721-.194 3.314-1.168 4.75-1.179 1.737-2.841 2.731-4.994 2.984-2.008.227-3.853-.234-5.527-1.359-1.724-1.178-2.861-2.747-3.41-4.7-.565-2.067-.238-3.977.953-5.732.978-1.445 2.303-2.394 3.975-2.848 1.542-.396 3.122-.321 4.749.22l.82-1.195-8.459-5.749 1.879-2.763 20.459 13.893-1.873 2.757-8.504-5.776-.841 1.227c1.084 1.295 1.724 2.731 1.941 4.291zm-8.368-3.334c-1.017.154-1.824.684-2.407 1.553-.586.847-.759 1.781-.535 2.785a3.7 3.7 0 0 0 1.576 2.319c.8.54 1.704.744 2.716.596 1.03-.161 1.837-.662 2.416-1.511.593-.87.767-1.816.525-2.83-.24-.973-.765-1.727-1.573-2.28-.813-.553-1.723-.766-2.718-.632zM260.801 317.33c-.259.798-.619 1.318-1.058 1.559-.402.192-.911.177-1.53-.02l-18.153-5.944c-.639-.21-1.047-.504-1.246-.893-.19-.44-.163-1.062.105-1.875l2.908-8.874 3.861 1.269-.734 2.248 14.153 4.635.739-2.254 3.859 1.268zm-17.561-7.308 14.156 4.633.666-2.028-14.157-4.626zm-1.007 20.332 3.029-9.242-9.775-3.204 1.175-3.592 23.496 7.692-1.172 3.588-9.831-3.22-3.026 9.256zM272.852 326.088h9.429v-16.447h3.847v8.007h1.676v-8.007h3.938v27.402h-3.938v-15.56h-1.676v15.569h-3.847v-7.195h-11.589c-.687 0-1.178-.141-1.486-.448-.318-.364-.482-.966-.482-1.816v-17.952h11.588v3.776h-7.46zM312.066 309.197c.361.311.666.653.91 1.024.289.425.493.877.627 1.336.491 1.802.235 3.476-.791 5.043-.937 1.449-2.262 2.413-3.976 2.879-1.736.48-3.398.347-4.968-.413-1.693-.82-2.788-2.118-3.276-3.909a5.928 5.928 0 0 1-.211-1.428c.04-.471.137-.937.281-1.394l-1.611.439-.948-3.419 5.263-1.449-.626-2.279 4.221-1.167.633 2.283 5.162-1.43.946 3.424zm-7.305 2.811c-.395.656-.481 1.351-.28 2.09.194.704.626 1.233 1.293 1.592a2.596 2.596 0 0 0 2.086.273c.705-.184 1.244-.623 1.628-1.3.386-.644.482-1.324.285-2.036a2.555 2.555 0 0 0-1.298-1.647 2.764 2.764 0 0 0-2.053-.218c-.734.208-1.292.619-1.661 1.246zm17.421-2.163 1.315 4.761-3.949 1.084-3.398-12.326 3.951-1.079 1.081 3.915 3.186-.887 1.008 3.645zm5.21 18.856-3.961 1.086-2.336-8.477-16.927 4.664-1.003-3.639 20.871-5.759zM357.711 305.25l2.166 3.089-20.247 14.179-2.174-3.097 3.184-2.229-6.97-9.962 3.358-2.352 6.965 9.967 2.344-1.64-6.97-9.97 3.35-2.345 6.98 9.968 3.025-2.115-10.6-15.135-14.066 9.842-2.169-3.096 17.423-12.187 12.758 18.228z" style="fill:#9b2c35;stroke:none" transform="matrix(.7365 0 0 .7365 -121.534 -76.152)"/></svg>