<svg xmlns="http://www.w3.org/2000/svg" width="177.65808mm" height="177.64177mm" viewBox="0 0 177.65808 177.64177"><path fill="#ffde09" d="M-50.022 95.018a19.56 19.56 0 0 0-7.405 3.208v11.666h7.405z" style="stroke-width:3.46811" transform="translate(196.692 -178.543) scale(2.35198)"/><path fill="#0096da" d="M-46.135 133.812c3.004 0 5.84-.697 8.393-1.907h-16.782a19.455 19.455 0 0 0 8.393 1.907m-11.865-35.156a19.577 19.577 0 0 0-7.238 11.236h7.238z" style="stroke-width:3.46811" transform="translate(196.692 -178.543) scale(2.35198)"/><path fill="#fdb920" d="M-33.695 99.093v10.8h6.652a19.616 19.616 0 0 0-6.652-10.8" style="stroke-width:3.46811" transform="translate(196.692 -178.543) scale(2.35198)"/><path fill="#e2262b" d="M-49.45 109.892h7.21v-14.87a19.956 19.956 0 0 0-3.891-.39 19.075 19.075 0 0 0-3.7.365h.38z" style="stroke-width:3.46811" transform="translate(196.692 -178.543) scale(2.35198)"/><path fill="#fff" d="M-34.263 98.663a19.512 19.512 0 0 0-7.412-3.496v14.725h7.412zm-28.054 26.6h32.323v.052c.506-.739.957-1.519 1.36-2.33h-35.008c.403.79.833 1.553 1.325 2.278" style="stroke-width:3.46811" transform="translate(196.692 -178.543) scale(2.35198)"/><path fill="#fdb920" d="M-45.857 76.488c-20.545 0-37.2 16.647-37.2 37.185 0 20.545 16.655 37.195 37.2 37.195s37.195-16.647 37.195-37.195c0-20.538-16.65-37.189-37.195-37.189m21.287 56.222-5.271-5.272-3.094 3.08 5.272 5.278a27.953 27.953 0 0 1-16.186 6.649v-7.405h-4.37v7.394a27.991 27.991 0 0 1-16.095-6.728l5.184-5.192-3.09-3.083-5.174 5.178a28.002 28.002 0 0 1-6.593-16.088h7.248v-4.37h-7.248a28.067 28.067 0 0 1 6.648-16.033l5.12 5.122 3.086-3.087-5.12-5.122a28.04 28.04 0 0 1 16.037-6.687v7.287h4.367v-7.29a27.998 27.998 0 0 1 16.123 6.596l-5.209 5.216 3.094 3.087 5.212-5.22a28.005 28.005 0 0 1 6.739 16.13h-7.443v4.37h7.446a27.988 27.988 0 0 1-6.686 16.19" style="stroke-width:3.46811" transform="translate(196.692 -178.543) scale(2.35198)"/><path fill="#0096da" d="M-65.355 110.461a19.137 19.137 0 0 0 .194 8.351h38.06c.353-1.48.561-3.006.561-4.591 0-1.284-.139-2.542-.367-3.76z" style="stroke-width:3.46811" transform="translate(196.692 -178.543) scale(2.35198)"/><path fill="#ffde09" d="M-55.655 131.336h19.04a19.64 19.64 0 0 0 3.246-2.279H-58.91a19.662 19.662 0 0 0 3.256 2.279" style="stroke-width:3.46811" transform="translate(196.692 -178.543) scale(2.35198)"/><path fill="#fdb920" d="M-63.912 122.416h35.551c.451-.971.815-1.984 1.11-3.035h-37.768c.285 1.051.649 2.064 1.103 3.035" style="stroke-width:3.46811" transform="translate(196.692 -178.543) scale(2.35198)"/><path fill="#e2262b" d="M-59.414 128.596v-.108h26.191v.437a19.902 19.902 0 0 0 2.844-3.093h-31.508c.739.999 1.56 1.925 2.473 2.764" style="stroke-width:3.46811" transform="translate(196.692 -178.543) scale(2.35198)"/><path fill="#2c292a" d="M-25.333 116.517v-4.37h7.44a27.988 27.988 0 0 0-6.736-16.13l-5.216 5.219-3.087-3.087 5.206-5.212a28.012 28.012 0 0 0-16.123-6.6v7.29h-4.367v-7.283a28.036 28.036 0 0 0-16.04 6.686l5.123 5.12-3.087 3.086-5.122-5.119a28.022 28.022 0 0 0-6.645 16.033h7.248v4.367h-7.248a27.988 27.988 0 0 0 6.59 16.088l5.177-5.174 3.087 3.083-5.181 5.185a27.988 27.988 0 0 0 16.098 6.735v-7.398h4.37v7.408a27.956 27.956 0 0 0 16.183-6.652l-5.272-5.278 3.09-3.087 5.272 5.279a27.98 27.98 0 0 0 6.686-16.19zm-8.365-17.424a19.564 19.564 0 0 1 6.652 10.8h-6.652zm-7.977-3.926a19.56 19.56 0 0 1 7.412 3.496v11.23h-7.412zm-4.46-.534c1.332 0 2.636.138 3.892.388v14.871h-7.21V95h-.382a19.102 19.102 0 0 1 3.7-.367m-11.292 3.596a19.588 19.588 0 0 1 7.405-3.208v14.871h-7.405zm-.569.427v11.236h-7.238a19.577 19.577 0 0 1 7.238-11.236m11.861 35.156c-3.013 0-5.843-.694-8.389-1.907h16.779a19.494 19.494 0 0 1-8.39 1.907m9.52-2.476h-19.04a19.519 19.519 0 0 1-3.256-2.279h25.542a19.577 19.577 0 0 1-3.246 2.279m3.389-2.407v-.437h-26.192v.104a19.48 19.48 0 0 1-2.469-2.764h31.505a19.758 19.758 0 0 1-2.844 3.097m3.228-3.614v-.052h-32.319a20.587 20.587 0 0 1-1.325-2.275h35.007a18.991 18.991 0 0 1-1.363 2.324m1.637-2.893h-35.548a18.305 18.305 0 0 1-1.106-3.034h37.76a20.024 20.024 0 0 1-1.106 3.034m1.252-3.607H-65.16a19.085 19.085 0 0 1-.194-8.347h38.44a20.32 20.32 0 0 1 .368 3.76c0 1.584-.208 3.11-.562 4.587" style="stroke-width:3.46811" transform="translate(196.692 -178.543) scale(2.35198)"/><path fill="#2c292a" d="M-83.625 113.673c0 20.826 16.945 37.767 37.768 37.767 20.822 0 37.764-16.941 37.764-37.767 0-20.82-16.942-37.761-37.768-37.761-20.819 0-37.767 16.942-37.767 37.76m1.144 0c0-20.19 16.429-36.623 36.623-36.623 20.199 0 36.63 16.432 36.63 36.624 0 20.198-16.431 36.626-36.626 36.626-20.198 0-36.627-16.428-36.627-36.623" style="stroke-width:3.46811" transform="translate(196.692 -178.543) scale(2.35198)"/><path fill="#2c292a" d="M-42.715 81.901a3.222 3.222 0 1 1-6.444 0 3.225 3.225 0 1 1 6.444 0m0 64.521a3.222 3.222 0 1 1-6.44 0 3.222 3.222 0 0 1 6.44 0m-35.486-35.49a3.225 3.225 0 1 1-.01 6.452 3.225 3.225 0 0 1 .01-6.451m64.528 0a3.225 3.225 0 1 1 0 6.45 3.225 3.225 0 0 1 0-6.45m-52.799-21.867a3.218 3.218 0 0 1 0 4.561 3.218 3.218 0 0 1-4.56 0 3.218 3.218 0 0 1 0-4.56 3.218 3.218 0 0 1 4.56 0m45.63 45.626a3.225 3.225 0 1 1-4.56 4.557 3.225 3.225 0 0 1 4.56-4.557m-50.19 0a3.226 3.226 0 1 1 4.56 4.564 3.226 3.226 0 0 1-4.56-4.564m45.63-45.627a3.218 3.218 0 0 1 4.564 0 3.24 3.24 0 0 1 0 4.561 3.218 3.218 0 0 1-4.56 0 3.211 3.211 0 0 1 0-4.56" style="stroke-width:3.46811" transform="translate(196.692 -178.543) scale(2.35198)"/><path fill="#fdb920" d="M-53.168 114.491h-8.521c-.399 0-.468.205-.468.326l.069.23.343.117h8.598c.41 0 .45-.243.45-.34v-.014c-.017-.145-.103-.319-.471-.319m-8.434-.78c.003-.007.346.08.346.08.93-.049 1.773-.208 2.504-.469.645-.232 1.062-.492 1.322-.787.263.302.68.565 1.318.787.728.257 1.578.41 2.517.451l.333-.08a.333.333 0 0 0 .167-.26l.003-.045a.298.298 0 0 0-.125-.236 3.773 3.773 0 0 1-.336-.104 6.52 6.52 0 0 1-2.424-.457c-.66-.285-.999-.618-.999-.989a.371.371 0 0 0-.166-.315l-.288-.084-.302.087a.347.347 0 0 0-.16.309c0 .374-.343.71-1.012 1.005-.687.299-1.491.451-2.404.465l-.343.1a.326.326 0 0 0-.125.254v.035c0 .048.028.17.174.253m7.158 2.209c-.666-.232-1.64-.347-2.983-.347-1.335 0-2.316.115-2.986.347-.659.222-.978.551-.978.978 0 .416.323.742.978.968.67.229 1.679.343 2.99.343 1.304 0 2.306-.114 2.979-.347.659-.222.995-.548.995-.964 0-.427-.333-.763-.995-.974m-2.983 1.591c-1.092 0-1.91-.072-2.43-.211-.282-.073-.618-.208-.618-.416 0-.219.336-.358.617-.434.52-.139 1.339-.201 2.435-.201 1.092 0 1.907.066 2.427.201.285.076.632.215.632.437 0 .205-.347.34-.632.413-.523.139-1.338.208-2.427.208m11.462-5.816a1.755 1.755 0 0 0-.944-.232h-3.263l-.357.117-.08.23c0 .1.042.343.447.343h3.274l.32.072c.048.028.069.07.069.132v.937c0 1.075-.354 1.918-1.048 2.507-.652.545-1.602.874-2.826.968l-.35.138-.063.236c.01.1.083.333.479.316 1.36-.066 2.48-.444 3.33-1.127.915-.739 1.383-1.759 1.383-3.028v-.936a.77.77 0 0 0-.371-.673m4.214 2.674h-1.069v-2.792c0-.132-.069-.229-.187-.291l-.277-.07-.288.07a.33.33 0 0 0-.174.29v6.24c0 .111.06.208.163.278l.299.093.291-.083a.323.323 0 0 0 .173-.288v-2.778h1.069c.378 0 .409-.263.409-.34 0-.104-.042-.33-.41-.33m10.325-3.152c-.416 0-.458.243-.458.35v2.834h-1.269v-2.833c0-.084-.035-.35-.472-.35-.416 0-.454.266-.454.35v4.872a.354.354 0 0 0-.156-.097c-.004-.003-.364.024-.364.024l-1.492.32-1.685.117-.42-.072c0-.021-.048-.23-.048-.23v-4.144c0-.048.01-.114.045-.145l.243-.06h2.497c.392 0 .464-.21.475-.343v-.003c0-.104-.052-.343-.472-.343h-2.507a1.48 1.48 0 0 0-.867.236.801.801 0 0 0-.333.68v4.224a.763.763 0 0 0 .367.67c.243.145.586.221 1.023.221l1.693-.09 1.783-.382.218-.16v.944c0 .122.059.229.163.298l.291.084.299-.08a.34.34 0 0 0 .173-.302v-2.733h1.27v2.75c0 .122.058.226.166.288l.291.077.285-.084c.145-.093.173-.208.173-.288v-6.249c0-.083-.035-.35-.458-.35" style="stroke-width:3.46811" transform="translate(196.692 -178.543) scale(2.35198)"/></svg>