<svg xmlns="http://www.w3.org/2000/svg" width="171.24669mm" height="171.24509mm" viewBox="0 0 171.24669 171.24509"><path d="M0 0c0-29.744-24.114-53.858-53.859-53.858-29.744 0-53.858 24.114-53.858 53.858 0 29.745 24.114 53.858 53.858 53.858C-24.114 53.858 0 29.745 0 0" style="fill:#94243a;fill-opacity:1;fill-rule:nonzero;stroke:none" transform="matrix(1.58978 0 0 -1.58978 171.247 85.623)"/><path d="M0 0a30.28 30.28 0 0 0 17.999-7.382c.519-.451.408-1.775.894-2.259.531-.526 1.657-.22 2.149-.782A30.286 30.286 0 0 0 28.43-28.69c.029-.548-.796-1.028-.796-1.582 0-.585.823-1.238.79-1.817a30.274 30.274 0 0 0-7.436-18.23c-.483-.555-1.81-.381-2.331-.897-.52-.516-.233-1.722-.791-2.201A30.251 30.251 0 0 0-.081-60.686c-.61-.036-1.27.81-1.891.81-.57 0-1.091-.85-1.653-.821a30.292 30.292 0 0 0-18.311 7.466c-.517.452-.18 1.764-.666 2.252-.482.483-1.791.143-2.24.658a30.27 30.27 0 0 0-7.424 18.005c-.041.653.609 1.224.609 1.889 0 .579-.655 1.24-.624 1.81a30.284 30.284 0 0 0 7.389 18.198c.428.49 1.677.317 2.133.778.442.45.092 1.538.562 1.959A30.296 30.296 0 0 0-4.219-.026c.756.058 1.477-1.032 2.247-1.032C-1.324-1.058-.636.038 0 0" style="fill:#193072;fill-opacity:1;fill-rule:nonzero;stroke:none" transform="matrix(1.58978 0 0 -1.58978 88.58 37.376)"/><path d="M0 0c.332.397 1.165 1.685 2.001 3.124a117.198 117.198 0 0 1 2.264 4.081c.532 1.024.643 1.37.692 1.628.049.259.237.946.803.74.565-.206.933-.456.759-.944-.174-.488-1.187-2.574-1.912-3.83l3.345.325c.451.039.073-.881-.238-1.188-.311-.307-1.698-.49-2.002-.595-.304-.105-.869-.466-.869-.466.121-.668.866-2.54.941-2.825.074-.285-.681-1.215-.891-.757-.21.458-1.08 2.119-1.278 2.42-.198.3-.263.432-.389.62C3.1 2.52 1.959.558 1.805.106 1.651-.346.777-2.155.437-2.292c-.34-.136-.793.171-1.032.484C-.834-1.495-.762-.679 0 0" style="fill:#fff;fill-opacity:1;fill-rule:evenodd;stroke:none" transform="matrix(1.58978 0 0 -1.58978 17.352 61.139)"/><path d="M0 0c.711-.447.266-.54.379-1.052-.367-.361-1.001-.182-1.286.425C-1.193-.02-.711.447 0 0m-1.956.921c-.164.062-.463.256-.537.306-.163.11-.283.216-.394.31l.201.372c.117.25 1.159 2.252 1.563 2.942.405.691 1.486 2.036 1.128 2.651-.323.555-.972.609-1.011.61-.039.002-1.455-2.731-1.731-3.129-.277-.398-1.376-2.477-1.493-2.761-.117-.284-.76-1.833-1.249-2.673-.489-.841-1.798-3.609-2.402-4.136-.604-.526-.354-1.102.205-1.355-.126.042.594-.476.898-.132.305.344.436.876.507 1.161.071.286.491 1.371.875 2.055.385.684 1.078 1.489 1.28 1.971.124.297.165.455.194.505l.046.084c.429-.21.661-.328.838-.377.061-.016.115-.033.162-.048l.006-.016a1.06 1.06 0 0 1 .018-.117c.118-.725.674-1.275 1.418-1.688.67-.371 1.64-.318 2.109.093 1.418 1.242.915 2.377.47 3.202-.445.825-1.562.775-2.106.621a3.876 3.876 0 0 1-.843-.367 1.572 1.572 0 0 1-.145-.08Z" style="fill:#fff;fill-opacity:1;fill-rule:nonzero;stroke:none" transform="matrix(1.58978 0 0 -1.58978 35.702 60.315)"/><path d="M0 0c-.304-.028-.723.049-.783.301-.034.236.361.531.92.332C.696.433.304.029 0 0m3.726 1.312c-.181.113-.886.251-1.241.468-.209.128-.543.401-.782.603.111.201.264.452.356.59.121.177.19.261.35.487.306.461.181.861-.374 1.202-.555.34-.96.265-1.216-.227C.691 4.19.643 4.092.531 3.91l-.336-.548a.785.785 0 0 0-.07.028c-.251.122-.77.44-.972.694-.336.422-.574.865-.86.983a1.09 1.09 0 0 1-1.287-.349c-.404-.5.034-.898.361-1.002.327-.102 1.684-.805 1.996-.931.313-.127.466-.513.157-.487-.308.027-1.185-.183-1.571-.759-.385-.576-.478-1.822.939-2.444 1.147-.504 2 .187 2.291.821.292.634.213 1.3-.226 1.698.384-.17 1.499-.789 2.01-1.069.51-.281.681-.321.922.019s.022.635-.159.748" style="fill:#fff;fill-opacity:1;fill-rule:evenodd;stroke:none" transform="matrix(1.58978 0 0 -1.58978 117.754 29.049)"/><path d="M0 0c-.262.161-.443.227-.667.387-.159.112-.243.212-.256.3a.595.595 0 0 0 .162.166c.144.075.474.295.764.767.289.473.283 1.257-.092 1.389-.374.132-.764.079-1.186-.345-.283-.249-.632-.978-1.094-1.572C-2.831.498-3.465-.709-3.736-1.19c-.272-.481.237-.991.816-1.053.58-.063.715.634.836.885.061.126.199.405.32.649.076.008.18-.042.316-.153.206-.17.454-.348.585-.428.351-.216.604-.178.953.392C.314-.534.387-.184 0 0" style="fill:#fff;fill-opacity:1;fill-rule:evenodd;stroke:none" transform="matrix(1.58978 0 0 -1.58978 130.967 32.644)"/><path d="M0 0c.203.331.665.502 1.483.033.818-.469 4.153-2.45 4.905-2.813.752-.364 2.685-1.452 3.276-1.814.59-.362.824-.83.634-1.722-.189-.891-.795-1.615-1.002-1.846-.206-.231-.496-.703-1.055-.555-.56.148-.864.659-.745 1.171s.895.982 1.088 1.297c.193.316.199.431.199.431S7.397-4.621 6.726-4.297c-.671.325-1.82.954-2.325 1.296-.506.343-2.042 1.123-2.678 1.253-.636.129-.991.154-1.387.462C-.06-.978-.078-.18 0 0" style="fill:#fff;fill-opacity:1;fill-rule:evenodd;stroke:none" transform="matrix(1.58978 0 0 -1.58978 109.362 28.819)"/><path d="M0 0c0 26.884 21.869 48.755 48.758 48.755 26.89 0 48.759-21.871 48.759-48.755 0-26.886-21.869-48.762-48.759-48.762C21.869-48.762 0-26.886 0 0m-3.104 0c0-28.597 23.267-51.867 51.862-51.867 28.599 0 51.864 23.27 51.864 51.867 0 28.594-23.265 51.86-51.864 51.86C20.163 51.86-3.104 28.594-3.104 0" style="fill:#fff;fill-opacity:1;fill-rule:nonzero;stroke:none" transform="matrix(1.58978 0 0 -1.58978 8.108 85.618)"/><path d="M0 0c0-.789-.639-1.419-1.423-1.419-.788 0-1.429.63-1.429 1.419s.641 1.427 1.429 1.427C-.639 1.427 0 .789 0 0" style="fill:#fff;fill-opacity:1;fill-rule:nonzero;stroke:none" transform="matrix(1.58978 0 0 -1.58978 150.547 80.955)"/><path d="M0 0c0-.789-.637-1.419-1.424-1.419A1.42 1.42 0 0 0-2.852 0c0 .789.64 1.427 1.428 1.427C-.637 1.427 0 .789 0 0" style="fill:#fff;fill-opacity:1;fill-rule:nonzero;stroke:none" transform="matrix(1.58978 0 0 -1.58978 23.46 80.955)"/><path d="m0 0 6.529 1.1-.234 1.386-6.34-1.071c-.883-.149-1.485-.187-1.794-.113-.426.081-.679.364-.759.85-.052.3.002.553.16.75.147.191.408.336.772.439l-.23 1.362c-.788-.134-1.377-.451-1.764-.95-.391-.501-.526-1.106-.408-1.823A2.45 2.45 0 0 1-3.522.734 2.614 2.614 0 0 1-2.48-.003a2.982 2.982 0 0 1 1.143-.146C-1.011-.148-.564-.098 0 0" style="fill:#fff;fill-opacity:1;fill-rule:nonzero;stroke:none" transform="matrix(1.58978 0 0 -1.58978 20.553 100.445)"/><path d="M0 0c.348.051.808.166 1.372.344L7.471 2.25l-.423 1.349L.925 1.684c-.798-.25-1.389-.329-1.774-.235-.433.091-.731.405-.9.935-.177.569-.119 1.026.18 1.367.264.291.793.562 1.589.819l6.126 1.915-.422 1.348L-.374 5.92a12.765 12.765 0 0 1-1.271-.444 3.095 3.095 0 0 1-1.021-.751 2.79 2.79 0 0 1-.657-1.36c-.083-.474-.04-.995.132-1.544.154-.497.398-.883.731-1.168.323-.277.743-.492 1.269-.632A3.478 3.478 0 0 1 0 0" style="fill:#fff;fill-opacity:1;fill-rule:nonzero;stroke:none" transform="matrix(1.58978 0 0 -1.58978 22.03 111.977)"/><path d="m0 0-6.432-3.459 4.41 7.221-.669 1.24L-11.6.207l.669-1.244 6.598 3.552-4.546-7.363.626-1.165L.655-1.218z" style="fill:#fff;fill-opacity:1;fill-rule:nonzero;stroke:none" transform="matrix(1.58978 0 0 -1.58978 38.098 116.696)"/><path d="m0 0-1.117-1.069 2.09-2.187c-.775-.295-1.473-.389-2.09-.285-.587.095-1.099.373-1.534.827-.284.298-.491.66-.619 1.079-.134.425-.18.862-.146 1.317.04.442.172.874.399 1.303.222.415.519.799.888 1.149.352.333.741.592 1.169.78a3.67 3.67 0 0 0 1.374.31c.438.019.851-.043 1.242-.193.372-.16.704-.39.994-.689.346-.368.58-.757.703-1.191.135-.437.149-.918.044-1.428l1.195-1.255c.409.926.552 1.809.43 2.651-.128.838-.507 1.594-1.134 2.25-.464.484-.966.844-1.507 1.072-.558.234-1.166.332-1.837.311a5.23 5.23 0 0 1-1.961-.416A5.904 5.904 0 0 1-3.12 3.199 6.604 6.604 0 0 1-4.333 1.64a5.396 5.396 0 0 1-.573-1.75c-.091-.725-.046-1.395.135-2.01a4.002 4.002 0 0 1 .972-1.685c.896-.946 1.994-1.386 3.294-1.328 1.321.055 2.585.61 3.8 1.68z" style="fill:#fff;fill-opacity:1;fill-rule:nonzero;stroke:none" transform="matrix(1.58978 0 0 -1.58978 37.431 127.94)"/><path d="m0 0-5.822-5.15 2.873 7.164-.863.584-5.645-5.278 2.688 7.301-1.179.808-3.469-9.881 1.041-.711 5.411 5.151-2.853-6.897 1.04-.713L1.168-.8z" style="fill:#fff;fill-opacity:1;fill-rule:nonzero;stroke:none" transform="matrix(1.58978 0 0 -1.58978 59.241 135.398)"/><path d="M0 0c-.405-.986-1.033-1.691-1.878-2.116-.849-.43-1.694-.465-2.537-.118a2.654 2.654 0 0 0-1.006.731A3.514 3.514 0 0 0-6.09-.358 3.41 3.41 0 0 0-6.256.989c.037.472.152.945.347 1.417.179.436.432.833.75 1.184.327.373.7.655 1.121.849.399.204.804.314 1.22.322.403.012.8-.066 1.189-.222a2.952 2.952 0 0 0 1.074-.738c.28-.317.497-.726.647-1.223.143-.422.205-.848.189-1.295A3.858 3.858 0 0 0 0 0m1.764 1.443a5.114 5.114 0 0 1-.319 1.963c-.23.628-.546 1.162-.953 1.599-.417.433-.913.77-1.494 1.006a4.144 4.144 0 0 1-1.755.332 4.645 4.645 0 0 1-1.762-.465 5.147 5.147 0 0 1-1.635-1.175A5.767 5.767 0 0 1-7.248 2.97a6.363 6.363 0 0 1-.473-1.91 5.41 5.41 0 0 1 .186-1.836c.213-.701.527-1.292.943-1.784A3.968 3.968 0 0 1-5.019-3.7a4.173 4.173 0 0 1 1.917-.311c.638.048 1.283.235 1.938.568.551.3 1.031.684 1.447 1.162a6.141 6.141 0 0 1 1.05 1.72c.271.664.416 1.334.431 2.004" style="fill:#fff;fill-opacity:1;fill-rule:nonzero;stroke:none" transform="matrix(1.58978 0 0 -1.58978 67.983 147.924)"/><path d="m0 0-2.905 7.944-1.395.251-1.785-9.957 1.391-.256 1.324 7.379 2.936-8.14 1.298-.235 1.788 9.958-1.363.248Z" style="fill:#fff;fill-opacity:1;fill-rule:nonzero;stroke:none" transform="matrix(1.58978 0 0 -1.58978 79.383 154.008)"/><path d="m0 0-1.406-.182.813-6.366c.106-.831.082-1.421-.076-1.785-.17-.41-.529-.65-1.082-.724-.595-.071-1.032.065-1.314.419-.242.312-.417.881-.523 1.709L-4.4-.562l-1.403-.18.809-6.34c.078-.612.151-1.055.219-1.325.121-.446.308-.825.559-1.134a2.742 2.742 0 0 1 1.223-.891c.453-.165.966-.218 1.546-.141.511.064.938.235 1.276.515.332.267.613.651.845 1.137A3.4 3.4 0 0 1 .9-7.751c.016.353-.017.822-.091 1.412z" style="fill:#fff;fill-opacity:1;fill-rule:nonzero;stroke:none" transform="matrix(1.58978 0 0 -1.58978 97.59 141.858)"/><path d="m0 0 2.37-6.912-6.403 5.528-1.338-.461 3.282-9.569 1.34.458-2.434 7.092L3.342-9.55l1.251.428L1.309.45z" style="fill:#fff;fill-opacity:1;fill-rule:nonzero;stroke:none" transform="matrix(1.58978 0 0 -1.58978 106.28 139.1)"/><path d="m0 0 4.562-9.03 1.265.638L1.265.641Z" style="fill:#fff;fill-opacity:1;fill-rule:nonzero;stroke:none" transform="matrix(1.58978 0 0 -1.58978 108.952 137.765)"/><path d="m0 0-1.835 2.139L.738 4.344l-.945 1.104-2.576-2.202-1.847 2.152 2.573 2.21-.951 1.108-3.648-3.129.008-.01-.999-.655 2.069-7.426-5.991 4.863-1.245-.823 8.4-6.589.707.46-2.544 9.708 6.169-7.196 3.647 3.128-.992 1.158z" style="fill:#fff;fill-opacity:1;fill-rule:nonzero;stroke:none" transform="matrix(1.58978 0 0 -1.58978 131.607 139.256)"/><path d="m0 0-.596-.668-2.361 2.1.63.708c.41.455.803.71 1.182.759.388.059.796-.105 1.224-.485.407-.367.598-.743.578-1.131C.642.901.424.473 0 0m1.947 1.896c-.137.616-.463 1.161-.994 1.634a3.273 3.273 0 0 1-1.363.738c-.504.149-.97.154-1.405.022a2.41 2.41 0 0 1-.915-.484 8.564 8.564 0 0 1-.822-.84l-1.427-1.601 7.557-6.729.926 1.042L.513-1.659l.225.255 4.706-.741L6.628-.821l-4.9.689c.284.725.356 1.401.219 2.028" style="fill:#fff;fill-opacity:1;fill-rule:nonzero;stroke:none" transform="matrix(1.58978 0 0 -1.58978 135 127.238)"/><path d="M0 0c-.575.366-1.155.546-1.735.535-.574.005-1.122-.174-1.642-.539l-.541-.42a6.134 6.134 0 0 0-.545-.399 1.448 1.448 0 0 0-.535-.232.793.793 0 0 0-.381.032 1.653 1.653 0 0 0-.359.186c-.353.225-.584.496-.685.799-.093.32-.044.627.148.929a.985.985 0 0 0 .713.465c.308.05.645-.031 1.014-.237l.707 1.097c-.77.444-1.481.615-2.129.52-.637-.097-1.146-.445-1.525-1.034-.413-.637-.515-1.296-.31-1.977.204-.68.671-1.262 1.41-1.736.257-.167.516-.288.773-.369.275-.082.547-.109.806-.088.364.036.726.14 1.093.308.312.156.609.352.891.593.467.362.824.575 1.069.638.34.088.729-.008 1.157-.282.409-.263.669-.582.779-.96.108-.374.045-.752-.19-1.113a1.177 1.177 0 0 0-.897-.578c-.379-.044-.797.069-1.251.342l-.687-1.068c.809-.523 1.597-.728 2.364-.627.761.097 1.347.47 1.769 1.128.446.687.547 1.414.307 2.175C1.346-1.16.815-.527 0 0" style="fill:#fff;fill-opacity:1;fill-rule:nonzero;stroke:none" transform="matrix(1.58978 0 0 -1.58978 146.665 117.711)"/><path d="m0 0 9.104-4.411.62 1.27L.619 1.273z" style="fill:#fff;fill-opacity:1;fill-rule:nonzero;stroke:none" transform="matrix(1.58978 0 0 -1.58978 137.378 111.125)"/><path d="m0 0 3.664-.661.252 1.39-3.576.647-5.887 3.899-.277-1.551 4.32-2.72-5.004-1.08-.121-.676-.098.035-1.676-4.786 1.399-.494.615 1.759 8.153-2.853.464 1.316-8.153 2.856.576 1.64z" style="fill:#fff;fill-opacity:1;fill-rule:nonzero;stroke:none" transform="matrix(1.58978 0 0 -1.58978 151.965 100.152)"/><path d="M0 0a29.833 29.833 0 0 0 5.654 10.917c.488-.205 1.075-.4 1.69-.191 1.115.404 2.755 2.201 2.755 3.285l-.212 1.15a29.782 29.782 0 0 0 16.023 6.655c.309-.63.604-1.216 1.122-1.49.435-.195 1.083-.261 1.478-.289v-4.555c-8.225-.133-15.643-4.297-19.897-11.219l.651-.402c4.118 6.694 11.29 10.721 19.246 10.852V2.923h.766v11.79c7.952-.123 15.128-4.145 19.251-10.827l.652.405C44.918 11.2 37.495 15.357 29.276 15.482v4.562c.132.002.238.006.238.006.956.115 1.495.334 1.749.717l.192.369-.001-.005c0 .011.252.483.364.69 5.898-.568 11.446-2.866 16.057-6.641-.168-.35-.34-.721-.34-1.116 0-.115.01-.225.036-.333.279-1.247 2.353-3.067 3.269-3.084.355-.045.74.136 1.222.361A29.907 29.907 0 0 0 57.779.05l.082-.288c.434-1.608.75-3.252.908-4.926-.501-.173-1.341-.523-1.383-1.39l-.046-1.227v-1.845c0-.928.837-1.31 1.408-1.52a29.842 29.842 0 0 0-2.38-8.956l-.283-.605a29.756 29.756 0 0 0-4.027-6.405c-.499.227-1.051.421-1.607.184-.788-.356-2.633-1.935-2.763-3.22a1.78 1.78 0 0 1-.01-.181c0-.329.107-.643.211-.943a29.811 29.811 0 0 0-16.188-6.661c-.354.674-.694 1.213-1.265 1.357l-1.066.137-.089.001v5.545c7.137.115 13.75 3.304 18.189 8.804l-.597.48c-4.292-5.317-10.687-8.402-17.592-8.513v9.415h-.771v-9.42c-6.899.111-13.3 3.181-17.597 8.499l-.595-.486c4.446-5.493 11.056-8.674 18.192-8.78v-5.54c-.273-.022-1.144-.114-1.144-.114-.656-.187-1.039-.792-1.357-1.379a29.807 29.807 0 0 0-16.181 6.72c.159.3.328.621.328 1.005 0 .104-.009.207-.031.315-.223 1.127-1.819 2.911-3.006 3.08-.489.061-.941-.121-1.372-.325a29.958 29.958 0 0 0-4.041 6.425l-.202.436a29.775 29.775 0 0 0-2.467 9.224c.537.171 1.516.57 1.516 1.712l-.019-.017c.017.121.028.332.038.664l.01.768c0 .042 0 .077.002.126L.49-6.367c-.121.851-.912 1.116-1.457 1.251.161 1.664.473 3.288.9 4.878zm59.304-7.029c.082.034.166.072.166.072l.203.065.205.106c.448.28.664.627.717 1.052.014.091.026.195.026.195l-.009.175-.031.236-.026.246a31.659 31.659 0 0 1-6.969 16.868l-.313.404c-.75.872-1.505.662-1.716.574l-.237-.111s-.312-.126-.408-.161c-.427.281-1.347 1.144-1.436 1.489.03.005.207.401.207.401.119.218.178.446.178.669 0 .375-.166.737-.481 1.038a24.85 24.85 0 0 0-.494.422 31.913 31.913 0 0 1-16.423 6.849l-.604.078-.15.015c-.663-.026-1.109-.227-1.414-.595l-.173-.226c-.01-.022-.282-.543-.377-.727-.416-.075-1.328-.096-1.726.007-.08.136-.391.675-.391.675l-.107.217c-.315.622-.842.672-1.359.669l-.033-.004-.241-.037c-6.111-.574-11.912-2.916-16.763-6.778l-.463-.354-.128-.11c-.383-.41-.557-.825-.557-1.249 0-.047.002-.094.005-.14l.033-.256.14-.677c-.058-.164-.932-1.266-1.452-1.454-.003.019-.172.052-.172.052l-.339.154c-.006.005-.279.074-.279.074-.443.066-.879-.082-1.26-.418l-.226-.195-.356-.444A31.748 31.748 0 0 1-2.76-4.894l-.057-.455.02-.353c.137-.816.745-1.059.816-1.084l.303-.097c.068-.018.185-.062.286-.096.007-.205.022-.859.022-.859v-1.273l-.469-.161c-.19-.063-.849-.316-.942-1.218l-.024-.29.048-.543a31.687 31.687 0 0 1 6.972-16.769l.309-.397c.554-.657 1.23-.696 1.679-.51l.247.121c-.004-.003.457.182.457.182.191-.03 1.115-.953 1.295-1.466l-.264-.459-.067-.145c-.119-.376-.08-.897.34-1.386l.207-.246c.013-.006.422-.33.422-.33 4.777-3.881 10.517-6.286 16.604-6.939l.532-.068.304-.012c.902.09 1.274.654 1.341.765.051.103.388.641.388.641.26.044 1.188.032 1.705-.041l.35-.569c.074-.112.109-.156.109-.156.228-.263.601-.58 1.262-.625l.276-.015.606.06a31.735 31.735 0 0 1 16.482 6.835l.367.286.257.242c.345.392.434.767.434 1.062a1.4 1.4 0 0 1-.083.465c-.019.049-.167.514-.167.514.033.179.848 1.115 1.446 1.478.083-.036.175-.065.175-.065l.292-.117c.078-.034.294-.082.294-.082.566-.084 1.061.117 1.434.555l.307.378a31.684 31.684 0 0 1 6.964 16.629l.055.423.017.391c-.102.891-.683 1.23-.799 1.29-.024.009-.415.185-.514.228v.976c0-.001.018.861.026 1.17" style="fill:#fff;fill-opacity:1;fill-rule:nonzero;stroke:none" transform="matrix(1.58978 0 0 -1.58978 39.689 72.666)"/><path d="M0 0c0 .611.444 1.111 1.083 1.139.639.027.944-.389 1.916-.445C3.971.639 5.055.528 6.027.5c.972-.028 1.498.111 2.082.139.583.028.611-.195.416-.667-.194-.472-.597-.467-1.611-.539C5.9-.639 4.194-.901 3.833-.956c-.361-.056-.556.194-.695-.222 0 0-1.079-2.901-1.051-3.012.028-.111 0-.388.472-.416.472-.028 3.843-.131 4.372-.202 0 0 1.133.247 1.469.144.336-.104.379-.626.193-.991s-1.208-.639-1.763-.651c-.556-.013-3.052-.18-3.496-.218-.443-.038-1.167.089-1.5-.078-.333-.167-.889-.444-1.555-.278-.667.167-.806.861-.584 1.417.223.555 1.307 2.647 1.416 3.075.108.427.333 1.138.389 1.333.055.194-.195.055-.5.111C.694-.889-.028-.805 0 0" style="fill:#fff;fill-opacity:1;fill-rule:evenodd;stroke:none" transform="matrix(1.58978 0 0 -1.58978 74.373 15.945)"/><path d="M0 0c-.056.361-.333 4.416-.333 5.36s.002 1.21-.084 2.25c-.086 1.04-.166 1.333-.888 1.194-.472-.167-.528-.25-.695-.528-.166-.277.097-.906.139-1.388.034-.388-.022-1.208-.046-1.517-.104-.073-.359-.119-.747-.119-.382 0-.587.032-.668.095.031.992.034 1.952-.011 2.207-.083.472-.555.806-1.083.722-.472-.166-.389-.305-.389-.722 0-.416.195-2.194.084-2.722-.111-.527-.584-3.721-.722-4.304-.139-.584-.576-1.337.007-1.448.583-.111 1.187.309 1.353.615.114.208.528 2.443.639 3.471.011.097.021.211.031.338.134.066.403.111.759.111.331 0 .596-.014.669-.089.047-.53.198-1.968.291-2.804.111-1 .222-2.416.5-2.527.277-.111 1.111.277 1.25.583C.194-.917.056-.361 0 0" style="fill:#fff;fill-opacity:1;fill-rule:evenodd;stroke:none" transform="matrix(1.58978 0 0 -1.58978 97.376 27.469)"/><path d="M0 0c-.366-.254-.858.293-.884.764-.025.471.502.888.937.436C.488.749.428.259 0 0m-.42 3.057c-1.311.505-1.741-.502-2.206-1.237-.464-.735-.47-1.744-.135-2.353.364-.494.822-.931 1.333-1.077a2.208 2.208 0 0 1 2.184.574c.46.473 1.022 2.013.806 2.694-.217.68-.67.893-1.982 1.399" style="fill:#fff;fill-opacity:1;fill-rule:evenodd;stroke:none" transform="matrix(1.58978 0 0 -1.58978 46.279 31.028)"/><path d="M0 0c-.396.118-1.041-.694-1.374-.895a68.07 68.07 0 0 1-2.233-1.513c-.361-.262-1.85-.858-2.564-1.127-.713-.269-.583-.969-.353-1.349.139-.176.292-.376.573-.303.281.072.75.583 1.093.823.342.239 1.071.544 1.336.742.116.088.241.152.345.198.106-.15.25-.381.317-.509.077-.147.125-.255.219-.448.205-.377.587-.396 1.146-.059.558.338.71.68.455 1.027a5.067 5.067 0 0 0-.282.409l-.324.536C-.994-2.025.464-1.01.622-.76.821-.445.396-.118 0 0" style="fill:#fff;fill-opacity:1;fill-rule:evenodd;stroke:none" transform="matrix(1.58978 0 0 -1.58978 51.992 29.896)"/><path d="M0 0c-.373.456-1.029 1.487-1.388 2.082-.359.594-.656 1.193-1.131 1.977-.474.785-1.03.578-1.387.363-.356-.216-.659-.788-.377-1.202.239-.342.621-.906.88-1.188.148-.16.405-.573.638-.975-.071-.132-.321-.31-.473-.366-.195-.072-.878-.48-1.121-.604-.387-.188-.41-.527-.111-1.04.299-.514.673-.756 1.036-.49.213.174.877.603 1.039.713.11.074.33.181.473.206.19-.347.422-.752.689-1.195.517-.855.993-.73 1.553-.099C.88-1.188.373-.456 0 0" style="fill:#fff;fill-opacity:1;fill-rule:evenodd;stroke:none" transform="matrix(1.58978 0 0 -1.58978 60.567 26.671)"/><path d="M0 0c.47.349 1.381.024 1.825-.389.445-.413.626-.883.851-.817.224.066 1.141.528 1.788.854.647.326 4.226 2.457 5.158 3.117.931.661.579.707 1.154.828.576.121 1.561-.809.891-1.474-.669-.664-1.027-.803-1.587-1.024C9.519.874 6.791-.847 6.177-1.199c-.615-.352-2.325-1.308-2.586-1.628-.261-.32-.626-.898-1.23-1.133S.985-4.045.692-3.346c-.293.699-.218 1.004-.615 1.77C-.321-.811-.252-.282 0 0" style="fill:#fff;fill-opacity:1;fill-rule:evenodd;stroke:none" transform="matrix(1.58978 0 0 -1.58978 45.914 38.106)"/><path d="M0 0c.389.214 1.064.142 1.378-.256.314-.397.397-1.081.56-1.371C3.095-3.676 4.087-5.326 4.571-6.2c.842-1.521 1.577-3.003 1.698-3.222 0 0 .498-.387.672-.703.175-.317.665-1.092.035-1.503-.63-.41-1.553-.634-1.82-.781-.268-.148-2.083-.83-2.375-.991-.292-.161-1.044-.639-1.462.178-.417.816-.035.927.482 1.37.517.443 2.776 1.529 3.008 1.626.233.096.203.207.203.207s-.264.076-.478.465c-.215.39-1.187 2.529-1.577 3.293-.202.396-1.183 2.039-1.456 2.65-.273.611-.478.75-.596.907-.118.157-.61.615-.898.964-.287.349-.488.714-.452 1.051.036.337.239.544.445.689" style="fill:#fff;fill-opacity:1;fill-rule:evenodd;stroke:none" transform="matrix(1.58978 0 0 -1.58978 141.17 45.103)"/><path d="M0 0c-.217.372-.557.637-.758.998-.202.361-1.131 2.292-1.335 2.719a9.582 9.582 0 0 1-.204.401c.289.156.732.389.92.475.239.11.667.323 1.001.485.411.182.45.576.116 1.182-.334.605-.692.792-1.075.558-.306-.212-.714-.46-.945-.587l-1.003-.553c-.164.258-.273.429-.439.738-.178.331-.342.646-.488.925.286.156.839.456 1.057.566.244.123.656.333.956.476.411.182.45.576.116 1.182s-.687.784-1.061.533a10.009 10.009 0 0 0-.893-.559l-1.045-.575-.06.112c-.107.194-.904 1.467-1.316 2.159-.413.692-.352.97-.64 1.391-.287.421-.944-.013-1.295-.238-.814-.48-.382-1.035-.202-1.189.181-.155.629-.667 1.201-1.431.722-.965.938-1.416 1.184-1.978.247-.562.885-1.605 1.126-2.043.241-.438.68-1.464.787-1.658.107-.195 1.39-2.721 1.725-3.33.427-.775.722-1.48.975-1.88.252-.4.602-.463 1.215-.126A.89.89 0 0 1 0 0" style="fill:#fff;fill-opacity:1;fill-rule:evenodd;stroke:none" transform="matrix(1.58978 0 0 -1.58978 143.998 68.875)"/><path d="M0 0h-6.411s-.267-.425-1.097-.254c-.52.103-.683.372-.81.632a.871.871 0 0 1-.297.333c-.083.06-.485.156-.485.156h-25.092s-.401-.096-.484-.156a.886.886 0 0 1-.296-.333c-.128-.26-.293-.529-.809-.632-.83-.171-1.098.254-1.098.254h-6.412l-7.732-2.299H7.732Z" style="fill:#f6b545;fill-opacity:1;fill-rule:nonzero;stroke:none" transform="matrix(1.58978 0 0 -1.58978 120.035 69.325)"/><path d="M121.058 122.559h.296v-.001h-.296zm3.343 0h.295v-.001h-.295zm6.266 0h.295v-.001h-.295zm-4.595 0h.295v-.001h-.295zm1.18-4.56c.071 0 .128-.06.128-.13a.129.129 0 0 0-.127-.13.128.128 0 0 0-.126.13c0 .071.056.13.126.13m-.417 0c.07 0 .127-.06.127-.13a.13.13 0 0 0-.127-.13.13.13 0 0 0-.128.13c0 .071.057.13.128.13m-.42 0c.071 0 .129-.06.129-.13a.13.13 0 0 0-.128-.13.13.13 0 0 0-.127.13c0 .071.058.13.127.13m-1.253 0c.07 0 .127-.06.127-.13a.13.13 0 0 0-.127-.13.13.13 0 0 0-.128.13c0 .071.058.13.128.13m.836 0c.07 0 .127-.06.127-.13a.13.13 0 0 0-.127-.13.13.13 0 0 0-.127.13c0 .071.057.13.127.13m-.418 0c.07 0 .126-.06.126-.13a.13.13 0 0 0-.126-.13.13.13 0 0 0 0 .26m4.596 0a.13.13 0 0 0 0-.26.13.13 0 0 0-.128.13c0 .071.058.13.128.13m-.418 0c.07 0 .127-.06.127-.13a.13.13 0 0 0-.127-.13.13.13 0 0 0-.127.13c0 .071.057.13.127.13m-2.089 0c.07 0 .127-.06.127-.13a.129.129 0 0 0-.127-.13.129.129 0 0 0-.127.13c0 .071.056.13.127.13m1.671 0c.07 0 .127-.06.127-.13a.13.13 0 0 0-.127-.13.13.13 0 0 0-.127.13c0 .071.057.13.127.13m-4.596 0c.07 0 .127-.06.127-.13a.13.13 0 0 0-.127-.13.129.129 0 0 0-.127.13c0 .071.057.13.127.13m3.343 0c.07 0 .127-.06.127-.13a.13.13 0 0 0-.127-.13.13.13 0 0 0-.128.13c0 .071.058.13.128.13m.418 0a.13.13 0 0 0 .128-.13.13.13 0 0 0-.128-.13.129.129 0 0 0-.127.13c0 .071.056.13.127.13m.417 0a.13.13 0 0 0 0-.26.13.13 0 0 0-.127.13c0 .071.058.13.127.13m7.52-.26a.13.13 0 0 0-.126.13c0 .071.057.13.127.13s.127-.06.127-.13a.13.13 0 0 0-.127-.13m-16.713.26c.07 0 .127-.06.127-.13a.129.129 0 0 0-.127-.13.13.13 0 0 0-.127.13c0 .071.056.13.127.13m4.597 0c.07 0 .126-.06.126-.13a.129.129 0 0 0-.126-.13.129.129 0 0 0-.128.13c0 .071.056.13.128.13m-5.015 0c.07 0 .127-.06.127-.13a.129.129 0 0 0-.127-.13.129.129 0 0 0-.127.13c0 .071.057.13.127.13m17.13.047a.175.175 0 0 1-.172-.177c0-.097.077-.177.173-.177.096 0 .174.08.174.177a.176.176 0 0 1-.174.177m-.222.189h-17.125a1.716 1.716 0 0 1-.09-.138h17.31a1.007 1.007 0 0 1-.095.138m-.46.418H119.52a1.814 1.814 0 0 1-.317-.286h16.907a2.119 2.119 0 0 1-.347.286m-1.459 3.89h-.294v-3.762h.294zm-1.835-1.082h-.589v-2.617h.591zm-3.177 1.02h-.295v-3.7h.295zm-1.018-3.016-.634-.27-.677.264v-.682h1.31zm-4.816 1.95h-.534v-2.638h.534zm-4.735-3.546c0-.097.077-.177.173-.177.096 0 .174.08.174.177a.176.176 0 0 1-.174.177.175.175 0 0 1-.173-.177m.591-.177c.096 0 .174.08.174.177a.176.176 0 0 1-.174.177.176.176 0 0 1-.174-.177c0-.097.078-.177.174-.177m.418 0c.096 0 .175.08.175.177a.176.176 0 0 1-.175.177.175.175 0 0 1-.173-.177c0-.097.077-.177.173-.177m.418 0c.096 0 .174.08.174.177a.176.176 0 0 1-.174.177.176.176 0 0 1-.174-.177c0-.097.078-.177.174-.177m.417 0c.096 0 .174.08.174.177a.176.176 0 0 1-.174.177.176.176 0 0 1-.173-.177c0-.097.078-.177.173-.177m.42 0c.094 0 .172.08.172.177a.176.176 0 0 1-.173.177.176.176 0 0 1-.174-.177c0-.097.078-.177.174-.177m.418 0c.096 0 .173.08.173.177a.175.175 0 0 1-.173.177.176.176 0 0 1-.175-.177c0-.097.079-.177.175-.177m.417 0c.096 0 .174.08.174.177a.176.176 0 0 1-.174.177.176.176 0 0 1-.174-.177c0-.097.078-.177.174-.177m.418 0c.096 0 .174.08.174.177a.176.176 0 0 1-.174.177.176.176 0 0 1-.174-.177c0-.097.079-.177.174-.177m.418 0c.095 0 .174.08.174.177a.176.176 0 0 1-.174.177.175.175 0 0 1-.173-.177c0-.097.077-.177.173-.177m.417 0c.097 0 .175.08.175.177a.176.176 0 0 1-.175.177.176.176 0 0 1-.173-.177c0-.097.078-.177.173-.177m.418 0c.096 0 .174.08.174.177a.176.176 0 0 1-.174.177.176.176 0 0 1-.173-.177c0-.097.078-.177.173-.177m.418 0c.096 0 .174.08.174.177a.176.176 0 0 1-.174.177.176.176 0 0 1-.173-.177c0-.097.078-.177.173-.177m.419 0c.095 0 .173.08.173.177a.176.176 0 0 1-.173.177.176.176 0 0 1-.174-.177c0-.097.078-.177.174-.177m.417 0c.096 0 .174.08.174.177a.176.176 0 0 1-.174.177.176.176 0 0 1-.174-.177c0-.097.078-.177.174-.177m.418 0c.096 0 .174.08.174.177a.176.176 0 0 1-.174.177.176.176 0 0 1-.174-.177c0-.097.078-.177.174-.177m.418 0c.095 0 .173.08.173.177a.175.175 0 0 1-.173.177.176.176 0 0 1-.174-.177c0-.097.078-.177.174-.177m.418 0c.096 0 .173.08.173.177a.175.175 0 0 1-.173.177.176.176 0 0 1-.174-.177c0-.097.078-.177.174-.177m.417 0c.096 0 .175.08.175.177a.176.176 0 0 1-.175.177.176.176 0 0 1-.174-.177c0-.097.079-.177.174-.177m.419 0c.095 0 .174.08.174.177a.176.176 0 0 1-.174.177.176.176 0 0 1-.175-.177c0-.097.078-.177.175-.177m.417 0c.096 0 .174.08.174.177a.176.176 0 0 1-.174.177.176.176 0 0 1-.174-.177c0-.097.078-.177.174-.177m.418 0c.096 0 .174.08.174.177a.176.176 0 0 1-.174.177.176.176 0 0 1-.174-.177c0-.097.078-.177.174-.177m.418 0c.095 0 .174.08.174.177a.176.176 0 0 1-.174.177.175.175 0 0 1-.174-.177c0-.097.078-.177.174-.177m.418 0c.096 0 .173.08.173.177a.175.175 0 0 1-.173.177.176.176 0 0 1-.174-.177c0-.097.078-.177.174-.177m.417 0c.096 0 .174.08.174.177a.176.176 0 0 1-.174.177.176.176 0 0 1-.174-.177c0-.097.078-.177.174-.177m.418 0c.096 0 .174.08.174.177a.176.176 0 0 1-.174.177.175.175 0 0 1-.173-.177c0-.097.077-.177.173-.177m.418 0c.096 0 .174.08.174.177a.176.176 0 0 1-.174.177.176.176 0 0 1-.174-.177c0-.097.078-.177.174-.177m.418 0c.096 0 .174.08.174.177a.176.176 0 0 1-.174.177.176.176 0 0 1-.174-.177c0-.097.079-.177.174-.177m.418 0c.096 0 .173.08.173.177a.176.176 0 0 1-.173.177.176.176 0 0 1-.174-.177c0-.097.078-.177.174-.177m.418 0c.095 0 .174.08.174.177a.176.176 0 0 1-.174.177.175.175 0 0 1-.174-.177c0-.097.078-.177.174-.177m.418 0c.095 0 .173.08.173.177a.175.175 0 0 1-.173.177.177.177 0 0 1-.175-.177c0-.097.08-.177.175-.177m.417 0c.097 0 .175.08.175.177a.176.176 0 0 1-.175.177.176.176 0 0 1-.174-.177c0-.097.078-.177.174-.177m.418 0c.096 0 .174.08.174.177a.176.176 0 0 1-.174.177.176.176 0 0 1-.174-.177c0-.097.078-.177.174-.177m.418 0c.096 0 .174.08.174.177a.175.175 0 0 1-.174.177.176.176 0 0 1-.174-.177c0-.097.078-.177.174-.177m.418 0c.096 0 .174.08.174.177a.176.176 0 0 1-.174.177.176.176 0 0 1-.174-.177c0-.097.078-.177.174-.177m.417 0c.096 0 .175.08.175.177a.176.176 0 0 1-.175.177.176.176 0 0 1-.174-.177c0-.097.079-.177.174-.177m.418 0c.096 0 .174.08.174.177a.176.176 0 0 1-.174.177.175.175 0 0 1-.173-.177c0-.097.077-.177.173-.177m.418 0a.177.177 0 0 1 0 .354.176.176 0 0 1-.174-.177c0-.097.079-.177.174-.177m.418 0c.095 0 .174.08.174.177a.176.176 0 0 1-.174.177.175.175 0 0 1-.173-.177c0-.097.077-.177.173-.177m.418 0c.096 0 .174.08.174.177a.176.176 0 0 1-.174.177.176.176 0 0 1-.174-.177c0-.097.078-.177.174-.177m.418 0c.096 0 .174.08.174.177a.176.176 0 0 1-.174.177.176.176 0 0 1-.174-.177c0-.097.078-.177.174-.177m.418 0c.096 0 .174.08.174.177a.176.176 0 0 1-.174.177.176.176 0 0 1-.175-.177c0-.097.079-.177.175-.177m-17.654-.026s.245.311.466.404c.148.297.468.723 1.128.964v3.524h1.09v-3.79h.296v3.79h3.047v-3.776h.295v3.776h1.376v-3.776h.295v3.776h.562l.664-.322.667.322h2.408v-3.776h.294v3.776h4.457v-3.54l.04-.05c.166-.068.733-.332 1.04-.907.218-.105.458-.395.458-.395zm.522.073a.13.13 0 0 0 0 .26.13.13 0 0 0 0-.26m2.09.26c.07 0 .126-.06.126-.13a.128.128 0 0 0-.126-.13.13.13 0 0 0-.127.13c0 .07.056.13.127.13m9.61 0c.07 0 .127-.06.127-.13a.129.129 0 0 0-.127-.13.129.129 0 0 0-.127.13c0 .07.057.13.127.13m-10.446 0a.13.13 0 0 0 0-.26.13.13 0 0 0 0 .26m2.924 0a.13.13 0 0 0 0-.26.13.13 0 0 0-.127.13c0 .07.058.13.127.13m.418 0a.128.128 0 0 0 .128-.13.129.129 0 0 0-.128-.13.13.13 0 0 0 0 .26m.418 0a.13.13 0 0 0 0-.26.129.129 0 0 0-.127.13c0 .07.057.13.127.13m-1.671 0a.13.13 0 0 0 0-.26.129.129 0 0 0-.127.13c0 .07.057.13.127.13m.418 0c.07 0 .127-.06.127-.13a.13.13 0 0 0-.127-.13.13.13 0 0 0-.127.13c0 .07.058.13.127.13m-.836 0c.07 0 .127-.06.127-.13a.129.129 0 0 0-.127-.13.13.13 0 0 0-.127.13c0 .07.058.13.127.13m-.417 0c.07 0 .127-.06.127-.13a.13.13 0 0 0-.127-.13.129.129 0 0 0-.127.13c0 .07.056.13.127.13m-.837 0c.07 0 .128-.06.128-.13a.13.13 0 0 0-.128-.13.129.129 0 0 0-.126.13c0 .07.057.13.126.13m15.043 0c.07 0 .127-.06.127-.13a.13.13 0 0 0-.127-.13.13.13 0 0 0-.127.13c0 .07.057.13.127.13m-3.76 0c.07 0 .126-.06.126-.13a.13.13 0 0 0-.127-.13.129.129 0 0 0-.127.13c0 .07.057.13.127.13m2.09 0c.07 0 .126-.06.126-.13a.129.129 0 0 0-.127-.13.129.129 0 0 0-.127.13c0 .07.057.13.127.13m-1.671 0c.07 0 .127-.06.127-.13a.13.13 0 0 0-.127-.13.13.13 0 0 0-.127.13c0 .07.057.13.127.13m3.761 0c.07 0 .127-.06.127-.13a.13.13 0 0 0-.127-.13.13.13 0 0 0 0 .26m-2.508 0c.07 0 .127-.06.127-.13a.129.129 0 0 0-.127-.13.13.13 0 0 0 0 .26m-.835 0c.07 0 .127-.06.127-.13a.13.13 0 0 0-.127-.13.13.13 0 0 0-.127.13c0 .07.057.13.127.13m-1.671 0a.13.13 0 0 0 0-.26.129.129 0 0 0-.127.13c0 .07.056.13.127.13m3.342 0c.07 0 .127-.06.127-.13a.13.13 0 0 0-.127-.13.129.129 0 0 0-.127.13c0 .07.057.13.127.13m.418 0c.07 0 .127-.06.127-.13a.129.129 0 0 0-.127-.13.129.129 0 0 0-.126.13c0 .07.056.13.126.13m-1.67 0c.069 0 .126-.06.126-.13a.13.13 0 0 0-.127-.13.129.129 0 0 0-.127.13c0 .07.057.13.127.13m2.089 0c.07 0 .127-.06.127-.13a.129.129 0 0 0-.127-.13.13.13 0 0 0 0 .26m-3.76 0c.07 0 .127-.06.127-.13a.13.13 0 0 0-.127-.13.13.13 0 0 0-.128.13c0 .07.057.13.128.13" style="fill:#f6b545;fill-opacity:1;fill-rule:nonzero;stroke:none;stroke-width:.352778" transform="translate(-489.59 -455.92) scale(4.50647)"/><path d="M0 0h-51.89l-1.652-1.552H1.723Z" style="fill:#f6b545;fill-opacity:1;fill-rule:nonzero;stroke:none" transform="matrix(1.58978 0 0 -1.58978 126.918 103.12)"/><path d="M135.333 123.343H120.24v-.298h15.093zm.822-.036h-.542v-.53l-.02.001h-15.59v.538h-.807l-.384.393h17.707Z" style="fill:#f6b545;fill-opacity:1;fill-rule:nonzero;stroke:none;stroke-width:.352778" transform="translate(-489.59 -455.92) scale(4.50647)"/></svg>