<svg xmlns="http://www.w3.org/2000/svg" width="190.4093mm" height="207.59225mm" viewBox="0 0 190.4093 207.59225"><path d="M78.149 140.244c5.841-.765 19.378-7.631 19.378-25.482v-14.095c-6.014-1.837-12.542-2.752-19.378-2.752-6.837 0-13.365.915-19.378 2.752v14.095c0 17.85 13.536 24.717 19.378 25.482" style="fill:#fff;fill-opacity:1;fill-rule:nonzero;stroke:none;stroke-width:.352778" transform="matrix(4.80372 0 0 4.80372 -280.2 -468.238)"/><path d="M78.149 140.244c5.841-.765 19.378-7.631 19.378-25.482v-14.095c-6.014-1.837-12.542-2.752-19.378-2.752-6.837 0-13.365.915-19.378 2.752v14.095c0 17.85 13.536 24.717 19.378 25.482zm0 0" style="fill:none;stroke:#c5bdba;stroke-width:.881944;stroke-linecap:butt;stroke-linejoin:miter;stroke-miterlimit:4;stroke-opacity:1" transform="matrix(4.80372 0 0 4.80372 -280.2 -468.238)"/><g style="fill:#6b5e5e;fill-opacity:1"><path d="M3.39-.125v-6.89H2.282L.921-5.798v1.406l1.282-1.156V0h1.188zm0 0" style="stroke:none" transform="matrix(1.69465 0 0 1.69465 79.43 187.346)"/><path d="M4.516-4.922c0-1.25-.922-2.156-2.063-2.156-1.14 0-2.062.953-2.062 2.187 0 1.188.89 2.094 1.843 2.094.204 0 .407-.031.344 0L1.203 0H2.47L4.03-3.266l-.047.094c.297-.594.532-1.203.532-1.75zm-1.188.016c0 .734-.281 1.047-.875 1.047-.625 0-.875-.375-.875-1.047 0-.719.281-1.047.875-1.047s.875.328.875 1.047zm0 0" style="stroke:none" transform="matrix(1.69465 0 0 1.69465 87.753 187.346)"/><path d="M4.516-.125v-1H1.984L3.86-3.5c.407-.516.657-.953.657-1.547 0-1.172-.891-2.031-2.016-2.031S.453-6.188.453-4.906h1.203c0-.89.344-1.047.844-1.047.61 0 .828.297.828.906 0 .328-.062.484-.312.797L.453-1.031V0h4.063zm0 0" style="stroke:none" transform="matrix(1.69465 0 0 1.69465 96.077 187.346)"/><path d="M4.531-2.031c0-.828-.484-1.469-1.047-1.719v.25c.5-.25.938-.844.938-1.563a2.027 2.027 0 0 0-2.031-2.03c-1.047 0-2 .827-2.063 2.109h1.188c.062-.72.312-.97.875-.97.546 0 .843.235.843.923 0 .61-.187.89-.859.89h-.297v1.094h.297c.734 0 .969.313.969 1 0 .703-.344.985-.953.985-.532 0-.907-.172-.938-1.032H.25C.297-.64 1.344.062 2.39.062c1.11 0 2.141-.78 2.141-2.093Zm0 0" style="stroke:none" transform="matrix(1.69465 0 0 1.69465 104.4 187.346)"/></g><path d="M72.092 111.314a.506.506 0 0 1-.373-.156c-.14-.145-.135-.306-.135-.587 0-.28-.004-.442.135-.586a.506.506 0 0 1 .373-.155c.26 0 .454.158.505.447h-.22c-.033-.147-.13-.249-.285-.249a.285.285 0 0 0-.21.088c-.07.079-.085.161-.085.455 0 .293.015.379.084.456a.285.285 0 0 0 .211.088c.156 0 .254-.103.287-.25h.218c-.049.29-.249.449-.505.449M73.469 111.301v-.636c0-.159-.09-.228-.203-.228-.113 0-.205.072-.205.228v.636h-.203v-1.459h.203v.525a.343.343 0 0 1 .26-.117c.225 0 .352.156.352.38v.671zM73.984 110.262h.204v1.04h-.204zm-.007-.427h.215v.222h-.215zM75.122 111.301v-.632c0-.163-.088-.232-.2-.232-.115 0-.21.072-.21.232v.632h-.203v-1.039h.199v.105a.353.353 0 0 1 .267-.117.34.34 0 0 1 .248.094c.08.078.102.176.102.293v.664zM75.632 109.835h.215v.222h-.215zm-.067 1.89h-.126v-.177h.089c.082 0 .11-.041.11-.121v-1.165h.202v1.177c0 .154-.082.287-.275.287M76.77 111.301v-.104a.352.352 0 0 1-.268.117.342.342 0 0 1-.248-.094c-.077-.078-.1-.176-.1-.294v-.664h.202v.633c0 .162.09.233.202.233.113 0 .208-.073.208-.233v-.633h.204v1.04zM78.663 111.301l-.655-1.026v1.026h-.215v-1.459h.197l.655 1.024v-1.024h.213v1.46zM79.743 110.842h-.236c-.118 0-.182.057-.182.15s.058.147.186.147c.078 0 .136-.006.19-.058.03-.032.042-.082.042-.155zm.006.46v-.094c-.075.075-.145.106-.27.106-.125 0-.209-.03-.27-.095a.322.322 0 0 1-.08-.224c0-.173.118-.299.348-.299h.266v-.073c0-.132-.063-.195-.22-.195-.11 0-.166.026-.221.099l-.134-.128c.097-.115.196-.15.363-.15.275 0 .415.122.415.358v.694zM80.559 111.301c-.189 0-.276-.139-.276-.29v-.57h-.116v-.16h.116v-.316h.203v.315h.194v.161h-.194v.56c0 .077.034.123.11.123h.084v.177zM80.938 110.262h.202v1.04h-.202zm-.004-.427h.213v.222h-.213zM81.985 110.497a.203.203 0 0 0-.152-.06.19.19 0 0 0-.144.06c-.064.063-.07.172-.07.283 0 .113.006.222.07.286.037.04.087.062.144.062.061 0 .113-.022.152-.062.06-.064.069-.173.069-.286 0-.111-.008-.22-.069-.283m.153.694a.408.408 0 0 1-.305.123.396.396 0 0 1-.297-.123c-.097-.103-.12-.234-.12-.41 0-.174.023-.307.12-.407a.392.392 0 0 1 .297-.124c.14 0 .239.054.305.124.094.1.119.233.119.406 0 .177-.025.308-.119.411M83.144 111.301v-.632c0-.163-.088-.232-.201-.232-.113 0-.21.072-.21.232v.632h-.202v-1.039h.198v.105a.357.357 0 0 1 .27-.117c.102 0 .188.034.247.094.079.078.102.176.102.293v.664zM84.198 110.842h-.235c-.12 0-.181.057-.181.15s.057.147.185.147c.077 0 .135-.006.187-.058.032-.032.044-.082.044-.155zm.004.46v-.094c-.073.075-.143.106-.268.106-.124 0-.208-.03-.27-.095a.322.322 0 0 1-.08-.224c0-.173.118-.299.347-.299h.267v-.073c0-.132-.063-.195-.22-.195-.11 0-.166.026-.22.099l-.136-.128c.098-.115.199-.15.364-.15.277 0 .415.122.415.358v.694zM84.985 111.301c-.194 0-.277-.132-.277-.286v-1.173h.203v1.159c0 .081.027.123.11.123h.088v.177zM74.497 113.946a.488.488 0 0 1-.507-.505v-.967h.216v.958c0 .194.114.314.29.314.179 0 .296-.12.296-.314v-.958h.216v.967a.49.49 0 0 1-.511.505M75.945 113.933v-.632c0-.163-.09-.232-.202-.232-.115 0-.21.07-.21.232v.632h-.201v-1.039h.197V113a.361.361 0 0 1 .269-.117.34.34 0 0 1 .248.095c.078.077.102.175.102.292v.664zM76.46 112.893h.202v1.04h-.203zm-.005-.426h.214v.222h-.214zM77.376 113.933h-.166l-.37-1.039h.214l.24.732.236-.732h.215zM78.477 113.188a.208.208 0 0 0-.2-.131.21.21 0 0 0-.201.13.336.336 0 0 0-.025.143h.452a.358.358 0 0 0-.026-.142m-.426.286c0 .178.092.291.256.291a.3.3 0 0 0 .245-.106l.129.124a.462.462 0 0 1-.378.161c-.252 0-.452-.136-.452-.532 0-.336.168-.53.426-.53.27 0 .427.204.427.5v.092zM79.527 113.138c-.044-.047-.08-.069-.15-.069-.11 0-.2.09-.2.233v.631h-.203v-1.039h.198v.113a.331.331 0 0 1 .27-.125c.096 0 .169.028.239.098zM80.152 113.946c-.165 0-.303-.03-.423-.15l.134-.137c.08.087.19.109.29.109.122 0 .221-.047.221-.145 0-.069-.038-.113-.136-.122l-.162-.014c-.188-.017-.299-.106-.299-.287 0-.204.17-.318.382-.318.15 0 .28.033.372.116l-.127.135a.369.369 0 0 0-.248-.078c-.12 0-.183.057-.183.133 0 .063.033.11.14.121l.16.014c.187.016.298.109.298.292 0 .218-.178.33-.419.33M80.82 112.893h.2v1.04h-.2zm-.009-.426h.216v.222h-.216ZM81.643 113.933c-.188 0-.275-.139-.275-.288v-.573h-.116v-.16h.116v-.314h.2v.314h.197v.16h-.196v.562c0 .076.037.122.112.122h.084v.177zM82.34 114.141a.36.36 0 0 1-.074.129.281.281 0 0 1-.208.075h-.081v-.188h.052c.084 0 .115-.027.145-.112l.056-.161-.352-.99h.216l.238.732.235-.732h.217zM73.53 115.76a.197.197 0 0 0-.148-.059c-.06 0-.109.02-.147.06-.062.063-.07.17-.07.285 0 .112.008.22.07.284.038.04.088.062.147.062a.2.2 0 0 0 .149-.062c.063-.064.07-.172.07-.284 0-.114-.007-.222-.07-.285m.154.694a.404.404 0 0 1-.303.123.398.398 0 0 1-.3-.123c-.096-.103-.119-.234-.119-.41 0-.174.023-.306.119-.407a.394.394 0 0 1 .3-.124.4.4 0 0 1 .303.124c.095.1.119.233.119.408 0 .175-.024.306-.119.41M74.314 115.706v.86h-.204v-.86h-.115v-.162h.115v-.158c0-.15.088-.291.277-.291h.126v.18h-.09c-.074 0-.11.045-.11.12v.15h.2v.16zM75.231 116.565v-1.459h.904v.2h-.69v.424h.588v.199h-.588v.438h.69v.198zM76.772 115.701c-.183 0-.21.16-.21.345 0 .183.027.346.21.346s.21-.163.21-.346c0-.185-.027-.345-.21-.345m.214.864v-.11a.31.31 0 0 1-.268.123.35.35 0 0 1-.246-.091c-.102-.106-.115-.284-.115-.441 0-.159.013-.335.115-.44a.344.344 0 0 1 .245-.092c.106 0 .19.026.264.117v-.526h.203v1.46zM78.114 116.565v-.104a.356.356 0 0 1-.269.117.348.348 0 0 1-.249-.094c-.077-.078-.1-.176-.1-.293v-.665h.202v.634c0 .163.09.232.204.232.113 0 .208-.072.208-.232v-.634h.203v1.04zM79.033 116.578c-.227 0-.449-.144-.449-.532 0-.39.222-.533.45-.533.138 0 .235.04.33.146l-.14.14c-.063-.071-.11-.098-.19-.098a.224.224 0 0 0-.188.091c-.044.058-.06.131-.06.254 0 .12.016.196.06.254.044.059.109.092.187.092.08 0 .128-.028.192-.1l.139.138a.406.406 0 0 1-.33.148M80.122 116.107h-.237c-.119 0-.18.055-.18.15 0 .093.057.147.184.147.079 0 .137-.007.19-.06.03-.03.043-.08.043-.153zm.005.458v-.093a.334.334 0 0 1-.268.106c-.127 0-.211-.032-.272-.094a.326.326 0 0 1-.078-.223c0-.177.115-.3.347-.3h.266v-.074c0-.13-.065-.195-.22-.195-.112 0-.167.026-.222.1l-.133-.128c.097-.114.196-.15.363-.15.275 0 .415.121.415.357v.694zM80.936 116.565c-.187 0-.274-.14-.274-.288v-.571h-.116v-.162h.116v-.314h.203v.314h.194v.162h-.194v.56c0 .076.036.122.11.122h.084v.177zM81.318 115.526h.203v1.04h-.203zm-.007-.427h.214v.222h-.214zM82.364 115.76a.202.202 0 0 0-.15-.059c-.06 0-.109.02-.148.06-.062.063-.069.17-.069.285 0 .112.007.22.07.284.038.04.086.062.147.062.06 0 .111-.022.15-.062.06-.064.069-.172.069-.284 0-.114-.01-.222-.069-.285m.153.694a.41.41 0 0 1-.303.123.398.398 0 0 1-.3-.123c-.096-.103-.12-.234-.12-.41 0-.174.024-.306.12-.407a.394.394 0 0 1 .3-.124c.138 0 .235.054.303.124.094.1.119.233.119.408 0 .175-.025.306-.119.41M83.523 116.565v-.633c0-.162-.088-.23-.201-.23-.115 0-.211.071-.211.23v.633h-.201v-1.039h.198v.105a.354.354 0 0 1 .269-.117.35.35 0 0 1 .248.094c.078.078.1.177.1.293v.664zm0 0" style="fill:#6b5e5e;fill-opacity:1;fill-rule:nonzero;stroke:none;stroke-width:.352778" transform="matrix(4.80372 0 0 4.80372 -280.2 -468.238)"/><path d="M68.801 110.833A2.376 2.376 0 0 0 68.8 109a2.144 2.144 0 0 0-1.282 1.217 2.379 2.379 0 0 0 .001 1.83 2.147 2.147 0 0 0 1.283-1.215M88.906 112.043a2.389 2.389 0 0 0 .004-1.832 2.16 2.16 0 0 0-1.283-1.218 2.368 2.368 0 0 0-.003 1.833c.255.603.73 1.028 1.282 1.217M91.897 113.364a2.679 2.679 0 0 0-.067-2.059 2.445 2.445 0 0 0-1.396 1.427 2.673 2.673 0 0 0 .069 2.059 2.443 2.443 0 0 0 1.394-1.427" style="fill:#f37a1e;fill-opacity:1;fill-rule:nonzero;stroke:none;stroke-width:.352778" transform="matrix(4.80372 0 0 4.80372 -280.2 -468.238)"/><path d="M90.406 116.724c-.534.266-.929.68-1.22 1.144.387-1.449.458-3.058.046-4.844-.099-.431-.431-.38-.427-.013.039 5.696-3.1 8.365-6.631 9.89-.132-.209-.182-.731-.21-1.175a.963.963 0 0 0 .2-.375c.35-1.1-.065-3.126-2.287-2.812-.742 1.123-.269 2.646.72 3.146.116.623.013 1.345-.168 1.838-.16.048-.332.1-.525.164-.87.277-1.47.506-1.65 1.384a17.992 17.992 0 0 1-1.912-.429c-.278-.72-.248-1.228-.153-1.669.048-.018.095-.036.145-.058 1.135-.501 1.744-2.127.926-3.363-2.456-.254-2.754 1.787-2.388 2.938.041.13.1.278.205.395.084.532-.198 1.045-.484 1.15-3.613-1.511-6.99-4.66-6.927-11.02.004-.369-.328-.42-.427.012a11.409 11.409 0 0 0-.046 5.016c-.3-.45-.697-.85-1.223-1.111a3.508 3.508 0 0 0-2.671-.149c.266.894.868 1.677 1.735 2.106a3.057 3.057 0 0 0 2.418.143c.316 1.028.76 1.984 1.28 2.857a2.756 2.756 0 0 0-1.167-.485 2.794 2.794 0 0 0-2.115.496 2.715 2.715 0 0 0 1.815 1.146 2.797 2.797 0 0 0 1.96-.392c.555.79 1.193 1.478 1.79 2.086.47.478 1.174 1.233 1.484 1.626.368.464.664 1.243.664 2.257v4.5c.94-.683 2.788-1.503 5.165-1.65.125-.004.206-.081.215-.18v-.672c2.17.05 3.963.727 5.364 1.643v-5.38c0-.528.083-1.193.357-1.713.225-.423.925-1.124 1.392-1.594a17.44 17.44 0 0 0 1.513-1.725c.53.341 1.198.5 1.883.387a2.576 2.576 0 0 0 1.724-1.092 2.662 2.662 0 0 0-3.083-.033c.496-.745.92-1.551 1.235-2.42.742.286 1.59.277 2.367-.111.823-.408 1.396-1.15 1.647-2.001a3.324 3.324 0 0 0-2.536.142" style="fill:#f37a1e;fill-opacity:1;fill-rule:nonzero;stroke:none;stroke-width:.352778" transform="matrix(4.80372 0 0 4.80372 -280.2 -468.238)"/><path d="M87.731 116.67a2.94 2.94 0 0 0-.316-2.28 2.612 2.612 0 0 0-1.83-1.237 2.949 2.949 0 0 0 .32 2.282 2.599 2.599 0 0 0 1.826 1.235M68.986 117.263c.725-.131 1.39-.57 1.798-1.278a2.95 2.95 0 0 0 .266-2.287c-.726.13-1.387.569-1.798 1.277a2.951 2.951 0 0 0-.266 2.288M65.949 115.172a2.67 2.67 0 0 0 .069-2.057 2.446 2.446 0 0 0-1.398-1.428 2.685 2.685 0 0 0-.067 2.059c.263.693.784 1.19 1.396 1.426" style="fill:#f37a1e;fill-opacity:1;fill-rule:nonzero;stroke:none;stroke-width:.352778" transform="matrix(4.80372 0 0 4.80372 -280.2 -468.238)"/><path d="M78.27 103.981c-.429 0-.74-.226-.74-.539 0-.312.311-.541.74-.541.43 0 .74.229.74.541 0 .313-.31.54-.74.54m-.002-1.5c-.71 0-1.284.43-1.284.96 0 .525.575.954 1.284.954.709 0 1.285-.429 1.285-.954 0-.53-.576-.96-1.285-.96M86.932 103.43c.28 0 .514.262.514.57 0 .31-.234.571-.514.571-.284 0-.515-.256-.515-.57 0-.32.227-.571.515-.571m.003 1.502c.553 0 1.018-.412 1.018-.9 0-.486-.465-.898-1.018-.898-.562 0-1.02.403-1.02.898 0 .496.458.9 1.02.9M71.996 106.408h3.507v-.425h-1.297v-1.485h-.497v1.485h-.481v-1.485h-.496v1.485h-.736zM62.753 104.933c.485-.288 1.183-.956 1.43-1.65h-1.162v-.42h1.762c.07 0 .112.047.094.126-.22.92-.96 1.76-1.808 2.212zm0 0" style="fill:#6b5e5e;fill-opacity:1;fill-rule:nonzero;stroke:none;stroke-width:.352778" transform="matrix(4.80372 0 0 4.80372 -280.2 -468.238)"/><path d="M65.315 104.647c.027.022.036.053.005.088l-.292.31c-.034.039-.07.04-.106-.005l-.79-.777.22-.317zM66.222 104.962c0 .612-.09.837-.162.837h-.275c-.07 0-.091-.142-.091-.347v-2.806h.528zM89.147 104.294c0 .612-.09.836-.16.836h-.277c-.07 0-.091-.141-.091-.347v-2.137h.528zM79.251 105.949v.728c0 .204.02.345.091.345h.276c.071 0 .16-.223.16-.835v-.658h-3v.42zM88.619 105.864v.813c0 .204.02.347.09.347h.277c.071 0 .16-.225.16-.837v-.742H86.38v.419zM74.675 104.858c0 .205.01.347.08.347h.249c.149 0 .252-1.564.252-2.176 0-.091-.04-.143-.149-.143h-2.77v.432h2.338zM90.34 106.408h3.507v-.425H92.55v-1.485h-.497v1.485h-.48v-1.485h-.497v1.485h-.736Zm0 0" style="fill:#6b5e5e;fill-opacity:1;fill-rule:nonzero;stroke:none;stroke-width:.352778" transform="matrix(4.80372 0 0 4.80372 -280.2 -468.238)"/><path d="M93.02 104.858c0 .205.009.347.079.347h.25c.148 0 .252-1.564.252-2.176 0-.091-.04-.143-.15-.143h-2.766v.432h2.335zM69.543 106.189c0 .612-.088.836-.16.836h-.277c-.07 0-.09-.14-.09-.347v-1.254h.527zM64.137 105.593v1.01h2.038v.425H63.78c-.1 0-.168-.066-.168-.17v-1.265zm0 0" style="fill:#6b5e5e;fill-opacity:1;fill-rule:nonzero;stroke:none;stroke-width:.352778" transform="matrix(4.80372 0 0 4.80372 -280.2 -468.238)"/><path d="M71.163 105.74h-3.76v-.425h3.76zM69.517 104.016c.38-.3.657-.69.788-.983.036-.081.018-.167-.093-.167h-2.295v.415h1.549c-.348.562-1.271 1.018-1.807 1.203l.258.307c.719-.208 1.215-.47 1.6-.775" style="fill:#6b5e5e;fill-opacity:1;fill-rule:nonzero;stroke:none;stroke-width:.352778" transform="matrix(4.80372 0 0 4.80372 -280.2 -468.238)"/><path d="m69.25 103.969 1.23.752c.054.037.074.035.111-.003l.33-.337c.022-.025.003-.057-.035-.076l-1.296-.579zM80.148 105.08h-3.76v-.426h3.76zm0 0" style="fill:#6b5e5e;fill-opacity:1;fill-rule:nonzero;stroke:none;stroke-width:.352778" transform="matrix(4.80372 0 0 4.80372 -280.2 -468.238)"/><path d="M77.935 105.662h-.504v-.679h.504zM79.106 105.662h-.503v-.679h.503zM83.185 102.64v4.042c0 .207.021.347.091.347h.252c.072 0 .162-.223.162-.835v-3.554zM84.095 102.64v4.042c0 .207.02.347.09.347h.253c.072 0 .161-.223.161-.835v-3.554zm0 0" style="fill:#6b5e5e;fill-opacity:1;fill-rule:nonzero;stroke:none;stroke-width:.352778" transform="matrix(4.80372 0 0 4.80372 -280.2 -468.238)"/><path d="M81.771 105.128h.753c.182 0 .617-.042.716-.087l.006.389c-.114.053-.554.126-.837.126h-1.02c-.096 0-.154-.073-.154-.172v-2.435h1.536v.431h-1zM89.052 103.524h.685v.425h-.685zM85.675 103.015h2.511v.415h-.967l-.29-.068-.312.068h-.942zM83.574 103.945h.685v.425h-.685zm0 0" style="fill:#6b5e5e;fill-opacity:1;fill-rule:nonzero;stroke:none;stroke-width:.352778" transform="matrix(4.80372 0 0 4.80372 -280.2 -468.238)"/><path d="M87.204 103.084h-.53v-.524h.53zm0 0" style="fill:#6b5e5e;fill-opacity:1;fill-rule:nonzero;stroke:none;stroke-width:.352778" transform="matrix(4.80372 0 0 4.80372 -280.2 -468.238)"/></svg>