<svg xmlns="http://www.w3.org/2000/svg" width="186.59433mm" height="186.59433mm" viewBox="0 0 186.59433 186.59433"><g transform="translate(-13.729 -75.495)"><circle cx="107.02621" cy="168.79202" r="93.297165" style="fill:#f9f9f9;stroke:#fff;stroke-width:0"/><path d="M0 0a87.286 87.286 0 0 1-7.543-13.242 76.235 76.235 0 0 0 4.35-.619 73.495 73.495 0 0 0 9.951-2.45 73.21 73.21 0 0 0 7.945 12.282A87.4 87.4 0 0 1 0 0m35.502 29.809a88.342 88.342 0 0 1-13.24-7.547 87.465 87.465 0 0 1 4.029-14.701 74.137 74.137 0 0 0 3.518 2.64 72.656 72.656 0 0 0 8.761 5.305 73.495 73.495 0 0 0-3.068 14.303m0 16.384A73.624 73.624 0 0 0 38.57 60.5a72.527 72.527 0 0 0-8.761 5.305 70.88 70.88 0 0 0-3.518 2.64 86.016 86.016 0 0 1-1.658-4.924 87.144 87.144 0 0 1-2.371-9.783 87.915 87.915 0 0 1 8.59-5.234 90.968 90.968 0 0 1 4.65-2.311M6.758 92.316a72.963 72.963 0 0 0-14.305-3.068A86.962 86.962 0 0 1 0 76.004a86.82 86.82 0 0 1 9.777 2.371 87.355 87.355 0 0 1 4.926 1.656 75 75 0 0 0-2.64 3.518 72.757 72.757 0 0 0-5.305 8.767M-31.483 0a86.841 86.841 0 0 1-14.701-4.031 74.26 74.26 0 0 0 2.643-3.514 73.225 73.225 0 0 0 5.303-8.766 73.774 73.774 0 0 0 9.957 2.452c1.441.25 2.892.449 4.346.617A87.12 87.12 0 0 1-31.483 0M-66.99 29.809a74.308 74.308 0 0 0-.615-4.356 73.022 73.022 0 0 0-2.447-9.947 73.225 73.225 0 0 0 8.769-5.305 79.485 79.485 0 0 0 3.513-2.64 89.13 89.13 0 0 1 1.657 4.921 86.826 86.826 0 0 1 2.373 9.78 87.967 87.967 0 0 1-13.25 7.547m0 16.384a86.48 86.48 0 0 1 4.656 2.311 87.318 87.318 0 0 1 8.594 5.234 87.627 87.627 0 0 1-4.033 14.707A72.67 72.67 0 0 0-70.052 60.5a73.323 73.323 0 0 0 2.447-9.953c.248-1.445.453-2.897.615-4.354m28.752 46.123a72.963 72.963 0 0 0-7.946-12.285 83.946 83.946 0 0 1 4.924-1.656 87.03 87.03 0 0 1 9.777-2.371 86.798 86.798 0 0 1 5.243 8.588 85.658 85.658 0 0 1 2.305 4.656 73.407 73.407 0 0 0-4.354.617 73.657 73.657 0 0 0-9.949 2.451" style="fill:#b4b6b8;fill-opacity:1;fill-rule:nonzero;stroke:none" transform="matrix(.9176 0 0 -.9176 121.54 202.986)"/><path d="M0 0a88.518 88.518 0 0 1-6.164-7.904 87.419 87.419 0 0 0 14.703-4.03A73.975 73.975 0 0 0 20.127-.344a87.448 87.448 0 0 0-4.029 14.701A87.651 87.651 0 0 1 0 0m29.338 21.904a74.307 74.307 0 0 0 0 16.385 90.968 90.968 0 0 0-4.65 2.311 87.915 87.915 0 0 0-8.59 5.234 88.067 88.067 0 0 1-1.23-9.939 87.24 87.24 0 0 1 0-11.592 88.36 88.36 0 0 1 1.23-9.946 88.154 88.154 0 0 0 13.24 7.547m-21.147 30.1a88.257 88.257 0 0 1 7.907-6.17 87.196 87.196 0 0 0 2.371 9.783 85.244 85.244 0 0 0 1.658 4.924A73.736 73.736 0 0 0 8.539 72.127a86.56 86.56 0 0 0-4.926-1.656A86.388 86.388 0 0 0-6.164 68.1 87.52 87.52 0 0 1 0 60.195a87.586 87.586 0 0 1 8.191-8.191m-35.886-58.68a87.86 87.86 0 0 1-9.952-1.228 87.12 87.12 0 0 0 7.548-13.242 74.005 74.005 0 0 0 16.392 0A87.286 87.286 0 0 0-6.164-7.904a87.697 87.697 0 0 1-9.941 1.228 86.872 86.872 0 0 1-11.59 0M-52.002 8.193a88.468 88.468 0 0 1-7.902 6.164 86.81 86.81 0 0 0-2.373-9.779 89.163 89.163 0 0 0-1.657-4.922 73.932 73.932 0 0 0 11.586-11.592 86.067 86.067 0 0 0 4.924 1.663 87.847 87.847 0 0 0 9.777 2.369A87.835 87.835 0 0 1-52.002 8.193m-6.676 27.698a87.444 87.444 0 0 1-1.226 9.943 87.318 87.318 0 0 0-8.594-5.234 86.48 86.48 0 0 0-4.656-2.311 73.461 73.461 0 0 0 0-16.385 87.954 87.954 0 0 0 4.656-2.308 88.335 88.335 0 0 0 8.594-5.239 87.44 87.44 0 0 1 1.226 9.946 86.842 86.842 0 0 1 0 11.588m14.873 24.3a88.238 88.238 0 0 1 6.158 7.909 86.545 86.545 0 0 0-9.777 2.371 83.21 83.21 0 0 0-4.924 1.656 73.621 73.621 0 0 0-11.59-11.586 86.839 86.839 0 0 0 1.661-4.924 86.876 86.876 0 0 0 2.373-9.783 88.447 88.447 0 0 1 16.099 14.357m27.694 6.676c3.33.219 6.654.631 9.947 1.233a86.962 86.962 0 0 0-7.547 13.244 73.608 73.608 0 0 0-16.388 0 85.658 85.658 0 0 0-2.305-4.656 86.798 86.798 0 0 0-5.243-8.588 87.145 87.145 0 0 1 9.946-1.233 88.237 88.237 0 0 1 11.59 0" style="fill:#d2d4d5;fill-opacity:1;fill-rule:nonzero;stroke:none" transform="matrix(.9176 0 0 -.9176 127.196 195.732)"/><path d="M0 0c-27.552 8.877-49.309 30.637-58.189 58.184a90.924 90.924 0 0 0-1.788 6.343 89.289 89.289 0 0 0-1.785-6.343C-70.637 30.637-92.4 8.877-119.947 0a86.921 86.921 0 0 0-6.342-1.787 88.476 88.476 0 0 0 6.342-1.791c27.547-8.877 49.31-30.633 58.185-58.186a89.659 89.659 0 0 0 1.785-6.34 91.31 91.31 0 0 0 1.788 6.34C-49.309-34.211-27.552-12.455 0-3.578a88.814 88.814 0 0 0 6.338 1.791A87.244 87.244 0 0 0 0 0" style="fill:#216a4f;fill-opacity:1;fill-rule:nonzero;stroke:none" transform="matrix(.9176 0 0 -.9176 162.129 166.473)"/><path d="M0 0c-9.473-25.223-29.521-45.271-54.748-54.746C-29.521-64.227-9.473-84.273 0-109.498c9.477 25.225 29.525 45.271 54.75 54.752C29.525-45.271 9.477-25.223 0 0" style="fill:#22795a;fill-opacity:1;fill-rule:nonzero;stroke:none" transform="matrix(.9176 0 0 -.9176 107.094 117.878)"/><path d="M0 0v-2.766h1.336v1.526H4.29L1.037-9.693l1.5-.004L5.775-1.24 5.773 0Zm7.95-1.635v-1.537L9.846-1.51v-8.183h1.381V0L9.846-.004Zm11.382 13.612c-.488-.487-1.154-.729-2.002-.729-.975 0-1.706.316-2.193.951-.319.424-.537.981-.666 1.668-.125.686-.188 1.996-.188 3.92 0 1.863.074 3.17.219 3.92.15.752.349 1.299.603 1.639.252.338.562.586.92.748.364.154.799.236 1.305.236.869 0 1.541-.246 2.033-.732.358-.362.643-.92.856-1.68h5.652c-.402 2.412-1.398 4.264-2.982 5.553-1.505 1.209-3.368 1.81-5.592 1.81-1.272 0-2.428-.215-3.475-.652a8.575 8.575 0 0 1-2.81-1.887c-1.082-1.078-1.768-2.443-2.065-4.096-.149-.826-.22-2.443-.22-4.859 0-2.307.082-3.924.252-4.855.296-1.672.972-3.039 2.033-4.096 1.694-1.693 3.787-2.541 6.285-2.541 2.245 0 4.109.601 5.592 1.81 1.584 1.291 2.58 3.143 2.982 5.553h-5.652c-.213-.74-.508-1.299-.887-1.681M4.884 6.484v22.608H-.674v-8.701H-6.58v8.701h-5.555V6.484h5.555v8.954h5.906V6.484Zm-26.831 7.875c0-1.058-.262-1.841-.793-2.345-.531-.516-1.252-.766-2.159-.766-.572 0-1.039.096-1.398.285-.361.19-.73.481-1.111.858l-3.655-3.62c.913-.914 1.836-1.55 2.762-1.923.936-.368 2.067-.553 3.402-.553 2.327 0 4.286.656 5.872 1.969 1.758 1.439 2.638 3.429 2.638 5.966v14.862h-5.558zm8.133-15.994v-1.537l1.895 1.662v-8.183h1.388V0l-1.386-.004zm10.397-2.433c-.269-.303-.625-.453-1.073-.453-.465 0-.821.156-1.08.46-.258.311-.388.715-.388 1.213 0 .518.13.928.401 1.233.268.306.619.457 1.067.457.448 0 .804-.155 1.073-.463.271-.309.413-.715.413-1.227 0-.517-.142-.922-.413-1.22M-4.49.078c-.843 0-1.531-.267-2.063-.807-.53-.542-.793-1.255-.793-2.142 0-.846.241-1.525.73-2.041.482-.51 1.087-.764 1.802-.764.345 0 .634.049.873.143l-2.077-4.166 1.474.006 2.202 4.492c.238.472.422.898.543 1.277.121.373.184.744.184 1.106 0 .888-.268 1.593-.797 2.117-.535.521-1.225.779-2.078.779" style="fill:#fff;fill-opacity:1;fill-rule:nonzero;stroke:none" transform="matrix(.9176 0 0 -.9176 107.881 178.9)"/><path d="M0 0c-13.387-13.393-31.187-20.766-50.123-20.766-18.936 0-36.736 7.373-50.127 20.766-13.389 13.387-20.764 31.189-20.764 50.127 0 18.93 7.375 36.734 20.764 50.123 13.391 13.391 31.191 20.764 50.127 20.764 18.936 0 36.736-7.373 50.123-20.764 13.391-13.389 20.764-31.193 20.764-50.123C20.764 31.189 13.391 13.387 0 0m-50.125 144.613c-52.184 0-94.486-42.306-94.486-94.486 0-52.188 42.302-94.492 94.486-94.492 52.182 0 94.488 42.304 94.488 94.492 0 52.18-42.306 94.486-94.488 94.486" style="fill:#22795a;fill-opacity:1;fill-rule:nonzero;stroke:none" transform="matrix(.9176 0 0 -.9176 153.09 214.325)"/><path d="M0 0c-54.791 0-99.211-44.422-99.211-99.213 0-54.795 44.42-99.213 99.211-99.213 54.789 0 99.215 44.418 99.215 99.213C99.215-44.422 54.789 0 0 0m0-2.365c53.402 0 96.85-43.446 96.85-96.848S53.402-196.064 0-196.064c-53.4 0-96.848 43.449-96.848 96.851S-53.4-2.365 0-2.365" style="fill:#22795a;fill-opacity:1;fill-rule:nonzero;stroke:none" transform="matrix(.9176 0 0 -.9176 107.092 77.075)"/><path d="M0 0a3.45 3.45 0 0 0-3.451-3.449A3.446 3.446 0 0 0-6.898 0a3.447 3.447 0 0 0 3.447 3.449A3.452 3.452 0 0 0 0 0" style="fill:#fff;fill-opacity:1;fill-rule:nonzero;stroke:none" transform="matrix(.9176 0 0 -.9176 185.52 181.323)"/><path d="M0 0a3.447 3.447 0 1 0-6.895 0A3.448 3.448 0 1 0 0 0" style="fill:#fff;fill-opacity:1;fill-rule:nonzero;stroke:none" transform="matrix(.9176 0 0 -.9176 34.998 181.323)"/><path d="M0 0c-.466.199-1.206.387-2.206.551l-7.207 1.197-.853-5.119 1.383-.233.56 3.37L-1.7-1.336c.896-.148 1.506-.389 1.808-.709.293-.312.387-.807.276-1.469-.066-.398-.269-.924-.604-1.564l-.336-.635 1.548-.256.041.092c.4.891.652 1.641.75 2.232.181 1.1-.012 2.018-.579 2.729A3.075 3.075 0 0 1 0 0" style="fill:#fff;fill-opacity:1;fill-rule:nonzero;stroke:none" transform="matrix(.9176 0 0 -.9176 36.277 154.225)"/><path d="m0 0-8.412 2.725.816 2.525-1.332.434-2.185-6.748 1.332-.432.818 2.525 8.412-2.728-.818-2.522 1.332-.433 2.185 6.746-1.332.433z" style="fill:#fff;fill-opacity:1;fill-rule:nonzero;stroke:none" transform="matrix(.9176 0 0 -.9176 39.28 145.437)"/><path d="m0 0 7.418-3.691-9.349-.19-.732-1.469 10.425-5.189.666 1.338L.949-5.479l9.428.192.717 1.443L.668 1.344z" style="fill:#fff;fill-opacity:1;fill-rule:nonzero;stroke:none" transform="matrix(.9176 0 0 -.9176 35.51 130.43)"/><path d="M0 0c-.334.379-.924.865-1.752 1.443l-5.991 4.184-2.972-4.258 1.149-.803 1.953 2.801 5.506-3.844c.744-.519 1.191-.996 1.326-1.418.131-.408.002-.896-.383-1.443-.23-.334-.641-.721-1.217-1.154l-.576-.43 1.285-.896.078.066C-.85-5.119-.299-4.549.043-4.059c.639.914.857 1.827.65 2.713A3.06 3.06 0 0 1 0 0" style="fill:#fff;fill-opacity:1;fill-rule:nonzero;stroke:none" transform="matrix(.9176 0 0 -.9176 49.131 125.251)"/><path d="m0 0-5.4 5.094-1.086-1.153 5.56-5.246C-.172-2.018.262-2.654.361-3.195c.1-.532-.099-1.051-.603-1.588-.479-.506-.983-.723-1.502-.651-.537.075-1.184.467-1.924 1.166l-5.59 5.272-1.221-1.293 5.573-5.256c1.023-.965 2.019-1.471 2.963-1.508.037-.002.074-.002.111-.002.908 0 1.785.44 2.603 1.305 1.015 1.076 1.317 2.273.898 3.551C1.473-1.594.928-.875 0 0" style="fill:#fff;fill-opacity:1;fill-rule:nonzero;stroke:none" transform="matrix(.9176 0 0 -.9176 55.5 114.957)"/><path d="m0 0 2.405-4.195-3.394-1.948-2.407 4.196-1.541-.885 5.79-10.102 1.543.885-2.69 4.692 3.396 1.945 2.688-4.692 1.549.889L1.55.887Z" style="fill:#fff;fill-opacity:1;fill-rule:nonzero;stroke:none" transform="matrix(.9176 0 0 -.9176 68.454 97.13)"/><path d="m0 0-1.473 3.773 4.069 1.59-.51 1.305-4.068-1.59-1.233 3.158 4.799 1.875-.51 1.305-6.455-2.521 4.188-10.723.048-.123L5.641.699l-.512 1.303z" style="fill:#fff;fill-opacity:1;fill-rule:nonzero;stroke:none" transform="matrix(.9176 0 0 -.9176 79.857 102.103)"/><path d="m0 0 .502 4.674 2.473-4zm-.751 7.02L-2.053-5.217l1.547.352.36 3.385 3.893.886 1.788-2.898 1.838.418L.91 7.398Z" style="fill:#fff;fill-opacity:1;fill-rule:nonzero;stroke:none" transform="matrix(.9176 0 0 -.9176 89.011 95.978)"/><path d="m0 0-.775 10.215-1.775-.135.883-11.611 7.071.537L5.297.402Z" style="fill:#fff;fill-opacity:1;fill-rule:nonzero;stroke:none" transform="matrix(.9176 0 0 -.9176 100.327 97.052)"/><path d="m0 0 3.783-.266-.713-10.216 1.78-.127.714 10.22 3.782-.265.098 1.398-9.346.652Z" style="fill:#fff;fill-opacity:1;fill-rule:nonzero;stroke:none" transform="matrix(.9176 0 0 -.9176 108.428 88.529)"/><path d="m0 0-3.818.844 1.041 4.722-1.737.383L-7.023-5.42l1.736-.383 1.164 5.278 3.822-.844-1.168-5.277 1.746-.387 2.51 11.371-1.744.385z" style="fill:#fff;fill-opacity:1;fill-rule:nonzero;stroke:none" transform="matrix(.9176 0 0 -.9176 125.405 93.972)"/><path d="m0 0 .838 1.482-.068.071C.04 2.311-.721 2.914-1.49 3.35c-1.393.787-2.809.927-4.19.418-1.377-.508-2.541-1.59-3.459-3.217-.902-1.594-1.203-3.119-.894-4.533.308-1.422 1.185-2.549 2.605-3.352.793-.447 1.737-.768 2.801-.947l.092-.016.752 1.334-.188.027c-.996.147-1.8.389-2.384.719-1.012.572-1.633 1.399-1.844 2.453-.213 1.061.023 2.205.699 3.405.709 1.254 1.563 2.119 2.538 2.568.96.443 1.89.416 2.778-.086C-1.453 1.711-.76 1.051-.119.166z" style="fill:#fff;fill-opacity:1;fill-rule:nonzero;stroke:none" transform="matrix(.9176 0 0 -.9176 149.306 101.15)"/><path d="M0 0c-.982-1.258-1.898-2.074-2.73-2.428-.805-.343-1.543-.256-2.211.264-.653.508-.901 1.174-.754 2.035.146.879.716 1.959 1.689 3.209.971 1.248 1.877 2.059 2.695 2.412.321.139.631.207.928.207.438 0 .858-.154 1.252-.461.666-.519.925-1.187.791-2.049C1.523 2.313.963 1.24 0 0m3.258 3.053c.053 1.353-.459 2.461-1.528 3.291-1.066.832-2.273 1.06-3.566.674-1.278-.379-2.51-1.319-3.656-2.791-1.134-1.454-1.74-2.872-1.805-4.211-.066-1.356.43-2.457 1.476-3.272.758-.592 1.579-.89 2.438-.89.377 0 .772.056 1.168.173 1.279.375 2.52 1.325 3.686 2.819C2.604.301 3.203 1.717 3.258 3.053" style="fill:#fff;fill-opacity:1;fill-rule:nonzero;stroke:none" transform="matrix(.9176 0 0 -.9176 155.356 110.007)"/><path d="m0 0-1.229 1.285-8.419-8.043 4.9-5.127 1.012.967-3.671 3.844z" style="fill:#fff;fill-opacity:1;fill-rule:nonzero;stroke:none" transform="matrix(.9176 0 0 -.9176 164.749 111.465)"/><path d="m0 0-1.025 1.451-9.508-6.722 4.095-5.79 1.142.809-3.068 4.338z" style="fill:#fff;fill-opacity:1;fill-rule:nonzero;stroke:none" transform="matrix(.9176 0 0 -.9176 172.477 120.552)"/><path d="m0 0 1.971-3.898 1.25.632L1.248.631 4.275 2.16l2.326-4.598 1.25.631-3.126 6.186L-5.67-.875l3.287-6.5 1.25.633-2.483 4.914z" style="fill:#fff;fill-opacity:1;fill-rule:nonzero;stroke:none" transform="matrix(.9176 0 0 -.9176 173.703 133.201)"/><path d="m0 0-3.669-1.213a5.29 5.29 0 0 0-.353.789c-.361 1.086-.261 2.104.296 3.022.559.927 1.491 1.611 2.768 2.033 1.402.465 2.631.537 3.652.215C3.712 4.523 4.37 3.883 4.7 2.883c.279-.848.356-1.791.221-2.807l-.027-.207 1.623.537-.006.1c-.051 1.058-.209 1.99-.467 2.773-.514 1.549-1.459 2.623-2.813 3.192-1.347.566-2.925.556-4.691-.028-1.769-.586-3.035-1.519-3.762-2.773-.729-1.262-.832-2.707-.308-4.293.249-.754.724-1.602 1.408-2.518l.056-.078L.558-1.688z" style="fill:#fff;fill-opacity:1;fill-rule:nonzero;stroke:none" transform="matrix(.9176 0 0 -.9176 178.964 146.711)"/><path d="m0 0-11.475-1.982 1.241-7.178 1.38.238-.937 5.426 3.992.689.746-4.302 1.379.236-.744 4.305 3.341.578.878-5.078 1.381.238z" style="fill:#fff;fill-opacity:1;fill-rule:nonzero;stroke:none" transform="matrix(.9176 0 0 -.9176 186.347 151.517)"/><path d="M0 0c-.133.154-2.09 2.471-2.09 2.471L-3.875.961l5.426-6.414 1.785 1.51S1.486-1.76 1.358-1.605L2.543-.602 1.186 1.002 0 0m-4.6-14.137 7.877 6.666c.135-.158 2.615-3.092 2.615-3.092l1.786 1.51L3.92-4.611l-9.663-8.174zm-2.384 9.35c.832.703 2.08.584 2.791-.256.709-.838.615-2.088-.215-2.789-.824-.699-2.076-.586-2.785.252-.711.84-.617 2.096.209 2.793m3.822-4.52c1.752 1.481 2.019 4.057.596 5.741A3.634 3.634 0 0 1-4.4-2.414c.232.193 1.078.91 1.078.91L-4.577-.023s-2.759-2.334-2.916-2.463l-.965 1.138-1.741-1.47s.844-.996.965-1.141a3809.88 3809.88 0 0 0-2.977-2.521l1.252-1.483 1.174.994a3.562 3.562 0 0 1 .82-2.01c1.399-1.654 4.056-1.804 5.803-.328" style="fill:#fff;fill-opacity:1;fill-rule:nonzero;stroke:none" transform="matrix(.9176 0 0 -.9176 157.99 219.974)"/><path d="M0 0c-1.219 1.23-3.098 2.646-6.088 4.379l-4.273 2.478-5.817-10.029 1.842-1.068 4.647 8.015 3.302-1.912C-4.291.646-1.942-.973-1.162-2.006l-.582-1.002-4.955 2.873-1.115-1.922 4.955-2.875c-.088-.156-.748-1.293-.844-1.455l-4.956 2.871-1.115-1.922 4.958-2.873c-.104-.177-1.43-2.464-1.43-2.464l1.601-.928L2.695.963l-1.599.928L0 0" style="fill:#fff;fill-opacity:1;fill-rule:nonzero;stroke:none" transform="matrix(.9176 0 0 -.9176 179.354 204.73)"/><path d="m0 0 1.867-5.021-1.385-.516-1.867 5.021-2.002-.746S.148-10.766.191-10.885c-.678-.924-2.281-1.474-2.3-1.478l-2.573-.957-3.152 8.48 3.306 1.231-.591 1.595-5.465-2.031 3.797-10.207c.394-1.062 1.391-1.506 2.336-1.154l.914.34c.71.263 1.261.48 1.879.744C-.221-13.705.518-13.166.9-12.789l1.002-2.699 2.004.744S1.285-7.699 1.213-7.498l1.384.516c.073-.202 2.693-7.247 2.693-7.247l2.007.745L2.006.744z" style="fill:#fff;fill-opacity:1;fill-rule:nonzero;stroke:none" transform="matrix(.9176 0 0 -.9176 135.205 231.788)"/><path d="m0 0-1.15 2.016-9.141-5.221 1.148-2.012zm-16.281 1.654 3.396 1.938-1.124 1.965-3.595-2.053c-.492-.279-.755-.639-.79-1.078-.033-.442.14-.992.519-1.656l4.866-8.528 1.583.904zm7.314 3.69c-.418-.698-.709-1.5-.902-2.485A9.527 9.527 0 0 1-9.955.076l1.951.012c-.148 1.308-.035 2.625.52 3.642.601 1.104 1.33 1.805 2.015 2.198l1.53-2.68 1.568.895-4.293 7.525-1.571-.897 1.547-2.712a5.707 5.707 0 0 0-3.058-.776c-1.102.033-2.475.569-3.609 1.358l-.872-1.756a9.431 9.431 0 0 1 2.559-1.217c.889-.26 1.869-.387 2.701-.324" style="fill:#fff;fill-opacity:1;fill-rule:nonzero;stroke:none" transform="matrix(.9176 0 0 -.9176 50.02 208.17)"/><path d="M0 0c-1.187.217-2.408.725-3.578 1.412l-.531-1.758c1.138-.646 2.332-1.142 3.621-1.433 1.293-.289 2.325-.328 3.047-.174-.032-.721.199-1.715.74-2.92.537-1.205 1.306-2.32 2.262-3.393l1.636.875c-1.039 1.118-1.783 2.43-2.138 3.377-.43 1.151-.436 2.069-.151 2.719L8.611-4.34 9.77-2.93.26 4.883-.908 3.461 2.854.371C2.201-.041 1.141-.211 0 0m-5.992-.701-1.156-1.408 4.904-4.028-3.178-3.867 1.748-1.437 3.177 3.867 4.903-4.028 1.157 1.409z" style="fill:#fff;fill-opacity:1;fill-rule:nonzero;stroke:none" transform="matrix(.9176 0 0 -.9176 58.442 222.748)"/><path d="m0 0 .895 2.533 7.566-2.67-.895-2.537Zm4.262-3.457 4.822-1.705 3.053 8.641-2.131.753-.93-2.634L1.51 4.27l.929 2.636-2.097.74-2.47-6.988C-2.36 0-2.316-.508-2-.871c.314-.359.742-.637 1.279-.826l2.867-1.016-1.054-2.984-5.932 2.095-.609-1.718 13.982-4.94.607 1.719-5.933 2.096Z" style="fill:#fff;fill-opacity:1;fill-rule:nonzero;stroke:none" transform="matrix(.9176 0 0 -.9176 78.253 238.763)"/><path d="M0 0h3.574v-5.271h2.264V5.363H3.574V1.824H0Zm.209 4.316v1.03h-8.154V3.539h5.703c-.102-1.25-.756-2.328-2.055-3.275-1.273-.932-2.777-1.455-4.357-1.709l.601-1.756c2.016.279 3.795.959 5.582 2.279C-.684.402.209 2.146.209 4.316M-3.727-7.926v4.211h-2.261v-4.443c0-.471.183-.856.553-1.149.367-.297.923-.443 1.671-.443h9.963v1.824z" style="fill:#fff;fill-opacity:1;fill-rule:nonzero;stroke:none" transform="matrix(.9176 0 0 -.9176 107.86 242.552)"/></g></svg>