<svg xmlns="http://www.w3.org/2000/svg" width="203.52032mm" height="203.55508mm" viewBox="0 0 203.52032 203.55508"><path d="M0 0c45.291 0 82 36.722 82 82.016 0 45.282-36.709 81.988-82 81.988-45.254 0-81.976-36.706-81.976-81.988C-81.976 36.722-45.254 0 0 0" style="fill:#28446d;fill-opacity:1;fill-rule:nonzero;stroke:none" transform="matrix(1.24116 0 0 -1.24116 101.745 203.555)"/><path d="M0 0c0-34.698 28.205-62.917 62.878-62.917 34.697 0 62.91 28.219 62.91 62.917 0 34.66-28.213 62.887-62.91 62.887C28.205 62.887 0 34.66 0 0m.611 0c0 34.334 27.939 62.279 62.267 62.279 34.369 0 62.307-27.945 62.307-62.279 0-34.338-27.938-62.312-62.307-62.312C28.55-62.312.611-34.338.611 0" style="fill:#fff;fill-opacity:1;fill-rule:nonzero;stroke:none" transform="matrix(1.24116 0 0 -1.24116 23.704 101.76)"/><path d="M0 0c33.555 0 60.736 27.148 60.736 60.707 0 33.528-27.181 60.712-60.736 60.712-33.522 0-60.696-27.184-60.696-60.712C-60.696 27.148-33.522 0 0 0" style="fill:#fff;fill-opacity:1;fill-rule:nonzero;stroke:none" transform="matrix(1.24116 0 0 -1.24116 101.745 177.107)"/><path d="M0 0c0-44.506 36.196-80.728 80.67-80.728 44.508 0 80.713 36.222 80.713 80.728 0 44.475-36.205 80.664-80.713 80.664C36.196 80.664 0 44.475 0 0m.687 0c0 44.115 35.879 80 79.983 80 44.137 0 80.016-35.885 80.016-80 0-44.146-35.879-80.005-80.016-80.005C36.566-80.005.687-44.146.687 0" style="fill:#fff;fill-opacity:1;fill-rule:nonzero;stroke:none" transform="matrix(1.24116 0 0 -1.24116 1.62 101.76)"/><path d="M0 0c32.535 0 58.896 26.36 58.896 58.884 0 32.495-26.361 58.879-58.896 58.879-32.501 0-58.866-26.384-58.866-58.879C-58.866 26.36-32.501 0 0 0" style="fill:#e7be39;fill-opacity:1;fill-rule:nonzero;stroke:none" transform="matrix(1.24116 0 0 -1.24116 101.745 174.845)"/><path d="m0 0 33.791 17.223v34.61h-66.39v-34.61" style="fill:#fff;fill-opacity:1;fill-rule:nonzero;stroke:none" transform="matrix(1.24116 0 0 -1.24116 101.108 173.079)"/><path d="M0 0h-66.691v-35.125l32.9-17.403L.326-35.125V0Zm-.299-.625v-34.103c-.336-.206-33.203-16.932-33.492-17.06-.275.128-31.949 16.854-32.276 17.054V-.625H-.299" style="fill:#28446d;fill-opacity:1;fill-rule:nonzero;stroke:none" transform="matrix(1.24116 0 0 -1.24116 143.048 108.345)"/><path d="M115.502 161.115h26.404v-1.1h-26.404z" style="fill:#28446d;fill-opacity:1;fill-rule:nonzero;stroke:none;stroke-width:.352778" transform="matrix(3.51825 0 0 3.51825 -351.695 -456.827)"/><path d="M0 0c-.275-.051-.816-.831-.252-.709 0 0 .939.937.252.709" style="fill:#28446d;fill-opacity:1;fill-rule:nonzero;stroke:none" transform="matrix(1.24116 0 0 -1.24116 117.374 84.89)"/><path d="M0 0c-.436.228-.219-.304-.256-.461 0 0 .615.314.256.461" style="fill:#28446d;fill-opacity:1;fill-rule:nonzero;stroke:none" transform="matrix(1.24116 0 0 -1.24116 109.864 84.89)"/><path d="M0 0c-.297-.051-.492-.532 0-.461C0-.461.697.177 0 0" style="fill:#28446d;fill-opacity:1;fill-rule:nonzero;stroke:none" transform="matrix(1.24116 0 0 -1.24116 107.071 84.89)"/><path d="M0 0v.452C-.373.364-.85-.218 0 0" style="fill:#28446d;fill-opacity:1;fill-rule:nonzero;stroke:none" transform="matrix(1.24116 0 0 -1.24116 116.137 85.141)"/><path d="M0 0c-.445.131-.195-.177-.256-.445.592.07.592.419.256.445" style="fill:#28446d;fill-opacity:1;fill-rule:nonzero;stroke:none" transform="matrix(1.24116 0 0 -1.24116 117.691 84.028)"/><path d="M0 0c-.26-.026-.479-.533 0-.445C0-.445.711.243 0 0" style="fill:#28446d;fill-opacity:1;fill-rule:nonzero;stroke:none" transform="matrix(1.24116 0 0 -1.24116 107.995 84.028)"/><path d="M0 0c-.273.466-.742.993-1.008 1.44-.383-.274-.721-1.095-.252-.746.035-.015 0-.562 0-.694-.73.162 0-.461 0-.461.432-.131 1.02.102 1.512 0C.205-.436-.094 0 0 0" style="fill:#28446d;fill-opacity:1;fill-rule:nonzero;stroke:none" transform="matrix(1.24116 0 0 -1.24116 119.892 84.89)"/><path d="m0 0-.934-.674-.255-.263c-.479-1.227.505-.026.773-.193v-.252c-.674.272-.4-.877.992-.71.203.025-.25.71-.25.71.094.085.408-.163.506-.249.252.227 0 .756.262.957.279.27.732.28 1.021.483C1.889-.191.436-.06 0 0" style="fill:#28446d;fill-opacity:1;fill-rule:nonzero;stroke:none" transform="matrix(1.24116 0 0 -1.24116 113.214 82.865)"/><path d="m0 0 .076.036C-.152.036-.131.025 0 0" style="fill:#2b5584;fill-opacity:1;fill-rule:nonzero;stroke:none" transform="matrix(1.24116 0 0 -1.24116 113.214 82.865)"/><path d="M0 0c-.994-.014.326-.404.484-.481C.156-.304.734.036 0 0" style="fill:#28446d;fill-opacity:1;fill-rule:nonzero;stroke:none" transform="matrix(1.24116 0 0 -1.24116 120.535 82.224)"/><path d="M0 0c.441-.07.262.436 0 .481C-.723.67 0 0 0 0" style="fill:#28446d;fill-opacity:1;fill-rule:nonzero;stroke:none" transform="matrix(1.24116 0 0 -1.24116 113.633 82.821)"/><path d="M0 0c-.432.212-.219-.33-.252-.487 0 0 .633.288.252.487" style="fill:#2b5584;fill-opacity:1;fill-rule:nonzero;stroke:none" transform="matrix(1.24116 0 0 -1.24116 114.872 81.027)"/><path d="M0 0c-.461.212-.218-.533-.254-.72 0 0 .572.573.254.72" style="fill:#28446d;fill-opacity:1;fill-rule:nonzero;stroke:none" transform="matrix(1.24116 0 0 -1.24116 79.808 81.027)"/><path d="M0 0c.108.43.436.694.255 1.211l-.506.229c-.312.465-.219.956-.515 1.418h-.494c-.094.157.19.36.253.491-.384.326-.478.203-.76.706-.212-.056-.367-.406-.755-.235-.648.3-.815.943-2.017.943-.108.026-1.128-.116-1.502-.223l-.251-.243c-1.021-.477 1.008 0 1.008 0l.228-.709c.203 0 .842.087 1.024 0 .367-.239 1.898-1.485 2.017-1.921.071-.253-.119-.674 0-.973l.248.746C-.945 1.368-1.969.177-2.015 0c-.456 0-1.094.132-1.526 0-.336 1.166-.147.599-.491 1.211.106-1.875.188-2.042 2.265-1.92-.359 0 .256.506.256.506v-.506c.431.071 1.26.192 2.005.248C.413.162.461-.203 0 0" style="fill:#28446d;fill-opacity:1;fill-rule:nonzero;stroke:none" transform="matrix(1.24116 0 0 -1.24116 84.812 84.89)"/><path d="M0 0c-.805 0 .094-.404.236-.481C.154-.167.492 0 0 0" style="fill:#28446d;fill-opacity:1;fill-rule:nonzero;stroke:none" transform="matrix(1.24116 0 0 -1.24116 109.864 76.01)"/><path d="M0 0s.711.674 0 .481C-.29.41-.493-.082 0 0" style="fill:#28446d;fill-opacity:1;fill-rule:nonzero;stroke:none" transform="matrix(1.24116 0 0 -1.24116 77.314 74.832)"/><path d="M0 0c-.289-.045-.529-.775 0-.706-.07-.101.025-.359 0-.445 0 0 .588.289.241.445-.121.072-.193.072-.216.037C.134-.517.555.157 0 0" style="fill:#2b5584;fill-opacity:1;fill-rule:nonzero;stroke:none" transform="matrix(1.24116 0 0 -1.24116 76.062 68.945)"/><path d="M0 0c0 .451-.046.958 0 1.439C-.687 1.648-.53.192 0 0" style="fill:#2b5584;fill-opacity:1;fill-rule:nonzero;stroke:none" transform="matrix(1.24116 0 0 -1.24116 94.52 68.341)"/><path d="M0 0c-.421.188-.203-.329-.251-.481 0 0 .648.298.251.481" style="fill:#28446d;fill-opacity:1;fill-rule:nonzero;stroke:none" transform="matrix(1.24116 0 0 -1.24116 94.832 65.957)"/><path d="M0 0c.135.071.898 1.185.501.937C.086.709-.758-.446 0 0" style="fill:#28446d;fill-opacity:1;fill-rule:nonzero;stroke:none" transform="matrix(1.24116 0 0 -1.24116 95.46 65.674)"/><path d="M0 0c-.304-.203-1.842-1.596 0-.457C.19-.32 1.079.927.741.734.367.517.273.279 0 0" style="fill:#28446d;fill-opacity:1;fill-rule:nonzero;stroke:none" transform="matrix(1.24116 0 0 -1.24116 97.983 63.039)"/><path d="M0 0c-.42-.116-.732-.744 0-.501C0-.501.711.133 0 0" style="fill:#28446d;fill-opacity:1;fill-rule:nonzero;stroke:none" transform="matrix(1.24116 0 0 -1.24116 129.271 49.71)"/><path d="M0 0c-.721-.07-.539-.436.266-.461C.17-.171.445.056 0 0" style="fill:#28446d;fill-opacity:1;fill-rule:nonzero;stroke:none" transform="matrix(1.24116 0 0 -1.24116 130.525 49.139)"/><path d="M0 0v.467C-.363.406-.844-.197 0 0" style="fill:#28446d;fill-opacity:1;fill-rule:nonzero;stroke:none" transform="matrix(1.24116 0 0 -1.24116 127.71 49.139)"/><path d="M0 0c.877-.72-.359 1.519-.518 1.656C-1.297 2.295-.336.288 0 0" style="fill:#28446d;fill-opacity:1;fill-rule:nonzero;stroke:none" transform="matrix(1.24116 0 0 -1.24116 131.793 50.017)"/><path d="M0 0c-1.154-.107-.608-.396.494-.467C.182-.274.76.086 0 0" style="fill:#28446d;fill-opacity:1;fill-rule:nonzero;stroke:none" transform="matrix(1.24116 0 0 -1.24116 62.6 47.666)"/><path d="M0 0c-.502.075-.18-.142-.252-.456.77.06.977.446.252.456" style="fill:#28446d;fill-opacity:1;fill-rule:nonzero;stroke:none" transform="matrix(1.24116 0 0 -1.24116 130.224 47.1)"/><path d="M0 0v.481C-.516.384-1.162-.248 0 0" style="fill:#28446d;fill-opacity:1;fill-rule:nonzero;stroke:none" transform="matrix(1.24116 0 0 -1.24116 100.465 46.773)"/><path d="M0 0c-.422.203-.203-.314-.268-.471 0 0 .612.314.268.471" style="fill:#28446d;fill-opacity:1;fill-rule:nonzero;stroke:none" transform="matrix(1.24116 0 0 -1.24116 102.036 45.59)"/><path d="M0 0c.579.06.617.396.267.471C-.213.567.087.253 0 0" style="fill:#28446d;fill-opacity:1;fill-rule:nonzero;stroke:none" transform="matrix(1.24116 0 0 -1.24116 64.132 46.175)"/><path d="m0 0 .504.953c-.397.131-.442.177-.746.213-.024-.036-.18-.938-.252-.938C-1.344.253-.18.04 0 0" style="fill:#28446d;fill-opacity:1;fill-rule:nonzero;stroke:none" transform="matrix(1.24116 0 0 -1.24116 130.525 46.773)"/><path d="M0 0c.033.218.491 1.131 0 .938C-.47.831-.601-.132 0 0" style="fill:#28446d;fill-opacity:1;fill-rule:nonzero;stroke:none" transform="matrix(1.24116 0 0 -1.24116 66.344 46.49)"/><path d="M0 0c0 .097-.053.729-.053.729C-.445.638-.844-.207 0 0" style="fill:#28446d;fill-opacity:1;fill-rule:nonzero;stroke:none" transform="matrix(1.24116 0 0 -1.24116 69.476 45.012)"/><path d="M0 0s.586.314.252.481C-.217.708.023.193 0 0" style="fill:#28446d;fill-opacity:1;fill-rule:nonzero;stroke:none" transform="matrix(1.24116 0 0 -1.24116 106.431 42.955)"/><path d="M0 0c-.79-.143-1.322-.903 0-.457C0-.457.735.131 0 0" style="fill:#28446d;fill-opacity:1;fill-rule:nonzero;stroke:none" transform="matrix(1.24116 0 0 -1.24116 81.04 39.388)"/><path d="M0 0h-.515l-.253.472c-.851.071-.046-1.516 0-1.652C-.515-.795.217-.024 0 0" style="fill:#28446d;fill-opacity:1;fill-rule:nonzero;stroke:none" transform="matrix(1.24116 0 0 -1.24116 77.314 39.704)"/><path d="M0 0c.572-3.512.475-1.455.252.465C.225.608-.076.289 0 0" style="fill:#28446d;fill-opacity:1;fill-rule:nonzero;stroke:none" transform="matrix(1.24116 0 0 -1.24116 105.81 39.388)"/><path d="M0 0c-.383-.085-.884 0-1.26 0v-.457c.781 0 1.07-.217 1.744 0 .109.011.982.562 1.26.674-.059.046-.315.31-.746.248C.674.43.217.06 0 0" style="fill:#28446d;fill-opacity:1;fill-rule:nonzero;stroke:none" transform="matrix(1.24116 0 0 -1.24116 83.261 39.388)"/><path d="M0 0s.596.309.251.465C-.173.668.033.141 0 0" style="fill:#2b5584;fill-opacity:1;fill-rule:nonzero;stroke:none" transform="matrix(1.24116 0 0 -1.24116 69.476 39.388)"/><path d="M0 0c-.083.229.195.614-.263.477V.254C-.334.265-.757.72-.757.72-1.258.761-.96.324-1.008 0-.757.071-.289 0 0 0" style="fill:#28446d;fill-opacity:1;fill-rule:nonzero;stroke:none" transform="matrix(1.24116 0 0 -1.24116 76.062 38.81)"/><path d="M0 0c.431.071 2.039 1.029.491.694C.274.669-.758-.086 0 0" style="fill:#28446d;fill-opacity:1;fill-rule:nonzero;stroke:none" transform="matrix(1.24116 0 0 -1.24116 90.466 37.332)"/><path d="M0 0c-.431-.071-.758-.706 0-.467C0-.467.71.171 0 0" style="fill:#28446d;fill-opacity:1;fill-rule:nonzero;stroke:none" transform="matrix(1.24116 0 0 -1.24116 89.837 35.86)"/><path d="M0 0c.135-.648.572-1.728.768-2.615.048-.278.267.754.267.937C.924-.861.527.127.26.927.168 1.241-.023.173 0 0" style="fill:#28446d;fill-opacity:1;fill-rule:nonzero;stroke:none" transform="matrix(1.24116 0 0 -1.24116 104.838 35.25)"/><path d="M0 0c-.421-.06-2.355-1.114-.768-.709C-.638-.668 1.188.34 0 0" style="fill:#28446d;fill-opacity:1;fill-rule:nonzero;stroke:none" transform="matrix(1.24116 0 0 -1.24116 93.91 34.1)"/><path d="M0 0c-.555-.111-1.131-.744 0-.481C0-.481.719.157 0 0" style="fill:#28446d;fill-opacity:1;fill-rule:nonzero;stroke:none" transform="matrix(1.24116 0 0 -1.24116 95.46 33.502)"/><path d="M0 0c-.494 1.141-.039 2.414-.256 3.548-.359 1.764-1.033 2.65-1.275 4.774-.141 0-.6-.07-.758 0-.588.289.266-.73.266-.73.468-1.778.013-2.484.734-4.261.047-.072.494-.158.516-.255-.229-.171-.022-3.531 0-3.547.06-.213.578-.623.773-.983.006.158.203.77.252 1.202.115-.046.441-.396.5-.452-.082.142 0 .563 0 .704" style="fill:#28446d;fill-opacity:1;fill-rule:nonzero;stroke:none" transform="matrix(1.24116 0 0 -1.24116 105.81 43.522)"/><path d="M0 0c.107-.386-.01-1.151.266-1.43.287-.238.021 1.537 0 1.694-.096 0-.688-.045-.745 0C-.58.298-.734.147 0 0" style="fill:#28446d;fill-opacity:1;fill-rule:nonzero;stroke:none" transform="matrix(1.24116 0 0 -1.24116 104.21 32.325)"/><path d="M0 0c-.408.025-.289-.314-.508-.472C-.125-.386.609-.01 0 0" style="fill:#28446d;fill-opacity:1;fill-rule:nonzero;stroke:none" transform="matrix(1.24116 0 0 -1.24116 103.93 30.834)"/><path d="M0 0h-.508C-.625-.465-.852-1.044-1-1.404c.627-.324-.516-.704-.516-.704.282 2.772-.093.654-.504 1.643-.082.228-.144.84.241.709 0 0-.963.957-1.239 1.185v.491c.688.112.94.078 1.502.219v.71c.282.106.436-.395 1.008-.213 0 .522-.107 1.14 0 1.656-.078.046-.726.396-.742.492.275.091-.266.938-.266.938.047.01.495.319.516.233-.08.603-.047 2.261 0 1.688.42 5.707-2.422 2.595-4.285 3.786v.466c-.154.395-1.139.385-1.248.693v.507s.322.528.492.482c.117.598-.039.801.238 1.186.061.07.983.42 1.012.472.127.263-.193.507 0 .694.094-.036.721-.684.766-.694.89-.315-.6-.639-.766-.735.432 0 .596-.122 1.258-.204-.133.35.119.851 0 1.187-.061.112-.733.329-.733.446-.119.435.483.157.241.734-.672-.112-.842.071-.518 0 0 0-.035.719-.742.248-.256-.177.228-.668.236-.729-.42-.253-.922-.492-1.234-.699-.299.112-.485-.117-.779 0-.534.182-.786 1.048-1.768.937-.084 0 .242-.431.266-.491-1.524-.334-3.883-1.211-1.682.577.023-.06.408-.086.408-.086v.491c.649.199-.195-.405.508-.248 0 0 .572.405.766.467v.471c.685.203.455-.4.744-.471.24-.046 1.609.203 2.279.252v.695c-.547.264-.611.102-1.248.244 0 .046.326.455.256.491-.852.229-1.766-.324-2.547-.735-.18-.08-.494-.607-.758-.695-.914-.298-1.154 0-1.766-.471-.408-.308.67-.288.264-.491-1.32-.608-.48-1.378-.758-1.92-.047-.046-.662.075-.765 0-.282-.122.468-.229-.518-.695v-.228c-1.875-.557-3.607.624-4.773.719-.803.036-1.741-.167-2.782-.253l.516.457c.133.015.838-.142 1.25-.204-.592.098-1.623.851-2.766.467v-.72h-.5c.416-.106.573-.578.5-1.186l-.5-.269c-.125-.222.055-.658 0-.936-.365-1.201-1.181-3.279-1.767-4.744l-.522-.249a28.07 28.07 0 0 0-2.017-3.086c-.227-.304-.468-.557-.742-.937 2.775 2.484 3.484 4.5 5.048 8.093 2.797 0 5.198.386 8.067.229.492-.016 1.648.262 1.758.227.273-.046.539-.587.756-.688-.024-.092-.75-.706-.756-.741-.086-.254.131-.673 0-.938h-.494c-.432-1.306.189-1.636 0-3.096l-.508-.487c-.477-1.662.195-3.096-.252-4.764l-.504-.227c-.156-.244-.119-.709-.276-.952-.513-.782-1.945-1.141-2.748-1.658-1.181-.78-1.777-1.947-2.785-2.858-.099-.107.336-.37.262-.705-.447.263-.158-.699 0-.76-.785-.249-1.637-.228-2.295-.674-.037-.036-.514-1.029-.748-1.185-.336-.244-.805-.173-.992-.492-.125-.127-.125-.857-.252-.938-.287-.197-.93.081-1.274 0l-.505-.491c-.399-.076-3.774.248-3.774.248l-1.269 1.429c-.122.339.151.902 0 1.18-.219.406-.953 1.008-1.25 1.425-.086-.025-.469-.299-.517-.228 0 0-.217 1.515-.507 1.672-1.225.689-3.28.086-4.274-.248v-.471c-.446-.102-2.501-.108-1.781.238.157.086.204.167.304.217-.517-.024-1.865-.086-2.319-.217.17.664 0 .982.248 1.662.076.187.713.806.773.947.072.249-.147.73 0 .958.298.579 1.198.949 1.488 1.657.263.604.256 2.032.78 2.392.877.604.851-.613 1.767.72.468.71.124.912.249 1.18-.681.092-.947.046-1.258 0v.25h.25c-.157.647-.203.719-.25 1.413-.274-.334-.659-.435-1.01-.72l.252-.451s.099-.197-.252 0c-.528.264-.528.451-.528.451-1.177.7-.081.603 1.031.953.469.167.458-.122.757-.233v.487c-.671-.121-.633 1.774.493 0 .157-.254-.133-.71 0-.964l.757-.243c0-.115-.085-.577 0-.693.593.242 1.443.359 2.032.693.35.243.634.953.998 1.207 1.08.694 2.399.79 3.292 1.657.421.445.572 1.256.994 1.657 1.344 1.359 2.725 1.992 4.781 1.429-.226.157.243.674.266.71-.158-.046-.602 0-.744 0l.994.693c.125.482-.25.199-.516.269.35.948.18 1.039.516 2.134 0 0-1.057-.096-.516-.491-.382.263-.144.218-.226.735-.758-.315.164-.735-.774-.735 0 0-.515.263-.752.263v-.72c-.578-.147-.437.289-1.009.253l-.757-.491c-.398-.025-1.155.132-1.766.238-.109-.273 0-.624-.256-.719-.274-.086-.491.141-.753 0v.719c.119.086 2.259 1.272 1.009.948-.288-.071-1.024-.613-1.264-.695-.611-.202-.9.02-1.511-.253-.194-.071-.491-.647-.731-.719-.229-.026-.604.095-.784 0-.757-.411-2.318-2.366-3.28-2.366-.47-.016-.166.157-.259.471-1.118.293-2.595.861-3.282.967-1.024.111.132-.476-.484-.501-.501.922-.838 1.773-1.018 3.096-.405.025-.672-.335-1.273 0-.096.101.229.421.263.492-.648.263.347-.132.756-.248.062.405.121 1.296.254 1.895.648.203 1.297.167 2.017.471.218.106.298.669.506.72 1.035.395 2.137.304 3.035.74.47.218.987.937 1.517 1.195.18.081.561-.076.757 0 0 0 3.134 1.556 3.266 1.642.385.279.421.903.768 1.191h.491s1.924 1.358 2.022 1.42c.213.187.501.815.757.947 0 0 4.105.719 1.009.71 0 0-.724-.204-1.009-.204.215.782.431 1.947 0 2.124l-.491-.249c.032-.242.235-1.671.235-1.671-.336-.193-.968.009-1.259-.204-.131-.131.062-.556 0-.759-.092-.229-.877-.274-1.008-.432-.217-.324.12-.815-.256-.982-.235-.076-.802.187-1.008 0-.415-.304-.539-1.141-1.008-1.43-1.954-1.181-1.234.492-1.234.492.371.238.648.526.983.705h-.508c-1.476-.674-.273-.755-1.018-1.658-.131-.167-1.343-.861-1.489-.968h-.503c-.207.32-.179.862-.521.968-.259.086-.526-.157-.742 0 .014.041.539.75.249.953-.741-.492-1.235-.953-2.268-1.196v-.222c.814.01 1.151.147 1.753.222v-.725c-1.572-.866-3.11-1.804-4.79-2.609-.04.248-.111 1.024-.253 1.429-.123-.025-.516-.421-.771-.244-.213-.694-.37-1.509-.502-3.086 0 .046-.408.203-.491.243-.064 1.546.023 1.516.491 2.616-.638.279-.408 0-.985 0v.734c-.337-.117-1.368-.598-1.779-.734.038-.081.671-.061.769-.218.206-.538.072-.994.239-1.46h-.494l-.25.72c.25.046.529.491 0 .491l-.264-.491c-.649.248-.626.278-1.502.491.108.203.038.897.494.694-.423.33-.791.604-1.275.952.266.056.061.169-.191.255l-.047.36.096.217.119.153-.348-.01-.108-.629c-.147.025-.219.025-.023-.091h-.24v-.457c.25.573.504-.506.504-.506-.264-.192-.831-.457-1.01-.689l.506-.74c-.359-.254-.938-.289-1.259-.482.069.263-.376.456-.257.973 0 0 1.804 1.394.507 1.201-1.29-.217-1.454-2.036-2.017.445.033-.278-.398-.592-.255-1.179.108-.421 1.129-1.045 1.271-1.44.124-.436-.142-.948 0-1.419-.368-.203-.78-.39-1.016-.704.573-.087.573-.481 1.016-.481.179 0 .82.612 1.242.481.236-.076-.241-.725-.241-.725.225-.036.444-.476.503-.491.386-.046.648.156 1.248 0v-.457c.672.026 1.288 1.166 1.009.948.311.121.168.593.266.938.203-.264.732-.477 1.008-.694-.144-.503-.321-.746-.251-1.192-.18 0-.626.086-.757 0-.119-.025-.72-.693-.759-.719-.394-.075-.346.456-.516.481 0 0-3.484.091-3.768 0-.18-.035-.484-.588-.749-.71-.759 1.607-.913 1.405.494 1.896v-.948c.012.061.903.79.255.72 0 .157-.025.552 0 .72-2.261 0-1.868.446-2.523-1.187-.337.02-.36.436-.517.467-.413.07-1.335-.659-1.501-.72.213 0 .814.112 1.009 0 .213-.116.562-.587.758-.719-1.182.288-1.601.095-2.273.253v-.482c-.267-.075-1.249.154-1.01.229a33.36 33.36 0 0 1-2.281 0s.141.288.527.481l-.262.958c-1.789-.562-2.273-.492-3.531-1.439.069-.324.235-1.404.235-1.404.243.092-.258.492.266.229v-.497c.638-.432 2.359-.553 2.022-.467 1.918.248 2.868.107 4.54.244.775.07 1.894.779 3.026.466.383-.086 3.282-3.29 4.29-3.796.61-.325 1.282-.218 2.002-.456.203-.101.818-.674 1.023-.735.107-.015.662.071.765 0l1.265-2.366c.058-.579-.36-.406-.266-.969.4.031.783.274 1.251.249v-.973c-.532-.3-.242 0-.735 0v-.71c-.468-.193-.577.445-.78.253-.322-.273-.274-.78-.48-1.191-.168-.308-.985-1.104-1.02-1.418-.037-.31.325-.416.251-.958h-.504c-.108-.989.445-1.637.504-2.138.098-.853-.216-1.633-.251-2.149l-.494.962c-1.696.3.048-.998-.529-1.205.436-.036 1.552-.062 2.282-.482 0 0 .313-.852.771-.922.398-.111.855.096 1.248 0 .239-.097.756-.674 1.01-.735 1.297-.275 2.86 1.155 2.017-.476-.132-.228-.297.187-.515-.228-.565-.052-1.188 0-1.756 0 0 0 1.381-.533.507-.492.324-.041-.76 0-.76 0l-.264-.234c.398-.167-.658-.259-.744-.227 0 0 .171.531.242.709-.13 0-.615-.071-.735 0 .244.061-2.219-.091-1.765 0-.493.192-.143.025-.264.472-.251-.072-.635-.254-.745-.228.038.187-.218.658.241.455-.122.396.205.37-.241.481-.25-.521-.829-1.408-1.022-1.889 0 0 .903-.65.493-.72-.611-.133-.166 0-.743 0v.481c-.289.132-.479-.131-.758 0-.422-.324.084-.805 0-.962-.025-.036-.658 0-.756 0 0-.346.108-.853 0-1.191h1.01v-.467c.722.157.62-.183 1.247 0 0 0 .24.411.529.467-.132-.153-.083-.706-.263-.942-.119-.173-.916-.209-1.009-.488-.087-.202.145-.781 0-.958-.134-.106-.504.467-.504.467-.17-.097-.231-.598-.504-.694.889-.202 1.631-.563 2.774-.228l1.02.455v.467c-.255.147-1.214.334-1.273.491-.036.062 0 1.915 0 1.915.504.163.936.011 1.512.223.099.052.568.69.771.716 1.248.288 2.618-.173 3.276 0 .076.02-.251.451-.261.491.261.071.745 0 1.008 0v.477s.566-.674.252-.72c.038-.071.745-.964.745-.964.41-2.183-1.26.483-1.26.483.397-2.388-.385-1.623 2.04-2.133-.056-.138.048-.579 0-.72h-.517c-.093-.356-.046-1.364 0-1.181 0-.062.048-.923 0-.963.108.06.533.446.768.253-.383-.193-.056-.396-.768-.502v-.202c.205.161.768-.157 1.024 0 .094.03 0 1.028 0 1.159.562.082.445-.288.735-.455.07.375-.195.664.259.71v-.963c.412-.021.569-.087.757-.249h.516v.502c-.516-.274-.081.131-.265.193.243.182 2.189.866 2.272.972.601 1.044-.07 2.772.241 3.812.049.115.446.801.543.968.42-.133.154.243.24.461h.491s1.067-1.648 1.26-1.926c-.116-.046-1.751-.927-1.751-.927-.099-.153.12-.837 0-.942 0 0 1.429.045.994.236.227-.024.648-.085 1.008 0 .304-.445.53-1.044.773-1.443.264.172.454-.092.742 0 .35.157 1.673 1.358 2.016 1.682 1.525 1.312-.742 0-.742 0-.795-.183-1.132.016-1.525 0v.467c.457.137.949.384 1.259.485 1.215.36 2.797.108 3.799.706.07.06.373 1.145.992 1.428.748.365.867-.187 1.539.234l.229 1.196c.23-.132.589-.177.771-.249l-.256-.455c.678-.148.459.334.76.455.252-.157.18-.638.746-.455.119.045-.18.415.236.228l.78-.954c-.36-.157-.6-.684-.78-.704-.744-.203-.589.334-1.244.238l-.242-.481c-.564 0-.975-.046-1.516 0-.406.04-.32.587-1.273.243 0 0-.25-.376-.383-.567.227.131.334-.887-.359-1.348-.156-.091-.604.05-.774 0-.369-.091-.898-.873-1.019-.942-.576-.34-1.106-.229-1.74-.488 0 0 .477-.537.241-.719.213 0 .829.121 1.009 0-1.024-.086.252-.239.252-.239.482-.207.445-.06 1.007.239.485.278-.252.228-.252.228.432.39-.07.147.502 0 0 .147-.093.913 0 .979.366.248.868.045 1.266.236.287.158.287.573.5.706l.523-.234c0-.102-.101-.907 0-.963-.076-.035-.703 0-.773 0 .037-.253-.156-1.804.25-2.356h.748c.119-.193.086-.34.275-.502.073.177.553.37.745.502-.596.288.349 1.155-.229 1.404.195.121.516-.021.744 0 .446.121 1.117.917 1.506 1.207.203.151.539.536.752.708-.455-1.039-.562-1.54-.752-3.126.625.242.236.517.236.517.467.156 1.047-.086 1.541 0v.694c-1.166-.142-.818.831 0 .719 0 .062-.064.69 0 .724.192.169.754-.131.983 0 .096.046.375 1.056.506 1.191.705.563 1.924.189 1.019 0 .051-.196.492-1.084.516-1.191.144.396.123.396.254.706-.733-.153 0 .485 0 .485.429.133 1.549-.217 1.504-.242-.604-.167-1.705-1.227-2.274-1.673.051-.141.24-.719.24-.719.305.172.78.719.78.719.457.157 1.035-.101 1.504 0 .084.026 1.548.77 2.017.963.311-.475-.119-.674.506-.963h.264c.095-.274-.155-.441 0-.719 1.127.278.66-.299 0-.694 1.619-.158 2.652-.325 4.783-.517.143.298-.146.471 0 .745h.525c.094.06.133.816.241.953.468.739 1.478 1.282 2.005 2.147l-.251.442c-.026.107-.338.445-.252.497 1.078.608.552 4.068.744 4.764.097.268.636.517.779.714.338.547.219 1.008.492 1.678-.392-.29-.9-.67-1.271-.938-.133.051.207.501-.241.228v.217l1.512.705c.18.446-.344.806-.252 1.444h.252v.71L0-1.175C.133-.754-.123-.406 0 0m-16.66 13.278.092-.04-.092.04-.149.02zm-.276-1.348c-1.013.658-1.531.825-2.728.927v-.461c-.889-.116-1.162.192-1.756.192.037.269 0 .989 0 .989.336.193.359-.227.484.228 1.008-.219 1.668-.71 3.026-.481 0 0-.445.694.517.481l.491-.481c-1.565.026.093-.467.492-.736 0 0-.721-.481-.526-.658m3.323.219s-.959-.28-1.51 0c0 0 .168.527.238.708-.142.056-.627 0-.767 0l-.252.467c.578-.086 1.236.183 1.789 0v-.467c.179 0 .564.071.734 0-.014-.102.158-1.034-.232-.708m-17.919-2.393c.337-.025.745-.339 1.008-.228.157.06.421.877.768.969 2.235.556-1.018-1.917-1.018-1.917-.133.071-.938.212-1.01.238zm-1.26 2.832s.048-.998 0-1.403c-.083.157-2.678 1.181 0 1.403m-3.03-2.091c.532.147-.6.268.251.232 0 0 .184-.396.521-.232.346.17.393.978.743 1.155.468.278.085-.153.251-.223.227.344.266-.244.266-.244-.266-.334-.757-.816-1.008-1.191-.563.168-2.117.123-1.024.503m-11.339 1.899c.468-.247-.634.111-.611.192-.226-.081-.279-.405-.408-.439l-2.764.247c-.226.077-.482.568-.766.699.046.122.334.324.252.482.622-.132 1.93-.664 2.268-.72.589-.102 1.466.188 2.029 0l.228-.461zm6.04-4.059c.289.213 0 .71 0 .71.101.036.845-.071 1.264 0 0 0-.468.638-.263.709.656.218.515-.446.766-.471.75-.091.304.542.757.471 1.226-.122-.42-2.088-.502-2.113-.192-.076-.506.694-.506.694-.132-.036-.999-.694-.999-.694-.729-.122-1.272.694-1.272.694.131 0 .638-.071.755 0m-3.025.71-.744.238v.471c1.744.178.683-.673.744-.709m.76 4.048c-.471.098-.195-.455-.244-.699-.805.244-1.054.28-1.765.461.047-.517-.335-.04-.515 0 .382 1.115.192 1.344.515 2.626h.505c.035-.031 0-.853 0-.983.136.015.785-.573.48.263.17-.107.312-.694.78-.467 0 0-.217.537-.25.695.165.101.36.121.494.244l.491-1.43c-.539.01-.071-.588-.242-.948-.143-.304-.249.238-.249.238m.249-7.86c.07.199.242.72.242.72.443-.091.601-.431.766-.477.253-.044 1.001.183.76.244 3.023-.516-.636-.533-1.768-.487m.744-9.041c-.213.01-.419-.131-.744-.217-.061.227.242.577-.249.461-.195-.041 0-.938 0-.938-.182.046-.385.344-.494.249V-4.5c-1.805 0 1.461.02-.771-.243 1.021-.087.601-.421.771-.481-.53.278-.661.086-1.265.233-.154.491.234.258-.25.491.194.477-.133 1.125.25 1.399.18.198.627 0 .735.269.375.78.312 1.595.53 2.367h.743c.146-.939.146-1.359.242-2.15 0 0 .454.624.502.507.35-.917-.059-.795 0-1.698m-.239 5.007c0 .314.12.918 0 1.191.239-.613 1.527-1.479 0-1.191m1.01 1.435-.254 1.186c1.452.359 1.538-2.341 1.756-3.822-1.108.471-1.383.553-1.502 1.201-.107.578 0 1.435 0 1.435m3.29-11.428c-.638-.238.039.096-.265.244.134.095.484.765 1.024.936.501.213.055-.111.251-.232.17-.132-.65-.79-1.01-.948m1.494 1.91c.416-.288.741-.253 1.267-.481-.923-4.48-1.61-1.358-1.267.481m2.531.695c-2.665-.273-4.025-.097-6.814-.502v.502c1.579.4 2.876.112 4.808.482l.742.481c1.672.167 1.264-.963 1.264-.963M-13.381 4.05h.518c.187.35.681 1.008.765 1.185.086.269-.154.497 0 .72h.758c.135.233.721 1.12.768 1.181.133.623-.266 1.702-.266 1.911-.008.638.422 1.804.494 2.382.77-.578.578-.978.256-2.382.359-.071 1.258-.497 1.524-.482.166.04.242.411.744.482-.409-1.404-.192-1.839-1.01-3.092-.096-.141-.711-.334-.744-.477v-.465h-.514v-.471c1.656-.168-1.83 0 .514-.25.986-.111 1.033.502 1.504.721 0 0 .347-.533.5-.471l.263.936s.774-.358.518-.465c.289.081.937.238.986.222-1.189-1.439-.386-.405-.73-1.921-.735 0-.697.36-1.287.259l.25-.461c-.659-.086-.971-.324-1.51-.263l-.25.724c-.436.127-.125-.374-.758-.259-.172.076-.469.36-1.002.508v-.973c.432.147.172-.239.252-.457h-.502c.527.249-.264.244-.264.244l-.251-.497c.273-.107.742.122 1.017 0 .053 0 .531-.938 0-.71-.18-.552.592-.709-.252-1.185-.217-.101-.648-.101-1.271-.244-.516 1.515-.674 1.885-.502 3.822-.289.045-.578-.249-.518.228m.77-13.324c-1.205-.314-3.424-1.404-4.039-1.428-1.62-.097-1.19.962-.504.724.383 1.561-.733.624 1.009 1.658l.241.476c.445.085 1.898-.446 2.039-.476.377-.097.855 0 1.254 0-.073-.041 0-.831 0-.954m3.531 1.181c-.266.046-1.242.117-1.758.249-2.603.638-.982 1.312-1.523 2.62-.119.324-.987.527-1.252.724-.188-.127-.502-.487-.756-.491l.254.74c-.254-.376-1.586-2.062-2.03-2.164-.611-.157-.375.374-.757.228 0 0-.539-.405.757-.502 0 0-.611-.35-1.009-.193-.756.278-.506.953-.506.953s-1.141-.207-.494-.486c-.313.085-.959.243-1.016.228.072.03 0 1.094 0 1.196.539-.147.236-.284.514-.714.142.135.603.135.746.243.273.238-.195 1.008-.244 1.211h.494c.326.085.437.815.758.938.818.272-.578-.71.252-.493 0 0-.024-.754 0-.937.3-1.829 1.695.374 2.535.937.238.188.119.37.25.705.435 0 1.08-.116 1.504 0-.071.486-.119.158-.502.269.054.724.336 1.104 0 1.428.539-.131.781 0 1.259 0-.216-1.718-.095-.891-.757-2.402.263-.131.779-.243 1.021-.445-.094-.203-.203-1.106-.515-.973 0 0 .166-.66.251-.238l.514-.953s1.117.203.518.486c.398-.172.17-.496.228-.953 1.92-.577-1.525 2.945.506 2.382l-.25.477c.055-.477-.086.086 0 .71-.398.191-.463.455-.75.698-.133-.04-.346-.314-.502-.217.19.096-.279.466.25.217v.73c.072-.036.664 0 .746 0 .192-.324.699-.825.77-.947.133-.447-.192-.988 0-1.419l.494-.249c.045-.289-.352-.436-.25-.962l.766-.243c.107.567-.383-1.81-.516-2.388M-7.82.72C-8.049.553-8.541.457-8.83.244c.625-.101.625.167 1.01.227-.213-.409-.028-.769-.25-1.179-.174-.314-.807-.66-1.01-.949-.063.122-.158.4-.25.482h-.508c.469.218-.25 1.895-.25 1.895-.037.401.25 1.672.25 1.672.406-.147.193-.507.264-.963.478.026.133.132.244.491h.5s-.18-.55-.25-.719c.443-.121.25-.121.516-.253h.494c-.844.422 1.201.481.25-.228m2.017-10.46c.241-.131-.621 0-1.504.239.016.147-.179.953.245.709l.273.472c2.07.157.459-1.157.986-1.42m.754 5.24c-.875-.593.506 1.399.506 1.399.158.603-.045 1.327 0 1.926l.76-.482c-.362-1.489-.18-2.113-1.266-2.843m1.024-.491c0 .431.087 1.008 0 1.429.468-.172.828-1.743 0-1.429m1.007 4.044c-.086-.02-.49-.177-.515-.228-.133.349-.444.349-.733.467.012.243.313 1.139.241 1.179.468-.268.625-.096 1.259-.227-.072-.218-.322-1.131-.252-1.191" style="fill:#28446d;fill-opacity:1;fill-rule:nonzero;stroke:none" transform="matrix(1.24116 0 0 -1.24116 133.657 65.096)"/><path d="M0 0c.014.014.068.076.133.157A.51.51 0 0 1 0 0" style="fill:#2b5584;fill-opacity:1;fill-rule:nonzero;stroke:none" transform="matrix(1.24116 0 0 -1.24116 104.21 78.38)"/><path d="M0 0c.157.016.227.016.227.016A.59.59 0 0 1 0 0" style="fill:#2b5584;fill-opacity:1;fill-rule:nonzero;stroke:none" transform="matrix(1.24116 0 0 -1.24116 85.19 71.31)"/><path d="M0 0c-.961-.024.373-.406.518-.466C.18-.314.76.016 0 0" style="fill:#28446d;fill-opacity:1;fill-rule:nonzero;stroke:none" transform="matrix(1.24116 0 0 -1.24116 113.929 76.607)"/><path d="M0 0c-1.691-.167 0-.466.504-.481C.17-.309.732.061 0 0" style="fill:#28446d;fill-opacity:1;fill-rule:nonzero;stroke:none" transform="matrix(1.24116 0 0 -1.24116 115.822 76.01)"/><path d="M0 0s.625.308.266.491C-.143.678.053.177 0 0" style="fill:#28446d;fill-opacity:1;fill-rule:nonzero;stroke:none" transform="matrix(1.24116 0 0 -1.24116 88.256 76.316)"/><path d="M0 0c-.816 0 .082-.406.256-.503C.168-.169.506 0 0 0" style="fill:#28446d;fill-opacity:1;fill-rule:nonzero;stroke:none" transform="matrix(1.24116 0 0 -1.24116 121.759 73.92)"/><path d="M0 0v.467C-.373.391-.842-.207 0 0" style="fill:#28446d;fill-opacity:1;fill-rule:nonzero;stroke:none" transform="matrix(1.24116 0 0 -1.24116 112.365 72.455)"/><path d="M0 0c-.43-.07-.719-.694 0-.445C0-.445.721.167 0 0" style="fill:#28446d;fill-opacity:1;fill-rule:nonzero;stroke:none" transform="matrix(1.24116 0 0 -1.24116 117.061 69.82)"/><path d="M0 0v.471C-.383.411-.852-.177 0 0" style="fill:#2b5584;fill-opacity:1;fill-rule:nonzero;stroke:none" transform="matrix(1.24116 0 0 -1.24116 122.397 65.096)"/><path d="M0 0s.705.69 0 .481C-.266.421-.459-.071 0 0" style="fill:#28446d;fill-opacity:1;fill-rule:nonzero;stroke:none" transform="matrix(1.24116 0 0 -1.24116 118.942 63.92)"/><path d="M0 0c.867.436-.023.806.494 1.47h.514c.146.045 1.252.968 1.504 1.171.144.111-.088 1.014-.252.704-.408.202.476.451-.25.248C1.285 3.376-1.26-.527 0 0" style="fill:#28446d;fill-opacity:1;fill-rule:nonzero;stroke:none" transform="matrix(1.24116 0 0 -1.24116 118.642 60.982)"/><path d="M0 0c-.433.203-.215-.745-.239-.948 0 0 .552.801.239.948" style="fill:#2b5584;fill-opacity:1;fill-rule:nonzero;stroke:none" transform="matrix(1.24116 0 0 -1.24116 78.238 47.666)"/><path d="M0 0c.674-.111.467.334.766.477C.117.634.084.608-.479.73-1.18.861 0 0 0 0" style="fill:#28446d;fill-opacity:1;fill-rule:nonzero;stroke:none" transform="matrix(1.24116 0 0 -1.24116 104.21 30.546)"/><path d="M0 0h.518c-.35.034.736.217.767.217-.588.167-1.127.877 0 .952.149.031-.767.477-.767.477.562.106 1.119.756 0 .482C-.359 1.919.088 1.058 0 0" style="fill:#28446d;fill-opacity:1;fill-rule:nonzero;stroke:none" transform="matrix(1.24116 0 0 -1.24116 101.704 31.997)"/><path d="M0 0c.588.061.572.411.252.457C-.232.573.082.238 0 0" style="fill:#28446d;fill-opacity:1;fill-rule:nonzero;stroke:none" transform="matrix(1.24116 0 0 -1.24116 100.783 29.64)"/><path d="M0 0c.119-.436-.883.37-1.407.766-.421.339-.157-.162-.241-.239-.024.021.071-.921.507-1.221C-.736-1.032-.125-.07 0 0" style="fill:#fff;fill-opacity:1;fill-rule:nonzero;stroke:none" transform="matrix(1.24116 0 0 -1.24116 101.59 22.633)"/><path d="M0 0c.338.183 1.308.953.268.953C-.696.953.291.147 0 0" style="fill:#fff;fill-opacity:1;fill-rule:nonzero;stroke:none" transform="matrix(1.24116 0 0 -1.24116 98.902 21.683)"/><path d="M0 0s.625.278.266.471C-.17.674.032.141 0 0" style="fill:#fff;fill-opacity:1;fill-rule:nonzero;stroke:none" transform="matrix(1.24116 0 0 -1.24116 99.844 19.89)"/><path d="M0 0s.587.298.241.461C-.18.674.039.125 0 0" style="fill:#fff;fill-opacity:1;fill-rule:nonzero;stroke:none" transform="matrix(1.24116 0 0 -1.24116 99.545 19.304)"/><path d="M0 0c-.54.249-.061-.684 0-.714C.529-.948.049-.026 0 0" style="fill:#fff;fill-opacity:1;fill-rule:nonzero;stroke:none" transform="matrix(1.24116 0 0 -1.24116 99.215 17.846)"/><path d="M0 0c-.494.278-.038-1.175 0-1.175C1.391-1.997.213-.111 0 0" style="fill:#fff;fill-opacity:1;fill-rule:nonzero;stroke:none" transform="matrix(1.24116 0 0 -1.24116 97.983 17.846)"/><path d="M0 0c.41-.284.099.881 0 .953C-.409 1.217-.12.076 0 0" style="fill:#fff;fill-opacity:1;fill-rule:nonzero;stroke:none" transform="matrix(1.24116 0 0 -1.24116 96.725 17.537)"/><path d="M0 0c-.53.37.022-1.01.267-1.203C.949-1.678.267-.168 0 0" style="fill:#fff;fill-opacity:1;fill-rule:nonzero;stroke:none" transform="matrix(1.24116 0 0 -1.24116 97.652 15.775)"/><path d="M0 0c1.355-.547 3.95-.096 5.802-.253 2.195-.117 4.635-.791 6.32-1.657.517-.248 1.188-1.232 1.737-1.439.193-.062.641.137.782 0v-.457c.121-.314 1.623-1.788 2.022-2.138 1.429.599 1.102 0 .501.937-.501.791-.828 1.131-1.525 1.658-.373.324-1.054 1.094-1.525 1.215-.255.046-.772-.136-.998 0-.226.117-.289.837-.491.943-.815.401-1.501.112-2.284.461-.154.082-.54.684-.743.73-.601.101-.938-.36-1.781-.253v.497c-.852 0-2.339.238-2.775.223C4.936.467 3.809 0 3.809 0c-.267 0-.916.467-1.047.467C2.417.497 1.502.101.767.244c0 0-.119.203-.263.223-.658.127-.758.487-.758.487C-.999 1.131-.074.016 0 0" style="fill:#fff;fill-opacity:1;fill-rule:nonzero;stroke:none" transform="matrix(1.24116 0 0 -1.24116 75.11 8.682)"/><path d="M0 0c0-3.268 2.656-5.924 5.91-5.924 2.944 0 5.382 2.165 5.827 5.019h.155s-.023.545-.06.905c.037.346.06.897.06.897h-.155A5.886 5.886 0 0 1 5.91 5.896C2.656 5.896 0 3.265 0 0m2.352 0c0 1.954 1.611 3.553 3.558 3.553a3.551 3.551 0 0 0 3.243-2.114h-4.3v-2.881h4.3A3.524 3.524 0 0 0 5.91-3.57C3.963-3.57 2.352-1.959 2.352 0" style="fill:#fff;fill-opacity:1;fill-rule:nonzero;stroke:none" transform="matrix(1.24116 0 0 -1.24116 82.474 151.817)"/><path d="m0 0 .289.531h-2.437V0" style="fill:#4c463b;fill-opacity:1;fill-rule:nonzero;stroke:none" transform="matrix(1.24116 0 0 -1.24116 108.477 152.135)"/><path d="M0 0h-3.619v-2.882H.416L2.002 0" style="fill:#fff;fill-opacity:1;fill-rule:nonzero;stroke:none" transform="matrix(1.24116 0 0 -1.24116 108.836 150.03)"/><path d="M0 0c-1.188.111-2.148.505-2.845 1.226-.71.719-1.118 1.636-1.211 2.761-.124 1.242.213 2.342 1.015 3.273A3.542 3.542 0 0 0-1.15 8.471c.479.132 1.44.252 2.858.372 1.404.12 2.354.151 2.849.097a3.872 3.872 0 0 0 2.088-.843c.926-.814 1.441-1.83 1.561-3.087.086-1.12-.157-2.077-.736-2.891C6.875 1.277 6.008.72 4.853.426l-.165 1.847c.634.206 1.117.52 1.44.949.327.451.481 1 .42 1.668-.06.719-.35 1.297-.877 1.708-.349.274-.77.445-1.287.477-.517.06-1.342.048-2.519-.057-1.238-.101-2.092-.226-2.56-.334-.455-.149-.837-.375-1.126-.735-.461-.471-.65-1.094-.604-1.804.049-.675.3-1.174.697-1.572.421-.385.922-.628 1.586-.734" style="fill:#fff;fill-opacity:1;fill-rule:nonzero;stroke:none" transform="matrix(1.24116 0 0 -1.24116 10.7 114.892)"/><path d="m0 0-.625 1.72 4.994 1.767L2.726 8.12-2.25 6.344l-.61 1.753 11.399 4.01.598-1.708L4.274 8.68l1.633-4.644 4.877 1.708.611-1.72" style="fill:#fff;fill-opacity:1;fill-rule:nonzero;stroke:none" transform="matrix(1.24116 0 0 -1.24116 12.688 138.626)"/><path d="m0 0-1.078 1.62L.47 3.688l-2.682 3.938-2.475-.651-1.08 1.613 12.495 3.071.83-1.194zm1.478 4.958 3.408 4.53-5.501-1.45" style="fill:#fff;fill-opacity:1;fill-rule:nonzero;stroke:none" transform="matrix(1.24116 0 0 -1.24116 25.402 160.644)"/><path d="M0 0c-.673-1.06-1.561-1.671-2.672-1.894-1.101-.208-2.197.029-3.25.703-1.057.663-1.721 1.537-1.995 2.645-.279 1.105-.076 2.159.588 3.219l4.313 6.749 1.538-.997-4.264-6.689c-.432-.66-.589-1.334-.446-1.991.119-.605.491-1.142 1.166-1.554.638-.422 1.271-.539 1.897-.368.649.117 1.188.537 1.608 1.237l4.253 6.666L4.3 6.741" style="fill:#fff;fill-opacity:1;fill-rule:nonzero;stroke:none" transform="matrix(1.24116 0 0 -1.24116 57.429 181.548)"/><path d="m0 0-1.608.506-2.788 9.802-2.548-8.134-1.751.551 3.618 11.556 1.608-.517 2.798-9.765 2.535 8.083 1.74-.517" style="fill:#fff;fill-opacity:1;fill-rule:nonzero;stroke:none" transform="matrix(1.24116 0 0 -1.24116 78.417 195.278)"/><path d="m0 0-1.814.16.996 12.065 1.826-.158" style="fill:#fff;fill-opacity:1;fill-rule:nonzero;stroke:none" transform="matrix(1.24116 0 0 -1.24116 94.938 197.745)"/><path d="m0 0-2.572-12.499-1.407-.143-5.376 11.539 1.892.217 3.811-8.423 1.728 9.072" style="fill:#fff;fill-opacity:1;fill-rule:nonzero;stroke:none" transform="matrix(1.24116 0 0 -1.24116 117.422 181.7)"/><path d="m0 0-7.252-2.69-4.228 11.316 7.253 2.725.577-1.571-5.526-2.04 1.237-3.321 4.71 1.745.551-1.514-4.699-1.756 1.275-3.419 5.524 2.062" style="fill:#fff;fill-opacity:1;fill-rule:nonzero;stroke:none" transform="matrix(1.24116 0 0 -1.24116 140.408 190.152)"/><path d="m0 0-1.779-1.228-4.989 2.768L-8.66.217l2.89-4.181-1.5-1.045-6.863 9.967 3.873 2.657c.914.622 1.85.888 2.795.731.914-.143 1.684-.66 2.283-1.525.483-.669.674-1.371.629-2.091a3.05 3.05 0 0 0-.795-1.894Zm-6.668 5.764c-.336.503-.76.765-1.268.828-.49.069-.99-.063-1.507-.405l-2.235-1.551 2.149-3.122 2.246 1.525c.508.343.822.792.935 1.274.127.474.018.971-.32 1.451" style="fill:#fff;fill-opacity:1;fill-rule:nonzero;stroke:none" transform="matrix(1.24116 0 0 -1.24116 161.554 177.596)"/><path d="M0 0c.814-.734 1.203-1.594 1.154-2.605-.05-1.034-.508-2.027-1.373-2.987A7.338 7.338 0 0 0-2.102-7.18c-.613-.334-1.345-.531-2.142-.589l-.102 1.714c.594.04 1.125.197 1.582.463.483.262.914.622 1.334 1.102.518.589.803 1.154.866 1.719.033.506-.155.972-.614 1.377-.41.372-.818.529-1.25.475A2.173 2.173 0 0 1-3-1.08a3.279 3.279 0 0 1-.676-.505l-1.103-.922c-.76-.64-1.504-1.009-2.239-1.069-.812-.086-1.584.217-2.326.851-.795.72-1.205 1.54-1.205 2.522 0 .986.41 1.922 1.217 2.87 1.016 1.129 2.195 1.777 3.529 1.892l.082-1.634c-.476-.066-.922-.157-1.318-.417-.397-.229-.758-.546-1.117-.948-.469-.526-.684-1.029-.684-1.571.024-.514.238-.954.623-1.331.362-.297.752-.457 1.178-.386.396.037.842.266 1.271.614l1.079.926a7.12 7.12 0 0 0 1.148.793c.32.155.672.272 1.039.309C-1.65 1.034-.818.708 0 0" style="fill:#fff;fill-opacity:1;fill-rule:nonzero;stroke:none" transform="matrix(1.24116 0 0 -1.24116 174.462 158.666)"/><path d="m0 0-.902-1.6-10.522 6.021.926 1.577" style="fill:#fff;fill-opacity:1;fill-rule:nonzero;stroke:none" transform="matrix(1.24116 0 0 -1.24116 186.36 148.271)"/><path d="m0 0-1.035-3.173 9.922-3.219-.569-1.728-9.933 3.202-1.014-3.142-1.564.503L-1.566.514" style="fill:#fff;fill-opacity:1;fill-rule:nonzero;stroke:none" transform="matrix(1.24116 0 0 -1.24116 183.022 122.358)"/><path d="m0 0 6.787-4.191 4.959-.42-.152-1.817-4.963.403L-.76-9.016l.172 1.994L4.926-4.96-.168-1.978" style="fill:#fff;fill-opacity:1;fill-rule:nonzero;stroke:none" transform="matrix(1.24116 0 0 -1.24116 183.601 102.816)"/><path d="M0 0a1.806 1.806 0 0 0-.577-1.08c-.3-.234-.66-.342-1.118-.342-.469 0-.884.145-1.221.485-.209.2-.35.475-.413.78-.046.186-.056.577-.056 1.139 0 .555.01.914.056 1.106.063.3.204.588.413.803.337.325.752.502 1.221.502.458 0 .818-.143 1.118-.402.311-.235.506-.603.577-1.072h-.72c-.047.252-.17.446-.311.606-.173.1-.399.211-.664.211-.274 0-.492-.111-.681-.279a.957.957 0 0 1-.229-.506c-.05-.186-.06-.512-.06-.969 0-.508.01-.831.06-1.022a.926.926 0 0 1 .229-.468c.189-.206.407-.286.681-.286.265 0 .491.057.638.217.167.146.3.348.337.577" style="fill:#394041;fill-opacity:1;fill-rule:nonzero;stroke:none" transform="matrix(1.24116 0 0 -1.24116 76.122 120.805)"/><path d="M0 0h-.713v2.09h-1.919V0h-.708v4.747h.708V2.728h1.919v2.019H0" style="fill:#394041;fill-opacity:1;fill-rule:nonzero;stroke:none" transform="matrix(1.24116 0 0 -1.24116 82.31 122.556)"/><path d="M0 0h-.844l-.998 2.019h-.9V0h-.719v4.747h1.836c.447 0 .807-.12 1.07-.372.265-.262.398-.6.398-1.014 0-.319-.077-.582-.264-.802a1.186 1.186 0 0 0-.674-.44Zm-.89 3.361c0 .221-.063.414-.195.535a.84.84 0 0 1-.587.217h-1.07V2.622h1.07c.243 0 .43.071.577.202.142.123.205.289.205.537" style="fill:#394041;fill-opacity:1;fill-rule:nonzero;stroke:none" transform="matrix(1.24116 0 0 -1.24116 88.991 122.556)"/><path d="M125.807 164.68h.259v-1.675h-.259z" style="fill:#394041;fill-opacity:1;fill-rule:nonzero;stroke:none;stroke-width:.352778" transform="matrix(3.51825 0 0 3.51825 -351.695 -456.827)"/><path d="M0 0c0-.434-.157-.78-.468-1.028-.327-.235-.736-.343-1.25-.343-.36 0-.664.04-.937.108-.267.123-.517.263-.742.509l.491.474c.164-.177.334-.271.54-.36.195-.068.421-.103.661-.103.324 0 .565.057.729.192a.63.63 0 0 1 .266.536.71.71 0 0 1-.189.506c-.061.034-.132.097-.194.114-.07.046-.194.055-.314.081l-.576.074c-.383.057-.672.177-.9.371-.226.223-.35.511-.35.897 0 .434.147.76.435 1.014.275.26.673.402 1.152.402.599 0 1.084-.188 1.476-.548l-.469-.457a1.096 1.096 0 0 1-.454.289c-.157.06-.335.08-.564.08-.265 0-.491-.055-.638-.215a.648.648 0 0 1-.241-.525c0-.166.076-.34.192-.446.119-.111.289-.157.533-.203l.537-.085c.217-.037.384-.072.517-.135.142-.056.25-.131.374-.225C-.131.76 0 .423 0 0" style="fill:#394041;fill-opacity:1;fill-rule:nonzero;stroke:none" transform="matrix(1.24116 0 0 -1.24116 97.875 120.869)"/><path d="M0 0h-1.309v-4.113h-.734V0h-1.298v.634H0" style="fill:#394041;fill-opacity:1;fill-rule:nonzero;stroke:none" transform="matrix(1.24116 0 0 -1.24116 103.525 117.452)"/><path d="M129.906 164.68h.259v-1.675h-.26z" style="fill:#394041;fill-opacity:1;fill-rule:nonzero;stroke:none;stroke-width:.352778" transform="matrix(3.51825 0 0 3.51825 -351.695 -456.827)"/><path d="M0 0h-.758l-.328.979h-1.885L-3.291 0h-.771l1.73 4.747h.588zm-1.299 1.571-.719 2.119-.724-2.119" style="fill:#394041;fill-opacity:1;fill-rule:nonzero;stroke:none" transform="matrix(1.24116 0 0 -1.24116 112.95 122.556)"/><path d="M0 0h-.648l-2.213 3.361V0h-.709v4.747h.675l2.182-3.336v3.336H0" style="fill:#394041;fill-opacity:1;fill-rule:nonzero;stroke:none" transform="matrix(1.24116 0 0 -1.24116 119.032 122.556)"/><path d="M134.473 164.68h.246v-1.675h-.246z" style="fill:#394041;fill-opacity:1;fill-rule:nonzero;stroke:none;stroke-width:.352778" transform="matrix(3.51825 0 0 3.51825 -351.695 -456.827)"/><path d="M0 0h-1.312v-4.113h-.721V0H-3.33v.634H0" style="fill:#394041;fill-opacity:1;fill-rule:nonzero;stroke:none" transform="matrix(1.24116 0 0 -1.24116 128.275 117.452)"/><path d="m0 0-1.416-2.782v-1.965h-.721v1.965L-3.539 0h.766l.986-2.09L-.779 0" style="fill:#394041;fill-opacity:1;fill-rule:nonzero;stroke:none" transform="matrix(1.24116 0 0 -1.24116 133.802 116.665)"/><path d="M0 0h-.72v2.054h-1.921V0h-.729v4.718h.729V2.702H-.72v2.016H0" style="fill:#394041;fill-opacity:1;fill-rule:nonzero;stroke:none" transform="matrix(1.24116 0 0 -1.24116 83.066 132.436)"/><path d="M0 0c0-.491-.17-.892-.507-1.206-.298-.288-.72-.44-1.203-.44-.492 0-.9.152-1.222.44A1.658 1.658 0 0 0-3.423 0v3.133h.72V.011c0-.314.093-.542.265-.731.18-.183.416-.286.728-.286.289 0 .532.103.725.286.167.189.261.417.261.731v3.122H0" style="fill:#394041;fill-opacity:1;fill-rule:nonzero;stroke:none" transform="matrix(1.24116 0 0 -1.24116 89.572 130.469)"/><path d="M0 0h-.71v3.147L-1.804.854h-.514l-1.133 2.293V0h-.719v4.718h.719l1.399-2.944L-.71 4.718H0" style="fill:#394041;fill-opacity:1;fill-rule:nonzero;stroke:none" transform="matrix(1.24116 0 0 -1.24116 97.01 132.436)"/><path d="M0 0h-.781l-.338.94h-1.859L-3.305 0h-.78l1.755 4.718h.572zm-1.299 1.537-.721 2.102-.746-2.102" style="fill:#394041;fill-opacity:1;fill-rule:nonzero;stroke:none" transform="matrix(1.24116 0 0 -1.24116 103.736 132.436)"/><path d="M0 0h-.674l-2.185 3.316V0h-.711v4.718h.654l2.197-3.327v3.327H0" style="fill:#394041;fill-opacity:1;fill-rule:nonzero;stroke:none" transform="matrix(1.24116 0 0 -1.24116 109.815 132.436)"/><path d="M131.846 167.488h.254v-1.665h-.254z" style="fill:#394041;fill-opacity:1;fill-rule:nonzero;stroke:none;stroke-width:.352778" transform="matrix(3.51825 0 0 3.51825 -351.695 -456.827)"/><path d="M0 0c0-.448-.17-.794-.482-1.034-.315-.251-.745-.371-1.248-.371-.348 0-.661.06-.94.148a1.999 1.999 0 0 0-.744.475l.484.491c.164-.177.36-.297.561-.36.191-.086.398-.115.66-.115.313 0 .553.08.725.201.156.117.252.314.252.554a.638.638 0 0 1-.18.48 1.444 1.444 0 0 1-.207.116c-.059.026-.18.061-.326.078l-.547.045c-.387.069-.701.212-.914.412-.229.223-.35.508-.35.897 0 .434.147.759.43 1.005.289.246.676.397 1.144.397.621 0 1.104-.163 1.502-.551l-.459-.451a1.106 1.106 0 0 1-.47.282c-.164.051-.36.086-.573.086a.95.95 0 0 1-.638-.217.687.687 0 0 1-.243-.511c0-.209.063-.34.194-.446.133-.097.314-.2.541-.229l.529-.062c.205-.035.393-.109.518-.14.142-.06.273-.129.383-.209C-.156.708 0 .417 0 0" style="fill:#394041;fill-opacity:1;fill-rule:nonzero;stroke:none" transform="matrix(1.24116 0 0 -1.24116 119.136 130.767)"/><path d="M0 0h-.719v3.147L-1.822.854h-.522l-1.117 2.293V0h-.726v4.718h.726l1.383-2.944 1.359 2.944H0" style="fill:#394041;fill-opacity:1;fill-rule:nonzero;stroke:none" transform="matrix(1.24116 0 0 -1.24116 126.333 132.436)"/><path d="M0 0h-.78l-.321.937h-1.875L-3.291 0h-.791l1.767 4.744h.574zm-1.297 1.545-.72 2.128-.732-2.128" style="fill:#394041;fill-opacity:1;fill-rule:nonzero;stroke:none" transform="matrix(1.24116 0 0 -1.24116 84.647 142.38)"/><path d="M0 0a1.678 1.678 0 0 0-.55-1.105c-.311-.263-.671-.374-1.139-.374-.471 0-.891.156-1.243.516-.187.197-.335.46-.406.746C-3.363 0-3.375.36-3.375.922c0 .546.012.929.037 1.111.071.318.219.586.406.806.352.331.772.5 1.243.5.468 0 .828-.132 1.139-.386.288-.243.494-.602.55-1.079h-.704c-.065.262-.18.468-.315.588a1.02 1.02 0 0 1-.67.24.871.871 0 0 1-.687-.292 1.194 1.194 0 0 1-.229-.473A6.276 6.276 0 0 1-2.667.922c0-.477.023-.817.062-.993a.92.92 0 0 1 .229-.483.89.89 0 0 1 .687-.283c.272 0 .491.071.658.232.154.133.262.342.327.605" style="fill:#394041;fill-opacity:1;fill-rule:nonzero;stroke:none" transform="matrix(1.24116 0 0 -1.24116 90.284 140.593)"/><path d="M0 0h-.755l-.315.937h-1.885L-3.279 0h-.768l1.728 4.744h.588zm-1.297 1.545-.695 2.128-.747-2.128" style="fill:#394041;fill-opacity:1;fill-rule:nonzero;stroke:none" transform="matrix(1.24116 0 0 -1.24116 96.652 142.38)"/><path d="M0 0v-.269c0-.405-.016-.693-.047-.911a1.63 1.63 0 0 0-.412-.765c-.168-.143-.338-.28-.539-.34a1.88 1.88 0 0 0-.697-.117h-1.67v4.744h1.67c.517 0 .937-.157 1.236-.448.219-.218.359-.515.422-.897C-.016.825 0 .483 0 0m-.695 0c0 .397-.014.668-.039.825-.047.246-.118.423-.219.554-.201.206-.465.297-.803.297h-.861v-3.444h.861c.338 0 .602.097.803.329.101.1.172.319.219.573.025.166.039.457.039.866" style="fill:#394041;fill-opacity:1;fill-rule:nonzero;stroke:none" transform="matrix(1.24116 0 0 -1.24116 102.482 139.398)"/><path d="M0 0h-3.029v4.744H0v-.666h-2.311V2.69H-.34v-.611h-1.971V.634H0" style="fill:#394041;fill-opacity:1;fill-rule:nonzero;stroke:none" transform="matrix(1.24116 0 0 -1.24116 108.416 142.38)"/><path d="M0 0h-.725v3.142L-1.803.862h-.554l-1.118 2.32V0h-.718v4.744h.718l1.399-2.945 1.351 2.945H0" style="fill:#394041;fill-opacity:1;fill-rule:nonzero;stroke:none" transform="matrix(1.24116 0 0 -1.24116 115.662 142.38)"/><path d="M133.506 170.314h.256v-1.674h-.256z" style="fill:#394041;fill-opacity:1;fill-rule:nonzero;stroke:none;stroke-width:.352778" transform="matrix(3.51825 0 0 3.51825 -351.695 -456.827)"/><path d="M0 0h-.771l-.323.937h-1.875L-3.279 0h-.785l1.759 4.744h.563zm-1.299 1.545-.721 2.128-.732-2.128" style="fill:#394041;fill-opacity:1;fill-rule:nonzero;stroke:none" transform="matrix(1.24116 0 0 -1.24116 125.606 142.38)"/><path d="M0 0c0-.913-.729-1.632-1.633-1.632-.887 0-1.617.719-1.617 1.632 0 .893.73 1.632 1.617 1.632C-.729 1.632 0 .893 0 0" style="fill:#fff;fill-opacity:1;fill-rule:nonzero;stroke:none" transform="matrix(1.24116 0 0 -1.24116 191.543 91.708)"/><path d="M0 0c0-.913-.719-1.632-1.617-1.632-.904 0-1.649.719-1.649 1.632 0 .893.745 1.632 1.649 1.632C-.719 1.632 0 .893 0 0" style="fill:#fff;fill-opacity:1;fill-rule:nonzero;stroke:none" transform="matrix(1.24116 0 0 -1.24116 15.41 91.708)"/><path d="M0 0h1.705v-8.524H0v.608h-7.906v.988H0Zm-1.985-.755c.532-.456.807-1.07.807-1.804 0-.704-.275-1.308-.807-1.79-.6-.526-1.406-.791-2.436-.791-1.047 0-1.854.265-2.454.791-.524.482-.804 1.086-.804 1.79 0 .734.28 1.348.804 1.804.6.526 1.407.795 2.454.795 1.03 0 1.836-.269 2.436-.795m-3.6-.649c-.243-.288-.376-.69-.376-1.155 0-.431.133-.841.376-1.141.273-.314.656-.491 1.178-.491.501 0 .874.177 1.164.491.237.3.359.71.359 1.141 0 .465-.122.867-.359 1.155-.303.335-.673.491-1.164.491-.522 0-.905-.156-1.178-.491" style="fill:#394041;fill-opacity:1;fill-rule:nonzero;stroke:none" transform="matrix(1.24116 0 0 -1.24116 88.797 91.469)"/><path d="M0 0h1.719v-3.193h1.156v-1.008H1.719v-4.323H0v.604h-7.723v1.008h1.394v3.973h1.685v-3.973H0Zm-1.477-.177v-3.218c0-.684-.033-1.308-.118-1.85-.086-.542-.193-1.034-.36-1.474l-1.635.273c.157.401.252.805.323 1.262.063.481.101 1.018.101 1.657v2.367h-4.171v.983" style="fill:#394041;fill-opacity:1;fill-rule:nonzero;stroke:none" transform="matrix(1.24116 0 0 -1.24116 102.136 91.488)"/><path d="M0 0h-1.961v-5.494h3.016V1.1h1.683v-3.385h1.297V1.1h1.707v-8.525H4.035v4.156H2.738v-4.14H1.055v.994h-3.266c-.492 0-.877.096-1.117.273-.229.157-.35.421-.35.771V.922H0" style="fill:#394041;fill-opacity:1;fill-rule:nonzero;stroke:none" transform="matrix(1.24116 0 0 -1.24116 125.383 92.853)"/><path d="M0 0v.557h1.707V0h2.338v-.897h-1.75c.734-.147 1.248-.411 1.547-.781.289-.328.338-.698.203-1.165-.166-.4-.49-.71-1.016-.989-.615-.298-1.334-.455-2.226-.455-.885 0-1.61.157-2.205.455-.532.279-.866.599-1.014.989-.141.467-.08.837.193 1.165.289.37.821.634 1.541.781h-1.734V0Zm6.93-4.895v-3.112H5.25v2.149h-6.896v.963zM-.371-1.764a.726.726 0 0 1-.375-.638c0-.238.119-.441.375-.648.289-.193.682-.314 1.199-.314.481 0 .879.121 1.178.314.273.207.408.41.408.648 0 .253-.135.482-.408.638-.299.203-.697.275-1.178.275-.517 0-.91-.072-1.199-.275M6.93.517V-1.5h1.177v-.973H6.93v-1.85H5.25v4.84" style="fill:#394041;fill-opacity:1;fill-rule:nonzero;stroke:none" transform="matrix(1.24116 0 0 -1.24116 137.084 92.11)"/><path d="M0 0v.557h1.707V0h2.332v-.897H2.281c.748-.147 1.264-.411 1.563-.781.289-.328.338-.698.195-1.165-.148-.4-.484-.71-1.01-.989-.601-.298-1.334-.455-2.211-.455-.89 0-1.625.157-2.234.455-.516.279-.842.599-1 .989-.131.467-.08.837.197 1.165.287.37.803.634 1.537.781h-1.734V0Zm6.943-4.895v-3.112H5.234v2.149h-6.869v.963zM-.371-1.764c-.254-.156-.375-.385-.375-.638 0-.238.121-.441.375-.648.299-.193.697-.314 1.189-.314.479 0 .899.121 1.198.314.265.207.412.41.412.648 0 .253-.147.482-.412.638-.299.203-.704.275-1.198.275-.492 0-.904-.072-1.189-.275M6.943.517V-1.5h1.168v-.973H6.943v-1.85H5.234v4.84" style="fill:#394041;fill-opacity:1;fill-rule:nonzero;stroke:none" transform="matrix(1.24116 0 0 -1.24116 109.905 92.11)"/><path d="M0 0h-9.848v.937h1.244v3.851h1.711V.937h1.332v3.851h1.694V.937H0Zm-.529 7.743V4.5c0-.659-.033-1.257-.157-1.846A8.956 8.956 0 0 0-1.154.967h-1.643c.18.461.322.938.42 1.429.098.533.158 1.085.158 1.672v2.657h-7.15v1.018" style="fill:#394041;fill-opacity:1;fill-rule:nonzero;stroke:none" transform="matrix(1.24116 0 0 -1.24116 160.029 101.318)"/><path d="M0 0c-.374-.203-1.204-.42-2.284-.42-2.786 0-4.466 1.743-4.466 4.363 0 2.823 2.001 4.541 4.682 4.541 1.07 0 1.802-.228 2.149-.359V6.528c-.418.202-1.455.553-2.185.553-1.778 0-2.834-.975-2.834-3.041 0-1.886.985-3.036 2.906-3.036.658 0 1.612.203 2.032.406" style="fill:#394041;fill-opacity:1;fill-rule:nonzero;stroke:none" transform="matrix(1.24116 0 0 -1.24116 52.792 101.76)"/><path d="M0 0v-3.44h3.724V0h1.728v-8.614H3.724v3.653H0v-3.653h-1.728V0" style="fill:#394041;fill-opacity:1;fill-rule:nonzero;stroke:none" transform="matrix(1.24116 0 0 -1.24116 56.472 91.407)"/><path d="M0 0h1.805l1.968 6.811L6.008 0h1.718L4.869 8.614H2.826" style="fill:#394041;fill-opacity:1;fill-rule:nonzero;stroke:none" transform="matrix(1.24116 0 0 -1.24116 64.55 102.099)"/><path d="M0 0v.645h4.673C4.478 2.936 2.448 4.752-.053 4.752c-2.617 0-4.744-1.999-4.744-4.461 0-2.456 2.127-4.456 4.744-4.456 2.478 0 4.508 1.791 4.726 4.062H0Z" style="fill:#28446d;fill-opacity:1;fill-rule:nonzero;stroke:none" transform="matrix(1.24116 0 0 -1.24116 89.572 152.17)"/><path d="m0 0-2.139 3.856h-5.15L-9.477 0Z" style="fill:#28446d;fill-opacity:1;fill-rule:nonzero;stroke:none" transform="matrix(1.24116 0 0 -1.24116 117.165 157.084)"/><path d="m0 0-2.182-3.868h4.323Z" style="fill:#28446d;fill-opacity:1;fill-rule:nonzero;stroke:none" transform="matrix(1.24116 0 0 -1.24116 111.35 146.57)"/><path d="M128.63 174.494h1.292v-1.36h-1.293zM127.075 174.494h1.292v-1.36h-1.292z" style="fill:#28446d;fill-opacity:1;fill-rule:nonzero;stroke:none;stroke-width:.352778" transform="matrix(3.51825 0 0 3.51825 -351.695 -456.827)"/><path d="M129.922 171.505h-1.293v1.364h1.293zM128.367 171.505h-1.292v1.364h1.292z" style="fill:#e6612c;fill-opacity:1;fill-rule:nonzero;stroke:none;stroke-width:.352778" transform="matrix(3.51825 0 0 3.51825 -351.695 -456.827)"/><path d="M0 0v-.748h2.188L2.609 0Z" style="fill:#28446d;fill-opacity:1;fill-rule:nonzero;stroke:none" transform="matrix(1.24116 0 0 -1.24116 105.403 151.37)"/></svg>