<svg xmlns="http://www.w3.org/2000/svg" width="558.62708pt" height="525pt" fill-rule="evenodd" viewBox="0 0 558.62707 524.99999"><path d="M96.164 356.32c-20.594 0-37.289-16.42-37.289-36.674 0-13.515 7.662-26.39 19.771-32.559-7.027-6.739-11.043-14.394-6.168-14.698h26.503c4.57 0 3.655 3.559 5.712 4.474h10.129l-.952 1.771h2.475c-3.884 2.741-5.712 7.311-4.542 7.709 9.797 3.34 18.141 13.992 20.724 25.182h20.071c-4.18-25.428-27.67-45.857-56.126-45.857-31.407 0-57.696 24.712-57.696 53.978 0 29.266 25.462 52.992 56.87 52.992 29.885 0 53.296-23.175 56.692-48.52h-19.801c.077 12.842-16.191 32.202-36.373 32.202z" style="fill:#005693;stroke:none" transform="matrix(4.90792 0 0 4.90792 -190.311 -1303.877)"/><path d="M79.308 286.154h15.789a.89.89 0 1 0 0-1.781v-.027h-15.77l-.019.027a.891.891 0 0 0 0 1.781zM75.957 282.66h19.368a.89.89 0 1 0 0-1.781v-.027H75.976l-.02.027a.89.89 0 0 0 0 1.781zM74.096 277.101l-.02.027a.89.89 0 0 0 0 1.781h21.25a.89.89 0 1 0 0-1.781v-.027zM66.689 303.31l20.41-13.768h8.63a.89.89 0 0 0 0-1.78v-.029h-9.771l-20.564 13.863c-.838 1.142-.304 2.171 1.294 1.714zM108.385 281.876a.771.771 0 1 0-1.542-.002.771.771 0 0 0 1.542.002z" style="fill:#005693;stroke:none" transform="matrix(4.90792 0 0 4.90792 -190.311 -1303.877)"/><path d="m117.261 327.064.054 6.133s-.012 1.919 1.723 2.372c1.752.456 2.744-1.041 2.744-1.041l7.975-15.003c.232-.492.146-.946-.347-1.199-.493-.253-1.001.004-1.296.467l-7.691 14.855s-.425.426-.852.321c-.449-.111-.5-.763-.5-.763l-.897-17.617 3.341 4.636s1.543 1.769 3.234 1.177c1.524-.533 1.295-2.513 1.295-2.513l-1.15-16.686c-.064-.54-.376-.881-.929-.835-.552.046-.848.532-.854 1.083l1.326 16.673s.053.48-.365.616c-.441.145-.921-.241-.921-.241l-6.55-9.673s-2.133-3.35-3.275-4.721c-.457-.611-.952-1.289-1.752-.838-.778.438-.457 1.447.069 2.113 2.983 3.615 4.825 8.213 4.825 13.266 0 11.548-9.362 20.912-20.91 20.912-11.55 0-20.913-9.364-20.913-20.912 0-2.843 1.052-7.842 2.422-10.584l7.242-12.564c.229-.533 1.169-.49 1.294 0 .457 1.752 2.057 2.971 4.163 3.003h15.46c3.656 0 4.798-1.827 4.798-4.95v-9.139c.153-1.904 1.778-3.764 3.682-5.669-.773-.129-1.553-.3-2.324-.461a.767.767 0 0 0-.112-1.527.767.767 0 0 0-.404 1.422 21.665 21.665 0 0 0-1.817-.299.767.767 0 0 0-.217-1.503.767.767 0 0 0-.34 1.455 7.23 7.23 0 0 0-1.613.059.764.764 0 0 0-.484-1.362.77.77 0 0 0-.176 1.516 3.836 3.836 0 0 0-.281.091c-2.361 1.523-3.312 4.398-3.884 6.778l.068-9.259c0-1.681-1.384-3.044-3.065-3.044l-.152.035-26.427-.028-.02.028a.89.89 0 0 0 0 1.781h26.447c.716 0 1.438.513 1.438 1.228v10.72c0 .925.741 1.673 1.665 1.673.8 0 1.429-.645 1.675-1.673 0 0 1.937-6.282 3.169-6.869 1.6-.761 4.418.686 4.418.686s-2.743 1.904-3.047 4.341l.05 9.02c0 2.208-1.067 3.123-2.971 3.123H89.766c-2.487-.109-2.792-2.775-2.792-2.775-.38-1.447-2.486-1.904-3.656-.533l-7.706 13.624c-.9 1.506-1.509 4.502-1.509 4.502l-.521-6.459s-.09-1.902-1.84-2.3c-1.675-.38-2.811 1.166-2.811 1.166l-7.755 15.119c-.225.495-.132.947.364 1.193.496.246 1.07.171 1.36-.297l7.515-14.892s.277-.537.718-.537c.456 0 .533.686.533.686l1.727 17.898-3.585-5.269s-.814-1.437-2.335-1.123c-1.718.353-1.603 2.245-1.603 2.245l.193 17.36c.061.541.372.882.924.84.553-.043.85-.527.86-1.077l-.358-16.856s-.072-.678.223-.777c.332-.112.755.443.755.443l10.307 15.485-6.338-2.88s-1.782-.96-2.836.064c-1.24 1.204-.279 2.746-.279 2.746l9.34 14.194c.319.439.758.582 1.217.271.458-.311.477-.879.212-1.362L70.747 334.5s-.282-.392.016-.717c.312-.341.874.01.874.01l17.699 7.995-7.018.531s-1.915-.072-2.377 1.661c-.446 1.669 1.116 2.523 1.116 2.523l15.133 7.725c.496.223.947.13 1.192-.367s-.02-1.001-.488-1.289l-14.98-7.443s-.437-.201-.34-.629c.103-.452.765-.426.765-.426l17.455-1.88-5.437 3.315s-1.724.837-1.316 2.583c.393 1.683 2.172 1.702 2.172 1.702l16.988-.309c.542-.036.897-.331.88-.885-.019-.554-.489-.873-1.038-.907l-16.72.485s-.482.029-.598-.396c-.121-.446.477-.735.477-.735l15.966-10.641-2.945 6.524s-.961 1.658.354 2.877c1.268 1.175 2.754.196 2.754.196l13.905-9.763c.429-.334.559-.777.234-1.227-.324-.448-.894-.449-1.367-.171l-13.585 9.758s-.384.294-.717.007c-.351-.302-.018-.874-.018-.874z" style="fill:#005693;stroke:none" transform="matrix(4.90792 0 0 4.90792 -190.311 -1303.877)"/><path d="M97.518 310.773v2.475h9.442a24.965 24.965 0 0 0-.692-2.475zM96.093 301.051v8.942h9.881c-2.009-5.215-5.762-8.752-9.881-8.942zM106.976 325.858c.397-1.755.651-3.617.695-5.575h-8.044c1.792 2.376 4.401 4.367 7.349 5.575z" style="fill:#005693;stroke:none" transform="matrix(4.90792 0 0 4.90792 -190.311 -1303.877)"/><path d="M98.439 300.827c3.498 1.12 6.456 4.528 8.198 9.166h5.646c-2.905-4.9-7.945-8.384-13.845-9.166zM91.518 320.283h-7.866c.044 1.931.292 3.77.68 5.504 2.88-1.215 5.426-3.173 7.186-5.504zM112.713 310.773h-5.808c.881 2.617 1.389 5.58 1.402 8.73h6.617a18.85 18.85 0 0 0-2.211-8.73zM93.665 316.055H83.97c-.241 1.206-.327 2.189-.332 3.448h8.432c.891-1.356 1.316-1.952 1.596-3.448zM107.266 316.055h-9.673c.28 1.496.59 2.092 1.483 3.448h8.612c-.007-1.487-.107-2.267-.422-3.448zM93.74 310.773h-8.684a25.02 25.02 0 0 0-.693 2.475h9.377zM96.093 329.07h9.952c-4.067-1.294-7.713-4.567-9.952-8.116zM95.23 301.051c-4.119.19-7.87 3.727-9.88 8.942h9.88zM96.093 338.203c3.965-.183 7.612-3.457 9.658-8.352h-9.658z" style="fill:#005693;stroke:none" transform="matrix(4.90792 0 0 4.90792 -190.311 -1303.877)"/><path d="M92.885 300.827c-5.9.782-10.94 4.266-13.845 9.166h5.647c1.742-4.638 4.7-8.046 8.198-9.166zM111.944 329.851h-5.551c-1.83 4.478-4.816 7.71-8.315 8.665 5.831-.66 10.854-3.956 13.866-8.665zM114.9 320.283h-6.608a28.632 28.632 0 0 1-.731 5.797c.173.064.431.133.607.192 0 0-1.458 2.768-1.469 2.798h5.709a18.845 18.845 0 0 0 2.492-8.787zM95.23 320.956c-2.195 3.647-5.84 6.764-9.952 8.114h9.953zM84.624 329.07c-.013-.035-1.648-2.798-1.648-2.798.232-.077.546-.166.774-.252a28.545 28.545 0 0 1-.718-5.737h-6.609a18.855 18.855 0 0 0 2.492 8.787zM95.23 329.851h-9.658c2.046 4.895 5.694 8.169 9.659 8.352zM76.4 319.503h6.617c.012-3.15.522-6.113 1.402-8.73H78.61a18.857 18.857 0 0 0-2.21 8.73z" style="fill:#005693;stroke:none" transform="matrix(4.90792 0 0 4.90792 -190.311 -1303.877)"/><path d="M93.246 338.516c-3.5-.955-6.485-4.187-8.316-8.665h-5.55c3.011 4.709 8.035 8.005 13.866 8.665z" style="fill:#005693;stroke:none" transform="matrix(4.90792 0 0 4.90792 -190.311 -1303.877)"/></svg>