<svg xmlns="http://www.w3.org/2000/svg" xml:space="preserve" width="734.85052" height="734.30157" viewBox="0 0 734.85052 734.30156"><defs><clipPath id="a" clipPathUnits="userSpaceOnUse"><path d="M0 841.89h595.276V0H0Z"/></clipPath></defs><g clip-path="url(#a)" transform="matrix(4.2585 0 0 -4.2585 -863.077 2158.578)"><path d="M0 0c0-47.024-38.375-85.146-85.713-85.146-47.338 0-85.713 38.122-85.713 85.146s38.375 85.146 85.713 85.146C-38.375 85.146 0 47.024 0 0" style="fill:#fff;fill-opacity:1;fill-rule:nonzero;stroke:none" transform="translate(374.098 421.274)"/><path d="M0 0c-33.365 0-60.408 27.049-60.408 60.408 0 33.363 27.043 60.412 60.408 60.412 33.363 0 60.412-27.049 60.412-60.412C60.412 27.049 33.363 0 0 0m0 142.584c-45.383 0-82.174-36.792-82.174-82.176 0-45.38 36.791-82.174 82.174-82.174 45.387 0 82.176 36.794 82.176 82.174 0 45.384-36.789 82.176-82.176 82.176" style="fill:#024ea2;fill-opacity:1;fill-rule:nonzero;stroke:none" transform="translate(289.018 360.262)"/><path d="M0 0c0 1.69 8.104 4.229 8.104 4.229 21.06 6.544 29.021 22.88 29.021 22.88 2.857 5.66 4.074 27.41 3.844 35.207-.219 7.829.699 30.435.699 30.435-5.088 0-7.879 0-17.592 1.913-9.728 1.882-12.414 4.147-16.89 6.544C2.396 103.775 0 103.309 0 103.309s-2.531 0-7.178-2.101c-4.642-2.121-7.172-4.662-16.896-6.544-9.711-1.913-12.492-1.913-17.582-1.913 0 0 .918-22.606.689-30.435-.23-7.797.362-28.808 3.797-35.066 0 0 8.014-16.477 29.068-23.021C-8.102 4.229 0 1.69 0 0" style="fill:#024ea2;fill-opacity:1;fill-rule:nonzero;stroke:none" transform="translate(289.082 364.713)"/><path d="M0 0s4.73-.4 5.23-4.325c0 0 .709-3.977-2.716-3.977h-16.151s-4.881.705-4.881-4.829v-39.7s.102-4.05 4.053-4.05c0 0 4.504-.573 4.504 4.503v32.755s-.053 4.102 4.096 4.102h7.623s4.029.175 4.029-4.402c0 0 0-3.724-1.814-4.631 0 0-4.93-3.571-5.377-5.833 0 0-.61-1.361-.61-5.686v-16.102s-.154-4.529 3.526-4.529c0 0 3.371-.155 3.371 4.474v14.091s-.203 3.324 1.961 5.484l4.015 3.526s.45.529.995 0l4.347-3.526c2.164-2.16 1.961-5.484 1.961-5.484V-52.23c0-4.629 3.375-4.474 3.375-4.474 3.672 0 3.52 4.529 3.52 4.529v16.102c0 4.325-.604 5.686-.604 5.686-.451 2.262-5.385 5.833-5.385 5.833-1.81.907-1.81 4.631-1.81 4.631 0 4.577 4.021 4.402 4.021 4.402h7.627c4.151 0 4.1-4.102 4.1-4.102v-32.755c0-5.076 4.504-4.503 4.504-4.503 3.951 0 4.051 4.05 4.051 4.05v39.7c0 5.534-4.879 4.829-4.879 4.829H20.531c-4.816 0-4.318 3.977-4.318 3.977s.062 4.082.537 4.902c0 0 .316.92 1.188 1.397.867.471 1.105 1.551 1.13 1.739 0 0-3.134-.766-7.168-.452 0 0-7.464.674-11.9-3.261" style="fill:#fff;fill-opacity:1;fill-rule:nonzero;stroke:none" transform="translate(277.586 451.017)"/><path d="m0 0 1.02 2.77.607-2.756Zm3.266-2.366L1.434 5.095H.264v-.369c.687 0 .371-.526.371-.526l-2.533-6.373c-.233-.513-.704-.513-.704-.513v-.497h2.081v.486c-.672 0-.411.509-.411.509L-.373-.77h2.18l.439-1.652c.08-.314-.162-.334-.162-.334h-.373v-.441h2.146v.431c-.457 0-.591.4-.591.4" style="fill:#fff;fill-opacity:1;fill-rule:nonzero;stroke:none" transform="translate(270.957 384.81)"/><path d="M0 0v-1.97h2.26s.359-.056.359.84c0 .894-.264 1.13-.51 1.322 0 0-1.224.996-1.224 2.352 0 0-.086 2.759 1.912 2.759h.08c1.998 0 1.998-2.759 1.998-2.759 0-1.356-1.227-2.352-1.227-2.352C3.402 0 3.139-.236 3.139-1.13c0-.896.359-.84.359-.84h2.256V0S5.15-1.147 3.842-1.147c0 0-.11.399.027.576 0 0 1.832.469 1.832 3.437 0 0-.113 3.494-3 3.319 0 0-2.826.223-2.826-3.671 0 0 .111-2.224 1.969-3.064 0 0 .265-.273.043-.597 0 0-1.1-.22-1.887 1.147" style="fill:#fff;fill-opacity:1;fill-rule:nonzero;stroke:none" transform="translate(302.99 383.505)"/><path d="M0 0h-.979v5.602h-1.089v.767c.408.056.693.162.861.318.217.182.355.522.42 1H0Z" style="fill:#fff;fill-opacity:1;fill-rule:nonzero;stroke:none" transform="translate(282.078 381.478)"/><path d="M0 0c.281.277.426.762.426 1.446 0 .556-.094.954-.285 1.206-.184.237-.485.362-.895.362-.379 0-.646-.127-.803-.381-.156-.254-.234-.683-.234-1.279 0-.642.1-1.092.301-1.348.15-.189.39-.286.717-.286.33 0 .585.092.773.28m-2.23-.55c-.366.446-.549 1.053-.549 1.82 0 .773.166 1.405.502 1.89.369.528.871.787 1.517.787.869 0 1.467-.333 1.795-.997.264-.528.393-1.403.393-2.626 0-1.246-.123-2.193-.375-2.848-.358-.964-1-1.449-1.926-1.449-.68 0-1.18.243-1.506.727-.238.353-.357.798-.357 1.324h.978c-.006-.414.051-.701.174-.865.137-.178.389-.263.766-.263.4 0 .705.178.916.544.205.358.324.899.369 1.633-.045-.062-.186-.136-.416-.215a2.685 2.685 0 0 0-.805-.129c-.613 0-1.105.221-1.476.667" style="fill:#fff;fill-opacity:1;fill-rule:nonzero;stroke:none" transform="translate(287.22 385.31)"/><path d="M0 0c.287.277.428.762.428 1.446 0 .556-.096.954-.282 1.206-.185.237-.486.362-.898.362-.381 0-.648-.127-.805-.381-.156-.254-.234-.683-.234-1.279 0-.642.102-1.092.301-1.348.15-.189.39-.286.72-.286.331 0 .588.092.77.28m-2.227-.55c-.369.446-.552 1.053-.552 1.82 0 .773.17 1.405.506 1.89.365.528.871.787 1.513.787.869 0 1.471-.333 1.797-.997.262-.528.395-1.403.395-2.626 0-1.246-.127-2.193-.379-2.848C.695-3.488.057-3.973-.871-3.973c-.68 0-1.18.243-1.506.727-.236.353-.359.798-.359 1.324h.982c-.006-.414.047-.701.174-.865.133-.178.387-.263.76-.263.398 0 .709.178.922.544.201.358.324.899.365 1.633-.041-.062-.18-.136-.416-.215a2.643 2.643 0 0 0-.803-.129c-.615 0-1.107.221-1.475.667" style="fill:#fff;fill-opacity:1;fill-rule:nonzero;stroke:none" transform="translate(292.361 385.31)"/><path d="M0 0h-.977v5.602h-1.086v.767c.403.056.694.162.858.318.211.182.351.522.422 1H0Z" style="fill:#fff;fill-opacity:1;fill-rule:nonzero;stroke:none" transform="translate(297.502 381.478)"/><path d="M0 0c.852 1.708.396 3.09.396 3.09s-2.011-.514-2.839-1.949c-.477-.817-.096-2.784-.096-2.784S-.629-1.287 0 0" style="fill:#fff;fill-opacity:1;fill-rule:nonzero;stroke:none" transform="translate(221.95 412.078)"/><path d="M0 0c-.346 2.023-1.434 2.977-1.434 2.977S-2.563 1.29-2.379-.484c.123-1.014 1.475-2.524 1.475-2.524S.258-1.506 0 0" style="fill:#fff;fill-opacity:1;fill-rule:nonzero;stroke:none" transform="translate(218.877 414.824)"/><path d="M0 0c-1.607 1.346-1.889 2.693-1.889 2.693s2.061.054 3.537-1.027c.848-.615 1.473-2.49 1.473-2.49S1.207-1 0 0" style="fill:#fff;fill-opacity:1;fill-rule:nonzero;stroke:none" transform="translate(213.984 410.791)"/><path d="M0 0c1.424 1.937 1.326 3.596 1.326 3.596S-1 3.185-2.344 1.574c-.758-.909-.914-3.238-.914-3.238S-1.063-1.433 0 0" style="fill:#fff;fill-opacity:1;fill-rule:nonzero;stroke:none" transform="translate(223.012 407.919)"/><path d="M0 0c-1.953 1.67-2.256 3.414-2.256 3.414s2.531.129 4.315-1.235c.998-.755 1.716-3.15 1.716-3.15S1.438-1.236 0 0" style="fill:#fff;fill-opacity:1;fill-rule:nonzero;stroke:none" transform="translate(214.445 406.674)"/><path d="M0 0c1.352 2.002 1.174 3.684 1.174 3.684s-2.328-.517-3.61-2.2c-.718-.961-.767-3.336-.767-3.336S-1-1.498 0 0" style="fill:#fff;fill-opacity:1;fill-rule:nonzero;stroke:none" transform="translate(223.935 403.978)"/><path d="M0 0c-2.072 1.488-2.533 3.19-2.533 3.19s2.492.36 4.39-.831c1.084-.684 2.002-2.99 2.002-2.99S1.563-1.091 0 0" style="fill:#fff;fill-opacity:1;fill-rule:nonzero;stroke:none" transform="translate(215.275 402.151)"/><path d="M0 0c1.352 2.034 1.174 3.711 1.174 3.711s-2.354-.519-3.635-2.225c-.732-.954-.779-3.34-.779-3.34S-1.021-1.514 0 0" style="fill:#fff;fill-opacity:1;fill-rule:nonzero;stroke:none" transform="translate(225.006 400.082)"/><path d="M0 0c1.334 1.988 1.172 3.632 1.172 3.632s-2.313-.494-3.576-2.159C-3.129.538-3.191-1.8-3.191-1.8S-1.014-1.479 0 0" style="fill:#fff;fill-opacity:1;fill-rule:nonzero;stroke:none" transform="translate(226.176 396.278)"/><path d="M0 0c-2.264 1.203-2.949 2.831-2.949 2.831s2.441.67 4.469-.26C2.67 2.057 3.914-.117 3.914-.117S1.68-.9 0 0" style="fill:#fff;fill-opacity:1;fill-rule:nonzero;stroke:none" transform="translate(216.258 397.565)"/><path d="M0 0c1.107 2.292.693 4.004.693 4.004s-2.365-.869-3.447-2.816c-.633-1.09-.353-3.573-.353-3.573S-.838-1.723 0 0" style="fill:#fff;fill-opacity:1;fill-rule:nonzero;stroke:none" transform="translate(228.018 392.578)"/><path d="M0 0c1.115 2.218.732 3.896.732 3.896s-2.31-.815-3.406-2.7c-.623-1.059-.377-3.475-.377-3.475S-.855-1.655 0 0" style="fill:#fff;fill-opacity:1;fill-rule:nonzero;stroke:none" transform="translate(229.975 388.938)"/><path d="M0 0c1.016 2.239.582 3.893.582 3.893s-2.281-.915-3.287-2.818c-.557-1.082-.225-3.471-.225-3.471S-.76-1.683 0 0" style="fill:#fff;fill-opacity:1;fill-rule:nonzero;stroke:none" transform="translate(231.957 385.376)"/><path d="M0 0c-2.348.983-3.174 2.552-3.174 2.552s2.348.884 4.469.137C2.482 2.283 3.904.233 3.904.233S1.77-.744 0 0" style="fill:#fff;fill-opacity:1;fill-rule:nonzero;stroke:none" transform="translate(217.81 393.358)"/><path d="M0 0c-2.453.698-3.469 2.148-3.469 2.148s2.246 1.173 4.418.698C2.201 2.562 3.861.698 3.861.698S1.846-.526 0 0" style="fill:#fff;fill-opacity:1;fill-rule:nonzero;stroke:none" transform="translate(221.787 384.991)"/><path d="M0 0c-2.408.833-3.338 2.326-3.338 2.326s2.303 1.051 4.443.461C2.34 2.435 3.895.484 3.895.484S1.818-.633 0 0" style="fill:#fff;fill-opacity:1;fill-rule:nonzero;stroke:none" transform="translate(219.56 389.072)"/><path d="M0 0c-2.525.434-3.682 1.752-3.682 1.752S-1.602 3.16.627 2.934c1.256-.143 3.117-1.805 3.117-1.805S1.889-.316 0 0" style="fill:#fff;fill-opacity:1;fill-rule:nonzero;stroke:none" transform="translate(223.822 380.92)"/><path d="M0 0c.789 2.186.195 3.651.195 3.651S-1.994 2.544-2.811.667c-.445-1.065.12-3.218.12-3.218S-.594-1.643 0 0" style="fill:#fff;fill-opacity:1;fill-rule:nonzero;stroke:none" transform="translate(234.158 382.135)"/><path d="M0 0c-2.41.057-3.666 1.12-3.666 1.12S-1.928 2.715.176 2.814c1.185.038 3.148-1.25 3.148-1.25S1.799-.037 0 0" style="fill:#fff;fill-opacity:1;fill-rule:nonzero;stroke:none" transform="translate(226.768 376.883)"/><path d="M0 0c.463 2.271-.348 3.637-.348 3.637S-2.346 2.218-2.877.246c-.285-1.117.598-3.164.598-3.164S-.344-1.715 0 0" style="fill:#fff;fill-opacity:1;fill-rule:nonzero;stroke:none" transform="translate(236.861 378.69)"/><path d="M0 0c-2.402-.151-3.75.795-3.75.795s1.592 1.744 3.678 2.022c1.181.14 3.246-.971 3.246-.971S1.799.118 0 0" style="fill:#fff;fill-opacity:1;fill-rule:nonzero;stroke:none" transform="translate(229.84 372.809)"/><path d="M0 0s2.32-23.003 18.984-39.336l.303.461S3.607-25.038.471.052z" style="fill:#fff;fill-opacity:1;fill-rule:nonzero;stroke:none" transform="translate(217.967 410.868)"/><path d="M0 0c-.859 1.708-.402 3.09-.402 3.09s2.011-.514 2.838-1.949c.476-.817.095-2.784.095-2.784S.621-1.287 0 0" style="fill:#fff;fill-opacity:1;fill-rule:nonzero;stroke:none" transform="translate(356.684 412.078)"/><path d="M0 0c.346 2.023 1.426 2.977 1.426 2.977s1.135-1.687.949-3.461C2.252-1.498.904-3.008.904-3.008S-.262-1.506 0 0" style="fill:#fff;fill-opacity:1;fill-rule:nonzero;stroke:none" transform="translate(359.752 414.824)"/><path d="M0 0c1.609 1.346 1.889 2.693 1.889 2.693s-2.057.054-3.537-1.027c-.844-.615-1.471-2.49-1.471-2.49S-1.203-1 0 0" style="fill:#fff;fill-opacity:1;fill-rule:nonzero;stroke:none" transform="translate(364.64 410.791)"/><path d="M0 0c-1.428 1.937-1.328 3.596-1.328 3.596S1 3.185 2.34 1.574c.76-.909.918-3.238.918-3.238S1.066-1.433 0 0" style="fill:#fff;fill-opacity:1;fill-rule:nonzero;stroke:none" transform="translate(355.617 407.919)"/><path d="M0 0c1.955 1.67 2.26 3.414 2.26 3.414s-2.533.129-4.317-1.235c-.994-.755-1.714-3.15-1.714-3.15S-1.436-1.236 0 0" style="fill:#fff;fill-opacity:1;fill-rule:nonzero;stroke:none" transform="translate(364.178 406.674)"/><path d="M0 0c-1.342 2.002-1.17 3.684-1.17 3.684s2.33-.517 3.611-2.2c.719-.961.77-3.336.77-3.336S1.004-1.498 0 0" style="fill:#fff;fill-opacity:1;fill-rule:nonzero;stroke:none" transform="translate(354.685 403.978)"/><path d="M0 0c2.068 1.488 2.537 3.19 2.537 3.19s-2.496.36-4.392-.831c-1.083-.684-2-2.99-2-2.99S-1.563-1.091 0 0" style="fill:#fff;fill-opacity:1;fill-rule:nonzero;stroke:none" transform="translate(363.35 402.151)"/><path d="M0 0c-1.35 2.034-1.17 3.711-1.17 3.711s2.352-.519 3.633-2.225c.732-.954.777-3.34.777-3.34S1.021-1.514 0 0" style="fill:#fff;fill-opacity:1;fill-rule:nonzero;stroke:none" transform="translate(353.62 400.082)"/><path d="M0 0c-1.34 1.988-1.178 3.632-1.178 3.632s2.313-.494 3.58-2.159c.725-.935.784-3.273.784-3.273S1.01-1.479 0 0" style="fill:#fff;fill-opacity:1;fill-rule:nonzero;stroke:none" transform="translate(352.455 396.278)"/><path d="M0 0c2.264 1.203 2.949 2.831 2.949 2.831s-2.439.67-4.469-.26C-2.666 2.057-3.91-.117-3.91-.117S-1.678-.9 0 0" style="fill:#fff;fill-opacity:1;fill-rule:nonzero;stroke:none" transform="translate(362.367 397.565)"/><path d="M0 0c-1.104 2.292-.693 4.004-.693 4.004s2.369-.869 3.447-2.816c.637-1.09.357-3.573.357-3.573S.842-1.723 0 0" style="fill:#fff;fill-opacity:1;fill-rule:nonzero;stroke:none" transform="translate(350.607 392.578)"/><path d="M0 0c-1.117 2.218-.738 3.896-.738 3.896s2.316-.815 3.414-2.7c.623-1.059.377-3.475.377-3.475S.854-1.655 0 0" style="fill:#fff;fill-opacity:1;fill-rule:nonzero;stroke:none" transform="translate(348.652 388.938)"/><path d="M0 0c-1.014 2.239-.582 3.893-.582 3.893s2.285-.915 3.291-2.818c.555-1.082.223-3.471.223-3.471S.764-1.683 0 0" style="fill:#fff;fill-opacity:1;fill-rule:nonzero;stroke:none" transform="translate(346.668 385.376)"/><path d="M0 0c2.346.983 3.168 2.552 3.168 2.552s-2.342.884-4.465.137C-2.486 2.283-3.904.233-3.904.233S-1.771-.744 0 0" style="fill:#fff;fill-opacity:1;fill-rule:nonzero;stroke:none" transform="translate(360.818 393.358)"/><path d="M0 0c2.449.698 3.469 2.148 3.469 2.148s-2.248 1.173-4.416.698C-2.201 2.562-3.859.698-3.859.698S-1.848-.526 0 0" style="fill:#fff;fill-opacity:1;fill-rule:nonzero;stroke:none" transform="translate(356.84 384.991)"/><path d="M0 0c2.408.833 3.342 2.326 3.342 2.326s-2.303 1.051-4.444.461C-2.336 2.435-3.893.484-3.893.484S-1.814-.633 0 0" style="fill:#fff;fill-opacity:1;fill-rule:nonzero;stroke:none" transform="translate(359.065 389.072)"/><path d="M0 0c2.529.434 3.682 1.752 3.682 1.752S1.604 3.16-.623 2.934C-1.879 2.791-3.74 1.129-3.74 1.129S-1.889-.316 0 0" style="fill:#fff;fill-opacity:1;fill-rule:nonzero;stroke:none" transform="translate(354.803 380.92)"/><path d="M0 0c-.793 2.186-.195 3.651-.195 3.651S1.99 2.544 2.807.667c.445-1.065-.123-3.218-.123-3.218S.592-1.643 0 0" style="fill:#fff;fill-opacity:1;fill-rule:nonzero;stroke:none" transform="translate(344.47 382.135)"/><path d="M0 0c2.408.057 3.67 1.12 3.67 1.12S1.928 2.715-.172 2.814c-1.187.038-3.15-1.25-3.15-1.25S-1.803-.037 0 0" style="fill:#fff;fill-opacity:1;fill-rule:nonzero;stroke:none" transform="translate(351.857 376.883)"/><path d="M0 0c-.461 2.271.35 3.637.35 3.637s2-1.419 2.527-3.391c.285-1.117-.598-3.164-.598-3.164S.344-1.715 0 0" style="fill:#fff;fill-opacity:1;fill-rule:nonzero;stroke:none" transform="translate(341.764 378.69)"/><path d="M0 0c2.404-.151 3.75.795 3.75.795S2.16 2.539.072 2.817c-1.179.14-3.246-.971-3.246-.971S-1.795.118 0 0" style="fill:#fff;fill-opacity:1;fill-rule:nonzero;stroke:none" transform="translate(348.785 372.809)"/><path d="M0 0s-2.322-23.003-18.988-39.336l-.303.461S-3.609-25.038-.473.052z" style="fill:#fff;fill-opacity:1;fill-rule:nonzero;stroke:none" transform="translate(360.662 410.868)"/><path d="M0 0c-46.529 0-84.252 37.721-84.252 84.256 0 46.531 37.723 84.254 84.252 84.254 46.533 0 84.256-37.723 84.256-84.254C84.256 37.721 46.533 0 0 0m0 170.471c-47.613 0-86.215-38.602-86.215-86.215C-86.215 36.641-47.613-1.961 0-1.961c47.615 0 86.215 38.602 86.215 86.217 0 47.613-38.6 86.215-86.215 86.215" style="fill:#024ea2;fill-opacity:1;fill-rule:nonzero;stroke:none" transform="translate(289.018 336.416)"/><path d="M0 0c-.273-2.438 1.875-4.482 4.439-4.772 2.573-.292 5.108 1.21 5.387 3.659.235 2.067-1.263 3.422-2.066 3.947l.15 1.311c2.01-.999 3.574-3.074 3.309-5.414-.338-2.98-3.426-5.083-6.916-4.69-3.467.396-6.03 3.141-5.694 6.117C-1.125 2.5.861 4.162 3.061 4.69l-.145-1.295C1.979 3 .238 2.106 0 0" style="fill:#fff;fill-opacity:1;fill-rule:nonzero;stroke:none" transform="translate(213.113 429.535)"/><path d="M0 0c-.273-2.438 1.875-4.482 4.439-4.772 2.573-.292 5.108 1.21 5.387 3.659.235 2.067-1.263 3.422-2.066 3.947l.15 1.311c2.01-.999 3.574-3.074 3.309-5.414-.338-2.98-3.426-5.083-6.916-4.69-3.467.396-6.03 3.141-5.694 6.117C-1.125 2.5.861 4.162 3.061 4.69l-.145-1.295C1.979 3 .238 2.106 0 0Z" style="fill:none;stroke:#fff;stroke-width:.618;stroke-linecap:butt;stroke-linejoin:miter;stroke-miterlimit:4;stroke-dasharray:none;stroke-opacity:1" transform="translate(213.113 429.535)"/><path d="m0 0-1.604-5.269 5.393-1.64-.416-1.367-11.557 3.52.413 1.364 4.962-1.511L-1.205.362l-4.961 1.515.412 1.352L5.801-.29l-.412-1.352Z" style="fill:#fff;fill-opacity:1;fill-rule:nonzero;stroke:none" transform="translate(221.838 443.987)"/><path d="m0 0-1.604-5.269 5.393-1.64-.416-1.367-11.557 3.52.413 1.364 4.962-1.511L-1.205.362l-4.961 1.515.412 1.352L5.801-.29l-.412-1.352Z" style="fill:none;stroke:#fff;stroke-width:.618;stroke-linecap:butt;stroke-linejoin:miter;stroke-miterlimit:4;stroke-dasharray:none;stroke-opacity:1" transform="translate(221.838 443.987)"/><path d="m0 0 1.703 3.371-5.957.879Zm3.045 3.237L.904-.994l2.36-2.61-.655-1.302-8.795 9.37.614 1.214L7.189 4.16l-.642-1.273Z" style="fill:#fff;fill-opacity:1;fill-rule:nonzero;stroke:none" transform="translate(225.684 450.44)"/><path d="m0 0 1.703 3.371-5.957.879Zm3.045 3.237L.904-.994l2.36-2.61-.655-1.302-8.795 9.37.614 1.214L7.189 4.16l-.642-1.273Z" style="fill:none;stroke:#fff;stroke-width:.618;stroke-linecap:butt;stroke-linejoin:miter;stroke-miterlimit:4;stroke-dasharray:none;stroke-opacity:1" transform="translate(225.684 450.44)"/><path d="m0 0-11.25 1.411 7.906-5.89-.818-1.1-9.692 7.22.979 1.313 11.273-1.432-7.929 5.91.818 1.098L.979 1.313z" style="fill:#fff;fill-opacity:1;fill-rule:nonzero;stroke:none" transform="translate(238.129 461.812)"/><path d="m0 0-11.25 1.411 7.906-5.89-.818-1.1-9.692 7.22.979 1.313 11.273-1.432-7.929 5.91.818 1.098L.979 1.313z" style="fill:none;stroke:#fff;stroke-width:.618;stroke-linecap:butt;stroke-linejoin:miter;stroke-miterlimit:4;stroke-dasharray:none;stroke-opacity:1" transform="translate(238.129 461.812)"/><path d="m0 0 1.174.742C2.006-.519 3.732-.781 4.969 0 6.32.855 6.738 2.247 6.025 3.363c-.662 1.046-2.058.847-2.966.693-1.584-.26-4.455-1.276-5.645.602-1.18 1.863-.268 3.946 1.426 5.022 1.738 1.103 4.049.558 5.139-.826l-1.161-.733c-.523.598-2.07 1.276-3.302.499-1.147-.725-1.774-1.888-.985-3.141.721-1.127 3.17-.337 4.061-.158 1.734.339 3.527.462 4.558-1.157 1.196-1.889.317-4.062-1.494-5.213C3.561-2.379 1.047-1.49 0 0" style="fill:#fff;fill-opacity:1;fill-rule:nonzero;stroke:none" transform="translate(248.353 476.588)"/><path d="m0 0 1.174.742C2.006-.519 3.732-.781 4.969 0 6.32.855 6.738 2.247 6.025 3.363c-.662 1.046-2.058.847-2.966.693-1.584-.26-4.455-1.276-5.645.602-1.18 1.863-.268 3.946 1.426 5.022 1.738 1.103 4.049.558 5.139-.826l-1.161-.733c-.523.598-2.07 1.276-3.302.499-1.147-.725-1.774-1.888-.985-3.141.721-1.127 3.17-.337 4.061-.158 1.734.339 3.527.462 4.558-1.157 1.196-1.889.317-4.062-1.494-5.213C3.561-2.379 1.047-1.49 0 0Z" style="fill:none;stroke:#fff;stroke-width:.618;stroke-linecap:butt;stroke-linejoin:miter;stroke-miterlimit:4;stroke-dasharray:none;stroke-opacity:1" transform="translate(248.353 476.588)"/><path d="m0 0-5.082-2.126L-2.91-7.33l-1.32-.55-4.653 11.153 1.319.553 2-4.787 5.08 2.121-1.996 4.793 1.308.543L3.477-4.662l-1.303-.545z" style="fill:#fff;fill-opacity:1;fill-rule:nonzero;stroke:none" transform="translate(264.188 487.26)"/><path d="m0 0-5.082-2.126L-2.91-7.33l-1.32-.55-4.653 11.153 1.319.553 2-4.787 5.08 2.121-1.996 4.793 1.308.543L3.477-4.662l-1.303-.545z" style="fill:none;stroke:#fff;stroke-width:.618;stroke-linecap:butt;stroke-linejoin:miter;stroke-miterlimit:4;stroke-dasharray:none;stroke-opacity:1" transform="translate(264.188 487.26)"/><path d="m0 0 1.348.381 3.285-11.646-1.348-.379Z" style="fill:#fff;fill-opacity:1;fill-rule:nonzero;stroke:none" transform="translate(267.232 495.013)"/><path d="m0 0 1.348.381 3.285-11.646-1.348-.379Z" style="fill:none;stroke:#fff;stroke-width:.618;stroke-linecap:butt;stroke-linejoin:miter;stroke-miterlimit:4;stroke-dasharray:none;stroke-opacity:1" transform="translate(267.232 495.013)"/><path d="m0 0-7.023 8.891L-5.52-.847l-1.357-.21-1.846 11.937 1.619.249 7.036-8.923-1.51 9.773 1.357.208L1.621.248z" style="fill:#fff;fill-opacity:1;fill-rule:nonzero;stroke:none" transform="translate(281.553 485.638)"/><path d="m0 0-7.023 8.891L-5.52-.847l-1.357-.21-1.846 11.937 1.619.249 7.036-8.923-1.51 9.773 1.357.208L1.621.248z" style="fill:none;stroke:#fff;stroke-width:.618;stroke-linecap:butt;stroke-linejoin:miter;stroke-miterlimit:4;stroke-dasharray:none;stroke-opacity:1" transform="translate(281.553 485.638)"/><path d="m0 0 .883 7.875 1.244-.139-.904-7.984c-.151-1.343.64-3.15 2.418-3.35C5.418-3.8 6.586-2.208 6.74-.866l.897 7.984 1.24-.139-.885-7.874c-.228-2.047-1.961-4.269-4.508-3.983C.977-4.597-.229-2.028 0 0" style="fill:#fff;fill-opacity:1;fill-rule:nonzero;stroke:none" transform="translate(292.81 490.165)"/><path d="m0 0 .883 7.875 1.244-.139-.904-7.984c-.151-1.343.64-3.15 2.418-3.35C5.418-3.8 6.586-2.208 6.74-.866l.897 7.984 1.24-.139-.885-7.874c-.228-2.047-1.961-4.269-4.508-3.983C.977-4.597-.229-2.028 0 0Z" style="fill:none;stroke:#fff;stroke-width:.618;stroke-linecap:butt;stroke-linejoin:miter;stroke-miterlimit:4;stroke-dasharray:none;stroke-opacity:1" transform="translate(292.81 490.165)"/><path d="m0 0-2.445 11.06-2.895-9.419-1.314.402 3.549 11.547 1.562-.48L.895 2.017l2.904 9.456 1.312-.405L1.564-.48Z" style="fill:#fff;fill-opacity:1;fill-rule:nonzero;stroke:none" transform="translate(310.709 482.352)"/><path d="m0 0-2.445 11.06-2.895-9.419-1.314.402 3.549 11.547 1.562-.48L.895 2.017l2.904 9.456 1.312-.405L1.564-.48Z" style="fill:none;stroke:#fff;stroke-width:.618;stroke-linecap:butt;stroke-linejoin:miter;stroke-miterlimit:4;stroke-dasharray:none;stroke-opacity:1" transform="translate(310.709 482.352)"/><path d="m0 0 1.273-.585-5.06-10.987-1.27.583z" style="fill:#fff;fill-opacity:1;fill-rule:nonzero;stroke:none" transform="translate(320.7 491.317)"/><path d="m0 0 1.273-.585-5.06-10.987-1.27.583z" style="fill:none;stroke:#fff;stroke-width:.618;stroke-linecap:butt;stroke-linejoin:miter;stroke-miterlimit:4;stroke-dasharray:none;stroke-opacity:1" transform="translate(320.7 491.317)"/><path d="m0 0 2.873 12.459 1.262-.787-2.498-10.38 8.228 6.811 1.24-.77L1.197-.749Z" style="fill:#fff;fill-opacity:1;fill-rule:nonzero;stroke:none" transform="translate(322.861 476.538)"/><path d="m0 0 2.873 12.459 1.262-.787-2.498-10.38 8.228 6.811 1.24-.77L1.197-.749Z" style="fill:none;stroke:#fff;stroke-width:.618;stroke-linecap:butt;stroke-linejoin:miter;stroke-miterlimit:4;stroke-dasharray:none;stroke-opacity:1" transform="translate(322.861 476.538)"/><path d="m0 0 5.523-4.895-.835-.939L.213-1.871l-2.609-2.942 4.363-3.864-.832-.939-4.36 3.865-2.904-3.283 4.576-4.052-.832-.943-5.623 4.983z" style="fill:#fff;fill-opacity:1;fill-rule:nonzero;stroke:none" transform="translate(337.69 480.932)"/><path d="m0 0 5.523-4.895-.835-.939L.213-1.871l-2.609-2.942 4.363-3.864-.832-.939-4.36 3.865-2.904-3.283 4.576-4.052-.832-.943-5.623 4.983z" style="fill:none;stroke:#fff;stroke-width:.618;stroke-linecap:butt;stroke-linejoin:miter;stroke-miterlimit:4;stroke-dasharray:none;stroke-opacity:1" transform="translate(337.69 480.932)"/><path d="m0 0-.947 1.184L.879 8.232l1.49-1.863c.768-.959 2.276-1.161 3.444-.228 1.208.963 1.333 2.487.568 3.439l-2.006 2.514-8.57-6.849-.793.997 9.435 7.546 2.967-3.724c1.033-1.285.885-3.531-.82-4.896-1.676-1.34-3.93-.869-5.067.479Z" style="fill:#fff;fill-opacity:1;fill-rule:nonzero;stroke:none" transform="translate(342.51 458.326)"/><path d="m0 0-.947 1.184L.879 8.232l1.49-1.863c.768-.959 2.276-1.161 3.444-.228 1.208.963 1.333 2.487.568 3.439l-2.006 2.514-8.57-6.849-.793.997 9.435 7.546 2.967-3.724c1.033-1.285.885-3.531-.82-4.896-1.676-1.34-3.93-.869-5.067.479Z" style="fill:none;stroke:#fff;stroke-width:.618;stroke-linecap:butt;stroke-linejoin:miter;stroke-miterlimit:4;stroke-dasharray:none;stroke-opacity:1" transform="translate(342.51 458.326)"/><path d="m0 0 .658-1.222C-.66-1.965-1.037-3.667-.338-4.963c.76-1.402 2.109-1.914 3.276-1.283 1.093.587.988 1.996.894 2.91-.152 1.604-.967 4.537.988 5.596C6.764 3.309 8.775 2.256 9.736.488c.973-1.808.28-4.077-1.179-5.07L7.9-3.377c.637.485 1.418 1.984.731 3.265-.645 1.196-1.762 1.902-3.068 1.196-1.174-.636-.553-3.136-.436-4.037.219-1.756.219-3.556-1.465-4.464-1.967-1.065-4.076-.05-5.1 1.846C-2.617-3.389-1.561-.939 0 0" style="fill:#fff;fill-opacity:1;fill-rule:nonzero;stroke:none" transform="translate(347.568 457.3)"/><path d="m0 0 .658-1.222C-.66-1.965-1.037-3.667-.338-4.963c.76-1.402 2.109-1.914 3.276-1.283 1.093.587.988 1.996.894 2.91-.152 1.604-.967 4.537.988 5.596C6.764 3.309 8.775 2.256 9.736.488c.973-1.808.28-4.077-1.179-5.07L7.9-3.377c.637.485 1.418 1.984.731 3.265-.645 1.196-1.762 1.902-3.068 1.196-1.174-.636-.553-3.136-.436-4.037.219-1.756.219-3.556-1.465-4.464-1.967-1.065-4.076-.05-5.1 1.846C-2.617-3.389-1.561-.939 0 0Z" style="fill:none;stroke:#fff;stroke-width:.618;stroke-linecap:butt;stroke-linejoin:miter;stroke-miterlimit:4;stroke-dasharray:none;stroke-opacity:1" transform="translate(347.568 457.3)"/><path d="m0 0 .504-1.308-11.281-4.36-.506 1.308z" style="fill:#fff;fill-opacity:1;fill-rule:nonzero;stroke:none" transform="translate(360.969 449.215)"/><path d="m0 0 .504-1.308-11.281-4.36-.506 1.308z" style="fill:none;stroke:#fff;stroke-width:.618;stroke-linecap:butt;stroke-linejoin:miter;stroke-miterlimit:4;stroke-dasharray:none;stroke-opacity:1" transform="translate(360.969 449.215)"/><path d="m0 0-.354 1.357 10.471 2.724-.781 3.012 1.215.313L12.469.035l-1.215-.316-.783 3.007Z" style="fill:#fff;fill-opacity:1;fill-rule:nonzero;stroke:none" transform="translate(352.379 436.501)"/><path d="m0 0-.354 1.357 10.471 2.724-.781 3.012 1.215.313L12.469.035l-1.215-.316-.783 3.007Z" style="fill:none;stroke:#fff;stroke-width:.618;stroke-linecap:butt;stroke-linejoin:miter;stroke-miterlimit:4;stroke-dasharray:none;stroke-opacity:1" transform="translate(352.379 436.501)"/><path d="m0 0-.137 1.395 4.332.416 7.315 4.707.146-1.546-5.793-3.697 6.391-2.504.15-1.571L4.326.418Z" style="fill:#fff;fill-opacity:1;fill-rule:nonzero;stroke:none" transform="translate(354.074 426.318)"/><path d="m0 0-.137 1.395 4.332.416 7.315 4.707.146-1.546-5.793-3.697 6.391-2.504.15-1.571L4.326.418Z" style="fill:none;stroke:#fff;stroke-width:.618;stroke-linecap:butt;stroke-linejoin:miter;stroke-miterlimit:4;stroke-dasharray:none;stroke-opacity:1" transform="translate(354.074 426.318)"/><path d="m0 0-1.15-1.101L-2.342.264a4.312 4.312 0 0 0-1.346-3.866c-2.144-1.972-5.75-1.549-8.072.97-2.297 2.497-2.426 6.141-.291 8.108 1.705 1.571 4.34 1.615 6.576.253l-.898-.829c-1.297.612-3.287.929-4.752-.42-1.617-1.486-1.613-4.316.23-6.32 1.877-2.036 4.709-2.211 6.282-.764 1.703 1.572 1.099 3.674.256 5.109L-7.43-.22l-.826.899 4.201 3.868Z" style="fill:#fff;fill-opacity:1;fill-rule:nonzero;stroke:none" transform="translate(248.293 472.433)"/><path d="m0 0-1.15-1.101L-2.342.264a4.312 4.312 0 0 0-1.346-3.866c-2.144-1.972-5.75-1.549-8.072.97-2.297 2.497-2.426 6.141-.291 8.108 1.705 1.571 4.34 1.615 6.576.253l-.898-.829c-1.297.612-3.287.929-4.752-.42-1.617-1.486-1.613-4.316.23-6.32 1.877-2.036 4.709-2.211 6.282-.764 1.703 1.572 1.099 3.674.256 5.109L-7.43-.22l-.826.899 4.201 3.868Z" style="fill:none;stroke:#fff;stroke-width:.6;stroke-linecap:butt;stroke-linejoin:miter;stroke-miterlimit:4;stroke-dasharray:none;stroke-opacity:1" transform="translate(248.293 472.433)"/><path d="m0 0 3.582 9.714 2.066-.764L2.066-.765Zm-2.93 2.202c-1.211 1.281-2.215 2.946-2.631 4.843a11.793 11.793 0 0 0-5.037-2.272l-.722 1.802c2.625.373 4.904 1.363 5.98 4.278l.574 1.563 2.139-.785-.576-1.566c-1.078-2.914.051-4.975 1.92-6.851Z" style="fill:#fff;fill-opacity:1;fill-rule:nonzero;stroke:none" transform="translate(268.887 349.638)"/><path d="m0 0 2.021-.746L.527-4.793 9.086-7.95l-.648-1.755-9.417 3.473c-.388.143-.64.343-.759.601-.127.272-.108.631.056 1.073z" style="fill:#fff;fill-opacity:1;fill-rule:nonzero;stroke:none" transform="translate(260.188 352.34)"/><path d="M0 0h5.967v8.99h2.195V3.786h1.58V8.99h2.156V-7.664H9.742v9.531h-1.58v-9.531H5.967v5.841H-.762c-.424 0-.736.073-.937.212-.258.175-.391.484-.391.92v9.1h6.451V6.492H0Z" style="fill:#fff;fill-opacity:1;fill-rule:nonzero;stroke:none" transform="translate(282.106 348.606)"/><path d="m0 0 1.818 1.244 3.248-4.751L8.572-1.11l1.096-1.604-11.293-7.714-1.094 1.603 2.463 1.683L-3.5-2.393l1.82 1.243 3.264-4.778 1.68 1.147z" style="fill:#fff;fill-opacity:1;fill-rule:nonzero;stroke:none" transform="translate(330.09 362.242)"/><path d="m0 0-1.783-1.221-3.994 5.851-8.426-5.756-1.084 1.583 9.189 6.274c.34.232.649.322.932.27.291-.054.576-.278.84-.667z" style="fill:#fff;fill-opacity:1;fill-rule:nonzero;stroke:none" transform="translate(336.088 364.031)"/><path d="m0 0 1.186-3.683-2.098-.673-2.881 8.947 2.096.678 1.111-3.456 1.932.624L1.93.623Zm-9.117-.616c-1.022-.33-1.529-1.467-1.168-2.596.359-1.115 1.447-1.77 2.469-1.443 1.002.324 1.519 1.499 1.162 2.611C-7.018-.915-8.111-.293-9.117-.616m-2.231 3.183 2.164.702.536-1.658 3.716 1.195.58-1.792-1.566-.508a3.687 3.687 0 0 0 1.344-1.881c.681-2.114-.555-4.376-2.67-5.06-2.113-.68-4.434.437-5.119 2.551-.254.793-.264 1.553-.041 2.305l-1.534-.496-.578 1.795 3.703 1.193z" style="fill:#fff;fill-opacity:1;fill-rule:nonzero;stroke:none" transform="translate(315.492 357.405)"/><path d="m0 0-2.18-.7-1.195 3.703-9.654-3.111-.578 1.796 10.656 3.433c.39.128.715.123.971-.003.263-.139.47-.431.615-.88z" style="fill:#fff;fill-opacity:1;fill-rule:nonzero;stroke:none" transform="translate(319.047 346.55)"/><path d="m0 0-2.525-3.259-1.743 1.347 5.916 7.635 1.743-1.349-2.223-2.867L2.895.168 1.73-1.334Zm-9.146 10.015 1.156 1.491 2.775-2.149 1.057 1.361 1.799-1.396-1.055-1.359 2.682-2.079-1.157-1.491-2.564 1.987c-.686-1.577-.625-3.54.547-5.531L-5.807.334c-.871 1.453-1.265 3.227-1.166 5.043-1.73-.787-3.408-1.006-5.14-.716l-.201 1.959c2.279-.373 4.501.256 5.828 1.335z" style="fill:#fff;fill-opacity:1;fill-rule:nonzero;stroke:none" transform="translate(253.746 361.514)"/><path d="M0 0c-1.408 1.092-1.883 2.835-1.057 3.896.817 1.059 2.498.874 3.907-.216C4.258 2.588 4.855 1.008 4.035-.051 3.217-1.11 1.408-1.09 0 0m3.879 5.086c-2.348 1.819-5.365 1.859-6.733.089-1.371-1.769-.582-4.681 1.766-6.5 2.35-1.82 5.369-1.858 6.74-.087 1.369 1.767.577 4.679-1.773 6.498" style="fill:#fff;fill-opacity:1;fill-rule:nonzero;stroke:none" transform="translate(242.879 356.723)"/></g></svg>