<svg xmlns="http://www.w3.org/2000/svg" width="196.75471mm" height="196.75471mm" viewBox="0 0 196.75471 196.75471"><g transform="translate(-4.981 -70.639)"><circle cx="103.35848" cy="169.0163" r="98.377357" style="fill:#f9f9f9;stroke:#fff;stroke-width:0"/><path d="M0 0c0-18.111-14.68-32.795-32.793-32.795-18.109 0-32.791 14.684-32.791 32.795 0 18.104 14.682 32.787 32.791 32.787C-14.68 32.787 0 18.104 0 0" style="fill:#2a4573;fill-opacity:1;fill-rule:nonzero;stroke:none" transform="matrix(2.8782 0 0 -2.8782 198.36 168.724)"/><path d="M0 0c0-12.604-10.222-22.826-22.83-22.826-12.605 0-22.826 10.222-22.826 22.826 0 12.604 10.221 22.825 22.826 22.825C-10.222 22.825 0 12.604 0 0" style="fill:#fff;fill-opacity:1;fill-rule:nonzero;stroke:none" transform="matrix(2.8782 0 0 -2.8782 169.286 168.598)"/><path d="M0 0h.563v-3.167h-.635v2.445l-.535-.435-.315.416z" style="fill:#2a4573;fill-opacity:1;fill-rule:nonzero;stroke:none" transform="matrix(2.8782 0 0 -2.8782 89.294 210.807)"/><path d="M0 0c-.306 0-.434.285-.434.595 0 .282.125.568.422.568.313 0 .437-.266.437-.562C.425.282.31 0 0 0m-.908-1.53c.221-.075.436-.115.669-.115 1.024 0 1.301.947 1.301 1.806 0 .738-.199 1.472-1.074 1.472-.719 0-1.055-.454-1.055-1.138 0-.584.329-.966.925-.966.267 0 .465.096.611.316l.012-.012c-.02-.466-.206-.977-.752-.977-.214 0-.385.056-.557.128l-.08-.514" style="fill:#2a4573;fill-opacity:1;fill-rule:nonzero;stroke:none" transform="matrix(2.8782 0 0 -2.8782 98.332 215.346)"/><path d="M0 0h2.041v-.528L.916-3.167h-.69L1.402-.496H0Z" style="fill:#2a4573;fill-opacity:1;fill-rule:nonzero;stroke:none" transform="matrix(2.8782 0 0 -2.8782 104.43 210.807)"/><path d="M0 0c.167-.072.34-.128.553-.128.549 0 .735.51.751.977l-.007.014A.682.682 0 0 0 .684.545c-.601 0-.922.382-.922.965 0 .684.334 1.139 1.048 1.139.879 0 1.075-.734 1.075-1.472 0-.86-.275-1.806-1.302-1.806-.229 0-.448.039-.667.114zm1.251 1.616c0 .299-.127.562-.441.562-.294 0-.416-.285-.416-.57 0-.308.127-.592.428-.592.31 0 .429.282.429.6" style="fill:#2a4573;fill-opacity:1;fill-rule:nonzero;stroke:none" transform="matrix(2.8782 0 0 -2.8782 114.13 218.27)"/><path d="m0 0-4.117-9.642-10.908-.039 5.389-9.218 1.491 3.15-1.956 3.189h8.171l3.515 8.637z" style="fill:#e78221;fill-opacity:1;fill-rule:nonzero;stroke:none" transform="matrix(2.8782 0 0 -2.8782 99.479 113.343)"/><path d="M0 0h-10.868l-4.11 9.7-1.589-3.942 3.518-8.64h8.127l-1.999-3.189 1.492-3.151z" style="fill:#d82226;fill-opacity:1;fill-rule:nonzero;stroke:none" transform="matrix(2.8782 0 0 -2.8782 151.726 141.197)"/><path d="M0 0h-3.852a26.875 26.875 0 0 1 4.885-8.679 25.776 25.776 0 0 1 2.308 2.674C1.955-4.156.808-2.122 0 0" style="fill:#65b834;fill-opacity:1;fill-rule:nonzero;stroke:none" transform="matrix(2.8782 0 0 -2.8782 94.279 156.949)"/><path d="M0 0c4.743-4.385 10.644-6.719 15.805-7.211l-4.57 11.009L8.958 1.42l1.749-4.257c-3.03.897-5.94 2.785-8.396 5.254A27.038 27.038 0 0 0 0 0" style="fill:#65b834;fill-opacity:1;fill-rule:nonzero;stroke:none" transform="matrix(2.8782 0 0 -2.8782 103.894 188.886)"/><path d="M0 0h-3.849a24.75 24.75 0 0 0-3.346-6.005 25.564 25.564 0 0 1 2.311-2.674A26.91 26.91 0 0 1 0 0" style="fill:#3d7bc4;fill-opacity:1;fill-rule:nonzero;stroke:none" transform="matrix(2.8782 0 0 -2.8782 124.602 156.949)"/><path d="M0 0c-2.458-2.47-5.367-4.358-8.393-5.255L-6.59-.997l-2.275 2.378-4.625-11.01c5.157.493 11.057 2.827 15.798 7.212A27.586 27.586 0 0 0 0 0" style="fill:#3d7bc4;fill-opacity:1;fill-rule:nonzero;stroke:none" transform="matrix(2.8782 0 0 -2.8782 97.252 181.928)"/><path d="M0 0a27.038 27.038 0 0 1 2.311 2.417C1.483 3.25.711 4.145 0 5.091a26.222 26.222 0 0 0-2.305-2.674A27.264 27.264 0 0 1 0 0" style="fill:#336488;fill-opacity:1;fill-rule:nonzero;stroke:none" transform="matrix(2.8782 0 0 -2.8782 103.894 188.886)"/><path d="M0 0a1.555 1.555 0 0 0-3.11 0c0 .862.699 1.553 1.554 1.553C-.696 1.553 0 .862 0 0" style="fill:#fff;fill-opacity:1;fill-rule:nonzero;stroke:none" transform="matrix(2.8782 0 0 -2.8782 30.028 189.277)"/><path d="M0 0a1.555 1.555 0 0 0-3.108 0c0 .862.697 1.553 1.553 1.553C-.696 1.553 0 .862 0 0" style="fill:#fff;fill-opacity:1;fill-rule:nonzero;stroke:none" transform="matrix(2.8782 0 0 -2.8782 185.864 189.277)"/><path d="M0 0c-1.158.117-2.264.227-2.112 1.738.094.933.649 1.26 1.585 1.128l-.089-.897c-.584.058-.812-.023-.839-.298-.053-.514.427-.63 1.549-.741C1.217.814 1.709.833 1.76 1.352c.041.422-.505.459-.849.506L1 2.763c1.172-.119 1.501-.623 1.415-1.475C2.266-.228 1.147-.114 0 0" style="fill:#fff;fill-opacity:1;fill-rule:nonzero;stroke:none" transform="matrix(2.8782 0 0 -2.8782 25.221 164.591)"/><path d="m0 0-1.697.477.25.886L2.792.166 2.543-.72.651-.187.366-1.202l1.89-.534-.249-.886-4.239 1.196.247.886 1.699-.479z" style="fill:#fff;fill-opacity:1;fill-rule:nonzero;stroke:none" transform="matrix(2.8782 0 0 -2.8782 27.384 145.31)"/><path d="m0 0-.008-.014L1.518-1.23l.385.793Zm2.41-3.159L-1.008-.126-.474.965 4.009.099l-.427-.872-.985.213-.553-1.129.766-.653Z" style="fill:#fff;fill-opacity:1;fill-rule:nonzero;stroke:none" transform="matrix(2.8782 0 0 -2.8782 29.768 132.135)"/><path d="m0 0-3.525 2.644.746.996 3.147-.894.006.011-2.443 1.829.518.691 3.526-2.644-.73-.972-3.298.972-.01-.01L.517.689Z" style="fill:#fff;fill-opacity:1;fill-rule:nonzero;stroke:none" transform="matrix(2.8782 0 0 -2.8782 43.311 128.692)"/><path d="M0 0c-.271.306-.563.53-.924.201-.42-.386.102-.959.675-1.591.932-1.016 1.194-1.106 1.582-.753.111.106.209.242.282.374l-.659.719-.369-.337-.458.499 1.049.959 1.505-1.647c-.15-.204-.549-.702-.819-.949C.722-3.568.158-3.216-.969-1.984c-.748.82-1.471 1.69-.359 2.706.668.609 1.424.613 2.003-.101z" style="fill:#fff;fill-opacity:1;fill-rule:nonzero;stroke:none" transform="matrix(2.8782 0 0 -2.8782 50.569 107.256)"/><path d="m0 0 .817.477L2.87-1.909l.013.008-.958 3.023.939.546L4.991-.673l.011.004-1.083 2.952.779.456 1.375-4.302-.88-.512L2.974.363l-.01-.007.963-3.167-.864-.503Z" style="fill:#fff;fill-opacity:1;fill-rule:nonzero;stroke:none" transform="matrix(2.8782 0 0 -2.8782 54.772 98.506)"/><path d="M0 0c-.345 1.075-.561 1.518-1.053 1.361-.495-.161-.411-.648-.062-1.72.348-1.073.562-1.519 1.054-1.36.496.16.409.645.061 1.719m-2.003-.647c-.359 1.11-.701 2.165.747 2.631C.189 2.453.532 1.396.889.287c.355-1.1.701-2.165-.745-2.634-1.447-.469-1.791.601-2.147 1.7" style="fill:#fff;fill-opacity:1;fill-rule:nonzero;stroke:none" transform="matrix(2.8782 0 0 -2.8782 81.852 92.588)"/><path d="m0 0-.544 4.37 1.234.155 1.54-2.88h.014L1.867 4.67l.852.105.543-4.367L2.058.257.469 3.306l-.012-.003L.853.11Z" style="fill:#fff;fill-opacity:1;fill-rule:nonzero;stroke:none" transform="matrix(2.8782 0 0 -2.8782 90.86 96.77)"/><path d="m0 0 .761 4.341 1.461-.259.161-3.069.012-.003 1.24 2.825 1.414-.249-.763-4.34-.881.156.585 3.348-.014.002L2.554-.45l-.866.152-.206 3.489-.01.001L.883-.16Z" style="fill:#fff;fill-opacity:1;fill-rule:nonzero;stroke:none" transform="matrix(2.8782 0 0 -2.8782 111.323 95.638)"/><path d="M0 0c.421 1.047.542 1.528.061 1.72-.482.191-.726-.233-1.148-1.283-.422-1.044-.539-1.521-.061-1.72C-.665-1.475-.421-1.045 0 0m-1.954.787c.436 1.081.851 2.112 2.26 1.545 1.409-.567.995-1.598.559-2.677C.434-1.419.016-2.459-1.393-1.893c-1.409.569-.99 1.608-.561 2.68" style="fill:#fff;fill-opacity:1;fill-rule:nonzero;stroke:none" transform="matrix(2.8782 0 0 -2.8782 135.926 95.624)"/><path d="M0 0c.604.955.808 1.4.368 1.677-.435.281-.755-.097-1.356-1.051-.606-.955-.808-1.402-.372-1.681.441-.28.757.1 1.36 1.055m-1.778 1.125c.623.985 1.216 1.922 2.5 1.113 1.286-.816.69-1.753.068-2.737C.174-1.474-.427-2.421-1.709-1.61c-1.286.812-.686 1.759-.069 2.735" style="fill:#fff;fill-opacity:1;fill-rule:nonzero;stroke:none" transform="matrix(2.8782 0 0 -2.8782 148.527 102.417)"/><path d="m0 0 2.999 3.221.911-.849L2.689-.656l.007-.008 2.078 2.23.629-.587L2.406-2.24l-.889.826L2.831 1.76l-.008.009L.63-.588Z" style="fill:#fff;fill-opacity:1;fill-rule:nonzero;stroke:none" transform="matrix(2.8782 0 0 -2.8782 151.084 111.992)"/><path d="M0 0c-.682.912-.271 1.487.369 1.901l.552-.739C.583.91.311.685.614.278.799.03 1.051.03 1.291.204c.636.477-.434 1.991.62 2.775.552.414 1.187.479 1.861-.421.535-.721.478-1.318-.297-1.821l-.536.724c.264.191.5.439.279.736-.182.24-.419.282-.664.1-.67-.5.498-1.941-.61-2.771C1.029-1.156.423-.563 0 0" style="fill:#fff;fill-opacity:1;fill-rule:nonzero;stroke:none" transform="matrix(2.8782 0 0 -2.8782 162.994 124.908)"/><path d="m0 0-2.79-1.413c-.585-.296-1.376-.276-1.881.726-.456.902-.209 1.576.531 1.951l2.789 1.407.415-.821L-3.668.468c-.486-.244-.572-.549-.421-.847.182-.361.504-.406.941-.181L-.417.822z" style="fill:#fff;fill-opacity:1;fill-rule:nonzero;stroke:none" transform="matrix(2.8782 0 0 -2.8782 183.329 133.992)"/><path d="m0 0 4.232 1.212.341-1.196-2.606-1.965.003-.011 2.929.841.24-.827L.904-3.161.571-1.996 3.334.046l-.002.015L.236-.828Z" style="fill:#fff;fill-opacity:1;fill-rule:nonzero;stroke:none" transform="matrix(2.8782 0 0 -2.8782 173.747 144.033)"/><path d="M0 0c.409.033.759.13.717.617-.052.573-.824.502-1.675.425C-2.334.914-2.565.761-2.517.238c.014-.153.066-.31.127-.448l.975.088-.049.499.677.06.128-1.414-2.225-.202c-.071.244-.227.86-.258 1.225-.14 1.546.481 1.778 2.147 1.928C.113 2.076 1.24 2.123 1.377.62 1.462-.277 1.006-.884.083-.911Z" style="fill:#fff;fill-opacity:1;fill-rule:nonzero;stroke:none" transform="matrix(2.8782 0 0 -2.8782 186.44 162.783)"/><path d="m0 0-2.294-1.417c-.486-.299-1.166-.341-1.675.484-.459.742-.298 1.343.313 1.72l2.297 1.416.418-.678-2.25-1.387c-.4-.251-.454-.514-.301-.764.182-.293.463-.307.824-.087L-.417.678z" style="fill:#fff;fill-opacity:1;fill-rule:nonzero;stroke:none" transform="matrix(2.8782 0 0 -2.8782 42.238 209.905)"/><path d="m0 0 2.63 2.752.775-.743L2.318-.596l.006-.008 1.822 1.908.538-.515L2.052-1.96l-.757.722 1.173 2.726-.009.012L.537-.513Z" style="fill:#fff;fill-opacity:1;fill-rule:nonzero;stroke:none" transform="matrix(2.8782 0 0 -2.8782 41.796 226.685)"/><path d="m0 0 1.957 3.264.684-.408L.684-.41Z" style="fill:#fff;fill-opacity:1;fill-rule:nonzero;stroke:none" transform="matrix(2.8782 0 0 -2.8782 59.02 240.549)"/><path d="m0 0 .785-.264-.321-2.812.008-.003L1.985-.664l.744-.256L.563-4.206l-.887.301Z" style="fill:#fff;fill-opacity:1;fill-rule:nonzero;stroke:none" transform="matrix(2.8782 0 0 -2.8782 76.256 237.14)"/><path d="m0 0 .339 3.793 2.07-.182-.054-.587-1.274.116-.083-.935 1.174-.106-.049-.581-1.179.105L.847.515 2.163.396l-.052-.584Z" style="fill:#fff;fill-opacity:1;fill-rule:nonzero;stroke:none" transform="matrix(2.8782 0 0 -2.8782 93.562 252.72)"/><path d="m0 0 .205.031C.812.116.824-.27.888-.721c.036-.239.052-.506.189-.719l.772.113c-.096.147-.212.853-.247 1.095-.099.677-.617.647-.79.641L.811.42c.497.158.634.543.565 1.024-.094.643-.488.938-1.024.86l-1.456-.211.542-3.768.789.116zm-.232 1.627.349.05c.249.036.421-.077.473-.437C.625.999.58.678.267.631l-.35-.053z" style="fill:#fff;fill-opacity:1;fill-rule:nonzero;stroke:none" transform="matrix(2.8782 0 0 -2.8782 114.845 248.087)"/><path d="M0 0c-.912-.371-1.302.097-1.508.725l.737.296C-.634.687-.506.407-.1.57c.249.105.308.315.21.554-.258.633-1.76.072-2.184 1.121-.225.557-.139 1.102.76 1.464.718.294 1.204.113 1.456-.645l-.718-.288c-.106.261-.26.513-.557.393-.242-.097-.328-.286-.229-.527.271-.674 1.732-.01 2.181-1.126C1.189.609.562.227 0 0" style="fill:#fff;fill-opacity:1;fill-rule:nonzero;stroke:none" transform="matrix(2.8782 0 0 -2.8782 136.169 247.338)"/><path d="m0 0-2.145 3.141.659.449L.657.445Z" style="fill:#fff;fill-opacity:1;fill-rule:nonzero;stroke:none" transform="matrix(2.8782 0 0 -2.8782 151.563 239.05)"/><path d="m0 0 .457-.439-.614-.638 2.292-2.197-.553-.577-2.288 2.202-.613-.643-.458.441z" style="fill:#fff;fill-opacity:1;fill-rule:nonzero;stroke:none" transform="matrix(2.8782 0 0 -2.8782 160.823 216.6)"/><path d="m0 0-2.65.398.44.753L-.534.83l-1.082 1.335.412.699L.402.688l1.14-.666-.404-.687Z" style="fill:#fff;fill-opacity:1;fill-rule:nonzero;stroke:none" transform="matrix(2.8782 0 0 -2.8782 174.422 209.951)"/></g></svg>