<svg xmlns="http://www.w3.org/2000/svg" width="199.35214mm" height="199.35214mm" viewBox="0 0 199.35214 199.35214"><g transform="translate(-11.1 -62.98)"><circle cx="110.77679" cy="162.65633" r="99.676071" style="fill:#fff;stroke:#fff;stroke-width:0"/><path d="M0 0c-29.354 0-53.148 23.795-53.148 53.149 0 29.353 23.794 53.15 53.148 53.15 29.354 0 53.15-23.797 53.15-53.15C53.15 23.795 29.354 0 0 0m0 124.016c-39.137 0-70.865-31.729-70.865-70.867 0-39.138 31.728-70.866 70.865-70.866 39.139 0 70.867 31.728 70.867 70.866S39.139 124.016 0 124.016" style="fill:#e7e8e9;fill-opacity:1;fill-rule:nonzero;stroke:none" transform="matrix(1.36757 0 0 -1.36757 110.517 234.884)"/><path d="M0 0c-2.305-.818-4.5-1.597-5.568 1.405-.659 1.858.101 2.97 1.996 3.561l.634-1.785c-1.158-.411-1.519-.77-1.328-1.313.368-1.025 1.379-.815 3.61-.022 2.232.792 3.148 1.267 2.785 2.293-.299.844-1.373.422-2.068.202l-.639 1.798c2.328.826 3.404.163 4.01-1.537C4.498 1.599 2.279.81 0 0" style="fill:#414142;fill-opacity:1;fill-rule:nonzero;stroke:none" transform="matrix(1.36757 0 0 -1.36757 31.043 193.12)"/><path d="m0 0-4.348-.955c-.562-.123-.978-.32-.853-.881.121-.563.582-.566 1.142-.443l4.35.956.387-1.763-9.022-1.982-.386 1.763 3.351.736-.01.024a1.494 1.494 0 0 0-.722.495c-.182.224-.293.5-.366.824-.183.837.155 1.685 1.03 1.877l5.06 1.111z" style="fill:#414142;fill-opacity:1;fill-rule:nonzero;stroke:none" transform="matrix(1.36757 0 0 -1.36757 32.814 177.055)"/><path d="m0 0 .004-.026C.611-.327.863-.791.93-1.465 1.014-2.318.58-3.12-.313-3.208l-5.158-.509-.175 1.794 4.455.441c.574.057.984.2.927.773-.056.574-.486.634-1.058.577l-4.457-.44-.178 1.796 5.158.509c.418.041.85.11 1.268.189L.652.063Z" style="fill:#414142;fill-opacity:1;fill-rule:nonzero;stroke:none" transform="matrix(1.36757 0 0 -1.36757 30.58 167.982)"/><path d="M0 0v.025C-.291.21-.48.43-.592.675c-.123.257-.166.553-.16.886.016.857.539 1.603 1.434 1.586l5.177-.092-.029-1.804-4.453.08C.805 1.341.354 1.247.344.671.33.095.781-.015 1.355-.024l4.448-.08-.03-1.804-6.459.116L-.654.01z" style="fill:#414142;fill-opacity:1;fill-rule:nonzero;stroke:none" transform="matrix(1.36757 0 0 -1.36757 23.23 160.32)"/><path d="M0 0c.09.646-.572.827-1.93 1.012-1.406.19-2.215.236-2.302-.423-.092-.672.359-.85 2.314-1.115C-1.326-.608-.117-.862 0 0m-4.869 3.231 6.67-.907c.443-.06 2.197-.272 1.861-2.732-.182-1.331-.68-2.426-2.242-2.252l.238 1.75c.266-.036.5-.029.668.063.182.092.295.284.334.562.061.445-.33.717-.974.805L.455.688.451.662c.457-.333.643-.876.563-1.459-.268-1.965-2.055-1.631-3.502-1.435-1.407.191-3.192.461-2.936 2.324.086.634.436 1.141 1.07 1.314l.004.025-.75.102Z" style="fill:#414142;fill-opacity:1;fill-rule:nonzero;stroke:none" transform="matrix(1.36757 0 0 -1.36757 30.247 150.173)"/><path d="m0 0 .547 2.053L3.891-1.51 9.475-.32l-.557-2.102-5.145-.923-.007-.025L8.34-4.586l-.496-1.866-8.926 2.372.494 1.868 3.822-1.017.006.025z" style="fill:#414142;fill-opacity:1;fill-rule:nonzero;stroke:none" transform="matrix(1.36757 0 0 -1.36757 22.068 135.69)"/><path d="M0 0c.428-.172.979-.313 1.199.234.397.984-.994 1.368-1.646 1.631C-.748 1.021-1.068.431 0 0m1.994 2.784c.367-.148.768-.256 1.149-.367L2.516.862l-.827.249-.007-.024c.474-.605.572-1.212.281-1.935-.471-1.163-1.51-1.24-2.553-.819-1.982.802-1.447 2.366-.795 3.911l-.463.187c-.509.206-.908.283-1.15-.323-.236-.58.185-.805.658-.997l-.662-1.637C-3.725-.234-4.098.178-4.213.68c-.131.495-.017 1.084.242 1.724.858 2.125 1.883 2.029 2.975 1.587z" style="fill:#414142;fill-opacity:1;fill-rule:nonzero;stroke:none" transform="matrix(1.36757 0 0 -1.36757 33.874 131.601)"/><path d="m0 0 .012.022c-.17.298-.235.581-.221.85.014.285.109.568.268.86.414.751 1.224 1.166 2.009.737L6.609-.022l-.865-1.582L1.842.537C1.336.813.895.939.617.435.34-.07.686-.375 1.188-.652l3.904-2.14-.865-1.582-5.666 3.106.867 1.581z" style="fill:#414142;fill-opacity:1;fill-rule:nonzero;stroke:none" transform="matrix(1.36757 0 0 -1.36757 33.45 120.103)"/><path d="M0 0c.379.532-.119.998-1.236 1.793-1.159.823-1.852 1.238-2.237.695-.392-.551-.074-.921 1.53-2.062C-1.451.076-.504-.708 0 0m-2.807 5.124 5.485-3.903c.363-.259 1.82-1.263.379-3.284-.782-1.095-1.729-1.833-3.036-.951l1.026 1.438c.217-.156.428-.258.621-.253.201-.003.395.112.555.341.261.365.045.787-.489 1.165L.725.397.707.376C.959-.132.869-.697.531-1.177c-1.15-1.615-2.578-.489-3.769.357-1.155.823-2.61 1.89-1.52 3.423.371.521.92.807 1.559.666l.015.02-.617.438z" style="fill:#414142;fill-opacity:1;fill-rule:nonzero;stroke:none" transform="matrix(1.36757 0 0 -1.36757 44.374 114.4)"/><path d="M0 0c-1.703 1.751-3.33 3.418-1.047 5.642 1.41 1.375 2.738 1.15 4.067-.326L1.662 3.995c-.857.88-1.334 1.059-1.746.658-.779-.76-.166-1.591 1.488-3.287C3.053-.33 3.867-.964 4.648-.206c.641.625-.189 1.423-.679 1.963l1.367 1.331c1.721-1.77 1.568-3.025.275-4.284C3.33-3.419 1.688-1.732 0 0" style="fill:#414142;fill-opacity:1;fill-rule:nonzero;stroke:none" transform="matrix(1.36757 0 0 -1.36757 47.924 102.565)"/><path d="M0 0c-.809 1.07-1.27 1.573-1.883 1.109-.611-.464-.252-1.043.559-2.114C-.133-2.575.256-2.812.785-2.409c.529.402.408.84-.785 2.409m-2.697-2.177C-3.766-.771-4.477.587-2.58 2.026c1.898 1.439 3.014.39 4.082-1.017C2.723-.602 3.338-1.919 1.48-3.327c-1.855-1.407-2.959-.461-4.177 1.15" style="fill:#414142;fill-opacity:1;fill-rule:nonzero;stroke:none" transform="matrix(1.36757 0 0 -1.36757 60.587 93.61)"/><path d="m0 0 4.873-7.848-1.537-.95-4.869 7.846z" style="fill:#414142;fill-opacity:1;fill-rule:nonzero;stroke:none" transform="matrix(1.36757 0 0 -1.36757 62.986 82.447)"/><path d="m0 0 4.305-8.168-1.592-.841-4.309 8.168Z" style="fill:#414142;fill-opacity:1;fill-rule:nonzero;stroke:none" transform="matrix(1.36757 0 0 -1.36757 68.616 79.322)"/><path d="M0 0c-.238.58-.557 1.418-1.35 1.091-.769-.318-.386-1.212-.175-1.72zm-1.141-1.564C-.846-2.275-.385-3.33.35-3.027c.593.243.472.86.269 1.357l1.694.698c.246-.66.251-1.28 0-1.813-.237-.528-.745-.985-1.524-1.308-2.154-.888-2.978.309-3.752 2.178-.674 1.633-1.012 3.127 1.188 4.036 2.25.927 3.097-.426 3.832-2.368z" style="fill:#414142;fill-opacity:1;fill-rule:nonzero;stroke:none" transform="matrix(1.36757 0 0 -1.36757 79.1 82.494)"/><path d="M0 0c.629.176.533.854.164 2.172C-.219 3.54-.5 4.298-1.139 4.119c-.654-.183-.636-.67-.105-2.568C-1.082.973-.836-.233 0 0m1.035 5.751L2.848-.73c.121-.433.621-2.125-1.77-2.794-1.293-.363-2.494-.341-2.957 1.165l1.701.477c.073-.26.172-.472.324-.588.155-.129.377-.16.647-.085.434.121.527.586.353 1.216L.813-.144.787-.152C.664-.705.236-1.089-.33-1.248c-1.908-.534-2.311 1.239-2.707 2.644-.383 1.368-.844 3.113.969 3.619.617.172 1.222.05 1.629-.46l.027.007-.205.726z" style="fill:#414142;fill-opacity:1;fill-rule:nonzero;stroke:none" transform="matrix(1.36757 0 0 -1.36757 88.318 83.353)"/><path d="M0 0c-.096.619-.207 1.509-1.057 1.377-.82-.127-.658-1.086-.574-1.629Zm-1.477-1.252c.118-.759.321-1.893 1.106-1.772.629.099.664.725.582 1.256l1.809.282c.08-.701-.057-1.306-.428-1.764-.356-.457-.953-.782-1.789-.912-2.299-.357-2.821 1-3.131 2.998-.272 1.746-.25 3.277 2.101 3.641 2.403.374 2.911-1.141 3.166-3.199z" style="fill:#414142;fill-opacity:1;fill-rule:nonzero;stroke:none" transform="matrix(1.36757 0 0 -1.36757 98.26 77.419)"/><path d="M0 0c.029 1.343-.023 2.022-.789 2.038-.768.016-.844-.661-.875-2.004-.037-1.97.119-2.395.785-2.409.666-.013.838.406.879 2.375m-3.467-.031c.035 1.764.322 3.268 2.701 3.22C1.615 3.14 1.838 1.625 1.801-.139c-.041-2.02-.375-3.432-2.703-3.386-2.328.047-2.606 1.473-2.565 3.494" style="fill:#414142;fill-opacity:1;fill-rule:nonzero;stroke:none" transform="matrix(1.36757 0 0 -1.36757 113.022 77.367)"/><path d="M0 0c-.717.133-.9-.128-.977-.776l-.087-.776.839-.096-.129-1.106-.837.096-.608-5.314-1.793.205.608 5.314-.801.092.127 1.105.812-.093c.201 1.845.158 2.842 2.344 2.592.217-.026.42-.061.633-.099z" style="fill:#414142;fill-opacity:1;fill-rule:nonzero;stroke:none" transform="matrix(1.36757 0 0 -1.36757 122.748 71.734)"/><path d="M0 0c.658 2.354 1.287 4.596 4.354 3.736 1.898-.53 2.369-1.792 1.759-3.68l-1.822.51c.332 1.183.246 1.684-.311 1.84-1.044.294-1.457-.655-2.095-2.933-.639-2.281-.778-3.305.269-3.598.864-.241 1.135.878 1.358 1.574l1.834-.514C4.682-5.443 3.52-5.941 1.783-5.456-1.289-4.597-.652-2.329 0 0" style="fill:#414142;fill-opacity:1;fill-rule:nonzero;stroke:none" transform="matrix(1.36757 0 0 -1.36757 129.353 77.77)"/><path d="m0 0-.021.009c-.555-.392-1.083-.393-1.708-.131C-2.518.209-3.016.974-2.67 1.8l2.002 4.779 1.666-.697-1.732-4.131c-.221-.53-.293-.959.236-1.183.533-.221.791.128 1.016.66l1.728 4.129 1.666-.696L1.908-.12c-.164-.389-.306-.8-.435-1.204l-1.725.723z" style="fill:#414142;fill-opacity:1;fill-rule:nonzero;stroke:none" transform="matrix(1.36757 0 0 -1.36757 141.784 87.635)"/><path d="m0 0-4.354-8.145-1.591.85L-1.588.85z" style="fill:#414142;fill-opacity:1;fill-rule:nonzero;stroke:none" transform="matrix(1.36757 0 0 -1.36757 154.314 80.725)"/><path d="m0 0 .617-.389.545.867L3.117.201l-.972-1.549.791-.498-.592-.943-.793.498-1.838-2.926c-.258-.412-.44-.676.058-.99.098-.061.194-.122.288-.147l-.596-.943c-.219.107-.455.211-.826.443-1.319.831-.944 1.817-.733 2.152l2.121 3.37-.619.389z" style="fill:#414142;fill-opacity:1;fill-rule:nonzero;stroke:none" transform="matrix(1.36757 0 0 -1.36757 154.699 85.28)"/><path d="m0 0-.02.016C-.654-.223-1.166-.09-1.703.324c-.68.521-.969 1.386-.424 2.097l3.156 4.112 1.43-1.098-2.725-3.554c-.349-.457-.525-.853-.07-1.204C.121.327.459.6.811 1.056l2.724 3.553 1.434-1.097L1.811-.6a15.961 15.961 0 0 1-.725-1.053L-.398-.518z" style="fill:#414142;fill-opacity:1;fill-rule:nonzero;stroke:none" transform="matrix(1.36757 0 0 -1.36757 159.437 98.163)"/><path d="m0 0-.566-.606.015-.018C.199-.31.795-.571 1.33-1.07L.227-2.248c-1.088 1.161-1.739.507-2.176.04l-2.406-2.569-1.319 1.235 4.422 4.715z" style="fill:#414142;fill-opacity:1;fill-rule:nonzero;stroke:none" transform="matrix(1.36757 0 0 -1.36757 170.49 97.22)"/><path d="M0 0c-.344-.303-.717-.732-.33-1.175.701-.8 1.67.27 2.197.734C1.25.208.869.76 0 0m1.588-3.035c-.299-.261-.574-.57-.848-.86L-.363-2.633l.595.623-.015.02c-.756-.151-1.342.033-1.856.621-.826.944-.427 1.907.42 2.648 1.608 1.408 2.762.224 3.85-1.054l.373.327c.414.364.664.682.232 1.173-.41.472-.8.199-1.187-.138L.885 2.916c.59.514 1.125.661 1.623.536.5-.106.976-.473 1.43-.994C5.449.735 4.9-.136 4.016-.911Z" style="fill:#414142;fill-opacity:1;fill-rule:nonzero;stroke:none" transform="matrix(1.36757 0 0 -1.36757 170.864 106.31)"/><path d="m0 0-7.486-5.404-1.057 1.462 7.486 5.405z" style="fill:#414142;fill-opacity:1;fill-rule:nonzero;stroke:none" transform="matrix(1.36757 0 0 -1.36757 185.186 108.462)"/><path d="m0 0 8.121 4.409.92-1.699L.922-1.698Z" style="fill:#414142;fill-opacity:1;fill-rule:nonzero;stroke:none" transform="matrix(1.36757 0 0 -1.36757 178.973 122.237)"/><path d="m0 0 .01-.024c.342-.049.603-.174.804-.352.217-.185.383-.435.512-.742.336-.788.162-1.683-.662-2.036l-4.768-2.033-.707 1.659L-.715-1.78c.529.226.901.496.676 1.025-.229.53-.678.448-1.209.222L-5.342-2.28l-.709 1.659 5.946 2.536L.602.256z" style="fill:#414142;fill-opacity:1;fill-rule:nonzero;stroke:none" transform="matrix(1.36757 0 0 -1.36757 189.775 126.103)"/><path d="M0 0c1.242.363 2.104.602 1.896 1.313-.22.75-1.076.486-2.314.123C-1.979.981-2.596.68-2.412.054-2.242-.537-1.559-.456 0 0m-3.129-1.009.688.201-.006.024c-.696.144-1.045.563-1.239 1.225-.525 1.793 1.485 2.313 2.758 2.687 1.256.366 3.166.979 3.678-.765.18-.626.125-1.11-.299-1.62l.006-.025 3.252.951.508-1.732-8.863-2.59z" style="fill:#414142;fill-opacity:1;fill-rule:nonzero;stroke:none" transform="matrix(1.36757 0 0 -1.36757 190.528 138.419)"/><path d="M0 0v.025c-.627.258-.91.704-1.021 1.372-.145.845.238 1.674 1.119 1.823l5.111.857.295-1.78-4.414-.74C.523 1.461.123 1.291.219.723.313.156.746.125 1.314.22l4.415.74.298-1.778-5.109-.856a14.773 14.773 0 0 1-1.25-.276L-.641-.108z" style="fill:#414142;fill-opacity:1;fill-rule:nonzero;stroke:none" transform="matrix(1.36757 0 0 -1.36757 189.059 148.605)"/><path d="M0 0c-.295-.003-.576-.031-.773-.132-.2-.113-.291-.31-.27-.668.018-.358.266-.652.699-.628C1.023-1.353.543 1.8 2.6 1.913 3.992 1.99 4.49.632 4.553-.53c.068-1.226-.457-2.371-1.858-2.344L2.6-1.112c.447.025.713.091.818.225.109.121.127.276.117.468-.023.396-.289.599-.724.575C1.789.099 2.016-3.066-.055-3.18c-1.125-.063-2.017.811-2.099 2.305-.086 1.572.252 2.642 2.056 2.639z" style="fill:#414142;fill-opacity:1;fill-rule:nonzero;stroke:none" transform="matrix(1.36757 0 0 -1.36757 191.783 155.504)"/><path d="m0 0-.02-.729 1.024-.033.746-1.827-1.826.056-.029-.933-1.112.035.028.933-3.454.109c-.484.015-.804.037-.824-.551a1.025 1.025 0 0 1 .018-.319l-1.114.034c-.017.244-.048.499-.035.935.051 1.561 1.09 1.733 1.487 1.721l3.98-.125.02.729z" style="fill:#414142;fill-opacity:1;fill-rule:nonzero;stroke:none" transform="matrix(1.36757 0 0 -1.36757 197.991 161.36)"/><path d="m0 0-.826.089L-.83.064c.703-.411.851-1.045.773-1.77l-1.603.173C-1.387.035-2.303.16-2.936.228l-3.498.378.194 1.794 6.424-.695Z" style="fill:#414142;fill-opacity:1;fill-rule:nonzero;stroke:none" transform="matrix(1.36757 0 0 -1.36757 197.409 170.882)"/><path d="m0 0-1.396.26.332 1.775 1.396-.26zm-9.084 1.692.328 1.774 6.354-1.183L-2.73.509Z" style="fill:#414142;fill-opacity:1;fill-rule:nonzero;stroke:none" transform="matrix(1.36757 0 0 -1.36757 199.997 178.963)"/><path d="M0 0c.602-.173 1.455-.444 1.691.38.233.8-.707 1.056-1.238 1.206Zm-.52 1.865c-.738.212-1.851.504-2.068-.258-.178-.615.379-.907.895-1.055l-.504-1.76c-.668.219-1.157.6-1.422 1.127-.266.514-.311 1.193-.076 2.005C-3.053 4.163-1.604 4.067.34 3.51 2.037 3.024 3.418 2.362 2.762.074 2.094-2.264.504-2.088-1.469-1.456Z" style="fill:#414142;fill-opacity:1;fill-rule:nonzero;stroke:none" transform="matrix(1.36757 0 0 -1.36757 190.982 185.238)"/><path d="M0 0c-.27.124-.533.22-.758.214-.226-.017-.396-.155-.533-.487-.135-.331-.041-.703.363-.869C.338-1.664 1.264 1.388 3.168.603c1.289-.533 1.154-1.972.711-3.049-.471-1.136-1.438-1.941-2.69-1.314l.674 1.633c.412-.172.682-.226.838-.151.151.061.233.195.305.372.148.366-.002.666-.404.831C1.654-.684.49-3.638-1.424-2.848c-1.043.429-1.471 1.604-.902 2.989C-1.723 1.596-.957 2.415.67 1.632z" style="fill:#414142;fill-opacity:1;fill-rule:nonzero;stroke:none" transform="matrix(1.36757 0 0 -1.36757 186.196 191.16)"/><path d="m0 0 1.301-2.87-.721-.326-1.299 2.87-1.523-.69 2.33-5.151-3.076-1.396-1.766 3.9 2.211 1-.422.938-3.133-1.42a.657.657 0 0 1-.332-.854l2.082-4.6a.658.658 0 0 1 .862-.312l.002-.003L.512-7.101 2.51-11.51l1.521.69-3.029 6.686.725.328 3.025-6.686 1.525.692L1.525.691Z" style="fill:#414142;fill-opacity:1;fill-rule:nonzero;stroke:none" transform="matrix(1.36757 0 0 -1.36757 146.28 229.83)"/><path d="m0 0-8.768 3.89-.418-.941 3.786-1.68-.905-2.035 1.528-.681.906 2.039L-.418-.943z" style="fill:#414142;fill-opacity:1;fill-rule:nonzero;stroke:none" transform="matrix(1.36757 0 0 -1.36757 81.68 241.736)"/><path d="m0 0-6.943 3.081-1.52-3.433a.662.662 0 0 1 .315-.819l5.802-2.572c.325-.124.7.026.838.348h.002zm-6.77-.656.938 2.115 3.887-1.723-.938-2.115z" style="fill:#414142;fill-opacity:1;fill-rule:nonzero;stroke:none" transform="matrix(1.36757 0 0 -1.36757 83.473 234.565)"/><path d="m0 0 1.15 2.597-1.529.679L-1.684.328a.667.667 0 0 1 .348-.857l6.713-2.978.414.939z" style="fill:#414142;fill-opacity:1;fill-rule:nonzero;stroke:none" transform="matrix(1.36757 0 0 -1.36757 70.262 243.898)"/><path d="M0 0c.17.795.863 1.316 1.553 1.167.681-.149 1.093-.914.92-1.706-.174-.798-.864-1.32-1.549-1.17C.238-1.558-.176-.795 0 0m6.797-1.148.697 3.198-1.635.36-1.527-7.001-3.037.661.246 1.147c1.203.059 2.234.811 2.473 1.907.152.69-.037 1.385-.471 1.944L4.629.832l.223 1.007-2.198.478.272 1.235-1.637.355-.268-1.232-2.191.477-.219-1.006 1.084-.236c-.619-.331-1.086-.882-1.236-1.572-.24-1.099.381-2.208 1.453-2.766L-.34-3.572l-2.471.541-.222-1.009 7.142-1.561L3.4-8.848l1.635-.357 1.543 7.053 1.434-.313.217 1.004z" style="fill:#414142;fill-opacity:1;fill-rule:nonzero;stroke:none" transform="matrix(1.36757 0 0 -1.36757 88.855 240.82)"/><path d="m0 0 4.771 3.589L6.824.864l1.334 1.005-2.283 3.036a.67.67 0 0 1-.916.113l-.002.003L-.621.824Z" style="fill:#414142;fill-opacity:1;fill-rule:nonzero;stroke:none" transform="matrix(1.36757 0 0 -1.36757 158.96 235.273)"/><path d="m0 0-1.18-.888L-2.498.865l-1.34-1.008L-.211-4.96l1.336 1.005L-.561-1.71l1.18.886z" style="fill:#414142;fill-opacity:1;fill-rule:nonzero;stroke:none" transform="matrix(1.36757 0 0 -1.36757 164.053 221.318)"/><path d="M0 0c-.561-.42-1.41-.238-1.902.413-.489.65-.432 1.52.127 1.94.562.421 1.412.236 1.9-.415C.613 1.288.559.421 0 0m-.172 5.35-1.789-1.348-.666.883-1.338-1.008.664-.881-1.795-1.351.621-.822.961.721c-.195-.717-.093-1.48.356-2.077.826-1.102 2.517-1.232 3.771-.288 1.256.945 1.602 2.606.77 3.707-.447.598-1.151.907-1.901.915l.965.723z" style="fill:#414142;fill-opacity:1;fill-rule:nonzero;stroke:none" transform="matrix(1.36757 0 0 -1.36757 158.476 230.318)"/><path d="m0 0 .152 1.028c2.262-.895 3.983-.459 4.869.761l.157.215-2.557 1.858.604.833 3.437-2.498a.665.665 0 0 0 .147-.926C6.027.198 4.209-1.826 0 0" style="fill:#414142;fill-opacity:1;fill-rule:nonzero;stroke:none" transform="matrix(1.36757 0 0 -1.36757 54.815 226.914)"/><path d="m0 0-1.189.865L.102 2.64l-1.352.982-3.547-4.876 1.354-.983L-1.795.035l1.188-.866z" style="fill:#414142;fill-opacity:1;fill-rule:nonzero;stroke:none" transform="matrix(1.36757 0 0 -1.36757 68.39 230.294)"/><path d="M0 0a1.738 1.738 0 0 1-2.428-.392 1.739 1.739 0 0 1 .377-2.428 1.737 1.737 0 0 1 2.426.391C.941-1.649.775-.564 0 0m1.713-3.401c-.889-1.224-2.836-1.325-4.348-.224-1.511 1.1-2.013 2.98-1.127 4.206.891 1.222 2.836 1.322 4.346.224C2.1-.295 2.602-2.177 1.713-3.401" style="fill:#414142;fill-opacity:1;fill-rule:nonzero;stroke:none" transform="matrix(1.36757 0 0 -1.36757 58.872 232.073)"/><path d="m0 0-1.744-1.604-1.11 1.2-.753-.696 1.105-1.203-1.934-1.784 1.133-1.232 4.436 4.087z" style="fill:#414142;fill-opacity:1;fill-rule:nonzero;stroke:none" transform="matrix(1.36757 0 0 -1.36757 54.85 215.501)"/><path d="M0 0a1.737 1.737 0 0 1-2.457.096 1.733 1.733 0 0 1-.107-2.456 1.736 1.736 0 0 1 2.455-.09C.598-1.799.646-.703 0 0m1.01-3.669c-1.112-1.025-3.041-.736-4.305.634-1.268 1.373-1.394 3.321-.283 4.346 1.113 1.026 3.045.74 4.31-.635 1.262-1.371 1.393-3.317.278-4.345" style="fill:#414142;fill-opacity:1;fill-rule:nonzero;stroke:none" transform="matrix(1.36757 0 0 -1.36757 45.88 220.588)"/><path d="m0 0-1.289 1.396-.756-.698L-.807-.646c-1.23-.864-2.463-1.132-3.988-.758l-.094-.938a5.977 5.977 0 0 1 3.2-.349c.082-.926.043-1.965-.141-3.038l1.404.104c.071 1.206.02 2.05-.228 3.208a5.31 5.31 0 0 1 1.015.505L1.76-3.428l.758.7-1.35 1.461.922.85L.922.851z" style="fill:#414142;fill-opacity:1;fill-rule:nonzero;stroke:none" transform="matrix(1.36757 0 0 -1.36757 49.406 211.159)"/><path d="m0 0-1.477-.027-.054 2.948-1.67-.03.142-7.808 1.672.03-.07 3.832 1.475.027z" style="fill:#414142;fill-opacity:1;fill-rule:nonzero;stroke:none" transform="matrix(1.36757 0 0 -1.36757 118.958 242.486)"/><path d="m0 0-.057 2.84-1.67-.032.061-3.225a.665.665 0 0 1 .674-.628l6.875.124-.02 1.028z" style="fill:#414142;fill-opacity:1;fill-rule:nonzero;stroke:none" transform="matrix(1.36757 0 0 -1.36757 109.11 252.984)"/><path d="M0 0c.271.87.254 1.708.24 2.47l-1.808-.033.015-.77c.032-1.609-.621-3.161-2.431-4.473l.632-.684c1.53.823 2.409 1.684 2.914 2.533.643-.5 1.581-1.46 2.366-2.538l1.101 1.133C2.047-1.308 1.232-.697 0 0" style="fill:#414142;fill-opacity:1;fill-rule:nonzero;stroke:none" transform="matrix(1.36757 0 0 -1.36757 109.638 242.46)"/><path d="m0 0-.309 1.354 4.1.935.311-1.351zm5.316.16a.663.663 0 0 1 .5.772L4.92 4.865l-1.625-.37.271-1.202-4.105-.935-.27 1.201-1.63-.372.898-3.932a.67.67 0 0 1 .789-.481z" style="fill:#414142;fill-opacity:1;fill-rule:nonzero;stroke:none" transform="matrix(1.36757 0 0 -1.36757 128.688 251.085)"/><path d="M0 0c-.766-.175-1.582.52-1.816 1.552-.239 1.031.199 2.012.962 2.187.77.175 1.579-.518 1.817-1.553C1.197 1.152.77.175 0 0m3.184 5.813L3.732 3.4l-1.334-.306C1.828 4.369.379 5.098-1.088 4.765c-1.658-.381-2.717-1.984-2.351-3.582.365-1.601 2.015-2.588 3.673-2.209 1.5.341 2.5 1.685 2.411 3.121l1.318.302.56-2.461 1.631.37-1.34 5.881z" style="fill:#414142;fill-opacity:1;fill-rule:nonzero;stroke:none" transform="matrix(1.36757 0 0 -1.36757 126.752 243.765)"/><path d="M0 0a5.846 5.846 0 0 0 0 8.203l14.886 14.874c1.253 1.254 2.036 1.914 4.856 1.914h19.717a5.746 5.746 0 0 0 5.741-5.738 5.743 5.743 0 0 0-5.741-5.736H21.555l-9.449-9.416 9.449-9.413h17.904a5.747 5.747 0 0 0 5.741-5.74 5.748 5.748 0 0 0-5.741-5.737H19.742c-2.82 0-3.605.653-4.854 1.913z" style="fill:#f47520;fill-opacity:1;fill-rule:nonzero;stroke:none" transform="matrix(1.36757 0 0 -1.36757 63.336 167.805)"/><path d="m0 0-17.805 17.81a2.478 2.478 0 0 0 .019 3.41L0 39.006a5.975 5.975 0 0 0 4.247 1.758 5.964 5.964 0 0 0 4.244-1.758 5.962 5.962 0 0 0 1.76-4.247 5.974 5.974 0 0 0-1.762-4.25L-2.555 19.505 8.491 8.498a5.964 5.964 0 0 0 1.758-4.248A5.973 5.973 0 0 0 8.491 0a5.986 5.986 0 0 0-4.244-1.756A5.996 5.996 0 0 0 0 0" style="fill:#f47520;fill-opacity:1;fill-rule:nonzero;stroke:none" transform="matrix(1.36757 0 0 -1.36757 145.982 188.871)"/><path d="m0 0 4.294 4.735 3.883-3.523 1.107 1.22L5.063 6.26a.656.656 0 0 1-.905-.061l-.002.001L-.805.73Z" style="fill:#414142;fill-opacity:1;fill-rule:nonzero;stroke:none" transform="matrix(1.36757 0 0 -1.36757 165.11 218.467)"/><path d="m0 0-6.348-6.998-.75.68 1.228 1.352-3.24 2.939 1.107 1.221 3.239-2.939.676.746L-7.327-.06l1.112 1.227 3.24-2.94L-.75.68z" style="fill:#414142;fill-opacity:1;fill-rule:nonzero;stroke:none" transform="matrix(1.36757 0 0 -1.36757 181.159 217.368)"/></g></svg>