<svg xmlns="http://www.w3.org/2000/svg" width="164.42221mm" height="164.42224mm" viewBox="0 0 164.42221 164.42224"><path d="M185.711 168.111c0 45.14-36.594 81.732-81.73 81.732-45.139 0-81.73-36.592-81.73-81.732 0-45.137 36.591-81.728 81.73-81.728 45.136 0 81.73 36.591 81.73 81.728z" style="fill:#fff;stroke:#063d64;stroke-width:.962536;stroke-linecap:butt;stroke-linejoin:miter;stroke-miterlimit:4;stroke-dasharray:none;stroke-opacity:1" transform="translate(-21.77 -85.902)"/><path d="M103.978 224.79c-31.299 0-56.67-25.374-56.67-56.676 0-31.301 25.371-56.671 56.67-56.671 31.305 0 56.678 25.37 56.678 56.67 0 31.303-25.373 56.678-56.678 56.678zm0-134.865c-43.177 0-78.184 35.005-78.184 78.189 0 43.184 35.007 78.187 78.184 78.187 43.188 0 78.191-35.003 78.191-78.187s-35.003-78.189-78.191-78.189" style="fill:#0e87b8;fill-opacity:1;fill-rule:nonzero;stroke:none;stroke-width:.132947" transform="translate(-21.77 -85.902)"/><path d="M118.744 147.823v11.641a74.847 74.847 0 0 1 17.63 2.34v-11.956a83.846 83.846 0 0 0-17.63-2.025M118.744 169.596v10.587a58.724 58.724 0 0 1 17.63 3.173V172.29a66.955 66.955 0 0 0-17.63-2.694M77.499 203.617s-.392.338-.189.637c.134.197.513.072.513.072 18.564-7.283 39.02-8.231 58.551-1.589v-11.43c-20.322-5.54-41.75-.737-58.875 12.31" style="fill:#063d64;fill-opacity:1;fill-rule:nonzero;stroke:none;stroke-width:.132947" transform="translate(-21.77 -85.902)"/><path d="M115.928 137.997v-10.663a47.401 47.401 0 0 0-10.205.142v10.698a36.85 36.85 0 0 1 10.205-.177M105.723 141.23v35.507c-13.5 3.768-25.08 13.817-31.564 27.112 0 0-.183.308.023.48.204.174.566-.224.566-.224 10.934-11.75 24.908-18.89 41.18-19.82V141.02a32.241 32.241 0 0 0-10.206.21" style="fill:#0e87b8;fill-opacity:1;fill-rule:nonzero;stroke:none;stroke-width:.132947" transform="translate(-21.77 -85.902)"/><path d="M102.908 141.867v-21.764c-12.543 3.077-23.632 10.456-31.32 20.318v63.254s.023.628.367.628.457-.598.457-.598c4.679-15.137 16.276-26.955 30.496-31.796v-11.115c-7.985 2.142-15.25 6.301-21.25 11.96v-28.488c3.27-3.368 7.063-7.165 11.186-9.232v11.553a32.83 32.83 0 0 1 10.064-4.72" style="fill:#99d420;fill-opacity:1;fill-rule:nonzero;stroke:none;stroke-width:.132947" transform="translate(-21.77 -85.902)"/><path d="m122.07 230.596-.953.232-.877-3.651-1.439.346 2.828 11.745 1.436-.344-1.653-6.857.956-.23 1.652 6.856 1.438-.343-2.825-11.75-1.44.345.878 3.651M115.422 236.312l4.353-1.05-.3-1.236-2.915.701-1.103-4.588 2.912-.7-.295-1.237-4.355 1.046 1.703 7.064M90.9 233.585l-1.372-.322-.959 4.084-1.183-.275.956-4.087-1.373-.321-.958 4.086-2.462-.58-.291 1.24 9.863 2.313.29-1.24-3.467-.814.956-4.084" style="fill:#fff;fill-opacity:1;fill-rule:nonzero;stroke:none;stroke-width:.132947" transform="translate(-21.77 -85.902)"/><path d="m91.265 235.642 1.439.337 1.47-6.276-7.37-1.73-.313 1.33 5.932 1.389-1.158 4.95M150.08 219.108l1.133-.952-4.158-4.928-5.79 4.883.88 1.043 4.655-3.929 3.28 3.883" style="fill:#fff;fill-opacity:1;fill-rule:nonzero;stroke:none;stroke-width:.132947" transform="translate(-21.77 -85.902)"/><path d="m150.919 221.378-2.706-3.204-1.08.912 2.705 3.204-.924.784-2.707-3.207-1.082.911 2.708 3.207-1.932 1.631.823.973 7.74-6.535-.821-.97-2.724 2.294M64.77 218.89l-1.524-1.175-.778 1.01 1.527 1.176-1.679 2.181 1.171.9 4.198-5.457-1.172-.901-1.743 2.266" style="fill:#fff;fill-opacity:1;fill-rule:nonzero;stroke:none;stroke-width:.132947" transform="translate(-21.77 -85.902)"/><path d="m61.278 220.508 1.336-.248c-.963-1.831-.647-3.275-.282-4.091l1.694 1.304.778-1.008-1.747-1.345.772-1.001-1.24-.953-.771 1.002-1.747-1.343-.777 1.01 1.7 1.306c-.695.561-2.01 1.236-4.026.774l.1 1.356c1.434.358 2.617.153 3.528-.231-.136.98-.03 2.177.682 3.468M58.515 224.42c-.643-.495-.752-1.432-.248-2.092.51-.662 1.445-.793 2.087-.3.643.496.754 1.433.246 2.09-.508.662-1.443.798-2.085.302zm2.618-3.403c-1.294-.994-3.1-.81-4.035.409-.939 1.22-.651 3.008.638 4.003 1.294.994 3.1.81 4.035-.407.937-1.218.649-3.01-.638-4.005M105.28 237.085h-1.346v-1.08h1.347zm-5.993-1.08h3.188v1.08h-1.69v1.273h5.96v3.179h1.478v-4.452h-1.487v-1.08h3.032v-1.275h-10.48v1.275M104.528 230.158c.813 0 1.47.675 1.47 1.509 0 .833-.657 1.506-1.47 1.506s-1.469-.673-1.469-1.506c0-.834.656-1.51 1.47-1.51zm0 4.29c1.63 0 2.952-1.245 2.952-2.781 0-1.539-1.322-2.784-2.952-2.784-1.628 0-2.949 1.245-2.949 2.784 0 1.536 1.32 2.78 2.95 2.78M135.042 221.039l-1.321.664 3.174 6.307 1.32-.662-1.326-2.636 1.432-.722-.57-1.134-1.431.722-1.278-2.54M132.362 232.391l5.376-2.707 1.414 2.808 1.317-.665-1.982-3.944-6.698 3.37.573 1.138M130.489 227.532c-.345-.68-.084-1.505.583-1.843.665-.332 1.483-.052 1.824.63.345.684.086 1.51-.58 1.844-.665.335-1.484.055-1.827-.631zm3.692-1.856a2.513 2.513 0 0 0-1.187-1.145l1.023-.514-.571-1.138-2.327 1.168-.566-1.126-1.396.704.566 1.127-2.325 1.17.573 1.138 1.022-.515a2.515 2.515 0 0 0 .213 1.634c.652 1.295 2.293 1.788 3.668 1.096 1.372-.692 1.955-2.302 1.307-3.6M69.393 227.722l3.894 1.859-2.082 4.363 1.421.68 2.088-4.363 3.894 1.862.547-1.15-9.213-4.401-.549 1.15M71.588 225.523l.255 1.365c1.778.177 2.989-.06 3.817-.441.226.883.804 1.976 2.054 3.245l1.223-.66c-1.877-1.895-1.938-3.19-1.744-3.87l2.527 1.21.55-1.15-6.552-3.129-.55 1.15 2.527 1.207c-.409.577-1.45 1.343-4.107 1.073M52.442 209.834c-.787 0-1.424.657-1.424 1.464 0 .813.637 1.47 1.424 1.47.783 0 1.421-.657 1.421-1.47 0-.807-.638-1.464-1.42-1.464M155.57 209.847c.786 0 1.42.657 1.42 1.464 0 .811-.634 1.47-1.42 1.47-.785 0-1.42-.659-1.42-1.47 0-.807.635-1.464 1.42-1.464M46.195 203.702c-2.067 1.173-4.04 2.292-5.418-.135-.852-1.501-.274-2.629 1.438-3.522l.819 1.442c-1.04.59-1.337.978-1.087 1.416.471.829 1.399.444 3.403-.694 2.003-1.136 2.809-1.736 2.338-2.564-.387-.684-1.344-.1-1.974.231l-.824-1.453c2.09-1.187 3.188-.816 3.968.557 1.377 2.428-.616 3.56-2.663 4.722M40.264 193.887l-3.317 1.399-.657-1.56 8.287-3.494.658 1.561-3.697 1.557.755 1.787 3.695-1.558.658 1.56-8.287 3.493-.657-1.56 3.316-1.398-.754-1.787M43.823 188.024l-8.627 2.538-1.247-4.238 1.326-.39.77 2.614 2.127-.626-.709-2.41 1.326-.389.708 2.408 2.522-.74-.795-2.7 1.327-.39 1.272 4.323M41.765 179.087c-.481-2.748-2.738-2.354-5.057-1.947-2.343.41-4.576.801-4.095 3.55.483 2.75 2.715 2.358 5.057 1.948 2.32-.405 4.578-.801 4.095-3.55zm-1.324.233c.164.938-.795 1.23-3.066 1.628-2.27.398-3.271.448-3.436-.49-.164-.939.795-1.233 3.064-1.629 2.27-.397 3.273-.448 3.438.49M40.881 174.182l-8.982.428-.109-2.286 6.12-2.445-.001-.022-6.221.294-.075-1.578 8.982-.427.105 2.228-6.464 2.518.002.023 6.57-.311.073 1.578M34.735 161.564c-.83-.076-1.573-.012-1.643.881-.085 1.052 1.493 1.177 3.232 1.315 2.805.223 3.322.015 3.397-.945a2.394 2.394 0 0 0-.107-.853l-1.986-.156-.073.916-1.379-.11.206-2.604 4.545.362c.063.465.171 1.63.118 2.302-.226 2.839-1.556 3.06-4.956 2.79-2.26-.18-4.55-.463-4.33-3.223.131-1.654 1.243-2.6 3.11-2.352l-.134 1.676M33.406 152.163l6.775 1.31c1.54.3 1.983 1.55 1.754 2.727-.449 2.323-1.544 2.213-3.55 1.825l.329-1.694c.71.137 1.734.484 1.901-.386.073-.375-.255-.711-.634-.785l-6.897-1.335.322-1.662M35.805 143.81l6.085 1.91c1.283.403 2.433 1.481 1.815 3.449-.557 1.775-1.847 2.31-3.463 1.803l-6.084-1.91.505-1.615 5.967 1.872c1.058.333 1.6.056 1.785-.532.222-.706-.2-1.19-1.151-1.489l-5.965-1.873.506-1.615M46.571 141.212l-7.949-4.206 1.07-2.023 6.511 1.012.011-.019-5.505-2.914.74-1.397 7.95 4.208-1.046 1.971-6.845-1.124-.011.018 5.812 3.077-.738 1.397M51.202 133.09l-1.364-1.522 1.328-1.89 1.888.781 1.025-1.458-8.62-3.377-1.282 1.824 6.064 7.009zm-1.374-3.914-.929 1.322-2.733-2.87.015-.018 3.65 1.566M51.125 118.7l1.128.979-1.233 1.422 5.663 4.914-1.109 1.277-5.664-4.912-1.233 1.423-1.13-.98 3.578-4.123M59.155 123.394l-6.28-6.437 1.212-1.182 6.28 6.436-1.212 1.183M64.263 118.998c2.17-1.756.728-3.538-.753-5.367-1.497-1.85-2.922-3.611-5.092-1.855-2.17 1.755-.744 3.518.753 5.367 1.48 1.83 2.922 3.611 5.092 1.855zm-.847-1.045c-.74.6-1.463-.098-2.912-1.89-1.45-1.79-1.98-2.642-1.242-3.242.742-.6 1.465.097 2.915 1.89 1.45 1.79 1.98 2.642 1.239 3.242M68.122 115.84l-4.734-7.644 1.943-1.205 5.11 4.162.018-.012-3.28-5.294 1.346-.832 4.734 7.646-1.896 1.174-5.34-4.429-.019.012 3.462 5.59-1.344.832M76.218 111.173l-.406-2.004 2.1-.958 1.234 1.627 1.622-.74-5.73-7.27-2.03.925 1.692 9.112zm.794-4.071-1.469.669-.91-3.857.023-.008 2.357 3.196M82.369 108.562l-2.828-8.537 1.606-.533 2.36 7.118 2.403-.796.471 1.418-4.012 1.33M95.347 96.268l.994 6.299c.21 1.33-.244 2.838-2.282 3.16-1.838.29-2.89-.629-3.155-2.301l-.995-6.3 1.673-.264.974 6.177c.173 1.094.662 1.458 1.271 1.362.732-.115.979-.71.823-1.693l-.976-6.176 1.673-.264M98.966 104.928l-.278-8.988 2.284-.07 2.345 6.157h.023l-.193-6.225 1.58-.05.278 8.99-2.23.068-2.41-6.505-.023.002.203 6.573-1.58.049M107.35 104.886l.591-8.974 1.688.111-.59 8.973-1.69-.11M112.125 96.2l1.739.27.238 6.654.023.004 2.398-6.246 1.65.257-3.494 8.558-1.962-.305-.592-9.192M118.393 106.414l2.33-8.686 4.266 1.143-.36 1.336-2.63-.704-.575 2.14 2.425.65-.356 1.336-2.425-.65-.68 2.538 2.717.729-.359 1.334-4.353-1.166M127.524 105.326l.408.158c1.213.47.8 1.286.412 2.284-.211.546-.474 1.1-.462 1.691l1.546.6c-.011-.406.569-1.996.778-2.53.585-1.51-.403-2.001-.73-2.18l.008-.023c1.097.212 1.784-.444 2.197-1.512.555-1.428.162-2.462-.913-2.88l-2.917-1.13-3.253 8.383 1.578.611zm1.407-3.623.699.271c.502.194.689.614.378 1.416-.208.534-.656 1.162-1.283.919l-.7-.272.906-2.334M133.081 112.04c-1.857-.975-1.567-2.37-.764-3.707l1.498.786c-.399.761-.705 1.416.118 1.849.507.264.946.03 1.23-.51.753-1.434-2.22-3.105-.977-5.477.654-1.245 1.71-1.957 3.538-1 1.46.765 1.801 1.874.83 3.486l-1.46-.764c.312-.596.54-1.25-.064-1.567-.488-.256-.932-.108-1.22.444-.793 1.511 2.294 2.96.982 5.465-1.082 2.062-2.569 1.593-3.71.994M137.458 114.36l4.862-7.565 1.424.914-4.862 7.565-1.424-.915M150.145 112.394l-.91 1.185-1.494-1.146-4.565 5.947-1.343-1.03 4.566-5.949-1.495-1.147.91-1.185 4.331 3.325M149.155 119.402l2.523-5.715 1.339 1.275-1.747 3.585 3.555-1.86 1.25 1.191-5.696 2.693-2.15 2.253-1.224-1.167 2.15-2.255M154.75 130.528c1.663 2.242 3.502.877 5.394-.526 1.912-1.416 3.732-2.767 2.07-5.008-1.663-2.243-3.483-.892-5.395.525-1.892 1.403-3.732 2.767-2.069 5.01zm1.08-.801c-.568-.766.16-1.459 2.011-2.83 1.85-1.373 2.724-1.867 3.29-1.103.57.766-.158 1.459-2.008 2.83-1.852 1.374-2.725 1.869-3.293 1.103M157.7 134.538l7.754-4.555 2.128 3.626-1.19.7-1.273-2.165-1.988 1.166 1.215 2.068-1.192.701-1.214-2.069-3.383 1.987-.858-1.459M162.09 142.846l8.36-3.314 1.629 4.106-1.286.51-1.004-2.533-2.062.817.927 2.335-1.286.51-.925-2.335-2.444.968 1.037 2.616-1.285.51-1.66-4.19M164.397 148.93l.722 2.663c.756 2.791 3.76 1.781 5.094 1.42 2.706-.733 4.184-1.564 3.603-3.706l-.738-2.727zm7.79-.354.228.843c.307 1.137-1.098 1.518-2.699 1.951-2.175.59-3.056.619-3.326-.376l-.216-.79 6.012-1.628M175.943 160.5l-6.312.905c-1.332.192-2.834-.285-3.127-2.326-.264-1.843.669-2.883 2.347-3.123l6.312-.904.24 1.676-6.188.887c-1.1.157-1.47.64-1.383 1.251.107.733.696.987 1.682.846l6.189-.887.24 1.675M171.704 163.812c2.377-.063 4.644-.122 4.715 2.667.047 1.725-.994 2.448-2.926 2.433l-.042-1.658c1.193-.03 1.637-.234 1.626-.74-.027-.951-1.026-1.048-3.33-.987-2.303.06-3.295.209-3.27 1.162.019.784 1.14.722 1.85.724l.045 1.67c-2.404.063-3.2-.779-3.24-2.36-.073-2.79 2.217-2.849 4.572-2.911M167.19 172.157l1.944.635-.205 2.3-2.025.269-.158 1.776 9.152-1.39.198-2.222-8.758-3.031zm3.147 2.7.145-1.607 3.801 1.115-.001.023-3.945.468M174.454 184.582l-1.467-.285.357-1.849-7.361-1.422.322-1.662 7.361 1.422.358-1.848 1.466.282-1.036 5.362M165.15 184.53l8.656 2.444-.46 1.628-8.655-2.443.46-1.629M162.915 190.888c-1.007 2.603 1.13 3.428 3.326 4.28 2.219.857 4.333 1.674 5.34-.929 1.008-2.604-1.107-3.422-3.326-4.28-2.196-.849-4.333-1.676-5.34.929zm1.255.484c.343-.888 1.317-.644 3.467.187 2.148.832 3.032 1.305 2.69 2.195-.344.888-1.318.643-3.468-.187-2.148-.831-3.032-1.306-2.69-2.195M161.138 195.546l7.91 4.28-1.088 2.01-6.501-1.07-.012.019 5.478 2.964-.754 1.39-7.909-4.279 1.062-1.963 6.836 1.188.008-.019-5.783-3.13.751-1.388" style="fill:#fff;fill-opacity:1;fill-rule:nonzero;stroke:none;stroke-width:.132947" transform="translate(-21.77 -85.902)"/><path d="M90.686 208.08c.627-.39 1.242-.85 1.694-1.505h1.68v9.73h-1.895v-7.487c-.45.419-.965.782-1.48 1.09v-1.828M97.886 214.018c-.037 1.84.842 2.413 2.36 2.413 2.558 0 2.596-2.551 2.596-4.95 0-2.732.012-5.032-2.584-5.032-1.97 0-2.497 1.548-2.497 3.458 0 1.295.515 2.634 1.857 2.634.566 0 1.053-.196 1.456-.641 0 2.313.1 3.107-.779 3.107a.559.559 0 0 1-.526-.306c-.101-.18-.127-.432-.127-.683zm1.643-4.502c0-.6 0-1.728.766-1.728.753 0 .78 1.073.78 1.686 0 .6-.04 1.728-.792 1.728-.754 0-.754-1.086-.754-1.686M108.111 212.582l.113-4.641h-.026l-1.593 4.641zm-2.86-.459c2.108-5.506 2.108-5.536 2.12-5.548h2.32v6.007h.692v1.506h-.691v2.217h-1.731v-2.217h-2.71v-1.965M113.042 208.08c.626-.39 1.242-.85 1.693-1.505h1.681v9.73h-1.894v-7.487a8.939 8.939 0 0 1-1.48 1.09v-1.828" style="fill:#0e87b8;fill-opacity:1;fill-rule:nonzero;stroke:none;stroke-width:.132947" transform="translate(-21.77 -85.902)"/></svg>