<svg xmlns="http://www.w3.org/2000/svg" xml:space="preserve" width="994.01031" height="303.5351" viewBox="0 0 994.01031 303.53509"><defs><clipPath id="a" clipPathUnits="userSpaceOnUse"><path d="M0 841.89h595.276V0H0Z"/></clipPath><clipPath id="b" clipPathUnits="userSpaceOnUse"><path d="M92.385 420.102c0-28.212 22.866-51.081 51.082-51.081 20.39 0 37.99 11.951 46.179 29.222 0 0 1.214 23.074-10.567 37.078 0 0-7.856-26.523-44.212-26.523-36.346 0-37.815 32.671-37.815 32.671a50.975 50.975 0 0 1-4.667-21.367"/></clipPath><clipPath id="c" clipPathUnits="userSpaceOnUse"><path d="M92.403 441.435h98.474v-72.446H92.403Z"/></clipPath><clipPath id="d" clipPathUnits="userSpaceOnUse"><path d="M92.403 441.435h98.474v-72.446H92.403Z"/></clipPath><clipPath id="f" clipPathUnits="userSpaceOnUse"><path d="M142.717 471.181c-27.868-.403-50.332-23.114-50.332-51.079 0-18.624 9.966-34.922 24.861-43.851a50.94 50.94 0 0 1 26.221-7.23s-36.84.145-36.84 29.222c0 20.13 26.031 41.745 59.923 31.674 0 0 19.221 12.598 17.933 20.069l.036.526c-9.167 12.347-23.788 20.426-40.303 20.669z"/></clipPath><clipPath id="g" clipPathUnits="userSpaceOnUse"><path d="M92.341 471.16h93.385V369.001H92.341Z"/></clipPath><clipPath id="h" clipPathUnits="userSpaceOnUse"><path d="M92.34 471.16h93.387V369H92.34Z"/></clipPath><clipPath id="j" clipPathUnits="userSpaceOnUse"><path d="m120.371 374.516 1.176-.563-1.176.568z"/></clipPath><clipPath id="k" clipPathUnits="userSpaceOnUse"><path d="M120.383 374.485h1.176v-.569h-1.176z"/></clipPath><clipPath id="l" clipPathUnits="userSpaceOnUse"><path d="M120.383 374.485h1.176v-.568h-1.176z"/></clipPath><clipPath id="n" clipPathUnits="userSpaceOnUse"><path d="m108.245 383.094.502-.459v.011z"/></clipPath><clipPath id="o" clipPathUnits="userSpaceOnUse"><path d="M108.243 383.096h.5v-.458h-.5z"/></clipPath><clipPath id="p" clipPathUnits="userSpaceOnUse"><path d="M108.243 383.096h.5v-.46h-.5z"/></clipPath><clipPath id="r" clipPathUnits="userSpaceOnUse"><path d="M181.705 425.894a115.627 115.627 0 0 1-6.006 2.563l-.018-.013a105.996 105.996 0 0 0 6.024-2.674 90.993 90.993 0 0 0-.384-10.033c-.626-6.721-1.965-13.099-3.89-18.957a89.276 89.276 0 0 0-5.537-.181c.562 7.339.29 15.445-.943 23.878.112.773.217 1.529.323 2.285a40.239 40.239 0 0 0-5.238-4.679 167.827 167.827 0 0 0-.804-4.068 123.305 123.305 0 0 0-3.987-14.225 3.848 3.848 0 0 1-3.318-2.526 164.301 164.301 0 0 0-15.896 2.37c-8.648 1.704-16.703 3.965-23.776 6.564a150.259 150.259 0 0 0-1.281 6.009l-.311.133c.383-2.055.807-4.062 1.287-6.032a110.47 110.47 0 0 0-4.241 1.656c.13 1.656.3 3.337.496 5.041l1.133-.218.342.013c-1.133.568-2.212 1.16-3.207 1.813a3.098 3.098 0 0 1 1.448-1.487 106.53 106.53 0 0 1-1.578-3.512c-.063 1.662-.088 3.349-.063 5.06-1.626-2.298-2.935-4.703-3.875-7.17l.904-.447c.129-1.518.296-3.017.495-4.497-1.3-4.275-2.007-8.391-2.121-12.236l.326-1.07c-.067 4.099.562 8.517 1.82 13.088.961-6.795 2.729-13.064 5.18-18.534l.006-.037c1.4-3.131 3.023-5.973 4.836-8.524a39.235 39.235 0 0 1 4.685-2.309c-5.392 6.686-9.297 15.947-11.123 26.647a100.56 100.56 0 0 0 .13 5.573 109.547 109.547 0 0 1 5.238-2.079c2.977-10.99 7.354-20.523 12.399-27.626-4.872 6.988-9.131 16.503-12.097 27.517 6.717-2.454 14.288-4.588 22.374-6.178 5.7-1.124 11.271-1.91 16.564-2.376l.743-1.105c-4.513-10.749-10.228-19.267-16.177-24.266l.638-.024h.242c3.071 0 6.072.278 8.995.786 3.714 1.728 7.454 3.881 11.129 6.444a39.25 39.25 0 0 0-1.783-3.845 50.597 50.597 0 0 1 9.285 4.721c2.475 3.373 4.724 7.212 6.637 11.437l.049.055a92.844 92.844 0 0 1 5.374 6.318c1.925.307 3.733.695 5.398 1.142.384.719.741 1.433 1.095 2.164l.018.351c-1.4-.375-2.902-.69-4.507-.955a83.457 83.457 0 0 1 4.388 6.757 74.698 74.698 0 0 1-.544 5.623c-2.133-3.996-4.715-8.004-7.719-11.939a87.438 87.438 0 0 1 3.277 16.939c.284 3.076.414 6.123.377 9.097l.729-.39-.103.26-.626.329-.033 1.294c-.976 2.315-2.152 4.574-3.582 6.704a95.47 95.47 0 0 0 .384-6.419M112.41 408.52l-.055.979a84.74 84.74 0 0 0 1.578 3.397 105.853 105.853 0 0 1-.438-4.842zm52.889-11.789-.233.738a114.362 114.362 0 0 1 2.729 8.39c.091-3.185.049-6.274-.13-9.224-.78.024-1.575.049-2.366.096m-52.666 8.821.699-.309a106.007 106.007 0 0 1-.103-4.576 91.965 91.965 0 0 0-.596 4.885m59.013-11.608c1.684.031 3.316.116 4.881.231a56.033 56.033 0 0 0-1.236-3.174l-.048-.049a96.929 96.929 0 0 0-4.83-4.848c.52 2.479.928 5.102 1.233 7.84m-8.575-1.505a3.803 3.803 0 0 1 1.765 1.554c.886-.03 1.768-.049 2.63-.066-.396-4.419-1.1-8.518-2.08-12.181-4.79-3.875-9.717-7.055-14.602-9.491 4.561 5.126 8.796 12.023 12.287 20.184m5.776-12.21c.569.471 1.14.943 1.702 1.426a62.016 62.016 0 0 0-2.524-3.784c.302.762.568 1.554.822 2.358m-53.708 2.986-.124.556h-.006z"/></clipPath><clipPath id="s" clipPathUnits="userSpaceOnUse"><path d="M68.255 69.782h.699v.54h-.699z"/></clipPath><clipPath id="t" clipPathUnits="userSpaceOnUse"><path d="M68.255 69.782h.7v.54h-.7z"/></clipPath><clipPath id="v" clipPathUnits="userSpaceOnUse"><path d="M131.18 375.453c1.484-2.135 3.031-4.032 4.612-5.671h.061a47.607 47.607 0 0 0-4.673 5.671"/></clipPath><clipPath id="w" clipPathUnits="userSpaceOnUse"><path d="M68.496 70.308h.04v.048h-.04z"/></clipPath><clipPath id="x" clipPathUnits="userSpaceOnUse"><path d="M68.496 70.308h.04v.048h-.04z"/></clipPath><clipPath id="z" clipPathUnits="userSpaceOnUse"><path d="M115.139 383.215a46.586 46.586 0 0 1 1.783-6.027l.064-.054a47.522 47.522 0 0 0-1.847 6.081"/></clipPath><clipPath id="A" clipPathUnits="userSpaceOnUse"><path d="M115.122 383.227h1.842v-6.076h-1.842z"/></clipPath><clipPath id="B" clipPathUnits="userSpaceOnUse"><path d="M115.122 383.227h1.843v-6.076h-1.843z"/></clipPath><clipPath id="D" clipPathUnits="userSpaceOnUse"><path d="m142.563 369.033.496-.012-.484.012zm.662-.012h.181-.347z"/></clipPath><clipPath id="E" clipPathUnits="userSpaceOnUse"><path d="M142.561 369.084h.84v-.015h-.84z"/></clipPath><clipPath id="F" clipPathUnits="userSpaceOnUse"><path d="M142.56 369.085h.842v-.016h-.841z"/></clipPath><clipPath id="H" clipPathUnits="userSpaceOnUse"><path d="m136.013 369.564.012-.011zm.012-.011h.045z"/></clipPath><clipPath id="I" clipPathUnits="userSpaceOnUse"><path d="M136.018 369.6h.055v-.006h-.055z"/></clipPath><clipPath id="J" clipPathUnits="userSpaceOnUse"><path d="M136.018 369.6h.055v-.007h-.055z"/></clipPath><clipPath id="L" clipPathUnits="userSpaceOnUse"><path d="m123.49 373.077.922-.381z"/></clipPath><clipPath id="M" clipPathUnits="userSpaceOnUse"><path d="M123.487 373.045h.921v-.378h-.921z"/></clipPath><clipPath id="N" clipPathUnits="userSpaceOnUse"><path d="M123.487 373.045h.923v-.377h-.923z"/></clipPath><clipPath id="P" clipPathUnits="userSpaceOnUse"><path d="m122.049 373.712.873-.394z"/></clipPath><clipPath id="Q" clipPathUnits="userSpaceOnUse"><path d="M69.322 71.252h.008v.003h-.008z"/></clipPath><clipPath id="R" clipPathUnits="userSpaceOnUse"><path d="M69.322 71.252h.008v.004h-.008z"/></clipPath><clipPath id="T" clipPathUnits="userSpaceOnUse"><path d="m143.095 471.181-.729-.013a29.1 29.1 0 0 0 3.984-3.324 99.33 99.33 0 0 1-11.431-2.161c1.937 2.149 3.941 3.974 5.966 5.434l-.178-.012c-2.019-1.43-4.026-3.261-5.963-5.459-.747-.19-1.515-.39-2.27-.592-.81-.23-1.623-.46-2.415-.696 2.499 2.63 5.18 4.83 7.991 6.532a51.902 51.902 0 0 1-6.272-1.052c-2.641-2.031-5.15-4.512-7.456-7.393a105.956 105.956 0 0 1-5.338-2.133c.891 2.269 1.901 4.337 3.04 6.156l-.16-.078c-1.133-1.789-2.149-3.851-3.022-6.142-6.215-2.724-11.679-5.912-16.138-9.352l-.849-1.158c4.5 3.54 10.171 6.865 16.69 9.7-.955-2.642-1.729-5.583-2.321-8.766.638 3.183 1.46 6.136 2.445 8.82a93.27 93.27 0 0 0 4.885 1.965c-2.971-3.887-5.604-8.451-7.789-13.508.136.916.284 1.838.459 2.723a55.765 55.765 0 0 1-.514-2.865 77.427 77.427 0 0 1-3.201-8.989c-7.928-.614-14.269-2.21-18.162-4.679l-.16-.55c4.035 2.618 10.4 4.355 18.28 5.081a87.483 87.483 0 0 1-3.041-16.213 98.616 98.616 0 0 1-.278-3.891c-7.62 1.198-13.456 3.897-16.367 7.895a49.038 49.038 0 0 1-.218-2.109c3.083-4.214 8.929-7.103 16.486-8.536a90.62 90.62 0 0 1 .075-5.821c-7.813 3.675-13.656 7.732-16.721 11.694l-.018-1.587.012-1.149c3.189-3.929 8.748-7.883 16.008-11.449.94 2.461 2.249 4.872 3.875 7.17l.006.447.106-.303a36.855 36.855 0 0 0 3.548 4.232l-.075.024c-.112.865-.218 1.717-.309 2.585.191.997.396 1.991.617 3.013a122.093 122.093 0 0 0 4.038 14.394c1.04.012 2.085.006 3.156-.006-1.058.024-2.116.042-3.138.042 2.587 7.399 5.743 13.998 9.204 19.42-3.579-5.447-6.816-12.039-9.446-19.42-1.357 0-2.663-.03-3.95-.073 2.986 9.748 7.559 18.117 13.112 24.326 1.127.36 2.261.689 3.418 1.01l1.391.365a59.157 59.157 0 0 1-4.525-6.208 60.999 60.999 0 0 0 4.688 6.245 104.239 104.239 0 0 0 12.806 2.496c3.219-3.349 6.308-7.801 9.044-13.117l-.172-.076.178.076c3.083-5.961 5.764-13.001 7.801-20.769l-.502-.626a156.046 156.046 0 0 1-14.046 3.443 154.685 154.685 0 0 1-16.101 2.327c7.255 6.883 15.08 12.146 22.67 15.549-7.789-3.322-15.754-8.572-23.078-15.506-3.225.284-6.359.447-9.354.496 2.959-.088 6.066-.272 9.279-.569a83.814 83.814 0 0 1-4.035-4.086 89.198 89.198 0 0 1-9.981-12.828l.632.526a93.769 93.769 0 0 0 9.566 12.078 92.667 92.667 0 0 0 4.226 4.271 169.797 169.797 0 0 0 16.171-2.388 166.895 166.895 0 0 0 13.994-3.382 5.319 5.319 0 0 1-.743-1.702 66.613 66.613 0 0 0 4.074-1.063s2.509 1.641 5.622 4.08c.26 9.044-.732 17.25-2.799 23.918 1.517.199 3.02.308 4.47.329 2.73-4.991 4.822-10.815 6.163-17.217a32.28 32.28 0 0 1 2.334 2.829c-1.421 5.293-3.385 10.111-5.798 14.312l1.107-.111-.462.407-.862.064-.844 1.375a51.28 51.28 0 0 1-4.896 3.476 45.721 45.721 0 0 0 3.077-4.809 36.694 36.694 0 0 1-4.377-.396c-.928 2.929-2.061 5.565-3.391 7.826a52.458 52.458 0 0 1-6.06 2.5 78.037 78.037 0 0 1-9.273-.218c-.998.997-2.014 1.922-3.047 2.726a52.15 52.15 0 0 1-3.373.173zm8.034-3.479c3.542.296 6.934.365 10.122.217 1.877-2.763 3.392-6.296 4.513-10.425a53.215 53.215 0 0 1-6.054-1.831c-2.624 4.772-5.522 8.837-8.581 12.039m8.623-12.109a51.399 51.399 0 0 0 6.055 1.708c1.665-6.263 2.408-13.877 2.112-22.264h-.012c-2.137 7.686-4.93 14.65-8.155 20.556m-44.921-20.97c.347 1.453.75 2.901 1.182 4.307 1.287.06 2.605.112 3.956.13a115.004 115.004 0 0 1-4.086-14.406 95.058 95.058 0 0 1-.426-2.061c-.442 4.14-.638 8.173-.626 12.03m-2.439-16.479a80.32 80.32 0 0 0 .266 3.596 89.625 89.625 0 0 0 1.976 12.103c-.009-3.903.203-7.962.65-12.127a65.964 65.964 0 0 1-.477-2.642 3.154 3.154 0 0 1-1.802-.991zm2.989 2.611.211-1.656-.254.011-.241-.011zm-7.136-37.661.507-.466c-.477 2.098-.707 4.31-.749 6.632l-.333 1.076c-.063-2.551.115-4.963.575-7.242m9.049-6.867.058-.037-.378.95-.057.048zm3.071-1.706a51.001 51.001 0 0 1 4.519-2.012l-.348.441a37.447 37.447 0 0 0-4.697 2.297zm15.648-4.968h.057l-.217.229-.061.013zm6.55-.532h.874l-.85.024z"/></clipPath><clipPath id="U" clipPathUnits="userSpaceOnUse"><path d="M87.02 88.712H88v1.113h-.98z"/></clipPath><clipPath id="V" clipPathUnits="userSpaceOnUse"><path d="M87.02 88.712H88v1.114h-.98z"/></clipPath><clipPath id="X" clipPathUnits="userSpaceOnUse"><path d="M83.36 360.292H514v118.626H83.36Z"/></clipPath><radialGradient id="e" cx="0" cy="0" r="1" fx="0" fy="0" gradientTransform="matrix(74.22272 0 0 -74.2227 118.809 403.053)" gradientUnits="userSpaceOnUse" spreadMethod="pad"><stop offset="0" style="stop-opacity:1;stop-color:#fff"/><stop offset="0.522476" style="stop-opacity:1;stop-color:#00aeef"/><stop offset="1" style="stop-opacity:1;stop-color:#16479e"/></radialGradient><radialGradient id="i" cx="0" cy="0" r="1" fx="0" fy="0" gradientTransform="matrix(83.55376 0 0 -83.55374 166.674 449.972)" gradientUnits="userSpaceOnUse" spreadMethod="pad"><stop offset="0" style="stop-opacity:1;stop-color:#fff"/><stop offset="0.522476" style="stop-opacity:1;stop-color:#a6ce38"/><stop offset="1" style="stop-opacity:1;stop-color:#00854a"/></radialGradient><radialGradient id="m" cx="0" cy="0" r="1" fx="0" fy="0" gradientTransform="matrix(116.82399 0 0 -116.82399 102.298 414.46)" gradientUnits="userSpaceOnUse" spreadMethod="pad"><stop offset="0" style="stop-opacity:1;stop-color:#fff"/><stop offset="0.522476" style="stop-opacity:1;stop-color:#00aeef"/><stop offset="1" style="stop-opacity:1;stop-color:#16479e"/></radialGradient><radialGradient id="q" cx="0" cy="0" r="1" fx="0" fy="0" gradientTransform="matrix(117.01677 0 0 -117.01677 102.293 414.6)" gradientUnits="userSpaceOnUse" spreadMethod="pad"><stop offset="0" style="stop-opacity:1;stop-color:#fff"/><stop offset="0.522476" style="stop-opacity:1;stop-color:#00aeef"/><stop offset="1" style="stop-opacity:1;stop-color:#16479e"/></radialGradient><radialGradient id="u" cx="0" cy="0" r="1" fx="0" fy="0" gradientTransform="translate(68.209 69.932)" gradientUnits="userSpaceOnUse" spreadMethod="pad"><stop offset="0" style="stop-opacity:1;stop-color:#fff"/><stop offset="0.522476" style="stop-opacity:1;stop-color:#00aeef"/><stop offset="1" style="stop-opacity:1;stop-color:#16479e"/></radialGradient><radialGradient id="y" cx="0" cy="0" r="1" fx="0" fy="0" gradientTransform="translate(68.249 69.974)" gradientUnits="userSpaceOnUse" spreadMethod="pad"><stop offset="0" style="stop-opacity:1;stop-color:#fff"/><stop offset="0.522476" style="stop-opacity:1;stop-color:#00aeef"/><stop offset="1" style="stop-opacity:1;stop-color:#16479e"/></radialGradient><radialGradient id="C" cx="0" cy="0" r="1" fx="0" fy="0" gradientTransform="matrix(117.21759 0 0 -117.21758 102.243 414.667)" gradientUnits="userSpaceOnUse" spreadMethod="pad"><stop offset="0" style="stop-opacity:1;stop-color:#fff"/><stop offset="0.522476" style="stop-opacity:1;stop-color:#00aeef"/><stop offset="1" style="stop-opacity:1;stop-color:#16479e"/></radialGradient><radialGradient id="G" cx="0" cy="0" r="1" fx="0" fy="0" gradientTransform="matrix(123.88725 0 0 -123.88725 102.192 419.255)" gradientUnits="userSpaceOnUse" spreadMethod="pad"><stop offset="0" style="stop-opacity:1;stop-color:#fff"/><stop offset="0.522476" style="stop-opacity:1;stop-color:#00aeef"/><stop offset="1" style="stop-opacity:1;stop-color:#16479e"/></radialGradient><radialGradient id="K" cx="0" cy="0" r="1" fx="0" fy="0" gradientTransform="matrix(110.23386 0 0 -110.23384 102.165 410.334)" gradientUnits="userSpaceOnUse" spreadMethod="pad"><stop offset="0" style="stop-opacity:1;stop-color:#fff"/><stop offset="0.522476" style="stop-opacity:1;stop-color:#00aeef"/><stop offset="1" style="stop-opacity:1;stop-color:#16479e"/></radialGradient><radialGradient id="O" cx="0" cy="0" r="1" fx="0" fy="0" gradientTransform="matrix(117.14467 0 0 -117.14465 102.32 414.618)" gradientUnits="userSpaceOnUse" spreadMethod="pad"><stop offset="0" style="stop-opacity:1;stop-color:#fff"/><stop offset="0.522476" style="stop-opacity:1;stop-color:#00aeef"/><stop offset="1" style="stop-opacity:1;stop-color:#16479e"/></radialGradient><radialGradient id="S" cx="0" cy="0" r="1" fx="0" fy="0" gradientTransform="translate(69.152 70.904)" gradientUnits="userSpaceOnUse" spreadMethod="pad"><stop offset="0" style="stop-opacity:1;stop-color:#fff"/><stop offset="0.522476" style="stop-opacity:1;stop-color:#00aeef"/><stop offset="1" style="stop-opacity:1;stop-color:#16479e"/></radialGradient><radialGradient id="W" cx="0" cy="0" r="1" fx="0" fy="0" gradientTransform="translate(87.776 88.916)" gradientUnits="userSpaceOnUse" spreadMethod="pad"><stop offset="0" style="stop-opacity:1;stop-color:#fff"/><stop offset="0.522476" style="stop-opacity:1;stop-color:#a6ce38"/><stop offset="1" style="stop-opacity:1;stop-color:#00854a"/></radialGradient></defs><g clip-path="url(#a)" transform="matrix(2.9426 0 0 -2.9426 -271.852 1386.497)"><g clip-path="url(#b)"><g clip-path="url(#c)"><g clip-path="url(#d)"><path d="M92.403 441.435h98.474v-72.446H92.403Z" style="fill:url(#e);stroke:none"/></g></g></g><g clip-path="url(#f)"><g clip-path="url(#g)"><g clip-path="url(#h)"><path d="M92.341 471.16h93.385V369.001H92.341Z" style="fill:url(#i);stroke:none"/></g></g></g><g clip-path="url(#j)"><g clip-path="url(#k)"><g clip-path="url(#l)"><path d="M120.383 374.485h1.176v-.569h-1.176z" style="fill:url(#m);stroke:none"/></g></g></g><g clip-path="url(#n)"><g clip-path="url(#o)"><g clip-path="url(#p)"><path d="M108.243 383.096h.5v-.458h-.5z" style="fill:url(#q);stroke:none"/></g></g></g><g clip-path="url(#r)"><g clip-path="url(#s)" transform="matrix(117.2175 0 0 -117.21739 -7893 8611.89)"><g clip-path="url(#t)"><path d="M68.255 69.782h.699v.54h-.699z" style="fill:url(#u);stroke:none"/></g></g></g><g clip-path="url(#v)"><g clip-path="url(#w)" transform="matrix(117.14891 0 0 -117.14882 -7893 8611.89)"><g clip-path="url(#x)"><path d="M68.496 70.308h.04v.048h-.04z" style="fill:url(#y);stroke:none"/></g></g></g><g clip-path="url(#z)"><g clip-path="url(#A)"><g clip-path="url(#B)"><path d="M115.122 383.227h1.842v-6.076h-1.842z" style="fill:url(#C);stroke:none"/></g></g></g><g clip-path="url(#D)"><g clip-path="url(#E)"><g clip-path="url(#F)"><path d="M142.561 369.084h.84v-.015h-.84z" style="fill:url(#G);stroke:none"/></g></g></g><g clip-path="url(#H)"><g clip-path="url(#I)"><g clip-path="url(#J)"><path d="M136.018 369.6h.055v-.006h-.055z" style="fill:url(#K);stroke:none"/></g></g></g><g clip-path="url(#L)"><g clip-path="url(#M)"><g clip-path="url(#N)"><path d="M123.487 373.045h.921v-.378h-.921z" style="fill:url(#O);stroke:none"/></g></g></g><g clip-path="url(#P)"><g clip-path="url(#Q)" transform="matrix(115.61978 0 0 -115.61967 -7893 8611.89)"><g clip-path="url(#R)"><path d="M69.322 71.252h.008v.003h-.008z" style="fill:url(#S);stroke:none"/></g></g></g><g clip-path="url(#T)"><g clip-path="url(#U)" transform="matrix(91.76474 0 0 -91.76465 -7893 8611.89)"><g clip-path="url(#V)"><path d="M87.02 88.712H88v1.113h-.98z" style="fill:url(#W);stroke:none"/></g></g></g><g clip-path="url(#X)"><path d="M234.397 425.386v7.311h-7.831v5.806h7.831v6.061c0 .831-.293 1.369-.873 1.599-.341.136-.973.202-1.889.202v3.249h10.041v-24.228zm-10.134-10.41c0-1.536.414-2.756 1.245-3.663.738-.762 1.641-1.149 2.718-1.149 1.069 0 2.009.423 2.811 1.257.797.835 1.193 2.019 1.193 3.555 0 1.499-.414 2.708-1.245 3.603-.768.798-1.69 1.196-2.759 1.196-1.077 0-1.98-.398-2.718-1.196-.831-.895-1.245-2.104-1.245-3.603m-7.23 0c0 3.24 1.164 5.827 3.497 7.756 2.092 1.738 4.655 2.605 7.696 2.605 3.037 0 5.6-.867 7.695-2.605 2.327-1.929 3.497-4.516 3.497-7.756 0-3.277-1.17-5.858-3.497-7.762-2.095-1.735-4.658-2.6-7.695-2.6-3.041 0-5.604.865-7.696 2.6-2.333 1.904-3.497 4.485-3.497 7.762m10.134 11.159c-1.628.136-3.349.768-5.162 1.907-2.088 1.3-3.609 2.905-4.558 4.803h-.321c-.891-1.867-2.397-3.473-4.512-4.803-1.844-1.139-3.567-1.771-5.163-1.907-1.07.867-2.502 2.185-4.283 3.957l-.136.45.363.299c2.155.203 4.168 1.022 6.036 2.458 2.179 1.665 3.485 3.739 3.921 6.208h-7.974v5.61h8.152v1.248c0 .867-.626 1.3-1.889 1.3v2.705h9.448v-5.253h8.152v-5.61h-8.016c.426-2.469 1.75-4.543 3.96-6.208 1.84-1.406 3.851-2.222 6.036-2.458l.23-.749c-.708-.798-2.138-2.116-4.284-3.957M285.845 435.2v-10.616h-7.279v19.977c0 .834-.293 1.366-.873 1.602-.342.166-.967.254-1.889.254v3.249h10.041v-8.611h5.984V435.2Zm-7.279-17.576h-13.589v-6.306l.556-.549h12.48l.484.157.069.441zm-21.14 19.879c0-1.771.433-3.147 1.288-4.129.858-.985 1.886-1.481 3.089-1.481 1.194 0 2.234.496 3.107 1.481.877.982 1.312 2.358 1.312 4.129 0 1.732-.459 3.119-1.381 4.153-.828.934-1.844 1.406-3.038 1.406-1.203 0-2.231-.484-3.089-1.455-.855-.966-1.288-2.333-1.288-4.104m24.362-32.091h-20.124c-1.2 0-2.17.388-2.926 1.173-.749.786-1.127 1.826-1.127 3.132v8.717c0 .822-.308 1.366-.922 1.596-.312.102-.922.151-1.844.151v2.805h30.398l.602-.656v-12.613c0-1.306-.378-2.346-1.128-3.132-.756-.785-1.726-1.173-2.929-1.173m-31.637 32.091c0 3.503 1.206 6.29 3.633 8.364 2.186 1.867 4.855 2.804 8.019 2.804 3.162 0 5.849-.937 8.058-2.804 2.428-2.074 3.639-4.861 3.639-8.364 0-3.503-1.211-6.29-3.639-8.363-2.209-1.869-4.896-2.806-8.058-2.806-3.164 0-5.833.937-8.019 2.806-2.427 2.037-3.633 4.83-3.633 8.363M325.966 446.864v-10.313h2.207v8.563c0 .768-.212 1.266-.648 1.502-.277.169-.797.248-1.559.248m2.207-41.452v25.284h-2.207v-25.284h-6.54v13.614c-1.385-.333-3.507-.502-6.361-.502h-8.106c-3.802 0-5.712 2.038-5.712 6.112v17.123c0 .798-.303 1.318-.922 1.554-.303.129-.916.196-1.838.196v2.757h19.758v-5.659h-9.763v-15.669l.69-.755h7.737c1.904 0 3.41.169 4.517.502v20.429c0 .798-.231 1.318-.69 1.553-.278.13-.834.197-1.662.197v2.805h17.646v-44.257zM379.574 435.2v-11.217h-7.278v20.578c0 .834-.29 1.384-.87 1.65-.339.139-.968.206-1.887.206v3.249h10.035v-8.56h5.985V435.2Zm-26.477.196c0-1.33.272-2.363.822-3.101.556-.734 1.209-1.1 1.982-1.1.762 0 1.433.366 2.007 1.1.569.738.853 1.735.853 3.005 0 1.366-.284 2.418-.828 3.155-.556.732-1.215 1.104-1.983 1.104-.767 0-1.438-.372-2.007-1.104-.568-.737-.846-1.75-.846-3.059m18.969-29.935v11.208l-.278.254H349.04v5.561h29.894l.64-.704v-16.319zm-7.09 34.345a9.457 9.457 0 0 0 1.057-4.41c0-3.067-1.057-5.501-3.179-7.302-1.905-1.641-4.238-2.458-7-2.458-2.757 0-5.103.817-7 2.458-2.117 1.801-3.174 4.235-3.174 7.302 0 1.505.343 2.975 1.057 4.41h-4.606v5.559h9.902v1.348c0 .804-.629 1.203-1.887 1.203v2.457h9.528v-5.008h9.999v-5.559zM422.779 419.328h-6.958c1.052 1.772 1.742 3.939 2.079 6.508.182 1.602.279 3.941.279 7.012v8.158l-.738.702h-23.818v5.606h31.091l.694-.698v-14.318c0-6.078-.876-10.401-2.629-12.97m-33.714-9.061v5.658h9.491v12.32c0 .728-.254 1.2-.738 1.396-.277.136-.809.2-1.614.2v2.705h9.256v-16.621h2.859v12.32c0 .728-.248 1.2-.731 1.396-.284.136-.822.2-1.62.2v2.705h9.261v-16.621h14.786v-5.658zM217.398 380.107c-.323-2.091-1.145-3.717-2.457-4.884-1.239-1.1-2.78-1.644-4.612-1.644-1.028 0-1.977.188-2.848.58a7.018 7.018 0 0 0-2.339 1.681c-.879.949-1.439 2.128-1.671 3.542-.145.847-.218 2.412-.218 4.697 0 2.267.073 3.826.218 4.673.251 1.457.81 2.647 1.671 3.573.704.755 1.478 1.318 2.327 1.698.841.375 1.796.569 2.86.569 1.85 0 3.391-.544 4.612-1.632 1.312-1.161 2.134-2.793 2.457-4.897h-3.808c-.196.882-.544 1.583-1.052 2.08-.556.568-1.288.846-2.185.846-1.028 0-1.826-.363-2.403-1.076-.36-.424-.604-1.04-.741-1.826-.139-.798-.205-2.128-.205-4.008 0-1.952.066-3.301.19-4.032.124-.737.378-1.336.756-1.802.577-.713 1.375-1.075 2.403-1.075.897 0 1.614.266 2.149.798.526.531.892 1.245 1.088 2.139zM231.943 373.748h-3.509v9.231c0 .925-.242 1.62-.723 2.085-.417.387-.942.581-1.568.581-.629 0-1.143-.194-1.541-.581-.481-.465-.729-1.16-.729-2.085v-9.231h-3.503v20.662h3.503v-6.928c.952 1.04 2.08 1.56 3.379 1.56 1.512 0 2.669-.508 3.479-1.511.81-1.004 1.212-2.334 1.212-4.002zM243.819 382.719l-.308 1.559-.904 1.209c-.396.279-.886.424-1.46.424-.578 0-1.061-.145-1.457-.424l-.904-1.209-.308-1.559zm3.454-2.587h-8.795c0-1.004.266-1.814.804-2.437.544-.616 1.3-.924 2.273-.924.716 0 1.306.102 1.762.314l1.418 1.106 2.137-2.23c-.774-.841-1.554-1.44-2.334-1.814-.786-.38-1.789-.575-3.017-.575-1.922 0-3.421.527-4.503 1.567-1.333 1.281-1.995 3.337-1.995 6.183 0 2.425.556 4.311 1.672 5.677 1.115 1.366 2.599 2.043 4.452 2.043 1.904 0 3.421-.688 4.537-2.062 1.058-1.311 1.589-3.04 1.589-5.162zM258.312 381.322c0 .986-.042 1.747-.136 2.28l-.674 1.377c-.414.448-.958.666-1.648.666-.661 0-1.199-.218-1.613-.666-.33-.35-.538-.815-.65-1.408-.106-.586-.163-1.336-.163-2.249 0-1.215.063-2.061.193-2.52l.62-1.16c.414-.449.952-.665 1.613-.665.69 0 1.234.216 1.648.665.33.35.538.815.65 1.402.106.592.16 1.353.16 2.278m3.509 0c0-1.505-.103-2.689-.326-3.536-.212-.852-.638-1.639-1.264-2.357-.489-.563-1.088-1.004-1.807-1.349-.726-.332-1.578-.508-2.57-.508-.97 0-1.813.176-2.538.508-.716.345-1.318.786-1.808 1.349a5.418 5.418 0 0 0-1.248 2.369c-.23.901-.342 2.08-.342 3.524 0 1.493.106 2.666.324 3.513.215.853.637 1.632 1.266 2.352.49.562 1.055.997 1.705 1.305.774.369 1.65.55 2.641.55.974 0 1.859-.181 2.651-.55a5.142 5.142 0 0 0 1.726-1.305 5.451 5.451 0 0 0 1.252-2.365c.229-.894.338-2.067.338-3.5M276.855 373.748h-3.509v9.141c0 .955-.242 1.668-.725 2.151-.414.399-.946.605-1.596.605-.662 0-1.194-.194-1.59-.581-.501-.483-.755-1.209-.755-2.175v-9.141h-3.51v15.125h3.428v-1.391c.916 1.04 2.086 1.56 3.509 1.56.683 0 1.309-.114 1.877-.345a4.117 4.117 0 0 0 1.442-.985 4.945 4.945 0 0 0 1.109-1.904c.215-.707.32-1.505.32-2.4zM288.166 381.728c0 1.22-.124 2.116-.378 2.702-.36.81-1.01 1.215-1.943 1.215-.937 0-1.572-.393-1.914-1.185-.254-.58-.377-1.493-.377-2.732 0-1.602.205-2.678.619-3.216.36-.491.916-.732 1.672-.732.933 0 1.583.406 1.943 1.221.254.581.378 1.493.378 2.727m3.509-7.424c0-1.837-.562-3.349-1.69-4.516-1.121-1.166-2.617-1.759-4.494-1.759-1.134 0-2.086.146-2.859.423-.774.278-1.518.798-2.243 1.554l2.185 2.376c.744-.774 1.659-1.161 2.757-1.161.97 0 1.708.333 2.215.992.414.544.62 1.257.62 2.145v1.542l-1.475-1.167c-.526-.223-1.151-.344-1.874-.344-1.4 0-2.521.447-3.343 1.33a4.646 4.646 0 0 0-1.176 2.309c-.175.882-.254 2.116-.254 3.7 0 1.547.079 2.768.254 3.663a4.655 4.655 0 0 0 1.176 2.321c.822.883 1.949 1.33 3.373 1.33.756 0 1.394-.121 1.913-.362.526-.242 1.028-.654 1.518-1.234v1.421h3.397zM302.741 379.321v.811h-2.781c-1.312 0-1.968-.569-1.968-1.705 0-1.166.675-1.753 2.026-1.753l1.296.133.937.629c.326.326.49.955.49 1.885m3.506-5.573h-3.428v1.306l-1.481-1.118c-.508-.224-1.16-.333-1.971-.333-1.568 0-2.75.435-3.548 1.324-.804.877-1.206 2.019-1.206 3.409 0 1.294.39 2.328 1.164 3.102.846.858 2.061 1.275 3.645 1.275h3.319v.756c0 .834-.206 1.438-.604 1.813-.411.375-1.076.569-2.017.569-.68 0-1.206-.085-1.565-.26l-1.134-.986-2.24 2.345c.686.799 1.394 1.343 2.137 1.645.735.296 1.714.447 2.938.447 3.996 0 5.991-1.777 5.991-5.338zM329.896 373.748h-3.513v9.141c0 .955-.241 1.668-.732 2.151-.411.399-.942.605-1.589.605-.635 0-1.155-.194-1.566-.581-.519-.483-.779-1.172-.779-2.085v-9.231h-3.513v9.141c0 .955-.241 1.668-.725 2.151-.417.399-.943.605-1.596.605-.665 0-1.197-.194-1.59-.581-.508-.483-.756-1.209-.756-2.175v-9.141h-3.506v15.125h3.428v-1.391c.441.497.973.883 1.59 1.156a4.687 4.687 0 0 0 1.91.404c1.626 0 2.865-.635 3.729-1.916 1.131 1.281 2.54 1.916 4.208 1.916.708 0 1.36-.114 1.958-.345a4.08 4.08 0 0 0 1.506-.985 5.476 5.476 0 0 0 1.166-1.934c.243-.708.37-1.493.37-2.37zM353.701 380.107c-.326-2.091-1.148-3.717-2.46-4.884-1.239-1.1-2.781-1.644-4.612-1.644-1.028 0-1.971.188-2.854.58-.871.381-1.644.944-2.328 1.681-.887.949-1.444 2.128-1.674 3.542-.145.847-.217 2.412-.217 4.697 0 2.267.072 3.826.217 4.673.254 1.457.81 2.647 1.674 3.573.696.755 1.47 1.318 2.323 1.698.839.375 1.794.569 2.859.569 1.85 0 3.391-.544 4.612-1.632 1.312-1.161 2.134-2.793 2.46-4.897h-3.808c-.2.882-.556 1.583-1.052 2.08-.556.568-1.294.846-2.189.846-1.027 0-1.825-.363-2.399-1.076-.357-.424-.61-1.04-.744-1.826-.133-.798-.205-2.128-.205-4.008 0-1.952.06-3.301.193-4.032.121-.737.375-1.336.756-1.802.574-.713 1.372-1.075 2.399-1.075.895 0 1.62.266 2.153.798.519.531.888 1.245 1.088 2.139zM364.468 381.322c0 .986-.042 1.747-.14 2.28l-.671 1.377c-.417.448-.961.666-1.65.666-.658 0-1.196-.218-1.62-.666-.321-.35-.532-.815-.641-1.408-.108-.586-.163-1.336-.163-2.249 0-1.215.066-2.061.193-2.52l.611-1.16c.424-.449.962-.665 1.62-.665.689 0 1.233.216 1.65.665.327.35.538.815.648 1.402.108.592.163 1.353.163 2.278m3.511 0c0-1.505-.114-2.689-.326-3.536-.217-.852-.64-1.639-1.269-2.357-.484-.563-1.088-1.004-1.802-1.349-.725-.332-1.583-.508-2.575-.508-.967 0-1.814.176-2.538.508-.714.345-1.319.786-1.802 1.349a5.405 5.405 0 0 0-1.252 2.369c-.229.901-.344 2.08-.344 3.524 0 1.493.109 2.666.326 3.513.218.853.635 1.632 1.27 2.352a5.14 5.14 0 0 0 1.698 1.305c.775.369 1.651.55 2.642.55.973 0 1.862-.181 2.654-.55a5.111 5.111 0 0 0 1.723-1.305 5.515 5.515 0 0 0 1.258-2.365c.223-.894.337-2.067.337-3.5M377.289 373.748h-2.001c-1.348 0-2.388.447-3.125 1.342-.653.786-.979 1.79-.979 2.98v16.34h3.512v-16.104c0-.907.417-1.367 1.24-1.367h1.353zM386.061 373.748h-2.001c-1.348 0-2.388.447-3.125 1.342-.647.786-.98 1.79-.98 2.98v16.34h3.513v-16.104c0-.907.411-1.367 1.245-1.367h1.348zM396.96 382.719l-.302 1.559-.907 1.209c-.398.279-.883.424-1.463.424-.574 0-1.058-.145-1.45-.424l-.907-1.209-.309-1.559zm3.458-2.587h-8.796c0-1.004.267-1.814.811-2.437.538-.616 1.293-.924 2.266-.924.714 0 1.306.102 1.766.314l1.414 1.106 2.141-2.23c-.775-.841-1.561-1.44-2.334-1.814-.787-.38-1.79-.575-3.023-.575-1.923 0-3.422.527-4.504 1.567-1.33 1.281-1.988 3.337-1.988 6.183 0 2.425.556 4.311 1.668 5.677 1.112 1.366 2.599 2.043 4.449 2.043 1.91 0 3.422-.688 4.54-2.062 1.058-1.311 1.59-3.04 1.59-5.162zM411.19 381.728c0 1.22-.127 2.116-.38 2.702-.357.81-1.01 1.215-1.941 1.215-.937 0-1.572-.393-1.916-1.185-.254-.58-.381-1.493-.381-2.732 0-1.602.205-2.678.622-3.216.357-.491.913-.732 1.675-.732.931 0 1.584.406 1.941 1.221.253.581.38 1.493.38 2.727m3.506-7.424c0-1.837-.561-3.349-1.692-4.516-1.118-1.166-2.611-1.759-4.491-1.759-1.131 0-2.086.146-2.86.423-.774.278-1.517.798-2.237 1.554l2.183 2.376c.743-.774 1.656-1.161 2.751-1.161.972 0 1.71.333 2.217.992.418.544.623 1.257.623 2.145v1.542l-1.474-1.167c-.527-.223-1.15-.344-1.874-.344-1.403 0-2.522.447-3.35 1.33a4.65 4.65 0 0 0-1.173 2.309c-.169.882-.254 2.116-.254 3.7 0 1.547.085 2.768.254 3.663.17.882.563 1.663 1.173 2.321.828.883 1.953 1.33 3.373 1.33.762 0 1.397-.121 1.917-.362.526-.242 1.028-.654 1.517-1.234v1.421h3.397zM426.738 382.719l-.314 1.559-.906 1.209c-.394.279-.883.424-1.457.424-.575 0-1.058-.145-1.457-.424l-.901-1.209-.308-1.559zm3.447-2.587h-8.79c0-1.004.265-1.814.803-2.437.544-.616 1.3-.924 2.268-.924.725 0 1.305.102 1.764.314l1.421 1.106 2.134-2.23c-.773-.841-1.554-1.44-2.34-1.814-.779-.38-1.783-.575-3.004-.575-1.928 0-3.427.527-4.509 1.567-1.33 1.281-1.995 3.337-1.995 6.183 0 2.425.556 4.311 1.668 5.677 1.119 1.366 2.606 2.043 4.456 2.043 1.904 0 3.421-.688 4.54-2.062 1.051-1.311 1.584-3.04 1.584-5.162z" style="fill:#567483;fill-opacity:1;fill-rule:nonzero;stroke:none"/></g></g></svg>