<svg xmlns="http://www.w3.org/2000/svg" width="191.80426mm" height="191.80426mm" viewBox="0 0 191.80426 191.80426"><g transform="translate(4.257 3.531)"><circle cx="91.645096" cy="92.370987" r="95.64579" style="fill:#f9f9f9;fill-rule:evenodd;stroke:#fff;stroke-width:.512675"/><path d="M308.063 164.992c-16.188-.02-29.325 13.086-29.344 29.274-.02 16.183 13.086 29.32 29.273 29.34 16.184.023 29.32-13.086 29.344-29.27.016-16.188-13.09-29.324-29.274-29.344zm-.06 49.418c-11.108-.015-20.1-9.027-20.085-20.137.012-11.101 9.027-20.097 20.133-20.082 11.105.016 20.097 9.032 20.082 20.133-.012 11.106-9.028 20.098-20.13 20.086" style="fill:#0051a6;fill-opacity:1;fill-rule:nonzero;stroke:none" transform="matrix(3.11472 0 0 3.11472 -868.132 -513.905)"/><path d="M315.05 185.098a3.798 3.798 0 0 0 3.192-3.746 3.817 3.817 0 0 0-7.633 0c0 .085.012.156.02.234h-.016l.028 9.406.011.004v.024c2.188.996 3.66 3.207 3.66 5.773 0 3.5-2.82 6.336-6.304 6.336-3.485 0-6.305-2.836-6.305-6.336a6.33 6.33 0 0 1 3.152-5.48l.461-.239c.055-.03.114-.062.172-.09l-.011-5.187.008-4.211h-.008c.004-.078.011-.148.011-.234a3.816 3.816 0 0 0-3.816-3.813 3.813 3.813 0 0 0-3.817 3.813 3.816 3.816 0 0 0 2.993 3.722l-8.73 6.465 6.792 18.86h18.203l6.836-18.778-8.898-6.523" style="fill:#0051a6;fill-opacity:1;fill-rule:nonzero;stroke:none" transform="matrix(3.11472 0 0 3.11472 -868.132 -513.905)"/><path d="m285.906 193.473-3.672-.278.543 1.075-.87-.067c-.278-.683-.63-1.238-1.079-1.656l.031-.363 5.118.386-.07.903M286.156 191.328l-.64.293c-.149-.781-.473-1.418-.977-1.89.02.167-.016.363-.086.597-.156.445-.422.762-.797.945-.375.184-.808.192-1.293.028-.48-.16-.82-.43-1.023-.813a1.51 1.51 0 0 1-.086-1.215c.383-1.12 1.277-1.445 2.7-.968.593.195 1.12.613 1.577 1.246.457.633.668 1.226.625 1.777zm-3.527-.91c.27.09.504.098.703.023.2-.074.332-.21.398-.406.168-.488-.027-.828-.578-1.012-.597-.199-.976-.05-1.148.45-.066.199-.05.386.066.554.11.172.293.301.559.39M286.629 188.605l-.25-.085-1.723-2.29c-.344-.46-.672-.742-.976-.851-.368-.121-.625.031-.774.469-.113.328-.035.66.246.984l-.652.418a1.587 1.587 0 0 1-.336-1.621c.168-.492.422-.84.738-1.043.32-.195.684-.23 1.082-.094.368.13.758.461 1.188 1.008l1.164 1.504.625-1.813.762.27-1.094 3.145M287.996 182.047l1.152.68-.445.742-1.152-.672-1.18 1.98-.45-.261-1.394-4.055.203-.344 2.653 1.559.262-.438.617.364zm-2.379-.395.653 1.887.66-1.11zM330.055 192.895l-.137-.977c1.21.21 2.723.656 4.527 1.34l-.32-2.313.828-.12.492 3.48-.383.058-.925-.336a31.144 31.144 0 0 0-1.024-.343 31.077 31.077 0 0 0-2.175-.614 16.67 16.67 0 0 0-.883-.175M328.102 178.648a1 1 0 0 1-1 .989.994.994 0 0 1-.997-.989c0-.546.446-.992.997-.992a1 1 0 0 1 1 .992M290.2 178.332c0 .55-.442.988-1 .988a.99.99 0 0 1 0-1.98c.558 0 1 .445 1 .992M327.16 183.273l3.207-1.8-1.055-.59.762-.43c.61.418 1.215.68 1.82.785l.18.317-4.469 2.507-.445-.789M328.328 185.762l.242-.657c.66.458 1.34.676 2.035.665-.132-.106-.25-.274-.355-.493-.21-.422-.246-.832-.11-1.222.141-.395.438-.7.895-.926.457-.223.895-.266 1.309-.137.414.13.719.395.922.801.52 1.062.109 1.922-1.239 2.578-.554.274-1.222.348-2 .215-.773-.125-1.34-.406-1.699-.824zm3.149-1.82c-.258.128-.43.285-.516.472a.624.624 0 0 0 .004.57c.227.465.605.57 1.129.313.558-.274.726-.649.5-1.117-.102-.196-.238-.313-.445-.356-.2-.047-.422-.004-.672.117M331.137 190.441l-1.313.254-.168-.855 1.313-.254-.45-2.266.508-.097 3.758 2.097.07.39-3.015.59.101.505-.707.14zm2.039-1.289-1.75-.976.254 1.27zM312.777 169.27a1.601 1.601 0 0 0 1.688 1.503 1.596 1.596 0 0 0 1.496-1.691.273.273 0 0 0-.016-.098l.403.137.265-.781-1.226-.43.187-.539-1.004-.348-.183.54-1.313-.458-.273.782.445.156a1.618 1.618 0 0 0-.469 1.226zm1.563-.778a.677.677 0 0 1 .71.63.667.667 0 0 1-.628.706.664.664 0 0 1-.707-.629.665.665 0 0 1 .625-.707M318.371 170.54l.649.226.285-.84-.645-.219.25-.723-.902-.316-.98 2.844.902.308.441-1.28M316.055 174.441l.89.313.82-2.356-5.648-1.964-.277.816 4.746 1.652-.531 1.54M309.418 168.66l.492.016-.117 4.02.965.03.187-5.992-.968-.03-.04 1.144-.492-.016.035-1.144-.968-.028-.188 5.988.969.028.125-4.016M307.566 169.223l-1.98.086-.07-1.664 1.98-.086-.039-.903-2.937.125.144 3.473 2.941-.125-.039-.906M298.504 169.285l-1.29 1.813.942.144 1.551-2.34 2.617.903.727-.703-2.207-.594 1.707-.567-.278-.836-5.761 1.91.273.837 1.719-.567M297.82 173.328l2.559-.879.52 1.52.945-.324-.52-1.52 2.496-.863-.28-.836-5.997 2.066.277.836M290.145 174.328l.777-.539.05 1.527.876-.144-.082-1.965 1.882.754.399-.832-1.367-.563.722-.504-.488-.707-1.215.844-.304-.465-.825.559.317.477-1.227.851.485.707M297.246 175.402a1.585 1.585 0 0 0-1.176-1.918 1.602 1.602 0 0 0-1.922 1.188c-.203.86.32 1.719 1.18 1.918a1.596 1.596 0 0 0 1.918-1.188zm-2.187-.52a.664.664 0 0 1 .796-.491.662.662 0 0 1 .485.797.658.658 0 1 1-1.281-.305M293.621 171.71l.496.72.754-.532.676.973.789-.547-1.64-2.375-.794.555.473.68-.754.527M318.344 173.781l-.504.711 5.168 3.66.5-.718-1.41-1 .882-1.282-.832-.578-.878 1.278-1.165-.825.887-1.285-.832-.578-.883 1.277-.933-.66M320.656 170.758l4.086 2.894-1.34 1.907.77.546 1.848-2.644-4.852-3.438-.512.735M281.71 199.82s-.07-1.398 1.81-1.757c0 0 1.84-.333 2.156.917 0 0 .078.504-.188.739l1.114-.215s.187-.844-.485-1.613c0 0-.945-1.024-2.664-.758 0 0-1.683.246-2.32 1.472 0 0-.707.957.07 2.278l1.094-.285s-.469-.239-.586-.778M287.602 202.398l-2.012.805c-.047-.121-.516-1.289-.563-1.406.13-.05 2.012-.805 2.012-.805l-.332-.832-5.266 2.106.336.832s2.176-.871 2.309-.922c.043.117.512 1.285.559 1.402-.13.055-2.305.926-2.305.926l.328.82 5.262-2.101-.328-.825M288.188 203.895l-.067.035-4.887 2.718 1.36 2.442.89-.496s-.859-1.54-.921-1.656c.113-.067 1.199-.668 1.316-.735l.656 1.184.856-.477s-.594-1.066-.657-1.183c.106-.059.891-.493 1-.555.067.117.918 1.656.918 1.656l.895-.492-1.36-2.441M290.871 207.918c-.351-.45-.863-.637-1.516-.555-.64.078-1.28.364-1.91.856-.71.558-1.191 1.129-1.414 1.695-.09.227-.136.441-.136.652 0 .329.113.637.335.918.391.5.915.723 1.555.66.63-.058 1.305-.37 2.012-.925.707-.555 1.164-1.121 1.355-1.688.2-.578.106-1.117-.28-1.613zm-1.64 2.578c-.504.399-.954.625-1.333.684-.367.054-.652-.051-.867-.325-.176-.226-.183-.496-.02-.82.169-.336.505-.707 1-1.094.454-.355.872-.574 1.247-.644.355-.07.625.012.812.25.422.539.149 1.176-.84 1.95M294.016 211.266l-2.07 2.343c.085-.457.675-3.574.675-3.574l-.355-.312-.047.054-3.7 4.196.649.574s1.82-2.067 2.129-2.414l-.742 3.734.312.274 3.797-4.305-.648-.57M295.457 215.352l-.516.84s.403.246.496.308c-.066.105-.484.785-.511.832a.759.759 0 0 1-.625-.094c-.32-.199-.485-.488-.5-.886-.016-.407.129-.856.426-1.34.312-.516.668-.864 1.046-1.043.375-.18.72-.164 1.051.039.102.062.2.18.297.351.098.172.156.325.176.45l.02.117.812-.606-.012-.043c-.086-.5-.336-.878-.746-1.128-.566-.352-1.176-.395-1.8-.137-.618.262-1.157.762-1.61 1.496-.453.73-.668 1.43-.637 2.066.027.649.313 1.145.844 1.473.242.148.52.25.82.309.301.058.59.05.852-.024l.027-.008 1.356-2.195-1.266-.778M299.855 214.723l-.027.066-1.336 3.188c-.156.382-.324.648-.484.793-.153.132-.32.16-.524.078-.285-.121-.386-.313-.328-.598l.012-.063-.742-.308-.028.074c-.148.414-.168.785-.058 1.102.113.32.34.558.676.699.507.21.953.195 1.328-.055.367-.242.695-.715.984-1.402l1.356-3.227-.829-.347M302.625 219.531c-.07.285-.195.5-.371.625-.176.133-.375.164-.617.106a.594.594 0 0 1-.434-.364c-.082-.195-.09-.433-.023-.707l.906-3.699-.867-.215-.02.075-.902 3.68c-.145.585-.121 1.073.066 1.456.196.387.54.645 1.035.766.489.117.926.05 1.297-.203.371-.254.633-.668.77-1.235l.926-3.761-.864-.211-.902 3.687M309.934 216.266l-.817.011.067 3.793c.004.297-.063.535-.196.707-.136.164-.324.25-.574.254a.598.598 0 0 1-.512-.238c-.129-.172-.199-.398-.203-.676l-.066-3.812-.895.011.067 3.871c.008.602.16 1.067.437 1.387.281.324.688.485 1.195.477.5-.012.91-.184 1.208-.528.292-.336.437-.804.425-1.386l-.062-3.871h-.074M313.637 215.617l-.774.149.586 3.074-2.414-2.73-.46.09 1.062 5.57.847-.165-.601-3.16c.312.36 2.5 2.871 2.5 2.871l.402-.078-1.07-5.636-.078.015M315.375 215.102l-.79.253 1.747 5.391.855-.273-1.746-5.395-.066.024M319.422 213.2l-.766.382.692 3.578c-.317-.36-2.38-2.738-2.38-2.738l-.874.43 3.992 4.43.469-.231-1.043-5.895-.09.043M323.313 216.129c-.079-.106-.81-1.113-.883-1.219.105-.078 1.093-.793 1.093-.793l-.574-.793-1.094.793a140.21 140.21 0 0 1-.671-.926c.109-.082 1.539-1.113 1.539-1.113l-.602-.824-.059.043-2.207 1.594 3.329 4.59 2.261-1.641-.597-.824s-1.426 1.03-1.536 1.113M326.445 211.145c0-.149-.02-.301-.066-.458a1.976 1.976 0 0 0-.5-.82c-.402-.394-.809-.594-1.215-.594-.394.004-.789.204-1.176.594l-.457.512-.367.41.047.05 3.977 3.93.652-.66s-1.535-1.511-1.637-1.617l.262-.234c.074.027 2.406.805 2.406.805l.723-.735s-2.578-.84-2.692-.879c.024-.097.043-.199.043-.304zm-2.43-.32.118-.137c.219-.227.422-.356.59-.387.16-.031.324.039.504.215.203.199.304.379.304.53 0 .013-.004.024-.004.036-.015.168-.129.36-.336.566 0 0-.117.102-.18.16-.085-.085-.913-.898-.995-.984M330.012 208.508a2.41 2.41 0 0 0-.625-.328 1.676 1.676 0 0 0-.63-.086c-.202.011-.464.082-.78.207-.563.222-.965.25-1.196.078a.625.625 0 0 1-.265-.344.404.404 0 0 1 .074-.363c.156-.219.406-.363.734-.426l.125-.023-.656-.801-.043.004c-.344.047-.664.273-.961.68-.23.32-.297.671-.2 1.05.09.371.317.692.68.95.192.136.383.238.579.3.191.067.382.098.57.082.184-.011.457-.082.824-.222.352-.133.621-.192.809-.176a.92.92 0 0 1 .488.172c.297.21.32.46.094.777-.16.219-.418.367-.79.445l-.113.024.649.867.047-.016c.414-.105.746-.324.98-.648.278-.387.375-.785.293-1.187-.086-.403-.312-.747-.687-1.016M327.441 204.77l-.402.714 4.945 2.774.438-.781-4.942-2.774-.039.067M330.063 201.184l-.946-.38-.027.067-1.32 3.285.945.383s.445-1.117.5-1.238c.129.054 4.308 1.734 4.308 1.734l.332-.824-4.316-1.734c.055-.122.523-1.293.523-1.293M332.977 198.754c-.028-.016-3-2.063-3-2.063l-.024.11-.164.824 2.016 1.355c-.297.06-2.375.493-2.375.493l-.188.933 3.578-.785c0 .008 2.196.438 2.196.438l.066.015.176-.87s-2.25-.442-2.281-.45" style="fill:#fff;fill-opacity:1;fill-rule:nonzero;stroke:none" transform="matrix(3.11472 0 0 3.11472 -868.132 -513.905)"/></g></svg>