<svg xmlns="http://www.w3.org/2000/svg" width="181.01207mm" height="149.07803mm" viewBox="0 0 181.01207 149.07803"><path d="m337.02 354.1 102.253-84.214L541.527 354.1l-102.254 84.214L337.02 354.1" style="fill:#33b540;fill-opacity:1;fill-rule:nonzero;stroke:none;stroke-width:.1" transform="matrix(.88511 0 0 -.88511 -298.301 387.958)"/><path d="m337.02 354.1 102.253-84.214L541.527 354.1l-102.254 84.214S414.177 375.827 337.02 354.1" style="fill:#2056ae;fill-opacity:1;fill-rule:nonzero;stroke:none;stroke-width:.1" transform="matrix(.88511 0 0 -.88511 -298.301 387.958)"/><path d="M337.043 354.095s59.445-10.735 93.675 45.351c0 0-33.669-42.564-93.675-45.351" style="fill:#bdbcbc;fill-opacity:1;fill-rule:nonzero;stroke:none;stroke-width:.1" transform="matrix(.88511 0 0 -.88511 -298.301 387.958)"/><path d="M421.189 355.522c-.255 1.476-1.529 5.955-7.329 5.955-6.561 0-8.662-5.673-8.662-11.118 0-5.443 2.101-11.115 8.662-11.115 4.717 0 6.565 2.947 7.394 6.751h13.764c0-8.168-7.455-16.846-20.772-16.846-14.721 0-23.066 9.244-23.066 21.21 0 12.762 9.049 21.213 23.066 21.213 12.488-.058 19.369-5.898 20.578-16.05h-13.635M485.116 370.707h5.646V344.93c0-8.234 6.44-11.827 12.497-11.827 6.318 0 12.822 3.996 12.822 12.317v25.287h5.319v-25.533c0-6.267-4.403-16.704-18.141-16.704-14.271 0-18.143 9.755-18.143 15.899v26.338" style="fill:#bdbcbc;fill-opacity:1;fill-rule:nonzero;stroke:none;stroke-width:.1" transform="matrix(.88511 0 0 -.88511 -298.301 387.958)"/><path d="M431.201 370.707H440l6.347-27.945 6.099 27.945h11.064l6.456-27.945 6.913 27.945h8.237l-10.561-40.924h-9.341l-7.103 30.331-7.01-30.331h-9.342l-10.558 40.924" style="fill:#bdbcbc;fill-opacity:1;fill-rule:nonzero;stroke:none;stroke-width:.1" transform="matrix(.88511 0 0 -.88511 -298.301 387.958)"/></svg>