<svg xmlns="http://www.w3.org/2000/svg" width="177.42143mm" height="134.88034mm" viewBox="0 0 177.42143 134.88034"><path d="M.92 117.098h1.082v-1.763H.921a2.62 2.62 0 1 0 0 5.24h1.081v-1.763H.921a.857.857 0 1 1 0-1.714" style="fill:#549cbd;fill-opacity:1;fill-rule:nonzero;stroke:none;stroke-width:.352778" transform="matrix(9.2069 0 0 9.2069 123.106 -1061.882)"/><path d="M3.142 120.575h-1.14v1.855h1.14c.499 0 .903.403.904.9a.906.906 0 0 1-.904.905h-1.14v1.855h1.14a2.758 2.758 0 0 0 0-5.515" style="fill:#ee3323;fill-opacity:1;fill-rule:nonzero;stroke:none;stroke-width:.352778" transform="matrix(9.2069 0 0 9.2069 123.106 -1061.882)"/><path d="M.147 126.09v1.138a.902.902 0 1 1-1.803 0v-1.138h-1.857v1.138a2.758 2.758 0 0 0 5.515 0v-1.138" style="fill:#9c8c85;fill-opacity:1;fill-rule:nonzero;stroke:none;stroke-width:.352778" transform="matrix(9.2069 0 0 9.2069 123.106 -1061.882)"/><path d="M-9.26 121.553v-.3h-1.106a.163.163 0 0 0-.162.16v.928c0 .089.073.16.161.16h.535c.228 0 .782-.038 1-.081v.25h.358v-.639h.39v-.301h-.39v-.629h-.358v1.035c-.28.04-.699.07-.95.073h-.385v-.656" style="fill:#706e73;fill-opacity:1;fill-rule:nonzero;stroke:none;stroke-width:.352778" transform="matrix(9.2069 0 0 9.2069 123.106 -1061.882)"/><path d="M-9.201 123.646a.352.352 0 0 1-.363-.351c0-.2.162-.35.363-.35.202 0 .376.15.376.35 0 .201-.174.351-.376.351m.01-1c-.425 0-.727.29-.727.649 0 .36.302.65.728.65.428 0 .726-.29.726-.65 0-.358-.298-.65-.726-.65M-7.685 121.388v1.484a.16.16 0 0 0 .158.158h.405c.188 0 .436-.02.593-.086v.83h.357v-1.375h.24v1.438h.356V121.1h-.356v.972h-.24v-.904h-.357v1.495a1.647 1.647 0 0 1-.553.074h-.25v-1.207h.574v-.304h-.765a.162.162 0 0 0-.162.16M-.854 122.16h-.337v1.014h-.304v-1.015h-.336v1.015h-.561v.299h2.54v-.3H-.853" style="fill:#706e73;fill-opacity:1;fill-rule:nonzero;stroke:none;stroke-width:.352778" transform="matrix(9.2069 0 0 9.2069 123.106 -1061.882)"/><path d="M-.644 122.836h.328c.089-.282.123-.613.123-.912v-.51a.163.163 0 0 0-.163-.161H-2.07v.307H-.52v.364c0 .299-.034.63-.124.912M-2.559 121.73h-.389v-.629h-.357v1.574h.357v-.644h.389M-2.948 123.837v-1.015h-1.65v.29h1.29v.725M-4.317 122.296a.327.327 0 0 1-.332-.33c0-.188.147-.33.332-.33.186 0 .346.142.346.33 0 .188-.16.33-.346.33m-.684-.33c0 .352.288.636.693.636.41 0 .693-.284.693-.637a.612.612 0 0 0-.137-.382h.246v-.28h-.628v-.291h-.352v.292h-.628v.28h.252a.613.613 0 0 0-.139.381M-13.07 121.56h1.941v-.307h-1.942zm0 0" style="fill:#706e73;fill-opacity:1;fill-rule:nonzero;stroke:none;stroke-width:.352778" transform="matrix(9.2069 0 0 9.2069 123.106 -1061.882)"/><path d="M-12.276 121.304h.352v-.292h-.352zm0 0" style="fill:#706e73;fill-opacity:1;fill-rule:nonzero;stroke:none;stroke-width:.352778" transform="matrix(9.2069 0 0 9.2069 123.106 -1061.882)"/><path d="M-11.924 121.513v-.23h-.352v.23c0 .345-.263.61-.905.76l.103.28c.48-.086.837-.31.979-.544.139.233.497.458.977.543l.103-.28c-.64-.148-.905-.414-.905-.759" style="fill:#706e73;fill-opacity:1;fill-rule:nonzero;stroke:none;stroke-width:.352778" transform="matrix(9.2069 0 0 9.2069 123.106 -1061.882)"/><path d="M-12.276 123.33h.352v-.786h-.352zm0 0" style="fill:#706e73;fill-opacity:1;fill-rule:nonzero;stroke:none;stroke-width:.352778" transform="matrix(9.2069 0 0 9.2069 123.106 -1061.882)"/><path d="M-13.371 123.525h2.541v-.298h-2.541zM-12.874 125.332a.274.274 0 0 1-.213-.086.342.342 0 0 1-.079-.238c0-.103.025-.183.073-.24a.253.253 0 0 1 .204-.084c.07 0 .157.02.262.055l.01.004v-.157l-.006-.001a1.224 1.224 0 0 0-.282-.033.478.478 0 0 0-.345.118.459.459 0 0 0-.121.34c0 .146.04.257.121.34.08.08.193.121.335.121a.74.74 0 0 0 .3-.056l.006-.001v-.15l-.011.003a.546.546 0 0 1-.254.065M-11.934 124.922h-.34v-.35h-.194v.877h.194v-.393h.34v.393h.194v-.877h-.194M-10.977 125.249a.202.202 0 0 1-.175.087.197.197 0 0 1-.17-.088.387.387 0 0 1-.066-.237c0-.101.022-.18.066-.239a.205.205 0 0 1 .172-.087c.072 0 .128.03.173.087.044.06.066.138.066.237a.387.387 0 0 1-.066.24m.151-.573a.43.43 0 0 0-.324-.124.43.43 0 0 0-.324.124.464.464 0 0 0-.12.335c0 .139.04.25.12.333.079.084.186.127.319.127a.441.441 0 0 0 .33-.124.466.466 0 0 0 .119-.338.46.46 0 0 0-.12-.333M-10.035 125.235c-.044.05-.111.076-.204.076h-.127v-.605h.101c.068 0 .12.008.154.022a.2.2 0 0 1 .09.074c.036.054.054.12.054.202 0 .104-.024.182-.068.231m.164-.554c-.072-.071-.176-.109-.311-.109h-.378v.877h.361c.138 0 .245-.04.323-.12.077-.08.114-.193.114-.336 0-.134-.036-.239-.109-.312M-9.427 125.09l.122-.314.122.313zm.244-.516h-.19l-.34.875h.147l.088-.23h.346l.09.23h.2M-8.184 125.143l-.386-.57h-.17v.876h.159v-.57l.384.57h.173v-.875h-.16M-7.317 125.042v.286a.4.4 0 0 1-.064.007.277.277 0 0 1-.215-.086.34.34 0 0 1-.077-.237c0-.106.025-.186.073-.242.048-.057.116-.084.205-.086.068 0 .155.02.262.057l.01.003v-.157l-.006-.001a1.224 1.224 0 0 0-.282-.033c-.149 0-.263.038-.346.118-.081.08-.121.194-.121.34 0 .146.04.26.121.34a.48.48 0 0 0 .349.12c.078 0 .172-.015.28-.042l.006-.001v-.385M-6.547 124.574h.182v.536c0 .098.016.161.048.193a.177.177 0 0 0 .128.047.165.165 0 0 0 .124-.047c.03-.03.046-.09.046-.18v-.55h.158v.538c0 .1-.012.174-.037.218a.27.27 0 0 1-.112.103.391.391 0 0 1-.182.039.455.455 0 0 1-.187-.036.276.276 0 0 1-.123-.105.414.414 0 0 1-.045-.221M-5.702 125.449v-.875h.16l.406.596v-.596h.146v.875h-.164l-.402-.598v.598M-4.823 125.449v-.875h.182v.875zM-4.246 125.449l-.324-.875h.195l.25.676.244-.676h.13l-.313.875M-3.682 125.449v-.875h.56v.12h-.377v.244h.312v.12H-3.5v.267h.407v.124M-2.836 124.97h.043c.074 0 .127-.016.155-.049a.165.165 0 0 0 .043-.11.109.109 0 0 0-.036-.086c-.023-.022-.07-.031-.142-.031h-.063zm-.17.479v-.875h.326c.067 0 .118.008.153.025a.186.186 0 0 1 .084.075.22.22 0 0 1 .03.116c0 .051-.015.1-.044.145a.284.284 0 0 1-.125.105l.286.409h-.222l-.217-.358h-.101v.358M-2.283 125.44v-.15a.535.535 0 0 0 .247.059c.05 0 .089-.01.114-.033a.112.112 0 0 0 .038-.082.112.112 0 0 0-.022-.067.36.36 0 0 0-.103-.075l-.06-.032a.542.542 0 0 1-.17-.131.221.221 0 0 1-.046-.138c0-.066.025-.122.076-.17a.307.307 0 0 1 .216-.07c.07 0 .15.01.239.03v.141a.635.635 0 0 0-.215-.05.156.156 0 0 0-.1.028.085.085 0 0 0-.035.07c0 .018.007.04.02.056a.378.378 0 0 0 .102.073l.065.035c.097.054.157.101.185.141.026.04.038.085.038.135a.237.237 0 0 1-.08.183c-.056.051-.143.078-.263.078a1.27 1.27 0 0 1-.246-.03M-1.6 125.449h.183v-.875H-1.6zM-1.032 125.449v-.755h-.314v-.12h.809v.12H-.85v.755" style="fill:#706e73;fill-opacity:1;fill-rule:nonzero;stroke:none;stroke-width:.352778" transform="matrix(9.2069 0 0 9.2069 123.106 -1061.882)"/><path d="M-.339 125.449v-.367l-.295-.508h.203l.212.37.223-.37H.15l-.306.507v.368" style="fill:#706e73;fill-opacity:1;fill-rule:nonzero;stroke:none;stroke-width:.352778" transform="matrix(9.2069 0 0 9.2069 123.106 -1061.882)"/></svg>