<svg xmlns="http://www.w3.org/2000/svg" xml:space="preserve" width="188.976" height="188.97733" viewBox="0 0 188.976 188.97733"><path d="M0 0c0-38.65-31.332-69.982-69.982-69.982-38.651 0-69.983 31.332-69.983 69.982s31.332 69.982 69.983 69.982C-31.332 69.982 0 38.65 0 0" style="fill:#fff;fill-opacity:1;fill-rule:nonzero;stroke:none" transform="matrix(1.33333 0 0 -1.33333 187.798 94.489)"/><path d="M0 0c0-27.722-22.474-50.196-50.196-50.196-27.723 0-50.197 22.474-50.197 50.196s22.474 50.196 50.197 50.196C-22.474 50.196 0 27.722 0 0" style="fill:#1c2451;fill-opacity:1;fill-rule:nonzero;stroke:none" transform="matrix(1.33333 0 0 -1.33333 161.416 94.488)"/><path d="M0 0c0-27.723-22.474-50.196-50.196-50.196-27.723 0-50.197 22.473-50.197 50.196s22.474 50.196 50.197 50.196C-22.474 50.196 0 27.723 0 0" style="fill:#1c2451;fill-opacity:1;fill-rule:nonzero;stroke:none" transform="matrix(1.33333 0 0 -1.33333 161.416 94.489)"/><path d="M0 0c-38.447 0-69.725-31.279-69.725-69.725 0-38.447 31.278-69.726 69.725-69.726s69.725 31.279 69.725 69.726C69.725-31.279 38.447 0 0 0m0-140.592c-9.567 0-18.847 1.874-27.584 5.57a70.8 70.8 0 0 0-12.038 6.534 71.3 71.3 0 0 0-10.488 8.653A70.927 70.927 0 0 0-65.297-97.31c-3.695 8.737-5.569 18.018-5.569 27.585s1.874 18.847 5.569 27.584A70.9 70.9 0 0 0-50.11-19.615 70.921 70.921 0 0 0-27.584-4.428C-18.847-.733-9.567 1.141 0 1.141S18.847-.733 27.585-4.428A71 71 0 0 0 50.11-19.615a70.927 70.927 0 0 0 15.187-22.526c3.695-8.737 5.569-18.018 5.569-27.584 0-9.567-1.874-18.848-5.569-27.585a70.9 70.9 0 0 0-15.187-22.525 71.3 71.3 0 0 0-10.488-8.653 71 71 0 0 0-12.037-6.534c-8.738-3.696-18.018-5.57-27.585-5.57" style="fill:#1c2451;fill-opacity:1;fill-rule:nonzero;stroke:none" transform="matrix(1.33333 0 0 -1.33333 94.488 1.521)"/><path d="m0 0-1.246 4.152-4.721-1.417-.533 1.778L4.039 7.675 4.4 6.47a.597.597 0 0 0-.401-.744L.304 4.617 1.549.465l4.269 1.281.361-1.205a.6.6 0 0 0-.401-.745l-9.966-2.99-.533 1.777z" style="fill:#1c2451;fill-opacity:1;fill-rule:nonzero;stroke:none" transform="matrix(1.33333 0 0 -1.33333 17.707 120.247)"/><path d="m0 0 1.096-1.394a.6.6 0 0 0 .077-.61l-2.895-6.597a12 12 0 0 0-.374-.746 5.3 5.3 0 0 0-.581-.853l6.61 5.197.706-.898a.6.6 0 0 0-.101-.84l-8.18-6.43-1.317 1.675 3.042 6.946q.162.387.391.787.228.4.538.773l-6.587-5.178L-8.65-6.8Z" style="fill:#1c2451;fill-opacity:1;fill-rule:nonzero;stroke:none" transform="matrix(1.33333 0 0 -1.33333 33.993 135.401)"/><path d="M0 0q.69-.62 1.187-1.435.495-.814.641-1.868L.084-3.747q-.075.784-.428 1.389-.354.605-.839 1.041a4 4 0 0 1-.927.638q-.476.231-.999.2-.525-.031-1.125-.385-.6-.353-1.303-1.137l-.755-.84q-.601-.67-.853-1.275a2.7 2.7 0 0 1-.225-1.152 2.2 2.2 0 0 1 .307-1.024 3.8 3.8 0 0 1 .757-.905q.377-.339.73-.553.352-.215.757-.352l1.764 1.965-1.629 1.463 1.09 1.214 2.554-2.293a.6.6 0 0 0 .046-.844l-3.179-3.541q-.423.05-.873.2a6 6 0 0 0-.889.377 9 9 0 0 0-.856.512 7 7 0 0 0-.763.593 6.3 6.3 0 0 0-1.202 1.428 3.9 3.9 0 0 0-.55 1.601 3.84 3.84 0 0 0 .225 1.726q.316.885 1.143 1.804l1.315 1.465q.826.92 1.682 1.352.854.432 1.706.457a3.8 3.8 0 0 0 1.671-.342A6 6 0 0 0 0 0" style="fill:#1c2451;fill-opacity:1;fill-rule:nonzero;stroke:none" transform="matrix(1.33333 0 0 -1.33333 47.441 149.817)"/><path d="M0 0q.852-.524 1.43-.441.58.083.875.564l.088.143q.352.571.123 1.098-.23.527-.883 1.179-.477.472-.95.961a4.1 4.1 0 0 0-.749 1.051 2.6 2.6 0 0 0-.258 1.226q.016.662.519 1.481l.104.169q.264.43.708.791a2.8 2.8 0 0 0 1.055.525q.61.162 1.378.04.767-.123 1.668-.678a7 7 0 0 0 1.32-1.036 5 5 0 0 0 .979-1.453l-1.533-.831q-.32.699-.72 1.098a5 5 0 0 1-.933.725q-.42.259-.792.345a1.9 1.9 0 0 1-.68.042 1.35 1.35 0 0 1-.527-.178 1 1 0 0 1-.339-.329l-.096-.156q-.208-.338-.181-.641t.202-.599.475-.597.639-.635q.678-.668 1.052-1.265.372-.597.492-1.136A2.4 2.4 0 0 0 4.475.427a3.2 3.2 0 0 0-.405-.978L3.966-.72q-.48-.78-1.069-1.143a2.63 2.63 0 0 0-1.243-.4 3.5 3.5 0 0 0-1.329.191A6.46 6.46 0 0 0-2.617-.021a5.4 5.4 0 0 0-.547.812q-.228.418-.352.799l1.581.854q.184-.614.658-1.282T0 0" style="fill:#1c2451;fill-opacity:1;fill-rule:nonzero;stroke:none" transform="matrix(1.33333 0 0 -1.33333 50.694 167.796)"/><path d="m0 0-4.03 1.596-1.815-4.583-1.725.683 4.05 10.23 1.17-.463a.597.597 0 0 0 .335-.776L-3.435 3.1.596 1.504l1.64 4.143 1.169-.463a.597.597 0 0 0 .336-.776l-3.83-9.674-1.726.683z" style="fill:#1c2451;fill-opacity:1;fill-rule:nonzero;stroke:none" transform="matrix(1.33333 0 0 -1.33333 67.839 170.983)"/><path d="m0 0 1.22-.306a.597.597 0 0 0 .434-.726L-.878-11.124l-1.8.452z" style="fill:#1c2451;fill-opacity:1;fill-rule:nonzero;stroke:none" transform="matrix(1.33333 0 0 -1.33333 76.134 164.942)"/><path d="m0 0 1.129.555a.6.6 0 0 0 .8-.273L6.52-9.056l-1.666-.818Z" style="fill:#1c2451;fill-opacity:1;fill-rule:nonzero;stroke:none" transform="matrix(1.33333 0 0 -1.33333 125.771 160.3)"/><path d="m0 0 1.762-.199a.6.6 0 0 0 .488-.373l2.663-6.694q.124-.321.269-.791a5.3 5.3 0 0 0 .199-1.013l.943 8.356 1.135-.128a.6.6 0 0 0 .527-.662L6.818-11.843l-2.117.239L1.892-4.56a7 7 0 0 0-.285.831 5.4 5.4 0 0 0-.173.925l-.94-8.325-1.729.195z" style="fill:#1c2451;fill-opacity:1;fill-rule:nonzero;stroke:none" transform="matrix(1.33333 0 0 -1.33333 81.243 166.3)"/><path d="m0 0 1.685.551a.6.6 0 0 0 .6-.137l5.203-4.982q.246-.241.572-.608t.602-.839L6.049 1.978l1.085.355a.6.6 0 0 0 .755-.383l3.233-9.89-2.025-.662-5.481 5.24q-.307.285-.605.638a5.4 5.4 0 0 0-.542.77l2.604-7.964-1.654-.54z" style="fill:#1c2451;fill-opacity:1;fill-rule:nonzero;stroke:none" transform="matrix(1.33333 0 0 -1.33333 112.958 165.095)"/><path d="M0 0q.56.079.956.281t.614.58q.217.377.269.947.051.57-.062 1.371L.87 9.616l1.245.176a.6.6 0 0 0 .676-.509l.82-5.815q.189-1.346.049-2.274-.14-.929-.574-1.537a2.85 2.85 0 0 0-1.148-.94q-.715-.332-1.691-.47t-1.755-.016a2.86 2.86 0 0 0-1.363.586q-.586.465-.977 1.319t-.581 2.199l-.903 6.407 1.245.175a.597.597 0 0 0 .676-.508l.824-5.845q.113-.802.32-1.335t.52-.836q.313-.302.75-.387T0 0" style="fill:#1c2451;fill-opacity:1;fill-rule:nonzero;stroke:none" transform="matrix(1.33333 0 0 -1.33333 106.781 178.957)"/><path d="m0 0 1.651 1.105 7.064-5.629-2.426 8.733 1.213.812a.3.3 0 0 0 .457-.176L10.698-6.08l-1.385-.927Z" style="fill:#1c2451;fill-opacity:1;fill-rule:nonzero;stroke:none" transform="matrix(1.33333 0 0 -1.33333 129.053 159.021)"/><path d="M0 0q.456.891.327 1.461-.127.57-.631.827l-.149.077q-.598.305-1.105.036-.506-.271-1.106-.974A67 67 0 0 0-3.546.405a4.1 4.1 0 0 0-.99-.829 2.6 2.6 0 0 0-1.201-.354q-.662-.037-1.518.401l-.176.091a3.2 3.2 0 0 0-.845.643 2.76 2.76 0 0 0-.606 1.011q-.21.595-.148 1.37.062.774.544 1.716.396.775.929 1.398t1.371 1.09l.949-1.463q-.67-.373-1.037-.805a5 5 0 0 1-.65-.986 2.7 2.7 0 0 1-.281-.817 1.9 1.9 0 0 1 .011-.682q.068-.303.219-.511.151-.207.355-.311l.163-.084q.353-.18.653-.13t.581.248q.282.198.558.521.277.322.583.687.612.728 1.178 1.148a3.7 3.7 0 0 0 1.094.58q.528.161 1.032.091A3.2 3.2 0 0 0 .229 4.1l.176-.09q.816-.417 1.224-.976.408-.56.497-1.207A3.5 3.5 0 0 0 2.04.487 6.4 6.4 0 0 0 .93-1.819a7 7 0 0 0-.704-.788 5.3 5.3 0 0 0-.766-.61 5 5 0 0 0-.768-.413l-.977 1.509q.599.23 1.227.757Q-.429-.839 0 0" style="fill:#1c2451;fill-opacity:1;fill-rule:nonzero;stroke:none" transform="matrix(1.33333 0 0 -1.33333 169.23 135.803)"/><path d="m0 0 .689-.751-3.6-3.303L-.91-6.236l3.376 3.097 1.073-1.17L.163-7.405l1.974-2.153a.3.3 0 0 1 .422-.018l3.455 3.169L7.108-7.6l-4.592-4.211a.6.6 0 0 0-.845.037l-7.033 7.668L-.845.037A.6.6 0 0 0 0 0" style="fill:#1c2451;fill-opacity:1;fill-rule:nonzero;stroke:none" transform="matrix(1.33333 0 0 -1.33333 147.875 145.428)"/><path d="m0 0 2.595-2.082 1.07 1.334q.672.837.63 1.419-.041.581-.53.973l-.357.287q-.5.4-1.069.337-.57-.063-1.168-.809Zm5.202-1.442L3.868-3.104l3.44-2.761-1.162-1.447-8.581 6.887L.042 2.662q.508.633 1.082.981.573.349 1.15.434.578.085 1.152-.088a3.2 3.2 0 0 0 1.087-.584l.44-.354q.68-.545.966-1.295.288-.752.077-1.623 1.267-.348 2.503-.698 1.234-.35 2.502-.698L9.74-2.834Z" style="fill:#1c2451;fill-opacity:1;fill-rule:nonzero;stroke:none" transform="matrix(1.33333 0 0 -1.33333 152.037 142.639)"/><path d="m0 0 1.01-.288L.172-3.23l8.996-2.563-.508-1.785-8.997 2.564-.842-2.956-1.585.452L-.739-.411c.09.317.421.502.739.411" style="fill:#1c2451;fill-opacity:1;fill-rule:nonzero;stroke:none" transform="matrix(1.33333 0 0 -1.33333 166.825 109.34)"/><path d="m0 0 4.312-.566-.241-1.84-4.313.566-7.063-2.684.27 2.056 5.134 1.826-4.494 3.046.199 1.517c.03.224.288.336.471.203z" style="fill:#1c2451;fill-opacity:1;fill-rule:nonzero;stroke:none" transform="matrix(1.33333 0 0 -1.33333 175.917 101.83)"/><path d="M0 0q.253-.473.601-.813.347-.34.835-.473.487-.133 1.131-.01.643.124 1.477.572l1.17.628q.833.447 1.292.916.458.468.617.948.157.48.066.957a3.4 3.4 0 0 1-.346.95 3.3 3.3 0 0 1-.594.8 1.87 1.87 0 0 1-.834.473q-.488.134-1.135.017T2.799 4.4L1.63 3.771Q.796 3.324.341 2.849q-.456-.475-.613-.955A1.9 1.9 0 0 1-.339.937Q-.248.46 0 0m8.416 4.52a5.3 5.3 0 0 0 .564-1.614 3.8 3.8 0 0 0-.071-1.643Q8.693.456 8.068-.283q-.625-.738-1.754-1.345l-1.6-.86q-1.143-.613-2.111-.73t-1.75.146a3.7 3.7 0 0 0-1.391.849q-.61.586-1.035 1.378A5.5 5.5 0 0 0-2.15.779a3.7 3.7 0 0 0 .06 1.629q.213.797.845 1.539.632.743 1.775 1.356l1.599.86q1.13.606 2.091.719.961.114 1.754-.152a3.8 3.8 0 0 0 1.408-.848q.615-.583 1.034-1.362" style="fill:#1c2451;fill-opacity:1;fill-rule:nonzero;stroke:none" transform="matrix(1.33333 0 0 -1.33333 18.777 133.885)"/><path d="M0 0q.137-1.093-.03-1.969-.168-.876-.735-1.75l-1.608.807q.481.703.578 1.343.096.641.008 1.345a3 3 0 0 1-.257.889q-.2.428-.622.726-.421.297-1.1.432-.678.134-1.692.007l-1.121-.14q-.863-.108-1.443-.386-.58-.276-.917-.662a2.06 2.06 0 0 1-.455-.854 2.6 2.6 0 0 1-.057-.956q.09-.72.42-1.446t1.073-1.26L-9.32-5.039a4 4 0 0 0-.886.876 5.7 5.7 0 0 0-.566.959 4.8 4.8 0 0 0-.329.967q-.107.483-.161.915a5.2 5.2 0 0 0 .055 1.651q.162.801.649 1.454.486.653 1.307 1.106.82.454 2.046.607l1.954.244q1.226.155 2.154-.073t1.585-.744A3.65 3.65 0 0 0-.484 1.656 5.2 5.2 0 0 0 0 0" style="fill:#1c2451;fill-opacity:1;fill-rule:nonzero;stroke:none" transform="matrix(1.33333 0 0 -1.33333 22.37 102.99)"/><path d="M0 0a1.4 1.4 0 0 0-.069-.545 3 3 0 0 0-.326-.68 4 4 0 0 0-.584-.723 4 4 0 0 0-.724-.585 3 3 0 0 0-.679-.326 1.3 1.3 0 0 0-.545-.069.55.55 0 0 0-.34.145l-.04.04a.55.55 0 0 0-.145.339q-.026.244.069.546.1.315.326.68t.585.722c.237.237.48.435.723.586q.363.226.68.325.237.075.438.075A1 1 0 0 0-.524.524.54.54 0 0 0-.185.379l.04-.04A.54.54 0 0 0 0 0m1.444.576a1.56 1.56 0 0 1-.429.821l-.142.142a1.56 1.56 0 0 1-.836.434c-.32.059-.671.038-1.041-.064a4.4 4.4 0 0 1-1.146-.522A6.7 6.7 0 0 1-3.324.439l-.043-.042a6.8 6.8 0 0 1-.952-1.178 4.4 4.4 0 0 1-.527-1.152 2.3 2.3 0 0 1-.059-1.038q.098-.488.438-.83l.143-.142a1.55 1.55 0 0 1 .826-.433q.177-.034.368-.034.317 0 .668.092a4.4 4.4 0 0 1 1.157.523c.399.249.803.576 1.199.973.397.397.725.801.974 1.2.25.402.426.791.522 1.157.098.373.117.724.054 1.041" style="fill:#1c2451;fill-opacity:1;fill-rule:nonzero;stroke:none" transform="matrix(1.33333 0 0 -1.33333 44 40.091)"/><path d="m0 0-3.548-3.548-.352.351a.781.781 0 0 1-1.106-.001l-.482-.481.905-.904-3.54-3.54.903-.903L.903-.904z" style="fill:#1c2451;fill-opacity:1;fill-rule:nonzero;stroke:none" transform="matrix(1.33333 0 0 -1.33333 43.182 32.347)"/><path d="M0 0a.7.7 0 0 1 .133.184 44.237 44.237 0 0 1 1.113 2.355q.194.434.309.866.083.308.065.564.263-.015.576.075c.293.082.586.189.87.317a40 40 0 0 1 2.297 1.075.78.78 0 0 1 .358 1.016l-.231.518-.162-.086c-.987-.53-1.799-.924-2.415-1.172-.529-.22-.886-.318-1.157-.318q-.444 0-.704.189l2.603 2.603-.328.329a.79.79 0 0 1-1.012.079 1 1 0 0 1-.096-.077L.236 6.534l-.323.323a.783.783 0 0 1-1.106 0l-.628-.628.878-.878-2.526-2.527.881-.881L.001 4.532q.154-.26.171-.638A3.3 3.3 0 0 0-.11 2.689a25 25 0 0 0-.557-1.226A34 34 0 0 0-1.282.274l-.087-.162.571-.26A.72.72 0 0 1 0 0" style="fill:#1c2451;fill-opacity:1;fill-rule:nonzero;stroke:none" transform="matrix(1.33333 0 0 -1.33333 33.319 40.779)"/><path d="m0 0 1.531.634-3.208 7.747a.68.68 0 0 1-.886.367l-.905-.375L-.025.062Z" style="fill:#1c2451;fill-opacity:1;fill-rule:nonzero;stroke:none" transform="matrix(1.33333 0 0 -1.33333 69.418 22.025)"/><path d="m0 0-4.883-2.022c-.579-.24-.803-.332-.887-.38l-.004.011a.353.353 0 0 0-.453.194l-.729 1.76a.79.79 0 0 1-1.034.428l-.812-.336L-7.6-3.249a1.21 1.21 0 0 1 1.582-.655L.437-1.23l.062.025z" style="fill:#1c2451;fill-opacity:1;fill-rule:nonzero;stroke:none" transform="matrix(1.33333 0 0 -1.33333 72.804 23.77)"/><path d="M0 0a2 2 0 0 1 .177-.089q.272-.126.665-.249.603-.192 1.221-.386c.13-.041.227-.067.328-.094.071-.019.144-.039.233-.065.41-.12.85.117.977.528l.146.475.036.128-.035.054-.028.007c-.478.113-.955.242-1.418.383-.106.033-.931.303-1.218.409q-.286.103-.48.231a1.5 1.5 0 0 0-.32.284 2 2 0 0 0-.239.369 7 7 0 0 0-.23.502l-.459 1.108a.79.79 0 0 1-1.033.428l-.729-.301.73-1.764a5 5 0 0 0 .205-.598q.07-.271.073-.535a2.4 2.4 0 0 0-.059-.54 4 4 0 0 0-.197-.61q-.094-.231-.23-.528c-.091-.198-.52-1.04-.633-1.253q-.19-.353-.369-.659c-.007-.012-.008-.022-.007-.018l-.071-.13.021-.061.567-.299a.771.771 0 0 1 .672-.03c.153.063.244.107.345.263.151.234.808 1.581.956 1.912.12.262.225.529.311.792Q-.029-.145 0 0" style="fill:#1c2451;fill-opacity:1;fill-rule:nonzero;stroke:none" transform="matrix(1.33333 0 0 -1.33333 61.348 19.423)"/><path d="M0 0h-.863v-4.58h-1.122v3.541c0 .431-.35.781-.782.782h-.862v-11.599h1.644v5.967h1.122v-6.795H.782V-.782A.783.783 0 0 1 0 0" style="fill:#1c2451;fill-opacity:1;fill-rule:nonzero;stroke:none" transform="matrix(1.33333 0 0 -1.33333 100.532 5.885)"/><path d="m0 0-.069.003h-4.328v-8.03l5.109.002v.522c0 .431-.35.782-.781.782l-2.643-.002v5.422H.712v.523A.786.786 0 0 1 0 0" style="fill:#1c2451;fill-opacity:1;fill-rule:nonzero;stroke:none" transform="matrix(1.33333 0 0 -1.33333 93.265 7.2)"/><path d="M0 0c-.017.009-4.952 2.062-7.073 2.945l-.061.025-.494-1.192L-1.742-.66a.345.345 0 0 0 .187-.45l-1.03-2.487 1.543-.639L.315-.962a.785.785 0 0 1-.239.913A1 1 0 0 1 0 0" style="fill:#1c2451;fill-opacity:1;fill-rule:nonzero;stroke:none" transform="matrix(1.33333 0 0 -1.33333 128.317 24.832)"/><path d="M0 0a.75.75 0 0 0 .051.339l.032.078q.063.15.204.276a.9.9 0 0 0 .35.181q.165.045.371.045.066 0 .137-.005c.191-.012.41-.069.648-.168q.36-.148.578-.34.217-.19.331-.387a.9.9 0 0 0 .119-.376.75.75 0 0 0-.051-.339l-.032-.078a.8.8 0 0 0-.204-.276.9.9 0 0 0-.35-.181 1.5 1.5 0 0 0-.513-.038q-.297.022-.644.165a2.1 2.1 0 0 0-.572.339 1.5 1.5 0 0 0-.336.389A.9.9 0 0 0 0 0m-.613-1.535c.302-.256.699-.486 1.178-.685.469-.195.91-.311 1.31-.346q.178-.015.343-.016.399 0 .721.09.46.128.785.406.322.279.473.645l.077.185c.097.234.137.498.119.783v.001q-.03.43-.266.848c-.154.274-.39.545-.699.805a4.5 4.5 0 0 1-1.172.682c-.478.198-.92.317-1.313.354A2.9 2.9 0 0 1-.118 2.14a2.1 2.1 0 0 1-.785-.411 1.7 1.7 0 0 1-.473-.645l-.077-.185a1.7 1.7 0 0 1-.121-.791q.032-.423.267-.841.234-.412.694-.802" style="fill:#1c2451;fill-opacity:1;fill-rule:nonzero;stroke:none" transform="matrix(1.33333 0 0 -1.33333 121.28 17.593)"/><path d="m0 0 .184.444a.783.783 0 0 1-.338.98c-.004.003-.008.005-2.031.848l.187.449a.783.783 0 0 1-.423 1.022l-.809.335-.486-1.172-2.68 1.11-.483-1.167L-.062.025Z" style="fill:#1c2451;fill-opacity:1;fill-rule:nonzero;stroke:none" transform="matrix(1.33333 0 0 -1.33333 129.145 16.333)"/><path d="m0 0 1.043 2.518A.78.78 0 0 1 .62 3.539l-.809.335-2.91-7.025-.025-.061 1.531-.634L-.5-1.208l1.625-.673.5 1.208z" style="fill:#1c2451;fill-opacity:1;fill-rule:nonzero;stroke:none" transform="matrix(1.33333 0 0 -1.33333 131.673 19.024)"/><path d="M0 0a.783.783 0 0 1 0 1.106l-.609.609-3.07-3.069-.917.917L-2.08 2.08a.78.78 0 0 1 0 1.105l-.609.61-3.07-3.069-1.823 1.823-.904-.904 7.924-7.923.047-.047.904.903-2.906 2.905z" style="fill:#1c2451;fill-opacity:1;fill-rule:nonzero;stroke:none" transform="matrix(1.33333 0 0 -1.33333 152.757 39.092)"/><path d="m0 0-5.749 5.748-.046.047-.922-.922 5.176-5.176-3.871-3.87-.047-.047 1.168-1.169L0-1.105A.778.778 0 0 1 0 0" style="fill:#1c2451;fill-opacity:1;fill-rule:nonzero;stroke:none" transform="matrix(1.33333 0 0 -1.33333 159.61 36.412)"/><path d="m0 0 .486 1.16a.6.6 0 0 0 .783.32l9.596-4.022-.717-1.711z" style="fill:#1c2451;fill-opacity:1;fill-rule:nonzero;stroke:none" transform="matrix(1.33333 0 0 -1.33333 161.325 123.43)"/><path d="m0 0-1.758-38.945h-28.521c-.966 0-1.996-1.567-2.677-2.604l-.098-.148a1.513 1.513 0 0 0-2.531 0l-.098.148c-.681 1.037-1.711 2.604-2.677 2.604h-28.522L-68.639 0h-1.363l1.758-40.516h29.102c.998 0 2.122-1.394 3.034-2.869a2.103 2.103 0 0 1 3.58-.01c.924 1.479 2.063 2.879 3.063 2.879H-.412L1.345 0Z" style="fill:#fff;fill-opacity:1;fill-rule:nonzero;stroke:none" transform="matrix(1.33333 0 0 -1.33333 140.259 67.348)"/><path d="M0 0v-2.243l-1.758-36.609h-26.753c-1.233 0-2.456-1.641-3.044-2.429l-.174-.232a.734.734 0 0 0-1.167 0l-.174.232c-.588.788-1.812 2.429-3.045 2.429h-26.753l-1.758 36.609V0h-1.247v-2.243l1.758-38.194h27.77c1.372 0 2.49-1.7 3.306-2.941l.097-.148a.76.76 0 0 1 .638-.347c.26 0 .493.127.638.347l.097.147c.816 1.242 1.934 2.942 3.306 2.942h27.77L1.264-2.243V0Z" style="fill:#fff;fill-opacity:1;fill-rule:nonzero;stroke:none" transform="matrix(1.33333 0 0 -1.33333 137.572 64.358)"/><path d="M0 0v5.303c0 .406-.907 1.088-3.465 1.673-4.143.947-10.462 1.192-15.724.609-6.034-.667-10.129-2.288-11.652-4.591a5 5 0 0 1-.223-.376l-.061-.121-.122-.254-.241-.5-.208.5-.114.273a5 5 0 0 1-.236.478c-1.346 2.332-5.208 3.988-10.981 4.689-5.032.611-11.185.427-15.677-.469-3.489-.696-4.419-1.529-4.419-1.911V0l1.757-35.859h26.002c1.61 0 2.935-1.776 3.647-2.73l.156-.207.155.207c.712.954 2.037 2.73 3.646 2.73h26.002z" style="fill:#fff;fill-opacity:1;fill-rule:nonzero;stroke:none" transform="matrix(1.33333 0 0 -1.33333 136.57 67.348)"/><path d="M1.732-9.168q-.26.013-.473.033a.9.9 0 0 0-.371.104.42.42 0 0 0-.182.217q-.074.174-.075.51v8.088a.48.48 0 0 1-.259.427.48.48 0 0 1-.497-.032V.178l-1.997-1.4a.217.217 0 0 1 .211-.378q.477.206.77.293c.214.064.316.055.358.044.021-.005.054-.014.078-.095q.048-.166.049-.487v-6.433c0-.292-.047-.445-.087-.522a.5.5 0 0 0-.217-.229.9.9 0 0 0-.372-.099 16 16 0 0 0-.569-.032.22.22 0 0 1-.208-.218v-.38c0-.12.097-.217.217-.217h3.76c.12 0 .217.097.217.217v.221c0 .198-.155.36-.353.369" style="fill:#fff;fill-opacity:1;fill-rule:nonzero;stroke:none" transform="matrix(1.33333 0 0 -1.33333 77.763 131.295)"/><path d="M0 0c.167-.298.292-.646.369-1.036.079-.396.111-.808.095-1.226v-.003c-.017-.548-.166-.989-.445-1.31a1.7 1.7 0 0 0-1.044-.589 1.25 1.25 0 0 0-.767.121 1.8 1.8 0 0 0-.615.533c-.177.238-.32.52-.426.837a3.7 3.7 0 0 0-.185 1.003c-.017.332 0 .665.049.991q.074.473.272.847.193.36.508.579.305.21.761.21c.313 0 .58-.083.815-.253A2.2 2.2 0 0 0 0 0m.961.532q-.435.587-1.04.919c-.796.433-1.83.43-2.584.063a2.8 2.8 0 0 1-.943-.737 3.3 3.3 0 0 1-.59-1.094 4.4 4.4 0 0 1-.201-1.351c0-.523.087-1.01.257-1.448.171-.438.404-.818.692-1.129.29-.315.636-.556 1.027-.717q.588-.24 1.266-.184c.335.037.661.127.97.267q.185.084.365.208a5.4 5.4 0 0 0-.392-.942 4.8 4.8 0 0 0-.946-1.241 4.5 4.5 0 0 0-1.28-.837 5 5 0 0 0-1.564-.389.22.22 0 0 1-.199-.217v-.114c0-.058.024-.113.065-.155a.22.22 0 0 1 .153-.062h.002c.942.009 1.772.149 2.468.413a4.25 4.25 0 0 1 1.76 1.207 6.1 6.1 0 0 1 1.188 1.976c.279.746.42 1.552.42 2.394 0 .647-.078 1.245-.231 1.777A4.4 4.4 0 0 1 .961.532" style="fill:#fff;fill-opacity:1;fill-rule:nonzero;stroke:none" transform="matrix(1.33333 0 0 -1.33333 90.058 133.138)"/><path d="M0 0c.085-.556.128-1.177.128-1.847S.085-3.136 0-3.687a6 6 0 0 0-.373-1.41c-.156-.372-.352-.663-.583-.863a1.137 1.137 0 0 0-1.508.006c-.233.204-.432.498-.593.873-.166.386-.296.86-.384 1.408a11.6 11.6 0 0 0-.135 1.839c0 .67.043 1.291.128 1.847.085.553.212 1.034.379 1.429q.243.577.594.892c.217.196.463.291.751.291.296 0 .546-.097.764-.296.232-.213.43-.515.587-.898A6.3 6.3 0 0 0 0 0m.749 1.817A3.4 3.4 0 0 1-.253 3.018c-.416.307-.911.462-1.471.462a2.4 2.4 0 0 1-1.472-.469 3.5 3.5 0 0 1-1-1.207A6.2 6.2 0 0 1-4.761.113a10.5 10.5 0 0 1-.181-1.96c0-.681.061-1.343.181-1.967.122-.63.312-1.193.565-1.671.259-.491.596-.89 1-1.187.416-.307.911-.462 1.472-.462.553 0 1.042.156 1.453.462.4.298.736.699.999 1.192.257.482.452 1.047.578 1.678.125.623.188 1.285.188 1.968 0 .674-.061 1.334-.181 1.961a6.2 6.2 0 0 1-.564 1.69" style="fill:#fff;fill-opacity:1;fill-rule:nonzero;stroke:none" transform="matrix(1.33333 0 0 -1.33333 102.7 135.38)"/><path d="M1.744-9.168a10 10 0 0 0-.485.033.9.9 0 0 0-.371.104.42.42 0 0 0-.182.216q-.074.175-.074.511v8.089a.483.483 0 0 1-.757.394V.178l-1.997-1.4a.217.217 0 0 1 .211-.378c.317.137.576.235.769.293.215.064.316.055.359.044.021-.005.054-.014.078-.094.023-.076.05-.224.05-.488v-6.433c0-.291-.048-.444-.088-.522a.5.5 0 0 0-.217-.228.9.9 0 0 0-.372-.1 16 16 0 0 0-.569-.032.22.22 0 0 1-.208-.218v-.38c0-.12.097-.217.217-.217h3.76c.12 0 .217.097.217.217v.233c0 .192-.15.349-.341.357" style="fill:#fff;fill-opacity:1;fill-rule:nonzero;stroke:none" transform="matrix(1.33333 0 0 -1.33333 111.54 131.295)"/><path d="M0 0h-.955a.324.324 0 0 0-.324.324v.955c0 .179.145.323.324.323h.631A.647.647 0 0 0 .324.955V.324A.324.324 0 0 0 0 0" style="fill:#1c2451;fill-opacity:1;fill-rule:nonzero;stroke:none" transform="matrix(1.33333 0 0 -1.33333 67.27 88.7)"/><path d="M0 0h-.955a.324.324 0 0 0-.324.324v.955c0 .179.145.323.324.323h.631A.647.647 0 0 0 .324.955V.324A.324.324 0 0 0 0 0" style="fill:#1c2451;fill-opacity:1;fill-rule:nonzero;stroke:none" transform="matrix(1.33333 0 0 -1.33333 104.545 88.7)"/><path d="M0 0h-.955a.324.324 0 0 0-.324.324v.955c0 .179.145.323.324.323h.631A.647.647 0 0 0 .324.955V.324A.324.324 0 0 0 0 0" style="fill:#1c2451;fill-opacity:1;fill-rule:nonzero;stroke:none" transform="matrix(1.33333 0 0 -1.33333 67.27 92.937)"/><path d="M0 0h-.955a.324.324 0 0 0-.324.324v.955c0 .179.145.323.324.323h.631A.647.647 0 0 0 .324.955V.324A.324.324 0 0 0 0 0" style="fill:#1c2451;fill-opacity:1;fill-rule:nonzero;stroke:none" transform="matrix(1.33333 0 0 -1.33333 86.409 102)"/><path d="M0 0h-.955a.324.324 0 0 0-.324.324v.955c0 .179.145.323.324.323h.631A.647.647 0 0 0 .324.955V.324A.324.324 0 0 0 0 0" style="fill:#1c2451;fill-opacity:1;fill-rule:nonzero;stroke:none" transform="matrix(1.33333 0 0 -1.33333 102.022 102)"/><path d="M0 0h-.955a.324.324 0 0 0-.324.324v.955c0 .179.145.323.324.323h.631A.647.647 0 0 0 .324.955V.324A.324.324 0 0 0 0 0" style="fill:#1c2451;fill-opacity:1;fill-rule:nonzero;stroke:none" transform="matrix(1.33333 0 0 -1.33333 107.067 102)"/><path d="M0 0h-4.139a.36.36 0 0 0-.359.359v.885c0 .198.161.358.359.358h3.885A.613.613 0 0 0 .359.99V.359A.36.36 0 0 0 0 0" style="fill:#1c2451;fill-opacity:1;fill-rule:nonzero;stroke:none" transform="matrix(1.33333 0 0 -1.33333 123.786 102)"/><path d="M0 0h-.955a.324.324 0 0 0-.324.324v.955c0 .179.145.323.324.323h.631A.647.647 0 0 0 .324.955V.324A.324.324 0 0 0 0 0" style="fill:#1c2451;fill-opacity:1;fill-rule:nonzero;stroke:none" transform="matrix(1.33333 0 0 -1.33333 104.545 106.425)"/><path d="M0 0h-.752a.284.284 0 0 1-.284-.283v-1.036c0-.157.127-.283.284-.283H.283c.157 0 .284.126.284.283v.752A.567.567 0 0 1 0 0" style="fill:#1c2451;fill-opacity:1;fill-rule:nonzero;stroke:none" transform="matrix(1.33333 0 0 -1.33333 81.04 99.863)"/><path d="M0 0h-.955a.324.324 0 0 0-.324.324v.955c0 .179.145.323.324.323h.631A.647.647 0 0 0 .324.955V.324A.324.324 0 0 0 0 0" style="fill:#1c2451;fill-opacity:1;fill-rule:nonzero;stroke:none" transform="matrix(1.33333 0 0 -1.33333 83.886 106.425)"/><path d="M0 0c.916 1.041.372 2.127-.819 2.408a7.7 7.7 0 0 1-1.862.204c-1.688-.025-5.125-1.103-7.051.817-.759-.785-.779-1.68-.555-2.601.21-.861.84-1.385 1.675-1.454 1.048-.086 5.127.127 6.097.056.579-.042.8-.109.884-.383v-7.839l-.012-1.638h.012v-6.201c-.006-.419.26-.758.67-.928.444-.185.849.051.853.526.005.539-.001 12.704 0 16.775A.7.7 0 0 0 0 0" style="fill:#1c2451;fill-opacity:1;fill-rule:nonzero;stroke:none" transform="matrix(1.33333 0 0 -1.33333 72.807 81.505)"/><path d="M0 0c-.6.142-1.234.212-1.851.204-1.758.095-4.39.036-5.85.031-1.075 0-.979.698-.979 1.461 0 .692.248 2.162.566 2.82.548 1.136.469 2.226 0 2.696l-.866.865a.47.47 0 0 1-.667 0l-.276-.276a.74.74 0 0 1 0-1.047l.555-.555c.28-.28-.623-1.938-.792-3.343-.113-.948-.026-3.887.107-4.413.087-.343.433-.606.819-.605l.013-.002c2.107.024 4.214.009 6.321.009 2.12 0 2.177-.003 2.177-2.081 0-.248-.016-.471-.046-.683-.241-1.692-1.541-2.494-5.457-6.14-.306-.285-.368-.712-.208-1.126.174-.449.599-.553.946-.228.458.43 4.554 4.285 4.698 4.414.606.545 1.528 1.575 1.609 2.365.007.061 0 .171 0 .398.045 1.524 0 2.828 0 2.828C1.735-1.367 1.192-.281 0 0" style="fill:#1c2451;fill-opacity:1;fill-rule:nonzero;stroke:none" transform="matrix(1.33333 0 0 -1.33333 128.344 79.459)"/><path d="M0 0c-.6.142-1.234.212-1.851.204-1.758.095-4.39.036-5.85.031-1.075 0-.979.698-.979 1.461 0 .692.248 2.162.566 2.82.548 1.136.469 2.226 0 2.696l-.866.865a.47.47 0 0 1-.667 0l-.276-.276a.74.74 0 0 1 0-1.047l.555-.555c.28-.28-.623-1.938-.792-3.343-.113-.948-.026-3.887.107-4.413.087-.343.433-.606.819-.605l.013-.002c2.107.024 4.214.009 6.321.009 2.12 0 2.177-.003 2.177-2.081 0-.248-.016-.471-.046-.683-.241-1.692-1.541-2.494-5.457-6.14-.306-.285-.368-.712-.208-1.126.174-.449.599-.553.946-.228.458.43 4.554 4.285 4.698 4.414.606.545 1.528 1.575 1.609 2.365.007.061 0 .171 0 .398.045 1.524 0 2.828 0 2.828C1.735-1.367 1.192-.281 0 0" style="fill:#1c2451;fill-opacity:1;fill-rule:nonzero;stroke:none" transform="matrix(1.33333 0 0 -1.33333 90.538 79.459)"/><path d="M0 0c-.385 1.884-1.289 3.349-2.894 4.388-.29.187-.593.333-.911.426-.323.094-.66.133-1.016.104q-.346-.028-.511-.236c-.085-.107-.159-.32-.192-.738-.049-.602-.32-.976-.795-1.099a.614.614 0 0 0-.754.528c-.028.241-.013.45-.231.865-.477.906-1.742 1.165-2.532.841l-.005-.003c-1.171-.6-1.432-1.991-.542-3.314.105-.106-.1-8.737-.1-8.737-.005-.419.004-1.046.762-1.046.757 0 .757.581.762 1.046.003.353.001 3.861 0 6.673 0 1.223 1.351 1.517 3.905 1.517 1.756 0 3.606.182 3.997-2.675.126-.924.129-2.786-.023-3.309-.108-.378-.6-.559-.934-.588-.721-.062-3.049.012-3.483-.013-.963-.056-1.56-.567-1.655-1.455-.058-.539-.011-.629-.011-1.196.189-.011 3.169 0 4.5 0 2.6 0 2.569 1.247 2.66 2.133S.226-1.323 0 0" style="fill:#1c2451;fill-opacity:1;fill-rule:nonzero;stroke:none" transform="matrix(1.33333 0 0 -1.33333 110.775 84.625)"/></svg>