<svg xmlns="http://www.w3.org/2000/svg" xml:space="preserve" width="2198.5" height="2198.5186" viewBox="0 0 2198.5 2198.5185"><defs><clipPath id="a" clipPathUnits="userSpaceOnUse"><path d="M0 2000h2000V0H0Z"/></clipPath></defs><g transform="matrix(1.33333 0 0 -1.33333 215.62 2438)"><circle cx="660.41669" cy="-993.74994" r="722.91669" style="fill:#fff;stroke-width:2.83465" transform="scale(1 -1)"/><g clip-path="url(#a)" transform="translate(-337.5 4.167)"><path d="M0 0c-335.667 0-607.778-272.112-607.778-607.766 0-335.668 272.111-607.779 607.778-607.779 335.668 0 607.753 272.111 607.753 607.779C607.753-272.112 335.668 0 0 0m824.431-607.766c0-455.312-369.131-824.445-824.431-824.445-455.325 0-824.444 369.133-824.444 824.445 0 455.327 369.119 824.444 824.444 824.444 455.3 0 824.431-369.117 824.431-824.444" style="fill:#9e9e9f;fill-opacity:1;fill-rule:nonzero;stroke:none" transform="translate(1000.229 1607.655)"/><path d="M0 0c7.318-.58 12.193 3.761 13.441 12.075C15.196 23.736.457 28.126-11.585 29.935c-11.707 1.754-25.88 1.501-27.6-9.953-1.283-8.513 2.109-13.995 9.741-15.558l-3.195-21.294c-20.344 2.752-24.829 21.457-22.158 39.199 3.426 22.809 20.322 32.81 47.307 28.755C19.49 47.028 32.256 32.57 29.054 9.728 26.385-8.008 17.046-24.644-3.202-21.286Z" style="fill:#231916;fill-opacity:1;fill-rule:nonzero;stroke:none" transform="translate(310.475 1089.45)"/><path d="m0 0 81.407-1.009-.258-20.604-32.243.397-.314-25.109 32.249-.397-.26-20.507-81.4 1.011.251 20.507 33.377-.424.313 25.218-33.375.41z" style="fill:#231916;fill-opacity:1;fill-rule:nonzero;stroke:none" transform="translate(249.547 1042.98)"/><path d="m0 0-51.119-6.526C-73.625-9.188-84.549 6.048-86.91 24.563c-2.363 18.5 4.39 36.004 26.842 39.076l51.119 6.512 2.593-20.33-49.999-6.376c-10.253-1.625-16.117-7.332-14.895-16.889 1.222-9.558 8.328-13.612 18.658-12.601l49.998 6.375z" style="fill:#231916;fill-opacity:1;fill-rule:nonzero;stroke:none" transform="translate(340.41 880.163)"/><path d="m0 0-4.001 14.526 15.217 4.193 9.441-34.298-41.964-11.55c-7.017 15.291-9.489 17.913-14.227 35.102-5.359 22.447 6.459 40.264 31.028 47.037 24.569 6.758 43.84-2.5 50.729-24.523 5.304-17.148 7.482-36.113-15.265-42.694L25.517 7.564c7.338 3.085 8.124 9.148 6.329 15.674-3.673 13.339-17.921 14.514-30.638 11.018-15.435-4.246-23.723-14.077-19.804-28.317 1.004-3.659 2.662-7.127 4.137-9.912z" style="fill:#231916;fill-opacity:1;fill-rule:nonzero;stroke:none" transform="translate(309.855 792.222)"/><path d="m0 0 36.141 46.49 9.454-21.819-24.917-28.44L58.669-5.53l8.397-19.375-58.922 6.091-27.313-11.824-8.151 18.814Z" style="fill:#231916;fill-opacity:1;fill-rule:nonzero;stroke:none" transform="translate(334.341 721.69)"/><path d="m0 0 69.946 41.67 28.85-48.442-13.559-8.083-18.363 30.83-14.433-8.601 16.89-28.36-13.558-8.068L38.877-.71l-14.82-8.819 18.363-30.83-13.565-8.069Z" style="fill:#231916;fill-opacity:1;fill-rule:nonzero;stroke:none" transform="translate(341.018 638.116)"/><path d="m0 0-38.038-34.762c-16.87-15.128-34.578-8.957-47.167 4.82-12.581 13.762-17.14 31.962-.545 47.404l38.038 34.761 13.83-15.141-37.205-33.996c-7.454-7.223-8.963-15.265-2.465-22.378 6.5-7.114 14.651-6.335 22.516.436l37.204 33.997z" style="fill:#231916;fill-opacity:1;fill-rule:nonzero;stroke:none" transform="translate(529.516 521.586)"/><path d="m0 0 22.181-18.213L2.868-80.841l.3.054 38.346 46.708L55.782-45.78 4.124-108.708l-21.948 18.009L2.328-26.57l-.157.137-39.56-48.196-14.268 11.7z" style="fill:#231916;fill-opacity:1;fill-rule:nonzero;stroke:none" transform="translate(547.66 504.327)"/><path d="m0 0 44.674 68.063 17.142-11.251-44.675-68.063Z" style="fill:#231916;fill-opacity:1;fill-rule:nonzero;stroke:none" transform="translate(580.205 376.436)"/><path d="m0 0 18.111-9.38-61.399-59.884-21.75 11.279 14.255 84.31 20.11-10.432-12.301-60.048.184-.081z" style="fill:#231916;fill-opacity:1;fill-rule:nonzero;stroke:none" transform="translate(709.57 395.414)"/><path d="m0 0 27.976 76.46 52.948-19.374-5.428-14.828-33.69 12.328-5.775-15.769 31-11.346-5.428-14.828L30.604 23.99 24.678 7.783l33.697-12.33-5.427-14.827Z" style="fill:#231916;fill-opacity:1;fill-rule:nonzero;stroke:none" transform="translate(718.021 302.325)"/><path d="m0 0-19.975 4.601 18.296 79.34 33.361-7.701c12.186-2.813 27.129-10.076 23.252-26.884-2.73-11.864-12.465-16.22-22.863-15.21l-.102-.436c12.712-3.277 13.462-10.978 11.926-23.579-1.024-6.704-1.372-13.231-1.14-19.989L21.081-4.861c.163 5.747.887 11.591 1.679 17.313 1.406 9.747 1.918 13.789-8.274 16.138l-7.488 1.733zm18.336 43.909c6.389-1.475 12.814-1.911 14.684 6.212 1.878 8.137-4.089 10.554-10.478 12.029l-7.791 1.802-4.204-18.241z" style="fill:#231916;fill-opacity:1;fill-rule:nonzero;stroke:none" transform="translate(822.947 268.767)"/><path d="M0 0c.41 3.14-.273 5.584-1.945 7.441-1.57 1.858-4.13 3.018-7.598 3.359-4.697.465-9.108-2.498-9.503-6.54-.588-5.953 5.754-8.506 11.004-10.609 12.002-4.682 29.826-7.796 27.669-29.682-1.666-17.054-17.77-23.634-34.802-21.954-17.142 1.679-31.696 8.67-29.84 30.693l20.399-2.008c-.848-7.618 3.843-12.274 11.189-12.998 4.689-.464 10.976 1.638 11.502 7.032 1.086 10.991-14.247 10.117-29.497 19.442-7.1 4.315-10.043 12.083-9.183 20.835 2.704 19.115 18.528 22.883 33.929 21.367 15.203-1.488 30.221-8.97 27.081-28.384z" style="fill:#231916;fill-opacity:1;fill-rule:nonzero;stroke:none" transform="translate(942.332 307.35)"/><path d="m0 0-.137 81.402 20.493.04.151-81.414z" style="fill:#231916;fill-opacity:1;fill-rule:nonzero;stroke:none" transform="translate(991.478 247.452)"/><path d="m0 0-22.554-2.199-1.516 15.716 66.013 6.403 1.516-15.702L20.398 1.98l6.349-65.318-20.411-1.98Z" style="fill:#231916;fill-opacity:1;fill-rule:nonzero;stroke:none" transform="translate(1056.385 315.31)"/><path d="m0 0-38.98 44.114 23.183 5.256L7.55 19.62l8.752 37.014L36.89 61.29 20.001 4.519l6.569-29.026L6.581-29.04Z" style="fill:#231916;fill-opacity:1;fill-rule:nonzero;stroke:none" transform="translate(1151.154 292.973)"/><path d="m0 0-18.747-8.301-32.959 74.438L-3.81 87.355 2.579 72.91-26.57 60.007l7.673-17.326L8.192 54.683l6.389-14.433-27.088-12.001Z" style="fill:#231916;fill-opacity:1;fill-rule:nonzero;stroke:none" transform="translate(1303.198 310.613)"/><path d="M0 0c20.958 12.712 24.711 33.191 10.786 56.128C-3.14 79.08-23.034 85.196-43.977 72.486c-20.945-12.697-24.713-33.192-10.787-56.13C-40.837-6.581-20.945-12.712 0 0m-7.442 44.674c6.254-10.309 11.182-23.949-.737-31.185-11.919-7.223-21.75 3.428-28.002 13.749-6.609 10.895-11.524 24.521.381 31.758 11.92 7.236 21.751-3.427 28.358-14.322" style="fill:#231916;fill-opacity:1;fill-rule:nonzero;stroke:none" transform="translate(1392.327 355.014)"/><path d="m0 0-15.92-12.916L-67.203 50.3l26.584 21.572c9.707 7.877 24.63 15.196 35.499 1.802C2.553 64.212 0 53.863-7.196 46.286l.287-.341c10.404 7.999 16.931 3.85 25.927-5.108 4.656-4.942 9.586-9.215 15.061-13.202L16.807 13.626c-4.438 3.673-8.601 7.838-12.629 11.975-6.813 7.099-9.695 9.993-17.804 3.412l-5.981-4.845zm-23.334 41.466c5.093 4.137 9.38 8.929 4.123 15.4-5.256 6.486-10.827 3.264-15.919-.859l-6.213-5.039 11.797-14.54z" style="fill:#231916;fill-opacity:1;fill-rule:nonzero;stroke:none" transform="translate(1467.065 408.876)"/><path d="m0 0-14.514-17.394-12.124 10.117 42.504 50.913 12.11-10.102-14.842-17.791L63.516-26.31 50.381-42.052Z" style="fill:#231916;fill-opacity:1;fill-rule:nonzero;stroke:none" transform="translate(1521.405 551.486)"/><path d="m0 0-68.595 43.84 11.087 17.354 27.183-17.368 13.517 21.164-27.169 17.367 11.045 17.272 68.595-43.842-11.047-17.271-28.125 17.981-13.572-21.258 28.126-17.968Z" style="fill:#231916;fill-opacity:1;fill-rule:nonzero;stroke:none" transform="translate(1617.347 566.956)"/><path d="m0 0-73.592 34.802 24.099 50.969 14.268-6.759-15.333-32.427 15.182-7.182 14.118 29.832 14.268-6.744-14.117-29.833 15.606-7.386L9.83 57.712l14.269-6.744Z" style="fill:#231916;fill-opacity:1;fill-rule:nonzero;stroke:none" transform="translate(1669.994 654.214)"/><path d="m0 0-14.31 8.437 7.114 29.177 16.602 1.025 5.489 22.514-86.015-9.134-5.913-24.289 72.186-47.65zm-28.4 17.258-30.501 17.763.083.301 35.088 1.146z" style="fill:#231916;fill-opacity:1;fill-rule:nonzero;stroke:none" transform="translate(1727.34 801.465)"/><path d="m0 0 .777 7.659C1.857 18.05 5.925 18.05 15.769 17.858c5.776-.068 11.673-.054 17.394.492l2.266 22.132c-6.675-1.065-13.188-1.543-19.974-1.352-12.698-.04-20.234-1.747-21.914-14.76l-.45.042c-.287 10.444-5.816 19.565-17.927 20.794-17.163 1.76-22.515-13.968-23.784-26.406l-3.496-34.064 80.978-8.302 2.103 20.398zm-15.702 1.611-18.623 1.911.82 7.961c.668 6.525 2.32 12.738 10.621 11.891 8.302-.846 8.671-7.278 8.001-13.804z" style="fill:#231916;fill-opacity:1;fill-rule:nonzero;stroke:none" transform="translate(1717.687 915.908)"/><path d="m0 0 .452-22.651-15.785-.3-1.296 66.301 15.783.307.45-23.164 65.619 1.284.396-20.494z" style="fill:#231916;fill-opacity:1;fill-rule:nonzero;stroke:none" transform="translate(1687.99 1001.637)"/><path d="M0 0c-3.14-.341-5.352-1.591-6.773-3.659-1.42-1.967-1.939-4.731-1.447-8.179.669-4.669 4.602-8.246 8.616-7.672 5.912.845 6.881 7.611 7.672 13.216 1.707 12.773.492 30.823 22.255 33.935 16.972 2.431 27.185-11.64 29.615-28.583 2.43-17.046-.888-32.85-22.719-36.284l-2.908 20.295c7.604.983 11.018 6.649 9.967 13.954-.67 4.67-4.206 10.274-9.558 9.503-10.95-1.563-6.445-16.247-11.864-33.28-2.512-7.919-9.367-12.629-18.064-13.872-19.211-1.925-26.638 12.548-28.823 27.867-2.17 15.12 1.53 31.491 21.123 33.054z" style="fill:#231916;fill-opacity:1;fill-rule:nonzero;stroke:none" transform="translate(1687.608 1107.267)"/><path d="m0 0 28.345-24.699-13.981-16.029-28.331 24.713Z" style="fill:#231916;fill-opacity:1;fill-rule:nonzero;stroke:none" transform="translate(487.204 1481.525)"/><path d="m0 0 71.231 81.702 7.864-6.881L7.864-6.854Z" style="fill:#231916;fill-opacity:1;fill-rule:nonzero;stroke:none" transform="translate(439.485 1437.138)"/><path d="m0 0 62.547 71.735-7.701 6.731L-7.701 6.704Z" style="fill:#231916;fill-opacity:1;fill-rule:nonzero;stroke:none" transform="translate(407.564 1473.73)"/><path d="m0 0 53.834 4.315c.232.013.807 0 1.065-.41.232-.41.123-.9-.204-1.256L40.864-13.202c-1.078-1.257-1.788-1.502-2.977-1.625L-.478-16.766 2.84-55.05c.026-1.187-.124-1.912-1.229-3.167l-13.818-15.852c-.286-.341-.765-.56-1.188-.355-.45.178-.559.751-.573.969l-3.058 53.945" style="fill:#231916;fill-opacity:1;fill-rule:nonzero;stroke:none" transform="translate(444.306 1522.007)"/><path d="m0 0 13.448 15.414s2.69 2.717 5.407.587l4.342-3.768L7.14-6.226Z" style="fill:#231916;fill-opacity:1;fill-rule:nonzero;stroke:none" transform="translate(416.098 1513.188)"/><path d="m0 0 75.83-75.913 7.346 7.305L7.318 7.304Z" style="fill:#231916;fill-opacity:1;fill-rule:nonzero;stroke:none" transform="translate(1469.332 1490.346)"/><path d="m0 0-56.388 56.444 7.18 7.181L9.325 5.039c2.949-2.949 3.072-7.605.313-10.404L-50.558-65.44l-13.995 13.995L-4.274 8.807" style="fill:#231916;fill-opacity:1;fill-rule:nonzero;stroke:none" transform="translate(1591.502 1489.84)"/><path d="m0 0 9.352-9.394s3.537-3.481-.545-7.564l-26.42-26.418-12.861 12.902z" style="fill:#231916;fill-opacity:1;fill-rule:nonzero;stroke:none" transform="translate(1520.941 1511.235)"/><path d="m0 0 9.38-9.394s3.509-3.523-.559-7.564l-26.406-26.42-12.903 12.904z" style="fill:#231916;fill-opacity:1;fill-rule:nonzero;stroke:none" transform="translate(1541.148 1491.002)"/><path d="m0 0-4.561 7.933 12.793 7.359 4.561-7.946Z" style="fill:#231916;fill-opacity:1;fill-rule:nonzero;stroke:none" transform="translate(593.783 1626.114)"/><path d="m0 0-4.547 7.961 23.198 13.285 4.518-7.961z" style="fill:#231916;fill-opacity:1;fill-rule:nonzero;stroke:none" transform="translate(594.629 1600.528)"/><path d="M0 0c13.448-22.447 8.942-45.835-5.543-63.966l4.805-8.439c19.292 16.903 35.758 49.48 17.108 85.47l-.137.123c-1.856 3.264-6.13 4.274-9.585 2.309L-34.421-8.042l5.038-8.849L8.424 4.765" style="fill:#231916;fill-opacity:1;fill-rule:nonzero;stroke:none" transform="translate(572.811 1631.276)"/><path d="m0 0 9.694 5.584s4.329 2.444 7.155-2.525l48.824-85.212-14.021-8.027Z" style="fill:#231916;fill-opacity:1;fill-rule:nonzero;stroke:none" transform="translate(593.687 1655.073)"/><path d="m0 0 9.721 5.584s4.3 2.486 7.154-2.498l48.811-85.197-14.022-8.042z" style="fill:#231916;fill-opacity:1;fill-rule:nonzero;stroke:none" transform="translate(612.815 1666.01)"/><path d="m0 0-22.186-30.337 15.851-11.62 18.514 25.3c3.905 5.311 2.512 12.93-3.058 17.026l-70.22 51.336-6.13-8.315L4.615-9.162" style="fill:#231916;fill-opacity:1;fill-rule:nonzero;stroke:none" transform="translate(1415.591 1582.615)"/><path d="m0 0 58.818-43.035 6.117 8.343L6.117 8.328z" style="fill:#231916;fill-opacity:1;fill-rule:nonzero;stroke:none" transform="translate(1377.636 1676.208)"/><path d="M0 0c-7.291 5.324-8.984 15.414-3.769 22.542 5.202 7.099 15.333 8.56 22.61 3.249 7.291-5.338 8.956-15.456 3.741-22.528C17.394-3.864 7.249-5.325 0 0m23.92 32.904c-15.264 11.155-34.242 11.142-42.381 0-8.15-11.141-2.415-29.219 12.849-40.387 15.224-11.141 34.174-11.141 42.353.028 8.151 11.14 2.389 29.218-12.821 40.359" style="fill:#231916;fill-opacity:1;fill-rule:nonzero;stroke:none" transform="translate(1388.722 1630.047)"/><path d="m0 0 6.02 8.193-11.919 8.71-6.007-8.219z" style="fill:#231916;fill-opacity:1;fill-rule:nonzero;stroke:none" transform="translate(1465.618 1593.483)"/><path d="m0 0-9.981-13.613-15.838 11.605 9.953 13.6z" style="fill:#231916;fill-opacity:1;fill-rule:nonzero;stroke:none" transform="translate(1426.91 1665.355)"/><path d="m0 0 11.783-8.587s3.988-2.936.601-7.551l-29.437-40.291-15.797 11.551z" style="fill:#231916;fill-opacity:1;fill-rule:nonzero;stroke:none" transform="translate(1455.254 1636.818)"/><path d="m0 0-1.597 9.025 14.486 2.621 1.639-9.01z" style="fill:#231916;fill-opacity:1;fill-rule:nonzero;stroke:none" transform="translate(793.544 1715.776)"/><path d="m0 0-1.639 9.011 14.514 2.621 1.639-9.011z" style="fill:#231916;fill-opacity:1;fill-rule:nonzero;stroke:none" transform="translate(797.6 1693.535)"/><path d="M0 0c-6.595-1.161-14.187 10.185-16.958 25.395-2.744 15.237.368 28.521 6.977 29.724 6.607 1.173 14.199-10.187 16.958-25.383C9.734 14.514 6.621 1.229 0 0m-11.757 64.963c-16.548-3.005-26.923-22.174-23.169-42.831 3.727-20.658 20.18-34.967 36.714-31.964 16.562 2.977 26.937 22.16 23.17 42.831C21.23 53.658 4.765 67.98-11.757 64.963" style="fill:#231916;fill-opacity:1;fill-rule:nonzero;stroke:none" transform="translate(776 1674.257)"/><path d="m0 0 11.06 2.008s4.846.9 5.871-4.779l17.503-96.612-15.906-2.894z" style="fill:#231916;fill-opacity:1;fill-rule:nonzero;stroke:none" transform="translate(802.746 1745.718)"/><path d="m0 0 11.059 1.98s4.847.9 5.899-4.752l17.489-96.625-15.905-2.867z" style="fill:#231916;fill-opacity:1;fill-rule:nonzero;stroke:none" transform="translate(824.456 1749.65)"/><path d="m0 0 16.247 64.866-18.65 4.644L-18.35 5.885l-.028-.151c-.941-3.673 1.489-7.332 5.325-8.287L34.01-14.35l2.527 10.022L-7.318 6.649" style="fill:#231916;fill-opacity:1;fill-rule:nonzero;stroke:none" transform="translate(1173.627 1684.742)"/><path d="m0 0 42.939-10.758L45.438-.737 5.734 9.23Z" style="fill:#231916;fill-opacity:1;fill-rule:nonzero;stroke:none" transform="translate(1175.69 1742.51)"/><path d="m0 0 2.553 10.227 14.294-3.591-2.553-10.2Z" style="fill:#231916;fill-opacity:1;fill-rule:nonzero;stroke:none" transform="translate(1238.071 1705.345)"/><path d="m0 0 10.868-2.704s4.792-1.173 3.428-6.744l-23.881-95.273-15.673 3.946z" style="fill:#231916;fill-opacity:1;fill-rule:nonzero;stroke:none" transform="translate(1232.869 1740.065)"/><path d="m0 0 10.867-2.704s4.834-1.215 3.429-6.773l-23.867-95.272-15.674 3.932z" style="fill:#231916;fill-opacity:1;fill-rule:nonzero;stroke:none" transform="translate(1254.25 1734.728)"/><path d="M950.558 1730.809h110.579v-9.776H950.558ZM1040.111 1713.209h-82.562v-9.557h82.562z" style="fill:#231916;fill-opacity:1;fill-rule:nonzero;stroke:none"/><path d="M0 0v13.803h-20.288V1.447c0-3.864 3.344-6.964 7.413-6.964H76.46v9.585H-9.475" style="fill:#231916;fill-opacity:1;fill-rule:nonzero;stroke:none" transform="translate(977.919 1677.766)"/><path d="M1040.111 1697.139h-82.562v-9.571h82.562z" style="fill:#231916;fill-opacity:1;fill-rule:nonzero;stroke:none"/><path d="M0 0c0 3.878-3.358 6.964-7.414 6.964h-12.821v-25.669H0Z" style="fill:#231916;fill-opacity:1;fill-rule:nonzero;stroke:none" transform="translate(1054.379 1706.273)"/><path d="M1016.518 1707.68h-21.873v21.531h21.873z" style="fill:#231916;fill-opacity:1;fill-rule:nonzero;stroke:none"/><path d="M0 0s-31.348 31.102-33.532 33.273c-2.145 2.198-5.271 4.723-10.869 4.723h-20.985L-103.247 0c-.136-.151-.15-.341-.136-.519.122-.492.573-.887 1.106-.887h20.11c1.229 0 2.567.764 3.264 1.542l27.279 27.389L-24.63.136c.696-.778 2.02-1.542 3.235-1.542H-.928c.49 0 .969.395 1.051.887A.603.603 0 0 1 0 0" style="fill:#231916;fill-opacity:1;fill-rule:nonzero;stroke:none" transform="translate(1057.41 1741.54)"/><path d="m0 0 3.195 43.281 1.106 23.771L2.17 99.395l-.792 35.431 6.609 33.001-3.113 27.634 2.43 20.767.191 29.395-4.163 28.7 3.18 28.562-2.457 37.411-28.209 1.42-23.879.86-22.61.204-134.417-.355-25.478-2.238h-25.054l-25.312 1.652-25.518-.123-25.369-3.66-25.819 3.947-25.436-1.407 2.895-28.113-.519-39.812-2.499-29.232 1.475-29.437 1.843-29.354-.246-28.864.192-29.191-.246-29.436 1.721-28.713-1.625-28.522-.178-39.623 25-.299 25.299 1.665 25.395-2.73 25.573-.192 25.505 1.461 24.289-.259 26.078-.328 134.363-2.854 24.903.82 24.863 1.025z" style="fill:#231916;fill-opacity:1;fill-rule:nonzero;stroke:none" transform="translate(952.62 1033.219)"/><path d="m0 0 3.236 43.281 1.12 23.771-2.211 32.343-.753 35.431 6.595 33.001-3.112 27.634 2.47 20.767.178 29.395-4.151 28.7 3.142 28.562-2.432 37.411-28.18 1.42-23.934.86-22.57.204-134.43-.355-25.45-2.238h-25.04l-25.34 1.652-25.533-.123-25.368-3.66-25.846 3.947-25.381-1.407 2.812-28.113-.491-39.812-2.43-29.232 1.447-29.437 1.911-29.354-.355-28.864.287-29.191-.369-29.436 1.761-28.713-1.556-28.522-.246-39.623L-355.191 0l25.34 1.665 25.341-2.73 25.585-.192 25.478 1.461 24.275-.259 26.134-.328L-68.69-3.237l24.918.82 24.78 1.025z" style="fill:#9e9e9f;fill-opacity:1;fill-rule:nonzero;stroke:none" transform="translate(1353.783 1033.219)"/><path d="M0 0s14.241-11.319 19.866-2.854c5.652 8.506 16.985 8.506 14.172 19.824-2.88 11.347-8.52 17.026-19.797 25.532C2.813 51.008-34.01 65.208-45.396 65.208c-11.306 0-16.944 2.798-33.998-2.881-16.998-5.625-19.824-8.465-42.489-25.491-22.692-17.025-45.371-28.33-45.371-51.049 0-22.652 19.866-51.023 22.679-67.994 2.839-17.012 28.372-48.211 36.851-53.89 8.506-5.653-2.853 0 25.545-5.653 28.317-5.638 25.477-5.638 48.169-5.638 22.692 0 42.489 0 51.05 8.437 8.478 8.533 8.478 17.053 11.346 22.72 2.772 5.652 16.985 25.504 11.291 34.024C34.038-73.729 8.479-76.555 0-76.555c-8.492 0-16.97-2.839-22.677-11.345-5.667-8.48-16.986-5.64-25.506-8.48-8.519-2.839-19.864 2.84-31.211 5.653-11.277 2.827-19.824 16.998-19.824 28.372 0 11.305 5.707 34.01 17.039 45.355 11.319 11.279 2.785 8.48 22.65 17C-39.663 8.506-16.97 8.506-16.97 8.506z" style="fill:#f9cd00;fill-opacity:1;fill-rule:nonzero;stroke:none" transform="translate(811.198 1247.59)"/><path d="m0 0-3.986-12.903 19.824-9.913 9.954-1.992 15.864 9.911L43.622 0s6.022 4.928-5.951 12.902c-11.879 7.947-19.812 15.851-19.812 15.851H11.92l-5.993-13.94-1.968-9.885Z" style="fill:#fff;fill-opacity:1;fill-rule:nonzero;stroke:none" transform="translate(1140.517 1329.265)"/><path d="m0 0 8.52 6.595s0 6.662-.928 9.475c-.942 2.88.928 6.649-5.679 11.386-6.595 4.698-10.363 7.537-14.132 8.52-3.768.928-13.243 6.623-17.981 7.523-4.697.969-9.421 1.885-16.986 1.885-7.564 0 0 1.952-13.257-.916-13.202-2.894-6.758 3.005-15.674-6.512-8.861-9.57-9.83-11.469-12.697-20.903-2.84-9.475 2.867-25.504 5.72-33.997 2.8-8.548 3.742-7.565 13.203-13.216 9.448-5.694 15.141-6.677 22.705-10.431 7.565-3.783 12.289-7.565 20.808-7.565 8.466 0 10.391-.915 16.003.928 5.693 1.913 12.288 2.854 12.288 2.854l1.883-4.697-5.653-6.649S-24.562-67.994-30.2-68.908c-5.681-.957-15.115-2.854-21.765-5.721-6.607-2.84-14.13-10.363-16.015-16.044-3.891-11.646-6.648-10.376-9.447-21.722-1.844-7.372-7.592-23.647-5.667-33.096 1.885-9.406 4.711-32.126 14.145-42.516 9.408-10.418 11.374-14.173 18.923-17.941 7.538-3.836 44.387-8.52 51.939-7.549 7.563.914 16.192 1.719 25.504 2.825 0 0 20.124 4.765 25.532 9.463 5.447 4.696 14.199 8.492 17.039 12.233 2.839 3.796 7.085 13.325 11.345 21.777 5.639 11.345 2.731 27.06 4.684 33.055 2.853 8.519-1.857 20.766-1.857 26.433 0 5.679-16.07 15.155-24.603 16.07-8.507.968-19.812-8.48-23.593-16.986-4.519-10.131-.969-23.66-1.885-31.169-.586-4.698-8.601-27.744-22.691-30.285-16.07-2.785-32.168-3.727-40.646.957-6.268 3.509-13.23 21.75-11.305 26.501 1.897 4.696-1.612 9.707 9.434 20.767 11.305 11.372 14.145 17.967 19.825 22.677 5.665 4.71 17.954 9.463 20.78 12.276 8.111 8.082 24.603 25.544 27.416 36.89 2.28 8.984 1.911 17.928-2.813 27.362-4.751 9.421-15.128 14.2-25.559 12.288-10.377-1.856-21.682-15.129-24.507-16.057-2.84-.928-14.213-.928-23.634 1.911-9.462 2.787-11.401 3.769-12.344 10.364-.941 6.636-3.713 13.243-.941 17.981 2.88 4.725 4.737 8.466 11.36 10.349 6.649 1.885 18.937 5.721 22.719 1.885 3.754-3.768 6.157-5.639 9.707-10.391C-5.639.997 0 0 0 0" style="fill:#fff;fill-opacity:1;fill-rule:nonzero;stroke:none" transform="translate(1168.875 1255.1)"/><path d="m0 0-20.235 38.133-11.646 20.631-18.923 26.133-19.402 29.478-11.92 31.225-17.257 21.68-8.889 18.788-15.442 24.808-18.691 22.064-12.438 25.709-21.914 30.243-24.48-13.763-20.562-11.919-19.142-11.797-113.077-71.434-20.235-15.361-21.135-13.23-22.255-12.028-21.464-13.626-19.359-16.534-23.853-10.309-20.671-14.636 17.258-22.2 20.657-33.792 13.422-25.928 16.861-24.057 17.081-23.785 14.977-24.358 15.689-24.507 15.291-24.917 16.699-23.266 13.734-24.903 20.74-33.465 21.218 12.944 20.479 14.8 22.842 11.142 21.628 13.379 20.739 14.732 20.629 12.643 22.119 13.517 114.729 68.65 20.59 13.898 19.783 14.405z" style="fill:#e8470b;fill-opacity:1;fill-rule:nonzero;stroke:none" transform="translate(1390.989 708.774)"/><path d="M0 0c2.075 3.413 4.355 8 6.854 13.598l1.188 1.489 3.687 5.612c2.347 4.628 4.163 8.615 5.61 11.878l2.704 2.785 3.358 3.919c2.404 3.536 4.069 6.143 4.943 7.946.833 1.802 1.543 3.249 2.062 4.397 2.129-.083 3.522-.083 4.383 0 .751.054 1.883.272 3.372.599l9.612 3.441 10.24 3.154c6.799 2.131 11.373 3.1 13.585 3.005 1.064-.055 4.26.341 9.653 1.269l8.056 1.365-2.882-11.154c-2.361-9.312-3.631-15.402-3.713-18.227l-2.28-7.552-2.376-7.658-2.785-10.704L72.636.573c-.206-.641-.301-1.16-.327-1.652-.083-1.625.573-2.471 1.937-2.513 6.636 1.939 10.528 4.916 11.62 8.889l1.065 1.926c2.376 4.123 3.972 7.454 4.806 9.898 2.007 4.874 3.768 7.988 5.242 9.38l.164 4.151c1.352 1.925 2.785 5.639 4.411 11.346 1.488 5.338 2.894 9.119 4.273 11.331l2.581 8.125 2.43 7.045 4.778 3.426c.82 1.12 1.461 2.596 1.925 4.547l.069.915c0-.56-.71.683-2.089 3.727l1.897 11.264c1.312 3.1 2.281 5.449 2.84 7.005.656 2.69 1.148 4.737 1.503 6.034.301 1.229.533 2.389.533 3.332.04.655 0 1.338-.123 1.979l-.109 3.018 1.132 3.386 1.433 4.068 3.4 17.872c.232 1.257.355 2.062.355 2.472 0 3.495-.942 6.486-2.744 8.821-.682 1.255-1.665 2.266-2.935 2.922l-4.916 2.688c-2.252 1.215-3.672 2.145-4.246 2.827-.478.287-.655.846-.641 1.584v.423l4.71 7.454c2.048 3.182 3.386 5.475 4.096 6.869.423.887.832 1.692 1.147 2.293v.218c.054.684-.559 1.516-1.857 2.595-1.543.955-3.031 1.584-4.532 1.584-1.421.055-2.759-.287-4.056-.983l-5.175-2.922-5.406-3.427-4.642-1.188c-2.472-5.612-6.076-8.821-10.786-9.64-2.541-.422-4.383-1.092-5.517-1.992-1.147-.888-2.908-2.787-5.338-5.762 0-.997.246-2.09.956-3.319l1.064-2.089-1.229-1.064c-5.885-3.359-11.592-10.868-17.202-22.652-2.759-5.624-5.08-9.652-7.033-12.137-4.504-5.557-7.713-10.362-9.584-14.281l-4.683-9.449c-2.198-2.307-4.683-5.816-7.427-10.431-.779-.969-2.157-2.867-4.123-5.598-.424-.628-.807-1.269-1.271-1.98-5.378.232-9.83-1.802-13.297-6.088-3.673-4.506-6.226-9.463-7.632-14.815a19.267 19.267 0 0 1-.616-3.618 1.936 1.936 0 0 1 .192-.969c.382-.956 1.338-1.543 2.976-1.748.491.259 1.407.382 2.963.342-.491-1.488-2.294-4.82-5.515-10.117-2.8-4.547-4.725-8.602-5.859-12.001-.954-.206-3.057-3.578-6.28-10.296l-2.375-4.668-2.69-5.83-1.925-4.753c-.137-.845-.328-1.788-.342-2.894-.082-2.116.479-3.194 1.72-3.277 1.735-.054 4.425.424 8.07 1.407C-4.328-6.048-2.458-3.959 0 0m78.056 75.749-5.338-.232-5.844.273-5.748-.206-5.585-.422-4.601-.984-2.799.847-2.047.805c.914 2.882 3.74 6.458 8.615 10.91.519.246 1.407 1.501 2.622 3.713 0 .273.409.969 1.269 2.198 0 .246.15.561.533.902 2.484 3.208 5.283 7.659 8.464 13.366 1.762 2.267 3.251 4.124 4.575 5.598l4.641 5.256 4.151 6.513c1.475 2.28 3.263 4.478 5.271 6.609 1.98 2.061 3.822 3.112 5.502 3.045 2.403-.123 4.669-1.625 6.758-4.452 1.788-2.581 2.894-5.202 3.263-7.781l.628-2.499.847-1.243-3.059-10.159-.71-5.065c-.027-.874 0-1.966.082-3.154l-2.171-4.478-.6-7.414c-1.147-4.382-2.13-7.332-3.196-8.738l-.272-.955c-5.025.218-10.09-.492-15.251-2.253" style="fill:#231916;fill-opacity:1;fill-rule:nonzero;stroke:none" transform="translate(1103.667 674.067)"/><path d="m0 0 1.544 7.483.968 3.904 3.687 3.223 4.533 4.178c1.065.954 1.788 2.129 2.131 3.521l3.945 3.36 4.329 3.905 4.081 4.464c2.308 2.567 3.987 4.097 5.052 4.601l.123 3.633-.123 1.693.273 1.651 4.492 2.99 5.435 3.195c3.781 2.745 7.291 4.014 10.498 3.878 4.629-.219 8.97-3.099 13.026-8.629.478-1.557 1.133-2.362 1.911-2.417.846-1.379 1.243-3.209 1.12-5.489 1.707-2.115 2.485-5.324 2.335-9.653-.151-2.566-.751-5.844-1.79-9.803-.559-2.129-3.112-7.072-7.59-14.635L52.962-6.759l.369-2.361c.9-.014 2.702.559 5.297 1.829.587.205 1.27.532 2.157 1.011L72.268.397c2.28 1.282 5.611 3.495 9.871 6.676.587.779 1.065 1.338 1.352 1.693.314.15.778.301 1.229.436.478-.04.764-.204.956-.519l-.069-.587c0-.177-.123-.682-.314-1.596l-.259-1.447c.245-.479.382-1.38.313-2.69-.068-1.844-.3-3.401-.654-4.587l-3.1-3.128c-1.884-1.911-2.95-3.413-3.277-4.438-.272 0-4.054-2.046-11.305-6.294l-12.193-7.112c-2.224-.601-4.969-1.681-8.3-3.305l-8.343-3.986c-2.007-.519-3.467-.765-4.383-.67-2.621.028-4.833.547-6.69 1.447-1.406 1.189-2.183 2.813-2.238 4.956 1.76 3.782 2.743 5.954 2.921 6.486 1.051 1.83 2.731 4.696 5.038 8.684l8.301 14.09c1.366 2.075 2.799 5.721 4.383 10.855.438 2.539.696 4.381.738 5.733.027.902-.042 2.089-.369 3.55-.615 3.318-2.212 5.134-4.847 5.231-2.622-.507-5.243-1.572-7.865-3.251l-8.451-7.701c-1.611-1.856-2.908-3.207-4.069-4.191-.845-.669-2.171-1.651-3.795-2.908l-3.373-2.757L10.173 6.5 6.649 3.578 2.266-.327-.287-1.883Z" style="fill:#231916;fill-opacity:1;fill-rule:nonzero;stroke:none" transform="translate(1217.058 701.36)"/><path d="M0 0c5.011 18.841 11.263 33.327 18.8 43.431l.055 1.788L6.867 35.171l-12.834-9.953-13.804-10.145.206 3.917 1.201 5.927c.601 2.922 1.707 5.051 3.277 6.403l7.4 6.144 6.417 4.998c7.072 6.771 11.879 11.509 14.377 14.171 3.249 3.154 9.243 9.531 18.09 19.06 4.765 5.38 7.632 9.231 8.603 11.455l-3.263.123-11.414.765-11.947.656-.916-.205c-2.143.396-4.273 1.201-6.512 2.307-1.843.943-2.662 1.857-2.662 2.704 2.238 8.833 4.587 14.048 6.922 15.509 1.106.697 3.959.848 8.71.574l21.996-1.393 1.98-.6 5.134.697c1.378-.41 2.198-.739 2.512-1.066 3.33.327 6.143 1.843 8.438 4.684l8.355 10.24c3.564 4.286 6.663 6.962 9.299 8.013l2.429-.532.683-.519c2.13-1.037 3.154-2.676 3.085-4.928 0-.561-.149-1.134-.341-1.679l-1.638-4.478-3.387-4.944-2.238-3.495-.014-.519c-.068-1.092.369-1.925 1.215-2.567.861-.642 1.271-1.405 1.257-2.347l-.028-.697c-1.871-4.07-3.441-8.97-4.833-14.719-.368-1.597-1.229-2.553-2.581-2.866l-5.324-.397c-2.198-.259-3.701-.545-4.41-.983-.246-.41-.492-.791-.752-1.187a111.13 111.13 0 0 0-2.061-3.755l-3.222-5.625-21.614-40.974c-.641-1.433-1.61-3.618-2.88-6.335-2.034-4.328-3.441-8.001-4.397-11.115l-.081-2.688c-.096-.63 0-1.175.15-1.639 2.621-.137 5.12.464 7.537 1.693l8.286 6.608 7.033 4.942 6.962 4.205c.642.574 1.666 1.148 3.127 1.721.219.069.397.246.56.465.82-.069 1.175-.519 1.161-1.475-.055-.901-.164-1.748-.383-2.472-1.201-4.396-2.662-7.742-4.315-10.157-1.201-1.762-4.178-4.343-9.092-7.905l-9.995-7.319-3.754-1.898C18.568-10.923 10.117-16.33 7.291-16.685 1.283-13.49-1.598-9.599-1.421-5.011l.069 1.542z" style="fill:#231916;fill-opacity:1;fill-rule:nonzero;stroke:none" transform="translate(1315.772 678.805)"/><path d="m0 0 1.405 2.731 1.338 9.353c1.174 3.29 3.905 6.185 8.138 8.532.533.397 1.912 1.189 4.218 2.458l6.404 4.547 6.514 5.202 6.266 5.025c1.201.422 2.526 1.174 3.85 2.293l6.854 5.448 11.21 9.352 6.185 4.343c1.447 1.023 3.344 1.501 5.611 1.433 7.155-.341 10.608-3.344 10.39-8.888a31.101 31.101 0 0 0-.641-3.618c-1.27-4.67-2.349-7.414-3.346-8.288l-.559-2.362c-.915-3.305-2.335-7.087-4.383-11.21-.737-1.842-1.761-3.877-3.141-6.088l-5.652-9.408-4.218-7.223c-2.171-3.618-3.755-6.827-4.766-9.434l.738-1.447c.791-.028 3.877 1.802 9.271 5.338l8.506 5.626c6.676 6.607 10.704 9.844 11.987 9.816l.846-1.024-1.174-1.68-1.147-2.279-.327-8.219c-.383-1.215-1.911-2.773-4.561-4.575l-4.314-3.85c-.71-.778-2.361-2.13-4.874-3.946a61.34 61.34 0 0 0-7.291-4.628l-14.978-7.797c-4.464-2.28-8.191-5.134-11.223-8.615l-5.858-2.198-2.034-1.092-2.184-1.065c-1.925.054-3.168.464-3.563 1.092-.151.492-.178 1.065-.178 1.652.041.834.178 1.72.355 2.703a29.768 29.768 0 0 0-.738 8.671c.137 3.986.888 8.287 2.199 12.956l-.151 1.653.097 1.42c.859 2.812 2.702 5.052 5.406 6.69 2.771 1.625 4.888 2.444 6.376 2.376 1.256-.055 1.898-.902 1.967-2.418l.327-2.553.518.506c1.025-.056 2.868 2.99 5.516 9.161l2.431 7.591c1.119 3.564 2.034 6.909 2.922 9.994l.874 3.251.041.6c0 .778-.315 1.379-.888 1.925l-1.639.518c-1.487-.436-2.375-.805-2.716-1.064l-4.752-3.428-3.891-2.648C27.047 18.897 18.936 13.353 9.16 6.5 7.235 4.861 4.668 2.95 1.419.819 1.106.71.642.383 0 0" style="fill:#231916;fill-opacity:1;fill-rule:nonzero;stroke:none" transform="translate(1367.519 692.212)"/><path d="M0 0c0-9.23-7.483-16.699-16.685-16.699-9.243 0-16.712 7.469-16.712 16.699 0 9.216 7.469 16.698 16.712 16.698C-7.483 16.698 0 9.216 0 0" style="fill:#231916;fill-opacity:1;fill-rule:nonzero;stroke:none" transform="translate(349.565 1285.873)"/><path d="M0 0c0-9.23-7.483-16.699-16.712-16.699-9.23 0-16.698 7.469-16.698 16.699 0 9.216 7.468 16.698 16.698 16.698C-7.483 16.698 0 9.216 0 0" style="fill:#231916;fill-opacity:1;fill-rule:nonzero;stroke:none" transform="translate(1680.795 1285.873)"/></g></g></svg>