<svg xmlns="http://www.w3.org/2000/svg" xml:space="preserve" width="511.14529" height="500" viewBox="0 0 511.14529 499.99999"><path d="M209.775 458.274c.922 1.274 2.162 2.035 3.717 2.284 1.555.25 2.97-.088 4.245-1.01 1.273-.922 2.034-2.162 2.282-3.717.25-1.556-.086-2.97-1.01-4.243-.92-1.275-2.16-2.037-3.715-2.286-1.557-.249-2.97.087-4.246 1.01-1.273.923-2.035 2.16-2.285 3.717-.247 1.556.09 2.97 1.012 4.245zM487.705 465.582c.987-1.223 1.397-2.62 1.229-4.186-.17-1.566-.864-2.842-2.09-3.83-1.224-.987-2.62-1.397-4.186-1.228-1.567.167-2.842.864-3.83 2.089-.987 1.223-1.397 2.62-1.229 4.186.168 1.566.864 2.843 2.089 3.83 1.225.988 2.62 1.398 4.187 1.228 1.566-.168 2.842-.864 3.83-2.089z" style="fill:#5183ac;fill-opacity:1;fill-rule:nonzero;stroke:none;stroke-width:1.40425" transform="matrix(1.33333 0 0 -1.33333 -216.667 738.347)"/><path d="m372.994 460.534 16.851-.842 5.897-4.213v-1.686l1.687-.842v-1.686l1.684-.842.842-3.37 1.686-.842c.56-1.686 1.122-3.371 1.684-5.056l2.53-1.685c3.639-5.54 5.098-12.68 5.054-21.906-2.392-1.415-2.29-2.907-5.9-3.37-1.758 3.118-5.2 5.008-6.738 8.425-1.619 3.593-1.413 10.497-3.371 13.48-2.246 1.967-4.493 3.933-6.742 5.899-8.069.178-9.352-3.29-9.267-10.954h.842v-2.527c.225-.46 3.033-4.802 3.37-5.056h1.687c.56-.842 1.122-1.684 1.684-2.526 4.965-3.461 9.095-2.263 9.268-10.954-1.122-.842-2.246-1.684-3.368-2.528v-.843c-1.415-.975-1.934.018-3.37-1.684h-11.797v.842l-3.37.842a4535.275 4535.275 0 0 1-3.372 4.213c-1.121.282-2.246.562-3.368.843l-10.112 12.638-.842 6.74h-.842c-1.004 3.52.508 16.393 1.684 17.694v1.685c3.65 2.808 7.304 5.617 10.954 8.426 2.779 1.14 3.053-.52 5.055 1.685m-108.689-44.655c6.794.056 11.669-.183 16.008-2.528v-.842h1.685c.842-1.124 1.685-2.247 2.529-3.37l2.526-1.686.843-3.369c.561-.282 1.123-.562 1.685-.843.28-1.123.563-2.248.842-3.37h.842c.842-1.124 1.687-2.247 2.53-3.37l12.637-11.797c1.684-1.966 3.371-3.931 5.055-5.896h1.686v-.844c1.043-.81 1.633-.602 2.527-1.685 3.291-.214 10.266-1.18 14.323 0v.842h8.426v.843h3.37v.844h3.37v.842h10.112v.842h4.213v.842h2.526v.843h2.529v.843h2.528v.842h4.21v.842h1.687v.842h3.37v.844c4.493.28 8.989.56 13.481.843v.842h1.684v.842l7.584.842v.843h4.212v.844h2.53v.842l9.267.842v.842l10.109 1.687v.842l5.055.842v.842h1.686v.843h4.213v.843h3.371v.842h2.526v.842h2.529v.842l13.48 1.687v.842h1.684v.842c2.748 1.423 7.44 2.965 10.954 3.37 1.893-2.106 3.231-.808 4.213-4.212h.842v-3.37l-4.213-5.897h-1.684v-.844H468.2v-.843l-5.896-.842v-.842l-3.371-.842v-.844h-4.213v-.843c-1.684-.28-3.37-.56-5.055-.842v-.842l-3.37-.842v-.843h-4.213v-.844h-1.684v-.842h-4.213v-.842h-3.37v-.842h-6.742v-.843h-2.526v-.843l-6.741-.842v-.842h-1.684v-.842h-4.213v-.844h-3.37v-.843h-4.214v-.842h-5.896v-.842h-5.9v-.842c-7.021-.283-14.042-.562-21.064-.844v-.843h-3.368v-.842h-2.528v-.842h-2.529v-.842h-1.684v-.843c-4.775-.281-9.55-.561-14.325-.844v-.842h-2.529v-.842h-6.738v-.842h-2.528v-.843h-5.898v-.843l-11.796-.842v-.842c-5.335-.281-10.672-.563-16.008-.842v.842h-1.685v.842h-1.685v.842l-5.899 1.686c-.56.842-1.121 1.684-1.684 2.526h-1.685v.844c-.56.28-1.123.56-1.685.843v1.684c-.842.562-1.686 1.125-2.528 1.685v1.686c-.843.56-1.685 1.123-2.527 1.684v1.687h-.843v1.684h-.842v1.685h-.844v1.685c-.842.563-1.684 1.123-2.526 1.684v1.687h-.843c-.843 1.122-1.685 2.246-2.527 3.37h-1.686v.843c-.843.56-1.685 1.122-2.527 1.684l-.842 3.37-1.687.843v1.685h-.842l-.842 1.685h-1.685c-.866.648-1.505 2.54-2.528 3.371-.05 3.642.346 6.662.842 9.267 1.188.62 2.548 1.514 3.371 2.528m-50.553-36.23c9.98 1.984 21.925-.312 29.49-3.37h2.527v-.842l3.37-.842v-.844c3.089-.28 6.178-.56 9.268-.843v-.842h2.527v-.842h2.528v-.842l10.11-1.687c1.195-2.64 2.32-3.7 2.53-7.582-.96-.96-.338-.004-.844-1.685-1.743-.81-4.768-1.964-6.74-2.527h-9.268v-.844h-11.796v.844c-1.124.28-2.248.56-3.37.843v.842h-3.371v.842l-5.055 1.685v.844c-1.684.56-3.37 1.121-5.055 1.684l-.843 1.685h-1.686c-.28.56-.56 1.123-.842 1.685h-1.684l-1.686 2.528h-1.684v.843h-2.53v.842c-2.843 1.429-4.138.783-5.054 4.213h-.842v4.213m202.212-9.268c7.416 1.46 9.741-1.92 16.008-3.37 2.104-3.637 4.07-4.019 4.213-10.111-1.676-1.46-.71-1.946-1.687-3.37-1.121-.843-2.246-1.687-3.368-2.529l-.844-3.37-1.684-.842v-1.684c-.842-.563-1.684-1.125-2.529-1.687-.28-.842-.56-1.684-.842-2.526-1.964-1.687-3.93-3.37-5.897-5.058v-1.684l-1.686-.842v-1.686c-.842-.56-1.684-1.122-2.526-1.684v-1.684c-.563-.283-1.125-.562-1.687-.842-3.557-3.769-7.35-6.306-7.58-13.483 2.808-2.526 5.616-5.055 8.425-7.584.28-.56.559-1.121.842-1.684l7.583-2.528c1.404-1.684 2.809-3.368 4.213-5.055.56-.28 1.121-.562 1.684-.842v-1.684h.842c.806-1.04.617-1.63 1.686-2.529v-10.11h-.844c-.28-1.404-.56-2.808-.842-4.212-.999-.54-1.223-1.39-1.684-1.687h-1.687v-.842h-1.684c-.842-1.404-1.684-2.808-2.529-4.213-1.404-1.121-2.808-2.246-4.212-3.37-2.806-3.089-5.617-6.18-8.426-9.268a36643.9 36643.9 0 0 0-10.951-10.11c-.283-1.124-.563-2.248-.842-3.37h-.845l-.842-1.687h-1.684v-.842h-1.684c-.845-1.121-1.687-2.246-2.529-3.37h-1.687c-.56-.842-1.121-1.684-1.684-2.526-2.336-1.624-5.586-3.157-9.267-3.371-1.81 1.547-4.835-.074-7.584.842-1.914.639-3.4 2.433-5.054 3.37.28.843.562 1.685.842 2.53l6.741 5.054v1.684h.842c.562.842 1.122 1.687 1.684 2.529 1.125.28 2.25.562 3.37.842 3.934 4.212 7.864 8.425 11.797 12.638h1.684c.283.562.562 1.124.845 1.684 1.122.845 2.246 1.687 3.368 2.529 1.662 2.342 2.123 4.627 4.213 6.741l5.9 5.055v1.684l2.525 1.687c2.112 2.221 4.64 6.261 5.055 10.11-2.246 2.528-4.493 5.054-6.739 7.583l-2.529.842-2.526 3.37c-4.698 3.17-15.243 3.322-16.85 9.268-2.047 1.758-1.792 5.362-1.687 9.267h.844c.28 1.405.56 2.809.842 4.213l6.74 5.9v1.683c.844.563 1.686 1.125 2.528 1.684v1.687l1.684.842.842 3.371 9.27 8.425v1.684l2.526 1.687 1.687 5.055h.842l.842 3.37c.562.28 1.124.562 1.684.843a7038.59 7038.59 0 0 1 2.529 7.583m-62.35-6.741 10.113 1.685v-.843l5.054-.842c.563-.842 1.125-1.686 1.684-2.528h.842l1.687-9.269h.842c.428-1.82-.842-2.526-.842-2.526v-10.954c1.19-3.126 3.588-2.358 4.213-7.583-1.934-1.613-1.075-2.529-4.213-3.368-3.022-2.957-13.008 1.434-15.167 2.526l-3.37.842c-.28.842-.56 1.687-.843 2.528-1.38 1.528-.97 6.377-.842 9.268v2.529h.842v9.267h-.842c-.883 3.226.423 7.079.842 9.268m-64.876-15.166h-5.055v-.843c-2.996-.675-4.713-2.485-5.056-5.897 7.068.31 6.64 4.564 13.482 5.055 1.164-2.2 1.49-1.426 1.685-5.055-1.59-1.492-.776-1.462-1.685-3.37h-.844c-1.108-2.705-.006-7.982-2.527-9.268h-3.37c-.28 1.122-.562 2.246-.841 3.37h.842c.28 2.247.56 4.493.842 6.74h-.842c-2.304-2.754-5.957-1.537-9.268-.843-.282.842-.562 1.687-.843 2.529-1.86 2.04.276 5.134.843 7.582 3.286 1.781 5.12 3.937 10.11 4.213 1.021-1.793 1.898-1.834 2.527-4.213m47.184-1.685c.805-3.843.751-4.954-.842-8.426h-.844v-3.37h-.843c-1.182-3.47 1.21-2.749-1.684-5.055v-.842h-3.37c-.282 1.122-.563 2.246-.843 3.37h.842c.562 2.526 1.125 5.055 1.685 7.581h-.843c-2.01-3.346-9.709-3.993-10.951.845-1.86 2.04.275 5.134.842 7.582 3.287 1.781 5.12 3.937 10.11 4.213.796-1.518 1.167-1.326 1.684-3.37h-.842v-.843h-3.369v-.843c-2.674-1.39-4.22-1.83-5.056-5.055h-.843v-.842h.843v-.842h2.527c1.971 2.979 6.174 3.996 8.426 6.739 1.123-.28 2.246-.56 3.37-.842m-34.543 4.212c3.017.014 4.56-.425 6.738-.842.796-1.518 1.167-1.327 1.687-3.37 2.293-2.658-1.107-3.939-.843-6.742.28-.842.56-1.684.843-2.526h.842l-.842-5.054c-3.288-1.802-3.915-3.245-9.269-3.371v3.37c3.191 1.166 4.618.903 5.055 5.055h-2.527v.842h-.842v3.371c2.116 1.15 3.036 1.966 3.369 5.055-1.58.694-2.204 1.248-4.211 1.685v2.527m-43.814-21.905c-.701 3.84-.48 5.288 1.686 8.425l2.526 1.684c1.405 3.65 2.809 7.304 4.213 10.954h1.687c1.17-2.15 2.173-2.615 2.526-5.899h-.842l-.842-4.213h-.842v-1.684l-1.687-.842v-1.687h-.842v-1.684l-1.685-.842c-1.933-2.83-1.166-3.98-5.898-4.212z" style="fill:#2e557d;fill-opacity:1;fill-rule:evenodd;stroke:none;stroke-width:1.40425" transform="matrix(1.33333 0 0 -1.33333 -216.667 738.347)"/><path d="M284.667 448.458c2.526-.282 5.054-.563 7.583-.842v-.844h5.055v-.843h2.527v-.842h2.528v-.842h1.685v-.842h1.685c.28-.562.563-1.125.842-1.687h.842l.844-1.684h1.685l3.37-4.213h1.685l.842-1.685h1.686v-.843h1.684v-.842h1.686v-.842h1.685c.28-.563.561-1.125.842-1.686h1.686c.56-.843 1.123-1.685 1.685-2.527h1.684l4.213-5.055c.374-10.205-1.775-17.81-8.426-21.063v-.844h-5.897v-.843c-2.246-.583-6.71.834-7.583 1.687-2.601.592-3.585 1.64-4.213 4.212-1.658 1.95.104 5.475-.842 8.426l-5.898 13.48-5.056 4.213h-1.684v.842l-4.213.842-8.425 9.269c.483 1.693-.102.728.842 1.685.717 2.792 1.906 2.444 3.37 4.213z" style="fill:#5183ac;fill-opacity:1;fill-rule:evenodd;stroke:none;stroke-width:1.40425" transform="matrix(1.33333 0 0 -1.33333 -216.667 738.347)"/><path d="M346.514 541.937c-1.72-.045-3.236-.838-4.38-2.258-1.143-1.42-1.694-3.156-1.644-5.092a.702.702 0 0 1 0-.001c.052-1.936.692-3.64 1.91-4.997.876-.976 1.966-1.484 3.128-1.752l-7.234-.19a.702.702 0 0 1-.682-.72l.066-2.526a.702.702 0 0 1 .72-.684l3.617.093.006-.251-2.184-.058a.702.702 0 0 1-.684-.719l.066-2.528a.702.702 0 0 1 .72-.684l11.469.302.145-5.475a.702.702 0 0 1 .72-.682l2.626.069a.702.702 0 0 1 .682.72l-.23 8.703a.702.702 0 0 1-.72.683l-2.639-.07-.006.254 3.595.094a.702.702 0 0 1 .683.72l-.068 2.527a.702.702 0 0 1-.72.683l-7.23-.19c1.144.328 2.205.894 3.027 1.914 1.144 1.42 1.695 3.155 1.645 5.092a.702.702 0 0 1 0 .001c-.052 1.936-.694 3.638-1.91 4.997-1.218 1.356-2.772 2.07-4.493 2.025zm.036-1.403h.002c1.334.034 2.412-.447 3.41-1.56.998-1.114 1.509-2.44 1.553-4.097.043-1.658-.397-3.01-1.334-4.173-.938-1.164-1.99-1.703-3.324-1.738a.702.702 0 0 1-.002 0c-1.334-.035-2.411.448-3.409 1.56-.997 1.112-1.508 2.44-1.552 4.096v.001c-.043 1.657.397 3.012 1.333 4.173.937 1.164 1.991 1.702 3.323 1.738zm.038-1.403c-1.055-.029-2.011-.537-2.707-1.4-.695-.864-1.036-1.929-1.005-3.081.03-1.153.429-2.199 1.166-3.024.74-.823 1.722-1.283 2.778-1.255 1.055.027 2.01.538 2.705 1.4.696.862 1.038 1.927 1.007 3.08-.03 1.153-.428 2.199-1.168 3.023-.738.825-1.72 1.285-2.776 1.257zm34.53-.457a.702.702 0 0 1-.65-.558l-3.455-16.493a.702.702 0 0 1 .544-.83l9.36-1.962-1.702-8.11a.702.702 0 0 1 .543-.83l2.573-.539a.702.702 0 0 1 .83.543l3.83 18.28.028-.006-3.83-18.28a.702.702 0 0 1 .543-.83l2.571-.54a.702.702 0 0 1 .83.544l5.3 25.29a.702.702 0 0 1-.544.83l-2.57.539a.702.702 0 0 1-.83-.543l-.664-3.162-.028.006.662 3.162a.702.702 0 0 1-.543.83l-2.57.538a.702.702 0 0 1-.83-.544l-2.795-13.33-6.1 1.279 2.13 10.172 5.154-1.081a.702.702 0 0 1 .83.542l.52 2.474a.702.702 0 0 1-.543.832l-8.413 1.762a.702.702 0 0 1-.181.015zm-34.492-.946c.664.017 1.17-.207 1.692-.791.525-.584.788-1.254.81-2.122a.702.702 0 0 1 0-.002c.024-.868-.203-1.55-.695-2.16-.493-.612-.989-.862-1.65-.88-.665-.017-1.17.206-1.694.79-.524.585-.786 1.254-.809 2.123a.702.702 0 0 1 0 .001c-.023.868.202 1.55.695 2.16.492.612.988.862 1.652.88zm35.073-.586 7.039-1.476-.232-1.1-5.154 1.081a.702.702 0 0 1-.831-.543l-2.418-11.546a.702.702 0 0 1 .543-.83l7.475-1.566a.702.702 0 0 1 .83.543l2.796 13.33 1.195-.25-.662-3.161a.702.702 0 0 1 .543-.831l1.402-.293a.702.702 0 0 1 .83.543l.664 3.162 1.196-.252-5.012-23.915-1.196.252 3.83 18.28a.702.702 0 0 1-.543.83l-1.402.293a.702.702 0 0 1-.83-.544l-3.831-18.28-1.199.253 1.703 8.109a.702.702 0 0 1-.544.83l-9.36 1.962zm-71.207-.733a.702.702 0 0 1-.186-.023l-14.069-3.759a.702.702 0 0 1-.496-.86l.653-2.442a.702.702 0 0 1 .86-.496l10.853 2.9 4.566-17.095-.72-.192-2.575 9.633a.702.702 0 0 1-.86.497l-2.535-.678a.702.702 0 0 1-.497-.86l2.574-9.632-.72-.192-2.573 9.632a.702.702 0 0 1-.86.496l-2.535-.676a.702.702 0 0 1-.497-.86l2.572-9.633-1.627-.434a.702.702 0 0 1-.498-.86l.653-2.443a.702.702 0 0 1 .86-.496l14.991 4.004a.702.702 0 0 1 .497.86l-.655 2.442a.702.702 0 0 1-.858.497l-.247-.066-5.397 20.216a.702.702 0 0 1-.674.52zm-.501-1.561 5.398-20.215a.702.702 0 0 1 .858-.497l.246.066.292-1.087-13.635-3.641-.29 1.087 1.627.433a.702.702 0 0 1 .498.86l-2.572 9.631 1.18.315 2.573-9.631a.702.702 0 0 1 .86-.497l2.076.554a.702.702 0 0 1 .496.86l-2.574 9.633 1.18.315 2.575-9.633a.702.702 0 0 1 .86-.497l2.075.555a.702.702 0 0 1 .497.86l-4.93 18.451a.702.702 0 0 1-.86.497l-10.852-2.9-.29 1.085zm44.821-8.173.03-1.123-3.595-.094a.702.702 0 0 1-.683-.72l.044-1.657a.702.702 0 0 1 .72-.683l2.639.069.192-7.298-1.222-.032-.145 5.474a.702.702 0 0 1-.72.682l-11.469-.301-.03 1.123 2.186.057a.702.702 0 0 1 .684.721l-.044 1.657a.702.702 0 0 1-.72.682l-3.616-.093-.029 1.123zm67.125-.719a.702.702 0 0 1-.64-.403l-1.077-2.288a.702.702 0 0 1 .337-.934l1.408-.663c-.462-.237-.963-.36-1.383-.707-.86-.708-1.544-1.61-2.045-2.675-.802-1.703-.985-3.472-.517-5.194.453-1.676 1.47-2.94 2.92-3.665l-2.478 1.166a.702.702 0 0 1-.933-.337l-1.078-2.287a.702.702 0 0 1 .336-.934l9.3-4.379-2.572-5.464a.702.702 0 0 1 .337-.934l2.376-1.118a.702.702 0 0 1 .934.337l3.948 8.385a.702.702 0 0 1-.337.934l-9.605 4.522c1.483-.655 3.104-.633 4.686.085 1.624.738 2.872 2.006 3.674 3.71.501 1.066.759 2.167.756 3.28-.001.546-.223 1.01-.334 1.518.406-.19.784-.37 1.407-.663a.702.702 0 0 1 .935.335l1.077 2.288a.702.702 0 0 1-.337.935l-3.555 1.673.418.89a.702.702 0 0 1-.336.935l-2.375 1.117a.702.702 0 0 1-.933-.337l-.42-.889-3.6 1.695a.702.702 0 0 1-.294.066zm-73.292-.567-3.365-.088a.702.702 0 0 1-.682-.719l.042-1.655a.702.702 0 0 1 .72-.684l3.366.086a.702.702 0 0 1 .684.72l-.044 1.657a.702.702 0 0 1-.72.683zm73.625-1.07 3.597-1.694a.702.702 0 0 1 .933.337l.42.89 1.107-.521-.42-.89a.702.702 0 0 1 .338-.935l3.553-1.673-.479-1.017-1.362.642-.505.237-.185.087a.702.702 0 0 1-.923-.944c.353-.732.535-1.537.536-2.447.003-.897-.2-1.781-.624-2.681-.681-1.447-1.655-2.426-2.982-3.03-1.329-.603-2.473-.61-3.634-.062-1.163.547-1.885 1.433-2.265 2.841a.702.702 0 0 1-.002.001c-.382 1.408-.247 2.78.435 4.228.423.899.975 1.618 1.667 2.188.702.58 1.44.955 2.228 1.149a.702.702 0 0 1 .132 1.317l-2.045.96zm-74.289-.352.006-.252-1.962-.051-.006.251zm-76.565-1.176a.702.702 0 0 1-.356-.085l-2.309-1.251a.702.702 0 0 1-.283-.951l1.941-3.58-.823-.446a.702.702 0 0 1-.076.438l-1.204 2.223a.702.702 0 0 1-.951.282l-3.245-1.756-.6 1.11a.702.702 0 0 1-.952.283l-2.312-1.25a.702.702 0 0 1-.283-.953l.604-1.112-3.497-1.894a.702.702 0 0 1-.282-.95l1.204-2.221a.702.702 0 0 1 .95-.283l2.138 1.157.184-9.212a.702.702 0 0 1 .59-.678l2.412-.389a.702.702 0 0 1 .813.7l-.094 9.786 8.087-5.452a.702.702 0 0 1 1.032.288l.871 1.899 2.337-4.313a.702.702 0 0 1 .95-.283l2.309 1.251a.702.702 0 0 1 .283.951l-8.844 16.323a.702.702 0 0 1-.594.367zm-.305-1.653 8.174-15.09-1.074-.582-5.03 9.285a.702.702 0 0 1-.951.283l-1.944-1.053-.536.99 1.944 1.053a.702.702 0 0 1 .283.951l-1.941 3.58zm164.05-.165a.702.702 0 0 1-.641-.403l-6.34-13.466a.702.702 0 0 1 .337-.934l2.375-1.119a.702.702 0 0 1 .934.336l3.29 6.987 1.201-.565a.702.702 0 0 1 .935.336l1.077 2.287a.702.702 0 0 1-.337.935l-1.2.565 1.374 2.921a.702.702 0 0 1-.337.933l-2.374 1.12a.702.702 0 0 1-.295.067zm-10.71-.851a3.87 3.87 0 0 1-1.54-.367c-1.01-.459-1.791-1.256-2.284-2.298a.702.702 0 0 1-.002-.002c-.49-1.043-.605-2.152-.31-3.215a.702.702 0 0 1 0-.001c.296-1.06.97-1.901 1.922-2.35a.702.702 0 0 1 0-.002c.952-.448 2.03-.431 3.036.018 1.008.45 1.792 1.246 2.283 2.29.49 1.043.606 2.154.317 3.223-.289 1.07-.96 1.921-1.916 2.37a3.41 3.41 0 0 1-1.507.333zm11.042-.786 1.104-.52-1.375-2.922a.702.702 0 0 1 .337-.935l1.2-.564-.478-1.016-1.203.565a.702.702 0 0 1-.934-.337l-3.29-6.987-1.104.52zm-11.022-.618c.3.005.588-.059.89-.2.599-.282.952-.71 1.157-1.465.204-.758.137-1.473-.233-2.26-.37-.787-.876-1.29-1.582-1.605-.709-.316-1.265-.313-1.868-.029-.603.284-.957.71-1.166 1.457-.207.746-.142 1.456.228 2.242.372.786.88 1.295 1.594 1.62.358.162.68.236.98.24zm-157.065-.864.536-.989-2.384-1.292a.702.702 0 0 1-.059-1.198l8.114-5.483-.441-.96-8.51 5.737a.702.702 0 0 1-1.094-.589l.1-10.289-1.012.164-.197 9.776a.702.702 0 0 1-1.035.602l-2.533-1.37-.536.987 3.498 1.895a.702.702 0 0 1 .283.952l-.604 1.11 1.075.584.601-1.112a.702.702 0 0 1 .952-.283zm.7-2.496a.702.702 0 0 1 .075-.438l.566-1.046-1.505 1.017zm4.175-1.893 1.692-3.121-3.32 2.241zm146.218-4.443 11.04-5.197-3.35-7.115-1.104.52 2.572 5.463a.702.702 0 0 1-.337.934l-9.3 4.38zm42.327-3.726a.702.702 0 0 1-.534-.262l-1.58-1.972a.702.702 0 0 1 .108-.987l8.769-7.023-11.06-13.812-.58.465 6.232 7.782a.702.702 0 0 1-.109.988l-2.05 1.642a.702.702 0 0 1-.986-.109l-6.232-7.782-.581.465 6.231 7.782a.702.702 0 0 1-.108.987l-2.05 1.64a.702.702 0 0 1-.987-.108l-6.233-7.783-1.317 1.054a.702.702 0 0 1-.986-.11l-1.579-1.973a.702.702 0 0 1 .109-.986l12.111-9.699a.702.702 0 0 1 .987.109l1.58 1.971a.702.702 0 0 1-.109.987l-.198.159 13.08 16.331a.702.702 0 0 1-.109.988l-11.365 9.102a.702.702 0 0 1-.454.154zm.123-1.69 10.27-8.224-13.08-16.33a.702.702 0 0 1 .11-.988l.198-.158-.702-.877-11.016 8.823.702.877 1.317-1.055a.702.702 0 0 1 .986.109l6.233 7.782.952-.763-6.232-7.781a.702.702 0 0 1 .109-.987l1.677-1.344a.702.702 0 0 1 .987.109l6.233 7.783.952-.764-6.23-7.782a.702.702 0 0 1 .109-.988l1.677-1.341a.702.702 0 0 1 .986.108l11.937 14.906a.702.702 0 0 1-.108.987l-8.769 7.023zm-191.638-.482a.702.702 0 0 1-.356-.084l-2.31-1.25a.702.702 0 0 1-.283-.952l4.548-8.398a.702.702 0 0 1 .95-.282l12.385 6.71a.702.702 0 0 1 .282.952l-1.205 2.221a.702.702 0 0 1-.95.281l-9.458-5.122-3.009 5.556a.702.702 0 0 1-.594.368zm-.305-1.654 3.009-5.555a.702.702 0 0 1 .95-.283l9.457 5.123.536-.989-11.148-6.04-3.88 7.162zm-33.942-3.248a.702.702 0 0 1-.45-.177l-4.163-3.71-.84.943a.702.702 0 0 1-.992.057l-1.98-1.764a.702.702 0 0 1-.055-.991l.842-.942-4.219-3.758a.702.702 0 0 1-.057-.991l1.682-1.887a.702.702 0 0 1 .992-.057l2.363 2.103.524-6.936a.702.702 0 0 1 .67-.649l2.012-.088-1.052-.937a.702.702 0 0 1-.057-.992l1.682-1.886a.702.702 0 0 1 .992-.058l5.358 4.774 2.335-2.622a.702.702 0 0 1 .992-.057l1.96 1.748a.702.702 0 0 1 .057.991l-2.335 2.621 4.466 3.98a.702.702 0 0 1 .057.992l-1.681 1.886a.702.702 0 0 1-.992.057l-1.033-.92.142 2.048a.702.702 0 0 1-.57.739l-6.821 1.286 2.338 2.083a.702.702 0 0 1 .057.992l-1.682 1.888a.702.702 0 0 1-.542.234zm-.04-1.693.747-.84-2.88-2.564a.702.702 0 0 1 .337-1.215l7.613-1.435-.079-1.149-9.53 1.87a.702.702 0 0 1-.835-.742l.747-9.662-1.08.047-.584 7.731a.702.702 0 0 1-1.168.472l-2.898-2.583-.748.84 4.22 3.757a.702.702 0 0 1 .055.992l-.842.942.93.829.84-.943a.702.702 0 0 1 .992-.058zm-3.155-6.886 9.053-1.777-8.341-7.433zm11.716-1.287.747-.837-4.465-3.98a.702.702 0 0 1-.057-.992l2.335-2.62-.913-.814-2.335 2.622a.702.702 0 0 1-.991.057l-5.359-4.773-.747.837zm6.06-6.858a.702.702 0 0 1-.45-.177l-8.207-7.316-3.456 3.88a.702.702 0 0 1-.992.056l-1.961-1.746a.702.702 0 0 1-.057-.991l5.606-6.292a.702.702 0 0 1 .992-.057l10.691 9.529a.702.702 0 0 1 .058.991l-1.682 1.889a.702.702 0 0 1-.542.234zm-.04-1.693.749-.84-9.645-8.594-4.67 5.243.912.813 3.455-3.88a.702.702 0 0 1 .992-.058zm262.202-42.834a.702.702 0 0 1-.186-.032l-20.239-6.341a.702.702 0 0 1-.461-.878l.722-2.332a.702.702 0 0 1 .88-.461l11.691 3.663-10.382-8.824a.702.702 0 0 1-.217-.743l.767-2.482a.702.702 0 0 1 .88-.462l20.24 6.34a.702.702 0 0 1 .462.877l-.715 2.313a.702.702 0 0 1-.88.462l-11.691-3.662 10.383 8.822a.702.702 0 0 1 .216.743l-.776 2.504a.702.702 0 0 1-.694.493zm-.44-1.582L511.8 434l-12.662-10.759a.702.702 0 0 1 .664-1.204l14.314 4.484.3-.971-18.899-5.921-.423 1.368 12.662 10.76a.702.702 0 0 1-.664 1.205l-14.314-4.485-.308.991zm-318.312-7.695c-1.834.038-3.575-.27-5.199-.925-2.597-1.05-4.275-2.792-4.785-5.107-.413-1.89.054-3.795 1.305-5.561 1.246-1.759 3.01-3.14 5.239-4.134a.702.702 0 0 1 .972.5l.491 2.366a.702.702 0 0 1-.351.76c-.86.468-1.7 1.176-2.517 2.138-.74.873-.958 1.754-.71 2.89a.702.702 0 0 1 0 .002c.254 1.16 1.061 2.053 2.673 2.758 1.59.696 3.398.825 5.497.345a.702.702 0 0 1 .001 0c2.12-.484 3.705-1.385 4.848-2.699 1.157-1.333 1.513-2.503 1.255-3.676a.702.702 0 0 1 0-.001c-.252-1.153-.838-1.854-1.93-2.318-1.22-.513-2.26-.775-3.097-.813a.702.702 0 0 1-.655-.55l-.517-2.359a.702.702 0 0 1 .665-.852c2.43-.072 4.605.408 6.468 1.46l.001.002c1.874 1.056 3.097 2.58 3.512 4.47.506 2.313-.285 4.614-2.193 6.69-1.909 2.076-4.458 3.47-7.57 4.183a.702.702 0 0 1-.002 0 16.832 16.832 0 0 1-3.402.433zm-.03-1.403c.997-.02 2.036-.152 3.12-.398 2.888-.661 5.148-1.914 6.85-3.765 1.7-1.85 2.259-3.595 1.855-5.439-.328-1.496-1.218-2.64-2.83-3.548a.702.702 0 0 1-.002-.002c-1.39-.785-3.035-1.14-4.87-1.204l.225 1.024c.933.111 1.9.308 3.015.776a.702.702 0 0 1 .002.002c1.442.612 2.42 1.783 2.755 3.31v.002c.364 1.657-.222 3.348-1.566 4.897-1.359 1.563-3.251 2.612-5.596 3.146h-.002c-2.326.532-4.477.403-6.372-.426-1.874-.82-3.119-2.095-3.48-3.744-.327-1.494.025-2.94 1.008-4.1.771-.908 1.615-1.549 2.484-2.098l-.21-1.015c-1.624.855-2.961 1.89-3.89 3.202-1.08 1.525-1.407 2.955-1.08 4.45.407 1.847 1.632 3.174 3.939 4.106 1.443.583 2.984.857 4.645.824zm317.35-7.392c-1.438.039-2.932-.146-4.476-.546-3.084-.797-5.585-2.258-7.422-4.38-1.838-2.122-2.549-4.452-1.955-6.763.59-2.298 2.328-3.99 4.959-4.966 2.63-.975 5.524-1.049 8.612-.25 3.088.798 5.589 2.264 7.422 4.393 1.839 2.129 2.546 4.454 1.957 6.753-.59 2.31-2.332 4.006-4.961 4.976a12.893 12.893 0 0 1-4.136.783zm-.038-1.403a11.46 11.46 0 0 0 3.687-.699c2.338-.862 3.616-2.158 4.089-4.006.47-1.837-.025-3.593-1.661-5.487-1.631-1.895-3.845-3.21-6.71-3.951-2.865-.74-5.432-.661-7.772.207-2.34.867-3.618 2.164-4.088 3.999-.476 1.85.02 3.607 1.655 5.494 1.635 1.888 3.852 3.201 6.713 3.94 1.434.372 2.795.537 4.087.503zm-.628-.84c-1.055.03-2.149-.103-3.275-.395-2.25-.581-4.083-1.659-5.43-3.228-1.345-1.568-1.88-3.32-1.44-5.036.438-1.718 1.752-2.992 3.684-3.706 1.93-.715 4.056-.767 6.304-.185 2.251.58 4.087 1.654 5.432 3.217 1.346 1.561 1.887 3.31 1.447 5.027-.437 1.719-1.751 2.995-3.684 3.718a9.423 9.423 0 0 1-3.038.587zm-.041-1.404a7.986 7.986 0 0 0 2.587-.5c1.644-.615 2.497-1.493 2.817-2.748a.702.702 0 0 1 0-.002c.322-1.255-.005-2.434-1.152-3.763-1.142-1.328-2.692-2.252-4.72-2.774-2.024-.524-3.826-.467-5.466.14-1.64.607-2.49 1.484-2.811 2.74-.321 1.254.004 2.44 1.148 3.773 1.145 1.335 2.69 2.26 4.714 2.783 1.014.263 1.974.377 2.883.35zm-327.939-5.17a.702.702 0 0 1-.664-.626l-.266-2.485a.702.702 0 0 1 .61-.77l8.979-1.136-.586-4.898-8.97 1.132a.702.702 0 0 1-.783-.603l-.327-2.477a.702.702 0 0 1 .608-.788l21.09-2.66a.702.702 0 0 1 .785.612l.297 2.48a.702.702 0 0 1-.61.78l-7.893.995.584 4.899 7.882-.994a.702.702 0 0 1 .785.613l.298 2.48a.702.702 0 0 1-.61.779l-21.087 2.662a.702.702 0 0 1-.122.006zm.655-1.486 19.686-2.486-.13-1.087-7.883.993a.702.702 0 0 1-.785-.612l-.75-6.292a.702.702 0 0 1 .61-.779l7.892-.996-.13-1.087-19.688 2.484.144 1.086 8.978-1.133a.702.702 0 0 1 .785.613l.751 6.291a.702.702 0 0 1-.61.78l-8.986 1.136zm339.143-7.418a.702.702 0 0 1-.127-.016l-20.76-4.599a.702.702 0 0 1-.533-.836l.562-2.559a.702.702 0 0 1 .838-.535l20.76 4.597a.702.702 0 0 1 .533.836l-.562 2.56a.702.702 0 0 1-.71.552zm-.51-1.54.261-1.19-19.388-4.291-.261 1.188zm-334.064-6.24c-1.684-.045-3.349-.487-4.97-1.307-1.923-.969-3.053-2.56-3.12-4.514-.07-1.978.938-3.666 2.787-4.789 1.783-1.082 3.655-1.674 5.58-1.753a.702.702 0 0 1 .002 0l13.885-.557a.702.702 0 0 1 .73.677l.086 2.499a.702.702 0 0 1-.674.726l-13.94.561c-.993.038-1.813.316-2.534.843a.702.702 0 0 1-.001.002c-.705.511-.938.976-.917 1.598.02.586.28 1.02 1.012 1.476.741.463 1.58.676 2.594.635a.702.702 0 0 1 .001 0l13.941-.56a.702.702 0 0 1 .73.677l.086 2.497a.702.702 0 0 1-.674.727l-13.882.558c-.242.01-.482.01-.722.005zm.038-1.403c.21.005.419.004.628-.005l13.185-.53-.038-1.095-13.235.532c-1.252.051-2.407-.23-3.396-.848-.998-.623-1.635-1.551-1.672-2.618-.036-1.088.532-2.082 1.497-2.783.948-.69 2.072-1.063 3.305-1.11l13.242-.533-.038-1.096-13.179.529h-.001c-1.678.069-3.302.577-4.909 1.551-1.541.937-2.167 2.024-2.113 3.538.05 1.485.745 2.502 2.35 3.31 1.459.738 2.91 1.118 4.375 1.157zm318.297-1.704a.702.702 0 0 1-.126-.012l-3.09-.567a.702.702 0 0 1-.563-.816l1.867-10.236a.702.702 0 0 1 .816-.564l3.09.566a.702.702 0 0 1 .564.816l-.582 3.189 17.108 3.127a.702.702 0 0 1 .564.816l-.453 2.483a.702.702 0 0 1-.816.564l-17.109-3.13-.58 3.188a.702.702 0 0 1-.69.576zm-.564-1.519.58-3.188a.702.702 0 0 1 .816-.564l17.11 3.13.2-1.102-17.108-3.128a.702.702 0 0 1-.564-.816l.582-3.188-1.71-.314-1.615 8.856zm20.8-6.674a.702.702 0 0 1-.192-.03l-21.099-6.44a.702.702 0 0 1-.496-.687l.058-2.622a.702.702 0 0 1 .522-.662l21.37-5.659a.702.702 0 0 1 .882.694l-.055 2.5a.702.702 0 0 1-.523.663l-5.088 1.34-.124 5.539 5.015 1.512a.702.702 0 0 1 .5.688l-.056 2.479a.702.702 0 0 1-.713.685zm-.669-1.643.024-1.018-5.016-1.512a.702.702 0 0 1-.5-.689l.149-6.602a.702.702 0 0 1 .523-.662l5.087-1.34.023-1.039-19.958 5.285-.035 1.563zM200.842 378.9l-21.192-.912a.702.702 0 0 1-.67-.736l.114-2.417a.702.702 0 0 1 .732-.668l12.242.528-12.268-5.846a.702.702 0 0 1-.4-.667l.119-2.618a.702.702 0 0 1 .732-.669l21.19.91a.702.702 0 0 1 .671.734l-.113 2.439a.702.702 0 0 1-.732.669l-12.243-.527 12.268 5.846a.702.702 0 0 1 .4.666l-.117 2.599a.702.702 0 0 1-.733.67zm-.638-1.434.064-1.432-14.962-7.13a.702.702 0 0 1 .333-1.336l14.99.646.048-1.037-19.787-.85-.066 1.454 14.963 7.13a.702.702 0 0 1-.332 1.335l-14.992-.646-.047 1.015zm316.848-.53a.702.702 0 0 1-.187-.03l-8.505-2.52a.702.702 0 0 1 .026-1.354l8.61-2.18a.702.702 0 0 1 .875.698l-.105 4.7a.702.702 0 0 1-.714.686zm-.67-1.635.065-2.86-5.238 1.327zm-4.656-8.613c-2.43-.126-4.557-.783-6.332-1.983-1.784-1.205-2.88-2.825-3.144-4.74a.702.702 0 0 1 0-.001c-.322-2.35.648-4.58 2.716-6.495 2.066-1.915 4.716-3.1 7.875-3.557 3.16-.457 6.027-.07 8.531 1.187 2.505 1.255 4.04 3.128 4.365 5.478a.702.702 0 0 1 0 .001c.262 1.914-.356 3.777-1.74 5.438-1.382 1.652-3.248 2.886-5.547 3.698a.702.702 0 0 1-.93-.574l-.304-2.4a.702.702 0 0 1 .412-.729c.893-.396 1.786-1.034 2.678-1.929.805-.81 1.09-1.674.934-2.827-.162-1.176-.896-2.132-2.448-2.965-1.528-.825-3.318-1.1-5.445-.791-2.152.311-3.806 1.082-5.047 2.3-1.258 1.234-1.705 2.366-1.54 3.562.16 1.17.687 1.92 1.74 2.47 1.176.612 2.192.957 3.024 1.062a.702.702 0 0 1 .608.6l.327 2.397a.702.702 0 0 1-.732.797zm-.788-1.55-.142-1.043c-.922-.186-1.87-.459-2.943-1.018a.702.702 0 0 1-.002 0c-1.392-.725-2.272-1.974-2.484-3.524-.231-1.684.486-3.32 1.948-4.755 1.478-1.451 3.45-2.342 5.828-2.687 2.36-.341 4.493-.039 6.314.944 1.805.968 2.944 2.34 3.174 4.012.206 1.516-.259 2.928-1.33 4.006-.84.844-1.734 1.414-2.644 1.89l.13 1.032c1.686-.722 3.1-1.645 4.131-2.878 1.194-1.433 1.634-2.833 1.427-4.348-.26-1.876-1.377-3.3-3.603-4.416-2.227-1.117-4.768-1.476-7.7-1.052-2.93.423-5.28 1.493-7.122 3.199-1.842 1.707-2.535 3.398-2.279 5.272v.002c.21 1.516 1.005 2.732 2.537 3.768 1.326.896 2.937 1.384 4.76 1.596zm-317.402-2.033c-.752 0-1.523-.052-2.313-.157-3.16-.418-5.816-1.57-7.891-3.461-2.078-1.892-3.057-4.112-2.743-6.465.254-1.917 1.345-3.549 3.12-4.773 1.769-1.22 3.893-1.904 6.323-2.06a.702.702 0 0 1 .74.801l-.35 2.395a.702.702 0 0 1-.59.594c-.964.14-1.993.51-3.086 1.132-.99.56-1.493 1.313-1.647 2.467-.158 1.179.298 2.307 1.568 3.534 1.254 1.21 2.904 1.962 5.035 2.243 2.151.284 3.946-.009 5.461-.845 1.536-.848 2.265-1.817 2.424-3.015.156-1.173-.152-2.043-1.024-2.86-.965-.909-1.85-1.518-2.625-1.846a.702.702 0 0 1-.421-.74l.32-2.4a.702.702 0 0 1 .922-.57c2.303.783 4.175 1.994 5.565 3.63 1.393 1.646 2.019 3.504 1.763 5.422-.311 2.352-1.84 4.242-4.339 5.528-1.874.964-3.957 1.445-6.212 1.446zm0-1.403c2.058-.001 3.902-.433 5.57-1.29 2.224-1.145 3.341-2.589 3.59-4.466.202-1.518-.244-2.91-1.444-4.328-1.039-1.223-2.457-2.131-4.151-2.832l-.14 1.042c.839.43 1.68.953 2.563 1.784 1.147 1.077 1.66 2.517 1.454 4.068-.224 1.684-1.348 3.073-3.136 4.06-1.809.999-3.945 1.32-6.325 1.007-2.364-.312-4.334-1.185-5.826-2.624-1.474-1.425-2.208-3.054-1.984-4.73.202-1.515 1.025-2.756 2.345-3.504 1.033-.587 2.04-.892 3.04-1.106l.15-1.033c-1.813.237-3.418.743-4.736 1.653a.702.702 0 0 1 0 .002c-1.529 1.054-2.324 2.284-2.525 3.803-.251 1.879.447 3.558 2.297 5.242 1.846 1.683 4.198 2.72 7.13 3.107.733.097 1.442.146 2.128.145zm308.214-11.316a.702.702 0 0 1-.669-.54l-.574-2.43a.702.702 0 0 1 .515-.842l13.563-3.337c.97-.239 1.723-.676 2.33-1.336.592-.645.732-1.151.59-1.749-.136-.57-.473-.943-1.279-1.242-.816-.304-1.685-.347-2.67-.104l-13.568 3.34a.702.702 0 0 1-.85-.519l-.578-2.43a.702.702 0 0 1 .516-.843l13.51-3.324c1.877-.463 3.839-.413 5.842.135 2.075.566 3.495 1.9 3.945 3.8.453 1.924-.204 3.776-1.798 5.243-1.536 1.417-3.256 2.372-5.134 2.835a.702.702 0 0 1-.002 0l-13.509 3.322a.702.702 0 0 1-.18.02zm.534-1.552 12.82-3.153c1.638-.404 3.134-1.227 4.519-2.504 1.33-1.225 1.731-2.417 1.384-3.889-.34-1.442-1.217-2.297-2.948-2.77-1.802-.492-3.5-.53-5.136-.126a.702.702 0 0 1-.001 0l-12.835 3.158.252 1.064 12.88-3.17c1.217-.3 2.406-.256 3.497.15 1.103.41 1.909 1.197 2.155 2.233.252 1.06-.115 2.144-.922 3.024-.795.865-1.824 1.453-3.026 1.749a.702.702 0 0 1-.001 0l-12.888 3.171zm-298.058-2.62a.702.702 0 0 1-.126-.016l-20.75-4.505a.702.702 0 0 1-.536-.842l.557-2.439a.702.702 0 0 1 .834-.529l8.83 1.916 1.041-4.828-8.833-1.917a.702.702 0 0 1-.539-.826l.501-2.45a.702.702 0 0 1 .838-.545l20.75 4.505a.702.702 0 0 1 .537.833l-.529 2.444a.702.702 0 0 1-.835.537l-7.759-1.684-1.043 4.828 7.764 1.686a.702.702 0 0 1 .536.833l-.529 2.445a.702.702 0 0 1-.709.554zm-.514-1.537.231-1.072-7.762-1.686a.702.702 0 0 1-.536-.834l1.339-6.2a.702.702 0 0 1 .835-.538l7.76 1.685.23-1.071-19.37-4.206-.22 1.074 8.84 1.919a.702.702 0 0 1 .536.834l-1.337 6.2a.702.702 0 0 1-.835.538l-8.838-1.918-.244 1.071zm300-10.867c-1.535.012-2.883-.283-4.004-.926-2.053-1.177-3.377-2.37-3.807-3.793a.702.702 0 0 1 0-.002l-1.631-5.408a.702.702 0 0 1 .462-.871l20.318-6.355a.702.702 0 0 1 .882.467l1.631 5.407c.446 1.484.039 3.263-1.009 5.366-1.14 2.291-3.74 3.957-7.638 5.176-1.94.607-3.669.925-5.204.938zm-.012-1.404c1.349-.011 2.952-.296 4.798-.873 3.715-1.162 5.925-2.704 6.8-4.462a.702.702 0 0 1 0-.002c.967-1.942 1.202-3.4.92-4.336l-1.426-4.727-18.977 5.936 1.431 4.742v.002c.248.82 1.25 1.885 3.16 2.979.86.494 1.946.752 3.294.741zm-296.184-.699a.702.702 0 0 1-.186-.026l-20.411-5.864a.702.702 0 0 1-.482-.867l2.685-9.45a.702.702 0 0 1 .869-.483l2.992.858a.702.702 0 0 1 .482.868l-1.832 6.446 4.992 1.434 1.729-6.076a.702.702 0 0 1 .868-.483l2.852.819a.702.702 0 0 1 .482.867l-1.728 6.082 3.857 1.107 1.775-6.25a.702.702 0 0 1 .869-.483l3.02.867a.702.702 0 0 1 .482.867l-2.632 9.258a.702.702 0 0 1-.683.51zm297.397-.568c-1.048.035-2.036-.1-2.95-.417-1.819-.63-3.096-1.9-3.623-3.65l-.591-1.967a.702.702 0 0 1 .462-.871l14.744-4.614a.702.702 0 0 1 .882.465l.596 1.968a.702.702 0 0 1 0 .002c.522 1.731.196 3.484-.91 5.033-1.115 1.567-2.908 2.702-5.283 3.445-1.17.366-2.279.572-3.327.607zm-297.872-1.003 2.248-7.906-1.67-.479-1.776 6.25a.702.702 0 0 1-.868.484l-5.208-1.496a.702.702 0 0 1-.482-.867l1.729-6.082-1.503-.432-1.729 6.078a.702.702 0 0 1-.868.483l-6.342-1.822a.702.702 0 0 1-.482-.868l1.833-6.446-1.642-.472-2.302 8.1zm297.825-.4c.898-.03 1.883-.207 2.955-.542 2.18-.683 3.67-1.672 4.56-2.921.905-1.268 1.115-2.463.707-3.815l-.39-1.287-13.404 4.195.391 1.301c.409 1.36 1.252 2.213 2.738 2.728.736.255 1.545.37 2.443.34zm-11.292-9.596a.702.702 0 0 1-.664-.47l-3.187-9.049a.702.702 0 0 1 .422-.892l20.01-7.29a.702.702 0 0 1 .903.427l3.255 9.239a.702.702 0 0 1-.422.892l-2.934 1.07a.702.702 0 0 1-.902-.427l-2.217-6.294-4.897 1.784 2.097 5.952a.702.702 0 0 1-.422.892l-2.8 1.018a.702.702 0 0 1-.902-.427l-2.09-5.937-3.785 1.38 2.156 6.12a.702.702 0 0 1-.422.892l-2.96 1.077a.702.702 0 0 1-.24.043zm.425-1.604 1.64-.597-2.155-6.12a.702.702 0 0 1 .422-.892l5.104-1.86a.702.702 0 0 1 .902.426l2.09 5.937 1.48-.537-2.095-5.952a.702.702 0 0 1 .422-.892l6.215-2.265a.702.702 0 0 1 .903.426l2.216 6.295 1.614-.589-2.787-7.915-18.692 6.809zm-287.357-1.934c-1.772.022-3.599-.312-5.473-.992-2.999-1.087-5.35-2.783-6.98-5.078-1.631-2.292-2.123-4.674-1.323-6.908.803-2.246 2.692-3.771 5.4-4.489 2.709-.715 5.592-.51 8.59.577v-.002c2.998 1.086 5.351 2.78 6.985 5.067 1.634 2.29 2.122 4.674 1.32 6.919-.8 2.234-2.687 3.756-5.397 4.479a12.7 12.7 0 0 1-3.122.426zm-.018-1.403a11.29 11.29 0 0 0 2.777-.38c2.41-.643 3.8-1.811 4.439-3.596.642-1.797.312-3.595-1.141-5.63-1.455-2.038-3.538-3.554-6.32-4.56a.702.702 0 0 1 0-.003c-2.782-1.01-5.344-1.175-7.753-.539h-.001c-2.406.638-3.794 1.806-4.437 3.605a.702.702 0 0 1 0 .002c-.64 1.784-.308 3.58 1.145 5.62a.702.702 0 0 1 .001.003c1.451 2.044 3.53 3.56 6.312 4.569 1.74.63 3.395.93 4.978.91zm-.718-.917c-1.299.016-2.636-.229-4.002-.724-2.186-.793-3.916-2.035-5.112-3.72-1.196-1.681-1.57-3.475-.973-5.144.597-1.67 2.023-2.816 4.014-3.353 1.99-.537 4.111-.39 6.297.403 2.187.793 3.914 2.042 5.107 3.73 1.194 1.688 1.567 3.484.971 5.153-.596 1.669-2.022 2.813-4.01 3.343h-.002a9.311 9.311 0 0 1-2.29.312zm-.017-1.404a7.86 7.86 0 0 0 1.945-.265c1.69-.45 2.617-1.239 3.052-2.458.436-1.219.221-2.432-.795-3.87-1.015-1.436-2.47-2.506-4.439-3.22-1.968-.713-3.765-.823-5.453-.367-1.693.456-2.624 1.25-3.059 2.47a.702.702 0 0 1 0 .001c-.436 1.22-.22 2.425.797 3.856 1.017 1.432 2.473 2.497 4.444 3.212 1.231.446 2.397.656 3.507.642zm11.698-11.488a.702.702 0 0 1-.245-.059l-19.427-8.536a.702.702 0 0 1-.361-.921l.96-2.222a.702.702 0 0 1 .926-.365l11.215 4.93-9.363-9.916a.702.702 0 0 1-.135-.76l1.04-2.404a.702.702 0 0 1 .927-.365l19.427 8.537a.702.702 0 0 1 .362.921l-.97 2.242a.702.702 0 0 1-.927.364l-11.213-4.93 9.363 9.915a.702.702 0 0 1 .135.76l-1.032 2.385a.702.702 0 0 1-.682.424zm-.325-1.63.567-1.31-11.425-12.1a.702.702 0 0 1 .793-1.125l13.739 6.041.411-.952-18.142-7.972-.576 1.332 11.425 12.096a.702.702 0 0 1-.793 1.125l-13.739-6.038-.402.934zm264.121-11.136a.702.702 0 0 1-.641-.412l-3.979-8.744a.702.702 0 0 1 .341-.926l19.303-9.05a.702.702 0 0 1 .936.345l.99 2.177a.702.702 0 0 1-.341.925l-8.171 3.832 2.607 5.738a.702.702 0 0 1-.341.926l-2.723 1.276a.702.702 0 0 1-.936-.346l-2.602-5.72-3.653 1.712 2.7 5.937a.702.702 0 0 1-.342.926l-2.853 1.338a.702.702 0 0 1-.295.065zm.342-1.638 1.583-.743-2.7-5.937a.702.702 0 0 1 .342-.926l4.923-2.308a.702.702 0 0 1 .936.345l2.602 5.722 1.453-.681-2.608-5.738a.702.702 0 0 1 .342-.926l8.17-3.832-.408-.899-18.032 8.457zm-4.317-10.897c-2.796.075-5.03-.862-6.406-2.798a.702.702 0 0 1 0-.002c-1.368-1.928-1.528-4.356-.574-7.017.952-2.664 2.76-4.953 5.348-6.84 2.593-1.89 5.311-2.897 8.11-2.965 2.8-.07 5.031.866 6.398 2.793 1.374 1.937 1.541 4.366.584 7.024a.702.702 0 0 1 0 .001c-.958 2.657-2.765 4.943-5.357 6.832-2.591 1.888-5.308 2.897-8.103 2.97zm-.038-1.403c2.484-.066 4.907-.947 7.315-2.702 2.408-1.755 4.007-3.805 4.862-6.175.852-2.369.688-4.191-.409-5.737-1.086-1.531-2.73-2.263-5.216-2.201-2.488.06-4.91.94-7.32 2.695-2.404 1.754-4.004 3.803-4.853 6.18a.702.702 0 0 1 0 .002c-.85 2.374-.688 4.196.398 5.73v.001c1.098 1.544 2.742 2.275 5.223 2.208zm.95-1.16c-2.056.044-3.74-.658-4.765-2.098a.702.702 0 0 1 0-.001c-1.021-1.441-1.136-3.268-.438-5.22a.702.702 0 0 1 0-.002c.7-1.951 2.026-3.63 3.914-5.005 1.891-1.378 3.885-2.119 5.94-2.168 2.053-.051 3.739.647 4.76 2.089 1.02 1.44 1.142 3.272.445 5.23-.695 1.957-2.017 3.64-3.908 5.015-1.888 1.375-3.89 2.115-5.948 2.16zm-245.664-.314a.702.702 0 0 1-.463-.16l-16.434-13.504a.702.702 0 0 1-.101-.983l1.514-1.88a.702.702 0 0 1 .992-.1l9.473 7.785-6.38-12.095a.702.702 0 0 1 .076-.768l1.637-2.036a.702.702 0 0 1 .992-.102l16.434 13.501a.702.702 0 0 1 .103.982l-1.524 1.898a.702.702 0 0 1-.993.103l-9.48-7.788 6.382 12.096a.702.702 0 0 1-.073.767l-1.625 2.022a.702.702 0 0 1-.53.262zm245.635-1.09c1.746-.038 3.448-.65 5.15-1.891a.702.702 0 0 1 0-.001c1.707-1.24 2.82-2.679 3.412-4.35a.702.702 0 0 1 .002 0c.595-1.67.473-2.9-.27-3.946-.74-1.046-1.837-1.542-3.58-1.498-1.744.042-3.439.655-5.147 1.899-1.704 1.24-2.821 2.68-3.419 4.345v.002c-.595 1.664-.478 2.887.263 3.933.744 1.047 1.845 1.546 3.59 1.509zm-245.755-.605.89-1.109-7.791-14.768a.702.702 0 0 1 1.066-.87l11.622 9.547.646-.802-15.35-12.613-.904 1.125 7.79 14.77a.702.702 0 0 1-1.066.87l-11.618-9.549-.634.787zm13.459-13.635a.702.702 0 0 1-.353-.088l-19.333-10.691a.702.702 0 0 1-.164-1.104l1.735-1.788a.702.702 0 0 1 .846-.125l4.587 2.546 3.837-3.955-2.618-4.595a.702.702 0 0 1 .106-.836l1.72-1.774a.702.702 0 0 1 1.114.143l10.938 19.348a.702.702 0 0 1-.107.835l-1.818 1.872a.702.702 0 0 1-.49.212zm-.144-1.576 1.078-1.109-10.217-18.074-.7.722 2.617 4.595a.702.702 0 0 1-.105.836l-4.578 4.72a.702.702 0 0 1-.845.125l-4.588-2.546-.722.744zm-1.878-2.248a.702.702 0 0 1-.351-.091l-7.722-4.382a.702.702 0 0 1-.156-1.1l3.26-3.36a.702.702 0 0 1 1.112.14l4.46 7.74a.702.702 0 0 1-.603 1.053zm7.841-2.088a.702.702 0 0 1-.552-.241l-2.07-2.382a.702.702 0 0 1 .063-.985l2.413-2.147-11.47-13.209a.702.702 0 0 1 .065-.984l1.876-1.667a.702.702 0 0 1 .996.064l11.455 13.194 2.4-2.136a.702.702 0 0 1 .997.065l2.069 2.385a.702.702 0 0 1-.063.984l-7.733 6.882a.702.702 0 0 1-.446.177zm-9.74-.496-2.71-4.704-1.98 2.042zm211.568-.298a.702.702 0 0 1-.469-.184l-2.089-1.916a.702.702 0 0 1-.178-.775l3.133-7.946-7.365 4.127a.702.702 0 0 1-.807-.085l-2.171-1.913a.702.702 0 0 1 .133-1.147l12.791-6.83 4.98-5.674a.702.702 0 0 1 .995-.06l1.817 1.63a.702.702 0 0 1 .058.986l-4.98 5.673-5.186 13.662a.702.702 0 0 1-.662.452zm-201.787-.904 6.686-5.948-1.148-1.325-2.4 2.136a.702.702 0 0 1-.997-.064l-11.456-13.195-.826.735 11.469 13.207a.702.702 0 0 1-.063.984l-2.413 2.148zm201.504-1.015 4.864-12.811a.702.702 0 0 1 .129-.214l4.605-5.247-.772-.693-4.594 5.237a.702.702 0 0 1-.196.157l-12.01 6.413 1.037.915 8.651-4.847a.702.702 0 0 1 .996.87l-3.68 9.33zm-190.955-6.58a.702.702 0 0 1-.536-.277l-12.944-17.026a.702.702 0 0 1 .128-.978l2.053-1.603a.702.702 0 0 1 .99.13l12.945 17.025a.702.702 0 0 1-.125.979l-2.056 1.602a.702.702 0 0 1-.455.148zm179.74-1.577a.702.702 0 0 1-.41-.135l-8.318-6.078a.702.702 0 0 1-.157-.975l1.847-2.58a.702.702 0 0 1 .986-.158l2.58 1.884 10.223-14.287a.702.702 0 0 1 .985-.158l2.015 1.473a.702.702 0 0 1 .156.976l-10.23 14.297 2.59 1.892a.702.702 0 0 1 .156.976l-1.847 2.58a.702.702 0 0 1-.575.293zm-179.588-.116.948-.738-12.094-15.909-.948.74zm179.435-1.572 1.03-1.437-2.59-1.892a.702.702 0 0 1-.157-.976l10.23-14.297-.88-.645-10.223 14.287a.702.702 0 0 1-.986.158l-2.58-1.883-1.03 1.437zm-171.018-3.073c-1.175.038-2.41-.23-3.702-.774-2.582-1.084-4.748-3.015-6.471-5.72-1.728-2.705-2.573-5.497-2.492-8.325.081-2.825 1.117-5.029 3.094-6.323 1.983-1.3 4.405-1.36 6.98-.268 2.579 1.089 4.74 3.02 6.466 5.724 1.725 2.706 2.574 5.498 2.499 8.32-.077 2.824-1.116 5.027-3.101 6.329-.989.647-2.098 1-3.273 1.037zm-.044-1.403c.93-.03 1.76-.294 2.546-.81 1.583-1.037 2.4-2.674 2.468-5.192.068-2.518-.675-5.01-2.279-7.525-1.604-2.513-3.535-4.22-5.827-5.188a.702.702 0 0 1-.002 0c-2.285-.97-4.082-.886-5.663.15a.702.702 0 0 1-.001 0c-1.572 1.03-2.387 2.669-2.46 5.19-.072 2.524.667 5.015 2.272 7.528 1.601 2.512 3.539 4.217 5.833 5.181 1.148.484 2.183.695 3.113.666zm-.836-1.522c-.88.028-1.796-.172-2.744-.57-1.891-.798-3.482-2.218-4.739-4.188-1.257-1.97-1.88-4.02-1.819-6.093.058-2.072.834-3.733 2.31-4.7 1.477-.97 3.303-1.008 5.202-.214s3.49 2.211 4.749 4.182c1.258 1.972 1.878 4.022 1.812 6.1-.065 2.076-.842 3.736-2.32 4.705a4.719 4.719 0 0 1-2.451.778zm160.741-.374a.702.702 0 0 1-.357-.105l-2.199-1.373a.702.702 0 0 1-.227-.962l11.202-18.342a.702.702 0 0 1 .97-.23l2.2 1.37a.702.702 0 0 1 .228.962l-11.203 18.345a.702.702 0 0 1-.614.335zm-160.788-1.03a3.246 3.246 0 0 0 1.728-.55c1.074-.703 1.63-1.8 1.686-3.573.057-1.773-.456-3.52-1.592-5.3-1.136-1.779-2.496-2.97-4.107-3.643-1.612-.674-2.818-.61-3.89.094-1.07.702-1.627 1.798-1.677 3.565a.702.702 0 0 1 0 .001c-.051 1.769.465 3.517 1.6 5.295 1.135 1.779 2.495 2.972 4.1 3.65.805.338 1.518.481 2.152.46zm160.573-.643 10.47-17.144-1.007-.629-10.47 17.145zm-148.668-2.005a.702.702 0 0 1-.654-.394l-9.383-19.213a.702.702 0 0 1 .316-.935l2.146-1.078a.702.702 0 0 1 .946.32l5.403 11.062-.83-13.683a.702.702 0 0 1 .383-.67l2.323-1.17a.702.702 0 0 1 .948.32l9.382 19.21a.702.702 0 0 1-.316.935l-2.162 1.089a.702.702 0 0 1-.947-.32l-5.403-11.062.83 13.685a.702.702 0 0 1-.384.669l-2.304 1.16a.702.702 0 0 1-.294.075zm140.743-1.008a4.5 4.5 0 0 1-2.29-.535v.001c-1.351-.707-2.193-2.052-2.476-3.783-.287-1.726-.002-3.434.819-5.037.907-1.769 1.99-2.939 3.353-3.284 1.13-.285 2.252-.42 3.36-.4.246 0 .488 0 .725-.003a.702.702 0 0 1 .002 0c.227-.002.457-.014.69-.035a.702.702 0 0 1 .006 0 9.116 9.116 0 0 0 1.564-.251.702.702 0 0 1 .001 0c.362-.094.672-.287.98-.632.07-.09.14-.182.21-.28.063-.092.123-.194.184-.308.219-.433.332-.914.328-1.484-.005-.535-.145-.92-.435-1.265a.702.702 0 0 1-.01-.013 1.247 1.247 0 0 0-.204-.199.702.702 0 0 1-.007-.006 1.709 1.709 0 0 0-.275-.179c-.341-.177-.705-.217-1.215-.085-.473.125-.94.431-1.419 1.008a.702.702 0 0 1-.02.024c-.11.12-.213.253-.302.395a.702.702 0 0 1-.003.003 6.39 6.39 0 0 0-.3.526.702.702 0 0 1-.95.303l-2.191-1.147a.702.702 0 0 1-.299-.943c.651-1.269 1.586-2.386 2.785-3.341 1.228-.98 2.593-1.488 4.007-1.448a4.2 4.2 0 0 1 1.052.141c.344.09.685.224 1.018.398 1.196.6 2.038 1.675 2.448 3.063h-.002a8.142 8.142 0 0 1 .111 4.191v.002a8.51 8.51 0 0 1-.297 1.004.702.702 0 0 1-.002.002c-.121.333-.26.65-.416.95l-.001.002c-.884 1.724-1.763 2.871-2.887 3.34a.702.702 0 0 1-.002 0c-.9.375-1.844.6-2.817.679-.053.007-.108-.004-.164-.006a.702.702 0 0 1-.08.01 8.117 8.117 0 0 0-.23.014.702.702 0 0 1-.015 0 2.293 2.293 0 0 0-.217.024.702.702 0 0 1-.01 0c-.064.01-.138.022-.23.029h-.001c-.07.005-.146-.01-.22-.016a2.889 2.889 0 0 1-.54.027.702.702 0 0 1-.003 0c-.15-.01-.307-.016-.47-.02l-.619.003a.702.702 0 0 1-.003 0c-.189 0-.382.008-.577.025a.702.702 0 0 1-.017.002c-.442.028-.852.13-1.248.301-.311.137-.555.363-.77.786a.702.702 0 0 1-.006.016c-.026.048-.049.089-.068.129a.702.702 0 0 1 0 .005.702.702 0 0 1-.029.086c-.039.098-.076.209-.12.333l-.002.003a2.638 2.638 0 0 0-.077.304.702.702 0 0 1-.005.02 2.97 2.97 0 0 0-.06.373 3.584 3.584 0 0 0-.008.359c.03.3.105.547.228.757a.702.702 0 0 1 .003.005c.11.192.269.347.529.482a.702.702 0 0 1 .002 0c.416.217.737.202 1.31-.174.647-.425 1.048-.856 1.26-1.269a.702.702 0 0 1 .95-.302l2.245 1.175a.702.702 0 0 1 .283.974 9.216 9.216 0 0 1-3.511 3.463c-.764.43-1.55.677-2.335.71zm-140.446-.64 1.257-.633-1.017-16.736a.702.702 0 0 1 1.332-.35l6.637 13.587.908-.458-8.767-17.95-1.276.643 1.017 16.735a.702.702 0 0 1-1.332.35l-6.635-13.587-.891.447zm140.388-.763c.533-.023 1.095-.19 1.705-.532 1.048-.589 1.856-1.398 2.531-2.353l-1.072-.56c-.348.448-.672.907-1.228 1.27-.856.563-1.88.69-2.73.245a2.682 2.682 0 0 1-1.093-1.025 3.252 3.252 0 0 1-.419-1.343.702.702 0 0 1-.003-.035 4.683 4.683 0 0 1 .01-.551.702.702 0 0 1 .001-.018 4.38 4.38 0 0 1 .09-.552 4.008 4.008 0 0 1 .12-.463.702.702 0 0 1 .005-.013c.04-.112.084-.249.145-.402l-.042.16c.022-.149.072-.266.123-.363v-.001c.026-.053.053-.101.076-.145.33-.65.83-1.162 1.46-1.437a.702.702 0 0 1 .001-.001 5.111 5.111 0 0 1 1.717-.412l.003-.002c.232-.02.459-.03.68-.03l.625-.002a.702.702 0 0 1 .016 0c.185.005.365.012.54.023.114.007.22.001.336-.017a.702.702 0 0 1 .25.005c.022-.002.063-.006.122-.015.115-.017.228-.03.34-.036h-.016c.108-.01.199-.014.277-.018l-.101.013a.929.929 0 0 1 .375.002.484.484 0 0 0-.142-.005.702.702 0 0 1 .047-.006 7.813 7.813 0 0 0 2.41-.578c.552-.23 1.364-1.095 2.18-2.688a.702.702 0 0 1 .003-.001 7.144 7.144 0 0 0 .596-1.627.702.702 0 0 1 0-.002c.278-1.202.247-2.346-.088-3.477a.702.702 0 0 1-.002 0c-.325-1.1-.88-1.783-1.732-2.21a.702.702 0 0 1-.013-.006 3.422 3.422 0 0 0-.73-.286.702.702 0 0 1-.001-.001 2.787 2.787 0 0 0-.71-.095.702.702 0 0 1-.018 0c-1.063-.032-2.072.325-3.098 1.144a8.956 8.956 0 0 0-2.025 2.3l.907.474.013-.023c.134-.213.283-.403.437-.574.61-.734 1.325-1.25 2.134-1.462a.702.702 0 0 1 .002 0c.77-.201 1.552-.15 2.22.199a.702.702 0 0 1 .003.001c.172.09.34.197.498.324l.003.003c.159.125.299.266.42.416.499.595.755 1.349.762 2.152a4.609 4.609 0 0 1-.482 2.133.702.702 0 0 1-.005.01c-.083.158-.174.311-.277.46a.702.702 0 0 1-.002 0 8.076 8.076 0 0 1-.278.377.702.702 0 0 1-.028.033c-.463.521-1.037.893-1.682 1.06-.552.143-1.152.237-1.801.29-.263.023-.529.038-.797.04h-.002c-.252.003-.504.003-.754.003a.702.702 0 0 1-.014 0c-.975-.018-1.97.102-2.988.36-.783.198-1.638.979-2.45 2.563-.7 1.366-.92 2.727-.681 4.166a.702.702 0 0 1 0 .003c.235 1.433.8 2.272 1.741 2.764.535.28 1.048.398 1.581.375zm-11.542-4.578a3.705 3.705 0 0 1-1.513-.267l-5.536-2.235a.702.702 0 0 1-.39-.91l7.942-19.967a.702.702 0 0 1 .914-.391l2.275.918a.702.702 0 0 1 .39.91l-2.589 6.507 6.412-5.348a.702.702 0 0 1 .711-.112l2.511 1.014a.702.702 0 0 1 .195 1.184l-6.475 5.557c.854.708 1.5 1.665 1.726 2.973.29 1.681.103 3.37-.552 5.013-.768 1.929-1.888 3.385-3.365 4.275-.9.54-1.786.85-2.656.879zm-111.114-1.078a.702.702 0 0 1-.576-.299l-12.758-18.17a.702.702 0 0 1 .333-1.062l2.33-.847a.702.702 0 0 1 .814.257l3.026 4.318 5.143-1.872-.372-5.294a.702.702 0 0 1 .46-.709l2.309-.84a.702.702 0 0 1 .94.612l1.492 22.268a.702.702 0 0 1-.46.706l-2.442.89a.702.702 0 0 1-.239.042zm111.07-.325c.564-.018 1.224-.227 1.976-.68 1.17-.704 2.1-1.867 2.785-3.589.568-1.425.72-2.826.473-4.255a.702.702 0 0 1 0-.002c-.241-1.405-.79-2.176-1.693-2.592a.702.702 0 0 1-.164-1.17l6.199-5.322-1.05-.423-8.214 6.85a.702.702 0 0 1-1.101-.799l3.351-8.427-.972-.394-7.423 18.663 4.89 1.975a.702.702 0 0 1 .002 0c.299.121.604.175.942.164zm-110.806-1.22 1.441-.525-1.393-20.81-.935.34.372 5.294a.702.702 0 0 1-.46.71l-6.144 2.236a.702.702 0 0 1-.815-.256l-3.028-4.319-.962.35zm110.78-.547a2.34 2.34 0 0 1-.61-.155l-2.932-1.185a.702.702 0 0 1-.388-.91l2.563-6.448a.702.702 0 0 1 .916-.391l2.932 1.185h.001c.786.317 1.31 1.054 1.568 1.962.27.952.165 1.987-.25 3.031l-.002.003c-.434 1.095-1.072 1.941-1.929 2.439a.702.702 0 0 1 0 .001c-.608.352-1.24.538-1.869.467zm-9.737-.308a.702.702 0 0 1-.187-.027l-9.116-2.7a.702.702 0 0 1-.475-.872l6.049-20.63a.702.702 0 0 1 .873-.475l9.303 2.757a.702.702 0 0 1 .474.87l-.886 3.023a.702.702 0 0 1-.873.475l-6.335-1.877-1.486 5.063 5.981 1.77a.702.702 0 0 1 .475.873l-.845 2.882a.702.702 0 0 1-.873.475l-5.977-1.771-1.15 3.915 6.151 1.824a.702.702 0 0 1 .475.869l-.892 3.051a.702.702 0 0 1-.686.506zm9.895-1.086c.25.028.575-.039 1.006-.289.525-.305.976-.852 1.33-1.743a.702.702 0 0 1 0-.003c.332-.831.379-1.518.205-2.129-.184-.649-.43-.917-.743-1.043l-2.28-.922-2.045 5.143 2.285.924c.08.033.159.053.242.062zM310.22 217.7a.702.702 0 0 1-.666-.543l-4.839-20.91a.702.702 0 0 1 .52-.84l9.087-2.187a.702.702 0 0 1 .848.524l.72 3.12a.702.702 0 0 1-.52.841l-5.961 1.437 3.958 17.11a.702.702 0 0 1-.52.84l-2.445.59a.702.702 0 0 1-.182.018zm90.604-.38.498-1.703-6.151-1.824a.702.702 0 0 1-.475-.87l1.544-5.263a.702.702 0 0 1 .873-.474l5.977 1.77.451-1.535-5.98-1.77a.702.702 0 0 1-.476-.872l1.88-6.41a.702.702 0 0 1 .873-.475l6.335 1.876.493-1.675-7.957-2.359-5.655 19.284zm-101.007-.362a.702.702 0 0 1-.574-.305l-5.047-7.357a.702.702 0 0 1 .339-1.056l4.377-1.595a.702.702 0 0 1 .94.606l.67 8.952a.702.702 0 0 1-.705.755zm10.945-.808 1.08-.26-3.958-17.11a.702.702 0 0 1 .52-.84l5.962-1.438-.405-1.752-7.72 1.86zm79.116-.647a.702.702 0 0 1-.12-.01l-2.549-.447a.702.702 0 0 1-.578-.639l-1.12-14.959-6.405 13.549a.702.702 0 0 1-.772.388l-2.577-.513a.702.702 0 0 1-.495-.993l9.676-20.063a.702.702 0 0 1 .761-.385l2.564.48a.702.702 0 0 1 .571.633l1.746 22.202a.702.702 0 0 1-.702.757zm-.77-1.55-1.632-20.761-1.507-.283-9.047 18.763 1.15.229 7.308-15.457a.702.702 0 0 1 1.334.247l1.276 17.066zm-90.182-.242-.405-5.43-2.656.967zm42.976-.887a.702.702 0 0 1-.694-.65l-1.029-14.015c-.143-1.944.227-3.888 1.089-5.8.887-1.978 2.418-3.19 4.352-3.343 1.958-.155 3.669.798 4.841 2.617a.702.702 0 0 1 0 .001c1.13 1.757 1.78 3.621 1.922 5.565l1.03 14.016a.702.702 0 0 1-.645.751l-2.464.195a.702.702 0 0 1-.756-.649l-1.035-14.07c-.073-1.008-.379-1.832-.922-2.54-.53-.689-.989-.9-1.59-.852-.572.045-.993.324-1.42 1.087a.702.702 0 0 1 0 .001c-.433.771-.616 1.636-.54 2.665l1.034 14.072a.702.702 0 0 1-.645.752l-2.467.195a.702.702 0 0 1-.061 0zm30.847-.125a.702.702 0 0 1-.065-.003l-2.574-.268a.702.702 0 0 1-.625-.772l2.265-21.41a.702.702 0 0 1 .772-.625l2.575.268a.702.702 0 0 1 .625.772l-2.266 21.41a.702.702 0 0 1-.707.628zm-6.09-.728-2.408-.07a.702.702 0 0 1-.681-.725l.4-12.353-5.637 12.473a.702.702 0 0 1-.66.413l-2.57-.075a.702.702 0 0 1-.681-.723l.691-21.456a.702.702 0 0 1 .722-.68l2.393.07a.702.702 0 0 1 .68.723l-.398 12.356 5.637-12.476a.702.702 0 0 1 .66-.413l2.589.074a.702.702 0 0 1 .681.725l-.696 21.459a.702.702 0 0 1-.722.678zm-24.102-.605 1.066-.083-.983-13.377c-.092-1.259.143-2.433.716-3.456.578-1.032 1.473-1.716 2.533-1.8 1.08-.086 2.09.453 2.816 1.397.713.93 1.118 2.05 1.208 3.293v.002l.984 13.364 1.064-.083-.979-13.32c-.124-1.701-.682-3.325-1.702-4.909-.978-1.517-2.063-2.095-3.549-1.977-1.453.115-2.439.86-3.183 2.52-.778 1.725-1.094 3.419-.968 5.12zm29.575-.14 2.12-20.013-1.18-.123-2.116 20.014zm-6.132-.679.65-20.055-1.416-.04-6.9 15.27a.702.702 0 0 1-1.341-.31l.49-15.185-.988-.028-.648 20.052 1.4.041 6.899-15.269a.702.702 0 0 1 1.341.312l-.49 15.183z" style="color:#000;font-style:normal;font-variant:normal;font-weight:400;font-stretch:normal;font-size:medium;font-family:sans-serif;font-variant-ligatures:normal;font-variant-position:normal;font-variant-caps:normal;font-variant-numeric:normal;font-variant-alternates:normal;font-variant-east-asian:normal;font-feature-settings:normal;text-indent:0;text-decoration:none;text-decoration-line:none;text-decoration-style:solid;text-decoration-color:#000;letter-spacing:normal;word-spacing:normal;text-transform:none;writing-mode:lr-tb;direction:ltr;text-orientation:mixed;dominant-baseline:auto;baseline-shift:baseline;text-anchor:start;clip-rule:nonzero;display:inline;overflow:visible;visibility:visible;color-interpolation:sRGB;vector-effect:none;fill:#fff;fill-opacity:1;fill-rule:nonzero;stroke:none;stroke-width:1.404;stroke-linecap:butt;stroke-linejoin:round;stroke-miterlimit:4;stroke-dasharray:none;stroke-dashoffset:0;stroke-opacity:1;color-rendering:auto;image-rendering:auto;shape-rendering:auto;text-rendering:auto;enable-background:accumulate;stop-color:#000" transform="matrix(1.33333 0 0 -1.33333 -216.667 738.347)"/><path d="M346.533 541.236c-1.527-.04-2.812-.706-3.853-1.998-1.04-1.29-1.535-2.836-1.488-4.634.048-1.796.623-3.312 1.731-4.546 1.107-1.235 2.423-1.834 3.951-1.793 1.528.04 2.812.707 3.853 1.998 1.04 1.29 1.536 2.835 1.49 4.633-.049 1.796-.625 3.31-1.732 4.547-1.108 1.235-2.425 1.833-3.952 1.793zm.074-2.807c.86.023 1.603-.319 2.234-1.024.632-.704.963-1.561.99-2.572.027-1.01-.258-1.885-.852-2.62-.594-.738-1.32-1.118-2.178-1.14-.86-.023-1.603.318-2.236 1.022-.63.705-.96 1.563-.987 2.574-.027 1.01.256 1.883.85 2.62.594.738 1.32 1.117 2.18 1.14zm34.549-.457L377.7 521.48l10.048-2.105-1.846-8.796 2.572-.539 3.974 18.967 1.402-.293-3.974-18.967 2.57-.539 5.3 25.29-2.57.538-.807-3.848-1.402.293.805 3.848-2.569.538-2.938-14.017-7.475 1.566 2.418 11.545 5.84-1.224.52 2.474zm-70.669-2.264-14.068-3.76.653-2.441 11.532 3.082 4.929-18.451-2.076-.556-2.757 10.312-2.535-.679 2.755-10.31-2.076-.554-2.755 10.31-2.536-.678 2.754-10.31-2.307-.616.653-2.443 14.992 4.005-.655 2.442-.923-.247zm45.008-8.312-17.182-.451.066-2.527 4.319.113.044-1.657-2.888-.075.066-2.528 12.17.32.164-6.175 2.625.069-.23 8.702-3.34-.087-.043 1.656 4.296.113zm66.438-2.142-1.077-2.288 2.68-1.26c-.895-.22-1.732-.649-2.507-1.287-.776-.64-1.394-1.45-1.856-2.432-.742-1.575-.901-3.146-.476-4.71.422-1.567 1.304-2.665 2.644-3.295 1.338-.63 2.746-.61 4.223.06 1.476.67 2.586 1.794 3.328 3.37.462.982.693 1.975.69 2.98-.002 1.005-.205 1.92-.605 2.751.015-.007.909-.426 2.68-1.261l1.076 2.288-4.19 1.972.717 1.526-2.375 1.118-.719-1.525zm-73.269-.567.044-1.656-3.366-.087-.043 1.656zm-77.27-2.598-2.309-1.251 2.275-4.197-2.56-1.387 1.202-2.224 2.562 1.387 5.364-9.902 2.309 1.251zm163.762-1.818-6.34-13.466 2.374-1.12 3.59 7.624 1.836-.865 1.077 2.287-1.836.864 1.673 3.557zm-10.695-.851c.41.006.81-.084 1.198-.267.778-.365 1.29-1.005 1.537-1.917.247-.914.155-1.827-.276-2.742-.43-.915-1.075-1.565-1.932-1.947-.857-.383-1.674-.39-2.452-.024-.777.367-1.291 1-1.544 1.905-.25.904-.16 1.814.27 2.729.432.914 1.077 1.568 1.94 1.96.43.195.85.297 1.259.303zm-156.772-.615-3.863-2.092-.934 1.728-2.312-1.25.939-1.73-4.115-2.229 1.204-2.22 3.15 1.705.208-10.363 2.41-.388-.106 11.121 9.195-6.199 1.034 2.253-8.607 5.816 3.001 1.626zm150.475-8.848-1.079-2.287 9.936-4.678-2.87-6.098 2.375-1.118 3.948 8.385zm42.676-5.363-1.58-1.971 9.316-7.462-11.937-14.907-1.677 1.342 6.67 8.33-2.049 1.643-6.67-8.33-1.678 1.343 6.671 8.33-2.05 1.64-6.67-8.33-1.865 1.493-1.579-1.973 12.112-9.7 1.58 1.973-.747.597 13.52 16.88zm-191.551-2.172-2.31-1.25 4.548-8.398 12.384 6.71-1.206 2.222-10.074-5.457zm-34.207-4.902-4.688-4.177-1.308 1.468-1.98-1.764 1.312-1.466-4.743-4.225 1.681-1.887 3.424 3.049.631-8.353 2.495-.11-.809 10.453 10.31-2.023.177 2.564-8.225 1.551 3.404 3.032zm8.56-8.172-12.833-11.434 1.681-1.887 5.883 5.241 2.802-3.146 1.96 1.747-2.8 3.145 4.989 4.447zm6.02-8.552-8.731-7.782-3.923 4.403-1.962-1.746 5.606-6.292 10.692 9.53zM511.83 436.27l-20.238-6.342.722-2.332 14.987 4.696-13.015-11.06.767-2.483 20.24 6.34-.715 2.312-14.987-4.694 13.015 11.06zm-318.79-9.277c-1.747.035-3.388-.256-4.921-.875-2.452-.99-3.905-2.525-4.363-4.607-.37-1.692.027-3.36 1.193-5.005 1.165-1.646 2.817-2.946 4.95-3.898l.492 2.367c-.95.518-1.856 1.287-2.718 2.301-.861 1.016-1.146 2.18-.858 3.495.307 1.405 1.333 2.49 3.076 3.252 1.743.763 3.722.892 5.936.386 2.232-.51 3.971-1.484 5.222-2.923 1.25-1.441 1.722-2.872 1.41-4.287-.293-1.341-1.075-2.278-2.343-2.816-1.272-.535-2.384-.824-3.339-.867l-.517-2.358c2.327-.069 4.364.388 6.104 1.37 1.743.983 2.8 2.318 3.172 4.01.455 2.079-.22 4.102-2.025 6.065-1.804 1.963-4.21 3.287-7.21 3.974a16.14 16.14 0 0 1-3.26.416zm317.316-8.795c-1.365.036-2.793-.14-4.281-.525-2.973-.768-5.332-2.155-7.068-4.16-1.736-2.005-2.34-4.048-1.805-6.129.53-2.066 2.037-3.56 4.524-4.482 2.484-.922 5.215-.998 8.191-.229 2.977.77 5.334 2.16 7.066 4.172 1.738 2.012 2.339 4.052 1.81 6.12-.533 2.08-2.042 3.575-4.525 4.492a12.177 12.177 0 0 1-3.912.74zm-.668-2.244a8.706 8.706 0 0 0 2.813-.544c1.788-.67 2.872-1.746 3.25-3.233.382-1.486-.052-2.95-1.299-4.396-1.244-1.445-2.936-2.444-5.076-2.995-2.136-.553-4.1-.499-5.885.162-1.786.661-2.868 1.736-3.248 3.223-.38 1.485.05 2.954 1.295 4.405 1.245 1.452 2.935 2.453 5.071 3.006 1.07.277 2.098.4 3.08.372zm-327.925-6.573-.267-2.485 9.671-1.221-.751-6.292-9.671 1.22-.327-2.477 21.09-2.66.297 2.48-8.586 1.083.75 6.291 8.584-1.08.298 2.48zm339.79-8.905-20.76-4.598.562-2.56 20.76 4.598zm-334.581-7.78c-1.575-.042-3.132-.453-4.673-1.232-1.764-.888-2.676-2.193-2.735-3.912-.062-1.746.756-3.133 2.45-4.163 1.696-1.029 3.444-1.579 5.246-1.653l13.885-.556.087 2.499-13.94.56c-1.113.043-2.085.369-2.92.978-.836.606-1.236 1.335-1.207 2.19.028.827.476 1.507 1.341 2.048.866.54 1.863.787 2.996.74l13.94-.559.087 2.498-13.882.558c-.226.009-.45.01-.675.004zm318.316-3.107-3.09-.567 1.868-10.236 3.09.566-.708 3.878 17.798 3.254-.453 2.483-17.799-3.257zm20.249-8.193-21.099-6.439.06-2.622 21.37-5.659-.056 2.5-5.599 1.474-.148 6.602 5.527 1.666zM200.873 378.2l-21.192-.913.114-2.417 15.69.675-15.383-7.33.118-2.617 21.19.91-.112 2.438-15.69-.675 15.382 7.33zm316.191-1.965.105-4.7-8.61 2.18zm-5.301-10.248c-2.326-.12-4.318-.741-5.977-1.863-1.658-1.12-2.603-2.538-2.84-4.254-.29-2.112.542-4.073 2.497-5.884 1.955-1.81 4.455-2.938 7.499-3.378 3.046-.44 5.75-.067 8.115 1.119 2.366 1.186 3.692 2.835 3.984 4.948.235 1.714-.294 3.346-1.583 4.893-1.293 1.547-3.04 2.709-5.243 3.486l-.303-2.4c.989-.438 1.952-1.131 2.892-2.075.938-.943 1.313-2.082 1.132-3.416-.196-1.425-1.132-2.588-2.811-3.49-1.674-.903-3.636-1.191-5.88-.866-2.265.327-4.078 1.159-5.437 2.493-1.36 1.334-1.942 2.719-1.745 4.158.186 1.36.89 2.36 2.114 2.998 1.224.637 2.31 1.015 3.259 1.135zm-318.227-3.583c-.72 0-1.46-.05-2.221-.15-3.046-.404-5.55-1.498-7.51-3.285-1.964-1.788-2.802-3.737-2.52-5.853.228-1.719 1.17-3.15 2.823-4.29 1.654-1.14 3.643-1.786 5.97-1.936l-.35 2.395c-1.065.156-2.176.56-3.33 1.216-1.154.654-1.817 1.651-1.996 2.985-.19 1.428.405 2.807 1.777 4.133 1.373 1.324 3.183 2.137 5.43 2.433 2.266.299 4.231-.008 5.893-.926 1.663-.917 2.589-2.096 2.78-3.538.182-1.361-.23-2.516-1.239-3.464-1.006-.946-1.95-1.606-2.831-1.98l.32-2.4c2.206.75 3.957 1.89 5.257 3.42 1.295 1.532 1.831 3.157 1.602 4.876-.28 2.114-1.602 3.781-3.964 4.996-1.77.911-3.735 1.367-5.891 1.368zm308.228-12.719-.575-2.429 13.565-3.337c1.086-.267 1.977-.78 2.678-1.542.699-.763.953-1.558.755-2.386-.19-.804-.762-1.384-1.716-1.738-.953-.355-1.983-.399-3.084-.127l-13.567 3.34-.577-2.43 13.511-3.324c1.757-.433 3.587-.39 5.49.13s3.051 1.614 3.446 3.286c.4 1.698-.129 3.22-1.59 4.566-1.461 1.346-3.07 2.235-4.828 2.669zm-297.514-4.172-20.751-4.504.556-2.44 9.517 2.066 1.338-6.2-9.517-2.066.5-2.45 20.752 4.505-.53 2.444-8.446-1.834-1.338 6.2 8.447 1.834zm299.456-12.404c-1.442.012-2.658-.265-3.649-.834-1.981-1.135-3.145-2.265-3.483-3.386l-1.632-5.409 20.317-6.354 1.632 5.407c.364 1.21.043 2.829-.965 4.851-1.007 2.024-3.412 3.63-7.219 4.82-1.892.591-3.56.893-5 .905zm-296.183-2.102-20.41-5.864 2.684-9.45 2.993.859-2.024 7.12 6.34 1.823 1.923-6.755 2.852.82-1.92 6.755 5.207 1.496 1.967-6.93 3.02.868zm297.367-.569c.973-.032 2.02-.223 3.14-.574 2.278-.713 3.92-1.774 4.922-3.183 1.005-1.408 1.274-2.882.809-4.424l-.596-1.967-14.744 4.614.592 1.966c.467 1.555 1.527 2.617 3.18 3.19.825.285 1.724.411 2.697.378zm-11.318-10.999-3.187-9.05 20.011-7.289 3.255 9.239-2.934 1.07-2.452-6.965-6.216 2.265 2.326 6.606-2.799 1.019-2.326-6.607-5.104 1.86 2.387 6.775zm-286.94-3.538c-1.677.022-3.418-.296-5.224-.95-2.891-1.048-5.106-2.655-6.646-4.824-1.543-2.167-1.955-4.256-1.235-6.265.723-2.023 2.361-3.37 4.919-4.048 2.559-.676 5.281-.49 8.172.559 2.89 1.046 5.108 2.65 6.652 4.813 1.544 2.163 1.953 4.254 1.23 6.275-.72 2.01-2.357 3.355-4.917 4.038-.96.256-1.944.39-2.95.402zm-.735-2.32a8.591 8.591 0 0 0 2.119-.289c1.839-.49 3.016-1.456 3.531-2.9.516-1.444.222-2.948-.883-4.512-1.104-1.562-2.695-2.721-4.772-3.474-2.078-.753-4.037-.882-5.876-.385-1.842.496-3.02 1.466-3.536 2.912-.517 1.444-.222 2.943.885 4.5 1.106 1.557 2.7 2.711 4.778 3.465 1.299.471 2.55.698 3.754.683zm11.728-12.892-19.427-8.536.96-2.222 14.386 6.322-11.742-12.433 1.04-2.404 19.427 8.537-.97 2.241-14.385-6.325 11.742 12.435zm263.755-12.766-3.978-8.744 19.302-9.051.99 2.177-8.799 4.126 2.895 6.37-2.724 1.275-2.896-6.367-4.923 2.308 2.987 6.568zm-3.991-12.535c-2.639.071-4.577-.763-5.814-2.503-1.228-1.73-1.389-3.856-.487-6.374.901-2.52 2.605-4.69 5.101-6.511 2.501-1.823 5.071-2.766 7.715-2.83 2.643-.066 4.581.768 5.807 2.497 1.235 1.742 1.402 3.868.497 6.381-.907 2.514-2.61 4.682-5.11 6.504-2.5 1.821-5.07 2.766-7.71 2.836zm.917-2.563c1.902-.041 3.753-.718 5.548-2.026 1.8-1.308 3.018-2.869 3.661-4.683.646-1.815.524-3.344-.357-4.588-.88-1.244-2.273-1.841-4.17-1.793-1.9.045-3.744.722-5.544 2.033-1.796 1.308-3.018 2.867-3.666 4.676-.647 1.809-.532 3.334.35 4.577.884 1.244 2.277 1.845 4.178 1.804zm-245.668-.314-16.434-13.504 1.515-1.88 12.165 10-8.005-15.18 1.638-2.035 16.434 13.501-1.524 1.899-12.171-10 8.007 15.178zm13.343-15.33-19.333-10.691 1.736-1.789 5.058 2.807 4.578-4.72-2.878-5.052 1.72-1.774 10.937 19.348zm-2.012-3.824-4.46-7.742-3.261 3.36zm7.823-2.087-2.07-2.382 2.93-2.61-11.923-13.73 1.876-1.668 11.92 13.732 2.932-2.61 2.068 2.386zm201.856-.794-2.089-1.916 3.857-9.78-9.085 5.09-2.17-1.912 12.903-6.891 5.062-5.77 1.817 1.63-5.064 5.769zm-191.22-8.5-12.944-17.025 2.054-1.603 12.944 17.026zm179.72-1.577-8.318-6.078 1.847-2.58 3.153 2.303 10.636-14.863 2.014 1.473-10.635 14.863 3.151 2.302zm-171.197-4.76c-1.052.033-2.188-.206-3.407-.72-2.438-1.024-4.49-2.842-6.152-5.45-1.667-2.61-2.459-5.252-2.382-7.927.077-2.674 1.003-4.595 2.777-5.757 1.783-1.168 3.892-1.24 6.322-.21 2.436 1.03 4.482 2.849 6.147 5.457 1.665 2.61 2.46 5.252 2.389 7.922-.073 2.671-1 4.592-2.785 5.761a5.535 5.535 0 0 1-2.909.923zm-.882-2.926a3.982 3.982 0 0 0 2.09-.664c1.276-.836 1.943-2.214 2.003-4.14.062-1.925-.505-3.823-1.702-5.699-1.197-1.875-2.673-3.179-4.428-3.913-1.756-.733-3.272-.682-4.546.154-1.274.835-1.94 2.214-1.993 4.134-.057 1.921.513 3.82 1.71 5.694 1.195 1.874 2.67 3.18 4.419 3.918.876.368 1.69.54 2.447.516zm160.78-.374-2.199-1.372 11.202-18.342 2.2 1.37zm-148.92-3.678-9.384-19.213 2.146-1.078 6.948 14.225-1.045-17.196 2.323-1.17 9.383 19.211-2.162 1.089-6.95-14.225 1.045 17.197zm140.736-1.008a3.77 3.77 0 0 1-1.935-.454c-1.146-.6-1.85-1.691-2.11-3.274-.263-1.582-.01-3.117.75-4.602.86-1.677 1.83-2.653 2.902-2.924a12.008 12.008 0 0 1 3.175-.38c.25 0 .5 0 .747-.002.248-.002.496-.017.744-.039a9.82 9.82 0 0 0 1.686-.27c.505-.13.948-.413 1.334-.847.085-.109.17-.222.255-.344.084-.121.16-.25.233-.387.273-.538.41-1.14.406-1.81-.005-.671-.204-1.243-.6-1.713a1.95 1.95 0 0 0-.317-.312 2.396 2.396 0 0 0-.391-.255c-.505-.263-1.078-.31-1.718-.142-.643.169-1.236.58-1.782 1.24a3.55 3.55 0 0 0-.376.493 7.073 7.073 0 0 0-.333.583l-2.191-1.147c.603-1.175 1.469-2.212 2.599-3.113 1.128-.9 2.317-1.333 3.556-1.296.298 0 .59.04.887.118.293.077.586.19.878.345 1.026.512 1.725 1.393 2.092 2.638a7.41 7.41 0 0 1 .1 3.835c-.071.312-.164.62-.274.923-.111.304-.24.594-.382.87-.85 1.659-1.697 2.665-2.535 3.014-.839.35-1.717.56-2.627.632a.277.277 0 0 1-.1-.003.25.25 0 0 0-.098 0c-.077.004-.16.008-.254.016a2.81 2.81 0 0 0-.282.03c-.065.01-.126.019-.182.023a.648.648 0 0 1-.18-.014 2.224 2.224 0 0 1-.488.025c-.166-.01-.337-.018-.514-.022l-.623.003c-.208 0-.422.01-.638.028a4.392 4.392 0 0 0-1.484.357c-.47.206-.842.576-1.115 1.112-.027.051-.055.102-.08.156a.433.433 0 0 0-.05.137c-.051.128-.093.253-.135.374a3.34 3.34 0 0 0-.101.39 3.666 3.666 0 0 0-.076.471 4.172 4.172 0 0 0-.01.472c.038.392.143.746.326 1.057.18.314.452.567.813.755.633.33 1.305.26 2.02-.21.717-.47 1.216-.98 1.5-1.535l2.245 1.175a8.48 8.48 0 0 1-3.247 3.202c-.687.386-1.361.593-2.02.621zm-11.593-5.98a2.982 2.982 0 0 1-1.227-.216l-5.537-2.235 7.94-19.968 2.275.919-3.61 9.076 8.535-7.12 2.511 1.015-7.075 6.073c1.126.518 1.824 1.555 2.092 3.11s.098 3.1-.513 4.634c-.727 1.826-1.751 3.135-3.075 3.932-.826.497-1.6.756-2.316.78zm-111.093-1.079-12.76-18.17 2.33-.846 3.335 4.759 6.145-2.237-.408-5.823 2.308-.84 1.491 22.268zm111.124-2.087c.44.05.918-.077 1.437-.378.691-.402 1.237-1.1 1.63-2.093.375-.938.451-1.8.229-2.581-.22-.78-.606-1.283-1.156-1.503l-2.934-1.187-2.563 6.448 2.93 1.185c.138.056.28.092.427.109zm-9.804-.312-9.116-2.7 6.048-20.63 9.304 2.756-.887 3.024-7.01-2.078-1.88 6.41 6.652 1.97-.845 2.884-6.652-1.972-1.544 5.263 6.822 2.022zm-91.062-1.195-4.839-20.91 9.087-2.187.72 3.12-6.638 1.6 4.115 17.788zm-10.417-.743-.67-8.952-4.376 1.595zm90.059-1.455-2.549-.447-1.317-17.61-7.542 15.952-2.577-.512 9.675-20.063 2.564.48zm-47.972-2.679-1.029-14.014c-.134-1.823.209-3.641 1.029-5.46.816-1.82 2.074-2.798 3.767-2.932 1.723-.136 3.12.63 4.196 2.298 1.075 1.67 1.679 3.414 1.812 5.237l1.03 14.016-2.464.194-1.036-14.07c-.081-1.125-.437-2.097-1.065-2.916-.628-.817-1.363-1.192-2.203-1.125-.816.064-1.474.546-1.976 1.444-.503.897-.712 1.917-.629 3.06l1.035 14.073zm30.85-.124-2.574-.269 2.264-21.41 2.575.268zm-6.078-.728-2.408-.07.514-15.888-7.093 15.695-2.57-.074.692-21.456 2.392.069-.513 15.888 7.093-15.698 2.589.075z" style="color:#000;font-style:normal;font-variant:normal;font-weight:400;font-stretch:normal;font-size:medium;font-family:sans-serif;font-variant-ligatures:normal;font-variant-position:normal;font-variant-caps:normal;font-variant-numeric:normal;font-variant-alternates:normal;font-variant-east-asian:normal;font-feature-settings:normal;text-indent:0;text-decoration:none;text-decoration-line:none;text-decoration-style:solid;text-decoration-color:#000;letter-spacing:normal;word-spacing:normal;text-transform:none;writing-mode:lr-tb;direction:ltr;text-orientation:mixed;dominant-baseline:auto;baseline-shift:baseline;text-anchor:start;clip-rule:nonzero;display:inline;overflow:visible;visibility:visible;color-interpolation:sRGB;vector-effect:none;fill:#2c292a;fill-opacity:1;fill-rule:nonzero;stroke:none;stroke-width:1.404;stroke-linecap:butt;stroke-linejoin:round;stroke-miterlimit:4;stroke-dasharray:none;stroke-dashoffset:0;stroke-opacity:1;color-rendering:auto;image-rendering:auto;shape-rendering:auto;text-rendering:auto;enable-background:accumulate;stop-color:#000" transform="matrix(1.33333 0 0 -1.33333 -216.667 738.347)"/></svg>