<svg xmlns="http://www.w3.org/2000/svg" width="255.86334mm" height="187.8622mm" viewBox="0 0 255.86334 187.8622"><path d="M0 0s-100.155 57.755-211.737-.66v-283.508S-105.868-227-.444-284.609z" style="fill:#00a65d;fill-opacity:1;fill-rule:evenodd;stroke:none" transform="matrix(.6042 0 0 -.6042 127.932 15.59)"/><path d="M0 0s-99.297 57.242-212.167-.513v-284.684s104.368 59 212.167-.439z" style="fill:#005bab;fill-opacity:1;fill-rule:evenodd;stroke:none" transform="matrix(.6042 0 0 -.6042 255.863 15.28)"/><path d="M0 0c-.734.507-1.656.831-2.765.968-1.11.137-2.395-.295-3.858-1.298-1.61-1.104-2.517-2.495-2.72-4.172-.203-1.677.297-3.393 1.5-5.148 1.194-1.742 2.619-2.834 4.276-3.277 1.657-.443 3.291-.113 4.901.991 1.414.97 2.254 2.052 2.522 3.247.268 1.195.255 2.27-.037 3.226L6.653-3.52c.507-1.408.56-3.115.161-5.123-.399-2.007-1.75-3.8-4.05-5.378-2.498-1.712-4.97-2.328-7.413-1.846-2.444.481-4.47 1.894-6.078 4.24-1.607 2.344-2.189 4.732-1.742 7.165.447 2.432 1.918 4.504 4.416 6.217 2.35 1.612 4.523 2.266 6.519 1.962 1.996-.304 3.477-.878 4.443-1.723Z" style="fill:#fff;fill-opacity:1;fill-rule:nonzero;stroke:none" transform="matrix(.6042 0 0 -.6042 21.524 34.762)"/><path d="m0 0-3.542 7.393-8.949-4.288 3.542-7.392-2.938-1.408-7.856 16.398 2.938 1.408 3.189-6.656 8.949 4.287-3.189 6.656 2.911 1.395L2.911 1.395z" style="fill:#fff;fill-opacity:1;fill-rule:nonzero;stroke:none" transform="matrix(.6042 0 0 -.6042 36.768 35.281)"/><path d="M0 0c.743 1.567.844 3.353.303 5.359-.536 1.989-1.517 3.461-2.941 4.417s-3.088 1.177-4.992.663c-1.924-.519-3.247-1.546-3.968-3.08-.721-1.535-.813-3.297-.276-5.286.541-2.005 1.512-3.502 2.914-4.49 1.401-.989 3.064-1.224 4.988-.705C-2.067-2.607-.743-1.567 0 0m-.685 12.234c2.207-1.221 3.682-3.204 4.422-5.949.745-2.761.474-5.237-.813-7.427-1.287-2.19-3.364-3.672-6.23-4.445-2.867-.773-5.388-.532-7.563.724-2.176 1.255-3.636 3.264-4.381 6.026-.741 2.744-.484 5.194.772 7.35 1.255 2.154 3.316 3.619 6.183 4.392 2.866.774 5.403.55 7.61-.671" style="fill:#fff;fill-opacity:1;fill-rule:nonzero;stroke:none" transform="matrix(.6042 0 0 -.6042 48.489 28.915)"/><path d="M0 0c1.063 1.37 1.546 3.093 1.449 5.168-.096 2.058-.737 3.707-1.922 4.947-1.185 1.239-2.762 1.814-4.733 1.722-1.99-.093-3.503-.812-4.537-2.155-1.034-1.344-1.503-3.045-1.407-5.102.097-2.076.723-3.747 1.88-5.013C-8.114-1.7-6.541-2.287-4.55-2.194-2.58-2.102-1.063-1.371 0 0m1.963 12.095c1.893-1.667 2.906-3.921 3.039-6.761.133-2.857-.664-5.217-2.392-7.078C.881-3.606-1.465-4.606-4.431-4.745c-2.966-.139-5.376.64-7.23 2.334-1.855 1.694-2.849 3.97-2.982 6.827-.133 2.84.645 5.178 2.335 7.012 1.69 1.834 4.017 2.821 6.983 2.96 2.966.138 5.395-.626 7.288-2.293" style="fill:#fff;fill-opacity:1;fill-rule:nonzero;stroke:none" transform="matrix(.6042 0 0 -.6042 62.31 27.336)"/><path d="m0 0-8.101 15.144L-9.575.97l-3.24.338 1.886 18.136 3.746-.39L.982 3.955l1.497 14.094 3.15-.328L3.775-.393Z" style="fill:#fff;fill-opacity:1;fill-rule:nonzero;stroke:none" transform="matrix(.6042 0 0 -.6042 75.713 30.545)"/><path d="m0 0 2.016 7.946-9.619 2.44-2.015-7.947-3.158.801 4.47 17.625 3.158-.801-1.814-7.153 9.618-2.44 1.814 7.154 3.129-.793L3.129-.793z" style="fill:#fff;fill-opacity:1;fill-rule:nonzero;stroke:none" transform="matrix(.6042 0 0 -.6042 88.743 33.247)"/><path d="m0 0-6.72-5.877L.063-8.939zm.153-16.657-.072 4.852-8.989 4.058-3.66-3.167-3.024 1.365L-.423 3.638 2.981 2.1l.196-20.122Z" style="fill:#fff;fill-opacity:1;fill-rule:nonzero;stroke:none" transform="matrix(.6042 0 0 -.6042 101.894 28.469)"/><path d="m0 0 10.722 14.686L22.743 5.91l-1.481-2.08-9.415 6.873L8.896 6.66 17.86.083l-1.475-2.021-8.98 6.556L4.122.121l9.608-7.014-1.491-2.042Z" style="fill:#fff;fill-opacity:1;fill-rule:nonzero;stroke:none" transform="matrix(.6042 0 0 -.6042 105.265 40.352)"/><path d="M0 0c-.656.605-1.524 1.054-2.604 1.345-1.078.291-2.412.042-4-.747-1.75-.869-2.841-2.119-3.276-3.751-.435-1.633-.18-3.402.767-5.307.939-1.892 2.198-3.172 3.776-3.842 1.579-.67 3.242-.571 4.992.298 1.534.761 2.518 1.715 2.95 2.862.432 1.145.57 2.212.414 3.199l3.078 1.529c.304-1.465.119-3.163-.557-5.095-.675-1.932-2.263-3.519-4.761-4.76-2.713-1.347-5.245-1.611-7.597-.794-2.354.818-4.162 2.5-5.427 5.047-1.265 2.546-1.506 4.993-.725 7.339.782 2.345 2.529 4.193 5.241 5.54 2.552 1.267 4.795 1.611 6.73 1.032C.935 3.315 2.32 2.54 3.159 1.569Z" style="fill:#fff;fill-opacity:1;fill-rule:nonzero;stroke:none" transform="matrix(.6042 0 0 -.6042 157.26 30.944)"/><path d="M0 0c.702 1.585.758 3.374.166 5.365-.588 1.974-1.605 3.421-3.054 4.341-1.448.919-3.117 1.097-5.008.535-1.91-.569-3.206-1.629-3.886-3.181-.682-1.554-.729-3.317-.142-5.291.593-1.992 1.602-3.463 3.028-4.415 1.427-.953 3.095-1.145 5.005-.576C-2-2.66-.703-1.585 0 0m-.998 12.212c2.237-1.163 3.762-3.108 4.573-5.833.816-2.741.608-5.224-.623-7.445C1.722-3.289-.316-4.823-3.162-5.67s-5.372-.67-7.579.53c-2.207 1.199-3.719 3.17-4.534 5.911-.811 2.726-.617 5.181.584 7.368 1.199 2.186 3.221 3.703 6.067 4.549 2.846.847 5.388.688 7.626-.476" style="fill:#fff;fill-opacity:1;fill-rule:nonzero;stroke:none" transform="matrix(.6042 0 0 -.6042 171.703 31.395)"/><path d="m0 0-1.938 18.08 3.24.346L2.97 2.861l10.966 1.175.269-2.514Z" style="fill:#fff;fill-opacity:1;fill-rule:nonzero;stroke:none" transform="matrix(.6042 0 0 -.6042 177.69 32.511)"/><path d="m0 0 .867 18.163 3.254-.156L3.375 2.37l11.016-.526-.12-2.525Z" style="fill:#fff;fill-opacity:1;fill-rule:nonzero;stroke:none" transform="matrix(.6042 0 0 -.6042 188.328 31.679)"/><path d="m0 0 3.178 17.903 14.655-2.6-.417-2.52-11.477 2.036-.875-4.928 10.944-1.968-.438-2.464L4.623 7.402 3.65 1.92 15.362-.158l-.441-2.49Z" style="fill:#fff;fill-opacity:1;fill-rule:nonzero;stroke:none" transform="matrix(.6042 0 0 -.6042 199.075 32.4)"/><path d="m0 0 .646 1.966c-.819-.448-1.807-.76-2.965-.936-1.16-.175-2.373-.054-3.641.362-2.859.938-4.842 2.534-5.947 4.787-1.107 2.254-1.216 4.731-.329 7.433.886 2.701 2.429 4.609 4.631 5.723 2.201 1.115 4.74 1.2 7.618.255 2.707-.888 4.543-2.212 5.507-3.971.963-1.759 1.406-3.27 1.327-4.534l-3.379 1.109c-.054.859-.369 1.769-.946 2.729-.576.959-1.678 1.706-3.306 2.241-1.931.634-3.61.503-5.035-.39-1.426-.894-2.457-2.312-3.094-4.253-.643-1.957-.66-3.734-.052-5.332.609-1.597 1.878-2.712 3.809-3.346 1.742-.572 3.255-.531 4.539.123 1.284.654 2.188 1.557 2.714 2.711L-3.44 8.494l.74 2.256 8.775-2.879-2.923-8.905Z" style="fill:#fff;fill-opacity:1;fill-rule:nonzero;stroke:none" transform="matrix(.6042 0 0 -.6042 218.972 37.357)"/><path d="m0 0 8.53 16.058 13.145-6.983-1.172-2.269-10.294 5.468-2.348-4.42 9.807-5.239-1.174-2.21-9.819 5.216L4.063.704l10.505-5.58-1.186-2.233Z" style="fill:#fff;fill-opacity:1;fill-rule:nonzero;stroke:none" transform="matrix(.6042 0 0 -.6042 223.236 39.06)"/><path d="M0 0c-4.117-2.182-9.717-2.971-16.029 1.834-.114.088-.229.17-.347.25-.067.045-7.108 4.311-11.47 13.414-.044.092-.102.185-.141.279-4.308 10.337-3.367 18.438-3.367 18.438 3.328.445 21.326 4.236 33.24-13.873.416-.592 2.292-3.406 3.016-7.022C5.899 8.352 5.313 3.955 0 0m-53.811 15.777a7.264 7.264 0 0 1-.14-.279C-58.313 6.395-65.355 2.129-65.422 2.084a7.422 7.422 0 0 1-.348-.25C-72.082-2.971-77.682-2.182-81.798 0c-5.312 3.955-5.899 8.352-4.903 13.32.725 3.616 2.601 6.43 3.017 7.022C-71.77 38.451-53.771 34.66-50.443 34.215c0 0 .294-11.455-3.368-18.438m-28.347 72.081c4.034 3.029 9.701 2.412 9.756 2.405.147-.023.293-.04.441-.054 8.686-.807 18.115-13.269 21.717-25.422 0 0 .667-3.584.847-7.36v-3.039c-.371-.041-11.955-1.294-20.465 2.225-16.507 8.885-17.216 19.6-17.234 21.079.619 4.75 2.279 8.169 4.938 10.166m72.321 2.351c.148.014.294.031.441.054.055.007 5.722.624 9.756-2.405 2.66-1.997 4.319-5.416 4.937-10.166-.017-1.479-.726-12.194-17.233-21.079 0 0-7.38-3.021-20.464-2.224v.631c.212 7.789.846 9.767.846 9.767 1.582 8.695 13.032 24.615 21.717 25.422m28.446-60.49C13.023 36.176 5.208 41.055-.388 44.475c27.775 13.732 26.57 36.371 26.497 37.304a7.355 7.355 0 0 1-.032.333c-1.185 10.132-5.275 18.524-12.384 23.836-9.633 7.2-20.853 6.259-23.089 5.965-14.252-1.464-24.854-16.505-31.502-29.681-6.651 13.176-17.252 28.217-31.504 29.681-2.237.294-13.455 1.235-23.09-5.965-7.109-5.312-11.197-13.704-12.383-23.836-.014-.11-.023-.222-.032-.333-.054-.693-.722-13.362 10.315-25.461-5.303.088-13.457-.428-25.983-2.31 0 0-14.225-2.463-29.394-7.487 0 0-13.124-4.195-21.143-4.851 0 0-10.07-.606-17.523.781 0 0-5.212 1.094-8.105 2.201-1.381.529-5.404 2.203-7.406 1.203 0 0-3.503-2.363 1.3-5.406 0 0 6.999-4.217 17.513-5.705 0 0 9.708-1.9 23.018-.799 0 0 12.057 1.405 21.916 3.903 0 0 12.253 3.322 18.011 4.402 0 0 6.362 1.629 16.34.004 0 0 9.765-1.225 18.439-3.804-3.454-2.505-6.921-5.405-9.798-8.731a8.09 8.09 0 0 1-.322-.397c-6.709-8.767-14.292-29.707 5.793-47.369.532-.465 1.152-.81 1.75-1.187 2.858-1.803 7.199-3.584 16.095-3.584 6.171 0 13.383 1.609 20.274 6.982 1.697 1.25 9.123 9.664 15.358 23.016.105.206.299.592.56 1.121.26-.529.454-.915.559-1.121 6.236-13.352 13.662-21.766 15.36-23.016 6.89-5.373 14.102-6.982 20.273-6.982 8.896 0 13.237 1.781 16.094 3.584.599.377 1.218.722 1.751 1.187C33.225-.385 25.639 20.555 18.932 29.322a9.475 9.475 0 0 1-.323.397" style="fill:#fff;fill-opacity:1;fill-rule:evenodd;stroke:none" transform="matrix(.6042 0 0 -.6042 205.909 127.26)"/><path d="M0 0c.009.001.995.092 2.68.092 9.87 0 34.3-2.735 48.203-28.031.942-2.066 3.084-4.395 6.159-4.395h.002c.896 0 1.791.203 2.662.605l.3.156c1.073.632 1.891 1.841 2.19 3.236.551 2.59-.553 5.797-3.381 9.8-1.594 2.782-19.009 31.752-53.829 35.127-.714.123-3.407.531-7.494.531-10.079 0-30.017-2.514-50.363-19.355-1.724-1.354-27.985-22.823-19.858-67.151.1-.549 2.572-13.619 12.392-26.791 9.096-12.199 26.429-26.74 57.357-26.74 2.188 0 4.449.072 6.716.217l.098.008c1.636.152 40.259 4.115 56.992 39.88.481.967 1.515 3.457.752 5.707a4.521 4.521 0 0 1-2.301 2.631l-.229.102a4.888 4.888 0 0 1-1.792.324c-1.366 0-3.964-.529-6.015-4.07l-.075-.137c-.607-1.162-15.227-28.476-46.776-28.48h-.006a57.95 57.95 0 0 0-7.854.55c-.115.016-11.551 1.631-23.091 9.129-15.205 9.881-23.488 24.91-24.62 44.668.011 1.002.274 12.158 6.314 23.957C-36.46-12.006-21.343-2.438 0 0" style="fill:#fff;fill-opacity:1;fill-rule:nonzero;stroke:none" transform="matrix(.6042 0 0 -.6042 77.56 68.106)"/><path d="M0 0h-8.182v1.406h3.308v11.461l-3.397-1.031v1.516l4.973 1.554v-13.5H0Z" style="fill:#fff;fill-opacity:1;fill-rule:nonzero;stroke:none" transform="matrix(.6042 0 0 -.6042 112.84 164.387)"/><path d="M0 0c0-1.01.264-1.822.792-2.436.529-.615 1.265-.921 2.209-.921.819 0 1.502.273 2.051.818.548.543.822 1.209.822 1.994 0 1.076-.269 1.983-.807 2.715-.539.732-1.263 1.1-2.174 1.1-.852 0-1.547-.319-2.085-.956C.269 1.676 0 .906 0 0m-.812-8.418a5.1 5.1 0 0 1 2.565-.693c1.328 0 2.364.539 3.111 1.619.746 1.08 1.119 2.619 1.119 4.621-.013-.014-.026-.014-.04 0-.633-1.27-1.727-1.902-3.278-1.902-1.255 0-2.28.431-3.076 1.293-.796.861-1.193 1.943-1.193 3.244 0 1.398.427 2.558 1.282 3.476.855.918 1.976 1.377 3.363 1.377 1.466 0 2.587-.574 3.363-1.724C7.18 1.744 7.568.104 7.568-2.029c0-2.662-.51-4.731-1.53-6.207-1.021-1.475-2.472-2.213-4.354-2.213-.977 0-1.809.166-2.496.496z" style="fill:#fff;fill-opacity:1;fill-rule:nonzero;stroke:none" transform="matrix(.6042 0 0 -.6042 120.023 158.223)"/><path d="M0 0c0-1.023.274-1.893.822-2.609.548-.717 1.265-1.075 2.15-1.075.851 0 1.543.319 2.075.955.531.637.798 1.422.798 2.352 0 1.057-.255 1.881-.764 2.473-.508.59-1.219.886-2.129.886-.832 0-1.533-.289-2.1-.867C.284 1.537 0 .832 0 0m6.577 8.123a5.271 5.271 0 0 1-2.387.574c-1.347 0-2.404-.593-3.169-1.777C.254 5.734-.126 4.174-.119 2.238h.05c.673 1.395 1.786 2.09 3.338 2.09 1.287 0 2.308-.416 3.06-1.248.754-.832 1.129-1.918 1.129-3.258 0-1.381-.424-2.533-1.272-3.457-.849-.924-1.94-1.386-3.274-1.386-1.499 0-2.649.587-3.452 1.763-.803 1.174-1.203 2.803-1.203 4.883 0 2.457.517 4.473 1.555 6.053 1.037 1.578 2.49 2.367 4.358 2.367 1.011 0 1.813-.139 2.407-.416z" style="fill:#fff;fill-opacity:1;fill-rule:nonzero;stroke:none" transform="matrix(.6042 0 0 -.6042 131.856 161.503)"/><path d="M0 0c0 .688-.215 1.227-.645 1.619-.429.393-1.009.59-1.742.59-.674 0-1.254-.207-1.738-.619-.486-.412-.729-.93-.729-1.551 0-1.293.799-2.268 2.397-2.922C-.818-2.203 0-1.242 0 0m-2.566-4.379c-1.889-.752-2.832-1.836-2.832-3.248 0-.766.279-1.379.841-1.838.561-.459 1.282-.687 2.159-.687.859 0 1.556.224 2.095.673.539.448.807 1.043.807 1.782 0 1.48-1.024 2.586-3.07 3.318m-1.278.803C-5.6-2.744-6.479-1.559-6.479-.02c0 1.077.407 1.944 1.219 2.6.813.656 1.822.986 3.031.986 1.083 0 1.997-.31 2.743-.931.748-.621 1.121-1.43 1.121-2.428 0-1.617-.906-2.879-2.715-3.783v-.039c2.127-.799 3.189-2.117 3.189-3.953 0-1.241-.439-2.207-1.318-2.897-.877-.689-2.062-1.035-3.555-1.035-1.222 0-2.236.354-3.041 1.061-.806.705-1.209 1.617-1.209 2.732 0 1.877 1.057 3.24 3.17 4.092z" style="fill:#fff;fill-opacity:1;fill-rule:nonzero;stroke:none" transform="matrix(.6042 0 0 -.6042 146.634 157.588)"/></svg>