<svg xmlns="http://www.w3.org/2000/svg" width="215.43398mm" height="215.43398mm" viewBox="0 0 215.43398 215.43398"><g transform="matrix(1.08464 0 0 1.08464 -2.904 -65.61)"><circle cx="101.98885" cy="159.80103" r="99.311325" style="fill:#f9f9f9;stroke:#fff;stroke-width:0"/><path d="M0 0s-12.418-5.808-11.696-17.256c.365-5.807 6.02-10.175 6.753-14.821 1.086-6.899-1.1-11.283-1.1-11.283s5.492 4.81 5.676 12.776c.182 7.964-2.89 9.073-3.073 16.207C-3.596-8.349 0 0 0 0" style="fill:#a7af38;fill-opacity:1;fill-rule:nonzero;stroke:none" transform="matrix(2.3616 0 0 -2.3616 115.296 79.18)"/><path d="m0 0-8.266 7.725c-.004-.043.134-3.824.034-8.785-2.762 2.06-6.459 3.874-11.215 4.825.719-2.276 1.641-4.124 1.998-7.174 4.659-1.66 7.465-4.369 8.775-6.423-.378-4.341-1.031-8.558-2.15-11.383-2.528-6.388-9.733-10.225-13.396-11.84-.833-1.773-1.704-3.903-1.69-5.028.663.178 15.084 3.984 20.315 12.771C.454-15.151 0 0 0 0" style="fill:#1c1060;fill-opacity:1;fill-rule:nonzero;stroke:none" transform="matrix(2.3616 0 0 -2.3616 162.828 135.375)"/><path d="M0 0c-3.663 1.614-10.868 5.452-13.397 11.84-1.12 2.825-1.772 7.038-2.149 11.382 1.59 2.494 5.385 5.957 12.035 7.33-1.19 1.833-2.485 3.732-3.278 5.8-3.801-1.015-6.84-2.599-9.198-4.358-.104 4.962.036 8.743.031 8.785l-8.263-7.724s-.456-15.151 5.594-25.313C-13.396-1.044 1.026-4.851 1.688-5.029 1.704-3.903.833-1.773 0 0" style="fill:#1c1060;fill-opacity:1;fill-rule:nonzero;stroke:none" transform="matrix(2.3616 0 0 -2.3616 97.651 213.436)"/><path d="M0 0c-.146-.292-.373-.435-.665-.435-.29 0-.528.149-.72.449-.217.351-.324.849-.324 1.504 0 .617.094 1.106.283 1.474.186.365.428.549.722.549.311 0 .546-.153.7-.456.069-.129.115-.283.145-.449h1.123c-.075.442-.281.82-.615 1.134a1.958 1.958 0 0 1-1.368.548c-.612 0-1.118-.256-1.516-.777-.398-.519-.597-1.177-.597-1.968 0-.81.207-1.476.617-1.998.41-.523.935-.783 1.576-.783.535 0 .983.19 1.342.575.299.321.488.736.584 1.237H.182A1.947 1.947 0 0 0 0 0" style="fill:#1c1060;fill-opacity:1;fill-rule:nonzero;stroke:none" transform="matrix(2.3616 0 0 -2.3616 86.92 195.71)"/><path d="M0 0h-1.666v2.125h-1.213v-5.287h1.213v2.383H0v-2.383h1.18v5.287H0Z" style="fill:#1c1060;fill-opacity:1;fill-rule:nonzero;stroke:none" transform="matrix(2.3616 0 0 -2.3616 98.18 190.821)"/><path d="M0 0c-.488.197-.758.314-.811.346-.234.134-.349.297-.349.489 0 .19.058.343.176.463a.605.605 0 0 0 .454.181c.246 0 .43-.091.555-.271.109-.156.164-.365.164-.627h1.122c0 .505-.159.912-.477 1.219-.318.305-.752.456-1.299.456-.596 0-1.045-.141-1.353-.426-.31-.286-.463-.689-.463-1.209 0-.408.121-.728.361-.957.221-.208.639-.421 1.252-.635.42-.144.708-.285.864-.422a.518.518 0 0 0 .174-.393c0-.277-.089-.472-.259-.588-.126-.084-.302-.124-.533-.124-.276 0-.483.068-.623.207-.159.166-.238.448-.238.85h-1.122c0-.584.168-1.037.501-1.354.336-.316.826-.476 1.47-.476.635 0 1.12.147 1.452.443.316.279.476.681.476 1.208 0 .391-.131.714-.386.972C.892-.431.523-.215 0 0" style="fill:#1c1060;fill-opacity:1;fill-rule:nonzero;stroke:none" transform="matrix(2.3616 0 0 -2.3616 107.958 190.838)"/><path d="M0 0v-3.616c0-.325-.073-.576-.216-.752-.142-.176-.359-.262-.654-.262-.297 0-.524.098-.674.29-.13.173-.194.417-.194.724V0H-2.86v-3.161c0-1.495.664-2.242 1.99-2.242.674 0 1.174.182 1.502.544.326.362.488.93.488 1.698V0Z" style="fill:#1c1060;fill-opacity:1;fill-rule:nonzero;stroke:none" transform="matrix(2.3616 0 0 -2.3616 119.579 185.803)"/><path d="M0 0c-5.046-.899-10.222-5.506-11.571-6.782l-.096-.093-.135-.013c-14.938-1.84-26.212-14.589-26.212-29.661 0-16.486 13.411-29.9 29.9-29.9 16.483 0 29.896 13.414 29.896 29.9 0 14.062-9.974 26.363-23.72 29.251l-.245.068S-.683-1.82 0 0m-8.131-77.32c-22.472 0-40.76 18.285-40.76 40.76 0 22.472 18.288 40.758 40.76 40.758 22.474 0 40.759-18.286 40.759-40.758 0-22.475-18.285-40.76-40.759-40.76" style="fill:#1c1060;fill-opacity:1;fill-rule:nonzero;stroke:none" transform="matrix(2.3616 0 0 -2.3616 121.004 73.365)"/><path d="m0 0 .33.478-1.484 1.038-.332-.478Zm-.448 2.532-.406-.582L.634.914l.406.583.768-.532L.463-.967-2.029.764a.666.666 0 0 0-.284.406.595.595 0 0 0 .11.47l.993 1.42zM.927-1.707l-.302-.436L-1.16-.897l-.313-.454 1.252-.863-1.091-1.569-.764.53.793 1.134-2.519 1.754.296.435 1.272-.886.31.446L-3.706.874l.305.435z" style="fill:#fff;fill-opacity:1;fill-rule:nonzero;stroke:none" transform="matrix(2.3616 0 0 -2.3616 56.967 227.272)"/><path d="M0 0a.779.779 0 0 1-.454-.214.801.801 0 0 1-.243-.444c-.032-.174.004-.318.109-.426.098-.11.238-.148.416-.128a.794.794 0 0 1 .695.661c.036.174 0 .317-.103.428C.321-.014.176.026 0 0m3.21-1.162-.37-.35L1.327.087l-.263-.251a1.45 1.45 0 0 0 .181-.812 1.048 1.048 0 0 0-.323-.692c-.244-.231-.551-.323-.92-.279-.367.041-.687.212-.969.51-.276.291-.43.624-.456.998-.024.367.086.669.326.899.194.184.431.278.713.286.281.006.55-.071.81-.235l.263.252-1.523 1.601.374.351z" style="fill:#fff;fill-opacity:1;fill-rule:nonzero;stroke:none" transform="matrix(2.3616 0 0 -2.3616 38.282 218.583)"/><path d="M0 0c-.088.088-.151.158-.357.365-.2.205-.404.429-.618.675a1.96 1.96 0 0 0-.345.534 2.776 2.776 0 0 0-.116.337l.513.138a.93.93 0 0 1 .05-.113c.025-.044.047-.096.08-.152.035-.065.074-.129.121-.197.046-.074.096-.14.161-.209.19-.219.379-.424.577-.628C.262.546.322.485.419.387Zm-.261-1.93-.662.031c-.59.773-.7 1.43-.7 1.43C-2.291-.173-3.281.718-3.506.927l.057.482C-3.015 1.045-1.998.288-1.182.197l-1.339 1.412.378.361L.297-.6a.985.985 0 0 0-.489-.163c-.194-.016-.398 0-.618.046 0 0 .148-.679.549-1.213" style="fill:#fff;fill-opacity:1;fill-rule:nonzero;stroke:none" transform="matrix(2.3616 0 0 -2.3616 47.05 214.936)"/><path d="m0 0 .424.972-1.883.82-.423-.967zm.548-2.552L-4.12-.514l.205.475 1.91-.829.429.986-.782.339a.65.65 0 0 0-.358.344.6.6 0 0 0 .016.476l.984 2.259.852-.374-.39-.891 1.888-.819.388.891.854-.369L.645-.851l-1.364.6-.429-.987 1.904-.835z" style="fill:#fff;fill-opacity:1;fill-rule:nonzero;stroke:none" transform="matrix(2.3616 0 0 -2.3616 70.908 237.389)"/><path d="m0 0 2.987-.646-.112-.52-3.271.704a.666.666 0 0 0-.416.26.59.59 0 0 0-.076.483l.271 1.29.911-.197zm3.849 4.469L2.959.342l-.908.196.439 2.063-.986.215.108.497a2.5 2.5 0 0 0-1.243-.998c-.52-.195-1.031-.249-1.525-.146l-.429.459c.63-.085 1.181.014 1.656.292.479.284.781.742.917 1.365l.012.07-1.759.379.113.514 2.73-.59-.1-.451a2.588 2.588 0 0 0-.142-.466 3.276 3.276 0 0 0-.221-.407l.983-.212.334 1.539Z" style="fill:#fff;fill-opacity:1;fill-rule:nonzero;stroke:none" transform="matrix(2.3616 0 0 -2.3616 82.4 246.274)"/><path d="M0 0h3.105v-1.503c0-.368-.033-.675-.099-.904a2.02 2.02 0 0 0-.274-.612h-.809c.124.203.193.413.219.635.019.211.031.491.031.827v1.032H0Zm1.521-1.431v-1.928h1.07c.202 0 .389.016.557.038.167.029.307.057.424.087V.362h.927v-1.551h.931v-.533h-.931v-3.627h-.927v1.66a2.691 2.691 0 0 0-.457-.138 2.528 2.528 0 0 0-.562-.061H-.156v.529h.809v1.928z" style="fill:#fff;fill-opacity:1;fill-rule:nonzero;stroke:none" transform="matrix(2.3616 0 0 -2.3616 96.011 237.086)"/><path d="m0 0-.737 1.7a1.147 1.147 0 0 0-.215-.249 1.572 1.572 0 0 0-.38-.225L-2.536.699c-.182-.077-.35-.088-.499-.031a.583.583 0 0 0-.328.337l-1.14 2.62 2.035.881.215-.486-1.197-.516.954-2.205.991.431c.147.059.267.127.363.194.096.07.17.138.223.194l-1.205 2.788.81.35.561-1.292.507.225-.617 1.418.805.351L2.212.722 1.401.368-.042 3.703l-.506-.217L.812.35Z" style="fill:#fff;fill-opacity:1;fill-rule:nonzero;stroke:none" transform="matrix(2.3616 0 0 -2.3616 138.061 241.779)"/><path d="m0 0 2.864 2.957 1.344-1.305c.279-.266.494-.517.659-.761.157-.244.265-.472.318-.67L4.614-.37c-.056.223-.174.44-.359.652-.176.207-.42.459-.73.761l-.919.887L.384-.37Zm2.173-.173 1.652-1.598.318.332L2.495.159l.623.638L4.771-.797 6.108.589l.373-.368-3.535-3.656-.383.368.638.65L1.548-.822z" style="fill:#fff;fill-opacity:1;fill-rule:nonzero;stroke:none" transform="matrix(2.3616 0 0 -2.3616 154.989 216.758)"/><path d="m0 0 .91.199.118-.519-.911-.198.344-1.578-.911-.2-.71 3.243.911.196zm-.254-3.177-3.097-.678-.112.516 4.004.875.43-1.971-.909-.198z" style="fill:#fff;fill-opacity:1;fill-rule:nonzero;stroke:none" transform="matrix(2.3616 0 0 -2.3616 123.013 236.506)"/><path d="M0 0c-.11-.026-.282-.069-.524-.125a17.034 17.034 0 0 0-.789-.16c-.237-.036-.411-.044-.558-.018a1.33 1.33 0 0 0-.321.065l.113.522c.025-.007.058-.01.101-.018.047-.003.106-.01.159-.01.061-.006.131-.006.209 0 .074 0 .155.01.24.021A14.14 14.14 0 0 1-.124.56zm-1.856-1.168-.709-.154-.112.507 3.44.753.112-.512L-.59-.893" style="fill:#fff;fill-opacity:1;fill-rule:nonzero;stroke:none" transform="matrix(2.3616 0 0 -2.3616 118.107 236.484)"/><path d="M0 0c-.295-.063-.467-.416-.383-.789.082-.369.383-.619.68-.556.291.062.465.419.383.788C.598-.184.297.065 0 0m1.537-.367c.143-.657-.363-1.32-1.133-1.489-.765-.167-1.504.224-1.648.882C-1.385-.321-.881.34-.115.513c.769.168 1.51-.228 1.652-.88" style="fill:#fff;fill-opacity:1;fill-rule:nonzero;stroke:none" transform="matrix(2.3616 0 0 -2.3616 116.085 238.734)"/><path d="m0 0 .75.55.314-.425-.748-.553.959-1.296-.753-.556L-1.445.387l.75.556zm1.061-3.003-2.547-1.884-.311.42 3.294 2.433 1.2-1.616-.751-.554z" style="fill:#fff;fill-opacity:1;fill-rule:nonzero;stroke:none" transform="matrix(2.3616 0 0 -2.3616 151.744 221.8)"/><path d="M0 0c-.084-.071-.225-.175-.426-.327a10.771 10.771 0 0 0-.653-.469 1.761 1.761 0 0 0-.826-.315l-.107.515c.022.011.059.02.103.034.042.011.093.031.15.051.054.022.12.052.187.082.069.033.138.077.211.125.209.142.412.283.603.432.195.146.332.256.42.329zm-1.212-1.829-.587-.428-.308.422L.727.254l.309-.421-1.207-.89" style="fill:#fff;fill-opacity:1;fill-rule:nonzero;stroke:none" transform="matrix(2.3616 0 0 -2.3616 147.247 223.786)"/><path d="M0 0c-.245-.182-.253-.573-.031-.878.225-.3.605-.409.848-.232.241.184.252.578.03.883C.62.078.237.176 0 0m1.554.292c.397-.537.203-1.355-.424-1.823-.633-.467-1.47-.406-1.863.135-.401.538-.209 1.351.421 1.816C.32.891 1.155.833 1.554.292" style="fill:#fff;fill-opacity:1;fill-rule:nonzero;stroke:none" transform="matrix(2.3616 0 0 -2.3616 146.327 226.666)"/><path d="M0 0a.727.727 0 0 0-1.456 0A.73.73 0 1 0 0 0" style="fill:#fff;fill-opacity:1;fill-rule:nonzero;stroke:none" transform="matrix(2.3616 0 0 -2.3616 34.548 205.743)"/><path d="M0 0a.729.729 0 1 0-.726.729A.727.727 0 0 0 0 0" style="fill:#fff;fill-opacity:1;fill-rule:nonzero;stroke:none" transform="matrix(2.3616 0 0 -2.3616 172.29 205.64)"/><path d="m0 0 .337-.705a1.477 1.477 0 0 1-.372-.243 1.017 1.017 0 0 1-.205-.28.675.675 0 0 1-.044-.379c.021-.145.059-.276.107-.394.094-.191.219-.349.377-.474.16-.127.344-.213.557-.261.211-.05.444-.059.693-.022.252.036.518.12.796.254.152.075.329.18.526.319.196.137.366.307.51.507.145.203.239.438.289.703.046.265-.005.56-.156.886a2.007 2.007 0 0 1-.473.668 2.973 2.973 0 0 1-.552.399l.699.334c.054-.042.117-.09.189-.15.075-.059.153-.137.235-.23.087-.091.178-.206.27-.345.093-.14.188-.309.283-.508.177-.366.253-.715.233-1.046a2.203 2.203 0 0 0-.261-.922 2.821 2.821 0 0 0-.627-.766 3.895 3.895 0 0 0-.858-.559 3.388 3.388 0 0 0-.943-.296 2.41 2.41 0 0 0-.93.026c-.3.067-.576.195-.827.392a2.174 2.174 0 0 0-.627.811 1.89 1.89 0 0 0-.192.976c.032.325.15.613.354.867.062.079.146.156.258.229.111.074.23.144.354.209" style="fill:#fff;fill-opacity:1;fill-rule:nonzero;stroke:none" transform="matrix(2.3616 0 0 -2.3616 22.532 192.428)"/><path d="m0 0 .237-.722-2.241-.738.629-1.904 2.242.738.236-.722-4.955-1.633-.24.722 2.054.675-.626 1.905-2.055-.676-.236.722z" style="fill:#fff;fill-opacity:1;fill-rule:nonzero;stroke:none" transform="matrix(2.3616 0 0 -2.3616 27.3 179.917)"/><path d="M0 0c.212.04.44.055.686.046.244-.01.48-.064.707-.162.226-.098.424-.251.599-.459.174-.208.297-.491.365-.849.071-.367.062-.677-.02-.935a1.513 1.513 0 0 0-.384-.634 1.85 1.85 0 0 0-.601-.392 3.55 3.55 0 0 0-.666-.2l-3.195-.609-.143.76 3.178.608c.166.03.328.074.482.133.151.057.287.136.4.237a.914.914 0 0 1 .251.372c.054.146.06.323.021.531-.038.2-.106.358-.209.479a.938.938 0 0 1-.369.263 1.288 1.288 0 0 1-.469.089 2.467 2.467 0 0 1-.499-.042l-3.181-.605-.142.76z" style="fill:#fff;fill-opacity:1;fill-rule:nonzero;stroke:none" transform="matrix(2.3616 0 0 -2.3616 20.736 170.815)"/><path d="m0 0 .052-.891-3.909-2.148.002-.026 4.022.236.042-.733L-5-3.865l-.054.911 3.931 2.135v.018l-4.043-.235-.042.731z" style="fill:#fff;fill-opacity:1;fill-rule:nonzero;stroke:none" transform="matrix(2.3616 0 0 -2.3616 24.594 159.889)"/><path d="m0 0-.059-.779c-.193.014-.356 0-.492-.041a.798.798 0 0 1-.324-.182.878.878 0 0 1-.19-.295 1.635 1.635 0 0 1-.084-.346 1.352 1.352 0 0 1 .442-1.106c.159-.148.36-.272.593-.365.237-.094.509-.153.818-.175.167-.013.372-.007.61.017.241.024.473.088.7.193.226.102.425.258.599.464.171.206.276.488.306.846.011.144.011.281-.002.409a1.987 1.987 0 0 1-.072.373l-1.39.102-.088-1.184-.707.053.142 1.943L3.335-.26l.017-.167c.024-.067.052-.145.085-.232.034-.089.061-.193.084-.316.026-.12.043-.263.054-.422.01-.159.008-.342-.009-.551-.029-.404-.133-.745-.316-1.022a2.208 2.208 0 0 0-.689-.672 2.796 2.796 0 0 0-.924-.351 3.908 3.908 0 0 0-1.018-.06 3.42 3.42 0 0 0-.965.211c-.302.114-.57.279-.797.488a2.172 2.172 0 0 0-.521.752 2.284 2.284 0 0 0 .012 1.663c.086.2.204.375.354.521.152.145.335.258.554.334.215.076.463.105.744.084" style="fill:#fff;fill-opacity:1;fill-rule:nonzero;stroke:none" transform="matrix(2.3616 0 0 -2.3616 16.718 148.835)"/><path d="M0 0a.798.798 0 0 1-.508-.055A.895.895 0 0 1-.9-.454a2.439 2.439 0 0 1-.094-.211 1.386 1.386 0 0 1-.068-.223l-.144-.724 1.673-.337.134.664.027.146a1.484 1.484 0 0 1 .02.448.735.735 0 0 1-.277.521C.283-.1.158-.042 0 0m-2.292.271c-.219.045-.392.011-.52-.099A.986.986 0 0 1-3.1-.25c-.017-.052-.033-.112-.053-.18a2.273 2.273 0 0 1-.041-.173l-.117-.584 1.442-.292.102.51c.007.031.019.079.033.148.012.068.021.134.021.193a.952.952 0 0 1-.07.515.651.651 0 0 1-.509.384M.166.758c.399-.082.693-.251.88-.507.187-.257.291-.554.313-.894a2.592 2.592 0 0 0-.017-.34c-.018-.123-.033-.236-.052-.335L.986-2.822l-5.117 1.031.304 1.504c.041.204.109.395.197.575.091.179.204.329.341.453.136.122.297.212.48.265.189.056.395.058.621.013.187-.037.334-.102.454-.193.113-.092.201-.192.262-.305a.955.955 0 0 0 .135-.318c.025-.106.038-.192.044-.26l.035-.007c.028.061.073.148.135.259.061.111.151.218.263.317.113.094.255.171.421.229.168.058.368.063.605.017" style="fill:#fff;fill-opacity:1;fill-rule:nonzero;stroke:none" transform="matrix(2.3616 0 0 -2.3616 23.185 141.28)"/><path d="M0 0c.201-.068.408-.167.617-.295.209-.129.389-.29.534-.486.153-.195.25-.427.299-.694.052-.268.021-.574-.096-.92-.12-.354-.279-.623-.478-.805a1.518 1.518 0 0 0-.642-.364 1.838 1.838 0 0 0-.716-.046 3.35 3.35 0 0 0-.68.15l-3.084 1.036.246.734 3.069-1.031c.161-.054.324-.093.485-.119.163-.025.318-.022.468.012a.881.881 0 0 1 .4.2.991.991 0 0 1 .276.452.995.995 0 0 1 .054.519.913.913 0 0 1-.193.411 1.293 1.293 0 0 1-.363.309 2.519 2.519 0 0 1-.458.207L-3.329.302l.246.733z" style="fill:#fff;fill-opacity:1;fill-rule:nonzero;stroke:none" transform="matrix(2.3616 0 0 -2.3616 25.67 129.667)"/><path d="m0 0-.403-.843-2.914-.76-.018-.035 2.075-.995-.322-.673-4.706 2.253.32.673 1.893-.906.017.039-1.145 2.464.374.78L-3.5-.924z" style="fill:#fff;fill-opacity:1;fill-rule:nonzero;stroke:none" transform="matrix(2.3616 0 0 -2.3616 34.474 121.785)"/><path d="m0 0-.443-.62L-2.362.75-3.527-.88l1.921-1.372-.443-.618L-6.295.162l.44.618 1.761-1.256 1.165 1.63-1.76 1.256.441.621z" style="fill:#fff;fill-opacity:1;fill-rule:nonzero;stroke:none" transform="matrix(2.3616 0 0 -2.3616 41.473 111.522)"/><path d="m0 0-1.951-2.159-3.871 3.502 1.906 2.106.518-.467-1.397-1.544 1.07-.968 1.343 1.48.515-.468L-3.208.003l1.251-1.13L-.518.467z" style="fill:#fff;fill-opacity:1;fill-rule:nonzero;stroke:none" transform="matrix(2.3616 0 0 -2.3616 47.207 105.128)"/><path d="m0 0-1.783 1.186-.02-.017.819-1.995zm2.635-.698-.642-.537-1.37.848-1.324-1.111.57-1.52-.586-.493-1.994 5.139.619.521z" style="fill:#fff;fill-opacity:1;fill-rule:nonzero;stroke:none" transform="matrix(2.3616 0 0 -2.3616 49.997 95.627)"/><path d="m0 0-2.521-1.63-2.823 4.372.645.417 2.445-3.787L-.377.585z" style="fill:#fff;fill-opacity:1;fill-rule:nonzero;stroke:none" transform="matrix(2.3616 0 0 -2.3616 63.54 92.572)"/><path d="m0 0-1.242-.621L.787-4.669l-.679-.343-2.029 4.049-1.232-.617-.308.617L-.309.617z" style="fill:#fff;fill-opacity:1;fill-rule:nonzero;stroke:none" transform="matrix(2.3616 0 0 -2.3616 66.164 79.403)"/><path d="m0 0-.714-.26-.808 2.216-1.884-.687.807-2.217-.714-.261-1.788 4.904.716.261.739-2.033 1.883.686-.74 2.033.715.261z" style="fill:#fff;fill-opacity:1;fill-rule:nonzero;stroke:none" transform="matrix(2.3616 0 0 -2.3616 79.224 85.862)"/><path d="M0 0a.41.41 0 0 1-.211.292c-.115.071-.271.092-.458.061C-.84.325-.957.255-1.018.146a.57.57 0 0 1 .027-.568c.045-.071.095-.137.146-.202.059-.064.116-.123.171-.173.06-.052.106-.094.145-.121.043.046.082.085.113.115.027.029.057.059.09.091l.058.065a1.7 1.7 0 0 1 .209.28A.514.514 0 0 1 0 0m.822-3.065L-.557-1.864a5.228 5.228 0 0 0-.16-.178c-.069-.072-.134-.146-.203-.22a8.067 8.067 0 0 1-.199-.228.977.977 0 0 1-.132-.173.86.86 0 0 1-.149-.436.685.685 0 0 1 .14-.469.97.97 0 0 1 .38-.311.894.894 0 0 1 .524-.108c.2.034.401.14.601.325.202.181.394.381.577.597m2.177-.968L2.1-4.18l-.721.64a8.258 8.258 0 0 0-.311-.335 4.025 4.025 0 0 0-.367-.327 3.554 3.554 0 0 0-.423-.273 1.677 1.677 0 0 0-.477-.17 1.852 1.852 0 0 0-.906.08 1.415 1.415 0 0 0-.732.556c-.181.245-.27.526-.268.839.001.315.095.614.278.899a4.326 4.326 0 0 0 .355.441c.075.08.144.158.212.234.069.074.125.136.172.183a5.163 5.163 0 0 0-.441.46 1.152 1.152 0 0 0-.276.554c-.039.16-.039.319-.004.473a1.186 1.186 0 0 0 .548.752c.148.091.316.153.513.183.139.024.291.029.447.012A1.23 1.23 0 0 0 .505.602 1.064 1.064 0 0 0 .66-.499a2.284 2.284 0 0 0-.375-.564.47.47 0 0 0-.072-.079c-.035-.035-.07-.071-.109-.107a2.805 2.805 0 0 0-.14-.126l1.3-1.125.583.75.565-.407-.6-.826z" style="fill:#fff;fill-opacity:1;fill-rule:nonzero;stroke:none" transform="matrix(2.3616 0 0 -2.3616 88.876 73.372)"/><path d="M0 0c-.164-.497-.445-.811-.848-.944-.402-.134-.882-.11-1.437.072a2.677 2.677 0 0 0-.319.126c-.103.05-.204.1-.304.152l-.284.174a3.882 3.882 0 0 0-.255.172l.239.738.171-.149c.066-.063.15-.127.25-.194a2.87 2.87 0 0 1 .781-.385c.123-.04.246-.069.371-.083a.938.938 0 0 1 .352.022.667.667 0 0 1 .287.155c.084.077.15.185.195.322a.737.737 0 0 1 .035.365.773.773 0 0 1-.115.303 1.34 1.34 0 0 1-.206.259c-.08.082-.158.161-.231.242-.133.123-.266.26-.411.409a3.442 3.442 0 0 0-.384.477 1.626 1.626 0 0 0-.241.52 1 1 0 0 0 .024.581c.149.451.404.737.77.856.368.12.783.104 1.248-.049.109-.035.216-.079.324-.131.107-.054.207-.107.304-.165l.268-.177.229-.146-.24-.746a3.333 3.333 0 0 1-1.148.718c-.225.073-.424.082-.601.028-.179-.054-.301-.182-.368-.383a.515.515 0 0 1-.02-.269.731.731 0 0 1 .096-.238c.048-.076.109-.152.177-.225l.221-.231.412-.404c.083-.103.176-.21.279-.321.108-.111.199-.23.281-.366.077-.137.13-.292.157-.471A1.48 1.48 0 0 0 0 0" style="fill:#fff;fill-opacity:1;fill-rule:nonzero;stroke:none" transform="matrix(2.3616 0 0 -2.3616 130.393 84.315)"/><path d="m0 0-.709.326c.072.162.119.305.13.427a.932.932 0 0 1-.02.344.682.682 0 0 1-.212.321 1.558 1.558 0 0 1-.332.234 1.34 1.34 0 0 1-1.186-.033 1.79 1.79 0 0 1-.548-.427 2.715 2.715 0 0 1-.45-.704 4.256 4.256 0 0 1-.201-.58 2.01 2.01 0 0 1-.067-.719 1.72 1.72 0 0 1 .227-.723c.135-.235.364-.428.686-.582.276-.131.539-.202.793-.211.248-.008.476.008.678.049l-.324-.706a14.491 14.491 0 0 1-.241-.006 1.887 1.887 0 0 0-.326.027 2.44 2.44 0 0 0-.43.092 3.97 3.97 0 0 0-.545.21c-.367.168-.65.387-.846.655-.197.268-.325.56-.388.878-.062.32-.064.649-.006.988.053.339.154.664.297.976.143.309.32.585.538.833.219.247.461.437.732.574.272.141.568.218.888.228.317.01.653-.064 1-.223.326-.149.583-.358.77-.628.185-.269.279-.565.281-.892A.98.98 0 0 0 .14.387 3.477 3.477 0 0 0 0 0" style="fill:#fff;fill-opacity:1;fill-rule:nonzero;stroke:none" transform="matrix(2.3616 0 0 -2.3616 141.704 83.81)"/><path d="m0 0-.678.388 2.589 4.53.678-.386Z" style="fill:#fff;fill-opacity:1;fill-rule:nonzero;stroke:none" transform="matrix(2.3616 0 0 -2.3616 140.74 93.185)"/><path d="m0 0-2.41 1.633L.52 5.952l2.351-1.595-.39-.577L.757 4.948l-.812-1.194L1.6 2.632l-.392-.576-1.653 1.12-.944-1.393L.391.578Z" style="fill:#fff;fill-opacity:1;fill-rule:nonzero;stroke:none" transform="matrix(2.3616 0 0 -2.3616 148.165 98.021)"/><path d="m0 0-.677.582 1.189 4.3-.021.018-2.636-3.047-.554.479L.715 6.28l.69-.597L.194 1.375l.015-.012 2.649 3.063.557-.48Z" style="fill:#fff;fill-opacity:1;fill-rule:nonzero;stroke:none" transform="matrix(2.3616 0 0 -2.3616 155.391 104.16)"/><path d="m0 0-.522.582c.133.12.23.231.29.338a.961.961 0 0 1 .118.325.656.656 0 0 1-.064.378 1.526 1.526 0 0 1-.213.347 1.325 1.325 0 0 1-1.1.445 1.85 1.85 0 0 1-.674-.172 2.743 2.743 0 0 1-.691-.467 3.525 3.525 0 0 1-.416-.451 2.07 2.07 0 0 1-.35-.631 1.707 1.707 0 0 1-.082-.754c.032-.268.162-.538.4-.809.196-.231.412-.4.637-.508a2.87 2.87 0 0 1 .644-.227l-.579-.519-.225.091a2.1 2.1 0 0 0-.287.156 2.406 2.406 0 0 0-.355.255c-.13.108-.268.244-.418.411-.268.3-.44.615-.512.938a2.19 2.19 0 0 0-.006.96c.071.317.203.62.387.909.189.288.41.547.666.776.254.226.529.407.826.547.297.14.596.218.9.235.307.021.607-.028.903-.145.299-.118.574-.32.827-.604a1.84 1.84 0 0 0 .456-.884C.624 1.202.589.891.462.591A.97.97 0 0 0 .282.3 4.399 4.399 0 0 0 0 0" style="fill:#fff;fill-opacity:1;fill-rule:nonzero;stroke:none" transform="matrix(2.3616 0 0 -2.3616 168.793 106.19)"/><path d="m0 0-1.678 2.376 4.262 3.011 1.641-2.32-.571-.4-1.199 1.698-1.18-.833L2.428 1.9l-.572-.402L.705 3.13l-1.373-.972L.572.402Z" style="fill:#fff;fill-opacity:1;fill-rule:nonzero;stroke:none" transform="matrix(2.3616 0 0 -2.3616 166.956 118.36)"/><path d="M0 0a2.95 2.95 0 0 0-.646-.216 1.963 1.963 0 0 0-.725-.025 1.661 1.661 0 0 0-.697.293c-.221.157-.412.398-.569.729-.16.335-.232.638-.217.91.016.27.086.507.209.708.126.209.287.385.481.532.197.147.396.268.598.364l2.934 1.398.333-.698-2.923-1.392a2.764 2.764 0 0 1-.429-.253 1.2 1.2 0 0 1-.328-.331.876.876 0 0 1-.149-.424c-.017-.155.024-.328.112-.519.088-.182.198-.318.324-.408a.928.928 0 0 1 .424-.162c.153-.018.313-.009.478.032.162.039.319.094.472.168l2.923 1.392.333-.698Z" style="fill:#fff;fill-opacity:1;fill-rule:nonzero;stroke:none" transform="matrix(2.3616 0 0 -2.3616 177.362 128.363)"/><path d="m0 0-.275.848 3.246 3.059-.006.026L-.87 2.697l-.225.698 4.966 1.601.282-.868L.88 1.075l.006-.02 3.856 1.244.223-.698Z" style="fill:#fff;fill-opacity:1;fill-rule:nonzero;stroke:none" transform="matrix(2.3616 0 0 -2.3616 176.393 139.935)"/><path d="m0 0-.169.76L4.922 1.9l.17-.763Z" style="fill:#fff;fill-opacity:1;fill-rule:nonzero;stroke:none" transform="matrix(2.3616 0 0 -2.3616 177.167 143.667)"/><path d="m0 0-5.398 1.044-.108.823 4.95 2.405.106-.81-4.02-1.857.014-.054L-.103.79Z" style="fill:#fff;fill-opacity:1;fill-rule:nonzero;stroke:none" transform="matrix(2.3616 0 0 -2.3616 190.98 152.625)"/><path d="m0 0-.075 2.908 5.215.141L5.218.21 4.52.191l-.056 2.08-1.445-.038.054-1.997-.697-.02-.053 1.998L.64 2.166.696.019Z" style="fill:#fff;fill-opacity:1;fill-rule:nonzero;stroke:none" transform="matrix(2.3616 0 0 -2.3616 178.918 161.503)"/><path d="m0 0 .064.779 1.017.118c.308.037.569.109.78.213a.942.942 0 0 1 .452.416 1.794 1.794 0 0 0 .016.249l.031.4.694-.058-.032-.393a2.138 2.138 0 0 1 0-.392.87.87 0 0 1 .097-.345.662.662 0 0 1 .234-.263.921.921 0 0 1 .426-.125.73.73 0 0 1 .407.067c.112.058.2.139.268.244.071.102.125.216.163.347.038.132.064.263.072.395l.051.573-4.513.379.062.743 5.207-.436-.112-1.323a3.539 3.539 0 0 0-.126-.68 1.855 1.855 0 0 0-.286-.589 1.223 1.223 0 0 0-.497-.404c-.204-.097-.458-.134-.761-.108-.345.028-.612.121-.809.277a1.388 1.388 0 0 0-.433.562 2.412 2.412 0 0 0-.497-.332 1.88 1.88 0 0 0-.69-.193Z" style="fill:#fff;fill-opacity:1;fill-rule:nonzero;stroke:none" transform="matrix(2.3616 0 0 -2.3616 178.201 170.485)"/><path d="M0 0c-.513.101-.861.344-1.041.728-.183.382-.216.86-.105 1.435.023.113.054.223.088.332.038.107.076.213.117.319.045.103.088.205.136.302.047.1.092.192.14.278l.763-.151c-.036-.049-.078-.112-.13-.186a2.257 2.257 0 0 1-.161-.271 3.488 3.488 0 0 1-.159-.362 2.866 2.866 0 0 1-.129-.462 1.742 1.742 0 0 1-.038-.377.865.865 0 0 1 .066-.347.65.65 0 0 1 .187-.265.74.74 0 0 1 .342-.158.786.786 0 0 1 .367.009.794.794 0 0 1 .287.153c.087.065.165.147.235.234.069.09.14.178.211.26.107.146.224.298.355.457.133.16.272.306.426.44.149.131.314.231.491.302a.982.982 0 0 0 .577.044c.466-.092.782-.311.943-.661.163-.347.197-.764.102-1.243a2.298 2.298 0 0 0-.092-.336A4.992 4.992 0 0 0 3.853.15c-.05-.098-.097-.195-.141-.285-.047-.094-.085-.175-.12-.249l-.77.151c.092.109.19.271.301.483.112.212.202.461.273.741a.988.988 0 0 1-.045.602c-.074.171-.216.275-.424.318a.507.507 0 0 1-.268-.013.725.725 0 0 1-.226-.123 1.69 1.69 0 0 1-.203-.203c-.063-.081-.131-.161-.201-.247L1.678.867a5.256 5.256 0 0 1-.286-.319 2.232 2.232 0 0 0-.33-.321A1.377 1.377 0 0 0 .614.015 1.477 1.477 0 0 0 0 0" style="fill:#fff;fill-opacity:1;fill-rule:nonzero;stroke:none" transform="matrix(2.3616 0 0 -2.3616 180.042 179.045)"/><path d="m0 0 .21.753L5.236-.65l-.212-.753Z" style="fill:#fff;fill-opacity:1;fill-rule:nonzero;stroke:none" transform="matrix(2.3616 0 0 -2.3616 175.789 181.228)"/><path d="m0 0 .477 1.307-4.259 1.546.26.714L.734 2.021l.469 1.294.65-.235L.649-.234Z" style="fill:#fff;fill-opacity:1;fill-rule:nonzero;stroke:none" transform="matrix(2.3616 0 0 -2.3616 182.828 193.47)"/><path d="m0 0-1.82 2.789-2.116 1.044.337.683 2.116-1.046 3.313.236-.384-.78-2.434-.155L.36.731Z" style="fill:#fff;fill-opacity:1;fill-rule:nonzero;stroke:none" transform="matrix(2.3616 0 0 -2.3616 179.765 203.601)"/></g></svg>