<svg xmlns="http://www.w3.org/2000/svg" width="287.28012mm" height="198.86488mm" viewBox="0 0 287.28012 198.86488"><defs><clipPath id="a" clipPathUnits="userSpaceOnUse"><path d="M28.346 28.346h640.63v839.055H28.346Z"/></clipPath><clipPath id="b" clipPathUnits="userSpaceOnUse"><path d="M28.346 28.346h640.63v839.055H28.346Z"/></clipPath><clipPath id="c" clipPathUnits="userSpaceOnUse"><path d="M28.346 28.346h640.63v839.055H28.346Z"/></clipPath><clipPath id="d" clipPathUnits="userSpaceOnUse"><path d="M28.346 28.346h640.63v839.055H28.346Z"/></clipPath></defs><path d="M0 0c-.544.408-.908 1.034-.908 1.749 0 1.207 1.017 2.186 2.271 2.186s2.27-.979 2.27-2.186c0 0-.044-.576-.117-1.075 0 0-.241-1.522.54-2.496 0 0 .113-.153.04-.29 0 0-.177-.08-.29.105 0 0-.821 1.006-2.101 1.191 0 0-.849.174-1.705.816" style="fill:#ef3530;fill-opacity:1;fill-rule:nonzero;stroke:none" transform="matrix(3.9237 0 0 -3.9237 116.543 19.38)"/><path d="M0 0a2.673 2.673 0 1 0-.59 5.281c.577 0 1.341-.286 1.549-.494 0 0 2.903-2.888 5.089-3.25 0 0 .435-.121-.024-.205 0 0-2.922.024-3.707-.423C2.317.909.715.142 0 0" style="fill:#871e88;fill-opacity:1;fill-rule:nonzero;stroke:none" transform="matrix(3.9237 0 0 -3.9237 106.403 36.887)"/><path d="M0 0c.202.326.286.722.286 1.132a2.383 2.383 0 1 1-4.718-.48s.141-.583.277-.895c0 0 .614-1.704.614-2.727l-.049-1.1s-.021-.466.251-.026c0 0 1.316 1.965 1.908 2.46 0 0 .809.631 1.431 1.636" style="fill:#3b61a8;fill-opacity:1;fill-rule:nonzero;stroke:none" transform="matrix(3.9237 0 0 -3.9237 150.488 13.792)"/><path d="M0 0a1.654 1.654 0 0 0-.071.534c0 1.139.937 2.061 2.093 2.061S4.116 1.673 4.116.534c0 0-.186-2.818 1.377-3.76 0 0 .241-.163-.073-.199 0 0-4.367.31-5.42 3.425" style="fill:#34489b;fill-opacity:1;fill-rule:nonzero;stroke:none" transform="matrix(3.9237 0 0 -3.9237 80.104 46.442)"/><path d="M0 0c.014-.128-.011-.255-.034-.378a2.18 2.18 0 0 0-2.156-1.78c-1.21 0-2.19.966-2.19 2.158 0 .644.286 1.222.74 1.618 0 0 1.249 1.43 5.609 1.816 0 0 .241.024-.012-.229 0 0-2.15-1.422-1.957-3.205" style="fill:#f04326;fill-opacity:1;fill-rule:nonzero;stroke:none" transform="matrix(3.9237 0 0 -3.9237 116.724 49.022)"/><path d="M0 0a2.498 2.498 0 0 0-.454 1.475c0 1.406 1.096 2.545 2.448 2.545 1.161 0 2.134-.841 2.385-1.969.041-.185.063-.377.063-.576 0 0-.207-2.302 2.705-3.51 0 0 .29-.145-.306-.225 0 0-4.938-.359-6.841 2.26" style="fill:#4eab38;fill-opacity:1;fill-rule:nonzero;stroke:none" transform="matrix(3.9237 0 0 -3.9237 124.316 51.273)"/><path d="M0 0c.327-.807 1.234-1.31 2.205-1.31 1.352 0 2.447 1.038 2.447 2.319 0 1.28-1.095 2.318-2.447 2.318 0 0-1.788-.032-2.754 2.11 0 0-.257.418-.129-.338 0 0 .454-4.545.678-5.099" style="fill:#94329a;fill-opacity:1;fill-rule:nonzero;stroke:none" transform="matrix(3.9237 0 0 -3.9237 145.857 47.798)"/><path d="M0 0c-.089-1.224-.894-2.222-1.997-2.222-1.032 0-1.882.872-1.986 1.991l-.01.231s-.085 2.118 1.992 2.951c0 0 1.51.664 4.614.386 0 0 .314-.084-.085-.217C2.528 3.12.177 2.436 0 0" style="fill:#ed622d;fill-opacity:1;fill-rule:nonzero;stroke:none" transform="matrix(3.9237 0 0 -3.9237 165.754 24)"/><path d="M0 0c-1.165-1.165-2.362-4.744-2.362-4.744-.242-.64-.314-.024-.314-.024C-2.592-2.413-4.783.556-4.783.556c-.19.387-.297.824-.297 1.286 0 1.601 1.284 2.899 2.867 2.899S.653 3.443.653 1.842C.653 1.842.642.642 0 0" style="fill:#f0392f;fill-opacity:1;fill-rule:nonzero;stroke:none" transform="matrix(3.9237 0 0 -3.9237 188.213 32.619)"/><path d="M0 0c1.171-.367 2.222 1.067 2.222 2.383S1.227 4.766 0 4.766c-.9 0-1.675-.573-2.024-1.398 0 0-.456-1.838-1.647-2.595 0 0-.645-.467.112-.338C-3.559.435-1.9.596 0 0" style="fill:#55af36;fill-opacity:1;fill-rule:nonzero;stroke:none" transform="matrix(3.9237 0 0 -3.9237 195.83 54.834)"/><path d="M0 0c-.075-1.047-.721-1.9-1.61-1.9-.89 0-1.611.851-1.611 1.9 0 .418.115.805.309 1.119 0 0 1.31 2.109.674 3.792 0 0-.137.54.306.097C-1.932 5.008.177 2.464 0 0" style="fill:#f06a2c;fill-opacity:1;fill-rule:nonzero;stroke:none" transform="matrix(3.9237 0 0 -3.9237 175.485 54.834)"/><path d="M0 0c.52-.277 1.106-.549 1.79-.549 1.512 0 2.738 1.01 2.738 2.255 0 1.245-1.226 2.254-2.738 2.254 0 0-1.047-.129-1.594-.29 0 0-2.222-.225-3.028 1.111 0 0-.354.387-.225-.08C-3.057 4.701-1.661.887 0 0" style="fill:#334e9d;fill-opacity:1;fill-rule:nonzero;stroke:none" transform="matrix(3.9237 0 0 -3.9237 190.575 73.532)"/><path d="M0 0a1.771 1.771 0 1 0 1.141 3.126s2.015-1.709 3.625-.099c0 0 .371.387.185-.185C4.951 2.842 3.462 0 0 0" style="fill:#56b235;fill-opacity:1;fill-rule:nonzero;stroke:none" transform="matrix(3.9237 0 0 -3.9237 159.31 75.812)"/><path d="m0 0 .016-.248C.148-1.287 1.1-2.093 2.254-2.093c1.246 0 2.255.937 2.255 2.093 0 .795-.477 1.486-1.18 1.841 0 0-2.25.836-1.783 2.426 0 0-.04.282-.258-.096C1.288 4.171-.016 2.093 0 0" style="fill:#9c319b;fill-opacity:1;fill-rule:nonzero;stroke:none" transform="matrix(3.9237 0 0 -3.9237 114.702 67.345)"/><path d="M0 0c-1.245.016-2.254 1.038-2.254 2.319 0 1.28 1.009 2.319 2.254 2.319.325 0 .633-.071.912-.198 0 0 .569-.237 1.053-.583 0 0 .772-.459 1.4-.459 0 0 1.345-.065 2.593.66 0 0 .145.089.185-.016 0 0 .016-.081-.129-.306C6.014 3.736 4.332-.056 0 0" style="fill:#f06327;fill-opacity:1;fill-rule:nonzero;stroke:none" transform="matrix(3.9237 0 0 -3.9237 87.786 77.201)"/><path d="M0 0a1.965 1.965 0 1 1-3.929 0v-5.201H.01Z" style="fill:#767980;fill-opacity:1;fill-rule:nonzero;stroke:none" transform="matrix(3.9237 0 0 -3.9237 150.338 71.641)"/><path d="M0 0h-3.251v1.32H.164l-.006.03a3.974 3.974 0 0 1-.296.903h1.866s.176-.273.29-.883l.008-.05h3.383V0H2.115l.027-.053c.157-.237.868-1.192 2.213-1.307h1.169v-1.313H4.46s-2.614.243-3.402 1.458c0 0-.408-1.091-3.18-1.485h-1.277v1.347l1.277.007S-.583-1.12-.009-.024z" style="fill:#2f3058;fill-opacity:1;fill-rule:nonzero;stroke:none" transform="matrix(3.9237 0 0 -3.9237 17.653 127.178)"/><path d="M0 0h1.696s.363-.186.363-1.198v-2.591s.026-.329.367-.367h3.878s.65-.005.945.291V.38h1.393s.359-.043.359-.359v-2.08h1.734v-1.258h-1.73v-2.489h-1.73l-.017.734s-.186-.279-1.384-.329H1.882S.608-5.477.338-3.983v2.953S.296-.16 0 0" style="fill:#31305a;fill-opacity:1;fill-rule:nonzero;stroke:none" transform="matrix(3.9237 0 0 -3.9237 43.793 121.031)"/><path d="M0 0v4.245h1.392s.359-.042.359-.359v-2.08h1.734V.549h-1.73v-2.553H.025l-.017.797z" style="fill:#31305a;fill-opacity:1;fill-rule:nonzero;stroke:none" transform="matrix(3.9237 0 0 -3.9237 237.08 136.198)"/><path d="m0 0 .005-3.818c.36-1.433 1.433-1.433 1.433-1.433h5.617V0Zm5.34-3.971H2.138s-.345.01-.389.39L1.714-1.31H5.34Z" style="fill:#32315b;fill-opacity:1;fill-rule:nonzero;stroke:none" transform="matrix(3.9237 0 0 -3.9237 51.321 145.619)"/><path d="M0 0h7.991v-1.261H1.823s.178-.493.178-1.104v-2.187s.029-.335.399-.399h5.601v-1.276H1.745S.483-6.178.267-4.818v3.626S.239-.155 0 0" style="fill:#32315b;fill-opacity:1;fill-rule:nonzero;stroke:none" transform="matrix(3.9237 0 0 -3.9237 89.436 120.8)"/><path d="M0 0h1.724v-2.907h3.784v-1.261h-9.291v1.242H.01Z" style="fill:#32315b;fill-opacity:1;fill-rule:nonzero;stroke:none" transform="matrix(3.9237 0 0 -3.9237 102.583 147.359)"/><g clip-path="url(#a)" transform="matrix(3.9237 0 0 -3.9237 -1224.398 2002.386)"><path d="m0 0 .011-1.668c.27-1.494 1.544-1.418 1.544-1.418h3.992c1.198.051 1.384.329 1.384.329l.017-.576h1.73v2.49L8.674.414v2.238c0 .316-.359.359-.359.359H6.923V-1.55c-.296-.295-.945-.291-.945-.291H2.1c-.342.038-.367.367-.367.367v.624l.001.019h3.435V2.7H.007V1.429h3.43l.001-.03V.46l.001-.02H.007" style="fill:#32315b;fill-opacity:1;fill-rule:nonzero;stroke:none" transform="translate(344.389 476.855)"/><path d="M0 0v2.49l-.004 1.257v2.08c0 .317-.359.359-.359.359h-1.392v-3.85l-.031-.003h-.658v.157l-.004 1.257v2.08c0 .317-.358.359-.358.359h-1.393V1.783l.005-3.009-.013-.014c-.416-.395-1.244-.294-1.244-.294h-1.595s-.345.01-.39.389l-.013 5.601h2.077v1.288h-3.81V1.232l-.001-.195.003-2.418c.152-1.325 1.434-1.434 1.434-1.434h2.192c.738-.014 1.162.142 1.35.237l.012.012.001-.813-.003-2.017h1.75v3.93l-.004 1.258.004.208v1.07h.658l.032.002.007-4.451-.004-2.017H0v3.93L-.004-.208V2.03" style="fill:#32315b;fill-opacity:1;fill-rule:nonzero;stroke:none" transform="translate(363.995 473.522)"/></g><path d="M0 0v1.287h-7.606V0H-1.751v-3.146l.008-1.207.009-2.136H.004v3.892L0-1.34V.819" style="fill:#31305a;fill-opacity:1;fill-rule:nonzero;stroke:none" transform="matrix(3.9237 0 0 -3.9237 283.755 126.637)"/><g clip-path="url(#b)" transform="matrix(3.9237 0 0 -3.9237 -1224.398 2002.386)"><path d="M0 0h-2.025l-.001.033v.445c0 .316-.359.358-.359.358h-1.471V0h-1.911v-1.287h1.159l-.009-.007a2.601 2.601 0 1 1 3.597-.012l-.02.019H0Zm-2.824-4.667c-.588 0-1.065.666-1.065 1.488 0 .821.477 1.487 1.065 1.487.587 0 1.064-.666 1.064-1.487 0-.822-.477-1.488-1.064-1.488" style="fill:#32315b;fill-opacity:1;fill-rule:nonzero;stroke:none" transform="translate(371.26 479.266)"/></g><path d="M0 0h-5.352v1.287H1.721v-4.913H.002v3.514z" style="fill:#31305a;fill-opacity:1;fill-rule:nonzero;stroke:none" transform="matrix(3.9237 0 0 -3.9237 237.229 151.688)"/><g clip-path="url(#c)" transform="matrix(3.9237 0 0 -3.9237 -1224.398 2002.386)"><path d="M0 0h-1.323v-1.261h9.212V0H4.492v4.731c0 .316-.359.359-.359.359H2.74V.005L1.89 0v4.731c0 .316-.358.359-.358.359H.139V0Z" style="fill:#31305a;fill-opacity:1;fill-rule:nonzero;stroke:none" transform="translate(377.38 469.85)"/><path d="M0 0h-11.166v-1.34h4.715l.001-.025v-.359l-.001-.022c-1.583-.295-2.758-1.389-2.758-2.694 0-1.531 1.617-2.772 3.613-2.772 1.995 0 3.612 1.241 3.612 2.772 0 1.298-1.163 2.388-2.732 2.689v.386l-.001.025H0Zm-3.731-4.44c0-.813-.835-1.472-1.865-1.472-1.031 0-1.866.659-1.866 1.472 0 .812.835 1.471 1.866 1.471 1.03 0 1.865-.659 1.865-1.471" style="fill:#2f3058;fill-opacity:1;fill-rule:nonzero;stroke:none" transform="translate(323.219 474.825)"/><path d="M0 0v-1.182h-3.586l-.031.001L-3.618 0H-5.34l.005-3.739c.359-1.434 1.433-1.434 1.433-1.434h5.616V0Zm0-3.892h-3.202s-.345.01-.389.389l-.016 1.062.021-.002H0Z" style="fill:#32315b;fill-opacity:1;fill-rule:nonzero;stroke:none" transform="translate(351.32 473.14)"/><path d="M0 0c0-.651-.123-1.129-.37-1.434-.246-.305-.626-.457-1.138-.457-.17 0-.336.014-.497.043a3.271 3.271 0 0 0-.477.122v.66h.028c.088-.042.228-.093.419-.155.191-.062.382-.093.573-.093.183 0 .335.027.455.079.12.053.214.126.281.22.067.09.114.197.143.323.029.126.043.267.043.423v.35a2.081 2.081 0 0 0-.466-.349 1.223 1.223 0 0 0-.566-.115c-.383 0-.686.165-.911.497-.225.331-.337.799-.337 1.402 0 .331.039.616.116.856.078.239.183.446.317.621.124.163.275.289.453.38.178.091.355.136.531.136.185 0 .341-.023.466-.067.125-.045.257-.113.397-.205l.034.167H0Zm-.54.616v2.098a1.872 1.872 0 0 1-.4.167c-.124.034-.247.05-.369.05a.812.812 0 0 1-.7-.358c-.171-.239-.256-.586-.256-1.04 0-.432.063-.76.189-.982.127-.223.336-.334.629-.334.157 0 .314.036.472.108.158.072.303.169.435.291" style="fill:#2f3058;fill-opacity:1;fill-rule:nonzero;stroke:none" transform="translate(328.685 461.636)"/><path d="M0 0c0-.199-.039-.396-.116-.591a1.381 1.381 0 0 0-.325-.495 1.662 1.662 0 0 0-.533-.344 1.964 1.964 0 0 0-.734-.123c-.308 0-.584.034-.829.103-.245.068-.494.17-.748.305v.852h.04c.215-.216.464-.383.746-.5a2.08 2.08 0 0 1 .795-.175c.35 0 .623.079.819.237.195.159.293.37.293.635 0 .227-.047.394-.139.501a.897.897 0 0 1-.422.251 3.678 3.678 0 0 1-.465.114c-.167.03-.344.067-.531.113-.378.096-.658.261-.84.493-.182.233-.274.536-.274.909 0 .429.151.78.453 1.054.302.273.684.41 1.148.41.3 0 .575-.034.825-.103.25-.069.472-.154.664-.255v-.804h-.04A1.898 1.898 0 0 1-.852 3a2.106 2.106 0 0 1-.811.164c-.303 0-.547-.076-.731-.227a.725.725 0 0 1-.276-.586c0-.213.046-.381.137-.502.092-.122.253-.214.484-.279a9.59 9.59 0 0 1 .521-.116c.225-.046.416-.093.572-.141.317-.101.555-.253.715-.457C-.08.652 0 .367 0 0" style="fill:#2f3058;fill-opacity:1;fill-rule:nonzero;stroke:none" transform="translate(345.731 462.518)"/><path d="m0 0-.221-.619c-.212.167-.544.251-.997.251-.425 0-.766-.2-1.022-.601-.257-.401-.385-.918-.385-1.551 0-.604.131-1.093.394-1.469.263-.376.602-.563 1.018-.563.453 0 .801.177 1.045.531l.363-.554c-.382-.42-.875-.63-1.476-.63-.631 0-1.128.25-1.49.75-.363.5-.544 1.16-.544 1.979 0 .792.194 1.45.581 1.975.387.524.887.786 1.5.786C-.708.285-.297.19 0 0" style="fill:#2f3058;fill-opacity:1;fill-rule:nonzero;stroke:none" transform="translate(315.544 466.286)"/><path d="M0 0v2.44c0 .29-.065.518-.195.685-.13.167-.313.25-.548.25a.845.845 0 0 1-.458-.147 1.106 1.106 0 0 1-.351-.342V0h-.623v5.467h.623V3.453a.954.954 0 0 0 .403.356c.186.096.377.143.575.143.374 0 .666-.135.879-.405.211-.271.317-.64.317-1.109V0Z" style="fill:#2f3058;fill-opacity:1;fill-rule:nonzero;stroke:none" transform="translate(318.28 461.172)"/><path d="M0 0v-2.476c0-.599.237-.899.711-.899.207 0 .397.065.568.196.172.13.286.281.341.453V0h.622v-3.877H1.62v.536c-.071-.153-.212-.293-.424-.42a1.2 1.2 0 0 0-.621-.192c-.387 0-.684.122-.889.366-.206.244-.308.591-.308 1.04V0Z" style="fill:#2f3058;fill-opacity:1;fill-rule:nonzero;stroke:none" transform="translate(320.043 465.049)"/><path d="M0 0v2.258c0 .414-.057.703-.17.869-.113.165-.302.248-.568.248a.87.87 0 0 1-.448-.141 1.043 1.043 0 0 1-.359-.348V0h-.622v3.877h.427l.197-.499c.206.383.542.574 1.009.574.771 0 1.157-.516 1.157-1.55V0Z" style="fill:#2f3058;fill-opacity:1;fill-rule:nonzero;stroke:none" transform="translate(324.965 461.172)"/><path d="M0 0v2.258c0 .414-.057.703-.17.869-.113.165-.302.248-.568.248a.87.87 0 0 1-.448-.141 1.043 1.043 0 0 1-.359-.348V0h-.622v3.877h.427l.197-.499c.206.383.542.574 1.009.574.771 0 1.156-.516 1.156-1.55V0Z" style="fill:#2f3058;fill-opacity:1;fill-rule:nonzero;stroke:none" transform="translate(331.358 461.172)"/><path d="M0 0c-.25-.345-.634-.518-1.15-.518a.947.947 0 0 0-.719.332 1.178 1.178 0 0 0-.305.826c0 .394.157.727.47.999.312.272.712.408 1.197.408.132 0 .281-.032.448-.097 0 .63-.254.945-.763.945-.39 0-.691-.118-.901-.352l-.263.577c.118.107.282.199.491.275.209.077.409.115.6.115.51 0 .881-.128 1.112-.384.231-.256.347-.662.347-1.22V.516c0-.341.092-.568.277-.681V-.51c-.254 0-.444.04-.57.118A.67.67 0 0 0 0 0m-.059 1.463a2.07 2.07 0 0 1-.416.074c-.317 0-.576-.089-.776-.269a.83.83 0 0 1-.3-.637c0-.406.216-.608.65-.608.317 0 .598.167.842.502z" style="fill:#2f3058;fill-opacity:1;fill-rule:nonzero;stroke:none" transform="translate(334.53 461.614)"/><path d="M0 0v2.458c0 .611-.241.917-.722.917a.682.682 0 0 1-.425-.154.793.793 0 0 1-.27-.35V0h-.623v2.759c0 .19-.065.341-.196.451-.131.11-.304.165-.519.165-.126 0-.259-.054-.401-.161a.948.948 0 0 1-.301-.357V0h-.623v3.877h.408l.207-.45c.241.35.543.525.904.525.504 0 .857-.172 1.059-.517.07.147.201.27.391.369.191.099.387.148.589.148.364 0 .646-.119.845-.356.2-.238.299-.572.299-1.002V0Z" style="fill:#2f3058;fill-opacity:1;fill-rule:nonzero;stroke:none" transform="translate(339.821 461.172)"/><path d="M0 0h-.405v.54H0v.809l.622.263V.54h.968V0H.622v-1.931c0-.327.05-.559.15-.697.1-.138.261-.207.483-.207.161 0 .326.045.498.135l.092-.604a3.173 3.173 0 0 0-.852-.109.89.89 0 0 0-.705.343C.096-2.841 0-2.553 0-2.205Z" style="fill:#2f3058;fill-opacity:1;fill-rule:nonzero;stroke:none" transform="translate(346.364 464.509)"/><path d="M0 0c-.25-.345-.634-.518-1.15-.518a.947.947 0 0 0-.719.332 1.178 1.178 0 0 0-.305.826c0 .394.157.727.47.999.312.272.712.408 1.197.408.132 0 .281-.032.448-.097 0 .63-.254.945-.763.945-.39 0-.691-.118-.901-.352l-.263.577c.118.107.282.199.491.275.209.077.409.115.6.115.51 0 .881-.128 1.112-.384.231-.256.347-.662.347-1.22V.516c0-.341.092-.568.277-.681V-.51c-.254 0-.444.04-.57.118A.67.67 0 0 0 0 0m-.059 1.463a2.07 2.07 0 0 1-.416.074c-.317 0-.576-.089-.776-.269a.832.832 0 0 1-.301-.637c0-.406.217-.608.651-.608.317 0 .598.167.842.502z" style="fill:#2f3058;fill-opacity:1;fill-rule:nonzero;stroke:none" transform="translate(350.469 461.614)"/><path d="M0 0h-.405v.54H0v.809l.622.263V.54h.968V0H.622v-1.931c0-.327.05-.559.15-.697.1-.138.261-.207.483-.207.16 0 .326.045.498.135l.092-.604a3.173 3.173 0 0 0-.852-.109.89.89 0 0 0-.705.343C.096-2.841 0-2.553 0-2.205Z" style="fill:#2f3058;fill-opacity:1;fill-rule:nonzero;stroke:none" transform="translate(351.725 464.509)"/><path d="M0 0h-2.538c0-.456.113-.807.338-1.052.2-.214.456-.321.77-.321.357 0 .655.115.894.345l.263-.495a1.175 1.175 0 0 0-.444-.275 2.215 2.215 0 0 0-.836-.152 1.49 1.49 0 0 0-1.129.497c-.344.365-.516.855-.516 1.471 0 .641.176 1.154.53 1.541.315.346.689.518 1.122.518.502 0 .895-.155 1.181-.466.276-.3.414-.697.414-1.191A1.68 1.68 0 0 0 0 0m-1.517 1.5a.93.93 0 0 1-.7-.296 1.12 1.12 0 0 1-.306-.702h1.95c0 .278-.079.509-.237.694-.173.203-.409.304-.707.304" style="fill:#2f3058;fill-opacity:1;fill-rule:nonzero;stroke:none" transform="translate(356.809 463.047)"/><path d="M0 0h.66v-3.629c0-.323.093-.589.279-.798.186-.209.432-.313.739-.313.324 0 .579.101.765.304.186.203.279.478.279.825V0h.66v-3.688c0-.536-.152-.953-.455-1.254-.304-.3-.718-.45-1.242-.45-.54 0-.956.147-1.248.441C.146-4.656 0-4.234 0-3.684Z" style="fill:#2f3058;fill-opacity:1;fill-rule:nonzero;stroke:none" transform="translate(358.802 466.474)"/><path d="M0 0v2.258c0 .414-.057.703-.17.869-.113.165-.302.248-.568.248a.87.87 0 0 1-.448-.141 1.043 1.043 0 0 1-.359-.348V0h-.623v3.877h.428l.197-.499c.206.383.542.574 1.009.574.771 0 1.156-.516 1.156-1.55V0Z" style="fill:#2f3058;fill-opacity:1;fill-rule:nonzero;stroke:none" transform="translate(364.951 461.172)"/><path d="M0 0v3.3h-.009v.577h.631V0Zm.34 5.34a.361.361 0 0 0 .274-.124.426.426 0 0 0 .113-.298.428.428 0 0 0-.113-.301.359.359 0 0 0-.546 0 .433.433 0 0 0-.113.301c0 .118.037.217.112.299a.353.353 0 0 0 .273.123" style="fill:#2f3058;fill-opacity:1;fill-rule:nonzero;stroke:none" transform="translate(366.257 461.172)"/></g><path d="M0 0h-.165l-1.507 3.968h.682l.93-2.723.952 2.723h.653Z" style="fill:#2f3058;fill-opacity:1;fill-rule:nonzero;stroke:none" transform="matrix(3.9237 0 0 -3.9237 222.699 193.185)"/><g clip-path="url(#d)" transform="matrix(3.9237 0 0 -3.9237 -1224.398 2002.386)"><path d="M0 0h-2.538c0-.456.113-.807.338-1.052.2-.214.456-.321.77-.321.357 0 .655.115.894.345l.263-.495a1.175 1.175 0 0 0-.444-.275 2.215 2.215 0 0 0-.836-.152 1.49 1.49 0 0 0-1.129.497c-.344.365-.516.855-.516 1.471 0 .641.176 1.154.53 1.541.315.346.689.518 1.122.518.502 0 .896-.155 1.181-.466.276-.3.414-.697.414-1.191A1.68 1.68 0 0 0 0 0m-1.517 1.5a.93.93 0 0 1-.7-.296 1.12 1.12 0 0 1-.306-.702h1.95c0 .278-.079.509-.237.694-.173.203-.409.304-.707.304" style="fill:#2f3058;fill-opacity:1;fill-rule:nonzero;stroke:none" transform="translate(373.473 463.047)"/><path d="M0 0a.674.674 0 0 1-.411.156c-.222 0-.415-.113-.581-.337a1.334 1.334 0 0 1-.248-.812v-2.226h-.623V.658h.623V.043c.228.46.567.69 1.016.69.112 0 .273-.021.484-.065z" style="fill:#2f3058;fill-opacity:1;fill-rule:nonzero;stroke:none" transform="translate(375.754 464.39)"/><path d="m0 0 .221.649C.569.399.85.274 1.063.274c.386 0 .579.179.579.538 0 .256-.186.477-.559.661a4.36 4.36 0 0 0-.581.33c-.1.075-.187.16-.261.255a1.051 1.051 0 0 0-.218.651c0 .319.105.568.316.747.211.179.486.268.827.268.256 0 .581-.089.971-.268l-.177-.639c-.248.22-.497.33-.747.33a.605.605 0 0 1-.377-.116.355.355 0 0 1-.154-.295c0-.249.129-.438.386-.566l.448-.225c.274-.138.474-.295.599-.472.125-.176.187-.397.187-.663 0-.348-.111-.621-.332-.818-.222-.197-.529-.295-.923-.295C.676-.303.327-.202 0 0" style="fill:#2f3058;fill-opacity:1;fill-rule:nonzero;stroke:none" transform="translate(375.897 461.4)"/><path d="M0 0v3.3h-.004v.577h.626V0Zm.34 5.34a.361.361 0 0 0 .274-.124.426.426 0 0 0 .113-.298.428.428 0 0 0-.113-.301.359.359 0 0 0-.546 0 .433.433 0 0 0-.113.301c0 .118.037.217.112.299a.353.353 0 0 0 .273.123" style="fill:#2f3058;fill-opacity:1;fill-rule:nonzero;stroke:none" transform="translate(378.762 461.172)"/><path d="M0 0h-.405v.54H0v.809l.623.263V.54h.967V0H.623v-1.931c0-.327.049-.559.149-.697.1-.138.261-.207.483-.207.161 0 .326.045.498.135l.092-.604a3.173 3.173 0 0 0-.852-.109.89.89 0 0 0-.705.343C.096-2.841 0-2.553 0-2.205Z" style="fill:#2f3058;fill-opacity:1;fill-rule:nonzero;stroke:none" transform="translate(380.264 464.509)"/><path d="M0 0c-.081-.246-.252-.451-.512-.616a1.604 1.604 0 0 0-.872-.246v.615c.262 0 .486.067.672.201.187.134.281.298.281.491 0 .213-.035.422-.102.628-.069.207-.156.462-.264.766l-.954 2.699h.637l1.039-2.999.934 2.999h.637z" style="fill:#2f3058;fill-opacity:1;fill-rule:nonzero;stroke:none" transform="translate(383.722 460.511)"/></g></svg>