<svg xmlns="http://www.w3.org/2000/svg" width="238.50792mm" height="238.50792mm" viewBox="0 0 238.50792 238.50792"><g transform="translate(1.834 1.867)"><circle cx="117.41955" cy="117.38699" r="119.25396" style="fill:#fff;stroke-width:.264583"/><path d="M0 0a5.45 5.45 0 0 1 5.45-5.45h10.972V.007H6.038V14.79h10.384v5.457H0Z" style="fill:#004098;fill-opacity:1;fill-rule:nonzero;stroke:none" transform="matrix(.50165 0 0 -.50165 106.663 217.904)"/><path d="M0 0h-3.283v13.531h-6.038v-40.592h6.038v21.605H0v-21.605h6.038v40.592H0Z" style="fill:#004098;fill-opacity:1;fill-rule:nonzero;stroke:none" transform="matrix(.50165 0 0 -.50165 121.125 214.535)"/><path d="m0 0-4.282-14.22a5.45 5.45 0 0 1 3.647-6.789l15.029-4.525 1.573 5.224-14.465 4.356 4.28 14.213z" style="fill:#004098;fill-opacity:1;fill-rule:nonzero;stroke:none" transform="matrix(.50165 0 0 -.50165 83.045 201.41)"/><path d="m0 0-5.782 1.741-5.853-19.438 5.782-1.741 2.329 7.735 5.164-1.555 1.573 5.224-5.164 1.555z" style="fill:#004098;fill-opacity:1;fill-rule:nonzero;stroke:none" transform="matrix(.50165 0 0 -.50165 97.514 205.767)"/><path d="m0 0 14.251-4.291-1.749-5.81L-1.749-5.81zm-7.533-4.075a5.449 5.449 0 0 1 3.647-6.789l20.596-6.202L21.606-.807-4.209 6.966z" style="fill:#004098;fill-opacity:1;fill-rule:nonzero;stroke:none" transform="matrix(.50165 0 0 -.50165 83.26 216.704)"/><path d="m0 0-8.144 13.59-5.179-3.103 8.144-13.591-3.987-2.389-8.145 13.59-5.179-3.104 8.144-13.59-5.041-3.021 2.805-4.681L14.049 2.058l-2.805 4.68z" style="fill:#004098;fill-opacity:1;fill-rule:nonzero;stroke:none" transform="matrix(.50165 0 0 -.50165 173.54 207.313)"/><path d="m0 0 5.179 3.104-9.439 15.752a5.45 5.45 0 0 1-7.476 1.873L-34.867 6.867l2.805-4.68 22.626 13.559z" style="fill:#004098;fill-opacity:1;fill-rule:nonzero;stroke:none" transform="matrix(.50165 0 0 -.50165 174.083 203.093)"/><path d="m0 0-5.212-1.389-1.742 6.538-5.834-1.554 5.226-19.616 5.834 1.555-2.079 7.805 5.212 1.389z" style="fill:#004098;fill-opacity:1;fill-rule:nonzero;stroke:none" transform="matrix(.50165 0 0 -.50165 151.459 205.332)"/><path d="m0 0-20.785-5.537 1.405-5.273L.836-5.424l2.955-11.091 5.834 1.555L6.669-3.863A5.45 5.45 0 0 1 0 0" style="fill:#004098;fill-opacity:1;fill-rule:nonzero;stroke:none" transform="matrix(.50165 0 0 -.50165 148.384 214.92)"/><path d="M0 0c-.565 2.122.817 4.333 3.088 4.938 2.27.605 4.57-.625 5.135-2.747.565-2.122-.817-4.333-3.088-4.938C2.865-3.352.565-2.122 0 0m6.549-8.054c5.495 1.464 8.859 6.747 7.513 11.8-.628 2.359-2.177 4.241-4.203 5.438l4.326 1.153-1.405 5.272-8.788-2.341-1.146 4.299-5.835-1.554 1.146-4.3-8.786-2.34L-9.225 4.1l4.327 1.153C-6.06 3.206-6.468.802-5.839-1.556c1.346-5.053 6.892-7.962 12.388-6.498" style="fill:#004098;fill-opacity:1;fill-rule:nonzero;stroke:none" transform="matrix(.50165 0 0 -.50165 137.527 211.653)"/><path d="M0 0c-1.177-1.826-4.138-2.174-6.887-.402-2.748 1.772-3.653 4.613-2.475 6.439 1.177 1.826 4.138 2.174 6.887.402C.273 4.667 1.177 1.826 0 0m-12.701 22.274 12.108-7.808-1.421-2.203c-5.119 2.12-10.271.837-12.629-2.821-2.74-4.248-1.018-10.61 4.831-14.381C-3.963-8.711 2.542-7.653 5.281-3.405 7.566.139 6.736 5.149 3.005 8.904l1.477 2.29 12.111-7.809 2.877 4.463-29.294 18.889z" style="fill:#004098;fill-opacity:1;fill-rule:nonzero;stroke:none" transform="matrix(.50165 0 0 -.50165 61.832 208.545)"/><path d="m0 0-5.075 3.272-2.411-3.739-10.887 7.02-2.878-4.463 9.131-5.888c-2.562-.744-6.1-.233-11.029 2.945l-2.849-4.419c7.296-4.705 12.839-5.012 16.777-3.461.212-4.227 2.778-9.149 10.075-13.853l2.849 4.419C-1.225-14.99-3.15-11.978-3.53-9.336l9.131-5.888 2.878 4.463-10.89 7.022z" style="fill:#004098;fill-opacity:1;fill-rule:nonzero;stroke:none" transform="matrix(.50165 0 0 -.50165 70.943 192.286)"/><path d="M0 0c5.085 3.093 11.689 1.842 11.689 1.842S2.342 1.177.6-1.311c-1.188-1.696 2.073-3.62 9.671-1.802 8.145 1.949 13.809 8.69 13.809 8.69-7.036-1.627-14.899.988-21.06-1.888C-1.226 1.707 0 0 0 0" style="fill:#004098;fill-opacity:1;fill-rule:nonzero;stroke:none" transform="matrix(.50165 0 0 -.50165 95.942 59.722)"/><path d="m0 0 .562.25c1.195.8 2.539 1.923 3.995 3.444 5.868 6.128 7.626 14.472 7.626 14.472C7.859 14.81-2.678 12.424-6.169 6.323c-2.417-4.224.043-5.358.043-5.358C-4.052 7.436 3.38 9.597 3.38 9.597S-4.917 3.753-4.808.059c.031-1.034.818-1.536 2.151-1.293.286.125.619.247.983.366C-1.116-.578-.563-.281 0 0" style="fill:#004098;fill-opacity:1;fill-rule:nonzero;stroke:none" transform="matrix(.50165 0 0 -.50165 90.953 61.742)"/><path d="M0 0c-.755-.329-1.249-.673-1.576-1.004C-.882-.622-.185-.245.518.124A4.82 4.82 0 0 0 0 0" style="fill:#004098;fill-opacity:1;fill-rule:nonzero;stroke:none" transform="matrix(.50165 0 0 -.50165 89.62 62.361)"/><path d="M0 0c6.009 2.089 11.522-.838 11.522-.838S2.194.666.055-1.736C-1.404-3.374 1.36-5.709 8.656-5.609c7.967.11 14.709 4.43 14.709 4.43-4.216.565-10.807 4.472-16.559 4.797C6 3.203 5.27 2.835 4.787 2.591A113.569 113.569 0 0 1 0 0" style="fill:#004098;fill-opacity:1;fill-rule:nonzero;stroke:none" transform="matrix(.50165 0 0 -.50165 88.734 63.74)"/><path d="M0 0c-.364-.119-.697-.24-.984-.365.165.03.337.07.518.123.155.082.311.161.466.242" style="fill:#004098;fill-opacity:1;fill-rule:nonzero;stroke:none" transform="matrix(.50165 0 0 -.50165 90.114 62.178)"/><path d="M0 0c2.208 1.135 5.007 2.633 5.007 2.999 0 .58-4.933-1.546-6.828-2.384A12.7 12.7 0 0 0-3.426-.31C-2.339-.01-1.186.067 0 0" style="fill:#004098;fill-opacity:1;fill-rule:nonzero;stroke:none" transform="matrix(.50165 0 0 -.50165 92.149 61.925)"/><path d="M0 0c.193.063.384.127.601.187l.03.006a12.84 12.84 0 0 1 1.605.925 74.083 74.083 0 0 1-.562-.25C1.111.587.558.29 0 0" style="fill:#004098;fill-opacity:1;fill-rule:nonzero;stroke:none" transform="matrix(.50165 0 0 -.50165 90.114 62.178)"/><path d="M0 0c.083.031.164.05.246.079a112.45 112.45 0 0 0 4.788 2.59c.483.245 1.212.613 2.019 1.027-1.187.067-2.339-.009-3.426-.309a7.667 7.667 0 0 0-1.096-.435c-.703-.37-1.401-.746-2.094-1.129C-.522.853 0 0 0 0" style="fill:#004098;fill-opacity:1;fill-rule:nonzero;stroke:none" transform="matrix(.50165 0 0 -.50165 88.61 63.78)"/><path d="M0 0c-.155-.081-.311-.16-.466-.242.337.1.707.251 1.097.435L.601.187C.384.127.193.063 0 0" style="fill:#004098;fill-opacity:1;fill-rule:nonzero;stroke:none" transform="matrix(.50165 0 0 -.50165 90.114 62.178)"/><path d="M0 0c13.819-4.601 16.12-8.153 16.12-8.153l10.623 5.459C19.479.857 11.403 3.492 3.002 5.621l-4.815-3.439Z" style="fill:#004098;fill-opacity:1;fill-rule:nonzero;stroke:none" transform="matrix(.50165 0 0 -.50165 126.016 177.288)"/><path d="m0 0 3.464 2.474Z" style="fill:#004098;fill-opacity:1;fill-rule:nonzero;stroke:none" transform="matrix(.50165 0 0 -.50165 124.426 175.374)"/><path d="M0 0c7.598-1.818 10.859.106 9.671 1.802C7.929 4.29-1.418 4.955-1.418 4.955s6.604 1.251 11.689-1.842c0 0 1.226 1.707-3.02 3.689-6.161 2.875-14.024.261-21.06 1.888 0 0 5.664-6.741 13.809-8.69" style="fill:#004098;fill-opacity:1;fill-rule:nonzero;stroke:none" transform="matrix(.50165 0 0 -.50165 133.68 61.283)"/><path d="m0 0 3.464-2.474Z" style="fill:#004098;fill-opacity:1;fill-rule:nonzero;stroke:none" transform="matrix(.50165 0 0 -.50165 108.61 174.133)"/><path d="M0 0c-8.401-2.129-16.477-4.764-23.741-8.315l10.622-5.459s2.302 3.552 16.121 8.153l1.813 2.182z" style="fill:#004098;fill-opacity:1;fill-rule:nonzero;stroke:none" transform="matrix(.50165 0 0 -.50165 107.252 174.468)"/><path d="m0 0 11.25-8.036h.001L0 0" style="fill:#004098;fill-opacity:1;fill-rule:nonzero;stroke:none" transform="matrix(.50165 0 0 -.50165 111.743 176.37)"/><path d="m0 0-11.837 8.455-2.598-3.125a3.435 3.435 0 0 1-.64-3.223c.05-.158.112-.313.185-.465.43-.887 1.13-1.987 2.238-3.204.036-.04.064-.077.101-.117.291-.314.577-.6.857-.861a12.79 12.79 0 0 1 2.279-1.715c.148-.085.3-.158.455-.22.057-.023.117-.036.175-.056.099-.033.198-.069.298-.093.068-.017.138-.023.206-.035.093-.016.185-.035.278-.044.074-.006.148-.003.221-.005.09-.002.179-.008.268-.003.093.005.186.021.279.034.065.008.131.012.195.025.098.019.194.05.291.078.057.017.116.028.173.048.118.041.232.093.346.148.033.015.067.026.1.043.146.076.288.162.424.259z" style="fill:#004098;fill-opacity:1;fill-rule:nonzero;stroke:none" transform="matrix(.50165 0 0 -.50165 116.473 181.054)"/><path d="M0 0c-.064-.013-.13-.016-.195-.025.065.009.131.012.195.025" style="fill:#004098;fill-opacity:1;fill-rule:nonzero;stroke:none" transform="matrix(.50165 0 0 -.50165 112.941 183.388)"/><path d="M0 0c-.101.024-.199.06-.298.094C-.199.06-.101.024 0 0" style="fill:#004098;fill-opacity:1;fill-rule:nonzero;stroke:none" transform="matrix(.50165 0 0 -.50165 112.215 183.374)"/><path d="M0 0c-.089-.005-.178.001-.267.003C-.178.001-.089-.005 0 0" style="fill:#004098;fill-opacity:1;fill-rule:nonzero;stroke:none" transform="matrix(.50165 0 0 -.50165 112.703 183.418)"/><path d="M0 0c-.093.008-.186.028-.278.044C-.186.028-.093.008 0 0" style="fill:#004098;fill-opacity:1;fill-rule:nonzero;stroke:none" transform="matrix(.50165 0 0 -.50165 112.458 183.414)"/><path d="M0 0c-1.108 1.218-1.808 2.317-2.238 3.205C-1.808 2.317-1.109 1.218 0 0" style="fill:#004098;fill-opacity:1;fill-rule:nonzero;stroke:none" transform="matrix(.50165 0 0 -.50165 110.126 181.838)"/><path d="M0 0c-.033-.017-.067-.028-.1-.044.033.016.067.027.1.044" style="fill:#004098;fill-opacity:1;fill-rule:nonzero;stroke:none" transform="matrix(.50165 0 0 -.50165 113.398 183.229)"/><path d="M0 0c-.057-.02-.116-.031-.173-.048.057.017.116.028.173.048" style="fill:#004098;fill-opacity:1;fill-rule:nonzero;stroke:none" transform="matrix(.50165 0 0 -.50165 113.174 183.325)"/><path d="m0 0 1.823 1.301-.001.001Z" style="fill:#fff;fill-opacity:1;fill-rule:nonzero;stroke:none" transform="matrix(.50165 0 0 -.50165 116.473 181.054)"/><path d="m0 0 .173-.123.194.234L0 0" style="fill:#fff;fill-opacity:1;fill-rule:nonzero;stroke:none" transform="matrix(.50165 0 0 -.50165 110.448 176.75)"/><path d="m0 0 .173.123-.367.111Z" style="fill:#fff;fill-opacity:1;fill-rule:nonzero;stroke:none" transform="matrix(.50165 0 0 -.50165 124.24 176.813)"/><path d="M0 0c-.065.009-.13.013-.195.025C-.13.013-.065.009 0 0" style="fill:#004098;fill-opacity:1;fill-rule:nonzero;stroke:none" transform="matrix(.50165 0 0 -.50165 121.93 183.4)"/><path d="M0 0c-.099-.033-.197-.07-.298-.094.101.024.199.061.298.094" style="fill:#004098;fill-opacity:1;fill-rule:nonzero;stroke:none" transform="matrix(.50165 0 0 -.50165 122.708 183.327)"/><path d="M0 0c-.093-.016-.185-.036-.278-.044.093.008.185.028.278.044" style="fill:#004098;fill-opacity:1;fill-rule:nonzero;stroke:none" transform="matrix(.50165 0 0 -.50165 122.455 183.391)"/><path d="M0 0c-.089-.002-.178-.008-.267-.003.089-.005.178.001.267.003" style="fill:#004098;fill-opacity:1;fill-rule:nonzero;stroke:none" transform="matrix(.50165 0 0 -.50165 122.205 183.416)"/><path d="M0 0c-.058.017-.116.028-.173.048C-.116.028-.058.017 0 0" style="fill:#004098;fill-opacity:1;fill-rule:nonzero;stroke:none" transform="matrix(.50165 0 0 -.50165 121.687 183.35)"/><path d="M0 0c-.429-.887-1.129-1.987-2.238-3.205C-1.129-1.987-.43-.887 0 0" style="fill:#004098;fill-opacity:1;fill-rule:nonzero;stroke:none" transform="matrix(.50165 0 0 -.50165 125.77 180.23)"/><path d="M0 0a8.32 8.32 0 0 1-.149-1.589v-43.295c0-4.544 3.624-8.228 8.091-8.228 4.464 0 8.098 3.684 8.098 8.228v38.778l-.021.038c0 3.134 2.47 5.681 5.522 5.681 3.057 0 5.531-2.547 5.531-5.681l.016-.038v-38.778c0-4.544 3.608-8.228 8.087-8.228 4.486 0 8.112 3.684 8.112 8.228v38.778l.026-.082c0 3.269 2.559 5.916 5.75 5.916 3.177 0 5.74-2.647 5.74-5.916l-.011.082v-38.778c0-4.544 3.626-8.228 8.097-8.228 4.469 0 8.097 3.684 8.097 8.228v38.778l-.022-.024c0 3.196 2.527 5.808 5.652 5.808 3.104 0 5.634-2.612 5.634-5.808l.013.024v-38.778c0-4.544 3.627-8.228 8.107-8.228 4.478 0 8.096 3.684 8.096 8.228v43.295h.032c0 9.341-7.391 16.93-16.5 16.93H57.316v7.489c0 4.542-3.623 8.227-8.096 8.227-4.481 0-8.084-3.685-8.084-8.227v-7.489H16.448C7.854 15.341.779 8.602 0 0" style="fill:#004098;fill-opacity:1;fill-rule:nonzero;stroke:none" transform="matrix(.50165 0 0 -.50165 92.719 104.22)"/><path d="M0 0c4.253 8.165 3.552 17.39 3.552 17.39C.066 12.583-10.186 6.899-11.971-.516-13.207-5.651-10.3-6.085-10.3-6.085c.196 7.37 7.283 11.877 7.283 11.877S-9.888-2.813-8.652-6.629c.316-.975 1.16-1.287 2.304-.833.969.79 1.95 1.566 2.944 2.326C-2.319-3.908-1.157-2.221 0 0" style="fill:#004098;fill-opacity:1;fill-rule:nonzero;stroke:none" transform="matrix(.50165 0 0 -.50165 83.17 65.098)"/><path d="M0 0c2.228 11.441-1.94 22.389-1.94 22.389-2.503-7.09-12.906-17.675-12.408-27.319.346-6.678 4.032-6.16 4.032-6.16-2.412 9.018 4.571 17.037 4.571 17.037S-10.992-6.97-8.12-11.158c.757-1.105 1.943-1.152 3.215-.089.613.782 1.23 1.56 1.862 2.327C-1.878-6.939-.777-3.992 0 0" style="fill:#004098;fill-opacity:1;fill-rule:nonzero;stroke:none" transform="matrix(.50165 0 0 -.50165 73.207 72.618)"/><path d="M0 0c-1.922 12.989-10.253 23.025-10.253 23.025.034-8.475-6.786-23.661-2.717-33.707 2.817-6.956 6.426-5.007 6.426-5.007-5.81 8.656-1.57 19.819-1.57 19.819s-.646-15.702 3.857-19.057c.868-.646 1.765-.608 2.544.083a117.67 117.67 0 0 0 1.815 3.991C.615-8.294.692-4.676 0 0" style="fill:#004098;fill-opacity:1;fill-rule:nonzero;stroke:none" transform="matrix(.50165 0 0 -.50165 63.925 83.7)"/><path d="M0 0c-2.298-1.374-3.264-2.532-3.617-3.427A119.546 119.546 0 0 0 .189.096C.128.061.061.036 0 0" style="fill:#004098;fill-opacity:1;fill-rule:nonzero;stroke:none" transform="matrix(.50165 0 0 -.50165 78.033 70.468)"/><path d="M0 0c6.832 4.779 14.83 2.966 14.83 2.966S2.656 1.669.799-2.061C-.467-4.606 3.783-6.585 12.872-3.975c9.924 2.85 16.882 10.546 16.882 10.546-5.424-.723-14.898 1.879-22.179.397A114.518 114.518 0 0 1 0 0" style="fill:#004098;fill-opacity:1;fill-rule:nonzero;stroke:none" transform="matrix(.50165 0 0 -.50165 76.425 73.156)"/><path d="M0 0c.306.53.605 1.064.919 1.589C.502.996.201.466 0 0" style="fill:#004098;fill-opacity:1;fill-rule:nonzero;stroke:none" transform="matrix(.50165 0 0 -.50165 66.075 85.18)"/><path d="M0 0s-11.7-5.007-12.404-9.281c-.481-2.915 4.346-3.582 12.579 1.787 8.988 5.863 13.55 15.636 13.55 15.636C8.592 5.782-1.516 5.465-8.297 1.839a114.611 114.611 0 0 1-5.55-9.339C-8.52-.643 0 0 0 0" style="fill:#004098;fill-opacity:1;fill-rule:nonzero;stroke:none" transform="matrix(.50165 0 0 -.50165 73.336 82.999)"/><path d="M0 0s-9.674-10.761-8.357-15.506c.898-3.237 6.197-1.617 12.121 7.86 6.469 10.346 6.501 22.609 6.501 22.609C6.499 10.544-2.259 5.901-7.794-.107a114.933 114.933 0 0 1-2.927-14.34C-8.538-4.765 0 0 0 0" style="fill:#004098;fill-opacity:1;fill-rule:nonzero;stroke:none" transform="matrix(.50165 0 0 -.50165 65.606 98.606)"/><path d="M0 0c.186 1.006.381 2.01.592 3.007C.252 1.818.062.817 0 0" style="fill:#004098;fill-opacity:1;fill-rule:nonzero;stroke:none" transform="matrix(.50165 0 0 -.50165 59.17 103.903)"/><path d="M0 0c-.082-.029-.164-.048-.246-.079 0 0-.523.853.436 1.824a118.356 118.356 0 0 1-14.686-9.588c-1.091-1.235-2.099-1.991-2.944-2.326a119.35 119.35 0 0 1-3.703-3.146c1.263.723 2.674 1.206 4.181 1.513A114.023 114.023 0 0 0 0 0" style="fill:#004098;fill-opacity:1;fill-rule:nonzero;stroke:none" transform="matrix(.50165 0 0 -.50165 88.734 63.74)"/><path d="M0 0a114.91 114.91 0 0 0 14.455 17.781c-.047-.033-.095-.059-.142-.092 0 0-.779.735-.27 2.025a118.52 118.52 0 0 1-9.045-9.78c-.616-1.047-1.249-1.813-1.863-2.327A118.364 118.364 0 0 1-5.259-4.599c.342.485.754 1.009 1.275 1.586C-2.89-1.798-1.528-.817 0 0" style="fill:#004098;fill-opacity:1;fill-rule:nonzero;stroke:none" transform="matrix(.50165 0 0 -.50165 69.174 82.076)"/><path d="M0 0a114.38 114.38 0 0 0 9.356 23.719c-.03-.039-.063-.072-.093-.112 0 0-1.605.776-.535 3.263a117.382 117.382 0 0 1-4.183-7.903c-.394-1.966-1.044-3.306-1.816-3.99A117.055 117.055 0 0 1-4.443-7.444c.045.158.078.301.129.467C-3.532-4.444-1.968-2.136 0 0" style="fill:#004098;fill-opacity:1;fill-rule:nonzero;stroke:none" transform="matrix(.50165 0 0 -.50165 61.696 98.66)"/><path d="m0 0-.001.005a114.35 114.35 0 0 0-29.078 11.104c-6.373 10.437-2.548 21.608-2.548 21.608s.308-17.405 5.617-20.594c3.622-2.175 7.136 3.533 4.46 16.775-2.921 14.459-13.457 25.46-13.457 25.46.431-9.464-7.295-26.669-1.735-37.711.266-.529.53-1.014.789-1.458a115.631 115.631 0 0 0-21.109 17.394c-2.513 10.961 4.308 19.784 4.308 19.784s-5.029-15.462-1.257-19.729c2.573-2.911 7.453 1.173 9.098 13.603 1.795 13.573-4.267 26.17-4.267 26.17-2.499-8.48-14.645-21.572-13.042-32.845.078-.55.167-1.057.266-1.527a115.205 115.205 0 0 0-14.561 21.968c.089.01.143.023.143.023-.505 10.03 6.558 16.973 6.558 16.973s-6.526-13.037-3.979-17.296c1.737-2.905 7.453-1.09 10.678 9.699 3.522 11.779-.722 24.875-.722 24.875-3.361-7.183-15.531-17.212-15.849-27.393v-.086a114.19 114.19 0 0 0-7.17 23.405.923.923 0 0 1 .053.003c.861 10.191 8.937 16.233 8.937 16.233s-8.367-12.265-6.379-16.911c1.356-3.169 6.523-.797 11.252 9.65 5.163 11.405 3.52 23.879 3.52 23.879-3.94-6.118-15.411-13.591-18.895-22.494a116.27 116.27 0 0 0-.569 11.487c0 5.395.379 10.702 1.096 15.902-.006-.024-.014-.047-.019-.072 0 0-2.385.038-2.089 3.961-.306-1.654-.59-3.316-.826-4.994-.164 2.736-1.102 6.45-3.187 11.044-5.662 12.476-17.113 20.121-17.113 20.121 2.433-8.496-.319-25.723 6.73-34.619 4.881-6.161 8.059-3.154 8.059-3.154-8.455 6.995-7.231 19.433-7.231 19.433s3.776-15.947 9.38-18.002c1.271-.466 2.313.036 2.896 1.38a119.247 119.247 0 0 1-.689-13.258c.017-4.274.266-8.491.724-12.644-1.011 1.855-2.383 3.924-4.208 6.187-8.601 10.665-21.6 15.205-21.6 15.205 4.48-7.618 6.122-24.986 15.171-31.838 6.266-4.745 8.591-1.039 8.591-1.039-9.935 4.659-11.859 17.008-11.859 17.008s7.643-14.497 13.582-15.085c.692-.069 1.263.095 1.687.463a117.32 117.32 0 0 1 4.986-18.163c-1.622 1.47-3.696 3.03-6.293 4.621-11.872 7.274-25.865 7.185-25.865 7.185 6.888-5.764 14.386-21.829 25.386-25.301 7.617-2.403 8.579 1.938 8.579 1.938-11.1 1.069-17.156 12.234-17.156 12.234s12.262-11.269 18.149-9.806c.31.077.565.203.794.35a117.78 117.78 0 0 1 9.01-16.166c-2.396 1.23-5.635 2.384-9.771 3.28-14.402 3.119-28.35-1.858-28.35-1.858 8.895-3.352 21.998-16.783 34.201-16.408 8.45.259 7.893 4.932 7.893 4.932-11.462-2.809-21.413 6.23-21.413 6.23s16.188-6.975 21.557-3.457c.277.182.485.391.661.612a118.47 118.47 0 0 1 12.525-13.835 52.15 52.15 0 0 1-5.511.282c-15.23-.006-28.226-8.09-28.226-8.09 9.718-1.436 25.896-12.129 38.138-9.076 8.477 2.113 6.891 6.711 6.891 6.711-10.961-5.349-22.992 1.599-22.992 1.599s15.484-3.026 21.379.37A117.883 117.883 0 0 1-26.948 4.788a54.685 54.685 0 0 1-4.778-1.034c-15.021-3.922-25.76-15.237-25.76-15.237 9.954 1.083 28.66-5.304 39.95.855 7.818 4.264 5.071 8.391 5.071 8.391-9.436-8.094-23.088-4.335-23.088-4.335s16.277 1.009 21.097 5.961A117.316 117.316 0 0 1 1.291-5.133L-.012.002 0 0" style="fill:#004098;fill-opacity:1;fill-rule:nonzero;stroke:none" transform="matrix(.50165 0 0 -.50165 104.294 170.044)"/><path d="M0 0a120.21 120.21 0 0 1-2.944-2.326C-2.099-1.991-1.091-1.235 0 0" style="fill:#004098;fill-opacity:1;fill-rule:nonzero;stroke:none" transform="matrix(.50165 0 0 -.50165 81.462 67.674)"/><path d="M0 0a119.234 119.234 0 0 1-1.862-2.327C-1.248-1.814-.616-1.048 0 0" style="fill:#004098;fill-opacity:1;fill-rule:nonzero;stroke:none" transform="matrix(.50165 0 0 -.50165 71.68 77.093)"/><path d="M0 0a117.69 117.69 0 0 1-1.816-3.991C-1.044-3.307-.394-1.967 0 0" style="fill:#004098;fill-opacity:1;fill-rule:nonzero;stroke:none" transform="matrix(.50165 0 0 -.50165 63.976 89.145)"/><path d="M0 0c.047.033.095.059.142.092A114.268 114.268 0 0 0 7.717 7.06c-1.507-.306-2.918-.79-4.181-1.513A118.443 118.443 0 0 1-.27 2.025C-.779.735 0 0 0 0" style="fill:#004098;fill-opacity:1;fill-rule:nonzero;stroke:none" transform="matrix(.50165 0 0 -.50165 76.354 73.203)"/><path d="M0 0c.03.04.063.073.094.112a114.611 114.611 0 0 0 5.55 9.339c-1.528-.817-2.89-1.798-3.985-3.013A16.774 16.774 0 0 1 .385 4.852c-.314-.525-.613-1.059-.919-1.589C-1.604.776 0 0 0 0" style="fill:#004098;fill-opacity:1;fill-rule:nonzero;stroke:none" transform="matrix(.50165 0 0 -.50165 66.343 86.817)"/><path d="M0 0c.005.025.014.047.019.072a114.933 114.933 0 0 0 2.927 14.34C.979 12.276-.585 9.969-1.367 7.435c-.052-.166-.085-.309-.13-.467-.211-.997-.406-2.001-.592-3.007C-2.385.038 0 0 0 0" style="fill:#004098;fill-opacity:1;fill-rule:nonzero;stroke:none" transform="matrix(.50165 0 0 -.50165 60.218 105.89)"/><path d="m0 0 .002-.01.013-.002-.003.009L0 0" style="fill:#004098;fill-opacity:1;fill-rule:nonzero;stroke:none" transform="matrix(.50165 0 0 -.50165 104.942 172.619)"/><path d="m0 0-.019.075Z" style="fill:#004098;fill-opacity:1;fill-rule:nonzero;stroke:none" transform="matrix(.50165 0 0 -.50165 105.454 170.293)"/><path d="m0 0-1.238 4.877a.05.05 0 0 1-.012.002L.053-.256l.013-.003z" style="fill:#004098;fill-opacity:1;fill-rule:nonzero;stroke:none" transform="matrix(.50165 0 0 -.50165 104.915 172.49)"/><path d="m0 0 .557-2.193Z" style="fill:#004098;fill-opacity:1;fill-rule:nonzero;stroke:none" transform="matrix(.50165 0 0 -.50165 105.454 170.293)"/><path d="M0 0c-2.596-1.591-4.669-3.15-6.291-4.619a117.234 117.234 0 0 1 4.988 18.158c.424-.366.993-.529 1.683-.461 5.939.589 13.582 15.086 13.582 15.086S12.038 15.815 2.103 11.156c0 0 2.325-3.706 8.591 1.038 9.049 6.853 10.691 24.221 15.171 31.839 0 0-12.999-4.54-21.6-15.205-1.822-2.26-3.192-4.326-4.203-6.179a119.247 119.247 0 0 1 .03 25.894c.583-1.345 1.625-1.846 2.896-1.38 5.604 2.055 9.38 18.002 9.38 18.002s1.224-12.438-7.231-19.433c0 0 3.178-3.007 8.059 3.153 7.049 8.897 4.297 26.124 6.73 34.62 0 0-11.451-7.645-17.113-20.122C.728 58.789-.21 55.074-.374 52.338c-.236 1.68-.519 3.345-.826 5.002-.063.828-.257 1.843-.606 3.053a116.986 116.986 0 0 1-7.168 22.376c.781-.699 1.682-.739 2.553-.09 4.503 3.355 3.857 19.057 3.857 19.057s4.241-11.163-1.569-19.819c0 0 3.608-1.949 6.426 5.007C6.362 96.97-.458 112.156-.425 120.631c0 0-8.331-10.036-10.252-23.025-.696-4.701-.614-8.33-.094-10.892a117.865 117.865 0 0 1-4.179 7.906c-.217.513-.56 1.105-1.044 1.774a118.364 118.364 0 0 1-8.323 12.089c1.287-1.099 2.49-1.06 3.256.057 2.871 4.188-2.375 17.105-2.375 17.105s6.982-8.019 4.571-17.037c0 0 3.686-.518 4.031 6.16.499 9.644-9.904 20.229-12.407 27.319 0 0-4.168-10.947-1.94-22.389.798-4.102 1.939-7.093 3.139-9.073a118.818 118.818 0 0 1-9.13 9.903c-.343.898-1.306 2.067-3.629 3.456-.08.048-.169.081-.25.127a118.21 118.21 0 0 1-3.657 3.121c1.152-.462 2.002-.152 2.319.827 1.236 3.816-5.635 12.421-5.635 12.421s7.087-4.507 7.283-11.877c0 0 2.907.435 1.671 5.569-1.784 7.416-12.037 13.099-15.523 17.907 0 0-.701-9.226 3.552-17.391 1.163-2.233 2.332-3.928 3.423-5.158a118.22 118.22 0 0 1-14.71 9.615c-.328.329-.82.671-1.571.999 1.332-.244 2.12.259 2.15 1.292.11 3.695-8.188 9.538-8.188 9.538s7.432-2.161 9.506-8.632c0 0 2.461 1.134.043 5.359-3.491 6.101-14.028 8.487-18.351 11.842 0 0 1.757-8.343 7.626-14.472 1.456-1.52 2.8-2.643 3.995-3.443-1.895.837-6.828 2.963-6.828 2.384 0-.367 2.798-1.864 5.007-3-5.752-.324-12.343-4.231-16.559-4.796 0 0 6.742-4.32 14.709-4.43 7.297-.1 10.06 2.235 8.601 3.873-2.138 2.401-11.466.898-11.466.898s5.513 2.927 11.521.838a114.117 114.117 0 0 0 16.928-11.794c-7.276 1.466-16.729-1.127-22.145-.405 0 0 6.959-7.697 16.882-10.546 9.089-2.61 13.34-.632 12.073 1.913-1.856 3.731-14.031 5.027-14.031 5.027s7.964 1.804 14.787-2.938a114.906 114.906 0 0 0 14.477-17.796c-6.781 3.614-16.874 3.933-22.001 6.29 0 0 4.562-9.772 13.55-15.635 8.233-5.37 13.06-4.703 12.579-1.788-.704 4.274-12.404 9.281-12.404 9.281s8.462-.641 13.792-7.434a114.337 114.337 0 0 0 9.421-23.795c-5.534 6.013-14.3 10.658-18.068 15.08 0 0 .032-12.262 6.5-22.609 5.924-9.477 11.223-11.097 12.121-7.86 1.317 4.745-8.357 15.506-8.357 15.506s8.57-4.78 10.734-14.496a116.288 116.288 0 0 0 1.083-15.853c0-3.874-.199-7.702-.573-11.477-3.489 8.898-14.952 16.369-18.891 22.484 0 0-1.643-12.474 3.52-23.88 4.729-10.446 9.896-12.818 11.252-9.649 1.988 4.646-6.379 16.911-6.379 16.911s8.076-6.042 8.937-16.233l.053-.003a114.126 114.126 0 0 0-7.17-23.4v.081c-.318 10.18-12.488 20.21-15.849 27.393 0 0-4.244-13.096-.722-24.875 3.225-10.789 8.942-12.604 10.678-9.699 2.547 4.259-3.978 17.296-3.978 17.296s7.062-6.943 6.557-16.973c0 0 .051-.012.132-.022a115.192 115.192 0 0 0-14.55-21.969c.099.47.188.977.266 1.527 1.603 11.273-10.543 24.365-13.042 32.844 0 0-6.062-12.596-4.267-26.169 1.645-12.43 6.525-16.514 9.098-13.603 3.772 4.267-1.257 19.729-1.257 19.729s6.821-8.824 4.308-19.784A115.557 115.557 0 0 0-55.203-59.33c.261.446.526.933.794 1.466 5.56 11.041-2.166 28.247-1.735 37.711 0 0-10.536-11.001-13.457-25.46-2.676-13.242.838-18.95 4.46-16.775 5.309 3.189 5.617 20.594 5.617 20.594s3.828-11.179-2.555-21.62A114.293 114.293 0 0 0-91.15-74.508l-.001-.003.012.002-1.303-5.137a117.208 117.208 0 0 1 15.75 4.521c4.824-4.95 21.094-5.958 21.094-5.958s-13.652-3.76-23.088 4.335c0 0-2.747-4.127 5.071-8.391 11.29-6.159 29.996.228 39.95-.855 0 0-10.739 11.315-25.76 15.237a55.133 55.133 0 0 1-4.781 1.035A117.844 117.844 0 0 1-45.869-58.28c5.902-3.387 21.369-.364 21.369-.364s-12.031-6.948-22.992-1.599c0 0-1.586-4.598 6.891-6.711 12.242-3.053 28.42 7.64 38.138 9.076 0 0-12.996 8.084-28.226 8.089a52.031 52.031 0 0 1-5.486-.278 118.42 118.42 0 0 1 12.499 13.835 2.75 2.75 0 0 1 .662-.615c5.369-3.518 21.557 3.457 21.557 3.457s-9.95-9.039-21.413-6.23c0 0-.556-4.673 7.893-4.932 4.906-.151 9.957 1.932 14.822 4.692v.007-.007c7.236 4.105 14.06 9.711 19.379 11.716 0 0-13.948 4.977-28.35 1.858-4.14-.897-7.381-2.052-9.778-3.284a117.764 117.764 0 0 1 9.012 16.173c.23-.148.487-.275.799-.353 5.887-1.463 18.149 9.806 18.149 9.806S3-15.109-8.1-16.178c0 0 .962-4.342 8.579-1.938 11 3.472 18.498 19.537 25.386 25.301 0 0-13.993.089-25.865-7.185" style="fill:#004098;fill-opacity:1;fill-rule:nonzero;stroke:none" transform="matrix(.50165 0 0 -.50165 176.206 132.665)"/><path d="m0 0 .02.077Z" style="fill:#004098;fill-opacity:1;fill-rule:nonzero;stroke:none" transform="matrix(.50165 0 0 -.50165 129.32 170.294)"/><path d="m0 0 .012.002.002.008L.002.007Z" style="fill:#004098;fill-opacity:1;fill-rule:nonzero;stroke:none" transform="matrix(.50165 0 0 -.50165 129.825 172.625)"/><path d="m0 0-1.238-4.877-.066-.261.012.003L.012.002 0 0" style="fill:#004098;fill-opacity:1;fill-rule:nonzero;stroke:none" transform="matrix(.50165 0 0 -.50165 130.48 170.044)"/><path d="m0 0 .001.003-.089-.019L0 0" style="fill:#fff;fill-opacity:1;fill-rule:nonzero;stroke:none" transform="matrix(.50165 0 0 -.50165 130.48 170.044)"/><path d="m0 0 .123.019.002.007L0 0" style="fill:#fff;fill-opacity:1;fill-rule:nonzero;stroke:none" transform="matrix(.50165 0 0 -.50165 129.763 172.634)"/><path d="M0 0c.068-.228.121-.462.112-.707a2.147 2.147 0 0 0-.692-1.51 2.148 2.148 0 0 0-1.555-.577 2.14 2.14 0 0 0-1.508.692A2.177 2.177 0 0 0-3.529.966a2.18 2.18 0 0 0 1.555.577 2.13 2.13 0 0 0 .694-.165l13.3 12.361-18.599-3.282-6.206-7.469 6.086-7.324.389-.468 2.862-3.444.484-.583.173-.208 2.66-3.2 3.463 2.474.647.461 2.416 1.726.044.032.218.155L8.646-5.97l.422 1.665.557 2.192.019.077 3.653 14.394z" style="fill:#004098;fill-opacity:1;fill-rule:nonzero;stroke:none" transform="matrix(.50165 0 0 -.50165 124.492 169.234)"/><path d="m0 0-.153.033.002-.005L0 0" style="fill:#fff;fill-opacity:1;fill-rule:nonzero;stroke:none" transform="matrix(.50165 0 0 -.50165 104.37 170.058)"/><path d="m0 0 .002-.009.154-.024L0 0" style="fill:#fff;fill-opacity:1;fill-rule:nonzero;stroke:none" transform="matrix(.50165 0 0 -.50165 104.948 172.62)"/><path d="M0 0c-.714.131-1.434.261-2.141.394C-1.424.229-.703.077.019-.075z" style="fill:#fff;fill-opacity:1;fill-rule:nonzero;stroke:none" transform="matrix(.50165 0 0 -.50165 105.444 170.255)"/><path d="m0 0-.012.002v-.004L0 0" style="fill:#004098;fill-opacity:1;fill-rule:nonzero;stroke:none" transform="matrix(.50165 0 0 -.50165 117.387 172.331)"/><path d="m0 0-.012-.002L0-.004Z" style="fill:#004098;fill-opacity:1;fill-rule:nonzero;stroke:none" transform="matrix(.50165 0 0 -.50165 117.393 172.33)"/><path d="m0 0 18.598-3.282Z" style="fill:#004098;fill-opacity:1;fill-rule:nonzero;stroke:none" transform="matrix(.50165 0 0 -.50165 104.253 162.342)"/><path d="m0 0-.012.002L-.023 0v.004l.011-.002L0 .004Zm16.246-12.056-2.598 3.125-.194.234-1.163 1.4-3.308 3.981-.374.449-1.221 1.47L5.43.959l-.61.735-4.832 5.814-1.377 1.657-6.206 7.469-18.598 3.282 13.299-12.361c.221.086.45.155.694.165a2.18 2.18 0 0 0 1.555-.577 2.177 2.177 0 0 0 .114-3.068 2.14 2.14 0 0 0-1.508-.692 2.148 2.148 0 0 0-1.555.577 2.145 2.145 0 0 0-.692 1.51c-.009.245.044.479.112.707l-13.297 12.358 3.653-14.394.019-.076.557-2.193.422-1.665 1.989-1.421.26-.185 2.418-1.728.647-.461 3.463-2.474 1.729-1.235 1.052-.752 11.25-8.035.001-.001h-.001l1.823-1.302 5.705-4.075c.137-.098.279-.184.425-.259.032-.016.065-.027.096-.042.115-.055.231-.108.35-.15.057-.02.116-.031.173-.048.097-.028.193-.058.291-.077.064-.013.13-.017.195-.026.093-.013.186-.028.28-.033.088-.005.178.001.267.003.073.002.147-.002.221.005.093.008.185.028.278.044.069.012.138.018.206.034.1.024.199.06.298.094.058.019.118.033.175.056.155.062.307.135.455.22.472.274 1.004.639 1.573 1.104.497.406 1.02.885 1.563 1.472.037.04.065.077.101.116 1.108 1.218 1.808 2.317 2.238 3.205a3.42 3.42 0 0 1-.455 3.688" style="fill:#004098;fill-opacity:1;fill-rule:nonzero;stroke:none" transform="matrix(.50165 0 0 -.50165 117.393 172.333)"/><path d="M0 0c-92.807 0-168.31 75.503-168.31 168.31S-92.807 336.62 0 336.62s168.31-75.503 168.31-168.31S92.807 0 0 0m0 339.774c-94.545 0-171.464-76.919-171.464-171.464C-171.464 73.764-94.545-3.154 0-3.154S171.464 73.764 171.464 168.31c0 94.545-76.919 171.464-171.464 171.464" style="fill:#004098;fill-opacity:1;fill-rule:nonzero;stroke:none" transform="matrix(.50165 0 0 -.50165 117.387 201.82)"/><path d="M0 0c-2.683.97-5.728.964-8.497-.171l3.3-6.668c2.748.985 5.6-.042 7.073-3.019 1.974-3.993-.373-8.25-5.309-10.691-4.897-2.422-9.577-2.158-11.738 2.212-1.417 2.863-.503 5.66 1.74 7.191l-3.297 6.669c-2.846-1.831-4.812-4.491-5.428-7.703-.519-2.648-.118-5.733 1.428-8.859 3.969-8.024 12.626-10.26 20.65-6.291C7.984-23.342 11.234-15.029 7.32-7.118 5.438-3.313 3.022-1.085 0 0" style="fill:#004098;fill-opacity:1;fill-rule:nonzero;stroke:none" transform="matrix(.50165 0 0 -.50165 30.49 154.398)"/><path d="m0 0-11.991-3.633-3.06 10.1L-3.06 10.1l-2.157 7.122-28.771-8.715 2.156-7.122 10.905 3.303 3.059-10.1-10.904-3.304 2.157-7.122L2.156-7.123z" style="fill:#004098;fill-opacity:1;fill-rule:nonzero;stroke:none" transform="matrix(.50165 0 0 -.50165 29.225 146.907)"/><path d="M0 0c-1.09 8.297-5.801 11.877-12.681 10.974l-19.304-2.536.971-7.38 19.429 2.552c2.917.383 5.217-.969 5.664-4.387.478-3.627-1.285-5.386-4.204-5.769l-19.553-2.568.969-7.38 19.303 2.535C-2.443-13.044 1.096-8.338 0 0" style="fill:#004098;fill-opacity:1;fill-rule:nonzero;stroke:none" transform="matrix(.50165 0 0 -.50165 25.539 129.546)"/><path d="m0 0-13.996.539c-1.05.041-4.92.106-4.92.106l.003.084s3.3 1.514 4.117 1.988L.423 10.969l.289 7.481-30.051 1.159-.28-7.272 14.248-.548c1.05-.041 4.669-.096 4.669-.096l-.004-.084s-3.047-1.482-3.904-1.912l-15.432-8.329-.288-7.481L-.28-7.271Z" style="fill:#004098;fill-opacity:1;fill-rule:nonzero;stroke:none" transform="matrix(.50165 0 0 -.50165 24.426 116.872)"/><path d="M0 0c4.488-.928 8.648-.329 11.974 1.645 3.138 1.884 5.328 4.995 6.195 9.195.734 3.541.136 6.669-2.47 9.226l.017.083 3.625-.321 1.057 5.106-15.811 3.269-2.538-12.269 5.354-1.108 1.14 5.518.082-.017c2.536-.825 4.619-3.617 3.827-7.446-.953-4.612-5.525-6.585-10.92-5.47-5.352 1.106-8.885 4.37-7.879 9.229.664 3.211 2.885 4.813 5.382 4.855L.5 28.576c-6.372.33-11.343-3.364-12.909-10.941-.878-4.24-.144-7.955 1.824-10.895C-8.363 3.361-4.61.954 0 0" style="fill:#004098;fill-opacity:1;fill-rule:nonzero;stroke:none" transform="matrix(.50165 0 0 -.50165 17.588 104.15)"/><path d="m0 0-13.017 5.17c-.977.389-4.604 1.739-4.604 1.739l.03.079s3.616.329 4.544.503l17.099 2.712 2.763 6.957-27.947 11.102-2.686-6.762 13.25-5.263c.977-.389 4.371-1.646 4.371-1.646l-.032-.078s-3.365-.384-4.318-.502l-17.325-2.714-2.764-6.957 27.95-11.102Z" style="fill:#004098;fill-opacity:1;fill-rule:nonzero;stroke:none" transform="matrix(.50165 0 0 -.50165 29.979 85.689)"/><path d="M0 0c-1.07 1.237-3.004 3.241-3.004 3.241l.045.072s2.649-.817 4.241-1.19L8.681.301 5.025-5.742Zm12.45-14.262L8.702-9.98l5.44 8.993 5.553-1.296 4.048 6.69-31.334 6.276-3.96-6.546 20.13-24.802z" style="fill:#004098;fill-opacity:1;fill-rule:nonzero;stroke:none" transform="matrix(.50165 0 0 -.50165 29.699 65.335)"/><path d="m0 0-11.295 10.016c-.911.808-4.612 3.923-4.612 3.923l.055.063s4.095-2.228 5.137-2.701L3.738 4.215l4.073 4.593-8.766 13.563c-.596.977-3.264 4.749-3.264 4.749l.057.063S-.66 23.907.253 23.099l11.324-10.043 4.519 5.095-22.492 19.948-6.696-7.55 7.391-11.5c1.082-1.634 4.014-5.807 4.014-5.807l-.058-.063s-4.491 2.412-6.27 3.258l-12.274 5.995-6.64-7.487L-4.437-5.002z" style="fill:#004098;fill-opacity:1;fill-rule:nonzero;stroke:none" transform="matrix(.50165 0 0 -.50165 44.924 59.064)"/><path d="m0 0-6.814 12.228c-.512.918-2.468 4.256-2.468 4.256l.074.041s3.007-2.029 3.837-2.482L9.586 5.341l6.536 3.644L1.489 35.241l-6.353-3.54 6.938-12.449c.511-.918 2.345-4.035 2.345-4.035l-.073-.042s-2.849 1.83-3.663 2.339l-15.132 8.845-6.536-3.643L-6.353-3.54z" style="fill:#004098;fill-opacity:1;fill-rule:nonzero;stroke:none" transform="matrix(.50165 0 0 -.50165 69.783 37.534)"/><path d="M0 0c-.042 1.635-.261 4.412-.261 4.412l.079.028S1.347 2.125 2.341.826l4.561-6.109L.237-7.631Zm.386-13.242 9.918 3.495 3.469-4.53 7.379 2.6L.921 13.079l-7.219-2.544-.199-31.956 7.061 2.489z" style="fill:#004098;fill-opacity:1;fill-rule:nonzero;stroke:none" transform="matrix(.50165 0 0 -.50165 82.82 21.434)"/><path d="m0 0 4.717-23.28 7.292 1.477-4.715 23.28 8.652 1.752-1.252 6.181-24.515-4.966 1.252-6.18z" style="fill:#004098;fill-opacity:1;fill-rule:nonzero;stroke:none" transform="matrix(.50165 0 0 -.50165 94.66 15.013)"/><path d="m0 0-2.806 29.931-7.411-.695L-7.409-.695z" style="fill:#004098;fill-opacity:1;fill-rule:nonzero;stroke:none" transform="matrix(.50165 0 0 -.50165 110.437 24.713)"/><path d="M0 0c.211 5.464 2.852 9.57 7.687 9.384 4.874-.188 7.109-4.483 6.898-9.947-.211-5.463-2.767-9.532-7.642-9.344C2.109-9.72-.209-5.465 0 0m6.667-15.957c9.121-.352 15.137 6.108 15.482 15.103.347 8.994-5.152 15.899-14.274 16.249-9.076.351-15.092-6.11-15.439-15.104-.347-8.993 5.154-15.898 14.231-16.248" style="fill:#004098;fill-opacity:1;fill-rule:nonzero;stroke:none" transform="matrix(.50165 0 0 -.50165 116.963 16.875)"/><path d="M0 0c.216 1.029.921 4.834.921 4.834l.082-.017S1.949 1.313 2.28.427l5.612-16.374 7.329-1.526 6.129 29.438-7.123 1.482L11.321-.51c-.216-1.029-.869-4.587-.869-4.587l-.084.017S9.413-1.83 9.131-.913l-5.65 16.598-7.328 1.526-6.13-29.437 7.123-1.484z" style="fill:#004098;fill-opacity:1;fill-rule:nonzero;stroke:none" transform="matrix(.50165 0 0 -.50165 135.114 18.983)"/><path d="M0 0c1.04 1.263 2.691 3.504 2.691 3.504l.078-.03S2.41.723 2.308-.909l-.553-7.6-6.573 2.589zm-11.97-14.672 3.591 4.416 9.78-3.853-.345-5.694 7.278-2.866.925 31.947-7.121 2.804-21.071-24.01z" style="fill:#004098;fill-opacity:1;fill-rule:nonzero;stroke:none" transform="matrix(.50165 0 0 -.50165 154.1 22.236)"/><path d="m0 0-11.616 6.864L.466 27.309l-6.406 3.785-15.289-25.873 18.02-10.649Z" style="fill:#004098;fill-opacity:1;fill-rule:nonzero;stroke:none" transform="matrix(.50165 0 0 -.50165 171.009 37.46)"/><path d="m0 0 13.961 13.569-5.187 5.337L-5.279 5.25c-2.111-2.052-4.761-2.341-7.164.132-2.549 2.623-2.187 5.086-.076 7.138L1.622 26.264l-5.187 5.337-13.962-13.569c-5.035-4.894-5.06-10.781.802-16.812C-10.893-4.781-4.976-4.835 0 0" style="fill:#004098;fill-opacity:1;fill-rule:nonzero;stroke:none" transform="matrix(.50165 0 0 -.50165 192.202 53.433)"/><path d="m0 0 11.525 7.958c.865.597 4.002 2.865 4.002 2.865l.047-.069s-1.731-3.19-2.104-4.06L6.237-9.034l4.254-6.16L35.239 1.892 31.104 7.88 19.37-.222c-.865-.596-3.793-2.721-3.793-2.721l-.049.069s1.55 3.012 1.979 3.87l7.36 15.917-4.254 6.161L-4.135 5.988Z" style="fill:#004098;fill-opacity:1;fill-rule:nonzero;stroke:none" transform="matrix(.50165 0 0 -.50165 192.305 62.356)"/><path d="m0 0 26.637 13.915-3.445 6.593L-3.445 6.594Z" style="fill:#004098;fill-opacity:1;fill-rule:nonzero;stroke:none" transform="matrix(.50165 0 0 -.50165 200.656 76.09)"/><path d="m0 0 31.609 1.62-2.713 7.022-16.392-1.331c-2.307-.215-5.443-.615-5.443-.615l-.03.079s2.566 1.758 4.441 3.204l13.013 10.078-2.789 7.217L-2.775 7.179Z" style="fill:#004098;fill-opacity:1;fill-rule:nonzero;stroke:none" transform="matrix(.50165 0 0 -.50165 204.783 85.724)"/><path d="m0 0 6.153 1.384-3.422 15.218 6.277 1.411 2.886-12.839 5.661 1.273-2.888 12.839 5.251 1.181 3.368-14.972 5.987 1.347-4.999 22.232-29.328-6.596z" style="fill:#004098;fill-opacity:1;fill-rule:nonzero;stroke:none" transform="matrix(.50165 0 0 -.50165 209.341 102.73)"/><path d="m0 0 .371-5.747C.554-8.6-.906-10.125-3.088-10.266c-2.266-.145-3.746 1.275-3.936 4.211l-.359 5.581zm-24.121-1.552 11.243.724.289-4.488c.204-3.189-1.214-4.712-3.958-5.268-2.95-.653-6.48-.755-6.891-1.581l.464-7.216.378.025c.31 1.073 4.113.896 8.016 1.779 2.95.611 4.501 2.059 5.214 4.716l.126.009c1.441-3.404 4.111-4.96 7.592-4.736 5.579.36 8.35 5.088 7.967 11.044L5.396 7.803l-29.995-1.929Z" style="fill:#004098;fill-opacity:1;fill-rule:nonzero;stroke:none" transform="matrix(.50165 0 0 -.50165 222.059 108.253)"/><path d="M0 0c-6.278.588-8.382-4.747-10.083-9.823-1.388-4.009-2.118-6.389-4.504-6.166-2.26.212-2.916 2.68-2.689 5.108.334 3.558 1.774 5.408 4.819 5.461l.698 7.451c-6.63.452-10.636-4.452-11.381-12.405-.647-6.907 2.326-12.59 8.604-13.178 6.405-.6 8.591 4.262 10.411 9.708C-2.7-9.459-1.983-7.204.109-7.4c1.675-.157 2.644-1.979 2.402-4.574-.26-2.763-1.721-4.399-4.051-4.476l-.679-7.243c6.307-.294 9.708 4.454 10.315 10.943C8.724-6.053 6.405-.6 0 0" style="fill:#004098;fill-opacity:1;fill-rule:nonzero;stroke:none" transform="matrix(.50165 0 0 -.50165 221.12 121.116)"/><path d="m0 0 29.37-6.399L30.953.872 1.585 7.271Z" style="fill:#004098;fill-opacity:1;fill-rule:nonzero;stroke:none" transform="matrix(.50165 0 0 -.50165 207.767 139.078)"/><path d="m0 0-22.543 7.481-2.343-7.062 22.542-7.481-2.78-8.379 5.985-1.986L8.74 6.314 2.755 8.299Z" style="fill:#004098;fill-opacity:1;fill-rule:nonzero;stroke:none" transform="matrix(.50165 0 0 -.50165 217.484 148.651)"/><path d="m0 0-3.274-6.679 9.962-4.885L19.231-29.04l3.46 7.057-5.298 6.857c-1.405 1.812-3.206 3.865-3.206 3.865l.037.076s2.688-.242 4.983-.243l8.682.049 3.572 7.284-21.497-.789z" style="fill:#004098;fill-opacity:1;fill-rule:nonzero;stroke:none" transform="matrix(.50165 0 0 -.50165 201.674 156.578)"/><path d="M0 0c-127.288 0-230.846 103.557-230.846 230.845 0 127.289 103.558 230.846 230.846 230.846s230.846-103.557 230.846-230.846C230.846 103.557 127.288 0 0 0m0 464.846c-129.028 0-234-104.973-234-234.001C-234 101.817-129.028-3.154 0-3.154c129.028 0 234 104.971 234 233.999S129.028 464.846 0 464.846" style="fill:#004098;fill-opacity:1;fill-rule:nonzero;stroke:none" transform="matrix(.50165 0 0 -.50165 117.387 233.192)"/></g></svg>