<svg xmlns="http://www.w3.org/2000/svg" width="550.69788mm" height="84.548462mm" viewBox="0 0 550.69788 84.548462"><g style="stroke-width:.195851"><g style="stroke-width:.195851"><path d="M0 0v-2.438A9.5 9.5 0 0 1-6.346 0h-18.466a9.46 9.46 0 0 1-5.29-1.605A9.46 9.46 0 0 1-35.391 0h-18.476c-5.259 0-9.537-4.278-9.537-9.537v-18.476c0-5.259 4.278-9.537 9.537-9.537h18.476q.524 0 1.041.056v-9.444h21.959v9.388h6.041c1.897 0 3.72.554 5.289 1.604a9.46 9.46 0 0 1 5.289-1.604h18.476c5.259 0 9.537 4.278 9.537 9.537V0Z" style="fill:#f25b28;fill-opacity:1;fill-rule:nonzero;stroke:none;stroke-width:.195851" transform="matrix(1.80125 0 0 -1.80125 114.207 0)"/></g><g style="stroke-width:.195851"><path d="M0 0h-2.123a4.23 4.23 0 0 0-4.228-4.227h-18.476A4.23 4.23 0 0 0-29.055 0v18.476a4.233 4.233 0 0 0 4.228 4.228h18.476a4.233 4.233 0 0 0 4.228-4.228H0a4.233 4.233 0 0 0 4.228 4.228H22.69a4.233 4.233 0 0 0 4.228-4.228v-2.642h2.122v2.642a6.36 6.36 0 0 1-6.35 6.351H4.228a6.35 6.35 0 0 1-5.29-2.843 6.35 6.35 0 0 1-5.289 2.843h-18.476a6.36 6.36 0 0 1-6.351-6.351V0a6.36 6.36 0 0 1 6.351-6.35h18.476A6.36 6.36 0 0 1 0 0" style="fill:#fff;fill-opacity:1;fill-rule:nonzero;stroke:none;stroke-width:.195851" transform="matrix(1.80125 0 0 -1.80125 61.898 50.46)"/></g><g style="stroke-width:.195851"><path d="M0 0h-7.548v-23.916H-18.86v4.079h-2.124v-6.202h15.559v23.916H0Z" style="fill:#fff;fill-opacity:1;fill-rule:nonzero;stroke:none;stroke-width:.195851" transform="matrix(1.80125 0 0 -1.80125 95.87 31.907)"/></g><g style="stroke-width:.195851"><path d="M0 0v-2.123h9.215v-18.96h2.122v18.96h12.405v-22.704a4.233 4.233 0 0 0-4.228-4.228H1.037a4.233 4.233 0 0 0-4.228 4.228h-2.122a4.233 4.233 0 0 0-4.228-4.228h-6.04v-2.122h6.04a6.35 6.35 0 0 1 5.289 2.843 6.35 6.35 0 0 1 5.289-2.843h18.477a6.356 6.356 0 0 1 6.35 6.35V0Z" style="fill:#fff;fill-opacity:1;fill-rule:nonzero;stroke:none;stroke-width:.195851" transform="matrix(1.80125 0 0 -1.80125 119.954 5.74)"/></g><g style="stroke-width:.195851"><path d="M0 0h-12.404v4.407h-2.123V-6.556h2.123v4.433H0Z" style="fill:#fff;fill-opacity:1;fill-rule:nonzero;stroke:none;stroke-width:.195851" transform="matrix(1.80125 0 0 -1.80125 58.074 31.907)"/></g><g style="stroke-width:.195851"><path d="M0 0h-9.375c-1.141 0-1.802-.51-1.802-1.533 0-1.021.661-1.531 1.802-1.531H0c1.142 0 1.803.51 1.803 1.531C1.803-.51 1.142 0 0 0m4.774 8.86-9.461 3.544-9.461-3.544-1.593 3.154 8.921 3.273v.722h-7.749v3.363h7.779v2.314h4.205v-2.314h7.779v-3.363h-7.749v-.722l8.921-3.273ZM.15-6.398h-9.675c-4.235 0-5.797 2.584-5.797 4.865 0 2.313 1.562 4.867 5.797 4.867h2.766v1.592h-10.964v3.483H8.348V4.926H-2.615V3.334H.15c4.235 0 5.797-2.554 5.797-4.867 0-2.281-1.562-4.865-5.797-4.865" style="fill:#242867;fill-opacity:1;fill-rule:nonzero;stroke:none;stroke-width:.195851" transform="matrix(1.80125 0 0 -1.80125 238.023 39.062)"/></g><path d="M526.042 325.974h-11.293v-2.373h11.293zm-15.379-4.801v10.387h4.085v-2.312h11.294v2.312h4.084v-11.293h-18.557c-.5 0-.906.406-.906.906m16.37-16.374c-.661-.241-.991-.03-.991.601v5.256h-15.68v3.424h7.66v1.652H507.54v3.363h25.709v-3.363h-11.083v-1.652h7.055c.5 0 .905-.406.905-.906v-7.294z" style="fill:#242867;fill-opacity:1;fill-rule:nonzero;stroke:none;stroke-width:.195851" transform="matrix(1.80125 0 0 -1.80125 -657.36 600.093)"/><g style="stroke-width:.195851"><path d="M0 0v3.574h11.263V8.5H4.36a.906.906 0 0 0-.906.906v13.211h19.313v-3.514H7.539v-7.089h15.528V8.5h-7.659V3.574H26.07V0Z" style="fill:#242867;fill-opacity:1;fill-rule:nonzero;stroke:none;stroke-width:.195851" transform="matrix(1.80125 0 0 -1.80125 305.639 45.61)"/></g><g style="stroke-width:.195851"><path d="M0 0c-.66-.24-.991-.06-.991.57v14.778h4.085V1.051Zm-.991-6.277h-10.211v-2.162H-.991zm-14.296-4.65V-.871h4.085v-2.072H-.991v2.072h4.085v-10.962h-17.475c-.5 0-.906.405-.906.906m-3.694 12.493v7.595h9.882v1.802h-9.882v3.334H-5.83c.5 0 .906-.405.906-.906V6.128h-9.882V3.994h12.283V.66h-15.552a.906.906 0 0 0-.906.906" style="fill:#242867;fill-opacity:1;fill-rule:nonzero;stroke:none;stroke-width:.195851" transform="matrix(1.80125 0 0 -1.80125 391.814 29.054)"/></g><g style="stroke-width:.195851"><path d="M0 0c-.63-.21-.961-.03-.961.6v25.321h3.904v-8.77h2.494v9.22h3.905V-.21l-2.944-.991c-.631-.211-.961-.03-.961.601v14.026H2.943V.991Zm-13.818 6.732v17.597h10.663v-3.514h-6.639V9.342h7.33V5.827h-10.449c-.5 0-.905.405-.905.905" style="fill:#242867;fill-opacity:1;fill-rule:nonzero;stroke:none;stroke-width:.195851" transform="matrix(1.80125 0 0 -1.80125 431.197 48.91)"/></g><g style="stroke-width:.195851"><path d="M0 0c-.66-.24-.991-.03-.991.6v16.25h4.085V9.671h4.144V6.068H3.094V1.081Zm-9.43 7.328h-3.275c-1.11 0-1.832-.57-1.832-1.621 0-1.081.722-1.651 1.832-1.651h3.275c1.081 0 1.802.57 1.802 1.651 0 1.051-.721 1.621-1.802 1.621M0-10.722c-.66-.241-.991-.03-.991.6v5.767H-15.83v3.484H2.188a.906.906 0 0 0 .906-.906v-7.864ZM-9.311.63h-3.543c-4.206 0-5.767 2.644-5.767 5.077s1.561 5.045 5.767 5.045h3.543c4.206 0 5.767-2.612 5.767-5.045S-5.105.63-9.311.63m-9.851 10.934v3.364h5.977v2.253h4.205v-2.253h5.737v-3.364z" style="fill:#242867;fill-opacity:1;fill-rule:nonzero;stroke:none;stroke-width:.195851" transform="matrix(1.80125 0 0 -1.80125 489.729 31.76)"/></g><g style="stroke-width:.195851"><path d="M0 0c-.66-.241-.991-.03-.991.6v11.474H-16.55v3.514H2.187a.906.906 0 0 0 .906-.906V1.081Zm-19.523-7.029v3.574h5.437v8.47h4.144v-8.47h2.763v8.47h4.146v-8.47h9.4v-3.574z" style="fill:#242867;fill-opacity:1;fill-rule:nonzero;stroke:none;stroke-width:.195851" transform="matrix(1.80125 0 0 -1.80125 539.23 32.949)"/></g><g style="stroke-width:.195851"><path d="M0 0a3.1 3.1 0 0 0-.857-1.005 4 4 0 0 0-1.23-.629 5 5 0 0 0-1.504-.216q-.857 0-1.596.242a3.7 3.7 0 0 0-1.28.708q-.54.466-.851 1.137-.31.67-.31 1.528v2.882q0 .857.31 1.528.31.67.851 1.137t1.28.708a5.1 5.1 0 0 0 1.596.243q.808 0 1.504-.218a3.9 3.9 0 0 0 1.23-.627q.534-.41.857-1.013t.385-1.36l-1.901-.149q-.1.857-.627 1.279-.529.423-1.448.423-2.15 0-2.149-2.249V2.063q0-2.25 2.149-2.249.919 0 1.448.423.527.422.627 1.279l1.901-.149A3.4 3.4 0 0 0 0 0" style="fill:#242867;fill-opacity:1;fill-rule:nonzero;stroke:none;stroke-width:.195851" transform="matrix(1.80125 0 0 -1.80125 219.84 76.962)"/></g><g style="stroke-width:.195851"><path d="M0 0q.323.274.721.423t.894.149q.609 0 1.155-.174.547-.174.951-.541.403-.366.64-.944.236-.577.236-1.372v-3.902L3.23-6.833q-.497-.173-.497.286v4.149q0 .695-.385 1.026-.385.328-.981.328-.597 0-.969-.372Q.025-1.788 0-2.459v-3.902l-1.367-.472q-.497-.173-.497.286v9.654H0Z" style="fill:#242867;fill-opacity:1;fill-rule:nonzero;stroke:none;stroke-width:.195851" transform="matrix(1.80125 0 0 -1.80125 226.245 67.898)"/></g><g style="stroke-width:.195851"><path d="m0 0-1.193-.422q-.497-.174-.497.286v.497a2.6 2.6 0 0 0-.783-.534 2.4 2.4 0 0 0-1.006-.199q-.621 0-1.161.173a2.55 2.55 0 0 0-.945.541 2.56 2.56 0 0 0-.64.937q-.236.571-.236 1.381v4.075h1.864V2.597q0-.696.385-1.024.385-.33.982-.33.596 0 .981.391t.385 1.087v4.014H0Z" style="fill:#242867;fill-opacity:1;fill-rule:nonzero;stroke:none;stroke-width:.195851" transform="matrix(1.80125 0 0 -1.80125 248.434 79.446)"/></g><g style="stroke-width:.195851"><path d="M0 0q-.261-.087-.354-.025-.093.063-.093.31v4.15q0 .695-.386 1.025-.385.33-.981.329-.597 0-.969-.372-.373-.373-.398-1.044V.471L-4.547 0q-.497-.173-.497.285V7.28h1.689v-.609q.323.337.777.535.454.2 1.012.199.609 0 1.156-.175.546-.173.95-.54a2.56 2.56 0 0 0 .64-.944q.236-.577.236-1.373V.471Z" style="fill:#242867;fill-opacity:1;fill-rule:nonzero;stroke:none;stroke-width:.195851" transform="matrix(1.80125 0 0 -1.80125 259.903 80.206)"/></g><g style="stroke-width:.195851"><path d="M0 0q-.026.67-.404 1.044-.379.372-.963.372-.596 0-.982-.329-.384-.33-.384-1.026V-.982q0-.696.384-1.025.386-.329.982-.329.584 0 .963.372.378.374.404 1.031zm1.864-3.628q0-.808-.255-1.379a2.55 2.55 0 0 0-.696-.939 2.9 2.9 0 0 0-1.025-.54 4.4 4.4 0 0 0-1.255-.173q-.559 0-1.068.117-.51.118-.926.367a2.4 2.4 0 0 0-.708.646 2.4 2.4 0 0 0-.404.944l1.914.1a.8.8 0 0 1 .447-.478q.323-.143.745-.143.597 0 .982.329Q0-4.449 0-3.753v.361a2.534 2.534 0 0 0-1.615-.56 3.8 3.8 0 0 0-1.162.175q-.54.174-.944.54a2.6 2.6 0 0 0-.64.938q-.237.572-.236 1.379V0q0 .796.236 1.372.236.578.64.945.404.366.944.54t1.162.175a2.46 2.46 0 0 0 1.789-.734v.609h1.69z" style="fill:#242867;fill-opacity:1;fill-rule:nonzero;stroke:none;stroke-width:.195851" transform="matrix(1.80125 0 0 -1.80125 272.705 72.328)"/></g><g style="stroke-width:.195851"><path d="M0 0q0 .695-.385 1.026-.385.328-.982.328-.596 0-.982-.391-.384-.391-.384-1.087v-1.168q0-.696.384-1.087.386-.39.982-.391.597 0 .982.33Q0-2.112 0-1.416Zm-2.733 2.398q.323.274.72.423.397.15.895.149.608 0 1.155-.174.546-.174.951-.541.403-.366.639-.944.237-.577.237-1.372v-1.292q0-.809-.237-1.38a2.6 2.6 0 0 0-.639-.938 2.6 2.6 0 0 0-.951-.541 3.8 3.8 0 0 0-1.155-.173q-.56 0-1.013.199a2.4 2.4 0 0 0-.776.534v-.361L-4.1-4.435q-.497-.173-.497.286v9.654h1.864z" style="fill:#242867;fill-opacity:1;fill-rule:nonzero;stroke:none;stroke-width:.195851" transform="matrix(1.80125 0 0 -1.80125 286.715 72.218)"/></g><g style="stroke-width:.195851"><path d="m0 0-1.193-.422q-.497-.174-.497.286v.497a2.6 2.6 0 0 0-.783-.534 2.4 2.4 0 0 0-1.006-.199q-.621 0-1.161.173a2.55 2.55 0 0 0-.945.541 2.56 2.56 0 0 0-.64.937q-.236.571-.236 1.381v4.075h1.864V2.597q0-.696.385-1.024.385-.33.982-.33.596 0 .981.391t.385 1.087v4.014H0Z" style="fill:#242867;fill-opacity:1;fill-rule:nonzero;stroke:none;stroke-width:.195851" transform="matrix(1.80125 0 0 -1.80125 303.733 79.446)"/></g><g style="stroke-width:.195851"><path d="M0 0q-.497-.173-.497.285v9.654h1.864V4.385l2.534 2.771h2.311L3.093 3.827 6.336.199H3.988L1.367 3.192V.471Z" style="fill:#242867;fill-opacity:1;fill-rule:nonzero;stroke:none;stroke-width:.195851" transform="matrix(1.80125 0 0 -1.80125 307.012 80.206)"/></g><g style="stroke-width:.195851"><path d="M0 0q0 .447-.162.733-.16.285-.434.441a1.9 1.9 0 0 1-.634.211 5 5 0 0 1-.758.056h-1.143v-2.882h1.143q.397 0 .758.056.36.055.634.21.273.155.434.441Q0-.447 0 0m1.938 0q0-.82-.255-1.398a2.56 2.56 0 0 0-.702-.95 2.8 2.8 0 0 0-1.068-.541 5.2 5.2 0 0 0-1.367-.168h-1.677v-3.217l-1.391-.485q-.498-.173-.497.286v9.529h3.565q.746 0 1.367-.168.621-.167 1.068-.541.447-.371.702-.95Q1.938.82 1.938 0" style="fill:#242867;fill-opacity:1;fill-rule:nonzero;stroke:none;stroke-width:.195851" transform="matrix(1.80125 0 0 -1.80125 334.18 68.032)"/></g><g style="stroke-width:.195851"><path d="M0 0a3 3 0 0 1-.621.062q-.324 0-.628-.099a1.9 1.9 0 0 1-.546-.279 1.5 1.5 0 0 1-.398-.441 1.24 1.24 0 0 1-.168-.596v-3.902l-1.366-.472q-.497-.173-.497.286v6.994h1.689V.87q.361.373.839.59a2.55 2.55 0 0 0 1.075.218q.186 0 .397-.025a6 6 0 0 0 .348-.05z" style="fill:#242867;fill-opacity:1;fill-rule:nonzero;stroke:none;stroke-width:.195851" transform="matrix(1.80125 0 0 -1.80125 347.468 69.89)"/></g><g style="stroke-width:.195851"><path d="M0 0q0 .671-.366.981-.368.312-.939.311-.572 0-.938-.311-.366-.31-.366-.981v-1.64q0-.671.366-.981.366-.311.938-.311.571 0 .939.311.366.31.366.981Zm1.864-1.578q0-.783-.249-1.348a2.5 2.5 0 0 0-.684-.925A2.8 2.8 0 0 0-.081-4.38a4.4 4.4 0 0 0-1.224-.167 4.4 4.4 0 0 0-1.23.167 2.8 2.8 0 0 0-1.006.529q-.435.36-.683.925t-.249 1.348v1.516q0 .783.249 1.348.248.565.683.926.435.36 1.006.528t1.23.168q.647 0 1.224-.168a2.8 2.8 0 0 0 1.012-.528 2.5 2.5 0 0 0 .684-.926q.249-.565.249-1.348Z" style="fill:#242867;fill-opacity:1;fill-rule:nonzero;stroke:none;stroke-width:.195851" transform="matrix(1.80125 0 0 -1.80125 357.028 72.106)"/></g><g style="stroke-width:.195851"><path d="M0 0h-2.013l-2.534 6.958h1.938l1.602-4.722L.596 6.958h1.938z" style="fill:#242867;fill-opacity:1;fill-rule:nonzero;stroke:none;stroke-width:.195851" transform="matrix(1.80125 0 0 -1.80125 369.394 79.848)"/></g><g style="stroke-width:.195851"><path d="M0 0q-.497-.173-.497.285v6.871h1.864V.471Zm-.572 10.387h2.013V8.473H-.572z" style="fill:#242867;fill-opacity:1;fill-rule:nonzero;stroke:none;stroke-width:.195851" transform="matrix(1.80125 0 0 -1.80125 376.605 80.206)"/></g><g style="stroke-width:.195851"><path d="M0 0q-.261-.087-.354-.025-.093.063-.093.31v4.15q0 .695-.386 1.025-.385.33-.981.329-.597 0-.969-.372-.373-.373-.398-1.044V.471L-4.547 0q-.497-.173-.497.285V7.28h1.689v-.609q.323.337.777.535.453.2 1.013.199.607 0 1.155-.175.546-.173.95-.54a2.56 2.56 0 0 0 .64-.944q.236-.577.236-1.373V.471Z" style="fill:#242867;fill-opacity:1;fill-rule:nonzero;stroke:none;stroke-width:.195851" transform="matrix(1.80125 0 0 -1.80125 390.659 80.206)"/></g><g style="stroke-width:.195851"><path d="M0 0a2.4 2.4 0 0 0-.689-.764 2.9 2.9 0 0 0-.945-.441 4.3 4.3 0 0 0-1.124-.143 4.4 4.4 0 0 0-1.23.167 2.8 2.8 0 0 0-1.007.529 2.46 2.46 0 0 0-.682.925q-.249.565-.249 1.348v1.515q0 .784.249 1.348.248.566.682.927.435.359 1.007.527t1.23.168q.596 0 1.124-.142.528-.144.945-.442A2.4 2.4 0 0 0 0 4.752q.273-.473.348-1.119l-1.864-.149q-.074.522-.403.765-.33.242-.839.242-.572 0-.938-.311-.366-.31-.366-.981v-1.64q0-.672.366-.982t.938-.311q.509 0 .839.243.329.242.403.764l1.864-.149Q.273.464 0 0" style="fill:#242867;fill-opacity:1;fill-rule:nonzero;stroke:none;stroke-width:.195851" transform="matrix(1.80125 0 0 -1.80125 405.885 77.867)"/></g><g style="stroke-width:.195851"><path d="M0 0q-.497-.173-.497.285v6.871h1.864V.471Zm-.571 10.387h2.013V8.473H-.571z" style="fill:#242867;fill-opacity:1;fill-rule:nonzero;stroke:none;stroke-width:.195851" transform="matrix(1.80125 0 0 -1.80125 409.423 80.206)"/></g><g style="stroke-width:.195851"><path d="M0 0q.583 0 .963.373.378.373.404 1.031v1.243q0 .695-.386 1.087-.385.391-.981.391-.597 0-.982-.329-.385-.33-.385-1.026V1.354q0-.695.385-1.024T0 0m2.224-1.664q-.249-.088-.348-.032-.1.057-.137.28l-.124.621a2.5 2.5 0 0 0-.801-.597 2.4 2.4 0 0 0-1.062-.223q-.622 0-1.162.174a2.6 2.6 0 0 0-.944.54q-.405.367-.641.938-.235.571-.235 1.38v1.292q0 .796.235 1.372.236.578.641.945.403.366.944.54t1.162.175q.558 0 1.006-.199.447-.2.783-.535v.609H3.23V.087l.249-1.33z" style="fill:#242867;fill-opacity:1;fill-rule:nonzero;stroke:none;stroke-width:.195851" transform="matrix(1.80125 0 0 -1.80125 419.853 77.208)"/></g><g style="stroke-width:.195851"><path d="M0 0q-.497-.173-.497.285v9.654h1.864V.471Z" style="fill:#242867;fill-opacity:1;fill-rule:nonzero;stroke:none;stroke-width:.195851" transform="matrix(1.80125 0 0 -1.80125 429.095 80.206)"/></g><g style="stroke-width:.195851"><path d="M0 0a2.8 2.8 0 0 0-.758-1.026 3.5 3.5 0 0 0-1.179-.639 4.9 4.9 0 0 0-1.523-.223q-.845-.001-1.528.223a3.5 3.5 0 0 0-1.174.639Q-6.652-.609-6.92 0q-.267.608-.267 1.392v6.584h1.889V1.541q0-.895.472-1.331.471-.434 1.366-.434t1.367.434q.472.436.472 1.331v6.435H.268V1.392Q.268.608 0 0" style="fill:#242867;fill-opacity:1;fill-rule:nonzero;stroke:none;stroke-width:.195851" transform="matrix(1.80125 0 0 -1.80125 452.559 76.894)"/></g><g style="stroke-width:.195851"><path d="M0 0q-.261-.087-.354-.025-.093.063-.093.31v4.15q0 .695-.386 1.025-.384.33-.981.329-.596 0-.969-.372-.372-.373-.398-1.044V.471L-4.547 0q-.497-.173-.497.285V7.28h1.689v-.609q.324.337.777.535.453.2 1.013.199.607 0 1.155-.175.546-.173.95-.54a2.56 2.56 0 0 0 .64-.944q.236-.577.236-1.373V.471Z" style="fill:#242867;fill-opacity:1;fill-rule:nonzero;stroke:none;stroke-width:.195851" transform="matrix(1.80125 0 0 -1.80125 464.933 80.206)"/></g><g style="stroke-width:.195851"><path d="M0 0q-.497-.173-.497.285v6.871h1.864V.471Zm-.571 10.387h2.013V8.473H-.571z" style="fill:#242867;fill-opacity:1;fill-rule:nonzero;stroke:none;stroke-width:.195851" transform="matrix(1.80125 0 0 -1.80125 470.802 80.206)"/></g><g style="stroke-width:.195851"><path d="M0 0h-2.013l-2.534 6.958h1.938l1.602-4.722L.596 6.958h1.939z" style="fill:#242867;fill-opacity:1;fill-rule:nonzero;stroke:none;stroke-width:.195851" transform="matrix(1.80125 0 0 -1.80125 483.204 79.848)"/></g><g style="stroke-width:.195851"><path d="M0 0h2.609v.124q0 .547-.366.857-.367.312-.939.311-.572 0-.938-.311Q0 .671 0 .124Zm0-1.541v-.224q0-.67.366-.981t.938-.311q.51 0 .858.231.348.23.434.652l1.852-.149a2.4 2.4 0 0 0-.348-.976 2.5 2.5 0 0 0-.702-.72 3.2 3.2 0 0 0-.963-.441 4.2 4.2 0 0 0-1.131-.149q-.658 0-1.229.167a2.8 2.8 0 0 0-1.007.529q-.435.359-.683.925-.249.565-.249 1.348v1.515q0 .783.249 1.348.248.566.683.927.435.359 1.007.527t1.229.169q.646 0 1.224-.169a2.8 2.8 0 0 0 1.013-.527q.435-.361.683-.927.249-.564.249-1.348v-1.416z" style="fill:#242867;fill-opacity:1;fill-rule:nonzero;stroke:none;stroke-width:.195851" transform="matrix(1.80125 0 0 -1.80125 491.945 71.993)"/></g><g style="stroke-width:.195851"><path d="M0 0a3 3 0 0 1-.621.062q-.324 0-.628-.099a1.9 1.9 0 0 1-.547-.279 1.5 1.5 0 0 1-.397-.441 1.24 1.24 0 0 1-.168-.596v-3.902l-1.366-.472q-.498-.173-.497.286v6.994h1.689V.87q.361.373.839.59a2.55 2.55 0 0 0 1.075.218q.186 0 .397-.025a6 6 0 0 0 .348-.05z" style="fill:#242867;fill-opacity:1;fill-rule:nonzero;stroke:none;stroke-width:.195851" transform="matrix(1.80125 0 0 -1.80125 509.649 69.89)"/></g><g style="stroke-width:.195851"><path d="M0 0q0-.596-.248-1.007a2.1 2.1 0 0 0-.646-.67 2.8 2.8 0 0 0-.895-.38 4.4 4.4 0 0 0-1.006-.117q-.622 0-1.156.149-.534.148-.931.454a2.2 2.2 0 0 0-.634.769q-.236.467-.261 1.113l1.826.149q.038-.61.342-.833t.814-.223q.434 0 .677.149.242.148.242.46 0 .285-.217.465-.218.18-.652.317l-1.019.311a5 5 0 0 0-.721.286 2 2 0 0 0-.559.403 1.6 1.6 0 0 0-.36.571 2.2 2.2 0 0 0-.125.778q0 .508.187.906.186.398.534.671t.832.417q.484.142 1.069.143.558 0 1.043-.149.484-.15.852-.436.366-.286.584-.701a2.3 2.3 0 0 0 .242-.951L-2 2.895q-.038.36-.242.59-.205.23-.64.23-.361 0-.566-.137a.45.45 0 0 1-.205-.397q0-.3.193-.435.193-.138.478-.224l1.019-.311q.435-.137.795-.323t.621-.453q.261-.268.404-.621Q0 .459 0 0" style="fill:#242867;fill-opacity:1;fill-rule:nonzero;stroke:none;stroke-width:.195851" transform="matrix(1.80125 0 0 -1.80125 521.234 76.38)"/></g><g style="stroke-width:.195851"><path d="M0 0q-.497-.173-.497.285v6.871h1.864V.471Zm-.572 10.387h2.013V8.473H-.572z" style="fill:#242867;fill-opacity:1;fill-rule:nonzero;stroke:none;stroke-width:.195851" transform="matrix(1.80125 0 0 -1.80125 524.033 80.206)"/></g><g style="stroke-width:.195851"><path d="M0 0h-1.491v-3.33q0-.397.46-.397h1.28L.062-5.342h-1.627q-.932 0-1.361.441-.429.44-.429 1.31V0h-1.118v1.616h1.118v1.59l1.367.472q.497.174.497-.286V1.616H0Z" style="fill:#242867;fill-opacity:1;fill-rule:nonzero;stroke:none;stroke-width:.195851" transform="matrix(1.80125 0 0 -1.80125 536.523 70.226)"/></g><g style="stroke-width:.195851"><path d="M0 0h-1.938l1.08 2.61-2.621 6.957h1.938L.037 4.896l1.628 4.671h1.938z" style="fill:#242867;fill-opacity:1;fill-rule:nonzero;stroke:none;stroke-width:.195851" transform="matrix(1.80125 0 0 -1.80125 544.208 84.548)"/></g></g></svg>