<svg xmlns="http://www.w3.org/2000/svg" viewBox="0 0 97.308 117.362"><path d="m88.642 26.316-.18-.045q-5.912-1.465-11.9-2.476a.655.655 0 0 0-.761.645v6.293a1.789 1.789 0 0 1-1.977 1.78h-.02q-8.994-1.005-18.03-1.283v-8.868a.81.81 0 0 0-.774-.811c-1.2-.045-3.636-.12-6.344-.12s-5.139.075-6.344.12a.81.81 0 0 0-.779.811v8.867q-8.812.276-17.6 1.229c-.149.016-.3.032-.445.05h-.02a1.765 1.765 0 0 1-1.968-1.751v-6.124a.816.816 0 0 0-.951-.8q-5.884 1.006-11.7 2.442l-.187.047a.811.811 0 0 0-.615.788v22.955a64.613 64.613 0 0 0 3.593 21 58 58 0 0 0 17.69 26.65 58.545 58.545 0 0 0 19.326 11.526A58.545 58.545 0 0 0 67.98 97.717a58.019 58.019 0 0 0 17.69-26.65 64.791 64.791 0 0 0 3.594-21V27.1a.81.81 0 0 0-.622-.784Zm-65.759 36.09C21.661 56.77 21.5 53.585 21.5 46.2c6.126-.743 11.682-1.166 17.918-1.432-2.875 7.99-8.567 14.68-16.535 17.638ZM48.654 95c-7.872-3.053-15.19-8.737-20.822-19.165a40.893 40.893 0 0 0 20.822-18.05 40.885 40.885 0 0 0 20.822 18.047C63.844 86.26 56.525 91.944 48.654 95Zm25.771-32.594c-7.97-2.958-13.659-9.648-16.56-17.639 6.256.266 11.814.689 17.939 1.432-.004 7.386-.158 10.571-1.379 16.207ZM13.9 20.142q-1.969-2.649-3.926-5.242v6.154q-.967.234-1.929.482V11.5q.858-.221 1.72-.432 1.957 2.591 3.925 5.23V10.16c.646-.141 1.292-.28 1.94-.413v10.028q-.865.179-1.73.367ZM23.5 17.336a4.417 4.417 0 0 1-2.7 1.541 3.169 3.169 0 0 1-2.7-.606c-1.009-.82-.981-2.077-.981-3.81s-.028-2.982.981-4.189a4.382 4.382 0 0 1 2.7-1.59 3.1 3.1 0 0 1 2.7.653c1.012.858 1 2.117 1 3.848s.012 2.982-1 4.153Zm-1.448-6.585a1.391 1.391 0 0 0-1.251-.323 2.008 2.008 0 0 0-1.263.759c-.378.49-.477.974-.477 2.9s.1 2.376.477 2.731a1.427 1.427 0 0 0 1.263.31 1.989 1.989 0 0 0 1.251-.746c.378-.485.491-.968.491-2.9s-.111-2.371-.491-2.731ZM29.6 17.516c-.49.057-.978.117-1.467.18q-1.659-4.8-3.313-9.574 1.013-.15 2.029-.287l2.018 6.276q1.009-3.39 2.02-6.768 1.023-.113 2.049-.212-1.668 5.175-3.336 10.385ZM38.729 16.7l-.594-1.737q-1.794.116-3.584.272c-.2.609-.407 1.217-.609 1.827-.684.063-1.368.128-2.051.2q1.83-5.2 3.665-10.364.773-.062 1.544-.117 1.84 4.884 3.687 9.808-1.03.052-2.058.111Zm-2.352-6.91-1.275 3.749q1.253-.1 2.507-.189-.615-1.78-1.232-3.558ZM50.934 16.417c-.2-.6-.4-1.188-.595-1.782q-1.8-.018-3.591 0l-.611 1.783c-.687.01-1.372.025-2.059.045q1.839-5.065 3.677-10.09h1.548q1.845 5.022 3.69 10.084-1.027-.027-2.059-.04ZM48.578 9.33l-1.277 3.654c.838-.006 1.675-.008 2.513 0L48.578 9.33ZM57.875 12.887q-.974-.056-1.943-.1v3.775q-.987-.043-1.972-.077V6.459q1.959.065 3.915.175a3.345 3.345 0 0 1 3.33 3.349 2.879 2.879 0 0 1-3.33 2.904Zm-.1-4.512q-.921-.053-1.843-.093v2.747q.922.039 1.843.092a1.243 1.243 0 0 0 1.46-1.278 1.436 1.436 0 0 0-1.46-1.468ZM62.373 16.978V6.95q3.319.279 6.631.7v1.743q-2.331-.293-4.664-.518v2.352q1.988.192 3.972.432v1.746q-1.984-.24-3.972-.431v2.436q2.332.226 4.664.517v1.746q-3.312-.415-6.631-.695ZM75.707 18.658q-.976-2.165-1.955-4.316-.7-.11-1.406-.214v4q-.98-.144-1.96-.276V7.826q1.968.264 3.93.576a3.7 3.7 0 0 1 3.243 3.62 2.183 2.183 0 0 1-1.825 2.315q1.118 2.351 2.232 4.716-1.126-.205-2.259-.395Zm-1.518-8.53q-.921-.145-1.843-.281V12.5c.614.089 1.229.184 1.843.281a1.091 1.091 0 0 0 1.419-1.092 1.586 1.586 0 0 0-1.419-1.561ZM78.822 19.212V9.184c.651.122 1.3.249 1.946.378V19.59c-.648-.131-1.295-.256-1.946-.378ZM88.279 20.267a3 3 0 0 1-2.668.455 4.765 4.765 0 0 1-2.691-1.7c-1-1.228-.977-2.473-.977-4.206s-.027-2.993.977-3.793a2.989 2.989 0 0 1 2.691-.5 4.645 4.645 0 0 1 2.668 1.743c1 1.265.985 2.517.985 4.249s.013 2.99-.985 3.752Zm-1.43-7.167a2.107 2.107 0 0 0-1.238-.829 1.349 1.349 0 0 0-1.254.25c-.377.338-.474.783-.474 2.712s.1 2.415.474 2.921a2.155 2.155 0 0 0 1.254.822 1.325 1.325 0 0 0 1.238-.243c.374-.333.486-.77.486-2.7s-.112-2.42-.486-2.933Z" style="fill:#b92454"/><path d="M40.88 82.847V77.21l-1.428 1.242v-1.379l1.428-1.241h1.28v7.015ZM47.519 79.813l-1.488 3.034h-1.389l1.458-2.9a1.368 1.368 0 0 1-.522.09 1.931 1.931 0 0 1-1.853-2.08 2.068 2.068 0 0 1 2.187-2.186A2.047 2.047 0 0 1 48.1 77.94a4.32 4.32 0 0 1-.581 1.873Zm-1.607-2.887a1.032 1.032 0 1 0 .907 1.024.909.909 0 0 0-.907-1.024ZM52.745 82.334a2.118 2.118 0 0 1-1.548.571 2.2 2.2 0 0 1-1.566-.56 2.149 2.149 0 0 1-.573-1.459h1.283c.069.552.325.867.856.867a.828.828 0 0 0 .611-.226 1.454 1.454 0 0 0 .276-1.045c0-.808-.236-1.261-.857-1.261a.816.816 0 0 0-.848.571h-1.172v-3.96h4v1.152H50.37v1.508a1.611 1.611 0 0 1 1.054-.354 1.8 1.8 0 0 1 1.31.473 2.432 2.432 0 0 1 .63 1.871 2.321 2.321 0 0 1-.619 1.852ZM55.974 82.847V77.21l-1.428 1.242v-1.379l1.428-1.241h1.282v7.015Z" style="fill:#b92454"/><path d="M97.023 7.119c-.318-.1-.64-.193-.958-.286A167.261 167.261 0 0 0 49.216 0H48.088A167.263 167.263 0 0 0 1.241 6.833c-.316.093-.639.188-.957.286L0 7.206v42.971c0 29.85 18.4 56.456 45.789 66.2l2.734.937.131.044.131-.044 2.734-.939c27.39-9.742 45.789-36.347 45.789-66.2V7.206ZM48.654 115.927l-2.414-.827C19.394 105.549 1.354 79.457 1.354 50.177V8.212a166.381 166.381 0 0 1 43.121-6.8q4.175-.1 8.354 0a166.359 166.359 0 0 1 43.123 6.8v41.965c0 29.28-18.038 55.372-44.88 64.92Z" style="fill:#b92454"/></svg>