<svg xmlns="http://www.w3.org/2000/svg" width="171.78766mm" height="171.78496mm" viewBox="0 0 171.78766 171.78496"><path d="M0 0c-.864-.314-1.748-.06-1.977.567-.228.629.285 1.393 1.149 1.707.864.315 1.749.06 1.978-.569C1.378 1.078.864.314 0 0m-1.089 3.152C-2.787 2.535-3.842 1.15-3.445.062c.396-1.088 2.094-1.471 3.791-.853 1.696.617 2.751 2.001 2.355 3.09-.396 1.089-2.094 1.471-3.79.853" style="fill:#005d4f;fill-opacity:1;fill-rule:nonzero;stroke:none" transform="matrix(1.35375 0 0 -1.35375 71.93 45.726)"/><path d="m0 0 1.626.591-.181.498 1.602.583.181-.497 1.701.619.107-1.105L3.754.223s.415-1.015 2.098-.885l-.009-.974s-1.627-.439-2.728.67c0 0 .053-1.527-1.611-2.249l-.668.685s1.381.912 1.086 2.085L.689-.894Z" style="fill:#005d4f;fill-opacity:1;fill-rule:nonzero;stroke:none" transform="matrix(1.35375 0 0 -1.35375 63.267 38.296)"/><path d="m0 0-1.035-.376.322-.886 1.036.377.558-1.535 1.209.44s.437.101.25.616L1.116 1.998l-1.627-.593Z" style="fill:#005d4f;fill-opacity:1;fill-rule:nonzero;stroke:none" transform="matrix(1.35375 0 0 -1.35375 71.585 37.164)"/><path d="M0 0c-.526.192-.822.699-.663 1.135.158.436.711.634 1.237.443.525-.191.823-.699.664-1.135C1.08.007.525-.19 0 0m3.624 1.711-1.809.659.182.498-1.632.594-.182-.498-1.924.7.014-1.102.539-.197c-.421-.144-.739-.407-.873-.773-.308-.846.483-1.909 1.762-2.374 1.279-.467 2.568-.16 2.876.686.133.366.06.772-.172 1.154l.641-.234Z" style="fill:#005d4f;fill-opacity:1;fill-rule:nonzero;stroke:none" transform="matrix(1.35375 0 0 -1.35375 100.683 39.461)"/><path d="m0 0 1.645-.599-.478-1.312.855-.311-.245-.671s-.09-.292-.335-.22l-.616.224-.368-1.01s-.186-.587-.574-.446l-1.294.471z" style="fill:#005d4f;fill-opacity:1;fill-rule:nonzero;stroke:none" transform="matrix(1.35375 0 0 -1.35375 106.272 37.175)"/><path d="m0 0 5.163-1.879s.664-.285.42-.955l-1.099-3.02-1.67.608.989 2.717-4.171 1.518z" style="fill:#005d4f;fill-opacity:1;fill-rule:nonzero;stroke:none" transform="matrix(1.35375 0 0 -1.35375 97.864 40.538)"/><path d="m0 0 .505.608-2.104 1.765L.078 4.371c.182.246-.111.47-.111.47l-.767.644-1.862-2.22-.451.379 1.677 1.997c.182.246-.111.47-.111.47l-.767.643-1.862-2.218-.976.818-.478-.568c-.251-.3.087-.581.087-.581L-.713.144C-.187-.298 0 0 0 0" style="fill:#005d4f;fill-opacity:1;fill-rule:nonzero;stroke:none" transform="matrix(1.35375 0 0 -1.35375 117.137 56.671)"/><path d="m0 0 4.397-3.691s.527-.495.07-1.041L1.316-8.485s-.228-.289-.603.025l-.838.702 3.072 3.664-3.455 2.898z" style="fill:#005d4f;fill-opacity:1;fill-rule:nonzero;stroke:none" transform="matrix(1.35375 0 0 -1.35375 116.455 42.895)"/><path d="M0 0c.428-.511.207-1.405-.497-1.996-.704-.59-1.623-.653-2.052-.142-.43.512-.207 1.406.496 1.997C-1.35.449-.43.512 0 0m-.315 3.985-6.063-5.087.378-.461c.237-.22.582-.016.582-.016L-3.31.19l.151-.18c-.978-1.097-1.275-2.437-.633-3.202.745-.888 2.471-.666 3.854.495C1.447-1.536 1.964.125 1.219 1.012c-.644.768-2.018.707-3.273-.073l-.164.195 2.055 1.725c.5.419.26.635.26.635zM-5.754 1.98C-5.969.963-7.188-.125-7.188-.125l.86-.58C-4.621.728-4.116 2.313-4.116 2.313c2.012.431 3.405 1.691 3.405 1.691l-.399.92c-1.055-.834-2.434-1.083-2.434-1.083l1.66 1.392-.267 1.037-2.369-1.988-.339.405-1.366-1.146.343-.409-2.376-1.994.866-.532Z" style="fill:#005d4f;fill-opacity:1;fill-rule:nonzero;stroke:none" transform="matrix(1.35375 0 0 -1.35375 59.287 50.703)"/><path d="M0 0h-3.5v-4.939s-.027-.734.641-.706h2.754v1.017h-1.657v3.585h1.417z" style="fill:#005d4f;fill-opacity:1;fill-rule:nonzero;stroke:none" transform="matrix(1.35375 0 0 -1.35375 85.54 33.357)"/><path d="m0 0-.008-8.324H1.16s.357-.06.421.505v5.109h.426v-5.613H3.12s.401.033.401.643V.011H2.007v-1.648h-.438V0Z" style="fill:#005d4f;fill-opacity:1;fill-rule:nonzero;stroke:none" transform="matrix(1.35375 0 0 -1.35375 86.17 33.28)"/><path d="m0 0 2.128 7.376H-.656c-1.51 0-2.723 1.213-2.723 2.689v6.755h7.736c.329 0 .59.23.658.493l1.736 5.935h-10.13v3.705h-7.442v-3.705h-5.372v3.705h-7.411v-3.705h-10.131l1.707-5.935c.099-.263.359-.493.654-.493h7.77v-6.755a2.7 2.7 0 0 0-2.688-2.689h-2.819L-26.98 0c.23-.032.425-.032.656-.032 2.36 0 4.62.819 6.425 2.326 1.835-1.507 4.032-2.326 6.392-2.326 2.324 0 4.59.819 6.391 2.326A10.149 10.149 0 0 1-.656-.032c.195 0 .427 0 .656.032m-16.193 16.82h5.372v-6.755a2.7 2.7 0 0 0-2.686-2.689 2.678 2.678 0 0 0-2.686 2.689v.034z" style="fill:#005d4f;fill-opacity:1;fill-rule:nonzero;stroke:none" transform="matrix(1.35375 0 0 -1.35375 103.67 104.358)"/><path d="M0 0c0-14.458-11.868-26.23-26.387-26.23-14.458 0-26.356 11.772-26.356 26.23 0 14.659 11.898 26.397 26.356 26.397C-11.868 26.397 0 14.659 0 0m2.232 0c0 15.838-12.95 28.626-28.619 28.626-15.636 0-28.586-12.788-28.586-28.626 0-15.639 12.95-28.459 28.586-28.459 15.669 0 28.619 12.82 28.619 28.459" style="fill:#005d4f;fill-opacity:1;fill-rule:nonzero;stroke:none" transform="matrix(1.35375 0 0 -1.35375 121.283 85.94)"/><path d="M0 0v-6.493h-5.539c-1.213 0-2.197 1.018-2.197 2.228v2.197L-8.85-.164c-.166.359-.295.72-.295 1.115 0 .786.424 1.54 1.116 1.932l4.787 2.756L0 .032Zm0-16.986h-5.539c-1.213 0-2.197.985-2.197 2.23 0 1.214.984 2.196 2.197 2.196H0Zm0-12.493v-.1l-3.242-5.573-4.787 2.753a2.244 2.244 0 0 0-1.116 1.937c0 .359.129.755.295 1.082l1.114 1.933v2.197c0 1.215.984 2.196 2.197 2.196H0Zm-8.488-14.756-4.787 2.757c-1.967 1.114-1.182 4.098 1.115 4.098.357 0 .752-.1 1.082-.295l4.785-2.724zm-6.293-10.885-.035-.033-5.608-3.212-2.754 4.751a2.281 2.281 0 0 0-.295 1.116 2.2 2.2 0 0 0 1.115 1.905l1.9 1.112 1.117 1.937c.392.652 1.148 1.115 1.935 1.115.359 0 .756-.101 1.08-.329l4.787-2.754zm-10.101 10.1a8.478 8.478 0 0 1-4.132-4.525c-3.9.622-7.702-1.573-9.079-5.247a8.293 8.293 0 0 1-5.997-1.343h.03l1.607-6.035 1.902 1.082c.36.197.72.296 1.116.296.786 0 1.508-.426 1.901-1.083l2.784-4.788-5.604-3.246-.035-.03c-.029 0-.029.03-.029.03h-6.462v5.509c0 1.244.985 2.23 2.23 2.23h2.197l-1.638 6.035h.001a8.288 8.288 0 0 1-5.837-1.838 8.246 8.246 0 0 1-10.456 0 8.215 8.215 0 0 1-5.837 1.838c-1.737 1.213-3.868 1.67-5.998 1.343-1.378 3.674-5.18 5.869-9.082 5.247a8.46 8.46 0 0 1-4.13 4.525l-.012-.012.012-.02-4.425-4.429 1.901-1.112a2.192 2.192 0 0 0 1.113-1.905c0-.393-.097-.752-.294-1.082l-2.786-4.785-5.574 3.212-.033.033-3.244 5.608 4.787 2.754c.36.228.72.329 1.114.329.786 0 1.506-.463 1.901-1.115l1.115-1.937 4.413 4.449c-.92 1.893-2.518 3.359-4.512 4.142.065.428.099.884.099 1.311a8.304 8.304 0 0 1-5.345 7.773c.066.458.099.886.099 1.344a8.348 8.348 0 0 1-1.408 4.623c.03.198.03.394.03.589 0 1.903-.654 3.74-1.867 5.214a8.373 8.373 0 0 1 1.867 5.28 8.337 8.337 0 0 1-1.867 5.245 8.216 8.216 0 0 1 1.867 5.246c0 .199 0 .362-.03.591A8.274 8.274 0 0 1-95.101.951c0 .458-.033.885-.099 1.343a8.266 8.266 0 0 1 5.345 7.771c0 .428-.034.852-.099 1.311 2 .789 3.608 2.264 4.524 4.134a8.437 8.437 0 0 1 4.13 4.524 8.353 8.353 0 0 1 9.114 5.248 8.325 8.325 0 0 1 5.966 1.342 8.205 8.205 0 0 1 5.837 1.837 8.246 8.246 0 0 1 10.456 0c1.671-1.346 3.736-2.001 5.836-1.837l1.638 6.033h-2.197a2.233 2.233 0 0 0-2.23 2.229v5.509h6.526l5.604-3.246-2.784-4.788c-.393-.687-1.115-1.079-1.901-1.079a2.27 2.27 0 0 0-1.116.293l-1.902 1.082-1.607-6.064a8.465 8.465 0 0 1 5.967-1.311c1.377-3.675 5.179-5.871 9.079-5.248a8.456 8.456 0 0 1 4.132-4.524c.919-1.904 2.558-3.377 4.524-4.134a8.302 8.302 0 0 1 5.247-9.082c-.328-2.099.131-4.23 1.31-5.968-.164-2.098.526-4.198 1.869-5.837-2.525-3.08-2.525-7.475 0-10.525-1.343-1.638-2.033-3.704-1.869-5.803-1.179-1.739-1.638-3.903-1.31-5.967a8.303 8.303 0 0 1-5.247-9.084c-1.966-.787-3.605-2.231-4.524-4.13m-4.62-18.593-2.756 4.755c-.852 1.476.195 3.342 1.9 3.342.789 0 1.544-.456 1.936-1.112l2.753-4.787zm-23.443-6.296h-4.423v5.509c0 2.95 4.423 2.95 4.423 0zm-10.489 0h-6.457s0-.03-.033-.03c0 .03 0 .03-.034.03l-5.572 3.246 2.756 4.788a2.239 2.239 0 0 0 1.933 1.083c.36 0 .753-.099 1.08-.296l1.905-1.082h2.228c1.212 0 2.194-.986 2.194-2.23zm-14.619 11.051-2.755-4.755-3.835 2.198 2.753 4.787c1.148 1.966 4.13 1.147 4.13-1.116 0-.393-.098-.754-.293-1.114m-23.735 14.623-2.23 3.836 4.788 2.724c1.472.884 3.31-.2 3.31-1.904 0-.785-.425-1.507-1.081-1.899zm-5.247 9.083-3.244 5.573c0 .036 0 .036-.034.036v6.489h5.54a2.196 2.196 0 0 0 2.198-2.196v-2.197l1.114-1.933a2.15 2.15 0 0 0 .295-1.082c0-.787-.425-1.542-1.115-1.937zm-3.278 22.592h5.54a2.196 2.196 0 0 0 2.198-2.196c0-1.245-.984-2.23-2.198-2.23h-5.54zm0 12.528V0l.034.032 3.244 5.607 4.754-2.756a2.236 2.236 0 0 0 1.115-1.932c0-.395-.098-.756-.295-1.083l-1.114-1.936v-2.197c0-1.21-.984-2.228-2.198-2.228h-5.54zm8.525 14.753 4.787-2.754a2.231 2.231 0 0 0 1.081-1.902c0-1.246-.984-2.229-2.197-2.229-.393 0-.789.099-1.113.295l-4.788 2.752zm6.26 10.887v.033h.033l5.574 3.213 2.786-4.788c.197-.328.294-.72.294-1.084 0-.785-.424-1.538-1.113-1.933l-1.901-1.114-1.115-1.902a2.233 2.233 0 0 0-1.901-1.081 2.27 2.27 0 0 0-1.114.294L-98.772 20Zm14.72 8.494 2.755-4.757c.195-.362.293-.72.293-1.115a2.195 2.195 0 0 0-2.195-2.196c-.787 0-1.508.394-1.9 1.081l-2.788 4.788zm10.85 6.293h6.524v-5.509c0-1.212-.982-2.229-2.194-2.229h-2.228l-1.905-1.082a2.147 2.147 0 0 0-1.08-.293c-.82 0-1.54.392-1.933 1.079l-2.756 4.788zm12.59 0h4.423v-5.509c0-1.212-1.013-2.229-2.227-2.229-1.213 0-2.196 1.017-2.196 2.229zm25.11-11.05 2.756 4.757 3.833-2.199-2.753-4.788c-1.147-1.935-4.131-1.146-4.131 1.115 0 .395.099.753.295 1.115m9.08-5.279 2.754 4.788 5.608-3.213h.035v-.033L-11.539 20l-4.787-2.754a2.143 2.143 0 0 0-1.08-.294c-.787 0-1.543.391-1.935 1.081l-1.117 1.902-1.9 1.114a2.252 2.252 0 0 0-1.115 1.933c0 .396.098.756.295 1.084m14.69-9.345 2.195-3.838-4.785-2.752c-1.481-.854-3.315.229-3.315 1.934 0 .785.428 1.509 1.118 1.902zM8.293-12.56v6.067H5.246v7.902L1.313 8.263l2.623 1.508-3.049 5.277-2.623-1.507-2.196 3.802 2.619 1.542-3.044 5.246-2.627-1.506-3.965 6.852-6.819 3.935 1.508 2.624-5.28 3.05-1.504-2.624-3.838 2.196 1.542 2.624-5.28 3.049-1.539-2.623-6.819 3.935h-7.902v3.049h-6.065v-3.049h-4.423v3.049h-6.066v-3.049h-7.9l-6.819-3.935-1.54 2.623-5.245-3.049 1.509-2.624-3.836-2.196-1.51 2.624-5.275-3.05 1.54-2.624-6.853-3.935-3.966-6.852-2.623 1.506-3.05-5.246 2.658-1.542-2.229-3.802-2.625 1.507-3.048-5.277 2.623-1.508-3.935-6.854v-7.902h-3.047v-6.067h3.047v-4.426h-3.047v-6.068h3.047v-7.866l3.935-6.855-2.623-1.509 3.048-5.279 2.625 1.509 2.229-3.838-2.658-1.505 3.05-5.247 2.623 1.508 3.966-6.855 6.853-3.932-1.54-2.658 5.275-3.014 1.51 2.622 3.836-2.197-1.509-2.655 5.245-3.018 1.54 2.623 6.819-3.967h7.9v-3.017h6.066v3.017h4.423v-3.017h6.065v3.017h7.902l6.819 3.967 1.539-2.623 5.28 3.018-1.542 2.655 3.838 2.197 1.504-2.622 5.28 3.014-1.508 2.658 6.819 3.932 3.965 6.855 2.627-1.508 3.044 5.247-2.619 1.505 2.196 3.838 2.623-1.509 3.049 5.279-2.623 1.509 3.933 6.855v7.866h3.047v6.068H5.246v4.426z" style="fill:#005d4f;fill-opacity:1;fill-rule:nonzero;stroke:none" transform="matrix(1.35375 0 0 -1.35375 160.561 65.917)"/><path d="M0 0c.101.376.442.788 1.061 1.229.665.496 1.244.781 1.707.756.439.019.853-.187 1.193-.679L5.346-.566l.944.657L4.88 2c-.633.905-1.35 1.359-2.096 1.457-.783.071-1.637-.239-2.628-.952-.461-.35-.866-.745-1.105-1.15C-1.221.957-1.33.549-1.35.088c-.019-.333.03-.648.122-.939a4.8 4.8 0 0 1 .646-1.108L.819-3.901l.96.72L.394-1.312C.054-.819-.097-.378 0 0" style="fill:#005d4f;fill-opacity:1;fill-rule:nonzero;stroke:none" transform="matrix(1.35375 0 0 -1.35375 45.428 115.537)"/><path d="m0 0 .75-1.738-1.438-.624-.649 1.473c-.238.5-.226.933-.024 1.315.19.35.653.7 1.331.992.719.311 1.287.431 1.724.314.447-.084.764-.4 1.004-.899l1.2-2.828 1.067.489-1.21 2.798c-.442.987-1.016 1.609-1.753 1.87-.705.251-1.632.158-2.729-.32-.569-.255-1.014-.542-1.372-.882A2.472 2.472 0 0 1-2.763.829c-.083-.316-.102-.642-.083-.95.051-.317.175-.751.37-1.268l1.24-2.808 3.667 1.582L1.098.483z" style="fill:#005d4f;fill-opacity:1;fill-rule:nonzero;stroke:none" transform="matrix(1.35375 0 0 -1.35375 40.704 104.002)"/><path d="m0 0-4.783-.856 4.342 3.517-.275 1.748-6.679-1.057.251-1.476 5.022.894-4.586-3.689.282-1.615L.257-1.443z" style="fill:#005d4f;fill-opacity:1;fill-rule:nonzero;stroke:none" transform="matrix(1.35375 0 0 -1.35375 43.566 96.043)"/><path d="M0 0c-.725-.211-1.422-.831-2.032-1.88-.305-.522-.5-1.006-.593-1.484-.06-.488-.042-.929.119-1.338a3.53 3.53 0 0 1 .516-.84c.212-.223.544-.479 1.012-.734l2.052-1.245.603 1.014-1.999 1.196c-.492.297-.778.609-.853.962-.106.364.001.772.307 1.293L2.52-5.084l.6 1.016-3.354 2.017c.278.427.619.709.976.78.33.118.737.008 1.174-.241l2.028-1.201.604 1.015L2.52-.496C1.558.059.734.243 0 0" style="fill:#005d4f;fill-opacity:1;fill-rule:nonzero;stroke:none" transform="matrix(1.35375 0 0 -1.35375 61.057 122.5)"/><path d="m0 0-1.861-1.988-1.922 1.742 1.87 2.023-1.051.979-4.591-4.992 1.057-.95 1.919 2.078 1.911-1.777-1.918-2.076 1.049-.977 4.563 5z" style="fill:#005d4f;fill-opacity:1;fill-rule:nonzero;stroke:none" transform="matrix(1.35375 0 0 -1.35375 58.734 119.442)"/><path d="M0 0c.24.537.59.847.953.954.395.097.896-.035 1.584-.35.772-.369 1.272-.769 1.47-1.155.231-.396.21-.861-.023-1.37L2.961-4.03l1.04-.506 1.032 2.138c.49.979.578 1.825.264 2.545-.281.71-.959 1.324-2.028 1.838-.571.255-1.063.416-1.559.445a2.28 2.28 0 0 1-1.301-.229 3.375 3.375 0 0 1-.784-.564c-.229-.24-.424-.592-.648-1.069l-1.071-2.164 1.071-.515z" style="fill:#005d4f;fill-opacity:1;fill-rule:nonzero;stroke:none" transform="matrix(1.35375 0 0 -1.35375 39.15 65.716)"/><path d="m0 0 4.084-.135.032 1.397-4.044.16c-.63.032-1.067.145-1.309.375-.24.232-.38.605-.363 1.17.014.563.143.93.407 1.165.262.234.72.315 1.355.315l4.055-.129.03 1.402-4.084.133c-.504-.001-.904 0-1.155-.066-.285-.058-.504-.134-.671-.256-.341-.281-.597-.616-.734-1.013-.17-.391-.272-.905-.272-1.539-.013-.565.051-1.083.18-1.488.127-.402.368-.765.663-1.046.163-.143.405-.238.687-.313C-.856.058-.497.029 0 0" style="fill:#005d4f;fill-opacity:1;fill-rule:nonzero;stroke:none" transform="matrix(1.35375 0 0 -1.35375 36.888 88.664)"/><path d="m0 0-2.678.639.634 2.546 2.64-.659.362 1.38-6.581 1.592-.323-1.353 2.736-.686-.63-2.514-2.741.653-.33-1.391 6.549-1.584Z" style="fill:#005d4f;fill-opacity:1;fill-rule:nonzero;stroke:none" transform="matrix(1.35375 0 0 -1.35375 43.204 77.9)"/><path d="m0 0-.5-4.827L-2.692.335-4.48.541l-.797-6.729 1.46-.181.534 5.087 2.3-5.394L.641-6.87l.787 6.693z" style="fill:#005d4f;fill-opacity:1;fill-rule:nonzero;stroke:none" transform="matrix(1.35375 0 0 -1.35375 82.706 128.642)"/><path d="m0 0 .128-1.175 1.901.239.188-1.59-1.589-.187c-.558-.088-.968.021-1.253.328-.287.31-.494.804-.595 1.563-.103.763-.048 1.354.155 1.739.208.414.604.643 1.154.699l3.015.381-.128 1.172-3.054-.401c-1.07-.122-1.813-.528-2.276-1.145-.43-.625-.576-1.558-.418-2.738.081-.59.212-1.096.439-1.524.253-.434.539-.745.914-.976.29-.178.593-.289.916-.341.289-.045.722-.055 1.312.023l3.014.382L3.33.433Z" style="fill:#005d4f;fill-opacity:1;fill-rule:nonzero;stroke:none" transform="matrix(1.35375 0 0 -1.35375 89.346 132.2)"/><path d="M0 0c-.268-.766-.633-1.274-1.04-1.537-.402-.262-.907-.263-1.496-.078-.578.22-.956.554-1.101 1.027-.113.468-.021 1.081.259 1.878.251.705.554 1.229.953 1.46.433.251.913.293 1.493.074.586-.187.96-.553 1.113-.995C.323 1.354.269.767 0 0m-.542 3.928c-1.073.384-1.944.376-2.632.055-.728-.343-1.287-1.066-1.677-2.173-.407-1.165-.458-2.123-.143-2.843.313-.719 1.008-1.267 2.07-1.685 1.071-.381 1.976-.383 2.703-.037.696.353 1.26 1.109 1.66 2.243.4 1.135.432 2.032.129 2.783-.315.715-1.038 1.273-2.11 1.657" style="fill:#005d4f;fill-opacity:1;fill-rule:nonzero;stroke:none" transform="matrix(1.35375 0 0 -1.35375 72.662 131.673)"/><path d="M0 0c-.014.006-.027.008-.041.015l.002.002C-.026.01-.014.006 0 0m2.123.782c-.246-.518-.552-.836-.881-.927C.926-.237.488-.177-.033.032l.004.009c.056.073 1.667 3.554 1.667 3.554-.009.027-1.065.519-1.065.519C.547 4.102-1.133.569-1.139.551c-.014.009-.027.018-.041.023-.429.243-.708.526-.795.855-.132.345-.086.775.129 1.218l.982 2.109c-.009.03-1.065.521-1.065.521-.025-.009-1.046-2.146-1.046-2.146-.45-1.009-.531-1.853-.237-2.518.31-.728 1.017-1.35 2.103-1.848.537-.28 1.07-.43 1.54-.428.472-.038.891.029 1.313.216.309.175.582.38.799.602.215.22.424.578.627 1.064l1.024 2.168c-.008.025-1.062.517-1.062.517C3.104 2.894 2.125.782 2.123.782" style="fill:#005d4f;fill-opacity:1;fill-rule:nonzero;stroke:none" transform="matrix(1.35375 0 0 -1.35375 129.25 108.658)"/><path d="m0 0-.284.365.026-.011C-.228.308-.139.185 0 0m3.793.185.272-.354-.026.01a6.297 6.297 0 0 1-.246.344M1.085 3.669l-.017-.012 2.959-3.81-.445.186c-1.263.552-4.63 1.964-4.63 1.964C-1.066 1.994-2.459.9-2.459.9c-.003-.027 4.132-5.346 4.132-5.346.028-.001 1.112.848 1.112.848C2.785-3.566-.023.061-.244.35L.213.157a589.085 589.085 0 0 1 4.808-2.033c.022.004 1.32 1.029 1.32 1.029.003.03-4.142 5.351-4.142 5.351-.029.002-1.114-.835-1.114-.835" style="fill:#005d4f;fill-opacity:1;fill-rule:nonzero;stroke:none" transform="matrix(1.35375 0 0 -1.35375 111.09 124.85)"/><path d="m0 0-1.541 3.279c-.029.011-1.286-.583-1.286-.583-.011-.027 1.616-3.484 1.616-3.484.237-.506.383-.861.442-1.083a.936.936 0 0 0-.07-.68c-.115-.233-.527-.512-.859-.666-.33-.153-.813-.294-1.09-.233-.27.058-.492.202-.664.425-.104.146-.286.488-.535 1.017L-5.58 1.379c-.028.01-1.286-.587-1.286-.587l-.019-.008 1.577-3.352c.331-.7.623-1.211.872-1.527.174-.222.397-.394.685-.536.29-.137.623-.2.992-.192.342.006.962.2 1.624.509.421.198 1.008.536 1.28.836.247.273.415.562.5.863.083.299.084.626.006.972C.57-1.296.351-.744 0 0" style="fill:#005d4f;fill-opacity:1;fill-rule:nonzero;stroke:none" transform="matrix(1.35375 0 0 -1.35375 108.025 128.773)"/><path d="M0 0c-.029 0-1.006-.995-1.006-.995.002-.03 4.861-4.79 4.861-4.79l.014-.017.993 1.013C4.86-4.76 0 0 0 0" style="fill:#005d4f;fill-opacity:1;fill-rule:nonzero;stroke:none" transform="matrix(1.35375 0 0 -1.35375 116.804 116.221)"/><path d="M0 0c.022-.019 6.78.808 6.78.808l.017.002-.168 1.405c-.023.017-6.78-.804-6.78-.804C-.168 1.388 0 0 0 0" style="fill:#005d4f;fill-opacity:1;fill-rule:nonzero;stroke:none" transform="matrix(1.35375 0 0 -1.35375 129.604 82.432)"/><path d="M0 0a.18.18 0 0 1 .026.026L.005-.002C.003 0 0 0 0 0m5.745-.106.209-.341-.017.004a7.106 7.106 0 0 1-.192.337M4.129 5.181s.034-.064.089-.162l-.092.156a.028.028 0 0 1 .003.006m-.013.01-.002.001-.017-.02a41.937 41.937 0 0 1-.905-1.109c0-.028 2.543-4.191 2.733-4.502l-.374.12C4.376.073.919 1.167.919 1.167.895 1.161-.025-.006-.025-.006s.007-.005.019-.01l-.003-.005.174-.053C1.272-.445 6.921-2.23 6.921-2.23l.014-.006.929 1.174c.001.024-3.734 6.265-3.734 6.265a.05.05 0 0 1-.014-.012" style="fill:#005d4f;fill-opacity:1;fill-rule:nonzero;stroke:none" transform="matrix(1.35375 0 0 -1.35375 117.736 115.468)"/><path d="M0 0c-.006-.002-.016-.025-.031-.067l.017.062A.492.492 0 0 1 0 0m-3.323-1.275c-.037-.038-.076-.07-.115-.11l.001.014c.038.035.077.064.114.096M-6.559-3.08l.297 1.098.284.934c.091.198.213.331.374.407.154.078.34.087.551.028a.818.818 0 0 0 .431-.256.677.677 0 0 0 .166-.42c.002-.008.002-.018.002-.028 0-.185-.08-.572-.238-1.151 0 0-.293-1.058-.293-1.064 0 .021-1.47.424-1.574.452M-.006.021S-.057.006-.137-.021C-.646-.165-2.32-.704-2.32-.704c-.663-.249-.888-.428-1.117-.65.013.096.017.187.018.277.029.423-.058.791-.257 1.099-.239.371-.602.625-1.084.755a1.935 1.935 0 0 1-1.098 0 1.57 1.57 0 0 1-.827-.584c-.203-.286-.399-.775-.583-1.453l-.776-2.824c.014-.027 6.429-1.783 6.429-1.783.023.014.379 1.313.379 1.313l.004.019s-2.648.722-2.655.725c.018.001.074.202.074.202.061.233.256.944.914 1.244.663.303 2.458.81 2.475.815C-.41-1.534.014.016.014.016a.168.168 0 0 1-.02-.004z" style="fill:#005d4f;fill-opacity:1;fill-rule:nonzero;stroke:none" transform="matrix(1.35375 0 0 -1.35375 138.137 93.982)"/><path d="M0 0c0 .087-.412 1.98-.412 1.98-.025.016-1.151-.229-1.151-.229C-1.577 1.729-.416-3.62-.416-3.62c.025-.016 1.15.23 1.15.23v.001c0 .097-.418 2.023-.418 2.023C.32-1.384 5.823-.185 5.823-.185l.021.003-.297 1.365C5.524 1.199.004-.002 0-.002Z" style="fill:#005d4f;fill-opacity:1;fill-rule:nonzero;stroke:none" transform="matrix(1.35375 0 0 -1.35375 129.953 73.803)"/><path d="M0 0s.074-.014.204-.027L.008-.01 0 0m2.721-5.395v.003a.341.341 0 0 1-.02.065l.028-.057c-.002 0-.008-.008-.008-.011m.754 3.853.099-.008-.003-.004c-.016.002-.048.008-.096.012M.01-.063c.119-.279.615-1.25.615-1.25.018-.01 2.836-.246 2.938-.256l-.053-.09c-.285-.433-1.471-2.403-1.471-2.403 0-.019.68-1.354.68-1.354.002 0 .012.017.016.02l.005-.009.108.184c.48.775 2.179 3.648 2.181 3.648L7.457-.336l.02.01-.608 1.19C6.842.876 4.408-.371 4.408-.371c.014.004-4.424.383-4.424.383V.008l.004-.018h-.007z" style="fill:#005d4f;fill-opacity:1;fill-rule:nonzero;stroke:none" transform="matrix(1.35375 0 0 -1.35375 123.792 63.126)"/><path d="M0 0a2.067 2.067 0 0 1-.793.962 2.113 2.113 0 0 1-1.145.342c-.451 0-.83-.096-1.133-.282-.29-.177-.511-.425-.698-.785-.161-.302-.312-.774-.493-1.53-.223-.944-.387-1.469-.506-1.608a.545.545 0 0 0-.422-.203.499.499 0 0 0-.422.218c-.173.236-.25.729-.25 1.113.001.369.077.834.238 1.036.156.191.416.317.771.38.019.021-.016 1.439-.016 1.439l-.02-.002c-.016 0-.029-.004-.045-.004-.654-.014-1.17-.246-1.551-.677-.374-.427-.594-1.211-.596-2.155 0-.601.094-1.196.245-1.549.165-.386.398-.676.719-.888a1.856 1.856 0 0 1 1.019-.306c.559 0 1.006.207 1.405.648.278.304.518.855.714 1.634l.198.873.127.546c.084.237.183.404.299.499a.63.63 0 0 0 .412.14c.254 0 .468-.112.66-.342.174-.206.283-.668.283-1.174-.002-.401-.102-.922-.324-1.181-.213-.248-.553-.415-1.004-.497-.018-.02.066-1.356.066-1.356l.002-.022.024.002c.867.1 1.48.368 1.869.812.394.457.621 1.269.625 2.228C.258-1.027.16-.38 0 0" style="fill:#005d4f;fill-opacity:1;fill-rule:nonzero;stroke:none" transform="matrix(1.35375 0 0 -1.35375 138.734 85.368)"/><path d="M0 0a1.205 1.205 0 1 0-2.41-.002A1.205 1.205 0 0 0 0 0" style="fill:#005d4f;fill-opacity:1;fill-rule:nonzero;stroke:none" transform="matrix(1.35375 0 0 -1.35375 48.36 57.435)"/><path d="M0 0a1.207 1.207 0 0 0-2.412 0A1.205 1.205 0 0 0 0 0" style="fill:#005d4f;fill-opacity:1;fill-rule:nonzero;stroke:none" transform="matrix(1.35375 0 0 -1.35375 126.257 57.435)"/></svg>