<svg xmlns="http://www.w3.org/2000/svg" width="228.50945mm" height="228.50945mm" viewBox="0 0 228.50945 228.50945"><g transform="translate(39.91 -57.593)"><circle cx="74.343864" cy="171.84819" r="114.25472" style="fill:#fff;stroke:#fff;stroke-width:0"/><path d="M0 0c-19.938 0-36.159-16.223-36.159-36.156 0-19.942 16.221-36.159 36.159-36.159s36.16 16.217 36.16 36.159C36.16-16.223 19.938 0 0 0m0-73.739c-20.719 0-37.579 16.86-37.579 37.583 0 20.719 16.86 37.579 37.579 37.579 20.72 0 37.58-16.86 37.58-37.579 0-20.723-16.86-37.583-37.58-37.583" style="fill:#1c2e67;fill-opacity:1;fill-rule:nonzero;stroke:none" transform="matrix(2.93744 0 0 -2.93732 74.095 64.39)"/><path d="M0 0c-14.707 0-26.675-11.959-26.675-26.659 0-14.703 11.968-26.663 26.675-26.663 14.692 0 26.648 11.96 26.648 26.663C26.648-11.959 14.692 0 0 0m0-54.904c-15.58 0-28.254 12.668-28.254 28.245C-28.254-11.09-15.58 1.579 0 1.579c15.565 0 28.228-12.669 28.228-28.238 0-15.577-12.663-28.245-28.228-28.245" style="fill:#1c2e67;fill-opacity:1;fill-rule:nonzero;stroke:none" transform="matrix(2.93744 0 0 -2.93732 73.426 91.015)"/><path d="M0 0h-9.758v-16.305s-4.427-2.004-4.719-3.029c0 0-.515 1.207-4.975 3.09V.062h-9.857l.064 7.286h9.63v7.72s3.522 1.143 4.782 3.089c0 0 2.038-2.102 4.979-3.058v-7.66H0Zm2.201-3.925v25.476c-4.494-4.505-9.117-4.661-9.117-4.661-4.49-.403-7.724 3.799-7.724 3.799-3.715-4.414-7.556-3.86-7.556-3.86-5.431.151-9.406 4.569-9.406 4.569l.031-23.804c-.224-5.531 2.262-9.329 2.262-9.329 2.49-3.86 9.018-6.453 9.018-6.453 4.038-1.419 5.814-4.077 5.814-4.077.517 1.823 4.426 3.583 4.426 3.583.938.339 5.625 2.809 5.625 2.809C3.104-11.61 2.201-3.925 2.201-3.925" style="fill:#1c2e67;fill-opacity:1;fill-rule:nonzero;stroke:none" transform="matrix(2.93744 0 0 -2.93732 116.43 173.045)"/><path d="M0 0v-.771h-.555l-.129-.031c-.129 0-.189 0-.257.031-.065.03-.095.122-.095.307 0 .095 0 .187.03.277 0 .061.034.156.065.22l-.031.706v.126c0 .031 0 .061-.034.095v.061c0 .03-.03.03-.03.09v.217c0 .03.03.061.064.095 0 .03.061.06.129.091h.322c.1 0 .165-.031.195-.091V.033s0-.033.03-.033zm0 4.076v-.895h-.326c-.03 0-.03 0-.03-.032 0-.03-.035-.03-.035-.064v-.368H0v-.831h-.356c-.035-.061-.065-.061-.065-.095-.065-.03-.1-.03-.164-.03h-.258c-.03 0-.068.064-.098.094-.031.061-.031.152-.065.304V4.383s-.03.03-.03.092c0 .189 0 .28.03.371.065.095.193.156.391.156.16 0 .259-.061.289-.156 0-.061 0-.152-.03-.273V3.98c.03.031.093.061.128.061.031.035.095.035.16.035zm-2.297-4.6v.307c-.033.03-.064.061-.098.03h-.095l-2.198-.03c-.034 0-.064.03-.098.03-.03.031-.03.091-.03.156 0 .064.03.094.03.094h.163l2.068.031c.065 0 .125.031.125.092.035.06.035.216.035.462v.061l-.035.03v.096c0 .061-.03.155-.03.276 0 .031 0 .061.03.061v.06c0 .032 0 .032.035.062 0 .129-.035.25-.035.31-.03.031-.06.092-.094.092.034.031.064.095.064.19 0 .06.03.243 0 .523v1.39c0 .06.03.121.099.181.031 0 .064.031.16.061.068.065.129.096.167.13.06.06.091.121.091.212 0 .217-.031.342-.065.402-.026.061-.095.061-.223.061h-.099c-.031 0-.031 0-.065.031-.065.125-.129.22-.194.22 0 .03-.064.03-.159.03-.129.03-.197-.03-.228-.155-.03-.061-.03-.157-.03-.308V2.037c.03-.151.061-.246.129-.31h-1.458c.198.28.327.527.422.774.129.311.193.713.227 1.173v.432c-.034.065 0 .095 0 .156 0 .03 0 .06.031.091.034.09.034.156.034.186-.034.095-.099.186-.197.338-.095.125-.16.189-.225.189-.033.031-.063.031-.094 0-.034-.034-.068-.034-.068-.034h-1.064c-.098 0-.197-.03-.257-.03-.069-.03-.129-.091-.198-.156-.03 0-.03-.061-.03-.152.03-.094.03-.185.061-.311.038-.121.068-.182.098-.246.034-.096.069-.096.099-.061.065.03.099.061.159.095.068.03.099.03.164.03h.777c.031 0 .061-.03.061-.095v-.337h-1.002a.25.25 0 0 1-.159-.062c-.03-.033-.065-.155-.065-.341 0-.217.035-.342.035-.402.03-.03.06-.03.095-.03l.094.03h.941a.953.953 0 0 0-.163-.308c-.064-.064-.129-.155-.227-.247l-.065-.095c-.03-.03-.03-.121 0-.247.035-.09.065-.212.163-.306h-.452c-.098 0-.197-.065-.257-.157-.069-.06-.099-.181-.099-.31a.634.634 0 0 1 .03-.368c.035-.061.129-.091.259-.091.034 0 .034 0 .067.03 0 0 .032.031.062.031 0 .03.033.064.068.064.031.03.061.03.099.03h1.708c.068 0 .099-.03.129-.03V.739h-.03l-2.069-.03c-.096 0-.164 0-.224-.061-.069-.06-.099-.155-.099-.277 0-.125 0-.216.03-.246 0-.031.035-.031.069-.031v-.311c-.034-.03-.034-.03-.034-.06-.035 0-.035-.032-.035-.062-.03-.06-.03-.125-.03-.22 0-.121 0-.212.03-.243.035-.094.129-.155.259-.155.034 0 .067 0 .067.03.032 0 .062 0 .062.031.068 0 .099.034.099.034h2.519c.065 0 .099 0 .13.03 0 .03.033.121.033.308M0 1.886v.831h.354v.497L0 3.181v.895h.354v.463l-.031.186c0 .09 0 .186.031.216.063.031.162.061.352.061.167 0 .292-.061.326-.156 0-.061 0-.182-.034-.337-.034-.066-.034-.096-.034-.156V2.254c-.03-.125-.03-.217-.091-.277-.038-.061-.068-.091-.099-.091ZM2.034-.771H0V0h2.034zm0 5.928V1.111c-.098 0-.163.061-.227.121-.031.096-.065.282-.065.593V4.664c0 .03-.034.061-.034.091v.277c.034.065.133.095.262.095 0 .03.034.03.064.03m0-4.046v4.046c.096 0 .159 0 .19-.03.068-.03.133-.155.133-.372 0-.182-.034-.342-.034-.433 0-.03-.031-.091-.031-.091l-.03-.03V1.696c0-.243-.038-.402-.038-.464-.031-.06-.094-.09-.19-.121m0-1.882V0h.096c.063 0 .132 0 .162-.031.031-.065.065-.186.099-.338 0-.19 0-.311-.034-.372-.034-.03-.095-.03-.227-.03z" style="fill:#1c2e67;fill-opacity:1;fill-rule:nonzero;stroke:none" transform="matrix(2.93744 0 0 -2.93732 78.567 146.833)"/><path d="M0 0v-1.056c-.034-.03-.068-.03-.099-.03-.064-.03-.129-.06-.193-.121l-.292-.247h-.16c-.034-.033-.099-.061-.129-.095l-.099-.06c0-.031-.034-.061-.034-.061a.453.453 0 0 0-.125-.091c-.034-.03-.098-.03-.163 0-.064.031-.163.121-.259.274-.097.128-.132.188-.132.25 0 .091.068.151.198.247l.743.557c.03.061.061.091.061.121 0 .031 0 .091-.061.152l-1.487 2.103c-.031.061-.099.091-.16.153-.068.06-.13.093-.197.158-.031 0-.064.06-.031.152a.54.54 0 0 0 .064.217c.066.091.096.186.164.216.061.061.094.092.129.061.095-.031.19-.091.288-.152.066-.064.163-.16.228-.251L-.068.061C-.034.061 0 .03 0 0m0 4.813a2.05 2.05 0 0 1-.292-.182c-.095-.095-.163-.155-.193-.221 0-.03 0-.122.03-.182a2.018 2.018 0 0 1-.228-.122 2.212 2.212 0 0 1-.323-.219c-.223-.182-.383-.464-.383-.866 0-.433.129-.865.417-1.259.066-.095.129-.125.159-.125.069 0 .099.03.165.091.034.034.034.034.064.034v-.034c.063-.126.099-.249.129-.309a.387.387 0 0 1 .227-.155.291.291 0 0 1 .228 0v.71h-.034c-.194 0-.353.06-.451.215-.129.157-.163.374-.129.589.03.213.093.403.227.493.129.091.254.152.387.152zM.258-.372c0 .03-.034.06-.034.091-.035.06-.065.121-.125.182C.061-.061.03-.038.03-.038.03 0 0 0 0 0v-1.056h.03c.069.035.129.035.159.1.035.026.035.121.069.243zm0 .463v-.152C.224 0 .224.061.258.091M0 1.264c.099 0 .159.03.258.064v.737C.159 2.034.099 2.004 0 1.974Zm.258 3.458c-.069.06-.129.091-.159.091H0v-1.39h.061c.068-.03.128-.03.197-.091Zm0-5.435V-.372zm.774 1.51V-.221C.903-.312.835-.372.774-.402a.723.723 0 0 1-.163-.095c-.064 0-.094.033-.125.064-.038.031-.068.091-.132.152l-.035.06c-.03.061-.061.096-.061.16v.152c0 .031.031.061.031.092.065.094.228.25.516.462l.068.03zm0 3.215c-.064.03-.129 0-.197-.065l-.03-.03-.451.653c-.035.061-.065.091-.096.152v-1.39c.096-.03.19-.121.259-.246a.629.629 0 0 0 .129-.523.745.745 0 0 0-.228-.407c-.064-.06-.129-.06-.16-.091v-.737h.031c.129.061.288.182.516.339.098.061.163.121.227.182Zm0-4.233V.797l1.193.895c.098.07.197.13.261.13.095.027.194-.034.292-.155.066-.126.096-.188.129-.248 0-.061 0-.155-.033-.341 0-.03 0-.06.033-.06 0-.031.031-.061.065-.091l.03-.034c.096-.126.13-.218.13-.279-.034-.091-.096-.181-.258-.31-.03-.027-.13-.027-.194 0-.065.034-.129.064-.228.155-.095.064-.159.095-.194.125-.094.03-.125.03-.194 0L1.063-.16c0-.03-.031-.03-.031-.061M5.2-3.895v-.739c-.064-.065-.098-.095-.064-.065-.034-.03-.034-.061 0-.091l.064-.03v-1.113c-.03-.03-.064 0-.064 0L2.68-3.583c-.065.061-.099.122-.159.152-.035.031-.099.031-.164.061-.034.03-.064.03-.099.064-.033 0-.064.031-.094.061-.1.091-.16.185-.16.246-.038.096.03.218.19.373.099.091.198.121.327.091.094 0 .223-.091.386-.246l.418-.4c.129.121.228.243.292.304.095.065.163.096.194.126.065 0 .128 0 .16-.03.067-.031.098-.062.197-.122.129-.157.228-.308.193-.403-.034-.094-.163-.277-.39-.528l.326-.273.356.369c.061.094.125.125.16.125.065 0 .193-.095.357-.251 0 0 0-.031.03-.031m0 2.749v-1.018l-.486.494c-.061.03-.129.091-.19.121-.068.034-.128.062-.197.095-.06 0-.096.064-.096.155 0 .062 0 .153.066.243 0 .1.064.191.099.251.06.061.094.092.128.061.095 0 .19-.03.289-.091.098-.061.193-.121.289-.221zM1.613 2.156c.129.098.194.19.194.25 0 .061-.031.121-.095.217l-.034.091-.357.497c.099.091.163.121.163.182.035.065-.034.187-.163.342-.095.182-.19.277-.289.277V1.849v.034c.066.06.099.151.129.213.065-.062.13-.092.198-.092.061.03.125.061.254.152M5.2-2.164l1.324-1.267c.065-.06.1-.091.1-.122 0-.03 0-.06-.035-.125l-.516-.554c-.098-.094-.129-.186-.129-.247 0-.03.064-.094.129-.185l.065-.065c.094-.091.193-.153.223-.153.069-.03.099 0 .163.062l.133.091.095-.061.517.558c.034.03.064.061.094.091.034 0 .069.034.099.034.064.03.099.061.129.122.035.06.035.151 0 .341 0 .122-.03.213-.099.304 0 .034-.06.095-.159.159-.03.027-.064.061-.064.061-.035.03-.065.06-.095.06L5.2-1.146Zm0-2.47v.739c.129-.121.194-.212.228-.337a.502.502 0 0 0-.069-.216c-.09-.091-.129-.156-.159-.186m0-1.299v1.113l.775-.744c.129-.122.197-.244.163-.399a2.02 2.02 0 0 0-.194-.276L5.91-6.27l-.064-.061-.066-.064c-.03-.03-.064-.03-.064 0-.03 0-.094.034-.159.094-.031.031-.129.092-.258.213v.03c.03.035.03.065.03.095v.03h-.03c0 .031-.03.031-.03.031s-.039 0-.039-.031zm4.688-4.136-1.553.96.388.645a.383.383 0 0 0 .098.121c0 .03.031.066.061.126.098.125.163.216.163.277 0 .091-.095.186-.289.28-.193.122-.322.182-.421.182-.129.031-.258-.06-.356-.215a.468.468 0 0 1-.095-.247v-.182s0-.061-.034-.095l-.547-.991c-.069-.087-.069-.183-.034-.243.034-.061.128-.125.322-.246.129-.065.228-.125.323-.125.065-.031.095-.031.163 0l1.26-.772c.03-.033.099-.033.129-.063 0-.031.03-.062.064-.092.096-.091.164-.151.258-.216.035-.03.066-.056.1-.056zm0 1.203v-.865l-.486.31a.704.704 0 0 1-.164.091c-.03 0-.098.035-.159.061a2.187 2.187 0 0 0-.323.221c-.033.091 0 .212.096.371.068.121.163.213.288.213a.915.915 0 0 0 .262-.092l.034-.03zm0 3.893v-.804l-.034-.061h.034v-.835l-.324.183c0 .034-.034 0-.034 0-.034 0-.034-.031-.064-.062l-.099-.181.521-.341v-.866l-.843.523H8.98c-.03-.03-.06-.03-.098 0a.659.659 0 0 0-.224.065l-.095.065c-.099.06-.164.091-.198.121a.235.235 0 0 0-.06.152c0 .061 0 .156.06.25.034.121.099.274.228.463l.547 1.018.068.155c.064.155.129.246.194.277.094.061.258 0 .486-.122m0-.804v.804c.026 0 .026 0 .064-.03.194-.095.258-.22.258-.31 0-.061-.064-.122-.129-.216-.034 0-.034 0-.068-.035v-.031zm0-2.163.481-.307a.22.22 0 0 1 .194 0 .55.55 0 0 1 .197.185l.774 1.329c0 .03.03.06.066.09.03.031.064.061.098.091.129.127.159.191.159.251.031.092-.098.213-.293.338-.223.125-.352.216-.451.216-.03 0-.098-.061-.129-.155l-.064-.121-.133-.247-.513.307c-.064.03-.128.061-.227.095-.034 0-.095.03-.159.03v-.835l.547-.28-.195-.334-.352.213zm0-3.081v.952l.58-.369.16.273-.74.434v.865l1.096-.676c.031.091.099.151.129.212.065.035.099.061.159.096-.03.026-.03.061-.03.091.03.034.065.095.099.156.03.06.03.091.03.121v.03c-.03.034-.03.034-.03.065 0 0 .03.027.065.094l.421.798c-.163.095-.263.219-.293.311a.417.417 0 0 0 .066.464c.064.151.129.218.227.246.129 0 .288-.061.482-.156l.129.19c.065.121.133.212.194.242.068.03.163.03.326-.061.129-.06.225-.155.288-.215.065-.095.099-.186.03-.278l-.872-1.575c-.031-.06-.031-.091-.061-.091 0-.034-.034-.034-.069-.064-.03-.03-.063-.061-.093-.061a.499.499 0 0 1-.096-.155c-.068-.091-.099-.152-.163-.213-.034-.065-.095-.096-.163-.126.163-.091.227-.185.227-.276a.966.966 0 0 0-.098-.372 1.491 1.491 0 0 0-.224-.308c-.064-.03-.13-.061-.163-.03l-.229-.433c.035-.06.069-.125.035-.181 0-.07-.065-.161-.129-.283-.129-.155-.224-.25-.323-.28-.03 0-.128.03-.257.095l-.13.091a3.81 3.81 0 0 0-.58.377m6.592-1.953-1.552.559c-.034 0-.034 0-.034.03l.293.896c0 .03 0 .03.033.06v.065c.061.06.061.122.061.152 0 .061-.094.121-.224.191-.163.056-.292.09-.421.121-.096.03-.163.03-.224 0-.034 0-.065-.031-.099-.065 0-.03 0-.056-.034-.126v-.307c0-.031 0-.061-.031-.124l-.159-.586a.362.362 0 0 1-.163-.156 1.294 1.294 0 0 1-.095-.246c-.068-.151-.038-.243.03-.306.065-.066.16-.097.324-.127l.162-.061 2.133-.739zm0 4.822v-.775a.434.434 0 0 1-.258-.091.831.831 0 0 1-.292-.373 1.088 1.088 0 0 1-.034-.553c.068-.221.159-.342.357-.403.063-.03.129-.03.227-.03v-.433c-.068 0-.098-.03-.164-.03-.063-.03-.094-.091-.128-.125-.035-.056-.095-.126-.133-.126 0 0-.061 0-.125.03h-.034a1.344 1.344 0 0 0-.839.896 1.522 1.522 0 0 0-.035.992c.198.496.426.8.714.926.228.095.452.125.744.095m0-2.658v.433c.061.03.16.061.224.121.129.121.224.281.292.494a.657.657 0 0 1 .03.432c-.03.187-.159.312-.352.373-.065.03-.133.03-.194.03v.775c.129-.031.254-.065.417-.125.457-.157.745-.434.904-.805.129-.369.164-.71.03-1.113-.091-.277-.22-.462-.349-.554-.128-.091-.357-.182-.683-.272-.03 0-.095 0-.125.026 0 0-.034.03-.065.064l-.068.061c-.03.03-.061.03-.061.06m1.708-2.778v-.713c-.03-.031-.16 0-.289.03l-1.419.528v.769l1.613-.584c.035-.03.065-.03.095-.03m0 2.034v-.956c-.06.031-.128.095-.128.156-.062.09-.032.276.033.528zm8.472-3.674v.341c0 .032-.068.062-.133.062h-.164l-3.551.311c-.065 0-.13 0-.161.031-.034.03-.068.09-.034.151a.14.14 0 0 0 .034.095c.031.03.062.03.129 0h.13l3.393-.307c.129.03.194.061.224.091.035.06.065.246.065.493v.091c-.03.035-.03.096-.03.126v.368c.03 0 .03 0 .03.03l.033.034v.027c.035.159.035.28 0 .341a.26.26 0 0 1-.128.127c.065.03.095.063.128.185 0 .061.035.246.065.553l.095 1.484c.034.062.065.122.129.156.065.031.163.061.292.091.129.031.228.061.293.091a.23.23 0 0 1 .158.217c0 .217 0 .342-.063.433-.031.064-.16.094-.323.094h-.194c-.03 0-.068.031-.098.061-.129.121-.194.217-.258.243a.645.645 0 0 1-.324.065c-.163.034-.292 0-.352-.126a.743.743 0 0 1-.068-.337l-.19-2.008-.034-.152v-.649c0-.155.064-.246.159-.308l-2.388.213c.353.246.612.493.775.744.258.307.418.745.452 1.203l.034.463c0 .061 0 .125.03.156 0 .03.031.061.064.122.065.06.065.155.065.185-.03.095-.129.216-.289.368-.129.16-.227.221-.326.251-.03.031-.095.031-.193 0h-.095c-.034-.03-.099-.03-.129 0l-1.553.122c-.193.03-.356.03-.451 0a.677.677 0 0 1-.327-.091c-.06-.031-.06-.095-.06-.186 0-.096.03-.218.06-.339.034-.125.068-.219.129-.28.068-.091.13-.091.198-.091a.3.3 0 0 0 .224.091c.095.03.193.03.262.03l1.259-.121c.062 0 .096-.031.096-.122.034-.064.034-.19 0-.372l-1.617.151c-.159.031-.255 0-.292-.03-.062-.03-.095-.151-.13-.338 0-.216 0-.371.035-.427 0-.04.065-.07.163-.04l.129-.03 1.518-.121a1.51 1.51 0 0 0-.323-.31c-.064-.062-.193-.123-.357-.213l-.095-.061c-.098-.064-.098-.16-.033-.282.033-.121.095-.242.193-.367l-.713.06a.59.59 0 0 1-.417-.094.591.591 0 0 1-.229-.337c-.03-.188 0-.309.068-.404.061-.064.191-.091.388-.125.03 0 .095 0 .129.034.03 0 .061 0 .099.027.03.034.06.034.094.034.065.03.095.03.194 0l2.778-.246c.099 0 .159 0 .159-.031.035-.031.035-.091.035-.216h-.065v-.03l-3.393.307c-.129 0-.257 0-.322-.061-.13-.031-.164-.156-.194-.282v-.243c.03-.033.064-.06.098-.06.031 0 .031-.031.031-.031l-.031-.219c0-.031-.034-.061-.034-.091 0 0-.034 0-.034-.03-.03-.031-.06-.031-.06-.061-.035-.064-.069-.125-.069-.251-.03-.122-.03-.213 0-.243.069-.125.228-.19.456-.22.03 0 .065 0 .095.03h.129c.064.035.095.035.133.035h.224l3.781-.338.127-.033c.1 0 .13 0 .165.033.03.03.063.122.098.303m-8.472 2.718v.956l.713 2.103v.06c0 .031.031.061.031.096 0 .122.035.186.068.213.062.064.19.064.354 0 .163-.027.292-.091.322-.152.098-.061.129-.187.068-.372-.068-.156-.098-.277-.167-.338 0-.031-.03-.061-.06-.095h-.031s-.038-.03-.038-.061l-.676-2.099a5.74 5.74 0 0 0-.197-.371c-.06-.031-.159-.031-.255 0-.063 0-.093.03-.132.06m0-1.791v.713a.351.351 0 0 0 .132-.095c.032-.06.032-.186 0-.338-.033-.155-.093-.25-.132-.28m12.927.158v-.994l-.193-.026-.193-.03c-.198-.065-.324-.095-.418-.065-.099 0-.198.121-.228.28 0 .123-.033.213 0 .309 0 .095.03.186.061.276l-.129.71c-.031.065-.031.095-.061.156 0 0-.03.031-.064.061 0 .03-.035.03-.035.061 0 .03-.03.06-.03.094l-.034.061c0 .064-.03.125-.03.155 0 .061.03.091.064.152.03.03.129.061.225.127.132.03.292.063.519.093.16.028.254 0 .319-.03.034-.063.034-.129.034-.221v-.151zm0 4.29v-.957l-.546-.121c-.038 0-.038 0-.038-.034-.03-.03-.03-.056-.03-.096l.068-.368.546.095v-.895l-.322-.035s0-.026-.034-.026v-.03a1.065 1.065 0 0 0-.095-.095 2.501 2.501 0 0 0-.259-.095l-.162-.03c-.099-.03-.16-.03-.228-.03-.061 0-.125.03-.19.091-.034.064-.098.159-.129.28-.034.121-.098.339-.133.585l-.292 1.639c0 .031 0 .061-.031.092 0 .03 0 .061-.03.121-.03.156-.064.311 0 .371.061.122.259.218.581.282.259.061.421.027.486-.064.034-.061.034-.157 0-.308v-.125l.095-.494c.068.031.129.095.197.125.061.031.16.061.254.061zm9.501 1.358-2.13-.986c-.038 0-.068 0-.098.03 0 .03-.038.06-.038.091l-.512 1.238c-.034 0-.034 0-.034.03h-.032l-.03.03h.03l1.549.71c.099.065.129.125.163.248.035.09.035.185-.034.306-.03.095-.091.186-.189.216-.099.061-.228.061-.357 0l-1.81-.835a.746.746 0 0 1-.392-.432.757.757 0 0 1 .069-.524c0-.061.031-.091.098-.152 0 0 .062-.031.095-.061.035 0 .065-.034.065-.034a.03.03 0 0 0 .034-.03l.55-1.264a.228.228 0 0 1 0-.221c0-.091.061-.181.191-.303.068-.125.162-.189.292-.189.129-.03.254.033.39.189l2.452 1.143.456-1.052c.03-.06.06-.091.06-.152.031-.033.031-.064.068-.128.062-.061.096-.122.096-.183.034-.06.034-.121.034-.185l.19-.464c.098-.216.197-.367.292-.401.064 0 .163.034.323.094l.099.061c.129.06.227.183.227.307 0 .125-.03.337-.163.619L40.969-6.98c0 .027 0 .061.038.061.03.033.095.033.129.033.06 0 .129-.033.159-.067a.226.226 0 0 0 .129-.121l1.291-3.026c.068-.126.098-.186.129-.186 0-.03.034-.03.068 0h.03c.031 0 .069-.03.069-.091.126-.311.223-.493.318-.618.13-.217.293-.278.422-.217l.095.061c.163.06.258.13.258.186.038.065-.031.216-.16.466l-1.746 4.104c.034.064.065.125.034.216-.034.121-.064.277-.163.524-.129.281-.257.432-.356.463-.095.03-.228-.031-.483-.121l-.094-.061a1.11 1.11 0 0 1-.099-.095v-.126c0-.06 0-.091-.03-.122 0-.03 0-.06-.038-.06-.091-.031-.159-.031-.22-.031-.038-.03-.099 0-.198 0h-.228a.84.84 0 0 1-.352-.094c-.194-.121-.292-.186-.324-.246 0-.061 0-.183.1-.342l.03-.122zm-6.043 0c-.034.218-.094.343-.258.373-.094 0-.227-.03-.421-.095-.194-.03-.319-.096-.357-.186-.03-.031 0-.122.038-.274.03-.034.03-.067.03-.094 0-.031.031-.065.031-.095l.486-2.9c.064-.281.163-.498.258-.554.064-.095.193-.095.356-.065.16.031.224.065.259.156.03.06.03.243 0 .494l-.456 2.562v.064c0 .027 0 .027.034.027.034.034.034.095.034.155.031.091 0 .25-.034.432m-3.458-3.734v.895l.615.122-.098.493-.517-.091v.957l.358.061-.066.497-.033.186c-.064.091-.03.182 0 .213.064.06.228.125.52.185.288.034.482.034.546-.06.035-.065.065-.186.035-.372-.035-.065-.035-.126-.035-.152v-.156l.357-2.071c0-.123 0-.244-.065-.304-.03-.095-.098-.13-.159-.16zm0-2.908v.994-.064l.031-.03h.034l3.88.71c.163.031.253 0 .322 0 .064-.061.129-.156.159-.342.068-.216.068-.338.034-.368-.034-.064-.129-.095-.322-.125z" style="fill:#1c2e67;fill-opacity:1;fill-rule:nonzero;stroke:none" transform="matrix(2.93744 0 0 -2.93732 -3.446 229.545)"/><path d="M0 0v-.527c-.03.03-.063.03-.095.06-.064.066-.094.126-.064.16.03.121.064.213.159.307m0 4.536h-.03l-.065-.06-.581-.464c-.064.157-.129.217-.197.217-.065.031-.19-.06-.387-.217-.194-.152-.288-.242-.288-.371-.031-.061 0-.121.064-.213l.03-.061-.709-.589c-.159-.093-.258-.215-.258-.306 0-.095.065-.251.228-.464.09-.095.159-.19.223-.19.065-.03.163-.03.258.035 0-.095.066-.186.133-.277.031-.092.125-.221.259-.373.223-.31.546-.462 1.002-.462.09 0 .189.03.318.03v.926h-.095c-.258.031-.421.121-.55.281-.129.182-.193.338-.193.524a.775.775 0 0 0 .353.554.677.677 0 0 0 .485.186Zm1.264-3.424V.027L.938-.216a1.386 1.386 0 0 1-.194-.221.843.843 0 0 1-.129-.243C.585-.74.52-.74.422-.74c-.065 0-.163.06-.258.092-.065.06-.13.09-.164.121v.554c.068.095.164.22.292.311zm0 4.878V4.877l-.228.312c-.098.122-.163.212-.163.304-.03.128.034.25.163.341a.76.76 0 0 0 .228.156M.52 4.415c-.098.155-.193.246-.292.246-.064 0-.129-.03-.228-.125V3.242h.129a.641.641 0 0 0 .456-.277c.129-.187.189-.372.228-.558 0-.217-.069-.399-.228-.524A.678.678 0 0 0 0 1.697V.771c.357.061.744.247 1.101.554.098.061.129.126.129.187 0 .064-.031.125-.129.216-.031 0-.031.03-.031.03 0 .03 0 .03.031.03.065.03.098.03.163.065v1.419c-.034.065-.098.125-.132.186a2.395 2.395 0 0 1-.259.277.596.596 0 0 1-.258.156c.065.09.099.151.099.247a2.37 2.37 0 0 1-.194.277m.744.462V5.99s.03.034.065.034h.357c.03 0 .06 0 .094.027.031 0 .065.034.095.064l.03.061c.167.122.263.155.327.155.099 0 .194-.095.323-.28.064-.061.064-.156.034-.278 0-.061-.068-.152-.163-.28-.065-.092-.13-.182-.13-.243a.259.259 0 0 1 0-.221l.908-1.169c.129-.155.224-.28.254-.34.064-.092.099-.153.099-.217.034-.031 0-.091-.035-.121a.87.87 0 0 0-.189-.157l-.035-.06c-.193-.125-.322-.155-.485-.062-.095.062-.258.279-.517.586l-.064.091Zm0-4.85v1.085l1.712 1.39c.03.03.061.061.098.091l.062.061c.098.094.162.156.227.186.065.063.194.063.357.063.189 0 .352-.03.418-.093a.464.464 0 0 0 .098-.187c.031-.06.031-.121.061-.151 0-.065.068-.156.099-.221l.323-.368v-.095c0-.03 0-.06.033-.091 0-.03.03-.091.068-.121l.092-.125c.034 0 .068-.035.068-.065.031-.031.061-.061.129-.122.031-.061.031-.121 0-.216A2.706 2.706 0 0 0 4.82.741C4.653.619 4.593.586 4.524.586c-.094 0-.193.063-.318.216l-.649.865c-.065.061-.099.091-.129.091-.034 0-.095-.03-.163-.091Zm5.59 7.628c-.197.158-.326.218-.424.218-.129.034-.254-.096-.417-.278a3.08 3.08 0 0 1-.129-.246.198.198 0 0 1 0-.186c.03-.06.098-.152.162-.221.096-.087.225-.182.422-.334l-.422-.557c-.132-.217-.228-.4-.228-.494-.034-.156.035-.277.164-.402.194-.126.353-.186.448-.156.068 0 .167.096.227.221l.035.03c.034.03.034.061.064.121 0 .03.031.061.031.122 0 .064.033.158.067.189v.061zm0 1.174c-.098-.156-.128-.277-.162-.339 0-.06.064-.121.162-.181Zm0 2.934v-1.42l-.326.278c-.06.033-.129.033-.159.033-.034 0-.068-.06-.098-.125l-1.712-2.47a.493.493 0 0 1-.129-.213.895.895 0 0 1-.065-.282c-.034-.06-.068-.09-.159-.125-.099 0-.197 0-.297.035-.129.03-.223.06-.288.09-.099.061-.129.091-.129.153.03.129.03.251.099.372.03.125.095.25.189.371l1.974 2.778c0 .031.03.062.03.122.034 0 .069.031.069.096.061.125.129.186.16.246.098.061.193.122.356.155.159.031.288.061.387.031.031-.031.064-.064.098-.125m-5.59-9.91c.065.03.126.06.194.09.095.095.159.156.159.278.03.186 0 .402-.098.619-.061.125-.129.276-.255.432Zm5.59 8.49.388-.246c.129-.095.225-.156.288-.125.031 0 .099.06.195.189l.033.061c.13.151.16.277.16.339 0 .033 0 .093-.065.185l-.159.091.064.125-.713.555c-.03.034-.061.094-.095.125-.034.03-.034.06-.064.09 0 .031 0 .031-.032.031zm0-4.6v1.912a.538.538 0 0 0 .221-.151l.296.434-.517.371v.52c.032.034.062.065.096.095.125.213.224.31.353.371.098.031.194 0 .292-.061.227-.158.323-.25.293-.219.03-.031.064 0 .098.031l.775 1.115c.098.182.258.277.417.242.068 0 .197-.06.326-.181l.03-.031.099-.064.096-.095v-.091c0-.03-.035-.091-.065-.152-.031-.06-.13-.185-.259-.372v-.03c-.064.06-.098.06-.129.06l-.03-.03c0-.03-.034-.061-.034-.061 0-.03.034-.03.034-.061.03 0 .03-.033.03-.033.031-.028.031-.028 0-.092L6.984 5.895a.634.634 0 0 1-.13-.152" style="fill:#1c2e67;fill-opacity:1;fill-rule:nonzero;stroke:none" transform="matrix(2.93744 0 0 -2.93732 131.613 250.05)"/><path d="M0 0a1.09 1.09 0 0 0 1.098-1.078c0-.585-.483-1.051-1.098-1.051-.615 0-1.131.466-1.131 1.051C-1.131-.494-.615 0 0 0" style="fill:#1c2e67;fill-opacity:1;fill-rule:nonzero;stroke:none" transform="matrix(2.93744 0 0 -2.93732 -14.55 201.985)"/><path d="M0 0c.615 0 1.128-.494 1.128-1.078 0-.585-.513-1.051-1.128-1.051-.614 0-1.131.466-1.131 1.051C-1.131-.494-.614 0 0 0" style="fill:#1c2e67;fill-opacity:1;fill-rule:nonzero;stroke:none" transform="matrix(2.93744 0 0 -2.93732 161.994 201.985)"/><path d="M0 0h-2.229l.031 1.236c.03.339.03.585.03.741.034.247.034.428.068.619l.161.182c.098.125.163.216.163.281 0 .09-.095.151-.324.212l-1.002.312-.064-.092c.064-.125.125-.527.16-1.177a13.74 13.74 0 0 0 0-2.314h-1.583c-.289.03-.516.03-.676.061-.227.03-.455.094-.615.155l-.068-.091.259-.468.068.03c.129.036.224.036.322.036.129.03.292.03.451.03h1.807c0-.217-.03-.43-.03-.68-.031-.216-.065-.432-.095-.649a6.562 6.562 0 0 0-1.066-2.623A5.956 5.956 0 0 0-6.107-5.99l.03-.091c1.006.334 1.81.895 2.425 1.663.711.896 1.166 2.102 1.325 3.583.293-1.018.581-1.853.873-2.468A8.115 8.115 0 0 1 0-5.466c.224-.246.387-.403.485-.433.065-.031.129 0 .194.06l.03.031c.13.126.323.282.551.433.193.095.352.189.551.28v.122c-.487.126-.972.403-1.458.805-.449.338-.87.773-1.26 1.268-.353.462-.646.957-.904 1.419-.223.494-.323.895-.357 1.234h3.687c.063 0 .131.034.131.095.031.06 0 .122-.068.182L.648.896H.52Z" style="fill:#1c2e67;fill-opacity:1;fill-rule:nonzero;stroke:none" transform="matrix(2.93744 0 0 -2.93732 80.363 191.639)"/><path d="M0 0v-1.666l-.938-.217L0-2.285v-1.761l-3.234 1.454.163 1.791zm0 5.344V3.462l-2.232.676.581 1.7zm0-18.31a2.81 2.81 0 0 0-1.651.525c-.71.432-1.127 1.078-1.257 1.913-.099.493-.069.957.095 1.419.129.433.391.835.709 1.147.199.151.358.273.517.337.163.095.387.155.649.216l.292-1.731a.945.945 0 0 1-.615-.401c-.129-.213-.163-.434-.129-.71.031-.152.095-.308.16-.398a.897.897 0 0 1 .323-.282c.193-.091.421-.182.678-.213H0ZM0 3.462v1.882l2.778-.865.872 2.532 1.549-.463L3.75 2.285Zm0-7.508v1.761l.839-.341.128 1.146L0-1.666V0l3.359.865-.164-1.821-.903-.213-.189-1.981.868-.368-.162-1.792Zm6.46 16.799V9.572L.318 11.151l1.006 1.572 4.133-1.298-2.972 3.058 1.036 1.577zm0 6.643v-2.471l-1.325 1.172 1.294 1.329zM.614-7.101c.775.035 1.42-.186 1.936-.588.551-.428.873-1.017 1.002-1.757.13-.866-.065-1.637-.581-2.284-.52-.65-1.23-1.053-2.198-1.205-.257-.031-.515-.061-.773-.031v1.822c.192-.03.356 0 .546.031.52.06.907.243 1.165.494.258.246.353.554.293.926-.035.277-.163.493-.358.614-.193.126-.42.19-.743.19zM6.46 9.572v3.181l1.328-1.511-1.131-1.7zm3.074 7.075L6.46 19.396v-2.471l3.074-2.718zm0 5.587v-2.9l-1.488 1.758 1.453 1.142zm28.694.926-1.814.403 1.393 5.837 1.84-.402zm-3.332.714-1.906.03-1.837 3.147-.068-3.086-1.875.03.099 5.989 1.905-.03 1.875-3.181.03 3.151 1.909-.03zm-7.72 2.315c.064-.372.129-.683.095-.926 0-.25-.031-.493-.164-.713a1.87 1.87 0 0 0-.774-.927c-.322-.246-.805-.402-1.39-.554-.644-.122-1.195-.152-1.677-.06a2.435 2.435 0 0 0-1.165.675c-.129.16-.224.341-.323.528-.098.185-.164.429-.227.74l-.835 3.491 1.806.403.874-3.553c.06-.311.223-.554.417-.683.197-.122.455-.152.774-.091.326.061.554.22.683.433.129.186.16.463.061.774l-.839 3.549 1.811.403zM9.534 19.334l2.451-2.907 1.458 1.146-2.038 2.406 3.523-1.263 1.483 1.142-3.939 4.661-1.454-1.142 2.038-2.41-3.522 1.267zm0-5.127v2.44l1.484-1.329-1.294-1.297zm37.742 6.296v-1.232l-.648.462zm0 5.747v-.957l-3.848-3.954-1.906.865.904 6.209 1.746-.774-.809-4.076 2.783 3.18zm0-.957v.957l.642-.281zm6.008-8.831v-2.255l-.258-.186-1.134 1.419zm0 5.867v-2.008l-2.265 1.761-.483-.618 2.263-1.761-.873-1.021-2.259 1.76-.554-.614 2.748-2.103-1.032-1.233-3.553 2.779v1.232l3.326 3.894zm0-2.008v2.008l1.42-1.112-1.032-1.207zm3.488-1.358v-2.255l-.933-.68.645-.8c.099-.125.16-.22.19-.25.034-.031.068-.062.098-.062v-2.437c-.159-.25-.452-.527-.842-.804-.19-.155-.319-.28-.387-.342a.723.723 0 0 1-.189-.276l-1.163 1.483c.061.092.129.183.191.213.03.064.162.156.387.311.386.342.615.584.683.835.061.212 0 .463-.228.771l-.486.588-1.454-1.051v2.255zm1.39-8.707V5.959c-.129.129-.259.251-.388.402-.227.22-.417.524-.584.896-.22.494-.353.927-.353 1.359-.034.433.064.805.262 1.177.091.182.193.338.353.463.129.121.292.212.486.307l.095.031zm0 7.196v-4.11c-.061 0-.16-.03-.259-.03-.322 0-.644.063-.966.246.093-.342.093-.649-.066-.926a.796.796 0 0 0-.099-.153v2.437c0-.03.031-.03.031-.03.098-.061.227-.061.327-.061.099.03.227.061.322.153a.54.54 0 0 1 .224.28.42.42 0 0 1 0 .304c0 .034-.03.098-.061.159-.034.03-.098.122-.163.182l-.649.835-.031-.03v2.255l.129.091zm7.014-30.819-3.587 2.748-2.262.338.288 1.791 2.262-.338 4.301 1.541-.324-1.974-2.553-.714 2.198-1.419zm-.584 8.892-.13 1.727-4.653-.402-.16 1.792 4.654.402-.159 1.7 1.613.152.486-5.215zM59.164 1.7l-.421 1.762L64.85 4.79l.421-1.73Zm-1.002 11.642v4.11l.551-.714a3.59 3.59 0 0 0 .519-.774c.125-.243.22-.463.258-.646.061-.34.031-.648-.068-.925a1.918 1.918 0 0 0-.615-.745 1.808 1.808 0 0 0-.645-.306m0-7.383v4.297l.645-1.329c-.224-.156-.353-.311-.417-.463-.031-.186 0-.402.129-.679.098-.217.224-.402.386-.498a.42.42 0 0 1 .422-.06c.065.03.125.09.163.156a.934.934 0 0 1 .031.306c0 .062 0 .126-.031.251 0 .091-.038.304-.098.615a8.183 8.183 0 0 0-.099 1.048c0 .281 0 .493.034.683.065.247.194.463.353.645.167.19.39.341.649.464.258.094.516.155.774.155.293 0 .516-.061.774-.186.263-.122.486-.307.714-.554.194-.247.388-.554.581-.956.197-.463.326-.866.356-1.238 0-.372-.068-.71-.227-1.017a2.12 2.12 0 0 0-.322-.403c-.164-.121-.324-.246-.582-.372l-.744 1.61c.16.121.259.277.259.402.03.152 0 .308-.099.523-.061.183-.16.309-.289.372-.128.062-.227.092-.356.028-.099-.028-.129-.091-.129-.217 0-.091.03-.368.099-.831a75.22 75.22 0 0 0 .193-1.264c0-.251 0-.497-.064-.714a1.678 1.678 0 0 0-.357-.645 1.534 1.534 0 0 0-.645-.436 1.721 1.721 0 0 0-.873-.156c-.324 0-.616.095-.904.25-.098.062-.227.152-.326.213" style="fill:#1c2e67;fill-opacity:1;fill-rule:nonzero;stroke:none" transform="matrix(2.93744 0 0 -2.93732 -18.92 155.275)"/><path d="M0 0c-.322-.243-.679-.372-1.035-.342-.289.034-.517.159-.646.342-.159.187-.227.433-.227.774 0 .372.03.801.163 1.204.095.432.258.831.451 1.233.13.25.292.463.422.652.125.183.292.339.481.46.13.125.263.216.391.246v-.644a2.425 2.425 0 0 1-.292-.372c-.063-.156-.129-.282-.193-.433-.065-.125-.163-.311-.262-.555H0v-.432h-.906c-.031-.155-.096-.281-.129-.372 0-.091-.03-.216-.065-.342-.03-.151-.064-.307-.064-.463-.031-.151-.031-.307-.031-.402 0-.152.031-.242.065-.337.065-.092.128-.126.224-.126.129 0 .258.096.421.251.163.151.292.368.418.614 0 .061.034.092.067.122zm4.685 2.285c0-.061 0-.092-.065-.122-.065-.06-.129-.06-.228-.06h-.16c-.064 0-.128.03-.227.06-.065.03-.129.03-.193.061h-.259c-.224 0-.421-.031-.58-.121-.16-.095-.228-.22-.228-.342V1.7s0-.03.03-.095c.133.035.228.065.296.065.061.03.159.03.22.03.197 0 .357-.03.489-.125.13-.06.195-.156.195-.277 0-.091-.065-.152-.163-.22C3.717.991 3.553.956 3.39.956c-.129 0-.258.035-.353.061-.095 0-.224.061-.391.129a3.095 3.095 0 0 0-.19-.19c-.033-.06-.033-.121-.033-.151 0-.156.063-.282.193-.372.159-.091.326-.121.546-.121.099 0 .228 0 .326.03.1.03.199.06.358.121.03 0 .094 0 .159.03h.133c.03 0 .094 0 .125-.03.068-.03.068-.091.068-.121 0-.062-.034-.155-.129-.251a1.183 1.183 0 0 0-.39-.243c-.125-.061-.259-.091-.387-.125a2.034 2.034 0 0 0-.452-.065c-.388 0-.714.099-.938.251-.228.152-.322.403-.322.68 0 .185.03.337.159.489.099.129.262.25.485.371-.03.096-.098.156-.098.221-.03.06-.03.121-.03.213 0 .25.098.493.356.682.259.183.577.274.968.274a1.85 1.85 0 0 0 .839-.213c.099-.061.163-.121.228-.186.065-.064.065-.125.065-.155m1.969.554v-.493c-.03-.031-.064-.061-.095-.122-.163-.121-.292-.341-.421-.619-.065-.186-.129-.368-.159-.557C5.944.835 5.91.68 5.91.523c0-.151.034-.273.129-.368A.35.35 0 0 1 6.335 0c.13 0 .224.03.319.091v-.399c-.064 0-.159-.034-.258-.034-.387.034-.675.129-.903.342a1.13 1.13 0 0 0-.357.865c0 .281.068.554.197.865.129.278.319.524.517.741.159.125.323.217.485.277a.638.638 0 0 0 .319.091m-5.23.652c0-.341-.034-.682-.133-1.081a5.328 5.328 0 0 0-.383-1.142C.68.71.388.312.03.03.03 0 0 0 0 0v1.078c.03.129.096.25.126.371.068.191.163.403.228.684H0v.432h.482c.035.123.069.213.069.274.03.064.06.156.06.25.035.061.035.152.035.217 0 .091.034.155.034.247v.181c.03.066.03.129.03.16 0 .122-.03.212-.064.273a.178.178 0 0 1-.164.096c-.128 0-.227-.061-.356-.187C.065 4.016.03 3.985 0 3.925v.644a.92.92 0 0 0 .422.092.907.907 0 0 0 .388-.092c.125-.03.223-.121.322-.212.095-.094.193-.22.223-.341.035-.153.069-.342.069-.525M11.694 0c0-.061-.03-.152-.094-.183a.387.387 0 0 0-.254-.094c-.228 0-.426.125-.555.338-.159.219-.228.528-.228.895 0 .19.035.372.069.559.03.185.095.398.193.709-.133-.186-.227-.311-.262-.372-.06-.091-.159-.212-.257-.403a6.275 6.275 0 0 0-.418-.584C9.823.71 9.725.589 9.694.493a11.563 11.563 0 0 1-.261-.432c-.031-.061-.096-.122-.16-.183-.03-.061-.098-.091-.16-.121-.068-.034-.129-.034-.227-.034-.065 0-.129.034-.194.094-.064.061-.098.153-.098.274 0 .126.034.221.098.342.035.09.163.277.353.523l.517.649.584.649c.099.122.228.251.327.372.06.062.189.183.352.342v.303c0 .065-.034.096-.034.16 0 .06-.03.122-.064.182-.035.031-.065.091-.129.091l-.259.126c-.094.064-.193.125-.224.186a.457.457 0 0 0-.098.277c0 .125.03.216.129.276.065.061.16.092.327.092.09 0 .189 0 .288-.061.129-.031.189-.091.258-.152.099-.091.129-.216.16-.342.034-.121.034-.276.034-.523v-.744c0-.274 0-.524.034-.767 0-.281 0-.527.03-.744 0-.182.031-.337.069-.432.026-.122.091-.247.159-.373.06-.121.095-.211.159-.273.03-.095.03-.189.03-.25m-5.04-.308v.399c.031.034.069.034.069.064.129.095.257.217.352.368.095.187.195.373.262.623.061.243.061.494.061.767 0 .159-.03.311-.098.402-.062.095-.16.125-.289.125a.745.745 0 0 1-.357-.094v.493c.099.034.163.034.258.034.163 0 .326-.034.486-.095a.782.782 0 0 0 .387-.213.868.868 0 0 0 .292-.372c.065-.155.096-.341.096-.523 0-.312-.062-.622-.191-.926A2.064 2.064 0 0 0 7.433.03a1.156 1.156 0 0 0-.453-.273c-.098-.034-.197-.034-.326-.065m6.95 3.147v-.493a.357.357 0 0 1-.095-.122c-.163-.121-.296-.341-.425-.619-.061-.186-.125-.368-.159-.557-.031-.213-.066-.368-.066-.525 0-.151.035-.273.1-.368.095-.094.193-.155.322-.155s.228.03.323.091v-.399c-.065 0-.164-.034-.258-.034-.387.034-.68.129-.908.342a1.145 1.145 0 0 0-.353.865c0 .281.065.554.194.865.129.278.323.524.516.741.164.125.322.217.486.277a.66.66 0 0 0 .323.091M21.422.402c0-.03-.033-.09-.064-.152a.536.536 0 0 0-.164-.22 1.147 1.147 0 0 0-.421-.273.683.683 0 0 0-.418-.129.92.92 0 0 0-.485.25c-.125.122-.159.277-.159.464 0 .212.034.402.064.649.065.246.163.524.292.861.129.341.225.558.288.713.1.153.199.244.292.308.066.03.126.061.195.095.064 0 .159.027.227.027.065 0 .125-.027.19-.092.068-.064.068-.125.068-.215 0-.092 0-.183-.068-.278a1.035 1.035 0 0 0-.159-.338l-.258-.372-.422-.652c-.095-.152-.158-.274-.193-.338-.031-.091-.065-.156-.065-.217a.23.23 0 0 1 .065-.151c.065-.062.098-.062.16-.062.098 0 .167 0 .26.062.066.03.126.091.195.151.064.061.129.126.159.156.034 0 .068.031.133.031.06 0 .125-.031.193-.091.062-.035.095-.096.095-.187m-7.818-.71v.399c.03.034.064.034.064.064.129.095.259.217.357.368.099.187.19.373.258.623.03.243.061.494.061.767 0 .159-.031.311-.091.402-.068.095-.167.125-.296.125a.73.73 0 0 1-.353-.094v.493a.606.606 0 0 0 .224.034c.163 0 .357-.034.516-.095a.736.736 0 0 0 .387-.213.846.846 0 0 0 .292-.372c.065-.155.099-.341.099-.523 0-.312-.064-.622-.193-.926a2.045 2.045 0 0 0-.551-.714 1.05 1.05 0 0 0-.451-.273c-.099-.034-.224-.034-.323-.065m10.145 3.147v-.554a1.258 1.258 0 0 1-.387-.494c-.13-.186-.194-.402-.258-.584a1.547 1.547 0 0 1-.099-.497c0-.156.03-.247.099-.338a.42.42 0 0 1 .289-.122c.128 0 .257.03.356.092v-.525c-.03 0-.064-.03-.099-.03-.159-.064-.352-.095-.546-.129-.289.034-.486.099-.645.251a.982.982 0 0 0-.259.68c0 .276.062.588.191.891.163.311.326.592.584.835.227.22.418.341.615.433.03.03.095.061.159.091m0-3.022v.525h.034c.125.06.254.181.354.338h.033c.13.466.194.709.194.739.031.156.069.342.099.524.03.22.03.342-.03.467a.345.345 0 0 1-.263.095c-.133 0-.262-.065-.421-.19v-.03.554c.129.034.288.064.421.064.225 0 .422-.064.551-.215.129-.123.189-.312.189-.555 0-.095 0-.155-.03-.25 0-.062-.03-.183-.061-.368.091.155.125.276.19.398.031.095.068.25.098.433.032.219.1.342.161.432.064.095.163.156.326.156.06 0 .159-.031.189-.125.069-.061.069-.153.069-.274a1.44 1.44 0 0 0-.099-.463c-.099-.189-.193-.402-.357-.623-.098-.121-.189-.242-.289-.371a4.88 4.88 0 0 0-.386-.429c-.034-.186 0-.277.06-.337.038-.032.129-.032.228 0 .13.06.198.06.228.03.031-.062.031-.125 0-.251a.434.434 0 0 0-.197-.274.483.483 0 0 0-.353-.125c-.129 0-.224.031-.292.095a.586.586 0 0 0-.191.368c-.167-.155-.326-.246-.455-.338" style="fill:#1c2e67;fill-opacity:1;fill-rule:nonzero;stroke:none" transform="matrix(2.93744 0 0 -2.93732 39.264 166.155)"/><path d="M0 0c.224 0 .614.061.906-.217.289-.247.517-.648.448-1.423-.06-.736-.448-1.42.327.095.095.155.257.618.387.831.129.25.129.342.194.402.034.065.098.19.133.22.06.062.128.092.189.122a.467.467 0 0 0 .194.061c.098 0 .162-.061.224-.121a.336.336 0 0 0 .099-.251.583.583 0 0 0-.099-.338c-.092-.216-.224-.368-.384-.649l-.614-.804-.422-.801C1.13-3.705 1.035-5.621.224-5.405c-.998.247.098 2.102.227 2.315.357.714.391.986.391 1.237.095.676-.292.957-.649.835-.486-.125-.967-.311-1.101.153C-1.098-.217-.521 0 0 0" style="fill:#1c2e67;fill-opacity:1;fill-rule:nonzero;stroke:none" transform="matrix(2.93744 0 0 -2.93732 87.767 155.72)"/></g></svg>