<svg xmlns="http://www.w3.org/2000/svg" viewBox="0 0 140.61 140.569"><path d="m74.5 138.484-3.876-8.884-3.9 8.917A68.312 68.312 0 0 1 12.118 34.516l9.725 1.806-5.257-8.2a68.276 68.276 0 0 1 107.5.1l-5.038 8.309 9.5-1.9A68.318 68.318 0 0 1 74.5 138.484Z" style="fill:none;stroke:#fff;stroke-width:.5442px"/><path d="m129.567 32.985-1.826.343-5.628 1.072 3-4.868.97-1.559a70.018 70.018 0 0 0-111.469-.133l.989 1.54 3.128 4.868-5.79-1.065h.01l-1.835-.342A70.052 70.052 0 0 0 67.667 140.29l.722-1.7 2.273-5.257 2.263 5.23.722 1.691a70.03 70.03 0 0 0 55.92-107.267Z" style="fill:#fff;stroke:#231815;stroke-width:.5442px"/><path d="m74.693 138.826-3.879-8.908-3.914 8.946A68.514 68.514 0 0 1 12.108 34.535l9.745 1.806-5.253-8.233a68.52 68.52 0 0 1 107.838.095l-5.049 8.357 9.536-1.91a68.533 68.533 0 0 1-54.232 104.176Z" style="fill:#006939;stroke:#231815;stroke-width:.5442px"/><path d="M69.977 22.728A47.573 47.573 0 1 0 117.549 70.3a47.568 47.568 0 0 0-47.572-47.572Z" style="fill:#fff;stroke:#231815;stroke-width:.5442px"/><path d="M103.27 67.639V42.274c-6.1 4.183-17.626 3.669-17.626 3.669-9.126.095-14.6-3.784-15.658-4.591v-.029c-.009 0-.009 0-.009.019a.019.019 0 0 0-.019-.019v.029c-1.046.807-6.522 4.686-15.667 4.591 0 0-11.5.514-17.616-3.669v25.365s-1.4 31.9 33.283 44.074h.028c34.682-12.17 33.284-44.074 33.284-44.074Z" style="fill:#bdbebe;stroke:#231815;stroke-width:.5442px"/><path d="M73.647 70.861V43.49a20.387 20.387 0 0 1-3.661-2.138v-.029c-.009 0-.009 0-.009.019a.019.019 0 0 0-.019-.019v.029a20.164 20.164 0 0 1-3.67 2.138v27.371Z" style="fill:#c7000b;stroke:#000;stroke-width:.5442px;fill-rule:evenodd"/><path d="M66.288 70.861h7.358v7.453h-7.358z" style="fill:#c7000b;stroke:#000;stroke-width:.5442px"/><path d="M66.288 70.861h-29.5a45.658 45.658 0 0 0 1.255 7.454h28.245ZM73.647 78.315H101.9a46.548 46.548 0 0 0 1.255-7.454H73.647ZM66.288 78.315v31.953c1.179.513 2.4.988 3.67 1.445h.028a56.974 56.974 0 0 0 3.661-1.445V78.315Z" style="fill:#c7000b;stroke:#000;stroke-width:.5442px;fill-rule:evenodd"/><path d="M69.977 117.721A47.421 47.421 0 1 1 117.4 70.3a47.413 47.413 0 0 1-47.423 47.421Z" style="fill:none"/><path d="M51.629 82.983s2.852-5.134 4.334-6.18 2.225-2.4 5.544-3.014 6.455 1.55 6.882 1.93 1.664.01 1.664.01 1.027.38 1.531.076a10.307 10.307 0 0 1 5.2-2.1c2.634-.113 7.6 2.738 8.642 3.166 1.055.428 3.223 5.447 3.223 5.447l2.528 5.249a13.378 13.378 0 0 1-1.939-.124 7.374 7.374 0 0 1-4.192-1.673c-1.55-1.4-5.714-3.622-8.062-3.7C74.635 81.975 72 84.693 72 84.693l-3.755-.018s-3.289-3.118-5.191-3.024-5.466 2.4-6.731 3.357a21.9 21.9 0 0 1-3.955 2.433 10.786 10.786 0 0 1-3.251.409Z" style="fill:#999;stroke:#000;stroke-linejoin:round;stroke-width:.5442px"/><path d="m49.499 63.931 2.548-4.326-.418 23.378-2.548 4.734.418-23.786zM88.049 59.614l.6 22.702 2.528 5.192-.361-23.33-2.767-4.564z" style="fill:#999;stroke:#000;stroke-linejoin:round;stroke-width:.5442px"/><path d="M70.053 58.017a15.186 15.186 0 0 1 5-2.937 7.469 7.469 0 0 1 4.259-.19 8.9 8.9 0 0 1 3.8 1.3 45.935 45.935 0 0 1 3.8 2.8l1.017.627.713 22.7a12.468 12.468 0 0 1-3.223-.769c-.637-.447-2.88-1.407-4.44-2.291a7.033 7.033 0 0 0-4.2-.875 9.052 9.052 0 0 0-4.135 1.331 20.912 20.912 0 0 1-2.6 1.369ZM69.977 58.017a15.039 15.039 0 0 0-5.01-2.937 7.468 7.468 0 0 0-4.259-.19 8.891 8.891 0 0 0-3.8 1.3 47.089 47.089 0 0 0-3.793 2.8l-1.065.618-.418 23.378a3.1 3.1 0 0 0 1.483-.029 11.25 11.25 0 0 0 2.414-1.188 31.512 31.512 0 0 1 3.518-2.51c1.578-.894 3.489-.761 5-.742a5.8 5.8 0 0 1 3.327 1.2 22.285 22.285 0 0 0 2.605 1.369Z" style="fill:#fff;stroke:#000;stroke-linejoin:round;stroke-width:.5442px"/><path d="M103.27 67.639V42.274c-6.1 4.183-17.626 3.669-17.626 3.669-9.126.095-14.6-3.784-15.658-4.591v-.029c-.009 0-.009 0-.009.019a.019.019 0 0 0-.019-.019v.029c-1.046.807-6.522 4.686-15.667 4.591 0 0-11.5.514-17.616-3.669v25.365s-1.4 31.9 33.283 44.074h.028c34.682-12.17 33.284-44.074 33.284-44.074Z" style="fill:none;stroke:#231815;stroke-width:.5442px"/><path d="m8.486 88.773 12.045-4.869.751 1.873-12.035 4.868-.761-1.872z" style="fill:#fff"/><path d="m19.476 85.568 1.483-.608 1.987 4.905-1.502.609-1.968-4.906zM14.095 87.261l1.493-.609 1.968 4.906-1.493.589-1.968-4.886zM8.467 88.753l1.502-.608 2.434 6.046-1.493.581-2.443-6.019zM5.643 66.811l12.996-.2.038 2.006-13.014.191-.02-1.997z" style="fill:#fff"/><path d="m17.242 67.429 1.397-.009.067 3.479-1.416.019-.048-3.489zM11.509 68.095l1.417-.029.037 2.909-1.425.039-.029-2.919z" style="fill:#fff"/><path d="m15.778 74.046-.019-1.921a2.2 2.2 0 0 0 .428-.125 1.547 1.547 0 0 0 1.074-1.56l1.445.39a3.223 3.223 0 0 1-1.844 2.985 6.234 6.234 0 0 1-1.046.229ZM14.561 74.084a7.869 7.869 0 0 1-1.027-.181 3.2 3.2 0 0 1-2-2.975l1.425-.409a1.572 1.572 0 0 0 1.142 1.54c.133.038.276.066.428.095Z" style="fill:#fff"/><path d="m14.561 74.084-.333-1.321.3-.609c.209.019.608.029.608.029a4.2 4.2 0 0 0 .618-.058" style="fill:#fff"/><path d="m15.759 72.125.713.58s-.3 1.331-.656 1.341a11.161 11.161 0 0 1-1.255.038M6.547 79.979l7.462-1.502.391 2.006-7.454 1.463-.399-1.967z" style="fill:#fff"/><path d="m11.385 79.484 7.226-5.59.437 2.262-6.018 4.164-1.645-.836z" style="fill:#fff"/><path d="m12.755 79.104 7.168 1.549.457 2.263-8.804-2.377 1.179-1.435zM14.342 98.678a2.3 2.3 0 0 0 .171.722l-1.444.467a3.189 3.189 0 0 1 1.064-4.4l.97 1.644a1.5 1.5 0 0 0-.751 1.1 2.493 2.493 0 0 0-.01.467ZM17.965 102.263a3.216 3.216 0 0 1-4.326-1.388l1.159-.989a1.712 1.712 0 0 0 .466.475 1.6 1.6 0 0 0 1.807.2Z" style="fill:#fff"/><path d="m14.361 101.008-.76-1.674.912.066a2.419 2.419 0 0 0 .285.486Z" style="fill:#fff"/><path d="m14.39 100.57-.694.39c-.114-.181-.247-.39-.371-.589-.1-.2-.218-.4-.314-.609l.7-.39ZM19.087 92.66l.941 1.664-5.096 2.862-.923-1.655 5.078-2.871zM21.996 97.804l.931 1.644-5.086 2.871-.941-1.672 5.096-2.843zM22.927 93.373a1.511 1.511 0 0 0-1.35.076l-.9-1.691A3.2 3.2 0 0 1 25 93.136l-1.151 1a1.826 1.826 0 0 0-.5-.513 1.624 1.624 0 0 0-.422-.25ZM23.545 96.891a1.578 1.578 0 0 0 .752-1.625 1.829 1.829 0 0 0-.172-.657l1.436-.475a3.184 3.184 0 0 1-1.046 4.411Z" style="fill:#fff"/><path d="M24.125 94.609a1.849 1.849 0 0 0-.276-.475l.438-.827 1.026 1.521Z" style="fill:#fff"/><path d="m24.249 93.421.684-.409c.124.2.257.4.371.609a4.652 4.652 0 0 1 .314.608l-.7.39ZM20.807 91.682l.932 1.682-5.077 2.852-.941-1.635 5.086-2.899zM23.688 96.815l.941 1.664-5.077 2.852-.922-1.645 5.058-2.871zM29.725 119.09l.922.817a3.417 3.417 0 0 1-2.776-.827l.729-1.28a2.147 2.147 0 0 0 .37.257 2.61 2.61 0 0 0 1.284.418ZM27.8 116.8a2.523 2.523 0 0 0 .4.6l-1.188.931a3.174 3.174 0 0 1-.476-4.506L28 115.032a1.534 1.534 0 0 0-.332 1.312 1.524 1.524 0 0 0 .132.456Z" style="fill:#fff"/><path d="m28.508 118.976-1.217-1.376.913-.2a2.641 2.641 0 0 0 .4.4Z" style="fill:#fff"/><path d="m28.469 118.538-.522.59c-.2-.143-.371-.276-.552-.428s-.332-.3-.494-.466l.514-.608ZM34.088 108.9a1.51 1.51 0 0 0-1.236.522l-1.4-1.293a3.221 3.221 0 0 1 4.535-.151l-.751 1.311a2.175 2.175 0 0 0-.694-.313 1.727 1.727 0 0 0-.454-.076ZM35.866 112.017a1.607 1.607 0 0 0 .171-1.807 2.794 2.794 0 0 0-.37-.551l1.178-.941a3.231 3.231 0 0 1 .5 4.515Z" style="fill:#fff"/><path d="M35.667 109.659a3.252 3.252 0 0 0-.428-.371l.123-.9 1.474 1.084Z" style="fill:#fff"/><path d="m35.362 108.489.523-.6a5.581 5.581 0 0 1 .551.427c.162.143.343.314.5.476l-.522.608ZM31.113 114.099l1.007-1.151 3.119 2.719-1.008 1.15-3.118-2.718zM31.541 108.014l1.444 1.264-3.821 4.412-1.446-1.246 3.823-4.43zM36.903 113.728l-1.436-1.255.523-.589 1.426 1.245-.513.599z" style="fill:#fff"/><path d="m30.248 109.517 1.445 1.245-3.822 4.401-1.445-1.235 3.822-4.411zM35.239 115.667l-4.069 4.678-1.445-1.255 4.059-4.696 1.455 1.273z" style="fill:#fff"/><path d="M30.637 119.166s.894.5.533 1.179a6 6 0 0 1-2.89-.95ZM21.207 111.503l10.248-8.015 1.236 1.588-10.229 8.025-1.255-1.598zM17.185 106.351l10.23-7.987 1.245 1.57-10.23 8.013-1.245-1.596z" style="fill:#fff"/><path d="m20.674 110.838 7.349-11.713 1.245 1.588-7.32 11.703-1.274-1.578zM49.261 131.068l3.775-12.435 1.939.6-3.793 12.435-1.921-.6z" style="fill:#fff"/><path d="m53.673 120.516.465-1.559 5.049 1.559-.457 1.54-5.057-1.54zM51.61 125.754l.475-1.53 5.048 1.53-.475 1.531-5.048-1.531zM49.252 131.068l.465-1.54 6.218 1.892-.485 1.531-6.198-1.883zM58.455 133.474l1.797-12.854 2.015.257-1.825 12.892-1.987-.295z" style="fill:#fff"/><path d="m63.455 126.715 3.252 7.937-2.291-.323-2.986-7.899 2.025.285z" style="fill:#fff"/><path d="m66.307 121.457 2.273.314-5.2 5.047-1.988-.332 4.915-5.029zM49.956 117.502l-8.1 10.41-1.978-.979 8.575-10.163 1.503.732z" style="fill:#fff"/><path d="m50.583 117.816-2.824 13.005-1.958-.969 3.29-12.778 1.492.742z" style="fill:#fff"/><path d="m43.871 124.661.856-1.74 3.374 1.692-.865 1.702-3.365-1.654zM35.315 124.385l7.044-10.923 1.702 1.083-7.054 10.924-1.692-1.084z" style="fill:#fff"/><path d="m38.785 113.091.912-1.359 7.026 4.553-.865 1.36-7.073-4.554zM120.6 48.71a2.65 2.65 0 0 0 2.12 4.858l-.751-1.493a1.392 1.392 0 1 1-1.121-2.548Z" style="fill:#fff"/><path d="M119.594 52.779a4.238 4.238 0 0 1-.875-1.949c.247-.979.912.627.912.627ZM122.874 51.7a1.368 1.368 0 0 0 .722-1.835 1.408 1.408 0 0 0-1.844-.732l-.324-.257a2.4 2.4 0 0 1 3.185 1.227 2.432 2.432 0 0 1-1.264 3.194Z" style="fill:#fff"/><path d="M123.7 53.111a4.912 4.912 0 0 1-1.113.514c-.494.066-.9-1.112-.618-1.531a4.015 4.015 0 0 0 .9-.408Z" style="fill:#fff"/><path d="M121.98 52.075a1.39 1.39 0 1 1-1.112-2.548l-.58-1.568a2.65 2.65 0 1 0 2.12 4.858Z" style="fill:#fff"/><path d="M119.736 51.676s.742 1.578-.151 1.074a4.231 4.231 0 0 1-.866-1.958ZM120.934 47.683a2.414 2.414 0 0 1 1.921 4.43l.019-.437a1.381 1.381 0 0 0 .741-1.835 1.416 1.416 0 0 0-1.854-.722Z" style="fill:#fff"/><path d="M121.761 49.119a4.565 4.565 0 0 0-.912.408c-.5-.076-1.065-1.2-.694-1.521a3.978 3.978 0 0 1 1.121-.456ZM127.77 51.638a2.585 2.585 0 0 1-3.423-1.331l.456-.96a1.554 1.554 0 0 0 2.035.808ZM128.854 47.616l1.35-.075a2.805 2.805 0 0 1-1.436 3.679.043.043 0 0 0-.029.01l-.732-1.6a.341.341 0 0 0 .067-.009 1.546 1.546 0 0 0 .78-2.005Z" style="fill:#fff"/><path d="M126.753 50.193a11.749 11.749 0 0 0 1.321-.57l.694 1.6a9.332 9.332 0 0 1-1.055.456c-.4-.06-1.436-1.192-.96-1.486ZM125.659 47.483a1.57 1.57 0 0 0-.8 2.054l-1-.3a2.629 2.629 0 0 1 1.341-3.46ZM126.9 46.941a.067.067 0 0 0-.048.029l-.7-1.6c.009 0 .019-.019.028-.028a2.83 2.83 0 0 1 3.7 1.444l-1 .923a1.5 1.5 0 0 0-1.98-.768Z" style="fill:#fff"/><path d="M125.146 45.8a14.485 14.485 0 0 1 1.026-.456l.723 1.6a10.606 10.606 0 0 0-1.321.562c-.542.158-.656-1.372-.428-1.706ZM125.098 50.231l-.827.361-.694-1.549.856-.381.665 1.569zM129.272 46.114l.114-.056a4.1 4.1 0 0 1 .694 1.064 4.192 4.192 0 0 1 .352 1.35l-.818-.047-.647-.761-.161-.4ZM123.111 54.946a2.993 2.993 0 0 0 1.407 5.819l-.627-1.655a1.464 1.464 0 0 1-1.778-1.084 1.48 1.48 0 0 1 1.084-1.8ZM124.965 55.84a1.465 1.465 0 1 1 .675 2.852l.428 1.617a2.707 2.707 0 1 0-1.255-5.267Z" style="fill:#fff"/><path d="M123.891 59.11a18.57 18.57 0 0 0 2.053-.484l.514 1.559a7.583 7.583 0 0 1-2.006.6.921.921 0 0 1-.561-1.675Z" style="fill:#fff"/><path d="m122.968 55.9-1.178.97-.161 1.521 1.73.922.8.77a2.8 2.8 0 0 1-1.321-5.438Z" style="fill:#fff"/><path d="M125.032 55.85a11.892 11.892 0 0 0-1.854.389c-.7-.494-.342-1.6-.342-1.6l5.276-1.245.361 1.511-3.051.733-.238-.048Z" style="fill:#fff"/><path d="m128.046 53.425.475-.113a3.35 3.35 0 0 1 4.05 2.481l-1.474-.941-1.217-.077a4.175 4.175 0 0 0-1.483.162l-.085.019c-.362-.028-.266-1.531-.266-1.531ZM131.877 58.55a4.115 4.115 0 0 1-2 .941l-.389-1.607.693-.181s1.8.497 1.696.847Z" style="fill:#fff"/><path d="M129.6 53.559a2.975 2.975 0 0 1 2.234 5.038 4.348 4.348 0 0 1-1.483.789l-.18-1.683a1.5 1.5 0 0 0 1.084-1.8 1.458 1.458 0 0 0-1.37-1.131Z" style="fill:#fff"/><path d="M115.895 42.555h11.59v1.663h-11.59z" style="fill:#fff" transform="rotate(-26.818 121.688 43.387)"/><path d="m116.143 45.259.218-.114a10.088 10.088 0 0 1 3.784 1.9l-1.407.694a9.19 9.19 0 0 0-1.854-1ZM133.74 62.676l-11.532 1.273-.19-1.663 11.541-1.303.181 1.693z" style="fill:#fff"/><path d="m122.018 62.286.247-.019a9.948 9.948 0 0 1 2.881 3.09l-1.531.17a9.02 9.02 0 0 0-1.415-1.587ZM14.894 39.431l10.334 5.267-.761 1.493-10.334-5.258.761-1.502zM24.477 46.191l-.228-.105a10.106 10.106 0 0 1-.7-4.183l1.369.694a9.028 9.028 0 0 0 .3 2.12ZM16.643 57.618l1.008.123-.209 1.607-.989-.105.19-1.625z" style="fill:#fff"/><path d="M17.109 58.8c0-.066.627-.057.627-.057s.523 1.065.058.8a1.557 1.557 0 0 0-.761-.237s.076-.452.076-.506Z" style="fill:#fff"/><path d="m17.394 59.339.2-1.607a2.222 2.222 0 0 1 1.95 2.472 2.8 2.8 0 0 1-.162.609l-1.055-.143a1.36 1.36 0 0 0-.933-1.331ZM18.307 60.85l1.074.133a2.132 2.132 0 0 1 .009.609 2.21 2.21 0 0 1-2.481 1.958l.19-1.616a1.323 1.323 0 0 0 1.208-1.084Z" style="fill:#fff"/><path d="M19.533 59.529a5.086 5.086 0 0 1-.218 2.462c-.514.922-.324-.171-.324-.171Z" style="fill:#fff"/><path d="m19.448 60.223-.152 1.14s-1.341.324-1.274.086a1.409 1.409 0 0 0 .228-1.264ZM8.277 56.439l1.378.162-.703 6.122-1.417-.171.742-6.113zM14.676 63.17l.227-1.807a3.871 3.871 0 0 0 1.55.552 4.122 4.122 0 0 0 1.283-.057l-.2 1.683a6.285 6.285 0 0 1-1.407.028 5.3 5.3 0 0 1-1.453-.399Z" style="fill:#fff"/><path d="M14.676 63.17a32.156 32.156 0 0 1-5.249-4.6l.228-1.97a47.868 47.868 0 0 0 5.3 4.782c.309.01.245 1.718-.279 1.788ZM9.655 51.809l10.829 4.145-.599 1.569-10.838-4.126.608-1.588zM19.885 57.523l-.228-.076a10.085 10.085 0 0 1-1.131-4.079l1.444.542a9.494 9.494 0 0 0 .514 2.054ZM19.134 51.981a2.992 2.992 0 1 0 1.834-5.695l-.332 1.73a1.482 1.482 0 1 1-.9 2.823ZM18.031 50.269a1.473 1.473 0 0 1 .9-2.8l.476-1.578a2.7 2.7 0 1 0-1.664 5.143Z" style="fill:#fff"/><path d="M20.636 48.016a14.005 14.005 0 0 0-2-.647l.381-1.6a7.887 7.887 0 0 1 2.025.522.924.924 0 0 1-.406 1.725Z" style="fill:#fff"/><path d="m19.742 51.23 1.521-.2.96-1.188-1.036-1.73-.265-1.065a2.8 2.8 0 0 1 1.815 3.537 2.831 2.831 0 0 1-3.527 1.8Z" style="fill:#fff"/><path d="M17.993 50.212a10.227 10.227 0 0 0 1.768.627c.352.78-.551 1.54-.551 1.54l-5.134-1.663.494-1.483 2.967.951.19.18Z" style="fill:#fff"/><path d="m14.152 50.744-.456-.161a3.374 3.374 0 0 1-2.187-4.231l.761 1.55 1.008.722a4.429 4.429 0 0 0 1.35.628l.1.028c.28.2-.576 1.464-.576 1.464ZM13.534 44.365a4.14 4.14 0 0 1 2.206.228l-.5 1.588-.713-.219s-1.269-1.35-.993-1.597Z" style="fill:#fff"/><path d="M12.9 49.813a3 3 0 0 1-1.381-3.513 3.065 3.065 0 0 1 2.081-1.963 4.388 4.388 0 0 1 1.673.095l-.713 1.54a1.493 1.493 0 0 0-1.873.96 1.518 1.518 0 0 0 .59 1.692ZM28.584 27.918l-2.054-2.776 1.598-1.217 2.072 2.776-1.616 1.217zM40.134 25.693l-5.894-7.776 1.778-1.341 5.885 7.796-1.769 1.321zM32.092 25.142l-2.091-2.738 1.625-1.217 2.073 2.748-1.607 1.207z" style="fill:#fff"/><path d="m32.539 20.978-6.522 4.925-.865-1.112 6.541-4.944.846 1.131zM35.144 24.42l-6.541 4.934-.837-1.122 6.522-4.934.856 1.122zM35.685 25.009c-2.357 1.787-3.346 4.411-2.224 5.9 1.122 1.464 3.926 1.245 6.274-.533s3.318-4.411 2.2-5.894c-1.106-1.46-3.92-1.222-6.25.527Zm3.033 4.117c-1.35 1.017-2.909 1.216-3.5.456-.6-.78.058-2.234 1.389-3.261 1.35-1.036 2.928-1.217 3.508-.456.6.798-.027 2.235-1.397 3.261Z" style="fill:#fff"/><path d="M38.642 23.906a2.332 2.332 0 1 1 2.805 3.727L39.992 25ZM34.088 21.263l-.912-1.217 1.863-1.388.922 1.208-1.873 1.397zM37.492 21.872l-1.854 1.426-.922-1.217 1.872-1.407.904 1.198zM53.197 17.537l-2.566-7.473 2.034-.675 2.548 7.444-2.016.704z" style="fill:#fff"/><path d="m53.815 12.926-.484-1.426 1.226-.437.504 1.454-1.246.409zM58.445 16.253l-10.638 3.623-.457-1.312 10.639-3.632.456 1.321zM46.172 15.521l-.476-1.426 3.898-1.341.504 1.446-3.926 1.321z" style="fill:#fff"/><path d="m45.135 18.135-1.749-5.152 2.015-.694 1.759 5.143-2.025.703z" style="fill:#fff"/><path d="M49.357 12.051 43.7 13.972l-.466-1.369 5.666-1.912.457 1.36zM51.514 16.025l-6.369 2.177-.447-1.369 6.341-2.158.475 1.35zM59.957 20.617l-2.025.675L53.73 9.009l2.025-.694 4.202 12.302zM73.133 11.633l-.019-1.502 3.166-.067.029 1.512-3.176.057zM64.986 14.751l-.124-7.643 2.14-.029.142 7.634-2.158.038z" style="fill:#fff"/><path d="m74.075 13.401.018 1.416-9.107.124-.019-1.378 9.108-.162zM77.45 19.533l-2.14.038-.199-13.005 2.12-.039.219 13.006z" style="fill:#fff"/><path d="m74.179 19.59-2.129.038-.238-13.005 2.139-.038.228 13.005zM95.275 16.044l.58-1.388 2.976 1.207-.552 1.398-3.004-1.217zM90.122 9.95c-1.949-.78-4.012-.2-4.611 1.322-.618 1.5.447 3.384 2.368 4.164 1.958.779 4 .2 4.629-1.312.619-1.531-.465-3.404-2.386-4.174Zm-1.682 4.174a1.667 1.667 0 0 1-1.075-2.092 1.779 1.779 0 0 1 3.27 1.322 1.652 1.652 0 0 1-2.195.77ZM94.866 20.617l-10.695-4.345.513-1.283 10.705 4.345-.523 1.283z" style="fill:#fff"/><path d="m89.077 9.541.56-1.426L91.776 9l-.57 1.416-2.129-.875z" style="fill:#fff"/><path d="m94.03 11.233-.533 1.332-7.596-3.071.542-1.331 7.587 3.07zM93.165 24.876l-2.044-.837 4.857-12.035 2.054.827-4.867 12.045zM106.75 32.729l6.816-8.423 1.74 1.387-6.845 8.415-1.711-1.379zM100.419 27.728l4.458-5.495 1.673 1.35-4.459 5.485-1.672-1.34zM103.575 29.991l4.325-5.324 1.664 1.35-4.335 5.352-1.654-1.378z" style="fill:#fff"/><path d="m98.954 26.521.951-1.17 10.153 8.233-.96 1.189-10.144-8.252zM114.403 26.777l-8.984-7.311.894-1.083 8.993 7.301-.903 1.093zM70.433 8.087l-5.523.095-.028-1.436 5.533-.104.018 1.445zM130.109 94.086l-12.265-4.307.666-1.92 12.273 4.317-.674 1.91zM100.751 126.933l-6.531-11.218 1.74-1.036 6.541 11.247-1.75 1.007zM127.855 94.885l-2.814-1.141.038-.066a3.672 3.672 0 0 1 1.417.305 4.167 4.167 0 0 1 1.359.902Z" style="fill:#fff"/><path d="m126.068 95.874.713-1.721a3.4 3.4 0 0 1 1.7 4.516l-1.227-.5a2 2 0 0 0-1.1-2.253.353.353 0 0 1-.086-.042ZM128.112 99.572a3.249 3.249 0 0 1-4.174 1.911l.562-1.778c.028.01.066.028.066.028a1.971 1.971 0 0 0 2.357-.8Z" style="fill:#fff"/><path d="m128.216 97.908-1.245 2.321-1.046-.486a2.329 2.329 0 0 0 1.141-1.226 2.438 2.438 0 0 0 .057-1.683Z" style="fill:#fff"/><path d="M128.749 97.613a4.7 4.7 0 0 1-.39 1.522 5.125 5.125 0 0 1-.8 1.349l-.362-1.13.523-1.293ZM123.397 99.287l1.293.504-.694 1.711-1.303-.494.704-1.721zM116.086 93.421a3.032 3.032 0 0 1 3.888-1.8l-.675 1.855a1.784 1.784 0 0 0-1.369 3.279l-.628 1.807a3.208 3.208 0 0 1-1.6-4.25Z" style="fill:#fff"/><path d="m120.003 93.716-.856-.285.761-1.825.836.294-.741 1.816zM117.293 97.822l1.74.438.095.684a3.95 3.95 0 0 1-2.215-.57ZM116.428 92.775l-.941 2.262a5.829 5.829 0 0 1 .342-1.169 6.122 6.122 0 0 1 .599-1.093Z" style="fill:#fff"/><path d="m121.067 97 .343-.856.665.666a3.436 3.436 0 0 1-.694 1.083 3.616 3.616 0 0 1-2.091 1.055 3.184 3.184 0 0 1-1.369-.218l-.637-.161.579-1.835c.1.047.181.094.276.132a2 2 0 0 0 1.968-.266ZM125.983 93.887l-.238 1.863a2.061 2.061 0 0 0-2.168.428l-.551-.219-.209.514-.134-.057-.075.171-.78-.8a3.239 3.239 0 0 1 4.155-1.9Z" style="fill:#fff"/><path d="M119.888 96.758s.875-.608 2.843-2.253c.38-.152.922 1.626.922 1.626s-1.312.978-2.586 2.062c-.199-.018-1.179-1.435-1.179-1.435ZM125.755 93.906l1.092.418-.636 1.635-.552-.227.096-1.826zM132.457 87.422l-12.549-3.394.522-1.949 12.55 3.394-.523 1.949z" style="fill:#fff"/><path d="m120.621 87.518-1.569-.41 2.196-8.099 1.549.418-2.176 8.091zM121.067 105.305l-1.749-1.1-.01.009a1.314 1.314 0 0 0-1.654.361l-.342.457a2.206 2.206 0 0 1 .418-1.854 1.98 1.98 0 0 1 3.337 2.13ZM119.936 111.256l-10.325-7.929 1.246-1.616 10.315 7.92-1.236 1.625z" style="fill:#fff"/><path d="M110.228 100.743h3.429v1.367h-3.429z" style="fill:#fff" transform="rotate(-52.686 111.944 101.426)"/><path d="m116.256 106.399-1.188-.932 1.769-2.33 1.207.923-1.788 2.339zM122.408 106.17l-3.1-1.968 1.198-1.569 3.337 2.092-1.435 1.445z" style="fill:#fff"/><path d="m123.3 104.4.01-.008a3.593 3.593 0 0 0 1.426.6l-1.283 1.673a3.935 3.935 0 0 1-1.237-.618 3.8 3.8 0 0 1-1.435-3.241ZM116.105 98.783a3.9 3.9 0 0 1 .827.494 4.535 4.535 0 0 1 .8.8" style="fill:#fff"/><path d="M114.955 100.323v.009a1.588 1.588 0 0 0-1.759.552l-.771-1.227a2.908 2.908 0 0 1 4-.684l-1.065 1.531a4.039 4.039 0 0 0-.405-.181ZM116.285 101.227l1.113-1.494c1.093.837 1.007 2.8-.181 4.355l-.742-.476a1.751 1.751 0 0 0 .124-2 3.616 3.616 0 0 0-.314-.385Z" style="fill:#fff"/><path d="M116.285 101.227a2.322 2.322 0 0 0-.418-.4 4.269 4.269 0 0 0-.5-.323l.4-1.274.628-.276 1.055.818-.685 1.274ZM106.93 122.969l-10.153-8.613 1.807-1.284 9.715 8.908-1.369.989z" style="fill:#fff"/><path d="m107.51 122.56-5.371-12.045 1.797-1.303 4.944 12.35-1.37.998zM81.709 131.791a2.6 2.6 0 0 0 .722.048l.029 1.53A3.209 3.209 0 0 1 78.581 131l1.863-.428a1.467 1.467 0 0 0 .818 1.055 1.779 1.779 0 0 0 .447.164ZM86.215 129.443a3.215 3.215 0 0 1-2.643 3.689l-.58-1.407a3.192 3.192 0 0 0 .6-.305 1.573 1.573 0 0 0 .751-1.635Z" style="fill:#fff"/><path d="m76.585 121.343 1.853-.37 2.044 9.791-1.882.39-2.015-9.811zM82.336 120.174l1.882-.399 2.006 9.801-1.863.38-2.025-9.782z" style="fill:#fff"/><path d="M93.742 116.204h2.03v12.997h-2.03z" style="fill:#fff" transform="rotate(-21.949 94.759 122.704)"/><path d="m90.189 131.554-4.877-12.056 1.882-.76 4.858 12.045-1.863.771z" style="fill:#fff"/><path d="m95.465 129.424-9.241-10.296 1.883-.761 9.231 10.296-1.873.761zM134.424 75.833l-7.577-.58.153-2.034 7.577.57-.153 2.044z" style="fill:#fff"/><path d="m129.643 74.996-8.452 3.442.171-2.3 6.94-2.387 1.341 1.245z" style="fill:#fff"/><path d="m128.235 74.959-6.502-3.394.181-2.311 7.842 4.678-1.521 1.027zM113.842 117.777l-9.297-9.078 1.425-1.435 9.288 9.078-1.416 1.435z" style="fill:#fff"/><path d="m106.493 109.003-1.159-1.112 3.698-3.793 1.14 1.131-3.679 3.774zM110.191 113.233l-1.141-1.112 3.699-3.783 1.14 1.121-3.698 3.774zM113.842 117.787l-1.16-1.131 4.544-4.639 1.141 1.112-4.525 4.658zM81.709 131.753a2.145 2.145 0 0 0 .741.058l.01 1.53a3.236 3.236 0 0 1-3.879-2.377l1.863-.418a1.56 1.56 0 0 0 .818 1.055 1.536 1.536 0 0 0 .447.152ZM86.215 129.4a3.223 3.223 0 0 1-2.633 3.7L83 131.7a3.13 3.13 0 0 0 .6-.295 1.571 1.571 0 0 0 .742-1.654Z" style="fill:#fff"/><path d="m83.943 132.438-1.835.218.342-.845a3.105 3.105 0 0 0 .55-.111Z" style="fill:#fff"/><path d="m83.534 132.295.161.779q-.355.087-.684.172a4.171 4.171 0 0 1-.684.113l-.162-.779ZM76.594 121.315l1.854-.381 2.044 9.783-1.892.39-2.006-9.792zM82.345 120.136l1.883-.4 2.006 9.811-1.854.371-2.035-9.782z" style="fill:#fff"/></svg>