<svg xmlns="http://www.w3.org/2000/svg" width="202.27306mm" height="208.43871mm" viewBox="0 0 202.27306 208.43871"><path d="M105.703 166.14h-.582v-.12l.284-.364c.093-.12.15-.208.171-.261a.47.47 0 0 0 .035-.175.26.26 0 0 0-.05-.169.175.175 0 0 0-.14-.059c-.087 0-.17.047-.25.143v-.141a.363.363 0 0 1 .265-.116c.082 0 .151.03.202.09.051.059.075.139.075.24 0 .076-.017.15-.047.222a1.484 1.484 0 0 1-.19.298l-.228.288v.004h.455zm-1.756-.176a.313.313 0 0 0 .204.084.21.21 0 0 0 .167-.077.297.297 0 0 0 .066-.199.275.275 0 0 0-.066-.196c-.043-.048-.105-.068-.186-.068-.028 0-.077 0-.153.01v-.62h.466v.123h-.367v.371c.039 0 .065-.003.082-.003.106 0 .184.033.24.1.06.064.089.156.089.274 0 .122-.032.22-.094.292a.317.317 0 0 1-.248.106c-.09 0-.157-.018-.2-.053zm-1.159-.693c0 .085.017.155.054.208a.167.167 0 0 0 .148.078c.055 0 .099-.023.136-.069a.269.269 0 0 0 .057-.17c0-.092-.02-.167-.057-.23-.034-.066-.083-.094-.145-.094-.056 0-.102.024-.139.08a.355.355 0 0 0-.054.196zm-.053.716c.053.04.111.06.17.06.09 0 .16-.046.209-.137a.85.85 0 0 0 .074-.394h-.003c-.041.109-.114.162-.219.162a.247.247 0 0 1-.205-.108.472.472 0 0 1-.079-.277c0-.12.029-.22.086-.297a.265.265 0 0 1 .223-.118c.098 0 .173.05.227.147.051.097.076.236.076.42 0 .225-.035.4-.103.527-.067.127-.164.189-.29.189a.319.319 0 0 1-.167-.042zm-.671.153h-.547v-.12h.221v-.975l-.227.086v-.128l.333-.132v1.15h.22zm0 0" style="fill:none;stroke:#000;stroke-width:.0529167;stroke-linecap:round;stroke-linejoin:round;stroke-miterlimit:22.926;stroke-opacity:1" transform="translate(-1061.325 -1702.493) scale(11.24687)"/><path d="M102.98 166.044v.12a.424.424 0 0 1-.083.01.307.307 0 0 1-.166-.043v-.134a.27.27 0 0 0 .17.06.202.202 0 0 0 .079-.013m0-1.177v.117h-.003c-.055 0-.103.026-.14.083a.358.358 0 0 0-.054.2c0 .088.019.157.055.212a.166.166 0 0 0 .142.079v.124h-.017a.241.241 0 0 1-.206-.113.468.468 0 0 1-.08-.282c0-.12.027-.221.085-.301a.268.268 0 0 1 .218-.119m-.926 1.285h-.55v-.122h.223v-.993l-.229.09v-.133l.337-.135v1.171h.219zm3.661 0h-.585v-.122l.285-.372c.093-.121.151-.21.173-.267a.475.475 0 0 0 .034-.178.271.271 0 0 0-.049-.17.183.183 0 0 0-.142-.06c-.086 0-.17.048-.252.146v-.145a.361.361 0 0 1 .266-.117c.087 0 .155.03.206.091.048.06.073.14.073.244a.605.605 0 0 1-.046.229 1.63 1.63 0 0 1-.193.302l-.229.293v.003h.46zm-1.766-.178a.32.32 0 0 0 .205.084.206.206 0 0 0 .167-.079.29.29 0 0 0 .066-.204c0-.085-.021-.15-.066-.198-.042-.048-.105-.07-.186-.07-.027 0-.076.004-.155.01v-.63h.47v.125h-.37v.378c.038-.003.066-.003.085-.003.103 0 .185.034.241.1a.41.41 0 0 1 .09.28.434.434 0 0 1-.097.298.317.317 0 0 1-.25.108.334.334 0 0 1-.2-.052zm-.97.19v-.12a.264.264 0 0 0 .132-.127c.05-.092.074-.227.074-.4-.04.103-.108.158-.205.165v-.124h.006a.17.17 0 0 0 .138-.07.266.266 0 0 0 .056-.174.468.468 0 0 0-.055-.235c-.037-.063-.082-.095-.144-.095v-.117h.008c.097 0 .173.048.226.148.052.1.078.244.078.43 0 .228-.034.409-.102.536a.344.344 0 0 1-.21.183" style="fill:#000;fill-opacity:1;fill-rule:nonzero;stroke:none;stroke-width:.352778" transform="translate(-1061.325 -1702.493) scale(11.24687)"/><path d="M101.51 157.775c.326 1.21 1.947 1.148 1.947 1.148 1.684 0 1.85-1.134 1.85-1.134v-2.968h-3.797zm0 0" style="fill:none;stroke:#fff;stroke-width:.243064;stroke-linecap:butt;stroke-linejoin:miter;stroke-miterlimit:22.926;stroke-opacity:1" transform="translate(-1061.325 -1702.493) scale(11.24687)"/><path d="M101.456 157.8c.336 1.243 2 1.177 2 1.177 1.734 0 1.905-1.164 1.905-1.164v-3.047h-3.905zm0 0" style="fill:#1c1e87;fill-opacity:1;fill-rule:nonzero;stroke:none;stroke-width:.352778" transform="translate(-1061.325 -1702.493) scale(11.24687)"/><path d="m103.144 156.752.734.022-.012.56.305-.005v-.699c.208-.034.464-.328.46-.536a50.336 50.336 0 0 0-.008 1.914.779.779 0 0 1-.452.484c-.015-.173 0-.594 0-.594h-.292v.656h-.74zm0 0" style="fill:#fff;fill-opacity:1;fill-rule:nonzero;stroke:none;stroke-width:.352778" transform="translate(-1061.325 -1702.493) scale(11.24687)"/><path d="m99.586 159.575.058 4.786s1.214-.154 1.84-.21c.624-.057 1.015-.038 1.248.057.231.095.552.36.552.36a.774.774 0 0 0 .397 0s.323-.265.554-.36c.232-.095.623-.114 1.249-.058.624.058 1.838.211 1.838.211l.058-4.786-.365-.555s.118.02-.525-.084c-.64-.106-1.409-.078-2.06 0-.654.074-.946.661-.946.661s-.295-.587-.948-.661c-.65-.078-1.416-.106-2.06 0l-.525.084zm0 0" style="fill:#009942;fill-opacity:1;fill-rule:nonzero;stroke:none;stroke-width:.352778" transform="translate(-1061.325 -1702.493) scale(11.24687)"/><path d="m99.746 159.57.016 4.507.18-.311-.036-4.433zm0 0" style="fill:#fff;fill-opacity:1;fill-rule:nonzero;stroke:none;stroke-width:.352778" transform="translate(-1061.325 -1702.493) scale(11.24687)"/><path d="m100.078 159.126.034 4.535c0 .065 1.785-.493 2.846.018.165.08.49.434.49.434v-4.335s-.146-.578-.82-.681c-.887-.136-1.595-.135-2.55.029zm0 0" style="fill:none;stroke:#fff;stroke-width:.0532694;stroke-linecap:round;stroke-linejoin:round;stroke-miterlimit:22.926;stroke-opacity:1" transform="translate(-1061.325 -1702.493) scale(11.24687)"/><path d="m100.067 159.115.034 4.556c0 .066 1.796-.495 2.865.018.168.08.492.436.492.436v-4.358s-.143-.578-.822-.681c-.896-.138-1.607-.137-2.57.029" style="fill:#009942;fill-opacity:1;fill-rule:nonzero;stroke:none;stroke-width:.352778" transform="translate(-1061.325 -1702.493) scale(11.24687)"/><path d="m107.026 163.766.178.311.019-4.507-.161-.237zM107.168 164.258l-.268-.415s-1.248-.31-2.425-.188c-.17.017-.867.356-.813.622l.028.132s.498-.388.98-.4c.482-.01 2.498.249 2.498.249" style="fill:#fff;fill-opacity:1;fill-rule:nonzero;stroke:none;stroke-width:.352778" transform="translate(-1061.325 -1702.493) scale(11.24687)"/><path d="m106.89 159.126-.036 4.535c-.001.065-1.782-.493-2.846.018-.164.08-.486.434-.486.434v-4.335s.143-.578.817-.681c.887-.136 1.595-.135 2.55.029zm0 0" style="fill:none;stroke:#fff;stroke-width:.0532694;stroke-linecap:round;stroke-linejoin:round;stroke-miterlimit:22.926;stroke-opacity:1" transform="translate(-1061.325 -1702.493) scale(11.24687)"/><path d="m106.9 159.115-.035 4.556c0 .066-1.795-.495-2.864.018-.168.08-.493.436-.493.436v-4.358s.144-.578.822-.681c.896-.138 1.61-.137 2.57.029" style="fill:#009942;fill-opacity:1;fill-rule:nonzero;stroke:none;stroke-width:.352778" transform="translate(-1061.325 -1702.493) scale(11.24687)"/><path d="m99.797 164.258.268-.416s1.232-.302 2.41-.181c.169.018.883.35.829.616l-.028.132s-.499-.388-.98-.4c-.48-.01-2.5.249-2.5.249" style="fill:#fff;fill-opacity:1;fill-rule:nonzero;stroke:none;stroke-width:.352778" transform="translate(-1061.325 -1702.493) scale(11.24687)"/><path d="M102.22 162.782v-.306h.614v-.134h-.615v-.084h.703v.3h-.616v.138h.648v.086zm.382-.635a.524.524 0 0 1-.153-.11.588.588 0 0 1-.115-.15.627.627 0 0 1-.273.29l-.062-.062a.587.587 0 0 0 .212-.177.388.388 0 0 0 .079-.232v-.108h.085v.108c0 .08.028.155.085.224a.476.476 0 0 0 .2.146zm.23-.576h.09v.621h-.09zm-1.57.82c-.09 0-.159.017-.206.048-.048.029-.073.067-.073.114 0 .046.025.083.075.112.045.031.114.044.205.044.09 0 .157-.013.205-.043.048-.03.073-.067.073-.113 0-.047-.025-.087-.073-.114a.38.38 0 0 0-.205-.047zm0 .402a.495.495 0 0 1-.275-.066c-.063-.046-.097-.105-.097-.174a.21.21 0 0 1 .096-.175.49.49 0 0 1 .277-.065c.118 0 .21.02.276.065a.206.206 0 0 1 .096.175.21.21 0 0 1-.096.174.5.5 0 0 1-.276.066zm.016-.578a.617.617 0 0 1-.154-.13.498.498 0 0 1-.11-.15.623.623 0 0 1-.113.17.62.62 0 0 1-.159.142l-.063-.066a.575.575 0 0 0 .206-.185.457.457 0 0 0 .082-.253v-.132h.09v.132c0 .083.025.162.082.237a.505.505 0 0 0 .201.165zm.247.072v-.37h-.266v-.087h.266v-.26h.088v.717zm.714-1.273v-.39h.088v.304h.643v.086zm.607-.929h-.227v.2h.227zm-.314-.12h-.346v.438h.346zm.314.75v-.349h-.226v.123h-.525v-.61h.525V160h.226v-.192h.09v.906zm-1.996.28v-.415h.088v.33h.632v.086zm-.188-.546v-.084h.788c.01-.102.014-.237.014-.407h-.623v-.087h.713c0 .218-.004.38-.015.494h.184v.084zm0 0" style="fill:none;stroke:#fff;stroke-width:.0684389;stroke-linecap:round;stroke-linejoin:round;stroke-miterlimit:22.926;stroke-opacity:1" transform="translate(-1061.325 -1702.493) scale(11.24687)"/><path d="M101.292 162.323v.081h-.037a.407.407 0 0 0-.21.046c-.048.029-.073.067-.073.114 0 .048.025.086.075.116.046.03.118.044.208.044l.037-.003v.085l-.037.001a.484.484 0 0 1-.279-.067.21.21 0 0 1-.1-.177c0-.071.034-.13.099-.173a.491.491 0 0 1 .28-.068zm0-.19a.499.499 0 0 1-.16-.146.371.371 0 0 1-.088-.239v-.133h-.087v.133a.45.45 0 0 1-.084.255.58.58 0 0 1-.21.188l.065.067a.744.744 0 0 0 .16-.142.647.647 0 0 0 .114-.176c.022.05.06.102.11.156.054.055.107.1.16.129l.02-.022zm0-.21h-.041v-.087h.04zm0-1.017v.087h-.458v-.42h.091v.333zm0-.963h-.465v-.085h.465zm-.644.41h.644v.088h-.644zm.644.553h.273v.087h-.273zm0 1.017h.229v.374h.09v-.722h-.09v.261h-.23zm0 .28v-.07c.014.008.026.016.04.02zm0 .604v-.086a.33.33 0 0 0 .17-.041c.052-.03.075-.068.075-.116 0-.047-.023-.085-.072-.114a.36.36 0 0 0-.173-.046v-.081a.429.429 0 0 1 .242.067c.065.045.1.102.1.174 0 .07-.035.131-.1.177a.465.465 0 0 1-.242.066m1.073-.319v.082h-.05v.142h.05v.085h-.14v-.309zm0-.135h-.14v-.085h.14zm0-.752v.335c-.01-.015-.016-.032-.025-.044a.65.65 0 0 1-.275.296l-.065-.063a.626.626 0 0 0 .216-.181.393.393 0 0 0 .079-.236v-.107zm0-.677v.087h-.121v-.395h.088v.308zm0-1.058v.084h-.176v.444h.176v.087h-.266v-.615zm-1.073.488h.153c.01-.104.015-.239.015-.41h-.168v-.086h.256c0 .219-.003.384-.014.496h.188v.087h-.43zm1.073 1.582v-.335h.017v.107c0 .083.03.159.087.23.057.07.125.118.204.147l-.062.07a.563.563 0 0 1-.153-.11.623.623 0 0 1-.093-.11m.38.862h-.38v-.085h.38zm0-.227h-.38v-.082h.38zm0-.217h-.38v-.085h.38zm0-1.342h-.38v-.087h.38zm0-1.024v.084h-.114v.203h.113v.084h-.113v.123h-.266v-.087h.177v-.444h-.177v-.084h.266v.121zm.101 1.588h.091v.627h-.09zm-.102-1.217v-.084h.117v-.203h-.117v-.084h.117v-.193h.09v.914h-.09v-.35zm0 .566h.243v.086h-.243zm0 1.646v-.082h.102v-.135h-.102v-.085h.193v.302zm0 .142h.225v.085h-.225zm0 0" style="fill:#fff;fill-opacity:1;fill-rule:nonzero;stroke:none;stroke-width:.352778" transform="translate(-1061.325 -1702.493) scale(11.24687)"/><path d="M106.016 162.396a.468.468 0 0 0-.208.037c-.047.025-.07.06-.07.104 0 .045.024.08.07.104.05.025.118.037.208.037a.46.46 0 0 0 .205-.037c.05-.025.072-.06.072-.104 0-.045-.022-.08-.07-.104a.468.468 0 0 0-.207-.037zm0 .362a.538.538 0 0 1-.277-.059.184.184 0 0 1-.095-.162.18.18 0 0 1 .095-.16.514.514 0 0 1 .277-.06c.118 0 .21.018.274.058a.185.185 0 0 1 .001.324.521.521 0 0 1-.275.06zm.153-.569a1.57 1.57 0 0 1-.188.02c-.066 0-.205.003-.428.003v-.352h.421v-.164h-.421v-.083h.51v.327h-.42v.19c.18 0 .301-.003.359-.004a.952.952 0 0 0 .153-.018zm.198-.223v.306h-.09v-.71h.09v.323h.172v.081zm-1.583.5a.92.92 0 0 1-.18-.195.773.773 0 0 1-.108-.204.722.722 0 0 1-.106.216.858.858 0 0 1-.177.2l-.069-.064a.738.738 0 0 0 .308-.577v-.197h.09v.194c0 .106.026.208.08.308.056.1.13.181.222.246zm.253-.328v.637h-.086v-1.213h.086v.492h.2v.084zm.445-1.303-.007-.082c.102 0 .244-.004.426-.004.185-.007.306-.01.364-.016l.007.08a5.49 5.49 0 0 1-.368.015c-.183.003-.322.007-.422.007zm.378-.819a.22.22 0 0 0-.15.058.2.2 0 0 0-.06.147c0 .062.02.112.061.15a.213.213 0 0 0 .15.057c.061 0 .11-.02.15-.058a.186.186 0 0 0 .061-.149c0-.059-.019-.108-.06-.147a.208.208 0 0 0-.152-.058zm0 .496a.298.298 0 0 1-.214-.083.269.269 0 0 1-.088-.208c0-.08.03-.148.087-.205a.301.301 0 0 1 .215-.081c.085 0 .159.026.215.082a.27.27 0 0 1 .088.204.269.269 0 0 1-.088.208.298.298 0 0 1-.215.083zm.486-.67h.087v1.213h-.087zm-1.963 1.173v-.386h.09v.303h.643v.083zm.388-.49a.74.74 0 0 1-.16-.144.632.632 0 0 1-.108-.158.675.675 0 0 1-.115.186.647.647 0 0 1-.16.147l-.063-.066a.548.548 0 0 0 .207-.191.476.476 0 0 0 .085-.262v-.156h.087v.156c0 .08.027.161.087.242a.57.57 0 0 0 .198.178zm.228-.684h.088v.864h-.088zm0 0" style="fill:none;stroke:#fff;stroke-width:.0684389;stroke-linecap:round;stroke-linejoin:round;stroke-miterlimit:22.926;stroke-opacity:1" transform="translate(-1061.325 -1702.493) scale(11.24687)"/><path d="M104.777 162.479a.837.837 0 0 1-.182-.197.754.754 0 0 1-.109-.207.99.99 0 0 1-.287.42l-.068-.063a.788.788 0 0 0 .224-.26.675.675 0 0 0 .084-.323v-.201h.09v.197a.63.63 0 0 0 .084.31.76.76 0 0 0 .226.25zm-.014-1.963a.834.834 0 0 1-.271-.304.76.76 0 0 1-.116.187.63.63 0 0 1-.161.149l-.065-.066a.577.577 0 0 0 .21-.196.481.481 0 0 0 .085-.264v-.156h.088v.156c0 .082.029.165.088.248.06.082.127.142.201.176zm.274 1.545v.086h-.004v.643h-.088v-1.226h.088v.497zm0-1.133h-.576v-.307h-.09v.39h.666zm-.044-1.102h.044v.872h-.044zm.044 1.102h.076v.083h-.076zm0 1.133h.199v.086h-.199zm.83.28v.083l-.054.02c-.048.026-.07.06-.07.105 0 .047.023.083.072.106.015.01.034.015.052.02v.085a.363.363 0 0 1-.123-.046c-.066-.042-.099-.095-.099-.165 0-.067.033-.121.1-.161a.338.338 0 0 1 .122-.047m0-.474v.08h-.222v.19h.222v.081c-.077.003-.18.003-.311.003v-.354zm0-.167h-.311v-.084h.311zm0-.958v.082c-.163.004-.29.007-.382.007l-.008-.084c.097 0 .226-.001.39-.004m0-.823v.084c-.06 0-.11.018-.151.06a.189.189 0 0 0-.06.147c0 .062.018.113.061.151a.214.214 0 0 0 .15.058v.086a.304.304 0 0 1-.216-.084.277.277 0 0 1-.088-.211.296.296 0 0 1 .305-.29zm-.83-.094h.046v.872h-.045zm1.344 2.147v.309h-.09v-.718h.09v.325h.175v.084zm-.022-2.147h.089v1.227h-.089zm-.492.68v-.086c.061 0 .11-.02.153-.058a.203.203 0 0 0 .062-.151.206.206 0 0 0-.215-.207v-.084c.089 0 .16.027.22.085a.28.28 0 0 1 .086.206c0 .085-.03.155-.087.21a.309.309 0 0 1-.219.085m0 .318v-.081l.043-.001c.185-.003.307-.008.368-.016l.004.083a7.32 7.32 0 0 1-.37.014zm0 1.123v-.08h.118v-.167h-.118v-.084h.206v.33zm0 .271v-.08c.066 0 .116 0 .144-.004.059-.004.11-.008.155-.016l.014.078a1.24 1.24 0 0 1-.191.02c-.027.002-.067.002-.122.002m0 .541v-.084a.68.68 0 0 0 .156.017.474.474 0 0 0 .211-.037c.048-.024.072-.061.072-.107 0-.042-.024-.078-.07-.104a.502.502 0 0 0-.213-.035.651.651 0 0 0-.156.014v-.083a.68.68 0 0 1 .156-.015c.12 0 .215.02.28.06.066.042.098.094.098.163 0 .07-.032.126-.097.166a.544.544 0 0 1-.28.058.879.879 0 0 1-.157-.013M102.192 155.26l-.005 1.785.849-.006v-.48s.497.025.797.018c.298-.005.723-.24.723-.708 0-.467-.51-.627-.89-.621-.377.006-1.474.01-1.474.01" style="fill:#fff;fill-opacity:1;fill-rule:nonzero;stroke:none;stroke-width:.352778" transform="translate(-1061.325 -1702.493) scale(11.24687)"/><path d="m103.023 155.634.007.558.419.006c.435.008.406-.58-.022-.576-.433.006-.404.012-.404.012" style="fill:#1c1e87;fill-opacity:1;fill-rule:nonzero;stroke:none;stroke-width:.352778" transform="translate(-1061.325 -1702.493) scale(11.24687)"/><path d="m97.127 165.683.44-.344-.24-.304-.437.342zm-.347 1.3c-.037.028-.066.043-.088.04-.022 0-.05-.023-.08-.063l-1.098-1.406c-.04-.05-.048-.09-.025-.12a.283.283 0 0 1 .05-.045l.068-.052c.036-.03.067-.043.09-.042.022.003.05.024.079.06l.392.505.225-.175c.039-.03.067-.044.092-.04.022.001.05.022.079.061l.158.203c.032.038.044.071.04.092-.003.023-.023.05-.062.078l-.222.174.393.506c.03.038.043.069.041.09-.004.024-.023.05-.062.08zm.608-.59c-.04.031-.07.043-.095.04-.024-.002-.051-.024-.079-.06l-.98-1.255c-.028-.036-.042-.067-.04-.089.002-.024.023-.05.06-.08l.092-.071c.037-.03.066-.043.09-.039.024.003.05.022.081.06l.063.08.437-.341-.062-.081c-.029-.036-.041-.068-.038-.09.001-.025.019-.05.057-.08l.093-.073c.038-.031.071-.044.094-.041.022.005.048.023.078.06l.98 1.255c.027.037.041.067.038.09-.002.024-.022.053-.059.08l-.095.075c-.063.05-.118.041-.17-.022l-.059-.076-.438.342.06.075c.05.065.045.12-.017.169zM99.914 168.754c.027-.052.015-.113-.039-.18a.665.665 0 0 0-.21-.16.642.642 0 0 0-.254-.075c-.086-.004-.143.02-.171.073-.028.054-.014.115.043.181a.63.63 0 0 0 .208.163.63.63 0 0 0 .253.074c.086.004.142-.02.17-.076m-.319-1.163a.215.215 0 0 0 .129.03c.038-.006.062-.022.077-.046.01-.027.008-.055-.008-.09a.247.247 0 0 0-.101-.087.243.243 0 0 0-.135-.031c-.037.004-.065.02-.077.045-.013.025-.011.057.008.09a.24.24 0 0 0 .107.09m1.436.508c-.02.042-.044.069-.066.074-.02.008-.053 0-.095-.02l-.098-.05-.232.455c-.018.034-.04.059-.062.063-.021.008-.056 0-.097-.02l-.054-.03c.106.144.122.286.049.429-.067.132-.206.193-.414.187a1.493 1.493 0 0 1-.609-.176 1.454 1.454 0 0 1-.495-.385c-.126-.163-.157-.31-.088-.446.08-.152.226-.223.44-.205.17.013.362.073.578.184.118.058.217.119.298.182l.524-1.028c.02-.041.042-.067.066-.074.022-.007.055 0 .096.022l.232.117c.044.02.07.044.076.067.007.021 0 .054-.022.097l-.128.252.096.05c.044.02.07.042.076.065.008.019 0 .05-.022.093zm-.825-.29c-.055.102-.157.156-.306.156a.979.979 0 0 1-.442-.121.98.98 0 0 1-.357-.288c-.09-.123-.108-.235-.057-.338.072-.142.208-.191.407-.153l-.153-.077c-.04-.02-.065-.044-.072-.065-.01-.025-.001-.056.018-.096l.044-.089c.02-.04.043-.064.065-.071.02-.007.052 0 .094.022l.235.12c.02-.043.042-.064.062-.07.021-.003.054.004.095.026l.235.118c.04.02.064.041.073.063.01.021.004.053-.014.09l.26.134c.043.022.068.044.075.066.008.022.003.054-.02.094l-.042.088c-.022.038-.044.062-.068.07-.026.008-.058 0-.095-.02l-.151-.074c.143.141.181.28.114.415M103.352 169.578c.005.046-.004.077-.02.097-.016.018-.049.03-.094.031l-.42.021c-.178.011-.272-.076-.283-.257l-.079-1.52c-.004-.046.004-.078.02-.096.016-.017.045-.028.09-.03l.5-.029c.045 0 .077.007.094.022.02.018.03.048.032.095l.005.122c.006.08-.033.124-.111.128l-.181.008.06 1.186.254-.012c.046-.003.079.004.097.02.018.016.027.046.031.09zm1.076.164c.004.082-.033.124-.115.128l-.173.008c-.081.004-.125-.033-.128-.114l-.052-.994-.126.006.053.994c.006.083-.033.124-.115.13l-.177.008c-.08.004-.123-.034-.129-.115l-.1-1.946c-.004-.082.033-.122.116-.126l.175-.011c.082-.003.125.035.13.115l.032.62.121-.006-.031-.62c-.004-.082.034-.123.117-.127l.172-.01c.081-.004.124.034.13.115zM106.767 167.995a.15.15 0 0 0 .083-.112.22.22 0 0 0-.024-.139.223.223 0 0 0-.098-.1.154.154 0 0 0-.14 0 .137.137 0 0 0-.079.107.22.22 0 0 0 .025.142.213.213 0 0 0 .098.102.139.139 0 0 0 .135 0m1.65.36c.035.074.019.127-.054.163l-.23.117c-.072.038-.129.02-.166-.052l-.144-.287-1.048.534c-.071.038-.127.02-.162-.049l-.049-.096c-.035-.07-.019-.124.053-.161l1.389-.707c.072-.036.127-.02.164.052zm-1.17-.836a.416.416 0 0 1-.016.42.799.799 0 0 1-.343.315.784.784 0 0 1-.444.09.425.425 0 0 1-.344-.24.38.38 0 0 1-.026-.27.427.427 0 0 1 .135-.22l-.168.086c-.04.02-.072.027-.097.02-.022-.007-.045-.031-.066-.074l-.044-.084c-.022-.043-.029-.075-.023-.098.007-.022.03-.046.071-.066l.236-.12c-.02-.036-.024-.066-.015-.085.005-.024.033-.045.074-.067l.233-.118c.041-.02.072-.028.095-.022.023.006.044.026.063.063l.224-.114c.038-.02.071-.026.096-.02.022.009.047.034.066.075l.046.085c.036.07.018.129-.055.163l-.17.087a.497.497 0 0 1 .263.02.34.34 0 0 1 .21.174m.757-.48c.035.074.019.129-.051.165l-.098.052.166.327c.038.071.018.126-.05.164l-.235.117c-.072.036-.124.019-.162-.054l-.492-.963c-.035-.07-.017-.123.058-.16l.228-.116c.072-.04.128-.022.164.051l.173.338.097-.05c.072-.036.124-.018.163.055zM111.422 165.144c.04.029.06.055.063.078.003.022-.01.053-.037.093l-1.035 1.423c-.029.04-.052.062-.078.066-.022.003-.051-.01-.091-.037l-.07-.05c-.04-.028-.06-.053-.064-.077-.006-.025.008-.055.036-.093l.065-.089-.63-.457a.245.245 0 0 1-.08-.077c-.011-.027 0-.062.029-.104l.094-.125c.031-.047.062-.07.086-.072.025 0 .06.017.108.051l.631.458.08-.11-.63-.458c-.063-.045-.09-.087-.083-.118a.172.172 0 0 1 .034-.065l.099-.137c.027-.04.053-.059.077-.06.025-.004.062.014.112.05l.63.458.414-.57c.026-.039.052-.06.076-.065.023-.003.052.008.092.036zm-1.1-.619c.306.223.52.407.644.553.031.035.047.066.048.085 0 .022-.01.051-.037.088l-.16.222c-.039.054-.07.073-.091.058a.25.25 0 0 1-.047-.057c-.1-.12-.271-.265-.514-.442l-.433-.314-.694.958c-.048.063-.104.073-.171.026l-.095-.07c-.066-.049-.077-.105-.028-.169l.918-1.265c.028-.038.055-.06.08-.062.023-.006.055.007.09.032zM96.093 161.929l-1.6.072-.033-.712a.487.487 0 0 1 .106-.35.443.443 0 0 1 .33-.146.442.442 0 0 1 .342.115c.086.081.131.195.137.34l.026.558.685-.031zm-1.478-.087.655-.03-.024-.524a.39.39 0 0 0-.095-.258c-.058-.06-.14-.09-.25-.084-.105.004-.185.042-.237.108a.38.38 0 0 0-.072.263zm0 0" style="fill:#000;fill-opacity:1;fill-rule:nonzero;stroke:none;stroke-width:.352778" transform="translate(-1061.325 -1702.493) scale(11.24687)"/><path d="M94.493 162.094a.093.093 0 0 1-.094-.09l-.032-.71a.577.577 0 0 1 .127-.418.535.535 0 0 1 .398-.176h.035a.52.52 0 0 1 .377.14c.102.1.156.236.164.404l.021.464.594-.026a.085.085 0 0 1 .066.023c.02.018.029.042.03.065l.009.153a.094.094 0 0 1-.09.098l-1.601.073zm.435-1.055h-.02c-.08.004-.137.027-.171.072-.039.048-.056.115-.051.201l.019.432.468-.02-.02-.432c-.004-.087-.026-.152-.07-.197-.035-.037-.086-.057-.155-.057M95.858 160.14a.874.874 0 0 1-.609.124c-.24-.029-.428-.116-.563-.264a.695.695 0 0 1-.177-.586.692.692 0 0 1 .31-.527c.167-.11.37-.151.61-.122.238.027.427.116.562.263a.696.696 0 0 1 .177.584.7.7 0 0 1-.31.528m-1.064-.233c.116.113.273.18.473.206a.792.792 0 0 0 .507-.089.54.54 0 0 0 .263-.427.538.538 0 0 0-.154-.475.802.802 0 0 0-.474-.207.79.79 0 0 0-.507.09.541.541 0 0 0-.263.424.545.545 0 0 0 .155.478" style="fill:#000;fill-opacity:1;fill-rule:nonzero;stroke:none;stroke-width:.352778" transform="translate(-1061.325 -1702.493) scale(11.24687)"/><path d="M95.391 160.366c-.05 0-.102-.003-.154-.01a.967.967 0 0 1-.62-.293.786.786 0 0 1-.2-.66.78.78 0 0 1 .35-.593c.185-.124.41-.17.672-.14.26.032.47.132.62.294a.79.79 0 0 1 .202.659.794.794 0 0 1-.35.595.926.926 0 0 1-.52.148m-.11-1.364a.64.64 0 0 0-.33.082.45.45 0 0 0-.22.357.456.456 0 0 0 .128.4c.1.096.241.158.42.179.04.004.079.007.118.007a.644.644 0 0 0 .33-.083.453.453 0 0 0 .218-.358.444.444 0 0 0-.128-.397.689.689 0 0 0-.419-.18 1.174 1.174 0 0 0-.117-.007M96.328 158.41l-1.521-.5.048-.146.66.218.298-.904-.66-.218.047-.144 1.522.5-.048.146-.737-.244-.298.904.737.244zm0 0" style="fill:#000;fill-opacity:1;fill-rule:nonzero;stroke:none;stroke-width:.352778" transform="translate(-1061.325 -1702.493) scale(11.24687)"/><path d="M96.328 158.504c-.01 0-.02-.003-.029-.005l-1.522-.5a.095.095 0 0 1-.06-.118l.048-.146a.095.095 0 0 1 .047-.054.097.097 0 0 1 .072-.005l.572.189.24-.727-.574-.188a.09.09 0 0 1-.053-.047.09.09 0 0 1-.006-.07l.048-.147a.094.094 0 0 1 .119-.059l1.521.502c.05.016.076.068.06.117l-.047.146a.091.091 0 0 1-.047.054.09.09 0 0 1-.072.005l-.649-.214-.238.726.647.214c.05.016.076.069.061.118l-.048.145a.09.09 0 0 1-.047.054.088.088 0 0 1-.043.01M96.857 156.882l-1.025-1.39.09-.145 1.695.306-.087.14-.527-.097-.383.621.324.426zm-.854-1.378.53.705.333-.536zm0 0" style="fill:#000;fill-opacity:1;fill-rule:nonzero;stroke:none;stroke-width:.352778" transform="translate(-1061.325 -1702.493) scale(11.24687)"/><path d="M96.857 156.976a.094.094 0 0 1-.075-.038l-1.024-1.39a.094.094 0 0 1-.006-.106l.09-.144a.093.093 0 0 1 .096-.043l1.695.306a.093.093 0 0 1 .062.14l-.085.14a.094.094 0 0 1-.097.044l-.464-.084-.316.51.286.376c.023.03.024.073.005.106l-.087.139a.096.096 0 0 1-.076.044zm-.632-1.332.302.4.188-.305zM97.843 155.39l-1.089-1.175.125-.116 1.607.36.003-.003-.92-.995.111-.103 1.089 1.175-.126.117-1.605-.36-.004.002.922.995zm0 0" style="fill:#000;fill-opacity:1;fill-rule:nonzero;stroke:none;stroke-width:.352778" transform="translate(-1061.325 -1702.493) scale(11.24687)"/><path d="M97.843 155.484a.093.093 0 0 1-.068-.03l-1.089-1.176a.094.094 0 0 1 .005-.132l.125-.116a.093.093 0 0 1 .084-.022l1.32.296-.72-.778a.095.095 0 0 1 .004-.134l.113-.103a.097.097 0 0 1 .067-.025.094.094 0 0 1 .065.03l1.089 1.177a.093.093 0 0 1 .024.067.093.093 0 0 1-.03.064l-.125.117a.093.093 0 0 1-.084.022l-1.32-.296.72.778c.017.02.026.043.025.068a.09.09 0 0 1-.03.065l-.112.103a.09.09 0 0 1-.063.025m.701-.952.072.016.02-.02-.055-.058a.094.094 0 0 1-.029.056l-.008.006m-1.658-.311.055.059a.09.09 0 0 1 .03-.055c.002-.001.005-.006.008-.007l-.072-.017zM100.061 152.9l.363.729-.098.05-.149-.253-.003.001c.003.241-.114.42-.353.54a.7.7 0 0 1-.612.03.875.875 0 0 1-.436-.443c-.106-.215-.137-.42-.089-.616a.7.7 0 0 1 .395-.468.712.712 0 0 1 .456-.076c.153.029.28.114.38.255l-.138.069a.403.403 0 0 0-.293-.184.552.552 0 0 0-.348.053.549.549 0 0 0-.314.391.783.783 0 0 0 .087.509c.09.179.207.304.353.376.16.077.328.073.501-.014a.532.532 0 0 0 .295-.328c.04-.14.021-.29-.059-.445l-.49.242-.057-.115zm0 0" style="fill:#000;fill-opacity:1;fill-rule:nonzero;stroke:none;stroke-width:.352778" transform="translate(-1061.325 -1702.493) scale(11.24687)"/><path d="M99.477 154.147a.771.771 0 0 1-.305-.065c-.204-.087-.366-.25-.483-.486a.978.978 0 0 1-.095-.68.787.787 0 0 1 .443-.529.801.801 0 0 1 .516-.085.689.689 0 0 1 .438.293c.015.022.02.051.015.078a.104.104 0 0 1-.05.06l-.136.068a.094.094 0 0 1-.121-.033.311.311 0 0 0-.229-.141.454.454 0 0 0-.292.044.45.45 0 0 0-.263.327.702.702 0 0 0 .078.448.7.7 0 0 0 .31.333c.133.065.272.06.42-.014a.437.437 0 0 0 .246-.27.476.476 0 0 0-.015-.292l-.403.2a.094.094 0 0 1-.125-.043l-.058-.117a.089.089 0 0 1-.004-.07.09.09 0 0 1 .047-.054l.609-.303a.092.092 0 0 1 .072-.004.09.09 0 0 1 .053.047l.363.729a.093.093 0 0 1-.043.125l-.098.05a.093.093 0 0 1-.122-.038l-.022-.037a.695.695 0 0 1-.36.361.844.844 0 0 1-.386.098M102.38 153.042c-.12-.097-.187-.241-.206-.434l-.097-1.021.15-.016.096.988c.031.342.205.498.515.468.314-.03.453-.215.422-.557l-.095-.987.151-.015.098 1.021c.018.193-.022.349-.121.466-.1.116-.247.183-.443.201-.193.02-.35-.02-.47-.114" style="fill:#000;fill-opacity:1;fill-rule:nonzero;stroke:none;stroke-width:.352778" transform="translate(-1061.325 -1702.493) scale(11.24687)"/><path d="M102.76 153.254a.685.685 0 0 1-.437-.14c-.14-.11-.22-.279-.242-.497l-.097-1.022a.085.085 0 0 1 .02-.068.088.088 0 0 1 .064-.033l.151-.015a.092.092 0 0 1 .102.084l.095.988c.032.342.204.386.35.386.021 0 .042 0 .064-.003.13-.012.22-.054.273-.125.056-.073.077-.184.063-.33l-.094-.988a.092.092 0 0 1 .083-.102l.152-.013a.088.088 0 0 1 .069.02c.019.015.031.039.033.064l.099 1.02c.02.218-.028.399-.145.534-.114.135-.284.215-.503.234a.885.885 0 0 1-.1.006M103.957 153.079l.332-1.568.167.036.632 1.52h.004l.281-1.326.15.032-.333 1.568-.167-.036-.632-1.52h-.004l-.281 1.326zm0 0" style="fill:#000;fill-opacity:1;fill-rule:nonzero;stroke:none;stroke-width:.352778" transform="translate(-1061.325 -1702.493) scale(11.24687)"/><path d="M105.192 153.435a.074.074 0 0 1-.021-.003l-.167-.035a.094.094 0 0 1-.066-.056l-.52-1.249-.22 1.038a.095.095 0 0 1-.111.073l-.15-.033a.085.085 0 0 1-.059-.04.09.09 0 0 1-.012-.07l.33-1.569a.094.094 0 0 1 .112-.071l.167.035c.03.006.055.027.068.055l.52 1.25.218-1.039a.094.094 0 0 1 .112-.071l.149.031c.024.006.047.02.059.04.014.021.018.046.014.07l-.334 1.569a.09.09 0 0 1-.038.06.1.1 0 0 1-.051.014m-.831-1.812-.017.079a.105.105 0 0 1 .066-.008c.003 0 .004.003.006.003l-.027-.068zM105.732 153.542l.56-1.502.143.054-.56 1.5zm0 0" style="fill:#000;fill-opacity:1;fill-rule:nonzero;stroke:none;stroke-width:.352778" transform="translate(-1061.325 -1702.493) scale(11.24687)"/><path d="M105.875 153.69a.098.098 0 0 1-.033-.007l-.143-.054a.094.094 0 0 1-.053-.048.099.099 0 0 1-.003-.072l.561-1.502a.095.095 0 0 1 .12-.055l.144.053a.093.093 0 0 1 .055.12l-.561 1.502a.095.095 0 0 1-.087.062M106.78 154.005l.242-1.694.143.08-.226 1.508.003.003 1.138-1.014.144.077-1.289 1.124zm0 0" style="fill:#000;fill-opacity:1;fill-rule:nonzero;stroke:none;stroke-width:.352778" transform="translate(-1061.325 -1702.493) scale(11.24687)"/><path d="M106.935 154.183a.098.098 0 0 1-.044-.011l-.156-.086a.093.093 0 0 1-.048-.095l.242-1.692a.093.093 0 0 1 .05-.072.096.096 0 0 1 .087.003l.143.079a.09.09 0 0 1 .048.095l-.19 1.26.951-.846a.093.093 0 0 1 .108-.013l.141.077a.097.097 0 0 1 .049.072.095.095 0 0 1-.032.081l-1.287 1.125a.096.096 0 0 1-.062.023M107.748 154.592l1.042-1.218.842.72-.086.097-.725-.619-.376.44.68.58-.086.1-.678-.58-.412.48.733.627-.084.1zm0 0" style="fill:#000;fill-opacity:1;fill-rule:nonzero;stroke:none;stroke-width:.352778" transform="translate(-1061.325 -1702.493) scale(11.24687)"/><path d="M108.597 155.412a.089.089 0 0 1-.06-.023l-.848-.727a.094.094 0 0 1-.011-.132l1.041-1.218a.094.094 0 0 1 .131-.01l.842.72a.095.095 0 0 1 .011.132l-.085.097a.09.09 0 0 1-.063.033.092.092 0 0 1-.07-.022l-.653-.56-.254.299.607.52a.095.095 0 0 1 .011.133l-.085.098a.099.099 0 0 1-.065.033.094.094 0 0 1-.067-.022l-.608-.52-.29.339.662.565c.02.017.032.04.033.065a.09.09 0 0 1-.022.067l-.084.1a.098.098 0 0 1-.073.033M108.885 155.634l1.302-.934.429.595c.084.117.122.23.12.336-.003.121-.062.222-.175.303a.438.438 0 0 1-.265.09.358.358 0 0 1-.25-.105l-.003.003c.084.155.04.3-.13.438a3.895 3.895 0 0 0-.167.138.37.37 0 0 0-.124.163l-.098-.137a.307.307 0 0 1 .079-.099c0-.003.036-.029.1-.081a1.37 1.37 0 0 0 .225-.232c.06-.08.047-.18-.037-.299l-.34-.47-.576.415zm1.286-.735-.512.368.332.463a.357.357 0 0 0 .213.15.284.284 0 0 0 .242-.05c.084-.062.131-.134.14-.214a.367.367 0 0 0-.083-.254zm0 0" style="fill:#000;fill-opacity:1;fill-rule:nonzero;stroke:none;stroke-width:.352778" transform="translate(-1061.325 -1702.493) scale(11.24687)"/><path d="M109.622 156.754a.096.096 0 0 1-.076-.04l-.098-.136a.091.091 0 0 1-.01-.09.384.384 0 0 1 .097-.127c.014-.013.042-.035.108-.09.085-.07.156-.141.21-.215.014-.018.05-.065-.038-.188l-.284-.394-.503.36c-.041.03-.099.02-.13-.021l-.089-.124a.097.097 0 0 1-.015-.07.085.085 0 0 1 .037-.06l1.3-.937c.044-.03.102-.02.132.023l.428.596a.625.625 0 0 1 .137.394.466.466 0 0 1-.212.375.538.538 0 0 1-.316.108.423.423 0 0 1-.123-.018c-.008.103-.063.216-.205.333l-.161.131c-.081.073-.095.11-.097.12a.098.098 0 0 1-.074.069h-.018m.167-1.465.278.387a.27.27 0 0 0 .159.114.197.197 0 0 0 .047.006c.04 0 .078-.014.118-.042.062-.045.097-.093.102-.146.006-.058-.017-.122-.066-.19l-.277-.388zM109.946 157.113c.043-.155.154-.264.333-.326l.058.14c-.268.104-.337.32-.205.649.041.1.102.179.18.234a.279.279 0 0 0 .282.036c.128-.051.177-.19.144-.414l-.052-.364c-.036-.245.037-.405.223-.48a.396.396 0 0 1 .385.03c.102.065.182.17.24.314a.675.675 0 0 1 .042.429.442.442 0 0 1-.282.307l-.058-.142a.341.341 0 0 0 .205-.23.473.473 0 0 0-.027-.313c-.101-.248-.25-.332-.446-.254-.114.047-.16.152-.136.317l.057.399c.04.282-.04.463-.236.543a.39.39 0 0 1-.408-.047.79.79 0 0 1-.247-.35c-.074-.184-.09-.343-.052-.478" style="fill:#000;fill-opacity:1;fill-rule:nonzero;stroke:none;stroke-width:.352778" transform="translate(-1061.325 -1702.493) scale(11.24687)"/><path d="M110.478 158.117a.476.476 0 0 1-.29-.102.877.877 0 0 1-.275-.39c-.083-.202-.1-.383-.057-.539.051-.183.184-.314.392-.387.048-.016.099.007.118.054l.057.14c.01.024.01.05 0 .073a.098.098 0 0 1-.053.05c-.097.037-.158.088-.187.157-.039.088-.026.211.036.367a.424.424 0 0 0 .147.193c.065.045.126.053.192.027.031-.012.125-.052.088-.314l-.052-.364c-.054-.365.122-.517.28-.58a.496.496 0 0 1 .47.037.73.73 0 0 1 .276.359c.07.172.086.336.047.486a.535.535 0 0 1-.339.37.093.093 0 0 1-.121-.052l-.058-.14a.096.096 0 0 1 .05-.122.25.25 0 0 0 .151-.169.377.377 0 0 0-.023-.254c-.09-.223-.192-.223-.225-.223a.261.261 0 0 0-.1.022c-.03.013-.103.042-.078.217l.057.398c.058.41-.128.576-.294.643a.559.559 0 0 1-.21.043M110.366 158.628l1.56-.368.036.15-1.56.369zm0 0" style="fill:#000;fill-opacity:1;fill-rule:nonzero;stroke:none;stroke-width:.352778" transform="translate(-1061.325 -1702.493) scale(11.24687)"/><path d="M110.402 158.87a.094.094 0 0 1-.09-.07l-.037-.15a.093.093 0 0 1 .07-.112l1.56-.369a.099.099 0 0 1 .07.011c.022.013.037.035.042.058l.036.15c.011.049-.02.1-.07.11l-1.559.372h-.022M111.97 159.032l.13-.014.139 1.263-.13.015-.062-.555-1.463.16-.015-.15 1.463-.163zm0 0" style="fill:#000;fill-opacity:1;fill-rule:nonzero;stroke:none;stroke-width:.352778" transform="translate(-1061.325 -1702.493) scale(11.24687)"/><path d="M112.11 160.388a.092.092 0 0 1-.093-.083l-.05-.461-1.372.15a.088.088 0 0 1-.069-.02.091.091 0 0 1-.034-.063l-.017-.151a.093.093 0 0 1 .083-.104l1.371-.151-.051-.462a.093.093 0 0 1 .02-.069.098.098 0 0 1 .061-.034l.131-.015a.103.103 0 0 1 .068.02c.019.017.031.039.035.062l.138 1.264a.093.093 0 0 1-.082.103l-.13.014h-.01M110.638 161.309l.66.018.959-.605-.004.182-.827.505.798.547-.006.18-.925-.656-.66-.018zm0 0" style="fill:#000;fill-opacity:1;fill-rule:nonzero;stroke:none;stroke-width:.352778" transform="translate(-1061.325 -1702.493) scale(11.24687)"/><path d="M112.218 162.23a.098.098 0 0 1-.053-.016l-.903-.642-.63-.018a.09.09 0 0 1-.09-.095l.002-.153a.105.105 0 0 1 .03-.066.102.102 0 0 1 .067-.025l.63.018.937-.59a.094.094 0 0 1 .096-.003c.03.018.048.05.047.084l-.006.182a.09.09 0 0 1-.044.077l-.704.43.68.466a.097.097 0 0 1 .04.08l-.005.182a.09.09 0 0 1-.052.08.086.086 0 0 1-.041.01" style="fill:#000;fill-opacity:1;fill-rule:nonzero;stroke:none;stroke-width:.352778" transform="translate(-1061.325 -1702.493) scale(11.24687)"/></svg>