<svg xmlns="http://www.w3.org/2000/svg" xmlns:xlink="http://www.w3.org/1999/xlink" viewBox="0 0 88.799 88.797"><defs><linearGradient id="a" x1="35.21" x2="35.21" y1="71.37" y2="28.934" gradientUnits="userSpaceOnUse"><stop offset="0" stop-color="#f26521"/><stop offset="0.27" stop-color="#f4791f"/><stop offset="0.5" stop-color="#f7941c"/><stop offset="0.83" stop-color="#faa619"/></linearGradient><linearGradient xlink:href="#a" id="c" x1="31.236" x2="31.236" y1="63.136" y2="35.136"/><linearGradient xlink:href="#a" id="d" x1="53.808" x2="53.808" y1="71.389" y2="28.934"/><linearGradient xlink:href="#a" id="e" x1="57.782" x2="57.782" y1="63.168" y2="35.136"/><radialGradient id="b" cx="1807.063" cy="1258.254" r="64.05" gradientTransform="translate(-1785.801 -1236.657)" gradientUnits="userSpaceOnUse"><stop offset="0.11" stop-color="#33a3dc"/><stop offset="0.5" stop-color="#0073bc"/><stop offset="0.95" stop-color="#1a5b8e"/></radialGradient></defs><path d="M44.4 76.092A31.693 31.693 0 1 1 76.089 44.4 31.693 31.693 0 0 1 44.4 76.092Z" style="fill:url(#b)"/><path d="M12.293 44.4A32.106 32.106 0 1 0 44.4 12.293 32.141 32.141 0 0 0 12.293 44.4Zm.832 0A31.273 31.273 0 1 1 44.4 75.674 31.309 31.309 0 0 1 13.125 44.4Z" style="fill:#b1babf"/><path d="m19.043 70.82 1.291-1.242a.1.1 0 0 0-.02-.021l-.509-.528c-.028.026-3.159 3.049-3.188 3.074l.529.549c.028-.029 1.415-1.365 1.415-1.365l.537.555c.027-.03.455-.438.482-.465l-.537-.557ZM17.74 69.949a1.245 1.245 0 0 0 .367-1.012c.3.311.516.536.526.543.027-.023.441-.425.469-.447-.028-.031-.877-.91-.877-.91l.446-.432-.019-.021-.517-.537c-.028.025-.446.429-.446.429s-.855-.88-.882-.912l-.469.453c.008.01.221.229.51.53a1.261 1.261 0 0 0-1.024.334 1.381 1.381 0 0 0 1.916 1.982Zm-1.394-1.443a.628.628 0 1 1-.032.9.638.638 0 0 1 .032-.9ZM15.445 70.467a.205.205 0 0 0-.019-.02s-.5-.521-.528-.547c-.029.026-1.046 1.012-1.046 1.012a.536.536 0 0 0 .048.725s2.087 2.162 2.118 2.191c.027-.021.453-.435.482-.465-.029-.025-1.957-2.025-1.957-2.025s.875-.838.902-.871ZM37.408 78.271s-.34-.06-.377-.064l-.092.516-2.039.777.176.586c.2-.072 2.086-.735 2.129-.746h.01l.01.006c.037.029 1.574 1.3 1.738 1.437.025-.033.351-.461.371-.49-.029-.027-1.645-1.434-1.645-1.434l.092-.519ZM39.516 81.877c.005-.037.107-.607.113-.647a.136.136 0 0 1-.027 0l-5.3-.946-.117.647 2.291.408-.067.369s-1.385-.248-1.426-.252c0 .037-.1.561-.1.6l2.81.5-.07.4-2.812-.5c0 .024-.112.633-.19 1.076a.537.537 0 0 0 .465.559l3.156.564c.006-.039.1-.576.11-.613l-2.856-.51.067-.363 2.722.483c.008-.04.27-1.516.28-1.557-.041-.006-1.4-.248-1.4-.248l.067-.369ZM72.388 69.488l-.527.512 1.391 1.428-.441.429-1.391-1.423c-.027.025-.518.5-.543.531l1.387 1.426-.846.826c.022.029.438.453.465.48l3.763-3.666-.466-.476c-.032.027-1.38 1.345-1.38 1.345l-1.392-1.425Z" style="fill:#1a5b8e"/><path d="M68.967 69.811c.025.029.437.453.465.48l2.3-2.236s2.007 2.062 2.037 2.09c.027-.022.5-.489.533-.518l-2.178-2.236a.539.539 0 0 0-.725.054s-2.405 2.338-2.432 2.366ZM45.037 81.715h-.732v1.99h-.616v-1.99h-.761v1.99h-1.186v.668H47v-.668h-1.93v-1.99Z" style="fill:#1a5b8e"/><path d="M42.361 79.555v.67h3.205v2.92h.745v-3.122a.539.539 0 0 0-.555-.468ZM25.076 73.445s-2.379-1.681-2.412-1.707c-.021.033-.365.518-.387.547l2.423 1.721-.923 1.306S20.8 73.2 20.762 73.18c-.02.031-.366.513-.385.545.033.027 1.826 1.293 1.826 1.293l-.482.679s-1.188-.842-1.221-.863l-.387.547c.035.023 2.42 1.713 2.42 1.713l-.924 1.3c.034.02.592.418.623.44.024-.031.957-1.352 1.014-1.434h-.014l.034-.041a.541.541 0 0 0-.188-.7l-.726-.515.482-.678s1.8 1.273 1.834 1.293l.385-.543a49.225 49.225 0 0 0-.653-.463l1.047-1.477a.54.54 0 0 0-.187-.7ZM58.42 76.32c.016.037 2.629 5.506 2.646 5.545.038-.017.64-.306.676-.324-.02-.037-1.582-3.311-1.582-3.311l.416-.2s1.564 3.278 1.581 3.317c.036-.018.654-.313.689-.326-.02-.038-2.631-5.51-2.649-5.547l-.687.326c.015.039.771 1.617.771 1.617l-.416.2L59.094 76c-.033.014-.641.3-.674.32Z" style="fill:#1a5b8e"/><path d="m58.055 76.787-1.926.918c.016.037 1.467 3.072 1.467 3.072a.533.533 0 0 0 .7.18l1.947-.93c-.017-.031-.279-.58-.3-.615-.035.02-1.76.844-1.76.844L57.106 78s1.23-.59 1.266-.6c-.018-.038-.278-.582-.294-.618ZM66.951 72.691l-.859-1.2a.165.165 0 0 1-.022.018s-.566.4-.6.424c.022.033 2.112 2.965 2.135 3 .029-.024.588-.422.618-.44l-.888-1.25s.668-.474.7-.5c-.02-.031-.365-.513-.388-.547l-.696.495ZM66.178 74.037a1.284 1.284 0 0 0-.948-.516c.35-.248.606-.431.618-.437-.027-.031-.359-.5-.379-.529-.033.021-1.031.73-1.031.73s-.334-.474-.358-.5a.116.116 0 0 0-.024.016s-.576.408-.607.433l.36.5s-1 .717-1.034.739c.024.029.358.5.379.531l.6-.426a1.257 1.257 0 0 0 .178 1.063 1.383 1.383 0 0 0 2.248-1.6ZM64.543 75.2a.629.629 0 1 1 1.023-.73.629.629 0 1 1-1.023.73ZM68.7 75.148a.53.53 0 0 0-.722-.058l-2.358 1.678c.024.033.365.515.391.544l2.189-1.558.859 1.2c.03-.02.589-.418.62-.441ZM54.273 82.228a.537.537 0 0 0-.638-.345l-.2.043-.127-.615s1.427-.3 1.467-.3c-.006-.039-.125-.608-.132-.643h-.029s-5.07 1.047-5.111 1.057l.133.642c.039-.011 1.453-.3 1.453-.3l.129.617-.668.138c.008.036.126.6.133.643.041-.01 2.89-.6 2.89-.6s.3 1.448.307 1.487c.037-.008.709-.149.746-.153Zm-2.32-.019-.123-.6.727-.148.127.615-.727.148Z" style="fill:#1a5b8e"/><path d="M50.32 79.654a1.458 1.458 0 1 0 1.149-1.631 1.41 1.41 0 0 0-1.149 1.631Zm.746-.152a.695.695 0 1 1 .825.562.7.7 0 0 1-.825-.564ZM32.352 76.811s-.651-.276-.686-.293l-2.432 5.648.713.305 2.43-5.647ZM29.965 78.162l.555-1.289a.536.536 0 0 0-.327-.648s-1.984-.854-2.022-.872c-.015.038-.255.594-.271.631l1.811.78-.471 1.093-2.457.983.274.662 2.629-1.07a.505.505 0 0 0 .279-.27Z" style="fill:#1a5b8e"/><path d="M0 44.4A44.4 44.4 0 1 0 44.4 0 44.45 44.45 0 0 0 0 44.4Zm1.279 0A43.121 43.121 0 1 1 44.4 87.521 43.169 43.169 0 0 1 1.279 44.4Z" style="fill:#b1babf"/><path d="M27.462 28.934v3.1h12.4v13.445a1754.954 1754.954 0 0 1-3.1-3.053v-7.29h-3.1v8.59l5.083 5-4.625 4.556-.461.453v12.214q.867.69 1.784 1.332c.432.3.869.589 1.315.872V55.032l3.1-3.052v17.942c.373.189.745.382 1.116.558.635.31 1.3.6 1.985.89V28.934Z" style="fill:url(#a)"/><path d="M35.011 48.722s-3.733-3.655-4.452-4.357v-9.229h-3.1v10.533s2 1.962 3.116 3.053c-1.112 1.084-3.116 3.046-3.116 3.046v7.423a23.894 23.894 0 0 0 2.5 3.31c.192.212.389.425.592.635V53.072c.727-.7 4.46-4.35 4.46-4.35Z" style="fill:url(#c)"/><path d="m54.9 53.282-4.624-4.552 5.081-5v-8.59h-3.1v7.29c-.406.4-1.825 1.8-3.1 3.053v-13.45h12.4v-3.1h-15.5v42.456c.694-.294 1.368-.6 2.011-.907.373-.178.731-.359 1.088-.543V51.98l3.1 3.052v13.139a36.873 36.873 0 0 0 3.099-2.2V53.735Z" style="fill:url(#d)"/><path d="M58.44 48.722c1.11-1.091 3.118-3.053 3.118-3.053V35.136h-3.1v9.229l-4.45 4.357 4.45 4.35v10.1c.21-.22.417-.438.614-.663a24.515 24.515 0 0 0 2.487-3.27v-7.471Z" style="fill:url(#e)"/><path d="M45.032 21.193h-1.113a.985.985 0 0 0-.978.987v4.485h.952V24.73h1.165v1.935h.958V22.18a.988.988 0 0 0-.984-.987Zm.026 2.586h-1.165v-1.548c0-.077.093-.079.1-.079h.958s.1 0 .1.079ZM29.353 21.193v1.1c-.023.026-.871.873-1.162 1.165v-2.265h-.951v5.472h.951v-2.527l.667.665.5.494v1.366h.961v-1.751L29.2 23.793l1.119-1.112v-1.488h-.961ZM33.285 21.193h-1.112a.982.982 0 0 0-.974.987v3.5a.948.948 0 0 0 .974.985h1.112a.987.987 0 0 0 .986-.985v-3.5a.988.988 0 0 0-.986-.987Zm.028 4.432a.1.1 0 0 1-.1.088h-.958a.13.13 0 0 1-.1-.128v-3.337a.091.091 0 0 1 .088-.1h.972c.011 0 .1 0 .1.079ZM39.166 21.193v5.472h3.074v-.952h-2.124v-1.446h1.668v-.95h-1.668v-1.165h2.124v-.959h-3.074ZM35.156 21.193v5.472h.95v-2.4h.919a.245.245 0 0 1 .246.241v2.157h.958v-2.242a.737.737 0 0 0-.344-.628.73.73 0 0 0 .344-.625v.006-1a.987.987 0 0 0-.984-.987Zm2.115 1.842a.273.273 0 0 1-.292.281h-.873v-1.164h1.083a.091.091 0 0 1 .082.1Z" style="fill:#fff"/><path d="M47.125 21.193v.959h1.162v4.514h.949v-4.514h1.137v-.959h-3.248ZM50.979 21.193v5.473h3.071v-.952h-2.123v-1.447H53.6v-.948h-1.673v-1.167h2.123v-.959h-3.071ZM56.768 21.193h-1.112a.983.983 0 0 0-.977.985v3.5a.95.95 0 0 0 .977.986h1.112a.986.986 0 0 0 .984-.986v-.532h-.958v.477a.094.094 0 0 1-.1.089h-.957a.131.131 0 0 1-.1-.127v-3.337a.094.094 0 0 1 .09-.1h.971c.01 0 .1 0 .1.081v.478h.958v-.533a.986.986 0 0 0-.988-.981ZM61.5 21.193h-.9v2.126h-1.166v-2.126h-.951v5.473h.951v-2.4H60.6v2.4h.958v-5.473Z" style="fill:#f7941c"/><path d="m11.526 57.185.255.585-1.482.642-.506 1.282.635.25 1.933-.839.253.584-4.677 2.032-.254-.584 1.93-.838-1.913-.756-.6.257-.254-.585.825-.359 1.534.606.606-1.535ZM9.627 54.064a.786.786 0 0 1 .628.053.8.8 0 0 1 .4.479l.332 1.04a.791.791 0 0 1-.53 1.03l-3.294 1.055a.8.8 0 0 1-.623-.05.783.783 0 0 1-.407-.482L5.8 56.148a.8.8 0 0 1 .05-.623.787.787 0 0 1 .481-.407Zm.141.624-3.191 1.021a.217.217 0 0 0-.148.314l.293.92a.22.22 0 0 0 .317.149l3.138-1a.273.273 0 0 0 .159-.132.236.236 0 0 0 .023-.194l-.289-.9a.217.217 0 0 0-.302-.178ZM9.632 50.364l.131.624-2.063.439c-.166.035-.232.13-.2.284l.253 1.194 2.316-.492.133.623L5.211 54.1l-.4-1.869a.79.79 0 0 1 .115-.622.8.8 0 0 1 .517-.351l1.069-.227a.82.82 0 0 1 .533.055.82.82 0 0 1 .446-.264Zm-3.076 1.3-.908.193c-.166.035-.233.13-.2.284L5.7 53.34l1.425-.3-.249-1.175a.244.244 0 0 0-.118-.157.272.272 0 0 0-.202-.039ZM9.206 46.834l.294 2.715-5.069.551-.295-2.716.634-.069L5 49.4l1.449-.156-.182-1.644.633-.07.178 1.639 1.72-.187-.226-2.082ZM9.139 43.3v.637l-1.912.014.011 1.457 1.915-.008.007.637-4.279.032a.82.82 0 0 1-.828-.814l-.007-1.092a.8.8 0 0 1 .233-.58.784.784 0 0 1 .58-.246Zm-2.545.656-1.675.013c-.158 0-.237.087-.236.256l.008.947c0 .17.08.254.238.253l1.676-.012ZM8.955 37.6a.812.812 0 0 1 .684.933l-.166 1.08a.816.816 0 0 1-.934.686l-4.229-.651.1-.63 4.176.643c.156.025.247-.048.273-.216L9 38.509c.026-.167-.037-.264-.194-.288l-4.176-.643.1-.63ZM10.607 34.3l-.2.775-3.771.364 3.447.888-.158.617-4.937-1.27.187-.725 3.925-.378-3.592-.925.159-.619ZM11.149 32.709l-.206.6-4.825-1.639.205-.6ZM10.967 28.558l1.188 1.6-.286.67-1.977.244-3.1-1.328.25-.586 2.949 1.261 1.443-.17-.887-1.178-2.937-1.255.251-.586ZM14.241 26.091l-1.323 2.389-4.461-2.468 1.322-2.391.558.31-1.014 1.832 1.275.706.8-1.444.558.309-.8 1.443 1.514.837 1.014-1.832ZM16.227 23.154l-.363.524-1.735-1.2a.217.217 0 0 0-.344.049l-.7 1 1.944 1.35-.363.523-4.19-2.906 1.092-1.571a.777.777 0 0 1 .529-.342.8.8 0 0 1 .61.136l.9.623a.815.815 0 0 1 .324.425.834.834 0 0 1 .5.145Zm-3.055-1.345-.764-.529a.218.218 0 0 0-.345.048l-.7 1 1.2.831.686-.987a.236.236 0 0 0 .034-.194.282.282 0 0 0-.111-.169ZM17.87 19.912a.8.8 0 0 1 .286.556.779.779 0 0 1-.2.6l-.711.832a.793.793 0 0 1-.555.285.783.783 0 0 1-.6-.2l-.208-.177.415-.485.166.142a.218.218 0 0 0 .346-.039l.626-.735a.217.217 0 0 0-.039-.345l-.941-.8a.218.218 0 0 0-.347.04l-.661.775a.8.8 0 0 1-.556.286.779.779 0 0 1-.6-.2l-.831-.71a.8.8 0 0 1-.286-.555.785.785 0 0 1 .2-.6l.709-.83a.814.814 0 0 1 1.155-.09l.207.176-.412.485-.167-.141a.217.217 0 0 0-.346.04l-.628.733a.218.218 0 0 0 .041.346l.733.627a.218.218 0 0 0 .346-.04l.662-.776a.8.8 0 0 1 .556-.285.787.787 0 0 1 .6.2ZM19.683 19.254l-.452.451-3.605-3.6.449-.452ZM19.42 13.489l-.785.68 2.92 3.372-.48.418-2.922-3.373-.8.691-.418-.48L19 13.008ZM23.221 12.287a.785.785 0 0 1 .142.614.8.8 0 0 1-.334.529l-.178.127 1.372 1.928-.519.369-1.372-1.928-.194.137a.794.794 0 0 1-.607.142.78.78 0 0 1-.531-.335l-1.109-1.557.519-.37 1.078 1.513a.218.218 0 0 0 .345.046l.771-.55a.219.219 0 0 0 .071-.341L21.594 11.1l.519-.37ZM29.624 11.454a.792.792 0 0 1 .043.63.8.8 0 0 1-.413.469l-.979.485a.794.794 0 0 1-1.1-.37l-1.538-3.1a.8.8 0 0 1-.045-.623.779.779 0 0 1 .415-.474l.979-.487a.8.8 0 0 1 .623-.045.785.785 0 0 1 .475.416Zm-.6.234-1.488-3a.219.219 0 0 0-.334-.1l-.864.429a.218.218 0 0 0-.1.334l1.469 2.949a.272.272 0 0 0 .155.137.233.233 0 0 0 .194 0l.849-.421a.218.218 0 0 0 .123-.328ZM31.719 6.725l-1.959.738.513 1.363 1.542-.581.226.6-1.541.578.836 2.216-.6.224-1.8-4.771 2.556-.963ZM37.631 5.218l-1.016.214.916 4.368-.623.131-.917-4.365-1.034.216-.131-.624 2.674-.564ZM41.891 9.18l-2.713.3-.567-5.068 2.715-.3.071.635-2.083.232.162 1.448 1.639-.184.07.634-1.636.183.191 1.719 2.081-.232ZM45.442 8.283a.814.814 0 0 1-.811.827l-1.093.011a.792.792 0 0 1-.827-.81l-.033-3.46a.8.8 0 0 1 .23-.581.784.784 0 0 1 .581-.248l1.092-.01a.8.8 0 0 1 .581.231.786.786 0 0 1 .246.58v.274l-.638.006v-.219c0-.157-.086-.236-.257-.234l-.964.009c-.158 0-.236.088-.236.257l.033 3.3a.264.264 0 0 0 .08.19.233.233 0 0 0 .178.08l.947-.009c.169 0 .254-.081.252-.239v-.221l.636-.007ZM48.984 9.387l-.634-.059.216-2.357-1.45-.133L46.9 9.2l-.634-.058.466-5.078.634.058-.192 2.078 1.451.133.191-2.086.635.059ZM52.47 10.023l-.787-.153-.589-3.741-.681 3.494-.625-.123.973-5 .735.143.613 3.9.708-3.643.626.122ZM56.115 10.205a.782.782 0 0 1-.4.493.8.8 0 0 1-.621.067l-1.049-.3a.8.8 0 0 1-.559-1.015l.963-3.324a.817.817 0 0 1 1.015-.559l1.048.3a.793.793 0 0 1 .49.389.784.784 0 0 1 .07.627Zm-.6-.229.932-3.219c.045-.151-.016-.25-.178-.3l-.927-.269c-.152-.044-.251.017-.3.179l-.917 3.166a.266.266 0 0 0 .021.206.236.236 0 0 0 .148.128l.909.264a.217.217 0 0 0 .314-.155ZM58.871 12.189l-2.193-.889L58.6 6.573l.59.24-1.68 4.132 1.6.654ZM62.337 13.02a.79.79 0 0 1-.484.406.8.8 0 0 1-.622-.058l-.97-.5a.791.791 0 0 1-.347-1.105l1.6-3.07a.79.79 0 0 1 .477-.4.781.781 0 0 1 .628.055l.969.5a.793.793 0 0 1 .4.476.772.772 0 0 1-.055.628Zm-.54-.343 1.545-2.972a.218.218 0 0 0-.117-.328l-.856-.445a.216.216 0 0 0-.327.117l-1.522 2.924a.269.269 0 0 0-.019.205.236.236 0 0 0 .12.155l.84.437a.22.22 0 0 0 .339-.093ZM65.405 14.979a.785.785 0 0 1-.521.355.8.8 0 0 1-.614-.119l-.913-.6a.794.794 0 0 1-.235-1.134l1.9-2.892a.815.815 0 0 1 1.135-.235l.914.6a.813.813 0 0 1 .234 1.135l-.15.227-.531-.35.119-.182a.219.219 0 0 0-.083-.339l-.807-.529a.217.217 0 0 0-.338.083l-1.809 2.756a.26.26 0 0 0-.04.2.243.243 0 0 0 .1.166l.791.52a.219.219 0 0 0 .343-.058l.57-.868-.38-.25.35-.532.913.6ZM69.738 15.391a.816.816 0 0 1-1.153.119l-.169-.137-1.492 1.838-.5-.4 1.494-1.838-.185-.15a.8.8 0 0 1-.3-.548.786.786 0 0 1 .18-.6l1.206-1.484.5.4-1.172 1.442a.218.218 0 0 0 .05.345l.734.6a.218.218 0 0 0 .347-.023l1.171-1.442.5.4ZM71.617 21.873l-.424-.475 1.425-1.274-.972-1.086-1.425 1.275-.424-.475 3.189-2.854a.817.817 0 0 1 1.157.065l.729.814a.8.8 0 0 1 .209.59.789.789 0 0 1-.273.568Zm1.477-2.173 1.248-1.117a.217.217 0 0 0 .006-.348l-.631-.706a.218.218 0 0 0-.346-.032l-1.248 1.117ZM73.744 24.726l-.472-.649 2.117-3.14-2.878 2.095-.375-.516 4.123-3 .44.6-2.207 3.272 3-2.183.375.515ZM76.277 27.355a.819.819 0 0 1-1.12-.294l-.966-1.652 4.4-2.573.965 1.65a.8.8 0 0 1 .087.619.776.776 0 0 1-.381.5ZM76 26.776l2.9-1.691a.218.218 0 0 0 .076-.339l-.607-1.038-3.3 1.93.607 1.038a.217.217 0 0 0 .324.1ZM77.812 32.907l-.99-2.546 4.751-1.848.991 2.546-.594.231-.759-1.952-1.358.528.6 1.536-.595.231-.6-1.535-1.611.627.758 1.952ZM79.593 36.1a.819.819 0 0 1-1.008-.571l-.511-1.844 4.913-1.362.513 1.847a.816.816 0 0 1-.57 1.009Zm-.118-.629 3.229-.9a.216.216 0 0 0 .16-.308l-.321-1.159-3.685 1.023.321 1.157c.045.171.145.233.296.191ZM80.251 39.668a.781.781 0 0 1-.615-.139A.8.8 0 0 1 79.3 39l-.184-1.077a.816.816 0 0 1 .668-.947l4.219-.724.108.629-4.164.715c-.157.026-.221.123-.191.291l.16.932c.029.168.121.239.277.212l4.164-.714.108.627ZM80.547 43.307a.817.817 0 0 1-.875-.761l-.072-1.091a.8.8 0 0 1 .763-.873l3.452-.235a.788.788 0 0 1 .592.2.779.779 0 0 1 .281.565l.075 1.09a.8.8 0 0 1-.2.593.78.78 0 0 1-.564.28l-.273.019-.044-.636.219-.015c.158-.009.231-.1.218-.27l-.065-.963c-.01-.157-.1-.23-.27-.219l-3.288.225a.276.276 0 0 0-.188.091.238.238 0 0 0-.068.182l.064.945c.012.17.1.249.253.238l.218-.016.044.637ZM79.655 46.883l.02-.637 1.912.062.047-1.456-1.912-.062.021-.637 4.277.138a.815.815 0 0 1 .792.846l-.035 1.092a.8.8 0 0 1-.255.57.786.786 0 0 1-.591.222Zm2.567-.555 1.676.055c.156 0 .239-.078.245-.248l.031-.947c0-.169-.072-.256-.229-.261l-1.676-.055ZM83.708 50.619l.128-1.03-4.426-.551.078-.632 4.428.55.129-1.048.633.079-.337 2.71ZM78.986 51.519l.124-.625 5 .989-.123.625ZM78.839 55.4a.777.777 0 0 1-.5-.388.8.8 0 0 1-.074-.621l.294-1.053a.792.792 0 0 1 1.009-.568l3.333.928a.794.794 0 0 1 .493.384.777.777 0 0 1 .076.626l-.293 1.052a.8.8 0 0 1-.382.494.785.785 0 0 1-.627.075Zm.223-.6 3.228.9c.152.042.251-.018.3-.182l.258-.929q.065-.228-.181-.3l-3.178-.889a.267.267 0 0 0-.2.022.243.243 0 0 0-.127.15l-.255.911a.219.219 0 0 0 .155.317ZM76.8 58.493l.29-.747 3.787.086-3.317-1.291.231-.594 4.753 1.853-.271.7-3.946-.1 3.458 1.345-.232.594Z" style="fill:#1a5b8e"/><path d="M18.426 41.885v.773h.348v4.256h.767v-5.029ZM22.4 41.885h-1.054a.859.859 0 0 0-.856.863v1.041a.86.86 0 0 0 .856.863h1.139v1.33a.159.159 0 0 1-.141.163h-.922a.154.154 0 0 1-.164-.151v-.285h-.768v.34a.861.861 0 0 0 .856.865H22.4a.857.857 0 0 0 .865-.865v-3.3a.865.865 0 0 0-.865-.864Zm-.973 2a.153.153 0 0 1-.164-.147v-.924a.149.149 0 0 1 .148-.154h.915a.18.18 0 0 1 .164.178v1.047ZM67.622 41.885h-1.049a.858.858 0 0 0-.855.863v1.041a.86.86 0 0 0 .855.863h1.137v1.33a.157.157 0 0 1-.139.163h-.924a.153.153 0 0 1-.162-.151v-.285h-.767v.34a.861.861 0 0 0 .855.865h1.049a.857.857 0 0 0 .865-.865v-3.3a.865.865 0 0 0-.865-.864Zm-.975 2a.152.152 0 0 1-.162-.147v-.924a.149.149 0 0 1 .148-.154h.916a.179.179 0 0 1 .161.178v1.047ZM69.258 41.885v.773h.342v4.256h.768v-5.029Z" style="fill:#fff"/><path d="M13.229 64.429a.869.869 0 1 1-.869-.869.869.869 0 0 1 .869.869ZM77.306 64.429a.869.869 0 1 1-.868-.869.869.869 0 0 1 .868.869Z" style="fill:#1a5b8e"/></svg>