<svg xmlns="http://www.w3.org/2000/svg" width="189.35852mm" height="192.04178mm" viewBox="0 0 189.35852 192.04178"><defs><radialGradient id="a" cx="0" cy="0" r="1" fx="0" fy="0" gradientTransform="matrix(18.94273 0 0 -18.94273 452.063 511.066)" gradientUnits="userSpaceOnUse" spreadMethod="pad"><stop offset="0" style="stop-opacity:1;stop-color:#008cd6"/><stop offset="1" style="stop-opacity:1;stop-color:#004098"/></radialGradient><radialGradient id="c" cx="0" cy="0" r="1" fx="0" fy="0" gradientTransform="matrix(1.46407 0 0 -1.46407 429.016 511.361)" gradientUnits="userSpaceOnUse" spreadMethod="pad"><stop offset="0" style="stop-opacity:1;stop-color:#008cd6"/><stop offset="1" style="stop-opacity:1;stop-color:#004098"/></radialGradient><radialGradient id="d" cx="0" cy="0" r="1" fx="0" fy="0" gradientTransform="matrix(1.46364 0 0 -1.46364 475.277 511.361)" gradientUnits="userSpaceOnUse" spreadMethod="pad"><stop offset="0" style="stop-opacity:1;stop-color:#008cd6"/><stop offset="1" style="stop-opacity:1;stop-color:#004098"/></radialGradient><clipPath id="b" clipPathUnits="userSpaceOnUse"><path d="M0 841.89h1190.55V0H0Z"/></clipPath></defs><path d="M0 0c-.084.021-.168.04-.23.062-.166.062-.355.125-.523.188-.147.062-.272.104-.419.167a1.86 1.86 0 0 1-.293.146 8.108 8.108 0 0 0-.732.398c-.148.085-.273.168-.418.251a1.482 1.482 0 0 0-.295.209c-.229.147-.44.315-.627.481a8.227 8.227 0 0 0-.626.567 9.203 9.203 0 0 0-.462.479 10.873 10.873 0 0 0-1.486 2.178 10.395 10.395 0 0 0-.648 1.651c-.042.147-.083.316-.126.463-.042.166-.064.334-.104.48-.021.127-.042.272-.064.399a8.834 8.834 0 0 0-.125 1.505c0 .502.042 1.025.125 1.506.022.127.043.253.064.398.04.147.062.315.104.483.043.145.084.314.126.46.167.565.396 1.129.648 1.632.398.795.9 1.527 1.486 2.197.146.168.313.334.462.48.208.21.397.378.626.566.187.167.398.336.627.482.086.062.189.145.295.209.145.085.27.168.418.252.23.145.479.27.732.399.106.039.188.082.293.123.147.064.272.126.419.187.168.065.357.127.523.19.062.021.146.042.23.062.355.104.73.21 1.108.272.357.062.713.105 1.089.126.231.022.459.043.692.043.146 0 .269-.021.417-.021.293 0 .565-.022.839-.064a12.18 12.18 0 0 0 2.132-.501c.25-.107.483-.188.733-.316.252-.101.483-.23.711-.355.231-.124.461-.272.691-.418.084-.043.147-.105.23-.146a8.526 8.526 0 0 0 1.046-.858c.168-.147.334-.293.482-.461.083-.104.188-.189.271-.293.084-.085.147-.165.209-.251a9.35 9.35 0 0 0 .795-1.109c.252-.419.485-.836.67-1.255.169-.398.293-.774.421-1.193.123-.377.208-.796.271-1.214.041-.231.084-.481.105-.733.021-.292.041-.586.041-.879 0-.292-.02-.585-.041-.879-.021-.249-.064-.501-.105-.753a8.864 8.864 0 0 0-.271-1.215c-.128-.396-.252-.792-.421-1.171a11.514 11.514 0 0 0-.67-1.255 9.611 9.611 0 0 0-.795-1.11 2.27 2.27 0 0 0-.209-.25c-.083-.106-.188-.21-.271-.293a5.119 5.119 0 0 0-.482-.461c-.313-.314-.67-.585-1.046-.858-.083-.042-.146-.105-.23-.146-.23-.146-.46-.294-.691-.418A6.934 6.934 0 0 0 7.01.459C6.76.332 6.527.25 6.277.145c-.689-.231-1.4-.397-2.132-.501a5.455 5.455 0 0 0-.839-.064c-.148 0-.271-.021-.417-.021a7.26 7.26 0 0 0-.692.043c-.376.02-.732.063-1.089.124A9.011 9.011 0 0 0 0 0m2.889-.943h.417l.839.062c.732.106 1.443.251 2.132.483.25.082.483.187.733.291.252.107.483.211.711.335.231.126.461.252.691.399.084.041.147.083.23.124a9.93 9.93 0 0 1 1.046.796c.168.126.314.271.482.418l.271.272c.084.083.147.147.209.232.294.312.567.626.795.962.252.335.461.667.67 1.025.147.273.293.565.421.857.103.21.188.44.271.672.041.082.062.165.105.271.167.521.313 1.067.397 1.632.043.187.062.398.084.608a10.139 10.139 0 0 1 0 2.259c-.022.21-.041.417-.084.607-.084.564-.23 1.109-.397 1.632-.043.103-.064.188-.105.271a6.521 6.521 0 0 1-.271.671c-.128.293-.274.585-.421.857-.209.355-.418.692-.67 1.025-.228.335-.501.65-.795.962-.062.085-.125.146-.209.232l-.271.271c-.168.147-.314.293-.482.421-.334.291-.67.542-1.046.794-.083.041-.146.082-.23.125-.23.147-.46.272-.691.398a7.042 7.042 0 0 1-.711.333c-.25.106-.483.21-.733.294-.689.231-1.4.377-2.132.481-.274.021-.546.043-.839.062h-.417c-.233 0-.461 0-.692-.019a9.343 9.343 0 0 1-1.089-.126A9.766 9.766 0 0 1 0 19.794c-.084-.021-.168-.042-.23-.062-.166-.062-.355-.126-.523-.19-.147-.04-.272-.103-.419-.165-.105-.043-.187-.085-.293-.127a7.4 7.4 0 0 1-.732-.355c-.148-.084-.273-.168-.418-.252-.106-.063-.209-.124-.295-.187a4.836 4.836 0 0 1-.627-.461 6.143 6.143 0 0 1-.626-.502c-.149-.147-.316-.292-.462-.439a10.53 10.53 0 0 1-1.486-1.886c-.229-.397-.46-.793-.648-1.212-.042-.104-.083-.209-.126-.292-.042-.106-.064-.188-.104-.272l-.064-.19a10.598 10.598 0 0 1-.48-1.819 9.622 9.622 0 0 1-.148-1.759c0-.606.043-1.193.148-1.756.105-.628.271-1.236.48-1.822.022-.061.043-.126.064-.188.04-.084.062-.168.104-.272.043-.084.084-.189.126-.293.188-.418.419-.816.648-1.214.418-.67.92-1.319 1.486-1.884.146-.147.313-.293.462-.437.208-.19.417-.357.626-.504.187-.167.398-.315.627-.461.086-.063.189-.125.295-.187.145-.085.27-.168.418-.252.23-.126.479-.25.732-.354.106-.043.188-.086.293-.127.147-.063.272-.125.419-.168.168-.061.357-.125.523-.188.062-.021.146-.042.23-.063.355-.104.73-.188 1.108-.251a9.343 9.343 0 0 1 1.089-.125c.231-.021.459-.021.692-.021" style="fill:#dcdddd;fill-opacity:1;fill-rule:nonzero;stroke:none" transform="matrix(.35278 0 0 -.35278 93.66 8.426)"/><path d="m0 0-.065-.272-.04-.209-.063-.274-.043-.208s-.01-.05-.016-.131C-.256-1.24-.271-1.54 0-1.862l-.065-.064-.04-.104-.063-.042-.043-.063v-.25l.043-.106.063-.105.04-.167.106-.104.064.042v.062l.061.043v.061l.022.023.021.04s.691.066 1.271.343l.045.014.107.064.091.056a.06.06 0 0 1 .013.008l.062.039.028.028c.137.103.251.225.326.37l.024.02.01.047c.033.079.06.165.07.257h-.002l.066.177.065.272.043.315-.293-.104-.503-.169.439.733H.836L.793-.795l-.605.607Z" style="fill:#fff;fill-opacity:1;fill-rule:nonzero;stroke:none" transform="matrix(.35278 0 0 -.35278 94.37 2.897)"/><path d="M0 0h1.604L-.898-4.926V0Zm4.212 0-.015-5.004L1.673 0H4.212v.007h.017V0Zm-8.231-8.371V.312l.295.483.418.627.018.036v.003l-.018-.017-.004-.004.022.023v-.002l.004.002-.004-.005-.018-4.535-.041-5.294h.857V2.528c.008.009.014.023.033.051l.009.015.029.051c.065.101.154.248.254.409l.053.064.044.091c.073.12.143.229.204.321l-.039-11.965H-.898v3.182h1.17l.817 1.549.543 1.046L3.015-5.19h1.182l-.01-3.245H5.19V3.433c.164-.236.346-.506.471-.692l.051-.106.055-.05a1.58 1.58 0 0 1 .046-.072l.004-.004V-8.435h.857v9.674l.63-.989v-8.685h.754v8.109c.003.065.004.15 0 .263-.034.872-1.384 1.36-1.384 1.36v.858l-.015.055c-.087.676-1.043 1.189-1.363 1.341l-.106.057v-.009l-.021.021.021-.012v.618c0 .128-.041.262-.099.399l-.005.019-.01.016a2.758 2.758 0 0 1-.555.753l-.022.027-.014.011c-.981.99-2.644 1.894-2.644 1.894l.356-.377.839-.941 1.193-1.319-.013-3.495H2.699c-.31.022-.601-.087-.809-.193l-.049-.016L1.78.962 1.737.941l-.09-.064-.056-.04-.106.104-.103.063-.022.006c-.426.241-1.039.245-1.039.245H-.898v3.453S.546 6.355 1.185 7.075l.238.27s-3.284-1.943-3.284-2.951v-.168l-.001-.528c-.335-.147-1.422-.689-1.422-1.479l-.004-.749C-4.158 1.042-4.519.6-4.665.312h-.002V.31C-4.765.122-4.77 0-4.77 0v-8.371h.124z" style="fill:#fff;fill-opacity:1;fill-rule:nonzero;stroke:none" transform="matrix(.35278 0 0 -.35278 94.052 4.447)"/><path d="M0 0v1.316h-.153l-.288-.153.033-.137.229.125h.005V0Z" style="fill:#fff;fill-opacity:1;fill-rule:nonzero;stroke:none" transform="matrix(.35278 0 0 -.35278 94.13 7.415)"/><path d="M0 0a.3.3 0 0 0-.262-.137c-.153 0-.254.115-.254.28 0 .186.109.319.259.319h.001c.189 0 .274-.169.27-.398A.141.141 0 0 0 0 0m-.437-.61c-.06-.008-.104-.01-.144-.008v-.147a.978.978 0 0 1 .166.011.68.68 0 0 1 .384.174c.129.129.226.332.226.623C.195.38.029.598-.24.598A.454.454 0 0 1-.695.132c0-.226.154-.405.391-.405a.38.38 0 0 1 .312.142h.006a.593.593 0 0 0-.172-.352.47.47 0 0 0-.279-.127" style="fill:#fff;fill-opacity:1;fill-rule:nonzero;stroke:none" transform="matrix(.35278 0 0 -.35278 94.54 7.153)"/><path d="M0 0a.563.563 0 0 0-.282.074l-.045-.137A.637.637 0 0 1 0-.145c.286 0 .491.193.491.452a.377.377 0 0 1-.187.342.558.558 0 0 1-.283.07C-.03.719-.058.715-.087.712l.049.334h.503v.149h-.631L-.251.567c.049.009.107.014.186.014.259 0 .377-.12.377-.294C.312.11.167 0 0 0" style="fill:#fff;fill-opacity:1;fill-rule:nonzero;stroke:none" transform="matrix(.35278 0 0 -.35278 94.779 7.372)"/><path d="m0 0-2.021.839-.225-.54 2.02-.84z" style="fill:#fff;fill-opacity:1;fill-rule:nonzero;stroke:none" transform="matrix(.35278 0 0 -.35278 90.965 2.863)"/><path d="M0 0a1.718 1.718 0 0 1-.157.525c.142.045.306.132.485.263.164.119.321.258.473.419l-.146.345a1.852 1.852 0 0 0-.648-.447 1.1 1.1 0 0 0-.834.013l.293.703-.319.133-.793-1.908.317-.13.275.663c.282-.115.485-.3.61-.558a1.62 1.62 0 0 0 .146-.757l.339.114C.046-.405.032-.199 0 0" style="fill:#fff;fill-opacity:1;fill-rule:nonzero;stroke:none" transform="matrix(.35278 0 0 -.35278 90.43 3.607)"/><path d="M0 0c.082.054.156.17.23.34l.932 2.251-.316.133L-.063.535-.649.78-.874.239l.595-.247C-.17-.054-.078-.051 0 0" style="fill:#fff;fill-opacity:1;fill-rule:nonzero;stroke:none" transform="matrix(.35278 0 0 -.35278 90.824 3.879)"/><path d="m0 0 .56-.5-.923-1.03.884-.791a.286.286 0 0 1 .286-.071c.101.028.213.107.331.24L2.471-.666l.262-.235.39.434L.862 1.558l-.39-.435 1.75-1.567-1.3-1.452-.647.58.918 1.027L.139.656l-1.31-1.462.247-.223z" style="fill:#fff;fill-opacity:1;fill-rule:nonzero;stroke:none" transform="matrix(.35278 0 0 -.35278 90.993 1.8)"/><path d="m0 0-.209.379-.509-.28.209-.38z" style="fill:#fff;fill-opacity:1;fill-rule:nonzero;stroke:none" transform="matrix(.35278 0 0 -.35278 92.626 1.105)"/><path d="M0 0c-.236-.135-.553-.248-.955-.339l.264-.237c.347.095.632.188.859.285.234.1.404.203.508.312.131-.069.32-.112.564-.129a6.05 6.05 0 0 1 .94.02l.203.307c-.409-.042-.756-.041-1.03.007-.29.05-.444.139-.466.269l1.189.202-.057.343L-.877.551l.059-.345L.315.399C.337.268.231.133 0 0" style="fill:#fff;fill-opacity:1;fill-rule:nonzero;stroke:none" transform="matrix(.35278 0 0 -.35278 93.62 .367)"/><path d="M0 0c.155-.018.24-.059.25-.123C.261-.188.197-.256.059-.325c-.157-.08-.377-.144-.666-.193-.291-.047-.526-.062-.7-.037-.154.017-.234.061-.245.125-.011.065.052.132.189.201.16.077.386.142.675.19C-.402.009-.174.023 0 0m-2.475.23 1.396.237.037-.218c-.38-.091-.667-.212-.865-.362-.177-.136-.255-.275-.231-.414.027-.162.171-.275.433-.34.296-.076.68-.073 1.156.008.469.08.828.202 1.08.371.225.149.324.3.296.461C.806.114.684.219.467.289.229.368-.082.386-.471.344l-.035.219L.898.801l-.054.334-3.373-.572Z" style="fill:#fff;fill-opacity:1;fill-rule:nonzero;stroke:none" transform="matrix(.35278 0 0 -.35278 94.193 .846)"/><path d="m0 0 .303-.052-.108-.641.569-.094.284 1.696-.567.095-.12-.706L.06.347l.118.708-.573.097-.276-1.648-.011-.05.575-.097z" style="fill:#fff;fill-opacity:1;fill-rule:nonzero;stroke:none" transform="matrix(.35278 0 0 -.35278 95.673 .48)"/><path d="M0 0c.288-.05.513-.119.671-.211.15-.08.217-.162.205-.246C.861-.537.772-.591.604-.619A2.194 2.194 0 0 0-.1-.598c-.286.051-.512.121-.676.212-.147.084-.215.165-.202.243.012.081.104.139.272.165C-.522.055-.288.046 0 0m-1.111.325c-.271-.075-.421-.2-.451-.37-.029-.171.075-.337.305-.495.258-.182.624-.315 1.102-.395.472-.079.859-.076 1.16.013.269.074.416.198.446.367.028.175-.069.341-.302.499C.896.126.532.256.058.336-.419.417-.81.412-1.111.325" style="fill:#fff;fill-opacity:1;fill-rule:nonzero;stroke:none" transform="matrix(.35278 0 0 -.35278 95.398 .827)"/><path d="M0 0c.103.071.19.145.265.223.044-.09.111-.19.203-.302.106-.134.224-.251.359-.356l.332.164C.967-.121.83.051.747.246a1.102 1.102 0 0 0-.072.621l.06.36-.576.097L.097.958A1.065 1.065 0 0 0-.179.384 1.4 1.4 0 0 0-.706.043l.26-.267C-.288-.166-.14-.089 0 0" style="fill:#fff;fill-opacity:1;fill-rule:nonzero;stroke:none" transform="matrix(.35278 0 0 -.35278 95 .47)"/><path d="m0 0-.508.28-.211-.379.509-.282Z" style="fill:#fff;fill-opacity:1;fill-rule:nonzero;stroke:none" transform="matrix(.35278 0 0 -.35278 96.931 1.07)"/><path d="M0 0a1.35 1.35 0 0 1-.123-.619 2.45 2.45 0 0 1 .12-.665l.432-.069c-.11.293-.139.579-.09.858.061.326.229.611.502.856l.517.463.489-.546.248.221L.726 2.032l-.249-.223.49-.548L.446.794A1.505 1.505 0 0 0-.456.392a1.602 1.602 0 0 0-.816.154l-.006-.405c.237-.097.451-.159.644-.187C-.396-.082-.185-.065 0 0" style="fill:#fff;fill-opacity:1;fill-rule:nonzero;stroke:none" transform="matrix(.35278 0 0 -.35278 97.727 1.974)"/><path d="m0 0 1.086.972.266-.297.259.232-.265.298.915.82-.392.436L-.392.435Z" style="fill:#fff;fill-opacity:1;fill-rule:nonzero;stroke:none" transform="matrix(.35278 0 0 -.35278 97.924 2.762)"/><path d="M0 0c-.115-.045-.236-.011-.365.106-.137.124-.264.327-.381.606-.116.281-.171.513-.16.695.009.173.068.282.183.329.114.047.234.014.363-.101.139-.123.266-.324.383-.605C.139.755.189.522.182.333.175.16.113.048 0 0m.328 1.168c-.185.445-.402.77-.653.969-.228.179-.435.229-.628.149-.192-.08-.303-.262-.334-.55-.035-.318.04-.701.226-1.146.186-.448.405-.771.656-.972.225-.181.436-.232.627-.152.19.081.302.265.333.553C.59.338.514.72.328 1.168" style="fill:#fff;fill-opacity:1;fill-rule:nonzero;stroke:none" transform="matrix(.35278 0 0 -.35278 99.148 3.478)"/><path d="m0 0-.321-.134.224-.543-.875-.364.227-.541.874.365.416-.997-.878-.365.225-.54.877.364.222-.535.321.135z" style="fill:#fff;fill-opacity:1;fill-rule:nonzero;stroke:none" transform="matrix(.35278 0 0 -.35278 98.462 2.749)"/><path d="M0 0a.306.306 0 0 1-.279.043.313.313 0 0 1-.203-.198.598.598 0 0 1 .011-.399.65.65 0 0 1 .223-.343c.094-.07.185-.09.277-.062a.321.321 0 0 1 .205.209c.043.116.037.255-.013.417C.171-.176.098-.065 0 0m1.518-2.001-.84-.269.114-.361-.325-.106-.117.363-.836-.27-.168.527 2.003.643zM.625.072l.221.07.169-.527-.221-.07.232-.723-.3-.098-.177.548c.026-.25-.012-.446-.117-.583a.505.505 0 0 0-.401-.203c-.148.004-.292.074-.433.214-.159.155-.282.372-.369.648-.088.273-.112.517-.069.735.037.192.116.331.236.417A.485.485 0 0 0-.17.569C-.01.518.133.389.259.18L.084.724l.303.098Zm-2.19-.789.669-2.08-.312-.101-.726 2.266a.407.407 0 0 0-.009.272c.029.077.091.13.183.16l.604.195.169-.527z" style="fill:#fff;fill-opacity:1;fill-rule:nonzero;stroke:none" transform="matrix(.35278 0 0 -.35278 90.475 6.025)"/><path d="m0 0-.785 1.082-.329-.238.689-.951-.852-.618-.327.445.592.428-1.357 1.873.264.191.667-.92.329.238-.762 1.053.262.191L-.195.825c.078.027.159.066.248.114.074.042.155.093.24.157l.134.096L-.93 3.064l.266.193L1.018.938.766.755C.67.685.566.618.457.556a2.784 2.784 0 0 0-.334-.17L.265.19Z" style="fill:#fff;fill-opacity:1;fill-rule:nonzero;stroke:none" transform="matrix(.35278 0 0 -.35278 91.35 8.135)"/><path d="m0 0-.968-1.33-.447.325.969 1.331zm-3.043-.414-.243-.333 1.348-.981.244.334zm1.073 1.58.137.188.445-.325-.136-.188.602-.44-.185-.255-.603.438c-.111-.15-.144-.338-.102-.562.038-.21.139-.433.303-.668l-.344-.053a2.401 2.401 0 0 0-.303.531c-.077.191-.115.35-.11.479a1.312 1.312 0 0 0-.497-.037 2.321 2.321 0 0 0-.609.13l-.025.318c.263-.073.501-.099.717-.073.242.027.416.112.524.26l-.603.441.186.255zm.915-2.62-.632-.867L-3.56-.958c-.121.089-.197.181-.222.274a.279.279 0 0 0 .05.259l.437.602z" style="fill:#fff;fill-opacity:1;fill-rule:nonzero;stroke:none" transform="matrix(.35278 0 0 -.35278 92.738 8.58)"/><path d="m0 0-.891-2.758-.515.167.89 2.758zm-1.741.5-.414-1.282-.693.224-.256-.794 1.122-.363.105.328-.373.119.097.299.371-.121.204.63-.372.12.096.3.374-.121.187.579.516-.167-.89-2.758-.519.167.104.321-1.185.383a.67.67 0 0 0-.315.187.286.286 0 0 0-.041.276l.353 1.087.688-.222.219.676-.689.223.097.301z" style="fill:#fff;fill-opacity:1;fill-rule:nonzero;stroke:none" transform="matrix(.35278 0 0 -.35278 93.954 9.013)"/><path d="m0 0 .033-2.088-.551-.01-.035 2.089zm-2.174-2.578 2.241.035.005-.324-2.304-.038c-.176-.002-.302.02-.381.069-.073.049-.11.128-.113.242l-.009.614.551.011zm.752 1.557c.151-.185.367-.325.651-.422l-.259-.26c-.22.089-.416.194-.593.313-.182.127-.305.247-.374.363a1.516 1.516 0 0 0-.378-.373 3.026 3.026 0 0 0-.566-.328l-.233.242c.258.119.457.269.599.447.196.254.294.58.287.976l.554.01c.006-.404.111-.726.312-.968" style="fill:#fff;fill-opacity:1;fill-rule:nonzero;stroke:none" transform="matrix(.35278 0 0 -.35278 95.197 9.033)"/><path d="m0 0 .213-.65.359.119.104-.315-.359-.117.199-.599-.524-.174-.515 1.564zm.576-1.745.332-1.004-.524-.173-.23.694-2.115-.698-.101.309zm-2.584.269c-.058-.081-.075-.161-.049-.243.028-.079.09-.135.186-.171a.646.646 0 0 1 .398.016.65.65 0 0 1 .336.226c.062.089.081.171.056.25-.028.083-.091.137-.192.165a.653.653 0 0 1-.399-.028c-.156-.05-.267-.119-.336-.215m-.073.607-.058.177.522.174.059-.177.722.239.098-.292-.538-.178c.238.027.424-.003.554-.091a.414.414 0 0 0 .189-.358c-.004-.145-.074-.285-.209-.421a1.547 1.547 0 0 0-.633-.369c-.271-.089-.516-.116-.731-.079-.189.033-.328.105-.414.214a.427.427 0 0 0-.068.399c.055.145.186.281.394.402l-.536-.177-.096.293z" style="fill:#fff;fill-opacity:1;fill-rule:nonzero;stroke:none" transform="matrix(.35278 0 0 -.35278 96.41 8.684)"/><path d="m0 0-.515-.38L.592-1.878l.786.579L.05.504l.443.327.684-.927.333.247-.684.925.445.328L2.992-.928l-.445-.327-.839 1.138-.334-.245.84-1.14-.443-.328-.202.273-.849-.628c-.131-.097-.248-.143-.35-.138-.094.003-.176.053-.245.148L-1.146-.454l.958.707z" style="fill:#fff;fill-opacity:1;fill-rule:nonzero;stroke:none" transform="matrix(.35278 0 0 -.35278 97.04 8.438)"/><path d="m0 0 .86-.616-.32-.448-.596.426-1.295-1.811-.265.188zm-1.495 1.069L-.939.67l.219.308.27-.194-.219-.306.514-.366-.323-.449-1.337.958Zm-.75-2.374c0-.102.035-.176.105-.226.068-.049.151-.058.25-.029a.62.62 0 0 1 .311.249c.094.13.14.257.139.379-.003.108-.037.186-.104.234-.07.05-.153.057-.252.02a.675.675 0 0 1-.306-.258.665.665 0 0 1-.143-.369m-.418.444-.15.11.318.449.152-.108.442.618.252-.179-.332-.461c.179.163.347.248.502.255.144.009.265-.052.367-.177.08-.119.106-.274.078-.465-.029-.217-.129-.44-.293-.669a1.51 1.51 0 0 0-.545-.497c-.172-.085-.324-.109-.459-.071-.152.051-.25.145-.289.282-.044.149-.017.335.08.555l-.328-.457-.25.178z" style="fill:#fff;fill-opacity:1;fill-rule:nonzero;stroke:none" transform="matrix(.35278 0 0 -.35278 98.761 7.333)"/><path d="m0 0-.955-3.046-.305.096.123.388-1.248.391.164.526 1.248-.391.131.412-1.248.392.163.527 1.249-.391.375 1.191zm-2.559.628 1.052-.327A3.591 3.591 0 0 0-.42-.254l-.16-.511a3.07 3.07 0 0 1-.426.28 3.256 3.256 0 0 1-.521.214l-.857.268-.692-2.206-.338.107z" style="fill:#fff;fill-opacity:1;fill-rule:nonzero;stroke:none" transform="matrix(.35278 0 0 -.35278 99.581 5.978)"/><path d="M0 0c0 15.356 12.451 27.806 27.807 27.806 15.357 0 27.804-12.45 27.804-27.806 0-15.356-12.447-27.808-27.804-27.808C12.451-27.808 0-15.356 0 0" style="fill:#231916;fill-opacity:1;fill-rule:nonzero;stroke:none" transform="matrix(3.34007 0 0 -3.34007 1.175 97.865)"/><path d="M433.119 511.066c0-10.461 8.481-18.942 18.944-18.942 10.462 0 18.943 8.481 18.943 18.942s-8.481 18.942-18.943 18.942c-10.463 0-18.944-8.481-18.944-18.942" style="fill:url(#a);stroke:none" transform="matrix(3.34007 0 0 -3.34007 -1415.87 1804.86)"/><g clip-path="url(#b)" transform="matrix(3.34007 0 0 -3.34007 -1415.87 1804.86)"><path d="M0 0c-.114-.153-.229-.265-.342-.416-.268-.267-.534-.536-.801-.764a.297.297 0 0 0-.151-.151 5.845 5.845 0 0 0-.723-.685.718.718 0 0 0-.189-.153c-.153-.151-.305-.304-.494-.456-.268-.192-.495-.419-.762-.61-.42-.304-.799-.608-1.219-.875-.456-.342-.951-.646-1.445-.95-.113-.075-.229-.153-.38-.228-.153-.114-.343-.192-.495-.304-.305-.154-.571-.304-.875-.457a28.954 28.954 0 0 0-1.902-.875c-.154-.077-.268-.115-.418-.191-.42-.153-.838-.304-1.258-.455a11.902 11.902 0 0 0-1.293-.381 17.965 17.965 0 0 0-1.33-.383 32.803 32.803 0 0 0-3.881-.569c-.496-.039-1.029-.076-1.523-.114h-.76c-.42 0-.838 0-1.256.038-.686.037-1.334.076-1.979.15a18.07 18.07 0 0 0-2.018.344c-.152 0-.304.039-.417.077-.305.074-.647.114-.951.19-.267.074-.494.151-.762.228-.189.039-.341.114-.531.153-.459.151-.912.267-1.333.455a5.7 5.7 0 0 0-.761.267 8.248 8.248 0 0 0-.533.226c-.418.155-.799.345-1.14.498-.38.188-.761.379-1.141.569-.268.154-.573.304-.838.497-.952.532-1.827 1.138-2.702 1.747-.38.306-.798.65-1.177.953-.078.076-.154.112-.233.191-.074.077-.112.114-.187.188-.037 0-.076.038-.114.077-.306.267-.61.534-.876.838-.266.228-.495.495-.762.722-.19.23-.418.456-.608.686A17.044 17.044 0 0 0-42.5 2.51a27.108 27.108 0 0 0 0 31.657 16.84 16.84 0 0 0 1.94 2.435c.19.23.418.458.608.686.267.23.496.492.762.722.266.306.57.571.876.836.038.041.077.078.114.078.075.075.113.113.187.191.079.074.155.114.233.19.379.304.797.646 1.177.95.875.608 1.75 1.219 2.702 1.749.265.193.57.344.838.496.38.189.761.381 1.141.572.341.151.722.341 1.14.494.154.075.342.153.533.228.266.114.494.192.761.265.421.191.874.306 1.333.46.19.035.342.113.531.15.268.077.495.151.762.23.304.075.646.112.951.189.113.037.265.076.417.076.647.151 1.333.267 2.018.342.645.078 1.293.114 1.979.153.418.037.836.037 1.256.037h.76l1.523-.112a31.994 31.994 0 0 0 3.881-.573c.455-.112.875-.228 1.33-.379.457-.113.877-.23 1.293-.382l1.258-.456c.15-.075.264-.114.418-.19a31.192 31.192 0 0 0 1.902-.874c.304-.153.57-.306.875-.457.152-.116.342-.192.495-.304.151-.076.267-.154.38-.232.494-.302.989-.606 1.445-.948.42-.267.799-.571 1.219-.875.267-.191.494-.418.762-.609.189-.153.341-.306.494-.459.074-.035.113-.075.189-.151.23-.191.494-.418.723-.685a.286.286 0 0 0 .151-.151c.267-.228.533-.495.801-.762.113-.151.228-.265.342-.418.724-.762 1.37-1.599 1.979-2.435A27.093 27.093 0 0 0 7.114 18.34 27.088 27.088 0 0 0 1.979 2.436C1.37 1.597.724.761 0 0m1.979 35.878A21.694 21.694 0 0 1 0 38.124c-.114.113-.229.267-.342.38-.268.23-.534.495-.801.725-.037.037-.075.113-.151.15-.229.23-.493.421-.723.646a.664.664 0 0 0-.189.154c-.153.113-.305.266-.494.383-.268.227-.495.417-.762.606-.42.306-.799.569-1.219.836a17.4 17.4 0 0 1-1.445.877c-.113.075-.229.152-.38.228-.153.114-.343.19-.495.266-.305.154-.571.305-.875.458-.609.304-1.257.569-1.902.836a1.821 1.821 0 0 1-.418.151c-.42.191-.838.305-1.258.458-.416.153-.836.267-1.293.381a8.549 8.549 0 0 1-1.33.341 21.452 21.452 0 0 1-3.881.571c-.496.077-1.029.077-1.523.116h-.76c-.42 0-.838 0-1.256-.039-.686-.04-1.334-.077-1.979-.153a29.417 29.417 0 0 1-2.018-.305c-.152-.037-.304-.037-.417-.076-.305-.076-.647-.151-.951-.228-.267-.039-.494-.114-.762-.19a2.806 2.806 0 0 1-.531-.151 13.4 13.4 0 0 1-1.333-.42c-.267-.077-.495-.191-.761-.267a7.723 7.723 0 0 1-.533-.226c-.418-.153-.799-.304-1.14-.495-.38-.151-.761-.343-1.141-.533-.268-.153-.573-.305-.838-.458-.952-.494-1.827-1.065-2.702-1.672-.38-.306-.798-.571-1.177-.877-.078-.075-.154-.152-.233-.189-.074-.076-.112-.116-.187-.153l-.114-.114c-.306-.266-.61-.494-.876-.762-.266-.227-.495-.455-.762-.684-.19-.228-.418-.418-.608-.648a34.202 34.202 0 0 1-1.94-2.206c-3.805-4.832-6.089-10.919-6.089-17.501 0-6.582 2.284-12.672 6.089-17.5a34.55 34.55 0 0 1 1.94-2.211c.19-.227.418-.418.608-.645.267-.23.496-.457.762-.685.266-.267.57-.495.876-.759l.114-.118a.635.635 0 0 0 .187-.15c.079-.039.155-.115.233-.19.379-.306.797-.571 1.177-.875.875-.609 1.75-1.182 2.702-1.674.265-.154.57-.304.838-.457.38-.191.761-.382 1.141-.532a7.648 7.648 0 0 1 1.14-.495c.154-.079.342-.153.533-.23.266-.074.494-.191.761-.265.421-.151.874-.304 1.333-.42.19-.076.342-.113.531-.151.268-.074.495-.153.762-.191.304-.074.646-.152.951-.227.113-.039.265-.039.417-.076a30.708 30.708 0 0 1 2.018-.304 30.503 30.503 0 0 1 1.979-.154c.418-.037.836-.037 1.256-.037h.76c.494.037 1.027.037 1.523.114 1.332.077 2.625.265 3.881.569.455.078.875.191 1.33.344.457.113.877.229 1.293.382.42.151.838.263 1.258.453.15.04.264.077.418.154a28.69 28.69 0 0 1 1.902.838c.304.151.57.304.875.455.152.076.342.153.495.269.151.074.267.151.38.188.494.306.989.609 1.445.915.42.265.799.532 1.219.836.267.191.494.379.762.609.189.113.341.265.494.38a.603.603 0 0 0 .189.151c.23.23.494.421.723.648a.288.288 0 0 1 .151.152c.267.229.533.494.801.723.113.113.228.265.342.381C.724-.723 1.37 0 1.979.8a28.061 28.061 0 0 1 6.125 17.54 28.055 28.055 0 0 1-6.125 17.538" style="fill:#dcdddd;fill-opacity:1;fill-rule:nonzero;stroke:none" transform="translate(472.493 492.876)"/></g><path d="M427.55 511.343c0-.798.647-1.445 1.484-1.445.8 0 1.447.647 1.447 1.445 0 .838-.647 1.483-1.447 1.483a1.46 1.46 0 0 1-1.484-1.483" style="fill:url(#c);stroke:none" transform="matrix(3.34007 0 0 -3.34007 -1415.87 1804.86)"/><path d="M473.812 511.343c0-.798.646-1.445 1.444-1.445.839 0 1.485.647 1.485 1.445a1.46 1.46 0 0 1-1.485 1.483c-.798 0-1.444-.645-1.444-1.483" style="fill:url(#d);stroke:none" transform="matrix(3.34007 0 0 -3.34007 -1415.87 1804.86)"/><path d="M0 0c-.151.038-.304.073-.417.112-.305.114-.646.23-.951.344-.267.111-.494.19-.762.301a3.181 3.181 0 0 1-.531.267c-.459.23-.912.457-1.333.725-.267.153-.495.304-.761.455-.191.114-.379.23-.533.381a9.222 9.222 0 0 0-1.14.873c-.42.344-.76.65-1.141 1.031a17.14 17.14 0 0 0-.838.873 19.753 19.753 0 0 0-2.701 3.957c-.457.954-.875 1.941-1.178 3.005-.078.267-.153.571-.233.838-.074.304-.112.61-.187.875-.037.23-.076.495-.114.725a15.945 15.945 0 0 0-.229 2.738c0 .912.077 1.864.229 2.738.038.229.077.459.114.724.075.267.113.571.187.877.08.263.155.569.233.834a18.408 18.408 0 0 0 1.178 2.97 18.994 18.994 0 0 0 2.701 3.994c.265.304.57.609.838.876.381.38.721.684 1.141 1.026.341.304.722.61 1.14.876.154.113.342.266.533.38.266.153.494.305.761.457.421.266.874.493 1.333.725.19.072.342.151.531.225.268.116.495.23.762.342.305.116.646.229.951.345.113.036.266.075.417.112.647.19 1.333.381 2.019.495.644.113 1.293.19 1.978.23.418.036.836.076 1.256.076.266 0 .494-.04.76-.04.533 0 1.027-.036 1.523-.114a22.18 22.18 0 0 0 3.881-.912c.455-.192.875-.341 1.33-.57.457-.189.877-.421 1.293-.648.42-.228.838-.496 1.258-.76.15-.077.265-.193.418-.267.684-.494 1.332-.99 1.902-1.56.304-.267.608-.532.875-.836.153-.191.342-.344.495-.534.151-.153.267-.303.38-.456a17.69 17.69 0 0 0 1.445-2.018 21.82 21.82 0 0 0 1.219-2.282c.306-.722.531-1.408.762-2.169.227-.685.378-1.445.494-2.206.074-.42.152-.875.19-1.332.037-.533.075-1.066.075-1.598 0-.533-.038-1.064-.075-1.6-.038-.453-.116-.913-.19-1.368-.116-.722-.267-1.484-.494-2.208-.231-.72-.456-1.443-.762-2.13a21.82 21.82 0 0 0-1.219-2.282 17.869 17.869 0 0 0-1.445-2.018 4.307 4.307 0 0 0-.38-.456c-.153-.192-.342-.38-.495-.533a9.215 9.215 0 0 0-.875-.836c-.57-.571-1.218-1.066-1.902-1.561-.153-.074-.268-.19-.418-.265-.42-.266-.838-.534-1.258-.762-.416-.227-.836-.457-1.293-.647-.455-.23-.875-.378-1.33-.571a22.27 22.27 0 0 0-3.881-.912c-.496-.075-.99-.114-1.523-.114-.266 0-.494-.038-.76-.038-.42 0-.838.038-1.256.077-.685.037-1.334.114-1.978.227C1.333-.383.647-.194 0 0m5.253-1.715h.76c.533.039 1.027.076 1.523.115 1.332.191 2.625.455 3.881.876.455.151.875.341 1.33.53.457.194.877.382 1.293.61.42.23.838.458 1.258.724.15.075.265.152.418.226.684.457 1.293.915 1.902 1.447.304.229.57.492.875.759l.495.497c.151.151.267.266.38.42.532.569 1.028 1.138 1.445 1.749a19.42 19.42 0 0 1 1.219 1.864c.267.495.531 1.027.762 1.559.189.381.341.8.494 1.22.074.151.113.303.19.493.302.95.57 1.941.722 2.967.076.342.114.725.152 1.106a18.267 18.267 0 0 1 0 4.108 9.682 9.682 0 0 1-.152 1.103c-.152 1.026-.42 2.015-.722 2.967-.077.189-.116.342-.19.495-.153.42-.305.836-.494 1.218a20.297 20.297 0 0 1-.762 1.559 19.546 19.546 0 0 1-1.219 1.864c-.417.609-.913 1.18-1.445 1.752-.113.151-.229.265-.38.418-.153.151-.342.343-.495.494-.305.267-.571.534-.875.762-.609.534-1.218.989-1.902 1.446-.153.075-.268.151-.418.228-.42.267-.838.494-1.258.722-.416.23-.836.418-1.293.608-.455.191-.875.381-1.33.535-1.256.418-2.549.684-3.881.873-.496.039-.99.079-1.523.115h-.76c-.42 0-.838 0-1.256-.036a16.906 16.906 0 0 1-1.978-.23A17.91 17.91 0 0 1 0 35.992c-.151-.039-.304-.076-.417-.116-.305-.114-.646-.228-.951-.343-.267-.075-.494-.188-.762-.3-.189-.079-.341-.155-.531-.232a13.922 13.922 0 0 1-1.333-.646c-.267-.153-.495-.306-.761-.457a6.982 6.982 0 0 1-.533-.341 9.14 9.14 0 0 1-1.14-.836c-.38-.267-.76-.572-1.141-.915-.268-.267-.573-.532-.838-.799a19.312 19.312 0 0 1-2.701-3.424c-.418-.725-.836-1.445-1.178-2.207-.078-.19-.153-.381-.233-.532-.074-.193-.112-.344-.187-.494-.037-.117-.076-.23-.114-.346a19.195 19.195 0 0 1-.876-3.307c-.19-1.029-.266-2.094-.266-3.197 0-1.104.076-2.169.266-3.196a19.24 19.24 0 0 1 .876-3.311c.038-.112.077-.227.114-.341.075-.153.113-.307.187-.495.08-.153.155-.344.233-.533.342-.76.76-1.484 1.178-2.209a19.45 19.45 0 0 1 2.701-3.423c.265-.266.57-.534.838-.797.381-.343.761-.648 1.141-.914a8.575 8.575 0 0 1 1.14-.836c.154-.116.342-.23.533-.344.266-.153.494-.304.761-.455.421-.23.874-.458 1.333-.646.19-.079.342-.155.531-.231.268-.114.495-.227.762-.305.305-.113.646-.227.951-.341.113-.04.266-.077.417-.116a17.91 17.91 0 0 1 2.019-.456c.644-.114 1.293-.19 1.978-.227.418-.039.836-.039 1.256-.039" style="fill:#dcdddd;fill-opacity:1;fill-rule:nonzero;stroke:none" transform="matrix(3.34007 0 0 -3.34007 77.138 155.816)"/><path d="m0 0-.113-.495-.076-.38-.114-.498-.078-.378s-.017-.094-.025-.241c-.058-.265-.083-.807.406-1.394l-.113-.116-.076-.19-.114-.077-.078-.114v-.455l.078-.192.114-.191.076-.303.189-.189.115.074v.115l.115.078v.112l.038.039.037.074s1.26.12 2.313.624l.083.024.194.116.168.103.021.015.111.07.054.054c.245.186.452.406.594.669l.04.037.016.086c.062.146.112.298.129.467H4.1l.123.322.115.495.078.571-.533-.188-.912-.307.797 1.333H1.522l-.074-1.217L.344-.344Z" style="fill:#fff;fill-opacity:1;fill-rule:nonzero;stroke:none" transform="matrix(3.34007 0 0 -3.34007 89.34 60.634)"/><path d="M0 0h2.915l-4.552-8.954V0Zm7.656 0-.027-9.099L3.039 0h4.617v.012h.03V0ZM-7.307-15.221V.569l.534.876.76 1.142.033.065v.006l-.033-.033-.006-.006.039.041v-.002l.007.004-.007-.01-.033-8.246-.075-9.627h1.559V4.597c.011.015.028.041.059.092l.018.028.054.09c.116.184.279.453.46.744l.094.117.084.169c.134.216.262.414.369.581l-.072-21.752h1.826v5.784H.494l1.485 2.816.988 1.902 2.512-4.605H7.629l-.02-5.897h1.825V6.242c.3-.43.63-.919.858-1.257l.095-.192.095-.094c.048-.077.084-.13.084-.13l.01-.007v-19.896h1.56V2.253L13.279.456v-15.79h1.369V-.592c.006.119.008.273 0 .477-.06 1.587-2.512 2.472-2.512 2.472v1.56l-.031.103c-.154 1.229-1.896 2.161-2.476 2.436l-.195.106v-.018l-.036.037.036-.019v1.122c0 .234-.071.477-.18.725l-.008.037-.017.027c-.208.449-.563.913-1.008 1.37l-.041.05-.026.019c-1.785 1.799-4.806 3.442-4.806 3.442l.646-.684 1.524-1.712 2.168-2.396-.022-6.356H4.906c-.565.04-1.093-.158-1.472-.351l-.086-.029-.114-.077-.077-.037-.165-.116a6.56 6.56 0 0 1-.101-.075l-.19.191-.191.114-.038.009c-.777.44-1.888.448-1.888.448h-2.221v6.279S.99 11.553 2.15 12.864l.436.49s-5.973-3.53-5.973-5.363v-.307l-.002-.959c-.607-.269-2.584-1.254-2.584-2.691l-.007-1.36c-1.584-.78-2.237-1.582-2.503-2.105h-.003V.565C-8.664.222-8.675 0-8.675 0v-15.221h.229z" style="fill:#fff;fill-opacity:1;fill-rule:nonzero;stroke:none" transform="matrix(3.34007 0 0 -3.34007 83.88 87.323)"/><path d="M0 0v2.395h-.275l-.526-.28.063-.247.416.226h.009V0Z" style="fill:#fff;fill-opacity:1;fill-rule:nonzero;stroke:none" transform="matrix(3.34007 0 0 -3.34007 85.198 138.403)"/><path d="M0 0a.54.54 0 0 0-.473-.25c-.281 0-.464.211-.464.509 0 .34.197.583.47.583h.004c.34 0 .494-.31.488-.724A.246.246 0 0 0 0 0m-.791-1.109c-.111-.014-.19-.018-.264-.014v-.267a2.06 2.06 0 0 1 .301.017c.258.033.513.144.697.321.236.233.412.603.412 1.131 0 .614-.302 1.008-.792 1.008-.491 0-.823-.396-.823-.848 0-.411.279-.736.709-.736.242 0 .436.095.567.257h.009a1.043 1.043 0 0 0-.316-.637.835.835 0 0 0-.5-.232" style="fill:#fff;fill-opacity:1;fill-rule:nonzero;stroke:none" transform="matrix(3.34007 0 0 -3.34007 92.263 133.9)"/><path d="M0 0c-.222 0-.417.073-.514.133l-.083-.247A1.18 1.18 0 0 1 0-.263c.52 0 .893.349.893.819 0 .308-.155.52-.344.624a1.006 1.006 0 0 1-.514.128c-.09 0-.14-.009-.197-.012l.094.606h.912v.271H-.303l-.154-1.14c.088.013.196.023.336.023.475 0 .685-.216.685-.534C.566.201.303 0 0 0" style="fill:#fff;fill-opacity:1;fill-rule:nonzero;stroke:none" transform="matrix(3.34007 0 0 -3.34007 96.393 137.664)"/><path d="m0 0-3.672 1.527-.408-.982L-.408-.983Z" style="fill:#fff;fill-opacity:1;fill-rule:nonzero;stroke:none" transform="matrix(3.34007 0 0 -3.34007 30.74 60.052)"/><path d="M0 0c-.066.4-.16.718-.287.952.261.082.557.241.882.479.3.215.585.47.859.759l-.265.63C.805 2.432.414 2.163.012 2.006a2.009 2.009 0 0 0-1.518.025l.532 1.278-.578.239L-2.995.083l.579-.24.502 1.209c.509-.21.878-.55 1.106-1.017.187-.385.277-.842.266-1.375l.614.208C.08-.74.058-.363 0 0" style="fill:#fff;fill-opacity:1;fill-rule:nonzero;stroke:none" transform="matrix(3.34007 0 0 -3.34007 21.548 72.847)"/><path d="M0 0c.146.101.285.311.416.623l1.699 4.088-.576.241L-.115.974l-1.066.445-.409-.983 1.082-.449C-.311-.096-.141-.09 0 0" style="fill:#fff;fill-opacity:1;fill-rule:nonzero;stroke:none" transform="matrix(3.34007 0 0 -3.34007 28.313 77.536)"/><path d="m0 0 1.02-.911-1.677-1.872L.949-4.222a.531.531 0 0 1 .522-.13c.185.052.386.195.599.436l2.423 2.703.48-.43.709.791L1.57 2.832l-.711-.793L4.041-.809 1.68-3.446.504-2.395 2.174-.53.254 1.191l-2.379-2.659.449-.405z" style="fill:#fff;fill-opacity:1;fill-rule:nonzero;stroke:none" transform="matrix(3.34007 0 0 -3.34007 31.209 41.735)"/><path d="m0 0-.381.691-.924-.511.381-.688Z" style="fill:#fff;fill-opacity:1;fill-rule:nonzero;stroke:none" transform="matrix(3.34007 0 0 -3.34007 59.332 29.784)"/><path d="M0 0c-.425-.246-1.002-.451-1.735-.621l.481-.427c.631.171 1.151.341 1.562.52.425.179.732.365.921.563.241-.125.584-.202 1.03-.234.451-.035 1.019-.023 1.709.036l.369.561C3.589.322 2.963.324 2.46.41c-.525.09-.805.253-.846.489l2.162.365-.107.624-5.263-.889.107-.626L.574.725C.616.483.425.241 0 0" style="fill:#fff;fill-opacity:1;fill-rule:nonzero;stroke:none" transform="matrix(3.34007 0 0 -3.34007 76.427 17.073)"/><path d="M0 0c.282-.036.432-.108.451-.228.021-.118-.096-.24-.35-.365-.282-.145-.684-.261-1.207-.351-.533-.087-.957-.11-1.273-.069-.278.035-.429.114-.447.232-.02.117.095.237.345.363.291.139.7.256 1.228.345C-.735.013-.319.041 0 0m-4.501.416 2.536.432.068-.397C-2.588.285-3.112.066-3.472-.208c-.323-.248-.463-.501-.42-.754.049-.292.314-.498.789-.616.537-.137 1.237-.132 2.1.015.854.143 1.508.368 1.965.673.409.269.591.548.541.841-.043.255-.263.445-.657.57C.414.667-.153.703-.859.626l-.066.396 2.557.432-.101.609-6.134-1.041Z" style="fill:#fff;fill-opacity:1;fill-rule:nonzero;stroke:none" transform="matrix(3.34007 0 0 -3.34007 86.323 25.325)"/><path d="m0 0 .551-.094L.354-1.26l1.033-.173.519 3.084-1.031.174L.658.54.105.632l.217 1.287-1.039.175-.505-2.995-.015-.09 1.04-.177z" style="fill:#fff;fill-opacity:1;fill-rule:nonzero;stroke:none" transform="matrix(3.34007 0 0 -3.34007 111.782 19.02)"/><path d="M0 0c.523-.09.932-.216 1.223-.382.271-.148.393-.297.37-.446-.026-.148-.19-.245-.493-.297-.334-.061-.762-.045-1.281.04-.522.09-.932.218-1.23.384-.269.151-.391.299-.368.44.025.149.191.253.496.302C-.949.1-.521.086 0 0m-2.021.593c-.493-.139-.766-.365-.817-.675-.055-.313.131-.611.551-.901.47-.33 1.137-.57 2.002-.716.864-.144 1.566-.138 2.113.023.488.135.757.359.809.669.054.316-.127.618-.545.907C1.629.23.968.467.104.614-.762.758-1.471.751-2.021.593" style="fill:#fff;fill-opacity:1;fill-rule:nonzero;stroke:none" transform="matrix(3.34007 0 0 -3.34007 107.052 24.999)"/><path d="M0 0c.186.127.35.263.484.406.079-.165.204-.347.368-.55.192-.241.41-.457.654-.647l.603.298a2.408 2.408 0 0 0-.752.94c-.15.366-.193.741-.13 1.127l.111.657-1.047.177-.113-.665A1.99 1.99 0 0 0-.324.694C-.563.438-.881.233-1.281.079l.47-.487c.29.105.561.245.811.408" style="fill:#fff;fill-opacity:1;fill-rule:nonzero;stroke:none" transform="matrix(3.34007 0 0 -3.34007 100.202 18.855)"/><path d="m0 0-.922.512-.383-.691.922-.51z" style="fill:#fff;fill-opacity:1;fill-rule:nonzero;stroke:none" transform="matrix(3.34007 0 0 -3.34007 133.44 29.187)"/><path d="M0 0a2.51 2.51 0 0 1-.223-1.126c.007-.36.08-.762.217-1.211l.785-.124c-.2.532-.254 1.052-.162 1.558.11.593.414 1.111.912 1.558l.94.841.89-.992.45.403-2.493 2.784-.451-.406.893-.994-.945-.848C.323 1.001-.224.76-.83.712a2.9 2.9 0 0 0-1.483.279l-.015-.736c.435-.176.824-.29 1.176-.341C-.719-.151-.336-.12 0 0" style="fill:#fff;fill-opacity:1;fill-rule:nonzero;stroke:none" transform="matrix(3.34007 0 0 -3.34007 147.146 44.731)"/><path d="m0 0 1.975 1.769.483-.54.472.422-.482.541L4.11 3.683l-.709.792L-.712.792Z" style="fill:#fff;fill-opacity:1;fill-rule:nonzero;stroke:none" transform="matrix(3.34007 0 0 -3.34007 150.529 58.321)"/><path d="M0 0c-.209-.084-.429-.023-.662.19-.25.228-.48.595-.692 1.104-.213.51-.31.934-.294 1.264.017.314.127.512.334.598.207.086.427.026.66-.184.255-.224.486-.591.697-1.099C.252 1.372.348.948.332.604.318.289.207.087 0 0m.6 2.122c-.34.811-.737 1.399-1.191 1.76-.413.328-.789.418-1.139.273-.348-.145-.551-.477-.61-.999-.063-.581.074-1.276.413-2.086.338-.813.735-1.4 1.192-1.764.41-.33.793-.423 1.139-.277.348.145.551.48.608 1.002C1.074.612.938 1.31.6 2.122" style="fill:#fff;fill-opacity:1;fill-rule:nonzero;stroke:none" transform="matrix(3.34007 0 0 -3.34007 171.603 70.633)"/><path d="m0 0-.585-.241.411-.988-1.595-.663.413-.983 1.591.665.754-1.813-1.593-.664.408-.983 1.595.663.405-.972.583.244z" style="fill:#fff;fill-opacity:1;fill-rule:nonzero;stroke:none" transform="matrix(3.34007 0 0 -3.34007 159.799 58.091)"/><path d="M0 0a.56.56 0 0 1-.509.081.575.575 0 0 1-.367-.361c-.076-.205-.07-.446.021-.727.089-.285.226-.493.406-.624.167-.128.335-.163.501-.11a.583.583 0 0 1 .375.377c.078.214.068.467-.026.76C.31-.32.177-.118 0 0m2.761-3.637-1.53-.489.211-.657-.593-.193-.213.66-1.518-.489-.306.956 3.642 1.17zM1.138.131l.402.128.307-.956-.403-.128.422-1.317-.547-.176L1-1.323c.046-.455-.024-.808-.213-1.058-.169-.229-.412-.353-.731-.371-.268.006-.531.134-.787.389-.288.282-.511.677-.672 1.18-.16.496-.201.939-.123 1.336.068.348.211.6.429.756.255.173.52.214.789.125C-.018.942.241.707.47.33l-.317.987.549.177Zm-3.982-1.434 1.213-3.782-.564-.183-1.32 4.12c-.062.194-.069.359-.019.493a.49.49 0 0 0 .337.292l1.094.353.307-.957z" style="fill:#fff;fill-opacity:1;fill-rule:nonzero;stroke:none" transform="matrix(3.34007 0 0 -3.34007 22.308 114.476)"/><path d="m0 0-1.428 1.97-.597-.433 1.252-1.73-1.553-1.124-.589.81 1.073.779-2.467 3.403.479.348 1.213-1.674.601.434-1.39 1.915.479.347 2.57-3.544c.14.049.291.12.452.208.134.077.28.169.436.285l.244.176-2.467 3.403.483.35 3.058-4.215-.458-.333A6.67 6.67 0 0 0 .221.702L.479.347Z" style="fill:#fff;fill-opacity:1;fill-rule:nonzero;stroke:none" transform="matrix(3.34007 0 0 -3.34007 37.367 150.8)"/><path d="m0 0-1.762-2.418-.81.59L-.812.591zm-5.529-.751-.442-.607 2.45-1.784.441.606zm1.947 2.871.248.341.811-.59-.247-.342L-1.675.73l-.337-.465-1.096.799c-.2-.275-.263-.616-.186-1.025.071-.38.253-.785.55-1.212l-.623-.097c-.227.3-.412.622-.553.966-.14.346-.207.636-.199.869-.227-.074-.527-.096-.902-.066a4.188 4.188 0 0 0-1.11.237l-.045.575c.48-.131.915-.176 1.306-.131.438.049.753.206.95.475l-1.096.799.338.464zm1.665-4.764L-3.065-4.22-6.47-1.743c-.221.163-.358.329-.406.5a.513.513 0 0 0 .091.47L-5.99.322z" style="fill:#fff;fill-opacity:1;fill-rule:nonzero;stroke:none" transform="matrix(3.34007 0 0 -3.34007 61.263 158.451)"/><path d="m0 0-1.622-5.015-.941.304L-.942.304zm-3.169.909-.753-2.332-1.259.408-.466-1.444 2.039-.66.193.597-.68.218.176.541.678-.22.369 1.145-.679.217.177.548.678-.219.341 1.054.942-.305-1.621-5.017-.942.305.19.585-2.155.694c-.271.089-.464.203-.576.342-.109.143-.132.31-.072.501l.639 1.978 1.251-.407.397 1.231-1.251.405.177.547z" style="fill:#fff;fill-opacity:1;fill-rule:nonzero;stroke:none" transform="matrix(3.34007 0 0 -3.34007 82.207 165.918)"/><path d="m0 0 .062-3.796-1.003-.016-.063 3.796zm-3.952-4.687 4.075.065.01-.591-4.19-.069c-.321-.004-.552.037-.694.126-.132.09-.2.235-.204.441l-.018 1.117 1.003.017zm1.364 2.832c.277-.335.672-.591 1.186-.77l-.473-.468a5.555 5.555 0 0 0-1.075.569c-.329.228-.556.447-.681.657-.137-.214-.366-.44-.687-.679a5.612 5.612 0 0 0-1.028-.593l-.422.438c.467.216.829.487 1.086.812.36.462.532 1.057.52 1.779l1.011.016c.011-.734.2-1.321.563-1.761" style="fill:#fff;fill-opacity:1;fill-rule:nonzero;stroke:none" transform="matrix(3.34007 0 0 -3.34007 103.595 166.272)"/><path d="m0 0 .389-1.182.65.216.189-.573-.65-.214.359-1.087-.953-.316-.937 2.842zm1.047-3.174.603-1.825-.953-.316-.418 1.264-3.843-1.268-.184.561Zm-4.696.493c-.109-.147-.138-.297-.089-.446.047-.144.16-.245.338-.31.209-.069.451-.059.724.032.276.09.479.227.608.41.115.159.146.31.101.453-.051.149-.166.25-.349.301-.205.058-.448.043-.727-.05-.279-.094-.482-.222-.606-.39m-.136 1.103-.108.322.954.314.107-.322 1.312.433.176-.529-.978-.325c.435.05.773-.005 1.009-.162.219-.143.334-.361.346-.654-.01-.261-.137-.516-.383-.765-.277-.284-.662-.506-1.15-.67-.494-.163-.937-.211-1.331-.145-.341.061-.592.191-.747.389-.172.239-.213.481-.127.724.099.267.336.512.715.735l-.971-.323-.176.533z" style="fill:#fff;fill-opacity:1;fill-rule:nonzero;stroke:none" transform="matrix(3.34007 0 0 -3.34007 124.483 160.26)"/><path d="m0 0-.934-.688 2.012-2.725 1.429 1.054L.091.917l.806.596L2.14-.171l.606.448-1.243 1.681.808.598 3.13-4.242-.808-.595L3.104-.21l-.605-.447 1.528-2.071-.806-.597-.366.495-1.543-1.14c-.24-.177-.453-.261-.638-.252-.169.006-.319.097-.445.269L-2.082-.822-.342.463z" style="fill:#fff;fill-opacity:1;fill-rule:nonzero;stroke:none" transform="matrix(3.34007 0 0 -3.34007 135.325 156.026)"/><path d="m0 0 1.565-1.119-.583-.816-1.083.775-2.355-3.293-.481.346Zm-2.718 1.945 1.012-.724.398.557.491-.351-.399-.557.932-.666-.584-.816-2.434 1.741Zm-1.363-4.318c0-.185.063-.322.191-.412.121-.086.274-.104.455-.051.209.066.399.218.567.453.168.236.252.466.25.689-.003.197-.065.338-.188.424-.128.093-.281.104-.459.037-.201-.072-.386-.229-.556-.469-.172-.237-.258-.463-.26-.671m-.762.809-.275.198.583.816.278-.198.803 1.127.455-.326-.6-.838c.325.297.628.452.912.465.26.014.483-.096.664-.324.147-.215.194-.498.143-.845-.056-.393-.234-.8-.533-1.218-.304-.423-.633-.724-.989-.902-.314-.156-.59-.199-.833-.13-.28.094-.455.265-.53.512-.08.273-.03.611.145 1.013l-.596-.832-.453.324z" style="fill:#fff;fill-opacity:1;fill-rule:nonzero;stroke:none" transform="matrix(3.34007 0 0 -3.34007 164.946 137.002)"/><path d="m0 0-1.736-5.539-.555.175.223.704-2.27.711.299.957 2.27-.71.236.75-2.269.712.298.956 2.27-.711.679 2.167zm-4.654 1.144L-2.74.545c.38-.118.732-.263 1.058-.431.334-.171.639-.364.916-.577l-.291-.927c-.242.191-.5.358-.771.507-.289.151-.606.28-.951.388l-1.557.489-1.258-4.012-.617.194z" style="fill:#fff;fill-opacity:1;fill-rule:nonzero;stroke:none" transform="matrix(3.34007 0 0 -3.34007 179.072 113.675)"/><path d="M0 0v.293C.197.165.418.101.666.101c.2 0 .36.042.48.125.12.083.18.194.18.335 0 .31-.267.465-.801.465H.287v.231h.227c.474 0 .712.146.712.437 0 .27-.182.405-.544.405a1.05 1.05 0 0 1-.572-.171v.265c.185.091.403.137.654.137.242 0 .436-.054.581-.16a.486.486 0 0 0 .218-.408c0-.312-.193-.513-.578-.603v-.007a.841.841 0 0 0 .494-.18.484.484 0 0 0 .184-.387.605.605 0 0 0-.278-.516C1.2-.062.956-.127.652-.127.379-.127.162-.085 0 0" style="fill:#fff;fill-opacity:1;fill-rule:nonzero;stroke:none" transform="matrix(3.34007 0 0 -3.34007 101.044 138.127)"/></svg>