<svg xmlns="http://www.w3.org/2000/svg" xml:space="preserve" width="978.59027" height="900" viewBox="0 0 978.59025 900"><defs><linearGradient id="b" x1="0" x2="0.89999998" y1="0" y2="0" gradientTransform="matrix(-112.073 -.22 -.093 47.664 2216.23 2626.12)" gradientUnits="userSpaceOnUse" spreadMethod="pad"><stop offset="0" style="stop-opacity:1;stop-color:#fff"/><stop offset="0.26303688" style="stop-opacity:1;stop-color:#fff"/><stop offset="1" style="stop-opacity:1;stop-color:#2a97db"/></linearGradient><linearGradient id="d" x1="0" x2="0.89999998" y1="0" y2="0" gradientTransform="matrix(112.239 .309 .131 -47.642 2664.16 2673.24)" gradientUnits="userSpaceOnUse" spreadMethod="pad"><stop offset="0" style="stop-opacity:1;stop-color:#fff"/><stop offset="0.26303688" style="stop-opacity:1;stop-color:#fff"/><stop offset="1" style="stop-opacity:1;stop-color:#2a97db"/></linearGradient><linearGradient id="f" x1="0" x2="0.89999998" y1="0" y2="0" gradientTransform="matrix(-110.339 -21.939 -9.308 46.814 2225.67 2582.15)" gradientUnits="userSpaceOnUse" spreadMethod="pad"><stop offset="0" style="stop-opacity:1;stop-color:#fff"/><stop offset="0.26303688" style="stop-opacity:1;stop-color:#fff"/><stop offset="1" style="stop-opacity:1;stop-color:#2a97db"/></linearGradient><linearGradient id="h" x1="0" x2="0.89999998" y1="0" y2="0" gradientTransform="matrix(109.707 22.439 9.541 -46.647 2655.82 2715.68)" gradientUnits="userSpaceOnUse" spreadMethod="pad"><stop offset="0" style="stop-opacity:1;stop-color:#fff"/><stop offset="0.26303688" style="stop-opacity:1;stop-color:#fff"/><stop offset="1" style="stop-opacity:1;stop-color:#2a97db"/></linearGradient><linearGradient id="j" x1="0" x2="0.89999998" y1="0" y2="0" gradientTransform="matrix(-105.086 -42.546 -17.929 44.283 2243.7 2540.34)" gradientUnits="userSpaceOnUse" spreadMethod="pad"><stop offset="0" style="stop-opacity:1;stop-color:#fff"/><stop offset="0.26303688" style="stop-opacity:1;stop-color:#fff"/><stop offset="1" style="stop-opacity:1;stop-color:#2a97db"/></linearGradient><linearGradient id="l" x1="0" x2="0.89999998" y1="0" y2="0" gradientTransform="matrix(103.255 43.839 18.59 -43.785 2639.5 2755.74)" gradientUnits="userSpaceOnUse" spreadMethod="pad"><stop offset="0" style="stop-opacity:1;stop-color:#fff"/><stop offset="0.26303688" style="stop-opacity:1;stop-color:#fff"/><stop offset="1" style="stop-opacity:1;stop-color:#2a97db"/></linearGradient><linearGradient id="n" x1="0" x2="0.89999998" y1="0" y2="0" gradientTransform="matrix(-94.211 -62.857 -26.536 39.772 2269.15 2504.68)" gradientUnits="userSpaceOnUse" spreadMethod="pad"><stop offset="0" style="stop-opacity:1;stop-color:#fff"/><stop offset="0.26303688" style="stop-opacity:1;stop-color:#fff"/><stop offset="1" style="stop-opacity:1;stop-color:#2a97db"/></linearGradient><linearGradient id="p" x1="0" x2="0.89999998" y1="0" y2="0" gradientTransform="matrix(92.379 61.745 26.392 -39.486 2615.2 2793.28)" gradientUnits="userSpaceOnUse" spreadMethod="pad"><stop offset="0" style="stop-opacity:1;stop-color:#fff"/><stop offset="0.26303688" style="stop-opacity:1;stop-color:#fff"/><stop offset="1" style="stop-opacity:1;stop-color:#2a97db"/></linearGradient><linearGradient id="r" x1="0" x2="0.89999998" y1="0" y2="0" gradientTransform="matrix(77.914 78.837 33.728 -33.333 2584.78 2824.03)" gradientUnits="userSpaceOnUse" spreadMethod="pad"><stop offset="0" style="stop-opacity:1;stop-color:#fff"/><stop offset="0.26303688" style="stop-opacity:1;stop-color:#fff"/><stop offset="1" style="stop-opacity:1;stop-color:#2a97db"/></linearGradient><linearGradient id="t" x1="0" x2="0.89999998" y1="0" y2="0" gradientTransform="matrix(61.143 93.234 39.629 -25.989 2548.68 2848.71)" gradientUnits="userSpaceOnUse" spreadMethod="pad"><stop offset="0" style="stop-opacity:1;stop-color:#fff"/><stop offset="0.26303688" style="stop-opacity:1;stop-color:#fff"/><stop offset="1" style="stop-opacity:1;stop-color:#2a97db"/></linearGradient><linearGradient id="v" x1="0" x2="0.89999998" y1="0" y2="0" gradientTransform="matrix(42.867 103.013 43.747 -18.205 2507.14 2866.75)" gradientUnits="userSpaceOnUse" spreadMethod="pad"><stop offset="0" style="stop-opacity:1;stop-color:#fff"/><stop offset="0.26303688" style="stop-opacity:1;stop-color:#fff"/><stop offset="1" style="stop-opacity:1;stop-color:#2a97db"/></linearGradient><linearGradient id="x" x1="0" x2="0.89999998" y1="0" y2="0" gradientTransform="matrix(21.863 109.07 46.416 -9.304 2463.74 2875.71)" gradientUnits="userSpaceOnUse" spreadMethod="pad"><stop offset="0" style="stop-opacity:1;stop-color:#fff"/><stop offset="0.26303688" style="stop-opacity:1;stop-color:#fff"/><stop offset="1" style="stop-opacity:1;stop-color:#2a97db"/></linearGradient><linearGradient id="z" x1="0" x2="0.89999998" y1="0" y2="0" gradientTransform="matrix(-.242 111.229 47.346 .103 2419.65 2875.94)" gradientUnits="userSpaceOnUse" spreadMethod="pad"><stop offset="0" style="stop-opacity:1;stop-color:#fff"/><stop offset="0.26303688" style="stop-opacity:1;stop-color:#fff"/><stop offset="1" style="stop-opacity:1;stop-color:#2a97db"/></linearGradient><linearGradient id="B" x1="0" x2="0.89999998" y1="0" y2="0" gradientTransform="matrix(-21.309 109.07 46.475 9.08 2375.24 2867.53)" gradientUnits="userSpaceOnUse" spreadMethod="pad"><stop offset="0" style="stop-opacity:1;stop-color:#fff"/><stop offset="0.26303688" style="stop-opacity:1;stop-color:#fff"/><stop offset="1" style="stop-opacity:1;stop-color:#2a97db"/></linearGradient><linearGradient id="D" x1="0" x2="0.89999998" y1="0" y2="0" gradientTransform="matrix(-41.914 102.215 43.841 17.977 2333.88 2850.5)" gradientUnits="userSpaceOnUse" spreadMethod="pad"><stop offset="0" style="stop-opacity:1;stop-color:#fff"/><stop offset="0.26303688" style="stop-opacity:1;stop-color:#fff"/><stop offset="1" style="stop-opacity:1;stop-color:#2a97db"/></linearGradient><linearGradient id="F" x1="0" x2="0.89999998" y1="0" y2="0" gradientTransform="matrix(-60.997 93.236 39.653 25.942 2296.02 2825.32)" gradientUnits="userSpaceOnUse" spreadMethod="pad"><stop offset="0" style="stop-opacity:1;stop-color:#fff"/><stop offset="0.26303688" style="stop-opacity:1;stop-color:#fff"/><stop offset="1" style="stop-opacity:1;stop-color:#2a97db"/></linearGradient><linearGradient id="H" x1="0" x2="0.89999998" y1="0" y2="0" gradientTransform="matrix(-80.097 78.072 33.097 33.955 2266.53 2794.73)" gradientUnits="userSpaceOnUse" spreadMethod="pad"><stop offset="0" style="stop-opacity:1;stop-color:#fff"/><stop offset="0.26303688" style="stop-opacity:1;stop-color:#fff"/><stop offset="1" style="stop-opacity:1;stop-color:#2a97db"/></linearGradient><linearGradient id="J" x1="0" x2="0.89999998" y1="0" y2="0" gradientTransform="matrix(93.477 -62.808 -26.679 -39.706 2639.83 2547.41)" gradientUnits="userSpaceOnUse" spreadMethod="pad"><stop offset="0" style="stop-opacity:1;stop-color:#fff"/><stop offset="0.26303688" style="stop-opacity:1;stop-color:#fff"/><stop offset="1" style="stop-opacity:1;stop-color:#2a97db"/></linearGradient><linearGradient id="L" x1="0" x2="0.89999998" y1="0" y2="0" gradientTransform="matrix(-92.902 61.304 26.149 39.628 2241.05 2756.92)" gradientUnits="userSpaceOnUse" spreadMethod="pad"><stop offset="0" style="stop-opacity:1;stop-color:#fff"/><stop offset="0.26303688" style="stop-opacity:1;stop-color:#fff"/><stop offset="1" style="stop-opacity:1;stop-color:#2a97db"/></linearGradient><linearGradient id="N" x1="0" x2="0.89999998" y1="0" y2="0" gradientTransform="matrix(103.862 -44.072 -18.662 -43.98 2656.5 2588.27)" gradientUnits="userSpaceOnUse" spreadMethod="pad"><stop offset="0" style="stop-opacity:1;stop-color:#fff"/><stop offset="0.26303688" style="stop-opacity:1;stop-color:#fff"/><stop offset="1" style="stop-opacity:1;stop-color:#2a97db"/></linearGradient><linearGradient id="P" x1="0" x2="0.89999998" y1="0" y2="0" gradientTransform="matrix(-103.889 42.629 18.047 43.98 2223.99 2715.17)" gradientUnits="userSpaceOnUse" spreadMethod="pad"><stop offset="0" style="stop-opacity:1;stop-color:#fff"/><stop offset="0.26303688" style="stop-opacity:1;stop-color:#fff"/><stop offset="1" style="stop-opacity:1;stop-color:#2a97db"/></linearGradient><linearGradient id="R" x1="0" x2="0.89999998" y1="0" y2="0" gradientTransform="matrix(110.222 -22.225 -9.433 -46.782 2664.36 2630.37)" gradientUnits="userSpaceOnUse" spreadMethod="pad"><stop offset="0" style="stop-opacity:1;stop-color:#fff"/><stop offset="0.26303688" style="stop-opacity:1;stop-color:#fff"/><stop offset="1" style="stop-opacity:1;stop-color:#2a97db"/></linearGradient><linearGradient id="T" x1="0" x2="0.89999998" y1="0" y2="0" gradientTransform="matrix(-109.521 22.3 9.498 46.648 2215.29 2670.29)" gradientUnits="userSpaceOnUse" spreadMethod="pad"><stop offset="0" style="stop-opacity:1;stop-color:#fff"/><stop offset="0.26303688" style="stop-opacity:1;stop-color:#fff"/><stop offset="1" style="stop-opacity:1;stop-color:#2a97db"/></linearGradient><clipPath id="a" clipPathUnits="userSpaceOnUse"><path d="m2219.05 2650.01-111.89 16c-.29-5.76-.44-11.55-.44-17.38 0-5.08.17-10.12.38-15.15l111.95 16.01v.52"/></clipPath><clipPath id="c" clipPathUnits="userSpaceOnUse"><path d="m2667.14 2649.48 111.97-16c.22 5.03.38 10.07.38 15.15 0 5.81-.15 11.62-.44 17.35l-111.91-15.99v-.51"/></clipPath><clipPath id="e" clipPathUnits="userSpaceOnUse"><path d="m2223.29 2606.28-113.04-6.14c1.56-10.83 3.65-21.5 6.23-31.99l106.91 37.64-.1.49"/></clipPath><clipPath id="g" clipPathUnits="userSpaceOnUse"><path d="m2662.88 2693.19 112.8 6.14c-1.64 10.8-3.79 21.41-6.42 31.84l-106.47-37.47.09-.51"/></clipPath><clipPath id="i" clipPathUnits="userSpaceOnUse"><path d="m2236.01 2564.25-109.92-28.15c3.65-10.31 7.79-20.39 12.4-30.19l97.69 57.87-.17.47"/></clipPath><clipPath id="k" clipPathUnits="userSpaceOnUse"><path d="m2650.18 2735.25 109.27 27.96c-3.7 10.22-7.9 20.21-12.52 29.93l-96.94-57.41.19-.48"/></clipPath><clipPath id="m" clipPathUnits="userSpaceOnUse"><path d="m2256.65 2525.5-102.46-49.14c5.6-9.38 11.63-18.46 18.11-27.21l84.63 75.9-.28.45"/></clipPath><clipPath id="o" clipPathUnits="userSpaceOnUse"><path d="m2629.53 2774.02 101.48 48.64c-5.59 9.24-11.64 18.2-18.07 26.84l-83.69-75.07.28-.41"/></clipPath><clipPath id="q" clipPathUnits="userSpaceOnUse"><path d="m2601.71 2808 89.84 67.38c-7.26 7.94-14.88 15.55-22.89 22.77l-67.32-89.8.37-.35"/></clipPath><clipPath id="s" clipPathUnits="userSpaceOnUse"><path d="m2567.79 2835.89 74.89 83.51a336.625 336.625 0 0 1-26.85 17.9l-48.45-101.12.41-.29"/></clipPath><clipPath id="u" clipPathUnits="userSpaceOnUse"><path d="m2529.07 2856.65 57.13 96.45c-9.7 4.54-19.65 8.67-29.8 12.3l-27.79-108.55.46-.2"/></clipPath><clipPath id="w" clipPathUnits="userSpaceOnUse"><path d="m2487.04 2869.45 37.19 105.66a338.809 338.809 0 0 1-31.6 6.25l-6.08-111.82.49-.09"/></clipPath><clipPath id="y" clipPathUnits="userSpaceOnUse"><path d="m2443.34 2873.8 15.86 110.81c-5.34.24-10.69.42-16.1.42-5.39 0-10.76-.18-16.12-.42l15.84-110.81h.52"/></clipPath><clipPath id="A" clipPathUnits="userSpaceOnUse"><path d="m2399.64 2869.54-6.09 111.82a332.48 332.48 0 0 1-31.6-6.27l37.16-105.64.53.09"/></clipPath><clipPath id="C" clipPathUnits="userSpaceOnUse"><path d="m2357.58 2856.85-27.78 108.55c-10.18-3.64-20.1-7.76-29.81-12.32l57.13-96.43.46.2"/></clipPath><clipPath id="E" clipPathUnits="userSpaceOnUse"><path d="m2318.83 2836.18-48.47 101.09c-9.23-5.54-18.2-11.51-26.83-17.88l74.88-83.5.42.29"/></clipPath><clipPath id="G" clipPathUnits="userSpaceOnUse"><path d="m2284.84 2808.35-67.31 89.79a336.93 336.93 0 0 1-22.89-22.78l89.85-67.35.35.34"/></clipPath><clipPath id="I" clipPathUnits="userSpaceOnUse"><path d="m2629.23 2525.05 84.67-75.92a326.55 326.55 0 0 1 18.12 27.23l-102.51 49.12-.28-.43"/></clipPath><clipPath id="K" clipPathUnits="userSpaceOnUse"><path d="m2256.93 2774.44-83.68 75.04a338.216 338.216 0 0 1-18.06-26.84l101.48-48.6.26.4"/></clipPath><clipPath id="M" clipPathUnits="userSpaceOnUse"><path d="m2649.97 2563.78 97.74-57.89c4.61 9.81 8.77 19.89 12.42 30.2l-109.96 28.16-.2-.47"/></clipPath><clipPath id="O" clipPathUnits="userSpaceOnUse"><path d="m2236.17 2735.73-96.88 57.4c-4.64-9.72-8.81-19.7-12.52-29.9l109.24-27.96.16.46"/></clipPath><clipPath id="Q" clipPathUnits="userSpaceOnUse"><path d="m2662.77 2605.77 106.96-37.62c2.57 10.48 4.68 21.16 6.24 31.99l-113.11 6.14-.09-.51"/></clipPath><clipPath id="S" clipPathUnits="userSpaceOnUse"><path d="m2223.37 2693.72-106.42 37.45c-2.62-10.43-4.8-21.04-6.41-31.83l112.75-6.12.08.5"/></clipPath></defs><g clip-path="url(#a)" transform="matrix(1.45457 0 0 -1.45457 -3064.37 4341.932)"><path d="m2219.05 2650.01-111.89 16c-.29-5.76-.44-11.55-.44-17.38 0-5.08.17-10.12.38-15.15l111.95 16.01v.52" style="fill:url(#b);fill-opacity:1;fill-rule:nonzero;stroke:none"/></g><g clip-path="url(#c)" transform="matrix(1.45457 0 0 -1.45457 -3064.37 4341.932)"><path d="m2667.14 2649.48 111.97-16c.22 5.03.38 10.07.38 15.15 0 5.81-.15 11.62-.44 17.35l-111.91-15.99v-.51" style="fill:url(#d);fill-opacity:1;fill-rule:nonzero;stroke:none"/></g><g clip-path="url(#e)" transform="matrix(1.45457 0 0 -1.45457 -3064.37 4341.932)"><path d="m2223.29 2606.28-113.04-6.14c1.56-10.83 3.65-21.5 6.23-31.99l106.91 37.64-.1.49" style="fill:url(#f);fill-opacity:1;fill-rule:nonzero;stroke:none"/></g><g clip-path="url(#g)" transform="matrix(1.45457 0 0 -1.45457 -3064.37 4341.932)"><path d="m2662.88 2693.19 112.8 6.14c-1.64 10.8-3.79 21.41-6.42 31.84l-106.47-37.47.09-.51" style="fill:url(#h);fill-opacity:1;fill-rule:nonzero;stroke:none"/></g><g clip-path="url(#i)" transform="matrix(1.45457 0 0 -1.45457 -3064.37 4341.932)"><path d="m2236.01 2564.25-109.92-28.15c3.65-10.31 7.79-20.39 12.4-30.19l97.69 57.87-.17.47" style="fill:url(#j);fill-opacity:1;fill-rule:nonzero;stroke:none"/></g><g clip-path="url(#k)" transform="matrix(1.45457 0 0 -1.45457 -3064.37 4341.932)"><path d="m2650.18 2735.25 109.27 27.96c-3.7 10.22-7.9 20.21-12.52 29.93l-96.94-57.41.19-.48" style="fill:url(#l);fill-opacity:1;fill-rule:nonzero;stroke:none"/></g><g clip-path="url(#m)" transform="matrix(1.45457 0 0 -1.45457 -3064.37 4341.932)"><path d="m2256.65 2525.5-102.46-49.14c5.6-9.38 11.63-18.46 18.11-27.21l84.63 75.9-.28.45" style="fill:url(#n);fill-opacity:1;fill-rule:nonzero;stroke:none"/></g><g clip-path="url(#o)" transform="matrix(1.45457 0 0 -1.45457 -3064.37 4341.932)"><path d="m2629.53 2774.02 101.48 48.64c-5.59 9.24-11.64 18.2-18.07 26.84l-83.69-75.07.28-.41" style="fill:url(#p);fill-opacity:1;fill-rule:nonzero;stroke:none"/></g><g clip-path="url(#q)" transform="matrix(1.45457 0 0 -1.45457 -3064.37 4341.932)"><path d="m2601.71 2808 89.84 67.38c-7.26 7.94-14.88 15.55-22.89 22.77l-67.32-89.8.37-.35" style="fill:url(#r);fill-opacity:1;fill-rule:nonzero;stroke:none"/></g><g clip-path="url(#s)" transform="matrix(1.45457 0 0 -1.45457 -3064.37 4341.932)"><path d="m2567.79 2835.89 74.89 83.51a336.625 336.625 0 0 1-26.85 17.9l-48.45-101.12.41-.29" style="fill:url(#t);fill-opacity:1;fill-rule:nonzero;stroke:none"/></g><g clip-path="url(#u)" transform="matrix(1.45457 0 0 -1.45457 -3064.37 4341.932)"><path d="m2529.07 2856.65 57.13 96.45c-9.7 4.54-19.65 8.67-29.8 12.3l-27.79-108.55.46-.2" style="fill:url(#v);fill-opacity:1;fill-rule:nonzero;stroke:none"/></g><g clip-path="url(#w)" transform="matrix(1.45457 0 0 -1.45457 -3064.37 4341.932)"><path d="m2487.04 2869.45 37.19 105.66a338.809 338.809 0 0 1-31.6 6.25l-6.08-111.82.49-.09" style="fill:url(#x);fill-opacity:1;fill-rule:nonzero;stroke:none"/></g><g clip-path="url(#y)" transform="matrix(1.45457 0 0 -1.45457 -3064.37 4341.932)"><path d="m2443.34 2873.8 15.86 110.81c-5.34.24-10.69.42-16.1.42-5.39 0-10.76-.18-16.12-.42l15.84-110.81h.52" style="fill:url(#z);fill-opacity:1;fill-rule:nonzero;stroke:none"/></g><g clip-path="url(#A)" transform="matrix(1.45457 0 0 -1.45457 -3064.37 4341.932)"><path d="m2399.64 2869.54-6.09 111.82a332.48 332.48 0 0 1-31.6-6.27l37.16-105.64.53.09" style="fill:url(#B);fill-opacity:1;fill-rule:nonzero;stroke:none"/></g><g clip-path="url(#C)" transform="matrix(1.45457 0 0 -1.45457 -3064.37 4341.932)"><path d="m2357.58 2856.85-27.78 108.55c-10.18-3.64-20.1-7.76-29.81-12.32l57.13-96.43.46.2" style="fill:url(#D);fill-opacity:1;fill-rule:nonzero;stroke:none"/></g><g clip-path="url(#E)" transform="matrix(1.45457 0 0 -1.45457 -3064.37 4341.932)"><path d="m2318.83 2836.18-48.47 101.09c-9.23-5.54-18.2-11.51-26.83-17.88l74.88-83.5.42.29" style="fill:url(#F);fill-opacity:1;fill-rule:nonzero;stroke:none"/></g><g clip-path="url(#G)" transform="matrix(1.45457 0 0 -1.45457 -3064.37 4341.932)"><path d="m2284.84 2808.35-67.31 89.79a336.93 336.93 0 0 1-22.89-22.78l89.85-67.35.35.34" style="fill:url(#H);fill-opacity:1;fill-rule:nonzero;stroke:none"/></g><g clip-path="url(#I)" transform="matrix(1.45457 0 0 -1.45457 -3064.37 4341.932)"><path d="m2629.23 2525.05 84.67-75.92a326.55 326.55 0 0 1 18.12 27.23l-102.51 49.12-.28-.43" style="fill:url(#J);fill-opacity:1;fill-rule:nonzero;stroke:none"/></g><g clip-path="url(#K)" transform="matrix(1.45457 0 0 -1.45457 -3064.37 4341.932)"><path d="m2256.93 2774.44-83.68 75.04a338.216 338.216 0 0 1-18.06-26.84l101.48-48.6.26.4" style="fill:url(#L);fill-opacity:1;fill-rule:nonzero;stroke:none"/></g><g clip-path="url(#M)" transform="matrix(1.45457 0 0 -1.45457 -3064.37 4341.932)"><path d="m2649.97 2563.78 97.74-57.89c4.61 9.81 8.77 19.89 12.42 30.2l-109.96 28.16-.2-.47" style="fill:url(#N);fill-opacity:1;fill-rule:nonzero;stroke:none"/></g><g clip-path="url(#O)" transform="matrix(1.45457 0 0 -1.45457 -3064.37 4341.932)"><path d="m2236.17 2735.73-96.88 57.4c-4.64-9.72-8.81-19.7-12.52-29.9l109.24-27.96.16.46" style="fill:url(#P);fill-opacity:1;fill-rule:nonzero;stroke:none"/></g><g clip-path="url(#Q)" transform="matrix(1.45457 0 0 -1.45457 -3064.37 4341.932)"><path d="m2662.77 2605.77 106.96-37.62c2.57 10.48 4.68 21.16 6.24 31.99l-113.11 6.14-.09-.51" style="fill:url(#R);fill-opacity:1;fill-rule:nonzero;stroke:none"/></g><g clip-path="url(#S)" transform="matrix(1.45457 0 0 -1.45457 -3064.37 4341.932)"><path d="m2223.37 2693.72-106.42 37.45c-2.62-10.43-4.8-21.04-6.41-31.83l112.75-6.12.08.5" style="fill:url(#T);fill-opacity:1;fill-rule:nonzero;stroke:none"/></g><path d="M444.131-83.3c4.165 15.098 22.686 13.931 22.686 13.931h63.3V57.85h16.948v-141.8H470.98s-14.073 1.296-15.755-16.426h-55.429c-1.689 17.722-15.749 16.426-15.749 16.426h-76.05v141.8h16.909V-69.369h63.319s18.489 1.167 22.679-13.931h33.226" style="fill:#2a97db;fill-opacity:1;fill-rule:nonzero;stroke:none;stroke-width:.644665" transform="matrix(2.25632 0 0 -2.25632 -475.343 673.517)"/><path d="m477.634 81.921 41.06.052V-59.46H453.06s-14.067.528-13.828-13.3H415.56c.277 13.828-13.796 13.3-13.796 13.3H336.11V81.973h48.982s-21.371 7.568-24.756 41.168c-3.378 33.6 25.787 51.567 25.787 51.567 27.057 21.545 25.922 49.949 24.613 59.922-.496 4.042 1.98 3.39 1.98 3.39 53.12-9.134 54.912-61.198 54.912-61.198s34.709-17.747 31.537-55.247c-2.153-25.606-15.35-36.076-21.532-39.64zm-47.196 61.785c44.792 36.74-3.403 73.472-3.403 73.472s3.648-29.267-30.21-53.926c-26.843-19.546-29.7-69.553 16.923-80.75-21.893 30.989 16.69 61.204 16.69 61.204zM427.46-54.271c6.472 10.96 21.442 10.154 21.442 10.154h52.894V68.164H451.52s-12.764-.251-13.029-10.67h-22.138c-.264 10.419-13.015 10.67-13.015 10.67h-50.284V-44.117h52.901s14.97.806 21.506-10.154zm36.565 214.145s-4.422-13.557-24.742-30.222c0 0-27.63-21.1-9.393-41.948 0 0 20.069-17.716 44.553 10.16 0 0 25.271 32.291-10.418 62.01" style="fill:#2a97db;fill-opacity:1;fill-rule:nonzero;stroke:none;stroke-width:.644665" transform="matrix(2.25632 0 0 -2.25632 -475.343 673.517)"/><path d="M395.665 33.784h-10.901l-7.859-19.263v19.263h-10.224v-43.45h10.224v19.25l7.859-19.25h10.901l-9.921 21.718 9.921 21.732M415.81-9.666l-7.78 23.968h-.123l1.077-23.968h-9.954v43.45h10.483l7.723-23.994h.174l-1.128 23.994h9.96v-43.45H415.81M431.65 2.312v31.472h10.212V.977c0-2.585 1.173-3.874 3.526-3.874 2.308 0 3.456 1.386 3.456 4.177v32.504h10.243V2.312c0-8.703-4.596-13.042-13.77-13.042-9.122 0-13.667 4.339-13.667 13.042M488.374-9.666h-23.768v43.45h23.768V25.1h-13.531v-8.683h12.687V7.753h-12.687v-8.755h13.531v-8.664" style="fill:#2a97db;fill-opacity:1;fill-rule:nonzero;stroke:none;stroke-width:.644665" transform="matrix(2.25632 0 0 -2.25632 -475.343 673.517)"/></svg>