<svg xmlns="http://www.w3.org/2000/svg" width="178.1273mm" height="178.1273mm" viewBox="0 0 178.1273 178.1273"><g transform="matrix(1.10421 0 0 1.10421 -12.376 -45)"><circle cx="91.865547" cy="121.41132" r="80.65799" style="fill:#f9f9f9;stroke:#fff;stroke-width:0"/><path d="m0 0 10.248 10.81c1.921 2.025 3.497 2.317 4.781 1.1 1.312-1.243 1.104-2.834-.816-4.859L3.964-3.759C2.287-5.527.597-5.711-.602-4.576-1.771-3.467-1.677-1.769 0 0m-2.711-6.8c3.908-3.705 7.256-2.059 9.987.822l9.87 10.411c3.029 3.194 3.671 6.213-.007 9.702-3.88 3.678-7.228 2.032-9.959-.849L-2.69 2.875C-5.719-.319-6.361-3.339-2.711-6.8" style="fill:#2744a0;fill-opacity:1;fill-rule:nonzero;stroke:none" transform="matrix(.61556 0 0 -.61556 130.335 76.634)"/><path d="M0 0c3.767-2.569 6.058-1.373 7.741 1.095l1.772 2.597-3.052 2.082-1.107-1.623C4.024 2.203 2.67 1.89 1.468 2.709c-1.038.709-1.583 1.794.3 4.554l7.84 11.494c1.928 2.825 3.072 3.805 4.76 2.653 1.363-.931 1.241-2.227.222-3.72l-1.108-1.624 3.052-2.082 1.596 2.338c1.794 2.63 1.407 5.272-1.807 7.465-4.416 3.012-7.458.854-9.695-2.426l-8.085-11.85C-3.938 5.874-4.091 2.791 0 0" style="fill:#2744a0;fill-opacity:1;fill-rule:nonzero;stroke:none" transform="matrix(.61556 0 0 -.61556 122.448 75.761)"/><path d="M0 0c4.64-.588 6.677 1.729 7.235 6.135.43 3.392-.098 4.846-3.416 9.307C.706 19.641.465 20.86.707 22.771c.276 2.183 1.131 2.986 2.73 2.783 1.521-.193 2.065-1.213 1.862-2.811l-.281-2.222 3.665-.465.336 2.651c.252 1.989-.092 3.023-.676 3.731-.827.976-2.259 1.871-4.364 2.138-4.25.538-6.647-1.179-7.231-5.78-.483-3.82 1.296-6.344 3.476-9.156C3.77 9.11 3.787 8.315 3.486 5.937c-.232-1.833-.917-3.172-2.983-2.91-1.561.198-2.113 1.456-1.877 3.327l.292 2.301-3.899.494-.425-3.353C-5.851 2.287-3.587.455 0 0" style="fill:#2744a0;fill-opacity:1;fill-rule:nonzero;stroke:none" transform="matrix(.61556 0 0 -.61556 98.886 66.778)"/><path d="m0 0 8.133 24.218.074-.025L4.248-1.426l3.726-1.252 11.932 22.943.075-.025-8.132-24.219 3.503-1.176 9.032 26.902-5.775 1.939L8.3 4.344l-.074.025 3.453 21.644-5.924 1.989-9.033-26.901Z" style="fill:#2744a0;fill-opacity:1;fill-rule:nonzero;stroke:none" transform="matrix(.61556 0 0 -.61556 105.572 67.749)"/><path d="m0 0 2.607 2.026-4.052 5.213 19.798 15.39-2.413 3.103L-6.464 8.316Z" style="fill:#2744a0;fill-opacity:1;fill-rule:nonzero;stroke:none" transform="matrix(.61556 0 0 -.61556 136.365 89.498)"/><path d="m0 0-13.922-3.463c-4.271-1.062-6.438-3.262-5.233-8.106.541-2.174 1.539-4.72 2.252-6.122l13.845 3.444-1.575 6.331-3.204-.797.627-2.517-8.086-2.011a11.448 11.448 0 0 0-.875 2.374c-.389 1.564.757 2.983 2.969 3.533L.682-3.88c2.937.73 4.756.252 5.193-1.503.37-1.488-.575-2.735-2.521-3.219l-1.411-.351.95-3.814 2.517.626c3.509.872 4.465 3.379 3.449 7.46C7.636.239 5.149 1.281 0 0" style="fill:#2744a0;fill-opacity:1;fill-rule:nonzero;stroke:none" transform="matrix(.61556 0 0 -.61556 155.44 99.375)"/><path d="m0 0 3.288.3-.614 6.732 9.55.871.579-6.34 3.288.299-.579 6.341 8.845.808.615-6.733 3.288.3-.971 10.647-28.261-2.579z" style="fill:#2744a0;fill-opacity:1;fill-rule:nonzero;stroke:none" transform="matrix(.61556 0 0 -.61556 145.452 117.99)"/><path d="m0 0 2.851 1.666L-.48 7.367l21.651 12.65-1.983 3.393L-5.313 9.095Z" style="fill:#2744a0;fill-opacity:1;fill-rule:nonzero;stroke:none" transform="matrix(.61556 0 0 -.61556 139.914 95.583)"/><path d="m0 0 3.046 1.275-2.61 6.236 8.846 3.702L11.74 5.34l3.046 1.274-2.458 5.874 8.193 3.429 2.611-6.236 3.046 1.275-4.128 9.862L-4.127 9.862Z" style="fill:#2744a0;fill-opacity:1;fill-rule:nonzero;stroke:none" transform="matrix(.61556 0 0 -.61556 142.664 102.17)"/><path d="m0 0 .053.058 11.741-7.429-3.368-3.684zm12.697-22.218-.127.083 2.359 2.581-4.463 5.836 4.136 4.527 6.213-3.922 2.652 2.902L-1.378 4.667l-3.076-3.365 16.062-22.806-1.672 1.096-3.706-5.655-8.021 5.257 3.49 5.326-2.761 1.809-3.49-5.325-7.429 4.869 3.705 5.654-2.762 1.809-5.859-8.941L6.838-31.159z" style="fill:#2744a0;fill-opacity:1;fill-rule:nonzero;stroke:none" transform="matrix(.61556 0 0 -.61556 42.234 73.442)"/><path d="M0 0c1.63.781 3.042.019 4.247-2.498l6.436-13.434c1.053-2.198.621-3.843-.868-4.556-1.454-.696-3.006-.002-4.059 2.196L-.68-4.858C-1.885-2.341-1.595-.764 0 0m2.109-19.778c1.902-3.97 4.493-5.648 9.03-3.475 4.857 2.326 4.515 6.042 2.8 9.622L7.741-.693C5.839 3.276 3.248 4.955-1.324 2.765-6.145.456-5.804-3.26-4.088-6.84Z" style="fill:#2744a0;fill-opacity:1;fill-rule:nonzero;stroke:none" transform="matrix(.61556 0 0 -.61556 62.723 57.226)"/><path d="m0 0 14.179-20.682 3.242 2.223L3.242 2.223 7.131 4.89 5.265 7.612-5.757.056l1.867-2.723Z" style="fill:#2744a0;fill-opacity:1;fill-rule:nonzero;stroke:none" transform="matrix(.61556 0 0 -.61556 52.704 63.457)"/><path d="m0 0-.384-3.911 12.263-7.443-.008-.079L-.998-10.17l-.384-3.911 28.242-2.772.384 3.912-14.121 1.385.007.078 14.728 4.795.43 4.381-15.672-5.57z" style="fill:#2744a0;fill-opacity:1;fill-rule:nonzero;stroke:none" transform="matrix(.61556 0 0 -.61556 22.723 107.708)"/><path d="m0 0-.427-.928-8.571 3.94.789 1.714c1.018 2.214 1.473 2.264 5.294.507C.942 3.46 1.297 2.821 0 0m3.131-1.093C4.215 1.264 5.054 1.397 7.483.28l5.821-2.676c1.035-.476 1.711-.7 2.518-.638L17.365.322c-1.17.279-2.455.87-3.384 1.297L8.375 4.196c-2.429 1.117-4.056.87-5.422-1.444l-.072.033c.453 3.339-.833 4.493-4.297 6.085-5.642 2.594-7.281 2.699-9.678-2.515L-13.639.82l25.783-11.854 1.642 3.572L2.573-2.307z" style="fill:#2744a0;fill-opacity:1;fill-rule:nonzero;stroke:none" transform="matrix(.61556 0 0 -.61556 35.177 93.713)"/><path d="M0 0c2.423.254 2.698-.112 3.137-4.295.442-4.222.073-4.853-3.015-5.177l-1.017-.106-.982 9.382zm.735-25.136L-.551-12.861l1.329.139c2.58.27 3.123-.384 3.402-3.043l.667-6.371c.119-1.134.27-1.829.735-2.492l3.675.385c-.358 1.148-.505 2.555-.611 3.571l-.643 6.137c-.278 2.659-1.321 3.932-4.008 3.928l-.008.078c3.103 1.313 3.44 3.008 3.042 6.8C6.383 2.447 5.637 3.91-.07 3.313l-6.059-.635 2.955-28.223z" style="fill:#2744a0;fill-opacity:1;fill-rule:nonzero;stroke:none" transform="matrix(.61556 0 0 -.61556 84.981 51.18)"/><path d="M0 0c-.418-1.556-1.957-2.282-4.31-1.65l-14.385 3.867c-2.696.724-3.703 1.972-3.244 3.68.469 1.746 1.967 2.32 4.662 1.596l14.385-3.867C-.539 2.994.428 1.594 0 0m-2.517 7.595-13.854 3.724c-4.251 1.143-7.212.27-8.528-4.626-1.388-5.162 1.653-7.323 5.487-8.353l13.854-3.725c4.251-1.142 7.212-.269 8.518 4.589 1.398 5.2-1.643 7.36-5.477 8.391" style="fill:#2744a0;fill-opacity:1;fill-rule:nonzero;stroke:none" transform="matrix(.61556 0 0 -.61556 39.547 104.943)"/><path d="m0 0-3.93.052-.377-28.374 3.93-.053z" style="fill:#2744a0;fill-opacity:1;fill-rule:nonzero;stroke:none" transform="matrix(.61556 0 0 -.61556 94.447 48.777)"/><path d="M0 0c5.146 1.447 5.491 5.014 4.597 8.192L-1.35 29.343l-3.783-1.064L.994 6.485C1.515 4.631 1.1 3.494-.83 2.951c-1.967-.553-2.914.201-3.435 2.055l-6.128 21.795-3.783-1.064L-8.23 4.586C-7.336 1.408-5.184-1.458 0 0" style="fill:#2744a0;fill-opacity:1;fill-rule:nonzero;stroke:none" transform="matrix(.61556 0 0 -.61556 78.112 68.322)"/><path d="M0 0c-1.021-.209-1.821-.766-2.399-1.671-.557-.9-.726-1.884-.507-2.949.209-1.022.748-1.848 1.617-2.48.897-.649 1.855-.87 2.877-.661 1.043.214 1.85.795 2.419 1.744.529.919.69 1.889.481 2.91-.218 1.066-.749 1.906-1.592 2.52C2.031.022 1.066.218 0 0" style="fill:#2744a0;fill-opacity:1;fill-rule:nonzero;stroke:none" transform="matrix(.61556 0 0 -.61556 30.538 128.567)"/><path d="M0 0c-1.45-.023-2.677-.52-3.682-1.487-1.004-.969-1.495-2.156-1.471-3.56.021-1.338.549-2.485 1.585-3.442C-2.51-9.47-1.267-9.948.161-9.925c1.45.024 2.7.542 3.749 1.557 1.072.991 1.597 2.156 1.575 3.493-.022 1.382-.585 2.552-1.688 3.509C2.738-.432 1.474.024 0 0" style="fill:#2744a0;fill-opacity:1;fill-rule:nonzero;stroke:none" transform="matrix(.61556 0 0 -.61556 92.828 186.982)"/><path d="m0 0-4.161.861.924 4.461-11.686 2.42.966 4.66 11.685-2.42.689 3.33-11.685 2.419.965 4.661 11.685-2.419.876 4.227-18.61 3.854-4.074-19.674-4.161.861 5.046 24.368 22.77-4.715.469 2.263 4.161-.861zm-12.878-28.265-6.437 5.012-12.616-16.201-3.353 2.61 15.56 19.985 9.79-7.624zm-29.574-3.873a5.45 5.45 0 0 0-1.114 1.17 6.128 6.128 0 0 0-.667 1.467l-1.211-1.556-3.139 2.444 3.927 5.043-2.093 1.629 3.133 4.024 2.093-1.63 3.863 4.963 3.139-2.443-1.233-1.583a5.446 5.446 0 0 0 1.538-.293 4.613 4.613 0 0 0 1.476-.761c1.645-1.281 2.512-2.99 2.6-5.127.086-1.992-.51-3.811-1.792-5.456-1.295-1.663-2.925-2.706-4.891-3.128-2.108-.456-3.984-.044-5.629 1.237m-9.577-33.015-6.921 14.136-1.772-.867 6.922-14.137-4.03-1.973-2.796 5.71-12.183-5.965c-.712-.349-1.306-.45-1.781-.305-.525.198-.997.723-1.416 1.578L-84.855-48.9l12.182 5.964 1.868-3.816-7.846-3.843 6.233-12.731 9.924 4.858-8.103 16.549 4.031 1.973 3.946-8.061 1.77.867-3.946 8.061 4.122 2.018 12.767-26.075zm-46.935-2.722-3.059-.05a8.428 8.428 0 0 0 1.636-2.388 7.38 7.38 0 0 0 .625-2.845c.042-2.584-.942-4.821-2.951-6.712-1.987-1.891-4.42-2.86-7.297-2.906-2.833-.046-5.273.843-7.319 2.669-2.048 1.825-3.092 4.03-3.134 6.613-.016.952.14 1.884.465 2.796.326.866.788 1.701 1.388 2.504l-8.261-.134-.068 4.215 4.623.075-.076 4.657 4.759.077.075-4.657 4.351.07-.122 7.546-12.406-.201-.069 4.215 17.2.279.19-11.761 4.589.075-.191 11.76 4.793.079.064-3.91 3.841.063.068-4.249-3.841-.063zm-31.166-11.278-.075.02.09.033zm-10.613 20.317-3.447 1.697-5.479-11.133-4.301 2.117 2.477 5.033-20.741 10.208 1.877 3.812 4.178-2.056 2.042 4.148 4.27-2.101-2.042-4.149 3.874-1.906 3.348 6.802-11.133 5.479 1.862 3.782 15.433-7.596-5.209-10.584 4.117-2.027 5.21 10.584 4.301-2.117-2.207-4.483 3.446-1.696zm-11.911-16.038-20.832 10.254c-.712.35-1.156.758-1.331 1.223-.185.546-.068 1.247.352 2.1l3.528 7.168 4.301-2.117-2.778-5.643 18.637-9.173zM-182.085-34.6l-3.359-2.602-7.643 9.861-3.063-2.374 6.768-8.733-9.109-7.06-2.936 3.789 5.75 4.456-13.557 17.493 3.359 2.603 6.81-8.786 3.063 2.374-7.414 9.565 3.358 2.604 14.162-18.272 4.057 3.145-13.557 17.492 3.359 2.604 16.494-21.282-7.416-5.748zm-35.521 37.355-.961 4.696 19.484 3.987.961-4.696-7.094-1.452.777-3.797-4.197-.858-.777 3.797zm-4.615-1.188-4.163-.851-4.662 22.781c-.159.777-.106 1.366.159 1.768.318.481.943.817 1.876 1.008l7.893 1.616.961-4.697-6.228-1.274zm21.343 13.217-3.963-.811-.512 2.498a7.111 7.111 0 0 0-1.513-1.42 5.598 5.598 0 0 0-1.984-.822c-2.264-.464-4.309.032-6.133 1.486-1.758 1.352-2.866 3.149-3.325 5.391-.454 2.221-.139 4.298.946 6.232 1.129 2.058 2.814 3.317 5.057 3.776a6.392 6.392 0 0 0 2.067.076 8.08 8.08 0 0 0 1.996-.597l-.484 2.364 3.963.812 1.431-6.995 2.598.532 1.023-4.996-2.598-.532zM-57.25 5.969c-.426.081-.853.164-1.291.241a73.835 73.835 0 0 1-14.68 1.195c-.651-.012-1.314-.054-1.965-.083a70.394 70.394 0 0 1-6.317-.584c-.638-.09-1.253-.151-1.879-.256a69.346 69.346 0 0 1-8.104-1.839c-.592-.165-1.184-.402-1.774-.585a75.19 75.19 0 0 1-6.791-2.549c-.793-.346-1.596-.689-2.402-1.073-2.851-1.349-5.737-2.85-8.648-4.676v34.351c.025.02.048.036.072.061.023.012.023.012.036.016.012.006.012.006.012.013v-.007c.377.285.945.693 1.917 1.296v.006a51.328 51.328 0 0 0 3.642 2.052c.072.036.118.066.191.095 1.442.745 3.145 1.508 5.073 2.254.13.053.261.101.402.154a56.116 56.116 0 0 0 6.39 1.999c.093.023.177.059.27.089H-93c.213.052.449.1.662.152v.037c.272.066.568.107.852.166.687.154 1.408.284 2.14.413a52.06 52.06 0 0 0 2.191.344c.744.105 1.489.2 2.247.278.814.075 1.633.13 2.47.176a45.98 45.98 0 0 0 2.344.101c.888.011 1.81-.005 2.721-.03.804-.022 1.599-.042 2.413-.099.981-.066 1.999-.19 3.029-.301.804-.096 1.596-.173 2.424-.303 1.112-.171 2.247-.42 3.397-.662.779-.166 1.549-.296 2.353-.498 1.301-.318 2.626-.744 3.963-1.158.699-.219 1.36-.385 2.069-.634a77.273 77.273 0 0 0 6.294-2.483c.285-.522 15.661-30.805 19.07-36.726-3.172 1.982-5.276 2.9-12.031 5.418a86.462 86.462 0 0 1-6.423 2.112c-2.036.579-4.211 1.076-6.435 1.527m-37.371-19.781c8.623 4.597 23.222 9.311 39.902 2.348-12.528-13.272-29.694-22.121-48.916-23.867 2.816 4.715 6.589 12.345 9.014 21.519m-66.518 4.81c10.184 1.159 25.789.656 36.696-10.252h21.599s2.38 2.095 6.496 4.484c-2.566-9.007-6.377-16.332-9.026-20.648-1.473-.101-2.947-.203-4.434-.239-.286-.003-.57-.014-.859-.014-.64 0-1.275.016-1.912.031-.277.007-.556.009-.831.02a78.052 78.052 0 0 0-3.473.206c-.406.033-.815.061-1.22.1-16.439 1.623-31.281 8.541-43.049 18.881a84.956 84.956 0 0 0 .013 7.431m-17.316 34.879-4.965-9.437c-1.231 4.16-2.775 10.536-3.271 14.963l-.25-.013c-.426 3.257-.721 6.553-.721 9.924 0 1.503.142 2.977.236 4.461 1.445-4.78 5.139-14.516 8.971-19.898m.493 35.596c.095-1.48.686-5.796 3.69-8.103 1.729-1.331 3.953-1.682 6.578-1.165.711-1.279 3.006-5.005 6.389-5.887 1.726-.454 3.455-.093 5.133 1.066l.154.112.083.171c.047.07.639 1.355.639 2.882 0 .631-.106 1.312-.403 1.964-.259.572-.661 1.047-1.147 1.454 1.147.272 2.413.876 3.371 2.058.97-.153 4.188-.491 6.389 1.363.722.601 1.207 1.387 1.537 2.309a73.788 73.788 0 0 1 7.311-3.915c-3.099-4.655-6.162-9.581-9.108-14.969-18.1-.586-27.465-8.479-27.631-8.622l-.142-.119-2.696-4.847c-5.005 7.345-9.183 21.625-9.373 22.33.59 5.553 1.903 10.883 3.618 16.023.854-1.444 2.437-3.337 5.608-4.105m.545 11.102c5.631-2.627 3.82-7.932 3.739-8.169l-.251-.686.699-.236c1.952-.644 4.685-3.372 4.707-3.395l.191-.179.248-.029c1.502-.163 3.254-2.088 3.798-2.816l.769-1.022.461 1.201c.863 2.241 5.085 3.709 6.648 4.088l.213.046.154.166c1.384 1.55 2.804 2.295 4.271 2.531 1.502-1.223 3.193-2.365 4.933-3.485-.225-.851-.557-1.602-1.16-2.103-2.011-1.705-5.548-1.012-5.584-1.001l-.473.094-.272-.414c-1.42-2.224-4.791-2.052-4.827-2.046l-.237-1.407c1.208-.343 2.012-.946 2.39-1.786.202-.439.273-.918.273-1.378 0-1.025-.319-1.83-.426-2.076-1.277-.834-2.52-1.108-3.797-.777-3.36.882-5.678 5.544-5.701 5.591l-.249.52-.556-.142c-2.437-.591-4.448-.313-5.94.834-3.027 2.325-3.182 7.482-3.182 7.542l-.011.579-.581.108c-4.435.805-5.643 4.251-5.795 4.791.106.275.152.585.259.856 1.007.865 2.876 2.396 5.289 4.2m11.326 19.83c-.009-.226-.208-.641-.208-.641-.033-.077-2.813-8.359-10.503-16.953a131.03 131.03 0 0 1-4.685-3.555c3.738 8.796 9.014 16.792 15.581 23.566-.088-.529-.152-1.388-.185-2.417m.512-10.243c-.442-.159-4.633-2.844-6.941-4.382 3.408 4.519 5.466 8.523 6.553 10.99.107-1.218.479-3.442.639-3.987-1.731-.777-.651-2.223-.251-2.621m-7.639-11.403c1.336-.343 3.206-1.064 4.319-2.768 1.005-1.502 1.028-3.585.425-6.01-.9.781-2.318 1.916-3.692 2.556a8.69 8.69 0 0 1 .262 2.158c0 1.225-.379 2.68-1.314 4.064m8.837 10.44a34.13 34.13 0 0 1 3.572-7.27c2.036-3.164 4.72-6.039 7.809-8.719-1.35-.46-2.651-1.2-3.88-2.531-.711-.183-5.111-1.407-6.958-3.973-.722.804-1.985 1.857-3.382 2.305.921 3.13.838 5.779-.498 7.784-2.199 3.336-6.719 3.685-6.908 3.697l-.229.033c-.44.379-.683.553-1.261.891.118.129.212.254.332.377a130.296 130.296 0 0 0 11.403 7.406m22.737 22.009c1.806-1.641 2.127-3.223 4.777-3.625 1.656-.243 3.587.821 4.548 2.349.96 1.528 3.192 6.146 3.592 6.98.274-.042.805-.197 1.444-.297a83.908 83.908 0 0 0 5.087-1.462c-1.693-1.331-2.886-2.928-3.3-4.808-.272-1.189-.059-2.443.32-3.709l-.522-.26c-1.254-.622-6.695-.291-9.842.077l-.438.041-.25-.361c-2.625-3.94-8.208-2.78-9.581-2.419-.851 2.343-1.94 3.554-3.335 3.614-3.1.13-5.868-6.075-6.188-6.784-2.306-4.116-6.519-6.336-8.577-7.229-1.217 5.749-.484 9.92-.472 9.979 0 0 .141.655.313 1.379 2.469 2.342 5.13 4.477 7.873 6.494 0 0 10.366 3.846 14.551.041m11.498 6.104c-1.017-2.087-2.406-5.369-3.194-6.606-.789-1.239-2.275-1.916-3.632-1.71-1.356.206-2.092 1.728-3.621 3.2-3.832 3.694-11.656 1.461-12.735 1.081 3.62 2.508 5.982 3.757 9.993 5.65 1.56.018 6.399-.123 13.189-1.615m5.24.379c-.26.036-1.207.189-2.164.343-5.819 1.49-10.529 2.052-13.485 2.224 9.156 3.88 19.222 6.034 29.785 6.051-6.908-2.101-12.987-7.547-14.136-8.618m19.177 1.597c-6.092.165-11.405-.982-15.024-3.134-.994.33-1.869.55-2.792.828 1.963 1.762 8.612 7.34 15.391 8.517.556-1.291 1.36-3.277 2.425-6.211m24.867-2.106c-1.658-.609-5.371-1.987-5.727-2.117-10.387 3.075-10.954 8.576-10.954 9.699 0 .09.012.137.012.166 6.968-1.218 13.617-3.317 19.814-6.257a77.332 77.332 0 0 1-3.145-1.491m38.541-33.797c0-.833-.154-1.597-.261-2.379l-.591.681c-2.248 4.52-13.936 13.178-15.356 14.213-.047.184-.094.374-.094.534 0 .307.071.561.236.751.509.643 1.911.697 2.248.697.338 0 1.13.475.592 1.16-4.177 5.315-19.094 14.994-23.175 17.59a53.455 53.455 0 0 0 2.708 1.207c14.813-7.483 25.787-19.061 33.793-33.45zm-19.673-25.003c1.951-3.963 3.797-8.198 5.571-12.687-14.255 5.099-26.523 4.727-35.939 2.602 0 1.965 0 3.929-.046 5.85 9.345-.005 20.702.929 30.414 4.235m-33.277 25.605c.662 1.113 1.158 2.532 1.289 4.592.047.07.461.703 1.016 1.567 3.066-.019 6.011.183 8.553.798C-76.735 75-69.294 64.809-62.692 51.688c-9.464-3.145-20.583-4.043-29.765-4.056C-92.8 58-93.876 67.477-95.271 75.987m-28.888 19.851c.094-.166.106-.337.213-.503.496-.768 1.111-1.513 1.797-2.241-.284.006-.508.053-.803.053-.227.089-.522.078-.687.231-.663.591-.876 1.502-.972 2.36.156.03.297.072.452.1m20.701 2.503a97.092 97.092 0 0 1-19.874-.9c-.721 1.584-1.089 3.135-.77 4.597.403 1.82 1.646 3.346 3.444 4.57 5.288-1.826 11.119-4.524 17.2-8.267m1.632.762c-6.055 3.815-11.864 6.513-17.199 8.441 3.454 1.704 8.281 2.554 13.817 2.308 1.028-2.935 2.2-6.567 3.382-10.749m3.006-1.124c-.426.048-.829.054-1.255.095-1.254 4.543-2.484 8.494-3.597 11.682 2.142-.171 4.331-.438 6.59-.941 3.467-.762 6.612-1.951 9.499-3.3-3.239-1.917-7.063-4.442-11.237-7.536m22.027-.75c1.005-1.575 1.514-3.106 1.514-4.573 0-.141-.036-.272-.046-.414-7.312 2.781-14.481 4.543-21.438 5.453 3.987 2.892 7.691 5.324 10.742 7.098 4.092-2.135 7.406-4.72 9.228-7.564M-46.58 66.79l-.592-.342c-.011-.008-1.726-.964-2.863-.226-1.065.71-1.444 2.91-1.065 6.193l.12 1.101-1.053-.338c-.036-.012-3.703-1.165-5.751.331-.934.682-1.407 1.865-1.407 3.514v.917l-.899-.225a3.445 3.445 0 0 0-.833-.08l.692 5.712c5.772-3.372 11.593-7.401 17.436-12.297-.071-.438-.236-.842-.332-1.267a768.39 768.39 0 0 0-2.152-5.041 250.08 250.08 0 0 1-1.301 2.048m-31.278 19.075 5.299-5.524c1.609-2.051 3.348-3.088 5.111-3.034 1.324.035 2.319.687 2.981 1.272.331-.746.757-1.378 1.384-1.775.936-.591 1.928-.627 2.615-.574.154-1.691.708-3.052 1.845-3.886 1.893-1.377 4.602-1.076 6.033-.78-.024-.479-.082-.987-.082-1.419 0-2.591.626-4.302 1.857-5.123 1.371-.888 2.911-.439 3.738-.094.19-.321.675-1.059 1.112-1.758-1.135-1.739-2.461-3.364-4.14-4.808-3.099-2.674-6.992-4.649-11.227-6.186-6.53 13.034-13.901 23.245-21.541 31.241 1.963.616 3.618 1.456 5.015 2.448m9.487 1.598c.402-.214 6.022-3.295 6.743-3.691-.083-.714-.527-4.779-.637-5.787-.02.012-.042.019-.061.032-.603.379-.982 1.047-1.17 1.993l-.309 1.65-.969-1.371c-.012-.013-1.1-1.509-2.722-1.557-1.3-.029-2.626.829-3.997 2.544l-4.591 4.803 7.713 1.384m-7.653.077c.745.857 1.359 1.763 1.715 2.786 1.301-.521 2.626-1.182 3.926-1.77zm-22.039 8.877c7.251-.863 14.762-2.672 22.428-5.599-.449-1.428-1.407-2.657-2.756-3.697l-.402-.285c-1.383-.976-3.112-1.774-5.146-2.336a100.5 100.5 0 0 1-14.124 11.917m8.635-8.771c1.301-1.183 2.602-2.276 3.892-3.572-1.976-.408-4.223-.562-6.566-.58.924 1.431 1.975 3.064 2.674 4.152m-7.216-4.021c-.402 2.075-.851 4.021-1.289 5.914 2.07-1.124 5.121-1.686 6.802-1.905-.497-.769-1.656-2.555-2.65-4.092-.948.029-1.868-.007-2.863.083m1.253-2.758c-.035-.881-.224-1.46-.366-2.135-.201 1.148-.39 2.355-.603 3.461.591-.047 1.124.005 1.703-.023-.413-.634-.709-1.107-.709-1.107zm-15.755 5.005c1.443-.609 3.075-1.011 4.625-1.515 0 0-.336-1.683-.518-2.641-.182-.959.098-2.125 1.219-2.519 1.519-.715 3.806-2.095 4.278-3.788l.06-.255.213-.148c.093-.064 2.425-1.692 4.53-.668.119.054.155.23.26.29a217.578 217.578 0 0 0 2.591-26.983c-9.475.076-16.526.974-16.703.999-9.831 1.922-18.325 4.524-25.564 7.725 8.303 12.225 16.939 21.956 25.009 29.503m-.262 1.691c-5.064 2.271-9.18 5.211-11.309 8.517a94.5 94.5 0 0 0 21.531.622c.024-.13.071-.266.093-.397a154.376 154.376 0 0 1-10.315-8.742m8.847 5.652c.625.535 1.27 1.119 1.859 1.582.171-.656.342-1.338.513-2.025a8.024 8.024 0 0 1-2.372.443m3.392-4.652c-.376 1.371-1.224 2.375-2.103 3.097a5.237 5.237 0 0 0 1.492-.589c.206-.824.409-1.66.611-2.508m.69 3.217c-.33 1.349-.649 2.704-.98 3.975v.013c2.815-1.936 5.642-4.224 8.471-6.69-2.923.384-6.743 1.295-7.491 2.702m-7.126-10.164c.112.585.269 1.394.444 2.293.828-.238 1.55-.597 2.413-.786a47.294 47.294 0 0 1 4.908-.812c.369-1.911.724-3.934 1.055-5.957-.191-.218-.331-.615-.569-.728-1.253-.62-2.828.374-3.029.51-.799 1.972-3.213 3.509-4.68 4.279-.271.143-.733.404-.542 1.201m1.911 3.64s-.024.012-.048.018c-.023.626-.092 3.561-.174 4.357-.082.797-1.388.923-1.577.035-.19-.888-.756-3.948-.756-3.948-1.256.403-2.58.716-3.763 1.189 1.989 1.822 3.846 3.288 5.738 4.857.461-.167 3.63-1.409 3.821-4.491-.994-.935-2.485-2.047-3.241-2.017m4.629 2.868c.325-1.395.645-2.829.955-4.34a55.66 55.66 0 0 0-3.799.638c1.265.692 2.439 1.786 2.746 2.095l.201.206v.302c0 .389-.039.753-.103 1.099m39.188-.821.07-.242.191-.142c.118-.071 8.599-6.305 12.988-11.073-9.252 7.092-18.442 12.362-27.408 15.918.223 2.01-.214 4.132-1.552 6.228-1.821 2.856-4.979 5.47-8.917 7.648a99.754 99.754 0 0 0 4.281 2.259c2.248-1.425 17.177-10.955 22.664-16.752-.684-.141-1.419-.414-1.938-1.064-.367-.461-.545-1.005-.545-1.639 0-.355.048-.738.166-1.141m-66.127 8.139c.13-.853.366-1.745.922-2.521-2.28-.423-4.56-1.518-5.844-3.805-.377-.682-.565-.336-.677-.128l-.768 1.415-.472-.054c-.698-.077-2.816-.094-3.49.817a1.305 1.305 0 0 0-.224.763c0 .324.141.757.329 1.206 3.266.924 6.697 1.675 10.224 2.307m-10.956-1.029c-.261.018-.828.048-1.727.053 1.242.467 2.39 1.284 3.337 2.526 1.324-.148 6.068-.58 8.8-.189-3.596-.651-7.074-1.437-10.41-2.39m-15.013-4.921-.365-.693c-4-1.768-7.807-3.602-11.168-5.483-.059.213-.071.379-.118.586 2.059.828 6.861 3.159 9.583 8.009 1.111 2.567 3.311 6.056 4.838 5.992.78-.035 1.549-1.106 2.188-3.011l.119-.344.33-.106c.106-.035.994-.296 2.224-.466-3.099-.587-6.244-1.834-7.631-4.484m3.113-2.029c.615-.704.923-1.769.923-3.148 0-.368-.064-.809-.126-1.239 0-.265-.237-.154-.343-.088-1.447.897-3.843 2.086-5.849 1.529-.994-.272-1.703-.999-2.224-2.004-.473.011-3.277.1-5.158.159 3.49 1.91 7.382 3.756 11.534 5.524.415-.148.863-.296 1.243-.733m-.994 2.39c1.844 1.987 5.183 2.715 8.043 2.986a121.912 121.912 0 0 1-8.043-2.986m3.288-27.653v-.017c0-.012-.011-.017-.011-.036a62.969 62.969 0 0 0-2.556 1.763 7.416 7.416 0 0 0 2.567-1.71m1.409.562-.154.195c-.095.113-2.319 2.721-5.607 2.763-.144 0-.285-.096-.426-.1-3.313 2.755-6.104 5.754-8.235 9.049-1.489 2.289-2.484 4.501-3.241 6.613l7.204-.231.178.479c.343.887.851 1.414 1.561 1.609 1.917.532 4.176-.842 5.1-1.618.872-.735 1.951-.17 2.078.543.18 1.004.205 1.382.205 2.264 0 1.751-.439 3.123-1.302 4.093-.19.218-.413.331-.616.485a116.557 116.557 0 0 0 10.599 3.721c-.07-.243-.164-.503-.164-.716 0-.604.164-1.136.497-1.585 1.064-1.473 3.348-1.479 4.306-1.42.159-.302-.008.072.549-.97.558-1.041 1.775-1.696 2.604-.104 1.659 3.188 3.862 3.677 6.476 3.855.853-.35 1.881-.398 3.076-.148 2.176-1.871 4.851-3.579 7.949-5.022-8.068-7.596-16.655-17.331-24.937-29.535a73.114 73.114 0 0 0-7.878 4.295c.059.426.201.777.189 1.244zm33.37-67.407c-.07-.046-.141-.076-.213-.123-.034.03-.117.088-.164.123zm-.377 36.344c-12.646 6.936-23.967 9.171-33.526 9.136a197.565 197.565 0 0 0 8.754 14.332c7.394-3.293 16.065-5.968 26.12-7.932.71-.1 7.702-.993 16.975-1.082.06-2.034.06-4.117.06-6.205-10.198-2.566-16.776-7.051-18.383-8.249m78.337 10.971c-2.887-4.135-8.613-3.165-9.134-3.07-2.696 2.621-5.205 3.703-7.453 3.112-2.483-.658-3.88-3.082-4.588-4.709-1.789 4.556-3.667 8.853-5.632 12.876 4.294 1.598 8.257 3.638 11.463 6.399 1.609 1.391 2.9 2.953 4.023 4.61 0 0 .615.952.649 1.028 3.041-1.473 6.436-3.323 6.826-3.862.083-.131 1.242-2.03-1.998-5.081-.556-.52-5.3-5.146-4.496-8.316l.13-.52.532-.025c.236-.005 5.323-.105 9.429 3.832.224-2.088.307-3.949.342-6.084zm-.196-8.247a86.85 86.85 0 0 0-.822-6.05c-2.011.213-2.638 1.721-2.709 1.94-.367 3.223 3.348 4.07 3.513 4.106zm-.314 1.391c-1.785-.373-5.052-2.065-4.613-5.779.036-.13.947-2.638 3.903-3.011-.485-2.571-1.273-5.746-2.142-8.725a76.377 76.377 0 0 0-1.781-5.049l-11.135 21.89-.286.125c-1.229.555-2.411.981-3.618 1.46.438 1.201 1.679 3.998 3.974 4.603 1.775.472 3.892-.51 6.294-2.912l.141-.146.214-.041c.259-.061 5.986-1.178 9.701 2.482a66.08 66.08 0 0 0-.222-4.795c-.176-.035-.43-.102-.43-.102m-7.037 35.915c.105.763.282 1.478.329 2.265.606-1.265 1.066-2.596 1.599-3.89-.652.566-1.289 1.081-1.928 1.625m2.235-3.748s.615-.556.893-.933c1.912-5.285 3.168-10.564 3.896-16.293-3.074-3.526-7.038-4.093-8.445-4.17.117 1.868 2.461 4.786 4.094 6.348 2.2 2.057 2.732 3.808 2.732 5.026 0 1.117-.462 1.8-.485 1.853-.449.911-4.803 3.128-7.477 4.429.734 1.431 1.456 2.863 1.893 4.447l.534 1.279c.79-.662 1.572-1.279 2.365-1.986m-55.825 41.705c-.615.166-1.183.389-1.821.525-2.531.568-4.993.84-7.395.988a145.74 145.74 0 0 1-2.636 6.837c3.074-.153 7.866-.85 7.866-.85-.025-.227-.227-4.023 3.986-7.5m-69.44-103.24c-1.017-.147-2.083-.347-3.125-.538-1.135-.201-2.271-.373-3.429-.627-7.05-1.532-12.2-3.113-20.22-6.911 1.265 2.278 17.52 32.455 17.532 32.484 1.183.917 24.549 19.001 60.641-.848V-4.046c-.39.26-.863.584-1.407.922-.19.119-.426.255-.627.378-.393.239-.791.485-1.243.747-.306.177-.65.359-.981.543-.439.236-.876.479-1.349.728-.403.207-.84.419-1.265.64-.486.234-.994.473-1.515.708-.496.232-1.005.455-1.538.688-.52.229-1.088.455-1.657.673-.589.243-1.181.48-1.821.716-.567.213-1.182.413-1.775.62-.685.231-1.348.467-2.081.686-.614.185-1.278.356-1.918.533a76.697 76.697 0 0 1-4.554 1.1c-.697.147-1.36.302-2.093.431-.863.162-1.774.279-2.685.411-.757.109-1.514.222-2.307.312a71.71 71.71 0 0 1-2.886.254c-.805.059-1.633.119-2.46.155a76.04 76.04 0 0 1-3.077.069 77.626 77.626 0 0 1-2.673-.036 81.872 81.872 0 0 1-3.242-.141c-.922-.058-1.893-.166-2.84-.26-1.123-.112-2.247-.224-3.405-.385m1.774-21.63c-1.739 1.609-3.349 3.371-4.945 5.135a70.76 70.76 0 0 0 4.992.852 96.898 96.898 0 0 1-.047-5.987m141.091-.276-2.944-3.782-11.32 8.813 2.945 3.783 3.594-2.799 2.381 3.057 3.353-2.61-2.381-3.058zm-90.852 179.434c68.968 0 125.144-55.777 125.808-124.59H-32.26c.021.642.041 1.283.041 1.93 0 42.18-33.502 76.593-75.286 78.266l-.449.024c-.898.03-1.786.136-2.697.136-11.805 0-22.973-2.691-33.028-7.393l-.355-.166c-18.122-8.577-32.296-23.943-39.606-42.723-.279-.704-.545-1.43-.545-1.43-.083-.234-.141-.474-.224-.711h-.012v-.006c-2.899-8.152-4.661-16.846-4.661-25.997 0-.646.019-1.288.039-1.93h-49.156c.665 68.813 56.841 124.59 125.808 124.59m0 2.125c-70.551 0-127.949-57.398-127.949-127.949 0-70.55 57.398-127.948 127.949-127.948 70.552 0 127.95 57.398 127.95 127.948 0 70.551-57.398 127.949-127.95 127.949" style="fill:#2744a0;fill-opacity:1;fill-rule:nonzero;stroke:none" transform="matrix(.61556 0 0 -.61556 160.711 144.899)"/><path d="M0 0c-.68.529-1.447.724-2.302.586A3.262 3.262 0 0 1-4.351-.662c-.557-.716-.799-1.489-.728-2.319.075-.864.452-1.56 1.132-2.088.643-.502 1.392-.683 2.247-.544.859.106 1.567.517 2.124 1.233.529.679.747 1.457.654 2.334C1.003-1.184.644-.501 0 0" style="fill:#2744a0;fill-opacity:1;fill-rule:nonzero;stroke:none" transform="matrix(.61556 0 0 -.61556 138.813 159.279)"/></g></svg>