<svg xmlns="http://www.w3.org/2000/svg" width="198.64598mm" height="198.64777mm" viewBox="0 0 198.64598 198.64777"><path d="M0 0a1.46 1.46 0 0 0-1.458-1.465 1.465 1.465 0 1 0 0 2.93C-.653 1.465 0 .805 0 0" style="fill:#fff;fill-opacity:1;fill-rule:nonzero;stroke:none" transform="matrix(1.78542 0 0 -1.78542 175.468 129.863)"/><path d="M0 0c0-30.528-24.748-55.276-55.276-55.276-30.527 0-55.275 24.748-55.275 55.276 0 30.528 24.748 55.276 55.275 55.276C-24.748 55.276 0 30.528 0 0" style="fill:#fff;fill-opacity:1;fill-rule:nonzero;stroke:none" transform="matrix(1.78542 0 0 -1.78542 198.013 99.324)"/><path d="M0 0c0-30.528-24.748-55.276-55.276-55.276-30.527 0-55.275 24.748-55.275 55.276 0 30.528 24.748 55.276 55.275 55.276C-24.748 55.276 0 30.528 0 0Z" style="fill:none;stroke:#00478b;stroke-width:.709;stroke-linecap:butt;stroke-linejoin:miter;stroke-miterlimit:10;stroke-dasharray:none;stroke-opacity:1" transform="matrix(1.78542 0 0 -1.78542 198.013 99.324)"/><path d="M0 0c0-29.245-23.708-52.952-52.953-52.952-29.244 0-52.952 23.707-52.952 52.952 0 29.245 23.708 52.952 52.952 52.952C-23.708 52.952 0 29.245 0 0" style="fill:#00478b;fill-opacity:1;fill-rule:nonzero;stroke:none" transform="matrix(1.78542 0 0 -1.78542 193.866 99.324)"/><path d="M0 0c0-19.469-15.783-35.252-35.252-35.252-19.47 0-35.253 15.783-35.253 35.252s15.783 35.252 35.253 35.252C-15.783 35.252 0 19.469 0 0" style="fill:#fff;fill-opacity:1;fill-rule:nonzero;stroke:none" transform="matrix(1.78542 0 0 -1.78542 162.263 99.531)"/><path d="M0 0a1.46 1.46 0 0 0-1.458-1.465c-.81 0-1.469.653-1.469 1.465a1.47 1.47 0 0 0 1.469 1.465C-.653 1.465 0 .805 0 0" style="fill:#fff;fill-opacity:1;fill-rule:nonzero;stroke:none" transform="matrix(1.78542 0 0 -1.78542 174.815 129.127)"/><path d="M0 0c0-.812-.651-1.465-1.457-1.465a1.465 1.465 0 1 0 0 2.93C-.651 1.465 0 .805 0 0" style="fill:#fff;fill-opacity:1;fill-rule:nonzero;stroke:none" transform="matrix(1.78542 0 0 -1.78542 29.104 129.127)"/><path d="m0 0-.949-.686-1.975 2.733-.866-.626 1.748-2.42-2.576-1.861-.759 1.05L-3.75-.636l-3.503 4.849.95.686 1.759-2.435.866.626-1.915 2.651.95.686 3.659-5.064 1.147.829L-3.34 7.04l.95.687 4.262-5.899L-.226.312Z" style="fill:#fff;fill-opacity:1;fill-rule:nonzero;stroke:none" transform="matrix(1.78542 0 0 -1.78542 41.667 149.755)"/><path d="m0 0-2.431 2.202.781.862L1.747-.015l-1.7-1.876L-2.39.318l-.264-.292L.817-3.12 2.782-.952l.96-.87L.865-4.997l-.96.87.163.181-3.975 3.602c-.155.14-.235.28-.241.419 0 .155.086.328.263.523l1.208 1.334L-.246-.271zm-1.41-5.593-3.173 2.875-.384-.424 3.173-2.875zM-4.428-.645l.947-.857-.372-.41L-.68-4.786l.371.409.954-.863-1.782-1.966c-.177-.195-.345-.295-.507-.3-.135-.004-.281.065-.435.204l-4.132 3.745c-.159.144-.243.284-.253.418-.007.159.078.334.255.529z" style="fill:#fff;fill-opacity:1;fill-rule:nonzero;stroke:none" transform="matrix(1.78542 0 0 -1.78542 49.366 153.539)"/><path d="m0 0-1.16-1.993-1.12.651 2.759 4.74 1.12-.652L.594 1.02l.905-.526L.904-.527Zm-4.172 4.065a.988.988 0 0 1-.646-.491 1 1 0 0 1-.104-.797c.08-.277.246-.49.501-.637.243-.143.508-.181.794-.116a.978.978 0 0 1 .658.474.988.988 0 0 1 .092.815 1.08 1.08 0 0 1-.497.625c-.254.148-.521.19-.798.127m2.493-1.049c.031-.192.034-.381.009-.57a1.572 1.572 0 0 0-.197-.557A1.983 1.983 0 0 0-3.286.892a2.353 2.353 0 0 0-1.691.291 2.34 2.34 0 0 0-1.081 1.323 1.996 1.996 0 0 0 .528 2.166c.137.115.3.217.485.303l-.564.329.561.963 1.668-.97.367.633 1.192-.694-.368-.632 1.668-.97-.562-.965zm-5.175-1.185 1.119-.652-.882-1.515 4.851-2.824-.588-1.013-5.432 3.161c-.186.109-.294.226-.326.353-.039.153.008.343.139.569z" style="fill:#fff;fill-opacity:1;fill-rule:nonzero;stroke:none" transform="matrix(1.78542 0 0 -1.78542 66.103 169.465)"/><path d="m0 0-.35-1.118-3.218 1.006-.319-1.02 2.85-.891-.949-3.034-1.237.387.6 1.915L-8.332-.97l.35 1.118 2.867-.896.319 1.019-3.121.977.35 1.118L-1.605.502l.422 1.351-5.708 1.785.35 1.119L.403 2.585-.368.115z" style="fill:#fff;fill-opacity:1;fill-rule:nonzero;stroke:none" transform="matrix(1.78542 0 0 -1.78542 83.387 174.268)"/><path d="M0 0a1.338 1.338 0 0 1-.519-.961 1.35 1.35 0 0 1 .342-1.047c.251-.285.572-.445.963-.479.391-.035.734.066 1.032.303.311.249.484.573.519.971a1.33 1.33 0 0 1-.342 1.037 1.403 1.403 0 0 1-.963.49A1.4 1.4 0 0 1 0 0m1.891 2.102-.053-.607 3.239-.285L4.975.042 3.208.197c.171-.221.301-.459.39-.711.087-.271.118-.546.092-.827-.065-.747-.407-1.344-1.024-1.792A2.825 2.825 0 0 0 .71-3.667a2.854 2.854 0 0 0-1.852.869c-.535.549-.77 1.197-.705 1.944.025.274.1.538.227.79.119.234.279.449.481.644l-1.666.147.103 1.168 3.24-.286.054.607-.037.004-2.316.203c-.214.019-.362.079-.445.181-.101.115-.139.307-.115.575l.167 1.895 1.29-.113-.128-1.457 5.958-.524-.101-1.14-2.956.261Z" style="fill:#fff;fill-opacity:1;fill-rule:nonzero;stroke:none" transform="matrix(1.78542 0 0 -1.78542 90.32 179.176)"/><path d="M0 0c.075-.677.397-1.173.969-1.487.551-.304 1.278-.415 2.18-.334l.137-1.24a6.285 6.285 0 0 0-2.193.192c-.731.202-1.261.509-1.589.919-.244-.474-.697-.889-1.36-1.244a6.325 6.325 0 0 0-2.09-.665l-.137 1.24c.887.116 1.569.383 2.047.801.488.437.695.991.621 1.662zm-.47-8.145-.278 2.526-3.232-.357-.129 1.165 7.762.857.128-1.165L.54-5.477l.278-2.525z" style="fill:#fff;fill-opacity:1;fill-rule:nonzero;stroke:none" transform="matrix(1.78542 0 0 -1.78542 108.538 170.392)"/><path d="m0 0 .816-2.524-1.233-.399-1.685 5.219 1.233.398.507-1.57.996.321L.997.321zm-5.827-4.227 1.232.398.534-1.65L1.28-3.754l.361-1.115-5.972-1.929c-.204-.065-.367-.069-.489-.01-.14.074-.249.235-.33.485zm.866 5.6C-4.673.48-4.34-.145-3.96-.501c.444-.421 1.026-.565 1.742-.433l.386-1.195a3.404 3.404 0 0 0-1.578-.047c-.531.112-.967.335-1.308.672-.093-.471-.338-.917-.735-1.341a3.361 3.361 0 0 0-1.258-.859l-.383 1.186c.652.316 1.032.773 1.14 1.373.09.501-.011 1.202-.301 2.1z" style="fill:#fff;fill-opacity:1;fill-rule:nonzero;stroke:none" transform="matrix(1.78542 0 0 -1.78542 129.098 170.328)"/><path d="m0 0 2.572 1.516-2.579 4.377 1.045.617 1.257-2.133.459.27L1.497 6.78l1.069.629L6.63.512l-1.068-.63-2.204 3.74-.459-.27L5.103-.389l-1.045-.615-.89 1.51L.009-1.355c-.185-.109-.34-.146-.467-.112-.149.036-.292.169-.428.401l-2.817 4.782 3.158 1.861.595-1.01-2.034-1.199Z" style="fill:#fff;fill-opacity:1;fill-rule:nonzero;stroke:none" transform="matrix(1.78542 0 0 -1.78542 136.641 171.034)"/><path d="m0 0 1.027-1.132-.959-.87-2.659 2.93.959.87.845-.93.775.704.787-.868zm3.749-4.131-.959-.87-1.513 1.666-4.109-3.729-.787.868 5.068 4.599zm-8.347 1.022a.802.802 0 0 1 .213-.618.772.772 0 0 1 .581-.256.826.826 0 0 1 .626.225.844.844 0 0 1 .28.596.771.771 0 0 1-.201.602.793.793 0 0 1-.593.272.868.868 0 0 1-.607-.233.87.87 0 0 1-.299-.588m1.66 1.836c.148-.036.281-.087.401-.156a1.3 1.3 0 0 0 .364-.277c.386-.426.544-.929.474-1.507a2.16 2.16 0 0 0-.723-1.378 2.2 2.2 0 0 0-1.454-.598c-.588-.018-1.074.186-1.461.612a1.56 1.56 0 0 0-.248.369 1.649 1.649 0 0 0-.115.428l-.395-.359-.737.813 1.279 1.161-.491.541 1.021.926.491-.541 1.259 1.142.737-.812z" style="fill:#fff;fill-opacity:1;fill-rule:nonzero;stroke:none" transform="matrix(1.78542 0 0 -1.78542 155.173 151.24)"/><path d="m0 0 .959-.673-4.487-6.392-.959.673.707 1.008-2.694 1.891.74 1.053 2.693-1.891.528.752-2.693 1.89.739 1.053 2.694-1.89.669.955-4.289 3.011-3.12-4.444-.959.674 3.865 5.504L-.359-.511z" style="fill:#fff;fill-opacity:1;fill-rule:nonzero;stroke:none" transform="matrix(1.78542 0 0 -1.78542 171.38 141.31)"/><path d="m0 0-6.809-1.49-.192.875 2.994.656-3.336.907-.233 1.064 3.78-1.093 3.023 2.615.238-1.088L-3.158.227l2.967.649z" style="fill:#fff;fill-opacity:1;fill-rule:nonzero;stroke:none" transform="matrix(1.78542 0 0 -1.78542 29.127 117.686)"/><path d="M0 0c.277.236.398.512.358.825-.037.301-.219.529-.545.687-.323.162-.719.215-1.191.156-.483-.061-.862-.209-1.134-.444-.259-.235-.371-.504-.333-.81.037-.301.214-.532.53-.695.327-.166.73-.219 1.208-.159.466.057.836.204 1.107.44m-2.059-1.308a3.237 3.237 0 0 0-.928.279 2.184 2.184 0 0 0-.733.553 1.413 1.413 0 0 0-.32.722c-.033.263.003.52.106.769.111.25.291.488.539.712.238.209.521.387.847.531.326.143.665.237 1.016.281.356.044.714.039 1.071-.016.35-.046.661-.132.936-.257a2.42 2.42 0 0 0 .752-.565c.187-.226.297-.469.33-.726A1.502 1.502 0 0 0 1.443.18a1.948 1.948 0 0 0-.541-.694 3.093 3.093 0 0 0-.865-.527 4.028 4.028 0 0 0-1.026-.27 4.16 4.16 0 0 0-1.07.003" style="fill:#fff;fill-opacity:1;fill-rule:nonzero;stroke:none" transform="matrix(1.78542 0 0 -1.78542 24.845 110.05)"/><path d="m0 0-5.334-.284-.044.811.312.017a.979.979 0 0 0-.323.36 1.107 1.107 0 0 0-.115.456l1.241.067c.049-.319.166-.529.355-.629.17-.094.472-.129.903-.106l2.96.158z" style="fill:#fff;fill-opacity:1;fill-rule:nonzero;stroke:none" transform="matrix(1.78542 0 0 -1.78542 27.008 104.46)"/><path d="M0 0c.168-.178.412-.312.734-.402l.033 1.959C.43 1.473.178 1.351.011 1.191A.805.805 0 0 1-.237.612.85.85 0 0 1 0 0m1.859-.466c.342.068.616.193.821.378a.86.86 0 0 1 .303.642.813.813 0 0 1-.184.522 1.597 1.597 0 0 1-.487.411l.015.947c.613-.21 1.077-.48 1.396-.81.317-.325.473-.689.467-1.09a1.492 1.492 0 0 0-.223-.766 2.05 2.05 0 0 0-.632-.617 3.35 3.35 0 0 0-.931-.401 4.148 4.148 0 0 0-2.113.028 3.493 3.493 0 0 0-.881.406 2.17 2.17 0 0 0-.648.644 1.47 1.47 0 0 0-.197.766c.004.324.117.632.335.923.23.291.542.525.935.702.239.107.507.183.801.23.286.051.61.073.969.068l.302-.005Z" style="fill:#fff;fill-opacity:1;fill-rule:nonzero;stroke:none" transform="matrix(1.78542 0 0 -1.78542 19.598 99.052)"/><path d="M0 0c-.321-.174-.498-.407-.532-.699-.035-.31.081-.585.347-.826.273-.247.637-.396 1.09-.448.467-.054.868.008 1.201.185.332.172.517.413.552.723.032.284-.093.549-.378.797a1.93 1.93 0 0 1-1.071.452C.735.238.333.177 0 0m2.85-2.518c-.58-.308-1.263-.416-2.044-.326-.37.042-.716.127-1.038.254-.329.132-.612.3-.845.503a1.856 1.856 0 0 0-.539.681c-.108.24-.146.5-.113.78.022.199.087.385.192.557.107.181.262.346.463.495l-.401.046.098.846L3.93.71l-.099-.86-.427.049c.157-.185.27-.374.34-.567.071-.184.096-.37.073-.557-.062-.551-.384-.982-.967-1.293" style="fill:#fff;fill-opacity:1;fill-rule:nonzero;stroke:none" transform="matrix(1.78542 0 0 -1.78542 20.68 88.91)"/><path d="m0 0-6.748 1.744.214.831 4.971.878-4.447 1.149.221.856L.96 3.713.755 2.92l-5.101-.871L.225.867Z" style="fill:#fff;fill-opacity:1;fill-rule:nonzero;stroke:none" transform="matrix(1.78542 0 0 -1.78542 28.283 84.447)"/><path d="M0 0c-.353-.093-.58-.277-.683-.554-.108-.291-.06-.586.141-.884.206-.304.524-.535.953-.693.441-.164.844-.199 1.209-.107.365.089.601.278.709.571.1.269.04.557-.178.864a1.927 1.927 0 0 1-.933.694C.772.056.365.092 0 0m2.17-3.124c-.638-.16-1.325-.104-2.063.169-.348.13-.666.294-.949.495a2.985 2.985 0 0 0-.701.689 1.876 1.876 0 0 0-.361.79c-.048.258-.022.519.076.783.069.189.177.354.32.496.147.151.335.275.567.371l-.378.14.296.798L3.986-.246l-.3-.81-.403.149c.109-.218.173-.428.196-.632a1.175 1.175 0 0 0-.061-.558c-.193-.521-.609-.863-1.248-1.027" style="fill:#fff;fill-opacity:1;fill-rule:nonzero;stroke:none" transform="matrix(1.78542 0 0 -1.78542 25.363 70.604)"/><path d="m0 0-.203-.449-1.034.467.204.45-1.485.671.35.77 1.484-.671.207.46 1.034-.467L.348.77 4.182-.964l-.348-.77Z" style="fill:#fff;fill-opacity:1;fill-rule:nonzero;stroke:none" transform="matrix(1.78542 0 0 -1.78542 26.086 67.09)"/><path d="m0 0 .379.756 4.776-2.393-.379-.755Zm-.384.193L-1.456.73l.38.755L-.005.948z" style="fill:#fff;fill-opacity:1;fill-rule:nonzero;stroke:none" transform="matrix(1.78542 0 0 -1.78542 25.61 63.307)"/><path d="M0 0c.364.019.627.165.786.438.152.262.148.554-.017.878-.157.324-.44.605-.851.846-.421.245-.812.357-1.171.335-.349-.029-.6-.176-.755-.441-.153-.262-.154-.553-.003-.874.16-.33.449-.618.865-.861C-.741.085-.359-.023 0 0m-2.43.211c-.233.24-.423.501-.568.785a2.172 2.172 0 0 0-.246.885 1.418 1.418 0 0 0 .735 1.313c.239.132.526.211.86.239.317.023.648-.008.996-.092.346-.084.673-.215.977-.393a3.91 3.91 0 0 0 .842-.663c.25-.249.445-.508.587-.773.153-.317.239-.619.255-.905a1.402 1.402 0 0 0-.179-.778 1.497 1.497 0 0 0-.573-.563 1.973 1.973 0 0 0-.85-.222A3.09 3.09 0 0 0-.602-.85a4.041 4.041 0 0 0-.979.41 4.055 4.055 0 0 0-.849.651" style="fill:#fff;fill-opacity:1;fill-rule:nonzero;stroke:none" transform="matrix(1.78542 0 0 -1.78542 33.632 62.612)"/><path d="m0 0-4.345 3.109.486.677.283-.202c-.05.192-.063.369-.037.53.03.146.094.289.194.428.278.389.663.572 1.158.549.501-.022 1.064-.257 1.689-.704l2.454-1.758-.495-.692-2.299 1.645c-.411.294-.739.459-.986.493-.246.034-.444-.055-.596-.267-.173-.243-.181-.494-.023-.755.155-.246.496-.559 1.027-.939L.496.692Z" style="fill:#fff;fill-opacity:1;fill-rule:nonzero;stroke:none" transform="matrix(1.78542 0 0 -1.78542 38.663 59.529)"/><path d="M0 0c-.362.038-.64-.054-.833-.277-.204-.235-.264-.528-.181-.877.086-.358.302-.686.648-.986.354-.307.718-.483 1.095-.525.371-.046.659.049.864.284.186.216.233.507.137.872a1.914 1.914 0 0 1-.628.978C.742-.22.376-.042 0 0m.931-3.688c-.655.075-1.278.37-1.872.886-.281.243-.519.51-.713.797a2.943 2.943 0 0 0-.413.892c-.09.315-.111.604-.061.866A1.467 1.467 0 0 0-1.306.812c.191.088.41.138.66.146l-.303.265.557.643 4.035-3.501-.566-.653-.324.282a1.898 1.898 0 0 0-.04-.661 1.164 1.164 0 0 0-.253-.5c-.364-.419-.874-.593-1.529-.521" style="fill:#fff;fill-opacity:1;fill-rule:nonzero;stroke:none" transform="matrix(1.78542 0 0 -1.78542 40.239 46.399)"/><path d="m0 0 .594.601 4.959-4.899-.595-.601Z" style="fill:#fff;fill-opacity:1;fill-rule:nonzero;stroke:none" transform="matrix(1.78542 0 0 -1.78542 38.382 40.164)"/><path d="m0 0 2.809-3.362c.352-.421.627-.68.824-.778.223-.107.446-.068.67.119.202.169.269.372.2.608-.065.217-.27.533-.617.949L1.076.899l.689.575 2.801-3.356c.263-.313.457-.569.582-.766a2.56 2.56 0 0 0 .354-.741c.088-.34.101-.644.035-.912a1.234 1.234 0 0 0-.422-.674 1.363 1.363 0 0 0-.766-.331c-.28-.026-.584.037-.916.188a2.557 2.557 0 0 0-.712.502c-.134.134-.336.363-.606.686L-.688-.575z" style="fill:#fff;fill-opacity:1;fill-rule:nonzero;stroke:none" transform="matrix(1.78542 0 0 -1.78542 43.947 34.919)"/><path d="m0 0-3.056 4.381.683.476.198-.285c.019.198.066.368.143.511.077.129.185.242.326.339.392.274.816.318 1.274.132.465-.189.917-.598 1.357-1.229l1.727-2.476-.698-.487L.337 3.68c-.29.415-.545.68-.765.794-.22.114-.437.097-.651-.052-.244-.171-.336-.406-.274-.704.063-.284.281-.693.654-1.229L.698.487Z" style="fill:#fff;fill-opacity:1;fill-rule:nonzero;stroke:none" transform="matrix(1.78542 0 0 -1.78542 55.535 41.483)"/><path d="m0 0 .721.441 2.79-4.555-.72-.441zm-.225.367-.626 1.022.721.441L.496.808Z" style="fill:#fff;fill-opacity:1;fill-rule:nonzero;stroke:none" transform="matrix(1.78542 0 0 -1.78542 55.884 29.734)"/><path d="m0 0-3.741 4.058.807.431 2.306-2.584-.855 3.361.807.432L.558.299z" style="fill:#fff;fill-opacity:1;fill-rule:nonzero;stroke:none" transform="matrix(1.78542 0 0 -1.78542 64.62 35.67)"/><path d="M0 0c-.093-.226-.115-.504-.065-.835l1.799.773c-.214.272-.429.453-.642.54A.803.803 0 0 1 .463.467.852.852 0 0 1 0 0m.337-1.886c.201-.285.427-.484.679-.594a.864.864 0 0 1 .71-.015.81.81 0 0 1 .401.381c.091.166.15.37.176.613l.871.374c.058-.645.002-1.18-.169-1.605-.166-.423-.434-.714-.803-.872-.255-.11-.518-.146-.789-.11a2.052 2.052 0 0 0-.822.324 3.32 3.32 0 0 0-.746.685 4.13 4.13 0 0 0-.84 1.94c-.042.327-.039.65.01.969.06.345.169.629.322.856.161.221.366.385.618.493.298.128.624.152.979.072.36-.091.701-.28 1.023-.566.196-.175.375-.387.537-.636a5.14 5.14 0 0 0 .46-.858l.118-.278z" style="fill:#fff;fill-opacity:1;fill-rule:nonzero;stroke:none" transform="matrix(1.78542 0 0 -1.78542 66.935 26.453)"/><path d="m0 0-1.752 5.046.768.267.102-.293a.964.964 0 0 0 .258.409c.104.1.239.18.404.237l.409-1.175c-.293-.133-.461-.305-.505-.515-.043-.189.005-.488.149-.896L.805.28z" style="fill:#fff;fill-opacity:1;fill-rule:nonzero;stroke:none" transform="matrix(1.78542 0 0 -1.78542 74.36 31.242)"/><path d="M0 0c.083-.293.186-.505.307-.636.115-.126.236-.17.364-.134a.325.325 0 0 1 .23.217.652.652 0 0 1-.002.408.717.717 0 0 1-.179.33.615.615 0 0 1-.327.164l-.17.037a4.173 4.173 0 0 0-.379.093 1.052 1.052 0 0 0-.275.122 1.446 1.446 0 0 0-.449.433 2.353 2.353 0 0 0-.281.643c-.122.427-.119.825.008 1.191.125.371.339.6.644.686.312.089.603.019.87-.209.282-.243.51-.632.684-1.166l-.794-.225c-.074.213-.149.357-.222.431-.067.063-.15.081-.249.053a.248.248 0 0 1-.178-.165c-.031-.084-.026-.193.012-.329a.446.446 0 0 1 .175-.264c.059-.034.181-.073.365-.115l.293-.069c.312-.083.567-.232.766-.449.199-.216.356-.526.471-.931.13-.458.124-.881-.019-1.27-.137-.394-.372-.638-.705-.732-.341-.096-.668.001-.981.292-.319.296-.576.753-.767 1.37z" style="fill:#fff;fill-opacity:1;fill-rule:nonzero;stroke:none" transform="matrix(1.78542 0 0 -1.78542 77.733 26.503)"/><path d="m0 0 .822.194 1.225-5.2-.823-.194Zm-.098.418-.274 1.167.821.193L.725.612Z" style="fill:#fff;fill-opacity:1;fill-rule:nonzero;stroke:none" transform="matrix(1.78542 0 0 -1.78542 79.727 19.658)"/><path d="m0 0-.484-.092-.213 1.113.484.093-.305 1.599.829.159.307-1.599.496.095.213-1.115L.83.159l.791-4.134-.831-.158Z" style="fill:#fff;fill-opacity:1;fill-rule:nonzero;stroke:none" transform="matrix(1.78542 0 0 -1.78542 83.458 20.9)"/><path d="m0 0 1.321-3.257.611 3.494.915.112-1.248-6.862-.89-.109.323 1.726L-.909-.111z" style="fill:#fff;fill-opacity:1;fill-rule:nonzero;stroke:none" transform="matrix(1.78542 0 0 -1.78542 87.516 18.13)"/><path d="M0 0c.198-.307.455-.461.771-.464.303-.003.554.147.752.45.205.298.308.684.313 1.16.004.487-.093.882-.291 1.182-.199.289-.451.434-.759.437-.303.003-.557-.142-.759-.432-.208-.304-.313-.696-.318-1.178C-.295.686-.197.3 0 0m-1.024 2.213c.092.323.225.617.399.884.19.285.405.503.645.654.246.149.498.224.757.222.265-.003.515-.073.748-.208.234-.143.445-.352.635-.628a3.18 3.18 0 0 0 .414-.909c.1-.343.149-.691.145-1.044a3.89 3.89 0 0 0-.156-1.06 3.312 3.312 0 0 0-.379-.894 2.395 2.395 0 0 0-.66-.67 1.385 1.385 0 0 0-.763-.231 1.497 1.497 0 0 0-.774.217 1.983 1.983 0 0 0-.615.627 3.059 3.059 0 0 0-.408.928 4.146 4.146 0 0 0 .012 2.112" style="fill:#fff;fill-opacity:1;fill-rule:nonzero;stroke:none" transform="matrix(1.78542 0 0 -1.78542 98.195 24.085)"/><path d="m0 0 .315 4.242-.421.031.08 1.085.357-.026c.064.558.223.971.478 1.24.268.273.636.393 1.105.358l-.085-1.14-.159.012c-.157.011-.267-.017-.328-.086-.066-.075-.111-.225-.136-.448l.581-.044-.081-1.085-.549.04L.843-.062Z" style="fill:#fff;fill-opacity:1;fill-rule:nonzero;stroke:none" transform="matrix(1.78542 0 0 -1.78542 103.914 26.98)"/><path d="m0 0-.854-1.813.989-.185Zm-2.276-4.785-.939.175 3.158 6.5.793-.148.594-7.202-.963.18-.148 1.991-1.624.304Z" style="fill:#fff;fill-opacity:1;fill-rule:nonzero;stroke:none" transform="matrix(1.78542 0 0 -1.78542 114.41 19.088)"/><path d="M0 0c.11-.324.298-.525.564-.604.239-.069.492.006.76.226.272.213.457.489.556.829.113.386.113.745.002 1.076-.108.317-.286.513-.536.586-.262.076-.526.014-.788-.189-.261-.203-.445-.489-.553-.858C-.107.68-.109.325 0 0m-.631-1.54a.917.917 0 0 1 .246-.482c.114-.116.27-.203.471-.262a.857.857 0 0 1 .719.085c.202.131.381.355.537.672a1.789 1.789 0 0 0-.585-.219 1.133 1.133 0 0 0-.54.024c-.513.15-.867.518-1.065 1.103-.193.571-.186 1.211.021 1.919.098.334.23.641.397.923.171.281.368.509.588.686.237.203.476.334.715.391.245.062.5.053.768-.025a1.34 1.34 0 0 0 .512-.274c.145-.131.268-.307.373-.528l.094.324.836-.244-1.12-3.827c-.232-.791-.555-1.372-.972-1.746-.426-.377-.897-.491-1.413-.339a1.822 1.822 0 0 0-.995.701c-.266.37-.398.822-.398 1.355z" style="fill:#fff;fill-opacity:1;fill-rule:nonzero;stroke:none" transform="matrix(1.78542 0 0 -1.78542 119.333 26.064)"/><path d="m0 0 1.857 5.009.763-.283-.107-.291a.981.981 0 0 0 .458.151c.145.011.3-.013.465-.074l-.433-1.167c-.312.083-.551.058-.719-.075-.152-.119-.304-.381-.455-.788L.799-.296z" style="fill:#fff;fill-opacity:1;fill-rule:nonzero;stroke:none" transform="matrix(1.78542 0 0 -1.78542 123.378 30.918)"/><path d="m0 0 .466 1.104.779-.328L.779-.328Zm-.167-.396.779-.328-2.075-4.923-.778.328z" style="fill:#fff;fill-opacity:1;fill-rule:nonzero;stroke:none" transform="matrix(1.78542 0 0 -1.78542 130.753 22.71)"/><path d="M0 0c-.436-.177-.851-.169-1.246.027a1.435 1.435 0 0 0-.582.526 1.994 1.994 0 0 0-.277.823c-.039.312-.026.646.041 1.001.074.358.188.693.343 1.005.165.332.363.626.589.881.223.257.47.465.74.623.309.18.591.288.848.324a1.31 1.31 0 0 0 .757-.132c.379-.189.64-.516.784-.983.153-.493.149-1.087-.015-1.781l-.814.405c.039.348.022.623-.054.825a.85.85 0 0 1-.427.436c-.26.129-.54.106-.843-.07-.305-.182-.564-.486-.776-.911-.207-.416-.29-.803-.25-1.163.042-.356.2-.6.47-.735a.752.752 0 0 1 .6-.033c.212.071.439.227.683.467l.82-.409C.913.56.449.185 0 0" style="fill:#fff;fill-opacity:1;fill-rule:nonzero;stroke:none" transform="matrix(1.78542 0 0 -1.78542 133.74 34.706)"/><path d="m0 0 .168.272A1.646 1.646 0 0 0-.353.207a1.022 1.022 0 0 0-.449.149c-.41.254-.617.633-.622 1.138-.008.507.186 1.079.58 1.717l1.6 2.591.726-.448L.02 2.989c-.274-.441-.423-.789-.451-1.045a.586.586 0 0 1 .291-.6.603.603 0 0 1 .437-.086.976.976 0 0 1 .443.22c.118.092.239.222.362.39.097.126.229.321.392.585l1.294 2.093.719-.444L.703-.434Z" style="fill:#fff;fill-opacity:1;fill-rule:nonzero;stroke:none" transform="matrix(1.78542 0 0 -1.78542 138.57 38.381)"/><path d="m0 0 .691-.486-4.005-5.703-.692.485z" style="fill:#fff;fill-opacity:1;fill-rule:nonzero;stroke:none" transform="matrix(1.78542 0 0 -1.78542 147.463 29.347)"/><path d="m0 0-.392.298.687.903.392-.299.988 1.295.672-.512L1.359.389l.404-.307-.689-.901-.402.306-2.55-3.346-.673.512z" style="fill:#fff;fill-opacity:1;fill-rule:nonzero;stroke:none" transform="matrix(1.78542 0 0 -1.78542 147.155 35.194)"/><path d="m0 0 .212.24a1.644 1.644 0 0 0-.525.024 1.001 1.001 0 0 0-.418.222c-.364.318-.504.726-.425 1.225.078.501.364 1.033.858 1.597l2.012 2.286.64-.562L.518 2.944c-.343-.389-.549-.707-.619-.955a.585.585 0 0 1 .188-.64.604.604 0 0 1 .415-.158.99.99 0 0 1 .475.143c.131.071.271.179.422.324.117.108.279.279.484.512l1.625 1.847.634-.558L.621-.545Z" style="fill:#fff;fill-opacity:1;fill-rule:nonzero;stroke:none" transform="matrix(1.78542 0 0 -1.78542 148.217 45.822)"/><path d="m0 0 3.779 3.774.575-.575-.22-.22c.177.02.338.002.481-.054.136-.051.267-.137.391-.261l-.881-.879c-.248.204-.476.282-.685.231-.187-.044-.435-.219-.742-.525L.601-.603Z" style="fill:#fff;fill-opacity:1;fill-rule:nonzero;stroke:none" transform="matrix(1.78542 0 0 -1.78542 149.758 47.25)"/><path d="M0 0c-.244.02-.517-.044-.817-.191l1.286-1.48c.193.288.299.546.318.777a.806.806 0 0 1-.202.596A.85.85 0 0 1 0 0m-1.695-.894c-.21-.278-.33-.555-.359-.829a.861.861 0 0 1 .202-.68.809.809 0 0 1 .485-.266c.185-.037.398-.03.637.019l.622-.716c-.597-.252-1.124-.361-1.581-.328-.453.03-.812.196-1.075.5-.182.21-.296.449-.344.718-.047.277-.027.57.058.882.083.303.225.611.426.92A4.077 4.077 0 0 0-1.033.715c.299.14.608.235.926.286.347.047.652.031.914-.047a1.46 1.46 0 0 0 .658-.438c.213-.245.334-.549.366-.911a2.45 2.45 0 0 0-.227-1.147 3.205 3.205 0 0 0-.442-.705 5.117 5.117 0 0 0-.679-.698l-.227-.199Z" style="fill:#fff;fill-opacity:1;fill-rule:nonzero;stroke:none" transform="matrix(1.78542 0 0 -1.78542 158.868 46.307)"/><path d="M0 0c.136.338.123.631-.038.877-.17.262-.436.4-.795.414-.366.016-.741-.101-1.124-.351-.394-.257-.662-.56-.806-.908-.146-.345-.133-.648.037-.91.156-.239.422-.363.799-.372.386-.009.757.104 1.113.336.399.261.67.565.814.914m-3.802.118c.251.608.706 1.127 1.366 1.556.311.204.631.36.961.468.337.108.661.159.972.152.328 0 .61-.06.849-.18a1.47 1.47 0 0 0 .793-1.08c.033-.208.02-.433-.04-.676l.337.22.465-.713-4.473-2.921-.472.724.359.236a1.886 1.886 0 0 0-.624.219 1.163 1.163 0 0 0-.412.381c-.302.465-.33 1.002-.081 1.614" style="fill:#fff;fill-opacity:1;fill-rule:nonzero;stroke:none" transform="matrix(1.78542 0 0 -1.78542 166.484 57.103)"/><path d="m0 0 4.728 2.488.386-.736-.307-.162c.195-.042.358-.111.491-.205.117-.092.216-.214.296-.365.221-.423.212-.851-.029-1.282-.246-.437-.708-.836-1.387-1.193L1.506-2.862l-.397.754L3.61-.791c.449.235.743.456.884.66.14.204.15.422.028.652-.138.264-.36.384-.665.359C3.568.854 3.135.688 2.558.384L.396-.753Z" style="fill:#fff;fill-opacity:1;fill-rule:nonzero;stroke:none" transform="matrix(1.78542 0 0 -1.78542 162.158 63.05)"/><path d="M0 0c.195.307.238.597.126.869-.118.288-.354.474-.703.555-.359.084-.749.038-1.171-.136-.435-.179-.755-.426-.961-.742-.208-.311-.252-.613-.132-.905.11-.265.347-.434.715-.509.376-.081.761-.04 1.156.123.44.181.763.43.97.745m-3.714.825c.36.55.904.975 1.631 1.275.344.141.689.233 1.035.273.346.042.673.031.984-.031.321-.062.587-.173.799-.335a1.463 1.463 0 0 0 .578-1.21 1.814 1.814 0 0 0-.168-.651L3.023.92l.325-.787-6.445-2.654-.328.793.399.164a2.01 2.01 0 0 0-.573.332 1.205 1.205 0 0 0-.334.451c-.214.517-.14 1.052.219 1.606" style="fill:#fff;fill-opacity:1;fill-rule:nonzero;stroke:none" transform="matrix(1.78542 0 0 -1.78542 173.169 70.314)"/><path d="m0 0 .674-2.438-1.155-.319-.439 1.586-1.612-.445.437-1.586-1.146-.317-.438 1.586-2.803-.774-.237.852z" style="fill:#fff;fill-opacity:1;fill-rule:nonzero;stroke:none" transform="matrix(1.78542 0 0 -1.78542 180.645 74.69)"/><path d="m0 0 1.17.263.185-.825L.186-.825Zm-.42-.094.187-.825-5.213-1.171-.186.824z" style="fill:#fff;fill-opacity:1;fill-rule:nonzero;stroke:none" transform="matrix(1.78542 0 0 -1.78542 179.932 80.367)"/><path d="M0 0c-.3-.053-.523-.132-.664-.239-.137-.102-.193-.219-.171-.349A.323.323 0 0 1-.642-.84a.643.643 0 0 1 .406-.04.7.7 0 0 1 .346.145c.087.067.153.17.198.308l.053.165c.057.175.1.297.131.367.049.113.099.2.151.261.125.165.284.299.477.402.192.099.415.17.667.214.44.077.834.034 1.184-.13.356-.163.562-.4.617-.712.056-.319-.044-.601-.298-.845-.27-.255-.682-.442-1.23-.56l-.142.814c.22.051.37.111.452.177.069.06.096.14.078.241a.25.25 0 0 1-.146.196.563.563 0 0 1-.328.02.454.454 0 0 1-.282-.146 1.637 1.637 0 0 1-.151-.352l-.099-.284a1.56 1.56 0 0 0-.525-.716c-.235-.176-.56-.3-.975-.372-.468-.082-.889-.032-1.261.15-.377.177-.596.435-.656.776-.061.349.07.664.392.946.327.287.808.494 1.441.623z" style="fill:#fff;fill-opacity:1;fill-rule:nonzero;stroke:none" transform="matrix(1.78542 0 0 -1.78542 173.966 85.307)"/><path d="m0 0 6.936.689.084-.847-1.938-.193c.151-.105.268-.228.35-.37.074-.134.121-.295.138-.482.046-.454-.124-.834-.51-1.138-.393-.31-.962-.501-1.708-.576L.32-3.218l-.084.847 2.74.273c.534.053.908.148 1.121.286a.569.569 0 0 1 .291.582.68.68 0 0 1-.17.408.846.846 0 0 1-.444.219 1.916 1.916 0 0 1-.529.05 9.776 9.776 0 0 1-.729-.053L.084-.848Z" style="fill:#fff;fill-opacity:1;fill-rule:nonzero;stroke:none" transform="matrix(1.78542 0 0 -1.78542 171.16 89.19)"/><path d="M0 0c-.175.17-.425.295-.75.373l.046-1.959c.334.097.581.229.741.395a.81.81 0 0 1 .225.588A.849.849 0 0 1 0 0m-1.876.391c-.34-.081-.607-.217-.805-.41a.862.862 0 0 1-.277-.653.81.81 0 0 1 .204-.514 1.6 1.6 0 0 1 .504-.392l.021-.947c-.62.186-1.095.437-1.425.754-.331.311-.502.669-.511 1.07-.007.278.058.535.191.774.142.242.344.456.609.641.257.181.561.328.913.438a4.073 4.073 0 0 0 2.112.056c.32-.082.618-.205.897-.369.297-.185.521-.391.673-.618.145-.231.221-.484.228-.757a1.56 1.56 0 0 0-.297-.935 2.451 2.451 0 0 0-.907-.739 3.107 3.107 0 0 0-.79-.262 5.033 5.033 0 0 0-.968-.107l-.302-.007z" style="fill:#fff;fill-opacity:1;fill-rule:nonzero;stroke:none" transform="matrix(1.78542 0 0 -1.78542 179.012 97.435)"/><path d="m0 0 5.332-.328-.05-.812-.31.019a.974.974 0 0 0 .278-.396 1.11 1.11 0 0 0 .064-.465l-1.243.077c-.011.32-.103.543-.279.664-.158.113-.454.182-.886.209l-2.958.181z" style="fill:#fff;fill-opacity:1;fill-rule:nonzero;stroke:none" transform="matrix(1.78542 0 0 -1.78542 171.743 102.63)"/><path d="m0 0 1.192-.118-.083-.841-1.192.118zm-.428.043-.084-.842-5.315.526.084.841z" style="fill:#fff;fill-opacity:1;fill-rule:nonzero;stroke:none" transform="matrix(1.78542 0 0 -1.78542 181.782 106.806)"/><path d="M0 0c-.14.201-.363.369-.668.506l-.316-1.934c.345.034.612.118.8.251a.806.806 0 0 1 .329.537A.835.835 0 0 1 0 0m-1.771.731C-2.12.715-2.409.63-2.638.478a.858.858 0 0 1-.392-.591.8.8 0 0 1 .105-.543c.09-.166.231-.325.423-.478l-.153-.935c-.577.298-.997.632-1.264 1.005-.268.368-.368.75-.304 1.146.045.273.156.515.332.724.183.213.422.385.715.519.287.13.613.217.98.262a4.108 4.108 0 0 0 2.087-.336c.297-.14.568-.315.812-.528.257-.238.44-.482.547-.733.101-.254.128-.515.084-.786a1.56 1.56 0 0 0-.465-.864 2.45 2.45 0 0 0-1.028-.559 3.162 3.162 0 0 0-.824-.111 5.178 5.178 0 0 0-.971.074l-.298.049z" style="fill:#fff;fill-opacity:1;fill-rule:nonzero;stroke:none" transform="matrix(1.78542 0 0 -1.78542 178.163 111.243)"/><path d="M0 0c-.296.072-.531.089-.704.048-.167-.038-.266-.122-.297-.25a.324.324 0 0 1 .074-.309.653.653 0 0 1 .356-.2.708.708 0 0 1 .376-.006.605.605 0 0 1 .303.202l.117.129c.122.138.211.233.268.283.089.084.17.144.241.179.182.101.381.159.599.176.217.013.449-.012.698-.073.433-.107.776-.305 1.03-.597.262-.293.355-.592.279-.898-.077-.316-.282-.534-.613-.655-.351-.124-.801-.13-1.351-.016l.197.801c.223-.041.384-.047.485-.02.088.026.145.09.169.189a.254.254 0 0 1-.054.238.558.558 0 0 1-.293.151.453.453 0 0 1-.317-.02 1.645 1.645 0 0 1-.28-.262l-.205-.22a1.549 1.549 0 0 0-.769-.443c-.286-.067-.633-.049-1.042.052-.461.114-.827.329-1.093.645-.276.314-.371.638-.289.974.086.344.332.58.74.708.415.13.938.128 1.57-.01z" style="fill:#fff;fill-opacity:1;fill-rule:nonzero;stroke:none" transform="matrix(1.78542 0 0 -1.78542 173.263 116.69)"/><path d="M79.633 180.92H62.286v-1.06h17.347z" style="fill:#6fba2c;fill-opacity:1;fill-rule:nonzero;stroke:none;stroke-width:.352778" transform="matrix(5.06104 0 0 5.06104 -259.915 -779.864)"/><path d="m0 0-9.921 6.806L-19.84 0h-14.666v-3.003h15.307l9.276 6.364h.008L-.64-3.003h15.306V0Z" style="fill:#6fba2c;fill-opacity:1;fill-rule:nonzero;stroke:none" transform="matrix(1.78542 0 0 -1.78542 116.923 71.455)"/><path d="m0 0-4.105-11.41L.683-24.572h-2.894l-3.367 9.716-.79-2.739v-6.977h-2.455V0h2.455v-10.336L-2.983 0Z" style="fill:#0068b7;fill-opacity:1;fill-rule:nonzero;stroke:none" transform="matrix(1.78542 0 0 -1.78542 71.077 81.67)"/><path d="M0 0v-24.572h-3.456L-6.332-5.705h-.053v-18.867h-2.491V0h3.315l3.052-18.922h.053V0Z" style="fill:#0068b7;fill-opacity:1;fill-rule:nonzero;stroke:none" transform="matrix(1.78542 0 0 -1.78542 90.007 81.67)"/><path d="M0 0v-16.804c0-3.183-.324-5.366-.974-6.553-.649-1.186-1.833-1.779-3.551-1.779-1.779 0-2.995.626-3.65 1.878-.654 1.252-.981 3.328-.981 6.227V0h2.508v-17.793c0-1.582.126-2.636.377-3.164.251-.527.834-.791 1.746-.791.83 0 1.374.255 1.63.763.257.509.386 1.572.386 3.192V0Z" style="fill:#0068b7;fill-opacity:1;fill-rule:nonzero;stroke:none" transform="matrix(1.78542 0 0 -1.78542 109.408 81.62)"/><path d="M0 0h2.474L1.246 10.506Zm3.07 14.884L6.157-9.688H3.701l-.806 6.299H-.421l-.789-6.299h-2.491l3.105 24.572z" style="fill:#0068b7;fill-opacity:1;fill-rule:nonzero;stroke:none" transform="matrix(1.78542 0 0 -1.78542 117.627 108.244)"/><path d="M0 0h7.087v-3.248H2.491v-7.117h4.297v-3.05H2.491v-11.157H0Z" style="fill:#0068b7;fill-opacity:1;fill-rule:nonzero;stroke:none" transform="matrix(1.78542 0 0 -1.78542 130.451 81.67)"/></svg>