<svg xmlns="http://www.w3.org/2000/svg" width="208.12093mm" height="208.12093mm" viewBox="0 0 208.12093 208.12093"><defs><clipPath id="a" clipPathUnits="userSpaceOnUse"><path d="M0 0h841.89v595.276H0Z"/></clipPath><clipPath id="b" clipPathUnits="userSpaceOnUse"><path d="M0 595.276h841.89V0H0Z"/></clipPath><clipPath id="c" clipPathUnits="userSpaceOnUse"><path d="M0 0h841.89v595.276H0Z"/></clipPath><clipPath id="d" clipPathUnits="userSpaceOnUse"><path d="M0 595.276h841.89V0H0Z"/></clipPath><clipPath id="e" clipPathUnits="userSpaceOnUse"><path d="M0 0h841.89v595.276H0Z"/></clipPath><clipPath id="f" clipPathUnits="userSpaceOnUse"><path d="M0 595.276h841.89V0H0Z"/></clipPath><clipPath id="g" clipPathUnits="userSpaceOnUse"><path d="M0 0h841.89v595.276H0Z"/></clipPath><clipPath id="h" clipPathUnits="userSpaceOnUse"><path d="M0 595.276h841.89V0H0Z"/></clipPath></defs><g transform="matrix(1.11302 0 0 1.11302 45.754 -59.07)"><circle cx="52.386211" cy="146.56575" r="93.493889" style="fill:#f9f9f9;stroke:#fff;stroke-width:0"/><g clip-path="url(#a)" transform="matrix(.93974 0 0 -.93974 -514.943 422.526)"><path d="M0 0c.187-.181.467-.21.844-.091L2.191.34c.377.122.589.308.635.564.051.192.012.49-.118.896L.831 7.669l-3.13-.999L-.423.798C-.293.393-.152.127 0 0" style="fill:#5f247e;fill-opacity:1;fill-rule:nonzero;stroke:none" transform="translate(680.42 315.061)"/><path d="M0 0c-53.899 0-97.593-43.693-97.593-97.592S-53.899-195.185 0-195.185c53.898 0 97.592 43.694 97.592 97.593S53.898 0 0 0m0-191.765c-51.927 0-94.173 42.246-94.173 94.174 0 51.926 42.246 94.17 94.173 94.17 51.926 0 94.172-42.244 94.172-94.17 0-51.928-42.246-94.174-94.172-94.174" style="fill:#5f247e;fill-opacity:1;fill-rule:nonzero;stroke:none" transform="translate(603.071 391.703)"/><path d="M0 0c-51.416 0-93.245-41.828-93.245-93.243 0-51.416 41.829-93.246 93.245-93.246 51.416 0 93.243 41.83 93.243 93.246C93.243-41.828 51.416 0 0 0m84.694-83.437.513-6.668c.087-1.121-.049-1.903-.402-2.342-.357-.44-1.088-.702-2.196-.787l-.755 2.368 1.343.104-.591 7.691-2.525-.194.563-7.327c.085-1.109-.045-1.889-.392-2.342-.348-.454-1.066-.724-2.159-.808l-1.615-.125c-1.093-.083-1.845.073-2.257.47-.412.394-.66 1.146-.745 2.254l-.559 7.259c-.092 1.198.06 2.004.456 2.416.395.412 1.199.664 2.413.758l.687-2.374-1.388-.107.638-8.308 2.685.208-.563 7.329c-.085 1.106.046 1.883.393 2.33.347.446 1.067.71 2.158.795l1.298.1c1.092.083 1.845-.069 2.256-.456.411-.388.659-1.136.744-2.244M82.366-71.05c.538-1.681.081-2.755-1.367-3.216l-2.632-.842c-1.087-.346-1.899-.127-2.437.659-.209.301-.546 1.184-1.014 2.648l-2.587-6.529-1.194 3.738 2.795 5.876-.793 2.48-4.24-1.355-.82 2.566 11.219 3.584zm-5.675 15.5-1.729-1.021-4.733 8.021-2.26-1.335 2.76-4.678L69-55.584l-2.762 4.678-2.515-1.486 4.791-8.116-1.907-1.127-6.183 10.479 10.141 5.985zM38.059-164.056l-1.57-.739-3.01 6.398 1.571.739 1.021-2.174 1.154.541.568-1.205-1.153-.544zM0-160.422c-37.102 0-67.179 30.077-67.179 67.178S-37.102-26.067 0-26.067c37.101 0 67.177-30.076 67.177-67.177 0-37.101-30.076-67.178-67.177-67.178m-1.991-7.664-1.335-.021-.021 1.334 8.808.134.02-1.333-1.335-.021.071-4.537 1.334.02.02-1.335-8.807-.134-.021 1.335 1.334.019zm-41.988 11.147c-1.067-1.483-3.047-1.852-4.565-.761-1.52 1.092-1.816 3.095-.752 4.577.633.881 1.5 1.173 2.32 1.222l-.891.641.78 1.085 1.844-1.326.467.652 1.518-1.092-.467-.65 1.845-1.325-.779-1.086-.904.651c.208-.881.215-1.708-.416-2.588M60.013-32.612l-3.085-9.258 9.352 2.371 1.844-2.025-13.072-3.135-1.276 1.402 4.131 12.958zm-5.249 4.645-7.429-9.14-2.125 1.728 7.428 9.138zM35.06-15.27l1.637-.906 3.901-10.078c.277-.726.463-1.316.56-1.769.464.996.757 1.606.883 1.833l2.988 5.414 2.159-1.189-5.693-10.312-1.638.905-4.053 10.555c-.173.444-.305.88-.398 1.313-.3-.703-.556-1.246-.77-1.634l-3.111-5.634-2.158 1.192zm-22.1-2.575 2.28 8.698 2.651-.696-2.427-9.248 7.551-1.981 2.425 9.25 2.65-.695-2.281-8.699c-.279-1.059-.668-1.72-1.169-1.981-.501-.262-1.289-.252-2.364.029l-7.197 1.887c-1.075.283-1.766.661-2.073 1.136-.31.472-.324 1.24-.046 2.3M1.42-7.756l.138-2.05-9.154-.62.209-3.097 4.943.335.144-2.14-4.94-.335.301-4.464-2.732-.185-.797 11.752zm-25.442-3.705 2.469-9.238 8.533 2.28.573-2.139-11.18-2.988-3.041 11.378zM-45.413-21.52c.191.531.778 1.058 1.76 1.577l7.664 4.059c.981.52 1.747.71 2.295.57.548-.141 1.078-.695 1.59-1.664l2.906-5.485c.512-.969.673-1.719.48-2.251-.191-.533-.777-1.058-1.76-1.578l-7.664-4.058c-.981-.52-1.747-.71-2.295-.569-.546.14-1.078.694-1.589 1.663l-2.906 5.485c-.513.969-.673 1.719-.481 2.251m-14.751-11.27 6.024 5.453c.869.786 1.582 1.159 2.141 1.121.558-.04 1.226-.487 2.001-1.343l-1.658-2.148-.89.981-6.346-5.742 5.007-5.535 6.348 5.743-1.762 1.947-3.316-3.003-1.349 1.491 5.298 4.791 2.726-3.011c.735-.813 1.076-1.499 1.019-2.063-.055-.563-.494-1.217-1.317-1.963l-6.026-5.451c-.823-.744-1.518-1.117-2.084-1.116-.564.002-1.215.408-1.951 1.221l-4.163 4.604c-.736.813-1.076 1.499-1.021 2.062.055.563.495 1.217 1.319 1.961m-14.232-18.893 13.573.345-1.464-2.711-2.942-.018-3.547-6.566 1.618-2.431-1.302-2.41-7.194 11.462zm-5.849-12.166 1.932-.546-2.531-8.962 2.527-.712 1.475 5.227 1.934-.546-1.476-5.228 2.812-.793 2.56 9.071 2.13-.601-3.305-11.708-11.334 3.2zm-4.631-21.01c.091 1.764.895 2.606 2.415 2.527l2.758-.142c1.14-.058 1.823-.55 2.05-1.476.088-.356.091-1.3.013-2.836l4.724 5.198-.201-3.921-4.69-4.513-.133-2.599 4.445-.228-.14-2.69-11.761.606zm2.996-30.841c-.452.341-.782 1.056-.99 2.146l-1.626 8.521c-.208 1.09-.165 1.878.131 2.36.295.482.979.825 2.055 1.032l6.1 1.163c1.075.204 1.84.137 2.292-.202.451-.34.782-1.055.989-2.145l1.626-8.521c.208-1.09.165-1.878-.131-2.361-.294-.481-.98-.824-2.055-1.029l-6.1-1.165c-1.075-.204-1.84-.138-2.291.201m5.368-15.197 4.483 1.997-7.14 3.966-1.616 3.628 8.244-4.874 2.123 10.542 1.793-4.022-1.861-8.552 4.731 2.11 1.125-2.523-10.758-4.795zm15.624-17.158-2.354-3.993-.416 4.707-4.6 1.208 4.323 1.671-.284 4.551 2.964-3.495 4.134 1.609-2.285-3.787 2.974-3.508zm14.694-17.235-7.16 5.143 2.337 3.255 1.411-1.013-1.559-2.169 5.75-4.132zm6.217 6.699-.778-1.085-1.036.745-2.486-3.459-1.41 1.012 5.144 7.161 1.409-1.015-1.879-2.614zm13.904-5.291c-.19-.437-.531-1.226-.83-1.726-.386-.627-.675-.922-.681-.935l.911-.397-.531-1.225-3.73 1.62-.586-1.347 3.24-1.407-1.786-4.111-1.593.693 1.255 2.885-6.493 2.822.533 1.224 3.252-1.414.586 1.349-3.744 1.626.533 1.225 6.574-2.857c.013-.007.217.165.434.441.253.36.355.592.526.987l.68 1.564-6.37 2.767.533 1.225 7.962-3.46zm13.963-12.085-6.939 1.376-.155-.786 7.083-1.405-.233-1.177-8.787 1.742.676 3.405 6.939-1.378.129.655-6.937 1.376.259 1.31 8.64-1.715zm1.505 8.272c-.124-.625-.24-1.207-.365-1.606-.208-.592-.48-1.052-.485-1.081l.843-.168-.259-1.31-9.427 1.871.261 1.309 2.603-.516.337 1.701 1.702-.338-.337-1.702 2.559-.507c.019.011.163.135.325.495.166.375.221.576.298.969l.295 1.483-6.807 1.351.259 1.309 8.51-1.69zm6.904-10.829-.021 1.334 9.875.15.022-1.335zm25.919 2.673-1.564 6.765-.911-.21 1.564-6.765-1.692-.391-.357 1.546a3.785 3.785 0 0 0-.784-.364 13.682 13.682 0 0 0-1.401-.398l-2.819-.652-2.404 10.411 4.15.958.301-1.302-2.474-.571 1.807-7.821 1.271.293c.392.091.915.196 1.315.379.487.204.716.395.73.398l-2.1 9.095 1.693.391.899-3.904.912.21-.902 3.904 1.706.393 2.766-11.972zm5.964 10.538c-.422.899-.237 1.757.085 2.398l-.913-.428-.569 1.206 2.12.998-.341.723 1.704.802.34-.725 2.161 1.017.567-1.206-.98-.461c.844-.226 1.533-.541 1.956-1.439.732-1.556-.095-3.42-1.786-4.215-1.689-.794-3.613-.226-4.344 1.33m10.522-4.189-1.393 2.962-6.413-3.014-.567 1.206 7.98 3.756 1.962-4.173zm9.204 5.627-.808 1.061 1.048.801-3.4 4.46 1.273.971 3.403-4.46.86.658-3.4 4.461 1.273.97 3.402-4.461.78.595c-.006.033-.127.558-.295.876a16.238 16.238 0 0 1-1.386 2.136l-3.437 4.507-5.204-3.968-.809 1.061 6.584 5.022 3.347-4.389c.764-1.004 1.433-1.857 1.903-2.617.492-.819.721-1.485.748-1.52l.85.647.808-1.061zm16.749 17.728-.366-4.736-2.413 3.951-4.426-1.09 2.908 3.537-2.316 3.776 4.129-1.572 2.92 3.551-.227-4.565 4.346-1.605zm14.728 21.692-5.775-1.844 2.471-5.553-1.313-2.938-3.391 8.19-4.877 2.177 1.126 2.523 4.813-2.152 8.436 2.934zm1.917 4.796-2.042.488 1.259 5.284-9.415 2.244.635 2.664 9.414-2.244 1.254 5.263 2.042-.487zm3.413 17.229-11.73 1.068.249 2.729 11.729-1.07z" style="fill:#5f247e;fill-opacity:1;fill-rule:nonzero;stroke:none" transform="translate(603.071 387.355)"/><path d="m0 0-1.414.072c-.394.02-.659-.079-.792-.302-.115-.161-.184-.455-.205-.88l-.318-6.154 3.283-.17.317 6.155c.022.424-.017.725-.114.897C.646-.148.396-.02 0 0" style="fill:#5f247e;fill-opacity:1;fill-rule:nonzero;stroke:none" transform="translate(522.571 302.272)"/></g><g clip-path="url(#b)" transform="matrix(.93974 0 0 -.93974 -514.943 422.526)"><path d="m0 0-.069 4.538-2.684-.041.069-4.537Z" style="fill:#5f247e;fill-opacity:1;fill-rule:nonzero;stroke:none" transform="translate(605.567 214.798)"/><path d="m0 0-7.331-1.4 1.693-8.877 7.331 1.398z" style="fill:#5f247e;fill-opacity:1;fill-rule:nonzero;stroke:none" transform="translate(527.935 284.294)"/></g><g clip-path="url(#c)" transform="matrix(.93974 0 0 -.93974 -514.943 422.526)"><path d="M0 0c-.831-1.157-.423-2.09.12-2.479.567-.407 1.554-.458 2.376.686.736 1.025.451 2.052-.116 2.46C1.837 1.056.736 1.025 0 0" style="fill:#5f247e;fill-opacity:1;fill-rule:nonzero;stroke:none" transform="translate(555.186 233.22)"/></g><g clip-path="url(#d)" transform="matrix(.93974 0 0 -.93974 -514.943 422.526)"><path d="m0 0 2.969-4.587L5.421-.049z" style="fill:#5f247e;fill-opacity:1;fill-rule:nonzero;stroke:none" transform="translate(530.012 333.343)"/><path d="m0 0-3.491 6.595-7.988-4.23 3.493-6.596z" style="fill:#5f247e;fill-opacity:1;fill-rule:nonzero;stroke:none" transform="translate(571.719 363.106)"/></g><g clip-path="url(#e)" transform="matrix(.93974 0 0 -.93974 -514.943 422.526)"><path d="M0 0c.724.342 1.275 1.224.771 2.296-.492 1.047-1.51 1.189-2.234.85-.738-.348-1.236-1.206-.744-2.25C-1.702-.177-.711-.333 0 0" style="fill:#5f247e;fill-opacity:1;fill-rule:nonzero;stroke:none" transform="translate(635.043 221.892)"/><path d="M0 0h-84.516v-50.276c-.044-.891-.954-21.944 11.208-36.975 13.28-16.412 30.131-20.454 30.841-20.619l.209-.047.208.047c.711.165 17.562 4.207 30.842 20.619C.953-72.22.043-51.167 0-50.323Zm-12.649-86.085c-12.082-14.93-27.632-19.404-29.61-19.924-1.977.516-17.507 4.97-29.608 19.924-11.707 14.47-10.807 35.503-10.795 35.762v48.469h80.808v-48.518c.011-.21.91-21.243-10.795-35.713" style="fill:#5f247e;fill-opacity:1;fill-rule:nonzero;stroke:none" transform="translate(645.33 340.64)"/></g><g clip-path="url(#f)" transform="matrix(.93974 0 0 -.93974 -514.943 422.526)"><path d="M599.676 250.977h3.846v3.49h-3.846z" style="fill:#5f247e;fill-opacity:1;fill-rule:nonzero;stroke:none"/></g><g clip-path="url(#g)" transform="matrix(.93974 0 0 -.93974 -514.943 422.526)"><path d="M0 0c-.01-.209-.032-.414-.032-.626 0-.02.003-.037.003-.056l.002.002a.37.37 0 0 0 .266.121.362.362 0 0 0 .216-.074C.237-.645.068-.942.077-1.306c.006-.372.198-.687.424-.703h.03a.356.356 0 0 0-.241-.098H.264a.386.386 0 0 0-.226.11c.046-.471.116-.936.209-1.392.042.012.074.053.12.046a.357.357 0 0 0 .114-.034C.4-3.402.337-3.474.294-3.573c.073-.331.157-.657.253-.979.059-.053.112-.128.177-.14a.24.24 0 0 1 .1 0 .164.164 0 0 0-.028-.037c-.047-.052-.11-.064-.172-.08.146-.454.316-.896.506-1.329.147-.139.278-.329.322-.56.007-.039-.008-.059-.006-.093.12-.238.245-.471.378-.701.058.038.112.085.202.062.262-.07.535-.397.608-.729.045-.208-.022-.329-.129-.396.137-.193.279-.383.425-.569.028.177.133.297.341.243.288-.075.588-.394.663-.709.062-.253-.068-.381-.266-.389.186-.197.372-.392.568-.578.004.203.133.337.384.275.314-.076.63-.377.706-.67.058-.218-.07-.326-.257-.348.188-.152.385-.292.581-.435.064.113.185.185.395.138.329-.073.656-.349.727-.615.025-.099-.02-.16-.064-.22.216-.13.433-.258.657-.375.049 0 .08.021.137.011.248-.048.451-.196.588-.361.519-.234 1.05-.445 1.601-.614-.079.074-.164.148-.181.232-.048.239.211.401.584.359.375-.04.705-.266.739-.504.021-.149-.091-.259-.265-.312.286-.067.574-.124.865-.173.046.003.075.024.126.021.14-.01.266-.049.377-.098a13.789 13.789 0 0 1 1.782-.129c.095 0 .185.013.278.014a.975.975 0 0 0 .505.141.938.938 0 0 0 .448-.093c1.03.093 2.025.295 2.977.603a.238.238 0 0 0-.018.141c.043.238.379.473.74.524.276.038.479-.043.535-.19.257.112.487.269.736.395-.341-.059-.574.099-.52.356.057.268.396.535.752.598.352.061.578-.106.51-.372-.028-.107-.12-.206-.218-.3 2.214 1.254 4.07 3.065 5.304 5.292-.091-.093-.186-.183-.29-.211-.267-.068-.436.158-.375.51.064.355.333.694.601.752.244.052.391-.154.361-.459.117.236.24.469.343.714-.111.082-.172.257-.137.495.05.362.286.695.528.742.023.005.036-.016.056-.017.162.513.286 1.043.387 1.581-.084-.127-.192-.215-.306-.229-.238-.032-.414.253-.388.637.022.387.234.714.475.731.159.011.284-.129.342-.335.072.568.121 1.142.121 1.729l-.001.009c-.063-.044-.127-.09-.197-.091a.38.38 0 0 0-.222.074c.213.011.376.286.388.631l-.007.138c-.033.334-.208.605-.42.619a.15.15 0 0 1-.03 0 .373.373 0 0 0 .245.098h.022a.396.396 0 0 0 .148-.054c-.046.44-.113.873-.199 1.3l-.001-.001a.398.398 0 0 0-.161.036c.054.017.086.078.124.127-.085.398-.183.79-.302 1.174-.02.008-.039.025-.06.029a.288.288 0 0 1-.106-.001l.027.034c.028.03.073.018.105.036-.077.244-.172.48-.263.718.019-.203-.019-.385-.121-.502a.362.362 0 0 0-.349-.124.3.3 0 0 0-.048.011c.17.061.268.283.228.57-.051.361-.302.696-.564.751a.297.297 0 0 1-.195-.018.375.375 0 0 0 .421.188c.143-.03.28-.132.391-.272a13.7 13.7 0 0 1-1.736 2.912c-.021-.004-.032-.025-.055-.026.016.015.019.041.03.059-.266.343-.549.672-.846.987-.021-.009-.058.005-.075-.009.004.024.019.041.027.063-.121.126-.241.254-.366.376-.025-.01-.039-.034-.067-.038.016.02.001.062.011.089-.301.29-.613.567-.939.829-.029-.014-.082.003-.103-.019.001.029.019.05.026.076a13.665 13.665 0 0 1-8.507 2.97c-4.46 0-8.42-2.144-10.933-5.446.087.065.168.149.262.173.169.043.328.001.42-.113a.399.399 0 0 0 .074-.145c-.072.055-.175.073-.294.042-.28-.072-.567-.395-.637-.724-.042-.21.007-.374.121-.452h-.02a.36.36 0 0 0-.287.131c-.091.113-.118.278-.078.468.008.04.043.071.057.11-.178-.258-.34-.527-.501-.798.098-.004.189-.031.25-.106a.402.402 0 0 0 .062-.1.301.301 0 0 1-.21.016c-.117-.031-.231-.127-.33-.244-.048-.088-.094-.177-.14-.266-.034-.076-.087-.143-.102-.224-.045-.242.02-.431.15-.503a.414.414 0 0 0-.084-.009.33.33 0 0 0-.261.122c-.006.007-.006.02-.012.028a13.657 13.657 0 0 1-.814-2.31c.123.015.247.017.37.03 0 .037-.011.068-.007.107.041.413.305.777.6.829a.378.378 0 0 0 .355-.124l.027-.037a.296.296 0 0 1-.158.015c-.256-.045-.493-.379-.531-.752 0-.006.004-.01.003-.016.585.054 1.169.108 1.755.133-.011.073-.027.144-.019.223.04.446.354.831.717.878a.514.514 0 0 0 .508-.239.421.421 0 0 1-.324.086c-.318-.041-.606-.397-.644-.796-.004-.052.025-.083.029-.132a35.559 35.559 0 0 0 7.906-.581A32.308 32.308 0 0 1 4.186 1.39c.087-.264.298-.443.558-.434.03.002.06.005.089.01A.7.7 0 0 0 4.592.91h-.024a.618.618 0 0 0-.588.431A31.794 31.794 0 0 1 2.354.857c.007 0 .012-.005.019-.005A.53.53 0 0 0 2.21.81C1.797.676 1.381.554.972.402A1.038 1.038 0 0 1 .905.069c-.006-.388.195-.705.452-.705h.022a.431.431 0 0 0-.238-.074.429.429 0 0 0-.31.14C.687-.423.604-.179.607.083c.002.063.018.12.028.18C.422.181.212.087 0 0m14.529-13.374c-.389-.007-.705.198-.708.457.003.269.33.492.738.5.404.008.719-.203.704-.471-.014-.26-.342-.478-.734-.486m1.654 3.285c.428.021.796.33.822.689a.532.532 0 0 1-.143.41.623.623 0 0 0 .274-.568c-.028-.402-.436-.748-.907-.77l-.053-.001a.847.847 0 0 0-.615.243.62.62 0 0 0-.123.696.304.304 0 0 1-.01-.085c-.014-.361.323-.636.755-.614m.141 2.767c.453.017.837.373.857.798a.716.716 0 0 1-.514.718.855.855 0 0 0 .431-.242.782.782 0 0 0 .217-.584c-.025-.467-.447-.862-.941-.881h-.039a.88.88 0 0 0-.636.259.778.778 0 0 0-.225.572.853.853 0 0 0 .106.391.786.786 0 0 1-.065-.289c-.009-.427.354-.759.809-.742M20.602 8.4c-.269.039-.484-.071-.568-.265.01.12.053.23.129.315.127.147.332.215.568.181.414-.064.784-.418.847-.808a.571.571 0 0 0-.115-.47.537.537 0 0 0-.281-.17c.149.096.224.271.189.484-.054.35-.401.676-.769.733m-.071-2.711a.652.652 0 0 0 .568.202c.423-.048.805-.447.849-.889a.722.722 0 0 0-.172-.572.637.637 0 0 0-.483-.209h-.012c.295.057.489.33.453.676-.04.406-.385.767-.769.81a.566.566 0 0 1-.589-.309c.03.111.08.21.155.291m-2.496-11.39a.903.903 0 0 1 .841.842.737.737 0 0 1-.876.777c.056.013.115.02.176.023l.031.001c.236 0 .451-.09.606-.254a.843.843 0 0 0 .229-.625 1.002 1.002 0 0 0-.929-.927l-.045-.001a.828.828 0 0 0-.604.251.833.833 0 0 0-.231.614c.003.054.008.107.019.158a.737.737 0 0 1 .783-.859m1.724 3.358a.773.773 0 0 1-.299-.069.862.862 0 0 0 .403.113h.02a.788.788 0 0 0 .572-.243.9.9 0 0 0 .241-.655c-.021-.497-.417-.919-.885-.942l-.04-.001a.78.78 0 0 0-.568.241.849.849 0 0 0-.215.386.717.717 0 0 1 .714-.493c.425.02.782.402.801.856.017.456-.314.817-.744.807m-1.923-6.33c.425.03.799.371.831.76a.588.588 0 0 1-.309.584.677.677 0 0 0 .468-.718c-.036-.43-.444-.807-.911-.84a.779.779 0 0 0-.648.231.676.676 0 0 0-.181.51c0 .036.005.07.012.104-.009-.382.316-.663.738-.631m.963 2.034c.067-.31.347-.516.694-.486a.923.923 0 0 1 .811.81c.031.35-.181.629-.497.694a.706.706 0 0 0 .502-.228.733.733 0 0 0 .183-.572 1.019 1.019 0 0 0-.893-.891l-.073-.003a.727.727 0 0 0-.538.225.714.714 0 0 0-.189.451m1.98-1.73c.377.05.722.396.774.772.035.271-.089.49-.3.579a.592.592 0 0 0 .37-.193.642.642 0 0 0 .138-.518c-.055-.412-.435-.794-.85-.848a.79.79 0 0 0-.107-.007.613.613 0 0 0-.462.194.593.593 0 0 0-.141.312c.09-.207.306-.328.578-.291m.45 2.719a.671.671 0 0 0-.564.21.736.736 0 0 0-.152.247.594.594 0 0 1 .582-.299c.389.035.731.407.762.832.033.424-.253.751-.64.736a.68.68 0 0 0 .659-.2.809.809 0 0 0 .197-.613c-.036-.465-.414-.875-.844-.913m.066 5.005a.65.65 0 0 1-.339-.095.765.765 0 0 0 .473.169.745.745 0 0 0 .533-.23.942.942 0 0 0 .258-.677c-.007-.495-.373-.91-.814-.924l-.023-.001a.745.745 0 0 0-.588.289.657.657 0 0 1 .477-.185c.396.012.724.387.73.838.008.451-.308.816-.707.816m1.008-6.163c.353.049.679.406.724.798.04.333-.127.593-.39.647a.556.556 0 0 0 .47-.185c.128-.142.182-.342.156-.564-.052-.437-.401-.822-.8-.877a.589.589 0 0 0-.093-.006.556.556 0 0 0-.423.183.601.601 0 0 0-.114.186.483.483 0 0 1 .47-.182m.446 2.849L22.7-3.96a.628.628 0 0 0-.516.267.538.538 0 0 1 .404-.136c.361.028.67.395.692.823.023.431-.253.77-.616.757a.94.94 0 0 1-.089-.011.749.749 0 0 0 .243.056h.025a.632.632 0 0 0 .46-.202.87.87 0 0 0 .219-.645c-.026-.47-.372-.876-.773-.908M22.668.965a.573.573 0 0 1-.328-.091.67.67 0 0 0 .465.193l.023-.001c.407-.014.744-.419.751-.901a.942.942 0 0 0-.255-.675.674.674 0 0 0-.474-.208h-.003a.663.663 0 0 0-.374.118.553.553 0 0 1 .219-.045c.363.002.651.357.646.796-.009.436-.306.801-.67.814m1.05-6.172c.326.043.619.4.656.8.035.376-.164.666-.454.683a.518.518 0 0 0 .539-.153c.135-.146.196-.365.176-.602-.041-.438-.369-.834-.73-.88a.526.526 0 0 0-.522.243.44.44 0 0 1 .335-.091m.397 2.911-.027-.001a.563.563 0 0 0-.377.146.468.468 0 0 1 .222-.044c.329.015.601.368.609.79.007.423-.251.765-.579.765a.495.495 0 0 1-.132-.019.58.58 0 0 0 .31.092.589.589 0 0 0 .42-.184.93.93 0 0 0 .242-.669c-.008-.465-.316-.859-.688-.876m.427 3.343a.563.563 0 0 0-.405-.179h-.025a.582.582 0 0 0-.21.05l.036-.002c.328-.015.574.313.554.73-.024.415-.305.773-.634.802a.457.457 0 0 1-.286-.07c.006.007.014.014.019.022a.558.558 0 0 0 .453.175c.373-.032.685-.421.71-.884a.878.878 0 0 0-.212-.644m-.199 3.057a.489.489 0 0 0-.446-.163l-.004.001c.236.055.38.305.339.625-.049.385-.349.736-.671.787a.42.42 0 0 1-.365-.102.499.499 0 0 0 .548.28c.366-.059.692-.439.743-.865a.7.7 0 0 0-.144-.563m-.916-.769a.8.8 0 0 0-.191-.612.597.597 0 0 0-.489-.193.987.987 0 0 0-.109.016c.339.001.582.313.55.715-.033.416-.352.781-.711.819a.516.516 0 0 1-.449-.17.605.605 0 0 0 .612.326c.396-.043.75-.447.787-.901m-.466 2.413a.521.521 0 0 0-.375-.179c.198.081.312.297.271.569-.055.371-.382.717-.731.773-.209.034-.381-.039-.477-.182a.527.527 0 0 0 .116.219c.121.14.312.202.521.167.387-.063.741-.435.803-.847a.637.637 0 0 0-.128-.52M20.786 2.55a.707.707 0 0 0 .559.22c.439-.026.811-.442.83-.928a.891.891 0 0 0-.23-.654.717.717 0 0 0-.518-.222h-.023a.76.76 0 0 0-.305.074.583.583 0 0 1 .175-.029c.399-.012.706.34.684.786-.019.442-.354.819-.748.842a.63.63 0 0 1-.549-.26.798.798 0 0 0 .125.171M20.74.209a.95.95 0 0 0-.268-.682.821.821 0 0 0-.585-.249h-.004a.853.853 0 0 0-.65.308.75.75 0 0 1 .548-.233c.429 0 .771.376.767.841-.005.463-.357.847-.786.856a.754.754 0 0 1-.679-.406.96.96 0 0 0 .181.262.83.83 0 0 0 .587.248l.019-.001c.475-.01.866-.433.87-.944m-1.595-1.731c-.008-.519-.42-.949-.921-.959h-.014a.882.882 0 0 0-.632.263.956.956 0 0 0-.274.681c.004.529.425.961.934.963a.886.886 0 0 0 .632-.266.96.96 0 0 0 .275-.682m-1.718-1.776a.984.984 0 0 0-.956-.954l-.02-.001a.913.913 0 0 0-.919.93.976.976 0 0 0 .964.964.924.924 0 0 0 .67-.273.924.924 0 0 0 .261-.666m-1.323-7.988c.413.021.723-.204.692-.505-.03-.292-.377-.546-.776-.569-.401-.024-.715.194-.701.486.017.302.367.563.785.588m-1.518-.056c-.423-.007-.762.251-.765.578 0 .336.354.615.791.623.436.006.777-.26.762-.596-.016-.326-.368-.597-.788-.605m1.268-2.823c-.374-.023-.662.147-.648.376.017.238.345.449.73.472.384.025.669-.15.638-.388-.03-.231-.351-.436-.72-.46m1.461.958c-.377-.037-.66.143-.629.402.03.269.375.517.766.555.387.037.663-.15.618-.418-.044-.259-.381-.501-.755-.539m.272 2.028c-.406-.037-.714.197-.685.522.031.334.397.636.815.67.412.035.709-.208.669-.541-.042-.325-.4-.615-.799-.651m1.245-.911c-.375-.051-.646.143-.603.434.044.3.397.583.785.633.385.048.646-.154.59-.452-.057-.29-.4-.565-.772-.615m.357 2.251c-.399-.048-.695.203-.656.56.04.365.405.697.817.74.402.043.688-.218.638-.579-.049-.353-.407-.675-.799-.721m1.183-.986c-.367-.06-.624.15-.57.471.054.33.406.644.781.701.37.055.614-.164.552-.49-.061-.318-.401-.623-.763-.682m1.746-.177c-.071-.286-.396-.573-.725-.644-.334-.071-.554.103-.492.391.069.296.401.594.744.662.337.069.547-.116.473-.409m-.232 1.568c-.35-.064-.588.162-.532.511.059.355.397.693.754.752.348.058.578-.183.513-.531-.063-.342-.392-.668-.735-.732m.942-.898c-.315-.075-.521.115-.45.429.071.321.392.641.713.712.315.069.507-.134.431-.45-.073-.309-.383-.617-.694-.691m.506 2.38c-.329-.063-.551.181-.493.551.056.376.372.726.703.781.323.052.535-.204.472-.57-.057-.36-.364-.7-.682-.762m1.506-.256c-.07-.327-.357-.651-.645-.723-.295-.074-.479.135-.413.471.072.341.368.675.666.742.289.065.464-.155.392-.49m-.17 1.787c-.298-.057-.504.205-.454.587.05.387.335.741.638.785.292.045.485-.227.434-.602-.051-.371-.327-.715-.618-.77m.524 2.681c-.017-.003-.034-.003-.051-.003a.474.474 0 0 0-.348.155l-.003.004a.39.39 0 0 1 .198-.031c.292.031.551.378.573.778.026.399-.191.712-.481.7a.505.505 0 0 0 .188.046.468.468 0 0 0 .377-.157c.143-.15.213-.381.197-.632-.026-.448-.312-.825-.65-.86M25.079.862a.41.41 0 0 1-.139-.018.495.495 0 0 0 .319.119l.023-.001c.335-.016.616-.398.626-.848.004-.261-.085-.51-.238-.664a.508.508 0 0 0-.364-.163h-.002a.49.49 0 0 0-.269.08.414.414 0 0 1 .07-.006c.294 0 .527.331.52.739-.008.406-.251.748-.546.762m.792-5.748c-.27-.045-.456.229-.419.616.038.392.288.736.556.768.263.031.443-.251.403-.628-.035-.375-.279-.711-.54-.756m1.013 3.529c-.009-.44-.257-.801-.566-.82l-.026-.002a.427.427 0 0 0-.276.105.355.355 0 0 1 .08-.005c.26.016.48.346.489.736.009.391-.196.708-.458.708l-.023-.001a.435.435 0 0 0 .24.074.45.45 0 0 0 .319-.143c.143-.149.226-.392.221-.652m-.641 3.714c.304-.034.563-.4.587-.832.014-.252-.057-.486-.189-.629a.418.418 0 0 0-.305-.137l-.023.001a.455.455 0 0 0-.179.048c.245.012.42.306.399.676-.021.384-.253.72-.515.75a.313.313 0 0 1-.126-.011.409.409 0 0 0 .351.134m-.502.714c.023-.24-.039-.459-.166-.599a.45.45 0 0 0-.338-.153c-.016 0-.03 0-.047.002a.581.581 0 0 0-.107.022c.249.03.412.304.381.658-.038.389-.306.736-.598.779a.357.357 0 0 1-.239-.043.445.445 0 0 0 .445.193c.335-.05.629-.427.669-.859m-1.49 3.462c.1.117.255.164.423.126.325-.072.632-.435.7-.825.036-.209-.002-.391-.106-.514a.394.394 0 0 0-.309-.142c-.018 0-.033.002-.053.003.16.074.24.274.196.53-.06.352-.344.688-.634.752a.35.35 0 0 1-.292-.05.459.459 0 0 0 .075.12m-1.433 1.495c.107.127.282.177.475.135.352-.076.687-.429.76-.803.038-.186.006-.352-.09-.469a.427.427 0 0 0-.308-.152c.131.084.193.255.15.469-.068.338-.375.665-.691.733-.165.037-.299-.003-.384-.095a.43.43 0 0 0 .088.182M21.3 9.453c.111.134.304.188.521.144.373-.074.725-.409.802-.762a.486.486 0 0 0-.08-.421.426.426 0 0 0-.244-.147c.096.085.137.223.101.39-.07.316-.395.627-.732.693-.212.043-.38-.018-.465-.146a.43.43 0 0 0 .097.249m-1.568 1.314c.116.139.327.196.564.155.39-.067.751-.376.825-.704a.432.432 0 0 0-.075-.371.44.44 0 0 0-.178-.129.35.35 0 0 1 .054.299c-.063.291-.399.575-.75.636-.253.044-.453-.036-.527-.192a.417.417 0 0 0 .087.306m-.614-6.513a.754.754 0 0 0 .611.232c.462-.031.863-.446.891-.925a.828.828 0 0 0-.213-.622.76.76 0 0 0-.559-.237l-.037.001a.857.857 0 0 0-.136.018l.035-.003c.425-.019.746.324.719.767-.027.437-.386.813-.808.841a.678.678 0 0 1-.713-.512.793.793 0 0 0 .21.44m-1.58-1.598a.853.853 0 0 0 .617.259l.031-.001c.495-.017.91-.443.927-.952a.903.903 0 0 0-.255-.663.855.855 0 0 0-.618-.261h-.016a.944.944 0 0 0-.721.358.852.852 0 0 1 .644-.314c.457-.008.813.366.8.833-.013.464-.386.852-.84.865-.458.016-.822-.353-.813-.824a.94.94 0 0 1 .054-.293 1.02 1.02 0 0 0-.066.337.906.906 0 0 0 .256.656M15.824.932c.18.177.416.275.666.275a.97.97 0 0 0 .962-.967.951.951 0 0 0-.946-.965.969.969 0 0 0-.961.972c-.001.26.1.503.279.685M14.723-.576a.966.966 0 0 0 .968-.972.976.976 0 0 0-.971-.97h-.006a.968.968 0 0 0-.966.968c0 .537.438.974.975.974m-.014-3.553c.271 0 .511-.1.691-.281a.896.896 0 0 0 .256-.637c-.01-.5-.44-.911-.959-.917h-.011c-.518 0-.938.405-.938.903 0 .51.432.928.961.932m-.795-3.643a.66.66 0 0 1-.093-.338c0-.395.365-.711.817-.704.449.007.823.331.836.727a.655.655 0 0 1-.197.484.743.743 0 0 0 .302-.616c-.014-.44-.428-.805-.925-.812h-.015c-.49 0-.891.355-.891.791 0 .173.061.334.166.468M2.776 5.121c-.287-.053-.558-.397-.609-.767-.04-.302.076-.537.272-.594l-.027-.005a.447.447 0 0 0-.071-.005.407.407 0 0 0-.315.143c-.114.13-.162.334-.133.558.057.412.354.783.676.843a.418.418 0 0 0 .468-.218.345.345 0 0 1-.261.045m1.315 1.531c-.314-.061-.612-.402-.675-.763-.041-.264.053-.471.229-.546h-.019a.439.439 0 0 0-.347.156c-.107.126-.15.31-.116.516.068.4.394.768.746.836a.47.47 0 0 0 .554-.298c-.088.09-.218.129-.372.099M1.937-6.231a.349.349 0 0 0-.27-.124.356.356 0 0 0-.092.01c-.293.064-.565.425-.621.82-.034.223.01.422.116.546a.352.352 0 0 0 .343.122l.047-.01c-.164-.061-.258-.281-.216-.563.05-.357.299-.69.556-.746a.283.283 0 0 1 .186.015.35.35 0 0 0-.049-.07m1.292-1.515a.391.391 0 0 0-.303-.136.538.538 0 0 0-.115.014c-.318.073-.623.434-.692.819-.036.207 0 .388.102.509.085.102.213.15.354.135-.151-.074-.229-.268-.185-.521.064-.348.341-.682.626-.747a.333.333 0 0 1 .283.046.574.574 0 0 0-.07-.119m.361 4.041a.445.445 0 0 1 .278.066c-.009-.008-.014-.015-.02-.023a.535.535 0 0 0-.443-.17c-.366.033-.674.42-.7.881a.86.86 0 0 0 .205.638.542.542 0 0 0 .394.175l.026-.001a.58.58 0 0 0 .205-.049.303.303 0 0 1-.029.002c-.322.017-.564-.308-.539-.722.022-.411.303-.767.623-.797m.581-2.904a.48.48 0 0 0-.458-.152c-.357.061-.679.438-.734.86-.029.22.021.423.141.558a.48.48 0 0 0 .436.159l.005-.002c-.229-.054-.367-.299-.327-.615.05-.379.347-.729.664-.783a.407.407 0 0 1 .353.096.564.564 0 0 0-.08-.121m-.159 2.02a.8.8 0 0 0 .185.608.581.581 0 0 0 .584.172c-.33-.003-.564-.308-.53-.705.035-.411.348-.775.701-.815.174-.02.33.043.436.162a.575.575 0 0 0-.095-.133.574.574 0 0 0-.503-.185c-.395.045-.738.439-.778.896m2.18.682a.612.612 0 0 1 .535.249.768.768 0 0 0-.123-.166.694.694 0 0 0-.55-.214c-.43.027-.799.441-.82.924a.875.875 0 0 0 .226.649.697.697 0 0 0 .506.219l.025-.001a.754.754 0 0 0 .293-.069.73.73 0 0 1-.163.025c-.391.013-.691-.336-.67-.778.022-.438.35-.814.741-.838m1.572-1.681a.657.657 0 0 1 .697.492.759.759 0 0 0-.204-.425.738.738 0 0 0-.603-.228c-.454.034-.851.448-.882.922a.816.816 0 0 0 .21.618.731.731 0 0 0 .586.23.68.68 0 0 0 .13-.016l-.028.002c-.42.023-.734-.319-.707-.757.028-.434.387-.807.801-.838m1.657-1.634c.439-.03.777.288.754.712v.006a.749.749 0 0 0-.19-.669.79.79 0 0 0-.58-.24c-.02 0-.041 0-.064.002-.474.031-.884.431-.917.89a.761.761 0 0 0 .195.576.773.773 0 0 0 .485.239.663.663 0 0 1-.519-.709c.03-.417.405-.779.836-.807m1.546 1.465a.78.78 0 0 1 .825.793.852.852 0 0 1-.24.571.935.935 0 0 0 .279-.646.846.846 0 0 0-.243-.618.88.88 0 0 0-.639-.263h-.032a.988.988 0 0 0-.948.926c-.01.236.075.46.238.628a.879.879 0 0 0 .644.268h.022c.117-.004.228-.027.332-.067a.93.93 0 0 1-.286.054.779.779 0 0 1-.814-.806.895.895 0 0 1 .862-.84m.888-2.165a.761.761 0 0 0 .066-.283.696.696 0 0 0-.197-.516.859.859 0 0 0-.618-.248l-.051.001c-.48.025-.895.396-.923.831a.69.69 0 0 0 .188.53c.059.064.13.117.21.158a.624.624 0 0 1-.266-.555c.027-.392.4-.727.84-.748.443-.022.791.279.777.674a.737.737 0 0 1-.026.156m.142-2.805c.02-.325-.304-.569-.72-.544-.412.025-.77.309-.801.634-.033.335.285.587.712.563.43-.023.793-.317.809-.653M8.039-8.51c.334-.036.595.145.658.427a.639.639 0 0 0-.16-.43.68.68 0 0 0-.512-.214c-.031 0-.061.003-.094.006-.437.048-.832.428-.882.848-.022.2.031.384.152.52.09.101.207.169.342.199a.553.553 0 0 1-.308-.585c.045-.383.403-.727.804-.771m.796-.433a.632.632 0 0 0 .19.145.502.502 0 0 1-.175-.454c.041-.356.404-.673.816-.71.392-.035.694.194.702.523a.605.605 0 0 0-.139-.541.753.753 0 0 0-.555-.223.781.781 0 0 0-.085.004c-.456.041-.852.387-.898.788a.595.595 0 0 0 .144.468M7.022-6.654a.626.626 0 0 0-.621-.483.897.897 0 0 0-.087.005c-.417.05-.794.446-.841.885a.715.715 0 0 0 .167.568.62.62 0 0 0 .484.204c-.286-.057-.474-.326-.437-.668.043-.401.384-.76.763-.805a.545.545 0 0 1 .572.294m-2.661-.838c-.032.202.01.385.122.513a.508.508 0 0 0 .371.176c-.195-.079-.302-.292-.261-.56.056-.368.379-.71.723-.769.204-.034.371.036.465.173a.516.516 0 0 0-.51-.386.75.75 0 0 0-.114.009c-.383.066-.735.437-.796.844m1.425-3.054c-.332.068-.655.377-.725.691-.072.319.142.529.479.464.346-.065.684-.384.746-.711.064-.316-.163-.514-.5-.444m.071 1.506a.562.562 0 0 0 .11.465c.07.084.166.142.276.169-.141-.095-.215-.267-.18-.478.058-.347.399-.674.765-.73.261-.041.47.064.55.253a.51.51 0 0 0-.123-.309.561.561 0 0 0-.437-.184.823.823 0 0 0-.121.01c-.406.063-.775.416-.84.804m1.414-2.804c-.348.063-.68.347-.745.634-.068.296.161.487.518.426.363-.06.707-.355.765-.654.055-.289-.185-.47-.538-.406m.333 1.526c-.056.329.213.558.602.51.395-.048.755-.358.8-.691.043-.322-.236-.542-.62-.49-.378.05-.727.351-.782.671m1.164-2.692c-.355.053-.689.306-.748.565-.059.268.188.442.554.39.373-.053.717-.314.765-.582.046-.259-.211-.426-.571-.373m1.179.786c-.384.041-.732.308-.778.599-.046.298.236.51.633.471.403-.039.757-.315.791-.616.032-.292-.258-.493-.646-.454m1.517-1.076c-.383.025-.717.257-.751.517-.032.269.261.465.657.438.4-.025.741-.264.761-.532.016-.26-.282-.449-.667-.423m.599 1.438c-.018.3.306.537.727.527.423-.01.767-.264.769-.565.005-.292-.324-.521-.731-.51-.404.01-.747.255-.765.548m.843-2.351c-.375.01-.692.206-.71.435-.017.239.283.421.671.411.39-.011.71-.211.714-.449.001-.229-.301-.408-.675-.397m.507 4.092a.92.92 0 0 0-.653-.255l-.024.001c-.479.009-.886.347-.905.753a.65.65 0 0 0 .189.481l.016.018a.552.552 0 0 1-.1-.341c.017-.361.382-.663.817-.672.436-.01.789.275.788.637a.638.638 0 0 1-.043.208.697.697 0 0 0 .114-.362.663.663 0 0 0-.199-.468m-.061 2.84a.942.942 0 0 0-.666-.269h-.016c-.507.008-.932.399-.945.871a.806.806 0 0 0 .233.591.888.888 0 0 0 .299.202.746.746 0 0 1-.426-.687c.013-.427.396-.779.858-.786.462-.008.835.332.835.76a.768.768 0 0 1-.22.527.857.857 0 0 0 .288-.63.805.805 0 0 0-.24-.579m-.746 4.911a.975.975 0 0 0 .977-.962.945.945 0 0 0-.948-.941h-.012a.972.972 0 0 0-.965.953.94.94 0 0 0 .948.95M10.169-.852a.92.92 0 0 0 .661.277.974.974 0 0 0 .682-1.654.934.934 0 0 0-.662-.274h-.008a.974.974 0 0 0-.673 1.651M9.112-2.328h.019a.935.935 0 0 0 .654-.291.85.85 0 0 1-.577.248c-.45.009-.802-.363-.787-.827.013-.461.387-.847.833-.864.453-.016.814.35.802.818a.844.844 0 0 1-.031.214.848.848 0 0 0 .041-.257.888.888 0 0 0-.251-.654.843.843 0 0 0-.607-.254l-.035.001c-.49.017-.903.442-.918.949a.889.889 0 0 0 .249.66c.16.166.377.257.608.257M6.906-.819c.156.159.36.246.576.246a.845.845 0 0 0 .629-.289.762.762 0 0 1-.52.216c-.426 0-.763-.375-.755-.836.004-.46.351-.842.776-.853a.738.738 0 0 1 .662.391.927.927 0 0 0-.174-.25.804.804 0 0 0-.578-.245h-.02c-.468.013-.855.435-.861.941a.937.937 0 0 0 .265.679m-.924 1.923h.023a.73.73 0 0 0 .521-.222c.017-.017.033-.036.05-.055a.64.64 0 0 1-.46.176c-.39-.012-.712-.385-.718-.834-.005-.449.305-.815.697-.815.12 0 .235.033.335.094a.738.738 0 0 0-.465-.168h-.003a.732.732 0 0 0-.521.225.951.951 0 0 0-.263.679c.009.495.367.908.804.92M4.1-.772a.647.647 0 0 0 .466.203c.13 0 .255-.041.365-.114a.571.571 0 0 1-.209.04c-.357 0-.639-.351-.631-.785.008-.435.302-.799.658-.812a.546.546 0 0 1 .32.087.648.648 0 0 0-.453-.189l-.026.001c-.4.015-.731.418-.742.897a.937.937 0 0 0 .252.672m-.781 1.778h.026a.554.554 0 0 0 .367-.141.471.471 0 0 1-.211.041C3.179.891 2.912.54 2.906.121c-.009-.42.247-.764.569-.764.043 0 .086.007.126.019a.56.56 0 0 0-.302-.091h-.003a.567.567 0 0 0-.41.181.93.93 0 0 0-.243.669c.008.464.31.855.676.871m-.477-5.985a.433.433 0 0 0-.438-.189c-.328.051-.619.426-.659.854-.026.238.033.454.16.594a.428.428 0 0 0 .377.147.43.43 0 0 0 .102-.022c-.238-.029-.398-.301-.363-.649.037-.385.302-.73.587-.776a.359.359 0 0 1 .234.041M1.8-.723a.49.49 0 0 0 .355.159.488.488 0 0 0 .263-.079.324.324 0 0 1-.064.006c-.287.001-.514-.327-.504-.731.008-.404.247-.743.535-.759a.392.392 0 0 1 .135.016.475.475 0 0 0-.338-.116c-.327.018-.604.396-.614.845-.005.259.081.506.232.659M.855-2.154c.089.095.2.143.321.134a.434.434 0 0 0 .172-.048c-.236-.013-.404-.302-.38-.667.022-.382.249-.715.505-.746a.327.327 0 0 1 .122.009l-.002-.001a.392.392 0 0 0-.342-.131c-.3.036-.554.4-.58.828-.015.249.052.482.184.622" style="fill:#5f247e;fill-opacity:1;fill-rule:nonzero;stroke:none" transform="translate(605.502 290.572)"/><path d="M0 0a.853.853 0 0 1 .86.867.88.88 0 0 1-.871.882.856.856 0 0 1-.848-.871A.88.88 0 0 1 0 0" style="fill:#5f247e;fill-opacity:1;fill-rule:nonzero;stroke:none" transform="translate(616.392 288.175)"/><path d="M0 0v21.539h-74.559l-.004-21.742c-.001-.025-.016-.357-.017-.946-.001-.35.002-.789.016-1.31.005-.272.015-.568.027-.881.035-.888.097-1.936.2-3.114.282-3.188.877-7.313 2.114-11.692.309-1.095.66-2.206 1.053-3.322a46.682 46.682 0 0 1 1.221-3.104c2.158 7.56 6.565 14.557 13.161 19.856.441.354.891.691 1.341 1.023-7.449-6.543-11.727-15.436-12.647-24.669.277-.5.562-.998.863-1.489.436-.717.908-1.419 1.398-2.113.048 10.3 4.558 20.493 13.212 27.447a35.184 35.184 0 0 0 17.422 7.474c1.51 6.379 7.237 11.144 14.07 11.144 7.979 0 14.469-6.491 14.469-14.47 0-7.979-6.49-14.471-14.469-14.471-7.979 0-14.471 6.492-14.471 14.471 0 .108.013.213.016.321a32.339 32.339 0 0 1-7.312-4.417c-12.755-10.248-15.67-28.16-7.519-41.82l.001-.001-.001.001a60.31 60.31 0 0 1 2.154-1.311c5.036-2.906 9.2-4.319 10.974-4.846a39.28 39.28 0 0 1 2.001.67 54.756 54.756 0 0 1 4.631 1.931 58.15 58.15 0 0 1 5.135 2.739 59.409 59.409 0 0 1 6.834 4.753c.78.628 1.563 1.293 2.345 1.995a56.37 56.37 0 0 1 2.217 2.092 56.499 56.499 0 0 1 4.024 4.467C.877-20.229.015-.402.005-.203zm-43.891-39.255c0-.431-.102-.719-.303-.865-.166-.125-.476-.187-.927-.187h-4.522v.489c0 .243.059.438.177.584.084.11.25.243.5.395l3.72 2.293v.697h-3.063v-1.103l-1.063.27v.699c0 .431.101.719.303.865.166.124.475.186.926.186h2.761c.556 0 .907-.1 1.053-.301.117-.16.178-.525.178-1.094 0-.292-.053-.514-.158-.667-.083-.118-.264-.261-.541-.427l-3.157-1.917h3.126v.792l.99-.281zm8.188.219c0-.486-.085-.819-.255-1-.171-.181-.495-.271-.974-.271h-3.635c-.48 0-.805.09-.975.271-.171.181-.255.514-.255 1v2.834c0 .486.084.819.255 1 .17.181.495.27.975.27h3.635c.479 0 .803-.089.974-.27.17-.181.255-.514.255-1zm4.605-1.271h-1.134v4.355h-1.148v.719l2.282.343zm4.575 0v4.355h-1.147v.719l2.282.343v-5.417z" style="fill:#5f247e;fill-opacity:1;fill-rule:nonzero;stroke:none" transform="translate(640.349 290.315)"/><path d="M0 0c-.463-.001-.841-.392-.845-.874-.003-.481.368-.864.83-.855.454.009.827.397.832.869C.821-.385.457 0 0 0" style="fill:#5f247e;fill-opacity:1;fill-rule:nonzero;stroke:none" transform="translate(623.662 289.925)"/><path d="M0 0a.89.89 0 0 1-.878-.876.827.827 0 0 1 .853-.84.893.893 0 0 1 .866.866A.825.825 0 0 1 0 0" style="fill:#5f247e;fill-opacity:1;fill-rule:nonzero;stroke:none" transform="translate(621.951 288.17)"/><path d="M0 0a.857.857 0 0 1 .871.854.885.885 0 0 1-.884.873.854.854 0 0 1-.866-.862A.884.884 0 0 1 0 0" style="fill:#5f247e;fill-opacity:1;fill-rule:nonzero;stroke:none" transform="translate(618.145 286.434)"/><path d="M0 0c.474.005.862.376.869.83.01.461-.375.833-.853.828-.484-.005-.873-.381-.873-.843C-.857.36-.473-.005 0 0" style="fill:#5f247e;fill-opacity:1;fill-rule:nonzero;stroke:none" transform="translate(620.18 284.772)"/><path d="M0 0c.476 0 .86.392.856.875a.882.882 0 0 1-.866.88.864.864 0 0 1-.865-.873A.88.88 0 0 1 0 0" style="fill:#5f247e;fill-opacity:1;fill-rule:nonzero;stroke:none" transform="translate(621.962 289.922)"/><path d="M0 0c.483.001.88.396.881.882a.88.88 0 0 1-.88.882.884.884 0 0 1-.884-.885A.88.88 0 0 1 0 0" style="fill:#5f247e;fill-opacity:1;fill-rule:nonzero;stroke:none" transform="translate(620.206 288.16)"/></g><g clip-path="url(#h)" transform="matrix(.93974 0 0 -.93974 -514.943 422.526)"><path d="m0 0 11.35-8.339h7.09L4.334 1.689l12.563 8.926h-6.391L0 2.718v7.897h-4.445V-8.339H0Z" style="fill:#5f247e;fill-opacity:1;fill-rule:nonzero;stroke:none" transform="translate(570.213 324.323)"/></g><path d="M0 0h13.077c1.787 0 3.018.306 3.691.918.673.612 1.01 1.8 1.01 3.564v6.538H6.28V7.787h7.2V3.563H-.294v12.012H13.48v-2.131l4.298.772c0 1.86-.311 3.116-.936 3.765-.625.648-1.88.973-3.765.973H0c-1.788 0-3.019-.306-3.692-.918-.674-.613-1.01-1.8-1.01-3.563V4.482c0-1.764.336-2.952 1.01-3.564C-3.019.306-1.788 0 0 0" style="fill:#5f247e;fill-opacity:1;fill-rule:nonzero;stroke:none" transform="matrix(.93974 0 0 -.93974 45.45 125.582)"/><path d="M0 0h11.975c1.787 0 3.018.306 3.692.918.673.612 1.01 1.8 1.01 3.564v14.472H12.27V3.563H-.294v15.391h-4.408V4.482c0-1.764.337-2.952 1.01-3.564C-3.018.306-1.788 0 0 0" style="fill:#5f247e;fill-opacity:1;fill-rule:nonzero;stroke:none" transform="matrix(.93974 0 0 -.93974 71.168 125.582)"/><path d="m0 0-8.193-15.447 20.267-14.457 29.481-6.379 22.749 1.135 18.353 5.81 17.291 9.779 6.521 8.243L95.839-.85 84.357-9.072s-17.174-6.801-18.019-6.801c-.846 0-28.894-.719-28.894-.719L10.091-6.236Z" style="fill:#5f247e;fill-opacity:1;fill-rule:nonzero;stroke:none" transform="matrix(.93974 0 0 -.93974 6.342 195.301)"/><path d="m0 0-1.443 1.014-5.427-7.719 1.443-1.015 2.375 3.379 1.398-.982.885 1.26-1.397.982zm-10.508-3.943-1.454 1.022-2.086-2.966 6.885-4.84.869 1.238-5.429 3.816zm6.025 7.231-1.444 1.014-.812-1.156-2.348 1.65-.861-1.227 6.093-4.282.861 1.226-2.302 1.618zm-5.673-6.537c1.603-1.127 3.163-.905 3.887.126l.307.435c.724 1.031.404 2.573-1.199 3.7-1.604 1.127-3.162.905-3.888-.125l-.305-.436c-.724-1.031-.406-2.573 1.198-3.7m2.198 3.127c.768-.539.85-1.299.575-1.689l-.192-.274c-.275-.391-1.017-.569-1.784-.03-.767.54-.849 1.299-.576 1.688l.194.275c.273.39 1.015.569 1.783.03m9.585-12.62 6.462-2.694-1.219-2.919 1.629-.679 1.789 4.29-3.244 1.351.76 1.823 4.728-1.971.572 1.369-1.862.776c.472.729.995 1.694 1.237 2.275l.777 1.861-7.961 3.318-.576-1.382 6.332-2.64-.238-.568a11.798 11.798 0 0 0-1.199-2.185l-7.52 3.135-.572-1.37 4.653-1.94-.759-1.821-3.219 1.341zm16.711-3.815-.234-1.338 6.883-1.194-.142-.827-6.815 1.182-.6-3.462 8.869-1.539.231 1.338-7.185 1.247.143.827 6.815-1.182.6 3.462zm-1.153 2.531-.247-1.421 11.752-2.039.247 1.42-5.931 1.03.354 2.041-1.737.302-.355-2.042zm2.349 4.452-.251-1.449 6.828-1.185-.054-.317c-.127-.731-.31-1.538-.603-2.241l1.636-.482c.308.714.578 1.775.7 2.478l.297 1.711zm24.694-9.738-.045 1.485-1.637-.05-.114 3.778 1.526.047-.045 1.483-9.293-.281.046-1.482 1.581.047.113-3.778-1.665-.05.044-1.484zm-6.218 5.081 2.659.08.113-3.78-2.658-.079zm-4.425-7.459.045-1.497 11.923.359-.045 1.497zM57.104-9.716l-1.648-.389 2.784-11.8 1.649.389-1.476 6.255 1.117.263 1.621-6.867 1.649.388-2.991 12.672-1.65-.388 1.021-4.319-1.117-.264zm-7.64-2.796 1.914-8.107 2.098.495c1.13.267 2.443.62 3.502 1.072l-.526 1.429c-1.089-.444-2.223-.755-3.326-1.016l-.397-.093-1.211 5.137 3.188.753-.351 1.485zm18.394 6.753-1.585-.774.615-1.258-2.579-1.259.651-1.334 6.692 3.269-.65 1.333-2.529-1.236zm5.069 2.287-1.585-.773 3.575-7.321 1.585.774-1.469 3.006 1.535.75-.675 1.384-1.536-.75zM69.95-16.297l5.875 2.869 1.304-2.667 1.585.774-1.954 4-7.46-3.643zm.709 2.792c1.762.859 2.345 2.251 1.805 3.358l-.197.402c-.541 1.106-1.996 1.503-3.757.642-1.761-.859-2.344-2.251-1.804-3.357l.196-.403c.541-1.107 1.996-1.502 3.757-.642m-1.542 3.156c.844.412 1.498.188 1.69-.202l.123-.252c.19-.39-.035-1.046-.878-1.457-.843-.411-1.498-.186-1.69.203l-.123.252c-.189.391.035 1.046.878 1.456m14.407 1.411.868-1.205 9.682 6.966-.866 1.204L89.4-4.711l-2.525 3.512-1.398-1.006 2.526-3.511-1.012-.728-2.525 3.511-1.399-1.005 2.527-3.512zm7.291 6.935c-.755 1.578-1.711 3.027-2.93 4.721l-1.104 1.535-7.239-5.208.891-1.239L86.264 2l.481-.67c.966-1.341 1.781-2.548 2.541-4.156z" style="fill:#fff;fill-opacity:1;fill-rule:nonzero;stroke:none" transform="matrix(.93974 0 0 -.93974 14.696 203.48)"/></g></svg>