<svg xmlns="http://www.w3.org/2000/svg" width="700mm" height="700mm" viewBox="0 0 700 700"><path d="M231.349 153.844c0 138.069-111.93 249.999-250.002 249.999-138.068 0-249.998-111.93-249.998-249.999 0-138.072 111.93-250.001 249.998-250.001 138.072 0 250.002 111.93 250.002 250.001" style="fill:#0f3160;fill-opacity:1;fill-rule:nonzero;stroke:none;stroke-width:3.10881" transform="matrix(1.4 0 0 1.4 376.112 134.62)"/><path d="M-18.653-37.82c-105.852 0-191.661 85.812-191.661 191.664 0 105.852 85.81 191.662 191.661 191.662 105.855 0 191.665-85.81 191.665-191.662S87.202-37.82-18.653-37.82" style="fill:#fff;fill-opacity:1;fill-rule:nonzero;stroke:none;stroke-width:3.10881" transform="matrix(1.4 0 0 1.4 376.112 134.62)"/><path d="m0 0 1.01-.981L2.37.417l.817.84-1.011.982-4.606 4.477-.816-.84 4.605-4.477Z" style="fill:#fff;fill-opacity:1;fill-rule:nonzero;stroke:none" transform="matrix(4.35234 0 0 -4.35234 144.439 572.823)"/><path d="m0 0 .816.84-6.753 6.563-.816-.84 2.871-2.791-.954-.981-2.383 2.315-.816-.84 4.684-4.554-1.861-1.916 1.011-.982L-2.34-1.27l.817.84-1.01.982-1.293 1.256.955.983z" style="fill:#fff;fill-opacity:1;fill-rule:nonzero;stroke:none" transform="matrix(4.35234 0 0 -4.35234 145.854 585.113)"/><path d="m0 0 1.771-2.7-.715-.469L-.716-.47l-1.056-.693 3.728-5.681-3.194-2.097-2.938 4.476 2.462 1.616-.642.979-2.463-1.616-1.178-.773.643-.979 2.937-4.476.421-.64.223-.339 4.372 2.869L3.936-9.86l1.056.693-3.294 5.018.717.47 3.293-5.018 1.057.693L1.057.694z" style="fill:#fff;fill-opacity:1;fill-rule:nonzero;stroke:none" transform="matrix(4.35234 0 0 -4.35234 518.55 582.522)"/><path d="m0 0-1.118 3.361-1.337-.445 1.118-3.361Z" style="fill:#fff;fill-opacity:1;fill-rule:nonzero;stroke:none" transform="matrix(4.35234 0 0 -4.35234 450.99 652.89)"/><path d="m0 0 1.337.445-1.729 5.193-.37 1.112-1.337-.445-4.352-1.449.37-1.111 4.352 1.448Z" style="fill:#fff;fill-opacity:1;fill-rule:nonzero;stroke:none" transform="matrix(4.35234 0 0 -4.35234 455.806 648.324)"/><path d="m0 0-1.342-.447-1.02 3.064-1.337-.445 2.389-7.178-7.127-2.372.371-1.111 7.127 2.372.526-1.582 1.337.445-1.896 5.695 1.342.447z" style="fill:#fff;fill-opacity:1;fill-rule:nonzero;stroke:none" transform="matrix(4.35234 0 0 -4.35234 472.867 625.735)"/><path d="m0 0-.691-2.337-2.663.787-.332-1.124 2.662-.787-1.927-6.515 1.351-.399L1.351-.4Z" style="fill:#fff;fill-opacity:1;fill-rule:nonzero;stroke:none" transform="matrix(4.35234 0 0 -4.35234 271.269 626.466)"/><path d="m0 0-1.352.399-1.674-5.664-.333-1.123 1.351-.4 4.487-1.327.333 1.124-4.488 1.327z" style="fill:#fff;fill-opacity:1;fill-rule:nonzero;stroke:none" transform="matrix(4.35234 0 0 -4.35234 247.718 620.728)"/><path d="m0 0-.771 1.179-1.845-1.206-.981-.641.771-1.18L.43-6.829l.98.642-3.256 4.98z" style="fill:#fff;fill-opacity:1;fill-rule:nonzero;stroke:none" transform="matrix(4.35234 0 0 -4.35234 74.542 513.08)"/><path d="m0 0 2.041 1.333-.771 1.18-6.075-3.971.771-1.179L-.98-.641l.886-1.356.981.641z" style="fill:#fff;fill-opacity:1;fill-rule:nonzero;stroke:none" transform="matrix(4.35234 0 0 -4.35234 104.35 523.013)"/><path d="M0 0a1.49 1.49 0 0 0 2.058-.431 1.49 1.49 0 0 0-.431-2.058 1.49 1.49 0 0 0-2.058.431A1.49 1.49 0 0 0 0 0m2.351-3.597a2.49 2.49 0 0 1 1.027 1.396l.564-.863.981.641L3.538-.305l1.102.72-.771 1.179L2.768.875 1.383 2.993l-.981-.641.565-.864a2.495 2.495 0 0 1-1.692-.38c-1.263-.826-1.487-2.523-.66-3.789.828-1.266 2.472-1.742 3.736-.916" style="fill:#fff;fill-opacity:1;fill-rule:nonzero;stroke:none" transform="matrix(4.35234 0 0 -4.35234 84.921 498.676)"/><path d="m0 0-.809-10.372 1.406-.109.808 10.372z" style="fill:#fff;fill-opacity:1;fill-rule:nonzero;stroke:none" transform="matrix(4.35234 0 0 -4.35234 334.305 637.052)"/><path d="m0 0 2.29-.179.091 1.168-6.096.476-.091-1.168 2.379-.186.003-.007-3.054-5.798 1.191-.554 2.43 4.618L.757-6.563l1.267.362L-.004-.007z" style="fill:#fff;fill-opacity:1;fill-rule:nonzero;stroke:none" transform="matrix(4.35234 0 0 -4.35234 319.17 642.165)"/><path d="M0 0a1.487 1.487 0 0 0 2.081 2.123A1.488 1.488 0 0 0 2.102.021 1.488 1.488 0 0 0 0 0m3.007 3.069c-.449.44-1.009.66-1.584.702l.723.737-.837.82-1.772-1.807-.939.921-.987-1.006.94-.921L-3.221.708l.837-.821.722.737a2.49 2.49 0 0 1 .735-1.57c1.078-1.056 2.783-.911 3.842.17 1.06 1.08 1.171 2.788.092 3.845" style="fill:#fff;fill-opacity:1;fill-rule:nonzero;stroke:none" transform="matrix(4.35234 0 0 -4.35234 558.128 567.994)"/><path d="m0 0-1.741 1.706L-2.727.7l4.328-4.242.986 1.007L.837-.82 1.971.336l-.837.821Z" style="fill:#fff;fill-opacity:1;fill-rule:nonzero;stroke:none" transform="matrix(4.35234 0 0 -4.35234 577.365 544.152)"/><path d="m0 0 .837-.82 4.165 4.25 1.74-1.706.987 1.006-1.741 1.706-.837.82-.986-1.006Z" style="fill:#fff;fill-opacity:1;fill-rule:nonzero;stroke:none" transform="matrix(4.35234 0 0 -4.35234 568.775 580.013)"/><path d="m0 0-3.433 2.081-.73-1.205L-.73-1.205l-.749-1.234-3.432 2.081-.731-1.205 3.432-2.081-.908-1.499 1.002-.607 4.882 8.053-1.001.607Z" style="fill:#fff;fill-opacity:1;fill-rule:nonzero;stroke:none" transform="matrix(4.35234 0 0 -4.35234 632.917 512.351)"/><path d="m0 0 .73 1.205-5.255 3.187-1.002.607-.731-1.205-3.329-5.492 1.001-.608 3.33 5.493z" style="fill:#fff;fill-opacity:1;fill-rule:nonzero;stroke:none" transform="matrix(4.35234 0 0 -4.35234 633.223 506.422)"/><path d="M0 0c-.771.446-1.008 1.483-.526 2.316.482.833 1.498 1.146 2.27.7.773-.447 1.008-1.484.527-2.317C1.789-.133.772-.447 0 0m4.559.053-.854.493a2.993 2.993 0 1 1-.587-1.014l.855-.493L.572-6.843l1.094-.633L6.873 1.53l-1.094.633Z" style="fill:#fff;fill-opacity:1;fill-rule:nonzero;stroke:none" transform="matrix(4.35234 0 0 -4.35234 180.6 608.111)"/><path d="m0 0-5.207-9.006 1.095-.633L1.095-.633z" style="fill:#fff;fill-opacity:1;fill-rule:nonzero;stroke:none" transform="matrix(4.35234 0 0 -4.35234 213.74 603.317)"/><path d="M0 0c-.829-.093-1.582.555-1.684 1.449-.1.894.49 1.695 1.318 1.788.829.094 1.583-.554 1.683-1.448C1.419.895.829.094 0 0m4.103 5.627L-.07 5.155l-.156 1.371-1.399-.159.154-1.37-3.784-.428.132-1.164 3.035.343a2.854 2.854 0 0 1-.939-2.451 2.862 2.862 0 1 1 5.688.643 2.856 2.856 0 0 1-1.463 2.18l3.036.343z" style="fill:#fff;fill-opacity:1;fill-rule:nonzero;stroke:none" transform="matrix(4.35234 0 0 -4.35234 389.564 677.861)"/><path d="m0 0 1.4.158-.283 2.508L.985 3.83l-1.4-.158-6.382-.722.132-1.164 6.382.722Z" style="fill:#fff;fill-opacity:1;fill-rule:nonzero;stroke:none" transform="matrix(4.35234 0 0 -4.35234 397.555 651.433)"/><path d="M17.234 140.07h42.174v-9.401H17.234z" style="fill:#0f3160;fill-opacity:1;fill-rule:nonzero;stroke:none;stroke-width:3.10882" transform="matrix(1.4 0 0 1.4 376.112 134.62)"/><path d="M0 0h3.279v-6.256L9.328 0h3.962L7.22-6.325l6.346-8.583H9.627L5.005-8.562 3.279-10.35v-4.558H0Z" style="fill:#0f3160;fill-opacity:1;fill-rule:nonzero;stroke:none" transform="matrix(4.35234 0 0 -4.35234 110.058 317.56)"/><path d="M0 0h3.023l6.944-9.179V0h3.28v-14.908h-2.79l-7.17 9.477v-9.477H0Z" style="fill:#0f3160;fill-opacity:1;fill-rule:nonzero;stroke:none" transform="matrix(4.35234 0 0 -4.35234 262.118 317.56)"/><path d="M0 0h-5.144v3.024H8.423V0H3.279v-11.884H0Z" style="fill:#0f3160;fill-opacity:1;fill-rule:nonzero;stroke:none" transform="matrix(4.35234 0 0 -4.35234 349.964 330.72)"/><path d="M0 0h3.279v-5.899h6.924V0h3.28v-14.908h-3.28v5.985H3.279v-5.985H0Z" style="fill:#0f3160;fill-opacity:1;fill-rule:nonzero;stroke:none" transform="matrix(4.35234 0 0 -4.35234 531.258 317.559)"/><path d="M2.874 177.018h42.174v-9.401H2.874Z" style="fill:#4dc6f4;fill-opacity:1;fill-rule:nonzero;stroke:none;stroke-width:3.10882" transform="matrix(1.4 0 0 1.4 376.112 134.62)"/><path d="M10.056 158.542H52.23v-9.4H10.056z" style="fill:#1082ce;fill-opacity:1;fill-rule:nonzero;stroke:none;stroke-width:3.10882" transform="matrix(1.4 0 0 1.4 376.112 134.62)"/><path d="M-143.576 167.617h42.174v9.4h-42.174z" style="fill:#0f3160;fill-opacity:1;fill-rule:nonzero;stroke:none;stroke-width:3.10882" transform="matrix(1.4 0 0 1.4 376.112 134.62)"/><path d="M-136.398 149.144h42.175v9.401h-42.175z" style="fill:#1082ce;fill-opacity:1;fill-rule:nonzero;stroke:none;stroke-width:3.10882" transform="matrix(1.4 0 0 1.4 376.112 134.62)"/><path d="M-129.216 130.672h42.174v9.4h-42.174z" style="fill:#4dc6f4;fill-opacity:1;fill-rule:nonzero;stroke:none;stroke-width:3.10882" transform="matrix(1.4 0 0 1.4 376.112 134.62)"/><path d="m0 0-2.05 2.071C-3.244.985-4.308.291-6.044.291c-2.605 0-4.406 2.17-4.406 4.775v.044c0 2.605 1.845 4.732 4.406 4.732 1.52 0 2.714-.651 3.886-1.715l1.944 2.242c-1.209 1.329-3.471 2.556-5.808 2.556-1.07 0-2.06-.194-2.958-.531a7.893 7.893 0 0 1-4.965-7.328c0-3.769 2.643-6.916 6.176-7.701a8.28 8.28 0 0 1 1.617-.157c.675 0 1.286.058 1.846.164A7.882 7.882 0 0 1 0 0" style="fill:#0f3160;fill-opacity:1;fill-rule:nonzero;stroke:none" transform="matrix(4.35234 0 0 -4.35234 522.434 372.052)"/><path d="M0 0h-6.547v1.299l3.09 3.293c.425.463.738.867.942 1.213.203.345.304.674.304.984 0 .423-.106.757-.321 1-.214.242-.52.364-.918.364-.428 0-.767-.148-1.014-.443-.247-.295-.37-.683-.37-1.165h-1.902c0 .582.138 1.114.416 1.595.278.481.671.858 1.178 1.131.506.274 1.082.41 1.725.41.983 0 1.748-.235 2.292-.708.544-.473.817-1.14.817-2 0-.473-.123-.954-.368-1.443-.244-.491-.664-1.061-1.26-1.713l-2.169-2.289H0Z" style="fill:#0f3160;fill-opacity:1;fill-rule:nonzero;stroke:none" transform="matrix(4.35234 0 0 -4.35234 311.898 453.83)"/><path d="M0 0c0 .792-.108 1.369-.325 1.73-.216.361-.554.541-1.013.541-.446 0-.775-.171-.987-.515-.212-.343-.324-.881-.338-1.612v-2.323c0-.78.105-1.359.318-1.738.212-.378.552-.567 1.02-.567.464 0 .798.182 1.004.545.206.363.312.919.321 1.668zm1.896-1.932c0-1.321-.273-2.331-.82-3.031-.547-.7-1.347-1.05-2.401-1.05-1.04 0-1.836.344-2.387 1.031-.552.686-.833 1.669-.847 2.951v1.758c0 1.334.277 2.346.83 3.036.553.691 1.351 1.037 2.391 1.037 1.041 0 1.836-.342 2.388-1.027.551-.684.832-1.667.846-2.948Z" style="fill:#0f3160;fill-opacity:1;fill-rule:nonzero;stroke:none" transform="matrix(4.35234 0 0 -4.35234 340.184 428.233)"/><path d="M0 0h-6.546v1.299l3.09 3.293c.424.463.737.867.941 1.213.203.345.304.674.304.984 0 .423-.106.757-.321 1-.214.242-.52.364-.918.364-.428 0-.767-.148-1.014-.443-.247-.295-.37-.683-.37-1.165h-1.902c0 .582.138 1.114.417 1.595.277.481.67.858 1.177 1.131.506.274 1.082.41 1.725.41.983 0 1.748-.235 2.292-.708.544-.473.817-1.14.817-2 0-.473-.123-.954-.368-1.443-.244-.491-.664-1.061-1.259-1.713l-2.17-2.289H0Z" style="fill:#0f3160;fill-opacity:1;fill-rule:nonzero;stroke:none" transform="matrix(4.35234 0 0 -4.35234 385.998 453.83)"/><path d="M0 0h-1.896v7.307l-2.262-.703v1.543l3.955 1.416H0Z" style="fill:#0f3160;fill-opacity:1;fill-rule:nonzero;stroke:none" transform="matrix(4.35234 0 0 -4.35234 411.092 453.83)"/><path d="m0 0 1.435-.84 3.1.746.29-1.209-9.171-2.21-.29 1.21 4.534 1.092-5.515 2.983-.353 1.461L-1.051.6l4.184 5.127.348-1.45Z" style="fill:#fff;fill-opacity:1;fill-rule:nonzero;stroke:none" transform="matrix(4.35234 0 0 -4.35234 49.916 425.31)"/><path d="M0 0c.771.092 1.37.347 1.793.76.425.415.601.922.528 1.523-.073.604-.367 1.056-.884 1.355-.516.299-1.202.398-2.055.295-.763-.093-1.361-.348-1.79-.767a1.737 1.737 0 0 1-.537-1.53c.071-.588.362-1.032.873-1.338C-1.562-.005-.872-.104 0 0m0-1.214c-.68-.082-1.311-.021-1.886.181a3.024 3.024 0 0 0-1.396.967c-.353.443-.567.971-.641 1.585-.113.947.121 1.753.707 2.418.586.664 1.423 1.061 2.513 1.192l.085.011c.676.081 1.301.025 1.87-.17a2.971 2.971 0 0 0 1.39-.961c.36-.447.577-.983.651-1.61.113-.942-.123-1.747-.708-2.411-.587-.665-1.419-1.061-2.5-1.191Z" style="fill:#fff;fill-opacity:1;fill-rule:nonzero;stroke:none" transform="matrix(4.35234 0 0 -4.35234 48.071 395.342)"/><path d="M0 0a3.672 3.672 0 0 1-.035-.59c.012-.786.357-1.313 1.031-1.583l4.975.086.021-1.199-7.009-.12-.02 1.165.809.034c-.633.382-.956.934-.968 1.655-.003.233.023.411.082.534z" style="fill:#fff;fill-opacity:1;fill-rule:nonzero;stroke:none" transform="matrix(4.35234 0 0 -4.35234 33.832 346.873)"/><path d="M0 0a1.598 1.598 0 0 1 .437-1.255c.326-.352.804-.591 1.432-.715l.258 3.502-.091.006C1.427 1.549.943 1.42.589 1.151.233.883.035.5 0 0m6.278-.315c-.07-.947-.437-1.696-1.104-2.244-.665-.549-1.521-.784-2.564-.707l-.219.016c-.694.051-1.304.23-1.829.535A3.102 3.102 0 0 0-.635-1.509 2.798 2.798 0 0 0-.982.072c.066.909.419 1.593 1.054 2.053.636.459 1.511.648 2.627.566l.498-.037-.349-4.736c.689-.033 1.262.127 1.715.481.452.354.7.829.744 1.424.032.422-.028.785-.178 1.091-.152.306-.36.579-.629.82l.623.687C5.98 1.769 6.365.857 6.278-.315" style="fill:#fff;fill-opacity:1;fill-rule:nonzero;stroke:none" transform="matrix(4.35234 0 0 -4.35234 33.998 324.81)"/><path d="M0 0c.074.367.049.737-.077 1.104a1.744 1.744 0 0 1-.602.866l-1.411.279-.182-.923c-.285-1.44-.005-2.243.837-2.41.37-.073.682-.007.938.197.257.206.423.501.497.887m1.284 1.773c-.149-.041-.402-.048-.759-.021.461-.66.617-1.369.467-2.127C.857-1.053.556-1.571.085-1.93a1.9 1.9 0 0 0-1.586-.364c-.716.143-1.219.524-1.509 1.148-.287.623-.334 1.427-.138 2.415l.225 1.144-.54.107c-.41.081-.763.022-1.055-.174-.292-.199-.486-.537-.58-1.015-.084-.42-.047-.792.11-1.119.157-.325.384-.517.684-.578l-.233-1.181c-.343.068-.651.255-.923.562-.27.306-.459.686-.564 1.14a3.433 3.433 0 0 0-.007 1.432c.155.792.476 1.374.964 1.746.483.37 1.075.495 1.773.375l3.165-.625c.632-.125 1.15-.144 1.554-.056l.101-.021Z" style="fill:#fff;fill-opacity:1;fill-rule:nonzero;stroke:none" transform="matrix(4.35234 0 0 -4.35234 61.124 294.171)"/><path d="m0 0-.446-1.161-8.806 3.382.444 1.161z" style="fill:#fff;fill-opacity:1;fill-rule:nonzero;stroke:none" transform="matrix(4.35234 0 0 -4.35234 80.038 243.263)"/><path d="m0 0 .802-.364C.444.418.459 1.194.852 1.965c.669 1.321 1.752 1.61 3.249.866L8.233.735 7.691-.334 3.553 1.764c-.453.225-.838.291-1.156.199-.319-.094-.586-.354-.802-.781A1.726 1.726 0 0 1 1.409.128c.053-.356.19-.683.417-.982l4.455-2.259-.543-1.069-6.252 3.17z" style="fill:#fff;fill-opacity:1;fill-rule:nonzero;stroke:none" transform="matrix(4.35234 0 0 -4.35234 60.669 211.264)"/><path d="M0 0c-.27.181-.547.22-.831.117-.285-.103-.65-.37-1.096-.802-.446-.431-.844-.746-1.192-.939-.351-.196-.676-.293-.979-.296a1.549 1.549 0 0 0-.885.285c-.477.321-.745.793-.804 1.418-.059.625.12 1.252.543 1.879.442.661.972 1.081 1.589 1.263.616.182 1.19.095 1.719-.261l-.67-1.001c-.273.184-.585.225-.938.126s-.647-.325-.883-.676C-4.67.751-4.781.415-4.76.104a.901.901 0 0 1 .412-.722c.241-.161.487-.188.736-.079s.595.374 1.042.796c.443.421.846.736 1.207.94.361.205.7.309 1.017.313.316.002.631-.101.944-.309.519-.349.797-.838.831-1.464.035-.626-.17-1.272-.615-1.934C.5-2.822.141-3.18-.265-3.428a2.425 2.425 0 0 0-1.255-.378 2.007 2.007 0 0 0-1.165.341l.668.995c.344-.206.699-.25 1.063-.132.362.119.682.383.955.791.253.377.379.73.379 1.06.002.33-.126.58-.38.751" style="fill:#fff;fill-opacity:1;fill-rule:nonzero;stroke:none" transform="matrix(4.35234 0 0 -4.35234 105.901 178.322)"/><path d="m0 0 1.309-1.083.834 1.01.713-.591-.834-1.008 3.354-2.774c.218-.179.417-.268.601-.268.181 0 .362.108.543.325.086.106.188.269.302.489l.744-.616a3.459 3.459 0 0 0-.487-.792c-.34-.412-.723-.621-1.145-.624-.424-.002-.865.185-1.325.565L1.258-2.596.445-3.58l-.714.59.814.985-1.309 1.08z" style="fill:#fff;fill-opacity:1;fill-rule:nonzero;stroke:none" transform="matrix(4.35234 0 0 -4.35234 97.945 139.89)"/><path d="m0 0-.828-.866-5.065 4.847.829.866zm-7.304 5.196a.725.725 0 0 0-.232.47c-.015.179.058.352.221.521.16.168.332.25.511.244a.708.708 0 0 0 .482-.209.687.687 0 0 0 .225-.468c.011-.176-.065-.349-.227-.517-.16-.169-.329-.252-.504-.247a.7.7 0 0 0-.476.206" style="fill:#fff;fill-opacity:1;fill-rule:nonzero;stroke:none" transform="matrix(4.35234 0 0 -4.35234 142.003 147.59)"/><path d="m0 0 1.138-1.261.97.878.621-.688-.971-.876L4.674-5.18c.189-.208.374-.326.555-.352.181-.027.375.054.583.242.103.094.225.24.372.441l.646-.717a3.473 3.473 0 0 0-.598-.713c-.395-.358-.804-.509-1.223-.451-.42.058-.828.31-1.228.751L.869-2.751l-.948-.855-.621.688.947.855L-.89-.803z" style="fill:#fff;fill-opacity:1;fill-rule:nonzero;stroke:none" transform="matrix(4.35234 0 0 -4.35234 131.293 105.41)"/><path d="M0 0c-.053-.719-.442-1.344-1.171-1.876-.603-.442-1.191-.603-1.762-.483-.573.119-1.111.521-1.617 1.205l-2.694 3.68.967.708L-3.603-.42c.628-.857 1.29-1.031 1.988-.522.739.543 1.029 1.177.87 1.905l-3.011 4.116.967.708L1.35.129.432-.543Z" style="fill:#fff;fill-opacity:1;fill-rule:nonzero;stroke:none" transform="matrix(4.35234 0 0 -4.35234 182.462 109.248)"/><path d="m0 0 .857-1.465 1.129.66.469-.8-1.131-.66 2.197-3.758c.142-.243.299-.395.471-.458.172-.062.378-.022.619.119.121.07.272.188.454.355l.489-.834a3.546 3.546 0 0 0-.731-.576c-.462-.27-.892-.333-1.29-.192-.399.142-.749.472-1.05.986L.29-2.871l-1.101-.643-.468.801 1.102.643-.858 1.466z" style="fill:#fff;fill-opacity:1;fill-rule:nonzero;stroke:none" transform="matrix(4.35234 0 0 -4.35234 185.995 65.794)"/><path d="M0 0a1.603 1.603 0 0 1-.885-.99c-.15-.457-.128-.99.068-1.599L2.371-1.12l-.037.083c-.287.538-.633.898-1.04 1.08C.887.223.456.21 0 0m2.767-5.645c-.864-.397-1.697-.438-2.5-.121-.8.317-1.421.95-1.859 1.9l-.092.199c-.292.633-.429 1.252-.418 1.86.013.607.169 1.15.475 1.631.304.48.71.837 1.215 1.07.828.382 1.598.406 2.308.071.71-.332 1.298-1.007 1.766-2.023l.21-.454L-.441-3.5C-.136-4.12.28-4.543.811-4.767c.529-.225 1.064-.212 1.605.037.384.177.674.406.869.687.194.279.332.595.411.945l.906-.211c-.158-1.066-.769-1.844-1.835-2.336" style="fill:#fff;fill-opacity:1;fill-rule:nonzero;stroke:none" transform="matrix(4.35234 0 0 -4.35234 218.123 61.684)"/><path d="M0 0c.178-.756.497-1.322.958-1.697.459-.375.981-.493 1.57-.354.593.141 1.009.485 1.248 1.031.239.548.258 1.24.061 2.076-.178.748-.497 1.313-.964 1.693-.465.38-.991.5-1.58.361a1.723 1.723 0 0 1-1.23-1.017C-.183 1.551-.203.854 0 0m-1.206-.139c-.157.668-.169 1.301-.034 1.897.136.596.405 1.094.804 1.494.402.402.902.674 1.502.817.93.219 1.757.075 2.483-.432.725-.507 1.215-1.294 1.468-2.362l.02-.082c.157-.665.172-1.29.042-1.878a2.976 2.976 0 0 0-.8-1.49c-.402-.407-.911-.682-1.525-.827-.925-.22-1.75-.076-2.476.431-.726.508-1.215 1.292-1.465 2.351z" style="fill:#fff;fill-opacity:1;fill-rule:nonzero;stroke:none" transform="matrix(4.35234 0 0 -4.35234 271.214 55.018)"/><path d="m0 0-.854 6.024-1.097-.156-.13.917 1.097.155-.1.714c-.106.743.011 1.346.352 1.808.338.464.873.746 1.6.85.273.038.55.04.829.007l.074-.966a3.382 3.382 0 0 1-.652-.033c-.385-.054-.666-.21-.843-.465C.098 8.601.04 8.264.098 7.843l.105-.734 1.482.211.128-.918-1.48-.211.855-6.023Z" style="fill:#fff;fill-opacity:1;fill-rule:nonzero;stroke:none" transform="matrix(4.35234 0 0 -4.35234 305.535 63.134)"/><path d="m0 0-4.085.164-.135-3.34 4.746-.19-.041-1.017-5.988.241.378 9.425 5.924-.238-.04-1.016-4.682.187-.12-3.035 4.084-.164Z" style="fill:#fff;fill-opacity:1;fill-rule:nonzero;stroke:none" transform="matrix(4.35234 0 0 -4.35234 373.702 41.517)"/><path d="m0 0-.105-.875c.637.576 1.382.794 2.235.652 1.461-.241 2.061-1.188 1.802-2.84l-.758-4.569-1.183.196.759 4.576c.077.5.025.886-.159 1.163-.184.276-.512.453-.987.53a1.73 1.73 0 0 1-1.06-.138A2.113 2.113 0 0 1-.267-2l-.816-4.927-1.183.197L-1.118.185z" style="fill:#fff;fill-opacity:1;fill-rule:nonzero;stroke:none" transform="matrix(4.35234 0 0 -4.35234 395.808 32.487)"/><path d="M0 0a1.598 1.598 0 0 1-1.318-.161c-.414-.245-.748-.662-1.003-1.248l3.367-.994.026.086c.139.595.116 1.093-.071 1.499C.813-.415.479-.142 0 0m-1.637-6.069c-.91.268-1.564.786-1.96 1.554-.393.767-.444 1.652-.147 2.655l.061.211c.199.667.5 1.225.91 1.674a3.1 3.1 0 0 0 1.431.914A2.79 2.79 0 0 0 .277.944C1.151.687 1.747.198 2.062-.521c.314-.72.313-1.615-.003-2.687l-.141-.479-4.555 1.345c-.179-.668-.144-1.261.107-1.779.25-.516.66-.86 1.232-1.029.406-.12.774-.139 1.106-.056.33.083.642.229.933.441l.54-.755c-.819-.699-1.791-.882-2.918-.549" style="fill:#fff;fill-opacity:1;fill-rule:nonzero;stroke:none" transform="matrix(4.35234 0 0 -4.35234 440.713 46.2)"/><path d="M0 0a3.636 3.636 0 0 1-.526.268c-.728.301-1.347.197-1.864-.313l-1.909-4.596-1.106.46 2.688 6.474 1.078-.447-.293-.756c.603.428 1.24.503 1.905.226.215-.089.366-.185.455-.287Z" style="fill:#fff;fill-opacity:1;fill-rule:nonzero;stroke:none" transform="matrix(4.35234 0 0 -4.35234 479.607 61.54)"/><path d="M0 0c-.375-.696-.527-1.319-.456-1.87.072-.551.363-.964.877-1.241.665-.358 1.316-.319 1.955.118L3.894-.176c-.008.765-.333 1.32-.98 1.668-.514.277-1.021.294-1.525.05C.885 1.297.421.785 0 0m-.998.692C-.479 1.654.156 2.299.906 2.629c.751.329 1.493.295 2.228-.1.754-.405 1.198-.988 1.334-1.748l.418.657L5.85.92 2.607-5.104c-.43-.8-1.005-1.301-1.726-1.506-.721-.205-1.482-.094-2.28.337a3.6 3.6 0 0 0-1.154.988c-.323.42-.509.855-.554 1.307l.888.338c.153-.803.556-1.38 1.209-1.732.513-.277.992-.347 1.434-.212.443.134.805.462 1.088.988l.286.531c-.685-.261-1.391-.194-2.121.2-.724.388-1.152.994-1.285 1.817-.132.822.069 1.736.61 2.74" style="fill:#fff;fill-opacity:1;fill-rule:nonzero;stroke:none" transform="matrix(4.35234 0 0 -4.35234 487.3 77.306)"/><path d="m0 0 4.356 3.361 1.051-.738-6.96-5c-1.026-.704-1.93-.783-2.707-.236l-.174.147-.317.326.558.795.25-.207c.333-.234.639-.348.919-.345.28.004.605.143.976.415l.626.43L.519 6.059l1.07-.754z" style="fill:#fff;fill-opacity:1;fill-rule:nonzero;stroke:none" transform="matrix(4.35234 0 0 -4.35234 521.278 106.264)"/><path d="m0 0-2.103 2.183-6.06-5.842-.859.891 6.059 5.841-2.099 2.178.733.707L.733.706z" style="fill:#fff;fill-opacity:1;fill-rule:nonzero;stroke:none" transform="matrix(4.35234 0 0 -4.35234 596.266 134.53)"/><path d="M0 0a1.593 1.593 0 0 1-1.168.627c-.48.039-.994-.107-1.54-.44l2.18-2.754.071.055c.456.405.724.827.805 1.265C.428-.809.312-.393 0 0m-4.835-4.017c-.59.746-.825 1.545-.704 2.4.118.855.588 1.607 1.408 2.255l.173.136c.546.432 1.115.714 1.707.845.593.13 1.16.104 1.698-.078A2.817 2.817 0 0 0 .773.611c.566-.715.769-1.457.613-2.226-.157-.769-.674-1.5-1.552-2.194l-.392-.31-2.947 3.724c-.531-.442-.843-.947-.937-1.514-.093-.566.045-1.084.414-1.551.262-.332.552-.56.871-.684a2.724 2.724 0 0 1 1.016-.178l.008-.927c-1.072-.1-1.973.311-2.702 1.232" style="fill:#fff;fill-opacity:1;fill-rule:nonzero;stroke:none" transform="matrix(4.35234 0 0 -4.35234 599.025 153.86)"/><path d="M0 0c.224-.365.526-.617.915-.756a1.369 1.369 0 0 1 1.107.051l.588-.969a2.19 2.19 0 0 0-1.195-.242c-.442.031-.867.17-1.271.421-.407.252-.733.58-.978.987-.496.815-.62 1.629-.367 2.443.251.813.849 1.504 1.795 2.08l.171.105c.583.353 1.167.561 1.751.624a2.87 2.87 0 0 0 1.618-.28c.494-.247.907-.644 1.24-1.191.407-.671.545-1.353.413-2.041C5.656.543 5.278-.012 4.653-.432l-.589.969c.369.264.597.606.688 1.021.089.415.016.816-.221 1.204-.316.521-.748.81-1.296.867-.549.059-1.178-.127-1.886-.558l-.195-.117C.465 2.534.02 2.069-.18 1.559-.381 1.047-.319.527 0 0" style="fill:#fff;fill-opacity:1;fill-rule:nonzero;stroke:none" transform="matrix(4.35234 0 0 -4.35234 601.834 198.439)"/><path d="M0 0c.813-.216 1.395-.711 1.745-1.486.61-1.351.155-2.376-1.361-3.076L-3.839-6.47l-.494 1.093 4.229 1.91c.458.211.751.471.879.777.126.306.091.678-.105 1.114a1.745 1.745 0 0 1-.706.806 2.12 2.12 0 0 1-1.026.29l-4.553-2.057-.493 1.092 9.069 4.097.493-1.092Z" style="fill:#fff;fill-opacity:1;fill-rule:nonzero;stroke:none" transform="matrix(4.35234 0 0 -4.35234 636.292 213.55)"/><path d="m0 0-.833-.29C-.033-.61.49-1.183.738-2.011 1.163-3.43.578-4.386-1.02-4.878l-4.438-1.329-.345 1.148 4.445 1.331c.483.15.807.367.974.654.166.286.181.659.043 1.119-.11.373-.307.669-.591.892a2.115 2.115 0 0 1-.979.423l-4.784-1.433-.345 1.148 6.716 2.011z" style="fill:#fff;fill-opacity:1;fill-rule:nonzero;stroke:none" transform="matrix(4.35234 0 0 -4.35234 655.307 251.281)"/><path d="M0 0c-.766-.129-1.353-.41-1.755-.844-.404-.434-.557-.95-.456-1.546.103-.601.418-1.038.949-1.312.53-.274 1.218-.34 2.066-.196.757.128 1.342.412 1.752.852.41.439.565.957.464 1.553a1.725 1.725 0 0 1-.936 1.294C1.561.081.865.147 0 0m-.059 1.213c.678.115 1.308.085 1.895-.09A3.018 3.018 0 0 0 3.274.222c.375-.425.615-.943.717-1.551.158-.941-.039-1.757-.594-2.449-.551-.692-1.37-1.129-2.451-1.311l-.084-.015c-.673-.114-1.298-.085-1.875.081a2.987 2.987 0 0 0-1.436.894c-.379.429-.621.955-.726 1.577-.158.936.039 1.751.593 2.441.553.692 1.366 1.128 2.439 1.31z" style="fill:#fff;fill-opacity:1;fill-rule:nonzero;stroke:none" transform="matrix(4.35234 0 0 -4.35234 649.464 290.446)"/><path d="m0 0-.089 1.196 9.924.738.09-1.196Z" style="fill:#fff;fill-opacity:1;fill-rule:nonzero;stroke:none" transform="matrix(4.35234 0 0 -4.35234 639.624 330.716)"/><path d="M0 0c-.777.018-1.406-.148-1.885-.498-.477-.351-.725-.828-.738-1.431-.014-.611.214-1.098.683-1.469.467-.368 1.132-.563 1.992-.582.769-.017 1.395.15 1.882.505.484.354.734.833.748 1.437A1.723 1.723 0 0 1 2.008-.59C1.546-.216.877-.02 0 0m.17 1.201c.685-.015 1.301-.163 1.844-.446A3.026 3.026 0 0 0 3.257-.401a3.079 3.079 0 0 0 .41-1.658c-.023-.955-.371-1.719-1.044-2.294-.674-.575-1.56-.848-2.656-.825l-.085.002c-.683.016-1.29.16-1.827.434a2.971 2.971 0 0 0-1.241 1.15c-.291.493-.429 1.053-.416 1.684.022.95.37 1.712 1.044 2.287.673.575 1.555.85 2.643.824z" style="fill:#fff;fill-opacity:1;fill-rule:nonzero;stroke:none" transform="matrix(4.35234 0 0 -4.35234 655.265 347.976)"/><path d="M0 0c-.782.111-1.419.038-1.911-.22-.492-.257-.778-.675-.861-1.252-.107-.748.156-1.345.786-1.794l3.169-.447c.715.269 1.122.768 1.226 1.495.081.577-.079 1.06-.483 1.449C1.523-.381.883-.124 0 0m.305 1.174C1.387 1.022 2.212.65 2.779.059c.57-.591.796-1.299.678-2.124-.119-.847-.512-1.466-1.178-1.856l.762-.166-.153-1.084-6.776.958c-.898.127-1.567.493-2.009 1.1-.442.605-.6 1.357-.473 2.255.07.501.247.975.529 1.423.28.449.627.774 1.032.974l.627-.717C-4.884.402-5.285-.176-5.39-.912c-.081-.578.018-1.049.297-1.42.28-.369.714-.594 1.304-.678l.598-.084c-.482.552-.663 1.239-.547 2.06.115.812.536 1.424 1.259 1.833.727.409 1.654.535 2.784.375" style="fill:#fff;fill-opacity:1;fill-rule:nonzero;stroke:none" transform="matrix(4.35234 0 0 -4.35234 653.242 384.833)"/><path d="m0 0 4.687-2.883-.317-1.243L-2.772.608c-1.023.711-1.416 1.528-1.181 2.448l.075.215.193.413.942-.241-.107-.307c-.101-.394-.099-.721.004-.981.103-.261.347-.515.734-.766l.624-.435 7.336.708L5.524.394Z" style="fill:#fff;fill-opacity:1;fill-rule:nonzero;stroke:none" transform="matrix(4.35234 0 0 -4.35234 638.468 424.359)"/></svg>