<svg xmlns="http://www.w3.org/2000/svg" width="525.33289pt" height="525pt" fill-rule="evenodd" viewBox="0 0 525.33288 524.99999"><path d="M183.456 405.426c31.248 0 56.592 25.272 56.592 56.52 0 31.176-25.344 56.52-56.592 56.52v-16.488c22.176 0 40.104-17.928 40.104-40.032 0-22.176-17.928-40.104-40.104-40.104zm0 113.04c-31.248 0-56.52-25.344-56.52-56.52 0-31.248 25.272-56.52 56.52-56.52v16.416c-22.104 0-40.104 17.928-40.104 40.104 0 22.104 18 40.032 40.104 40.032z" style="fill:#fff;stroke:none" transform="matrix(4.62376 0 0 4.62376 -585.756 -1873.427)"/><path d="M183.456 421.842c22.176 0 40.104 17.928 40.104 40.104 0 22.104-17.928 40.032-40.104 40.032-22.104 0-40.104-17.928-40.104-40.032 0-22.176 18-40.104 40.104-40.104z" style="fill:#fff;stroke:none" transform="matrix(4.62376 0 0 4.62376 -585.756 -1873.427)"/><path d="M183.456 518.61c31.32 0 56.736-25.416 56.736-56.664 0-31.32-25.416-56.664-56.736-56.664v.504c31.032 0 56.232 25.128 56.232 56.16 0 31.032-25.2 56.16-56.232 56.16zm0-113.328c-31.32 0-56.664 25.344-56.664 56.664 0 31.248 25.344 56.664 56.664 56.664v-.504c-31.032 0-56.16-25.128-56.16-56.16 0-31.032 25.128-56.16 56.16-56.16z" style="fill:#2c2c2b;stroke:none" transform="matrix(4.62376 0 0 4.62376 -585.756 -1873.427)"/><path d="M183.456 518.61c31.32 0 56.736-25.416 56.736-56.664 0-31.32-25.416-56.664-56.736-56.664-31.32 0-56.664 25.344-56.664 56.664 0 31.248 25.344 56.664 56.664 56.664zm0-.504c31.032 0 56.232-25.128 56.232-56.16 0-31.032-25.2-56.16-56.232-56.16s-56.16 25.128-56.16 56.16c0 31.032 25.128 56.16 56.16 56.16z" style="fill:none;stroke:#2c2c2b;stroke-width:.216" transform="matrix(4.62376 0 0 4.62376 -585.756 -1873.427)"/><path d="M183.456 502.338c22.32 0 40.392-18.072 40.392-40.392 0-22.32-18.072-40.464-40.392-40.464v.36c22.104 0 40.104 17.928 40.104 40.104 0 22.104-18 40.032-40.104 40.032zm0-80.856c-22.32 0-40.392 18.144-40.392 40.464s18.072 40.392 40.392 40.392v-.36c-22.104 0-40.032-17.928-40.032-40.032 0-22.176 17.928-40.104 40.032-40.104z" style="fill:#2c2c2b;stroke:none" transform="matrix(4.62376 0 0 4.62376 -585.756 -1873.427)"/><path d="M183.456 502.338c22.32 0 40.392-18.072 40.392-40.392 0-22.32-18.072-40.464-40.392-40.464-22.32 0-40.392 18.144-40.392 40.464s18.072 40.392 40.392 40.392zm0-.36c22.104 0 40.104-17.928 40.104-40.032 0-22.176-18-40.104-40.104-40.104s-40.032 17.928-40.032 40.104c0 22.104 17.928 40.032 40.032 40.032z" style="fill:none;stroke:#2c2c2b;stroke-width:.216" transform="matrix(4.62376 0 0 4.62376 -585.756 -1873.427)"/><path d="M134.784 457.41c.504 0 .936.432.936.936a.953.953 0 0 1-.936.936c-.576 0-1.008-.432-1.008-.936s.432-.936 1.008-.936zM232.2 457.41c.504 0 .936.432.936.936a.953.953 0 0 1-.936.936.953.953 0 0 1-.936-.936c0-.504.432-.936.936-.936z" style="fill:#2c2c2b;stroke:none" transform="matrix(4.62376 0 0 4.62376 -585.756 -1873.427)"/><path d="M183.456 447.69c7.992 0 14.4 6.48 14.4 14.4a14.35 14.35 0 0 1-14.4 14.4c-7.92 0-14.4-6.408-14.4-14.4 0-7.92 6.48-14.4 14.4-14.4z" style="fill:#fff;stroke:none" transform="matrix(4.62376 0 0 4.62376 -585.756 -1873.427)"/><path d="M166.176 478.434c-4.104-4.248-6.552-10.08-6.552-16.344 0-5.4 1.8-10.368 4.824-14.4h-.144c-2.592 0-4.68-2.088-4.68-4.752a4.67 4.67 0 0 1 4.68-4.68h14.4v-4.824a4.747 4.747 0 0 1 4.752-4.752 4.747 4.747 0 0 1 4.752 4.752v5.256c10.872 2.232 19.152 11.88 19.152 23.4 0 6.264-2.52 12.024-6.624 16.344l-4.752-7.272c1.8-2.592 2.88-5.688 2.88-9.072 0-8.496-6.912-15.408-15.408-15.408-8.496 0-15.408 6.912-15.408 15.408 0 3.384 1.08 6.48 2.952 9.072z" style="fill:#d6125e;stroke:none" transform="matrix(4.62376 0 0 4.62376 -585.756 -1873.427)"/><path d="m171.576 470.226 11.808-18.072 12.6 19.008 11.376 17.208h-10.512l-3.168-4.824a23.203 23.203 0 0 1-10.224 2.376c-3.6 0-7.056-.864-10.152-2.304l-3.096 4.752h-10.512L171 471.162c2.88 4.032 7.56 6.336 12.456 6.336 1.872 0 3.744-.288 5.472-1.008l-5.544-8.352-4.896 7.488c-2.88-1.08-5.256-2.952-6.912-5.4z" style="fill:#0068aa;stroke:none" transform="matrix(4.62376 0 0 4.62376 -585.756 -1873.427)"/><path d="M228.6 452.73v-1.656c.648-.072 1.224-.216 1.872-.36l3.312-1.008-2.016-6.984 1.368-.36 2.448 8.64-4.104 1.224c-.792.216-1.584.36-2.376.504h-.504zm0-3.24 2.304-.648-.504-1.728-1.8.576zm0-3.24 1.44-.432-.432-1.656-1.008.288zm0-1.8v1.8l-3.456 1.008.432 1.296 3.024-.864v1.8l-2.592.72 1.08 3.744-1.152.36-2.808-9.648 1.224-.36.36 1.296zm0 6.624c-.072.072-.216.072-.288.072-.648.072-1.296.144-1.944.072l.432 1.656c.576 0 1.224-.072 1.8-.144zm-6.264-17.208v-2.304l3.096-2.664 1.152 1.296-2.016 1.728.792.864-1.008.864-.792-.864zm0-4.32a1.755 1.755 0 0 0 0-.864zm0-1.368.864 1.008.936-.792-1.584-1.8.576-.504-.792-.864zm0-2.952v2.952l-.288-.36c.144.288.288.648.288.864v1.008c-.144.504-.504.864-1.08 1.152-.144.072-.288.144-.432.144v-1.944c.144-.216.216-.432.216-.648 0-.288-.072-.504-.216-.792v-3.024l.576.72.576-.504zm0 6.336v2.304l-.576.504-.936-1.08v-.432zm-1.512 3.6v-.72l.36.432zm0-10.584v3.024c-.072-.144-.216-.288-.36-.432-.288-.288-.576-.504-.864-.576v-1.368c.144.144.288.216.432.288l-.432-.504v-1.368l.216-.216zm0 4.464v1.944c-.36.072-.792.072-1.224-.072v-1.44h.144c.36.072.648-.072.864-.216l.216-.216zm0 3.816v.432l-.216-.216zm0 1.584-1.224-1.44v3.24l1.224-1.08zm-1.224-10.8v1.368l-.72-.792zm0 1.584c-.504-.216-.936-.288-1.296-.216-.504.072-.936.36-1.296.864-.288.504-.432 1.008-.36 1.656.144.72.432 1.44 1.08 2.088.576.648 1.152 1.08 1.872 1.296v-1.44c-.36-.072-.72-.288-1.008-.648-.288-.36-.504-.792-.432-1.152 0-.36.144-.648.36-.864.288-.216.576-.36.864-.288.072 0 .144 0 .216.072zm0 7.776v3.24l-1.512 1.296-1.152-1.296 2.16-1.872-4.608-5.256.936-.864zm-36.072-12.672v-1.224c.864-.072 1.584-.216 2.088-.432.432-.216.648-.504.648-.792 0-.288-.288-.576-.72-.792-.504-.216-1.152-.36-2.016-.288v-1.296c1.44 0 2.52.216 3.384.72.72.432 1.08.936 1.08 1.656 0 .648-.36 1.224-1.08 1.656-.792.504-1.872.792-3.312.792zm0-6.048v-1.728c.504.504 1.08 1.008 1.872 1.296l-.792 1.008c-.36-.216-.72-.36-1.08-.576zm2.376-5.544.144 6.408 1.728-.072-.072-2.448h1.224l-.072-1.296h-1.152l-.072-2.664zm18.432 4.536-3.384-1.512-3.384 7.632c-.216.36-.216.72-.144 1.08.144.288.432.504.936.72l3.024 1.368-.576 1.152 1.584.72 2.232-4.968 1.224.504-2.232 4.968 1.584.72 4.608-10.224-1.584-.72-1.872 4.104-1.152-.504 1.8-4.104-1.584-.72-3.528 7.92-2.808-1.224 2.952-6.624 1.8.864zm-20.808-.72v1.728c-.288-.216-.504-.36-.792-.576-.576-.504-.936-.936-1.152-1.368-.288.432-.648.864-1.224 1.368-.504.504-1.152.864-1.728 1.224l-.792-.936a4.719 4.719 0 0 0 1.872-1.656c.648-.936.936-2.016.936-3.456h1.728c0 1.368.36 2.52 1.008 3.384.072.072.072.216.144.288zm0 2.952v1.296h-.072c-.864 0-1.512.144-1.944.36-.432.216-.648.504-.648.792 0 .36.216.576.648.792.504.216 1.152.36 2.016.36v1.224c-1.368 0-2.448-.216-3.312-.72-.72-.432-1.08-.936-1.08-1.584 0-.72.36-1.224 1.08-1.728.792-.504 1.872-.792 3.312-.792zm-18.864 8.928v-1.368c.36-.072.72-.216 1.152-.36.792-.36 1.44-.792 1.8-1.224.36-.36.432-.648.288-.936-.144-.288-.432-.432-.936-.432-.576 0-1.224.216-2.088.576-.072 0-.144.072-.216.072v-1.368c1.224-.504 2.232-.72 3.168-.576.864.072 1.44.432 1.656 1.08.288.576.144 1.152-.36 1.872-.504.792-1.512 1.512-2.808 2.088-.576.216-1.152.432-1.656.576zm0-6.912v-1.368l.936-.432-.648-1.368-.288.144v-2.52l.936-.432 2.664 5.832-1.584.72-.576-1.224zm0-5.544v2.52l-.936.432a.994.994 0 0 1 .216.288c.072.072.072.144.144.288s.072.288.144.432c.072.144.072.216.072.36l.36-.144v1.368l-.216.072-.144-.288a2.588 2.588 0 0 1-.576 1.296c-.288.432-.792.72-1.368 1.008-.432.216-.864.288-1.224.36v-1.368c.216.072.432 0 .72-.144.432-.216.72-.504.864-.936.072-.36 0-.792-.216-1.296s-.504-.864-.864-1.008c-.144-.144-.36-.144-.504-.216v-1.296h.432c.504 0 .936.144 1.368.432l-.072-.216 1.584-.72-.432-.936zm0 7.416c-.072.072-.216.072-.288.144-1.296.576-2.232 1.224-2.808 2.016-.288.36-.432.72-.432 1.008v.576c0 .072 0 .216.072.36.288.576.864.936 1.728 1.08.504 0 1.08 0 1.728-.144v-1.368c-.36.072-.648.144-.936.144-.432 0-.792-.144-.936-.432-.072-.288 0-.648.36-1.008.288-.36.792-.72 1.512-1.008zm-26.136 30.528c.144-.648.144-1.224 0-1.8zm22.608-36.216v1.296c-.288 0-.504.072-.792.216-.432.144-.72.504-.792.936-.144.36-.072.792.144 1.296.216.504.504.792.864 1.008.144.072.36.144.576.144v1.368c-.504.072-1.008 0-1.44-.216a3.085 3.085 0 0 1-1.584-1.584 3.218 3.218 0 0 1-.144-2.304c.288-.792.936-1.368 1.872-1.8.432-.216.864-.288 1.296-.36zm0 8.856v.576a.795.795 0 0 1 0-.576zm-22.608 30.24v-.432l.36-1.296 2.232.648 1.944-6.624 1.224.36-2.088 7.2c-.072.36-.288.576-.504.72-.216.144-.576.144-.936.072zm0-7.128 2.376.72.504-1.656-2.88-.864zm11.448-19.8-.504.576c-.216-.36-.576-.72-.936-1.08-.36-.36-.648-.72-1.008-1.008l-.936-.864-5.976 6.696.936.864 4.824-5.4.504.432.792.792c.288.288.504.576.648.792l-5.04 5.688.936.792 2.736-3.024 1.152 1.08-2.376 2.664.936.792 4.896-5.4 2.088 1.944 1.152-1.296-3.024-2.736-2.52 2.736-1.152-1.08 2.808-3.096zm-14.112 27.072c.432-.072.936-.216 1.296-.576a3.837 3.837 0 0 0 1.224-2.016c.072-.144.072-.288.144-.432v-1.8c0-.072-.072-.072-.072-.144-.216-.648-.504-1.08-1.008-1.368-.504-.288-1.08-.432-1.584-.288v1.656c.144 0 .36 0 .504.072.36.072.648.288.792.648.216.36.216.792.072 1.296-.144.504-.432.864-.792 1.08-.144.072-.36.144-.576.144zm2.664-9.072v1.8l-2.664-.72v-1.8l.936.288.36-1.152 1.296.36-.36 1.152zm0 8.496v.432l-.144-.072zm-6.84-.504 1.224.36.432-1.728c0 .72.216 1.368.648 1.8.432.432.936.648 1.584.648h.288v-1.728c-.144 0-.288 0-.432-.072-.432-.072-.648-.288-.864-.648a1.946 1.946 0 0 1-.072-1.296c.144-.504.432-.864.792-1.08.216-.072.36-.144.576-.144v-1.656h-.144c-.576.144-1.08.576-1.512 1.296l.504-1.728-1.224-.36-.648 2.304-.864-.288-.432 1.656.864.288zm4.176-8.712v1.8l-2.808-.792.432-1.728zM230.4 483.042v-1.224l.792.288-.432 1.08zm0-3.168v-1.224l.144.072 1.728.648-.432 1.08zm0-3.888v-1.224l3.096.864-.36 1.152zm0-4.608v-1.728l.144-.216c.288-.288.504-.576.648-.648.144-.216.36-.36.504-.432.144-.144.36-.144.576-.216.288 0 .576.072.864.072.72.144 1.152.432 1.44.792.216.36.288.936.144 1.728-.144.792-.36 1.296-.72 1.512-.288.216-.648.288-1.152.216l-.936-.144.144-1.152.792.072c.288.072.504.072.648 0 .144-.072.288-.288.36-.648.072-.432 0-.72-.144-.864-.072-.144-.288-.216-.576-.288a1.62 1.62 0 0 0-.864.072c-.288.216-.648.576-1.152 1.08-.288.36-.504.648-.72.792zm0-1.728v1.728l-.288.288c-.36.144-.792.216-1.296.144-.576-.144-1.008-.36-1.224-.72-.288-.432-.36-.936-.216-1.584.144-.72.288-1.224.576-1.512.216-.288.504-.432.864-.36l1.224.216-.216 1.152-.648-.144c-.288 0-.504 0-.576.072-.144.072-.288.288-.36.648-.072.36 0 .648.072.792.144.144.36.216.648.288h.288c.072 0 .216 0 .288-.072.072-.072.216-.144.288-.288.144-.072.288-.288.432-.504zm0 5.112v1.224l-3.24-.864-.36 1.296-.288-.072v-2.592l.432-1.512.936.216-.432 1.512zm0 3.888v1.224l-.864-.36h-.072c-.144-.072-.288-.072-.36-.072-.144-.072-.216 0-.288.072-.144.072-.216.216-.36.432-.072.216-.216.504-.432.936l2.376.936v1.224l-3.888-1.584v-1.224l.72.288.072-.144c.144-.432.288-.72.288-.792.072-.216.144-.36.144-.504 0-.072 0-.144-.072-.216-.072-.072-.144-.072-.288-.144l-.864-.36v-1.296a.223.223 0 0 0 .144.072l.936.36c.36.144.576.288.72.504.144.216.216.504.072.936.216-.216.36-.36.576-.432.144-.072.288-.144.432-.144.144 0 .288 0 .432.072.144.072.288.072.576.216zm-3.888 8.856v-2.304l.36-.504-.36-.144v-1.224l3.672 1.296-.648 1.008-1.728-.648-.792 1.368 1.368 1.224-.576 1.008zm0-13.752v2.592l-.576-.216zm0 3.312v1.296c-.144-.072-.216-.072-.288-.072-.072 0-.144 0-.216.144-.072.072-.216.216-.288.432-.072.144-.216.432-.36.936l1.152.432v1.224l-2.376-.936v-.072l.648-1.584c.288-.72.576-1.224.792-1.512.288-.288.648-.36.936-.288zm0 6.264v1.224l-2.376-.864v-1.224zm0 1.872-.288.504-2.088-1.944v1.512l2.376 2.232zm-2.376 6.84v-1.296l1.728.792-.72.936zm0-11.592v.072h-.072zm0 2.016v1.224l-.216-.072.216.144v1.512l-1.728-1.584.864-1.512zm0 8.28v1.296l-.648-.288-.936 1.224 1.296 1.368-.72.936-2.232-2.448v-1.656l.936 1.08.72-.936-1.656-.792v-1.224zm-3.24 6.264v-1.656l1.152 1.08-.864.864zm0-7.704v1.224l-1.152-.576 1.152 1.224v1.656l-2.16-2.304v-1.368l.432-.648zm0 6.048v1.656l-2.16-2.016v-1.656zm-2.16 4.32v-2.232c.36.504.576.936.504 1.368-.072.216-.216.576-.504.864zm0-10.512v1.368l-.576-.576zm0 4.176v1.656l-1.152-1.08v-1.584zm0 4.104v2.232c-.144.216-.36.36-.576.576l-.576.432v-1.224l.072-.072c.216-.216.36-.36.36-.504.072-.144 0-.288-.072-.504-.072-.072-.144-.216-.36-.432v-1.728zm-1.152-5.112v1.584L216 492.402l.792-.864zm0 3.888-1.44-1.728c-.36-.432-.72-.648-1.08-.576-.36.072-.864.288-1.44.792v1.152c.288-.216.432-.36.576-.504.216-.144.36-.216.504-.288.144 0 .288 0 .432.072l.432.432 1.944 2.232c0 .072.072.072.072.144zm0 3.24v1.224l-1.008.936-2.952-3.456v-1.8l3.24 3.744c.36-.288.576-.504.72-.648zm-3.96 4.464v-1.152l1.152-.792.504.72zm0-9.216v1.152l-.288.216.288.288v1.8l-1.728-1.944 1.584-1.368zm0 8.064-.576.36-1.296-1.872 1.512-1.08-.504-.72-1.512 1.08-1.224-1.728 1.656-1.152-.576-.72-1.224.864v2.808l2.808 3.96.936-.648zm-3.744 2.808v-2.232l1.296 2.232-.936.576zm0-7.776v2.808l-1.296-1.872zm0 5.544-2.376-3.888-1.728 1.008 2.088 5.112-2.304-2.808-1.224-1.44-1.728 1.08 3.672 6.12 1.008-.576-3.096-5.184 4.104 4.608.936-.648-2.088-5.688 2.736 4.536zm-12.672 7.92v-2.376l.144.432c.144.72.144 1.224 0 1.656 0 .144-.072.216-.144.288zm0-6.336 2.232 6.12 1.08-.432-1.08-3.024 1.728-.648-.288-.864-1.728.648-.72-1.944 1.872-.648-.36-.936-2.736 1.008zm0-.72v.72l-.216-.648zm0 4.68-.432-2.16c-.216-.576-.432-1.08-.72-1.368-.288-.288-.648-.504-1.08-.504v1.08c.072 0 .144.072.144.072.216.144.36.36.432.648l.72 3.24c.072.288.072.576 0 .792-.072.36-.288.504-.648.576-.288.072-.504.072-.648 0v1.008c.216 0 .504 0 .792-.072.72-.144 1.224-.432 1.44-.936zm-2.232-4.032v1.08c-.216-.072-.432-.144-.648-.072-.288.072-.576.288-.648.504-.144.216-.144.504-.072.72l.72 3.312c.072.288.216.504.432.648l.216.216v1.008c-.504 0-.864-.144-1.152-.504-.288-.288-.504-.792-.648-1.44l-.648-2.592c-.144-.648-.144-1.152 0-1.584.216-.576.72-1.008 1.584-1.224.288-.072.576-.072.864-.072zm-25.272 6.84v-2.088l.144-.504v-.072c.072-.144.072-.288.072-.36a.546.546 0 0 0-.144-.288l-.072-.072v-1.08c.144.072.288.072.36.072.144 0 .216 0 .288-.072 0-.072.072-.144.072-.288l.288-.936c.072-.144.072-.288.072-.288-.072-.144-.072-.144-.216-.216-.072-.072-.216-.144-.432-.216-.144-.072-.288-.072-.432-.144v-.936l.288.072c.792.216 1.296.504 1.584.72.36.288.432.648.36 1.08l-.288.936c-.072.36-.216.648-.36.72-.216.216-.576.288-1.008.216.216.144.432.36.504.504l.216.432c0 .144 0 .288-.072.432 0 .144 0 .288-.072.576l-.072.144-.504 1.8zm7.344-4.824a.72.72 0 0 0-.288-.792c-.36-.288-.864-.504-1.512-.576-.72-.144-1.224-.144-1.584.144-.432.216-.648.648-.792 1.224-.072.504 0 .936.144 1.296.144.216.504.576 1.008 1.008.576.504.936.864 1.08 1.152.144.288.144.576.072.936-.072.216-.144.432-.288.576-.216.144-.432.144-.864.072-.36-.072-.576-.216-.648-.36-.072-.144-.072-.36 0-.648l.144-.792-1.152-.216-.216.936c-.072.576 0 .936.216 1.224.216.36.72.576 1.512.72.72.144 1.296.144 1.728-.144.36-.216.648-.72.792-1.368.072-.36.072-.648.072-.864 0-.216-.072-.432-.144-.576-.144-.216-.216-.36-.432-.576-.144-.144-.36-.288-.72-.576l-.288-.288c-.288-.216-.432-.36-.504-.504-.144-.072-.216-.216-.288-.288-.072-.072-.072-.144-.072-.288 0-.072 0-.144.072-.288 0-.288.144-.504.216-.576.144-.144.432-.144.792-.072.36.072.576.144.648.288.072.144.072.36.072.648l-.144.576 1.152.288zm1.44-.72-.648 7.128 1.152.072.648-7.128zm2.376.144-.072.936 1.296.072-.288 6.264 1.152.072.36-6.264 1.584.072v-.936zm7.416-.144-.72 3.528-.288-.864c-.216-.504-.36-.864-.504-1.152-.144-.504-.36-1.008-.504-1.368l-1.152.144 1.944 4.464.288 2.52 1.08-.144-.216-2.52 1.224-4.752zm-18.576-1.944v.936l-.504-.144-.576 1.944.144.072c.432.072.72.216.864.216h.072v1.08c-.072-.072-.216-.144-.36-.216-.216-.072-.576-.144-.936-.288l-.936 3.24-.504-.144v-2.448l1.368-4.608zm0 5.4-.576 1.872.576.216zm-2.736-5.328.288.072.36-.864-.648-.288zm0-1.08v1.08l-1.584-.72-.792 1.872 1.656.792-.36.792-1.728-.72-.864 2.088 1.872.864-.432.864-1.8-.864v-2.952l1.8-4.032zm0 5.256-.648 2.232.648.216zm-4.032-5.184 1.08-1.152-1.08-.648v.072zm0-1.728v1.728l-3.888 4.248-.864-.576v-2.592l1.656-4.752 1.008.648-2.088 5.832.288-.36c.576-.576 1.008-1.08 1.296-1.368.504-.504.936-1.008 1.368-1.512zm0 4.752-1.08 2.448 1.08.504zm-4.752-6.12.792-1.08-.792-.576zm0-1.656v1.656l-2.952 4.032v-2.016l2.736-3.744zm0 5.832v2.592l-.792-.432zm-2.952-4.896 1.512-1.944-.936-.72-.576.72zm0-1.944v1.944l-2.952 3.744-1.296-1.008 2.304-5.184-2.304 3.024v-1.872l2.448-3.168 1.224.936-2.232 5.184zm0 4.68-1.44 2.016.936.72.504-.72zm-4.248-5.976 1.944-1.8-.792-.864-1.152 1.008zm0-1.656v1.656l-1.656 1.512c-.288.288-.504.432-.72.576-.216.216-.504.288-.72.36-.288.072-.576 0-.792-.072a3.197 3.197 0 0 1-.792-.576v-3.312l.144-.144 3.528-3.312.792.864-3.888 3.6c-.288.288-.432.504-.432.648-.072.216.072.504.36.792.288.288.576.432.72.432.216 0 .432-.144.648-.432zm0 3.6-1.944 2.448.864.72 1.08-1.296zm-4.68-9.216v-2.376l.936 1.368zm0-2.376v2.376l-2.376 2.448v-1.656l1.8-1.8-1.8.792v-1.224l2.304-1.008zm0 8.136v3.312l-.216-.216c-.288-.36-.576-.648-.648-1.008a1.043 1.043 0 0 1-.072-.792c.072-.288.216-.504.432-.792.072-.144.288-.288.504-.504zm-2.376-10.224v-1.872l1.152 1.944-.864.432zm0-1.872v1.872l-.648-1.224-1.8 1.08.936 1.584-.792.504-.936-1.656-.216.144v-1.368l3.024-1.728zm0 4.896v1.224l-1.08.504.648.936.432-.432v1.656l-1.728 1.8-.648-.936 1.296-1.368-.936-1.224-1.44.576v-1.224zm-3.456-5.472c.216 0 .432-.072.72-.216l.864-.36c.432-.216.648-.504.648-.936 0-.36-.216-.936-.504-1.656l-.648-1.656-1.08.504v1.224l.648-.288.432.864c.072.288.072.432.144.504 0 .144 0 .216-.072.288-.072.072-.144.144-.288.144l-.864.36zm0-5.688v-2.52l.216.648c.216.792.144 1.44-.216 1.872zm-1.008-6.336-2.88-1.08v1.224l3.096 1.224zm-2.88-1.08 2.592-.504-.216-1.08-2.376.432zm3.888 4.896v2.52c0 .072-.072.072-.072.144-.288.288-.792.504-1.44.648l-2.376.72v-1.224l2.448-.648c.288-.072.504-.216.648-.432a1 1 0 0 0 .144-.792c-.144-.36-.288-.576-.576-.72-.216-.072-.432-.072-.72 0l-1.944.504v-1.152l1.296-.36c.648-.216 1.152-.216 1.584-.072.432.072.792.432 1.008.864zm0 3.888-3.888 1.656v1.224l1.872-.792c.216.36.288.72.36.936.072.216.144.432.072.504 0 .144-.072.216-.144.288a.77.77 0 0 1-.36.216l-1.8.792v1.224l1.656-.72.144-.072c.216-.072.432-.144.504-.216.144-.072.288-.144.36-.288.144-.072.216-.216.288-.432 0-.144.072-.36 0-.648.288.36.504.576.792.648h.144v-1.224.072c-.144 0-.216.072-.288.072-.072 0-.144-.072-.216-.144-.072-.072-.144-.216-.288-.432-.072-.072-.144-.36-.288-.792l-.072-.144 1.152-.504zm0 5.832v1.368l-1.8 1.008 1.08 1.8-.864.504-1.584-2.808zm0 5.472v1.224l-.288.144-.648-.936zm-3.888-20.088h-.144.144v-1.152l-4.608.792.144 1.152 2.304-.432.792.216-2.736 2.16.216 1.296 3.672-2.952.216.144zm0 4.464v1.152l-1.296.36c-.288.072-.504.216-.648.432-.216.216-.288.504-.216.864.072.36.288.576.576.648.288.072.504.072.864 0l.72-.216v1.224h-.144c-.648.144-1.224.216-1.656.072-.576-.144-1.008-.648-1.296-1.512-.216-.864-.072-1.512.36-2.016.288-.288.792-.504 1.512-.72zm0 5.976v1.224l-1.224.504-.432-1.08zm0 3.168v1.224h-.072l-.432-1.008z" style="fill:#2c2c2b;stroke:none" transform="matrix(4.62376 0 0 4.62376 -585.756 -1873.427)"/></svg>