<svg xmlns="http://www.w3.org/2000/svg" width="675pt" height="675pt" viewBox="0 0 675.00002 674.99999"><path d="M337.5 675c-45.562 0-89.758-8.932-131.366-26.528-40.206-17.002-76.296-41.337-107.282-72.322-31.003-31.003-55.339-67.092-72.324-107.279C8.915 427.265 0 383.07 0 337.51c0-45.56 8.915-89.756 26.528-131.38 16.985-40.187 41.32-76.276 72.324-107.28 30.986-30.984 67.076-55.32 107.282-72.321C247.742 8.932 291.938 0 337.5 0c45.562 0 89.758 8.932 131.366 26.528 40.206 17.002 76.296 41.337 107.282 72.322 31.003 31.003 55.339 67.092 72.324 107.279C666.085 247.753 675 291.949 675 337.509s-8.915 89.756-26.528 131.362c-16.985 40.187-41.32 76.276-72.324 107.28-30.986 30.984-67.076 55.32-107.282 72.321C427.258 666.068 383.062 675 337.5 675" style="fill:#296854;fill-opacity:1;stroke-width:17.973"/><path d="M337.5 9.633C156.708 9.633 9.616 156.722 9.616 337.51c0 180.787 147.092 327.858 327.884 327.858s327.884-147.07 327.884-327.858c0-180.787-147.092-327.876-327.884-327.876" style="fill:#fff;stroke-width:17.973"/><path fill="#296854" d="M216.18 215.554V397.42c0 .018-.198 4.565 2.066 11.808 2.39 7.62 6.507 15.348 12.276 22.915 11.88 15.654 30.105 29.924 54.117 42.38 7.423 3.845 15.547 7.332 24.192 10.352 9.652 3.36 21.837 9.022 28.505 17.505 6.686-8.501 18.854-14.145 28.506-17.505 8.645-3.02 16.787-6.507 24.192-10.353 24.03-12.455 42.237-26.725 54.135-42.38 5.751-7.584 9.885-15.294 12.276-22.914 2.264-7.243 2.066-11.79 2.066-11.826V215.554c-38.768 2.229-69.771-7.926-89.164-17.002-16.644-7.8-27.59-15.96-32.01-19.537-4.404 3.577-15.35 11.737-32.01 19.537-19.376 9.076-50.38 19.23-89.148 17.002M334.82 506.208v.018-.018m2.516 5.032a3.673 3.673 0 0 1-3.253-1.977c-4.888-9.237-19.267-15.384-27.409-18.224-8.932-3.127-17.344-6.74-25.036-10.712-24.893-12.922-43.837-27.803-56.31-44.23-6.219-8.178-10.694-16.571-13.318-24.928-2.463-7.89-2.39-13.138-2.355-14.02V208.546l3.505.27c74.588 5.679 121.516-36.072 121.984-36.503l2.192-1.977 2.193 1.977c.126.107 11.952 10.693 32.82 20.435 19.23 8.968 50.288 19.015 89.164 16.067l3.523-.27V397.15c.036.88.108 6.129-2.373 14.019-2.606 8.357-7.081 16.75-13.3 24.928-12.473 16.427-31.435 31.308-56.31 44.23-7.692 3.972-16.122 7.585-25.054 10.712-8.124 2.84-22.503 8.987-27.41 18.242a3.67 3.67 0 0 1-3.253 1.96" style="stroke-width:17.973"/><path fill="#296854" d="M367.8 228.963c0-16.822-13.642-30.463-30.465-30.463s-30.447 13.64-30.447 30.463 13.624 30.464 30.447 30.464 30.464-13.641 30.464-30.464M408.463 392.66c-.719-28.828-24.263-53.343-53.218-53.343h-35.82c-28.955 0-52.482 24.515-53.201 53.343h-.036V456.284h45.993v-72.035c0-13.893 11.27-22.25 25.163-22.25s25.144 8.357 25.144 22.25v72.035h46.011V392.66z" style="stroke-width:17.973"/><path fill="#296854" d="M378.628 223.104c.27 1.923.413 3.864.413 5.86 0 12.688-5.68 24.047-14.612 31.703v27.57c0 13.893-11.269 25.162-25.162 25.162h-3.864c-13.894 0-25.145-11.269-25.145-25.162v-27.57c-8.95-7.656-14.63-19.015-14.63-31.704 0-1.995.162-3.936.431-5.859h-29.871V286.728h.036c.719 28.828 24.246 53.342 53.2 53.342h35.821c28.955 0 52.5-24.514 53.218-53.342h.036v-63.624zM255.769 212.223v247.07l-29.153-26.923-11.646-24.335V212.223ZM418.915 212.223v247.07l27.84-25.161 12.959-26.097V212.223ZM181.852 196.052a2.968 2.968 0 0 1-2.965 2.965 2.968 2.968 0 0 1-2.966-2.965 2.968 2.968 0 0 1 2.966-2.966 2.968 2.968 0 0 1 2.965 2.966M194.639 206.835a2.968 2.968 0 0 1-2.966 2.965 2.968 2.968 0 0 1-2.966-2.965 2.968 2.968 0 0 1 2.966-2.966 2.968 2.968 0 0 1 2.966 2.966M494.314 196.052a2.968 2.968 0 0 0 2.966 2.965 2.968 2.968 0 0 0 2.965-2.965 2.968 2.968 0 0 0-2.965-2.966 2.968 2.968 0 0 0-2.966 2.966M481.528 206.835a2.968 2.968 0 0 0 2.965 2.965 2.968 2.968 0 0 0 2.966-2.965 2.968 2.968 0 0 0-2.966-2.966 2.968 2.968 0 0 0-2.965 2.966M139.371 175.124c-6.83-.413-19.087-1.563-24.551-4.6-5.536-3.092-8.573-7.262-8.232-8.79a2.174 2.174 0 0 1 1.007-1.42c1.312-.808 3.846-.736 7.782.253.863.197 1.995.341 2.48-.234.521-.63.324-2.103-.575-4.134-1.33-3.037-2.21-5.877-2.696-8.699-1.24-7.135-2.157-14.54.431-15.744-2.821-4.978-6.074-5.212-7.818-4.852-.755.161-1.33.79-1.474 1.545-11.34 60.263 28.991 53.757 28.991 53.757l3.181-.144c-.018-.36-.108-.701-.054-1.079.234-1.653.72-3.684 1.528-5.859" style="stroke-width:17.973"/><path fill="#296854" d="M142.684 168.891c2.66-3.72 6.65-7.243 12.778-9.543-.934-4.35-3.145-10.874-8.411-17.487-9.292-11.665-27.948-11-31.687-9.472.126.252.27.467.414.755 3.091 6.65 18.818 26.006 26.906 35.747" style="stroke-width:17.973"/><path fill="#296854" d="M115.77 133.147c-.125-.287-.27-.503-.413-.754-2.498 1.006-.647 11.52-.054 14.97.486 2.769 1.348 5.554 2.66 8.538 1.025 2.372 1.186 4.026.45 4.906-.576.683-1.654.845-3.218.468-2.102-.522-3.792-.791-5.05-.791-.97 0-1.69.144-2.157.45-.36.215-.575.538-.683.97-.216.934 2.283 4.87 7.872 7.98 5.338 2.965 17.758 4.115 24.498 4.51a26.051 26.051 0 0 1 3.001-5.499c-8.07-9.741-23.796-29.098-26.905-35.748M561.58 147.497c-.485 2.821-1.384 5.661-2.696 8.699-.898 2.048-1.096 3.522-.575 4.133.486.575 1.618.45 2.48.234 3.937-.97 6.47-1.06 7.765-.252.54.324.88.791 1.024 1.438.342 1.51-2.696 5.697-8.231 8.77-5.464 3.056-17.722 4.188-24.552 4.602.81 2.174 1.294 4.205 1.528 5.877.054.36-.036.719-.054 1.078l3.181.144s40.332 6.488 28.991-53.774c-.144-.755-.719-1.384-1.474-1.546-1.743-.36-4.996-.126-7.818 4.853 2.588 1.204 1.672 8.609.431 15.744" style="stroke-width:17.973"/><path fill="#296854" d="M533.483 168.891c8.088-9.74 23.814-29.097 26.906-35.747.144-.288.287-.503.413-.755-3.72-1.528-22.394-2.193-31.687 9.472-5.266 6.613-7.476 13.138-8.411 17.487 6.129 2.282 10.119 5.823 12.779 9.543" style="stroke-width:17.973"/><path fill="#296854" d="M533.483 168.891a25.835 25.835 0 0 1 3.02 5.518c6.74-.413 19.159-1.564 24.497-4.53 5.572-3.108 8.07-7.044 7.854-7.979a1.41 1.41 0 0 0-.683-.97c-1.096-.683-3.523-.576-7.207.341-1.546.377-2.624.216-3.217-.467-.737-.863-.575-2.516.467-4.907 1.294-2.965 2.157-5.751 2.642-8.519.665-3.828 2.444-13.983-.054-14.99-.126.253-.27.468-.413.756-3.092 6.65-18.818 26.006-26.906 35.747M575.465 337.502c0 131.219-106.743 237.958-237.965 237.958S99.535 468.72 99.535 337.502c0-55.068 19.322-108.788 54.423-151.294l.108-.126 2.66.018c.27.018.485.036.719.036a6.946 6.946 0 0 0 5.338-2.48c1.51-1.78 2.03-4.08 1.42-6.326l-.414-2.229.126-.126c22.071-23.544 48.114-42.092 77.429-55.104 30.374-13.498 62.726-20.327 96.156-20.327 33.682 0 66.25 6.937 96.821 20.614 29.494 13.21 55.663 31.992 77.734 55.842l.126.143-.198 1.133c-.629 2.282-.107 4.6 1.402 6.38 1.474 1.761 3.72 2.642 6.021 2.444l1.546-.018.108.144c35.083 42.487 54.405 96.226 54.405 151.276m-46.802-162.85s.377-.432.97-1.15l-10.334-8.7v-.161c0-.054 0-1.887.575-4.78-1.097-.306-2.247-.216-3.253.359a4.162 4.162 0 0 0-2.05 2.893l-.575 3.145-.503-.503C466.71 117.822 404.216 91.42 337.5 91.42c-66.195 0-128.346 26.043-175.023 73.31l-.485.504-.395-2.12a4.162 4.162 0 0 0-2.05-2.894 4.273 4.273 0 0 0-2.12-.575c-.378 0-.755.09-1.132.197.557 2.894.575 4.745.575 4.799v.162l-.126.108-10.209 8.59c.593.72.97 1.15.97 1.15l-5.948 7.262-2.93.125c.054.881.306 1.726.899 2.409a4.217 4.217 0 0 0 3.199 1.51h1.096l-.45.593c-33.986 43.601-51.96 95.812-51.96 150.952 0 135.694 110.392 246.082 246.089 246.082s246.088-110.388 246.088-246.082c0-55.14-17.973-107.333-51.942-150.934l-.467-.594 2.264-.018a4.217 4.217 0 0 0 3.2-1.51c.593-.682.826-1.527.898-2.408l-2.93-.125z" style="stroke-width:17.973"/><path fill="#296854" d="M147.506 174.659s-.378-.45-.97-1.15l-2.194 1.833h-.143c-.234 0-1.78-.036-4.062-.162-.827 2.175-1.33 4.242-1.582 5.913-.054.324.036.63.072.953l2.93-.144zM143.165 169.472c1.186 1.438 2.157 2.588 2.894 3.469l10.083-8.483c-.018-.486-.108-2.103-.54-4.368-5.966 2.265-9.867 5.734-12.437 9.382" style="stroke-width:17.973"/><path fill="#296854" d="M140.44 174.449c1.87.107 3.218.161 3.631.161l1.995-1.671c-.737-.88-1.707-2.031-2.894-3.469a26.382 26.382 0 0 0-2.732 4.979M146.296 173.223c.108.126.144.18.234.287l10.209-8.608.125-.108.018-.162c0-.036-.018-1.887-.593-4.78-.09.017-.197.017-.287.053-.018 0-.036.018-.054.018.557 2.876.557 4.709.557 4.709z" style="stroke-width:17.973"/><path fill="#296854" d="m144.335 175.352 2.193-1.851c-.09-.108-.126-.162-.234-.27l-2.085 1.743s-1.545-.036-3.918-.161c-.054.126-.108.233-.143.36 2.282.125 3.828.179 4.043.179zM146.062 172.944l.234.288 10.209-8.61s0-1.814-.557-4.69c-.126.036-.216.108-.342.144.432 2.282.521 3.9.54 4.385z" style="stroke-width:17.973"/><path fill="#296854" d="M146.296 173.223c-.072-.072-.162-.198-.234-.288l-1.977 1.672c-.43 0-1.779-.054-3.648-.162-.054.126-.09.252-.144.36 2.373.143 3.918.18 3.918.18zM531.831 175.352l-2.193-1.851c-.593.719-.97 1.168-.97 1.168l5.949 7.243 2.93.126c.018-.306.107-.611.054-.935-.252-1.671-.755-3.738-1.582-5.93-2.283.125-3.828.179-4.044.179zM530.104 172.944c.737-.88 1.707-2.03 2.894-3.468-2.57-3.667-6.47-7.136-12.438-9.4-.431 2.282-.521 3.9-.539 4.385z" style="stroke-width:17.973"/><path fill="#296854" d="M535.726 174.449a26.382 26.382 0 0 0-2.732-4.979c-1.186 1.438-2.157 2.588-2.894 3.469l1.995 1.671c.414 0 1.762-.054 3.631-.161M519.297 164.8l10.334 8.7c.09-.108.144-.162.234-.27l-10.209-8.609s0-1.815.557-4.69c-.018-.019-.036-.019-.036-.037-.107-.036-.215 0-.305-.036-.557 2.894-.575 4.727-.575 4.781z" style="stroke-width:17.973"/><path fill="#296854" d="m531.96 174.982-2.084-1.76c-.108.125-.162.179-.234.287l2.193 1.85.126-.017c.233 0 1.779-.036 4.062-.162-.054-.126-.108-.252-.144-.377-2.373.143-3.918.18-3.918.18M529.87 173.223c.072-.072.162-.198.234-.288l-10.083-8.483c.018-.485.108-2.103.54-4.367-.127-.054-.216-.108-.342-.162-.557 2.876-.557 4.709-.557 4.709z" style="stroke-width:17.973"/><path fill="#296854" d="m532.09 174.614-1.977-1.672c-.072.09-.18.198-.234.288l2.085 1.743s1.546-.036 3.918-.161a7 7 0 0 0-.161-.36c-1.87.108-3.218.144-3.631.162M347.09 531.169c1.852.09 5.303.341 9.724 1.06.036-.09.072-.162.108-.252 2.624-4.942-2.606-7.368-2.606-7.368s-.36-.252-.827-.917a1.385 1.385 0 0 0-1.797-.413l-3.29 1.797c0 .09.037.18.037.27 0 2.12-.522 4.097-1.348 5.823M323.29 523.685c-.467.665-.826.916-.826.916s-5.23 2.445-2.606 7.387c.036.072.071.162.107.234a98.45 98.45 0 0 1 9.724-1.06c-.827-1.726-1.348-3.685-1.348-5.824 0-.09.018-.161.036-.27l-3.29-1.797a1.38 1.38 0 0 0-1.797.414M474.874 219.957c-1.402-.917-2.857-1.851-4.152-3.002a4.882 4.882 0 0 1-1.401-5.068 14.9 14.9 0 0 1-5.177-1.438l-28.972 22.682-1.924 27.462 46.497-35.802c-.036-.18-.054-.413-.108-.575-.413-1.438-2.624-2.875-4.763-4.26M203.958 216.955c-1.276 1.15-2.732 2.085-4.152 3.002-2.139 1.384-4.332 2.822-4.763 4.26-.036.107-.054.251-.072.359l49.678 38.246 1.312-24.892-35.21-27.57a15.022 15.022 0 0 1-5.391 1.527 4.882 4.882 0 0 1-1.402 5.068M195.483 437.667c.162-.018.324-.054.486-.054a4.87 4.87 0 0 1 4.223 2.444c.845 1.492 1.474 3.128 2.067 4.691.575 1.492 1.168 2.966 1.851 4.062l36.27-29.565-2.03-22.52-43.118 35.73c.413 1.797.467 3.54.251 5.212M158.471 471.623a4.877 4.877 0 0 1-2.03-5.23c.305-1.258 1.096-2.282 2.066-3.091-.144-.036-.305-.018-.45-.054l-12.67 10.496a30.952 30.952 0 0 0-7.172 8.555c-2.534 6.776 1.528 11.718 8.663 10.55a31.048 31.048 0 0 0 9.796-5.374l12.994-10.604c-1.76-1.042-3.936-1.959-5.93-2.75-2.104-.844-3.919-1.581-5.267-2.498M518.247 466.4c.485 2.013-.323 4.062-2.03 5.23-1.367.917-3.182 1.636-5.267 2.48-1.69.683-3.45 1.456-5.033 2.3l13.588 11.072a30.767 30.767 0 0 0 9.778 5.374c7.135 1.168 11.197-3.775 8.663-10.55a30.94 30.94 0 0 0-7.154-8.555l-13.03-10.802a9.532 9.532 0 0 1-1.582.342c.97.826 1.762 1.85 2.067 3.109M474.495 440.063a4.886 4.886 0 0 1 4.224-2.462c.161 0 .323.053.485.071-.27-1.977-.072-4.08.54-6.2l-34.24-28.379-5.284 19.77 30.842 25.126c.485-.97.917-2.103 1.366-3.253.593-1.564 1.222-3.182 2.067-4.673M269.105 512.61c.54.377.252 1.222-.377 1.222h-.072c-3.595-.324-7.477-.54-11.018-1.708-.557-.197-5.949-2.606-7.585-2.606-.36 0-.539.126-.467.378.36 1.222 1.186 5.248 8.7 11.143 1.473 1.15 2.66 2.156 3.684 3.019.485.413.18 1.186-.432 1.186h-.072a49.78 49.78 0 0 0-4.888-.251c-5.95 0-11.665 1.15-15.565 3.684-.97.647-2.966 3.54-1.833 3.702.395.054.844.072 1.348.072 2.174 0 5.41-.413 8.555-.413 3.864 0 7.602.629 9.202 3.469 2.678 4.744 7.836 8.321 12.348 9.363 1.204.27 2.534.432 3.864.432 4.152 0 8.34-1.618 8.573-6.74.09-2.103-.755-4.026-2.283-5.715-.683-.737-.27-1.923.737-2.05 2.768-.359 5.608-1.49 5.842-4.546.251-3.271-.378-5.194-1.852-6.74-.629-.647-.341-1.78.54-2.013 1.6-.431 3.02-1.258 4.133-2.552 4.368-5.014.468-9.67-3.235-11.7-2.157-1.187-4.745-1.564-7.153-1.762a36.494 36.494 0 0 0-3.145-.125h-1.06c-1.33.036-2.66.305-3.99.305-.127 0-.252 0-.396-.018-4.655-.198-7.998-5.23-11.575-7.674a.304.304 0 0 0-.18-.054c-.719 0-1.348 2.822-1.186 3.774.863 5.464 5.356 11.017 10.838 14.917M244.466 502.46c-.468-.79.053-1.814.97-1.85 1.672-.054 3.235-.54 4.62-1.546 5.373-3.918 2.623-9.31-.54-12.15-1.815-1.617-4.26-2.57-6.56-3.324a46.42 46.42 0 0 0-4.062-1.043c-1.438-.305-2.93-.323-4.35-.7-4.493-1.259-6.614-6.92-9.543-10.101a.316.316 0 0 0-.234-.108c-.719 0-1.887 2.498-1.941 3.415-.396 5.535 2.732 11.951 7.207 16.984.395.449.036 1.114-.503 1.114-.072 0-.144 0-.216-.036-3.433-1.114-7.171-2.193-10.334-4.134-.558-.323-5.752-4.26-7.064-4.26-.198 0-.305.09-.287.288.053 1.258-.036 5.374 5.967 12.815a98.998 98.998 0 0 1 2.911 3.774c.342.467-.018 1.079-.539 1.079-.072 0-.144-.018-.234-.036-4.42-1.51-9.094-2.409-13.336-2.409-2.678 0-5.194.36-7.35 1.15-1.115.414-3.703 2.786-2.625 3.2 3.865 1.491 16.068 1.078 17.92 7.35 1.527 5.212 5.75 9.867 9.92 11.88 1.942.935 4.386 1.672 6.669 1.672 3.037 0 5.823-1.294 6.865-5.015.558-2.03.162-4.097-.952-6.074-.467-.845.126-1.852 1.06-1.852h.126c.45.054.88.072 1.33.072 2.355 0 4.62-.7 5.392-3.163.989-3.145.79-5.158-.287-6.991M196.576 463.209c.27.485-.126.988-.593.988a.61.61 0 0 1-.342-.09c-1.905-1.15-3.864-2.372-5.751-3.702l-6.776 5.517c.018.036.018.072.054.126a113.53 113.53 0 0 1 1.977 4.332.673.673 0 0 1-.611.934.532.532 0 0 1-.36-.108 50.233 50.233 0 0 0-4.529-2.462l-6.29 5.14c1.905 1.384 3.343 3.038 3.469 5.176.323 5.428 3.378 10.91 6.991 13.803 2.21 1.78 5.302 3.38 8.178 3.38 2.229 0 4.331-.971 5.751-3.577 1.007-1.87 1.079-3.954.45-6.147-.234-.827.377-1.6 1.168-1.6.126 0 .27.036.395.072 1.079.36 2.21.611 3.29.611 1.581 0 3.037-.539 3.971-2.12 1.654-2.84 1.924-4.853 1.277-6.866-.252-.809.359-1.6 1.132-1.6.09 0 .162 0 .233.019a9.152 9.152 0 0 0 1.708.161c1.06 0 2.103-.197 3.127-.629 6.13-2.624 4.655-8.5 2.229-11.952-1.42-2.013-3.577-3.486-5.662-4.726a40.565 40.565 0 0 0-3.72-1.941c-1.33-.612-2.786-.971-4.062-1.654-1.132-.611-1.995-1.528-2.732-2.588l-6.506 5.32c.647 2.103 1.456 4.205 2.534 6.183" style="stroke-width:17.973"/><path fill="#296854" d="M186.491 457.741c-.467-.467-4.888-5.751-6.02-5.751-.127 0-.216.072-.252.234-.216 1.24-1.223 5.194 2.893 13.695l6.776-5.518c-1.186-.827-2.372-1.653-3.397-2.66M195.965 442.144c-.737 0-2.337 2.03-2.588 2.893-1.079 3.523-.647 7.783.665 11.988l6.524-5.32c-1.923-2.785-2.768-6.668-4.331-9.4a.279.279 0 0 0-.27-.161M166.356 465.22c-.701 0-1.402.036-2.067.125-1.168.144-4.224 1.87-3.271 2.517 2.3 1.563 8.411 3.163 12.33 6.02l6.308-5.14c-4.511-2.174-9.202-3.522-13.3-3.522M185.789 425.669a38.828 38.828 0 0 0-3.2-2.732c-1.15-.899-2.48-1.564-3.576-2.534-3.505-3.091-2.93-9.112-4.17-13.246-.054-.162-.162-.234-.342-.234-.79 0-2.642 1.51-3.073 2.247-2.768 4.799-2.768 11.934-.953 18.422.126.467-.251.845-.665.845a.654.654 0 0 1-.449-.18c-2.588-2.516-5.482-5.122-7.495-8.267-.36-.558-3.594-6.974-4.637-6.974-.09 0-.162.072-.215.198-.504 1.15-2.39 4.799-.252 14.126.413 1.816.7 3.325.952 4.673.09.45-.27.791-.665.791a.72.72 0 0 1-.467-.198c-5.428-5.391-12.168-9.58-18.045-10.19-.072-.018-.144-.018-.216-.018-1.33 0-4.277.934-3.54 1.725 2.804 3.038 13.965 8.034 12.869 14.468-.9 5.356.862 11.395 3.72 15.025 2.067 2.642 5.41 5.302 8.753 5.302 1.671 0 3.36-.665 4.853-2.372 1.402-1.582 1.959-3.613 1.833-5.877a1.24 1.24 0 0 1 1.222-1.33c.216 0 .431.072.647.198 1.294.79 2.768 1.402 4.17 1.455l5.518-4.583c.449-1.042.593-2.048.52-3.127a1.215 1.215 0 0 1 1.205-1.33c.144 0 .306.036.467.108a8.879 8.879 0 0 0 2.319.629l8.232-6.83a11.86 11.86 0 0 0-.881-4.331c-.917-2.265-2.696-4.188-4.44-5.86" style="stroke-width:17.973"/><path fill="#296854" d="M183.982 442.808a7.39 7.39 0 0 0 1.402-.126c4.386-.773 5.752-3.756 5.716-6.812l-8.232 6.812c.377.054.737.126 1.114.126M173.017 451.027c1.096 0 2.157-.378 3.055-1.33 1.115-1.187 1.852-2.247 2.3-3.271l-5.517 4.565c.054 0 .108.036.162.036M157.707 404.199c.09-.63.647-1.06 1.222-1.06.234 0 .486.071.701.233 1.33 1.007 2.84 1.618 4.548 1.707.18 0 .36.018.539.018 6.183 0 7.35-5.733 6.686-9.795-.378-2.408-1.672-4.69-3.002-6.721a45.493 45.493 0 0 0-2.498-3.38c-.917-1.132-2.085-2.084-2.93-3.27-2.714-3.793-.79-9.526-1.06-13.84-.018-.233-.216-.34-.485-.34-.899 0-2.75.952-3.307 1.527-3.775 4.044-5.374 11.017-5.069 17.739.018.431-.341.7-.683.7a.643.643 0 0 1-.557-.305c-1.959-3.037-4.188-6.218-5.428-9.74-.233-.63-2.013-7.837-3.001-7.837-.09 0-.162.054-.216.144-.737 1.006-3.397 4.134-3.415 13.695-.018 1.87-.072 3.415-.126 4.78-.018.396-.341.63-.683.63a.664.664 0 0 1-.557-.306c-4.08-6.47-9.705-12.077-15.295-14-.341-.108-.899-.18-1.51-.18-1.366 0-2.93.323-2.534 1.024 2.049 3.577 11.79 10.946 9.292 16.966-2.085 5.033-1.725 11.305.234 15.493 1.617 3.433 4.817 7.279 8.68 7.279 1.259 0 2.571-.396 3.937-1.366 1.707-1.222 2.696-3.073 3.091-5.32a1.23 1.23 0 0 1 1.223-1.042c.305 0 .61.107.862.36 1.384 1.365 3.092 2.551 4.871 2.551.755 0 1.528-.215 2.3-.737 2.732-1.815 3.865-3.504 4.17-5.607M145.872 361.351a1.25 1.25 0 0 1 1.15-.79c.324 0 .665.143.899.43 1.078 1.277 2.426 2.193 4.062 2.679.863.233 1.671.36 2.39.36 4.655 0 6.614-4.602 6.848-8.268.162-2.445-.575-4.943-1.42-7.207-.485-1.33-1.06-2.606-1.671-3.864-.647-1.312-1.546-2.499-2.121-3.847-1.78-4.313 1.384-9.471 2.085-13.73.054-.342-.324-.486-.881-.486-.989 0-2.516.413-3.073.79-4.602 3.092-7.729 9.526-8.951 16.14-.054.36-.36.557-.665.557a.66.66 0 0 1-.63-.449c-1.221-3.397-2.677-7.01-3.09-10.712-.09-.683-.198-8.303-1.205-8.303a.3.3 0 0 0-.197.072c-.953.827-4.242 3.289-6.417 12.599-.413 1.815-.827 3.307-1.186 4.619a.662.662 0 0 1-.647.485.666.666 0 0 1-.647-.45c-2.516-7.224-6.722-13.946-11.755-17.073-.575-.378-2.03-.72-3.055-.72-.7 0-1.204.163-1.06.612 1.186 3.954 9.022 13.336 5.23 18.638-3.163 4.439-4.224 10.621-3.253 15.15.88 4.134 3.594 9.203 8.142 9.203.862 0 1.797-.198 2.821-.612 1.941-.808 3.325-2.39 4.206-4.475a1.223 1.223 0 0 1 1.15-.773c.396 0 .791.18 1.025.576 1.222 1.905 2.93 3.666 5.068 3.666.485 0 .989-.09 1.528-.288 3.073-1.15 4.547-2.552 5.32-4.529M137.771 320.153c3.254-.431 5.015-1.456 6.201-3.217.252-.36.647-.54 1.025-.54.431 0 .844.216 1.06.648.755 1.474 1.87 2.696 3.361 3.523 1.33.736 2.57 1.06 3.685 1.06 3.72 0 6.146-3.559 7.099-6.686.7-2.336.54-4.96.234-7.35a40.778 40.778 0 0 0-.773-4.134c-.324-1.42-.953-2.786-1.186-4.224-.773-4.601 3.468-8.914 5.104-12.922.234-.558-1.007-.791-2.193-.791-.683 0-1.366.072-1.725.215-5.177 1.977-9.67 7.531-12.348 13.714a.654.654 0 0 1-.61.413.662.662 0 0 1-.666-.611c-.431-3.577-1.042-7.423-.611-11.107.072-.701 1.725-8.393.647-8.393a.29.29 0 0 0-.162.053c-1.114.594-4.87 2.23-9.076 10.82a114.429 114.429 0 0 1-2.21 4.224.634.634 0 0 1-.576.359.678.678 0 0 1-.683-.611c-.827-7.603-3.415-15.097-7.603-19.267-.61-.61-2.462-1.474-3.432-1.474-.36 0-.594.126-.576.45.288 4.116 5.806 15.007.917 19.32-4.098 3.613-6.524 9.4-6.578 14.02-.072 4.69 1.761 10.98 7.35 10.98.45 0 .9-.053 1.385-.125 2.085-.342 3.792-1.582 5.122-3.433.252-.342.63-.521 1.007-.521a1.2 1.2 0 0 1 1.15.826c.863 2.445 2.39 4.817 5.032 4.817.198 0 .414 0 .63-.036M146.904 275.052c2.372 0 3.918-.611 5.23-1.815.233-.216.539-.324.827-.324.52 0 1.024.324 1.168.899.413 1.617 1.204 3.037 2.48 4.187 1.582 1.42 3.163 1.995 4.62 1.995 3.09 0 5.715-2.552 7.153-5.05 1.204-2.12 1.635-4.709 1.887-7.1.144-1.401.18-2.803.18-4.205 0-1.456-.306-2.93-.216-4.385.287-4.673 5.374-7.908 7.89-11.449.503-.719-2.175-1.456-3.415-1.456-.108 0-.198 0-.287.018-5.482.773-11.108 5.159-15.098 10.586a.689.689 0 0 1-.54.27.691.691 0 0 1-.682-.755c.395-3.577.665-7.459 1.905-10.963.234-.683 3.703-8.034 2.462-8.034-.036 0-.072 0-.107.018-1.223.323-5.249 1.078-11.288 8.501a120.095 120.095 0 0 1-3.091 3.63.655.655 0 0 1-.485.234.687.687 0 0 1-.683-.773c.898-7.584.072-15.474-3.074-20.489-.503-.79-2.39-2.228-3.253-2.228-.233 0-.377.09-.413.323-.665 4.08 2.264 15.942-3.469 19.051-4.799 2.588-8.465 7.693-9.562 12.186-1.204 4.888-.683 12.113 6.075 12.527.144.018.306.018.45.018 1.923 0 3.72-.809 5.302-2.193a1.18 1.18 0 0 1 .826-.323c.594 0 1.15.413 1.223 1.096.305 2.768 1.384 5.643 4.439 5.931.557.054 1.06.072 1.546.072M180.564 218.237a.677.677 0 0 1-1.078-.737c.449-1.24.88-2.516 1.347-3.81l-8.124-6.255c-.539.396-1.06.773-1.545 1.114a.633.633 0 0 1-.378.126.675.675 0 0 1-.629-.916c.216-.611.342-1.24.54-1.87l-7.1-5.463c-.737.809-1.564 1.492-2.642 1.78-5.248 1.455-9.975 5.589-12.06 9.722-2.283 4.493-3.397 11.647 3.11 13.57.664.197 1.33.287 1.994.287 1.366 0 2.75-.395 4.098-1.114.198-.108.414-.162.611-.162.683 0 1.294.593 1.205 1.366-.324 2.786.071 5.823 2.983 6.776 1.438.485 2.66.719 3.72.719 1.24 0 2.283-.306 3.272-.881.197-.108.413-.162.61-.162.63 0 1.205.486 1.223 1.169.018 1.671.485 3.235 1.474 4.636 1.6 2.283 3.487 3.146 5.338 3.146 2.588 0 5.14-1.654 6.812-3.469 1.653-1.797 2.66-4.224 3.432-6.506.45-1.33.81-2.678 1.133-4.044.323-1.42.36-2.93.773-4.331.125-.432.341-.827.539-1.223l-7.53-5.805c-1.08.737-2.14 1.492-3.128 2.337" style="stroke-width:17.973"/><path fill="#296854" d="M171.764 187.1c-.323-.935-2.013-2.93-2.804-2.93-.143 0-.27.072-.341.252-1.294 3.18-1.438 12.041-5.033 15.995l7.118 5.482c2.103-6.668 2.821-13.677 1.06-18.8M200.938 213.564c.72-.647-2.229-2.14-3.271-2.247-.395-.036-.79-.036-1.186-.036-4.152 0-8.7 1.851-12.797 4.62l7.549 5.804c1.905-3.63 6.793-5.553 9.705-8.141M183.815 207.234c.396-.61 5.626-7.279 4.116-7.279h-.018c-1.258.036-5.356-.125-12.905 5.752-.845.647-1.6 1.204-2.3 1.725l8.124 6.255c.808-2.229 1.707-4.458 2.983-6.453M215.042 199.878c.737-1.186 1.384-2.426 2.013-3.684.629-1.33 1.006-2.768 1.725-4.044 2.3-4.062 8.304-4.745 12.096-6.83.845-.467-1.69-2.588-2.678-2.911-1.528-.504-3.181-.72-4.925-.72-4.295 0-9.058 1.385-13.3 3.613a.685.685 0 0 1-.305.072.69.69 0 0 1-.575-1.042c1.923-3.056 3.864-6.416 6.524-9.023.521-.52 7.171-5.877 5.625-6.164-.467-.108-1.366-.324-2.785-.324-2.23 0-5.77.558-11.072 3.02-1.69.773-3.127 1.384-4.385 1.905a.707.707 0 0 1-.252.054c-.503 0-.863-.575-.557-1.043 4.134-6.434 6.848-13.893 6.219-19.788-.108-1.006-1.402-3.486-2.175-3.486a.327.327 0 0 0-.288.18c-2.39 3.378-4.96 15.33-11.467 15.6-5.445.233-10.981 3.199-13.929 6.757-3.235 3.865-5.931 10.586-.036 13.93 1.115.628 2.319.916 3.577.916.827 0 1.671-.126 2.552-.36a1.222 1.222 0 0 1 1.492 1.6c-.467 1.312-.773 2.75-.63 4.044l6.076 4.763c.287.036.61.161.898.161.647 0 1.258-.107 1.888-.287.125-.036.251-.054.359-.054.737 0 1.366.665 1.204 1.438-.144.683-.162 1.348-.144 2.03l8.807 6.902a12.63 12.63 0 0 0 3.63-1.653c2.032-1.384 3.542-3.523 4.818-5.572" style="stroke-width:17.973"/><path fill="#296854" d="M189.525 195.376c1.564.953 2.84 1.366 4.062 1.528l-6.075-4.745c.144 1.276.72 2.426 2.013 3.217M198.314 203.022c1.33 3.27 3.63 4.42 6.003 4.42.755 0 1.528-.143 2.265-.34l-8.807-6.902c.018.952.162 1.905.54 2.822M223.034 155.746h.054c.97 0 1.582 1.06 1.043 1.887-1.492 2.355-2.48 5.266-.288 7.405 2.175 2.12 3.954 2.93 5.895 2.93.162 0 .306-.018.468-.018h.071c.881 0 1.492.898 1.133 1.707-.701 1.51-.989 3.127-.72 4.799.72 4.439 3.703 5.877 6.777 5.877 1.492 0 3.001-.342 4.295-.827 2.283-.88 4.242-2.624 5.931-4.35a38.68 38.68 0 0 0 2.786-3.145c.917-1.132 1.618-2.462 2.606-3.54 3.146-3.45 9.149-2.75 13.319-3.918.934-.27-1.06-2.912-1.96-3.45-2.75-1.654-6.29-2.391-10.064-2.391-2.732 0-5.59.395-8.34 1.096a.637.637 0 0 1-.18.036c-.557 0-.898-.719-.45-1.15 2.553-2.552 5.195-5.392 8.376-7.351.63-.378 8.322-4.098 6.866-4.745-.773-.341-2.678-1.348-6.74-1.348-1.94 0-4.35.234-7.369.863-1.833.377-3.36.647-4.69.88h-.127a.666.666 0 0 1-.449-1.15c5.482-5.338 9.795-12.006 10.514-17.865.126-1.06-.629-3.9-1.402-3.9-.09 0-.18.036-.27.108-2.91 2.606-7.728 12.707-13.695 12.707-.323 0-.647-.018-.97-.09a18.143 18.143 0 0 0-3.271-.288c-4.422 0-8.88 1.51-11.827 3.739-4.026 3.037-8.16 8.986-3.163 13.57 1.456 1.329 3.307 1.922 5.41 1.922h.431M266.064 136.05c-1.995 1.959-3.595 4.565-1.941 7.153 1.761 2.75 3.433 3.918 5.536 4.26.898.143 1.347 1.204.79 1.923-1.024 1.312-1.671 2.84-1.779 4.529-.395 5.733 3.954 7.53 7.836 7.53.63 0 1.24-.036 1.816-.125 2.408-.342 4.709-1.6 6.757-2.894a34.77 34.77 0 0 0 3.415-2.444c1.169-.899 2.14-2.031 3.343-2.858 1.546-1.078 3.397-1.384 5.356-1.384 2.624 0 5.428.557 7.855.557h.647c.97-.054-.378-3.073-1.133-3.81-3.774-3.648-10.244-5.392-16.643-5.392h-1.024c-.665 0-.917-.88-.342-1.24 3.074-1.905 6.29-4.08 9.814-5.266.7-.216 9.022-2.12 7.764-3.073-1.007-.755-4.08-3.469-13.642-3.649a97.144 97.144 0 0 1-4.763-.215c-.665-.036-.862-.899-.305-1.24 6.542-3.954 12.24-9.49 14.253-15.044.377-1.024.27-4.115-.558-4.115a.47.47 0 0 0-.197.054c-3.2 1.76-9.436 9.435-14.972 9.435-.737 0-1.474-.126-2.175-.449-2.426-1.06-5.158-1.546-7.818-1.546-2.804 0-5.5.54-7.675 1.51-4.6 2.067-9.957 6.92-6.128 12.509 1.204 1.743 3.037 2.768 5.266 3.2.988.179 1.366 1.383.647 2.084M424.634 509.524c-1.654 0-7.028 2.408-7.603 2.588-3.523 1.186-7.405 1.384-11 1.708-.017 0-.053.018-.071.018-.63 0-.917-.845-.378-1.223 5.482-3.9 9.975-9.453 10.838-14.935.162-.952-.467-3.774-1.204-3.774-.054 0-.108.018-.18.072-3.558 2.426-6.901 7.476-11.575 7.674-.125 0-.251.018-.377.018-1.33 0-2.66-.287-4.008-.305h-1.06c-1.043 0-2.085.018-3.128.107-2.408.216-4.996.594-7.153 1.762-3.702 2.049-7.603 6.686-3.253 11.718 1.132 1.294 2.534 2.12 4.152 2.552.88.234 1.168 1.348.539 2.013-1.474 1.546-2.103 3.469-1.87 6.74.234 3.055 3.092 4.17 5.86 4.529a1.23 1.23 0 0 1 .737 2.067c-1.528 1.69-2.373 3.612-2.283 5.715.234 5.122 4.404 6.74 8.555 6.74a16.9 16.9 0 0 0 3.883-.45c4.493-1.024 9.67-4.6 12.33-9.345 1.599-2.84 5.355-3.47 9.22-3.47 3.145 0 6.362.414 8.555.414.503 0 .952-.018 1.33-.072 1.15-.161-.845-3.055-1.834-3.702-3.9-2.534-9.597-3.684-15.564-3.684-1.618 0-3.253.09-4.871.251h-.072c-.611 0-.917-.773-.431-1.186 1.024-.88 2.21-1.87 3.684-3.02 7.513-5.912 8.34-9.92 8.7-11.143.071-.27-.109-.377-.468-.377M455.711 488.981c-3.181 1.941-6.92 3.02-10.334 4.134-.09.036-.162.036-.234.036-.54 0-.899-.665-.485-1.114 4.457-5.033 7.602-11.449 7.207-16.984-.072-.917-1.24-3.415-1.96-3.415a.281.281 0 0 0-.215.108c-2.947 3.18-5.05 8.842-9.561 10.1-1.402.378-2.894.396-4.332.701a44.835 44.835 0 0 0-4.062 1.043c-2.3.754-4.745 1.707-6.578 3.325-3.145 2.84-5.913 8.231-.521 12.15 1.384 1.006 2.947 1.49 4.6 1.545.917.036 1.439 1.06.99 1.85-1.097 1.834-1.277 3.847-.306 6.992.773 2.463 3.055 3.163 5.41 3.163.431 0 .88-.018 1.312-.071h.144c.916 0 1.51 1.006 1.042 1.85-1.114 1.978-1.51 4.045-.935 6.076 1.043 3.72 3.829 5.014 6.866 5.014 2.283 0 4.71-.737 6.668-1.672 4.152-2.013 8.376-6.667 9.921-11.88 1.834-6.272 14.055-5.859 17.902-7.35 1.078-.414-1.51-2.786-2.607-3.2-2.174-.79-4.673-1.15-7.368-1.15-4.224 0-8.897.899-13.337 2.409-.071.018-.143.036-.215.036-.521 0-.88-.611-.54-1.079a99.017 99.017 0 0 1 2.912-3.774c6.003-7.44 5.895-11.556 5.967-12.815 0-.197-.108-.287-.305-.287-1.294 0-6.507 3.936-7.046 4.26M478.694 464.204c-.468 0-.845-.521-.594-.988 1.259-2.3 2.157-4.745 2.822-7.19l-6.29-5.122c-.827 1.402-1.816 2.624-3.218 3.38-1.294.7-2.75 1.042-4.08 1.67a40.565 40.565 0 0 0-3.72 1.942c-2.067 1.24-4.242 2.714-5.644 4.709-2.444 3.468-3.918 9.345 2.211 11.951a8.078 8.078 0 0 0 3.145.648c.558 0 1.133-.054 1.69-.162a1.05 1.05 0 0 1 .234-.036c.79 0 1.384.809 1.132 1.6-.647 2.03-.378 4.043 1.294 6.883.917 1.563 2.372 2.12 3.954 2.12 1.078 0 2.21-.251 3.29-.61.143-.054.269-.072.413-.072.772 0 1.401.754 1.15 1.6-.63 2.174-.557 4.277.45 6.128 1.42 2.606 3.522 3.576 5.769 3.576 2.857 0 5.967-1.581 8.16-3.36 3.612-2.912 6.685-8.376 7.009-13.821.144-2.427 1.905-4.278 4.224-5.752l-6.075-4.96c-1.888.845-3.739 1.78-5.5 2.875a.745.745 0 0 1-.36.108c-.449 0-.826-.467-.629-.934.558-1.258 1.169-2.678 1.995-4.35.162-.36.288-.665.432-1.006l-6.399-5.23c-2.12 1.581-4.35 2.983-6.506 4.295a.745.745 0 0 1-.36.108" style="stroke-width:17.973"/><path fill="#296854" d="M494.46 452.224c-.036-.162-.108-.234-.252-.234-1.114 0-5.554 5.284-6.021 5.751-.79.773-1.725 1.402-2.624 2.067l6.398 5.23c3.595-7.872 2.714-11.628 2.499-12.814M481.312 445.043c-.27-.862-1.851-2.893-2.588-2.893-.126 0-.216.036-.287.162-1.402 2.462-2.247 5.895-3.81 8.59l6.29 5.14c1.06-3.881 1.384-7.745.395-10.999M513.662 467.866c.953-.647-2.103-2.372-3.271-2.516a15.565 15.565 0 0 0-2.067-.126c-3.81 0-8.106 1.205-12.312 3.11l6.075 4.96c3.919-2.498 9.436-3.972 11.575-5.427M494.122 442.056a1.17 1.17 0 0 1 .467-.107 1.24 1.24 0 0 1 1.222 1.33 6.192 6.192 0 0 0 .036 1.527l7.19 5.95a10.35 10.35 0 0 0 2.965-1.223c.216-.126.431-.18.647-.18.665 0 1.276.557 1.222 1.312-.108 1.995.342 3.757 1.366 5.23l3.092 2.57c.736.288 1.491.45 2.228.45 3.343 0 6.686-2.66 8.771-5.302 2.858-3.63 4.601-9.651 3.703-15.025-1.079-6.435 10.065-11.43 12.868-14.45.755-.81-2.21-1.744-3.522-1.744a.74.74 0 0 0-.216.018c-5.895.611-12.635 4.799-18.063 10.19a.613.613 0 0 1-.467.199c-.396 0-.755-.342-.665-.791.251-1.33.539-2.858.952-4.673 2.139-9.328.252-12.976-.251-14.127-.054-.126-.126-.18-.216-.18-1.043 0-4.278 6.399-4.637 6.974-2.013 3.127-4.889 5.733-7.477 8.25a.72.72 0 0 1-.467.197.682.682 0 0 1-.665-.863c1.815-6.47 1.815-13.623-.953-18.422-.431-.736-2.282-2.246-3.073-2.246-.162 0-.288.072-.342.234-1.24 4.133-.665 10.154-4.152 13.245-1.096.97-2.444 1.636-3.594 2.535a42.051 42.051 0 0 0-3.2 2.731c-1.743 1.672-3.522 3.595-4.439 5.877a12.44 12.44 0 0 0-.827 3.146l9.364 7.746c.378-.108.755-.216 1.133-.378" style="stroke-width:17.973"/><path fill="#296854" d="M498.604 449.691c.899.953 1.96 1.33 3.056 1.33.449 0 .916-.144 1.384-.27l-7.19-5.948c.216 1.563 1.043 3.091 2.75 4.888M489.298 442.684c.467.09.934.125 1.402.125.79 0 1.545-.161 2.282-.377l-9.346-7.746c-.431 3.433.701 7.117 5.662 7.998M509.699 456.546c.827.935 1.725 1.546 2.624 1.923l-3.073-2.57c.143.216.27.45.449.647M531.305 369.839c-.989 0-2.768 7.207-3.002 7.836-1.24 3.522-3.469 6.703-5.428 9.723a.685.685 0 0 1-.557.323c-.36 0-.7-.27-.683-.7.306-6.722-1.294-13.696-5.086-17.74-.54-.575-2.39-1.527-3.29-1.527-.287 0-.467.09-.485.323-.27 4.332 1.636 10.065-1.06 13.857-.863 1.186-2.013 2.139-2.93 3.271-.88 1.097-1.743 2.21-2.498 3.38-1.33 2.03-2.624 4.295-3.02 6.72-.647 4.063.522 9.778 6.704 9.778h.522c1.707-.09 3.235-.7 4.565-1.707.216-.162.467-.234.7-.234.576 0 1.133.413 1.223 1.06.306 2.103 1.438 3.793 4.17 5.608.755.503 1.527.719 2.3.719 1.78 0 3.487-1.168 4.871-2.534.252-.252.557-.36.863-.36.557 0 1.096.396 1.222 1.043.377 2.246 1.366 4.097 3.091 5.32 1.366.97 2.678 1.365 3.936 1.365 3.847 0 7.064-3.846 8.681-7.278 1.96-4.188 2.319-10.46.234-15.493-2.516-6.02 7.243-13.39 9.292-16.984.396-.683-1.168-1.007-2.552-1.007-.593 0-1.15.054-1.492.18-5.607 1.923-11.215 7.53-15.295 13.983a.65.65 0 0 1-.575.323.658.658 0 0 1-.665-.647c-.054-1.348-.126-2.893-.126-4.762-.018-9.562-2.678-12.69-3.415-13.714-.072-.09-.144-.125-.215-.125M535.282 324.73c-.072-.054-.126-.09-.198-.09-1.006 0-1.114 7.639-1.204 8.322-.413 3.702-1.87 7.296-3.091 10.693a.682.682 0 0 1-.647.45c-.288 0-.593-.18-.647-.54-1.222-6.631-4.35-13.048-8.95-16.139-.558-.377-2.086-.79-3.074-.79-.558 0-.935.125-.881.466.7 4.278 3.864 9.418 2.085 13.732-.575 1.365-1.474 2.552-2.121 3.864-.611 1.258-1.186 2.534-1.671 3.846-.845 2.264-1.6 4.78-1.42 7.225.233 3.648 2.174 8.25 6.847 8.25.72 0 1.528-.108 2.39-.36 1.636-.467 2.984-1.402 4.063-2.678.233-.288.557-.413.898-.413.468 0 .953.287 1.15.79.774 1.977 2.247 3.361 5.32 4.53.54.197 1.043.287 1.528.287 2.14 0 3.847-1.761 5.069-3.684.234-.378.629-.575 1.024-.575.468 0 .935.27 1.15.772.881 2.103 2.265 3.685 4.206 4.494 1.007.413 1.96.593 2.822.593 4.547 0 7.261-5.069 8.142-9.202.97-4.512-.09-10.712-3.253-15.133-3.792-5.302 4.044-14.684 5.23-18.638.144-.45-.36-.63-1.06-.63-1.025 0-2.48.36-3.074.72-5.014 3.127-9.238 9.867-11.754 17.074a.646.646 0 0 1-.63.467.664.664 0 0 1-.646-.503 97.263 97.263 0 0 1-1.187-4.62c-2.174-9.309-5.463-11.753-6.416-12.58M528.623 317.041a1.16 1.16 0 0 1 1.06-.647c.378 0 .773.18 1.025.54 1.204 1.76 2.947 2.785 6.2 3.217.216.036.432.054.63.054 2.642 0 4.17-2.39 5.032-4.835a1.2 1.2 0 0 1 1.15-.827c.378 0 .755.18 1.007.54 1.33 1.833 3.037 3.073 5.122 3.414.486.09.935.126 1.384.126 5.59 0 7.423-6.29 7.351-10.963-.054-4.637-2.48-10.425-6.578-14.02-4.889-4.313.647-15.222.917-19.338.018-.323-.216-.449-.575-.449-.953 0-2.822.863-3.433 1.474-4.188 4.17-6.776 11.682-7.603 19.266a.678.678 0 0 1-.683.612.634.634 0 0 1-.575-.36 93.748 93.748 0 0 1-2.193-4.223c-4.224-8.591-7.98-10.227-9.094-10.82a.29.29 0 0 0-.162-.054c-1.078 0 .575 7.692.665 8.393.413 3.703-.198 7.53-.629 11.125a.66.66 0 0 1-.665.593.628.628 0 0 1-.611-.413c-2.678-6.165-7.171-11.736-12.348-13.713-.36-.126-1.042-.216-1.725-.216-1.186 0-2.427.234-2.193.809 1.636 3.99 5.877 8.303 5.105 12.904-.234 1.438-.863 2.804-1.187 4.242a40.447 40.447 0 0 0-.773 4.116c-.305 2.408-.467 5.014.252 7.369.935 3.109 3.361 6.667 7.081 6.667 1.115 0 2.355-.323 3.685-1.06 1.492-.827 2.606-2.03 3.361-3.523M521.725 272.912c.287 0 .593.108.827.323 1.312 1.205 2.857 1.816 5.23 1.816.485 0 .988-.018 1.546-.072 3.055-.288 4.133-3.163 4.439-5.931a1.205 1.205 0 0 1 1.204-1.097c.288 0 .593.09.845.324 1.581 1.384 3.36 2.193 5.302 2.193.144 0 .305 0 .45-.018 6.757-.414 7.278-7.639 6.074-12.527-1.114-4.493-4.78-9.598-9.562-12.186-5.733-3.11-2.803-14.971-3.468-19.05-.036-.234-.18-.324-.414-.324-.862 0-2.75 1.437-3.253 2.228-3.145 5.015-3.99 12.905-3.073 20.49a.687.687 0 0 1-.683.772.628.628 0 0 1-.486-.234 120.123 120.123 0 0 1-3.09-3.63c-6.04-7.423-10.084-8.178-11.288-8.501-.036-.018-.072-.018-.108-.018-1.24 0 2.21 7.35 2.462 8.034 1.24 3.504 1.51 7.386 1.888 10.963a.669.669 0 0 1-.665.755.689.689 0 0 1-.54-.27c-3.99-5.428-9.615-9.813-15.097-10.586-.09-.018-.18-.018-.288-.018-1.24 0-3.918.737-3.415 1.456 2.499 3.54 7.603 6.776 7.89 11.449.09 1.455-.215 2.93-.215 4.385 0 1.402.036 2.804.18 4.206.251 2.39.683 4.978 1.887 7.099 1.438 2.498 4.062 5.05 7.153 5.05 1.456 0 3.02-.575 4.62-1.995 1.275-1.15 2.066-2.57 2.48-4.188.143-.575.647-.898 1.168-.898M504.53 207.765a.675.675 0 0 1-.63.916.712.712 0 0 1-.395-.144c-.413-.305-.88-.647-1.365-.988l-8.214 6.326c.431 1.222.845 2.445 1.258 3.63.18.486-.216.9-.63.9a.679.679 0 0 1-.43-.162c-.935-.81-1.96-1.528-2.966-2.229l-7.62 5.86c.161.34.359.682.467 1.06.413 1.401.449 2.893.772 4.33.324 1.367.665 2.715 1.133 4.045.773 2.282 1.761 4.709 3.433 6.506 1.671 1.797 4.223 3.45 6.793 3.45 1.87 0 3.757-.844 5.356-3.127.989-1.401 1.438-2.983 1.474-4.637.018-.7.593-1.168 1.222-1.168.198 0 .414.054.594.162 1.006.557 2.049.863 3.289.863 1.06 0 2.264-.216 3.702-.701 2.912-.97 3.307-4.008 3.002-6.776a1.208 1.208 0 0 1 1.204-1.366c.198 0 .413.054.61.144 1.349.737 2.733 1.132 4.099 1.132.665 0 1.33-.09 1.995-.287 6.488-1.941 5.374-9.077 3.11-13.588-2.104-4.115-6.813-8.267-12.06-9.705-1.007-.288-1.816-.899-2.517-1.636l-7.171 5.518c.161.557.287 1.132.485 1.672" style="stroke-width:17.973"/><path fill="#296854" d="M499.679 205.703c-7.549-5.877-11.647-5.697-12.905-5.751h-.018c-1.51 0 3.72 6.668 4.116 7.279 1.312 2.049 2.229 4.35 3.056 6.65l8.213-6.327c-.755-.557-1.563-1.15-2.462-1.85M505.72 184.174c-.791 0-2.48 1.995-2.804 2.93-1.78 5.157-1.024 12.257 1.114 18.996l7.19-5.535c-3.72-3.864-3.847-12.94-5.159-16.14-.072-.18-.18-.251-.341-.251M478.206 211.271c-.395 0-.79.018-1.186.054-1.042.09-3.99 1.6-3.27 2.229 2.965 2.642 7.943 4.583 9.794 8.32l7.603-5.858c-4.116-2.84-8.735-4.745-12.94-4.745M486.544 188.1c-.305-.844.342-1.635 1.15-1.635.108 0 .234.018.342.036.88.234 1.725.36 2.552.36 1.276 0 2.48-.288 3.577-.917 5.895-3.343 3.2-10.065-.018-13.929-2.966-3.558-8.501-6.524-13.947-6.758-6.507-.27-9.077-12.221-11.45-15.6-.09-.126-.197-.18-.305-.18-.773 0-2.067 2.48-2.175 3.505-.61 5.877 2.085 13.336 6.22 19.77.305.467-.055 1.042-.54 1.042a.722.722 0 0 1-.27-.053 115.174 115.174 0 0 1-4.367-1.906c-5.32-2.462-8.86-3.019-11.09-3.019-1.42 0-2.3.234-2.785.324-1.546.305 5.104 5.66 5.625 6.164 2.66 2.606 4.601 5.985 6.524 9.04.306.468-.09 1.025-.557 1.025a.705.705 0 0 1-.323-.072c-4.242-2.229-9.005-3.613-13.3-3.613-1.744 0-3.397.234-4.925.72-.988.323-3.523 2.462-2.678 2.929 3.792 2.067 9.795 2.75 12.096 6.812.719 1.276 1.096 2.731 1.743 4.043.611 1.259 1.258 2.499 1.995 3.685 1.276 2.049 2.786 4.187 4.817 5.571a12.157 12.157 0 0 0 3.864 1.726l8.61-6.74a9.615 9.615 0 0 0-.162-2.265c-.18-.772.45-1.437 1.186-1.437.126 0 .234.018.36.054.629.18 1.24.287 1.887.287.413 0 .88-.144 1.312-.234l5.553-4.349c.252-1.384 0-2.947-.52-4.385M470.365 207.451c2.39 0 4.673-1.15 6.003-4.421a8.36 8.36 0 0 0 .557-2.588l-8.591 6.722c.665.162 1.348.287 2.03.287" style="stroke-width:17.973"/><path fill="#296854" d="M485.157 195.376c1.186-.719 1.707-1.743 1.905-2.894l-5.554 4.35c1.097-.216 2.265-.611 3.649-1.456M450.548 157.638c-.54-.827.071-1.887 1.042-1.887h.504c2.084 0 3.953-.593 5.391-1.923 4.997-4.583.863-10.532-3.145-13.57-2.966-2.228-7.423-3.738-11.844-3.738-1.097 0-2.193.09-3.272.288-.323.072-.647.09-.97.09-5.95 0-10.784-10.101-13.696-12.707a.432.432 0 0 0-.27-.108c-.772 0-1.509 2.84-1.383 3.882.7 5.877 5.014 12.545 10.496 17.883a.666.666 0 0 1-.45 1.15c-.035 0-.09 0-.125-.018-1.33-.215-2.858-.485-4.691-.862-3.001-.647-5.428-.863-7.351-.863-4.08 0-5.985 1.006-6.758 1.348-1.438.647 6.237 4.367 6.866 4.745 3.181 1.959 5.823 4.798 8.393 7.332.432.45.09 1.169-.467 1.169a.641.641 0 0 1-.18-.036c-2.75-.72-5.607-1.097-8.34-1.097-3.774 0-7.314.737-10.064 2.39-.899.54-2.894 3.182-1.96 3.434 4.17 1.168 10.173.485 13.319 3.936.988 1.078 1.69 2.408 2.606 3.54a38.69 38.69 0 0 0 2.786 3.145c1.707 1.708 3.666 3.451 5.949 4.35 1.276.485 2.786.827 4.277.827 3.092 0 6.075-1.438 6.776-5.877.27-1.69 0-3.29-.7-4.8-.378-.808.233-1.707 1.114-1.707h.072c.161 0 .323.018.467.018 1.941 0 3.72-.808 5.895-2.93 2.193-2.156 1.222-5.05-.287-7.404M405.025 147.464c2.103-.342 3.757-1.51 5.536-4.26 1.653-2.588.054-5.194-1.941-7.153-.72-.7-.342-1.905.647-2.085 2.228-.431 4.062-1.456 5.266-3.199 3.828-5.59-1.528-10.442-6.129-12.509-2.175-.97-4.87-1.51-7.674-1.51-2.66 0-5.392.486-7.819 1.546-.7.324-1.438.45-2.175.45-5.535 0-11.772-7.675-14.971-9.436a.47.47 0 0 0-.198-.054c-.827 0-.934 3.091-.557 4.116 2.013 5.553 7.71 11.089 14.253 15.043.557.341.36 1.204-.306 1.24-1.348.09-2.894.18-4.763.215-9.561.18-12.635 2.894-13.641 3.649-1.258.952 7.063 2.858 7.764 3.073 3.523 1.186 6.74 3.361 9.813 5.266.576.36.324 1.24-.341 1.24h-1.025c-6.398 0-12.868 1.744-16.643 5.392-.755.737-2.103 3.756-1.132 3.81h.647c2.426 0 5.23-.557 7.854-.557 1.96 0 3.81.306 5.356 1.384 1.205.827 2.175 1.96 3.343 2.858a34.77 34.77 0 0 0 3.415 2.444c2.05 1.294 4.35 2.552 6.758 2.894.575.09 1.186.125 1.815.125 3.883 0 8.232-1.797 7.837-7.53-.108-1.69-.755-3.217-1.78-4.53-.557-.718-.107-1.779.791-1.922M345.59 531.113s.557 0 1.51.054a13.402 13.402 0 0 0 1.33-5.823c0-.09-.019-.18-.019-.27l-.503.27h-2.318v-5.428l1.402-.63c-1.762-3.468-4.943-5.804-8.61-5.804-3.666 0-6.83 2.336-8.59 5.805l1.401.629v5.428h-2.336l-.486-.27c0 .09-.018.18-.018.27 0 2.138.504 4.097 1.33 5.823.953-.054 1.51-.054 1.51-.054l3.415 4.96c-.144.018-.252.036-.395.036 1.276.701 2.678 1.115 4.17 1.115 1.491 0 2.911-.414 4.187-1.115-.144 0-.27-.018-.395-.036z" style="stroke-width:17.973"/><path fill="#296854" d="M329.685 531.169c-1.851.09-5.302.341-9.723 1.06-.036-.09-.072-.162-.108-.252-2.624-4.942 2.606-7.368 2.606-7.368s.36-.252.827-.917a1.385 1.385 0 0 1 1.797-.413l3.29 1.797a13.29 13.29 0 0 1 1.42-5.787l-3.488-1.546c-.449-.198-.7-.683-.647-1.168.881-6.398-5.805-11.053-9.885-11.629-4.062-.575-4.943-3.199-8.43-2.03-3.486 1.15-2.03 7.26-.575 12.49 1.456 5.249.288 5.249-5.535 6.686-6.974 4.368-3.2 6.992 0 7.28 3.199.287 7.279 1.545 7.279 1.545l2.103 3.253c-10.155 2.66-22.143 7.62-31.094 16.876-.233.234-.036.647.306.63l10.963-.953c.845-.072 1.582.611 1.582 1.474v9.453c0 .378.503.521.7.198 2.949-5.086 15.674-24.03 41.142-25.737-1.924-1.042-3.487-2.786-4.53-4.942" style="stroke-width:17.973"/><path fill="#296854" d="M331.19 531.113s-.558 0-1.51.054c1.042 2.157 2.624 3.9 4.53 4.942.143 0 .269-.018.395-.036zM328.864 525.345h2.318v-5.427l-1.384-.63a13.556 13.556 0 0 0-1.437 5.788zM388.511 543.879c-7.243-4.799-15.223-7.836-22.358-9.705l2.12-3.271s4.063-1.24 7.262-1.528c3.199-.306 6.973-2.912 0-7.279-5.824-1.456-6.974-1.456-5.518-6.686 1.456-5.23 2.894-11.34-.593-12.49-3.487-1.17-4.35 1.437-8.43 2.03-4.061.575-10.747 5.23-9.885 11.628a1.11 1.11 0 0 1-.647 1.169l-3.469 1.545a13.811 13.811 0 0 1 1.42 5.787l3.29-1.815a1.397 1.397 0 0 1 1.779.414c.485.683.826.916.826.916s5.23 2.445 2.625 7.387c-.054.09-.072.162-.108.234-4.44-.701-7.89-.953-9.742-1.043-1.024 2.157-2.606 3.9-4.529 4.943 25.486 1.707 38.193 20.65 41.159 25.737.197.323.683.18.683-.198V552.2c0-.862.736-1.545 1.6-1.473l10.945.952c.341.018.539-.395.305-.629-.665-.683-1.366-1.294-2.049-1.923-3.02-.935-5.32-2.768-6.686-5.248" style="stroke-width:17.973"/><path fill="#296854" d="M395.197 549.121a56.07 56.07 0 0 0-6.686-5.248c1.366 2.498 3.667 4.313 6.686 5.248M347.09 531.169c-.952-.054-1.51-.054-1.51-.054l-3.414 4.96c.144.018.27.036.395.036 1.923-1.042 3.487-2.786 4.53-4.942M345.59 525.345h2.318l.503-.27a13.29 13.29 0 0 0-1.42-5.786l-1.401.629zM313.524 566.648c-.18 0-.288-.036-.342-.107-.072-.072-.108-.198-.108-.378v-13.3l-1.42 1.366c-.251.234-.43.252-.575.072l-1.383-1.563c-.09-.108-.108-.198-.072-.288.036-.09.125-.198.27-.323l3.576-3.343a.881.881 0 0 1 .575-.216h1.528c.341 0 .539.036.61.126.055.072.09.305.09.7v16.77a.73.73 0 0 1-.09.377c-.071.072-.179.107-.359.107zM329.202 557.702c.88 0 1.581-.27 2.067-.791.503-.521.755-1.258.755-2.175 0-.467-.072-.934-.216-1.348-.144-.431-.324-.809-.557-1.096a2.69 2.69 0 0 0-.827-.737 2.255 2.255 0 0 0-1.007-.252c-.79 0-1.455.288-1.977.863-.52.575-.772 1.366-.772 2.408 0 1.007.215 1.762.665 2.319.449.539 1.078.809 1.869.809m.251-9.292c1.924 0 3.361.719 4.332 2.157.988 1.455 1.474 3.612 1.474 6.488 0 1.294-.126 2.552-.396 3.738s-.7 2.229-1.312 3.11c-.593.898-1.402 1.617-2.408 2.138-1.007.521-2.229.79-3.685.79-.215 0-.467 0-.737-.017-.27-.018-.539-.054-.808-.09-.252-.036-.522-.072-.773-.126a3.404 3.404 0 0 1-.647-.162c-.162-.054-.234-.125-.27-.215a1.125 1.125 0 0 1-.036-.288l.108-2.228c0-.162.054-.252.144-.27.09-.018.233 0 .45.072.269.072.502.144.718.18.198.053.413.09.593.125l.611.054h.737c1.312 0 2.319-.413 3.038-1.24.719-.827 1.15-1.94 1.294-3.325-.324.396-.755.701-1.312.935-.557.233-1.079.36-1.546.36a5.575 5.575 0 0 1-2.12-.414 5.046 5.046 0 0 1-1.744-1.168 5.792 5.792 0 0 1-1.168-1.87c-.288-.736-.432-1.545-.432-2.444 0-.88.144-1.707.414-2.48a5.79 5.79 0 0 1 1.168-1.995 5.619 5.619 0 0 1 1.869-1.33c.719-.324 1.528-.485 2.444-.485M349.866 551.203a212.493 212.493 0 0 1-1.528 3.972c-.503 1.258-1.007 2.498-1.492 3.72l-1.51 3.613a191.472 191.472 0 0 0-1.51 3.666c-.071.234-.143.36-.215.413-.072.036-.216.054-.431.054h-2.265c-.252 0-.413-.036-.485-.126-.054-.09-.036-.27.09-.575l5.697-14.252h-6.83c-.198 0-.341-.036-.431-.108-.072-.072-.108-.215-.108-.45v-1.886c0-.252.036-.396.108-.468.072-.053.216-.09.431-.09h9.85c.27 0 .449.037.539.108.09.072.143.234.143.468v1.653a.746.746 0 0 1-.053.288M365.033 551.203a212.564 212.564 0 0 1-1.528 3.972 397.766 397.766 0 0 1-1.51 3.72c-.485 1.204-.988 2.408-1.491 3.613a191.342 191.342 0 0 0-1.51 3.666c-.072.234-.144.36-.216.413-.071.036-.215.054-.43.054h-2.266c-.251 0-.43-.036-.485-.126-.054-.09-.036-.27.09-.575l5.68-14.252h-6.812c-.216 0-.342-.036-.432-.108-.071-.072-.107-.215-.107-.45v-1.886c0-.252.036-.396.107-.468.072-.053.216-.09.432-.09h9.849c.27 0 .45.037.54.108.09.072.143.234.143.468v1.653a.746.746 0 0 1-.054.288M242.154 58.276c-.162-1.204-.7-2.894-1.635-5.158l-3.487-8.34-.54-.61-.772.035-35.497 14.756-.396.18 2.283 5.463 28.99-12.077c.45-.18.576-.144.576-.144.018.018.144.054.305.467l1.115 2.696c.844 1.995 1.42 3.667 1.743 4.943a9.052 9.052 0 0 1 .126 3.468c-.485.198-33.107 13.785-33.107 13.785l2.265 5.464s18.62-7.746 19.375-8.07c.288.683 2.624 6.29 2.912 6.974-.755.305-13.624 5.661-13.624 5.661l2.265 5.464 28.128-11.7s.09-.018.107-.018c0 .018.054.09.054.09l5.123 12.31 7.279-3.019-7.064-16.984-.52-.575-.792.036s-12.455 5.194-13.21 5.5c-.287-.683-2.624-6.273-2.912-6.956.773-.323 19.34-8.051 19.34-8.051l-2.283-5.464s-5.086 2.12-6.219 2.588c.144-.88.198-1.797.072-2.714M340.313 61.72h-8.106v-5.985h8.106zm-29.17-11.898v5.913h13.461v5.985h-7.459v5.913h30.231s.09.018.108.018c0 .018.018.108.018.108V77.5h7.872V62.727l-.251-.737-.737-.27h-6.47v-5.985h13.48v-5.913h-.45zM332.234 31.237c1.096-1.186 2.426-1.761 4.026-1.761 1.617 0 2.93.575 4.026 1.76 1.114 1.205 1.653 2.643 1.653 4.422 0 1.708-.557 3.181-1.653 4.385-1.097 1.205-2.409 1.798-4.026 1.798-1.6 0-2.93-.593-4.026-1.798-1.096-1.204-1.654-2.677-1.654-4.385 0-1.78.54-3.217 1.654-4.421m-5.446 13.084c2.642 2.354 5.823 3.559 9.472 3.559 3.648 0 6.83-1.205 9.472-3.559 2.642-2.39 3.99-5.302 3.99-8.663 0-3.379-1.348-6.29-3.99-8.663-2.642-2.354-5.824-3.558-9.472-3.558-3.649 0-6.83 1.204-9.472 3.558-2.642 2.373-3.972 5.284-3.972 8.663 0 3.361 1.33 6.273 3.972 8.663M166.473 105.308c-1.564-.557-2.804-1.528-3.685-2.876-.862-1.366-1.204-2.894-.988-4.547.197-1.636.845-2.786 1.959-3.505 1.186-.773 2.498-.862 4.026-.323 1.546.557 2.786 1.527 3.684 2.93.863 1.347 1.223 2.857 1.06 4.493-.161 1.617-.808 2.75-1.994 3.522-1.186.755-2.517.863-4.062.306M179.396 102c.844-3.38.341-6.524-1.456-9.31a11.49 11.49 0 0 0-2.714-2.948c-.827-.629-1.744-1.096-2.678-1.491 1.06-.665 5.014-3.217 5.014-3.217L174.4 80.11s-10.047 6.452-10.73 6.884c-.395-.647-3.63-5.644-3.63-5.644l-.36.234-6.399 4.116v.017l-.736.468s.719-.216 1.6.88c.988 1.528 2.497 3.865 2.767 4.278-.683.45-10.622 6.83-10.622 6.83l3.163 4.942s3.882-2.498 4.907-3.163c-.018 1.006.036 2.03.252 3.037a11.74 11.74 0 0 0 1.545 3.703c1.798 2.785 4.458 4.547 7.872 5.194 3.415.629 6.65 0 9.634-1.923 2.966-1.905 4.907-4.601 5.734-7.962M181.069 68.178l-.36.234-6.039 3.882-.719.467s.683-.18 1.528.773l19.68 30.625 6.381-4.116-9.705-15.115c.647-.413 6.147-3.936 6.147-3.936l-3.218-4.978s-5.481 3.523-6.129 3.936c-.43-.683-7.566-11.772-7.566-11.772M184.58 120.47l-.25-.215-6.13-9.543-.377.233-5.716 3.685-1.204.772s.755-.233 1.654.935l5.967 9.256c.916 1.42 1.94 2.264 3.091 2.498 1.132.234 2.409-.108 3.793-.988l24.191-15.565-3.199-4.978-21.514 13.82zM285.816 65.396h.036c-.916-.09-2.049-.396-3.36-.935-1.295-.539-2.589-1.474-3.847-2.786-1.006-1.06-1.923-2.444-2.732-4.115-.827-1.654-1.456-3.739-1.905-6.2l-.665-3.721c.755-.126 7.351-1.312 7.351-1.312l-1.06-5.823s-6.579 1.186-7.333 1.312c-.144-.773-1.492-8.268-1.492-8.268l-.432.072-6.721 1.204-.558.108-.844.144s.7.09 1.114 1.33a951.904 951.904 0 0 0 1.222 6.794c-.755.143-7.35 1.33-7.35 1.33l1.06 5.823s6.578-1.187 7.333-1.312c.125.683.665 3.702.665 3.702.43 2.372.557 4.511.395 6.308-.18 1.816-.521 3.415-1.024 4.763-.701 1.761-1.582 3.145-2.643 4.116-1.078.988-2.048 1.69-2.93 2.103.019 0-.466.485-.466.485-.036.126-.09.45.323.737.018 0 4.493 2.822 4.493 2.822l.198-.072c1.222-.378 2.696-1.438 4.457-3.217 1.762-1.762 2.858-3.918 3.272-6.417 1.42 2.193 3.253 3.793 5.463 4.817 2.229 1.042 3.918 1.546 5.123 1.528h.215l3.307-4.314h.054l.036-.503c-.054-.144-.215-.485-.755-.503" style="stroke-width:17.973"/><path fill="#296854" d="m282.342 30.946-.863.161s.737.09 1.15 1.402c.81 4.511 3.11 17.308 3.236 17.991-.773.144-7.693 1.384-7.693 1.384l1.06 5.823s6.902-1.24 7.675-1.384c.144.827 4.71 26.24 4.71 26.24l7.045-1.276-9.274-51.6-.432.073zM291.731 29.256l-.862.162s.755.09 1.15 1.456l8.986 50 7.046-1.276-9.274-51.6-.432.072zM411.425 33.66l-1.402-.288s.648.342.558 1.671c-.791 3.865-2.822 13.875-2.948 14.54-.611-.125-2.732-.557-3.325-.683.162-.808 3.253-16.031 3.253-16.031l-6.578-1.33v-.018l-1.402-.27s.647.342.54 1.708c-1.223 5.985-5.626 27.642-5.716 28.145-.72.144-1.546.198-2.498.18-1.097-.054-2.427-.216-3.973-.54l-10.514-2.12a.73.73 0 0 1-.413-.27c-.036-.036-.126-.18-.054-.54 0 0 3.918-19.32 4.08-20.146.809.18 12.922 2.641 12.922 2.641l1.187-5.805-20.454-4.17s-.18.881-.215 1.097c-.611 2.965-.81 4.026-.827 4.44 0-.037-.036-.09-.036-.09l-4.008 19.733c-.503 2.463-.288 4.422.665 5.842.934 1.42 2.57 2.372 4.889 2.84l9.4 1.904c2.156.45 3.99.737 5.391.863 1.187.126 2.283.09 3.272-.036-.216 1.078-3.254 16.032-3.254 16.032l7.118 1.437s5.859-28.864 6.039-29.69l3.325.683c-.18.826-6.04 29.69-6.04 29.69l7.136 1.438 10.46-51.527-.43-.072zM436.067 65.362c-.36-1.51-.216-3.038.43-4.512.648-1.473 1.69-2.57 3.11-3.27 1.402-.684 2.66-.773 3.847-.252 1.294.575 2.084 1.563 2.426 3.037.36 1.492.198 3.02-.467 4.53-.647 1.473-1.654 2.587-3.02 3.324-1.33.701-2.606.773-3.882.216-1.294-.575-2.085-1.582-2.444-3.073m9.651 8.806c3.217-1.132 5.518-3.235 6.848-6.236.521-1.169.827-2.39.935-3.613.071-.97-.072-1.905-.216-2.84l5.482 2.409 2.354-5.356s-10.91-4.817-11.646-5.14c.305-.683 2.588-5.86 2.588-5.86l-.414-.179-6.47-2.858h.018l-1.312-.575s.593.485.144 1.851a551.705 551.705 0 0 0-1.923 4.386c-.755-.342-11.557-5.105-11.557-5.105l-2.373 5.374 5.392 2.373c-.79.503-1.581 1.042-2.246 1.743a11.161 11.161 0 0 0-2.031 3.127c-1.33 3.002-1.33 6.129.018 9.274 1.33 3.127 3.612 5.428 6.776 6.83 3.18 1.402 6.416 1.528 9.633.395M460.138 87.522l-31.83-14.037-.396-.161-2.39 5.41 26.33 11.61s.072.054.09.054c0 .018-.036.107-.036.107L446.3 103.23l7.225 3.181 7.405-16.84c.198-.414.198-.809.054-1.186-.144-.396-.432-.683-.845-.863M474.673 58.406l-.395-.18-6.04-2.66-1.311-.575s.539.45.215 1.654l-11.988 27.193 6.956 3.055s5.338-12.078 5.661-12.833c.701.306 6.668 2.948 6.668 2.948l2.624-5.949s-5.967-2.624-6.668-2.93l4.278-9.723M519.146 96.448s.018.144-.234.486l-5.86 8.303c-.179.27-.377.54-.556.809-1.96 2.75-3.703 4.942-5.213 6.488-1.635 1.69-3.432 2.983-5.32 3.828l-.7.323 6.236 4.386.216-.09c1.94-.827 3.792-2.067 5.518-3.702 1.689-1.618 3.648-3.99 5.823-7.064l9.418-13.317.233-.773-.467-.63-30.806-21.746-.341-.252-3.433 4.817 25.054 17.72c.396.27.432.414.432.414" style="stroke-width:17.973"/><path fill="#296854" d="M497.024 119.414c.486-.683 11.935-16.876 11.935-16.876l-.36-.252-5.715-4.043-.72-.504s.45.593-.179 1.78c-2.714 3.81-10.64 15.043-11.036 15.6-.539-.377-3.09-2.193-3.648-2.57.485-.683 11.934-16.876 11.934-16.876l-6.075-4.296-.719-.503s.468.593-.197 1.797a45558.103 45558.103 0 0 1-11 15.582c-.683-.467-10.317-7.279-10.317-7.279l-3.45 4.871 40.996 28.972 3.451-4.87s-14.217-10.047-14.9-10.533M80.061 256.138l-2.03 8.124-16.356-4.08 12.94 17.793-2.462 9.867-14.306-20.147-25.936 11.88 2.606-10.46 18.53-8.268-2.48-3.433-12.365-3.091 2.03-8.124zM47.553 314.583l2.157.234c8.286.863 12.905-3.073 13.48-8.519.521-4.943-3.271-9.939-11.27-10.784l-2.102-.233c-8.501-.88-13.264 3.217-13.803 8.429-.522 4.942 3.54 10.029 11.538 10.873m3.703-27.731.899.09c13.264 1.401 19.464 10.801 18.458 20.362-.989 9.274-8.411 17.47-22.233 16.014l-.952-.108c-13.372-1.402-19.825-11.125-18.836-20.507.97-9.148 8.95-17.29 22.664-15.851M49.762 344.576c.144 4.08 2.211 7.19 6.29 7.028 3.56-.126 5.537-2.93 5.375-7.441l-.18-4.583-11.646.413zm18.387-13.515.503 13.839c.342 9.202-4.278 14.683-12.024 14.953-5.536.198-9.94-2.822-11.808-6.722l-16.536 11.035-.341-9.65 14.828-8.79-.198-5.463-15.133.539-.288-8.267zM70.08 367.396l4.025 24.479-7.387 1.204-2.678-16.265-8.43 1.402 2.355 14.324-6.991 1.15-2.355-14.324-10.37 1.69 2.732 16.642-7.333 1.222-4.08-24.874zM55.368 416.654l2.409 7.962 11.233-7.782zm23.473-6.65 2.373 7.8-34.994 26.007-2.732-9.023 8.106-5.787-3.793-12.509-9.867-.036-2.696-8.86zM93.734 450.713l4.798 8.77-17.416 24.947 23.905-13.084 3.918 7.153-36.018 19.716-4.601-8.43 17.757-25.592-24.443 13.39-3.919-7.154zM99.963 508.043l4.997 6.65 7.89-11.161zm19.789-14.288 4.888 6.524-23.976 36.43-5.661-7.548 5.625-8.213-7.836-10.46-9.292 3.342-5.572-7.422zM116.51 553.221l-5.878-6.129 24.066-23.076-7.818-8.142 5.571-5.32 21.532 22.448-5.571 5.32-7.837-8.178zM158.897 536.923l6.435 5.536-26.763 31.129-6.434-5.536zM180.91 580.705l1.24-1.797c4.71-6.848 3.452-12.797-1.06-15.906-4.098-2.822-10.298-1.87-14.863 4.763l-1.205 1.743c-4.834 7.045-3.504 13.174.827 16.157 4.098 2.804 10.514 1.672 15.062-4.96m-22.61-16.499.503-.737c7.566-11 18.8-11.952 26.708-6.506 7.692 5.284 11.34 15.726 3.469 27.193l-.54.772c-7.62 11.09-19.249 12.114-27.013 6.776-7.603-5.23-10.946-16.14-3.128-27.498M205.02 570.45l8.986 4.385.162 30.428 11.97-24.479 7.333 3.577-18.045 36.88-8.627-4.224-.251-31.147-12.24 25.036-7.333-3.576zM243.188 613.695l7.926 2.552V602.57zm7.908-23.095 7.764 2.498 1.438 43.602-8.986-2.894-.126-9.975-12.438-4.007-5.661 8.105-8.825-2.857zM276.72 598.18l8.232 1.491-5.95 33.07 17.47 3.145-1.33 7.315-25.701-4.637zM324.583 643.054l2.103-7.854c2.552 1.69 7.369 3.505 11.287 3.45 4.852-.071 7.117-2.012 7.081-4.582-.054-2.948-1.582-4.044-5.949-5.033l-4.601-1.168c-5.374-1.24-9.67-4.475-9.796-11.503-.09-6.542 5.015-11.987 14.505-12.131 5.464-.09 10.298 1.564 12.276 2.822l-2.175 7.404c-2.14-1.258-5.572-2.821-9.76-2.75-3.792.054-6.344 1.6-6.308 4.008.036 2.283.898 3.793 4.763 4.727l4.493.989c6.219 1.527 10.838 4.187 10.964 11.502.125 7.639-5.213 13.372-14.756 13.516-5.518.09-11.252-1.815-14.127-3.397M373.786 622.312c4.979-.647 7.44-3.793 6.956-7.495-.54-4.152-3.613-5.68-8.43-5.05l-4.475.593 1.635 12.509zm-15.08-18.027 14.056-1.833c9.148-1.204 15.15 2.462 16.247 10.945 1.169 8.969-4.35 14.594-12.365 15.636l-6.273.827 1.833 14.055-8.195 1.078zM424.887 613.086l-.575-2.103c-2.247-8.015-7.62-10.855-12.887-9.381-4.78 1.33-8.034 6.704-5.877 14.45l.557 2.03c2.3 8.232 7.873 11.144 12.923 9.742 4.78-1.348 8.016-6.991 5.86-14.738m-27.158 6.758-.234-.863c-3.594-12.85 2.876-22.07 12.132-24.658 8.987-2.498 19.34 1.402 23.078 14.791l.251.917c3.613 12.958-3.055 22.52-12.132 25.054-8.878 2.48-19.393-1.96-23.095-15.241M452.036 599.932c3.72-1.653 5.841-4.727 4.205-8.447-1.455-3.271-4.798-4.044-8.932-2.229l-4.188 1.852 4.727 10.675zm-19.375-12.06 12.653-5.607c8.43-3.72 15.223-1.474 18.368 5.625 2.229 5.05 1.06 10.263-1.869 13.462l16.392 11.233-8.825 3.918-13.678-10.496-5.014 2.21 6.129 13.84-7.567 3.342zM501.548 598.904l-7.261 4.403-17.29-28.504-9.652 5.84-3.99-6.577 26.6-16.14 3.99 6.596-9.687 5.877zM524.57 562.635l-16.697-18.098 6.165-5.68 15.672 17.002c5.644 6.111 9.49 5.68 12.851 2.57 3.2-2.947 3.739-6.488-1.887-12.598l-15.709-17.038 6.201-5.716 16.464 17.847c7.71 8.375 7.26 16.787.233 23.257-7.153 6.578-15.798 6.578-23.293-1.546M536.218 517.709l6.309-7.764 29.692 6.721-21.155-17.2 5.14-6.326 31.849 25.917-6.057 7.44-30.41-6.793 21.64 17.595-5.16 6.326zM560.223 486.661l4.655-7.1 34.347 22.503-4.655 7.099zM567.928 475.958l4.188-8.141 32.675 5.338-23.257-23.599 4.098-7.943 29.943 31.578-4.6 8.932zM586.619 438.174l8.357-23.346 7.046 2.534-5.554 15.51 8.052 2.876 4.889-13.677 6.686 2.39-4.907 13.677 9.885 3.541 5.698-15.87 6.991 2.498-8.5 23.706zM618.284 399.515c.88-3.99-.36-7.513-4.332-8.376-3.486-.773-6.093 1.456-7.063 5.877l-.989 4.476 11.395 2.498zm-21.19 8.5 2.965-13.533c1.977-8.986 7.8-13.138 15.385-11.484 5.41 1.186 8.915 5.212 9.76 9.453l18.764-6.56-2.067 9.436-16.554 4.817-1.168 5.356 14.774 3.235-1.761 8.07zM642.132 377.238l-7.584-2.912c1.94-2.354 4.241-6.955 4.583-10.855.431-4.835-1.258-7.279-3.828-7.513-2.948-.251-4.188 1.15-5.626 5.392l-1.618 4.457c-1.797 5.212-5.445 9.166-12.455 8.555-6.506-.575-11.395-6.218-10.568-15.672.467-5.446 2.624-10.082 4.062-11.916l7.153 2.93c-1.474 1.995-3.379 5.248-3.738 9.418-.342 3.792.934 6.47 3.325 6.685 2.282.198 3.864-.503 5.194-4.26l1.456-4.349c2.139-6.038 5.266-10.352 12.545-9.723 7.62.665 12.779 6.56 11.934 16.068-.485 5.5-2.965 11-4.835 13.695M606.508 339.02l-.054-8.483 41.05-.234.037 8.484zM645.522 300.124l.863 8.448-33.179 3.36 1.133 11.215-7.675.773-3.127-30.949 7.674-.773 1.133 11.287zM624.984 271.17l-21.675 19.392-2.085-8.788 15.295-13.12-19.483-4.44-2.049-8.573 28.038 7.333 15.044-3.594 1.959 8.195zM181.852 196.052a2.968 2.968 0 0 1-2.965 2.965 2.968 2.968 0 0 1-2.966-2.965 2.968 2.968 0 0 1 2.966-2.966 2.968 2.968 0 0 1 2.965 2.966M194.639 206.835a2.968 2.968 0 0 1-2.966 2.965 2.968 2.968 0 0 1-2.966-2.965 2.968 2.968 0 0 1 2.966-2.966 2.968 2.968 0 0 1 2.966 2.966M494.314 196.052a2.968 2.968 0 0 0 2.966 2.965 2.968 2.968 0 0 0 2.965-2.965 2.968 2.968 0 0 0-2.965-2.966 2.968 2.968 0 0 0-2.966 2.966M481.528 206.835a2.968 2.968 0 0 0 2.965 2.965 2.968 2.968 0 0 0 2.966-2.965 2.968 2.968 0 0 0-2.966-2.966 2.968 2.968 0 0 0-2.965 2.966" style="stroke-width:17.973"/></svg>