<svg xmlns="http://www.w3.org/2000/svg" xml:space="preserve" width="800.02393" height="800" viewBox="0 0 800.02392 799.99999"><defs><radialGradient id="b" cx="0" cy="0" r="1" fx="0" fy="0" gradientTransform="matrix(205.27386 0 0 -205.27386 391.823 526.34)" gradientUnits="userSpaceOnUse" spreadMethod="pad"><stop offset="0" style="stop-opacity:1;stop-color:#6b1d21"/><stop offset="0.0393219" style="stop-opacity:1;stop-color:#6b1d21"/><stop offset="0.29213" style="stop-opacity:1;stop-color:#b74d64"/><stop offset="0.938202" style="stop-opacity:1;stop-color:#511517"/><stop offset="1" style="stop-opacity:1;stop-color:#511517"/></radialGradient><radialGradient id="c" cx="0" cy="0" r="1" fx="0" fy="0" gradientTransform="matrix(205.2616 0 0 -205.2616 391.823 526.332)" gradientUnits="userSpaceOnUse" spreadMethod="pad"><stop offset="0" style="stop-opacity:1;stop-color:#6b1d21"/><stop offset="0.0393219" style="stop-opacity:1;stop-color:#6b1d21"/><stop offset="0.29213" style="stop-opacity:1;stop-color:#b74d64"/><stop offset="0.938202" style="stop-opacity:1;stop-color:#511517"/><stop offset="1" style="stop-opacity:1;stop-color:#511517"/></radialGradient><radialGradient id="d" cx="0" cy="0" r="1" fx="0" fy="0" gradientTransform="matrix(205.28137 0 0 -205.28137 391.858 526.302)" gradientUnits="userSpaceOnUse" spreadMethod="pad"><stop offset="0" style="stop-opacity:1;stop-color:#6b1d21"/><stop offset="0.0393219" style="stop-opacity:1;stop-color:#6b1d21"/><stop offset="0.29213" style="stop-opacity:1;stop-color:#b74d64"/><stop offset="0.938202" style="stop-opacity:1;stop-color:#511517"/><stop offset="1" style="stop-opacity:1;stop-color:#511517"/></radialGradient><radialGradient id="e" cx="0" cy="0" r="1" fx="0" fy="0" gradientTransform="matrix(205.25977 0 0 -205.25977 391.82 526.334)" gradientUnits="userSpaceOnUse" spreadMethod="pad"><stop offset="0" style="stop-opacity:1;stop-color:#6b1d21"/><stop offset="0.0393219" style="stop-opacity:1;stop-color:#6b1d21"/><stop offset="0.29213" style="stop-opacity:1;stop-color:#b74d64"/><stop offset="0.938202" style="stop-opacity:1;stop-color:#511517"/><stop offset="1" style="stop-opacity:1;stop-color:#511517"/></radialGradient><radialGradient id="f" cx="0" cy="0" r="1" fx="0" fy="0" gradientTransform="matrix(205.31755 0 0 -205.31755 391.824 526.363)" gradientUnits="userSpaceOnUse" spreadMethod="pad"><stop offset="0" style="stop-opacity:1;stop-color:#6b1d21"/><stop offset="0.0393219" style="stop-opacity:1;stop-color:#6b1d21"/><stop offset="0.29213" style="stop-opacity:1;stop-color:#b74d64"/><stop offset="0.938202" style="stop-opacity:1;stop-color:#511517"/><stop offset="1" style="stop-opacity:1;stop-color:#511517"/></radialGradient><radialGradient id="g" cx="0" cy="0" r="1" fx="0" fy="0" gradientTransform="matrix(205.27869 0 0 -205.27869 391.824 526.338)" gradientUnits="userSpaceOnUse" spreadMethod="pad"><stop offset="0" style="stop-opacity:1;stop-color:#6b1d21"/><stop offset="0.0393219" style="stop-opacity:1;stop-color:#6b1d21"/><stop offset="0.29213" style="stop-opacity:1;stop-color:#b74d64"/><stop offset="0.938202" style="stop-opacity:1;stop-color:#511517"/><stop offset="1" style="stop-opacity:1;stop-color:#511517"/></radialGradient><linearGradient id="a" x1="0" x2="1" y1="0" y2="0" gradientTransform="matrix(-118.93195 -140.1212 -140.1212 118.93196 371.045 518.649)" gradientUnits="userSpaceOnUse" spreadMethod="pad"><stop offset="0" style="stop-opacity:1;stop-color:#3d3e42"/><stop offset="0.516861" style="stop-opacity:1;stop-color:#e9e9e9"/><stop offset="1" style="stop-opacity:1;stop-color:#515458"/></linearGradient></defs><path d="M299.987 539.586c-64.688 0-117.129-52.44-117.129-117.137 0-64.667 52.441-117.098 117.13-117.098 64.665 0 117.112 52.43 117.112 117.098 0 64.697-52.447 117.137-117.113 117.137" style="fill:#6b1d21;fill-opacity:1;fill-rule:nonzero;stroke:none" transform="matrix(3.41537 0 0 -3.41537 -624.53 1842.886)"/><path d="M299.987 337.726c-46.805 0-84.756 37.936-84.756 84.74 0 46.812 37.951 84.753 84.756 84.753 46.803 0 84.738-37.941 84.738-84.752 0-46.805-37.935-84.741-84.738-84.741" style="fill:#fff;fill-opacity:1;fill-rule:nonzero;stroke:none" transform="matrix(3.41537 0 0 -3.41537 -624.53 1842.886)"/><path d="m298.638 488.597-52.67-14.365V415.35l.334-5.175c.581-5.604 2.97-12.733 5.253-17.145 10.194-20.761 31.599-36.762 40.317-42.685 2.108-1.43 5.269-3.071 5.627-3.264 0 0 1.6-.832 2.635-1.367l2.632 1.367c.155.078 3.528 1.834 5.755 3.348 8.693 5.902 30.052 21.92 40.236 42.674 0 .007 1.833 4.072 1.833 4.072 1.749 4.333 2.911 8.757 3.413 13.064 0 .049.341 5.222.341 5.222l-.011 58.771c-2.658.722-53.225 14.516-54.178 14.771-.58-.149-1.517-.406-1.517-.406" style="fill:url(#a);stroke:none" transform="matrix(3.41537 0 0 -3.41537 -624.53 1842.886)"/><path d="M348.61 445.152v24.696l-27.033 7.373c14.25-8.109 22.453-19.145 27.033-32.069" style="fill:#1f52a6;fill-opacity:1;fill-rule:nonzero;stroke:none" transform="matrix(3.41537 0 0 -3.41537 -624.53 1842.886)"/><path d="M278.952 433.006c-8.721-3.536-17.976-9.104-27.255-14.386v-3.284c0-1.474.124-2.95.284-4.41.483-3.991 1.549-7.874 3.071-11.651a53.526 53.526 0 0 1 1.624-3.661c9.626-19.614 30.507-35.161 38.419-40.527 1.882-1.286 5.039-2.913 5.039-2.913h.047s3.138 1.627 5.027 2.913c3.621 2.448 9.938 7.025 16.654 13.143.191 1.128.385 2.262.57 3.412 4.041 26.963 2.231 54.333-1.931 75.16-10.893-2.606-24.51-6.949-41.549-13.796" style="fill:url(#b);stroke:none" transform="matrix(3.41537 0 0 -3.41537 -624.53 1842.886)"/><path d="M251.697 469.849v-32.415c10.292 3.861 20.595 7.152 30.171 9.546 12.057 2.919 22.357 4.701 31.172 5.648-15.515 10.293-33.228 16.97-48.679 20.668z" style="fill:url(#c);stroke:none" transform="matrix(3.41537 0 0 -3.41537 -624.53 1842.886)"/><path d="M324.077 453.434c4.244.152 8.047.088 11.449-.137 2.953-.25 5.57-.601 7.93-1.056-5.06 10.254-13.127 19.114-25.533 25.977l-5.877 1.604c4.371-7.001 8.494-15.613 12.031-26.388" style="fill:url(#d);stroke:none" transform="matrix(3.41537 0 0 -3.41537 -624.53 1842.886)"/><path d="m283.718 478.715-2.819-.901c12.957-4.638 26.003-12.1 37.303-21.078-2.574 9.75-5.451 17.479-8.533 23.73l-9.514 2.597z" style="fill:url(#e);stroke:none" transform="matrix(3.41537 0 0 -3.41537 -624.53 1842.886)"/><path d="M335.091 449.516a121.574 121.574 0 0 1-7.348-1.15c9.526-9.216 16.992-19.424 20.868-29.52v18.608c-.985 4.343-2.321 8.515-4.083 12.497-.572.022-1.162.033-1.771.033-2.278 0-4.82-.152-7.666-.468" style="fill:url(#f);stroke:none" transform="matrix(3.41537 0 0 -3.41537 -624.53 1842.886)"/><path d="M331.976 378.525c4.495 5.172 8.633 10.927 11.652 17.089a66.325 66.325 0 0 1 1.629 3.661c1.511 3.744 2.578 7.62 3.062 11.583-4.467 11.921-11.838 21.995-20.816 30.406 4.365-18.478 6.135-40.903 4.473-62.739" style="fill:url(#g);stroke:none" transform="matrix(3.41537 0 0 -3.41537 -624.53 1842.886)"/><path d="M231.976 351.038a6.08 6.08 0 0 1 1.219.876l2.642 2.477-7.845 8.366-1.112-1.04 6.008-6.407-1.58-1.483c-.344-.32-.693-.615-1.045-.893a4.554 4.554 0 0 0-1.051-.624l-7.047 7.515-1.11-1.04 4.255-4.539-1.924-1.806-3.043 3.244-1.103-1.037 6.017-6.419-3.254-3.053 1.834-1.955 4.366 4.091-2.98 3.172 1.923 1.803 4.326-4.61 1.113 1.038-1.763 1.883c.293.038.679.181 1.154.441M374.636 356.52c.908-.846 1.627-1.567 2.164-2.171.537-.601.902-1.22 1.084-1.868l1.619 1.733c-.164.599-.484 1.242-.961 1.936-.484.692-1.125 1.419-1.943 2.18l-4.69 4.38-8.14-8.72 1.117-1.044 6.32 6.77z" style="fill:#fff;fill-opacity:1;fill-rule:nonzero;stroke:none" transform="matrix(3.41537 0 0 -3.41537 -624.53 1842.886)"/><path d="m374.163 354.95-1.77-1.897 4.866-4.542-.92-.983-4.862 4.538-1.769-1.894 4.865-4.543-1.805-1.934 1.118-1.044 10.072 10.79-1.12 1.043-3.806-4.08zM245.82 338.362c-.339.08-.73.224-1.167.434a9.378 9.378 0 0 0-1.355.807l-4.237 3.015 1.047 1.473 4.67-3.322 3.02 4.245-7.01 4.986-.887-1.245 4.822-3.43-1.26-1.77-4.67 3.324-1.787-2.509c-.314-.444-.425-.885-.335-1.334.093-.453.363-.842.826-1.17l4.781-3.4a6.234 6.234 0 0 1 1.465-.793c.488-.178.941-.29 1.347-.33l-.667-.938 2.195-1.556 5.252 7.384-2.194 1.562zM240.862 331.705l-4.586 3.263.988 1.39 4.586-3.263zm1.87 2.628-4.585 3.26.996 1.406-2.19 1.56-2.712-3.815c-.303-.428-.41-.879-.318-1.35.084-.474.357-.879.814-1.2l7.43-5.285 3.75 5.272-2.19 1.553zM340.821 338.464l1.73-3.966-1.472-.64-1.725 3.965-2.342-1.02 3.402-7.827a4.693 4.693 0 0 0-.656-.566 5.12 5.12 0 0 0-1.04-.58l-2.477-1.075-2.943 6.768 3.066 1.334-.607 1.402-5.512-2.4 3.461-7.956c.215-.494.54-.823.98-.978.432-.162.906-.126 1.426.1l3.12 1.355c.446.193.81.417 1.083.665.272.24.485.479.63.712l2.597-5.975 2.345 1.02-4.2 9.65 1.472.643 4.2-9.656 2.343 1.018-6.533 15.024zM360.407 346.905l-1.857 2.636-2.206-1.556 5.444-7.708 2.203 1.556-2.699 3.822 2.205 1.56-.883 1.248zM354.919 334.087l.883-1.254 7.498 5.296 2.488-3.528 2.209 1.558-3.373 4.78zM356.597 345.192l-.86 1.221-2.794-1.973-.891 1.26-2.203-1.556.889-1.263-2.795-1.972.865-1.219z" style="fill:#fff;fill-opacity:1;fill-rule:nonzero;stroke:none" transform="matrix(3.41537 0 0 -3.41537 -624.53 1842.886)"/><path d="M355.728 338.17c-.785-.556-1.996-.184-2.713.829-.715 1.012-.66 2.28.125 2.834.785.55 1.998.177 2.715-.832.708-1.012.657-2.282-.128-2.831m-3.613 5.112c-1.969-1.393-2.53-3.987-1.254-5.804 1.285-1.812 3.92-2.153 5.892-.764 1.97 1.394 2.528 3.99 1.252 5.802-1.28 1.817-3.916 2.156-5.89.766M301.896 323.103h-2.57v-6.62h-1.342v6.62h-2.576v-6.62h-2.631v-1.52h14.666v1.52h-5.547z" style="fill:#fff;fill-opacity:1;fill-rule:nonzero;stroke:none" transform="matrix(3.41537 0 0 -3.41537 -624.53 1842.886)"/><path d="M303.206 322.744c0-1.23-.039-2.243-.109-3.038-.07-.8-.282-1.486-.627-2.06h2.363c.32.525.574 1.197.752 2.015.176.812.266 1.778.266 2.887v6.187h-11.856v-1.52h9.211zM267.741 331.214l1.266 2.969-2.487 1.055-4.726-11.116 2.48-1.06 2.87 6.742 2.486-1.055.597 1.41zM264.28 333.556l.586 1.373-3.149 1.336.602 1.422-2.482 1.053-.602-1.416-3.146 1.339-.588-1.377z" style="fill:#fff;fill-opacity:1;fill-rule:nonzero;stroke:none" transform="matrix(3.41537 0 0 -3.41537 -624.53 1842.886)"/><path d="M257.849 330.596c-.883.378-1.205 1.606-.721 2.743.487 1.14 1.594 1.764 2.477 1.387.88-.371 1.205-1.602.719-2.744-.483-1.141-1.592-1.761-2.475-1.386m2.449 5.763c-2.22.945-4.722.056-5.594-1.988-.87-2.041.23-4.463 2.448-5.407 2.222-.945 4.722-.055 5.593 1.986.87 2.043-.228 4.468-2.447 5.409M256.907 327.31l-2.467 1.049-1.387-3.258c-.214-.504-.222-.974-.023-1.41.197-.434.541-.754 1.035-.964l8.56-3.64.595 1.399-7.803 3.318zM285.92 324.827c.23.488.397.963.489 1.418l.729 3.55-11.235 2.302-.306-1.49 8.603-1.766-.437-2.128a14.807 14.807 0 0 0-.338-1.327c-.135-.43-.295-.8-.496-1.116l-10.09 2.071-.307-1.493 6.092-1.248-.53-2.583-4.355.89-.304-1.484 8.619-1.768-.893-4.373 2.627-.542 1.199 5.862-4.263.877.533 2.58 6.197-1.269.307 1.49-2.53.52c.219.197.452.54.69 1.027M321.34 324.745l4.577.936-.293 1.455-8.836-1.807-.215 1.05 8.567 1.76-.3 1.452-8.563-1.755-.225 1.084 8.658 1.776-.3 1.465-11.286-2.309.98-4.798c.108-.525.364-.91.758-1.155.395-.236.868-.302 1.415-.188l2.437.497.25-1.208-6.133-1.255.299-1.473 14.899 3.048-.305 1.473-6.133-1.254zM321.813 315.767c-.955-.197-1.9.523-2.123 1.612-.223 1.077.363 2.115 1.318 2.31.948.196 1.897-.526 2.12-1.61.227-1.083-.367-2.118-1.314-2.312m-1.124 5.473c-2.393-.491-4.008-2.461-3.61-4.4.398-1.941 2.658-3.117 5.05-2.626 2.389.487 4.004 2.456 3.612 4.396-.4 1.944-2.66 3.119-5.051 2.63M385.9 366.206c-.026-1.35-1.153-2.424-2.51-2.4a2.461 2.461 0 0 0-2.405 2.507 2.462 2.462 0 0 0 2.512 2.407 2.466 2.466 0 0 0 2.402-2.514M213.722 366.206c.025-1.35 1.152-2.424 2.508-2.4a2.459 2.459 0 0 1 2.404 2.507 2.465 2.465 0 0 1-2.514 2.407 2.46 2.46 0 0 1-2.398-2.514M207.972 373.896c-.69-.332-1.854-.781-1.77-1.704l-.044-.022-1.422 2.946.047.022c.654-.65 1.744-.01 2.434.323l5.784 2.79c.705.342 1.869.79 1.784 1.713l.044.023 1.422-2.946-.047-.022c-.668.642-1.757.002-2.45-.331zm-1.791 3.79c-.965.158-2.36.619-2.324-.63l-.045-.023-1.334 2.762.015.007 6.229-1.344 2.568 5.06c.4.778.549 1.569.555 2.537l.047.022.695-1.442c.364-.752.412-1.598.176-2.051l-2.941-5.62zM206.007 385.18c2.258.77 4.033 3.158 3.17 5.689-.836 2.45-3.158 3.404-5.561 2.584-2.353-.803-4.115-3.078-3.246-5.625.854-2.5 3.203-3.48 5.637-2.648m-3.34 10.002c3.289 1.12 6.606-.79 7.699-3.997 1.088-3.192-.283-6.666-3.586-7.793-3.063-1.045-6.535.74-7.61 4.153-1.17 3.38.595 6.647 3.497 7.637M196.21 399.151c-.482 2.231.421 3.7 1.936 4.026 1.464.318 2.891-.716 3.502-2.012l2.496 3.048c.714.886 1.352 2.123 1.748 3.201l.332-1.532c.189-.88.091-1.478-.416-2.11l-2.076-2.576-2.014-2.039c-.49 1.29-1.44 2.704-3.006 2.366-1.197-.26-1.674-1.443-1.383-2.548a9.14 9.14 0 0 1 .377-1.103l7.46 1.612c.766.166 2.003.33 2.119 1.243l.05.011.688-3.18-.051-.01c-.484.784-1.69.4-2.439.24l-6.277-1.359c-.766-.165-2.007-.31-2.14-1.229l-.049-.01zM204.22 409.837l-.056 2.173c-.034 1.128-.53 2.253-1.376 3.008l-.006.05 2.307-.493.852-7.052-.05-.006c-.41.826-1.65.573-2.41.48l-6.375-.768c-.777-.095-2.025-.142-2.241-1.043l-.051-.006-.654 5.41c-.036.289-.036.58-.181.787l-.006.05 1.979.238.006-.051c-.547-.597-.53-1.298-.435-2.077.07-.592.16-1.181.326-1.711l3.146.38-.244 2.014c-.031.269-.065.54-.191.73l-.006.052 1.793.216.006-.05c-.457-.33-.356-1.04-.291-1.563l.15-1.251zM195.06 421.166l4.31-1.64-.037 3.356zm5.574-2.068 2.412-.86c.957-.347 1.453-.462 1.752.36h.05l.034-3.134h-.051c-.505.982-1.46 1.262-2.437 1.625l-7.133 2.767c-.615.233-1.336.548-1.582-.272h-.051l-.03 2.69 8.7 3.638c.967.402 1.918.72 2.4 1.696h.05l.04-3.491-.051-.001c-.384.831-.57.693-1.757.22l-2.391-.946zM203.356 435.12c.94-.158 1.609-.288 2.28.516l.05-.009-.497-2.974-.051.01c-.371.977-1.043 1.09-1.984 1.247l-6.703 1.122c-.942.157-1.614.27-2.264-.519l-.052.008.412 2.453.017-.002c.213.033.309.085.463.181l.375.18 8.79 4.848-6.367 1.066c-.94.157-1.61.287-2.262-.52l-.05.01.493 2.956.051-.008c.357-.959 1.03-1.07 1.971-1.228l9.424-1.578c-.604-1.125-1.244-1.554-2.326-2.133l-8.272-4.538zM199.448 452.508l3.621-2.856.971 3.21zm4.7-3.646 2.042-1.542c.81-.62 1.248-.876 1.78-.183l.047-.014-.907-3.001-.049.015c-.188 1.089-1.017 1.642-1.837 2.283l-5.976 4.778c-.517.406-1.108.923-1.589.214l-.049.015.777 2.577 9.391.86c1.043.094 2.045.113 2.8.899l.048-.016-1.01-3.342-.05.015c-.118.907-.337.83-1.61.736l-2.566-.184zM210.077 459.862c.9-.367 1.51-.634 2.337.003l.048-.02-1.272-3.123-.047.02c.02.911-1.17 1.286-1.879 1.575l-7.034 2.868-.567-1.387c-.275-.678-.393-1.459-.134-2.135l-.018-.047-1.653 1.317.02.047c.155.158.24.362.354.555l.161.394 2.4 5.884c.108.268.195.527.184.771l.02.047 1.671-1.27-.019-.048c-.636.02-.972-.579-1.184-1.099l-.579-1.419zM206.06 467.283c-.701.35-1.76 1.014-2.438.381l-.046.022 1.448 2.896.046-.024c-.092-.906 1.08-1.379 1.767-1.72l5.743-2.875c.685-.343 1.75-.99 2.42-.373l.048-.024-1.45-2.893-.044.022c.106.9-1.066 1.371-1.752 1.715zM211.192 470.685c2.047-1.224 5.018-1.036 6.391 1.26 1.328 2.223.554 4.61-1.623 5.914-2.135 1.276-5.01 1.15-6.39-1.16-1.357-2.267-.585-4.694 1.622-6.014m5.471 9.014c2.982-1.784 3.668-5.548 1.927-8.457-1.73-2.895-5.267-4.094-8.263-2.302-2.778 1.661-3.66 5.464-1.75 8.49 1.822 3.08 5.455 3.843 8.086 2.27M221.657 480.443c.748-.594 1.271-1.03 2.246-.653l.041-.033-1.877-2.36-.04.032c.148 1.035-.386 1.46-1.132 2.053l-5.32 4.231c-.748.593-1.28 1.016-2.23.641l-.042.032 1.55 1.947.011-.01a1.08 1.08 0 0 1 .494-.066l.414-.025 10.041-.018-5.054 4.018c-.747.594-1.27 1.031-2.23.643l-.042.031 1.865 2.348.041-.033c-.152-1.01.383-1.435 1.13-2.029l7.48-5.946c-1.075-.693-1.842-.756-3.069-.739l-9.437.038zM226.683 497.56l1.78-4.254 2.408 2.338zm2.342-5.467 1.037-2.34c.408-.933.668-1.371 1.467-1.021l.037-.036-2.248-2.185-.037.037c.365 1.043-.092 1.929-.5 2.886l-2.911 7.078c-.255.606-.521 1.344-1.285.957l-.035.037 1.93 1.876 8.63-3.8c.956-.422 1.84-.893 2.884-.571l.035-.037-2.504-2.433-.037.037c.338.85.109.889-1.051 1.425l-2.334 1.082zM241.62 499.198c.955.656 1.508 1.584 1.742 2.671l.041.031.692-2.332-5.528-4.298-.03.04c.497.776-.356 1.707-.829 2.313l-3.942 5.068c-.48.62-1.166 1.663-2.048 1.386l-.034.04 2.57 1.998.03-.04c-.486-.79.383-1.712.854-2.316l4.56-5.863zM260.265 511.43c.357-.885.598-1.522 1.63-1.674l.02-.048-2.795-1.13-.02.049c.64.827.386 1.46.026 2.343l-2.547 6.3c-.357.886-.613 1.517-1.625 1.659l-.02.048 2.308.932.005-.016a1.05 1.05 0 0 1 .397-.3l.348-.225 8.73-4.96-2.42 5.986c-.357.884-.598 1.522-1.625 1.657l-.02.048 2.78 1.124.019-.047c-.63-.807-.375-1.438-.017-2.322l3.582-8.86c-1.274-.074-1.975.249-3.033.868l-8.194 4.679zM268.589 521.572c-.23.75-.482 1.973-1.408 2.025l-.014.05 3.092.953.016-.049c-.72-.56-.25-1.735-.026-2.467l1.89-6.137c.227-.732.497-1.95 1.405-2.01l.016-.049-3.092-.953-.018.05c.725.543.256 1.717.032 2.45zM279.614 523.749c.18 1.281.434 2.772-.69 2.953l-.013.05 2.474.563-1.78-12.425c-1.337.499-1.749.545-2.53 1.747l-4.055 6.222c-.51.776-.976 1.682-1.836 2.08l-.013.05 2.425.552.03-.203c.084-.365.586-1.108.8-1.443l4.286-6.623zM286.735 518.151l2.172.07c1.13.04 2.25.542 3.002 1.392l.051.007-.48-2.31-7.05-.892-.006.05c.825.413.565 1.652.467 2.412l-.804 6.371c-.1.777-.155 2.023-1.057 2.235l-.008.051 5.408.684c.29.037.58.04.785.186l.051.006.25-1.977-.05-.007c-.602.542-1.303.523-2.08.424-.592-.075-1.18-.167-1.71-.337l.4-3.143 2.01.255c.27.034.54.07.731.196l.051.006.226-1.79-.052-.008c-.332.456-1.039.35-1.563.283l-1.25-.158zM296.347 528.849c2.28.075 3.564-1.075 3.615-2.625.049-1.498-1.222-2.716-2.61-3.085l2.554-3.001c.744-.862 1.845-1.712 2.837-2.293l-1.566-.051c-.902-.03-1.473.173-2.004.785l-2.162 2.503-1.644 2.349c1.355.249 2.918.93 2.865 2.53-.04 1.227-1.12 1.908-2.26 1.82a9.012 9.012 0 0 1-1.152-.175l.252-7.627c.025-.783-.038-2.03.84-2.307l.003-.052-3.252-.106-.002.05c.86.336.7 1.592.674 2.357l-.211 6.419c-.027.783.053 2.03-.828 2.324v.052z" style="fill:#fff;fill-opacity:1;fill-rule:nonzero;stroke:none" transform="matrix(3.41537 0 0 -3.41537 -624.53 1842.886)"/><path d="M309.837 526.453c-.621.721-1.652 1.176-2.604 1.233-.97.06-2.216-.24-2.29-1.413-.14-2.33 5.712-2.65 5.519-5.797-.11-1.819-2.117-3.404-4.77-3.242-1.037.064-2.064.28-3.011.696l-.365 2.155c.95-.928 2.312-1.558 3.638-1.639.969-.058 2.467.431 2.539 1.621.162 2.653-5.717 2.532-5.498 6.137.13 2.142 2.373 2.825 4.447 2.7a8.559 8.559 0 0 0 2.512-.529zM312.476 525.691c.102.776.38 1.994-.44 2.428l.006.051 3.209-.417-.005-.05c-.887-.212-.948-1.476-1.045-2.236l-.827-6.368c-.101-.76-.361-1.98.442-2.41l-.008-.05-3.207.415.006.051c.883.194.945 1.458 1.043 2.218zM319.296 517.922c-.186-.953-.33-1.602.455-2.293l-.01-.05-3.31.645.01.05c.898.155 1.035 1.396 1.183 2.148l1.45 7.457-1.47.286c-.72.14-1.507.103-2.121-.281l-.05.01.974 1.876.049-.01c.186-.123.402-.165.613-.241l.418-.081 6.237-1.215c.285-.055.554-.091.79-.033l.052-.01-.922-1.885-.051.01c-.104.627-.756.84-1.307.949l-1.506.292zM328.144 515.719c-.283-.982-.426-1.473.234-2.32l-.013-.048-3.192.92.014.049c.92.178 1.11 1.275 1.334 2.045l.699 2.42-1.457 5.155c-.234.847-.406 1.482-1.068 2.134l1.49-.43c.52-.151.979-.406 1.094-.812l1.386-5.026 2.909 2.459c.396.328.998 1.006.209 1.712l.013.049 2.866-.826-5.772-4.895zM339.378 515.45c-.998-2.168-.492-5.102 1.938-6.22 2.35-1.083 4.644-.056 5.705 2.25 1.039 2.258.605 5.103-1.84 6.228-2.4 1.104-4.727.077-5.803-2.259m9.549-4.472c-1.453-3.157-5.123-4.243-8.203-2.825-3.063 1.41-4.635 4.798-3.174 7.97 1.353 2.94 5.039 4.223 8.252 2.65 3.256-1.48 4.408-5.01 3.125-7.795M350.54 505.887c-.4-.654-1.164-1.645-.605-2.365l-.028-.043-2.748 1.679.027.043c.901-.191 1.473.938 1.872 1.593l3.349 5.479c.408.668 1.143 1.676.572 2.405l.026.043 4.65-2.842c.248-.151.477-.331.729-.345l.043-.027-1.03-1.685-.043.026c-.14.784-.701 1.207-1.369 1.615-.509.312-1.027.608-1.547.805l-1.65-2.704 1.744-1.066c.217-.132.449-.275.678-.295l.045-.026-.942-1.541-.044.026c.033.579-.596.924-1.045 1.199l-1.077.657zM361.446 498.014c-.607-.76-1.035-1.267-.66-2.243l-.03-.04-2.636 2.106.031.04c.87-.28 1.565.756 2.043 1.355l4.744 5.934-1.172.937c-.572.457-1.287.789-2.007.733l-.042.032 1.733 1.21.04-.031c.106-.194.278-.333.431-.497l.332-.266 4.963-3.967c.226-.181.451-.338.687-.396l.04-.032-1.692-1.243-.039.032c.2.604-.28 1.096-.719 1.446l-1.199.958zM373.577 499.29c1.65-1.577 1.727-3.298.656-4.419-1.037-1.083-2.797-1.027-4.03-.296l-.356-3.924c-.096-1.134.067-2.516.347-3.631l-1.133 1.083c-.654.624-.906 1.172-.839 1.982l.273 3.294.527 2.82c1.125-.794 2.705-1.432 3.813-.275.847.887.578 2.134-.28 2.885a9.12 9.12 0 0 1-.933.702l-5.274-5.518c-.54-.565-1.474-1.394-1.056-2.217l-.037-.036-2.352 2.247.035.037c.84-.378 1.625.616 2.155 1.17l4.437 4.643c.541.566 1.486 1.383 1.082 2.217l.035.037z" style="fill:#fff;fill-opacity:1;fill-rule:nonzero;stroke:none" transform="matrix(3.41537 0 0 -3.41537 -624.53 1842.886)"/><path d="m380.397 489.847-4.375-1.46 2.152-2.574zm-5.625-1.928-2.412-.862c-.96-.337-1.414-.563-1.127-1.387l-.039-.033-2.01 2.404.04.034c1.012-.442 1.93-.051 2.916.284l7.274 2.375c.623.21 1.379.42 1.05 1.212l.039.032 1.727-2.065-4.43-8.323c-.495-.924-1.03-1.77-.786-2.832l-.039-.033-2.24 2.679.04.032c.823-.4.878-.175 1.497.943l1.254 2.247zM380.114 477.907c-.805-.514-1.387-.866-1.346-1.91l-.043-.029-1.625 2.541.043.027c.934-.477 1.508-.109 2.311.404l5.726 3.661c.803.514 1.377.881 1.33 1.904l.043.027 1.34-2.096-.013-.008a1.054 1.054 0 0 1-.223-.446l-.158-.384-3.272-9.492 5.44 3.478c.804.513 1.386.867 1.33 1.902l.045.028 1.613-2.526-.043-.027c-.906.47-1.482.104-2.285-.41l-8.05-5.148c-.308 1.24-.118 1.987.296 3.142l3.096 8.914zM394.712 466.283c.314.897.197 2.018-.227 2.872-.43.87-1.31 1.803-2.363 1.281-2.092-1.036.539-6.27-2.283-7.67-1.635-.809-4.008.144-5.186 2.526-.462.93-.787 1.93-.896 2.96l1.689 1.386c-.334-1.286-.203-2.78.389-3.97.43-.87 1.6-1.926 2.668-1.397 2.38 1.18-.646 6.22 2.588 7.823 1.924.952 3.63-.654 4.555-2.516a8.509 8.509 0 0 0 .789-2.44zM399.33 460.438c.8-2.065.407-4.025-1.372-4.714-1.826-.707-3.643.544-4.34 2.339-.152.397-.26.813-.225 1.246.608-1.337 2.021-2.488 3.547-1.898 1.397.541 1.573 1.741 1.08 3.012-.146.381-.32.734-.525 1.076l-7.166-2.774c-.889-.345-1.529-.574-1.682-1.6l-.047-.019-1.222 3.161.047.02c.6-.7 1.738-.15 2.453.128l5.99 2.316c.713.277 1.91.631 1.92 1.548l.05.017zM396.573 452.086c-2.307-.603-4.254-2.853-3.58-5.44.654-2.507 2.902-3.628 5.357-2.987 2.407.628 4.33 2.767 3.651 5.371-.666 2.555-2.94 3.705-5.428 3.056m2.598-10.22c-3.364-.877-6.53 1.271-7.385 4.552-.852 3.262.77 6.626 4.148 7.508 3.133.817 6.463-1.218 7.284-4.702.92-3.456-1.08-6.584-4.047-7.358M405.345 437.034c.316-2.26-.691-3.657-2.227-3.873-1.484-.208-2.83.928-3.343 2.266l-2.715-2.857c-.778-.832-1.506-2.017-1.98-3.064l-.215 1.552c-.125.894.015 1.482.568 2.075l2.26 2.416 2.16 1.884c.392-1.32 1.236-2.802 2.822-2.58 1.215.17 1.775 1.316 1.566 2.44-.07.385-.173.75-.294 1.128l-7.56-1.06c-.774-.109-2.021-.18-2.202-1.084l-.053-.007-.451 3.222.05.008c.425-.819 1.657-.526 2.417-.419l6.359.891c.775.11 2.024.165 2.223 1.07l.052.007zM397.321 425.413c-.97-.038-1.635-.047-2.127-.97l-.053-.002-.13 3.37.05.002c.358-.837 1.596-.687 2.362-.658l7.591.296-.058 1.498c-.028.732-.246 1.49-.76 2l-.002.05 2.05-.517.001-.05c-.078-.208-.069-.43-.094-.653l.018-.425.248-6.349c.01-.289.037-.56.148-.779l.002-.05-2.047.466-.002.051c.588.244.645.93.623 1.49l-.06 1.532zM404.765 416.879l-4.193 1.92-.186-3.35zm-5.428 2.433-2.35 1.017c-.931.409-1.417.556-1.77-.243l-.05.003.172 3.129.053-.003c.437-1.014 1.373-1.356 2.322-1.783l6.936-3.233c.599-.272 1.295-.633 1.595.167l.05-.002-.147-2.687-8.92-3.055c-.992-.338-1.961-.592-2.508-1.533l-.051.002.194 3.487.05-.003c.329-.854.522-.728 1.739-.335l2.449.786zM396.169 407.226c-.96.145-1.613.26-2.27-.555l-.05.008.502 3.335.05-.007c.194-.89 1.438-.974 2.196-1.09l7.513-1.131.223 1.482c.109.724.037 1.51-.371 2.105l.006.05 1.916-.89-.006-.051c-.115-.19-.148-.408-.215-.622l-.064-.421-.948-6.283c-.043-.286-.066-.56.002-.792l-.007-.051-1.924.84.008.052c.623.129.808.79.892 1.346l.229 1.516zM401.808 400.969c.764-.165 1.955-.544 2.455.236l.05-.01-.683-3.164-.051.012c-.134.9-1.388 1.066-2.138 1.228l-6.28 1.356c-.748.16-1.941.523-2.437-.241l-.051.01.684 3.164.05-.011c.12-.897 1.374-1.063 2.122-1.226zM397.616 396.2c-2.275.716-5.12-.157-5.924-2.709-.775-2.47.533-4.612 2.953-5.374 2.373-.745 5.141.045 5.946 2.613.793 2.52-.522 4.7-2.975 5.47m-3.229-10.037c-3.314 1.041-4.855 4.543-3.839 7.777 1.011 3.217 4.172 5.206 7.504 4.158 3.087-.969 4.828-4.462 3.673-7.849-1.054-3.418-4.412-5.006-7.338-4.086M389.688 384.51c-.867.399-1.479.7-2.336.1l-.047.022 1.262 2.738.045-.021c.103-1.04.722-1.326 1.59-1.725l6.172-2.842c.867-.4 1.486-.684 2.32-.093l.047-.021-1.039-2.26-.018.008a1.07 1.07 0 0 1-.494-.053l-.408-.076-9.754-2.372 5.863-2.7c.865-.398 1.477-.698 2.318-.093l.047-.021-1.254-2.722-.046.02c-.094 1.019-.71 1.303-1.579 1.703l-8.679 3.996c.877.928 1.607 1.173 2.804 1.447l9.174 2.209zM249.999 516.339l.025-.052c.918.143 1.448-1.014 1.825-1.695l2.263-4.047c1.071-1.915.754-3.418-.81-4.311-1.586-.868-3.012-.333-4.08 1.577l-2.262 4.048c-.379.682-1.088 1.737-.484 2.45l-.022.047-2.891-1.612.028-.048c.937.15 1.447-1.02 1.826-1.702l2.264-4.048c.605-1.085 1.146-2.11 2.437-2.546 1.096-.366 2.813.18 3.803.736 1.006.562 2.361 1.734 2.633 2.859.306 1.329-.291 2.323-.897 3.41l-2.262 4.05c-.378.678-1.103 1.727-.49 2.447l-.027.047z" style="fill:#fff;fill-opacity:1;fill-rule:nonzero;stroke:none" transform="matrix(3.41537 0 0 -3.41537 -624.53 1842.886)"/></svg>