<svg xmlns="http://www.w3.org/2000/svg" width="186.9727mm" height="189.17834mm" viewBox="0 0 186.9727 189.17834"><g style="stroke-width:.200981"><g style="stroke-width:.200981"><path d="m0 0-4.296 3.229.122-2.461L.534-2.658l-4.52-.234.103-2.024 10.37.526-.1 2.027-3.116-.161-1.674 1.261 4.588 2.899L6.067 4Z" style="fill:#3e5c90;fill-opacity:1;fill-rule:nonzero;stroke:none;stroke-width:.200981" transform="matrix(1.75528 0 0 -1.75528 7.54 96.058)"/></g><g style="stroke-width:.200981"><path d="M0 0c-.729-.007-1.374-.201-1.923-.593-.878-.619-1.413-1.475-1.597-2.566-.191-1.111.025-2.096.642-2.972.383-.545.922-.942 1.621-1.198.409-.149 1.171-.318 2.299-.515 1.121-.19 1.902-.289 2.338-.279.743.007 1.387.198 1.927.584.877.619 1.41 1.48 1.598 2.585.191 1.096-.024 2.077-.649 2.954-.385.553-.928.952-1.617 1.196-.417.163-1.183.34-2.296.533C1.227-.083.448.007 0 0m4.671-3.129c.404-.414.551-.923.449-1.516-.091-.542-.351-.94-.768-1.206-.335-.201-.82-.273-1.464-.219-.178.008-.674.088-1.504.228-.824.14-1.324.236-1.494.282-.619.171-1.056.401-1.301.697-.306.397-.419.856-.326 1.39.092.532.344.93.769 1.191.331.206.82.29 1.463.237.216-.013.718-.093 1.503-.229 1.472-.252 2.36-.537 2.673-.855" style="fill:#3e5c90;fill-opacity:1;fill-rule:nonzero;stroke:none;stroke-width:.200981" transform="matrix(1.75528 0 0 -1.75528 7.642 72.075)"/></g><g style="stroke-width:.200981"><path d="M0 0a2.827 2.827 0 0 1-.367 1.593c-.311.541-.782.944-1.421 1.21-.835.349-1.64.368-2.415.048-.816-.335-1.421-.979-1.815-1.931l-1.571-3.755 9.586-4.004.785 1.873-3.817 1.595.563 1.345 4.594.274.907 2.17zm-1.818.177c.127-.35.106-.725-.063-1.125l-.735-1.767-2.521 1.052L-4.4.098c.171.406.422.683.758.841.337.154.693.149 1.072-.009.373-.156.623-.405.752-.753" style="fill:#3e5c90;fill-opacity:1;fill-rule:nonzero;stroke:none;stroke-width:.200981" transform="matrix(1.75528 0 0 -1.75528 18.364 58.395)"/></g><g style="stroke-width:.200981"><path d="m0 0-3.934-5.594-8.499 5.983 3.943 5.59 1.479-1.044-2.77-3.928L-7.788-.4l2.359 3.348 1.482-1.045-2.36-3.351 2.055-1.442 2.773 3.932z" style="fill:#3e5c90;fill-opacity:1;fill-rule:nonzero;stroke:none;stroke-width:.200981" transform="matrix(1.75528 0 0 -1.75528 35.824 45.151)"/></g><g style="stroke-width:.200981"><path d="m0 0-1.184-1.064 4.123-10.257 1.574 1.414-.759 1.782 2.751 2.47 1.68-.961L9.76-5.203zm3.033-6.468L1.491-2.782l3.464-1.961z" style="fill:#3e5c90;fill-opacity:1;fill-rule:nonzero;stroke:none;stroke-width:.200981" transform="matrix(1.75528 0 0 -1.75528 32.333 23.126)"/></g><g style="stroke-width:.200981"><path d="m0 0-6.123-2.811-4.339 9.437 1.845.849 3.581-7.793 4.279 1.965z" style="fill:#3e5c90;fill-opacity:1;fill-rule:nonzero;stroke:none;stroke-width:.200981" transform="matrix(1.75528 0 0 -1.75528 68.276 22.525)"/></g><g style="stroke-width:.200981"><path d="m0 0-1.956-.551-2.796 10.006 1.952.548Z" style="fill:#3e5c90;fill-opacity:1;fill-rule:nonzero;stroke:none;stroke-width:.200981" transform="matrix(1.75528 0 0 -1.75528 75.034 20.74)"/></g><g style="stroke-width:.200981"><path d="m0 0-4.783-.543.287-2.52 4.073.462.197-1.802-4.066-.457.47-4.205-2.012-.224-1.169 10.32 6.802.768z" style="fill:#3e5c90;fill-opacity:1;fill-rule:nonzero;stroke:none;stroke-width:.200981" transform="matrix(1.75528 0 0 -1.75528 89.926 3.232)"/></g><g style="stroke-width:.200981"><path d="m0 0-2.715.17-.538-8.564-2.025.129.539 8.564-2.701.167.115 1.806 7.441-.468z" style="fill:#3e5c90;fill-opacity:1;fill-rule:nonzero;stroke:none;stroke-width:.200981" transform="matrix(1.75528 0 0 -1.75528 105.828 3.988)"/></g><g style="stroke-width:.200981"><path d="M0 0c-.495-.954-1.174-1.597-2.025-1.922-.812-.314-1.686-.324-2.629-.015-1.055.344-1.824.995-2.309 1.953-.297.589-.398 1.255-.297 1.989.053.433.261 1.189.614 2.275.357 1.084.64 1.814.845 2.2.357.656.832 1.13 1.42 1.428.96.485 1.96.558 3.016.211.953-.307 1.666-.842 2.14-1.596.477-.75.636-1.655.471-2.721l-1.957.636c.077 1.014-.325 1.665-1.201 1.954-.582.191-1.1.118-1.559-.212-.366-.271-.779-1.113-1.239-2.532-.256-.769-.401-1.253-.447-1.452-.142-.643-.136-1.142.012-1.5.196-.442.552-.75 1.069-.92.877-.283 1.586 0 2.124.868z" style="fill:#3e5c90;fill-opacity:1;fill-rule:nonzero;stroke:none;stroke-width:.200981" transform="matrix(1.75528 0 0 -1.75528 125.323 19.004)"/></g><g style="stroke-width:.200981"><path d="M0 0c.261.684.307 1.35.142 2.005-.267 1.04-.878 1.842-1.833 2.406-.962.571-1.959.732-3.002.464-.642-.167-1.206-.526-1.697-1.088-.287-.326-.72-.981-1.302-1.962-.586-.98-.949-1.67-1.099-2.081-.259-.696-.306-1.368-.142-2.012.269-1.036.879-1.846 1.844-2.418.957-.563 1.95-.715 2.993-.448.65.168 1.222.529 1.695 1.079.297.337.738.992 1.315 1.959C-.508-1.124-.148-.428 0 0m-4.588-3.246c-.531-.228-1.056-.19-1.577.122-.466.274-.751.663-.849 1.143-.069.385.034.864.316 1.452.072.158.322.601.748 1.321.428.723.695 1.148.804 1.291.379.522.75.843 1.122.969.466.148.939.082 1.408-.192.461-.275.742-.653.838-1.147.079-.386-.024-.868-.301-1.447-.094-.2-.344-.642-.751-1.326-.763-1.284-1.345-2.012-1.758-2.186" style="fill:#3e5c90;fill-opacity:1;fill-rule:nonzero;stroke:none;stroke-width:.200981" transform="matrix(1.75528 0 0 -1.75528 144.2 20.841)"/></g><g style="stroke-width:.200981"><path d="m0 0-4.947 4.571L2.1 12.203l1.492-1.379-5.821-6.298 3.46-3.196Z" style="fill:#3e5c90;fill-opacity:1;fill-rule:nonzero;stroke:none;stroke-width:.200981" transform="matrix(1.75528 0 0 -1.75528 149.374 42.853)"/></g><g style="stroke-width:.200981"><path d="m0 0-3.945 5.464 8.421 6.08 1.188-1.641-6.953-5.025 2.763-3.817Z" style="fill:#3e5c90;fill-opacity:1;fill-rule:nonzero;stroke:none;stroke-width:.200981" transform="matrix(1.75528 0 0 -1.75528 158.342 54.953)"/></g><g style="stroke-width:.200981"><path d="m0 0-2.792 6.244 9.481 4.24 2.794-6.247-1.65-.735-1.968 4.391-2.23-.996 1.677-3.742-1.658-.739-1.672 3.739-2.295-1.028L1.654.737Z" style="fill:#3e5c90;fill-opacity:1;fill-rule:nonzero;stroke:none;stroke-width:.200981" transform="matrix(1.75528 0 0 -1.75528 164.767 68.738)"/></g><g style="stroke-width:.200981"><path d="M0 0c-1.401-.29-2.507-.179-3.318.333-.931.585-1.509 1.464-1.751 2.64-.222 1.082-.038 2.074.554 2.971.363.55.889.966 1.582 1.249.402.162 1.164.357 2.283.585 1.114.229 1.889.346 2.325.358.746.009 1.389-.161 1.944-.532.898-.59 1.454-1.433 1.68-2.521.228-1.11.083-2.081-.437-2.913C4.404 1.445 3.72.918 2.815.571l-.411 2.003c.945.447 1.319 1.16 1.117 2.15-.107.521-.374.91-.806 1.161-.333.191-.825.251-1.467.179-.174-.016-.672-.106-1.497-.278-.817-.16-1.313-.274-1.479-.334-.63-.184-1.063-.429-1.297-.739-.29-.389-.381-.848-.267-1.384.122-.602.409-1.038.861-1.304.396-.239.881-.297 1.455-.181l.383.079-.379 1.89 1.675.339.79-3.848z" style="fill:#3e5c90;fill-opacity:1;fill-rule:nonzero;stroke:none;stroke-width:.200981" transform="matrix(1.75528 0 0 -1.75528 175.859 83.567)"/></g><g style="stroke-width:.200981"><path d="m0 0 .099 6.838 10.386-.154-.1-6.844-1.816.028.075 4.818-2.439.031L6.142.616l-1.81.031.064 4.096-2.513.041-.076-4.813Z" style="fill:#3e5c90;fill-opacity:1;fill-rule:nonzero;stroke:none;stroke-width:.200981" transform="matrix(1.75528 0 0 -1.75528 168.569 101.066)"/></g><g style="stroke-width:.200981"><path d="M0 0a1.112 1.112 0 1 0-2.226 0c0 .613.496 1.113 1.108 1.113C-.498 1.113 0 .613 0 0" style="fill:#3e5c90;fill-opacity:1;fill-rule:nonzero;stroke:none;stroke-width:.200981" transform="matrix(1.75528 0 0 -1.75528 176.742 116.641)"/></g><g style="stroke-width:.200981"><path d="M0 0a1.115 1.115 0 1 0-1.112 1.113C-.5 1.113 0 .615 0 0" style="fill:#3e5c90;fill-opacity:1;fill-rule:nonzero;stroke:none;stroke-width:.200981" transform="matrix(1.75528 0 0 -1.75528 14.404 116.826)"/></g><g style="stroke-width:.200981"><path d="m0 0 .922-1.516-1.398-.852-.923 1.513-3.809-2.322-1.055 1.731L1.517 3.3l1.056-1.731Zm-3.628 6.784a1.487 1.487 0 0 1-.58.236 1.868 1.868 0 0 1-1.323-.267 1.892 1.892 0 0 1-.528-.461 1.507 1.507 0 0 1-.298-.587 1.431 1.431 0 0 1 .152-1.25c.118-.192.265-.352.444-.47.176-.121.375-.198.599-.239.207-.033.422-.033.65.003.226.038.447.127.658.254.211.129.39.284.528.468.139.186.244.379.315.587.057.208.074.422.052.631a1.525 1.525 0 0 1-.216.613 1.526 1.526 0 0 1-.453.482m1.468-3.791a2.197 2.197 0 0 0-.716-.701 2.99 2.99 0 0 0-1.28-.445 3.124 3.124 0 0 0-1.279.112c-.435.12-.841.319-1.211.605a3.839 3.839 0 0 0-.937 1.053c-.26.423-.427.866-.507 1.32-.086.462-.076.9.026 1.338.074.43.231.828.478 1.197.244.375.571.685.982.931.286.178.605.281.952.312a2.92 2.92 0 0 0 1.081-.119l-.591.967 1.284.783 1.453-2.38 1.13.689 1.061-1.732-1.135-.689L.056 3.891l-1.283-.787-.549.906a2.758 2.758 0 0 0-.384-1.017" style="fill:#3e5c90;fill-opacity:1;fill-rule:nonzero;stroke:none;stroke-width:.200981" transform="matrix(1.75528 0 0 -1.75528 30.875 141.422)"/></g><g style="stroke-width:.200981"><path d="m0 0-1.977-.443-2.753 12.185 1.981.446z" style="fill:#3e5c90;fill-opacity:1;fill-rule:nonzero;stroke:none;stroke-width:.200981" transform="matrix(1.75528 0 0 -1.75528 119.021 186.633)"/></g><g style="stroke-width:.200981"><path d="m0 0 1.277 1.229L2.455.005 1.177-1.228l2.008-2.078-1.46-1.404L-3.33.53l1.462 1.407Zm-5.731-5.863a1.504 1.504 0 0 1 .437-1.106 1.46 1.46 0 0 1 1.082-.468c.426-.005.808.156 1.143.485.319.306.493.678.51 1.112.017.427-.122.8-.42 1.111a1.472 1.472 0 0 1-1.101.46c-.432 0-.812-.155-1.132-.459-.34-.329-.512-.707-.519-1.135m3.47 2.909a1.98 1.98 0 0 0 .792-.505A2.683 2.683 0 0 0-.72-5.744a3.324 3.324 0 0 0-.383-1.253 4.418 4.418 0 0 0-.849-1.122 4.618 4.618 0 0 0-1.154-.809 3.308 3.308 0 0 0-1.251-.325 2.691 2.691 0 0 0-1.205.136 2.593 2.593 0 0 0-1.059.687c-.221.23-.381.5-.476.816a2.716 2.716 0 0 0-.092 1.041l-.805-.776-1.043 1.083 2.007 1.938-.911.947 1.459 1.405.911-.947 1.973 1.905 1.046-1.085-.759-.734c.388.03.738-.015 1.05-.117" style="fill:#3e5c90;fill-opacity:1;fill-rule:nonzero;stroke:none;stroke-width:.200981" transform="matrix(1.75528 0 0 -1.75528 152.677 142.794)"/></g><g style="stroke-width:.200981"><path d="m0 0-5.956-5.739 1.084-1.131L.156-2.021c.276.265.44.255.697-.019l1.825-1.89 1.464 1.415L1.734-.024C1.091.647.627.604 0 0" style="fill:#3e5c90;fill-opacity:1;fill-rule:nonzero;stroke:none;stroke-width:.200981" transform="matrix(1.75528 0 0 -1.75528 157.35 150.76)"/></g><g style="stroke-width:.200981"><path d="m0 0 2.017-3.198-1.135-.718-2.018 3.198-1.654-1.04 4.141-6.569c-.1-.119-.291-.288-.58-.504a11.65 11.65 0 0 0-.87-.604l-1.123-.71c-.323-.201-.481-.158-.682.156l-3.004 4.767 2.066 1.306-.835 1.325-3.781-2.389 4.286-6.795c.491-.784.954-.847 1.692-.384l2.153 1.362c.349.22.647.426.882.621.237.198.432.393.586.599l1.731-2.752 1.656 1.044-3.732 5.92 1.135.715 3.726-5.918 1.641 1.033L1.64 1.036Z" style="fill:#3e5c90;fill-opacity:1;fill-rule:nonzero;stroke:none;stroke-width:.200981" transform="matrix(1.75528 0 0 -1.75528 130.546 156.407)"/></g><g style="stroke-width:.200981"><path d="m0 0 1.012 1.15-1.264 1.121c.287.13.569.303.854.53.28.222.527.452.736.688l1.061 1.208c.614.701.542 1.157-.112 1.731l-6.297 5.535-1.024-1.165 5.325-4.68c.287-.25.292-.411.047-.693l-.551-.627a7.414 7.414 0 0 0-.635-.649 4.546 4.546 0 0 0-.86-.604l-6.383 5.616-1.012-1.154 3.896-3.426-.918-1.046-2.985 2.631-1.033-1.179L-4.816.309c.28-.258.288-.417.043-.7l-1.735-1.97 1.522-1.337 2.284 2.595c.615.699.546 1.154-.113 1.734l-1.761 1.546.914 1.043z" style="fill:#3e5c90;fill-opacity:1;fill-rule:nonzero;stroke:none;stroke-width:.200981" transform="matrix(1.75528 0 0 -1.75528 45.848 164.762)"/></g><g style="stroke-width:.200981"><path d="M0 0c-.2.325-.158.483.164.68l1.894 1.157L.979 3.604l-2.62-1.599c-.795-.484-.862-.941-.406-1.685l4.212-6.913 1.354.819z" style="fill:#3e5c90;fill-opacity:1;fill-rule:nonzero;stroke:none;stroke-width:.200981" transform="matrix(1.75528 0 0 -1.75528 13.138 138.923)"/></g><g style="stroke-width:.200981"><path d="M0 0a2.145 2.145 0 0 1-.423.543 4.053 4.053 0 0 1-.714.413 3.874 3.874 0 0 1-.916.273 3.92 3.92 0 0 1-.977.065 3.698 3.698 0 0 1-.781-.146 1.816 1.816 0 0 1-.564-.362.869.869 0 0 1-.276-.502.918.918 0 0 1 .083-.574c.087-.19.228-.356.422-.512a2.51 2.51 0 0 1 .687-.406c.27-.113.581-.201.922-.262.329-.059.649-.083.954-.075.302.011.577.062.815.154.225.079.418.19.579.327.152.14.248.305.284.503A.889.889 0 0 1 0 0m-6.199 1.817c.301.311.679.555 1.139.735.452.161.956.259 1.518.283a7.686 7.686 0 0 0 1.752-.122A7.62 7.62 0 0 0-.102 2.22a5.2 5.2 0 0 0 1.323-.787c.357-.328.621-.687.793-1.081.17-.395.219-.822.136-1.281a2.232 2.232 0 0 0-.57-1.15 2.875 2.875 0 0 0-1.114-.716 4.984 4.984 0 0 0-1.514-.296 7.583 7.583 0 0 0-1.756.124 7.71 7.71 0 0 0-1.687.49 4.994 4.994 0 0 0-1.324.802 2.882 2.882 0 0 0-.818 1.062A2.156 2.156 0 0 0-6.78.665c.081.459.275.842.581 1.152m9.595 4.791 1.75-.313-.296-1.657-1.749.31-.553-3.088-1.991.355 1.261 7.076 1.995-.354Z" style="fill:#3e5c90;fill-opacity:1;fill-rule:nonzero;stroke:none;stroke-width:.200981" transform="matrix(1.75528 0 0 -1.75528 86.148 183.736)"/></g><g style="stroke-width:.200981"><path d="m0 0-5.173.924-.275-1.54 3.726-.663c.39-.072.431-.156.289-.546a3.514 3.514 0 0 0-.515-.925 4.683 4.683 0 0 0-1.243-1.12 7.51 7.51 0 0 0-1.757-.784 8.509 8.509 0 0 0-2.091-.359l.968-1.39c.891.065 1.752.229 2.602.509a7.612 7.612 0 0 1 2.258 1.17A6.308 6.308 0 0 1 .408-2.837c.25.443.446.977.572 1.507C1.14-.576.959-.174 0 0" style="fill:#3e5c90;fill-opacity:1;fill-rule:nonzero;stroke:none;stroke-width:.200981" transform="matrix(1.75528 0 0 -1.75528 83.885 166.766)"/></g><g style="stroke-width:.200981"><path d="M0 0c-.189.728-.533.9-1.406.703L-6.598-.471l.342-1.511 3.723.835c.371.087.507-.037.592-.372a5.962 5.962 0 0 0 .195-1.62 5.482 5.482 0 0 0-.432-2.01 6.303 6.303 0 0 0-1.25-1.873c-.547-.582-1.244-1.109-2.086-1.586l1.317-1.018c1.032.563 1.896 1.221 2.582 1.977a7.613 7.613 0 0 1 1.531 2.5c.318.896.455 1.86.426 2.884A10.246 10.246 0 0 1 0 0" style="fill:#3e5c90;fill-opacity:1;fill-rule:nonzero;stroke:none;stroke-width:.200981" transform="matrix(1.75528 0 0 -1.75528 107.831 168.962)"/></g><g style="stroke-width:.200981"><path d="M0 0a1.74 1.74 0 0 1-.282.622 3.917 3.917 0 0 1-.626.622 5.407 5.407 0 0 1-.893.583c-.337.18-.658.309-.971.405a3.461 3.461 0 0 1-.832.148c-.271 0-.495-.037-.68-.119a.81.81 0 0 1-.402-.371.744.744 0 0 1-.073-.538c.039-.189.135-.392.289-.608.142-.201.342-.407.594-.609.248-.204.54-.4.875-.572.342-.184.674-.323.988-.417.318-.092.607-.15.867-.16.259-.003.477.034.663.101.178.071.32.193.41.36A.856.856 0 0 1 0 0m-5.712 3.759c.38.18.818.274 1.318.284.485 0 1.009-.077 1.572-.241a9.007 9.007 0 0 0 1.695-.695A9.052 9.052 0 0 0 .426 2.086 5.784 5.784 0 0 0 1.524.914c.262-.412.419-.817.483-1.234a1.97 1.97 0 0 0-.221-1.217 1.932 1.932 0 0 0-.872-.85A3.029 3.029 0 0 0-.36-2.66a5.66 5.66 0 0 0-1.599.235 9.063 9.063 0 0 0-1.719.707 8.887 8.887 0 0 0-1.529 1.01A5.223 5.223 0 0 0-6.282.47c-.279.41-.454.817-.526 1.228-.063.414-.001.812.208 1.199.21.397.503.684.888.862m10.84-1.617L4.409.778-6.312 6.447l.722 1.361Z" style="fill:#3e5c90;fill-opacity:1;fill-rule:nonzero;stroke:none;stroke-width:.200981" transform="matrix(1.75528 0 0 -1.75528 59.748 177.64)"/></g><g style="stroke-width:.200981"><path d="m0 0-1.845.974c-.656-1.24-2.863-2.247-6.003-1.051l.12-1.487c1.831-.704 3.887-.929 5.585-.252.403-1.787 1.748-3.359 3.355-4.478l1.3.744C-.247-3.63-.657-1.244 0 0" style="fill:#3e5c90;fill-opacity:1;fill-rule:nonzero;stroke:none;stroke-width:.200981" transform="matrix(1.75528 0 0 -1.75528 65.6 160.991)"/></g><g style="stroke-width:.200981"><path d="M0 0c-.628 2.827-2.654 6.944-5.618 12.084-2.967 5.141-5.524 8.949-7.657 10.908-1.167 1.074-2.237 1.507-3.113 1.507-.868 0-1.939-.433-3.107-1.504-.859-.79-1.787-1.883-2.779-3.241a19.823 19.823 0 0 0 6.14-14.37c0-4.463-1.465-8.58-3.944-11.898 1.165-.036 2.393-.048 3.69-.048 5.938 0 10.513.306 13.277 1.17 1.513.476 2.421 1.191 2.856 1.947C.181-2.693.348-1.546 0 0" style="fill:#faa619;fill-opacity:1;fill-rule:nonzero;stroke:none;stroke-width:.200981" transform="matrix(1.75528 0 0 -1.75528 158.76 102.981)"/></g><g style="stroke-width:.200981"><path d="M0 0c0 4.457 1.462 8.575 3.943 11.898-1.163.029-2.393.045-3.69.045-5.936.005-10.515-.306-13.278-1.174-1.512-.476-2.415-1.191-2.855-1.947-.435-.751-.598-1.895-.253-3.442.631-2.825 2.651-6.942 5.613-12.085 2.972-5.138 5.531-8.949 7.661-10.908 1.168-1.072 2.238-1.499 3.112-1.499.872 0 1.943.427 3.105 1.499.859.792 1.789 1.885 2.786 3.237A19.843 19.843 0 0 0 0 0" style="fill:#a6ce38;fill-opacity:1;fill-rule:nonzero;stroke:none;stroke-width:.200981" transform="matrix(1.75528 0 0 -1.75528 60.553 93.535)"/></g><g style="stroke-width:.200981"><path d="M0 0c-.433.752-.598 1.899-.251 3.445.627 2.827 2.65 6.945 5.617 12.084 1.774 3.07 3.401 5.663 4.875 7.67-3.578 3.423-8.423 5.535-13.766 5.535-6.536 0-12.334-3.148-15.964-8.008 4.154-.121 7.424-.454 9.585-1.129 1.507-.477 2.417-1.188 2.852-1.948.44-.752.6-1.895.255-3.442-.632-2.828-2.655-6.946-5.617-12.085-1.773-3.069-3.402-5.66-4.876-7.669a19.824 19.824 0 0 1 13.765-5.535c6.537 0 12.338 3.148 15.964 8.014-4.151.11-7.422.449-9.581 1.124C1.35-1.469.438-.756 0 0" style="fill:#00b3f0;fill-opacity:1;fill-rule:nonzero;stroke:none;stroke-width:.200981" transform="matrix(1.75528 0 0 -1.75528 101.683 109.029)"/></g><g style="stroke-width:.200981"><path d="M0 0c-1.479-2.007-3.104-4.601-4.875-7.67-2.973-5.14-4.992-9.255-5.619-12.084-.347-1.546-.182-2.691.251-3.444.44-.757 1.347-1.47 2.856-1.946 2.162-.674 5.435-1.011 9.583-1.124a19.797 19.797 0 0 1 3.945 11.896A19.824 19.824 0 0 1 0 0" style="fill:#3e5c90;fill-opacity:1;fill-rule:nonzero;stroke:none;stroke-width:.200981" transform="matrix(1.75528 0 0 -1.75528 119.663 68.308)"/></g><g style="stroke-width:.200981"><path d="M0 0c.342 1.545.182 2.688-.254 3.442-.438.758-1.348 1.469-2.857 1.945-2.16.677-5.431 1.011-9.583 1.13a19.826 19.826 0 0 1-3.94-11.899 19.838 19.838 0 0 1 6.142-14.376c1.472 2.012 3.101 4.602 4.875 7.671C-2.653-6.948-.633-2.827 0 0" style="fill:#3e5c90;fill-opacity:1;fill-rule:nonzero;stroke:none;stroke-width:.200981" transform="matrix(1.75528 0 0 -1.75528 89.754 84.088)"/></g><g style="stroke-width:.200981"><path d="M0 0a9.017 9.017 0 0 1-1.947 1.625l-5.588 3.443c-.713.439-1.155-.04-1.325-.314l-4.303-6.981 1.307-.805 3.84 6.233S-4.39.967-2.58-.15c1.042-.641 1.504-1.043 1.705-1.269l-.821-1.336L-6.398.144l-.873-1.418 4.7-2.897-.76-1.234-4.699 2.898-.875-1.418 4.702-2.897-.714-1.156 1.392-.861L1.782-.228.39.63Z" style="fill:#3e5c90;fill-opacity:1;fill-rule:nonzero;stroke:none;stroke-width:.200981" transform="matrix(1.75528 0 0 -1.75528 176.274 132.42)"/></g></g></svg>