<svg xmlns="http://www.w3.org/2000/svg" xml:space="preserve" width="1393.7443" height="303.37555" viewBox="0 0 1393.7443 303.37554"><path d="M138.478 727.609a3.234 3.234 0 0 1-2.801-1.613c-.964.498-4.328 2.066-8.177 1.77-.715 9.841-4.596 18.816-10.628 25.91.836.693 2.592 2.542 4.677 6.986.138-.017.276-.03.416-.03a3.244 3.244 0 1 1-3.24 3.243c0-.271.035-.532.099-.784-1.232-.413-4.471-1.707-6.843-4.479-7.104 6.152-16.139 10.13-26.062 10.883.042 1.237-.175 3.724-1.726 7.896a3.243 3.243 0 1 1-5.173 2.603c0-1.182.632-2.21 1.574-2.777-.525-1.062-1.871-4.165-1.67-7.728-9.832-.764-18.79-4.691-25.854-10.76-.702.83-2.546 2.54-6.902 4.55a3.242 3.242 0 0 1-3.217 3.642 3.242 3.242 0 1 1 0-6.486c.248 0 .492.032.723.086.447-1.27 1.76-4.41 4.483-6.713-6.098-7.118-10.024-16.149-10.738-26.055-3.975.35-7.458-1.31-8.358-1.782a3.243 3.243 0 1 1-2.818-4.847c1.101 0 2.074.552 2.66 1.391 4.901-1.798 7.514-1.806 8.54-1.685.778-9.706 4.636-18.552 10.594-25.563-3.07-2.665-4.305-6.375-4.514-7.063-.245.06-.502.097-.77.097a3.243 3.243 0 1 1 0-6.486A3.243 3.243 0 0 1 46 685.055c0 .25-.032.493-.085.725 4.298 1.954 6.23 3.638 7.03 4.53 7.086-6.133 16.092-10.102 25.98-10.87-.203-3.68 1.24-6.867 1.72-7.815a3.243 3.243 0 1 1 3.586.029c1.51 4.092 1.729 6.546 1.69 7.78 9.833.75 18.795 4.66 25.87 10.717 2.353-2.74 5.555-4.03 6.802-4.451a3.243 3.243 0 1 1 3.177 2.6 2.8 2.8 0 0 1-.491-.045c-2.016 4.267-3.718 6.096-4.568 6.808 6.051 7.041 9.977 15.96 10.761 25.75 1.108-.099 3.692-.022 8.36 1.684a3.243 3.243 0 1 1 2.646 5.11M82.46 680.845c-24.055 0-43.622 19.57-43.622 43.62 0 24.053 19.567 43.622 43.622 43.622 24.051 0 43.62-19.57 43.62-43.621 0-24.052-19.569-43.621-43.62-43.621z" style="fill:#fff;fill-opacity:1;fill-rule:nonzero;stroke:none" transform="matrix(1.33333 0 0 -1.33333 28.425 644.858)"/><path d="M51.38 724.465c0-17.08 13.898-30.981 30.982-30.981 17.08 0 30.979 13.9 30.979 30.98 0 17.085-13.899 30.982-30.979 30.982-17.084 0-30.982-13.897-30.982-30.981m1.157 0c0 16.444 13.38 29.826 29.825 29.826 16.444 0 29.823-13.382 29.823-29.826 0-16.444-13.379-29.822-29.823-29.822-16.445 0-29.825 13.378-29.825 29.822zM45.552 706.332l-.584 1.466 2.92 1.167-4.015 1.575-.765 1.91 4.078-1.743 2.952 4.722.758-1.902-2.22-3.422 1.01-.423 2.372.944.582-1.462zM48.519 718.52c.107-.628-.039-1.164-.436-1.612-.397-.45-1.018-.747-1.868-.89-.849-.147-1.533-.073-2.057.223-.525.292-.84.75-.946 1.374-.104.624.043 1.157.441 1.6.4.447 1.021.742 1.868.887.848.143 1.533.07 2.054-.217.525-.287.838-.744.944-1.365m-3.264 3.148c-1.378-.235-2.35-.791-2.91-1.665-.488-.67-.646-1.537-.462-2.611.184-1.077.618-1.847 1.3-2.316.817-.645 1.919-.849 3.296-.614 1.352.23 2.32.788 2.91 1.67.49.667.642 1.536.458 2.613-.182 1.072-.614 1.844-1.295 2.311-.847.639-1.946.839-3.297.612zM42.96 727.274c.02.327.082.57.182.727.18.282.5.405.962.374.43-.026.707-.198.83-.508.073-.175.097-.433.075-.774l-.114-1.715-2.055.136.12 1.76m-1.29.422-.243-3.64 7.618-.512.101 1.55-2.989.201.102 1.556c.031.444.134.742.305.89.172.151.502.213.99.188l.71-.037a3.75 3.75 0 0 1 1.077.097l.118 1.756-.19.012a.65.65 0 0 0-.457-.266c-.126-.018-.362-.016-.712.006l-.513.033c-.536.038-.936-.01-1.207-.138-.27-.131-.487-.362-.652-.707-.116.431-.343.752-.68.956a2.256 2.256 0 0 1-1.048.345 2.132 2.132 0 0 1-1.472-.427 1.865 1.865 0 0 1-.58-.676c-.139-.272-.232-.669-.278-1.187zM45.077 737.572l-1.06-3.815 1.566-.434.971 3.491 1.264-.351-.97-3.49 1.902-.532 1.105 3.993 1.324-.368-1.524-5.486-7.352 2.043 1.474 5.311zM47.56 742.062l3.109-.509-.888-1.735-2.22 2.244m3.604-5.888.755 1.481-1.169 1.182 1.277 2.494 1.632-.265.79 1.537-8.026 1.07-.816-1.6z" style="fill:#fff;fill-opacity:1;fill-rule:nonzero;stroke:none" transform="matrix(1.33333 0 0 -1.33333 28.425 644.858)"/><path d="m48.607 747.437 1.036 1.289 6.046-.95-4.148 3.32.921 1.15 5.955-4.774-.987-1.233-6.182.962 4.232-3.394-.919-1.144zM60.209 756.999c.302.209.574.345.814.413.293.062.539-.058.742-.353.183-.264.225-.512.125-.733-.099-.223-.287-.428-.562-.618l-1.536-1.051-.959 1.398 1.376.944m1.85-2.321c.271.183.505.288.701.323.353.06.64-.074.865-.404.27-.389.31-.748.128-1.075-.098-.177-.286-.36-.562-.547l-1.527-1.05-1.158 1.689 1.552 1.064m-2.176 3.69-3.042-2.085 4.315-6.297 2.839 1.942c.318.22.595.454.83.696.232.246.396.514.494.804.084.256.121.524.105.801-.017.423-.151.822-.409 1.196-.248.362-.537.614-.876.754-.339.142-.706.161-1.11.058.14.252.218.483.239.688.035.367-.079.742-.344 1.125-.256.374-.574.63-.948.765-.619.215-1.316.066-2.093-.446zM68.369 754.394l-1.413-.698-3.384 6.842 1.415.698zM70.364 761.934c.35.114.65.168.897.166.298-.025.504-.21.612-.55.1-.308.07-.553-.087-.74-.158-.185-.397-.33-.713-.431l-1.773-.572-.522 1.613 1.586.514m1.116-2.752c.31.095.566.132.764.11.354-.042.593-.252.715-.634.146-.446.084-.802-.182-1.064-.147-.142-.378-.266-.694-.367l-1.764-.57-.632 1.947 1.793.578m-1.04 4.157-3.51-1.136 2.348-7.263 3.273 1.06c.368.117.701.262.995.429.293.17.529.378.703.63.156.221.268.467.33.74.103.411.087.83-.05 1.26-.136.417-.347.74-.63.973-.283.23-.632.353-1.047.37.204.202.347.4.423.592.139.341.135.736-.008 1.18-.139.43-.372.76-.692 1-.533.382-1.243.438-2.134.165zM74.783 764.471l1.576.2.789-6.21 3.765.48.173-1.361-5.34-.68zM87.312 763.556l-3.954.207-.084-1.622 3.62-.19-.07-1.31-3.619.19-.103-1.973 4.135-.217-.071-1.371-5.686.297.399 7.623 5.505-.287zM93.654 763.646l1.525-.562-1.624-4.397c-.182-.492-.257-.875-.223-1.145.033-.464.351-.81.957-1.032.6-.223 1.065-.168 1.396.167.2.184.389.522.57 1.014l1.622 4.396 1.524-.562-1.621-4.4c-.281-.76-.618-1.307-1.011-1.645-.727-.615-1.71-.693-2.947-.234-1.24.454-1.936 1.152-2.093 2.093-.08.511.02 1.148.301 1.91zM101.664 760.4l1.398-.887-.281-6.115 2.848 4.487 1.24-.789-4.088-6.445-1.33.845.27 6.251-2.904-4.582-1.242.787zM104.872 748.707l-1.186 1.041 5.036 5.737 1.186-1.041zM114.541 749.498l1.068-1.248-7.486-2.99-.971 1.131 4.119 6.925 1.107-1.293-3.323-5.028zM118.299 740.94l-1.924 3.462-1.42-.787 1.757-3.17-1.144-.637-1.76 3.169-1.726-.959 2.01-3.621-1.199-.665-2.764 4.978 6.67 3.704 2.677-4.82zM120.286 735.494c.095-.314.124-.561.087-.745-.068-.325-.326-.558-.769-.69-.41-.129-.731-.066-.958.18-.128.137-.241.371-.343.697l-.5 1.643 1.969.6.514-1.685m1.353.062-1.063 3.491-7.301-2.224.45-1.484 2.87.872.452-1.492c.132-.425.142-.739.033-.94-.107-.202-.394-.378-.859-.527l-.676-.216a3.562 3.562 0 0 1-.609-.256 6.015 6.015 0 0 1-.364-.217l.513-1.684.183.058a.633.633 0 0 0 .329.407c.111.066.335.149.67.25l.49.15c.513.154.873.34 1.08.559.206.214.326.51.361.888.26-.362.584-.58.973-.653a2.28 2.28 0 0 1 1.828.418c.196.159.364.342.502.553.167.256.267.535.302.838.032.307-.021.707-.164 1.21zM117.675 728.93c-.344-.082-.595-.197-.754-.357-.292-.286-.409-.747-.353-1.381.033-.38.099-.684.204-.913.197-.434.51-.633.94-.595.25.019.436.142.554.372.118.225.204.582.266 1.072l.112.836c.11.822.254 1.392.438 1.715.308.543.833.847 1.58.91.682.057 1.27-.142 1.762-.602.494-.461.781-1.174.866-2.143.07-.805-.082-1.513-.457-2.12-.373-.608-.964-.96-1.77-1.057l-.128 1.512c.45.067.758.299.92.696.103.263.138.585.108.963-.037.42-.148.746-.334.982a.787.787 0 0 1-.727.315c-.269-.022-.46-.162-.575-.423-.073-.165-.15-.51-.227-1.03l-.202-1.354c-.087-.59-.233-1.045-.438-1.357-.32-.484-.818-.758-1.496-.812-.696-.062-1.295.155-1.8.65-.507.495-.803 1.23-.885 2.205-.087.996.07 1.798.475 2.409.4.612.998.95 1.79 1.018zM115.494 721.64l.087 1.573 7.62-.416-.084-1.573-7.623.415zM121.968 713.731l-1.326.244.417 2.248-6.18 1.146.292 1.574 6.18-1.142.417 2.247 1.326-.243zM119.768 707.74l-.665-1.677-3.498 4.127-2.66 1.054.586 1.477 2.653-1.052 5.412.692-.69-1.745-3.673-.243zM61.275 694.82l.52.852c.408-.223.703-.368.883-.43a1.36 1.36 0 0 1 .82-.048c.177.05.351.15.524.304.103.093.17.167.205.223l1.047-.638-3.912-6.398-1.285.783 2.706 4.427-1.508.925zM74.296 687.698c-.364.074-.612.235-.744.488-.134.253-.155.599-.068 1.032.103.517.314.856.632 1.013.202.105.425.13.673.082.335-.066.575-.24.719-.522.145-.28.173-.63.09-1.043-.102-.517-.337-.843-.71-.99a1.05 1.05 0 0 0-.592-.06m-2.317 1.682c-.15-.76-.041-1.386.33-1.883.37-.493.844-.799 1.427-.915.392-.076.74-.064 1.04.048.166.055.331.159.497.297-.14-.551-.29-.966-.455-1.237-.297-.485-.684-.684-1.159-.59-.245.049-.431.156-.551.321a.894.894 0 0 0-.17.587l-1.44.287c-.06-.638.097-1.163.474-1.576.378-.413.84-.678 1.394-.789 1.159-.232 2.07.174 2.729 1.219.347.549.61 1.267.789 2.156.181.912.21 1.674.087 2.281-.22 1.073-.888 1.719-2.006 1.946-.727.144-1.365.019-1.92-.378-.553-.397-.906-.99-1.066-1.774zM88.47 685.958c.123-.3.282-.518.478-.654.198-.137.455-.172.764-.106.356.079.6.261.736.55.134.29.16.624.08 1.004-.08.372-.233.67-.464.888-.227.22-.53.292-.897.21a1.488 1.488 0 0 1-.442-.16.922.922 0 0 1-.413-.558l-1.314-.217-.339 4.171 4.062.861.258-1.225-3.018-.64.078-1.661c.19.192.343.322.459.397.19.123.438.216.74.278.607.131 1.181.037 1.719-.272.539-.312.89-.858 1.053-1.636a2.84 2.84 0 0 0-.267-1.952c-.322-.627-.917-1.033-1.783-1.215-.702-.15-1.314-.08-1.842.198-.527.28-.89.757-1.087 1.433zM101.34 689.792c-.059.542.117 1.249.528 2.118.357.756.574 1.277.645 1.555.109.438.069.825-.12 1.165-.156.28-.36.465-.619.564-.257.098-.528.065-.815-.096-.393-.22-.579-.51-.558-.882.013-.214.116-.509.306-.883l-1.252-.698c-.291.566-.442 1.075-.453 1.519-.023.848.408 1.514 1.283 2.005.694.386 1.353.5 1.98.347.623-.158 1.111-.553 1.466-1.185.273-.486.366-.996.287-1.533-.05-.36-.208-.811-.469-1.364l-.312-.653a12.9 12.9 0 0 1-.384-.865 1.663 1.663 0 0 1-.101-.527l2.861 1.595.634-1.132-4.49-2.508a3.49 3.49 0 0 0-.416 1.458zM56.497 698.65a1.828 1.828 0 1 0-3.659 0c0 1.009.818 1.827 1.83 1.827 1.01 0 1.83-.818 1.83-1.826zM111.3 699.13a1.831 1.831 0 0 0-3.66 0 1.83 1.83 0 0 0 3.66 0zM97.238 732.55H85.585v8.185h-7.9v-8.185H66.419v-7.897h11.268v-26.1h7.899v26.1h11.653zM66.13 708.752c0-.248-.218-.45-.486-.45h-4.782c-.264 0-.484.202-.484.45v.79c0 .248.22.45.484.45h4.782c.268 0 .485-.202.485-.45z" style="fill:#fff;fill-opacity:1;fill-rule:nonzero;stroke:none" transform="matrix(1.33333 0 0 -1.33333 28.425 644.858)"/><path d="M76.016 719.036v1.023c0 .322-.244.582-.545.582h-3.12v1.845a.545.545 0 0 1-.543.547h-.958a.546.546 0 0 1-.543-.547v-1.845h-2.605c-.3 0-.546-.26-.546-.582v-1.023c0-.319.246-.578.546-.578h2.605v-1.542h-2.605c-.3 0-.546-.26-.546-.582v-1.023c0-.32.246-.58.546-.58h7.769c.301 0 .545.26.545.58V719.036m-3.664-.579h1.355v-1.54h-1.355zM75.47 713.834h-7.768c-.3 0-.546-.26-.546-.58v-1.023c0-.07.012-.14.035-.198V709.6a.57.57 0 0 1-.035-.201v-1.023c0-.317.246-.578.546-.578h7.769c.301 0 .545.26.545.578v4.877c0 .32-.244.58-.545.58m-5.97-2.185h4.206v-1.668H69.5zM75.47 706.771h-6.9a.553.553 0 0 1-.114-.014h-.122c-.339 0-.614-.244-.614-.544v-4.943c0-.3.275-.547.614-.547h1.08c.042 0 .083.006.12.012h1.718v-1.468c0-.302.273-.546.614-.546h1.08c.344 0 .616.244.616.546v1.468h1.909c.301 0 .545.26.545.58v1.021c0 .32-.244.58-.545.58h-1.909v1.672h1.909c.301 0 .545.26.545.578v1.023c0 .322-.244.582-.545.582m-4.219-3.855H70.03v1.672h1.222zM98.401 704.34h1.595s.574-.085.574-.409c0-.33.122-.655-.533-1.312-.183-.186-.24-.471-1.163-.471s-.473 2.192-.473 2.192z" style="fill:#fff;fill-opacity:1;fill-rule:nonzero;stroke:none" transform="matrix(1.33333 0 0 -1.33333 28.425 644.858)"/><path d="M102.855 707.926H87.992c-.3 0-.545-.26-.545-.579v-1.021c0-.323.245-.583.545-.583h7.645c-.134-.39-.388-1.014-.756-1.413h-6.89c-.3 0-.544-.261-.544-.58v-1.021c0-.32.245-.581.545-.581h3.632l-.82-1.154h-2.812c-.3 0-.545-.261-.545-.58v-1.023c0-.323.245-.583.545-.583h5.456c.026 0 .051.006.078.008h.702c.534 0 1.967 1.268 2.128 1.636.165.37-.409.492-.818.492h-1.871a.566.566 0 0 1-.22.05h-.039l.957 1.154h4.509c.304 0 .548.26.548.58v1.021c0 .32-.244.58-.548.58h-1.578c.28.397.707.994 1.015 1.413h4.544c.302 0 .546.261.546.583v1.022c0 .319-.244.579-.546.579zM87.992 709.79h.353c0-.304.277-.546.614-.546h1.084c.339 0 .614.242.614.546h4.623v-.5c0-.3.275-.545.614-.545h1.082c.339 0 .616.245.616.545v10.645h.737c.301 0 .545.26.545.58v1.02c0 .323-.244.58-.545.58H87.992c-.3 0-.545-.257-.545-.58v-1.02c0-.32.245-.58.545-.58h.353v-7.964h-.353c-.3 0-.545-.26-.545-.578v-1.025c0-.322.245-.578.545-.578m2.665 6.796h4.623v-1.396h-4.623v1.396m4.623 3.349v-1.661h-4.623v1.66h4.623m-4.623-6.432h4.623v-1.53h-4.623zM109.232 722.052a.518.518 0 0 1-.243.064h-8.799c-.299 0-.545-.258-.545-.58v-1.02c0-.036.004-.074.01-.104v-8.918a.577.577 0 0 1-.01-.101v-1.025c0-.322.246-.578.545-.578h4.462l.009-.013h.818s2.778.9 4.17 11.49c.04.31-.1.69-.416.785m-5.475-10.08h-1.791v7.963h4.818c-.022-1.389-.3-6.072-3.027-7.964zM67.117 703.028c-.157.16-1.09 1.134-1.954 2.064h.48c.27 0 .486.202.486.45v.79c0 .247-.217.45-.485.45h-1.98c-.284.31-1.106 1.192-2.022 2.344l1.405.149s1.157.706-.514.706c-.99 0-1.66.382-2.045.695-.316.458-.622.935-.894 1.415h4.199v-3.12c0-.302.275-.545.614-.545h1.085c.338 0 .612.243.612.546v3.433c.013.043.025.087.025.132v.791c0 .05-.012.093-.025.137v2.28c.013.044.025.087.025.134v.79c0 .248-.217.45-.485.45H61.89v1.339h3.692c.302 0 .547.26.547.578v1.023c0 .322-.245.582-.547.582H61.89v1.845c0 .302-.274.547-.611.547h-1.087c-.337 0-.611-.245-.611-.547v-1.845h-4.206c-.304 0-.547-.26-.547-.582v-1.023c0-.319.243-.578.547-.578h4.206v-1.34h-2.985a.528.528 0 0 1-.26-.07c-.147-.028-.498-.144-.465-.565.03-.414.9-4.235 5.3-9.701h-.31c-.263 0-.483-.203-.483-.45v-.79c0-.248.22-.45.484-.45h1.74a53.2 53.2 0 0 1 3.368-3.452c.319-.298 1.064-.204 1.064-.204.163.12.203 1.475.083 1.592m-8.333 10.753c-.215.57-.351 1.131-.376 1.648h5.385v-1.648zM60.53 738.971c-.144-.048-.457-.305-.426-.855.03-.55.299-2.045.363-2.323.064-.274.064-.73-.27-.64-.337.091-1.529.397-2.413.091-.269-.09-.277-.428-.246-.765.03-.334.03-1.098.397-1.495 0 0 .252-.121.396.153 0 0 .308.917.996.64.293-.12.989-1.039 1.14-1.93.067-.385.463-1.125 1.073-1.032.61.091.764.793.61 1.465-.078.349-.763 1.65-.855 1.803-.09.153.335.396.753.22.251-.108 1.082-1.015 1.691-.524.288.227.826 1.374.702 2.442-.03.275-.088.98-.642.978-.273 0-.525-.265-.61-.61-.043-.18-.06-1.07-.305-1.07-.244 0-.915-.153-1.313 1.528-.065.276-.031 2.26-1.04 1.924zM79.689 750.043c-.13.079-.529.152-.93-.227-.398-.38-.933-.915-1.532-1.78-.162-.232-.477-.397-.623-.081-.15.316-.615 1.367-1.422 1.845-.242.145-.616-.14-.851-.383-.24-.241-.823-.737-.889-1.272 0 0 .073-.27.376-.205 0 0 .897.363 1.133-.342.1-.3-.15-1.426-.732-2.118-.254-.3-.558-1.08-.095-1.487.467-.407 1.102-.066 1.512.483.217.287.764 1.65.822 1.82.059.17.521.002.654-.43.081-.262-.073-1.48.695-1.632.362-.07 1.583.265 2.318 1.048.188.2.688.705.329 1.122-.18.206-.541.23-.86.07-.167-.083-.855-.646-1.012-.459-.159.186-.71.6.314 1.99.166.227 1.702 1.487.793 2.038zM92.485 748.627c-.08.127-.405.372-.934.212-.525-.159-1.26-.273-2.268-1.006-.227-.167-.715-.165-.702.182.008.35.23 1.442-.277 2.231-.15.238-.57.341-.888.231-.32-.107-1.164-.363-1.463-.81 0 0-.118-.23.182-.307 0 0 1.053-.213.948-.948-.045-.315-.717-1.122-1.547-1.475-.36-.153-.978-.763-.744-1.335.23-.572.826-.549 1.446-.244.318.16 1.632 1.157 1.76 1.283.128.127.38-.142.306-.589-.046-.27-.731-1.289-.112-1.768.29-.223 1.528-.477 2.54-.107.26.095.975.371.842.905-.064.268-.409.308-.764.308-.186 0-1.07-.102-1.126.138-.059.236-.366.855 1.173 1.636.254.126 2.192.56 1.628 1.463zM69.82 744.9c-.224.577-1.047 1.252-2.17 1.16-.426-.036-2.688.213-3.237-3.3-.083-.527-.155-2.81 2.026-2.931 0 0 2.128-.521 3.289 1.679.281.533.736 1.741.093 3.391m-1.365-2.441c-.08-.147-.133-.46-.654-1.041-.233-.263-.842-.632-1.1-.448-.457.323-.696 1.12-.763 1.637-.183 1.41 1.033 2.153 1.345 2.08.398-.091.558-.296.794-.582.237-.284.46-1.498.378-1.646zM101.228 742.365c-.123.411-.347 2.675-3.9 2.483-.534-.029-2.782-.434-2.447-2.592 0 0-.068-2.192 2.326-2.87.579-.163 1.856-.353 3.336.616.517.34 1.009 1.283.685 2.363m-1.823-.824c-.231-.29-1.372-.76-1.532-.71-.162.047-.784-.253-1.458.135-.305.174-.49.98-.365 1.269.223.516.953.913 1.447 1.087 1.334.47 2.317-.562 2.31-.883-.005-.406-.175-.61-.402-.898zM107.613 731.585c.121.023.52 1.399-.273 2.742-.256.432-1.163 2.752-2.874 3.117-.359.077-1.648.154-2.115-.775-.194-.386-.205-1.669-.175-2.127.03-.459.155-1.116 0-.938-.154.175-.703.907-.948.845-.244-.06-.488-.181-.366-.67.047-.192 1.13-1.834 1.832-2.202 0 0 .612-.336.52.275-.04.279-.23 2.719-.16 2.98.07.26.008 1.054.803 1.024.287-.013.977-1.04 1.101-1.314.12-.274 1.34-2.082 1.427-2.255.087-.177.71-.8 1.228-.702zM213.182 747.526l-1.909 7.639h-3.82v4.964l2.674 2.29-12.93 3.439.71-3.056v-37.046h9.547v21.77zM500.752 747.526l-1.91 7.639h-3.819v4.964l2.674 2.29-12.926 3.439.706-3.056V736.8h9.546v10.726zM195.611 754.784l-5.286 8.018-1.176-1.174h-7.282v5.376l-11.457-.057s1.91-.326 1.527-5.672l-5.729.058-.383 2.233-9.164-8.401h7.578s-5.286-17.95 11.9-19.096c0 0 14.893-.763 16.039 12.603l-8.402 6.112h11.835m-18.379-13.851c-3.28 0-5.937 3.145-5.937 7.023 0 3.877 2.658 7.022 5.937 7.022 3.282 0 5.943-3.145 5.943-7.022 0-3.878-2.66-7.023-5.943-7.023zM165.882 733.396l11.4-3.818V718.94l24.824.058v1.909l9.167-7.755h-44.301v17.185s.057 1.912-1.09 3.058zM226.74 764.14l-7.449-6.875h37.235V746h-35.783v1.144l-5.46-6.684h22.723v-6.3h-11.077v1.338l-8.404-8.024h37.812v-14.127h9.357v14.512h1.966l-6.55 7.196v-1.087h-12.603v6.112h26.542l-4.967 6.3h-4.388v11.268h1.523l-6.68 6.68v-1.72h-32.654ZM290.322 765.667s5.537-23.678-15.081-21.577l7.255-6.494s6.875 1.337 12.414 9.358c0 0 6.87-7.257 12.984-9.167l6.34 5.651s-16.46-2.403-14.17 19.438z" style="fill:#fff;fill-opacity:1;fill-rule:nonzero;stroke:none" transform="matrix(1.33333 0 0 -1.33333 28.425 644.858)"/><path d="m315.531 766.295 11.074-4.065v-27.115h-10.31v12.6h-8.979v5.728h9.17v9.55s.383 1.45-.955 3.302zM371.862 765.127l10.1-4.068v-47.576h-9.337v31.766h-9.95v5.729h10.141v10.845s.378 1.451-.954 3.304z" style="fill:#fff;fill-opacity:1;fill-rule:nonzero;stroke:none" transform="matrix(1.33333 0 0 -1.33333 28.425 644.858)"/><path d="m345.129 765.667 10.12-3.437s-4.203-24.443 15.467-25.397l-7.447-5.729s-6.874-.572-13.177 9.167c0 0-4.394-8.021-12.218-9.739l-8.212 6.3s19.475-3.436 15.467 28.835zM313.781 728.073h8.19c-2.662 3.546-7.622 5.937-13.314 5.937-8.504 0-15.393-5.315-15.393-11.88 0-6.56 6.89-11.883 15.393-11.883 8.5 0 15.392 5.322 15.392 11.884 0 .119-.02.239-.025.358l-10.243 5.584m-5.124-12.018a6.079 6.079 0 0 0-6.08 6.076 6.08 6.08 0 0 0 6.08 6.077 6.075 6.075 0 0 0 6.074-6.077 6.074 6.074 0 0 0-6.074-6.076zM411.636 763.566h-24.12s2.295-2.102 2.295-4.2v-28.07h29.865V712.96h8.382v32.273h2.806V712.96h9.168v48.886l-8.976 4.01v-14.129h-3.25v8.401l1.34 1.718-10.885 3.437s1.147-1.527 1.147-3.437v-24.251h-19.475v19.283h16.99l-5.287 8.021zM483.233 754.691l-5.29 8.019-1.176-1.176h-7.283v5.378l-11.457-.057s1.91-.326 1.525-5.671l-5.729.057-.38 2.233-9.168-8.402h7.582s-5.286-17.949 11.899-19.095c0 0 14.89-.763 16.039 12.603l-8.401 6.111h11.84m-18.383-13.848c-3.278 0-5.94 3.143-5.94 7.022 0 3.878 2.662 7.02 5.94 7.02 3.28 0 5.941-3.142 5.941-7.02 0-3.88-2.66-7.022-5.941-7.022zM459.62 734.16v-1.149h30.059l-.194 1.72 7.063-6.683h-1.335v-15.465h-8.593v13.367h-35.974zM514.308 764.9l-6.244-7.386h35.08V736.26h9.928v20.887l1.716.689-6.11 6.683-1.334-1.526h-31.888z" style="fill:#fff;fill-opacity:1;fill-rule:nonzero;stroke:none" transform="matrix(1.33333 0 0 -1.33333 28.425 644.858)"/><path d="m557.466 733.968-1.53-2.483h-16.039v17.57H529.01c1.53 0 1.34-2.675 1.34-2.675v-14.895h-3.055v17.57h-10.889c1.531 0 1.34-2.675 1.34-2.675v-14.895h-7.637l-1.149 1.911-6.875-6.874H563ZM165.342 702.081h6.109v-8.478l7.257 8.478h5.155l-7.962-8.784 8.593-13.06-5.214.074-6.054 9.736-1.775-2.098v-7.638h-4.582v20.433l-1.527 1.337z" style="fill:#fff;fill-opacity:1;fill-rule:nonzero;stroke:none" transform="matrix(1.33333 0 0 -1.33333 28.425 644.858)"/><path d="M194.364 702.593c-5.74 0-10.394-5.074-10.394-11.34 0-6.265 4.654-11.34 10.394-11.34 5.744 0 10.399 5.075 10.399 11.34 0 6.266-4.655 11.34-10.399 11.34m0-18.343c-3.542 0-6.419 3.137-6.419 7.003 0 3.867 2.877 7.004 6.42 7.004 3.545 0 6.42-3.137 6.42-7.004 0-3.866-2.875-7.003-6.42-7.003zM211.36 680.5h-3.246v18.332s0 2.103-2.292 3.058h15.276s4.393-.386 4.393-5.348c0 0 .38-3.63-3.056-4.963 0 0 2.671-2.101 2.671-4.395v-5.344s.765-.955 1.34-1.34h-4.814v5.495s.181 5.944-6.979 5.944c0 0 7.305.5 7.305 3.22 0 0 1 3.615-3.297 3.615h-7.196zM226.685 702.031h18.043v-3.291h-12.106v-4.441h12.26v-3.292h-12.143v-6.629h12.809v-3.828h-16.715v18.801s.286 2.253-2.148 2.68zM258.43 702.081h-4.105l-7.067-21.673h4.162l2.236 6.967h6.072l2.234-6.776h4.297l-7.829 21.482m-3.971-11.472 2.062 7.104 2.424-7.104zM266.962 701.981h4.892l9.775-14.338v14.438h4.39v-21.673h-4.063l-9.874 14.856v-14.856h-4.202l.135 20.336zM312.276 687.375c0 3.632-3.187 4.967-3.187 4.967 2.292.67 2.232 4.966 2.232 4.966 0 4.582-5.079 4.773-5.079 4.773H294.04l1.34-1.49v-19.897h10.885c7.064 1.527 6.012 6.68 6.012 6.68m-4.297.287c-.096-3.243-3.187-2.67-3.187-2.67h-4.928v13.557h5.594c2.198.092 2.425-1.626 2.425-1.626.862-4.483-6.378-4.254-6.378-4.254 6.59 0 6.474-5.007 6.474-5.007zM339.894 687.283c0 3.628-3.19 4.962-3.19 4.962 2.29.667 2.235 4.963 2.235 4.963 0 4.584-5.082 4.779-5.082 4.779H321.66l1.335-1.492v-19.896h10.883c7.064 1.527 6.017 6.684 6.017 6.684m-4.296.285c-.095-3.25-3.19-2.672-3.19-2.672h-4.926v13.555h5.595c2.195.097 2.426-1.62 2.426-1.62.857-4.489-6.38-4.257-6.38-4.257 6.589 0 6.475-5.006 6.475-5.006zM314.379 701.981h5.918v-21.67h-4.39v20.238zM357.052 701.935H375.1v-3.295h-12.432v-4.435h12.583v-3.294H362.78v-6.627h13.14v-3.831H359.2v18.798s.285 2.253-2.148 2.684zM346.229 684.632v17.45h-5.593l1.525-1.433v-20.24H356.433v4.223zM402.688 688.33h-.114v13.627h-5.923l1.53-1.432v-12.673c-.251-4.252-4.463-3.819-4.463-3.819-3.222-.191-4.222 2.2-4.535 3.566v14.492h-5.92l1.524-1.432.293-12.327-.049-.002c-.025-9.212 8.876-8.019 8.876-8.019 9.741 0 8.782 8.019 8.782 8.019zM404.97 701.8h5.217l9.774-14.336v14.433h4.07v-21.67h-4.07l-10.196 15.18v-15.18h-3.874l.133 20.335zM425.701 702.081h5.918v-21.673h-4.393v20.24zM453.206 702.354h18.046v-3.291h-12.105v-4.438h12.258v-3.297h-12.148v-6.623h12.815v-3.832h-16.718v18.802s.288 2.252-2.148 2.68zM478.546 680.93h-3.247v18.334s0 2.101-2.29 3.056h15.276s4.394-.385 4.394-5.35c0 0 .054-3.628-3.382-4.963 0 0 2.999-2.099 2.999-4.394v-5.342s.763-.956 1.333-1.34h-4.81v5.491s-.466 5.95-7.628 5.95c0 0 7.952.495 7.952 3.215 0 0 1.004 3.618-3.291 3.618h-7.202zM433.05 702.176h4.44l5.445-15.219 5.154 15.074h4.008l-6.872-21.765h-4.297zM506.378 696.447h3.72s-.428 6.875-8.593 6.875c0 0-6.156-.286-6.873-6.303 0 0-.427-5.975 8.452-6.977 0 0 3.771-.28 3.52-2.95 0 0-.704-5.16-6.53-2.748 0 0-1.906 1.407-1.906 3.702h-3.572s.106-7.447 7.675-7.735c0 0 8.31-.289 8.498 6.873 0 0-.095 5.255-6.208 6.17 0 0-6.012.035-6.393 3.382 0 0 .095 3.336 3.818 3.093 0 0 3.343.054 4.392-3.382zM512.772 702.845h5.918v-21.677h-4.388v20.245zM537.216 702.613h-16.23v-3.819h6.296v-17.473h4.011v17.473h5.923zM540.748 702.65h4.392l4.733-8.264 4.334 8.264h4.205l-6.3-11.931v-9.073h-4.013v8.979z" style="fill:#fff;fill-opacity:1;fill-rule:nonzero;stroke:none" transform="matrix(1.33333 0 0 -1.33333 28.425 644.858)"/><g transform="matrix(1.33333 0 0 -1.33333 -46.753 637.864)"><circle cx="149.43678" cy="-365.65555" r="87.155968" style="fill:#f9f9f9;stroke:#fff;stroke-width:0" transform="scale(1 -1)"/><path d="M258.6 370.716a6.26 6.26 0 0 1-5.42-3.123c-1.866.964-8.379 4-15.829 3.428-1.384 19.05-8.897 36.422-20.573 50.153 1.618 1.344 5.018 4.922 9.053 13.525.267-.033.535-.057.806-.057a6.28 6.28 0 0 1 6.284 6.277 6.278 6.278 0 1 1-12.557 0c0-.526.068-1.03.192-1.517-2.384-.801-8.654-3.305-13.245-8.67-13.752 11.908-31.242 19.606-50.45 21.066.08 2.395-.34 7.209-3.341 15.284a6.277 6.277 0 0 1-3.736 11.317 6.276 6.276 0 0 1-6.278-6.279 6.259 6.259 0 0 1 3.047-5.374c-1.016-2.057-3.623-8.063-3.232-14.96-19.034-1.48-36.374-9.081-50.049-20.83-1.359 1.606-4.927 4.918-13.36 8.81.027.258.051.51.051.77a6.276 6.276 0 0 1-6.278 6.279 6.276 6.276 0 0 1-6.278-6.278 6.281 6.281 0 0 1 6.278-6.278c.48 0 .952.063 1.4.168.864-2.46 3.407-8.538 8.677-12.996-11.805-13.778-19.403-31.26-20.785-50.435-7.695.676-14.438-2.535-16.18-3.45a6.278 6.278 0 0 1-11.733-3.104 6.282 6.282 0 0 1 6.278-6.278 6.28 6.28 0 0 1 5.15 2.692c9.487-3.48 14.545-3.495 16.532-3.263 1.504-18.787 8.973-35.91 20.506-49.483-5.941-5.159-8.334-12.34-8.737-13.672a6.246 6.246 0 0 1-1.49.187 6.278 6.278 0 1 1 0-12.556 6.277 6.277 0 0 1 6.281 6.276c0 .483-.06.954-.164 1.402 8.321 3.784 12.061 7.043 13.608 8.77 13.717-11.872 31.151-19.554 50.293-21.042-.395-7.122 2.4-13.292 3.328-15.127a6.279 6.279 0 0 1 3.515-11.481 6.274 6.274 0 0 1 6.275 6.281c0 2.2-1.133 4.132-2.848 5.255 2.922 7.921 3.347 12.672 3.27 15.06 19.035 1.451 36.383 9.021 50.078 20.747 4.556-5.307 10.754-7.803 13.169-8.618a6.364 6.364 0 0 1-.129-1.247 6.279 6.279 0 0 1 6.28-6.276 6.28 6.28 0 0 1 0 12.556c-.321 0-.64-.03-.953-.087-3.901 8.261-7.197 11.8-8.84 13.18 11.712 13.629 19.31 30.896 20.83 49.846 2.143-.192 7.146-.043 16.182 3.259a6.267 6.267 0 0 1 5.123-2.659 6.277 6.277 0 1 1 0 12.552M150.165 280.19c-46.564 0-84.441 37.882-84.441 84.44s37.877 84.44 84.44 84.44c46.558 0 84.437-37.882 84.437-84.44s-37.88-84.44-84.436-84.44z" style="fill:#231f20;fill-opacity:1;fill-rule:nonzero;stroke:none;stroke-width:1.93576"/><path d="M90.001 364.63c0-33.063 26.904-59.971 59.974-59.971 33.063 0 59.967 26.908 59.967 59.971 0 33.071-26.904 59.972-59.967 59.972-33.07 0-59.974-26.9-59.974-59.972m2.24 0c0 31.831 25.9 57.736 57.734 57.736 31.832 0 57.73-25.905 57.73-57.736 0-31.831-25.898-57.728-57.73-57.728-31.834 0-57.735 25.897-57.735 57.728zM78.72 329.528l-1.131 2.839 5.653 2.26-7.772 3.047-1.48 3.699 7.893-3.375 5.714 9.14 1.468-3.681-4.298-6.623 1.954-.82 4.592 1.828 1.127-2.831zM84.462 353.121c.208-1.215-.074-2.251-.844-3.119-.767-.871-1.97-1.447-3.614-1.723-1.644-.284-2.968-.14-3.983.432-1.015.564-1.624 1.452-1.831 2.659-.2 1.208.083 2.24.854 3.1.773.863 1.977 1.434 3.617 1.715 1.64.276 2.966.136 3.974-.42 1.016-.556 1.623-1.44 1.827-2.644m-6.317 6.095c-2.668-.456-4.548-1.531-5.635-3.223-.943-1.296-1.248-2.976-.893-5.055.357-2.083 1.197-3.574 2.517-4.482 1.582-1.249 3.715-1.644 6.381-1.188 2.615.444 4.492 1.523 5.632 3.23.948 1.294 1.242 2.976.887 5.06-.352 2.075-1.188 3.57-2.507 4.474-1.64 1.236-3.767 1.624-6.382 1.184zM73.701 370.069c.04.632.16 1.103.353 1.407.348.545.968.784 1.863.724.832-.052 1.367-.385 1.607-.984.14-.34.188-.84.145-1.499l-.221-3.32-3.978.264.231 3.408m-2.495.815-.47-7.046 14.746-.99.196 3.001-5.787.389.197 3.011c.06.86.26 1.436.592 1.724.331.291.971.411 1.915.363l1.376-.072c.432-.023.86-.008 1.279.044.199.025.471.077.805.145l.227 3.399-.367.023c-.21-.288-.497-.46-.885-.515-.244-.036-.7-.032-1.379.012l-.991.063c-1.038.073-1.812-.02-2.337-.268-.523-.253-.943-.699-1.263-1.367-.224.834-.664 1.454-1.315 1.85-.653.401-1.328.624-2.029.669-.574.044-1.1-.02-1.567-.168a4.385 4.385 0 0 1-1.283-.66 3.61 3.61 0 0 1-1.123-1.307c-.269-.529-.45-1.296-.537-2.3zM77.8 390.003l-2.05-7.385 3.03-.84 1.88 6.758 2.447-.68-1.88-6.758 3.683-1.028 2.14 7.73 2.563-.713-2.951-10.62-14.232 3.954 2.854 10.282zM82.607 398.693l6.018-.984-1.72-3.36-4.298 4.344m6.978-11.397 1.462 2.868-2.262 2.287 2.471 4.827 3.16-.512 1.527 2.974-15.535 2.071-1.58-3.094z" style="fill:#231f20;fill-opacity:1;fill-rule:nonzero;stroke:none;stroke-width:1.93576"/><path d="m84.634 409.098 2.004 2.495 11.704-1.84-8.029 6.43 1.784 2.225 11.527-9.242-1.911-2.387-11.968 1.863 8.194-6.57-1.78-2.215zM107.092 427.608c.584.404 1.112.669 1.576.8.568.12 1.043-.113 1.435-.683.356-.512.436-.992.243-1.42-.19-.431-.555-.828-1.088-1.196l-2.973-2.035-1.857 2.707 2.664 1.827m3.58-4.493c.526.354.98.558 1.359.627.682.116 1.24-.144 1.675-.784.52-.752.6-1.448.247-2.08-.19-.343-.555-.696-1.088-1.06l-2.957-2.03-2.24 3.267 3.003 2.06m-4.211 7.145-5.89-4.038 8.354-12.19 5.494 3.76a10.92 10.92 0 0 1 1.607 1.347c.449.476.768.996.957 1.556a4.13 4.13 0 0 1 .203 1.551c-.032.82-.292 1.591-.791 2.315-.48.7-1.04 1.188-1.696 1.46-.656.275-1.368.312-2.147.113.268.487.42.935.46 1.33.068.711-.152 1.436-.666 2.18-.494.723-1.11 1.22-1.834 1.48-1.199.415-2.547.127-4.051-.864zM122.887 422.566l-2.735-1.35-6.55 13.243 2.739 1.35zM126.75 437.161c.676.22 1.256.326 1.737.32.575-.047.975-.404 1.183-1.063.196-.596.135-1.071-.168-1.431-.305-.36-.768-.64-1.38-.836l-3.431-1.108-1.012 3.123 3.071.995m2.16-5.327c.6.185 1.095.256 1.48.214.684-.081 1.147-.489 1.383-1.229.283-.863.163-1.55-.352-2.058-.285-.276-.732-.517-1.343-.712l-3.415-1.103-1.225 3.77 3.472 1.118m-2.011 8.047-6.795-2.2 4.544-14.059 6.335 2.052c.713.227 1.358.507 1.926.83.567.328 1.024.733 1.36 1.22.304.429.52.904.64 1.432.2.796.167 1.607-.096 2.44-.265.807-.672 1.431-1.22 1.884-.549.446-1.224.682-2.028.714.396.393.672.776.82 1.148.268.66.26 1.424-.016 2.284-.268.831-.72 1.471-1.34 1.935-1.031.74-2.406.848-4.13.32zM135.303 442.073l3.052.387 1.527-12.02 7.287.927.336-2.635-10.337-1.316zM159.557 440.301l-7.653.4-.164-3.139 7.006-.368-.132-2.535-7.007.368-.2-3.82 8.005-.42-.139-2.654-11.005.575.772 14.756 10.657-.556zM171.834 440.476l2.95-1.09-3.143-8.51c-.351-.953-.496-1.693-.43-2.216.062-.9.679-1.568 1.85-1.999 1.163-.432 2.063-.325 2.703.324.389.356.753 1.01 1.104 1.964l3.14 8.51 2.95-1.089-3.138-8.517c-.544-1.472-1.197-2.531-1.957-3.184-1.406-1.192-3.31-1.343-5.705-.455-2.4.88-3.747 2.23-4.052 4.053-.155.989.04 2.221.584 3.697zM187.338 434.19l2.706-1.715-.543-11.837 5.514 8.686 2.4-1.528-7.914-12.476-2.576 1.636.524 12.1-5.621-8.87-2.404 1.524zM193.548 411.556l-2.295 2.016 9.749 11.105 2.295-2.015zM212.266 413.088l2.068-2.415-14.493-5.789-1.879 2.19 7.974 13.405 2.143-2.503-6.434-9.734zM219.54 396.522l-3.723 6.702-2.75-1.524 3.402-6.135-2.216-1.235-3.407 6.134-3.341-1.855 3.893-7.01-2.322-1.287-5.351 9.637 12.912 7.17 5.182-9.33zM223.387 385.98c.184-.608.24-1.087.168-1.443-.131-.629-.631-1.08-1.488-1.337-.796-.247-1.416-.126-1.855.35-.248.267-.467.72-.664 1.35l-.968 3.18 3.811 1.16.996-3.26m2.619.12-2.059 6.758-14.132-4.306.872-2.872 5.555 1.688.874-2.888c.256-.823.275-1.43.065-1.82-.208-.39-.763-.731-1.663-1.02l-1.31-.419a6.911 6.911 0 0 1-1.178-.495c-.184-.1-.416-.237-.704-.42l.993-3.259.354.112c.085.339.3.603.636.788.217.126.65.287 1.296.484l.952.29c.991.298 1.688.657 2.088 1.081.4.415.631.988.7 1.72.503-.7 1.13-1.121 1.883-1.264.751-.14 1.463-.112 2.135.095.552.17 1.023.409 1.404.713.38.308.704.664.971 1.072.325.495.516 1.035.585 1.622.063.593-.041 1.368-.317 2.34zM218.333 373.272c-.668-.157-1.152-.38-1.46-.689-.565-.555-.792-1.446-.684-2.674.064-.735.192-1.324.396-1.767.38-.84.988-1.225 1.82-1.153.484.037.844.276 1.07.72.23.436.397 1.127.517 2.076l.215 1.618c.214 1.592.493 2.696.849 3.32.595 1.052 1.611 1.64 3.059 1.764 1.32.107 2.456-.276 3.41-1.168.956-.892 1.512-2.271 1.677-4.147.136-1.559-.16-2.93-.885-4.106-.722-1.176-1.867-1.856-3.426-2.044l-.248 2.927c.872.128 1.468.577 1.78 1.348.2.508.268 1.132.21 1.863-.071.812-.287 1.445-.647 1.9-.363.46-.83.66-1.407.61-.52-.043-.892-.314-1.113-.818-.142-.32-.291-.987-.44-1.996l-.39-2.619c-.169-1.143-.452-2.023-.849-2.627-.619-.936-1.583-1.467-2.896-1.572-1.346-.12-2.506.301-3.485 1.257-.98.959-1.552 2.381-1.712 4.27-.168 1.927.136 3.48.92 4.663.775 1.184 1.931 1.84 3.464 1.971zM214.11 359.16l.168 3.047 14.752-.805-.164-3.045-14.756.803zM226.642 343.852l-2.566.472.807 4.351-11.964 2.22.567 3.047 11.96-2.212.808 4.35 2.568-.47zM222.383 332.255l-1.287-3.246-6.77 7.99-5.151 2.04 1.135 2.858 5.135-2.036 10.478 1.34-1.336-3.38-7.11-.47zM109.155 307.246l1.008 1.649c.788-.433 1.36-.713 1.708-.833.555-.2 1.083-.224 1.587-.093.343.098.68.29 1.016.588.2.181.327.325.396.432l2.027-1.234-7.573-12.385-2.487 1.514 5.237 8.571-2.919 1.79zM134.36 293.458c-.703.145-1.183.456-1.439.944-.26.492-.3 1.16-.132 2 .2 1 .608 1.655 1.223 1.96.392.203.824.25 1.304.16.647-.13 1.112-.465 1.39-1.012.283-.54.336-1.22.177-2.02-.2-1-.654-1.631-1.375-1.916a2.032 2.032 0 0 0-1.147-.116m-4.484 3.256c-.291-1.473-.08-2.683.636-3.644.716-.955 1.636-1.547 2.764-1.771.759-.148 1.43-.124 2.015.092.32.107.64.307.96.575-.272-1.067-.56-1.87-.88-2.395-.576-.94-1.324-1.324-2.244-1.143-.475.096-.835.304-1.067.623-.239.325-.344.696-.328 1.137l-2.787.555c-.116-1.235.187-2.251.916-3.05a4.87 4.87 0 0 1 2.7-1.528c2.242-.45 4.006.335 5.281 2.359.672 1.062 1.18 2.454 1.527 4.174.352 1.765.409 3.24.169 4.416-.424 2.076-1.719 3.326-3.883 3.766-1.408.28-2.643.036-3.715-.732s-1.755-1.916-2.064-3.434zM161.797 290.091c.24-.583.548-1.004.927-1.267.384-.265.88-.332 1.48-.204.688.152 1.16.504 1.423 1.064.26.56.312 1.207.156 1.943-.156.72-.451 1.296-.899 1.72-.44.424-1.025.564-1.736.407a2.879 2.879 0 0 1-.856-.311 1.784 1.784 0 0 1-.8-1.08l-2.543-.42-.656 8.075 7.863 1.666.5-2.371-5.843-1.24.151-3.215c.369.372.665.624.888.768.367.24.849.419 1.433.539 1.175.253 2.287.072 3.327-.527 1.043-.604 1.723-1.66 2.04-3.167.28-1.316.106-2.573-.517-3.779-.624-1.212-1.776-2-3.451-2.351-1.36-.29-2.545-.155-3.568.383-1.018.54-1.724 1.465-2.103 2.775zM186.713 297.513c-.115 1.048.224 2.416 1.021 4.1.691 1.462 1.11 2.47 1.248 3.01.21.847.134 1.595-.233 2.255-.3.54-.695.9-1.196 1.092-.5.189-1.024.125-1.579-.188-.76-.423-1.12-.986-1.08-1.707.024-.413.224-.984.592-1.708l-2.423-1.351c-.564 1.095-.856 2.08-.876 2.94-.045 1.642.788 2.93 2.483 3.881 1.344.748 2.619.969 3.832.672 1.207-.307 2.15-1.07 2.839-2.295.527-.94.707-1.927.555-2.968-.096-.695-.404-1.57-.908-2.639l-.605-1.263c-.374-.791-.622-1.352-.742-1.675a3.22 3.22 0 0 1-.196-1.02l5.539 3.087 1.227-2.191-8.693-4.855a6.757 6.757 0 0 0-.805 2.823zM99.907 314.66a3.54 3.54 0 0 0-3.54-3.546 3.54 3.54 0 0 0-3.543 3.547 3.538 3.538 0 0 0 3.543 3.535 3.538 3.538 0 0 0 3.54-3.535zM205.992 315.588a3.542 3.542 0 1 0-3.544 3.54 3.542 3.542 0 0 0 3.544-3.54zM178.77 380.282h-22.556v15.844h-15.292v-15.844h-21.81v-15.288h21.81v-50.522h15.292v50.522h22.557zM118.553 334.215c0-.48-.421-.87-.941-.87h-9.256c-.512 0-.937.39-.937.87v1.527c0 .48.425.873.937.873h9.256c.52 0 .94-.393.94-.873z" style="fill:#231f20;fill-opacity:1;fill-rule:nonzero;stroke:none;stroke-width:1.93576"/><path d="M137.69 354.121v1.98c0 .624-.47 1.127-1.055 1.127h-6.038v3.571c0 .584-.468 1.06-1.052 1.06h-1.855c-.58 0-1.051-.476-1.051-1.06v-3.57h-5.043c-.58 0-1.056-.504-1.056-1.128v-1.98c0-.617.477-1.12 1.056-1.12h5.043v-2.983h-5.043c-.58 0-1.056-.503-1.056-1.126v-1.981c0-.62.477-1.123 1.056-1.123h15.039c.584 0 1.056.503 1.056 1.123v7.21m-7.094-1.12h2.623v-2.983h-2.623zM136.635 344.052h-15.039c-.58 0-1.056-.503-1.056-1.124v-1.979c0-.136.024-.272.068-.384v-4.71a1.104 1.104 0 0 1-.068-.389v-1.98c0-.614.477-1.12 1.056-1.12h15.039c.584 0 1.056.506 1.056 1.12v9.44c0 .621-.472 1.125-1.056 1.125m-11.556-4.232h8.141v-3.227h-8.14zM136.635 330.38h-13.36a1.07 1.07 0 0 1-.22-.027h-.235c-.656 0-1.188-.473-1.188-1.053v-9.57c0-.58.532-1.059 1.188-1.059h2.09c.081 0 .16.012.233.024h3.326v-2.843c0-.583.529-1.056 1.189-1.056h2.091c.664 0 1.192.473 1.192 1.056v2.843h3.694c.584 0 1.056.504 1.056 1.124v1.976c0 .619-.472 1.123-1.056 1.123h-3.694v3.236h3.694c.584 0 1.056.503 1.056 1.12v1.978c0 .624-.472 1.127-1.056 1.127m-8.166-7.461h-2.366v3.236h2.366zM181.023 325.673h3.086s1.113-.164 1.113-.791c0-.641.235-1.269-1.032-2.54-.355-.36-.464-.912-2.252-.912-1.786 0-.915 4.243-.915 4.243z" style="fill:#231f20;fill-opacity:1;fill-rule:nonzero;stroke:none;stroke-width:1.93576"/><path d="M189.644 332.615h-28.771c-.58 0-1.055-.503-1.055-1.12v-1.978c0-.624.474-1.128 1.055-1.128h14.8c-.26-.756-.752-1.964-1.464-2.736h-13.336c-.58 0-1.055-.505-1.055-1.123v-1.975c0-.62.474-1.125 1.055-1.125h7.03l-1.588-2.234h-5.442c-.58 0-1.055-.505-1.055-1.124v-1.98c0-.624.474-1.128 1.055-1.128h10.561c.051 0 .1.012.151.015h1.36c1.033 0 3.807 2.456 4.12 3.168.318.715-.792.953-1.584.953h-3.623a1.095 1.095 0 0 1-.424.095h-.076l1.851 2.234h8.73c.588 0 1.06.505 1.06 1.125v1.976c0 .618-.472 1.123-1.06 1.123h-3.056c.54.767 1.369 1.923 1.964 2.735h8.797c.584 0 1.057.505 1.057 1.129v1.977c0 .617-.473 1.12-1.057 1.12zM160.873 336.222h.683c0-.588.536-1.055 1.189-1.055h2.1c.654 0 1.186.467 1.186 1.055h8.95v-.967c0-.58.532-1.055 1.188-1.055h2.095c.656 0 1.192.474 1.192 1.055v20.606h1.427c.583 0 1.055.503 1.055 1.123v1.976c0 .624-.472 1.123-1.055 1.123h-20.01c-.58 0-1.055-.5-1.055-1.123v-1.976c0-.62.474-1.123 1.055-1.123h.683V340.445h-.683c-.58 0-1.055-.503-1.055-1.12v-1.983c0-.623.474-1.12 1.055-1.12m5.158 13.157h8.95v-2.704h-8.95v2.704m8.95 6.482v-3.216h-8.95v3.216h8.95m-8.95-12.453h8.95v-2.963h-8.95zM201.99 359.96c-.141.076-.304.123-.472.123h-17.032c-.579 0-1.055-.5-1.055-1.123v-1.975c0-.069.008-.141.02-.2v-17.263a1.117 1.117 0 0 1-.02-.197v-1.983c0-.623.476-1.12 1.055-1.12h8.637l.017-.023h1.583s5.378 1.74 8.071 22.242c.08.598-.193 1.336-.804 1.519m-10.598-19.514h-3.467v15.415h9.327c-.042-2.688-.58-11.753-5.86-15.415zM120.464 323.133c-.304.31-2.11 2.196-3.783 3.996h.931c.52 0 .94.392.94.872v1.527c0 .48-.42.872-.94.872h-3.834c-.547.6-2.139 2.307-3.912 4.539l2.72.287s2.24 1.367-.995 1.367c-1.916 0-3.215.74-3.96 1.346a37.177 37.177 0 0 0-1.73 2.738h8.129v-6.038c0-.585.533-1.057 1.188-1.057h2.1c.655 0 1.186.472 1.186 1.057v6.646c.024.084.049.168.049.256v1.531c0 .097-.025.18-.049.265v4.414c.024.084.049.167.049.26v1.527c0 .48-.421.872-.941.872h-7.266V353h7.147c.584 0 1.06.503 1.06 1.12v1.98c0 .624-.476 1.127-1.06 1.127h-7.147v3.571c0 .584-.53 1.06-1.183 1.06h-2.103c-.652 0-1.184-.476-1.184-1.06v-3.57h-8.141c-.588 0-1.06-.504-1.06-1.128v-1.98c0-.617.472-1.12 1.06-1.12h8.14v-2.591H100.1c-.189 0-.357-.055-.505-.138-.284-.054-.963-.277-.9-1.093.06-.8 1.744-8.198 10.261-18.78h-.6c-.51 0-.936-.391-.936-.87V328c0-.48.425-.872.937-.872h3.367a102.98 102.98 0 0 1 6.521-6.682c.617-.577 2.06-.396 2.06-.396.316.232.392 2.855.16 3.082m-16.131 20.815c-.416 1.104-.68 2.19-.728 3.19h10.425v-3.19zM107.715 392.71c-.28-.092-.887-.59-.827-1.655.06-1.063.58-3.959.704-4.495.123-.532.123-1.415-.525-1.24-.65.176-2.958.768-4.669.176-.52-.176-.537-.828-.476-1.48.06-.647.06-2.127.767-2.895 0 0 .489-.235.768.297 0 0 .595 1.775 1.927 1.239.568-.232 1.915-2.012 2.208-3.736.129-.746.896-2.178 2.076-1.999 1.183.177 1.479 1.536 1.183 2.836-.153.676-1.48 3.195-1.656 3.49-.176.297.649.768 1.457.425.486-.208 2.094-1.963 3.274-1.012.557.44 1.6 2.66 1.359 4.726-.06.532-.171 1.897-1.243 1.893-.528 0-1.016-.513-1.18-1.18-.084-.349-.119-2.072-.591-2.072-.473 0-1.772-.296-2.543 2.959-.125.533-.06 4.375-2.013 3.724zM144.8 414.144c-.25.151-1.023.293-1.798-.44a21.077 21.077 0 0 1-2.967-3.447c-.313-.448-.925-.767-1.207-.156-.288.612-1.19 2.647-2.752 3.571-.468.281-1.192-.27-1.648-.74-.464-.468-1.592-1.427-1.72-2.463 0 0 .142-.523.728-.396 0 0 1.737.701 2.192-.663.196-.58-.288-2.76-1.416-4.1-.491-.58-1.08-2.09-.184-2.878.904-.788 2.133-.128 2.927.935.42.556 1.48 3.196 1.592 3.524.113.328 1.008.004 1.265-.832.158-.509-.141-2.868 1.346-3.16.7-.135 3.063.512 4.488 2.027.362.389 1.331 1.365.635 2.173-.348.398-1.048.447-1.664.136-.323-.161-1.656-1.252-1.96-.889-.306.36-1.375 1.16.61 3.85.319.441 3.293 2.88 1.534 3.948zM169.571 411.402c-.157.247-.784.72-1.808.411-1.016-.308-2.44-.528-4.391-1.947-.44-.324-1.383-.32-1.36.35.017.678.445 2.792-.535 4.32-.292.46-1.104.661-1.72.447-.617-.207-2.251-.703-2.83-1.567 0 0-.228-.447.351-.595 0 0 2.04-.411 1.835-1.836-.087-.608-1.387-2.17-2.995-2.854-.696-.297-1.892-1.477-1.44-2.584.448-1.107 1.6-1.063 2.8-.472.616.308 3.16 2.24 3.407 2.483.248.245.735-.275.592-1.14-.09-.524-1.415-2.495-.216-3.422.56-.432 2.958-.925 4.918-.208.5.184 1.885.719 1.628 1.751-.124.52-.792.596-1.48.596-.36 0-2.07-.196-2.18.269-.112.455-.707 1.654 2.272 3.165.492.245 4.243 1.084 3.152 2.833zM125.698 404.186c-.435 1.118-2.027 2.425-4.202 2.248-.824-.07-5.203.411-6.266-6.388-.16-1.021-.3-5.44 3.923-5.675 0 0 4.118-1.009 6.366 3.25.544 1.031 1.424 3.37.18 6.565m-2.644-4.726c-.155-.284-.257-.892-1.264-2.016-.451-.507-1.63-1.223-2.13-.866-.884.626-1.348 2.17-1.476 3.17-.356 2.728 1.999 4.167 2.603 4.024.77-.175 1.08-.572 1.536-1.124.46-.551.891-2.9.731-3.188zM186.494 399.28c-.236.797-.671 5.179-7.55 4.807-1.031-.056-5.383-.84-4.735-5.018 0 0-.132-4.243 4.502-5.555 1.12-.315 3.592-.684 6.459 1.192 1 .659 1.952 2.483 1.324 4.575m-3.528-1.596c-.448-.56-2.656-1.472-2.966-1.375-.312.092-1.517-.489-2.823.262-.589.337-.949 1.897-.705 2.457.432 1 1.844 1.767 2.8 2.104 2.583.91 4.486-1.087 4.47-1.708-.008-.788-.336-1.181-.776-1.74zM198.854 378.414c.236.044 1.007 2.707-.527 5.307-.496.836-2.252 5.326-5.564 6.033-.694.15-3.19.298-4.094-1.499-.376-.747-.396-3.23-.34-4.118.06-.888.3-2.16 0-1.816-.296.34-1.36 1.756-1.835 1.636-.472-.117-.944-.351-.708-1.296.092-.372 2.187-3.55 3.547-4.263 0 0 1.184-.651 1.008.532-.08.54-.448 5.263-.312 5.767.136.503.015 2.042 1.555 1.984.556-.025 1.891-2.013 2.131-2.544.233-.531 2.595-4.03 2.763-4.366.168-.341 1.372-1.548 2.376-1.357z" style="fill:#231f20;fill-opacity:1;fill-rule:nonzero;stroke:none;stroke-width:1.93576"/></g><path d="m403.21 409.272-3.695 14.785h-7.393v9.611l5.175 4.433-25.028 6.656 1.371-5.915v-71.713h18.482v42.143zM959.876 409.272l-3.696 14.785h-7.393v9.611l5.176 4.433-25.023 6.656 1.366-5.915v-50.333h18.48v20.763zM369.198 423.32l-10.233 15.522-2.276-2.272h-14.097v10.405l-22.177-.11s3.695-.632 2.955-10.979l-11.09.11-.74 4.324-17.741-16.263h14.67s-10.232-34.745 23.035-36.963c0 0 28.829-1.479 31.047 24.396l-16.263 11.83h22.91m-35.577-26.812c-6.349 0-11.494 6.088-11.494 13.595 0 7.504 5.145 13.593 11.494 13.593 6.353 0 11.503-6.089 11.503-13.593 0-7.507-5.15-13.595-11.503-13.595zM311.65 381.92l22.067-7.393v-20.59l48.053.112v3.695l17.745-15.011h-85.756v33.266s.11 3.701-2.11 5.92zM429.455 441.432l-14.419-13.309h72.079v-21.806h-69.269v2.214l-10.568-12.937h43.985v-12.197h-21.441v2.59l-16.268-15.532h73.194V343.11h18.113V371.2h3.805l-12.678 13.93v-2.104h-24.396v11.83h51.379l-9.616 12.196h-8.494v21.812h2.948l-12.932 12.933v-3.33H431.67zM552.535 444.386s10.719-45.833-29.194-41.766l14.044-12.572s13.309 2.59 24.031 18.116c0 0 13.3-14.049 25.133-17.745l12.274 10.94s-31.862-4.654-27.43 37.627z" style="fill:#231f20;fill-opacity:1;fill-rule:nonzero;stroke:none;stroke-width:1.93576" transform="matrix(1.33333 0 0 -1.33333 -46.753 637.864)"/><path d="m601.334 445.604 21.437-7.869v-52.49h-19.96v24.392h-17.38v11.088h17.75v18.487s.742 2.806-1.847 6.392zM710.377 443.342l19.552-7.874v-92.095h-18.076v61.49h-19.261v11.09h19.632v20.993s.731 2.81-1.847 6.396z" style="fill:#231f20;fill-opacity:1;fill-rule:nonzero;stroke:none;stroke-width:1.93576" transform="matrix(1.33333 0 0 -1.33333 -46.753 637.864)"/><path d="m658.627 444.386 19.589-6.65s-8.135-47.317 29.941-49.165l-14.416-11.09s-13.306-1.106-25.507 17.746c0 0-8.504-15.527-23.65-18.852l-15.896 12.196s37.698-6.651 29.94 55.815zM597.946 371.615H613.8c-5.153 6.863-14.755 11.493-25.772 11.493-16.461 0-29.798-10.29-29.798-22.996 0-12.701 13.337-23.005 29.798-23.005 16.454 0 29.795 10.304 29.795 23.005 0 .23-.038.462-.048.694l-19.828 10.81m-9.919-23.266c-6.497 0-11.77 5.265-11.77 11.762 0 6.497 5.273 11.763 11.77 11.763 6.496 0 11.758-5.266 11.758-11.763s-5.262-11.762-11.758-11.762zM787.368 440.32h-46.69s4.442-4.068 4.442-8.13v-54.338h57.812v-35.49h16.225v62.472h5.433v-62.472h17.747v94.631l-17.376 7.764v-27.352h-6.29v16.263l2.594 3.325-21.072 6.652s2.221-2.955 2.221-6.652v-46.945h-37.7v37.329h32.89l-10.236 15.526zM925.964 423.141l-10.242 15.522-2.276-2.277h-14.097v10.412l-22.178-.11s3.698-.631 2.951-10.98l-11.089.111-.737 4.323-17.745-16.263h14.677s-10.233-34.746 23.032-36.964c0 0 28.825-1.476 31.048 24.396l-16.263 11.83h22.92m-35.586-26.807c-6.344 0-11.499 6.084-11.499 13.593 0 7.506 5.155 13.59 11.5 13.59 6.351 0 11.5-6.084 11.5-13.59 0-7.509-5.149-13.593-11.5-13.593zM880.253 383.397v-2.223h58.188l-.375 3.33 13.672-12.937h-2.585V341.63H932.52v25.874h-69.638zM986.116 442.903l-12.085-14.298h67.905v-41.14h19.22v40.433l3.32 1.332-11.826 12.937-2.584-2.955h-61.727z" style="fill:#231f20;fill-opacity:1;fill-rule:nonzero;stroke:none;stroke-width:1.93576" transform="matrix(1.33333 0 0 -1.33333 -46.753 637.864)"/><path d="m1069.66 383.026-2.96-4.807h-31.048v34.012h-21.076c2.96 0 2.594-5.179 2.594-5.179V378.22h-5.914v34.012H990.18c2.964 0 2.593-5.179 2.593-5.179V378.22H977.99l-2.225 3.7-13.308-13.307h117.917zM310.604 321.3h11.825v-16.41l14.048 16.41h9.979l-15.412-17.003 16.634-25.282-10.093.144-11.72 18.847-3.436-4.062v-14.785h-8.87v39.553l-2.955 2.589z" style="fill:#231f20;fill-opacity:1;fill-rule:nonzero;stroke:none;stroke-width:1.93576" transform="matrix(1.33333 0 0 -1.33333 -46.753 637.864)"/><path d="M366.784 322.292c-11.112 0-20.121-9.823-20.121-21.951 0-12.129 9.01-21.952 20.12-21.952 11.12 0 20.13 9.823 20.13 21.952 0 12.128-9.01 21.951-20.13 21.951m0-35.509c-6.856 0-12.425 6.074-12.425 13.558s5.569 13.558 12.426 13.558c6.864 0 12.427-6.074 12.427-13.558s-5.563-13.558-12.427-13.558zM399.685 279.525h-6.284v35.485s0 4.072-4.438 5.92h29.57s8.504-.746 8.504-10.353c0 0 .736-7.026-5.915-9.607 0 0 5.17-4.066 5.17-8.507v-10.344s1.481-1.848 2.593-2.594h-9.317v10.637s.35 11.507-13.51 11.507c0 0 14.14.968 14.14 6.233 0 0 1.935 6.998-6.381 6.998h-13.93zM429.348 321.204h34.927v-6.371H440.84v-8.597h23.732v-6.372h-23.505v-12.831h24.795v-7.412h-32.356v36.395s.553 4.361-4.159 5.188zM490.8 321.3h-7.946l-13.68-41.953h8.057l4.327 13.485h11.753l4.326-13.115h8.317L490.8 321.3m-7.687-22.207 3.99 13.75 4.693-13.75zM507.316 321.108h9.468l18.923-27.756v27.949h8.5v-41.954h-7.868l-19.112 28.758v-28.758h-8.134l.26 39.365zM595.033 292.832c0 7.032-6.17 9.617-6.17 9.617 4.436 1.295 4.321 9.611 4.321 9.611 0 8.87-9.832 9.24-9.832 9.24H559.73l2.594-2.882V279.9h21.07c13.675 2.956 11.639 12.932 11.639 12.932m-8.318.554c-.187-6.276-6.17-5.17-6.17-5.17h-9.539v26.246h10.828c4.256.178 4.694-3.147 4.694-3.147 1.67-8.678-12.346-8.236-12.346-8.236 12.756 0 12.533-9.693 12.533-9.693zM648.493 292.655c0 7.022-6.174 9.606-6.174 9.606 4.433 1.29 4.327 9.607 4.327 9.607 0 8.874-9.837 9.25-9.837 9.25h-23.613l2.584-2.888v-38.513h21.066c13.676 2.955 11.647 12.938 11.647 12.938m-8.316.553c-.183-6.29-6.176-5.174-6.176-5.174h-9.533v26.24h10.83c4.25.188 4.696-3.138 4.696-3.138 1.66-8.687-12.35-8.24-12.35-8.24 12.754 0 12.533-9.688 12.533-9.688zM599.103 321.108h11.456v-41.949h-8.5v39.176zM681.707 321.017h34.938v-6.377h-24.064v-8.586h24.357v-6.377h-24.142V286.85h25.437v-7.417h-32.367v36.39s.552 4.361-4.159 5.194zM660.756 287.524v33.777H649.93l2.953-2.773v-39.18h27.625v8.176zM770.049 294.681h-.221v26.38h-11.466l2.96-2.773v-24.531c-.485-8.231-8.638-7.393-8.638-7.393-6.237-.37-8.172 4.26-8.78 6.902v28.053h-11.459l2.951-2.77.567-23.863-.094-.004c-.05-17.832 17.181-15.522 17.181-15.522 18.857 0 16.999 15.522 16.999 15.522zM774.467 320.757h10.098l18.919-27.75v27.937h7.88v-41.948h-7.88l-19.738 29.387v-29.387h-7.499l.26 39.364zM814.596 321.3h11.455v-41.953h-8.504v39.181zM867.838 321.83h34.933v-6.372H879.34v-8.591h23.728v-6.381H879.55v-12.822h24.808v-7.417h-32.364v36.396s.558 4.36-4.157 5.187zM916.89 280.358h-6.285v35.49s0 4.067-4.431 5.915h29.569s8.505-.746 8.505-10.358c0 0 .106-7.022-6.547-9.606 0 0 5.806-4.062 5.806-8.505v-10.342s1.476-1.849 2.58-2.594h-9.31v10.631s-.904 11.518-14.766 11.518c0 0 15.392.957 15.392 6.222 0 0 1.945 7.003-6.37 7.003h-13.94zM828.823 321.484h8.592l10.54-29.46 9.978 29.18h7.758l-13.303-42.132h-8.317zM970.766 310.395h7.2s-.827 13.307-16.633 13.307c0 0-11.917-.554-13.304-12.2 0 0-.826-11.566 16.36-13.505 0 0 7.302-.545 6.816-5.713 0 0-1.363-9.987-12.643-5.319 0 0-3.688 2.725-3.688 7.167h-6.915s.206-14.415 14.856-14.973c0 0 16.086-.559 16.45 13.304 0 0-.183 10.174-12.017 11.945 0 0-11.637.066-12.374 6.546 0 0 .183 6.458 7.391 5.986 0 0 6.47.106 8.501-6.545zM983.144 322.779H994.6v-41.96h-8.495v39.188zM1030.46 322.33h-31.417v-7.392h12.189v-33.824h7.764v33.824h11.465zM1037.298 322.403h8.501l9.163-15.998 8.39 15.998h8.14l-12.197-23.097v-17.562h-7.768v17.38z" style="fill:#231f20;fill-opacity:1;fill-rule:nonzero;stroke:none;stroke-width:1.93576" transform="matrix(1.33333 0 0 -1.33333 -46.753 637.864)"/></svg>