<svg xmlns="http://www.w3.org/2000/svg" xml:space="preserve" width="798.534" height="400" viewBox="0 0 798.53399 400"><path d="M405.949 217.518c-11.009 0-19.93-8.918-19.93-19.927 0-10.998 8.921-19.919 19.93-19.919 11.003 0 19.916 8.921 19.916 19.919 0 11.009-8.913 19.927-19.916 19.927m187.786-66.414c-25.675 0-46.487 20.812-46.487 46.487s20.812 46.484 46.487 46.484c10.68 0 20.487-3.624 28.336-9.689l-19.137-19.134a19.732 19.732 0 0 1-9.199 2.266c-11 0-19.922-8.918-19.922-19.927 0-10.998 8.922-19.919 19.922-19.919s19.919 8.921 19.919 19.919c0 2.992-.68 5.815-1.862 8.362l19.27 19.264c5.734-7.721 9.157-17.263 9.157-27.626 0-25.675-20.809-46.487-46.484-46.487m-102.786 26.568c8.679 0 16.035 5.545 18.769 13.278h27.195c-3.235-22.519-22.544-39.846-45.964-39.846-18.984 0-35.284 11.39-42.502 27.701-7.22-16.311-23.512-27.701-42.498-27.701-25.675 0-46.487 20.812-46.487 46.487s20.812 46.484 46.487 46.484c18.986 0 35.278-11.39 42.498-27.701 7.218 16.311 23.518 27.701 42.502 27.701 23.576 0 42.99-17.544 46.03-40.28h-27.1c-2.613 7.967-10.09 13.723-18.93 13.723-10.992 0-19.922-8.918-19.922-19.927 0-10.998 8.93-19.919 19.922-19.919m177.907 115.663c-11.003 0-19.935-8.918-19.935-19.93 0-3.507.915-6.803 2.502-9.656l-12.651-12.65c-12.167 10.26-27.88 16.452-45.037 16.452-20.325 0-38.615-8.679-51.389-22.512-12.782 13.833-31.07 22.512-51.397 22.512-15.986 0-30.716-5.386-42.502-14.407-11.78 9.021-26.51 14.407-42.498 14.407-38.64 0-69.96-31.32-69.96-69.96 0-38.64 31.32-69.952 69.96-69.952 15.988 0 30.719 5.375 42.498 14.407 11.786-9.032 26.516-14.407 42.502-14.407 20.328 0 38.615 8.668 51.397 22.513 12.774-13.845 31.064-22.513 51.389-22.513 38.638 0 69.96 31.311 69.96 69.952 0 16.84-5.965 32.308-15.885 44.383l13.147 13.14a19.86 19.86 0 0 1 7.9-1.633c10.997 0 19.915 8.921 19.915 19.924 0 11.012-8.918 19.93-19.916 19.93" style="fill:#005bab;fill-opacity:1;fill-rule:nonzero;stroke:none;stroke-width:2.78349" transform="matrix(1.33333 0 0 -1.33333 -283.907 391.113)"/><path d="M218.163 3.119a7.788 7.788 0 0 1 1.695-2.672 7.83 7.83 0 0 1 2.647-1.851 7.319 7.319 0 0 1 3.037-.652c2.344 0 4.275.808 5.829 2.444 1.533 1.6 2.321 3.633 2.321 6.08a7.394 7.394 0 0 1-.59 2.933c-.376.941-.93 1.801-1.667 2.586-.855.922-1.74 1.6-2.653 2.013-.94.417-2.018.618-3.24.618-1.08 0-2.088-.176-3.006-.552a7.219 7.219 0 0 1-2.48-1.734c-.81-.801-1.423-1.703-1.826-2.733a8.204 8.204 0 0 1-.627-3.187c0-1.178.184-2.274.56-3.293m-4.242 8.256a12.427 12.427 0 0 0 2.842 4.209c1.225 1.174 2.56 2.068 4.022 2.674 1.52.61 3.123.916 4.799.916 1.69 0 3.304-.306 4.824-.916 1.503-.606 2.867-1.508 4.091-2.708a13.111 13.111 0 0 0 2.834-4.175 12.324 12.324 0 0 0 1.01-4.946c0-1.718-.292-3.335-.874-4.852a12.66 12.66 0 0 0-2.45-4.017c-1.285-1.352-2.724-2.382-4.314-3.098a12.702 12.702 0 0 0-5.163-1.066c-1.826 0-3.546.365-5.155 1.1a13.116 13.116 0 0 0-4.273 3.167 12.734 12.734 0 0 0-2.349 4.003 13.909 13.909 0 0 0-.821 4.763c0 1.728.323 3.387.977 4.946M249.647 7.687c1.603 0 2.742.247 3.421.746.704.498 1.069 1.355 1.069 2.56 0 1.256-.345 2.141-1.036 2.664-.679.49-1.795.74-3.365.74h-2.048v-6.71Zm-6.446-13.834v24.826h6.048c1.453 0 2.528-.05 3.226-.125 1.06-.156 1.957-.451 2.697-.91 1.058-.59 1.913-1.479 2.536-2.678a7.48 7.48 0 0 0 .974-3.741c0-2.28-.79-4.145-2.368-5.6-1.61-1.479-3.75-2.214-6.408-2.214h-2.218v-9.558zM263.606-6.122v24.8h13.525v-4.28h-8.976V8.444h8.976V4.22h-8.976v-5.96h8.976v-4.383zM283.35-6.18v24.859h4.373l10.68-16.384V18.68h4.498v-24.86h-4.184l-10.819 16.83v-16.83ZM338.02-4.739c-1.917-1.25-4.125-1.865-6.621-1.865-1.857 0-3.577.365-5.194 1.1-1.612.72-3.032 1.773-4.276 3.167a13.213 13.213 0 0 0-2.344 4.003c-.548 1.52-.807 3.104-.807 4.763 0 1.728.326 3.382.974 4.918a13.026 13.026 0 0 0 2.865 4.237c1.196 1.174 2.53 2.068 4.016 2.674 1.495.61 3.098.916 4.788.916 2.555 0 4.787-.646 6.722-1.926 2.01-1.314 3.574-3.257 4.704-5.79h-5.158c-.804 1.1-1.726 1.924-2.772 2.453-1.022.464-2.196.707-3.518.707-1.092 0-2.094-.176-3.004-.552a7.161 7.161 0 0 1-2.486-1.734c-.826-.801-1.447-1.703-1.856-2.733a8.351 8.351 0 0 1-.618-3.187c0-1.178.184-2.274.557-3.293a7.353 7.353 0 0 1 1.723-2.672 7.502 7.502 0 0 1 2.616-1.851 7.45 7.45 0 0 1 3.068-.652c1.274 0 2.416.245 3.423.74 1.022.513 1.912 1.253 2.672 2.264h5.392c-1.266-2.51-2.895-4.404-4.866-5.687M355.49-6.18h-4.551v9.157l-7.633 15.702h5.125l4.851-10.63 4.777 10.63h5.09l-7.66-15.894zM375.339-1.838c1.475 0 2.538.23 3.165.71.623.478.946 1.269.946 2.374 0 1.213-.34 2.115-1.01 2.697-.68.576-1.71.885-3.101.885h-2.336v-6.666Zm-1.782 10.607c1.693 0 2.873.193 3.524.588.674.409 1.008 1.177 1.008 2.277 0 1.032-.264 1.737-.818 2.13-.54.383-1.462.584-2.767.584h-1.5V8.769Zm6.94 8.081c1.42-1.228 2.135-2.984 2.135-5.255 0-.796-.159-1.556-.48-2.28a6.179 6.179 0 0 0-1.438-1.946 5.96 5.96 0 0 0 2.335-2.39c.59-.994.89-2.119.89-3.363 0-1.144-.239-2.266-.717-3.354-.457-1.05-1.07-1.907-1.832-2.586a7.692 7.692 0 0 0-3.073-1.525c-.896-.22-2.076-.326-3.568-.326h-6.244v24.854h5.865c2.628 0 4.668-.607 6.127-1.829M390.528-6.122v24.8h13.525v-4.28h-8.974V8.444h8.974V4.22h-8.974v-5.96h8.974v-4.383zM420.167 13.657c-.674.49-1.79.74-3.343.74h-2.057v-6.71h1.96c1.595 0 2.739.247 3.412.746.718.498 1.077 1.355 1.077 2.56 0 1.256-.347 2.141-1.049 2.664m4.13-6.961c-.996-1.303-2.37-2.244-4.13-2.834l7.396-10.01h-5.71l-6.816 9.56h-.27v-9.56h-4.495V18.68h6.048c1.459 0 2.536-.05 3.226-.125 1.07-.156 1.968-.451 2.7-.91 1.066-.59 1.91-1.479 2.542-2.678.651-1.144.977-2.4.977-3.741 0-1.746-.49-3.243-1.467-4.53M446.621 18.679V3.049c0-1.954.226-3.29.685-4.016.52-.799 1.526-1.197 3.004-1.197 1.35 0 2.282.398 2.778 1.197.453.743.668 2.085.668 4.016v15.63h4.562V3.08c0-1.445-.084-2.6-.226-3.418-.175-1.116-.523-2.065-1.044-2.85-.76-1.139-1.706-2.002-2.836-2.59-1.124-.584-2.402-.887-3.836-.887-1.564 0-2.925.29-4.066.846-1.172.57-2.166 1.453-2.97 2.63-.582.852-.969 1.854-1.133 3.01-.098.676-.137 1.764-.137 3.259v15.599ZM463.92-6.18v24.859h4.371l10.686-16.384V18.68h4.49v-24.86h-4.176l-10.83 16.83v-16.83ZM489.025 18.679h4.551v-24.86h-4.55zM506.378-6.18l-9.336 24.859h4.87l5.9-16.612 5.875 16.612h4.799l-9.272-24.86zM521.951-6.122v24.8h13.523v-4.28h-8.977V8.444h8.977V4.22h-8.977v-5.96h8.977v-4.383zM549.714 13.657c-.674.49-1.793.74-3.357.74h-2.046v-6.71h1.954c1.606 0 2.748.247 3.421.746.704.498 1.069 1.355 1.069 2.56 0 1.256-.354 2.141-1.041 2.664m4.122-6.961c-.999-1.303-2.371-2.244-4.122-2.834l7.379-10.01h-5.703l-6.82 9.56h-.259v-9.56h-4.492V18.68h6.043c1.458 0 2.533-.05 3.228-.125 1.061-.156 1.963-.451 2.706-.91 1.052-.59 1.901-1.479 2.53-2.678.652-1.144.986-2.4.986-3.741 0-1.746-.496-3.243-1.476-4.53M563.423 1.794c.03-1.35.342-2.369.907-3.042.546-.652 1.308-.972 2.28-.972 1.055 0 1.868.312 2.455.913.587.61.88 1.456.88 2.553 0 1.082-.293 1.879-.88 2.382-.437.387-1.364.8-2.773 1.23-.98.287-1.876.658-2.68 1.083-.974.54-1.756 1.161-2.352 1.857a5.283 5.283 0 0 0-1.033 1.868c-.197.648-.29 1.355-.29 2.126 0 2.172.65 3.947 1.977 5.32 1.333 1.366 3.04 2.062 5.133 2.062 1.932 0 3.501-.643 4.729-1.898 1.253-1.33 1.951-3.184 2.088-5.55h-4.343c-.06 1.08-.325 1.89-.782 2.416-.434.5-1.027.748-1.792.748-.844 0-1.492-.247-1.949-.748-.454-.504-.69-1.22-.69-2.15 0-.358.022-.642.072-.854.087-.24.217-.445.395-.62.282-.282.68-.532 1.197-.752.332-.128.869-.298 1.637-.523l1.634-.52c1.626-.61 2.878-1.537 3.772-2.765.921-1.222 1.377-2.683 1.377-4.381 0-2.369-.726-4.309-2.157-5.834-1.436-1.567-3.293-2.347-5.556-2.347-2.162 0-3.935.755-5.313 2.269-1.417 1.533-2.119 3.588-2.119 6.129zM579.166 18.679h4.554v-24.86h-4.554zM592.666-6.214v20.562h-4.835v4.33h14.246v-4.33h-4.857V-6.214ZM618.21-6.18h-4.545v9.157l-7.638 15.702h5.122l4.854-10.63 4.785 10.63h5.09L618.21 2.785ZM642.92 3.063a7.666 7.666 0 0 1 1.695-2.672 7.875 7.875 0 0 1 2.652-1.856c.958-.44 1.971-.66 3.037-.66 2.324 0 4.262.818 5.818 2.45 1.547 1.603 2.315 3.64 2.315 6.09a7.4 7.4 0 0 1-.584 2.933 7.758 7.758 0 0 1-1.667 2.57c-.852.93-1.74 1.606-2.648 2.02-.943.415-2.02.624-3.234.624-1.094 0-2.088-.187-3.003-.551a7.198 7.198 0 0 1-2.494-1.737 7.968 7.968 0 0 1-1.824-2.739 8.146 8.146 0 0 1-.623-3.182c0-1.166.178-2.265.56-3.29m-4.237 8.259c.62 1.559 1.573 2.967 2.836 4.203 1.23 1.175 2.564 2.063 4.02 2.675a12.91 12.91 0 0 0 4.796.913c1.703 0 3.306-.309 4.835-.913 1.5-.612 2.853-1.514 4.075-2.706 1.238-1.244 2.193-2.63 2.839-4.172a12.479 12.479 0 0 0 1.024-4.96c0-1.718-.306-3.327-.888-4.857a12.643 12.643 0 0 0-2.446-3.995c-1.284-1.358-2.737-2.388-4.32-3.1-1.598-.716-3.318-1.075-5.15-1.075-1.834 0-3.552.37-5.16 1.102a13.003 13.003 0 0 0-4.282 3.165 13.145 13.145 0 0 0-2.346 4.008 13.876 13.876 0 0 0-.816 4.752c0 1.74.32 3.396.983 4.96M668.054-6.178v24.801h13.537v-4.275h-8.988v-5.96h8.988V4.163h-8.988v-10.34zM698.567 18.322h4.785V9.838l6.753 8.484h5.68l-8.68-10.978 9.535-13.639h-5.617l-7.671 10.94v-10.94h-4.785zM799.895 11.798 796.56 3.35h6.65zm-2.422 6.524h4.793l9.565-24.617h-4.924l-1.94 5.075h-10.15L792.8-6.295h-4.919zM722.427 3.063A7.54 7.54 0 0 1 724.12.391a7.975 7.975 0 0 1 2.65-1.856 7.21 7.21 0 0 1 3.042-.66c2.333 0 4.264.818 5.812 2.45 1.548 1.603 2.316 3.64 2.316 6.09 0 1.049-.195 2.026-.58 2.933a7.974 7.974 0 0 1-1.664 2.57c-.849.93-1.74 1.606-2.65 2.02-.938.415-2.018.624-3.234.624-1.088 0-2.104-.187-3.012-.551a7.208 7.208 0 0 1-2.483-1.737 8.015 8.015 0 0 1-1.826-2.739 8.204 8.204 0 0 1-.632-3.182c0-1.166.195-2.265.568-3.29m-4.239 8.259a12.345 12.345 0 0 0 2.84 4.203c1.216 1.175 2.552 2.063 4.021 2.675 1.515.604 3.115.913 4.794.913 1.697 0 3.304-.309 4.823-.913 1.5-.612 2.865-1.514 4.084-2.706 1.238-1.244 2.18-2.63 2.836-4.172.685-1.564 1.013-3.22 1.013-4.96 0-1.718-.295-3.327-.882-4.857a12.365 12.365 0 0 0-2.436-3.995c-1.283-1.358-2.733-2.388-4.317-3.1a12.558 12.558 0 0 0-5.152-1.075c-1.826 0-3.552.37-5.16 1.102-1.612.735-3.043 1.793-4.279 3.165a12.993 12.993 0 0 0-2.352 4.008 13.94 13.94 0 0 0-.813 4.752c0 1.74.326 3.396.98 4.96M770.025-6.178v24.801h13.522v-4.275h-8.976v-5.96h8.976V4.163h-8.976v-5.949h8.976v-4.392zM757.814 13.607c-.68.485-1.793.74-3.354.74h-2.06V7.624h1.951c1.612 0 2.742.259 3.427.748.723.507 1.077 1.356 1.077 2.572 0 1.24-.354 2.133-1.041 2.664m4.122-6.967c-.988-1.305-2.374-2.246-4.136-2.83l7.385-10.024h-5.69l-6.83 9.57h-.265v-9.57h-4.493v24.837h6.055c1.455 0 2.524-.039 3.223-.125 1.058-.159 1.962-.462 2.7-.919 1.063-.581 1.915-1.475 2.538-2.664a7.536 7.536 0 0 0 .975-3.743c0-1.748-.485-3.246-1.462-4.532" style="fill:#919396;fill-opacity:1;fill-rule:nonzero;stroke:none;stroke-width:2.78349" transform="matrix(1.33333 0 0 -1.33333 -283.907 391.113)"/><path d="M371.659 55.38h-34.37v6.318h43.191V47.68h-34.39v-2.232h34.39v-6.14h-43.192v13.897h34.371zM396.905 58.586h8.805V47.569h36.486V39.34h-45.29ZM502.787 72.43V39.175h-8.94v50.754h8.94v-9.272h5.536v-8.225zm-34.81 6.681-8.858-19.935-8.247 4.156 12.701 26.618h8.857l13.436-26.618-8.982-4.156zM556.692 89.964h8.86V39.19h-8.86zm-32.266-9.453c-1.459-1.453-2.168-3.192-2.168-5.24 0-2.052.71-3.8 2.168-5.248 1.43-1.442 3.179-2.174 5.23-2.174 1.97 0 3.685.732 5.127 2.174 1.442 1.448 2.163 3.196 2.163 5.247 0 2.049-.72 3.788-2.163 5.241-1.442 1.4-3.156 2.11-5.127 2.11-2.051 0-3.8-.71-5.23-2.11m-6.154 5.904c3.134 3.09 6.936 4.632 11.384 4.632 4.423 0 8.195-1.542 11.323-4.632 3.137-3.064 4.702-6.775 4.702-11.145 0-4.465-1.565-8.256-4.702-11.39-3.128-3.129-6.9-4.696-11.323-4.696-4.448 0-8.25 1.567-11.384 4.696-3.09 3.176-4.635 6.97-4.635 11.39 0 4.37 1.545 8.08 4.635 11.145M618.363 80.559v9.391h8.863V39.213h-8.863v33.126h-7.654v8.22zM583.085 68.55h12.724v7.25h-12.724zm21.65-8.234h-30.58v29.62h8.93v-5.91h12.724v5.91h8.926zM680.03 72.801h-3.208v-33.61h-8.876v50.76h8.876v-9.384h3.207v9.383h8.877V39.19h-8.877zm-35.279-4.24h16.565v-8.227H635.84V89.95h25.475v-8.22H644.75zM749.48 75.17V59.922h-8.935v30.042h8.935v-6.56h5.55V75.17Zm0-36.918h-8.935v13.795H710.98v8.223h38.501z" style="fill:#231f20;fill-opacity:1;fill-rule:nonzero;stroke:none;stroke-width:2.78349" transform="matrix(1.33333 0 0 -1.33333 -283.907 391.113)"/><path d="M371.91 86.34v2.65h8.57V60.732h-8.57v8.45h-8.846v6.943h8.846v3.279h-8.846v6.936zm-30.508-4.46c-1.208-1.12-1.8-2.476-1.8-4.04 0-1.771.592-3.266 1.8-4.46 1.242-1.166 2.778-1.75 4.624-1.75 1.756 0 3.26.584 4.492 1.75 1.286 1.194 1.935 2.689 1.935 4.46 0 1.564-.649 2.92-1.935 4.04-1.272 1.092-2.783 1.632-4.492 1.632-1.846 0-3.382-.54-4.624-1.631m14.494 5.411c3.015-2.57 4.512-5.759 4.512-9.57 0-3.891-1.497-7.137-4.512-9.753-2.806-2.436-6.101-3.663-9.87-3.663-3.858 0-7.168 1.227-9.94 3.663-2.967 2.575-4.454 5.823-4.454 9.753 0 3.811 1.487 7 4.454 9.57 2.817 2.405 6.12 3.613 9.94 3.613 3.724 0 7.017-1.208 9.87-3.613M415.922 81.525H394.4v7.448h29.998V71.885h-21.516v-3.404h30.71v20.492h8.478V53.687h-8.478v7.268H394.4v17.55h21.522zM712.393 79.554c-1.136-1.05-1.7-2.333-1.7-3.858 0-1.447.564-2.683 1.7-3.733 1.083-1.088 2.435-1.628 4.044-1.628 1.542 0 2.873.54 3.997 1.628 1.142 1.05 1.69 2.286 1.69 3.733 0 1.525-.548 2.809-1.69 3.858-1.124 1.005-2.455 1.5-3.997 1.5-1.609 0-2.961-.495-4.044-1.5m16.158 1.534a9.718 9.718 0 0 0 1.26-2.467c.36-.965.538-1.934.538-2.894 0-3.694-1.439-6.759-4.328-9.217-2.692-2.288-5.893-3.432-9.592-3.432-3.73 0-6.956 1.144-9.69 3.432-2.936 2.458-4.403 5.523-4.403 9.217 0 .96.148 1.906.431 2.825.318.89.763 1.734 1.32 2.536h-3.502v7.045h11.326v4.701h9.066v-4.701H732.1v-7.045ZM811.83 48.315v-7.516h-51.227v7.516h8.07v21.143h8.417V48.315h6.032v21.143h8.411V48.315h7.71v33.672h-35.578v7.518h44.074v-41.19ZM261.822 75.17V53.684h-8.93v36.28h8.93v-6.56h5.542V75.17Zm-38.501-16.606h8.93V47.583h29.571V39.36h-38.501ZM224.732 79.554c-1.141-1.044-1.692-2.327-1.692-3.855 0-1.448.55-2.686 1.692-3.733 1.083-1.085 2.438-1.628 4.05-1.628 1.534 0 2.859.543 3.992 1.628 1.138 1.047 1.698 2.285 1.698 3.733 0 1.528-.56 2.811-1.698 3.855-1.133 1.01-2.458 1.503-3.992 1.503-1.612 0-2.967-.493-4.05-1.503m16.158 1.536a9.6 9.6 0 0 0 1.261-2.469c.365-.96.546-1.929.546-2.889 0-3.7-1.445-6.764-4.337-9.216-2.692-2.29-5.89-3.435-9.578-3.435-3.741 0-6.967 1.144-9.698 3.435-2.94 2.452-4.4 5.517-4.4 9.216 0 .96.136 1.901.417 2.828.326.885.771 1.726 1.322 2.53h-3.493v7.051h11.329v4.696h9.06V88.14h11.126v-7.05zM319.301 66.953h-8.923V80.74H277.42v8.222h41.88zM319.32 38.25h-8.929v13.397h-32.99v8.222h41.92z" style="fill:#231f20;fill-opacity:1;fill-rule:nonzero;stroke:none;stroke-width:2.78349" transform="matrix(1.33333 0 0 -1.33333 -283.907 391.113)"/><path d="M272.23 71.192V64.15h21.594v-4.699h9.071v4.699h21.597v7.042z" style="fill:#231f20;fill-opacity:1;fill-rule:nonzero;stroke:none;stroke-width:2.78349" transform="matrix(1.33333 0 0 -1.33333 -283.907 391.113)"/></svg>