<svg xmlns="http://www.w3.org/2000/svg" xml:space="preserve" width="273" height="272" overflow="hidden"><defs><clipPath id="a"><path d="M665 208h273v272H665z"/></clipPath><clipPath id="b"><path d="M666 208h272v272H666z"/></clipPath><clipPath id="c"><path d="M666 208h272v272H666z"/></clipPath><clipPath id="d"><path d="M666 208h272v272H666z"/></clipPath></defs><g clip-path="url(#a)" transform="translate(-665 -208)"><g clip-path="url(#b)"><g clip-path="url(#c)"><g clip-path="url(#d)"><path fill="#113274" d="M801.986 340.983h-91.407v3.555l24.808 4.023v68.724l39.032-15.595v-46.795l27.567 4.471v-18.383ZM774.419 281.878l-39.032-15.605v67.131l39.032-6.334v-45.192Z"/><path fill="#00A79E" d="M868.584 333.613v-67.34l-39.031 15.605v45.282l-27.567-4.561v18.384h91.406v-3.267l-24.808-4.103ZM829.553 401.69l39.03 15.595v-68.724l-39.03 6.334v46.795Z"/><path fill="#113274" d="m690.548 382.649-17.291 5.079-.66-2.171 7.476-2.201-1.789-6.044-7.466 2.2-.66-2.191 17.302-5.088.65 2.2-7.907 2.321 1.79 6.015 7.906-2.321ZM667.49 363.29l-.38-2.888 17.121-8.126.33 2.539-4.088 1.862.91 6.882 4.438.776.3 2.291Zm1.928-1.633 9.906 1.543-.75-5.696ZM666.38 333.713l17.991.547-.09 3.137-15.822 6.613v.05l15.632.478-.07 1.991-18.021-.507.1-3.237 15.643-6.513-15.423-.508ZM685.3 326.951l-17.73-3.336.429-2.251 7.776 1.454v-.08l-6.616-7.628.48-2.549 6.796 7.967 10.995-4.98-.55 2.878-10.425 4.452v.079l9.266 1.743ZM674.506 297.015l.74-2.19 8.995 8.205 6.507 2.201-.76 2.161-6.506-2.19-12.125.995.82-2.43 9.396-.538ZM688.59 292.614l-5.278-2.66c-3.199-1.633-4.408-4.311-2.669-7.707 1.74-3.396 4.628-3.984 7.826-2.36l5.278 2.688c4.448 2.26 5.367 4.8 3.628 8.186-1.739 3.386-4.338 4.173-8.786 1.853Zm4.177-7.967-5.427-2.769c-3.359-1.713-4.658.538-4.998 1.185-.34.648-1.4 2.988 2 4.71l5.427 2.77c3.518 1.782 4.927 1.214 5.917-.708.99-1.922.59-3.366-2.919-5.148ZM696.316 258.695l14.503 10.695-1.84 2.52-16.841-3.566 12.544 9.312-1.22 1.633-14.473-10.686 1.9-2.55 16.591 3.526-12.384-9.241ZM712.618 248.457c-1.49-1.504-2.919-1.703-4.578-.08-.52.508-2.279 2.41.37 5.09l4.278 4.321c2.769 2.799 4.288 2.709 5.837 1.185a5.694 5.694 0 0 0 1.74-2.818l-3.789-3.834-2.369 2.33-1.4-1.424 3.999-3.923 6.157 6.224a11.038 11.038 0 0 1-2.999 4.81c-2.718 2.679-5.427 2.569-8.925-.996l-4.158-4.203c-2.53-2.55-2.829-5.477-.1-8.146 2.728-2.669 5.087-2.987 7.636-.229ZM738.226 224.288l9.185 15.485-2.718 1.594-14.094-9.81 7.997 13.425-1.77.995-9.255-15.415 2.799-1.644 13.913 9.69-7.826-13.285ZM751.31 218.382l2.718-1.056 11.995 14.63-2.4.936-2.768-3.526-6.497 2.52.3 4.471-2.149.817Zm2.069 1.464.85 9.959 5.377-2.092ZM775.368 211.142l.47 1.942-4.608 1.115 3.808 15.526-2.238.538-3.8-15.516-4.607 1.116-.44-1.932ZM787.942 227.464l-2.28.29-2.308-17.827 2.29-.289ZM795.479 220.105v-5.906c0-3.585 1.808-5.885 5.636-5.905 3.83-.02 5.688 2.25 5.708 5.836v5.905c0 4.98-1.8 6.971-5.627 6.971-3.828 0-5.687-1.922-5.717-6.901Zm8.996 0v-6.075c0-3.754-2.63-3.864-3.35-3.864-.72 0-3.318.15-3.298 3.914v6.075c0 3.923 1.18 4.92 3.349 4.91 2.169-.01 3.319-.987 3.299-4.92ZM829.202 211.282l-2.788 17.726-3.108-.478-4.618-16.502-2.419 15.406-2-.318 2.799-17.766 3.209.508 4.547 16.282h.05l2.39-15.207ZM843.046 214.966l2.778.906-.059 18.922-2.439-.807.11-4.471-6.627-2.161-2.618 3.645-2.21-.727Zm.67 2.44h-.05l-5.687 8.226 5.487 1.793ZM850.962 237.174l7.996-16.133 2.059.996-7.106 14.35 5.947 2.918-.89 1.793ZM882.488 234.804l1.788 1.424-7.216 8.963c-2.48 3.067-2.17 4.59-.47 5.975 1.7 1.384 3.258 1.334 5.727-1.743l7.227-8.963 1.8 1.434-7.167 8.893c-3.129 3.884-5.807 4.273-8.786 1.893-2.98-2.38-3.199-5.08-.07-8.963ZM907.086 258.017l-13.414 12.02-2.099-2.33 6.857-15.705-11.665 10.407-1.369-1.514 13.404-12.03 2.179 2.4-6.777 15.496 11.475-10.297ZM899.6 278.233l-1.31-1.882 14.833-10.237 1.309 1.932ZM906.716 290.164l-1.29-2.42 13.454-13.036 1.18 2.2-12.055 11.055 15.993-3.705 1.099 2.062ZM911.344 300.033l16.992-6.115 3.158 8.714-1.88.677-2.378-6.553-5.447 1.992 2.209 6.085-1.88.677-2.238-6.115-5.878 2.112 2.43 6.702-1.88.677ZM924.877 315.479l-8.116 1.692-.48-2.24 17.652-3.685 1.28 6.065c.658 3.117-1.31 4.671-3.509 5.129a3.902 3.902 0 0 1-4.718-2.371c.11 2.092-.42 2.988-3.938 3.825-1.537.398-3.039.924-4.488 1.573l-.5-2.34c1.09-.887 3.419-1.215 5.728-1.902a2.37 2.37 0 0 0 1.69-3.127Zm1.95-.409.709 3.356c.34 1.614 1.899 2.102 3.439 1.783 1.27-.269 2.558-1.195 2.189-2.928l-.71-3.386ZM924.748 333.175h-.52c-2.45.159-3.119 1.743-3 3.207.111 1.822 1 3.157 3.12 2.987 3.998-.249 2.998-8.265 8.435-8.614 3.199-.199 4.998 1.992 5.228 4.979.2 3.287-1.28 5.219-4.948 5.298l-.19-2.28c2-.1 3.23-.807 3.089-2.988a2.513 2.513 0 0 0-2.819-2.599c-3.998.249-2.878 8.266-8.586 8.624-3.798.239-5.177-2.3-5.367-5.248-.38-5.288 3.678-5.547 5.407-5.607ZM919.58 351.559l.12-2.291 17.991.996-.13 2.29ZM935.022 372.173l-1.999-.329.78-4.67-15.822-2.639.38-2.251 15.821 2.629.78-4.661 2 .329ZM930.735 387.549l-.68 2.211-9.236-7.967-6.567-1.992.68-2.191 6.567 1.992 12.104-1.344-.75 2.449-9.375.797ZM692.218 404.967a2.99 2.99 0 0 0-2.76 3.207 2.995 2.995 0 0 0 3.219 2.75 2.99 2.99 0 0 0 2.76-3.207l-.001-.012a2.995 2.995 0 0 0-3.218-2.738ZM911.753 404.967a2.994 2.994 0 0 0-3.239 2.727 2.991 2.991 0 0 0 2.737 3.227 2.995 2.995 0 0 0 3.24-2.727l.001-.021a2.99 2.99 0 0 0-2.739-3.206ZM779.466 453.903l-14.993-3.983-.52 2.36 13.304 3.515-1.819 6.872-16.072-4.243-.61 2.301 9.416 2.48-.82 3.077-6.647-1.753-.61 2.3 13.304 3.506-1.7 6.363 3.49.917 1.818-6.822a1.9 1.9 0 0 0-1.359-2.32l-4.858-1.255.82-3.077 9.416 2.479.609-2.3-2.758-.727 1.939-7.33a1.892 1.892 0 0 0-1.294-2.345l-.056-.015ZM808.122 465.226h-12.754v-2.579h8.577v-4.979a1.895 1.895 0 0 0-1.88-1.912H791.77v2.37h8.557v2.121h-8.567v5.437c0 1.047.85 1.897 1.9 1.902l18.071.06v-12.687h-3.609ZM808.103 472.008h-8.887v-2.629h-3.608v8.415a1.886 1.886 0 0 0 1.87 1.902h.03l14.183.05v-10.317h-3.608Zm-8.897 5.278v-2.928h8.877v2.928ZM836.35 449.631l1.669 6.324-1.73.448-1.669-6.324-3.229.847 3.599 13.633-7.856 2.051-2.78-10.536 5.719-1.494-.6-2.3-9.216 2.41 3.508 13.295a1.91 1.91 0 0 0 2.329 1.354l9.506-2.48 2.129 8.077 3.228-.847-4.038-15.386 1.729-.448 4.058 15.386 3.229-.846-6.338-24.011ZM896.38 429.813l2.53-2.559-9.526-9.331a1.903 1.903 0 0 0-2.686-.013l-.013.013-10.835 10.954 1.7 1.663 9.645-9.779Z"/><path fill="#113274" d="m896.72 433.687-6.147-6.025-2.528 2.56 6.147 6.025-1.77 1.802-6.156-6.025-2.53 2.56 6.158 6.024-3.05 3.088 1.7 1.673 16.182-16.412-1.699-1.663-6.306 6.393ZM730.28 429.076l-2.57-2.529-13.033 13.165 2.569 2.52 7.096-7.161 2.55 2.51 1.678-1.693-2.548-2.509 4.257-4.303ZM709.59 432.223l-2.61-2.519-4.397 4.441a1.897 1.897 0 0 0 0 2.689l10.395 10.118 1.679-1.693-9.086-8.963ZM719.765 430.003a5.638 5.638 0 0 0 1.619-3.934l1.999 1.922 1.679-1.693-3.998-3.884 1.6-1.613-2.57-2.53-1.599 1.624-3.948-3.884-1.67 1.683 1.89 1.872a5.657 5.657 0 0 0-3.928 1.653 6.248 6.248 0 0 0 .58 8.84 6.305 6.305 0 0 0 8.355-.056Zm-6.368-6.254c1.35-1.365 3.299-1.644 4.348-.608 1.05 1.036.81 2.988-.55 4.342-1.359 1.354-3.298 1.633-4.347.607-1.05-1.025-.8-2.977.55-4.341ZM752.08 443.218l-1.52 2.599-3.758-2.181.13-.209c.529-.908.22-2.071-.69-2.599l-8.506-4.93-1.2 2.052 6.997 4.083a5.99 5.99 0 0 1-3.208 3.087c-2.19.856-4.578.996-7.997-.06l-1.209 2.071c3.638 1.574 7.996 1.843 10.625.857a8.315 8.315 0 0 0 3.638-2.36l3.908 2.26-1 1.783-4.327-2.56-1.2 2.052 4.389 2.539-2 3.346 3.119 1.803 6.907-11.821Z"/><path fill="#113274" d="M742.214 452.599c-3.259-1.893-7.307-.996-8.996 1.932-1.689 2.927-.48 6.881 2.789 8.773 3.268 1.892 7.306.996 8.996-1.922 1.689-2.918.48-6.891-2.79-8.783Zm-4.998 8.654a3.537 3.537 0 0 1-.86-4.91c1.06-1.822 3.17-2.579 4.708-1.693 1.54.886 1.92 3.097.86 4.92-1.06 1.822-3.228 2.569-4.758 1.673ZM865.016 435.709l-3.109 1.822 6.967 11.791 3.108-1.822-2.679-4.531 3.099-1.813-1.21-2.051-3.098 1.812-3.078-5.208ZM859.338 460.247l11.864-6.971 3.349 5.676 3.11-1.822-3.6-6.085a1.913 1.913 0 0 0-2.609-.677l-13.324 7.817ZM863.216 446.066a5.604 5.604 0 0 0-3.398-2.56l2.36-1.394-1.21-1.992-4.779 2.799-1.159-1.992-3.118 1.813 1.159 1.991-4.788 2.809 1.21 2.051 2.3-1.354a5.625 5.625 0 0 0 .598 4.212c1.945 2.867 5.852 3.621 8.73 1.685a6.25 6.25 0 0 0 2.085-8.028Zm-7.706 4.521c-1-1.653-.74-3.595.53-4.342 1.27-.747 3.088 0 4.068 1.643.98 1.643.74 3.605-.53 4.352-1.269.747-3.089.04-4.068-1.653Z"/></g></g></g></g></svg>