<svg xmlns="http://www.w3.org/2000/svg" xmlns:xlink="http://www.w3.org/1999/xlink" width="554.69244pt" height="450pt" viewBox="0 0 554.69246 449.99999"><path fill="#d8242a" d="M601.987 417.259H140.063V42.519h461.924Z" style="stroke-width:8.00075" transform="translate(-168.193 -51.058) scale(1.20083)"/><path d="M377.809 56.691v24.963H343.8v7.768h16.119c-9.189 6.72-15.156 17.576-15.156 29.836 0 20.396 16.523 36.92 36.941 36.92 20.397 0 36.92-16.524 36.92-36.92 0-12.26-5.966-23.117-15.15-29.836h17.783v-7.768h-35.682V56.691Zm3.896 33.4c16.087.033 29.122 13.048 29.154 29.167-.032 16.097-13.067 29.143-29.154 29.154-16.108-.01-29.134-13.057-29.166-29.154.032-16.119 13.058-29.134 29.166-29.166z" style="fill:#fff;fill-opacity:1;stroke-width:10.6677" transform="matrix(.90062 0 0 .90062 -168.193 -51.058)"/><path d="M314.863 221.404v56.389h43.168v11.982h-61.207v-68.369H268.98v7.778h20.088v68.357h49.004c-8.693 6.761-14.3 17.315-14.312 29.182.021 20.396 16.567 36.95 36.953 36.95 20.396 0 36.951-16.554 36.951-36.95 0-11.867-5.604-22.42-14.3-29.182h40.146v.006h43.588v20.92h7.756v-20.92h43.587v-7.775H423.51v.004h-57.701v-11.983h39.771v-7.797H322.64V253.48h82.705v-7.766h-82.705v-16.531h82.941v-7.777zm108.647.008v56.38h94.611v-56.38zm7.765 7.766h79.059v40.814h-79.059zm-70.562 68.367c16.119.032 29.144 13.059 29.176 29.178-.032 16.119-13.057 29.143-29.176 29.164-16.098-.021-29.134-13.067-29.166-29.164.032-16.119 13.068-29.146 29.166-29.178z" style="fill:#fff;stroke-width:10.6677" transform="matrix(.90062 0 0 .90062 -168.193 -51.058)"/><path fill="#fff" d="M427.965 116.94V83.41h-65.142v-5.84h70.975v39.37ZM316.666 355.231V287.81h39.595v5.84h-33.77v55.742h33.77v5.84zM507.904 292.417v.016zm56.157 47.013v-47.013h-56.157v-5.816h61.982v52.829z" style="stroke-width:8.00075" transform="translate(-168.193 -51.058) scale(1.20083)"/><path d="M377.816 163.97v35.321H570.62v34.742h-.002v25.602h-34.02v7.777h16.118c-9.179 6.722-15.149 17.572-15.149 29.828 0 19.082 14.491 34.798 33.051 36.746v13.145H431.59l.021-28.664h-7.787v36.441h190.209v-7.777h-35.629v-13.145c18.564-1.949 33.025-17.665 33.035-36.746-.006-12.256-5.966-23.106-15.138-29.828h17.722v-7.777h-35.619v-25.602h-.008v-42.508h-44.55v-17.7h44.879v-7.766H483.78v7.765h42.266v17.701H385.582v-27.554Zm196.692 104.094c16.087.032 29.133 13.047 29.154 29.176-.021 16.098-13.067 29.144-29.154 29.155-16.108-.011-29.132-13.057-29.164-29.155.032-16.13 13.056-29.144 29.164-29.176zM631.87 259.643v194.531h7.775v-64.295h20.087v-7.744h-20.097V267.42h20.097v-7.777zM570.617 365.586v18.166h-34.02v7.777h16.116c-9.176 6.722-15.147 17.568-15.147 29.809 0 20.428 16.556 36.943 36.942 36.943 20.396 0 36.931-16.515 36.931-36.943 0-12.241-5.96-23.087-15.132-29.809h17.726v-7.777h-35.629v-18.166zm3.89 26.598c16.088.01 29.134 13.035 29.155 29.154-.021 16.119-13.067 29.154-29.154 29.154-16.108 0-29.132-13.035-29.164-29.154.032-16.119 13.056-29.144 29.164-29.154z" style="fill:#fff;stroke-width:10.6677" transform="matrix(.90062 0 0 .90062 -168.193 -51.058)"/><path fill="#fff" d="M329.28 114.07V60.031h20.906v5.833h-15.065v48.204z" style="stroke-width:8.00075" transform="translate(-168.193 -51.058) scale(1.20083)"/><path d="M492.83 383.117v91.037h7.787v-83.271h11.096v83.271h120.146v80.25h7.768v-80.25h161.52v-7.765l-68.2-.006v-49.551h-7.777v49.55l-16.514-.001v-49.55h-7.777v49.55l-181.39-.014v-83.25z" style="fill:#fff;stroke-width:10.6677" transform="matrix(.90062 0 0 .90062 -168.193 -51.058)"/><path fill="#fff" d="M165.03 266.18v-27.706h5.841v21.874h50.493v5.833z" style="stroke-width:8.00075" transform="translate(-168.193 -51.058) scale(1.20083)"/><path d="m218.135 221.1-.158.312h-31.225v7.787h27.305l-27.305 54.242V297.021l1.525.663 29.87-59.282 29.847 59.282 6.945-3.5-32.726-64.985h29.26v-7.787h-33.18z" style="fill:#fff;stroke-width:10.6677" transform="matrix(.90062 0 0 .90062 -168.193 -51.058)"/><path fill="#fff" d="m214.599 380.488-3.153-5.624-1.912 2.32v3.304h-1.688v-11.385h1.688v5.72l4.608-5.72h2.08l-3.624 4.457 4.009 6.928zM223.727 371.283c-.408-.448-1.032-.696-1.696-.696-.664 0-1.272.248-1.672.696-.56.592-.656 1.232-.656 3.512 0 2.296.096 2.928.656 3.536a2.34 2.34 0 0 0 1.672.697c.664 0 1.288-.28 1.696-.697.536-.608.656-1.24.656-3.536 0-2.28-.12-2.92-.656-3.512m1.288 8.089c-.776.776-1.784 1.208-2.984 1.208-1.184 0-2.184-.432-2.952-1.208-1.112-1.113-1.08-2.385-1.08-4.577s-.032-3.432 1.08-4.568c.768-.768 1.768-1.208 2.952-1.208 1.2 0 2.208.44 2.984 1.208 1.097 1.136 1.073 2.376 1.073 4.568 0 2.192.024 3.464-1.073 4.577M233.163 370.661h-2.528v3.568h2.528c1.136 0 1.929-.672 1.929-1.768 0-1.136-.793-1.8-1.929-1.8m1.993 9.825-2.385-4.776h-2.136v4.776h-1.704v-11.385h4.36c2.137 0 3.489 1.4 3.489 3.344 0 1.616-.976 2.657-2.248 3l2.608 5.041zM239.588 369.102v11.385h7.209v-1.552H241.3v-3.432h4.689v-1.52H241.3v-3.329h5.497v-1.552zM252.965 371.683l-1.753 5.064h3.465zm2.952 8.808-.776-2.288h-4.433l-.776 2.288h-1.816l4.128-11.393h1.369l4.128 11.393zM270.534 369.1v8l-5.208-8h-1.56v11.385h1.696v-7.993l5.216 7.993h1.552V369.1zM279.007 371.683l-1.752 5.064h3.456zm2.952 8.808-.768-2.288h-4.456l-.768 2.288h-1.816l4.12-11.393h1.376l4.128 11.393zM283.743 369.102v1.552h3.104v9.833h1.704v-9.833h3.088v-1.552zM293.902 380.487h1.712v-11.385h-1.712zM304.185 371.283c-.392-.448-1.016-.696-1.68-.696-.656 0-1.272.248-1.664.696-.568.592-.672 1.232-.672 3.512 0 2.296.104 2.928.672 3.536a2.322 2.322 0 0 0 1.664.697c.664 0 1.288-.28 1.68-.697.552-.608.664-1.24.664-3.536 0-2.28-.112-2.92-.664-3.512m1.288 8.089c-.768.776-1.776 1.208-2.968 1.208-1.2 0-2.176-.432-2.944-1.208-1.12-1.113-1.088-2.385-1.088-4.577s-.032-3.432 1.088-4.568c.768-.768 1.744-1.208 2.944-1.208 1.192 0 2.2.44 2.968 1.208 1.096 1.136 1.088 2.376 1.088 4.568 0 2.192.008 3.464-1.088 4.577M316.18 369.1v8l-5.208-8h-1.569v11.385h1.705v-7.993l5.2 7.993h1.568V369.1zM324.644 371.683l-1.752 5.064h3.464zm2.968 8.808-.784-2.288h-4.432l-.776 2.288h-1.824l4.104-11.393h1.4l4.12 11.393zM331.332 369.102v11.385h7.129v-1.552h-5.425v-9.833zM348.698 380.592c-2.296 0-4.04-1.592-4.04-3.929v-7.56h1.712v7.456c0 1.537.92 2.473 2.328 2.473 1.4 0 2.336-.936 2.336-2.473v-7.456h1.713v7.56c0 2.337-1.753 3.929-4.049 3.929M362.593 369.1v8l-5.2-8h-1.568v11.385h1.712v-7.993l5.2 7.993h1.56V369.1zM367.549 380.487h1.696v-11.385h-1.696zM376.164 380.488h-1.32l-3.72-11.385h1.776l2.6 8.273 2.584-8.273h1.808zM381.744 369.102v11.385h7.209v-1.552h-5.497v-3.432h4.704v-1.52h-4.704v-3.329h5.497v-1.552zM395.846 370.661h-2.528v3.568h2.528c1.136 0 1.912-.672 1.912-1.768 0-1.136-.776-1.8-1.912-1.8m1.968 9.825-2.368-4.776h-2.128v4.776h-1.728v-11.385h4.376c2.136 0 3.504 1.4 3.504 3.344 0 1.616-.992 2.657-2.24 3l2.584 5.041zM405.256 380.592c-1.68 0-2.897-.408-3.96-1.52l1.111-1.129c.848.833 1.753 1.089 2.88 1.089 1.489 0 2.337-.632 2.337-1.737 0-.504-.152-.904-.448-1.184-.288-.272-.576-.392-1.232-.488l-1.336-.184c-.897-.128-1.633-.448-2.129-.904-.544-.544-.832-1.264-.832-2.168 0-1.984 1.432-3.344 3.785-3.344 1.488 0 2.52.384 3.488 1.28l-1.096 1.08c-.68-.664-1.488-.864-2.456-.864-1.313 0-2.049.776-2.049 1.776 0 .408.12.776.44 1.056.28.256.729.44 1.24.52l1.305.2c1.032.152 1.616.416 2.096.832.608.536.904 1.376.904 2.336 0 2.097-1.68 3.353-4.048 3.353M411.93 380.487h1.695v-11.385h-1.696zM415.904 369.102v1.552H419v9.833h1.696v-9.833h3.105v-1.552zM431.238 369.1l-2.336 5.016-2.36-5.016h-1.873l3.369 6.697v4.688h1.704v-4.688l3.368-6.697zM444.398 371.283c-.392-.448-1.016-.696-1.68-.696-.656 0-1.288.248-1.68.696-.552.592-.656 1.232-.656 3.512 0 2.296.104 2.928.656 3.536.392.416 1.024.697 1.68.697.664 0 1.288-.28 1.68-.697.553-.608.657-1.24.657-3.536 0-2.28-.104-2.92-.657-3.512m1.297 8.089c-.768.776-1.777 1.208-2.977 1.208-1.208 0-2.176-.432-2.952-1.208-1.12-1.113-1.088-2.385-1.088-4.577s-.032-3.432 1.088-4.568c.776-.768 1.744-1.208 2.952-1.208 1.2 0 2.209.44 2.977 1.208 1.104 1.136 1.088 2.376 1.088 4.568 0 2.192.016 3.464-1.088 4.577M449.596 369.102v11.385h1.712v-4.816h4.704v-1.544h-4.704v-3.473h5.497v-1.552zM390.334 388.623v4.84h-4.576v-4.84h-1.72v11.361h1.72V395h4.576v4.984h1.696v-11.36zM395.303 388.623v11.361h7.184v-1.536h-5.496V395h4.688v-1.52h-4.688v-3.32h5.496v-1.537zM409.374 390.163h-2.52v3.56h2.52c1.144 0 1.92-.647 1.92-1.76 0-1.144-.776-1.8-1.92-1.8m1.984 9.825-2.376-4.8h-2.129v4.8h-1.712v-11.377h4.353c2.144 0 3.512 1.384 3.512 3.32 0 1.633-.992 2.673-2.264 3.033l2.616 5.024zM415.801 399.993h1.713v-11.36H415.8zM419.778 388.623v1.536h3.096v9.825h1.712v-9.825h3.097v-1.536zM432.517 391.177l-1.769 5.065h3.465zm2.952 8.817-.768-2.296h-4.449l-.776 2.296h-1.824l4.129-11.385h1.376l4.128 11.385zM445.771 398.79c-.856.904-1.912 1.296-3.096 1.296-1.168 0-2.184-.44-2.944-1.216-1.128-1.12-1.112-2.384-1.112-4.568 0-2.176-.016-3.449 1.112-4.56.76-.8 1.736-1.209 2.944-1.209 2.384 0 3.768 1.56 4.097 3.52h-1.729c-.272-1.24-1.112-1.992-2.368-1.992-.672 0-1.272.28-1.672.712-.544.609-.672 1.249-.672 3.529s.128 2.944.672 3.544c.4.432 1 .68 1.672.68.744 0 1.392-.272 1.824-.792.416-.488.592-1.056.592-1.784v-.656h-2.416v-1.456h4.113v1.736c0 1.48-.28 2.424-1.017 3.216M449.596 388.623v11.361h7.209v-1.536h-5.497V395h4.704v-1.52h-4.704v-3.32h5.497v-1.537zM363.464 391.177l-1.76 5.065h3.464zm2.96 8.817-.768-2.296h-4.464l-.76 2.296h-1.825l4.129-11.385h1.368l4.136 11.385zM370.136 388.623v11.361h7.145v-1.536h-5.424v-9.825zM302.61 400.086c-1.185 0-2.185-.44-2.953-1.208-1.112-1.128-1.096-2.4-1.096-4.592 0-2.169-.016-3.433 1.096-4.553.768-.792 1.768-1.192 2.952-1.192 2.08 0 3.616 1.216 4.017 3.48h-1.72c-.297-1.152-1.049-1.96-2.297-1.96-.656 0-1.272.256-1.664.696-.552.6-.68 1.264-.68 3.529 0 2.304.128 2.96.68 3.56.392.44 1.008.688 1.664.688 1.248 0 2.032-.8 2.296-1.944h1.72c-.384 2.264-1.976 3.496-4.016 3.496M313.085 400.086c-2.288 0-4.048-1.584-4.048-3.928v-7.537h1.712v7.457c0 1.512.912 2.456 2.336 2.456 1.4 0 2.329-.944 2.329-2.456v-7.457h1.704v7.537c0 2.344-1.752 3.928-4.033 3.928M320.214 388.623v11.361h7.137v-1.536h-5.44v-9.825zM327.35 388.623v1.536h3.08v9.825h1.712v-9.825h3.097v-1.536zM341.36 400.086c-2.288 0-4.032-1.584-4.032-3.928v-7.537h1.712v7.457c0 1.512.912 2.456 2.32 2.456s2.344-.944 2.344-2.456v-7.457h1.704v7.537c0 2.344-1.752 3.928-4.048 3.928M352.731 390.163h-2.544v3.56h2.544c1.137 0 1.92-.647 1.92-1.76 0-1.144-.783-1.8-1.92-1.8m1.977 9.825-2.385-4.8h-2.136v4.8h-1.696v-11.377h4.376c2.12 0 3.48 1.384 3.48 3.32 0 1.633-.983 2.673-2.247 3.033l2.6 5.024z" style="stroke-width:8.00075" transform="translate(-168.193 -51.058) scale(1.20083)"/><symbol id="p" transform="translate(-140.063 -42.519)"><path d="M-2147483500-2147483500Z"/></symbol><use xlink:href="#p" width="100%" height="100%" fill="#2c292a" transform="matrix(11 0 0 -11 23622321000 -23622319000)"/><use xlink:href="#p" width="100%" height="100%" fill="#2c292a" transform="matrix(11 0 0 -11 23622321000 -23622319000)"/><use xlink:href="#p" width="100%" height="100%" fill="#2c292a" transform="matrix(11 0 0 -11 23622321000 -23622319000)"/><use xlink:href="#p" width="100%" height="100%" fill="#2c292a" transform="matrix(11 0 0 -11 23622321000 -23622319000)"/><symbol id="a" transform="translate(-140.063 -42.519)"><path d="M.449.861H0v-.62h.449v.62M.324.34h-.2v.422h.2V.34M.74 0v.948H.615V0Z"/></symbol><symbol id="b" transform="translate(-140.063 -42.519)"><path d="M.415.252a3.17 3.17 0 0 1-.014.096A1.239 1.239 0 0 0 .126.324v.178h.233v.343H0V.746h.235V.6H.001V.225h.075c.109 0 .258.007.339.027M.775 0v.948H.656V.575h-.08v.356H.459V.044h.117v.431h.08V0Z"/></symbol><symbol id="c" transform="translate(-140.063 -42.519)"><path d="M.762.555v.088H.237v.049h.504v.216h-.63V.82h.505V.77H.113V.555h.649M.769 0v.09H.233v.049h.514V.36H.104V.271h.519v-.05H.108V0h.661m.087.413v.092H0V.413Z"/></symbol><symbol id="d" transform="translate(-140.063 -42.519)"><path d="M-2147483500-2147483500Z"/></symbol><symbol id="e" transform="translate(-140.063 -42.519)"><path d="M.369.544C.369.395.317.306.244.306.173.306.122.395.122.544s.051.239.122.239c.073 0 .125-.09.125-.239M0 .544C0 .345.09.206.244.206c.155 0 .244.14.244.337 0 .2-.089.34-.244.34C.09.883 0 .743 0 .544M.514.35h.14V0h.125v.948H.654V.761h-.14L.518.655h.136V.456H.518Z"/></symbol><symbol id="f" transform="translate(-140.063 -42.519)"><path d="M.757 0v.099H.233V.28H.109V0h.648M.751.562v.099H.239v.231H.115v-.33h.636M.856.356v.1H0v-.1Z"/></symbol><symbol id="g" transform="translate(-140.063 -42.519)"><path d="M.618.643h-.38v.145h.38V.643M.757 0v.098H.234v.174H.11V0h.647M.499.182v.175h.357v.099H0V.357h.374V.182h.125m.244.705h-.63V.544h.63z"/></symbol><symbol id="h" transform="translate(-140.063 -42.519)"><path d="M.398.47C.398.435.356.404.296.404c-.058 0-.1.031-.1.066 0 .036.042.065.1.065.06 0 .102-.029.102-.065M.165.795h.268V.89H.165V.795M.567.659v.095H.026V.659h.541m.189.289H.632V0h.124v.458h.122v.103H.756v.387M.522.47c0 .095-.095.16-.226.16C.167.63.071.565.071.47c0-.081.068-.14.167-.156V.247A6.332 6.332 0 0 0 0 .243L.016.14a4.767 4.767 0 0 1 .573.036l-.01.095A3.594 3.594 0 0 0 .363.253v.062C.458.334.522.391.522.47z"/></symbol><symbol id="i" transform="translate(-140.063 -42.519)"><path d="M.634.694C.634.631.554.583.427.583.298.583.219.631.219.694c0 .062.079.109.208.109.127 0 .207-.047.207-.109M.325 0v.316h.202V0h.124v.316h.205v.099H0V.316h.201V0h.124m.439.694c0 .124-.132.209-.337.209C.222.903.09.818.09.694.09.568.222.483.427.483c.205 0 .337.085.337.211Z"/></symbol><symbol id="j" transform="translate(-140.063 -42.519)"><path d="M.574.476a.327.327 0 0 0-.22.301v.094H.226v-.1A.34.34 0 0 0 0 .45L.074.352A.402.402 0 0 1 .291.58.455.455 0 0 1 .503.379l.071.097M.787 0v.098H.285v.21H.16V0h.627M.763.924H.639V.237h.124v.312h.136v.103H.763Z"/></symbol><symbol id="k" transform="translate(-140.063 -42.519)"><path d="M.784 0v.1H.228v.068H.75v.254H.097V.324h.529v-.07H.104V0h.68M.11.902V.804h.512A.878.878 0 0 0 .601.601H0V.502h.856v.099H.719c.019.084.028.181.028.301z"/></symbol><symbol id="l" transform="translate(-140.063 -42.519)"><path d="M.775.247v.1H.233v.115h.515v.307H.104V.67h.52V.561H.109V.247h.255V.099H0V0h.856v.099H.488v.148z"/></symbol><symbol id="m" transform="translate(-140.063 -42.519)"><path d="M.323.59H.125v.098h.198V.59M.447.491v.411H.323V.785H.125V.9H0V.491h.447M.753.467v.474H.629V.749H.494V.644h.135V.467h.124M.783 0v.1H.255v.065h.498v.254H.125V.32h.504V.255H.131V0Z"/></symbol><symbol id="n" transform="translate(-140.063 -42.519)"><path d="M.778 0v.948H.659V.574H.575v.357H.458V.044h.117v.431h.084V0h.119M.124.737.358.736v.099H0V.224h.09C.2.224.339.231.41.25L.398.348A1.158 1.158 0 0 0 .124.326z"/></symbol><symbol id="o" transform="translate(-140.063 -42.519)"><path d="M.174.509c0 .042.046.07.103.07.055 0 .102-.028.102-.07 0-.041-.047-.07-.102-.07-.056 0-.103.029-.103.07m.328 0c0 .098-.096.164-.225.164C.146.673.049.607.049.509c0-.097.098-.164.228-.164.129 0 .225.067.225.164M.137.836h.281v.097H.137V.836M.55.698v.097H0V.698h.55M.124.303V.204h.5V0h.124v.303H.124m.757.275v.101H.748v.27H.623v-.6h.125v.229z"/></symbol></svg>