<svg xmlns="http://www.w3.org/2000/svg" xml:space="preserve" width="1592.4712" height="1592.46" viewBox="0 0 1592.4712 1592.46"><defs><clipPath id="a" clipPathUnits="userSpaceOnUse"><path d="M0 1194.345h1194.354V0H0Z"/></clipPath></defs><g clip-path="url(#a)" transform="matrix(1.33333 0 0 -1.33333 0 1592.46)"><path d="m0 0-1.134-26.693s3.894-4.461-4.462-4.461h-128.019s-24.047 0-30.739-23.933c-6.73-23.933-65.371-282.052-65.371-282.052s26.239-22.799 72.063-15.577c0 0 1.097-.568 2.231 6.125 1.134 6.654 25.143 158.002 29.604 182.464 4.499 24.5 11.758 70.097 13.46 75.655 2.798 3.365 2.798 2.797 6.163 2.797s45.824-.529 45.824-.529 1.663 1.097 1.663-2.798c0-3.932-23.479-223.637-23.479-223.637s-1.096-4.5 1.701-3.365c2.761 1.134 43.027 18.942 69.871 18.942 0 0 2.193.529 2.798 5.52.529 5.029 7.259 201.974 7.259 201.974s-.567 3.364 3.894 3.364h44.198s4.462.529 4.462-5.028c0-5.558 6.162-203.599 6.162-203.599s0-1.702 3.328-2.231c3.402-.567 54.217-10.587 65.408-19.509l3.895-1.097-19.018 230.859 48.13.605s2.798 1.664 3.895-3.364c1.134-4.991 39.132-261.485 39.132-261.485s-.568-2.76 3.894-4.423c4.461-1.702 48.13-3.895 68.206 13.913l.568 3.857-60.381 278.762s-.567 26.655-40.795 27.223c-40.266.567-121.895 0-121.895 0l-2.231 52.856s-1.701 2.23-3.932 2.23c-2.193 0-43.026.53-43.026.53s-2.231.567-2.231-2.76S0 0 0 0" style="fill:#1e298b;fill-opacity:1;fill-rule:nonzero;stroke:none" transform="translate(575.053 878.405)"/><path d="m0 0 63.935-23.744-64.313 1.059-.189-12.401 157.586-2.534.189 12.402-53.272.831-15.766 6.125L157.624-1.21l.227 16.144L64.577-9.225.227 15.993Z" style="fill:#1e298b;fill-opacity:1;fill-rule:nonzero;stroke:none" transform="translate(.567 614.297)"/><path d="M0 0c7.561 1.739 11.645 4.726 12.25 8.885.605 4.121-2.495 8.091-9.225 11.872-8.772 4.99-22.837 8.885-42.195 11.645-19.509 2.798-34.255 3.025-44.198.718-7.562-1.777-11.645-4.688-12.25-8.809-.605-4.197 2.495-8.167 9.263-11.985 8.885-4.953 23.101-8.81 42.61-11.608C-24.387-2.042-9.793-2.269 0 0m-112.367 9.376c-8.318 6.088-12.023 12.402-11.078 18.905.907 6.427 6.238 11.418 15.955 14.972 15.01 5.482 38.376 5.936 70.059 1.437 31.457-4.499 53.575-11.494 66.468-20.946 8.431-6.201 12.212-12.477 11.267-18.867-.908-6.427-6.314-11.456-16.182-15.048-15.01-5.406-38.225-5.86-69.644-1.398-31.721 4.536-53.99 11.493-66.845 20.945" style="fill:#1e298b;fill-opacity:1;fill-rule:nonzero;stroke:none" transform="translate(125.918 654.514)"/><path d="M0 0c.87 3.138-.114 5.898-2.911 8.242-2.949 2.42-8.129 4.689-15.615 6.768-5.445 1.512-9.982 2.23-13.611 2.155-4.915-.151-7.789-1.739-8.658-4.802l-4.197-15.01 41.06-11.418zm-74.445-7.184 8.167 29.151c1.852 6.541 8.695 9.868 20.529 9.981 8.394.076 17.544-1.285 27.487-4.046 8.507-2.344 15.767-5.217 21.816-8.544 6.238-3.479 10.208-6.957 11.91-10.36 3.705 1.815 7.75 2.609 12.136 2.382 5.936-.264 15.464-2.193 28.621-5.86C68.093 2.23 75.541.265 78.566-.378c4.083-.794 6.881-.719 8.432.189l3.856-1.059-3.743-13.384c-4.008.605-8.167 1.437-12.477 2.495-4.953 1.134-11.116 2.76-18.45 4.802-11.494 3.176-19.056 4.802-22.648 4.84-4.726.037-7.675-1.966-8.809-6.088l-3.516-12.476 59.473-16.485-3.328-11.796Z" style="fill:#1e298b;fill-opacity:1;fill-rule:nonzero;stroke:none" transform="translate(90.204 741.148)"/><path d="m0 0 145.676-59.776 17.279 41.628L137.321-7.6 124.73-37.96 86.846-22.383l11.04 26.655-25.483 10.511-11.04-26.731L30.512.718 42.61 29.869 16.787 40.493Z" style="fill:#1e298b;fill-opacity:1;fill-rule:nonzero;stroke:none" transform="translate(37.283 804.342)"/><path d="m0 0 7.6 13.536-58.074 23.706-.114-.227zm48.357-35.691L41.93-47.109-85.032 48.319l7.033 12.553L70.021 2.874 63.443-8.847 33.044 3.478l-11.039-19.66Z" style="fill:#1e298b;fill-opacity:1;fill-rule:nonzero;stroke:none" transform="translate(157.685 832.596)"/><path d="m0 0-7.449-8.961-94.408 77.583 87.263-86.203-7.676-9.263-101.364 69.152-.189-.152 94.408-77.583-7.449-8.96-121.516 99.852 11.683 14.103 98.869-67.186.038.038-85.221 83.632 11.494 13.838z" style="fill:#1e298b;fill-opacity:1;fill-rule:nonzero;stroke:none" transform="translate(276.68 897.505)"/><path d="m0 0 11.418 10.549-47.979 40.304-.189-.189Zm35.011-48.735-9.642-8.923L-66.014 71.95l10.549 9.792L67.526-18.639l-9.906-9.188L32.553-6.768l-16.598-15.35Z" style="fill:#1e298b;fill-opacity:1;fill-rule:nonzero;stroke:none" transform="translate(251.816 955.685)"/><path d="M0 0c2.684 1.928 3.63 4.688 2.911 8.242-.756 3.743-3.402 8.734-7.977 15.01-3.252 4.575-6.352 7.94-9.226 10.133-3.932 2.949-7.221 3.478-9.792 1.626l-12.704-9.112 24.916-34.444zm-62.649 40.644 24.689 17.695c5.558 3.969 13.006 2.344 22.307-4.953 6.579-5.18 12.893-11.91 18.905-20.228 5.179-7.146 9.073-13.913 11.644-20.265 2.723-6.579 3.668-11.759 2.836-15.502 4.046-.869 7.713-2.76 10.965-5.671 4.461-3.856 10.699-11.305 18.715-22.345 7.184-9.981 11.758-16.106 13.762-18.488 2.685-3.176 4.877-4.878 6.655-5.067l2.344-3.251L58.83-65.56c-2.722 2.949-5.444 6.2-8.129 9.679-3.138 4.008-6.956 9.074-11.418 15.237-6.957 9.641-11.872 15.577-14.67 17.846-3.63 2.986-7.183 3.251-10.662.756l-10.548-7.6 36.031-49.832-9.981-7.145z" style="fill:#1e298b;fill-opacity:1;fill-rule:nonzero;stroke:none" transform="translate(291.625 1024.712)"/><path d="m0 0-10.813-6.352-80.192 135.015 10.775 6.351z" style="fill:#1e298b;fill-opacity:1;fill-rule:nonzero;stroke:none" transform="translate(379.333 976.945)"/><path d="m0 0-11.305-5.444-56.448 116.148-16.674-8.016-12.174 25.029 44.614 21.476 12.175-25.029-16.674-8.016z" style="fill:#1e298b;fill-opacity:1;fill-rule:nonzero;stroke:none" transform="translate(411.735 993.653)"/><path d="m0 0-11.683-4.461-56.599 146.394 11.721 4.462z" style="fill:#1e298b;fill-opacity:1;fill-rule:nonzero;stroke:none" transform="translate(445.362 1007.577)"/><path d="m0 0 21.551-117.169-.076-.038L-20.719-5.709l-17.657-4.84L3.516-161.783l11.267 3.1L-17.77-41.211l.227.075 43.101-114.56 11.646 3.176L15.502-32.1l32.515-117.433 11.267 3.063L17.392 4.764Z" style="fill:#1e298b;fill-opacity:1;fill-rule:nonzero;stroke:none" transform="translate(448.61 1172.726)"/><path d="m0 0 22.496-155.28 44.803 6.428-3.932 27.335-32.666-4.65-5.861 40.379 28.773 4.121-3.97 27.109-28.735-4.121-4.726 32.894 31.344 4.499-3.971 27.524z" style="fill:#1e298b;fill-opacity:1;fill-rule:nonzero;stroke:none" transform="translate(490.668 1182.117)"/><path d="M0 0c-.794 2.269-1.928 3.441-3.478 3.441-1.399.037-2.534-1.097-3.403-3.327-1.021-2.496-1.551-5.974-1.626-10.36-.038-3.062.227-6.276.832-9.641.605-3.327 1.626-7.07 3.062-11.229 1.815 3.138 3.138 6.125 4.046 8.922 1.172 3.555 1.777 7.449 1.852 11.57C1.361-5.974.945-2.42 0 0m-8.809-63.67c-2.95-5.142-4.84-9.036-5.71-11.682-1.172-3.744-1.814-8.507-1.928-14.368-.151-4.537.34-8.847 1.475-12.855 1.512-5.633 3.819-8.469 6.994-8.544 1.74-.038 3.554 1.209 5.369 3.705 1.475 1.966 2.798 4.499 4.083 7.524zm33.687-70.286-14.027.265-3.743 13.687c-2.344-5.293-4.613-9.263-6.806-11.872-3.062-3.554-6.616-5.294-10.699-5.218-5.521.113-9.944 4.802-13.271 14.065-3.214 8.62-4.65 19.018-4.424 31.305.151 8.923.946 16.523 2.382 22.761 1.928 8.243 5.293 15.842 10.019 22.837l1.21 1.965a107.193 107.193 0 0 0-3.402 14.255 114.902 114.902 0 0 0-1.362 19.66c.227 11.191 1.891 20.227 4.991 27.109 3.063 6.616 6.919 9.868 11.645 9.792 3.706-.076 6.881-3.062 9.528-8.96 3.1-7.033 4.537-16.598 4.31-28.735-.189-9.717-1.664-18.45-4.424-26.126-1.474-4.121-3.44-8.129-5.935-12.061l-.076-.227 7.94-27.562c.794 3.856 1.474 7.524 2.003 10.965.606 4.536 1.059 9.376 1.362 14.594l10.359-.189c-.567-9.869-1.436-18.527-2.684-25.975-1.135-6.654-2.798-13.686-5.029-21.135z" style="fill:#1e298b;fill-opacity:1;fill-rule:nonzero;stroke:none" transform="translate(607.285 1167.69)"/><path d="M0 0c1.323-7.524 3.932-11.645 7.751-12.325 3.818-.643 7.637 2.344 11.418 8.998 4.991 8.62 9.15 22.534 12.515 41.703 3.364 19.32 4.196 33.952 2.419 43.858-1.323 7.524-3.856 11.644-7.675 12.287-3.856.681-7.675-2.344-11.494-8.998-4.953-8.734-9.112-22.761-12.477-42.081C-.907 24.235-1.739 9.792 0 0m13.195 111.422c6.05 8.167 12.061 11.72 18.035 10.699 5.974-1.02 10.359-6.389 13.271-16.106C49 91.043 48.47 67.829 43.026 36.41 37.582 5.293 30.209-16.598 20.908-29.188c-6.087-8.28-12.099-11.948-17.997-10.927-5.936 1.059-10.359 6.465-13.308 16.333-4.462 14.973-3.932 38.036 1.512 69.19 5.482 31.381 12.855 53.424 22.08 66.014" style="fill:#1e298b;fill-opacity:1;fill-rule:nonzero;stroke:none" transform="translate(669.197 1064.222)"/><path d="M0 0c1.399 7.486 2.079 13.157 2.004 17.052-.151 6.957-2.193 11.002-6.087 12.099-3.441 1.021-7.297-1.513-11.57-7.486-5.633-8.054-11.191-21.514-16.635-40.304-4.197-14.557-6.579-26.694-7.184-36.334-.68-11.003 1.248-17.165 5.747-18.451 3.062-.87 6.276.832 9.603 5.142 3.403 4.272 6.806 10.927 10.171 19.963l11.153-3.214c-6.2-16.787-12.514-29.415-19.017-37.96-7.071-9.339-13.763-13.082-20.115-11.267-7.335 2.08-11.229 10.436-11.645 25.105-.491 15.351 2.911 35.616 10.209 60.796 7.221 24.954 15.198 43.745 23.932 56.486 8.243 12.061 15.956 17.052 23.101 15.01 7.184-2.041 11.154-9.754 11.91-23.101.53-10.964-.907-23.214-4.385-36.712z" style="fill:#1e298b;fill-opacity:1;fill-rule:nonzero;stroke:none" transform="translate(760.103 1114.765)"/><path d="m0 0-27.071 11.003-12.59-30.777 24.802-10.057L-25.256-55.2l-24.802 10.057-15.502-37.809 28.205-11.418-10.435-25.596-38.754 15.728 59.511 145.26 37.582-15.274z" style="fill:#1e298b;fill-opacity:1;fill-rule:nonzero;stroke:none" transform="translate(831.331 1113.695)"/><path d="m0 0 12.666-6.805L36.069 51.08l-.189.113Zm-34.595-48.962-10.7 5.747 92.48 128.587 11.721-6.276L1.474-68.282l-10.964 5.86L2.722-32.137l-18.413 9.868z" style="fill:#1e298b;fill-opacity:1;fill-rule:nonzero;stroke:none" transform="translate(827.221 1037.938)"/><path d="m0 0 8.809-6.088-90.022-128.775-9.338 6.503 45.597 104.389-.152.114-64.085-91.648-8.847 6.125 89.984 128.776 10.057-6.957-44.841-102.234.076-.038z" style="fill:#1e298b;fill-opacity:1;fill-rule:nonzero;stroke:none" transform="translate(947.018 1078.544)"/><path d="M0 0c-13.876-14.481-25.786-23.895-35.692-28.319-9.338-4.197-16.597-3.856-21.777 1.059-2.344 2.231-3.592 5.255-3.743 9.112-.416 4.801.983 10.435 4.234 16.976 2.269 4.499 5.331 9.301 9.263 14.443 3.744 4.915 8.318 10.246 13.801 15.917l71.912 74.975 8.582-8.167-70.248-73.235C-30.89 15.237-35.653 8.885-37.96 3.705c-2.268-4.839-2.268-8.318-.076-10.435 2.76-2.647 6.617-2.684 11.532-.151C-21.929-4.613-16.22.076-9.339 7.221l71.194 74.256 8.544-8.128z" style="fill:#1e298b;fill-opacity:1;fill-rule:nonzero;stroke:none" transform="translate(954.992 938.093)"/><path d="m0 0 6.881-8.204-121.025-100.495-7.297 8.733 71.723 88.699-.151.151-86.09-71.533-6.919 8.242L-21.891 26.088l7.864-9.339-70.437-86.808.076-.076z" style="fill:#1e298b;fill-opacity:1;fill-rule:nonzero;stroke:none" transform="translate(1062.791 968.854)"/><path d="m0 0-6.692 9.414 128.738 90.514 6.654-9.414Z" style="fill:#1e298b;fill-opacity:1;fill-rule:nonzero;stroke:none" transform="translate(959.32 844.516)"/><path d="m0 0 6.162-10.208-147.907-66.96-5.633 9.339 128.965 98.378 6.352-10.548-99.437-73.047.038-.038z" style="fill:#1e298b;fill-opacity:1;fill-rule:nonzero;stroke:none" transform="translate(1115.206 892.364)"/><path d="m0 0-12.439 26.352-30.209-14.178L-31.23-11.91l-24.916-11.683L-67.564.529l-37.09-17.392 12.93-27.411-25.067-11.759-17.808 37.658L8.015 48.395l17.279-36.561z" style="fill:#1e298b;fill-opacity:1;fill-rule:nonzero;stroke:none" transform="translate(1120.983 819.076)"/><path d="M0 0c.983-2.836 3.327-4.386 6.919-4.613 3.781-.227 9.339.908 16.674 3.441 5.331 1.815 9.49 3.743 12.476 5.785 3.97 2.797 5.482 5.595 4.537 8.355L35.88 26.579-4.423 12.741Zm57.809 46.089 9.188-26.429c2.041-5.936-1.815-12.212-11.57-18.753-6.919-4.612-15.274-8.582-25.029-11.947-8.356-2.874-15.918-4.688-22.761-5.444-7.108-.832-12.287-.379-15.539 1.285-2.079-3.403-4.991-6.2-8.771-8.431-5.029-3.063-14.028-6.806-26.958-11.229-11.645-4.008-18.904-6.617-21.74-7.789-3.819-1.626-6.125-3.214-6.881-4.726l-3.781-1.323-4.235 12.136a182.206 182.206 0 0 0 11.721 4.953c4.726 1.815 10.738 3.97 17.959 6.466 11.267 3.856 18.413 6.767 21.438 8.733 3.932 2.495 5.255 5.634 3.969 9.377l-3.932 11.266-58.338-20.038-3.705 10.7z" style="fill:#1e298b;fill-opacity:1;fill-rule:nonzero;stroke:none" transform="translate(1096.157 766.166)"/><path d="M0 0c-6.163-1.399-11.04-3.214-14.632-5.369-5.596-3.251-7.902-7.07-6.919-11.494.718-3.138 2.533-5.368 5.444-6.691 3.819-1.702 9.339-1.74 16.523-.114 5.482 1.21 9.527 3.062 12.099 5.596 1.815 1.777 3.327 4.537 4.536 8.317L19.849-3.1c1.324 3.365 2.382 5.86 3.252 7.448a28.408 28.408 0 0 0 6.049 7.07c3.025 2.458 6.919 4.689 11.683 6.654 5.407 2.194 12.099 4.198 20.077 5.974 11.758 2.685 22.042 3.668 30.851 2.987 12.326-.945 19.358-5.293 21.06-12.968 1.663-7.259-3.063-14.103-14.103-20.53-8.28-4.802-18.526-8.621-30.776-11.456l-2.42 10.586c5.823 1.626 10.322 3.29 13.498 5.105 5.444 3.175 7.713 6.88 6.767 11.115-.567 2.458-2.344 4.272-5.331 5.369-3.743 1.323-8.771 1.286-15.047-.114-4.953-1.134-8.583-2.608-10.927-4.461-1.399-1.096-2.571-2.646-3.516-4.613l-.152-.189-6.427-15.236c-1.89-4.991-5.104-9.112-9.565-12.326-6.163-4.424-15.653-8.091-28.47-10.964-19.472-4.349-34.103-4.538-43.934-.53-6.087 2.42-9.603 5.936-10.662 10.511-1.928 8.696 2.836 16.333 14.405 23.026 8.129 4.725 18.602 8.506 31.419 11.38z" style="fill:#1e298b;fill-opacity:1;fill-rule:nonzero;stroke:none" transform="translate(1070.183 715.816)"/><path d="m0 0 1.626-11.418 156.036 22.421-1.664 11.418z" style="fill:#1e298b;fill-opacity:1;fill-rule:nonzero;stroke:none" transform="translate(1030.892 666.019)"/><path d="m0 0 1.172-16.938-129.343-8.923.794-11.532L1.966-28.47l1.21-16.938 27.865 1.928-3.176 45.408z" style="fill:#1e298b;fill-opacity:1;fill-rule:nonzero;stroke:none" transform="translate(1162.942 659.663)"/><path d="m0 0-59.435 1.928-.416-11.494 58.868-1.966 98.076-21.324.416 12.931L28.962-6.844 98.265 2.76l.453 13.535z" style="fill:#1e298b;fill-opacity:1;fill-rule:nonzero;stroke:none" transform="translate(1095.635 585.963)"/><path d="m0 0 12.855 6.768-37.657 71.345-12.931-6.806 21.249-40.229-35.919 32.478-13.044-6.881 37.62-71.345 13.157 6.919-20.53 38.943zm51.457 20.833 15.653 5.482-44.689 69.794-13.952-4.915 8.847-82.422 14.557 5.141-2.647 18.111 13.196 4.65zM23.668 69.568l11.003-19.321-7.676-2.684Zm53.31-42.346 14.594 2.798-12.098 63.291 16.031 3.101-3.063 15.993-46.127-8.809 3.063-16.032 15.502 2.95zm35.692 5.634 14.783 1.323-7.146 80.456-14.783-1.323zm46.504-.643c13.876-.529 23.971 10.359 24.916 35.313l.454 11.683c.945 25.029-8.28 37.279-22.156 37.809-13.914.529-24.16-11.003-25.105-36.032l-.454-11.683c-.945-24.916 8.394-36.561 22.345-37.09m.643 16.296c-6.994.264-8.772 7.221-8.242 20.945l.378 10.36c.529 13.649 2.873 21.059 9.83 20.795 6.654-.265 8.582-7.827 8.053-21.476l-.378-10.359c-.529-13.725-3.025-20.53-9.641-20.265m62.687-22.383 14.253-2.76 15.199 79.246-14.367 2.76-8.545-44.652-7.751 47.753-14.518 2.798-15.161-79.247 14.594-2.798 8.28 43.253zM275.587 8.62l15.501-5.898 10.965 82.158-13.838 5.218-46.467-68.623 14.443-5.482 9.679 15.539 13.044-4.953zm10.284 55.163-4.084-21.816-7.599 2.874zm8.847-64.085 32.137-17.922 8.016 14.33-19.169 10.699 31.419 56.146-12.969 7.259z" style="fill:#1e298b;fill-opacity:1;fill-rule:nonzero;stroke:none" transform="translate(450.319 890.314)"/><path d="m0 0 .454 18.564L0 26.201H-10.662c-.756 0-1.399-.567-1.399-1.323v-.794c-.605-1.21-2.155-8.545-13.838-8.545-3.97-.605-3.705-4.31-3.705-4.31s-.265-4.65 2.193-4.65h12.59s1.55-.87 1.55-4.878v-37.997h1.21V-38.3c0-.681.643-1.361 1.399-1.361h9.225c.756 0 1.437.68 1.437 1.361z" style="fill:#1e298b;fill-opacity:1;fill-rule:nonzero;stroke:none" transform="translate(516.393 288.432)"/><path d="M0 0c1.89 41.06-28.054 37.393-28.054 37.393-13.044 0-23.706-10.587-23.706-23.593 0-13.044 10.662-23.63 23.706-23.63 4.915 0 9.414 1.474 13.195 3.97 0-.265.076-.529.076-.908.302-3.667-.303-7.637-4.311-11.607-10.775-11.38-20.643 2.723-20.643 2.723h-11.38c1.852-10.096 12.628-19.283 31.078-16.22C-1.55-28.81 0 0 0 0m-13.195 13.46c0-7.259-5.936-13.195-13.309-13.195-7.335 0-13.271 5.936-13.271 13.195 0 7.297 5.936 13.233 13.271 13.233 7.373 0 13.309-5.936 13.309-13.233" style="fill:#1e298b;fill-opacity:1;fill-rule:nonzero;stroke:none" transform="translate(584.41 280.038)"/><path d="M0 0v7.637c0 .756-.605 1.361-1.361 1.361h-6.276l-1.588.643-.567 1.664v37.657c0 .794-.681 1.399-1.437 1.399h-9.528c-.302 0-.453-.076-.68-.189-.568.265-1.286.113-1.626-.378l-24.651-31.608c-1.096-1.248-1.928-2.458-2.533-3.554-.567-.681-1.134-1.399-1.475-1.966-1.512-2.458-.945-3.97-.945-3.97l.114-.076a1.369 1.369 0 0 1-.416-.983V0a1.42 1.42 0 0 1 1.399-1.399H-22.118v-13.346c0-.794.605-1.323 1.361-1.323h9.528c.756 0 1.437.529 1.437 1.323v10.851l.869 1.588 1.702.907h5.86C-.605-1.399 0-.756 0 0m-22.118 10.549-.529-1.097-.907-.454-17.128-.642-.869.642.113 1.437c.567.832 1.853 2.42 2.344 3.516l13.989 17.279 1.551.756 1.436-.945zm-.794-12.591-2.193.643 2.987-2.269z" style="fill:#1e298b;fill-opacity:1;fill-rule:nonzero;stroke:none" transform="translate(651.218 263.97)"/><path d="M0 0s-.151 1.285-.151 2.609c0 1.399.605 4.121 1.285 7.183 0 2.723 3.819 3.743 3.819 3.743h24.084c1.134 0 1.323 1.324 1.323 1.324v7.221c0 1.513-1.701 1.701-1.701 1.701s-30.814.152-33.574 0c-2.76-.188-2.76-3.213-2.76-3.213s-5.142-28.81-5.256-30.663c-.189-1.853 1.55-2.155 1.55-2.155h9.831c13.724 9.641 20.794-1.55 20.794-1.55 6.012-8.243.303-18.224-8.431-19.736-8.734-1.475-12.817 4.763-13.875 7.372-.341 1.21-1.551 1.815-1.551 1.815h-9.527c-1.399 0-2.042-1.21-2.042-1.21 7.448-27.6 49.567-24.235 51.003 5.483C32.326 10.889 0 0 0 0" style="fill:#1e298b;fill-opacity:1;fill-rule:nonzero;stroke:none" transform="translate(678.327 290.285)"/><path d="M0 0v-15.615s-.302-4.008 2.155-3.403c2.495.643 76.676 17.77 76.676 17.77s39.207 13.687 44.311-32.477c.19-1.399.946-1.551.946-1.551h43.744s1.513 1.248 1.513 2.458c0 1.21 3.44 41.098 46.542 32.175 43.102-8.885 74.823-18.072 74.823-18.072V3.97l-65.938 16.56s-53.877 22.42-78.528-39.85c0 0-15.805 56.599-72.971 41.967C15.691 7.94 3.062 4.915 3.062 4.915S-.302 3.97-.302 2.76C-.302 1.512 0 0 0 0" style="fill:#1e298b;fill-opacity:1;fill-rule:nonzero;stroke:none" transform="translate(450.153 212.323)"/><path d="M0 0c-3.777 2.504-14.136-3.119-20.492-11.118-2.46-3.093-7.559-10.853-2.005-16.247 7.032-3.041 17.525 4.204 22.58 12.649C3.834-8.451 3.803-2.948 0 0" style="fill:#1e298b;fill-opacity:1;fill-rule:nonzero;stroke:none" transform="translate(996.876 286.516)"/><path d="M0 0c-2.069 3.511-3.294 5.3-4.59 7.196a114.834 114.834 0 0 0-4.547 7.097c-2.365 3.946-4.836 7.918-7.227 11.759a1575.68 1575.68 0 0 0-4.066 6.558c-.404.662-.806 1.338-1.206 2.013-2.197 3.696-4.469 7.519-7.074 8.383-1.602.512-4.258-1.28-6.848-3.15-.269-.198-.478-.368-.517-.573-.014-.225.315-1.21.543-1.676 5.455-10.466 11.434-20.768 19.379-33.393l.654-1.041C-11.16-3.752-5.761-12.369-.384-17.838c.437-.448.865-.849 1.314-.879 1.45-.117 4.44 1.351 6.098 2.903.727.676 1.128 1.315 1.132 1.797.02 2.272-3.543 7.328-5.902 10.676C1.293-1.972.461-.791 0 0" style="fill:#1e298b;fill-opacity:1;fill-rule:nonzero;stroke:none" transform="translate(164.735 252.226)"/><path d="M0 0c-1.027.118-1.996.18-2.908.187-7.4.065-11.087-3.284-12.9-6.296-3.066-5.106-2.612-12.697 1.082-18.058 1.704-2.469 5.502-6.436 11.949-5.29C4.365-28.19 8.322-19.894 8.421-12.73 8.516-5.866 5.367-1.104 0 0" style="fill:#1e298b;fill-opacity:1;fill-rule:nonzero;stroke:none" transform="translate(571.602 83.601)"/><path d="M0 0c-18.414-27.546-32.149-62.828-42.058-90.488-.72-2.014-1.357-4.14-1.972-6.196-2.467-8.236-5.02-16.753-13.601-21.335a2.94 2.94 0 0 0-1.089-.222c-.753.007-1.266.392-1.596.778-3.429 4.011.319 24.721 4.088 31.81-2.952 1.802-7.234 3.446-11.755 5.183-9.346 3.59-19.009 7.302-20.789 13.527-.763 2.667.045 5.598 2.397 8.715.059.088 1.914 2.83 5.259 3.496 2.228.443 4.558-.141 6.932-1.737.137-.124 6.617-6.406 8.685-7.663 1.794-1.113 7.467-3.564 17.368-5.721.578-.133 1.398.53 2.291 1.775 2.951 4.107 5.271 12.303 4.539 13.556-1.892 3.161-8.228 5.345-14.933 7.657-8.276 2.851-16.834 5.801-20.063 11.251l-.056.134c-.056.214-1.335 5.286 1.418 9.001 1.695 2.286 4.522 3.524 8.401 3.681.348-.036 6.484-.86 11.985-6.149.074-.048 13.227-9.383 18.753-8.34.338.307 1.677 1.658 2.851 4.772C-23.39-12.484-9.356 18.093-9.781 20.412l-.018.1.016.115c.045.226.31 1.369 1.1 1.598.299.088.761.076 1.286-.48l.111-.176L.226 1.88Zm-72.762-181.758c-6.758-4.937-13.314.927-19.656 6.609-2.975 2.666-6.053 5.423-9.011 6.873-.419.231-1.692-.694-2.569-1.635l-49.662-54.121c-1.314-1.337-2.501-1.652-3.339-1.644-.747.006-1.22.267-1.259.29l-.172.159c-5.13 7.461-.661 12.744 3.285 17.406.851 1.007 1.656 1.958 2.381 2.933 2.821 3.885 6.734 8.106 10.187 11.832a339.123 339.123 0 0 1 3.096 3.369l29.451 31.629c1.645 7.482 4.597 9.532 5.128 9.849 3.177 2.978 7.835-1.096 8.035-1.269.191-.18 18.293-17.095 25.23-24.645.092-.135 2.557-4.464-1.125-7.635m-100.199-22.03c-2.688-.834-6.67-1.569-10.376-1.537-3.106.027-6.016.593-7.811 2.093-7.938 6.683-5.61 18.875-5.063 21.251.051.145 2.84 7.268 7.089 13.06-.358.03-.864.115-1.11.653a5.536 5.536 0 0 0-.338 2.979l-.18-.177c-2.907-2.881-5.339-5.811-7.689-8.646-5.039-6.074-9.8-11.812-18.697-16.77-.655-.412-1.277-.533-1.823-.346-.933.316-1.329 1.391-1.647 2.252-.071.192-.135.372-.204.526l-.042.172c-.623 7.905 6.262 14.135 12.336 19.633 1.815 1.643 3.527 3.194 4.954 4.708 4.995 5.331 9.309 9.935 14.933 15.46 2.16 2.155 4.211 4.469 6.198 6.707 2.65 2.987 5.155 5.81 7.826 8.2 4.533 4.025 9.205 5.819 10.936 5.161.438-.165.706-.482.759-.897a15.896 15.896 0 0 0-1.744-7.59c-2.802-5.554-7.162-9.702-11.377-13.716-2.541-2.417-5.168-4.918-7.474-7.73l-2.243-2.204c.651-.131 1.208-.541 1.721-.92.271-.201.549-.405.832-.567.21.172.419.34.625.507.227.184.452.362.667.542 5.172 4.146 11.023 7.493 17.403 9.957 3.115 1.222 6.773 2.345 10.247 1.406 3.68-1.006 7.146-4.511 8.95-7.536.205-.293.406-.673.56-1.068 1.746-3.527 2.232-7.825 1.281-11.455-1.973-7.286-5.704-14.268-10.794-20.194-4.428-5.108-10.553-11.301-18.701-13.912zm-7.452-97.109-.091-.19c-1.462-1.913-3.135-2.888-4.978-2.901l-.081.001c-4.176.037-8.114 5.045-10.236 7.742-.272.347-.514.655-.725.912-6.569 7.937-12.339 17.643-17.918 27.028-3.949 6.641-7.683 12.923-11.578 18.417-1.888-.948-3.629-2.097-5.464-3.306-2.201-1.454-4.473-2.951-7.145-4.181 3.681-7.718 8.959-15.267 14.067-22.572 8.535-12.2 15.903-22.737 12.622-29.947l-.084-.127c-1.223-1.398-2.619-2.102-4.149-2.089-.062.001-.124.006-.186.006-3.624.169-6.63 4.261-6.757 4.436l-.014.021-47.833 73.241c-.743 1.45-1.713 2.797-2.652 4.099-2.821 3.909-5.738 7.949-.929 13.034 2.764 1.997 5.158 2.674 7.389 2.172 4.133-.954 6.837-5.953 9.452-10.786.849-1.572 1.728-3.197 2.635-4.638 1.897-3.005 3.423-5.782 4.773-8.233 2.087-3.797 3.901-7.094 6.371-9.992 1.465 1.089 3.155 2.113 4.793 3.11 2.49 1.51 5.058 3.07 6.905 4.876-2.146 4.909-5.908 10.247-9.548 15.411-7.181 10.19-14.607 20.728-9.819 28.477l.095.113c.135.122 3.262 2.956 6.876 2.599 1.843-.178 3.442-1.16 4.755-2.922 7.846-13.437 16.1-26.463 24.084-39.06 10.847-17.117 21.095-33.286 30.229-50.141.579-1.053 1.248-2.082 1.893-3.078 2.188-3.371 4.452-6.859 3.248-11.532m-60.577 15.949-1.03-10.566c-.139-1.95-.964-2.771-1.058-2.861-6.172-3.975-12.132-6.967-17.895-9.857-6.9-3.459-13.416-6.724-19.888-11.368-1.683-1.202-3.145-2.85-4.56-4.44-2.894-3.264-5.887-6.633-11.035-6.721-2.013.171-3.433.958-4.276 2.336-1.882 3.081-.201 8.123.253 9.349l-13.133 19.47c-.412.563-12.604 17.56-14.247 19.851-2.526-.042-4.463.621-5.739 1.965-1.789 1.884-1.587 4.397-1.577 4.503l.038.161c2.446 5.768 11.279 12.813 26.998 21.538.768.428 1.534.865 2.295 1.298 7.427 4.224 14.45 8.217 19.001 3.176l.107-.184c1.543-4.5-1.386-6.365-8.463-10.864-.883-.563-1.835-1.169-2.857-1.829-2.145-1.358-4.65-2.744-7.072-4.084-3.05-1.687-6.204-3.433-8.608-5.109-.233-.118-.66-.384-.768-.72-.032-.099-.059-.259.08-.509 2.442-3.946 23.507-38.009 24.828-40.343.06-.047.245-.135.578.007 9.742 5.174 17.01 9.79 24.041 14.255 7.211 4.579 14.023 8.906 22.896 13.447a.664.664 0 0 0 .815.097c.165-.097.608-.351.276-1.998m-100.367-41.992-.05-.177c-1.654-3.423-6.862-4.472-11.901-5.487-2.296-.461-4.664-.941-6.625-1.632.065-.85.395-2.206.769-3.75 1.409-5.81 3.537-14.596-2.9-16.858a7.379 7.379 0 0 0-1.869-.232 6.253 6.253 0 0 0-3.275.951c-4.94 3.03-7.248 12.819-9.284 21.454-.563 2.39-1.096 4.652-1.661 6.678l-10.302 37.103c-.022.096-1.498 7.026 5.101 8.708.15.049 4.45 1.384 7.302-.347 1.232-.748 2-1.946 2.282-3.559l4.684-16.815c2.617-.014 5.628.779 8.546 1.549 4.086 1.078 7.943 2.088 10.256.689.949-.575 1.581-1.525 1.878-2.82.264-1.344.05-2.526-.627-3.531-1.821-2.696-6.714-3.635-11.03-4.467-2.439-.468-4.753-.916-6.126-1.603a869.695 869.695 0 0 0 1.733-6.372c.59-2.184 1.178-4.367 1.693-6.23 1.736.27 3.822.848 6.02 1.462 5.432 1.514 11.059 3.084 13.84.737 1.286-1.084 1.807-2.919 1.546-5.451m-13.671-65.257c-12.982-11.018-39.654-20.368-59.877-20.196-5.284.047-10.123.743-14.167 2.228-6.52 2.397-10.314 6.583-11.275 12.439-2.29 13.76 19.379 25.485 34.709 30.101.41 2.659 1.74 4.863 3.958 6.554 6.107 3.657 9.791-.329 11.563-2.241l.05-.055 2.653.42c18.369 2.921 37.37 5.927 40.9-12.569 1.018-5.318-1.927-11.085-8.514-16.681m-113.729 63.114.093 1.812c1.101 17.016 20.821 21.54 24.11 22.173.008 1.404.383 5.401 4.299 6.614.122.028 5.74.881 7.486-3.639l4.586.378c.799.026 1.58.032 2.342.024 13.643-.118 21.443-4.903 25.885-15.717 3.436-8.424 2.663-17.354-2.179-25.147-6.585-10.598-19.307-17.319-34.906-18.442a25.524 25.524 0 0 0-2.129-.064c-7.497.065-15.335 3.285-20.893 8.688-4.254 4.129-9.217 11.531-8.694 23.32m-32.202 1.267c-.129-1.69-.25-3.281-.275-4.671-.103-5.803-.213-11.39-.319-16.851-.331-16.928-.643-32.917-.713-50.367-.017-2.033.101-4.362.224-6.827.415-8.281.888-17.67-3.32-22.042-1.562-1.624-3.685-2.435-6.306-2.412l-.037.001c-7.094.87-6.612 16.528-6.053 34.662.332 10.791.675 21.944-.672 30.128-3.744 1.76-9.514.932-13.569.151-.531-.097-2.147-1.647-.913-17.589l.056-.745c.132-1.89.296-3.811.461-5.742.572-6.747 1.166-13.727.498-20.402-.536-5.547-1.941-8.915-4.425-10.601-1.903-1.287-4.41-1.498-7.463-.618-3.617.942-3.914 13.231-3.925 29.198-.002 2.52-.004 4.902-.036 6.983a1298.59 1298.59 0 0 0-.112 11.591c-.06 8.779-.121 17.859-.552 27.173l-.286 5.38c.002 1.142-.016 2.361-.036 3.641-.135 8.698-.305 19.519 5.143 22.958 2.611 1.655 6.262 1.339 10.855-.932l.071-.042c.135-.098 1.328-1.051 1.258-4.635-.027-3.065-.277-29.165-1.088-33.039 2.883-2.879 7.782-1.719 12.969-.48l.713.169.699 21.894c-.058.794-1.37 20.699 4.969 23.391 4.161.679 7.244.046 9.29-1.836 3.956-3.644 3.366-11.32 2.894-17.489m-49.111-18.693-.09-.118-.139-.055c-6.723-2.506-12.508-3.012-17.938-2.964-2.095.018-4.136.121-6.159.22-3.349.163-6.816.327-10.399.12-3.049.075-29.226.758-32.111 1.694-.786.067-7.139.668-9.233 3.413-.594.781-.806 1.657-.631 2.614.003.297.07 1.483.966 2.41.728.75 1.788 1.122 3.149 1.111.248.009 27.318.858 59.124-.667.071-.005 6.349-.408 11.193-1.747.114-.034 2.554-.783 3.157-2.645.339-1.039.039-2.179-.889-3.386m-9.661-40.459c-1.712-7.349-6.675-13.49-13.981-17.292-5.089-2.666-11.362-3.591-17.169-3.54-7.418.065-14.075 1.716-16.532 3.339-10.634 7.115-15.081 23.999-9.152 34.75 2.228 4.219 7.503 8.208 9.068 9.332.355.209 7.5 4.235 12.577 4.402.351 2.021 1.791 5.227 5.302 5.379-.039.005 5.603 1.231 7.832-4.53 1.86-.484 12.314-3.351 15.249-7.229l1.309-1.593c5.321-7.244 7.266-15.409 5.497-23.018m-106.324 32.569c2.008-.589 4.084-1.199 6.218-1.955l.568-.199-.27-.537c-2.607-5.203-5.507-8.188-8.863-9.124a9.295 9.295 0 0 0-2.556-.33c-4.404.039-9.078 2.991-14.356 6.325-1.917 1.214-3.9 2.465-5.959 3.631L-714-344.306c-5.294-12.838-11.628-16.862-11.901-17.029-.328-.121-5.309-1.651-7.404 1.663-3.247 6.17-1.117 11.27 1.553 16.39.158.309.468.791.831 1.351.754 1.157 2.156 3.319 1.974 4.033-.055.187-.202.176-.259.18l-.125-.016-.115.047-52.075 19.434c-1.623 1.268-2.415 2.621-2.35 4.029.097 2.181 2.244 3.587 2.336 3.644l.092.049c7.562 2.974 15.73-.141 22.301-2.65.625-.238 1.236-.471 1.83-.695 4.514-1.655 8.611-3.658 12.574-5.593 3.078-1.501 6.261-3.057 9.551-4.399l1.765-.864c15.669-6.224 37.817-16.716 40.698-18.087 6.856 5.895 9.869 10.971 13.057 16.338 1.145 1.933 2.328 3.927 3.73 6.039-2.534 4.151-7.176 5.566-11.667 6.935-1.942.592-3.951 1.202-5.733 2.025-1.995.796-49.538 19.75-53.338 22.243-1.519 1.014-2.369 2.131-2.524 3.326a3.062 3.062 0 0 0 .536 2.144c.576 3.79 7.247 3.815 7.533 3.815h.242c10.073-.089 32.689-11.287 43.604-16.693l1.721-.852 26.969-11.495c.867.208 4.507.934 7.229-.792 1.536-.974 2.494-2.552 2.848-4.679-.358-6.569-4.317-14.001-7.575-19.096-3.216-4.937-7.568-11.623-14.227-15.131 5.119-3.022 9.568-4.328 14.264-5.707m-25.284-30.382c-3.948-15.416-14.359-28.731-14.464-28.862l-.096-.094c-.144-.111-3.082-2.309-5.861-2.285a4.42 4.42 0 0 0-1.356.215c-1.361.455-2.318 1.589-2.845 3.375-.312.516-1.938 3.512-.439 7.992l7.122 17.733c-11.775 8.645-25.435 13.97-38.65 19.125-9.301 3.626-18.919 7.375-27.832 12.256-3.279 1.98-4.067 4.136-2.834 7.694.053.158.448 1.198 1.764 1.786 1.769.78 4.306.414 7.548-1.1l58.183-26.064c1.952-.832 4.148-1.369 6.472-1.94 5.063-1.241 10.298-2.521 13.372-7.115l.103-.15zm-98.659 124.994c-.584-.511-1.091-.953-1.437-1.307-1.321-1.323-2.61-2.718-3.858-4.068-.632-.682-1.263-1.364-1.896-2.037-1.947-1.988-3.953-4.037-6.047-6.017-1.34-1.246-5.505-5.366-5.944-6.128-.07-2.72 2.804-5.41 5.583-8.014 2.881-2.698 5.604-5.25 5.388-7.982-.116-1.473-1.066-2.795-2.903-4.037l-.2-.085c-4.305-.782-6.954 2.268-9.516 5.235-1.687 1.956-3.286 3.805-5.3 4.599-3.85-1.743-6.967-4.538-8.917-6.592-1.428-1.54-2.803-3.243-4.132-4.887-2.652-3.282-5.397-6.679-8.879-9.24-1.932-1.45-5.995-3.415-9.293-3.385-.971.008-1.876.186-2.641.606-1.566.855-2.27 2.53-2.089 4.98.481 6.687 6.679 12.025 12.145 16.735 2.097 1.805 4.074 3.51 5.613 5.176l28.705 30.942c7.043 7.484 11.827 10.002 12.029 10.103 1.334.817 2.684 1.009 3.985.55 2.853-1.004 4.409-4.834 4.63-5.416 2.294-3.339-2.284-7.337-5.026-9.731m-71.304-21.293c-1.208.011-2.39.141-3.508.399-8.005 1.859-15.617 5.528-22.013 10.615-5.975 4.761-12.47 10.748-15.317 19.053-1.742 5.13-3.169 14.824.41 19.004 5.647 6.691 15.958 7.365 23.056 5.913.595-.141 14.263-3.466 19.957-10.8.678-.892 1.496-1.773 2.29-2.625l.714-.774c4.418-5.043 8.111-11.051 10.984-17.863 1.447-3.4 2.644-7.049 1.633-10.684-1.083-3.827-4.94-7.612-8.067-9.508a9.743 9.743 0 0 1-.549-.298c-.194-.11-.387-.218-.591-.318-2.797-1.41-5.982-2.14-8.999-2.114m8.181-57.279c-3.328-1.681-6.121-2.398-8.581-2.377-5.998.052-10.019 4.489-15.028 10.016-1.845 2.037-3.754 4.141-5.993 6.319-12.769 12.497-25.466 24.604-40.39 35.392-.944.677-2.577.815-4.305.963-3.939.336-8.843.754-9.903 7.559l-.026.17.078.154c4.146 8.091 18.628 26.704 27.76 26.063 2.808-.198 4.86-2.115 6.098-5.698 1.703-4.872-1.432-8.212-4.722-10.833-.486-.391-.966-.791-1.446-1.187-1.184-.983-2.411-1.999-3.759-2.944l-.272-.19c-1.759-1.214-3.75-2.591-3.124-4.675.832-2.356 4.011-4.39 6.567-6.023.829-.531 1.606-1.028 2.241-1.493 3.681-2.722 7.322-5.953 11.137-9.875 2.906-2.928 6.004-5.697 9.002-8.373a601.206 601.206 0 0 0 3.314-2.978c2.917-2.609 6.036-5.237 9.051-7.773 7.755-6.528 15.776-13.273 22.471-21.407l.422-.509zm-93.526 135.053-.087.026c-2.257.622-3.925 2.353-5.252 5.448-.904 2.111.612 4.486 1.921 5.426l.008.005c4.025 2.778 7.803 5.547 14.253 10.338 4.829 3.625 9.623 7.25 14.419 10.912.97.735 2.069 1.68 3.235 2.68 5.535 4.748 13.118 11.241 19.383 6.389 1.922-1.526 3.012-3.65 2.919-5.685-.061-1.85-1.058-3.378-1.804-4.365-3.272-4.341-8.018-7.465-12.608-10.488-1.468-.966-2.857-1.879-4.186-2.825-3.763-2.687-7.531-5.375-11.296-8.102-8.607-6.114-15.609-9.395-20.813-9.752zm-8.247 23.47-.073-.018a10.168 10.168 0 0 0-1.644-.114c-6.266.055-13.633 5.423-17.567 11.125-1.297 1.867-2.298 3.399-3.22 4.809-1.867 2.857-3.34 5.115-6.242 8.623-2.716 3.31-5.195 7.361-7.592 11.276-1.704 2.787-3.317 5.418-5.006 7.806l-.546.773c-2.349 3.313-5.269 7.436-5.309 11.414-.092 3.272.144 6.015 3.987 8.974 1.404.853 2.903 1.621 4.353 2.364 2.071 1.063 4.214 2.16 5.955 3.416 1.455 1.021 2.742 2.332 3.987 3.601 1.366 1.39 2.776 2.827 4.419 3.902 1.702 1.108 3.311 1.462 4.807 1.043 3.135-.878 5.065-4.889 6.765-8.426.531-1.104 1.032-2.144 1.527-2.995 3.877-6.761 8.283-13.487 13.476-20.564.418-.57.934-1.365 1.527-2.272 2.131-3.274 5.666-8.706 8.285-8.728.056-.001.112.001.168.006 3.472.275 9.432 3.155 11.179 6.001 1.445 2.306-2.265 8.037-4.48 11.46-.496.767-.935 1.445-1.262 1.993-5.754 9.469-12.788 17.761-19.53 25.309-2.85 3.214-3.976 7.141-3.014 10.505.7 2.396 1.834 3.72 3.374 3.938 4.493.679 10.755-8.233 16.312-16.99.497-.783.883-1.391 1.13-1.75a993.919 993.919 0 0 0 14.154-21.272c.763-1.168 1.635-2.313 2.561-3.525 3.281-4.301 6.674-8.747 4.986-14.263-1.145-3.665-3.403-4.985-6.526-6.81-.885-.519-1.846-1.082-2.875-1.754-1.5-.59-3.084-1.526-4.616-2.43-1.569-.929-3.193-1.886-4.676-2.456-.918-.361-1.704-.758-2.466-1.142-1.181-.595-2.294-1.159-3.777-1.543-1.455-.364-2.805-.332-3.911.086-3.892 1.535-7.226 7.105-8.479 9.426-3.774 6.978-13.217 21.554-20.756 32.054l-12.085-7.496c-.378-.214-1.046-.585-1.187-1.023l-.044-.72c-.228-.847 2.793-5.267 3.93-6.929l.658-.969c5.146-7.728 10.321-15.12 15.375-21.97 3.004-4.072 4.52-5.928 6.62-8.5a385.22 385.22 0 0 0 5.635-7.021c.154-.206.697-.82 1.388-1.606 2.171-2.467 3.998-4.567 4.36-5.308l.236-.482-.487-.23c-.68-.317-1.751-.401-2.698-.476-.447-.035-.911-.07-1.086-.122m-4.12-32.41c-.536-.478-1.068-.951-1.548-1.436-9.5-7.137-13.502-9.593-23.422-15.343-.829-.351-1.576-.788-2.369-1.249-1.571-.916-3.18-1.854-4.951-1.839a4.956 4.956 0 0 0-1.827.37c-1.888.725-4.269 4.768-6.544 8.85-.292.521-.54.969-.736 1.303-3.663 6.213-6.345 10.164-9.184 14.349-2.157 3.18-4.389 6.47-7.261 11.037-4.999 7.918-10.347 16.357-15.884 24.82-2.245 3.475-4.181 6.082-6.893 8.338-2.338 1.364-4.087 3.5-4.613 5.662-.396 1.633-.111 3.227.847 4.741 1.375 2.218 3.945 3.681 6.43 5.099 1.215.693 2.364 1.35 3.331 2.067 4.054 3.037 7.439 5.647 10.783 8.502 3.865 3.218 8.518 5.39 11.74 6.646l.181.036c2.545.006 5.034-.924 6.896-2.698l.11-.15c1.996-4.082 1.331-6.764-.286-9.535-1.127-1.765-3.232-3.121-4.363-3.849l-1.72-1.573c1.801-3.451 22.049-34.307 24.399-37.808 1.04-1.582 2.135-3.551 3.295-5.634 2.648-4.752 5.647-10.139 8.944-12.689 3.101-2.415 6.226-.316 9.248 1.716 2.472 1.66 4.802 3.227 6.714 1.651 1.884-2.012 2.736-3.798 2.657-5.503-.113-2.441-2.076-4.19-3.974-5.881m-91.944 138.977-.026-.18-1.925-1.811c-13.813-9.006-31.098-11.9-31.272-11.926l-.067-.013-.066.008c-.217.02-5.352.522-6.985 3.462-.717 1.292-.65 2.821.2 4.547.118.608.971 4.044 5.297 6.379l17.88 8.563c-2.928 14.839-9.626 28.449-16.104 41.617-4.572 9.291-9.3 18.898-12.672 28.868-1.145 3.787-.24 5.978 3.226 7.834.02.016 1.063.629 2.568.129 1.887-.632 3.559-2.694 4.966-6.127l26.201-60.523c.909-2.032 2.214-3.987 3.593-6.06 2.982-4.473 6.066-9.098 5.186-14.767m-23.146 116.544c1.594 1.599 4.228 1.185 4.335 1.167 7.888-3.003 11.947-11.02 15.207-17.464.342-.678.676-1.336 1.004-1.97 2.252-4.371 3.962-8.713 5.615-12.914 1.318-3.35 2.684-6.813 4.286-10.178l.72-1.94c7.611-15.695 17.212-39.233 18.436-42.251 9.378-.293 15.249 1.505 21.452 3.391 2.232.678 4.534 1.376 7.091 2.017.991 4.944-1.561 9.266-4.03 13.452-1.071 1.813-2.177 3.686-2.95 5.556-.968 2.001-24.018 49.699-25.187 54.285-.448 1.801-.318 3.227.389 4.241a3.202 3.202 0 0 0 1.937 1.281c3.045 2.511 8.181-2.125 8.401-2.326 7.575-6.806 17.093-31.307 21.665-43.08l.84-2.157 12.566-27.636c.793-.44 4.078-2.429 4.94-5.657.488-1.817.115-3.688-1.104-5.56-4.943-4.837-13.151-7.709-19.18-9.282-5.927-1.535-13.95-3.618-21.521-1.62 1.789-5.861 4.259-9.939 6.866-14.243 1.145-1.892 2.329-3.847 3.449-5.963l.281-.53-.561-.212c-3.251-1.243-6.06-1.85-8.472-1.832-1.77.016-3.326.371-4.689 1.064-4.931 2.509-6.678 8.953-8.702 16.415-.614 2.262-1.248 4.601-2.002 6.929l-8.803 25.259c-13.042-6.131-20.724-4.77-21.047-4.707-.332.138-5.196 2.454-4.453 6.437 1.824 6.969 7.042 9.373 12.686 11.41.353.142.955.302 1.65.489 1.36.363 3.888 1.041 4.249 1.706.041.07.104.18-.059.301l-.166.192-26.147 51.272c-.35 2.069-.012 3.636 1.008 4.658m105.923 28.133c46.807 0 82.536-31.873 114.56-47.752 64.01-29.453 102.196-18.412 141.631-6.163 39.396 12.25 62.799 44.161 137.963 50.247 75.126 6.126 126.848-29.377 167.53-50.247 40.606-20.833 104.692-22.042 155.166 7.336 48.017 39.245 124.693 41.929 124.693 41.929l-8.091-35.918c-14.783-3.668-46.391-4.764-75.958-20.719-54.217-39.208-98.491-44.123-151.499-41.666-55.351 2.572-87.413 35.578-128.057 52.706-40.682 17.202-84.994 13.46-114.598 6.124-29.566-7.334-76.336-39.169-115.77-51.419-39.397-12.288-109.645-11.078-166.244 25.71-56.713 36.787-93.652 33.498-93.652 33.498-2.457 2.458-7.41 36.334-7.41 36.334zm810.854-171.417h.054c4.358-.038 9.622-5.639 14.714-11.057 3.329-3.545 6.48-6.898 8.674-7.792 2.115.778 4.012 3.01 5.851 5.17 3.1 3.649 6.623 7.777 11.658 4.86l.181-.172c2.734-4.221-1.081-7.89-4.771-11.439-1.971-1.894-4.005-3.851-5.099-5.898 1.694-3.459 5.072-5.966 8.341-8.393 4.937-3.664 9.599-7.126 6.357-13.042l-.095-.123c-1.862-1.831-3.902-2.587-6.051-2.569-6.075.051-13.023 6.297-19.351 11.98-1.849 1.66-3.595 3.23-5.318 4.659-2.22 1.85-4.931 3.884-7.805 6.038-8.685 6.515-17.669 13.25-17.626 18.075.095 6.475 3.461 9.647 10.286 9.703m-332.916 37.84c-44.349 31.834-102.272 25.747-129.381 3.704-177.36-113.992-330.107 12.213-330.107 12.213l-17.202 40.455s6.162 1.248 14.782 0c8.583-1.248 38.187-20.87 38.187-20.87 31.986-24.463 137.926-64.955 231.54-24.463 141.669 85.751 184.77 34.331 226.625 8.545 128.133-58.792 211.879-15.88 252.485 11.04 40.645 26.996 48.093 20.833 48.093 20.833l3.667-2.457c-3.667-15.918-17.278-39.208-17.278-39.208-151.461-98.075-277.099-41.665-321.411-9.792m269.928-94.473.035.037c1.914 1.979 3.759 4.137 5.543 6.226 1.03 1.204 2.059 2.41 3.109 3.589 3.079 3.365 6.537 6.421 9.882 9.375 6.84 6.073 11.227 8.89 13.04 8.332a1.21 1.21 0 0 0 .546-.336l.174.024.077-.513c.881-5.965-4.825-12.549-9.857-18.356l-1.439-1.667c-.509-.6-1.017-1.209-1.528-1.817-3.837-4.586-7.806-9.328-13.013-12.534l-.524-.312c-1.745-1.045-4.606-2.761-6.923-2.741-.793.007-1.521.216-2.118.722-.781.724-1.184 1.587-1.218 2.579-.098 2.787 2.813 5.899 4.214 7.392m-641.826-40.624c3.388 3.629 8.79-1.064 10.818-2.832 2.02-1.769 4.165-3.463 6.24-5.102a212.472 212.472 0 0 0 4.528-3.643c3.521-2.925 6.73-6.264 9.831-9.495l.484-.503c6.978-7.253 10.04-11.817 9.102-13.567-.183-.342-.504-.536-.769-.562a9.907 9.907 0 0 0-1.705-.128c-6.021.052-12.546 5.211-18.364 9.813l-1.809 1.425c-.738.581-1.485 1.159-2.234 1.737-4.932 3.814-10.03 7.759-13.448 13.05l-.17.254c-1.406 2.091-4.699 6.988-2.504 9.553m3.028-20.533 2.657-2.308c4.969-4.309 9.26-8.029 14.314-12.751 2.374-2.218 4.93-4.306 7.403-6.328 3.249-2.656 6.318-5.165 8.903-7.863 4.394-4.562 6.392-9.28 5.785-11.207-.151-.481-.473-.792-.906-.878l-.083-.01c-.257-.008-.514-.01-.77-.007a18.206 18.206 0 0 0-7.473 1.674c-6.039 2.703-10.575 7.111-14.958 11.373-2.657 2.583-5.402 5.251-8.492 7.568l-7.882 7.403c-3.13 2.905-6.314 5.324-9.394 7.664-6.664 5.065-12.96 9.849-18.444 19.009-.456.638-.61 1.269-.439 1.836.302 1 1.47 1.448 2.409 1.808.206.079.399.154.561.227l.164.044c8.561.916 15.443-6.077 21.495-12.249 1.796-1.833 3.491-3.562 5.15-5.005m293.512-112.046c-1.164-1.575-4.358-1.795-4.72-1.816-2.604-.107-14.056-.036-22.884.041-5.674.05-10.261.102-10.731.106-.115.001-.229-.002-.343-.001-7.975.069-8.148 4.188-8.153 4.363l-.001.073.016.068c1.791 7.02 17.264 6.67 29.922 5.141 1.273-.15 2.621-.234 4.047-.324 5.559-.349 11.861-.742 13.192-5.772.171-.692.052-1.342-.345-1.879m-345.905 219.848c46.769-24.008 119.475-28.168 119.475-28.168 92.328-2.609 135.355 18.111 198.268 53.877 51.722 29.453 87.489-13.422 124.39-30.587 139.211-58.867 261.182 0 261.182 0s-116.413-176.301-341.185-175.318c-254.829 1.096-362.13 180.196-362.13 180.196m796.287 84.849c1.888 4.211 3.657 8.577 5.367 12.799 1.365 3.365 2.774 6.844 4.245 10.25 1.528 3.537 2.904 6.093 4.237 8.564 2.167 4.025 4.043 7.506 5.847 13.992-.189.966-1.04 6.562 3.853 8.132 3.359 1.147 6.859-2.06 9.934-4.882 1.296-1.189 2.521-2.314 3.548-2.917a235.117 235.117 0 0 1 12.089-6.556l1.385-.716c4.933-2.542 15.198-7.833 18.911-12.77.385-.5.805-.999 1.232-1.504 2.705-3.204 5.771-6.836 1.853-13.661l-.035-.056c-2.104-2.815-8.21 1.177-16.663 6.711-8.24 5.392-18.495 12.103-27.427 13.808-.252.085-1.778.587-2.422-.712l-26.593-58.92c-.496-1.095-.967-2.281-1.466-3.538-2.352-5.924-5.018-12.641-11.985-14.228l-.089-.02-.088.01c-1.343.156-2.313.775-2.884 1.84-2.76 5.168 4.907 20.123 11.671 33.317 2.111 4.119 4.104 8.007 5.48 11.057m-41.288 127.219C-272.239 92.241-285.812.366-406.497 59.158c-124.428 60.078-157.7 55.163-242.694 30.625-60.342-17.127-105.939-86.997-204.43-20.795-70.211 40.455-118.266 41.665-150.289 40.455-31.987-1.247-55.465-12.06-74.748-22.685-40.077-21.966-64.615-54.444-64.615-54.444s35.086-230.783 241.144-372.867c212.597-146.661 463.079-139.401 660.099-19.964C-67.619-254.653 1.495-92.039 23.878 7.587l.189.795s-64.766 103.519-180.574 93.689" style="fill:#1e298b;fill-opacity:1;fill-rule:nonzero;stroke:none" transform="translate(1155.98 450.378)"/><path d="M0 0c-3.64 2.906-12.761 8.961-19.029 2.508-3.158-7.189 4.121-17.224 12.718-22.434 5.732-3.469 13.292-5.334 17.358-.177C13.538-16.292 8.18-6.534 0 0" style="fill:#1e298b;fill-opacity:1;fill-rule:nonzero;stroke:none" transform="translate(286.377 206.262)"/><path d="M0 0c-12.327 5.143-44.236-5.983-50.904-10.824-4.211-3.086-9.457-6.928-7.415-12.404 2.644-7.022 18.414-5.619 31.117-2.28C-11.004-21.256 5.833-12.491 4.789-5.752 4.377-3.057 2.812-1.176 0 0" style="fill:#1e298b;fill-opacity:1;fill-rule:nonzero;stroke:none" transform="translate(789.76 76.587)"/><path d="M0 0c5.761 6.082 6.79 14.074 2.75 21.381-3.612 6.591-18.116 9.94-28.591 4.465-5.342-2.819-8.838-8.859-9.117-15.764-.261-6.383 2.32-12.1 6.737-14.925C-17.093-10.216-5.789-6.103 0 0" style="fill:#1e298b;fill-opacity:1;fill-rule:nonzero;stroke:none" transform="translate(737.97 108.922)"/></g></svg>