<svg xmlns="http://www.w3.org/2000/svg" width="500.02841mm" height="500mm" viewBox="0 0 500.02841 500"><path d="M329.981 474.646c0 138.062-111.921 249.996-250.003 249.996-138.09 0-250.025-111.934-250.025-249.996 0-138.077 111.934-250.004 250.025-250.004 138.082 0 250.003 111.927 250.003 250.004" style="fill:#2c2967;fill-opacity:1;fill-rule:nonzero;stroke:none;stroke-width:2.58151" transform="translate(170.047 -224.642)"/><path d="M237.994 474.643c0 87.268-70.743 158.012-158.016 158.012-87.284 0-158.028-70.744-158.028-158.012 0-87.27 70.744-158.014 158.028-158.014 87.273 0 158.016 70.744 158.016 158.014" style="fill:#fff;fill-opacity:1;fill-rule:nonzero;stroke:none;stroke-width:2.58151" transform="translate(170.047 -224.642)"/><path d="M319.126 474.646c0 132.078-107.063 239.14-239.138 239.14-132.106 0-239.17-107.062-239.17-239.14 0-132.083 107.064-239.146 239.17-239.146 132.075 0 239.138 107.063 239.138 239.146z" style="fill:none;stroke:#fff;stroke-width:2.98681;stroke-linecap:butt;stroke-linejoin:miter;stroke-miterlimit:4;stroke-dasharray:none;stroke-opacity:1" transform="translate(170.047 -224.642)"/><path d="M76.58 574.375c20.015-74.541-13.615-144.539-13.615-144.539H23.683s40.924 72.77 18.17 144.539z" style="fill:#bfeafb;fill-opacity:1;fill-rule:nonzero;stroke:none;stroke-width:2.58151" transform="translate(170.047 -224.642)"/><path d="M64.39 586.374C93.2 491.51 43.875 413.67 43.875 413.67h-58.368s61.93 86.88 30.302 172.703z" style="fill:#bfeafb;fill-opacity:1;fill-rule:nonzero;stroke:none;stroke-width:2.58151" transform="translate(170.047 -224.642)"/><path d="M51.834 600.286C94.054 487.78 21.77 391.803 21.77 391.803h-70.38s93.753 99.819 44.495 208.483z" style="fill:#bfeafb;fill-opacity:1;fill-rule:nonzero;stroke:none;stroke-width:2.58151" transform="translate(170.047 -224.642)"/><path d="M56.411 586.374c21.7-72.827-1.73-137.249-21.261-172.703h-51.184s60.28 77.293 31.843 172.703z" style="fill:#43b2e9;fill-opacity:1;fill-rule:nonzero;stroke:none;stroke-width:2.58151" transform="translate(170.047 -224.642)"/><path d="M23.683 429.836s40.924 72.77 18.17 144.539h25.844c13.969-60.653-1.706-115.91-15.331-144.539z" style="fill:#43b2e9;fill-opacity:1;fill-rule:nonzero;stroke:none;stroke-width:2.58151" transform="translate(170.047 -224.642)"/><path d="M59.473 574.375c17.621-75.571-13.9-139.146-16.246-144.539H4.925c4.69 8.788 39.283 71 21.36 144.539z" style="fill:#2c2967;fill-opacity:1;fill-rule:nonzero;stroke:none;stroke-width:2.58151" transform="translate(170.047 -224.642)"/><path d="M85.2 574.375c-20.007-74.541 13.605-144.539 13.605-144.539h39.285s-40.935 72.77-18.18 144.539z" style="fill:#bfeafb;fill-opacity:1;fill-rule:nonzero;stroke:none;stroke-width:2.58151" transform="translate(170.047 -224.642)"/><path d="M97.382 586.374c-28.81-94.863 20.526-172.703 20.526-172.703h58.337s-61.92 86.88-30.302 172.703z" style="fill:#bfeafb;fill-opacity:1;fill-rule:nonzero;stroke:none;stroke-width:2.58151" transform="translate(170.047 -224.642)"/><path d="M109.918 600.286C67.728 487.78 140.23 391.803 140.23 391.803h70.124s-93.742 99.819-44.477 208.483z" style="fill:#bfeafb;fill-opacity:1;fill-rule:nonzero;stroke:none;stroke-width:2.58151" transform="translate(170.047 -224.642)"/><path d="M105.354 586.374c-21.685-72.827 1.766-137.249 21.28-172.703h51.152s-60.281 77.293-31.843 172.703z" style="fill:#43b2e9;fill-opacity:1;fill-rule:nonzero;stroke:none;stroke-width:2.58151" transform="translate(170.047 -224.642)"/><path d="M138.09 429.836s-40.935 72.77-18.18 144.539H94.086c-13.999-60.653 1.697-115.91 15.322-144.539z" style="fill:#43b2e9;fill-opacity:1;fill-rule:nonzero;stroke:none;stroke-width:2.58151" transform="translate(170.047 -224.642)"/><path d="M102.29 574.375c-17.62-75.571 13.909-139.146 16.224-144.539h38.333c-4.7 8.788-39.272 71-21.372 144.539z" style="fill:#2c2967;fill-opacity:1;fill-rule:nonzero;stroke:none;stroke-width:2.58151" transform="translate(170.047 -224.642)"/><path d="M81.088 525.38c6.84 0 13.475.643 19.818 1.82v-18.344a107.708 107.708 0 0 1-19.818 1.825c-6.86 0-13.496-.637-19.832-1.825V527.2a108.545 108.545 0 0 1 19.832-1.82" style="fill:#2c2967;fill-opacity:1;fill-rule:nonzero;stroke:none;stroke-width:2.58151" transform="translate(170.047 -224.642)"/><path d="M267.64 513.782a5.098 5.098 0 0 1 5.096-5.104 5.098 5.098 0 0 1 5.094 5.104 5.09 5.09 0 0 1-5.094 5.096 5.09 5.09 0 0 1-5.096-5.096M-116.971 516.324a5.1 5.1 0 0 1 5.096-5.103 5.098 5.098 0 0 1 5.093 5.103 5.09 5.09 0 0 1-5.093 5.096 5.092 5.092 0 0 1-5.096-5.096M-99.546 435.343l-16.354-2.974-2.67 14.683 16.345 2.977-1.24 6.802-35.7-6.5 1.237-6.8 15.363 2.796 2.669-14.684-15.363-2.798 1.247-6.852 35.71 6.493zM-111.041 387.843c-2.907-.235-4.794-.687-4.794-.687l-.045.098s1.577 1.123 3.65 3.183l9.923 9.766 5.114-11.183zm28.032 2.395-10.424-.658-6.01 13.096 7.316 7.468-2.816 6.136-26.82-28.595 2.672-5.85 39.175 1.64zM-72.523 373.082l-28.951-21.9 4.205-5.557 25.619 19.387 7.902-10.43 3.317 2.517zM-51.163 347.254l-24.442-26.822 5.142-4.688 21.633 23.744 9.67-8.813 2.817 3.082zM-24.994 294.516c-2.239-1.88-3.496-3.34-3.496-3.34l-.098.05s.63 1.836 1.13 4.712l2.404 13.702 10.66-6.12zm21.436 18.225-8.105-6.598-12.498 7.187 1.622 10.326-5.853 3.361-5.24-38.854 5.573-3.206 30.953 24.072zM42.432 297.4l-5.705-28.95c-1.962 1.523-6.653 3.359-10.375 4.358l-1.461-3.317c7.45-2.321 11.317-5.612 12.497-8.104l4.603-.906 7.019 35.622zM83.256 260.786c-4.956-.14-7.184 3.857-7.293 7.605-.147 5.646 3.8 7.603 8.6 7.737 2.013.058 4.298-.56 5.573-1.061.307-1.257.444-2.62.493-4.206.155-5.537-2.15-9.928-7.373-10.075m-8.754 33.696-1.425-3.947c4.515-1.087 12.84-4.13 15.972-12.12-1.503.542-3.635 1.064-6 .999-6.487-.186-13.545-2.803-13.3-11.248.166-6.066 5.174-11.366 13.868-11.12 9.495.263 13.45 6.448 13.225 14.41-.451 16.147-16.413 22.138-22.34 23.026M130.826 267.392c-4.8-1.242-7.853 2.168-8.785 5.8-1.415 5.468 2.01 8.248 6.665 9.452 1.944.498 4.298.4 5.661.209.571-1.17 1.012-2.465 1.415-4.001 1.384-5.365.109-10.156-4.956-11.46m-16.021 30.901-.509-4.161c4.652-.052 13.434-1.17 18.254-8.261-1.567.19-3.756.224-6.064-.37-6.283-1.61-12.574-5.74-10.463-13.916 1.513-5.883 7.567-9.931 16-7.757 9.198 2.367 11.671 9.272 9.679 16.986-4.028 15.636-20.91 17.936-26.897 17.48M158.34 313.771c-4.446-2.3-7.296-4.732-9.18-7.068l3.593-2.778c1.18 1.503 3.555 3.687 6.686 5.31 4.074 2.112 9.108 2.043 11.25-2.08 2.158-4.164 1.128-9.63-12.045-14.028l10.375-15.538 18.504 9.593-2.238 4.308-14.379-7.45-5.442 8.413c12.299 4.828 14.823 11.777 11.594 18.011-3.356 6.47-11.601 7.01-18.719 3.307M206.663 349.104c-5.835-5.963-6.382-13.168-1.774-17.662l18.561-18.143 4.828 4.941-18.52 18.11c-2.935 2.87-2.024 6.91.596 9.587 2.613 2.68 6.637 3.624 9.58.746l18.484-18.07 4.456 4.566-18.554 18.148c-4.603 4.495-11.797 3.78-17.657-2.223M239.412 392.985l12.69-27.62a33.139 33.139 0 0 1 2.053-3.815l-.052-.093s-1.75 1.198-3.663 2.308l-20.946 12.161-2.886-4.977 31.391-18.218 3.268 5.61-11.875 26.104c-1.032 2.308-2.073 3.888-2.073 3.888l.059.088s1.668-1.206 3.531-2.295l19.813-11.495 2.912 5.016-31.39 18.225zM247.77 412.757l34.32-11.867 2.268 6.585-34.308 11.86zM257.157 450.462l-.865-5.687 33.857-18.61 1.138 7.401-22.505 11.16c-2.094 1.012-4.577 1.877-4.577 1.877l.022.103s2.622.073 4.928.465l24.844 3.965 1.03 6.735zM-85.342 602.815l31.107-20.148 3.888 6.002-15.678 10.14 3.681 5.684-4.703 3.041-3.671-5.676-10.7 6.923zm-1.472-21.233c1.655 2.561 5.318 3.227 8.302 1.296 3.023-1.954 3.906-5.576 2.256-8.129-1.628-2.512-5.317-3.219-8.343-1.265-2.982 1.929-3.846 5.584-2.215 8.098m8.568-15.313-3.47-5.349 4.658-3.015 5.898 9.12 4.84-3.131 3.945 6.095-4.84 3.131 5.96 9.209-4.654 3.007-3.454-5.344c-.382 3.48-2.238 6.733-5.36 8.746-5.624 3.643-13.289 1.805-17.022-3.962-3.769-5.816-2.276-13.507 3.349-17.152 3.12-2.021 6.812-2.434 10.15-1.355m-14.356 20.448-8.328 5.388 13.889 21.444-4.515 2.92-17.797-27.485 12.84-8.313zM-11.831 678.26l8.235-15.2c-2.236.419-5.881.153-9.245-1.673l-19.968-10.83 8.95-16.508 15.544 8.424 3.702-6.82-15.544-8.427 2.641-4.869 21.881 11.857-8.963 16.512-15.535-8.421-3.762 6.91 13.646 7.402c3.511 1.897 6.134 2.062 9.139 1.864l12.985-23.916 6.381 3.46-8.511 15.685 6.39 3.454-2.642 4.871-6.389-3.456-12.538 23.089zM93.799 673.216l.431 26.256-7.037.17-.274-17.117c-1.856 1.36-5.498 2.863-9.151 2.922l-14.565.235-.53-32.08 18.787-.302.088 5.534-11.749.196.343 21.104 7.538-.118c3.927-.066 6.635-1.162 9.149-2.806l-.441-27.258 7.04-.119.283 17.846 2.884-.051-.284-17.846 6.98-.106.795 49.637-6.967.167-.434-26.315zM190.928 649.117l-15.205-27.369 6.245-3.475 7.29 13.125 5.912-3.279 2.718 4.892-5.909 3.284 5.194 9.348zm-18.063 18.267-2.63-4.75 27.702-15.388 8.067 14.534-6.242 3.464-5.436-9.776zm-1.223-14.655c2.315-1.29 3.09-4.701 1.391-7.755-1.696-3.049-4.995-4.192-7.31-2.904-2.326 1.293-3.096 4.7-1.405 7.752 1.699 3.054 4.995 4.198 7.324 2.907m-14.196-9.229-5.33 2.956-2.69-4.843 9.06-5.031-2.55-4.603 6.28-3.496 2.562 4.603 9.161-5.088 2.688 4.843-5.331 2.966c3.131.73 6.007 2.806 7.695 5.86 3.183 5.716 1.209 13.019-4.504 16.194-5.71 3.175-12.947.984-16.132-4.73-1.694-3.053-1.95-6.587-.909-9.63M251.718 601.956l-15.402-9.753 3.76-5.938 15.403 9.75 2.494-3.933-15.404-9.753 3.771-5.946 15.402 9.753 7.734-12.22 4.634 2.935-22.297 35.204-4.628-2.933zm8.563-19.106c-2.337-2.525-5.713-5.586-9.505-7.982l-11.612-7.352-15.086 23.822-4.634-2.927 18.945-29.915 16.246 10.287c3.366 2.13 7.117 5.948 8.963 8.824z" style="fill:#fff;fill-opacity:1;fill-rule:nonzero;stroke:none;stroke-width:2.58151" transform="translate(170.047 -224.642)"/></svg>