<svg xmlns="http://www.w3.org/2000/svg" viewBox="0 0 138.386 138.384"><path d="M216.355 287.453a69.193 69.193 0 1 0 69.2-69.192 69.27 69.27 0 0 0-69.2 69.192Zm2.036 0a67.158 67.158 0 1 1 67.159 67.161 67.237 67.237 0 0 1-67.159-67.161Z" style="fill:#002870" transform="translate(-216.355 -218.261)"/><path d="M333.369 284.454a2.7 2.7 0 0 0-.283.062c-.109.022-.2.042-.3.065.064.952.1 1.906.1 2.872a47.327 47.327 0 0 1-91.036 18.158c-.152-.105-.318-.208-.458-.324s-.293-.227-.436-.343a47.912 47.912 0 0 0 92.521-17.491c0-1.007-.047-2.006-.1-3ZM285.55 239.532a48 48 0 0 0-46.186 35.168c.106 0 .192.02.286.028s.2.023.3.034a47.306 47.306 0 0 1 85.25-13.111c.15.047.3.085.455.138.133.037.266.079.406.125a47.917 47.917 0 0 0-40.514-22.382Z" style="fill:#002870" transform="translate(-216.355 -218.261)"/><path d="M285.55 241.819a45.607 45.607 0 0 1 37.15 19.186c.289.067.583.137.859.2a46.179 46.179 0 0 0-82.481 13.728c.18.039.379.087.56.125a45.713 45.713 0 0 1 43.913-33.243ZM285.55 333.666a46.265 46.265 0 0 0 46.211-46.213c0-.87-.03-1.734-.072-2.59-.192.048-.386.1-.571.152q.053 1.211.054 2.438a45.623 45.623 0 0 1-86.8 19.652l-.134-.067c-.244-.125-.475-.256-.713-.382a46.27 46.27 0 0 0 42.024 27.01ZM269.414 233.2a1.033 1.033 0 0 0 .583-1.268l-2.54-6.31-2.226.9 2.264 5.631-8.118 3.259-.552-1.389 5.685-2.278-1.7-4.248-7.927 3.184.657 1.639 5.676-2.281.445 1.122-5.668 2.278 1.3 3.217a1.424 1.424 0 0 0 .645.841 1.117 1.117 0 0 0 .9-.047ZM260.44 242.347a1.323 1.323 0 0 0 .647.827 1.221 1.221 0 0 0 .9-.086l9.668-3.888a1.245 1.245 0 0 0 .7-.556 1.345 1.345 0 0 0-.086-1.049l-1.531-3.809-11.838 4.754Zm1.331-3.157 7.361-2.951.757 1.872-7.376 2.956ZM239.3 248.564a3.594 3.594 0 0 0 2.969 1.1 4.381 4.381 0 0 0 2.889-1.309 4.438 4.438 0 0 0 1.37-2.878 3.594 3.594 0 0 0-1.058-2.992 2.7 2.7 0 0 0-.893-.618 3.487 3.487 0 0 0-1.007-.252l.912-.9-1.167-1.2-2.57 2.519-.931-.952-1.833 1.8.929.951-2.559 2.518 1.181 1.193.866-.856a4.451 4.451 0 0 0 .294 1.014 3.3 3.3 0 0 0 .608.862Zm1.17-2.975a2.034 2.034 0 0 1 1.985-1.959 1.94 1.94 0 0 1 1.447.594 2.031 2.031 0 0 1-.04 2.825 1.881 1.881 0 0 1-1.4.574 1.933 1.933 0 0 1-1.407-.608 1.876 1.876 0 0 1-.589-1.426Z" style="fill:#002870" transform="translate(-216.355 -218.261)"/><path d="m248.158 239.19-2.558-2.59-1.723 1.687 8.71 8.86-5.655 5.567-2.247-2.288-1.718 1.7 2.584 2.633a1.448 1.448 0 0 0 .95.518 1.139 1.139 0 0 0 .782-.42l7.625-7.491a.88.88 0 0 0 .007-1.292l-5.5-5.59 1.389-1.37-1.263-1.287ZM290.073 237.674a1.044 1.044 0 0 0 1.047-1.05v-13.576h-5.561v9.639h-5.554v-7.858h4.395v-1.781h-6.826v10.135a1.465 1.465 0 0 0 .293 1.032 1.252 1.252 0 0 0 .875.255h6.818v3.2h1.235a1.051 1.051 0 0 0 1.028-1.05v-11.728h.987v12.782ZM324.669 253.9l8.558-9.055-9.1-8.609-1.228 1.3 7.348 6.945-6.8 7.191-1.567-1.482 3.318-3.527-1.728-1.636-3.33 3.517-1.255-1.179 3.329-3.518-1.733-1.644-3.324 3.518-1.678-1.577-1.215 1.291 9 8.519a1.014 1.014 0 0 0 1.405-.054ZM313.388 231.908l.833-2.134-2.243-.889-3.07 7.786-9.623-3.793-.644 1.66 9.61 3.8-1.646 4.155 1.418.552a1.038 1.038 0 0 0 1.208-.632l3.5-8.846 1.8.717.657-1.658Z" style="fill:#002870" transform="translate(-216.355 -218.261)"/><path d="m310.125 228.706-3.346-1.318.493-1.242-2.4-.945-.482 1.245-3.336-1.316-.612 1.56 1.294.507a3.19 3.19 0 0 0-1.416 1.592c-.721 1.831.449 4 2.594 4.85 2.161.849 4.491.061 5.209-1.764a3.2 3.2 0 0 0 .068-2.129l1.313.517Zm-6.629 3.487a2.044 2.044 0 1 1 2.6-1.169 2.019 2.019 0 0 1-2.596 1.169Z" style="fill:#002870" transform="translate(-216.355 -218.261)"/><path d="M237.671 282.617c4.954.483 4.535 1.989 8.051 5.5 4.708 4.688 9.318 4.939 12.588 2.363a16.4 16.4 0 0 1-5.532-3.445c-3.549-3.342-4.545-7.776-15.062-4.745-.464.139-.35.295-.045.322ZM345.234 275.583c-16.019-7.14-32.389-3.105-45.549 8.666-12.825 11.455-21.6 24.952-38.807 25.245 13.176 4.578 39.149 2.857 53.391-11.385.379-.4.1-.354-.152-.212-8.231 4.991-21.276 7.445-26.9 5.6 14.926-9.654 26.83-26.549 57.953-27.275 1.141-.125 1.1-.176.068-.643ZM259.661 301.87c-2.908.047-5.9-1.589-7.683-2.781-2.575-1.725-4.413-4.231-6.426-6.213-3.287-3.224-8.775-5.623-16.285-2.609-.409.161-.5.355-.086.38 6.892.346 6.656 1.188 12.456 7.615 3.905 4.337 14.337 5.573 18.024 3.608Z" style="fill:#00ada9" transform="translate(-216.355 -218.261)"/><path d="M331.467 267.444c-2.443-1.458-11.619-6.154-20.552-5.228a25.12 25.12 0 0 0-12.713 4.611c-1.921 1.236-3.253 2.163-4.41 3.028-.1.067-.533.4-.667.5a32 32 0 0 1-8.737 4.683c-.647.195-1.228.357-1.69.477 6-7.678 12.462-15.018 20.437-18.135a.247.247 0 0 0-.01-.481c-9.695-2.439-19.851-1.064-27.834 11.218-9.106 13.99-14.544 30.675-27.133 24.639 7.776 7.4 17.38 4.2 25.63-5.8 1.158-1.416 2.318-2.9 3.5-4.406l1.37-1.787a27.081 27.081 0 0 0 8.481-1.941l-2.709 3.728c-9.035 12.379-21.136 27.227-39.1 19.893 20.746 13.806 36.259-6.054 43.982-13.3 9.544-8.962 19.126-20.446 42.18-21.078.518-.016.899-.078-.025-.621Z" style="fill:#005bac" transform="translate(-216.355 -218.261)"/><path d="m234.62 304.015.856 2-3.5 1.488 1.882 4.42 3.5-1.482.844 2-8.829 3.75-.856-2 3.932-1.667-1.879-4.424-3.926 1.674-.847-2.006ZM234.974 325.02l1.281 1.912 5.6-8.836-1.422-2.129-10.35 1.743 1.311 1.963 8.457-1.857ZM244.4 321.479l1.471 1.6-5.941 5.469 3.05 3.326-1.119 1.031-4.525-4.924ZM249.376 326.718l1.661 1.387-5.163 6.208 3.48 2.89-.98 1.174-5.143-4.281ZM252.957 336.494l.165-6.469 2 1.279-.3 4.435 3.957-2.1 2 1.263-6.065 2.888-2.111 3.294-1.826-1.171ZM260.878 335.046l2.682 1.064-.516 7.425.029.009 4.847-5.685 2.768 1.109-3.566 8.912-1.775-.714 2.832-7.077-.026-.015-5.183 6.143-1.806-.724.532-8-.039-.014-2.832 7.084-1.513-.606ZM278.38 340.368l-.531 5.832a2.3 2.3 0 1 0 4.582.42l.534-5.833 2.156.2-.579 6.48c-.207 2.234-2.1 3.09-4.755 2.847s-4.363-1.422-4.164-3.66l.591-6.476ZM286.556 340.993l2.634-.282 5.438 6.694.016-.007-.747-7.182 1.907-.2 1 9.545-2.6.276-5.456-6.575h-.037l.748 7.074-1.907.2ZM297.355 339.494l2.111-.522 2.313 9.311-2.11.525ZM299.839 339.138l2.09-.818 5.924 6.122-.145-8.37 2.092-.813-.228 10.361-2.33.909ZM316.685 332.754l-4.147 2.477 1.276 2.152 3.629-2.162.725 1.208-3.634 2.162 1.354 2.264 4.163-2.478.775 1.308-6.026 3.593-4.915-8.243 6.021-3.594ZM317.008 330.648l3.364-2.813c1.435-1.2 2.966-1.371 3.974-.147 1.131 1.343.8 2.466-.141 3.74l4.762 1.74-1.758 1.468-5.467-2.358c.228-.152.551-.346.715-.474.825-.695 1.244-1.69.519-2.559a1.255 1.255 0 0 0-2-.069l-1.487 1.234 5.247 6.289-1.588 1.322ZM328.91 330.391a6.426 6.426 0 0 0 2.166-1.5c.459-.5.826-1.306.221-1.843-1.017-.923-4.61 1.14-6.305-.378-.924-.821-1.206-2.256.355-3.991a10.545 10.545 0 0 1 1.718-1.536l1.387.964a6.184 6.184 0 0 0-1.652 1.223c-.722.817-.572 1.529-.247 1.819 1.129 1.013 4.523-1.219 6.255.334.845.746 1.347 2.258-.322 4.125a12.638 12.638 0 0 1-2.1 1.788ZM328.17 319.522l1.273-1.766 7.778 5.628-1.278 1.761ZM329.93 317.306l4.017-7.059 1.323.749-1.473 2.587 7.016 4-1.076 1.891-7.012-4-1.477 2.584Z" style="fill:#002870" transform="translate(-216.355 -218.261)"/><path d="m339.976 309.95-6.371 1.091.866-2.211 4.4-.566-2.815-3.48.856-2.2 4.01 5.4 3.633 1.416-.8 2.025Z" style="fill:#002870" transform="translate(-216.355 -218.261)"/></svg>