<svg xmlns="http://www.w3.org/2000/svg" width="156.28284mm" height="156.28282mm" viewBox="0 0 156.28284 156.28282"><path d="M127.746 71.613c-18.325 0-33.231 14.91-33.231 33.236 0 18.324 14.906 33.231 33.231 33.231 18.327 0 33.236-14.907 33.236-33.231 0-18.325-14.91-33.236-33.236-33.236zm0 56.904c-13.052 0-23.667-10.618-23.667-23.668 0-13.053 10.615-23.672 23.667-23.672 13.053 0 23.672 10.619 23.672 23.672 0 13.05-10.619 23.668-23.672 23.668" style="fill:#002b6e;fill-opacity:1;fill-rule:nonzero;stroke:none;stroke-width:.352778" transform="matrix(2.35129 0 0 2.35129 -222.232 -168.383)"/><path d="m108.323 81.286 2.008 2.082.547-.526-1.484-1.538.59-.57-.527-.545-1.134 1.097M108.006 85.963l-.544.525 1.127 1.166 3.974-3.835-.526-.545-3.43 3.313-.601-.624M106.71 85.231c.5.522 1.336.537 1.854.033a1.31 1.31 0 0 0-.938-2.253l.595-.575-.526-.544-.949.914-.559-.58-.546.527.561.58-.925.892.527.544.543-.522c-.02.351.099.711.364.984zm1.348-.49a.582.582 0 1 1-.806-.838.582.582 0 0 1 .806.837M120.186 77.922l-2.279.88-.252-.658 1.85-.714-.275-.707-3.635 1.408-.26-.67 3.575-1.383-.272-.708-4.327 1.674.806 2.08 1.83-.705.255.658-2.366.915.27.704 1.645-.635c-.157.365-.18.788-.025 1.186a1.57 1.57 0 1 0 2.926-1.133 1.545 1.545 0 0 0-.815-.86l1.622-.628zm-1.723 3.457a.75.75 0 1 1-.547-1.396.75.75 0 0 1 .547 1.396M147.736 81.328l-.526.543 2.52 2.444-1.899 1.958-.862-.838.886-.914-.545-.526-.886.914-.468-.454.887-.915-.544-.528-.886.915-.827-.802-.526.543 3.784 3.673 2.957-3.042-3.065-2.97M128.262 74.294v2.899h-2.164V75.05h1.422v-.756h-2.177v3.657h2.919v1.5h.755v-4.4h.71v4.4h.752v-5.157h-2.217M140.931 77.281l-1.438 3.176-3.954-1.791-.313.69 3.957 1.79-.365.804.687.311 1.801-3.978.749.339.312-.69-1.436-.65" style="fill:#fff;fill-opacity:1;fill-rule:nonzero;stroke:none;stroke-width:.352778" transform="matrix(2.35129 0 0 2.35129 -222.232 -168.383)"/><path d="M136.715 77.26a1.313 1.313 0 0 0 2.39 1.084c.158-.348.15-.727.013-1.052l.754.34.311-.688-1.199-.543.331-.735-.69-.311-.331.733-1.171-.53-.313.69.687.311a1.315 1.315 0 0 0-.782.701zm.956 1.071a.58.58 0 0 1-.29-.767.58.58 0 1 1 1.058.478.58.58 0 0 1-.768.29" style="fill:#fff;fill-opacity:1;fill-rule:nonzero;stroke:none;stroke-width:.352778" transform="matrix(2.35129 0 0 2.35129 -222.232 -168.383)"/><g style="fill:#fff;fill-opacity:1"><path d="M5.172 8.625.5 8.281l.063-.797c.03-.421-.125-.796-.485-.812-.36-.031-.594.328-.625.734L-.75 10.11c-.031.407.156.766.516.797.359.016.562-.297.593-.719l.047-.671 10.016.75-.016.28c-.031.407.14.735.516.767.375.03.562-.282.594-.688l.171-2.313c.032-.421-.109-.796-.484-.828-.375-.03-.594.344-.625.75l-.062.797L6.28 8.72l.36-4.75 4.234.312-.063.813c-.03.406.126.75.5.781.376.031.579-.281.61-.703l.172-2.313c.031-.406-.125-.765-.5-.796-.375-.032-.578.312-.61.718l-.015.25-10.016-.75.047-.64C1.031 1.219.86.859.5.844c-.36-.031-.578.312-.61.719l-.203 2.703c-.03.406.141.765.5.796.36.016.579-.296.61-.718l.062-.813 4.672.344Zm0 0" style="stroke:none" transform="translate(6.218 67.483) scale(.82948)"/></g><g style="fill:#fff;fill-opacity:1"><path d="M4.656 7.734 1.86 8.97 1.766 7.78c-.032-.406-.25-.734-.61-.703-.36.031-.531.39-.5.797l.25 3.016c.031.406.266.734.625.703.36-.031.516-.36.485-.797l-.047-.516 10.797-4.719-.344-4.14c-.031-.406-.235-.734-.61-.703-.359.031-.515.406-.484.797L11.5 3.53 1.203 1.016 1.172.609C1.14.203.922-.14.562-.109c-.359.03-.53.421-.5.812L.297 3.61c.031.407.266.735.625.704.36-.032.515-.375.484-.797l-.11-1.266 2.97.734Zm1.094-.343-.328-4.11 6.172 1.516v-.094L5.75 7.266Zm0 0" style="stroke:none" transform="translate(5.49 79.36) scale(.82948)"/></g><g style="fill:#fff;fill-opacity:1"><path d="m2.328 9.656 10.844-2.61.11.454c.093.39.359.656.718.563.36-.079.453-.438.36-.829l-.688-2.828c-.094-.437-.36-.718-.719-.64-.36.093-.453.5-.36.906l.282 1.172-9.11 2.187.047.188L12.656.188l-.515-2.141c-.094-.39-.344-.688-.704-.61-.359.094-.468.485-.374.876l.187.796-9.766 2.344-.093-.406C1.297.64 1.03.344.687.437.344.516.22.922.313 1.313L1 4.126c.094.406.375.688.719.61.343-.094.453-.454.36-.876L1.78 2.672l9.11-2.188-.047-.203L2 8.312Zm0 0" style="stroke:none" transform="translate(6.46 90.168) scale(.82948)"/></g><g style="fill:#fff;fill-opacity:1"><path d="m1.766 1.36-.22-.532C1.392.453 1.079.188.75.328S.36.875.516 1.25l1.64 3.953c.953 2.328 4.016 3.375 6.906 2.203l1.11-.453c2.86-1.234 4.297-4.14 3.312-6.453l-1.64-3.953c-.156-.375-.438-.64-.781-.5-.36.156-.407.547-.25.922l.171.39L1.72 1.22Zm.437 1.03 9.266-3.859.969 2.36c.859 1.656-.376 3.796-2.579 4.812l-1.437.594c-2.11.844-4.563.203-5.203-1.438Zm0 0" style="stroke:none" transform="translate(9.31 101.468) scale(.82948)"/></g><g style="fill:#fff;fill-opacity:1"><path d="M13.75-1.625C12.266-4.031 8.64-4.5 5.547-2.578 2.5-.672 1.328 2.797 2.78 5.125c1.453 2.344 5.078 2.797 8.14.89 3.032-1.89 4.25-5.359 2.829-7.64Zm-1.016.5c1.172 1.875.032 4.5-2.5 6.063-2.468 1.546-5.359 1.437-6.5-.407-1.14-1.828.016-4.484 2.5-6.031 2.47-1.531 5.391-1.422 6.5.375zm0 0" style="stroke:none" transform="translate(13.72 111.884) scale(.82948)"/></g><g style="fill:#fff;fill-opacity:1"><path d="m6.578 7.453 8.36-7.39.296.328c.266.312.625.437.907.203.28-.25.187-.625-.079-.938l-1.921-2.172c-.282-.328-.641-.453-.922-.203-.281.235-.172.64.094.938l.796.906-7.03 6.219.14.14 4.062-11.25-1.469-1.64c-.265-.313-.624-.453-.906-.203-.281.234-.187.625.078.937l.547.61L2 .593 1.719.266C1.453-.031 1.062-.172.797.062.53.297.625.72.89 1l1.921 2.188c.266.296.657.421.922.187.266-.234.188-.61-.093-.922l-.813-.922L9.86-4.672l-.14-.156L5.656 6.406Zm0 0" style="stroke:none" transform="translate(20.347 122.256) scale(.82948)"/></g><g style="fill:#fff;fill-opacity:1"><path d="m10.719 2.953.14.11c.313.25.72.343.954.046.218-.265.093-.64-.25-.906L8.655-.172c-.328-.266-.719-.36-.953-.062-.234.296-.078.656.25.921l1.89 1.547-1.937 2.391c-1.015-.219-1.578-.484-2.343-1.11-2.141-1.734-2.25-4.015-.454-6.25l.985-1.203c.765-.937 1.984-1.671 3.156-1.812 1.047-.14 1.844.063 2.688.734 1.28 1.047 1.718 2.438 1.124 3.297-.25.36-.156.688.079.89.265.204.656.204.921-.14l1.235-1.515c.281-.344.203-.704-.078-.907-.25-.218-.625-.234-.907.11l.063-.063c-.172-.812-.828-1.797-1.781-2.578-2.14-1.734-5.485-1.266-7.485 1.188l-.984 1.203c-2.172 2.687-1.828 5.828.672 7.86.984.812 2.219 1.343 3.734 1.53l2.297-2.828Zm0 0" style="stroke:none" transform="translate(28.19 130.985) scale(.82948)"/></g><g style="fill:#fff;fill-opacity:1"><path d="m11.125.125.156.063c.375.171.781.171.938-.172.14-.313-.094-.641-.485-.829L8.313-2.359c-.376-.172-.766-.157-.922.187-.157.344.093.64.468.813l2.22 1.015L8.811 2.47c-1.03.031-1.656-.078-2.546-.485C3.75.86 3.078-1.344 4.25-3.953l.64-1.422c.5-1.094 1.485-2.094 2.61-2.531.969-.407 1.781-.407 2.766.031 1.515.688 2.28 1.906 1.921 2.89-.14.423.047.704.329.844.296.125.656.032.843-.359l.797-1.781c.188-.422.031-.719-.281-.86-.297-.14-.688-.078-.875.344l.047-.094c-.375-.734-1.235-1.53-2.36-2.03-2.515-1.142-5.64.155-6.953 3.03l-.64 1.422c-1.422 3.157-.281 6.11 2.64 7.438 1.172.531 2.485.734 4 .531l1.5-3.328zm0 0" style="stroke:none" transform="translate(43.34 141.99) scale(.82948)"/></g><g style="fill:#fff;fill-opacity:1"><path d="m7.375-9.516 1.703.485c.39.11.75.015.86-.344.093-.36-.172-.625-.563-.734l-4.36-1.235c-.39-.11-.78-.031-.874.328-.11.36.187.641.578.75l1.562.454L3.547-.142 1.984-.594c-.39-.11-.78-.031-.875.313-.093.344.188.64.579.75l8.624 2.437 1.204-4.25c.109-.422-.094-.734-.407-.828-.312-.078-.703.063-.812.485L9.39 1.5 4.75.187l2.734-9.671Zm0 0" style="stroke:none" transform="translate(54.527 146.834) scale(.82948)"/></g><g style="fill:#fff;fill-opacity:1"><path d="M7.406-11.703c-2.812-.36-5.437 2.156-5.89 5.765-.454 3.563 1.484 6.672 4.203 7 2.75.36 5.39-2.171 5.843-5.75.438-3.53-1.484-6.671-4.156-7.015Zm-.25 1.11c2.188.28 3.5 2.812 3.14 5.765C9.923-1.922 8.017.234 5.86-.047c-2.14-.266-3.468-2.828-3.093-5.75.359-2.875 2.28-5.062 4.39-4.797zm0 0" style="stroke:none" transform="translate(63.654 149.407) scale(.82948)"/></g><g style="fill:#fff;fill-opacity:1"><path d="m2.281-1.188-.953.032c-.406.015-.766.218-.75.578.016.36.375.547.781.531l5.938-.172c1.828-.062 3.375-1.64 3.312-3.5-.03-1.406-1-2.437-2.484-2.984 1.031-.766 1.531-1.578 1.5-2.656-.063-1.829-1.688-3.157-3.625-3.11l-5.016.156c-.406.016-.765.204-.75.579.016.375.375.546.782.53l.812-.015.313 10.047zm.922-5.828-.125-4.25 2.969-.093c1.344-.032 2.281.859 2.312 2.03.047 1.267-.921 2.188-2.515 2.235Zm.188 5.797L3.25-5.906l2.688-.078c1.156-.032 1.671.093 2.296.453.704.437 1.094 1.125 1.11 1.86.047 1.265-.813 2.296-2.125 2.343zm0 0" style="stroke:none" transform="translate(75.786 150.755) scale(.82948)"/></g><g style="fill:#fff;fill-opacity:1"><path d="m7.266-5.36 1.5 2.673-1.172.218c-.39.063-.703.313-.64.672.062.344.437.484.827.422l2.969-.531c.406-.078.719-.344.656-.688-.062-.36-.406-.484-.844-.406l-.5.094-5.718-10.328L.28-12.5c-.422.063-.734.297-.672.672.063.36.454.484.86.422l1.984-.36L.906-1.28.5-1.22c-.39.078-.719.328-.656.688.062.344.469.484.844.406l2.875-.516c.406-.062.718-.328.656-.671-.063-.36-.422-.485-.844-.422L2.141-1.5l.437-3.016zm-.438-1.062-4.062.719.921-6.281-.093.015 3.11 5.578zm0 0" style="stroke:none" transform="translate(86.164 150.354) scale(.82948)"/></g><g style="fill:#fff;fill-opacity:1"><path d="m.86-12 1.671-.547c.39-.125.64-.406.531-.75-.124-.36-.484-.437-.874-.312l-4.297 1.39c-.391.125-.688.422-.563.781.11.344.516.407.906.282l1.532-.5L2.859-2.11l-1.53.5c-.391.125-.673.437-.563.78.109.345.515.407.906.282l8.531-2.75L8.843-7.5c-.14-.422-.484-.563-.796-.453-.313.094-.547.422-.406.844l1.015 3.14-4.594 1.485L.97-12.031Zm0 0" style="stroke:none" transform="translate(96.674 148.356) scale(.82948)"/></g><g style="fill:#fff;fill-opacity:1"><path d="m2.844-14.547.484-.281c.36-.219.547-.547.36-.875-.188-.313-.532-.313-.907-.094l-2.5 1.453c-.36.203-.578.531-.39.844.187.328.578.328.937.125l1.031-.61 3.563 6.11c.937 1.625.656 3.453-.781 4.297-1.422.828-3.172.172-4.11-1.453l-3.562-6.11 1.062-.609c.344-.203.532-.547.344-.875-.188-.313-.547-.297-.89-.094l-2.5 1.453c-.376.204-.594.532-.407.844.188.328.578.328.953.125l.344-.203 3.563 6.11C.702-2.204 3.25-1.5 5.202-2.626 7.141-3.75 7.781-6.313 6.516-8.5l-3.563-6.11zm0 0" style="stroke:none" transform="translate(110.094 143.45) scale(.82948)"/></g><g style="fill:#fff;fill-opacity:1"><path d="m7.672-6.328-7.094-8.61.344-.28c.312-.266.437-.61.203-.907-.25-.281-.61-.219-.922.047l-2.25 1.844c-.328.28-.484.64-.234.921.234.297.64.204.953-.062l.937-.766 5.954 7.235.156-.125-11.094-4.453-1.703 1.406c-.313.265-.484.625-.234.906.234.297.64.219.953-.047l.625-.515 6.39 7.75-.328.265c-.312.266-.469.625-.234.906.234.282.64.204.937-.046l2.25-1.844c.313-.266.453-.64.219-.922-.234-.281-.594-.203-.922.063l-.953.78-5.969-7.234-.156.125L6.594-5.437Zm0 0" style="stroke:none" transform="translate(120.299 137.377) scale(.82948)"/></g><g style="fill:#fff;fill-opacity:1"><path d="m-3.672-12.266 1.797-1.875c.281-.296.39-.703.125-.953-.266-.265-.625-.14-.922.172l-4.297 4.453c-.281.297-.39.688-.125.953.266.25.64.125.922-.171l1.703-1.766L2.781-4.5 1.078-2.734c-.281.296-.39.687-.125.937.266.25.64.125.922-.172l4.297-4.453c.281-.297.39-.703.125-.953-.266-.25-.625-.125-.922.188l-1.719 1.78-7.25-6.952zm0 0" style="stroke:none" transform="translate(128.85 130.027) scale(.82948)"/></g><g style="fill:#fff;fill-opacity:1"><path d="m3.125-4.047.813-1.062-6.36-10.032.235-.328c.28-.344.328-.719.03-.953-.296-.219-.624-.062-.905.281l-1.766 2.313c-.25.312-.313.703-.016.922.297.234.64.062.89-.25l.767-1L2.468-5.22l.156-.203-9.984-3.312.734-.954c.25-.328.313-.703.016-.937-.297-.219-.641-.063-.891.266l-1.797 2.312c-.234.328-.312.719-.015.938.296.234.656.062.89-.266l.25-.313L3.047-3.953zm0 0" style="stroke:none" transform="translate(132.686 126.146) scale(.82948)"/></g><g style="fill:#fff;fill-opacity:1"><path d="m-3.406-5.734 1.219-2.157.75.422c.375.203.734.078.89-.218.172-.297.11-.641-.281-.86l-2.438-1.39c-.406-.235-.75-.11-.921.187-.157.297-.094.656.312.89l.734.422-1.171 2.063-3.704-2.11 2.579-4.546 1.734.984c.39.235.765.078.922-.219.172-.28.094-.64-.297-.875l-2.703-1.53L-10-7.25c-.203.36-.219.766.11.953.328.188.656-.047.859-.406l.406-.703L.109-2.438l-.406.704c-.203.359-.203.765.11.937.312.188.656-.031.859-.39L5.094-8.97l-3.078-1.75c-.391-.219-.75-.062-.907.219-.156.281-.109.656.282.875L3.5-8.422.719-3.516-3.36-5.828zm0 0" style="stroke:none" transform="translate(139.113 117.613) scale(.82948)"/></g><g style="fill:#fff;fill-opacity:1"><path d="m-3.766-5.047.891-2.266C-1.641-8.39-.344-8.655 3.531-8.983l.453-1.157c.157-.375.094-.765-.25-.89-.328-.14-.625.094-.78.484l-.157.422c-3.188.36-4.219.563-5.453 1.313.031-1.75-.64-3.094-1.953-3.61-1.72-.672-3.829.375-4.532 2.172l-1.765 4.5c-.156.375-.125.781.219.906.343.14.656-.125.812-.5l.297-.75 9.344 3.672-.297.75c-.156.375-.11.781.219.922.343.125.656-.14.812-.516l1.203-3.062c.156-.39.094-.781-.25-.906-.328-.141-.625.109-.781.5l-.453 1.14-3.953-1.562Zm-1-.516-4.359-1.703 1-2.546c.5-1.266 1.938-1.891 3.063-1.454 1.203.485 1.703 2.141 1.03 3.844zm0 0" style="stroke:none" transform="translate(143.932 109) scale(.82948)"/></g><g style="fill:#fff;fill-opacity:1"><path d="M-9.031-11.078c-.938.562-1.516 1.437-1.766 2.484-.5 2.031.531 4.031 2.422 4.5.938.219 1.875 0 2.516-.5.625-.484 1.062-1.218 1.656-2.453.547-1.297.734-1.531 1.156-1.906.485-.406 1.156-.516 1.844-.344C.25-8.937 1.047-7.562.64-5.844c-.407 1.657-1.688 2.61-3.032 2.375-.421-.062-.671.156-.75.453-.078.313.079.672.532.782l2.296.562c.454.11.75-.14.829-.453.078-.313-.079-.672-.532-.781l-.062-.016c.765-.406 1.5-1.469 1.797-2.672.562-2.343-.5-4.484-2.563-5-1.11-.265-2.14.016-2.844.64-.53.47-.859 1.048-1.5 2.438-.484 1.11-.75 1.485-1.203 1.844-.437.36-1.015.453-1.625.297-1.343-.328-2.03-1.531-1.671-3.031.343-1.422 1.437-2.172 2.656-1.969.422.078.687-.172.75-.453.078-.328-.078-.656-.516-.766l-2.14-.531c-.422-.094-.735.125-.813.453-.078.313.094.656.516.75h-.047Zm0 0" style="stroke:none" transform="translate(147.667 99.133) scale(.82948)"/></g><g style="fill:#fff;fill-opacity:1"><path d="m-10.14-7.844.359-2.562c.062-.406-.078-.797-.438-.844-.375-.063-.594.25-.656.688l-.875 6.124c-.063.407.063.766.438.829.359.046.593-.266.656-.672l.344-2.438L-.36-5.28l-.344 2.437c-.063.406.078.781.422.828.36.047.61-.265.672-.671l.875-6.126c.062-.406-.094-.796-.454-.843-.343-.047-.578.25-.64.687L-.172-6.53l-9.953-1.438zm0 0" style="stroke:none" transform="translate(149.586 90.769) scale(.82948)"/></g><g style="fill:#fff;fill-opacity:1"><path d="m-.89-6.484-10.047-.36.093-2.75 1.438.047c.422.016.734-.312.75-.625.015-.328-.203-.61-.703-.64l-2.547-.079-.313 9.313 2.547.078c.485.016.719-.281.735-.61.015-.328-.22-.64-.704-.656l-1.437-.046.11-2.766 10.046.36-.062 1.78c-.016.422.156.766.515.782.36.015.578-.344.594-.75L.281-8.25c.016-.406-.172-.766-.531-.781-.36-.016-.563.312-.578.75zm0 0" style="stroke:none" transform="translate(150.443 85.383) scale(.82948)"/></g><g style="fill:#fff;fill-opacity:1"><path d="m-6.188-5.797-5.984-2.719-.031-.343c-.047-.36-.297-.704-.625-.672-.344.047-.516.422-.469.797l.235 2.14c.046.422.265.766.64.719.36-.047.5-.438.453-.844l-.047-.5 4.672 2.14-4.093 3.11-.063-.453c-.031-.39-.266-.734-.625-.687-.375.046-.516.39-.469.812l.235 2.14c.046.391.265.735.64.688.36-.047.5-.422.453-.812l-.03-.313 5.202-3.984 4.407-.484.203 1.796c.047.407.265.72.625.688.359-.047.53-.406.484-.813L-.906-8.25c-.047-.406-.281-.719-.64-.672-.36.031-.516.39-.47.797l.204 1.813-4.407.484zm0 0" style="stroke:none" transform="translate(150.713 74.771) scale(.82948)"/></g><path d="M102.957 93.083a1.077 1.077 0 1 1-2.153.002 1.077 1.077 0 0 1 2.153-.002M154.51 93.083a1.076 1.076 0 1 1-2.15 0c0-.592.48-1.076 1.076-1.076.592 0 1.073.484 1.073 1.076" style="fill:#fff;fill-opacity:1;fill-rule:nonzero;stroke:none;stroke-width:.352778" transform="matrix(2.35129 0 0 2.35129 -222.232 -168.383)"/><path d="M112.678 99.439h.497c.436 0 .78.106 1.032.326.252.22.42.47.502.76.085.286.127 1.012.127 2.166v13.358c0 1.14-.042 1.84-.127 2.109-.11.375-.255.645-.447.802-.278.233-.635.344-1.087.344h-.497v.553h7.821v-.553h-.51c-.42 0-.756-.104-1.007-.322a1.548 1.548 0 0 1-.508-.76c-.093-.29-.134-1.01-.134-2.173v-13.358c0-1.133.041-1.834.123-2.099.118-.379.271-.648.461-.806.272-.233.631-.347 1.064-.347h.511v-.556h-7.821v.556M127.24 119.304a.86.86 0 0 1-.702-.322 1.756 1.756 0 0 1-.349-.76c-.058-.29-.084-1.01-.084-2.173v-6.103c-1.137-.398-2.01-4.429-2.541-5.015v11.118c0 1.14-.034 1.84-.088 2.109-.079.375-.183.645-.317.802-.178.233-.422.344-.732.344h-.34v.553h5.49v-.553h-.338" style="fill:#025c99;fill-opacity:1;fill-rule:nonzero;stroke:none;stroke-width:.352778" transform="matrix(2.35129 0 0 2.35129 -222.232 -168.383)"/><path d="M122.238 108.815c0 .754-.61 1.359-1.361 1.359s-1.36-.605-1.36-1.36a1.36 1.36 0 0 1 2.721 0M129.968 112.735c.01.356.033 1.013.034 1.1.078 1.235.268 2.259.566 3.072.402 1.087 1.092 1.981 2.075 2.684.72.513 1.734.766 3.054.766 1.567 0 2.9-.459 3.811-1.433.917-.966 1.403-2.056 1.636-3.214.232-1.154.353-3.027.353-5.637v-7.211c0-.918.048-1.55.145-1.903.125-.509.326-.887.605-1.146.285-.252.638-.374 1.066-.374h.316v-.556h-5.59v.556c.593 0 1.062.122 1.39.374.216.171.39.465.526.896.145.433.215 1.145.215 2.153v7.84c0 2.357-.138 4.004-.425 4.955-.286.95-.624 1.757-1.193 2.294-.576.54-1.024.706-1.858.75a2.334 2.334 0 0 1-1.747-.64 3.643 3.643 0 0 1-1.003-1.604c-.203-.64-.305-1.954-.305-3.937v-9.658c0-1.28.049-2.081.144-2.4.095-.318.245-.567.463-.75.22-.184.624-.273 1.215-.273h.394v-.556H128v.556c.634-.011 1.075.075 1.313.266.237.187.405.436.506.746.097.315.14 1.118.14 2.41v8.539" style="fill:#025c99;fill-opacity:1;fill-rule:nonzero;stroke:none;stroke-width:.352778" transform="matrix(2.35129 0 0 2.35129 -222.232 -168.383)"/><path d="M131.845 108.62c0 4.624-4 4.303-4 4.303-3.333 0-6.46-4.83-6.46-12.45 0-6.46 2.548-12.243 6.834-12.243 1.138 0 1.783.307 2.72 1.088.203.171.46.342.68.342.341 0 .664-.305.849-1.43h.409v7.926h-.41c-.526-3.13-2.106-6.736-3.876-6.736-2.803 0-3.3 5.532-3.3 10.36 0 5.883.649 11.6 3.266 11.6 1.41 0 1.41-2.064 1.41-4.58" style="fill:#025c99;fill-opacity:1;fill-rule:nonzero;stroke:none;stroke-width:.352778" transform="matrix(2.35129 0 0 2.35129 -222.232 -168.383)"/></svg>