<svg xmlns="http://www.w3.org/2000/svg" width="166.73914mm" height="166.73827mm" viewBox="0 0 166.73914 166.73827"><path d="M132.623 174.2c11.958 0 21.652-9.695 21.652-21.653 0-11.958-9.694-21.652-21.652-21.652s-21.653 9.694-21.653 21.652 9.695 21.652 21.653 21.652z" style="fill:none;stroke:#323465;stroke-width:1.11125;stroke-linecap:butt;stroke-linejoin:miter;stroke-miterlimit:4;stroke-dasharray:none;stroke-opacity:1" transform="matrix(2.48434 0 0 2.48434 -246.11 -295.61)"/><path d="M132.623 185.55c18.226 0 33.002-14.776 33.002-33.003 0-18.226-14.776-33.002-33.002-33.002-18.227 0-33.003 14.776-33.003 33.002 0 18.227 14.776 33.002 33.003 33.002z" style="fill:none;stroke:#323465;stroke-width:1.11125;stroke-linecap:butt;stroke-linejoin:miter;stroke-miterlimit:4;stroke-dasharray:none;stroke-opacity:1" transform="matrix(2.48434 0 0 2.48434 -246.11 -295.61)"/><path d="m125.688 150.954.002-4.13h-4.575l-.003 4.13h4.575M134.856 141.548V134.9h-4.575v6.648h4.575M130.275 146.815v-5.258H125.7v5.258h4.575M139.442 146.814v-5.257h-4.58v5.257h4.58M144.029 150.952v-4.127h-4.582v4.127h4.582" style="fill:#a54f49;fill-opacity:1;fill-rule:nonzero;stroke:none;stroke-width:.0352778" transform="matrix(2.48434 0 0 2.48434 -246.11 -295.61)"/><path d="m126.638 168.539.09.021c.604.144.833-.102.898-.315l.515.123-.69 2.89-.626-.149.475-1.991-.756-.18.094-.4M129.993 170.78v.004c.004.209.132.317.327.348.264.041.559-.12.66-.736l-.009-.01c-.176.176-.434.186-.652.152-.618-.096-.911-.578-.835-1.07.112-.72.632-.982 1.264-.883 1.118.173.966 1.272.902 1.686-.177 1.137-.825 1.413-1.407 1.323-.55-.086-.9-.437-.882-.912zm.521-.603c.22.048.494-.043.568-.387.072-.331-.042-.57-.365-.64-.162-.034-.47-.024-.56.394-.094.438.119.582.357.633M133.943 169.922a.955.955 0 0 1 .563-.225c.435-.047 1.014.168 1.087.846.044.404-.11 1.086-1.065 1.19-.508.054-1.054-.165-1.15-.756l.64-.07c.053.239.212.386.496.355.306-.033.46-.29.425-.606-.029-.262-.194-.513-.533-.477-.087.01-.306.038-.407.26l-.574.036.048-1.647 1.784-.193.053.49-1.322.144-.045.653M138.31 168.702c-.072-.152-.223-.225-.45-.147-.395.135-.346.578-.244.95l.011.005c.048-.132.156-.314.5-.431.64-.218 1.097.126 1.24.545.21.615-.063 1.167-.66 1.37-.937.32-1.362-.331-1.601-1.032-.183-.535-.424-1.5.647-1.866.126-.043.494-.12.694-.033.22.093.31.156.468.433zm-.141.857c-.23.079-.421.29-.301.642.104.306.37.458.662.359.221-.076.373-.3.244-.68-.121-.357-.413-.386-.605-.32M121.103 152.783h1.757l.002 2.12h3.824l.003-2.13h1.746v5.736l4.135-7.638 4.136 7.617v-5.715h1.902l3.673 3.904v-3.904h1.751v5.756h-1.891l-3.684-3.925v3.925h-3.672l-2.212-4.164-2.201 4.164h-3.694v-2.345h-3.824v2.345h-1.75v-5.746" style="fill:#323465;fill-opacity:1;fill-rule:nonzero;stroke:none;stroke-width:.0352778" transform="matrix(2.48434 0 0 2.48434 -246.11 -295.61)"/><path d="M121.108 159.656h1.902l3.673 3.91v-3.91h1.751v5.726l4.136-7.658 4.131 7.638v-5.711h2.138l1.52 3.87 1.555-3.87h2.145v5.748l-1.685.002v-3.706l-1.306 3.259h-1.393l-1.296-3.248v3.695h-3.59l-2.219-4.176-2.214 4.176h-3.814l-3.683-3.914v3.914h-1.751v-5.746" style="fill:#323465;fill-opacity:1;fill-rule:nonzero;stroke:none;stroke-width:.0352778" transform="matrix(2.48434 0 0 2.48434 -246.11 -295.61)"/><text style="font-variant:normal;font-weight:700;font-size:25.2703px;font-family:Helvetica;writing-mode:lr-tb;fill:#323465;fill-opacity:1;fill-rule:nonzero;stroke:none" transform="matrix(.2211 .85306 -.77551 .201 8.773 94.25)"><tspan x="0" y="0">H</tspan></text><text style="font-variant:normal;font-weight:700;font-size:24.9703px;font-family:Helvetica;writing-mode:lr-tb;fill:#323465;fill-opacity:1;fill-rule:nonzero;stroke:none" transform="matrix(.39616 .799 -.72637 .36014 13.352 110.729)"><tspan x="0" y="0">a</tspan></text><text style="font-variant:normal;font-weight:700;font-size:24.5968px;font-family:Helvetica;writing-mode:lr-tb;fill:#323465;fill-opacity:1;fill-rule:nonzero;stroke:none" transform="matrix(.5454 .72268 -.65698 .49583 19.26 122.588)"><tspan x="0" y="0">n</tspan></text><text style="font-variant:normal;font-weight:700;font-size:24.4096px;font-family:Helvetica;writing-mode:lr-tb;fill:#323465;fill-opacity:1;fill-rule:nonzero;stroke:none" transform="matrix(.67996 .60825 -.55296 .61815 28.097 134.142)"><tspan x="0" y="0">n</tspan></text><text style="font-variant:normal;font-weight:700;font-size:24.8116px;font-family:Helvetica;writing-mode:lr-tb;fill:#323465;fill-opacity:1;fill-rule:nonzero;stroke:none" transform="matrix(.76786 .46475 -.4225 .69805 38.954 143.673)"><tspan x="0" y="0">a</tspan></text><text style="font-variant:normal;font-weight:700;font-size:25.2058px;font-family:Helvetica;writing-mode:lr-tb;fill:#323465;fill-opacity:1;fill-rule:nonzero;stroke:none" transform="matrix(.8419 .26788 -.24353 .76537 50.653 151.069)"><tspan x="0" y="0">m</tspan></text><text style="font-variant:normal;font-weight:700;font-size:25.4067px;font-family:Helvetica;writing-mode:lr-tb;fill:#323465;fill-opacity:1;fill-rule:nonzero;stroke:none" transform="matrix(.876 -.0298 .0271 .79637 77.136 157.78)"><tspan x="0" y="0">U</tspan></text><text style="font-variant:normal;font-weight:700;font-size:25.2764px;font-family:Helvetica;writing-mode:lr-tb;fill:#323465;fill-opacity:1;fill-rule:nonzero;stroke:none" transform="matrix(.854 -.21665 .19695 .77636 94.305 156.949)"><tspan x="0" y="0">n</tspan></text><text style="font-variant:normal;font-weight:700;font-size:25.0928px;font-family:Helvetica;writing-mode:lr-tb;fill:#323465;fill-opacity:1;fill-rule:nonzero;stroke:none" transform="matrix(.82165 -.33547 .30498 .74695 107.764 153.242)"><tspan x="0" y="0">i</tspan></text><text style="font-variant:normal;font-weight:700;font-size:24.8653px;font-family:Helvetica;writing-mode:lr-tb;fill:#323465;fill-opacity:1;fill-rule:nonzero;stroke:none" transform="matrix(.77847 -.44288 .40262 .7077 113.854 150.95)"><tspan x="0" y="0">v</tspan></text><text style="font-variant:normal;font-weight:700;font-size:24.4924px;font-family:Helvetica;writing-mode:lr-tb;fill:#323465;fill-opacity:1;fill-rule:nonzero;stroke:none" transform="matrix(.69913 -.58138 .52852 .63557 125.241 144.392)"><tspan x="0" y="0">e</tspan></text><text style="font-variant:normal;font-weight:700;font-size:24.4095px;font-family:Helvetica;writing-mode:lr-tb;fill:#323465;fill-opacity:1;fill-rule:nonzero;stroke:none" transform="matrix(.60862 -.6797 .6179 .5533 134.996 136.06)"><tspan x="0" y="0">r</tspan></text><text style="font-variant:normal;font-weight:700;font-size:24.7317px;font-family:Helvetica;writing-mode:lr-tb;fill:#323465;fill-opacity:1;fill-rule:nonzero;stroke:none" transform="matrix(.49552 -.75179 .68345 .45047 141.177 129.308)"><tspan x="0" y="0">s</tspan></text><text style="font-variant:normal;font-weight:700;font-size:24.9816px;font-family:Helvetica;writing-mode:lr-tb;fill:#323465;fill-opacity:1;fill-rule:nonzero;stroke:none" transform="matrix(.3909 -.80114 .72831 .35536 147.955 118.634)"><tspan x="0" y="0">i</tspan></text><text style="font-variant:normal;font-weight:700;font-size:25.1297px;font-family:Helvetica;writing-mode:lr-tb;fill:#323465;fill-opacity:1;fill-rule:nonzero;stroke:none" transform="matrix(.31469 -.82842 .7531 .28608 150.656 113.17)"><tspan x="0" y="0">t</tspan></text><text style="font-variant:normal;font-weight:700;font-size:25.302px;font-family:Helvetica;writing-mode:lr-tb;fill:#323465;fill-opacity:1;fill-rule:nonzero;stroke:none" transform="matrix(.19487 -.85833 .7803 .17715 153.572 105.901)"><tspan x="0" y="0">y</tspan></text><path d="m156.308 142.533 4.082-2.447-.64-1.054-4.082 2.447.64 1.054M153.087 139.038l2.672-1.624-.641-1.054-2.672 1.624.64 1.054M154.369 141.198l2.705-1.645-.64-1.054-2.706 1.645.64 1.054" style="fill:#323465;fill-opacity:1;fill-rule:nonzero;stroke:none;stroke-width:.0352778" transform="matrix(2.48434 0 0 2.48434 -246.11 -295.61)"/><path d="m159.715 140.465.66-.401-3.714-6.11-.66.402 3.714 6.109M155.422 143.886l.69-.42-4.388-7.218-.69.42 4.388 7.218M106.158 142.082c-.86-.523-.91-2.007-.114-3.316.796-1.308 2.137-1.945 2.997-1.422.86.523.91 2.007.115 3.316-.796 1.308-2.138 1.945-2.998 1.422zm2.358-1.811c.442-.726.365-1.578-.17-1.904-.536-.326-1.328-.002-1.77.724-.44.725-.364 1.578.171 1.904.536.325 1.328.002 1.769-.724M112.436 137.107l-4.717-2.87-.64 1.055 4.716 2.869.641-1.054" style="fill:#323465;fill-opacity:1;fill-rule:nonzero;stroke:none;stroke-width:.0352778" transform="matrix(2.48434 0 0 2.48434 -246.11 -295.61)"/><path d="m106.678 138.324-1.249-.759-.706 1.162 1.248.76.707-1.163M108.475 142.574l.641-1.053 2 1.216-.363.598s-.254.46-.649.23l-1.629-.99M111.28 134.735l-.66-.401-1.149 1.889.66.401 1.15-1.889" style="fill:#323465;fill-opacity:1;fill-rule:nonzero;stroke:none;stroke-width:.0352778" transform="matrix(2.48434 0 0 2.48434 -246.11 -295.61)"/><path d="m114.076 137.876-.69-.42-3.25 5.34.691.42 3.25-5.34M107.918 136.47l-.618-.377-3.066 5.041.618.377 3.066-5.041M148.535 131.805l2.561-3.732-1.017-.697-2.561 3.731 1.017.698M146.93 134.16l1.446-2.108-1.017-.698-1.447 2.107 1.018.699" style="fill:#323465;fill-opacity:1;fill-rule:nonzero;stroke:none;stroke-width:.0352778" transform="matrix(2.48434 0 0 2.48434 -246.11 -295.61)"/><path d="m150.616 131.41.437-.637-1.823-1.251-.437.637 1.823 1.25M147.936 132.686l.452-.659-5.991-4.112-.452.659 5.99 4.112M143.312 125.925c.518-.754 1.982-.648 3.27.236s1.913 2.212 1.395 2.966c-.517.754-1.98.648-3.27-.236-1.287-.884-1.912-2.212-1.395-2.966zm1.821 2.346c.708.486 1.53.517 1.836.071.306-.446-.019-1.202-.726-1.687-.708-.486-1.53-.517-1.836-.07-.306.446.019 1.2.726 1.686" style="fill:#323465;fill-opacity:1;fill-rule:nonzero;stroke:none;stroke-width:.0352778" transform="matrix(2.48434 0 0 2.48434 -246.11 -295.61)"/><path d="m147.028 126.761.827-1.204-1.122-.77-.827 1.205 1.122.77" style="fill:#323465;fill-opacity:1;fill-rule:nonzero;stroke:none;stroke-width:.0352778" transform="matrix(2.48434 0 0 2.48434 -246.11 -295.61)"/><path d="m148.817 128.094.42-.613-4.864-3.339-.42.613 4.864 3.339M121.874 127.716l-1.95-3.413-1.07.612 1.95 3.413 1.07-.612M123.554 130.656l-1.542-2.7-1.071.612 1.542 2.7 1.071-.612M116.223 131.263l1.07-.612 1.542 2.699-.607.347s-.441.304-.679-.112l-1.326-2.322" style="fill:#323465;fill-opacity:1;fill-rule:nonzero;stroke:none;stroke-width:.0352778" transform="matrix(2.48434 0 0 2.48434 -246.11 -295.61)"/><path d="m122.566 126.034-.383-.671-1.92 1.097.383.67 1.92-1.096M120.85 127.576l-.383-.671-5.072 2.898.384.67 5.071-2.897M123.42 130.73l-.384-.673-5.089 2.907.385.674 5.089-2.907M122.264 128.705l-.385-.673-5.089 2.907.385.674 5.089-2.908" style="fill:#323465;fill-opacity:1;fill-rule:nonzero;stroke:none;stroke-width:.0352778" transform="matrix(2.48434 0 0 2.48434 -246.11 -295.61)"/><path d="m113.627 128.19 1.07-.612 1.517 2.65-.608.348s-.45.287-.685-.124l-1.294-2.263M135.657 125.6v-.818h-2.211v.818h2.21M132.252 123.043v-.773h-3.568v.773h3.568M133.11 127.6v-.815h-3.567v.815h3.567" style="fill:#323465;fill-opacity:1;fill-rule:nonzero;stroke:none;stroke-width:.0352778" transform="matrix(2.48434 0 0 2.48434 -246.11 -295.61)"/><path d="M134.21 129.204v-7.323h-1.233v7.323h1.233M136.306 129.201v-7.32h-1.234v7.32h1.234M128.684 122.274h1.233v5.323h-.7s-.533.017-.533-.433v-4.89M108.521 149.758l-.023.064a3.58 3.58 0 0 0-1.934.925c-.623.572-1.005 1.296-1.126 1.98l-.054.018-.054-.018c-.12-.685-.507-1.395-1.13-1.967-.586-.538-1.277-.857-1.934-.944l-.018-.06.018-.077c.657-.087 1.348-.406 1.935-.944.622-.572 1.01-1.282 1.13-1.966l.053-.019.054.018c.12.685.503 1.408 1.126 1.98a3.574 3.574 0 0 0 1.934.923l.023.087M163.002 149.758l-.023.064a3.58 3.58 0 0 0-1.934.925c-.623.572-1.005 1.296-1.126 1.98l-.054.018-.054-.018c-.12-.685-.507-1.395-1.13-1.967-.586-.538-1.277-.857-1.934-.944l-.019-.06.019-.077c.657-.087 1.348-.406 1.934-.944.623-.572 1.01-1.282 1.13-1.966l.054-.019.054.018c.12.685.503 1.408 1.126 1.98a3.574 3.574 0 0 0 1.934.923l.023.087" style="fill:#323465;fill-opacity:1;fill-rule:nonzero;stroke:none;stroke-width:.0352778" transform="matrix(2.48434 0 0 2.48434 -246.11 -295.61)"/></svg>