<svg xmlns="http://www.w3.org/2000/svg" width="202.51772mm" height="202.51407mm" viewBox="0 0 202.51772 202.51407"><path d="M0 0c-13.346-13.316-31.608-21.509-51.946-21.515-20.332.006-38.6 8.197-51.941 21.515-13.319 13.345-21.507 31.608-21.514 51.943.007 20.335 8.195 38.598 21.514 51.943 13.341 13.318 31.609 21.509 51.941 21.516 20.338-.007 38.6-8.198 51.946-21.516 13.314-13.345 21.506-31.608 21.515-51.943C21.506 31.608 13.314 13.345 0 0" style="fill:#fff;fill-opacity:1;fill-rule:nonzero;stroke:none" transform="matrix(.90884 0 0 -.90884 148.47 148.467)"/><path d="M0 0c-59.16-.01-107.095-47.945-107.106-107.104C-107.095-166.263-59.16-214.2 0-214.21c59.161.01 107.094 47.947 107.106 107.106C107.094-47.945 59.161-.01 0 0m51.946-159.047C38.6-172.363 20.337-180.556 0-180.562c-20.333.006-38.6 8.197-51.941 21.515-13.319 13.345-21.507 31.609-21.515 51.943.008 20.335 8.196 38.598 21.515 51.943C-38.6-41.843-20.333-33.652 0-33.645c20.337-.007 38.6-8.198 51.946-21.516C65.26-68.506 73.452-86.769 73.46-107.104c-.008-20.334-8.2-38.598-21.514-51.943" style="fill:#1c1d58;fill-opacity:1;fill-rule:nonzero;stroke:none" transform="matrix(.90884 0 0 -.90884 101.259 3.918)"/><path d="M0 0c.012 61.539 49.877 111.403 111.416 111.413v-1.496C50.706 109.904 1.511 60.71 1.499 0c.012-60.711 49.207-109.909 109.917-109.915C172.127-109.909 221.32-60.711 221.333 0c-.013 60.71-49.206 109.904-109.917 109.913v1.5C172.955 111.403 222.819 61.539 222.831 0c-.012-61.544-49.876-111.406-111.415-111.414C49.877-111.406.012-61.544 0 0" style="fill:#1c1d58;fill-opacity:1;fill-rule:nonzero;stroke:none" transform="matrix(.90884 0 0 -.90884 0 101.257)"/><path d="M0 0v-10.359l-24.807 5.261s-2.154.4-1.569-2.184c.564-2.572 1.365-6.125 1.365-6.125l22.884-2.609-22.209.008 1.857-7.066 19.845.801-19.178-3.096s1.456-5.444 1.323-5.123c-.138.327.208-1.142 1.926-.78 1.716.4 11.243 2.418 11.243 2.418s-11.234-11.561-11.234-35.433l6.214.043s.086 24.687 12.356 33.991V-64.58h6.963l.02 34.367s12.662-11.273 12.325-34.031l6.343-.043s.424 23.441-11.187 35.433l11.359-2.422s1.441-.426 1.724.81c.286 1.242 1.327 5.097 1.327 5.097L9.797-22.273l19.764-.801 1.927 7.066-22.193-.008 22.797 2.609 1.472 6.506s.294 2.186-1.593 1.803c-1.904-.379-24.953-5.261-24.953-5.261V2.786s-1.217 8.563-9.24-.892z" style="fill:#1c63b7;fill-opacity:1;fill-rule:nonzero;stroke:none" transform="matrix(.90884 0 0 -.90884 72.531 60.803)"/><path d="M0 0v-10.352l-24.814 5.263s-2.151.4-1.571-2.185c.57-2.566 1.37-6.123 1.37-6.123l22.883-2.609-22.207.01 1.856-7.073 19.842.806-19.174-3.099s1.456-5.445 1.322-5.125c-.134.333.212-1.148 1.928-.776 1.711.397 11.237 2.412 11.237 2.412s-11.23-11.56-11.23-35.428l6.213.034s.084 24.694 12.361 33.997v-34.326h6.956l.023 34.366s12.666-11.271 12.321-34.037l6.348-.034s.423 23.436-11.187 35.428l11.354-2.421s1.445-.42 1.729.814c.286 1.241 1.326 5.096 1.326 5.096L9.798-22.263l19.755-.806 1.935 7.073-22.198-.01 22.799 2.609 1.472 6.502s.294 2.189-1.594 1.806c-1.9-.389-24.956-5.263-24.956-5.263V2.794s-1.212 8.563-9.24-.891z" style="fill:#00aaaf;fill-opacity:1;fill-rule:nonzero;stroke:none" transform="matrix(.90884 0 0 -.90884 124.593 86.084)"/><path d="M0 0h-.903l-1.735-1.031.224-.986s1.272.76 1.358.815v-7.51H.047V0Z" style="fill:#1c63b7;fill-opacity:1;fill-rule:nonzero;stroke:none" transform="matrix(.90884 0 0 -.90884 75.592 128.95)"/><path d="M0 0c0 1.188.616 2.055 1.468 2.055.377 0 .683-.126.926-.369.417-.419.64-1.196.637-2.189 0-.148-.028-.28-.083-.41a1.701 1.701 0 0 0-1.5-.869C.585-1.782 0-1.067 0 0m-1.142-.062c0-1.57.981-2.704 2.339-2.704.739 0 1.359.307 1.81.875-.146-.911-.475-1.64-.993-2.166a2.665 2.665 0 0 0-1.597-.82 4.234 4.234 0 0 0-.841-.049l-.047.002v-1.048l.044-.002c.211-.016.521.006.977.068a3.8 3.8 0 0 1 2.284 1.168c.612.672 1.346 1.929 1.346 4.089 0 2.272-1.004 3.681-2.61 3.681-1.523 0-2.712-1.358-2.712-3.094" style="fill:#1c63b7;fill-opacity:1;fill-rule:nonzero;stroke:none" transform="matrix(.90884 0 0 -.90884 79.54 131.574)"/><path d="m0 0-.028-.024.31-.939.056.04c.345.272.926.564 1.526.564.821 0 1.311-.473 1.311-1.261 0-1.037-1.008-1.409-1.688-1.409H.86v-.968h.627c.9 0 1.956-.446 1.967-1.68 0-.451-.153-.873-.444-1.166-.298-.305-.721-.454-1.267-.454-.727 0-1.405.323-1.696.519L0-6.748l-.322-.979.028-.023c.384-.272 1.15-.585 2.048-.585 1.99 0 2.882 1.323 2.882 2.633 0 1.113-.672 1.97-1.704 2.223.887.383 1.401 1.124 1.401 2.049 0 1.05-.702 2.101-2.268 2.101C1.225.671.42.334 0 0" style="fill:#1c63b7;fill-opacity:1;fill-rule:nonzero;stroke:none" transform="matrix(.90884 0 0 -.90884 85.299 129.428)"/><path d="M0 0c0 1.188.62 2.055 1.476 2.055.368 0 .675-.126.914-.373.42-.415.644-1.192.64-2.185 0-.15-.032-.28-.082-.41a1.712 1.712 0 0 0-1.504-.869C.581-1.782 0-1.067 0 0m-1.139-.062c0-1.588.958-2.704 2.336-2.704.734 0 1.354.307 1.809.871-.149-.907-.478-1.636-.996-2.162a2.638 2.638 0 0 0-1.598-.82 4.217 4.217 0 0 0-.836-.049l-.051.002v-1.048l.043-.002c.216-.016.526.006.981.068.856.102 1.688.53 2.281 1.168.616.672 1.35 1.929 1.35 4.089 0 2.272-1.001 3.681-2.614 3.681-1.515 0-2.705-1.358-2.705-3.094" style="fill:#1c63b7;fill-opacity:1;fill-rule:nonzero;stroke:none" transform="matrix(.90884 0 0 -.90884 92.526 131.574)"/><path d="M0 0a2.358 2.358 0 0 1 0-4.715A2.359 2.359 0 1 1 0 0" style="fill:#fff;fill-opacity:1;fill-rule:nonzero;stroke:none" transform="matrix(.90884 0 0 -.90884 30.29 141.917)"/><path d="M0 0a2.358 2.358 0 0 1 0-4.715A2.357 2.357 0 1 1 0 0" style="fill:#fff;fill-opacity:1;fill-rule:nonzero;stroke:none" transform="matrix(.90884 0 0 -.90884 172.01 141.917)"/><path d="m0 0 1.491 2.585L7.206-.707l-1.7-2.952L.188-.594C-.032-.468-.114-.202 0 0m.435 4.764L-1.916.684c-.023-.047-.628-1.284.997-2.22l7.473-4.305c.17.286 2.897 5.028 3.066 5.314C9.322-.354.734 4.592.435 4.764m12.596 4.534c-.169-.296-3.427-5.955-3.427-5.955L2.26 7.572c-.372.214-.377.573-.27.814.003.008.796 1.383.796 1.383s5.626-3.239 5.92-3.41c.16.28 2.072 3.595 2.233 3.873l-7.662 4.414c-.126-.224-.553-.966-.683-1.188.299-.17 5.923-3.412 5.923-3.412l-.863-1.498S2.029 11.79 1.73 11.961C1.57 11.679.031 9.008.031 9.008 0 8.954-.671 7.681.934 6.756l7.987-4.602-.278-.479c.247-.142 1.487-.856 1.735-.997.169.295 4.22 7.326 4.388 7.621l-1.735.999" style="fill:#fff;fill-opacity:1;fill-rule:nonzero;stroke:none" transform="matrix(.90884 0 0 -.90884 55.672 176.33)"/><path d="M0 0c-.235-.237-3.363-3.363-3.363-3.363-.095-.103-.919-1.082.369-2.369l6.374-6.377.97.97-5.947 5.95c-.271.271-.196.545-.051.699l3.069 3.069C1.222-1.221.201-.199 0 0" style="fill:#fff;fill-opacity:1;fill-rule:nonzero;stroke:none" transform="matrix(.90884 0 0 -.90884 38.73 157.286)"/><path d="M0 0c-.244-.244-7.933-7.928-8.176-8.173.2-.2 1.217-1.215 1.413-1.415l4.844 4.839 1.668-1.668c.18.182.789.788.969.971L-.95-3.778l2.363 2.362L0 0" style="fill:#fff;fill-opacity:1;fill-rule:nonzero;stroke:none" transform="matrix(.90884 0 0 -.90884 50.902 156.356)"/><path d="M0 0c-.023.652.185 1.206.628 1.645.44.44.993.65 1.645.626a2.44 2.44 0 0 0 1.68-.741 2.45 2.45 0 0 0 .742-1.684c.023-.653-.189-1.204-.629-1.643-.439-.439-.993-.651-1.644-.629a2.477 2.477 0 0 0-1.684.744A2.451 2.451 0 0 0 0 0m5.609 4.537a377.34 377.34 0 0 0-1.248-1.249L1.708 5.944.675 4.913l.942-.942-.342-.059a3.517 3.517 0 0 1-1.918-.996c-.77-.772-1.124-1.698-1.084-2.835.039-1.067.472-1.978 1.362-2.868.887-.89 1.802-1.323 2.869-1.362 1.135-.04 2.061.312 2.83 1.084.401.4.695.864.868 1.377l.004-.013.027.157.165.734 1.009-1.01c.184.184.844.845 1.032 1.03L5.782 1.867 7.03 3.116c-.2.198-1.22 1.221-1.421 1.421" style="fill:#fff;fill-opacity:1;fill-rule:nonzero;stroke:none" transform="matrix(.90884 0 0 -.90884 41.41 154.812)"/><path d="m0 0 .852-3.193-1.853-.495s-.766 2.872-.848 3.185c-.274-.074-1.625-.435-1.899-.507l2.622-9.85-5.397-1.439c-.244-.065-.488.065-.55.288l-2.104 7.904 4.024 1.071c-.067.247-.286 1.076-.355 1.323-.321-.085-5.636-1.502-5.958-1.586l2.528-9.478c.016-.055.48-1.457 2.27-.98l5.895 1.571S.373-16.478.46-16.799c.274.071 1.624.432 1.899.503L-.647-5.018l1.853.493 3.005-11.276c.272.072 1.625.432 1.896.507C6.018-14.956 1.986.168 1.896.505L0 0" style="fill:#fff;fill-opacity:1;fill-rule:nonzero;stroke:none" transform="matrix(.90884 0 0 -.90884 123.815 172.392)"/><path d="m0 0-.8-3.001s-2.101.557-2.399.638l-.353-1.325 2.402-.638S-2.187-8.218-2.268-8.54l1.931-.514c.09.326 2.182 8.212 2.272 8.539L0 0" style="fill:#fff;fill-opacity:1;fill-rule:nonzero;stroke:none" transform="matrix(.90884 0 0 -.90884 85.516 174.232)"/><path d="M0 0c.152.575.521 1.014 1.095 1.302a2.508 2.508 0 0 0 1.813.173A2.528 2.528 0 0 0 4.403.422c.354-.533.456-1.097.303-1.674-.153-.572-.518-1.01-1.092-1.298a2.499 2.499 0 0 0-1.821-.174A2.505 2.505 0 0 0 .305-1.672C-.048-1.14-.154-.577 0 0m.137 2.684v-.002C-.856 2.187-1.469 1.459-1.731.459c-.268-.996-.099-1.931.517-2.855.613-.929 1.468-1.526 2.607-1.831 1.142-.302 2.183-.206 3.179.292.99.497 1.602 1.223 1.865 2.223.141.519.153 1.041.039 1.55-.114.512-.33.995-.64 1.436l-.259.324c-.275.31-.612.593-.997.837a4.698 4.698 0 0 1-1.271.541c-1.139.304-2.18.208-3.172-.292" style="fill:#fff;fill-opacity:1;fill-rule:nonzero;stroke:none" transform="matrix(.90884 0 0 -.90884 77.658 184.537)"/><path d="M0 0s-4.922-5.155-5.154-5.395c.185-.188 1.017-1.051 1.217-1.256.244.259 5.072 5.333 5.072 5.333s1.664-6.79 1.75-7.146c.279.086 1.484.459 1.731.537L2.826-.751C2.693-.139 2.277.585 1.676.743 1.072.905.416.465 0 0" style="fill:#fff;fill-opacity:1;fill-rule:nonzero;stroke:none" transform="matrix(.90884 0 0 -.90884 77.572 173.152)"/><path d="M0 0v3.004h6.183V-.417H.448C.197-.417 0-.234 0 0m-2.005 4.374V-.38c.003-.047.125-1.409 1.899-1.409h8.278v6.163zm8.227 1.335h1.997v8.854H6.222Z" style="fill:#fff;fill-opacity:1;fill-rule:nonzero;stroke:none" transform="matrix(.90884 0 0 -.90884 98.587 189.054)"/><path d="M0 0s-3.435-6.246-3.596-6.534c.227-.139 1.256-.756 1.495-.904L1.436-.981s3.353-6.137 3.525-6.455l1.535.963L2.924.002c-.287.556-.876 1.15-1.496 1.15C.8 1.152.278.558 0 0" style="fill:#fff;fill-opacity:1;fill-rule:nonzero;stroke:none" transform="matrix(.90884 0 0 -.90884 96.74 176.815)"/><path d="M0 0c-.637.146-1.119.49-1.429 1.031-.31.539-.373 1.128-.18 1.75a2.45 2.45 0 0 0 1.15 1.435 2.461 2.461 0 0 0 1.821.28c.632-.146 1.115-.492 1.425-1.03.31-.539.372-1.131.18-1.751A2.448 2.448 0 0 0 1.813.28 2.446 2.446 0 0 0 0 0m-2.933 6.593.884-1.529L-5.3 3.186c.131-.225.598-1.038.727-1.262l1.154.667-.031-.346A3.528 3.528 0 0 1-2.983.134c.545-.945 1.35-1.526 2.457-1.78 1.041-.239 2.034-.057 3.125.573 1.087.63 1.742 1.399 2.055 2.42.335 1.084.233 2.072-.317 3.016a3.56 3.56 0 0 1-1.104 1.194s.012 0 .012-.002a4.268 4.268 0 0 0-.212.103l-.595.312 1.232.715c-.13.225-.596 1.037-.727 1.26L-.311 6.068s-.737 1.276-.885 1.527l-1.737-1.002" style="fill:#fff;fill-opacity:1;fill-rule:nonzero;stroke:none" transform="matrix(.90884 0 0 -.90884 137.364 172.957)"/><path d="M0 0c.13-.221.559-.963.688-1.188.297.176 7.845 4.533 7.845 4.533.217.124.487.064.606-.138l2.295-3.972 1.732 1c-.17.29-2.49 4.306-2.49 4.306-.687 1.195-2.009.464-2.063.433L0 0" style="fill:#fff;fill-opacity:1;fill-rule:nonzero;stroke:none" transform="matrix(.90884 0 0 -.90884 138.58 176.485)"/><path d="M0 0c.17-.294 4.244-7.351 4.412-7.645l1.735 1.001-2.068 3.582s1.778 1.025 2.044 1.18c-.128.222-.56.965-.686 1.188l-2.041-1.18L1.732 1C1.489.859.243.142 0 0" style="fill:#fff;fill-opacity:1;fill-rule:nonzero;stroke:none" transform="matrix(.90884 0 0 -.90884 141.427 164.117)"/><path d="M0 0c.186-.182.788-.786.97-.968.246.245 6.582 6.619 6.582 6.619.177.175.456.187.62.023l8.282-8.366-1.538-1.586S10.123.529 9.884.771C9.684.57 8.683-.434 8.479-.632c.244-.241 5.032-5.05 5.032-5.05l-1.472-1.452S7.251-2.326 7.011-2.087L5.605-3.489c.244-.24 5.032-5.048 5.032-5.048S9.334-9.87 9.11-10.093c.185-.179.786-.784.966-.965.248.245 9.35 9.36 9.597 9.606-.181.182-.785.784-.966.968-.176-.18-.84-.794-.84-.794l-8.554 8.64c-.972.977-2.059-.071-2.107-.117C7.206 7.245.008.004 0 0" style="fill:#fff;fill-opacity:1;fill-rule:nonzero;stroke:none" transform="matrix(.90884 0 0 -.90884 151.234 159.035)"/><path d="m0 0 6.339 2.057L4.008 9.24l-6.34-2.057-.627 1.937 15.15 4.918.632-1.936-7.104-2.306L8.05 2.612l7.105 2.306.628-1.939L.627-1.939Z" style="fill:#fff;fill-opacity:1;fill-rule:nonzero;stroke:none" transform="matrix(.90884 0 0 -.90884 17.694 131.957)"/><path d="m0 0-4.317-2.191c-.978-.495-1.881-.859-2.76-1.22l.008-.047c.942-.097 1.958-.185 2.963-.364l4.781-.855Zm2.328-4.858 5.189-.888.297-2.066-16.528 2.995-.346 2.383L5.947 5.119l.306-2.132L1.53.62Z" style="fill:#fff;fill-opacity:1;fill-rule:nonzero;stroke:none" transform="matrix(.90884 0 0 -.90884 21.293 110.704)"/><path d="M0 0v2.039h14.206V8.71h1.726V0Z" style="fill:#fff;fill-opacity:1;fill-rule:nonzero;stroke:none" transform="matrix(.90884 0 0 -.90884 12.3 104.56)"/><path d="m0 0 .256 2.021L14.351.243l.836 6.619 1.708-.215-1.088-8.64z" style="fill:#fff;fill-opacity:1;fill-rule:nonzero;stroke:none" transform="matrix(.90884 0 0 -.90884 12.578 93.287)"/><path d="m0 0-6.566 1.603-10.089-2.64.554 2.25 4.793 1.094c1.307.278 2.362.521 3.556.731l.012.043c-.911.652-1.79 1.439-2.819 2.309l-3.736 3.225.537 2.206 7.65-7.232L.483 1.981z" style="fill:#fff;fill-opacity:1;fill-rule:nonzero;stroke:none" transform="matrix(.90884 0 0 -.90884 28.681 84.324)"/><path d="M0 0c-2.076.797-4.597 1.766-6.386 2.563l-.02-.045a126.016 126.016 0 0 0 4.73-4.255l5.939-5.659-.62-1.398-7.968.753c-2.376.245-4.475.522-6.383.888l-.02-.042c1.794-.85 4.169-2.032 6.312-3.138l6.072-3.156-.781-1.757-14.111 7.471 1.045 2.348 8.121-.698a76.403 76.403 0 0 0 5.542-.742l.02.043c-1.3 1.034-2.67 2.252-4.224 3.706l-5.912 5.67 1.045 2.347L7.352-.685l-.809-1.822z" style="fill:#fff;fill-opacity:1;fill-rule:nonzero;stroke:none" transform="matrix(.90884 0 0 -.90884 29.445 63.634)"/><path d="M0 0c.361.275.738.688 1.146 1.22 1.48 1.931 1.409 3.856-.298 5.164-1.688 1.295-3.396.738-4.738-1.007-.533-.698-.887-1.276-1.025-1.607Zm-7.321 3.075c.46.873 1.123 1.972 2.113 3.258C-4 7.913-2.736 8.782-1.496 9c1.107.202 2.351-.08 3.475-.943 1.145-.878 1.793-1.901 1.97-3.03C4.204 3.46 3.631 1.739 2.43.178c-.366-.479-.723-.905-1.099-1.2l5.063-3.885-1.225-1.6z" style="fill:#fff;fill-opacity:1;fill-rule:nonzero;stroke:none" transform="matrix(.90884 0 0 -.90884 35.028 53.049)"/><path d="M0 0c2.344-2.5 5.746-3.487 8.078-1.301 2.332 2.189 1.597 5.613-.879 8.25C5.016 9.277 1.57 10.583-.879 8.284-3.329 5.986-2.379 2.534 0 0m8.69 8.477c3.733-3.981 3.356-8.355.452-11.081C6.119-5.439 1.778-5.008-1.523-1.493c-3.458 3.691-3.494 8.195-.456 11.047C1.146 12.486 5.44 11.942 8.69 8.477" style="fill:#fff;fill-opacity:1;fill-rule:nonzero;stroke:none" transform="matrix(.90884 0 0 -.90884 42.123 44.624)"/><path d="m0 0 1.685 1.149 8.006-11.734 5.512 3.762.969-1.427-7.191-4.909z" style="fill:#fff;fill-opacity:1;fill-rule:nonzero;stroke:none" transform="matrix(.90884 0 0 -.90884 48.43 29.439)"/><path d="m0 0-3.152 5.981-8.663 5.8 2.048 1.081 3.996-2.865c1.076-.795 1.959-1.425 2.906-2.181l.042.022c-.117 1.115-.11 2.292-.136 3.641l-.068 4.937 2.01 1.061-.346-10.525L1.805.951Z" style="fill:#fff;fill-opacity:1;fill-rule:nonzero;stroke:none" transform="matrix(.90884 0 0 -.90884 65.81 35.56)"/><path d="m0 0-4.482-1.566-.581 1.65L5.849 3.9l.577-1.651L1.924.674l4.682-13.388-1.927-.673Z" style="fill:#fff;fill-opacity:1;fill-rule:nonzero;stroke:none" transform="matrix(.90884 0 0 -.90884 71.621 18.857)"/><path d="m0 0-5.919-1.219 1.154-5.625 6.626 1.363.349-1.69-8.624-1.775-3.21 15.605 8.282 1.706.349-1.692-6.284-1.293L-6.264.448l5.922 1.22z" style="fill:#fff;fill-opacity:1;fill-rule:nonzero;stroke:none" transform="matrix(.90884 0 0 -.90884 88.584 20.678)"/><path d="M0 0c-.695-.422-2.174-.89-4.07-1-4.397-.262-7.847 2.374-8.16 7.612-.295 5.001 2.813 8.549 7.645 8.835 1.92.115 3.191-.235 3.741-.489l-.408-1.705c-.762.335-1.869.554-3.164.476-3.65-.214-5.938-2.744-5.691-6.918C-9.872 2.893-7.528.545-3.761.77c1.249.073 2.485.407 3.27.855z" style="fill:#fff;fill-opacity:1;fill-rule:nonzero;stroke:none" transform="matrix(.90884 0 0 -.90884 102.258 25.91)"/><path d="m0 0-.69-6.63 7.508-.783.696 6.627 2.025-.212-1.653-15.843-2.025.211.773 7.429-7.509.784-.776-7.429-2.026.211L-2.024.21z" style="fill:#fff;fill-opacity:1;fill-rule:nonzero;stroke:none" transform="matrix(.90884 0 0 -.90884 107.32 12.197)"/><path d="m0 0 4.403 15.309 2.14-.616 2.556-9.124c.577-2.107 1.004-3.976 1.239-5.742l.076.002c.406 2.095.902 3.972 1.588 6.357l1.842 6.405 1.826-.526-4.405-15.309-1.959.564-2.532 9.141c-.553 2.003-1.051 4.041-1.31 5.911l-.074-.004c-.445-1.963-.95-3.81-1.682-6.352L1.826-.526Z" style="fill:#fff;fill-opacity:1;fill-rule:nonzero;stroke:none" transform="matrix(.90884 0 0 -.90884 116.955 27.976)"/><path d="m0 0-6.222-14.666-1.876.797L-1.877.795z" style="fill:#fff;fill-opacity:1;fill-rule:nonzero;stroke:none" transform="matrix(.90884 0 0 -.90884 137.011 19.47)"/><path d="M0 0c-.813.021-2.309.429-3.965 1.359-3.839 2.155-5.317 6.238-2.752 10.814 2.454 4.368 6.988 5.675 11.208 3.306 1.676-.943 2.56-1.926 2.885-2.436l-1.268-1.212c-.46.692-1.272 1.472-2.403 2.107-3.19 1.791-6.476.902-8.529-2.747-1.919-3.42-1.216-6.663 2.076-8.508C-1.656 2.069-.439 1.682.468 1.635Z" style="fill:#fff;fill-opacity:1;fill-rule:nonzero;stroke:none" transform="matrix(.90884 0 0 -.90884 142.8 38.304)"/><path d="m0 0-6.322-7.03c-2.371-2.636-2.226-4.798-.675-6.193 1.703-1.533 3.865-1.381 6.202 1.219l6.327 7.028 1.515-1.362L.814-13.26c-3.27-3.638-6.472-3.425-8.989-1.165-2.375 2.139-2.931 5.121.389 8.81l6.272 6.976z" style="fill:#fff;fill-opacity:1;fill-rule:nonzero;stroke:none" transform="matrix(.90884 0 0 -.90884 158.457 32.652)"/><path d="m0 0 12.542 9.823 1.37-1.751-3.274-8.889c-.77-2.046-1.519-3.811-2.363-5.381l.062-.041c1.562 1.459 3.062 2.688 5.014 4.219l5.248 4.112L19.771.596 7.228-9.229 5.971-7.623l3.308 8.888c.722 1.951 1.516 3.893 2.404 5.557l-.065.041c-1.51-1.33-3.001-2.528-5.086-4.16L1.174-1.494Z" style="fill:#fff;fill-opacity:1;fill-rule:nonzero;stroke:none" transform="matrix(.90884 0 0 -.90884 156.898 51.008)"/><path d="m0 0-13.624-8.253-1.061 1.741 13.629 8.253z" style="fill:#fff;fill-opacity:1;fill-rule:nonzero;stroke:none" transform="matrix(.90884 0 0 -.90884 178.132 55.85)"/><path d="m0 0 12.267 11.383.929-1.994-6.08-5.526C5.444 2.362 3.934 1.018 2.427-.172l.018-.041C4.301.17 6.386.454 8.577.683l8.25.944.911-1.953L.942-2.017z" style="fill:#fff;fill-opacity:1;fill-rule:nonzero;stroke:none" transform="matrix(.90884 0 0 -.90884 168.546 68.558)"/><path d="m0 0-1.754 5.782-5.499-1.676 1.974-6.467-1.653-.503-2.563 8.421 15.237 4.64 2.465-8.086-1.651-.504-1.869 6.137-4.816-1.466L1.633.494Z" style="fill:#fff;fill-opacity:1;fill-rule:nonzero;stroke:none" transform="matrix(.90884 0 0 -.90884 180.375 81.001)"/><path d="m0 0 .322-2.037c.337-2.128 1.742-3.289 3.541-3.004 2.025.321 2.688 1.903 2.355 4.006-.15.964-.33 1.613-.476 1.945zm6.854 3.123c.345-.975.717-2.418.929-3.767.338-2.128.138-3.59-.58-4.666-.578-.866-1.582-1.494-2.818-1.688C2.331-7.323.75-6.261-.063-4.747l-.071-.012c-.235-1.232-1.243-2.12-2.817-2.744-2.116-.849-3.576-1.456-4.133-1.872l-.323 2.061c.425.324 1.7.877 3.595 1.6 2.1.8 2.783 1.776 2.568 3.595l-.294 1.876-6.818-1.078L-8.671.67z" style="fill:#fff;fill-opacity:1;fill-rule:nonzero;stroke:none" transform="matrix(.90884 0 0 -.90884 182.348 86.02)"/><path d="M0 0c-.572-.917-.996-2.222-.969-3.61.038-2.062 1.173-3.244 2.782-3.213 1.465.029 2.325.88 3.086 3.002C5.798-1.256 7.137.348 9.354.389c2.485.05 4.365-1.93 4.428-4.962.027-1.576-.326-2.763-.715-3.445l-1.691.526c.297.49.729 1.541.702 2.955-.047 2.131-1.358 2.914-2.445 2.894-1.491-.029-2.201-.993-3.011-3.164-.988-2.659-2.264-4.005-4.603-4.051-2.458-.047-4.64 1.671-4.715 5.354-.028 1.505.413 3.158.962 4.002z" style="fill:#fff;fill-opacity:1;fill-rule:nonzero;stroke:none" transform="matrix(.90884 0 0 -.90884 178.206 95.82)"/><path d="m0 0-15.881 1.23.157 2.034L.161 2.03Z" style="fill:#fff;fill-opacity:1;fill-rule:nonzero;stroke:none" transform="matrix(.90884 0 0 -.90884 190.157 109.05)"/><path d="m0 0 .832 4.676 1.724-.307L.526-7.01l-1.719.306.836 4.699L-14.322.479l.356 2.006z" style="fill:#fff;fill-opacity:1;fill-rule:nonzero;stroke:none" transform="matrix(.90884 0 0 -.90884 187.717 115.673)"/><path d="m0 0 6.412-2.151L16.683-.369l-.738-2.196-4.867-.687c-1.326-.166-2.402-.318-3.611-.426l-.015-.045c.856-.725 1.664-1.584 2.613-2.537l3.456-3.53-.724-2.152-7.014 7.851-6.429 2.159z" style="fill:#fff;fill-opacity:1;fill-rule:nonzero;stroke:none" transform="matrix(.90884 0 0 -.90884 172.455 124.041)"/></svg>