<svg xmlns="http://www.w3.org/2000/svg" width="189.96529mm" height="189.96529mm" viewBox="0 0 189.96529 189.96529"><g style="stroke-width:.281997"><g style="stroke-width:.281997"><path d="M0 0c41.931 0 75.925 33.995 75.925 75.924 0 41.932-33.994 75.927-75.925 75.927-41.934 0-75.926-33.995-75.926-75.927C-75.926 33.995-41.934 0 0 0" style="fill:#b5b5b6;fill-opacity:1;fill-rule:nonzero;stroke:none;stroke-width:.281997" transform="matrix(1.251 0 0 -1.251 94.983 189.965)"/></g><g style="stroke-width:.281997"><path d="M0 0c30.202 0 54.688 24.486 54.688 54.688 0 30.204-24.486 54.689-54.688 54.689-30.205 0-54.689-24.485-54.689-54.689C-54.689 24.486-30.205 0 0 0" style="fill:#fff;fill-opacity:1;fill-rule:nonzero;stroke:none;stroke-width:.281997" transform="matrix(1.251 0 0 -1.251 94.983 163.399)"/></g><g style="stroke-width:.281997"><path d="M0 0c30.202 0 54.688 24.486 54.688 54.688 0 30.204-24.486 54.689-54.688 54.689-30.205 0-54.689-24.485-54.689-54.689C-54.689 24.486-30.205 0 0 0Z" style="fill:none;stroke:#b5b5b6;stroke-width:.097853;stroke-linecap:butt;stroke-linejoin:miter;stroke-miterlimit:4;stroke-dasharray:none;stroke-opacity:1" transform="matrix(1.251 0 0 -1.251 94.983 163.399)"/></g><g style="stroke-width:.281997"><path d="M0 0c.005-.398.127-1.16.915-1.16.429 0 .904.17.904.93 0 .559-.325.71-.783.89L.573.841c-.699.269-1.375.53-1.375 2.112 0 .801.259 2.213 1.662 2.213 1.326 0 1.682-1.444 1.688-2.322h-.866c-.026.319-.097 1.08-.887 1.08-.344 0-.752-.21-.752-.86 0-.562.277-.681.457-.751l1.055-.431c.59-.24 1.132-.64 1.132-1.932 0-2.162-1.327-2.353-1.706-2.353C-.597-2.403-.868-.892-.868 0z" style="fill:#fff;fill-opacity:1;fill-rule:nonzero;stroke:none;stroke-width:.281997" transform="matrix(1.251 0 0 -1.251 75.28 179.152)"/></g><path d="M307.154 325.213h-.903v7.187h.903z" style="fill:#fff;fill-opacity:1;fill-rule:nonzero;stroke:none;stroke-width:.281997" transform="matrix(1.251 0 0 -1.251 -303.71 588.76)"/><g style="stroke-width:.281997"><path d="M0 0h.842v-7.187h-.903l-1.764 5.124h-.012v-5.124h-.844V0h.952l1.718-5.005H0Z" style="fill:#fff;fill-opacity:1;fill-rule:nonzero;stroke:none;stroke-width:.281997" transform="matrix(1.251 0 0 -1.251 84.896 172.928)"/></g><g style="stroke-width:.281997"><path d="M0 0c-.072.429-.211 1.239-.958 1.239-.433 0-1.071-.48-1.071-2.512 0-1.29.306-2.453 1.071-2.453.5 0 .85.47.958 1.353h.902C.723-3.936.109-5.028-.977-5.028c-1.149 0-1.974 1.293-1.974 3.774 0 2.513.873 3.795 1.987 3.795C.332 2.541.855 1.059.902 0z" style="fill:#fff;fill-opacity:1;fill-rule:nonzero;stroke:none;stroke-width:.281997" transform="matrix(1.251 0 0 -1.251 90.488 175.868)"/></g><g style="stroke-width:.281997"><path d="M0 0h-2.294v-1.512h2.107v-1.27h-2.107v-1.864H.103v-1.27h-3.284v7.187H0Z" style="fill:#fff;fill-opacity:1;fill-rule:nonzero;stroke:none;stroke-width:.281997" transform="matrix(1.251 0 0 -1.251 96.455 174.518)"/></g><g style="stroke-width:.281997"><path d="M0 0h.119c.814 0 1.029.7 1.049 1.231h.692v-7.107h-.843V-.98H0Z" style="fill:#fff;fill-opacity:1;fill-rule:nonzero;stroke:none;stroke-width:.281997" transform="matrix(1.251 0 0 -1.251 99.547 174.568)"/></g><g style="stroke-width:.281997"><path d="M0 0c.071-1.13.596-1.832 1.324-1.832.771 0 1.555.89 1.555 3.645 0 .999-.025 3.653-1.506 3.653-.838 0-1.458-.81-1.458-2.552C-.085 1.722.392.691 1.21.691c.289 0 .62.121.814.6l.011-.02C2.03-.219 1.681-.708 1.33-.708c-.259 0-.445.208-.493.699V0Zm.759 3.114c0 1.021.391 1.201.608 1.201.433 0 .644-.502.644-1.312 0-.839-.324-1.19-.619-1.19-.321 0-.633.23-.633 1.301" style="fill:#fff;fill-opacity:1;fill-rule:nonzero;stroke:none;stroke-width:.281997" transform="matrix(1.251 0 0 -1.251 103.548 179.866)"/></g><g style="stroke-width:.281997"><path d="M0 0c0 2.312 1.019 2.513 1.396 2.513.82 0 1.47-.801 1.47-2.243 0-1.223-.475-1.841-.89-2.311-.568-.663-.863-.982-.957-1.312h1.853v-1.242H-.05c.03.83.067 1.701.994 2.823.772.931 1.08 1.292 1.08 2.092 0 .471-.182 1.011-.59 1.011C.842 1.331.824.521.817 0Z" style="fill:#fff;fill-opacity:1;fill-rule:nonzero;stroke:none;stroke-width:.281997" transform="matrix(1.251 0 0 -1.251 108.03 176.171)"/></g><g style="stroke-width:.281997"><path d="M0 0c-.411-.741-1.458-2.844-1.562-5.906h-.868C-2.338-3.063-1.266-.802-.905-.161h-2.126l.018 1.242H0Z" style="fill:#fff;fill-opacity:1;fill-rule:nonzero;stroke:none;stroke-width:.281997" transform="matrix(1.251 0 0 -1.251 115.944 174.53)"/></g><g style="stroke-width:.281997"><path d="M0 0a1.652 1.652 0 1 0-3.303.001A1.652 1.652 0 0 0 0 0" style="fill:#fff;fill-opacity:1;fill-rule:nonzero;stroke:none;stroke-width:.281997" transform="matrix(1.251 0 0 -1.251 50.247 27.575)"/></g><g style="stroke-width:.281997"><path d="M0 0a1.65 1.65 0 1 0-3.302.002A1.65 1.65 0 0 0 0 0" style="fill:#fff;fill-opacity:1;fill-rule:nonzero;stroke:none;stroke-width:.281997" transform="matrix(1.251 0 0 -1.251 143.87 27.23)"/></g><g style="stroke-width:.281997"><path d="M0 0a1.652 1.652 0 1 0 3.252-.575A1.652 1.652 0 0 0 0 0" style="fill:#fff;fill-opacity:1;fill-rule:nonzero;stroke:none;stroke-width:.281997" transform="matrix(1.251 0 0 -1.251 118.768 171.663)"/></g><g style="stroke-width:.281997"><path d="M0 0a1.653 1.653 0 1 0 2.125-2.527A1.653 1.653 0 0 0 0 0" style="fill:#fff;fill-opacity:1;fill-rule:nonzero;stroke:none;stroke-width:.281997" transform="matrix(1.251 0 0 -1.251 68.216 170.442)"/></g><g style="stroke-width:.281997"><path d="m0 0 7.728 7.273-1.041 1.334L-1.212.702.211-1.115l9.575 5.752-.864 1.107Z" style="fill:#fff;fill-opacity:1;fill-rule:nonzero;stroke:none;stroke-width:.281997" transform="matrix(1.251 0 0 -1.251 25.817 149.23)"/></g><g style="stroke-width:.281997"><path d="m0 0 1.025.957-2.719 2.905-8.113-7.586 2.717-2.904 1.026.958-1.609 1.719 2.978 2.783 1.552-1.663 1.026.958L-3.671-.21l2.065 1.93z" style="fill:#fff;fill-opacity:1;fill-rule:nonzero;stroke:none;stroke-width:.281997" transform="matrix(1.251 0 0 -1.251 40.875 149.043)"/></g><g style="stroke-width:.281997"><path d="M0 0c-.308-.421-.675-.414-1.04-.146-.42.308-.473.694-.202 1.06L.089 2.727l-1.331.975-1.218-1.656c-.892-1.217-.883-2.522.426-3.483 1.275-.935 2.581-.655 3.484.574C2.578.479 2.501 1.168 2.501 1.168c.141.419-.008 1.775-.008 1.775-.019.492-.159 2.026-.159 2.026-.022.613.198 1.014.198 1.014.168.427.499.752.499.752.308.419.693.402 1.056.135.391-.285.408-.72.158-1.028l-1.124-1.53 1.329-.977.92 1.253c.891 1.215.883 2.518-.426 3.479-1.276.939-2.545.595-3.446-.632 0 0-.269-.315-.529-.786 0 0-.403-.654-.378-1.649 0 0 .254-2.549.272-3.04C.863 1.96.965.985 0 0" style="fill:#fff;fill-opacity:1;fill-rule:nonzero;stroke:none;stroke-width:.281997" transform="matrix(1.251 0 0 -1.251 44.82 165.025)"/></g><g style="stroke-width:.281997"><path d="m0 0-8.409-3.638c-.478-.207-.799.003-.98.417-.206.478-.035.785.383.966l8.409 3.637-.654 1.511-8.232-3.559c-1.447-.458-2.037-1.73-1.392-3.218.629-1.455 1.959-1.938 3.297-1.191L.656-1.516z" style="fill:#fff;fill-opacity:1;fill-rule:nonzero;stroke:none;stroke-width:.281997" transform="matrix(1.251 0 0 -1.251 26.816 125.484)"/></g><g style="stroke-width:.281997"><path d="m0 0-1.414.604-3-4.415 1.092 5.232-1.575.671-1.107-7.287-1.565-3.669 1.503-.642 1.566 3.67z" style="fill:#fff;fill-opacity:1;fill-rule:nonzero;stroke:none;stroke-width:.281997" transform="matrix(1.251 0 0 -1.251 68.716 164.998)"/></g><g style="stroke-width:.281997"><path d="M0 0c.472-.423.891-.169 1.61.607.654.707 1.041 1.324.526 1.783l-.525.485L-.527.48Zm-1.397-.493-3.515-3.93-1.218 1.09 7.404 8.281 1.954-1.742c1.105-.986 1.087-2.066-.06-3.347-1.08-1.212-2.014-1.653-3.262-.54l.112-.106c.808-.724 1.127-1.58.161-2.663l-1.857-2.058s-.632-.589-.723-1.154l-1.261 1.128s.085.387.943 1.317l1.611 1.788c.479.539.563 1.101.173 1.502z" style="fill:#fff;fill-opacity:1;fill-rule:nonzero;stroke:none;stroke-width:.281997" transform="matrix(1.251 0 0 -1.251 41.468 154.93)"/></g><g style="stroke-width:.281997"><path d="M0 0c.453.009.729.23.719.747-.011.456-.228.771-.748.76l-7.28-.147c-.454-.008-.729-.226-.719-.748.008-.455.229-.77.749-.757zm-7.055-1.792c-1.525-.029-2.569.77-2.6 2.354-.033 1.619.999 2.42 2.504 2.451l6.741.134C1.114 3.18 2.161 2.383 2.193.8 2.226-.821 1.192-1.626-.312-1.653Z" style="fill:#fff;fill-opacity:1;fill-rule:nonzero;stroke:none;stroke-width:.281997" transform="matrix(1.251 0 0 -1.251 17.99 97.535)"/></g><g style="stroke-width:.281997"><path d="m0 0 11.096-.545.078 1.633-11.092.543Z" style="fill:#fff;fill-opacity:1;fill-rule:nonzero;stroke:none;stroke-width:.281997" transform="matrix(1.251 0 0 -1.251 6.413 91.628)"/></g><g style="stroke-width:.281997"><path d="m0 0 9.224 6.191-.911 1.358L-.91 1.356Z" style="fill:#fff;fill-opacity:1;fill-rule:nonzero;stroke:none;stroke-width:.281997" transform="matrix(1.251 0 0 -1.251 21.954 145.19)"/></g><g style="stroke-width:.281997"><path d="m0 0 5.88 9.427-1.385.862L-1.387.866Z" style="fill:#fff;fill-opacity:1;fill-rule:nonzero;stroke:none;stroke-width:.281997" transform="matrix(1.251 0 0 -1.251 48.908 170.68)"/></g><g style="stroke-width:.281997"><path d="m0 0 9.281 2.813-.475 1.565-10.623-3.22 1.164-3.835 1.342.405Z" style="fill:#fff;fill-opacity:1;fill-rule:nonzero;stroke:none;stroke-width:.281997" transform="matrix(1.251 0 0 -1.251 11.727 119.99)"/></g><g style="stroke-width:.281997"><path d="m0 0 4.075-4.794L-.807-.821zm-4.154 1.903L-5.338.694l8.879-6.781 1.615 1.65-6.968 8.732-.984-1.003 1.883-2.219-.984-1.005Z" style="fill:#fff;fill-opacity:1;fill-rule:nonzero;stroke:none;stroke-width:.281997" transform="matrix(1.251 0 0 -1.251 36.092 36.184)"/></g><g style="stroke-width:.281997"><path d="m0 0 5.251-3.467-5.793 2.451zm-4.518.67-.8-1.491L5.101-4.86 6.19-2.823-2.938 3.62l-.663-1.238L-1.173.777l-.668-1.241Z" style="fill:#fff;fill-opacity:1;fill-rule:nonzero;stroke:none;stroke-width:.281997" transform="matrix(1.251 0 0 -1.251 22.036 54.952)"/></g><g style="stroke-width:.281997"><path d="m0 0 6.033-1.778-6.257.649zm-4.52-.683-.328-1.66 11.146-.81.445 2.265L-3.87 2.601l-.272-1.377 2.791-.827-.275-1.38z" style="fill:#fff;fill-opacity:1;fill-rule:nonzero;stroke:none;stroke-width:.281997" transform="matrix(1.251 0 0 -1.251 13.525 78.069)"/></g><g style="stroke-width:.281997"><path d="m0 0 6.245.759L.243-1.125Zm-3.877-2.419.357-1.654L7.032-.399l-.488 2.257L-4.584.853l.297-1.374 2.89.352.297-1.377z" style="fill:#fff;fill-opacity:1;fill-rule:nonzero;stroke:none;stroke-width:.281997" transform="matrix(1.251 0 0 -1.251 13.507 111.775)"/></g><g style="stroke-width:.281997"><path d="m0 0-7.083 5.758 8.09-4.52 1.526 1.881-8.618 7.003-.836-1.029L.672 2.92l-8.671 4.847-1.458-1.793 8.62-7.005Z" style="fill:#fff;fill-opacity:1;fill-rule:nonzero;stroke:none;stroke-width:.281997" transform="matrix(1.251 0 0 -1.251 35.973 49.13)"/></g><g style="stroke-width:.281997"><path d="m0 0-8.761 2.567L.448 1.53l.68 2.327-10.656 3.122-.376-1.272L-.51 2.954l-9.873 1.111-.649-2.215L-.373-1.274Z" style="fill:#fff;fill-opacity:1;fill-rule:nonzero;stroke:none;stroke-width:.281997" transform="matrix(1.251 0 0 -1.251 22.836 75.564)"/></g><g style="stroke-width:.281997"><path d="m0 0-9.06-1.123 8.865 2.708-.3 2.402-11.022-1.365.164-1.314 9.712 1.202-9.503-2.903.286-2.291L.164-1.317z" style="fill:#fff;fill-opacity:1;fill-rule:nonzero;stroke:none;stroke-width:.281997" transform="matrix(1.251 0 0 -1.251 21.069 105.83)"/></g><g style="stroke-width:.281997"><path d="m0 0-7.955-4.481L-.784 1.39l-1.19 2.11-9.674-5.449.65-1.155 8.527 4.8-7.689-6.292 1.133-2.012L.649-1.157z" style="fill:#fff;fill-opacity:1;fill-rule:nonzero;stroke:none;stroke-width:.281997" transform="matrix(1.251 0 0 -1.251 30.737 133.105)"/></g><g style="stroke-width:.281997"><path d="m0 0 1.859 4.242-1.283.562-.591-1.345-8.88 3.893-.658-1.498 8.881-3.893-.612-1.399Z" style="fill:#fff;fill-opacity:1;fill-rule:nonzero;stroke:none;stroke-width:.281997" transform="matrix(1.251 0 0 -1.251 25.395 67.632)"/></g><g style="stroke-width:.281997"><path d="m0 0 .539 4.603-1.391.162-.171-1.459-9.633 1.129-.19-1.623 9.63-1.13-.177-1.519z" style="fill:#fff;fill-opacity:1;fill-rule:nonzero;stroke:none;stroke-width:.281997" transform="matrix(1.251 0 0 -1.251 20.448 89.147)"/></g><g style="stroke-width:.281997"><path d="m0 0-4.083 2.193L-4.744.96l1.296-.697-4.586-8.546 1.441-.771 4.584 8.543 1.346-.721z" style="fill:#fff;fill-opacity:1;fill-rule:nonzero;stroke:none;stroke-width:.281997" transform="matrix(1.251 0 0 -1.251 62.222 162.18)"/></g><g style="stroke-width:.281997"><path d="M0 0c.604-.392 1.174-.392 1.511.054l.357.521-3.355 2.19-.383-.579c-.348-.533-.04-.921.817-1.542C-.55.277 0 0 0 0m-2.138-.635c-1.297.977-1.911 1.782-.997 3.185l1.48 2.274L7.65-1.242 6.224-3.435c-.808-1.243-1.877-1.389-3.318-.449C1.548-2.999.97-2.145 1.882-.741l-.089-.126C1.198-1.774.155-2.123-.845-1.473c0 0-1.166.744-1.293.838m4.705-.093c-.346-.533-.032-.909.846-1.501.797-.54 1.462-.831 1.842-.249l.397.588L2.963-.137z" style="fill:#fff;fill-opacity:1;fill-rule:nonzero;stroke:none;stroke-width:.281997" transform="matrix(1.251 0 0 -1.251 24.41 50.155)"/></g><g style="stroke-width:.281997"><path d="m0 0-2.768 3.215 1.077.928L1.079.93l1.237 1.068-7.25 8.413-1.238-1.07 3.566-4.136-1.079-.929-3.565 4.139-1.239-1.068 7.251-8.412Z" style="fill:#fff;fill-opacity:1;fill-rule:nonzero;stroke:none;stroke-width:.281997" transform="matrix(1.251 0 0 -1.251 45.576 38.928)"/></g><g style="stroke-width:.281997"><path d="m0 0-9.461-4.804.624-1.571 9.802 5.36-.852 2.146-10.809-2.824.518-1.306z" style="fill:#fff;fill-opacity:1;fill-rule:nonzero;stroke:none;stroke-width:.281997" transform="matrix(1.251 0 0 -1.251 176.623 62.407)"/></g><g style="stroke-width:.281997"><path d="m0 0-1.254-.629 1.79-3.554L10.457.812 8.668 4.364l-1.253-.629 1.059-2.104L4.835-.2 3.811 1.834l-1.253-.632L3.582-.832 1.059-2.103Z" style="fill:#fff;fill-opacity:1;fill-rule:nonzero;stroke:none;stroke-width:.281997" transform="matrix(1.251 0 0 -1.251 162.122 58.348)"/></g><g style="stroke-width:.281997"><path d="M0 0c.414.315.767.207 1.042-.153.314-.412.256-.799-.103-1.074L-.85-2.594l.999-1.308 1.636 1.247c1.198.916 1.558 2.171.574 3.459-.962 1.259-2.292 1.357-3.505.431-1.46-.97-1.58-1.651-1.58-1.651-.255-.364-.493-1.707-.493-1.707-.119-.479-.418-1.988-.418-1.988-.149-.596-.476-.92-.476-.92-.281-.36-.689-.578-.689-.578-.413-.317-.778-.194-1.053.169-.291.381-.187.804.139 1.028l1.508 1.152-.999 1.313-1.236-.945c-1.198-.915-1.555-2.168-.573-3.46.964-1.257 2.275-1.286 3.49-.359 0 0 .344.224.727.604 0 0 .568.513.824 1.474 0 0 .477 2.521.596 2.993 0 0 .179.963 1.379 1.64" style="fill:#fff;fill-opacity:1;fill-rule:nonzero;stroke:none;stroke-width:.281997" transform="matrix(1.251 0 0 -1.251 162.831 41.9)"/></g><g style="stroke-width:.281997"><path d="m0 0 9.094 1.121c.517.063.769-.226.824-.678.064-.516-.188-.762-.639-.817L.187-1.496l.202-1.635 8.902 1.099C10.806-2 11.73-.946 11.532.662c-.195 1.573-1.334 2.411-2.831 2.072L-.201 1.635Z" style="fill:#fff;fill-opacity:1;fill-rule:nonzero;stroke:none;stroke-width:.281997" transform="matrix(1.251 0 0 -1.251 168.978 84.906)"/></g><g style="stroke-width:.281997"><path d="m0 0 1.186-.979L5.31 2.408 2.788-2.299l1.317-1.092L7.227 3.29l2.539 3.079-1.264 1.036L5.966 4.33Z" style="fill:#fff;fill-opacity:1;fill-rule:nonzero;stroke:none;stroke-width:.281997" transform="matrix(1.251 0 0 -1.251 139.958 35.247)"/></g><g style="stroke-width:.281997"><path d="M0 0c-.335.538-.811.413-1.717-.13-.827-.495-1.372-.974-1.007-1.561l.366-.612L.368-.611zm1.478.08 4.478 2.782.861-1.388-9.435-5.863L-4-2.169C-4.783-.91-4.464.122-3.003 1.03c1.38.855 2.399 1.018 3.282-.405L.205.761c-.574.921-.64 1.833.594 2.6l2.358 1.45s.772.391 1.02.904l.892-1.436s-.189-.344-1.276-.996L1.745 2.019c-.609-.382-.851-.9-.588-1.392Z" style="fill:#fff;fill-opacity:1;fill-rule:nonzero;stroke:none;stroke-width:.281997" transform="matrix(1.251 0 0 -1.251 163.21 52.531)"/></g><g style="stroke-width:.281997"><path d="M0 0c-.437.12-.766-.014-.901-.516-.118-.438.004-.799.506-.937L6.63-3.359c.437-.121.766.011.901.514.12.438-.004.8-.507.939zm7.274-.267c1.469-.398 2.247-1.46 1.833-2.987-.423-1.563-1.641-2.042-3.092-1.649L-.493-3.132c-1.473.395-2.251 1.455-1.835 2.984.424 1.566 1.641 2.044 3.096 1.649z" style="fill:#fff;fill-opacity:1;fill-rule:nonzero;stroke:none;stroke-width:.281997" transform="matrix(1.251 0 0 -1.251 169.583 114.216)"/></g><g style="stroke-width:.281997"><path d="m0 0-10.494 3.646-.537-1.543L-.536-1.544Z" style="fill:#fff;fill-opacity:1;fill-rule:nonzero;stroke:none;stroke-width:.281997" transform="matrix(1.251 0 0 -1.251 179.03 123.14)"/></g><g style="stroke-width:.281997"><path d="m0 0-10.594-3.346.492-1.559L.491-1.561z" style="fill:#fff;fill-opacity:1;fill-rule:nonzero;stroke:none;stroke-width:.281997" transform="matrix(1.251 0 0 -1.251 179.192 67.368)"/></g><g style="stroke-width:.281997"><path d="m0 0-8.294-7.389 1.085-1.217 8.298 7.384z" style="fill:#fff;fill-opacity:1;fill-rule:nonzero;stroke:none;stroke-width:.281997" transform="matrix(1.251 0 0 -1.251 160.501 35.324)"/></g><g style="stroke-width:.281997"><path d="m0 0-9.695-.089.014-1.635 11.1.101-.037 4.008-1.404-.013z" style="fill:#fff;fill-opacity:1;fill-rule:nonzero;stroke:none;stroke-width:.281997" transform="matrix(1.251 0 0 -1.251 181.912 94.43)"/></g><g style="stroke-width:.281997"><path d="m0 0-2.562 5.745L1.003.562Zm3.448-2.995 1.479.827-6.612 9.007-2.014-1.127L.531-4.631l1.225.687L.573-1.288l1.229.689z" style="fill:#fff;fill-opacity:1;fill-rule:nonzero;stroke:none;stroke-width:.281997" transform="matrix(1.251 0 0 -1.251 134.946 167.99)"/></g><g style="stroke-width:.281997"><path d="m0 0-4.062 4.804L.808.82Zm4.148-1.917L5.335-.713l-8.859 6.81-1.62-1.647 6.945-8.753.987 1.004L.909-1.077l.989 1.003z" style="fill:#fff;fill-opacity:1;fill-rule:nonzero;stroke:none;stroke-width:.281997" transform="matrix(1.251 0 0 -1.251 153.712 153.934)"/></g><g style="stroke-width:.281997"><path d="m0 0-5.29 3.407L.533 1.021Zm4.526-.619L5.31.883-5.154 4.801-6.222 2.75l9.203-6.333.649 1.244L1.185-.762 1.836.485Z" style="fill:#fff;fill-opacity:1;fill-rule:nonzero;stroke:none;stroke-width:.281997" transform="matrix(1.251 0 0 -1.251 168.39 134.15)"/></g><g style="stroke-width:.281997"><path d="m0 0-6.207 1.028 6.29.12zm4.401 1.229.121 1.687-11.159-.556-.167-2.301 10.96-2.165.104 1.397-2.871.477.101 1.404Z" style="fill:#fff;fill-opacity:1;fill-rule:nonzero;stroke:none;stroke-width:.281997" transform="matrix(1.251 0 0 -1.251 177.894 101.81)"/></g><g style="stroke-width:.281997"><path d="m0 0 5.179-7.518-6.493 6.615-1.994-1.377 6.297-9.149 1.093.754-5.55 8.061 6.959-7.091 1.902 1.308-6.3 9.15z" style="fill:#fff;fill-opacity:1;fill-rule:nonzero;stroke:none;stroke-width:.281997" transform="matrix(1.251 0 0 -1.251 138.703 155.6)"/></g><g style="stroke-width:.281997"><path d="m0 0 7.683-4.93-8.544 3.585-1.307-2.038 9.347-5.999.717 1.117-8.238 5.286L8.82-6.826l1.245 1.945-9.35 5.995z" style="fill:#fff;fill-opacity:1;fill-rule:nonzero;stroke:none;stroke-width:.281997" transform="matrix(1.251 0 0 -1.251 158.75 133.93)"/></g><g style="stroke-width:.281997"><path d="m0 0 9.009-1.475-9.264-.102-.392-2.389 10.962-1.792.212 1.306L.87-2.869l9.936.107.369 2.282L.215 1.307z" style="fill:#fff;fill-opacity:1;fill-rule:nonzero;stroke:none;stroke-width:.281997" transform="matrix(1.251 0 0 -1.251 168.963 105.387)"/></g><g style="stroke-width:.281997"><path d="m0 0 8.896 2.061L.361-1.554l.548-2.359 10.819 2.506-.299 1.292-9.535-2.207 9.149 3.874-.521 2.247L-.299 1.293Z" style="fill:#fff;fill-opacity:1;fill-rule:nonzero;stroke:none;stroke-width:.281997" transform="matrix(1.251 0 0 -1.251 167.362 76.495)"/></g><g style="stroke-width:.281997"><path d="m0 0-2.979-3.55 1.074-.896.945 1.124 7.425-6.237 1.054 1.253L.09-2.069 1.075-.9z" style="fill:#fff;fill-opacity:1;fill-rule:nonzero;stroke:none;stroke-width:.281997" transform="matrix(1.251 0 0 -1.251 154.062 140.824)"/></g><g style="stroke-width:.281997"><path d="m0 0-1.812-4.265 1.291-.549.575 1.353 8.923-3.793.641 1.502L.692-1.954 1.291-.55z" style="fill:#fff;fill-opacity:1;fill-rule:nonzero;stroke:none;stroke-width:.281997" transform="matrix(1.251 0 0 -1.251 164.863 121.57)"/></g><g style="stroke-width:.281997"><path d="m0 0 3.302-3.25.982.997-1.047 1.032 6.804 6.909-1.164 1.147L2.072-.073.983.998Z" style="fill:#fff;fill-opacity:1;fill-rule:nonzero;stroke:none;stroke-width:.281997" transform="matrix(1.251 0 0 -1.251 145.333 39.734)"/></g><g style="stroke-width:.281997"><path d="M0 0c-.467.546-1.014.706-1.462.371l-.491-.399L.651-3.074l.53.449c.482.413.298.872-.35 1.712C.451-.422 0 0 0 0m2.233.007c.966-1.302 1.33-2.248.061-3.336L.229-5.097l-7.22 8.441 1.987 1.703c1.124.963 2.193.802 3.31-.505 1.054-1.23 1.369-2.213.098-3.302l.121.093c.825.705 1.925.745 2.7-.158 0 0 .911-1.043 1.008-1.168m-4.491 1.412c.482.415.286.862-.388 1.678-.613.744-1.168 1.211-1.697.757l-.548-.453L-2.803.965Z" style="fill:#fff;fill-opacity:1;fill-rule:nonzero;stroke:none;stroke-width:.281997" transform="matrix(1.251 0 0 -1.251 150.085 157.87)"/></g><g style="stroke-width:.281997"><path d="m0 0 1.754-3.862L.458-4.45-1.295-.588l-1.488-.676 4.591-10.115 1.488.676L1.04-5.727l1.294.585 2.257-4.973 1.49.674L1.492.674z" style="fill:#fff;fill-opacity:1;fill-rule:nonzero;stroke:none;stroke-width:.281997" transform="matrix(1.251 0 0 -1.251 126.614 162.686)"/></g><g style="stroke-width:.281997"><path d="m0 0-21.968-5.888-12.841 47.919 21.968 5.886z" style="fill:#e4615b;fill-opacity:1;fill-rule:nonzero;stroke:none;stroke-width:.281997" transform="matrix(1.251 0 0 -1.251 83.091 115.397)"/></g><g style="stroke-width:.281997"><path d="m0 0-47.927-12.839-5.886 21.959 47.924 12.841Z" style="fill:#306b9c;fill-opacity:1;fill-rule:nonzero;stroke:none;stroke-width:.281997" transform="matrix(1.251 0 0 -1.251 122.927 134.166)"/></g><g style="stroke-width:.281997"><path d="m0 0-21.966-5.885-12.839 47.914 21.963 5.893z" style="fill:#0096b8;fill-opacity:1;fill-rule:nonzero;stroke:none;stroke-width:.281997" transform="matrix(1.251 0 0 -1.251 150.4 126.804)"/></g><g style="stroke-width:.281997"><path d="m0 0-47.919-12.84-5.889 21.962 47.923 12.839Z" style="fill:#e0af75;fill-opacity:1;fill-rule:nonzero;stroke:none;stroke-width:.281997" transform="matrix(1.251 0 0 -1.251 134.338 66.863)"/></g><g style="stroke-width:.281997"><path d="M0 0h-1.021v2.535h-1.15v-6.281h1.15v2.458H0Z" style="fill:#fff;fill-opacity:1;fill-rule:nonzero;stroke:none;stroke-width:.281997" transform="matrix(1.251 0 0 -1.251 100.582 8.999)"/></g><path d="M318.667 461.268h-2.489v1.687h2.489zm1.145 4.457h-1.145v-1.521h-2.489v1.521h-1.143v-5.717h4.777z" style="fill:#fff;fill-opacity:1;fill-rule:nonzero;stroke:none;stroke-width:.281997" transform="matrix(1.251 0 0 -1.251 -303.71 588.76)"/><g style="stroke-width:.281997"><path d="M0 0v.684h5.277v1.178H0v.68h5.277v1.174h-6.423v-4.93h6.543V0Z" style="fill:#fff;fill-opacity:1;fill-rule:nonzero;stroke:none;stroke-width:.281997" transform="matrix(1.251 0 0 -1.251 92.717 18.932)"/></g><g style="stroke-width:.281997"><path d="m0 0-.532-3.357-.888.14.531 3.358-1.129.179-1.2-7.574-3.104.491.949 5.997 2.11-.335.202 1.278-3.242.513-1.355-8.561 4.236-.671-.457-2.888 1.13-.178 1.127 7.117.888-.141-1.127-7.117 1.128-.179L1.128-.178z" style="fill:#fff;fill-opacity:1;fill-rule:nonzero;stroke:none;stroke-width:.281997" transform="matrix(1.251 0 0 -1.251 112.617 7.989)"/></g><g style="stroke-width:.281997"><path d="m0 0 2.576 5.283-1.029.502L-1.029.502l-.998.487L.549 6.271l-1.03.503-2.577-5.283-1.406.686-.567-1.162L2.09-2.458l.566 1.162Z" style="fill:#fff;fill-opacity:1;fill-rule:nonzero;stroke:none;stroke-width:.281997" transform="matrix(1.251 0 0 -1.251 132.296 28.049)"/></g><g style="stroke-width:.281997"><path d="m0 0-6.004 2.929-.567-1.162L-1.596-.66l-3.089-6.334 1.029-.502Z" style="fill:#fff;fill-opacity:1;fill-rule:nonzero;stroke:none;stroke-width:.281997" transform="matrix(1.251 0 0 -1.251 140.138 18.732)"/></g><g style="stroke-width:.281997"><path d="M0 0c.818.13 1.275.814 1.132 1.722-.146.916-.793 1.421-1.609 1.291-.816-.129-1.276-.809-1.13-1.725C-1.464.383-.817-.13 0 0m-2.706 1.092c-.257 1.625.571 2.849 2.045 3.083 1.473.232 2.64-.675 2.898-2.3C2.494.256 1.663-.975.191-1.208c-1.466-.232-2.64.682-2.897 2.3" style="fill:#fff;fill-opacity:1;fill-rule:nonzero;stroke:none;stroke-width:.281997" transform="matrix(1.251 0 0 -1.251 79.98 15.017)"/></g><g style="stroke-width:.281997"><path d="m0 0-.43 2.714-1.134-.18.631-3.988 6.72 1.065L5.586.885z" style="fill:#fff;fill-opacity:1;fill-rule:nonzero;stroke:none;stroke-width:.281997" transform="matrix(1.251 0 0 -1.251 80.045 20.498)"/></g><g style="stroke-width:.281997"><path d="m0 0-.991-.157-.525 3.307-1.13-.179 1.267-8 1.131.178-.542 3.419.991.158z" style="fill:#fff;fill-opacity:1;fill-rule:nonzero;stroke:none;stroke-width:.281997" transform="matrix(1.251 0 0 -1.251 86.653 10.498)"/></g><g style="stroke-width:.281997"><path d="m0 0-.141.886-1.13-.179.14-.886-1.951-.309.192-1.214 5.077.804L1.994.316z" style="fill:#fff;fill-opacity:1;fill-rule:nonzero;stroke:none;stroke-width:.281997" transform="matrix(1.251 0 0 -1.251 79.638 8.214)"/></g><g style="stroke-width:.281997"><path d="M0 0c.79-.248 1.504.161 1.781 1.037.278.883-.075 1.625-.863 1.873S-.585 2.755-.864 1.871C-1.14.996-.79.249 0 0m-1.936 2.186c.496 1.569 1.784 2.293 3.207 1.845C2.69 3.583 3.333 2.25 2.838.68 2.345-.883 1.052-1.614-.368-1.166c-1.416.447-2.06 1.789-1.568 3.352" style="fill:#fff;fill-opacity:1;fill-rule:nonzero;stroke:none;stroke-width:.281997" transform="matrix(1.251 0 0 -1.251 119.594 17.589)"/></g><g style="stroke-width:.281997"><path d="m0 0 .27.855-1.092.344-.269-.856-1.886.595-.369-1.173L1.557-1.78l.369 1.172Z" style="fill:#fff;fill-opacity:1;fill-rule:nonzero;stroke:none;stroke-width:.281997" transform="matrix(1.251 0 0 -1.251 122.323 11.346)"/></g><g style="stroke-width:.281997"><path d="m0 0-1.055.331.851 2.695-1.093.343-2.269-7.195 1.093-.343 1.03 3.266 1.054-.331z" style="fill:#fff;fill-opacity:1;fill-rule:nonzero;stroke:none;stroke-width:.281997" transform="matrix(1.251 0 0 -1.251 127.737 15.887)"/></g><g style="stroke-width:.281997"><path d="m0 0-.39-1.236 5.597-1.765-.8-2.533L5.5-5.879l1.188 3.77z" style="fill:#fff;fill-opacity:1;fill-rule:nonzero;stroke:none;stroke-width:.281997" transform="matrix(1.251 0 0 -1.251 116.074 19.103)"/></g><g style="stroke-width:.281997"><path d="m0 0-.373 1.181L-4.39-.085-4.724.978l3.721 1.172-1.055 3.345-4.815-1.517.375-1.19 3.725 1.173.305-.966-3.725-1.174 1.082-3.433Z" style="fill:#fff;fill-opacity:1;fill-rule:nonzero;stroke:none;stroke-width:.281997" transform="matrix(1.251 0 0 -1.251 71.052 17.385)"/></g><g style="stroke-width:.281997"><path d="m0 0-1.091-.344-1.96 6.216 1.092.344z" style="fill:#fff;fill-opacity:1;fill-rule:nonzero;stroke:none;stroke-width:.281997" transform="matrix(1.251 0 0 -1.251 73.64 16.873)"/></g><g style="stroke-width:.281997"><path d="m0 0 .366-1.163-4.422-1.394-.367 1.164zm-.387 1.228L-4.81-.168l-.302.96-1.09-.343 1.445-4.582L1.849-2.05.403 2.532l-1.091-.345Z" style="fill:#fff;fill-opacity:1;fill-rule:nonzero;stroke:none;stroke-width:.281997" transform="matrix(1.251 0 0 -1.251 73.275 20.48)"/></g><g style="stroke-width:.281997"><path d="m0 0-.569 1.168-.412-.201-1.791 3.674-6.418-3.13.572-1.172 5.387 2.627L-2.012.465l-5.595-2.73.57-1.168 2.96 1.445.822-1.687-2.901-1.415.57-1.168L.042-3.513l1.342-2.752 1.028.501L.5-1.844l-2.729-1.33-.822 1.686z" style="fill:#fff;fill-opacity:1;fill-rule:nonzero;stroke:none;stroke-width:.281997" transform="matrix(1.251 0 0 -1.251 60.74 20.27)"/></g></g></svg>