<svg xmlns="http://www.w3.org/2000/svg" viewBox="0 0 181.95 172.38"><defs><linearGradient id="a" x1="-2329.6" x2="-2328.49" y1="2422.43" y2="2422.43" gradientTransform="matrix(88.53 82.32 82.32 -88.53 6819.37 406257.38)" gradientUnits="userSpaceOnUse"><stop offset="0" stop-color="#0099d9"/><stop offset="0.26" stop-color="#0096d7"/><stop offset="0.44" stop-color="#008dd0"/><stop offset="0.6" stop-color="#007ec5"/><stop offset="0.74" stop-color="#0068b5"/><stop offset="0.87" stop-color="#004da1"/><stop offset="0.92" stop-color="#004098"/></linearGradient></defs><path d="M149.62 142.62a1.76 1.76 0 1 1-.46-2.45 1.76 1.76 0 0 1 .46 2.45ZM76 143a4.26 4.26 0 0 1-.42-.43 2.42 2.42 0 0 1-.6-2.51 2.13 2.13 0 0 1 .59-.88 2.93 2.93 0 0 1 3.1-.36 5 5 0 0 1 1.8 1.17l-.51 1.34a3.14 3.14 0 0 0-1.65-1.33 1.55 1.55 0 0 0-1.38.06 1.08 1.08 0 0 0-.43.52c-.28.74.36 1.33.82 1.77l.49.45a4 4 0 0 1 .93 1.25 2.32 2.32 0 0 1 0 1.66 2.45 2.45 0 0 1-.66.95 3.33 3.33 0 0 1-3.26.34 7 7 0 0 1-1.58-.9c-.17-.13-.32-.27-.49-.42l.54-1.37a3.77 3.77 0 0 0 .31.42 3.93 3.93 0 0 0 1.54 1.13 1.42 1.42 0 0 0 2-.65 1.21 1.21 0 0 0 .08-.48 2.06 2.06 0 0 0-.83-1.28ZM79.38 148.31l1.67-5.7 1.35.39-1.67 5.71Zm2.7-6.73a.73.73 0 0 1-.51-.91.81.81 0 0 1 .19-.32.78.78 0 0 1 .74-.16.74.74 0 0 1 .51.91.72.72 0 0 1-.93.48ZM86.45 150.06l.62-3c0-.19.07-.39.11-.59a1.16 1.16 0 0 0-1-1.56 2.44 2.44 0 0 0-1.41.16l-.93 4.46-1.37-.29 1.21-5.82 1.37.28-.23 1.1 1-.89a3.46 3.46 0 0 1 1.21.05 1.86 1.86 0 0 1 1.65 1.56 3.39 3.39 0 0 1-.07.95l-.81 3.88ZM94.53 146.55a1.17 1.17 0 0 0-.16-.15 2.21 2.21 0 0 0-1.21-.51 1.93 1.93 0 0 0-.88.1 2.07 2.07 0 0 0-1.21 1.76 2 2 0 0 0 1.84 2.31 3.92 3.92 0 0 0 1.5-.17l-.79 1.11a4 4 0 0 1-1.26.07 3.61 3.61 0 0 1-1.15-.33 2.92 2.92 0 0 1-1.65-3.07 3.21 3.21 0 0 1 1.2-2.23 3.25 3.25 0 0 1 2.37-.58 4.21 4.21 0 0 1 1.54.49ZM96.52 148.25a2.89 2.89 0 0 0 .17.9 1.88 1.88 0 0 0 1.94 1.13 4.46 4.46 0 0 0 1.7-.35l-.71 1.19a5.33 5.33 0 0 1-1.41.18 3.46 3.46 0 0 1-2.4-.88 3.1 3.1 0 0 1-.81-2.26 3.84 3.84 0 0 1 .22-1.28 2.74 2.74 0 0 1 2.68-1.82 2.49 2.49 0 0 1 2.15 1.06 3.74 3.74 0 0 1 .49 2.17Zm2.6-.87a2.46 2.46 0 0 0-.09-.58 1.15 1.15 0 0 0-1.12-.79 1.34 1.34 0 0 0-1.24 1 1.39 1.39 0 0 0-.12.38ZM107.94 150.45l-1-6.37-1.16.88-.19-1.2 2.53-1.85 1.32 8.3ZM111.87 149.78a7.3 7.3 0 0 0 1-1.09 6.68 6.68 0 0 0 1.22-2.39c0-.19.08-.38.1-.56a2.48 2.48 0 0 1-4.31-1.13 2.87 2.87 0 0 1-.07-1.07 2.77 2.77 0 0 1 2.2-2.44 3.16 3.16 0 0 1 1.28-.06 3 3 0 0 1 2.35 2.43 6 6 0 0 1-.6 4.25 7 7 0 0 1-1 1.52Zm1.29-7.52a1.24 1.24 0 0 0-.84-.06 1.29 1.29 0 0 0-.54.27 1.74 1.74 0 0 0-.39 1.74 1.39 1.39 0 0 0 1.71 1.21 1.37 1.37 0 0 0 .67-.41 2 2 0 0 0-.61-2.75ZM121.45 146.9l-.73-1.94-3.55 1.33-.13-.36 1.29-6.65 1.6-.59 1.75 4.69 1.18-.44-.35 1.35-.43.16.73 1.94Zm-2.3-6.21-.61 3.87 1.79-.67ZM124.45 143.78a3.41 3.41 0 0 0 2.19-.26 2 2 0 0 0 .7-.55 1.57 1.57 0 0 0-1.11-2.5 3.27 3.27 0 0 0-1.86.45c-.3.15-.58.32-.87.49l-1.18-3.77 3.79-1.91.52 1-2.63 1.37.51 1.65c.12-.07.27-.13.4-.19a3.75 3.75 0 0 1 2.16-.36 2 2 0 0 1 .77.27 2.67 2.67 0 0 1 1.08 1.13 2.74 2.74 0 0 1 .29 1.12 3 3 0 0 1-1.91 2.79 5.33 5.33 0 0 1-2.19.55Z" style="fill:#004098"/><path d="M0 19.14v141c6.7-1.14 70.72-15.6 109.82-60.81v-7.82a223.3 223.3 0 0 1-18.18 13.71v-23.3c-6.11 1.55-11.88 3-18.37 4.51v29.85a191.37 191.37 0 0 1-35.71 14.66V36c6 .36 21.07 3 35.71 6.51V66c6.5-.16 12.25-.32 18.37-.43V48.09A146.59 146.59 0 0 1 109.82 54v-7.84C79.76 23.7 1.9 18.22 0 19.14Z" style="fill:url(#a)"/><path d="M31.68 37.66v91.52l5.88 1.76V36.01l-5.88 1.65zM91.64 48.09l-4.71 1.19v16.37l4.71-.1ZM86.93 83.1V104l4.71 1.27V81.92Z" style="fill:#002870"/><path d="m70.81 20.09-2.49-5.8-5.91 2.54 2.49 5.8-2.35 1L57.1 11l2.36-1 2.17 5 5.91-2.54-2.18-5.05 2.35-1 5.45 12.68ZM83.53 16.59l-2-3.05-5.35 1.24-.5 3.63-2.53.59 2.32-14.7 2.43-.56L86.25 16Zm-6-9.19c-.13-.23-.27-.46-.38-.68v.73L76.39 13l4.15-1ZM97.72 15.51l-9.41-9.57.51 10-2.54.06-.6-13.79 2.4-.1L96 10.34l-.45-8.55L98 1.68l.6 13.79ZM104 9.85a8.52 8.52 0 0 1-.82-.52 3.91 3.91 0 0 1-1.92-3.72 3.77 3.77 0 0 1 .57-1.61 4.78 4.78 0 0 1 4.75-1.76 8.33 8.33 0 0 1 3.28 1.14l-.28 2.31a5.14 5.14 0 0 0-3.08-1.57 2.49 2.49 0 0 0-2.14.63 1.77 1.77 0 0 0-.48 1c-.15 1.28 1.08 2 2 2.47l.94.53a6.65 6.65 0 0 1 2 1.62 3.76 3.76 0 0 1 .64 2.6 3.92 3.92 0 0 1-.67 1.77c-1.52 2.14-4.42 1.86-5 1.78a11.85 11.85 0 0 1-2.84-.8 10.14 10.14 0 0 1-.93-.47l.31-2.36a7.1 7.1 0 0 0 .65.53 6.47 6.47 0 0 0 2.87 1.18c2 .25 2.79-.94 2.89-1.79a1.72 1.72 0 0 0-.06-.79 3.23 3.23 0 0 0-1.8-1.68ZM123 15.27a6.24 6.24 0 0 1-1 2.12c-2 2.81-5.75 1.72-6.42 1.53a9 9 0 0 1-2.08-.92 4.94 4.94 0 0 1-2.44-3.44 6.77 6.77 0 0 1 .33-2.71l2.43-8.21 2.48.73-2.19 7.4a11.73 11.73 0 0 0-.46 1.87 2.75 2.75 0 0 0 .62 2.26 3.73 3.73 0 0 0 1.89 1.19 3.39 3.39 0 0 0 3.11-.45 5 5 0 0 0 1.45-2.85l2.22-7.49 2.44.76ZM133.36 26.39l-3.25-13-4.62 8.84-2.24-1.23 6.49-12.18 2.12 1.18 2.61 11.09 4-7.59 2.21 1.17-6.49 12.18ZM151.52 26.6a7.9 7.9 0 0 0-2.38-3.49 5.71 5.71 0 0 0-2-1.13 5.09 5.09 0 0 0-5.61 1.75 6.09 6.09 0 0 0-1.23 2.57 5.58 5.58 0 0 0-.09 1.07 5.06 5.06 0 0 0 2 3.82 5.76 5.76 0 0 0 2.45 1.2l2-2.41-2.73-2.24L146 27l3.75 3.08-4 4.77c-.25-.05-.46-.1-.66-.16a11.94 11.94 0 0 1-4.33-2.24 8.77 8.77 0 0 1-2.15-2.52 6.79 6.79 0 0 1 .81-7.9 7.15 7.15 0 0 1 5.23-2.64 8.58 8.58 0 0 1 5.62 2.11 13.35 13.35 0 0 1 2.8 3.25ZM160.25 46.28a6.54 6.54 0 0 1-2 1.12c-3.31 1-5.62-2.12-6-2.69a8.47 8.47 0 0 1-1.09-2 5 5 0 0 1 .13-4.22 7 7 0 0 1 1.91-2l6.91-5 1.53 2.08-6.23 4.56a13.72 13.72 0 0 0-1.49 1.21 2.74 2.74 0 0 0-.88 2.17 3.67 3.67 0 0 0 .78 2.09 3.37 3.37 0 0 0 2.74 1.53 5 5 0 0 0 2.89-1.38l6.31-4.62 1.48 2.09ZM161.82 61.42l5.28-12.34-9 4.25L157 51l12.52-5.79 1 2.18-4.62 10.42 7.74-3.66 1.05 2.27-12.49 5.82ZM162.59 64.2l13.19-4.06.76 2.47-13.19 4.06ZM164.66 72l12.56-7.93.52 2.79-9.88 5.87 11.35 2 .47 2.52-14.59-3ZM165.9 79.83l13.8-.44.26 8.08-2 .07-.13-5.54-3.68.12.16 4.76-2 .07-.15-4.77-4.24.14.21 6.42-2-1.07ZM165.22 97.5l6.36-3a13 13 0 0 1 .1-1.38l.08-.74-5.88-.67.29-2.51 13.7 1.57-.59 5.23a4.32 4.32 0 0 1-2 3.25 3.75 3.75 0 0 1-2.26.41 3.63 3.63 0 0 1-2.6-1.49 5.46 5.46 0 0 1-.58-1.07l-7 3.25Zm8.18-3.76a3.13 3.13 0 0 0 .5 2.71 2 2 0 0 0 1.28.62 2.06 2.06 0 0 0 1.25-.21c1-.5 1-1.55 1.15-2.48l.14-1.27-5.72-.65Z" style="fill:#004098"/><path d="M170.05 104.8a7 7 0 0 1 .62-.74 3.92 3.92 0 0 1 4-1.4 3.63 3.63 0 0 1 1.52.81 4.75 4.75 0 0 1 1.1 4.94 8.18 8.18 0 0 1-1.57 3.1l-2.25-.59a5.11 5.11 0 0 0 2-2.84 2.46 2.46 0 0 0-.32-2.21 1.77 1.77 0 0 0-.91-.61c-1.25-.33-2.09.81-2.71 1.63l-.66.86a6.35 6.35 0 0 1-1.87 1.71 3.67 3.67 0 0 1-2.66.28 3.83 3.83 0 0 1-1.66-.9c-1.91-1.8-1.24-4.63-1.09-5.2a11.47 11.47 0 0 1 1.18-2.7 9.39 9.39 0 0 1 .59-.86l2.3.63a6.78 6.78 0 0 0-2.26 3.29c-.52 2 .55 2.89 1.38 3.11a2 2 0 0 0 .79.05 3.26 3.26 0 0 0 1.91-1.55ZM162 109.68l13 4.83-.9 2.42-12.92-4.84ZM159.47 115.94l10.64 5.21 1.86-3.79 1.75.86-4.82 9.86-1.76-.85 1.85-3.78-10.64-5.21ZM154.05 125.52l4.27 3 9.91.83-1.63 2.31-7.16-.65 3 6.51-1.44 2.15-4.15-9-4.27-3Z" style="fill:#004098"/><circle cx="95.76" cy="86.19" r="86.19" style="fill:none" transform="rotate(-79.69 95.765 86.187)"/><path d="m142.08 152.7 1-.6 1.33 2.23-13.22 7.88-1.33-2.21 2.22-1.33-3.08-5.18 2.5-1.49 3.08 5.16 1.21-.72-3.08-5.17 2.48-1.47 3.07 5.16 1.31-.78Zm-.35-.58-5.45-9.12-11.28 6.67 1.32 2.23 8.74-5.21 4.12 6.92Zm-39.55 3.4v4.55h-.68v-4.55h-2.59v9.3h-5.24v-6H98v-2.6h-7.26v11.2h8.17v3.22h2.59v-8h.68v7.94h2.66v-15.06ZM56.46 149a3.49 3.49 0 0 1 1.44-1.41l-1-.53 1.16-2.16 3.09 1.67.64-1.2 2.71 1.45-.64 1.2 3.14 1.63-1.15 2.16-1-.55a3.47 3.47 0 0 1-.39 2c-1 1.89-3.61 2.46-5.81 1.29s-3.2-3.68-2.19-5.55Zm2.38 1.35a1.8 1.8 0 1 0 2.29-.51 1.67 1.67 0 0 0-2.29.49Zm-2.62 7.15 9 4.86-1.22 2.26-11.62-6.24L55 153.5l2.57 1.39Zm13.15-3 1.73.93-1.24 2.31-1.73-.93-2 3.72-2.58-1.38 5-9.25 2.57 1.38Zm39.66 5a3.31 3.31 0 0 1 0-1.87l-1 .31-.71-2.35 3.37-1-.4-1.3 3-.89.39 1.3 3.35-1 .7 2.35-1 .32a3.19 3.19 0 0 1 1 1.55c.6 2-.85 4.17-3.23 4.89s-4.87-.35-5.5-2.33Zm2.64-.73a1.6 1.6 0 0 0 2.08.76c.94-.29 1.53-1.09 1.31-1.79A1.58 1.58 0 0 0 113 157c-1 .24-1.55 1-1.33 1.75Zm-.43 4.5 12.35-3.73 1.77 5.84-2.8.85-1-3.36-9.56 2.87Zm10.4-10.18 1.89-.57.75 2.49-1.88.57.95 3.16-2.8.84-2.37-7.86 2.79-.85ZM85.45 167c-.45 2.09-3.49 3.21-6.79 2.49s-5.6-3-5.15-5.07 3.49-3.21 6.79-2.5 5.6 2.99 5.15 5.08Zm-3.07-.67c.18-.86-1-1.83-2.56-2.18s-3 .07-3.23.93 1 1.84 2.55 2.19 3.05-.08 3.24-.94Zm2.74-11.64 2.85.61-1.67 7.79-2.86-.62.89-4.12-2.61-.56.52-2.43 2.62.57ZM72.71 160l-1-2.35a5.81 5.81 0 0 0 5.07-4.3l.1-.44 3 .63-.1.45a5.82 5.82 0 0 0 2.85 6l-1.87 1.73a9.37 9.37 0 0 1-3.36-3.89 9.47 9.47 0 0 1-4.69 2.17Z" style="fill:#004098"/></svg>