<svg xmlns="http://www.w3.org/2000/svg" viewBox="0 0 185 153.42"><path d="m18.89 49.48.6-1.32 5.38 2.48-3.58-6.39.81-1.75 3.8 7 8.59-1.69-.88 1.92L25.73 51l6 2.76-.61 1.31ZM28.29 32.37c1.82-2.48 5.27-2.17 8.49.2s4.56 5.55 2.74 8-5.19 2.22-8.49-.2-4.55-5.53-2.74-8Zm9.86 7.23c1.38-1.87-.11-4.21-2.27-5.8s-4.92-2.24-6.22-.43.07 4.18 2.28 5.8 4.83 2.31 6.21.43ZM36.48 23.11l1.82-1.67c1.47-1.36 3.18-2.34 5.36 0a2.94 2.94 0 0 1 .54 3.67 2.06 2.06 0 0 1 1.64.33l5 2.66-1.21 1.11-4.3-2.39c-1.22-.66-1.57-.34-2.13.18l-.64.59 4 4.4-1.07 1Zm5 3.29.91-.84a2 2 0 0 0 .18-3 1.82 1.82 0 0 0-2.83-.1l-1 .94ZM47.4 14.05 52.16 11l.92 1.43-3.54 2.27 2.12 3.3 3.23-2.07.92 1.43-3.23 2.07L55 23.17l3.54-2.27.92 1.43-4.76 3.05ZM61.93 6.16l1.41-.57 9 10.87-1.46.59-2.23-2.76-4.58 1.87.32 3.53-1.4.57Zm1.34 1.42.65 6.94L67.65 13ZM82.33.61l2-.15 5.29 10.46L88.76.11 90.2 0l1 13.42-1.84.15L84 2.89l.86 11-1.48.11ZM101.55.57l1.5.18 2.6 13.89-1.57-.19-.6-3.5-4.92-.6-1.43 3.24-1.51-.18Zm.45 1.88-2.78 6.38 4 .49ZM114.14 4.81l-3-.9.49-1.63L119 4.5l-.49 1.63-3-.9-3.37 11.27-1.38-.42ZM124.73 6.88l1.31.6-5.58 12.25-1.31-.6ZM136.58 13.14c2.56 1.7 2.41 5.17.19 8.49s-5.34 4.81-7.9 3.1-2.46-5.08-.19-8.48 5.32-4.81 7.9-3.11Zm-6.77 10.18c1.94 1.29 4.2-.31 5.69-2.54s2-5 .14-6.23-4.17.26-5.68 2.54-2.09 4.91-.15 6.23ZM146.42 21l1.38 1.41-4.62 10.77 7.73-7.59 1 1-9.61 9.43-1.3-1.23 4.7-11-7.9 7.76-1-1ZM158.8 35.75l.83 1.28-9 10.9-.86-1.33 2.3-2.7-2.69-4.16-3.41 1-.83-1.27Zm-1.14 1.58L151 39.27l2.18 3.38ZM164.88 46.69l.56 1.34-10.86 4.53 1.63 3.9-1.57.66-2.19-5.24ZM28.23 104.83c-3.58 1.21-6 .51-6.76-1.85s.66-4.36 4.24-5.58l7.47-2.54.46 1.37-7.23 2.46c-2.45.83-3.93 2-3.33 3.75s2.48 1.77 4.93.94l7.23-2.46.46 1.37ZM37.05 105.31 38 107l-7.28 9.19 9.45-5.3.71 1.26-11.74 6.58-.91-1.61 7.42-9.41-9.65 5.44-.71-1.26ZM43.23 115.32l.87 1.15-10.71 8.15-.88-1.15ZM40.15 132.21l-1.28-1.28 6.85-12.2 1.15 1.15-6.14 10.51 10.59-6 1.07 1.07ZM54.41 126.93l4.59 3.32-1 1.38-3.41-2.48-2.31 3.19 3.11 2.25-1 1.37-3.1-2.25-2.61 3.6 3.41 2.47-1 1.37-4.58-3.32ZM61.82 132l2.2 1.12c1.78.91 3.3 2.16 1.84 5a2.94 2.94 0 0 1-3.25 1.78 2 2 0 0 1 .26 1.65l-.73 5.64-1.47-.75.74-4.86c.2-1.37-.23-1.59-.91-1.94l-.77-.39-2.73 5.41-1.3-.66Zm-1.34 5.81 1.09.56a2 2 0 0 0 2.91-.88 1.83 1.83 0 0 0-.9-2.69l-1.24-.64ZM74.66 139.65a3.58 3.58 0 0 0-1.66-1.13 1.63 1.63 0 0 0-2.24 1.15c-.82 2.45 3.49 3.25 2.09 7.46-.91 2.73-2.85 3.28-4.77 2.64a5.32 5.32 0 0 1-1.78-1.18l.7-1.66a5 5 0 0 0 1.78 1.29 2 2 0 0 0 2.58-1.46c.95-2.86-3.43-3.44-2.11-7.42.75-2.26 2.5-3 4.23-2.45a5.2 5.2 0 0 1 1.93 1.11ZM79.41 138.73l1.42.29-2.71 13.19-1.42-.29ZM86.74 141.57l-3.13-.24.13-1.7 7.7.61-.13 1.69-3.13-.25-.92 11.74-1.45-.12ZM97.38 147.79l-4.56-7.49 1.68-.14 3.5 5.78 2.44-6.25 1.69-.14-3.3 8.13.45 5.61-1.44.12ZM114 136c2.87-1.07 5.59 1.07 7 4.81s.78 7.15-2.1 8.23-5.56-1-7-4.81-.76-7.15 2.1-8.23Zm4.3 11.45c2.18-.82 2.21-3.59 1.26-6.1s-2.89-4.56-5-3.75-2.22 3.53-1.26 6.09 2.83 4.58 5.01 3.76ZM121.18 133.08l4.64-2.7.85 1.47-3.39 2 2 3.4 3.24-1.88.86 1.46-3.25 1.89 3.09 5.3-1.25.73ZM135.22 122.8l1.08-1.07 12.52 6.53-1.12 1.12-3.12-1.69-3.51 3.49 1.67 3.13-1.08 1.08Zm1.78.79 3.29 6.15 2.85-2.84ZM140.68 116.87l1.43-2c1.16-1.63 2.62-3 5.24-1.09a2.94 2.94 0 0 1 1.3 3.48 2.07 2.07 0 0 1 1.67 0l5.48 1.54-1 1.35-4.71-1.44c-1.33-.4-1.6 0-2 .62l-.5.71 4.88 3.46-.84 1.18Zm5.56 2.17.71-1a2 2 0 0 0-.45-3 1.84 1.84 0 0 0-2.8.51l-.8 1.13ZM148.53 107.68l-1.41 2.81-1.51-.77 3.46-6.9 1.52.76-1.41 2.81 10.52 5.28-.65 1.29ZM153.36 96.59a3.53 3.53 0 0 0-1.13 1.62 1.64 1.64 0 0 0 1.15 2.24c2.46.81 3.25-3.5 7.47-2.1 2.72.9 3.28 2.84 2.64 4.76a5.12 5.12 0 0 1-1.18 1.79l-1.66-.7a4.81 4.81 0 0 0 1.29-1.79 2 2 0 0 0-1.47-2.57c-2.86-1-3.43 3.43-7.41 2.12-2.27-.75-3-2.5-2.46-4.23a5.32 5.32 0 0 1 1.14-1.9ZM41.86 65.74h-16V68h13.41v5.6h-16v2.28h9.39v3.78h-6.8V82h13.41v6.49h2.48v-8.8h-6.58v-3.78h9.38v-2.28h-2.69ZM63.44 65.32V88.4h2.48V65.32h-2.48zM59.41 65.33v4.1H56.5c-.86-2.56-2.56-4.09-4.57-4.09-3 0-5.15 3.34-5.15 7.94s2.16 7.93 5.15 7.93c1.94 0 3.56-1.38 4.46-3.77h3v11h2.51V65.33h-2.49ZM57 71.69h2.42v3.47H57a14.46 14.46 0 0 0 .14-1.88 11.9 11.9 0 0 0-.14-1.59Zm-5.07 7.21c-1.6 0-2.76-2.37-2.76-5.62s1.16-5.63 2.76-5.63 2.78 2.37 2.78 5.63-1.17 5.62-2.78 5.62ZM68.75 74.83v2.28h9.53v2h-6.34v2H84.4v1.69H71.94v5.6h15.25v-2H74.43v-1.66h12.43v-5.6h-6.09v-2h9.53v-2.31H68.75ZM95.34 74.63c3-.59 6.22-1.55 8.35-4.09 2.13 2.54 5.4 3.5 8.35 4.09h.06l1.46-1.93h-.18c-4.65-.84-7.29-2.37-8.12-4.65H112v-2.29H95.35V68h6.77c-.81 2.26-3.47 3.78-8.12 4.65h-.18l1.45 1.92Z" style="fill:#898989"/><path d="M104.9 73.06h-2.48v2.8h-9.5v2.28h21.54v-2.28h-9.56ZM132.64 79.6v2.56H123V79.6h-2.5v8.8h14.63v-8.8h-2.49ZM123 86.41v-2.33h9.66v2.33ZM135.13 65.32h-2.49v13h2.49v-5.61h3.21v-2.28h-3.21ZM158.77 65.32h-2.48v13.43h2.48v-6H162v-2.27h-3.21ZM142.63 80.29v2.28h13.66v5.86h2.48v-8.14h-16.14ZM177.08 84v-8.58h-2.47V84h-3v-8.58h-2.49V84h-5.42v2.28H185V84Z" style="fill:#898989"/><path d="M180.42 79.66H183V66.18h-17.12v2.28h14.54ZM71.37 73.6a13.48 13.48 0 0 0 8.16-4.6 13.48 13.48 0 0 0 8.15 4.61h.08l1.35-1.86h-.17c-3.86-.8-8-3.13-8-6.34v-.12h-2.81v.12c0 3.21-4.15 5.54-8 6.34h-.17l1.36 1.86ZM5.57 81.28H3.11v7.12h15.48v-2.28h-13ZM18.42 65.32h-2.49v16.94h2.49v-8.61h3.2v-2.27h-3.2ZM12.41 73.05a5 5 0 0 0-2.17-4h3.09V67H7.91v-1.9H5.42V67H0v2h3.1a5 5 0 0 0-2.18 4c0 2.84 2.58 5.15 5.74 5.15s5.75-2.26 5.75-5.1ZM6.66 76a3 3 0 1 1 0-6 3 3 0 1 1 0 6ZM129.2 72.59a4.47 4.47 0 0 0-1.92-3.59h2.83v-2h-5.41v-1.9h-2.49V67h-5.42v2h2.83a4.47 4.47 0 0 0-1.92 3.55c0 2.64 2.58 4.8 5.75 4.8s5.75-2.12 5.75-4.76Zm-5.75 2.64c-1.85 0-3.36-1.18-3.36-2.64s1.51-2.65 3.36-2.65 3.36 1.19 3.36 2.65-1.51 2.64-3.36 2.64ZM141.34 72.73c0 2.73 2.58 5 5.75 5s5.76-2.22 5.76-5a4.63 4.63 0 0 0-2-3.69h2.89V67h-5.42v-1.9h-2.49V67h-5.42v2h2.88a4.65 4.65 0 0 0-1.95 3.73Zm5.75 2.84a2.88 2.88 0 1 1 3.37-2.84 3.14 3.14 0 0 1-3.37 2.84ZM103.69 79.24c-4.84 0-8.22 2-8.22 4.73s3.38 4.74 8.22 4.74 8.22-1.95 8.22-4.74-3.38-4.73-8.22-4.73Zm0 7.25c-3.25 0-5.61-1.06-5.61-2.52s2.36-2.51 5.61-2.51 5.61 1.06 5.61 2.51-2.3 2.52-5.61 2.52Z" style="fill:#898989"/></svg>