<svg xmlns="http://www.w3.org/2000/svg" width="189.90564mm" height="189.90564mm" viewBox="0 0 189.90564 189.90564"><g transform="translate(-19.302 -55.415)"><circle cx="114.25471" cy="150.36792" r="94.95282" style="fill:#fff;stroke:#fff;stroke-width:0"/><path d="M0 0c-27.301 0-49.435 22.133-49.435 49.435 0 27.301 22.134 49.434 49.435 49.434 27.302 0 49.435-22.133 49.435-49.434C49.435 22.133 27.302 0 0 0m.004 100.229c-28.052 0-50.794-22.742-50.794-50.794 0-28.054 22.742-50.794 50.794-50.794 28.055 0 50.796 22.74 50.796 50.794 0 28.052-22.741 50.794-50.796 50.794" style="fill:#035295;fill-opacity:1;fill-rule:nonzero;stroke:none" transform="matrix(1.8115 0 0 -1.8115 113.933 238.985)"/><path d="M0 0c-19.623 0-35.53 15.908-35.53 35.532 0 19.623 15.907 35.531 35.53 35.531 19.624 0 35.531-15.908 35.531-35.531C35.531 15.908 19.624 0 0 0m.003 71.789c-20.023 0-36.256-16.233-36.256-36.257C-36.253 15.509-20.02-.725.003-.725c20.024 0 36.257 16.234 36.257 36.257 0 20.024-16.233 36.257-36.257 36.257" style="fill:#035295;fill-opacity:1;fill-rule:nonzero;stroke:none" transform="matrix(1.8115 0 0 -1.8115 113.936 213.8)"/><path d="M0 0a1.63 1.63 0 1 0-3.261-.001A1.63 1.63 0 0 0 0 0" style="fill:#035295;fill-opacity:1;fill-rule:nonzero;stroke:none" transform="matrix(1.8115 0 0 -1.8115 40.312 160.774)"/><path d="M0 0a1.63 1.63 0 1 0-3.26-.001A1.63 1.63 0 0 0 0 0" style="fill:#035295;fill-opacity:1;fill-rule:nonzero;stroke:none" transform="matrix(1.8115 0 0 -1.8115 194 160.774)"/><path d="M0 0s-1.094-21.374 2.78-27.498c0 0 5.312-12.499 28.686-11.875 0 0 10.686-.687 19.998 1.876l-.062 16.123S52.714-2.938 31.528.812C31.528.812 13.466 3.938 0 0" style="fill:#035295;fill-opacity:1;fill-rule:nonzero;stroke:none" transform="matrix(1.8115 0 0 -1.8115 67.914 115.457)"/><path d="M0 0v-28.592h5.25v12.467s.89 5.111 7.875 4.923c0 0 6.374.609 6.655-4.172V-25.92s.282-3.797 5.484-3.609v15.843s-.187 5.577-9.749 5.858c0 0-7.031.375-10.311-3.654V0Z" style="fill:#fff;fill-opacity:1;fill-rule:nonzero;stroke:none" transform="matrix(1.8115 0 0 -1.8115 86.93 122.646)"/><path d="M0 0v28.592h-5.25V16.124s-.892-5.109-7.875-4.921c0 0-6.374-.61-6.656 4.171V25.92s-.281 3.796-5.484 3.61V13.687s.189-5.578 9.75-5.858c0 0 7.031-.375 10.313 3.654V0Z" style="fill:#3baee4;fill-opacity:1;fill-rule:nonzero;stroke:none" transform="matrix(1.8115 0 0 -1.8115 142.094 176.15)"/><path d="M0 0v.158C-.274 1.47-1.75 5.352-9.687 5.584c0 0-7.031.375-10.312-3.655v11.484h-5.203v-28.592h5.25v12.468s.89 5.107 7.875 4.921c0 0 6.374.609 6.655-4.171v-2.78C-.674-3.849 0 0 0 0" style="fill:#fff;fill-opacity:1;fill-rule:nonzero;stroke:none" transform="matrix(1.8115 0 0 -1.8115 132.584 146.97)"/><path d="m0 0-2.949-1.227-.427 1.102 2.881 1.201 3.529 4.317.489-1.218-2.515-3.113L4.986.628l.517-1.219Z" style="fill:#035295;fill-opacity:1;fill-rule:nonzero;stroke:none" transform="matrix(1.8115 0 0 -1.8115 42.683 181.797)"/><path d="m0 0 6.823 4.191L9.512-.187l-.996-.638-2.089 3.4-1.804-1.108 1.981-3.249-.988-.608L3.626.854 1.61-.384l2.128-3.465-1.003-.628Z" style="fill:#035295;fill-opacity:1;fill-rule:nonzero;stroke:none" transform="matrix(1.8115 0 0 -1.8115 40.67 191.033)"/><path d="M0 0c.681.092 1.358.434 2.034 1.026.67.589 1.088 1.207 1.256 1.859.168.653.032 1.229-.406 1.729-.444.504-.995.713-1.656.623-.662-.089-1.327-.428-1.996-1.015-.676-.593-1.107-1.217-1.295-1.87-.186-.655-.057-1.234.386-1.739C-1.239.113-.68-.092 0 0m4.538 2.762c-.17-.976-.724-1.876-1.66-2.698C1.929-.767.955-1.208-.044-1.257c-1.001-.051-1.841.312-2.524 1.09-.675.771-.92 1.645-.733 2.622.187.976.756 1.88 1.703 2.712.937.822 1.897 1.258 2.881 1.308.984.051 1.813-.309 2.49-1.081.681-.777.936-1.655.765-2.632" style="fill:#035295;fill-opacity:1;fill-rule:nonzero;stroke:none" transform="matrix(1.8115 0 0 -1.8115 55.692 206.176)"/><path d="M0 0a2.032 2.032 0 0 0-.624-1.19c-.449-.439-1.006-.693-1.672-.763-.665-.068-1.34.175-2.026.73C-5.079-.608-5.441.111-5.405.936c.036.823.279 1.52.731 2.087l.918-.744c-.352-.456-.504-.922-.457-1.398.048-.474.261-.867.644-1.176.381-.31.741-.452 1.078-.426.338.026.639.144.905.356.212.172.326.371.338.6.014.228-.035.47-.147.722a2.617 2.617 0 0 1-.601.868 3.53 3.53 0 0 0-.676.929c-.248.485-.369.941-.36 1.365.009.424.202.844.577 1.261.354.403.861.662 1.518.78.658.115 1.327-.103 2.005-.653.792-.642 1.13-1.343 1.016-2.103-.115-.761-.331-1.326-.651-1.696l-.909.737c.259.329.389.687.392 1.076.003.389-.195.744-.593 1.068-.37.3-.718.423-1.043.366-.325-.056-.577-.189-.757-.399-.198-.234-.275-.472-.228-.712a2.04 2.04 0 0 1 .231-.645c.132-.239.335-.512.614-.818.277-.306.506-.664.685-1.073C.01.893.068.458 0 0" style="fill:#035295;fill-opacity:1;fill-rule:nonzero;stroke:none" transform="matrix(1.8115 0 0 -1.8115 69.162 214.391)"/><path d="M0 0a2.658 2.658 0 0 0-1.601-1.292c-.704-.215-1.45-.098-2.235.35C-4.626-.491-5.101.09-5.262.8a2.738 2.738 0 0 0 .308 2.028l2.755 4.802 1.036-.592-2.652-4.642c-.179-.314-.276-.695-.289-1.143-.014-.445.271-.835.856-1.169.577-.33 1.061-.379 1.456-.15.392.229.678.502.86.816l2.659 4.638.998-.57z" style="fill:#035295;fill-opacity:1;fill-rule:nonzero;stroke:none" transform="matrix(1.8115 0 0 -1.8115 79.595 222.426)"/><path d="m0 0 1.471 5.506-1.492.421.269 1.017c.23-.06.46-.086.687-.077a1.7 1.7 0 0 1 .632.144c.143.059.289.171.439.33.152.159.258.342.32.545l.891-.237-2.114-7.93Z" style="fill:#035295;fill-opacity:1;fill-rule:nonzero;stroke:none" transform="matrix(1.8115 0 0 -1.8115 92.475 232.01)"/><path d="M0 0c.286.288.46.667.521 1.136.063.477-.008.885-.211 1.22a1.185 1.185 0 0 1-.907.585 1.187 1.187 0 0 1-1.01-.325c-.287-.269-.462-.646-.526-1.131-.064-.477.008-.889.214-1.239.205-.349.502-.548.888-.6C-.63-.406-.285-.289 0 0m1.075 3.258a3.48 3.48 0 0 0 .692-1.631c.1-.569.087-1.294-.04-2.177-.128-.882-.331-1.603-.609-2.162C.82-3.317.442-3.776-.015-4.09c-.457-.313-.993-.43-1.608-.348a2.177 2.177 0 0 0-1.565.957c-.382.552-.559 1.135-.528 1.752l1.074-.142c-.001-.278.1-.576.299-.892.198-.316.498-.502.9-.554.385-.051.693.034.92.254.224.22.407.464.544.734.136.26.229.5.275.722.048.219.084.428.11.622a3.168 3.168 0 0 0-.778-.428c-.3-.115-.639-.14-1.015-.075-.679.122-1.194.487-1.551 1.099-.357.613-.486 1.289-.389 2.032.103.782.424 1.407.964 1.878a2.29 2.29 0 0 0 1.884.562c.673-.088 1.192-.364 1.554-.825" style="fill:#035295;fill-opacity:1;fill-rule:nonzero;stroke:none" transform="matrix(1.8115 0 0 -1.8115 105.87 226.422)"/><path d="M0 0c.243.325.362.724.358 1.197-.003.481-.129.875-.377 1.18a1.189 1.189 0 0 1-.98.454 1.19 1.19 0 0 1-.955-.463c-.247-.306-.369-.704-.365-1.192.004-.481.132-.879.384-1.197.253-.318.572-.475.962-.473.407.004.73.169.973.494m.612 3.375c.423-.407.727-.913.914-1.518.176-.55.265-1.272.26-2.162-.003-.892-.104-1.633-.302-2.226C1.272-3.172.961-3.68.552-4.053c-.408-.375-.924-.562-1.546-.568a2.174 2.174 0 0 0-1.681.732c-.455.493-.71 1.046-.767 1.66l1.085.01c.038-.276.179-.556.419-.842.241-.287.563-.427.968-.425.39.004.682.131.875.38.194.251.34.518.439.802a2.9 2.9 0 0 1 .172.753c.017.225.024.435.023.633a3.042 3.042 0 0 0-.711-.532 1.881 1.881 0 0 0-.996-.214c-.687.025-1.25.315-1.688.872-.437.558-.661 1.21-.666 1.958-.007.79.224 1.454.694 1.993.47.54 1.066.813 1.789.819.678.005 1.23-.196 1.651-.603" style="fill:#035295;fill-opacity:1;fill-rule:nonzero;stroke:none" transform="matrix(1.8115 0 0 -1.8115 116.895 226.844)"/><path d="M0 0c.258-.307.418-.663.482-1.067.112-.71-.035-1.344-.44-1.903-.407-.558-.985-.897-1.735-1.015-.727-.116-1.373.048-1.936.49-.564.443-.902 1.039-1.013 1.787l1.093.172c.06-.382.238-.713.535-.992.297-.282.673-.386 1.131-.314.421.066.727.255.921.564.191.31.263.652.211 1.029a1.147 1.147 0 0 1-.373.724 1.34 1.34 0 0 1-.696.339 2.486 2.486 0 0 1-.513.015 5.806 5.806 0 0 1-.512-.057L-3.017.859c.186.029.371.073.552.128a1.304 1.304 0 0 1 .851.727c.092.206.118.438.077.695-.04.298-.178.553-.417.766-.239.215-.547.292-.926.232-.436-.068-.727-.257-.877-.564a1.62 1.62 0 0 1-.144-.973l-1.079-.172c-.142.752-.015 1.386.38 1.899.395.513.913.821 1.555.921a2.28 2.28 0 0 0 1.769-.427c.529-.387.842-.878.934-1.469.075-.475.04-.874-.108-1.197-.146-.321-.317-.562-.511-.721C-.577.542-.256.307 0 0" style="fill:#035295;fill-opacity:1;fill-rule:nonzero;stroke:none" transform="matrix(1.8115 0 0 -1.8115 130.507 226.998)"/><path d="m0 0-4.361 1.94-.273-.667a10.732 10.732 0 0 1-.189-.481L-3.63-1.73l-1.163-.526-3.428 7.237 1.154.546 1.565-3.302c.261.646.529 1.395.807 2.246s.519 1.696.723 2.536l1.402.661a78.601 78.601 0 0 0-.66-2.405c-.228-.78-.454-1.48-.675-2.099L1.412.668Z" style="fill:#035295;fill-opacity:1;fill-rule:nonzero;stroke:none" transform="matrix(1.8115 0 0 -1.8115 153.854 224.923)"/><path d="M0 0c-.006.706-.276 1.42-.81 2.144-.529.716-1.125 1.175-1.787 1.377-.664.202-1.286.087-1.871-.343-.591-.435-.882-.995-.876-1.682.007-.685.274-1.387.802-2.105.536-.724 1.132-1.196 1.795-1.416.664-.223 1.291-.115 1.881.32C-.282-1.273.007-.707 0 0m-2.303 4.805c1.006-.221 1.877-.831 2.617-1.834.748-1.014 1.082-2.04 1.003-3.073C1.236-1.136.743-1.987-.164-2.657c-.901-.664-1.853-.879-2.854-.643-1.003.236-1.878.862-2.627 1.877-.74 1.002-1.07 2.012-.994 3.03.078 1.017.568 1.858 1.468 2.522.908.67 1.865.896 2.868.676" style="fill:#035295;fill-opacity:1;fill-rule:nonzero;stroke:none" transform="matrix(1.8115 0 0 -1.8115 164.437 213.983)"/><path d="M0 0c.05.372-.076.698-.376.976-.291.268-.603.365-.941.291a1.686 1.686 0 0 1-.884-.52L-3.542-.702l1.797-1.663L-.453-.968c.252.273.404.593.453.968m3.957-2.664-3.853.52-.964-1.042 2.343-2.168-.884-.921-5.877 5.439 2.235 2.396c.524.567 1.127.896 1.807.987.679.09 1.274-.102 1.783-.572.4-.371.638-.826.714-1.371a2.638 2.638 0 0 0-.232-1.54l4.005-.565z" style="fill:#035295;fill-opacity:1;fill-rule:nonzero;stroke:none" transform="matrix(1.8115 0 0 -1.8115 171.098 200.283)"/><path d="m0 0-6.725 4.348 3.043 4.707 1.007-.622-2.363-3.655 1.778-1.15 2.263 3.481.973-.63-2.253-3.486 1.986-1.284 2.408 3.725 1-.632z" style="fill:#035295;fill-opacity:1;fill-rule:nonzero;stroke:none" transform="matrix(1.8115 0 0 -1.8115 181.967 200.455)"/><path d="m0 0 2.656-2.556L3.685-.062zm7.041-.117-2.064.02-1.385-3.355 1.471-1.427-.49-1.218-6.23 5.987.551 1.334 8.648-.127z" style="fill:#035295;fill-opacity:1;fill-rule:nonzero;stroke:none" transform="matrix(1.8115 0 0 -1.8115 180.707 178.42)"/><path d="m0 0 .138 1.278 2.445-.264.273 2.532-2.445.264.138 1.278 6.137-.662-.138-1.279-2.583.279L3.692.895 6.275.616 6.137-.663Z" style="fill:#035295;fill-opacity:1;fill-rule:nonzero;stroke:none" transform="matrix(1.8115 0 0 -1.8115 31.78 144.519)"/><path d="m0 0 .295 2.731-2.445.264.116 1.079 5.938-.641-.116-1.079-2.583.279L.91-.098l2.583-.279-.117-1.079-5.938.641.117 1.079z" style="fill:#035295;fill-opacity:1;fill-rule:nonzero;stroke:none" transform="matrix(1.8115 0 0 -1.8115 36.62 142.881)"/><path d="M0 0c.443-.314.818-.59 1.125-.828l.335-.258.356 1.19-.422-.032C1.004.044.54.02 0 0m-1.911-.022.324 1.081 6.609.558-.39-1.305-1.625-.12-.601-2.006 1.292-.994-.394-1.314Z" style="fill:#035295;fill-opacity:1;fill-rule:nonzero;stroke:none" transform="matrix(1.8115 0 0 -1.8115 38.432 126.052)"/><path d="M0 0c.539-.378.986-.705 1.341-.98l.451-.347.44 1.468-.567-.042A43.481 43.481 0 0 0 .005.017Zm3.209.213-.641-2.138 1.292-.993-.332-1.107-5.046 3.966.285.951 6.396.54-.33-1.099z" style="fill:#035295;fill-opacity:1;fill-rule:nonzero;stroke:none" transform="matrix(1.8115 0 0 -1.8115 37.929 125.92)"/><path d="m0 0 .57 1.099 3.438.505c.583.076 1.112.128 1.578.156-.542.253-.944.448-1.21.585L1.887 3.637l.592 1.141 5.479-2.843-.57-1.099L3.981.334A19.945 19.945 0 0 0 2.365.179 34.75 34.75 0 0 0 3.581-.41L6.07-1.702l-.591-1.141Z" style="fill:#035295;fill-opacity:1;fill-rule:nonzero;stroke:none" transform="matrix(1.8115 0 0 -1.8115 38.795 115.178)"/><path d="M0 0a20.07 20.07 0 0 0 1.92.172l.012.023C1.226.521.716.766.402.93l-2.401 1.245.5.964L3.802.388 3.278-.623l-3.331-.448a21.077 21.077 0 0 0-1.955-.173l-.012-.024c.666-.305 1.177-.55 1.534-.735l2.401-1.246-.5-.963-5.301 2.75.524 1.01z" style="fill:#035295;fill-opacity:1;fill-rule:nonzero;stroke:none" transform="matrix(1.8115 0 0 -1.8115 46.079 112.453)"/><path d="m0 0-4.322.423.854 1.092 2.975-.291-1.041 2.691.757 1.046.111.143L.824.968 2.767-.53l-.792-1.012z" style="fill:#035295;fill-opacity:1;fill-rule:nonzero;stroke:none" transform="matrix(1.8115 0 0 -1.8115 53.76 103.085)"/><path d="m0 0-1.055 2.825.742.95L1.115-.19l1.896-1.481-.669-.856L.446-1.046l-4.193.425.742.95 2.997-.34z" style="fill:#035295;fill-opacity:1;fill-rule:nonzero;stroke:none" transform="matrix(1.8115 0 0 -1.8115 53.064 101.048)"/><path d="m0 0 2.98 2.729.753-.823L1.701.045l.908-.991L4.354.651l.752-.822-1.744-1.598 1.001-1.093 2.15 1.968.753-.822-3.098-2.836Z" style="fill:#035295;fill-opacity:1;fill-rule:nonzero;stroke:none" transform="matrix(1.8115 0 0 -1.8115 55.907 90.434)"/><path d="m0 0 2.15 1.968.618-.675-2.95-2.701-4.034 4.405 2.833 2.593.618-.674-2.032-1.861 1.043-1.139L-.01 3.513l.618-.675-1.744-1.597Z" style="fill:#035295;fill-opacity:1;fill-rule:nonzero;stroke:none" transform="matrix(1.8115 0 0 -1.8115 63.8 95.874)"/><path d="M0 0c-.077 0-.154-.007-.231-.02a1.75 1.75 0 0 1-.635-.251 1.744 1.744 0 0 1-.499-.465 1.376 1.376 0 0 1-.238-.598 1.85 1.85 0 0 1 .05-.733c.067-.265.197-.551.384-.848.187-.296.388-.535.6-.711.209-.174.424-.294.638-.359a1.441 1.441 0 0 1 .644-.043c.217.036.431.12.635.249.204.13.372.286.498.466.125.178.205.38.238.6.035.221.018.466-.049.73a3.002 3.002 0 0 1-.384.848 2.98 2.98 0 0 1-.6.711 1.849 1.849 0 0 1-.639.361A1.407 1.407 0 0 1 0 0m.298-5.243c-.237 0-.471.033-.696.096a2.87 2.87 0 0 0-1.035.547 3.998 3.998 0 0 0-.853.98 4.005 4.005 0 0 0-.518 1.192c-.097.4-.113.794-.049 1.169.065.376.214.734.444 1.065.23.33.547.624.944.873.396.251.798.41 1.194.476.154.025.306.038.456.038.236 0 .47-.032.696-.096A2.87 2.87 0 0 0 1.916.55c.319-.259.605-.589.852-.98.248-.392.422-.793.518-1.192.096-.4.113-.794.049-1.169a2.638 2.638 0 0 0-.444-1.064 3.227 3.227 0 0 0-.943-.874 3.26 3.26 0 0 0-1.195-.476 2.84 2.84 0 0 0-.455-.038" style="fill:#035295;fill-opacity:1;fill-rule:nonzero;stroke:none" transform="matrix(1.8115 0 0 -1.8115 72.703 80.21)"/><path d="M0 0a3.097 3.097 0 0 1-.621.735c-.22.183-.445.309-.674.379-.229.07-.459.086-.689.046a1.825 1.825 0 0 1-.671-.265 1.837 1.837 0 0 1-.528-.492 1.483 1.483 0 0 1-.255-.641 1.953 1.953 0 0 1 .052-.772c.071-.278.203-.57.397-.877.193-.307.4-.551.62-.735.221-.183.445-.309.674-.377.228-.069.458-.084.688-.046.231.039.455.126.673.263.217.137.392.302.526.494.134.191.219.405.255.641.037.236.02.493-.051.77C.326-.599.194-.307 0 0m.948.598c.243-.385.411-.772.505-1.161.094-.39.109-.766.047-1.129a2.527 2.527 0 0 0-.427-1.025 3.106 3.106 0 0 0-.914-.846 3.126 3.126 0 0 0-1.158-.461 2.527 2.527 0 0 0-1.108.055c-.355.1-.688.276-.999.528a3.924 3.924 0 0 0-.832.956 3.889 3.889 0 0 0-.504 1.162A2.76 2.76 0 0 0-4.49-.194c.063.363.205.704.428 1.024.222.32.527.602.914.846s.773.398 1.157.462c.385.063.754.044 1.109-.055.355-.101.688-.276.999-.529.311-.252.588-.571.831-.956" style="fill:#035295;fill-opacity:1;fill-rule:nonzero;stroke:none" transform="matrix(1.8115 0 0 -1.8115 75.847 82.17)"/><path d="m0 0 1.157.441 2.902-1.91c.487-.332.918-.645 1.283-.934-.237.549-.408.964-.514 1.242L3.829 1.46l1.2.458 2.2-5.767-1.158-.442-2.876 1.892c-.406.27-.846.592-1.31.959.224-.519.396-.935.515-1.248l.999-2.621-1.2-.458z" style="fill:#035295;fill-opacity:1;fill-rule:nonzero;stroke:none" transform="matrix(1.8115 0 0 -1.8115 80.015 73.678)"/><path d="M0 0c.615-.418 1.13-.801 1.547-1.149l.025.01A42.788 42.788 0 0 0 .918.427l-.963 2.527 1.014.387L3.097-2.24l-1.064-.406L-.751-.764A20.67 20.67 0 0 0-2.327.407l-.025-.009c.294-.671.513-1.195.656-1.57L-.732-3.7l-1.015-.386-2.127 5.58 1.063.406Z" style="fill:#035295;fill-opacity:1;fill-rule:nonzero;stroke:none" transform="matrix(1.8115 0 0 -1.8115 87.266 76.49)"/><path d="M0 0c-.215 0-.419.017-.612.051a2.802 2.802 0 0 0-1.121.448c-.316.22-.577.507-.775.852-.196.343-.334.74-.41 1.179a3.752 3.752 0 0 0-.05.915c.021.298.079.583.173.848a3.055 3.055 0 0 0 .966 1.369c.227.183.485.338.767.463.284.125.599.218.937.276.296.051.587.079.865.083h.016c.314 0 .516-.015.68-.045l.069-.012.194-1.119-.136.019a4.779 4.779 0 0 1-.663.047 4.372 4.372 0 0 1-.733-.063 2.671 2.671 0 0 1-.834-.286 1.962 1.962 0 0 1-.614-.521 1.912 1.912 0 0 1-.341-.733 2.344 2.344 0 0 1-.008-.936c.117-.662.376-1.135.77-1.404.28-.191.625-.288 1.023-.288.163 0 .335.016.517.047a3.822 3.822 0 0 1 .616.163l-.207 1.196-1.309-.227-.191 1.098 2.576.447.544-3.136-.061-.035a3.699 3.699 0 0 0-.324-.163 5.608 5.608 0 0 0-.446-.177 8.08 8.08 0 0 0-.512-.16 5.74 5.74 0 0 0-.533-.12A4.884 4.884 0 0 0 0 0" style="fill:#035295;fill-opacity:1;fill-rule:nonzero;stroke:none" transform="matrix(1.8115 0 0 -1.8115 101.002 79.005)"/><path d="m0 0-1.309-.227-.157.901 2.379.413.515-2.969a3.97 3.97 0 0 0-.316-.159 5.817 5.817 0 0 0-.438-.173 7.668 7.668 0 0 0-.505-.158 5.801 5.801 0 0 0-.524-.118c-.523-.091-.994-.099-1.41-.025a2.695 2.695 0 0 0-1.081.431 2.5 2.5 0 0 0-.745.82A3.476 3.476 0 0 0-3.99-.117c-.053.305-.07.602-.049.891A3.036 3.036 0 0 0-3.5 2.319c.156.223.344.424.563.601.22.177.468.327.746.449.276.122.581.212.913.269.294.051.576.078.849.081.272.004.498-.011.677-.043l.159-.915c-.24.034-.479.05-.717.048a4.358 4.358 0 0 1-.71-.064 2.764 2.764 0 0 1-.866-.297 2.056 2.056 0 0 1-.644-.547 1.99 1.99 0 0 1-.359-.772 2.426 2.426 0 0 1-.01-.975c.123-.695.394-1.184.812-1.47.418-.285.956-.371 1.613-.257a4.048 4.048 0 0 1 .713.197z" style="fill:#035295;fill-opacity:1;fill-rule:nonzero;stroke:none" transform="matrix(1.8115 0 0 -1.8115 103.122 74.178)"/><path d="M0 0a4.136 4.136 0 0 0-1.227.187 2.456 2.456 0 0 0-.657.334 1.943 1.943 0 0 0-.468.486 2.181 2.181 0 0 0-.281.615 2.547 2.547 0 0 0-.094.586c-.01.208-.004.439.019.693l.319 3.603 1.28-.113-.31-3.506c-.037-.405-.017-.728.058-.961.081-.25.215-.439.399-.562.189-.126.423-.202.697-.226.057-.006.114-.008.169-.008.204 0 .392.036.556.108.203.088.369.251.493.483.114.215.19.53.226.936L1.49 6.16l1.28-.114-.319-3.603a5.23 5.23 0 0 0-.104-.685 2.516 2.516 0 0 0-.197-.561 2.137 2.137 0 0 0-.386-.555 1.954 1.954 0 0 0-.556-.395A2.506 2.506 0 0 0 .492.035 3.33 3.33 0 0 0 0 0" style="fill:#035295;fill-opacity:1;fill-rule:nonzero;stroke:none" transform="matrix(1.8115 0 0 -1.8115 120.42 78.317)"/><path d="M0 0a3.531 3.531 0 0 0-.826.165 2.359 2.359 0 0 0-.63.32 1.827 1.827 0 0 0-.443.461 2.046 2.046 0 0 0-.268.586c-.051.172-.081.36-.091.564-.01.204-.004.43.018.679l.311 3.504 1.081-.096-.302-3.406c-.037-.421-.017-.754.063-1 .088-.274.234-.479.439-.615A1.57 1.57 0 0 1 .095.919c.291-.025.55.011.775.108.225.098.405.275.54.529.121.228.2.552.237.973l.303 3.406 1.081-.096-.311-3.504a4.884 4.884 0 0 0-.102-.671 2.405 2.405 0 0 0-.188-.539 2.02 2.02 0 0 0-.369-.53A1.813 1.813 0 0 0 1.534.22 2.41 2.41 0 0 0 .847.017 3.627 3.627 0 0 0 0 0" style="fill:#035295;fill-opacity:1;fill-rule:nonzero;stroke:none" transform="matrix(1.8115 0 0 -1.8115 119.75 78.106)"/><path d="m0 0-1.153 3.244A20.21 20.21 0 0 0-1.619 4.8a31.05 31.05 0 0 0-.342-1.307L-2.746.799l-1.233.36 1.726 5.926 1.189-.346L.097 3.464c.189-.56.343-1.069.46-1.518.143.58.256 1.013.339 1.3l.785 2.693 1.234-.359L1.188-.346Z" style="fill:#035295;fill-opacity:1;fill-rule:nonzero;stroke:none" transform="matrix(1.8115 0 0 -1.8115 135.662 81.335)"/><path d="M0 0c.238-.705.418-1.321.541-1.85l.025-.007C.75-1.102.891-.554.99-.214l.757 2.597 1.042-.303-1.671-5.734-1.093.318-1.086 3.18c-.192.552-.376 1.18-.548 1.885l-.026.007A37.069 37.069 0 0 0-2.06.088l-.756-2.597-1.042.304 1.67 5.734 1.093-.319z" style="fill:#035295;fill-opacity:1;fill-rule:nonzero;stroke:none" transform="matrix(1.8115 0 0 -1.8115 135.667 75.117)"/><path d="m0 0 2.581 5.607 1.167-.538L1.167-.538Z" style="fill:#035295;fill-opacity:1;fill-rule:nonzero;stroke:none" transform="matrix(1.8115 0 0 -1.8115 141.723 83.715)"/><path d="m0 0 2.497 5.425.985-.453L.986-.454Z" style="fill:#035295;fill-opacity:1;fill-rule:nonzero;stroke:none" transform="matrix(1.8115 0 0 -1.8115 141.963 83.626)"/><path d="m0 0 1.298 6.492 1.157-.738-.684-3.161a95.233 95.233 0 0 0-.197-.884c-.024-.103-.06-.254-.11-.454a75.397 75.397 0 0 0 1.083.843l2.578 1.955 1.149-.733L.937-.598Z" style="fill:#035295;fill-opacity:1;fill-rule:nonzero;stroke:none" transform="matrix(1.8115 0 0 -1.8115 150.32 88.235)"/><path d="M0 0c.266.214.457.367.573.458.115.09.354.274.717.551l2.522 1.913.967-.617-5.164-3.791-.822.524L.049 5.32l.975-.622-.669-3.094C.257 1.159.191.865.158.722.125.579.067.342-.015.009Z" style="fill:#035295;fill-opacity:1;fill-rule:nonzero;stroke:none" transform="matrix(1.8115 0 0 -1.8115 152.709 86.407)"/><path d="m0 0 4.142 4.577 2.996-2.712-.749-.826-2.043 1.849-.902-.998L5.198.303 4.45-.523 2.696 1.064l-.995-1.1 2.162-1.956-.749-.826Z" style="fill:#035295;fill-opacity:1;fill-rule:nonzero;stroke:none" transform="matrix(1.8115 0 0 -1.8115 157.98 93.596)"/><path d="m0 0 2.162-1.956-.615-.678L-1.419.05l4.007 4.429 2.849-2.578-.615-.678-2.043 1.849-1.036-1.146L3.497.339l-.614-.678-1.754 1.587Z" style="fill:#035295;fill-opacity:1;fill-rule:nonzero;stroke:none" transform="matrix(1.8115 0 0 -1.8115 160.805 93.674)"/><path d="M0 0a4.77 4.77 0 0 1 .41-.464C.528-.58.64-.669.741-.73a.832.832 0 0 1 .415-.136c.216.026.357.09.49.195.112.088.193.19.242.303a.583.583 0 0 1 .014.384 1.307 1.307 0 0 1-.15.344 3.966 3.966 0 0 1-.326.465l-.419.529L-.271.342Zm-1.556-3.555.794 2.79-.378.419-1.817-1.44-.798 1.007 4.838 3.833 1.182-1.492c.188-.237.35-.47.485-.696.136-.229.236-.442.298-.633.117-.375.128-.732.034-1.06-.094-.332-.309-.631-.637-.891-.343-.271-.716-.409-1.106-.41-.36 0-.735.128-1.121.381l-.844-2.982z" style="fill:#035295;fill-opacity:1;fill-rule:nonzero;stroke:none" transform="matrix(1.8115 0 0 -1.8115 172.956 99.994)"/><path d="M0 0c.154-.195.293-.353.418-.474a1.97 1.97 0 0 1 .35-.28c.201-.12.384-.167.549-.144a.967.967 0 0 1 .469.21.89.89 0 0 1 .272.343.68.68 0 0 1 .019.447c-.027.111-.08.234-.16.371-.08.136-.191.295-.334.476l-.481.607L-.333.42Zm2.461-1.577c-.326-.258-.674-.388-1.044-.389-.369-.001-.757.143-1.164.431l-.014-.011-.83-2.906-.808 1.021.811 2.7-.462.583-1.813-1.435-.674.85 4.682 3.708 1.12-1.413c.185-.234.344-.462.477-.685.132-.223.229-.427.289-.613.111-.356.122-.69.033-1.002-.089-.312-.29-.592-.603-.839" style="fill:#035295;fill-opacity:1;fill-rule:nonzero;stroke:none" transform="matrix(1.8115 0 0 -1.8115 172.815 100.107)"/><path d="M0 0c-.254 0-.502.058-.736.171a2.384 2.384 0 0 0-.71.551c-.22.241-.422.529-.602.858a4.86 4.86 0 0 0-.383.898 2.834 2.834 0 0 0-.142.842v.058l.996.548.014-.153a4.029 4.029 0 0 1 .493-1.639c.08-.145.17-.281.271-.408.098-.123.205-.224.319-.299A.733.733 0 0 1-.129 1.3h.016c.147 0 .254.032.365.093a.483.483 0 0 1 .226.226c.04.095.056.203.048.329a2.095 2.095 0 0 1-.075.424 18.4 18.4 0 0 1-.144.486 6.445 6.445 0 0 0-.162.678 1.947 1.947 0 0 0-.013.658c.033.213.116.416.245.602s.328.354.592.499c.288.159.571.248.842.266l.126.004a1.7 1.7 0 0 0 .641-.122c.235-.095.455-.241.651-.434.194-.19.372-.43.529-.716.154-.28.284-.582.385-.897.1-.316.164-.604.19-.859l.006-.065-1.008-.555-.018.146a5.09 5.09 0 0 1-.189.885 4.068 4.068 0 0 1-.304.718c-.161.294-.339.492-.528.589a.544.544 0 0 1-.247.062c-.1 0-.207-.03-.315-.09a.576.576 0 0 1-.243-.225.653.653 0 0 1-.076-.299 1.43 1.43 0 0 1 .043-.378c.034-.141.075-.288.123-.441.074-.25.136-.492.186-.73.051-.244.065-.482.039-.706A1.445 1.445 0 0 0 1.56.799C1.426.6 1.212.418.926.261a1.947 1.947 0 0 0-.862-.26Z" style="fill:#035295;fill-opacity:1;fill-rule:nonzero;stroke:none" transform="matrix(1.8115 0 0 -1.8115 178.463 116.864)"/><path d="M0 0a.581.581 0 0 1 .27.275c.046.11.064.234.056.374C.316.79.29.937.247 1.094c-.044.156-.092.32-.144.489a6.228 6.228 0 0 0-.16.666c-.04.217-.044.426-.013.625s.108.386.229.561c.121.174.307.33.558.468.276.152.543.236.8.253.257.017.499-.02.723-.111.225-.09.431-.228.619-.412.189-.185.359-.416.511-.693.152-.276.278-.57.377-.879.099-.31.161-.589.186-.838L3.111.771a4.958 4.958 0 0 1-.193.902 4.092 4.092 0 0 1-.311.737c-.172.313-.362.523-.57.629-.208.107-.427.097-.656-.03a.666.666 0 0 1-.282-.264.754.754 0 0 1-.089-.344 1.54 1.54 0 0 1 .047-.404c.034-.143.075-.292.124-.448.073-.245.135-.486.184-.72.049-.234.062-.459.037-.674a1.338 1.338 0 0 0-.225-.605c-.126-.187-.326-.356-.6-.507a1.855 1.855 0 0 0-.817-.247 1.568 1.568 0 0 0-.753.161 2.284 2.284 0 0 0-.68.528c-.214.236-.41.515-.588.839-.156.282-.28.575-.374.879-.094.304-.14.574-.138.811l.81.445c.028-.317.084-.612.167-.883s.195-.536.338-.795c.083-.15.176-.291.28-.422.105-.131.219-.238.342-.32a.834.834 0 0 1 .397-.143A.75.75 0 0 1 0 0" style="fill:#035295;fill-opacity:1;fill-rule:nonzero;stroke:none" transform="matrix(1.8115 0 0 -1.8115 179.007 114.5)"/><path d="m0 0 5.745 2.258.47-1.196L.47-1.197Z" style="fill:#035295;fill-opacity:1;fill-rule:nonzero;stroke:none" transform="matrix(1.8115 0 0 -1.8115 178.687 121.637)"/><path d="m0 0 5.558 2.185.398-1.01L.397-1.01Z" style="fill:#035295;fill-opacity:1;fill-rule:nonzero;stroke:none" transform="matrix(1.8115 0 0 -1.8115 178.922 121.74)"/><path d="m0 0-4.904-1.236-.314 1.247 4.904 1.236-.468 1.856L.3 3.375l1.248-4.954-1.081-.273Z" style="fill:#035295;fill-opacity:1;fill-rule:nonzero;stroke:none" transform="matrix(1.8115 0 0 -1.8115 191.047 130.225)"/><path d="m0 0-.265 1.053 4.904 1.236-.468 1.856.887.223 1.2-4.76-.887-.223-.467 1.851Z" style="fill:#035295;fill-opacity:1;fill-rule:nonzero;stroke:none" transform="matrix(1.8115 0 0 -1.8115 182.296 132.244)"/><path d="m0 0-2.444-.212-.103 1.282 2.499.2L3.42 3.883l.111-1.382L1.173.725l2.557-1.3.15-1.282.015-.18z" style="fill:#035295;fill-opacity:1;fill-rule:nonzero;stroke:none" transform="matrix(1.8115 0 0 -1.8115 188.334 143.85)"/><path d="m0 0 2.689-1.367.096-1.2L-.949-.614l-2.399-.193-.087 1.082 2.399.193 3.375 2.524.097-1.201L-.001.013z" style="fill:#035295;fill-opacity:1;fill-rule:nonzero;stroke:none" transform="matrix(1.8115 0 0 -1.8115 190.137 142.578)"/></g></svg>