<svg xmlns="http://www.w3.org/2000/svg" xml:space="preserve" width="899.99493" height="900" viewBox="0 0 899.99496 900"><path d="M173.552 368.502c0-48.761 39.675-88.43 88.44-88.43 48.759 0 88.424 39.668 88.424 88.43 0 48.76-39.665 88.435-88.423 88.435-48.766 0-88.441-39.676-88.441-88.436" style="fill:#00467f;fill-opacity:1;fill-rule:nonzero;stroke:none" transform="matrix(5.08863 0 0 -5.08863 -883.14 2325.184)"/><path d="M349.324 374.336c-64.518 0-117.011 52.49-117.011 117.008 0 64.517 52.493 117.006 117.011 117.006 64.506 0 116.994-52.489 116.994-117.006 0-64.519-52.488-117.008-116.994-117.008zm.44 5.574c61.528.241 111.224 50.326 110.978 111.875-.241 61.54-50.327 111.23-111.86 110.986-61.531-.246-111.225-50.33-110.987-111.865.248-61.552 50.338-111.237 111.869-110.996zm-2.99 9.078-.014 15.13 7.506.007v-2.385l-5.133-.006v-4.32l4.19.01h.42l.001-2.363h-4.611l.008-3.686 4.873.004V389zm-6.128.192-2.632.36-1.188 7.45v.002c-.187 1.284-.285 2.338-.394 3.428-.4-1.03-.779-2.034-1.286-3.19v-.003l-3.083-6.856-2.64.371 1.223 15.1 2.278-.319-.565-6.507c-.105-1.175-.234-2.279-.357-3.46.36.892.652 1.716 1.07 2.684l2.967 6.76 1.772-.238 1.166-7.471-.002.004c.173-1.082.265-2.01.392-3.004.205 1.208.384 2.387.594 3.516l1.236 6.566 2.313-.326zm18.668.183-2.136 14.553-.06.414 2.255.334.945-6.459v-.002c.238-1.612.36-2.777.504-4.023.312 1.094.601 2.186.98 3.279l2.759 7.965 2.191.322 2.201-14.965-2.26-.334-.921 6.33c-.22 1.479-.33 2.67-.46 3.92-.274-.991-.5-1.936-.888-3.045l-2.791-7.955zm14.95 2.596-.121.299c-.553 1.379-1.551 3.404-2.207 4.459l-.348.556 1.85.223.146-.162c.794-.892 2.073-2.904 2.914-4.537l.275-.531zm-54.342 1.373a5.107 5.107 0 0 0-1.854.244c-1.63.52-2.825 1.762-3.398 3.412-.574 1.652-.55 3.708.164 5.94.68 2.125 1.799 3.762 3.174 4.754a5.457 5.457 0 0 0 2.228.966c.787.141 1.604.093 2.412-.166 1.557-.498 2.777-1.644 3.383-3.265.607-1.621.613-3.701-.158-6.112-.668-2.084-1.758-3.724-3.121-4.724-.852-.625-1.818-.992-2.83-1.049zm62.336 1.217c-1.675.086-3.109 1.18-3.717 2.89-.365 1.026-.354 2.004-.033 2.891.32.887.936 1.68 1.74 2.424l-.012-.008c.606.592.96 1.084 1.116 1.535.155.451.139.88-.063 1.45-.212.596-.558.991-.992 1.2-.434.21-.974.242-1.627.008h-.004c-.885-.312-1.635-.998-2.065-1.634l-.35-.516-1.376 2.068.14.227c.511.822 1.579 1.654 2.76 2.068v-.004c.704.25 1.376.35 1.998.319a3.997 3.997 0 0 0 1.698-.463c1.008-.54 1.736-1.492 2.132-2.613v-.002c.373-1.05.418-2.015.137-2.907-.28-.892-.866-1.696-1.685-2.5-.625-.614-1.02-1.111-1.204-1.552-.182-.442-.19-.834.006-1.39.136-.38.407-.752.778-.964.37-.212.844-.293 1.514-.057.906.325 1.449.92 1.716 1.262l.346.445 1.389-1.988-.176-.24c-.43-.595-1.214-1.25-2.43-1.686h-.002a4.474 4.474 0 0 0-1.734-.263zm-62.772 1.146c.755-.009 1.448.336 2.092.926.86.787 1.572 2.02 1.986 3.317h-.002c.475 1.488.586 2.942.323 4.066-.264 1.123-.856 1.899-1.867 2.219h-.002c-.499.16-.98.163-1.446.035-.466-.129-.915-.39-1.345-.766-.862-.751-1.606-1.964-2.051-3.36-.46-1.44-.593-2.89-.346-4.027.247-1.136.825-1.938 1.883-2.279.265-.085.524-.128.775-.13zm-10.93 1.368-2.148 1.134 2.063 7.44h.004c.282.975.548 1.813.816 2.699-.56-.735-1.074-1.452-1.674-2.197l-4.875-6.014-2.013 1.072 2.045 7.434c.288 1.054.567 1.89.845 2.814-.59-.764-1.119-1.473-1.777-2.285l-4.828-6.014-2.188 1.165 9.645 11.628.217.262 2.015-1.055-2.062-7.695v-.004c-.254-.991-.5-1.67-.742-2.463.496.655.908 1.257 1.539 2.03l5.013 6.152 2.008-1.066zm89.028 3.96-4.545 7.577c-1.165 1.95-1.6 3.579-1.432 4.933.168 1.355.964 2.39 2.086 3.065h.002a4.85 4.85 0 0 0 1.877.672c.652.082 1.321.013 1.983-.23 1.323-.49 2.594-1.651 3.756-3.585l4.496-7.508-2.047-1.22-4.565 7.609c-.79 1.313-1.575 2.078-2.275 2.406-.7.328-1.314.272-1.975-.125-.574-.345-.899-.836-.935-1.603-.037-.767.258-1.824 1.055-3.149l4.351-7.263.215-.36zm12.97 8.288-9.374 11.328-.268.322 1.76 1.451 4.158-5.025c1.04-1.26 1.75-2.193 2.52-3.186-.303 1.1-.624 2.182-.868 3.32l-1.77 8.233 1.708 1.42 9.643-11.654-1.758-1.456-4.078 4.928c-.942 1.144-1.657 2.105-2.416 3.102.28-.988.576-1.911.816-3.055l1.732-8.244zm-123.85 1.787-.308.054c-.692.126-1.774.581-2.87 1.522h-.003c-1.59 1.37-2.36 3.14-2.341 4.973.018 1.832.807 3.718 2.242 5.4l.004.002c1.506 1.745 3.297 2.84 4.978 3.096h.002c1.872.271 3.5-.334 4.928-1.565 1.278-1.095 2.01-2.403 2.352-3.105l.119-.244-4.932-5.73-3.596 3.09 1.518 1.765 1.826-1.579 2.297 2.668c-.133.288-.4.728-1.043 1.278h-.002c-.967.834-2.035 1.13-3.166.924-1.131-.207-2.34-.94-3.477-2.264-1.12-1.301-1.649-2.605-1.662-3.776-.013-1.169.47-2.227 1.485-3.101l.002-.002c.858-.732 1.555-1.003 2.209-1.154l.521-.123zm62.933 2.48c-42.95-.165-77.91 34.512-78.076 77.46-.174 42.94 34.51 77.902 77.449 78.071 42.942.167 77.894-34.513 78.058-77.45.172-42.953-34.506-77.908-77.431-78.08zm72.105 5.617L410.89 429.73l1.648 1.692 10.555-10.236.299-.291zm-146.877 1.7-1.496 1.728 4.858 4.166c1.13.968 2.077 1.7 3.062 2.477-.984-.299-1.904-.616-3.049-.877v.002l-8.203-1.891-1.523 1.78 11.152 9.587.318.274 1.485-1.729-4.953-4.252c-1.24-1.065-2.157-1.798-3.135-2.59 1.092.324 2.167.67 3.299.934l8.203 1.935 1.451-1.681zm151.12 2.644-9.12 12.352-.187.257 1.437 1.819 14.643-5.875-1.563-1.969-7.068 2.932c-1.261.523-2.4 1.058-3.549 1.591.79-.974 1.565-1.928 2.408-3.052l4.563-6.07zm8.888 11.834-12.934 7.832 3.89 6.42 2.032-1.236-2.664-4.393 3.694-2.238 2.177 3.584.215.355 2.02-1.22-2.39-3.944 3.151-1.904 2.522 4.17 2.033-1.237zm-171.49.299-1.32 2.094 10.517 11.68 1.309-2.08-3.147-3.442 1.908-3.018 4.477 1.326 1.342-2.117zm2.533 3.105c.318.109.591.221.938.325h.004l3.574 1.058-1.317 2.088-2.52-2.781v-.004c-.222-.24-.452-.454-.679-.686zm-6.775 3.772L258 444.975l3.008 3.437v.002c.537.602 1.009 1.105 1.492 1.625-.704-.05-1.381-.103-2.193-.135l-4.559-.191-1.129 2.408 9.586.145 5.399 2.56.378.18 1.024-2.156-5.795-2.744zm181.56 3.588-13.553 6.052.97 2.16 5.655-2.52.407.917c.228.581.239.97.045 1.383-.194.412-.651.875-1.452 1.42-.75.515-1.376.96-1.857 1.322-.481.362-.807.63-1.012.86l-.18.199 1.016 2.287.43-.485c.31-.35 1.476-1.209 3.135-2.375 1.09-.758 1.733-1.632 1.927-2.595 1.097.787 2.585 1.123 4.223.392h.004c1.085-.477 1.918-1.243 2.307-2.172.492-1.126.36-2.394-.336-3.943v-.002c-.44-.986-.994-1.973-1.526-2.646zm-.84 2.97c.142.193.324.435.553.946.293.681.353 1.277.193 1.767-.16.49-.54.921-1.304 1.266-.666.297-1.27.32-1.78.13-.509-.188-.947-.593-1.248-1.257v-.004l-.462-1.041zm-42.172 3.797v3.948h7.332l-.039 16.775h-7.55v17.758h7.521l.03 16.965-52.256-.088v-3.45h-2v3.538h-35.368c-7.005 0-13.758-3.11-17.615-8.092-3.304-3.859-5.27-8.89-5.27-13.44 0-5.62 1.413-9.951 4.292-13.6l-2.805.009v-16.375h28.91v-3.88h18.264v3.88h38.025v-3.908zm-.94.94c-.852.003-15.796.028-16.657.035v3.908h-39.893v-3.883h-16.394v3.883h-28.918v14.508c.688-.005 3.812-.016 3.812-.016l-.674.776c-3.15 3.616-4.62 7.993-4.62 13.763 0 4.34 1.89 9.146 5.064 12.85 3.69 4.787 10.169 7.752 16.89 7.752h34.43v-3.54h3.871v3.454c.907 0 49.479.078 50.395.086 0-.859-.03-14.245-.03-15.104h-7.521V472.69h7.55c0-.85.028-14.051.028-14.902h-7.334zm-143.661 2.228-.674 2.176 6.107 1.9c1.42.445 2.58.738 3.793 1.061-1.021.117-1.994.195-3.142.404l-8.283 1.52-.694 2.238 14.04 4.371.398.125.68-2.17-6.229-1.943c-1.563-.485-2.698-.792-3.91-1.129 1.132-.136 2.26-.248 3.402-.453l8.299-1.483.654-2.113zm73.521.846h10.846v3.75h45.455v-3.75h10.836v3.75h7.41v9.615h-7.41v24.42h7.41v9.617h-45.011v-3.38h-8.909v3.38H315.76c-8.423 0-18.893-6.334-18.893-17.466 0-8.294 3.844-13.972 9.799-16.57h-8.594v-9.616h28.537zm117.057 1.799a4.638 4.638 0 0 0-1.71.193c-1.042.318-1.823.905-2.345 1.692-.52.783-.79 1.744-.906 2.828-.116.84-.303 1.418-.574 1.81-.27.393-.623.633-1.2.809-.605.185-1.13.144-1.556-.08-.426-.224-.778-.64-.982-1.303-.274-.899-.167-1.902.09-2.635l.204-.588-2.478.133-.102.246c-.36.895-.38 2.25-.02 3.442.439 1.43 1.287 2.395 2.321 2.884 1.035.49 2.23.507 3.367.159 1.068-.325 1.871-.864 2.42-1.621.55-.759.842-1.708 1.002-2.844.122-.869.29-1.485.537-1.895.247-.41.558-.646 1.123-.818h.002c.38-.117.841-.122 1.233.05.392.173.74.504.947 1.18.279.93.122 1.722.002 2.112l-.168.55 2.442-.046.09-.288c.22-.706.278-1.73-.092-2.96-.55-1.8-1.987-2.878-3.647-3.01zm-124.152 8.18v2.537h8.629v-2.538zm15.093 0v20.722h4.407v-10.8h3.593v-2.534h-3.593v-7.389zm40.278 0v17.976c-1.464-.699-3.209-1.1-5.09-1.1-5.263 0-9.459 3.158-9.488 7.038.029 3.888 4.225 7.043 9.488 7.043 5.27 0 9.456-3.155 9.488-7.043h.014v-11.456h3.734v-2.537h-3.734v-3.656h3.734v-2.545h-3.734v-3.72zm-9.98.488c-4.967 0-8.753 3.206-8.753 7.142 0 3.959 3.786 7.147 8.752 7.147 4.995 0 8.766-3.188 8.766-7.147 0-3.936-3.771-7.142-8.766-7.142zm84.167 2.076-14.82 3.035.473 2.31 14.418-2.94.412-.087zm-84.168.117c2.351 0 4.266 1.992 4.266 4.95 0 3.045-1.908 4.968-4.266 4.968-2.338 0-4.256-1.923-4.256-4.969 0-2.957 1.911-4.949 4.256-4.949zm-49.183.91v2.543h3.052c-1.849 1.135-2.99 2.864-2.99 4.819 0 3.4 3.46 6.162 8.028 6.162 4.572 0 8.03-2.761 8.03-6.162 0-1.955-1.138-3.684-2.974-4.819h3.057v-2.543zm-51.7 1.795-15.6 1.92-.382 2.45 14.303 6.52.37-2.423-4.25-1.9.54-3.536 4.639-.56zm59.79 1.115c2.162 0 3.906 1.918 3.906 4.452 0 2.586-1.744 4.457-3.906 4.457-2.146 0-3.897-1.87-3.897-4.457 0-2.534 1.751-4.452 3.897-4.452zm126.462 1.967-2.396.258.387 3.582-12.64 1.36.25 2.37 12.647-1.355.387 3.602 2.387-.262zm-193.601.155-.381 2.435-3.408-1.549h-.002c-.299-.13-.59-.236-.887-.357.332-.027.624-.03.98-.074zm-9.633 10.14v2.385l5.977.004-.008 4.896h-5.979v2.362l15.117.015.01-2.369-6.705-.002.012-4.898h6.7v-2.387zm122.756.543c2.688 0 5.09 1.738 5.09 4.608 0 2.852-2.402 4.597-5.09 4.597-2.676 0-5.094-1.745-5.094-4.597 0-2.87 2.418-4.608 5.094-4.608zm-50.647.166v5.883c0 2.952 1.924 4.75 5.041 4.75l15.112.016v-2.541h-15.362v-8.108zm132.37 2.022-8.86 3.693-5.972-.195-.418-.016-.075 2.38 6.399.208 8.57 4.518.09-2.682-4.135-1.955h-.002c-.732-.34-1.363-.613-2.012-.895.667-.234 1.313-.458 2.067-.742l4.252-1.644zm-191.215 22.875s-1.693 2.233-1.666 4.957c.033 2.724 1.779 4.912 1.779 4.912s1.705-2.218 1.68-4.947c-.04-2.727-1.793-4.922-1.793-4.922zm177.685 0s-1.747 2.195-1.787 4.921c-.019 2.73 1.684 4.948 1.684 4.948s1.738-2.188 1.777-4.912c.03-2.724-1.674-4.957-1.674-4.957zm-170.302 7.117s-2.964 2.262-3.907 6.37c-.954 4.102.229 7.528.229 7.528s2.885-2.83 3.844-6.937c.942-4.099-.166-6.961-.166-6.961zm162.93 0s-1.11 2.862-.167 6.96c.955 4.107 3.852 6.938 3.852 6.938s1.172-3.426.224-7.527c-.945-4.11-3.91-6.371-3.91-6.371zm-179.77 1.5s.473 4.315 3.773 8.031c3.29 3.721 7.945 4.977 7.945 4.977s-.683-4.772-3.972-8.496c-3.288-3.716-7.746-4.512-7.746-4.512zm196.61 0s-4.454.796-7.749 4.512c-3.285 3.724-3.969 8.496-3.969 8.496s4.654-1.256 7.938-4.977c3.304-3.716 3.78-8.031 3.78-8.031zm-107.554 4.638c2.019 0 3.601.555 4.746 1.657.763.732 1.32 1.66 1.688 2.804.36 1.09.531 2.232.531 3.42 0 2.416-.675 4.37-2.05 5.866-1.422 1.546-3.255 2.326-5.524 2.326-.795 0-1.504-.08-2.143-.235-.634-.158-1.371-.43-2.23-.845-.293-.15-.518-.221-.682-.221a.603.603 0 0 0-.353.15c-.086.083-.159.142-.197.174l-.292-.193 1.85-3.715.299.156a2.21 2.21 0 0 0-.072.45c0 .297.224.605.673.915.37.25.842.452 1.426.614a6.126 6.126 0 0 0 1.672.244c1.164 0 2.163-.328 2.984-.994.528-.448.93-.964 1.198-1.57.257-.613.412-1.41.484-2.399-.704.675-1.425 1.17-2.139 1.463-.717.31-1.555.457-2.503.457-1.511 0-2.807-.395-3.883-1.176a4.543 4.543 0 0 1-1.446-1.728 5.132 5.132 0 0 1-.502-2.268c0-1.637.618-2.948 1.868-3.924 1.21-.945 2.743-1.428 4.597-1.428zm8.47.069h.331c.066.276.162.45.27.555.113.1.273.156.496.156h10.328c.219 0 .381-.055.496-.156.115-.104.199-.28.273-.555h.327v2.871l-6.416 11.143c-.251.43-.38.72-.38.84 0 .226.197.396.58.54v.352h-5.113v-.352a1.68 1.68 0 0 0 .754-.423c.196-.182.42-.504.688-.957l6.404-10.838h-7.941c-.223 0-.383.05-.496.148-.108.11-.205.285-.27.567h-.332zm-22.265.709h4.383v.338c-.25.076-.43.168-.535.283-.092.107-.14.292-.14.514v12.748c0 .224.048.4.14.511.104.123.285.218.535.291v.352h-4.383v-.352c.248-.073.43-.168.53-.29.096-.113.148-.288.148-.512v-9.537l-.992.252c-.235.06-.396.142-.5.251-.101.104-.19.296-.256.563h-.332v-3.969h.332c.073.26.15.433.215.512.075.08.19.117.33.117.068 0 .166-.005.297-.037l.906-.25v-.65c0-.216-.052-.397-.148-.514-.1-.112-.282-.207-.53-.283zm41.116 0h5.986v.338a4.589 4.589 0 0 0-.727.283c-.22.117-.336.292-.336.514v8.865h.782c.213 0 .383-.04.488-.154.117-.1.204-.28.272-.547h.326v3.886h-.326c-.068-.256-.155-.447-.272-.545-.105-.109-.275-.158-.488-.158h-.782v1.389c0 .235.05.411.147.523.099.123.27.218.533.291v.352h-4.39v-.352c.257-.073.44-.168.54-.29.095-.113.147-.29.147-.524v-1.389h-7.496c-.412 0-.672.043-.807.123-.124.079-.217.272-.277.58h-.326V535.3l7.076-8.385c.304-.37.459-.641.459-.803 0-.254-.181-.409-.53-.474zm-27.397 1.78c-1.073 0-1.942.285-2.617.845-.564.483-.838 1.093-.838 1.855 0 .743.274 1.352.838 1.83.665.568 1.541.852 2.617.852 1.079 0 1.953-.284 2.621-.852.555-.478.836-1.08.836-1.808 0-.772-.281-1.392-.836-1.877-.65-.555-1.526-.843-2.62-.846zm29.297 1.624-5.5 6.596h5.5zm-97.385 1.014s-2.52 2.738-2.756 6.943c-.216 4.219 1.541 7.393 1.541 7.393s2.35-3.3 2.584-7.506c.212-4.21-1.369-6.83-1.369-6.83zm154.826 0s-1.577 2.62-1.369 6.83c.23 4.205 2.584 7.506 2.584 7.506s1.75-3.174 1.535-7.393c-.228-4.205-2.75-6.943-2.75-6.943zm-171.152 4.658s1.227 4.15 5.115 7.242c3.891 3.102 8.69 3.54 8.69 3.54s-1.492-4.586-5.38-7.69c-3.886-3.09-8.425-3.092-8.425-3.092zm187.48 0s-4.538.001-8.431 3.092c-3.887 3.104-5.38 7.69-5.38 7.69s4.802-.438 8.692-3.54c3.887-3.092 5.12-7.242 5.12-7.242zm-162.794 7.834c-1.476.148-3 2.883-3.36 5.36-.185 1.267-.051 2.462.291 3.376-.773-.598-1.883-1.048-3.148-1.228-2.64-.372-5.938.441-6.166 1.988-.232 1.555 2.717 3.285 5.355 3.662 1.259.175 2.453.052 3.371-.295-.593.784-1.044 1.887-1.236 3.153-.37 2.637.446 5.94 2.012 6.162 1.55.224 3.263-2.71 3.644-5.344.18-1.263.057-2.456-.295-3.383.783.594 1.891 1.051 3.153 1.229 2.644.385 5.945-.44 6.176-1.994.22-1.56-2.723-3.278-5.362-3.643-1.265-.19-2.449-.072-3.38.281.606-.778 1.056-1.884 1.236-3.146.385-2.644-.438-5.943-1.996-6.172a1.228 1.228 0 0 0-.295-.006zm138.107 0a1.197 1.197 0 0 0-.293.006c-1.559.23-2.383 3.528-2.002 6.172.183 1.263.632 2.368 1.235 3.146-.932-.353-2.112-.47-3.374-.28-2.634.364-5.587 2.082-5.367 3.642.231 1.554 3.533 2.38 6.174 1.994 1.263-.177 2.379-.635 3.156-1.229-.353.927-.481 2.12-.298 3.383.38 2.633 2.096 5.568 3.648 5.344 1.57-.221 2.384-3.525 2.016-6.162-.196-1.266-.643-2.369-1.239-3.153.919.347 2.109.47 3.368.295 2.637-.377 5.589-2.107 5.353-3.662-.224-1.546-3.526-2.36-6.158-1.988-1.272.18-2.381.63-3.147 1.228.335-.914.474-2.108.28-3.376-.358-2.477-1.879-5.212-3.352-5.36zm-139.576 8.209c.191-.012.387-.004.584.023 1.57.24 2.667 1.697 2.441 3.268a2.879 2.879 0 1 1-5.7-.818c.187-1.38 1.336-2.39 2.675-2.473zm141.035 0c1.343.083 2.5 1.094 2.676 2.473a2.869 2.869 0 0 1-2.432 3.273 2.888 2.888 0 0 1-3.262-2.455 2.903 2.903 0 0 1 2.434-3.268 2.9 2.9 0 0 1 .584-.023zm-124.29 8.414s-1.105 3.634.544 7.59c1.663 3.959 4.66 6.11 4.66 6.11s.713-4.064-.933-8.04c-1.65-3.942-4.272-5.66-4.272-5.66zm107.55 0s-2.62 1.718-4.27 5.66c-1.644 3.976-.933 8.04-.933 8.04s2.996-2.151 4.662-6.11c1.644-3.956.54-7.59.54-7.59zm-99.264 6.129s-.248 3.785 2.256 7.256c2.495 3.5 5.912 4.908 5.912 4.908s-.217-4.126-2.73-7.615c-2.504-3.476-5.438-4.549-5.438-4.549zm90.98 0s-2.942 1.073-5.437 4.549c-2.51 3.49-2.732 7.615-2.732 7.615s3.424-1.408 5.922-4.908c2.498-3.47 2.248-7.256 2.248-7.256zm-106.083 3.799c-3.009.083-5.174 1.125-5.174 1.125s2.733 3.03 7.305 4.084c4.558 1.036 8.83-.555 8.83-.555s-3.15-3.294-7.721-4.344a12.976 12.976 0 0 0-3.24-.31zm121.185 0a12.958 12.958 0 0 0-3.238.31c-4.57 1.05-7.72 4.344-7.72 4.344s4.27 1.59 8.83.555c4.569-1.055 7.308-4.084 7.308-4.084s-2.17-1.042-5.18-1.125zm-92.096 3.324c-.202 0-.393.041-.566.127-1.383.68-1.136 4.008.012 6.342.564 1.122 1.312 2 2.101 2.56-.962-.041-2.102.185-3.22.746-2.348 1.158-4.556 3.648-3.873 5.028.686 1.374 3.995 1.135 6.34-.02 1.131-.546 2.012-1.309 2.564-2.095-.05.958.195 2.101.75 3.232 1.15 2.33 3.639 4.551 5.025 3.855 1.382-.669 1.138-3.992-.023-6.337-.544-1.115-1.308-2-2.104-2.551.972.045 2.114-.205 3.229-.754 2.348-1.15 4.564-3.64 3.883-5.031-.683-1.376-4.009-1.133-6.35.017-1.124.55-2.008 1.315-2.562 2.098.052-.957-.19-2.098-.747-3.215-1.016-2.054-3.04-4.006-4.458-4.002zm63.002 0c-1.416-.004-3.438 1.947-4.455 4.002-.548 1.117-.8 2.257-.752 3.215-.546-.783-1.426-1.548-2.554-2.098-2.344-1.15-5.669-1.393-6.35-.017-.685 1.392 1.54 3.88 3.877 5.03 1.123.55 2.26.8 3.236.755-.8.55-1.56 1.436-2.11 2.55-1.154 2.346-1.4 5.669-.02 6.338 1.386.696 3.875-1.524 5.027-3.855.553-1.13.793-2.274.748-3.233.555.787 1.441 1.55 2.566 2.096 2.342 1.155 5.653 1.394 6.35.02.672-1.38-1.537-3.87-3.88-5.028-1.122-.561-2.264-.787-3.23-.746.793-.56 1.543-1.438 2.108-2.56 1.147-2.334 1.395-5.662.006-6.342a1.27 1.27 0 0 0-.566-.127zm-77.453 4.14c-4.468.009-7.642 2.561-7.642 2.561s3.192 2.22 7.666 2.207c4.457-.01 8.082-2.414 8.082-2.414s-3.635-2.377-8.106-2.353zm91.912 0c-4.47-.023-8.105 2.354-8.105 2.354s3.623 2.404 8.08 2.414c4.473.014 7.67-2.207 7.67-2.207s-3.178-2.552-7.645-2.56zm-73.341 2.993a2.823 2.823 0 0 1 2.697 1.58c.688 1.38.117 3.092-1.285 3.764a2.828 2.828 0 0 1-3.791-1.268 2.843 2.843 0 0 1 1.287-3.787 2.849 2.849 0 0 1 1.092-.29zm54.767 0a2.84 2.84 0 0 1 2.383 4.076 2.832 2.832 0 0 1-3.797 1.268c-1.403-.672-1.971-2.384-1.28-3.764a2.815 2.815 0 0 1 2.694-1.58zm-27.209 4.021a3.935 3.935 0 0 0-3.945 3.928 3.945 3.945 0 1 0 7.89 0c0-2.172-1.773-3.928-3.945-3.928z" style="fill:#fff;fill-opacity:1;fill-rule:nonzero;stroke:none;stroke-width:1.33333" transform="translate(-883.14 -1425.185) scale(3.81647)"/></svg>