<svg xmlns="http://www.w3.org/2000/svg" xml:space="preserve" width="79.174004" height="79.176003" viewBox="0 0 79.174004 79.176003"><defs><clipPath id="a" clipPathUnits="userSpaceOnUse"><path d="M0 59.382h59.381V0H0Z"/></clipPath></defs><g clip-path="url(#a)" transform="matrix(1.33333 0 0 -1.33333 0 79.176)"><path d="M0 0c.122 16.113 13.329 29.121 29.441 28.999S58.559 15.669 58.438-.442c-.122-16.112-13.33-29.118-29.443-28.997C12.885-29.318-.122-16.11 0 0m-.471.006c-.125-16.373 13.094-29.793 29.463-29.918 16.373-.123 29.792 13.096 29.916 29.464.124 16.373-13.094 29.794-29.465 29.917C13.074 29.594-.348 16.375-.471.006" style="fill:#274b86;fill-opacity:1;fill-rule:evenodd;stroke:none" transform="translate(.471 29.913)"/><path d="M0 0v-.001l-.003-.266-.016-1.923-.004-.455v-.224H.01c.947-.008 1.863.088 2.718.278l-.012-1.743.924.069.023 2.937.583-.003-.025-3.009.926.068L5.185.31l-.926.007-.133.003a.52.52 0 0 0 .13-.346l-.007-.722-.581.008.01 1.064-.226.001-.033.001-.667.006V.331l-.134.001a.52.52 0 0 0 .131-.348l-.015-1.932A9 9 0 0 0 .93-2.17L.946-.24l1.047-.008.003.585-2.042.016V.35h-.086A.53.53 0 0 0 0 0" style="fill:#274b86;fill-opacity:1;fill-rule:nonzero;stroke:none" transform="translate(27.42 56.366)"/><path d="m0 0 3.297-1.038-.429-1.363.93-.208.404 1.287.176.557L.939.319H.94L.128.573V.572L.085.586A.37.37 0 0 0 .103.325Z" style="fill:#274b86;fill-opacity:1;fill-rule:nonzero;stroke:none" transform="translate(34.172 53.217)"/><path d="M0 0c.327-.159.512-.476.422-.762-.102-.323-.513-.481-.92-.353-.406.127-.652.492-.551.816.09.285.423.442.781.384zm-.661-1.634c.886-.279 1.757-.023 1.946.57a.9.9 0 0 1-.084.686l.331-.105.171.547L.481.448l.168.538-.304.097.003.001-.674.213a.38.38 0 0 0 .017-.267L-.404.727l-1.242.392v-.001l-.022.007-.068.021a.36.36 0 0 0 .018-.254l-.1-.32.351-.11a.9.9 0 0 1-.462-.514c-.186-.594.382-1.303 1.268-1.582" style="fill:#274b86;fill-opacity:1;fill-rule:nonzero;stroke:none" transform="translate(36.115 55.397)"/><path d="m0 0-.555-1.763-.001.001-.089-.286.929-.209.29.927.824-.261.176.559-.823.26.258.82-.904.285-.049.013-.08.027A.5.5 0 0 0 0 0" style="fill:#274b86;fill-opacity:1;fill-rule:nonzero;stroke:none" transform="translate(38.337 54.933)"/><path d="m0 0 3.185-1.835-1.11-1.924-.039-.069.826-.384.006-.003h.002l1.4 2.433-.005.004v.001l-.613.352-.174.1L.752.243h.001L.212.555A.38.38 0 0 0 .174.3Z" style="fill:#274b86;fill-opacity:1;fill-rule:nonzero;stroke:none" transform="translate(41.467 53.327)"/><path d="m0 0-.961-1.669-.695.4a.38.38 0 0 0-.038-.253l-.174-.302 4.506-2.598.292.51-1.757 1.009L2.312-.928 2.2-.864v.001l-.454.26-.188.109-.116.067a.53.53 0 0 0-.058-.37L.42-2.468l-.63.362L.929-.129l-.113.063h.002L.442.149.175.303V.301L.059.369A.53.53 0 0 0 0 .002Z" style="fill:#274b86;fill-opacity:1;fill-rule:nonzero;stroke:none" transform="translate(41.216 52.111)"/><path d="m0 0-.213-.055A.35.35 0 0 0-.07-.254l.088-.343.84.208.755-3.035.878.298-1.104 4.444-.899-.225-.047-.012-.084-.02A.53.53 0 0 0 .573.754L.717.177Z" style="fill:#274b86;fill-opacity:1;fill-rule:nonzero;stroke:none" transform="translate(22.629 54.683)"/><path d="M0 0a2 2 0 0 1 1.147 1.168q.04-.035.079-.068c.4-.322.899-.496 1.45-.436l.282.669a1.4 1.4 0 0 0-.239-.022c-.684-.002-1.198.489-1.365 1.154h-.001l-.264 1.038-.243-.06-.094-.023-.413-.103-.145-.037-.1-.024v-.001L0 3.231a.52.52 0 0 0 .207-.295 3.724 3.724 0 0 0 .18-1.17A1.36 1.36 0 0 0-.562.457l.541-.467z" style="fill:#274b86;fill-opacity:1;fill-rule:nonzero;stroke:none" transform="translate(20.683 51.941)"/><path d="m0 0 1.041-4.182.877.301L.812.565-.133.331V.328l-.081-.02A.53.53 0 0 0 0 0" style="fill:#274b86;fill-opacity:1;fill-rule:nonzero;stroke:none" transform="translate(24.581 55.777)"/><path d="M0 0c.19-.295.039-.729-.334-.967-.372-.239-.828-.191-1.018.106-.171.27-.063.65.239.896l.202.129C-.562.332-.171.27 0 0m-2.727-.555.198-.313.328.21c-.062-.262-.038-.514.092-.72.343-.537 1.267-.558 2.068-.048C.76-.914 1.13-.067.788.47.657.674.439.804.176.856l.312.2-.32.504L-.941.853l-.304.476-.245-.155v.001l-.594-.38a.37.37 0 0 0 .215-.16h.001L-1.7.37l-1.15-.734-.041-.028h.001l-.037-.022a.37.37 0 0 0 .2-.141" style="fill:#274b86;fill-opacity:1;fill-rule:nonzero;stroke:none" transform="translate(16.21 51.32)"/><path d="m0 0 .003-.001 1.582-2.482.044-.068.756.578-.886 1.388.685.437-.314.494-.686-.436-.573.898-.798-.511L-.23.272l.001-.001-.072-.049A.53.53 0 0 0 0 0" style="fill:#274b86;fill-opacity:1;fill-rule:nonzero;stroke:none" transform="translate(17.096 53.066)"/><path d="m0 0-.135-.086v.001l-.634-.406-.029-.019-.114-.071a.53.53 0 0 0 .299-.222l.002-.001.268-.422.486-.761.8.51L3.846.375 3.53.868.629-.984Z" style="fill:#274b86;fill-opacity:1;fill-rule:nonzero;stroke:none" transform="translate(16.356 49.664)"/><path d="m0 0-.016.078-.083.394-.014.061-.061.004c-.651.02-.746.237-.923.861l-.02.074-.073-.016-.401-.084-.077-.018.015-.075.182-.865-2.783-.586-.079-.016.017-.077.114-.54.016-.078.077.018 4.031.849z" style="fill:#274b86;fill-opacity:1;fill-rule:nonzero;stroke:none" transform="translate(7.617 24.597)"/><path d="M0 0q-.28.872.642 1.169c.571.186 1.064-.026 1.225-.524.172-.536-.07-.982-.633-1.16C.908-.622.629-.619.408-.506A.85.85 0 0 0 0 0m.879-1.266C2.445-.762 2.518.132 2.306.79c-.121.378-.351.659-.663.819-.344.175-.765.198-1.187.06-.402-.127-.7-.366-.864-.684C-.566.674-.587.308-.463-.07c.086-.271.278-.555.541-.705-.84-.125-1.268.016-1.411.462-.114.354.021.627.381.772l.069.028-.023.071-.159.49-.023.075-.076-.023c-.389-.128-1.04-.623-.723-1.606.447-1.39 2.229-.931 2.766-.76" style="fill:#274b86;fill-opacity:1;fill-rule:nonzero;stroke:none" transform="translate(5.83 21.954)"/><path d="M0 0a1.4 1.4 0 0 1-.457.549l.863.259.726-1.513.033-.072.073.035.455.216.07.037-.033.07-.924 1.922-.029.063-.065-.02-2.128-.678-.083-.023.035-.081.172-.411.015-.039.041-.011a.86.86 0 0 0 .628-.472.85.85 0 0 0 .058-.647c-.069-.197-.224-.359-.45-.467a.92.92 0 0 0-.691-.057.74.74 0 0 0-.428.393c-.119.244-.245.699.216.987l.06.037-.03.064-.232.479-.038.082-.074-.048c-.931-.577-.646-1.447-.48-1.792.212-.442.504-.731.869-.857.51-.181 1 .007 1.188.098C.179-1.503.301-.628 0 0" style="fill:#274b86;fill-opacity:1;fill-rule:nonzero;stroke:none" transform="translate(8.068 18.969)"/><path d="M0 0c.232-.109.572-.129.942.112.261.169.429.408.49.695.071.337-.018.708-.256 1.071-.242.372-.534.598-.867.668-.43.089-.834-.097-1.097-.268l-.066-.043.043-.067.275-.422.04-.061.065.035c.251.136.716.389 1.076-.165C.998 1.012.619.726.538.675.127.404-.169.671-.344.94c-.047.07-.092.15-.136.227l-.041.075-.072-.047-.372-.243-.066-.042.043-.068q.032-.05.068-.099.032-.048.066-.094C-.67.364-.6.129-.642-.068q-.046-.228-.299-.39c-.358-.236-.779-.119-1.048.291-.364.563-.073.883.262 1.125l.061.043-.041.065-.293.445-.046.071-.069-.05c-.321-.247-.745-.644-.688-1.238.024-.264.119-.53.276-.77.271-.418.614-.678.995-.758.344-.072.709.004 1.035.215Q.09-.632 0 0" style="fill:#274b86;fill-opacity:1;fill-rule:nonzero;stroke:none" transform="translate(9.769 14.964)"/><path d="m0 0-.053.054-.369.377-.052.055-.052-.055L-1.632-.65-2.96.708l1.107 1.082.05.049-.05.054-.371.378-.052.052-.051-.052-2.8-2.739-.054-.052.053-.054.369-.376.052-.054.053.052L-3.4.275l1.329-1.358-1.255-1.226-.052-.051.051-.053.371-.377.051-.052.052.05L-.054-.05z" style="fill:#274b86;fill-opacity:1;fill-rule:nonzero;stroke:none" transform="translate(14.589 12.573)"/><path d="m0 0-.969.735 1.542.994.008-.006Zm1.271 2.025-.041.03-.477.364-.041.03-.044-.026L-2.872.19l-.09-.056.084-.065.435-.331.041-.031.044.03.972.634 1.168-.885-.363-1.093-.018-.054.044-.031.461-.35.082-.061.032.1 1.237 3.978z" style="fill:#274b86;fill-opacity:1;fill-rule:nonzero;stroke:none" transform="translate(15.01 9.253)"/><path d="m0 0-.065.035-.451.243-.065.036-.035-.066-1.392-2.571-.201 3.48-.003.039-.037.021-.551.298-.065.034-.035-.064-1.865-3.445-.035-.065.066-.036.45-.241.065-.037.035.065L-2.792.299l.231-3.496.002-.042.036-.018.522-.282.065-.037.036.065L-.036-.065z" style="fill:#274b86;fill-opacity:1;fill-rule:nonzero;stroke:none" transform="translate(20.332 8.851)"/><path d="M0 0c-.99.349-1.571-.182-1.767-.742-.119-.337-.127-.826.512-1.233l.695-.44c.547-.35.646-.508.528-.843-.176-.501-.823-.335-1.092-.239-.286.102-.922.413-.67 1.129l.024.071-.069.023-.469.164-.07.027-.024-.072c-.114-.327-.187-.69.051-1.128.139-.256.37-.549 1.032-.782.734-.257 1.626-.22 1.933.654.196.552.014 1.026-.52 1.371l-.971.61c-.247.161-.318.32-.242.537a.53.53 0 0 0 .273.329c.233.113.542.035.702-.021.192-.069.803-.338.607-.985l-.02-.066.067-.025.469-.163.072-.027.022.074C1.322-.934.96-.338 0 0" style="fill:#274b86;fill-opacity:1;fill-rule:nonzero;stroke:none" transform="translate(22.13 8.301)"/><path d="m0 0-.073.015-.014-.074-.722-3.85-.014-.072.072-.013 2.843-.535.073-.012.012.072.087.46.015.073-.073.013-2.249.424.213 1.141 2.035-.381.073-.015.012.073.087.463.014.069-.072.015-2.035.382.195 1.035 2.211-.415.072-.015.014.073.086.461.015.075-.073.012z" style="fill:#274b86;fill-opacity:1;fill-rule:nonzero;stroke:none" transform="translate(24.154 7.54)"/><path d="m0 0-.073.007-.006-.073-.289-3.907-.005-.073.074-.007.527-.038.074-.004.005.07.29 3.907.004.075-.074.006z" style="fill:#274b86;fill-opacity:1;fill-rule:nonzero;stroke:none" transform="translate(27.734 6.98)"/><path d="m0 0-.008.073-.074-.007-.527-.053-.073-.007.008-.075.249-2.465c.033-.327-.029-.587-.179-.772-.184-.227-.468-.298-.674-.318-.341-.034-.928.039-1.015.915l-.249 2.453-.006.075-.073-.008-.526-.053-.075-.009.007-.072.262-2.6c.068-.681.56-1.433 1.72-1.318.998.101 1.581.773 1.487 1.712z" style="fill:#274b86;fill-opacity:1;fill-rule:nonzero;stroke:none" transform="translate(33.628 7.104)"/><path d="m0 0-.019.071-.071-.02-.496-.136-.07-.019.02-.072.776-2.817-2.553 2.368-.031.029-.041-.011-.604-.167-.072-.018.021-.073 1.039-3.776.02-.07.071.017.494.137.071.018-.019.074-.776 2.82L.345-4.008l.032-.027.037.011.575.156.07.019-.019.071z" style="fill:#274b86;fill-opacity:1;fill-rule:nonzero;stroke:none" transform="translate(37.351 8.076)"/><path d="m0 0-.026.068-.07-.028-.491-.195-.068-.03.028-.069L.835-3.885l.027-.07.07.027.49.199.069.026-.029.071z" style="fill:#274b86;fill-opacity:1;fill-rule:nonzero;stroke:none" transform="translate(38.542 8.596)"/><path d="m0 0-.016.103-.092-.049-.524-.28-.048-.025.009-.053.563-3.265-2.413 2.278-.038.036-.047-.022-.519-.28-.093-.05.079-.072 3.106-2.78.038-.034.046.022.495.266.045.024-.006.052z" style="fill:#274b86;fill-opacity:1;fill-rule:nonzero;stroke:none" transform="translate(42.024 10.32)"/><path d="m0 0-.046.059-.058-.046-1.826-1.378-.701.929L-.978.81l.058.044-.043.059-.282.375-.044.058-.06-.043L-3.003.054l-.633.841 1.797 1.356.059.046-.044.058-.282.375-.045.058-.059-.044-2.278-1.718-.059-.045.044-.06 2.358-3.126.045-.058.06.044L.268-.478l.058.044-.044.059z" style="fill:#274b86;fill-opacity:1;fill-rule:nonzero;stroke:none" transform="translate(46.797 9.633)"/><path d="m0 0-.85-.887-.96.921.912.952c.181.189.524.473.96.056C.479.641.266.28 0 0m2.141-.151-.536.465C1.242.635.996.62.8.55c.05.304.015.629-.349.976-.525.504-1.148.431-1.756-.203L-2.557.016l-.051-.055.054-.05 2.828-2.71.054-.051.052.053.365.383.051.053-.053.051L-.418-1.2l.835.875c.399.416.666.226.883.018.108-.103.556-.509.793-.625l.047-.025.039.04.449.469.051.053c-.144-.042-.384.102-.538.244" style="fill:#274b86;fill-opacity:1;fill-rule:nonzero;stroke:none" transform="translate(47.663 12.826)"/><path d="M0 0c-.481.335-.985.287-1.459-.137l-.849-.774c-.219-.192-.392-.221-.581-.091a.55.55 0 0 0-.246.352c-.045.254.113.531.211.672.117.168.539.681 1.109.324l.06-.04.039.058.283.41.045.065-.066.041c-.743.461-1.417.272-1.996-.563-.256-.369-.358-.748-.296-1.097.057-.317.248-.604.539-.804.294-.205.763-.343 1.325.165l.61.553c.483.433.663.487.953.283.435-.302.102-.879-.061-1.116-.112-.16-.349-.44-.674-.499q-.296-.052-.591.153l-.061.044-.043-.063-.284-.405-.041-.063.06-.042c.284-.198.615-.363 1.102-.251.283.067.628.211 1.028.789.31.445.449.921.378 1.307Q.414-.289 0 0" style="fill:#274b86;fill-opacity:1;fill-rule:nonzero;stroke:none" transform="translate(51.724 16.366)"/><path d="m0 0-.065.034-.037-.064-.252-.464-.036-.067.065-.034 3.437-1.879.065-.033.034.062.255.465.035.065-.065.036z" style="fill:#274b86;fill-opacity:1;fill-rule:nonzero;stroke:none" transform="translate(49.908 19.018)"/><path d="m0 0 .485 1.153.029.068-.066.029-.435.182-.067.031-.029-.071-1.236-2.93-.029-.067.069-.029.432-.184.069-.028.027.068.488 1.153 3.108-1.311.069-.03.029.07.205.487.029.071-.069.026z" style="fill:#274b86;fill-opacity:1;fill-rule:nonzero;stroke:none" transform="translate(51.377 20.891)"/><path d="m0 0-1.909 1.975-.092.097-.032-.131-.147-.603-.01-.04.031-.03L-.686-.184l-1.976-.609-.04-.011-.01-.041-.147-.6-.032-.13.127.043 2.605.874 1.511-.368.07-.019.018.071.125.516.018.071-.071.017z" style="fill:#274b86;fill-opacity:1;fill-rule:nonzero;stroke:none" transform="translate(54.251 23.984)"/><path d="M0 0a8.7 8.7 0 0 1-.381-2.153l-.008-.01a3 3 0 0 0-.04-.276c-.062-.317-.167-.577-.257-.65l-.021.006c-.084.667-.227 1.693-.517 2.6C-1.68.946-2.312 2.055-3.085 2.668c-.022-.766.106-1.658.399-2.577.321-1.005.812-1.883 1.33-2.524h.002a5.183 5.183 0 0 0 .712-1.284l.013.023c.113.307.204.517.298.726.067.155.299.598.399.722.3.558.777 1.252 1.205 2.123.73 1.482.961 3.553.961 3.553C1.409 2.736.461 1.506 0 0" style="fill:#274b86;fill-opacity:1;fill-rule:nonzero;stroke:none" transform="translate(54.948 30.084)"/><path d="M0 0c.126-.755.423-1.608.887-2.451a7.9 7.9 0 0 1 1.788-2.224l.001.001c.215-.185.441-.426.653-.701.109-.142.206-.287.294-.426l.007.028c.051.323.102.546.153.769.037.165.179.643.255.785.185.604.521 1.377.774 2.315.433 1.595.264 3.67.264 3.67C4.398.927 3.704-.462 3.54-2.026a8.7 8.7 0 0 1 .038-2.189l-.005-.009q.012-.131.014-.279c-.001-.324-.055-.599-.129-.687h-.021c-.211.638-.547 1.619-1.005 2.453C1.712-1.421.877-.453 0 0" style="fill:#274b86;fill-opacity:1;fill-rule:nonzero;stroke:none" transform="translate(50.869 36.914)"/><path d="m0 0-.003-.012q.038-.123.065-.27c.064-.317.063-.597.006-.699L.049-.983C-.281-.398-.8.499-1.409 1.232c-.959 1.152-1.962 1.944-2.911 2.219.27-.717.724-1.495 1.34-2.236.676-.811 1.46-1.44 2.181-1.841l.001.002c.247-.139.514-.331.776-.562q.202-.18.37-.36l.001.026c-.011.328-.005.556.003.785.006.17.054.665.099.82C.519.714.7 1.536.769 2.503.888 4.153.324 6.158.324 6.158c-.505-.954-.919-2.451-.78-4.018A8.7 8.7 0 0 1 0 0" style="fill:#274b86;fill-opacity:1;fill-rule:nonzero;stroke:none" transform="translate(53.415 37.358)"/><path d="m0 0-.001-.012a3 3 0 0 0 .119-.253c.121-.3.175-.575.138-.685l-.02-.006C-.199-.445-.88.336-1.619.939-2.78 1.885-3.915 2.469-4.9 2.56c.402-.653.996-1.332 1.744-1.942.819-.667 1.708-1.131 2.494-1.386v.001c.269-.089.567-.226.869-.404.155-.089.298-.186.43-.283l-.002.027c-.074.32-.111.545-.147.771C.461-.488.412.009.427.167.374.798.392 1.64.276 2.603.077 4.243-.861 6.104-.861 6.104c-.311-1.033-.433-2.581.005-4.093A8.7 8.7 0 0 1 0 0" style="fill:#274b86;fill-opacity:1;fill-rule:nonzero;stroke:none" transform="translate(51.51 41.734)"/><path d="m0 0 .001.001c.287-.175.728-.546.828-.659C.784-.466.001 1.035-.54 1.72c-.855 1.081-1.748 1.829-2.594 2.105.238-.667.642-1.392 1.191-2.087C-1.342.977-.644.382 0 0" style="fill:#274b86;fill-opacity:1;fill-rule:nonzero;stroke:none" transform="translate(49.077 44.653)"/><path d="M0 0c.09-.209.18-.421.288-.729l.014-.024q.09.228.212.469c.158.312.337.587.515.808l.003-.001c.524.636 1.025 1.506 1.359 2.508.303.915.443 1.805.431 2.571-.782-.604-1.427-1.704-1.9-3.128C.622 1.571.466.546.375-.118L.354-.125C.265-.051.162.209.102.529Q.077.674.068.805L.06.813a8.7 8.7 0 0 1-.356 2.159c-.442 1.512-1.373 2.752-2.192 3.457 0 0 .206-2.076.919-3.565.417-.874.885-1.577 1.179-2.138C-.292.602-.066.157 0 0" style="fill:#274b86;fill-opacity:1;fill-rule:nonzero;stroke:none" transform="translate(4.736 27.414)"/><path d="M0 0c.071-.14.208-.622.243-.787.049-.224.096-.447.145-.772l.009-.026q.13.207.296.421c.214.274.444.51.661.692l.001-.002C1.994.052 2.651.809 3.171 1.728c.473.841.78 1.69.914 2.443-.882-.443-1.726-1.401-2.462-2.709C1.154.636.806-.342.588-.978L.567-.979C.493-.887.442-.614.446-.29q.003.15.018.278l-.006.011c.109.663.136 1.407.064 2.188C.378 3.755-.3 5.151-.968 5.998c0 0-.194-2.075.219-3.675C-.506 1.383-.18.607 0 0" style="fill:#274b86;fill-opacity:1;fill-rule:nonzero;stroke:none" transform="translate(4.515 32.996)"/><path d="M0 0c.043-.153.085-.651.087-.821.005-.229.009-.458-.005-.783l.002-.03q.169.18.372.357c.264.228.535.416.784.554v-.002c.727.392 1.518 1.01 2.204 1.813.624.734 1.089 1.509 1.365 2.221-.95-.265-1.962-1.042-2.937-2.183C1.255.401.725-.491.39-1.072l-.021.001c-.055.104-.053.384.013.699q.03.15.072.272L.45-.09c.234.63.402 1.354.482 2.136C1.09 3.611.692 5.111.2 6.071c0 0-.589-1.999-.49-3.647C-.231 1.455-.061.629 0 0" style="fill:#274b86;fill-opacity:1;fill-rule:nonzero;stroke:none" transform="translate(5.611 37.731)"/><path d="M0 0v-.002c.788.245 1.684.699 2.51 1.358.754.601 1.358 1.269 1.765 1.919-.984-.078-2.126-.65-3.299-1.582C.23 1.101-.46.325-.902-.18l-.019.007c-.034.111.021.384.147.684q.058.136.12.252l-.001.01a8.7 8.7 0 0 1 .882 2.004C.683 4.283.581 5.83.281 6.868c0 0-.96-1.849-1.181-3.487-.127-.962-.119-1.804-.178-2.433.013-.16-.041-.657-.071-.822-.04-.227-.079-.452-.157-.77l-.002-.028q.199.143.434.278c.303.173.603.307.874.394" style="fill:#274b86;fill-opacity:1;fill-rule:nonzero;stroke:none" transform="translate(8.672 41.22)"/><path d="M0 0v-.001c.648.374 1.353.962 1.964 1.716.559.688.969 1.408 1.216 2.071-.848-.265-1.751-1.002-2.618-2.072C.01 1.035-.789-.457-.834-.648c.099.112.546.476.834.648" style="fill:#274b86;fill-opacity:1;fill-rule:nonzero;stroke:none" transform="translate(10.486 44.883)"/><path d="M0 0c.176 7.537-7.156 8.87-7.156 8.87.391-11.654-4.184-15.167-4.184-15.167-5.17 2.113-5.373 6.823-5.373 6.823 5.69 3.226 5.93 8.692 5.93 8.692-3.031.102-7.997-2.213-7.997-2.213-.942-8.611-5.677-12.125-5.677-12.125-4.532 2.226-4.493 7.413-4.493 7.413 4.647 2.318 5.421 4.627 5.421 4.627-10.686.72-10.048 11.168-10.048 11.168-2.388-4.572-2.223-8.96-2.223-8.96.175-8.579 4.689-13.121 4.689-13.121 6.363-7.948 15.782-7.503 15.782-7.503C-.084-11.011 0 0 0 0" style="fill:#274b86;fill-opacity:1;fill-rule:nonzero;stroke:none" transform="translate(44.939 20.637)"/><path d="M0 0s.679 5.42 2.746 9.755c0 0-3.517-.812-6.357-1.948 0 0-.873-4.5 3.611-7.807" style="fill:#274b86;fill-opacity:1;fill-rule:nonzero;stroke:none" transform="translate(19.581 33.556)"/><path d="M0 0c-.291-1.595-1.186-9.128-1.186-9.128 2.393-.058 3.955.648 3.955.648l.089 11.849c-3.507.306-7.864-.66-7.864-.66-1.561-2.858-2.87-10.111-2.87-10.111 1.548-1.129 3.262-1.38 3.262-1.38.587 3.706 1.494 7.767 1.494 7.767.819 2.589 2.449 2.057 2.449 2.057C-.192.919.406.914.406.914.125.716 0 0 0 0" style="fill:#274b86;fill-opacity:1;fill-rule:nonzero;stroke:none" transform="translate(27.894 40.715)"/><path d="M0 0s-9.876-.522-11.25-8.251c0 0 3.961 1.406 6.438 1.946 0 0 2.205 4.251 4.812 6.305" style="fill:#274b86;fill-opacity:1;fill-rule:nonzero;stroke:none" transform="translate(27.344 50.132)"/><path d="M0 0c-.797.126-2.712.059-2.712.059-3.414-2.926-4.916-6.224-4.916-6.224 3.757.808 7.586.658 7.586.658z" style="fill:#274b86;fill-opacity:1;fill-rule:nonzero;stroke:none" transform="translate(30.798 50.069)"/><path d="M0 0s5.462-.28 8.847-1.144c0 0-.86 2.361-3.667 5.575 0 0-2.347 1.014-5.139 1.156z" style="fill:#274b86;fill-opacity:1;fill-rule:nonzero;stroke:none" transform="translate(31.195 44.478)"/><path d="M0 0s3.543-.943 5.888-2.197c0 0-2.793 5.047-9.358 7.649 0 0 2.495-2.693 3.47-5.452" style="fill:#274b86;fill-opacity:1;fill-rule:nonzero;stroke:none" transform="translate(40.6 43.17)"/><path d="M0 0s2.324 6.685-2.442 14.661c0 0-2.663 1.375-6.047 2.359 0 0 1.757-5.042 1.885-9.112 0 0 5.37-2.154 6.604-7.908" style="fill:#274b86;fill-opacity:1;fill-rule:nonzero;stroke:none" transform="translate(49.325 25.671)"/><path d="M0 0s2.465.249 4.443-.573c0 0-.433 5.751-2.045 9.072 0 0-3.901 1.147-9.047 1.227l-.09-11.689s1.601.425 3.362 1.33c0 0-.06 5.086 1.049 6.813 0 0 .525.835 1.721.706 0 0 .449-.063.807-.006 0 0-.214-.716-.219-1.285 0 0-.086-3.44.019-5.595" style="fill:#274b86;fill-opacity:1;fill-rule:nonzero;stroke:none" transform="translate(37.84 34.316)"/></g></svg>