<svg xmlns="http://www.w3.org/2000/svg" width="185.70438mm" height="185.71953mm" viewBox="0 0 185.70438 185.71953"><path d="M109.867 85.728c-36.055 0-65.28 29.217-65.28 65.257 0 36.07 29.225 65.286 65.28 65.286 36.062 0 65.286-29.216 65.286-65.286 0-36.04-29.224-65.257-65.286-65.257" style="fill:#fff;fill-opacity:1;fill-rule:nonzero;stroke:none;stroke-width:1.93868" transform="translate(-17.022 -58.14)"/><path d="M17.022 150.985c0 51.223 41.644 92.874 92.845 92.874 51.2 0 92.86-41.65 92.86-92.874 0-51.194-41.66-92.845-92.86-92.845-51.201 0-92.845 41.651-92.845 92.845zm1.212 0c0-50.527 41.098-91.626 91.633-91.626 50.534 0 91.648 41.099 91.648 91.626 0 50.542-41.114 91.663-91.648 91.663-50.535 0-91.633-41.121-91.633-91.663" style="fill:#231f20;fill-opacity:1;fill-rule:nonzero;stroke:none;stroke-width:1.93868" transform="translate(-17.022 -58.14)"/><path d="M200.16 150.985c0 49.868-40.418 90.292-90.293 90.292-49.853 0-90.285-40.424-90.285-90.292 0-49.853 40.432-90.263 90.285-90.263 49.875 0 90.292 40.41 90.292 90.263zm-90.293-65.257c-36.055 0-65.28 29.217-65.28 65.257 0 36.07 29.225 65.286 65.28 65.286 36.062 0 65.286-29.216 65.286-65.286 0-36.04-29.224-65.257-65.286-65.257" style="fill:#231f20;fill-opacity:1;fill-rule:nonzero;stroke:none;stroke-width:1.93868" transform="translate(-17.022 -58.14)"/><path d="m45.837 121.018-1.113 3.03-2.605-.955-2.757-1.014-1.84 5.013 2.567.954 2.78 1.022-1.121 3.03-5.347-1.962-3.332-1.234-3.726-1.378 1.12-3.037 4.742 1.757 1.855-5.021-2.476-.901-2.28-.841 1.121-3.052 5.415 2.007 3.309 1.204 3.688 1.378" style="fill:#fff;fill-opacity:1;fill-rule:nonzero;stroke:none;stroke-width:1.93868" transform="translate(-17.022 -58.14)"/><path d="m42.96 112.65-2.644-3.362-.06-.151 4.256.9zm4.566-4.915-3.484-.62c-1.446-.273-2.264-.417-2.453-.455-1.098-.204-1.909-.379-2.424-.485l-1.969 3.302 2.355 3.226 3.333 4.567 2.741 3.877 1.818-3.03-2.795-3.528 2.287-3.855 2.393.485 1.954.431 1.765-2.946-5.521-.969" style="fill:#fff;fill-opacity:1;fill-rule:nonzero;stroke:none;stroke-width:1.93868" transform="translate(-17.022 -58.14)"/><path d="m60.907 100.003-2.521 2.863-4.476-.901-2.689-.545-3.165-.66 3.65 3.28 3.18 2.787-1.892 2.143-4.81-4.256-5.096-4.498 2.567-2.924 10.398 2.257-6.944-6.172 1.878-2.12 3.923 3.46 2.817 2.484 3.18 2.802M66.2 91.461c.289.348.5.712.652 1.12.144.41.182.864.151 1.349-.055.485-.227.977-.53 1.5-.31.499-.757.999-1.37 1.491a11.53 11.53 0 0 1-1.341.954l-1.644.879-2.097-2.015a5.28 5.28 0 0 0 .802-.181c.22-.055.477-.144.75-.258a6.27 6.27 0 0 0 1.439-.833c.197-.167.34-.31.455-.455.121-.128.22-.302.295-.5.083-.204.106-.4.098-.567-.017-.19-.098-.379-.265-.583-.212-.235-.545-.417-1.015-.5-.37-.076-.886-.106-1.567-.106-.864-.033-1.386-.055-1.575-.055a8.977 8.977 0 0 1-1.606-.227 4.566 4.566 0 0 1-1.174-.462 4.11 4.11 0 0 1-.893-.788 3.808 3.808 0 0 1-.652-1.219 3.279 3.279 0 0 1-.055-1.355c.099-.477.288-.947.584-1.386.264-.432.681-.886 1.211-1.31.137-.099.28-.205.401-.31.129-.092.341-.228.599-.417.288-.167.575-.333.825-.493.265-.128.523-.265.727-.378l2 1.87c-.197.044-.387.114-.561.174-.19.06-.394.144-.644.243-.166.083-.37.196-.605.356-.25.128-.425.265-.568.378-.341.273-.576.568-.705.894-.166.44-.136.803.114 1.106.182.227.447.394.795.507.34.114.954.166 1.878.174.59-.016 1.121-.016 1.575-.016.621.022 1.16.098 1.598.234.387.09.735.235 1.053.424.318.182.606.44.863.758M79.53 87.182l-2.803 1.62-1.393-2.392-1.47-2.53-4.626 2.689 1.378 2.355 1.484 2.567-2.794 1.636-2.87-4.945-1.78-3.075-2-3.43 2.795-1.62 1.28 2.195 1.265 2.181 4.634-2.696-1.325-2.256-1.227-2.113 2.795-1.613 2.908 4.983 1.764 3.052 1.984 3.392M84.315 85.365l-2.991 1.242-2.12-5.112-1.333-3.256-1.613-3.847 2.983-1.227 2.174 5.218 1.37 3.279 1.53 3.703M97.576 81.42l-3.68.984-3.22-3.234-1.938-1.954-2.264-2.302 1.219 4.748 1.068 4.09-2.742.72-1.636-6.218-1.741-6.558 3.763-1.008 7.377 7.664-2.333-8.989 2.757-.734 1.332 5.073.947 3.613 1.09 4.104M116.069 76.436c-.017.652-.114 1.242-.318 1.75-.197.5-.508.946-.91 1.302-.484.485-1.112.833-1.877 1.06-.765.235-1.659.333-2.666.326-1.06-.006-1.954-.137-2.719-.371-.757-.243-1.386-.621-1.893-1.136-.363-.363-.628-.803-.833-1.31a4.971 4.971 0 0 1-.272-1.742l.032-3.862.034-2.408.032-2.689 3.227.022-.033 4.021-.044 3.772c-.005 1.068.181 1.878.575 2.4.401.523 1.038.788 1.916.795.886 0 1.53-.25 1.924-.787.394-.53.598-1.333.613-2.363l.033-3.453.017-2.037.016-2.295 3.241.039-.044 4.71-.038 4.256M129.344 83.191l-3.733-.765-1.462-4.301-.878-2.605-1.023-3.06-1.007 4.794-.825 4.135-2.787-.56 1.265-6.294 1.348-6.671 3.809.765L127.3 78.76l1.87-9.103 2.78.568-1.038 5.127-.72 3.666-.848 4.172M134.229 85.032l-3.06-1.06 1.81-5.226 1.151-3.324 1.356-3.954 3.06 1.068-1.848 5.362-1.174 3.347-1.295 3.787M152.813 79.034l-4.097 3.574-3.469 3.09-3.173 2.81-3.317-1.621.553-4.415.493-4.279.583-5.255 2.983 1.469-.696 4.801-.41 2.78-.468 3.195 1.15-1.075 3.355-3.204 3.484-3.34 3.03 1.47M154.365 96.452l-7.482-5.347 3.098-4.332 1.908-2.688 2.688-3.733 7.482 5.346-1.43 2-1.773-1.273-.863-.606-.954-.697-1.258-.893-1.68 2.348 4.15 2.96-1.394 1.954-2.317-1.666-1.84-1.302-1.75 2.446 4.847 3.476-.697.97-.735 1.037M162.741 104.517l-2.454-2.408c.099-.175.371-.818.841-1.939.47-1.128.727-1.772.833-1.931.136-.333.447-1.083.909-2.257.15-.401.318-.818.477-1.22l.318.417c.114.144.22.265.296.357.462.439.961.719 1.484.817.288.022.56 0 .825-.09.265-.084.515-.265.758-.507.394-.387.568-.78.53-1.182a1.403 1.403 0 0 0-.212-.628 2.104 2.104 0 0 0-.447-.584l-1.484-1.461-3.4 3.438L160 97.391l-2.211 2.25-2.22-2.182 9.278-9.42 4.21 4.135c1 .984 1.515 1.96 1.553 2.953.033.886-.363 1.757-1.182 2.59-.674.674-1.393 1.045-2.173 1.113-.712.055-1.515-.128-2.393-.568l-.757 2.227c-.106.265-.28.727-.493 1.4-.083.266-.166.508-.25.758l-.62 1.87M170.693 109.613c-.356.265-.743.47-1.144.599a3.171 3.171 0 0 1-1.348.098c-.477-.06-.97-.258-1.477-.568-.492-.326-.977-.803-1.446-1.416-.333-.44-.636-.901-.894-1.386l-.825-1.673 2.082-2.038c.044.31.099.584.16.818.054.235.128.477.234.75.22.59.485 1.083.78 1.477.166.196.295.363.439.47.129.12.28.226.5.317.181.084.378.121.552.121.182-.005.371-.098.583-.258.243-.196.432-.515.546-.992.075-.356.128-.87.182-1.545.038-.87.075-1.4.09-1.582.055-.614.144-1.151.288-1.59.122-.447.288-.834.5-1.152.204-.326.484-.613.818-.878.386-.28.802-.477 1.226-.59a3.057 3.057 0 0 1 1.386 0c.462.105.917.302 1.34.613.425.302.856.727 1.258 1.257.128.15.227.295.303.424.09.136.242.333.394.613.166.288.326.576.462.833.144.28.265.523.364.743l-1.954 1.93c-.044-.189-.09-.386-.144-.575a4.658 4.658 0 0 0-.22-.636c-.084-.182-.174-.386-.31-.636-.152-.243-.258-.432-.371-.568a2.417 2.417 0 0 0-.879-.742c-.439-.174-.81-.152-1.098.068-.235.182-.409.424-.537.772-.121.341-.205.962-.258 1.87.006.599-.005 1.13-.038 1.584-.044.613-.136 1.15-.28 1.59a4.29 4.29 0 0 1-.47 1.03c-.19.318-.454.59-.795.848M170.526 115.702l-1.674-2.749 4.718-2.893 2.984-1.817 3.59-2.181 1.68 2.749-4.846 2.976-3.021 1.84-3.43 2.075M185.27 121.2l-1.582-3.355-3.219 1.522-1.355.637-1.712.787-1.635.788-1.803.856-1.393-2.924 9.739-4.596-.849-1.81-.439-.894-.28-.629 2.219-1.06 4.536 9.64-2.226 1.038M188.815 124.093l-4.135 3.756 2.885.493 2.681.454.53 1.689.5 1.643-4.438-.954-4.529-.977-2.695.825-2.303.712-.462-1.545-.477-1.56 5.226-1.597 2.014-2.075 1.462-1.492 1.113-1.151 1.575-1.621 1.053 3.4" style="fill:#fff;fill-opacity:1;fill-rule:nonzero;stroke:none;stroke-width:1.93868" transform="translate(-17.022 -58.14)"/><path d="M96.553 128.054 75.88 140.027a4.174 4.174 0 0 0-2.105 3.627l.038 36.797c0 1.484.795 2.878 2.09 3.62l31.724 18.516a4.182 4.182 0 0 0 4.218 0l32.003-18.509a4.2 4.2 0 0 0 2.105-3.627l.005-36.797c0-1.5-.802-2.885-2.09-3.627L123.17 128.06a4.21 4.21 0 0 0-5.74 1.53 4.19 4.19 0 0 0-.568 2.105c0 1.447.75 2.855 2.098 3.643 0 0 15.214 8.784 18.591 10.738 0 3.938-.006 28.013-.016 31.943-3.393 1.962-24.362 14.086-27.785 16.062-3.423-1.976-24.166-14.085-27.543-16.054-.006-3.916-.028-28.013-.028-31.95 3.393-1.962 18.592-10.77 18.592-10.77a4.179 4.179 0 0 0 2.098-3.627c0-.712-.175-1.439-.56-2.09a4.217 4.217 0 0 0-5.756-1.537M54.387 130.023c-1.166 1.999-.477 4.574 1.515 5.74l11.23 6.498a4.174 4.174 0 0 0 5.725-1.538c1.174-1.999.5-4.574-1.507-5.74l-11.23-6.49c-2-1.166-4.567-.477-5.733 1.53M159.613 128.493l-11.215 6.49a4.205 4.205 0 0 0-1.522 5.74 4.191 4.191 0 0 0 5.74 1.538l11.208-6.498a4.194 4.194 0 0 0 1.53-5.74c-1.151-2.007-3.726-2.696-5.74-1.53M147.36 127.289a5.601 5.601 0 0 1-5.611 5.596 5.591 5.591 0 0 1-5.59-5.596c0-3.098 2.5-5.597 5.59-5.597 3.105 0 5.611 2.5 5.611 5.597M83.596 127.289a5.598 5.598 0 0 1-5.597 5.596 5.603 5.603 0 0 1-5.596-5.596 5.598 5.598 0 0 1 5.596-5.597c3.09 0 5.597 2.5 5.597 5.597" style="fill:#472f91;fill-opacity:1;fill-rule:nonzero;stroke:none;stroke-width:1.93868" transform="translate(-17.022 -58.14)"/><path d="M115.455 146.221a5.603 5.603 0 0 1-5.596 5.597 5.603 5.603 0 0 1-5.596-5.597c0-3.074 2.514-5.596 5.596-5.596 3.082 0 5.596 2.522 5.596 5.596M85.603 148.077a4.19 4.19 0 0 0 1.522 5.74l11.995 6.99a4.212 4.212 0 0 0 5.748-1.515c1.167-2.007.493-4.597-1.522-5.763l-12.003-6.975c-2.007-1.166-4.59-.492-5.74 1.523M128.322 146.54l-14.873 8.64c-6.248 3.453-7.68 5.846-7.68 12.783v18.054a4.195 4.195 0 0 0 4.196 4.196 4.197 4.197 0 0 0 4.203-4.196v-18.054c0-3.582 0-3.582 3.43-5.483l14.95-8.678a4.195 4.195 0 0 0 1.53-5.733 4.217 4.217 0 0 0-5.756-1.53" style="fill:#472f91;fill-opacity:1;fill-rule:nonzero;stroke:none;stroke-width:1.93868" transform="translate(-17.022 -58.14)"/><path d="M83.535 96.376c-.446 0-.961.356-1.014 1.204-.033.568.242.803.242 1.136 0 .318.356.947-.197 1.28-.553.318-.258 3.68-.295 4.248-.09 1.129.803 1.606 1.144 1.712.325.114 3.665.4 5.217.288 1.56-.106 2.28 1 2.22 1.666-.122 1.325-3.06 3.408-3.659 3.885-1.597 1.28-2.105 1.999-1.658 2.544.447.553 1.045.553 1.946-.545.432-.515 3.923-2.855 4.438-3.945.666-1.47.151-4.378.044-5.264-.114-.886-.788-1.552-2-1.552-1.226 0-4.43.666-5.096-.56-.666-1.22-.114-2.765-.114-3.984 0-1.22 0-2.113-1.219-2.113M94.804 102.805c-.356.076-1.22.296-1.098 2.068.136 1.764.886 2.014 1.265 2.567.37.545.514.886-.055 1.681-.53.795-1.129 2.613-.871 4.037.265 1.438 1.052 1.53 1.635 1.484.599-.044 2.325-.182 2.325-1.568 0-1.386-.802-.848-.916-1.56-.039-.257-.033-.9.068-1.007.136-.128.303-.212.97-.212.673 0 2.574 1.568 2.953 2.325.37.765.87 1.673 1.56 1.673.666 0 1.462.091 1.348-2.014-.129-2.113-.886-2.28-1.522-2.855-.629-.613-1.432-1.439-.205-2.204 1.212-.757 2.56-.666 1.651-2.771-.946-2.113-1.65-1.901-2.332-1.901-.682 0-1.651.333-1.651 1.772 0 1.053.128 1.893-.205 2.014-.545.22-1.507.22-2.15-.083-.629-.295-.818-1.25-1.59-2.825-.303-.59-.765-.712-1.182-.62M107.292 102.563c-.387 0-1.083.394-1.235.924-.15.545 0 1.954.235 2.416.227.454.931.537 1.386.772.462.227 1.166.455 1.166 1.924 0 1.461-.076 5.43.31 5.876.387.47.614.394.932.394.31 0 .81-.394.848-1 .044-.863-.4-1.537-.696-2.248-.349-.841-.546-3.4-.546-4.567 0-1.151.47-2.772-.522-3.597-.682-.538-1.568-.894-1.878-.894M113.532 102.858s-1.924.152-1.765 1.977c.16 1.628 1.227 1.734 1.47 1.931.242.212 1.15.553 1.022 2.158-.114 1.613-.129 2.393-.97 2.954-.636.416-1 1.211-.575 1.689.59.681 1.401 1.378 1.825.908.432-.446.704-2.06.674-3.536-.038-1.492.055-4.082-.129-5.142-.174-1.06.288-2.855-1.552-2.939M118.401 103.396c-.22.129-.787.348-.946 1.068-.144.727.159 1.673.25 2.045.09.348.674 1.234.575 1.976-.098.712-.636 1.47-.727 2.083-.098.605-1.211 2.718.243 3.65 1.454.916 1.15-.614 1.128-1.182-.033-.583-.371-2.226.545-3.612.901-1.408 1.689-2.514 3.544-2.514 1.856 0 2.764.962 3.007 2.597.242 1.636-.243 1.863-.94 1.947-.704.083-3.793-.31-4.308.113-.515.432-1.151 1.008-.947 1.954.212.932.098 1.212.977 1.326.878.128 5.172-.022 5.62-.114.446-.09 1.203-.363 1.03-2.613-.175-2.249-.236-4.445-.274-4.672-.055-.371-.522-1.954-1.158-2.681-.545-.629-1.12-1.909-2.363-1.34-1.242.583-1.242 1.469-1.764 1.612-.508.152-.879.387-1.825-.878-.568-.765-1.25-1.007-1.667-.765M129.98 103.131c-.333.09-1.242.644-.931 1.37.295.72 1.446 2.515 1.78 2.878.34.364 1.613 2.242 1.469 3.067-.16.81-1.371 1.606-2.189 2.159-.825.545-1.37 1.393-.242 1.848 1.12.462 4.278.09 4.544.022.28-.06 1.43-.56 1.37-1.78-.055-1.22.432-1.386.652-1.848.302-.681.954-2.461 1.03-2.976.043-.523.348-2.408 0-3.37-.38-.977-1.227-2.43-2.977-2.166-1.181.182-.674 2.817-.462 3.241.235.493 2.045 1.401 1.757 2.628-.273 1.22-.666 1.454-1.431 1.454s-1.84-1.227-1.87-2.249c-.04-1.022.461-1.992.43-2.575-.068-.863-.764-2.287-2.93-1.704" style="fill:#231f20;fill-opacity:1;fill-rule:nonzero;stroke:none;stroke-width:1.93868" transform="translate(-17.022 -58.14)"/><path d="M87.443 219.02c-1.765-2.385-4.233-4.188-7.156-5.21l-.152-.06-.016.174c-.151 2.726.704 5.445 2.454 7.845 1.204 1.606 2.771 2.923 4.574 3.953-2.053-.34-4.09-.318-6.028.175-2.855.711-5.302 2.302-6.9 4.475l-.098.136.159.06c2.893 1.069 5.952 1.25 8.853.531 2.711-.689 5.013-2.143 6.649-4.203.016-.038.121-.348.121-.348v-.039c.06-2.643-.795-5.233-2.46-7.49" style="fill:#fff;fill-opacity:1;fill-rule:nonzero;stroke:none;stroke-width:1.93868" transform="translate(-17.022 -58.14)"/><path d="m84.179 224.79.09-.242c-.054-.016-4.944-1.885-6.664-3.778l-.136-.16-1.06 2.954.22-.044c2.446-.462 7.497 1.257 7.55 1.272M76.114 221.08l.005-.022c.493-2.325.174-4.763-.931-7.05-1.159-2.416-3.06-4.438-5.468-5.832l-.152-.083-.038.151c-.033.129-.068.28-.098.417-.463 2.279-.137 4.68.954 6.974.78 1.613 1.938 3.03 3.347 4.241-1.75-.644-3.529-.954-5.324-.856-2.696.167-5.074 1.136-6.876 2.825l-.129.129.152.068a13.61 13.61 0 0 0 7.755 1.969c2.544-.151 4.831-1.06 6.626-2.613.022-.044.167-.303.167-.303l.005-.016" style="fill:#fff;fill-opacity:1;fill-rule:nonzero;stroke:none;stroke-width:1.93868" transform="translate(-17.022 -58.14)"/><path d="m71.305 218.589.129-.213c-.044-.022-4.06-2.514-5.248-4.475l-.121-.182-1.462 2.476h.235c2.241-.005 6.43 2.37 6.467 2.393M64.92 213.825l.006-.005v-.016c.826-2.136.879-4.468.167-6.778-.735-2.431-2.219-4.605-4.271-6.286l-.136-.106-.069.159c-.234.59-.431 1.174-.56 1.795-.34 1.689-.25 3.476.303 5.27.477 1.614 1.34 3.098 2.476 4.43-1.537-.84-3.158-1.378-4.839-1.544-2.552-.258-4.93.31-6.876 1.62l-.137.107.122.098c2.022 1.689 4.445 2.726 7.005 2.999 2.393.22 4.68-.296 6.596-1.484.038-.039.212-.258.212-.258" style="fill:#fff;fill-opacity:1;fill-rule:nonzero;stroke:none;stroke-width:1.93868" transform="translate(-17.022 -58.14)"/><path d="M55.046 207.57c2.12.318 5.687 3.165 5.725 3.196l.166-.19c-.027-.038-3.453-2.946-4.286-4.975l-.083-.197-1.735 2.128.213.038M54.894 205.518v-.005l.017-.022c1.09-1.856 1.5-4.044 1.196-6.316-.325-2.386-1.385-4.673-3.06-6.558l-.105-.13-.084.16a9.002 9.002 0 0 0-1.242 3.074 10.903 10.903 0 0 0-.113 3.484c.22 1.605.795 3.135 1.65 4.559-1.295-1.022-2.741-1.795-4.301-2.211-2.325-.606-4.688-.432-6.687.477l-.159.075.114.137c1.643 1.893 3.756 3.226 6.111 3.862 2.22.598 4.43.454 6.415-.379.038-.033.25-.204.25-.204" style="fill:#fff;fill-opacity:1;fill-rule:nonzero;stroke:none;stroke-width:1.93868" transform="translate(-17.022 -58.14)"/><path d="M46.594 198.126c1.909.644 4.84 3.84 4.855 3.878l.204-.16c-.038-.038-2.78-3.286-3.256-5.33l-.044-.19-1.977 1.742.22.06M46.594 196.097c.044-.022.265-.144.265-.144h.006l.016-.017c1.394-1.53 2.212-3.476 2.37-5.634.19-2.302-.348-4.62-1.522-6.702l-.09-.151-.114.128c-1.204 1.235-2.014 2.795-2.378 4.574a9.051 9.051 0 0 0-.182 1.273c-.114 1.514.114 3.036.636 4.536-1.022-1.212-2.188-2.227-3.544-2.893-2.075-1.068-4.248-1.363-6.316-.901l-.174.044.084.136c1.15 2.098 2.847 3.764 4.892 4.832 1.946.961 4.036 1.28 6.05.916" style="fill:#fff;fill-opacity:1;fill-rule:nonzero;stroke:none;stroke-width:1.93868" transform="translate(-17.022 -58.14)"/><path d="m40.43 187.335.182.106c1.658.962 3.726 4.551 3.756 4.574l.22-.129c-.022-.038-1.916-3.597-1.961-5.588l-.006-.197-2.189 1.234M41.157 185.57c.027 0 .257-.098.257-.098l.022-.017.017-.005c1.484-1.287 2.476-3.021 2.877-5.043.455-2.136.235-4.385-.643-6.483l-.068-.166-.13.098c-1.574 1.272-2.65 3.075-3.104 5.226-.28 1.408-.235 2.87.06 4.316-.81-1.25-1.787-2.317-2.983-3.112-1.818-1.235-3.847-1.788-5.847-1.59l-.166.016.055.159c.84 2.12 2.241 3.877 4.051 5.119 1.727 1.159 3.658 1.711 5.604 1.583" style="fill:#fff;fill-opacity:1;fill-rule:nonzero;stroke:none;stroke-width:1.93868" transform="translate(-17.022 -58.14)"/><path d="m38.59 175.665-2.25.924.182.128c1.447 1.099 2.977 4.703 3 4.741l.226-.098c-.005-.039-1.378-3.628-1.181-5.483l.022-.212M36.848 174.794c.038 0 .265-.06.265-.06l.016-.005.006-.017c1.567-.992 2.749-2.5 3.408-4.354.704-1.947.795-4.097.257-6.203l-.044-.166-.143.083c-1.651.992-2.901 2.537-3.628 4.506-.144.432-.28.886-.37 1.333-.183.894-.183 1.825-.13 2.757-.59-1.295-1.37-2.439-2.393-3.355-1.552-1.409-3.392-2.204-5.293-2.287h-.182l.044.15c.5 2.106 1.59 3.961 3.135 5.378 1.462 1.325 3.188 2.09 5.051 2.241" style="fill:#fff;fill-opacity:1;fill-rule:nonzero;stroke:none;stroke-width:1.93868" transform="translate(-17.022 -58.14)"/><path d="m33.516 165.676.159.151c1.219 1.235 2.166 4.84 2.18 4.87l.243-.06c0-.04-.818-3.59-.379-5.317l.044-.204-2.249.56M34.584 164.109c.06 0 .265-.022.265-.022h.021l.017-.017c1.605-.742 2.9-2 3.756-3.658.901-1.734 1.265-3.794 1.03-5.816l-.016-.151-.167.06c-1.681.704-3.06 2.015-3.983 3.756a9.909 9.909 0 0 0-.871 2.492c-.084.394-.099.81-.144 1.22-.394-1.243-.97-2.402-1.787-3.386-1.288-1.522-2.916-2.492-4.71-2.81l-.175-.022.022.152c.204 2.044.992 3.938 2.272 5.46 1.204 1.431 2.756 2.378 4.468 2.741" style="fill:#fff;fill-opacity:1;fill-rule:nonzero;stroke:none;stroke-width:1.93868" transform="translate(-17.022 -58.14)"/><path d="m33.796 157.437.151.265.076-.28c.039-.099.826-2.545.78-4.15-.044-1.644-.356-2.568-1.227-3.62l-.106-.13-.098.145c-.704 1.007-.97 2.938-.833 4.135.151 1.098.696 2.703 1.257 3.635M132.638 219.02c1.765-2.385 4.249-4.188 7.165-5.21l.151-.06.005.174c.159 2.726-.697 5.445-2.453 7.845-1.212 1.606-2.78 2.923-4.567 3.953 2.052-.34 4.074-.318 6.028.175 2.855.711 5.301 2.302 6.892 4.475l.098.136-.159.06c-2.885 1.069-5.945 1.25-8.845.531-2.719-.689-5.013-2.143-6.657-4.203-.005-.038-.106-.348-.106-.348l-.005-.022v-.017c-.068-2.643.795-5.233 2.454-7.49" style="fill:#fff;fill-opacity:1;fill-rule:nonzero;stroke:none;stroke-width:1.93868" transform="translate(-17.022 -58.14)"/><path d="m135.902 224.79-.075-.242c.038-.016 4.937-1.885 6.656-3.778l.144-.16 1.053 2.954-.227-.044c-2.439-.462-7.49 1.257-7.55 1.272M143.975 221.08v-.022c-.5-2.325-.182-4.763.924-7.05 1.159-2.416 3.052-4.438 5.468-5.832l.151-.083.039.151c.022.129.068.28.09.417.463 2.279.145 4.68-.961 6.974-.773 1.613-1.916 3.03-3.34 4.241 1.75-.644 3.537-.954 5.332-.856 2.696.167 5.066 1.136 6.876 2.825l.12.129-.136.068a13.663 13.663 0 0 1-7.762 1.969c-2.544-.151-4.831-1.06-6.626-2.613a5.273 5.273 0 0 0-.174-.303v-.016" style="fill:#fff;fill-opacity:1;fill-rule:nonzero;stroke:none;stroke-width:1.93868" transform="translate(-17.022 -58.14)"/><path d="m148.776 218.589-.113-.213c.038-.022 4.051-2.514 5.255-4.475l.099-.182 1.454 2.476h-.22c-2.234-.005-6.422 2.37-6.475 2.393M155.176 213.825l-.022-.022c-.81-2.135-.879-4.468-.167-6.778.742-2.43 2.219-4.604 4.279-6.285l.136-.106.055.158c.25.591.431 1.174.56 1.795.357 1.689.25 3.476-.272 5.271-.492 1.613-1.356 3.097-2.492 4.43 1.538-.84 3.158-1.378 4.84-1.545 2.552-.257 4.93.31 6.876 1.62l.128.107-.113.098c-2.03 1.69-4.453 2.727-6.998 3-2.4.22-4.687-.296-6.61-1.485a4.765 4.765 0 0 1-.198-.258" style="fill:#fff;fill-opacity:1;fill-rule:nonzero;stroke:none;stroke-width:1.93868" transform="translate(-17.022 -58.14)"/><path d="M165.043 207.57c-2.12.318-5.695 3.165-5.725 3.196l-.166-.19c.038-.038 3.445-2.946 4.286-4.975l.076-.197 1.741 2.128-.212.038M165.21 205.518l-.022-.005-.006-.022c-1.083-1.856-1.492-4.044-1.19-6.316.319-2.386 1.372-4.673 3.053-6.558l.106-.13.083.16a9.333 9.333 0 0 1 1.25 3.074c.22 1.106.25 2.287.106 3.484-.22 1.605-.795 3.135-1.651 4.559 1.295-1.022 2.734-1.795 4.294-2.211 2.325-.606 4.703-.432 6.694.477l.152.075-.107.137c-1.643 1.893-3.756 3.226-6.119 3.862-2.196.598-4.43.454-6.414-.379-.033-.033-.227-.204-.227-.204" style="fill:#fff;fill-opacity:1;fill-rule:nonzero;stroke:none;stroke-width:1.93868" transform="translate(-17.022 -58.14)"/><path d="M173.51 198.126c-1.924.644-4.854 3.84-4.885 3.878l-.182-.16c.039-.038 2.772-3.286 3.242-5.33l.054-.19 1.97 1.742-.197.06M173.502 196.097a4.274 4.274 0 0 1-.265-.144h-.022l-.005-.017c-1.393-1.53-2.211-3.476-2.37-5.634-.197-2.302.34-4.62 1.522-6.702l.076-.151.121.128c1.197 1.235 2.015 2.795 2.378 4.574.091.417.16.849.19 1.273.12 1.514-.122 3.036-.629 4.536 1.015-1.212 2.189-2.227 3.537-2.893 2.067-1.068 4.248-1.363 6.323-.901l.16.044-.084.136c-1.151 2.098-2.84 3.764-4.893 4.832-1.938.961-4.028 1.28-6.035.916" style="fill:#fff;fill-opacity:1;fill-rule:nonzero;stroke:none;stroke-width:1.93868" transform="translate(-17.022 -58.14)"/><path d="m179.659 187.335-.189.106c-1.658.962-3.733 4.551-3.756 4.574l-.212-.129c.022-.038 1.916-3.597 1.961-5.588l.006-.197 2.189 1.234M178.924 185.57c-.027 0-.242-.098-.242-.098l-.022-.017-.005-.005c-1.507-1.287-2.507-3.021-2.908-5.043-.447-2.136-.212-4.385.659-6.483l.06-.166.129.098c1.575 1.272 2.658 3.075 3.113 5.226.28 1.408.242 2.87-.069 4.316.81-1.25 1.795-2.317 2.992-3.112 1.81-1.235 3.84-1.788 5.854-1.59l.166.016-.06.159c-.84 2.12-2.242 3.877-4.067 5.119-1.711 1.159-3.65 1.711-5.596 1.583" style="fill:#fff;fill-opacity:1;fill-rule:nonzero;stroke:none;stroke-width:1.93868" transform="translate(-17.022 -58.14)"/><path d="m181.507 175.665 2.226.924-.158.128c-1.462 1.099-3 4.703-3.007 4.741l-.22-.098c0-.039 1.371-3.628 1.19-5.483l-.034-.212M183.241 174.794c-.044 0-.265-.06-.265-.06l-.016-.005-.022-.017c-1.553-.992-2.734-2.5-3.393-4.354-.712-1.947-.795-4.097-.258-6.203l.033-.166.151.083c1.666.992 2.916 2.537 3.635 4.506.152.432.265.886.371 1.333.182.894.182 1.825.129 2.757.59-1.295 1.37-2.439 2.4-3.355 1.545-1.409 3.378-2.204 5.286-2.287h.182l-.044.15a10.616 10.616 0 0 1-3.135 5.378c-1.454 1.325-3.196 2.09-5.051 2.241" style="fill:#fff;fill-opacity:1;fill-rule:nonzero;stroke:none;stroke-width:1.93868" transform="translate(-17.022 -58.14)"/><path d="m186.566 165.676-.152.151c-1.22 1.235-2.174 4.84-2.181 4.87l-.25-.06c.005-.04.818-3.59.394-5.317l-.055-.204 2.242.56M185.498 164.109a5.06 5.06 0 0 1-.265-.022h-.017l-.016-.017c-1.606-.742-2.9-2-3.749-3.658-.908-1.734-1.28-3.794-1.037-5.816l.016-.151.16.06c1.695.704 3.066 2.015 3.99 3.756.394.78.682 1.606.863 2.492.091.394.114.81.152 1.22.394-1.243.962-2.402 1.787-3.386 1.28-1.522 2.916-2.492 4.71-2.81l.175-.022-.017.152c-.212 2.044-1 3.938-2.28 5.46-1.21 1.431-2.756 2.378-4.475 2.741" style="fill:#fff;fill-opacity:1;fill-rule:nonzero;stroke:none;stroke-width:1.93868" transform="translate(-17.022 -58.14)"/><path d="m186.3 157.437-.158.265-.076-.28c-.039-.099-.833-2.545-.788-4.15.055-1.644.356-2.568 1.227-3.62l.114-.13.098.145c.705 1.007.977 2.938.833 4.135-.144 1.098-.681 2.703-1.25 3.635M97.629 221.784v12.253h-2.257V223.86h-2.234l.946-2.075h3.545M103.066 227.116c-.318-.379-.477-.856-.477-1.454 0-.568.159-1.053.477-1.417.303-.363.72-.545 1.242-.545.477 0 .894.182 1.212.553.325.371.484.84.484 1.37 0 .6-.158 1.107-.484 1.485a1.57 1.57 0 0 1-1.25.576c-.492 0-.901-.197-1.204-.568zm-1.189 6.921h2.643l1.78-2.938c1.257-2.052 1.878-3.84 1.878-5.339 0-1.265-.363-2.28-1.068-3.06-.72-.787-1.613-1.18-2.734-1.18-1.174 0-2.128.408-2.885 1.203-.75.803-1.136 1.84-1.136 3.09 0 1.098.318 2.007.916 2.726.621.712 1.394 1.06 2.34 1.06.432 0 .909-.12 1.44-.348l-3.174 4.786M110.609 229.903c1.317-2.22 2.135-3.643 2.46-4.272.311-.545.546-1.06.72-1.53a30.402 30.402 0 0 0-.055 2.113v3.689zm5.111 0v-8.384h-1.984l-5.43 9.005v1.15h5.43v2.363h1.984v-2.362h1.16v-1.772h-1.16M122.922 232.106c-.628 0-1.075-.356-1.378-1.09-.288-.727-.424-1.734-.424-3.052 0-1.333.144-2.348.454-3.082.31-.72.758-1.076 1.348-1.076 1.212 0 1.803 1.379 1.803 4.158 0 2.756-.591 4.142-1.803 4.142zm-3.036-8.853c-.72 1.136-1.083 2.75-1.083 4.81 0 1.999.37 3.551 1.105 4.664.727 1.106 1.735 1.659 3.052 1.659 1.265 0 2.272-.56 3.022-1.727.742-1.159 1.113-2.696 1.113-4.635 0-1.916-.326-3.453-.992-4.596-.742-1.273-1.81-1.909-3.188-1.909-1.31 0-2.31.568-3.03 1.734" style="fill:#fff;fill-opacity:1;fill-rule:nonzero;stroke:none;stroke-width:1.93868" transform="translate(-17.022 -58.14)"/></svg>