<svg xmlns="http://www.w3.org/2000/svg" width="133.49416mm" height="177.22324mm" viewBox="0 0 133.49416 177.22324"><path d="M285.696 405.338h1.442v31.957h-1.442zM291.088 405.338h1.437v31.957h-1.437zM296.474 404.846h1.444v32.449h-1.444zM301.861 404.79h1.449v32.505h-1.449zM307.244 404.818h1.454v32.478h-1.454zM312.607 405.452h1.44v31.85h-1.44zM285.701 458.179h1.442v67.564h-1.442zM291.094 458.179h1.437v67.564h-1.437zM296.479 457.139h1.444v68.604h-1.444zM301.867 457.028h1.449v68.715h-1.449zM307.249 457.08h1.454v68.664h-1.454zM312.612 458.422h1.44v67.343h-1.44z" style="fill:#bdbcbc;fill-opacity:1;fill-rule:nonzero;stroke:none" transform="matrix(1.34544 0 0 -1.34544 -336.949 707.383)"/><path d="M0 0c49.196 0 49.635 41.636 49.635 41.636V114.203H35.282V44.947s.384-31.565-35.251-32.14c-35.646.575-35.249 32.14-35.249 32.14v69.256h-14.367V41.636S-49.195 0 0 0" style="fill:#bdbcbc;fill-opacity:1;fill-rule:nonzero;stroke:none" transform="matrix(1.34544 0 0 -1.34544 66.713 177.223)"/><path d="m0 0 1.033-2.291L3.652-1.1 2.617 1.192l.768.34 2.446-5.38-.772-.353-1.125 2.496-2.62-1.207 1.133-2.483-.773-.339-2.44 5.38z" style="fill:#fff;fill-opacity:1;fill-rule:nonzero;stroke:none" transform="matrix(1.34544 0 0 -1.34544 92.905 160.627)"/><path d="m0 0 1.834 1.303-2.43 1.488zm-.877 3.858L4.627.51 3.934.023 2.461.915.16-.704l.363-1.692-.705-.499-1.326 6.306Z" style="fill:#fff;fill-opacity:1;fill-rule:nonzero;stroke:none" transform="matrix(1.34544 0 0 -1.34544 103.616 160.501)"/><path d="m0 0 5.429-1.033-3.418 3.189.553.596 4.328-4.014-.639-.693L.835-.947l3.422-3.165-.562-.611-4.326 4.03z" style="fill:#fff;fill-opacity:1;fill-rule:nonzero;stroke:none" transform="matrix(1.34544 0 0 -1.34544 106.826 151.625)"/><path d="m0 0 4.853-3.387-.482-.665L-.475-.668Z" style="fill:#fff;fill-opacity:1;fill-rule:nonzero;stroke:none" transform="matrix(1.34544 0 0 -1.34544 111.97 145.4)"/><path d="m0 0 4.615-2.485L6.01.132l.601-.317-1.795-3.347L-.4-.732Z" style="fill:#fff;fill-opacity:1;fill-rule:nonzero;stroke:none" transform="matrix(1.34544 0 0 -1.34544 113.672 142.725)"/><path d="m0 0 3.809-.936c.312-.087.646-.035 1.017.111.373.17.615.485.725.936.117.45.049.828-.207 1.157-.249.312-.526.51-.838.597l-3.813.946.197.718 3.747-.908c.489-.139.914-.451 1.291-.94.379-.489.475-1.057.299-1.75-.165-.673-.53-1.124-1.09-1.394-.559-.253-1.084-.312-1.57-.191l-3.751.926z" style="fill:#fff;fill-opacity:1;fill-rule:nonzero;stroke:none" transform="matrix(1.34544 0 0 -1.34544 118.048 132.426)"/><path d="m0 0 4.669 2.94H0v.811h5.905v-.936L1.249-.118h4.656v-.818H0Z" style="fill:#fff;fill-opacity:1;fill-rule:nonzero;stroke:none" transform="matrix(1.34544 0 0 -1.34544 119.741 124.665)"/><path d="M339.432 439.479h5.91v-.829h-5.91z" style="fill:#fff;fill-opacity:1;fill-rule:nonzero;stroke:none" transform="matrix(1.34544 0 0 -1.34544 -336.949 707.383)"/><path d="m0 0 5.91-2.485v-.805L0-5.786v.881l4.809 2.031L0-.891Z" style="fill:#fff;fill-opacity:1;fill-rule:nonzero;stroke:none" transform="matrix(1.34544 0 0 -1.34544 119.735 106.134)"/><path d="M0 0h.678v-3.033h1.825v2.946h.682v-2.946h2.044v3.12h.676v-3.96H0Z" style="fill:#fff;fill-opacity:1;fill-rule:nonzero;stroke:none" transform="matrix(1.34544 0 0 -1.34544 119.741 98.913)"/><path d="M0 0c0 .319-.111.583-.33.839a1.11 1.11 0 0 1-.857.364c-.36 0-.651-.121-.876-.378A1.107 1.107 0 0 1-2.399 0v-1.522h5.29v-.766h-5.906v2.42c0 .451.167.867.506 1.255.34.367.774.571 1.322.571.535 0 .966-.218 1.302-.606C.45.936.622.523.622.083l2.269 1.852v-.888L0-1.362Z" style="fill:#fff;fill-opacity:1;fill-rule:nonzero;stroke:none" transform="matrix(1.34544 0 0 -1.34544 123.797 93.507)"/><path d="M0 0c-.272-.184-.406-.475-.406-.867 0-.378.102-.655.31-.852.208-.195.432-.305.676-.305.309 0 .541.232.699.672.164.451.315.804.438 1.096.158.353.34.669.555.974.224.302.578.447 1.07.447.459 0 .859-.18 1.237-.582.364-.389.546-.874.546-1.45 0-.693-.219-1.216-.65-1.594-.433-.354-.87-.534-1.321-.534v.825c.352-.035.657.087.906.343.25.232.383.558.383.96 0 .431-.121.732-.357.929-.238.205-.471.302-.713.302-.279 0-.5-.107-.644-.34a4.956 4.956 0 0 1-.391-.745 16.091 16.091 0 0 1-.572-1.362c-.202-.51-.577-.767-1.144-.767-.458 0-.852.208-1.206.583-.34.381-.51.852-.51 1.4 0 .562.182 1.023.547 1.387.353.354.762.538 1.194.576V.277C.481.277.268.18 0 0" style="fill:#fff;fill-opacity:1;fill-rule:nonzero;stroke:none" transform="matrix(1.34544 0 0 -1.34544 120.978 84.776)"/><path d="M339.432 466.613h5.91v-.842h-5.91z" style="fill:#fff;fill-opacity:1;fill-rule:nonzero;stroke:none" transform="matrix(1.34544 0 0 -1.34544 -336.949 707.383)"/><path d="M0 0h-5.228v-1.667h-.677v4.173h.677V.839H0Z" style="fill:#fff;fill-opacity:1;fill-rule:nonzero;stroke:none" transform="matrix(1.34544 0 0 -1.34544 127.686 74.999)"/><path d="m0 0 2.91 1.643L0 3.287v.936l3.788-2.15h2.117v-.832H3.788L0-.936Z" style="fill:#fff;fill-opacity:1;fill-rule:nonzero;stroke:none" transform="matrix(1.34544 0 0 -1.34544 119.741 68.366)"/><path d="M0 0a2.355 2.355 0 1 1 0 4.712A2.356 2.356 0 1 1 0 0" style="fill:#fff;fill-opacity:1;fill-rule:nonzero;stroke:none" transform="matrix(1.34544 0 0 -1.34544 66.403 172.162)"/><path d="M283.638 461.063h-11.133v11.149h11.133zM327.246 461.063h-11.152v11.149h11.152z" style="fill:#214395;fill-opacity:1;fill-rule:nonzero;stroke:none" transform="matrix(1.34544 0 0 -1.34544 -336.949 707.383)"/><path d="M316.185 472.091h-11.146v11.139h11.146zM294.668 472.091h-11.139v11.139h11.139z" style="fill:#214395;fill-opacity:1;fill-rule:nonzero;stroke:none" transform="matrix(1.34544 0 0 -1.34544 -336.949 707.383)"/><path d="M0 0c0 4.41 3.576 8.001 7.998 8.001 4.413 0 7.998-3.591 7.998-8.001a8 8 0 0 0-7.998-8.008A7.995 7.995 0 0 0 0 0m7.863 19.785c-10.841 0-19.631-8.778-19.631-19.612 0-10.857 8.79-19.635 19.631-19.635 10.835 0 19.624 8.778 19.624 19.635 0 10.834-8.789 19.612-19.624 19.612" style="fill:#214395;fill-opacity:1;fill-rule:nonzero;stroke:none" transform="matrix(1.34544 0 0 -1.34544 55.595 106.334)"/><path d="M0 0c-.066.035-.126-.01-.175-.121-.037-.073-.08-.194-.146-.364-.062-.174-.171-.243-.307-.243h-1.086c-.325 0-.533-.125-.641-.354-.11-.232-.166-.436-.166-.609V-6.06c0-.256.092-.402.289-.402.187 0 .284.146.284.402v3.384c0 .257.043.402.121.475.08.059.222.094.409.094h1.193c.086 0 .159.076.208.187L.092-.145C.099-.083.067-.035 0 0m4.876-6.302c.017 0 .049.007.097.02.044.014.073.076.08.174l.165 1.726c.011.063-.02.111-.099.135-.066.039-.12 0-.17-.086-.049-.122-.121-.257-.202-.423-.084-.174-.212-.271-.394-.271H-.335c-.072 0-.121-.013-.157-.048a.356.356 0 0 1-.044-.18v-.368c0-.194.08-.354.215-.485a.759.759 0 0 1 .485-.194h2.107v-1.086c0-.208.126-.315.39-.308.254 0 .376.1.371.308l-.073 1.086zM3.183-.814c.232-.17.348-.365.348-.593 0-.222-.116-.416-.348-.6a1.304 1.304 0 0 0-.789-.253 1.23 1.23 0 0 0-.787.253c-.224.184-.335.378-.335.6 0 .228.111.423.335.593.213.169.48.267.787.267.291 0 .558-.098.789-.267M3.014.693c-.196.112-.409.16-.62.16-.489 0-.897-.218-1.232-.68a2.564 2.564 0 0 1-.522-1.58c0-.6.175-1.11.522-1.585.335-.464.743-.707 1.232-.707.211 0 .424.059.62.17.205.111.39.267.553.451v-.936c0-.233.104-.368.31-.368.207 0 .311.125.311.368v1.907l.797-.008c.068 0 .109.035.146.07a.4.4 0 0 1 .043.146L5.276-.52c.014.107-.01.167-.09.205-.078.024-.157-.038-.242-.184-.08-.122-.165-.194-.226-.215a.554.554 0 0 0-.263-.052h-.267V.576c0 .242.019.423.036.544.026.135.068.267.129.416.048.087.055.156.012.232-.049.059-.129.059-.25-.027l-.397-.312c-.047-.063-.083-.101-.109-.15-.029-.045-.042-.145-.042-.291V.257a1.945 1.945 0 0 1-.553.436" style="fill:#fff;fill-opacity:1;fill-rule:nonzero;stroke:none" transform="matrix(1.34544 0 0 -1.34544 7.412 64.617)"/><path d="M0 0c.067 0 .114.011.14.049.025.02.037.069.037.145v5.124c0 .194.01.367.047.475.036.108.086.246.135.378.036.083.019.146-.044.194-.066.035-.114.028-.175-.024l-.39-.302a.446.446 0 0 1-.111-.173 1.019 1.019 0 0 1-.036-.319V1.401h-.723v4.892c0 .038-.007.086-.031.107-.012.028-.049.048-.109.048-.085 0-.148-.093-.195-.301-.036-.194-.164-.292-.379-.292h-.292a.997.997 0 0 1-.601-.183c-.165-.125-.25-.437-.25-.936V.146c0-.222.096-.343.292-.343.19 0 .281.121.281.343v4.139c.012.059.029.121.06.146.025.024.073.034.127.034h.518V.402c0-.11.036-.208.109-.284A.362.362 0 0 1-1.321 0Zm3.981 6.802c-.36.451-.804.673-1.32.673-.512 0-.95-.222-1.314-.673C.986 6.341.81 5.793.81 5.124s.176-1.227.537-1.678c.364-.45.802-.673 1.314-.673.516 0 .96.223 1.32.673.371.451.548 1.009.548 1.678s-.177 1.217-.548 1.678m-.445-.985c.244-.18.376-.416.376-.693 0-.277-.132-.523-.376-.707a1.44 1.44 0 0 0-.875-.267c-.33 0-.616.087-.865.267a.847.847 0 0 0-.371.707c0 .277.119.513.371.693.249.184.535.271.865.271.339 0 .627-.087.875-.271m-2.775-4.6a.206.206 0 0 1-.158-.062C.567 1.13.555 1.058.555.971V.558c0-.194.072-.35.216-.489a.776.776 0 0 1 .489-.19h3.226c.012 0 .049.01.085.024.055.007.074.07.085.166l.172 1.783c.011.069-.027.121-.1.145-.065.021-.119 0-.169-.1a6.052 6.052 0 0 1-.202-.427c-.091-.166-.223-.253-.395-.253Z" style="fill:#fff;fill-opacity:1;fill-rule:nonzero;stroke:none" transform="matrix(1.34544 0 0 -1.34544 7.937 90.41)"/><path d="M0 0h1.584c.013 0 .049 0 .085.01.056.014.075.073.085.17l.172 1.778c.012.073-.026.108-.099.146-.066.024-.12 0-.17-.083-.055-.111-.121-.256-.201-.426-.084-.184-.223-.271-.395-.271h-3.689c-.072 0-.133-.01-.165-.059a.295.295 0 0 1-.053-.183V.665c0-.194.078-.35.218-.485A.768.768 0 0 1-2.135 0h1.449v-1.096c0-.208.128-.305.383-.305.267 0 .39.097.372.305zm-3.212 4.687c-.281.548-.695.814-1.248.814-.543 0-.962-.266-1.246-.814a3.813 3.813 0 0 1-.426-1.768c0-.645.145-1.241.426-1.775.284-.534.703-.818 1.246-.818.553 0 .967.284 1.248.818.293.534.425 1.13.425 1.775a3.67 3.67 0 0 1-.425 1.768m-.477-.915a1.3 1.3 0 0 0 .307-.853c0-.305-.098-.596-.307-.853a.909.909 0 0 0-.771-.388.95.95 0 0 0-.78.388 1.374 1.374 0 0 0 0 1.706.959.959 0 0 0 .78.377.916.916 0 0 0 .771-.377m2.029.319c-.347-.402-.566-.732-.664-.964-.054-.18-.08-.33-.073-.461a.416.416 0 0 1 .146-.305c.121-.122.306-.122.537.024.232.121.433.319.596.534a.555.555 0 0 1 .085.256c.007.097.049.257.121.451.061.16.136.319.219.465.086.145.171.277.258.374.181-.132.362-.242.548-.35.182-.1.376-.184.577-.257V2.544c0-.242.102-.367.291-.367.202 0 .298.125.298.367v3.564c0 .247 0 .441.027.562.017.132.058.27.121.426.036.087.036.16-.013.205-.036.076-.108.076-.202 0l-.369-.354a.816.816 0 0 1-.116-.132.75.75 0 0 1-.037-.277V5.453c-.373.025-.858.218-1.449.586-.591.36-1.095.863-1.522 1.508-.097.146-.201.184-.298.121-.102-.059-.116-.208-.029-.402.204-.499.443-.95.736-1.352a6.42 6.42 0 0 1 .924-1.06c-.128-.108-.366-.361-.712-.763" style="fill:#fff;fill-opacity:1;fill-rule:nonzero;stroke:none" transform="matrix(1.34544 0 0 -1.34544 11.84 107.183)"/><path d="m0 0-.012-1.751c-.038-.135-.104-.198-.194-.208-.172-.014-.598-.035-1.274-.076-.189-.021-.321-.059-.408-.132-.072-.059-.102-.229-.085-.475l.202-3.408c.017-.267-.066-.402-.262-.412-.194-.014-.293.107-.31.378l-.264 4.382c-.01.169.026.388.123.617.099.246.303.367.621.392.145 0 .542.024 1.182.072.132 0 .23.098.281.271.052.166.095.291.119.374.049.111.111.146.177.122C-.036.121 0 .073 0 0m.352-6.171c-.175-.014-.34.049-.498.17a.66.66 0 0 0-.244.464l-.024.413a.328.328 0 0 0 .036.184c.03.048.087.059.16.072l4.668.278c.176.014.31.1.383.28.073.181.133.33.17.451.048.077.104.122.171.097.073-.034.11-.072.11-.131l-.066-1.782c-.007-.108-.032-.167-.068-.18-.043-.021-.078-.021-.099-.035ZM2.149-.96A6.82 6.82 0 0 0 .986.159C.633.562.366.96.17 1.352c-.073.184-.073.316.014.364.083.076.182.049.284-.063A6.31 6.31 0 0 1 2.241.184C2.898-.17 3.42-.34 3.798-.33c.158.015.274.125.359.368.087.229.135.388.142.451.022.083.076.118.168.118.099-.007.146-.07.146-.194l-.037-2.14c0-.086-.029-.159-.085-.197a.402.402 0 0 0-.199-.049 3.48 3.48 0 0 0-.81.222c-.28.108-.547.257-.816.423a2.807 2.807 0 0 1-.31-.534 2.833 2.833 0 0 1-.207-.572c-.036-.184-.055-.329-.067-.402-.019-.087-.085-.184-.184-.315a1.602 1.602 0 0 0-.558-.475c-.201-.101-.366-.101-.489-.011a.591.591 0 0 0-.163.375c-.019.173.024.367.12.561.116.243.324.548.628.936.305.368.542.631.713.805" style="fill:#fff;fill-opacity:1;fill-rule:nonzero;stroke:none" transform="matrix(1.34544 0 0 -1.34544 7.519 117.03)"/><path d="M0 0c-.066-.024-.114-.048-.125-.111-.014-.034 0-.097.03-.18l.109-.281A.603.603 0 0 1 .38-.936a.7.7 0 0 1 .506 0L4.231.381l.231-.589L.591-1.727C.518-1.75.477-1.79.46-1.837a.364.364 0 0 1 .036-.195l.114-.304a.636.636 0 0 1 .361-.368.792.792 0 0 1 .509 0L7.976-.145c.019.013.042.027.079.048.044.024.048.097.012.194l-.365 1.415c-.025.096-.073.145-.146.145-.073.011-.121-.072-.146-.242a.912.912 0 0 0-.074-.354C7.299.95 7.202.867 7.044.814L5.133.062l-.231.583 2.314.901c.011.014.047.024.083.062.037.021.037.084.007.181l-.36 1.387c-.023.124-.073.187-.156.159-.069-.021-.116-.111-.128-.256a1.14 1.14 0 0 0-.066-.34c-.037-.108-.136-.195-.307-.257L2.93 1.158c-.11.097-.202.218-.304.374-.099.146-.208.344-.331.562l-.558 1.109a.752.752 0 0 0-.085.243c-.007.062.055.121.187.17l2.947 1.155.577-1.471c.099-.232.222-.305.397-.242.172.072.213.218.129.437l-1.231 3.14c-.025.063-.054.084-.098.084-.036.013-.072 0-.108-.007-.03-.014-.049-.063-.049-.15a1.914 1.914 0 0 0-.029-.252.895.895 0 0 0-.106-.236.733.733 0 0 0-.262-.17L1.09 4.763c-.4-.159-.558-.402-.463-.731.1-.316.221-.634.38-.902l.754-1.279c.121-.173.245-.329.376-.485.122-.146.257-.27.397-.367Z" style="fill:#fff;fill-opacity:1;fill-rule:nonzero;stroke:none" transform="matrix(1.34544 0 0 -1.34544 8.655 140.337)"/><path d="M0 0a1.428 1.428 0 0 1-.534-.291c-.347-.315-.499-.742-.463-1.289.037-.534.281-1.061.73-1.561.426-.485.901-.762 1.437-.849.523-.097.96.01 1.314.33.159.131.269.311.353.499.085.194.129.388.129.597l.615-.67c.158-.184.316-.208.475-.063.151.136.151.295-.014.475L2.716-1.338l.633.537c.05.039.066.087.053.132a.266.266 0 0 1-.053.136L2.52.549c-.059.09-.131.124-.218.076-.085-.039-.11-.147-.073-.319a.478.478 0 0 0-.062-.292c-.047-.073-.168-.194-.34-.354L.901.693C.736.881.622.999.549 1.096a1.625 1.625 0 0 0-.195.367.235.235 0 0 1-.158.17c-.073.025-.129-.037-.153-.184l-.065-.45c0-.06 0-.118.01-.181C0 .77.057.693.159.576L.628.062C.414.076.208.062 0 0m2.192-7.301c.047.049.074.084.074.132 0 .038-.027.087-.074.132l-3.288 3.682a1.689 1.689 0 0 0-.23.304 1.738 1.738 0 0 0-.196.375c-.03.083-.078.112-.145.112-.06 0-.11-.04-.132-.125l-.063-.461c0-.084 0-.147.007-.184.005-.059.066-.133.165-.243L.962-6.545-.548-7.91a.15.15 0 0 1-.073-.16c0-.049.036-.098.099-.17l.226-.253a.707.707 0 0 1 .565-.233c.23.011.45.108.656.302zm3.859 3.203a.526.526 0 0 1 .063.071c.022.037 0 .095-.063.183L4.987-2.385c-.044.049-.092.049-.165.028-.072-.014-.099-.09-.066-.184.03-.111.079-.27.125-.454.058-.194.014-.339-.119-.461L2.009-5.914a.207.207 0 0 1-.083-.159c0-.049.029-.097.083-.17l.286-.302a.622.622 0 0 1 .482-.222c.196 0 .364.062.499.169l1.156 1.037.725-.804c.133-.158.3-.145.494.028.182.167.204.325.066.458l-.778.783ZM1.152-1.02c.263.012.474-.047.638-.234.158-.182.209-.399.158-.656a1.26 1.26 0 0 0-.412-.694 1.45 1.45 0 0 0-.732-.339c-.268-.024-.473.048-.633.232-.157.17-.213.389-.171.655.057.267.189.499.414.708.227.194.468.301.738.328" style="fill:#fff;fill-opacity:1;fill-rule:nonzero;stroke:none" transform="matrix(1.34544 0 0 -1.34544 20.785 147.53)"/><path d="M0 0c.146.301.376.762.683 1.348.291.596.468.939.522 1.047.012.01.012.059.012.097a.126.126 0 0 1-.066.111c-.237.145-.64.388-1.195.731-.046.045-.116.021-.188-.014-.073-.034-.059-.125.043-.232.08-.121.139-.218.158-.301.019-.076-.019-.194-.092-.353L-1.078.543l-.888.451a2.206 2.206 0 0 0-.506.316 6.805 6.805 0 0 0-.303.329c-.07.088-.135.122-.208.101-.08-.013-.109-.088-.103-.195l.091-.54a.41.41 0 0 1 .073-.167c.038-.048.128-.111.28-.193l6.525-3.288c.256-.138.433-.111.525.071.09.169.004.328-.251.464L1.777-.892c.158.316.402.79.719 1.412.31.621.492.988.555 1.082.003.037.01.062.003.11a.12.12 0 0 1-.066.11c-.237.16-.627.389-1.185.742-.057.039-.123.039-.196-.023-.073-.039-.063-.136.05-.232.073-.121.132-.215.156-.305.019-.07-.01-.195-.097-.352L.706-.354Zm4.663 3.113a23.902 23.902 0 0 0-.877-1.568c-.306-.54-.621-.99-.936-1.379-.146-.166-.146-.305.005-.364a.66.66 0 0 1 .456-.025c.44.161.925.524 1.454 1.082.53.575.981 1.159 1.358 1.779.042.087.062.17.062.266.012.098-.051.184-.172.257-.01 0-1.546.78-4.595 2.326-.22.108-.378.195-.487.267a1.703 1.703 0 0 0-.335.305c-.085.084-.152.122-.208.07-.058-.045-.085-.094-.073-.166L.439 5.4a.34.34 0 0 1 .131-.193c.076-.049.16-.111.281-.16Z" style="fill:#fff;fill-opacity:1;fill-rule:nonzero;stroke:none" transform="matrix(1.34544 0 0 -1.34544 33.579 165.72)"/></svg>