<svg xmlns="http://www.w3.org/2000/svg" width="172.00543mm" height="179.37875mm" viewBox="0 0 172.00543 179.37875"><path d="m246.309 318.476.02.012" style="fill:#231f20;fill-opacity:1;fill-rule:nonzero;stroke:#231f20;stroke-width:.09999;stroke-linecap:butt;stroke-linejoin:miter;stroke-miterlimit:4;stroke-dasharray:none;stroke-opacity:1" transform="matrix(.68628 0 0 -.68628 -115.271 239.955)"/><path d="M295.265 105.232h-1.45v1.962h-1.633v-6.641a3.159 3.159 0 0 0-1.537-.399h-3.095v5.302h3.183v1.634h-4.818v-8.567h4.767c.543 0 1.05.137 1.5.372V92.36h1.634v11.236h1.45V92.36h1.631v14.834h-1.632v-1.962zM245.715 117.9l-1.432.785-4.672-8.493 1.431-.789 2.998 5.453 1.27-.699.788 1.435-1.268.694zM234.3 113.139l-1.432.784-2.473-4.49-.018-.033 8.202-4.511.786 1.433-6.768 3.726 1.704 3.09zM236.242 113.858a3.614 3.614 0 0 1 4.905 1.424c.459.835.55 1.779.327 2.635l.922-.505.787 1.432-2.523 1.39.44.796-1.433.79-.437-.802-2.524 1.391-.787-1.433.952-.524a3.58 3.58 0 0 1-2.05-1.69 3.613 3.613 0 0 1 1.42-4.904m2.726 4.949a2.04 2.04 0 0 0 .8-2.765 2.034 2.034 0 1 0-3.566 1.962 2.042 2.042 0 0 0 2.766.803zM323.889 111.353l-1.594-.336 1.985-9.406-7.512-1.586.337-1.601 7.514 1.59.738-3.508 1.602.334-2.322 10.997 1.484.311-.338 1.601-1.485-.31z" style="fill:#231f20;fill-opacity:1;fill-rule:nonzero;stroke:none" transform="matrix(.68628 0 0 -.68628 -115.271 239.955)"/><path d="M319.338 102.187a3.614 3.614 0 0 1 2.785 4.278 3.564 3.564 0 0 1-1.475 2.209l1.028.217-.336 1.605-2.817-.598-.187.892-1.598-.336.19-.894-2.819-.592.338-1.6 1.064.222a3.602 3.602 0 0 1-.448-2.62 3.611 3.611 0 0 1 4.275-2.783m-1.169 5.518a2.034 2.034 0 0 0 2.415-1.564 2.04 2.04 0 0 0-1.572-2.415 2.043 2.043 0 0 0-2.412 1.57 2.031 2.031 0 0 0 1.569 2.41zM268.747 108.464l-1.534.21-.226-1.62 1.534-.211-1.555-11.218 1.62-.225 2.062 14.855-1.622.224zM264.42 109.983l.156 1.11-1.888.26-.154-1.11h-.002a8.165 8.165 0 0 0-4.294-6.104l1.02-1.26a9.808 9.808 0 0 1 3.742 3.785 9.785 9.785 0 0 1 2.565-4.662l1.312.951a8.15 8.15 0 0 0-2.457 7.03zM351.307 109.005l-2.375 4.156-1.42-.814 2.374-4.157-1.484-.846-2.376 4.156-1.42-.814 2.378-4.152-2.347-1.342.812-1.421 9.985 5.71-.814 1.421zM349.445 115.026c.178-.376.285-.801.32-1.238l1.6.227a3.2 3.2 0 0 1-.418 1.681l-3.186 5.568-8.507-4.859.81-1.422 7.088 4.055z" style="fill:#231f20;fill-opacity:1;fill-rule:nonzero;stroke:none" transform="matrix(.68628 0 0 -.68628 -115.271 239.955)"/><path d="M323.531 100.488v-.027.027z" style="fill:#231f20;fill-opacity:1;fill-rule:nonzero;stroke:#231f20;stroke-width:1;stroke-linecap:butt;stroke-linejoin:miter;stroke-miterlimit:4;stroke-dasharray:none;stroke-opacity:1" transform="matrix(.68628 0 0 -.68628 -115.271 239.955)"/><path d="m205.171 259.155.784 2.164 1.491-.572-.597-1.648 5.167-.035-.01-1.487h-4.49l3.646-2.684-1.182-1.248-3.939 3.23-.569-1.571-1.493.575.758 2.009-1.868.673.433 1.262 1.87-.668zM211.955 268.634l4.566-2.162-.805-1.64-8.022 3.88.806 1.64 1.638-.783.503 1.027 1.818-.942zM214.436 276.396c-.197 1.195.054 2.295.753 3.301.695.996 1.634 1.604 2.817 1.825 1.174.227 2.25-.007 3.227-.699.99-.697 1.586-1.643 1.793-2.846.207-1.2-.036-2.306-.727-3.302-.71-1.014-1.655-1.624-2.839-1.828-1.191-.214-2.282.03-3.27.727-.977.69-1.561 1.631-1.754 2.822m2.28.42c.095-.555.37-.994.826-1.317.46-.321.962-.434 1.515-.336.55.1.987.386 1.318.858a1.9 1.9 0 0 1 .313 1.49 1.915 1.915 0 0 1-.82 1.33c-.445.32-.953.426-1.52.324a1.918 1.918 0 0 1-1.27-.814 2.041 2.041 0 0 1-.362-1.535zM223.022 287.656c.004 1.213.433 2.259 1.289 3.13.853.867 1.88 1.308 3.08 1.322 1.196.026 2.22-.387 3.07-1.234.852-.857 1.285-1.89 1.292-3.113.002-1.22-.42-2.261-1.269-3.13-.869-.882-1.901-1.32-3.106-1.32-1.209-.007-2.243.414-3.098 1.27-.852.847-1.271 1.872-1.258 3.075m2.315.032c0-.565.2-1.043.597-1.436a1.924 1.924 0 0 1 1.434-.588c.561 0 1.04.212 1.444.623.38.386.565.857.56 1.411a1.952 1.952 0 0 1-.588 1.452c-.389.389-.873.578-1.445.576a1.89 1.89 0 0 1-1.387-.588 2.032 2.032 0 0 1-.615-1.45zM239.127 299.408l1.36-1.818-6.874-5.299-1.36 1.822zM240.876 304.926l1.577.909 4.7-8.188-1.578-.907zM253.46 306.233l-2.189-1.086-.43.955 2.187 1.083zM263.28 312.805l-.753-6.059-1.945.519.882 8.065 1.697.585 5.58-5.827-1.363-1.663zM271.806 318.625l1.78.366 1.947-9.244-1.778-.368zM278.824 318.901l1.81.137.249-5.299 6.786.518.172-2.274-8.598-.652zM293.53 319.6l1.81-.096-.106-5.095 6.797-.356-.118-2.277-8.606.449.223 7.376zM309.643 318.371l.242 1.352 1.786-.327-2.052-10.6-1.787.326.736 3.274-1.909.347.405 2.243 1.909-.348.261 1.462-1.908.346.406 2.274zM317.623 317.644l8.223-2.627-2.538-8.061-8.222 2.627 2.537 8.06m5.809-4.247-4.766 1.521-1.166-3.713 4.764-1.524zM330.4 307.686l-2.236.973.404.966 2.235-.976zM337.967 299.012l2.902 5.409-5.985 3.262 1.077 2.002 7.582-4.13-3.98-7.412zM351.262 298.372l-1.41-1.947 3.377-2.336-1.32-1.853-8.276 5.794 1.318 1.85 3.424-2.387 1.412 1.947zM358.236 293.276c1.203.005 2.24-.42 3.114-1.279.867-.851 1.31-1.883 1.335-3.096.03-1.205-.374-2.236-1.205-3.097-.842-.87-1.87-1.31-3.082-1.325-1.21-.012-2.247.408-3.109 1.257-.885.87-1.326 1.908-1.336 3.12-.014 1.218.399 2.264 1.24 3.133.834.862 1.848 1.29 3.043 1.287m.05-2.33a1.938 1.938 0 0 1-1.425-.615 1.969 1.969 0 0 1-.576-1.447c.01-.566.219-1.048.629-1.451a1.883 1.883 0 0 1 1.408-.554c.568-.002 1.047.2 1.436.6.385.394.567.884.56 1.464a1.929 1.929 0 0 1-.591 1.393 2.007 2.007 0 0 1-1.442.61zM366.682 280.729c.303.124.617.202.948.226l-.56.777 1.832 1.342 1.824-2.53 1.06.78 1.519-2.102-1.065-.78 1.81-2.51-1.825-1.342-.602.832a4 4 0 0 0-.498-.857 3.61 3.61 0 0 0-.75-.732c-.873-.64-1.842-.874-2.904-.694-1.07.172-1.922.699-2.56 1.583-.64.884-.87 1.868-.694 2.954.184 1.075.713 1.934 1.576 2.567.283.206.58.368.889.486m1.656-2.092c-.42.062-.817-.045-1.19-.317a1.567 1.567 0 0 1-.644-1.028 1.532 1.532 0 0 1 .283-1.205 1.55 1.55 0 0 1 1.053-.646c.45-.079.85.008 1.197.262.361.264.572.628.638 1.083.06.443-.038.842-.294 1.198a1.535 1.535 0 0 1-1.043.653zM376.262 268.563l2.275 1.2.84-1.62-8.51-4.587-.843 1.619 4.236 2.33-.732 1.41 2.002 1.056zM381.717 261.92l.628-1.714-5.734-2.142 1.735-5.159-2.121-.792-2.364 6.876zM242.303 128.765l2.473 4.455.855-.476-.95-1.72 1.468-.815.955 1.719.848-.471-2.474-4.455-.848.468 1.058 1.9-1.474.817-1.052-1.9zM249.089 125.193l-.929.426 3.933 3.796.785-.36-.314-5.457-.956.44.093 1.49-1.537.701-1.075-1.036m2.793 2.75-.989-.996.885-.404zM256.232 122.116l1.188 3.135.818-3.895.818-.311 1.805 4.762-.89.333-1.165-3.066-.828 3.823-.86.324-1.802-4.76zM262.599 121.59c-.161-.508-.147-.961.037-1.357.174-.388.474-.645.895-.779.448-.135.86-.095 1.237.122.379.216.64.555.781 1.024.104.328.104.641 0 .938a1.56 1.56 0 0 1-.571.77l-.284.196a3.987 3.987 0 0 0-.288.2.695.695 0 0 0-.184.21.237.237 0 0 0-.033.14.803.803 0 0 0 .036.165c.06.175.136.302.249.37.113.068.249.078.412.028a.443.443 0 0 0 .292-.25c.055-.13.055-.305 0-.524l.88-.269c.118.48.091.892-.072 1.24-.161.329-.437.55-.82.672-.409.125-.785.095-1.133-.1-.346-.194-.587-.5-.718-.923a1.542 1.542 0 0 1-.064-.439c0-.154.03-.3.086-.435.073-.177.189-.344.349-.501.131-.139.286-.264.464-.376.238-.164.391-.299.45-.399.08-.122.082-.288.02-.495-.067-.209-.173-.353-.313-.43-.142-.082-.311-.09-.507-.03a.516.516 0 0 0-.363.314c-.072.159-.07.378.01.654l-.848.264zM270.805 117.563l.227.902-1.75.441.283 1.13 1.75-.44.222.886-1.748.44.28 1.132 1.75-.436.223.886-2.699.678-1.239-4.94zM274.333 119.392a2.882 2.882 0 0 1-.01-.992c.054-.318.164-.617.33-.894.196-.32.445-.587.741-.797a2.55 2.55 0 0 1 .995-.408 2.608 2.608 0 0 1 1.083.027c.347.088.674.24.975.464.258.196.47.435.637.725.169.283.284.602.348.948.065.361.059.705-.015 1.04a2.575 2.575 0 0 1-.414.942 2.561 2.561 0 0 1-1.666 1.056 2.457 2.457 0 0 1-.992-.007 2.772 2.772 0 0 1-.905-.399 2.529 2.529 0 0 1-.734-.75 2.645 2.645 0 0 1-.374-.956m.976-.18c.04.218.12.415.24.603.119.19.274.349.465.484.172.119.355.199.55.24.187.039.385.039.597 0 .243-.044.447-.118.615-.23.167-.118.318-.282.452-.494a1.54 1.54 0 0 0 .234-.567c.044-.192.046-.389.008-.593-.089-.488-.312-.866-.673-1.126-.357-.268-.767-.355-1.231-.276a1.45 1.45 0 0 0-.565.237c-.178.12-.327.272-.449.453-.12.179-.202.376-.242.588a1.837 1.837 0 0 0 0 .682zM286.674 120.166l-.205-3.187a5.935 5.935 0 0 1-.013-.675c.025-.24.087-.449.193-.633a1.65 1.65 0 0 1 .573-.57c.229-.134.506-.21.83-.232.293-.017.557.026.793.132.242.107.447.274.618.498.115.15.2.339.262.565.04.17.07.402.089.7l.208 3.188-.98.062-.205-3.195c-.026-.391-.088-.657-.183-.797-.106-.149-.293-.214-.56-.199-.29.02-.474.112-.56.269-.083.154-.114.426-.087.816l.206 3.198-.98.06zM292.902 114.762l-.028 5.092.917.005 2.148-3.271-.016 3.281.955.003.026-5.085-.878-.01-2.162 3.347.02-3.352-.982-.01zM300.383 114.959l-.34 5.075.98.065.338-5.078-.978-.062zM306.401 115.52l-2.594 4.797 1.011.13 1.656-3.155.797 3.472 1.01.129-1.283-5.3-.597-.073zM311.604 116.306l-.987 4.998 2.73.535.18-.897-1.77-.345.225-1.146 1.77.346.176-.897-1.768-.345.227-1.146 1.767.352.179-.914zM319.436 120.783a1.634 1.634 0 0 0-.65-.771l1.984-1.57-1.172-.31-1.841 1.514-.027-.005.497-1.874-.922-.244-1.303 4.921 1.216.324c.268.07.483.115.643.134.223.028.42.013.596-.042.24-.062.454-.194.637-.398.192-.202.323-.436.394-.7.09-.341.073-.667-.052-.979m-1.206 1.149c-.157.062-.382.056-.681-.023l-.39-.104.337-1.283.367.1c.31.079.519.186.621.313.116.127.139.304.08.536-.065.236-.177.39-.334.46zM323.774 121.112c.099-.271.226-.45.375-.538.14-.092.298-.104.48-.042.197.065.327.172.394.322.072.144.073.318.002.53-.069.204-.171.336-.305.393-.109.042-.308.062-.597.057a2.498 2.498 0 0 0-.598.033c-.22.04-.414.107-.576.206a1.072 1.072 0 0 0-.324.304 1.357 1.357 0 0 0-.203.391c-.14.421-.125.807.043 1.168.167.36.455.608.863.745.38.13.733.104 1.057-.07.335-.184.598-.503.781-.964l-.869-.292c-.088.21-.188.35-.303.421-.113.07-.243.078-.39.034-.159-.056-.264-.14-.319-.262-.047-.122-.04-.272.02-.448a.804.804 0 0 1 .064-.155.249.249 0 0 1 .108-.093.602.602 0 0 1 .274-.061c.072-.008.19-.003.348.002l.345.013c.357-.013.662-.108.914-.294.257-.18.44-.43.55-.755.155-.468.145-.897-.037-1.292-.178-.402-.488-.673-.931-.824a1.387 1.387 0 0 0-1.184.109c-.38.212-.652.573-.822 1.078l.84.284zM329.546 121.426l-1.876 4.734.911.36 1.876-4.73zM334.252 123.398l-1.729 3.792-.827-.373-.385.84 2.532 1.16.386-.846-.827-.376 1.729-3.796zM340.604 126.528l-.868-.456-.872 1.652-2.882 2.122.962.505 1.858-1.44-.14 2.347.953.505.133-3.618z" style="fill:#231f20;fill-opacity:1;fill-rule:nonzero;stroke:none" transform="matrix(.68628 0 0 -.68628 -115.271 239.955)"/><path d="M196.458 252.24c-.05-.177-1.116-4.164 2.1-7.495.048-.045 11.834-10.15 11.834-10.15l.996-.852.175 1.3c5.51 40.77 40.74 71.515 81.952 71.515v1.426c-41.493 0-76.98-30.657-83.137-71.497a226240.6 226240.6 0 0 1-10.842 9.298c-1.545 1.602-1.866 3.404-1.866 4.63 0 .821.145 1.382.161 1.437 12.32 42.192 51.67 71.671 95.684 71.671v1.427c-44.646 0-84.557-29.897-97.057-72.71z" style="fill:#9b2b20;fill-opacity:1;fill-rule:nonzero;stroke:none" transform="matrix(.68628 0 0 -.68628 -115.271 239.955)"/><path d="M211.43 238.215c0-5.996 5.086-10.874 11.337-10.874 6.252 0 11.336 4.878 11.336 10.874 0 5.999-5.084 10.88-11.336 10.88-6.251 0-11.338-4.881-11.338-10.88m1.427 0c0 5.213 4.445 9.453 9.911 9.453 5.464 0 9.909-4.24 9.909-9.453 0-5.207-4.445-9.447-9.909-9.447-5.466 0-9.911 4.24-9.911 9.447z" style="fill:#9b2b20;fill-opacity:1;fill-rule:nonzero;stroke:none" transform="matrix(.68628 0 0 -.68628 -115.271 239.955)"/><path d="m216.288 241.642-.119-1.335c0-1.474.195-3.61 1.88-5.155a4.315 4.315 0 0 1 2.89-1.11c1.938 0 3.614 1.268 4.076 3.077l.134.528-8.774 5.021-.087-1.026m2.737-5.449c-.99.91-1.429 2.174-1.429 4.114l.002.017c1.313-.749 4.835-2.766 5.739-3.284-.45-.901-1.306-1.571-2.398-1.571-.713 0-1.392.259-1.914.724z" style="fill:#9b2b20;fill-opacity:1;fill-rule:nonzero;stroke:none" transform="matrix(.68628 0 0 -.68628 -115.271 239.955)"/><path d="M214.137 232.032c-1.476 1.785-2.434 3.782-2.434 6.24 0 5.77 4.895 10.455 10.935 10.455 1.712 0 3.328-.374 4.77-1.043l-.054.06-11.644 6.354c-2.332-6.006-4.181-12.954-5.071-18.904l3.498-2.838v-.324z" style="fill:#9b2b20;fill-opacity:1;fill-rule:nonzero;stroke:none" transform="matrix(.68628 0 0 -.68628 -115.271 239.955)"/><path d="M215.044 254.357c-2.337-6.024-4.2-12.97-5.11-19.058l-.061-.405s2.66-2.158 3.356-2.717c.144-.198.199-.404.36-.603l1.27-1.53-.009 2.653-.575.468c-1.189 1.639-1.857 3.277-1.857 5.107 0 5.37 4.584 9.743 10.22 9.743 1.57 0 3.075-.331 4.47-.977 0 0 .323.733.472 1.066l.129.227a.085.085 0 0 0-.026.01.36.36 0 0 1 .014.03l-12.358 6.743-.295-.756m1.058-1.288c.79-.431 3.587-1.957 6.678-3.646-.048 0-.094.018-.142.018a11.766 11.766 0 0 1-9.11-4.296 91.948 91.948 0 0 0 2.574 7.924m-4.64-17.334c.03-.116.029-.235.064-.344-.024.02-.09.072-.11.09.013.084.033.17.047.254z" style="fill:#9b2b20;fill-opacity:1;fill-rule:nonzero;stroke:none" transform="matrix(.68628 0 0 -.68628 -115.271 239.955)"/><path d="M222.448 249.11c-5.019 0-9.446-3.24-10.767-7.874l-.125-.436.344-.346 6.229-5.414.948 1.064-.167.152c-.951.884-1.368 2.124-1.368 4.026l.084 1.02c.508 3.002 2.63 6.266 6.096 6.266h1.608s-.007.61-.014 1.027l.092.384-.098.005v.014h-.196c-.443.028-1.917.127-1.917.127l-.749-.014m-3.366-2.04c-1.54-1.462-2.524-3.546-2.86-5.566.006.087-.107-1.223-.107-1.223 0-.512.052-1.115.154-1.738-1.507 1.313-2.692 2.341-3.047 2.653.92 2.756 3.1 4.898 5.86 5.874zM352.436 238.215c0-5.996 5.087-10.874 11.337-10.874 6.254 0 11.338 4.878 11.338 10.874 0 5.999-5.084 10.88-11.338 10.88-6.25 0-11.337-4.881-11.337-10.88m1.428 0c0 5.213 4.445 9.453 9.91 9.453 5.464 0 9.912-4.24 9.912-9.453 0-5.207-4.448-9.447-9.913-9.447-5.464 0-9.909 4.24-9.909 9.447z" style="fill:#9b2b20;fill-opacity:1;fill-rule:nonzero;stroke:none" transform="matrix(.68628 0 0 -.68628 -115.271 239.955)"/><path d="m369.2 242.115-7.807-4.468.132-.528c.46-1.81 2.135-3.077 4.075-3.077 1.068 0 2.086.388 2.867 1.09 1.709 1.567 1.906 3.701 1.906 5.175l-.223 2.446-.95-.638m-.257-1.788.002-.02c0-1.94-.437-3.204-1.418-4.1a2.87 2.87 0 0 0-1.927-.738c-1.091 0-1.95.67-2.399 1.571.903.518 4.433 2.535 5.742 3.287z" style="fill:#9b2b20;fill-opacity:1;fill-rule:nonzero;stroke:none" transform="matrix(.68628 0 0 -.68628 -115.271 239.955)"/><path d="M374.837 238.272c0 5.77-4.896 10.455-10.935 10.455a11.31 11.31 0 0 1-4.77-1.043l.054.06 11.642 6.354c2.336-6.006 4.173-12.877 5.276-18.692l-3.489-2.919s2.222 3.327 2.222 5.785z" style="fill:#9b2b20;fill-opacity:1;fill-rule:nonzero;stroke:none" transform="matrix(.68628 0 0 -.68628 -115.271 239.955)"/><path d="m370.488 254.723-11.644-6.353.013-.03a.112.112 0 0 0-.026-.01s.087-.152.126-.216l.477-1.076c1.395.645 2.898.976 4.468.976 5.637 0 10.22-4.373 10.22-9.742 0-2.209-2.079-5.356-2.1-5.388l1.053-.945 3.809 3.188-.08.41c-1.212 6.398-3.148 13.257-5.309 18.82l-.296.757-.71-.392m-.052-1.653a99.624 99.624 0 0 0 2.631-7.991 11.763 11.763 0 0 1-9.166 4.363c-.05 0-.094-.017-.144-.017 3.092 1.688 5.892 3.217 6.68 3.645m4.762-16.849c.035-.181.081-.363.116-.543-.074-.062-.289-.239-.44-.368.12.296.228.6.324.911z" style="fill:#9b2b20;fill-opacity:1;fill-rule:nonzero;stroke:none" transform="matrix(.68628 0 0 -.68628 -115.271 239.955)"/><path d="M361.426 248.998h-.197v-.015l-.097-.005.093-.377-.017-1.033h1.608c3.467 0 5.587-3.264 6.092-6.298.007.03.093-.988.093-.988 0-1.9-.419-3.14-1.36-4.02-.007-.004-.175-.156-.175-.156l.946-1.066 6.572 5.71-.125.486c-1.32 4.634-5.749 7.874-10.766 7.874l-.75.015s-1.474-.1-1.917-.127m9.002-8.716-.114 1.31c-.334 1.964-1.312 4.021-2.841 5.473 2.75-.981 4.925-3.115 5.845-5.869-.353-.311-1.539-1.34-3.046-2.652a10.9 10.9 0 0 1 .156 1.738z" style="fill:#9b2b20;fill-opacity:1;fill-rule:nonzero;stroke:none" transform="matrix(.68628 0 0 -.68628 -115.271 239.955)"/><path d="M293.057 323.523c44.014 0 83.36-29.48 95.683-71.681.014-.053.155-.598.155-1.405a6.655 6.655 0 0 0-1.913-4.699c-.004 0-8.021-6.876-10.79-9.25-6.16 40.84-41.645 71.496-83.135 71.496v-1.426c41.207 0 76.437-30.746 81.949-71.515l.176-1.3L387.96 244.7c3.266 3.376 2.197 7.363 2.15 7.532-12.5 42.82-52.41 72.718-97.054 72.718z" style="fill:#9b2b20;fill-opacity:1;fill-rule:nonzero;stroke:none" transform="matrix(.68628 0 0 -.68628 -115.271 239.955)"/><path d="m238.13 132.273-9.206-1.317 6.274-3.613 4.967 5.22-2.036-.29m-1.834-1.706c-.671-.704-1.064-1.123-1.357-1.428-.366.214-.866.5-1.717.988 1.258.182 1.823.262 3.074.44zM347.541 131.263l3.334-3.867 6.293 4.222-10.781.979 1.154-1.334m2.234-.407c1.221-.109 1.926-.173 3.254-.295-.918-.616-1.474-.99-1.9-1.273l-1.354 1.568z" style="fill:#1e6843;fill-opacity:1;fill-rule:nonzero;stroke:none" transform="matrix(.68628 0 0 -.68628 -115.271 239.955)"/><path d="M355.303 132.151c-18.544-12.767-40.29-19.523-62.891-19.547-22.349.16-43.853 6.92-62.193 19.547l-.63.434-12.485-21.143.562-.373c22.145-14.807 47.979-22.693 74.713-22.8h.193c26.945 0 52.976 7.886 75.28 22.8l.561.373-12.478 21.143-.632-.434m-62.847-20.977c22.523 0 44.339 6.716 63.013 19.391l11.015-18.662c-21.942-14.517-47.478-22.205-73.912-22.205h-.19c-26.224.105-51.563 7.794-73.349 22.205l11.02 18.662c18.45-12.521 39.996-19.237 62.39-19.391h.013zM303.675 339.428c-1.323-1.003-2.28-2.388-2.794-4.022l.006.055a8.164 8.164 0 0 0-5.592-5.815h-.023c3.908-.435 7.513 1.91 8.67 5.516l-.008-.06c.703 1.803 2.015 3.23 3.666 4.142v.025c-1.448 1.03-2.582 2.505-3.11 4.258l.004-.06c-.874 3.686-4.279 6.308-8.211 6.176l.023-.003a8.166 8.166 0 0 0 5.118-6.233l-.003.058a8.15 8.15 0 0 1 2.268-4.004l-.014-.033zM418.104 212.618c-.577-6.312-1.648-12.431-3.125-18.458h.007c-6.716-1.414-10.665-3.879-10.665-3.879-3.535 7.916-8.157 10.162-8.157 10.162l.012.01a105.685 105.685 0 0 1 2.446 17.188l.008-.02c5.295-1.651 9.153-10.182 9.504-10.245l.025-.005c4.064 3.729 7.479 4.49 9.736 5.175l.21.072z" style="fill:#1e6843;fill-opacity:1;fill-rule:nonzero;stroke:none" transform="matrix(.68628 0 0 -.68628 -115.271 239.955)"/><path d="M418.31 215.594c.191 2.827.292 5.677.292 8.547 0 4.972-.216 9.67-.779 14.49l-.022.075c-.372-2.39-1.939-3.546-4.707-5.687l.05.032c-2.222-2.16-2.775-2.53-3.924-4.897l-.026.006c-.35.062-1.412 3.195-6.705 4.843h-.023c-2.445.852-3.689 1.687-4.42 3.464l.01.04c.497-4.147.75-8.37.75-12.648 0-1.399.057-2.931 0-4.31l.013.06c5.294-1.652 9.39-9.2 9.74-9.262l.023-.007c4.066 3.725 7.48 4.492 9.734 5.18l-.006.074z" style="fill:#1e6843;fill-opacity:1;fill-rule:nonzero;stroke:none" transform="matrix(.68628 0 0 -.68628 -115.271 239.955)"/><path d="M393.754 256.27c1.523-4.692 2.613-9.17 3.477-14.12l-.007.028c.522-3.547 1.368-5.242 4.75-6.42h.021c5.294-1.649 6.71-4.356 7.058-4.418l.024-.003c1.15 2.363 1.705 2.734 3.925 4.893l-.05-.027c3.436 2.652 4.494 3.95 4.1 7.867l.002.03c-.875 5.419-2.033 10.62-3.577 15.788l.015-.19c-.092-3.735-1.855-5.336-3.577-7.074l.043.037c-1.916-2.435-2.172-3.128-3.001-5.618h-.023c-.358.013-1.654 2.005-7.354 3.91l-.02-.003c-3.012.901-4.71 3.589-5.77 5.284l-.036.035z" style="fill:#1e6843;fill-opacity:1;fill-rule:nonzero;stroke:none" transform="matrix(.68628 0 0 -.68628 -115.271 239.955)"/><path d="M392.305 260.334c.496-1.696 2.78-3.94 5.838-4.66l.021.003c5.806-1.562 7.218-3.474 7.573-3.464h.023c.681 2.537.893 3.245 2.665 5.785l-.043-.035c1.909 2.166 4.137 4.985 2.514 9.725a124.636 124.636 0 0 1-4.37 10.224l.05-.184c-.061-1.728-.738-4.097-2.65-6.263l.046.035c-.963-1.467-1.371-2.127-2.734-5.078h-.026c-2.487.613-3.017.994-7.148 1.203l-.02-.005c-3.06.72-4.952 1.72-6.07 2.958l-.042.045a105.228 105.228 0 0 0 4.396-10.232l-.023-.057z" style="fill:#1e6843;fill-opacity:1;fill-rule:nonzero;stroke:none" transform="matrix(.68628 0 0 -.68628 -115.271 239.955)"/><path d="M403.188 284.3c.69-1.173 1.699-4.948-1.165-8.385l.043.04c-.922-1.492-1.312-2.162-2.593-5.152h-.028c-2.502.548-3.043.914-7.176 1.01l-.021-.005c-3.799.785-5.832 2.047-6.835 3.681l-.106.114a106.752 106.752 0 0 1-6.671 10.33l.114-.09c1.795-1.245 4.752-1.593 7.157-1.23l-.042-.037c2.268.5 3.397.854 5.947.57l.022.005c.967 3.106 1.74 3.504 2.502 5.085l-.035-.04c1.174 2.324 1.318 4.946.99 6.597l-.021.097a127.13 127.13 0 0 0 7.968-12.606l-.05.016z" style="fill:#1e6843;fill-opacity:1;fill-rule:nonzero;stroke:none" transform="matrix(.68628 0 0 -.68628 -115.271 239.955)"/><path d="M391.173 302.326c.845-1.06 1.358-4.667-.11-7.869l.037.042c-.704-1.608-.913-3.247-1.317-6.098l-.025-.006c-1.835.19-2.543.217-5.486-.109l.042.04c-2.968-.563-7.564-.07-9.047 1.98l-.015.01a107.476 107.476 0 0 1-7.01 7.804l.073.07c1.479-1.56 5.231-1.34 7.876-.266l-.037-.043c1.53.73 4.012.835 5.859.854h.016c.082 2.876.596 3.945 1.11 5.62l-.028-.044c1.094 3.35.962 5.561.286 6.779l-.024.055a127.96 127.96 0 0 0 7.711-8.747l.089-.072z" style="fill:#1e6843;fill-opacity:1;fill-rule:nonzero;stroke:none" transform="matrix(.68628 0 0 -.68628 -115.271 239.955)"/><path d="M365.723 300.735c1.52-1.524 5.265-1.206 7.882-.062l-.032-.045c1.507.774 3.97.904 5.81.972l.037.037c.006 2.876.494 3.959.965 5.647l-.028-.047c1.005 3.376 1.309 5.974.072 6.893l.094-.122a128.962 128.962 0 0 1-9.039 7.983l-.03.088c.63-1.233 1.163-3.165.26-6.201l.03.048c-.47-1.689-.994-2.782-1.002-5.656v.04c-1.842-.067-4.304-.269-5.812-1.039l.033.045c-2.617-1.142-5.299-2.368-7.76-1.347l-.132.043a106.554 106.554 0 0 0 8.58-7.244l.072-.033z" style="fill:#1e6843;fill-opacity:1;fill-rule:nonzero;stroke:none" transform="matrix(.68628 0 0 -.68628 -115.271 239.955)"/><path d="M366.066 326.11a126.816 126.816 0 0 1-7.109 4.754l-.093.125c.562-1.213 1.055-4.532.66-6.064l.025.05c-.5-3.217-.4-5.327-.168-5.63l-.035-.063c-1.098.127-4.843-1.08-6.116-2.221l.036.05c-2.63-1.927-5.829-2.414-6.206-2.343l-.076.022a109.627 109.627 0 0 0 6.406-4.111l-.035.056c2.782-2.156 4.3-2.063 8.957.452l-.036-.042c1.511.769 4.083 1.075 5.923 1.145l.026-.048c-.133 2.548.141 3.527.375 5.205l-.032-.048c.739 4.576-.234 6.867-2.539 8.694l.037.017z" style="fill:#1e6843;fill-opacity:1;fill-rule:nonzero;stroke:none" transform="matrix(.68628 0 0 -.68628 -115.271 239.955)"/><path d="M340.522 318.38c-.995.499-2.11 1.047-3.124 1.517l-.004-.008c.384-.01 3.262.746 5.592 3.019l-.028-.053c1.103 1.308 4.65 3.106 5.757 3.131l.015-.008c-.271.269-1.754 2.97-1.707 6.229l-.018-.056c.19 1.698-.892 5.314-1.632 6.137l-.01.016c1.902-.869 3.6-1.727 5.445-2.683l.077-.06c2.843-1.505 4.284-3.606 4.19-8.513l.022.05c.004-1.693-.128-2.699.36-5.202l-.03.04c-2.326-1.048-3.072-1.738-4.457-2.714l.026.047c-4.178-3.08-6.793-2.94-9.873-1.227-.205.114-.415.236-.623.363" style="fill:#1e6843;fill-opacity:1;fill-rule:nonzero;stroke:none" transform="matrix(.68628 0 0 -.68628 -115.271 239.955)"/><path d="M336.93 341.784c-1.698.632-3.29 1.218-5.02 1.78l-.022.005a8.16 8.16 0 0 0 3.308-7.358l.013.058a8.139 8.139 0 0 1 1.139-4.46l.047.021a8.134 8.134 0 0 1-3.807-3.147l.02.057c-1.419-2.527-4.19-4.148-7.034-4.214l-.03-.024c1.048-.331 3.462-1.13 3.734-1.226 3.362-1.19 7.086-.09 9.185 2.715l-.025-.054a8.157 8.157 0 0 0 4.828 2.754l-.041-.026a8.123 8.123 0 0 0-1.506 5.048l-.018-.057c.344 3.42-1.568 6.69-4.73 8.135M312.98 327.687c.69-.132 1.813-.327 1.813-.327l-.024.003c3.766-1.15 7.737.486 9.54 3.82l-.018-.055a8.146 8.146 0 0 0 4.373 3.43l-.04-.028a8.152 8.152 0 0 0-2.228 4.769l-.011-.055c-.178 3.78-3.04 6.987-6.93 7.585l.022-.008-.054.038c-.752.16-1.624.4-2.386.548l-.045.007a8.149 8.149 0 0 0 4.172-6.9l.006.054a8.16 8.16 0 0 1 1.667-4.29l.045.03a8.153 8.153 0 0 1-3.401-3.583l.014.054c-1.074-2.604-3.548-4.574-6.274-5.052-.074-.015-.153-.025-.232-.038l-.009-.003z" style="fill:#1e6843;fill-opacity:1;fill-rule:nonzero;stroke:none" transform="matrix(.68628 0 0 -.68628 -115.271 239.955)"/><path d="M305.53 349.023c2.591-1.178 4.331-3.558 4.64-6.44v.063a8.145 8.145 0 0 1 2.013-4.14l.046.031a8.106 8.106 0 0 1-3.098-3.85l.009.057c-.882-2.759-3.294-4.97-6.07-5.605h.012c.305-.028.94-.078.94-.078 4.187-.607 7.673 1.302 9.133 4.8l-.012-.06a8.154 8.154 0 0 0 4.01 3.85l-.04-.033a8.174 8.174 0 0 0-2.697 4.527l-.002-.062c-.554 3.748-3.721 6.651-7.654 6.855l.025-.003s-.919.068-1.294.105l.038-.017zM406.228 169.923c-6.859.077-10.996-1.387-10.996-1.387-1.73 8.491-5.048 13.333-5.048 13.333l-.01.018c2.326 5.393 4.166 10.962 5.591 16.805l.072-.07s4.24-2.968 7.775-10.884c0 0 4.047 2.463 10.765 3.877l-.027-.054c-2.025-7.582-4.728-14.72-8.032-21.63l-.09-.008z" style="fill:#1e6843;fill-opacity:1;fill-rule:nonzero;stroke:none" transform="matrix(.68628 0 0 -.68628 -115.271 239.955)"/><path d="M405.735 168.576c-3.994-8.098-8.847-15.589-14.422-22.589l-.069-.1c-4.383 1.91-10.815 1.342-10.815 1.342.14 6.72-3.255 12.511-3.255 12.511 4.855 6.381 8.983 13.243 12.3 20.645l.074.141s3.321-4.84 5.05-13.335c0 0 4.134 1.467 10.995 1.385z" style="fill:#1e6843;fill-opacity:1;fill-rule:nonzero;stroke:none" transform="matrix(.68628 0 0 -.68628 -115.271 239.955)"/><path d="M363.064 119.902c10.643 7.227 19.748 15.599 27.508 25.174l-.107.032c-4.38 1.91-10.815 1.342-10.815 1.342.143 6.719-3.096 12.51-3.096 12.51a106.308 106.308 0 0 0-30.12-26.428l5.275-1.006 4.115-.644s-1.523-1.139.47.36l6.77-11.34zM282.894 339.428c1.326-1.003 2.276-2.388 2.792-4.022l-.003.055a8.157 8.157 0 0 1 5.589-5.815h.022c-3.907-.435-7.51 1.91-8.669 5.516l.007-.06c-.7 1.803-2.015 3.23-3.662 4.142v.025c1.446 1.03 2.578 2.505 3.107 4.258v-.06c.869 3.686 4.275 6.308 8.209 6.176l-.023-.003a8.157 8.157 0 0 1-5.12-6.233v.058a8.149 8.149 0 0 0-2.266-4.004l.016-.033zM168.461 212.618c.58-6.312 1.651-12.431 3.13-18.458h-.01c6.716-1.414 10.666-3.879 10.666-3.879 3.533 7.916 8.155 10.162 8.155 10.162l-.01.01a106.008 106.008 0 0 0-2.448 17.188l-.007-.02c-5.293-1.651-9.153-10.182-9.504-10.245l-.026-.005c-4.061 3.729-7.476 4.49-9.735 5.175l-.21.072z" style="fill:#1e6843;fill-opacity:1;fill-rule:nonzero;stroke:none" transform="matrix(.68628 0 0 -.68628 -115.271 239.955)"/><path d="M168.256 215.594c-.192 2.827-.29 5.677-.29 8.547 0 4.972.218 9.67.78 14.49l.02.075c.374-2.39 1.938-3.546 4.707-5.687l-.049.032c2.22-2.16 2.775-2.53 3.923-4.897l.029.006c.348.062 1.408 3.195 6.703 4.843h.02c2.449.852 3.692 1.687 4.422 3.464l-.01.04c-.496-4.147-.751-8.37-.751-12.648 0-1.399-.056-2.931 0-4.31l-.01.06c-5.291-1.652-9.39-9.2-9.74-9.262l-.026-.007c-4.064 3.725-7.478 4.492-9.736 5.18l.007.074z" style="fill:#1e6843;fill-opacity:1;fill-rule:nonzero;stroke:none" transform="matrix(.68628 0 0 -.68628 -115.271 239.955)"/><path d="M192.814 256.27c-1.526-4.692-2.614-9.17-3.476-14.12l.002.028c-.52-3.547-1.37-5.242-4.747-6.42h-.02c-5.297-1.649-6.708-4.356-7.059-4.418l-.023-.003c-1.15 2.363-1.704 2.734-3.925 4.893l.046-.027c-3.434 2.652-4.493 3.95-4.096 7.867l-.004.03c.877 5.419 2.032 10.62 3.576 15.788l-.013-.19c.096-3.735 1.854-5.336 3.58-7.074l-.047.037c1.92-2.435 2.172-3.128 3.004-5.618h.024c.354.013 1.65 2.005 7.35 3.91l.022-.003c3.012.901 4.71 3.589 5.77 5.284l.036.035z" style="fill:#1e6843;fill-opacity:1;fill-rule:nonzero;stroke:none" transform="matrix(.68628 0 0 -.68628 -115.271 239.955)"/><path d="M194.265 260.334c-.495-1.696-2.78-3.94-5.84-4.66l-.023.003c-5.8-1.562-7.214-3.474-7.571-3.464h-.023c-.683 2.537-.895 3.245-2.663 5.785l.043-.035c-1.911 2.166-4.142 4.985-2.515 9.725a126.853 126.853 0 0 0 4.367 10.224l-.05-.184c.064-1.728.74-4.097 2.65-6.263l-.041.035c.96-1.467 1.368-2.127 2.733-5.078h.024c2.486.613 3.015.994 7.145 1.203l.025-.005c3.059.72 4.95 1.72 6.066 2.958l.044.045a104.864 104.864 0 0 1-4.396-10.232l.025-.057z" style="fill:#1e6843;fill-opacity:1;fill-rule:nonzero;stroke:none" transform="matrix(.68628 0 0 -.68628 -115.271 239.955)"/><path d="M183.378 284.3c-.689-1.173-1.697-4.948 1.163-8.385l-.039.04c.923-1.492 1.315-2.162 2.595-5.152h.023c2.505.548 3.045.914 7.181 1.01l.022-.005c3.796.785 5.828 2.047 6.83 3.681l.11.114a106.274 106.274 0 0 0 6.669 10.33l-.116-.09c-1.79-1.245-4.75-1.593-7.156-1.23l.044-.037c-2.266.5-3.4.854-5.944.57l-.03.005c-.96 3.106-1.736 3.504-2.499 5.085l.039-.04c-1.177 2.324-1.323 4.946-.992 6.597l.023.097a126.261 126.261 0 0 1-7.971-12.606l.048.016z" style="fill:#1e6843;fill-opacity:1;fill-rule:nonzero;stroke:none" transform="matrix(.68628 0 0 -.68628 -115.271 239.955)"/><path d="M195.395 302.326c-.85-1.06-1.355-4.667.112-7.869l-.035.042c.7-1.608.906-3.247 1.31-6.098l.027-.006c1.833.19 2.545.217 5.483-.109l-.038.04c2.967-.563 7.563-.07 9.047 1.98l.015.01a106.908 106.908 0 0 0 7.01 7.804l-.073.07c-1.48-1.56-5.23-1.34-7.877-.266l.036-.043c-1.527.73-4.01.835-5.855.854h-.02c-.08 2.876-.596 3.945-1.11 5.62l.035-.044c-1.099 3.35-.967 5.561-.29 6.779l.022.055a129.027 129.027 0 0 1-7.711-8.747l-.089-.072z" style="fill:#1e6843;fill-opacity:1;fill-rule:nonzero;stroke:none" transform="matrix(.68628 0 0 -.68628 -115.271 239.955)"/><path d="M220.843 300.735c-1.517-1.524-5.264-1.206-7.883-.062l.034-.045c-1.508.774-3.97.904-5.812.972l-.035.037c-.006 2.876-.495 3.959-.965 5.647l.031-.047c-1.01 3.376-1.31 5.974-.073 6.893l-.095-.122a128.53 128.53 0 0 0 9.04 7.983l.03.088c-.632-1.233-1.167-3.165-.262-6.201l-.028.048c.468-1.689.992-2.782 1-5.656v.04c1.842-.067 4.304-.269 5.813-1.039l-.035.045c2.616-1.142 5.3-2.368 7.763-1.347l.131.043a107.271 107.271 0 0 1-8.582-7.244l-.072-.033z" style="fill:#1e6843;fill-opacity:1;fill-rule:nonzero;stroke:none" transform="matrix(.68628 0 0 -.68628 -115.271 239.955)"/><path d="M220.5 326.11a126.495 126.495 0 0 0 7.11 4.754l.094.125c-.564-1.213-1.057-4.532-.657-6.064l-.029.05c.502-3.217.403-5.327.167-5.63l.033-.063c1.101.127 4.845-1.08 6.12-2.221l-.032.05c2.623-1.927 5.822-2.414 6.198-2.343l.079.022a108.897 108.897 0 0 1-6.403-4.111l.034.056c-2.784-2.156-4.3-2.063-8.958.452l.032-.042c-1.507.769-4.082 1.075-5.92 1.145l-.027-.048c.134 2.548-.14 3.527-.37 5.205l.031-.048c-.738 4.576.232 6.867 2.537 8.694l-.039.017z" style="fill:#1e6843;fill-opacity:1;fill-rule:nonzero;stroke:none" transform="matrix(.68628 0 0 -.68628 -115.271 239.955)"/><path d="M246.046 318.38c.997.499 2.11 1.047 3.122 1.517l.004-.008c-.38-.01-3.258.746-5.589 3.019l.025-.053c-1.1 1.308-4.647 3.106-5.753 3.131l-.02-.008c.276.269 1.757 2.97 1.71 6.229l.022-.056c-.195 1.698.887 5.314 1.628 6.137l.007.016c-1.9-.869-3.597-1.727-5.441-2.683l-.079-.06c-2.84-1.505-4.285-3.606-4.188-8.513l-.023.05c-.007-1.693.125-2.699-.36-5.202l.03.04c2.325-1.048 3.071-1.738 4.458-2.714l-.03.047c4.181-3.08 6.794-2.94 9.875-1.227.207.114.412.236.625.363" style="fill:#1e6843;fill-opacity:1;fill-rule:nonzero;stroke:none" transform="matrix(.68628 0 0 -.68628 -115.271 239.955)"/><path d="M249.634 341.784c1.701.632 3.295 1.218 5.026 1.78l.018.005a8.152 8.152 0 0 1-3.305-7.358l-.015.058a8.088 8.088 0 0 0-1.138-4.46l-.048.021a8.125 8.125 0 0 0 3.808-3.147l-.02.057c1.42-2.527 4.19-4.148 7.036-4.214l.026-.024c-1.043-.331-3.46-1.13-3.734-1.226-3.36-1.19-7.082-.09-9.185 2.715l.026-.054a8.15 8.15 0 0 1-4.829 2.754l.044-.026a8.154 8.154 0 0 1 1.507 5.048l.016-.057c-.344 3.42 1.568 6.69 4.733 8.135M273.588 327.687c-.691-.132-1.813-.327-1.813-.327l.024.003c-3.767-1.15-7.737.486-9.54 3.82l.017-.055a8.133 8.133 0 0 1-4.374 3.43l.042-.028a8.17 8.17 0 0 1 2.23 4.769l.01-.055c.176 3.78 3.036 6.987 6.932 7.585l-.024-.008.054.038c.754.16 1.625.4 2.385.548l.045.007a8.15 8.15 0 0 1-4.172-6.9l-.005.054a8.148 8.148 0 0 0-1.668-4.29l-.045.03a8.156 8.156 0 0 0 3.4-3.583l-.012.054c1.073-2.604 3.546-4.574 6.272-5.052.078-.015.157-.025.235-.038l.007-.003z" style="fill:#1e6843;fill-opacity:1;fill-rule:nonzero;stroke:none" transform="matrix(.68628 0 0 -.68628 -115.271 239.955)"/><path d="M281.037 349.023c-2.59-1.178-4.333-3.558-4.637-6.44l-.005.063a8.123 8.123 0 0 0-2.01-4.14l-.048.031a8.098 8.098 0 0 0 3.098-3.85l-.003.057c.879-2.759 3.29-4.97 6.066-5.605h-.011c-.309-.028-.939-.078-.939-.078-4.189-.607-7.671 1.302-9.134 4.8l.012-.06a8.147 8.147 0 0 1-4.01 3.85l.04-.033a8.15 8.15 0 0 1 2.694 4.527l.003-.062c.554 3.748 3.72 6.651 7.656 6.855l-.024-.003s.919.068 1.29.105l-.038-.017zM180.337 169.923c6.862.077 10.997-1.387 10.997-1.387 1.73 8.491 5.052 13.333 5.052 13.333l.009.018c-2.33 5.393-4.164 10.962-5.592 16.805l-.074-.07s-4.24-2.968-7.775-10.884c0 0-4.047 2.463-10.762 3.877l.026-.054c2.023-7.582 4.731-14.72 8.032-21.63l.088-.008z" style="fill:#1e6843;fill-opacity:1;fill-rule:nonzero;stroke:none" transform="matrix(.68628 0 0 -.68628 -115.271 239.955)"/><path d="M180.832 168.576c3.997-8.098 8.846-15.589 14.423-22.589l.07-.1c4.382 1.91 10.815 1.342 10.815 1.342-.141 6.72 3.251 12.511 3.251 12.511-4.85 6.381-8.981 13.243-12.3 20.645l-.069.141s-3.32-4.84-5.053-13.335c0 0-4.134 1.467-10.995 1.385z" style="fill:#1e6843;fill-opacity:1;fill-rule:nonzero;stroke:none" transform="matrix(.68628 0 0 -.68628 -115.271 239.955)"/><path d="M223.08 120.186a125.86 125.86 0 0 0-27.083 24.89l.104.032c4.385 1.91 10.815 1.342 10.815 1.342-.14 6.719 3.098 12.51 3.098 12.51a106.287 106.287 0 0 1 30.12-26.428l-5.276-1.006-4.113-.644s1.521-1.139-.9.644l-6.765-11.34zM288.423 269.1l4.808 9.898.055.052.05-.052 4.809-9.898c8.484 1.13 17.813-4.242 17.813-4.242l-22.672 37.837-22.675-37.837s9.33 5.371 17.812 4.242zM293.231 205.195l.055.04.05-.04c24.814 20.923 50.155 17.885 50.155 17.885l-18.557 33.082c-1.375 2.439-3.072 2.652-3.072 2.652-12.726 5.937-21.739 4.453-21.739 4.453-3.288-.107-2.332-3.922-2.332-3.922l.634-8.485c.32-2.756-.847-2.16-.847-2.16h-8.59s-1.165-.596-.847 2.16l.637 8.485s.954 3.815-2.333 3.922c0 0-9.013 1.484-21.737-4.453 0 0-1.696-.213-3.076-2.652l-18.554-33.082s25.34 3.038 50.153-17.885z" style="fill:#1e6843;fill-opacity:1;fill-rule:nonzero;stroke:none" transform="matrix(.68628 0 0 -.68628 -115.271 239.955)"/><path d="M348.371 219.581c-33.296 4.56-55.036-20.039-55.036-20.039l-.05-.015-.054.015s-21.739 24.599-55.033 20.039l-20.03-34.84s44.1 2.183 70.82-36.311h8.59c26.72 38.494 70.736 35.466 70.736 35.466l-19.943 35.685z" style="fill:#283a74;fill-opacity:1;fill-rule:nonzero;stroke:none" transform="matrix(.68628 0 0 -.68628 -115.271 239.955)"/><path d="m211.819 181.7-.607-1.076 1.233.01c52.762.416 69.909-32.089 70.076-32.42l1.273.65c-.17.33-17.41 33.102-70.132 33.195l19.22 33.988-1.242.705-19.821-35.053z" style="fill:#283a74;fill-opacity:1;fill-rule:nonzero;stroke:none" transform="matrix(.68628 0 0 -.68628 -115.271 239.955)"/><path d="m206.731 178.942-.633-1.11 1.277.043c.517.02 51.874 1.374 71.252-29.818l1.212.752c-18.096 29.13-63.167 30.503-71.251 30.505 1.157 2.03 19.626 34.4 19.626 34.4l-1.238.71-20.245-35.482z" style="fill:#283a74;fill-opacity:1;fill-rule:nonzero;stroke:none" transform="matrix(.68628 0 0 -.68628 -115.271 239.955)"/><path d="m201.63 175.713-.614-1.086 1.25.025c55.915 1.083 72.903-26.31 73.068-26.586l1.227.73c-.166.284-17.262 27.963-73.082 27.296 1.14 2.021 19.648 34.87 19.648 34.87l-1.243.697-20.254-35.946zM353.688 216.045s18.101-31.763 19.166-33.636c-55.835-2.1-69.962-33.271-70.1-33.588l1.312-.565c.134.311 14.122 31.14 69.995 32.8l1.187.036-20.32 35.663-1.24-.71z" style="fill:#283a74;fill-opacity:1;fill-rule:nonzero;stroke:none" transform="matrix(.68628 0 0 -.68628 -115.271 239.955)"/><path d="M358.353 213.714s18.198-31.985 19.337-33.99c-7.765-.054-52.792-1.665-70.963-30.915l1.213-.752c19.38 31.197 70.445 30.258 70.96 30.244l1.264-.035-20.571 36.155-1.24-.707z" style="fill:#283a74;fill-opacity:1;fill-rule:nonzero;stroke:none" transform="matrix(.68628 0 0 -.68628 -115.271 239.955)"/><path d="m363.44 210.962 19.634-34.85c-51.937 2.239-72.201-26.94-72.402-27.236l1.184-.797c.2.294 20.37 29.317 72.42 26.575l1.297-.069-20.89 37.074-1.243-.697z" style="fill:#283a74;fill-opacity:1;fill-rule:nonzero;stroke:none" transform="matrix(.68628 0 0 -.68628 -115.271 239.955)"/><path d="M272.785 132.36v10.619h-2.103v2.094h4.57V132.36zM282.979 132.368l2.622 3.88h-.184c-1.139 0-2.119.433-2.938 1.305-.808.861-1.209 1.883-1.209 3.062 0 .406.054.82.166 1.239.122.42.29.816.515 1.19a4.23 4.23 0 0 0 1.591 1.676c.698.39 1.46.592 2.292.592.604 0 1.183-.115 1.727-.348a4.405 4.405 0 0 0 1.439-.991c.422-.409.753-.895.999-1.454a4.064 4.064 0 0 0 .364-1.64c0-.729-.181-1.469-.55-2.216-.208-.468-.624-1.157-1.244-2.087l-.066-.114-2.737-4.094h-2.787m4.395 9.911c-.413.431-.914.645-1.512.645-.696 0-1.237-.192-1.627-.577-.386-.399-.58-.954-.58-1.671 0-.673.194-1.211.58-1.607.39-.396.909-.597 1.562-.597.655 0 1.182.204 1.592.615.408.405.613.91.613 1.504 0 .687-.21 1.25-.628 1.688zM295.636 132.368l2.622 3.88h-.184c-1.138 0-2.119.433-2.937 1.305a4.329 4.329 0 0 0-1.21 3.062c0 .406.054.82.165 1.239.12.42.293.816.514 1.19a4.246 4.246 0 0 0 1.596 1.676 4.6 4.6 0 0 0 2.287.592c.609 0 1.184-.115 1.726-.348a4.414 4.414 0 0 0 1.444-.991c.42-.409.751-.895.995-1.454.242-.556.367-1.1.367-1.64 0-.729-.183-1.469-.548-2.216-.213-.468-.625-1.157-1.247-2.087l-.064-.114-2.738-4.094h-2.788m4.394 9.911c-.412.431-.914.645-1.51.645-.699 0-1.24-.192-1.625-.577-.39-.399-.583-.954-.583-1.671 0-.673.193-1.211.583-1.607.385-.396.904-.597 1.56-.597.65 0 1.18.204 1.592.615.408.405.612.91.612 1.504 0 .687-.21 1.25-.629 1.688zM310.756 132.36v10.619h-2.105v2.094h4.57V132.36z" style="fill:#231f20;fill-opacity:1;fill-rule:nonzero;stroke:none" transform="matrix(.68628 0 0 -.68628 -115.271 239.955)"/></svg>