<svg xmlns="http://www.w3.org/2000/svg" xml:space="preserve" width="900" height="900" viewBox="0 0 900 900"><path d="M349.76 238.08C163.65 238.08 12.238 86.683 12.238-99.43c0-186.087 151.41-337.49 337.522-337.49 186.085 0 337.478 151.403 337.478 337.49 0 186.112-151.393 337.51-337.478 337.51" style="fill:#00adee;fill-opacity:1;fill-rule:nonzero;stroke:none;stroke-width:3.01586" transform="matrix(1.33333 0 0 -1.33333 -16.317 317.441)"/><path d="M349.762 232.973c-183.298 0-332.423-149.109-332.423-332.4 0-183.28 149.125-332.388 332.423-332.388 183.268 0 332.37 149.108 332.37 332.387 0 183.292-149.102 332.401-332.37 332.401zm-.018-14.627c175.478 0 317.748-142.263 317.748-317.765 0-175.49-142.27-317.747-317.748-317.747-175.456 0-317.752 142.257-317.752 317.747 0 175.502 142.296 317.765 317.752 317.765zm8.124-30.261-2.986-47.156 22.385-1.418.663 10.382-12.202.778.56 8.897 11.306-.711.64 10.218-11.3.716.472 7.417 12.202-.764.65 10.218zm-24.487-.699a33.747 33.747 0 0 1-3.61-.07l-13.16-.87 3.154-47.156 14.694.985c4.442.293 7.856 1.765 10.262 4.4 2.407 2.636 3.469 6.087 3.185 10.37-.202 2.876-.873 5.185-2.05 6.922-1.167 1.73-2.949 2.908-5.34 3.52l-.027.328c1.74.657 3.08 1.955 4.051 3.9.956 1.946 1.347 4.237 1.166 6.879-.265 4.023-1.708 6.9-4.329 8.641-1.959 1.298-4.622 2.02-7.996 2.151zm-27.072-2.102-10.82-2.302-2.743-18.488-9.957 15.793-10.872-2.31 18.227-25.968 3.747-17.675 10.076 2.147-3.843 18.05zm86.11-.067-9.09-46.364 10.027-1.962 3.31 16.867 2.526-.49 4.564-18.413 11.371-2.236-6.852 22.319c4.771 2.123 7.685 5.863 8.734 11.226 1.797 9.138-2.345 14.692-12.427 16.668zm-60.969-7.536c2.465-.125 3.78-1.339 3.928-3.658.105-1.478-.223-2.619-.977-3.433-.742-.808-1.847-1.257-3.313-1.356l-3.08-.203-.56 8.45 2.876.186c.399.027.774.031 1.126.014zm69.134-3.906 1.979-.388c3.441-.682 4.84-2.616 4.21-5.8-.748-3.876-2.88-5.464-6.384-4.777l-1.886.367zm-140.68-.145a21.987 21.987 0 0 1-6.683-1.308c-3.505-1.288-6.223-3.333-8.13-6.158-1.92-2.82-2.937-6.217-3.052-10.201-.117-3.99.662-8.28 2.333-12.882 2.68-7.34 6.157-12.437 10.43-15.29 4.277-2.838 9.098-3.293 14.45-1.33 3.75 1.357 6.793 3.401 9.163 6.119l-3.698 10.147a41.945 41.945 0 0 0-3.724-3.596 13.583 13.583 0 0 0-4.272-2.483c-5.193-1.9-9.347 1.424-12.462 9.971-1.493 4.108-2.027 7.567-1.608 10.369.431 2.805 1.784 4.626 4.064 5.456 1.511.552 3.02.796 4.52.75a31.294 31.294 0 0 0 4.647-.507l-.504 10.518c-1.064.203-2.12.334-3.158.398-.78.048-1.55.056-2.315.027zm188.988-2.466-11.27-26.444c-2.424-5.694-3.017-10.598-1.762-14.72 1.257-4.11 4.26-7.186 8.994-9.207 4.859-2.072 9.237-2.082 13.143-.062 3.918 2.024 7.082 5.882 9.507 11.58l11.146 26.17-9.392 4.007-10.846-25.46c-1.33-3.136-2.731-5.21-4.179-6.22-1.457-1.01-3.143-1.098-5.058-.287-1.789.766-2.858 2.033-3.19 3.813-.323 1.782.173 4.211 1.476 7.285l10.876 25.525zM332.016 159.94c1.62.109 2.888-.234 3.79-1.012.911-.78 1.422-1.954 1.524-3.534.22-3.354-1.256-5.127-4.435-5.341l-3.596-.247-.658 9.9zm160.497-8.654L466.819 111.6l7.603-4.913 11.575 17.883c1.502 2.32 3.541 5.768 6.114 10.334l.19-.124-6.494-35.462 11.252-7.276 25.676 39.69-7.647 4.939-11.615-17.95c-1.559-2.415-3.53-5.692-5.92-9.82l-.132.083 6.282 35.047zm-281.623-.623c-1.789-.094-3.727-.443-5.823-1.083a25.914 25.914 0 0 1-6.167-2.823c-5.341-3.29-8.366-7.659-9.105-13.112-.727-5.44.913-11.398 4.921-17.891 4.114-6.656 8.625-10.935 13.55-12.865 4.924-1.915 9.863-1.35 14.83 1.714 4.506 2.79 8.149 6.156 10.93 10.095l-13.39 21.669-13.877-8.575 5.182-8.39 5.739 3.552 3.887-6.304c-.895-.98-1.976-1.873-3.273-2.664-2.362-1.462-4.774-1.587-7.25-.393-2.473 1.198-4.862 3.67-7.187 7.43-2.362 3.831-3.494 7.21-3.389 10.126.115 2.92 1.447 5.159 3.99 6.724 2.762 1.713 5.747 2.571 8.941 2.571zm-40.096-23.37-6.812-6.03 14.137-16.015c1.912-2.177 4.534-4.964 7.872-8.363l-.124-.11-32.042 15.52-10.001-8.827 31.282-35.43 6.786 5.994-14.11 15.957c-1.825 2.066-4.59 4.966-8.306 8.672l.177.15 32.386-15.82 10.037 8.867zm362.45-4.339-30.5-36.11 7.842-6.627 30.496 36.12zm-183.482-5.866c-119.45 0-216.311-96.855-216.311-216.316 0-119.443 96.862-216.307 216.31-216.307 119.435 0 216.25 96.864 216.25 216.307 0 119.461-96.815 216.316-216.25 216.316zm198.136-6.159-25.68-41.54 8.305-8.703 42.747 23.653-7.89 8.27-21.047-12.82c-1.134-.697-2.634-1.693-4.52-2.987-1.89-1.306-3.425-2.425-4.598-3.384 1.439 1.517 3.716 4.5 6.834 8.942l13.77 20.268zm-420.575-25.72-8.455-10.69 29.585-39.107 6.958 8.81-5.765 7.001 7.625 9.631 8.107-4.029 6.923 8.765zM579.207 76.4l-38.231-27.783 13.191-18.153 8.42 6.114-7.174 9.896 7.205 5.244 6.662-9.167 8.293 6.035-6.667 9.162 6.022 4.365 7.192-9.896 8.296 6.026zM129.25 75.087c1.032-.6 2.792-1.536 5.28-2.805 2.488-1.27 4.517-2.291 6.11-3.066l7.099-3.53-4.988-6.308c-4.846 5.826-8.115 9.699-9.807 11.614-1.695 1.93-2.934 3.299-3.694 4.095zM107.934 59.94l-5.642-9.534 11.778-14.526-18.378 3.35-5.663-9.579 31.467-4.143 15.555-9.198 5.24 8.87-15.891 9.393zm491.149-12.087-41.545-22.509 4.85-8.972 15.123 8.19 1.237-2.275-11.301-15.237 5.518-10.187 12.847 19.49c4.674-2.333 9.413-2.193 14.23.416 8.181 4.43 9.827 11.166 4.93 20.198zm-3.632-13.58.959-1.772c1.653-3.08 1.071-5.392-1.794-6.936-3.471-1.882-6.045-1.26-7.749 1.882l-.914 1.683zM85.09 19.541l-3.305-8.486 19.898-7.762c2.69-1.062 6.298-2.333 10.819-3.835l-.058-.154-35.594-.87L72-14.005l44.014-17.168 3.287 8.424-19.836 7.75c-2.57.991-6.345 2.296-11.345 3.9l.084.22 36.027.76 4.873 12.476zm403.164-10.24V-1.932h20.887l-.088-47.822h-21.54v-50.654h21.456l.084-48.375-149.015.243v9.834h-5.73v-10.077H253.48c-19.989 0-39.258 8.868-50.238 23.087-9.416 10.99-15.034 25.322-15.034 38.302 0 16.039 4.02 28.39 12.233 38.788-2.7 0-7.996-.022-7.996-.022v46.696h82.44v11.15l52.08-.093V-1.932H435.4v11.15Zm122.628-.68c-1.811-.008-3.732-.393-5.765-1.162-2.186-.83-3.968-1.827-5.35-2.982a12.79 12.79 0 0 1-3.26-4.157c-.793-1.626-1.41-3.837-1.842-6.636-.477-3.09-.822-5.02-1.06-5.787-.242-.76-.546-1.365-.902-1.802-.35-.438-.83-.774-1.427-1.003-.968-.368-1.89-.339-2.752.093-.856.428-1.566 1.352-2.103 2.77-.624 1.646-.98 3.58-1.073 5.791-.088 2.223.114 4.46.587 6.724l-10.65-4.024c-.369-2.115-.453-4.058-.257-5.81.184-1.746.718-3.8 1.608-6.158 1.07-2.82 2.59-5.054 4.568-6.706 1.978-1.647 4.234-2.629 6.777-2.943 2.545-.307 5.198.064 7.943 1.105 2.983 1.134 5.229 2.657 6.746 4.581 1.514 1.927 2.552 4.746 3.119 8.447.615 3.86 1.115 6.278 1.528 7.258.413.974 1.062 1.63 1.93 1.953.8.304 1.584.287 2.347-.075.754-.35 1.36-1.162 1.837-2.408.902-2.391 1.042-5.606.402-9.635l10.33.57c.669 4.611.316 8.747-1.065 12.396-1.575 4.144-3.94 6.98-7.113 8.482-1.59.754-3.29 1.125-5.103 1.118zm-125.296-1.98a49916.2 49916.2 0 0 0-47.522-.088V-4.583H324.302V6.462c-2.44.018-44.31.092-46.753.092V-4.583h-82.453v-41.39c1.954.018 10.868.04 10.868.04l-1.93-2.196c-8.982-10.341-13.17-22.81-13.17-39.265 0-12.374 5.377-26.046 14.446-36.632 10.522-13.628 28.978-22.11 48.171-22.11h98.18v10.08h11.036v-9.829c2.579 0 141.091-.234 143.688-.252 0 2.452-.067 40.638-.067 43.07H484.87v55.959h21.515c.015 2.44.097 40.085.097 42.525h-20.896ZM283-1.26h30.91v-10.66h129.644v10.66h30.894v-10.66h21.139v-27.447h-21.14v-69.633h21.14v-27.43h-128.35v9.635h-25.415v-9.635h-89.742c-24.04 0-53.897 18.084-53.897 49.793 0 23.665 10.958 39.848 27.925 47.27h-24.475v27.447h81.367zm346.365-20.798-45.622-12.317 2.677-9.91 45.622 12.313zm-366.594-7.643v-7.232h24.598v7.232zm43.042 0v-59.092h12.547v30.796h10.249v7.232h-10.25v21.064zm114.853 0v-51.273c-4.171 1.994-9.146 3.159-14.508 3.159-15.016 0-26.982-9.025-27.063-20.088.081-11.07 12.047-20.11 27.063-20.11 15.034 0 26.964 9.04 27.072 20.11h.013v32.679h10.652v7.227h-10.652v10.435h10.652v7.245h-10.652v10.616zm-28.464-1.396c-14.183 0-24.951-9.144-24.951-20.375 0-11.285 10.768-20.388 24.951-20.388 14.247 0 24.987 9.103 24.987 20.388 0 11.231-10.74 20.375-24.987 20.375zm-277.316-3.508L65.9-37.226l-2.752-13.346 43.952-21.7 2.275 11-8.288 3.658 2.5 12.043 9.04.027zm277.316-2.739c6.708 0 12.171-5.677 12.171-14.128 0-8.667-5.442-14.18-12.17-14.18-6.657 0-12.132 5.513-12.132 14.18 0 8.45 5.442 14.128 12.131 14.128zM251.94-39.95v-7.246h8.716c-5.257-3.217-8.522-8.165-8.522-13.739 0-9.696 9.864-17.574 22.91-17.574 13.04 0 22.902 7.878 22.902 17.574 0 5.574-3.261 10.522-8.5 13.74h8.72v7.245zm382.582-1.304L624.22-42.95l1.515-9.114-36.318-6.012 1.665-10.082 36.318 6.022 1.516-9.092 10.293 1.71zM72.163-45.412c1.194-.07 3.186-.115 5.973-.146a509.27 509.27 0 0 1 6.834 0l7.917.031-1.617-7.88c-6.942 3.04-11.6 5.029-13.973 5.994-2.377.95-4.09 1.624-5.134 2.001zm202.881-2.832c6.159 0 11.129-5.475 11.129-12.692 0-7.355-4.97-12.714-11.129-12.714-6.149 0-11.132 5.359-11.132 12.714 0 7.217 4.983 12.692 11.132 12.692zM59.683-73.787l-.46-10.25 17.5-.781-.526-11.849-17.495.774-.464-10.245 47.217-2.103.455 10.258-19.248.853.53 11.852 19.249-.857.45 10.254zm580.423-2.726-28.782-13.341-18.046-.57.313-10.285 18.444.574 29.17-11.534-.353 11.057-17.706 5.973 17.304 7.002zm-233.947-8.265c7.66 0 14.508-4.928 14.508-13.126 0-8.121-6.848-13.111-14.508-13.111-7.645 0-14.503 4.99-14.503 13.111 0 8.198 6.858 13.126 14.503 13.126zm-144.412-.46v-16.765c0-8.433 5.477-13.558 14.37-13.558l43.078-.058v7.259h-43.81v23.122zM88.783-130.966s-5.368-7.08-5.301-15.696c.126-8.64 5.637-15.577 5.637-15.577s5.409 7.033 5.319 15.691c-.118 8.623-5.655 15.582-5.655 15.582zm523.942 0s-5.542-6.96-5.65-15.581c-.091-8.659 5.3-15.692 5.3-15.692s5.541 6.936 5.629 15.577c.1 8.616-5.28 15.696-5.28 15.696zm-502.308-17.282s-9.362-7.17-12.357-20.198c-3.028-12.984.694-23.847.694-23.847s9.193 8.98 12.206 21.991c2.983 12.986-.543 22.054-.543 22.054zm480.683 0s-3.54-9.068-.54-22.054c3.008-13.01 12.172-21.991 12.172-21.991s3.745 10.863.71 23.847c-3 13.028-12.342 20.198-12.342 20.198zM57.58-152.68s1.518-13.647 11.968-25.451C79.87-189.804 94.47-193.82 94.72-193.88h.01c-.076.52-2.346 15.32-12.6 26.91-10.417 11.782-24.55 14.29-24.55 14.29zm586.37 0s-14.156-2.509-24.594-14.292c-10.411-11.807-12.556-26.926-12.556-26.926s14.748 3.984 25.177 15.767c10.417 11.804 11.972 25.45 11.972 25.45zM121.61-185.24s-7.994-8.685-8.72-22c-.673-13.372 4.863-23.418 4.863-23.418s7.475 10.453 8.187 23.79c.687 13.311-4.33 21.629-4.33 21.629zm458.294 0s-5.026-8.317-4.338-21.629c.703-13.336 8.177-23.79 8.177-23.79s5.567 10.047 4.855 23.42c-.724 13.314-8.694 22-8.694 22zm-249.09-4.368c5.389 0 9.465-2.03 12.219-6.123 2.756-4.09 4.135-10.086 4.135-17.954 0-8.152-1.334-14.201-4.012-18.122-2.669-3.914-6.785-5.875-12.343-5.875-5.395 0-9.45 2.028-12.197 6.078-2.733 4.039-4.104 10.014-4.104 17.919 0 8.236 1.336 14.313 4.002 18.219 2.66 3.905 6.747 5.858 12.3 5.858zm37.404 0c5.39 0 9.466-2.03 12.22-6.123 2.76-4.09 4.144-10.086 4.144-17.954 0-8.152-1.347-14.201-4.016-18.122-2.675-3.914-6.792-5.875-12.348-5.875-5.395 0-9.45 2.028-12.197 6.078-2.739 4.039-4.104 10.014-4.104 17.919 0 8.236 1.335 14.313 3.998 18.219 2.663 3.905 6.754 5.858 12.303 5.858zm-74.306-.076c2.919 0 5.506-.536 7.744-1.594 2.238-1.068 3.974-2.556 5.204-4.471 1.234-1.912 1.856-4.108 1.856-6.57 0-2.162-.383-4.173-1.14-6.06-.754-1.882-1.925-3.824-3.508-5.797-1.598-1.978-4.39-4.795-8.398-8.46l-6.004-5.645v-.456h20.357v-8.31h-32.66v6.88l11.738 11.839c3.47 3.552 5.74 6.018 6.799 7.4 1.073 1.372 1.835 2.642 2.306 3.812a9.774 9.774 0 0 1 .693 3.64c0 1.876-.512 3.269-1.546 4.18-1.034.916-2.41 1.373-4.135 1.373-1.806 0-3.565-.415-5.266-1.241-1.716-.826-3.497-2.007-5.345-3.539l-5.368 6.344c2.304 1.958 4.2 3.343 5.717 4.149a20.642 20.642 0 0 0 4.952 1.868c1.788.45 3.796.659 6.004.659zm112.22 0c2.925 0 5.499-.536 7.74-1.594 2.231-1.068 3.963-2.556 5.2-4.471 1.233-1.912 1.855-4.108 1.855-6.57 0-2.162-.383-4.173-1.131-6.06-.76-1.882-1.93-3.824-3.517-5.797-1.583-1.978-4.389-4.795-8.394-8.46l-6.012-5.645v-.456h20.366v-8.31h-32.66v6.88l11.728 11.839c3.475 3.552 5.74 6.018 6.808 7.4 1.059 1.372 1.828 2.642 2.302 3.812.47 1.17.702 2.383.702 3.64 0 1.876-.512 3.269-1.546 4.18-1.04.916-2.419 1.373-4.144 1.373-1.812 0-3.566-.415-5.27-1.241-1.707-.826-3.482-2.007-5.337-3.539l-5.372 6.344c2.298 1.958 4.209 3.343 5.717 4.149a20.485 20.485 0 0 0 4.956 1.868c1.795.45 3.795.659 6.009.659zm-75.319-7.916c-2.331 0-3.986-1.255-4.996-3.755-.996-2.497-1.498-6.615-1.498-12.33 0-5.73.498-9.84 1.484-12.312.996-2.486 2.66-3.73 5.01-3.73 2.292 0 3.964 1.262 4.992 3.774 1.017 2.515 1.529 6.601 1.529 12.268 0 5.715-.518 9.833-1.546 12.33-1.04 2.5-2.695 3.755-4.975 3.755zm37.405 0c-2.33 0-3.99-1.255-4.992-3.755-1.007-2.497-1.502-6.615-1.502-12.33 0-5.73.49-9.84 1.485-12.312.995-2.486 2.666-3.73 5.01-3.73 2.291 0 3.968 1.262 4.987 3.774 1.02 2.515 1.533 6.601 1.533 12.268 0 5.715-.518 9.833-1.555 12.33-1.032 2.5-2.683 3.755-4.966 3.755zm-297.938-1.489v-.013c.094-.31 4.05-13.258 16.209-22.942 12.329-9.792 27.536-11.19 27.536-11.19s-4.738 14.527-17.04 24.338c-12.235 9.729-26.494 9.801-26.705 9.807zm560.945 0c-.163 0-14.442-.051-26.714-9.807-12.314-9.81-17.044-24.338-17.044-24.338s15.224 1.398 27.523 11.19c12.232 9.718 16.163 22.723 16.235 22.946zm-489.93-27.615c-4.791 0-9.866-8.95-11.04-17.035-.59-3.993-.157-7.768.928-10.67-2.46 1.895-5.956 3.325-9.988 3.889-8.345 1.188-18.795-1.402-19.522-6.318-.727-4.93 8.607-10.375 16.982-11.579 3.969-.567 7.752-.185 10.66.946-1.891-2.491-3.31-6-3.919-10.002-1.182-8.37 1.407-18.824 6.37-19.527 4.935-.705 10.354 8.598 11.566 16.942.564 4.011.181 7.782-.94 10.713 2.478-1.89 5.996-3.338 9.992-3.887 8.381-1.228 18.839 1.371 19.553 6.317.697 4.934-8.63 10.37-16.982 11.53-4.005.595-7.762.215-10.7-.9 1.913 2.481 3.334 5.974 3.91 9.97 1.216 8.396-1.402 18.838-6.34 19.553-.177.03-.36.058-.53.058zm418.915 0c-.178 0-.365-.028-.53-.058-4.961-.714-7.561-11.157-6.349-19.553.576-3.996 2.013-7.489 3.91-9.97-2.922 1.115-6.686 1.495-10.673.9-8.378-1.16-17.722-6.596-16.987-11.53.691-4.946 11.15-7.545 19.531-6.317 4.023.549 7.497 1.997 10.007 3.887-1.107-2.93-1.513-6.701-.928-10.713 1.182-8.344 6.601-17.647 11.566-16.942 4.93.703 7.524 11.158 6.33 19.527-.582 4.002-2.03 7.51-3.91 10.002 2.91-1.131 6.695-1.513 10.66-.946 8.4 1.204 17.723 6.648 16.987 11.58-.703 4.915-11.171 7.505-19.531 6.317-4.023-.564-7.502-1.994-9.984-3.888 1.085 2.901 1.5 6.676.936 10.669-1.182 8.085-6.237 17.035-11.035 17.035zm-423.96-26.03c.608.038 1.23.013 1.856-.075 4.98-.757 8.443-5.377 7.722-10.368-.639-4.566-4.548-7.855-9.038-7.855-.429 0-.851.028-1.304.088-5 .73-8.449 5.363-7.713 10.351.604 4.373 4.225 7.595 8.478 7.86zm429 0c4.242-.264 7.872-3.486 8.487-7.859.745-4.988-2.73-9.62-7.744-10.35a9.154 9.154 0 0 0-10.329 7.766c-.736 4.99 2.764 9.611 7.74 10.368.624.088 1.24.113 1.846.075zM185.642-280.22s-3.494-11.524 1.714-24.055c5.254-12.552 14.764-19.367 14.764-19.367s2.273 12.888-2.96 25.495c-5.214 12.491-13.518 17.927-13.518 17.927zm330.206 0s-8.29-5.436-13.523-17.927c-5.22-12.607-2.956-25.495-2.956-25.495s9.502 6.815 14.773 19.367c5.212 12.531 1.706 24.055 1.706 24.055zm-302.334-22.447s-.817-11.992 7.13-23.02c7.868-11 18.623-15.49 18.74-15.538v.01c-.02.346-.806 13.215-8.623 24.111-7.944 11.038-17.247 14.437-17.247 14.437zm274.48 0s-9.332-3.399-17.252-14.437c-7.916-11.056-8.632-24.12-8.632-24.12s10.852 4.48 18.727 15.536c7.959 11.03 7.157 23.021 7.157 23.021zm-323.076-9.516c-10.16 0-17.618-3.582-17.618-3.582s8.661-9.572 23.15-12.913c14.458-3.294 27.973 1.745 27.973 1.745s-9.978 10.434-24.457 13.76c-3.14.719-6.204.99-9.048.99zm371.671 0c-2.844 0-5.89-.271-9.048-.99-14.488-3.326-24.465-13.76-24.465-13.76s13.529-5.039 27.969-1.745c14.5 3.341 23.166 12.913 23.166 12.913s-7.462 3.582-17.622 3.582zm-280.877-14.313a3.975 3.975 0 0 1-1.798-.402c-4.382-2.162-3.612-12.698.049-20.114 1.752-3.547 4.144-6.336 6.644-8.116-3.064.14-6.675-.595-10.218-2.35-7.434-3.652-14.426-11.559-12.282-15.926 2.175-4.373 12.69-3.614 20.097.044 3.586 1.75 6.387 4.152 8.124 6.65-.139-3.053.621-6.654 2.386-10.22 3.661-7.403 11.518-14.446 15.93-12.232 4.361 2.111 3.585 12.637-.08 20.066-1.733 3.537-4.145 6.362-6.648 8.084 3.067-.118 6.673.658 10.231 2.408 7.401 3.637 14.441 11.515 12.273 15.921-2.147 4.376-12.68 3.605-20.096-.035-3.595-1.743-6.39-4.204-8.12-6.67.15 3.036-.623 6.67-2.373 10.204-3.217 6.508-9.622 12.688-14.119 12.688zm190.074 0c-4.478 0-10.901-6.18-14.101-12.688-1.761-3.534-2.543-7.168-2.386-10.205-1.755 2.467-4.549 4.928-8.11 6.67-7.429 3.641-17.962 4.412-20.097.036-2.19-4.406 4.837-12.284 12.26-15.921 3.57-1.75 7.178-2.526 10.24-2.408-2.495-1.722-4.932-4.547-6.645-8.085-3.68-7.428-4.468-17.954-.062-20.065 4.358-2.214 12.257 4.829 15.891 12.233 1.743 3.565 2.527 7.166 2.386 10.218 1.76-2.497 4.566-4.9 8.146-6.649 7.37-3.658 17.906-4.417 20.083-.044 2.144 4.367-4.846 12.274-12.286 15.926-3.552 1.755-7.15 2.49-10.214 2.35 2.51 1.78 4.898 4.57 6.654 8.116 3.637 7.416 4.435 17.951.044 20.114-.55.277-1.148.402-1.803.402zM211.04-338.358c-14.169-.015-24.236-8.08-24.236-8.08s10.113-7.053 24.284-7.02c14.133.037 25.615 7.643 25.615 7.643s-11.388 7.457-25.451 7.457zm279.198 0c-14.057 0-25.42-7.457-25.42-7.457s11.45-7.606 25.597-7.643c14.165-.033 24.293 7.02 24.293 7.02s-10.083 8.065-24.227 8.08zm-221.489-10.757a8.973 8.973 0 0 0 8.557-4.988c2.175-4.406.365-9.789-4.077-11.945a9.009 9.009 0 0 0-3.976-.941 8.976 8.976 0 0 0-8.027 4.979c-2.166 4.445-.34 9.791 4.068 11.98a9.034 9.034 0 0 0 3.455.915zm163.992 0a8.941 8.941 0 0 0 3.441-.914 8.95 8.95 0 0 0 4.091-11.981 8.936 8.936 0 0 0-8.018-4.98 8.916 8.916 0 0 0-3.959.942c-4.445 2.156-6.278 7.54-4.104 11.945a8.953 8.953 0 0 0 8.549 4.988zm-82.966-12.36c-6.219 0-11.26-5.017-11.26-11.209 0-6.224 5.041-11.234 11.26-11.234 6.189 0 11.212 5.01 11.212 11.234 0 6.192-5.023 11.208-11.212 11.208z" style="fill:#fff;fill-opacity:1;fill-rule:nonzero;stroke:none;stroke-width:3.01585" transform="matrix(1.33333 0 0 -1.33333 -16.317 317.441)"/></svg>