<svg xmlns="http://www.w3.org/2000/svg" width="199.11218mm" height="198.88336mm" viewBox="0 0 199.11218 198.88336"><path d="M242.218 457.69s37.57 31.944 83.511 31.944c45.953 0 82.908-32.472 82.908-32.472l-6.488-7.49s4.984-10.487 11.989-12.978l10.484 2.995s25.477-31.972 25.477-73.915c0-41.957-20.069-71.16-27.062-79.154l-5.904 3.667s-5.926-3.017-7.838-6.847l6.875-8.317s-10.701-4.152-16.934-3.667l-5.749 8.3-6.075-4.472 3.366-4.313s-3.854-17.25-30.356-16.454l3.357-7.827s-37.695-15.184-78.75.316l3.035 7.51s-29.711-.631-30.99 18.698l2.873 4.143-4.633 4-7.183-9.901s-8.786.786-15.968 3.978l7.018 8.63s-2.394 6.223-5.59 7.507l-6.386-4.301s-26.993 26.512-26.993 82.254c0 40.407 25.074 69.8 25.074 69.8l9.913-2.558s8.778 2.559 13.415 14.061z" style="fill:#f89c22;fill-opacity:1;fill-rule:nonzero;stroke:none" transform="matrix(.79681 0 0 -.79681 -159.53 390.145)"/><path d="M254.358 422.874s-21.235-23.315-21.235-56.864c0-33.547 14.365-51.116 14.365-51.116s.325 7.668 7.183 7.993c6.878.322 20.294-11.818 13.585-23.957l-10.707-14.867 5.12-4.307s8.62 11.502 10.38 13.574c1.755 2.084 7.347 5.276 11.821 2.88 4.469-2.395 4.955-6.39 3.995-9.59-.959-3.18-2.085-8.463-2.085-8.463l23.32-1.115-1.59-9.423s17.886-3.515 31.627-.158l-1.437 9.259 21.081.96s-2.398 7.507-2.72 9.59c-.316 2.07.643 7.979 6.393 8.615 5.753.65 8.631-1.594 9.429-2.393.799-.794 12.138-15.165 12.138-15.165l6.226 4.79s-10.219 14.533-11.336 17.402c-1.114 2.877-2.234 7.825 3.98 16.462 6.242 8.617 19.18 5.263 17.574-3.841 0 0 15.668 20.446 15.668 48.705 0 28.282-11.664 49.684-19.97 59.114 0 0 1.111-7.824-6.548-7.824-7.669 0-12.456 5.264-15.65 10.548-3.2 5.252-3.365 12.457 4.47 14.536 0 0-21.891 17.877-56.074 17.877-26.988 0-50.64-16.452-50.64-16.452s14.06-2.39.328-19.483c-9.987-9.991-19.329-5.274-18.691 2.713z" style="fill:#252f81;fill-opacity:1;fill-rule:nonzero;stroke:none" transform="matrix(.79681 0 0 -.79681 -159.53 390.145)"/><path d="m296.525 267.002-7.575-17.861s29.415-12.637 70.202-.544l-7.756 17.5s-29.778-8.118-54.871.905zM305.74 274.406l-7.05-4.512s4.333-1.804 6.322-1.804zM341.836 274.217l7.039-4.51s-4.346-1.79-6.332-1.79zM299.06 274.047l-4.155-2.893-5.405-13.35s-24.906-3.255-29.609 14.073l10.116 12.811s1.44-7.576 7.763-9.021c6.843-.36 21.29-1.62 21.29-1.62zM348.875 273.682l4.32-4.139 5.594-11.92s20.212-2.524 27.62 12.815l-10.113 13.35s-1.444-8.665-11.187-9.027c-9.735-.355-16.234-1.08-16.234-1.08z" style="fill:#bf2519;fill-opacity:1;fill-rule:nonzero;stroke:none" transform="matrix(.79681 0 0 -.79681 -159.53 390.145)"/><path d="m284.262 283.248-1.266-4.339s-3.61-1.797-7.394 1.986l2.349 3.793s2.699-2.707 6.31-1.44zM362.04 281.623s4.506-.902 6.862 1.62l2.165-2.701s-2.714-3.985-8.119-2.53zM368.353 288.118s-.536-2.526-3.244-3.07c-2.705-.543-4.878 1.272-5.06 3.436-.165 2.156 1.99 4.328 4.883 4.51 2.885.175 5.047-1.808 6.31-2.897 1.27-1.08 2.533-3.597 1.443-6.133zM278.123 289.022l-4.331-4.69s-1.264 5.232 3.065 7.758c4.34 2.524 7.583.722 8.127-1.633.533-2.339-.371-3.777-2.883-3.957-2.533-.18-3.978 2.34-3.978 2.522z" style="fill:#bf2519;fill-opacity:1;fill-rule:nonzero;stroke:none" transform="matrix(.79681 0 0 -.79681 -159.53 390.145)"/><path d="M254.665 297.679s4.688-1.44 6.496-1.44c0 0-7.046-11.55-14.252-20.759 0 0-5.788-.357-8.851 1.632z" style="fill:#fff;fill-opacity:1;fill-rule:nonzero;stroke:none" transform="matrix(.79681 0 0 -.79681 -159.53 390.145)"/><path d="M236.623 293.712s4.323-5.228 4.87-6.495l12.81 14.971s5.954-4.867 9.75-1.26c3.793 3.624 3.422 10.47-1.266 14.252-4.688 3.795-8.672 5.247-10.289 3.795-1.618-1.445-3.612-6.13.538-12.452zM393.984 296.951s-4.879-1.799-6.68-1.799c0 0 6.499-11.365 13.714-20.573 0 0 6.499-.173 9.56 1.808z" style="fill:#fff;fill-opacity:1;fill-rule:nonzero;stroke:none" transform="matrix(.79681 0 0 -.79681 -159.53 390.145)"/><path d="M414.018 292.262s-6.327-4.506-6.868-5.762l-12.803 14.974s-5.957-4.871-9.76-1.261c-3.778 3.611-3.144 10.151 1.272 14.258 5.042 4.69 8.666 5.22 10.287 3.774 1.631-1.428 3.614-6.123-.542-12.446zM239.751 435.248s9.582 7.282 11.18 13.035l14.093-13.746s5.955 3.287 8.531.89c2.576-2.396 2.296-7.805-2.752-12.236-5.051-4.438-9.929-6.208-12.33-3.462-2.395 2.759.439 8.782 1.591 10.108zM399.415 447.177s4.398-8.19 10.21-12.214l-18.478-6.548s4.99-8.33.974-10.792c-4.027-2.454-10.426 1.791-12.959 5.58-2.53 3.8-4.46 8.794-1.27 11.322 3.204 2.535 8.11-1.339 8.11-1.339z" style="fill:#fff;fill-opacity:1;fill-rule:nonzero;stroke:none" transform="matrix(.79681 0 0 -.79681 -159.53 390.145)"/><path d="m246.824 457.162 18.349-17.977s25.102 20.593 58.445 20.593c33.335 0 57.858-18.536 61.794-21.907l17.975 18.535s-31.639 29.031-77.335 29.031c-45.698 0-79.228-28.275-79.228-28.275zM396.839 427.003l25.842 8.811s23.42-28.666 23.42-69.677c0-41.01-17.428-65.542-24.737-74.715l-20.955 14.98s19.85 23.215 19.85 60.296c0 37.09-23.42 60.305-23.42 60.305zM253.557 427.574l-26.392 7.674s-23.419-28.1-23.419-69.111c0-41.01 17.419-65.542 24.728-74.715l20.977 14.98s-19.856 23.215-19.856 60.296c0 37.09 23.962 60.876 23.962 60.876z" style="fill:#fff;fill-opacity:1;fill-rule:nonzero;stroke:none" transform="matrix(.79681 0 0 -.79681 -159.53 390.145)"/><path d="m236.617 316.91 1.183-2.093-5.674-3.21 3.16-5.569 5.669 3.215 1.177-2.077-12.974-7.356-1.18 2.082 5.538 3.135-3.157 5.567-5.535-3.14-1.184 2.097zM216.746 325.846l9.878-1.144 5.725 2.267.886-2.233-5.73-2.262-6.401-7.612-.964 2.435 4.838 5.46-7.271.654zM221.857 344.57c1.476.37 2.808.146 3.99-.662 1.183-.8 1.976-2.005 2.37-3.597.394-1.574.261-3-.405-4.267-.662-1.27-1.736-2.088-3.208-2.458l-9.573-2.394-.585 2.33 9.471 2.366c.957.242 1.646.705 2.068 1.417.423.712.509 1.546.266 2.516-.232.948-.709 1.66-1.423 2.099-.697.438-1.53.527-2.496.295l-9.46-2.36-.583 2.32zM214.477 361.198c1.31.126 2.428-.232 3.363-1.077.939-.843 1.475-2.016 1.619-3.521l.342-3.569 5.846.553.228-2.388-14.854-1.405-.563 5.957c-.147 1.517.158 2.772.918 3.768.748 1.004 1.789 1.566 3.1 1.682m.226-2.383c-.78-.069-1.36-.383-1.747-.931-.393-.549-.545-1.243-.461-2.075l.324-3.444 4.924.47-.319 3.436c-.082.837-.365 1.49-.848 1.952-.486.465-1.111.66-1.873.592zM221.147 376.749c1.348-.07 2.383-.655 3.102-1.743.72-1.081 1.031-2.467.938-4.163-.07-1.205-.275-2.246-.63-3.114-.348-.87-.897-1.649-1.644-2.35l-1.39 1.673c.541.513.94 1.098 1.19 1.736.257.65.4 1.383.453 2.206.057 1.037-.098 1.85-.467 2.44-.361.586-.908.912-1.629.95-.674.04-1.206-.136-1.575-.535a2.28 2.28 0 0 1-.437-.644c-.113-.242-.207-.594-.288-1.05l-.353-1.842c-.24-1.271-.694-2.253-1.36-2.926-.724-.73-1.696-1.065-2.902-.989-1.309.074-2.337.61-3.077 1.6-.748.984-1.076 2.296-.99 3.915.119 1.983.775 3.576 1.97 4.804l1.326-1.612a4.03 4.03 0 0 1-.962-1.475c-.205-.553-.327-1.182-.37-1.888-.052-.9.129-1.618.541-2.15.407-.533.949-.82 1.613-.859.59-.032 1.062.146 1.42.535.369.378.623.959.782 1.717l.345 1.779c.141.697.305 1.27.51 1.71.197.436.454.826.764 1.17.758.811 1.799 1.18 3.12 1.105zM223.518 393.166c1.482-.325 2.574-1.111 3.277-2.372.7-1.241.874-2.673.518-4.27-.351-1.588-1.103-2.804-2.261-3.642-1.165-.832-2.492-1.094-3.974-.77l-9.636 2.122.524 2.349 9.528-2.104c.963-.21 1.79-.1 2.48.35.693.44 1.142 1.151 1.36 2.128.212.968.1 1.799-.334 2.512-.434.71-1.137 1.166-2.104 1.375l-9.53 2.102.517 2.343zM234.515 408.237l-.828-2.021-12.48-2.779 9.733-3.967-.906-2.218-13.81 5.629.819 2.06 12.44 2.766-9.682 3.946.9 2.22zM237.778 425.594c.837-.502 1.474-1.009 1.92-1.52.444-.52.758-1.143.94-1.857.2-.8.232-1.583.099-2.337-.138-.758-.429-1.507-.88-2.25-.846-1.41-2.008-2.328-3.493-2.743a4.54 4.54 0 0 0-2.796.096c-.576.21-1.617.761-3.12 1.663-1.497.895-2.468 1.547-2.917 1.957a4.494 4.494 0 0 0-1.419 2.436c-.33 1.506-.073 2.967.777 4.377.829 1.383 1.895 2.287 3.192 2.72 1.2.385 2.446.333 3.748-.17l-1.246-2.08c-.819.25-1.566.25-2.258 0-.673-.244-1.241-.751-1.699-1.51a3.35 3.35 0 0 1-.452-1.246 3.13 3.13 0 0 1 .042-1.232c.135-.527.435-1.004.909-1.436.461-.423 1.317-1.008 2.563-1.751 1.291-.784 2.227-1.273 2.79-1.475a2.89 2.89 0 0 1 1.673-.095c.819.191 1.476.71 1.968 1.527.544.919.687 1.831.425 2.742-.228.759-.766 1.386-1.593 1.883l-.718.428-1.723-2.868-1.64.974 2.962 4.937 1.946-1.17z" style="fill:#252f81;fill-opacity:1;fill-rule:nonzero;stroke:none" transform="matrix(.79681 0 0 -.79681 -159.53 390.145)"/><path d="m236.617 316.91 1.183-2.093-5.674-3.21 3.16-5.569 5.669 3.215 1.177-2.077-12.974-7.356-1.18 2.082 5.538 3.135-3.157 5.567-5.535-3.14-1.184 2.097zM216.746 325.846l9.878-1.144 5.725 2.267.886-2.233-5.73-2.262-6.401-7.612-.964 2.435 4.838 5.46-7.271.654zM221.857 344.57c1.476.37 2.808.146 3.99-.662 1.183-.8 1.976-2.005 2.37-3.597.394-1.574.261-3-.405-4.267-.662-1.27-1.736-2.088-3.208-2.458l-9.573-2.394-.585 2.33 9.471 2.366c.957.242 1.646.705 2.068 1.417.423.712.509 1.546.266 2.516-.232.948-.709 1.66-1.423 2.099-.697.438-1.53.527-2.496.295l-9.46-2.36-.583 2.32zM214.477 361.198c1.31.126 2.428-.232 3.363-1.077.939-.843 1.475-2.016 1.619-3.521l.342-3.569 5.846.553.228-2.388-14.854-1.405-.563 5.957c-.147 1.517.158 2.772.918 3.768.748 1.004 1.789 1.566 3.1 1.682m.226-2.383c-.78-.069-1.36-.383-1.747-.931-.393-.549-.545-1.243-.461-2.075l.324-3.444 4.924.47-.319 3.436c-.082.837-.365 1.49-.848 1.952-.486.465-1.111.66-1.873.592zM221.147 376.749c1.348-.07 2.383-.655 3.102-1.743.72-1.081 1.031-2.467.938-4.163-.07-1.205-.275-2.246-.63-3.114-.348-.87-.897-1.649-1.644-2.35l-1.39 1.673c.541.513.94 1.098 1.19 1.736.257.65.4 1.383.453 2.206.057 1.037-.098 1.85-.467 2.44-.361.586-.908.912-1.629.95-.674.04-1.206-.136-1.575-.535a2.28 2.28 0 0 1-.437-.644c-.113-.242-.207-.594-.288-1.05l-.353-1.842c-.24-1.271-.694-2.253-1.36-2.926-.724-.73-1.696-1.065-2.902-.989-1.309.074-2.337.61-3.077 1.6-.748.984-1.076 2.296-.99 3.915.119 1.983.775 3.576 1.97 4.804l1.326-1.612a4.03 4.03 0 0 1-.962-1.475c-.205-.553-.327-1.182-.37-1.888-.052-.9.129-1.618.541-2.15.407-.533.949-.82 1.613-.859.59-.032 1.062.146 1.42.535.369.378.623.959.782 1.717l.345 1.779c.141.697.305 1.27.51 1.71.197.436.454.826.764 1.17.758.811 1.799 1.18 3.12 1.105zM223.518 393.166c1.482-.325 2.574-1.111 3.277-2.372.7-1.241.874-2.673.518-4.27-.351-1.588-1.103-2.804-2.261-3.642-1.165-.832-2.492-1.094-3.974-.77l-9.636 2.122.524 2.349 9.528-2.104c.963-.21 1.79-.1 2.48.35.693.44 1.142 1.151 1.36 2.128.212.968.1 1.799-.334 2.512-.434.71-1.137 1.166-2.104 1.375l-9.53 2.102.517 2.343zM234.515 408.237l-.828-2.021-12.48-2.779 9.733-3.967-.906-2.218-13.81 5.629.819 2.06 12.44 2.766-9.682 3.946.9 2.22zM237.778 425.594c.837-.502 1.474-1.009 1.92-1.52.444-.52.758-1.143.94-1.857.2-.8.232-1.583.099-2.337-.138-.758-.429-1.507-.88-2.25-.846-1.41-2.008-2.328-3.493-2.743a4.54 4.54 0 0 0-2.796.096c-.576.21-1.617.761-3.12 1.663-1.497.895-2.468 1.547-2.917 1.957a4.494 4.494 0 0 0-1.419 2.436c-.33 1.506-.073 2.967.777 4.377.829 1.383 1.895 2.287 3.192 2.72 1.2.385 2.446.333 3.748-.17l-1.246-2.08c-.819.25-1.566.25-2.258 0-.673-.244-1.241-.751-1.699-1.51a3.35 3.35 0 0 1-.452-1.246 3.13 3.13 0 0 1 .042-1.232c.135-.527.435-1.004.909-1.436.461-.423 1.317-1.008 2.563-1.751 1.291-.784 2.227-1.273 2.79-1.475a2.89 2.89 0 0 1 1.673-.095c.819.191 1.476.71 1.968 1.527.544.919.687 1.831.425 2.742-.228.759-.766 1.386-1.593 1.883l-.718.428-1.723-2.868-1.64.974 2.962 4.937 1.946-1.17zM417.17 416.58c-1.321-.767-2.655-.929-4.015-.485-1.369.443-2.463 1.375-3.285 2.792-.824 1.399-1.09 2.802-.804 4.21.284 1.404 1.091 2.492 2.396 3.256l8.524 4.975 1.205-2.071-8.428-4.923c-.848-.498-1.38-1.143-1.594-1.937-.204-.801-.053-1.629.456-2.492.494-.85 1.14-1.387 1.945-1.612.795-.228 1.62-.09 2.477.418l8.423 4.91 1.214-2.075zM419.218 399.031l-.814 2.04 7.008 10.68-9.74-3.938-.902 2.226 13.835 5.594.84-2.054-6.993-10.652 9.695 3.917.895-2.218zM421.203 392.111l-.658 2.302 14.331 4.13.658-2.3zM439.041 380.058l-15.633 2.369-.347 1.825 13.699 7.867.456-2.436-9.987-5.597 11.337-1.56zM425.192 364.456l-.561 10.057 14.898.843.562-10.065-2.022-.11-.441 7.664-4.322-.25.362-6.526-1.997-.118-.366 6.541-4.516-.258.44-7.66zM424.084 349.202l.243 2.782 6.58 2.743.279 2.954-6.283.568.22 2.394 14.854-1.342-.547-6.09c-.14-1.465-.644-2.62-1.518-3.429-.884-.823-1.972-1.17-3.256-1.065-1.02.096-1.842.462-2.48 1.112-.631.639-1.02 1.438-1.175 2.381l-6.917-3.008m10.76 1.908c.72-.057 1.316.127 1.763.572.465.446.735 1.078.81 1.881l.322 3.528-4.659.423-.324-3.523c-.068-.797.085-1.451.447-1.986.362-.532.921-.824 1.64-.895zM425.21 335.16c-1.314.322-2.226 1.075-2.734 2.268-.52 1.2-.57 2.626-.167 4.278.28 1.168.675 2.152 1.175 2.945.495.79 1.173 1.455 2.042 2.005l1.062-1.886c-.62-.416-1.12-.912-1.486-1.503a6.828 6.828 0 0 1-.833-2.086c-.25-1.007-.247-1.845.009-2.483.253-.641.73-1.052 1.426-1.226.676-.161 1.217-.081 1.656.238.202.15.383.336.54.55.162.23.314.553.475.994l.68 1.747c.466 1.208 1.092 2.083 1.864 2.636.842.585 1.863.742 3.028.441 1.274-.303 2.187-1.014 2.746-2.117.552-1.111.649-2.465.265-4.038-.468-1.926-1.397-3.378-2.799-4.366l-1.023 1.822c.523.347.918.774 1.217 1.283.303.496.532 1.1.705 1.79.21.87.163 1.611-.144 2.201-.304.6-.781.985-1.43 1.139-.562.135-1.074.052-1.489-.268-.438-.315-.796-.836-1.079-1.54l-.667-1.691c-.262-.67-.532-1.202-.812-1.597a4.389 4.389 0 0 0-.957-1.01c-.892-.665-1.983-.84-3.27-.527zM418.922 330.218l.796 2.262 14.044-5.018-.802-2.264zM424.742 311.45l1.84 3.926-11.661 5.485 1.021 2.176 11.658-5.497 1.845 3.93 1.842-.864-4.714-10.016zM418.872 297.783l-4.975 8.607-5.24 3.239 1.254 2.036 5.241-3.24 9.923-.6-1.37-2.232-7.266.625 3.811-6.212z" style="fill:#252f81;fill-opacity:1;fill-rule:nonzero;stroke:none" transform="matrix(.79681 0 0 -.79681 -159.53 390.145)"/><path d="M417.17 416.58c-1.321-.767-2.655-.929-4.015-.485-1.369.443-2.463 1.375-3.285 2.792-.824 1.399-1.09 2.802-.804 4.21.284 1.404 1.091 2.492 2.396 3.256l8.524 4.975 1.205-2.071-8.428-4.923c-.848-.498-1.38-1.143-1.594-1.937-.204-.801-.053-1.629.456-2.492.494-.85 1.14-1.387 1.945-1.612.795-.228 1.62-.09 2.477.418l8.423 4.91 1.214-2.075zM419.218 399.031l-.814 2.04 7.008 10.68-9.74-3.938-.902 2.226 13.835 5.594.84-2.054-6.993-10.652 9.695 3.917.895-2.218zM421.203 392.111l-.658 2.302 14.331 4.13.658-2.3zM439.041 380.058l-15.633 2.369-.347 1.825 13.699 7.867.456-2.436-9.987-5.597 11.337-1.56zM425.192 364.456l-.561 10.057 14.898.843.562-10.065-2.022-.11-.441 7.664-4.322-.25.362-6.526-1.997-.118-.366 6.541-4.516-.258.44-7.66zM424.084 349.202l.243 2.782 6.58 2.743.279 2.954-6.283.568.22 2.394 14.854-1.342-.547-6.09c-.14-1.465-.644-2.62-1.518-3.429-.884-.823-1.972-1.17-3.256-1.065-1.02.096-1.842.462-2.48 1.112-.631.639-1.02 1.438-1.175 2.381l-6.917-3.008m10.76 1.908c.72-.057 1.316.127 1.763.572.465.446.735 1.078.81 1.881l.322 3.528-4.659.423-.324-3.523c-.068-.797.085-1.451.447-1.986.362-.532.921-.824 1.64-.895zM425.21 335.16c-1.314.322-2.226 1.075-2.734 2.268-.52 1.2-.57 2.626-.167 4.278.28 1.168.675 2.152 1.175 2.945.495.79 1.173 1.455 2.042 2.005l1.062-1.886c-.62-.416-1.12-.912-1.486-1.503a6.828 6.828 0 0 1-.833-2.086c-.25-1.007-.247-1.845.009-2.483.253-.641.73-1.052 1.426-1.226.676-.161 1.217-.081 1.656.238.202.15.383.336.54.55.162.23.314.553.475.994l.68 1.747c.466 1.208 1.092 2.083 1.864 2.636.842.585 1.863.742 3.028.441 1.274-.303 2.187-1.014 2.746-2.117.552-1.111.649-2.465.265-4.038-.468-1.926-1.397-3.378-2.799-4.366l-1.023 1.822c.523.347.918.774 1.217 1.283.303.496.532 1.1.705 1.79.21.87.163 1.611-.144 2.201-.304.6-.781.985-1.43 1.139-.562.135-1.074.052-1.489-.268-.438-.315-.796-.836-1.079-1.54l-.667-1.691c-.262-.67-.532-1.202-.812-1.597a4.389 4.389 0 0 0-.957-1.01c-.892-.665-1.983-.84-3.27-.527zM418.922 330.218l.796 2.262 14.044-5.018-.802-2.264zM424.742 311.45l1.84 3.926-11.661 5.485 1.021 2.176 11.658-5.497 1.845 3.93 1.842-.864-4.714-10.016zM418.872 297.783l-4.975 8.607-5.24 3.239 1.254 2.036 5.241-3.24 9.923-.6-1.37-2.232-7.266.625 3.811-6.212z" style="fill:#252f81;fill-opacity:1;fill-rule:nonzero;stroke:none" transform="matrix(.79681 0 0 -.79681 -159.53 390.145)"/><path d="m302.386 247.963 2.102 12.087-2.54.444.312 1.822 4.855-.857-2.428-13.897zM313.657 246.362l3.522 4.306-.81.059c-1.306.104-2.396.66-3.241 1.667-.86.988-1.232 2.149-1.129 3.473.032.446.12.872.269 1.302.178.435.407.846.705 1.226.532.784 1.19 1.365 1.98 1.737.79.356 1.676.506 2.664.432a5.383 5.383 0 0 0 1.936-.526 4.908 4.908 0 0 0 1.58-1.202 4.952 4.952 0 0 0 .991-1.702 4.367 4.367 0 0 0 .257-1.817c-.065-.806-.35-1.631-.854-2.462-.298-.502-.875-1.272-1.725-2.31v-.032l-3.592-4.343-2.553.192m5.881 11.08a2.938 2.938 0 0 1-2.059 1c-.888.07-1.631-.138-2.225-.618-.606-.491-.947-1.187-1.018-2.064-.067-.881.153-1.6.65-2.165.506-.578 1.199-.904 2.085-.971.88-.064 1.626.155 2.249.676.623.509.962 1.14 1.02 1.88.059.886-.164 1.641-.702 2.261zM326.3 245.725l5.346 12.29-6.49-.211-.064 2.032 8.774.284.065-2.14-5.165-12.182-2.466-.073zM339.976 246.597l3.518 12.938-6.382-1.14-.353 2.002 8.63 1.537.372-2.113-3.346-12.786z" style="fill:#fff;fill-opacity:1;fill-rule:nonzero;stroke:none" transform="matrix(.79681 0 0 -.79681 -159.53 390.145)"/><path d="m300.184 477.065.48-1.902-3.467-.876.512-2.034 3.463.873.97-3.829 1.24.32c.618.176.98.79.864 1.412l-1.682 6.637zM299.005 468.825l-.474 1.901c-1.637-.172-2.942.18-3.922 1.056-.836.746-1.444 1.878-1.816 3.404l-2.562-.65c.372-1.537.374-2.821.012-3.854-.421-1.234-1.401-2.17-2.913-2.806l.553-2.157c1.012.3 1.942.815 2.79 1.545.997.87 1.673 1.886 2.026 3.047a6.167 6.167 0 0 1 2.074-1.418 6.882 6.882 0 0 1 2.33-.486c-1.33-.55-2.342-1.382-3.032-2.515-.737-1.217-.933-2.511-.59-3.883.385-1.52 1.298-2.621 2.734-3.312 1.346-.646 2.781-.779 4.313-.391 1.53.391 2.75 1.187 3.65 2.4.954 1.296 1.24 2.703.857 4.22-.333 1.321-1.102 2.338-2.299 3.048-1.102.661-2.34.948-3.731.851m3.071-6.924c-.51-.743-1.193-1.224-2.05-1.44-.848-.22-1.676-.117-2.483.297-.831.42-1.355 1.051-1.565 1.876-.213.842-.053 1.65.477 2.413a3.554 3.554 0 0 0 2.056 1.405c.86.22 1.69.13 2.485-.256.837-.42 1.358-1.056 1.568-1.897.21-.829.05-1.629-.488-2.398zM333.992 479.584l-2.346.009-.014-5.514h-1.925l.018 5.514-2.302.006-.026-11.272-7.545.016.017 9.18 5.574-.014.01 2.097-8.067.016-.026-12.065c0-.504.149-.856.456-1.062.246-.166.617-.248 1.123-.248l8.458-.017-.01-3.904 1.141-.004c.618.03 1.112.522 1.153 1.139l.017 8.527 1.934-.003-.024-9.67 1.203-.008a1.232 1.232 0 0 1 1.149 1.136" style="fill:#252f81;fill-opacity:1;fill-rule:nonzero;stroke:none" transform="matrix(.79681 0 0 -.79681 -159.53 390.145)"/><path d="M332.81 462.306h-.008" style="fill:#fff;fill-opacity:1;fill-rule:nonzero;stroke:none" transform="matrix(.79681 0 0 -.79681 -159.53 390.145)"/><path d="m364.206 470.292.711 2.712-2.387.623-2.093-8.029 1.268-.33a1.238 1.238 0 0 1 1.399.814l.576 2.185 2.4-.63.533 2.028zM348.089 472.455c-.317-1.194-.088-2.307.675-3.337.716-.975 1.71-1.626 2.986-1.957 1.249-.329 2.41-.241 3.492.263 1.135.531 1.868 1.397 2.182 2.593.102.366.111.741.053 1.123-.053.361-.162.718-.34 1.056l1.369-.359.52 1.975-3.848 1.004.424 1.607-2.577.672-.416-1.6-4.064 1.054-.52-1.974 1.394-.364a2.874 2.874 0 0 1-.854-.746 2.892 2.892 0 0 1-.476-1.01m3.427.577a2.478 2.478 0 0 0 1.77.17 2.486 2.486 0 0 0 1.433-.999c.36-.535.476-1.085.327-1.654-.138-.536-.5-.947-1.088-1.233-.57-.286-1.144-.356-1.743-.2a2.44 2.44 0 0 0-1.445 1.032c-.363.533-.464 1.064-.33 1.605.152.564.505.994 1.076 1.28z" style="fill:#252f81;fill-opacity:1;fill-rule:nonzero;stroke:none" transform="matrix(.79681 0 0 -.79681 -159.53 390.145)"/><path d="M361.705 465.268" style="fill:#fff;fill-opacity:1;fill-rule:nonzero;stroke:none" transform="matrix(.79681 0 0 -.79681 -159.53 390.145)"/><path d="M359.441 456.554a1.23 1.23 0 0 1 1.378.785l1.518 5.808-15.284 3.992-.532-2.056 12.897-3.368-1.257-4.832M386.24 445.297l.503.91-1.29.719 6.917 12.443-13.38 7.437-1.018-1.835 11.227-6.24-5.898-10.612-2.93 1.629 3.538 6.367-2.13 1.184-3.538-6.366-2.419 1.345 3.536 6.364-2.146 1.194-3.548-6.362-2.55 1.42-1.03-1.857 14.687-8.166a1.222 1.222 0 0 1 1.47.426zM274.678 459.973l1.065.557c-.006-.003-.01-.007-.018-.007l.085.047c.553.318.77 1 .506 1.579l-.067.122-3.302 6.27-2.179-1.146.863-1.63-2.299-1.21.977-1.864 2.293 1.219.538-1.02-2.296-1.212.977-1.851 2.296 1.209.561-1.063zM275.324 458.806l.781-1.469-9.657-5.09-.769 1.471-2.158-1.137 2.775-5.251c.255-.486.55-.773.892-.875.316-.097.696-.028 1.132.205l11.362 5.992c.439.23.702.5.793.809.123.333.064.747-.202 1.238l-2.767 5.256-2.182-1.15m2.512-4.755-9.653-5.089-.822 1.56 9.657 5.086zM260.95 456.99c.565-1.077 1.456-1.73 2.682-1.963 1.15-.214 2.281-.028 3.395.57 1.123.59 1.907 1.41 2.355 2.463.491 1.134.447 2.237-.12 3.312-.17.323-.413.604-.702.836-.272.207-.57.379-.91.51l1.32.697-.922 1.754-3.562-1.874-.775 1.46-2.346-1.234.772-1.468-3.676-1.936.927-1.755 1.369.722a3.094 3.094 0 0 1-.117-1.06 2.74 2.74 0 0 1 .31-1.033m2.123 2.64c.214.533.591.938 1.14 1.227.539.286 1.1.372 1.683.264.608-.126 1.038-.436 1.298-.933.254-.471.254-.995.026-1.584-.24-.569-.623-.999-1.15-1.27-.543-.29-1.105-.363-1.678-.217-.576.14-1 .453-1.257.933-.252.497-.281 1.02-.062 1.58z" style="fill:#252f81;fill-opacity:1;fill-rule:nonzero;stroke:none" transform="matrix(.79681 0 0 -.79681 -159.53 390.145)"/><path d="M275.769 460.541c.015.007.02.012.032.018l-.058-.03c.009.007.02.008.026.013z" style="fill:#252f81;fill-opacity:1;fill-rule:nonzero;stroke:none" transform="matrix(.79681 0 0 -.79681 -159.53 390.145)"/><path d="M275.725 460.522c.01 0 .012.004.018.007l.058.03c0 .004.01.004.01.01l-.086-.047z" style="fill:#252f81;fill-opacity:1;fill-rule:nonzero;stroke:none" transform="matrix(.79681 0 0 -.79681 -159.53 390.145)"/><path d="M383.974 408.005c-45.113-2.846-58.928 18.902-58.928 18.902V295.32c74.36 21.424 58.928 112.685 58.928 112.685m-117.868 0s-15.424-91.26 58.931-112.685v131.587s-13.822-21.748-58.931-18.902z" style="fill:#f89c22;fill-opacity:1;fill-rule:nonzero;stroke:none" transform="matrix(.79681 0 0 -.79681 -159.53 390.145)"/><path d="M369.055 366.184c-1.7 33.457-34.859 40.774-34.859 40.774v-19.589h-5.442v20.527h-7.484v-20.527h-5.437v19.589s-33.142-7.317-34.84-40.774c0 0-2.507-24.593 22.381-39.048h-7.92v-6.865h23.654v8.249s-31.436 8.894-30.646 35.338c0 0-1.717 21.94 20.38 33.158v-9.52h-6.383v-6.977h6.533v-14.655h6.841v14.655h5.437v-60.403h7.484v60.403h5.442v-14.655h6.853v14.655h6.524v6.976h-6.363v9.52c22.11-11.216 20.37-33.157 20.37-33.157.8-26.444-30.633-35.338-30.633-35.338v-8.25h23.64v6.86h-7.938c24.904 14.46 22.406 39.054 22.406 39.054z" style="fill:#252f81;fill-opacity:1;fill-rule:nonzero;stroke:none" transform="matrix(.79681 0 0 -.79681 -159.53 390.145)"/></svg>