<svg xmlns="http://www.w3.org/2000/svg" width="178.1497mm" height="178.1497mm" viewBox="0 0 178.1497 178.1497"><path d="M0 0c0-37.1-30.074-67.174-67.174-67.174-37.102 0-67.174 30.074-67.174 67.174 0 37.099 30.072 67.174 67.174 67.174C-30.074 67.174 0 37.099 0 0" style="fill:#231f20;fill-opacity:1;fill-rule:nonzero;stroke:none" transform="matrix(1.32603 0 0 -1.32603 178.15 89.075)"/><path d="M0 0c0-26.392-21.39-47.785-47.782-47.785-26.391 0-47.785 21.393-47.785 47.785 0 26.388 21.394 47.782 47.785 47.782C-21.39 47.782 0 26.388 0 0" style="fill:#fff;fill-opacity:1;fill-rule:nonzero;stroke:none" transform="matrix(1.32603 0 0 -1.32603 152.83 88.973)"/><path d="M0 0a1.412 1.412 0 1 0-2.824 0A1.412 1.412 0 0 0 0 0" style="fill:#fff;fill-opacity:1;fill-rule:nonzero;stroke:none" transform="matrix(1.32603 0 0 -1.32603 21.634 57.415)"/><path d="M0 0a1.414 1.414 0 0 0-2.827 0A1.413 1.413 0 0 0 0 0" style="fill:#fff;fill-opacity:1;fill-rule:nonzero;stroke:none" transform="matrix(1.32603 0 0 -1.32603 160.573 57.415)"/><path d="M37.244 150.786h6.317v-11.33h-6.317zM51.13 144.504H44.83v6.274h6.302z" style="fill:#231f20;fill-opacity:1;fill-rule:nonzero;stroke:none;stroke-width:.352778" transform="translate(-91.136 -460.92) scale(3.75883)"/><path d="m0 0-12.632-12.631L-.055-25.206l12.63 12.631z" style="fill:#231f20;fill-opacity:1;fill-rule:nonzero;stroke:none" transform="matrix(1.32603 0 0 -1.32603 117.74 48.61)"/><path d="M0 0h-17.913v-18.328l-7.125-7.275 12.511-12.78 12.511 12.78-.002.005H0Z" style="fill:#231f20;fill-opacity:1;fill-rule:nonzero;stroke:none" transform="matrix(1.32603 0 0 -1.32603 129.603 82.126)"/><path d="M0 0h-.893v.294c0 .143-.018.236-.051.283-.029.045-.089.066-.18.066-.086 0-.149-.03-.184-.083-.042-.055-.064-.14-.064-.253 0-.149.027-.256.075-.324.042-.048.155-.138.344-.264l.037-.024c.214-.139.399-.284.545-.428.118-.114.208-.226.267-.331a.938.938 0 0 0 .134-.298 2.29 2.29 0 0 0 .043-.478c0-.376-.091-.659-.276-.842-.186-.188-.469-.277-.858-.277-.422 0-.728.107-.917.333-.176.205-.268.516-.268.935v.253h.878v-.484c0-.153.018-.256.056-.311.035-.051.102-.075.206-.075.097 0 .167.032.213.097.046.06.072.145.072.259 0 .121-.013.225-.035.309a.492.492 0 0 1-.072.191 3.084 3.084 0 0 1-.505.425l-.196.139c-.246.171-.406.309-.48.411-.11.156-.167.367-.167.638 0 .399.087.688.266.868.175.176.452.264.844.264.423 0 .722-.088.897-.259C-.088.859 0 .565 0 .149Z" style="fill:#231f20;fill-opacity:1;fill-rule:nonzero;stroke:none" transform="matrix(1.32603 0 0 -1.32603 51.926 118.604)"/><path d="M38.785 155.19h-.335v-1.441h.335z" style="fill:#231f20;fill-opacity:1;fill-rule:nonzero;stroke:none;stroke-width:.352778" transform="translate(-91.136 -460.92) scale(3.75883)"/><path d="M0 0v-4.089h-.831l-.703 2.308v-2.308h-.784V0h.784l.75-2.392V0Z" style="fill:#231f20;fill-opacity:1;fill-rule:nonzero;stroke:none" transform="matrix(1.32603 0 0 -1.32603 59.208 116.995)"/><path d="M0 0h-.958V.78c0 .144-.008.241-.022.289-.031.077-.097.118-.195.118-.12 0-.197-.037-.233-.103-.025-.063-.038-.201-.038-.419v-1.923c0-.205.013-.338.038-.399.036-.073.113-.107.228-.107.091 0 .151.032.181.101.028.067.041.215.041.44v.503H0v-.148c0-.51-.073-.886-.22-1.117-.176-.289-.493-.43-.939-.43-.483 0-.818.135-1 .41-.154.221-.228.597-.228 1.119V.319c0 .494.074.856.228 1.087.184.29.509.431.971.431.448 0 .764-.129.945-.385C-.082 1.226 0 .863 0 .369Z" style="fill:#231f20;fill-opacity:1;fill-rule:nonzero;stroke:none" transform="matrix(1.32603 0 0 -1.32603 63.606 119.325)"/><path d="M0 0h1.799v-.788H.943v-.828h.816v-.741H.943v-.947h.926v-.78H0Z" style="fill:#231f20;fill-opacity:1;fill-rule:nonzero;stroke:none" transform="matrix(1.32603 0 0 -1.32603 65.034 116.995)"/><path d="M0 0v-5.39h-1.207v3.064c0 .218-.008.365-.013.442a.602.602 0 0 1-.085.272.42.42 0 0 1-.234.136c-.1.016-.248.028-.452.028h-.09v.584c.293.072.554.182.787.324.229.147.423.329.583.54z" style="fill:#231f20;fill-opacity:1;fill-rule:nonzero;stroke:none" transform="matrix(1.32603 0 0 -1.32603 74.197 115.23)"/><path d="M0 0c0-.208.035-.357.101-.441.05-.065.127-.1.228-.1.121 0 .216.041.274.124.06.08.088.219.088.417v.982c0 .245-.028.411-.083.499-.048.08-.143.122-.279.122-.141 0-.229-.055-.278-.165C.018 1.359 0 1.224 0 1.026Zm0-1.729-.005-.145c-.009-.189 0-.317.023-.389.043-.116.14-.176.282-.176.177 0 .293.065.348.19.034.075.048.206.043.397v1.065a.905.905 0 0 0-.376-.406A1.044 1.044 0 0 0-.2-1.316c-.381 0-.652.144-.813.43-.125.233-.184.564-.184.99V.54c0 .617.093 1.069.282 1.35.23.333.629.497 1.192.497.371 0 .673-.058.898-.171.215-.112.376-.275.485-.492.097-.197.16-.448.193-.756A9.25 9.25 0 0 0 1.89 0v-.745c0-.442-.011-.768-.032-.967-.023-.323-.082-.585-.173-.785a1.1 1.1 0 0 0-.48-.53C.972-3.16.663-3.223.272-3.223c-.519 0-.904.128-1.15.389-.22.246-.331.615-.331 1.105z" style="fill:#231f20;fill-opacity:1;fill-rule:nonzero;stroke:none" transform="matrix(1.32603 0 0 -1.32603 78.32 118.253)"/><path d="M0 0c0 .211-.023.355-.073.439-.05.071-.13.109-.246.109-.138 0-.23-.033-.273-.105C-.645.369-.668.221-.668 0v-.71c0-.228.028-.386.082-.469.047-.07.137-.108.267-.108.128 0 .211.038.253.117.043.078.066.234.066.475Zm-.035 2.264c0 .191-.02.318-.06.382-.045.065-.119.099-.229.099-.131 0-.22-.034-.262-.105-.042-.063-.065-.19-.065-.376v-.412c0-.166.025-.283.07-.354.049-.075.135-.112.257-.112.115 0 .19.033.229.105.04.069.06.203.06.401zM1.121.569c.051-.153.077-.476.077-.976 0-.584-.111-.999-.333-1.254-.237-.273-.631-.41-1.184-.41-.576 0-.979.143-1.224.427-.214.264-.324.695-.324 1.298l-.005.042c0 .379.022.643.067.801a.976.976 0 0 0 .469.6.786.786 0 0 0-.378.387c-.081.172-.121.391-.121.659 0 .472.12.824.36 1.05.25.225.634.336 1.156.336.522 0 .895-.106 1.121-.318.235-.222.355-.587.355-1.101 0-.283-.032-.484-.096-.606-.07-.128-.226-.265-.464-.42.276-.124.449-.294.524-.515" style="fill:#231f20;fill-opacity:1;fill-rule:nonzero;stroke:none" transform="matrix(1.32603 0 0 -1.32603 84.946 119.768)"/><path d="M0 0v-5.39h-1.207v3.064c0 .218-.003.365-.012.442a.6.6 0 0 1-.088.272c-.044.061-.123.106-.233.136a2.882 2.882 0 0 1-.447.028h-.091v.584c.287.072.552.182.786.324.23.147.423.329.581.54z" style="fill:#231f20;fill-opacity:1;fill-rule:nonzero;stroke:none" transform="matrix(1.32603 0 0 -1.32603 91.343 115.23)"/><path d="m0 0-12.09-1.016-.168 1.985 5.716.48-.272 3.254-5.717-.48-.168 1.982L-.605 7.222l.166-1.984-4.841-.406.275-3.255 4.84.407z" style="fill:#fff;fill-opacity:1;fill-rule:nonzero;stroke:none" transform="matrix(1.32603 0 0 -1.32603 21.75 98.303)"/><path d="m0 0-8.314.199-4.093-1.351-.607 1.84 4.096 1.351 6.593 5.012.628-1.909c-.564-.393-1.225-.845-1.977-1.357-.44-.294-1.043-.698-1.805-1.213l-1.227-.829 6.078.166z" style="fill:#fff;fill-opacity:1;fill-rule:nonzero;stroke:none" transform="matrix(1.32603 0 0 -1.32603 25.885 114.277)"/><path d="m0 0 2.712-4.62-1.371-.806-1.719 2.925-3.043-1.79 1.609-2.743-1.302-.766-1.614 2.743-3.363-1.977 1.774-3.022-1.397-.821-2.769 4.716z" style="fill:#fff;fill-opacity:1;fill-rule:nonzero;stroke:none" transform="matrix(1.32603 0 0 -1.32603 28.681 120.057)"/><path d="m0 0-7.45-6.45c-.521-.454-.993-.719-1.415-.803-.514-.101-.969.075-1.365.529l-1.362 1.573 1.216 1.05.575-.683c.241-.281.472-.397.686-.346.149.042.413.228.793.557l.18.156 6.837 5.923z" style="fill:#fff;fill-opacity:1;fill-rule:nonzero;stroke:none" transform="matrix(1.32603 0 0 -1.32603 39.202 135.423)"/><path d="m0 0 4.192-3.336L3.2-4.583.545-2.471l-2.199-2.762 2.492-1.98-.943-1.186-2.49 1.982-2.432-3.055 2.743-2.181-1.009-1.267-4.279 3.404z" style="fill:#fff;fill-opacity:1;fill-rule:nonzero;stroke:none" transform="matrix(1.32603 0 0 -1.32603 44.808 140.58)"/><path d="M0 0c.209.426.259.841.153 1.248-.113.466-.416.82-.913 1.06-.52.253-1.002.269-1.449.051-.366-.172-.647-.463-.846-.874L-5.532-3.62c-.224-.459-.308-.904-.246-1.337.066-.548.367-.952.904-1.215.568-.274 1.081-.265 1.538.031.342.214.635.579.884 1.088zm-.487-5.44c-.526-1.066-1.091-1.799-1.689-2.203-.928-.603-2.058-.577-3.401.072-1.359.663-2.083 1.537-2.174 2.636-.062.702.169 1.596.698 2.684L-5.1 1.771c.485 1.024 1.029 1.724 1.627 2.106.91.59 2.043.557 3.403-.102 1.335-.65 2.056-1.517 2.171-2.604.068-.715-.143-1.578-.633-2.588Z" style="fill:#fff;fill-opacity:1;fill-rule:nonzero;stroke:none" transform="matrix(1.32603 0 0 -1.32603 60.395 155.338)"/><path d="m0 0-2.587-11.866-2.728.595-.314 9.513-1.965-9.017-1.919.417 2.586 11.867L-4.349.95l.435-9.554 1.967 9.03z" style="fill:#fff;fill-opacity:1;fill-rule:nonzero;stroke:none" transform="matrix(1.32603 0 0 -1.32603 80.278 156.986)"/><path d="m0 0-1.923-.399-.319 1.529c-.085.411-.286.715-.605.916-.36.23-.826.285-1.402.165-.555-.115-.949-.369-1.182-.76-.239-.402-.294-.902-.171-1.505l1.147-5.516c.12-.573.371-1.001.751-1.284.392-.289.86-.377 1.397-.266.536.111.92.372 1.147.78.227.417.276.95.139 1.595l-.228 1.096 1.924.401.098-.481c.271-1.291.24-2.309-.091-3.052C.281-7.707-.6-8.31-1.971-8.596c-1.437-.3-2.517-.105-3.254.577-.603.568-1.062 1.607-1.375 3.12l-.722 3.467c-.297 1.418-.283 2.524.04 3.313.4.967 1.28 1.592 2.641 1.876 1.343.279 2.392.136 3.147-.421.628-.457 1.049-1.195 1.264-2.215z" style="fill:#fff;fill-opacity:1;fill-rule:nonzero;stroke:none" transform="matrix(1.32603 0 0 -1.32603 110.13 160.418)"/><path d="M0 0c-.211.425-.507.72-.888.884-.442.197-.909.174-1.401-.07-.52-.254-.83-.624-.931-1.115-.087-.39-.03-.793.171-1.202l2.512-5.09c.228-.458.527-.796.905-1.014.471-.284.977-.294 1.512-.031.569.281.875.691.921 1.232.04.404-.067.859-.316 1.369zm3.996-3.726c.521-1.07.752-1.964.702-2.682-.09-1.102-.807-1.984-2.143-2.643-1.355-.667-2.491-.702-3.411-.1-.597.382-1.159 1.112-1.694 2.196l-1.978 4.013c-.511 1.01-.73 1.87-.665 2.576.093 1.081.814 1.957 2.168 2.623 1.331.656 2.46.696 3.391.119C.971 1.99 1.521 1.293 2.017.288Z" style="fill:#fff;fill-opacity:1;fill-rule:nonzero;stroke:none" transform="matrix(1.32603 0 0 -1.32603 123.535 153.031)"/><path d="m0 0 6.611-8.174 2.378 1.922 1.033-1.277-3.926-3.177-7.643 9.455z" style="fill:#fff;fill-opacity:1;fill-rule:nonzero;stroke:none" transform="matrix(1.32603 0 0 -1.32603 131.695 142.878)"/><path d="m0 0 8.094-6.703 1.952 2.354 1.27-1.047-3.222-3.89-9.362 7.755z" style="fill:#fff;fill-opacity:1;fill-rule:nonzero;stroke:none" transform="matrix(1.32603 0 0 -1.32603 141.167 133.675)"/><path d="m0 0 2.5 4.734 1.41-.741L2.325.994 5.448-.657l1.487 2.818 1.337-.71L6.789-1.36l3.449-1.823 1.638 3.1 1.431-.756-2.553-4.838z" style="fill:#fff;fill-opacity:1;fill-rule:nonzero;stroke:none" transform="matrix(1.32603 0 0 -1.32603 147.589 125.261)"/><path d="m0 0-.495-1.901-1.052.274-.15.038c-.577.149-1.001.181-1.273.099-.462-.161-.8-.638-1.006-1.433-.14-.534-.045-1.007.281-1.419a1.903 1.903 0 0 1 1.039-.675l5.679-1.476c.525-.134.991-.091 1.406.129.422.215.696.569.821 1.054.148.558.073 1.024-.216 1.397-.258.348-.683.598-1.268.749l-1.428.37-.361-1.392-1.567.408.854 3.282 6.127-1.592-.449-1.728-.654-.075c.182-.376.3-.732.357-1.073a3.16 3.16 0 0 0-.075-1.293C6.261-7.449 5.651-8.163 4.745-8.4c-.724-.192-1.802-.1-3.229.272l-3.484.901c-1.468.386-2.48.857-3.032 1.426-.718.748-.897 1.817-.537 3.212.339 1.302.954 2.174 1.842 2.622.823.404 1.889.435 3.197.096z" style="fill:#fff;fill-opacity:1;fill-rule:nonzero;stroke:none" transform="matrix(1.32603 0 0 -1.32603 161.817 104.332)"/><path d="m0 0 .146 5.355 1.591-.042-.091-3.393 3.532-.095.083 3.182 1.513-.041-.085-3.18 3.9-.106.095 3.505 1.617-.046-.146-5.465z" style="fill:#fff;fill-opacity:1;fill-rule:nonzero;stroke:none" transform="matrix(1.32603 0 0 -1.32603 157.735 95.83)"/><path d="m0 0-1.234.629 1.125 2.223-1.532.774-3.84-7.584-9.123 4.624-.685-1.351 9.123-4.624-1.371-2.708 1.531-.776L-1.92-.722l1.233-.623z" style="fill:#fff;fill-opacity:1;fill-rule:nonzero;stroke:none" transform="matrix(1.32603 0 0 -1.32603 131.312 19.157)"/><path d="M0 0c-.879.447-1.208 1.561-.737 2.493.471.929 1.563 1.324 2.445.877.876-.444 1.206-1.558.737-2.487C1.975-.048.877-.444 0 0m-2.299 3.28A3.511 3.511 0 0 1-.751-1.434a3.506 3.506 0 0 1 5.066 3.508l.969-.491.687 1.354-2.786 1.415.595 1.171-1.532.777-.596-1.172-2.819 1.423-.685-1.353.931-.47A3.5 3.5 0 0 1-2.299 3.28" style="fill:#fff;fill-opacity:1;fill-rule:nonzero;stroke:none" transform="matrix(1.32603 0 0 -1.32603 118.362 17.394)"/><path d="M0 0c0-37.1-30.074-67.174-67.174-67.174-37.102 0-67.174 30.074-67.174 67.174 0 37.099 30.072 67.174 67.174 67.174C-30.074 67.174 0 37.099 0 0" style="fill:#00acdf;fill-opacity:1;fill-rule:nonzero;stroke:none" transform="matrix(1.32603 0 0 -1.32603 178.15 89.075)"/><path d="M0 0c0-26.392-21.39-47.785-47.782-47.785-26.391 0-47.785 21.393-47.785 47.785 0 26.388 21.394 47.782 47.785 47.782C-21.39 47.782 0 26.388 0 0" style="fill:#fff;fill-opacity:1;fill-rule:nonzero;stroke:none" transform="matrix(1.32603 0 0 -1.32603 152.83 88.973)"/><path d="M0 0a1.412 1.412 0 1 0-2.824 0A1.412 1.412 0 0 0 0 0" style="fill:#fff;fill-opacity:1;fill-rule:nonzero;stroke:none" transform="matrix(1.32603 0 0 -1.32603 21.634 57.415)"/><path d="M0 0a1.414 1.414 0 0 0-2.827 0A1.413 1.413 0 0 0 0 0" style="fill:#fff;fill-opacity:1;fill-rule:nonzero;stroke:none" transform="matrix(1.32603 0 0 -1.32603 160.573 57.415)"/><path d="M37.244 150.786h6.317v-11.33h-6.317zM51.13 144.504H44.83v6.274h6.302z" style="fill:#2056ae;fill-opacity:1;fill-rule:nonzero;stroke:none;stroke-width:.352778" transform="translate(-91.136 -460.92) scale(3.75883)"/><path d="m0 0-12.632-12.631L-.055-25.206l12.63 12.631z" style="fill:#e42426;fill-opacity:1;fill-rule:nonzero;stroke:none" transform="matrix(1.32603 0 0 -1.32603 117.74 48.61)"/><path d="M0 0h-17.913v-18.328l-7.125-7.275 12.511-12.78 12.511 12.78-.002.005H0Z" style="fill:#2056ae;fill-opacity:1;fill-rule:nonzero;stroke:none" transform="matrix(1.32603 0 0 -1.32603 129.603 82.126)"/><path d="M0 0h-.893v.294c0 .143-.018.236-.051.283-.029.045-.089.066-.18.066-.086 0-.149-.03-.184-.083-.042-.055-.064-.14-.064-.253 0-.149.027-.256.075-.324.042-.048.155-.138.344-.264l.037-.024c.214-.139.399-.284.545-.428.118-.114.208-.226.267-.331a.938.938 0 0 0 .134-.298 2.29 2.29 0 0 0 .043-.478c0-.376-.091-.659-.276-.842-.186-.188-.469-.277-.858-.277-.422 0-.728.107-.917.333-.176.205-.268.516-.268.935v.253h.878v-.484c0-.153.018-.256.056-.311.035-.051.102-.075.206-.075.097 0 .167.032.213.097.046.06.072.145.072.259 0 .121-.013.225-.035.309a.492.492 0 0 1-.072.191 3.084 3.084 0 0 1-.505.425l-.196.139c-.246.171-.406.309-.48.411-.11.156-.167.367-.167.638 0 .399.087.688.266.868.175.176.452.264.844.264.423 0 .722-.088.897-.259C-.088.859 0 .565 0 .149Z" style="fill:#231f20;fill-opacity:1;fill-rule:nonzero;stroke:none" transform="matrix(1.32603 0 0 -1.32603 51.926 118.604)"/><path d="M38.785 155.19h-.335v-1.441h.335z" style="fill:#231f20;fill-opacity:1;fill-rule:nonzero;stroke:none;stroke-width:.352778" transform="translate(-91.136 -460.92) scale(3.75883)"/><path d="M0 0v-4.089h-.831l-.703 2.308v-2.308h-.784V0h.784l.75-2.392V0Z" style="fill:#231f20;fill-opacity:1;fill-rule:nonzero;stroke:none" transform="matrix(1.32603 0 0 -1.32603 59.208 116.995)"/><path d="M0 0h-.958V.78c0 .144-.008.241-.022.289-.031.077-.097.118-.195.118-.12 0-.197-.037-.233-.103-.025-.063-.038-.201-.038-.419v-1.923c0-.205.013-.338.038-.399.036-.073.113-.107.228-.107.091 0 .151.032.181.101.028.067.041.215.041.44v.503H0v-.148c0-.51-.073-.886-.22-1.117-.176-.289-.493-.43-.939-.43-.483 0-.818.135-1 .41-.154.221-.228.597-.228 1.119V.319c0 .494.074.856.228 1.087.184.29.509.431.971.431.448 0 .764-.129.945-.385C-.082 1.226 0 .863 0 .369Z" style="fill:#231f20;fill-opacity:1;fill-rule:nonzero;stroke:none" transform="matrix(1.32603 0 0 -1.32603 63.606 119.325)"/><path d="M0 0h1.799v-.788H.943v-.828h.816v-.741H.943v-.947h.926v-.78H0Z" style="fill:#231f20;fill-opacity:1;fill-rule:nonzero;stroke:none" transform="matrix(1.32603 0 0 -1.32603 65.034 116.995)"/><path d="M0 0v-5.39h-1.207v3.064c0 .218-.008.365-.013.442a.602.602 0 0 1-.085.272.42.42 0 0 1-.234.136c-.1.016-.248.028-.452.028h-.09v.584c.293.072.554.182.787.324.229.147.423.329.583.54z" style="fill:#231f20;fill-opacity:1;fill-rule:nonzero;stroke:none" transform="matrix(1.32603 0 0 -1.32603 74.197 115.23)"/><path d="M0 0c0-.208.035-.357.101-.441.05-.065.127-.1.228-.1.121 0 .216.041.274.124.06.08.088.219.088.417v.982c0 .245-.028.411-.083.499-.048.08-.143.122-.279.122-.141 0-.229-.055-.278-.165C.018 1.359 0 1.224 0 1.026Zm0-1.729-.005-.145c-.009-.189 0-.317.023-.389.043-.116.14-.176.282-.176.177 0 .293.065.348.19.034.075.048.206.043.397v1.065a.905.905 0 0 0-.376-.406A1.044 1.044 0 0 0-.2-1.316c-.381 0-.652.144-.813.43-.125.233-.184.564-.184.99V.54c0 .617.093 1.069.282 1.35.23.333.629.497 1.192.497.371 0 .673-.058.898-.171.215-.112.376-.275.485-.492.097-.197.16-.448.193-.756A9.25 9.25 0 0 0 1.89 0v-.745c0-.442-.011-.768-.032-.967-.023-.323-.082-.585-.173-.785a1.1 1.1 0 0 0-.48-.53C.972-3.16.663-3.223.272-3.223c-.519 0-.904.128-1.15.389-.22.246-.331.615-.331 1.105z" style="fill:#231f20;fill-opacity:1;fill-rule:nonzero;stroke:none" transform="matrix(1.32603 0 0 -1.32603 78.32 118.253)"/><path d="M0 0c0 .211-.023.355-.073.439-.05.071-.13.109-.246.109-.138 0-.23-.033-.273-.105C-.645.369-.668.221-.668 0v-.71c0-.228.028-.386.082-.469.047-.07.137-.108.267-.108.128 0 .211.038.253.117.043.078.066.234.066.475Zm-.035 2.264c0 .191-.02.318-.06.382-.045.065-.119.099-.229.099-.131 0-.22-.034-.262-.105-.042-.063-.065-.19-.065-.376v-.412c0-.166.025-.283.07-.354.049-.075.135-.112.257-.112.115 0 .19.033.229.105.04.069.06.203.06.401zM1.121.569c.051-.153.077-.476.077-.976 0-.584-.111-.999-.333-1.254-.237-.273-.631-.41-1.184-.41-.576 0-.979.143-1.224.427-.214.264-.324.695-.324 1.298l-.005.042c0 .379.022.643.067.801a.976.976 0 0 0 .469.6.786.786 0 0 0-.378.387c-.081.172-.121.391-.121.659 0 .472.12.824.36 1.05.25.225.634.336 1.156.336.522 0 .895-.106 1.121-.318.235-.222.355-.587.355-1.101 0-.283-.032-.484-.096-.606-.07-.128-.226-.265-.464-.42.276-.124.449-.294.524-.515" style="fill:#231f20;fill-opacity:1;fill-rule:nonzero;stroke:none" transform="matrix(1.32603 0 0 -1.32603 84.946 119.768)"/><path d="M0 0v-5.39h-1.207v3.064c0 .218-.003.365-.012.442a.6.6 0 0 1-.088.272c-.044.061-.123.106-.233.136a2.882 2.882 0 0 1-.447.028h-.091v.584c.287.072.552.182.786.324.23.147.423.329.581.54z" style="fill:#231f20;fill-opacity:1;fill-rule:nonzero;stroke:none" transform="matrix(1.32603 0 0 -1.32603 91.343 115.23)"/><path d="m0 0-12.09-1.016-.168 1.985 5.716.48-.272 3.254-5.717-.48-.168 1.982L-.605 7.222l.166-1.984-4.841-.406.275-3.255 4.84.407z" style="fill:#fff;fill-opacity:1;fill-rule:nonzero;stroke:none" transform="matrix(1.32603 0 0 -1.32603 21.75 98.303)"/><path d="m0 0-8.314.199-4.093-1.351-.607 1.84 4.096 1.351 6.593 5.012.628-1.909c-.564-.393-1.225-.845-1.977-1.357-.44-.294-1.043-.698-1.805-1.213l-1.227-.829 6.078.166z" style="fill:#fff;fill-opacity:1;fill-rule:nonzero;stroke:none" transform="matrix(1.32603 0 0 -1.32603 25.885 114.277)"/><path d="m0 0 2.712-4.62-1.371-.806-1.719 2.925-3.043-1.79 1.609-2.743-1.302-.766-1.614 2.743-3.363-1.977 1.774-3.022-1.397-.821-2.769 4.716z" style="fill:#fff;fill-opacity:1;fill-rule:nonzero;stroke:none" transform="matrix(1.32603 0 0 -1.32603 28.681 120.057)"/><path d="m0 0-7.45-6.45c-.521-.454-.993-.719-1.415-.803-.514-.101-.969.075-1.365.529l-1.362 1.573 1.216 1.05.575-.683c.241-.281.472-.397.686-.346.149.042.413.228.793.557l.18.156 6.837 5.923z" style="fill:#fff;fill-opacity:1;fill-rule:nonzero;stroke:none" transform="matrix(1.32603 0 0 -1.32603 39.202 135.423)"/><path d="m0 0 4.192-3.336L3.2-4.583.545-2.471l-2.199-2.762 2.492-1.98-.943-1.186-2.49 1.982-2.432-3.055 2.743-2.181-1.009-1.267-4.279 3.404z" style="fill:#fff;fill-opacity:1;fill-rule:nonzero;stroke:none" transform="matrix(1.32603 0 0 -1.32603 44.808 140.58)"/><path d="M0 0c.209.426.259.841.153 1.248-.113.466-.416.82-.913 1.06-.52.253-1.002.269-1.449.051-.366-.172-.647-.463-.846-.874L-5.532-3.62c-.224-.459-.308-.904-.246-1.337.066-.548.367-.952.904-1.215.568-.274 1.081-.265 1.538.031.342.214.635.579.884 1.088zm-.487-5.44c-.526-1.066-1.091-1.799-1.689-2.203-.928-.603-2.058-.577-3.401.072-1.359.663-2.083 1.537-2.174 2.636-.062.702.169 1.596.698 2.684L-5.1 1.771c.485 1.024 1.029 1.724 1.627 2.106.91.59 2.043.557 3.403-.102 1.335-.65 2.056-1.517 2.171-2.604.068-.715-.143-1.578-.633-2.588Z" style="fill:#fff;fill-opacity:1;fill-rule:nonzero;stroke:none" transform="matrix(1.32603 0 0 -1.32603 60.395 155.338)"/><path d="m0 0-2.587-11.866-2.728.595-.314 9.513-1.965-9.017-1.919.417 2.586 11.867L-4.349.95l.435-9.554 1.967 9.03z" style="fill:#fff;fill-opacity:1;fill-rule:nonzero;stroke:none" transform="matrix(1.32603 0 0 -1.32603 80.278 156.986)"/><path d="m0 0-1.923-.399-.319 1.529c-.085.411-.286.715-.605.916-.36.23-.826.285-1.402.165-.555-.115-.949-.369-1.182-.76-.239-.402-.294-.902-.171-1.505l1.147-5.516c.12-.573.371-1.001.751-1.284.392-.289.86-.377 1.397-.266.536.111.92.372 1.147.78.227.417.276.95.139 1.595l-.228 1.096 1.924.401.098-.481c.271-1.291.24-2.309-.091-3.052C.281-7.707-.6-8.31-1.971-8.596c-1.437-.3-2.517-.105-3.254.577-.603.568-1.062 1.607-1.375 3.12l-.722 3.467c-.297 1.418-.283 2.524.04 3.313.4.967 1.28 1.592 2.641 1.876 1.343.279 2.392.136 3.147-.421.628-.457 1.049-1.195 1.264-2.215z" style="fill:#fff;fill-opacity:1;fill-rule:nonzero;stroke:none" transform="matrix(1.32603 0 0 -1.32603 110.13 160.418)"/><path d="M0 0c-.211.425-.507.72-.888.884-.442.197-.909.174-1.401-.07-.52-.254-.83-.624-.931-1.115-.087-.39-.03-.793.171-1.202l2.512-5.09c.228-.458.527-.796.905-1.014.471-.284.977-.294 1.512-.031.569.281.875.691.921 1.232.04.404-.067.859-.316 1.369zm3.996-3.726c.521-1.07.752-1.964.702-2.682-.09-1.102-.807-1.984-2.143-2.643-1.355-.667-2.491-.702-3.411-.1-.597.382-1.159 1.112-1.694 2.196l-1.978 4.013c-.511 1.01-.73 1.87-.665 2.576.093 1.081.814 1.957 2.168 2.623 1.331.656 2.46.696 3.391.119C.971 1.99 1.521 1.293 2.017.288Z" style="fill:#fff;fill-opacity:1;fill-rule:nonzero;stroke:none" transform="matrix(1.32603 0 0 -1.32603 123.535 153.031)"/><path d="m0 0 6.611-8.174 2.378 1.922 1.033-1.277-3.926-3.177-7.643 9.455z" style="fill:#fff;fill-opacity:1;fill-rule:nonzero;stroke:none" transform="matrix(1.32603 0 0 -1.32603 131.695 142.878)"/><path d="m0 0 8.094-6.703 1.952 2.354 1.27-1.047-3.222-3.89-9.362 7.755z" style="fill:#fff;fill-opacity:1;fill-rule:nonzero;stroke:none" transform="matrix(1.32603 0 0 -1.32603 141.167 133.675)"/><path d="m0 0 2.5 4.734 1.41-.741L2.325.994 5.448-.657l1.487 2.818 1.337-.71L6.789-1.36l3.449-1.823 1.638 3.1 1.431-.756-2.553-4.838z" style="fill:#fff;fill-opacity:1;fill-rule:nonzero;stroke:none" transform="matrix(1.32603 0 0 -1.32603 147.589 125.261)"/><path d="m0 0-.495-1.901-1.052.274-.15.038c-.577.149-1.001.181-1.273.099-.462-.161-.8-.638-1.006-1.433-.14-.534-.045-1.007.281-1.419a1.903 1.903 0 0 1 1.039-.675l5.679-1.476c.525-.134.991-.091 1.406.129.422.215.696.569.821 1.054.148.558.073 1.024-.216 1.397-.258.348-.683.598-1.268.749l-1.428.37-.361-1.392-1.567.408.854 3.282 6.127-1.592-.449-1.728-.654-.075c.182-.376.3-.732.357-1.073a3.16 3.16 0 0 0-.075-1.293C6.261-7.449 5.651-8.163 4.745-8.4c-.724-.192-1.802-.1-3.229.272l-3.484.901c-1.468.386-2.48.857-3.032 1.426-.718.748-.897 1.817-.537 3.212.339 1.302.954 2.174 1.842 2.622.823.404 1.889.435 3.197.096z" style="fill:#fff;fill-opacity:1;fill-rule:nonzero;stroke:none" transform="matrix(1.32603 0 0 -1.32603 161.817 104.332)"/><path d="m0 0 .146 5.355 1.591-.042-.091-3.393 3.532-.095.083 3.182 1.513-.041-.085-3.18 3.9-.106.095 3.505 1.617-.046-.146-5.465z" style="fill:#fff;fill-opacity:1;fill-rule:nonzero;stroke:none" transform="matrix(1.32603 0 0 -1.32603 157.735 95.83)"/><path d="m0 0-.038-2.471-.778.01.04 2.472-1.719.03-.098-6.176-6.099.095.066 4.282 5.099-.079.023 1.516-5.098.08v.002l-1.719.028-.088-5.803h-.004l-.021-1.515 7.818-.12-.084-5.345 1.72-.025.141 9.043.776-.011-.139-9.045 1.717-.027.202 13.035z" style="fill:#fff;fill-opacity:1;fill-rule:nonzero;stroke:none" transform="matrix(1.32603 0 0 -1.32603 94.894 4.673)"/><path d="m0 0 9.653-8.793 1.157 1.272-9.655 8.788Z" style="fill:#fff;fill-opacity:1;fill-rule:nonzero;stroke:none" transform="matrix(1.32603 0 0 -1.32603 31.097 28.287)"/><path d="M0 0c-.12.17-.258.33-.407.481l.985 1.083.463-.419Zm-1.468-3.257c-.663-.727-1.826-.748-2.596-.046-.771.7-.86 1.861-.198 2.588.663.73 1.825.751 2.6.048.771-.7.859-1.862.194-2.59m.926 5.842-1.164-1.282a3.492 3.492 0 0 1-.645.159l.745.821-1.12 1.019L-4.835.983l-.958.872-1.156-1.27.956-.87-2.122-2.332 1.122-1.018.716.785A3.503 3.503 0 0 1 .602-1.59L2.163.124 7.271-4.53l1.162 1.27-9.657 8.792-1.155-1.273Z" style="fill:#fff;fill-opacity:1;fill-rule:nonzero;stroke:none" transform="matrix(1.32603 0 0 -1.32603 32.025 36.384)"/><path d="m0 0-1.234.629 1.125 2.223-1.532.774-3.84-7.584-9.123 4.624-.685-1.351 9.123-4.624-1.371-2.708 1.531-.776L-1.92-.722l1.233-.623z" style="fill:#fff;fill-opacity:1;fill-rule:nonzero;stroke:none" transform="matrix(1.32603 0 0 -1.32603 131.312 19.157)"/><path d="M0 0c-.879.447-1.208 1.561-.737 2.493.471.929 1.563 1.324 2.445.877.876-.444 1.206-1.558.737-2.487C1.975-.048.877-.444 0 0m-2.299 3.28A3.511 3.511 0 0 1-.751-1.434a3.506 3.506 0 0 1 5.066 3.508l.969-.491.687 1.354-2.786 1.415.595 1.171-1.532.777-.596-1.172-2.819 1.423-.685-1.353.931-.47A3.5 3.5 0 0 1-2.299 3.28" style="fill:#fff;fill-opacity:1;fill-rule:nonzero;stroke:none" transform="matrix(1.32603 0 0 -1.32603 118.362 17.394)"/><path d="m0 0 1.003-2.279-1.999-.877.611-1.39 1.998.881 3.035-6.895-7.442-3.275-1.373 3.121-1.573-.694 1.987-4.509 1.569.692-.002.004 7.446 3.273v-.003l1.574.694L1.574.692z" style="fill:#fff;fill-opacity:1;fill-rule:nonzero;stroke:none" transform="matrix(1.32603 0 0 -1.32603 59.951 8.754)"/><path d="M0 0c2.42-1.843 4.929-.889 4.929-.889L4.282.582C1.465-.54-.349 2.944-.349 2.944l-.037.085 3.031 1.333-.612 1.387-7.59-3.34.612-1.391 2.977 1.315.036-.086s1.345-3.689-1.384-5.009l.646-1.471S-.271-3.027 0 0" style="fill:#fff;fill-opacity:1;fill-rule:nonzero;stroke:none" transform="matrix(1.32603 0 0 -1.32603 54.96 18.042)"/><path d="m0 0 1.132-1.211 6.455 6.028-.004.005.009.007L.201 12.74l-1.069-.999 6.263-6.702Z" style="fill:#fff;fill-opacity:1;fill-rule:nonzero;stroke:none" transform="matrix(1.32603 0 0 -1.32603 146.015 43.285)"/><path d="m0 0 3.883 3.628-1.133 1.21-3.882-3.627-1.583 1.695 3.883 3.627L.036 7.745l-3.883-3.627-1.683 1.801-1.068-.998 8.183-8.76 1.069.998z" style="fill:#fff;fill-opacity:1;fill-rule:nonzero;stroke:none" transform="matrix(1.32603 0 0 -1.32603 143.073 43.099)"/></svg>