<svg xmlns="http://www.w3.org/2000/svg" xml:space="preserve" width="462.36084" height="167.86789" viewBox="0 0 462.36084 167.86789"><path d="M0 0h-5.059v10.757h-8.695V0h-5.059v25.942h5.059V15.346h8.695v10.596H0Z" style="fill:#0a579f;fill-opacity:1;fill-rule:nonzero;stroke:none" transform="matrix(2.58391 0 0 -2.58391 48.611 134.475)"/><path d="M0 0h-6.798v-21.355h-5.059V0h-6.797v4.587H0Z" style="fill:#0a579f;fill-opacity:1;fill-rule:nonzero;stroke:none" transform="matrix(2.58391 0 0 -2.58391 107.435 79.296)"/><path d="M0 0c0-2.374-.948-4.43-2.688-5.854C-4.426-7.119-6.797-7.91-9.644-7.91c-2.055 0-3.794.316-5.217.791-1.581.633-3.004 1.424-4.11 2.689l3.16 3.321c.792-.789 1.741-1.422 2.847-1.739.949-.316 2.214-.474 3.479-.474 3.004 0 4.584 1.106 4.584 3.164 0 .949-.317 1.738-.79 2.215-.317.156-.633.474-.949.632-.316.159-.791.159-1.422.315l-3.163.475c-2.055.316-3.794.949-4.9 2.056-1.265 1.266-1.898 3.006-1.898 5.065 0 2.371.791 4.269 2.371 5.692 1.582 1.425 3.795 2.214 6.641 2.214 1.897 0 3.32-.316 4.743-.632a10.3 10.3 0 0 0 3.637-2.372l-3.164-3.164c-.79.633-1.58 1.105-2.529 1.423-.948.158-1.896.317-2.845.317-1.266 0-2.213-.317-3.004-.949-.633-.475-.95-1.266-.95-2.374 0-.316 0-.632.159-.948.158-.317.317-.633.632-.791.475-.633 1.265-.95 2.372-1.106l3.004-.318c2.213-.317 3.795-1.108 4.902-2.057.789-.631 1.265-1.422 1.581-2.372C-.158 2.213 0 1.266 0 0" style="fill:#0a579f;fill-opacity:1;fill-rule:nonzero;stroke:none" transform="matrix(2.58391 0 0 -2.58391 209.97 114.853)"/><path d="M0 0c0-2.057-.632-3.637-1.897-4.902-1.422-1.108-3.004-1.743-5.059-1.743-2.056 0-3.794.635-5.06 1.743C-13.439-3.637-14.07-2.057-14.07 0v12.655h3.795V.158c0-1.107.315-1.898.789-2.531.632-.631 1.423-.947 2.53-.947.949 0 1.739.316 2.371.947.632.475.949 1.424.949 2.531v12.497H0Z" style="fill:#e56328;fill-opacity:1;fill-rule:nonzero;stroke:none" transform="matrix(2.58391 0 0 -2.58391 154.414 100.142)"/><path d="M0 0c-1.265 0-2.214.476-3.003 1.265-.791.791-1.107 1.742-1.107 3.006 0 1.267.316 2.214 1.107 3.005.789.792 1.738 1.266 3.003 1.266h8.063V7.276H0c-.949 0-1.581-.316-2.214-.791-.473-.631-.789-1.264-.789-2.214 0-.79.316-1.582.789-2.056.633-.633 1.265-.95 2.214-.95h8.063V0Z" style="fill:#e56328;fill-opacity:1;fill-rule:nonzero;stroke:none" transform="matrix(2.58391 0 0 -2.58391 102.943 58.86)"/><path d="M0 0c1.265 0 2.214-.474 3.005-1.266.631-.791 1.106-1.738 1.106-3.005 0-1.265-.475-2.216-1.106-3.006C2.214-8.067 1.106-8.542 0-8.542h-8.22v1.265h8.061c.95 0 1.741.316 2.215.949.632.475.949 1.109.949 2.057 0 .949-.317 1.583-.949 2.214-.474.475-1.265.791-2.215.791H-8.22V0Z" style="fill:#e56328;fill-opacity:1;fill-rule:nonzero;stroke:none" transform="matrix(2.58391 0 0 -2.58391 169.936 36.787)"/><path d="M0 0c0 1.267.315 2.216 1.106 3.006.95.791 1.897 1.108 3.163 1.108 1.264 0 2.213-.317 3.003-1.108.791-.79 1.265-1.739 1.265-3.006v-8.224H7.113v8.066c0 .95-.157 1.74-.789 2.216-.475.631-1.265.948-2.055.948-.949 0-1.581-.317-2.213-.948-.476-.476-.791-1.266-.791-2.216v-8.066H0Z" style="fill:#e56328;fill-opacity:1;fill-rule:nonzero;stroke:none" transform="matrix(2.58391 0 0 -2.58391 125.41 10.63)"/><path d="M0 0c-.581.182-1.24.272-1.979.272-.739 0-1.401-.09-1.987-.272-.585-.183-.878-.45-.878-.806 0-.343.293-.609.878-.797.586-.187 1.248-.281 1.987-.281.739 0 1.398.094 1.979.281.581.188.871.454.871.797C.871-.45.581-.183 0 0m-4.903 5.767h5.79v-1.24h-5.79zm-2.555-2.348H3.485V2.208H-7.458Zm-1.02-9.068v1.24h5.717v1.388c-1.113.08-2.016.311-2.711.695-.693.384-1.041.89-1.041 1.52 0 .7.428 1.248 1.285 1.648.857.398 1.939.597 3.249.597 1.32 0 2.406-.204 3.257-.612C2.13.418 2.556-.126 2.556-.806c0-.63-.347-1.136-1.042-1.52-.694-.384-1.597-.615-2.709-.695v-1.388H4.52v-1.24z" style="fill:#231916;fill-opacity:1;fill-rule:nonzero;stroke:none" transform="matrix(2.58391 0 0 -2.58391 249.191 115.108)"/><path d="M0 0h1.477v-2.806h1.846v-1.24H1.477v-3.19H0Zm-.03-9.098h-6.011v-2.51H-.03zm1.507-3.751h-9.023v4.992h9.023zM-1.02-5.744a25.403 25.403 0 0 0-1.912-.295 25.892 25.892 0 0 0-2.755-.193l-3.219-.03v5.716h1.477v-4.475l1.757.03c.876.019 1.745.076 2.608.17.86.092 1.543.188 2.044.288z" style="fill:#231916;fill-opacity:1;fill-rule:nonzero;stroke:none" transform="matrix(2.58391 0 0 -2.58391 286.133 99.254)"/><path d="M244.446 297.229h1.477v-9.407h-1.477zm-7.828-12.701v4.047h1.478v-2.805h8.093v-1.242zm5.347 5.112c-.64.285-1.31.747-2.008 1.387-.7.64-1.177 1.26-1.434 1.861-.246-.709-.681-1.376-1.306-2a8.277 8.277 0 0 0-2.135-1.545l-1.033.961c1.792.846 2.857 1.831 3.197 2.953.34 1.123.51 1.974.51 2.555v1.064h1.551v-1.064c0-.581.204-1.411.613-2.489.408-1.078 1.405-1.957 2.99-2.635z" style="fill:#231916;fill-opacity:1;fill-rule:nonzero;stroke:none" transform="matrix(2.58391 0 0 -2.58391 -310.12 867.268)"/><path d="M0 0h-1.846v-3.426h-1.463v8.27h1.463V1.285H0Zm-6.749-.989c0 .315-.16.565-.48.753-.32.187-.805.281-1.455.281s-1.139-.097-1.469-.289c-.33-.192-.494-.445-.494-.76s.164-.574.494-.775c.33-.202.819-.303 1.469-.303.65 0 1.135.103 1.455.311.32.206.48.466.48.782m.206 4.755h-4.327v1.138h4.327zm4.712-11.918h-1.506v2.761h-8.094v1.167h9.6zM-8.714-3.16c-1.062 0-1.917.207-2.561.62-.646.413-.968.925-.968 1.536 0 .609.322 1.117.968 1.522.644.402 1.508.605 2.591.605 1.122 0 1.989-.203 2.599-.605.611-.405.916-.913.916-1.522 0-.611-.31-1.123-.931-1.536-.62-.413-1.491-.62-2.614-.62m4.121 4.932h-8.226V2.91h8.226z" style="fill:#231916;fill-opacity:1;fill-rule:nonzero;stroke:none" transform="matrix(2.58391 0 0 -2.58391 362.303 111.77)"/><path d="M0 0h-1.433v6.749h-1.669V.591h-1.432v12.11h1.432V8.094h1.669v4.902H0Zm-5.302 3.102a12.338 12.338 0 0 0-1.019-.119 32.494 32.494 0 0 0-1.92-.088l-2.599-.03v8.536h4.638v-1.269h-3.176V4.18l1.683.014c.464.01.919.033 1.367.067.447.034.789.071 1.026.11z" style="fill:#231916;fill-opacity:1;fill-rule:nonzero;stroke:none" transform="matrix(2.58391 0 0 -2.58391 392.565 132.835)"/><path d="M0 0h-1.846v-3.426h-1.463v8.27h1.463V1.285H0Zm-6.75-.989c0 .315-.159.565-.479.753-.32.187-.805.281-1.455.281s-1.14-.097-1.469-.289c-.33-.192-.495-.445-.495-.76s.165-.574.495-.775c.329-.202.819-.303 1.469-.303.65 0 1.135.103 1.455.311.32.206.479.466.479.782m.207 4.755h-4.327v1.138h4.327zm4.712-11.918h-1.507v2.761h-8.094v1.167h9.601zM-8.714-3.16c-1.062 0-1.917.207-2.562.62-.645.413-.967.925-.967 1.536 0 .609.322 1.117.967 1.522.645.402 1.508.605 2.592.605 1.122 0 1.989-.203 2.599-.605.61-.405.916-.913.916-1.522 0-.611-.31-1.123-.931-1.536-.62-.413-1.491-.62-2.614-.62m4.12 4.932h-8.226V2.91h8.226z" style="fill:#231916;fill-opacity:1;fill-rule:nonzero;stroke:none" transform="matrix(2.58391 0 0 -2.58391 429.467 111.77)"/><path d="M0 0a41.533 41.533 0 0 0-.612-3.759h-1.449c.02.089.141.8.363 2.134.22 1.334.342 2.508.361 3.522h-8.625v1.255H.288C.269 2.473.172 1.422 0 0m-11.335-6.684v1.241h3.042v4.461h1.491v-4.461h1.936v4.461h1.491v-4.461h5.036v-1.241z" style="fill:#231916;fill-opacity:1;fill-rule:nonzero;stroke:none" transform="matrix(2.58391 0 0 -2.58391 458.069 111.139)"/><path d="M0 0v2.822h-3.083V.018h-.567v5.873h.558l.009-2.514H0l-.008 2.514h.582v-5.9z" style="fill:#898989;fill-opacity:1;fill-rule:nonzero;stroke:none" transform="matrix(2.58391 0 0 -2.58391 65.649 163.766)"/><path d="M0 0c.249.335.374.753.374 1.253 0 .506-.125.922-.374 1.252a1.174 1.174 0 0 1-.98.494c-.405 0-.729-.166-.976-.494-.246-.33-.369-.746-.369-1.252 0-.5.123-.918.369-1.253.247-.335.571-.503.976-.503S-.249-.335 0 0m.456 2.894c.35-.436.524-.983.524-1.641C.98.6.806.052.456-.392c-.35-.444-.829-.666-1.436-.666-.606 0-1.084.222-1.431.666-.347.444-.521.992-.521 1.645 0 .658.174 1.205.521 1.641.347.433.825.651 1.431.651.607 0 1.086-.218 1.436-.651" style="fill:#898989;fill-opacity:1;fill-rule:nonzero;stroke:none" transform="matrix(2.58391 0 0 -2.58391 77.145 161.442)"/><path d="m0 0 .008 2.682c0 .375-.091.66-.275.854-.183.194-.436.292-.758.292-.361 0-.662-.131-.903-.389-.24-.258-.36-.538-.36-.837V0h-.566v4.269h.566v-.521c.158.193.362.363.611.507.248.143.559.202.93.172.422-.024.748-.193.98-.507.233-.315.349-.66.349-1.036V0Z" style="fill:#898989;fill-opacity:1;fill-rule:nonzero;stroke:none" transform="matrix(2.58391 0 0 -2.58391 89.512 163.72)"/><path d="M0 0a.764.764 0 0 0-.197-.114 1.36 1.36 0 0 0-.238-.08 6.404 6.404 0 0 0-.701-.115 5.855 5.855 0 0 1-.619-.096c-.268-.077-.467-.19-.595-.336a.713.713 0 0 1-.176-.53.6.6 0 0 1 .328-.523c.202-.109.443-.152.722-.129.371.029.71.166 1.017.41.306.244.459.492.459.745Zm.131-2.311a1.181 1.181 0 0 0-.086.278c-.024.12-.04.239-.045.357a2.395 2.395 0 0 0-.627-.499 1.993 1.993 0 0 0-.915-.267c-.416-.024-.771.055-1.066.237-.295.183-.462.462-.5.838-.039.382.038.682.229.899.191.217.429.373.713.468.241.076.499.124.775.146.277.02.532.05.768.092.125.03.261.075.406.136.144.063.217.185.217.367 0 .217-.093.418-.279.604-.186.185-.473.277-.861.277-.367 0-.656-.083-.869-.251a.762.762 0 0 1-.304-.666h-.558c-.038.441.118.794.468 1.059.349.264.771.396 1.263.396.47 0 .877-.126 1.222-.379.344-.253.517-.605.517-1.057v-2.321c0-.175.019-.336.057-.48a3.23 3.23 0 0 1 .066-.234z" style="fill:#898989;fill-opacity:1;fill-rule:nonzero;stroke:none" transform="matrix(2.58391 0 0 -2.58391 101.104 157.818)"/><path d="m0 0-.008 2.752c0 .346-.056.621-.168.824-.112.203-.319.299-.619.287a.903.903 0 0 1-.714-.34c-.18-.22-.271-.503-.271-.851V0h-.566l-.008 2.752c0 .346-.057.621-.172.824-.115.203-.323.299-.623.287a.891.891 0 0 1-.714-.353 1.314 1.314 0 0 1-.27-.838V0H-4.7v4.269h.567v-.494c.125.182.286.34.483.476.197.135.448.193.754.176a.985.985 0 0 0 .596-.225c.166-.138.288-.307.364-.507.077.118.225.277.443.477.219.199.534.285.944.255.393-.024.677-.189.853-.493.175-.307.262-.642.262-1.006V0Z" style="fill:#898989;fill-opacity:1;fill-rule:nonzero;stroke:none" transform="matrix(2.58391 0 0 -2.58391 117.698 163.72)"/><path d="M0 0v-5.371h-.59L-.583 0h-1.861v.537H1.87V0Z" style="fill:#898989;fill-opacity:1;fill-rule:nonzero;stroke:none" transform="matrix(2.58391 0 0 -2.58391 136.941 149.933)"/><path d="m0 0 .008 2.682c0 .375-.091.66-.275.854-.183.194-.436.292-.758.292-.361 0-.662-.131-.903-.389-.24-.258-.36-.526-.36-.802V-.009L-2.854 0v5.883h.558l.008-2.135c.158.189.36.356.607.503.246.147.557.206.934.176.422-.024.748-.193.98-.507.233-.315.349-.66.349-1.036V-.009z" style="fill:#898989;fill-opacity:1;fill-rule:nonzero;stroke:none" transform="matrix(2.58391 0 0 -2.58391 151.161 163.72)"/><path d="M0 0c-.016.417-.153.757-.41 1.018a1.254 1.254 0 0 1-.926.392c-.356 0-.66-.129-.911-.388C-2.499.764-2.638.423-2.665 0Zm-2.682-.512c.011-.47.156-.853.435-1.146.279-.295.582-.442.911-.442.344 0 .61.082.799.247.188.165.313.347.373.547l.632-.008a2.406 2.406 0 0 0-.571-.9c-.275-.288-.684-.432-1.226-.432-.579 0-1.049.22-1.41.662-.361.44-.542.987-.542 1.64 0 .653.177 1.198.53 1.635.352.438.824.657 1.415.657.535 0 .999-.202 1.39-.608C.444.935.632.323.616-.494z" style="fill:#898989;fill-opacity:1;fill-rule:nonzero;stroke:none" transform="matrix(2.58391 0 0 -2.58391 163.304 157.316)"/><path d="M0 0c.249.335.374.753.374 1.253 0 .506-.125.922-.374 1.252a1.174 1.174 0 0 1-.98.494c-.405 0-.729-.166-.976-.494-.246-.33-.369-.746-.369-1.252 0-.5.123-.918.369-1.253.247-.335.571-.503.976-.503S-.249-.335 0 0m.456 2.894c.35-.436.524-.983.524-1.641C.98.6.806.052.456-.392c-.35-.444-.829-.666-1.436-.666-.606 0-1.084.222-1.431.666-.347.444-.521.992-.521 1.645 0 .658.174 1.205.521 1.641.347.433.825.651 1.431.651.607 0 1.086-.218 1.436-.651" style="fill:#898989;fill-opacity:1;fill-rule:nonzero;stroke:none" transform="matrix(2.58391 0 0 -2.58391 174.186 161.442)"/><path d="M0 0v5.883h.566L.558-.009Z" style="fill:#898989;fill-opacity:1;fill-rule:nonzero;stroke:none" transform="matrix(2.58391 0 0 -2.58391 179.177 163.72)"/><path d="M0 0c.248.335.373.753.373 1.253 0 .506-.125.922-.373 1.252a1.175 1.175 0 0 1-.98.494c-.405 0-.73-.166-.977-.494-.245-.33-.368-.746-.368-1.252 0-.5.123-.918.368-1.253.247-.335.572-.503.977-.503.404 0 .731.168.98.503m.455 2.894c.35-.436.525-.983.525-1.641C.98.6.805.052.455-.392c-.35-.444-.828-.666-1.435-.666-.607 0-1.084.222-1.432.666-.347.444-.521.992-.521 1.645 0 .658.174 1.205.521 1.641.348.433.825.651 1.432.651S.105 3.327.455 2.894" style="fill:#898989;fill-opacity:1;fill-rule:nonzero;stroke:none" transform="matrix(2.58391 0 0 -2.58391 190.654 161.442)"/><path d="M0 0c.24.306.361.693.361 1.164 0 .477-.121.861-.361 1.155-.241.294-.561.441-.96.441-.398 0-.716-.147-.951-.441-.235-.294-.353-.678-.353-1.155 0-.471.118-.858.353-1.164.235-.307.553-.459.951-.459.399 0 .719.152.96.459m.936-.899C.94-1.506.762-1.963.397-2.271a1.917 1.917 0 0 0-1.283-.463c-.579 0-1.018.159-1.316.476-.298.318-.467.647-.505.988h.566c.028-.236.148-.449.362-.64.213-.191.513-.286.901-.286.399 0 .706.119.919.357.213.237.32.548.32.931v.67a1.712 1.712 0 0 0-.598-.574 1.594 1.594 0 0 0-.804-.211c-.531 0-.972.211-1.321.634-.35.424-.525.942-.525 1.553 0 .617.171 1.13.513 1.539.342.408.786.612 1.333.612.295 0 .564-.065.808-.198.243-.133.441-.318.594-.559v.599h.558z" style="fill:#898989;fill-opacity:1;fill-rule:nonzero;stroke:none" transform="matrix(2.58391 0 0 -2.58391 202.363 160.803)"/><path d="M0 0v4.356h.559L.566-.009Zm-.032 5.918h.631v-.697h-.631z" style="fill:#898989;fill-opacity:1;fill-rule:nonzero;stroke:none" transform="matrix(2.58391 0 0 -2.58391 208.02 163.72)"/><path d="M0 0a2.163 2.163 0 0 0-.579-1.005c-.298-.306-.709-.458-1.234-.458-.607 0-1.084.222-1.431.666-.348.443-.522.991-.522 1.645 0 .652.174 1.197.522 1.634.347.439.824.658 1.431.658.531 0 .952-.163 1.263-.49.312-.326.494-.66.55-1.001l-.607-.008c-.044.199-.161.408-.349.627-.189.216-.475.326-.857.326-.4 0-.723-.166-.972-.494-.249-.33-.373-.746-.373-1.252 0-.512.124-.933.373-1.262.249-.33.572-.494.972-.494.312 0 .571.09.779.269.208.18.347.395.418.649z" style="fill:#898989;fill-opacity:1;fill-rule:nonzero;stroke:none" transform="matrix(2.58391 0 0 -2.58391 221.649 160.395)"/><path d="M0 0a.756.756 0 0 0-.196-.114 1.37 1.37 0 0 0-.239-.08 6.404 6.404 0 0 0-.701-.115 5.901 5.901 0 0 1-.619-.096c-.268-.077-.466-.19-.595-.336a.713.713 0 0 1-.175-.53.596.596 0 0 1 .327-.523c.203-.109.443-.152.722-.129.372.029.71.166 1.017.41.306.244.459.492.459.745Zm.132-2.311a1.136 1.136 0 0 0-.086.278c-.025.12-.04.239-.046.357-.142-.171-.352-.337-.628-.499a1.982 1.982 0 0 0-.914-.267c-.415-.024-.771.055-1.066.237-.295.183-.462.462-.5.838-.038.382.038.682.23.899.191.217.429.373.713.468.24.076.499.124.775.146.276.02.532.05.767.092.126.03.262.075.406.136.145.063.217.185.217.367 0 .217-.092.418-.278.604-.187.185-.474.277-.862.277-.366 0-.656-.083-.87-.251a.768.768 0 0 1-.303-.666h-.557c-.038.441.117.794.467 1.059.35.264.771.396 1.263.396.47 0 .878-.126 1.223-.379.344-.253.516-.605.516-1.057v-2.321c0-.175.019-.336.057-.48.038-.144.061-.222.066-.234z" style="fill:#898989;fill-opacity:1;fill-rule:nonzero;stroke:none" transform="matrix(2.58391 0 0 -2.58391 231.204 157.818)"/><path d="M0 0v5.883h.565L.558-.009Z" style="fill:#898989;fill-opacity:1;fill-rule:nonzero;stroke:none" transform="matrix(2.58391 0 0 -2.58391 235.656 163.72)"/><path d="M0 0a1.99 1.99 0 0 0-.549-1.402c-.367-.394-.883-.59-1.551-.59-.677 0-1.196.196-1.553.59A2.01 2.01 0 0 0-4.19 0l.007 4.057h.567V.098c0-.407.122-.76.368-1.063.246-.304.629-.455 1.148-.455.521 0 .904.151 1.154.455.249.303.373.656.373 1.063l-.009 3.959H0Z" style="fill:#898989;fill-opacity:1;fill-rule:nonzero;stroke:none" transform="matrix(2.58391 0 0 -2.58391 260.62 159.027)"/><path d="m0 0 .009 2.682c0 .375-.092.66-.276.854-.182.194-.435.292-.758.292-.362 0-.662-.131-.903-.389s-.36-.538-.36-.837V0h-.566v4.269h.566v-.521c.158.193.362.363.611.507.248.143.559.202.931.172.421-.024.748-.193.98-.507.233-.315.348-.66.348-1.036V0Z" style="fill:#898989;fill-opacity:1;fill-rule:nonzero;stroke:none" transform="matrix(2.58391 0 0 -2.58391 270.942 163.72)"/><path d="M0 0v4.356h.557L.564-.009Zm-.034 5.918h.633v-.697h-.633z" style="fill:#898989;fill-opacity:1;fill-rule:nonzero;stroke:none" transform="matrix(2.58391 0 0 -2.58391 275.393 163.72)"/><path d="M0 0h-.631L-2.28 4.277l.599.009L-.32.749l1.361 3.537.591-.009Z" style="fill:#898989;fill-opacity:1;fill-rule:nonzero;stroke:none" transform="matrix(2.58391 0 0 -2.58391 284.8 163.743)"/><path d="M0 0c-.018.417-.154.757-.41 1.018a1.259 1.259 0 0 1-.928.392c-.354 0-.658-.129-.91-.388C-2.5.764-2.639.423-2.666 0Zm-2.683-.512c.011-.47.156-.853.435-1.146.279-.295.582-.442.91-.442.345 0 .611.082.8.247.188.165.313.347.373.547l.632-.008a2.419 2.419 0 0 0-.571-.9c-.276-.288-.684-.432-1.225-.432-.58 0-1.05.22-1.411.662-.361.44-.541.987-.541 1.64 0 .653.176 1.198.528 1.635.354.438.824.657 1.415.657.536 0 1-.202 1.391-.608C.443.935.631.323.614-.494z" style="fill:#898989;fill-opacity:1;fill-rule:nonzero;stroke:none" transform="matrix(2.58391 0 0 -2.58391 298.578 157.316)"/><path d="M0 0c-.12 0-.254-.01-.401-.031a.939.939 0 0 1-.386-.136A1.376 1.376 0 0 1-1.3-.696c-.117-.218-.177-.506-.177-.865v-2.24h-.565V.468h.549l.016-.679a1.553 1.553 0 0 0 .69.652c.132.065.272.111.422.137.15.026.269.039.357.039z" style="fill:#898989;fill-opacity:1;fill-rule:nonzero;stroke:none" transform="matrix(2.58391 0 0 -2.58391 307.942 153.9)"/><path d="M0 0c.178-.166.252-.397.225-.697a1.358 1.358 0 0 0-.488-.922c-.293-.256-.679-.387-1.161-.393-.694-.006-1.17.174-1.427.538-.256.365-.385.701-.385 1.005h.574c.006-.316.128-.559.369-.726.24-.168.522-.252.845-.252.267 0 .507.058.718.176a.71.71 0 0 1 .373.521.46.46 0 0 1-.148.436c-.126.115-.273.21-.443.287a2.789 2.789 0 0 1-.64.199 3.808 3.808 0 0 0-.615.162 1.704 1.704 0 0 0-.61.389c-.173.17-.253.399-.243.687.017.313.158.598.422.856.266.258.648.388 1.145.388.552 0 .96-.162 1.222-.485.262-.323.385-.636.369-.935h-.566c0 .2-.082.393-.246.578-.164.185-.43.278-.796.278-.306 0-.544-.061-.713-.182a.61.61 0 0 1-.271-.488c-.01-.207.068-.357.238-.455.169-.097.325-.169.468-.216.164-.059.363-.108.598-.15C-.95.558-.74.487-.555.388-.363.293-.179.164 0 0" style="fill:#898989;fill-opacity:1;fill-rule:nonzero;stroke:none" transform="matrix(2.58391 0 0 -2.58391 317.026 159.002)"/><path d="M0 0v4.356h.558L.564-.009Zm-.034 5.918h.633v-.697h-.633z" style="fill:#898989;fill-opacity:1;fill-rule:nonzero;stroke:none" transform="matrix(2.58391 0 0 -2.58391 320.11 163.72)"/><path d="M0 0v-2.716c0-.112.003-.203.009-.274a.312.312 0 0 1 .09-.194.349.349 0 0 1 .22-.091 2.17 2.17 0 0 1 .222-.014v-.512H.099a.51.51 0 0 0-.312.097.965.965 0 0 0-.222.229.693.693 0 0 0-.114.287 2.692 2.692 0 0 0-.025.401V0h-.492v.503l.492.009.009 1.314H0V.512L.574.503V0Z" style="fill:#898989;fill-opacity:1;fill-rule:nonzero;stroke:none" transform="matrix(2.58391 0 0 -2.58391 326.443 153.945)"/><path d="M0 0a1.994 1.994 0 0 0-.184-.37.818.818 0 0 0-.537-.365 1.869 1.869 0 0 0-.312-.023h-.23v.52l.312-.009a.294.294 0 0 1 .259.11c.062.08.113.166.151.26l.263.68-1.624 4.233.583.009L.009 1.578l1.337 3.467.582-.009z" style="fill:#898989;fill-opacity:1;fill-rule:nonzero;stroke:none" transform="matrix(2.58391 0 0 -2.58391 334.283 165.704)"/><path d="M0 0a.928.928 0 0 1 .394.647.77.77 0 0 1-.176.658.813.813 0 0 1-.653.287c-.3 0-.528-.094-.68-.279a.815.815 0 0 1-.197-.622c.021-.193.1-.393.238-.599.136-.205.262-.377.377-.512.24.117.472.258.697.42m-.033-3.484c.262.127.478.293.648.498-.071.089-.307.388-.709.9-.402.511-.658.832-.767.961a6.545 6.545 0 0 1-.754-.538c-.253-.206-.384-.487-.395-.847-.006-.323.11-.598.345-.824a1.19 1.19 0 0 1 .86-.34c.253 0 .509.063.772.19m1.517-.596-.525.662a2.725 2.725 0 0 0-.845-.617 2.193 2.193 0 0 0-.926-.212c-.444 0-.844.151-1.202.454-.358.303-.534.73-.529 1.283.006.442.149.805.431 1.09.281.285.587.524.914.719-.12.158-.255.355-.406.59A1.69 1.69 0 0 0-1.87.63c-.044.423.071.779.345 1.067.273.287.633.432 1.082.432.432 0 .785-.145 1.058-.432.273-.288.388-.633.344-1.032C.922.236.749-.094.443-.322a6.759 6.759 0 0 0-.797-.53c.111-.141.336-.424.677-.851l.62-.772c.11.201.196.42.258.662.064.241.101.461.111.661h.549a5.594 5.594 0 0 0-.188-.952 3.224 3.224 0 0 0-.361-.847l.911-1.129Z" style="fill:#898989;fill-opacity:1;fill-rule:nonzero;stroke:none" transform="matrix(2.58391 0 0 -2.58391 357.09 153.43)"/><path d="M0 0c.187-.276.258-.588.214-.935-.05-.435-.249-.818-.599-1.15-.35-.333-.853-.498-1.51-.498-.727 0-1.269.219-1.627.656A2.21 2.21 0 0 0-4.043-.44h.573c0-.536.154-.934.46-1.196.307-.261.684-.392 1.132-.392.399 0 .735.098 1.009.295.273.197.434.457.484.781.043.258-.003.473-.139.643a1.565 1.565 0 0 1-.55.423c-.24.118-.508.198-.804.239a4.19 4.19 0 0 0-.853.211c-.367.142-.649.33-.849.565-.199.235-.291.55-.274.943.016.382.181.751.496 1.108.314.355.794.533 1.439.533.76 0 1.281-.237 1.563-.71.282-.473.417-.871.406-1.194h-.582c.005.364-.119.678-.373.943-.255.265-.593.396-1.014.396-.399 0-.718-.105-.955-.317a1.035 1.035 0 0 1-.373-.759c-.012-.305.07-.527.245-.665s.356-.243.542-.313a4.2 4.2 0 0 1 .763-.185c.316-.053.629-.147.934-.283C-.439.485-.187.276 0 0" style="fill:#898989;fill-opacity:1;fill-rule:nonzero;stroke:none" transform="matrix(2.58391 0 0 -2.58391 384.49 157.591)"/><path d="M0 0c-.018.417-.153.757-.41 1.018a1.256 1.256 0 0 1-.927.392c-.355 0-.659-.129-.91-.388C-2.499.764-2.639.423-2.666 0Zm-2.682-.512c.01-.47.155-.853.435-1.146.278-.295.581-.442.91-.442.345 0 .61.082.799.247.189.165.313.347.373.547l.633-.008a2.432 2.432 0 0 0-.571-.9c-.276-.288-.684-.432-1.225-.432-.58 0-1.051.22-1.411.662-.362.44-.542.987-.542 1.64 0 .653.176 1.198.529 1.635.353.438.824.657 1.415.657.536 0 .999-.202 1.39-.608C.443.935.631.323.615-.494z" style="fill:#898989;fill-opacity:1;fill-rule:nonzero;stroke:none" transform="matrix(2.58391 0 0 -2.58391 395.639 157.316)"/><path d="m0 0-.009 2.752c0 .346-.055.621-.168.824-.112.203-.318.299-.619.287a.906.906 0 0 1-.714-.34c-.179-.22-.27-.503-.27-.851V0h-.566l-.008 2.752c0 .346-.058.621-.172.824-.115.203-.324.299-.623.287a.891.891 0 0 1-.714-.353 1.31 1.31 0 0 1-.272-.838V0h-.564v4.269h.564v-.494c.126.182.288.34.485.476.197.135.448.193.754.176a.977.977 0 0 0 .594-.225c.168-.138.289-.307.365-.507.078.118.225.277.444.477.219.199.533.285.943.255.394-.024.678-.189.853-.493.175-.307.262-.642.262-1.006V0Z" style="fill:#898989;fill-opacity:1;fill-rule:nonzero;stroke:none" transform="matrix(2.58391 0 0 -2.58391 411.871 163.72)"/><path d="M0 0v4.356h.558L.565-.009Zm-.033 5.918h.632v-.697h-.632z" style="fill:#898989;fill-opacity:1;fill-rule:nonzero;stroke:none" transform="matrix(2.58391 0 0 -2.58391 416.28 163.72)"/><path d="m0 0 .009 2.682c0 .375-.092.66-.276.854-.182.194-.435.292-.758.292-.362 0-.662-.131-.903-.389s-.361-.538-.361-.837V0h-.565v4.269h.565v-.521c.159.193.363.363.612.507.248.143.559.202.931.172.421-.024.748-.193.98-.507.233-.315.348-.66.348-1.036V0Z" style="fill:#898989;fill-opacity:1;fill-rule:nonzero;stroke:none" transform="matrix(2.58391 0 0 -2.58391 428.339 163.72)"/><path d="M0 0a.756.756 0 0 0-.196-.114 1.37 1.37 0 0 0-.239-.08 6.42 6.42 0 0 0-.7-.115 5.887 5.887 0 0 1-.62-.096c-.268-.077-.466-.19-.595-.336a.713.713 0 0 1-.175-.53.596.596 0 0 1 .327-.523c.203-.109.443-.152.722-.129.372.029.71.166 1.018.41.305.244.458.492.458.745Zm.132-2.311a1.136 1.136 0 0 0-.086.278c-.025.12-.04.239-.046.357-.142-.171-.352-.337-.627-.499a1.986 1.986 0 0 0-.915-.267c-.415-.024-.771.055-1.065.237-.296.183-.463.462-.501.838-.038.382.038.682.23.899.191.217.429.373.714.468.24.076.498.124.774.146.277.02.532.05.767.092.126.03.262.075.406.136.145.063.217.185.217.367 0 .217-.092.418-.278.604-.187.185-.474.277-.862.277-.366 0-.656-.083-.869-.251a.767.767 0 0 1-.304-.666h-.557c-.038.441.117.794.467 1.059.35.264.771.396 1.263.396.47 0 .878-.126 1.223-.379C.427 1.528.6 1.176.6.724v-2.321c0-.175.018-.336.056-.48.038-.144.061-.222.066-.234z" style="fill:#898989;fill-opacity:1;fill-rule:nonzero;stroke:none" transform="matrix(2.58391 0 0 -2.58391 439.929 157.818)"/><path d="M0 0c-.121 0-.255-.01-.402-.031a.934.934 0 0 1-.385-.136A1.376 1.376 0 0 1-1.3-.696c-.118-.218-.177-.506-.177-.865v-2.24h-.565V.468h.549l.016-.679c.082.147.179.274.291.379.113.105.246.197.399.273.131.065.271.111.422.137.15.026.269.039.357.039z" style="fill:#898989;fill-opacity:1;fill-rule:nonzero;stroke:none" transform="matrix(2.58391 0 0 -2.58391 449.659 153.9)"/><path d="M0 0a1.934 1.934 0 0 0-.185-.37.805.805 0 0 0-.536-.365 1.869 1.869 0 0 0-.312-.023h-.23v.52l.312-.009a.292.292 0 0 1 .258.11c.063.08.114.166.152.26l.263.68-1.624 4.233.582.009L.009 1.578l1.336 3.467.583-.009z" style="fill:#898989;fill-opacity:1;fill-rule:nonzero;stroke:none" transform="matrix(2.58391 0 0 -2.58391 455.654 165.704)"/></svg>