<svg xmlns="http://www.w3.org/2000/svg" width="437.62823" height="437.6344" x="0px" y="0px" viewBox="0 0 437.62823 437.63443"><path fill="none" d="M-566.187-563.052H464.64V474.233H-566.187z" style="fill:#031003;fill-opacity:0"/><defs><linearGradient id="a" x1="296.85101" x2="311.134" y1="417.19501" y2="434.80301" gradientUnits="userSpaceOnUse"><stop offset="0" style="stop-color:#fadd4a"/><stop offset="1" style="stop-color:#fadd4a"/></linearGradient><linearGradient id="b" x1="297.64999" x2="327.77899" y1="414.69699" y2="451.84" gradientUnits="userSpaceOnUse"><stop offset="0" style="stop-color:#fadd4a"/><stop offset="1" style="stop-color:#fadd4a"/></linearGradient></defs><g style="stroke-width:2.23931"><g style="stroke-width:.288018"><path d="M348.742 431.296c0 19.579-15.871 35.451-35.45 35.451-19.582 0-35.452-15.872-35.452-35.451s15.87-35.452 35.452-35.452c19.579 0 35.45 15.873 35.45 35.452z" style="fill:#006886;stroke:none;stroke-width:.288018" transform="matrix(6.1723 0 0 6.1723 -1714.911 -2443.267)"/><g style="stroke-width:.288018"><g style="stroke-width:.288018"><path d="M297.276 435.148v-18.297h6.287c.42.003 7.147.159 7.147 7.555v8.995c-4.537-.85-9.256-.277-13.434 1.747z" style="fill:url(#a);stroke:none;stroke-width:.288018" transform="matrix(6.1723 0 0 6.1723 -1714.911 -2443.267)"/><path d="M294.995 439.005c6.213-4.754 15.259-4.824 22.005-1.115v-13.484c0-7.396 6.727-7.552 7.147-7.555h6.287v19.424c0 10.949-6.643 13.412-11.469 13.412-3.547-8.21-13.596-13.237-23.97-10.682z" style="fill:url(#b);stroke:none;stroke-width:.288018" transform="matrix(6.1723 0 0 6.1723 -1714.911 -2443.267)"/></g><g style="stroke-width:.288018"><g style="stroke-width:.288018"><path d="m287.341 441.325-1.623.664-.348-.849 4.055-1.656.347.848-1.809.739.398.97 1.808-.737.346.846-4.053 1.658-.348-.848 1.623-.662zM286.247 435.82c-1.152.126-2.248.247-2.413-1.254-.166-1.502.932-1.622 2.084-1.749 1.139-.125 2.248-.246 2.414 1.254.166 1.502-.946 1.623-2.085 1.749zm-.228-2.08c-1.116.122-1.59.242-1.535.755.057.512.546.525 1.664.403 1.113-.123 1.589-.243 1.532-.754-.056-.514-.545-.527-1.661-.404zM288.2 428.562l-4.316-.75.212-1.219 3.188-.628.003-.013-2.989-.517.147-.844 4.315.751-.208 1.188-3.36.629-.001.013 3.155.548zM289.89 421.792l-3.392-3.025.534-1.082 4.454.869-.426.866-.977-.212-.554 1.121.761.653zm-2.39-3.146-.007.01 1.513 1.21.386-.782zM293.564 415.49l-3.173-3.022 1.019-1.067 2.628 1.559.008-.01-1.654-2.58.984-1.032 3.172 3.02-.616.647-2.446-2.33-.01.008 1.864 2.941-.603.632-2.996-1.751-.01.009 2.447 2.331zM305.341 402.772l.983 2.946c.207.621.074 1.396-.983 1.748-.955.318-1.581-.022-1.841-.805l-.983-2.945.867-.291.964 2.889c.172.511.458.64.773.535.381-.128.467-.438.314-.897l-.963-2.889zM310.694 406.19l-.164-4.377 1.237-.048 1.279 2.988h.01l-.114-3.031.854-.033.165 4.377-1.206.045-1.315-3.155h-.011l.119 3.201zM317.982 406.54l.889-4.287.899.186-.891 4.287zM324.279 403.791l.864.402-.733 3.173.012.006 2.039-2.562.818.381-2.9 3.479-.973-.454zM328.51 411.194l2.802-3.367 1.836 1.53-.429.515-1.135-.941-.689.831 1.045.866-.432.52-1.045-.868-.818.983 1.171.972-.431.518zM333.549 416.321l-.535-.744 3.562-2.55.986 1.378c.364.508.27 1.065-.335 1.5-.455.327-.922.391-1.348-.036l-.01.009c.098.176.404.688-.236 1.146-.229.162-.887.657-.986.833l-.524-.73c.147-.254.402-.408.635-.573.424-.305.812-.522.402-1.096l-.137-.191zm2.021-1.447.237.331c.211.296.568.169.796.006.338-.245.366-.478.196-.716l-.239-.33zM336.789 422.416c-.396-1.061.154-1.495.883-1.714l.32.858c-.394.148-.717.287-.541.757.108.291.348.363.629.259.738-.275.139-2.02 1.361-2.475.641-.24 1.268-.123 1.659.923.31.834.09 1.389-.79 1.652l-.312-.835c.307-.115.6-.281.473-.629-.106-.278-.321-.386-.604-.279-.779.289-.066 1.992-1.355 2.472-1.065.397-1.479-.336-1.723-.989zM338.221 427.667l4.344-.545.115.908-4.344.547zM342.574 435.639l-.724-.072.097-1.013-3.637-.352.092-.912 3.633.352.098-1.014.726.07zM338.508 440.104l3.084-.079-.348.937-1.963-.029 1.494 1.297-.326.877-2.259-2.145-1.422-.526.318-.861z" style="fill:#edc74d;stroke:none;stroke-width:.288018" transform="matrix(6.1723 0 0 6.1723 -1714.911 -2443.267)"/></g><g style="stroke-width:.288018"><path d="M334.51 446.78a.465.465 0 1 0 .931 0 .466.466 0 0 0-.931 0zM292.074 446.78a.466.466 0 1 1-.932 0 .466.466 0 0 1 .932 0z" style="fill:#edc74d;stroke:none;stroke-width:.288018" transform="matrix(6.1723 0 0 6.1723 -1714.911 -2443.267)"/><g style="stroke-width:.288018"><path d="m331.484 452.118.03.047.468-.376-.013-.032c-.149-.393-1.322-2.014-2.043-2.916l-.029-.039-2.922 2.351.298.37s2.235-1.799 2.309-1.862c.664.826 1.705 2.148 1.902 2.457z" style="fill:#edc74d;stroke:none;stroke-width:.288018" transform="matrix(6.1723 0 0 6.1723 -1714.911 -2443.267)"/><path d="m331.685 452.933-1.232-1.532-.705.569.117.148.039-.031c.071-.057.201.025.364.226l.863 1.069-.443.356a769.367 769.367 0 0 1-1.235-1.532l-.705.57.117.147.039-.03c.071-.058.205.024.364.223l.863 1.071-.822.662.298.37 3.713-2.993-.297-.368-1.338 1.075z" style="fill:#edc74d;stroke:none;stroke-width:.288018" transform="matrix(6.1723 0 0 6.1723 -1714.911 -2443.267)"/></g><g style="stroke-width:.288018"><path d="m306.595 454.208-.906-.338-.065.178.047.018c.083.031.08.187-.009.425l-.585 1.575a4.472 4.472 0 0 1-.902-.239l-1.393-.517c.034-.088.696-1.862.696-1.862l-.914-.34-.065.177.045.019c.086.03.083.186-.007.428l-.597 1.6c-.026.072.02.17.096.198l1.906.711c.319.118.68.2.986.222-.035.097-.184.492-.184.492l.727.271s.51-1.366.541-1.453l.715.266.162-.438s-.631-.237-.712-.266c.03-.086.418-1.127.418-1.127zM302.175 456.437l.047.017c.085.031.08.188-.009.428l-.479 1.283a.16.16 0 0 0 .094.204l2.797 1.042.74-1.988-3.124-1.164zm.804.596 1.497.558-.416 1.111-1.496-.557z" style="fill:#edc74d;stroke:none;stroke-width:.288018" transform="matrix(6.1723 0 0 6.1723 -1714.911 -2443.267)"/></g><path d="M314.339 455.293h.05c.089 0 .141.147.141.403v1.329h-.523v-1.921h-.901v.189h.05c.069 0 .116.082.132.234.004.041.004.085.004.127v2.792a4.532 4.532 0 0 1-.928.092h-.771v-2.586h1.008v-.468h-1.981v.189h.049c.09 0 .141.148.141.404v2.778c0 .082.077.158.16.158h1.328c.455 0 .814-.083.994-.133v1.856h.715v-3.237h.523v3.237h.709v-5.632h-.9z" style="fill:#edc74d;stroke:none;stroke-width:.288018" transform="matrix(6.1723 0 0 6.1723 -1714.911 -2443.267)"/><g style="stroke-width:.288018"><g style="stroke-width:.288018"><path d="m295.701 452.296-.632.773c-.073-.058-1.635-1.33-1.635-1.33l-.3.367 3.873 3.155.3-.369-1.637-1.331.637-.781M299.192 451.86l.3-.365s-1.204-.982-1.276-1.039l.413-.51-.769-.624-.118.147.039.03c.069.058.016.205-.145.403l-.039.047c-.073-.057-1.278-1.04-1.278-1.04l-.299.369z" style="fill:#edc74d;stroke:none;stroke-width:.288018" transform="matrix(6.1723 0 0 6.1723 -1714.911 -2443.267)"/></g><path d="M298.136 452.479c-.552.676-1.564.764-2.263.197-.696-.568-.815-1.577-.264-2.255.553-.677 1.525-.716 2.223-.146.696.568.856 1.526.304 2.204zm-.549-1.906c-.382-.312-1.013-.172-1.407.311-.393.484-.403 1.131-.019 1.441.382.313 1.011.174 1.407-.31.392-.483.402-1.129.019-1.442z" style="fill:#edc74d;stroke:none;stroke-width:.288018" transform="matrix(6.1723 0 0 6.1723 -1714.911 -2443.267)"/></g><g style="stroke-width:.288018"><path d="M321.367 458.013s2.403-.879 2.492-.91c.034.086.53 1.443.53 1.443l.713-.262-.68-1.886-3.215 1.174zM323.223 453.013l-.901.33.065.179.045-.017c.086-.031.185.088.273.328l.959 2.627.723-.266s-.557-1.526-.59-1.613l.705-.256-.162-.44-.703.257-.414-1.129zM322.312 454.442l-.16-.438-1.068.39c-.027-.078-.201-.557-.201-.557l-.932.34.067.178.047-.017c.083-.031.183.089.271.329l-1.072.393.16.438z" style="fill:#edc74d;stroke:none;stroke-width:.288018" transform="matrix(6.1723 0 0 6.1723 -1714.911 -2443.267)"/><path d="M322.512 455.31c.242.664-.16 1.42-.897 1.689-.74.271-1.535-.049-1.779-.711-.242-.664.191-1.334.93-1.603.74-.272 1.504-.038 1.746.625zm-1.621-.287c-.338.123-.485.572-.329 1 .157.427.557.673.895.55.338-.123.484-.57.328-.997-.158-.428-.558-.676-.894-.553z" style="fill:#edc74d;stroke:none;stroke-width:.288018" transform="matrix(6.1723 0 0 6.1723 -1714.911 -2443.267)"/></g></g></g></g></g></g></svg>