<svg xmlns="http://www.w3.org/2000/svg" width="187.06166mm" height="187.06166mm" viewBox="0 0 187.06167 187.06167"><g transform="translate(2.011 1.736)"><circle cx="91.519409" cy="91.794807" r="93.53083" style="fill:#f9f9f9;stroke-width:.370575"/><path d="M31.278 49.956a1.979 1.979 0 0 0-.373-.234l-2.13-1.122-1.463.197c-.064.008-.111.029-.14.063a.33.33 0 0 0-.062.169l-.1.013-.18-1.34.1-.014c.031.073.066.122.103.149.038.026.09.034.154.027l1.462-.197 1.76-1.644c.15-.142.25-.25.299-.325a.468.468 0 0 0 .072-.258l.1-.014.228 1.691-.101.014c-.041-.136-.116-.199-.223-.185-.037.006-.115.06-.229.163l-1.043.923 1.252.638c.134.07.224.1.268.095a.16.16 0 0 0 .116-.073.292.292 0 0 0 .048-.162l.099-.014.223 1.656-.1.013a.457.457 0 0 0-.14-.23m-1.462 9.672a1.26 1.26 0 1 1 0-2.519 1.26 1.26 0 0 1 0 2.519m-1.795 8.203a.32.32 0 0 0-.177-.031c-.046.008-.09.04-.133.095l-3.182 4.092a.253.253 0 0 0-.062.152.322.322 0 0 0 .076.167l-.055.07-.844-.654.055-.072c.073.03.133.04.18.03.045-.008.089-.041.132-.095l.391-.504-1.924-1.495c-.053-.04-.103-.061-.149-.06a.372.372 0 0 0-.169.073l-.07-.055.784-1.008.07.055c-.03.071-.041.13-.03.177.01.047.041.091.094.133l1.925 1.496.58-.744-1.925-1.495a.222.222 0 0 0-.148-.06c-.047 0-.102.027-.17.072l-.07-.055.785-1.008.071.055c-.03.071-.043.13-.031.177.01.047.04.091.095.133l1.925 1.498 1.146-1.476c.042-.055.062-.105.06-.152a.334.334 0 0 0-.074-.165l.056-.07.842.654zm-7.268 1.421-.843-.654.055-.07a.33.33 0 0 0 .179.03.245.245 0 0 0 .132-.096l3.132-4.03.07.053a.326.326 0 0 0-.03.178.24.24 0 0 0 .094.133l2.67 2.075c.053.041.101.062.147.058a.357.357 0 0 0 .168-.072l.07.054-.784 1.009-.07-.056a.317.317 0 0 0 .03-.179c-.01-.045-.041-.088-.094-.13l-2.41-1.875-2.475 3.184c-.042.055-.064.104-.06.15a.346.346 0 0 0 .073.168zm-2.98 9.34-.042-.078c.06-.055.094-.105.103-.15.011-.046 0-.098-.031-.157l-.465-.881-2.909 1.53c-.06.033-.099.07-.116.113a.326.326 0 0 0-.002.182l-.079.042-.499-.945.08-.041a.325.325 0 0 0 .15.102c.046.01.1 0 .16-.035l3.857-2.03.043.08c-.058.052-.092.1-.102.148-.01.046 0 .1.032.16l.616 1.17c.032.06.069.099.111.114.042.018.104.018.182.003l.042.08zm-4.623-.633c-.573-.098-1.001-.418-1.288-.96-.287-.547-.307-1.081-.06-1.604.107-.227.256-.428.443-.61l-.912.48c-.06.031-.1.07-.117.112-.018.043-.018.104-.002.184l-.078.041-.498-.945.079-.043c.055.058.103.092.15.102.045.011.1 0 .16-.032l1.196-.63-.229-.435a.234.234 0 0 0-.11-.114.343.343 0 0 0-.183-.005l-.042-.078 1.13-.594.042.077a.291.291 0 0 0-.1.15.226.226 0 0 0 .03.159l.23.437 1.197-.63c.06-.032.1-.072.116-.116.018-.043.018-.102.001-.179l.08-.043.498.946-.08.041a.31.31 0 0 0-.148-.102c-.045-.011-.099 0-.16.032l-.9.474c.251-.05.5-.054.743-.014.57.098 1.003.427 1.298.987.276.523.294 1.048.051 1.575-.2.437-.554.79-1.064 1.057-.51.269-1 .36-1.473.28m-7.498-2.579a.332.332 0 0 0-.16.084.246.246 0 0 0-.045.156v6.09c0 .066.015.118.044.152a.344.344 0 0 0 .161.09v.09H4.375v-.09c.074-.02.128-.047.158-.084a.234.234 0 0 0 .047-.156V77.51h-.742v4.199c0 .066.016.118.046.152.03.038.083.065.16.09v.09H2.767v-.09a.302.302 0 0 0 .158-.084.23.23 0 0 0 .047-.156v-1.415H.14a.43.43 0 0 1-.43-.431l.001-3.688a.238.238 0 0 0-.044-.153.36.36 0 0 0-.16-.087v-.088h2.56c.068 0 .12-.016.155-.045a.327.327 0 0 0 .087-.16h.088v1.066h-.088a.331.331 0 0 0-.087-.162.254.254 0 0 0-.157-.043H.577l-.001 2.923c0 .117.095.21.212.21h2.184V75.62a.235.235 0 0 0-.044-.153.37.37 0 0 0-.161-.087v-.09h1.277v.09a.314.314 0 0 0-.16.084.239.239 0 0 0-.046.156v1.232h.742v-1.232c0-.068-.013-.119-.044-.153a.339.339 0 0 0-.161-.087v-.09h1.277zm-11.789-1.291c-.078-.017-.139-.015-.182.003-.044.018-.08.057-.11.116l-2.037 3.955a.234.234 0 0 0-.031.159.339.339 0 0 0 .102.151l-.04.08-1.136-.585.04-.079a.3.3 0 0 0 .18-.004c.045-.017.082-.057.112-.116l1.133-2.198-1.126-.579a1.49 1.49 0 0 1-.884.488 1.777 1.777 0 0 1-.713-.016c-.005 0-.01 0-.015-.004l.99.51c.061.033.115.043.16.033a.332.332 0 0 0 .15-.105l.08.042-.49.95-.078-.042a.322.322 0 0 0-.004-.18c-.018-.045-.057-.082-.119-.114l-1.184-.609-.29.562a.238.238 0 0 0-.03.157.337.337 0 0 0 .103.152l-.042.08-1.137-.584.042-.082a.304.304 0 0 0 .18 0 .246.246 0 0 0 .113-.117l.29-.565-1.248-.643c-.06-.032-.114-.043-.16-.03-.046.009-.096.045-.148.101l-.08-.04.489-.95.08.04a.3.3 0 0 0 0 .18c.017.044.056.081.118.113l1.11.57c-.01-.005-.014-.009-.014-.009a1.814 1.814 0 0 1-.427-.572c-.222-.467-.208-.944.041-1.429.254-.49.634-.778 1.141-.865.287-.05.58-.026.88.063l.057-.11a.231.231 0 0 0 .032-.157.342.342 0 0 0-.102-.153l.041-.08 1.134.586-.04.08a.324.324 0 0 0-.179 0 .231.231 0 0 0-.113.115l-.052.102c.276.201.48.441.616.722.183.39.2.793.05 1.206l-.013.035 1.092.563.605-1.177c.03-.057.04-.111.03-.155a.348.348 0 0 0-.102-.15l.04-.08 1.135.584zm-3.417 6.215-.08-.041a.323.323 0 0 0-.003-.181c-.018-.043-.058-.08-.12-.112l-3.066-1.57a.665.665 0 0 1-.287-.895l.29-.56c.031-.06.041-.112.03-.158a.36.36 0 0 0-.103-.151l.041-.078 1.136.585-.04.08a.331.331 0 0 0-.182 0c-.044.018-.082.057-.112.117l-.196.38a.21.21 0 0 0 .091.285l2.7 1.38c.06.032.113.042.158.032.045-.01.094-.045.152-.104l.079.042zm-6.155-10.97-.053-.07a.322.322 0 0 0 .076-.164.244.244 0 0 0-.06-.151l-.643-.84c.007.099.005.2-.006.298-.05.605-.335 1.105-.849 1.5a2.053 2.053 0 0 1-1.077.419c-.664.063-1.256-.169-1.772-.695l-.3.229 1.32 1.724c.042.055.086.087.133.096.045.01.105 0 .178-.03l.054.071-.847.65-.055-.07a.309.309 0 0 0 .077-.163c.003-.049-.016-.098-.059-.153l-3.173-4.143a.234.234 0 0 0-.13-.096c-.047-.011-.106 0-.18.029l-.056-.07.848-.65.055.07c-.047.064-.073.12-.074.166-.003.046.016.098.059.152l1.324 1.73.298-.23c-.266-.452-.38-.906-.338-1.361.028-.307.121-.598.281-.868.14-.239.326-.444.55-.618.33-.25.697-.398 1.1-.44.288-.027.566.004.83.093l-.633-.828c-.043-.055-.087-.088-.131-.098a.334.334 0 0 0-.18.029l-.054-.072.847-.647.053.07a.356.356 0 0 0-.075.164c-.001.047.02.1.06.153l1.27 1.658.389-.298a.227.227 0 0 0 .095-.13.359.359 0 0 0-.027-.182l.07-.053.777 1.014-.07.054c-.061-.049-.115-.073-.165-.075a.245.245 0 0 0-.151.058l-.392.298 1.289 1.682c.043.054.085.087.13.097.048.01.107 0 .18-.029l.054.072zm-8.695-9.706a1.26 1.26 0 1 1 0-2.521 1.26 1.26 0 0 1 0 2.52m-1.863-10.507a.325.325 0 0 0-.108.145l-.099-.017.223-1.33.098.014c.007.08.025.137.054.171.03.036.076.06.138.07l1.371.23.412-2.456-1.371-.23c-.063-.01-.114-.005-.153.02-.039.022-.074.07-.106.144l-.1-.017.224-1.331.1.016a.328.328 0 0 0 .053.171.214.214 0 0 0 .138.068l3.611.605c.062.01.113.005.152-.02a.33.33 0 0 0 .108-.143l.097.017-.223 1.33-.098-.017a.314.314 0 0 0-.053-.168.211.211 0 0 0-.138-.07l-1.538-.258-.412 2.455 1.538.26c.063.01.114 0 .153-.022a.306.306 0 0 0 .106-.144l.098.017-.222 1.331-.098-.016a.339.339 0 0 0-.057-.171c-.027-.035-.073-.057-.135-.068l-3.613-.605a.21.21 0 0 0-.15.02m1.9-8.508c.287-.696.703-1.172 1.247-1.425.57-.27 1.169-.276 1.793-.018.383.157.696.408.943.75.48.67.533 1.467.153 2.387-.284.69-.699 1.164-1.242 1.417a2.215 2.215 0 0 1-1.77.029 2.216 2.216 0 0 1-.97-.76c-.473-.652-.524-1.446-.154-2.38m2.351-4.556.082.062c-.057.124-.047.213.028.27a.63.63 0 0 0 .198.085l2.342.69-1.283-2.119a.713.713 0 0 0-.121-.167c-.077-.057-.17-.04-.277.058l-.08-.06.943-1.256.08.062c-.056.138-.045.236.035.297.028.019.089.042.185.07l2.355.671-1.286-2.031a.755.755 0 0 0-.16-.203c-.074-.056-.169-.032-.283.072l-.08-.06.891-1.187.08.06c-.04.102-.053.184-.04.243.013.06.066.165.162.318l1.805 2.905c.085.138.149.223.19.254.083.062.178.041.288-.064l.081.06-.847 1.127-.079-.062c.07-.131.058-.233-.037-.305-.032-.023-.127-.055-.287-.092l-2.523-.706 1.4 2.284c.066.122.115.194.142.213.077.06.18.039.305-.063l.08.06-.835 1.113-.08-.061c.062-.13.046-.229-.046-.299a1.24 1.24 0 0 0-.278-.098l-3.292-.927a1.142 1.142 0 0 0-.359-.06.38.38 0 0 0-.219.105l-.081-.06zm6.361-7.052c.587-.472 1.18-.687 1.778-.647.631.04 1.157.322 1.58.847.258.323.414.693.464 1.114.097.818-.24 1.539-1.017 2.163-.582.469-1.173.682-1.771.642a2.13 2.13 0 0 1-.91-.271c-.25-.14-.47-.327-.654-.557a2.217 2.217 0 0 1-.484-1.131c-.1-.8.238-1.519 1.014-2.16m4.742-3.031.044.092c-.072.06-.09.123-.06.19.023.046.074.083.154.112l3.223 1.201-1.11-2.312a.22.22 0 0 0-.104-.112.332.332 0 0 0-.178-.005l-.044-.091 1.144-.55.044.09a.336.336 0 0 0-.107.144c-.013.044-.005.094.023.15l1.585 3.298c.029.06.063.098.104.116.042.018.101.02.178.005l.046.091-1.227.59-.044-.09c.07-.056.091-.116.06-.181-.019-.039-.096-.083-.235-.133l-3.269-1.204 1.139 2.369c.029.06.063.096.104.114.042.018.101.02.178.006l.046.09-1.144.55-.046-.09c.061-.053.097-.1.108-.144.012-.042.004-.095-.024-.153l-1.586-3.297a.208.208 0 0 0-.102-.113.325.325 0 0 0-.179-.006l-.044-.09zm7.826-2.744.016.1a.322.322 0 0 0-.144.104.226.226 0 0 0-.02.156l.34 2.13c.04.247.082.426.128.54a.638.638 0 0 0 .2.27c.234.18.592.232 1.074.155.487-.076.812-.237.977-.483a.655.655 0 0 0 .102-.32 2.66 2.66 0 0 0-.047-.552L-.8 23.2c-.01-.066-.033-.113-.067-.14a.322.322 0 0 0-.171-.057l-.015-.1 1.26-.2.017.099a.328.328 0 0 0-.145.106c-.025.038-.031.09-.02.153l.381 2.392c.073.453.044.805-.086 1.057-.236.452-.823.754-1.764.904-.68.109-1.217.083-1.611-.079a1.009 1.009 0 0 1-.521-.449 2.252 2.252 0 0 1-.243-.756l-.383-2.391c-.01-.065-.033-.112-.069-.14a.338.338 0 0 0-.17-.057l-.016-.1zm4.69 3.595a.332.332 0 0 0 .163-.073c.032-.032.05-.078.054-.145l.229-3.649c.005-.062-.007-.113-.036-.147a.327.327 0 0 0-.153-.092l.007-.102 1.465.092-.007.102c-.091.017-.14.062-.143.136-.004.051.022.108.077.173l2.223 2.62.16-2.556c.004-.063-.007-.111-.036-.147-.027-.037-.079-.068-.153-.094l.005-.1 1.27.08-.008.1a.344.344 0 0 0-.164.073c-.031.032-.05.079-.053.142l-.23 3.65a.228.228 0 0 0 .035.15c.03.035.08.067.155.092l-.006.103-1.36-.087.008-.1c.09-.015.137-.058.141-.128.003-.043-.044-.119-.14-.23l-2.26-2.646-.165 2.62c-.004.064.007.115.035.15.029.037.08.067.154.092l-.007.102-1.267-.079zm5.63.557c.08-.004.14-.02.175-.047.036-.026.06-.072.076-.135l.796-3.572a.217.217 0 0 0-.012-.151c-.02-.04-.068-.079-.138-.116l.022-.097 1.319.294-.022.098a.295.295 0 0 0-.174.044.221.221 0 0 0-.074.133l-.797 3.572c-.013.065-.01.116.013.159.022.04.067.076.136.111l-.022.098-1.319-.295zm3.22-3.668 1.436.548-.035.094c-.142-.025-.228.007-.26.09a.675.675 0 0 0-.021.26l.168 2.778 1.974-1.964a.645.645 0 0 0 .156-.208c.033-.084-.01-.164-.13-.24l.035-.095 1.38.525-.036.095c-.091-.022-.16-.019-.209.006-.048.025-.147.112-.299.259l-2.546 2.486c-.108.105-.17.178-.183.216-.04.1 0 .184.118.248l-.037.097-1.39-.53.037-.094c.13.03.216-.008.255-.11.013-.036.015-.132.005-.282l-.252-3.55c-.014-.21-.03-.341-.051-.39-.02-.05-.07-.097-.153-.143zm5.81 2.392 3.247 2.06a.216.216 0 0 0 .149.04.338.338 0 0 0 .153-.09l.084.054-.598.944-.084-.054c.022-.074.027-.133.014-.176-.011-.044-.045-.083-.098-.117l-2.281-1.447-.55.867 1.479.938c.054.033.103.048.147.04a.323.323 0 0 0 .155-.09l.084.054-.586.922-.083-.054a.341.341 0 0 0 .014-.176c-.01-.045-.044-.084-.098-.117l-1.478-.939-.634 1 2.345 1.486c.054.035.102.049.146.042a.329.329 0 0 0 .155-.09l.084.054-.598.944-.086-.054a.325.325 0 0 0 .017-.178c-.013-.044-.047-.082-.1-.115L13.95 29.75l.053-.084c.076.023.135.029.178.015.044-.012.083-.047.117-.1l1.96-3.09c.034-.055.05-.105.043-.149a.332.332 0 0 0-.091-.154zm4.761 3.325.07-.073 1.937 1.888c.236.229.41.426.52.587.112.163.187.328.223.495a.997.997 0 0 1-.043.58c-.07.185-.18.351-.323.499-.491.503-1.06.525-1.703.064l-.234 1.44a2.748 2.748 0 0 0-.051.516.402.402 0 0 0 .112.247l-.072.073-1.116-1.088.071-.073c.089.062.153.073.195.03.026-.027.055-.127.085-.3l.263-1.522-.827-.805-1 1.026a.219.219 0 0 0-.07.137.308.308 0 0 0 .055.168l-.07.072-.966-.94.071-.073a.322.322 0 0 0 .171.05c.044-.003.088-.027.132-.072l2.555-2.62c.046-.047.07-.09.07-.136a.313.313 0 0 0-.055-.17m3.243 5.08c.3-.204.621-.27.96-.199.446.095.853.414 1.226.956.155.23.277.458.365.687.088.228.17.532.248.91.029.129.05.205.066.228.023.036.073.065.147.087l.011.1-1.131.148-.008-.102c.019-.01.033-.02.044-.026.06-.04.088-.134.087-.283.004-.456-.137-.894-.423-1.313a1.934 1.934 0 0 0-.4-.441.706.706 0 0 0-.328-.143.396.396 0 0 0-.292.06c-.134.09-.17.233-.106.43.031.1.127.297.288.591l.238.439c.14.262.24.483.298.664.058.182.085.358.084.532a1.09 1.09 0 0 1-.146.51c-.093.164-.217.3-.375.408a1.23 1.23 0 0 1-.834.213c-.277-.024-.563-.162-.86-.412a3.365 3.365 0 0 1-.602-.674 3.8 3.8 0 0 1-.614-1.629.928.928 0 0 0-.051-.221c-.016-.022-.058-.046-.13-.068l-.014-.103 1.14-.211.015.1-.033.024c-.079.053-.125.14-.14.26-.024.183.008.416.097.704.088.287.206.536.35.75.159.23.332.402.524.513.105.06.21.093.32.097a.432.432 0 0 0 .28-.073c.118-.08.158-.2.122-.362-.026-.113-.117-.314-.271-.604l-.233-.43a6.483 6.483 0 0 1-.313-.628 1.872 1.872 0 0 1-.106-.417c-.03-.213.003-.418.098-.615.085-.18.219-.33.402-.456m-7.716 41.33-1.777-3.378a.225.225 0 0 0-.112-.114.324.324 0 0 0-.182-.004l-.043-.079 1.13-.595.043.079c-.058.052-.092.101-.102.15-.01.045 0 .098.03.157l.616 1.168.611-.32c.058-.032.096-.068.114-.112a.33.33 0 0 0 .004-.184l.079-.04.486.921-.08.041c-.055-.058-.104-.092-.15-.102-.047-.01-.099 0-.16.033l-.61.322.87 1.653c.031.06.07.098.113.115a.362.362 0 0 0 .181.003l.042.077-1.13.597-.042-.079a.321.321 0 0 0 .102-.151c.01-.046-.001-.098-.033-.157m5.857-14.376v.622c-.21-.072-.424-.141-.64-.21C18.109 68.783 10.85 73.49 2.49 73.49c-8.366 0-15.63-4.714-19.287-11.627-.232.074-.466.148-.692.226v-.622c.11-.094.233-.185.349-.277a21.722 21.722 0 0 1-2.179-9.508c0-12.046 9.765-21.81 21.809-21.81s21.809 9.764 21.809 21.81c0 3.421-.79 6.66-2.196 9.543.101.08.209.16.305.242m5.639-23.046a.326.326 0 0 0 .003-.178l.09-.045.602 1.207-.091.045c-.05-.06-.098-.095-.142-.105-.046-.012-.095-.004-.152.025l-3.274 1.629c-.06.029-.097.065-.115.109a.31.31 0 0 0-.002.176l-.09.044-.6-1.207.089-.045c.054.059.102.093.145.104a.22.22 0 0 0 .152-.026l3.275-1.63c.056-.027.093-.06.11-.103m1.396 1.901a.349.349 0 0 0-.123.131c-.016.04-.015.09.006.15l1.17 3.43c.022.061.05.104.09.124.038.024.097.032.177.028l.032.095-1.057.361-.032-.095c.066-.044.106-.088.121-.13.018-.04.016-.092-.005-.154l-.433-1.265-3.1 1.058a.223.223 0 0 0-.126.09.33.33 0 0 0-.026.175l-.096.033-.436-1.274.097-.034a.313.313 0 0 0 .128.122c.041.018.092.015.154-.006l3.1-1.06-.433-1.267a.223.223 0 0 0-.089-.124.315.315 0 0 0-.176-.027l-.032-.095 1.056-.36zM2.49 19.208c-17.905 0-32.474 14.568-32.474 32.473 0 17.904 14.569 32.472 32.474 32.472 17.906 0 32.473-14.568 32.473-32.472 0-17.905-14.567-32.473-32.473-32.473" style="fill:#fff;fill-opacity:1;fill-rule:nonzero;stroke:none;stroke-width:.352778" transform="matrix(2.73305 0 0 2.73305 84.511 -49.924)"/><path d="M5.02 63.01c.026-.02.048-.065.065-.124h.082v.66l-1.555 2.558c-.061.1-.091.165-.091.193 0 .05.047.092.142.124v.082h-1.24v-.082a.442.442 0 0 0 .183-.095 1.12 1.12 0 0 0 .168-.222l1.547-2.487H2.166c-.052 0-.092.01-.118.034-.028.022-.05.065-.067.125H1.9v-.89h.082c.017.06.039.104.067.124.026.025.066.036.118.036h2.735c.053 0 .091-.01.119-.036m.586-.124h.082c.015.06.038.104.065.124.026.025.068.036.12.036h2.734c.052 0 .092-.01.12-.036.026-.02.048-.064.065-.124h.082v.66L7.32 66.104c-.061.1-.091.165-.091.193 0 .05.046.092.142.124v.083H6.13v-.083a.442.442 0 0 0 .183-.095 1.12 1.12 0 0 0 .168-.222l1.546-2.487H5.873c-.052 0-.094.01-.12.034-.027.022-.05.065-.065.126h-.082Zm-4.567 3.161c-.345.345-.791.517-1.341.517a2.39 2.39 0 0 1-.52-.052 3.064 3.064 0 0 1-.541-.189.456.456 0 0 0-.165-.048.144.144 0 0 0-.086.033.403.403 0 0 1-.05.039l-.067-.043.45-.828.07.034a.465.465 0 0 0-.014.1c0 .068.052.134.16.202.09.057.206.102.348.138.142.037.277.055.405.055.281 0 .523-.073.721-.222a.917.917 0 0 0 .29-.347c.063-.135.104-.313.118-.533-.17.151-.343.261-.517.327-.175.068-.377.101-.608.101-.366 0-.679-.087-.94-.262a1.037 1.037 0 0 1-.35-.386 1.068 1.068 0 0 1-.123-.505c0-.363.153-.656.454-.873.294-.212.666-.32 1.115-.32.49 0 .872.123 1.15.371.184.162.32.37.41.623.087.243.13.495.13.76 0 .541-.167.975-.5 1.309m-3.747-2.919a.247.247 0 0 0-.126.063c-.023.026-.034.066-.034.118v2.926c0 .053.01.093.034.119.024.027.065.05.126.066v.083h-1.052v-.083a.247.247 0 0 0 .125-.066c.025-.026.035-.066.035-.119V64.05l-.237.06a.243.243 0 0 0-.121.058.316.316 0 0 0-.062.126h-.082v-.915h.082a.35.35 0 0 0 .053.122c.017.018.043.027.079.027.016 0 .04-.003.07-.01l.218-.056v-.15c0-.05-.01-.09-.035-.116a.237.237 0 0 0-.125-.066v-.083h1.052zm-14.088-1.268C-13.14 68.775-5.877 73.49 2.49 73.49c8.359 0 15.619-4.706 19.279-11.611-5.147-1.67-11.904-2.687-19.308-2.687-7.384 0-14.118 1.01-19.258 2.67" style="fill:#d10f45;fill-opacity:1;fill-rule:nonzero;stroke:none;stroke-width:.352778" transform="matrix(2.73305 0 0 2.73305 84.511 -49.924)"/><path d="M19.445 40.467c-.186.229-.28.551-.28.969l-.005.06c-.014.484-.025 1.12-.032 1.912v3.315c0 1.702-.124 2.905-.365 3.612-.525 1.492-1.676 2.576-3.455 3.245-1.079.415-2.295.623-3.654.623-2.37 0-4.268-.59-5.693-1.767-.694-.578-1.171-1.245-1.437-2.009-.267-.76-.398-1.86-.398-3.299 0-.562.018-1.485.055-2.77.022-.908.031-2.009.031-2.3l-.001-.307v-.309c0-.417-.092-.737-.271-.959-.18-.222-.5-.406-.96-.552v-.56h7.82v.56c-.446.118-.764.295-.949.522-.184.23-.28.551-.28.969v.878c-.005.742-.035 2.615-.088 4.62-.037 1.323.306 2.332 1.031 3.024.59.569 1.348.854 2.28.854a3.7 3.7 0 0 0 1.605-.342c.48-.226.846-.536 1.097-.929.197-.299.335-.633.409-1.004.073-.37.11-.872.11-1.51v-2.54c-.02-1.125-.047-2.48-.08-3.066l-.005-.087c-.017-.35-.108-.626-.269-.823-.176-.222-.5-.406-.958-.554v-.557h5.693v.557c-.448.12-.765.296-.95.524m-18.048-.42c-.445.141-.764.348-.949.614 0 0-.066.102-.094.163-.07.161-.13.412-.173.76-.03.228-.068 1.227-.11 3.003-.017.685-.03 1.11-.04 1.388v.233c.009.552.024 1.153.04 1.804.042 1.774.08 2.776.11 3.001.044.349.103.6.173.76.028.061.094.165.094.165.185.267.504.472.95.611v.656h-7.741v-.656c.46-.172.783-.388.96-.647.072-.105.13-.228.173-.37l.007-.017c.022-.076.042-.159.059-.246.087-.468.132-1.298.132-2.487 0-.397-.092-.645-.278-.744-.183-.1-.655-.148-1.415-.148-.836 0-1.363.009-1.59.026-.225.018-.393.072-.505.163-.19.145-.287.532-.287 1.163 0 1.072.038 1.783.117 2.136.078.351.26.635.548.852l.024.021c.17.118.38.217.627.294v.66h-7.707v-.66c.464-.174.79-.391.969-.655.182-.259.273-.638.273-1.13l.002-.762c0-.306.016-1.539.043-3.7a635.89 635.89 0 0 1-.043-3.7l-.002-.759c0-.495-.091-.872-.273-1.133-.18-.262-.505-.48-.969-.654v-.66h7.707v.66a2.306 2.306 0 0 0-.627.295l-.024.02c-.288.218-.47.502-.548.853-.08.352-.117 1.064-.117 2.136 0 .631.097 1.019.287 1.163.112.09.28.145.506.162.226.02.753.027 1.589.027.76 0 1.232-.05 1.415-.147.186-.1.278-.349.278-.744 0-1.191-.045-2.02-.132-2.488a2.819 2.819 0 0 0-.06-.246l-.006-.018c-.043-.141-.1-.264-.173-.37-.177-.259-.5-.474-.96-.647v-.655h7.74ZM2.49 29.872c-12.044 0-21.809 9.763-21.809 21.809 0 3.41.784 6.634 2.179 9.508 4.026-3.226 11.291-5.382 19.6-5.382 8.335 0 15.625 2.173 19.643 5.417A21.716 21.716 0 0 0 24.3 51.68c0-12.046-9.765-21.809-21.81-21.809" style="fill:#006123;fill-opacity:1;fill-rule:nonzero;stroke:none;stroke-width:.352778" transform="matrix(2.73305 0 0 2.73305 84.511 -49.924)"/><path d="M-.172 63.556c-.26 0-.47.063-.632.189a.497.497 0 0 0-.204.412c0 .165.068.3.204.406.16.127.371.19.632.19.26 0 .474-.063.633-.19a.492.492 0 0 0 .204-.402c0-.171-.069-.31-.204-.416-.157-.124-.369-.188-.633-.19" style="fill:#d10f45;fill-opacity:1;fill-rule:nonzero;stroke:none;stroke-width:.352778" transform="matrix(2.73305 0 0 2.73305 84.511 -49.924)"/><path d="M22.408 62.087v-.622c-.096-.082-.204-.16-.305-.242-.107.22-.22.438-.334.654.215.07.43.138.639.21M-17.489 61.465v.622c.226-.077.46-.152.692-.226a25.718 25.718 0 0 1-.343-.673c-.116.093-.239.184-.349.277" style="fill:#fff;fill-opacity:1;fill-rule:nonzero;stroke:none;stroke-width:.352778" transform="matrix(2.73305 0 0 2.73305 84.511 -49.924)"/><path d="M-17.14 61.188c.11.226.226.45.343.673 5.14-1.66 11.874-2.67 19.258-2.67 7.404 0 14.16 1.016 19.308 2.686.114-.216.227-.434.334-.654-4.018-3.244-11.308-5.417-19.642-5.417-8.31 0-15.575 2.156-19.601 5.382M14.703 39.386v.557c.458.148.782.332.958.554.161.197.252.473.269.823l.005.087c.033.587.06 1.941.08 3.066v2.54c0 .638-.037 1.14-.11 1.51-.074.37-.212.705-.41 1.004-.25.393-.617.703-1.096.93a3.7 3.7 0 0 1-1.606.341c-.931 0-1.689-.285-2.279-.854-.725-.692-1.068-1.7-1.03-3.024.052-2.005.082-3.878.086-4.62l.002-.27v-.608c0-.418.095-.739.28-.969.184-.227.502-.404.949-.522v-.56H2.979v.56c.46.146.781.33.96.552.18.222.272.542.272.96v.308l.001.307c0 .291-.01 1.392-.031 2.3a107.767 107.767 0 0 0-.055 2.77c0 1.439.13 2.539.398 3.3.266.763.743 1.43 1.437 2.008 1.425 1.177 3.323 1.767 5.693 1.767 1.359 0 2.575-.208 3.654-.623 1.78-.67 2.93-1.753 3.455-3.245.241-.707.365-1.91.365-3.612v-3.315c.007-.791.018-1.428.032-1.912l.006-.06c0-.418.093-.74.28-.97.185-.227.502-.403.95-.523v-.557zM-6.342 40.048c.46.174.783.389.96.648.072.106.13.228.173.369l.007.018c.022.077.042.16.059.247.087.467.132 1.296.132 2.487 0 .395-.092.643-.278.744-.183.098-.655.147-1.415.147-.835 0-1.363-.008-1.59-.027-.225-.017-.393-.072-.505-.161-.19-.145-.287-.532-.287-1.163 0-1.072.038-1.785.117-2.136.078-.352.26-.636.548-.853l.024-.021c.17-.119.38-.216.627-.295v-.66h-7.707v.66c.464.174.79.393.969.655.182.26.273.638.273 1.132l.002.76c0 .307.016 1.54.043 3.7v-.005.01-.006c-.027 2.161-.043 3.394-.043 3.7l-.002.761c0 .493-.091.872-.273 1.131-.18.264-.505.481-.969.655v.66h7.707v-.66a2.304 2.304 0 0 1-.627-.294l-.024-.021a1.41 1.41 0 0 1-.548-.852c-.08-.353-.117-1.064-.117-2.136 0-.631.097-1.018.287-1.163.112-.091.28-.145.506-.163.226-.018.754-.026 1.589-.026.76 0 1.232.049 1.415.148.186.099.278.347.278.744 0 1.19-.045 2.019-.132 2.487-.017.087-.037.17-.06.246l-.006.018c-.043.141-.1.264-.172.369-.178.259-.5.475-.961.647v.656h7.74v-.656c-.445-.139-.764-.344-.949-.611 0 0-.066-.104-.094-.164-.07-.16-.13-.412-.173-.761-.03-.225-.068-1.227-.11-3.001-.016-.65-.03-1.252-.04-1.804v-.233c.01-.279.023-.703.04-1.388.042-1.776.08-2.775.11-3.003.044-.348.103-.6.173-.76.028-.06.094-.163.094-.163.185-.266.504-.473.95-.613v-.655h-7.741zM-3.76 63.129c.06.015.101.038.125.066.024.026.034.066.034.116v.15l-.218.055a.263.263 0 0 1-.07.01c-.036 0-.062-.009-.079-.027a.35.35 0 0 1-.053-.12h-.082v.914h.082a.317.317 0 0 1 .062-.127.244.244 0 0 1 .12-.058l.238-.059v2.187c0 .052-.01.092-.034.119a.248.248 0 0 1-.126.066v.082h1.052v-.082a.247.247 0 0 1-.126-.066c-.023-.026-.034-.067-.034-.119V63.31c0-.05.01-.09.034-.117a.247.247 0 0 1 .126-.063v-.083h-1.052zM.461 64.563c-.16.127-.373.19-.633.19s-.472-.063-.632-.19a.492.492 0 0 1-.204-.406c0-.17.068-.306.204-.412.162-.126.372-.19.632-.19.264 0 .476.066.633.19a.506.506 0 0 1 .204.416.492.492 0 0 1-.204.402m.536-1.207c-.277-.248-.66-.37-1.149-.37-.45 0-.821.107-1.115.32-.301.215-.454.509-.454.871 0 .184.04.352.122.506.084.159.201.288.35.386.262.175.575.262.941.262.23 0 .433-.033.608-.1.174-.067.346-.177.517-.329-.014.22-.055.398-.117.533a.917.917 0 0 1-.291.348c-.198.149-.44.222-.72.222a1.6 1.6 0 0 1-.406-.055 1.207 1.207 0 0 1-.347-.138c-.109-.068-.161-.134-.161-.203 0-.025.004-.056.013-.1l-.07-.034-.449.829.067.042a.46.46 0 0 0 .05-.038.144.144 0 0 1 .086-.033c.038 0 .093.016.165.048.207.09.389.154.541.189.155.034.327.052.52.052.55 0 .996-.172 1.34-.517.333-.333.5-.767.5-1.308 0-.266-.043-.518-.13-.76a1.448 1.448 0 0 0-.41-.623M2.048 63.01c-.028-.02-.05-.065-.067-.124H1.9v.89h.082c.017-.06.039-.103.067-.125.026-.023.066-.035.118-.035h2.155l-1.547 2.488a1.12 1.12 0 0 1-.168.222.44.44 0 0 1-.182.095v.082h1.239v-.082c-.095-.032-.142-.073-.142-.124 0-.028.03-.093.09-.193l1.556-2.558v-.66h-.082c-.017.06-.039.103-.065.124-.028.025-.066.036-.119.036H2.166c-.052 0-.092-.011-.118-.036M5.753 63.65c.026-.022.068-.034.12-.034h2.154L6.48 66.104a1.12 1.12 0 0 1-.168.222.44.44 0 0 1-.182.095v.082H7.37v-.082c-.096-.032-.142-.073-.142-.124 0-.028.03-.093.09-.193l1.556-2.558v-.66h-.082c-.017.06-.039.103-.065.124-.028.025-.068.036-.12.036H5.873c-.052 0-.094-.011-.12-.036-.027-.02-.05-.065-.065-.124h-.082v.89h.082c.015-.06.038-.103.065-.125" style="fill:#fff;fill-opacity:1;fill-rule:nonzero;stroke:none;stroke-width:.352778" transform="matrix(2.73305 0 0 2.73305 84.511 -49.924)"/><path d="M2.49 84.152c-17.905 0-32.474-14.567-32.474-32.472S-15.415 19.208 2.49 19.208c17.906 0 32.473 14.567 32.473 32.472S20.396 84.152 2.49 84.152m0-65.885c-18.424 0-33.412 14.989-33.412 33.413 0 18.423 14.988 33.412 33.412 33.412s33.413-14.99 33.413-33.412c0-18.424-14.989-33.413-33.413-33.413" style="fill:#006123;fill-opacity:1;fill-rule:nonzero;stroke:none;stroke-width:.352778" transform="matrix(2.73305 0 0 2.73305 84.511 -49.924)"/><path d="M-22.369 49.773a.34.34 0 0 1 .057.17l.098.017.222-1.331-.098-.017a.306.306 0 0 1-.106.144.224.224 0 0 1-.153.022l-1.538-.26.412-2.455 1.538.258a.21.21 0 0 1 .138.07.314.314 0 0 1 .053.168l.098.017.223-1.33-.097-.017a.33.33 0 0 1-.108.143c-.039.025-.09.03-.152.02l-3.611-.605a.215.215 0 0 1-.138-.068.328.328 0 0 1-.054-.17l-.1-.017-.222 1.331.099.017c.032-.073.067-.121.106-.144.039-.024.09-.03.153-.02l1.371.23-.412 2.455-1.371-.23a.216.216 0 0 1-.138-.069c-.029-.034-.047-.09-.054-.17l-.097-.016-.224 1.332.1.016a.326.326 0 0 1 .107-.145.212.212 0 0 1 .15-.019l3.613.605c.062.01.108.033.135.067M-23.685 40.889c.162-.384.407-.658.734-.823.383-.193.799-.197 1.25-.013.185.078.35.187.496.328.16.159.278.342.35.549.122.344.104.71-.054 1.094-.159.386-.403.659-.733.819-.392.191-.802.198-1.234.02-.432-.178-.719-.473-.864-.882-.12-.347-.103-.712.055-1.093m.441 2.864c.275.112.554.17.842.17.328.004.637-.063.93-.199.542-.254.957-.726 1.24-1.417.381-.92.329-1.717-.152-2.386a2.143 2.143 0 0 0-.943-.751c-.624-.258-1.222-.251-1.793.018-.544.253-.96.729-1.247 1.424-.37.935-.32 1.729.153 2.38.247.342.57.596.97.761M-22.617 37.21c.076-.006.195.014.359.06l3.292.927c.161.046.253.079.278.098.093.07.108.17.046.3l.08.06.835-1.112-.08-.061c-.126.102-.228.123-.305.063-.027-.019-.076-.09-.142-.213l-1.4-2.284 2.523.706c.16.037.255.069.287.092.095.072.107.174.037.305l.079.062.847-1.126-.081-.06c-.11.104-.205.125-.288.063-.041-.03-.105-.116-.19-.254l-1.805-2.905c-.096-.153-.15-.259-.162-.318-.013-.06 0-.14.04-.243l-.08-.06-.891 1.186.08.06c.114-.102.21-.127.282-.07.044.031.098.1.161.202l1.286 2.031-2.355-.671a.726.726 0 0 1-.185-.07c-.08-.061-.09-.159-.035-.297l-.08-.062-.943 1.256.08.06c.107-.097.2-.115.277-.058.025.02.066.075.121.167l1.283 2.118-2.342-.689a.63.63 0 0 1-.198-.085c-.075-.057-.085-.146-.028-.27l-.082-.062-.901 1.2.081.06a.38.38 0 0 1 .22-.105M-15.764 30.505c.061-.362.253-.671.572-.93.327-.257.673-.378 1.038-.364.429.014.795.21 1.102.591.124.156.217.33.275.524.063.218.078.435.042.649-.058.361-.25.671-.573.931-.324.26-.67.384-1.036.364-.433-.02-.797-.213-1.089-.577-.293-.364-.404-.76-.33-1.188m-.422 1.79c.184.23.403.416.654.557.287.16.59.25.91.271.598.04 1.189-.173 1.77-.642.778-.624 1.115-1.345 1.018-2.163a2.153 2.153 0 0 0-.463-1.114c-.424-.525-.95-.807-1.581-.847-.598-.04-1.19.175-1.778.647-.776.641-1.113 1.36-1.014 2.16.052.417.214.795.484 1.131M-12.013 26.706a.209.209 0 0 1 .102.113l1.587 3.297c.027.058.035.11.023.153a.315.315 0 0 1-.108.144l.046.09 1.144-.55-.046-.09a.32.32 0 0 1-.178-.006c-.04-.018-.075-.055-.104-.114l-1.139-2.369 3.27 1.204c.138.05.216.094.235.133.03.064.01.125-.06.18l.043.091 1.227-.59-.046-.09a.32.32 0 0 1-.178-.006c-.04-.018-.075-.057-.104-.116l-1.585-3.298c-.028-.056-.036-.106-.023-.15a.336.336 0 0 1 .107-.143l-.044-.091-1.144.55.044.09a.333.333 0 0 1 .178.006.22.22 0 0 1 .105.112l1.11 2.312-3.224-1.201c-.08-.03-.131-.067-.153-.112-.032-.068-.012-.13.06-.19l-.045-.092-1.323.636.044.091a.326.326 0 0 1 .18.006M-4.238 23.598c.036.03.058.076.07.14l.382 2.392c.047.3.128.552.243.756.116.207.29.356.52.45.395.16.932.187 1.612.078.94-.15 1.528-.452 1.764-.904.13-.252.16-.604.086-1.057l-.381-2.392c-.011-.064-.004-.115.02-.153a.327.327 0 0 1 .145-.106l-.017-.1-1.26.202.015.099a.32.32 0 0 1 .17.056c.035.028.058.075.068.141l.34 2.13c.04.246.056.43.047.552a.655.655 0 0 1-.102.32c-.165.245-.49.406-.977.482-.482.077-.84.026-1.073-.155a.638.638 0 0 1-.201-.27 2.784 2.784 0 0 1-.128-.54l-.34-2.13a.226.226 0 0 1 .02-.156.322.322 0 0 1 .145-.105l-.017-.099-1.337.214.017.099c.08.01.135.029.17.056M2.87 26.903a.327.327 0 0 1-.154-.091c-.028-.036-.039-.087-.035-.152l.164-2.62 2.26 2.646c.097.112.144.188.141.23-.004.07-.051.114-.14.129l-.009.1 1.36.087.006-.103a.339.339 0 0 1-.155-.091.229.229 0 0 1-.034-.152l.229-3.649c.004-.063.022-.11.053-.142a.343.343 0 0 1 .164-.073l.007-.1-1.269-.08-.005.1c.074.026.126.057.153.094.029.036.04.084.035.147l-.16 2.557-2.222-2.621c-.055-.065-.081-.122-.077-.173.004-.074.052-.12.143-.136l.007-.102-1.465-.092-.007.102a.326.326 0 0 1 .153.092c.029.035.041.085.036.147l-.229 3.65c-.004.066-.022.113-.054.144a.33.33 0 0 1-.164.073l-.006.102 1.267.079zM8.553 27.675c-.069-.036-.114-.072-.136-.112-.024-.043-.026-.094-.013-.159l.797-3.571a.222.222 0 0 1 .074-.134.305.305 0 0 1 .174-.044l.022-.098-1.319-.294-.022.097c.07.037.117.076.138.116.02.038.026.09.012.151L7.484 27.2c-.015.063-.04.109-.076.135-.036.028-.095.043-.175.047l-.02.096 1.318.295zM10.568 23.951c.02.05.037.18.05.391l.253 3.55c.01.15.008.246-.005.283-.039.102-.124.139-.255.109l-.036.095 1.389.529.037-.097c-.118-.064-.158-.147-.118-.248.013-.038.075-.111.183-.216l2.546-2.486c.152-.147.251-.234.3-.259.048-.025.117-.028.208-.006l.037-.095-1.381-.525-.036.095c.12.076.164.156.131.24a.645.645 0 0 1-.156.208l-1.974 1.964-.168-2.778a.675.675 0 0 1 .022-.26c.031-.083.117-.115.259-.09l.035-.094-1.437-.548-.037.096c.083.046.134.092.153.142M16.258 26.492l-1.96 3.09c-.034.053-.073.088-.117.1-.043.014-.102.008-.178-.015l-.053.084 3.312 2.102c.053.033.087.071.1.115a.325.325 0 0 1-.017.178l.086.054.598-.944-.084-.054a.327.327 0 0 1-.155.09c-.044.007-.092-.007-.146-.041L15.3 29.764l.634-1 1.478.939c.054.033.087.072.098.117a.34.34 0 0 1-.014.176l.083.054.586-.922-.084-.053a.321.321 0 0 1-.155.09c-.044.008-.093-.008-.147-.04l-1.479-.94.55-.866 2.28 1.447c.054.034.087.073.099.117.013.043.008.102-.014.176l.084.054.598-.944-.084-.054a.336.336 0 0 1-.153.09c-.046.007-.094-.006-.149-.04l-3.247-2.06-.053.084c.053.058.082.11.09.154.007.044-.008.094-.042.15M21.419 30.668l1.043 1.017c.157.153.262.263.314.33a.703.703 0 0 1 .118.228c.054.173.003.34-.154.503-.158.16-.324.216-.499.166a.742.742 0 0 1-.23-.113 3.663 3.663 0 0 1-.339-.306l-1.043-1.015zm-2.965 1.688c-.044.045-.088.07-.132.073a.321.321 0 0 1-.17-.051l-.072.073.966.94.07-.072a.308.308 0 0 1-.055-.168.219.219 0 0 1 .07-.137l1-1.026.827.805-.263 1.522c-.03.173-.06.273-.085.3-.042.043-.106.032-.195-.03l-.071.073 1.116 1.088.072-.073a.402.402 0 0 1-.112-.247c-.006-.091.01-.263.051-.515l.234-1.44c.644.46 1.212.438 1.704-.065.143-.148.252-.314.322-.5a.997.997 0 0 0 .043-.58 1.395 1.395 0 0 0-.222-.494 4.222 4.222 0 0 0-.521-.587l-1.936-1.888-.07.073c.04.068.057.124.055.17-.002.045-.025.09-.07.136zM23.873 36c.05.127.154.337.313.626l.233.432c.154.289.245.49.271.603.036.161-.004.283-.123.363a.432.432 0 0 1-.28.073.685.685 0 0 1-.319-.098 1.66 1.66 0 0 1-.524-.513 2.79 2.79 0 0 1-.35-.75c-.09-.288-.121-.52-.098-.704.016-.12.062-.206.141-.26l.033-.023-.015-.101-1.14.21.014.104c.072.022.114.046.13.068a.93.93 0 0 1 .05.222 3.8 3.8 0 0 0 .615 1.628c.18.264.382.488.602.674.297.25.583.388.86.412a1.23 1.23 0 0 0 .834-.213c.158-.108.283-.244.375-.408.092-.163.14-.334.146-.51a1.698 1.698 0 0 0-.084-.532 4.142 4.142 0 0 0-.298-.664l-.238-.438c-.161-.295-.257-.492-.288-.592-.064-.197-.028-.34.106-.43a.396.396 0 0 1 .292-.06.706.706 0 0 1 .328.143c.14.109.274.258.4.441.286.419.427.857.423 1.313.001.15-.028.243-.087.283-.011.007-.025.016-.044.026l.008.102 1.131-.147-.01-.101c-.075-.022-.125-.051-.148-.087a1.04 1.04 0 0 1-.066-.227 5.863 5.863 0 0 0-.248-.911 3.387 3.387 0 0 0-.365-.686c-.372-.543-.78-.862-1.225-.957a1.201 1.201 0 0 0-.961.2 1.151 1.151 0 0 0-.402.456 1.047 1.047 0 0 0-.098.615c.02.149.056.29.106.417M24.51 40.179a.324.324 0 0 1-.145-.105l-.09.046.601 1.207.09-.044a.31.31 0 0 1 .002-.177c.018-.044.056-.08.115-.109l3.274-1.628c.057-.03.106-.038.152-.025.044.01.092.045.142.105l.09-.046-.6-1.207-.091.045a.325.325 0 0 1-.003.178c-.017.043-.054.076-.11.104l-3.274 1.63c-.06.029-.11.037-.153.026M28.386 40.682c.08-.006.14.004.176.026a.223.223 0 0 1 .089.124l.432 1.268-3.099 1.06c-.062.02-.113.023-.154.005a.313.313 0 0 1-.128-.121l-.097.033.436 1.275.096-.033a.33.33 0 0 1 .026-.175.223.223 0 0 1 .127-.09l3.1-1.058.432 1.265c.02.062.023.113.005.154-.015.041-.055.085-.12.13l.03.095 1.058-.361-.032-.096c-.08.005-.14-.004-.178-.027-.038-.02-.067-.063-.09-.125l-1.17-3.429c-.02-.06-.021-.11-.005-.15a.349.349 0 0 1 .123-.131l-.033-.095-1.056.36zM31.295 48.516l-.1.014a.292.292 0 0 1-.047.162.159.159 0 0 1-.116.073c-.044.006-.134-.026-.268-.095l-1.252-.638 1.043-.923c.114-.103.192-.157.229-.163.107-.013.182.049.223.185l.1-.014-.227-1.69-.1.013a.468.468 0 0 1-.072.258 2.07 2.07 0 0 1-.3.325l-1.759 1.644-1.462.197c-.065.007-.116 0-.154-.027a.336.336 0 0 1-.102-.15l-.1.016.178 1.34.1-.014a.33.33 0 0 1 .063-.168c.029-.035.076-.056.14-.064l1.463-.197 2.13 1.122c.183.096.309.175.373.234.07.06.115.138.14.229l.1-.012zM-24.404 57.107a1.261 1.261 0 1 0 0 2.522 1.261 1.261 0 0 0 0-2.522M29.816 57.107a1.26 1.26 0 1 0 .001 2.52 1.26 1.26 0 0 0 0-2.52M20.794 68.863l2.475-3.184 2.41 1.876c.053.041.085.084.094.13.01.045 0 .106-.03.179l.07.055.784-1.009-.07-.054a.35.35 0 0 1-.168.072c-.046.004-.094-.017-.148-.058l-2.669-2.075a.24.24 0 0 1-.095-.133.326.326 0 0 1 .032-.177l-.07-.054-3.133 4.03a.246.246 0 0 1-.132.096.318.318 0 0 1-.18-.03l-.054.07.843.654.054-.07a.346.346 0 0 1-.073-.168c-.004-.046.018-.095.06-.15" style="fill:#006123;fill-opacity:1;fill-rule:nonzero;stroke:none;stroke-width:.352778" transform="matrix(2.73305 0 0 2.73305 84.511 -49.924)"/><path d="M27.177 67.176a.333.333 0 0 1 .075.165c.001.047-.02.097-.06.152l-1.147 1.476-1.925-1.498c-.054-.041-.086-.086-.096-.132-.01-.049.002-.107.032-.178l-.071-.055-.785 1.008.07.056a.345.345 0 0 1 .17-.072.23.23 0 0 1 .148.06l1.925 1.494-.58.744-1.926-1.496a.236.236 0 0 1-.093-.132c-.011-.049 0-.106.03-.178l-.07-.055-.784 1.008.07.056a.364.364 0 0 1 .17-.073c.045 0 .095.019.148.059l1.924 1.495-.391.504c-.043.054-.087.087-.133.095a.316.316 0 0 1-.179-.03l-.055.072.843.654.056-.07a.322.322 0 0 1-.076-.167c0-.045.02-.096.062-.151l3.182-4.093c.042-.055.087-.087.133-.095.047-.01.105.003.177.032l.054-.07-.842-.655zM-17.11 68.054c-.039.427-.258.794-.66 1.1-.164.128-.346.22-.544.28a1.516 1.516 0 0 1-.66.049 1.345 1.345 0 0 1-.797-.433l-.207-.271a1.346 1.346 0 0 1-.213-.885c.045-.433.26-.797.645-1.09.384-.295.79-.408 1.218-.34.364.059.667.245.908.562.241.322.346.665.31 1.028m2.015.588c-.046-.01-.088-.043-.131-.096l-1.289-1.683.392-.298a.237.237 0 0 1 .151-.057c.05 0 .104.026.164.074l.07-.054-.777-1.014-.069.054c.027.076.036.135.027.182a.227.227 0 0 1-.095.13l-.39.297-1.27-1.658a.253.253 0 0 1-.059-.153.356.356 0 0 1 .075-.164l-.053-.07-.847.648.053.071c.075-.029.135-.038.181-.029.044.01.088.043.13.098l.633.828a1.971 1.971 0 0 0-.83-.092c-.402.041-.77.189-1.099.44-.224.173-.41.379-.55.617-.16.27-.253.56-.28.868-.042.455.07.91.337 1.362l-.298.228-1.324-1.729c-.043-.054-.062-.106-.06-.152.002-.046.028-.102.075-.165l-.055-.072-.848.65.056.071c.074-.029.133-.04.18-.029.046.011.088.041.13.097l3.173 4.142c.043.055.062.105.06.153a.309.309 0 0 1-.078.163l.055.071.847-.65-.054-.072a.312.312 0 0 1-.178.03c-.047-.01-.09-.04-.132-.096l-1.32-1.724.299-.229c.516.527 1.108.758 1.772.695a2.053 2.053 0 0 0 1.077-.42c.514-.393.798-.893.85-1.498.01-.1.012-.2.005-.298l.643.84c.042.053.06.105.06.15a.322.322 0 0 1-.076.163l.054.07.846-.647-.054-.072a.325.325 0 0 1-.18.03M18.68 77.915c-.042-.015-.08-.054-.111-.113l-.616-1.171a.237.237 0 0 1-.032-.16c.01-.047.044-.095.102-.148l-.043-.08-3.857 2.03a.236.236 0 0 1-.16.035.324.324 0 0 1-.15-.102l-.08.041.5.946.078-.043a.326.326 0 0 1 .003-.182c.016-.043.055-.08.115-.113l2.91-1.53.464.88c.031.06.042.112.031.158-.01.045-.044.095-.103.15l.043.079 1.13-.594-.042-.08c-.078.015-.14.015-.181-.004M16.524 76.228l1.13-.596-.042-.078a.347.347 0 0 1-.181-.003.225.225 0 0 1-.112-.114l-.871-1.654.61-.321c.061-.033.113-.044.16-.033.046.01.095.044.15.102l.08-.042-.486-.922-.079.042a.33.33 0 0 1-.004.183c-.018.044-.056.08-.114.112l-.61.32-.616-1.168c-.03-.06-.042-.112-.03-.157.009-.048.043-.098.101-.15l-.042-.079-1.13.596.042.078a.325.325 0 0 1 .182.004.225.225 0 0 1 .112.115l1.777 3.377c.032.06.043.112.033.157a.321.321 0 0 1-.101.152zM13.321 77.13a1.257 1.257 0 0 1-.693-.629c-.165-.315-.208-.625-.13-.933.087-.328.293-.577.617-.747.326-.168.649-.195.968-.086.295.101.53.318.703.647.16.305.2.61.12.914-.087.33-.292.581-.615.75-.325.172-.649.2-.97.084m2.366-.509c.243-.526.225-1.051-.05-1.575-.296-.56-.728-.889-1.299-.987a2.084 2.084 0 0 0-.744.014l.901-.474c.061-.032.115-.043.16-.032a.31.31 0 0 1 .148.102l.08-.041-.498-.945-.08.042c.017.077.017.137-.001.18a.234.234 0 0 1-.116.115l-1.197.63-.23-.437a.226.226 0 0 1-.03-.158.291.291 0 0 1 .1-.15l-.042-.078-1.13.594.042.079a.344.344 0 0 1 .183.004c.043.02.08.055.11.114l.229.434-1.196.631c-.06.032-.115.043-.16.032-.047-.01-.095-.044-.15-.102l-.079.043.498.945.078-.041c-.016-.08-.016-.14.002-.183.016-.043.056-.082.117-.113l.912-.48a2.094 2.094 0 0 0-.444.61c-.246.523-.226 1.058.06 1.605.288.541.716.86 1.29.959.472.081.963-.011 1.473-.28.51-.267.864-.62 1.063-1.057M4.375 75.38a.338.338 0 0 1 .161.086c.03.035.044.086.044.153v1.232h-.742V75.62c0-.067.016-.118.046-.156a.313.313 0 0 1 .16-.084v-.09H2.767v.09c.077.024.13.054.161.087a.236.236 0 0 1 .044.153v4.02H.788a.211.211 0 0 1-.212-.21l.001-2.924h1.487c.069 0 .121.015.157.043.036.03.065.085.087.163h.088v-1.067h-.088a.326.326 0 0 1-.087.16.241.241 0 0 1-.156.045h-2.56v.089a.36.36 0 0 1 .161.086.238.238 0 0 1 .044.153l-.001 3.688a.43.43 0 0 0 .43.431h2.833v1.415a.231.231 0 0 1-.047.156.302.302 0 0 1-.158.084v.09h1.277v-.09c-.077-.024-.13-.052-.16-.09a.228.228 0 0 1-.046-.152v-4.2h.742v4.203a.234.234 0 0 1-.046.155c-.03.037-.085.065-.159.084v.09h1.277v-.09a.343.343 0 0 1-.16-.09.236.236 0 0 1-.045-.152v-6.09c0-.067.015-.118.044-.156a.33.33 0 0 1 .161-.084v-.09H4.375zM-9.296 79.417c-.046.011-.098 0-.159-.032l-2.7-1.38a.21.21 0 0 1-.09-.284l.195-.38c.03-.06.068-.1.112-.118a.306.306 0 0 1 .182 0l.04-.08-1.136-.584-.041.077a.36.36 0 0 1 .103.152c.011.045.002.098-.03.157l-.29.56a.665.665 0 0 0 .287.896l3.066 1.57c.062.032.102.069.12.112a.325.325 0 0 1 .003.18l.08.041.488-.948-.079-.04c-.058.058-.107.093-.151.102M-9.764 74.256a1.174 1.174 0 0 1-.605.58.95.95 0 0 1-.833-.04.949.949 0 0 1-.521-.658c-.064-.274-.02-.556.127-.84.148-.289.352-.486.613-.595a.947.947 0 0 1 .832.043c.274.146.45.362.522.655.065.268.021.555-.135.855m2.492-.752a.349.349 0 0 1 .102.15c.01.044 0 .098-.03.156l-.605 1.177-1.092-.564.013-.034c.15-.414.133-.816-.05-1.206a1.92 1.92 0 0 0-.616-.722l.052-.102c.03-.058.068-.098.113-.116a.3.3 0 0 1 .18 0l.04-.08-1.135-.586-.041.08a.342.342 0 0 1 .102.153c.01.046 0 .098-.032.157l-.056.11a1.91 1.91 0 0 0-.88-.063c-.508.087-.888.375-1.142.866-.25.485-.263.961-.041 1.429a1.814 1.814 0 0 0 .44.581l-1.109-.57c-.062-.032-.101-.07-.118-.113a.3.3 0 0 1 0-.18l-.08-.041-.49.95.08.04c.053-.056.103-.091.148-.101.047-.013.1 0 .161.03l1.249.644-.29.565a.246.246 0 0 1-.114.117.304.304 0 0 1-.18 0l-.042.081 1.137.584.042-.08a.337.337 0 0 1-.104-.151.238.238 0 0 1 .032-.157l.29-.562 1.183.609c.062.031.1.069.119.113.017.042.019.103.004.18l.078.042.49-.95-.08-.041a.332.332 0 0 1-.15.104.24.24 0 0 1-.16-.033l-.99-.51c.005 0 .01.004.015.004.244.054.48.06.713.016a1.49 1.49 0 0 0 .884-.487l1.126.578-1.133 2.198c-.03.06-.067.1-.111.116a.299.299 0 0 1-.18.004l-.04.079 1.135.586.04-.08a.34.34 0 0 1-.102-.152c-.01-.047 0-.1.031-.158l2.037-3.955c.03-.06.066-.098.11-.116a.32.32 0 0 1 .182-.004l.04-.08-1.135-.584zm0 0" style="fill:#006123;fill-opacity:1;fill-rule:nonzero;stroke:none;stroke-width:.352778" transform="matrix(2.73305 0 0 2.73305 84.511 -49.924)"/></g></svg>