<svg xmlns="http://www.w3.org/2000/svg" xml:space="preserve" width="525" height="525" viewBox="0 0 525 525"><path d="M525.229 259.729c0 146.509-118.571 265.286-264.836 265.286-146.266 0-264.837-118.777-264.837-265.286 0-146.514 118.571-265.292 264.837-265.292 146.265 0 264.836 118.778 264.836 265.292z" style="fill:#fff;fill-opacity:1;fill-rule:nonzero;stroke:none;stroke-width:10.3872" transform="matrix(.99118 0 0 .98949 4.405 5.504)"/><path d="M258.755 510.303c-138.924 0-251.544-112.62-251.544-251.548 0-138.921 112.62-251.544 251.544-251.544C397.68 7.21 510.3 119.834 510.3 258.755c0 138.928-112.62 251.548-251.545 251.548zm0-510.303C115.848 0 0 115.851 0 258.755c0 142.908 115.848 258.759 258.755 258.759 142.908 0 258.759-115.851 258.759-258.759C517.514 115.851 401.663 0 258.755 0z" style="fill:#176fc1;fill-opacity:1;fill-rule:nonzero;stroke:none;stroke-width:6.33275" transform="matrix(.99118 0 0 .98949 4.405 5.504)"/><path d="M422.51 259.25c0 89.246-72.35 161.6-161.6 161.6-89.249 0-161.599-72.354-161.599-161.6 0-89.25 72.35-161.603 161.6-161.603 89.249 0 161.6 72.354 161.6 161.603z" style="fill:#284ca4;fill-opacity:1;fill-rule:nonzero;stroke:none;stroke-width:6.33275" transform="matrix(.99118 0 0 .98949 4.405 5.504)"/><path d="M342.531 304.541s-.451 54.252-82.285 80.925c0 0-72.79-14.465-84.092-80.928V180.66s58.322 13.562 83.64-1.358c0 0 18.535 15.826 82.737 2.26v122.979zm-48.377-127.5c-.454-12.659-8.812-34.783-9.041-40.689-.229-5.906 7.687-12.66 7.687-12.66l-49.734.907c-8.59 1.354-6.525 10.844-6.525 10.844l19.635 1.364c8.33 2.863-7.483 8.88-12.204 8.135-3.296-.225-7.236-9.041-7.236-9.041s-7.192 0-15.173 4.165-10.173 7.071-10.597 7.136c-.424.066 17.631 1.358 17.631 1.358 6.33-.452 4.976 7.687 4.976 7.687l-4.52 20.343c-36.17 1.355-65.106-8.138-65.106-8.138v135.186c10.85 79.12 96.299 96.75 96.299 96.75C352.93 376.88 357 304.993 357 304.993V166.646c-18.083 12.66-62.846 10.396-62.846 10.396z" style="fill:#fff;fill-opacity:1;fill-rule:nonzero;stroke:none;stroke-width:6.33275" transform="matrix(.99118 0 0 .98949 4.405 5.504)"/><path d="M260.227 189.494s28.099 10.467 74.923 2.202v109.632s-2.204 55.64-74.372 75.47c0 0-66.658-15.423-76.578-73.268V192.246s55.093 8.265 76.027-2.752z" style="fill:#fff;fill-opacity:1;fill-rule:nonzero;stroke:none;stroke-width:6.33275" transform="matrix(.99118 0 0 .98949 4.405 5.504)"/><path d="m293.282 299.123 15.975 14.323s20.934-36.91-4.957-62.805h20.934v-23.686h-53.439v-22.588h-23.139v22.035H194.12v23.139h19.83s-24.379 29.92-3.856 62.801l15.427-13.219s-6.636-25.649 10.464-38.011c0 0 21.484-18.733 47.378-.55 0 0 17.276 11.26 9.92 38.562z" style="fill:#2a52a6;fill-opacity:1;fill-rule:nonzero;stroke:none;stroke-width:6.33275" transform="matrix(.99118 0 0 .98949 4.405 5.504)"/><path d="M259.674 296.919s15.43 29.2 45.73 45.173l12.668-15.424s-47.378-25.343-47.378-67.761H249.76s0 45.173-48.482 66.66l12.672 17.079s31.4-16.528 45.724-45.727z" style="fill:#2a52a6;fill-opacity:1;fill-rule:nonzero;stroke:none;stroke-width:6.33275" transform="matrix(.99118 0 0 .98949 4.405 5.504)"/><path d="M249.76 321.712h18.18s9.365 10.464 15.976 14.873c0 0-19.282 11.568-48.482 0 0 0 9.92-7.712 14.326-14.873z" style="fill:#2a52a6;fill-opacity:1;fill-rule:nonzero;stroke:none;stroke-width:6.33275" transform="matrix(.99118 0 0 .98949 4.405 5.504)"/><path d="M54.806 279.702s-4.339-9.935 4.477-17.981c0 0 3.64-3.708 11.896-4.549 0 0 3.076-.63 5.176-1.469 0 0-.628 1.259-.628 4.685 0 0 .838 9.518-5.739 15.816 0 0-5.668 6.856-15.182 3.498zM51.769 245.493s-2.4-10.572 7.768-16.824c0 0 4.267-2.963 12.535-2.24 0 0 3.142-.043 5.362-.472 0 0-.857 1.12-1.497 4.486 0 0-.958 9.503-8.599 14.46 0 0-6.852 5.67-15.569.59zM56.803 213.603s-.396-10.834 10.755-15.09c0 0 4.746-2.117 12.736.127 0 0 3.092.542 5.356.53 0 0-1.048.94-2.304 4.133 0 0-2.705 9.16-11.135 12.61 0 0-7.783 4.301-15.408-2.31zM71.893 183.674s1.36-10.757 13.052-13.154c0 0 5.025-1.323 12.548 2.183 0 0 2.965 1.033 5.198 1.386 0 0-1.185.76-2.94 3.704 0 0-4.15 8.606-13.022 10.65 0 0-8.38 2.987-14.836-4.769zM86.986 159.716s-5.065-9.588 3.135-18.265c0 0 3.352-3.967 11.525-5.414 0 0 3.02-.857 5.052-1.85 0 0-.535 1.302-.28 4.722 0 0 1.542 9.428-4.55 16.194 0 0-5.145 7.257-14.882 4.613zM57.811 196.439s-10.72-1.617-12.835-13.364c0 0-1.203-5.056 2.483-12.49 0 0 1.107-2.943 1.512-5.167 0 0 .732 1.203 3.636 3.03 0 0 8.5 4.354 10.328 13.275 0 0 2.786 8.448-5.124 14.716zM71.553 170.363s-10.35-3.225-10.659-15.158c0 0-.42-5.18 4.35-11.97 0 0 1.54-2.74 2.28-4.876 0 0 .538 1.302 3.132 3.547 0 0 7.743 5.593 8.197 14.69 0 0 1.47 8.773-7.3 13.767zM47.987 229.237s-10.832.498-15.188-10.612c0 0-2.165-4.725.006-12.736 0 0 .513-3.099.48-5.36 0 0 .952 1.04 4.152 2.264 0 0 9.187 2.623 12.715 11.018 0 0 4.375 7.743-2.165 15.426zM63.5 309.086s-6.49-8.685.257-18.53c0 0 2.697-4.441 10.541-7.14 0 0 2.858-1.318 4.71-2.614 0 0-.328 1.37.454 4.707 0 0 2.99 9.072-1.975 16.707 0 0-3.955 7.968-13.986 6.87zM75.452 341.325s-7.347-7.971-1.642-18.457c0 0 2.226-4.694 9.753-8.188 0 0 2.705-1.602 4.412-3.08 0 0-.182 1.395.937 4.636 0 0 3.905 8.72-.253 16.82 0 0-3.114 8.331-13.207 8.27zM445.423 343.92s-10.838-.204-14.474-11.574c0 0-1.853-4.852.831-12.706 0 0 .712-3.061.823-5.319 0 0 .884 1.098 3.998 2.53 0 0 8.998 3.206 11.98 11.809 0 0 3.864 8.012-3.158 15.26zM457.356 311.273s-10.789 1.063-15.72-9.806c0 0-2.407-4.607-.66-12.718 0 0 .353-3.126.201-5.377 0 0 1.005.986 4.264 2.044 0 0 9.31 2.137 13.272 10.337 0 0 4.771 7.508-1.358 15.52zM466.465 282.2s-10.17 3.76-17.693-5.51c0 0-3.488-3.847-3.85-12.137 0 0-.448-3.11-1.166-5.254 0 0 1.222.7 4.642.9 0 0 9.548-.287 15.457 6.642 0 0 6.513 6.058 2.61 15.36zM468.432 248.397s-9.61 5.021-18.25-3.216c0 0-3.952-3.37-5.365-11.546 0 0-.844-3.03-1.824-5.065 0 0 1.298.54 4.718.302 0 0 9.434-1.5 16.178 4.623 0 0 7.23 5.176 4.543 14.901zM463.055 216.458s-8.587 6.623-18.532.019c0 0-4.48-2.632-7.3-10.436 0 0-1.358-2.836-2.678-4.667 0 0 1.373.303 4.7-.525 0 0 9.023-3.123 16.732 1.725 0 0 8.024 3.838 7.078 13.881zM449.112 186.733s-7.26 8.052-18.228 3.336c0 0-4.877-1.784-9.048-8.958 0 0-1.846-2.548-3.472-4.112 0 0 1.406.05 4.53-1.361 0 0 8.32-4.688 16.771-1.296 0 0 8.584 2.338 9.447 12.39zM435.32 161.88s-10.324 3.306-17.43-6.285c0 0-3.317-3.996-3.317-12.295 0 0-.31-3.13-.931-5.3 0 0 1.19.755 4.601 1.104 0 0 9.549.133 15.145 7.32 0 0 6.24 6.335 1.933 15.457zM454.907 329.693s-1.113-10.783 9.734-15.77c0 0 4.592-2.425 12.712-.715 0 0 3.126.334 5.38.173 0 0-.983 1.008-2.025 4.274 0 0-2.097 9.32-10.276 13.32 0 0-7.483 4.809-15.525-1.283zM468.404 299.3s-2.894-10.446 6.973-17.168c0 0 4.122-3.157 12.415-2.82 0 0 3.138-.189 5.33-.724 0 0-.797 1.157-1.282 4.549 0 0-.514 9.54-7.913 14.849 0 0-6.58 5.983-15.523 1.314zM471.19 267.871s-4.83-9.703 3.575-18.182c0 0 3.444-3.884 11.648-5.136 0 0 3.046-.785 5.099-1.729 0 0-.566 1.29-.393 4.716 0 0 1.314 9.462-4.938 16.08 0 0-5.319 7.13-14.99 4.251zM471.527 232.008s-6.395-8.75.461-18.528c0 0 2.74-4.41 10.616-7.026 0 0 2.87-1.286 4.73-2.563 0 0-.34 1.367.409 4.712 0 0 2.891 9.107-2.155 16.686 0 0-4.039 7.922-14.06 6.72zM462.77 200.236s-8.28-6.991-3.927-18.11c0 0 1.62-4.933 8.658-9.336 0 0 2.48-1.926 3.992-3.605 0 0-.006 1.407 1.51 4.48 0 0 4.956 8.167 1.845 16.723 0 0-2.06 8.655-12.078 9.848zM448.095 173.486s-9.125-5.847-6.265-17.44c0 0 .962-5.102 7.36-10.387 0 0 2.207-2.238 3.484-4.1 0 0 .18 1.398 2.084 4.246 0 0 5.984 7.446 4.02 16.336 0 0-.906 8.85-10.683 11.345zM66.8 327.234s-8.912 6.175-18.507-.921c0 0-4.341-2.851-6.762-10.789 0 0-1.212-2.9-2.443-4.796 0 0 1.36.371 4.722-.287 0 0 9.174-2.662 16.626 2.573 0 0 7.82 4.233 6.364 14.22zM53.937 296.473s-9.27 5.622-18.414-2.046c0 0-4.162-3.114-6.092-11.185 0 0-1.033-2.968-2.143-4.935 0 0 1.333.455 4.731 0 0 0 9.317-2.096 16.435 3.584 0 0 7.548 4.706 5.483 14.582zM48.417 265.193s-10.523 2.598-16.967-7.449c0 0-3.042-4.211-2.473-12.492 0 0-.102-3.142-.575-5.35 0 0 1.135.832 4.514 1.41 0 0 9.521.78 14.617 8.325 0 0 5.8 6.74.884 15.556z" style="fill:#31aaac;fill-opacity:1;fill-rule:nonzero;stroke:none;stroke-width:6.33275" transform="matrix(.99118 0 0 .98949 4.405 5.504)"/><path d="M117.768 84.299c5.127-4.633 13.04-4.23 17.675.893 4.632 5.13 4.23 13.043-.897 17.675-5.127 4.635-13.04 4.233-17.671-.894-4.636-5.126-4.234-13.04.893-17.674zm-7.075 23.08c7.428 8.222 20.313 8.685 28.776 1.035 8.466-7.65 9.307-20.513 1.877-28.735-4.017-4.444-9.626-6.599-15.27-6.454l-20.262 18.31c-.714 5.602.863 11.4 4.88 15.843z" style="fill:#2b59ab;fill-opacity:1;fill-rule:nonzero;stroke:none;stroke-width:6.33275" transform="matrix(.99118 0 0 .98949 4.405 5.504)"/><path d="M136.151 66.62 98.13 100.979 94.4 96.85l38.022-34.357 3.73 4.128zM165.929 97.842l-38.764 35.025-3.729-4.128L162.2 93.714l3.73 4.128z" style="fill:#2b59ab;fill-opacity:1;fill-rule:nonzero;stroke:none;stroke-width:6.33275" transform="matrix(.99118 0 0 .98949 4.405 5.504)"/><path d="m146.55 109.333-6.19 5.593-5.505-6.091 6.188-5.59 5.507 6.088zM107.144 79.354l4.839 5.356 6.682-6.036-6.481-7.174-8.399 7.588 1.624 1.825 1.734-1.559zM210.997 53.958l-17.768 6.506-1.883-5.136 17.77-6.512 1.88 5.142z" style="fill:#2b59ab;fill-opacity:1;fill-rule:nonzero;stroke:none;stroke-width:6.33275" transform="matrix(.99118 0 0 .98949 4.405 5.504)"/><path d="M186.022 74.97s7.35 5.825 18.951 5.225l2.774-5.705s-18.185-.294-22.73-12.706l-6.175-16.858-11.033 4.038.896 2.456 3.37-1.237 5.502 15.018s5.423 12.44-8.426 22.552l5.952 3.905s9.935-7.984 10.919-16.689zM199.463 36.698l18.182 49.632 6.896-2.526-19.255-52.564-10.696 3.921 1.07 2.925 3.803-1.388zM281.953 49.685h-14.691v-5.733h14.69v5.733zM256.526 35.155v-5.733h-23.027v32.613s-.013 6.623 6.397 7.294h19.87s2.777-.457 4.487-2.594v-6.623s-1.28 3.203-3.846 3.519h-16.454s-2.777-.53-3.203-3.306l-.006-25.183 15.785.013z" style="fill:#2b59ab;fill-opacity:1;fill-rule:nonzero;stroke:none;stroke-width:6.33275" transform="matrix(.99118 0 0 .98949 4.405 5.504)"/><path d="M262.939 28.556v55.368h7.69v-58.64h-11.932v3.266l4.242.006zM278.536 28.556v55.368h7.696v-58.64h-11.935v3.266l4.239.006zM328.45 45.492c5.321 1.91 8.117 7.68 6.255 12.888-1.874 5.213-7.696 7.891-13.024 5.983-5.312-1.907-8.11-7.677-6.243-12.89 1.867-5.208 7.696-7.889 13.012-5.981zm-19.292 3.618c-3 8.358 1.691 17.68 10.473 20.829 8.782 3.147 18.33-1.07 21.323-9.428 1.62-4.515.974-9.308-1.326-13.263l-21.018-7.535c-4.295 1.589-7.838 4.882-9.452 9.397zM363.008 66.454 350.97 62.14l1.923-5.362 12.032 4.317-1.917 5.359z" style="fill:#2b59ab;fill-opacity:1;fill-rule:nonzero;stroke:none;stroke-width:6.33275" transform="matrix(.99118 0 0 .98949 4.405 5.504)"/><path d="m346.585 51.027-36.129-12.953 1.92-5.362 36.13 12.956-1.92 5.359z" style="fill:#2b59ab;fill-opacity:1;fill-rule:nonzero;stroke:none;stroke-width:6.33275" transform="matrix(.99118 0 0 .98949 4.405 5.504)"/><path d="m327.491 34.252-2.49 6.954 8.674 3.114 3.343-9.317-10.906-3.911-.869 2.347 2.248.813zM353.75 47.032 342.79 77.598l7.196 2.579 12.056-33.621-11.163-4.002-1.098 3.052 3.968 1.426zM349.306 82.412l-45.754-16.407-2.02 5.644L339.328 85.2l-4.8 13.386 7.95 2.854 6.828-19.029zM395.788 135.557l-39.475-33.5 3.674-4.332 39.48 33.5-3.68 4.332z" style="fill:#2b59ab;fill-opacity:1;fill-rule:nonzero;stroke:none;stroke-width:6.33275" transform="matrix(.99118 0 0 .98949 4.405 5.504)"/><path d="M382.896 88.757 366.7 107.845l5.813 4.932 17.817-20.995-9.017-7.65-1.617 1.904 3.2 2.721zM394.545 98.64l-16.2 19.088 5.816 4.935 17.817-20.999-9.017-7.653-1.617 1.911 3.2 2.718z" style="fill:#2b59ab;fill-opacity:1;fill-rule:nonzero;stroke:none;stroke-width:6.33275" transform="matrix(.99118 0 0 .98949 4.405 5.504)"/><path d="m426.774 95.501-36.602-31.057-3.868 4.555 30.535 25.912-13.587 16.011s-5.445 5.714-9.607 7.279l5.85 4.96s4.277-1.04 10.044-7.332l17.235-20.328zM82.32 392.665l-2.96-4.187 12.26-8.658-7.278-10.313-12.26 8.658-2.935-4.156 27.687-19.551 2.935 4.159-10.993 7.761 7.282 10.31 10.99-7.765 2.959 4.19-27.687 19.552zM118.204 390.84c-1.886-1.867-4.304-2.4-7.248-1.592-2.56.717-4.984 2.232-7.276 4.545-2.266 2.291-3.757 4.731-4.471 7.32-.82 2.996-.287 5.43 1.602 7.297 1.886 1.87 4.323 2.378 7.313 1.527 2.56-.717 4.984-2.232 7.276-4.545 2.288-2.313 3.778-4.753 4.47-7.32.777-2.952.224-5.364-1.666-7.232zm-21.116 21.33c-2.972-2.94-4.104-6.565-3.392-10.866.668-4.004 2.733-7.755 6.203-11.255 3.466-3.5 7.192-5.588 11.187-6.259 4.276-.77 7.904.315 10.875 3.256 2.972 2.94 4.11 6.555 3.423 10.838-.65 4.02-2.709 7.78-6.175 11.283-3.466 3.504-7.208 5.597-11.218 6.287-4.298.751-7.932-.34-10.903-3.284zM121.333 434.687c-2.612-2.164-4.118-4.836-4.526-8.015-.43-3.435.587-6.623 3.055-9.558l.145-.176 3.949 3.272c-1.376 1.744-1.998 3.584-1.855 5.516.139 1.933.958 3.52 2.458 4.762 1.193.987 2.539 1.469 4.029 1.441 1.67-.038 3.058-.724 4.165-2.06 1.163-1.403.93-3.432-.696-6.085-2.76-4.459-4.236-6.945-4.425-7.458-1.18-3.188-.646-6.144 1.605-8.859 2.038-2.458 4.468-3.742 7.292-3.853 2.585-.07 4.969.801 7.158 2.613 2.347 1.948 3.73 4.317 4.147 7.112.442 3.052-.434 5.86-2.629 8.426l-.377.396-3.89-3.222c1.221-1.475 1.78-2.996 1.679-4.561-.102-1.565-.789-2.876-2.066-3.933-1.032-.857-2.186-1.299-3.46-1.33-1.413-.025-2.597.538-3.547 1.685-1.202 1.45-1.02 3.52.55 6.2 2.765 4.74 4.2 7.251 4.305 7.539 1.16 3.132.665 5.999-1.49 8.6-2.211 2.668-4.83 4.096-7.848 4.279-2.805.123-5.38-.786-7.728-2.73zM157.1 458.654l-17.916-10.924 17.573-28.822 17.65 10.757-2.804 4.598-13.337-8.132-4.369 7.168 12.662 7.72-2.755 4.518-12.662-7.72-4.846 7.946 13.61 8.296-2.806 4.595zM190.706 440.503c-2.378-1.18-4.84-.927-7.38.764-2.209 1.487-4.033 3.686-5.483 6.599-1.435 2.888-2.081 5.67-1.948 8.355.16 3.101 1.431 5.244 3.81 6.425 2.377 1.182 4.85.9 7.423-.847 2.205-1.484 4.033-3.683 5.48-6.599 1.447-2.912 2.096-5.695 1.95-8.351-.19-3.046-1.474-5.164-3.852-6.346zm-13.355 26.88c-3.745-1.86-5.955-4.944-6.633-9.254-.62-4.008.164-8.22 2.357-12.632 2.192-4.412 5.08-7.563 8.66-9.45 3.82-2.077 7.601-2.186 11.346-.324 3.745 1.861 5.962 4.932 6.651 9.214.646 4.023-.127 8.241-2.319 12.654-2.195 4.412-5.087 7.572-8.68 9.49-3.846 2.062-7.64 2.164-11.382.302zM239.33 471.354c-.346 3.571-1.778 6.32-4.288 8.244-2.341 1.79-5.096 2.529-8.263 2.223-3.138-.306-5.658-1.562-7.557-3.763-2.044-2.366-2.891-5.337-2.542-8.909l2.242-23.067 5.102.497-2.127 21.887c-.214 2.18.176 4.041 1.16 5.59.986 1.546 2.42 2.412 4.304 2.595 1.858.179 3.441-.39 4.743-1.713 1.308-1.327 2.066-3.077 2.279-5.257l2.127-21.886 5.065.491-2.245 23.068zM270.719 482.996h-5.915l-12.19-24.818v24.818h-5.046v-33.804h5.835l12.266 24.772v-24.772h5.05v33.804zM283.88 482.387l-5.084.108-.727-33.794 5.084-.112.726 33.798zM312.058 443.484l-3.683 35.22-5.343 1.051-16.744-31.203 4.941-.974 13.03 24.407 2.82-27.52 4.98-.98zM345.657 467.668l-19.867 6.756-10.872-31.96 19.567-6.655 1.732 5.096-14.787 5.031 2.706 7.947 14.038-4.777 1.704 5.012-14.038 4.774 2.996 8.813 15.087-5.133 1.734 5.096zM352.81 432.33l-5.597 3.405 5.074 8.34 5.495-3.343c1.19-.723 1.982-1.722 2.378-2.996.451-1.38.278-2.73-.529-4.057-.807-1.323-1.892-2.072-3.256-2.239-1.184-.13-2.378.167-3.565.89zm25.272 17.784-5.325 3.24-13.76-7.059-3.908 2.378 6.852 11.265-4.317 2.622-17.545-28.838 10.313-6.274c2.377-1.45 4.842-1.88 7.387-1.292 2.68.612 4.833 2.257 6.462 4.932 1.2 1.976 1.76 4.02 1.676 6.135-.08 2.115-.776 3.945-2.084 5.485l14.249 7.406zM396.657 439.62c-2.465 2.327-5.3 3.502-8.504 3.518-3.463.006-6.503-1.388-9.119-4.19l-.154-.167 3.726-3.519c1.561 1.577 3.312 2.412 5.25 2.508 1.933.095 3.609-.526 5.022-1.862 1.129-1.067 1.769-2.34 1.92-3.825.167-1.663-.346-3.123-1.537-4.384-1.252-1.327-3.296-1.342-6.125-.045-4.759 2.199-7.409 3.361-7.938 3.485-3.311.785-6.178-.102-8.602-2.665-2.192-2.323-3.173-4.89-2.94-7.706.244-2.573 1.4-4.836 3.462-6.787 2.218-2.097 4.738-3.18 7.564-3.256 3.08-.068 5.764 1.144 8.046 3.633l.346.424-3.67 3.466c-1.315-1.392-2.759-2.13-4.326-2.22-1.565-.087-2.95.439-4.156 1.577-.974.918-1.552 2.013-1.735 3.271-.197 1.401.217 2.641 1.24 3.723 1.296 1.373 3.367 1.441 6.222.21 5.04-2.17 7.708-3.29 8.005-3.36 3.25-.77 6.036.067 8.355 2.522 2.381 2.52 3.479 5.291 3.296 8.31-.216 2.798-1.431 5.243-3.648 7.34zM413.385 424.66l-3.717 3.472-23.07-24.707 3.717-3.472 23.07 24.706zM412.652 383.737l-6.144 6.94 21.25 18.806-3.374 3.812-21.246-18.806-6.067 6.852-4.03-3.568 15.58-17.604 4.031 3.568zM423.821 357.058l12.285 20.109 10.761 6.793-2.715 4.301-10.646-6.716-23.64-2.372 3.07-4.87 16.417 1.682-8.605-14.057 3.073-4.87z" style="fill:#2b59ab;fill-opacity:1;fill-rule:nonzero;stroke:none;stroke-width:6.33275" transform="matrix(.99118 0 0 .98949 4.405 5.504)"/></svg>