<svg xmlns="http://www.w3.org/2000/svg" xml:space="preserve" width="547.73169" height="547.73615" viewBox="0 0 547.73169 547.73615"><defs><linearGradient id="a" x1="301.80566" x2="301.80481" y1="524.31982" y2="335.75821" gradientUnits="userSpaceOnUse" spreadMethod="pad"><stop offset="0" style="stop-opacity:1;stop-color:#a6112a"/><stop offset="0.71228486" style="stop-opacity:1;stop-color:#a6112a"/><stop offset="1" style="stop-opacity:1;stop-color:#481716"/></linearGradient><linearGradient id="b" x1="313.60938" x2="313.60892" y1="485.76709" y2="388.03503" gradientUnits="userSpaceOnUse" spreadMethod="pad"><stop offset="0" style="stop-opacity:1;stop-color:#a6112a"/><stop offset="0.71228486" style="stop-opacity:1;stop-color:#a6112a"/><stop offset="1" style="stop-opacity:1;stop-color:#481716"/></linearGradient><linearGradient id="c" x1="395.62695" x2="395.6265" y1="485.76709" y2="388.03503" gradientTransform="matrix(-1 0 0 1 686.156 0)" gradientUnits="userSpaceOnUse" spreadMethod="pad"><stop offset="0" style="stop-opacity:1;stop-color:#a6112a"/><stop offset="0.71228486" style="stop-opacity:1;stop-color:#a6112a"/><stop offset="1" style="stop-opacity:1;stop-color:#481716"/></linearGradient><linearGradient id="d" x1="302.07422" x2="302.07391" y1="458.61523" y2="386.99332" gradientUnits="userSpaceOnUse" spreadMethod="pad"><stop offset="0" style="stop-opacity:1;stop-color:#a6112a"/><stop offset="0.71228486" style="stop-opacity:1;stop-color:#a6112a"/><stop offset="1" style="stop-opacity:1;stop-color:#481716"/></linearGradient><linearGradient id="e" x1="325.14648" x2="325.14612" y1="475.48145" y2="393.21338" gradientUnits="userSpaceOnUse" spreadMethod="pad"><stop offset="0" style="stop-opacity:1;stop-color:#a6112a"/><stop offset="0.71228486" style="stop-opacity:1;stop-color:#a6112a"/><stop offset="1" style="stop-opacity:1;stop-color:#481716"/></linearGradient><linearGradient id="f" x1="278.99854" x2="278.99817" y1="475.48145" y2="392.81299" gradientUnits="userSpaceOnUse" spreadMethod="pad"><stop offset="0" style="stop-opacity:1;stop-color:#a6112a"/><stop offset="0.71228486" style="stop-opacity:1;stop-color:#a6112a"/><stop offset="1" style="stop-opacity:1;stop-color:#481716"/></linearGradient><linearGradient id="g" x1="267.46436" x2="267.46408" y1="466.84375" y2="403.29834" gradientUnits="userSpaceOnUse" spreadMethod="pad"><stop offset="0" style="stop-opacity:1;stop-color:#a6112a"/><stop offset="0.71228486" style="stop-opacity:1;stop-color:#a6112a"/><stop offset="1" style="stop-opacity:1;stop-color:#481716"/></linearGradient><linearGradient id="h" x1="336.68359" x2="336.68332" y1="466.84375" y2="404.01318" gradientUnits="userSpaceOnUse" spreadMethod="pad"><stop offset="0" style="stop-opacity:1;stop-color:#a6112a"/><stop offset="0.71228486" style="stop-opacity:1;stop-color:#a6112a"/><stop offset="1" style="stop-opacity:1;stop-color:#481716"/></linearGradient></defs><path d="M388.151 440.64c0 47.687-38.66 86.347-86.34 86.347-47.685 0-86.35-38.66-86.35-86.347 0-47.685 38.665-86.344 86.35-86.344 47.68 0 86.34 38.66 86.34 86.344z" style="fill:#fff;fill-opacity:1;fill-rule:nonzero;stroke:none" transform="matrix(3.17177 0 0 -3.17177 -683.396 1671.482)"/><path d="M385.483 440.64c0 46.214-37.466 83.68-83.672 83.68-46.214 0-83.683-37.466-83.683-83.68 0-46.212 37.47-83.677 83.683-83.677 46.206 0 83.672 37.465 83.672 83.677z" style="fill:url(#a);fill-opacity:1;fill-rule:nonzero;stroke:none" transform="matrix(3.17177 0 0 -3.17177 -683.396 1671.482)"/><path d="M361.056 440.64c0 32.724-26.527 59.248-59.245 59.248-32.725 0-59.254-26.524-59.254-59.248s26.529-59.246 59.254-59.246c32.718 0 59.245 26.522 59.245 59.246z" style="fill:#fff;fill-opacity:1;fill-rule:nonzero;stroke:none" transform="matrix(3.17177 0 0 -3.17177 -683.396 1671.482)"/><path d="M317.371 485.767h-7.524v-91.076a30.216 30.216 0 0 0 7.524-2.725z" style="fill:url(#b);fill-opacity:1;fill-rule:nonzero;stroke:none" transform="matrix(3.17177 0 0 -3.17177 -683.396 1671.482)"/><path d="M286.766 485.767h7.527v-91.076a30.325 30.325 0 0 1-7.527-2.725z" style="fill:url(#c);fill-opacity:1;fill-rule:nonzero;stroke:none" transform="matrix(3.17177 0 0 -3.17177 -683.396 1671.482)"/><path d="M305.838 395.299v63.316h-7.527v-63.567c1.565.241 3.171.374 4.811.374.917 0 1.82-.047 2.716-.123z" style="fill:url(#d);fill-opacity:1;fill-rule:nonzero;stroke:none" transform="matrix(3.17177 0 0 -3.17177 -683.396 1671.482)"/><path d="M328.908 401.057v74.424h-7.522v-82.267c2.646 2.198 5.159 4.833 7.522 7.843z" style="fill:url(#e);fill-opacity:1;fill-rule:nonzero;stroke:none" transform="matrix(3.17177 0 0 -3.17177 -683.396 1671.482)"/><path d="M282.76 392.813v82.668h-7.522v-75.064c2.365-2.93 4.884-5.478 7.521-7.604z" style="fill:url(#f);fill-opacity:1;fill-rule:nonzero;stroke:none" transform="matrix(3.17177 0 0 -3.17177 -683.396 1671.482)"/><path d="M263.704 416.66c2.195-4.928 4.72-9.406 7.521-13.361v63.545h-7.521z" style="fill:url(#g);fill-opacity:1;fill-rule:nonzero;stroke:none" transform="matrix(3.17177 0 0 -3.17177 -683.396 1671.482)"/><path d="M332.922 466.844v-62.83c2.816 4.085 5.338 8.716 7.523 13.798v49.032z" style="fill:url(#h);fill-opacity:1;fill-rule:nonzero;stroke:none" transform="matrix(3.17177 0 0 -3.17177 -683.396 1671.482)"/><path d="m268.265 500.633-2.575-1.099 1.7-3.971c.244-.57.9-.833 1.47-.588l11.823 5.06-.824 1.926-10.28-4.4zM278.757 504.02l-2.27 5.302 2 .856-.826 1.93-2-.859-1.24 2.895a1.12 1.12 0 0 1-1.469.59l-1.545-.662 4.775-11.151zM264.167 499.563c1.753 1.398 3.404 3.528 3.561 5.835 1.78-1.476 4.462-1.755 6.685-1.45l-.983 2.294c-3.148.016-5.057 1.28-6.345 4.222l-.032.076a1.12 1.12 0 0 1-1.47.588l-1.544-.662.434-1.01c1.288-3.012.894-5.287-1.286-7.602 0 0 .772-1.812.98-2.29zM329.707 503.656c3.004-1.726 5.364-1.257 6.334.432l.001.002c.972 1.69.19 3.966-2.815 5.693-3.007 1.725-5.366 1.257-6.334-.435h-.003c-.97-1.694-.19-3.965 2.817-5.693m-.388 4.297c.394.688 1.452.82 2.864.01 1.41-.81 1.826-1.79 1.43-2.478-.395-.687-1.45-.821-2.862-.01-1.411.812-1.827 1.793-1.432 2.478zM339.3 509.346l-3.537 2.035.15.26c.308.535.12 1.223-.416 1.53l-1.458.84-.708-1.234-3.538 2.033-1.045-1.818 9.508-5.464zM337.9 498.999l2.124 3.697 1.887-1.08 1.046 1.818-1.887 1.085 1.57 2.728a1.122 1.122 0 0 1-.413 1.528l-1.46.84-5.298-9.22zM332.368 494.999l2.43-1.397 2.15 3.74a1.125 1.125 0 0 1-.414 1.533l-11.393 6.547-1.046-1.819 9.936-5.709zM303.748 505.528l-.018-2.243 2.737-.024.094 10.487 1.23-.01-.093-10.486 2.74-.025.143 15.758a1.095 1.095 0 0 1-1.086 1.103l-1.646.016-.04-4.271-1.23.012.028 3.174c.007.608-.478 1.1-1.085 1.104l-1.642.017-.11-12.516-5.699.051.085 9.56 4.479-.04.017 2.1-6.156.055a1.124 1.124 0 0 1-1.134-1.108l-.104-11.522a1.121 1.121 0 0 1 1.113-1.125l7.377-.067zM359.571 475.619l-.898.8 7.69 8.638c.766.858-.076 1.575-.076 1.575l-9.585 8.531-1.364-1.536 8.369-7.456-7.07-7.938-1.534 1.37 4.097 4.598c.51.574-.039 1.223-.039 1.223l-1.401 1.249-4.687-5.264-1.391 1.237 4.068 4.564c.513.574-.044 1.257-.044 1.257l-1.38 1.23-4.672-5.244-2.012 1.789-1.373-1.537 11.932-10.627zM246.878 497.345l-3.877-3.723-.221.229c-.45.47-1.291.39-1.878-.174l-1.596-1.531 1.036-1.077-3.881-3.725 1.524-1.589 10.418 10zM256.519 488.453l-4.64-4.455-1.55 1.616c2.287 2.716 2.472 5.175 1.105 6.6-1.559 1.625-4.544 1.286-7.835-1.876-3.293-3.16-3.755-6.129-2.198-7.754 1.372-1.427 3.848-1.34 6.661.85l1.55-1.613-3.516-3.374c-.42-.527-.5-1.17-.157-1.528l.864-.9 11.268 10.818-1.552 1.616m-8.854-2.31c-.82-.847-2.945-2.277-3.807-1.105-1.096 1.481 1.365 3.65 1.365 3.65 2.532 2.393 3.65 1.164 3.65 1.164 1.357-1.348-1.208-3.709-1.208-3.709zM268.172 378.205l-1.17.785c-.303.201-.481.41-.54.617-.034.15-.005.315.095.495.112.209.303.34.569.38.27.041.588-.032.947-.23.35-.184.668-.413.954-.677.284-.261.476-.535.58-.825l1.86.568a3.39 3.39 0 0 1-.876 1.404c-.4.38-.943.76-1.622 1.126-.843.452-1.676.616-2.5.492-.82-.127-1.447-.58-1.863-1.363-.377-.7-.46-1.345-.244-1.925.195-.528.642-1.03 1.348-1.497l1.165-.784c.285-.192.455-.383.516-.577a.763.763 0 0 0-.077-.59c-.152-.28-.398-.414-.738-.398-.338.017-.701.128-1.082.33-.372.203-.69.43-.964.696-.355.345-.602.73-.727 1.166l-1.964-.592a4.06 4.06 0 0 1 1.07-1.794c.352-.349.904-.723 1.656-1.126.983-.533 1.884-.742 2.703-.64.88.105 1.548.575 1.994 1.402.364.677.451 1.314.268 1.923-.181.614-.635 1.154-1.358 1.634zM276.729 378.22c-.7.332-1.294.516-1.795.554-.499.04-1.04-.058-1.63-.297l.688-1.852c.35.15.647.222.898.218.252-.003.57-.1.961-.286.535-.25.87-.534 1.007-.84.14-.313.102-.69-.105-1.128l-.19-.404-1.9.896c-.905.425-1.708.531-2.404.306-.64-.204-1.116-.647-1.444-1.34-.35-.74-.406-1.452-.17-2.137.236-.685.803-1.238 1.696-1.659.468-.22.868-.339 1.212-.355.341-.017.724.048 1.132.193l-.328-.696 1.96-.926 2.497 5.298c.895 1.89.2 3.376-2.085 4.456m-1.022-5.842c-.232-.494-.483-.785-.748-.87-.27-.09-.505-.115-.698-.08-.198.039-.456.133-.775.281-.77.363-1.014.855-.72 1.475.286.605.805.732 1.557.375l1.589-.75zM287.3 373.833a3.308 3.308 0 0 1-1.081.536c-.86.257-1.655.176-2.39-.249l.236.787-2.076.621-2.546-8.525 2.125-.633 1.543 5.153c.161.542.433.909.819 1.09.31.144.664.159 1.065.036.392-.117.678-.324.864-.63.212-.358.24-.808.078-1.343l-1.54-5.15 2.127-.637 1.627 5.448c.15.5.219.97.208 1.408-.018.436-.132.86-.351 1.27-.171.311-.403.585-.709.818zM262.615 385.417c-.295.508-.72.966-1.263 1.368-.554.406-1.115.674-1.682.799a3.43 3.43 0 0 1-1.447.017 3.423 3.423 0 0 1-1.6-.693c-.452-.353-.959-.923-1.524-1.69-.555-.752-.938-1.404-1.159-1.961a3.445 3.445 0 0 1-.2-1.742c.052-.493.216-.97.489-1.439.27-.476.68-.903 1.22-1.306.552-.402 1.09-.673 1.624-.786a3.535 3.535 0 0 1 1.52-.044c.626.11 1.16.34 1.606.698.442.35.956.918 1.53 1.697.548.744.931 1.395 1.144 1.95.23.559.288 1.139.206 1.74-.054.498-.21.95-.464 1.392m-3.8-4.753c-.283-.26-.587-.415-.895-.46-.403-.068-.796.048-1.178.326-.366.275-.585.61-.642 1.011a1.79 1.79 0 0 0 .093.853c.11.298.4.752.867 1.382.343.474.657.84.945 1.103.286.265.585.413.89.46.406.066.792-.04 1.16-.31.38-.279.606-.626.656-1.029.07-.343.012-.675-.141-.988-.153-.312-.416-.725-.795-1.24-.354-.478-.672-.85-.96-1.108zM247.677 392.702l-3.788-4.68-1.987 1.608 8.45 10.44 1.987-1.61-3.216-3.97 3.743-3.026 3.211 3.97 1.95-1.575-8.45-10.44-1.95 1.578 3.79 4.677zM302.34 373.163l.339-7.892c.027-.707-.139-1.262-.501-1.669-.364-.408-.873-.63-1.52-.658-.65-.026-1.168.153-1.56.533-.393.383-.6.92-.634 1.614l-.336 7.893-2.37-.1.342-7.98c.054-1.273.524-2.285 1.409-3.032.889-.749 1.965-1.095 3.242-1.039 1.28.054 2.333.49 3.144 1.312.816.82 1.19 1.867 1.14 3.138l-.344 7.984zM313.414 371.24c-.28.216-.608.366-.98.457a3.377 3.377 0 0 1-1.206.046c-.887-.119-1.579-.52-2.076-1.206l-.106.814-2.15-.286 1.17-8.817 2.2.293-.706 5.328c-.078.564.029 1.009.306 1.332.216.26.532.417.95.47.408.056.755-.017 1.048-.22.341-.243.548-.641.622-1.191l.707-5.33 2.2.29-.75 5.636a4.38 4.38 0 0 1-.387 1.37c-.191.392-.47.73-.842 1.014zM315.706 373.988l2.158.511-.415 1.762-2.157-.514zM318.111 363.853l2.159.514-2.056 8.654-2.155-.511zM324.822 369.251l-3.465 4.635-2.216-.745 5.938-7.384 1.65.553.26 9.468-2.217-.746zM334.93 371.897c-.21-.24-.518-.457-.929-.652-.555-.266-1.064-.305-1.53-.127-.462.18-.823.541-1.081 1.074l5.021 2.4-.425.892c-.543 1.13-1.28 1.898-2.22 2.308-.987.423-2.02.376-3.112-.144-1.055-.507-1.73-1.274-2.021-2.3-.29-1.03-.126-2.187.486-3.467.72-1.509 1.625-2.422 2.708-2.737.884-.258 1.871-.126 2.969.4.698.334 1.225.706 1.573 1.12.353.416.643.948.872 1.602l-1.785.603c-.143-.411-.32-.734-.526-.973m-4.414 2.58c-.016.335.055.63.212.886.152.258.397.466.721.622.33.158.64.215.94.174.293-.04.57-.17.821-.39.249-.221.441-.47.576-.75l-3.052-1.457a2.33 2.33 0 0 0-.218.916zM339.093 382.427a3.08 3.08 0 0 1-.945-.93c-.247-.378-.39-.734-.433-1.072l-.457.722-1.83-1.159 4.745-7.517 1.874 1.182-2.86 4.533c-.285.452-.381.87-.291 1.26.094.387.302.685.63.892.22.139.426.218.614.238.192.016.408 0 .665-.058l.51 2.32c-.421.098-.805.112-1.148.045-.338-.068-.697-.22-1.074-.456zM348.83 384.315c-.63.07-1.311-.134-2.038-.61l-1.178-.767c-.305-.204-.561-.287-.78-.253-.151.025-.292.118-.42.278-.15.186-.19.411-.125.674.067.265.263.523.581.781.31.246.643.451.998.611.352.16.683.23.991.211l.2 1.933a3.343 3.343 0 0 1-1.63-.257c-.511-.219-1.067-.568-1.674-1.05-.745-.6-1.222-1.3-1.429-2.106-.207-.809-.035-1.557.52-2.25.497-.623 1.055-.946 1.676-.975.561-.032 1.2.183 1.906.649l1.178.767c.285.187.533.268.733.245a.745.745 0 0 0 .512-.3c.198-.25.223-.527.077-.835-.149-.307-.388-.598-.727-.866a4.394 4.394 0 0 0-1.015-.613 2.713 2.713 0 0 0-1.36-.215l-.232-2.037a4.105 4.105 0 0 1 2.072.276c.46.192 1.024.555 1.69 1.09.868.694 1.42 1.436 1.648 2.23.247.855.076 1.652-.512 2.39-.48.597-1.033.928-1.663 1zM347.709 389.127l6.165-6.41 1.599 1.539-6.165 6.409zM346.656 390.226l1.6 1.534-1.256 1.302-1.598-1.537zM358.244 389.965c-.343-.381-.712-.393-1.108-.036l-3.18 2.846 1.047 1.168-1.259 1.13-1.047-1.17-1.96 1.753-1.481-1.654 1.96-1.753-.625-.7 1.26-1.127.624.702 3.283-2.94c.524-.467 1.098-.707 1.72-.714.692-.013 1.325.3 1.893.938l.806.904-1.398 1.25zM364.856 393.02l-6.095 9.162-1.38-1.889 3.392-4.676-5.526 1.754-1.379-1.89 8.464-2.416.66-.947c.192-.28.285-.515.281-.703-.004-.186-.098-.408-.288-.665l-.3-.416 1.612-1.177.513.704c.23.313.396.631.499.956a2.224 2.224 0 0 1-.09 1.57 5.19 5.19 0 0 1-.363.633z" style="fill:#fff;fill-opacity:1;fill-rule:nonzero;stroke:none" transform="matrix(3.17177 0 0 -3.17177 -683.396 1671.482)"/></svg>