<svg xmlns="http://www.w3.org/2000/svg" viewBox="0 0 146.3 146.3"><path d="M43.36 91a.68.68 0 0 0 0 .14 1.38 1.38 0 0 1 0 .28.44.44 0 0 1-.07.21.72.72 0 0 1-.32.3 1.3 1.3 0 0 1-.47.14 1.25 1.25 0 0 1-.62 0 .72.72 0 0 1-.44-.43.9.9 0 0 1-.07-.22 2.42 2.42 0 0 1 0-.24l.52-.07.6-.08.86-.11ZM43 89.78h-.18l-.82.14-1.09.17-1.09.15h-.34a3.58 3.58 0 0 0-.45 0h-.38a2 2 0 0 0 0 .24l.07.34v.27a2.19 2.19 0 0 0 0 .33c.12 0 .31 0 .55-.11l.57-.1.49-.09.5-.08a.69.69 0 0 0 0 .13 1.37 1.37 0 0 0 0 .19 1.21 1.21 0 0 1 0 .21 1.53 1.53 0 0 0 .08.31 2.36 2.36 0 0 0 .21.52 1.53 1.53 0 0 0 .39.42 1.17 1.17 0 0 0 .51.23 1.74 1.74 0 0 0 .6 0 1.2 1.2 0 0 0 .73-.37 1.24 1.24 0 0 0 .31-.77 1.77 1.77 0 0 0 0-.4v-.38c0-.12 0-.15-.07-.39s-.07-.41-.09-.51l-.07-.67ZM44.17 95a1.41 1.41 0 0 1 0 .56.59.59 0 0 1-.39.41 1.57 1.57 0 0 1-.35.11c-.68.14-1.08-.1-1.21-.72v-.17l.51-.1.56-.11.84-.17Zm-4.05 2.67v.28c0 .15 0 .28.06.37l.35-.34.64-.63c.44-.44.81-.79 1.09-1a1.42 1.42 0 0 0 .61.72 1.24 1.24 0 0 0 .9.13 1.13 1.13 0 0 0 .57-.28 1.46 1.46 0 0 0 .33-.56 1 1 0 0 0 0-.46c0-.15-.06-.39-.13-.71l-.12-.52c0-.16-.08-.33-.11-.5l-.09-.49c-.13 0-.46.11-1 .24l-.57.13-1.29.27-.58.1-.82.16-.47.07h-.14l.07.24.09.32a2.14 2.14 0 0 0 0 .25v.34l.33-.1.4-.11h.19l1.26-.27h.05l-.32.28-.34.3L40 97c0 .25.08.46.12.65ZM41.81 100.4a2.39 2.39 0 0 1 1.12-.79 4.55 4.55 0 0 1 .8-.23 2.54 2.54 0 0 1 .77 0 1.8 1.8 0 0 1 .71.26 1.32 1.32 0 0 1 .32.29 1.48 1.48 0 0 1 .2.4 1.28 1.28 0 0 1-.21 1.32 2.46 2.46 0 0 1-1.14.81 4.77 4.77 0 0 1-.78.21 2.56 2.56 0 0 1-.73 0 1.75 1.75 0 0 1-.77-.3 1.3 1.3 0 0 1-.46-.63 1.31 1.31 0 0 1 .17-1.34Zm3.39 2.93a2.37 2.37 0 0 0 .48-.37 1.74 1.74 0 0 0 .38-.47 2.55 2.55 0 0 0 .21-.58 2.44 2.44 0 0 0 .08-.85 3.59 3.59 0 0 0-.21-.89 3.49 3.49 0 0 0-.53-1 2.67 2.67 0 0 0-.81-.68 2.32 2.32 0 0 0-1-.3 2.64 2.64 0 0 0-1.07.17 3.33 3.33 0 0 0-.91.52 2.17 2.17 0 0 0-.59.8 2.21 2.21 0 0 0-.19 1 3.39 3.39 0 0 0 .21 1.08 3.45 3.45 0 0 0 .53 1 2.79 2.79 0 0 0 .81.67 2.23 2.23 0 0 0 1 .29 2.47 2.47 0 0 0 1.07-.16 3.26 3.26 0 0 0 .54-.23ZM48.17 104.74a1.89 1.89 0 0 1 .2.27l.14.21.23.26a1.66 1.66 0 0 1 .17.19l-.45.32-.37.26-.24.19-.52.42.38.5.29.39.4.49.3.35.8-.64a2.41 2.41 0 0 0 .27-.23l.46-.4.2.28a2.32 2.32 0 0 0 .14.21l.22.24.19.21-.3.22-.52.34-1.33 1-.66.55c-.67.58-1 .89-1.08.92a2.55 2.55 0 0 1-.19-.26l-.14-.21c-.06-.07-.14-.17-.25-.28s-.17-.19-.19-.2l.83-.57.83-.63.27-.22-.67-.87-.71-.86-.68.54-.63.54-.52.45c0-.06-.11-.15-.19-.27l-.14-.2-.24-.28-.19-.2c.22-.17.48-.37.8-.59l1.34-1c.25-.2.47-.38.66-.55ZM50.1 112.79a2.38 2.38 0 0 1 .52-1.27 5.57 5.57 0 0 1 .54-.63 2.62 2.62 0 0 1 .63-.45 1.5 1.5 0 0 1 .74-.17 1.25 1.25 0 0 1 .42.06 1.66 1.66 0 0 1 .38.23 1.31 1.31 0 0 1 .55 1.23 2.46 2.46 0 0 1-.53 1.29 4.5 4.5 0 0 1-.54.6 2.29 2.29 0 0 1-.6.41 1.87 1.87 0 0 1-.81.17 1.26 1.26 0 0 1-.73-.28 1.3 1.3 0 0 1-.57-1.19Zm4.44.62a2.49 2.49 0 0 0 .21-.56 2.07 2.07 0 0 0 .06-.61 2.81 2.81 0 0 0-.14-.6 2.32 2.32 0 0 0-.4-.76 3.54 3.54 0 0 0-.65-.63 3.47 3.47 0 0 0-1-.52 2.62 2.62 0 0 0-1-.13 2.14 2.14 0 0 0-1 .31 2.54 2.54 0 0 0-.81.72 2.85 2.85 0 0 0-.48.93 2.27 2.27 0 0 0 .32 2 3.31 3.31 0 0 0 .76.78 3.4 3.4 0 0 0 1 .52 2.57 2.57 0 0 0 1 .13 2.48 2.48 0 0 0 1.84-1 2.42 2.42 0 0 0 .29-.58ZM55.38 114.16l1.11-1.89a.7.7 0 0 1 .14.08l.11.06.17.06h.12v1.27q0 .15.09 1.26c0 .43.06.85.09 1.27l.71-.61c.76-.63 1.47-1.27 2.16-1.9h.07l.11.06h.11a.9.9 0 0 0 .28.09c-.25.85-.45 1.54-.6 2.08s-.26.93-.34 1.2l-.32 1.23v.14a.76.76 0 0 1-.05.16l-.3-.14-.23-.12-.32-.11-.24-.08a12.71 12.71 0 0 0 .52-1.52c.17-.58.33-1.14.48-1.67l-.93.81-.92.81c-.21.18-.51.46-.91.84l-.16-.09h-.1l-.06-1.29c0-.42-.05-.8-.07-1.16s-.05-.77-.08-1.17l-.63 1.13-.38.73-.32.63-.2.41c-.09-.07-.16-.1-.2-.13h-.1a2 2 0 0 0-.32-.1.75.75 0 0 1 .07-.12.58.58 0 0 1 .08-.1c.06-.11.17-.26.3-.47l.32-.51.39-.63ZM63.06 114.59l-.1.34c-.11.31-.17.5-.19.58s-.11.38-.2.68-.16.53-.2.68-.09.4-.16.73-.13.57-.17.73-.07.31-.13.66q0 .21-.09.39l-.31-.1-.24-.08-.62-.12c.07-.26.16-.58.28-1 .26-.85.42-1.38.48-1.6l.09-.38.23-.91.09-.38c0-.13.06-.32.1-.57l.32.1.24.08a1.68 1.68 0 0 0 .33.07ZM64 119.88l-.27-.07h-.34c.11-.46.23-1 .34-1.61s.22-1.2.3-1.78l.17-1.15v-.34a1.07 1.07 0 0 0 .32.08 1.62 1.62 0 0 0 .33 0c.14.21.43.64.87 1.27l.87 1.27.86 1.29.24-1.57.11-.8v-.43a3.52 3.52 0 0 1 0-.44v-.13l.19.05h.46l-.08.39c0 .11 0 .22-.07.33q-.11.47-.12.57c0 .22-.07.45-.12.71s-.09.46-.12.63l-.12.73-.22 1.51h-.07l-.21-.05a1.53 1.53 0 0 0-.31 0c-.28-.47-.49-.8-.62-1-.23-.35-.44-.69-.65-1l-.68-1-.65-.94-.17 1-.1.65c0 .15-.06.54-.13 1.15q.06.37-.01.68ZM74 115.76c0 .18 0 .35-.06.52a4.39 4.39 0 0 0 0 .54l-.05.7v.8a5.21 5.21 0 0 1-.13 1.16 1.64 1.64 0 0 1-.7.92 1.93 1.93 0 0 1-.64.27 3.36 3.36 0 0 1-2-.23 1.49 1.49 0 0 1-.78-1 1.39 1.39 0 0 1 0-.17 1.83 1.83 0 0 1 0-.21.86.86 0 0 1 0-.15v-3.3h1.19v.35c0 .19 0 .47-.06.85s0 .66-.06.84v.89a3.19 3.19 0 0 0 0 .54 2.81 2.81 0 0 0 .1.45 1.24 1.24 0 0 0 .25.36 1.16 1.16 0 0 0 .81.34 1.46 1.46 0 0 0 .81-.17 1.49 1.49 0 0 0 .51-.66 1.93 1.93 0 0 0 .13-.6v-3.08h.54ZM75.23 117.93l.09-2.18a.42.42 0 0 1 .16 0h.42c.28.48.5.85.65 1.09s.27.46.66 1.08l.68 1.08.35-.87c.36-.91.7-1.81 1-2.7h.08a.24.24 0 0 0 .12 0h.12a1.16 1.16 0 0 0 .29-.05c.18.87.33 1.56.45 2.11l.27 1.22.29 1.24a.51.51 0 0 0 0 .14.56.56 0 0 1 0 .15H80.27l-.33.05h-.25a14.11 14.11 0 0 0-.25-1.58c-.13-.59-.25-1.16-.37-1.72-.14.39-.29.78-.44 1.16s-.29.77-.43 1.15-.23.65-.41 1.17h-.28l-.66-1.1-.6-1-.62-1v3.27h-.34a1.45 1.45 0 0 0-.33.06v-.13a.87.87 0 0 1 0-.14c0-.11 0-.3.05-.55s0-.39 0-.61v-.73c0-.27.21-.45.22-.61ZM84.21 115.27l-.15-.54.18-.09h.14a.89.89 0 0 1 .58 0 .54.54 0 0 1 .24.22 1.15 1.15 0 0 1 .16.31 1.07 1.07 0 0 1 .06.42.69.69 0 0 1-.13.38.64.64 0 0 1-.24.25 2.5 2.5 0 0 1-.38.15h-.11l-.23-.72a4.06 4.06 0 0 1-.12-.38Zm2.05.34a1 1 0 0 0 .1-.88 1 1 0 0 0-.69-.7 1.83 1.83 0 0 0-1 .07l-1 .33-.79.23c.07.22.18.53.33.94l.33.92.24.81c.15.51.26.88.33 1.1s.1.32.15.5.08.33.1.47l.59-.22 1-.3.25-.09.2-.09a2.61 2.61 0 0 0 .41-.28 1.2 1.2 0 0 0 .3-.38 1.39 1.39 0 0 0 .07-1 1.08 1.08 0 0 0-.64-.71 1.28 1.28 0 0 0-.48-.09 1.51 1.51 0 0 0-.48 0 1.66 1.66 0 0 0 .68-.63Zm-1.57 1.18h.22a.94.94 0 0 1 .76 0 1.14 1.14 0 0 1 .47.67 1.18 1.18 0 0 1 0 .67.56.56 0 0 1-.19.31.85.85 0 0 1-.32.19l-.35.09-.29-.86ZM86.86 113.41v-.09l.52-.23.53-.24c.21-.1.49-.23.83-.42l.63-.33a1.6 1.6 0 0 0 .11.3.59.59 0 0 0 0 .08l.07.11v.07c-.16.08-.42.19-.76.33s-.6.24-.76.32l.32.68.34.73 1.45-.78.07.2a.5.5 0 0 0 0 .13.74.74 0 0 0 .08.13.86.86 0 0 1 .07.1l-.58.25-.6.26-.32.15.39.83.42.82c.45-.23.94-.5 1.46-.82a1.06 1.06 0 0 0 .11.29.63.63 0 0 0 0 .09l.07.1v.08l-.6.27c-.26.1-.46.19-.6.26l-.76.4-.56.3-.17-.38-.56-1.23-.47-1-.38-.76c-.08-.17-.14-.29-.19-.38ZM93.38 115.41l-.24.14a2.61 2.61 0 0 0-.25.23c-.25-.4-.55-.85-.91-1.37s-.71-1-1-1.46l-.71-.93-.21-.26a1.48 1.48 0 0 0 .28-.17 1.6 1.6 0 0 0 .24-.22l1.52.27 1.51.27 1.53.3-1-1.28-.49-.64a4.19 4.19 0 0 0-.28-.33l-.28-.34-.09-.11.17-.09a.52.52 0 0 0 .11-.07.66.66 0 0 0 .12-.12l.13-.1.22.33c.06.08.13.18.19.28.17.26.27.42.32.48l.42.59c.14.22.26.39.36.53l.44.59.92 1.23h-.07a.78.78 0 0 0-.18.11 1.08 1.08 0 0 0-.22.21l-1.16-.26-1.2-.22-1.17-.2-1.13-.19.57.79.39.52c.09.13.34.43.72.91.16.22.3.4.43.58ZM94.09 108.59l-.07-.06c.08-.1.21-.23.39-.41l.41-.42c.15-.17.36-.4.61-.7l.46-.53a1.07 1.07 0 0 0 .21.22l.08.07.1.07h.07c-.12.14-.32.33-.58.59a6.57 6.57 0 0 0-.59.58l.55.51.59.55 1.06-1.26.13.15a.93.93 0 0 0 .1.1l.12.1.11.06c-.1.1-.25.26-.45.45s-.36.36-.46.47l-.24.26.67.62.68.61c.35-.39.7-.82 1.06-1.31a.9.9 0 0 0 .21.23l.07.07.1.07h.08c-.1.1-.25.26-.46.46l-.45.48-.56.65-.41.49-.3-.29-1-.94-.81-.74-.63-.57-.31-.27ZM96.34 106h-.08l.33-.47a5.62 5.62 0 0 0 .34-.46l.51-.79c.21-.33.33-.53.38-.59a1.26 1.26 0 0 0 .24.19l.08.06.12.06h.07a7.93 7.93 0 0 1-.49.67c-.23.29-.4.5-.5.66l.62.43.66.46.87-1.4.15.13.11.09a.61.61 0 0 0 .14.07h.11c-.08.12-.2.29-.38.51l-.39.53-.2.29.69.46 1.3.81-.2.26-.17.22-.17.28-.13.23-.33-.25-1.1-.78-.91-.63-.7-.47-.35-.22ZM98.66 102l.31.18c.28.17.45.28.52.31l.62.35.62.35c.14.08.37.19.67.33l.68.33.6.28.37.17a2.62 2.62 0 0 1-.17.28l-.13.21a5.28 5.28 0 0 0-.26.58q-.36-.18-.87-.48c-.76-.45-1.24-.73-1.44-.83l-.35-.19-.83-.42-.36-.18-.53-.23.17-.28a1.89 1.89 0 0 0 .14-.22 2.44 2.44 0 0 0 .14-.31c.05-.15.09-.23.1-.23ZM104.35 98.92l.06-.08.52.37a2.5 2.5 0 0 1 0 .72 4 4 0 0 1-.2.73 3.89 3.89 0 0 1-.24.53l-.2.31a1.78 1.78 0 0 1-.27.33l-.33.28a2.17 2.17 0 0 1-.34.19l-.34.13a2.34 2.34 0 0 1-.74.08 2.37 2.37 0 0 1-.76-.17 3.29 3.29 0 0 1-1-.58 2.47 2.47 0 0 1-.61-.92 2.84 2.84 0 0 1-.14-1.06 3.83 3.83 0 0 1 .25-1.09 3.09 3.09 0 0 1 .36-.7 3.05 3.05 0 0 1 .49-.57l.3.21.33.22v.09a1.47 1.47 0 0 0-.62.32 1.44 1.44 0 0 0-.41.57 1.47 1.47 0 0 0 .18 1.46 2.65 2.65 0 0 0 1.25.9 3.17 3.17 0 0 0 .78.19 2.08 2.08 0 0 0 .75-.06 1.49 1.49 0 0 0 .62-.38 1.57 1.57 0 0 0 .41-.63 1.67 1.67 0 0 0 .11-.69 2.18 2.18 0 0 0-.21-.7ZM101 95.49l.34.11.58.19c.16 0 .38.1.68.2l.68.21.73.16.73.17.66.14.39.09c0 .07 0 .17-.1.3s-.07.21-.08.24c-.05.19-.09.39-.13.62l-.95-.28c-.84-.26-1.37-.43-1.59-.48l-.38-.1-.91-.23-.39-.09a5 5 0 0 0-.56-.1 3.1 3.1 0 0 1 .11-.32 2 2 0 0 1 .08-.24l.07-.34c.04-.14.04-.22.04-.25ZM105.53 93.89a2.32 2.32 0 0 1-1.36.14 5.31 5.31 0 0 1-.81-.19 2.76 2.76 0 0 1-.69-.33 1.59 1.59 0 0 1-.49-.59 1 1 0 0 1-.14-.39 1.42 1.42 0 0 1 0-.45 1.32 1.32 0 0 1 .83-1.06 2.53 2.53 0 0 1 1.39-.14 5 5 0 0 1 .78.2 2.43 2.43 0 0 1 .64.34 1.82 1.82 0 0 1 .53.63 1.37 1.37 0 0 1 .1.78 1.29 1.29 0 0 1-.78 1.06ZM104 89.68a2.46 2.46 0 0 0-.59.08 2 2 0 0 0-.57.24 1.91 1.91 0 0 0-.46.39 2.31 2.31 0 0 0-.49.71 3.5 3.5 0 0 0-.25.87 3.63 3.63 0 0 0 0 1.09 2.63 2.63 0 0 0 1.12 1.75 2.79 2.79 0 0 0 1 .38 2.83 2.83 0 0 0 1 0 2.24 2.24 0 0 0 1.58-1.2 3.39 3.39 0 0 0 .33-1 3.08 3.08 0 0 0 0-1.09 2.61 2.61 0 0 0-.37-1 2.54 2.54 0 0 0-1.78-1.14 2.44 2.44 0 0 0-.52-.08ZM61.77 100.64v-1.37h-.06l-.92.47a.86.86 0 0 0-.15-.22 1.71 1.71 0 0 0-.19-.21v-.06c.39-.13.79-.28 1.22-.47s.72-.33 1.18-.58l.16.07v1.21c0 1.09-.06 1.77-.06 2v2.38h-.65a2.7 2.7 0 0 0-.37 0h-.29v-2.17c0-.62.13-.95.13-1.05ZM69.82 100.8a.58.58 0 0 1-.56.43.56.56 0 0 1-.54-.33 1.93 1.93 0 0 1-.15-.63v-.38a2.11 2.11 0 0 1 .13-.79.61.61 0 0 1 .57-.47.64.64 0 0 1 .61.53 2.82 2.82 0 0 1 .1.88 1.94 1.94 0 0 1-.16.76Zm-2 2.78.06.19a.16.16 0 0 0 .1.11.19.19 0 0 1 .09 0h.47a2.4 2.4 0 0 0 1.14-.28 2.31 2.31 0 0 0 .87-.77 3.14 3.14 0 0 0 .47-1.09 5.3 5.3 0 0 0 .15-1.26 3.27 3.27 0 0 0-.11-.88 2.36 2.36 0 0 0-.35-.75 1.78 1.78 0 0 0-.69-.53 2.45 2.45 0 0 0-.91-.16 2 2 0 0 0-.71.11 1.53 1.53 0 0 0-.58.36 1.87 1.87 0 0 0-.45.65 2.57 2.57 0 0 0-.11.8 1.43 1.43 0 0 0 .47 1.11 1.71 1.71 0 0 0 1.17.41 1.26 1.26 0 0 0 1-.41h.06v.08a3.07 3.07 0 0 1-.33 1.43 1.24 1.24 0 0 1-1.13.79.79.79 0 0 1-.39-.12 2.9 2.9 0 0 1-.34-.23l-.06.06a1.72 1.72 0 0 1 .13.38ZM75.7 100.13l.58-.86h.06v2.35h-1.55v-.05Zm-1.52 1.77a1.77 1.77 0 0 1 0 .22 1.21 1.21 0 0 1 0 .2v.19h2.19V103.87h.27a2.62 2.62 0 0 1 .37 0H77.64V102.51l.71.06a2.84 2.84 0 0 0 0-.31v-.18a2 2 0 0 1 0-.25v-.23l-.71.05v-3.37a2.92 2.92 0 0 1-.54 0h-.56c-.11.19-.27.44-.46.73l-.5.73-.6.91-.73 1.07s-.08.1-.07.18ZM82.51 101.46a.63.63 0 0 1 .57-.43.61.61 0 0 1 .6.48 2.78 2.78 0 0 1 .1.85 2.36 2.36 0 0 1-.12.8.61.61 0 0 1-.57.47c-.3 0-.5-.18-.61-.53a2.91 2.91 0 0 1-.1-.88 1.92 1.92 0 0 1 .13-.76Zm1.68-3.14a1.66 1.66 0 0 0-.42 0h-.15l-.35.06a2.62 2.62 0 0 0-.5.13 2.29 2.29 0 0 0-1.37 1.59 5 5 0 0 0-.26 1.62 3.2 3.2 0 0 0 .11.83 2.31 2.31 0 0 0 .34.75 1.55 1.55 0 0 0 .62.54 1.36 1.36 0 0 0 .43.14 2.19 2.19 0 0 0 1.87-.46 1.68 1.68 0 0 0 .57-1.33 1.46 1.46 0 0 0-.49-1.17 1.75 1.75 0 0 0-1.22-.43 1.22 1.22 0 0 0-1 .42h-.06a3.49 3.49 0 0 1 .1-.79l.13-.48a1.8 1.8 0 0 1 .27-.51 2 2 0 0 1 .4-.37 1 1 0 0 1 .53-.16H84a.84.84 0 0 1 .24.06c.05-.22 0-.32-.05-.44ZM10.13 65.61a3.41 3.41 0 1 0-3.41-3.41 3.41 3.41 0 0 0 3.41 3.41ZM135.8 64.5a3.42 3.42 0 1 0-3.42-3.41 3.41 3.41 0 0 0 3.42 3.41ZM12.53 36.73l3.46-4.66-1-.67 1.43-1.91 1 .66 3.52-4.72 1.48 1-8.43 11.32-1.46-1.02zM24.24 34.63l-2.35-1.57-1.66 2.22 2.35 1.57 1.66-2.22z" style="fill:#002965"/><path d="m27.76 30.04-1.45-.97-8.57 11.5 1.45.97 8.57-11.5zM20.82 35.76c-1.8 1.86-3.93 2.71-5.11 1.91-1.41-.94-1-3.82 1-6.42s4.66-4 6.06-3c1.18.79 1.07 2.92-.13 5.12m-2.26.36c1-1.33 1.28-2.74.66-3.15s-1.92.32-2.91 1.65-1.28 2.73-.66 3.15 1.9-.38 2.88-1.68Z" style="fill:#002965"/><path d="M21.67 42c-1.68-1.12-1.34-4.29.74-7.08s5.13-4.16 6.8-3 1.35 4.3-.74 7.09-5.13 4.15-6.8 2.99ZM27 38c1.3-1.74 1.61-3.65.69-4.27s-2.71.3-4 2S22 39.42 23 40s2.67-.25 4-2ZM49.51 14.63 45.4 8.74l-1.95 1.24 4.11 5.89 1.95-1.24zM40.17 21.29l9.75-6.13 3.24 4.64-2.04 1.29-2.23-3.2-7.72 4.85-1-1.45zM37.37 17.87a3.64 3.64 0 0 1 1.1-5.21A4.09 4.09 0 0 1 44 13.73 3.66 3.66 0 0 1 42.85 19a4.09 4.09 0 0 1-5.48-1.13Zm4.38-.5a1.69 1.69 0 0 0 .31-2.45 1.9 1.9 0 0 0-2.5-.69 1.71 1.71 0 0 0-.3 2.46 1.9 1.9 0 0 0 2.49.68ZM72.3 3.27h-5.7v13.29h9.14V9.83h.8v6.73h2.47V3.27h-2.43v4.66h-.8V3.31h-2.44v11.51h-4.62V4.75h3.58V3.27zM125.86 26.08l7.02 9.57-9.95 6.56.76 1.03-1.53 1.01-8.07-10.98 1.53-1.01 1.44 1.96 6.27-4.13 1.45 1.98-6.29 4.15.59.81 6.33-4.17 1.4 1.91-6.33 4.18.94 1.34 8.42-5.55-5.56-7.65 1.58-1.01zM101.34 8.4l6.09 3.83-.82 1.18-6.06-3.81.79-1.2zM99.02 9.46l8.23 5.18-1 1.45-8.21-5.17.98-1.46zM109.12 13.34l2.29 1.44-2.42 3.47 1.25.8-1.13 1.61-1.24-.79-1.15 1.64-2.23-1.4 4.63-6.77zM95.86 15.38l10.56 6.64-2.66 3.82-2.32-1.45 1.53-2.21L94.73 17l1.13-1.62z" style="fill:#002965"/><path d="M98.09 12.83c1-1.4 3.18-1.63 4.92-.54s2.37 3.12 1.4 4.52-3.17 1.64-4.92.54-2.37-3.12-1.4-4.52Zm2.11 3.5a1.77 1.77 0 0 0 2.28-.74 1.59 1.59 0 0 0-.18-2.28 1.79 1.79 0 0 0-2.3.69 1.6 1.6 0 0 0 .2 2.33ZM4.78 87.35 16.27 84l.47 1.57L12 86.93l1.77 6 4.75-1.4.48 1.54-11.52 3.4L7 94.89l5.37-1.58-1.77-6-5.37 1.6ZM12.06 100.94a5.51 5.51 0 0 1 2.53-2.42 5.37 5.37 0 0 1 3.89-.67A4 4 0 0 1 21 100a3.78 3.78 0 0 1 .22 3.28 5.05 5.05 0 0 1-2.53 2.53 6.56 6.56 0 0 1-3.59.75 3.39 3.39 0 0 1-2.78-2.07 3.79 3.79 0 0 1-.26-3.55Zm6.12-4.78a7.06 7.06 0 0 0-4.25.81 6.93 6.93 0 0 0-3.33 3.28 5.45 5.45 0 0 0 .34 4.7 5.46 5.46 0 0 0 3.93 3.13 7.07 7.07 0 0 0 4.59-.82 6.54 6.54 0 0 0 3.09-2.9 5.5 5.5 0 0 0-.31-5.12 5.24 5.24 0 0 0-4.06-3.08ZM16.85 114.2l7.65-6-3.87 10.8 1.11 1.44 9.45-7.37-1-1.22-7.65 6 3.93-10.74-1.18-1.51-9.4 7.4ZM32.37 116.25a6.86 6.86 0 0 0-4.37 2.59 6.56 6.56 0 0 0-1.8 4.7 5.32 5.32 0 0 0 1.91 3.46 5.54 5.54 0 0 0 2.46 1.29 5.86 5.86 0 0 0 1.93 0l-.71 1.43.8.67 4.16-4.88-4-3.41-.87 1 2.86 2.44a3.94 3.94 0 0 1-2.81 1.61 3.88 3.88 0 0 1-2.66-1 3.44 3.44 0 0 1-1.45-3 5.92 5.92 0 0 1 1.54-3.26 5.36 5.36 0 0 1 3.28-2.09 3.6 3.6 0 0 1 2.94.87 4.11 4.11 0 0 1 1.38 2 3 3 0 0 1-.31 2.25l1.22 1a4.27 4.27 0 0 0 .47-3.92 6.15 6.15 0 0 0-1.8-2.39 5.19 5.19 0 0 0-4.17-1.36ZM37.39 133.09l6.53-10-1.37-.89-6.54 10ZM39.87 134.45l5.73-10.51 1.39.75-2.8 5.13 7.93-2.33 2 1.07-6.69 1.86 1.07 8.73-1.85-1-.81-7.28-2.56.69-2 3.66ZM58.53 136a7.9 7.9 0 0 0 0 3.45q.7 2.33 3.69 2.84t4.44-1.43a7.76 7.76 0 0 0 1.17-3.25L69 131l-1.62-.28-1.29 7.28a4.56 4.56 0 0 1-.75 2 2.87 2.87 0 0 1-3 .91 2.54 2.54 0 0 1-2.18-1.71A4.37 4.37 0 0 1 60 137l1.26-7.29-1.62-.28ZM72.56 143.16l-.2-9.71L78.7 143h1.82l-.25-12h-1.54l.21 9.71-6.26-9.58-1.92.05.26 12ZM86.21 142l-2-11.81-1.61.28 2 11.81ZM85.47 130.16l1.71-.55 6.4 8.67.12-10.76 1.73-.55-.5 12.75-1.64.52ZM109.78 132.79l-.67-1.26-6.4 3.47-1.94-3.57 5.82-3.15-.66-1.22-5.82 3.14-1.73-3.2 6.29-3.4-.7-1.29-7.68 4.16L102 137ZM107.57 121.39l3.09-2.49a3.11 3.11 0 0 1 1.19-.64 1.76 1.76 0 0 1 1.82.78 1.86 1.86 0 0 1 .52 1.7 3.17 3.17 0 0 1-1.12 1.48l-2.93 2.36Zm6.65 8.24-3.23-4 2.88-2.31a3.57 3.57 0 0 1 1.28-.75 1.67 1.67 0 0 1 1.66.68l1.33 1.49a8 8 0 0 0 .66.69 2.29 2.29 0 0 0 .35.23l1.55-1.25-.17-.21a1 1 0 0 1-.86-.24 4.45 4.45 0 0 1-.73-.73l-1-1.21a2.66 2.66 0 0 0-1.26-.93 2.42 2.42 0 0 0-1.29.08 3.16 3.16 0 0 0 .27-1.64 3.13 3.13 0 0 0-.75-1.65 2.83 2.83 0 0 0-3.09-1.14 5.5 5.5 0 0 0-2 1.1l-4.32 3.48 7.52 9.33ZM123 120.91a5 5 0 0 0 3.16-1.88 6.59 6.59 0 0 0 1.57-3.1 3 3 0 0 0-1.2-3 2.79 2.79 0 0 0-2.58-.74 4.87 4.87 0 0 0-1.81.91l-1.39 1a10.86 10.86 0 0 1-1.93 1.22 1.38 1.38 0 0 1-1.45-.3 1.92 1.92 0 0 1-.65-1.4 3 3 0 0 1 4.73-2.65l1-1.15a3.31 3.31 0 0 0-3.06-.93 5.63 5.63 0 0 0-2.79 1.82 4.56 4.56 0 0 0-1.3 3.07 3.49 3.49 0 0 0 1.27 2.59 2.49 2.49 0 0 0 2.43.63 7.61 7.61 0 0 0 2.07-1.18l1.35-1a6.37 6.37 0 0 1 1.81-1 1.57 1.57 0 0 1 1.45.46 1.84 1.84 0 0 1 .41 2.28 5.12 5.12 0 0 1-.89 1.43 3.21 3.21 0 0 1-2.77 1.37 3.42 3.42 0 0 1-1.57-.73l-1 1.15a3.85 3.85 0 0 0 3.14 1.13ZM131.83 111l-9.91-6.75-.92 1.36 9.9 6.74ZM122.74 103.32l4.51-8.62 1.26.66-1.87 3.58 9.35 4.9-.77 1.46-9.35-4.9L124 104Z" style="fill:#002965"/><path d="m140 94.13.5-1.54-4.6-1.47-5.44-6.49-.58 1.81 4.44 5-6.5 1.56-.57 1.8 8.19-2.13ZM56.4 53.59V42.3h24.93v3.71h.71V41.6H55.7v12.7h9.25v-.71H56.4zM80.48 64.93l-.34.27a7.45 7.45 0 0 1-.14 2.13 1.06 1.06 0 0 1-1 .21c-.16-.13-.13-.27-.14-.46h-1.15l-.12 1.34c.71-.06 1.36.3 1.83-.42.39.33 1.07.57 1.09 1.13-.09.2-.29.23-.45.3a13.88 13.88 0 0 1-.29 1.86 2 2 0 0 0 .84 0A43.77 43.77 0 0 0 81.68 64a9 9 0 0 1 2.07.38c.09.17-.16.26-.29.29h-.13a46.75 46.75 0 0 1-2.16 6.57l2.42-.19a7.34 7.34 0 0 0-.77-2.87c.33 0 .6.3.85.53a3.75 3.75 0 0 1 1.41 3.49.88.88 0 0 1-.56.68.8.8 0 0 1-.67-.1c-.32-.29-.25-.76-.26-1.19-1 .27-2 .73-3.06 1.06-.09.12-.09.42-.34.29-.22-.42-.31-.9-.53-1.33-.2.56-.6 1.31-1.28 1.39-.22 0-.55.09-.66-.17s0-.83-.49-.85c-.19-.09-.44-.11-.58-.29.6-.14 1.52.38 1.84-.45a9.87 9.87 0 0 0 .34-2.41 4.92 4.92 0 0 0-1.33 0c0 .29-.08.5-.4.6a1.79 1.79 0 0 1-.8.05c-.23-.29 0-.66 0-1a20.48 20.48 0 0 0 .27-2.4l1.12.54h1.13c.11-.64 0-1.2 0-1.79h-2.77a3.89 3.89 0 0 0-.12-.49h3l.56-.56c.33.34 1.13.54.99 1.15ZM83.69 74.4c-.22.2-.58 0-.85.13a3.35 3.35 0 0 0 1.6 1.06l1.09.27c0 .31-.46.34-.48.66s0 .46-.13.67a4.53 4.53 0 0 1-1.6-1.11l-.16.13h-4.42c0-.09-.15-.32-.1-.41h3.17c.29-.17.51-.9.92-.26 0 0 0 .06.09 0a7.83 7.83 0 0 1-.59-1H80l-.26-.39H82l.66-.69c.34.29.85.54 1.03.94Z" style="fill:#002965"/><path d="M79.76 74.66c0 .27-.35.23-.54.35a8 8 0 0 1-3 2.23h-.06a10.08 10.08 0 0 0 2.13-3.3 9.82 9.82 0 0 1 1.47.72ZM83.74 77.61c.05.25-.27.21-.44.21a1.71 1.71 0 0 0-.4 0 4 4 0 0 0 2.68 1.35c0 .26-.34.35-.42.56s-.1.54-.22.77c-.35.07-.65-.77-.92-.12v2.15c.22-.16.37-.5.6-.74.37.34.87.65 1.07 1.11l-.33.23h-9c-.15 0-.15-.36-.23-.43h1.53v-3a5.41 5.41 0 0 1-1.55.83v-.11a8.58 8.58 0 0 0 2.1-3.24 8 8 0 0 1 1.47.8c-.06.22-.33.23-.51.29a8 8 0 0 1-1 1.06l.69.25h3.74l.54-.4a5.44 5.44 0 0 1-.84-1.35l-.11-.06H80c-.08-.06-.1-.28-.12-.37h2.26l.58-.58a2.77 2.77 0 0 1 1.02.79ZM79.33 80h-.42v2.75h.42Zm1.76 0h-.37c.11.12 0 .29-.11.38v2.37h.48Zm1.65 0h-.3v.19a1.19 1.19 0 0 1-.2.19v2.37h.45ZM65.27 63.78c.11.23-.23.28-.31.4a7.92 7.92 0 0 0 4.39 7.31c0 .34-.2 0-.73.3-.32.2-.35.82-.58.83-.7-.23-1.2-1-1.67-1.55a11.23 11.23 0 0 1-1.71-5.48c-.26 2.75-1 5.83-3.91 6.94a2.52 2.52 0 0 1-1.25.24v-.1c3.45-1.7 3.84-5.62 3.7-9.18a9.65 9.65 0 0 1 2.07.29ZM61.56 74.67c.53 0 1.64.18 1.86-.59a2.73 2.73 0 0 1 1.15.94c.08.27-.24.3-.38.42v2.42c-.15.34-.6.31-.9.31A.33.33 0 0 1 63 78c0-.1.08-.32-.11-.32H61.5v5.54c-.14.33-.56.29-.87.32a.3.3 0 0 1-.34-.27v-9.2Zm1.38 1.19v-.78h-1.42v.78Zm0 1.31v-.78h-1.42v.78Z" style="fill:#002965"/><path d="m67.73 74.69.38-.56c.39.31.94.47 1.16 1 0 .25-.29.28-.42.42v7.35a1.09 1.09 0 0 1-1.06.63c-.18.06-.26-.1-.26-.24v-.48a3.12 3.12 0 0 0-1.07-.48 1.86 1.86 0 0 1-1.06.24c-.19-.2-.12-.49-.13-.75h-1.44c-.15.36.14 1-.48 1.07-.21 0-.49.15-.69 0l-.08-.16v-4.58a7.91 7.91 0 0 1 1.22.51h1.49l.3-.41a.91.91 0 0 1-.64-.22v-3.9l1.28.56Zm-.1 1.31v-.78h-1.41V76Zm0 1.3v-.78h-1.42v.78ZM65.24 80v-.78h-1.41V80Zm0 1.3v-.78h-1.41v.78Zm.68-3.08a1.9 1.9 0 0 1 .53.33c.69.58 0 .82 0 .82V82s.38 0 .73.09a.39.39 0 0 0 .45-.19v-4.15h-1.44c.08.16-.27.42-.27.42ZM90.52 46.01v12.05H64.95V54.3h17.09v-8.29h8.48z" style="fill:#002965"/><path d="M65 46h16.34v7.58H65Zm13.66 2.52h-5.32V47h-.68v1.51h-4.93v.69h4.79c-.87 2-4.77 2.27-4.77 2.27l.06.68c4.32-.3 5.19-2.43 5.19-2.43 1.21 2.26 5.42 2.48 5.42 2.48v-.71c-3.54-.34-4.63-1.58-5-2.29h5.11ZM34.62 83.5A8.87 8.87 0 0 1 36.4 87l.69-.18a9.25 9.25 0 0 0-2-3.79ZM37.59 80.15a12.58 12.58 0 0 0 2.73 4.46l.51-.51a12.29 12.29 0 0 1-2.56-4.17Z" style="fill:#002965"/><path d="M33.79 60a6 6 0 0 0-4.28 2 5.32 5.32 0 0 0 .09 7.46 4.55 4.55 0 0 0 6 .08 3.21 3.21 0 0 0 1.16-2.36 3.14 3.14 0 0 0-.87-2.34 2.48 2.48 0 0 0-2-.64 1.89 1.89 0 0 0-1.42 1l.63.35a1.16 1.16 0 0 1 .88-.6 1.74 1.74 0 0 1 1.4.44 2.42 2.42 0 0 1 .66 1.8 2.55 2.55 0 0 1-.92 1.81 3.9 3.9 0 0 1-5 0 4.61 4.61 0 0 1-.06-6.47 5.21 5.21 0 0 1 3.77-1.76 9.32 9.32 0 0 1 6.64 3c3.1 3 3.1 7.87 3.09 10.79s-1.69 11.18-6.87 12a4.12 4.12 0 0 1-3.23-.64 4.21 4.21 0 0 1-1.64-2.67 3.79 3.79 0 0 1 1.35-3.68 3.19 3.19 0 0 1 3-.6 2.66 2.66 0 0 1 1.68 2.19 1.84 1.84 0 0 1-.85 1.71 1.79 1.79 0 0 1-1.45.26 1.29 1.29 0 0 1-.82-.73l-.66.29a2.13 2.13 0 0 0 1.27 1.14 2.47 2.47 0 0 0 2-.35 2.53 2.53 0 0 0 1.24-2.43 3.37 3.37 0 0 0-2.13-2.8 3.85 3.85 0 0 0-3.75.69 4.52 4.52 0 0 0-1.6 4.36 4.9 4.9 0 0 0 1.9 3.15 5 5 0 0 0 3.78.77c5.69-1 7.46-9.53 7.46-12.54 0-3.26 0-8.34-3.31-11.53A10 10 0 0 0 33.79 60Z" style="fill:#002965"/><path d="M0 73.15A73.15 73.15 0 1 0 73.15 0 73.23 73.23 0 0 0 0 73.15Zm.72 0a72.43 72.43 0 1 1 72.43 72.43A72.51 72.51 0 0 1 .72 73.15Z" style="fill:#002965"/><path d="M18.05 73.15a55.1 55.1 0 1 0 55.1-55.1 55.17 55.17 0 0 0-55.1 55.1Zm.72 0a54.38 54.38 0 1 1 54.38 54.38 54.45 54.45 0 0 1-54.38-54.38Z" style="fill:#002965"/><path d="M42.29 36.7c-2.15 1-3.63 3.18-4.3 6.16l-.37 2a33.68 33.68 0 0 1-2.39 8.41 31.72 31.72 0 0 1-4 6.4L29.51 62l.61.4 1.65-2.28a32.87 32.87 0 0 0 4.12-6.54A34.67 34.67 0 0 0 38.33 45l.37-2c.62-2.81 1.94-4.72 3.91-5.67a6.28 6.28 0 0 1 5.32.1 4.9 4.9 0 0 1 2.73 3.4 6.33 6.33 0 0 1-1.34 5.43 4.61 4.61 0 0 1-4.11 1.38 3.19 3.19 0 0 1-3.12-3.35c0-1.43.95-3 2.54-3.1a2 2 0 0 1 1.93.91 2.13 2.13 0 0 1 0 2.09l.61.38a2.83 2.83 0 0 0 0-2.84 2.65 2.65 0 0 0-2.58-1.26c-2 .11-3.16 2-3.22 3.8a3.91 3.91 0 0 0 3.75 4.09 5.27 5.27 0 0 0 4.73-1.61 7.07 7.07 0 0 0 1.52-6.06 5.63 5.63 0 0 0-3.12-3.91 7.07 7.07 0 0 0-5.96-.08Z" style="fill:#002965"/><path d="m60.53 23.13-1.21 1.17a39.31 39.31 0 0 1-5.74 5.4 77.14 77.14 0 0 1-10.1 6.3l-1.71 1 .39.61 1.67-.94A78.45 78.45 0 0 0 54 30.28a40.18 40.18 0 0 0 5.84-5.5l1-1a4 4 0 0 1 4 .66 3.19 3.19 0 0 1 1.34 2.5 2.49 2.49 0 0 1-1.19 2 63.86 63.86 0 0 0-7.42 6.44A53.47 53.47 0 0 0 51 43.91l-1 1.51.59.4 1-1.51a52.81 52.81 0 0 1 6.52-8.42 65.15 65.15 0 0 1 7.34-6.37A3.19 3.19 0 0 0 66.92 27a3.87 3.87 0 0 0-1.63-3.1 4.66 4.66 0 0 0-4.76-.77Z" style="fill:#002965"/><path d="m43.12 40.93.34.64c.16-.09 3.9-2.13 5.39-3.9l-.55-.46c-1.4 1.67-5.15 3.7-5.18 3.72ZM46.57 44.26l.67.28s.72-1.63 3.78-4l-.43-.54c-3.24 2.47-3.99 4.19-4.02 4.26ZM32.7 64.82l.57.43a16.41 16.41 0 0 0 2.43-4.54l-.7-.19a16.63 16.63 0 0 1-2.3 4.3ZM36 67.46l.72.1a10.11 10.11 0 0 1 2.75-5L39 62a10.76 10.76 0 0 0-3 5.46ZM97.36 36.91a5.56 5.56 0 0 0-3.12 3.9 7.06 7.06 0 0 0 1.51 6.06 5.25 5.25 0 0 0 4.73 1.61 3.91 3.91 0 0 0 3.75-4.09c0-1.75-1.2-3.68-3.22-3.79a2.66 2.66 0 0 0-2.58 1.25 2.85 2.85 0 0 0 0 2.84l.61-.37a2.15 2.15 0 0 1 0-2.1 1.92 1.92 0 0 1 1.92-.9 3 3 0 0 1 2.54 3.1 3.19 3.19 0 0 1-3.12 3.35 4.61 4.61 0 0 1-4.11-1.39A6.31 6.31 0 0 1 94.94 41a4.9 4.9 0 0 1 2.74-3.41 6.29 6.29 0 0 1 5.31-.1c2 1 3.3 2.87 3.92 5.67l.37 1.94a33.54 33.54 0 0 0 2.44 8.57 38.21 38.21 0 0 0 4.5 7.13l1.71 2.39.61-.4-1.74-2.42a37.56 37.56 0 0 1-4.43-7 33.92 33.92 0 0 1-2.37-8.44l-.38-2c-.66-3-2.15-5.12-4.3-6.17a7 7 0 0 0-5.96.15Z" style="fill:#002965"/><path d="M80.31 24a3.83 3.83 0 0 0-1.62 3.09 3.2 3.2 0 0 0 1.5 2.57A64.61 64.61 0 0 1 87.52 36a49.27 49.27 0 0 1 5.92 7.52L95 45.76l.58-.43L94 43.1a50.47 50.47 0 0 0-6-7.63A65.49 65.49 0 0 0 80.59 29a2.46 2.46 0 0 1-1.18-2 3.15 3.15 0 0 1 1.34-2.51 4 4 0 0 1 4-.66l1 1a40.31 40.31 0 0 0 5.85 5.51 77.47 77.47 0 0 0 10.23 6.41l1.64.92.38-.61-1.68-1A77.67 77.67 0 0 1 92 29.81a39.37 39.37 0 0 1-5.75-5.42l-1.2-1.16a4.67 4.67 0 0 0-4.74.77Z" style="fill:#002965"/><path d="M96.75 37.77a20.78 20.78 0 0 0 5 3.68l.34-.63a21.15 21.15 0 0 1-4.77-3.51ZM94.58 40.68c3.06 2.34 3.78 4 3.79 4l.66-.29c0-.07-.77-1.78-4-4.25ZM104.64 63.25c-3.32 3.2-3.31 8.27-3.31 11.3 0 3.24 1.77 11.8 7.47 12.77a4.88 4.88 0 0 0 3.78-.77 4.93 4.93 0 0 0 1.93-3.15 4.48 4.48 0 0 0-1.62-4.34 3.86 3.86 0 0 0-3.75-.71 3.39 3.39 0 0 0-2.14 2.81 2.52 2.52 0 0 0 1.24 2.42 2.42 2.42 0 0 0 2 .34 2.06 2.06 0 0 0 1.27-1.11l-.65-.31a1.35 1.35 0 0 1-.83.74 1.77 1.77 0 0 1-1.44-.27 1.8 1.8 0 0 1-.9-1.76 2.68 2.68 0 0 1 1.68-2.2 3.21 3.21 0 0 1 3 .61 3.79 3.79 0 0 1 1.34 3.67 4.19 4.19 0 0 1-1.55 2.71 4.11 4.11 0 0 1-3.24.65c-5.18-.88-6.87-9.1-6.87-11.82 0-3.16 0-8 3.09-11a9.24 9.24 0 0 1 6.64-3 5.16 5.16 0 0 1 3.77 1.75 4.61 4.61 0 0 1 0 6.47 3.89 3.89 0 0 1-5 0 2.55 2.55 0 0 1-.91-1.85 2.44 2.44 0 0 1 .66-1.8 1.72 1.72 0 0 1 1.48-.45 1.67 1.67 0 0 1 1.13 1.23l.68-.25a2.35 2.35 0 0 0-1.65-1.69 2.44 2.44 0 0 0-2.15.66 3.12 3.12 0 0 0-.87 2.33 3.26 3.26 0 0 0 1.08 2.4 4.6 4.6 0 0 0 6-.09 5.3 5.3 0 0 0 .09-7.45 5.91 5.91 0 0 0-4.28-2 10 10 0 0 0-7.17 3.16Z" style="fill:#002965"/><path d="M109.81 60.68a17 17 0 0 0 2.38 4.52l.58-.43a16.23 16.23 0 0 1-2.26-4.28ZM106.09 62.65a10.2 10.2 0 0 1 2.76 5l.71-.11a10.75 10.75 0 0 0-3-5.42ZM108.51 86.88l.7.17a8.77 8.77 0 0 1 1.79-3.44l-.49-.52a9.32 9.32 0 0 0-2 3.79ZM104.78 84.21l.51.5a12.84 12.84 0 0 0 2.71-4.45l-.69-.23a12.08 12.08 0 0 1-2.53 4.18ZM64.44 30a17.89 17.89 0 0 0 8 2.13c6 0 8.49-2.08 8.59-2.17l-.46-.55s-2.47 2-8.13 2a17.39 17.39 0 0 1-7.65-2Z" style="fill:#002965"/><path d="m108.25 96.08-.18.8c-1.44 6.44-5.83 26-34.92 26-29.34 0-34.11-20-35.68-26.6l-.24-1a42.91 42.91 0 0 0-4.57-10.18l-.61.39a42.2 42.2 0 0 1 4.49 10l.23 1c1.6 6.71 6.48 27.15 36.38 27.15 19.69 0 31.67-8.95 35.62-26.59l.18-.79a34.71 34.71 0 0 1 5-11.26l-.61-.38c-2.6 4.2-4.02 6.98-5.09 11.46Z" style="fill:#002965"/><path d="M89.65 61h-14c-.2.07-2.18 1.63-2.72 2l-2.56-2h-15.2l-7.34 8-.1 24.45h19.61L69.89 96h5.91l2.26-2.25H96.9V68.42c-.1-.26-7-7.32-7-7.32l-.1-.1Zm-16.46 2.78 2.71-2.14 13.59.07 6.79 7s-.1 23.67-.1 24.37H77.76l-2.25 2.22h-5.32l-2.55-2.56H48.45V69.26c.07 0 6.47-6.92 7-7.54h14.72c0 .08 2.57 2.06 2.57 2.06L73 64Z" style="fill:#002965"/><path d="M55 61.36v24.31h15.63c0 .1 2.19 2 2.19 2l.24.21 2.67-2.37c0 .09 14 .12 14 .12H90l.07-24.29h-.72L89.32 85H75.49c-.2.08-1.89 1.56-2.43 2l-2.18-2H55.69V61.36Z" style="fill:#002965"/><path d="M92.84 65.08v23.41H76.6c-.24.09-2.68 2.4-2.68 2.4l-2.38-.09-2.23-2.23H52.16V65.18h-.72v24.11H69l2.23 2.22h2.93c.25-.09 2.68-2.41 2.68-2.41l16.73.1V65.08Z" style="fill:#002965"/><path d="M53.26 63.27v24.35h16.49L72 89.94h1.9l2.1-2.37h16V63.45h-.72V86.8H75.65l-2.09 2.37h-1.28c-.19-.21-2.23-2.33-2.23-2.33H54V63.22Z" style="fill:#002965"/><path d="M94.6 66.93v23.82H76.85l-2 2h-4c-.2-.23-1.95-2.41-1.95-2.41H50.24v-23h-.72v23.75h19l2 2.41h4.68l2-2h18.12V66.93Z" style="fill:#002965"/><path d="M46.39 88.85h10.64v.72H46.39z" style="fill:#002965" transform="rotate(-47.12 51.705 89.197)"/><path d="m89.41 85.55 6.76 7.88.55-.47-6.76-7.88-.55.47z" style="fill:#002965"/></svg>