<svg xmlns="http://www.w3.org/2000/svg" width="205mm" height="205mm" viewBox="0 0 205 205"><defs><linearGradient id="a" x1="0" x2="1" y1="0" y2="0" gradientTransform="scale(96.28687 -96.28687) rotate(13.861 26.318 7.768)" gradientUnits="userSpaceOnUse" spreadMethod="pad"><stop offset="0" style="stop-opacity:1;stop-color:#9cca3b"/><stop offset="0.483521" style="stop-opacity:1;stop-color:#03a550"/><stop offset="1" style="stop-opacity:1;stop-color:#10381d"/></linearGradient><linearGradient id="b" x1="0" x2="1" y1="0" y2="0" gradientTransform="scale(96.226 -96.226) rotate(13.861 27.463 7.911)" gradientUnits="userSpaceOnUse" spreadMethod="pad"><stop offset="0" style="stop-opacity:1;stop-color:#9cca3b"/><stop offset="0.483521" style="stop-opacity:1;stop-color:#03a550"/><stop offset="1" style="stop-opacity:1;stop-color:#10381d"/></linearGradient><linearGradient id="c" x1="0" x2="1" y1="0" y2="0" gradientTransform="matrix(93.41518 -23.05045 -23.05045 -93.41516 256.198 598.211)" gradientUnits="userSpaceOnUse" spreadMethod="pad"><stop offset="0" style="stop-opacity:1;stop-color:#9cca3b"/><stop offset="0.483521" style="stop-opacity:1;stop-color:#03a550"/><stop offset="1" style="stop-opacity:1;stop-color:#10381d"/></linearGradient><linearGradient id="d" x1="0" x2="1" y1="0" y2="0" gradientTransform="matrix(93.40556 -23.04808 -23.04808 -93.40555 253.004 585.251)" gradientUnits="userSpaceOnUse" spreadMethod="pad"><stop offset="0" style="stop-opacity:1;stop-color:#9cca3b"/><stop offset="0.483521" style="stop-opacity:1;stop-color:#03a550"/><stop offset="1" style="stop-opacity:1;stop-color:#10381d"/></linearGradient><linearGradient id="e" x1="0" x2="1" y1="0" y2="0" gradientTransform="scale(96.20772 -96.20772) rotate(13.861 26.844 7.837)" gradientUnits="userSpaceOnUse" spreadMethod="pad"><stop offset="0" style="stop-opacity:1;stop-color:#9cca3b"/><stop offset="0.483521" style="stop-opacity:1;stop-color:#03a550"/><stop offset="1" style="stop-opacity:1;stop-color:#10381d"/></linearGradient><linearGradient id="f" x1="0" x2="1" y1="0" y2="0" gradientTransform="scale(111.97357 -111.97357) rotate(68.725 5.29 -1.268)" gradientUnits="userSpaceOnUse" spreadMethod="pad"><stop offset="0" style="stop-opacity:1;stop-color:#f285b4"/><stop offset="0.483521" style="stop-opacity:1;stop-color:#eb2227"/><stop offset="1" style="stop-opacity:1;stop-color:#411212"/></linearGradient><linearGradient id="g" x1="0" x2="1" y1="0" y2="0" gradientTransform="matrix(40.6289 -104.34114 -104.34114 -40.62888 260.433 648.348)" gradientUnits="userSpaceOnUse" spreadMethod="pad"><stop offset="0" style="stop-opacity:1;stop-color:#f285b4"/><stop offset="0.483521" style="stop-opacity:1;stop-color:#eb2227"/><stop offset="1" style="stop-opacity:1;stop-color:#411212"/></linearGradient><linearGradient id="h" x1="0" x2="1" y1="0" y2="0" gradientTransform="matrix(40.6276 -104.33784 -104.33784 -40.6276 260.243 648.273)" gradientUnits="userSpaceOnUse" spreadMethod="pad"><stop offset="0" style="stop-opacity:1;stop-color:#f285b4"/><stop offset="0.483521" style="stop-opacity:1;stop-color:#eb2227"/><stop offset="1" style="stop-opacity:1;stop-color:#411212"/></linearGradient><linearGradient id="i" x1="0" x2="1" y1="0" y2="0" gradientTransform="scale(-110.10106 110.10106) rotate(-66.592 2.712 5.37)" gradientUnits="userSpaceOnUse" spreadMethod="pad"><stop offset="0" style="stop-opacity:1;stop-color:#b1e3f9"/><stop offset="0.483521" style="stop-opacity:1;stop-color:#0866b1"/><stop offset="1" style="stop-opacity:1;stop-color:#1f1c4d"/></linearGradient><linearGradient id="j" x1="0" x2="1" y1="0" y2="0" gradientTransform="scale(-110.11078 110.11078) rotate(-66.592 2.829 5.292)" gradientUnits="userSpaceOnUse" spreadMethod="pad"><stop offset="0" style="stop-opacity:1;stop-color:#b1e3f9"/><stop offset="0.483521" style="stop-opacity:1;stop-color:#0866b1"/><stop offset="1" style="stop-opacity:1;stop-color:#1f1c4d"/></linearGradient><linearGradient id="k" x1="0" x2="1" y1="0" y2="0" gradientTransform="matrix(-43.77512 -101.12009 -101.12009 43.77513 346.857 637.198)" gradientUnits="userSpaceOnUse" spreadMethod="pad"><stop offset="0" style="stop-opacity:1;stop-color:#b1e3f9"/><stop offset="0.483521" style="stop-opacity:1;stop-color:#0866b1"/><stop offset="1" style="stop-opacity:1;stop-color:#1f1c4d"/></linearGradient><linearGradient id="l" x1="0" x2="1" y1="0" y2="0" gradientTransform="matrix(93.50778 -23.0733 -23.0733 -93.50777 253.176 586.253)" gradientUnits="userSpaceOnUse" spreadMethod="pad"><stop offset="0" style="stop-opacity:1;stop-color:#9cca3b"/><stop offset="0.483521" style="stop-opacity:1;stop-color:#03a550"/><stop offset="1" style="stop-opacity:1;stop-color:#10381d"/></linearGradient><radialGradient id="m" cx="0" cy="0" r="1" fx="0" fy="0" gradientTransform="scale(17.82247 -17.82247) rotate(13.61 156.79 55.798)" gradientUnits="userSpaceOnUse" spreadMethod="pad"><stop offset="0" style="stop-opacity:1;stop-color:#fff"/><stop offset="0.00561523" style="stop-opacity:1;stop-color:#fff"/><stop offset="0.20224" style="stop-opacity:1;stop-color:#f9c739"/><stop offset="0.60112" style="stop-opacity:1;stop-color:#eb2227"/><stop offset="0.69934077" style="stop-opacity:1;stop-color:#eb2227"/><stop offset="0.865173" style="stop-opacity:1;stop-color:#851618"/><stop offset="0.95470238" style="stop-opacity:1;stop-color:#851618"/><stop offset="0.98877" style="stop-opacity:1;stop-color:#cd2027"/><stop offset="1" style="stop-opacity:1;stop-color:#cd2027"/></radialGradient></defs><path d="M0 0c0-70.089-56.833-126.927-126.928-126.927-70.101 0-126.929 56.833-126.929 126.927 0 70.105 56.828 126.933 126.929 126.933C-56.833 126.933 0 70.105 0 0" style="fill:#231f20;fill-opacity:1;fill-rule:nonzero;stroke:none" transform="matrix(.80754 0 0 -.80753 205 102.502)"/><path d="M0 0c0-51.399-41.673-93.072-93.083-93.072-51.404 0-93.077 41.673-93.077 93.072 0 51.41 41.673 93.088 93.077 93.088C-41.673 93.088 0 51.41 0 0" style="fill:#fff;fill-opacity:1;fill-rule:nonzero;stroke:none" transform="matrix(.80754 0 0 -.80753 177.14 102.502)"/><path d="M0 0a2.483 2.483 0 0 0-2.487-2.487A2.479 2.479 0 0 0-4.969 0 2.484 2.484 0 1 0 0 0" style="fill:#fff;fill-opacity:1;fill-rule:nonzero;stroke:none" transform="matrix(.80754 0 0 -.80753 25.12 142.392)"/><path d="M0 0a2.489 2.489 0 0 0-2.492-2.487A2.482 2.482 0 0 0-4.979 0a2.487 2.487 0 0 0 2.487 2.492A2.494 2.494 0 0 0 0 0" style="fill:#fff;fill-opacity:1;fill-rule:nonzero;stroke:none" transform="matrix(.80754 0 0 -.80753 183.344 142.392)"/><path d="m0 0-1.267 7.813-4.806-.785c-.86-.145-1.416-.289-1.669-.439-.192-.118-.346-.315-.452-.609a2.346 2.346 0 0 1-.114-1.176l.098-.594-.461-.077-1.164 7.188.457.077.09-.593c.069-.397.227-.759.479-1.083a1.03 1.03 0 0 1 .679-.439c.289-.057.842-.015 1.67.118l10.841 1.766c.851.133 1.406.283 1.659.438.196.113.346.31.454.593.14.398.173.79.116 1.187l-.103.594.459.072 1.169-7.183-.459-.077-.098.593c-.111.691-.392 1.151-.847 1.404-.299.165-.952.165-1.963 0l-5.119-.831L.921.149 6.04.975c.852.14 1.403.289 1.659.439.189.124.346.325.448.604.137.392.179.784.115 1.181l-.104.609.462.072 1.174-7.198-.462-.082-.098.598c-.108.697-.397 1.166-.851 1.414-.3.16-.949.155-1.958-.005L-4.422-3.158c-.856-.145-1.411-.284-1.67-.444-.19-.113-.34-.309-.448-.593a2.311 2.311 0 0 1-.108-1.192l.095-.593-.46-.073-1.174 7.203.459.073.099-.609c.069-.397.219-.753.472-1.084.173-.227.403-.376.686-.428.282-.052.841-.02 1.664.119z" style="fill:#fff;fill-opacity:1;fill-rule:nonzero;stroke:none" transform="matrix(.80754 0 0 -.80753 14.938 120.2)"/><path d="m0 0 .467-.031C.443-.47.506-.836.65-1.12c.145-.278.426-.562.852-.831.283-.18.967-.48 2.056-.887l13.467-5.413-.03-.5L5.947-12.09l10.674-4.381-.023-.449-14.353-4.365c-1.076-.325-1.711-.537-1.904-.63-.322-.149-.578-.366-.738-.65-.167-.273-.271-.661-.294-1.156l-.459.021.298 6.295.465-.015-.01-.305c-.024-.443.056-.789.248-1.032.19-.243.43-.377.714-.387.287-.015.973.14 2.043.454l9.702 2.879-7.97 3.22-1.455-.433-1.164-.346c-.42-.154-.8-.335-1.127-.536a1.455 1.455 0 0 1-.421-.382 2.25 2.25 0 0 1-.359-.609c-.056-.16-.098-.413-.113-.749l-.462.021.323 6.621.461-.026L0-9.479c-.018-.47.063-.82.253-1.047.19-.223.454-.336.8-.362.426-.02 1.176.129 2.258.454l9.396 2.812-9.206 3.69c-1.014.418-1.729.635-2.126.655a.881.881 0 0 1-.547-.155.952.952 0 0 1-.379-.443C.322-4.185.242-4.592.22-5.108l-.468.025z" style="fill:#fff;fill-opacity:1;fill-rule:nonzero;stroke:none" transform="matrix(.80754 0 0 -.80753 7.467 88.306)"/><path d="m0 0-7.366-1.213 6.012-4.479zm.983.129L-.542-6.285l2.343-1.744c.581-.434 1.024-.686 1.346-.759.253-.057.501.011.749.202.248.195.496.681.743 1.465l.449-.103-1.238-5.222-.45.113c.042.723-.009 1.208-.154 1.46-.294.506-.978 1.156-2.057 1.946L-11.056.139l.104.428L4.203 3.055c1.207.201 2.03.454 2.446.753.425.299.738.784.939 1.445l.449-.104-1.556-6.532-.449.108c.121.661.121 1.135-.015 1.414-.134.274-.335.444-.601.501-.356.092-.96.067-1.814-.078Z" style="fill:#fff;fill-opacity:1;fill-rule:nonzero;stroke:none" transform="matrix(.80754 0 0 -.80753 18.022 80.86)"/><path d="m0 0 5.437-2.281-.184-.423c-1.094.299-2.032.397-2.799.299a4.189 4.189 0 0 1-2.113-.923A4.532 4.532 0 0 1-1.07-5.16c-.338-.805-.374-1.569-.104-2.297.272-.727.72-1.232 1.342-1.491.482-.201.991-.211 1.52-.051.776.237 2.033 1.053 3.749 2.446 1.403 1.14 2.43 1.883 3.067 2.239.65.361 1.318.568 2.016.619a4.113 4.113 0 0 0 1.97-.325c1.19-.495 2.026-1.388 2.492-2.668.478-1.284.409-2.652-.201-4.107a7.947 7.947 0 0 0-.644-1.238c-.14-.217-.491-.655-1.048-1.311-.56-.645-.883-1.078-.968-1.275a.659.659 0 0 1-.017-.526c.074-.165.275-.346.611-.552l-.173-.428-5.385 2.255.178.428c1.216-.273 2.173-.351 2.875-.247.701.107 1.38.422 2.048.964a5.353 5.353 0 0 1 1.519 2.069c.406.96.468 1.838.197 2.606-.282.774-.764 1.311-1.455 1.595-.382.17-.824.227-1.303.18-.487-.051-.984-.232-1.515-.531-.361-.201-1.197-.816-2.515-1.847-1.314-1.022-2.315-1.729-3.006-2.106-.679-.382-1.352-.603-2.02-.665a3.938 3.938 0 0 0-1.964.299c-1.127.475-1.917 1.316-2.371 2.518-.443 1.208-.391 2.482.168 3.818.351.831.926 1.631 1.732 2.394.368.347.592.609.668.79.08.207.092.393.028.568-.069.181-.271.382-.599.609z" style="fill:#fff;fill-opacity:1;fill-rule:nonzero;stroke:none" transform="matrix(.80754 0 0 -.80753 15.426 62.275)"/><path d="m0 0 4.203 6.703L.075 9.298c-.738.454-1.252.713-1.543.769-.224.042-.467-.01-.738-.16a2.29 2.29 0 0 1-.864-.81l-.323-.505-.389.247 3.867 6.166.393-.242-.313-.516a2.343 2.343 0 0 1-.366-1.12 1.063 1.063 0 0 1 .224-.789c.178-.222.627-.557 1.334-1.001l9.306-5.841c.731-.46 1.236-.712 1.535-.769.214-.041.462.01.733.154.361.202.65.475.865.811l.322.516.39-.248L10.64-.211l-.392.253.317.505c.374.594.464 1.12.287 1.61-.114.32-.604.759-1.474 1.295L4.984 6.213.782-.49l4.394-2.756c.737-.454 1.243-.717 1.537-.768.217-.047.465.015.735.155.365.201.654.474.865.815l.323.521.396-.253-3.875-6.177-.397.248.317.511c.38.593.478 1.135.3 1.625-.121.31-.617.738-1.481 1.285L-5.408.547c-.736.465-1.254.717-1.542.769-.225.046-.465-.005-.736-.139A2.376 2.376 0 0 1-8.55.356l-.323-.511-.392.248 3.875 6.182.393-.248-.328-.521a2.341 2.341 0 0 1-.359-1.12 1.094 1.094 0 0 1 .225-.784c.178-.227.621-.568 1.336-1.012Z" style="fill:#fff;fill-opacity:1;fill-rule:nonzero;stroke:none" transform="matrix(.80754 0 0 -.80753 25.093 58.229)"/><path d="m0 0 .355-.299-4.664-5.615-.356.3.387.464c.449.542.614 1.068.506 1.569-.081.335-.514.815-1.295 1.476l-8.453 7.033c-.663.547-1.135.866-1.421.96-.209.072-.456.046-.744-.052a2.389 2.389 0 0 1-.966-.697l-.388-.459-.356.294 4.665 5.609.361-.294-.398-.48c-.443-.537-.608-1.053-.495-1.558.07-.331.495-.821 1.281-1.476l8.457-7.028c.66-.562 1.134-.877 1.416-.97.212-.067.466-.052.754.056.378.155.701.377.957.692z" style="fill:#fff;fill-opacity:1;fill-rule:nonzero;stroke:none" transform="matrix(.80754 0 0 -.80753 41.074 48.032)"/><path d="m0 0 3.395 3.127L19.706.774l-6.648 7.234c-.71.764-1.24 1.167-1.585 1.198-.464.046-.944-.155-1.44-.609l-.43-.398-.31.341 4.357 4.009.31-.335-.436-.413c-.531-.49-.761-.99-.691-1.512.046-.325.392-.836 1.037-1.538l9.716-10.572-.332-.3L5.712.372l7.093-7.72c.707-.769 1.23-1.171 1.571-1.207.477-.042.954.159 1.444.603l.439.408.315-.341-4.363-4.009-.317.346.438.402c.534.491.767.996.697 1.518-.047.324-.392.83-1.037 1.537L3.979.619c-.754.098-1.291.129-1.603.088C2.062.671 1.674.542 1.197.32.973.211.679-.005.31-.34Z" style="fill:#fff;fill-opacity:1;fill-rule:nonzero;stroke:none" transform="matrix(.80754 0 0 -.80753 32.002 37.748)"/><path d="m0 0 3.128-4.887-.341-.185C1.497-3.808.248-3.07-.959-2.869c-1.21.206-2.407-.016-3.589-.666-.991-.547-1.744-1.284-2.268-2.229-.519-.944-.706-2.085-.565-3.437.145-1.351.668-2.842 1.566-4.478.743-1.352 1.602-2.405 2.58-3.158.978-.754 2.044-1.156 3.202-1.203 1.164-.046 2.296.232 3.413.841.963.537 1.706 1.208 2.217 2.039.518.815.877 2.09 1.089 3.808l.454-.036c-.016-1.734-.357-3.189-1.007-4.35-.663-1.166-1.677-2.121-3.047-2.88-2.474-1.357-4.887-1.496-7.252-.402-1.763.805-3.15 2.131-4.17 3.978-.812 1.492-1.233 3.045-1.248 4.655-.023 1.61.36 3.08 1.16 4.417.79 1.321 1.884 2.368 3.267 3.132 1.076.593 2.286.908 3.62.96.397.005.663.051.795.124a.8.8 0 0 1 .404.495c.086.299.067.65-.046 1.048z" style="fill:#fff;fill-opacity:1;fill-rule:nonzero;stroke:none" transform="matrix(.80754 0 0 -.80753 61.023 16.189)"/><path d="m0 0 5.632 1.884.142-.439-.304-.103c-.206-.067-.478-.258-.813-.578a3.765 3.765 0 0 1-.823-1.151c-.206-.449-.421-1.14-.638-2.064L1.37-9.892l1.359-4.045c.334-.996.651-1.579.956-1.75.415-.231.944-.237 1.593-.015l.525.176.149-.444-6.855-2.307-.15.444.571.191c.683.232 1.098.599 1.243 1.115.091.309-.013.918-.318 1.816l-1.29 3.829-6.694 5.263c-.795.614-1.319.996-1.566 1.135-.253.129-.726.237-1.407.315-.177.031-.425-.005-.73-.108l-.145.444 6.905 2.321.149-.438-.358-.124a2.206 2.206 0 0 1-.945-.609c-.253-.278-.322-.599-.206-.944.098-.29.514-.718 1.249-1.301L.519-8.999l1.496 6.038c.224.907.276 1.547.155 1.909a1.157 1.157 0 0 1-.374.541 1.315 1.315 0 0 1-.633.243C.916-.242.575-.304.149-.443Z" style="fill:#fff;fill-opacity:1;fill-rule:nonzero;stroke:none" transform="matrix(.80754 0 0 -.80753 73.99 11.605)"/><path d="M0 0a12.264 12.264 0 0 1 2.895.087C4.396.31 5.48.81 6.177 1.61c.686.789.949 1.682.8 2.673a3.647 3.647 0 0 1-.811 1.806c-.438.552-1.094.939-1.95 1.176-.862.222-1.878.253-3.06.072-.506-.072-.95-.149-1.31-.221a10.01 10.01 0 0 1-.873-.207Zm-1.192 8.044c.315-.015.671 0 1.068.026.397.031.831.083 1.306.15 1.207.18 2.1.444 2.662.795.573.35.98.815 1.223 1.403a3.41 3.41 0 0 1 .222 1.832c-.144.991-.666 1.775-1.574 2.348-.908.578-2.131.743-3.674.521-.825-.129-1.558-.325-2.198-.604zm6.605.3c1.207-.078 2.136-.341 2.797-.81.913-.645 1.449-1.517 1.625-2.617.119-.831-.025-1.671-.443-2.518C8.979 1.553 8.328.893 7.462.402 6.59-.083 5.212-.475 3.308-.753L-4.634-1.93l-.069.454.635.098c.699.103 1.173.402 1.411.893.144.315.16.944.015 1.894l-1.613 10.877c-.154 1.042-.374 1.687-.649 1.92-.38.319-.886.428-1.52.33l-.633-.093-.069.464L.145 15.98c1.357.207 2.46.269 3.307.191 1.285-.113 2.312-.505 3.08-1.161.764-.665 1.224-1.486 1.368-2.466a3.747 3.747 0 0 0-.433-2.389c-.418-.738-1.105-1.342-2.054-1.811" style="fill:#fff;fill-opacity:1;fill-rule:nonzero;stroke:none" transform="matrix(.80754 0 0 -.80753 87.333 21.452)"/><path d="m0 0-.082-6.729 3.73-.046c.976-.01 1.626.124 1.956.413.439.382.692 1.052.753 2.023h.47l-.083-5.924-.464.005c-.113.831-.221 1.357-.33 1.594-.144.3-.392.532-.733.702-.34.175-.866.263-1.573.274l-3.747.051-.072-5.614c-.011-.748.016-1.212.088-1.377a.777.777 0 0 1 .34-.393c.165-.098.48-.144.955-.149l2.874-.047c.976-.01 1.677.052 2.11.175.429.125.857.382 1.265.77.526.521 1.067 1.29 1.625 2.332l.501-.011-1.527-4.241-13.113.17.011.464.593-.01a2.41 2.41 0 0 1 1.151.274c.268.134.454.33.552.598.104.263.155.816.165 1.646l.149 11.053C-2.42-.913-2.518-.253-2.734 0c-.3.341-.795.516-1.502.521l-.599.011.006.464L8.282.826l.14-3.731h-.485c-.161.903-.357 1.517-.563 1.858-.212.335-.526.593-.939.779-.335.123-.923.196-1.765.206Z" style="fill:#fff;fill-opacity:1;fill-rule:nonzero;stroke:none" transform="matrix(.80754 0 0 -.80753 101.488 8.143)"/><path d="M0 0c.154-.031.294-.057.402-.083.119-.02.211-.046.284-.056 1.599-.289 2.869-.15 3.797.397C5.418.8 5.99 1.61 6.171 2.684c.191 1.047.02 1.95-.522 2.729-.536.764-1.346 1.249-2.424 1.44-.475.083-1.141.124-1.987.113Zm10.361-10.738-4.474.8-4.273 8.844c-.423.062-.768.114-1.031.155-.104.021-.217.046-.346.067-.114.031-.248.057-.382.088l-.862-4.866c-.19-1.053-.196-1.729-.005-2.017.242-.429.687-.692 1.306-.806l.655-.113-.072-.454-7.189 1.279.083.454.635-.118c.707-.119 1.254.021 1.641.428.222.217.413.81.588 1.77l1.92 10.826c.196 1.047.201 1.723.01 2.023-.258.418-.702.691-1.332.799l-.634.114.083.459L2.786 7.9c1.775-.315 3.065-.681 3.86-1.084a4.647 4.647 0 0 0 1.899-1.821c.469-.8.608-1.682.438-2.642C8.798 1.316 8.308.48 7.497-.155c-.805-.634-1.94-.985-3.4-1.052l2.6-5.423c.594-1.244 1.141-2.096 1.641-2.56.506-.459 1.208-.831 2.1-1.089z" style="fill:#fff;fill-opacity:1;fill-rule:nonzero;stroke:none" transform="matrix(.80754 0 0 -.80753 115.14 14.989)"/><path d="m0 0 .187.418 5.505-2.446-.186-.428-.588.268c-.608.263-1.192.217-1.749-.145-.264-.165-.594-.686-.981-1.542l-2.801-6.306c-.698-1.558-1.389-2.698-2.08-3.426-.692-.717-1.63-1.187-2.802-1.398-1.182-.212-2.56.02-4.112.722-1.699.753-2.854 1.62-3.473 2.601a5.234 5.234 0 0 0-.811 3.199c.057.795.501 2.121 1.337 3.999l2.699 6.079c.433.949.578 1.64.444 2.053-.129.418-.49.753-1.079 1.022l-.583.253.185.423 6.724-2.988-.186-.423-.598.263c-.645.289-1.192.289-1.646.006-.32-.191-.671-.718-1.058-1.59l-3.013-6.78a15.483 15.483 0 0 1-.754-2.142c-.237-.831-.31-1.527-.211-2.095.098-.567.356-1.114.774-1.636.418-.526 1.032-.964 1.827-1.32 1.01-.449 2.022-.635 3.018-.553 1.001.088 1.806.413 2.409.971.599.562 1.265 1.666 2.002 3.317l2.797 6.296c.434.97.599 1.63.496 1.966-.15.469-.516.836-1.104 1.104z" style="fill:#fff;fill-opacity:1;fill-rule:nonzero;stroke:none" transform="matrix(.80754 0 0 -.80753 142.85 16.914)"/><path d="m0 0 3.808-2.611L5.14-19.025l5.567 8.08c.588.867.867 1.471.82 1.817-.051.464-.355.892-.908 1.264l-.484.341.258.381 4.88-3.359-.262-.376-.495.335c-.594.413-1.141.516-1.631.33-.305-.114-.733-.562-1.259-1.352L3.488-23.386l-.372.253L1.636-5.48l-5.935-8.633c-.593-.867-.872-1.466-.836-1.811.063-.47.367-.888.914-1.259l.495-.346-.257-.387-4.882 3.364.258.377.485-.33c.603-.418 1.156-.526 1.641-.341.309.114.727.568 1.269 1.352l6.703 9.758c-.072.753-.17 1.279-.273 1.574-.109.299-.321.655-.64 1.063-.15.196-.438.438-.842.722z" style="fill:#fff;fill-opacity:1;fill-rule:nonzero;stroke:none" transform="matrix(.80754 0 0 -.80753 149.667 19.743)"/><path d="m0 0-.31-.346-5.419 4.903.321.345.443-.407c.522-.47 1.038-.666 1.549-.573.33.062.836.48 1.521 1.228l7.374 8.158c.584.64.929 1.099 1.033 1.373.077.211.077.464-.021.753a2.508 2.508 0 0 1-.65.996l-.454.403.32.34 5.407-4.897-.319-.34-.449.418c-.517.459-1.033.645-1.538.562-.341-.062-.846-.464-1.537-1.228L-.104 3.535c-.587-.645-.918-1.099-1.032-1.373-.072-.216-.061-.464.032-.753.133-.387.35-.722.644-.991Z" style="fill:#fff;fill-opacity:1;fill-rule:nonzero;stroke:none" transform="matrix(.80754 0 0 -.80753 159.305 43.961)"/><path d="m0 0-.351-.299c-.48.382-.919.619-1.326.671C-2.28.438-3.014.34-3.875.062l-14.913-4.814-.299.356 7.106 14.35c.361.727.562 1.207.608 1.408.062.336.052.661-.03.986-.088.335-.285.707-.583 1.135l.355.299 4.485-5.32-.351-.299c-.568.552-1.001.857-1.301.914a.917.917 0 0 1-.789-.212c-.32-.274-.697-.841-1.13-1.703l-4.83-9.758L-5.423.702c.996.325 1.641.609 1.93.851.176.155.278.397.299.728.01.33-.134.738-.439 1.238-.02.042-.056.103-.108.191l.361.299z" style="fill:#fff;fill-opacity:1;fill-rule:nonzero;stroke:none" transform="matrix(.80754 0 0 -.80753 179.656 46.799)"/><path d="m0 0-5.8-3.411 1.899-3.225c.496-.836.95-1.321 1.362-1.455.558-.18 1.265-.041 2.126.403l.237-.397-5.113-3.004-.237.398c.655.521 1.062.892 1.197 1.109.181.284.253.609.222.996-.026.377-.222.877-.588 1.486l-1.889 3.225-4.835-2.838c-.655-.382-1.032-.645-1.136-.785a.767.767 0 0 1-.16-.5c0-.196.119-.495.357-.898l1.465-2.487c.491-.831.898-1.398 1.233-1.713.336-.304.779-.527 1.321-.676.707-.186 1.651-.243 2.833-.186l.253-.433-4.422-.898-6.651 11.316.397.237.31-.526c.201-.341.479-.619.825-.836.248-.165.522-.217.8-.165.278.052.779.289 1.491.707l9.536 5.604c.924.547 1.445.975 1.553 1.295.14.423.02.944-.33 1.553l-.305.511.403.242L5-6.662 1.878-8.71l-.253.418c.691.609 1.12 1.089 1.301 1.439.18.352.237.754.18 1.203-.056.356-.309.893-.738 1.625z" style="fill:#fff;fill-opacity:1;fill-rule:nonzero;stroke:none" transform="matrix(.80754 0 0 -.80753 182.648 53.1)"/><path d="M0 0c.057-.144.104-.284.134-.392.042-.113.078-.201.103-.274.578-1.511 1.352-2.533 2.307-3.044.949-.521 1.935-.583 2.946-.191.996.382 1.683 1.001 2.064 1.868.383.851.377 1.801-.021 2.818-.17.454-.484 1.042-.933 1.759Zm-3.823-14.438-1.642 4.252L-.104-1.95c-.169.387-.293.717-.391.965a18.63 18.63 0 0 0-.129.325c-.036.123-.078.242-.119.371l-4.618-1.775c-1.001-.387-1.579-.738-1.74-1.042-.232-.434-.232-.944 0-1.538l.244-.619-.44-.165-2.621 6.806.434.17.232-.598c.263-.671.665-1.069 1.213-1.187.304-.077.908.062 1.821.413L4.046 4.128c1.001.382 1.578.733 1.733 1.048.222.433.222.954-.005 1.553l-.232.599.438.165 2.23-5.79C8.859.016 9.211-1.274 9.272-2.172A4.571 4.571 0 0 0 8.7-4.737c-.444-.81-1.131-1.393-2.033-1.744a4.044 4.044 0 0 0-2.921-.02c-.96.355-1.848 1.15-2.652 2.368l-3.308-5.036c-.759-1.151-1.202-2.064-1.342-2.735-.129-.671-.077-1.455.156-2.363z" style="fill:#fff;fill-opacity:1;fill-rule:nonzero;stroke:none" transform="matrix(.80754 0 0 -.80753 183.865 68.325)"/><path d="m0 0-5.759-1.238-.098.459c1.073.382 1.894.836 2.471 1.346.578.527.971 1.182 1.208 1.967.238.789.274 1.552.109 2.306-.181.851-.594 1.502-1.223 1.945-.646.444-1.296.599-1.951.454-.516-.108-.94-.382-1.285-.82-.5-.645-1.068-2.023-1.677-4.144-.5-1.738-.913-2.93-1.238-3.601a4.853 4.853 0 0 0-1.295-1.652 4.146 4.146 0 0 0-1.801-.861c-1.27-.274-2.456-.021-3.576.763-1.125.785-1.842 1.946-2.178 3.484-.108.479-.16.944-.175 1.383-.021.263.015.82.108 1.676.083.852.108 1.384.062 1.6-.047.202-.144.351-.294.444-.144.088-.413.124-.81.103l-.098.454 5.707 1.213.088-.449c-1.136-.47-1.977-.944-2.498-1.435-.506-.485-.882-1.145-1.114-1.966-.238-.825-.258-1.677-.078-2.564.227-1.017.666-1.77 1.336-2.25.661-.48 1.363-.635 2.106-.48.407.093.795.294 1.166.609.372.315.686.748.944 1.295.17.372.506 1.357 1.001 2.947.49 1.599.908 2.745 1.254 3.447.351.701.779 1.274 1.28 1.712a4.17 4.17 0 0 0 1.795.868c1.188.253 2.323.02 3.375-.713 1.058-.738 1.744-1.816 2.043-3.23.192-.877.171-1.868-.046-2.946-.108-.501-.139-.846-.098-1.032a.72.72 0 0 1 .3-.48C-.785.5-.501.449-.099.449z" style="fill:#fff;fill-opacity:1;fill-rule:nonzero;stroke:none" transform="matrix(.80754 0 0 -.80753 196.366 86.222)"/><path d="m0 0-.465-.046-.723 7.26.47.036.057-.599c.067-.696.32-1.181.764-1.46.284-.17.939-.206 1.951-.108l10.944 1.084c.861.082 1.424.185 1.682.33.201.103.366.289.49.567.16.382.227.774.191 1.177l-.062.598.46.047.717-7.266-.459-.041-.063.614c-.061.691-.325 1.171-.758 1.45-.289.181-.934.222-1.961.119L2.285 2.683c-.851-.082-1.408-.191-1.681-.33-.202-.108-.357-.294-.486-.583A2.303 2.303 0 0 1-.063.609Z" style="fill:#fff;fill-opacity:1;fill-rule:nonzero;stroke:none" transform="matrix(.80754 0 0 -.80753 183.92 97.514)"/><path d="m0 0-3.999-.113.011.474c.707.083 1.217.202 1.517.346.491.248.857.588 1.094 1.022.242.417.361.99.382 1.692l.041 2.394-13.003.264c-1.048.025-1.698-.078-1.972-.3-.35-.309-.542-.794-.557-1.46l-.005-.588-.464.005.144 7.219.464-.005-.01-.604c-.015-.717.186-1.233.62-1.548.262-.191.872-.289 1.826-.304l13.014-.259.036 2.039c.02.794-.032 1.367-.145 1.698-.14.443-.438.82-.892 1.134-.439.326-1.058.522-1.817.594l.005.475 3.989-.284z" style="fill:#fff;fill-opacity:1;fill-rule:nonzero;stroke:none" transform="matrix(.80754 0 0 -.80753 197.274 110.349)"/><path d="m0 0-1.125-5.836-.46.093.063.32c.041.212.004.547-.104.99a3.685 3.685 0 0 1-.603 1.28c-.285.408-.78.934-1.487 1.584l-5.567 5.248-4.191.816c-1.031.191-1.692.206-1.986.02-.407-.247-.676-.702-.805-1.383l-.103-.542-.454.093 1.362 7.101.459-.088-.113-.593c-.14-.703-.016-1.254.345-1.621.233-.237.811-.444 1.749-.624l3.963-.764 7.885 3.236c.929.386 1.512.655 1.76.804.242.155.562.506.97 1.058.119.15.196.382.258.697l.459-.093L.897 4.649l-.459.083.073.376c.077.388.052.754-.068 1.115-.118.366-.356.578-.722.645-.299.051-.872-.088-1.744-.444l-6.063-2.451 4.525-4.272c.676-.64 1.203-1.001 1.584-1.068.227-.047.444-.031.645.056.207.088.382.222.532.423.145.212.258.532.346.976z" style="fill:#fff;fill-opacity:1;fill-rule:nonzero;stroke:none" transform="matrix(.80754 0 0 -.80753 195.237 123.112)"/><path d="m0 0-2.704-2.776c.501.047.913.031 1.221-.047.309-.082.57-.221.781-.433a1.4 1.4 0 0 0 .444-.929 1.76 1.76 0 0 0-.207-.98c-.162-.294-.513-.712-1.042-1.259l-1.832-1.868c-.355-.367-.552-.63-.575-.779-.028-.155.041-.325.206-.532l-.183-.191-2.182 2.136.177.191c.181-.129.359-.175.547-.139.14.036.382.227.72.573l2.085 2.141c.392.392.622.661.691.785.07.128.098.247.093.376a.518.518 0 0 1-.144.299.803.803 0 0 1-.495.212c-.214.026-.496-.021-.865-.124l-2.51-2.57c-.333-.34-.524-.577-.557-.707-.052-.18-.008-.366.149-.572l-.178-.186-2.188 2.147.178.18c.201-.155.39-.217.581-.18.121.021.369.216.72.578L-2.307.217c.357.371.547.624.571.768.028.15-.041.326-.209.542l.19.186z" style="fill:#231f20;fill-opacity:1;fill-rule:nonzero;stroke:none" transform="matrix(.80754 0 0 -.80753 57.815 146.097)"/><path d="m0 0-1.584-1.868 1.088-.928-.461-.542-1.095.928-2.675-3.153c-.255-.293-.397-.495-.449-.603-.047-.104-.064-.207-.047-.315.016-.103.052-.181.104-.222.212-.186.57-.175 1.065.021l.047-.243c-.859-.479-1.59-.454-2.182.052-.295.248-.468.547-.514.898-.047.35-.005.661.126.929.075.154.341.5.807 1.047l2.343 2.756-.593.511.163.19a9.124 9.124 0 0 1 1.917.129A8.085 8.085 0 0 1-.163.14z" style="fill:#231f20;fill-opacity:1;fill-rule:nonzero;stroke:none" transform="matrix(.80754 0 0 -.80753 62.098 150.622)"/><path d="m0 0-1.486-1.951 1.14-.872-.433-.557-1.141.862-2.503-3.287c-.231-.31-.368-.516-.415-.625a.562.562 0 0 1-.028-.325c.023-.103.061-.18.121-.216.22-.171.575-.14 1.057.082l.06-.248c-.836-.51-1.56-.531-2.183-.061-.304.232-.495.521-.559.872-.068.346-.044.66.074.939.065.155.313.516.748 1.083l2.196 2.88-.627.48.15.195a9.645 9.645 0 0 1 1.917.228A8.042 8.042 0 0 1-.168.134z" style="fill:#231f20;fill-opacity:1;fill-rule:nonzero;stroke:none" transform="matrix(.80754 0 0 -.80753 65.247 153.122)"/><path d="M0 0c-.016-.691.157-1.151.514-1.378.19-.134.425-.123.701.021.405.216.916.794 1.538 1.739.635.96.968 1.692.996 2.182.018.32-.091.563-.323.712-.361.238-.851.145-1.468-.288Zm-.402-.609-1.366-2.079c-.188-.294-.298-.501-.322-.635a.524.524 0 0 1 .041-.351c.052-.103.215-.238.46-.408l-.142-.216L-4.61-2.41l.149.217c.225-.14.439-.176.632-.114.129.047.323.258.578.64L.63 4.252c.252.397.379.671.366.841-.011.165-.127.325-.356.5l.144.222 2.118-1.388-.482-.738c.361.176.679.264.949.274.385.016.731-.083 1.043-.284.368-.242.621-.598.753-1.053.135-.459.127-.964-.01-1.532a5.539 5.539 0 0 0-.733-1.636c-.374-.562-.794-1.027-1.267-1.383-.471-.366-.944-.567-1.416-.614a1.934 1.934 0 0 0-1.277.32c-.276.176-.49.418-.646.707-.108.222-.182.521-.218.903" style="fill:#231f20;fill-opacity:1;fill-rule:nonzero;stroke:none" transform="matrix(.80754 0 0 -.80753 64.942 160.576)"/><path d="M0 0a.984.984 0 0 0 .492-.671 1.215 1.215 0 0 0-.137-.892 1.219 1.219 0 0 0-.678-.579.99.99 0 0 0-.836.062.988.988 0 0 0-.49.666c-.067.315-.029.609.134.893.161.289.384.479.684.583C-.537.165-.261.145 0 0m-2.281-4.087c.258-.16.426-.382.495-.686.07-.305.023-.604-.139-.893a1.173 1.173 0 0 0-.683-.583.996.996 0 0 0-.831.072.981.981 0 0 0-.496.666c-.067.304-.028.604.134.893.16.289.39.485.684.588.3.098.57.077.836-.057" style="fill:#231f20;fill-opacity:1;fill-rule:nonzero;stroke:none" transform="matrix(.80754 0 0 -.80753 72.416 159.952)"/><path d="m0 0-7.013-7.905-.743.361L-.738.351z" style="fill:#231f20;fill-opacity:1;fill-rule:nonzero;stroke:none" transform="matrix(.80754 0 0 -.80753 78.222 160.143)"/><path d="m0 0-6.574-8.267-.761.326L-.748.32z" style="fill:#231f20;fill-opacity:1;fill-rule:nonzero;stroke:none" transform="matrix(.80754 0 0 -.80753 81.322 161.456)"/><path d="m0 0-.099 5.181L-3.122.976l-.315.108-.075 5.113c-.008.775-.059 1.296-.149 1.564a.954.954 0 0 1-.369.465l.08.247 2.902-.908-.08-.258c-.196.062-.34.072-.434.031a.294.294 0 0 1-.182-.181c-.024-.077-.028-.33-.024-.763l.057-2.756 1.6 2.239-.01.186c-.019.377-.052.63-.116.754-.063.119-.184.226-.367.325l.08.248 2.944-.919-.077-.253c-.238.057-.393.067-.475.026a.32.32 0 0 1-.165-.212c-.031-.098-.042-.34-.031-.717l.025-2.755 1.461 2.069c.206.294.335.495.366.619.062.175.067.32.016.428-.052.103-.191.207-.413.294l.077.253 1.708-.536-.082-.253a.784.784 0 0 1-.517-.083c-.149-.082-.402-.382-.752-.898L.351-.119z" style="fill:#231f20;fill-opacity:1;fill-rule:nonzero;stroke:none" transform="matrix(.80754 0 0 -.80753 83.866 170.956)"/><path d="m0 0-.764 5.129-2.45-4.556-.331.057-.737 5.062c-.114.768-.228 1.28-.357 1.527a.889.889 0 0 1-.423.418l.041.258 3.003-.531-.045-.259c-.202.037-.346.032-.434-.02a.295.295 0 0 1-.16-.211c-.01-.078.015-.326.072-.754l.424-2.729 1.295 2.424-.036.186c-.068.372-.14.614-.212.733a.865.865 0 0 1-.407.279l.041.258 3.049-.532-.051-.263c-.238.026-.393.021-.47-.026-.072-.046-.118-.129-.134-.237-.02-.103 0-.346.062-.717l.386-2.725 1.172 2.24c.176.314.274.541.289.66.036.186.016.33-.047.429-.066.097-.211.17-.438.237l.041.258 1.765-.304-.051-.264c-.197 0-.367-.046-.496-.154-.139-.104-.351-.429-.64-.976L.372-.062Z" style="fill:#231f20;fill-opacity:1;fill-rule:nonzero;stroke:none" transform="matrix(.80754 0 0 -.80753 92.212 172.827)"/><path d="m0 0-1.449 4.979-1.812-4.85-.341.016-1.403 4.922c-.206.748-.397 1.239-.552 1.466a.894.894 0 0 1-.48.35l.011.269 3.044-.129-.016-.263c-.201.01-.346-.021-.423-.083a.298.298 0 0 1-.129-.222c0-.082.057-.33.181-.738l.774-2.657.954 2.585-.056.17c-.114.367-.217.599-.31.702-.093.098-.242.175-.444.222l.015.263L.65 6.878l-.015-.263C.397 6.61.243 6.579.176 6.522.104 6.465.078 6.378.078 6.27c-.011-.103.046-.336.15-.702L.971 2.92l.872 2.374c.123.335.19.573.195.692.011.191-.025.325-.102.423-.078.082-.233.144-.47.17l.01.263 1.786-.072-.011-.263a.747.747 0 0 1-.48-.217c-.124-.119-.289-.475-.495-1.053L.372-.021Z" style="fill:#231f20;fill-opacity:1;fill-rule:nonzero;stroke:none" transform="matrix(.80754 0 0 -.80753 100.767 173.565)"/><path d="M0 0a.988.988 0 0 0 .778-.32c.217-.222.336-.506.352-.831a1.236 1.236 0 0 0-.274-.856c-.211-.238-.46-.367-.758-.377a.968.968 0 0 0-.764.31c-.228.221-.336.5-.356.83-.01.331.078.615.279.862A.978.978 0 0 0 0 0" style="fill:#231f20;fill-opacity:1;fill-rule:nonzero;stroke:none" transform="matrix(.80754 0 0 -.80753 104.822 171.56)"/><path d="m0 0 .46-3.854c.283.428.552.738.805.928.253.192.531.305.825.341a1.41 1.41 0 0 0 1.007-.243c.294-.201.5-.464.634-.768.119-.315.232-.852.32-1.61l.315-2.591c.057-.505.134-.825.242-.939.098-.113.279-.17.547-.175l.026-.258-3.034-.361-.026.258c.206.062.357.17.439.34.072.134.072.439.015.924l-.356 2.962c-.072.546-.129.892-.18 1.026a.64.64 0 0 1-.243.305.507.507 0 0 1-.319.083.881.881 0 0 1-.481-.253c-.144-.15-.289-.403-.438-.754l.428-3.565c.051-.475.118-.759.202-.878.097-.149.273-.227.536-.231l.026-.264-3.034-.361-.027.253c.248.057.414.175.501.34.062.109.062.418 0 .929l-.81 6.76c-.057.5-.145.805-.233.918-.097.114-.283.176-.551.186l-.032.258z" style="fill:#231f20;fill-opacity:1;fill-rule:nonzero;stroke:none" transform="matrix(.80754 0 0 -.80753 108.46 165.21)"/><path d="m0 0 .521-2.229-.206-.042c-.387.62-.749 1.022-1.063 1.208-.33.191-.624.263-.903.211a.618.618 0 0 1-.408-.283c-.092-.15-.129-.31-.092-.48a.556.556 0 0 1 .196-.336c.175-.175.619-.428 1.326-.778C.077-3.075.567-3.39.82-3.679a2.08 2.08 0 0 0 .506-1.037 2.463 2.463 0 0 0-.036-1.13 1.937 1.937 0 0 0-.536-.945 1.874 1.874 0 0 0-.94-.469c-.289-.052-.68-.031-1.192.077-.134.026-.231.037-.278.026-.134-.026-.227-.17-.274-.423l-.206-.036-.568 2.347.217.042c.309-.583.666-.996 1.052-1.244.398-.242.739-.341 1.033-.283a.64.64 0 0 1 .454.304c.103.16.134.341.097.542a.938.938 0 0 1-.303.547c-.16.139-.491.335-.992.583-.743.366-1.233.665-1.47.898-.356.33-.583.722-.676 1.192-.088.505-.025.996.212 1.465.231.475.649.769 1.248.882.32.057.645.036.976-.082.128-.047.232-.067.299-.052.078.021.134.041.175.088.041.046.093.16.16.345z" style="fill:#231f20;fill-opacity:1;fill-rule:nonzero;stroke:none" transform="matrix(.80754 0 0 -.80753 116.118 166.256)"/><path d="m0 0 .237-.113c-.118-.645-.345-1.161-.68-1.549a2.34 2.34 0 0 0-1.193-.779c-.773-.206-1.48-.051-2.121.475-.644.521-1.088 1.244-1.336 2.152-.242.887-.242 1.713.005 2.497.289.944.883 1.538 1.78 1.786.604.159 1.125.123 1.569-.114.449-.242.728-.573.842-.985.077-.264.056-.491-.047-.692-.098-.196-.263-.32-.495-.387a.819.819 0 0 0-.676.104c-.212.139-.398.433-.558.882-.108.288-.222.474-.346.557a.453.453 0 0 1-.386.088c-.201-.057-.336-.222-.418-.496-.119-.407-.078-.985.124-1.713A5.876 5.876 0 0 1-2.962.031c.32-.506.671-.851 1.053-1.048.284-.134.578-.159.888-.077.206.057.376.165.536.32.155.16.315.413.485.774" style="fill:#231f20;fill-opacity:1;fill-rule:nonzero;stroke:none" transform="matrix(.80754 0 0 -.80753 122.531 168.89)"/><path d="m0 0 1.765-4.943c.17-.48.314-.764.443-.852.119-.093.31-.108.567-.052l.094-.247-2.322-.821-.3.841c-.144-.453-.319-.81-.536-1.073a1.843 1.843 0 0 0-.82-.573 1.334 1.334 0 0 0-.976.026 1.676 1.676 0 0 0-.774.583c-.186.263-.412.759-.676 1.486l-.888 2.513c-.17.475-.314.754-.443.846-.113.083-.305.104-.568.052l-.092.253 2.316.82 1.543-4.313c.16-.449.278-.733.366-.857a.6.6 0 0 1 .284-.227.475.475 0 0 1 .326.005.773.773 0 0 1 .345.263c.124.176.238.48.335.919l-1.197 3.38c-.175.474-.325.758-.443.846-.124.093-.31.108-.578.052l-.083.253z" style="fill:#231f20;fill-opacity:1;fill-rule:nonzero;stroke:none" transform="matrix(.80754 0 0 -.80753 127.061 163.102)"/><path d="M0 0a.97.97 0 0 0 .836-.021 1.24 1.24 0 0 0 .624-.65c.129-.299.149-.599.047-.898a.984.984 0 0 0-.558-.619.958.958 0 0 0-.831.01 1.2 1.2 0 0 0-.619.651 1.226 1.226 0 0 0-.057.902c.104.294.285.506.558.625" style="fill:#231f20;fill-opacity:1;fill-rule:nonzero;stroke:none" transform="matrix(.80754 0 0 -.80753 130.982 165.377)"/><path d="m0 0-1.032 1.992C-1.336 1.45-1.517.95-1.559.49a1.366 1.366 0 0 1 .13-.804.901.901 0 0 1 .454-.424.539.539 0 0 1 .49.036c.191.098.351.336.485.702m.243-.464C-.088-1.45-.5-2.074-1.026-2.337a1.083 1.083 0 0 0-.935-.057c-.319.113-.562.346-.732.681-.238.454-.274.955-.104 1.497.16.547.677 1.419 1.554 2.636l-.31.599c-.232.454-.408.717-.51.815a.803.803 0 0 1-.883.098c-.253-.134-.423-.299-.522-.506-.061-.129-.061-.237-.01-.34.046-.093.155-.17.331-.248.237-.113.402-.248.495-.418a.865.865 0 0 0 .062-.64c-.062-.221-.207-.386-.438-.5a.923.923 0 0 0-.728-.077.873.873 0 0 0-.532.448c-.165.305-.201.651-.129 1.037.077.398.269.764.583 1.12.315.351.676.63 1.1.852.51.258.969.345 1.392.258.418-.088.743-.253.981-.485.15-.155.382-.547.712-1.192L1.543.929c.145-.273.242-.439.294-.495a.337.337 0 0 1 .165-.119.21.21 0 0 1 .155.02c.104.052.165.181.186.398l.253-.072C2.57.248 2.482-.083 2.354-.33a1.344 1.344 0 0 0-.589-.573c-.31-.155-.583-.196-.836-.129-.258.077-.485.263-.686.568" style="fill:#231f20;fill-opacity:1;fill-rule:nonzero;stroke:none" transform="matrix(.80754 0 0 -.80753 135.845 163.677)"/><path d="m0 0 .258-.042C.33-.691.263-1.254.057-1.729a2.377 2.377 0 0 0-.919-1.084c-.686-.422-1.404-.484-2.167-.159-.769.309-1.399.867-1.905 1.677-.479.769-.716 1.568-.716 2.394.004.991.402 1.729 1.186 2.219.537.33 1.048.444 1.543.35.495-.108.857-.34 1.089-.706a.943.943 0 0 0 .155-.671.756.756 0 0 0-.361-.511.819.819 0 0 0-.687-.103c-.237.072-.501.304-.789.686-.18.242-.345.387-.496.433a.42.42 0 0 1-.386-.03c-.176-.109-.258-.305-.258-.594.005-.428.211-.965.614-1.61A6.05 6.05 0 0 1-2.854-.826c.459-.397.898-.624 1.316-.701.309-.052.599.01.872.185.181.109.325.263.424.454.102.197.179.491.242.888" style="fill:#231f20;fill-opacity:1;fill-rule:nonzero;stroke:none" transform="matrix(.80754 0 0 -.80753 142.137 159.793)"/><path d="M0 0c.243.17.517.222.826.155.299-.068.552-.233.743-.501.197-.273.274-.562.238-.872a1.026 1.026 0 0 0-.413-.722.998.998 0 0 0-.821-.165 1.247 1.247 0 0 0-.748.5 1.258 1.258 0 0 0-.237.872c.036.31.175.552.412.733" style="fill:#231f20;fill-opacity:1;fill-rule:nonzero;stroke:none" transform="matrix(.80754 0 0 -.80753 143.95 158.03)"/><path d="m0 0 4.098-4.902.097 2.069c.026.423.016.707-.015.856a.9.9 0 0 1-.181.382.41.41 0 0 1-.31.155c-.133.005-.309-.067-.546-.211l-.176.201L5.042.284l.175-.201a1.437 1.437 0 0 1-.392-.594c-.072-.212-.124-.738-.171-1.574l-.036-.97 2.565-.862c1.043-.351 1.641-.536 1.796-.557a.827.827 0 0 1 .598.15l.176-.201-2.395-1.997-.17.195c.103.094.166.181.175.264.011.082-.005.149-.051.201-.073.083-.268.18-.593.294l-2.167.722-.027-.572.775-.924c.33-.387.572-.609.717-.65.144-.041.33.01.562.16l.16-.201L4.35-9.036l-.165.197c.17.185.253.371.243.562-.021.124-.187.382-.517.779l-4.36 5.222c-.33.392-.568.609-.701.645-.145.042-.336-.005-.568-.149l-.171.201z" style="fill:#231f20;fill-opacity:1;fill-rule:nonzero;stroke:none" transform="matrix(.80754 0 0 -.80753 143.55 150.7)"/><path d="m0 0 1.068-1.083C.867-.314.79.263.847.64c.056.372.174.655.376.852.175.17.367.247.584.232.221-.016.438-.129.644-.346.227-.227.351-.454.382-.676a.654.654 0 0 0-.176-.547.848.848 0 0 0-.593-.242 3.66 3.66 0 0 1-.402-.016.318.318 0 0 1-.14-.077.527.527 0 0 1-.133-.357c-.016-.242.056-.5.206-.778a5.12 5.12 0 0 1 .933-1.228l1.089-1.095.279-.283c.196-.191.331-.305.403-.341a.613.613 0 0 1 .366-.041c.113.031.258.129.439.289l.185-.191-2.311-2.291-.181.185c.165.202.237.377.206.542-.025.165-.247.449-.66.862L-.273-2.275c-.263.268-.45.433-.547.48a.603.603 0 0 1-.346.077c-.098-.011-.232-.077-.387-.212l-.191.191z" style="fill:#231f20;fill-opacity:1;fill-rule:nonzero;stroke:none" transform="matrix(.80754 0 0 -.80753 149.817 148.31)"/><path d="M285.869 575.214a127.89 127.89 0 0 1 5.011-1.667c-.398 1.45-.806 2.91-1.249 4.392a95.976 95.976 0 0 0-5.109 1.997c.485-1.595.94-3.174 1.347-4.722" style="fill:url(#a);stroke:none" transform="matrix(.80754 0 0 -.80753 -143.547 579.423)"/><path d="M280.864 602.015c6.905.393 15.744-.511 25.124-2.827 7.157-1.76 13.638-4.108 18.953-6.698a181.063 181.063 0 0 0 1.832 3.715c-5.887 2.518-12.632 4.773-19.897 6.564-10.201 2.518-19.902 3.736-28.04 3.766a214.62 214.62 0 0 0 2.028-4.52" style="fill:url(#b);stroke:none" transform="matrix(.80754 0 0 -.80753 -143.547 579.423)"/><path d="M328.873 590.389c7.105-4.112 11.141-8.611 10.237-12.29-.994-4.051-7.761-6.193-17.332-6.177-.402-1.425-.77-2.818-1.094-4.185 15.801-1.135 27.497 1.615 29.01 7.75 1.399 5.661-6.228 12.802-18.824 18.86a106.61 106.61 0 0 1-1.997-3.958" style="fill:url(#c);stroke:none" transform="matrix(.80754 0 0 -.80753 -143.547 579.423)"/><path d="M290.88 573.547a143.957 143.957 0 0 1 8.214-2.301c5.816-1.43 11.472-2.446 16.76-3.054.362 1.284.733 2.584 1.13 3.906-5.201.351-10.991 1.248-17.002 2.734a106.434 106.434 0 0 0-10.351 3.107c.443-1.482.851-2.942 1.249-4.392" style="fill:url(#d);stroke:none" transform="matrix(.80754 0 0 -.80753 -143.547 579.423)"/><path d="M256.273 598.538c-1.757-7.132 10.814-16.627 29.596-23.324a129.391 129.391 0 0 1-1.347 4.722c-11.563 4.953-18.847 11.171-17.659 15.99.695 2.812 4.179 4.702 9.458 5.594a133.454 133.454 0 0 1-2.38 4.871c-9.827-.624-16.546-3.307-17.668-7.853" style="fill:url(#e);stroke:none" transform="matrix(.80754 0 0 -.80753 -143.547 579.423)"/><path d="M246.255 643.549c-9.668-3.53-7.755-33.107 4.283-66.069 12.033-32.968 29.624-56.828 39.289-53.299 7.993 2.926 8.06 23.644 1.053 49.366a127.89 127.89 0 0 0-5.011 1.667c5.249-19.583 5.129-35.269-.98-37.504-7.469-2.729-21.068 15.729-30.373 41.22-9.303 25.49-10.794 48.359-3.32 51.089 5.602 2.044 14.647-7.818 22.745-23.628 1.556.098 3.191.144 4.895.144-10.304 22.228-22.473 37.36-30.571 37.36a5.83 5.83 0 0 1-2.01-.346" style="fill:url(#f);stroke:none" transform="matrix(.80754 0 0 -.80753 -143.547 579.423)"/><path d="M276.321 601.52a162.326 162.326 0 0 0 5.25-12.715 165.856 165.856 0 0 0 2.951-8.869 95.976 95.976 0 0 1 5.109-1.997 214.005 214.005 0 0 1-4.083 12.316 216.254 216.254 0 0 1-4.684 11.76 40.945 40.945 0 0 1-4.543-.495" style="fill:url(#g);stroke:none" transform="matrix(.80754 0 0 -.80753 -143.547 579.423)"/><path d="M273.941 606.391a133.454 133.454 0 0 0 2.38-4.871c1.393.237 2.912.403 4.543.495a214.62 214.62 0 0 1-2.028 4.52c-1.704 0-3.339-.046-4.895-.144" style="fill:url(#h);stroke:none" transform="matrix(.80754 0 0 -.80753 -143.547 579.423)"/><path d="M326.773 596.205a98.782 98.782 0 0 0 4.097-1.858c8.938 16.812 20.072 27.447 26.647 24.604 7.621-3.302 6.233-23.473-3.107-45.048-9.334-21.574-23.09-36.393-30.718-33.091-5.402 2.348-6.279 13.152-3.008 26.925-1.564.113-3.178.264-4.83.455-5.381-19.697-4.629-35.575 2.879-38.83 9.878-4.272 27.659 14.881 39.743 42.787 12.075 27.9 13.866 53.979 4 58.252-.927.4-1.924.594-2.978.594-8.988.002-22.213-14.099-32.725-34.79" style="fill:url(#i);stroke:none" transform="matrix(.80754 0 0 -.80753 -143.547 579.423)"/><path d="M322.727 587.619a152.183 152.183 0 0 1-5.743-15.521 67.173 67.173 0 0 1 4.794-.176c1.274 4.463 2.956 9.164 5.016 13.932a130.284 130.284 0 0 0 2.079 4.535 60.61 60.61 0 0 1-3.932 2.101 184.202 184.202 0 0 1-2.214-4.871" style="fill:url(#j);stroke:none" transform="matrix(.80754 0 0 -.80753 -143.547 579.423)"/><path d="M324.941 592.49a60.61 60.61 0 0 0 3.932-2.101 106.61 106.61 0 0 0 1.997 3.958 98.782 98.782 0 0 1-4.097 1.858 181.063 181.063 0 0 1-1.832-3.715" style="fill:url(#k);stroke:none" transform="matrix(.80754 0 0 -.80753 -143.547 579.423)"/><path d="M315.854 568.192c1.652-.191 3.266-.342 4.83-.455.324 1.367.692 2.76 1.094 4.185-1.533 0-3.132.057-4.794.176a238.972 238.972 0 0 1-1.13-3.906" style="fill:url(#l);stroke:none" transform="matrix(.80754 0 0 -.80753 -143.547 579.423)"/><path d="M295.209 628.528c-1.786-7.359 2.734-14.752 10.093-16.538 7.347-1.776 14.742 2.74 16.528 10.098 1.779 7.348-2.735 14.742-10.089 16.522a13.73 13.73 0 0 1-3.244.39c-6.175 0-11.771-4.206-13.288-10.472" style="fill:url(#m);stroke:none" transform="matrix(.80754 0 0 -.80753 -143.547 579.423)"/><path d="M0 0c.145.552.434 1.042.864 1.476.926.919 1.912 1.187 3.11.805a3.593 3.593 0 0 0 1.491-.862c.897-.898 1.174-1.899.864-3.106a3.026 3.026 0 0 0-.828-1.481c-.9-.898-1.902-1.171-3.15-.867a3.09 3.09 0 0 0-1.468.831C-.033-2.291-.314-1.264 0 0m13.674-8.989.168-.17 1.463 1.481.168.165-2.005 1.987 2.762 2.791-1.72 1.703-.167.176L3.529-11.775-1.192-7.1.225-5.671c1.387-.959 2.966-1.238 4.67-.81a5.419 5.419 0 0 1 2.538 1.445C8.77-3.694 9.283-2.09 8.947-.31a6.974 6.974 0 0 1-.056.264l2.371-2.348 1.458 1.46.173.181-3.899 3.865.985.991.173.169-1.715 1.704-.181.175-1.155-1.166-3.938 3.901L1.705 7.41l-.173-.165L3.968 4.83C2.01 5.227.307 4.737-1.048 3.37c-1.519-1.522-1.95-3.427-1.29-5.573.168-.552.41-1.079.71-1.548l-1.458-1.466-3.932 3.891-1.462-1.471-.166-.175L1.896-13.421l-4.047-4.087 1.72-1.703.173-.175L11.837-7.172z" style="fill:#fff;fill-opacity:1;fill-rule:nonzero;stroke:none" transform="matrix(.80754 0 0 -.80753 36.028 159.018)"/><path d="m0 0-2.051 1.295-.202.134-3.459-5.454c-.518-.954-.235-1.894.696-2.482a.518.518 0 0 0 .065-.046l10.72-6.791.136.206.952 1.502.127.206L-3.174-5Z" style="fill:#fff;fill-opacity:1;fill-rule:nonzero;stroke:none" transform="matrix(.80754 0 0 -.80753 50.256 177.215)"/><path d="m0 0 .131-.083 5.62 3.845a7.877 7.877 0 0 0 1.312-2.379c.734-2.142.682-3.782-.084-4.98l-.243-.392-.127-.201 2.09-1.326.201-.129.374.593c.571 1.512.883 2.627.958 3.411.103 1.171-.111 2.461-.629 3.87a14.051 14.051 0 0 1-1.605 3.075l3.269 2.271-2.459 1.558-11.122-7.668Z" style="fill:#fff;fill-opacity:1;fill-rule:nonzero;stroke:none" transform="matrix(.80754 0 0 -.80753 48.814 174.015)"/><path d="m0 0-.201.129-8.93-14.087 2.044-1.29.201-.134.134.206L2.044-1.295z" style="fill:#fff;fill-opacity:1;fill-rule:nonzero;stroke:none" transform="matrix(.80754 0 0 -.80753 63.031 171.014)"/><path d="m0 0-.08-.217 2.226-.872.244-.082.283.913c.408 1.656.622 2.889.633 3.746-.011 1.321-.324 2.72-.932 4.206-.495 1.207-1.228 2.44-2.201 3.704l2.828 3.519-2.407.935-.168.067-10.104-12.41 2.423-.945.162-.062 5.561 6.786C.663 6.032 1.216 3.127.191.485Z" style="fill:#fff;fill-opacity:1;fill-rule:nonzero;stroke:none" transform="matrix(.80754 0 0 -.80753 70.317 188.411)"/><path d="m0 0-2.258.877-.229.093-8.484-21.843 2.266-.882.225-.082.084.227 6.133 15.795 2.412-.939.23-.083.748 1.93.086.221-2.637 1.027z" style="fill:#fff;fill-opacity:1;fill-rule:nonzero;stroke:none" transform="matrix(.80754 0 0 -.80753 80.147 179.128)"/><path d="m0 0-2.679-23.277 2.4-.279.243-.03.03.247L2.642-.304l-2.4.273z" style="fill:#fff;fill-opacity:1;fill-rule:nonzero;stroke:none" transform="matrix(.80754 0 0 -.80753 98.13 182.236)"/><path d="M289.987 490.506c1.506-.186 2.522-.99 3.152-2.518a4.73 4.73 0 0 0 .315-2.399c-.217-1.822-1.047-3.009-2.554-3.69a3.314 3.314 0 0 0-1.94-.34c-1.507.175-2.518.985-3.153 2.523a4.875 4.875 0 0 0-.304 2.415c.221 1.893 1.052 3.086 2.54 3.69.705.288 1.35.391 1.944.32m3.503.95c-1.042.737-2.12 1.165-3.245 1.3-1.11.128-2.26-.053-3.452-.533-1.069-.418-1.972-1.16-2.704-2.193a6.778 6.778 0 0 1-1.27-3.225c-.294-2.554.594-4.659 2.637-6.197a6.487 6.487 0 0 1 3.241-1.295c.01 0 .02 0 .036-.005 2.528-.289 4.623.634 6.15 2.714a6.785 6.785 0 0 1 1.244 3.261 6.761 6.761 0 0 1-.475 3.411c-.495 1.187-1.223 2.11-2.162 2.761" style="fill:#fff;fill-opacity:1;fill-rule:nonzero;stroke:none" transform="matrix(.80754 0 0 -.80753 -143.547 579.423)"/><path d="m0 0-6.326-.97-.852 5.552 6.322.975zm6.389 14.077-2.4-.367-.248-.036.733-4.706-3.08-.475-.707 4.572-2.395-.366-.237-.036.738-4.82-6.321-.98-.743 4.819-2.395-.366-.242-.041 2.044-13.236c.237-1.083 1.062-1.615 2.151-1.419l9.701 1.497-1.254 8.137 3.085.48L7.322-9.489l2.39.371.242.041-.031.243z" style="fill:#fff;fill-opacity:1;fill-rule:nonzero;stroke:none" transform="matrix(.80754 0 0 -.80753 114.652 191.978)"/><path d="m0 0-.228-.077 1.342-3.808-2.151-.759-1.342 3.813-2.286-.81-.227-.077 4.288-12.209-6.976-2.456-3.458 9.814 5.537 1.956-.671 1.899-.077.227-8.045-2.833 4.376-12.436c.454-1.068 1.414-1.439 2.528-1.016l7.56 2.657 2.709-7.709 2.286.81.232.073-5.67 16.114 2.156.759 5.666-16.115 2.286.805.227.083L2.285.81Z" style="fill:#fff;fill-opacity:1;fill-rule:nonzero;stroke:none" transform="matrix(.80754 0 0 -.80753 136.308 174.144)"/><path d="m0 0 .201.139-4.277 6.141 1.852 1.295.196.139-1.156 1.651-.134.197-2.054-1.43-1.961 2.797-1.981-1.373-.196-.149 7.524-10.79Z" style="fill:#fff;fill-opacity:1;fill-rule:nonzero;stroke:none" transform="matrix(.80754 0 0 -.80753 160.543 171.452)"/><path d="m0 0-11.719-8.179 1.182-1.692.144-.207L-.66-3.282l3.927-5.624 1.981 1.377.201.14L.196.134z" style="fill:#fff;fill-opacity:1;fill-rule:nonzero;stroke:none" transform="matrix(.80754 0 0 -.80753 161.072 172.165)"/><path d="M0 0c.806-1.161.939-2.296.393-3.499A3.017 3.017 0 0 0-.676-4.768c-1.053-.717-2.09-.795-3.282-.232a3.541 3.541 0 0 0-1.439 1.233c-.877 1.28-.934 2.41-.202 3.597.15.232.486.598.986 1.052C-2.58 1.919-1.171 1.636 0 0m.702-6.625c1.806 1.258 2.647 3.07 2.472 5.314a5.67 5.67 0 0 1-1.017 2.915C1.295 2.864.041 3.622-1.537 3.88L.196 5.088l.197.139-1.188 1.698-.139.196-4.298-2.998-.738 1.058-.144.201-1.982-1.378-.201-.139.888-1.269-4.31-2.998 1.182-1.698.14-.201L-8.488-.96c-.294-1.62 0-3.085.892-4.371 1.249-1.8 3.107-2.595 5.429-2.332A5.83 5.83 0 0 1 .697-6.631c0 .006.005.006.005.006" style="fill:#fff;fill-opacity:1;fill-rule:nonzero;stroke:none" transform="matrix(.80754 0 0 -.80753 152.592 171.144)"/><path d="m0 0-.175.16-1.027-1.135L-12.41 9.128l-9.856-10.929 1.502-1.351.175-.155 8.07 8.947 9.532-8.597-1.801-1.997-5.361 4.825-1.611-1.79-.165-.186 5.352-4.83-1.637-1.811-5.351 4.83-1.625-1.801-.165-.181 5.356-4.824-2.106-2.343 1.534-1.383.185-.16 11.92 13.22z" style="fill:#fff;fill-opacity:1;fill-rule:nonzero;stroke:none" transform="matrix(.80754 0 0 -.80753 178.952 157.189)"/></svg>