<svg xmlns="http://www.w3.org/2000/svg" xml:space="preserve" width="283" height="283" overflow="hidden"><defs><clipPath id="a"><path d="M498 218h283v283H498z"/></clipPath><clipPath id="b"><path d="M499 219h282v282H499z"/></clipPath><clipPath id="c"><path d="M499 219h282v282H499z"/></clipPath><clipPath id="d"><path d="M499 219h282v282H499z"/></clipPath></defs><g clip-path="url(#a)" transform="translate(-498 -218)"><g clip-path="url(#b)"><g clip-path="url(#c)"><g clip-path="url(#d)"><path fill="#FFF" d="M779.587 360c0 77.092-62.495 139.587-139.587 139.587-77.092 0-139.587-62.495-139.587-139.587 0-77.092 62.495-139.587 139.587-139.587 77.092 0 139.587 62.495 139.587 139.587Z"/><path fill="#003D7C" d="M640 462.937c-56.851 0-102.937-46.086-102.937-102.937S583.149 257.063 640 257.063 742.937 303.149 742.937 360c-.06 56.826-46.111 102.877-102.937 102.937Zm0-203.755c-55.68 0-100.818 45.138-100.818 100.818S584.32 460.818 640 460.818 740.818 415.68 740.818 360c-.06-55.655-45.163-100.758-100.818-100.818Z"/><path fill="#003D7C" d="M640 262.714c-53.735 0-97.296 43.561-97.296 97.296 0 53.735 43.561 97.296 97.296 97.296 53.735 0 97.296-43.561 97.296-97.296V360c0-53.73-43.556-97.286-97.286-97.286H640Zm-10.157 50.797A12.844 12.844 0 0 1 640 318.485a12.84 12.84 0 0 1 10.217-4.974h61.681l-.995 1.661c-1.572 2.626-4.407 5.84-7.471 5.84h-53.215a8.445 8.445 0 0 0-7.043 3.77 3.443 3.443 0 0 1-6.238 0 8.457 8.457 0 0 0-7.044-3.77h-53.294c-3.064 0-5.909-3.214-7.481-5.84l-.995-1.661ZM692.1 383.15v-50.439h7.86v50.529c0 3.382-1.612 5.083-4.825 5.083h-13.928c-3.174 0-4.756-1.701-4.756-5.083v-50.529h7.83v50.439Zm-34.64.139h-3.98l-4.626-23.299v28.333h-7.531v-55.612h7.402s6.685 34.591 6.725 35.944c0-.587 6.735-35.944 6.735-35.944h7.392v55.612h-7.521V359.95Zm-37.675-45.504v11.938l12.982 15.709a6.076 6.076 0 0 1 1.712 4.516V383.2c0 3.382-1.582 5.084-4.756 5.084h-13.052c-3.144 0-4.716-1.702-4.716-5.084v-10.824h7.83v10.874h6.864v-12.834l-12.993-15.778a6.109 6.109 0 0 1-1.701-4.447v-12.366c0-3.409 1.572-5.114 4.716-5.114h13.052c3.17 0 4.756 1.682 4.756 5.044v10.048h-7.83v-10.018Zm-31.836 25.239v25.299h-7.869v-55.612h7.83v25.11h9.292v-25.11h7.899v55.612h-7.899v-25.299Zm62.268 41.893a8.446 8.446 0 0 0-7.043 3.771 3.835 3.835 0 0 1-.488.716h-5.263a3.83 3.83 0 0 1-.487-.716 8.458 8.458 0 0 0-7.044-3.771h-61.8c3.98-2.109 4.308-7.501 4.308-7.501h57.443A12.814 12.814 0 0 1 640 402.391a12.81 12.81 0 0 1 10.167-4.975h57.443s.348 5.392 4.308 7.501Z"/><path fill="#003D7C" d="M640 501c-77.747 0-141-63.253-141-141s63.253-141 141-141 141 63.253 141 141-63.253 141-141 141Zm0-277.772c-75.41 0-136.772 61.362-136.772 136.772S564.59 496.772 640 496.772 776.772 435.42 776.772 360c0-75.42-61.352-136.772-136.772-136.772Z"/><path fill="#003D7C" d="M531.701 399.565a4.17 4.17 0 1 1-8.34-.001 4.17 4.17 0 0 1 8.34.001ZM756.636 399.565a4.169 4.169 0 1 1-8.338 0 4.169 4.169 0 0 1 8.338 0ZM560.949 439.24l-1.83-2.05-10.615 9.471-3.492-3.909 1.681-1.503a4.188 4.188 0 0 0 5.303-.338 4.508 4.508 0 0 0-5.969-6.715 4.199 4.199 0 0 0-.936 5.223l-1.681 1.502-2.855-3.183-1.393 1.233 7.959 8.954-1.612 1.442 1.831 2.05 6.964-6.238 1.303 1.462 1.472-1.303-1.303-1.502Zm-13.928.089c-.786-.885-.368-2.178.727-3.163 1.094-.985 2.437-1.254 3.223-.368.786.885.348 2.158-.746 3.143-1.095.985-2.418 1.264-3.194.388ZM656.554 471.572l-3.601.468-.249-1.95-2.825.368.249 1.94-3.602.468.219 1.751 10.028-1.284-.219-1.761Z"/><path fill="#003D7C" d="m556.95 436.882-2.189-2.457 1.463-1.304-1.831-2.049-1.462 1.303-2.388-2.666-1.313 1.174 6.407 7.183 1.313-1.184ZM582.627 456.182l-2.268-1.552-1.532 2.229-2.756-1.881-1.134 1.652 2.756 1.88-3.711 5.432a8.825 8.825 0 0 0-2.358-2.368c-2.756-1.88-5.899-2.149-7.292-.109-1.393 2.039 0 4.874 2.746 6.755 2.745 1.88 5.909 2.139 7.302.109.09-.132.17-.272.238-.418Zm-14.565 10.535c-1.78-1.213-2.228-2.825-1.561-3.8.666-.975 2.327-1.144 4.108.08 1.781 1.223 2.229 2.825 1.562 3.8-.666.975-2.328 1.184-4.109-.08Z"/><path fill="#003D7C" d="M571.286 455.297c.035.546.118 1.089.248 1.621l.796 3.801 2.109-.468-.656-3.034a4.674 4.674 0 0 1 .855-4.487l.886-1.293-2.179-1.483-.875 1.284a4.677 4.677 0 0 1-3.831 2.427l-3.074.498.329 2.128 3.83-.626a9 9 0 0 0 1.562-.368ZM600.077 479.611l-11.58-4.318-.657 1.741 11.59 4.328-.756 2.019 2.577.965 6.377-17.111-2.577-.955-4.974 13.331Z"/><path fill="#003D7C" d="M594.904 474.676c2.755.995 5.163-.358 6.357-3.581 1.193-3.223.308-5.86-2.458-6.885-2.765-1.024-5.183.369-6.387 3.582-1.203 3.213-.268 5.8 2.488 6.884Zm3.352-8.953c1.383.507 1.443 2.318.617 4.516-.826 2.199-1.99 3.512-3.422 2.985-1.433-.527-1.463-2.308-.637-4.517.826-2.208 2.059-3.591 3.442-3.074ZM633.762 471.781l-2.726-.308-1.601 14.137-6.626-.746.885-7.84-2.437-.278-.885 7.839-2.826-.318-.219 1.85 11.899 1.353-.239 2.139 2.736.308 1.044-9.301 1.95.218.219-1.949-1.95-.219.776-6.885Z"/><path fill="#003D7C" d="m625.077 483.142 2.537.289 1.313-11.699-8.864-1.005-.199 1.751 6.337.716-1.124 9.948ZM660.862 470.01l-2.726.349 1.552 12.087-10.525 1.363.228 1.751 10.526-1.353.567 4.457 2.726-.348-1.562-12.187 1.95-.259-.249-1.94-1.95.249-.537-4.169ZM687.653 468.966l-1.641.647-2.567-6.566-2.189.855 4.855 12.436-4.974 1.989-4.178-10.615 3.71-1.452-.567-1.463-6.008 2.348 4.785 12.247a1.233 1.233 0 0 0 1.78.776l6.069-2.368 1.214 3.104 2.198-.856-3.362-8.605 1.641-.647 3.363 8.616 2.338-.915-6.636-17.002-2.338.905ZM735.496 437.847l1.8-2.079-7.869-6.805-8.198 9.471 1.334 1.154 6.396-7.392 6.537 5.651Z"/><path fill="#003D7C" d="m736.829 441.339-5.134-4.437-1.671 1.93 5.133 4.437-1.154 1.343-5.133-4.447-1.671 1.93 5.133 4.447-1.94 2.238 1.413 1.214 10.535-12.167-1.413-1.214-4.098 4.726ZM652.824 482.227c2.586-.328 4.466-2.358 4.188-4.536-.279-2.179-2.607-3.661-5.203-3.333-2.597.328-4.457 2.368-4.179 4.536.279 2.169 2.587 3.671 5.194 3.333Zm-.786-6.078a2.167 2.167 0 0 1 2.586 1.648 2.167 2.167 0 0 1-1.648 2.586 2.167 2.167 0 0 1-2.62-1.837 2.07 2.07 0 0 1 1.679-2.397h.003ZM706.705 450.959l-2.965 2.089-1.134-1.601-2.328 1.651 1.134 1.592-2.965 2.099 1.025 1.442 8.247-5.839-1.014-1.433Z"/><path fill="#003D7C" d="m709.779 447.557-2.249 1.582 7.044 9.948-8.665 6.128 1.015 1.443 8.665-6.128 2.596 3.671 2.249-1.582-7.094-10.038 1.602-1.134-1.134-1.602-1.602 1.134-2.427-3.422Z"/><path fill="#003D7C" d="M708.406 462.111c2.129-1.512 2.835-4.178 1.572-5.969-1.264-1.79-3.98-1.989-6.158-.507-2.179 1.482-2.836 4.178-1.572 5.969 1.263 1.791 4.019 2.02 6.158.507Zm-3.542-4.974a2.17 2.17 0 1 1-.368 2.905 2.069 2.069 0 0 1 .368-2.935ZM521.115 357.344l-5.103.069v-2.666l12.754-.169v2.666l-5.691.04v3.054l5.77-.069v2.666l-12.744.169v-2.666l5.104-.07ZM516.022 349.325l.348-2.716 9.093-.517-8.635-3.124.398-3.114 9.122-.766-8.685-2.716.329-2.586 12.296 4.407-.378 2.925-9.501.806 8.954 3.362-.368 2.875ZM531.273 333.169l-11.381-6.725.925-3.393h13.202l-.736 2.706-2.915-.049-.995 3.511 2.537 1.433Zm-8.596-7.65 4.975 2.616.656-2.457ZM536.804 316.386c-1.223 3.074-3.253 2.925-5.253 1.99l.995-2.478c1.134.448 2.099.776 2.647-.587a1.273 1.273 0 0 0-.906-1.8c-2.129-.846-4.248 4.089-7.779 2.676-1.851-.736-2.985-2.209-1.771-5.233.995-2.408 2.527-3.174 4.974-1.99l-.995 2.408c-.885-.348-1.84-.567-2.238.438a1.232 1.232 0 0 0 .746 1.78c2.248.896 4.039-4.168 7.76-2.676 3.054 1.204 2.517 3.592 1.82 5.472ZM532.954 294.539l7.959 4.298c1.671.905 2.985 2.805 1.393 5.66-1.393 2.587-3.403 3.104-5.522 1.99l-7.958-4.298 1.273-2.348 7.79 4.219c1.382.746 2.248.447 2.706-.408.557-.995.129-1.861-1.115-2.527l-7.799-4.218ZM546.594 296.648l-10.377-7.412 2.09-2.934 9.162 2.337-7.193-5.133 1.453-1.99 10.396 7.382-1.99 2.855-9.61-2.586 7.521 5.442ZM552.553 274.99c-.826-.806-1.761-1.373-2.716-.278-1.124 1.223.527 2.735 2.348 4.407 2.934 2.706 3.72 2.895 4.745 1.781.321-.36.58-.77.766-1.214l-2.079-1.92-.995 1.074-1.442-1.333 2.785-2.984 4.716 4.347a25.544 25.544 0 0 1-2.129 2.985c-2.985 3.302-4.746 2.427-8.307-.846-2.368-2.179-4.666-4.507-1.721-7.72 1.77-1.92 3.979-2.129 5.809-.209ZM569.893 270.672l-7.471-10.336 3.482-2.537 6.715 5.89-3.363-8.268 3.363-2.447 7.471 10.327-2.099 1.522-5.76-7.959 3.77 9.411-2.089 1.473-7.65-6.606 5.76 7.959ZM584.129 261.003l-6.078-11.163 6.128-3.313.925 1.722-3.77 1.989 1.492 2.766 3.482-1.88.935 1.701-3.482 1.88 1.791 3.303 3.9-2.109.925 1.721ZM589.442 243.951l4.118-1.672c3.244-1.313 4.726.607 6.218 4.288.736 1.811 2.696 5.86-1.522 7.571l-3.979 1.632Zm6.516 9.003 1.194-.487c1.512-.607 1.343-1.861.149-4.825-.885-2.169-1.661-4.089-3.382-3.393l-1.274.518ZM606.643 251.124l-3.661-12.227 2.556-.766 3.661 12.207ZM616.561 242.707l.388 1.761-4.218.945-.388-1.761ZM625.615 247.184c-3.274.408-4.139-1.442-4.268-3.651l2.646-.328c.149 1.203.328 2.218 1.781 1.989a1.272 1.272 0 0 0 1.154-1.601c-.289-2.279-5.631-1.741-6.109-5.512-.248-1.989.498-3.671 3.721-4.079 2.577-.328 3.979.667 4.158 3.333l-2.576.328c-.119-.945-.398-1.89-1.463-1.761a1.245 1.245 0 0 0-1.203 1.523c.308 2.407 5.601 1.522 6.108 5.491.418 3.323-1.94 4.009-3.949 4.268ZM634.19 239.733c-.06-3.373-.109-6.576 4.288-6.656 2.716 0 3.84 1.443 3.77 4.178h-2.606c0-1.691-.338-2.318-1.134-2.308-1.503 0-1.672 1.443-1.622 4.706.05 3.263.269 4.676 1.771 4.656 1.234 0 1.164-1.612 1.174-2.616l2.636-.05c0 3.412-1.283 4.526-3.78 4.566-4.388.11-4.447-3.134-4.497-6.476ZM646.795 246.229l.915-12.714 2.656.199-.915 12.714ZM654.197 246.856l1.989-12.595 6.964 1.124-.308 1.99-4.238-.667-.498 3.104 3.91.617-.308 1.99-3.91-.627-.577 3.681 4.377.696-.308 1.94ZM665.398 248.845l3.413-12.286 3.472.995.905 9.411 2.368-8.506 2.397.667-3.422 12.286-3.382-.945-.856-9.948-2.497 8.953ZM681.336 247.065c1.293-3.114 2.517-6.089 6.576-4.407 2.517.994 2.984 2.845 1.811 5.332l-2.418-.995c.647-1.562.617-2.268-.119-2.567-1.383-.577-2.109.657-3.353 3.681-1.244 3.025-1.602 4.398-.219 4.975 1.144.477 1.701-.995 2.119-1.93l2.428.994c-1.304 3.144-2.985 3.642-5.273 2.696-4.069-1.691-2.825-4.695-1.552-7.779ZM690.29 257.958l6.088-11.202 6.118 3.323-.994 1.721-3.771-2.049-1.502 2.765 3.482 1.891-.935 1.721-3.482-1.89-1.781 3.273 3.9 2.119-.995 1.721ZM721.09 263.36l-5.67 7.044c-1.194 1.492-3.303 2.378-5.83.338-2.278-1.84-2.428-3.91-.926-5.78l5.681-7.034 2.069 1.672-5.511 6.904c-.995 1.224-.846 2.119-.09 2.736s1.801.458 2.686-.647l5.572-6.904ZM716.544 276.413l9.162-8.864 2.507 2.586-3.979 8.576 6.347-6.148 1.731 1.79-9.162 8.865-2.448-2.517 4.278-8.954-6.705 6.486ZM726.204 286.938l9.948-7.959 1.672 2.08-9.949 7.958ZM740.858 284.978l1.532 2.308-6.616 6.765 8.954-3.253 1.442 2.189-12.485 4.248-1.721-2.626ZM737.346 303.284l11.361-5.85 3.194 6.178-1.731.895-1.99-3.81-2.796 1.443 1.811 3.521-1.731.896-1.821-3.512-3.312 1.711 2.039 3.979-1.741.906ZM743.285 315.878l-.995-2.487 11.939-4.616 1.78 4.596c.657 1.702 0 3.214-1.989 3.98-1.522.587-2.885.428-3.781-1.085a2.269 2.269 0 0 1-1.502 3.065 17.505 17.505 0 0 0-3.382 1.631l-.995-2.437a5.87 5.87 0 0 1 2.208-1.154c1.413-.557 2.666-.886 1.92-2.796l-.248-.646Zm6.755-2.616.428 1.104c.388.995 1.482.886 2.238.587 1.135-.437 1.383-1.084 1.075-1.87l-.428-1.104ZM747.235 328.433c-.846-3.193.875-4.287 3.044-4.715l.687 2.576c-1.174.309-2.159.627-1.781 1.99a1.284 1.284 0 0 0 1.751.935c2.218-.597.995-5.819 4.646-6.794 1.93-.508 3.71 0 4.546 3.143.667 2.517-.129 4.059-2.756 4.577l-.666-2.517c.925-.239 1.82-.647 1.542-1.692a1.235 1.235 0 0 0-1.662-.995c-2.337.617-.766 5.751-4.636 6.785-3.193.926-4.188-1.303-4.715-3.293ZM749.404 337.069l12.574-2.149.448 2.626-12.575 2.149ZM763.899 350.957l-2.11.179-.248-2.985-10.595.906-.229-2.657 10.595-.905-.259-2.984 2.119-.18ZM755.671 358.219l8.407-3.163-.06 2.915-5.422 1.8 5.342 2.139-.059 2.716-8.258-3.741-4.417-.089.06-2.666Z"/></g></g></g></g></svg>