<svg xmlns="http://www.w3.org/2000/svg" width="300mm" height="300mm" viewBox="0 0 300 300"><defs><radialGradient id="b" cx="0" cy="0" r="1" fx="0" fy="0" gradientTransform="matrix(14.68988 0 0 -14.68988 285.487 710.86)" gradientUnits="userSpaceOnUse" spreadMethod="pad"><stop offset="0" style="stop-opacity:1;stop-color:#dadf00"/><stop offset="0.1" style="stop-opacity:1;stop-color:#dadf00"/><stop offset="0.9" style="stop-opacity:1;stop-color:#8dc21f"/><stop offset="1" style="stop-opacity:1;stop-color:#aacc03"/></radialGradient><radialGradient id="d" cx="0" cy="0" r="1" fx="0" fy="0" gradientTransform="matrix(29.24008 0 0 -29.24008 315.446 715.612)" gradientUnits="userSpaceOnUse" spreadMethod="pad"><stop offset="0" style="stop-opacity:1;stop-color:#dadf00"/><stop offset="0.1" style="stop-opacity:1;stop-color:#dadf00"/><stop offset="0.9" style="stop-opacity:1;stop-color:#8dc21f"/><stop offset="1" style="stop-opacity:1;stop-color:#aacc03"/></radialGradient><clipPath id="a" clipPathUnits="userSpaceOnUse"><path d="M280.003 705.694c0-5.092 3.429-8.778 8.415-8.778 3.075 0 5.633 1.59 7.343 4.089 2.799 4.084 4.018 4.689 4.018 4.689s-1.219.61-4.018 4.694c-1.71 2.491-4.268 4.082-7.343 4.082-4.986 0-8.415-3.681-8.415-8.776"/></clipPath><clipPath id="c" clipPathUnits="userSpaceOnUse"><path d="M307.816 715.081c-5.596-8.171-8.037-9.387-8.037-9.387s2.441-1.217 8.037-9.386c3.424-4.987 8.538-8.169 14.692-8.169 9.971 0 16.836 7.362 16.836 17.555 0 10.192-6.865 17.554-16.836 17.554-6.154 0-11.268-3.18-14.692-8.167"/></clipPath></defs><path d="M-328.01-332.795c-9.775 0-19.495.25-29.15.74a569.127 569.127 0 0 0-28.772 2.196 563.689 563.689 0 0 0-83.69 14.957 562.176 562.176 0 0 0-53.247 16.588 563.427 563.427 0 0 0-50.875 21.548 566.023 566.023 0 0 0-48.215 26.22 568.975 568.975 0 0 0-45.266 30.603 571.386 571.386 0 0 0-42.033 34.7 572.418 572.418 0 0 0-73.21 80.544 569.048 569.048 0 0 0-44.281 69.023 566.026 566.026 0 0 0-23.92 49.58 563.424 563.424 0 0 0-19.104 52.098 562.184 562.184 0 0 0-14.002 54.326 563.677 563.677 0 0 0-8.612 56.268 569.19 569.19 0 0 0-2.195 28.773 573.799 573.799 0 0 0 0 58.299 569.115 569.115 0 0 0 2.195 28.771 563.6 563.6 0 0 0 14.957 83.691 562.19 562.19 0 0 0 26.76 78.999 566.029 566.029 0 0 0 37.598 73.338 568.993 568.993 0 0 0 30.603 45.267 571.28 571.28 0 0 0 34.701 42.032 572.478 572.478 0 0 0 38.51 38.511 572.03 572.03 0 0 0 64.28 50.534 568.986 568.986 0 0 0 46.777 28.447 566.023 566.023 0 0 0 49.58 23.92 563.427 563.427 0 0 0 52.098 19.105 562.188 562.188 0 0 0 54.324 14.002 565.735 565.735 0 0 0 56.268 8.611c9.523.97 19.115 1.705 28.77 2.196 9.656.49 19.376.738 29.151.738 9.776 0 19.495-.247 29.15-.738a569.104 569.104 0 0 0 28.772-2.196 565.735 565.735 0 0 0 56.268-8.61 562.432 562.432 0 0 0 106.422-33.108 566.022 566.022 0 0 0 73.338-37.596 568.985 568.985 0 0 0 45.265-30.603 571.388 571.388 0 0 0 42.033-34.702 572.421 572.421 0 0 0 73.211-80.543 570.33 570.33 0 0 0 30.604-45.267 566.029 566.029 0 0 0 37.598-73.338 563.432 563.432 0 0 0 19.103-52.096 562.19 562.19 0 0 0 14.002-54.326 563.611 563.611 0 0 0 8.611-56.268 569.115 569.115 0 0 0 2.196-28.771 573.876 573.876 0 0 0 0-58.299 569.19 569.19 0 0 0-2.196-28.773 563.689 563.689 0 0 0-14.957-83.691 562.184 562.184 0 0 0-16.588-53.249 563.424 563.424 0 0 0-21.549-50.875 566.026 566.026 0 0 0-26.22-48.213 569.037 569.037 0 0 0-30.604-45.267 571.338 571.338 0 0 0-53.498-61.746 572.422 572.422 0 0 0-40.306-36.64 571.387 571.387 0 0 0-43.686-32.69 568.975 568.975 0 0 0-46.777-28.448 566.022 566.022 0 0 0-49.58-23.92 563.427 563.427 0 0 0-52.098-19.103 562.176 562.176 0 0 0-54.324-14.002 563.69 563.69 0 0 0-56.268-8.611 569.127 569.127 0 0 0-28.771-2.196 573.887 573.887 0 0 0-29.15-.74z" style="fill:#fff;fill-rule:evenodd;stroke:none;stroke-width:55.3954;stroke-linecap:round;stroke-linejoin:round" transform="translate(235.48 88.884) scale(.2606)"/><g clip-path="url(#a)" transform="matrix(1.43885 0 0 -1.43885 -256.535 1148.962)"><path d="M280.003 705.694c0-5.092 3.429-8.778 8.415-8.778 3.075 0 5.633 1.59 7.343 4.089 2.799 4.084 4.018 4.689 4.018 4.689s-1.219.61-4.018 4.694c-1.71 2.491-4.268 4.082-7.343 4.082-4.986 0-8.415-3.681-8.415-8.776" style="fill:url(#b);stroke:none"/></g><g clip-path="url(#c)" transform="matrix(1.43885 0 0 -1.43885 -256.535 1148.962)"><path d="M307.816 715.081c-5.596-8.171-8.037-9.387-8.037-9.387s2.441-1.217 8.037-9.386c3.424-4.987 8.538-8.169 14.692-8.169 9.971 0 16.836 7.362 16.836 17.555 0 10.192-6.865 17.554-16.836 17.554-6.154 0-11.268-3.18-14.692-8.167" style="fill:url(#d);stroke:none"/></g><path d="M0 0v-13.252c0-1.346-.239-2.667-.706-3.927-.366-.986-1.69-1.486-3.927-1.486-2.22 0-3.536.502-3.913 1.492a11.01 11.01 0 0 0-.72 3.921V0h-5.809v-14.481c0-2.965.988-5.24 2.935-6.757 1.907-1.487 4.432-2.241 7.507-2.241 3.073 0 5.602.754 7.507 2.241 1.946 1.517 2.935 3.792 2.935 6.757V0Z" style="fill:#a0c518;fill-opacity:1;fill-rule:nonzero;stroke:none" transform="matrix(1.43885 0 0 -1.43885 166.314 155.268)"/><path d="M0 0h6.164v-18.806h12.591v-4.576H3.974A3.974 3.974 0 0 0 0-19.408Z" style="fill:#0056a3;fill-opacity:1;fill-rule:nonzero;stroke:none" transform="matrix(1.43885 0 0 -1.43885 75.432 154.62)"/><path d="M0 0v-9.119h-9.673V0h-6.163v-23.382h6.163v11.131a3.964 3.964 0 0 1 3.065-1.444H0v-9.687h6.165V0Z" style="fill:#0056a3;fill-opacity:1;fill-rule:nonzero;stroke:none" transform="matrix(1.43885 0 0 -1.43885 129.964 154.62)"/><path d="M0 0c-39.379 0-71.417-32.037-71.417-71.417 0-39.378 32.038-71.416 71.417-71.416 39.379 0 71.416 32.038 71.416 71.416C71.416-32.037 39.379 0 0 0m0-144.333c-40.207 0-72.917 32.71-72.917 72.916C-72.917-31.21-40.207 1.5 0 1.5c40.206 0 72.916-32.71 72.916-72.917 0-40.206-32.71-72.916-72.916-72.916" style="fill:#0056a3;fill-opacity:1;fill-rule:nonzero;stroke:none" transform="matrix(1.43885 0 0 -1.43885 150 47.242)"/><path d="m0 0-.507 2.447 11.868 2.458-1.472 7.11 2.115.438 1.979-9.557z" style="fill:#0056a3;fill-opacity:1;fill-rule:nonzero;stroke:none" transform="matrix(1.43885 0 0 -1.43885 16.049 184.06)"/><path d="m0 0-.068 2.499 5.678.155-.178 6.498-5.678-.155-.068 2.499 14.274.39.069-2.499-6.438-.176.178-6.498 6.438.176.068-2.499Z" style="fill:#0056a3;fill-opacity:1;fill-rule:nonzero;stroke:none" transform="matrix(1.43885 0 0 -1.43885 12.227 162.115)"/><path d="m0 0 .633 2.418L8.682.311A8.434 8.434 0 0 1 11.5.059c.95.075 1.629.893 2.038 2.454.412 1.573.222 2.622-.571 3.147a8.604 8.604 0 0 1-2.583 1.152L2.336 8.919l.633 2.419 8.842-2.316c1.767-.462 2.957-1.329 3.568-2.598.612-1.27.695-2.756.249-4.459-.446-1.702-1.247-2.957-2.402-3.764-1.155-.807-2.617-.979-4.384-.516Z" style="fill:#0056a3;fill-opacity:1;fill-rule:nonzero;stroke:none" transform="matrix(1.43885 0 0 -1.43885 14.307 123.102)"/><path d="m0 0 1.154 2.374 12.312 1.265.017.036-9.461 4.599 1.04 2.141 12.843-6.243-1.154-2.375L4.466.542 4.44.488l9.443-4.591-1.04-2.14z" style="fill:#0056a3;fill-opacity:1;fill-rule:nonzero;stroke:none" transform="matrix(1.43885 0 0 -1.43885 22.13 97.219)"/><path d="m0 0 1.4 2.071 11.83-7.998-1.4-2.072z" style="fill:#0056a3;fill-opacity:1;fill-rule:nonzero;stroke:none" transform="matrix(1.43885 0 0 -1.43885 34.551 74.259)"/><path d="m0 0 1.721 1.949 10.841-4.794.026.03-6.05 10.222 1.681 1.904 7.477-13.108-1.84-2.084z" style="fill:#0056a3;fill-opacity:1;fill-rule:nonzero;stroke:none" transform="matrix(1.43885 0 0 -1.43885 40.557 65.374)"/><path d="m0 0 8.008 6.445 1.355-1.682L3.302-.115l2.344-2.914 5.61 4.514 1.279-1.589-5.61-4.514 2.621-3.257 6.17 4.966 1.354-1.683-8.117-6.533z" style="fill:#0056a3;fill-opacity:1;fill-rule:nonzero;stroke:none" transform="matrix(1.43885 0 0 -1.43885 58.144 46.713)"/><path d="m0 0 3.606 1.952c.692.374 1.13.831 1.316 1.371.185.54.1 1.138-.255 1.795-.432.798-.933 1.197-1.502 1.2-.57.002-1.143-.152-1.717-.463l-3.571-1.933Zm-5.292 4.526L.706 7.773c1.371.742 2.568 1.003 3.589.783 1.021-.221 1.821-.864 2.399-1.931.654-1.208.797-2.181.43-2.917-.367-.737-.631-1.194-.792-1.373l.019-.035c.4.157.916.17 1.547.042.63-.129 1.215-.692 1.755-1.689.393-.727.811-1.365 1.252-1.914.442-.55.849-.89 1.223-1.021L9.772-3.558a2.325 2.325 0 0 0-.776.741c-.207.312-.393.62-.558.925C7.816-.743 7.196.01 6.579.366c-.617.356-1.43.26-2.438-.285L.905-1.671l2.799-5.171-2.199-1.19Z" style="fill:#0056a3;fill-opacity:1;fill-rule:nonzero;stroke:none" transform="matrix(1.43885 0 0 -1.43885 84.996 38.817)"/><path d="M0 0c.335-1.041.911-1.679 1.729-1.913.817-.234 1.702-.198 2.654.108 1.054.339 1.727.794 2.019 1.364.293.57.358 1.109.195 1.617-.168.521-.409.867-.723 1.039a2.121 2.121 0 0 1-.939.276 15.64 15.64 0 0 1-1.838-.035A104.03 104.03 0 0 0 .518 2.31c-1.258-.055-2.202.17-2.833.674-.632.504-1.06 1.105-1.284 1.804-.437 1.358-.24 2.531.59 3.52a6.608 6.608 0 0 0 3.093 2.076c1.421.458 2.765.484 4.03.078 1.265-.405 2.126-1.319 2.583-2.74l-2.38-.766c-.332.859-.827 1.383-1.482 1.572-.656.188-1.397.149-2.222-.116a4.265 4.265 0 0 1-1.536-.904c-.479-.427-.609-.984-.388-1.669.151-.47.42-.797.809-.98.388-.183.845-.267 1.373-.251.109.007.75.041 1.921.103 1.17.061 1.95.099 2.338.111.987.024 1.803-.228 2.449-.756.646-.527 1.083-1.147 1.312-1.858.49-1.522.279-2.795-.632-3.816-.911-1.022-2.046-1.751-3.404-2.187-1.548-.499-2.999-.538-4.352-.119-1.354.418-2.315 1.468-2.883 3.148z" style="fill:#0056a3;fill-opacity:1;fill-rule:nonzero;stroke:none" transform="matrix(1.43885 0 0 -1.43885 107.337 33.061)"/><path d="m0 0 2.46.443 2.528-14.055-2.46-.442z" style="fill:#0056a3;fill-opacity:1;fill-rule:nonzero;stroke:none" transform="matrix(1.43885 0 0 -1.43885 123.643 14.453)"/><path d="m0 0 11.544.595.111-2.157-4.533-.234.623-12.104-2.497-.129-.623 12.104L.11-2.157Z" style="fill:#0056a3;fill-opacity:1;fill-rule:nonzero;stroke:none" transform="matrix(1.43885 0 0 -1.43885 134.513 12.56)"/><path d="m0 0-4.307 9.248 2.881-.34L1.578 2.11l4.444 5.92 2.781-.328-6.32-7.995-.656-5.561-2.482.292Z" style="fill:#0056a3;fill-opacity:1;fill-rule:nonzero;stroke:none" transform="matrix(1.43885 0 0 -1.43885 163.078 25.098)"/><path d="M0 0c-.411-1.013-.379-1.872.098-2.576.476-.705 1.177-1.245 2.104-1.622 1.026-.416 1.833-.5 2.424-.251s.986.621 1.187 1.116c.206.506.244.926.113 1.26a2.125 2.125 0 0 1-.543.814c-.387.359-.864.743-1.432 1.154-.567.41-1.258.924-2.071 1.543C.882 2.204.302 2.982.142 3.774c-.161.792-.103 1.528.173 2.207.538 1.322 1.442 2.095 2.713 2.32a6.605 6.605 0 0 0 3.704-.394c1.384-.562 2.43-1.405 3.14-2.528.709-1.123.783-2.376.221-3.759l-2.317.941c.297.872.255 1.591-.127 2.157-.382.565-.974 1.011-1.777 1.337a4.269 4.269 0 0 1-1.759.294c-.641-.02-1.097-.364-1.369-1.031-.185-.457-.188-.881-.009-1.27.18-.39.477-.748.892-1.074.088-.065.602-.45 1.538-1.155A127.43 127.43 0 0 0 7.029.403C7.801-.212 8.265-.93 8.422-1.749c.156-.819.094-1.575-.188-2.266-.601-1.483-1.58-2.323-2.934-2.521-1.355-.198-2.693-.028-4.014.509-1.507.612-2.644 1.513-3.413 2.703-.769 1.19-.832 2.612-.188 4.265z" style="fill:#0056a3;fill-opacity:1;fill-rule:nonzero;stroke:none" transform="matrix(1.43885 0 0 -1.43885 192.362 32.952)"/><path d="m0 0 2.171-1.239-7.076-12.403-2.171 1.239z" style="fill:#0056a3;fill-opacity:1;fill-rule:nonzero;stroke:none" transform="matrix(1.43885 0 0 -1.43885 216.75 29.12)"/><path d="m0 0 2.085-1.62L.78-13.927l.032-.025 6.454 8.308 1.879-1.46-8.76-11.277-2.085 1.619 1.308 12.28-.047.037-6.442-8.292-1.88 1.46z" style="fill:#0056a3;fill-opacity:1;fill-rule:nonzero;stroke:none" transform="matrix(1.43885 0 0 -1.43885 228.04 35.805)"/><path d="M0 0c.479.707.733 1.446.763 2.219.03.773-.299 1.55-.987 2.33-1.013 1.15-2.168 1.608-3.463 1.373-1.294-.235-2.458-.807-3.488-1.714-1.03-.909-1.743-1.99-2.138-3.245-.396-1.255-.086-2.458.927-3.609.732-.83 1.573-1.234 2.524-1.214.95.02 1.846.339 2.688.957l1.614-1.831c-1.342-1.058-2.784-1.524-4.325-1.399-1.542.126-2.886.839-4.031 2.139-1.411 1.6-1.965 3.343-1.661 5.227.303 1.885 1.22 3.501 2.75 4.85 1.53 1.349 3.252 2.058 5.164 2.126 1.912.068 3.569-.702 4.97-2.312 1.066-1.21 1.657-2.525 1.77-3.944.113-1.42-.361-2.696-1.425-3.828Z" style="fill:#0056a3;fill-opacity:1;fill-rule:nonzero;stroke:none" transform="matrix(1.43885 0 0 -1.43885 252.448 67.324)"/><path d="m0 0 5.284-8.818-1.852-1.11-3.999 6.673-3.208-1.923 3.701-6.176-1.75-1.048-3.701 6.175-3.585-2.148 4.071-6.793-1.853-1.111-5.357 8.937z" style="fill:#0056a3;fill-opacity:1;fill-rule:nonzero;stroke:none" transform="matrix(1.43885 0 0 -1.43885 264.946 73.213)"/><path d="m0 0-2.687 9.175c1.104.309 2.15.32 3.137.033.987-.288 1.926-.788 2.816-1.5.872-.703 1.76-1.412 2.665-2.126.903-.715 1.881-.925 2.935-.631.489.13.968.419 1.434.868.466.449.56 1.147.283 2.094-.251.858-.748 1.355-1.489 1.492-.742.137-1.59.079-2.545-.172l-.641 2.188c1.485.434 2.835.4 4.053-.105s2.046-1.506 2.484-3.003c.48-1.638.34-2.905-.419-3.801-.758-.896-1.573-1.471-2.442-1.726-1.063-.311-2.038-.264-2.929.143-.889.406-1.716.914-2.478 1.525-.766.623-1.483 1.219-2.15 1.787-.666.57-1.329.862-1.986.878L1.958.573Z" style="fill:#0056a3;fill-opacity:1;fill-rule:nonzero;stroke:none" transform="matrix(1.43885 0 0 -1.43885 264.716 123.519)"/><path d="M0 0c.129-.992.744-1.594 1.848-1.808 1.103-.213 2.375-.226 3.816-.04 1.455.189 2.686.527 3.691 1.013 1.006.486 1.445 1.226 1.316 2.217-.128.992-.741 1.595-1.837 1.809-1.097.215-2.373.227-3.827.039-1.442-.187-2.668-.523-3.681-1.011C.313 1.731-.128.992 0 0m12.556 1.626c.257-1.996-.384-3.4-1.925-4.212-1.542-.811-3.1-1.319-4.674-1.523-1.573-.203-3.209-.109-4.906.282-1.698.392-2.676 1.587-2.935 3.583-.259 1.997.383 3.401 1.925 4.212 1.541.812 3.1 1.319 4.673 1.523 1.573.204 3.209.11 4.907-.282 1.697-.392 2.676-1.586 2.935-3.583" style="fill:#0056a3;fill-opacity:1;fill-rule:nonzero;stroke:none" transform="matrix(1.43885 0 0 -1.43885 268.836 134.46)"/><path d="M0 0c-.038-.959.113-1.84.453-2.643.34-.801.928-1.3 1.763-1.495l-.047-1.859-13.996.355.063 2.499 9.877-.251L-1.8.045z" style="fill:#0056a3;fill-opacity:1;fill-rule:nonzero;stroke:none" transform="matrix(1.43885 0 0 -1.43885 284.431 146.985)"/><path d="M0 0a4.386 4.386 0 0 1 .053-2.165c.198-.7.717-1.126 1.556-1.279.578-.105 1.083.012 1.518.354.435.341.708.82.82 1.436.141.775-.046 1.404-.56 1.891a3.406 3.406 0 0 1-1.838.904l.408 2.243c1.326-.31 2.362-.941 3.11-1.898.748-.955.995-2.129.743-3.519a5.305 5.305 0 0 0-1.467-2.813c-.782-.8-1.783-1.089-3.004-.867-.682.125-1.256.395-1.723.812-.466.417-.758.975-.874 1.673l-.04.007c-.298-.745-.799-1.284-1.503-1.617-.705-.332-1.503-.418-2.394-.256-1.299.237-2.239.906-2.817 2.007-.579 1.102-.748 2.315-.507 3.64.289 1.588.949 2.703 1.981 3.349 1.032.646 2.266.852 3.701.618l-.408-2.243c-.835.179-1.571.1-2.209-.239C-6.092 1.7-6.49 1.092-6.649.213c-.136-.748-.038-1.413.297-1.996.334-.582.895-.946 1.682-1.088 1.076-.195 1.814.059 2.213.766.399.707.661 1.509.784 2.409z" style="fill:#0056a3;fill-opacity:1;fill-rule:nonzero;stroke:none" transform="matrix(1.43885 0 0 -1.43885 277.472 171.856)"/><path d="m0 0 1.317-1.977-9.582-6.384L-4.44-14.1l-1.708-1.138-5.142 7.717z" style="fill:#0056a3;fill-opacity:1;fill-rule:nonzero;stroke:none" transform="matrix(1.43885 0 0 -1.43885 50.78 209.033)"/><path d="m0 0 1.687-1.672-3.797-3.834 4.386-4.346 3.798 3.834 1.687-1.671-9.548-9.639-1.687 1.672 4.306 4.347-4.387 4.346-4.305-4.348-1.687 1.672z" style="fill:#0056a3;fill-opacity:1;fill-rule:nonzero;stroke:none" transform="matrix(1.43885 0 0 -1.43885 63.269 226.36)"/><path d="m0 0-1.157-1.898 7.416-4.518-.761-1.25-3.83 2.332L.195-7.75l4.885-2.977-.751-1.232-11.976 7.295.751 1.232 4.901-2.984 1.473 2.418-2.061 1.254c-.465.283-.753.644-.864 1.084-.112.437-.035.873.228 1.306L.518 5.779 9.945.037l-.761-1.25-7.237 4.408L.751 1.232l7.091-4.32-.751-1.232Z" style="fill:#0056a3;fill-opacity:1;fill-rule:nonzero;stroke:none" transform="matrix(1.43885 0 0 -1.43885 82.838 252.46)"/><path d="m0 0-2.454.748 4.591 15.049 2.454-.75zm-7.898 18.322 8.177-2.496-.421-1.381-2.853.871-.449-1.472c-.436-1.43-.425-2.77.034-4.024.458-1.252 1.155-2.127 2.089-2.623l-1.521-.689c-.769.301-1.453.881-2.052 1.74-.599.857-.892 1.654-.878 2.393-.389-.623-1.074-1.12-2.054-1.489-.98-.371-1.875-.47-2.685-.304l-.896 1.425c1.065-.113 2.135.223 3.208 1.008 1.074.785 1.829 1.893 2.265 3.323l.449 1.472-2.835.863z" style="fill:#0056a3;fill-opacity:1;fill-rule:nonzero;stroke:none" transform="matrix(1.43885 0 0 -1.43885 118.578 283.937)"/><path d="m0 0 11.615-.533-.067-1.461-4.517.207-.005-.096c-.052-1.15.509-2.187 1.683-3.109 1.175-.924 2.414-1.422 3.717-1.494L11.16-7.531c-1.075.051-2.185.371-3.331.963-1.145.589-1.886 1.267-2.218 2.031-.388-.742-1.181-1.354-2.376-1.83C2.041-6.846.898-7.059-.189-7.01l-1.165 1.158c1.317-.048 2.6.332 3.848 1.145 1.248.811 1.899 1.793 1.951 2.943l.004.096-4.516.207zm12.755-9.258-.067-1.443-6.053.277-.251-5.445-2.562.117.25 5.447-6.074.28.066 1.441z" style="fill:#0056a3;fill-opacity:1;fill-rule:nonzero;stroke:none" transform="matrix(1.43885 0 0 -1.43885 136.27 264.344)"/><path d="m0 0-8.935-1.832-.29 1.414L2.223 1.93l1.122-5.473-2.513-.514Zm.185 11.869 1.8-8.785-2.381-.488-.875 4.261-1.489-.304.874-4.262-2.383-.49-.174.857a2.903 2.903 0 0 0-.734-.539 4.16 4.16 0 0 0-1.133-.387l-3.202-.656c-.533-.109-.985-.047-1.356.188-.372.234-.609.599-.71 1.095l-1.313 6.403 5.696 1.168.294-1.434-3.22-.66.389-1.899 3.145.645.29-1.414-3.145-.645.385-1.88 2.55.523c.435.088.799.203 1.094.34.295.139.533.271.714.398l-1.37 6.682 2.381.49.634-3.09 1.49.305-.634 3.09z" style="fill:#0056a3;fill-opacity:1;fill-rule:nonzero;stroke:none" transform="matrix(1.43885 0 0 -1.43885 182.298 277.42)"/><path d="m0 0-2.716 5.568a3.04 3.04 0 0 0-.563-.709c-.249-.24-.584-.464-1.005-.67l-2.903-1.416c-.49-.238-.944-.291-1.362-.156-.418.135-.737.43-.96.885l-3.431 7.035 5.14 2.508.642-1.315-2.869-1.4 2.881-5.908 2.306 1.125c.399.193.725.39.979.594.254.201.453.384.595.554l-3.63 7.446 2.185 1.066 1.874-3.844 1.366.668-1.874 3.842 2.186 1.066 6.896-14.14-2.185-1.067-4.39 9-1.366-.666 4.39-9z" style="fill:#0056a3;fill-opacity:1;fill-rule:nonzero;stroke:none" transform="matrix(1.43885 0 0 -1.43885 210.406 273.267)"/><path d="m0 0 1.956 1.658.946-1.115L.946-1.115l2.876-3.391-1.956-1.66L-4.045.805l1.956 1.658Zm3.476-8.064-6.652-5.641-.933 1.101 8.607 7.299 3.589-4.23-1.957-1.658zm-10.16 1.287c.043-.52.257-1.008.642-1.461.385-.455.833-.748 1.343-.879.511-.133.915-.071 1.215.183.309.262.438.653.386 1.174-.051.522-.269 1.008-.655 1.463-.385.453-.828.746-1.329.877-.502.131-.907.066-1.217-.195-.299-.254-.428-.643-.385-1.162m2.142 3.173a3.394 3.394 0 0 0 1.462-.255c.46-.19.854-.479 1.183-.866.622-.734.866-1.615.732-2.64-.134-1.028-.616-1.893-1.446-2.598-.822-.697-1.752-1.029-2.792-.998-1.04.031-1.871.414-2.493 1.148a3.065 3.065 0 0 0-.662 1.309 3.515 3.515 0 0 0-.027 1.473l-1.435-1.217-.909 1.072 2.478 2.102-1.217 1.433 1.956 1.659 1.217-1.434 2.477 2.102.911-1.073z" style="fill:#0056a3;fill-opacity:1;fill-rule:nonzero;stroke:none" transform="matrix(1.43885 0 0 -1.43885 233.217 235.756)"/><path d="m0 0 5.152-3.674.74 1.037L.739 1.035l1.434 2.012L7.325-.625l3.077 4.316 1.176-.837-8.14-11.418-1.175.837 1.456 2.041-5.153 3.674zm-6.61.021 6.584 9.237 4.827-3.442c.856-.609 1.554-1.212 2.095-1.806.54-.596.922-1.16 1.149-1.696L6.732.475c-.253.584-.668 1.125-1.246 1.623-.579.498-1.347 1.088-2.306 1.771L-.302 6.352l-5.117-7.18z" style="fill:#0056a3;fill-opacity:1;fill-rule:nonzero;stroke:none" transform="matrix(1.43885 0 0 -1.43885 248.29 223.514)"/><path d="M0 0a1.417 1.417 0 1 0-2.834 0A1.417 1.417 0 0 0 0 0" style="fill:#0056a3;fill-opacity:1;fill-rule:nonzero;stroke:none" transform="matrix(1.43885 0 0 -1.43885 34.773 197.802)"/><path d="M0 0a1.418 1.418 0 1 0-2.836.002A1.418 1.418 0 0 0 0 0" style="fill:#0056a3;fill-opacity:1;fill-rule:nonzero;stroke:none" transform="matrix(1.43885 0 0 -1.43885 269.305 197.802)"/><path d="M-86.786-88.052c-82.765 0-150.101 67.335-150.101 150.102 0 82.765 67.336 150.101 150.101 150.101S63.315 144.815 63.315 62.05c0-82.767-67.336-150.102-150.1-150.102m0 302.394c-83.974 0-152.294-68.319-152.294-152.292 0-83.975 68.32-152.293 152.293-152.293 83.974 0 152.293 68.318 152.293 152.293 0 83.973-68.32 152.292-152.293 152.292" style="fill:#0056a3;fill-opacity:1;fill-rule:nonzero;stroke:none;stroke-width:1.46084" transform="matrix(.98495 0 0 .98495 235.48 88.884)"/></svg>