<svg xmlns="http://www.w3.org/2000/svg" width="207.96223mm" height="207.96223mm" viewBox="0 0 207.96223 207.96223"><g transform="translate(-8.094 -63.852)"><circle cx="112.07548" cy="167.83275" r="103.98112" style="fill:#fff;fill-opacity:1;stroke:#fff;stroke-width:0"/><g style="fill:#083388;fill-opacity:1"><path d="M62.93 171.225c0-27.484 22.283-49.766 49.768-49.766s49.768 22.282 49.768 49.766c0 27.485-22.283 49.77-49.768 49.77s-49.767-22.285-49.767-49.77zm-1.464 0c0-28.294 22.937-51.231 51.232-51.231 28.295 0 51.232 22.937 51.232 51.231 0 28.296-22.937 51.234-51.232 51.234-28.295 0-51.232-22.938-51.232-51.234" style="fill:#083388;fill-opacity:1;fill-rule:evenodd;stroke:none;stroke-width:.0352778" transform="matrix(1.9519 0 0 1.95188 -108.32 -167.144)"/><path d="M72.687 171.152c0-22.155 17.963-40.117 40.118-40.117 22.157 0 40.118 17.962 40.118 40.117 0 22.157-17.96 40.118-40.118 40.118-22.155 0-40.118-17.96-40.118-40.118zm-1.18 0c0-22.808 18.49-41.297 41.298-41.297 22.81 0 41.299 18.489 41.299 41.297 0 22.811-18.49 41.299-41.299 41.299-22.808 0-41.299-18.488-41.299-41.299" style="fill:#083388;fill-opacity:1;fill-rule:evenodd;stroke:none;stroke-width:.0352778" transform="matrix(1.9519 0 0 1.95188 -108.32 -167.144)"/><path d="m67.657 153.813.642-1.444 1.772.789-1.097-2.306.856-1.925 1.003 2.488 3.722-.476-.793 1.782-2.353.128.444 1.102 1.137.506-.643 1.444zm9.24-15.012 1.256-1.233 1.946.502-.465-1.954 1.25-1.227.665 3.528 1.505 1.535-1.137 1.115-1.505-1.535zm8.187-7.094 1.258 5.335 1.345-.9-.257-.843 1.492-1 .682.56 1.379-.924-4.458-3.193zm-12.44 12.64 3.108 4.516.926-1.328-.545-.693 1.027-1.472.84.274.95-1.361-5.314-1.359zm14.451-10.154.933-.625-1.495-1.226zm-11.675 11.74.642-.92-1.837-.6 1.195 1.52M156.694 152.738l.574 1.664-1.286 1.543 1.965.417.574 1.655-3.473-.911-2.032.703-.52-1.505 2.03-.703zm-3.884-7.427 2.378 4.185-1.107.628-.797-1.406-3.358 1.908-.783-1.375 3.36-1.906-.797-1.406zm-3.284-4.462.983 1.252-4.039 3.17-.983-1.252zM99.76 124.845l1.516-.444.858 2.932c.086.291.12.58.105.864a1.85 1.85 0 0 1-.228.802c-.137.25-.301.446-.49.587-.264.196-.603.355-1.018.476-.24.07-.506.13-.8.18-.292.049-.549.052-.769.008a1.84 1.84 0 0 1-.646-.271 1.606 1.606 0 0 1-.49-.473 3.052 3.052 0 0 1-.386-.791l-.858-2.932 1.517-.444.879 3c.078.268.214.456.407.563.193.106.423.122.688.044.263-.077.447-.211.553-.404.106-.192.12-.425.04-.697zm5.806-1.257 1.47-.134 2.184 2.659-.258-2.834 1.492-.135.464 5.113-1.492.135-2.173-2.643.257 2.816-1.48.135zm8.878-.383 1.59.095-.305 5.125-1.59-.094zm5.345.454 1.62.349.35 3.854 1.894-3.37 1.572.338-2.943 4.617-1.68-.362zm9.046 2.37 3.916 1.628-.418 1.01-2.447-1.018-.315.757 2.26.94-.402.966-2.26-.94-.388.933 2.514 1.045-.448 1.075-3.983-1.657zm10.777 5.766c-.172-.211-.462-.45-.872-.716l-2.213-1.438-2.796 4.306 1.336.867 1.133-1.744.116.076a.66.66 0 0 1 .259.31c.036.096.045.258.025.487l-.146 1.773 1.503.975.16-1.664a2.159 2.159 0 0 0-.012-.388 1.679 1.679 0 0 0-.065-.365 1.536 1.536 0 0 0-.241-.383c.228.083.42.128.579.133.247.008.48-.041.694-.148.216-.108.4-.281.555-.52.177-.275.263-.55.254-.828a1.19 1.19 0 0 0-.27-.733zm1.553 5.318 1.16.968c-.143.2-.223.38-.238.541-.025.262.073.496.292.702.163.154.323.234.486.24.16.007.289-.04.385-.142a.465.465 0 0 0 .12-.378c-.01-.154-.138-.411-.383-.77-.397-.59-.615-1.081-.652-1.472-.04-.393.078-.735.353-1.025.18-.192.405-.32.678-.385.272-.066.564-.042.88.072.313.113.666.353 1.054.719.477.45.756.88.838 1.294.083.413-.035.836-.352 1.267l-1.148-.965c.13-.195.185-.375.166-.54-.02-.164-.111-.322-.273-.476-.135-.126-.263-.193-.384-.2a.362.362 0 0 0-.298.111c-.055.06-.078.14-.065.241.008.101.094.268.258.503.4.584.656 1.034.77 1.35.112.317.14.605.084.862-.056.259-.18.49-.373.693-.225.24-.499.397-.823.474a1.7 1.7 0 0 1-.986-.063c-.335-.12-.685-.35-1.045-.69-.634-.599-.957-1.135-.97-1.61-.013-.473.141-.914.466-1.32zm-3.286-5.36-.58-.377-.57.876.558.363c.061.04.19.095.39.169.097.039.198.04.303.004a.47.47 0 0 0 .244-.196.474.474 0 0 0 .078-.406c-.04-.132-.18-.276-.423-.433M111.329 136.157v3.343h-19.42s-2.701-.128-2.958 3.473v11.832h4.63v-10.288h9.775v10.16h4.887v-10.032h9.776v10.032h4.886v-10.16h9.645v10.16h5.017v-12.218s.129-2.959-3.987-2.959h-16.978v-3.215zm-9.26 21.093v5.015h-8.23v2.958h8.102v4.502h-7.846v2.058h8.103v5.273h-8.746s-4.758.9-4.758-3.987v-12.476s.385-3.601 3.986-3.601zm22.557 20.024-.023-5.017 8.232-.038-.013-2.958-8.104.037-.02-4.502 7.845-.036-.01-2.058-8.102.038-.023-5.274 8.746-.04s4.753-.922 4.774 3.966l.058 12.474s-.37 3.604-3.97 3.622zm-20.628-11.537 2.572 2.189s5.66-.258 7.975-6.176v-4.758h-10.032v3.344h5.016s1.414 3.73-5.53 5.401zm5.723 1.743a5.396 5.396 0 1 0 0 10.793 5.396 5.396 0 1 0 0-10.793zm6.752-10.23v9.775h3.86v-2.188h2.314v-4.244h-2.443v-3.343zm-.129 10.804v9.901h3.989v-1.286h2.314v-3.085h-2.186v-1.544h2.058v-3.215h-2.315v-.942zm-21.98 32.37h-5.3v-17.217s-.757-4.256 3.974-4.256h39.733s3.5-.377 3.69 3.406v17.88h-5.582v-15.799H94.551Zm1.702-13.811v13.625s.188 4.255 3.215 4.255h10.88v2.176h5.108v-1.985h10.878s2.936 0 3.03-3.88v-14.096h-4.92v10.973s-1.041 2.081-3.028 2.177h-5.864v-2.366h4.256s2.65-.093 2.743-2.175v-7.379s-.188-1.513-2.46-1.513l-14.851.094s-1.797-.19-1.797 2.174v6.434s-.19 2.176 2.553 2.176h4.351v2.555h-6.052s-2.745 0-3.124-2.65v-10.595Zm13.609-11.487a2.185 2.185 0 1 0 0-4.371 2.186 2.186 0 1 0 0 4.372zm6.54 14.893h-6.81s-2.083-.094-2.083 1.892c0 0 .097 1.702 1.704 1.702h7.284s2.082.381 2.082-1.702c0 0 .379-1.892-2.177-1.892M66.113 166.333a1.201 1.201 0 1 1 2.403 0 1.201 1.201 0 0 1-2.403 0M156.4 166.27a1.2 1.2 0 1 1 2.405.003 1.2 1.2 0 0 1-2.405-.004M153.06 183.593l1.986-4.871s.095-.71 1.277-.285l2.459.898s1.136-.613 1.04.38l-2.128 6.29s-.802.853-1.04-.425l.142-.379-1.75-.755s-.898-1.325.992-1.419l1.135.473.331-.522-1.37-.614s-1.276-1.23.474-1.515l1.418.474.238-.569-2.035-.708s-.757-.522-.9.664l-1.277 3.498s-1.135.9-.992-.615zm-80.98-.946-5.204.426s-1.277 1.09.284 1.751l1.986-.142.189.614s1.089.616 1.278-.332l-.048-.518 1.278-.19s1.04-.38.236-1.61zm-.924-4.542s-.638-1.418-1.277.213l.214 2.414s-2.626.851-2.626-1.916c0 0-.78-1.278-1.135.282 0 0-.024 2.509 2.341 3.266 0 0 2.79.283 2.744-.805 0 0-.283-2.035-.261-3.454zm9.508 26.725a2.531 2.531 0 0 1 2.53-2.53c1.4 0 2.271.801 2.271 2.2a2.532 2.532 0 0 1-2.53 2.532c-1.4 0-2.271-.802-2.271-2.202zm5.511.145-3.69 3.12s-.709.473 0 1.23c0 0 .474.947 1.278.19l1.23-.947.472.38 1.61-1.468-.333-.568.757-.566s.332-.141-.283-.945c0 0-.38-.9-1.04-.426zm24.882 10.5h-1.467v2.79h1.324s.661-.236.661.568c0 0 .19.567-.661.472h-2.224s-.613.144-.613-1.135v-3.312s-.143-.612.566-.612h2.366s.615-.05.615.71c0 0 .094.518-.567.518zm.896-.898v5.06s0 .616.805.616c0 0 .71.237.71-.617v-1.89h.378v1.797s-.095.615.709.615c0 0 .663.236.663-.568v-4.92s.142-.569-.758-.569c0 0-.708-.046-.708.57v1.04h-.332v-1.04s0-.663-.756-.663c-.757 0-.71.569-.71.569zm-28.786-11.004c-.716 0-1.297.579-1.297 1.296 0 .716.306 1.034 1.021 1.034.716 0 1.296-.582 1.296-1.298 0-.715-.303-1.032-1.02-1.032zm55.135 1.638.377.234.947-.992s.946-.141.852.568c0 0 1.323.71.661 1.94l.237.282 1.181-1.181-2.174-1.846s-.57-.235.189-1.088c0 0 .33-.708 1.23-.188l.283.283.472-.331s.804-.095.758.615l-.19.474 2.224 1.845s.379.613-.238 1.23c0 0-.709 1.04-1.228.377l-.663-.521-3.358 3.549s-.899.236-.71-.758l.427-.518s-1.04.662-1.562.283c0 0-1.183-.52-.756-1.278 0 0-1.09.237-.568-.71l.899-1.04-.331-.33zm1.572 1.356c-.252-.23-.703-.145-1.013.19-.308.336-.356.793-.108 1.025.25.23.704.143 1.01-.191.311-.336.358-.796.11-1.024" style="fill:#083388;fill-opacity:1;fill-rule:evenodd;stroke:none;stroke-width:.0352778" transform="matrix(1.9519 0 0 1.95188 -108.32 -167.144)"/></g></g></svg>