<svg xmlns="http://www.w3.org/2000/svg" width="112" height="112" overflow="hidden"><defs><clipPath id="a"><path d="M584 304h112v112H584z"/></clipPath></defs><g clip-path="url(#a)" transform="translate(-584 -304)"><path fill="#004E96" d="M640 307.151c-29.19-.006-52.858 23.654-52.864 52.844-.005 29.191 23.654 52.859 52.844 52.864 29.191.005 52.859-23.654 52.864-52.844v-.02c0-29.185-23.659-52.844-52.844-52.844Zm0 82.17c-16.196.006-29.33-13.12-29.336-29.316-.005-16.196 13.12-29.331 29.316-29.336 16.197-.005 29.331 13.12 29.336 29.316v.01c0 16.193-13.124 29.321-29.316 29.326Z"/><path fill="#004E96" d="M640 416c-30.931.005-56.009-25.064-56.015-55.995-.005-30.931 25.065-56.009 55.995-56.015 30.931-.005 56.01 25.065 56.015 55.995v.01C695.962 390.908 670.913 415.962 640 416Zm0-110.518c-30.107-.006-54.518 24.396-54.523 54.503-.006 30.107 24.396 54.518 54.503 54.524 30.107.005 54.518-24.397 54.524-54.504v-.01c-.033-30.089-24.414-54.475-54.504-54.513Z"/><path fill="#FFF" d="M604.451 360.153a4.119 4.119 0 0 0 1.551-3.21 7.182 7.182 0 0 0-.326-2.568l-7.28-.445-.207 3.29 2.163.138.069-1.116 3.299.207c.035.156.035.318 0 .474-.069 1.126-1.333 2.203-4.603 1.976-3.546-.228-4.691-1.591-4.593-3.23a2.77 2.77 0 0 1 .386-1.383l-2.233-.504a4.442 4.442 0 0 0-.523 1.976c-.158 2.627 1.728 5.284 6.667 5.64a8.04 8.04 0 0 0 5.63-1.245ZM606.832 351.412l-2.815-1.482.661-2.104 3.141.435.692-2.213-13.74-1.837-.889 2.736 12.248 6.647Zm-4.712-2.312-2.588-1.294a55.26 55.26 0 0 0-2.825-1.353v-.049c.879.158 2.242.415 3.072.543l2.845.484ZM602.505 343.51c3.428 1.847 6.658 1.886 8.149-.899a4.551 4.551 0 0 0 .593-1.768l-2.084-.85c-.062.386-.185.76-.366 1.107-.691 1.284-2.341 1.659-5.215.108-2.874-1.551-3.536-3.289-2.904-4.474.174-.348.436-.645.761-.86l-1.768-1.412c-.486.316-.87.765-1.107 1.294-1.136 2.084-.582 5.294 3.941 7.754ZM613.301 338.591l-4.326-3.734 1.64-1.887 4.316 3.734 1.571-1.807-10.332-8.93-1.561 1.798 4.139 3.586-1.64 1.886-4.138-3.575-1.561 1.807 10.332 8.929 1.56-1.807ZM619.741 332.645c1.877-1.383 1.976-4.04-1.106-8.179-1.867-2.499-4.692-4.939-7.072-3.161-2.193 1.63-1.343 5.008.869 8.001 2.213 2.993 5.067 5.008 7.309 3.339Zm-6.914-9.414c.879-.652 2.43.889 3.852 2.815 1.65 2.233 2.549 4.09 1.729 4.692-.82.603-2.143-.375-3.951-2.874-1.808-2.499-2.361-4.109-1.6-4.633ZM624.828 329.306l-1.234-2.805c-1.067-2.519-2.055-4.415-2.677-5.64.76.987 1.975 2.37 2.815 3.259l3.813 3.951 1.975-.879-5.462-12.485-1.916.85 1.224 2.755c.988 2.302 2.124 4.406 2.766 5.69a74.591 74.591 0 0 0-2.815-3.122l-3.892-4.128-1.975.879 5.511 12.495ZM636.247 326.135c2.341-.257 3.328-2.281 2.963-5.768l-.988-8.356-2.37.266.987 8.821c.227 2.054-.197 2.647-.889 2.726-.691.079-1.225-.474-1.452-2.469l-.987-8.821-2.371.267.938 8.376c.405 3.408 1.62 5.255 4.169 4.958ZM643.329 316.544c.148 1.235.503 3.033.79 4.228l1.284 5.363 2.173.247 1.62-13.561-2.084-.238-.336 2.964c-.287 2.489-.385 4.869-.474 6.301a71.7 71.7 0 0 0-.86-4.109l-1.284-5.531-2.173-.247-1.62 13.611 2.085.237.345-3.042c.307-2.736.474-4.84.534-6.223ZM648.709 326.823l3.875-13.099 2.292.678-3.875 13.099ZM655.873 329.563l8.337-11.181-2.371-1.107-3.24 4.939a142.106 142.106 0 0 0-2.568 4.099c.533-1.521.988-3.131 1.452-4.553l1.709-5.71-2.42-1.185-3.329 13.552ZM662.59 333.968l1.343-1.877-2.558-1.847 2.153-2.993 2.262 1.63 1.294-1.797-2.272-1.62 1.837-2.559 2.4 1.729 1.354-1.877-4.346-3.121-7.971 11.092 4.504 3.24ZM664.921 336.349l4.03-3.704.247.266c.533.583.424 1.195-.672 2.489a18.793 18.793 0 0 0-1.976 2.667l1.69 1.847a23.425 23.425 0 0 1 2.212-3.072c.929-1.175 1.274-2.054.988-2.963a3.674 3.674 0 0 0 3.793-.899 3.693 3.693 0 0 0 1.432-2.637 4.482 4.482 0 0 0-1.472-3.111 12.978 12.978 0 0 0-1.975-1.749l-9.907 9.137Zm8.554-7.794c.175.093.33.221.454.376.681.8.365 1.659-.504 2.449-.869.79-1.975.988-2.667.237l-.296-.326ZM674.927 339.776c-.149 1.274-.307 1.975-1.166 2.479a1.49 1.49 0 0 1-2.163-.721 4.207 4.207 0 0 1-.534-1.975l-2.173.82c.038.817.271 1.613.682 2.321a3.881 3.881 0 0 0 5.591 1.501 4.485 4.485 0 0 0 2.311-3.852c.138-1.581.326-2.114 1.037-2.509a1.393 1.393 0 0 1 1.976.622c.277.478.401 1.03.355 1.581l2.183-.79a3.95 3.95 0 0 0-5.926-3.319 4.658 4.658 0 0 0-2.173 3.842ZM671.759 346.693l12.755-4.891.856 2.232-12.755 4.891ZM684.083 348.113l-10.885 2.666.563 2.322 10.895-2.667.513 2.133 2.381-.583-1.6-6.558-2.381.583.514 2.104ZM674.304 356.558l.158 2.38 5.354-.355 8.494 2.192-.167-2.469-3.24-.514a37.964 37.964 0 0 0-2.963-.365 35.942 35.942 0 0 0 2.844-.85l3.2-.987-.266-2.638-8.228 3.26ZM660.565 388.778c.299.483.401 1.063.286 1.62a2.736 2.736 0 0 1-1.086 1.511l1.126 1.59 1.758-1.244 4.781 6.835 1.521-1.116-7.063-10.115ZM670.126 384.274c-1.669-.988-3.536-1.077-4.86.286-1.323 1.363-1.185 3.734.524 5.393 1.709 1.66 3.951 1.976 5.215.613a2.963 2.963 0 0 0 .909-2.292c.408.418.742.902.988 1.432a1.887 1.887 0 0 1 0 2.351 1.778 1.778 0 0 1-2.351 0l-1.205 1.235a3.713 3.713 0 0 0 4.938.108c1.196-1.224 1.206-2.963.267-4.691a15.59 15.59 0 0 0-4.425-4.435Zm-.336 4.573a1.826 1.826 0 0 1-2.667-.257c-.918-.899-.987-1.916-.286-2.627.701-.711 1.709-.662 2.627.237a1.827 1.827 0 0 1 .326 2.647ZM679.648 379.928a3.387 3.387 0 0 0-3.269-.119 3.024 3.024 0 0 0-1.601-2.479 3.319 3.319 0 1 0-3.23 5.768l.988-1.55a1.492 1.492 0 0 1-.711-2.173 1.402 1.402 0 0 1 2.074-.376c.435.258.707.72.721 1.225a2.832 2.832 0 0 1-.503 1.462l1.698 1.047c.232-.42.525-.803.87-1.136a1.738 1.738 0 1 1-.069 2.746l-.988 1.58a3.625 3.625 0 1 0 4.04-5.995ZM683.559 371.305a15.597 15.597 0 0 0-5.926-2.154c-1.976-.207-3.655.554-4.267 2.351-.613 1.798.543 3.882 2.795 4.653 2.252.77 4.366.079 4.939-1.699a2.965 2.965 0 0 0-.207-2.45 5.12 5.12 0 0 1 1.57.84c.672.523 1.274 1.185.988 2.153a1.769 1.769 0 0 1-2.065 1.106l-.582 1.59a3.704 3.704 0 0 0 4.514-2.044c.572-1.61-.188-3.23-1.759-4.346Zm-4.237 2.123a1.817 1.817 0 0 1-2.519.909c-1.215-.415-1.709-1.304-1.383-2.242.326-.938 1.245-1.334 2.47-.919 1.225.415 1.748 1.334 1.432 2.252ZM597.132 367.877a1.619 1.619 0 1 0 0-.02v.02ZM658.244 396.235a1.61 1.61 0 1 0 1.61 1.61v-.01a1.61 1.61 0 0 0-1.61-1.6ZM680.112 364.855a1.61 1.61 0 1 0 1.63-1.59l-.02-.001a1.61 1.61 0 0 0-1.61 1.591ZM604.876 383.681l1.936-.978-.721-1.551.02-.009 4.938-2.43-.839-1.808-12.831 6.174.899 1.926 5.867-2.894.731 1.57ZM608.412 376.105l-2.677-5.808-1.857.81 1.679 3.605a7.341 7.341 0 0 1-2.587.455 9.77 9.77 0 0 1-5.927-2.055l-.563 2.055a11.011 11.011 0 0 0 6.569 2.123 12.49 12.49 0 0 0 5.363-1.185ZM625.777 396.917l-.02-.01-.85-.425v-.02l2.272-4.701-1.719-.86-6.341 12.752 1.867.929 2.884-5.976.889.444-.01.02-2.844 5.976 1.866.938 5.976-12.939-1.718-.859-2.252 4.731ZM620.186 400.186l.879-1.758h-.099a16.187 16.187 0 0 1-2.39-.899l-.603-.306 2.648-5.028 2.271 1.146.919-1.807-4.06-2.035-4.632 8.573 1.659.83c1.025.526 2.105.937 3.22 1.225ZM633.076 402.715c.247.014.494.014.741 0 1.768 0 3.042-.81 3.18-1.976.139-1.165-1.205-2.449-3.279-2.686a5.023 5.023 0 0 0-.672 0c-1.481 0-3.062.582-3.259 1.896-.057.488.09.977.405 1.353a4.313 4.313 0 0 0 2.884 1.413Zm-1.116-2.548c.049-.405.642-.544 1.175-.544h.366c.461.018.901.196 1.244.504a.483.483 0 0 1 .099.336c0 .365-.474.583-1.146.583h-.375a2.053 2.053 0 0 1-1.264-.524.452.452 0 0 1-.099-.355ZM630.103 404.927l7.457.87-.01.019-.266 2.638 2.202.247.425-4.593-9.532-1.117-.276 1.936ZM640.454 398.201l.336-3.675-1.975-.237-.929 9.038 2.075.247.296-3.24h.029l1.571.188.178-2.114-1.581-.187v-.02ZM637.817 396.364l-7.714-.909-.267 1.808 7.784.908.197-1.807ZM631.91 395.119l4.218.494.208-1.758-4.179-.484-.247 1.748ZM650.855 404.078v-.02l-.918-4.366-2.025.405.879 4.396-.03.01-1.057.207v-.02l-.849-4.375-2.035.405.81 4.415h-.02l-2.538.513.336 1.996 12.534-2.519-.454-1.976-4.633.929Z"/><path fill="#FFF" d="M650.411 396.383c.326 1.88.511 3.782.553 5.69l1.975-.405a38.424 38.424 0 0 0-.898-7.714l-9.453 1.906.355 1.975 7.458-1.501ZM606.12 391.188l1.709-1.659-1.471-1.492-3.211 3.062 7.053 7.122 1.393-1.472-5.492-5.541.019-.02ZM613.104 381.152l-1.294 1.245 2.963 2.993 1.274-1.264-2.943-2.974ZM618.171 386.496l-3.032 3.112-1.373-1.373-1.393 1.402 1.383 1.393-2.805 2.884 1.481 1.501 7.141-7.506-1.402-1.413Z"/><path fill="#FFF" d="m612.225 386.417 1.709 1.719 1.372-1.383-4.869-4.939-1.422 1.334 1.659 1.709a3.095 3.095 0 0 1-1.778.464 7.809 7.809 0 0 1-2.785-.583l-.455 2.232a6.914 6.914 0 0 0 2.796.583 4.85 4.85 0 0 0 1.234-.158 6.08 6.08 0 0 0 .603 3.734l1.975-.682c-.266-.563-.938-2.825-.089-4.04Z"/><path fill="#004E96" d="M636.434 373.043c-5.057 0-10.993-3.951-7.418-12.623 4.07-9.878 16.713-16.268 21.899-16.268 1.293 0 2.064.464 1.975 1.383-.069 1.363-1.156 3.091.178 4.178 1.669 1.353 6.568-.84 7.042-4.307.307-2.291-2.825-4.642-9.136-4.642-14.52 0-28.852 8.475-33.129 19.834-3.813 10.144 2.203 18.767 13.739 18.767 10.411 0 17.395-6.342 19.824-14.076l.603-1.975h-12.92c-.632 2.558.119 5.551 4.09 5.551a6.302 6.302 0 0 0 3.121-.8c.099 0 .138 0 .079.079a13.039 13.039 0 0 1-9.947 4.899Z"/><path fill="#80C341" d="M650.273 374.465c3.575.633 6.054-.869 7.21-3.694.524-1.338.931-2.72 1.215-4.128.494-2.411-2.252-3.171-5.176-3.22Z"/><path fill="#00B9F2" d="M666.165 362.198c.534-3.131-.76-5.413-3.644-5.719a21.04 21.04 0 0 0-4.03-.099c-2.539.207-3.388 1.393-4.603 5.818Z"/><path fill="#FCAF16" d="M648.396 355.165a21.414 21.414 0 0 0-1.176 3.852c-.395 2.153 1.828 3.121 5.196 3.181l3.092-10.51c-3.655-.77-6.065.948-7.112 3.477Z"/></g></svg>