<svg xmlns="http://www.w3.org/2000/svg" width="184.20586mm" height="184.20805mm" viewBox="0 0 184.20586 184.20805"><path d="M0 0c0-46.229-37.476-83.706-83.703-83.706-46.225 0-83.701 37.477-83.701 83.706 0 46.224 37.476 83.7 83.701 83.7C-37.476 83.7 0 46.224 0 0" style="fill:#2270c1;fill-opacity:1;fill-rule:nonzero;stroke:none" transform="matrix(1.10037 0 0 -1.10037 184.206 92.1)"/><text x="-202.77794" y="142.31955" style="font-variant:normal;font-weight:700;font-stretch:normal;font-size:5.77561px;font-family:Arial;writing-mode:lr-tb;fill:#fff;fill-opacity:1;fill-rule:nonzero;stroke:none;stroke-width:.352778" transform="rotate(-99.997 -444.769 1.589) scale(3.11915)"><tspan x="-202.77794" y="142.31955" style="stroke-width:.352778">C</tspan></text><text x="-170.98755" y="174.71931" style="font-variant:normal;font-weight:700;font-stretch:normal;font-size:5.77571px;font-family:Arial;writing-mode:lr-tb;fill:#fff;fill-opacity:1;fill-rule:nonzero;stroke:none;stroke-width:.352778" transform="rotate(-89.977 -479.935 43.802) scale(3.11915)"><tspan x="-170.98755" y="174.71931" style="stroke-width:.352778">A</tspan></text><text x="-136.42995" y="199.50386" style="font-variant:normal;font-weight:700;font-stretch:normal;font-size:5.77578px;font-family:Arial;writing-mode:lr-tb;fill:#fff;fill-opacity:1;fill-rule:nonzero;stroke:none;stroke-width:.352778" transform="rotate(-80.642 -518.727 90.367) scale(3.11915)"><tspan x="-136.42995" y="199.50386" style="stroke-width:.352778">T</tspan></text><text x="-98.984779" y="218.38686" style="font-variant:normal;font-weight:700;font-stretch:normal;font-size:5.77564px;font-family:Arial;writing-mode:lr-tb;fill:#fff;fill-opacity:1;fill-rule:nonzero;stroke:none;stroke-width:.352778" transform="rotate(-71.319 -565.713 146.768) scale(3.11915)"><tspan x="-98.984779" y="218.38686" style="stroke-width:.352778">H</tspan></text><text x="-53.950581" y="231.93254" style="font-variant:normal;font-weight:700;font-stretch:normal;font-size:5.77575px;font-family:Arial;writing-mode:lr-tb;fill:#fff;fill-opacity:1;fill-rule:nonzero;stroke:none;stroke-width:.352778" transform="rotate(-60.903 -632.712 227.193) scale(3.11915)"><tspan x="-53.950581" y="231.93254" style="stroke-width:.352778">O</tspan></text><text x="-10.261357" y="236.98639" style="font-variant:normal;font-weight:700;font-stretch:normal;font-size:5.77585px;font-family:Arial;writing-mode:lr-tb;fill:#fff;fill-opacity:1;fill-rule:nonzero;stroke:none;stroke-width:.352778" transform="rotate(-51.304 -715.869 327.013) scale(3.11915)"><tspan x="-10.261357" y="236.98639" style="stroke-width:.352778">L</tspan></text><text x="18.621346" y="236.39848" style="font-variant:normal;font-weight:700;font-stretch:normal;font-size:5.77568px;font-family:Arial;writing-mode:lr-tb;fill:#fff;fill-opacity:1;fill-rule:nonzero;stroke:none;stroke-width:.352778" transform="rotate(-45.146 -786.362 411.631) scale(3.11915)"><tspan x="18.621346" y="236.39848" style="stroke-width:.352778">I</tspan></text><text x="48.701862" y="232.11348" style="font-variant:normal;font-weight:700;font-stretch:normal;font-size:5.77592px;font-family:Arial;writing-mode:lr-tb;fill:#fff;fill-opacity:1;fill-rule:nonzero;stroke:none;stroke-width:.352778" transform="rotate(-38.161 -892.225 538.708) scale(3.11915)"><tspan x="48.701862" y="232.11348" style="stroke-width:.352778">C</tspan></text><text x="129.18448" y="201.60413" style="font-variant:normal;font-weight:700;font-stretch:normal;font-size:5.77547px;font-family:Arial;writing-mode:lr-tb;fill:#fff;fill-opacity:1;fill-rule:nonzero;stroke:none;stroke-width:.352778" transform="rotate(-19.118 -1556.736 1336.375) scale(3.11915)"><tspan x="129.18448" y="201.60413" style="stroke-width:.352778">S</tspan></text><text x="164.81674" y="176.44951" style="font-variant:normal;font-weight:700;font-stretch:normal;font-size:5.77582px;font-family:Arial;writing-mode:lr-tb;fill:#fff;fill-opacity:1;fill-rule:nonzero;stroke:none;stroke-width:.352778" transform="rotate(-9.468 -2895.143 2942.984) scale(3.11915)"><tspan x="164.81674" y="176.44951" style="stroke-width:.352778">A</tspan></text><text x="196.96127" y="144.3382" style="font-variant:normal;font-weight:700;font-stretch:normal;font-size:5.776px;font-family:Arial;writing-mode:lr-tb;fill:#fff;fill-opacity:1;fill-rule:nonzero;stroke:none;stroke-width:.352778" transform="rotate(.559 44259.171 -53656.602) scale(3.11915)"><tspan x="196.96127" y="144.3382" style="stroke-width:.352778">N</tspan></text><text x="223.90025" y="105.23847" style="font-variant:normal;font-weight:700;font-stretch:normal;font-size:5.77575px;font-family:Arial;writing-mode:lr-tb;fill:#fff;fill-opacity:1;fill-rule:nonzero;stroke:none;stroke-width:.352778" transform="rotate(11.069 1988.762 -2919.566) scale(3.11915)"><tspan x="223.90025" y="105.23847" style="stroke-width:.352778">G</tspan></text><text x="242.2393" y="66.999229" style="font-variant:normal;font-weight:700;font-stretch:normal;font-size:5.7754px;font-family:Arial;writing-mode:lr-tb;fill:#fff;fill-opacity:1;fill-rule:nonzero;stroke:none;stroke-width:.352778" transform="rotate(20.372 951.929 -1674.977) scale(3.11915)"><tspan x="242.2393" y="66.999229" style="stroke-width:.352778">J</tspan></text><text x="250.86006" y="41.917149" style="font-variant:normal;font-weight:700;font-stretch:normal;font-size:5.77568px;font-family:Arial;writing-mode:lr-tb;fill:#fff;fill-opacity:1;fill-rule:nonzero;stroke:none;stroke-width:.352778" transform="rotate(26.168 676.543 -1344.411) scale(3.11915)"><tspan x="250.86006" y="41.917149" style="stroke-width:.352778">I</tspan></text><text x="257.65753" y="-30.745443" style="font-variant:normal;font-weight:700;font-stretch:normal;font-size:5.77532px;font-family:Arial;writing-mode:lr-tb;fill:#fff;fill-opacity:1;fill-rule:nonzero;stroke:none;stroke-width:.352778" transform="rotate(42.341 301.316 -893.996) scale(3.11915)"><tspan x="257.65753" y="-30.745443" style="stroke-width:.352778">C</tspan></text><text x="251.74239" y="-77.666908" style="font-variant:normal;font-weight:700;font-stretch:normal;font-size:5.77571px;font-family:Arial;writing-mode:lr-tb;fill:#fff;fill-opacity:1;fill-rule:nonzero;stroke:none;stroke-width:.352778" transform="rotate(52.778 177.746 -745.666) scale(3.11915)"><tspan x="251.74239" y="-77.666908" style="stroke-width:.352778">O</tspan></text><text x="239.2919" y="-119.72035" style="font-variant:normal;font-weight:700;font-stretch:normal;font-size:5.77554px;font-family:Arial;writing-mode:lr-tb;fill:#fff;fill-opacity:1;fill-rule:nonzero;stroke:none;stroke-width:.352778" transform="rotate(62.489 97.68 -649.556) scale(3.11915)"><tspan x="239.2919" y="-119.72035" style="stroke-width:.352778">L</tspan></text><text x="222.18559" y="-154.4597" style="font-variant:normal;font-weight:700;font-stretch:normal;font-size:5.77564px;font-family:Arial;writing-mode:lr-tb;fill:#fff;fill-opacity:1;fill-rule:nonzero;stroke:none;stroke-width:.352778" transform="rotate(71.034 43.764 -584.836) scale(3.11915)"><tspan x="222.18559" y="-154.4597" style="stroke-width:.352778">L</tspan></text><text x="199.07059" y="-187.416" style="font-variant:normal;font-weight:700;font-stretch:normal;font-size:5.77561px;font-family:Arial;writing-mode:lr-tb;fill:#fff;fill-opacity:1;fill-rule:nonzero;stroke:none;stroke-width:.352778" transform="rotate(79.904 -1.438 -530.577) scale(3.11915)"><tspan x="199.07059" y="-187.416" style="stroke-width:.352778">E</tspan></text><text x="167.01903" y="-219.8997" style="font-variant:normal;font-weight:700;font-stretch:normal;font-size:5.77571px;font-family:Arial;writing-mode:lr-tb;fill:#fff;fill-opacity:1;fill-rule:nonzero;stroke:none;stroke-width:.352778" transform="rotate(89.931 -43.435 -480.164) scale(3.11915)"><tspan x="167.01903" y="-219.8997" style="stroke-width:.352778">G</tspan></text><text x="130.03941" y="-246.56674" style="font-variant:normal;font-weight:700;font-stretch:normal;font-size:5.77596px;font-family:Arial;writing-mode:lr-tb;fill:#fff;fill-opacity:1;fill-rule:nonzero;stroke:none;stroke-width:.352778" transform="rotate(100.049 -78.945 -437.538) scale(3.11915)"><tspan x="130.03941" y="-246.56674" style="stroke-width:.352778">E</tspan></text><path d="M0 0a3.376 3.376 0 1 0-6.753 0A3.378 3.378 0 0 0 0 0" style="fill:#fff;fill-opacity:1;fill-rule:nonzero;stroke:none" transform="matrix(1.10037 0 0 -1.10037 22.08 116.965)"/><path d="M0 0a3.38 3.38 0 0 0-3.378-3.381A3.38 3.38 0 0 0-6.753 0a3.375 3.375 0 0 0 3.375 3.375A3.376 3.376 0 0 0 0 0" style="fill:#fff;fill-opacity:1;fill-rule:nonzero;stroke:none" transform="matrix(1.10037 0 0 -1.10037 169.982 116.965)"/><path d="M0 0c0-32.114-26.033-58.146-58.146-58.146-32.112 0-58.144 26.032-58.144 58.146 0 32.108 26.032 58.143 58.144 58.143C-26.033 58.143 0 32.108 0 0" style="fill:#fff;fill-opacity:1;fill-rule:nonzero;stroke:none" transform="matrix(1.10037 0 0 -1.10037 156.083 92.1)"/><path d="M0 0c6.047 0 10.957 4.905 10.957 10.954 0 6.047-4.91 10.951-10.957 10.951-6.05 0-10.954-4.904-10.954-10.951C-10.954 4.905-6.05 0 0 0" style="fill:#12af98;fill-opacity:1;fill-rule:nonzero;stroke:none" transform="matrix(1.10037 0 0 -1.10037 55.432 104.181)"/><path d="M0 0c9.954-1.041 17.715-9.46 17.715-19.69 0-10.225-7.752-18.639-17.698-19.691l-.006.01A91.932 91.932 0 0 1 11.19-67.444c8.435 13.932 13.284 30.28 13.284 47.754 0 17.484-4.855 33.835-13.294 47.774l.01-.023A91.699 91.699 0 0 1 .02.015Z" style="fill:#2270c1;fill-opacity:1;fill-rule:nonzero;stroke:none" transform="matrix(1.10037 0 0 -1.10037 57.735 70.393)"/><path d="M0 0c9.952-1.041 17.713-9.46 17.713-19.69 0-10.225-7.748-18.639-17.698-19.691v.01a91.73 91.73 0 0 1 11.179-28.073c8.429 13.932 13.283 30.28 13.283 47.754 0 17.484-4.857 33.835-13.294 47.774l.011-.023A91.837 91.837 0 0 1 .018.015Z" style="fill:#2270c1;fill-opacity:1;fill-rule:nonzero;stroke:none" transform="matrix(1.10037 0 0 -1.10037 82.456 70.393)"/><path d="M0 0c9.952-1.041 17.713-9.46 17.713-19.69 0-10.225-7.754-18.639-17.701-19.691l-.002.01a91.932 91.932 0 0 1 11.179-28.073h.002c8.432 13.932 13.287 30.28 13.287 47.754 0 17.484-4.861 33.835-13.298 47.774l.009-.023A91.864 91.864 0 0 1 .012.015Z" style="fill:#2270c1;fill-opacity:1;fill-rule:nonzero;stroke:none" transform="matrix(1.10037 0 0 -1.10037 107.28 70.393)"/><path d="m0 0-1.564-.926 3.005-5.082s-5.947-4.281-11.216 1.439l-.646-1.654s5.493-7.419 14.908-1.359z" style="fill:#fff;fill-opacity:1;fill-rule:nonzero;stroke:none" transform="matrix(1.10037 0 0 -1.10037 30.579 121.48)"/><path d="m0 0 1.756-2.976-5.667-3.356 1.261-2.129-1.53-.909-1.269 2.144-8.865-5.251-1.479 2.5L-1.216-1.35s.531.315.273.793z" style="fill:#fff;fill-opacity:1;fill-rule:nonzero;stroke:none" transform="matrix(1.10037 0 0 -1.10037 37.921 130.776)"/><path d="m0 0 .329-1.806-3.071-.561.566-3.1s.592-4.036 5.088-4.966l-.961-1.712s-2.874.333-4.919 2.774c0 0-.18-2.758-3.579-4.27l-1.567 1.136s3.535 1.741 3.085 6.462l-.573 3.123-3.15-.576-.338 1.839z" style="fill:#fff;fill-opacity:1;fill-rule:nonzero;stroke:none" transform="matrix(1.10037 0 0 -1.10037 104.575 159.213)"/><path d="m0 0-2.902-.533-3.057 16.677s-.148.636-.891.501l-.193 1.063 3.682.676L-.006.041z" style="fill:#fff;fill-opacity:1;fill-rule:nonzero;stroke:none" transform="matrix(1.10037 0 0 -1.10037 113.929 177.219)"/><path d="m0 0-.46 1.138L6.884 4.12l.712-1.754L3.595.738l3.013-7.426 4.413 1.791s.984.591.836 1.035L8.604 4.13s-.294.662-.919.345l-.411.999 2.997 1.219 2.185-5.374 1.295.529-1.516 3.729s-.213.591-1.084.277l-.42 1.027 3.241 1.317 7.022-17.281-2.376-.966L14.505.073l-1.322-.539 4.124-10.149-2.353-.953-2.373 5.829s.16-.304-.951-.817L5.663-8.981s-1.005-.546-1.623.746L.834-.354S.604.217 0 0" style="fill:#fff;fill-opacity:1;fill-rule:nonzero;stroke:none" transform="matrix(1.10037 0 0 -1.10037 114.016 158.359)"/><path d="m0 0 10.34-9.639-1.015-1.087-7.414 6.919-.937-1.002 7.422-6.92-1.056-1.13-7.42 6.917-.953-1.023 7.396-6.898-1.012-1.084-3.58 3.338-.677-.727 4.944-4.611-1.192-1.279-12.32 11.488 1.168 1.263 5.099-4.756.718.771-2.798 2.601s-.661.615.027 1.692l2.918 3.135s.334.512-.414 1.221z" style="fill:#fff;fill-opacity:1;fill-rule:nonzero;stroke:none" transform="matrix(1.10037 0 0 -1.10037 41.91 138.134)"/><path d="m0 0 .712.77 7.452-6.947.926.99-7.357 6.86.964 1.032 9.372-8.736-2.966-3.175-6.71 6.259-.926-.991 6.768-6.311-1.034-1.108-8.221 7.664s-.523.629-.011 1.327L.201-1.042S.573-.574 0 0" style="fill:#fff;fill-opacity:1;fill-rule:nonzero;stroke:none" transform="matrix(1.10037 0 0 -1.10037 31.564 150.666)"/><path d="m0 0 10.982-5.403-2.994-6.075L5.4-10.206l2.172 4.402-8.395 4.132z" style="fill:#fff;fill-opacity:1;fill-rule:nonzero;stroke:none" transform="matrix(1.10037 0 0 -1.10037 53.491 162.87)"/><path d="m0 0 .454.921 6.06-2.985.805 1.627-5.827 2.87.782 1.59 8.359-4.117-2.368-4.805-5.059 2.492-.793-1.606L9.042-7.28s.92-.401 1.182.131l2.614 5.314s.281.569-.353.854l.504 1.022 3.216-1.583-4.89-9.924-2.569 1.265.581 1.176s-.334-.178-1.088.168L-.195-4.704s-.86.23-.388 1.189L.569-1.182S.875-.504 0 0" style="fill:#fff;fill-opacity:1;fill-rule:nonzero;stroke:none" transform="matrix(1.10037 0 0 -1.10037 53.617 155.392)"/><path d="M0 0c-1.113.116-1.884 1.387-1.733 2.833C-1.58 4.284-.563 5.364.55 5.248c1.107-.117 1.884-1.385 1.733-2.836C2.131.966 1.107-.117 0 0m.748 7.136c-2.652.277-5.009-1.52-5.269-4.011-.261-2.489 1.672-4.73 4.323-5.009C2.447-2.161 4.813-.369 5.074 2.12 5.335 4.61 3.391 6.858.748 7.136" style="fill:#fff;fill-opacity:1;fill-rule:nonzero;stroke:none" transform="matrix(1.10037 0 0 -1.10037 81.646 177.892)"/><path d="m0 0 .112 1.066L3.917.667l-.28-2.675S3.52-6.503 7.683-7.221L5.894-8.59S2.196-7.353 1.741-5.02c0 0-.824-2.373-4.591-2.661l-1.418 1.752s3.972-.48 4.956 4.206l.11 1.039S.945-.208 0 0" style="fill:#fff;fill-opacity:1;fill-rule:nonzero;stroke:none" transform="matrix(1.10037 0 0 -1.10037 75.756 159.952)"/><path d="m0 0 .113 1.089L3.806.703l-.408-3.898 2.287-.24-.189-1.798-2.217.232-.491-4.7-2.937.308.908 8.675S.889-.114 0 0" style="fill:#fff;fill-opacity:1;fill-rule:nonzero;stroke:none" transform="matrix(1.10037 0 0 -1.10037 85.435 160.478)"/><path d="m0 0-.695.785 2.914 2.589L4.768.509l1.651 1.47L7.745.487 6.091-.985l3.345-3.762L7.219-6.72 1.105.159S.619.663 0 0" style="fill:#fff;fill-opacity:1;fill-rule:nonzero;stroke:none" transform="matrix(1.10037 0 0 -1.10037 141.891 140.564)"/><path d="M0 0c-.627-.562-1.822-.243-2.67.71-.848.956-1.025 2.18-.4 2.739.636.56 1.83.241 2.677-.711C.451 1.786.635.557 0 0m-.156 8.519L-3.23 5.785l-1.549 1.744-2.522-2.244.675-.763c.52.435.806.054.806.054l.561-.629-3.201-2.848 1.218-1.367 1.535 1.37c.103-.807.406-1.555.988-2.208C-3.176-2.84-.504-2.981 1.25-1.421 3 .13 3.173 2.804 1.629 4.539 1.053 5.188.348 5.575-.436 5.773c-.005.004-.005.001-.005.004l-.03-.022L1.08 7.13Z" style="fill:#fff;fill-opacity:1;fill-rule:nonzero;stroke:none" transform="matrix(1.10037 0 0 -1.10037 142.037 151.117)"/><path d="m0 0 1.246-1.404L8.44 4.993l3.402-3.819 2.255 2-4.653 5.229z" style="fill:#fff;fill-opacity:1;fill-rule:nonzero;stroke:none" transform="matrix(1.10037 0 0 -1.10037 142.468 155.623)"/><path d="m0 0-8.145-13.5 1.44-.868 8.143 13.5z" style="fill:#fff;fill-opacity:1;fill-rule:nonzero;stroke:none" transform="matrix(1.10037 0 0 -1.10037 167.824 127.964)"/><path d="m0 0 1.445-.873 5.352 8.872 5.521-3.332s1.656-1.299 1.887-2.123L15.504 4.7s-.085.981-1.777 2.302l-6.969 4.203z" style="fill:#fff;fill-opacity:1;fill-rule:nonzero;stroke:none" transform="matrix(1.10037 0 0 -1.10037 147.728 134.245)"/><path d="m0 0-.281-.466L.4-.878c.074.277.35.372.65.244l4.985-3.007 1.393 2.31L1.393 2.31z" style="fill:#fff;fill-opacity:1;fill-rule:nonzero;stroke:none" transform="matrix(1.10037 0 0 -1.10037 154.614 135.407)"/><path d="m0 0-.281-.468.682-.411c.074.278.35.371.649.245l4.985-3.007 1.395 2.31L1.395 2.31Z" style="fill:#fff;fill-opacity:1;fill-rule:nonzero;stroke:none" transform="matrix(1.10037 0 0 -1.10037 156.84 131.713)"/></svg>