<svg xmlns="http://www.w3.org/2000/svg" viewBox="0 0 131.752 97.715"><path d="M236.738 222.7c-18.317-7.69-40.293-11.586-60.282-11.586s-41.97 3.9-60.285 11.586c-1.194.591-1.771 1.117-1.771 2.471V287.2c0 1.355.577 1.88 1.771 2.472 18.315 7.689 40.29 11.588 60.285 11.588s41.965-3.9 60.282-11.588c1.192-.592 1.77-1.117 1.77-2.472v-62.031c0-1.354-.578-1.88-1.77-2.469Zm-18.086.987a3.6 3.6 0 0 1 4.52-2.781 3.42 3.42 0 0 1 1.394.724l.025.023-.391 1.091-.056-.063a2.426 2.426 0 0 0-1.2-.759 2.377 2.377 0 0 0-1.844.205 3.333 3.333 0 0 0-1.161 4.221 2.34 2.34 0 0 0 1.42 1.111 3.025 3.025 0 0 0 1.483.041l.082-.027-.249 1.134-.032.006a3.769 3.769 0 0 1-1.572-.153c-2.113-.586-3.06-2.46-2.419-4.775Zm-8.764-5.793.01-.048 1.043.21-1.5 7.436-1.043-.209Zm-12.319-1.975.006-.047 1.055.138-.857 6.488c.094.011 2.794.368 2.794.368l-.137 1.033-3.848-.508Zm-15.677 2.517a4.249 4.249 0 0 1 1.246-2.991 3.032 3.032 0 0 1 2.243-.755c1.967.1 3.206 1.743 3.086 4.085a4.259 4.259 0 0 1-1.228 3 3.279 3.279 0 0 1-4.434-.229 4.27 4.27 0 0 1-.913-3.112Zm-13.063-3.7s.1 3.034.1 3.13l3.123-.106c0-.093-.1-3.13-.1-3.13l1.015-.034h.049l.25 7.58-1.062.037-.114-3.409c-.093 0-3.031.1-3.125.1 0 .095.115 3.408.115 3.408l-1.065.035-.25-7.58Zm-2.029 10.475c3.4-.2 6.673-.3 9.675-.3 14.374 0 34.8 2.309 47.412 6.772H166.8Zm0 9.932h60.04c.009.144.015.283.018.407v1.713h-53.486v14.627h24.617v2.12H166.8Zm10.026 13.287v-2.123h50.032v2.123Zm50.032 3.46v2.12h-25.409v-2.12Zm-50.032-9.043v-2.123h50.032v2.123Zm21.16 14.624v13.287h-42.622v-2.124h35.23v-9.041h-35.23v-27.941h-26.217c9.092-3.2 22.208-5.289 34.2-6.206v32.025Zm-38.841-42.077.049-.006.115 1.035s-1.987.226-2.08.238l.733 6.5-1.056.12-.734-6.5-2.083.235-.117-1.036Zm-16.045 2.357 1.029-.2.032-.008 4.262 6.909-1.137.217-1.028-1.726-3.177.608c-.009.066-.317 1.985-.317 1.985l-1.1.209Zm-14.346 4.362a3.48 3.48 0 0 1 2.154-1.646 3.437 3.437 0 0 1 1.568-.1l.032.006.232 1.136-.08-.026a2.443 2.443 0 0 0-1.424-.025 2.377 2.377 0 0 0-1.471 1.13 3.043 3.043 0 0 0-.191 2.329 2.615 2.615 0 0 0 3.176 2.1 3.014 3.014 0 0 0 1.289-.733l.056-.066.376 1.1-.025.021a3.729 3.729 0 0 1-1.424.684 3.459 3.459 0 0 1-2.684-.255 4.1 4.1 0 0 1-1.852-2.574 4.029 4.029 0 0 1 .272-3.081ZM126.1 235.55c0-.133.01-.283.02-.437h25.78v24.48h-25.8Zm0 27.5h61.033v2.124H151.9v9.043h49.547v-16.746h25.412v17.693a4.5 4.5 0 0 1-.592 2.44 3.714 3.714 0 0 1-1.337 1.042c-6.295 2.362-14.753 4.154-23.483 5.354v-7.66h-75.241a7.6 7.6 0 0 1-.107-1.176Zm71.89 16.748v4.643a188.018 188.018 0 0 1-21.511 1.355c-13.513 0-32.338-2.047-45.055-6Zm-72.331 9.83a2.46 2.46 0 0 1-1.5-1.234 3.545 3.545 0 0 1 .044-2.73l1.425-4.15.017-.046 1 .346-1.395 4.063a2.775 2.775 0 0 0-.121 2.067 1.623 1.623 0 0 0 1.975.678 2.78 2.78 0 0 0 1.177-1.706l1.394-4.061 1 .344-1.439 4.2c-.679 2.001-1.953 2.792-3.578 2.232Zm8.425 2.5s-1.134-6.334-1.189-6.634l-1.683 5.8-1.022-.3 2.1-7.237.013-.047 1.338.388 1.149 6.484 1.65-5.671 1.018.3-2.114 7.285Zm4.406 1.162-1.032-.259 1.85-7.305.012-.048 1.03.26Zm3.778.894-.887-7.894-.007-.066 1.159.254s.6 6.52.623 6.751l3.437-5.864 1.093.238-4.171 6.853Zm10.077-4.712-2.766-.486c-.016.09-.347 1.97-.364 2.059l2.521.444-.18 1.025-2.519-.443c-.017.092-.4 2.244-.411 2.334.093.015 2.766.486 2.766.486l-.18 1.026-3.814-.669 1.307-7.424.008-.047 3.813.671Zm5.7 1.856a1.725 1.725 0 0 1-1.566 1.523 1.287 1.287 0 0 1 .5.813l.881 3.2-1.2-.162-.682-2.744c-.19-.733-.47-.771-.979-.84l-.526-.071-.45 3.294-1.054-.144 1.021-7.466v-.049l1.685.23a3.031 3.031 0 0 1 2.061.886 1.753 1.753 0 0 1 .331 1.1 3.1 3.1 0 0 1-.025.432Zm3.506 1.361a2.555 2.555 0 0 1 1.521 2.536c-.146 1.441-1.139 2.178-2.726 2.02a4.1 4.1 0 0 1-1.359-.452l-.033-.016.216-1.087.059.036a3.79 3.79 0 0 0 1.336.494 1.41 1.41 0 0 0 .995-.282 1.08 1.08 0 0 0 .39-.759c.072-.735-.471-1.093-1.1-1.506-.73-.479-1.559-1.022-1.431-2.305a2.017 2.017 0 0 1 2.407-1.857 4.109 4.109 0 0 1 1.422.415l.034.017-.256 1.068-.057-.03a2.671 2.671 0 0 0-1.209-.43 1.29 1.29 0 0 0-.915.21.88.88 0 0 0-.3.622c-.063.592.431.924 1.003 1.308Zm3.977 4.875-1.06-.078.552-7.516v-.048l1.061.077Zm6.94-6.191-2.093-.093-.291 6.537-1.062-.048.291-6.535-2.093-.095.046-.991v-.049l5.246.233Zm7.151-.924s-2.621 4.33-2.626 4.325l-.007 3.181h-1.066l.006-3.169-2.62-4.347-.045-.075h1.243l1.974 3.313 1.938-3.306h1.245Zm8.852 6.353a3.05 3.05 0 0 1-2.164 1c-2 .12-3.378-1.34-3.519-3.717-.139-2.342 1.088-3.994 3.052-4.112s3.382 1.379 3.522 3.719a4.263 4.263 0 0 1-.894 3.108Zm3.79.4-1.059.107-.764-7.546 3.613-.366h.049l.1 1.036-2.6.264c.009.091.2 1.988.211 2.08l2.487-.251.106 1.035-2.488.251c.007.095.342 3.394.342 3.394Zm12-1.607s-1.392.218-1.433.2l-3.428-3.073.551 3.539-1.051.164-1.165-7.5 1.049-.163.493 3.174c.337-.533 2.269-3.589 2.3-3.61l1.271-.2.107-.017-2.623 4.04 4.034 3.417Zm3.657-.587c-1.961.394-3.53-.863-4-3.2-.461-2.3.528-4.106 2.458-4.492s3.537.9 4 3.2c.469 2.339-.495 4.104-2.456 4.496Zm8.417-2.054-1.647-2.3a.909.909 0 0 0-1.222-.419l-.514.129.8 3.227-1.031.257-1.821-7.348 1.65-.411a3.032 3.032 0 0 1 2.242.061 1.987 1.987 0 0 1 .845 1.313 1.915 1.915 0 0 1 .058.464 1.712 1.712 0 0 1-.945 1.532 1.3 1.3 0 0 1 .765.567l2 2.646Zm2.635-.705-2.116-7.284 3.672-1.065.048-.014.289 1-2.7.784.583 2.008c.09-.025 2.456-.714 2.456-.714l.292 1-2.457.713c.027.088.637 2.188.662 2.276l2.7-.784.292 1Zm10.1-3.177-1.251-1.57-3.066 1.032c0 .066-.047 2.009-.047 2.009l-1.059.357.341-8.118.991-.336.032-.01 5.156 6.268Zm-44.044-67.6a1.881 1.881 0 0 0 1.406-.477 3.8 3.8 0 0 0 .218-4.664 1.973 1.973 0 0 0-2.711-.141 3.3 3.3 0 0 0-.935 2.294c-.062 1.334.426 2.916 2.028 2.996Zm39.749 66.028 2.41-.813-2.329-2.929c-.007.249-.079 3.617-.081 3.742Zm16.781-66.077a5.03 5.03 0 0 0-1.905-1.657c-18.572-8-41.68-12.449-63.188-12.449s-44.62 4.45-63.191 12.449a5.027 5.027 0 0 0-1.9 1.657 7.724 7.724 0 0 0-.784 3.718v62.071a7.727 7.727 0 0 0 .784 3.72 5 5 0 0 0 1.768 1.587c18.61 8.041 41.765 12.513 63.326 12.513s44.714-4.472 63.325-12.513a5.023 5.023 0 0 0 1.768-1.587 7.69 7.69 0 0 0 .781-3.72v-62.068a7.687 7.687 0 0 0-.784-3.718Zm-1.736 65.818a4.334 4.334 0 0 1-.35 2.123 2.652 2.652 0 0 1-1.082 1.092c-18.381 8.1-41.334 12.135-61.925 12.135s-43.546-4.033-61.926-12.135a2.641 2.641 0 0 1-1.082-1.092 4.3 4.3 0 0 1-.352-2.123v-62.058a4.308 4.308 0 0 1 .352-2.123 2.637 2.637 0 0 1 1.082-1.09c18.38-8.1 41.333-12.136 61.926-12.136s43.544 4.036 61.925 12.136a2.649 2.649 0 0 1 1.082 1.09 4.34 4.34 0 0 1 .35 2.123Zm-52.531 4.228a1.974 1.974 0 0 0-2.711.16 3.8 3.8 0 0 0 .254 4.664 2.015 2.015 0 0 0 2.755-.163 3.8 3.8 0 0 0-.3-4.661Zm-31.507-1.5s-.784-.107-.87-.12c-.013.091-.283 2.067-.3 2.157.086.013.765.106.765.106a1.551 1.551 0 0 0 1.161-.22 1.017 1.017 0 0 0 .386-.7 1.317 1.317 0 0 0 .012-.174c.005-.561-.409-.939-1.154-1.041Zm52.241-1.367a1.975 1.975 0 0 0-2.663.529 3.31 3.31 0 0 0-.34 2.455c.262 1.3 1.125 2.711 2.7 2.4a1.879 1.879 0 0 0 1.244-.808 3.8 3.8 0 0 0-.937-4.574Zm5.007-1.573-.852.212c.022.087.5 2.024.525 2.112l.75-.186c.729-.18 1.134-.6 1.134-1.135a1.217 1.217 0 0 0-.037-.292c-.163-.64-.717-.903-1.52-.703Zm-69.2-68.2c-.038.246-.567 3.569-.586 3.7l2.5-.48c-.071-.108-1.789-3-1.916-3.214Z" style="fill:#0c2e86" transform="translate(-110.585 -207.32)"/></svg>