<svg xmlns="http://www.w3.org/2000/svg" viewBox="0 0 207.594 207.595"><defs><radialGradient id="radial-gradient" cx="80.732" cy="27.48" r="20.248" gradientTransform="translate(-51.304 51.191) scale(1.936)" gradientUnits="userSpaceOnUse"><stop offset="0" stop-color="#595959"/><stop offset="0.994" stop-color="#d9d9d9"/></radialGradient><style>.cls-5{fill:#fff}.cls-4{fill:#a6a6a6}.cls-6{fill:#cf000e}.cls-7{fill:#3e3a39}</style></defs><g id="레이어_2"><g id="레이어_1-2"><path d="M205.844 103.8A102.047 102.047 0 1 1 103.8 1.75 102.043 102.043 0 0 1 205.844 103.8Z" style="stroke-width:3.5px;stroke:#3e3a39;fill:#fff"/><path d="M173.774 103.8A69.976 69.976 0 1 1 103.8 33.823a69.976 69.976 0 0 1 69.974 69.977Z" style="stroke-miterlimit:10;stroke-width:1.75px;stroke:#3e3a39;fill:#fff"/><path d="m126.848 105.594 17.354-.95-17.313-.96 17.2-2.454-17.369.552 16.934-3.949-17.2 2.059 16.5-5.4-17.026 3.562 16.008-6.832-16.584 5.012 15.3-8.18-16.152 6.467 14.577-9.514-15.455 7.817 13.644-10.708-14.781 9.174 12.709-11.9-13.86 10.375 11.575-12.909-12.969 11.6 10.451-13.931-11.851 12.63 9.16-14.728-10.756 13.681 7.873-15.538-9.473 14.489 6.456-16.088-8.217 15.345 5.059-16.675-6.813 15.917L115.4 66.6l-5.43 16.535 2.088-17.3-3.947 16.858.566-17.325-2.477 17.221-.95-17.4-.96 17.29-2.45-17.159.553 17.39-3.953-16.965 2.058 17.2L95.1 66.467l3.564 17.024-6.837-16.022 5.013 16.586-8.17-15.293L95.133 84.9l-9.519-14.58 7.82 15.463-10.7-13.644 9.162 14.767-11.9-12.7 10.4 13.884L77.463 76.5l11.586 12.948-13.92-10.442L87.78 90.873l-14.744-9.167 13.65 10.73-15.51-7.858 14.524 9.5L69.584 87.6l15.3 8.194-16.637-5.042 15.96 6.833-17-3.574 16.482 5.408-17.252-2.08 16.911 3.961-17.371-.567 17.164 2.467-17.342.949 17.344.961-17.211 2.458 17.326-.552-16.908 3.94 17.262-2.065-16.535 5.409 16.964-3.553-15.964 6.816 16.64-5.029-15.344 8.2 16.081-6.434-14.53 9.483 15.522-7.845-13.7 10.745 14.715-9.132L74.807 129.4l13.93-10.427L77.11 131.94l12.906-11.546-10.408 13.872 11.908-12.692-9.2 14.794 10.705-13.612-7.84 15.467 9.525-14.573-6.492 16.172 8.172-15.26-5.029 16.589 6.849-16-3.584 17.049 5.4-16.449-2.072 17.206 3.963-16.945-.569 17.415 2.463-17.135.943 17.306.965-17.376 2.465 17.25-.557-17.311 3.94 16.884-2.063-17.274 5.418 16.556-3.547-16.952 6.806 15.942-5.031-16.645 8.209 15.36-6.439-16.083 9.476 14.521-7.844-15.511 10.748 13.694-9.14-14.728 11.859 12.662-10.429-13.917 12.969 11.625L121 119.378l13.873 10.409-12.667-11.887 14.773 9.19-13.637-10.721 15.483 7.847-14.532-9.5 16.141 6.481-15.3-8.2 16.619 5.043-15.949-6.828 17 3.576-16.49-5.417 17.244 2.081-16.893-3.957 17.371.571Zm-21.869-1.146-.008-.007-.006-.008V104.361l.006-.011H105.022l.012.006.007.011.008.01v.048l-.015.016v.006l-.006.007h-.043Z" style="fill:url(#radial-gradient)"/><path d="m112.043 56.767 6.213-.34-6.2-.345 6.156-.88L112 55.4l6.063-1.414-6.162.737 5.9-1.935-6.092 1.277 5.729-2.447-5.934 1.793 5.479-2.925L111.2 52.8l5.218-3.4-5.535 2.8 4.885-3.834-5.289 3.284 4.549-4.262-4.959 3.712 4.14-4.621-4.638 4.152 3.74-4.988-4.244 4.523 3.283-5.275-3.85 4.9 2.813-5.564-3.389 5.19 2.313-5.76-2.944 5.491 1.813-5.969-2.44 5.7 1.278-6.073L106 48.724l.745-6.195-1.409 6.038.2-6.2-.887 6.168-.342-6.229-.342 6.192-.881-6.146.2 6.226-1.412-6.078.738 6.155-1.932-5.9 1.278 6.094-2.448-5.734 1.791 5.935-2.927-5.472 2.314 5.778-3.4-5.222 2.8 5.538-3.834-4.886 3.283 5.289-4.26-4.55 3.719 4.97-4.625-4.145 4.148 4.632-4.984-3.737 4.522 4.255-5.275-3.286 4.885 3.842-5.553-2.814 5.2 3.4-5.768-2.317 5.477 2.933-5.955-1.806 5.71 2.448-6.084-1.282 5.9 1.937-6.179-.746 6.058 1.418-6.221-.2 6.145.881-6.209.34 6.213.346-6.164.879 6.2-.2-6.055 1.41 6.182-.737-5.918 1.937 6.068-1.271L91 61.054l5.957-1.8-5.492 2.934 5.758-2.3-5.2 3.4 5.559-2.811-4.9 3.848 5.268-3.271-4.533 4.245 4.983-3.742-4.161 4.643 4.617-4.134-3.723 4.964 4.267-4.543-3.3 5.3 3.834-4.87-2.807 5.534 3.409-5.215-2.325 5.787 2.928-5.464-1.8 5.939 2.455-5.727-1.287 6.1 1.934-5.889-.742 6.161 1.422-6.066-.207 6.234.882-6.135.338 6.2.346-6.223.881 6.177-.2-6.2 1.41 6.043-.74-6.183 1.941 5.927-1.272-6.069 2.438 5.708-1.8-5.959 2.938 5.5-2.3-5.757 3.391 5.2-2.811-5.551 3.852 4.9-3.274-5.272 4.244 4.534-3.728-4.982 4.64 4.16-4.14-4.629 4.966 3.727-4.537-4.256 5.291 3.292-4.879-3.839 5.541 2.806-5.2-3.4 5.778 2.32-5.477-2.933 5.949 1.8-5.707-2.445 6.086 1.28-5.9-1.94 6.172.745-6.047-1.414 6.221.2Zm-7.828-.412v-.019h.016v.014l-.006.006h-.014Z" class="cls-4"/><path d="m68.151 92.62 24.711-3.252 11.062-22.822 11.225 22.822 25.17 3.122-18.52 16.999 4.319 25.327-22.278-12.523L81.856 134.7l4.019-25.544L68.151 92.62z" class="cls-5"/><path d="m103.977 66.087 8.576 26.403h27.766l-22.459 16.319 8.576 26.406-22.459-16.322-22.463 16.322 8.58-26.406L67.633 92.49h27.766l8.578-26.403z" class="cls-6"/><path d="m91.03 52.12 8.849-1.161 3.957-8.172 4.016 8.172 9.014 1.115-6.629 6.087 1.541 9.07-7.971-4.485-7.871 4.441 1.437-9.145-6.343-5.922z" class="cls-5"/><path d="m103.856 42.624 3.07 9.45h9.94l-8.041 5.843 3.072 9.454-8.041-5.843-8.039 5.843 3.066-9.454-8.039-5.843h9.938l3.074-9.45z" class="cls-6"/><path d="m112.043 153.805 6.213-.337-6.2-.345 6.156-.879-6.217.2 6.063-1.414-6.162.738 5.9-1.936-6.092 1.277 5.729-2.447-5.934 1.795 5.479-2.93-5.781 2.316 5.218-3.4-5.535 2.8 4.885-3.835-5.289 3.284 4.549-4.26-4.963 3.714 4.14-4.622-4.638 4.156 3.74-4.992-4.244 4.525 3.283-5.275-3.85 4.9 2.813-5.562-3.389 5.189 2.313-5.76-2.944 5.492 1.813-5.969-2.44 5.695 1.278-6.073-1.937 5.915.745-6.194-1.409 6.034.2-6.2-.887 6.166-.342-6.229-.342 6.189-.881-6.142.2 6.225-1.419-6.073.738 6.154-1.932-5.9 1.278 6.1-2.448-5.738 1.791 5.937-2.927-5.473 2.314 5.78-3.4-5.224 2.8 5.538-3.834-4.886 3.283 5.288-4.26-4.549 3.719 4.97-4.625-4.147 4.148 4.635-4.984-3.739 4.527 4.247-5.275-3.279 4.885 3.843-5.553-2.819 5.2 3.405-5.768-2.319 5.478 2.935-5.955-1.807 5.711 2.447-6.084-1.281 5.9 1.939-6.179-.746 6.058 1.418-6.221-.205 6.145.884-6.209.338 6.213.345-6.164.883 6.2-.2-6.055 1.411 6.182-.737-5.918 1.936 6.068-1.271L91 158.093l5.957-1.8-5.492 2.935 5.758-2.305-5.2 3.4 5.559-2.809-4.9 3.847 5.268-3.271-4.533 4.245L98.4 158.6l-4.16 4.643 4.617-4.136-3.723 4.968 4.262-4.544-3.3 5.3 3.834-4.873-2.807 5.539 3.409-5.219-2.325 5.79 2.928-5.463-1.8 5.94 2.455-5.73-1.287 6.107 1.934-5.891-.742 6.16 1.422-6.065-.207 6.235.882-6.137.338 6.194.346-6.221.881 6.177-.2-6.2 1.41 6.043-.74-6.186 1.941 5.928-1.272-6.068 2.438 5.7-1.8-5.957 2.938 5.5-2.3-5.76 3.391 5.2-2.811-5.552 3.852 4.9-3.274-5.272 4.244 4.531-3.728-4.981 4.64 4.162-4.136-4.625 4.966 3.727-4.537-4.257 5.291 3.293-4.879-3.843 5.541 2.812-5.2-3.4 5.778 2.322-5.477-2.937 5.949 1.8-5.707-2.442 6.086 1.282-5.9-1.94 6.172.745-6.047-1.419 6.221.2Zm-7.828-.41v-.024h.022v.016l-.006.008h-.014Z" class="cls-4"/><path d="m91.03 149.16 8.849-1.163 3.957-8.171 4.016 8.171 9.014 1.12-6.629 6.084 1.541 9.067-7.971-4.481-7.871 4.44 1.437-9.146-6.343-5.921z" class="cls-5"/><path d="m103.856 139.661 3.07 9.456h9.94l-8.041 5.84 3.072 9.454-8.041-5.844-8.039 5.844 3.066-9.454-8.039-5.84h9.938l3.074-9.456z" class="cls-6"/><path d="m63.254 105.556 6.211-.34-6.2-.344 6.156-.878-6.217.2 6.063-1.414-6.16.739 5.906-1.934-6.1 1.275 5.733-2.447-5.931 1.787 5.477-2.927-5.777 2.315 5.218-3.4-5.533 2.796 4.891-3.834-5.3 3.286 4.551-4.264-4.964 3.718 4.146-4.623-4.644 4.152 3.74-4.988-4.238 4.523 3.275-5.272-3.848 4.9 2.819-5.563-3.393 5.181 2.315-5.756-2.942 5.49 1.809-5.967-2.44 5.7 1.278-6.077-1.944 5.922.746-6.194-1.412 6.035.2-6.2-.885 6.167-.338-6.228-.342 6.19-.88-6.144.2 6.224-1.416-6.073.738 6.158-1.932-5.9 1.275 6.1-2.448-5.738 1.794 5.937-2.923-5.471 2.312 5.773-3.407-5.222 2.8 5.538-3.836-4.884 3.279 5.285-4.257-4.547 3.721 4.968-4.629-4.145 4.153 4.633-4.987-3.735 4.532 4.246L43.99 97l4.886 3.84-5.555-2.813 5.2 3.4-5.773-2.314 5.478 2.931-5.956-1.8 5.714 2.445-6.084-1.28 5.9 1.936-6.177-.743 6.054 1.417-6.218-.2 6.146.881-6.207.338 6.207.348-6.161.881 6.2-.2-6.05 1.413 6.179-.739-5.922 1.936 6.075-1.271-5.716 2.44 5.96-1.8-5.5 2.939 5.758-2.307-5.2 3.4 5.555-2.81-4.9 3.846 5.265-3.272-4.528 4.248 4.984-3.732-4.164 4.64 4.621-4.135-3.724 4.966 4.262-4.544-3.294 5.3 3.832-4.874-2.806 5.54 3.41-5.218-2.327 5.79 2.93-5.464-1.8 5.939 2.456-5.74-1.284 6.1 1.935-5.888-.743 6.161 1.419-6.068-.2 6.237.883-6.139.336 6.2.344-6.221.881 6.176-.194-6.2 1.409 6.044-.741-6.184 1.942 5.926-1.274-6.07 2.44 5.711-1.8-5.96 2.942 5.5-2.309-5.757 3.394 5.2-2.808-5.553 3.85 4.9-3.283-5.273 4.246 4.535-3.73-4.981 4.64 4.158-4.136-4.623 4.966 3.725-4.535-4.254 5.291 3.289-4.881-3.84 5.543 2.812-5.2-3.4 5.774 2.32-5.475-2.935 5.947 1.8-5.709-2.444 6.092 1.282-5.906-1.94 6.174.745-6.049-1.418 6.221.208Zm-7.83-.412v-.018h.024v.017h-.016Z" class="cls-4"/><path d="m42.242 100.909 8.846-1.163 3.959-8.17 4.016 8.17 9.014 1.119-6.631 6.087 1.547 9.066-7.977-4.483-7.872 4.443 1.443-9.147-6.345-5.922z" class="cls-5"/><path d="m55.065 91.413 3.072 9.452h9.94l-8.041 5.843 3.072 9.452-8.043-5.843-8.04 5.843 3.069-9.452-8.039-5.843h9.942l3.068-9.452z" class="cls-6"/><path d="m160.295 105.556 6.209-.34-6.193-.344 6.156-.878-6.22.2 6.06-1.414-6.16.739 5.908-1.934-6.092 1.275 5.729-2.447-5.938 1.795 5.481-2.927-5.783 2.315 5.218-3.4-5.527 2.794 4.881-3.834-5.293 3.286 4.553-4.264-4.963 3.718 4.142-4.623-4.64 4.152 3.74-4.988-4.244 4.523 3.279-5.272-3.85 4.9 2.817-5.563-3.391 5.175 2.315-5.756-2.94 5.49 1.809-5.967-2.44 5.7 1.28-6.077-1.95 5.922.75-6.194-1.414 6.035.2-6.2-.884 6.167-.344-6.228-.342 6.19-.877-6.144.2 6.224-1.418-6.073.737 6.158-1.932-5.9 1.278 6.1-2.454-5.738 1.8 5.937-2.928-5.471 2.315 5.777-3.408-5.222 2.8 5.538-3.827-4.888 3.283 5.285-4.26-4.547 3.721 4.968-4.627-4.145 4.148 4.633-4.984-3.735 4.529 4.246L141.028 97l4.887 3.84-5.551-2.813 5.2 3.4-5.772-2.314 5.481 2.931-5.957-1.8 5.711 2.445-6.084-1.28 5.9 1.936-6.179-.743 6.054 1.417-6.217-.2 6.147.881-6.211.338 6.211.348-6.164.881 6.2-.2-6.055 1.413 6.184-.739-5.924 1.936 6.074-1.271-5.717 2.44 5.959-1.8-5.494 2.939 5.76-2.307-5.2 3.4 5.553-2.81-4.9 3.846 5.264-3.272-4.529 4.248 4.984-3.732-4.16 4.64 4.621-4.135-3.725 4.966 4.262-4.544-3.293 5.3 3.83-4.874-2.807 5.54 3.411-5.218-2.325 5.79 2.926-5.464-1.8 5.939 2.45-5.726-1.282 6.1 1.932-5.888-.74 6.161 1.418-6.068-.2 6.237.88-6.139.342 6.2.344-6.221.881 6.176-.2-6.2 1.406 6.044-.74-6.184 1.943 5.926-1.274-6.07 2.44 5.711-1.8-5.96 2.938 5.5-2.3-5.757 3.391 5.2-2.807-5.553 3.848 4.9-3.273-5.287 4.246 4.535-3.732-4.981 4.642 4.158-4.136-4.623 4.965 3.725-4.534-4.254 5.291 3.289-4.886-3.842 5.548 2.812-5.2-3.4 5.774 2.32-5.473-2.935 5.949 1.8-5.711-2.444 6.09 1.282-5.908-1.94 6.176.745-6.047-1.418 6.217.208Zm-7.832-.412h-.007v-.027H152.483v.014h-.02Z" class="cls-4"/><path d="m139.278 100.909 8.849-1.163 3.963-8.17 4.016 8.17 9.012 1.119-6.629 6.087 1.547 9.066-7.979-4.483-7.871 4.443 1.441-9.147-6.349-5.922z" class="cls-5"/><path d="m152.108 91.413 3.068 9.452h9.942l-8.039 5.843 3.066 9.452-8.037-5.843-8.043 5.843 3.072-9.452-8.041-5.843h9.938l3.074-9.452z" class="cls-6"/><path d="M23.523 86.835a3.447 3.447 0 1 1-3.447-3.446 3.447 3.447 0 0 1 3.447 3.446ZM190.706 86.835a3.448 3.448 0 1 1-3.448-3.446 3.447 3.447 0 0 1 3.448 3.446ZM29.321 68.593c-.05.011-.063 0-.038-.044a11.434 11.434 0 0 0 .594-2.9 7.283 7.283 0 0 0-.306-2.66 6.969 6.969 0 0 0-1.311-2.367 9.184 9.184 0 0 0-2.429-2.007l-2.987 5.025-1.307-.776 4.049-6.813a.113.113 0 0 1 .175-.039 15.806 15.806 0 0 1 3.156 2.418 9.474 9.474 0 0 1 1.983 2.853 8 8 0 0 1 .658 3.3 10.382 10.382 0 0 1-.806 3.751Zm12.027-9.1-1.043 1.756-12.684-7.536a.9.9 0 0 0-.42-.147.616.616 0 0 0-.329.081 1 1 0 0 0-.27.238 2.662 2.662 0 0 0-.231.334l-.7-.416 1.593-2.68 4.924 2.926 1.188-2 1.306.777-1.187 2ZM38.755 48.571l4.769-4.67-.7-.715-2.039 2a3.443 3.443 0 0 1-.713.556 1.255 1.255 0 0 1-.655.174 1.426 1.426 0 0 1-.661-.209 3.619 3.619 0 0 1-.743-.609l-1.932-1.973q-.377-.384-.7-.236a2.175 2.175 0 0 0-.613.431l-.558-.569 9.349-9.155 1.076 1.1-7.058 6.904.623.636 6.983-6.836 1.05 1.073-6.983 6.84a2.41 2.41 0 0 1 .189.217.983.983 0 0 0 .213.206.468.468 0 0 0 .244.086.376.376 0 0 0 .267-.132l6.844-6.7 1.051 1.072-3.574 3.5.7.715 4.769-4.67 1.024 1.046-11.2 10.967Zm7.837 4a1.641 1.641 0 0 1-1-.6l-.558-.57a.667.667 0 0 0-.617-.252 1.16 1.16 0 0 0-.569.324l-.558-.569 7.122-6.974-.688-.7-7 6.85-1.012-1.033 8.393-8.219a.127.127 0 0 1 .2.008l2.395 2.438a.27.27 0 0 1-.019.433l-6.246 6.113.506.515c.086.089.18.084.281-.014l6.442-6.309 1.038 1.06-7.122 6.973a1.459 1.459 0 0 1-.988.527ZM66.4 28.143a3.805 3.805 0 0 1-.9.895 17.021 17.021 0 0 1-1.5.936l-5.913 3.355a1.488 1.488 0 0 1-1.105.264 1.639 1.639 0 0 1-.818-.836l-.8-1.419a.662.662 0 0 0-.532-.4 1.154 1.154 0 0 0-.633.167l-.421-.742 6.05-3.431-.905-1.6-5.821 3.3-.74-1.307 7.536-4.274c.071-.041.132-.017.18.068l2.159 3.805a.263.263 0 0 1-.114.4l-4.994 2.833.832 1.468 5.9-3.346a7.912 7.912 0 0 0 1.126-.745 3.8 3.8 0 0 0 .682-.706L63.044 22.2a.92.92 0 0 0-.291-.336.612.612 0 0 0-.326-.091.972.972 0 0 0-.353.072 2.787 2.787 0 0 0-.367.176l-.4-.71 2.727-1.546 4.8 8.465-1.792 1.016Zm1.816 3.381a.2.2 0 0 0-.308-.081l-7.813 4.431-.749-1.322 9.6-5.447a.277.277 0 0 1 .43.118l2.724 4.805-1.868 1.059ZM74.51 22.424l7.209-1.876-.444-1.7a.669.669 0 0 0-.8-.558 3.166 3.166 0 0 1-.031.927 3.62 3.62 0 0 1-.3.825l-1.756.457a3.068 3.068 0 0 0 .181-.881 4.773 4.773 0 0 0-.034-.863 7.105 7.105 0 0 0-.168-.856l-.229-.879a.452.452 0 0 0-.151-.268.436.436 0 0 0-.339-.007l-2.777.723-.383-1.471 4.993-1.3a.119.119 0 0 1 .169.09l.693 2.731 2.573-.67.827 3.176 5.93-1.544.383 1.471L74.894 23.9Zm13.89 6.481a9.418 9.418 0 0 1-1.634-.054 6.337 6.337 0 0 1-1.486-.36 3.29 3.29 0 0 1-1.124-.685c-.116-.123-.207-.1-.273.071a3.18 3.18 0 0 1-.65 1.137 6.941 6.941 0 0 1-1.122 1.039 8.852 8.852 0 0 1-1.4.852 7.891 7.891 0 0 1-1.5.562l-1.279-.93c-.073-.045-.075-.077-.006-.094a12.646 12.646 0 0 0 1.732-.719 7.229 7.229 0 0 0 1.511-1.007 4.139 4.139 0 0 0 1-1.266 2.262 2.262 0 0 0 .2-1.478l-4.584 1.192L77.4 25.7l4.635-1.206-.113-.431c-.058-.228-.173-.344-.345-.351a1.7 1.7 0 0 0-.5.053l-.191-.736 2.845-.74.431 1.65 4.6-1.2.383 1.471-4.6 1.2a2.256 2.256 0 0 0 .894 1.2 4.151 4.151 0 0 0 1.489.617 7.24 7.24 0 0 0 1.812.143 12.359 12.359 0 0 0 1.862-.218.107.107 0 0 1 .063-.006s0 .035-.023.092l-.663 1.436a7.9 7.9 0 0 1-1.579.231Zm-3.088-10.212a3.077 3.077 0 0 0 .183-.87 4.462 4.462 0 0 0-.033-.863 7.013 7.013 0 0 0-.171-.866q-.113-.431-.228-.879a.46.46 0 0 0-.151-.267.433.433 0 0 0-.34-.008l-3.8.989-.383-1.471 6.016-1.566c.091-.023.148.007.169.091l.547 2.1a9.927 9.927 0 0 1 .222 1.064 5.022 5.022 0 0 1 .055.809 2.657 2.657 0 0 1-.091.665 4.075 4.075 0 0 1-.221.614ZM96.4 18.145l6.675.038.007-1.278-2.818-.018a3.407 3.407 0 0 1-.9-.106 1.257 1.257 0 0 1-.587-.337 1.423 1.423 0 0 1-.323-.614 3.6 3.6 0 0 1-.1-.956l.01-1.668c0-.358-.11-.578-.331-.66a2.179 2.179 0 0 0-.74-.124v-.8l13.015.075-.009 1.538-9.809-.056-.01 1.8c0 .271.127.408.385.41l9.508.055-.008 1.5-4.966-.03.001 1.286 6.674.039-.009 1.519-15.673-.091Zm3.576 5.878a3.14 3.14 0 0 1 .638-2 3.877 3.877 0 0 1 1.573-1.187 5.4 5.4 0 0 1 4.068.024 3.88 3.88 0 0 1 1.56 1.2 3.49 3.49 0 0 1-.022 3.986 3.9 3.9 0 0 1-1.574 1.187 5.4 5.4 0 0 1-4.069-.024 3.891 3.891 0 0 1-1.561-1.2 3.117 3.117 0 0 1-.613-1.986Zm2.1.013a1.944 1.944 0 0 0 .309 1.141 2.07 2.07 0 0 0 .788.691 2.36 2.36 0 0 0 2.043.011 2.045 2.045 0 0 0 .8-.681 2.2 2.2 0 0 0 .013-2.28 2.045 2.045 0 0 0-.788-.69 2.365 2.365 0 0 0-2.043-.012 2.066 2.066 0 0 0-.8.681 1.952 1.952 0 0 0-.325 1.139ZM119.59 23.22a2.249 2.249 0 0 1-.068-1.737l1.65-6.1a.766.766 0 0 0 .014-.419.686.686 0 0 0-.179-.287.958.958 0 0 0-.3-.2 2.79 2.79 0 0 0-.366-.128l.207-.77 3.027.819-2.13 7.873a.352.352 0 0 0 .267.495l4.591 1.241-.392 1.449-4.93-1.333a2.165 2.165 0 0 1-1.391-.903Zm8.757-2.6-3.722-1.006.4-1.485 3.723 1.006.754-2.791a.678.678 0 0 0-.073-.673 1.255 1.255 0 0 0-.591-.313l.213-.787 2.754.745-4.275 15.821-1.888-.51Zm4.1-3.481a.669.669 0 0 0-.082-.675 1.3 1.3 0 0 0-.6-.315l.213-.787 2.771.749-4.279 15.821-1.886-.51ZM151.272 31.908l-1.249-.727-4.858 8.369-1.69-.981L146.127 34a4.74 4.74 0 0 1-1.183-.365 16.54 16.54 0 0 1-1.537-.806l-2.651-1.54a2.163 2.163 0 0 1-1.106-1.231 2.25 2.25 0 0 1 .384-1.7l3.229-5.563q.271-.465.042-.737a2.186 2.186 0 0 0-.579-.476l.4-.689 6.366 3.7-.764 1.316-3.639-2.115-3.379 5.82a.352.352 0 0 0 .13.547l2.954 1.715a7.814 7.814 0 0 0 1.174.575 4.152 4.152 0 0 0 .922.235l4.013-6.909A.678.678 0 0 0 151 25.1a1.3 1.3 0 0 0-.5-.459l.41-.706 2.482 1.441-2.606 4.489 1.248.725 1.806-3.109a.672.672 0 0 0 .1-.674 1.327 1.327 0 0 0-.5-.46l.408-.705 2.483 1.441-8.231 14.173-1.689-.981ZM163.684 49.736a.2.2 0 0 0 0-.32l-6.35-6.351 1.075-1.075 7.806 7.808a.28.28 0 0 1 0 .448l-4.01 4.01-1.52-1.519Zm2.54-6.9a3.3 3.3 0 0 1-1.813 1 3.689 3.689 0 0 1-1.861-.169 4.226 4.226 0 0 1-1.6-1.038 4.46 4.46 0 0 1-1.031-1.608 3.633 3.633 0 0 1-.177-1.855 3.3 3.3 0 0 1 1-1.813 3.4 3.4 0 0 1 2.069-.973l-1.433-1.431 1.063-1.062 2.85 2.852.564-.564a.481.481 0 0 0 .179-.5 1.169 1.169 0 0 0-.282-.439l.472-.472 2.078 2.079-1.45 1.457 2.863 2.864-1.061 1.062-1.444-1.444a3.5 3.5 0 0 1-.986 2.055Zm-3.96-3.96a2.459 2.459 0 0 0-.651 1.013 1.758 1.758 0 0 0-.043.953 1.651 1.651 0 0 0 1.195 1.195 1.786 1.786 0 0 0 .946-.037 2.363 2.363 0 0 0 .993-.631 2.507 2.507 0 0 0 .665-1.027 1.721 1.721 0 0 0 .038-.946 1.617 1.617 0 0 0-.447-.748 1.684 1.684 0 0 0-.769-.428 1.807 1.807 0 0 0-.946.037 2.345 2.345 0 0 0-.981.62Zm4.748 10.569-1.457-1.457 5.624-5.622a.9.9 0 0 0 .245-.371.6.6 0 0 0 0-.338.993.993 0 0 0-.164-.322 2.867 2.867 0 0 0-.26-.305l.563-.564 2.217 2.217-2.416 2.417 1.644 1.644-1.193 1.192-1.644-1.643ZM168.751 57.042l2.025 3.487 4.408-2.561q.417-.243.384-.539a1.593 1.593 0 0 0-.219-.616l.69-.4 1.468 2.526-5.722 3.326.894 1.537 4.407-2.56c.278-.163.408-.339.388-.532a1.5 1.5 0 0 0-.215-.609l.691-.4 1.46 2.512-5.723 3.325 2.93 5.041-1.315.763-7.866-13.536Zm7.113 8.515a5.384 5.384 0 0 0 1-.116 7.215 7.215 0 0 0 1.066-.323 12.212 12.212 0 0 0 1.212-.553q.644-.332 1.428-.789l2.805-1.629a.456.456 0 0 0 .216-.218.425.425 0 0 0-.083-.329l-4.823-8.3 1.3-.755 6.02 10.355a.226.226 0 0 1 .042.107c0 .023-.03.049-.084.079l-4.5 2.618a15.535 15.535 0 0 1-2.575 1.251 5.508 5.508 0 0 1-2.013.335ZM16.074 116.348a4.578 4.578 0 0 1-1.26-.873 4.444 4.444 0 0 1-1.308-2.778 4.4 4.4 0 0 1 .255-1.954 4.262 4.262 0 0 1 .743-1.309 4.664 4.664 0 0 1 1.086-.945 5.6 5.6 0 0 1 1.332-.605 7.577 7.577 0 0 1 2.98-.282 5.4 5.4 0 0 1 1.423.345 4.68 4.68 0 0 1 1.239.724 4.069 4.069 0 0 1 .96 1.148 4.572 4.572 0 0 1 .592 1.874 4.844 4.844 0 0 1-.1 1.549 4.522 4.522 0 0 1-.579 1.382 4.265 4.265 0 0 1-1.01 1.1 4.328 4.328 0 0 1-1.385.706l-.178-1.885a2.69 2.69 0 0 0 1.3-1.041 2.445 2.445 0 0 0 .385-1.61 2.506 2.506 0 0 0-.4-1.153 2.581 2.581 0 0 0-.7-.735 3.237 3.237 0 0 0-.881-.437 4.273 4.273 0 0 0-.987-.194 5.862 5.862 0 0 0-1.018.007 5.736 5.736 0 0 0-.987.182 4.649 4.649 0 0 0-.942.37 3.234 3.234 0 0 0-.8.589 2.613 2.613 0 0 0-.553.839 2.418 2.418 0 0 0-.172.585 2.386 2.386 0 0 0-.018.61 2.336 2.336 0 0 0 .247.867 2.456 2.456 0 0 0 .519.683 3.106 3.106 0 0 0 .721.493 3.161 3.161 0 0 0 .852.282l.181 1.9a4.961 4.961 0 0 1-1.537-.434ZM15.829 125.194l2.11-1.364-.831-4.058-2.477-.425-.358-1.748 10.674 1.667.4 1.935-9.154 5.755Zm7.28-4.523-4.277-.612.576 2.816ZM25.432 127.944l-8.177 2.394-.494-1.688 8.178-2.393-.889-3.033 1.551-.455 2.282 7.795-1.551.453ZM21 140.455l4.168-1.709-1.654-4.036-4.17 1.71-.667-1.626 9.416-3.861.668 1.626-3.739 1.533 1.654 4.034 3.739-1.532.672 1.638-9.416 3.862ZM24.582 148.193a4.319 4.319 0 0 1-.279-3.813 5.261 5.261 0 0 1 1.037-1.613 6.627 6.627 0 0 1 3.521-1.958 5.254 5.254 0 0 1 1.918-.03 4.327 4.327 0 0 1 1.729.714 4.431 4.431 0 0 1 1.35 1.541 4.482 4.482 0 0 1 .6 1.955 4.389 4.389 0 0 1-.3 1.857 5.226 5.226 0 0 1-1.035 1.62 6.631 6.631 0 0 1-3.519 1.958 5.213 5.213 0 0 1-1.923.024 4.465 4.465 0 0 1-1.742-.723 4.414 4.414 0 0 1-1.357-1.532Zm7.877-4.38a2.355 2.355 0 0 0-.913-.95 2.832 2.832 0 0 0-1.19-.352 4.023 4.023 0 0 0-1.294.127 5.183 5.183 0 0 0-1.22.483 5.293 5.293 0 0 0-1.06.785 4.054 4.054 0 0 0-.8 1.035 2.942 2.942 0 0 0-.335 1.2 2.54 2.54 0 0 0 1.239 2.227 2.9 2.9 0 0 0 1.2.348 3.958 3.958 0 0 0 1.3-.13 5.123 5.123 0 0 0 2.294-1.274 3.967 3.967 0 0 0 .783-1.029 2.867 2.867 0 0 0 .324-1.194 2.363 2.363 0 0 0-.328-1.276ZM28.246 153.923l8.3-5.861 1.016 1.436-6.985 4.929 2.94 4.164-1.321.932ZM33.27 160.7l7.87-6.409 1.11 1.364-7.871 6.408ZM42.822 168.458a4.58 4.58 0 0 1-1.53.1 4.438 4.438 0 0 1-2.75-1.365 4.391 4.391 0 0 1-1.014-1.691 4.276 4.276 0 0 1-.23-1.487 4.61 4.61 0 0 1 .266-1.415 5.5 5.5 0 0 1 .669-1.3 7.527 7.527 0 0 1 2.162-2.071 5.4 5.4 0 0 1 1.328-.613 4.68 4.68 0 0 1 1.42-.2 4.056 4.056 0 0 1 1.467.3 4.6 4.6 0 0 1 1.626 1.1 4.8 4.8 0 0 1 .882 1.278 4.463 4.463 0 0 1 .405 1.442 4.252 4.252 0 0 1-.107 1.491 4.339 4.339 0 0 1-.648 1.413l-1.31-1.368a2.676 2.676 0 0 0 .377-1.626 2.432 2.432 0 0 0-.7-1.5 2.5 2.5 0 0 0-1.027-.657 2.605 2.605 0 0 0-1-.144 3.309 3.309 0 0 0-.963.2 4.274 4.274 0 0 0-.893.461 5.732 5.732 0 0 0-.794.638 5.888 5.888 0 0 0-.661.755 4.693 4.693 0 0 0-.509.875 3.238 3.238 0 0 0-.26.957 2.6 2.6 0 0 0 .087 1 2.4 2.4 0 0 0 .594 1.055 2.381 2.381 0 0 0 .731.526 2.467 2.467 0 0 0 .831.212 3.077 3.077 0 0 0 .872-.06 3.15 3.15 0 0 0 .843-.308l1.32 1.377a5 5 0 0 1-1.484.625ZM53.139 179.207l-.4-5.924-1.474.268-2.044 2.816-1.411-1.026 5.962-8.214 1.411 1.025-2.559 3.525 5.835-1.148 1.8 1.305-5.815 1.145.393 7.461ZM61.805 184.421l-1.057-5.842-1.435.43-1.713 3.027-1.518-.861 5.006-8.829 1.517.86L60.456 177l5.668-1.793 1.932 1.095-5.65 1.787 1.224 7.371Z" class="cls-7"/><path d="M67.853 187.536a4.325 4.325 0 0 1-2.543-2.856 5.3 5.3 0 0 1-.159-1.913 6.63 6.63 0 0 1 1.6-3.694 5.22 5.22 0 0 1 1.5-1.192 4.31 4.31 0 0 1 1.806-.486 4.845 4.845 0 0 1 3.67 1.59 4.371 4.371 0 0 1 .893 1.656 5.211 5.211 0 0 1 .166 1.916 6.638 6.638 0 0 1-1.6 3.694 5.173 5.173 0 0 1-1.51 1.189 4.368 4.368 0 0 1-3.828.1Zm3.583-8.27a2.364 2.364 0 0 0-1.3-.2 2.842 2.842 0 0 0-1.158.446 3.992 3.992 0 0 0-.948.888 5.122 5.122 0 0 0-.674 1.126 5.225 5.225 0 0 0-.364 1.268 4.024 4.024 0 0 0 0 1.305 2.9 2.9 0 0 0 .465 1.156 2.535 2.535 0 0 0 2.338 1.014 2.9 2.9 0 0 0 1.161-.452 4.013 4.013 0 0 0 .952-.894 5.136 5.136 0 0 0 1.042-2.407 3.914 3.914 0 0 0 0-1.292 2.87 2.87 0 0 0-.469-1.145 2.37 2.37 0 0 0-1.045-.813ZM79.865 182.672l-2.581 8.12-1.676-.532 2.582-8.12-3.014-.957.49-1.541 7.739 2.459-.488 1.541Z" class="cls-7"/><path d="m87.834 184.678-1.745 8.339-1.72-.359 1.745-8.34-3.094-.647.33-1.582 7.949 1.662-.331 1.581ZM94.12 194.46a4.309 4.309 0 0 1-3.279-1.965 5.248 5.248 0 0 1-.722-1.779 6.636 6.636 0 0 1 .424-4 5.256 5.256 0 0 1 1.08-1.587 4.318 4.318 0 0 1 1.581-1 4.441 4.441 0 0 1 2.036-.217 4.486 4.486 0 0 1 1.939.638 4.386 4.386 0 0 1 1.347 1.316 5.169 5.169 0 0 1 .731 1.778 6.646 6.646 0 0 1-.425 4 5.219 5.219 0 0 1-1.086 1.586 4.5 4.5 0 0 1-1.595 1.009 4.418 4.418 0 0 1-2.031.221Zm.951-8.962a2.363 2.363 0 0 0-1.3.2 2.836 2.836 0 0 0-.973.771 4.018 4.018 0 0 0-.64 1.13 5.1 5.1 0 0 0-.275 2.6 3.962 3.962 0 0 0 .388 1.246 2.89 2.89 0 0 0 .789.965 2.547 2.547 0 0 0 2.533.269 2.9 2.9 0 0 0 .973-.778 4.013 4.013 0 0 0 .642-1.138 5.146 5.146 0 0 0 .277-2.608 3.872 3.872 0 0 0-.391-1.233 2.841 2.841 0 0 0-.789-.951 2.353 2.353 0 0 0-1.234-.471ZM106.928 194.715l-4.3-7.4.092 7.451-1.744.021-.124-10.149 2.016-.024L107.2 192l-.091-7.437 1.743-.022.126 10.15ZM118.321 193.609l-.135-1.018a3.539 3.539 0 0 1-1.084 1.159 3.424 3.424 0 0 1-1.479.548 3.776 3.776 0 0 1-1.04-.007 4.425 4.425 0 0 1-1.018-.272 4.639 4.639 0 0 1-1.247-.74 5.146 5.146 0 0 1-.948-1.042 5.6 5.6 0 0 1-.65-1.268 6.686 6.686 0 0 1-.346-1.419 7.481 7.481 0 0 1-.05-1.465 5.63 5.63 0 0 1 .267-1.4 4.441 4.441 0 0 1 .64-1.245 4.389 4.389 0 0 1 1.06-1.019 4.616 4.616 0 0 1 .94-.477 4.893 4.893 0 0 1 1.025-.253 4.84 4.84 0 0 1 1.531.039 4.471 4.471 0 0 1 1.386.507 4.283 4.283 0 0 1 1.136.941 4.359 4.359 0 0 1 .775 1.327l-1.878.249a2.722 2.722 0 0 0-1.1-1.194 2.431 2.431 0 0 0-1.573-.3 2.5 2.5 0 0 0-1.3.574 2.856 2.856 0 0 0-.617.731 3.224 3.224 0 0 0-.346.86 4.452 4.452 0 0 0-.123.943 6.06 6.06 0 0 0 .249 1.874 4.544 4.544 0 0 0 .365.884 3.564 3.564 0 0 0 .554.762 2.493 2.493 0 0 0 .768.548 2.46 2.46 0 0 0 1.39.231 2.388 2.388 0 0 0 .946-.327 2.529 2.529 0 0 0 .713-.64 3 3 0 0 0 .456-.862 3.348 3.348 0 0 0 .178-.991l-2.553.339-.2-1.493 4.35-.577.7 5.268ZM128.214 191.419l-5.938-6.163 1.862 7.215-1.688.436-2.536-9.829 1.953-.5 5.962 6.143-1.859-7.2 1.689-.436 2.535 9.829ZM138.924 187.692l-1.694-1.858-3.865 1.488-.011 2.513-1.666.642-.114-10.8 1.844-.709 7.185 8.08Zm-5.661-6.437.1 4.321 2.683-1.034ZM141.857 186.387l-4.629-9.017 6.352-3.261.738 1.438-4.8 2.464 1.15 2.242 4.558-2.34.726 1.414-4.558 2.34 1.276 2.486 4.9-2.514.738 1.438ZM159.944 173.077a3.21 3.21 0 0 1-.045 1.4 4.042 4.042 0 0 1-.607 1.3 4.867 4.867 0 0 1-1.051 1.085 4.721 4.721 0 0 1-1.325.709 3.89 3.89 0 0 1-1.4.216 3.152 3.152 0 0 1-1.336-.356 3.423 3.423 0 0 1-1.153-1.009l-4.193-5.553 1.415-1.067 3.976 5.269a2.658 2.658 0 0 0 .661.626 2.159 2.159 0 0 0 .78.321 2.026 2.026 0 0 0 .837-.022 2.2 2.2 0 0 0 .82-.4 2.156 2.156 0 0 0 .6-.68 2.077 2.077 0 0 0 .256-.8 2.2 2.2 0 0 0-.084-.847 2.552 2.552 0 0 0-.416-.811l-3.977-5.268 1.4-1.059 4.192 5.554a3.283 3.283 0 0 1 .65 1.392ZM167.413 168.508l-8.187-2.5 5.136 5.4-1.264 1.2-7-7.354 1.461-1.389 8.2 2.468-5.127-5.389 1.264-1.2 7 7.354ZM170.471 165.255l-7.559-6.773 1.173-1.309 7.559 6.773ZM176.191 158.389l-1.2 1.57-10.367-3.174 1.109-1.451 8.091 2.5-4.532-7.152 1.116-1.461ZM179.291 154.059l-8.662-5.267 3.71-6.1 1.382.84-2.8 4.611 2.154 1.309 2.662-4.377 1.356.825-2.662 4.378 2.388 1.451 2.86-4.7 1.382.839ZM186.605 140.616l-4.772.831-.677 1.429 3.578 1.693-.746 1.577-9.161-4.337 1.782-3.769a4.175 4.175 0 0 1 .749-1.1 3.248 3.248 0 0 1 1.011-.727 2.915 2.915 0 0 1 1.2-.262 2.959 2.959 0 0 1 1.307.311 3.144 3.144 0 0 1 .832.566 2.839 2.839 0 0 1 .575.769 3.148 3.148 0 0 1 .293.916 3.025 3.025 0 0 1-.007.991l4.957-.834Zm-9.56.314 2.65 1.254.95-2.007a2.241 2.241 0 0 0 .2-.639 1.768 1.768 0 0 0-.018-.649 1.55 1.55 0 0 0-.256-.581 1.3 1.3 0 0 0-.522-.42 1.236 1.236 0 0 0-.641-.13 1.354 1.354 0 0 0-.571.181 1.817 1.817 0 0 0-.472.4 2.535 2.535 0 0 0-.349.544ZM189.524 134.141a5.154 5.154 0 0 1-.775 1.439 4.184 4.184 0 0 1-1.151 1.04 3.479 3.479 0 0 1-3.056.289l-.065-.023.589-1.671a2.272 2.272 0 0 0 .948.11 2.366 2.366 0 0 0 .847-.258 2.224 2.224 0 0 0 .685-.568 2.655 2.655 0 0 0 .456-.822 2.4 2.4 0 0 0 .136-.732 2.214 2.214 0 0 0-.093-.726 1.726 1.726 0 0 0-.348-.621 1.445 1.445 0 0 0-.629-.417.862.862 0 0 0-.692.024 2.078 2.078 0 0 0-.615.491 6.753 6.753 0 0 0-.6.787q-.3.451-.622.922a10.593 10.593 0 0 1-.694.9 3.76 3.76 0 0 1-.81.712 2.421 2.421 0 0 1-.977.363 2.489 2.489 0 0 1-1.194-.153 2.84 2.84 0 0 1-1.156-.724 2.884 2.884 0 0 1-.638-1.07 3.443 3.443 0 0 1-.165-1.265 4.617 4.617 0 0 1 .262-1.323 4.937 4.937 0 0 1 .675-1.279 3.733 3.733 0 0 1 1.011-.951 3.17 3.17 0 0 1 1.267-.465 2.906 2.906 0 0 1 1.432.18l.151.067-.579 1.645a1.829 1.829 0 0 0-1.493.074 2.006 2.006 0 0 0-.946 1.162 2.391 2.391 0 0 0-.127.627 1.893 1.893 0 0 0 .061.636 1.366 1.366 0 0 0 .281.539 1.2 1.2 0 0 0 .535.355.911.911 0 0 0 .7-.019 2.12 2.12 0 0 0 .64-.476 5.876 5.876 0 0 0 .611-.767q.3-.442.634-.911a10.282 10.282 0 0 1 .7-.886 3.985 3.985 0 0 1 .806-.7 2.471 2.471 0 0 1 .949-.366 2.3 2.3 0 0 1 1.149.137 3.166 3.166 0 0 1 1.259.776 3.046 3.046 0 0 1 .7 1.136 3.733 3.733 0 0 1 .2 1.355 4.692 4.692 0 0 1-.259 1.427ZM190.88 128.529l-9.8-2.646.458-1.7 9.8 2.646ZM184.39 119.04l8.361 1.641-.34 1.725-8.36-1.641-.609 3.1-1.585-.311 1.563-7.97 1.586.312Z" class="cls-7"/><path d="m190.179 111.039 3.806.35-.161 1.751-3.765-.347-6.692 3.066.182-1.981 4.652-2.117-4.189-2.917.182-1.981Z" class="cls-7"/></g></g></svg>