<svg xmlns="http://www.w3.org/2000/svg" width="211.06384mm" height="211.06378mm" viewBox="0 0 211.06384 211.06378"><path d="M106.855 172.696a.869.869 0 1 1 0-1.737.869.869 0 0 1 0 1.737" style="fill:#4b2343;fill-opacity:1;fill-rule:nonzero;stroke:none;stroke-width:.352778" transform="translate(-377.043 -819.403) scale(5.38225)"/><path d="M89.66 191.456c10.827 0 19.608-8.777 19.608-19.607 0-10.828-8.78-19.607-19.608-19.607-10.829 0-19.607 8.779-19.607 19.607 0 10.83 8.778 19.607 19.607 19.607" style="fill:#73117e;fill-opacity:1;fill-rule:nonzero;stroke:none;stroke-width:.352778" transform="translate(-377.043 -819.403) scale(5.38225)"/><path d="M89.66 190.543c10.323 0 18.694-8.367 18.694-18.696 0-10.323-8.371-18.693-18.694-18.693-10.323 0-18.695 8.37-18.695 18.693 0 10.33 8.372 18.696 18.695 18.696" style="fill:#fff;fill-opacity:1;fill-rule:nonzero;stroke:none;stroke-width:.352778" transform="translate(-377.043 -819.403) scale(5.38225)"/><path d="m87.662 161.061.16 1.267.2-.024.031.25-.741.093-.03-.248.243-.031-.118-.92a1.554 1.554 0 0 1-.284.18l-.101-.152.432-.39.208-.025M89.34 161.711a.32.32 0 0 1 .119.237c.016.21-.12.396-.338.467a.925.925 0 0 1-.237.044.643.643 0 0 1-.369-.057.397.397 0 0 1-.231-.338.422.422 0 0 1 .24-.408.351.351 0 0 1-.169-.112.387.387 0 0 1-.084-.217c-.022-.25.188-.437.516-.462.308-.024.54.123.557.354.01.158-.095.303-.269.363.088.018.192.07.266.13zm-.398-.318c.05-.056.065-.098.06-.156-.007-.105-.087-.158-.221-.147-.125.009-.205.085-.196.187.004.072.048.118.153.164.037.015.055.02.098.035a.388.388 0 0 0 .106-.083zm-.32.623c.014.145.121.229.279.215.138-.01.227-.1.218-.215-.008-.074-.037-.124-.103-.157a1.108 1.108 0 0 0-.266-.098.275.275 0 0 0-.128.255M90.829 161.781c.06.064.091.157.082.252-.016.212-.18.375-.405.41a1.168 1.168 0 0 1-.244.01.688.688 0 0 1-.356-.113.401.401 0 0 1-.176-.372.41.41 0 0 1 .3-.365.358.358 0 0 1-.147-.137.422.422 0 0 1-.054-.225c.02-.252.257-.407.584-.382.31.022.513.206.493.44-.01.154-.137.281-.317.316.084.03.18.097.24.167zm-.341-.375a.205.205 0 0 0 .082-.144c.007-.105-.062-.168-.196-.181-.127-.007-.217.05-.224.156-.004.072.03.123.125.185.035.02.051.03.091.05.057-.02.078-.035.122-.066zm-.413.568c-.013.143.08.241.238.256.138.009.24-.066.25-.182a.18.18 0 0 0-.075-.17 1.304 1.304 0 0 0-.249-.137c-.1.05-.158.128-.164.233M91.315 161.029l.98.126-.083.26a4.025 4.025 0 0 0-.275.335c-.048.074-.295.438-.367.663l-.066.199-.345.04a3.63 3.63 0 0 1 .235-.523 3.475 3.475 0 0 1 .514-.754.356.356 0 0 1-.092-.002l-.603-.078.102-.266" style="fill:#73117e;fill-opacity:1;fill-rule:nonzero;stroke:none;stroke-width:.352778" transform="translate(-377.043 -819.403) scale(5.38225)"/><path d="M94.012 183.12c-2.684-.078-5.192-.608-7.332-1.524-.124-1.72-.792-2.416-2.668-4.145a.075.075 0 0 0-.096-.006.078.078 0 0 0-.02.094c.201.387.298.819.4 1.276.16.715.328 1.457.92 2.062a12.744 12.744 0 0 1-1.295-.83.562.562 0 0 0 .336-.16.563.563 0 0 0 0-.79.56.56 0 0 0-.952.395c0 .029.004.06.01.085a6.945 6.945 0 0 1-.355-.301 5.79 5.79 0 0 1 .17-.29c.316-.514.675-1.098-.094-2.198-.887-1.267-1.237-1.878-1.14-2.86a.069.069 0 0 0-.04-.074c-.024-.016-.057-.01-.08.01-.294.26-.51 1-.528 1.752a.52.52 0 0 0-.849.226 6.858 6.858 0 0 1-.218-.526c.002-.002.005-.004.008-.004.904-.586 1.147-1.14 1.001-2.29-.121-.95-.23-2.107-.007-2.59.206-.442.278-.783.22-1.02a.076.076 0 0 0-.08-.057.076.076 0 0 0-.067.07c-.01.168-.213.46-.445.8-.107.157-.228.334-.35.522a.434.434 0 0 0-.113-.196.447.447 0 0 0-.633.63c.086.087.199.131.318.131a.431.431 0 0 0 .115-.013c-.297.583-.501 1.255-.353 1.961.142.682.276 1.09.366 1.36.125.387.137.42-.03.549l-.001-.004c-.004 0-.006 0-.008-.002a10.077 10.077 0 0 1-.59-3.464c0-.497.033-.975.096-1.428 1.036.01 1.688-.585 1.887-1.73.148-.863.537-1.484 1.064-1.71a.075.075 0 0 0 .046-.085.079.079 0 0 0-.08-.056c-.507.06-1.258.367-1.944 1.503-.27.448-.378.836-.467 1.148-.11.39-.184.641-.481.748a9.808 9.808 0 0 1 1.614-4.05v.012a.569.569 0 0 0 .574.57.57.57 0 0 0 .405-.167.577.577 0 0 0 0-.812.574.574 0 0 0-.59-.137l.08-.097c.105-.036.245-.028.42-.02.313.017.744.04 1.252-.182.803-.354 1.399-1.452 1.423-1.497a.074.074 0 0 0-.009-.087c-.023-.024-.059-.031-.085-.015-.08.036-.285.074-.486.112-.22.042-.45.083-.61.138-.418.144-.808.414-1.145.691a11.243 11.243 0 0 1 1.153-1.024c.051-.011.117-.007.207-.002.258.016.686.043 1.419-.3a3.285 3.285 0 0 0 1.094-.789c.18-.183.35-.354.642-.528.035-.004.064-.03.066-.068v-.016l-.002-.02a.074.074 0 0 0-.075-.053 2.297 2.297 0 0 1-.271-.014c-.34-.033-.85-.08-1.605.166-.778.254-1.33.78-1.591 1.525a11.656 11.656 0 0 0-1.321 1.207c.196-.256.387-.538.488-.871.109-.35.14-.655.167-.919.035-.348.063-.63.25-.887a.069.069 0 0 0-.006-.092.071.071 0 0 0-.09-.015c-.03.016-2.513 1.584-1.561 3.674a9.486 9.486 0 0 0-.562.81.486.486 0 0 0-.122-.223.475.475 0 0 0-.334-.135.467.467 0 0 0-.468.468.468.468 0 0 0 .598.45 9.796 9.796 0 0 0-1.04 3.035c-.154-.474-.224-1.02.059-1.62.378-.804.375-1.238.374-1.784a7.35 7.35 0 0 1 .222-1.96c.009-.038-.016-.078-.053-.091-.039-.01-.08.013-.09.049-.255.783-.59 1.4-.885 1.949-.348.639-.647 1.19-.663 1.774-.034.992.298 1.67.98 2.018-.043.346-.077.703-.088 1.074a.556.556 0 0 0-.436-.202.565.565 0 1 0 .4.963c.014-.01.024-.025.036-.04.036 1.046.215 2.042.535 2.985-.254-.197-.362-.49-.51-.891a7.15 7.15 0 0 0-.602-1.306l-.241-.398c-.548-.887-.695-1.127-.65-3.18a.074.074 0 0 0-.07-.077c-.041-.005-.074.026-.08.067-.018.147-.425 3.662.006 4.706.324.785 1.221 1.556 1.844 1.591.18.01.326-.04.436-.145.088.225.185.449.29.667a.52.52 0 0 0-.245-.057.537.537 0 1 0 0 1.076.54.54 0 0 0 .534-.458 10.452 10.452 0 0 0 1.952 2.494c-.202-.118-.41-.312-.654-.541-.293-.28-.627-.6-1.056-.871a7.692 7.692 0 0 0-.753-.41c-.63-.316-1.178-.588-1.74-1.54-.019-.032-.06-.043-.096-.026a.072.072 0 0 0-.035.093c.05.126 1.229 3.037 2.92 3.692.573.225 1.221.38 1.707-.127.183.163.375.321.574.48a.558.558 0 0 0-.505.553c0 .148.058.288.162.391a.551.551 0 0 0 .788 0 .549.549 0 0 0 .151-.504c.377.261.774.504 1.187.733a3.854 3.854 0 0 0-.832.004c-1.124.121-2.01-.19-2.283-.448a.074.074 0 0 0-.099-.002.069.069 0 0 0-.012.096c.456.684 1.847 2.755 4.606 1.027 2.157.924 4.686 1.453 7.392 1.535a.07.07 0 0 0 .074-.072.075.075 0 0 0-.071-.077zm-14.19-12.042a.29.29 0 0 1-.088-.21c0-.08.03-.154.089-.21a.29.29 0 0 1 .21-.088c.081 0 .156.03.21.088a.298.298 0 0 1-.42.42zm6.442-8.747a3.112 3.112 0 0 1-1.05.758c-.701.327-1.088.302-1.35.287l-.015-.002c1.172-.867 2.274-1.336 2.86-1.443a3.57 3.57 0 0 0-.445.4zm-1.097-.29a3.465 3.465 0 0 1 1.196-.182c-.656.194-1.614.664-2.598 1.394.27-.589.742-.994 1.402-1.211zm-4.952 4.634a.336.336 0 0 1-.094-.23.322.322 0 1 1 .095.23zm.513 1.598c.48-.795.985-1.166 1.409-1.327-.376.33-.65.879-.768 1.57-.162.938-.625 1.468-1.374 1.582.395-.269.867-.86 1.061-1.5a.077.077 0 0 0-.048-.094.075.075 0 0 0-.093.05 3 3 0 0 1-.765 1.223c.048-.116.084-.247.126-.392.087-.305.193-.685.452-1.112zm1.415-2.523a.427.427 0 0 1-.302.728.413.413 0 0 1-.3-.127.41.41 0 0 1-.124-.298.423.423 0 0 1 .726-.303zm1.549-1.75a4.41 4.41 0 0 1 .588-.134c.12-.023.233-.043.328-.067-.198.32-.68 1.019-1.258 1.272-.477.208-.87.187-1.186.17-.015-.002-.027-.002-.042-.002a8.402 8.402 0 0 0 1.152-.513.071.071 0 0 0 .028-.1.07.07 0 0 0-.1-.03 8.46 8.46 0 0 1-1.1.495c.008-.009.017-.014.025-.023.427-.385.96-.862 1.565-1.067zm-.848-1.842c-.077.207-.1.428-.127.671a4.167 4.167 0 0 1-.158.89c-.127.412-.402.753-.648 1.055-.106.131-.208.256-.286.375.032-.306.132-.778.43-1.34.017-.037.004-.082-.032-.099a.075.075 0 0 0-.1.03c-.313.595-.417 1.086-.449 1.406-.414-1.43.819-2.564 1.37-2.988zm-4.202 6.089c.018-.543.295-1.056.647-1.707.193-.355.402-.74.597-1.183-.07.5-.07.86-.07 1.168.005.55.005.947-.36 1.721-.245.514-.239.999-.148 1.422a2.73 2.73 0 0 1-.096-1.877.07.07 0 0 0-.047-.092.074.074 0 0 0-.093.047c-.292.908-.04 1.76.225 2.23-.465-.346-.68-.916-.655-1.73zm.31 3.869a.403.403 0 0 1-.292-.12.413.413 0 0 1 0-.592.407.407 0 0 1 .292-.122.418.418 0 0 1 .418.418c0 .23-.187.416-.418.416zm1.15 4.834a.39.39 0 0 1-.28-.666.386.386 0 0 1 .28-.116c.104 0 .203.04.275.116.076.07.114.17.114.274a.393.393 0 0 1-.39.392zm4.07.851c1.61 1.494 2.194 2.158 2.343 3.606-.277-.407-1.121-1.675-1.566-2.54-.02-.037-.062-.05-.102-.03a.071.071 0 0 0-.03.098c.43.837 1.228 2.04 1.538 2.503a3.987 3.987 0 0 0-.467-.22c-1.04-.631-1.25-1.55-1.447-2.439a7.362 7.362 0 0 0-.268-.978zm-.6 1.405a.413.413 0 0 1 .58 0 .409.409 0 0 1-.58.58.42.42 0 0 1 0-.58zm-1.835-5.053c-.027.899.343 1.529 1.177 2.72.715 1.02.398 1.536.088 2.035-.009.016-.017.029-.024.047.043-.693-.37-1.439-.709-2.05-.188-.341-.366-.659-.424-.899a.073.073 0 0 0-.089-.056.08.08 0 0 0-.053.093c.064.255.236.568.437.932.322.58.712 1.289.691 1.926-.047-.075-.11-.143-.182-.225-.241-.265-.638-.708-1.101-1.97a2.482 2.482 0 0 1-.135-.642c.004-.025.004-.043.004-.063a.474.474 0 0 0-.018-.126c-.022-.667.132-1.362.338-1.722zm-1.107 1.583a.376.376 0 0 1 .53 0 .367.367 0 0 1 .093.15c0 .06.005.118.01.178a.378.378 0 0 1-.633.202.38.38 0 0 1 0-.53zm-.69-2.504c-.239-1.134.475-2.165.994-2.921.116-.174.224-.327.306-.465-.033.14-.092.31-.191.523-.189.409-.19 1.21-.007 2.672.112.882-.01 1.378-.51 1.83.172-.52.117-1.35.067-2.05-.018-.266-.034-.499-.034-.678 0-.042-.034-.071-.074-.071a.07.07 0 0 0-.071.07c0 .187.014.42.033.692.046.665.102 1.528-.068 2.013a3.629 3.629 0 0 0-.085-.272c-.086-.267-.22-.67-.36-1.343zm-.311 2.178c-.567-.03-1.416-.775-1.716-1.501-.243-.591-.202-2.07-.124-3.198.064.86.258 1.174.657 1.816l.238.395c.307.509.463.934.591 1.283.135.371.247.667.477.887-.479-.187-1.032-.773-1.36-1.98a.078.078 0 0 0-.09-.054c-.038.012-.061.054-.052.09.478 1.768 1.342 2.093 1.709 2.15-.08.082-.191.118-.33.112zm1.093 1.083a.523.523 0 0 0 .576-.162c.026.149.063.294.11.427.473 1.29.885 1.745 1.13 2.016.116.128.193.212.228.323a10.269 10.269 0 0 1-2.044-2.604zm.503 2.898c-1.125-.434-2.044-1.977-2.508-2.897.436.498.88.717 1.342.95.239.118.482.239.739.403.418.266.744.576 1.036.85.222.213.42.4.614.525a3.55 3.55 0 0 1-2.258-1.35.073.073 0 0 0-.104-.015.074.074 0 0 0-.016.104c.77 1.029 1.925 1.404 2.603 1.43-.411.33-.936.201-1.448 0zm2.28 1.453a.406.406 0 0 1-.29-.695.398.398 0 0 1 .29-.121c.11 0 .213.041.29.121a.389.389 0 0 1 .117.287.407.407 0 0 1-.407.408zm-1.159.084c.441.205 1.19.375 2.075.28.583-.06.98-.003 1.304.108.181.09.37.182.562.269l-.173.029c-.587.101-1.567.275-2.521-.162a.067.067 0 0 0-.095.033.076.076 0 0 0 .035.1c.993.457 2.003.283 2.604.174.073-.01.143-.026.2-.031-2.032 1.169-3.234.209-3.99-.8" style="fill:#6e0372;fill-opacity:1;fill-rule:nonzero;stroke:none;stroke-width:.352778" transform="translate(-377.043 -819.403) scale(5.38225)"/><path d="M85.253 183.196a.07.07 0 0 0 .076.072c2.706-.081 5.232-.61 7.392-1.534 2.758 1.727 4.147-.343 4.606-1.027a.073.073 0 0 0-.013-.097.075.075 0 0 0-.1.002c-.269.258-1.159.57-2.283.449a3.863 3.863 0 0 0-.831-.004c.414-.229.81-.472 1.186-.733a.553.553 0 0 0 .937.504.548.548 0 0 0 .166-.392.559.559 0 0 0-.507-.553c.2-.158.392-.316.577-.48.483.507 1.13.353 1.706.128 1.69-.656 2.87-3.566 2.921-3.692a.075.075 0 0 0-.04-.094.077.077 0 0 0-.096.026c-.562.952-1.106 1.224-1.74 1.54a8.2 8.2 0 0 0-.751.41c-.43.272-.763.592-1.057.871-.242.23-.45.423-.651.541a10.485 10.485 0 0 0 1.951-2.493.534.534 0 0 0 .532.457.543.543 0 0 0 .383-.156.54.54 0 0 0-.625-.862c.105-.219.2-.442.287-.668.11.106.258.156.436.146.626-.035 1.521-.806 1.846-1.592.43-1.043.022-4.558.006-4.706-.005-.04-.04-.071-.08-.067a.078.078 0 0 0-.072.077c.047 2.054-.102 2.293-.649 3.18l-.241.398c-.312.52-.473.955-.603 1.307-.148.401-.254.693-.508.89.32-.942.502-1.939.535-2.984a.556.556 0 0 0 .435.205.562.562 0 0 0 .567-.565.566.566 0 0 0-.966-.4c-.013.013-.025.029-.036.038-.011-.37-.045-.727-.09-1.074.683-.347 1.016-1.025.983-2.018-.018-.583-.316-1.135-.663-1.774-.297-.548-.633-1.166-.884-1.949a.081.081 0 0 0-.091-.049.075.075 0 0 0-.052.091 7.38 7.38 0 0 1 .218 1.96c0 .546-.003.98.379 1.785.282.6.209 1.146.058 1.62a9.863 9.863 0 0 0-1.044-3.035.463.463 0 0 0 .46-.118.467.467 0 0 0-.331-.8.468.468 0 0 0-.33.134.47.47 0 0 0-.122.223 10.76 10.76 0 0 0-.561-.81c.95-2.09-1.536-3.657-1.561-3.674-.028-.018-.069-.01-.094.016a.073.073 0 0 0-.006.092c.187.257.216.538.252.887.028.264.06.568.165.918.104.334.294.615.488.871a11.941 11.941 0 0 0-1.319-1.207c-.262-.744-.812-1.27-1.592-1.525a3.59 3.59 0 0 0-1.605-.166c-.108.01-.198.017-.27.015-.033-.002-.068.019-.075.052-.003.01-.003.015-.003.021v.016a.075.075 0 0 0 .065.067c.293.174.462.345.644.529a3.28 3.28 0 0 0 1.092.789c.735.343 1.163.315 1.421.3.089-.006.154-.01.206.001a11.943 11.943 0 0 1 1.153 1.024c-.337-.276-.727-.546-1.146-.69-.16-.055-.387-.096-.608-.138-.2-.038-.406-.076-.485-.112a.069.069 0 0 0-.085.014.082.082 0 0 0-.013.087c.026.046.622 1.143 1.424 1.497.512.223.94.2 1.253.182.178-.007.316-.015.422.02l.078.098a.575.575 0 0 0-.59.137.585.585 0 0 0-.168.409.567.567 0 0 0 .574.57.566.566 0 0 0 .406-.167.563.563 0 0 0 .168-.403v-.013a9.808 9.808 0 0 1 1.615 4.05c-.301-.106-.373-.357-.481-.747-.09-.312-.2-.7-.468-1.149-.686-1.136-1.435-1.442-1.941-1.502a.075.075 0 0 0-.08.056.07.07 0 0 0 .04.085c.53.225.919.847 1.067 1.71.2 1.145.852 1.74 1.888 1.73.06.453.097.93.097 1.427 0 1.222-.2 2.383-.591 3.464-.003.002-.005.002-.008.002l-.002.002c-.166-.127-.158-.16-.028-.547.087-.27.222-.677.365-1.36.147-.706-.06-1.378-.352-1.961a.38.38 0 0 0 .112.013.443.443 0 0 0 .446-.445.445.445 0 0 0-.876-.12c-.118-.188-.24-.365-.346-.522-.235-.34-.436-.632-.447-.799a.074.074 0 0 0-.067-.07.076.076 0 0 0-.079.056c-.06.237.015.578.22 1.02.224.484.114 1.64-.01 2.59-.143 1.151.1 1.704 1.005 2.29.004 0 .005.003.006.005-.066.18-.14.35-.215.526a.526.526 0 0 0-.5-.365.519.519 0 0 0-.352.138c-.018-.751-.232-1.492-.525-1.75-.025-.021-.056-.027-.084-.012a.073.073 0 0 0-.04.075c.099.981-.251 1.593-1.14 2.86-.768 1.1-.409 1.683-.091 2.197.06.102.12.196.168.29a7.08 7.08 0 0 1-.353.302.432.432 0 0 0 .009-.084.558.558 0 0 0-1.115 0 .558.558 0 0 0 .5.554 12.38 12.38 0 0 1-1.297.829c.59-.604.759-1.347.92-2.062.103-.457.2-.889.4-1.275.014-.033.01-.073-.02-.095-.029-.021-.07-.02-.094.006-1.879 1.73-2.545 2.426-2.668 4.145-2.14.916-4.648 1.446-7.334 1.524a.075.075 0 0 0-.07.076zm14.05-12.031a.298.298 0 1 1 .001-.595.298.298 0 0 1-.002.595zm-6.677-9.234c.585.107 1.69.575 2.863 1.443l-.02.002c-.256.015-.647.04-1.346-.287-.566-.263-.812-.515-1.052-.758a3.082 3.082 0 0 0-.445-.4zm2.946 1.322c-.985-.73-1.941-1.2-2.597-1.394.3-.009.688.02 1.193.183.662.217 1.133.622 1.404 1.21zm3.32 3.513a.321.321 0 1 1 .323-.321.328.328 0 0 1-.095.23.326.326 0 0 1-.228.091zm.17 2.619c.038.145.077.276.125.392a2.992 2.992 0 0 1-.765-1.224c-.014-.038-.053-.061-.091-.05a.078.078 0 0 0-.051.095c.195.64.664 1.231 1.063 1.5-.75-.114-1.212-.644-1.376-1.582-.12-.691-.391-1.24-.765-1.57.422.161.926.533 1.405 1.327.26.428.366.807.455 1.112zm-1.566-3.76a.424.424 0 0 1 .302.725.426.426 0 1 1-.302-.724zm-.285-.557c.005.009.016.014.025.023a8.618 8.618 0 0 1-1.102-.495.07.07 0 0 0-.099.03c-.022.033-.009.08.027.1.432.24.918.427 1.152.513-.012 0-.026 0-.041.003-.316.017-.707.037-1.186-.17-.578-.254-1.062-.953-1.26-1.273.095.024.21.044.333.067.204.039.436.082.588.135.604.205 1.136.682 1.563 1.067zm.65.078c-.031-.32-.135-.811-.447-1.407a.076.076 0 0 0-.1-.029c-.039.017-.05.062-.031.098a3.84 3.84 0 0 1 .43 1.341c-.08-.12-.18-.244-.286-.375-.247-.301-.524-.643-.65-1.055a4.425 4.425 0 0 1-.158-.89c-.027-.243-.05-.464-.128-.671.552.424 1.786 1.558 1.37 2.988zm2.18 4.83c.263-.47.516-1.322.223-2.23a.075.075 0 0 0-.093-.047.073.073 0 0 0-.048.092c.236.73.1 1.416-.094 1.877a2.159 2.159 0 0 0-.148-1.422c-.365-.774-.364-1.171-.362-1.721 0-.309 0-.669-.068-1.168.196.444.402.828.596 1.183.349.651.632 1.164.648 1.707.026.813-.19 1.383-.653 1.73zm-.075 1.724a.42.42 0 0 1 .417-.418.418.418 0 0 1 .417.418c0 .111-.041.216-.12.296a.421.421 0 0 1-.297.12.416.416 0 0 1-.417-.416zm-1.122 4.858c0-.103.042-.203.114-.274a.384.384 0 0 1 .276-.116c.106 0 .204.04.277.116.074.07.114.17.114.274a.388.388 0 0 1-.39.392.393.393 0 0 1-.39-.392zm-3.948 2.221c-.2.89-.406 1.808-1.448 2.44-.166.064-.317.139-.465.219.307-.463 1.106-1.666 1.537-2.503.018-.034.003-.081-.03-.098a.076.076 0 0 0-.103.03c-.443.865-1.29 2.133-1.566 2.54.148-1.448.733-2.112 2.345-3.606a6.773 6.773 0 0 0-.27.978zm.985.715a.405.405 0 0 1-.41.41.41.41 0 0 1-.286-.698.406.406 0 0 1 .287-.118.406.406 0 0 1 .409.406zm2.056-3.619a.518.518 0 0 0-.016.126l.002.063c-.02.227-.064.447-.136.643-.46 1.261-.86 1.704-1.098 1.969-.074.082-.135.15-.184.225-.023-.637.368-1.345.691-1.926.203-.364.375-.677.439-.932a.082.082 0 0 0-.056-.093.075.075 0 0 0-.09.056c-.058.24-.234.558-.423.899-.338.612-.752 1.357-.706 2.05-.008-.018-.019-.03-.025-.047-.31-.499-.628-1.014.088-2.034.834-1.192 1.205-1.822 1.18-2.72.202.359.357 1.054.334 1.721zm.88.126a.38.38 0 0 1-.11.265.375.375 0 0 1-.633-.201c.005-.06.01-.118.012-.178a.368.368 0 0 1 .354-.259.373.373 0 0 1 .377.373zm.218-1.426c-.037.11-.065.198-.083.272-.17-.485-.111-1.348-.066-2.013.018-.272.033-.505.033-.691 0-.042-.033-.07-.075-.07-.04 0-.073.028-.073.07 0 .18-.017.412-.036.679-.045.698-.102 1.529.071 2.049-.505-.452-.626-.948-.512-1.83.183-1.462.18-2.263-.008-2.672a2.725 2.725 0 0 1-.189-.523c.081.138.187.291.306.465.52.756 1.231 1.787.995 2.921-.141.673-.275 1.076-.363 1.343zm.34.722c.37-.056 1.235-.381 1.713-2.149.009-.036-.015-.078-.053-.09-.04-.007-.08.015-.09.054-.329 1.207-.883 1.793-1.36 1.98.229-.22.338-.516.477-.887.127-.349.285-.774.588-1.284l.243-.394c.395-.642.589-.956.655-1.816.077 1.128.117 2.607-.124 3.198-.299.726-1.15 1.471-1.72 1.501-.138.005-.248-.03-.328-.113zm-2.802 3.8c.034-.11.11-.194.224-.323.246-.27.66-.726 1.13-2.016a2.34 2.34 0 0 0 .112-.427c.01.013.023.026.033.04a.525.525 0 0 0 .544.122c-.518.95-1.202 1.82-2.043 2.604zm.092.294c.676-.026 1.832-.401 2.6-1.43a.075.075 0 0 0-.013-.104c-.035-.025-.081-.02-.105.015a3.554 3.554 0 0 1-2.257 1.35c.194-.125.39-.312.613-.524.29-.275.618-.585 1.035-.851.259-.164.502-.285.74-.403.46-.233.906-.452 1.342-.95-.466.92-1.382 2.463-2.512 2.897-.51.201-1.034.33-1.443 0zm-1.244 1.045c0-.11.043-.212.12-.287a.398.398 0 0 1 .29-.121c.11 0 .21.041.288.121a.407.407 0 0 1-.29.695.408.408 0 0 1-.408-.408zm-2.424 1.292c.063.006.13.022.202.03.603.11 1.61.284 2.606-.173.038-.017.052-.064.036-.1a.071.071 0 0 0-.1-.033c-.952.437-1.932.263-2.514.162-.065-.011-.124-.02-.176-.03.19-.086.376-.177.56-.268.328-.11.721-.169 1.304-.107.883.094 1.634-.076 2.075-.281-.754 1.009-1.96 1.969-3.993.8" style="fill:#6e0372;fill-opacity:1;fill-rule:nonzero;stroke:none;stroke-width:.352778" transform="translate(-377.043 -819.403) scale(5.38225)"/><path d="m72.659 165.741-.673 2.023.28.09.432-1.293c.87-.025.356 1.507.356 1.507l.317.108c.905-2.393-.712-2.435-.712-2.435M74.57 164.98l-.824-.273.137-.42-.31-.107-.141.418-.438-.146-.24.719 1.58.523.236-.714M73.676 168.124l.919.306c.354.118.41-.227.41-.227l.922-2.77-1.219-.41zm1.67-2.087-.577 1.727-.577-.193.573-1.727.58.193M78.077 161.574l-.271-.195c-.092.455-1.076 1.69-1.076 1.69l-.746-.545.895-1.224-1.148-.838-1.288 1.768.25.183.89-1.225.606.44-.895 1.23 1.007.738c.304.221.488-.08.488-.08l.189-.26c1.246-1.65 1.1-1.682 1.1-1.682M76.051 159.882l2.475 1.81.37-.507-2.475-1.806-.37.503M80.765 156.483l.869 1.337c.086.132.183.456.183.456l.56-.362c.022-.061-.194-.455-.194-.455l-1.04-1.595-2.575 1.676.17.262 2.027-1.32" style="fill:#73117e;fill-opacity:1;fill-rule:nonzero;stroke:none;stroke-width:.352778" transform="translate(-377.043 -819.403) scale(5.38225)"/><path d="m81.532 158.687-.736-1.126-.498.322.734 1.125-.4.26-.73-1.126-.47.306.737 1.128-.382.248.163.249 2.95-1.92-.165-.25-1.203.784M88.249 156.156l-.499-2.432-.632.13.504 2.43.627-.128M85.872 156.865l-.13-.635-.674.14.128.632c.062.3.435.273.435.273l2.733-.564-.071-.345-2.42.5M85.79 155.435c.478.416 1.184.27 1.184.27l.254-.387c-1.093.226-1.387-1.15-1.387-1.15l-.627.131c.284 1.597-.806 1.585-.806 1.585l.414.265c.643-.12.967-.714.967-.714M91.012 154.678c-.088.396.338.832.952.97.612.132 1.182-.077 1.272-.478.052-.237-.077-.485-.32-.676l.602.134.074-.335-.884-.199.057-.26-.747-.166-.058.26-.946-.21-.077.335.653.145c-.302.073-.525.241-.578.48zm1.634.362a.532.532 0 1 1-1.036-.23.532.532 0 0 1 1.036.23M94.672 154.47l-.623-.141-.405 1.796.627.14.222-.987.444.098.073-.32-.444-.1.106-.486M90.814 156.03l2.719.609-.154.69.622.14.23-1.02-3.342-.747-.075.329M97.868 158.295c-.103.046-1.046-.58-1.046-.58l1.077-1.685.774.497.178-.28-1.31-.837-1.253 1.96c-.19.296.365.609.365.609.683.434 1.03.607 1.03.607l.185-.29M99.598 157.798l-.358-.228.514-.8-.488-.313-1.651 2.576.49.315.95-1.49.356.23-.952 1.491.51.326 1.65-2.582-.51-.325-.51.8M106.134 164.49l-.297.095.749 2.297-1.518.494c-.15.05-.522.036-.522.036l.207.634c.152.078.52-.046.52-.046l1.814-.59-.953-2.92" style="fill:#73117e;fill-opacity:1;fill-rule:nonzero;stroke:none;stroke-width:.352778" transform="translate(-377.043 -819.403) scale(5.38225)"/><path d="m105.534 166.636-.185-.565-1.275.416-.145-.452 1.275-.416-.174-.532-1.278.42-.141-.432-.282.092 1.088 3.345.285-.093-.447-1.368 1.279-.415M103.449 161.655c.189-.152.248-.425.181-.724l.381.483.268-.213-.555-.712.208-.164-.475-.605-.209.167-.598-.768-.27.212.412.528c-.275-.136-.56-.146-.75.005-.322.252-.269.856.12 1.352.39.496.963.691 1.287.44zm-1.032-1.31a.53.53 0 0 1 .747.088.53.53 0 1 1-.835.655.527.527 0 0 1 .088-.744M103.553 163.159l.796-.626.283.36.259-.203-.279-.359.393-.308-.394-.505-1.454 1.132.396.509M101.297 160.578l-.269.207 1.718 2.192-.558.44.393.502.825-.648-2.11-2.693M72.694 172.682a.855.855 0 1 0 .002-1.711.855.855 0 0 0-.002 1.711M106.595 172.682a.856.856 0 1 1 0-1.712.856.856 0 0 1 0 1.712" style="fill:#73117e;fill-opacity:1;fill-rule:nonzero;stroke:none;stroke-width:.352778" transform="translate(-377.043 -819.403) scale(5.38225)"/><path d="M75.028 171.847c0-8.08 6.55-14.63 14.632-14.63 8.08 0 14.633 6.55 14.633 14.63 0 8.082-6.553 14.635-14.633 14.635-8.081 0-14.632-6.553-14.632-14.635zm22.038-10.314c.094-.143.283-.427.32-.69.177-1.443-1.509-1.764-3.161-1.707-1.377.048-3.676-.617-4.573-1.292-.896.675-3.195 1.34-4.572 1.292-1.652-.057-3.337.264-3.162 1.707.037.263.23.547.321.69.05.07.036.129.012.148-.024.015-.084.008-.138-.06-.102-.132-.316-.398-.558-.518-1.314-.61-2.14.89-2.596 2.48-.38 1.325-1.724 3.307-2.641 3.954.362 1.058.284 3.45-.185 4.745-.565 1.553-.78 3.254.643 3.532.266.046.593-.045.758-.091.082-.023.132.006.143.033.007.033-.016.087-.097.115-.159.058-.477.177-.666.371-.989 1.062.186 2.308 1.556 3.236 1.144.771 2.61 2.66 2.94 3.733 1.122-.019 3.37.794 4.459 1.642 1.305 1.018 2.854 1.747 3.559.48.125-.24.14-.576.146-.749.005-.085.047-.127.078-.128.03.002.074.043.078.128.006.173.022.508.147.75.706 1.266 2.254.537 3.56-.481 1.086-.846 3.336-1.66 4.454-1.642.333-1.073 1.802-2.962 2.943-3.731 1.37-.93 2.544-2.176 1.556-3.236-.187-.196-.508-.315-.666-.373-.08-.028-.104-.082-.097-.115.01-.027.063-.056.145-.032.163.047.494.136.758.09 1.425-.278 1.208-1.979.644-3.532-.471-1.295-.549-3.687-.187-4.745-.918-.647-2.258-2.63-2.64-3.954-.46-1.59-1.283-3.09-2.598-2.478-.24.12-.452.386-.56.517-.051.067-.111.074-.136.059-.023-.02-.033-.078.013-.148M74.268 175.18l-.856.456c-.124.068-.182.093-.271.135.098-.005.197-.01.31-.005l.962.026.116.466-1.784.602-.086-.359.956-.304c.113-.035.203-.06.3-.086a2.46 2.46 0 0 1-.297-.002l-1.066-.045-.075-.312.896-.492c.083-.044.203-.107.303-.149-.106.026-.215.045-.33.065l-.967.166-.088-.365 1.866-.267.111.47M74.936 177.505l-.306.05-.205-.609-.412.142.173.508-.293.1-.169-.507-.476.164.227.671-.306.104-.352-1.035 1.776-.6.343 1.012M75.492 178.93l-.31.06-.169-.414-1.446.595-.146-.356 1.445-.593-.172-.423.29-.12.508 1.25M75.803 179.407l-.63.368.272.465.63-.368.193.332-1.619.947-.194-.33.723-.423-.273-.465-.721.422-.189-.325 1.62-.948.188.325M76.613 182.178c-.338.258-.679.334-.961.209a.71.71 0 0 1-.297-.249c-.17-.225-.221-.417-.159-.644.06-.227.205-.425.421-.594.323-.243.675-.319.956-.193a.783.783 0 0 1 .307.251c.304.4.201.864-.267 1.22zM76.339 181c-.137.02-.286.098-.466.234-.257.198-.384.362-.382.501a.367.367 0 0 0 .086.218c.157.209.385.172.766-.113.151-.116.25-.215.314-.303a.338.338 0 0 0-.01-.404.324.324 0 0 0-.308-.133" style="fill:#73117e;fill-opacity:1;fill-rule:nonzero;stroke:none;stroke-width:.352778" transform="translate(-377.043 -819.403) scale(5.38225)"/><path d="M77.733 182.073c.073.08.168.189.214.248a.642.642 0 0 1 .14.429c-.01.24-.132.462-.38.691a1.074 1.074 0 0 1-.607.3.642.642 0 0 1-.505-.156 4.68 4.68 0 0 1-.193-.19l-.306-.339 1.385-1.262zm-1.151 1.061.134.147c.168.184.387.14.678-.129.163-.146.286-.286.327-.426.033-.114.014-.214-.086-.323l-.115-.127-.938.858M78.867 183.261l-1.28 1.367-.288-.27 1.283-1.367.285.27M79.649 184.624c-.067-.187-.14-.298-.252-.386-.117-.096-.256-.096-.337.004-.062.078-.05.145.042.277l.138.19c.186.258.193.52.019.734-.242.294-.637.297-1.001.002a1.356 1.356 0 0 1-.39-.532l.294-.143c.08.183.158.323.306.443.166.135.312.14.418.009.076-.095.062-.204-.038-.345l-.127-.173c-.112-.157-.155-.288-.137-.415a.536.536 0 0 1 .118-.276c.217-.265.581-.276.889-.025.176.143.313.345.366.54l-.308.097M81.253 185.249l-.228.224-.371-.25-.875 1.296-.315-.215.874-1.295-.38-.256.173-.26 1.122.756M83.007 186.181l-.198.252-.401-.2-.706 1.39-.341-.173.706-1.392-.408-.207.14-.278 1.208.608M83.511 186.388l-.268.679.504.197.267-.677.354.142-.686 1.742-.359-.14.308-.778-.5-.198-.309.777-.348-.14.688-1.742.35.138M85.77 187.14l-.133.286-.616-.181-.119.419.515.147-.084.295-.51-.145-.14.481.683.196-.091.312-1.049-.301.518-1.804 1.027.294M87.378 188.402c-.075.416-.276.704-.572.8a.726.726 0 0 1-.383.017c-.279-.053-.446-.162-.552-.37-.107-.207-.134-.452-.087-.725.076-.399.284-.685.578-.783a.827.827 0 0 1 .396-.022c.491.09.726.504.62 1.083zm-.992-.687c-.088.108-.147.264-.187.486-.058.32-.043.526.054.63.051.052.122.085.21.103.256.045.4-.13.486-.6a1.52 1.52 0 0 0 .033-.436.336.336 0 0 0-.28-.29.321.321 0 0 0-.316.107M88.18 187.538l-.136 1.556.668.06-.094.303-.986-.086.165-1.867.382.035M90.519 188.527c0 .423-.142.744-.415.893a.74.74 0 0 1-.374.086c-.283.002-.468-.073-.611-.258a1.109 1.109 0 0 1-.218-.697c-.004-.403.149-.728.418-.878a.82.82 0 0 1 .388-.093c.5-.002.808.358.812.947zm-1.107-.49c-.062.122-.093.287-.093.512.003.323.06.528.172.605.06.045.135.067.224.065.261 0 .37-.202.368-.677a1.471 1.471 0 0 0-.05-.435.336.336 0 0 0-.328-.238.331.331 0 0 0-.293.169M91.913 187.867a.6.6 0 0 0-.405-.098.382.382 0 0 0-.257.123c-.112.136-.12.338-.092.617.031.267.096.432.2.516.077.06.183.085.307.072a.455.455 0 0 0 .203-.07l-.048-.423-.283.032-.084-.3.723-.08.1.888c-.179.133-.38.213-.602.235-.277.034-.494-.035-.667-.213-.156-.157-.239-.35-.269-.628-.046-.395.051-.686.291-.89a.758.758 0 0 1 .439-.18.879.879 0 0 1 .617.145l-.173.254M92.816 187.281l.352 1.84-.39.074-.35-1.84.388-.074M94.298 187.292a.479.479 0 0 0-.316-.028.38.38 0 0 0-.266.24c-.042.122-.035.281.023.492.065.25.122.381.203.466.107.114.246.15.404.11a.468.468 0 0 0 .277-.199l.228.185a.771.771 0 0 1-.457.303c-.25.066-.465.04-.657-.092-.191-.127-.322-.327-.394-.592a1.214 1.214 0 0 1-.024-.597c.071-.299.289-.528.581-.604.182-.045.374-.038.497.024l-.1.292M95.378 186.526l1.204 1.559-.38.141-.277-.372-.516.192.026.463-.366.135-.074-1.975zm.351 1.069s-.125-.167-.226-.321c-.05-.073-.187-.285-.187-.285s.029.225.044.37c.015.134.018.232.026.36l.343-.124M96.414 186.09l.664 1.414.608-.285.074.312-.896.421-.797-1.698.347-.164M98.07 185.201l.669 1.033c.063.098.11.148.149.17.08.048.18.038.285-.029.139-.088.183-.212.122-.339a.988.988 0 0 0-.088-.143l-.65-1.01.324-.208.682 1.062c.097.15.114.18.136.264.038.151-.003.423-.343.641-.242.154-.464.196-.642.114-.106-.045-.162-.1-.257-.252l-.71-1.096.323-.207M99.509 184.194l.75.356c.197.096.377.203.495.285a9.43 9.43 0 0 1-.351-.383l-.486-.59.28-.227 1.177 1.457-.305.253-.701-.356a7.637 7.637 0 0 1-.585-.325c.107.114.249.287.349.403l.511.617-.28.229-1.18-1.457.326-.262M100.771 183.087l1.292 1.361-.287.269-1.29-1.36.285-.27M101.178 182.686l.93.427c.077.04.178.085.298.158a3.314 3.314 0 0 1-.203-.334l-.472-.859.266-.292.956 1.751-.23.254-1.825-.8.28-.305M102.73 180.806l.214.223-.387.512.347.261.325-.428.245.187-.322.425.401.301.426-.566.26.196-.658.867-1.496-1.127.644-.85M103.28 179.95c.174-.283.478-.352.757-.178.24.147.34.428.22.626a.306.306 0 0 1 .11-.022c.168-.021.854 0 .854 0l-.236.377c-.144-.004-.201-.004-.353-.014-.385-.018-.492-.018-.553.022a.203.203 0 0 0-.045.043l.664.41-.194.316-1.592-.99zm.515.702.065-.106c.086-.135.112-.203.098-.273a.27.27 0 0 0-.123-.162c-.098-.06-.192-.065-.265-.006a.647.647 0 0 0-.134.167l-.072.115.43.265M104.54 178.45c-.167.106-.26.202-.323.327-.068.14-.035.274.078.333.086.04.154.02.263-.1l.155-.18c.21-.238.462-.3.711-.178.34.17.43.556.223.977-.096.19-.257.375-.436.497l-.202-.256c.16-.114.282-.225.364-.394.097-.196.067-.336-.082-.408-.11-.058-.214-.018-.327.112l-.145.16c-.127.143-.244.216-.376.225a.538.538 0 0 1-.292-.056c-.305-.155-.396-.505-.22-.86.101-.207.267-.382.446-.476l.164.278M104.528 177.445l1.734.705-.148.364-1.735-.705.149-.364M105.045 175.95l.28.158-.141.425 1.48.491-.119.367-1.483-.492-.144.436-.297-.098.424-1.287" style="fill:#73117e;fill-opacity:1;fill-rule:nonzero;stroke:none;stroke-width:.352778" transform="translate(-377.043 -819.403) scale(5.38225)"/><path d="m105.146 175.538.554-.116c.11-.025.181-.034.253-.04a3.252 3.252 0 0 1-.202-.149l-.451-.354.099-.433.94.834.751.175-.09.384-.749-.178-1.208.318.102-.441M96.949 169.98v-2.194h-6.17v-4.291h-2.185v4.291H82.43v2.195h6.165v10.406h2.185v-10.406h6.17" style="fill:#73117e;fill-opacity:1;fill-rule:nonzero;stroke:none;stroke-width:.352778" transform="translate(-377.043 -819.403) scale(5.38225)"/><path d="M89.852 167.051c-.145-.107-.224-.454-.843-.55-.618-.098-.857-.123-1.63.11-.7.211-1.016.213-1.215.206-.398-.016-1.166-.228-1.248-.261-.08-.031-.126-.018-.232.136-.11.154-.453.78-.709.943-.26.167-.072.3-.024.418.046.116.367 2.816.485 3.437.115.622.111 1.71.099 1.822-.011.114-.024.36.493.327.52-.036 1.367-.036 2.116-.282.749-.245 1.351-.477 1.764-.155.219.167.314.417.348.56.036.143.103.243.314.196.211-.048.308.057.518-.093.21-.154.54-.778.878-.856.337-.077 1.149.007 1.628.09.482.082.678.061.935.103.257.04 1.217.042 1.506.088.289.048.44.053.461 0a.514.514 0 0 0-.046-.427c-.049-.09-.015-.81-.055-1.034-.042-.221-.145-1.054-.124-1.27.02-.214.03-.442-.006-.62-.036-.179-.061-1.128-.028-1.316.033-.184.042-.42.06-.522.02-.105.067-.612.008-.666-.061-.056-.245-.175-.336-.277-.095-.1-.201-.161-.282-.228-.082-.071-.235-.354-.337-.429-.102-.074-.133-.085-.247-.047-.114.04-.846.11-1.193.082-.348-.033-1.026-.08-1.244-.104-.227-.024-.4-.176-.789-.021-.391.154-.85.446-1.025.64" style="fill:#73117e;fill-opacity:1;fill-rule:nonzero;stroke:none;stroke-width:.352778" transform="translate(-377.043 -819.403) scale(5.38225)"/><path d="M84.775 166.875c.117-.01.18.52.236.78.054.258.054.598.086.867.038.264.081.756.093.848.012.097.012.258-.034.145a1.774 1.774 0 0 1-.078-.479c0-.117-.09-.408-.101-.486-.013-.074-.026-.157-.067-.132-.042.021-.054.177-.005.255.05.081.062.217.07.276.009.058.018.221.036.312.016.09.043.407.078.596.035.187.073.693.089 1.034.018.34-.007.814.012.953.02.141.057.216.034.329-.022.109-.146.395-.203.55-.057.153-.194.517-.26.551-.062.034-.111-.162-.1-.305.01-.14-.015-.432-.022-.706a14.292 14.292 0 0 0-.113-1.329c-.056-.434-.16-1.041-.212-1.382-.054-.341-.096-.924-.16-1.144-.06-.222-.107-.49-.054-.42.053.071.104-.03.085-.108-.018-.077-.095-.14.006-.192.1-.047.194-.135.213-.192.016-.058.048-.103.135-.23.085-.117.179-.39.236-.39" style="fill:#fff;fill-opacity:1;fill-rule:evenodd;stroke:none;stroke-width:.352778" transform="translate(-377.043 -819.403) scale(5.38225)"/><path d="M89.951 167.307c.049-.196.19-.281.479-.475.29-.196.507-.304.72-.304.209 0 .761.137 1.094.18.331.044.874.007 1.074 0a4.37 4.37 0 0 1 .708.044c.063.023.05.123.017.28-.031.155-.061.199-.096.328-.034.13-.03.526-.022.678.011.156-.028.39-.021.688.005.3.049.64.072.818.021.18.028.437.028.634a20.58 20.58 0 0 0 .033 1.203c.018.167.128.48.068.511-.06.027-.208-.007-.339 0-.129.004-.103.011-.5.067-.399.057-.86-.032-1.271-.081-.414-.043-.764-.062-1.106-.01-.339.05-.587.171-.812.22-.228.046-.193-.105-.255-.141-.066-.036-.133.08-.136.101 0 .02-.044.28-.044.28s-.133-.17-.462-.28c-.327-.11-1.083-.016-1.552.01-.466.03-.653.207-.886.23-.235.024-1.07-.01-1.248-.033-.176-.024-.124-.77-.126-1.09-.002-.323.071-.269.113-.433.044-.163-.042-.756-.05-1.2-.007-.45-.212-1.408-.243-1.649-.034-.24-.13-.888-.156-.985-.024-.094-.011-.154.08-.123.09.031.554.163 1.057.203.497.04 1.093-.121 1.562-.294.47-.17.891-.074 1.179.015.294.087.515.252.699.412.184.161.166.29.147.462-.023.177.04.304.09.304.11-.007.058-.376.105-.57M95.06 167.843c-.061.01-.07.246-.09.404-.019.161-.001.257.067.182.07-.077.042.085.045.282.005.198.04 1.195.056 1.64.019.444.068 1.24.09 1.36.022.118.042.599.08.798.04.198.025.413-.023.36-.048-.054-.134-.091-.15-.152a3.127 3.127 0 0 1-.03-.492c.002-.173-.041-.568-.089-.615-.047-.048.02.613.034.769.012.158-.012.25-.058.229-.048-.024-.144-.042-.144-.165 0-.126-.026-.365-.012-.541.013-.175-.037-.336-.022-.484.015-.147-.015-.378-.046-.386-.033-.008-.024.505-.017.648.007.14-.016.605-.016.639.002.035-.116-.105-.147-.17-.03-.064-.044-.289-.01-.494.03-.205.03-.62.039-.788.005-.172-.04-.143-.074-.135-.032.01-.036.37-.045.55-.005.184-.023.4-.011.596.01.197-.02.122-.079.033-.058-.084-.149-.17-.157-.254-.008-.086-.008-.69-.01-.858-.005-.168-.065-.589 0-.73.06-.14.077-.537.08-.748.005-.208-.034-.457-.03-.751 0-.294.11-1.138.124-1.263.016-.125.085-.294.116-.305.035-.015.064.143.08.179.014.032.088-.03.136-.006.052.027.08.29.055.378-.025.083-.086.28-.024.314.065.03.085-.08.08-.179-.006-.097.07-.273.11-.265.042.008.177.056.194.202.016.148-.02.288-.057.307 0 0 .017-.097-.045-.088M85.775 172.497c.125.012.696.03.9.025.2-.007.602-.118.685-.136.082-.018.139.032.135.11-.002.083-.35.07-.497.075-.148.011-.087.153.04.202.129.049.539-.026.66-.027.119-.005.086.143 0 .168-.087.022-.359.122-.63.224a3.926 3.926 0 0 1-.747.188c-.143.02-.28.014-.39.036-.109.026-.288.04-.386.02a2.966 2.966 0 0 0-.45-.007c-.084.005-.02-.131.029-.226.043-.095.02-.044.09-.046.065-.007.265-.061.303-.121.036-.062-.263-.024-.293-.034-.03-.012.081-.175.123-.293.04-.118.013-.187.105-.22.122-.01.196.051.323.062" style="fill:#fff;fill-opacity:1;fill-rule:evenodd;stroke:none;stroke-width:.352778" transform="translate(-377.043 -819.403) scale(5.38225)"/><path d="M89.35 173.326c-.173-.178-.244-.31-.409-.384-.168-.076-.477-.211-.557-.218-.083-.008-.054.038-.205.09-.15.049-.208.128-.223.055a.695.695 0 0 1-.012-.227c.01-.003.538-.02.538-.02s.14-.074.053-.089c-.09-.01-.141-.025-.36-.042-.217-.016-.323 0-.397-.009-.068-.007-.031-.03.031-.084.065-.055.22-.17.308-.14.085.03.072.105.256.081.18-.022.251-.108.326-.093.074.013.16.044.211.059.053.018-.033.128.1.157.136.031.377.071.43.122.054.05.267.24.23.313-.039.072-.069.023-.23-.039-.163-.063-.174-.132-.225-.1-.052.028-.077.088.045.156.125.068.285.258.23.356-.056.105-.103.094-.14.056M89.879 173.484c.08.036.076-.044.169-.098.09-.053-.036-.104-.015-.17.027-.061.128-.128.137-.2.01-.072.105-.133.203-.194.097-.06.14-.035.115.036-.026.067.076.039.147.032.073-.002.04.106-.046.156a.945.945 0 0 0-.26.228c-.113.12-.191.216-.317.326-.126.11-.273-.007-.32-.023-.046-.017-.023-.114.005-.157.062-.08.101.026.182.064" style="fill:#fff;fill-opacity:1;fill-rule:evenodd;stroke:none;stroke-width:.352778" transform="translate(-377.043 -819.403) scale(5.38225)"/><path d="M89.809 173.175c-.165-.043-.048-.078-.035-.199.012-.124.055-.23.075-.328.016-.1.199-.305.408-.414.21-.11.566-.166.72-.16.155.011.541-.083 1.198.018.657.104 1.248.01 1.466-.004.218-.014.477-.067.561-.023.086.042.205.197.248.225.043.027.138.061.066.101-.068.037-.14.002-.291 0-.15-.004-.536-.002-.63.03-.093.03-.061.077.016.11a.624.624 0 0 0 .298.022c.092-.017.143.054.194.101.05.047.173.051.279.028.108-.022.378-.048.432-.011.052.034.135.098.042.11-.096.018-.437-.009-.506.015-.07.023-.033.089.073.079.103-.012.358.005.454.005.092 0 .25 0 .282.039.029.042.131.133.038.127-.096-.01-.374.013-.47-.015-.096-.035-.545-.042-.75-.068a3.942 3.942 0 0 0-.674 0c-.155.018-.254.045-.456.02-.204-.022-.84-.13-.993-.145-.155-.01-.187.028-.32-.004-.133-.03-.53.024-.545-.029-.02-.047.005-.104-.05-.115-.055-.014-.14-.026-.107-.088.033-.066.017-.136-.15-.066-.169.071-.31.138-.323.08-.015-.062.105-.181.28-.225.177-.045.313-.103.464-.09.153.012.302.021.435.021s.325.007.286-.025a.572.572 0 0 0-.282-.084 3.627 3.627 0 0 1-.447-.043c-.065-.013-.222.029-.31.063-.087.033-.424.089-.483.17-.06.078-.164.102-.168.146-.004.042.138.11.073.174-.06.064-.108.104-.186.184-.079.081-.115.279-.212.268" style="fill:#fff;fill-opacity:1;fill-rule:evenodd;stroke:none;stroke-width:.352778" transform="translate(-377.043 -819.403) scale(5.38225)"/><path d="M94.364 166.855c-.066.02-.226.2-.226.29 0 .095-.047.364-.035.577.015.21-.008.326 0 .53.008.205-.012.492.038.545.052.06.049.119.064-.087.015-.21.062-.878.069-1.121.007-.242.062-.393.055-.503-.007-.11.051-.148.035-.23" style="fill:#fff;fill-opacity:1;fill-rule:nonzero;stroke:none;stroke-width:.352778" transform="translate(-377.043 -819.403) scale(5.38225)"/><path d="M94.574 167.31c.01.022-.063.153-.058.253.007.103.072.144.081-.005.007-.151.04-.245-.023-.248M94.564 167.77s-.136.12-.086.357c.051.24.007.538.007.584 0 .05.11.04.089-.063-.023-.103-.008-.554 0-.642.008-.088.023-.226-.01-.236M95.047 168.064c-.009.094-.069.228 0 .228.07 0 .058.048.058-.076 0-.127-.026-.204-.058-.152M94.955 168.635c-.072.025-.01.225 0 .289.007.062.04.127.047-.064.004-.187.019-.245-.047-.225M94.152 169.141c.03.14 0 .29.038.251.039-.04.061-.14.061-.21 0-.07-.069-.126-.1-.04M94.382 170.455c-.05.004-.046.176-.046.285 0 .111.009.416.046.425.04.009.056-.173.06-.25.008-.083-.023-.093-.004-.233.02-.143.055-.23-.056-.227M85.503 172.668c-.089.147-.099.234.054.206.15-.034.18-.096.173-.127-.005-.029-.073-.09-.227-.079M89.842 168.176l.056.01c.03.06.055.06.057.156-.016.014-.04.078-.047.081h-.056a.148.148 0 0 0-.032-.045.49.49 0 0 1 .022-.202M89.786 168.771c.043 0 .068.007.098.011.02.035.114.187.058.247-.007.027-.009.03-.023.045h-.011c-.004.011-.006.024-.01.033a.06.06 0 0 1-.023.013c-.003.014-.01.03-.011.045h-.012c-.04.11.09.203.067.28h-.011v.034c-.01.025-.038.036-.056.058-.023-.007-.009 0-.023-.013-.027-.009-.016-.005-.033-.021h-.01v-.024h-.012l-.013-.045h-.01v-.246h.01a.46.46 0 0 0 .025-.16v-.123c-.009-.02-.043-.068-.025-.112 0 0 .018-.013.025-.022M89.76 170.044h.082c.039.061.138.22-.022.233v-.011h-.034a.129.129 0 0 1-.012-.021h-.022v-.01c-.017-.016-.016-.01-.024-.033-.023-.03-.003-.105 0-.139.015-.005.027-.009.033-.02M89.718 170.638h.034c.034.042.097.065.112.126.027.024.011.051.02.098h.014c.017.064-.015.126-.046.146-.036.038-.078.012-.124 0-.015-.025-.044-.046-.056-.077a.957.957 0 0 1 .012-.262l.034-.031M89.741 171.312c.036 0 .052.006.079.01.009.015.022.032.032.046h.012a.61.61 0 0 1 .044.18h-.01v.034l-.023.01c-.032.047-.01.047-.089.047l-.102-.114a.369.369 0 0 1 .057-.213" style="fill:#6e0372;fill-opacity:1;fill-rule:nonzero;stroke:none;stroke-width:.352778" transform="translate(-377.043 -819.403) scale(5.38225)"/><path d="M86.04 168.412a.11.11 0 0 0 .01.045.1.1 0 0 0 .134.028l.04-.035c.068-.108.185-.141.3-.163.01.065.019.129.034.192.017.053.07.08.12.067a.098.098 0 0 0 .065-.117 1.243 1.243 0 0 1-.036-.233c.086-.02.169-.042.257-.066v.647c0 .05.04.094.091.094a.096.096 0 0 0 .097-.094v-1.263a.096.096 0 0 0-.097-.097c-.05 0-.091.043-.091.097v.43c-.015 0-.03 0-.043.005-.074.006-.145.032-.216.055.005-.135.014-.273.01-.409a.096.096 0 0 0-.096-.095.094.094 0 0 0-.096.095c.006.17-.008.334-.008.502a.852.852 0 0 0-.307.104c-.018-.19-.043-.382-.064-.57a.094.094 0 0 0-.094-.094.094.094 0 0 0-.096.095c.028.247.057.495.082.745l.003.035M88.376 168.147c.076-.137.127-.307.04-.454a.49.49 0 0 0-.312-.234h-.01a.167.167 0 0 0-.005-.072.14.14 0 0 0-.179-.09.645.645 0 0 0-.375.729c.036.15.166.252.303.312a.43.43 0 0 0 .538-.19zm-.439-.533c.007.06.05.113.115.125.051.025.1.054.12.114l.011-.026c-.022.105-.05.253-.181.253-.085.004-.158-.06-.196-.132a.422.422 0 0 1 .131-.334M89.128 167.909c-.071-.02-.146-.014-.218-.03.005-.067.007-.135.005-.203.046.004.09.004.134.004.053 0 .095-.04.095-.09 0-.052-.042-.1-.094-.1-.045 0-.092.007-.138-.006 0-.046 0-.09.002-.133a.141.141 0 1 0-.283 0c0 .208.005.417-.01.623-.003-.005-.003-.012-.005-.019a.141.141 0 0 0 .087.184.14.14 0 0 0 .174-.074c.068.015.137.015.205.026a.094.094 0 0 0 .116-.07c.011-.05-.019-.102-.07-.112M88.35 168.53c0-.004 0-.008-.002-.014a.097.097 0 0 0-.126-.042c-.264.09-.454.416-.305.682.1.183.302.225.49.21a.354.354 0 0 0 .257-.161c.096-.14.142-.3.086-.457-.059-.166-.241-.205-.4-.218zm.054.639c-.088.019-.185.019-.263-.035a.215.215 0 0 1-.088-.188.355.355 0 0 1 .176-.27c.018.02.04.035.068.038.096.012.2.014.274.083.037.136-.019.332-.167.372M91 168.037c.064.005.124-.024.18-.049.212-.087.33-.342.193-.547-.097-.148-.258-.207-.402-.276-.003-.003-.01-.003-.012-.005-.03-.018-.07-.026-.103-.006-.247.098-.43.405-.325.666.074.176.298.21.47.217zm-.097-.698c.136.071.348.135.333.317-.01.111-.127.177-.231.191-.105.012-.205-.034-.295-.08-.057-.163.044-.348.193-.427M91.68 168.168a.094.094 0 0 0-.1-.09c-.07.005-.137.027-.209.037-.333.03-.658.088-.991.081a.097.097 0 0 0-.096.096c0 .05.042.092.096.092.404 0 .812-.052 1.214-.116a.091.091 0 0 0 .086-.1M91.501 169.327c-.006-.051-.052-.093-.103-.087a.693.693 0 0 1-.48-.084c-.064-.04-.058-.13-.064-.201v-.024l.004-.002c.162-.02.33-.013.488-.06l.046-.03a.1.1 0 0 0 .031-.062l.002-.036c.01-.035.011-.075.024-.11l.001-.026a.084.084 0 0 0-.01-.093l-.01-.014a.1.1 0 0 0-.086-.037l-.048.004c-.23.026-.464.031-.699-.004a.094.094 0 0 0-.11.071c-.01.05.023.104.074.114.225.035.458.035.688.012-.003.016-.005.03-.01.043-.139.025-.28.022-.422.043h-.014a.093.093 0 0 0-.078.044l.002.003c-.008.006-.013.017-.02.026l-.025.031c-.007.01-.01.02-.013.029l-.003.038c-.01.095.018.189.038.28.141.23.468.26.71.237a.1.1 0 0 0 .087-.105M93.413 167.287a.093.093 0 0 0-.094-.094.094.094 0 0 0-.096.094c-.002.12 0 .238 0 .358-.08.01-.156.035-.238.031.001-.046.001-.1-.002-.153l-.011-.054a.09.09 0 0 0-.093-.063h-.027c-.196.017-.39.072-.59.072a.106.106 0 0 0-.046.011.081.081 0 0 0-.037.004.094.094 0 0 0-.07.112c.04.169.065.34.084.51.001.054.045.09.098.089a.087.087 0 0 0 .024-.007c.018.033.047.05.085.05.2.007.48-.04.545-.258.011-.04.019-.08.027-.119h.003c.085.005.164-.02.248-.03a3.903 3.903 0 0 1-.024.442c0 .053.04.094.091.096a.1.1 0 0 0 .1-.094c.037-.33.018-.664.023-.996zm-.617.236v.014l-.003-.003zm-.397.536c-.008 0-.014 0-.022.005a6.943 6.943 0 0 0-.062-.401c.163-.006.32-.038.48-.058a2.755 2.755 0 0 1-.032.365c-.116.056-.234.104-.364.09M93.112 168.474a.093.093 0 0 0-.03-.056l-.011-.011a.097.097 0 0 0-.068-.03h-.034c-.167.013-.335.027-.506.039a.093.093 0 0 0-.094.092c0 .052.041.094.094.094.158-.007.315-.02.472-.03l.002.014c-.005.136.017.27-.011.407a.099.099 0 0 0 .088.104c.051.003.098-.032.102-.084.023-.162.016-.332.001-.497l-.005-.042M86.477 170.633a.097.097 0 0 0-.029.133c.046.086.121.172.095.277a.26.26 0 0 1-.3.187c-.15-.027-.193-.212-.178-.342.015-.168.2-.24.346-.29a.096.096 0 0 0 .057-.12.098.098 0 0 0-.121-.06c-.21.065-.443.194-.47.438-.028.222.067.509.32.56a.458.458 0 0 0 .53-.32c.049-.162-.043-.301-.117-.43a.099.099 0 0 0-.133-.033M87.143 170.345c-.053 0-.096.041-.096.09.017.207.063.407.044.615-.009.137-.027.271-.042.407-.004.051.037.095.09.098a.092.092 0 0 0 .098-.089c.06-.34.055-.687 0-1.03 0-.05-.04-.091-.094-.091M88.425 170.208H88.4c-.16.003-.319.018-.478.013a.096.096 0 0 0-.095.095c0 .053.043.094.095.094a3.73 3.73 0 0 0 .408-.01c0 .04-.006.077-.014.118.001-.01.001-.018.003-.026-.143 0-.284.022-.418.072l-.04.02a.09.09 0 0 0-.055.077l-.002.03c.007.256.033.516.023.771v.019c0 .028.013.056.038.074l.013.01c.02.015.047.024.076.017l.033-.007c.122-.032.241-.085.368-.072a.097.097 0 0 0 .097-.096.096.096 0 0 0-.097-.095.943.943 0 0 0-.339.057c.002-.214-.012-.424-.022-.636.145-.06.31-.018.45-.102.1-.065.064-.195.082-.291l-.02-.084a.092.092 0 0 0-.081-.048M89.206 170.99c-.103.012-.211-.012-.313.012-.009-.244-.038-.485-.046-.728a.093.093 0 0 0-.1-.086.095.095 0 0 0-.091.098c.017.4.083.808.032 1.213a.094.094 0 0 0 .064.116.098.098 0 0 0 .12-.063c.018-.119.024-.237.024-.356.005 0 .007 0 .01-.004.1-.022.2-.006.3-.011a.096.096 0 0 0 .096-.098.097.097 0 0 0-.096-.094M90.09 171.53c.178.002.351-.015.535-.046.254-.036.502-.041.755-.038a.092.092 0 0 0 .092-.092c0-.055-.04-.099-.092-.099a4.477 4.477 0 0 0-.232 0c.006-.1.011-.198.014-.297l.004.002a.094.094 0 0 0-.034-.098c.079-.067.131-.156.117-.267a.69.69 0 0 0-.376-.507.098.098 0 0 0-.121.059c-.013.05.01.105.062.122.12.092.29.245.225.418-.094.09-.258.118-.348.022-.083-.09-.072-.233.01-.326a.091.091 0 0 0-.026-.131.092.092 0 0 0-.13.027.44.44 0 0 0-.02.53c.028.038.058.07.098.091-.053.004-.095.044-.095.097.003.102.01.206.019.308-.15.018-.302.041-.457.033a.094.094 0 0 0-.094.095c0 .051.04.097.094.097zm.888-.592c-.018.108-.013.217-.02.327-.074.006-.15.01-.223.017a5.978 5.978 0 0 1-.016-.285.092.092 0 0 0-.024-.063c.09.03.193.028.283.004" style="fill:#73117e;fill-opacity:1;fill-rule:nonzero;stroke:none;stroke-width:.352778" transform="translate(-377.043 -819.403) scale(5.38225)"/><path d="M92.044 171.018c-.078.002-.155 0-.234.002a.427.427 0 0 0 .103-.225.55.55 0 0 0-.176-.522c-.052-.043-.127-.047-.194-.027-.05.008-.082.06-.072.109.01.053.058.08.11.075.025-.005.057-.013.068.005a.451.451 0 0 1 .085.322c-.022.14-.14.228-.254.284l-.031.021a.089.089 0 0 0-.042.087.093.093 0 0 0 .1.084l.035-.002c.165-.034.337-.021.502-.026a.096.096 0 0 0 .095-.094c-.004-.051-.045-.094-.095-.093M92.197 170.246a.095.095 0 0 0-.072.112c.061.254.091.521.072.785-.01.05.02.1.07.112a.091.091 0 0 0 .113-.068 2.662 2.662 0 0 0-.07-.871.094.094 0 0 0-.113-.07M92.698 170.584a.094.094 0 0 0 .094-.092v-.12a.094.094 0 0 0-.094-.095.092.092 0 0 0-.092.095v.12c0 .05.04.092.092.092M92.696 170.864c-.053.01-.087.056-.079.107.006.045.006.09.011.133 0 .05.047.092.098.092a.1.1 0 0 0 .09-.1 1.2 1.2 0 0 0-.014-.151.097.097 0 0 0-.106-.081M93.062 170.22a.093.093 0 0 0-.094.094c.011.27.004.542.033.812a.1.1 0 0 0 .102.086.094.094 0 0 0 .085-.102c-.027-.265-.02-.532-.033-.796a.094.094 0 0 0-.093-.094M93.823 170.316l-.005-.042a.093.093 0 0 0-.037-.064l-.018-.007a.075.075 0 0 0-.067-.015l-.033.007c-.091.007-.187.01-.28.016a.098.098 0 0 0-.075-.04.097.097 0 0 0-.097.095c-.005.12.029.24.027.357 0 .05.043.092.094.092.05 0 .093-.043.093-.093.002-.077-.01-.15-.017-.224.074-.006.151-.006.23-.015 0 .297 0 .592-.039.886a.094.094 0 0 0 .189.01c.039-.319.035-.642.035-.963zm-.093.053h-.005.008-.003" style="fill:#73117e;fill-opacity:1;fill-rule:nonzero;stroke:none;stroke-width:.352778" transform="translate(-377.043 -819.403) scale(5.38225)"/></svg>