<svg xmlns="http://www.w3.org/2000/svg" viewBox="0 0 142.59 142.59"><path d="M71.29 126.78a55.5 55.5 0 1 0-39.23-16.26 55.14 55.14 0 0 0 39.23 16.26ZM17 71.29a54.28 54.28 0 0 1 92.66-38.38 54.28 54.28 0 1 1-76.76 76.76A53.93 53.93 0 0 1 17 71.29Z" style="fill:#0071be"/><path d="M88.84 123.14A52.13 52.13 0 0 1 71.22 126a51.86 51.86 0 0 1-17.6-2.9l-5 15a74.09 74.09 0 0 0 22.66 3.76 73.67 73.67 0 0 0 22.56-3.83ZM58.05 34.25v.83h3.56s.21 2.6-3.58 2.62v.84s4.62.31 4.75-3.46v-.83ZM82.86 33.8v.33c.46 0 .48.65.48.65v2h-1.08v-3h-1.64v.34a.46.46 0 0 1 .26.15.93.93 0 0 1 .23.63v4.14H81a6.72 6.72 0 0 1-2.5.43h-.64V35h2v-.8h-3.69v.29a.66.66 0 0 1 .53.6v4.8a.53.53 0 0 0 .54.5h1.22a8.23 8.23 0 0 0 2.43-.39l.22-.07v2.95h1.15v-5.21h1.08v5.26h1.16V33.8Z" style="fill:#0071be"/><path d="M65.6 35.94V33.8h-1.67v.33a.62.62 0 0 1 .51.56v4.7a4.11 4.11 0 0 0-2-.51c-1.75 0-3.16 1-3.16 2.19s1.41 2.2 3.16 2.2a3.81 3.81 0 0 0 2.42-.78 2.46 2.46 0 0 0 .68-1.13 2.37 2.37 0 0 0 0-.49v-4.1h1.14v-.83Zm-3.17 6.49c-1.12 0-2-.62-2-1.36s.88-1.36 2-1.36 2 .62 2 1.36-.88 1.36-2 1.36ZM74.64 35.93V33.8H73v.33a.83.83 0 0 1 .26.15 1 1 0 0 1 .22.63v2.15h-.1a17.33 17.33 0 0 1-4.17.38h-.46v-.18l.06-3.13h-1.65v.27a.71.71 0 0 1 .47.65v2.8a.41.41 0 0 0 .44.42h1.12a29.11 29.11 0 0 0 4.09-.27l.21-.05v1.29h-5.28v.29a.61.61 0 0 1 .26.15 1 1 0 0 1 .22.63v2.19a.46.46 0 0 0 .1.3.49.49 0 0 0 .33.11h5.51v-6.13h1.13v-.85Zm-1.16 6.15h-3.67v-2h3.67Z" style="fill:#0071be"/><path d="M71.29 142.59A71.29 71.29 0 0 0 121.7 20.88 71.29 71.29 0 0 0 20.88 121.7a70.82 70.82 0 0 0 50.41 20.89Zm-70-71.3a70 70 0 0 1 119.53-49.52 70 70 0 0 1-99 99.05A69.59 69.59 0 0 1 1.25 71.29Z" style="fill:#0071be"/><path d="M136.5 68.92a3.36 3.36 0 0 0-5.73 2.37 3.36 3.36 0 1 0 5.73-2.37ZM11 69a3.36 3.36 0 1 0-2.43 5.7A3.36 3.36 0 0 0 11 69ZM108.49 35.05H93.41v43.07c0 6.3-1 11.35-2.88 15-3.88 7.37-10.17 11-19.24 11-7.91 0-14.75-3.81-18.3-10.19-2.35-4.15-3.54-9.46-3.54-15.79V35.05H33.17v40.34c0 11.27 1.56 20.09 4.62 26.22 5.92 11.84 18.45 18.91 33.5 18.91s27.81-7.07 33.78-18.91c3.07-6.14 4.62-15 4.62-26.22V35.05Z" style="fill:#0071be"/><path d="M61.3 58.74a10.48 10.48 0 0 0 19.9.2l-1.14-.4a9 9 0 0 1-8.74 6.3 9.12 9.12 0 0 1-8.86-6.42Z" style="fill:#0071be"/><path d="M71.26 96.43a20.33 20.33 0 1 0-14.36-6 20.22 20.22 0 0 0 14.36 6ZM52.15 76.11a19.12 19.12 0 1 1 5.6 13.52 19 19 0 0 1-5.6-13.52ZM51.84 71.3l38.5-.01" style="fill:#0071be"/><path d="M51.84 70.46h38.5v1.69h-38.5zM62.79 93.81a8.76 8.76 0 0 1 17 0l1.21-.36a10 10 0 0 0-19.36.13Z" style="fill:#0071be"/><path d="M70.46 56.37h1.68v39.46h-1.68z" style="fill:#0071be"/><path d="M56.66 89.57a18.14 18.14 0 0 1 14.63-7.24 18.14 18.14 0 0 1 14.23 6.82l.94-.74a19 19 0 0 0-15.25-7.28 19 19 0 0 0-15.64 7.8Z" style="fill:#0071be"/><path d="M53 83.79a27.2 27.2 0 0 1 18.16-7A27.16 27.16 0 0 1 89 83.58l.81-.9a27.87 27.87 0 0 0-18.71-7.07 27.93 27.93 0 0 0-19 7.34ZM87 29.16l2.67 2.66v18.51H73.82c-.58 0-1 .6-1.25 1.05a2.5 2.5 0 0 1-.16.24h-2.47a2.49 2.49 0 0 1-.17-.24c-.28-.45-.66-1.05-1.25-1.05H52.63V31.82l2.69-2.66-.11-.73a.38.38 0 0 0-.29.1L52 31.42a.34.34 0 0 0-.11.25v19a.36.36 0 0 0 .36.36h16.27c.19 0 .49.48.64.71s.37.59.66.59h2.71c.28 0 .44-.25.65-.59s.45-.71.64-.71h16.25a.36.36 0 0 0 .36-.36v-19a.33.33 0 0 0-.1-.25l-2.9-2.89a.36.36 0 0 0-.28-.1Z" style="fill:#0071be"/><path d="M87.19 28.44H73.71a3.8 3.8 0 0 0-2.54 1.2 3.77 3.77 0 0 0-2.53-1.2H55.16a.36.36 0 0 0-.36.36v19a.36.36 0 0 0 .36.36H68.8a2.33 2.33 0 0 1 2 1 .35.35 0 0 0 .3.16h.23a.37.37 0 0 0 .3-.16 2.32 2.32 0 0 1 1.94-1h13.62a.36.36 0 0 0 .36-.36v-19a.36.36 0 0 0-.36-.36Zm-16 20.08a3 3 0 0 0-2.39-1.08H55.52V29.16h13.12a3.39 3.39 0 0 1 2.26 1.24.36.36 0 0 0 .27.12.33.33 0 0 0 .27-.12 3.45 3.45 0 0 1 2.27-1.24h13.12v18.28H73.55a3 3 0 0 0-2.38 1.08ZM15.53 40.84l-1.63-4.52-1 1.86 1.72 4.36-3.16-1.7-.76 1.42-.26.49.3.17a.58.58 0 0 1 .3-.18 1.17 1.17 0 0 1 .76.11l6.56 3.54.76-1.39-2.56-1.38-.41-1.11 4.49-.32 1-1.86ZM49.12 8.17l-1.74.64-.9.34.12.32a.66.66 0 0 1 .34.06 1.1 1.1 0 0 1 .5.64l.31 7.77 1.61-.59-.11-1.86 2.71-1L53.05 16l1.66-.61Zm0 5.76-.23-3.57L51 13.24ZM17.67 31.11l-1.09 1.5-.56.78.28.21a.55.55 0 0 1 .31-.14 1.08 1.08 0 0 1 .78.25L22 40l1-1.38-1.13-1.49 1.7-2.33 1.74.64L26.34 34Zm3.23 4.76L18.72 33l3.35 1.22ZM83.58 5.52l-.93 6L80.5 5h-.33l-1.92-.3v.34a.62.62 0 0 1 .27.21 1.21 1.21 0 0 1 .15.75l-.37 2.35c-.07.46-.13.8-.13.8l-.66 4.23 1.51.24 1-6.11 2.21 6.6 1.62.25 1.34-8.59ZM41 11.66 43.89 17l-5.65-3.84-.29.16-1.7.93.16.3a.56.56 0 0 1 .34 0 1.07 1.07 0 0 1 .57.5l1.14 2.09.39.71 2 3.76 1.34-.73-3-5.43 5.77 3.9 1.43-.78-4.16-7.64ZM24.38 23.39l4.4 4.18-6.55-1.93-.24.25-1.33 1.4.25.24a.64.64 0 0 1 .33-.1 1.11 1.11 0 0 1 .69.31l1.73 1.64.58.56 3.11 2.95 1-1.11-4.48-4.26 6.68 1.95 1.13-1.19-6.3-6ZM122.88 28.74l-.34-.46-.28.2a.69.69 0 0 1 0 .35 1.2 1.2 0 0 1-.46.66l-6 4.41 1 1.31 7-5.16ZM88.67 6.57l-.55-.14-.12.33a.72.72 0 0 1 .25.24 1.21 1.21 0 0 1 .06.8L86.47 15l1.53.4L90.24 7ZM97 9.34 93.16 15l.59-6.8-1.48-.52h-.14l-.23-.08-.11.33a.56.56 0 0 1 .22.26.91.91 0 0 1 .07.45v.08l-.35 8.05 1.46.51 5.38-7.38ZM98.74 18.12l1.09-2 3.33 1.88.73-1.32-3.33-1.85.9-1.61 3.62 2 .75-1.35-5-2.79-.49-.27-.16.3a.64.64 0 0 1 .17.3 1 1 0 0 1-.08.67l-3.66 6.6 5.18 2.88.76-1.37ZM109 26a5.47 5.47 0 0 1 .46-.67l.35-.47a3.12 3.12 0 0 0 .64-1.22 1.5 1.5 0 0 0-.2-1 1.63 1.63 0 0 0 1.25-.12 2.69 2.69 0 0 0 1-.8 2.87 2.87 0 0 0 .44-.82 3 3 0 0 0 .06-.9 2 2 0 0 0-.24-.94 3.16 3.16 0 0 0-.87-.94l-2-1.49-1.54-1.16-.21.27a.61.61 0 0 1 .13.32 1.09 1.09 0 0 1-.21.71l-4.51 6 1.27 1 2.12-2.77 1.35 1a1.37 1.37 0 0 1 .62.81 1.78 1.78 0 0 1-.45 1l-.48.65a4.85 4.85 0 0 0-.4.64l-.2.44 1.44 1.09.13-.18A.73.73 0 0 1 109 26Zm1-4.6a1.79 1.79 0 0 1-.74-.38l-1.48-1.12 1.44-1.9 1.51 1.15a1.56 1.56 0 0 1 .55.6 1.13 1.13 0 0 1-.27 1.14 1 1 0 0 1-1.01.48ZM131.61 42.68l-4 .16 2.72-3v-.06l-.79-1.73-.31.14a.65.65 0 0 1 0 .34.54.54 0 0 1-.11.18l-3.25 4-2.92 1.34.67 1.46 2.91-1.34 5.91.12ZM74.35 4.54 74 9.78a3.35 3.35 0 0 1-.27 1.27 1.48 1.48 0 0 1-2.53-.17 3.13 3.13 0 0 1-.1-1.29l.33-5.23h-.28l-1.89-.12v.33a.67.67 0 0 1 .28.19 1.13 1.13 0 0 1 .21.7l-.26 4.05a4.77 4.77 0 0 0 .24 2.13 2.75 2.75 0 0 0 2.62 1.56 2.72 2.72 0 0 0 2.77-1.2 4.75 4.75 0 0 0 .52-2.09L76 4.65ZM59.39 5.33v7l-2.77-6.42-2.34.48-.56.11.07.34a.59.59 0 0 1 .32.11 1.2 1.2 0 0 1 .42.69l.61 2.95.91 4.35 1.49-.31-1.2-5.76c0-.17-.08-.4-.15-.7s-.11-.53-.15-.69L59 14.3l1.53-.3V6.55c0 .16.08.39.14.69s.1.53.14.7L62 13.68l1.49-.31-1.79-8.52ZM35.05 17.76l-1.23 1a1.67 1.67 0 0 0-1.5-.37 2 2 0 0 0-1.49 2 3.9 3.9 0 0 0 1.07 2.22 3.21 3.21 0 0 0 2 1.32 2.06 2.06 0 0 0 1.58-.46 1.79 1.79 0 0 0 .69-1.27 2.38 2.38 0 0 0-.4-1.48L34.36 22l-.94-1.11 2.5-2.1 3 3.57-.83.7-.83-.72a3.57 3.57 0 0 1-.09 1.21 2.77 2.77 0 0 1-.93 1.37 3.17 3.17 0 0 1-2.72.72 4.92 4.92 0 0 1-2.92-1.85 5.15 5.15 0 0 1-1.38-3.27 3.42 3.42 0 0 1 1.3-2.76 3.37 3.37 0 0 1 2.37-.9 3.26 3.26 0 0 1 2.16.9ZM111.3 28.12a3.46 3.46 0 0 0 1.11 2.27 3.22 3.22 0 0 0 2.17 1.13 2.61 2.61 0 0 0 2-.79 2.2 2.2 0 0 0 .79-1.73 3.33 3.33 0 0 0-.47-1.41l-.68-1.22a4.63 4.63 0 0 1-.45-1 .75.75 0 0 1 .25-.75.92.92 0 0 1 .83-.28 1.64 1.64 0 0 1 .9.53 1.89 1.89 0 0 1 .51.84 1.27 1.27 0 0 1-.38 1.21l1.12 1.16a2.74 2.74 0 0 0 .89-2.13 3.22 3.22 0 0 0-.94-2 3 3 0 0 0-2.12-1.08 2.66 2.66 0 0 0-1.93.8 2.2 2.2 0 0 0-.8 1.87 4.81 4.81 0 0 0 .69 1.68l.42.74a3.3 3.3 0 0 1 .45 1.05.76.76 0 0 1-.24.71 1 1 0 0 1-1.2.21 2.6 2.6 0 0 1-.76-.58 1.6 1.6 0 0 1-.56-1.36 1.9 1.9 0 0 1 .44-.82L112.22 26a2.68 2.68 0 0 0-.92 2.12ZM125 31.28l3.54 5.26-1.28.86-1.31-1.94-5.94 4-.92-1.36 5.94-4-1.31-2ZM136.49 98.95l-14.95-6.27-.4.94 14.7 6.59.65-1.26zM131.59 108.45l-13.73-8.58-1.09 1.72 13.49 8.84 1.33-1.98zM125.81 116.28 113.5 106l-2 2.36 11.93 10.85s1.39-1.6 2.38-2.93ZM119.7 123l-11.1-11.78-3.09 2.65 10 12.36c1.49-1.12 4.19-3.23 4.19-3.23ZM103.93 134l-7.37-14.16s-4.26 2.14-6.45 2.92l5.38 14.78a58.4 58.4 0 0 0 8.44-3.54ZM112.4 128.85l-9.35-13s-3 2.11-4.74 3.07l8 14s2.69-1.62 6.09-4.07ZM6.48 98.88l14.41-6.2.41.94-14.75 6.43-.07-1.17zM11.04 108.15l13.53-8.28 1.09 1.72-13.07 8.46-1.55-1.9zM16.81 116l12.12-10 2.07 2.32-11.59 10.5a24.54 24.54 0 0 1-2.6-2.82ZM23.19 122.55l10.65-11.29 3.08 2.65-9.85 12.17c-1.46-1.16-3.88-3.53-3.88-3.53ZM38.62 133.79l7.26-14s4.25 2.14 6.44 2.92l-5.46 14.89s-4.23-1.68-8.24-3.81ZM30.07 128.59l9.31-12.79s3 2.11 4.74 3.07l-7.78 13.55a48.38 48.38 0 0 1-6.27-3.83Z" style="fill:#0071be"/><path d="m58.94 131.22-1.94-.36.2-1.11a7.15 7.15 0 0 0 1.11.09 1.54 1.54 0 0 0 .88-.29 1.45 1.45 0 0 0 .43-.53 1.23 1.23 0 0 0 .12-.33l1.36.25-1.52 8.32-1.69-.26ZM66 133.55a1.79 1.79 0 0 1-.22-1.15 1.51 1.51 0 0 1 .57-1.23 1.16 1.16 0 0 1 .74-.18 1.11 1.11 0 0 1 .89.49 1.81 1.81 0 0 1 .25 1.16 1.34 1.34 0 0 1-.66 1.2 1.11 1.11 0 0 1-.66.15 1.16 1.16 0 0 1-.91-.44Zm-1.28.94a2.61 2.61 0 0 0 1.73.83 2.18 2.18 0 0 0 1.17-.2 1.7 1.7 0 0 0 .51-.4 5.29 5.29 0 0 1-.33 1.45 1.2 1.2 0 0 1-1.22.82 1 1 0 0 1-.93-.91L64 136a2.22 2.22 0 0 0 .74 1.71 2.76 2.76 0 0 0 1.66.68 2.73 2.73 0 0 0 2.88-1.74 7.43 7.43 0 0 0 .58-2.53 6.67 6.67 0 0 0-.22-2.57 2.62 2.62 0 0 0-2.51-1.9 2.67 2.67 0 0 0-2.1.69 3.07 3.07 0 0 0-.94 2.14 2.51 2.51 0 0 0 .61 2.01ZM75.7 131.32 76 135l-2.12.17Zm1.91 3.52-.41-5.27-1.86.15-2.7 5.35.11 1.45 3.34-.26.14 1.82 1.62-.13-.14-1.82 1-.07-.1-1.3ZM83.33 133.17a1.11 1.11 0 0 1 .68-.4 1.16 1.16 0 0 1 .99.23 1.61 1.61 0 0 1 .58 1 1.8 1.8 0 0 1-.1 1.12 1 1 0 0 1-.77.58 1.13 1.13 0 0 1-1-.24 1.63 1.63 0 0 1-.58-1 1.46 1.46 0 0 1 .2-1.29Zm1.86-4.49a2.71 2.71 0 0 0-2-.22 2.54 2.54 0 0 0-1.3.64 2.83 2.83 0 0 0-.73 1.15 4.79 4.79 0 0 0-.2 1.88 11.08 11.08 0 0 0 .23 1.56 5.5 5.5 0 0 0 1.11 2.52 2.51 2.51 0 0 0 2.57.84 2.59 2.59 0 0 0 2-1.31 3.25 3.25 0 0 0 .28-2.19 2.69 2.69 0 0 0-1.09-1.77 2.39 2.39 0 0 0-2-.39 2.5 2.5 0 0 0-.88.35 2 2 0 0 0-.6.67 5.58 5.58 0 0 1 0-1.5 1.19 1.19 0 0 1 1-1.12.89.89 0 0 1 .88.23.86.86 0 0 1 .24.4l1.62-.32a2.27 2.27 0 0 0-1.13-1.42Z" style="fill:#fff"/></svg>