<svg xmlns="http://www.w3.org/2000/svg" width="185.33777mm" height="185.33777mm" viewBox="0 0 185.33777 185.33777"><g transform="matrix(.75187 0 0 -.75187 -285.191 175.972)"><circle cx="502.55984" cy="-110.79472" r="123.25098" style="fill:#f9f9f9;stroke-width:.798868" transform="scale(1 -1)"/><path d="M0 0v.799h-1.263V0h-1.648v-1.053h4.602V0Z" style="fill:#002970;fill-opacity:1;fill-rule:nonzero;stroke:none" transform="matrix(2.21135 0 0 2.21135 448.214 120.705)"/><path d="M436.479 118.378h1.11v-7.475h-1.11zm-3.903 0h1.11v-7.475h-1.11zm7.806 0v2.325h-3.903v1.77h-2.793v-1.77h-3.903v-9.802h-.942v-2.326h.942v-10.21h2.793v10.21h1.11v-10.21h2.793v10.21h1.11v-10.21h2.793v10.21h.94v2.326h-.94z" style="fill:#002970;fill-opacity:1;fill-rule:nonzero;stroke:none;stroke-width:2.21135"/><path d="M0 0H-3.295v-7.844h1.263v6.791H0v-6.791h1.263V0H.908Z" style="fill:#002970;fill-opacity:1;fill-rule:nonzero;stroke:none" transform="matrix(2.21135 0 0 2.21135 449.064 115.712)"/><path d="M0 0v.799h-1.263V0h-4.043v-10.102h1.263v9.049h1.432v-9.049h1.263v9.049H.085v-9.049h1.263v9.049H2.78v-9.049h1.263V0Z" style="fill:#002970;fill-opacity:1;fill-rule:nonzero;stroke:none" transform="matrix(2.21135 0 0 2.21135 567.569 120.705)"/><path d="M0 0c0 29.865 24.213 54.084 54.082 54.084 29.867 0 54.08-24.219 54.08-54.084 0-29.87-24.213-54.078-54.08-54.078C24.213-54.078 0-29.87 0 0m16.362 0c0-20.796 16.922-37.716 37.72-37.716 20.796 0 37.716 16.92 37.716 37.716s-16.92 37.717-37.716 37.717c-20.798 0-37.72-16.921-37.72-37.717" style="fill:#002970;fill-opacity:1;fill-rule:nonzero;stroke:none" transform="matrix(2.21135 0 0 2.21135 383.084 110.412)"/><path d="M0 0c.096-.115 1.539-2.464 2.693-4.919 1.152-2.454 1.118-2.87 1.742-4.397.626-1.531 1.185-5.365 1.185-5.365.564-.218 1.293-2.036 1.293-2.036 0 .657-.394 3.558-.924 5.599C5.464-9.07 4.045-5.843 3.72-5.09c-.322.755-1.689 3.16-2.581 4.567C.246.873-.467 1.539-.467 1.539L-.259.442S-.094.119 0 0" style="fill:#002970;fill-opacity:1;fill-rule:nonzero;stroke:none" transform="matrix(2.21135 0 0 2.21135 475.705 142.777)"/><path d="M0 0c.83-1.074 2.984-4.852 2.984-4.852.781-1.24 1.871-4.312 2.325-5.657.602-1.784.99-4.096.99-4.096.608-.64 1.279-2.844 1.279-2.844.022 1.15-.265 2.583-.65 4.291-.389 1.714-1.282 3.854-1.875 5.34-.593 1.482-2.388 4.659-2.645 5.164C2.15-2.146.332.654-.595 1.792c-.922 1.141-1.483 1.621-1.483 1.621l.63-1.426S-.826 1.078 0 0" style="fill:#002970;fill-opacity:1;fill-rule:nonzero;stroke:none" transform="matrix(2.21135 0 0 2.21135 470.685 146.547)"/><path d="M0 0c.668-.956 2.456-3.657 3.11-4.704.656-1.044 2.382-3.83 2.542-4.127.162-.281 1.237-2.514 1.729-3.718.499-1.205 1.058-3.563 1.058-3.563.593-.312 1.249-2.47 1.249-2.47.154.172.17 1.619.17 1.619-.203 1.749-1.073 4.175-1.843 6.363-.762 2.179-2.3 4.592-2.815 5.591-.518 1.005-2.199 3.21-3.92 5.416-1.721 2.206-3.375 3.399-3.375 3.354 0-.042 1.272-2.592 1.272-2.592S-.668.961 0 0" style="fill:#002970;fill-opacity:1;fill-rule:nonzero;stroke:none" transform="matrix(2.21135 0 0 2.21135 461.968 151.614)"/><path d="M0 0c-.031.232-.551 1.762-1.054 3.128-.51 1.371-1.646 3.001-1.636 2.959.009-.039-.185-2.433-.185-2.433.193-.454 1.032-2.564 1.032-2.564C-.552.641 0 0 0 0" style="fill:#002970;fill-opacity:1;fill-rule:nonzero;stroke:none" transform="matrix(2.21135 0 0 2.21135 480.436 103.587)"/><path d="M0 0s.098-3.423.13-3.464c.035-.045.739-.808.915-1.001.17-.195 1.342-.845 1.342-.845-.105.605-.762 2.052-.979 2.545C1.192-2.27 0 0 0 0" style="fill:#002970;fill-opacity:1;fill-rule:nonzero;stroke:none" transform="matrix(2.21135 0 0 2.21135 470.038 117.765)"/><path d="M0 0s.418-.432.493-.496c.078-.063 1.754-1.816 2.119-2.319.366-.51 1.563-2.341 1.771-2.881.207-.519.978-1.897 1.658-4.121l-.12 2.858S4.611-4.084 4.2-3.386c-.411.705-2.713 4.522-3.026 4.91 0 0-3.708 5.082-4.368 5.456 0 0 1.666-3.047 1.776-3.217C-1.308 3.588-.184.785 0 0" style="fill:#002970;fill-opacity:1;fill-rule:nonzero;stroke:none" transform="matrix(2.21135 0 0 2.21135 455.969 134.102)"/><path d="M0 0c.121-.155 2.359-3.423 3.583-5.446 1.226-2.026 2.572-5 2.572-5 .464 0 1.609-2.777 1.609-2.777l.212 1.908c-.12.369-1.235 3.684-1.742 4.816C5.731-5.37 4.006-2.388 3.813-1.99c-.194.398-2.432 3.733-2.615 3.96-.185.229-2.926 3.824-3.209 4.133-.275.31-1.581 1.638-1.581 1.638s1.239-2.813 1.377-3.121C-2.073 4.306-.117.151 0 0" style="fill:#002970;fill-opacity:1;fill-rule:nonzero;stroke:none" transform="matrix(2.21135 0 0 2.21135 456.204 142.588)"/><path d="M0 0c.065-.172.14-.343.14-.343s.68-.741.72-.809c.042-.065 1.081-1.332 1.227-1.528.15-.192 2.228-3.075 2.292-3.166.065-.08 2.124-3.399 2.162-3.473.046-.076 1.724-3.197 1.951-3.734.225-.535.908-1.677 1.863-4.719 0 0 .406-.452.876-1.272.454-.807.979-2.057.979-2.057s.33 1.786.34 1.893c.013.108-.057.547-.14.892-.088.347-1.16 3.895-2.24 5.833-1.076 1.936-2.914 4.913-3.343 5.517-.429.6-2.174 3.178-2.229 3.278a61.467 61.467 0 0 1-1.175 1.71c-.158.22-3.861 4.391-4.349 4.682 0 0-.107.086-.006-.159C-.837 2.295-.067.176 0 0" style="fill:#002970;fill-opacity:1;fill-rule:nonzero;stroke:none" transform="matrix(2.21135 0 0 2.21135 452.017 157.576)"/><path d="M0 0c-.037.009-.001 0-.001 0Z" style="fill:#002970;fill-opacity:1;fill-rule:nonzero;stroke:none" transform="matrix(2.21135 0 0 2.21135 490.581 93.156)"/><path d="M0 0c6.574.601 7.097 3.586 7.097 3.586S5.536 2.521 3.246 1.907c-2.353-.63-4.883-.421-4.883-.421-.211-.076-.453-.18-.453-.18s.234-.795.288-1.117C-1.751.17-1.012-.092 0 0" style="fill:#002970;fill-opacity:1;fill-rule:nonzero;stroke:none" transform="matrix(2.21135 0 0 2.21135 521.324 82.871)"/><path d="m0 0-.708-.371s-1.16-.578-1.797-.864c-.611-.274-3.557-1.411-5.343-1.168 0 0-.349-.676-1.804-.333 0 0 .157-.625 0-.969 0 0 .508-.047 1.214-.047.696 0 1.585.047 2.389.22C-4.427-3.18-1.009-2.159 0 0" style="fill:#002970;fill-opacity:1;fill-rule:nonzero;stroke:none" transform="matrix(2.21135 0 0 2.21135 539.486 95.275)"/><path d="M0 0s-1.249-.75-2.154-1.038c-.903-.289-2.383-.645-2.958-.763-.956-.196-2.808-.216-3.196-.128 0 0-.154-.337-.706-.399 0 0 .495-.438.573-1.106 0 0 1.804-.222 4.593.612.937.278 2.832 1.147 3.291 1.692C-.264-.783 0 0 0 0" style="fill:#002970;fill-opacity:1;fill-rule:nonzero;stroke:none" transform="matrix(2.21135 0 0 2.21135 541.887 103.4)"/><path d="M0 0c.083.049 1.051.815 1.302 1.049.249.239.961.952 1.218 1.507.256.556-.015.871-.136.984-.121.118-.279.131-.279.131C2.06 3.535.78 2.556.78 2.556s-.038-.075-.038-.113c0-.036-.174-.734-.233-.957C.449 1.268 0 0 0 0" style="fill:#002970;fill-opacity:1;fill-rule:nonzero;stroke:none" transform="matrix(2.21135 0 0 2.21135 518.593 133.705)"/><path d="M0 0c-.29-.096-.675-.359-.73-.391 0 0-1.512-.838-2.106-1.076-.592-.236-2.271-.819-2.885-.945-.615-.125-2.517-.309-3.575-.158 0 0 .377-.676-.059-1.242 0 0 1.695-.083 3.144.257 1.454.327 3.25.716 4.875 1.805C-1.336-1.75.29.095 0 0" style="fill:#002970;fill-opacity:1;fill-rule:nonzero;stroke:none" transform="matrix(2.21135 0 0 2.21135 544.543 108.084)"/><path d="M0 0a53.12 53.12 0 0 0-.611-.302c-2.655-1.229-3.42-1.25-5.014-1.651-1.259-.316-3.788-.519-3.788-.519.064-1.054-.743-1.537-.743-1.537.098-.204 2.434.108 2.789.148.355.043 2.214.507 2.439.582.227.077 1.303.399 2.209.873 1.044.552 2.05 1.161 2.19 1.276C-.392-1.012.066.033 0 0" style="fill:#002970;fill-opacity:1;fill-rule:nonzero;stroke:none" transform="matrix(2.21135 0 0 2.21135 546.446 112.06)"/><path d="M0 0c-2.483-.703-2.783-.738-4.971-.934 0 0-.007-.635-.543-.938l.239-.268s1.585-.035 3.859.4c1.312.251 3.745.794 4.894 1.469 1.153.683 2.239 1.559 3.168 3.407 0 0-1.277-.301-1.331-.33C5.315 2.806 3.003.849 0 0" style="fill:#002970;fill-opacity:1;fill-rule:nonzero;stroke:none" transform="matrix(2.21135 0 0 2.21135 536.974 116.907)"/><path d="M0 0s-.859-1.119-1.106-1.347c-.246-.23-1.23-1.443-3.519-2.669-2.293-1.229-4.855-1.913-4.93-1.913-.076 0-.503-.152-1.627-.424l-.863-.222s.557-.504.469-1.028c0 0 2.023.076 4.652.915.952.304 2.579 1.017 3.559 1.586.979.573 3.26 1.981 4.206 3.649.948 1.67 1.185 2.086 1.268 2.5C2.199 1.453.109.044 0 0" style="fill:#002970;fill-opacity:1;fill-rule:nonzero;stroke:none" transform="matrix(2.21135 0 0 2.21135 551.494 132.356)"/><path d="M0 0c1.36 1.677 2.575 3.563 2.918 4.643.347 1.096.993 2.686 1.076 4.697 0 0-2.089-2.517-2.186-2.659C1.712 6.544.797 4.763.443 4.26c0 0-1.4-2.021-2.161-2.761-.766-.742-1.95-1.751-3.126-2.64-1.605-1.215-4.489-2.324-5.706-2.547 0 0 .22-.638-.168-1.493 0 0 3.038.914 4.78 1.517C-4.197-3.06-1.35-1.681 0 0" style="fill:#002970;fill-opacity:1;fill-rule:nonzero;stroke:none" transform="matrix(2.21135 0 0 2.21135 548.256 129.956)"/><path d="M0 0c-.547-1.644-1.272-2.891-1.617-3.539-.348-.641-1.531-2.322-2.228-3.175-.699-.843-3.068-2.798-3.068-2.798-2.668-2.221-4.496-3.064-4.496-3.064.119-1.38-.491-1.824-.491-1.824.005-.006.011-.006.017-.006.161 0 1.568.506 3.203 1.26 1.69.771 3.812 2.446 4.328 2.937.517.493 2.182 2.342 2.661 2.953.469.602 1.589 2.675 1.74 2.987.154.312.712 1.592 1.293 3.165.916 2.478.771 5.895.751 5.79C2.073 4.58.682 2.567.671 2.532.66 2.504.549 1.648 0 0" style="fill:#002970;fill-opacity:1;fill-rule:nonzero;stroke:none" transform="matrix(2.21135 0 0 2.21135 551.173 154.456)"/><path d="M0 0c-.56-1.008-.906-1.642-1.238-2.155-.334-.515-1.768-2.456-2.874-3.305-1.107-.851-2.163-1.639-3.928-2.366l.003-.011s1.14-1.004-.269-2.78c0 0 .372-.244.483-.61 0-.02.017-.028.048-.028.527 0 5.042 3.311 5.791 3.98.799.7 2.79 2.568 3.908 4.836 1.12 2.274 1.734 4.2 1.959 5.181.224.976.841 3.592.968 5.937 0 0-2.786-2.405-2.786-2.439 0-.035-.535-2.254-.613-2.513C1.377 3.473.557.998 0 0" style="fill:#002970;fill-opacity:1;fill-rule:nonzero;stroke:none" transform="matrix(2.21135 0 0 2.21135 542.766 152.758)"/><path d="M0 0c-.934-1.968-2.702-3.823-2.961-4.081-.254-.256-1.188-.92-1.188-.92-.132-.424-1.073-1.297-1.073-1.297 0-.002.016-.006.041-.006.173 0 .798.144.798.144 3.916 1.613 5.677 4.195 5.975 4.601.301.41 1.248 1.712 2.217 3.677.968 1.953 1.59 4.937 1.621 5.117.033.185.543 2.962.392 2.4-.155-.557-.905-1.473-1.517-2.283-.617-.803-2.686-3.146-2.686-3.146C1.284 2.956.939 1.969 0 0" style="fill:#002970;fill-opacity:1;fill-rule:nonzero;stroke:none" transform="matrix(2.21135 0 0 2.21135 534.32 150.103)"/><path d="M0 0c-.126-.6-.243-1.375-.838-2.454-.589-1.071-.809-1.41-1.442-2.174 0 0 .539-.129.497-1.012 0 0 1.485 1.487 1.779 1.865.286.373 1.783 2.3 2.515 4.313.731 2.014 1.183 3.78 1.335 5.384L1.944 3.579-.004 1.144S.117.566 0 0" style="fill:#002970;fill-opacity:1;fill-rule:nonzero;stroke:none" transform="matrix(2.21135 0 0 2.21135 529.573 153.033)"/><path d="m0 0 .012-.064.016-.093.007-.01c.138-.183 2.267-3.09 3.687-7.91l.003-.013c.283-.958.536-1.992.74-3.096a30.347 30.347 0 0 0 .496-4.505l.003-.008c.767-2.169.549-4.451.543-4.467.357-.083.687-.139.991-.174 2.213-.256 3.019.634 3.069.691v.001c-.021-.019-2.141-.237-2.736 3.704v.001c-.242.84-.487 1.857-.729 3.089a33.28 33.28 0 0 1-2.879 8.41C1.644-1.284.08.6-.13.847l-.005.006a.754.754 0 0 1-.019.023L-.153.87Z" style="fill:#002970;fill-opacity:1;fill-rule:nonzero;stroke:none" transform="matrix(2.21135 0 0 2.21135 480.584 139.507)"/><path d="m0 0-.001.003C-.176.499 0-.001 0 0" style="fill:#002970;fill-opacity:1;fill-rule:nonzero;stroke:none" transform="matrix(2.21135 0 0 2.21135 491.557 104.802)"/><path d="M0 0c-.035-.056.003-1.325.003-1.325.826-2.4.687-4.655.657-5.028.346-.069.708-.146 1.088-.233C1.974-2.164 0 0 0 0" style="fill:#002970;fill-opacity:1;fill-rule:nonzero;stroke:none" transform="matrix(2.21135 0 0 2.21135 488.075 109.669)"/><path d="M0 0c.066.473-.018 2.129-.314 3.711C-.621 5.392-1.987 7.78-1.987 7.78s-.104-1.911-.095-1.953c.001-.003.002-.005 0-.001.002-.004.001-.002 0 .001-.008.019-.05.089.518-1.677.571-1.772.585-3.59.58-3.984C-.673.119-.345.064 0 0" style="fill:#002970;fill-opacity:1;fill-rule:nonzero;stroke:none" transform="matrix(2.21135 0 0 2.21135 488.737 95.773)"/><path d="M0 0c.187-.021.381-.045.584-.073C.676.956.448 1.997-.089 4.048-.637 6.146-1.6 8.307-1.833 8.406c-.067-.258-.434-2.242-.477-2.445.511-1.294.7-2.14.862-2.927C-.317 1.989-.048.37 0 0" style="fill:#002970;fill-opacity:1;fill-rule:nonzero;stroke:none" transform="matrix(2.21135 0 0 2.21135 484.488 96.414)"/><path d="M0 0c.473.126 1.554.306 3.524.116-.14.605-.404 1.248-.738 1.708l-.001.001C1.735 3.234-.117 3.905-.118 3.906c-.837.375-2.009 1.185-2.572 1.985-.563.801-1.736 3.996-1.736 3.997A15.398 15.398 0 0 1-7.185 14.6c-1.781 2.071-3.559 3.165-3.615 3.198l.001-.002a28.73 28.73 0 0 0 2.094-3.142l.003-.007c1.964-3.079 2.238-5.388 2.674-6.835C-4.452 2.562-.45.246 0 0" style="fill:#002970;fill-opacity:1;fill-rule:nonzero;stroke:none" transform="matrix(2.21135 0 0 2.21135 475.97 96.234)"/><path d="M0 0a3.493 3.493 0 0 1 .191.133l.035.025.026.02.064.047.025.019.118.092A5.493 5.493 0 0 1 .67.51l.126.108.092.083.053.049c.885.831 1.462 1.736 1.59 1.922.128.18.53 1.059.775 1.626.271.808.427 1.728.377 2.755v.01l-.003.05a7.154 7.154 0 0 1-.032.324c-.004.038-.01.075-.015.111a3.405 3.405 0 0 1-1.038 1.967c.096-.66.281-2.62-.518-4.655C1.152 2.507-.028 1.562-.028 1.562.037 1.336-.042-.027-.042-.027L0 0" style="fill:#002970;fill-opacity:1;fill-rule:nonzero;stroke:none" transform="matrix(2.21135 0 0 2.21135 520.485 140.776)"/><path d="M0 0c.589.607.446 1.355.44 1.423a1.037 1.037 0 0 1-.427.724c-.367.254-.74.099-.74.099l-.094-.118C-1.203 1.71-2.342.909-2.644.699a24.956 24.956 0 0 0-.075-.052l-.135-.305c-.124-.339-.509-1.053-.796-1.588-.271-.457-.478-.753-.478-.753l1.561.393c.306.098.57.215.796.346C-1.109-.913-.414-.422 0 0" style="fill:#002970;fill-opacity:1;fill-rule:nonzero;stroke:none" transform="matrix(2.21135 0 0 2.21135 523.735 130.18)"/><path d="M0 0a14.813 14.813 0 0 0-1.655-.586s-2.31-.846-4.609-.576c0 0-.25-.689-.882-.559 0 0 .564-.657.536-1.284C-2.749-3.042 1.136-.29 1.136-.29L1.653.804z" style="fill:#002970;fill-opacity:1;fill-rule:nonzero;stroke:none" transform="matrix(2.21135 0 0 2.21135 536.912 97.447)"/><path d="M0 0v.01h.001L0 0m-2.321-2.634a1.09 1.09 0 0 1-.498.021c-.11-.017-.552-.132-.757-.238-.203-.103-.17-.356-.321-.338-.145.006-.406.352-.34.554.066.203.11.23.303.298.248.098.83.16.942.217.103.049.262.064.379-.017.119-.091.394-.323.433-.377.031-.044.03-.169-.141-.12m-.531-2.208c-.138-.43-.335-1.175-.503-1.266-.465-.254-.759-.356-.887.081-.128.441.194.253.438.433.352.26.439.619.525.79.084.173.102.45.353.385.227-.064.253-.086.074-.423m-1.752.425s-.292.411-.164.819c.077.245.14.42.379.37 0 0 .321-.026.098-.429a3.563 3.563 0 0 1-.313-.76m-.011-1.935c-.144-.038-.732-.02-.989 1.045 0 0 .292-.309.848-.421.255-.051.29-.057.335-.305.049-.269-.116-.299-.194-.319M-6.001-2.25c-.687.414-.876.171-1.011.297-.116.191.378.6.519.489.139-.101 1.037-.56 1.255-.646.32-.124.882-.059.623-.599-.14-.294-1.229.365-1.386.459m-7.151-3.261s-.083.748.483.88c.388.091.595-.076.615-.211-.031.013-.699.273-1.098-.669M20.956-.736c-.042-.403-.425-2.736-3.565-2.772 0 0 2.231.657 2.174 2.887L6.737.435c-.347.061-.163 1.078.64 1.067.279-.004 2.391.114 2.506.128 5.516.278 6.506 2.721 6.506 2.721-3.344-1.964-7.413-1.307-7.413-1.307-.287-1.347-1.897-.435-2.798.171-.908.599-1.396 1.447-1.782 2.39-.389.95.143 3.214.234 3.43.083.216.861 1.917 1.116 2.95.258 1.027-.146 2.41-.192 2.515-.045.11-.882 2.301-.882 2.301-.421 1.101.036 2.081.357 2.578l.255.345.336.449.143.19c5.511 6.975 4.311 13.404 4.311 13.404.036-3.697-4.926-9.862-6.501-11.724l-.001-.001c-.017-.017-.218-.207-.471-.548l-.001-.001-.064-.086c-.553-.769-1.297-2.2-1.032-4.087.083-.591.154-1.143.255-1.651.762-3.802 1.55-7-1.296-7.503-1.659-.293-2.51.298-4.158-.341.013-.005 2.199.065 4.359-1.331.446-.259-3.855-.69-4.619-.966-.766-.282-.398-.465-.26-.503.428-.118 1.065-.129 1.389-.203.243-.056.277-.163.078-.344-1.606-1.463-3.263-1.086-3.239-1.138.022-.056.445-1.072.116-1.956-.134-.362-.291-.252-.417-.027-.267.482-.81.862-1.306 1.087-1.056.479-1.795.279-1.795.279s.824-.405 1.154-.961C-6.948.432-6.848-.48-6.974-1a1.896 1.896 0 0 1-1.169-.265c-.774-.558-.208-1.449-.208-1.449.015.485.608.635.608.635.412.083.909-.639.909-.639-.486-1.967-2.577-2.823-2.577-2.823-1.005-.374-1.898.257-2.355.902-.461.648-1.18.074-1.18.074-.085-.009-.169-.039-.3.098-.127.145-1.146 1.098-1.146 1.098-.991.667-1.62-.465-1.62-.465-.476-.082-.548-.474-.548-.474-.142-.658.604-1.062.604-1.062-.2.718.287.933.287.933s.073-.095.317-.112c.243-.015.314.031.404.043.084.011.112.039.744-.22.628-.253.415-.602.415-.654 0-.059-.261-.443-.334-.662-.045-.134-.095-.469-.049-.986.044-.513.671-.796.671-.796s-.103.338-.082.54c.019.192.073.609.614.855.295.135.66-.235.66-.235.489-.568 1.464-.525 1.518-.554.057-.029.604-.43.687-.592.322-.395-.018-.88-.318-1.067-.256-.156-.585-.209-.585-.209.446-.363 1.193-.214 1.823.588.494.633-.253 1.387-.501 1.52-.243.133.54.639 1.076.733.537.093 1.003-.978 2.216-1.644.79-.434 3.207.407 3.207.407s.394-.553 2.066-.65c1.117-.065 1.658.154 1.78.189-.05-.919-.103-2.079-.075-2.38.048-.507.646-1.567 2.249-1.589.073-.002.117 0 .117 0l-.055.661c-1.574.316-1.576 1.353-1.576 1.353.257-.687 1.224-.854 1.538-.891l-.337 4.05c.198-.918.808-3.496 1.697-4.912.449-.71 1.078-.929 1.671-.929.866 0 1.645.45 1.645.45l-.389.752c-.187-.104-1.621-.832-2.558.741 0 0 .89-.978 2.361-.359L3.961-5.219c.085-.132 2.806-4.339 3.357-5.079l.017-.023c.643-.859 1.665-1.372 2.738-1.326 1.75.076 3.206 1.15 3.206 1.15l-1.013.898c-.223-.19-2.016-1.623-3.952-.433 0 0 2.019-.616 3.48.852L5.73-3.8c.166-.128 5.465-4.217 5.659-4.365a4.866 4.866 0 0 1 1.451-.749c3.864-1.191 5.542 2.34 5.542 2.34l-1.307.475c-2.181-2.946-4.924-1.314-4.924-1.314 2.52-.654 3.73 1.159 4.005 1.647L7.235-2.528l6.886-1.631c3.937-1.125 5.725-.432 5.725-.432 2.884.818 2.774 3.718 2.774 3.718z" style="fill:#002970;fill-opacity:1;fill-rule:nonzero;stroke:none" transform="matrix(2.21135 0 0 2.21135 497.335 75.708)"/><path d="m0 0 .001.01H0Z" style="fill:#002970;fill-opacity:1;fill-rule:nonzero;stroke:none" transform="matrix(2.21135 0 0 2.21135 497.335 75.708)"/><path d="M0 0c9.426 1.223 5.874 4.1 5.874 4.1C4.337 2.626 1.5 2.353 1.5 2.353 1.173 1.113 0 0 0 0" style="fill:#002970;fill-opacity:1;fill-rule:nonzero;stroke:none" transform="matrix(2.21135 0 0 2.21135 510.485 119.444)"/><path d="M0 0c-.941-.552-.804-1.724-.804-1.724s5.862.352 7.001 1.586c.572.62.147 1.561.147 1.561C3.144-.054 0 0 0 0" style="fill:#002970;fill-opacity:1;fill-rule:nonzero;stroke:none" transform="matrix(2.21135 0 0 2.21135 509.958 118.654)"/><path d="M0 0c-1.661-1.189-7.129-1.306-7.129-1.306-.007-.408.42-1.301.42-1.301s6.106-.155 6.907.933C1.073-.487 0 0 0 0" style="fill:#002970;fill-opacity:1;fill-rule:nonzero;stroke:none" transform="matrix(2.21135 0 0 2.21135 523.987 117.05)"/><path d="M0 0s-.816-.899-6.666-.682c0 0 .447-.753.574-1.506 0 0 8.094-.301 6.092 2.188" style="fill:#002970;fill-opacity:1;fill-rule:nonzero;stroke:none" transform="matrix(2.21135 0 0 2.21135 524.148 112.099)"/><path d="M0 0s.203-.852.153-1.458c0 0 8.287-1.009 5.69 2.059 0 0-.641-.78-5.843-.601" style="fill:#002970;fill-opacity:1;fill-rule:nonzero;stroke:none" transform="matrix(2.21135 0 0 2.21135 510.753 106.599)"/><path d="M0 0s-1.282-.747-5.511-.111c0 0-.107-.766-.383-1.261 0 0 7.501-2.021 5.894 1.372" style="fill:#002970;fill-opacity:1;fill-rule:nonzero;stroke:none" transform="matrix(2.21135 0 0 2.21135 523.155 102.938)"/><path d="m0 0-.003-.001S-.024.013 0 0m-2.498.606s.366-.762 3.757-1.204C5.18-1.11 3.035 1.104 3.035 1.104c-3.42-.18-5.086.563-5.086.563A10.411 10.411 0 0 0-2.498.606" style="fill:#002970;fill-opacity:1;fill-rule:nonzero;stroke:none" transform="matrix(2.21135 0 0 2.21135 514.5 95.538)"/><path d="M0 0c-.024.013-.003-.001-.003-.001L0 0" style="fill:#002970;fill-opacity:1;fill-rule:nonzero;stroke:none" transform="matrix(2.21135 0 0 2.21135 514.5 95.538)"/><path d="M0 0c8.798-3.596 5.594.031 5.594.031C1.399.211.365 1.307.365 1.307.034.584 0 0 0 0" style="fill:#002970;fill-opacity:1;fill-rule:nonzero;stroke:none" transform="matrix(2.21135 0 0 2.21135 507.774 93.228)"/><path d="M0 0c-3.305.787-4.415 1.526-4.415 1.526-.17-.942.049-1.217.049-1.217C.892-3.191 0 0 0 0" style="fill:#002970;fill-opacity:1;fill-rule:nonzero;stroke:none" transform="matrix(2.21135 0 0 2.21135 517.43 89.297)"/><path d="M0 0s.175-1.73 2.094-2.946c1.307-.828 2.329-.961 1.596 1.127 0 0-1.044-.38-3.69 1.819" style="fill:#002970;fill-opacity:1;fill-rule:nonzero;stroke:none" transform="matrix(2.21135 0 0 2.21135 507.649 89.512)"/><path d="M0 0c-1.997-.854-5.219-1.322-6.278-1.407-1.011-.082-1.626-.011-1.626-.011.309-1.104-.614-1.426-.614-1.426.395-.096.539-.359.539-.359 2.056.085 4.984.91 5.673 1.073 1.646.39 2.634.912 3.722 1.472.602.31.891.917 1.03 1.407h-.921A14.669 14.669 0 0 0 0 0" style="fill:#002970;fill-opacity:1;fill-rule:nonzero;stroke:none" transform="matrix(2.21135 0 0 2.21135 542.984 114.653)"/><path d="M0 0a1.874 1.874 0 0 1 .392.006c.661.058.938.362.938.362S.389.957.299 2.346c0 0-.284-.074-.771.064 0 0-1.1-.759-.891-1.79.21-1.031 1.079-1.616 1.221-1.673 0 0-.466.707-.277 1.131A1.55 1.55 0 0 1 0 0" style="fill:#002970;fill-opacity:1;fill-rule:nonzero;stroke:none" transform="matrix(2.21135 0 0 2.21135 464.338 79.544)"/><path d="M0 0c-.275-.607-1.525-.905-2.183.325a.09.09 0 0 0 .014.103c.189.203 1.021.948 2.745.579C.576 1.007.351.777 0 0m7.657 1.539c.654.681 4.646 1.011 4.646 1.011-2.903 1.44-4.612.744-4.612 1.136 0 .301 1.747.641 1.747.641S5.724 5.54 1.57 4.851c-3.847-.637-5.472-2.647-5.513-3.496-.014-.276-.02-1.081 1.05-.984.111.01.207.036.295.073l.024-.316s.308-3.061 3.422-2.15c.589.172 1.553 1.074 2.709 1.027 1.623.074 2.685-1.438 2.685-1.438.314 1.775-1.23 2.343.209 2.197 1.438-.148 2.711.769 2.711.769C8.087.517 7.059.915 7.657 1.539" style="fill:#002970;fill-opacity:1;fill-rule:nonzero;stroke:none" transform="matrix(2.21135 0 0 2.21135 471.11 84.566)"/><path d="M0 0c.218.154.656.371 1.289.314.07-.006.121-.021.05-.095C1.242.117 1.025.053.925-.24.775-.684.084-.711-.152-.339-.221-.229-.244-.173 0 0" style="fill:#002970;fill-opacity:1;fill-rule:nonzero;stroke:none" transform="matrix(2.21135 0 0 2.21135 467.489 85.787)"/><path d="M0 0h-.524v3.478l-1.053-.386v.474l1.496.56H0Z" style="fill:#002970;fill-opacity:1;fill-rule:nonzero;stroke:none" transform="matrix(2.21135 0 0 2.21135 491.344 34.367)"/><path d="M0 0c.175 0 .336.053.484.161a.945.945 0 0 1 .323.397v.209c0 .342-.075.621-.223.835-.149.214-.337.322-.564.322a.672.672 0 0 1-.553-.264c-.14-.176-.209-.408-.209-.695 0-.281.067-.512.202-.693A.638.638 0 0 1 0 0m.804 0a1.278 1.278 0 0 0-.391-.313 1.058 1.058 0 0 0-.498-.119c-.236 0-.443.058-.619.175a1.14 1.14 0 0 0-.407.492 1.677 1.677 0 0 0-.144.701c0 .275.052.522.156.742.105.22.253.388.445.505.191.117.415.175.671.175.406 0 .726-.152.96-.456.234-.303.351-.718.351-1.242V.507c0-.799-.158-1.382-.473-1.75-.316-.367-.793-.556-1.43-.566h-.102v.444h.11c.431.007.762.119.993.336.231.217.357.56.378 1.029" style="fill:#002970;fill-opacity:1;fill-rule:nonzero;stroke:none" transform="matrix(2.21135 0 0 2.21135 497.753 38.359)"/><path d="m0 0 .209 2.047h2.104v-.482H.652L.527.445c.202.119.431.178.686.178.374 0 .671-.124.891-.371.22-.247.33-.581.33-1.003 0-.422-.114-.756-.342-.999-.229-.244-.548-.366-.958-.366-.363 0-.659.101-.888.302-.23.201-.361.48-.393.835h.494c.032-.235.116-.412.251-.531.135-.12.314-.18.536-.18.243 0 .433.083.571.248.139.166.207.394.207.686 0 .274-.074.495-.224.661a.76.76 0 0 1-.596.25C.864.155.685.105.556.005L.418-.108Z" style="fill:#002970;fill-opacity:1;fill-rule:nonzero;stroke:none" transform="matrix(2.21135 0 0 2.21135 503.704 38.92)"/><path d="M0 0h-2.691v.375l1.422 1.58c.21.239.355.433.435.582a.97.97 0 0 1 .12.464.74.74 0 0 1-.195.528.679.679 0 0 1-.518.206c-.26 0-.461-.074-.606-.222-.143-.147-.215-.353-.215-.616h-.522c0 .378.122.683.365.917.244.232.57.349.978.349.381 0 .683-.1.905-.3.222-.2.333-.467.333-.8 0-.404-.258-.886-.773-1.444l-1.1-1.193H0Z" style="fill:#002970;fill-opacity:1;fill-rule:nonzero;stroke:none" transform="matrix(2.21135 0 0 2.21135 517.192 34.367)"/><path d="m0 0 2.454-1.779-.937 2.882 2.451 1.781H.936L0 5.769l-.932-2.885h-3.033l2.449-1.781-.934-2.882Z" style="fill:#fff;fill-opacity:1;fill-rule:nonzero;stroke:none" transform="matrix(2.21135 0 0 2.21135 401.71 106.007)"/><path d="M0 0h-3.032l-.936 2.885L-4.9 0h-3.033l2.449-1.781-.934-2.882 2.45 1.779 2.454-1.779-.937 2.882z" style="fill:#fff;fill-opacity:1;fill-rule:nonzero;stroke:none" transform="matrix(2.21135 0 0 2.21135 612.409 112.385)"/><path d="m0 0 .864-.864c.202-.202.392-.412.573-.627.177-.214.317-.425.408-.633l-4.501-4.502.749-.749L.81-4.658l1.072-1.071L-.06-7.672l.747-.747L4.535-4.57l1.952-1.952 1.176 1.175L5.576-3.26c-.414.415-.848.377-1.23-.005l-1.29-1.291-1.072 1.072 2.77 2.771-.749.749-1.132-1.133c-.023.185-.123.42-.301.708a3.943 3.943 0 0 1-.559.729l-.972.972c-.414.413-.848.376-1.232-.007l-4.397-4.398.747-.748z" style="fill:#fff;fill-opacity:1;fill-rule:nonzero;stroke:none" transform="matrix(2.21135 0 0 2.21135 427.204 190.449)"/><path d="M0 0c.1.243.302.41.605.502.302.095.61.075.925-.055.313-.13.547-.335.698-.618.152-.279.178-.542.078-.784-.097-.235-.301-.4-.608-.496a1.349 1.349 0 0 0-.932.055c-.314.13-.544.337-.691.618C-.073-.495-.097-.234 0 0m-2.583-2.114.977-.405.5 1.207c.083-.34.234-.644.452-.92.22-.278.491-.487.815-.621.593-.246 1.196-.22 1.813.078a2.62 2.62 0 0 1 1.322 1.41c.271.654.292 1.299.065 1.938-.228.641-.637 1.085-1.229 1.33a2.03 2.03 0 0 1-1.013.145 2.28 2.28 0 0 1-.972-.335l.495 1.195-.977.405-.806-1.947-.325.135c-.542.224-.929.025-1.136-.476l-.302-.728 1.127-.466z" style="fill:#fff;fill-opacity:1;fill-rule:nonzero;stroke:none" transform="matrix(2.21135 0 0 2.21135 401.065 145.879)"/><path d="m0 0-3.236 1.34.638 1.54-.988.409-.638-1.539-1.362.564c-.541.224-.928.026-1.134-.473l-.01.004-.303-.729 6.397-2.65z" style="fill:#fff;fill-opacity:1;fill-rule:nonzero;stroke:none" transform="matrix(2.21135 0 0 2.21135 415.223 153.095)"/><path d="m0 0-.301-.727 2.026-.84c.318-.131.609-.136.872-.011.267.125.462.341.588.644L5.39 4.391l-.977.404L2.406-.051 1.135.476C.594.7.207.5 0 0" style="fill:#fff;fill-opacity:1;fill-rule:nonzero;stroke:none" transform="matrix(2.21135 0 0 2.21135 409.986 140.624)"/><path d="m0 0-.979-.406 3.745-9.042.979.405-.613 1.48c.179-.05.435-.048.769.007.333.053.629.13.888.238l4.087 1.693c.54.223.673.64.465 1.14L6.646 2.023l-.977-.404 2.394-5.78-3.946-1.635a9.825 9.825 0 0 0-.799-.29 2.72 2.72 0 0 0-.742-.134l-.374.903 2.564 1.063c.542.224.675.637.468 1.136l.011.004-.303.73-3.376-1.398-.375.905 2.564 1.062c.543.225.675.638.469 1.137l.01.004-.302.73L.556-1.342z" style="fill:#fff;fill-opacity:1;fill-rule:nonzero;stroke:none" transform="matrix(2.21135 0 0 2.21135 585.867 155.448)"/><path d="m0 0 1.735-.802a3.98 3.98 0 0 1 .932-.301c.178-.032.325-.029.484-.039l-1.473-3.19 1.42-.656L5.82.903l.77-.356-2.722-5.891L5.287-6l3.964 8.581c.246.532.063.926-.428 1.153l-.627.29-1.162-2.516-.77.356.799 1.728c.246.533.061.927-.431 1.154l-.626.29L3.499-.389c-.133.025-.253.037-.404.079a5.953 5.953 0 0 0-.871.328L.869.644l2.044 4.424 2.115-.978.392.849-3.625 1.675-2.379-5.15C-.721 1.168-.738.886-.636.62-.531.356-.321.148 0 0" style="fill:#fff;fill-opacity:1;fill-rule:nonzero;stroke:none" transform="matrix(2.21135 0 0 2.21135 533.625 202.531)"/><path d="M0 0c.096.305.263.506.497.603.243.101.504.077.783-.073.281-.147.485-.379.615-.692.13-.314.15-.624.057-.931-.09-.305-.257-.509-.5-.61-.234-.097-.495-.07-.78.08-.282.151-.49.383-.62.697C-.078-.612-.095-.302 0 0m-2.419-.043 1.207.5a2.359 2.359 0 0 1-.331-.97 2.001 2.001 0 0 1 .137-1.016c.245-.592.69-1.001 1.337-1.226a2.625 2.625 0 0 1 1.932.062c.654.271 1.125.713 1.416 1.325.292.614.317 1.217.071 1.809a2.033 2.033 0 0 1-.613.819c-.273.22-.581.369-.924.45l1.195.496-.405.977-1.947-.807-.134.325c-.225.542-.639.675-1.139.467l-.729-.301.467-1.127-1.945-.805Z" style="fill:#fff;fill-opacity:1;fill-rule:nonzero;stroke:none" transform="matrix(2.21135 0 0 2.21135 455.333 206.667)"/><path d="m0 0-.932 2.251 1.539.638-.41.988-1.539-.638-.564 1.362c-.224.542-.637.675-1.136.468l-.004.011-.73-.303 2.242-5.413z" style="fill:#fff;fill-opacity:1;fill-rule:nonzero;stroke:none" transform="matrix(2.21135 0 0 2.21135 470.645 205.269)"/><path d="M0 0c-.581-.241-1.258.061-1.512.674-.254.614.011 1.306.592 1.547.581.24 1.258-.062 1.512-.675S.581.241 0 0m-1.333 3.219c-1.409-.584-2.16-2.001-1.678-3.165C-2.529-1.111-.995-1.582.413-.998c1.409.583 2.16 2 1.678 3.165C1.608 3.331.075 3.802-1.333 3.219" style="fill:#fff;fill-opacity:1;fill-rule:nonzero;stroke:none" transform="matrix(2.21135 0 0 2.21135 468.436 195.315)"/><path d="m0 0 1.176-1.176L3.262.911c.414.414.377.848-.005 1.23L-1.15 6.548l-.66-.661 3.848-3.849Z" style="fill:#fff;fill-opacity:1;fill-rule:nonzero;stroke:none" transform="matrix(2.21135 0 0 2.21135 570.287 169.388)"/><path d="M0 0c.031.319.167.6.407.84.24.24.519.374.835.402.318.028.568-.049.748-.228.185-.186.263-.436.232-.751a1.319 1.319 0 0 0-.405-.834A1.347 1.347 0 0 0 .98-.98c-.317-.033-.569.043-.755.229C.045-.572-.03-.32 0 0m1.233-2.311c.679-.034 1.246.173 1.699.627.249.248.422.542.521.88.099.336.119.678.063 1.026l.914-.915.748.748-1.489 1.49.248.249c.415.414.379.848-.004 1.231l-.557.558-.862-.862-1.489 1.488-.748-.748.924-.924a2.365 2.365 0 0 1-1.024-.065 1.997 1.997 0 0 1-.885-.516c-.454-.453-.661-1.021-.621-1.705.038-.68.304-1.268.796-1.76.5-.501 1.089-.767 1.766-.802" style="fill:#fff;fill-opacity:1;fill-rule:nonzero;stroke:none" transform="matrix(2.21135 0 0 2.21135 572.56 185.72)"/><path d="m0 0 1.723 1.723L2.901.545l.756.756-1.178 1.178 1.042 1.043c.415.414.38.847-.002 1.229l.008.008-.559.558-4.142-4.143Z" style="fill:#fff;fill-opacity:1;fill-rule:nonzero;stroke:none" transform="matrix(2.21135 0 0 2.21135 579.875 173.784)"/><path d="M0 0h-1.602c.115.146.211.383.288.713.079.328.12.631.12.911v1.984c0 .585-.333.866-.876.866h-6.677V3.417h5.889V1.586a9.96 9.96 0 0 0-.037-.85A2.765 2.765 0 0 0-3.055 0h-1.35v1.28c0 .587-.331.868-.871.868v.011h-.79V0h-3.355v-1.06H0Z" style="fill:#fff;fill-opacity:1;fill-rule:nonzero;stroke:none" transform="matrix(2.21135 0 0 2.21135 513.094 213.21)"/><path d="M0 0c0-.664-.575-1.202-1.285-1.202-.709 0-1.284.538-1.284 1.202 0 .664.575 1.202 1.284 1.202C-.575 1.202 0 .664 0 0m-4.274 0c0-1.26 1.339-2.282 2.989-2.282C.366-2.282 1.704-1.26 1.704 0S.366 2.282-1.285 2.282c-1.65 0-2.989-1.022-2.989-2.282" style="fill:#fff;fill-opacity:1;fill-rule:nonzero;stroke:none" transform="matrix(2.21135 0 0 2.21135 505.519 204.619)"/><path d="m0 0-.299 1.07-3.306 1.862 2.584.722-.227.814-5.274-1.474.227-.813 1.729.483 1.005-.586-1.985-2.579.285-1.018 2.419 3.177z" style="fill:#fff;fill-opacity:1;fill-rule:nonzero;stroke:none" transform="matrix(2.21135 0 0 2.21135 412.446 79.304)"/><path d="M0 0a1.697 1.697 0 0 0-1.024.99 1.78 1.78 0 0 0-.143.732c.007.243.061.474.161.694.101.219.248.417.441.593.192.176.421.319.686.428.269.112.533.174.791.184.258.011.501-.025.727-.109.227-.084.429-.209.605-.376s.316-.373.417-.619a1.708 1.708 0 0 0-.023-1.424A1.981 1.981 0 0 0 2.197.5a2.222 2.222 0 0 0-.681-.43 2.24 2.24 0 0 0-.785-.178A2.004 2.004 0 0 0 0 0m1.846-.725c.371.154.689.357.953.611.265.253.469.541.612.863.143.322.218.661.223 1.015.005.356-.066.711-.214 1.068a2.666 2.666 0 0 1-.604.905 2.591 2.591 0 0 1-.872.562 2.676 2.676 0 0 1-1.039.179 3.067 3.067 0 0 1-1.114-.246 3.036 3.036 0 0 1-.96-.614 2.65 2.65 0 0 1-.608-.862 2.561 2.561 0 0 1-.22-1.013A2.67 2.67 0 0 1-1.783.675c.148-.356.349-.658.604-.905s.547-.434.876-.56A2.698 2.698 0 0 1 .74-.968c.366.008.735.089 1.106.243" style="fill:#fff;fill-opacity:1;fill-rule:nonzero;stroke:none" transform="matrix(2.21135 0 0 2.21135 407.24 67.782)"/><path d="m0 0 .666-1.169c.095-.168.147-.338.155-.51a.887.887 0 0 0-.104-.474.883.883 0 0 0-.354-.35.957.957 0 0 0-.434-.13.774.774 0 0 0-.411.09.741.741 0 0 0-.301.297l-.774 1.359zm-.898-3.221c.263-.15.544-.231.843-.24.3-.009.579.06.837.207.286.162.504.376.656.643.151.266.228.552.232.857.003.305-.073.593-.228.865L.289 1.137l-4.759-2.71.419-.734 1.787 1.018.619-1.087-1.214-2.025.5-.894 1.289 2.207c.057-.044.108-.096.172-.133" style="fill:#fff;fill-opacity:1;fill-rule:nonzero;stroke:none" transform="matrix(2.21135 0 0 2.21135 417.07 64.593)"/><path d="m0 0 1.285.933L2.562-.828l.659.478-1.277 1.76 1.171.85L4.645.151l.659.478-2.026 2.793L-1.155.206.871-2.586l.659.478Z" style="fill:#fff;fill-opacity:1;fill-rule:nonzero;stroke:none" transform="matrix(2.21135 0 0 2.21135 416.146 49.92)"/><path d="M0 0a33.934 33.934 0 0 0-.245-.428 4.1 4.1 0 0 1-.137-.246l-.547-1.073-1.124 1.239 1.091.427.325.137c.13.055.267.114.413.179L.189.42l.064.029L.245.434 0 0m.682 1.39-5.48-2.11.579-.637 1.356.531 1.539-1.696-.661-1.297.605-.666L1.26.753z" style="fill:#fff;fill-opacity:1;fill-rule:nonzero;stroke:none" transform="matrix(2.21135 0 0 2.21135 429.987 44.047)"/><path d="M0 0a25.642 25.642 0 0 0-.178-.46 3.59 3.59 0 0 1-.097-.263l-.379-1.144-1.299 1.055 1.014.587.301.184c.12.074.247.154.381.24l.381.245.059.037L.177.466A87.105 87.105 0 0 1 0 0m.465 1.477-5.099-2.912.668-.543 1.26.73 1.778-1.445-.458-1.382.698-.567L1.132.935z" style="fill:#fff;fill-opacity:1;fill-rule:nonzero;stroke:none" transform="matrix(2.21135 0 0 2.21135 440.897 33.785)"/><path d="m0 0 .441.684-1.828 1.178.784 1.217 2.19-1.412.44.684L-.872 4.22-3.839-.382-.94-2.251l.441.683-2.189 1.412.86 1.334z" style="fill:#fff;fill-opacity:1;fill-rule:nonzero;stroke:none" transform="matrix(2.21135 0 0 2.21135 450.027 22.932)"/><path d="M0 0a.966.966 0 0 0-.288-.35.781.781 0 0 0-.392-.154.744.744 0 0 0-.415.08l-1.4.698.8 1.604 1.204-.601A1.12 1.12 0 0 0-.078.939.88.88 0 0 0 .099.488.897.897 0 0 0 0 0m.953.508a1.748 1.748 0 0 1-.284.841 1.69 1.69 0 0 1-.671.593l-2.086 1.041-2.445-4.9.756-.377.919 1.841 1.119-.559.118-2.358.914-.465-.158 2.551c.072-.004.144-.019.217-.014.302.021.58.111.834.27.254.158.448.371.58.637.147.294.209.594.187.899" style="fill:#fff;fill-opacity:1;fill-rule:nonzero;stroke:none" transform="matrix(2.21135 0 0 2.21135 460.962 20.47)"/><path d="M0 0a2.263 2.263 0 0 0-.393-.703 1.964 1.964 0 0 0-.569-.471 1.703 1.703 0 0 0-1.421-.1 1.763 1.763 0 0 0-.64.383A1.771 1.771 0 0 0-3.578.417c-.002.26.045.526.14.797.098.275.229.512.393.711a1.776 1.776 0 0 0 1.251.666c.242.02.488-.015.739-.103.251-.089.464-.217.641-.384.176-.167.31-.362.403-.586.092-.223.141-.465.146-.724A2.207 2.207 0 0 0 0 0m.155 2.708c-.26.241-.572.426-.936.554a2.602 2.602 0 0 1-2.078-.117 2.658 2.658 0 0 1-.828-.653 3.06 3.06 0 0 1-.562-.992A3.096 3.096 0 0 1-4.435.375c.012-.366.09-.709.235-1.028.144-.32.347-.6.607-.841.261-.241.573-.426.937-.555.364-.128.723-.18 1.077-.156.354.024.688.116 1.002.277.314.16.59.379.829.657s.426.606.56.985c.133.378.194.751.182 1.117a2.72 2.72 0 0 1-.232 1.032 2.573 2.573 0 0 1-.607.845" style="fill:#fff;fill-opacity:1;fill-rule:nonzero;stroke:none" transform="matrix(2.21135 0 0 2.21135 472.74 13.529)"/><path d="M0 0c.109.09.244.15.405.178.161.028.341.02.539-.025.173-.039.33-.104.469-.197.14-.093.26-.211.362-.354a1.93 1.93 0 0 0 .248-.5l.709.442c-.072.23-.181.435-.328.614-.146.18-.326.331-.539.454a2.566 2.566 0 0 1-.732.276 2.324 2.324 0 0 1-.75.052A1.842 1.842 0 0 1-.271.758a1.51 1.51 0 0 1-.496-.39 1.32 1.32 0 0 1-.275-.563 1.707 1.707 0 0 1-.033-.614c.027-.19.093-.37.2-.538.107-.168.251-.321.434-.458s.406-.265.668-.382c.166-.07.311-.141.433-.214.123-.073.228-.148.314-.226.087-.079.155-.158.203-.238a.655.655 0 0 0 .092-.254.765.765 0 0 0-.012-.269.558.558 0 0 0-.22-.336.948.948 0 0 0-.43-.168 1.469 1.469 0 0 0-.548.027c-.315.07-.572.2-.77.389-.198.189-.382.489-.552.901l-.71-.522c.106-.264.243-.497.409-.697.166-.2.364-.366.594-.498.229-.132.489-.23.779-.295.402-.09.763-.1 1.084-.03.32.069.587.211.801.425.213.214.358.492.435.833.041.183.04.362-.004.538a1.367 1.367 0 0 1-.251.505 2.312 2.312 0 0 1-.483.457c-.198.143-.43.277-.696.401-.189.085-.349.17-.48.255-.13.086-.23.172-.298.26a.67.67 0 0 0-.129.586A.635.635 0 0 0 0 0" style="fill:#fff;fill-opacity:1;fill-rule:nonzero;stroke:none" transform="matrix(2.21135 0 0 2.21135 479.5 15.632)"/><path d="M0 0a.936.936 0 0 0-.468-.714.654.654 0 0 0-.395-.076l-1.36.157.201 1.74 1.36-.156A.67.67 0 0 0-.295.79a.873.873 0 0 0 .24-.343C0 .309.018.16 0 0m.735.773a1.68 1.68 0 0 1-.509.67c-.224.175-.484.28-.779.314l-2.215.256-.628-5.44.839-.097.241 2.083L-.941-1.6c.295-.034.572.011.831.136.258.125.475.306.649.543.175.237.28.511.316.822.036.311-.004.602-.12.872" style="fill:#fff;fill-opacity:1;fill-rule:nonzero;stroke:none" transform="matrix(2.21135 0 0 2.21135 493.97 11.792)"/><path d="m0 0 .434 1.089.123.33a39.866 39.866 0 0 1 .323.918.094.094 0 0 1 .004-.016l.149-.475c.055-.173.103-.331.145-.472a3.8 3.8 0 0 1 .086-.268l.409-1.133zm.486 3.294-2.209-5.441.861-.014.539 1.353 2.291-.037.494-1.37.899-.014L1.346 3.28z" style="fill:#fff;fill-opacity:1;fill-rule:nonzero;stroke:none" transform="matrix(2.21135 0 0 2.21135 499.175 7.917)"/><path d="M0 0a1.896 1.896 0 0 0-.948-.365 2.08 2.08 0 0 0-.78.063 1.674 1.674 0 0 0-.633.337c-.183.155-.33.349-.444.582a2.277 2.277 0 0 0-.213.793 2.09 2.09 0 0 0 .066.788c.071.245.18.461.327.648a1.779 1.779 0 0 0 1.237.668c.161.015.323.004.487-.032a1.96 1.96 0 0 0 .489-.186c.163-.086.326-.198.491-.334l.505.638c-.147.169-.33.315-.548.438a2.562 2.562 0 0 1-.717.27c-.26.057-.522.072-.787.047a2.583 2.583 0 0 1-1.816-.982 2.822 2.822 0 0 1-.591-2.045c.039-.41.139-.78.298-1.111.16-.33.369-.61.626-.84a2.4 2.4 0 0 1 .881-.501c.329-.105.684-.14 1.063-.104a3.083 3.083 0 0 1 1.41.504c.194.134.344.276.45.428L.367.349A2.093 2.093 0 0 0 0 0" style="fill:#fff;fill-opacity:1;fill-rule:nonzero;stroke:none" transform="matrix(2.21135 0 0 2.21135 515.952 6.164)"/><path d="m0 0-.321 1.555 2.13.439-.164.797-2.13-.439-.292 1.417 2.551.526-.164.797-3.379-.697L-.663-.967l3.379.696-.165.797Z" style="fill:#fff;fill-opacity:1;fill-rule:nonzero;stroke:none" transform="matrix(2.21135 0 0 2.21135 522.402 6.689)"/><path d="m0 0-.757-.278L.386-3.384c.092-.249.115-.495.071-.736a1.408 1.408 0 0 0-.299-.648 1.358 1.358 0 0 0-.6-.421 1.278 1.278 0 0 0-.7-.057c-.236.046-.45.147-.64.302a1.363 1.363 0 0 0-.423.607l-1.143 3.105-.793-.291 1.167-3.172c.142-.387.359-.7.65-.94.291-.24.625-.39 1.002-.448a2.294 2.294 0 0 1 1.161.131c.396.146.719.363.968.652.25.289.407.619.474.991.066.371.028.751-.114 1.137z" style="fill:#fff;fill-opacity:1;fill-rule:nonzero;stroke:none" transform="matrix(2.21135 0 0 2.21135 540.135 22.7)"/><path d="m0 0 .835-1.594c.106-.203.211-.398.315-.585.104-.187.205-.365.302-.535a15.921 15.921 0 0 1 .552-.894c.028-.042.054-.076.081-.115l-4.802 2.3-.672-.351 2.541-4.852.748.393-1.056 2.016a11.09 11.09 0 0 1-.399.67l-.303.477-.301.475 4.762-2.223.686.359L.748.392z" style="fill:#fff;fill-opacity:1;fill-rule:nonzero;stroke:none" transform="matrix(2.21135 0 0 2.21135 549.717 27.511)"/><path d="m0 0-2.172 3.253.735.49-.435.651-2.173-1.451.435-.651.735.491L-.703-.469l-.735-.491.435-.651L1.17-.16.735.491Z" style="fill:#fff;fill-opacity:1;fill-rule:nonzero;stroke:none" transform="matrix(2.21135 0 0 2.21135 562.045 23.038)"/><path d="m0 0 1.176-3.338a13.966 13.966 0 0 1 .365-.986l.027-.063-.238.148a40.911 40.911 0 0 1-.734.424l-3.121 1.738-.743-.612 5.17-2.837.634.522L.761.626z" style="fill:#fff;fill-opacity:1;fill-rule:nonzero;stroke:none" transform="matrix(2.21135 0 0 2.21135 565.917 39.105)"/><path d="m0 0-1.138 1.108L.378 2.666l-.583.567-1.516-1.558-1.037 1.009 1.816 1.867-.583.567-2.406-2.472 3.925-3.819L2.4 1.3l-.583.567Z" style="fill:#fff;fill-opacity:1;fill-rule:nonzero;stroke:none" transform="matrix(2.21135 0 0 2.21135 577.124 35.567)"/><path d="m0 0-1.412 1.102.827 1.061c.119.152.257.265.413.338a.894.894 0 0 0 .478.084.886.886 0 0 0 .458-.195.948.948 0 0 0 .286-.351.776.776 0 0 0 .073-.415.749.749 0 0 0-.16-.391Zm1.908 1.498c.039.3.006.59-.099.871-.105.28-.275.512-.509.695a1.701 1.701 0 0 1-.845.361 1.74 1.74 0 0 1-.88-.111 1.681 1.681 0 0 1-.714-.539L-2.573.937l4.316-3.369.52.666L.641-.5l.77.985L3.746.133l.636.803-2.531.352c.019.07.048.137.057.21" style="fill:#fff;fill-opacity:1;fill-rule:nonzero;stroke:none" transform="matrix(2.21135 0 0 2.21135 580.845 46.397)"/><path d="M0 0c-.16.099-.33.156-.51.172a1.385 1.385 0 0 1-.56-.073 2.336 2.336 0 0 1-.589-.308c-.2-.14-.402-.316-.605-.527a3.404 3.404 0 0 0-.398-.37 1.23 1.23 0 0 0-.343-.198.658.658 0 0 0-.596.069.632.632 0 0 0-.269.317.845.845 0 0 0-.036.44c.026.162.092.329.199.502a1.364 1.364 0 0 0 .792.606c.168.049.353.073.554.072l-.187.814a1.823 1.823 0 0 1-.688-.109 1.947 1.947 0 0 1-.605-.363 2.598 2.598 0 0 1-.5-.602 2.368 2.368 0 0 1-.293-.692 1.846 1.846 0 0 1-.041-.677 1.53 1.53 0 0 1 .207-.596c.109-.181.257-.329.443-.444.192-.118.381-.195.57-.231.189-.037.38-.033.574.013.193.046.385.133.574.262.19.128.383.297.579.507.12.134.234.248.343.34.109.092.215.166.317.223.102.056.199.094.291.114a.66.66 0 0 0 .269.004.748.748 0 0 0 .251-.099.562.562 0 0 0 .246-.317.946.946 0 0 0 .019-.462c-.032-.17-.1-.34-.204-.509a1.6 1.6 0 0 0-.619-.601c-.243-.126-.587-.202-1.032-.228l.263-.842c.284.015.548.068.792.16.243.092.465.225.664.399.199.174.377.388.533.641.216.351.343.689.382 1.014.038.326-.009.625-.142.896C.512-.411.297-.183 0 0" style="fill:#fff;fill-opacity:1;fill-rule:nonzero;stroke:none" transform="matrix(2.21135 0 0 2.21135 593.398 59.832)"/><path d="m0 0-3.504 1.737.392.792-.701.348-1.16-2.341.701-.348.392.792L-.375-.757l-.393-.792.701-.347 1.16 2.34-.7.348z" style="fill:#fff;fill-opacity:1;fill-rule:nonzero;stroke:none" transform="matrix(2.21135 0 0 2.21135 597.781 64.398)"/><path d="m0 0-.758.296-1.439-3.688.758-.295.557 1.428 4.344-1.695.307.787-4.344 1.695z" style="fill:#fff;fill-opacity:1;fill-rule:nonzero;stroke:none" transform="matrix(2.21135 0 0 2.21135 594.704 79.217)"/><path d="m0 0-.255-.936 1.809-1.985-2.603-.928-.267-.982L2.196-3.55l2.339-.637.222.815-2.353.641z" style="fill:#fff;fill-opacity:1;fill-rule:nonzero;stroke:none" transform="matrix(2.21135 0 0 2.21135 596.034 90.644)"/></g></svg>